<svg xmlns="http://www.w3.org/2000/svg" width="960" height="960" viewBox="0 0 720 720"><defs><style>*{stroke-linejoin:round;stroke-linecap:butt}</style></defs><g id="figure_1"><path id="patch_1" d="M0 720h720V0H0z" style="fill:#fff"/><g id="axes_1"><path id="patch_2" d="M90 633.812h558V93.388H90z" style="fill:#fff"/><g id="LineCollection_1"><path d="m359.564 556.143 2.142-15.888M359.564 556.143l-.067.666M358.455 549.14l.45.576.209.393.17.675-.016 1.104-.03.79-.015 1.033.099.788.104.845.138.8M363.058 321.225l-6.781-.827M363.058 321.225l.068-7.62M363.058 321.225l8.596 1.164M363.058 321.225l-.013 1.178M367.52 470.096l-4.493.871M367.52 470.096l.856-.03M369.392 473.215l-1.093-.191-.625-.086-.138-.062-.1-.155-.008-.137.054-1.46.037-1.028M369.395 469.315l-.812.414-1.064.367M413.74 412.629l-.274-.59M427.337 440.52l-13.46-27.617-.137-.274M406.604 412.393l5.549.302 1.587-.066M355.803 350.337l.16-10.609M347.723 350.012l3.002.184 3.144.191 1.934-.05M363.06 351.392l-.256-.255-.3-.167-.455-.129-.825-.133-3.32-.308-2.1-.063" clip-path="url(#pe80ea98c32)" style="fill:none;stroke:#000"/><path d="m355.786 360.798.05-5.047-.033-5.414M392.91 411.812l-.115 4.497M392.91 411.812l5.314.173M392.91 411.812l-4.1-.12M374.845 411.206l4.266.13M376.458 416.465l-1.31-.157-.167-.065-.069-.118-.041-.141-.008-.234-.018-4.544M374.845 411.206l-1.828-.032M355.98 339.193l-8.235-.102M355.98 339.193l-.118-6.97M355.98 339.193l-.017.535M363.047 339.801l-1.177-.109-5.89-.5M398.224 411.985l.015-.466M398.224 411.985l5.947.317M398.456 416.261l-.023-1.277-.066-1.266-.092-1.116-.05-.617M364.77 389.972l-.586.018M364.77 389.972l-.436-10.94-.01-2.426M364.77 389.972l.384 5.473M347.372 389.965l.033 17.444M355.076 389.868l-2.876.188-4.828-.091M350.038 375.616l-.16.909-.555 2.883-1.516 6.312-.435 4.245M383.775 411.544l-1.252 5.14M383.775 411.544l.004-.614M383.775 411.544l5.035.148M383.775 411.544l-4.664-.208M355.862 332.222l-8.08.208M355.862 332.222l.008-5.122M363.136 332.306l-7.07-.087-.204.003M406.604 412.393l-.028-.599M406.604 412.393l-2.433-.091M355.076 389.868l-.156 18.504" clip-path="url(#pe80ea98c32)" style="fill:none;stroke:#000"/><path d="m355.73 371.522-.31 3.418-.1 4.131-.247 5.67.003 5.127M364.184 389.99h-6.088l-3.02-.122M355.87 327.1l7.184.07M355.87 327.1l-8.056-.091M355.87 327.1l.235-5.188M356.69 312.803l3.78.433M356.69 312.803l-3.158-.306M356.277 320.398l.131-2.963.281-4.632M404.17 412.302l.358 3.986M404.17 412.302l.017-.625M354.92 408.372l-.234 5.637M354.92 408.372l-7.515-.963M365.318 410.186l-.861-.161-9.537-1.653M313.054 420.93l1.812-1.399 1.026-.716 1.267-1.174 1.093-1.108 1.3-1.49.65-.592.835-.516 1.15-.383 1.318-.3 5.77-1.624 4.354-1.325 2.327-.508 7.714-1.715 3.735-.671M347.059 417.833l.213-5.181.133-5.243M485.661 316.456l-5.937-.933M485.661 316.456l3.631.464M484.953 320.346l.183-1.191.525-2.7M486.343 311.683l-.554 4.126-.128.647M471.71 335.32l-3.536-.5M471.71 335.32l4.22.575M472.72 327.267l-.685 5.413-.325 2.64M347.745 339.09l.01.396M347.745 339.09l.036-6.66M380.138 315.79l-.601 7.58M380.138 315.79l.792-6.866M380.138 315.79l3.463.666M380.138 315.79l-7.439-.815M394.483 332.864l-.019.516M395.381 325.493l-.017.13-.881 7.24M394.483 332.864l-7.379-.187-.903.052M394.483 332.864l8.729.512M372.7 314.975l-1.046 7.414M372.7 314.975l.915-6.133M372.7 314.975l-9.574-1.37M473.22 324.119l-.5 3.148M473.22 324.119l-5.02-.442M474.105 315.05l-.335 3.688-.55 5.38M347.814 327.009l-.033 5.421M347.814 327.009l-.067-5.83M337.69 312.642l-.792 3.456-.467 2.016-.217 1.54-.116 1.392.016 1.407.292 1.54.359 1.208.283.575.582.562.81.346.927.208.65.183.91.05h1.141l5.746-.116M363.054 327.17l4.563-.048M363.054 327.17l.082 5.136M363.045 322.403l.002 1.09.007 3.677M363.126 313.605l-2.656-.369M477.278 328.263l.928-4.211.901-4.998.617-3.53M481.225 308.51l-1.117 4.798-.384 2.215M474.105 315.05l1.257.028 2.394.162 1.968.283M347.831 311.826l5.7.671M347.808 319.336l.036-.63-.013-6.88M348.098 297.017l-.046 2.562.017 2.586-.238 9.661M482.068 336.72l.203-1.159M482.068 336.72l-6.138-.825M482.068 336.72l7.846.99M481.384 341.142l.658-4.31.026-.112M374.946 340.468l-4.745-.267M374.946 340.468l-.024.363M374.946 340.468l3.501.18M379.232 327.23l7.436.756M379.232 327.23l-8.141-.168M379.232 327.23l-.318 5.243M379.537 323.37l-.02.101-.285 3.759M475.93 335.895l1.348-7.632M415.84 320.671l-1.327 7.41M415.84 320.671l-12.912-1.706M427.214 322.496l-.894-.06-10.48-1.765M371.09 327.062l-3.473.06M371.09 327.062l-.516 4.993M371.654 322.389l-.02.11-.543 4.563M396.382 317.989l-1 7.504M396.382 317.989l-2.485-.283M396.382 317.989l6.546.976M363.136 332.306l4.63.008M363.136 332.306l-.089 7.495M457.592 333.638l-.008.124M457.592 333.638l-33.55-4.434M457.592 333.638l10.582 1.183M457.459 326.201l.116 5.03.017 2.407M378.447 340.648v.388M378.447 340.648l.443-7.92M378.447 340.648l1.296.028M387.86 316.956l-.743 7.524M387.86 316.956l6.037.75M387.86 316.956l-4.26-.5M386.668 327.986l-.467 4.743M387.117 324.48l-.028.125-.421 3.38M457.408 313.733l-.066 5.838M457.408 313.733l-4.036-.991M461.853 315.428l-.191-.305-.276-.332-.492-.25-3.486-.808M459.343 305.52l-.075 2.424-.009.65-.15.625-.25.941-.5 1.382-.95 2.191M483.293 329.365l-1.022 6.196M483.293 329.365l.868-4.497M483.293 329.365l-6.015-1.102M448.106 311.17l-1.872-.394-2.102-.633-2.376-.541M440.213 304.796l.8.741.318.425.308.783.108.625.009 2.232" clip-path="url(#pe80ea98c32)" style="fill:none;stroke:#000"/><path d="m452.205 318.605-9.674-1.732-.608-.059-.3-.1-.135-.079-.083-.18.026-.324.183-1.474.05-1.216.092-3.84M477.278 328.263l-4.559-.996M403.212 333.376l-.172.287M403.212 333.376l.457.205M403.212 333.376l.546-.512M386.201 332.729l-.018.284M386.201 332.729l-7.287-.256M363.047 339.801l-.013.414M363.047 339.801l4.804.293M484.16 324.868l.793-4.522M484.16 324.868l7.236 1.468M453.372 312.742l-5.266-1.573M452.205 318.605l.15-1.024.133-.775.434-1.833.45-2.231M385.706 340.997l-5.963-.321M385.706 340.997l-.014.464M385.706 340.997l.138-2.561M385.706 340.997l5.153.388M474.105 315.05l-2.718-.097M378.914 332.473l-.024.255M378.914 332.473l-.686-.083-6.941-.344-.713.009M451.754 303.73l-2.451 5.097-1.197 2.342M370.52 332.378l.054-.323M370.52 332.378l-.319 7.823M370.52 332.378l.706.06 6.966.263.698.027M369.923 332.237l.282.085.315.056M370.201 340.201l-2.35-.107M370.201 340.201l-.03.375M364.236 253.785l3.459.539M364.236 253.785l-2.988-.394M364.236 253.785l1.115-4M397.15 269.99l-.693-.141-.517-.133-.642-.2-.534-.225-.717-.342-1.718-.99M387.65 264.976l1.935 1.308 2.744 1.674M387.025 268.033l4.237 1.674.233.009.175-.038.15-.133.105-.242.404-1.345M348.182 292.862l-4.08-.768M348.182 292.862l-.084 4.155M348.182 292.862l.028-3.354M354.186 276.758l-6.033-.46M354.186 276.758l.221-10.29M354.186 276.758l-.13 3.477M360.135 277.425l-1.713-.139-2.335-.258-1.901-.27M342.777 288.497l-1.985-.404-1.522-.363M348.153 276.298l.06 2.115M348.173 266.234l.017 2.34-.037 7.724M355.628 252.858l-1.419.02-3.169.15-3 .172M348.148 259.82l-.067-3.697-.042-2.923M348.523 173.66l-.025 15.017-.067 13.734-.033 4.772-.075 21.572-.125 7.287-.042 11.428-.117 5.73M378.61 260.32l.318-2.405M387.65 264.976l-1.992-1.174-1.86-1.091-3.136-1.549-1.159-.5-.892-.341M372.09 257.63l.541.542.384.342.41.29.474.334.475.208.551.209.625.2 1.176.207 1.885.359" clip-path="url(#pe80ea98c32)" style="fill:none;stroke:#000"/><path d="m377.018 268.566.309-1.166.325-1.224.433-2.474.526-3.381M347.723 350.012l.074-1.04M347.689 371.55l-.091-4.922.133-7.362-.008-9.254M365.853 277.549l-2.169.015M374.033 276.05l-1.05.263-4.697.886-2.433.35M367.061 267.059l-.083 2.398-.042.517-.083.616-.05.417-.084.59-.525 3.233-.142 1.04-.199 1.679M399.736 270.194l-1.261-.12-1.326-.083M393.284 275.402l.971-1.039.484-.55.4-.508.384-.558 1.626-2.756M382.322 274.114l-7.605 1.79M382.322 274.114l.428-5.82M373.657 280.226l2.904-.692 4.222-1.44.884-.287.267-.125.163-.116.1-.18.05-.237.02-.258.055-2.777M363.684 277.564l-3.074-.139M363.684 277.564l-.446 6.916M387.65 264.976l-.625 3.057M367.695 254.324l-.859 6.155M372.09 257.63l-.868-.641-2.41-1.966-1.117-.7M348.254 283.147l10.7.99M348.254 283.147l-4.655-.493M348.254 283.147l-.044 6.36M348.254 283.147l-.04-4.734M355.628 252.858l2.61.184 3.01.35" clip-path="url(#pe80ea98c32)" style="fill:none;stroke:#000"/><path d="m360.548 259.722.309-3.074.183-1.49.208-1.767M348.098 297.017l-4.788-1.421M363.238 284.48l-4.284-.344M363.238 284.48l-2.187 8.268M372.465 285.377l-4.862-.454-4.365-.443M339.114 282.199l4.485.455M350.038 375.616l.718-4.082M347.689 371.55l-.066 2.599.066.391.134.271.179.18.27.14 1.766.485M361.051 292.748l-4.214-1.161-6.363-1.537-2.264-.542M342.777 288.497l2.669.433 2.764.578M386.148 462.827l-.353 4.064M386.148 462.827l.04-.48M386.148 462.827l5.39.694.782.107M386.148 462.827l-5.58-.887M367.061 267.059l-.225-6.58M377.018 268.566l-.809.042-.491-.008-.668-.067-2.652-.558-1.234-.242-1.643-.316-1.05-.2-1.41-.158M360.698 266.65l1.593.05 1.668.067 1.068.083 2.034.209M380.568 461.94l.033-.402M380.568 461.94l-3.951-.446M360.135 277.425l-.32 1.619-.384 2.274-.477 2.818M339.083 276.987l1.46.266 3.919.6 3.752.56M366.836 260.48l-6.288-.758M339.083 276.987l-1.034-.184-1.893-.428M379.537 323.37l-7.883-.981M379.537 323.37l7.58 1.11M369.079 353.657l5.771.683M369.079 353.657l.434-4.989M375.338 360.464l-.284-.345-.208-.283-.488-.462-3.052-2.857-1.451-1.408-.484-.799-.292-.653M363.06 351.392l3.05 1.352 1.284.558 1.685.355M399.834 458.706l-6.665-1.363M399.834 458.706l-.31 2.28M399.834 458.706l2.1.41M387.025 268.033l-2.185.142-2.09.12M377.018 268.566l1.126-.067 1.451-.1 3.155-.105M380.93 308.924l-7.315-.082M380.93 308.924l3.633.245M360.902 308.515l9.878.242 2.835.085M375.392 296.734l-.576 3.39-.433 3.056-.768 5.662M386.682 455.93l-.228 3.181M386.682 455.93l6.487 1.413M381.14 458.375l.197-3.234.117-.147.213-.075h.33l4.685 1.01M360.698 266.65l-6.29-.182M360.698 266.65l-.15-6.928M360.698 266.65l-.088 10.775M374.717 275.904l.961-2.86 1.34-4.478M369.513 348.668l5.126-.074M369.513 348.668l.658-8.092M392.888 344.557l2.23.238M392.888 344.557l-7.281-.323M393.409 341.442l-.213.675-.125.783-.183 1.657M399.056 464.172l.468-3.187M399.056 464.172l2.316.394M399.056 464.172l-5.943-.666M354.634 308.4l5.03.05M354.634 308.4l-1.102 4.097M359.632 305.653l-4.267 1.042-.195.112-.139.138-.09.166-.307 1.29M359.632 305.653l.032 2.797M361.051 292.748l-.795 3.021-.339 3.85-.285 6.034M387.117 324.48l8.264 1.013M374.717 275.904l-.684.146M381.371 286.515l-3.953-.5-4.953-.638M373.657 280.226l-.479 2.486-.713 2.665M395.381 325.493l10.713 1.528M374.85 354.34l1.585.189M374.85 354.34l.522-5.875M373.657 280.226l.376-4.176M373.382 296.134l-2.801-.699-6.41-1.726-3.12-.961M359.664 308.45l1.238.065M386.454 459.111l-.267 3.237M386.454 459.111l6.355.93M386.454 459.111l-5.314-.736M375.392 296.734l-2.01-.6M385.94 299.112l-.245-.004-.288-.026-7.572-1.756-2.443-.592M378.102 291.9l-2.176 4.06-.534.774M457.342 319.571l-4.668-.887M457.459 326.201l-.034-2.599-.083-4.03M363.034 340.215l.008.823.018 10.354M363.107 360.27l.015-4.441-.062-4.437M360.135 277.425h.475M559.064 106.237l.058-.583M540.15 108.253l7.13-1.012 4.508-.626 2.694-.375 4.582-.003" clip-path="url(#pe80ea98c32)" style="fill:none;stroke:#000"/><path d="m566.702 160.9.417-.433.226-.375.108-.35.058-.341.034-.417-.134-1.965-.475-3.823-.667-4.165-1.868-10.178-3.987-22.388-.7-4.29-.476-3.19-.133-1.274-.041-1.474M525.59 109.652l.875-3.898M527.241 152.48l.6-.742.41-.525.358-.541.292-.433.525-1.175.242-.7.142-.599.075-.558v-.8l-.234-2.248-1.851-11.302-1.443-9.612-.884-5.33-.292-2.882-.05-1.35.459-4.03M535.997 109.219l-2.234.316-2.269.225-2.485.1-1.876-.008-1.543-.2M319.386 124.927l1.202.996" clip-path="url(#pe80ea98c32)" style="fill:none;stroke:#000"/><path d="m393.987 148.267 12.76 2.542 13.652 2.678 15.377 3.04.768.141.883.16.968.107.726.042.758.025 1.076-.008.884-.034.776-.05 1.067-.133.792-.166 1.393-.359 1.96-.583 4.736-1.499 2.51-.825 11.375-4.014 13.043-4.531 1.034-.317 1.284-.3.917-.174.75-.125.735-.075.8-.033.734.008 1.142.15 5.863 1.2 12.7 2.806 15.57 3.207 6.221 1.332M566.702 160.9l-24.583-5.314-14.878-3.107M566.702 160.9l1.264.282M393.987 148.267l-14.6-2.909-1.251-.208-.917-.125-1.202-.142-.992-.108-.925-.075-.776-.033-3.945-.084-9.231.017-3.52-.017-.65.05-.625.075-.692.15-.534.159-.534.175-.6.316-.65.45-1.151.924-.509.575-.4.483-.342.483-.367.583-.259.55-.167.516-.15.475-.141.608-.067.6-.059.69-.108 17.683-.1 3.532M324.706 130.6l-.517 3.34-.008.607.075.5.158.383.317.375 5.35 5.468.28.312.316.366.346.463.267.362.388.617 6.304 11.335 3.503 6.28 4.57 7.98 2.468 4.672M339.7 272.764l-.433 2.998-.184 1.225M343.599 282.654l-.822 5.843M342.777 288.497l-.813 3.149M339.481 291.102l2.483.544M347.797 348.971l-.041-9.485M337.72 354.348l.759-1.633.704-1.728.355-1.037.158-.296.287-.179.334-.083.475-.046 7.005-.375M366.494 507.522l.409-4.131M366.494 507.522l-.82 4.862M357.258 507.275l1.156-.532 1.117-.104 1.876.1 5.087.783M369.927 466.116l.013-.477M369.927 466.116l-.306 2.177-.226 1.022M369.927 466.116l.11 3.293M411.504 468.836l8.996 1.016M411.504 468.836l-10.46-.848M411.504 468.836l.472-2.998M400.621 472.592l5.904.37 3.767.23.275-.034.17-.078.13-.138.075-.224.562-3.882M393.17 457.343l-.36 2.698M392.32 463.628l.05-.397M392.32 463.628l-.018 3.739M392.32 463.628l.793-.122M392.302 467.367l8.742.621M392.302 467.367l-6.507-.476M392.302 467.367l-.006 3.193M392.337 472.262l-.041-1.702M392.337 472.262l-.08 1.989M400.621 472.592l-1.467-.02-6.817-.31M385.795 466.891l-9.403-.72M387.042 470.316l-1.276-.06-.17-.067-.067-.116-.055-.12-.016-.234.337-2.828M376.617 461.494l-.225 4.678M376.617 461.494l-1.704-.248M376.392 466.172l-6.452-.533M374.913 461.246l.116-.443M374.913 461.246l-5.07-.717M381.14 458.375l-.539 3.163M392.81 460.041l-.44 3.19M392.81 460.041l6.714.944M401.372 464.566l-.328 3.422M401.372 464.566l.563-5.45M411.976 465.838l-3.977-.503-2.818-.267-3.809-.502M401.044 467.988l-.423 4.604M354.686 414.01l.035 6.256M365.931 414.581l-1.522.211-1.193.034-5.441-.522-1.257-.083-1.832-.212M368.282 428.123l2.224.33M368.282 428.123l-.575.015M368.282 428.123l-.463-4.775-.065-.67-.073-.515M368.087 429.363l.183-.583.012-.657M392.505 433.337l34.832 7.182M392.505 433.337l-.727 4.38M392.505 433.337l.525-7.648M379.32 430.257l4.062.867 9.123 2.213M376.458 416.465l6.065.218M380.497 418.306l-3.533-.636-.225-.05-.158-.109-.071-.145-.04-.14-.012-.76M380.497 418.306l1.586.283M379.971 424.103l.403-4.361.123-1.436M379.32 430.257l.651-6.154M370.506 428.452l5.191 1.01 3.623.795M398.564 421.09l-.108-4.829M398.564 421.09l-5.636-.684M404.528 416.288l.401 2.652.217 1.207.042.754-.014.24-.036.147-.05.113-.065.058-.111.03-.175-.008-6.173-.39" clip-path="url(#pe80ea98c32)" style="fill:none;stroke:#000"/><path d="m393.03 425.69-8.004-.85-5.055-.737M393.03 425.69l3.658.214M393.03 425.69l-.102-5.284M382.083 418.589l.188-.703.252-1.203M392.928 420.406l-4.099-.534-2.825-.548-3.92-.735M392.928 420.406l-.133-4.097M365.645 403.746l-.49-8.3M372.973 403.365l-1.412-.08-1.431.018-4.485.443M365.645 403.746l.36 6.522M365.154 395.445l7.637 1.012M365.154 395.445l-.53-.014M378.496 403.265l-.214-6.755M383.056 403.749l-1.115-.194-3.445-.29" clip-path="url(#pe80ea98c32)" style="fill:none;stroke:#000"/><path d="m372.973 403.365 3.531-.204 1.992.104M394.026 395.684l-2.62-.077-7.832.167-4.272.628-1.02.108M372.791 396.457l1.51.132 2.172.04 1.809-.119M372.791 396.457l.182 6.908M372.791 396.457l-.408-2.676M372.973 403.365l.003 7.2M373.017 411.174l-.041-.61M366.005 410.268l1.162.38 2.002.113 3.848.413M383.78 410.93l-.29-1.61-.268-3.065-.166-2.506" clip-path="url(#pe80ea98c32)" style="fill:none;stroke:#000"/><path d="m391.483 403.713-1.95.054-4.448-.067-2.03.049M347.689 371.55l3.067-.016M355.73 371.522l7.811.112M355.73 371.522l-4.974.012M355.73 371.522l.056-10.724M364.074 371.64l-.533-.006M364.074 371.64l-.162-1.828-.235-2.633M364.074 371.64l.25 4.966M355.786 360.798l7.185.319M363.248 361.133l-.277-.016M374.917 361.893l-1.01-.22-1.6-.142-9.059-.398" clip-path="url(#pe80ea98c32)" style="fill:none;stroke:#000"/><path d="m363.248 361.133-.022-.37-.119-.493M363.553 365.37l-.168-2.58-.137-1.657M394.603 373.138l-2.624-5.677-1.176-2.416M386.975 356.959l1.468 2.698 1.384 3.465.976 1.923M443.72 376.463l-2.156-.474-27.09-7.364-1.834-.332-4.608-.74-2.96-.55-1.56-.45-1.793-.674-1.176-.475-1.042-.325-1.635-.183-2.397-.075-1.722.025-1.56.058-1.384.141M382.705 364.68l1.668.1 3.264.208 2.345.042.82.015M374.917 361.893l.42-1.429M382.705 364.68l-1.684-.25-1.26-.4-1-.4-2.527-1.241-1.317-.496M385.045 354.031l.13-3.276M386.975 356.959l-1.05-1.816-.88-1.112M376.435 354.529l8.03.956.204-.02.154-.076.076-.108.029-.086.117-1.164M374.639 348.594l.733-.129M374.639 348.594l.283-7.763M375.372 348.465l2.597-.502 1.71-.333.883-.374.517-.313M379.797 341.137l.73 3.702.552 2.104" clip-path="url(#pe80ea98c32)" style="fill:none;stroke:#000"/><path d="m385.174 350.755-.88-.71-.738-.766-1.538-2.199-.184-.162-.147-.076-.14-.032-.468.133M385.174 350.755l.087-1.303M379.743 340.676l.054.46M356.277 320.398l-2.952-.387M356.277 320.398l-.172 1.514M347.808 319.336l5.517.675M347.808 319.336l-.06 1.843M347.747 321.179l5.4.506M353.146 321.685l2.959.227M353.146 321.685l.179-1.674M356.105 321.912l6.94.491M360.902 308.515l-.432 4.721M384.185 285.475l-.512.665-.342.241-.35.1-.442.1-1.168-.066M377.349 291.573l1.895-2.293 2.127-2.765M377.349 291.573l-1.265 1.455-1.201 1.407-1.501 1.7M354.527 259.754l.059-1.016.091-.741.95-5.139M354.407 266.468l.079-3.465.041-3.249M348.148 259.82l2.893.218 2.127-.067.592-.083.767-.134" clip-path="url(#pe80ea98c32)" style="fill:none;stroke:#000"/><path d="m360.548 259.722-2.877-.084-1.91.058-1.234.058M373.416 252.608l-.318 2.166-.158.616-.141.458-.225.608-.484 1.175M398.878 276.764l5.11.78M398.878 276.764l2.182-6.366M396.515 287.322l.717-4.147.318-1.75.3-1.332 1.028-3.329M429.89 284.541l1.886-7.913M409.544 278.258l2.249.32 2.101.2 1.101.199 1.118.317 1.4.483 3.62 1.499 8.756 3.265M431.554 307.854l-.356-3.25-.242-1.599-.175-1.057-.35-1.633-.71-4.714-.466-4.78-.084-1.95.068-.766.15-1.465.5-2.099M409.091 278.194l.453.064M409.091 278.194l-5.104-.65M401.06 270.398l1.46.267 1.634.408 1.818.542 1.61.566 1.033.45.822.4.263.133.154.108.1.142.016.212-.879 4.568M399.736 270.194l.307.03 1.017.174M395.831 291.82l.684-4.498M395.831 291.82l-.204 3.874M395.831 291.82l-1.584.041M387.588 294.198l-.285 1.036M394.247 291.861l-.784.018-.992.108-1.168.183-.692.15-.492.166-.717.325-.826.433-.492.325-.316.342-.18.287M384.49 295.043l.868-.337.75-.213.771-.174.709-.121M384.49 295.043l.65.146.584.096.913.02.666-.07M395.627 295.694l-2.564-.268-1.81-.083-2.168-.175-.759-.05-.381.02-.294.039-.348.057" clip-path="url(#pe80ea98c32)" style="fill:none;stroke:#000"/><path d="m385.94 299.112.189-.098.106-.112.103-.232.602-1.814.363-1.622M377.349 291.573l.753.326M394.78 312.126l-.442 2.706-.441 2.874M414.513 328.081l-1.494-.244M414.513 328.081l9.528 1.123M406.094 327.02l6.925.817M403.758 332.864l.413-.975 1.134-2.423.308-.658.481-1.787M399.66 341.192l-.161.464M399.66 341.192l.598.179M403.04 333.663l-2.95 6.447-.43 1.082M395.417 356.942h.408M395.417 356.942l-.003.408M386.975 356.959l1.368-.326 1.11-.133 1.225.067 1.81.225 2.929.15M395.417 356.942l2.705-9.973M390.859 341.385l.058-1.95M385.692 341.461l4.804.215.134-.03.114-.058.063-.082.052-.121M393.628 339.824l-.131 1.219M393.628 339.824l-2.71-.389M394.464 333.38l-.375 3.39-.46 3.054M385.844 338.436l4.56.146.232.078.105.109.087.141.09.525M385.607 344.234l-.346 5.218M385.607 344.234l.085-2.773M393.497 341.043l-.088.4M393.497 341.043l5.79 1.53M399.286 342.574l-.107.389M399.286 342.574l.213-.918M399.286 342.574l.55.157M415.633 345.407l-7.976-2.227M420.057 339.918l-.33.163-.288.283-.258.478-.592 2.008-.266.816-.268.587-.275.375-.308.275-.325.258-.618.262-.467.067-.429-.083M407.497 343.817l7.627 1.956.155.008.133-.016.083-.046.138-.312M396.74 377.713l-2.137-4.575M401.586 387.441l-2.319-4.68-2.526-5.048M382.705 364.68l.242.786.28.5.454.6 1.626 1.586.868.875 1.083 1.482.818 1 1.218 1.207 1.843 1.308 5.604 3.69M401.586 387.441l3.894 8.146M409.709 387.528l-6.701-.12-1.422.033M405.48 395.587l-11.454.097M405.48 395.587l3.038 6.687M411.075 395.395l-2.79.087-2.805.105M427.827 395.615l5.08.085M427.827 395.615l-7.854-.084M427.827 395.615l-.703 2.368M427.827 395.615l1.092-4.403M408.518 402.274l-4.877.459M408.518 402.274l2.09 4.3M415.664 401.112l-2.814.392-4.332.77M415.664 401.112l-.5-5.745M415.664 401.112l.228 4.272M426.07 402.966l-6.856-1.573-2.26-.26-1.29-.021M415.163 395.367l4.81.164M415.163 395.367l-.428-7.75M411.075 395.395l2.57-.08 1.518.052M414.735 387.617l6.03-.106M414.735 387.617l-5.026-.09M410.607 406.575l2.361 4.512M410.607 406.575l5.285-1.191M415.892 405.384l9.53 1.482M415.892 405.384l.308 5.182M431.612 407.517l-6.19-.651M431.612 407.517l.695-3.127M440.194 408.41l-1.073-.039-2.22.033-1.05.075-.575-.025-.709-.116-.959-.209-1.996-.612M419.973 395.53l.793-8.019M420.766 387.511l8.795.047M429.561 387.558l-.642 3.654M433.48 387.66l-1.66.018-2.259-.12M425.421 406.866l.648-3.9M416.2 410.566l3.04.378 3.273.38 1.313.174.409.008.25-.054.146-.112.096-.12.15-.509.567-2.623.03-.67-.053-.552M428.919 391.212l4.18.468M441.363 392.541l-2.417-.164M433.099 391.68l5.847.697M433.099 391.68l-.192 4.02M433.099 391.68l.382-4.02M432.907 395.7l5.922.422M432.907 395.7l-.266 5.676M438.946 392.377l-.117 3.745M449.753 402.77l1.176-6.06.042-.515-.084-.284-.3-.208-.433-.1-.877-.083-2.36-.275-2.2-.225-1.218-.091-.426.1-.417.208-.208.3-.284.35-.483.141-2.852.094" clip-path="url(#pe80ea98c32)" style="fill:none;stroke:#000"/><path d="m440.33 401.482-1.368-.049-.125-.091-.092-.216.084-5.004M424.041 329.204l3.173-6.708M424.041 329.204l-.078.129M427.476 321.943l-.262.553M431.943 311.105l-.372 1.985-.99 2.45-3.105 6.403M451.638 325.118l-4.187-.85-4.38-.611-3.705-.2-4.693-.285-2.175-.24-2.95-.52-1.001-.234-1.071-.235M431.943 311.105l-.389-3.25M435.593 307.303l-.142 3.256-.05.45-.1.175-.258.092-.718.092-2.382-.263M457.459 326.201l-5.821-1.083M460.766 326.673l-1.03-.164-1.018-.133-1.26-.175M452.205 318.605l.47.079" clip-path="url(#pe80ea98c32)" style="fill:none;stroke:#000"/><path d="m452.674 318.684-.177.754-.134.691-.392 2.59-.333 2.399M468.174 334.82l.004-.616M468.2 323.677l-.017-.458M468.2 323.677l-.019.542M462.036 315.873l-.183-.445M468.183 323.219l-1.51-1.39-.759-.617-1.326-1.05-.708-.757-.526-.725-.517-.941-.8-1.866" clip-path="url(#pe80ea98c32)" style="fill:none;stroke:#000"/><path d="m468.1 317.405-1.652-.182-1.634-.242-1.035-.25-.957-.366-.786-.492" clip-path="url(#pe80ea98c32)" style="fill:none;stroke:#000"/><path d="m471.387 314.953-1.378-.03-.984-.066-.283.075-.226.191-.158.392-.159.692-.075.599-.025.6" clip-path="url(#pe80ea98c32)" style="fill:none;stroke:#000"/><path d="m468.183 323.219.133-.907.05-.859-.042-1.149-.225-2.899M361.706 540.255l-.315.564-.31 1.02-.228.902-.305 2.092-.108 1.482-.25 1.033-.167.63-.176.399-.22.296-.209.183-.241.138-.722.145M345.129 550.455l11.241-1.34 2.085.024M345.129 550.455l-5.488.75M346.547 528.9l-.317 2.958-.426 2.856-.492 2.316-.158 1.199-.108 1.307-.159 2.707.217 5.888.025 2.324M334.104 552.07l2.132-.333M334.104 552.07l.784 6.58M317.46 553.82l6.754-.783 9.89-.967M300.859 548.641l.85 1.156 1.158 2.992.596.91.943.663 1.075.465.945.14 2.853-.184 8.18-.963M326.516 524.853l-.275 2.066-.288 2.253-.167 1.045-.07.304-.109.187-.221.155-.517.112-.225.067-.18.082-.145.138-.065.127-.02.14-.22 2.286-.096.645-.058.33-.059.19-.125.117-.225.046-.888-.004-2.51.075-.709.158-.334.167-.208.291-.175.35-.25.641-.226.791-.058 1.766-.317 5.813-.3 3.111.033.321.009.216.062.17.096.143.071.129.025.32.008.338-.054.649-.267 3.232M242.886 532.322l.719.35.842.287 2.169.617 2.783.843 2.773.766 2.626.662 2.886.687 2.072.496.863.366.792.537 1.147.65 1.021.487 1.135.233 1.034.062 1.588-.05.834.088.822.158 1.567.43 1.656.266.667.291.563.454.513.487.754.816 1.122.854.788.412 1.014.396.942.188.809-.067.746-.237 1.342-.7 1.076-.542.847-.54.659-.575.588-.392.533-.237.663-.104.734.05.655.258.817.516 1.097.567.77.607.743.908.78 1.083.746.595.997.508.946.338 1.626.396 1.284.27 1.143.262 1.205.438.546.337.312.248.617.499" clip-path="url(#pe80ea98c32)" style="fill:none;stroke:#000"/><path d="m291.533 525.195.967 1.424.225.367.133.358.084 1.115-.075 1.65-.225 2.107-.1 1.59v.825l.183.574.45.983.518 1.191.408.592.45.458.55.558.501.633.534.458.85.583.426.475.509.6 1.083.865.668.6.68.383.287.133.136.102.102.148.016.163.021.395-.055 4.116M242.27 531.953l.616.369M242.27 531.953l-2.953 1.283M285.47 473.625l-1.25.866-4.863 4.59-4.64 4.526-.914 1.353-.437 1.153-.226 1.095-.02.905 1.588 22.744v1.279l-.204 1.062-.405.995-.717 1.137-.938 1.05-2.398 2.14-1.6 1.403-1.13.854-1.485.761-4.903 2.22-4.908 2.161-7.1 3.078-6.65 2.956M364.434 520.431l-.859 5.497M364.434 520.431l-11.79-2.451M364.434 520.431l.838-5.662M352.645 517.98l-2.212 11.554M339.178 515.254l6.167 1.221 7.3 1.505M352.342 507.57l-.014 4.404.317 6.006M352.342 507.57l-2.473-.807M356.948 507.556l-.858.452-.867.067-1.101-.167-1.78-.338M328.452 501.44l.508.022 2.968.269 2.452.807" clip-path="url(#pe80ea98c32)" style="fill:none;stroke:#000"/><path d="m339.561 502.484-.99-.047-.576.033-.688.122-2.927-.054" clip-path="url(#pe80ea98c32)" style="fill:none;stroke:#000"/><path d="m339.413 503.543-.889-.14-.917-.178-3.227-.687M350.37 502.963l-.501 3.8M350.37 502.963l-4.285-.261M351.437 493.815l-.287 3.005-.78 6.143M357.258 507.275l.096-2.477-.012-.2-.059-.124-.179-.113-.297-.129-6.436-1.27M351.437 493.815l1.01-6.91M351.437 493.815l9.161.748M352.447 486.906l-7.085-1.363M352.422 472.923l.122 4.555.159 4.19-.256 5.238M358.026 486.697l-3.037.357-2.542-.148M344.605 485.424l.757.12M344.605 485.424l-1.994-.43M344.895 474.267l.105 4.901-.395 6.256M344.895 474.267l-4.286.749M344.895 474.267l7.527-1.344M340.609 475.016l-5.704 1.033M341.593 484.81l.109-.899-.042-.925-.321-3.05-.73-4.92M341.593 484.81l1.018.184M334.31 483.756l3.305.434 3.978.62M360.598 494.563l6.989.324M361.428 487.47l-.271 1.371-.15 1.166-.409 4.556M367.587 494.887l.08-1.04M367.587 494.887l-.326 3.732M334.31 483.756l-.67 1.911-1.027 3.23-1.096 3.829-1.534 5.03-.726 1.966-.805 1.717M328.045 512.955l.147-1.319.117-1.075v-.874l-.176-.766-.225-.541-.133-.416.016-.809.059-2.048.017-1.874.125-1.066.063-.275.054-.191.141-.193.202-.069M334.905 476.049l.207 1.003.216.566.033.717v1.149l-.13.984-.345 1.282-.575 2.006M318.844 443.85l1.593 1.192.975.824.517.608.417.766.7 1.233.65 1.008.543.808.576.616.892.65.834.508.692.224.538.138.338.146.162.212.126.387.212 1.224.096.646.062.87.05 2.057.167 2.341.083 1.29.067.388.155.583.142.504.141.458.042.479.012.308.08.283.141.192.2.1.463.025 2.022-.042 1.18-.059.814-.108.342-.008.22.059.13.085.062.176-.36 2.761-.121.967-.055 1.465.1 1.3.034 1.265-.005 1.012-.018.917-.01.59.06.75" clip-path="url(#pe80ea98c32)" style="fill:none;stroke:#000"/><path d="m311.663 480.021 1.819-.124 2.043-.267 19.38-3.581M352.422 472.923l4.582-.839M352.876 466.733l-.325 1.554v2.298l-.129 2.338M369.66 454.995l-5.092.075h-3.595l-4.508-.049M353.377 465.057l.882-2.172 1.556-3.512.354-1.218.296-3.134M357.005 446.083l-.112 1.742-.3 3.998-.128 3.198M287.255 464.847l.225 1.224.266.808 1.618 2.382.684.982.292.734.175 1.05-.192 1.065M285.47 473.625l1.046-.416 1.26-.267 1.384.017 1.163.133M311.663 480.021l-1.892-.158-2.202-.425-10.582-2.748-1.668-.783-3.486-2.07-1.51-.745M297.278 442.418l-.515.62-.519 1.33-.283 2.806-.167 1.19-.417.942-.584.9-.742.982-.617.666-.875 1.041-.5.692-.868.716-.71.683-.866.824-.384.359-.309.383-.25.424-1.351 3.306-.308 1.475v1.016l.242 2.074" clip-path="url(#pe80ea98c32)" style="fill:none;stroke:#000"/><path d="m267.182 470.144.517.012.625.058 1.151.138.517-.02.31-.08.316-.175 1.059-.774 1.668-1.1 1.05-.824 1.276-.983.4-.342.343-.624.446-.633.605-.825.525-.429.8-.52.58-.28.367-.14.266-.071.405.003.346.063.425.116.467.213.36.238.358.3.542.67.388.324.374.146.56.109.725.091.925.058 1.377-.016M299.938 438.204l3.432.383M304.492 433.64l-.48.396-1.688 1.203-.726.775-.667.89-.993 1.3M297.278 442.418l.993-1.258.725-1.082.942-1.874M304.492 433.64l.356.187" clip-path="url(#pe80ea98c32)" style="fill:none;stroke:#000"/><path d="m307.144 426.735-.309.459-.358.79-.5 2.074-.893 2.466-.309.685-.283.431M369.375 449.33l-.181-2.37M369.375 449.33l.175 2.313M369.55 451.643l1.276-.267.163-.046.1-.08.041-.112-.033-.281-.134-1.116-.007-.06-.066-.075-.122-.071-1.393-.205M369.66 454.995l-.081-2.468-.029-.884M369.408 473.036l-.016.18M369.408 473.036l.113-.486.317-1.607.243-1.139M369.358 471.118l.005.65-.002.464.004.552.043.252M367.261 498.619l.753.165M367.261 498.619l-.358 4.772M368.014 498.784l.098 1.05.15 1.084.008.882-.012.433-.084.305-.262.428-.488.32-.521.105M369.42 470.044l-.062 1.074" clip-path="url(#pe80ea98c32)" style="fill:none;stroke:#000"/><path d="m369.42 470.044.122.03.133.01.141-.017.115-.067.086-.082.064-.114M369.395 469.315l-.088.1-.054.121-.014.133.027.13.064.117.09.128M369.42 470.044l-1.044.023M369.844 460.529l-.02-.46M369.844 460.529l.096 5.11M369.844 460.529l-1.007-.33M375.03 460.803l.696-3.602v-.416l-.142-.358-.269-.219-4.815-1.03-.84-.183M369.825 460.069l-.04-1.202-.126-3.872M357.47 571.509l.493-3.63M354.61 604.989l1.768-22.32 1.093-11.16M375.05 567.795l-.058-.642-.142-.275-.259-.283-.358-.158-.65-.092-.935-.024-2.042.191-2.094.292-1.384.233-.768.233-.6.283-.4.375-.284.491-.333.683-.267 1.066-.13.65-.17.458-.217.242-.276.133-.333.066-1.117-.008-4.762-.2M393.771 599.659l-1.267.05-1.877.15-5.02.75-17.237 2.369-7.597 1.145-6.162.866M393.771 599.659l.55-.108M389.844 623.42l1.76-7.304 1.075-4.714 1.168-7.096.45-2.932-.113-.674-.142-.533-.27-.508M575.834 582.927l-3.961-.483-5.48-.516-3.518-.333-1.435-.2-1.055-.205-.38-.045-.416-.108-.43-.175-.433-.104-.405.008-.304.052M404.888 571.114l.258-.084.36.03.658.062 5.587.354 4.436.225 12.576.75 8.464.607 2.836.205 5.654.34 13.084.766 11.992.676 7.347.403 4.178.204 1.701.109 7.263.345 2.627.192 9.907.616 4.852.356 13.028.96 9.7.692 12.329.956 9.743.75 3.778.297.304-.03.467-.077M466.473 521.389l-1.877 17.156.059.333.134.259.217.133.375.1 64.67 6.738 1.702.174 6.337.717 5.788.649 3.72.384 2.693.39 1.776.217.467.233.15.275.058.3-.008.633-.066.65-.217 1.203-.009.387.117.642.4 2.165.242 1.241.184 1.108.283 1.04.35.742.701 1.15.717 1.157.626.741.233.425.125.441.067.817.175 1.307.108 1.55-.033.54.208.892.2.6.393 1.332.1.641.125.833.133.824.342 1.467.392 1.407.175.75.117.824.113 1.103-.017.775-.096.579-.25.629-.175.266-.238.275-.242.235M580.772 583.48l-.47-.034-4.468-.519M574.996 586.283l.204-.216.225-.391.167-.45.1-.75.142-1.549M474.533 620.705l1.12-.662.978-.529.983-.642.4-.212.801-.325.843-.383 1.801-.845 1.134-.412.68-.188.596-.27.546-.263.433-.275.36-.266.12-.204.046-.267-.025-.395.004-.841.092-1.208.075-1.162.05-.42.07-.15.13-.113.213-.129 1.142-.429 1.547-.666 1.893-.891 2.097-1.07 4.962-2.724M574.996 586.283l-.396.038-.246.084-.255.22-.25.333-.25.608-.125.516-.284 2.407-.091.517-.15.308-.234.35-1.05 1.44-1.218 1.6-1.577 1.786-1.743 1.82-.279.358-.304.441-.304.425-.171.192-.534.387-.663.504-.947.94-1.12 1.214-.651.752-.555.77-2.227 3.061-.513.704-.658.866-.689.754-.4.366-.287.217-.38.15-.6.133-.968.038-2.385-.33-3.402-.316-12.07-1.262-11.413-1.108-7.823-.761-11.368-1.23-8.792-.811" clip-path="url(#pe80ea98c32)" style="fill:none;stroke:#000"/><path d="m405.73 595.77 8.203.731 1.767.155 1.765.19 1.279.153 1.986.23 8.992.864 6.605.625 2.093.083 1.726.15 3.211.417 8.698.681 4.644.551 13.677 1.324 9.257 1.025 9.004.988 8.987.827M400.621 472.592l-.053 4.172M220.307 543.559l5.971-1.932 3.903-2.166 3.936-.766 4.103-3.164 4.666-3.209M362.875 531.258l.645-4.773M361.912 538.729l.12-1.258.401-2.907.442-3.306" clip-path="url(#pe80ea98c32)" style="fill:none;stroke:#000"/><path d="m350.433 529.534 4.87.633 5.057.727 2.515.364M346.547 528.9l.816.15 3.07.484M411.976 465.838l.493-4.669M411.976 465.838l9.04 1.086M356.948 507.556l.31-.28M365.272 514.77l-3.614-.419-1.402-.016-2.981.045-.171-.045-.171-.117-.074-.214.089-6.448M336.145 514.593l-4.04-.791M336.145 514.593l3.033.66M335.555 526.852l.467-3.681.067-1.4.034-2.065-.034-3.164.056-1.95M328.045 512.955l4.06.847M327.508 517.308l.2-1.783.12-1.111.097-.748.12-.711M425.352 467.445l-4.336-.52M425.92 470.473l-.167-1.07-.234-1.058-.167-.9M425.528 463.73l-.176 1.975-.05.89.05.85M357.004 472.084l6.023-1.117M358.026 486.697l-.188-10.257-.13-1.736-.179-.788-.525-1.832M368.206 486.823l.411-4.939M368.206 486.823l-.54 7.024M361.85 486.456l.478-.002 5.878.369M425.92 470.473l-5.42-.62M400.568 476.764l7.297.35.35.093.18.2.112.224.209.467.125.095.287.1.367.067 7.41.604 8.468 1.586.217-.008.183-.054.176-.092.108-.183.083-.55.126-4.027.1-.375.087-.462.109-.616-.042-.958-.38-1.986-.22-.766M349.869 506.763l-4.228-1.336M311.663 480.021l.01-1.233M267.182 470.144l.755.79.683.555.513.425.546.445.81.525 1.13.641.458.391 1.326.833.767.608 1.06.383.65.167.47.004.406-.004.47.083 1.156.396.592.275.362.137.347.088.53-.059.47-.091.4-.15.36-.204.558-.508 1.297-1.258.817-.558.734-.408.325-.062.296.037M425.528 463.73l.778.137 13.523 2.729" clip-path="url(#pe80ea98c32)" style="fill:none;stroke:#000"/><path d="m438.282 462.93.939 2.117.608 1.549M441.564 470.243l-1.268-2.581-.467-1.066M365.272 514.77l.403-2.386M339.413 503.543l-.388 5.136-.05 3.198.203 3.377M339.413 503.543l.148-1.059M345.64 505.427l-2.346-.742-2.674-.78-1.207-.362M392.287 476.473l.146.17.267.064 7.868.057M335.555 526.852l10.992 2.049M326.516 524.853l1.935.516 2.276.758 1.734.533 1.435.409.555.062.366-.017.36-.087.195-.063.183-.112M339.15 543.492l-.084-.65-.1-1.415.225-2.049.013-.475-.033-.212-.071-.187-.146-.167-.33-.129-1.91-.316-1.66-.38-.508-.191-.256-.141-.088-.138-.05-.175-.006-.337.2-2.174.096-.766.033-.708.063-1.378.192-2.003.3-1.3.28-.857.245-.492M346.085 502.702l-3.07-.187-3.454-.03M358.026 486.697l2.923-.238M475.187 375.106l-.537 2.877M475.187 375.106l.518-3.081M475.187 375.106l-6.373-1.37M465.32 370.05l4.015.89M465.32 370.05l-.62 2.78M454.907 361.647l.333.617.984 1.049 1.851 1.683 1.084 1.166 1.018.95 1.034.649.967.3.484.3.5.458.392.524.434.275.476.194.857.238M452.822 348.505l-3.367-.95M452.822 348.505l3.576 1.077M454.907 361.647l-.317-.865-.117-.85-.334-1.864-.65-4.866-.234-1.865-.1-1.35-.333-1.482M458.542 417.05l.244-3.129M458.542 417.05l-3.886-.234M458.542 417.05l4.053.482M426.07 402.966l.673-2.912M426.07 402.966l6.237 1.424M481.384 341.142l9.532 1.108M480.692 345.007l.216-1.1.476-2.765M449.753 402.77l1.634.37M447.342 401.91l1.135.506.81.241.466.113M463.396 378.088l.673-2.389M467.447 379.255l-3.717-.617-.134-.092-.117-.166-.083-.292M455.907 379.821l1.142-2.424.242-.2.259-.125.292-.042 5.554 1.058M412.968 411.087l.63-.146.749-.099.977-.13.876-.146M464.7 372.83l4.114.906M464.7 372.83l-.631 2.869M347.059 417.833l-9.1.334M354.721 420.266l-5.955-.933-.795-.183-.526-.166-.173-.153-.104-.21-.054-.24-.055-.548M419.998 508.063l-3.451-.47M419.998 508.063l3.663.56M419.998 508.063l-.744 8.005M419.998 508.063l.487-7.142M399.523 505.363l-7.188-1.27-2.825-.402-2.76-.525-5.837-.866-1.11-.225-1-.333-1.21-.725-1.886-.84-1.852-.782-.56-.177-.655-.137-1.234-.08-3.392-.217M357.378 445.438l-.706-.088M357.005 446.083l.197-.382.176-.263M369.194 446.96l-6.118-.81-5.698-.712M442.337 384.363l-.072.421-.2.766-.18.492-.184.337-.237.15-.81.12-1.425.234-2.302.302-3.446.474M404.528 416.288l-6.072-.027M404.528 416.288l3.902-.112M451.387 403.14l-.367 5.93M455.47 403.292l-1.239.049h-.76l-1-.092-1.084-.109M443.43 403.715l3.054.142.484-.075.241-.166.117-.617-.002-.348.018-.742" clip-path="url(#pe80ea98c32)" style="fill:none;stroke:#000"/><path d="m440.33 401.482 6.27.027.367.15.375.25M363.027 470.967l-.247-6.662M398.456 416.261l-5.661.048M423.66 508.623l.513-7.29M423.66 508.623l-1.017 7.932M423.66 508.623l3.205.783M403.64 402.733l-5.725.53M403.895 407.238l-.235-4.22-.02-.285M447.31 408.729l-.128 4.756M447.31 408.729l3.71.342M443.215 408.493l.4.003 1.26.075.658.05 1.776.108M412.469 461.17l13.059 2.56M412.469 461.17l-10.534-2.055M366.932 420.67l.24 1.517M354.721 420.266l1.35.1h4.036l1.635-.067 5.19.37M366.932 420.67l-.321-1.515M346.085 502.702l-.444 2.725M368.148 430.326l.37 5.844.676 10.79M459.076 409.854l3.988.117M459.076 409.854l-3.986-.417M458.786 413.921l.123-1.586.067-.982.033-.7.067-.8M459.176 403.157l.017 1.816-.05 2.099-.067 2.782M356.672 445.35l.221.443.112.29M466.862 417.884l-.064.381-1.484 7.446-.334 1.466-.375 2.565-.242 1.374-.125.558-.2.55-.217.733-.183.574-.125.467-.117.508-.092.566.008.55-.083 1.066-.142.533-.117.283-.095.152-.15.102-.23.075-.379.021-.305-.025-.546.02-.763.084-6.48.737-2.468.125-2.918.316-5.196.383-3.06.292-6.488.483-6.555.25M438.282 462.93l-3.923-7.952-1.919-4.298-3.301-6.713-1.802-3.448M455.907 379.821l-.5 1.034-1.935 2.832-1.534 1.765M427.124 397.983l-.381 2.07M428.187 400.368l-.5-1.524-.563-.86M432.64 401.376l-.333 3.014M428.187 400.368l.759.16.642.215.968.3.967.2 1.118.133M468.15 376.665l-.703 2.59M468.15 376.665l.664-2.93M468.15 376.665l6.5 1.318M468.15 376.665l-4.081-.966M474.65 377.983l-.171 1.38M474.65 377.983l7.845 1.393M440.413 403.575l3.017.14M440.413 403.575l-.219 4.835M440.413 403.575l-.084-2.093M432.307 404.39l.623.01.561.007.817-.233 1.608-.324.734-.2 1.411-.176 2.352.1M467.447 379.255l-.932 3.347M474.479 379.362l-.776.617-.358.208-.434.117h-.534l-.775-.092-4.155-.957M469.335 370.94l-.521 2.796M475.705 372.025l-1.962-.207-4.408-.878M473.294 384.576l.676-2.89.509-2.324M426.865 509.406l-.732 7.422M426.865 509.406l.78-7.697M430.2 510.494l-2.246-.715-1.09-.373M452.567 511.793l1.94.035 1.75-.075M391.483 403.713l-.546.797-.28.388-.341.61-.547.923M388.82 411.102l.107-1.923.133-.833.25-.791.459-1.124" clip-path="url(#pe80ea98c32)" style="fill:none;stroke:#000"/><path d="m398.163 407.034-4.124-.204-4.27-.4M430.2 510.494l.832-8.412M430.2 510.494l-.575 6.72M433.687 511.182l-.763-.17-1.985-.367-.739-.15M468.316 410.27l.25-1.191.2-1.266.36-2.548.457-2.974M473.294 384.576l-.625 3.94-.967 4.797-.6 2.598-.401 1.3-1.118 5.08M462.979 402.935l3.936-.427 2.668-.217M362.78 464.305l-.105-3.922.012-.413.104-.17.242-.105.467-.062 5.337.567M368.837 460.2l.988-.131M428.187 400.368l-.867-.183-.577-.131M362.78 464.305l-9.403.752M479.758 349.746l-.951 5.638-2.502 12.96-.6 3.68M479.758 349.746l.934-4.74M479.758 349.746l-1.119.239M433.687 511.182l.88-8.727M433.687 511.182l-.71 6.443M437.22 511.671l-1.26-.052-1.188-.028-.56-.134-.525-.275M339.641 551.205l-.427-2.972v-3.531l-.064-1.21M325.682 543.36l5.57.29 7.898-.158M397.915 403.262l-3.207.263M397.915 403.262l.248 3.772M403.895 407.238l-.725.018-.86-.01-1.325-.112-.846-.016-.855-.017-.567-.013-.554-.054" clip-path="url(#pe80ea98c32)" style="fill:none;stroke:#000"/><path d="m398.239 411.52.127-1.382-.203-3.104M455.47 403.292l.254-.01 1.693-.091 1.76-.034M462.979 402.935l-.517.056-1.885.117-1.4.05M354.137 427.528l.515-5.405.07-1.857M455.907 379.821l-.456-.151M466.515 382.602l-5.004-1.365-5.604-1.416M404.187 411.677l-.116-1.999-.134-1.632-.042-.808M318.844 443.85l1.042.342.926.25.667.025.709-.1.9-.225 1.652-.816 1-.416.902-.125 1.168-.059.917-.025 1.184.01 1.543-.025 7.755.334 4.852.472 1.26.205 1.109.345 1.326.367 1.718.308 7.198.633M339.641 551.205l-3.405.532M360.949 486.46l.9-.004M361.428 487.47l-.07-.24-.118-.242-.291-.529M466.515 382.602l5.087 1.483 1.692.491M348.148 259.82l.025 6.414M354.407 266.468l-6.234-.234M384.563 309.169l5.975.807M384.563 309.169l.355-2.025M384.563 309.169l-.962 7.287M394.78 312.126l9.529 1.63M397.107 300.632l-.192.94-1.008 4.324-1.126 6.23M404.309 313.756l.538-1.385M404.309 313.756l-1.38 5.209M395.627 295.694l2.222.315M395.627 295.694l-.866 4.628M435.593 307.303l-1.735.337-2.304.214M440.213 304.796l-2.202 1.066-2.418 1.44M451.754 303.73l1.251-2.499M447.351 303.563h1.535l2.868.167M367.85 340.094l.432-7.802M367.85 340.094l-.02.354M368.282 332.292l1.641-.055M368.282 332.292l-.515.022M367.767 332.314l-.15-5.192M385.844 338.436l.34-5.423M394.026 395.684l.682 7.841M391.483 403.713l1.391-.038 1.834-.15M370.862 426.419l5.243.724.1-.023.083-.051.054-.076.536-3.099M370.862 426.419l.151-1.11M370.862 426.419l-.356 2.033M404.888 571.114l-.221.191-.313.479-.742 1.607-2.077 4.223-2.185 4.122-1.628 3.267-.03.14.137.3.162.191.346.17.663.063 3.32.525 4.053.74.283.235.15.224.125.317-.017.566-.167 1.657-1.017 5.639M394.322 599.551l9.465 1.266.455-.025.3-.125.204-.246.18-.275.804-4.376M394.322 599.551l1.426-8.353M517.85 331.698l.427-3.886M517.85 331.698l-.399 3.998M517.85 331.698l-5.944-.68M517.85 331.698l6.956.982M519.776 316.033l.615-4.12M519.776 316.033l-.466 3.988M519.776 316.033l-6.666-.929M519.776 316.033l7.052.988M523.603 340.71l.711-4.19M523.603 340.71l-.104.72M517.593 340.81l.75-.384.459-.191.45-.059 1.418.15 2.933.383M530.11 342.2l-.292-.325-.342-.225-.45-.15-1.126-.191-2.552-.275-1.745-.325M527.825 309.127l-.48 3.828M527.825 309.127l6.245.714M520.391 311.914l.417-3.397.023-.098.05-.1.098-.06.158-.015.183.023.192.036 6.313.824M520.391 311.914l6.954 1.041M527.345 312.955l6.305.79M526.828 317.02l.23-.997.158-.675.059-.824.05-.925.02-.644M533.204 317.675l-6.376-.654M526.828 317.02l-.522 3.818M519.31 320.021l-.487 3.894M519.31 320.021l6.996.817M526.306 320.838l-.542 3.982M526.306 320.838l6.531.74M516.757 323.622l2.066.293M518.823 323.915l-.546 3.897M518.823 323.915l6.94.905M525.764 324.82l-.435 3.883M525.764 324.82l6.496.662M518.277 327.812l7.052.89M525.33 328.703l-.524 3.977M525.33 328.703l6.432.708M530.686 333.262l-5.88-.582M524.314 336.52l.276-1.94.216-1.9M517.451 335.696l6.863.824M516.76 340.732l.274-1.988.417-3.048M524.314 336.52l6.477.672M484.953 320.346l3.978.741 2.693.575.275.074.12.067.072.058.065.125.01.117-.042.346-.728 3.887" clip-path="url(#pe80ea98c32)" style="fill:none;stroke:#000"/><path d="m489.914 337.71.068-.607.15-1.724.317-2.898.947-6.145M472.194 309.602l-.267 2.823-.208 1.282-.332 1.246M445.65 303.563h-.467l-3.119.567-1.85.666M409.241 299.707l-1.542.146M397.107 300.632l.742-4.623M397.107 300.632l-2.346-.31M407.699 299.853l-6.497.612-4.095.167M355.963 339.728l7.07.487M347.756 339.486l2.621.025 5.586.217M363.034 340.215l4.796.233M370.17 340.576l4.752.255M370.17 340.576l-2.34-.128M374.922 340.83l3.525.206M379.797 341.137l5.895.324M379.797 341.137l-1.35-.1M394.247 291.861l.617-4.784M395.093 285.344l-.23 1.733M394.864 287.077l1.651.245M386.187 462.348l-5.586-.81M392.37 463.23l-.533-.116-5.65-.766M380.601 461.538l-5.572-.735M375.03 460.803l-4.685-.655-.52-.08M370.037 469.409l-.1-.106-.13-.068-.144-.02-.143.027-.125.073M370.037 469.409l.057.124M370.094 469.533l.015.137M391.66 478.192l-.298-.094-2.669-1.2-2.902-1.699-4.97-3.298-1.568-.9-2.802-1.166-2.068-.466-2.469-.066-.675-.01-1.145.24" clip-path="url(#pe80ea98c32)" style="fill:none;stroke:#000"/><path d="m370.11 469.67.995.257 2.394.108 1.134.083 1.885.584 2.885 1.266 3.986 2.648 2.786 1.966 3.168 1.516 2.085.794M370.11 469.67l-.029.134M368.376 470.067l.39.268.171.173.176.187.245.423M368.087 429.363l.061.963M367.707 428.138l.096.646.284.58M365.185 425.994l-.08 1.166.038.341.142.209.254.204.267.146.281.079.328.025 1.292-.026M367.172 422.187l.04.364.283 2.469.212 3.118M364.624 395.431l.637 13.403.057 1.352M364.184 389.99l.277 3.43.163 2.011M363.541 371.634l.251 4.214.392 14.142M363.541 371.634l-.346-4.448M394.603 373.138l4.543-.072M402.446 373.014l3.402.061M402.446 373.014l-3.3.052M402.446 373.014l.04-2.67M402.755 376.329l-.282-2.209-.027-1.106M402.85 377.464l-.095-1.135M399.146 373.066l.14-3.126M402.755 376.329l2.87-.2M332.532 358.886l.46-.612.495-.557.646-.508.58-.288.855-.308.66-.363.62-.524.417-.58.454-.798M334.738 350.612l.2.362.13.238.12.308.047.47-.084.73-.104.536-.025.467.033.337.13.234.162.103.275.038.392.02.463-.012.467.013.775-.108M398.122 346.97l.44.13M399.179 342.963l-.192.65-.865 3.356M424.802 359.64l-3.561-1.216M424.802 359.64l-.384 1.324M428.496 362.222l.22-.841-.044-.341-.125-.146-.239-.117-3.506-1.136M398.562 347.1l1.153-3.958M418.731 357.008l-.158-.625-.159-1.049-.217-.974-.575-.933-.375-.342-.609-.3-.943-.274-4.72-1.374-3.077-1.1-1.109-.483-3.036-.754-1.025-.283-.709-.274-.48-.255-.587-.29-1.293-.376-1.097-.222M395.825 356.942l.211-.496 2.526-9.346M400.112 341.78l.146-.41M400.112 341.78l6.187 1.706M400.112 341.78l-.613-.124M400.112 341.78l-.277.951M400.258 341.37l3.289-7.51M400.258 341.37l6.3 1.527M403.67 333.58l.088-.716M403.67 333.58l-.123.28M404.072 333.965l-.141-.182-.107-.102-.155-.1M407.497 343.817l.16-.637M407.497 343.817l-1.198-.33M406.557 342.897l2.517-6.085M406.557 342.897l-.258.59M407.657 343.18l-.558-.14-.542-.143M409.074 336.812l.692.421M404.072 333.965l3.461 1.628.865.64.676.579M407.657 343.18l2.109-5.947M394.464 333.38l8.576.283M386.183 333.013l.87.06 7.411.307M403.04 333.663l.507.198M403.566 280.114l-2.256-.263-.242-.026-.143.008-.096.054-.075.125-.07.244-.137.466-.671 2.91-.55 3.033-.35 1.973-.534 3.482-.593 3.89M411.328 490.194l3.5.43M411.328 490.194l-.904 9.655M411.328 490.194l-3.471-.462M411.476 489.382l-3.52-.341M411.476 489.382l.734-7.903M411.476 489.382l3.41.434M403.835 495.582l-3.443-.305M403.835 495.582l.717-6.125M403.835 495.582l-.249 3.481M400.392 495.277l.402-6.086M400.392 495.277l-.32 3.411M400.072 498.688l-.549 6.675M400.072 498.688l3.514.375M400.072 498.688l-3.74-.353M397.238 488.964l-.906 9.371M397.238 488.964l3.556.227M397.238 488.964l-3.291-.14M404.552 489.457l3.305.275M404.552 489.457l-3.758-.266M403.586 499.063l3.283.398M431.89 491.95l.81-7.348M431.89 491.95l-3.243.18M431.89 491.95l5.988-.294M435.163 495.556l3.382 1.297M435.163 495.556l-.597 6.899M435.163 495.556l-3.41-1.307M434.566 502.455l-3.534-.373M438.111 502.7l-.7.033-2.845-.278M431.754 494.25l-.722 7.832M431.754 494.25l-3.133-1.253M431.032 502.082l-3.386-.373M427.646 501.709l-3.473-.375M427.646 501.709l.975-8.712M425.986 483.011l-.742 8.528M425.986 483.011l3.552.417M425.986 483.011l-3.436-.383M425.244 491.54l-3.544-.625M425.244 491.54l3.403.59M425.125 492.328l3.496.669M425.125 492.328l-.952 9.006M425.125 492.328l-3.475-.563M424.173 501.334l-3.688-.413M420.485 500.921l-3.423-.366M420.485 500.921l1.165-9.156M422.55 482.628l-.85 8.287M422.55 482.628l-3.419-.316M419.131 482.312l-.775 8.028M419.131 482.312l-3.452-.4M418.356 490.34l-3.47-.524M418.356 490.34l3.344.575M418.293 491.107l3.357.658M418.293 491.107l-1.231 9.448M418.293 491.107l-3.465-.483M417.062 500.555l-.515 7.039M417.062 500.555l-3.512-.376M413.55 500.179l-3.126-.33M413.55 500.179l-.505 6.93M413.55 500.179l1.278-9.555M415.679 481.912l-.793 7.904M415.679 481.912l-3.47-.433M412.21 481.479l-3.336-.333M410.424 499.85l-.49 6.88M410.424 499.85l-3.555-.39M406.869 499.46l.988-9.728M408.874 481.146l-.917 7.895M408.874 481.146l-3.62-.383M404.554 488.724l.7-7.961M404.554 488.724l-3.544-.349M404.554 488.724l3.403.317M405.254 480.763l-3.335-.284M401.92 480.48l-.91 7.895M401.92 480.48l-3.504-.434M397.583 488.266l.833-8.22M397.583 488.266l-3.378-.224M397.583 488.266l3.427.109M398.416 480.046l-3.418-.316M386.517 478.847l4.752.495M394.58 483.844l-2.91-.212-.362-.071-.222-.171-.342-.454-.416-.616-.884-.983-.76-.716-.975-.724-1.192-1.05" clip-path="url(#pe80ea98c32)" style="fill:none;stroke:#000"/><path d="m383.214 482.736.359-3.165.142-.482.375-.317.475-.142 1.952.217M394.58 483.844l.418-4.114M394.58 483.844l-.375 4.198M394.998 479.73l-1.453-.151M392.961 497.9l3.371.435M392.961 497.9l-3.548-.354M392.961 497.9l.986-9.075M389.413 497.546l1.015-8.904M389.413 497.546l-4.373-.526M376.66 496.212l4.036.405M379.144 482.636l-.341 4.748-.718 3.131-1.425 5.697M373.124 494.737l.091.559.259.324.509.242 2.677.35M380.696 496.617l4.344.403M383.139 483.428l-.284 3.264-.262 1.95-.346 1.565-1.551 6.41M429.538 483.428l-.891 8.703M429.538 483.428l1.277.05 2.135.083" clip-path="url(#pe80ea98c32)" style="fill:none;stroke:#000"/><path d="m432.95 483.56-.126.325-.058.26-.067.457M437.878 491.656l-1.518-3.165-1.4-2.215-1.102-.958-.583-.441-.576-.275M438.111 502.7l-.891 8.971M438.545 496.853l-.334 5.297-.1.55M387.171 486.518l-.32 1.773-1.81 8.729M368.687 481.042l.705-7.827M368.687 481.042l-.07.842M368.687 481.042l6.621.453M375.308 481.495l.01.758M383.214 482.736l-5.512-1.008-2.394-.233M383.214 482.736l-.075.692M394.205 488.042l-3.236-.117-1.108-.308-.884-.425-1.218-1.15-.934-1.34-.884-.858-1.284-.716-1.443-.392M394.205 488.042l-.258.783M401.01 488.375l-.216.816M407.957 489.041l-.1.69M414.886 489.816l-.058.808M421.7 490.915l-.05.85M428.647 492.13l-.026.867M438.545 496.853l.1-1.765-.333-2.1-.434-1.332M393.947 488.825l-3.52-.183M387.171 486.518l.947.932 1.092.717 1.218.475" clip-path="url(#pe80ea98c32)" style="fill:none;stroke:#000"/><path d="m383.139 483.428 1.243.383.709.37.75.58.75.915.58.842M383.139 483.428l-3.995-.792M379.144 482.636l-3.827-.383M373.124 494.737l.083-.79.792-3.223.834-3.948.484-4.523M375.317 482.253l-6.7-.369M625.16 126.993l-1.267-8.662-6.538-.6-9.14.233-4.803-1.199-8.44-3.565-2.001.266-4.27-.7-1.45-1.232-8.09-1.249-3.97-.55-2.167-.4-2.636-.75-4.903-1.182-6.363-1.75M631.32 174.512l-22.61-4.758M631.32 174.512l-6.16-47.52M625.16 126.993l2.903-.133 5.237.6 3.97-.4M625.16 126.993l-4.67-.933M399.523 505.363l-1.102 8.523M409.933 506.73l-1.943-.25-6.205-.815-2.262-.302M398.421 513.886l.015.595M398.421 513.886l10.492 1.1M363.575 525.928l-.055.557M369.333 526.65l-4.56-.605-1.198-.117M399.934 308.494l5.57 1.09M404.847 312.371l.657-2.786M405.758 308.684l7.444 1.035.325.099.205.088.117.095.1.175v.488l-.105 2.194-.133.483-.1.192-.196.146-.38.078-8.188-1.386M405.504 309.585l.254-.9M357.963 567.878l.567-3.856M357.963 567.878l1.294-.063M359.257 567.815l11.893-1.766M359.257 567.815l.48-3.645M358.53 564.022l.417-3.456M358.53 564.022l1.206.148M359.736 564.17l.413-3.499M370.65 562.732l-9.779 1.339-1.135.099M360.296 557.542l-.147 3.13M370.127 559.188l-.452-2.77-.058-.183-.096-.08-.125-.033-.22.01-8.88 1.41M359.497 556.81l.35.416.449.316M359.497 556.81l-.55 3.756M370.65 562.732l7.894-1.162M370.65 562.732l.5 3.317M370.65 562.732l-.523-3.544M371.15 566.049l7.926-1.178M358.947 560.566l1.202.105M360.149 560.671l9.978-1.483M370.127 559.188l7.891-1.149M406.39 553.887l-13.365 1.98M406.39 553.887l.19-2.99M404.888 571.114l-.038-.446.096-1.375.334-3.763.316-4.398.093-.716.35-1.158.225-2.423.212-1.683.03-.54-.044-.337-.073-.388M406.58 550.896l-13.988 1.855M396.136 531.396l.55.557.375.475.355.33.688.449.442.304.454.433.893.945 1.013 1.1 1.289 1.344 1.271 1.358.817.916.575.654.71.841.763.916.742.929.283.4.184.308.062.308-.008.391-.092 1.179-.108 1.432-.171 1.341-.113 1.354-.054.554-.059.283-.102.256-.143.09-.171.053M381.323 557.558l1.782-.26M381.323 557.558l-3.305.481M392.592 552.75l-11.17 1.611-.222.071-.15.087-.079.117-.06.173.412 2.749M383.105 557.299l9.92-1.432M383.105 557.299l.62 3.51M383.725 560.808l-5.181.762M383.725 560.808l3.67-.54M387.396 560.268l.515 3.29M387.91 563.558l11.357-1.681.088-.05.056-.072.046-.09.007-.1-.324-2.81-.083-.095-.09-.043-.146-.034-.242.018-11.183 1.667M387.91 563.558l-8.834 1.313M392.592 552.75l.433 3.117M378.018 558.04l.526 3.53M378.544 561.57l.532 3.301M369.333 526.65l-.007.551M369.333 526.65l.517-3.494M369.333 526.65l14.402 1.914M369.326 527.201l14.308 1.885M369.326 527.201l-.482 3.518M363.52 526.485l1.102.102 4.704.614M367.737 538.803l.611-4.464M367.737 538.803l14.674-.788M361.912 538.729l.885.133 2.455.05 2.485-.109M368.348 534.339l.496-3.62M368.348 534.339l14.38 1.935M382.727 536.274l.46-3.65M382.727 536.274l-.316 1.741M368.844 530.719l14.343 1.906M383.187 532.625l.447-3.539M395.665 530.65l.471.746M398.436 514.481l-.387 2.785-1.034 9.203-.541 3.523-.81.658" clip-path="url(#pe80ea98c32)" style="fill:none;stroke:#000"/><path d="m395.665 530.65-.797-.65-11.133-1.436M383.634 529.086l11.247 1.627.784-.063M361.706 540.255l.146-1.085.06-.441M396.136 531.396l-.033.508-.247 1.31-.291 1.159-.35.741-.835 1.017-1.117.915-.71.325-.9.133-9.242.511M383.634 529.086l.101-.522M383.735 528.564l.475-3.342M391.046 526.01l-6.836-.788M384.21 525.222l-14.36-2.066M369.85 523.156l.434-3.255.092-.194.138-.096.212-.054 13.502 1.76.22.08.125.075.092.12.017.213-.472 3.417M409.933 506.73l-1.02 8.256M409.933 506.73l3.112.38M413.045 507.11l3.502.484M413.045 507.11l-.781 8.274M412.264 515.384l-3.35-.398M412.264 515.384l3.522.404M436.46 518.157l-3.484-.532M436.46 518.157l.76-6.486M466.473 521.389l-19.94-2.215-10.073-1.017M398.436 514.481l10.092 1.061.142-.015.098-.033.066-.058.08-.45M432.976 517.625l-3.351-.411M429.625 517.214l-3.492-.386M426.133 516.828l-3.49-.273M452.567 511.793l-1.288-.023-9.398-.088-2.93.006-1.731-.017M422.643 516.555l-3.389-.487M419.254 516.068l-3.468-.28M416.547 507.594l-.76 8.194M466.473 521.389l21.04 2.365 3.436.433 41.796 4.573M345.362 485.543l-.755 6.993M344.607 492.536l-.478 4.05-.084.355-.121.233-.11.075-.14.035-.14-.002-.385-.108-1.447-.883-.184-.18-.108-.19-.042-.359 1.243-10.568M344.607 492.536l3.85.613M392.296 470.56l-5.254-.244M421.402 444.276l-26.2-5.582-3.424-.977M368.148 430.326l.16.035.323.101 23.147 7.255M413.794 306.112l-6.646-.625-.56.109-.207.166-.125.217-.498 2.705M403.566 280.114l-1.369 6.516M403.566 280.114l.421-2.57M218.297 542.226l.46-.116 1.525-.525 3.215-1.357 3.381-1.508 12.439-5.484M238.57 524.17l.071.929-.008.616-.121.65-.171.695-.313 1.067-.221 1.515-.177 1.241.035.42.092.309.108.262.259.273.338.294.855.795M238.95 521.572l-.036-.32-.11-.317-.304-.575-.384-.403-.655-.446-.76-.404-1.146-.575-1.217-.466-.871-.263-.826-.137-1.218-.013-1.171-.029-.81-.137-.574-.221-.538-.379-.692-.658-.31-.27-.382-.28-.393-.195-.875-.308-.976-.521-1.068-.65-.83-.612-.558-.462-.355-.479-.187-.583-.05-.753.075-.75.176-.883.258-.854.412-1.107.413-1.62.492-1.74.146-.546.046-1.008M211.968 496.753l2.268 3.398 3.636-.733 3.661.036.53.293.47.404.439.52.298.578.323.764.08.595" clip-path="url(#pe80ea98c32)" style="fill:none;stroke:#000"/><path d="m240.693 508.008-1.534-.7-5.538-1.632-2.769-1.066-7.18-2.002M238.57 524.17l-.037-.695.029-.479.092-.433.125-.319.123-.35.048-.322" clip-path="url(#pe80ea98c32)" style="fill:none;stroke:#000"/><path d="m263.246 470.027-.467.625-.2.69.025 1.092-.275 1.166-.31.95-.024 1.099-.067.775-.475.815-.759 1.55-.45 1.565-.25 1.325-.676 2.123-1.059 2.915-.875 1.966-.36 1.166-.29 1.532-.36.583-.542.492-1.475 1.216-.943 1.14-.634.558-.391.284-.476.325-1.093 1.299-1.159 1.083-.7.466-.567.287-.413.346-.288.408-1.234 1.924-.976 1.19-.641.692-.96.475-.475.3-.125.458-.034.832-.258 1.017.109.774-.117.958-.217.866.166.383 1.36 1.724.542.891.183.775.017.558-.242.45-.259.233-.55.291-.558.4-1.985 2.715-1.193 1.666-1.296 2.132M216.505 539.062l2.902-2.699 1.467-.6.834-.832 1.635-.433 1.801-1.833 1.468-.433.333-1.832 1.735-2.498 1.968-.267 3.87-1.732 4.052-1.732M457.191 349.82l-.666 3.865-.56 2.465-.616 3.39-.442 2.107M443.72 376.463l.217-1.086.1-.52.12-.271.138-.162.183-.15.296-.12 1.08-.122 1.455-.396 1.185-.462.55-.433 1.051-1.04 1.926-2 .76-.45.3-.25.35-.416.158-.375.059-.441.508-2.599.392-1.632.359-1.89M456.841 345.923l-.02 3.194M456.82 349.117l-.422.465M478.639 349.985l-1.65-.58-2.218-.717-6.672-1.432-5.287-1.383-1.443-.458-1.717-.617-.55-.133-.418.009-.35.116-.283.275-.159.358-.108.492-.167 1.34-.092.45-.259.717-.274.508-.171.187" clip-path="url(#pe80ea98c32)" style="fill:none;stroke:#000"/><path d="m457.191 349.82 4.554 1.009 4.753.924 1.551.2 2.435.15 1.668-.167 4.053-1.082 2.434-.869M456.398 349.582l.793.239M448.887 347.396l-2.331-.658M448.887 347.396l.568.16M449.455 347.556l.565-.667.442-.425.25-.291.367-.541.183-.359.092-.324.025-.275-.1-.333-.217-.125-.3.008-.242.083-.158.159-.167.341-.05.433-.117.633-.208.616-.334.358-.599.549M447.785 341.992l-1.23 4.746M438.02 344.354l3.81 1.053 4.726 1.331M438.02 344.354l.475-2.445.767-2.782M420.057 339.918l2.034.3 4.062.858 11.867 3.278M458.786 413.921l4.326.18M458.786 413.921l-3.963-.136M447.182 413.485l3.471.25M450.491 416.57l-3.02-.179-.142-.04-.1-.041-.071-.07-.04-.09-.005-.094.07-2.57M455.47 403.292l-.38 6.145M454.823 413.785l-4.17-.05M454.823 413.785l.267-4.348M454.823 413.785l-.167 3.031M450.653 413.734l.367-4.663M450.653 413.734l-.162 2.836M450.491 416.57l4.165.246M463.064 409.97l.048 4.13M463.064 409.97l5.252.3M462.979 402.935l.083 6.851.002.185M455.09 409.437l-4.07-.366M466.862 417.884l.553-3.433M466.862 417.884l-4.267-.352M462.595 417.532l.517-3.431M463.112 414.1l4.303.35M455.451 379.67l-4.074-1.356-6.26-1.458-1.396-.393M442.337 384.363l.144-.828v-1.266l.283-2.132.4-1.632.557-2.042M443.215 408.493l.215-4.778M440.194 408.41l2.17.078.85.005M468.316 410.27l-.9 4.18M556.957 346.301l.063.68.092.258.192.208.342.084 3.036.2M556.957 346.301l8.945 1.088 1.765.31 3.554.856 38.979 11.298M554.64 346.003l.955.12 1.362.178M554.64 346.003l-.196 2.069-.234 2.482M548.53 345.242l2.036.265 4.074.496M538.369 343.948l6.477.81M537.49 348.33l.342-1.59.342-1.775.195-1.017M538.369 343.948l-19.542-2.467M609.94 361.457l-.124.015-.146.022-.208.05-.196.012-.309-.042-.892-.241-1.66-.725-3.076-1.374-2.89-.941-1.197-.417-.788-.17-.775-.105-.247-.008-.146.033-.108.067-.088.121-.058.187-.108.467-.35 1.607-.601 4.63-.7 3.682M609.94 361.457l.671.117M609.94 361.457l-.724 4.705.02.296.071.116.117.079.117.063.175.016.134-.05.104-.104.067-.225.59-4.78M609.94 361.457l.26-1.604M610.611 361.574l.268-1.509M610.88 360.065l-.68-.212M512.312 340.98l6.515.501M511.28 351.253l-2.31.575-.25.037-.08-.02-.05-.054-.033-.076.005-.108.225-1.894.483-3.19.2-1.424.067-.284.158-.191.41-.2 1.767-.608.238-.077.072-.062.063-.082.031-.077.105-.593-.07-1.945M495.451 340.426l1.619-.683 15.242 1.237M518.827 341.481l-.809 3.66-.717 3.114-.1.883-.05.741.008 1.033.167 1.291.158.833.092.358.117.291M480.692 345.007l4.186.383 4.879.617M455.451 379.67l-.678.575-.433.467-.426.466-.642.658-.7.475-.367.142-.493.066-.441-.167-.526-.308-.342-.2-.5-.108-.292.025-.25.192-.175.283-.175.383-.092.342-.072.148-.07.094-.069.056-.172.043-.293-.042-.475-.1-.417-.133-.18-.021-.316.046-1.047.3-1.342.333-2.129.678M443.415 462.698l1.752.242 2.268.35M441.564 470.243l1.622-.17.354-.034M443.415 462.698l.125 6.754v.587M447.251 469.88l-.358-.003-2.256.125-1.097.037M447.126 481.662l-1.718-3.49-1.593-3.09-1-2.365-1.251-2.474M438.282 462.93l.738-.315.434-.117.467-.108 1.36.058.992.075 1.142.175M447.351 303.563v-1.049l.142-1.899M447.351 303.563h-1.7M445.65 303.563l.534-2.948.484-1.865M461.853 315.428l1.151-.796.575-.558.85-1.565.51-1.033.408-.808.66-1.074.967-1.408M530.11 342.2l-6.611-.77M545.155 343.719l-2.386.222-12.659-1.741M517.593 340.81l-.833-.078M517.593 340.81l5.906.62M584.315 346.007l-.756 5.625M482.271 335.561l3.591.676 1.326.183.359.008.174-.124.076-.134.05-.54M468.181 324.22l-.065 1.947-.067 2.999.1 3.948.029 1.09" clip-path="url(#pe80ea98c32)" style="fill:none;stroke:#000"/><path d="m460.766 326.673 1.612 1.66 1.735 1.782.747.77.379.28.392.187.35.196.187.158.36.454.42.487.718.883.512.674M468.181 324.22l-1.933 2.364-.626.374-.6.092-1.993-.016-2.263-.361M491.691 337.994l.98 1.513M491.691 337.994l-1.777-.283M491.691 337.994l2.26.345M413.635 333.43l-.016-.433-.075-2.249-.3-1.665-.225-1.246M494.643 338.427l-.34-.085-.351-.003M495.451 340.426l.138-.585-.107-.59-.334-.5-.505-.324M494.643 338.427l22.117 2.305M493.952 338.339l-.445.122-.386.254-.288.36-.162.432M394.76 300.322l-3.582-.473-2.894-.267-2.343-.47M378.102 291.9l1.2.52 1.327.583.446.287.238.238.1.204-.02.274.04.212.118.18.175.112.295.117.872.158.913.142.684.116M540.15 108.253l-2.502.433M535.997 109.219l.234.983.141.225.176.133.266.075.35-.017 1.66-.4.334-.175.309-.283.208-.266.476-1.24" clip-path="url(#pe80ea98c32)" style="fill:none;stroke:#000"/><path d="m537.648 108.686-.525.158-1.126.375M608.71 169.754l-1.596-8.346M587.726 165.48l8.616 1.671 12.368 2.603M586.617 157.443l.583 3.681M587.726 165.48l-.526-4.356M583.974 164.75l.786.17 2.966.56M587.81 157.96l.17 1.482-.017.221-.07.195-.11.275-.583.991M583.974 164.75l.891 6.37.85 5.18.418 2.998.5 4.948M583.974 164.75l-16.008-3.568M526.465 105.754l.443-1.974M537.648 108.686l-.233-.916-.192-.367-.183-.25-.392-.308-.467-.174-.56-.134-.75-.075-2.243-.083-2.735.15-.584-.017-.767-.133-.767-.192-1.31-.433M323.522 128.45l.233.408.242.508.25.434.459.8M325.282 127.276l-.067.862-.509 2.461M320.588 125.923l1.675 1.386.925.792.334.35" clip-path="url(#pe80ea98c32)" style="fill:none;stroke:#000"/><path d="m320.588 125.923 1.983-.213.334.025.175.1.09.204.064.331.288 2.08M329.309 125.96l.605-4.116M329.309 125.96l-3.094-.4M329.309 125.96l6.347.85M329.914 121.844l6.309.784M329.914 121.844l-3.148-.482M326.215 125.56l.551-4.198M325.282 127.276l.308-.433.233-.408.392-.875M335.656 126.81l.567-4.182M335.656 126.81l2.791.293M336.223 122.628l2.798.347M326.766 121.362l-1.576-.23M321.32 122.978l.2-1.507.08-.304.087-.225.197-.138.228-.07.247.008 2.83.39M325.282 127.276l-.276-.487-.125-.287-.08-.263-.032-.329.02-.62.005-.584.05-.7.346-2.874M338.447 127.103l.574-4.128M339.02 122.975l2.08.312.46.15.333.216.142.216.058.359-.216 2.149-.067.49-.075.359-.096.117-.154.083-.188.058-.209.013-.304-.03-2.337-.364M343.31 295.596l.792-3.502M341.964 291.646l-.306.968-.536 1.638-.021.22.046.175.092.113.179.108 1.892.728M344.102 292.094l-2.138-.448M580.772 583.48l2.576.189M447.84 483.092l.87 1.743 1.518 3.032 1.26 2.565 1.65 3.39 2.644 5.08 1.643 3.456.871 1.899.036.119.015.08v.08l-.038.12-.242.467-.217.412-.391.858-.205.446-.438.5-.312.27-.543.38-.404.245-.188.204-.187.27-.522.788-.554.645-.834.896-.705.756M447.126 481.662l-3.995 1.1-4.436.599-4.645-.283-4.461-.583-3.303-.2-3.636-.35-15.844-1.782-10.074-1.033-2.035-.2-1.868-.366-1.17-.372M459.306 470.431l-2.098 3.436-4.036 4.297-4.336 2.765-1.71.733M447.468 473.517l-.217-3.636M459.306 470.431l-2.673.096-2.085-.125-1.435-.092-1.059-.025-.983-.075-1.943-.25-1.443-.075-.434-.004M366.457 418.42l.154.735M366.457 418.42l.463-.178M366.457 418.42l-.526-3.839M366.92 418.242l-.177-.83-.298-2.877M366.92 418.242l.16.756M366.611 419.155l.47-.157M367.08 418.998l.601 3.165M367.172 422.187l.51-.024M412.968 411.087l.498.952M404.187 411.677l-5.948-.158M404.187 411.677l2.389.117M398.239 411.52l-2.163-.169-7.257-.249M383.78 410.93l-4.678-.159M383.78 410.93l5.04.172M372.976 410.564l-5.877-.404-1.094.108M372.976 410.564l6.126.207M393.113 463.506l-.743-.275M420.5 469.852l.516-2.928M392.287 476.473l-.627 1.72M392.257 474.251l-.058 1.423.022.529.066.27M327.508 517.308l.242-.317.4-.408.734-.533 1.11-.841 1.334-.958.776-.45M327.508 517.308l-.125.262-.07.446-.322 2.948-.183 1.832-.292 2.057M361.85 486.456l-.422 1.015M316.142 441.718l.55.542.86.674 1.292.916M344.679 466.43l8.197.303M353.377 465.057l-.222.448-.179.56-.1.668M336.236 551.737l.42.392.425.383.309.142.154.024.259-.003.913-.188 1.326-.108.509.066.767.167.859.358M373.124 494.737l-5.458-.89M311.672 478.788l-.834-.14-.892-.026M311.672 478.788l3.978-.358 5.362-.857M267.182 470.144l-1.159-.2-1.21-.175h-.884l-.683.258M207.335 430.82l.668.067 1.767-.467.768.7.334.8.433 1.598 1.868 1.166 1.935 2.832 4.403 3.231.634.234 1.735.3 1.067.466.4.5 1.368 2.398.834 2.132.433.633 3.136 1.766 1.568.366h2.068l3.636 1.8 1.5 1.798 2.636 1.999.968.633 1.634.766 2.268 1.732.4.5.802 1.466 1.034 2.598.433.833 1.068 1.266.266.134.967 1.032 1.402 2.232.4.467.7.266 1.335-.266h1.401l7.642 1.229M365.675 512.384l1.736.085 1.518-.083 1.326-.092.975-.15M387.042 470.316l-.35 2.96-.027.545.008.127.064.102.132.085.267.029.323-.022 3.36.024 1.438.085M388.81 411.692l.01-.59M413.466 412.039l-1.27-.003-5.62-.242M375.338 360.464l1.097-5.935M332.532 358.886l-3.425-.283M329.107 358.603l-.298.18-.258.216-.48.458-.212.433-.1.412-.097.442.034.3.079.129.238.1.237.054.326-.004.391-.042 1.777-.77.675-.308.425-.284.3-.346.388-.687M297.278 442.418l5.737-.307M409.709 387.528l.416.712.309.642.333.975.167.866.033 1.69.108 2.982M420.224 361.214l.492-1.249M420.224 361.214l3.61 1.125M416.263 358.932l-.092.83.116.208.239.145.375.187 3.323.912M423.834 362.34l.584-1.376M428.496 362.222l-.296 1.079-.133.1-.15.025-4.083-1.087M424.418 360.964l4.078 1.258M424.418 360.964l-3.702-.999M420.716 359.965l.525-1.54M420.716 359.965l-4.453-1.033M418.731 357.008l-1.56.33-.379.162-.254.196-.188.458-.087.778M418.731 357.008l.12.255.268.266.412.262 1.71.633M409.766 337.233l6.872 1.669 1.534.458 1.284.392.6.166M364.323 376.606l2.88.225 3.369.1 3.953-.292.95.016.776.15.475.225.843.592M395.414 357.35l.411-.408M398.842 361.381l-.217-.233-.209-.18-.25-.137-.52-.183-1.652-.408-.48-.159-.179-.137-.112-.2-.034-.3-.008-.362.042-.445.108-.63.083-.657M370.574 332.055l-.315.065-.336.117M307.144 426.735l.383-.533 1.251-1.499.763-1.016.605-.637.692-.604 1.643-1.074.573-.443" clip-path="url(#pe80ea98c32)" style="fill:none;stroke:#000"/><path d="m308.049 422.134.291-.105.38-.2.379-.212.35-.096.526-.07.412-.104.318-.142.375-.166.396-.096.5-.021 1.078.007M307.56 423.116l.243-.537.246-.445M306.597 421.972l.797.091.655.07M304.192 421.513l1.943.3.462.159" clip-path="url(#pe80ea98c32)" style="fill:none;stroke:#000"/><path d="m307.56 423.116-.033-.182-.104-.217-.221-.254-.246-.263-.359-.228M307.144 426.735l.133-1.749.284-1.87M304.848 433.827l1.645.862 1.743 1.208 1.701 1.108 1.63 1.155M313.55 439.624l-1.545-1.154-.437-.31" clip-path="url(#pe80ea98c32)" style="fill:none;stroke:#000"/><path d="m303.83 438.095 2.647.109 3.144-.092 1.947.048M303.83 438.095l-.31.28-.15.212M303.015 442.111l.23-3.054.125-.47M304.848 433.827l-.356 1.92-.421 1.87-.084.241-.158.237M311.872 441.577l-1.493.108-5.17.309-2.194.117M313.55 439.624l-1.678 1.953M316.142 441.718l-.792-.782-1.226-.883-.573-.429M316.142 441.718l-1.368.05-1.176-.05-1.726-.141M365.931 414.581l.514-.046M365.931 414.581l-.613-4.395M329.107 358.603l.961-1.2 1.076-1.786 1.06-1.715M378.89 332.728l7.293.285M363.107 360.27l-.107.464-.029.383M363.553 365.37l-.483.005M363.553 365.37l.124 1.809M363.07 365.375l.125 1.811M362.971 361.117l.03 1.722.034 1.268.035 1.268M363.677 367.179l-.482.007M366.445 414.535l-.339-3.305-.1-.962M403.547 333.86l.255.078.27.027M399.835 342.731l-.12.41M399.179 342.963l.536.179M399.179 342.963l-5.77-1.52M379.102 410.771l.01.565M385.26 349.452l2.712-.08 3.056-.426M494.935 341.026l.3-.265.216-.335M482.495 379.376l-1.603 2.976-2.669 4.398-1.4 3.465-1.536 5.163-8.239 44.342-1.934 6.596-.823 4.477M492.94 340.691l-.373 1.5-1.385 5.947-3.752 19.923-.868 3.165-1.4 3.198-2.667 4.952M492.94 340.691l.411.37.52.194.553-.013.511-.216M492.671 339.507l.006.62.263.564" clip-path="url(#pe80ea98c32)" style="fill:none;stroke:#000"/><path d="m466.44 451.14.975-4.458.2-4.497.634-3.598 8.273-44.208 1.868-4.93 1.534-3.599 4.737-8.195 2.268-4.53 1.335-3.999.533-2.132 4.437-22.987 1.067-2.165.634-.816M447.84 483.092l4.265-1.997 4.503-2.997 3.202-3.732 2.902-5.497 1.6-5.063 1.135-8.129.521-2.381M432.95 483.56l5.479.634 3.469-.267 3.101-.3 2.84-.535M547.806 343.22l.367-1.445 21.682-164.81-.067-3.864-1.801-10.21-.02-1.71M547.806 343.22l-1.432-.312-1.22.81" clip-path="url(#pe80ea98c32)" style="fill:none;stroke:#000"/><path d="m548.5 344.15-.274-.52-.42-.41M548.53 345.242l-.03-1.092M544.846 344.757l.468 1.23 1.163.619 1.283-.297.77-1.067M544.846 344.757l.309-1.038M401.302 298.233l6.138-.866M408.874 286.007l-1.434 11.36M407.44 297.367l.259 2.486M583.559 351.632l-13.972-4.16-5.003-.833-4.77-.666-9.206-1.066-2.109-.757M391.269 479.342l2.276.237M391.269 479.342l.16-.45M216.505 539.062l-2.802.632-2.569.367-2.868.733-.934 1.233-7.172 1.399-.5.4.467 1.365 3.201-.133 11.275-1.366 5.137-.3.567.167" clip-path="url(#pe80ea98c32)" style="fill:none;stroke:#000"/><path d="m141.353 550.138 25.746-2.581 15.235-1.533 6.703-.66 2.383-.227 9.492-.957 8.308-.896 6.997-.683 1.417-.208.663-.167M216.505 539.062l.967 1.399.825 1.765M129.589 551.297l-.976.095-10.566.991-14.143 1.362-3.173.31" clip-path="url(#pe80ea98c32)" style="fill:none;stroke:#000"/><path d="m140.32 563.575-3.636 2.499-5.003 2.898-1.035.4-2.234.033-2.67.2-2.701-.167h-3.436l-1.835-.366-4.403-1.232-1.934-.3-.901-.433-1.534-1.166-.6-.6-.434-.733-.567-1.998-.701-1.433-5.504-6.563-.461-.56M154.897 568.406l.668 2.798-.4 4.897-.2 1.133-.901 2.832-.2 1.566.1 1.565.733 3.665-.6 4.397-1.168 1.932-.4 1.067-1.868 3.031-.834 2.532-7.672.7-9.34 1.432-3.636.6-.4-.034-2.669.4M129.589 551.297l6.734-.655 5.03-.504" clip-path="url(#pe80ea98c32)" style="fill:none;stroke:#000"/><path d="m140.32 563.575-2.535-3.431-.067-2.898 1.268-3.098 1.434-.434.701-1.032.133-.733.099-1.811" clip-path="url(#pe80ea98c32)" style="fill:none;stroke:#000"/><path d="m154.897 568.406-1.567-1.533-1.635-.999-1.501-1.133-3.47-1.998-1.733.1-1.168-.334-1.301-.166-.5.066-1.702 1.166M171.176 578.866l-1.367-3.398-2.102-3.164-1.068-.567-1.067-.3-1.368-1.465-.5-.333-1.268-.533-2.669-.867-2-.1-2.87.267M393.545 479.579l-2.117-.687M366.005 410.268l-.687-.082M128.25 541.973l-.014.739-.465 1.262.145 1.102 1.306 4.06.13.761.237 1.4" clip-path="url(#pe80ea98c32)" style="fill:none;stroke:#000"/><path d="m123.368 519.777 1.233.923 2.4 1.03 1.133.696.493.609.262 1.19.465.55.406.667.87 2.233.32.87.088 4.814-.117.957-.638 1.248-1.249 2.203-.842 2.437.058 1.769M117.407 532.76l.43.527.924 1.88.088.692.033 4.022.176.571.671.407 1.563.33 1.213.05.976-.225.717-.291 2.61-.133.86.508.582.875M399.736 270.194l.799-1.536.292-.317.917-.141.95-.017 1.06-.216 1.993-.758M409.082 282.317l.462-4.059M393.284 275.402l1.28 1.001.241.267.017.241M384.185 285.475l.297-.385.775-1.049 1.751-2.024 1.085-1.091 1.234-1.291 1.084-1.216 2.543-2.665.33-.352M381.53 283.891l2.655 1.584M463.923 452.789l-2.112 11.483-2.1 5.497-.405.662M464.29 450.793l.252.353.501.363.613.095.422-.213.362-.251M466.44 451.14l-.472 2.156M464.29 450.793l-.367 1.996M465.968 453.296l-.187-.472-.359-.403-.646-.1-.505.2-.348.268" clip-path="url(#pe80ea98c32)" style="fill:none;stroke:#000"/></g><g id="PatchCollection_1"><path d="m57.059 321.287 2.501-1.866 1.501-.932 3.67-2.666 3.535-2.232 1.568-.9 1.868-.633 1.901-.965 2.836-.633 1.834.3 2.068.532 1.501.933 1.469 1 3.068 1.898 1.301 1.333 1.435 1.066 1.567.867 1.802.1 1.367-1.133 1.001-1.466 1-2.166.468-1.765.3-1.766.6-1.666.734-1.666 1.168-1.598 1.334-1.3 1.668-1.033 1.567-.866 2.235-.266 1.801.266 1.602.9 1.434 1.133 1.501 1.132 1.401 1.166 1.335 1.4 1.8 3.131.801 1.632.567 1.866 1.035 1.466 1.334 1.199 1.568.866 1.767.067 1.835-.166 3.069-1.467h1.868l1.701.467 1.234 1.3.6 1.632v1.766l-.4 1.831-1 1.433-.968 1.5.134 1.732 1.634.832 1.835-.133 1.568-.8 1.835-.066 1.834.067 1.734.366 1.101-.1.234-.633v-1.799l.366-1.699.801-1.599 1.167-1.399 1.368-1.1 1.368-1.865.667-1.633.534-2.365.967-1.932 1.068-1.5 1.367-1.265 1.435-1.166.533-.367 1.601-.7 1.768-.1 1.735.5 1.368 1.133.867 1.666-.034 1.733-.467 1.665-.7 1.6-.6 1.665v1.832l.6 1.666 1.801.333 1.034-1.4.334-1.699.133-1.765.3-1.766.534-1.699 1.334-1.299 1.535-1.032 1.768-.434h3.77l1.967.133 2.435-.066 1.568-.933-.067-1.732-1.468-.966-1.567-.9-1.235-.833-1.868-.2-1.834.067-1.434 1.033-1.501.932-2.001.2-1.835-.066-1.668-.566-1.168-1.333-.667-3.998-.567-1.7-.867-1.731-.534-.9-1-1.8-.935-1.598-.567-1.632.167-1.733.767-1.566 1.301-1.232 2.902-.766h2.202l3.402.866 3.27 2.265 4.802 1.333 2.535.2 3.603.333 3.47.733 3.335.999 3.136 1.6 2.601 2.931 2.002 1.199 1.534-.8v-1.998l-1.401-2.399-3.269-5.797-.934-2.932-.066-3.33.934-2.533 2.268-1.399 2.868.2 1.868 1.266 3.136 3.731.067 3.065-.134 3.731.2 2.799 2.202 1.532 1.401-.133 1-.667 2.269-3.131 3.269-1.666 3.536.267 3.27 1.332 2.801 2.266 1.668.733 2.001-.133.467-2.799-.8-.8-2.869-1.799-3.336-2.398-1.8-3.798 1.8-3.065 2.936-1.932 2.935-2 .267-1.465v-3.598l-.534-2.532.934-3.532 2.335-2.665 3.47-.999 3.535-.333 3.069-1.733-.2-3.398-1.602-3.065-2-2.931-1.402-3.199-.934-3.997-.4-2.8-.2-3.53-.934-1.4-2.335.134-6.938 1.866-7.472-.4-5.471-4.132-3.736-5.73-3.603-8.395-.4-5.064 1.868-5.464 3.736-6.13 5.337-4.664 6.138-4.13 7.739-4.532 5.604-4.397 4.136-5.864 3.47-6.13 2.801-6.53 3.47-5.997 4.936-5.996 4.67-5.597 3.469-6.13 2.935-6.397 2.135-6.796 3.47-10.395 3.335-6.396 3.603-6.13 2.001-6.664-.134-7.063-.934-2.665-3.335-2.532h-4.67l-6.938.133h-13.877l-7.071-.8-3.203-.532-6.938-5.597-4.937-4.93-4.27-5.465-3.201-6.13-4.804-9.795 6.938-1.733 18.813-5.197-1.333 3.931.533 6.93 2.135 6.663 4.136 6.13 5.203 4.798 6.539 2.399 7.071.533 6.938.666 7.205 1.6 4.137 5.863 2.402 11.727-.134 7.196-1.067 6.93-2.402 6.663-2.535 6.53-4.003 6.397-3.603 6.13-1.868 6.796-1.067 7.196-.4 7.063-5.07 15.458-4.937 4.798-5.737 4.13-6.005 4.132-6.138 3.198-6.404 3.732-6.004 3.598-6.538 3.065-6.405 2.932-4.136 5.996.267 7.063 3.603 6.53 5.603 4.264 7.072.8 7.072-1.2 6.938-2.731 3.802-.8 3.67-.267 3.536.6 3.335 1.066 3.336 1.133 3.536 1 3.536.4h3.535l3.736.132 3.803.333 3.403.933 3.069 1.8 6.938 4.53 2.602 2.466 3.068 2.265 3.336 1.799 3.27 1.6 2.735 2.198.8 3.465-.868 3.531-2.267 2.798-2.67 2.333-2.4 2.465-.935 3.532.6 3.664 2.47 2.665 4.469 4.73 1.735 3 2.268 2.664 2.868 2.133 3.47.133 2.735-2.532 1.601-2.998 1.2-.934 3.336-1.132 3.537.266 3.469.733 3.201 1.466 3.203 2.266 2.735 4.997.801 4.664-1.668 8.729-3.87-.2.134-4.864-.267-6.93-.934-3.465-2.669-2.199-3.535-.532-3.336 1.399-2.802 2.132-3.002 1.799-3.202 1.4-3.47.532-3.335-.666-2.335-2.532-1.602-3.065-1.8-2.931-2.402-2.8-2.669-2.265-2.268-2.598-1-2-1.068-3.33-.333-3.465 1-3.332 2.135-3.065 2.535-2.598 2.401-2.599.334-.933-.667-1.133-2.401-.799-5.804-3.665-4.004-2.931-2.735-2.266-2.268-2.731-2.535-1.866-3.67-1.2-3.468.267-3.403.466h-3.536l-3.535-.133-3.47-.267-4.937-1.265-3.402-1.2-3.67-.532-3.535.332-3.27 1.067-2.667 2.331-.1 3.2.2 1.731v4.264l.066 1.833.367 1.7.6 1.831.801 1.533.934 1.632 1.1 1.366 1.469 2.565.567 1.766v1.866l-.134 1.766-1.034 1.598-1.501.834-1.734.7-2.402.199-1.835.033-1.835.133-1.768.4-1.067 1.4-.7 2.365.066 1.799 1.034 2.165.2 1.733-.2 1.799-.734 1.565-1.3 1.2-2.802 1.732-1.601.9-.934 1.466.266 1.765 2.335 1.566 1.568 1 1.468 1.1 1.435.998.666 1.633.234 1.766v1.732l-.267 1.899-1.368 1.266-1.668.733-1.734-.2-1.668-.4-1.534-.766-1.501-1.033-1.268-1.332-1.434-.967-1.601-.733-1.768.034-1.568 1.666-.767 1.765-1.435 1.133-1.835.666-1.767.433-1.802-.133-1.7-.433-1.502-.9-1.034-1.466-.2-1.799.033-1.732.234-1.832v-1.733l-.134-1.732-.367-1.8-.8-1.565-1.268-1.299-1.668-.433-1.767.2-1.268 1.232-.2 1.733.4 1.799.767 1.766 1.068 1.765 2.468 3.099 1.201 3.497.334 1.766v1.733l-.367 1.765-1.335 1.266-1.734.167-1.701-.4-1.335-1.199-1.467-1.466-1.134-1.266-1.535-1.133-2.235-1.233-2.001-.732-1.801-.134h-1.669l-3.502-.533-1.801-.333-1.668-.366-1.667-.533-1.769-.5-1.7-.533-1.569-.766-1.934-.8-1.601-.833-1.702-.366-1.701.5-1.034 1.499-.167 1.799.367 1.699.634 1.632.734 1.7 2.035 4.33.934 1.532 1.434 1.033 1.734.267 1.702-.5 1.2-1.066 1.969-.566 1.834.1 1.635.633 1.568.9 1.434 1.165 1.168 1.366 1 1.6.234 1.765-.801 1.565-1.568.7-1.767.367-1.702.167h-3.569l-2.235.1-1.735 1.032-1.234 1.266-.433 1.699-.034 1.866-.467 1.732-.9 1.5-1.201 1.265-1.768.166-1.701-.432-.934-1.5-.067-1.766.033-1.765.2-1.832.334-1.733.1-1.732-.367-1.733-1.501-.866-1.734.134-1.735.466-1.468 1-.934 1.565-.6 1.666-.567 1.733-.667 1.598-.835 1.6-.9 1.532-1.134 1.432-1.668 1.7-.8 1.532.033 1.833.967 3.43-.067 1.733-1 1.433-1.702.466-1.767-.666-1.101-1.4-1.134-1.765-2.002-.466-.934.966h-1.734l-1.801-.134-1.735-.4-1.134-1.332.033-1.765.334-1.766.4-1.7 1.268-3.397.166-1.8-1.067-1.099-1.234.033-1.535.834-1.567.766-1.635.599-1.734.2-1.702-.166-1.567-.766-2.402-2.566-1.134-1.466-.934-1.465-1.434-2.466-.668-1.399-1-1.5-1.268-1.265-1.568-1.033-1.7-.566-1.802-.4h-1.768l-1.735.367-2.035 2.165-1.267 3.665-.834 1.598-.8 1.733-1.001 1.499-1.101 1.466-1.234 1.233-1.401 1.065-1.635.5-1.768-.1-1.734-.3-1.668-.599-1.401-1.3-.968-1.499-1.134-1.399-1.467-1.166-1.602-.733-1.7-.366h-1.769l-2.168.3-1.668.766-1.5.933-1.568 1.066-1.401 1.133-1.435 1.232-1.601 1.166-1.501.9-1.568.866-1.567.7-1.968.866zM68.633 109.935l4.337-1.865 1.934-1.4 2.535-2.931 1.401-2.333 2.202-3.997.267-2.266-1.668-.6-2.001-.066-1.668-1.866.6-2.132.734-2.465-.267-2.066-1.468-.866-1-.334-2.135-1.532-2.001-2.799-.067-3.53 1.534-3.066 2.402-2.666 3.402-.666 3.336.933 3.402 1.266 3.202 1.666 5.204 4.797 3.47.467 1.667-1.2 1.668-1.799 2.535-1.332 2.535-.667 4.403-.666 3.536-.6 3.603-.866 3.469-.266 3.335 1.2 3.67.332 1.268-.533 1.267-1.532.734-3.398-.267-3.532-.8-3.398-1.802-2.932-2.669-1.666-2.401-.666-3.47-.467-3.468-1.066-3.336-1.266-3.136-1.865-2.668-2.2-2.001-2.931-.868-2.466v-3.464l.801-3.532 1.401-3.198 1.734-2.999 2.068-2.798 3.236-2.998 2.169-1.6 3.469-.533h3.535l2.402-.266 1.4-2-.132-1.398 6.604-6.464 5.137-4.597-.2 2.731v3.532l-.267 3.465-1.267 3.465-1.935 2.932-2.669 2.398-3.469 1.533-3.603.6-3.402.799-3.402.666-3.269 1.066-2.802 2.666-2.068 3.065-.934 3.398.2 3.531 2.268 3.532 2.936 1.999 3.268 1.332 3.537.467 3.668.666 3.47 1.066 2.869 2.266 1.6 3.132.735 3.464-.067 3.532-.4 3.731-.134 3.665-.934 3.332-3.47 1.732-3.401-.133-3.67-.6-3.536.067-.734 1.466-.133 2.599-1.935 2.998-3.135 1.132-2.002 1.933.534 2.532.134 2.532.467 3.931 2.535 1.067h3.469l2.002.2.866 3.264.334 2.865 1.868.933 2.469-1 2.802-.133-3.07 1.733-3.535.4-3.002-1.733.4-3.465-.4-2.065-1.868.266-3.27 1.266-3.468-.666-1.201-3.265.267-3.465-1-3.332-.468-3.464 2.735-2.133 3.336-.999 2.735-2.332-1-3.532-1.602-1.2-1.267.201-3.403.866-3.269 1.266-3.202 1.733-2.802 2.331-3.469 1.067-3.403-1.133-2.401-2.466-2.469-2.665-3.135-2.265-3.403-1h-3.469l-2.535 2.4.067 3.464 1.268 2.998 1.6 1.8 2.202 2.131.667 2.266.334 2.332.934 1.533 1.668.333 1.334 1.666-1.134 3.998-1.735 3.131-1.4 3.265-2.27 2.666-3.601 2.265z" clip-path="url(#pe80ea98c32)" style="fill:#00f;fill-opacity:.8"/><path d="m189.519 460.608.934-1.2 1.601-3.764 1-1.766.901-2.298.767-3.899.668-1.532.366-2.565 1.335-3.298.8-3.465.934-2.498 1.735-3.765 1.701-2.798 1.868-1.766 3.203-2.232 3.102-1.566 4.67-1.699 1.667-1.299 5.471-3.032 1.901-.899 4.703-.733 5.037-1.332 1.802-.267h3.236l1.934-.566 1.535-1.266 1.6-2.333 1.468-2.265 2.135-2.798 1.401-1.232 3.403-1.733 3.435-1.799 4.237-1.533 2.835-1.099 2.869-1.966 4.036-1.599 1.4-.766 2.67-2.698 2.768-1.732 2.035-1.8.767-1.365 1.067-.933 1.301-.5 3.17-1.166 3.335-1.033 1.534-.166 4.904-1.066 2.001-.3 3.136-1.166 2.235-1.233 1.167-1.066.434-.733.4-1.433.634-1.265.434-1.866 1.367-.9 2.002-2.198 2.435-1.933 1.134-.499 2.635-.966.6-.434.768-.766.533-.999v-1.066l-.166-1.1-.501-1.166-2.735-3.33-1.568-1.067-.934-1.999-.267-2.731.067-2.033.734-1.066.834-.6 1.701-.433 1.067-.966.367-1.898.3-1.733 1.435-1.7 1.634-1.365 2.202-1.599.8-1.333.3-1.565.301-3.532.6-2.432.735-1.632 2.601-2.532 2.235-1.433 1.635-1.399 1.434-2.165 1.468-3.265.667-2.498.767-3.665.234-2.033-.901-4.264-.234-2.732-.066-3.665 3.87.2-.401 2.6v1.265l.6 2.798.534 2.966v2.165l-.334 2.299-1.434 5.364-1.234 3.564-.634 1.333-1.268 1.399-1.867 1.866-.968 1.232-.667 1.366-.434 1.333-.334 2.032.168 3.165v1.799l-.635 1.832-.2 2.232.2 3.632-.033 1.332-.5 1.6-.968 2.064-1.5 2.633-.801 2.132-.5 6.33-.668 4.497-.033 2.165.367 3.365.9 1.832.068 2.066-.534 1.965-1.501 2.732-2.202 2-.9 1.365-1.335 2.232-1.4 2.065-1.402 1.033-1.834.667-2.602.366-.901.333-.7.666-.934-.6-2.035-.799-2.168-1.066-1.968-1.133-2.335-.666-2.135-.433-2.135.233-5.97 1.5-3.804 1.398-2 1.5-2.636 1.832-.634.733-1.468.7-2.702 1.232-1.1.866-.868.933-.2.766-1.1 1.6-1.402.999-1.901.966-2.269 1.866-2.668.966-.8-.8h-2.803l-2.3-.066-1.302.233-1.334.633-2.102 1.465-2.201 1.9-1.835 2.098-.367.9-1.367.8-1.835 2.964-1.434 1.8-2.936 1.832-2.535.966-6.271.932-1 .467-3.07 1.133-2.735.233-1.534.433-1.768 1.066-3.536 2.465-.967.234-3.736.932-4.737 1.233-1.368.566-2.501 1.3-1.268 1.165-1.435 2.1-1 2.131-.834 2.399-.634 3.564-.9 2.699-1.768 4.264-.467 2.899-.501 1.665-1.668 3.265-1.234 2.099-1 1.965-1.035 2.199-1.2 1.632-.934.766-.834.633zm113.313-79.688 2.435 2.166 2.402 1.332 1.835.2 3.035-.167 1.568-.866 3.169-3.232 3.836-4.896.9-1.533.134-1.233-.367-5.364-.134-4.464.234-2.598v-2.499l.7-4.097.3-2.899.835-2.532 1.634-2.532 1.034-2.032.467-2.265.1-2.332.033-2.399.601-2.066.1-1.265-.266-2.799-.2-2.965-.501-1.032h-.7l-.834.733-.901 1.698-.534 2-.166 2.631-.435 1.799-.966 1.799-1.268 1.2-1.668.833-1.468 1.1-1.067 1.631-.567 2.232-.934 1.533-1.868 1.998-1.034 1.866.066 1.533 1.1 1.432 3.67 4.265 1.501 3.83-.033.933-.967 1.7-1.1 1.099-1.802 1.333-3.836 1.998-2.302 2.133-1.768 2.232-1.267 2.131-1.235 2.766-.967 1.3-1.368 1.531zM364.777 382.053l-.094-3.178 1.868-.266 1.161 1.312 1.134.2.2.866 4.537-.133 2.535.466 2.175-.313 2.762.18 4.47 1.133 1.308 1.086 1.36-.087 3.07.933 2.868-.333 4.403-.8.2.733-.6.6-.935-.133-.934.2-.4.666-2.668.6-1.335-.2-3.068-.667-3.536-.266-.734-.933-2.468.2-6.071.866-4.67.733-1.535.533-.867 1.466.066 1.2-1.267.466-1.534-.267.133-1.999-1.2-.666-.2-1.2zM356.637 299.03l-3.536-.667-1.6-.067-1.469.867-1.2.932-.334.733.333 1.333v1l-.266 1.066-.067.533 1.668.532-.157-.84.467-.666.357-1.225-.6-.067.666-1.133.978-.972 1.224-.493 1 .133.935.666.643-.24zM369.096 432.848l.484 4.956.25 6.055.126 2.114.624.64 2.335.066 1.268.2h1.668l1.177-.04 2.292.64.443-1.04 1.29-.16 1.312-.706 1.825-.293.6.266.534.466 1-.066.801.6 2.335.333 2.001.866 3.203.733 3.736-.333 1.534-.333 2.602.4 3.603-.2 2.978.292 3.426.107 2.112.76 1.825.24 2.468.733 2.134 1.399.6.8 1.001.732 1.936 3.465.8-.133-.467-1-.868-.733-.4-1.799-.133-1.332-1.134-.533-1.268-1.266-.09-1.372 1.624-.494 2.312-.906-.71-.426-2.802-.466-2.135-.068-1.934-.533-2.136.334-1-.866-2.802-.334-3.203-.999-1.801-.466-1.8-.067-1.736.067-1.734.2-2.535-.534-3.47-.466-2.601-1.4-4.404-2.531-3.092-1.24-4.046-1.225-5.537-1.133-2.468-1-2.135-.666-1.201-1-.267-.732-.358.07zM354.101 616.822l-.512 5.874-.097 2.021.286.852-.394 1.019.196.63 1.21 2.157 1.504.06.714-.682 1.068-.213 1.526-.227.082-.466-.5-.473-.03-2.312-.13-.293-.341.243-.739.333-.535-.188.433-1.296 4.802 2.706 1.372.376 5.726 4.007 8.574 3.323 2.049 1.373 3.136.766.03-1.478-6.62-4.018-7.477-4.932-.686-1.096.446-1.027.823.41.617-1.609-1.132-1.61-1.371.48-.206 1.678.583.548-.377 1.096-5.977-4.051-1.783-1.502zM318.444 525.503l-.633 9.161.266.3.367.067.034.366.066.533-.2.6-.633.4-2.769-.067-1.667-.166-1.202-.334-1.034-.6-.834-1.132-1.234-1.733-1.234-3.03-.934-2.067-.634-.932-1.501-1.4-1.267-.966-2.247-.989-.856-.077-1-.566-.367-.466-.867-.367-.267-.133-.034-.533-.166-.533-.4-.567-.501-.799-.234-.866.022-1.223.079-1.042.433-.8.022-.456.4-.1.545.257.334-.4.456-.057 1.512-1.043.367-.1.3.233.534.034.634.266.4.067.367.133.434-.3.222-.256.545.023.2.3.333.266.434.067.934-.033.467.366-.167.466.189.543.478.224.534 1.166 2.001 1.532 1.635 1.666 1.267.866.768.266.066.3.5.4-.133.333-.433.633.567.133.7.5.534.4.868.067.467.4.533.366.555-.09z" clip-path="url(#pe80ea98c32)" style="fill:#00f;fill-opacity:.8"/></g><path id="PatchCollection_2" d="m348.504 306.108 3.403 1.4 2.836-1.7-.034-1.199 3.603-1.066.901-5.231-5.137-1.133-6.024 2.4.152 6.296z" clip-path="url(#pe80ea98c32)" style="fill:#006400;fill-opacity:.8"/><g id="PatchCollection_3"><path d="m348.268 320.064 4.355.418-.083.92-4.356-.334zM341.735 291.675l2.192.51-.663 3.498-2.513-.891zM358.033 338.886l-1.653-.038-.122-2.207-.192-4.422 3.435.435-.153 3.995.973-.01-.064 2.335z" clip-path="url(#pe80ea98c32)" style="fill:green;fill-opacity:.8"/></g><g id="PatchCollection_4"><path d="m357.411 361.42-.147 5.526 3.646.097.147-5.525zM411.226 390.813l.127 1.502 2.502-.113-.075-1.503z" clip-path="url(#pe80ea98c32)" style="fill:#90ee90;fill-opacity:.8"/></g><g id="PatchCollection_5"><path d="m348.65 253.845 9.252-3.596 11.395 1.41 4.648.547 5.652 5.918 18.732 10.606-4.877 9.35 4.422 4.188-1.914 13.019-9.708 4.506-15.725-2.321-19.324-4.325-4.239 7.283-8.796-4.05 1.458-10.288-2.552-8.877 3.19-5.917 8.432.136zM522.462 106.79l1.07 4.256 8.866 1.07 7.976-.752 2.848-4.643-8.067-1.434-8.067-.547zM389.656 401.577l.94.026.039 1.429-.996-.25zM387.888 347.685l.11 1.072-.144 3.265 1.236.083.041.791.367 2.64 2.152-.324-.133-.983.592-.017-.734-6.92z" clip-path="url(#pe80ea98c32)" style="fill:#d3d3d3;fill-opacity:.8"/></g><g id="PatchCollection_6"><path d="m359.06 253.677.652.077-.125 1.053-.651-.077zM348.645 296.86l1.997-.051.076 1.313h-.404l.076.681h-1.796l.051-1.363zM359.693 292.92l.46.134-.192.899-.46-.115zM335.038 472.8l1.001.017-.036 2.188-1-.017zM368.391 336.036l1.648.038-.106 2.335-1.705-.038zM349.966 262.874l.115 2.912.749-.03-.073-1.846.184-.007.055 1.392.689-.028-.1-2.508-.67.027.022.57-.337.013-.02-.52zM477.086 330.588l.2-1.038 5.317 1.022-1.043 5.41-5.319-.983zM349.38 284.716l-.011.157.85.075-.089.911-.498-.049.04-.417-.79-.06.035-.493.072.005.017-.26.096-.97 1.14.109-.102 1.065z" clip-path="url(#pe80ea98c32)" style="fill:#a9a9a9;fill-opacity:.8"/><path d="m348.742 285.82.027-.312.803.07-.027.31zM367.732 313.928l-1.268-.157.054-.43-4.41-.547.093-.744 5.677.705zM365.04 311.687l-.733-.09.143-1.157.733.092z" clip-path="url(#pe80ea98c32)" style="fill:#a9a9a9;fill-opacity:.8"/><path d="m362.684 308.886 3.753.466-.08.64-2.928-.363-.25 2.01-.846-.106zM403.627 322.072l-.633-.05.15-1.75.65.05zM404.517 322.24l-.473-.052-.093.69.494.077z" clip-path="url(#pe80ea98c32)" style="fill:#a9a9a9;fill-opacity:.8"/><path d="m404.044 322.188-.333-.033-.108.673.348.05z" clip-path="url(#pe80ea98c32)" style="fill:#a9a9a9;fill-opacity:.8"/><path d="m403.603 322.828-.601-.086.042-.42.575.074zM402.84 322.719l.062-.623-.816-.092-.043.6z" clip-path="url(#pe80ea98c32)" style="fill:#a9a9a9;fill-opacity:.8"/></g></g></g><defs><clipPath id="pe80ea98c32"><path d="M90 93.388h558v540.425H90z"/></clipPath></defs></svg>