<svg xmlns="http://www.w3.org/2000/svg" width="960" height="960" viewBox="0 0 720 720"><defs><style>*{stroke-linejoin:round;stroke-linecap:butt}</style></defs><g id="figure_1"><path id="patch_1" d="M0 720h720V0H0z" style="fill:#fff"/><g id="axes_1"><path id="patch_2" d="M90.331 640.8H647.67V86.4H90.33z" style="fill:#fff"/><g id="LineCollection_1"><path d="m345.552 372.11-1.236-.337M347.052 357.153l-.133 1.248-1.255 12.495-.112 1.214M342.897 390.57l.78-1.014.238-.847.341-3.273.918-9.522.23-2.383.148-1.421" clip-path="url(#p45a7d6abe4)" style="fill:none;stroke:#000"/><path d="m347.46 372.688-.693-.223-1.215-.355M359.435 376.191l.41-.537.222-1.163M359.435 376.191l-.164-.226-.249-.133-.283-.014-.26.11M359.466 376.57l.015-.192-.046-.187M415.347 364.24l.6-.005M415.347 364.24l-4.093.072M409.954 358.965l2.815-1.426.413-.14.402-.005.278.088.17.151.12.208 1.195 6.399M415.947 364.235l3.162-.028M415.947 364.235l1.423 7.512M470.412 356.418l-.044-.637M503.466 346.037l-7.377 2.35-8.154 2.533-5.167 1.646-2.023.583-2.583.818-4.916 1.517-2.834.934M449.033 362.878l4.277-1.192 3.805-1.043 5.381-1.657 7.916-2.568M349.763 330.11l-.104.97M349.763 330.11l-.78-.145M357.658 249.978l-3.94 40.1-1.695 17.5-2.26 22.532M206.766 200.061l-15.65-12.447-1.691-1.162-1.976-1.193-2.714-1.43-3.475-1.53-2.725-.923-3.16-.806-5.343-.968-17.408-2.946-7.638-1.291-6.26-1.797-8.665-3.662-17.883-10.698M345.866 395.597l.244-.152.186-.218.111-.262" clip-path="url(#p45a7d6abe4)" style="fill:none;stroke:#000"/><path d="m344.745 395.341.233.197.284.115.307.02.297-.076" clip-path="url(#p45a7d6abe4)" style="fill:none;stroke:#000"/><path d="m345.233 397.33.24-.899.393-.834M344.745 395.341l.099 1.025-.18.783M345.878 393.887l-.26-.075-.27-.002-.26.074-.23.142-.178.198-.116.24-.041.307.063.303.16.267M346.407 394.965l.023-.325-.092-.313-.195-.263M346.407 394.965l.425-.451.314-.348 2.058-2.873M346.143 394.064l-.265-.177M348.701 390.972l-1.646 2.136-.476.571-.436.385M345.878 393.887l-.358-.431-.06-.16-.023-.156.018-.385.423-3.875M345.878 388.88l.625-6.763M345.878 388.88l2.823 2.092M345.878 388.88l-.634-.061M346.503 382.117l.64-6.142M346.503 382.117l5.784 4.003M346.503 382.117l-.616-.069M347.144 375.975l.316-3.287M347.144 375.975l9.08 3.986M347.144 375.975l-.662-.115M347.46 372.688l4.54 1.34M347.46 372.688l.653-6.005M348.113 366.683l5.573 1.953M348.113 366.683l-.701-.085M348.113 366.683l.523-4.856M348.636 361.827l6.396 2.143M355.032 363.97l.98-3.348.013-.229-.048-.248-.131-.169-.152-.116-.296-.145-6.327-1.123-.18.122-.124.217-.033.317-.098 2.58M341.43 405.145l.265-1.127.058-.334M341.84 403.225l-.032.244-.055.215M343.692 400.986l-.187.303-.346.38-.86.97-.546 1.045M344.148 401.293l4.114 2.847M344.148 401.293l-.456-.307M344.148 401.293l.192-.387.104-.323.79-3.254M343.742 404.795l.112-.877.217-1.69.077-.935M341.98 404.6l.263-.874.331-.718.616-.681.547-.581.41-.453M345.233 397.33l-.569-.181M345.233 397.33l5.1 3.66M349.204 391.293l5.39 3.724M349.204 391.293l-.503-.32M349.204 391.293l3.622-4.767M352.826 386.526l5.235 3.57M352.826 386.526l-.539-.406M352.826 386.526l1.841-2.198M354.667 384.328l5.087 3.403M354.667 384.328l4.392-6.59M359.06 377.739l2.682 3.797M359.06 377.739l.205-.843M360.692 369.009l-1.202.165M360.692 369.009l5.182-.54M360.692 369.009l.22-2.741-.014-1.188-.097-.971-.09-1.055-.052-.805-.06-.723M360.692 369.009l-.625 5.482M360.254 361.526h.344M360.254 361.526l-.252 4.234M360.254 361.526l.103-.476M358.479 375.928l-.134.129M359.49 369.174l-.976 5.991-.035.763M352.287 386.12l-3.586 4.852M352.287 386.12l3.936-6.159M354.594 395.017l.386.255M354.594 395.017l-2.102 2.981M358.061 390.096l-.396.61-3.07 4.31M360.18 398.861l-5.2-3.59M360.18 398.861l-.422.553M361.898 396.669l-.157.22-1.56 1.972M358.018 401.689l-5.16-3.427M358.018 401.689l.335-.439M358.018 401.689l-1.994 2.592M352.492 397.998l.367.264M352.492 397.998l-2.16 2.991M356.024 404.28l-2.556 3.417M356.024 404.28l-5.329-3.048M350.333 400.99l.362.242M350.333 400.99l-.299.69M344.664 397.149l-.765 3.196-.207.64M348.262 404.14l5.206 3.557M348.262 404.14l1.772-2.46M348.262 404.14l-1.945 2.569M353.468 407.697l3.532 2.257M353.468 407.697l-1.943 2.616M344.558 409.23l5.105 3.502M344.558 409.23l1.759-2.521M344.558 409.23l-1.733 2.896M343.346 407.078l.062.544.208.536.354.457.588.615M349.663 412.732l1.862-2.42M349.663 412.732l-1.978 2.604M341.357 414.818l4.427 3.045M341.357 414.818l1.468-2.692M341.357 414.818l-1.404 2.96M345.784 417.863l3.75 2.213M345.784 417.863l1.9-2.527M345.784 417.863l-2.029 2.645M349.534 420.076 357 409.954M357 409.954l2.526 2.013.146.253.073.206.035.259-.017.248-.064.223-.154.318-2.952 3.937-3.59 4.425-.133.077-.156.013-.143-.038-3.037-1.812M341.518 423.473l.366.744.471.49 1.024.832.698.342.617.218.141-.018.109-.097 4.59-5.908M337.72 421.985l2.233-4.206M333.46 427.028l1.103-1.063.645-.816.74-.914.627-.795.63-.818.515-.637M341.518 423.473l-.118.035-.166-.014-.269-.084-.392-.169-2.853-1.256M341.518 423.473l2.237-2.965M359.754 387.731l.428.272M359.754 387.731l-1.693 2.365M359.754 387.731l3.123-4.27M362.877 383.46l.244.427M362.877 383.46l-.834-1.41M363.783 394.03l1.578-2.433M363.783 394.03l-1.885 2.639M363.783 394.03l6.206 4.381M363.783 394.03l-5.387-3.703M365.36 391.597l-5.178-3.594M373.908 393.692l-3.609 1.1-.177.04-.18-.004-.185-.038-4.396-3.193M372.48 389.267l-6 1.8-.638.228-.481.302M369.989 398.411l.556 2.607M369.989 398.411l4.97-1.367M371.396 402.933l4.908-1.515M372.863 407.378l-.79-3.233-.138-.383-.192-.313-.347-.516M370.545 401.018l.32.857.531 1.058M375.576 420.207l.99-2.334M374.139 413.651l.881 4.376.556 2.18M373.261 426.874l1.28-3.37.694-1.986.34-1.31M358.061 390.096l.335.231M358.24 376.582l-.34.523-1.677 2.856M353.686 368.636l1.346-4.666M359.49 369.174l-1.074.022-1.853-.137-2.877-.423M352 374.029l.75-2.4.936-2.993M359.49 369.174l.512-3.414M355.032 363.97l4.97 1.79M358.345 376.057l-.55-.274-5.795-1.754M363.946 361.713l5.132-.08M363.946 361.713l-3.348-.187M363.946 361.713l1.928 6.756M369.078 361.632l4.503-.451M369.078 361.632l2.401 5.445M373.581 361.18l4.593-.618M373.581 361.18l2 4.68M377.838 357.942l-1.596.315-1.658.266-.944.137-.204.068-.15.113-.102.124-.058.175-.02.18.475 1.86M378.174 360.562l.268 1.27M378.174 360.562l-.336-2.62M382.895 360.107l-.617-.143-.403-.007-.574.07-3.127.535M382.895 360.107l3.071-1.022M382.895 360.107l-4.453 1.725M365.874 368.469l5.605-1.392M365.874 368.469l1.853 5.881M371.479 367.077l4.101-1.218M371.479 367.077l2.043 5.205M375.58 365.86l3.478-.555M375.58 365.86l1.966 4.985M379.058 365.305l.43.493M379.058 365.305l-.616-3.473M360.067 374.491l7.66-.14M367.727 374.35l1.514 4.25M367.727 374.35l5.795-2.068M359.466 376.57l.673.333.662.043.684-.228 2.867-1.013 3.375-1.355M369.873 380.592l6.155-1.786M369.873 380.592l1.12 3.67M369.873 380.592l-.145-.536M376.028 378.806l6.173-1.783M376.028 378.806l-.268-.651M376.028 378.806l1.758 6.056M382.201 377.023l4.723-1.255M382.201 377.023l-.382-1.148M382.201 377.023l1.65 6.053M386.924 375.768l5.997-1.53M386.924 375.768l.719 6.314M392.92 374.239l-.07-2.479M392.738 375.768l.102-.764.08-.765M392.85 371.76l-9.811 3.636M392.85 371.76l-.355-2.558M381.82 375.875l-2.008.718M381.82 375.875l1.219-.479M375.76 378.155l-6.032 1.901M375.76 378.155l-2.238-5.873M375.76 378.155l4.052-1.562M369.728 380.056l-.288-.861M361.742 381.536l.301.513M361.742 381.536l7.5-2.935M369.241 378.6l.199.595M370.993 384.263l.705 2.32M363.12 383.887l.91 1.333.325.396.39.283.378.039.365-.037.92-.275 4.585-1.363M371.698 386.583l6.088-1.72M371.698 386.583l.781 2.684M377.786 384.862l6.064-1.786M377.786 384.862l1.822 5.955M383.85 383.076l3.793-.994M383.85 383.076l1.65 5.978M387.643 382.082l.506-.11M373.908 393.692l5.991-1.768M373.908 393.692l1.052 3.352M373.908 393.692l-1.429-4.425M379.9 391.924l-.292-1.107M379.9 391.924l1.046 3.416M379.608 390.817l5.892-1.763M385.5 389.054l2.935-.586M384.902 396.189l.334-1.013.324-1.262.132-1.082.04-1.113-.03-1.51-.202-1.155M388.435 388.468l3.686-.821M388.435 388.468l2.468 9.34M388.435 388.468l-.286-6.496M392.121 387.647l2.765-.68M392.121 387.647l1.808 5.725M394.886 386.966l1.256-.707M394.886 386.966l1.669 5.708M396.142 386.259l3.875-1.038M394.146 377.84l.967 4.353 1.03 4.066M400.017 385.221l-2.297-8.3M401.825 375.808l1.773 6.904.008.338-.043.288-.11.318-.237.377-.312.274-2.887.914M391.756 378.56l1.62-.54M391.756 378.56l.982-2.792M388.15 381.972l1.721-.586.252-.121.204-.127.238-.16.213-.362.208-.392.77-1.664M393.376 378.02l.77-.18M392.738 375.768l.451 1.627.187.625M397.72 376.921l4.105-1.113M397.72 376.921l-3.574.92M397.72 376.921l-2.287-9.418M401.825 375.808l3.83-1.102M401.825 375.808l-2.937-10.301M405.655 374.706l3.91-1.003M405.655 374.706l-2.723-10.242M409.565 373.703l4.051-1.143M409.565 373.703l-2.228-9.274M413.616 372.56l3.754-.813M413.616 372.56l-2.362-8.248M417.37 371.747l4.196-1.028M421.566 370.719l3.896-1.053M421.566 370.719l-1.744-6.518M425.462 369.666l15.73-4.195M425.462 369.666l-1.491-5.48M441.192 365.47l7.731-1.277M441.192 365.47l-.445-1.722M459.494 392.669l-2.504-1.43-7.063-4.432-1.233-.857-1.176-.975-.862-1.05-.54-.79-.378-.672-4.546-16.992M448.923 364.193l-.216-.474M459.494 392.669l-.376-.674-.216-.532-5.507-15.466-3.714-10.057-.327-.894-.215-.443-.216-.41M449.033 362.878l-1.025.206M449.033 362.878l-.326.841M374.96 397.044l5.986-1.704M374.96 397.044l1.344 4.374M380.946 395.34l.402 1.187M376.304 401.418l1.578 4.683M383.042 400.812l-1.812-.432-.469-.055-.499-.002-.488.06-3.47 1.035M383.042 400.812l1.86-4.623M383.042 400.812l-2.423 6.046M372.863 407.378l1.276 6.273M372.863 407.378l5.019-1.277M377.882 406.1l.388 1.215M377.882 406.1l2.737.758M380.91 406.938l-1.482 3.55M380.91 406.938l3.68 1.159M380.91 406.938l-.29-.08M373.522 372.282l4.024-1.437M384.902 396.189l3.812.968M379.812 376.593l-2.266-5.748M377.546 370.845l3.071-1.134M385.966 359.085l-.392-2.444-.089-.676-.07-.323-.085-.131-.134-.072-.238-.022-5.166.792-.67.109-.566.12-.35.123-.258.16-.117.233-.038.305.045.683M382.822 368.96l-3.333-3.162M382.822 368.96l-2.205.75M391.68 365.512l-3.906 1.475-4.952 1.973M380.617 369.71l2.422 5.686M390.572 361.532l-.568-2.622-.108-.35-.16-.216-.253-.135-.337-.042-3.18.918M379.489 365.798l11.083-4.266M390.572 361.532l1.108 3.98M393.583 355.485l-.07.536-.051.646-.05.457-.406.428-.436.287-1.3 1.156-.28.563-.142.695-.015.616-.04.378-.22.285M391.68 365.512l.815 3.69M394.769 364.803l-2.167.444-.922.265M390.903 397.809l1.483.49M390.903 397.809l-2.189-.652M392.386 398.3l1.375.33.165.013h.278l.238-.05.254-.124.161-.168.07-.129" clip-path="url(#p45a7d6abe4)" style="fill:none;stroke:#000"/><path d="m395.754 399.715-.181-.415-.647-1.128M393.93 393.372l1.013 4.27.014.207-.003.19-.028.133M393.93 393.372l2.625-.698M396.555 392.674l1.319 5.513M396.555 392.674l1.625-.458M397.874 398.187l2.587-.208M395.955 399.493l.204-.182.17-.126 1.545-.998M394.769 364.803l.664 2.7M398.634 364.498l-.722-6.075-.106-.452-.155-.419-.278-.349-.438-.277-.55-.136-.772-.011-1.393.267-.345.272-.205.326-.066.35.005.253 1.16 6.556" clip-path="url(#p45a7d6abe4)" style="fill:none;stroke:#000"/><path d="m398.634 364.498-1.94.06-1.925.245M388.714 397.157l-4.123 10.94M380.404 419.35l-3.837-1.477M384.59 408.097l-2.355 6.627-1.83 4.625" clip-path="url(#p45a7d6abe4)" style="fill:none;stroke:#000"/><path d="m388.42 409.49-4.228 10.938-.075.158-.05.076-.063.025-.067.01-.106-.002-3.427-1.346M379.428 410.488l-1.395 3.6-1.466 3.785M388.42 409.49l-3.83-1.393M388.42 409.49l3.966-11.19M395.754 399.715l.1.62-.007.422-.063.373-3.433 9.175-.066.11-.076.064-.13.029-.153-.01-3.506-1.007M398.634 364.498l.254 1.009M398.634 364.498l.618.006M342.352 389.72l.87-6.741M342.352 389.72l-.573-.318M342.897 390.57l-.377-.513-.046-.048-.041-.069-.033-.075-.048-.145M344.316 371.773l.629-5.92M344.316 371.773l-.61-.147M344.316 371.773l-.514 5.019M347.751 341.233l-.167.808-.107.715-.102.974-.258 2.985-.07 1.064-.032.694-.156.769-.278.71-.371.574-.237.48-.134.505-.493 3.957-.095 1.096-.04.512.011.275.017.114.037.105.07.117.078.065.073.05.098.04.122.026M347.052 357.153l-.36.223-.29.173-.377.182-.308.137" clip-path="url(#p45a7d6abe4)" style="fill:none;stroke:#000"/><path d="m345.717 357.868-.18.122-.178.14-.192.142-.47 3.529M344.945 365.854l.756-7.518.016-.468M344.31 365.757l-.603 5.87M344.31 365.757l-6.584-.847M344.31 365.757l.635.097M344.31 365.757l.388-3.956M343.707 371.626l-.542 5.101M343.707 371.626l-6.373-1.632M343.165 376.727l-.632 6.177M343.165 376.727l-6.438-.634M343.165 376.727l.637.065M342.533 382.904l-.754 6.498M342.533 382.904l-6.374-.558M342.533 382.904l.69.075M335.562 388.623l3.106.306 3.111.473M340.495 401.259l-.692-1.821-.402-.73-.254-.756-.055-.934.118-1.685.307-1.12.313-.864.517-1.142.527-.968.538-.859.367-.978M341.84 403.225l.133-2.546-.65-2.254.183-3.871.293-1.772.253-1.12.845-1.092M320.326 387.123l2.333.24M320.326 387.123l.079-.994M320.326 387.123l-.268 2.97M322.66 387.362l6.135.635M322.66 387.362l.675-6.365M322.66 387.362l-.541 6.437M328.795 387.997l6.767.626M328.795 387.997l-.74 6.09M328.795 387.997l.737-6.376M335.562 388.623l-.573 6.159M335.562 388.623l.597-6.277M334.989 394.782l-6.933-.696M317.662 418.16l8.066-7.525 4.024-3.59 2.024-1.936 1.053-1.227.666-1.202.546-1.411.32-1.738.31-1.732.318-3.017M328.056 394.086l-5.937-.287M322.119 393.799h-2.492M317.003 401.756l2.142.53.311.015.25-.042.228-.107.188-.139.142-.146.099-.192 1.756-7.876M318.877 393.872l-8.029-1.721M318.877 393.872l.75-.073M318.877 393.872l-1.08 4.112M310.848 392.15l-4.08-.803M310.848 392.15l.736-3.748M302.11 390.381l-7.141-1.34M302.11 390.381l4.657.966M302.11 390.381l.68-3.705M294.969 389.04l-4.967-1.08M294.969 389.04l-.992 4.192M290.002 387.96l-12.113-2.486M290.002 387.96l.652-3.778M277.89 385.474l-8.903-1.659M277.89 385.474l.613-3.79M268.987 383.815l-1.279-4.202M194.074 406.05l7.997-2.409 31.332-9.146 22.688-6.802 12.896-3.878M320.058 390.094l-8.474-1.692M320.058 390.094l-.431 3.705M311.584 388.402l-8.794-1.726M311.584 388.402l.638-3.856M302.79 386.676l-12.136-2.494M302.79 386.676l.618-4.013M290.654 384.182l-12.15-2.497M290.654 384.182l.658-3.943M278.503 381.685l-10.795-2.072M278.503 381.685l.662-3.89M267.708 379.613l-1.206-4.276M266.502 375.337l12.663 2.458M279.996 373.891l-10.563-2.147h-.393l-.426.083-.616.207-.654.346-.372.233-.336.349-.234.43-.12.423-.026.223.026.28.22 1.019M279.165 377.795l12.147 2.444M279.165 377.795l.831-3.904M291.312 380.239l12.096 2.424M291.312 380.239l.75-3.894M303.408 382.663l8.814 1.883M303.408 382.663l.577-3.838M312.222 384.546l8.183 1.583M312.222 384.546l.667-3.97M320.405 386.13l.304-4.693M343.223 382.979l.579-6.187M336.16 382.346l-6.628-.725M336.16 382.346l.567-6.253M329.532 381.62l-6.197-.623M329.532 381.62l.658-6.131M323.335 380.997l.624-6.071M320.709 381.437l.366-.303.25-.153.296-.069 1.714.085M336.727 376.093l-6.537-.604M336.727 376.093l.607-6.1M330.19 375.489l-6.231-.563M330.19 375.489l.445-3.714M323.959 374.926l-2.795-.302M323.959 374.926l.374-3.727M321.206 374.225l.424-3.951M321.206 374.225l-.042.399M321.206 374.225l-6.959-1.427M314.247 372.798l-.729 3.825M314.247 372.798l.578-3.824M314.247 372.798l-8.975-1.788M305.272 371.01l-.628 3.914M305.272 371.01l-11.934-2.394M306.011 367.047l-.532 2.488-.136.88-.071.595M293.338 368.616l.76-4.103M293.338 368.616l-.607 3.855M294.098 364.513l11.913 2.534M306.477 362.884l-4.391-.946-4.493-1.05-.927-.055-.562.084-.491.182-.39.28-.325.368-.207.343-.218.461-.142.477-.233 1.485M306.011 367.047l8.857 1.62M306.011 367.047l.466-4.163M314.825 368.974l.043-.308M314.825 368.974l6.805 1.3M321.63 370.274l.497-3.863M324.333 371.199l6.302.576M324.333 371.199l.426-4.49M330.635 371.775l.443-3.452M337.334 369.994l-6.256-1.67M337.334 369.994l.392-5.084M331.078 368.323l-6.32-1.614M331.078 368.323l.262-4.102M322.219 365.952l.472.146 2.068.611M322.127 366.411l.092-.459M315.382 364.99l.704.184 6.04 1.237M315.382 364.99l-.514 3.676M315.382 364.99l.72-3.983M315.382 364.99l-8.905-2.106M306.477 362.884l.471-3.849M292.73 372.47l11.914 2.454M292.73 372.47l-.669 3.875M304.644 374.924l8.874 1.7M304.644 374.924l-.659 3.9M313.518 376.623l7.378 1.503M313.518 376.623l-.629 3.954M320.896 378.126l.268-3.502M320.709 381.437l.064-.652.123-2.659M312.89 380.577l6.646 1.374.38-.037.386-.127.407-.35M312.89 380.577l-8.905-1.752M303.985 378.825l-11.924-2.48M292.061 376.345l-12.065-2.454M306.948 359.035l9.153 1.972M307.713 355.518l-.202.63-.137.691-.426 2.196M322.849 363.195l8.491 1.026M322.849 363.195l.037-.56M322.849 363.195l-.63 2.757M323.38 358.468l-6.67-1.326M323.393 357.109l.04.349-.024.56-.03.45M322.886 362.635l.053-.408.44-3.76M317.64 350.673l-.27.192M347.751 341.233l-.5.26-.343.063-.312-.01-.332-.095-.714-.416-.66-.237-1.31-.19-1.192-.084-.913.169-1.492.642-22.343 9.338" clip-path="url(#p45a7d6abe4)" style="fill:none;stroke:#000"/><path d="m206.248 307.817.816-.12 3.876-.49h2.865l4.942.392 5.716.548 13.216 1.855 33.653 5.017 2.438.522 3.557.921.506.173.333.151.36.232.773.719 16.084 13.575 5.984 5.074 13.054 11.313 2.802 2.52.417.454" clip-path="url(#p45a7d6abe4)" style="fill:none;stroke:#000"/><path d="m323.393 357.109-.224-.446-.278-.411-1.025-1.352-.897-1.04-.863-.876-1.606-1.398-.86-.913M316.71 357.142l-.609 3.865M316.71 357.142l.66-6.277M316.71 357.142l-8.997-1.624M322.886 362.635l-.868-.193-5.124-1.25-.793-.185M331.778 360.43l-.438 3.79M323.393 357.109l.417-.334.28-.072.278.047.306.241 1.206 1.42.926 1.106.369.234.492.156 4.111.524M344.698 361.8l-3.388-.598-3.019-.318-6.513-.453M331.34 364.22l6.386.69M317.37 350.865l-4.397 1.79-2.251.923-1.12.455-.584.27-.515.323-.402.4-.388.492M317.796 397.984l-7.941-1.66M317.796 397.984l-.793 3.772M305.93 395.545l-11.953-2.313M305.93 395.545l3.925.779M305.93 395.545l.837-4.198M305.93 395.545l-.749 4.025M293.977 393.232l-.821 3.924M293.156 397.156l-11.236-2.358-.32-.213-.126-.243-.076-.289.03-.422.446-1.837.178-.288.278-.204.34-.139.339-.035 10.968 2.104M293.156 397.156l12.025 2.414" clip-path="url(#p45a7d6abe4)" style="fill:none;stroke:#000"/><path d="m304.343 403.493-11.562-2.254-.276-.223-.081-.202-.033-.33.035-.348.092-.382.638-2.598M309.132 400.345l4.072.785M309.132 400.345l-3.951-.775M309.132 400.345l-2.457 11.698M309.132 400.345l.723-4.021M317.003 401.756l-3.799-.626M314.693 413.919l-.047-.326.007-.295.111-.695.294-1.291.263-1.272 1.682-8.284M314.693 413.919l2.969 4.24M314.693 413.919l-3.988-1.099M305.94 415.204l6.746 1.26.314.025.279-.044.245-.098.183-.126.234-.33.752-1.972M310.705 412.82l2.5-11.69M310.705 412.82l-4.03-.777M306.675 412.043l-.734 3.16M306.675 412.043l-3.87-.852M302.805 411.191l1.538-7.698M305.816 415.874l-2.935-2.556-.258-.342-.081-.333.025-.343.238-1.109M317.662 418.16l-4.515 4.07M304.343 403.493l.838-3.923M313.147 422.23l-7.33-6.356M299.746 512.11l.028-.35-.022-.362-.033-.252-.111-.987-.597-5.566-.244-2.158-.675-6.754-.141-1.382-.13-1.205-.092-.963-.139-1.39-.912-8.366-.146-1.354-.396-3.427-.964-9.25-.25-2.398-.63-6.032-.18-1.657-.09-1.006-.067-.873-.18-1.657-.115-.935-.069-.665.004-.643.028-.603.071-.532.147-1.6.382-2.669.129-.814.174-.824.23-.808.355-1.173.397-.895 1.305-2.705.84-1.4.607-.943 1.16-1.695.642-.872 1.052-1.386 1.93-2.072 1.302-1.17 1.576-1.385 3.222-2.804 2.095-1.956 1.056-.997.852-.945M407.337 364.43l3.917-.118M407.337 364.43l-.9-3.797M402.932 364.464l.854.024 3.55-.059M110.76 298.322l43.883 4.54 2.95-.28 24.56 18.445.32.198.394.11.356-.019.293-.13.42-.255 8.796-5.22 9.762-5.866 2.631-1.515.45-.252.673-.26" clip-path="url(#p45a7d6abe4)" style="fill:none;stroke:#000"/><path d="m188.472 297.64.205.452.171.255.123.152.159.124.22.096 1.294.21 2.912.457.811.102.488.141.308.158.255.175.351.354.27.348.276.402 1.206 2.09 1.946 3.364.41.889.362 1.035.177.568.223.464.211.25.187.139.218.08.253.015.207-.018.17-.041 2.557-1.571.32-.163.397-.141.506-.144.583-.065M349.659 331.08l-.663 6.142-1.944 19.931M299.746 512.11l.037 1.115M246.998 544.565l-2.067-2.403-.689-.875-.546-.864-.284-.665-.081-.561.05-.487.188-.393.344-.347.461-.224.897-.422.871-.442 1.226-.82 1.664-1.003.331-.208.477-.452.177-.283.073-.28-.027-.393-.079-.246-.4-.673-.484-.648-1.125-1.023-.835-.787-.178-.246-.098-.298-.081-.33-.016-.294.033-.235.11-.253.33-.314.43-.288.108-.154.04-.153.033-.197-.043-.876-.02-1.172.198-.517.319-.303.374-.228.69-.11 2.081-.079 2.335.015 3.282.035h1.074l1.47-.09 1.372-.238.72-.12 3.51-.436 1.884-.264 2.117-.248 2.163-.432 4.782-.65 2.897-.631 2.614-.77.972-.268.948-.214.82-.06.887-.015 2.74-.149 1.737-.074.583-.224.516-.347 1.256-1.282 1.45-1.649 1.362-1.46.458-.459.253-.132.317-.035.891-.034.613-.159.532-.263.385-.229.476-.338.425-.332.455-.357M418.355 357.404l.754 6.803M401.925 358.43l.715 4.204M422.985 358.151l.986 6.035M409.954 358.965l1.3 5.347M409.954 358.965l-3.518 1.668M406.436 360.633l-3.796 2.001M406.835 325.531l-.512.795-.473.915-.407.83-.4 1.117-1.638 5.095-.186.829-.103.586.016.688.067.817.12.914.746 4.762.28 1.555.408 1.897.158.822.17.898.323 3.385.606 6.199.426 2.998M419.109 364.207l.713-.006M448.707 363.72l-.7-.636M423.97 364.186l-4.148.015M431.138 364.106l-1.89.06-2.141.009-1.191.01h-1.945M402.932 364.464l-.292-1.83M399.252 364.504l1.034.03 2.646-.07M361.898 396.669l4.145 2.736M366.043 399.405l4.502 1.613M366.043 399.405l-1.839 2.89M359.758 399.414l-1.405 1.836M359.758 399.414l4.446 2.88M364.204 402.295l-.582 1.073-.386.652-.112.077-.137.037-.166-.006-4.468-2.878M343.742 404.795l2.575 1.914M343.346 407.078l.077-.837.32-1.446M346.317 406.709l5.208 3.604M378.27 407.315l1.158 3.173M374.139 413.651l1.135.204.283-.05.22-.13.168-.168 1.314-3.407 1.011-2.785M342.825 412.126l4.86 3.21M339.953 417.779l3.802 2.729M299.783 513.225l.122-.315 6.167-15.81 6.179-15.725 5.89-14.995 3.951-10.175 6.702-17.287 2.977-7.434 1.689-4.456M341.43 405.145l-.355 1.092-.312 1.06-1.14 3.945-1.756 4.864-.816 1.888-3.591 9.034M389.224 468.115l-1.388-1.68M410.839 513.175l.328-.486.127-.416.012-.304-.002-.448-.05-1.285.008-1.2.036-1.337-.095-.548-.242-.466-.32-.335-.375-.246-.382-.216-.534-.294-.43-.355-.226-.228-.357-.42-.438-.508-.554-.474-.292-.292-.184-.309-.08-.267-1.27-7.059-.158-1.004-.193-1.168-.117-.188-.431-.613-.392-.447-.605-.61-.818-.678-1.665-1.275-.242-.223-.179-.167-.146-.31-.123-.305-2.845-7.13-2.176-5.573-1.138-2.816-.84-2.159-.141-.128-.22-.093-.258-.035-.38-.065-.32-.095-.348-.163-.369-.204-.643-.545-1.548-1.573" clip-path="url(#p45a7d6abe4)" style="fill:none;stroke:#000"/><path d="m373.261 426.874-1.048 2.677-.764 1.968-.134.244-.187.315-.242.554-.198.711-.28 1.164-.3.874-.613 1.411-.608 1.513-1.274 3.52-1.407 3.417-1.209 3.505-1.32 3.548-.196.591-.091.49.01.592.188.506.408.507.744.664.863.63 1.128.925 1.551 1.317 3.267 2.96 5.497 4.938 2.136 1.954.834.823.22.193.311.22.33.168.433.112.593-.006.43-.055.587-.229 1.55-.69 1.791-.644 1.436-.415.444-.058.325.019.3.088.458.22M402.152 542.272l4.365.305 2.316.238.809-.033.394-.156.533-.412.355-.492.17-.388.184-.645.12-1.01-.126-12.916.076-11.096-.022-.338-.064-.361-.073-.307-.089-.216-.118-.179-.085-.193-.03-.31-.028-.588M398.7 525.595l-.001-.583-.056-.392-.101-.557-.057-.351-.005-1.012-.014-.962.044-.585.002-.533.057-2.325.086-.382.156-.281.244-.3.278-.184.404-.11.404-.1.793-.15 4.366-.604 1.428-.159.871-.044.65.065.346-.021.359-.143.234-.16.224-.242.467-.755.743-1.196.217-.354M528.629 338.319l10.455-3.237M512.683 343.087l13.291-3.87 2.655-.898" clip-path="url(#p45a7d6abe4)" style="fill:none;stroke:#000"/><path d="m636.95 330.27-1.593 1.796-2.1 2.145-3.013 2.488-1.997 1.352-2.759 1.618-2.846 1.57-2.83 1.15-3.154 1.01-3.869 1.073-6.976 2.122-4.177.948-3.321.506-3.659.579-3.913.882-6.947 1.959-8.993 2.44-4.63 1.334-1.252.221-.756-.02-.686-.073-.43-.138-.74-.334-5.52-2.669-5.383-2.603-5.477-2.317-5.87-2.3-9.334-3.856-3.734-1.586-1.022-.456-.511-.284-.83-.508M298.538 516.418l1.245-3.193M266.75 597.675l16.219-41.302 8.145-20.884 7.424-19.071M322.917 538.427l-5.85-5.471-4.947-4.649-5.176-4.935-5.565-5.106-.787-.601-.335-.233-.307-.202-.59-.356-.822-.456M357.658 249.978l1.003.044.284-.033.183-.07.08-.069.062-.104.04-.188.028-.193.256-4.308.083-.474.077-.153.08-.095.176-.072.13-.029 5.036-.053.263.004.233.026.094.052.075.113.04.13.021.24-.313 7.7-.573 9.57-.226 6.65-.28 7.812-.373 4.299-.547 11.68-.2 2.9.094 8.936-.226 1.385-.127.53-.107.456-.1.725-.759 16.893-.146 2.282M360.357 361.05l-.005-1.242.032-1.9.135-1.829 1.5-29.515M349.659 331.08l1.193-.626 11.167-3.89M448.008 363.084l-1.09.053-6.171.611M431.138 364.106l4.047-.08 5.562-.278M395.955 399.493l10.633 3.686 19.718 6.66 20.024 6.402 5.733 2.029 5.929 2.013 5.98 1.959 5.934 1.904 4.566 1.632 4.728 1.543 7.174 2.425 1.754.612.77.28.58.262.59.49.432.523.208.32.504.58.271.208.242.07.321-.028.761-.254.51-.185.402-.077.455.02.342.067 1.267.388 2.803.82 4.38 1.444 4.41 1.514 3.912 1.322 4.05 1.372.97.335.173.199.156.315.153.631.043.574-1.656 7.013-1.768 7.461-.84 3.77-.852 3.568-1.677 7.45-1.506 6.218-2.529 10.96M384.502 452.858l-.108-.345-.547-1.791-.182-.74-.065-.588-.203-1.403-.133-1.286-.117-.606-.14-.44-.233-.55-.588-1.154-.674-1.749-1.068-2.348-.774-1.406-1.242-2.026-.506-.893-.567-1.032-.157-.345-.089-.303-.03-.258-.069-.507-.088-.546-.363-.919-.299-.62-.327-.722-.248-.816-.09-.315-.125-.366-.145-.26-.187-.184-1.238-.879-.382-.325-.257-.262M387.836 466.435l-.09-.358-.18-.547-.056-.24-.706-5.362-.352-1.752-.425-1.462-.574-2.139-.252-.656-.157-.308-.18-.268-.183-.244-.18-.24" clip-path="url(#p45a7d6abe4)" style="fill:none;stroke:#000"/><path d="m387.836 466.435-.299-.2-.281-.349-.751-1.125-1.045-1.413-1.087-1.444-.175-.188-.15-.12-.684-.525-.547-.426-.351-.299-.264-.305-.162-.362-.068-.377.056-.403.162-.358.86-1.897.936-2.063.455-1.149.035-.154.017-.174.009-.246M368.28 142.01l.254-2.58.432-4.293M193.587 118.632l5.595-4.912.563-.39.504-.254.481-.103.803.023h.904l3.93-.294 11.312-.356 2.2.029 1.243-.058 3.331-.334 1.296.017.938.052.957-.011 1.249-.156.551-.051 6.762-.156 5.272-.316 4.886-.092 1.055.172.346.064.28.02.243-.037.354-.118 6.525.29.809-.034.762-.081 4.88-.644 7.665-.829.484-.071.328-.078.247-.153.129-.235.137-.323 1.824-5.599 2.348-5.965.124-.255.241-.218.184-.072.198-.042.226.003.296.076 12.441 4.397 10.753 3.9 31.623 13.237 38.1 16.462M193.587 118.632l-7.859 7.455-.61.321-.633.173-.991.115" clip-path="url(#p45a7d6abe4)" style="fill:none;stroke:#000"/><path d="m207.132 198.073-.045-.69-.032-.4-.963-11.89-.998-17.628-.317-19.683.012-1.208.176-1.047.703-3.496-.029-.432-.211-.362-.381-.426-3.542-9.801-.276-.61-.311-.494-7.33-11.274M206.766 200.061l.28-.727.07-.477.016-.784M281.512 292.541l.153-2.024-.793-2.612-5.77-9.546-27.238-44.714-3.107-4.509-2.22-2.705-3.424-3.172-10.749-8.551-21.232-16.635" clip-path="url(#p45a7d6abe4)" style="fill:none;stroke:#000"/><path d="m281.512 292.541-8.766-14.175-25.39-41.818-3.296-4.955-2.205-2.813-1.905-2.126-3.492-3.077-9.919-7.9-19.773-15.616M357.658 249.978l.457-4.653 4.316-44.05 2.758-28.495 3.091-30.77M596.737 183.309l3.531-4.816 4.055-5.598 6.203-8.582 4.89-6.74 4.817-6.767 2.64-3.787 1.953-3.031 1.407-2.45 1.269-2.347 1.633-3.328 1.427-3.332M434.18 614.288l-.69.244-.888.261-.728.326-.625.346-.377.241-.515.41-1.049 1.174-1.121 1.381-.912.878-1.318 1.098-1.873 1.378-4.137 3.342-1.36 1.18-.943.941-.507.552-.334.533-.295.44-.224.306-.471.446-.341.171-.45.12-.512.069-.505.013-1.562-.193-1.76-.252-1.596-.234-1.566-.129-2.013-.019-1.815.004M397.477 618.574l2.173 3.824 2.077 3.497 1.966 3.42M512.683 343.087l-5.32 1.716-3.897 1.234" clip-path="url(#p45a7d6abe4)" style="fill:none;stroke:#000"/><path d="m489.195 311.477.963 1.255.355.477.41.63.203.408.418 1.257.245.519.259.471.344.48 1.636 1.922.243.348.16.358.144.442.765 2.577.415.905.547.928.158.447.138.793.059.333.121.332.216.562.217.387.435.592.642.553.433.316.276.3.164.298.049.342.01.44.056.935.129.43.205.537.459 2.368.25 1.231.638 2.176 1.422 4.71.611 1.891.476 1.61M508.515 320.903l1.466 2.18.56.904.298.577.059.253-.018.236-.096.226-.213.204-.353.25-.978.762-2.916 2.599-.236.3-.146.27-.039.32.03.28.13.384 1.722 3.404 3.282 6.114 1.616 2.921M574.629 309.333l-1.272 3.466-1.372 2.641-1.55 2.466-1.442 2.025-1.879 2.103-1.193 1.318-1.054.933-1.364 1.08-1.904 1.403-2.479 1.427-2.656 1.273-5.893 2.007-7.313 2.208-4.174 1.399M539.664 303.55l.663 1.653.214.744.12.57.036.36.005.392-.042.295-.11.256-.338.615-.518.693-.378.463-.24.35-.28.47-.096.379-.03.356-.034.603.022.934-.037 1.43-.1 1.64.086 1.26-.03.847-.061 1.255-.006 1.881-.15 2.978-.052 1.484.04.972.1.58.513 2.415.052.377.004.328-.037.457-.05 1.181.028 1.88.126 1.434M574.629 309.333l.531-1.736" clip-path="url(#p45a7d6abe4)" style="fill:none;stroke:#000"/><path d="m562.244 288.047 1.297.754 1.074.606.23.148.124.146.574 1.222 2.637 5.35 1.546 3.218 2.42 4.938 1.738 3.699.745 1.205M577.015 217.627l-.951 4.812-.397 2.355-.376 3.098-.084 4.894-.074 8.876.177 11.25.36 18.875M576.028 296.506l-.123-3.906-.095-5.508-.14-15.305" clip-path="url(#p45a7d6abe4)" style="fill:none;stroke:#000"/><path d="m570.674 269.886 1.731.622 1.337.527 1.525.575.404.177M596.737 183.309l-3.662 5.154-6.151 8.474-1.863 2.713-1.68 2.755-2.743 5.408-1.292 2.995-2.331 6.819M599.488 214.793l-4.194.443-4.018.545-8.133 1.041-6.128.805M630.755 222.637l.044-.968-.023-.66-.096-.502-.11-.548-.643-2.033-.273-.944-.232-1.04-.097-1.253-.02-1.058.024-.843.13-.661.215-.68.007-.339-.118-.423-.254-.657-5.105-11.618-.844-1.917-.195-.537-.158-.35-.16-.21-.43-.354-2.517-2.447-.369-.33-.402-.249-.422-.119-.91-.282-1.001-.322-4.003-1.065-.896-.307-1.05-.47-2.088-.926-7.885-3.387-4.137-1.83M322.917 538.427l-.706 3.894-.911 4.142-2.022 8.55.056.327.115.19.204.172.287.22.555.564.218.268.186.253.14.33.114.373.06.56-.012.728.115.445.218.16.342.004.953-.218 1.927-.618 1.954-.666 2.289-.828.842-.227.757-.183.722-.128M322.917 538.427l.713.98.682 1.336 1.474 3.498 2.346 5.331 3.188 7.167M397.477 618.574l-.744-1.368-.888-1.29-.524-.855-.95-1.072-2.474-2.41-3.012-2.845-2.458-2.424-2.25-2.208-4.168-4.325-3.3-2.794-2.6-2.611-1.554-1.461-1.87-1.912-3.63-3.203-4.36-3.839-1.998-1.772-2.125-1.54-6.42-4.507-6.01-4.01-6.705-4.54-2.188-1.398-1.38-.855-.777-.56-.507-.575-.396-.777-1.078-2.612-1.791-4.072M470.368 355.781l-.506-3.432-.289-1.832-.066-.383-.116-.422-.29-1.047M475.419 339.815l-1.526 3.112-.212.576-.076.551.05 1.103.031 1.232-.116 1.52-.233 1.837-.244.97-.83 2.324-.3.655-.329.517-1.266 1.57M428.488 343.474l-.498.227-.097.067-.074.072-.045.073-.021.1-.005.136.017.149 1.089 5.551 1.286 8.038.998 6.219M575.16 307.597l.638-3.706.23-3.171v-4.214M588.27 295.96l-.45.008-.249.015-.255.084-.483.276-.613.282-.294.06-.284.039-2.713-.128-1.768-.21-1.126-.05-4.007.17M575.16 307.597l1.665.033M576.825 307.63l.301-.11.317-.046 1.01-.019 1.875-.054 3.948-.07 6.819-.084.34-.025.243-.035.567-.223 2.45-1.273 5.364-2.943 4.938-2.77.713-.248 1-.188 2.443-.003" clip-path="url(#p45a7d6abe4)" style="fill:none;stroke:#000"/><path d="m606.527 314.097-2.362-.85-3.219-1.516-1.99-1.08-3.446-1.91-1.307-.649-.55-.244-.943-.19-.987-.055h-5.473l-5.846.082-2.692.077-.564-.039-.323-.093M341.84 403.225l-1.345-1.966M348.983 329.965l-15.866-3.84-20.396-4.903-4.315-1.073-3.404-1.123-2.785-1.241-3.738-2.265-1.46-1.086-2.2-1.913-1.68-1.693-1.55-1.858-1.538-2.201-8.54-14.228M305.816 415.874l.125-.67M399.252 364.504l3.388-1.87M392.495 369.202l2.938-1.699M398.888 365.507l-3.455 1.996M194.074 406.05l.027.258.224 2.078.036.757.127 9.162.06 5.837.071 6.005.258 24.418.19 24.265-.051.52-.084.305-.162.385-.084.15-.125.165-1.186.975-2.168 1.644-2.123 1.733-.632.525-3.433 2.67-2.976 2.674-4.887 3.89-1.224.645-1.388.47-1.827.49-1.57.428-3.71.175-4.383.046-3.42-.031-1.277.035-1.16.058-.992.268-6.365 2.39-4.217 1.462-1.07.357-.8.156-4.345-.101-3.345.1-1.758.14-.795.125-.509.379-1.274 1.502-.94.777-1.272 1.065-1.07 1.034-1.403 1.826-1.181 1.726-.448.683-.234.607-.263.822-.498 1.183-.642 1.018-.864 1.05-.792.63-1.174.646-.88.434-.99.217-1.72.381-1.213.486-.787.404-.696.377-.594.517-.607.497-.979.696-2.307 1.045-2.647 1.084-.646.243-.551.139-.773.163-1.2.357-3.307 1.112M434.18 614.288l-1.953.23-3.325.442-5.012.552-5.12.684-3.663.373-3.765.462-8.332 1.03-5.533.513M443.64 611.619l-.79.566-.465.243-.67.29-1.218.338-2.077.439-2.254.496-1.986.297M341.98 404.6l.166.148.318.358.3.372.283.492.299 1.108M358.24 376.582l.154.273.27.164.317.015.284-.138M358.345 376.057l-.088.162-.036.18.02.183M341.43 405.145l.55-.546M350.034 401.68l.661-.448M369.44 379.195l-7.397 2.854M360.182 388.003l2.939-4.116M360.182 388.003l-1.786 2.324M354.98 395.272l3.03-4.348.386-.597M354.98 395.272l-2.121 2.99M352.859 398.262l-2.164 2.97M395.955 399.493l-.2.222M360.598 361.526l-.241-.476M359.265 376.896l.126-.147.075-.178M348.983 329.965l-1.054 9.85-.178 1.418M335.764 401.577l2.95.218 1.372-.136.409-.4" clip-path="url(#p45a7d6abe4)" style="fill:none;stroke:#000"/></g><g id="PatchCollection_1"><path d="m362.852 381.916 5.576-2.167.235-.076.213-.022.107.01.202.105.196.132.078.082.14.182 1.1 3.745.011.11-.028.11-.067.093-.095.066-.101.044-4.728 1.375-.242.055h-.24l-.225-.027-.236-.06-.24-.166-.068-.093-.23-.259-1.548-2.425-.05-.22-.012-.23.029-.11zM392.662 376.16l-.653 2.128 1.132-.35zM378.275 360.76l.17.796 3.9-1.455z" clip-path="url(#p45a7d6abe4)" style="fill:green;fill-opacity:.8"/></g><g id="PatchCollection_2"><path d="m300.159 414.12-4.392 8.861-1.274-.528 2.822-9.657zm-5.26 7.547.988.302 3.547-7.483-1.998-.818zM298.603 403.498l4.532 1.042-1.484 6.205-4.532-1.042z" clip-path="url(#p45a7d6abe4)" style="fill:#90ee90;fill-opacity:.8"/></g><g id="PatchCollection_3"><path d="m358.34 364.65.188-.481-1.603-.6.18-.46 1.265.472.181-.466-.567-.212.28-.717-2.064-.772-.463 1.19 1.01.377-.194.5-.961-.36-.18.465 1.113.417-.026.066.182.068.037-.094zM387.201 355.59l.076.499-.385.055.026.169 1.998-.292.07.462-1.615.236.06.395 1.893-.276.079.52-2.92.425-.074-.493.757-.11-.058-.383-.787.115-.071-.472.514-.075-.106-.696zM336.865 395.195l-.103 1.686 3.946.232.103-1.686zM334.793 399.517l-.097 1.203 5.067.391.096-1.202z" clip-path="url(#p45a7d6abe4)" style="fill:#a9a9a9;fill-opacity:.8"/></g></g></g><defs><clipPath id="p45a7d6abe4"><path d="M90.331 86.4h557.337v554.4H90.331z"/></clipPath></defs></svg>