<svg xmlns="http://www.w3.org/2000/svg" width="960" height="960" viewBox="0 0 720 720"><defs><style>*{stroke-linejoin:round;stroke-linecap:butt}</style></defs><g id="figure_1"><path id="patch_1" d="M0 720h720V0H0z" style="fill:#fff"/><g id="axes_1"><path id="patch_2" d="M106.094 640.8h525.812V86.4H106.094z" style="fill:#fff"/><g id="LineCollection_1"><path d="m324.932 493.138-1.979 4.069-2.406 4.847-1.204 2.99-.802 3.326M317.994 511.883l.201-1.387.346-2.126M243.046 498.326l5.222-.3 3.127-.661 4.878.12 15.948 1.321 19.763 1.786 1.063.195 23.922 7.325 1.572.258M563.779 373.884l7.02-3.462 12.788-6.708 18.89-10.791 8.92-5.185 2.484-1.31 1.99-.44h1.86l4.063 2.124M381.122 337.602l-6.077 11.077M381.122 337.602l3.838 2.135M371.521 347.1l7.046-10.92 2.555 1.422M387.012 341.471l-1.346 2.97M384.96 339.737l1.842 1.024.105.359.105.351M391.371 343.556l-2.42-1.157-1.94-.928M391.371 343.556l-1.508 2.945M391.371 343.556l2.928 1.625M394.299 345.18l-4.996 9.902M394.299 345.18l2.725 1.545M397.024 346.725l.469.202M397.024 346.725l-4.775 9.688M397.024 346.725l1.816-3.077M373.52 350.599l1.525-1.92M373.52 350.599l4.162 1.883M373.52 350.599l-.21-.09M381.234 354.086l-3.552-1.604M381.234 354.086l-.79 1.944M381.234 354.086l1.042-2.158M367.043 354.177l3.514 1.587M396.84 357.556l4.823-.193M392.73 365.823l3.882-7.809.229-.458" clip-path="url(#pad86487cc9)" style="fill:none;stroke:#000"/><path d="m392.64 356.867.687.372 1.252.333 2.262-.016M378.883 359.528l3.64 1.646M378.883 359.528l-3.994-1.802M378.883 359.528l-3.363 7.554M378.883 359.528l1.56-3.498M382.523 361.174l3.07 1.389M382.523 361.174l3.685-7.481M382.523 361.174l-3.638 7.464M401.663 357.363l-2.065 4.107M401.663 357.363l6.527-.26M385.593 362.563l2.995 1.384M385.593 362.563l-3.701 7.465M385.593 362.563l3.71-7.481M388.588 363.947l.458.207M388.588 363.947l-3.668 7.457M392.25 356.413l-.57 1.182-3.092 6.352M408.19 357.102l-3.62 6.575M415.262 356.768l-3.166.178-3.906.156M369.648 364.368l1.758.804M408.142 365.732l-2.87 5.855M392.73 365.823l3.788 1.739M392.73 365.823l-3.684-1.669M392.73 365.823l-3.824 7.447M412.21 366.985l-3.135 6.35M375.52 367.082l3.365 1.556M375.52 367.082l-4.114-1.91M375.52 367.082l-2.61 5.82M396.518 367.562l4.984 2.29M396.518 367.562l-3.769 7.484M396.518 367.562l3.08-6.092M378.885 368.638l3.007 1.39M378.885 368.638l-2.828 5.73M417.24 369.484l-3.074 6.191M401.502 369.851l3.77 1.736M401.502 369.851l-3.733 7.515M401.502 369.851l3.068-6.174M381.892 370.028l3.028 1.376M381.892 370.028l-2.842 5.731M421.1 370.838l-3.227 6.546M405.273 371.587l3.802 1.747M405.273 371.587l-3.696 7.54M384.92 371.404l.454.212M384.92 371.404l-2.829 5.677M372.91 372.903l3.147 1.464M372.91 372.903l-2.345 5.285M409.075 373.334l5.091 2.341M409.075 373.334l-3.722 7.538M388.906 373.27l3.843 1.776M388.906 373.27l-3.532-1.654M388.906 373.27l-2.849 5.748M359.447 373.02l6.813 3.154M376.057 374.367l2.993 1.392M376.057 374.367l-2.535 5.195M392.75 375.046l5.019 2.32M392.75 375.046l-2.891 5.74M379.05 375.76l3.041 1.321M379.05 375.76l-2.565 5.18M414.166 375.675l3.707 1.71M414.166 375.675l-3.743 7.54M382.091 377.081l.478.233M382.091 377.081l-2.594 5.256M397.769 377.366l3.808 1.761M397.769 377.366l-2.865 5.766M417.873 377.384l-3.726 7.557M370.565 378.188l2.957 1.374M370.565 378.188l-4.305-2.014M370.565 378.188l-3.485 7.796M386.057 379.018l3.802 1.768M386.057 379.018l-3.488-1.704M386.057 379.018l-2.49 5.213M401.577 379.127l3.776 1.745M401.577 379.127l-2.84 5.788M373.522 379.562l2.1.976M389.859 380.786l5.045 2.346M405.353 380.872l5.07 2.343M405.353 380.872l-2.86 5.79M375.621 380.538l.864.402M375.621 380.538l-3.562 7.735M376.485 380.94l3.012 1.397M379.497 382.337l.488.227M379.497 382.337l-3.733 7.674M410.423 383.215l3.724 1.726M410.423 383.215l-2.88 5.796M394.904 383.132l3.833 1.783M394.904 383.132l-2.57 5.173M360.24 382.837l2.39 1.098M383.567 384.23l3.817 1.775M383.567 384.23l-3.582-1.666M383.567 384.23l-3.926 7.533M398.737 384.915l3.755 1.746M398.737 384.915 396.2 390.1M414.147 384.941l-2.877 5.803M367.08 385.984l4.98 2.29M367.08 385.984l-4.45-2.05M367.08 385.984l-2.595 5.997M387.384 386.005l4.95 2.3M387.384 386.005l-3.774 7.584M402.492 386.661l5.052 2.35M402.492 386.661l-2.554 5.179M352.556 386.606l7.421 3.347M352.556 386.606l-1.725 3.545M344.867 382.006l5.217 1.707 1.282 1.051 1.19 1.842M372.06 388.273l3.704 1.738M372.06 388.273l-2.715 5.896M392.335 388.305l3.865 1.795M392.335 388.305l-3.76 7.568M407.544 389.011l3.726 1.733M407.544 389.011l-2.563 5.17M375.764 390.01l.454.206M375.764 390.01l-2.948 5.731M350.831 390.151l7.62 3.27M351.718 395.696l-2.624-1.268 1.737-4.277M396.2 390.1l3.738 1.74M396.2 390.1l-3.712 7.573M411.27 390.744l-2.539 5.182M379.641 391.763l3.97 1.826M379.641 391.763l-3.423-1.547M364.485 391.981l4.86 2.188M364.485 391.981l-4.508-2.028M364.485 391.981l-1.457 3.405M399.938 391.84l5.043 2.342M399.938 391.84l-3.726 7.547M383.61 393.589l4.964 2.284M383.61 393.589l-2.827 5.737M369.345 394.169l-1.511 3.28M369.345 394.169l3.471 1.572M404.981 394.182l3.75 1.744M404.981 394.182l-3.736 7.52M363.028 395.386l4.806 2.063M363.028 395.386l-4.578-1.964M363.028 395.386l-1.769 4.097M372.816 395.741l.56.251M372.816 395.741l-1.563 3.244M388.574 395.873l3.914 1.8M388.574 395.873l-2.826 5.69M401.245 401.702l3.781 1.74 3.705-7.516M424.065 402.815l-6.343-2.951-8.99-3.938M376.574 397.43 373 404.413M376.574 397.43l4.21 1.896M376.574 397.43l-3.199-1.438M367.834 397.449l3.419 1.536M367.834 397.449l-1.807 3.924M392.488 397.673l3.724 1.714M371.253 398.985l.555.192M371.253 398.985l-1.888 3.787M380.783 399.326l-3.507 7.124M380.783 399.326l4.965 2.237M361.26 399.483l-3 7.002M361.26 399.483l-4.666-1.852M361.26 399.483l4.767 1.89M396.212 399.387l5.033 2.315M366.027 401.373l-2.959 6.423M366.027 401.373l3.338 1.4M385.748 401.563l-2.497 5.026M369.365 402.772l.55.25M369.365 402.772l-2.947 6.035M348.517 403.784l4.663 1.382M348.517 403.784l3.201-8.088M348.517 403.784l-1.744 4.334M373.001 404.414l-3.085-1.393M373.001 404.414l4.275 2.036M373.001 404.414l-3.083 6.03M356.548 406.01l-1.905 6.923M356.548 406.01l1.712.475M356.548 406.01l-3.368-.844M358.26 406.485l1.25.347M377.276 406.45l1.757.837M374.235 412.584l1.319-2.647 1.722-3.487M359.51 406.832l-1.62 6.345M359.51 406.832l3.558.964M363.068 407.796l-2.517 5.733M363.068 407.796l3.35 1.011M366.418 408.807l.528.247M366.418 408.807l-3.43 6.886M369.918 410.443l-3.497 6.839M369.918 410.443l4.317 2.14M369.918 410.443l-2.972-1.39M338.372 410.833l1.597.181M349.243 412.202l-.468 3.658M349.243 412.202l1.215.17M349.243 412.202l-3.829-.57M374.235 412.584l-3.396 6.818M354.643 412.933l-4.185-.562M354.643 412.933l-1.934 6.972M360.55 413.53l-.876 5.657M360.55 413.53l-2.66-.353M350.846 426.618l-.95 3.565M350.846 426.618l1.863-6.713M350.846 426.618l-3.353-.683M350.846 426.618l3.843 1.047M354.69 427.665l-1.086 4.94M356.233 420.634l-.887 3.989-.657 3.042M364.507 432.11l6.332-12.708M364.507 432.11l-5.316 10.723M364.507 432.11l-4.54-2.103M364.507 432.11l4.92 2.239M347.493 425.935l-.74 1.722-.626.883-6.363 4.706-.51.17" clip-path="url(#pad86487cc9)" style="fill:none;stroke:#000"/><path d="m347.493 425.935-3.397-.644-.693-.058-.654.185-3.495 7.999M315.116 429.126l1.259-.938.782-.248 2.845-.038 2.705.466 1.61.66 4.738 2.297.993.263 1.133.27 2.415.223 5.658 1.336M352.608 437.19l.996-4.586M352.608 437.19l2.173-4.395M352.608 437.19l-.115.234M382.166 344.487l1.413-2.518 1.381-2.232M382.166 344.487l-3.46 5.84M382.166 344.487l2.835 1.426M385.666 344.441l-.665 1.472M385.666 344.441l4.197 2.06M385.001 345.913l-1.08 2.38M389.863 346.501l-1.794 3.502M371.521 347.1l3.524 1.579M373.31 350.51l-3.058-1.39 1.27-2.02M383.92 348.293l-1.644 3.635M383.92 348.293l4.15 1.71M375.045 348.679l3.661 1.647M386.208 353.693l.694-1.411 1.167-2.279M378.706 350.326l3.57 1.602M378.706 350.326l-1.024 2.156M382.276 351.928l3.932 1.765M377.682 352.482l-1.215 1.873M386.208 353.693l3.095 1.389M389.303 355.082l2.946 1.33M392.25 356.413l.39.454M374.89 357.726l-4.333-1.962M374.89 357.726l-3.484 7.446M374.89 357.726l1.577-3.371M371.406 365.172l-5.146 11.002M366.26 376.174l-3.63 7.76M362.63 383.935l-2.653 6.018M359.977 389.953l-1.527 3.469M358.45 393.422l-1.856 4.209M356.594 397.63l-4.876-1.934M353.18 405.166l.445-.776 2.969-6.76M351.747 408.49l.847-2.457.586-.867M350.458 412.371l1.29-3.88M356.233 420.634l.446-2.012M356.233 420.634l3.25.58M356.233 420.634l-3.524-.729M356.679 418.622l2.995.565M357.89 413.177l-.463 2.062-.748 3.383M369.428 434.349l3.666 1.668M369.428 434.349l1.589-3.314M369.428 434.349l-5.373 10.813M343.972 422.822l3.851.521M380.444 356.03l-3.977-1.675M346.773 408.118l-1.359 3.514M346.773 408.118l4.974.372M339.97 411.014l.312-3.382 6.49.486M370.557 355.764l-2.257 4.886M370.557 355.764l2.753-5.254M348.3 419.63l.475-3.77M348.3 419.63l-.477 3.713M348.3 419.63l-6.266-.74M347.823 423.343l-.33 2.592M370.839 419.402l-4.418-2.12M372.334 428.289l2.565-5.347.03-.69-.124-.6-.407-.421-.563-.42-2.996-1.409M348.775 415.86l-5.952-.711M339.734 418.807l2.3.082M345.414 411.632l-5.445-.618M368.3 360.65l2.274 1.404M348.087 336.437l.035 1.734.547 7.498.164 3.16.383.706 3.237 1.366 2.861 1.26 2.432 1.029 1.712.99 1.829 1.816 2.275 1.892 4.738 2.762M339.586 414.762l3.237.387M359.674 419.187l-.192 2.026M359.674 419.187l1.284.58M342.034 418.89l.789-3.741M366.42 417.282l-2.87-1.33M359.967 430.007l4.547-8.996 1.907-3.73M379.401 438.908l-2.205-1.01M332.64 484.014l1.932-3.81M332.64 484.014l6.04 8.369M332.64 484.014l-3.73 7.989M332.64 484.014l-2.478-1.396M352.091 465.722l1.41.692M352.091 465.722l-3.491-1.713M352.091 465.722l-.148.854M344.985 481.157l1.653-3.425M344.985 481.157l-.231.427M353.24 489.434l-.207-.177-5.607-7.59-2.44-.51M362.44 470.8l-1.347-.66M369.867 461.563l-3.4 6.864-.995 2.132-.793 1.341-2.24-1.1M360.917 473.774l1.167-2.273.355-.7M339.36 493.325l.491-1.07M339.36 493.325l-.68-.942M335.87 500.076l.24-.445 3.25-6.306M349.49 471.701l-1.054 2.174M349.49 471.701l.97-1.862M349.49 471.701l6.213 8.28M357.103 481.846l.802-1.693M357.103 481.846l-.941-1.255M353.42 489.602l2.032-4.263 1.651-3.493M342.118 464.503l-1.924 3.716M342.118 464.503l1.095-2.213M342.118 464.503l6.318 9.372M348.436 473.875l-.838 1.685M351.277 468.065l-.817 1.774M351.277 468.065l.666-1.489M351.277 468.065l6.033 8.044M358.843 478.226l-.938 1.927M358.843 478.226l.46-.964M358.843 478.226l-.271-.375M343.213 462.29l5.972-11.05M343.213 462.29l-.907-.504M343.213 462.29l3.549 1.755M344.754 481.584l-.783 1.706M344.754 481.584l-6.56-9.043M353.24 489.434l.18.168M353.24 489.434l-3.272 2M340.094 468.413l-1.9 4.128M340.094 468.413l.1-.194M340.094 468.413l6.544 9.319M346.638 477.732l.96-2.172M353.748 498.495l3.477-7.297M353.748 498.495l3.08 1.02M350.518 497.124l.47.345 2.76 1.026M361.353 481.821l-4.128 9.377M361.353 481.821l-3.448-1.668M361.353 481.821l2.17.858M360.732 492.397l-3.507-1.199M360.732 492.397l-2.189 7.617M360.732 492.397l2.79-9.718M387.566 494.976l-17.235-2.496-4.742-.323-1.5.082-1.3.446-.683.104-1.374-.392M359.304 477.262l1.613-3.488M363.522 482.679l1.095-3.25-5.313-2.167M365.674 475.689l-4.757-1.915M360.917 473.774l-.41-.118M351.943 466.576l-3.682-1.88M360.506 473.656l-.314-.095-3.06-4.135-.962-.855-4.227-1.995M334.572 480.204l1.811-3.899M341.307 489.088l-.08-.105-6.655-8.779M341.307 489.088l-1.016 2.21M341.307 489.088l.794-1.73M336.383 476.305l6.646 9.033M338.194 472.54l-1.443 2.915-.368.85M325.338 499.84l1.832-3.896M325.338 499.84l3.081-2.168M333.017 504.584l-.135.142-2.015 1.341-.753.133-.484-.332-4.022-5.512-.27-.517M351.556 493.588l-1.242 2.428M351.556 493.588l1.863-3.986M351.556 493.588l-.299-.405M356.162 480.591l-.459-.61M356.162 480.591l-.941.606M357.31 476.11l1.262 1.741M357.31 476.11l3.196-2.454M353.42 489.602l3.805 1.596M539.55 534.286l1.346 2.402 10.35 8.554M572.791 566.944l-6.316-10.086-15.23-11.616M489.964 513.281l3.838 2.215 4.19 3.541 2.502 1.201 9.381 2.402 10.07.42 12.382 3.002 7.224 8.224M315.293 532.07l-.133.989-.4 4.068-.034 2.434.367 8.263-.233 2.787-.534 3.843-1.058 3.896-14.672 33.456M289.256 630.138l6.546-31.43 1.302-3.523 1.492-3.38" clip-path="url(#pad86487cc9)" style="fill:none;stroke:#000"/><path d="m230.647 620.783 2.236-2.874 5.44-6.843 16.887-14.707 6.192-6.844 6.066-5.163 31.128 7.454M116.206 280.49l16.3-2.274 34.569 2.958M252.537 298.197l-18.7-7.093-1.908-.338-14.056-1.321-25.141-4.263-25.657-4.008M254.288 151.233l-6.504-1.988-2.393-.691-7.364-1.862-.563-.053-1.235.849-.125.563.563 3.67-.219 1.577-1.36 1.411-4.284 4.55-2.315 3.212-3.658 7.897-3.408 6.56-1.314 3.063-2.736 8.002-1.829 10.81-.75 2.341-1.267.976-3.221 1.336-5.285 1.712-1.594 1.621-2.424 5.765-.461 3.378-.415 1.036-3.002 3.918-1.438 2.927-1.563 3.693-2.142 2.748-2.862 1.906-3.502 1.021-3.002 1.02-5.707 2.402-1.579 1.277-1.063 1.996-.485 3.453-2 10.853-1.298 7.522-1.408 8.932-1.72 8.654-.281 1.884M135.46 341.144l.345-2.042.813-2.056 2.29-2.372 1.908-1.891 1.282-1.171 1.415-.496 1.29.158 1.892 1.366 1.368.743 1.282-.15 2.376-1.366 1.908-2.823 1.4-3.279.187-2.417-.086-1.568 1.47-4.234 1.172-1.906 2.674-4.188 1.939-3.438 1.125-5.614 2.408-14.291 1.157-6.935M251.67 208.953l-1.588 15.46-.008 26.857-.57 1.366-2.408 2.072-1.29 1.478-4.699 9.45-4.33 6.898-.579 1.284-.164 1.96.336 2.484 1.774 4.278 1.877 2.056 7.692 9.165 4.824 4.436M316.158 366.861l-1.878-1.4-13.227-7.078-10.57-6.011-1.33-1.028-13.219-11.492-1.821-2.101-5.738-7.565-.774-1.524-9.405-24.783-.82-1.179-4.84-4.503M359.19 442.833l-5.306 10.708M359.19 442.833l4.865 2.329M359.19 442.833l-4.286-1.728M371.488 448.967l5.708-11.07M371.488 448.967l-5.274 10.693M371.488 448.967l3.768 1.84M371.488 448.967l-3.851-1.791M367.637 447.176l-3.697-1.765M367.637 447.176l-5.143 10.537M367.637 447.176l5.457-11.16M349.185 451.24l5.72-10.135M349.185 451.24l4.7 2.301M349.185 451.24l-2.839-1.368M353.884 453.541l-2.09 4.14M353.884 453.541l4.854 2.347M362.494 457.713l-5.174 10.575M362.494 457.713l3.72 1.947M362.494 457.713l-3.756-1.825M364.055 445.162l-.115.249M358.738 455.888l5.202-10.477M358.738 455.888l-5.237 10.526M359.863 422.768l-3.086 5.942M359.863 422.768l.533-.385 1.125-2.323M360.127 421.39l-.349.63.085.748M356.777 428.71l3.19 1.297M356.777 428.71l-1.996 4.085M359.967 430.007l-5.063 11.098M372.334 428.289l-1.317 2.746M378.559 431.418l-1.282-.634-4.943-2.495M371.017 431.035l6.96 3.242M375.256 450.807l-5.389 10.756M394.841 450.645l.716-.848-.105-2.222.042-.585.19-.545-.422-.849-.778-.363-13.926-1.05-.379-.262-.336-.323-.736.1-3.85 7.11M357.32 468.288l3.773 1.852M357.32 468.288l-3.819-1.874M373.094 436.017l4.102 1.88M366.214 459.66l-5.121 10.48M366.214 459.66l3.653 1.903M346.346 449.872l6.147-12.448M346.346 449.872l-3.298 6.67M398.84 343.648l6.12-12.61M398.84 343.648l-1.347 3.28M360.958 419.767l.563.293M360.958 419.767l-.83 1.624M360.958 419.767l2.03-4.074M361.521 420.06l2.03-4.107M363.55 415.953l3.396-6.9M363.55 415.953l-.562-.26M392.64 356.867l4.688-9.538.165-.402M392.64 356.867l-3.594 7.287M376.218 390.216l3.767-7.652M376.218 390.216l-2.843 5.776M379.985 382.564l2.584-5.25M373.375 395.992l-1.567 3.185M369.916 403.021l1.892-3.844M369.916 403.021l-2.97 6.033M382.569 377.314l2.805-5.698M385.374 371.616l3.672-7.462M341.287 460.101l.337.631.334.604.348.45M340.437 461.824l.348-.105.68-.094.84.161M348.6 464.009l3.194-6.328M348.6 464.009l-.34.687M348.26 464.696l-1.498-.65M340.437 461.824l.85-1.723M340.437 461.824l-2.795 5.656M341.287 460.101l1.02-2.06M336.337 470.12l1.857 2.42M336.337 470.12l1.305-2.64M330.162 482.618l.563-1.141 5.612-11.357M350.46 469.839l-3.698-5.794M343.03 485.338l-.929 2.02M343.97 483.29l-.861 1.874-.08.174M343.97 483.29l5.998 8.143M340.291 491.297l-.44.959M340.291 491.297l.128-.081M349.234 497.036l.687-.25M349.234 497.036l-1.223-1.658M340.42 491.216l5.638 7.754.237.113.237-.022 2.702-2.025M349.921 496.786l.393-.77M350.518 497.124l-.336-.247-.261-.09M342.101 487.358l1.4 1.9M343.501 489.258l4.51 6.12M343.501 489.258l-3.082 1.958M348.011 495.378l3.246-2.195M351.257 493.183l-1.289-1.75M330.162 482.618l-5.23 10.52M333.916 503.734l-.9.85M333.916 503.734l1.954-3.658M332.658 503.482l.737.17.521.082M324.932 493.138l2.238 2.806M333.017 504.584l-.36-1.102M327.17 495.944l1.74-3.941M327.17 495.944l1.25 1.728M327.17 495.944l3.184-2.01M331.941 502.628l.717.854M331.941 502.628l-3.522-4.956M331.941 502.628l3.062-1.959M335.87 500.076l-.867.593M335.003 500.669l-4.65-6.736M328.91 492.003l1.444 1.93M354.781 432.795l-1.177-.19M359.482 421.213l.645.178M233.322 490.197l.75 1.345 3.064 3.542 3.252 2.761 2.658.48M237.198 520.899l2.424-4.863.97-2.311.828-4.293.531-1.74 1.83-2.822.437-1.216-.172-1.186-.624-1.8-.376-1.051v-1.291M354.602 202.18l-2.284 3.423-.272.495-.469 1.817-.852 11.485-.508 7.01-.316.984-.485.608-1.134.642-3.67.649-6.512 1.486-.497.229-1.192 1.34-1.235 2.282-.328 2.056.016 1.847 1.547 5.321 4.292 13.106 1.188 2.282 1.064 1.11 2.153 1.475 1.396.875.879.732 1.998 1.794 2.294 1.812" clip-path="url(#pad86487cc9)" style="fill:none;stroke:#000"/><path d="m363.429 290.316-.645-.593-1.185-1.464-.855-1.463-.873-3.753-.57-1.193-1.118-2.2-.64-1.891-1.314-6.493-.548-1.088-.668-.852-1.256-1.162-2.082-1.124" clip-path="url(#pad86487cc9)" style="fill:none;stroke:#000"/><path d="m321.898 239.111.528.03 2.908 2.169 1.165 1.276 2.51 3.325 1.406 2.132 2.408 2.552 1 1.816 2.05 5.9.937 3.122-.266 2.447-.438 1.486.172 1.187.735.765 1.376.375 1.657.045 2.533-.54 4.175-.436 4.921.278M378.15 299.788l5.456 3.36 4.553 2.986.573.473 1.19 1.325M404.96 331.038l-2.99-2.323-1.717-1.288-1.728-1.576-.304-.54-.297-.983-1.423-4.643-2.06-5.629-.633-1.561-1.22-1.895-.664-.803-2.001-1.865" clip-path="url(#pad86487cc9)" style="fill:none;stroke:#000"/><path d="m358.05 307.618 5.554.288 5.003-.768 15.36-.77 4.103 2.115 1.853-.551M452.76 354.66l51.112-2.87 9.815-.552 4.494.401 3.05.584 4.22 1.136 2.575 1.545 4.321 2.586 3.115 1.876 6.074 3.79 4.172 3.303 8.355 5.407 5.468 3.128 1.16.158 1.16-.317 1.928-.95" clip-path="url(#pad86487cc9)" style="fill:none;stroke:#000"/><path d="m489.964 513.281 2.193-1.162.95-.972 2.728-2.87.594-1.637.844-3.301.13-1.186-.083-3.827.36-5.974.125-9.095-.149-12.585-.293-2.439.075-.638 1.242-4.3.392-2.056.172-3.063.273-.622 1.95-2.436.249-.093.293.11 5.095 3.894.215.017.215-.128 2.592-7.916 1.297-2.394 3.252-5.29.844-1.479.892-2.77 1.133-2.153 1.525-2.694.207-.342.41-.203 1.564-.457.7-.371 1.164-.913 3.342-2.713 1.157-1.073 3.972-4.251 2.056-2.488 2.747-2.923 1.005-1.426.88-1.347 1.004-1.152.946-.89 1.352-1.073 1.157-1.08 2.862-3.494.723-1.268 1.051-2.579.93-1.913 2.3-4.038 1.187-1.651.606-1.1.098-.487.09-.983.125-.299 7.25-11.075 1.494-4.714.61-1.32.613-.838.513-.784.595-1.093M424.065 402.815l15.25-3.048 13.64-2.695 4.926-1.504.799-.137.262.103.201.236.39.933.456.615 1.917 1.582 7.021 5.576.887.334.707-.034.614-.379 1.86-2.169.263-.598.531-1.774.485-.99.977-1.328 1.642-1.017.813-.192 1.493.015 2.99.646 3.358.66 1.434.075 1.732-.03 1.638.312 5.484 1.227 6.52 1.643.64.27 5.13 2.38.87.525.446.464 1.562 2.127.482.34.509.112 1.599-.022.46.062 1.638.823.655.193.6-.012.95-.214 2.26-.969M489.964 513.281l-7.294-4.21-3.19-.96-5.44-2.34-3.815-2.403-4.629-1.5-7.442-3.302-2.314-5.643.5-5.524-2.689-5.042-3.94-2.702-5.44-11.497-3.878-12.338-.25-1.921 13.883-26.837-2.564-7.144-4.315-6.365-23.082-10.738M378.15 299.788l-.526-2.456-.491-1.364-1.157-2.83-1.665-4.706-2.744-8.594-.868-3.333-.93-6.898-.399-1.058-2.027-3.329-.224-.694-1.08-6.823-.253-1.614-.02-3.036-.109-.521-.614-1.57-1.45-2.89-.848-1.286-.122-.42-.117-1.626-.836-9.533-.165-.93-.695-1.922-.485-1.786-.36-1.652-.914-5.306-1.356-6.981-1.169-5.298-1.924-9.152M353.086 191.206l.72 1.561.218.879.258.923.313 2.012v3.212l.007 2.387M378.15 299.788l-10.02-6.421-4.701-3.051M332.183 285.713l6.104 1.922 2.202.528 2.801-1.008 6.605-5.67 1.1-.143.851.96 1.25 2.018 10.333 5.996M438.516 262.359l-7.05 14.054-26.506 54.625M466.894 134.314l.772.225.854.57 2.572 3.521 3.028 4.953.281.182.39.073 3.744-.134 2.228.053 2 .406 3.206 1.05 3.815 1.637M440.613 131.942l17.791 1.673 8.49.699M474.636 129.742l-.596 4.914-7.146-.342M445.534 115.67l-.136.45-4.785 15.822" clip-path="url(#pad86487cc9)" style="fill:none;stroke:#000"/><path d="m440.893 158.045-1.841-6.669-.777-4.97.05-2.818.182-3.329.295-1.194.222-.908 1.282-5.197.18-.599.127-.42M505.005 222.087l.528-.233 1.238-1.347 4.128-4.455 8.572-8.847 4.904-4.954.873-.626 2.725-1.118 3.471-1.877 4.026-2.192 1.782-.631 1.54-.24 4.738-.63.657-.2 1.93-.671.849-.41.461-.634.489-1.13.422-.348 2.502-1.123 2.18-1.557 3.753-2.792 1.93-1.16.4-.522.304-.705.567-2.74.11-1.032-.051-.676-.852-2.308M587.527 293.596l-1.055-2.027-7.052-11.048-4.526-7.574-6.34-10.74-1.306-1.952-.375-.38-1.035-.832-1.893-1.678-.324-.42-.032-.337.086-.296 2.104-1.671 4.874-3.888 6.555-5.15 4.026-2.927.618-.638 1.915-3.708 1.337-3.115.437-.616.425-.362.951-.719.38-.51.644-1.058M452.76 354.66l-37.498 2.108M587.527 293.596l-.77 1.133-.551.413-1.822.916-2.259.72-3.783.819-5.422 1.065-2.583.563-3.401 1.329-2.611 1.403-2.26 1.403-1.532.759-3.729 1.876-12.93 6.23-8.568 4.278-5.183 2.184-2.111.844-.602.098-.805-.131-8.107-3.693-13.923-6.56-9.092-4.353-.762-.12-1.005.026-.914.229-4.827 3.261-4.187 2.976-8.083 5.592-5.645 3.873-.891.495-5.5 1.952-4.307 1.55-.524.416-.34.48-.688 3.682-5.05 25.357M454.218 231.834l.489.025.602.038.766-.158 4.002-2.011 1.18-.338 10.281-2.289 8.794-1.974 9.593-2.064 9.963-1.772.79-.045.922.131 2.855.753.55-.043" clip-path="url(#pad86487cc9)" style="fill:none;stroke:#000"/><path d="m434.474 296.903 28.56-29.991 29.689-32.334 1.844.171 4.998-5.313-.237-1.828 5.677-5.521M399.598 361.47l3.098 1.409 1.874.798M453.237 231.784l.98.05M451.097 196.322l1.796 6.658 1.448 5.918.711 4.27.585 3.496-.126 3.694-.128 3.773-.899 3.428-.952 3.637-.295.588M438.516 262.359l2.525-5.034 7.685-15.67 4.51-9.87M350.518 497.124l-.204-1.108M338.68 492.383l1.171-.127M302.554 400.375l-.055.795-.102 1.599-.438 1.463-1 1.689-.454.705-.383 1.163-3.463 6.425-2.596 4.84-2.29 2.312-.758.353-.884.172-5.222-1.996-5.73-2.004-1.36-.57-1.189-1.089-.75-.637-2.197-.398-.602.075-4.16 2.446-1.875.594-5.457.9-7.13.375-1.406.24-2.377.961-2.033.87-.86.09-.875-.344-2.283-1.066-3.064-.09M316.602 383.954l-7.544 9.711-2.174 3.437-1.86 1.501-1.892 1.314-.578.458" clip-path="url(#pad86487cc9)" style="fill:none;stroke:#000"/><path d="m187.588 382.438 1.54-.158.938-.706 2.252-2.814.93-.758 3.573-.706 3.487-1.05 2.51-1.449 2.61-2.176 1.266-.766 2.04-.645 5.082-1.531 2.103-.496 4.44-.03 3.706-.555 7.864-.991 3.894-.727 1.977-.504 1.314.218 2.463-.105 2.125-.18.923.292 6.176 5.374 5.973 6.23 4.862 4.765 2.072 1.817 1 1.635 1.048 1.441 1.267.984 2.165 1.448 1.368 1.014.993 1.208 1.063 1.058 1.826 1.235.41.04.72-.517 1.195-.45 2.588.307 3.784 1.397 5.925 2.281 3.01 1.47 2.58 1.217 2.048.322 4.237-.232 1.619-.27M326.175 374.294l-.649.58M316.158 366.861l9.473 7.065.544.368M333.516 378.389l-1.2-.372-3.269-1.389-2.872-2.334M233.322 490.197l4.549-5.244 1.93-2.296.43-.788.978-2.724.664-2.057.172-1.23-.055-.946-.515-2.101-.665-2.071-.915-1.224-1.492-1.816-.9-1.313-.758-1.186-.469-1.921-.141-1.741-.406-1.426-.219-1.276.11-3.797-.189-.81-.922-1.187-2.454-1.65M289.256 630.138l1.509-.404 3.408-.134 8.99-.645 3.22-.526 12.368-.9 8.209-.27 17.746-1.321 5.253-.375.516.075.297.172.852.66.297.068.399-.038 3.542-1.237 1.391-.188 5.777-.023 1.173-.007.36-.053.218-.165 3.542-5.912 2.564-4.532M315.293 532.07l4.193 2.441 13.462 6.379 7.348 3.451.501.18.954.196 17.98 2.311 12.977 1.681 8.99 1.006 1.283.21 1.438.675 1.125.54 4.379 1.006M315.293 532.07l2.701-20.187M123.781 616.003l10.616-.165.626-.09.328-.255.595-1.733.195-.308 1.696-1.591 1.024-1.268 1.376-2.1 2.01-1.816 2.915-1.682 2.674-1.546 3.463-2.55.665-.203.727.052 3.611 1.509 6.364 2.536 7.13 3.744 1.649 1.186 1.086.893.657.337 3.322.383.634-.09.43-.495 1.485-1.464 2.744-1.65 3.666-2.072 3.167-.907 1.212-.143 5.284-.173 2.65-.082 2.01.353 5.003.787 2.712.406 1.439.518 4.698 2.903 1.353 1.156.594.36 2.454.983 2.643.976.711.405 5.801 5.043 3.447 2.633M237.198 520.899l-.715.383-4.976 1.358-9.146 2.476-6.895.765-1.689.42-1.125.421-.923.27-5.113-.21-1.298.21-3.908 1.186-3.424 1.47-.813.166-3.206.855-.266.33-.109.3-.328 4.383M237.198 520.899l-1.047 1.966-.485 1.08-1.5 5.959.046.885.453.796 5.645 8.029.907 1.681.453 1.456.954 3.527 3.408 7.324 1.048 2.476.578.495.641.255 4.472.436M340.194 468.219l-2.552-.739M251.67 208.953l18.347-1.909 6.582-.525 3.205-.556 1.5.36 2.354.931.735.458.75 1.817v1.066l-1.133 2.297-2.173 2.77-.625 1.26-.548 2.147-1.345 1.201-1.485 1.11-.907 1.758.313 1.17 1.36.931 2.705.976 2.44 1.907 2.908 1.276 2.047 1.606 2.08.886h1.188l1.588-.038 1.133.45 1.329-.044 3.533-.556 2.69-.878 2.08-.15 1.75.57 4.503 2.417 1.845 2.312 2.252 2.282L316 239.44l2.032.075 2.174.66.797-.345.895-.72" clip-path="url(#pad86487cc9)" style="fill:none;stroke:#000"/><path d="m320.72 233.996.548-.169.703.226.919.3.997.263.625.469.234.357v.375l-.332.788-.625 1.013-.664.582-.939.431-.288.48M254.288 151.233l.922.984 14.548 4.144.376.938-7.92 19.232-7.919 19.141-1.962 6.823-.663 6.458M348.087 336.437l-.012-.615.344-1.2.196-.841-.595-2.132-1.946-5.816-2.275-4.924-.368-1.178-.062-1.449-.407-1.591-.555-1.509-.578-.413-.993-.247-.883-.849-4.706-4.78-5.207-4.947M254.288 151.233l-13.118-30.987-.72-.578-8.411-4.805-1.313-.247-3.409.54-3.737 1.141-.836.826-1.064 2.38-.437 2.394-.727.391-2.142-.923-7.685-3.912-5.558-2.89-3.049-.87-3.995-.113-7.966.165-.75.555-.774 2.793-2.166 9.631-2.392 12.236-2.283 9.189-3.299 8.587.235 1.546.641 2.132.938.66 10.07.03M362.607 110.915l1.658 1.186 20.67 14.263 31.13 21.544 13.57 9.353 1.251.54M440.893 158.045l-8.678-.063-1.329-.18" clip-path="url(#pad86487cc9)" style="fill:none;stroke:#000"/><path d="m400.85 171.252 2.684-5.459 1.369.057 1.368.743 1.309-1.2-2.261-1.886.536-.856 17.552-4.914 7.48.065M445.093 174.027l-.51-1.895-1.774-6.56-.342-1.3-.808-3.451-.766-2.776M333.516 378.389l5.373 1.662 5.978 1.955M336.91 387.91l.541-.294 2.893-2.042 1.766-.074.876-.406 1.88-3.088M336.91 387.91l-5.479 2.978-4.986 3.323M316.602 383.954l-.008.397-1.314 1.69-.969 1.545.61 1.276-.594 3.227-1.377 2.597-.328 2.446-.688 1.366.532.736 9.193 2.086.595-.12.97-.885 2.782-5.014.439-1.09" clip-path="url(#pad86487cc9)" style="fill:none;stroke:#000"/><path d="m330.15 387.15.14 1.847-.312 1.306-1.142 1.666-2.11 1.546-.281.696M318.196 382.133l-1.243 1.37-.35.451M330.15 387.15l6.76.76M325.526 374.874l2.747 2.22.688.87.438 3.153.75 6.034M318.196 382.133l3.378-3.726 3.952-3.533M358.572 477.851l-2.869 2.13M347.598 475.56l1.35 2.07M353.486 458.933l-.842-.536-.85-.716M343.048 456.541l-6.64-3.18M343.048 456.541l-.742 1.5M322.112 453.997l18.104 3.292 2.09.752M320.988 453.793l-.883-.16-5.43-.986-1.144-.142-4.21-.786-1.532-.028-.61.2-.49.714-.164.585M320.988 453.793l1.124.204M320.988 453.793l.173.668M321.161 454.46l.951-.463M318.886 458.688l1.1-1.6.506-1.184.67-1.443M352.493 437.424l-6.703-1.774M337.775 376.2h-2.082l-1.388 1.13-.789 1.059M315.288 382.581l1.03-.626 1.878.178M323.205 315.566l.416 1.37 1.13 2.8-1.04 5.227-.744 4.112.714 3.37.09 7.113-2.321 8.683-3.154 10.595-2.138 8.025M341.79 336.247l1.45.24 3.102-.432 1.745.382M417.442 224.623l-1.648 3.7-3.403 10.329-.35 6.34.95 3.027 3.403 5.188 2.802 2.69 19.32 6.462M417.442 224.623l3.858.755M397.688 213.41l.895-.171 8.555-2.018 3.903-.865 5.053 1.537 2.201 1.922 2.102 4.18-2.955 6.628M433.405 227.746l-12.105-2.368M395.83 213.767l1.858-.356M423.649 222.03l-1.201 1.297-1.148 2.051M397.688 213.41l.695 3.48M451.097 196.322l23.24-21.902 1.488 1.428 1.666 2.457 5.117 2.742 9.46 3.37 1.19 2.229-11.364 15.025-23.145 27.708-4.531 2.455" clip-path="url(#pad86487cc9)" style="fill:none;stroke:#000"/><path d="m445.093 174.027 5.447 20.23.557 2.065" clip-path="url(#pad86487cc9)" style="fill:none;stroke:#000"/><path d="m400.85 171.252 23.033 4.367 4.997.857 3.035-.514 13.178-1.935M400.85 171.252l-.767-.146-8.15-.286-4.464-.285M400.85 171.252l-2.314 5.053-2.796 2.171M409.841 112.545l4.106-7.028 8.686-7.484 2.38-.971 5.89.228 4.94 3.37 3.093 3.143 6.598 11.868M415.262 356.768l.075 2.772-.418 3.303-.325.178-.372.09h-.744M317.994 511.883l-.605-.146-.332-.42-.248-.637-.36-.425" clip-path="url(#pad86487cc9)" style="fill:none;stroke:#000"/></g><g id="PatchCollection_1"><path d="m319.877 381.222-5.316 6.064.782 1.26-.156 1.262-.532 2.07-1.407 2.883-.657 3.902 9.194 2.192 1.625-2.882.032-2.702.406-1.891.907-2.492 1.407-2.221.47-1.231-.282-7.295-2.345-1.231-1.658 1.981zM588.098 605.783l5.347 3.677 1.048-2.026-3.91-1.365-2.204-.781zM571.009 595.743l.25 2.957 3.471 2.206 2.064-4.818-2.783-1.425zM617.57 599.96l3.377 1.861 6.317-8.314.625-2.731 1.095-3.722-4.222 3.752-1.313 2.611-3.22 3.062z" clip-path="url(#pad86487cc9)" style="fill:#00f;fill-opacity:.8"/></g><g id="PatchCollection_2"><path d="m325.443 266.147.25 6.004 6.38 4.924 5.003 10.028 4.69-.18 6.88-5.104-7.255-6.245-2.064-7.385zM260.901 303.436l6.504 16.692 10.257 12.009 14.26-10.928-11.133-19.935-6.379-.72zM262.903 178.175l-7.505 18.976-1.126 6.485-1.563 3.543 23.077-1.56 2.752-27.444-6.317-1.322zM325.818 210.662l2.627 6.546 6.254 4.203-.25 5.404 1.501 3.003 11.695-2.702 1.939-3.964 1.438-17.054.563-5.464-7.067 4.143-10.507 3.483zM523.884 631.416l-.562 9.063 3.439-4.622.063 7.264-3.94.18-4.879-2.401 7.318 10.084-9.444 3.722 5.816 5.343 7.693-4.923 7.567 11.405 12.758 5.463 4.941 6.122 10.632-6.783-.875-4.021-7.693 2.82-2.814-2.82 1.751-6.423 12.383 2.46 1.814 11.886 1.375 13.686 9.632 1.86 3.19-2.64v-4.203l-8.944-4.021 2.376-1.98 6.568-.901-5.942-16.927-2.501-.3-4.941-6.724-4.753-.06-2.502-2.88.313-8.225-3.502.9-1.564-3.24-3.94.78-2.69 5.042-7.191 1.14-3.44-4.141 1.5-4.863-6.504 1.08-3.502-6.962-6.567-1.321z" clip-path="url(#pad86487cc9)" style="fill:#006400;fill-opacity:.8"/></g><g id="PatchCollection_3"><path d="m376.301 390.614-2.305 4.767 5.582 2.688 2.338-4.882zM376.064 374.9l2.543 1.165-2.211 4.448-2.543-1.164zM363.141 396.014l4.19 1.652-1.376 3.182-4.159-1.741zM360.302 474.452l-2.18 1.41.854 1.16zM354.16 433.116l-.35-.068-.579 1.966zM356.939 418.988l2.464.5-.142 1.366-2.63-.546zM359.791 419.963l.494.098-.47.896z" clip-path="url(#pad86487cc9)" style="fill:green;fill-opacity:.8"/></g><path id="PatchCollection_4" d="m413.955 389.794 3.437 1.445-2.184 4.79-3.437-1.446z" clip-path="url(#pad86487cc9)" style="fill:#90ee90;fill-opacity:.8"/><g id="PatchCollection_5"><path d="m189.106 382.451 2.173.655 2.893 3.669 2.861 1.554 13.337 3.969 11.007 5.163-1.688 2.582-1.455 7.38-.922 1.386-2.627.66-1.5-.66-3.315 4.263-.939 2.882-12.758-1.321-2.877-3.362-4.127-2.702-1-3.002-6.505.48-6.63-5.043-1.25.12-.188-3.002 1.313-1.741 2.924-3.128 3.768-6.178 2.486-.727 3.08-2.456 1.188-.3zM151.144 390.617l4.816.9 4.69 1.681 5.004-24.736-9.944-6.425-3.19 4.023-8.38 6.124 5.8 12.363zM164.277 478.393l2.174-1.207 24.64-2.701 1.94 2.28.328 6.13.86 3.116-.172 1.928-2.814 4.502-.376 1.921.563 2.282-1.5 2.16-25.517 3.063-1.064-6.544.751-3.242-.829-9.672 1.08-2.335zM199.05 474.31h1.751l8.224-.48 3.471.36.25 2.402-1.063 1.08-4.127.9v3.663l-3.065-.18-2.001-.78-4.128-.06z" clip-path="url(#pad86487cc9)" style="fill:#006400;fill-opacity:.8"/></g><path id="PatchCollection_6" d="m358.526 501.206.564-1.62 2.142-7.173 2.689-9.261 1.126-4.067 1.47-5.741 2.315.18.75-2.161-1.375-.72 1.125-2.763-1.876-.9-1.72.773-2.77-.287-1.841 2.682-4.091-1.495-3.784-2.056-1.68-.81-3.047-1.442 1.61-20.72 3.154 1.387 4.738-9.485 16.26 7.084 2.24-4.63 2.639.548-4.578-21.92 2.514-5.158.988.294 2.376-4.563 7.643-.354 3.552-7.211 13.134 6.004 4.252-9.066 6.892 3.368 5.429-11.113-7.16-3.39 7.394-14.9-25.3-10.584 1.551-3.308-4.74.178 4.865-10.146-21.877-12.843-6.38 9.907 2.065 1.381-4.628 8.346-2.314-1.14-2.736 3.557-3.518-2.897-3.44-1.44-1.188 2.22 1.939 1.081 3.49 5.939 2.576-3.477 3.49 2.426-.988 1.777 1.938 1.14 1.114-1.987 1.263.907-3.628 5.584 3.128.36-3.315 5.283-5.378-1.74-1.189 2.641 6.867 2.936-.363.727-1.5-.72-1.064 2.4 1.439.841-.688 1.802-2.69-.961-2.439 5.284-5.878-.42-1.877 4.022-2.563-.96-1.377 2.4 3.252 1.262-1.263 2.456 3.065 1.38-1.05 2.108-1.252-.24-.625 1.26 1.375.42-3.376 7.926-6.63-.3-5.253 27.198 5.94 1.861 6.055-6.55 4.378 1.2-.613 6.07-9.568 18.012 1.8 1.075-20.063 40.89 10.007 11.047 3.875-8.4 4.055-8.087 7.755 10.357 1.939-4.443z" clip-path="url(#pad86487cc9)" style="fill:#d3d3d3;fill-opacity:.8"/><g id="PatchCollection_7"><path d="m411.86 381.739.986.456-.268.532-.986-.456zM378.407 393.868l.611.244.804-1.634-.532-.261z" clip-path="url(#pad86487cc9)" style="fill:#a9a9a9;fill-opacity:.8"/></g></g></g><defs><clipPath id="pad86487cc9"><path d="M106.094 86.4h525.811v554.4H106.094z"/></clipPath></defs></svg>