<svg xmlns="http://www.w3.org/2000/svg" xmlns:xlink="http://www.w3.org/1999/xlink" width="960" height="960" viewBox="0 0 720 720"><defs><style>*{stroke-linejoin:round;stroke-linecap:butt}</style></defs><g id="figure_1"><path id="patch_1" d="M0 720h720V0H0z" style="fill:#fff"/><g id="axes_1"><path id="patch_2" d="M90 627.482h558V99.718H90z" style="fill:#fff"/><g id="LineCollection_1"><path d="m402.433 359.062.071-.515M402.433 359.062l-4.573-.374M401.218 364.3l.408-.593.13-.61.677-4.035M368.132 584.214l-1.756-.356-2.654-.401-2.572-.057-9.394.693-4.958-.008M299.114 563.813l2.152 2.511 3.342 3.146 13.627 11.33 1.024.508 1.386.318 26.153 2.46M360.636 589.123l-.865-.538-1.848-.736-3.196-.929-7.93-2.835M242.283 522.355l-.245.606M261.661 524.767 244.8 522.89l-2.516-.536M254.112 494.408v.333l-.79 2.3-1.784 2.796-1.395 2.463-.707 1.65-.808 2.216-1.027 4.134-1.845 4.927-3.473 7.128M264.888 475.318l.47-1.709M273.293 497.844l-6.525-11.505-.803-1.838-.637-1.703-.488-1.795-.163-1.403-.039-1.174.084-1.618.166-1.49M254.112 494.408v-2.877l-.402-4.394.228-2.193.753-1.455 2.512-2.533 3.887-2.741 3.798-2.897M404.748 347.58l1.53.259M404.748 347.58l-1.033 3.798M402.148 333.755l1.477 7.023.468 1.995.45 2.757.188 1.259.017.791M433.604 357.126l-.608 1.637-.41 1.847-.116 1.293M432.228 367.111l-.182-1.802.424-3.406" clip-path="url(#pcdc71de7eb)" style="fill:none;stroke:#000"/><path d="m413.26 359.856 8.088.95 2.62.309 3.21.495 2.982.278 2.31.015M435.775 361.174l-2.365.522-.94.207M490.937 376.103l.678.62M484.343 382.151l2.005-1.994.945-1.171.335-.63 1.264-.632 1.509-.39.536-1.231M480.791 369.275l4.519 3.04 5.627 3.788M437.388 360.818l2.136-.47 5.713-1.676 5.726-1.415.9-.137.958-.083M437.374 354.923l.706.4.85.388.852.249 9.443.338 1.814.268 1.782.47M456.893 358.744l-3.21-1.456-.862-.251M400.33 339.6l1.15-3.696.668-2.149M401.465 330.217l.344 1.614.339 1.924M381.833 341.037l-7.105-2.077-3.312-.58-.2.164-1.462 3.004" clip-path="url(#pcdc71de7eb)" style="fill:none;stroke:#000"/><path d="m380.548 345.423-6.25-1.6-2.342-.725-2.202-1.55M353.721 328.579l3.564 2.87 3.791 3.525 3.383 2.825 5.295 3.749M397.157 349.764l1.283-4.088M397.157 349.764l1.65.397M397.157 349.764l-4.065-.971M397.157 349.764l-.47 1.297M403.715 351.378l-4.907-1.217M403.715 351.378l-.193 1.066M390.168 357.089l4.062 1.171M390.168 357.089l2.924-8.296M390.168 357.089l-1.07 3.95M394.23 358.26l-1.271 3.136M394.23 358.26l2.457-7.2M397.86 358.688l-1.923-.155-1.707-.273M379.542 373.284l1.794-4.485M379.734 378.14l.785-2.231.013-.781-.99-1.844M374.053 378.28l2.378-2.17 1.817-1.31 1.012-1.185.282-.331M374.053 378.28l-1.698 1.545M378.705 380.985l-2.488-1.121-1.19-.713-.974-.871M367.796 386.688l2.854 1.52M367.796 386.688l-.64 1.272M367.796 386.688l3.067-4.839M325.981 411.9l29.522-3.434M278.983 458.407l11.192-11.296 5.8-6.691 15.369-16.45 4.641-4.894 3.597-3.836 1.885-1.747.88-.55 1.392-.653 2.242-.39" clip-path="url(#pcdc71de7eb)" style="fill:none;stroke:#000"/><path d="m324.276 403.601.265.556 1.44 7.744M208.353 280.495l1.788-.297 1.745-.234M208.353 280.495l.517 2.252M206.95 269.024l.052 2.48.837 3.575.514 5.416M208.87 282.747l1.163-.425 4.877-.996M225.123 272.496l-2.217-2.125-5.112 4.827-1.787 1.988-1.278 1.653.181 2.487M215.461 286.179l-.257-1.33-.022-2.251-.272-1.272M208.87 282.747l1.648 5.238M208.299 288.796l-.03-.324-.702-2.192-.624-.826-1.006-.961-.761-1.066M215.461 286.179l1.551-.567 3.169-1.741M215.461 286.179l-1.382.505M214.079 286.684l.284.693M214.079 286.684l-3.561 1.301M215.042 287.121l-.68.256M214.363 287.377l-3.613 1.357M210.518 287.985l.232.75M210.518 287.985l-2.22.811M209.795 289.093l-1.378.428-.118-.725M209.795 289.093l.955-.359" clip-path="url(#pcdc71de7eb)" style="fill:none;stroke:#000"/><path d="m226.527 305.242-.649-1.73-2.68-5.405-1.86-3.184-.487-1.14-.518-.692-1.25-.6-1.857.21-3.078 1.711-1.188 1.022-1.493.09-1.188-.6-.945-1.382-.365-1.232.274-1.592.552-1.625M234.098 312.714l-1.313-1.245M205.33 318.932l3.424.202 3.625-.6 1.433.33 3.564.06 1.288-.3 1.26-.704 1.504-1.098 2.407-.871 4.54-.871 4.235-1.863 1.488-.503M270.025 302.615l-35.374 9.912-.553.187M353.721 328.579l-2.264-1.728-.483-.515-.67-.716-3.994-4.545M288.466 297.4l3.25-.731 1.89.15 13.649 4.385 27.116 8.98 3.778 1.622 1.736 1.261 6.425 8.008" clip-path="url(#pcdc71de7eb)" style="fill:none;stroke:#000"/><path d="m344.073 304.949.523 1.093.724 3.795.985 2.277.508 1.73.17 3.309-.673 3.922M401.465 330.217l-1.05.52M401.465 330.217l-.092-1.837M395.108 335.677l1.338-1.71 1.764-2.03 2.205-1.2" clip-path="url(#pcdc71de7eb)" style="fill:none;stroke:#000"/><path d="m399.515 339.03.351-1.607.549-6.686M395.108 335.677l-2.946 7.833M395.108 335.677l2.41 1.959M386.132 340.645l2.014-1.297 5.723-3.022 1.239-.65M397.518 337.636l-2.494 6.861M397.518 337.636l1.997 1.394M399.515 339.03l.815.57M400.33 339.6l-1.89 6.076M386.132 340.645l-1.128.496M392.162 343.51l-5.04-1.74-.646-.382-.344-.743M381.833 341.037l-1.285 4.386M385.004 341.14l-.273.12-1.486.213-1.412-.436M392.162 343.51l2.862.987M395.024 344.497l3.416 1.18M380.548 345.423l1.297.367M406.278 347.839l3.757.63M406.278 347.839l-.837 3.374M410.035 348.47l-.425 3.307M410.035 348.47l7.256.949M417.29 349.419l-.008-1.84M417.29 349.419l-.064 2.698M398.808 350.16l-.123 1.384M396.687 351.06l1.998.484M405.441 351.213l2.994.426M405.441 351.213l-.376 1.467M398.685 351.544l-.02.199M408.435 351.639l1.175.138M408.435 351.639l-.254 1.52M409.61 351.777l7.616.34M420.642 352.386l-2.231-.206-1.185-.063M420.642 352.386l2.959.315M418.885 355.365l.71-.658.841-1.02.138-.65.068-.651M403.522 352.444l1.543.236M402.504 358.547l.818-4.605.109-.814.09-.684M405.065 352.68l3.116.48M408.18 353.16l-.733 5.99M434.896 353.577l-.119.606M434.896 353.577l-1.887-.295-3.233-.287M434.896 353.577l1.07.55M418.885 355.365l-1.415 1.13M433.604 357.126l-1.426-.288-2.674-.316-9.004-.817-1.615-.34M434.777 354.183l-.343 1.01-.83 1.933M397.86 358.688l-.67 5.448M398.666 351.743l-.118 1.244-.688 5.7M407.447 359.15l-1.252 5.602M407.447 359.15l4.819.585M402.504 358.547l4.324.527.619.075M413.26 359.856l4.21-3.362M413.26 359.856l-.994-.121M392.025 362.282l.429-.357.505-.53" clip-path="url(#pcdc71de7eb)" style="fill:none;stroke:#000"/><path d="m397.19 364.136-1.142-.446-3.09-2.294M396.218 367.185l.498-.926.474-2.123M401.218 364.3l-1.486-.015-2.542-.15M363.595 364.16l5.306 1.031M402.2 374.211l.123-1.79-.129-1.444-.817-3.229-.51-1.325-.08-.429.091-.88.188-.557.152-.257M406.195 364.752l-4.694-.436-.283-.016M406.195 364.752l2.112.149M405.42 368.68l.172-.976.603-2.952M369.32 371.304l-.546-3.345-.091-1.442.218-1.326" clip-path="url(#pcdc71de7eb)" style="fill:none;stroke:#000"/><path d="m373.62 366.517-1.327-.63-3.392-.696M395.445 368.62l.773-1.435M434.818 371.256l-1.584-2.283-1.006-1.862M431.986 371.843l-2.617-3.916.092-.304 2.767-.512M377.031 368.754l4.305.045M373.183 370.153l2.477-.783 1.371-.616M373.62 366.517l.821.39 2.178 1.412.412.435M388.627 363.643l-2.06.372-.581.11-1.023.49-.626.429-1.012.896-.988.962-1.001 1.897M484.343 382.151l-.427-.486-1.292-3.27-1.833-9.12M456.893 358.744l6.265 3.02 5.405 1.99 6.458 2.086 2.267 1.106 3.503 2.329M369.52 371.245l2.997-.893M369.52 371.245l-.2.06M371.425 378.785l-1.234-4.625-.67-2.915M434.818 371.256l2.383 2.282M434.818 371.256l-2.832.587M363.625 372.81l3.58-.872 2.116-.634M379.734 378.14l-.751 2.075M395.64 383.976l-8.2-2.61-3.809-1.352-3.897-1.873M372.355 379.825l5.733 2.665M370.863 381.85l.918-1.502.574-.523M378.705 380.985l.278-.77M378.705 380.985l-.617 1.505M370.863 381.85l6.44 2.558M484.343 382.151l2.25 2.559M378.088 382.49l-.093.227M395.64 383.976l-4.753 5.046" clip-path="url(#pcdc71de7eb)" style="fill:none;stroke:#000"/><path d="m396.814 382.648-.718.825-.457.503M377.303 384.408l.692-1.691M377.303 384.408l-.487 1.532M377.303 384.408l2.717 1.274M577.352 497.678l-4.866-2.637-3.375-2.36-4.137-3.27-7.841-8.6-2.176-1.848-3.512-2.187-5.601-2.697-7.67-4.523-2.564-2.634-2.477-3.037-6.27-12.89-1.895-3.142-9.695-13.782-4.287-3.59-3.77-4.48-1.724-2.782-.474-1.72-.28-2.23-.56-3.207-.819-2.442-1.874-3.8-4.175-6.308-.496-2.697-1.228-1.911-2.37-3.016-2.219-4.056-4.404-7.122" clip-path="url(#pcdc71de7eb)" style="fill:none;stroke:#000"/><path d="m497.805 385.298-7.807-.737-3.405.149M461.839 393.006l6.205-1.119 4.395-1.125 2.327-1.21 2.025-1.317 2.736-1.975 1.982-.638 5.084-.912M491.615 376.723l.9.822 5.29 7.753M543.288 402.83l-6.099 1.01-1.92.062-2.05-.214-3.467-1.098-17.036-7.296-2.567-1.099-6.063-2.811-1.723-1.252-2.236-2.11-1.991-2.24-.331-.484M372.246 385.339l-1.596 2.869M376.816 385.94l-2.087 4.439M386.875 392.33l-1.407-1.075-7.168-4.403-1.484-.912M370.65 388.208l4.079 2.17M374.729 390.379l-.455.842M374.274 391.22l-1.547 2.861M374.274 391.22l2.608 1.554M386.875 392.33l-1.863 1.225M390.887 389.022l-2.05 1.916-1.962 1.391M376.882 392.774l-2.15 4.795M381.784 396.033l-.581-.663-1.828-1.111-2.493-1.485M371.749 395.811l.978-1.73M371.749 395.811l-1.093 1.865M371.749 395.811l2.983 1.758M381.784 396.033l-.972.824M381.784 396.033l3.228-2.478M380.812 396.857l-5.155 4.202M386.34 399.302l-2.676-.984-2.269-1.024-.583-.437M374.732 397.57l.677.397M370.656 397.676l5.001 3.383M363.053 407.576l4.897-6.29 2.315-2.943.39-.667M388.259 399.852l-.452 1.996M388.259 399.852l6.485 1.762M388.259 399.852l-.209-.06M375.657 401.059l-.621.538M385.763 401.627l-.837-.058-8.042-.443-1.129.209-.72.262" clip-path="url(#pcdc71de7eb)" style="fill:none;stroke:#000"/><path d="m363.053 407.576 2.579-.304 1.34-.361 1.094-.535 3.56-2.241 3.41-2.538M394.744 401.614l.043 1.657M394.86 399.186l.093.24-.21 2.188M394.787 403.27l-4.558-.928-.91-.186-1.512-.308M385.763 401.627l.73.05 1.314.17M394.787 403.27l4.375.964M399.162 404.234l2.03.446M399.3 411.633l-1.266-1.805 1.128-5.594M401.191 404.68l-1.89 6.953M401.191 404.68l2.198.595M403.39 405.275l-.999 3.66M403.39 405.275l1.947.382M407.573 400.474l-2.408 2.43-.884 1.144-.892 1.227M363.053 407.576l-7.55.89M363.053 407.576l-.105-.93M425.362 410.257l-1.203-.185M438.297 394.76l-2.595 2.714-1.57 1.517-3.793 4.805-.609 1.787-.686 1.097-1.446.9-.945.976-1.29 1.701M440.361 414.737l-3.857-1.019-7.075-2.738-4.067-.723M400.745 413.845l-.584-.792-.86-1.42M400.745 413.845l1.646-4.91M400.745 413.845l.173.185M440.361 414.737l9.957 4.255M443.85 413.964l-1.421.646-2.068.127M581.71 500.338l-.293-.561-.64-.509-3.425-1.59M571.77 475.056l3.657-.493.604-.224.905-.58 1.382-1.184.235-.115.377.126.17.315.939 2.713.2 1.738-.193 2.041-.731 3.51-.524 4.071-.277 1.271-.704 2.087.03 1.249-.373 1.354-.077 1.036.031 3.013-.07.694M615.893 536.324l-1.817-1.913-1.363-1.032-1.447-.903-2.903-1.563-2.602-1.602-1.501-1.054-2.233-1.806-3.719-3.317-3.04-3.042-1.933-2.254-3.049-2.99-1.162-1.245-.609-.979-.562-1.222-.731-.91-1.94-1.791-.816-1.191-2.102-4.69-.655-2.482" clip-path="url(#pcdc71de7eb)" style="fill:none;stroke:#000"/><path d="m592.68 499.283-6.228.137-2.256.182-1.124.288-1.363.448M393.092 348.793l-9.275-2.444M392.025 362.282l-.747-.444-2.18-.798" clip-path="url(#pcdc71de7eb)" style="fill:none;stroke:#000"/><path d="m388.627 363.643.087-.79.055-.515.33-1.298M390.464 363.144l.509-.198.646-.408.406-.256M388.627 363.643l1.837-.5M574.241 397.626l-19.7 3.327M603.897 392.619l-1.741 1.74-1.617 1.359-1.952 1.168-1.674.723-1.684.4-1.426.069-15.68-.731-1.635.021-2.247.258M573.872 394.848l.247.911.122 1.867M229.127 600.142l-.6 2.444-.232 2.185-.054 1.533.062 1.442M288.75 261.634l2.894-3.705.8-.799 1.897-1.516.943-.536.728-.242 1.2-.131 3.352.232 1.344-.06 5.947-.607 3.557-.95 1.723-.354 1.374-.222 4.522-.344 1.456-.233 1.435-.374 1.436-.657 1.148-.677 2.153-1.586 1.292-1.062 2.789-3.305.43-.324 1.313-.454 2.891-.577 1.302-.364 1.057-.495 2.737-1.567 5.609-3.588 1.691-1 1.805-.91 2.512-1.122 2.573-1.365 1.186-.94M386.073 285.078l-17.04-20.371-1.277-1.67-.834-1.25-.869-1.992-.712-2.095-5.366-18.6-.483-1.415-.517-1.252-1.18-2.071-.948-1.377-1.001-1.185M339.378 201.908l6.188 15.814.679 1.537.79 1.557 1.548 2.223.78.809.392.486 1.843 2.273 4.248 5.193M400.142 308.893l-2.76.7M391.962 292.608l.31.532 1.337 3.3 2.237 7.201.658 2.552.342 1.323.467 1.81.07.267M401.075 323.508l-.483-4.99-.759-2.486-.634-1.372-.553-1.194-1.086-3.264-.178-.609M401.373 328.38l-.262-4.49-.036-.382" clip-path="url(#pcdc71de7eb)" style="fill:none;stroke:#000"/><path d="m440.676 283.557-3.296 9.38-.253.923-.406 1.887-.29.958-1.248 3.187-2.03 6.561-.333 1.672-3.436 8.763-.494.7-.623.686-.971.615-2.204 1.072-1.775.907-.966.494-1.943 1.115-.536.1h-.841l-10.412-1.401-2.552-.157-1.624.043-.826.271-.827.5-1 .758-.715.917M385.004 341.14l-1.187 5.21M383.817 346.35l-1.972-.56M427.56 358.428l-9.482-1.043-.608-.89M412.64 367.905l-.812-5.174.438-2.996M398.666 351.743l2.229.496M396.814 382.648l6.148 2.63M402.2 374.211l-.098.812-.344 1.259-.358.838-1.102 1.529-3.484 4M400.267 395.588l.087-.946-.266-2.143-.042-1.07.154-1.497.4-.9.37-.566 1.333-1.273.235-.475.424-1.44M402.2 374.211l1.784.722.667 5.014-1.69 5.33M423.6 352.701l2.857.44 3.294.43M429.776 352.995l-3.382-.276-2.793-.018M429.776 352.995l-.025.576M429.75 353.571l5.027.612M435.965 354.126l1.409.797M435.965 354.126l-1.188.057M388.057 397.356l.002-.543-.174-1.057-.29-.43-.624-.486-1.96-1.285M384.636 396.634l3.42.937M388.057 397.356l6.802 1.83M388.057 397.356v.215M388.056 397.57l-.006 2.222M395.442 396.644l-.185 1.457-.398 1.085M386.34 399.302l1.71.49M386.34 399.302l-.577 2.325M400.267 395.588l.012 1.685.275.171 6.134 2.344.885.686M424.02 410.05l.063-.93-.174-.528-.478-.229-4.786-1.887-4.393-1.529-1.45-.6-2.552-1.6-1.015-.53-.856-.686-.806-1.057M405.337 405.657l-1.028 3.787M405.337 405.657l1.786.433M407.123 406.09l-.961 3.749M411.009 407.032l-1.371-.332-2.515-.61M411.009 407.032l2.893.697M411.009 407.032l-1.136 3.836M413.902 407.73l-.984 4.022M413.902 407.73l2.57.634M402.391 408.934l1.918.51M404.309 409.444l1.853.395M402.393 415.948l.172-.234.482-1.831 1.262-4.44M406.162 409.839l.735.204M424.02 410.05l.139.022" clip-path="url(#pcdc71de7eb)" style="fill:none;stroke:#000"/><path d="m416.471 408.364 6.689 1.553.86.133M409.873 410.868l3.045.884M409.873 410.868l-2.976-.825M407.541 417.957l.506-1.887.487-1.251 1.34-3.951M412.918 411.752l-.077.87M406.318 421.288l1.223-3.331M406.318 421.288l-2.248-3.033M411.643 426.805l-1.364-1.2-1.566-1.087-.84-.858-1.555-2.372M412.63 428.94l-.219-.557-.768-1.578" clip-path="url(#pcdc71de7eb)" style="fill:none;stroke:#000"/><path d="m413.615 426.725-.812.186-1.16-.106M372.517 370.352l.666-.199M372.517 370.352l.637 3.203M373.154 373.555l2.457.097M373.154 373.555l.388 1.946M377.995 382.717l2.634 1.321M365.609 390.45l7.118 3.631M355.542 401.732l.517-.747 6.214-7.115 3.336-3.42M367.156 387.96l-1.11 1.969-.437.521M355.425 407.692l-.556-4.604.267-.768.406-.588" clip-path="url(#pcdc71de7eb)" style="fill:none;stroke:#000"/><path d="m362.948 406.646-.169-1.494-.247-.314-1.422-.067-.944-.202-.881-.344-1.58-.94-2.163-1.553M324.006 403.037l.27.564M291.565 363.19l3.973-1.579 1.047-.79 5.697-2.731 1.633-.698 2.556-1.306 3.11.091 1.355.395 1.293.88-.092 1.033-.339 1.062.34 1.154.77 1.457 2.555 1.852 1.14 3.065.307 5.13.924 4.19 2.218 3.34 2.525 4.492 1.91 16.727-.481 2.083" clip-path="url(#pcdc71de7eb)" style="fill:none;stroke:#000"/><path d="m292.058 370.081 1.401 1.518 1.802 2.23 21.095 26.609.524.333 4.835-.333.738.273 1.553 2.326M355.503 408.466l-.078-.774M420.216 421.982l1.312-4.684-.116-.986.102-1.044.261-1.114.478-1.287.726-1 .87-.873.29-.714.02-.208M407.541 417.957l12.675 4.025M420.216 421.982l-.92 3.263M421.538 432.197l-1.097-2.95-1.146-4.002M413.615 426.725l1.595-.557 3.393-.614.692-.31M412.63 428.94l.39-1.757.595-.458M412.63 428.94l.082 2.623M414.906 435.172l-.773-1.28-.986-1.315-.435-1.014M397.488 508.906l.847-3.802.477-1.715 2.88-9.54.269-1.874.177-6.86-.13-8.393.407-5.198.8-7.198.324-4.072.34-2.14 3.372-14.662.504-1.677.865-1.505.944-1.416 2.46-4.466.688-2.825M421.63 434.85l.102-.629v-1.215l-.194-.809" clip-path="url(#pcdc71de7eb)" style="fill:none;stroke:#000"/><path d="m414.906 435.172 3.396-1.732 1.74-.985 1.496-.258M419.223 440.853l.058-.743.71-1.815 1.421-2.487.218-.958" clip-path="url(#pcdc71de7eb)" style="fill:none;stroke:#000"/><path d="m416.192 437.694 3.93-1.858 1.508-.986M414.906 435.172l1.286 2.522M419.223 440.853l-.551-.7-1.203-.886-1.277-1.573M464.561 509.763l-3.91-12.78-2.81-8.506-.743-2.558-1.667-6.738-.516-1.184-1.294-1.344-10.574-9.786-22.446-22.583-.9-1.115-.217-.501-.261-1.815M158.472 461.254l1.33-1.298 3.88-5.618.454-1" clip-path="url(#pcdc71de7eb)" style="fill:none;stroke:#000"/><path d="m159.831 464.352-.712-1.36-.647-1.738M141.642 437.88l1.895 2.328 6.479 6.53 2.954 3.38.918 1.153 1.033 1.833 1.166 3.957.818 1.539 1.44 2.316.127.338M159.831 464.352l.354.312" clip-path="url(#pcdc71de7eb)" style="fill:none;stroke:#000"/><path d="m140.042 461.295 2.039.248 2.895.508 9.883.927 1.758.299 1.668.418 1.546.657M271.38 465.825l7.603-7.418M265.359 473.61l.355-1.178.573-1.055.957-1.22.964-1.009 3.172-3.323" clip-path="url(#pcdc71de7eb)" style="fill:none;stroke:#000"/><path d="m259.438 463.821 2.024.272 9.918 1.732M293.22 546.576l.387-.332.261-.5.37-1.76 1.401-13.008 2.464-20.975.462-1.1.462-1.033-.616-5.918-.185-3.491-.246-1.154.03-2.58-.461-1.389-.586-1.13-1.031-1.913-4.466-4.614-2.279-1.548-1.047-.486-3.14-3.035-6.868-4.857-2.526-.88-4.557-1.245-3.634-.212-2.056.193M619.827 539.45l-1.463-.888-2.471-2.238M613.19 542.19l.593-1.192.4-1.753.455-1.2.616-.963.639-.758M629.992 545.534l-1.423-.55-2.463-1.542-1.689-1.335-1.044-.826-1.267-.769-2.279-1.062M618.21 546.583l.608-1.958.447-1.89.17-1.327.392-1.958M637.27 549.095l-2.733-1.736-4.545-1.825M190.987 318.088l14.344.844M181.85 356.98l1.604-6.974 2.05-9.538 1.473-4.791 2.006-9.055 2.004-8.534M186.123 317.804l1.212.069 1.184.07 2.468.145M138.782 447.06l.361-4.34.277-1.12.422-1.071.665-1.152 1.135-1.497M140.042 461.295l1.652-7.04.876-3.8-.299-.77-3.489-2.625M179.237 449.066l2.985.187M177.3 463.808l-.968-.137-1.136-.192-.524-.334.037-.274 3.846-11.966.682-1.84" clip-path="url(#pcdc71de7eb)" style="fill:none;stroke:#000"/><path d="m201.964 433.259-14.304 3.408-.955.258-.462.956-.523.122-.647-.79-4.111-6.192-.554-.136-.878.075-1.309.835-.816 1.093-.755.622-5.297 1.169-.63.41-.555 1.032-.046 1.366.924 3.961.153 1.488-.323.85-1.093.728-.755.638-.646 1.001-.047.38 3.665.865 1.817.759 2.233.577 3.187.332M182.222 449.253l4.43.498M179.626 456.388l2.092-6.456.504-.679M183.01 457.491l2.127-6.337.344-.656.322-.362.849-.385M209.714 458.658l-15.572-6.646-4.11-1.169-3.38-1.092M179.626 456.388l3.384 1.103M177.3 463.808l.86-2.835 1.466-4.585M183.01 457.491l-2.671 7.123M201.964 433.259l3.47 12.323 2.497 10.021.803 1.78.98 1.275M223.292 465.932l-.875-.38-7.82-4.038-4.883-2.856M133.93 459.86l2.876.921 3.236.514M177.3 463.808l-2.858 7.073M177.3 463.808l3.039.806M180.339 464.614l-2.616 6.977M223.292 465.932l3.153-.398M177.723 471.591l.76.162 7.184 2.284 1.836.385 2.869.362 3.374-.113 1.928-.204 17.075-6.312 2.227-.746 2.823-.679 5.493-.798M177.723 471.591l-2.683-.472-.598-.238M160.185 464.664l.222.196 1.69 1.122 1.789.386 2.593.792 2.64.928 1.997 1.063 1.996 1.199 1.33.53M612.604 330.789l.155 1.327.088 1.848.536 2.775.358 1.683v.845l-.078.715-.436 1.46-.327 1.052-.094.762.117 1.874.366 2.86.725 2.312.702 1.73 2.346 4.027 1.724 2.736.717 1.429 2.954 5.556 1.27 1.936M632.152 376.308l-6.928-6.986-1.496-1.606M603.897 392.619l7.658-7.654 1.373-1.206 1.697-1.287 1.984-.967 12.363-3.964 1.658-.572 1.522-.66M168.74 154.508l3.13 1.815 1.227.868 6.793 3.345 3.65 1.078 1.756.606 2.95 1.49M192.436 166.133l-.258-.412-2.655-1.478-1.277-.533M202.283 143.874l-5.759 6.194-2.956 3.552-.831.546-1.078 1.488-.616 1.033-2.797 7.023" clip-path="url(#pcdc71de7eb)" style="fill:none;stroke:#000"/><path d="m190.86 170.504.2-.81 1.302-2.495.135-.497-.061-.569M210.228 148.975l-2.987 6.376-1.355 1.79-.893.881-.924.698-1.663 1.002-1.54 1.336-.985 1.184-.924 1.58-.862 1.062-2.279 2.307-.246.152-.277.03-1.017-.85-1.84-.39M187.689 193.088l.286-3.61 1.72-11.68 1.164-7.294" clip-path="url(#pcdc71de7eb)" style="fill:none;stroke:#000"/><path d="m215.399 176.634.025-.654-.21-.497-.282-.242-1.168-.376-2.936-.496-6.058-.812-1.278-.097-1.23.06-1.486-.072-1.806-.194-2.15-.557-5.96-2.193M210.809 189.873l.597-3.62.454-1.503 1.008-2.083 2.175-5.028.356-1.005M227.196 171.35l-7.299-2.701h-.462l-.646.97-1.756 4.16-1.634 2.855M210.352 194.566l.144-2.426.313-2.267M233.646 193.472l-.24-1.758-.184-.472-.245-.218-.578-.157-5.776-.134-15.814-.86M210.352 194.566l-1.827-.38-1.803-.084-2.653.805-1.31.168-1.87-.185-3.333-.537-1.666-.15-4.217-.017-2.092-.252-1.275-.435-.617-.411" clip-path="url(#pcdc71de7eb)" style="fill:none;stroke:#000"/><path d="m210.352 194.566 1.846.374 1.973-.184 2.245-.084 10.118.184 3.255-.49 3.857-.894M241.495 193.853l-.813-.354-2.092-.62-1.666-.135-3.278.728M241.495 193.853l2.367.953 2.313.185 3.962.586M339.378 201.908l-2.139.643-1.479.201-7.007-.284-1.836.134-2.55.57-3.232 1.34-1.428.353-3.555.77-2.788.47-2.194.269-2.687.788-.867.15-5.476-.72-5.238.402-2.33-.1-7.227-2.6-1.751-.502-10.782-2.095-6.819-.84-1.718-.468-1.07-.738-1.837-1.878-1.463-.905-1.683-.319-10.085-.972M227.196 171.35l2.771 2.4 3.049 3.005 1.324 1.002 2.74 2.095.678.91.74.486 1.94.668 1.539.729 1.57.243.555.182.893.637.77.699.554.698.43 1.002 1.602 5.95 1.786 3.521M206.95 269.024v-2.088l.732-3.479.54-3.048.744-2.139.462-.948.552-.71 1.27-.758.937-.683.449-.835.32-1.113 3.08-3.884.796-.468.937-.354.629-.696.68-1.1 1.13-2.695.718-1.949 2.753-5.144 1.309-3.516.77-3.467.23-2.555.488-1.266 5.647-6.3.333-.91.129-1.797-.257-2.303.41-2.353.334-3.643.59-1.974 1.181-2.201 1.386-3.948 1.13-1.796 2.258-3.163 1.878-1.888M285.397 298.194l-.49-5.371-.129-3.492.052-3.466.128-1.796 2.564-17.374.895-4.391.333-.67" clip-path="url(#pcdc71de7eb)" style="fill:none;stroke:#000"/><path d="m232.785 311.47 3.608-3.455 1.823-3.214 2.156-2.15 4.825-3.669 2.002-1.138 1.951-1.62 1.976-2.58 2.361-1.848 1.207-1.442 1.565-1.113 5.57-2.53 2.798-1.569 2.181-1.593 2.105-2.43.385-1.72.462-.91 1.668-2.304 1.694-1.328 5.069-5.01 4.26-3.238 4.98-4.162 1.32-.813M188.453 260.664l4.05 1.442 3.964 1.32 2.348.691 4.358.63 1.178.53 1.132.867.8 1.32.668 1.56M285.397 298.194l3.069-.794M270.025 302.615l9.063-2.492 6.309-1.929M226.527 305.242l.174.464 6.084 5.763M560.287 146.184l1.097-3.513.578-1.878.83-2.457.228-.674.181-.653.096-.592.011-.983-.29-2.054M553.208 158.178l.354-.744.68-.913.432-.453.245-.307.791-1.44.8-1.585 3.042-5 .323-.629.412-.923" clip-path="url(#pcdc71de7eb)" style="fill:none;stroke:#000"/><path d="m605.9 151.825-.955-1.662-.716-.479-.793-.417-.663-.16-.9-.197-.955-.28-2.544-.665-.732-.186-.558-.394-.631-.554-.416-.171-.512-.08-.581-.357-.527-.356-.59-.039-.58.115-.605.026-.731-.08-.798-.072-.604.11-.496.285-.855.626-.412.224-.416-.023-.465-.17-.805-.38-.731-.118-.958-.097-.936-.07-.581-.023-.508-.12-.669-.308-.521-.076-.855.106-.733.112-.799.336-.512.27-.589.234-.574.115-1.535.041-.645.078-.483.082-1.68.444-.78.19-.562.088-.456-.054-.383-.03-.468.065-.398.116-.29.002-.332-.087-.745-.256-.597-.11-.839.068-.943.137-.789.174-.627.133-.524.061-.916.026-.322-.041-.294-.072-.454-.194-.447-.296-.916-.699-.425-.233-.33-.13-.373-.076-.254-.093M612.604 330.789l-.165-1.412-.617-2.065-.695-2.478-.739-1.239-1.334-1.044-5.49-3.836-1.787-1.184-.826-.924-.485-.478-1.268-.86-1.786-.749-3.286-1.12-3.032-1.13-2.91-.891-1.974-.696-.573-.032-1.213.097-.562-.108-1.301-.62-2.393-1.032-1.555-.457-2.734-.478-1.775-.402-.661-.272-.64-.532-.617-.674-.915-1.511-.772-1.826-.64-1.586-.198-.685-.232-3.022-.22-.912-.606-1.86-.54-1.173-.552-1.423-.198-.772.044-.989.198-3.685.254-4.956-.022-1.75-.133-1.51-.507-3.837-.44-2.76-.221-1.11-.1-.803-.077-.816-.143-1.575-.254-3.359-.2-2.108-.265-1.583-.49-1.675-.406-1.173-.662-1.11-1.444-2.607-.639-1.218-.254-.608-.099-.533.077-.913.463-2.087 1.015-5.858.187-1.109.198-1.663.386-2.543.739-3.64.65-3.023.243-.988.342-.946.661-1.88.695-1.674.452-1.544.419-1.423.066-.772-.165-.805-.287-.717-.143-.554.099-.337.342-.717.154-.577.022-.934.033-3.293.044-1.098.067-.479.253-.412.728-.718.904-1.456.44-1.109-.065-.935-.309-1.108-.695-1.967-.407-.805-.298-.467-.507-.467-.397-.337-.684-.425-.672-.304-.375-.185-.32-.38-.243-.696-1.168-3.434-.728-3.12-.215-1.34v-.796l.282-1.418.462-2.53-.09-1.062-.462-.874-.695-.802-1.632-1.738-2.699-2.383-1.457-1.305-.691-.763-.504-.813-.54-1.286-.303-1.374-.878-5.98-.878-6.498-.069-2.884-.016-.402-.076-.478v-.835" clip-path="url(#pcdc71de7eb)" style="fill:none;stroke:#000"/><path d="m474.83 240.446.092-.456 4.126-6.193 4.958-5.738 3.142-2.641 4.127-3.127 5.543-3.643 7.792-4.918 5.112-4.797 17.4-17.79 1.17-1.488.955-1.64.246-.698v-.759l-.31-1.447-.485-1.647-.158-1.12.115-3.028.193-1.495-.112-.547-.53-1.332-.04-.482.39-2.603-.093-2.193-.785-1.936.004-1.74.117-.275.287-.243.402-.182.74.315.582.114.96-.156.646-.334.5.068 1.544.832.554.546.708.474 1.074.053.948-.072.63-.223.774-.43.778-.6 1.806-1.274.535-.137.43-.007.647-.008.493-.19.324-.38.207-.508.928-1.23.739-.74.859-.261 1.62-.315.382-.209 1.27-.956.831-.604.439-.414 1.04-1.028.277-.201.45-.175.535-.045.47-.015M123.476 472.617l.82-1.262 1.34-1.064 2.02-1.124 1.54-.71.66-.827.2-1.302.58-1.577 3.294-4.891M272.502 505.1l-.842-.458-1.023-1.25-1.533-3.323-1.369-3.405-1.144-1.692-.978-.727" clip-path="url(#pcdc71de7eb)" style="fill:none;stroke:#000"/><path d="m254.112 494.408 3.547-.503 4.455-.403 1.963.16 1.536.583" clip-path="url(#pcdc71de7eb)" style="fill:none;stroke:#000"/><path d="m261.661 524.767.846-6.287 3.106-24.235M193.458 520.235l-1.539-.878-.175-.29.062-.179.505-.178 31.113-12.074 23.484-9.286 7.204-2.942M288.744 527.85l-.77-3.281-.61-1.797-.796-1.675-13.275-23.253M272.502 505.1l.103-.89.688-6.366M272.502 505.1l-2.388 20.607M261.661 524.767l8.453.94M261.661 524.767l-1.771 13.181M270.114 525.707l-2.072 17.754M270.114 525.707l17.26 2.021M287.374 527.728l-4.584 25.781M287.374 527.728l1.37.123M288.744 527.85l4.477 18.726M259.89 537.948l8.152 5.513M259.89 537.948l-1.731 12.865M268.042 543.46l-.985 8.34M282.79 553.51l-6.67-4.587-8.078-5.462M236.69 548.222l21.469 2.591M234.862 562.367l1.286-9.758.542-4.387M242.038 522.961l-1.117 2.754-1.386 4.355-.554 2.824-.314 4-1.456 8.558-.521 2.77M258.159 550.813l8.898.986M258.159 550.813l-3.537 26.025M267.057 551.8l-3.086 26.137M282.79 553.51l-5.007-.523-10.726-1.188M282.79 553.51l-4.954 26.095M282.79 553.51l12.594 1.565M299.114 563.813l-.466.193-.623-.231-7.292-5.062-7.943-5.204M295.384 555.075l-2.163-8.5M299.114 563.813l-.846-1.325-1.517-3.126-.425-1.025-.942-3.262M232.36 574.296l22.262 2.542M229.127 600.142l.356-2.7.367-4.554.793-7.369.5-6.138.34-1.973.877-3.112M234.862 562.367l-.254 3.256-.364 2.296-.652 2.416-1.232 3.961M254.622 576.838l9.349 1.1M254.622 576.838l-3.307 26.07M263.971 577.937l-3.094 26.07M263.971 577.937l13.865 1.668M263.971 577.937l-12.656 24.972M277.836 579.605l-4.685 25.812M360.636 589.123l-35.437-3.988-15.146-1.795-32.217-3.735M360.636 589.123l6.155 5.692M229.127 600.142l22.188 2.767M251.315 602.909l9.562 1.098M260.877 604.007l12.274 1.41M364.458 615.848l-70.344-8.024-20.963-2.407M377.462 617.332l-13.004-1.484M368.132 584.214l-1.34 10.6M364.458 615.848l1.242-11.101 1.091-9.932M160.185 464.664l-1.39 1.983-.826 1.363-1.868 4.282-.808 1.522-.323 1.38-.125 1.947.574 5.61.018 1.256-.144 1.504.216 1.169v2.194l.108 1.805-.054 1.504-.467 2.265-.305 4.106-1.007 1.443-.747 1.305-.438 1.104-.79 3.339-2.04 3.764.108.33 1.117.968.653.6.343.405.69.467 2.725.569.385.277.404.979.764 2.502.081.689-.108.516-.48.222-1.458.108-.48.171-.387.292-.718 1.132-1.064 2.647-1.17 1.62-1.87 1.597-3.5 2.14-.539.425-2.12 2.076-.574.657-.736 1.107-5.62 7.95-.932.937-.427.315-4.359 2.909-1.476.951M248.764 393.303l1.066 3.757M235.608 393.737l1.816-1.615 2.622-.969 4.676.734 3.276 1.087.766.33M263.394 397.143l-2.11-9.425-3.992 1.233-3.723 1.233-1.281.294-1.52 1.292-1.131 1.145-.873.388M235.608 393.737l.996 3.655M222.865 396.358l1.245-.448 2.86-1.88.745-.293 1.548-.03 1.013-.175 2.085-.53 1.847.324 1.4.411M209.642 396.154l1.63 6.509M193.068 401.105l.81-1.525 1.31-1.057 2.89-2.114 4.08-1.762 3.932-.206 3.552 1.713M222.865 396.358l-.959.344-3.783.47-2.174-.147-2.174-.47-2.324-.028-.923-.089-.886-.284M222.865 396.358l.972 3.182M249.83 397.06l5.499 23.861M249.83 397.06l13.564.083M249.83 397.06l-13.226.332M267.43 418.104l-1.924-10.477-2.112-10.484M236.604 397.392l-12.767 2.148M242.933 423.794l-4.297-18.465-2.032-7.937M223.837 399.54l6.408 27.195M211.273 402.663l9.293-2.526 3.27-.597" clip-path="url(#pcdc71de7eb)" style="fill:none;stroke:#000"/><path d="m179.179 368.68-2.28 10.955-.022 2.154.179 1.428 1.07 2.33 1.605 2.198 1.627 1.252 2.03.506 11.058.527 1.516.462 1.337.989.424 1.274-.022 1.297-.67 1.275-1.27 1.297-2.252 2.087-.513 1.494.072.9M195.742 411.14l-2.634-9.528-.04-.507M211.273 402.663l6.472 26.962M211.273 402.663l-15.531 8.478M201.964 433.259l-2.124-7.52-.97-3.439-2.2-7.8-.928-3.36M277.806 457.785l-6.024-23.875-4.054-14.726-.298-1.08M255.329 420.921l6.203-1.534 5.898-1.283M255.329 420.921l9.922 41.297M255.329 420.921l-12.396 2.873M242.933 423.794l-12.688 2.941M252.46 463.612l-3.37-13.274-6.157-26.544M230.245 426.735l-12.5 2.89M239.175 464.197l-1.938-8.568-6.992-28.894M217.745 429.625l8.7 35.91M217.745 429.625l-15.781 3.634M277.806 457.785l1.177.622M265.251 462.218l7.164-1.485 4.464-2.575.927-.373M259.438 463.821l.887-.514 4.926-1.09" clip-path="url(#pcdc71de7eb)" style="fill:none;stroke:#000"/><path d="m239.175 464.197 2.847-.225 10.438-.36M259.438 463.821l-1.585-.213-2.953-.08-2.44.084M226.445 465.534l4.489-.567 8.241-.77M154.988 114.321l-.774-1.908-.676-1.29-.393-1.255M160.465 115.135l-5.775-4.04-1.545-1.227M172.197 148.598l.225-.807-.757-2.037-5.462-10.226-2.108-3.47-.9-1.694-1.31-2.077-3.56-6.293-.9-2.703-.572-1.412-1.865-3.558" clip-path="url(#pcdc71de7eb)" style="fill:none;stroke:#000"/><path d="m124.212 139.889 1.7-4.121.617-.516 3.48.273.862-.121 1.509-1.64.8-.759 1.386-1.943.554-1.215.986-3.066.893-1.215.585-.91.37-1.458 1.262-3.643.34-.759.43-.546 1.016-.608 1.509-.485 3.08-.729 4.342-.79 2.925-1.548 2.13.231M160.465 115.135l-3.614-.725-1.19-.207-.673.118" clip-path="url(#pcdc71de7eb)" style="fill:none;stroke:#000"/><path d="m166.265 114.889-.45.528-.781.684-.68.143-.753-.143-1.866-.556-1.27-.41M168.74 154.508l.01-.72.153-.47 1.432-1.836 1.862-2.884M178.88 156.838l-.032-.364.77-3.704.216-1.852-.123-.941-.308-.213-2.187-.091-5.019-1.075M124.212 139.889l.588-.106 9.953-1.027 7.465-.799 1.794.314 5.7 1.768 2.17.97 7.986 4.792 2.546 2.282 1.736 1.968 3.154 3.31 1.435 1.147M207.717 361.276l7.678-31.374-.126-.706-1.306-1.246-4.802-3.487-1.474-1.288-.927-1.246-1.43-2.997M181.85 356.98l-2.671 11.7M181.85 356.98l25.867 4.296" clip-path="url(#pcdc71de7eb)" style="fill:none;stroke:#000"/><path d="m179.179 368.68 1.785.851 2.689.682 7.828 1.348.564.23 10.335 6.226.596.293.537-.235 4.204-16.8M256.4 361.492l-20.403 3.934-28.28-4.15M148.245 283.883l-.8-1.047-2.126-4.053-.573-2.067-1.528-2.07M133.663 263.733l5.17 4.528 4.385 6.386" clip-path="url(#pcdc71de7eb)" style="fill:none;stroke:#000"/><path d="m132.053 304.342-.003-2.527.285-16.47.061-2.269.1-.478.178-.342 8.5-5.79 2.044-1.82M147.76 246.204l.828.973 1.039 1.92.639.873 2.248 1.715.886 1.177.354.182 1.2-.069.994.35 2.248 1.335 1.901 1.617.57.387.832.341 1.778-.075.716.045.323.319.082.74-.185.288-.262.151-1.71.456-1.246.592-1.71 1.578-1.632 1.002-1.717 1.162-1.982.854-1.879 2.611-1.863 2.034-6.994 5.885M156.51 293.766l-1.783-1.55-3.264-3.597-2.248-2.625-.97-2.11M164.332 272.83l-2.756-1.063-.724-.06-.631.5-11.976 11.676M186.123 317.804l-3.048-1.18-1.817-1.563-2.663-3.005-1.356-2.095-1.108-.774-1.725-.835-1.031-.987-1.17-1.38-3.519-2.437-1.778-1.298-1.91-1.927-2.217-1.64-2.187-1.457-2.42-2.022-.813-.68-.851-.758" clip-path="url(#pcdc71de7eb)" style="fill:none;stroke:#000"/><path d="m132.053 304.342 14.56-5.629 4.019-1.912 5.878-3.035M158.021 316.047l-7.923-.45-1.209-.366-1.818-.917-9.417-6.35-5.601-3.622" clip-path="url(#pcdc71de7eb)" style="fill:none;stroke:#000"/><path d="m124.128 344.474-3.419-3.931-16.745-19.93-3.233-4.03 18.146-7.156 13.176-5.085M176.634 317.167l5.37.405 4.12.232M435.775 361.174l1.613-.356M437.374 354.923l-.802 1.497-.212.697-.585 4.057M437.388 360.818l.687-3.405M401.373 328.38l2.176-.084M390.784 364.86l-.09-.486-.23-1.23M391.08 366.445l-.296-1.585M390.784 364.86l1.598.94.802.47 3.034.915M378.983 380.215l2.456.964M381.845 345.79l-1.201 4.685M373.62 366.517l-.44 2.98.003.656M355.425 407.692l7.523-1.046M457.339 396.3l-3.694-1.964M459.375 394.029l-1.24.98-.796 1.292M443.85 413.964l1.337-.607 2.933-1.932 2.132-2.006 2.056-2.369 4.038-8.813.993-1.936M453.645 394.336l-4.618-4.024M447.671 393.486l.431.212 3.512.73 2.03-.092M439.723 382.205l7.733 6.739M437.201 373.538l1.852 1.892.294.692.102.78.03 2.853.127 1.265.117 1.185M438.297 394.76l.421-.44 1.28-2.552.457-2.102-.427-3.634-.305-3.827M198.372 140.261l2.525 2.186 1.386 1.427M210.228 148.975l-5.79-3.522-2.155-1.579M222.977 132.215l-1.601 1.427-.493.76-2.002 4.523-.616 1.093-.954 1.154-1.817 1.61-2.464 1.639-.8.88-.155-.121" clip-path="url(#pcdc71de7eb)" style="fill:none;stroke:#000"/><path d="m210.228 148.975.03-.334.678-1.913.431-.698.708-.85M227.196 171.35l-3.295-7.772-2.28-4.979-1.262-2.125-4.003-5.95-4.28-5.344M235.11 124.565l-1.447-2.369-2.526-.698-.77-.577-1.478-1.366-3.202-1.67-5.205-1.852" clip-path="url(#pcdc71de7eb)" style="fill:none;stroke:#000"/><path d="m222.977 132.215-4.188-5.92-.278-.91.031-1.155.432-2.246.492-.85 1.478-1.913-.462-3.188M235.11 124.565l2.648-.638M222.977 132.215l3.572-2.368 4.096-2.945 4.465-2.337M440.676 283.557l1.2-1.55 2.957-2.003 1.787-1.002 1.6-.273 5.852-.546 2.064-3.006 1.232-4.766 2.925-5.587 1.386-3.4.523-.607 2.403-1.882 1.632-1.791.585-1.002.462-2.034.616-2.46 1.016-1.942 5.236-8.653.677-.607M536.176 230.852l-7.36 1.154-2.371 1.184-.616.638-.555.303h-1.91l-4.68-.728-1.263-.577-.77-.182-1.263-.03-2.125-.243-1.355.06-.985.364-1.201.85-3.788 4.19-.555.76-.554 1.001-.739.91-1.047.73-.554.182-.678.06-.493-.09-4.958-1.762-2.587-.728-2.556-.577-2.463-.183h-2.772l-3.511.608-2.648-.243-.616.06-3.388 1.731-.986.152M440.676 283.557l-.524-1.033-1.17-6.072v-1.336l.431-2.52-.123-1.67-.709-3.764-.83-2.702-1.356-10.383-.954-7.377-.37-5.464-.216-13.905.062-3.643.739-3.219 1.694-5.1.708-3.46 2.864-8.35 4.773-15.361 1.04-4.21.119-.843-.016-2.539-.196-.85.058-1.01" clip-path="url(#pcdc71de7eb)" style="fill:none;stroke:#000"/><path d="m452.416 149.76-.235.596-.357.54-2.198 2.34-2.099 2.714-.48.827-.644 1.734-.157.874-.185 3.377.023 3.435-.08 2.413.133 1.067.563 1.123.562 1.42.084.743-.485 3.021-.161 1.67v1.093M463.545 156.675l.116 1.473.97 3.574.108.995.03 2.163.2.903.17.357.123.577-.061.31-.239.343-1.224 1.586-2.225 2.383-.262.19-.47.167-.439.113-4.174 1.021-.453.14-.796.388-.655.52-.97.812-.95.789-.802.626-1.077.66-.812.487-1.733.804-.812.372-.408.319M402.393 415.948l-1.475-1.918M402.393 415.948l1.677 2.307M404.07 418.255l.825-1.883 2.002-6.33M400.918 414.03l-.397 1.692-.6 1.336-4.328 10.82M395.442 396.644l-1.88-.608M398.729 395.075l-.37 2.388-2.917-.82M395.072 391.33l-2.71-1.032-1.475-1.276M412.84 412.623l-1.539 4.341M416.471 408.364l-1.32 4.73-2.31-.471M447.025 396.795l-8.728-2.034M447.025 396.795l.37-1.579M443.85 413.964l1.125-4.146.216-1.017.201-2.365 1.201-6.423.432-3.218M447.671 393.486l-.307 1.457.03.273M450.536 397.888l.339-1.79-.185-.153-3.296-.729M447.671 393.486l1.356-3.174M449.027 390.312l-1.57-1.368M448.534 386.563l-1.078 2.38M448.534 386.563l1.294-2.976M461.839 393.006l-.647-.795-4.22-2.004-4.989-2.824-3.45-.82M459.375 394.029l.935-.74 1.529-.283M431.986 371.843l-3.233.729M433.802 374.03l-.154-.365-1.662-1.822M426.011 375.973l7.791-1.943M436.214 376.3l-2.412-2.27M436.214 376.3l-10.112 2.292M437.201 373.538l-.678 2.489-.309.273M436.553 379.123l.062-.303-.154-2.126-.247-.394M454.61 364.21l.577-1.661 1.706-3.805M436.8 380.762l-.247-1.639M436.553 379.123l-10.39 2.182M370.036 389.326l-1.386-.577-1.494-.79M457.466 393.091l1.91.938M492.97 373.453l-1.724-.698M497.775 376.853l-2.864-2.277-1.94-1.123M491.615 376.723l.924-1.843.432-1.427M381.704 290.998l1.016 2.43M386.073 285.078l-5.17 3.704.801 2.216M387.647 286.96l-5.543 3.856-.4.182M386.073 285.078l1.574 1.882M387.647 286.96l1.575 1.883M382.72 293.428l6.502-4.585M390.746 290.665l-5.839 4.038-1.078.668-.185-.06-.215-.274-.37-.82-.339-.79M389.222 288.843l1.524 1.822M391.962 292.608l-.94-1.613-.276-.33M384.907 296.07l7.055-3.462M613.19 542.19l-.546 1.153-.378 1.138-1.531 5.449-.547 1.548-.046 2.147M613.19 542.19l-1.177-.16-1.086-.243-1.101-.402-1.17-.835-.924-.5-1.086-.357-1.247-.145-1.578.008-.932.16-.662.318-.6.532-2.934 4.264-.527.623-.32.208-.4.087-1.817-.238-1.247-.456-1.232-.717-.886-.675-1.2-1.154-.135-.212.023-.577.254-.733.154-.773.262-3.2M197.041 551.736l1.19.284 4.87 1.822 5.639 1.76 5.25 2.174 6.822 2.436 2.74.395 4.131.914 2.756.478 2.907.296 1.516.072M197.041 551.736l.73-.856 3.37-3.188 1.285-2.038.083-.374-.152-.536.089-.143 2.436-1.186 1.467-1.146 2.675-1.42 6.229-2.541 2.81-1.355.843-.334 1.51-.377.144-.108.132-.281-.088-.425-1.378-4.083-.073-.383.161-.288 4.662-1.727 15.26-5.304 2.802-.682M197.041 551.736l-3.524 5.152-.882.879-.948.58-.57.25-.516.1-2.123.01-.364-.255-1.016-1.21-.458-.268-.431.104-.24.338-.284.77-.12 1.01-.215.583-.315.418-1.151 1.055-.44.52-1.5 3.073-.308 1.23-.336 3.384-.203.846M150.604 241.485l-4.725 2.696M145.879 244.181l1.881 2.023M133.663 263.733l12.915-16.055 1.182-1.474M280.802 322.875l.277.47-.893 3.674M288.466 297.4l.128.688.184 3.355.123 6.04.016 4.737-.092 3.248.153 4.706-.03 3.794-2.972-.046-2.079-.622-3.095-.425M270.025 302.615l2.724 8.542 1.524 2.838 3.342 5.177 1.355 1.927 1.832 1.776M226.527 305.242l-7.671-2.995M347.599 336.248l3.126-3.34 2.325-3.08.671-1.25M158.021 316.047l-33.893 28.427M176.634 317.167l-2.26-.172-16.353-.948M124.128 344.474l8.14 9.709M132.269 354.183l22.578-18.755 21.787-18.261" clip-path="url(#pcdc71de7eb)" style="fill:none;stroke:#000"/><path d="m155.513 381.62-.778-.637-4.069-5.096-8.184-9.48-1.601-2.064-8.612-10.16M612.604 330.789l1.792-.45 3.542-4.462.216-.698.461-.88 1.078-1.154.185-.547-.185-2.732.123-.728.185-.455 2.094-2.641 3.018-4.25.431-1.458M166.265 114.889l1.592 1.146 1.694 3.34 1.2.728 1.294.243 1.632.547 2.248.182 1.848.729.647.485M544.125 402.693l-.837.137M544.125 402.693l10.417-1.74M558.165 454.317l-1.355-.091-.831-.85-.37-.88-.154-.698-.431-.972-.185-1.64.185-1.487-.955-1.032-.277-.182-.893-1.032-1.047-1.488-.308-.606-.37-.426-1.17-.759-.77-.637-1.601-1.791-.462-.85-.278-1.366v-.607l1.263-3.157.247-1.215.061-.88-.185-2.732-.893-3.491-.154-.213-.215-.85-.462-.971-.34-1.154-.276-.516v-.243l-.216-.364-1.91-5.555-1.076-2.547-.4-1.67.246-.621.94-1.139.739-1.487.538-.835-.185-1.882-.523-1.549.033-1.16M603.897 392.619l.213 1.561-.184 1.214-1.232 3.31-.21.91-.129 1.184v3.096l-.216 3.947-.118.425.031 3.278.247 1.063 1.047 2.428.149.608-.118 1.335-.13.212-.301 1.518.092.73 1.14.06 1.94-.395M543.288 402.83l.156-3.004.493-2.063-.678-2.369-.246-2.337-.986-3.552.062-.85-.124-.242-.122-6.133-.185-3.217-.124-9.047-.276-.85-4.127-3.734M554.542 400.953l4.024-7.441 1.386-2.307.339-.728.277-.334 1.693-3.187.616-3.431-.862-2.277M324.276 403.601l-.96.115-4.773 1.503M398.729 395.075l-3.751-1.27M398.729 395.075l1.538.513" clip-path="url(#pcdc71de7eb)" style="fill:none;stroke:#000"/></g><g id="PatchCollection_1"><path d="m136.888 380.463-.516-.245-.685-1.38.417-.147 1.192.704 1.31.441 1.132-.44 1.072-.881 1.757-.734.745-.03.804.5 2.89 2.495 2.382 1.644 2.652 1.939 1.042.352 1.191-.265.864.03 1.31.47.834.793.328 1.526.06 2.848-.358.47-.774-.411-.804.176-2.353-.235-2.621-1.057-1.073-.41-.982-.94-.864-.323-.924-1.233-1.042-.265-.715-.734-.655-.763-1.013-1.028-1.072-.5-1.996-.205-1.608-.733-.775-.882zM189.635 391.541l-2.085.44-1.817 1.058-1.46.792-.923-.381-.774.176-1.192.998-1.25 1.82-.805 3.935.566 1.644 1.132-.176 3.723-1.41 1.996-1.115 1.46-1.85.982-.793 1.698-.792 1.46-.587 1.132-.705 1.757-.558 1.072-.117.477-.382v-1.204l-.626-.969-1.072-.44-1.4-.177-1.49.265-1.012.44zM255.57 375.689l2.233 6.518v1.116l.685 1.527.209.998-.983.528-2.413.176-2.234.206-2.204.529-2.383-.118-1.549-.529-1.817-.557-4.14-.353-3.157.822-1.43.06-1.4-.06-.893-.146-.626.587-.447.323-1.787.704-1.28.264-1.163-.087-.774.47-1.131.499-1.669.117-2.025-.059-2.651.735-3.306 1.115-1.4.205-1.192.47-1.28.088-1.251-.234-.775-.411-.417-.382-1.4-.03-1.37.676-1.28.176-3.783.382-3.455.558-.656-.177-.536-.88-.298-.91v-.588l1.817-.147h2.204l1.222.176 1.727-.645 1.757-.5 1.847-.381 2.204-.206h1.996l1.549-.5 1.28-.234 1.4-.675 6.166-3.64 1.906-.647 3.604-.352 4.32-.323 3.127-.881 3.157-.851 2.353-.5 2.8-1.233 1.728-.03.804.206 1.936-.499 2.175-.352 1.965-.675.655-.5.775-.087.357-.236zM283.358 361.186l-.924.274-2.248 1.183-1.232 1.534-1.062.728-.462.5-.909 1.792-.77.592-1.2.577-2.14 1.7-1.386.88-.062.288.647.79.523.364.631.015 1.802-.592 3.11-2.216 2.125-1.685 1.725-.88 1.432-.941.893-.288 1.54-.122.277-.167.123-.273-.262-.835-.954-1.427z" clip-path="url(#pcdc71de7eb)" style="fill:#00f;fill-opacity:.8"/></g><g id="PatchCollection_2"><path d="m384.751 341.484-1.487.182 1.333.637zM397.293 349.98l-.312.965 1.545.379.123-1.037zM406.083 348.083l-1.102 4.395-1-.214-.109-.172-.029-.157.964-3.845.167-.122h.167z" clip-path="url(#pcdc71de7eb)" style="fill:green;fill-opacity:.8"/></g><g id="PatchCollection_3"><path d="m382.137 380.496 3.765 1.141-1.615 5.178-3.764-1.14zM396.481 399.596l-.447 1.96 3.136.696.448-1.96zM381.96 402.588l-.33 3.178 2.087.21.33-3.178zM368.821 395.13l-.811 1.233 1.722 1.102.811-1.232zM133.19 440.178l3.588.007-.009 4.978-3.588-.006zM368.932 401.9l-1.47.994.613.878 1.468-.994z" clip-path="url(#pcdc71de7eb)" style="fill:#90ee90;fill-opacity:.8"/></g><path id="PatchCollection_4" d="m376.667 401.609-.575 4.78 7.752.708.78-5.225-7.322-.435-.492.07z" clip-path="url(#pcdc71de7eb)" style="fill:#006400;fill-opacity:.8"/><g id="PatchCollection_5"><path d="m98.038 177.39 1.49-2.632 4.158 1.974h1.335l1.797.303h1.796l3.388-5.567 1.027-2.226.975-.253 2.874.607.103 1.417.565 1.62 4.569 1.366 7.545 5.01 6.315 1.417 4.825 1.872 1.694-.152.82-.658 1.13-.303 2.978.658 2.412-.05 3.645 1.67 5.184 2.023 2.824.456 10.523 6.123.462.961-.616 1.974-3.542 6.275-1.078 2.834-1.489 3.542-2.618 5.617-1.386 6.326-1.745 4.15 13.038 1.518 38.294 2.176 10.318 2.024 3.696 1.012.36-1.265 1.078-2.834 1.694-2.48 3.08-3.44 1.129-2.379-.411-.961-.051-4.049.923-5.567 1.643-2.276v1.618l.206 2.025.564.657.668 2.683.718 1.872 6.417 6.882 3.08 11.032 1.232 5.516-.205 3.137-1.438 3.745-.873.203-2.36.708-2.875.81-1.591-.76-5.288-1.67-2.72-.303-3.183-.911-2.156-.455-2.31.253-1.9.658-1.745 4.099-.513.86-1.746 1.062-.82.658-.72.81-.82.709-.976.556-.719.86-.05 1.063-.206 1.063-.77.759-.976.506-1.334.962-1.232-.153-3.747-.91-6.982-2.48-4.774-.91-5.39-.406-6.724-.96-.873 1.062 1.027 1.062 1.95 1.771-.667 1.468-3.285 2.429-3.183-1.417-5.236 6.123.206-1.417-2.054-4.099-2.894-1.361-3.009-1.726-3.131-2.277-1.9-2.53-1.437-2.378-2.259-1.518-1.488-3.037.462-2.277-1.54-2.125-2.105-3.543-2.31-.81-2.104-2.378-.462-2.125-3.542-2.277-3.645-.203-2.464.76-1.077.404-3.065 1.736-2.469-.121-2.834.713-7.587 9.185-5.092-4.276-8.367-7.389-6.211-2.985-2.618-2.53-1.694-.456-2.002-1.316-1.386-1.569-10.472-6.123-.718-1.163.41-1.57 12.217-22.063 2.529-5.102zM156.44 371.864l-.43-1.078-.893-1.73-.278-.167-.308-.122-.97-.212-.308-.015-.585.197-.262.213-.292.212-1.062.592-.355.091-1.863.045-2.094-.91-.724-.425h-1.031l-.354-.137-.724-.364-1.093-1.245-.108-.319-.031-.303.246-.759.277-.182.324-.076.985.015.308-.03.293-.137.184-.273-.077-.319-.246-.213-1.878-.5-1.248-2.49.108-.91.216-.289 1.093-1.183.678-.228.554.334.215.227.2.258.247.228.292.152.339-.045.247-.198.97-1.882-1.247-2.05.107-.303.216-.212.277-.152.785-.486.154-.85-.123-1.017.647-1.806.97-.47.308-.061.97-.016 1.432.562 1.647.713 1.14.122 1.108-.319 2.587-1.199 1.694-.076 2.048-.03.585-.562.092-1.776.185-.804.247-.182.323-.091.308-.016.308.03.292.016.293.091.278.106.307.092.308.06.308.03.262-.136.185-.258.108-.304-2.202-3.642-.139-.38-.293-.895.016-1.124-.816-1.548-.878-.82-.924-.5-1.031-1.154-.031-.319.077-.35.184-.743.847-.668.262-.167.293-.045.477-.045.308.014 2.941 1.063 3.573 1.822.6-.29.77-1.228 1.878-2.02 1.447-2.321 1.232-3.81.94-.76.785-.196.324.045.461.394.324 1.018-.139 2.823-.462 2.793.262 2.823.986 3.066-.185 1.503-.231 1.26-.77 4.63-.062 3.824-.538 2.292-1.433 3.4-2.386 2.277-1.278 1.548-.57 1.002-1.64.069-1.879-.091-.43-1.184-.894-.03-.678 1.548-.092 2.367.092 1.518-1.17.516-2.186-.88-1.478-.82-.955.213-.462 1.244 1.232 2.247.893 3.278-.123.699zM133.877 386.289l-.841-.385-2.14-.152-.324-.091-.277-.212-.524-.44-.046-.32.016-1.032-.016-.303-.277-.562-3.603-2.626-2.171-2.717-2.864-2.17-2.88-1.29-1.755-.699-2.11-.151-.508-.395-.108-.319.031-.334.185-.258 1.062-.91.324-.122.308-.076 1.247-.136h.755l.338.03 1.109.425 3.896 1.578 2.54 1.094h.34l.322.014.616-.182.54-.379 1.293-.622 2.925-.213.355-.015.292-.167 1.124-1.002 1.062-.166.6.363.402.137.985.122.631-.03 1.71-.987 1.123-1.017.2-.228.201-.82-.016-.318-.308-1.594.047-.304.123-.303.246-.197 1.617.546 3.68 4.918 1.34 2.534-.108 1.336-1.825.98-3.696.88-2.432.88.184.547.801.364.12.602-1.132.441-1.31-.44-1.192-.705-.417.147.685 1.38.516.245-1.212 4.34z" clip-path="url(#pcdc71de7eb)" style="fill:#006400;fill-opacity:.8"/></g><path id="PatchCollection_6" d="m296.963 492.205.309-1.335-.031-2.702.338-1.852 2.171 3.545 3.142 5.813.015 1.153-.832 1.745-.138 1.67.416.834 2.17.881 1.88.88 1.2-.03 3.696-1.093 3.048-.243 2.65.122 1.447.455 3.356 1.882 12.811 7.68 4.65 3.005 2.434 1.063 1.139 1.457 3.572 6.677 2.618 4.22.616 2.064v2.398l-.062 3.551 1.602 7.224 2.556 3.825 1.817.455 2.217-.394 3.203-.972 2.618-.09 1.416-.638 1.694-1.851 1.725-1.093 4.25-.85 1.293-.698 1.478-2.004 2.094-6.253.893-6.283 2.28-18.03 1.585-12.628.354-3.75-.585-.105 2.439-2.269 1.91-.667 3.448 4.007 1.725 2.792-.43 1.215v1.335l.245 1.214-.678 1.093-.43 1.275.8.971 1.356.243 5.512.35 1.293 1.457 1.325.728 1.262 1.852.185.546-2.526.212-4.003-1.79-1.109 4.705 3.234 1.305 2.032 2.064-2.248.82-1.786 1.82-.954 1.276-1.94.637-.586.364-2.37 2.064-2.065 4.098-.83 2.823-.124 1.427-.37 1.275-.492.546 6.236 2.994 6.652-4.978 1.601-3.4-.061-1.336 1.91-1.942 2.524-.85.247-1.214-.062-1.275.616-1.396.986.667 1.786 1.822 1.047.728 2.032.607 2.402-1.639.247-1.214.923-1.518 1.047-.607.616.364.555 1.214.985 3.765 1.047.728 1.232-.182.062-1.275-.37-2.793-.061-2.185.8-1.215 3.82-2.732 5.419-.85 9.608 1.7-.246 2.307 7.083 1.7 8.376 1.032 1.232-1.518 2.402 2.49.431 3.293 1.14 1.973 1.016.941 1.663.668.647.03 7.268 2.732 1.817-.485 1.17-.547.616.091.523.335.308.545.093.638-.616 1.123-.647.395-3.819 1.427-1.108 1.062-.216.577.74.182 2.34.03 5.42-1.002.893-1.639.03-.667.925-1.852.43-.456.678-.303 4.897.06.647.213 1.17 1.548-.154.668-1.663 1.579-2.87 4.777-2.464-.03-.585-.03-.616-.062-1.878-.515-.616-.395-1.417-.121h-.616l-2.771 1.002-2.495 2.398-2.156 1.122-.554 1.943-32.582-7.528-4.781 73.952-11.016-2 2.154-68.478-5.82.88-5.635 16.24-.616-5.768-1.356-7.011-.154-3.096.678-2.61.832-1.58.43-3.338-14.504 7.983-2.587 1.244-3.264 4.129-4.682 4.128-2.74 3.885-1.047 1.7-.401.03-2.525-.729-2.433.881-2.956 2.398-1.109.182-3.45-.82-4.772-.425-1.54.183h-2.279l-4.589.971-5.666.759-5.451 1.062-3.696.79-7.73 1.062-2.894.789-3.911 2.398-1.57.273-3.85-.243-.986-.303-4.065-2.732-1.786-.668-2.34-.546-2.803-1.245-.493-.82-.03-.667.338-1.396-.4-1.154-1.724-2.337 13.857-11.23 6.067 4.43 4.342 2.793 3.45 1.062 2.679.426 4.404-.274 1.878-1.123 1.848-3.005.247-1.639-.093-6.648-4.157-12.323-2.28-7.042-2.71-2.52-4.526-2.793-5.852-3.005-2.864-.88-7.206-2.884-1.17.06-2.156 1.367-2.925 1.912-1.201.334-1.417-.668-1.509-.971-2.187.06-2.34.092.462-1.033-.616-5.918-.185-3.491-.246-1.154.03-2.58-.461-1.389z" clip-path="url(#pcdc71de7eb)" style="fill:#90ee90;fill-opacity:.8"/><path id="PatchCollection_7" d="m207.334 294.772 2.5 1.254 2.563-1.72 4.222-2.528.216-2.676 3.038-1.55-.755-2.443 2.715-1.741-2.844-4.8-2.24.7.107-.997-1.292.17-.216-1.657-3.554-.064-.151-2.4-7.777-.828-.991 6.839.107 6.775 1.723.913-.064 5.415z" clip-path="url(#pcdc71de7eb)" style="fill:#d3d3d3;fill-opacity:.8"/><g id="PatchCollection_8"><path d="m380.943 341.903-.586 2.164-3.142-.834.578-2.14zm-1.812 1.15.958.234.264-1.046-.958-.235zM409.923 351.31l.467.022.089-1.766-.467-.023zM346.153 313.73l-.51-.3.244-.406.511.3zM345.35 313.82l.22-.364.596.35-.22.364zM344.426 315.02l.333-.551.894.524-.333.55zM347.683 303.696l-.552-.073.085-.615.552.074zM342.794 302.383l.55.04-.05.66-.549-.041zM339.9 303.37l.55.04-.042.575-.551-.04zM339.083 304.509l.836.06-.035.463-.835-.06zM337.343 305.093l.732.053-.047.629-.731-.054zM288.47 325.744l-.02-.745 1.108-.03.02.744zM279.262 325.896l.09-.384.695.156-.088.384zM277.677 326.093l1.016.228-.105.456-1.017-.228zM382.068 391.948l.415.228-.142.252-.415-.228zM389.81 388.305l.39.258-.239.352-.39-.259zM390.305 388.47l-.847-.482.185-.315.846.482zM389.966 387.377l.893.508-.175.3-.893-.509zM389.473 389.084l-.474.726-1.47-.934.474-.725zM405.764 410.91l-.278-.069.186-.727.278.069zM405.495 411.267l.667.166-.136.532-.667-.165zM403.958 411.097l.803.2-.06.232.133.033-.068.262-.934-.232zM400.69 412.193l.156-.58.307.079-.156.58zM402.076 407.442l.156-.58.306.08-.155.58zM402.462 406.107l.155-.581.307.08-.156.58zM402.277 406.76l.155-.581.307.08-.156.58zM401.476 409.53l.155-.582.307.08-.156.581zM401.861 408.194l.156-.58.306.079-.155.58zM401.676 408.846l.156-.58.306.08-.155.58zM401.284 410.213l.155-.581.307.08-.156.58zM401.099 410.865l.155-.58.307.08-.156.58zM400.898 411.548l.156-.58.306.08-.155.58zM401.32 406.6l-.295-.076.146-.547.295.077zM399.987 411.23l-.294-.077.146-.547.295.077zM400.219 410.585l-.295-.077.146-.546.294.076zM400.403 409.924l-.295-.077.147-.546.294.077zM400.58 409.272l-.295-.077.147-.546.295.076zM400.757 408.581l-.294-.077.146-.546.295.076zM400.957 407.905l-.295-.076.147-.547.295.077zM401.13 407.26l-.295-.076.146-.547.295.077zM402.823 402.267l-.62-.245.47-1.154.62.245zM164.763 272.837l.67.646-.487.49-.67-.645zM188.399 260.041l.239-.592.427.168-.239.592zM196.152 262.235l.309.108-.147.408-.31-.108zM195.605 261.848l.355.124-.24.665-.354-.124zM194.327 261.742l.358.124-.211.589-.359-.125zM193.92 262.25l-.365-.127.216-.6.363.127zM222.783 269.841l.557-.55.394.388-.558.55zM219.765 272.747l-.35-.45.361-.274.35.45zM220.627 273.574l-.37-.562.286-.182.37.561zM226.216 274.644l.408.388-.2.204-.408-.388zM226.41 274.03l-.955-.908.623-.637.955.906z" clip-path="url(#pcdc71de7eb)" style="fill:#a9a9a9;fill-opacity:.8"/></g><g id="PathCollection_1"><defs><path id="mfd5a39d159" d="M0 3a3 3 0 1 0 0-6 3 3 0 0 0 0 6z" style="stroke:#a9a9a9;stroke-opacity:.8"/></defs><g clip-path="url(#pcdc71de7eb)"><use xlink:href="#mfd5a39d159" x="407.268" y="354.939" style="fill:#a9a9a9;fill-opacity:.8;stroke:#a9a9a9;stroke-opacity:.8"/></g></g></g></g><defs><clipPath id="pcdc71de7eb"><path d="M90 99.718h558v527.763H90z"/></clipPath></defs></svg>