<svg xmlns="http://www.w3.org/2000/svg" xmlns:xlink="http://www.w3.org/1999/xlink" width="960" height="960" viewBox="0 0 720 720"><defs><style>*{stroke-linejoin:round;stroke-linecap:butt}</style></defs><g id="figure_1"><path id="patch_1" d="M0 720h720V0H0z" style="fill:#fff"/><g id="axes_1"><path id="patch_2" d="M90 618.26h558V108.94H90z" style="fill:#fff"/><g id="LineCollection_1"><path d="m620.226 468.875-9.465-4.133M346.06 361.284l3.354 9.31.104.534-.247 1.313M354.12 373.924l-1.107-.311-1.276-.425-2.466-.747M340.592 373.063l1.94-.317 2.856-.282 2.006-.087 1.877.064M346.06 361.284l3.235-.253M344.265 365.781l-.48-1.383-.754-1.835-.197-.654.032-.248.141-.201.302-.063 2.75-.113M349.295 361.03l.94 2.192M349.295 361.03l-2.202-5.331M354.12 373.924l1.382.212M353.931 372.775l.07.13.064.37.056.649M379.782 361.525l-2.892 1.513M374.23 357.472l2.153-.95.226-.072.27-.003.173.114 2.73 4.964M383.111 368.011l-1.868-3.551-1.46-2.935M355.386 376.095l-1.933-1.418-.532-.363-.393-.259-.453-.04-1.941-.157-2.844-.095-2.926.047-2.444.314" clip-path="url(#p5bdc11a835)" style="fill:none;stroke:#000"/><path d="m340.592 373.063-.017.92.123.139.131.066.122.008.97-.072" clip-path="url(#p5bdc11a835)" style="fill:none;stroke:#000"/><path d="m351.302 375.732-7.808.394h-.181l-.149-.075-1.244-1.927M283.174 379.71l1.15.267 1.281.19 1.337-.08 3.71-.466 42.833-5.633 2.765-.329 4.342-.596M340.248 369.983l-.057.112-.04.397.44 2.571M350.236 363.222l2.08 5.814M350.236 363.222l1.333-.565M357.273 359.85l-5.704 2.807M357.273 359.85l3.626 5.37M355.576 356.364l-.06.579.036.228.209.41 1.512 2.27M361.827 366.486l-1.167.77M361.827 366.486l2.868-1.78M361.827 366.486l2.362 4.017M361.827 366.486l-.928-1.265M353.499 371.85l-1.183-2.814M353.499 371.85l5.122-3.248M353.931 372.775l-.091-.185-.341-.74M354.812 354.926l.506-.126.226-.067.311-.094M355.386 376.095l3.203 2.342M355.386 376.095l.116-1.959M360.274 379.62l.553.39M360.274 379.62l2.262-.104M358.589 378.437l.733.541.952.642M217.98 332.57l.42.473 2.507 2.96 3.352 3.923 1.53 1.724 1.137 1.568.564.953.443 1.181.725 2.308.87 2.198 1.45 4.15.742 2.616.652 1.756 1.16 1.615 1.153 1.134.902.71 2.287 1.515 2.198 1.446 4.757 2.45 19.2 6.103 19.145 6.358M259.34 406.616l.523-1.568.314-.732.838-1.379 2.595-5.371 2.561-5.041.846-1.363.254-.366.512-.398 1.386-.693 5.084-2 2.731-1.135.508-.291.716-.717 1.572-1.93 3.394-3.921M107.965 211.213l2.4 1.452 10.942 6.176 1.192.74.999.599.741.52 8.67 7.861 5.253 5.23 1.676 1.513 2.53 2.978 4.907 5.222.362.402.543.39.54.445 3.96 4.411 6.293 6.64 1.442 1.41 3.65 3.955 5.1 5.34 4.496 4.553 4.794 5.144 12.641 13.253 5.052 5.18 1.224 1.236 2.176 2.269 1.394 1.685.363.575 1.877 5.498 1.144 2.836.177.937.145 2.528-.08 2.096.265 2.016.371 1.229.338.528 6.31 7.152 6.128 7.358M370.029 399.346l-1.773-4.966M370.029 399.346l-3.306-.527M366.17 409.86l.25-.279.681-1.792.299-.52.749-.693.451-.67 1.78-3.552.87-2.094.035-.204-.014-.214-.077-.157-1.165-.34M358.589 378.437l6.771-2.93M394.858 363.943l-9.263 3.186M445.363 284.894l-1.422 2.194-3.095 4.99-1.755 2.855-3.642 5.9-10.07 15.06-7.712 11.816-5.478 8.562-2.168 3.513-4.568 7.49-2.079 3.608-3.021 4.856-4.577 7.222-.4.494-.518.489M399.277 367.785l-.35-.232-.967-.843-.902-.847-1.21-.788-.176-.185-.814-.947M402.355 458.941l1.273.89.733.658.946 1.002M402.355 458.941l.552-.028.37-.139.321-.226.308-.399M401.41 458.476l.32.255.376.164.249.046M383.111 368.011l2.484-.882M383.111 368.011l-2.404.904M369.941 369.938l4.189-2.088M366.993 368.53l-2.298-3.824M366.993 368.53l4.243-2.456M366.993 368.53l-.54.54M376.89 363.038l-2.66-5.566M376.89 363.038l-3.791 2.04M380.707 368.915l-1.316-3.518-1.066.391-1.435-2.75M366.979 343.09l.817 2.474M366.979 343.09l-.894-2.54M366.979 343.09l2.342-.8M378.065 404.262l-2.633-5.043M378.065 404.262l-.393.16M381.08 401.528l-1.45 1.441-1.565 1.293M390.943 428.94l-2.62-4.752-7.358-14.55-2.9-5.376M353.65 359.05l-1.802.673-.127.083-.021.176.233.787-.064.125-.678.228-.117.062-.02.124.515 1.35M357.7 366.893l3.199-1.672M357.7 366.893l.92 1.709M357.7 366.893l-1.586-3.064M353.72 368.763l.2-.039 3.78-1.83M360.899 365.22l3.03-1.713M361.793 332.973l-.21.084-3.884 1.808-4.154 1.798-.79.33M366.085 340.55l-4.292-7.577M369.321 342.29l-.5-1.482-.301-.788-.113-.165-.137-.091-.173-.023-2.012.808M361.793 332.973l-7.559-13.275-1.934-3.64M385.874 211.343l-.064 1.48-.161 2.166-.5 4.396-.073.511-.338.985-4.741 10.15-.093.209-1.24 3.986-1.91 8.334-.105.724-.258 5.223-.378 6.286-.194 6.79-.12 6.16-.178 6.758-.25 2.04-.322.756-1.49 2.757-9.347 15.794-3.835 6.128-3.666 5.79-1.103 2.11-3.208 5.181" clip-path="url(#p5bdc11a835)" style="fill:none;stroke:#000"/><path d="m223.265 188.455.607.374 6.994 3.718 2.255 1.118 1.934.41 7.67 1.843 2.579.283 2.755.253 2.627.283 1.837.3 2.53.63 3.867 1.181 1.773.536.934.142 1.29-.095 1.82-.252 2.353-.165h1.08l.982.087 1.427.244 1.16.33 3.73 1.253 3.449 1.182 1.04.417.805.346.563.308 3.49 2.552 2.634 1.638 1.25.41.925.182 1.096.291 3.747 1.402.91.472.516.324.274.41.12.496.355 2.19.242 1.843.226 1.938.225.866.258.961.467.93.451 1.181.645 2.395.483 1.528.371.945.322.568 1.362 1.607 1.329 1.677.79 1.292.378.82.556.7.847.796.749.67 1.509 1.237.537.574 1.859 2.63 1.123 2.035.879 1.56.716 1.417 1.04 1.273.96 1.114.914 1.13.895 1.339.423.938.211.957.293 1.894.359 2.85.57 3.979.128 1.719.056.56.125.522 4.024 8.648.346.984.154 1.757v1.97l-.072 5.702.088 1.323.241.851.58.922 4.166 4.765 1.853 1.702 1.032 1.244 4.85 6.317 4.327 5.46 3.569 4.158 1.82 1.883 3.03 2.599 1.942 2.142 1.409 1.637M108.206 209.286l.188-.078.353-.11.591-.087.73-.11.917-.072.382.055.341-.004.357.06.858.133.898.127.959-.063.693-.158.725-.252.443-.134.556-.228 1.145-.482.998-.307.883-.193.85-.13 2.466-.44.377-.056.411-.126.359-.106.327-.185.468-.307.386-.442.41-.52.524-.803.585-.843.535-.834 1.58-2.624 1.37-2.182.434-.748.299-.331.419-.418 1.917-1.914 1.53-1.623.96-.899.62-.605.531-.472.469-.288.46-.21 1.408-.503 1.104-.339 1.088-.322 1.54-.48.914-.344.769-.343.999-.56 1.708-.881.837-.371 1.21-.441 1.264-.417.773-.331.589-.339.991-.512 1.881-1.083.998-.577.77-.546.87-.585.822-.522 1.805-1.106 1.009-.638.682-.399.447-.29.496-.274 1.056-.66.994-.641.627-.408.757-.52.733-.47.34-.229.276-.154.487-.201.6-.284.721-.292 2.26-.784 2.277-.807 2.449-.883.61-.184.542-.164 1.173-.267 1.247-.302 1.158-.27.81-.184 1.295-.302 1.245-.35 1.523-.441 1.87-.71 1.579-.842 1.692-.875.814-.59M223.265 188.455l-3.39-2.084-6.767-3.68-2.344-1.314-.557-.434-.435-.41-.717-.472-1.724-.945-1.337-.788-.919-.646-2.53-1.843-.556-.528-1.377-1.67-1.258-1.521-1.361-1.434-2.208-2.189-1.683-1.293-.798-.55-.685-.395M180.42 154.139l.09 1.494.022.38.098.368.194.315.894.82 1.136 1.031.975 1.166.983.851 1.683 1.457 1.145.977.99.512.524.19.798.393 1.386.875.443.402.838.89M370.666 376.578l-1.5-2.73M370.666 376.578l.285-.129M370.666 376.578l-4.302 1.565M372.874 381.414 371.4 378.1l-.733-1.522M380.707 368.915l-.318.12M371.629 361.171l-.965-2.387M371.629 361.171l1.47 3.908M367.502 360.957l1.532 2.064 2.595-1.85M374.23 357.472l-1.571-3.687M374.23 357.472l-3.566 1.312M372.659 353.785l-2.769 1.069M371.884 350.236l.415 2.269.168.732.192.548M365.133 356.774l4.757-1.92M365.133 356.774l-1.167.432M364.552 354.73l.028.326.185.898.368.82M364.57 360.359l1.355-.931.214-.236.04-.13-.016-.138-1.03-2.15M368.256 394.38l-.957-2.308M368.256 394.38l3.85-1.34M401.577 456.262l-.34.369M403.171 456.064l-.544-.129-.556.07-.494.257M390.51 429.158l6.04 11.806.785 1.599.802 1.906.463 1.256.645 1.686 1.858 5.677.474 1.454.113.457.036.43-.084.46-.065.373M396.663 457.417l1.333.315 2.284.512 1.13.232" clip-path="url(#p5bdc11a835)" style="fill:none;stroke:#000"/><path d="m401.01 457.462-.009.12.129.481.28.413M403.906 458.15l.02-.042M405.307 461.491l-.702-1.479-.318-.616-.091-.252-.092-.337-.087-.391-.111-.267M396.663 457.417l2.067.051M327.308 468.766l20.82-5.903 5.046-1.3 3.01-.885 3.143-.796 3.222-.677 3.118-.575 3.747-.567 2.409-.252 2.054-.181 2.377-.158 2.514-.082 2.876.02 15.019.007M435.465 545.267l.693-1.9 1.031-2.678.62-3.23-.217-2.267-.443-2.269-.42-2.024-1.07-5.662-.742-4.836-1.401-9.105-.968-4.82-.868-4.933-.71-2.65-.476-1.34-.653-1.606-.716-1.276-2.829-4.048-8.282-11.925-2.03-3.04-1.209-1.772-3.69-4.938-3.924-5.017-1.854-2.44M475.502 393.453l-2.91-2.37-2.578-1.96-1.753-1.546-5.523-3.929-3.932-3.017M502.79 363.618l-.951.725-2.297 1.307-8.91 4.183-11.465 5.34-2.804 1.552-2.41 1.701-1.111.662-1.088.456-4.85.63-5.846.083-.725.08-1.527.294M437.361 378.07l7.966.828 13.479 1.733M403.61 456.35l-.439-.286M406.927 457.47l-.282-.132-.183-.075-.421-.13-.604-.078-.5-.097-.616-.246-.712-.361M404.073 457.468l.003-.21-.153-.493-.314-.414M403.171 456.064l-.828-.84-.246-.441-.383-.91-.333-1.003-1.46-4.6-.789-2.281-.64-1.67-.496-1.138-1.156-2.438-1.434-2.867-4.463-8.936M401.238 456.63l-.315.222-.223.11-.283.078-.712.183-.975.245M401.238 456.63l-.2.457-.028.375M390.51 429.158l.433-.218M377.672 404.422l3.166 5.753 5.141 10.122 1.959 3.88 2.572 4.98M363.444 371.022l-4.569 2.513-.708.41-.428.141-.604.189-1.633-.139M383.731 380.474l1.767-4.998M383.731 380.474l7.992 1.083M385.576 389.745l-1.442-3.702-.894-1.867-.338-1.032-.025-.544.33-.866.524-1.26M374.654 397.786l1.849-1.003 2.704-1.214M383.179 398.437l-1.859-1.344-2.113-1.524M383.772 397.422l-3.824-2.106-.74.253M352.316 369.036l1.405-.273M366.399 375.062l.192-.082 2.576-1.131M374.628 371.506l-.594.237-4.867 2.106" clip-path="url(#p5bdc11a835)" style="fill:none;stroke:#000"/><path d="m368.217 372.078.391.819.559.952M374.654 397.786l-1.453-3.408M374.654 397.786l.778 1.433M372.03 392.127l.075.914M368.833 384.284l2.244 5.453.953 2.39M373.2 394.378l-.676-1.467-.494-.784M390.998 404.056l-2.11-1.446M390.998 404.056l.353-1.585M390.998 404.056l-.365 1.455M384.38 396.445l3.123 1.659M384.38 396.445l-.608.977M384.38 396.445l.988-1.856M374.944 380.405l3.123-1.483M374.944 380.405l-2.07 1.01M374.944 380.405l1.388 3.198M378.082 372.837l7.416 2.639M378.082 372.837l-1.824 1.217M378.082 372.837l-1.963-.69M390.352 406.832l-2.852-1.7M390.352 406.832l.281-1.32M405.999 416.16l-.893-.282-3.158-.921-6.792-1.985-5.739-1.613.935-4.527M383.668 402.94l3.832 2.192M383.668 402.94l-2.588-1.412M383.668 402.94l1.976-2.698M385.644 400.242l3.245 2.368M385.644 400.242l-1.905-1.337M387.5 405.132l1.389-2.522M379.22 390.32l-2.888-6.717M379.22 390.32l-2.044.278M382.335 389.914l-.811.072-2.304.333M382.335 389.914l1.122-.152M380.133 383.145l.448 1.937 1.754 4.832M385.498 375.476l7.63 2.631M385.498 375.476l1.14-3.546M393.127 378.107l-1.404 3.45M399.007 380.285l-2.436-.984-3.444-1.194M381.08 401.528l2.66-2.623M383.74 398.905l-.561-.468M383.179 398.437l.593-1.015M385.368 394.59l1.625-2.783M377.862 392.13l1.501-.703 3.776 1.872 1.245.625.984.665M374.13 367.85l-1.031-2.771M374.13 367.85l1.237 3.324M387.848 390.13l-.855 1.677M387.848 390.13l.508.237M387.848 390.13l-2.272-.385M389.534 387.27l.715-2.133 1.253-2.936.221-.644M405.679 380.45l3.28-.848M402.302 380.693l.927-.046 2.45-.197M405.074 388.093l.388-1.948.217-5.695M363.444 371.022l1.172 2.57M363.444 371.022l.745-.519M376.258 374.054l-.18.076M376.258 374.054l-.139-1.906M376.258 374.054l2.767 4.389M383.457 389.762l1.072-.08 1.047.063M368.217 372.078l-2.64 1.11M366.452 369.07l.867 1.448.427.811.471.749M373.2 394.378l4.662-2.249M372.1 383.026l-3.267 1.258M372.874 381.414l.455.999-1.23.613M377.176 390.598l-1.918.185-3.158-7.757M368.833 384.284l-2.469-6.14M368.833 384.284l-3.907 1.532M364.926 385.816l-1.152-2.887M367.299 392.072l-1.998-5.268-.375-.988M366.364 378.143l-1.004-2.636M366.364 378.143l-3.828 1.373M378.067 378.922l.958-.479M380.133 383.145l-.213-.686-1.12-2.04-.733-1.497M379.025 378.443l.774 1.488.54.613M364.695 364.706l-.765-1.2M440.586 568.09l12.53 9.277 8.438 5.283 16.63 10.206 6.13 3.817 6.846 3.95 10.886 6.58 1.368 1.263M512.309 592.592l-4.121 6.82-4.774 9.054M440.586 568.09l2.864.927 1.434.362 2.11.284 2.506.275 1.475.176.407.143.246.138.442.314 1.113.939 1.595 1.307 1.378.922 1.257.598 3.963 1.41 1.241.33 1.62.127.584.102 1.06.394.708.322.621.166.97.146.46.157.713.382 2.312 1.339 2.49 1.473 1.257.819.733.48 2.256.772 1 .386.547.33.548.433 1.62 1.403 1.99 1.503.54.583.418.347 4.375 2 3.126 1.457.725.205 1.048.055 1.33-.02.833.095.842.13 2.151.346 1.144.032 2.192-.205 1.216-.11 1.29-.307 1.224-.19 1.008.008 1.196.103 1.543.406.624.208.568.276.46.173.247.053.103-.002" clip-path="url(#p5bdc11a835)" style="fill:none;stroke:#000"/><path d="m511.233 559.614.42 12.9.12 5.457.5 7.553.193 6.639-.054.238-.048.109-.055.082M549.053 457.814l-.516 1.348-1.031 2.772-1.676 2.394-3.996 2.773-3.352 7.183-2.578 3.78-4.448 5.32-3.287 3.75-4.544 4.85-2.933 3.057-5.06 3.969-6.688 4.672M549.053 457.814l16.495.014M431.565 457.527l3.465.008 11.635.055 33.21.087 10.28.016 6.039.055 9.033-.012 8.157-.012 35.669.09M435.465 545.267l3.288-.759.442-.165.218-.22.048-.245.057-.897.098-.404.14-.282.211-.187.369-.07.511-.027 4.23-.558 1.314-.23.334-.215.201-.229.089-.37.052-.366.194-1.922.12-3.737.186-.413.398-.245.423-.142 1.258.142 4.947 1.182.854.457 1.007.76.48.354.592.217 1.24.18 1.056.237 3.246 1.339 7.01 2.977 8.299 3.812 7.702 3.733 25.154 10.64M545.773 559.33l-3.923.248-12.086.457-8.041.394-6.574.02-1.281-.048-1.128-.205-1.507-.582M565.548 457.828l6.642-.108M545.773 559.33l5.793-.366 1.322.725 5.06 2.862 6.09-.72 1.242-1.107.338-3.256.87-1.58.677-1.649.484-10.4.338-11.686.178-9.696.97-14.859-.993-2.323.831-3.38.503-14.567.337-2.963-.303-4.987-.047-6.863-4.764-12.404.849-2.283M572.19 457.72l7.124.131 8.46.202 5.882 1.21.624.226 16.481 5.253" clip-path="url(#p5bdc11a835)" style="fill:none;stroke:#000"/><path d="m579.912 447.123 8.233 2.52 7.203 2.836 4.625 1.764 2.12.733.765.275 1.95 1.055 1.474.962.959.826.749.946.846 1.457 1.257 2.213.668 2.032M445.363 284.894l1.765-.706M446.242 282.842l-.42 1.138-.459.914M446.242 282.842l.886 1.346M506.794 190.553l-.282 1.159-.086.313-.18.431-1.438 2.745-.363 1.126-.302.714-1.152 1.894-1.833 3.01-2.538 4.462-1.535 2.508-9.676 15.716-1.75 2.704-5.5 9.144-1.25 1.945-.38.339-.62.385-1.103.442-.806.338-.443.512-.524.875-.379.543-.565.499-.962 1.068-.425.687-.787 1.456-1.088 1.284-.862 1.119-.878 1.402-2.006 1.646-2.755 2.938-.87 1.103-.976 1.623-2.465 4.167-1.845 2.843-2.135 3.183-1.12 1.756-2.812 4.482-2.087 3.403-1.41 2.288-1.51 2.588-.854 1.45" clip-path="url(#p5bdc11a835)" style="fill:none;stroke:#000"/><path d="m445.565 282.478.245.136.432.228M539.441 169.418l-1.036 1.477-3.476 5.896-1.297 2.214-2.663 4.585-.564.961-.322.544-.222.401-.08.327-.085.536-.033.776.04.433.126.26.205.201.165.124.609.36.86.461.169.174.095.153.04.212-.048.237-.137.307-.379.536-1.33 1.993-2.272 3.308-1.998 3.022-.548.633-.173.115-.179.031-.185.016-.197-.026-.603-.246-5.656-2.883-7.26-3.844-4.213-2.159" clip-path="url(#p5bdc11a835)" style="fill:none;stroke:#000"/><path d="m505.561 138.365.41.354.912 1.15.394.694.113.552-.008.322-.113.615-.044.346.064.879-.04.811-.193.874-.02.768.18.713.65 1.127.394 1.182.435.634.27.48.117.552-.004.267-.064.532-.46 1.233-.225.824-.004.433.052 1.035.262 1.304.298.678.504.8.112.326.06.516.071 1.007.067.173.431.801.1.355.423 1.63.54 1.836.387.587.053.208-.02.166-.041.374.056.327.327.543.129.5.003.226-.04.39-.64 1.795-.274.749-1.14 4.222-1.301 3.56-1.209 3.538-.926 2.331-.323.701-.048.41.048.615.645 3.024.145 1.135-.065.288-.217.696M554.1 146.664l-.415.595-.31.433M539.441 169.418l.967-1.528 4.475-7.169 2.494-4.237 2.176-3.561 1.53-2.38.894-1.141.532-.646.455-.548.411-.516M546.571 147.582l1.318.378 1.341.311.48-.004.439-.114.821-.402.315-.126.399-.079.423-.012 1.268.158M559.479 139.491l-1.048 1.332-2.079 2.796-1.45 1.915-.801 1.13M560.768 157.46l.5-1.323.233-.583.04-.725.004-.598.069-.327.141-.308.584-1.099.128-.346.033-.26-.045-.276-.56-1.173-.668-1.474-.717-1.52-.64-.831-.3-.25-.39-.246-.471-.213-.423-.083-.532-.008-1.47.122-.504.102-.555.146-1.124.477M559.479 139.491l2.747-3.489 2.619-3.443 1.43-2.34.27-.299.334-.146.44-.039.443.06.503.145 2.115.768 1.708.437 1.458.22.762-.015.785-.17.613-.315.27-.228.76-.985 1.193-1.804M399.24 150.953l.235-.803-.024-.37-.097-.394-.935-1.45-2.828-4.277-3.496-5.436-1.588-2.221-.958-1.316-3.465-4.356-3.747-4.75-1.99-2.734-1.555-2.135M356.668 120.703l7.412-.843 3.328-.417 5.978-.678 1.644-.031 1.417.15.955.197.355.216.455.528.58.886M554.129 357.994l-1.547 3.245-.903 2.017-.096.418-.024.362.064.921.113 1.426-.08.717-.17.882-.322 1.268-.242.803-.599 1.148M502.79 363.618l4.672-2.93 1.394-.63.71-.134.87.016.79.047.958.181 1.04.418 1.788 1.237 2.337 1.33 1.16.394.975.244 1.675.237 4.222.41 1.338.283 1.111.33.968.363 3.432 1.938 3.126 1.48 2.884 1.087 1.724.757.807.268.725.094.902.063 2.377.07 5.548.03" clip-path="url(#p5bdc11a835)" style="fill:none;stroke:#000"/><path d="m605.714 378.974-1.382-1.044-1.305-.859-1.37-.835-1.265-.653-1.096-.473-4.318-1.315-.87-.316-.31-.07-.283-.034-.558-.033-1.25-.193-3.046-.93-1.47-.484-.415-.107-.354-.046-1.999-.119-3.9-.173-4.72-.283-.782.054-.83.079-4.142.622-3.94.638-.54.032-.562-.04-5.141-.598-3.868-.252-5.675-.341M636.302 399.133l.967.142M579.912 447.123l3.142-1.985 6.187-2.756 4.125-1.497 4.222-1.244 3.98-.615 1.306-.614 2.272-1.37 1.273-1.245.41-.606 1.137-2.198.822-1.56 1.401-2.425.71-1.505.41-.582.307-.363 1.587-1.772 1.595-1.654 2.917-3.733 2.964-3.355 2.434-2.395 4.028-3.591 2.651-2.017.822-.512.991-.204.946-.162.508-.157.339-.24.39-.332.596-.622.323-.465.201-.527.201-.941.234-1.36.548-2.401.411-.985M632.62 397.243l.878.512 2.804 1.378M579.912 447.123l-.452.709-1.192 1.953-.532.41-.379.141-.572-.015-.548-.103-.552-.208-.588-.307-.511-.296-.327-.114-.29-.008-.189.102-.314.351-.274.646-.339 1.138-.165.673-.21.603-.837 1.875-.226.586-.14.453-.033.26.052.193.133.197.23.185.496.414.14.165.045.157-.148.437M374.997 399.424l1.442 2.67 1.233 2.328M369.89 354.854l.774 3.93M369.89 354.854l-.472-2.862M367.502 360.957l3.162-2.173M367.502 360.957l-1.829 1.305M360.124 357.49l2.62 4.124M360.927 355.17l-.062.69-.036.268-.274.665-.431.697M357.173 355.75l.595 1.362.423.792.096.043.14.016 1.181-.548.178-.025.177.02.16.08M363.93 363.507l-1.186-1.893M363.93 363.507l1.743-1.245M406.927 457.47l17.552.018M406.927 457.47l-.693.016M404.073 457.468l1.803.017.358.001M403.926 458.108l.401-.055.312-.07.308-.1.349-.111.938-.286M398.73 457.468l2.28-.006M401.01 457.462l3.063.006M403.926 458.108l.125-.335.022-.305M402.302 380.693l-1.184-.124-2.11-.284M386.638 371.93l6.683 2.38 2.544.915 1.182.36 1.442.343 1.198.08-.68 4.277M395.031 391.01l.721-1.762.597-1.693 2.658-7.27M386.993 391.807l-3.536-2.045M388.356 390.367l.357-.647M390.1 393.58l-.282-.629-1.462-2.584M107.965 211.213l-.662-.19-.31-.096-.351-.087-.458-.1-.23-.03-.245-.03-.25-.002-.174.016-.339.026-.281.035-.306.067-.593.126-.732.142-.993.173-1.31.128M108.206 209.286l-2.423.624-2.517.71-2.535.77M364.189 370.503l2.263-1.434M362.536 379.516l.7 2.077M362.536 379.516l-.825 1.073M363.235 381.593l-1.524-1.004M363.235 381.593l.54 1.336M363.774 382.929 361.22 384M361.22 384l3.132 8.34M361.53 392.675l-1.35-3.135-.882-2.166-.024-.512.04-.414.464-1.591.064-.216.064-.08 1.314-.56M361.711 380.589l-.884-.58M364.616 373.591l.962-.404M365.36 375.507l-.576-1.421-.168-.495M376.12 372.148l-1.492-.642M374.628 371.506l.74-.332M375.367 371.174l5.022-2.14M371.236 366.074l1.863-.995M371.236 366.074l-1.044-1.724M370.544 364.141l-.352.21M365.36 375.507l1.039-.445M365.673 362.262l.788 1.147.117.253.064.295.113.232.806 1.52 2.63-1.359" clip-path="url(#p5bdc11a835)" style="fill:none;stroke:#000"/><path d="m475.502 393.453 1.376 1.12 3.836 3.324 2.4 1.905 1.821 2.08 3.336 4.899 1.112 1.071 1.112.512 6.22 2.025 8.161 2.748 5.068 2.087 3.577 1.04 7.284 2.52 2.86 1.064 5.777 2.236 3.884 1.654 2.852 1.213 3.295 1.458 9.161 5.316 5.188 2.851 3.505 1.86 3.384 1.7 3.03 1.576 1.297.48 1 .158 1.618.07 1.273.135.444.11 2.215.748.766.378.773.606 1.144.74 1.974 1.371 2.087 1.489 1.58 1.126M367.299 392.072l-2.947.268M364.352 392.34l2.371 6.48M364.352 392.34l-2.823.335M363.485 398.08l1.812.565 1.426.174M363.485 398.08l-1.956-5.405M361.53 392.675l-1.19.066-.293.129-.205.15-.515 1.154-.035.583.157.586 1.07 2.144.21.18.3.075 1.412.215 1.044.124M400.933 409.034l1.353-2.153M400.933 409.034l-1.16 2.303M396.773 407.298l2.407 1.002 1.753.734M393.459 406.147l3.314 1.15M393.459 406.147l-2.826-.636M393.459 406.147l1.7-3.308M399.774 411.337l-3.748-1.114-3.298-1.028.085-.375.646-2.673M410.44 414.693l-2.736-.839M399.774 411.337l7.437 2.362M403.232 405.205l-.946 1.676M395.16 402.839l.908-1.916 7.164 4.282" clip-path="url(#p5bdc11a835)" style="fill:none;stroke:#000"/><path d="m408.044 405.827-3.409-1.779-.375-.07-.302.093-.726 1.134M395.16 402.839l3.169 1.842M402.286 406.881l-3.957-2.2M398.329 404.68l-1.556 2.618M107.965 211.213l-.07-.448-.02-.452.02-.27.044-.257.073-.197.194-.303M511.128 335.893l-1.28 2.307-2.143 3.403-1.79 3.584-1.764 3.584-.177.693-.097.614.08 2.678.065 3.844-.16 1.993-.154.78-.443 1.126-.17.701-.305 2.418M632.62 397.243l-.717-.615-2.441-2.701-.44-.276-.466-.173-2.003-.599M609.968 381.939l1.672.945 1.22.705.629.457.777.678.649.618.407.547.863 1.557.797 1.444.217.339.286.216.37.174 1.451.606 7.247 2.654M372.105 393.04l1.007 2.36 1.144 2.591.741 1.433M387.503 398.104l2.596-4.524M390.1 393.58l1.005 1.297.893 1.602.008.488-.13.497-1.18 1.756-.189.209-.242.122-.293-.01-2.47-1.437M388.713 389.72l.821-2.45M388.713 389.72l3.197.607M376.332 383.603l3.801-.458M347.431 353.785h.249l.411.043.806.121.77.257.628.159 1.071.321.476.079 1.244-.024 1.016.004.217.032.493.15M355.576 356.364l-.056-.37-.194-.335-.514-.733M356.114 363.83l-3.346 1.419M359.318 365.34l-1.621-2.186-1.583.675M358.62 368.602l2.04-1.346M385.595 367.129l.271 1.601.806 2.174.033.354-.067.672M380.39 369.035l2.31 1.317 1.611.772 1.58.56.747.246M180.42 154.139l-.5-.004-1.527.275-.86.4-.273.455-.6.143-4.562.01-3.754-.314-1.931-1.003-2.555-1.993-.739-.032-3.19.917M605.714 378.974l2.332 1.752.629.41 1.293.803M616.063 364.327l-1.015 1.993-.548 1.15-.878 2.205-.967 2.316-.616 1.894-.182.544-.092.5-.258 1.497-.391 2.28-.197.693-.178.398-.516.969-.132.33-.077.37-.048.473M577.897 313.224l5.414 2 .38.159.08.045.07.066.057.108.021.144-.04.19-.07.235-.538 1.448-.596 1.189-.653 1.26-.052.236.038.146.137.11.177.077.27.048.707.075 4.919.458 7.805.64.332.028.24.055.2.077.294.17.384.289 1.654 1.238 3.908 3.182 1.055.772.806.52.886.386 2.506.827 2.32.74 3.755 1.221.322.26.178.244.015.458v.559l-.322 2.804-.741 9.562-.17 2.568-.08 1.11-.157 1.58-1.027 6.478-.29 1.323-.919 4.001-1.16 3.435-2.4 7.057-1.898 6.172M511.128 335.893l1.475-1.552 1.877-1.812.588-.535.532-.268.556-.185.713-.091.532-.031 2.236-.087 2.312-.166.838-.141.902-.19.862-.315 3.578-1.464 1.829-1.017.395-.212.483-.158 1.635-.527.392-.174.173-.189.173-.323.064-.394.004-.33-.241-1.831-.118-.402-.15-.357-.16-.238-.241-.266-.119-.164-.03-.102.034-.104.08-.085.168-.065.203-.043.268.01.494.11 1.355.382 5.112 1.469 1.837.563.3.075.167-.03.103-.06.097-.093 1.255-1.727 1.249-1.461.44-.496.116-.11.14-.067.202-.048 1.185-.075 1.297-.11 3.061.047 4.432.055 2.796.11.704.003.125-.032.093-.043.089-.109.636-.835 1.752-2.536.303-.386.213-.134.193-.086.697-.118 1.753-.386 4.383-.812 7.396-1.67.951-.251" clip-path="url(#p5bdc11a835)" style="fill:none;stroke:#000"/><path d="m520.346 316.697-1.305 2.221-1.096 1.71-.75 1.37-1.031 1.78-2.28 3.797-2.192 3.45-.523.819-.403.697-.16.366-.014.217.041.264.342 1.48.153 1.025M551.41 164.696l-1.354 1.02-.689.504-.669.516-.334.224-.343.127-1.192.394-1.475.527-2.602 1.142-.838.237-.74.055-1.733-.024M554.547 136.372l2.136 1.347 2.796 1.772M375.432 399.219l-.435.205M327.308 468.766l-5.599 1.562M321.71 470.328l.22-.514.318-.646.467-.457.653-.323 1.024-.299.74-.102.492.078.95.379.734.322M216.806 603.543l-.105-.26M221.463 601.37l-2.15.913-1.162.59-1.345.67M232.796 497.818l-3.646 1.295-1.733.614-2.159.724-5.938 1.89-8.766 2.592-2.765.813M216.701 603.283l-.233-.622-.637-1.386-1.144-1.607-2.191-2.937-2.933-3.52-5.27-5.938-1.014-1.064-1.008-.748-.942-.465-1.362-.708-.902-.599-.444-.496-.281-.843-.134-.736.061-.752.395-2.068 2.844-12.904.967-5.095.395-2.229.104-1.536-.008-2.37-.072-1.78-.71-6.553-.45-4.418.015-.953.21-1.22.79-1.347 1.418-2.363.564-1.433 1.16-4.41.878-3.568.629-2.678.201-1.74-.008-1.765-.016-2-.306-3.434-.282-3.04-.113-1.56.032-1.087.113-.598.403-1.606.369-1.36M216.701 603.283l-1.401.638-1.233.426-.369.116-.292.15-.504.397-.296.13-.352.08h-.693l-.878-.039-.66.094-1.242.379-1.152.283-.505.14M441.991 596.857l-5.797-.869M440.315 568.001v.22l.033 8.979-.322 3.197-.516 2.835-.854 3.67-1.37 4.237-1.092 4.849M434.155 606.553l.247-1.537.564-3.576 1.228-5.452M434.155 606.553l-.938-.435-2.735-1.272-1.752-.79-1.858-.678-3.613-1.418-2.905-1.126-.62-.162-.423-.035-.898.07-.246-.09-.326-.275-.641-.705M321.71 470.328l-8.5 2.371M313.21 472.699l-.348-1.066-.032-.212-.019-.205.034-.205.218-.803.25-.898v-1.678l.065-.393.37-.638M287.72 479.78l12.226-3.381 13.264-3.7M256.432 489.544l4.285-1.497 4.947-1.757 1.933-.653 1.233-.418 1.635-.492 4.497-1.335 3.198-.906 7.864-2.236 1.695-.47M283.43 485.07l-.017-1.331.105-.489.177-.33.38-.347 1.191-.677.75-.528.983-.795.72-.792M256.47 493.426l.355.677.548.544 1.209 1.197.773.638.894.48.653.205.798-.047.378-.197.25-.315.282-.622.25-.252 1.08-.686 1.442-.945.604-.244.484-.031.443.157.612.473 1.483 2.032M243.16 517.755l2.434-1.276 2.014-1.182.919-.708.636-.638.733-.938.347-.598.185-.504.201-.796.17-1.323.064-1.307-.048-1.08.073-.716.209-.685.338-.921.75-1.277.604-.89.483-.732.314-.646.186-.654.338-2.181.145-.693.177-.457.758-1.363.959-1.882.32-.882M256.432 489.544l.224.834.225.74.057.473-.032.567-.274.819-.163.449M232.796 497.818l1.856-.658 9.467-3.332 8.863-3.08 3.45-1.204M259.34 406.616l-.621 1.575-.995 1.276-.625.834-.346.702-.29 1.237-.08 1.142-.01 1.874.033 1.82-.016 1.551.226 2.442.515 2.961.178 1.15-.073 1.04-.282.945-.7 1.607-.315.85-.153.693-.056.5-.033.84.194 2.173.08 1.796-.129 1.575-.386 1.764-.484 1.198-.822 1.134-.628.819-1.982 1.858-1.692 1.45-1.048.976-.45.615-.355.803-.773 2.08-1.08 2.96-.548 1.505-.178.977-.144 1.307-.186 1.119-.49 2.48-.404 1.938-.443 3.033-.065.96-.096 1.859-.048 1.441-.178.993-.21.937-.459 1.394-1.132 2.804-1.817 4.033-2.53 5.544-1.433 2.804-1.918 3.363-1.418 2.78-.436.882-.031.473.08.457.738 1.879M440.586 568.09l-.27-.089M435.465 545.267l-.467 1.28-.71 2.742.033 1.417.548 1.197 1.547 2.71 2.232 3.315 1.217 2.418.314 1.449.12 1.276.016 4.93M429.068 457.522l-2.305-.006M429.068 457.522l2.497.005M429.068 457.522l-.08-1.515M426.763 457.516l-2.284-.028M426.763 457.516v-1.461M430.14 456.386l.572.346.853.795M430.14 456.386l-.358-.118M430.82 452.597l-.161 2.892-.52.897M428.988 456.007l.794.261M426.763 456.055l1.129-.08 1.096.032M424.782 457.008l.68-.446.625-.256.676-.251M424.48 457.488l.302-.48M239.172 429.512l1.45-.181 1.056-.197.693-.331.314-.252.21-.488.225-1.678v-.937l-.032-.346-.934-1.442-1.845-2.087-.98-.823-.402-.374-.625-.701-1.438-3.466-.818-2.091-.064-.358-.307-2.694-.18-.808-.043-.267.016-.117.071-.09 3.01-1.132 1.82-.654 2.22-1.166.46-.138.45-.066 3.243-.178 1.374.047 2.385.087 3.682-.22 5.156.252M390.54 187.076l.108-.505.246-.456 4.319-5.668.749-1.178.278-.776.08-.654.335-6.097.338-4.01.25-2.071.233-1.528.444-3.553-.097-2.726-.161-1.26.112-1.23.355-1.614 1.112-2.797M404.494 392.463l3.045.708M404.494 392.463l.58-4.37M398.453 392.024l1.797.521 4.244-.082M399.386 388.681l-.933 3.343M395.031 391.01l.673.192 2.75.822M412.406 378.79l.54-.112M412.406 378.79l-3.446.812M412.406 378.79l-.854 6.15-.347 4.244M412.947 378.678l2.658-.442M412.947 378.678l-.842 6.359M407.54 393.171l.756-4.513M407.54 393.171l3.432.615M408.296 388.658l-3.222-.565M408.296 388.658l2.909.526M408.96 379.602l.126 2.148-.354 3.843-.436 3.065M377.176 390.598l.686 1.531M367.278 349.264l1.447-.55M365.225 348.977l.434-.025.774.087.845.225M363.207 350.847l1.28-.619 2.79-.964M354.984 349.63l3.252-.243M368.725 348.714l.495 2.25M368.725 348.714l-.51-1.873M362.356 349.228l.653 1.292.198.327M363.738 352.408l-.093-.234-.298-1.095-.14-.232M369.418 351.992l-.198-1.028M364.386 353.914l1.592-.618 2.686-1.044.754-.26M363.738 352.408l.205.514.443.992M364.552 354.73l-.036-.43-.13-.386M364.552 354.73l-1.465.282-1.698.17-.462-.012M357.173 355.75l-.07-.276-.004-.11.048-.099.17-.103.68-.07 2.93.078" clip-path="url(#p5bdc11a835)" style="fill:none;stroke:#000"/><path d="m355.576 356.364 1.209-.46.388-.155M362.356 349.228l.14-.016M359.459 349.302l1.18-.078 1.717.004M362.744 361.614l1.826-1.255M351.926 405.993l2.575.638 1.715.65 2.265.65 3.464 1.04 3.46.968.488.016.278-.095M367.702 407.204l5.518 3.139-2.684 4.682-5.442-3.211 1.077-1.954M369.22 350.964l2.664-.728M370.69 346.022l.877 2.941.317 1.273M370.69 346.022l-1.369-3.732M370.69 346.022l-2.474.82M418.326 377.617l2.826-.516M418.326 377.617l-2.721.619M416.692 390.303l.701-4.095.645-5.143.288-3.448M414.801 384.9l.618-4.552.186-2.112M412.105 385.037l2.255-.125.441-.011M414.386 389.873l.308-3.39.107-1.582M411.852 389.302l.224-4.047.029-.218M430.557 377.363l-2.474-.29M430.557 377.363l3.945.41M425.831 391.573l2.157.345.379-.063.157-.287.093-.382.29-3.096.507-3.481.556-3.371.587-3.875M422.042 390.966l-2.634-.327M422.042 390.966l3.79.607M424.374 376.734l-2.131 13.231-.201 1M416.692 390.303l-2.306-.43M416.692 390.303l2.716.336M411.205 389.184l.647.118M411.205 389.184l-.152 2.68-.081 1.922M414.386 389.873l-2.534-.571M411.601 393.817l2.134.106.651-4.05M410.972 393.786l.63.03M410.972 393.786l-.445 6.757-.049 3.83M402.302 380.693l-.29 5.389M391.91 390.327l2.158.41.963.274M223.265 188.455l1.316-1.88.774-.606 1.37-1.324 2.263-1.74 2.28-2.427 2.418-1.851 1.579-1.41.507-.197.91-.055 1.459-.213.87-.354 2.61-2.403.782-.788 1.16-2.197.822-1.308.339-1.08.129-1-.347-1.347-.113-.756.105-.74.395-1.505-.049-1.48.009-.742.386-2.402.049-1.954.233-.567.411-.45 1.756-.78 1-.779.516-.544.192-.456.146-1.205.104-.284.613-.938.105-.551-.113-.59-.403-1.08-1.023-1.89-.073-.402.17-.52.306-.457 1.184-1.938.113-.441.016-.489-.105-.496-.766-1.197-1.224-1.607-1-1.08-1.7-1.623-1.022-.898-.468-.661-.58-2.907-.08-.93.225-.764.637-.866.717-.56 1.216-.472 1.934-1.008 1.2-.497 2.74-.536.983-.394 1.757-1.228 1.08-.426 2.062-.599 3.754-1.008 2.28-.843M475.502 393.453l.575-.259 1.559-.716 1.482-.954.653-.622.974-1.528.476-.834.161-.528.072-1.221.234-.465 1.12-1.536M385.874 211.343l.024-.568.226-.85 1.007-1.931 1.885-2.805.444-1.252.878-3.742.588-1.906.113-1.22.097-2.75-.025-2.15-.56-4.609-.012-.484M378.18 180.203l2.933 2.095 6.622 3.293 2.212 1.185.592.3M447.128 284.188l.527-.211.319-.075.27.04 8.31 3.004.29.012.496-.083 3.146-1.035.854-.351.286-.079.77-.098 7.198-1.824 6.784-1.788.363-.338.073-.292.04-1.26.113-.292 1.055-2.276.822-2.15M445.565 282.478l3.819-6.437 3.335-5.083.077-.248.004-.307-.08-.221-.27-.23-6.24-3.47-9.004-4.92-9.266-4.107-5.128-1.69-5.161-1.548-6.498-2.63-5.894-3.08-3.617-2.047-.145.014-.103.051-.29.314-2.004 3.617-1.91 2.974-.821 1.854-.02.174.024.134.153.112 1.982.884 7.13 3.954 11.61 6.428 8.307 4.482 12.158 6.664 7.852 4.362" clip-path="url(#p5bdc11a835)" style="fill:none;stroke:#000"/><path d="m445.565 282.478-7.852-4.362-12.158-6.664-8.307-4.482-11.61-6.428-7.13-3.954-1.982-.884-.153-.112-.024-.134.02-.174.821-1.854 1.91-2.974 2.004-3.617.29-.314.103-.051.145-.014 3.617 2.046 5.894 3.08 6.498 2.631 5.16 1.548 5.129 1.69 9.266 4.107 9.003 4.92 6.24 3.47.27.23.08.22-.003.308-.077.248-3.335 5.083-3.819 6.437M366.399 375.062l-.821-1.875M376.077 374.13l.007.479M370.951 376.45l1.091-.494 4.035-1.826M371.533 376.902l.355-.185 3.645-1.741.355-.209.196-.158" clip-path="url(#p5bdc11a835)" style="fill:none;stroke:#000"/><path d="m371.533 376.902 1.112 2.008.217.122.323.028 3.746-1.504.145-.146.053-.17.044-.449-.105-.511-.984-1.671M370.951 376.45l.288.196.294.256M387.808 383.443l-.637 2.603.033.441.113.28.221.122 1.996.382M368.216 346.841l-.42-1.277M365.225 348.977l-.065-1.238-.306-2.055M362.497 349.212l-.838-2.556-.153-.516-.028-.19.129-.176.165-.071.801-.051 2.281.032" clip-path="url(#p5bdc11a835)" style="fill:none;stroke:#000"/><path d="m367.796 345.564-2.45.127-.492-.007M362.497 349.212l1.414-.158 1.314-.077M361.002 369.734l.701-.507.05-.123-.001-.09-.022-.128-1.07-1.63M403.656 422.28l.56.37 3.084 3.342 9.677 2.368 14.113 4.66M410.478 404.374l-.065 2.382M410.478 404.374l-2.434 1.453M410.413 406.756l-.468-.014-.397-.125-1.23-.647-.274-.143M309.446 157.657l3.795-1.465.853-.272.367.004.54.205 2.058 1.331.62.15 1.918.457.403.22.508.45 1.41 1.599.822 1.103 1.547 2.796 2.127 4.135.515 1.332.605.725.418.63.464.267.379.15 2.683.595 1.845.465 1.357.311.286.016 1.837-.213h.274l1.483.174.447.165 1.176.74.42.19 1.554.37.75.299 2.148 1.427.57.298.255.07 1.466.123.435.178.818.673 2.606 2.473 1.652 1.714.592.8.202.366.052.248.032 1.15.137.615.672 1.319.685 1.162.182.673.397 1.369.485.94.89 1.173.798 1.13.262.607.205.19.347.2 2.095.634.535.319.842.229 1.805.39.806.322 1.22.745.478.218.251.06.867.151.35.173.608.37.182.024.645.032 1.131-.307.596-.02.533.161 1.623.962.447.35.366.477.548.709 1.173.854.29.252.491.717.306 1.005.315.567.471.44 1.345 1.497.58.847 2.764 2.643.492.658 1.289 1.185.822.737.813.458M448.91 449.752l-3.256-.027M441.157 452.846l-10.337-.249M441.157 452.846l4.576-.06M441.157 452.846l.016 2.504M441.157 452.846l-.078-3.16M441.079 449.685l-7.908-.142-1.664 1.458-.687 1.596M441.079 449.685l4.575.04M445.654 449.725l.079 3.06M445.683 455.413l.05-2.627M403.656 422.28l4.048-8.426" clip-path="url(#p5bdc11a835)" style="fill:none;stroke:#000"/><path d="m405.999 416.16-2.856 5.743.513.377M407.704 413.854l-.493-.155M407.704 413.854l3.19-5.923.09-1.158.617-12.956M393.058 387.241l-1.148 3.086M359.024 382.595l.69-.938 1.113-1.647M421.152 377.101l-1.744 13.538M424.374 376.734l-1.156-.01-2.066.377M428.083 377.072l-2.252 14.5M424.374 376.734l.891.006 2.818.332M437.361 378.07l3.968-6.321M437.361 378.07l-2.859-.297M439.096 370.4l-4.594 7.373M405.999 416.16l1.212-2.461" clip-path="url(#p5bdc11a835)" style="fill:none;stroke:#000"/><path d="M410.413 406.756v.437l-3.202 6.506M411.601 393.817l.251-4.515M358.427 371.055l-1.955.997-1.012.337-1.529.386M340.248 369.983l.072-.14.23-.144 2.236-.323.725-.315.45-.378.525-1.158.048-.551.008-.394-.277-.799" clip-path="url(#p5bdc11a835)" style="fill:none;stroke:#000"/><path d="m340.248 369.983-.418-.539-.13-.756-.425-.983-.31-.68.168-.466 5.132-.778M359.98 352.189l2.693-.098 1.065.317M359.98 352.189l-1.123.04-1.56.252-.851.19M358.236 349.387l.45-.033.773-.052M359.98 352.189l.166-1.119-.142-.668-.545-1.1M358.236 349.387l.002-1.783M353.72 368.763l.446 1.213M364.57 360.359l-.896-1.857M429.782 456.268l-.698-1.336-.262-.52-.302-.515-.387-.225-.358-.031-.617.098-.33.327-.495.705-.54.677-.385.6-.268.432-.358.528" clip-path="url(#p5bdc11a835)" style="fill:none;stroke:#000"/></g><g id="PatchCollection_1"><path d="m556.16 551.62-.197.99-.197.55-.056.495.366-.028.169.22.506.11.507-.11.422-.165.197-.247-.14-1.266-.395.055-.394-.357-.394-.44zM539.695 553.875l.957 1.376-.31.44-.422.165-.534-.165-.17-.22-.196-.55-.112-.441.252-.33zM386.743 367.865l.035-.448.36-.553 2.314.526.398-.388.459-.219.509.607.907 1.287.13.424.222.31.21.262-.066.43.197.286.158.475.16.341.224.642.163.28.264 1.425-1.125.051-.815-.095-.601-.253-.542-.441-1.162-.628-.42-.631-.412-.374-.621-.927.039-.37-.786-1.553zM373.28 342.385l.517-.543 1.13-.525.204.452.073.543.167.235.13.47-.019.254.333.399.167.307v.272l-.111.434.098.178.083.375.055.344.333.597.519.779.37.488.24.453.241.56.259.706.296.58.537.959.537 1.085.408.462.278.49.24.633.722.85.185.416.537.724.703.688 1.426 1.484.648.596.648.236.962.325.537.345.87.596.333.326.296.941-.026.966-.318.353-.872-1.164-.85.166-.787.52.404-1.226-.128-.312-1.17-.375-.956-.207-.915-.312-.68-.499-.957-.457-.319-.208-.489-.562-.51-.436-.552-.831-.383-.167-.724-1.205-.3-.195-.66-.81-.149-.54.192-.75-.383-.04-.383-.022-.36-.27-.107-.499-.192-.353-.085-.478-.191-.499-.298-.623-.34-.645-.104-.32-.147-.836.098-.859.018-.75-.017-.851-.08-.441-.048-.441.016-.284-.162-.457-.274-.094-.128-.567-.258-.284.032-.41-.306-.063z" clip-path="url(#p5bdc11a835)" style="fill:#00f;fill-opacity:.8"/></g><g id="PatchCollection_2"><path d="m372.824 376.442.894 1.83.137-.062-.86-1.873zM371.226 361.127l-.763-1.858-2.539 1.687 1.015 1.59zM376.326 372.402l.037 1.124 1.192-.71zM375.948 377.39l-1.053-1.969.175-.082 1.08 1.969zM364.025 370.788l2.193-1.25.141-.006.115.073.965 1.697.256.475-.211.12-2.331 1.018-.136-.327zM375.845 371.713l-.002-.294 1.464-.62.387-.145.36.635.192.463.221.477.083.158z" clip-path="url(#p5bdc11a835)" style="fill:green;fill-opacity:.8"/></g><g id="PatchCollection_3"><path d="m364.504 363.624.49.742 1.351-.85-.489-.742zM393.181 379.032l-.97 2.446 1.923.728.97-2.444zM402.558 410.265l2.836 1.615 2.421-4.469-2.784-1.574zM546.232 562.36l.233-2.273 4.265.418-.234 2.274z" clip-path="url(#p5bdc11a835)" style="fill:#90ee90;fill-opacity:.8"/></g><g id="PatchCollection_4"><path d="m375.812 375.649.595-.263.523 1.106-.57.26zM373.683 376.623l.2-.079-.134-.284.646-.274.116.314.347-.147.453 1.055-1.142.464zM372.038 377.432l.667-.292.488.96-.645.299zM365.826 373.466l.479.948 1.973-.772-.482-1.02-1.47.608zM365.517 373.872l-.467.2.342.742.49-.237zM364.843 371.643l-.119.271.365.161.13-.26zM365.129 372.356l-.112.232.348.145.124-.205zM394.51 403.095l-.213.475-.434-.23-.069.087-.348-.196.238-.497zM364.538 370.952l-.15.326.38.122.112-.254zM363.8 368.014l.824 1.3-.682.377-.837-1.32zM372.315 370.16l.54 1.18.182-.138.27-.085-.56-1.142zM362.13 343.923l.07 1.253.372-.02-.07-1.253zM362.786 343.928l.34-.02.09 1.398-.34.021zM364.69 344.513l.754-.035.014.275-.756.035zM366.687 346.408l.998-.206.12.55-.999.206zM363.328 347.35l.299.007-.035 1.37-.298-.008zM371.883 349.028l1.073-.32.181.58-1.072.32zM364.608 337.449l.957-.51.18.283-1.022.478z" clip-path="url(#p5bdc11a835)" style="fill:#a9a9a9;fill-opacity:.8"/><path d="m365.745 337.222.235.469-.999.492-.258-.483z" clip-path="url(#p5bdc11a835)" style="fill:#a9a9a9;fill-opacity:.8"/><path d="m365.98 337.69.113.22-1.009.488-.103-.215zM369.23 340.905l1.082-.319.149.364-1.106.364zM368.29 341.88l.289-.099.117.343-.277.115zM369.501 341.62l1.119-.317.091.309-1.118.315zM365.084 338.398l.162.322.94-.45-.162-.322zM365.648 339.398l.98-.486.18.344-.975.488zM365.833 339.744l.16.309.865-.427-.16-.31zM367.699 340.076l.303-.113.291.723.17.392-.292.118z" clip-path="url(#p5bdc11a835)" style="fill:#a9a9a9;fill-opacity:.8"/><path d="m368.002 339.963.264-.101.29.723-.263.1zM369.703 342.287l1.055-.359.107.32-1.064.344z" clip-path="url(#p5bdc11a835)" style="fill:#a9a9a9;fill-opacity:.8"/><path d="m369.801 342.592.11.323 1.063-.345-.109-.322zM369.563 343.155l.108.378-1.068.313-.122-.372zM369.671 343.533l.112.37-1.076.306-.104-.363zM357.301 346.123l.37.018-.022.424-.37-.018zM357.498 346.835l.355.01-.017.532-.354-.01zM354.53 348.204l.398 1.25.611-.037-.351-1.267zM358.388 347.075l.528-.039.027.355-.528.039zM359.332 347.334l.356-.013.062 1.383-.333.004zM359.688 347.32l.625-.026.06 1.384-.623.026z" clip-path="url(#p5bdc11a835)" style="fill:#a9a9a9;fill-opacity:.8"/><path d="m368.707 344.209.13.332 1.047-.337-.101-.301z" clip-path="url(#p5bdc11a835)" style="fill:#a9a9a9;fill-opacity:.8"/><path d="m369.884 344.204.104.31-1.047.336-.104-.31zM396.144 457.148l-.096-1.394-2.296.024.096 1.425zM395.344 403.647l2.336 1.363-.975 1.646-2.344-1.378zM393.562 406.762l-.565 2.256 5.73 1.777.491-2.286zM393.26 401.98l-.376.773.514.257.44-.735z" clip-path="url(#p5bdc11a835)" style="fill:#a9a9a9;fill-opacity:.8"/></g><g id="PathCollection_1"><defs><path id="m77939e4e6f" d="M0 3a3 3 0 1 0 0-6 3 3 0 0 0 0 6z" style="stroke:#a9a9a9;stroke-opacity:.8"/></defs><g clip-path="url(#p5bdc11a835)"><use xlink:href="#m77939e4e6f" x="345.737" y="355.566" style="fill:#a9a9a9;fill-opacity:.8;stroke:#a9a9a9;stroke-opacity:.8"/><use xlink:href="#m77939e4e6f" x="357.662" y="373.438" style="fill:#a9a9a9;fill-opacity:.8;stroke:#a9a9a9;stroke-opacity:.8"/><use xlink:href="#m77939e4e6f" x="337.207" y="374.76" style="fill:#a9a9a9;fill-opacity:.8;stroke:#a9a9a9;stroke-opacity:.8"/><use xlink:href="#m77939e4e6f" x="340.237" y="373.807" style="fill:#a9a9a9;fill-opacity:.8;stroke:#a9a9a9;stroke-opacity:.8"/><use xlink:href="#m77939e4e6f" x="374.284" y="376.087" style="fill:#a9a9a9;fill-opacity:.8;stroke:#a9a9a9;stroke-opacity:.8"/><use xlink:href="#m77939e4e6f" x="177.892" y="154.293" style="fill:#a9a9a9;fill-opacity:.8;stroke:#a9a9a9;stroke-opacity:.8"/></g></g></g></g><defs><clipPath id="p5bdc11a835"><path d="M90 108.939h558V618.26H90z"/></clipPath></defs></svg>