<svg xmlns="http://www.w3.org/2000/svg" xmlns:xlink="http://www.w3.org/1999/xlink" width="960" height="960" viewBox="0 0 720 720"><defs><style>*{stroke-linejoin:round;stroke-linecap:butt}</style></defs><g id="figure_1"><path id="patch_1" d="M0 720h720V0H0z" style="fill:#fff"/><g id="axes_1"><path id="patch_2" d="M110.121 640.8H627.88V86.4H110.12z" style="fill:#fff"/><g id="LineCollection_1"><path d="M524.323 193.195v2.052l.129 3.719.904 3.077.387 2.95.388 2.693 1.033 2.693.774 1.667 1.034 3.078.774 2.437 2.066 2.051.904 2.565 1.292 3.719 1.808 2.693 1.291 1.154.646 2.693v3.078l.387 3.078.13 3.462.516 2.436v2.18l-.387 2.18.154 2.099 2.406 9.21 2.558 9.832 1.652 9.16.655 4.42.743 6.636 1 4.584 6.118 30.055.298 2.548.033 1.323-.525 3.142-.218 1.166-.044.573.028.529.51 1.619M488.965 367.475l.725-.28 1.429-.641 9.935-4.857 23.35-11.557 11.896-5.818 17.466-8.576" clip-path="url(#pc482d88d6c)" style="fill:none;stroke:#000"/><path d="m617.922 304.767-1.928.636-2.115.817-2.728 1.282-3.52 1.747-10.782 5.339-19.79 9.761-23.293 11.397M151.739 438.444l.482-4 .585-4.424.98-5.825M161.521 368.278l-1.056 6.835-1.275 9.585-4.217 32.671-.634 5.05-.153 1.045-.077.25-.125.21-.198.271M137.103 502.1l-2.288.125M137.103 502.1l.473-4.248M176.067 502.067l-7.83.073-5.992-.025-4.262-.012-5.686-.015-5.137.008-6.638.088-3.419-.084M161.521 368.278l-30.272-3.954M300.61 359.646l-1.447-.228-2.846-.302-2.4-.125-5.647.07-2.566.287-2.26.313-2.47.44-49.064 11.31-7.167 1.25-6.748.865-6.755.132-4.189.013-3.228-.177-3.172-.304-39.13-4.912M217.282 546.655l.308 5.775M175.902 548.658l2.57-.37 3.616-.396 1.125-.18 5.46-.93.723-.112.581-.028 2.906-.027 18.769.155 5.63-.115M217.334 502.54l-.033 4.312-.016 4.007-.073 5.49-.024 4.111.065 3.766.04 4.312-.016 5.426-.016 3.526-.105 4.487.126 4.678M175.902 548.658l-.06 8.268" clip-path="url(#pc482d88d6c)" style="fill:none;stroke:#000"/><path d="M175.74 524.23v.567l-.009.305-.031.114-.24.681-.067.299.004.27.079.621.048.179.125.236.28.443.08.124.046.138.004.161.008.875.007 2.192-.04.41-.206.833-.443 1.312-.124.455-.01.254v.13l.004.585.121 1.098.162 1.478.226 2.156.052 3.598.045 3.975.041.94M296.396 528.162l.663-.277.94-.581 1.1-.628.677-.392M304.097 520.428l-.097.705-.178.521-.193.433-.602 1.037-.714 1.162-.363.498-.525.448-.471.337-1.178.715" clip-path="url(#pc482d88d6c)" style="fill:none;stroke:#000"/><path d="m305.846 525.485-.887.44-1.104.32-.841.091-.892.01-.947.028-1.4-.09" clip-path="url(#pc482d88d6c)" style="fill:none;stroke:#000"/><path d="m296.01 526.122 1.586-.125h.533l1.647.287M175.842 556.926l24.636-1.353 1.626-.088 2.207-.176 1.874-.231 3.421-.535 1.856-.376 2.05-.565 3.036-.784 1.042-.388M249.02 542.788l-11.807 3.55-7.58 2.38-9.2 2.828-2.843.884M295.194 528.606l-8.288 2.465-37.886 11.717M241.176 572.62l3.817-4.276 2.244-2.725.702-.886.278-.316.348-.293.508-.332 1.215-.698 5.37-3.081 1.498-.81.216-.14.174-.16.117-.138.045-.103.022-.114-.007-.282-.016-.132-.161-.317-.495-.781-2.308-3.911-2.756-4.824-1.897-3.31-.648-1.363-.422-.84M239.582 599.956l2.102-.102 2.36-.28 1.453-.281.798-.146.21-.076 1.153-.567.864-.489 3.632-2.036 3.533-2.124 3.071-1.798 2.317-1.379 1.428-.867.787-.49.422-.255.082-.032.092-.01h.09l.072.013.332.205 1.037 1.204.468.729.143.15.115.07.105.024.143.004.198-.075 13.107-7.356M175.962 572.703l.02 7.441-.029 3.81-.177 4.448.032 2.524.21 3.895-.065 3.23.017 2.276" clip-path="url(#pc482d88d6c)" style="fill:none;stroke:#000"/><path d="m235.467 600.173-4.32.174-4.968.132-6.388-.044-3.8-.292-.846-.07-.723-.066-.458-.045-.539-.108-.667-.2-1.017-.377-1.849-.87-2.252-1.166-2.177-1.137-1.42-.675-.65-.277-.26-.094-.367-.014-.192.036-.174.08-.163.138-1.005 1.114-1.703 1.619-1.839 1.648-.56.41-.151.105-.078.035-.106.036-.3.038-.412.016-1.05.016-17.12-.01-.968.031-.975-.03M174.38 607.379l.993-3.59.556-2.3.04-1.162M175.842 556.926l.157 1.494-.053 8.08.016 6.203" clip-path="url(#pc482d88d6c)" style="fill:none;stroke:#000"/><path d="m241.176 572.62-6.728.031-14.346.068-11.83-.054-14.425.006-8.817.1-9.068-.068" clip-path="url(#pc482d88d6c)" style="fill:none;stroke:#000"/><path d="m239.582 599.956 1.303-2.643.593-1.025.121-.545.004-.793-.032-3.519.024-2.764-.076-.982-.061-.365-.15-.505-.06-.316-.072-1.262-.081-4.023.137-4.344-.056-4.25M142.152 558.67l.493-.091 1.428-.092 3.2-.093 1.15.016 1.985.178 1.692.127.493.018.873.016.696-.018.906-.12.534-.059 3.023-.31 4.76-.295 12.457-1.021M239.582 599.956l-4.115.217M371.853 374.388l1.534.59M371.853 374.388l-.313 2.567M371.853 374.388l-1.687-.605M371.853 374.388l.542-1.325M436.639 374.744l13.253-1.521M436.639 374.744l-7.658.898M428.98 375.642l1.25-1.058.776-.304 1.113-.305.985-.048 1.227.064 1.292.433 1.016.32M359.235 146.025l-.496 4.37-1.113 8.242-1.22 8.822-.138 1.17.018.873.193.866" clip-path="url(#pc482d88d6c)" style="fill:none;stroke:#000"/><path d="m372.332 193.26-.098-2.823-.194-1.378-.146-.537-.291-.81-.549-1.21-.564-.945-.792-.954-2.405-2.388-2.413-2.092-3.422-3.158-3.285-3.406-.822-1.203-.484-.898-.388-1.09M321.53 197.019l.42-.385 2.236-2.493 1.8-1.803.274-.465.154-.369.104-.36.097-.634.847-3.719.509-2.388.549-2.894.298-1.394.42-.561.404-.289.532-.216.63-.257.848-.256 2.316-.44 2.413-.266 1.284-.12 1.848-.224 1.073-.209.424-.086.317-.088.365-.162.831-.473.944-.481 1.054-.581.472-.188.392-.105.548-.076 1.328-.204 2.139-.305.985-.152.774-.312.59-.393.552-.513.626-.541 1.372-1.046 2.18-1.203M365.477 372.5l-.412-.055M365.477 372.5l.867-4.1M368.547 373.19l-.754-.177-1.928-.392-.388-.12M402.571 378.27l.049-.7M405.372 378.239l-1.202.048-1.599-.016M396.885 378.138l1.974.093 3.712.04M402.678 375.447l-.058 2.124M396.91 376.993l2.792.397 2.918.18M417.867 376.926l-.469-.202-.38-.144-.46-.088-.54.04-3.26.343-5.768.52-4.37.176M396.91 376.993l-.053-3.378M396.91 376.993l-.025 1.145M396.91 376.993l-7.962-1.551M370.166 373.783l-.363-.16-1.256-.433" clip-path="url(#pc482d88d6c)" style="fill:none;stroke:#000"/><path d="m372.395 373.063-.653-.023h-1.396l-.916.038-.883.112M375.646 375.826l-1.09-1.19M383.064 377.59l-2.349-.2-1.162-.265-1.114-.305-1.622-.569-1.17-.425M373.387 374.977l1.644.618.615.231M374.557 374.636l1.635-.233M374.557 374.636l-1.17.341M376.192 374.403l-.021-.947M376.192 374.403l1.362.064 3.681.274M388.948 375.442l-1.124-.387-.502-.103-.334-.05-1.115-.186M385.806 375.199l.777.107.783.136.799.008.783-.008M394.133 378.075l1.159.044 1.593.02M393.54 371.449l1.165.154M393.54 371.449l-.202 1.033M372.714 368.97l9.088.742 4.485.466 2.276.306 2.112.397 2.864.568M372.714 368.97l-3.832-.404M372.714 368.97l.377-3.17M372.714 368.97l-.199 2.072M366.344 368.4l-6.395-.896M366.344 368.4l2.538.166M366.344 368.4l.514-3.227M379.033 366.644l-5.942-.843M359.027 364.006l3.902.562M372.395 373.063l.12-2.021M372.395 373.063l3.776.393M373.09 365.8l-6.232-.627M373.09 365.8l.462-3.986M374.91 350.588l-.761 6.471M374.649 254.075l.07 1.123 1.13 9.762.645 6.196 1.067 9.529.904 8.303.226 4.392.323 10.194 1.007 28.22.252 5.09v1.73l-.082 1.428-.144 1.169-.323 1.507-.613 1.795-.76 1.574-.687 1.2-.565.841-.798.978-1.392 1.482" clip-path="url(#pc482d88d6c)" style="fill:none;stroke:#000"/><path d="m368.221 357.39.252-.531.323-.385 6.113-5.886M358.96 356.09l9.261 1.3M359.142 343.8l1.065 5.01v.472l-.04.626-.138.785-1.07 5.398M361.916 359.958l-1.032-.281-.814-.416-.606-.513-.714-.734-.121-.352-.004-.373.065-.285.108-.396.162-.517M372.515 371.042l-3.838-.421M393.338 372.482l-2.795-.343-4.545-.394-1.505.01-1.776-.016-10.202-.697" clip-path="url(#pc482d88d6c)" style="fill:none;stroke:#000"/><path d="m396.857 373.615-3.333-.313-.13-.072-.103-.113-.046-.176.093-.46M394.705 371.603l1.987.236.193.077.065.112.04.28-.133 1.307M394.133 378.075l-1.9-.078M394.133 378.075l.045.78M390.643 384.127l-.309-.01M390.643 384.127l-.001-.424M392.121 383.89l-.644.178-.834.06M370.96 382.113l8.074 1.073M370.96 382.113l-.497 4.078M370.96 382.113l.038-.382M370.96 382.113l-1.689-.14M370.099 388.935l.364-2.744M370.099 388.935l-1.638-.153M370.099 388.935l1.215.211M367.722 397.927l.09-1.594M367.722 397.927l.19 2.902M367.722 397.927l-3.26.072M367.722 397.927l4.943.137M370.166 373.783l-.35 2.847M366.858 365.173l-3.93-.605M366.858 365.173l.705-4.22M373.988 358.227l.16-1.168M373.988 358.227l-.357 3.017M373.988 358.227l-5.767-.837M379.88 357.325l.171 1.565-.04.114-.078.082-.11.046-5.835-.905M367.671 360.417l-2.428-.285M367.671 360.417l-.108.535M368.221 357.39l-.006.013-.544 3.014M367.671 360.417l3.195.443M367.563 360.952l3.167.455M367.563 360.952l-2.434-.35M373.631 361.244l-.08.57M373.631 361.244l-2.765-.384M373.631 361.244l3.717.53M373.552 361.814l3.703.545M373.552 361.814l-2.822-.407M428.98 375.642l-11.113 1.284M361.063 381.07l8.208.903M360.826 385.157l.09-2.869.147-1.218M361.103 380.622l-.02.176-.02.272" clip-path="url(#pc482d88d6c)" style="fill:none;stroke:#000"/><path d="m361.103 380.622-2.826-.372.021.482 2.765.338M369.271 381.973l.015-.374M369.271 381.973l-.603 3.975M368.461 388.782l-.465-.066M368.461 388.782l.262-1.938-.055-.896M368.461 388.782l-.105 1.694M354.132 397.728l4.101.027M354.132 397.728l.078-2.325M354.132 397.728l-.034.529M354.098 398.257l-1.847-.105-.063-.024-.042-.03-.025-.038-.016-.054-.008-.053v-.09l.006-.079.037-.059.05-.027.079-.016.185-.007 1.678.053M384.187 400.857l.114-.693M384.187 400.857l-.065 1.813M384.187 400.857l-3.291-.1M353.957 403.603l.079-2.765M353.957 403.603l7.482.067M353.957 403.603l-2.936.062M353.792 406.395l.09-1.508.075-1.284M367.884 403.834l2.899-.065M367.884 403.834l.028-3.005M367.884 403.834l.186 8.84M367.884 403.834l-3.786-.18M370.783 403.769l3.371.071M371.517 411.421l-.112-1.06-.032-.205-.052-.238-.196-.49-.13-.292-.093-.361-.021-.254.008-1.488-.106-3.264M368.127 424.495l-.068-.677M368.127 424.495l1.18-1.617M371.287 444.073l-1.411-8.307-.638-4.344-.621-2.997-.307-1.98-.183-1.95M371.976 528.953l.182-.964-.307-3.454-.677-5.185-.629-3.33-.5-3.254-.052-.565.032-.54.105-.313.388-.489.379-.224.456-.229.593-.124h.714l2.303.687.315.062.355.043.25-.014.274-.077.21-.11.17-.177.12-.183.313-.8.257-1.518.259-1.258.376-.975.54-1.31.864-1.867.618-2.056.049-.364-.09-.93-.403-2.436-1.646-9.477-.985-5.746-1.404-8.087-1.502-9.664-1.316-7.839-1.178-8.166-.146-1.718.024-2.229M605.784 562.734l-1.106.176h-.38l-10.016 1.387-.645.16-2.745.256-2.808.609-1.776.865-.613.13h-1.42l-.679.16-.613.288-1.098.737-.355.609-.129.705-.613 1.186-.517.45-1.194.608-2.809.225-1.485.513-1.905.288h-1.905l-.678.128-.646.256-2.615-.095-1.42.224-.871.096-2.002-.032-1.582-.32-1.26-.193-.612.064-4.488 1.763-1.42.032-1.292-.449-1.195-.609-1.452-.064-.678.129h-.678l-.55-.29-.451-.608-.549-.352-.743-.033-2.356-1.667-.645-.256-3.94-.577-1.29.16-2.745.45-1.324.416-1.388.032-2.066.513-2.002.64-.677-.192-2.357-1.25-1.227.45-1.033.833-.678.256-.581.385-1.227.352-.549-.288-3.293-.962-2.615-.128-1.55-.224-1.807-.834-.84.064-1.42.48-.614.354-.645-.064-1.389-.642-1.484-.544-.582-.353-.516-.449-2.325-1.154-1.194-1.539-.581-1.218-.485-2.116-.29-.576-2.486-6.54-.42-.545-1.678-1.442-1.163-1.667-1.162-1.7-1.873-3.3-1.13-3.207-.129-.673-.258-.577-.516-.449-1.744-.897-.548-.513-1.518-1.923-1.388-2.308-1.55-3.078-1.097-1.89-.517-.578-1.743-1.346-1.711-1.41-.582-.225-.774-.128-1.582.031-4.165-.416-3.035-.513-1.388-.257-1.614-.095-.581-.225-1.905-1.09-3.357-4.488-.291-.609-2.13-3.558-.84-1.122-.13-.705.066-3.398.16-.642-.193-2.756-.484-1.219-.452-.48-.581-.289-1.905-.288-1.898.198-1.422-.22-2.318 1.36-1.082-.133-1.59-.069-7.767.467-1.228.577-2.776.063-2.647-.64-.904-1.219-1.227-.449-.645-1.153-.258-1.283-.904-1.154-.97-.897-3.615-2.18-1.033-.898-2.195-2.949-.452-1.282-.194-1.347v-1.41l-.388-1.282v-1.41l-1.743-3.463-.516-1.346-.388-1.347-.904-2.564-.646-1.41-1.032-2.758-.065-1.474.193-1.283.452-1.346.646-1.218.84-2.051.13-2.757-1.647-2.109-.598-.72-2.02-1.663-.83-1.168-1.03-3.957-.339-.345-.188-.104-1.114-.227-4.267-.444-1.81.137-.621-.044-1.99-.256-5.17-.521-.496-.16-2.526-1.166-2.15-1.038-2.14-1.319-2.897-2.672-1.615-.946-2.243-.945-2.38-.666-1.778-.837M374.38 550.783l-1.101 4.749M371.245 538.317l.14 1.328.064 2.26.13 1.86.145.769.549 1.282 2.12 3.55.067.173.047.222v.228l-.126.794M382.324 552.68l-1.802-.46-1.885-.41-4.256-1.027M363.403 548.24l.625.093 2.236.506 3.951 1.057 1.949.464 2.217.423M361.075 552.571l12.204 2.96M361.075 552.571l-1.104 4.86M363.403 548.24l-.483-.072-.315-.016-.097.012-.09.027-.108.071-.144.194-.177.394-.914 3.721M373.279 555.532l6.889 1.754M373.279 555.532l-1.21 4.736M359.97 557.432l12.098 2.836M370.636 565.095l-3.978-1-1.155-.204-.78-.188-2.18-.685-3.201-.849-.16-.096-.06-.07-.06-.105-.017-.092-.003-.07.107-.477.822-3.827M389.963 559.781l-8.804-2.242M382.324 552.68l6.504 1.758 1.022.166.845.168.224.058.186.102.115.118.052.109.048.228v.146l-.098.561-.608 1.359-.278.973-.373 1.355" clip-path="url(#pc482d88d6c)" style="fill:none;stroke:#000"/><path d="m387.421 564.156.76-.633.484-.513.65-.641.185-.269.27-.44.057-.237.067-.326-.006-.459v-.521l.075-.336M372.068 560.268l6.81 1.725M372.068 560.268l-1.219 4.386M387.421 564.156l-7.484-1.895M387.421 564.156l-.303 1.913M370.85 564.654l-.214.441M377.694 566.778l-2.443-.67-1.19-.453-.398-.116-.557-.103-.53-.118-.602-.252-1.125-.412M386.654 568.989l-7.888-1.916M386.654 568.989l.464-2.92M388.693 569.55l-1.46-.397-.579-.164M362.929 364.568l.046-4.28M362.975 360.287l2.154.315M362.975 360.287l.056-.414M361.916 359.958l.298.108.366.102.395.12M367.652 370.523l1.025.098M376.17 373.456l5.052.656M381.235 374.741l4.571.458M381.235 374.741l-.013-.629M381.222 374.112l4.651.604M371.43 378.1l-.061.881M371.43 378.1l.06-.547M371.43 378.1l5.456.54.657.088.363-.016.496-.129M389.582 378.487l.004-.59M389.582 378.487l-6.543-.462M382.906 378.767l-.017.18.068.141.12.175.082.07.167.088.214.054.592.044 2.269.034 2.195.092.376-.024.18-.038.084-.058.155-.168.144-.25.047-.62M383.064 377.59l-.025.435M389.586 377.898l-1.963-.066-1.87-.104-2.69-.138M382.906 378.767l-4.504-.184M383.04 378.025l-.07.34-.064.402M371.49 377.553l.05-.598M378.402 378.583l-.504-.248-.67-.144-5.739-.638M394.178 378.855l-1.942-.051M405.372 378.239l-.573.433-.323.148-.432.12-.451.056-.36-.008-.62-.052-2.822-.168-5.613.087M392.121 383.89l1.597-.1.161-.06.105-.086.07-.122.06-.198.064-4.47M368.668 385.948l1.795.243M368.668 385.948l-7.843-.791M368.668 385.948l-.512.916-.16 1.852M385.25 387.27l-2.368-.063-1.888-.068-1.507-.204-1.016-.083-8.008-.66M360.826 385.157l-.121 2.576M367.813 396.333l-4.957-.348M367.813 396.333l.05-.693M371.54 376.955l-1.723-.325M369.817 376.63l-.25.604M369.525 378.792l-.02-.938M369.525 378.792l-.239 2.807M369.525 378.792l1.844.189M371.369 378.981l-.371 2.75M356.381 370.73l-2.345-.437M354.706 373.041h.424l.371-.072.328-.12.234-.226.318-1.894M365.065 372.445l-3.85-.763-1.759-.351-3.075-.602M354.706 373.041l-.67-2.748M353.714 375.141l.807-1.43.185-.67M300.61 359.646l3.778.673 4.955 1.058 26.304 5.289 11.348 2.296 3.595.73 2.946.528.5.073M353.381 375.905l-.438 1.1M353.381 375.905l.333-.764M353.381 375.905l5.758.699M369.505 377.854l.063-.62M369.505 377.854l-5.767-.672M369.568 377.234l-5.688-.719M353.714 375.141l5.537.67M365.065 372.445l-1.185 4.07M363.88 376.515l-2.232-.33M363.88 376.515l-.142.667M363.738 377.182l-2.181-.22M361.648 376.185l-2.397-.374M361.648 376.185l-.091.776M361.557 376.961l-.454 3.661M361.557 376.961l-2.418-.357M360.315 395.853l.22-3.193M360.315 395.853l2.541.132M360.315 395.853l-6.105-.45M360.588 390.212l-.053 2.448M360.588 390.212l.117-2.48M360.588 390.212l7.236.266M360.588 390.212l-1.643-.041M367.824 390.478l.007 2.646M367.824 390.478l.532-.002M367.824 390.478l.172-1.762M368.356 390.476l-.115 2.647M385.683 383.853l-3.073-.307M385.683 383.853l4.651.263M385.683 383.853l.026-.454M390.642 383.703l.773.062.706.126M385.71 383.399l3.718.22 1.214.084M370.998 381.73l8.092 1.005M370.998 381.73l-1.712-.13M369.286 381.6l-8.183-.978M390.334 384.116l.01 1.528M390.707 390.986l-2.744-.17M390.707 390.986l-.263-1.59M398.965 390.156l.41.557.186.339.127.357.095.332.105.894-.03.145-.032.066-.095.082-.094.033-.104.009-.398-.033-.585-.071-1.1-.145-.496-.008-1.667-.02-1.212-.136-.465-.096-.176-.062-.113-.059-.16-.128-.107-.138-.083-.129-.161-.232-.224-.172-.137-.095-.168-.078-.508-.154-1.066-.228M390.298 396.52l.433-2.28.016-.47-.012-1.049-.028-1.735M389.792 400.516l.271-2.533M389.792 400.516l2.924.46M389.792 400.516l-.473-.066M385.208 390.461l-.216-.083M385.208 390.461l1.367.34M385.208 390.461l-.058 1.05M385.659 406.263l-.258-.593M385.122 410.289l.11-.772.135-.963.292-2.291M386.763 408.626l.098-.383.033-.174.002-.143v-.116l-.027-.122-.042-.079-1.168-1.346M380.897 403.583l1.071.008M376.83 403.866l2.076-.088 1.99-.195M380.028 400.956l.262.473.225.352.131.36.118.375.058.305.075.762M381.968 403.591l1.983.086M382.927 404.967l-.392-.645-.567-.73M383.951 403.677l.171-1.007M384.003 404.797l-.04-.55-.012-.57M376.83 403.866l-.877-.065-.714.008-1.085.031M373.231 412.667l.632-.904.093-.212.046-.214.01-.177.002-.199-.022-.24.039-.498.05-.408.113-.62.016-.227-.002-.212-.03-.347-.06-.83.036-3.739M376.583 413.134l-.19-2.028v-1.278l.035-.219.04-.19.133-.34.043-.115.041-.26.145-4.838M380.896 400.757l-.448.087-.42.112M367.912 400.83l8.135.052 3.98.074M367.912 400.83l-4.89-.037M378.47 424.174l-3.023.366M378.47 424.174l-.088-2.344M384.467 416.96l.005 1.45-.327 3.056-.137.93-.11.928-.094.208-.137.159-.206.172-.262.184-.24.137-.537.154-2.447.296-.28-.012-.321-.054-.273-.094-.275-.124-.355-.176M371.483 416.227l-.07-2.034M371.483 416.227l-3.417-.074M371.629 420.697l.023-1.092-.037-1.214-.132-2.164M371.35 412.382l.063 1.81M371.35 412.382l.167-.96M371.35 412.382l-3.28.291M378.174 413.037l1.347-.768M378.174 413.037l1.307.29M376.583 413.134l.337.001.494-.024.29-.02.47-.054M379.521 412.27l-.04 1.056M379.521 412.27l-.008-.834M379.521 412.27l1.3-1.216M380.82 411.054l-1.307.382M382.862 410.38l-.573.169-1.469.505M385.122 410.289l-1.772-.009-.488.1" clip-path="url(#pc482d88d6c)" style="fill:none;stroke:#000"/><path d="m379.626 409.11 1.226.277.775.268 1.235.726M385.122 410.289l-.582 5.387M386.763 408.626l-.406.446-.513.53-.375.348-.347.339M354.304 392.282l-.094 3.121M354.304 392.282l6.23.378M354.304 392.282l-.013-1.981M360.535 392.66l7.296.464M367.831 393.124l.41-.001M367.831 393.124l-.027.55.016 1.164M368.24 393.123l-.096 1.734M354.036 400.838l.062-2.581M354.036 400.838l8.986-.045M354.098 398.257l4.18-.02M363.022 400.793l-.2 2.79M362.821 403.583l1.277.072M362.821 403.583l-1.382.087M361.39 406.385l.036-.884.013-1.831M364.098 403.655l-.067 1.899M349.112 399.95l.062-1.935.15-1.347.126-.615.138-.564.101-.172.114-.083.108-.048.116-.033.143-.012.23.016 1.14.177.56.024 2.11.045M368.144 394.857l-.324-.019M368.144 394.857l2.657.188M368.144 394.857l-.28.783M371.314 389.146l2.874.169M371.314 389.146l-.034 1.5M370.801 395.045l2.691.293M371.28 390.645l-.13 1.098-.193 1.423-.156 1.879M386.791 347.647l-3.485 2.036-1.55.954-7.607 6.422M390.344 385.644l.1 3.753M386.226 387.35l.297-.007.213-.028.23-.024.476-.112.902-.17.73-.169.432-.196.228-.158.243-.246.17-.241.197-.355M384.992 390.378l-2.536-.176M384.992 390.378l.247-1.9M385.25 387.27l.976.08M385.239 388.477l.018-.278-.008-.483v-.447M390.298 396.52l-.235 1.463M387.231 396.796l.405.028.498.026.586-.062.466-.054 1.112-.214M373.492 395.338l5.628.513M373.492 395.338l.388-3.36M374.188 389.315l5.58.534M374.188 389.315l-.308 2.663M378.834 398.81l.286-2.959M379.767 389.849l2.69.353M379.767 389.849l-.647 6.002M379.12 395.851l2.632.382M381.752 396.233l-.149.792-.016.422.008.473.01.275-.016.224-.016.207-.141.418-.194.357-.09.154-.056.162-.054.313-.142.727M382.338 392.971l-.025-.883.038-.734.105-1.152M384.617 396.573l.401-3.81M384.617 396.573l-2.865-.34M384.617 396.573l2.614.223M384.3 400.164l-.078-.388-.02-.381-.004-.473.044-.495.234-1.026.14-.828M387.963 390.816l-.065 2.193-.05.802-.035.324-.582 2.661M387.963 390.816l-1.388-.015M384.003 404.797l-1.076.17M385.4 405.67l-.31-.084-.295-.133-.274-.188-.194-.176-.324-.292M373.231 412.667l-.49-.335-1.224-.91M384.54 415.676l-.03.553-.043.732M400.641 409.942l-.168 2.346-.33 1.49-.05.233-.125.25-.128.17-.673.42-.212.117-.166.065-.16.028-.156.012-.346-.015-.37-.059-.567-.044-.226.012-.252.064-.293.108-.228.159-.494.454-.434.385-.569.323-.512.204-1.4.345-1.187.336-.878.142-.207-.02-.88-.144-5.163-.362" clip-path="url(#pc482d88d6c)" style="fill:none;stroke:#000"/><path d="m386.763 408.626 7.359.62 1.097.033.557.04.21.052.314.084.426.128.317.062.431.043 3.167.254M392.716 400.977l2.8.32 2.738.613.536.204 1.73.82.562.328.142.142.06.116.02.104v.273l-.028.445-.182 1.434-.4 2.052-.055.605v.429l.002 1.08M390.444 389.397l8.52.76M417.867 376.926l-4.878.55-.772.065M405.372 378.239l1.025-.04 4.06-.425 1.76-.233M435.639 424.081l-.541-.657-.404-.345-.782-.593-1.304-.95-.125-.207.213-.245-.282-.85-.161-.304-.267-.244-.355-.317-1.715-1.811-1.654-1.643-.67-.674-.598-.882-.298-.704-.194-.954-.355-1.964-.137-1.001-.057-1.242-.048-6.917-.29-2.404-.598-1.732-.84-1.602-1.033-1.668-.29-1.073-.162-1.315-.241-.946-.372-.945-.759-1.218-.839-.946-2.453-1.956-1.857-1.378-1.162-1.09-1.146-1.218-.5-.641-.3-.666-.314-1.057-.532-2.18M386.989 402.951l-.491.541-.343.449-.177.31-.318.765-.26.654M389.319 400.45l-5.018-.286M389.319 400.45l-.007.412M390.063 397.983l-.191.386-.089.12-.289.337-.07.178-.028.176-.034.447-.043.823M384.122 402.67l2.867.281M389.273 403.37l.803.07.23-.008.335-.048.145-.062.252-.168.186-.16.424-.66.18-.204.154-.146.396-.327.123-.14.107-.183.108-.357M389.273 403.37l-2.284-.419M389.273 403.37l.039-2.508M389.312 400.862l-.376.186-.392.272-.28.237-.386.404-.889.99M371.263 420.871l.366-.174M369.308 422.878l.968-1.268.41-.38.316-.186.26-.173M370.04 422.832l.441-.51.473-.746.309-.705M375.32 421.74l-2.444.008-.175-.01-.109-.025-.068-.026-.08-.056-.139-.153-.191-.218-.485-.563M375.32 421.74l3.062.09M375.32 421.74l.127 2.8M375.447 424.54l-.099 1.598M371.109 424.178l.115.134.244.118.35.056.757.058 2.872-.004M378.382 421.83l.278-.009.207-.002.16.002.126-.017.106-.06.09-.08.056-.121.04-.361.054-1.487M379.481 413.326l-.057 1.519-.016 2.412.09 2.438M384.54 415.676l-.389.283-.16.096-.216.068-.812.068-.339.068-.141.066-.097.117-.107.156-.117.238-.319.46-.321.358-2.023 2.041M368.07 412.673l-.004 3.48M365.076 412.432l.486.055.317.048.539.08.784.034.868.024M363.557 413.049l-.197.128-.141.067-.34.104-.348.079M363.481 415.102l-.713-.93-.183-.391-.054-.354M362.42 411.494l-.018.46.027.46.102 1.013M368.059 423.818v-.918l.007-6.747M369.308 422.878l.733-.046M382.338 392.971l-.08.473-.251.928-.255 1.86M352.943 377.005l-.04.393-.046 1.545M362.84 398.216l.003-.43M362.84 398.216l-3.452.016M364.463 397.999l-.679.175-.945.042M362.856 395.985l-.013 1.802M362.843 397.787l-3.443-.024M364.463 397.999l-.663-.129-.957-.083M349.086 400.765l.12.987.222 1.532.032.1.039.055.073.071.123.073.1.032.199.035 1.027.015M349.086 400.765l1.133.46.312.15.197.13.125.097.097.104.087.124.07.112.04.117.01.152-.136 1.454M350.994 407.766l.04-2.93-.013-1.171M349.086 400.765l.026-.815M361.356 411.503l1.064-.01M361.31 409.734l.019.787.027.982M360.199 412.352l.161-.048.2-.1.155-.097.345-.282.103-.098.193-.224M363.978 407.062l.208 3.084-.019.307-.066.162-.085.112-.274.195-.36.216-.962.356M353.926 408.029l-.134-1.634M353.926 408.029l-.123 4.95M356.686 407.972l-.864.065-1.896-.008M361.39 406.385l-1.208.167-.54.062-.295.072-.4.204-1.016.836M356.686 407.972l.686-.13.559-.116" clip-path="url(#pc482d88d6c)" style="fill:none;stroke:#000"/><path d="m357.027 409.239.43-.377.1-.164.071-.163.303-.81M361.39 406.385l1.322.203M361.31 409.734l.08-1.577v-1.772M363.978 407.062l-.527-.262-.262-.112-.178-.05-.299-.05M364.031 405.554l-.455.05-.177.074-.123.078-.125.14-.439.692M363.978 407.062l.053-1.508M357.027 409.239l-.08-.433-.26-.834M356.99 409.98l-.1 1.51-.178 1.367.054 2.205M363.557 413.049l.276-.2.185-.12.355-.176.265-.066.438-.055" clip-path="url(#pc482d88d6c)" style="fill:none;stroke:#000"/><path d="m368.059 423.818-.612.152-.301.034-.442.01-.283-.075-.31-.154-.308-.28-.386-.734-.26-.675-.107-.471-.025-.55.105-.564.053-.329.04-.73.054-.36-.014-.452-.08-.455-.017-.335.19-3.43.012-.842-.036-.509-.256-.637M363.481 415.102l.06-.68.016-1.373M363.481 415.102l-.14.772-.07.241-.106.404-.363.866-.125.429-.09.617-.088.898-.21 1.368.029 2.446M356.99 409.98l2.054-.246h2.267M356.99 409.98l.037-.741M350.809 421.33l.148-6.583M353.803 412.98l-2.762.172M353.338 429.844l.545-.45.165-.392.081-.289.055-.416-.008-.277-.016-.176-.047-.217-.08-.225-.182-.64-.13-.365-.173-.372-.383-.742-.15-.513-.102-.402-.009-.293.017-.182.063-.178.06-.134.173-.301.307-.545.254-.581.17-.653.055-.345-.2-8.176M351.041 413.152l-.084 1.595M351.041 413.152l-.084-1.505M353.792 406.395l-2.798 1.37M350.994 407.766l-.007.502M350.987 408.268l-.03 3.38M340.126 404.466l.311.189.214.244.367.65.105.244.072.316.04.293-.016.444-.012.926.057.557.109.357.267.372.197.116.295.1.528.013.747-.169.767-.28.952-.344.706-.153 1.061-.094.937-.048 3.157.07M368.677 370.62l.205-2.054M363.031 359.873l-.322-.005-.254.018-.539.072M394.705 371.603l.593-3.583M287.043 466.073l1.497-2.213.34-.573.378-.793.23-.585.437-1.439.218-1.094.068-.685-.077-1.951-.185-3.888.088-5.954-.08-3.855-.049-1.41-.226-1.299-.165-1.038-.234-1.214-.146-.986v-.384l.093-.513.654-1.623.98-1.575.578-1.142.274-.761.117-.377.09-.5.088-1.488.226-3.19.367-3.113 1.02-7.986.671-5.017.31-1.735.17-.69.658-2.592 1.11-4.012 1.872-6.843.456-1.36.299-1.049.068-.353.089-.512.056-1.102.057-1.002.146-2.429.395-3.55.226-4.248.194-4.52.226-7.79-.016-5.994M287.043 466.073l-.912 1.35-1.283 1.606-1.072 1.417-.339.385-.109.22-.103.41-.726 6.364M304.097 520.428l-1.178-2.388-1.098-1.988-1.884-4.027-.594-.894-.557-.817-.193-.32-.464-.393-.384-.253-.365-.134-.821-.166-.468-.16-.29-.145-.178-.208-1.034-1.186-1.436-1.78-1.534-1.859-3.099-4.343-.743-.865-.532-.642-4.149-5.113-1.17-1.506-.254-.417-.319-.706-.09-.488-.015-.493.105-1.327 1.146-9.985" clip-path="url(#pc482d88d6c)" style="fill:none;stroke:#000"/><path d="m255.109 474.344.215.026 7.635.954 6.19.778 8.362 1.058 4.988.665M306.007 523.152l.048.373.044.51-.059.73-.079.423-.05.152-.065.145M308.827 524.29l-1.062.33-.775.244-.532.264-.612.357" clip-path="url(#pc482d88d6c)" style="fill:none;stroke:#000"/><path d="m304.097 520.428.662 1.538.242.417.194.272.355.321.457.176M308.827 524.29l-1.195-.496-1.372-.545-.253-.097M310.283 525.673l-.3-.733-.414-.361-.742-.288M296.396 528.162l-.22.092-.982.352" clip-path="url(#pc482d88d6c)" style="fill:none;stroke:#000"/><path d="m312.321 528.722-2.934.049-1.238.072-.658.064-.4.08-.427.172-.654.385-.98.569-.82.437-.565.184-.4.091-1.468.049-1.316-.024-.815-.148-.642-.193-.775-.264-.871-.32-1.437-.551-.727-.768M310.283 525.673l.312.784.62 1.232 1.106 1.033M321.007 525.392l-1.559.598-.958.222-.668.293-.351.184-.735.39-.746.325-.905.396-.94.41-.275.093-.588.219-.96.2M310.283 525.673l1.556-.268 1.072-.023.906.165 1.169.048 2.741-.048 1.86-.118 1.42-.037M371.976 528.953l-3.456-.56-1.824-.201-.787-.023-.498.023-.571.074-1.344.164-1.372.22-1.013.136-1.146.157-.535.006-.622-.064-.706-.169-.453-.118-5.594-1.871-2.94-1.1-.676-.337-.686-.455-.778-.408-.558-.337-.625-.27-.49-.14-.55-.065-.451-.01-.583.065-.918.12-.689.03-.77-.032-.586-.043-1.194-.192-.916-.078-.359-.018-.585.053-.418.14-.188.032-.461-.005-.426-.027-.59-.048-1.174-.053-1.081-.06-.58.04-.671.124-1.042.157-2.066.449-4.39.64-1.744.225-.936.128-.927.14M370.57 534.638l-.073-.518.138-1.126.287-.796.515-1.112.352-.905.187-1.228M371.245 538.317l-.152-1.44-.522-2.239M493.944 601.801l-.485-1.185-.646-1.54-.613-1.602-1.485-2.244-.226-.61-.387-.96-1.066-1.315-.549-.994-1.807-3.622-.614-.994-.517-.769-.452-1.122-1.226-2.02-4.036-7.725-1.55-3.366-2.518-4.007-.742-1.122-1.194-1.378-.517-.801-1.001-1.122-3.583-2.244-3.39-1.763-1.162-.32-1.873-.322-1.194-.48-2.066-1.187-2.713-1.41-1.226-.384-1.162-.353-1.518-.577-1.775-.834-1.292-.577-1.614-.64-1.711-.642-1.55-.77-1.646-.928-3.035-2.34-1.743-.674-.775-.417-1.711-.513-1.937-1.058-1.743-.705-2.099-.673-2.034-.48-5.262-1.796-1.066-.48-.968-.225-1.873-.513-1.356-.673-2.615-.577-4.89-1.483-1.982-.497-1.501-.316-1.853-.36-1.67-.313-1.885-.353-1.864-.212-1.461-.133-.739-.068-.44-.012-.439.062-.36.134-.809.292-.471.17-.525.138-.313.072-.436.012-.678-.066-1.731-.22-1.913-.197-1.872-.177-1.409-.18-1.912-.268-1.809-.224-1.969-.225-2.752-.26-.674-.012-1.094.08-1.969.16-2.63.346M605.784 562.734l-.816 2.524.065 1.731-.323 1.09-.516 1.41.452 1.667.71.898 1.033.962M601.159 620.586l-1.905.48-.84.353-1.387.417-1.647.417-1.905.576-1.646.578-.969.512-9.523 2.565-1.389.16-.549.064-1.775.193-3.842 1.058-5.779 1.25-3.196.544-1.42.128-2.034.257h-1.808l-1.453-.064-3.1-.16-4.422-.449-10.977-1.058-2.938-.16h-1.743l-1.291.096-1.066-.224-1.647-.225-1.355-.16-1.97-.993-2.647.063-.743.032-1.549-.16-1.42-.673-3.584-.961-1.873-.161-1.581.128-.775.45-.969.127-1.226-.224-1.809-.641-1.097-.897-2.938-2.02-.581-.513-.614-.801-.742-.802-.936-.737-.614-1.09-.516-1.378-.452-.994-.55-.962-.16-.961-.097-.994-.517-.77-1.194-1.634-1.162-1.891-1.486-3.462-.613-1.058-.775-1.026-.42-.93" clip-path="url(#pc482d88d6c)" style="fill:none;stroke:#000"/><path d="m388.693 569.55 1.78 1.422 1.546 1.302 1.46 1.327 1.66 1.238.536.444.484.445.351.4 1.118 1.584.823.898.704.648.295.257.194.14.19.123.16.094.138.051.143.02.22.013.975-.146.263-.045.143-.01.11.01.12.018.153.045.142.056.36.238.908.767.678.51 1.283.832 1.082.63.234.12.3.112.253.06.228.024.256-.004.432-.076 2.458-.677.972-.22 1.594-.277 2.054-.156 9.137 2.66 4.39-1.602 2.067.32 2.776-.577 7.167 2.116 2.066.256 7.167 9.168.065 1.539 1.808 2.115 3.422.77 3.422 1.282 2.583 3.59.322 2.757 1.486 1.73.903 2.566 8.33 3.461 12.461-.961 6.65 2.436.453-1.347-.13-8.334-1.226-2.5 1.937-.641 1.195-.77M605.784 562.734l.346-1.066-.064-6.989-.064-2.051-.194-1.538-.71-2.5-.388-3.079-.581-2.308-.645-3.974-.517-8.335-.323-1.026-.84-.897-7.296-3.334-2.26-1.475-.774-1.282-.452-1.603-.324-2.18-.903-2.756-1.485-2.95.194-1.987.774-2.436.194-2.052.194-3.206.209-1.838M488.361 369.87l.264.483.314.913.331 1.395.533 2.34.388 2.837.145 2.116.266 2.453.154 1.09.056 1 .226 1.372.355 2.853.613 1.57.452 1.443v1.378l.582 7.823.258.769.29.32 1.356.482 4.359 2.02 2.42.608 4.101.61 2.906.384 6.908.609 1.711.128 1.26.225 2.195.128.871.256.485.257.258.48.161.61.227.994 1 12.15.355 2.275.484.77.743.224 1.195.257 5.036.448 1.291.225.872-.32.743-.514.774-.256.904-.417 1.065-.257 2.196-1.506.71-.802.936-1.442.42-.417.84-.064 1.033.128.807.065.807-.032 1.808-.481 1.904-.738 1.13-.288 1.002.064.451.257 4.908 4.936.452.962.225.737.033.866-.162.801-.258.77-.032.705v.641l2.002 5.418.838 1.346.646 1.026.452.61.161 1.025.065.673.259.962.193.833.291.801 2.324 3.783 2.809 3.75 1.323 1.38 1.13 1.634 1.486 1.732 1.033.929 3.422 3.206 1.033 1.378.84.994 1.452 1.218 4.004 3.462 1.194 1.539.872 1.154.58.834.775.737 1.034.801.645.834.323.705.743 2.308.549.834.742.897 1.162 1.122.42.866.194 1.186-.323 2.885-.71 5.097-.226 2.148-.227 1.09-.29.48-.71.417-.775.225-.775.224-.58.256-.68.45-.386.48-.356.706-.322 1.025-.13.834.388.673 2.873 3.494 1.227 1.314.403.534M487.236 368.097l.396.572.307.473.422.729M488.361 369.87l-.08-.58.008-.396.118-.457.153-.353.405-.609M484.952 368.798l2.357.625.516.168.536.28M487.236 368.097l-1.065.348-1.219.353M449.892 373.223l30.242-3.472 1.792-.256 1.59-.336 1.436-.361M617.922 304.767l-.338-1.905-.533-3.174-.686-3.734-.275-1.067-.75-2.66-.17-.834-.226-3.126-.137-.73-.202-.408-.46-.553-.42-.745-.508-1.5-.42-1.033-.411-.505-.679-.577-.43-.329-.137-.16-.031-.116-.003-.157.037-.208-.033-.336-.141-.577-.226-.734-.036-.272.024-.236.287-.642.157-.533.089-.565.048-.77-.048-2.147.048-.569.162-.537.31-.754.15-.276.274-.353.75-.629 2.228-1.627M488.965 367.475l-.93.36-.8.262M449.892 373.223l-.218-1.5-.121-.72-.17-.266-.492-.352-3.487-1.956M124.146 228.364l-.767.474-.791.44-.758.265-.792.192h-.96M137.027 216.887l-2.744-2.757-.339-.488-.428-.939-.323-.56-.282-.217-.606-.32-.935-.514-.662-.4-.558-.369-.726-.633-.645-.73-1.001-1.001-.598-.465-2.05-1.363-.686-.584-2.058-1.932M150.344 235.402l.993-.746 1.953-1.198 1.267-.349.993-.224.936-.345.509-.424 1.17-1.134.077-.185-.016-.14-.146-.189-.197-.196-.816-.705-.928-.593-1.122-.593-1.105-.409-1.033-.49-1.001-.528-8.168-5.386-6.683-4.68M124.146 228.364l.145-.577.258-.448 1.502-1.539.516-.529.388-.337.42-.192 5.68-1.475 1.664-.336.435-.129.372-.208.177-.24.097-.37 1.227-5.097M131.249 364.324l2.776-5.737.339-.89.29-.817.089-.56.024-.674-.065-1.234-.12-.882-.38-1.539-.678-2.348-.743-2.997-.314-1.595-.13-1.098-.556-4.56-.162-2.213-.112-.825-.202-.777-.291-.594-.363-.449-.363-.392-.638-.617-.307-.489-.169-.425-.08-.329.024-.464.46-4.817.928-9.818 1.049-9.922.936-9.04.113-1.876-.048-1.539-.121-3.294-.09-3.775-.128-2.196-.194-1.667-.258-1.683-.63-2.196-1.388-3.863-1.743-4.216-1.679-4.729-.775-2.532-.323-.994-.274-1.443-.146-1.811-.112-2.741.274-2.1.42-1.347.726-2.164 1.437-4.568.323-2.148-.033-.962-.064-.64-.259-.674-1.371-2.837-.743-1.203-.355-.785-.275-.882-.226-1.041-.177-1.572-.357-3.16.131-3.22M349.936 116.565l1.027 2.19M349.936 116.565l.73-.162M350.933 97.062l-2.235 7.374-.42 1.41-.162 1.492-.08 1.482.12 1.988.202 1.267.541 1.9.768 2.019.269.571M350.963 118.756l-.078-1.167-.218-1.186" clip-path="url(#pc482d88d6c)" style="fill:none;stroke:#000"/><path d="m350.59 100.072-.133.268-.125.35-.081.44-.31 2.048-.223 2.063-.52 5.856v.938l.097.697.266.793.831 2.052.275.826M359.235 146.025l.44-3.87.088-2.709-.323-2.156-.532-1.827-.873-1.884-4.834-10.05-2.238-4.773M377.64 117.87l1.146 1.915.315.65.177.528.146.866.072.93.218 1.01.347 1.026.517 1.202.194.505.137.473.016.553-.105.841-.153 1.179-.364 1.98M370.49 106.071l-.26 1.908-.08.946.033.721.177.721.355.674 1.647 2.404.646.497.693.337 1.147.48.71.29.5.4.5.497.42.593.662 1.33" clip-path="url(#pc482d88d6c)" style="fill:none;stroke:#000"/><path d="m396.599 117.316-.944 1.034-.566.465-.645.433-.92.521-.936.353-1.86.308-1.409.27-1.356.215-1.021.06-1.13.032-1.505-.14-.904-.124-.54-.136-.582-.265-.702-.525-3.939-1.948M409.948 102.657l-1.5-.89-1.453-.745-1.744-.762-.613-.248-.29-.064-.429-.04-4.422-.28-9.193-.554-6.215-.305-.218.064-.145.153-.04.176-.307 2.284-.646 3.687-.065.482-.08.192-.131.094-.136.042-.242.024-2.325-.152-.476.016-.306.032-.371.152-.468.337-.202.192-.218.088-.363.017-6.86-.578M350.59 100.072l4.935 1.302 2.713.722.984.352 1.162.658 2.228 1.427 1.081.529 1.421.416 3.616.449 1.76.144M350.933 97.062l.157.276.029.135.026.335-.022.211-.533 2.053M359.235 146.025l4.926-.76 1.938-.16 1.84.032 1.856.177 3.1.224M389.415 263.361l2.14-.356 5.343-.706" clip-path="url(#pc482d88d6c)" style="fill:none;stroke:#000"/><path d="m374.649 254.075 1.716-.095.415.048.372.08.327.185.339.252.658.617.435.489.376.345.44.292.467.208.909.31.31.108.888.268 1.32.292.69.109.755.108 1.04.036.235.012.157.068.116.092.134.257.913 1.911.415 1.098.444.934.496.786.4.476M391.022 266.15l-.27-.484-.445-.83-.892-1.475M372.872 210.44l.046 2.496.591 11.231.241 4.895.363 11.405.194 7.59.13 2.59.212 3.428M372.872 210.44l-.042-2.281-.273-8.456-.225-6.444M350.187 191.897l2.481.184 1.01.12.637.16.989.27 1.707.596.452.128.605.008.565-.063 1.09-.249 2.865-.962 2.147-.81.758-.272.565-.088 1.283.144 1.566.553 1.614.762 1.811.881M264.678 282.529l-.952-1.7-.759-1.025-1.307-.962-.452-.337-.824-1.202-.468-1.074-.387-1.074-.387-1.434-.04-.498.072-.32.161-.2.404-.176 1.073-.257.912-.136 1.017-.049.896-.128.55-.216.895-.505.791-.497 3.632-1.763 2.058-1.154 1.114-.866 3.81-3.262 1.853-1.244.366-.341.18-.329.086-.314.105-.415.085-.623.068-.685.202-3.94.146-1.703.233-1.867.21-.682.29-.672.485-.666.621-.6 3.625-2.245.758-.697 1.138-1.251.726-.817 1.316-1.075 1.227-.769 1.38-.673.84-.256.83-.337 2.26-1.347 5.602-3.718 1.606-1.155.573-.4.484-.433.234-.481.097-.593-.04-1.467.016-.336.04-.16.101-.189.279-.285.5-.553.129-.26.016-.252-.024-.786-.018-.389-.105-.268-.125-.22-.196-.165-.67-.81-.968-1.234-.335-.579-.125-.238-.158-.37-.083-.335-.01-.205.154-.34.198-.237 3.224-3.559.367-.413.105-.216.045-.336-.033-1.215-.54-2.825-.114-.793-.004-.437.09-.26.2-.217.344-.116.428-.028 2.058.088 2.785-.425.427-.184.525-.417.323-.545 1.864-4.761 1.808-5.418.573-1.347.621-.729.582-.473 1.348-.793 1.387-.858.428-.392M372.872 210.44l-3.146.569-.58.056-.58-.086-.353-.159-.5-.36-2.68-2.277-1.097-.497-.775-.096-.856.272-1.291.818-3.091.914-1.01.384-.451.29-.436.508-.492.501-.372.204-.428.06-.447.004-.295-.12-.19-.196-.992-1.483-.335-.3-.375-.116-.32.007-.266.068-.387.333-.299.317-.298.204-.602.269-.795.172-1.138.048-2.946-.12-3.075-.056-2.34-.193-1.905-.297-1.574-.336-1.5-.36-1.107-.47-1.283-.877-2.078-1.671-2.006-1.439-1.574-1.266-1.687-1.275-1.424-1.326-.517-.55-.577-.897-.193-.489-.172-.663-.117-.405-.39-1.04M370.866 360.86l-.136.547M365.243 360.132l-2.212-.26M365.243 360.132l-.114.47M385.873 374.716l-.067.483M379.034 383.186l.056-.451M382.61 383.546l-2.786-.279-.79-.081M379.09 382.735l3.58.359M359.251 375.81l-.112.794M377.348 361.773l-.093.586M377.255 362.359l2.113.31.054.003.04-.02.028-.027.01-.048-.001-.409-.029-.058-.05-.032-.103-.024-1.97-.28M134.003 524.579l.264-.288M134.003 524.579l-.773 1.258M132.757 525.384l.844-.508.402-.297M126.309 560.322l6.23-.522 6.671-.532 1.352-.169 1.037-.288.553-.14" clip-path="url(#pc482d88d6c)" style="fill:none;stroke:#000"/><path d="m133.23 525.837-.63.653-2.09 1.836-.686.7-.448.65-1.02 2.15-.094.499-.032.176.01.204.083.23.201.343.352.389 1.081.817.509.514.346.568.295.733.069.538.024 1.23-.057 1.807.049.45.087.297.115.206.516.726 2.187 2.696 1.433 1.635.258.397.371.701.747 1.447.309.422.333.23.343.13.464.12.65.244.588.408.783.738 1.114 1.206.31.585.163.408.213 1.179.093.677v.497l-.02 1.418-.097 1.98M121.926 591.037l.597-.832 2.539-3.578.743-1.506.217-.425.529-.677 1.784-2.385 1.235-1.743.976-1.262 1.93-2.4.217-.272.12-.22.031-.131.01-.186.061-3.254-.012-1.23-.073-.457-.17-.477-.443-1.201-1.275-3.246-1.004-2.797-.294-.537-.289-.413-.23-.218-.35-.189-.21-.058-.257-.013-.526.001-1.205-.006-.1-.043-.044-.057-.046-.083-.094-.478.016-.342M137.576 497.852l.77-4.792.392-3.07.38-1.907.338-1.066.993-2.228 2.026-4.965 1.03-3.045.394-1.627.364-1.995.605-9.593M148.615 460.507l-.355 2.303-.093.377-.21.3-.234.16-.302.143-.436.06-2.117-.286M151.739 438.444l-.112.92-1.138 7.27-1.874 13.873" clip-path="url(#pc482d88d6c)" style="fill:none;stroke:#000"/><path d="m227.3 470.685-1.766-.266-4.23-.609-3.768-.416-3.842-.393-5.214-.569-1.163-.112-2.905-.465-5.48-.769-5.327-.722-6.425-.76-6.812-.895-4.06-.544-1.057-.048-1.141-.017-.436-.024-.493-.104-.69-.204-.371-.084-.88-.125-6.497-.873-16.128-2.18M227.68 470.743l-.298 2.53-.42 2.452-.395 3.799-.565 5.657-.472 4.525-.053.789-.093.236-.185.14-.25.057h-.52l-1.543.008-5.012.016h-3.963l-5.383.04-8.442.032-5.73-.048-7.805.024-8.341-.064-1.461.08-.158.04-.177.084-.122.16-.145.26-.08 1.235.007 5.04-.007 4.232M175.74 524.23l.183-.262.067-.154.047-.209.018-.38.125-3.366-.121-6.107-.025-6.928.033-4.757M134.815 502.225l1.09-1.74 1.078-1.831.593-.802" clip-path="url(#pc482d88d6c)" style="fill:none;stroke:#000"/><path d="m134.267 524.29.104-.164.133-.323.162-.859.061-1.138.113-8.03-.154-5.85.009-4.905.12-.796M175.74 524.23l-3.677.043-2.308-.023-3.426-.008-2.51.032-2.756-.027-1.732.012-2.453-.02-3.233-.037-4.346.077-2.684-.008-1.101-.02-3.862.068-4.149.032-3.236-.06M139.186 442.602l.364-.088.217-.044.206-.004.42.032.56.16.39.14.262.065.624.04.73-.013.497-.06.59-.083.26-.117 2.81-1.823 1.574-.681 1.14-.59.77-.48.232-.136.907-.476M227.3 470.685l-.439-.638-.367-.489-.313-.449-.078-.114-.063-.174-.143-.54-.194-.686-.447-.926-.586-1.194-.266-.205-.15-.068-.254-.12-.242-.124-.295-.134-.076-.054-.087-.112-.149-.263M227.3 470.685l.38.058M132.757 525.384l.473.453M255.109 474.344l-9.333-1.144-10.79-1.394-6.417-.93-.89-.133M318.786 489.445l-1.146-.016-1.485-.06-.827-.172-1.147-.378M308.028 484.096l.847.89 1.223 1.093.393.349.246.134.402.167.226.107.17.147.75.76.47.406.27.205.223.136.323.154.363.094.247.081" clip-path="url(#pc482d88d6c)" style="fill:none;stroke:#000"/><path d="m306.478 477.452.264-.11.862-.343 1.013-.192 1.46-.325.36-.056.29-.027.234.003.148.02.349.17 2.368 1.265.776.581.76.55.428.433.172.143.29.188.203.09.086.045.039.04.038.05.026.083.001.094-.066.29-.198.418-.23.439-.18.38-.05.099-.028.122-.004.269.052.939.045.621-.053 1.363-.06.332-.089.245-.4.629-.342.344-.158.22-.133.313-.57 1.642M308.028 484.096l-.707-.786-.225-.172-.396-.184-.408-.108-.984-.225-.25-.056-.243-.124-.089-.168-.048-.325v-.453l.02-.5.045-1.463.062-.435.156-.493" clip-path="url(#pc482d88d6c)" style="fill:none;stroke:#000"/><path d="m305.764 477.496-.545.848-.258.26M304.616 477.178l.032.607.036.268.045.185.097.2.135.166M306.478 477.452l.428.954.167.375.06.17.093.362.29 1.096.193 1.074.27 1.423.049 1.19M305.764 477.496l.367.008.347-.052M304.616 477.178l.837.27.31.048M287.043 466.073l1.586.204.587.007.17.008.369.07 1.338.42.225.061.313.037.469-.01.536-.013.212.008.337.063 1.457.434.617.139.462.05.41-.005.684-.066.805-.13.607-.036h.412l.161.012.227.058.559.287.964.472 2.001.65 2.329 1.05.244.176.194.28.18.327.112.307.04.258.005.369-.034.2-.134.52-.094.281-.03.229-.061.47-.04.377-.021.098-.052.109-.384.368-.286.223-.164.148-.159.192-.07.133-.025.124-.038.254.09 1.068.019.19.038.147.064.162.075.108.267.217M296.01 526.122l-1.227-.096-.67-.097-1.34-.348M296.396 528.162l.03-.5-.013-.262-.036-.393-.367-.885M253.911 503.63l-.411-1.679-.33-1.528-.215-.984-.076-.265-.07-.144-.28-.485-.074-.252-.05-.335-.05-.483-.116-.689-.004-.15.059-.195.173-.348.058-.126.029-.144v-.16l-.067-.62.068-.825.408-3.026.25-2.015.36-2.817.274-2.216.44-2.901.266-2.016.556-4.883M367.863 395.64l-.043-.802M382.67 383.094l3.04.305M382.67 383.094l-.06.452M392.233 377.997l-1.34-.055M392.233 377.997l.003.807M390.893 377.942l.025.59.019.096.055.084.082.046.088.018 1.074.028M390.893 377.942l-1.307-.044M386.575 390.801l-1.425.71M385.15 391.51l-.132 1.253M379.626 409.11l-.057.425-.064 1.01.008.89M376.583 413.134l-.59-.002-.736-.02-.662-.054-.537-.094-.827-.297M371.413 414.193l.795-.875.57-.389.453-.262M379.626 409.11l.046-.338.082-.353.128-.42.224-.557.105-.261.24-.286.56-.561.285-.187.273-.17.39-.153.43-.304.538-.553M371.109 424.178l-.059-.129-.04-.16-.019-.207-.053-.546-.011-.04-.014-.03-.049-.056-.059-.048-.056-.032-.13-.03-.578-.068M371.109 424.178l-.15 1.875M385.239 388.477l.987-1.128M404.395 390.874l-1.718-.225-.933-.238-.274-.054-.508-.046-1.997-.155M371.28 390.645l1.853 1.01.747.323M385.018 392.763l-2.68.208M341.647 622.409l-.01-1.044-.036-.128-.042-.092-.085-.104-.152-.133-.236-.182-.308-.303-.418-.514-.169-.267-.141-.236-.194-.515-.307-1.042-.089-.449-.097-1.23-.117-.449-.14-.388-.433-.942-.75-1.635-.618-1.25-.904-1.174-1.035-1.356-.082-.229-.031-.172.008-.203.023-.166.034-.208.196-.603.145-.288.411-.627.34-.411.292-.243.181-.126.446-.24 1.235-.73 1.59-.793 1.7-1.158.587-.342.153-.054.081-.023.11-.006 2.047.163.808-.01.418-.062.243-.073.907-.414 2.575-1.419 1.675-1.022.975-.981.205-.324.156-.333.237-.67.247-.737.202-.681.686-1.623.798-1.462.622-1.19.513-.782.266-.34.875-.878 1.385-1.053 3.402-2.52 2.611-2.365.68-.827.151-.223.16-.276.197-.413.107-.297.432-1.835.855-3.53.343-1.627.573-1.887.634-1.635.383-1.026.384-1.767.246-1.094.13-.42.723-1.626M378.766 567.073l-1.072-.295M378.766 567.073l.583-2.398M243.64 625.373l1.216.373.589.125.614.052.98.068.504-.012.699-.1 1.065-.288 1.243-.39.278-.076.412-.02 1.941-.003 1.707-.205.444.008 1.558-.008.565-.04.63-.088 1.424-.44.863-.245.755-.105 1.094-.06 1.247.14 1.509.321 1.606.513 2.256.713 2.147.51 2.227.468 1.138.196 1.021.125.517-.004.565-.116.787-.269 1.856-.966.86-.377.653-.12.412-.023.8.092.782.18 1.263.537.754.22.67.097.39-.01.414-.09 2.013-.354 1.417-.328 1.902-.677.437-.102.409-.046.704-.02.624.023 1.352.165 3.753.108 2.26.084 1.235-.096 2.8-.397 1.937-.505.92-.376.912-.533 2.91-1.847 2.304-1.17.694-.305.85-.128.524.006.383.032.4.068.53.198.358.131.296.17.34.234.264.187.62.529 1.65 1.49 1.756 1.427.762.428.347.136 1.045.12 2.797.057 1.25.09.417-.018.19-.05.274-.114.63-.34 1.048-.714.83-.603.569-.306.411-.127.305-.092.24-.032 1.14-.022 2.086.193 1.453.08.452-.009 1.526-.132 1.226-.16" clip-path="url(#pc482d88d6c)" style="fill:none;stroke:#000"/><path d="m413.282 624.593-5.44-.577-1.376-.093-3.164-.007-4.475.02h-1.26l-.653.048-2.523.345-1.747.184-2.296.425-1.877.324-.472.072-.335.024-.167-.006-1.447-.203-2.804-.677-1.833-.413-2.021-.396-.34-.056-.443-.016h-.682l-.626.132-1.82.51-1.146.368-.716.204-.325.096-.35.037-.48-.012-1.418-.253-3.297-.994-1.925-.457-.641-.136-.218-.056-.576-.218-1.018-.415-.505-.177-.641-.156-2.571-.536-.658-.1-2.102-.213-.844-.012-1.57.088-1.142.028-1.477-.012-1.069-.084-1.081-.008-.864.052-3.007.368-1.606.293-2.587.48M351.319 384.722l-.515-.424-.298-.373-.54-.49-.542-.48-.101-.13-.07-.152-.055-.16-.048-.189-.04-.186-.066-.198-.245-.528-.082-.206-.016-.072-.003-.107.013-.102.04-.137.12-.225.823-1.4.608-1.026.214-.269.19-.15.395-.208.252-.12.67-.197.92-.188M360.705 387.733l-3.238-.137M354.291 390.3l-.319-.17-.194-.178-.662-.872-.658-.938-.076-.152-.371-1.093-.279-1.125-.057-.206-.356-.844" clip-path="url(#pc482d88d6c)" style="fill:none;stroke:#000"/><path d="m357.467 387.596-.341-.132-.158-.074-.19-.103-.706-.41-.276-.125-.208-.062-.922-.295-.214-.096-.276-.164-.537-.424-.551-.466-.312-.204-.206-.064-.23-.06-1.021-.195M354.291 390.3l1.037-.228.593-.164.343-.209.424-.388.234-.317.545-1.398M343.088 399.765l6.024.185M348.95 414.542l.78.25M349.008 415.606l-.012-.505-.047-.559M350.957 411.647l-.675.213-.541.21-.168.082-.198.15-.14.15-.172.255-.06.218-.071.427-.037.543.054.647M350.957 414.747l-1.227.046M349.008 415.606l.327-.415.164-.184.231-.214M349.008 415.606l-.048.497-.117.48-.182.441-.63 1.17-.411.966-.24.553-.132.214-.062.065-.084.06-.149.052-.144.014-.158-.002-2.183-.374-4.108-.189M363.403 548.24l.38-1.995.193-.693.448-1.39.428-.89.416-.633.895-1.215.69-.939.3-.336.384-.35 1.051-.743.487-.27.202-.054.242-.032 1.726-.383M388.693 569.55l-.936-1.815-.187-.568-.452-1.098M379.35 564.675l-1.081-.22M379.35 564.675l.587-2.414M378.269 564.454l.609-2.461M378.269 564.454l-.575 2.324M381.664 555.432l-.505 2.107M381.664 555.432l.66-2.752M380.168 557.286l.224-1.172.096-.309.1-.125.21-.135.866-.113M380.168 557.286l.991.253M380.168 557.286l-1.29 4.707M378.878 561.993l1.059.268M379.937 562.261l1.222-4.722M359.4 397.763l-1.167-.008M359.4 397.763l-.012.469M359.388 398.232l-1.11.005M358.233 397.755l.045.482M243.64 625.373l.078-.5-.077-.83-.274-.656-.282-.421-.343-.353-.449-.4-1.202-.926-.172-.21-.103-.182-.13-.331-.156-.467-.23-1.851-.033-.625.05-.465.213-1.362.407-2.56.133-.83-.036-.585-.056-.421-.194-.525-.69-1.354-.686-1.198-.484-.958-.48-.837-.836-1.054-.904-1.054-.371-.513-.178-.44-.44-1.307-.197-.95-.05-1.035M149.396 613.313l.622-1.27.258-.537.363-.292.42-.157.355-.02.274.048 2.894.702.532.056.315.008 1.654-.268 1.425-.173.617.024.71.096.764.269.423.192.521.505 1.44.997 2.778 1.625M150.982 625.642l.573-2.388.302-2.147.206-1.03.17-.453.343-.549.298-.312.416-.301 1.025-.52 1.55-.626 1.897-.657 6.32-1.186 1.68-.355M174.38 607.379l-.432 1.018-.33.79-.207.709-.161.933-.218.798-.113.304-.266.389-.368.348-.702.413-3.37 1.519-2.452.518M150.982 625.642l-.299-2.949-.194-4.423-.16-3.31-.114-.617-.153-.36-.186-.245-.48-.425M121.926 591.037l4.504 2.815 4.14 3.157 3.108 2.42 2.082 1.539 2.034 1.298 1.235.898 1.098.697.815.617.87.85 1.228 1.378.625.665.23.32.59 1.135.44.833.245.38.26.297 1.968 1.683.864.737.403.249.73.308M243.64 625.373l-3.635-.388-2.401-.18-1.118-.164-1.791-.393-2.757-.701-1.44-.264-1.7-.2-.915-.121-1.24-.257-3.171-.777-1.99-.577-1.348-.449-1.803-.388-2.482-.305-1.78-.168-1.852-.28-1.211-.197-2.809-.213-2.7-.288-1.648-.186-1.814-.299-.767-.076-.645.008-.852.06-1.041.136-1.118.28-1.424.498-4.137 1.955-3.361 1.545-.293.12-.337.066h-.244l-.35-.1-.26-.136-.163-.188-1.172-2.276-.573-1.012-.148-.205-.83-.929-.778-.93-.64-.727-.256-.23-.171-.223-.17-.28-.238-.445-.407-1.222-.541-1.495-.621-2.02-.56-1.844-.112-.26-.333-.552-.186-.232-.143-.11-.238-.095-.28-.07-.392-.07-.884-.048-1.658-.028-1.332-.064" clip-path="url(#pc482d88d6c)" style="fill:none;stroke:#000"/></g><g id="PatchCollection_1"><path d="m152.929 623.248-.646-1.154.387-2.294.355-.609.581-.577.97-.463 3.421-1.186 7.49-1.474.032.288-.258.417-.388.256v.417l.517.224.71.129.646-.385.42-.37.452-.015.645-.417.581.097.42-.531.388-.417.71.146.516.353 2.106-1.006.535.985-2.156 1.079.161.449-.387.8-.259.994-.742.802-.84.577-.161.577.13.77-.227.8.097.45.323.545.29.448.033.353-.355.577-.84-.257-.71-.064-.743.513-.677.738-.582.8-.549.481-.29.45-.258.448.258.866.29.256-.322.449.258.865.484.609-.42.833-.064 1.219-1.259-1.539-.904-.609-.452-.224.194-.787-.258-1.41.096-1.105-.742-.865-.807-1.186-.517-.802-1.582-.192-.872-.289-1.775-.513-1.68.16-.806-.256-.646-.064zM180.24 633.602l.162-.77-.355-1.25.743-3.8.452-1.635-.13-.623-.452-.417-2.518-.545 1.26-.434.58-.303.356-.385-.097-.513-.161-.627.16-.8-.29-.72.161-.53.71-.528.743-.53.55-.72.322-.673-.065-.66-.161-.544.194-.192 2.066 2.421.484.481.81 1.367.737 1.4.15.369.452.794.25.2.419.067.475-.03.13.385-.517.352-.743.097-.613.384-.484.737-1.324.802-.613 2.693.355 1.378.516.192.258.193-.58.288-.775.128-.71.225-.42.48-.097.898v.77l.161.544.291.417v.48l.549.61.484.705.42.674.129.705-.162.384-.323.417-.387.449.646.673.323.833.16 1.218-.16.834-.323.416.032.93-.517.705-.451.321-.743-.545-.646-.705-.355-.257.42-.658.387-.962.258-.93-.161-.848-.355-.64.161-.916-.452-1.122-1-.367-.517-.993v-.66l-.355-.527-.42-.48zM352.024 357.881l.413.608.362.643.388 1.153.258 1.058.129 1.219v.897l-.13.834-.354.865-.517 1.475-.613.673-1.033.706-.904.288-.92.484-.76.735-.484.609-.549.769-.871.577-.646.962-.871 1.121-.678.963-.614.8-1.452 1.059-1.453.993-1.953 1.318-.743.93-1.05 1.086-.903.706-.404 1.51-.306 2.016-.097.994-.55 1.25.065 2.276-.193.994.032.673-.032.705v.866l-.032.738-.227.865-.29.705-.452.738-.355.64-.517.738-.516 1.186-.42.48-.42.578-.58 1.379-.614 2.083-.065 1.827.13 1.475v1.635l-.194 1.122-.646.673-.226.738-.097.77.678 1.73 1.47-.125-.146-1.734.096-1.154.194-1.25.227-1.635.128-1.507.097-1.667.243-1.408.37-.804 1.389-1.86.662-1.15.549-.801.936-1.315.468-1.446.194-1.282.355-1.763.226-2.918.226-1.282.226-.994.533-1.086.306-.997-.323-.45.452-1.121.452-.705.646-1.187.549-.769 1.695-.798 1.307-1.03 1.695-.798 1.114-1.381 1.065-1.026.565-.734.76-.676.741-.642.904-1.218.71-.897.517-.834 1.082-1.215.759-.516.71-.61.646-.768.613-.962.887-2.113.372-.933.016-.702-.178-.869-.468-.99-.5-1.318-.404-.51-.855-1.67-.936-.994-.517-.737-.613-.77-1.324-1.314-.613-.897-.743-.577-1.388-.513-.969-.033-.775-.16-2.711-1.507-.969-.769-1.905-1.41-.968-.513-2.777-1.571-1.517-.642-.936-.288-1.065 1.122 1.032.77 1.276.676.903.353 1.34.926 1.098.48 1.646 1.155 1.389 1.026 3.1 1.282 1.13.674 2.388 1.506.678.738 1.098.769.936 1.058zM645.162 291.265l1.873-2.116 3.357-3.238.048-1.01-.613-.096-.242-.337.193-.385-.209-.272-.436-.128-.226-.337v-.336l.048-.321v-.32l-.387-.161-.404.096-.274.225-.323.112-.371-.177-.42-.624-.161-.305-.049-.337v-.353l-.37-.16-.292.145-.274.256-.274.24-.355.113h-.34l-.338-.128-.162-.29-.032-.352.097-.368.097-.305-.34-.048-.241.24-.227.273-.177.288-.226.305-.307.209-.322.143-.307.161-.355.112-.743.113-.42-.017h-.323l-.387-.048-.742-.224-1.034-.049-.726-.208-.436-.208-.322-.113-.324-.176-.597-.48-.21-.305-.128-.32-.243-.273-.355-.16-.323-.16-.29-.16-.258-.273-.291-.257-.307-.176-.242-.273-.388-.577-.177-.288-.388-.465-.112-.337-.13-.32-.225-.24-.29-.21-.292-.176-.16-.304-.033-.32v-.37l.016-.352.048-.37.097-.367.065-.321.048-.32.08-.337.13-.289.242-.208.339-.192.307-.113-.275-.24-.145-.289v-.336l.194-.61.032-.352.258-.705.792-1.732.968-1.699.048-.369.274-.593.227-.24.307-.177.306-.143.63-.257.274-.144.274-.193-.258-.224-.549.032-.355.048-.742.177-.34.032-.806.048-.388.048h-.339l-.387-.096-.355-.145-.355-.192-.259-.224-.193-.29-.533-.896-.177-.401-.13-.321-.177-.353-.34-.625-.242.24-.032.32v.37l.065.352.113.37.339.72.177.29.227.32.225.24.226.32.356.61.177.336.355.561.145.273.113.32v.353l-.048.337-.145.32-.178.305-.226.288-.21.305-.193.304-.146.305-.129.305-.306 1.09-.162.384-.323.626-.484 1.025-.355.562-.162.288-.113.32-.128.322-.05.32-.112.32-.55.866-.225.256-.613.193-.581.417-.275.256-.29.192-.356.113-.339.048-.37.032h-.727l-.339.048h-.775l-.339-.032-.388.112-.225.256.032.353.193.289.097.336.13.305.064.32-.097.337-.322.176-.355.049-.34.016-.58-.145-.55-.56-.08.384-.13.305-.21.272-.16.305-.259.224-.355.064-.371.016-.323-.016-.388-.673-.338-.112-.34.048-.355-.065-.306-.24-.404-.56-.388-.097-.355.08-.225.24-.097.32-.194.29-.274.192-.356.064-.726-.256-.355.015-.242.321-.242.208-.356.033-.322-.129-.243-.24-.338.016-.017.337.404.56.275.257.355.064h.322l.307.225.29.24.34.144.307-.112.258-.24.306-.177.404-.08.322-.016.63-.064.307.096.13.337.031.32-.161.29-.339.175-.339.16-.42.065-.565.192-.339.129.113.336.275.225.306.192.71.304.356.064.29-.256.323-.096.549-.097.403.097.227.256.032.513-.162.305-.177.69.226.255h.387l.29-.16.307-.24.388-.145.436-.08h.339l.323-.032.355.017.29.16.29.128.146.304.065.658.016.32.048.369.016.4.08.321.211.288.307.193.339.016.322-.048.243-.24.42-.353.532-.401.339-.128.323-.016.339.08.29.176.307.129.323.048.274.192.194.352.145.337.161.305.13.288.581.85.129.305.274.224.275.208.21.273.161.273.275.208.645.176.42.176.307.097.29.128.775.449.63.336.678.385.613.417.323.256.629.353.614.273.274.16.275.144.79.272.307.145.371.096 1.195.064.34-.08.338-.129.29-.143.275-.21.226-.304.161-.272.243-.272.258-.193.516-.465.29-.176.34-.096.323-.032h.37l.34-.016h.678l.34-.08.338-.113zM442.67 424.636l3.17-1.302.274-.35.02-.389-.157-.66.098-.564.274-.31.313-.74.411-.622.333-.252-.353-.214-.078-.427.236-.311.312-.272 1.312-.856-.353-.252-.45-.195-.352-.272-.137-.408v-.427l.118-.389.039-.447.097-.447.235-.35.02-.447-.02-.427-.058-.39-.02-.388.45.117.353.174.372.156.293-.272v-.466l.078-.447.862-.059.078-.408.274-.894.156-.447.353-.155h.41l-.019-.448-.078-.485.137-.389.215-.37.353-.174.371-.156-.47-.136-.626.098-.391.175-.411.33-.666.835-.352.234-.392.174-.43.156-.294.31-.39.195-.412-.019-.314-.35-.156-.447-.02-.408-.176-.408-.039-.564.02-.525-.254.312-.333.29-.529-.115-.43-.215-.333.778.176.447.215.35.079.466-.02.389-.274.894-.04.447.118.486.04.408-.118.408-.47.02-.371-.233-.314-.292-.294-.292-.489-.039-.822-.233-.528-.039-.137.447.293.428.294.31.353.448.273.525.274.31.098.564-.156.564-.04.622-.215.33-.43.447-.314.292.294.252.157.428-.099.467-.039.427.216.33.059.603-.294.894-.078.389-.196.35-.333.252-.372.175-.509.058h-1.311l.333.408.392.214.352.214.254.35.215.33.196.35.176.37.314.563zM432.628 504.494l9.944 1.088-.236-1.632.118-.855.352-.7.549-.7.586-.622.51-.622.547-.738.588-.506.665-.66.783-.467.705-.31.743.077.627.467.744.31-.353-.738-.47-.66-.195-.778.195-.777h-.822l-.86-.195-.275-.933.04-.777-.157-.778-.587-.582-.627-.583-.235-1.594.157-.778.353-.7.586-.544.744-.272-.117-.777-.235-.971.04-.856-.314-.777-.43-.739-.196-.894-.078-.777-.197.933-.039.777.196.933.079.816.039.856-.392.777-.705.505-.547.622-.079.816-.313.739-.274.738v.778l.04.777.156 1.632-.157.817-.235.777-.313.778-.665.505-.783.155-.548-.816-.392-.816-.313-.739-.743.428-.588.622-.861.272-.9.117-.783.31-.783-.271-.313-.74-.666-.504-.978-.04-.744-.388-.548-.622-.94-.194-.783-.428-.43-.7.039-.815.274-.856.078-.777v-.816l-.47.66-.312.777-.275.817-.665.467.352.816.509.583.509.621.51.7.469.739.312.777.47.777.823.35.234.739-1.056 1.516.704.505.274.738-.117.895-.352.738-.275.778-.078 1.204z" clip-path="url(#pc482d88d6c)" style="fill:#00f;fill-opacity:.8"/></g><g id="PathCollection_1"><defs><path id="mfd26083307" d="M0 3a3 3 0 1 0 0-6 3 3 0 0 0 0 6z" style="stroke:green;stroke-opacity:.8"/></defs><g clip-path="url(#pc482d88d6c)"><use xlink:href="#mfd26083307" x="368.294" y="377.392" style="fill:green;fill-opacity:.8;stroke:green;stroke-opacity:.8"/><use xlink:href="#mfd26083307" x="368.859" y="378.033" style="fill:green;fill-opacity:.8;stroke:green;stroke-opacity:.8"/><use xlink:href="#mfd26083307" x="369.359" y="378.065" style="fill:green;fill-opacity:.8;stroke:green;stroke-opacity:.8"/><use xlink:href="#mfd26083307" x="367.487" y="377.231" style="fill:green;fill-opacity:.8;stroke:green;stroke-opacity:.8"/><use xlink:href="#mfd26083307" x="366.196" y="377.103" style="fill:green;fill-opacity:.8;stroke:green;stroke-opacity:.8"/><use xlink:href="#mfd26083307" x="368.827" y="379.459" style="fill:green;fill-opacity:.8;stroke:green;stroke-opacity:.8"/><use xlink:href="#mfd26083307" x="369.458" y="377.061" style="fill:green;fill-opacity:.8;stroke:green;stroke-opacity:.8"/><use xlink:href="#mfd26083307" x="368.366" y="376.96" style="fill:green;fill-opacity:.8;stroke:green;stroke-opacity:.8"/><use xlink:href="#mfd26083307" x="368.073" y="377.891" style="fill:green;fill-opacity:.8;stroke:green;stroke-opacity:.8"/></g></g><path id="PatchCollection_2" d="m371.31 376.598.18-1.976-1.215-.11-.181 1.976z" clip-path="url(#pc482d88d6c)" style="fill:green;fill-opacity:.8"/><g id="PatchCollection_3"><path d="m144.183 557.793-.073-4.984 3.888-.057.074 4.984zM373.634 419.38l.886-5.344 4.124.674-.886 5.343zM649.916 120.207l2.71-1.033 1.567 4.053-2.71 1.033zM446.147 358.812l-2.39-.129-.225 9.362 1.291.032v-.786l-.274-.016.032-.465.258-1.603 1.098-5.29zM385.324 544.614l.532-6.219.227-.657-.807-.128-1.89 6.588zM346.793 399.46l1.081.097-.016-2.469-7.296.786-1.017.064-.049 1.01 1.034.032zM296.655 378.944l-1.646 5.097 3.132 1.283 1.581-5.322zM297.27 515.186l.483 5.242 3.745-.272-.694-5.194z" clip-path="url(#pc482d88d6c)" style="fill:#90ee90;fill-opacity:.8"/></g><path id="PatchCollection_4" d="m361.716 546.693-3.836 16.202 31.517 7.358 3.836-16.202z" clip-path="url(#pc482d88d6c)" style="fill:#d3d3d3;fill-opacity:.8"/><g id="PatchCollection_5"><path d="m310.914 529.52-.265-.005-.01.695.263.005z" clip-path="url(#pc482d88d6c)" style="fill:#a9a9a9;fill-opacity:.8"/><path d="m311.178 529.524-.264-.004-.012.695.264.004z" clip-path="url(#pc482d88d6c)" style="fill:#a9a9a9;fill-opacity:.8"/><path d="m311.443 529.529-.265-.005-.012.695.265.005z" clip-path="url(#pc482d88d6c)" style="fill:#a9a9a9;fill-opacity:.8"/><path d="m311.872 529.536-.43-.007-.011.695.429.007zM311.857 530.377l-.007.462 1.14.02.022-1.304-.635-.01-.015.84z" clip-path="url(#pc482d88d6c)" style="fill:#a9a9a9;fill-opacity:.8"/><path d="m311.872 529.536-.015.841.505.009.015-.841zM371.506 377.154l-.164 1.704-1.199-.114.165-1.704zM300.86 363.532l-.083-1.196.675-.046.015.218 1.19-.082.068.978zM301.014 365.808l-.137-2.148.566-.035.138 2.148z" clip-path="url(#pc482d88d6c)" style="fill:#a9a9a9;fill-opacity:.8"/></g></g></g><defs><clipPath id="pc482d88d6c"><path d="M110.121 86.4h517.757v554.4H110.121z"/></clipPath></defs></svg>