<svg xmlns="http://www.w3.org/2000/svg" width="960" height="960" viewBox="0 0 720 720"><defs><style>*{stroke-linejoin:round;stroke-linecap:butt}</style></defs><g id="figure_1"><path id="patch_1" d="M0 720h720V0H0z" style="fill:#fff"/><g id="axes_1"><path id="patch_2" d="M90 631.346h558V95.854H90z" style="fill:#fff"/><g id="LineCollection_1"><path d="m356.358 371.997 4.25 3.245M356.358 371.997l-.334-.231M356.358 371.997l3.426-3.71M356.358 371.997l-3.806 4.703M327.014 407.02l4.352 3.916M327.014 407.02l-.398-.383M327.014 407.02l2.595-2.777 1.122-1.437 1.308-1.483M327.014 407.02l-.563.149M361.05 437.625l-6.222-5.691M361.05 437.625l.488.432M361.05 437.625l-.297.306M371.484 446.862l-9.946-8.805M371.484 446.862l.24.273M371.484 446.862l-1.021 1.226M440.163 134.472l5.069 2.055M440.163 134.472l2.146 3.532.312 1.058M428.764 116.332l.765 1.963 1.27 2.569 1.487 2.466 7.877 11.142M443.381 137.85l-.728-.262-.417-.446-2.073-2.67M444.658 137.77l-.798-.136M444.658 137.77l.574-1.243M443.797 140.677l.201-.77.246-.705.414-1.432M445.648 138.63l-.395-.535-.595-.325M445.166 140.402l.432-.502.172-.63-.122-.64M443.797 140.677l.718.016.651-.29" clip-path="url(#pbe374097b7)" style="fill:none;stroke:#000"/><path d="m443.274 143.12.557-.62.504-.696.271-.403.56-.999M445.648 138.63l-.032-.564-.049-.47-.335-1.07M443.86 137.634l-.479.216M445.232 136.527l-.585.612-.337.314-.45.18M443.381 137.85l-.503.836-.257.376M442.62 139.062l.203.904M442.823 139.966l.255.318.332.242.387.15M442.823 139.966l.316 1.471.135 1.683M443.797 140.677l-.523 2.443" clip-path="url(#pbe374097b7)" style="fill:none;stroke:#000"/><path d="m453.302 124.397-3.618 4.193-2.268 3.36-2.184 4.577M418.102 242.927l8.12-31.947 8.255-32.597 7.472-30.12 1.325-5.143M417.41 501.446l1.793 2.981 6.763 11.45 11.846 20.429 3.466 5.44M445.923 549.72l-.456-.631-4.19-7.343M472.377 520.255l-1.6 2.125-.147.542.14.847-.047.29-1.871 1.827-.132.573.326 1.404-.14.423-1.15.892-3.54 1.53-4.482 1.835-11.29 4.68-1.554.773-1.77 1.307-3.842 2.443M487.129 578.554l5.625 4.359M487.129 578.554l-.743.848M464.76 567.749l1.553 1.062 4.413 2.117 8.444 3.686 7.959 3.94M550.285 540.328l-6.679 4.785 2.827 3.358 2.035-1.337 10.003 10.37-4.202 3.046-4.915 3.73-2.028 3.231-11.556 3.098-3.377-4.963-6.213-7.191-25.597 12.956-1.833-.06-11.621 7.203M496.623 587.22l-2.217-2.433M496.623 587.22l2.086 2.282M496.623 587.22l-2.155-.53M499.207 594.423l.262-.13.453-.76.342-.425.458-.254M493.74 604.824l1.447-2.85 2.179-3.997 1.05-1.99.79-1.564M499.734 592.5l-.094.403-.137.483-.281.588-.015.449M503.02 594.133l3.515 2.864 2.166.99 2.542.699 2.74.393 3.052.215 15.555.706 16.788.201 1.87.36.73-.163 2.152-1.016 16.969-5.1" clip-path="url(#pbe374097b7)" style="fill:none;stroke:#000"/><path d="m570.912 611.006-.202-3.417-.42-3.18.133-.26.954-.698.18-.238.225-2.83-.249-3.432-.434-2.67M205.12 484.216l-1.483.483M205.12 484.216l-.985 1.367M221.414 469.773l-7.363 6.969-8.93 7.474M153.753 605.234l4.415-15.89M345.304 441.823l2.547-2.63M345.304 441.823l-1.919 1.887M345.304 441.823l6.35 5.545M342.09 439.129l-5.234-5.181M342.09 439.129l-1.85 1.914M342.09 439.129l2.584-2.507M338.187 426.047l3.777 3.755M338.187 426.047l-3.903-3.483M338.187 426.047l-.636 3.772M338.187 426.047l.51-3.712M346.911 424.965l-.233.267M346.911 424.965l1.87 1.63M339.493 418.284l1.407 1.267 6.011 5.414M346.772 434.58l2.88-2.164M346.772 434.58l.559.43M341.964 429.802l3.109 3.09 1.7 1.688M337.551 429.819l7.123 6.803M337.551 429.819l-.695 4.129M349.409 449.292l2.524 2.155M349.409 449.292l2.246-1.924M349.409 449.292l-1.219 5.851M349.409 449.292l-.615-.682M343.385 443.71l-.639-.575M343.385 443.71l1.432 1.299M352.208 434.758l-2.556-2.342M352.208 434.758l-2.47 2.488M352.208 434.758l6.326 5.475M352.208 434.758l2.252-2.46M358.534 440.233l-.43.447M358.534 440.233l1.47-1.524M354.828 431.934l-1.898-1.686M354.828 431.934l-.368.364M336.856 433.948l-.905 3.37M354.05 444.884l-6.2-5.691M354.05 444.884l-2.395 2.484M354.05 444.884l2.164-2.245M335.951 437.318l-3.088-2.127M335.951 437.318l4.289 3.725M335.951 437.318l-.486 4.895M344.674 436.622l.45.312M349.652 432.416l-5.28-4.873M356.214 442.64l1.89-1.96M356.214 442.64l-6.476-5.394M349.738 437.246l-1.887 1.947M349.738 437.246l-2.407-2.236M347.85 439.193l-2.725-2.259M341.964 429.802l2.408-2.26M338.698 422.335l5.674 5.208M338.698 422.335l.747-3.694M339.493 418.284l-1.171-1.135M339.493 418.284l-.048.357M344.372 427.543l2.306-2.31M340.24 441.043l-3.362 3.507M340.24 441.043l2.506 2.092M360.608 375.242l-1.69 2.013M360.608 375.242l3.094-3.784M360.608 375.242l7.425 5.546M413.993 353.45l-1.957 3.248M413.993 353.45l6.866 3.961M413.993 353.45l.971-.311M407.654 349.667l2.513 1.51 3.826 2.274M399.26 349.27l1.843-3.288M399.26 349.27l-1.955 3.316M399.26 349.27l-6.514-3.792M399.26 349.27l6.55 3.828M424.327 368.01l1.83-3.294M424.327 368.01l-2.054 3.078M424.327 368.01l7.075 4.133M424.327 368.01l-7.235-4.127M401.103 345.982l-.636-.365M401.103 345.982l3.124 1.73M426.158 364.716l-7.156-3.998M426.158 364.716l6.862 3.982M426.158 364.716 428 361.4M380.554 359.955l3.369-2.178M380.554 359.955l-5.1-7.966M380.554 359.955l1.927 3.146M370.83 361.497l4.742.312 1.218-.077.946-.233 2.818-1.544M367.24 396.69l-6.714-5.158M367.24 396.69l-3.559 2.491M380.755 391.976l-9.815 6.745-.897.619h-.697l-2.106-2.65M347.975 399.562l3.448 2.6M347.975 399.562l-4.619-3.388M347.975 399.562l3.27-3.856M347.975 399.562l-4.318 5.342M388.445 351.765l7.13 3.939M388.445 351.765l.108-.42-.02-.431-.145-.409-.259-.353M387.326 352.676l.47-.183.386-.314.263-.414M388.233 356.176l.623 3.172M388.233 356.176l-.2-.782M388.233 356.176l5.5 2.815M480.38 397.057l-33.417-24.319M462.918 398.199l10.518 7.701 3.543-3.656 3.401-5.187" clip-path="url(#pbe374097b7)" style="fill:none;stroke:#000"/><path d="m490.142 400.688-4.08-1.027-5.682-2.604M340.77 408.65l2.887-3.746M340.77 408.65l-.642-.289-.702-.096-.7.104M341.843 410.545l-.132-.734-.37-.654-.57-.507M444.157 384.217l18.761 13.982M444.157 384.217l-.397 1.446M444.157 384.217l1.02-4.025M444.157 384.217l-7.354-4.627M403.835 356.358l-1.737 3.138M403.835 356.358l1.976-3.26M403.835 356.358l6.314 3.565M403.835 356.358l-6.53-3.772M385.565 351.899l-4.108 2.603M385.565 351.899l.313.396.43.28.5.13.518-.03M385.622 350.393l-.204.486-.02.522.167.498M343.657 404.904l2.529 2.459M346.186 407.363l2.255 2.831M341.843 410.545l.716-.067 2.155-1.625 1.472-1.49M351.423 402.163l-2.966 2.836-2.271 2.364M443.307 387.196l-.776 3.048M443.307 387.196l.453-1.533M443.307 387.196l-9.215-.113M388.033 355.394l-.707-2.718M388.033 355.394l-4.11 2.383M368.763 350.686l2.431-2.883M368.763 350.686l-3.177-2.622M364.315 355.784l.683-1.356 3.765-3.742M337.198 409.738l-2.145-3.62M337.198 409.738l-.15.6.024.616M337.198 409.738l.356-.598M429.513 375.35l-1.795 3.17M429.513 375.35l1.89-3.207M429.513 375.35l-7.24-4.262M429.513 375.35l7.29 4.24M322.806 394.53l4.923 3.74M322.806 394.53l-.924 1.28M322.806 394.53l1.884-1.793M395.576 355.704l1.729-3.118M395.576 355.704l-1.842 3.287M395.576 355.704l6.522 3.792M417.092 363.883l-1.678 3.002M417.092 363.883l1.91-3.165M417.092 363.883l-6.943-3.96M405.81 353.098l6.226 3.6M405.81 353.098l1.844-3.43M358.949 354.112l5.366 1.672M358.949 354.112l6.637-6.048M362.582 345.584l-7.335 6.995.071.616 3.63.917M351.602 377.874l4.167 3.103M351.602 377.874l-.262-.174M351.602 377.874l.95-1.174M351.602 377.874l-3.713 4.384M388.129 350.152l1.743-1.627M388.129 350.152l-.324-.253-.382-.163-.413-.062-.416.044M368.065 370.191l7.611 5.922M368.065 370.191l-2.143-1.56M368.065 370.191l5.345-3.142M348.44 410.194l-9.124 6.197-.994.758" clip-path="url(#pbe374097b7)" style="fill:none;stroke:#000"/><path d="m335.809 414.93.144.114 2.369 2.105M375.676 376.113l1.462-.853M375.676 376.113l-3.179 1.982M367.461 358.9l-.346-.294M367.461 358.9l3.37 2.597M367.461 358.9l1.104-1.19M367.461 358.9l-1.922 2.357M387.838 338.272l7.211 4.246M387.838 338.272l-.93-.41M387.838 338.272l.33-.461M370.83 361.497l2.58 5.552M370.83 361.497l-4.908 7.134M346.58 392.233l-3.224 3.94M346.58 392.233l3-3.803M346.58 392.233l-4.212-3.43M346.58 392.233l4.665 3.473M436.803 379.59l2.025-3.025M436.803 379.59l-1.819 3.27M393.734 358.991l-1.985 3.43M393.734 358.991l6.522 3.757M335.053 406.118l-3.265 4.395M335.053 406.118l1.14-1.599M413.442 370.34l-2.09 3.269M413.442 370.34l1.972-3.455M413.442 370.34l7.003 4.094M413.442 370.34l-6.896-4.064M381.688 346.127l-1.459 1.426M381.688 346.127l3.466-3.532M381.688 346.127l-2.436-1.646M385.713 336.47l-.654.304M389.437 331.745l-1.008 1.525-2.716 3.2M385.713 336.47l-.152.651M316.67 383.878l-3.556 2.868M316.67 383.878l-6.912-9.289M316.67 383.878l3.71 2.011M323.297 385.225l-.968-2.338-.461-.932-.92-.904-.744-.04-3.533 2.867M383.923 357.777l-2.466-3.275M335.744 396.806l-.288-.216M335.744 396.806l4.582 3M335.744 396.806l3.48-4.168M335.744 396.806l-3.705 4.517M372.497 378.095l-8.795-6.637M372.497 378.095l-4.464 2.693M363.702 371.458l2.22-2.827M363.702 371.458l-3.918-3.17M395.05 342.518l5.417 3.1M395.05 342.518l-2.304 2.96M331.366 410.936l.422-.423M331.366 410.936l4.443 3.995M341.014 381.751l4.258 3.179M341.014 381.751l-2.885-2.09M341.014 381.751l-3.236 3.783M343.58 378.84l-1.006.956-1.56 1.955M349.58 388.43l2.499-3.02M349.58 388.43l-1.682-1.368M349.58 388.43l4.721 3.6M412.036 356.698l6.966 4.02M412.036 356.698l-1.887 3.225M397.305 352.586l-7.433-4.061M331.788 410.513l5.478 1.03M313.114 386.746l-2.905 2.615 11.673 6.449M318.21 399.334l3.343-2.892.33-.632M435.144 365.624l-2.124 3.074M435.144 365.624l7.454 4.478M435.144 365.624 428 361.4M382.481 363.101l6.375-3.753M382.481 363.101l1.483 3.58M363.681 399.181l-4.313 2.952M363.681 399.181l-5.553-4.233M442.598 370.102l-1.9 3.203M442.598 370.102l4.365 2.636M356.85 388.859l-4.771-3.449M356.85 388.859l3.676 2.673M356.85 388.859l-2.549 3.171M361.372 384.933l-2.237 1.322-2.285 2.604M444.718 406.41l-.221-.567-3.004-1.105M442.53 390.244l-1.831 7.578.794 6.916" clip-path="url(#pbe374097b7)" style="fill:none;stroke:#000"/><path d="m440.666 416.35-6.124-3.421-5.11-2.668-3.65-2.072-.155-.454.007-.542 1.5-2.764.426-.439.63-.17 5.063.074 4.007.267 4.233.577M390.503 364.717l1.246-2.296M390.503 364.717l-.667-1.563M390.503 364.717l1.02 1.828M365.922 368.63l-3.795-3.188M410.15 359.923l-1.74 3.083M431.402 372.143l1.618-3.445M431.402 372.143l7.426 4.422M445.177 380.192l.745-3.724M445.177 380.192l-6.349-3.627M359.368 402.133l-4.248 2.905M359.368 402.133l-3.984-3.347M365.464 410.537l-2.644-4.34-3.452-4.064M440.699 373.305l-7.68-4.607M440.699 373.305l5.223 3.163M440.699 373.305l-1.87 3.26M397.045 376.302l4.253-3.845M397.045 376.302l-2.14-3.24M388.115 377.4l1.303 3.655 7.627-4.753M371.194 347.803l2.396-2.863M371.194 347.803l-5.123-4.271M408.41 363.006l-6.312-3.51M408.41 363.006l7.004 3.879M408.41 363.006l-1.864 3.27M443.76 385.663l-8.776-2.803M392.746 345.478l-6.938-3.92M389.872 348.525l2.206-2.215.668-.832M336.193 404.52l-4.154-3.197M336.193 404.52l4.133-4.715M402.098 359.496l-1.842 3.252M419.002 360.718l1.857-3.307M342.368 388.804l-.224-.172M342.368 388.804l3.13-3.693M342.368 388.804l-3.145 3.834M385.622 350.393l-5.393-2.84M386.594 349.718l-.382.141-.331.23-.259.304M445.922 376.468l1.041-3.73M351.423 402.163l3.697 2.875M351.423 402.163l3.961-3.377M442.53 390.244l17.148 12.356 3.24-4.401M373.59 344.94l2.85-2.936M373.59 344.94l-3.897-3.538M401.298 372.457l2.995-2.735M401.298 372.457l7.626 2.33M393.075 369.693l.13.149 1.237.543 6.856 2.072M338.725 408.37l-.647.3-.524.47M340.326 399.805l.87 1.652.155.639-.07.624-1.875 4.321-.68 1.328M327.93 390.258l3.958-3.15M327.93 390.258l3.434 3.041M327.93 390.258l-3.24 2.479M327.93 390.258l-7.55-4.369M406.546 366.276l-6.29-3.528M406.546 366.276l-2.253 3.446M320.437 400.968l4.225 3.84M320.437 400.968l-2.227-1.634M320.437 400.968l7.184-2.469M391.75 362.42l6.47 3.768M337.727 412.176l-1.918 2.755M337.727 412.176l.657.453.778.218.356-.018M337.727 412.176l-.46-.633M420.445 374.434l1.828-3.346M420.445 374.434l-2.109 3.276M420.445 374.434l7.273 4.086M385.154 342.595l.094 1.133 1.346 5.99M323.297 385.225l-2.265.381-.652.283M340.326 399.805l3.03-3.631M378.379 349.327l-2.925 2.662M378.379 349.327l1.85-1.774M378.379 349.327l3.078 5.175M368.033 380.788l-2.374 1.488M355.77 380.977l5.602 3.956M355.77 380.977l-3.691 4.433M355.77 380.977l3.148-3.722M391.523 366.545l-6.059 3.756M391.523 366.545l1.552 3.148M352.079 385.41l-1.583-1.179M420.859 357.411l7.142 3.99M332.04 401.323l-.259-.204M404.293 369.722l7.06 3.887M404.293 369.722l-6.073-3.534M339.223 392.638l4.133 3.536M339.223 392.638l-.263-.184M407.654 349.667l-.532-.303M354.301 392.03l-3.056 3.676M354.301 392.03l3.827 2.918M373.41 367.049l3.728 8.211M335.034 383.65l-3.146 3.458M337.778 385.534l-1.95-1.685-.794-.198M323.297 385.225l5.303-.895 6.434-.68M359.784 368.288l-.416-.311M359.784 368.288l2.343-2.846M365.66 382.276l-4.288 2.657M365.66 382.276l-6.742-5.02M343.58 378.84l4.1 3.26M364.315 355.784l-2.994 5.027-1.93 2.715-4.372 5.461-3.992 5.818-2.004 1.501-5.443 2.533M341.324 411.99l.388-.68.13-.765" clip-path="url(#pbe374097b7)" style="fill:none;stroke:#000"/><path d="m337.554 409.14 1.176-.324 2.64 1.9-.046 1.275M339.518 412.829l.453-.023.75-.297.249-.214.354-.304M327.73 398.27l4.051 2.849M327.73 398.27l-.109.23M327.73 398.27l3.634-4.97M347.89 382.258l-.21-.158M347.89 382.258l2.606 1.973M347.89 382.258l-2.392 2.853M386.846 373.843l5.955-3.967M386.846 373.843l-1.382-3.542M386.846 373.843l1.269 3.557M355.12 405.038l-6.346 4.92M351.245 395.706l4.14 3.08M362.127 365.442l-.463-.353M362.127 365.442l3.412-4.185M360.526 391.532l-2.398 3.416M389.836 363.154l-.482-1.477-.498-2.329M364.315 355.784l3.805 1.354M415.414 366.885l6.859 4.203M331.888 387.108l2.807 2.171M348.44 410.194l.334-.236M355.384 398.786l2.744-3.838M442.53 390.244l-8.864.397M376.44 342.004l2.71-2.959M376.44 342.004l-3.074-2.846M376.44 342.004l2.537 2.35M331.364 393.3l4.092 3.29M331.364 393.3l3.331-4.02M337.266 411.543l-.194-.589M375.454 351.989l-1.4-1.251M398.22 366.188l-5.145 3.505M398.22 366.188l2.036-3.44M335.809 414.93l-.073.413M385.154 342.595l.654-1.038M427.718 378.52l-.83 1.83M427.718 378.52l6.132 4.011M345.498 385.111l2.4 1.951M345.498 385.111l-.226-.181M377.138 375.26l8.326-4.96M385.464 370.3l-1.5-3.62M379.15 339.045l2.534 1.967M383.877 333.39l-3.48 4.175-1.246 1.48M373.366 339.158l.951-1.326.854-.89.668-.246.598.067 2.714 2.282M393.075 369.693l-.274.183M324.662 404.808l1.954 1.829M324.662 404.808l2.96-6.309M334.695 389.28l4.265 3.174M334.695 389.28l3.083-3.746M411.353 373.609l6.521 3.957M313.114 386.746l11.576 5.99M313.114 386.746l-10.78-6.056M386.907 337.862l-1.099 3.695M386.907 337.862l-1.346-.74M337.778 385.534l4.366 3.098M440.666 416.35l1.768-6.078 1.675-2.515.609-1.347M460.05 427.662l-5.513-7.463-6.465-9.222-3.354-4.567M337.517 494.326l-5.547 11.041-3.449 7.162-3.886 7.991-1.895 4.071-1.771 3.982M290.22 533.33l3.292 1.13 8.582 2.86.598.126.466-.06.955-.46 1.064-.364 3.534-.973.574-.074.668.126 2.889 1.315.536.044.442-.126 7.149-8.3M337.517 494.326l3.153-.565M340.992 481.868l-1.52 5.268-1.955 7.19" clip-path="url(#pbe374097b7)" style="fill:none;stroke:#000"/><path d="m315.952 490.832.563.048 1.522.208 12.954 2.422 4.454.769 1.083.108.99-.06M343.645 471.665l1.302-5.02M343.645 471.665l-1.536 5.918M343.645 471.665l5.752-5.873M612.382 457.447l.062 4.406.016 12.623-.009 7.467-.185 5.303.669 1.245 2.111 2.491 6.58 5.522.427.428M633.693 527.882l-2.459-7.677-3.765-10.269-2.91-8.566-2.506-4.438" clip-path="url(#pbe374097b7)" style="fill:none;stroke:#000"/><path d="m544.352 509.29 1.103.847.202.371.42 1.308 1.195 1.664 1.336 1.872.326.966.031.891v1.16l.389 1.01 3.68 4.947 1.911 2.036 3.464 2.615 5.28 3.12.855.387.667.059.7-.238 13.31-7.696 12.907-7.43 4.256-2.674 18.436-12.526 7.233-5.047M632.937 436.228l-3.509 1.145-9.024 1.961-6.314 1.426M612.382 457.447v-.958l-.327-10.587.296-1.872.854-2.853.885-.417" clip-path="url(#pbe374097b7)" style="fill:none;stroke:#000"/><path d="m568.473 438.026 4.489-1.857.605.06.855.4.7-.237 5.575-3.076.404-.089.652.624 2.904 2.57 1.072.595 3.153 1.085 1.196.044 7.13-.639 1.879-.46 1.351-.178 1.925.03.793-.164 1.77-.818.653-.03 1.957.982 4.255 1.768.762.43 1.537 1.694M614.06 399.911l.155.58 1.257 3.329 1.44 2.926 3.448 6.464 3.449 6.095 3.977 7.34 3.519 6.565 1.632 3.018M578.832 357.498l2.786 1.693 13.793 8.687 5.735 3.684 4.398 2.693 7.813 4.748 2.252 1.515M614.06 399.911l-.316-1.582.598-5.96 1.379-9.457-.112-2.394M510.773 232.42l4.681 4.382 2.584 2.5 1.137.6 10.513 3.053 10.75 3.052 12.32 3.382 10.405 3.147 7.02 2.16M552.225 309.518l.19-.719 2.944-11.13.784-2.314 1.373-5.85 3.242-8.414 2.945-8.924 3.485-9.299 2.994-8.172M510.773 232.42l-.607-1.526M510.773 232.42l-.988-.015M510.166 230.894l-.381 1.511M504.065 163.107l.49 3.762 1.507 17.196-.035 4.964.673 7.628.78 9.315.046 7.55.497 7.655.45 2.274 1.693 7.443M476.768 139.449l4.89 4.899 5.913 5.104 10.086 8.153 5.2 4.235 1.208 1.267" clip-path="url(#pbe374097b7)" style="fill:none;stroke:#000"/><path d="m543.497 145.944 1.56 9.54-.297 1.27-.56.42-1.102.275-39.033 5.658M455.053 124.81l-.839-1.448M455.053 124.81l-1.75-.413M476.768 139.449l-2.53-2.534-6.423-6.577-1.658-1.256-9.54-3.429-1.564-.843M454.214 123.362l-.912 1.035M445.923 549.72l2.423 3.368 7.747 7.332 8.667 7.329M504.28 538.59l-1.258 1.412-.823 1.188-.606.357-1.445.624-2.422.416-.575.238-.42.312-12.068 10.95-16.238 11.218-3.665 2.444M492.754 582.913l1.652 1.874M492.754 582.913l-.143 1.682M501.122 592.754l.466.182.46.458.65.62.322.119M501.122 592.754l.345-.224.246-.32M501.122 592.754l-.4.1M500.19 590.586l-.396-.273-.36-.286-.46-.4-.265-.125M500.19 590.586l-.365.205-.272.312" clip-path="url(#pbe374097b7)" style="fill:none;stroke:#000"/><path d="m501.713 592.21.125-.436-.056-.45-.23-.394-.368-.283-.453-.128-.274.004-.266.063M499.553 591.103l-.135.338-.019.38.109.365.226.314M498.997 590.12l.19.25.137.262.23.471M503.02 594.133l-.168-.413-.709-.817-.248-.375-.182-.318M498.709 589.502l.068.329.22.288M358.036 456.969l-1.97-1.784M358.036 456.969l1.977-2.024M358.036 456.969l-1.794 1.832M356.065 455.185l-2.087-1.888M356.065 455.185l8.356-8.698M356.065 455.185l-8.543 8.894M364.42 446.487l2.102 1.792M364.42 446.487l-2.04-1.877M347.522 464.08l-1.56-1.353M347.522 464.08l1.875 1.712M360.004 438.709l.75-.778M360.004 438.709l10.459 9.379M379.174 455.843l-8.522-7.608M379.174 455.843l.492-.871M379.174 455.843l-.877 2.882M635.279 132.66l-12.073 1.715M635.279 132.66l-2.258-10.495M635.279 132.66l.557 2.648M543.497 145.944l11.303-1.86M543.497 145.944l-1.858-11.506M635.836 135.308l1.433 8.064M600.587 137.585l-1.693-10.99M600.587 137.585l11.183-1.355M600.587 137.585l-11.364 1.615M606.28 156.149l-.497-6.919-.08-.272-.14-.141-.217-.111-.257-.022-1.964.216-.312-.067-.294-.142-.19-.2-.113-.322-1.629-10.584M626.837 169.946l-5.936 1.012.583 9.114M608.89 181.623l.43.16.626.008 11.538-1.719M625.957 181.434l-.563-.58-.536-.278-.594-.171-2.78-.333M382.913 300.787l-.26-.225-1.049-.229-3.37.222-16.44 1.3-5.978.422-2.239.25-1.881.639-3.775 1.037-2.81.82-1.715.695-2.012.524-1.072.467-.905.206-1.06-.263-1.56-1.287-.905-1.265-1.322-3.145-.774-.889-.916-.751-.703-.992-.68-1.048-.773-.444-2.858-.205-1.298-.08-.845-.467-1.465-1.425-.806-.803-.1-.743.403-2.623-.054-1.605-.295-1.464-.458-1.831-.082-1.208.11-1.587-.149-1.118-.01-.713-.833-1.162-.774-.98-.465-.786-.178-2.381-.096-1.971-.083-.992-.429-.786-1-1.538-.9-1.68-.745-2.34-.975-2.025-.152-1.178.241-.892.578-1.262.096-1.344-.203-1.277-.662-1.7-.66-.928M307.072 256.935l1.514.758 1.056.111.49-.267 1.312-1.858 1.142-.766 1.203-.237.99.232.787.829" clip-path="url(#pbe374097b7)" style="fill:none;stroke:#000"/><path d="m334.529 238.03.485 1.327.004.498-.272.278-2.248.554-.354.16-.194.2-.501 1.019-.254.28-.307.15-2.184-.204-.466.305-1.076 1.601-.947 2.891-.637.72-4.263 2.906-2.295.677-2.982 1.471-.245.286-.062.353-.165 2.235M395.02 283.135l1.847-3.261M395.02 283.135l-4.401 6.18M395.02 283.135l3.207 1.964M398.227 285.1l-4.133 6.324M398.227 285.1l3.244 1.987M403.525 283.919l-2.054 3.168M403.525 283.919l2.521 1.352M403.525 283.919l-6.658-4.045M390.619 289.314l-3.897 5.8M390.619 289.314l3.475 2.11M509.785 232.405l-3.06 12.124-4.413 15.112-1.023 2.393.095.82.833 1.595 1.167 1.824.143 1.139-1.357 1.709-1.695 1.412-.948 1.468-7.192 14.604-.558.593-1.574 1.119-1.43.98-.738.296-2.167.091-4.216.465-6.399.79-6.438.328-2.06.358M440.107 305.96l1.497-1.273 2.364-1.98 2.157-1.179 20.63-9.903" clip-path="url(#pbe374097b7)" style="fill:none;stroke:#000"/><path d="m418.102 242.927 5.886 4.507 17.077 14.48 1.184.821 6.582 3.857 4.838 3.19 1.344 1 3.6 3.244 2.492 3.136 3.347 4.112.284.673.423 2.441.28 3.11 1.316 4.127M394.094 291.424l-4.05 5.593M394.094 291.424l3.279 1.992M397.373 293.416l3.228 2.089M397.373 293.416l2.004-3.094M397.373 293.416l-3.845 5.741M386.722 295.114l3.321 1.903M382.913 300.787l3.34-5.041.469-.632M400.601 295.505l-2.028 2.952M400.601 295.505l2.213 1.43M390.043 297.017l-3.698 5.962M390.043 297.017l3.485 2.14M404.33 296.945l-1.516-.01M404.33 296.945l-1.65 4.67M406.384 290.13l-1.362 4.284-.691 2.531M393.528 299.157l3.077 2.03M393.528 299.157l-3.948 5.896M382.913 300.787l3.432 2.192M382.627 308.208l-3.284-1.677 3.57-5.744M396.605 301.186l1.968-2.73M396.605 301.186l-1.61 2.925M402.68 301.614l19.29 4.957M399.057 310.068l1.631-3.805 1.992-4.649M386.345 302.979l-3.718 5.23M386.345 302.979l3.235 2.074M389.58 305.053l-3.346 4.997M389.58 305.053l3.377 2.048M392.957 307.101l2.039-2.99M392.957 307.101l-3.228 4.734M392.957 307.101l3.058 1.718M396.015 308.82l-2.223 5.09M396.015 308.82l1.505.814M386.234 310.05l-3.607-1.842M386.234 310.05l3.495 1.785M399.057 310.068l-.604-.17M399.057 310.068l-.445 1.03M389.729 311.835l3.154 1.611M392.883 313.446l.909.465M386.663 322.39l.19-.954 2.328-3.413 3.702-4.577M393.792 313.91l-4.596 9.74M393.792 313.91l2.95 1.524M396.742 315.434l1.743-3.987M389.437 331.745l.402-.607 1.094-2.245 5.809-13.46M407.766 321.058 405.96 324M407.766 321.058l6.826 3.82M407.766 321.058l-6.56-3.748M386.663 322.39l2.533 1.26M383.877 333.39l-2.283-1.442-.264-.502.128-.513 3.856-5.097 1.349-3.445M398.43 323.428l5.768 3.448M389.196 323.65l-1.739 3.97M400.536 313.63l-1.176 2.707M400.536 313.63l8.847 4.894M400.536 313.63l-1.924-2.532M395.248 325.801l4.112-9.464M388.168 337.81l3.06-4.287 1.44-1.99.941-1.93 1.639-3.802M399.526 328.031l-2.573-1.412-1.705-.818M404.198 326.876l5.481 2.98M404.198 326.876 405.96 324M404.198 326.876l-1.724 2.81M387.457 327.62l1.98 4.125M383.877 333.39l.446-.617 3.134-5.154M399.526 328.031l-6.86 10.938M399.526 328.031l2.948 1.654M402.474 329.685l-6.616 10.788M402.474 329.685l3.005 1.764M405.48 331.45l-6.812 10.937M405.48 331.45l2.047.91M373.366 339.158l-3.673 2.244M369.693 341.402l-3.622 2.13M366.071 343.532l-3.489 2.052M379.252 344.48l-.275-.126M379.252 344.48l2.656-3.27 2.18-2.28 1.16-1.455.313-.354M379.252 344.48l-1.047 1.258M362.582 345.584l3.004 2.48M552.225 309.518l-1.922 7.313-3.534 13.243-1.128 5.448.49 1.456 21.008 12.726 7.804 5.307 3.889 2.487M525.669 410.517l13.922-18.379 1.6-1.756 21.84-16.998 14.882-14.976.919-.91M418.336 377.71l-1.513 9.795M418.336 377.71l-.462-.144M422.77 379.068l-3.924-1.2-.51-.158M422.77 379.068l-1.514 8.33M422.77 379.068l4.118 1.282M426.888 380.35l-1.011 6.934M426.888 380.35l3.788 1.206M430.676 381.556l-.965 5.634M430.676 381.556l3.174.975M434.984 382.86l-.892 4.223M434.984 382.86l-1.134-.329M434.092 387.083l-.426 3.558M434.092 387.083l-4.381.107M429.71 387.19l-3.833.094M425.877 387.284l-.715 3.728M425.877 387.284l-4.62.113M421.256 387.397l-4.433.108M425.162 391.012l-8.952.419.613-3.926M433.666 390.641l-8.504.37M367.903 408.835l4.856 6.176M367.903 408.835l.718-.502M367.903 408.835l-2.44 1.702M348.774 409.958l2.868 2.658M365.464 410.537l4.143 6.802M525.432 410.886l11.482 3.399M525.432 410.886l.237-.37M513.726 407.497l1.301.38 10.405 3.009M514.669 425.69l.211-.46.906-1.139 9.646-13.205M376.492 412.328l-2.975 2.138M368.62 408.333l2.471-1.845.59-.137.496.12 4.315 5.857M382.177 420.444l-.004-.428-.18-.568-5.501-7.12M351.642 412.616l11.059 10.247M365.25 420.892l-11.294-10.491-2.314 2.215M372.76 415.011l.757-.545M372.76 415.011l-3.153 2.328M372.76 415.011l6.128 8.218M548.02 417.428l-11.106-3.143M548.02 417.428l11.676-15.03M548.02 417.428l-14.313 18.851M369.607 417.34l2.401 3.2M369.607 417.34l-4.358 3.552M382.177 420.444l-2.185 2.225M395.238 403.907l-9.07 11.872-3.99 4.665M372.008 420.54l1.93 2.57M372.008 420.54l-9.49 7.335M365.25 420.892l-2.55 1.971M362.7 422.863l-2.948 2.332M378.888 423.23l.496.41M378.888 423.23l-.425.415-2.4 2.975M378.888 423.23l.645-.434M373.938 423.11l-4.793 5.756M376.063 426.62l-1.033-2.053-1.092-1.457M359.752 425.195l-3.452 2.49M359.752 425.195l2.766 2.68M376.063 426.62l.495.984M376.063 426.62l-3.586 4.721M376.558 427.604l2.826-3.963M376.558 427.604l-3.383 4.227M362.518 427.875l4.347 4.004M369.145 428.866l-2.28 3.013M369.145 428.866l3.332 2.475M352.93 430.248l-4.148-3.654M352.93 430.248l3.37-2.564M372.477 431.341l-7.302 8.875M372.477 431.341l.698.49M376.17 434.3l-1.321-1.197-1.674-1.272M373.175 431.83l-7.4 8.898M366.865 431.879l-2.441 3.014M376.17 434.3l-2.418 3.078M376.17 434.3l5.285 4.823M373.752 437.378l-2.306 2.937M373.752 437.378l5.145 4.705M361.538 438.057l.564-.653M381.455 439.123l-2.558 2.96M388.06 450.463l1.965-2.636.057-.496-.146-.33-.405-.507-8.076-7.37M365.175 440.216l.6.512M365.175 440.216l-3.073-2.812M365.775 440.728l3.197 2.738M371.446 440.315l-2.474 3.15M371.446 440.315l7.103 6.605M358.103 440.68l2.25 2.067M378.897 442.083l2.337 2.137M360.354 442.747l-8.42 8.7M360.354 442.747l2.025 1.863M368.972 443.466l6.782 6.144M381.234 444.22l-2.685 2.7M381.234 444.22l6.827 6.243M362.38 444.61l-8.402 8.687M517.702 526.719l.158-2.673.07-3.206.746-11.733-8.33-.773-2.325-.161-2.762-.613-4.883-1.418-.438-.676.37-.966 5.38-18.437.524-2.278 1.19-2.005 4.001-5.924 1.286-3.053 6.526-11.528-.19-15.266M514.102 430.167 513.308 442l.143 1.23.572.684 5.001 2.096" clip-path="url(#pbe374097b7)" style="fill:none;stroke:#000"/><path d="m563.518 469.052-1.956-2.243-.855-.98-1.04-.774-.295.03-1.538 1.04-2.423 2.957-1.134.862-3.114.928-2.175.573-.21-.016-2.313-3.952-.637-.758-5.032-4.427-6.943-6.093-6.663-6.166-1.197-.832-2.034-.907-4.935-2.285M378.55 446.92l-2.796 2.69M378.55 446.92l7.181 6.67M370.463 448.088l.189.147M370.463 448.088l-1.88 1.95M366.522 448.28l-6.51 6.665M366.522 448.28l2.062 1.759M370.652 448.235l1.071-1.1M370.652 448.235l-1.91 1.976M375.754 449.61l.845.813M368.741 450.211l-.157-.172M368.741 450.211l2.292 2.026M368.741 450.211l-6.283 6.865M388.06 450.463l-2.329 3.127M351.933 451.447l2.045 1.85M351.933 451.447l-3.743 3.696M353.978 453.297l-7.492 7.565M385.731 453.59l-2.316 3.107M348.19 455.143l-.6 1.786M383.415 456.697l-6.816-6.274M383.415 456.697l1.63 1.87M403.062 459.267l-5.827 3.413M395.17 460.09l.457-.295 4.962-2.94 2.473 2.412M405.42 461.76l-1-1.178-1.358-1.315M395.17 460.09l2.065 2.59M391.21 465.64l.264-.713 3.696-4.837M346.486 460.862l.075-.266M346.486 460.862l-.523 1.865M405.42 461.76l-6.092 3.524M405.42 461.76l2.09 2.55M397.235 462.68l-5.865 3.53M397.235 462.68l2.093 2.604M345.963 462.727l-.201.774M407.51 464.31l4.502 5.593M404.24 466.263l1.56-.918 1.71-1.035M399.328 465.284l-5.958 3.386M399.328 465.284l2.047 2.547M404.24 466.263l5.03 5.948M404.24 466.263l-2.865 1.568M391.37 466.21l-.646.352M391.37 466.21l2 2.46M391.37 466.21l-.16-.57M401.375 467.83l-2.928 1.743M401.375 467.83l5.4 6.487M393.37 468.67l2.191 2.62M393.37 468.67l-.588.44M398.447 469.573l5.93 6.849M398.447 469.573l-2.886 1.718M412.012 469.903l-2.741 2.308M440.413 419.63l-1.25 4.007-17.388 30.17-1.507 2.704-.76 1.16-1.585 2.169-5.911 10.063M395.561 471.29l-.62.491M395.561 471.29l6.43 7.261M409.27 472.211l-2.496 2.106M406.774 474.317l-2.397 2.105M404.377 476.422l-2.385 2.13M342.11 477.583l-.218.77M342.11 477.583l9.444-9.865M401.992 478.551l-.657.888M341.892 478.353l-.9 3.515M341.892 478.353l1.286-1.395M340.992 481.868l.968.293M402.814 296.935l1.16-3.732M402.814 296.935l-1.372 3.522M397.52 309.634l.933.264M397.52 309.634l.556-1.106M399.86 320.607l6.101 3.393M405.961 324l6.185 3.414M389.836 363.154l-5.872 3.527M394.905 373.062l-2.104-3.186M394.905 373.062l-6.79 4.338M334.284 422.564l.483-2.88M332.863 435.19l-.36-.88 1.78-11.746M332.863 435.19l-2.333 2.894M330.53 438.084l4.935 4.13M330.53 438.084l-1.628 2.057M321.787 433.576l1.714-1.62 7.03 6.128M328.902 440.141l-7.115-6.565M328.902 440.141l-.556.58M328.902 440.141l4.897 4.442M328.346 440.72l4.885 4.345M328.346 440.72l-1.959 2.042M328.346 440.72l-7.199-6.54M335.465 442.213l-.336 1.932M326.387 442.762l-7.275-6.66M326.387 442.762l-1.885 1.965M332.685 447.692l-.457-.001-5.84-4.929M342.746 443.135l-4.69 4.139M335.129 444.145l-.694.137-.636.301" clip-path="url(#pbe374097b7)" style="fill:none;stroke:#000"/><path d="m336.878 444.55-.338-.148-.688-.217-.723-.04M333.799 444.583l-.568.482M324.502 444.727l-9.83-8.756M324.502 444.727l6.838 6.038M324.502 444.727l-1.828 1.905M338.056 447.274l.01-.917-.316-.864-.872-.943M344.817 445.009l-4.806 5.096M344.817 445.009l2.012 1.82M333.231 445.065l-.439.674-.21.768.103 1.185M346.83 446.83l-4.818 5.128M346.83 446.83l1.964 1.78M322.674 446.632l6.773 6.078M314.672 435.97l-1.745 2.092 9.747 8.57M338.056 447.274l-.337.857M337.72 448.131l-.381.481M337.72 448.131l2.29 1.974M337.339 448.612l4.925 4.463M334.613 449.343l1.208.05.824-.274.694-.507M333.402 448.68l-2.062 2.085M333.402 448.68l.6.399.611.264M332.685 447.692l.31.532.407.457M348.794 448.61l-4.665 5.234M340.281 455.045l-5.616-5.197-.052-.505M368.584 450.039l-6.492 6.74M340.01 450.105l2.002 1.853M331.34 450.765l-1.893 1.945M331.34 450.765l7.087 6.26M342.012 451.958l2.117 1.886M371.033 452.237l-6.5 6.752M371.033 452.237l2 1.817M329.447 452.71l6.975 6.271M342.264 453.075l5.108 4.63M342.264 453.075l-1.983 1.97M344.129 453.844l3.461 3.085M373.033 454.054l-8.31 8.654M373.033 454.054l2.16 1.962M360.013 454.945l2.079 1.833M340.281 455.045l-1.854 1.98M340.281 455.045l6.28 5.551M375.194 456.016l-8.434 8.632M375.194 456.016l2.019 1.834M362.092 456.778l-3.776 3.92M362.092 456.778l.366.298M347.59 456.929l-.218.776M338.427 457.025l7.335 6.476M338.427 457.025l-2.005 1.956M362.458 457.076l2.075 1.913M362.458 457.076l-3.753 3.976M346.561 460.596l.65-2.314.161-.577M377.213 457.85l-8.382 8.562M377.213 457.85l1.084.875M356.242 458.801l-6.845 6.99M356.242 458.801l2.074 1.898M344.947 466.646l-1.107-.995-7.418-6.67M364.533 458.99l-1.876 1.948M358.316 460.699l-6.762 7.02M358.316 460.699l.389.353M362.657 460.938l2.067 1.77M362.657 460.938l-1.882 1.955M358.705 461.052l2.07 1.84M358.705 461.052l-6.808 6.972M364.724 462.708l-8.67 9.027M364.724 462.708l2.036 1.94M360.775 462.893l-6.76 7.022M345.762 463.501l-.815 3.145M366.76 464.648l2.07 1.764M366.76 464.648l-8.686 8.89M349.397 465.792l2.157 1.926M368.83 466.412l-8.64 8.953M368.83 466.412l2.101 2.008M351.554 467.718l.343.306M351.897 468.024l2.118 1.89M351.897 468.024l-8.72 8.934M370.931 468.42l-8.569 8.945M378.297 458.725l-.745 2.63-.132.252-6.489 6.813M354.015 469.915l2.04 1.82M354.015 469.915l-8.755 8.893M356.054 471.735l2.02 1.803M356.054 471.735l-8.71 8.923M358.074 473.538l2.116 1.827M358.074 473.538l-8.465 9.131M360.19 475.365l2.172 2M360.19 475.365l-8.7 9.119M343.178 476.958l2.082 1.85M411.014 477.268l3.058 3.608M411.014 477.268l.362-.393.213-.482.044-.522-.13-.509-.292-.443-.422-.333-.511-.189-.547-.025-.527.141-.478.314-.34.45-.166.531.03.555.221.513.388.413.509.266.572.088.571-.1.503-.275M362.362 477.365l-7.747 7.88M354.615 485.246l3.033.739 6.658-6.885-1.944-1.735M432.192 482.702l1.97-.923 8.995-4.328M443.157 477.45l.881.797.805.428.904.167.913-.111M444.637 473.518l-.83.542-.588.778-.276.924.067.958.147.73M345.26 478.808l2.085 1.85M345.26 478.808l-3.3 3.353M347.345 480.658l2.264 2.011M341.96 482.16l1.81.428M343.77 482.588l2.563.639M343.77 482.588l-3.1 11.173M349.609 482.67l-1.026 1.105M346.333 483.227l2.25.548M340.67 493.76l2.897-.497 2.766-10.036M348.583 483.775l2.907.709M425.694 484.262l-1.971 5.932M432.192 482.702l-1.222.28-4.838 1.145-.438.135" clip-path="url(#pbe374097b7)" style="fill:none;stroke:#000"/><path d="m431.382 479.913-3.845.625-.699.09-.637-.045-4.768-1.234-.753.082-.38.273-.423.581-.012.575.123.603.409.46 5.297 2.34M351.49 484.484l3.125.762M423.723 490.194l-.462-.104-.474.018-.451.138-.397.249M423.986 493.219l.433-.343.297-.456.133-.523-.046-.536-.221-.494-.373-.403-.486-.27M421.94 490.495l-7.868-9.62M421.94 490.495l-.363.417-.205.506-.027.542.155.522.32.447.382.247M434.232 491.751l-6.866 1.61-1.316.073-2.064-.215M422.202 493.176l.608.252.607-.006.569-.203M167.097 484.517l-1.742.888M191.833 485.011l-12.569.039-12.167-.533M164.951 484.558l.583-.048.66.001.903.006M164.951 484.558l-.556-.01-3.162.023-1.61.122h-2.941l-6.187.422M100.73 439.914l2.32.943 2.721 1.635.885.84.886 1.419.846.445 3.2.364 2.345.468 2.05.156 2.43.699 1.81.126 2.338-1.233.932-.016.746.528 1.98 1.835.543.729.008 1.381.722 4.242.164 1.829-.202 3.595 1.118 2.593.536 1.738.054.758-.155 1.063-1.382 2.927-.233 1.07.108.743.885 2.682.707 1.166 1.677 1.65 2.144 2.095 2.097 1.493 1.662 1.36 1.095.498 1.778.69 2.446.602 2.64.43 4.218.326.522.165.29.22.834.947M164.951 484.558l.404.847M381.684 341.012l-2.707 3.342M385.059 336.774l-.229.341-3.146 3.897M378.977 344.354l-1.03 1.218M374.054 350.738l.525-.65M368.565 357.71l.434-.536 5.055-6.436M301.436 380.191l-5.698-3.2-2.637-1.897-.652-.763.12-.902-3.31-5.825-2.078-4.554-.773-1.27-1.86-2.636-1.86-2.243-.651-.94M301.436 380.191l-5.064-8.237-4.155-6.102-3.721-5.548-1.69-1.573-4.769-2.77M241.357 316.247l-.38 8.76.255 2.832 1.367 2.704 1.336 1.754-.194 7.66.66 1.01 14.243 4.616 8.868 2.184 7.34-.464 3.13 2.386 4.055 6.273M368.12 357.138l.445.572M368.12 357.138l-1.005 1.468M374.315 349.868l-1.47 1.739-4.725 5.531M367.115 358.606l-2.003 2.36M361.664 365.09l-2.296 2.887M365.112 360.966l-2.671 3.145-.777.978M359.368 367.977l-2.078 2.185-1.266 1.604M356.024 371.766l-2.033 2.75-1.684 2.023M309.758 374.59l-7.423 6.1M292.884 359.945l.326.847.31.282.389.142 5.125.572.978.409.73.653 5.778 7.209 3.238 4.53M351.34 377.7l-3.66 4.4M351.34 377.7l.967-1.161M301.436 380.191l.899.499M347.68 382.1l-2.408 2.83M345.272 384.93l-3.128 3.702M342.144 388.632l-3.184 3.822M338.96 392.454l-3.504 4.136M335.456 396.59l-3.675 4.529M331.781 401.119l-1.256 1.453-1.195 1.387-2.714 2.678M326.616 406.637l-.165.532M462.77 458.162l.198-.832.04-1.466.58-.744.71-.43.751-.288M466.49 457.345l-.236-1.494-.395-.807-.354-.395-.456-.247" clip-path="url(#pbe374097b7)" style="fill:none;stroke:#000"/><path d="m471.098 459.53-1.003-5.627-.564-.879-4.482 1.378M466.49 457.345l-3.72.817M465.523 468.823l.08-.517.098-.727.263-1.05 1.546-1.756.214-.686-.214-1.163-1.02-5.579M441.938 466.102l2.699 7.416M430.988 477.68l.496-.476.606-.643.332-.673 2.293-6.785.332-.489.489-.245 6.402-2.267M462.77 458.162l-.69 1.084-20.142 6.856M456.06 467.81l1.242 3.913M456.06 467.81l4.133-1.48 1.908-.831-.12-1.156-.532-.925-13.651 4.762-.17.462.58 1.549.387.069 7.466-2.45" clip-path="url(#pbe374097b7)" style="fill:none;stroke:#000"/><path d="m456.06 467.81-7.465 2.45-.386-.07-.58-1.548.169-.462 13.65-4.762.532.925.121 1.156-1.908.832-4.132 1.479M465.523 468.823l.25.715M465.523 468.823l-3.678 1.325-4.543 1.575M471.67 476.933l-.97-5.18-.822-.462-1.884-.139-1.206-.534-.92-.806-.096-.274" clip-path="url(#pbe374097b7)" style="fill:none;stroke:#000"/><path d="m448.713 475.598 4.043-1.625 13.016-4.435M473.066 485.01l2.756-.683-1.16-7.535-1.256-6.195M457.302 471.723l-8.77 3.27M448.533 474.994l-.489-.759-.713-.573-.866-.327-.93-.05-.898.233M448.533 474.994l.18.604M446.66 478.731l.766-.336.632-.532.448-.683.224-.776-.017-.806M459.722 476.189l1.065 2.628M468.148 477.634l-.49-2.381-.338-1.318-.677-.139-.531.185-.919.278-5.47 1.93M452.143 480.488l-.407-1.144.387-.509 3.31-1.132 4.29-1.514M471.67 476.933l-3.522.701M471.67 476.933l1.396 8.077M430.988 477.68l.394 2.233M414.072 480.876l3.715-3.344 2.66-2.692.31-.152.404-.038 9.827 3.03" clip-path="url(#pbe374097b7)" style="fill:none;stroke:#000"/><path d="m462.383 483.318.491-.16 5.146-1.318.701-.532-.097-.901-.476-2.773M461.304 480.476l-4.575 1.95-.378-.124-.55-1.333.09-.377 4.591-1.664.305-.111" clip-path="url(#pbe374097b7)" style="fill:none;stroke:#000"/><path d="m461.304 480.476 2.681-.508.846-.532-.096-1.11-.58-.739-3.368 1.23M446.66 478.731l1.155 3.273M431.382 479.913l.81 2.79M452.143 480.488l-4.328 1.516M462.383 483.318l-5.718 1.874-1.933.554-.87-.323-1.72-4.935M461.304 480.476l1.08 2.842M447.815 482.004l.208.585M432.192 482.702l2.04 9.05M448.023 482.59l-3.937 1.537M450.984 490.799l-2.803-7.766-.158-.444M444.086 484.127l-.785-1.788-6.269 2.946.647 2.302 5.337-.427 1.722-.15.186-.416-.838-2.467" clip-path="url(#pbe374097b7)" style="fill:none;stroke:#000"/><path d="m444.086 484.127.838 2.467-.186.416-1.722.15-5.337.427-.647-2.302 6.269-2.946.785 1.788M450.984 490.799l5.992-1.11 6.91-2.403 9.18-2.276M434.232 491.751l2.5.02 2.943-.17 11.31-.802M417.41 501.446l1.304-.596M401.335 479.439l3.522 4.048 4.958 6.07 2.812 3.864 2.267 3.625 2.516 4.4M403.253 503.027l.33-.112 10.674-1.158 3.153-.311M492.611 584.595l-3.834-3.203-2.391-1.99M476.342 586.953l5.908-4.384 3.418-2.517.718-.65M492.992 584.913l1.476 1.777M492.992 584.913l-.38-.318M492.992 584.913l1.414-.126M494.468 586.69l3.765 4.021M498.997 590.12l-.764.591M487.234 599.421l.249-.164 4.677-5.216.266-.188 5.807-3.142M499.734 592.5l.286.21.34.122.362.022" clip-path="url(#pbe374097b7)" style="fill:none;stroke:#000"/><path d="m485.534 598.025 1.139 1.264.266.139.295-.007" clip-path="url(#pbe374097b7)" style="fill:none;stroke:#000"/><path d="m488.264 615.53-1.976-.844-.135-.227 1.156-14.606-.075-.432M456.457 601.707l19.885-14.754M456.457 601.707l-13.202 9.967M456.457 601.707l7.158 8.771M513.3 621.048l-3.402-2.799-6.012-4.972-8.103-6.757-2.043-1.696M488.264 615.53l2.968-5.765 2.508-4.94M485.534 598.025l-1.883-2.284-.262-.08-.288.085-19.486 14.732M391.21 465.64l-1.208-1.303M553.796 135.878l1.004 8.206M554.8 144.084l11.668-1.43M554.8 144.084l1.528 10.402M565.005 134.659l1.463 7.995M566.468 142.654l11.126-1.805M566.468 142.654l.69 7.08M575.584 128.698l2.01 12.15M577.594 140.849l11.629-1.649M577.594 140.849l1.7 11.033M589.223 139.2l1.153 10.885M611.77 136.23l11.436-1.855M611.77 136.23l1.523 10.594M620.136 113.466l-11.106 2.314-.213.084-.193.134-.086.216v.288l3.232 19.728M620.136 113.466l3.07 20.909M620.136 113.466l10.511-2.065M623.206 134.375l1.708 10.657M630.647 111.4l4.528-.945M630.647 111.4l-1.144-5.248M630.647 111.4l1.256 5.695M633.021 122.165l-1.118-5.07M412.08 253.577l-.478.17M412.08 253.577l-1.372 4.541M412.878 245.25l.455.516.17.847-1.423 6.964M412.878 245.25l-4.494 5.576M418.102 242.927l-1.738-.722-.573-.065-2.913 3.11M410.708 258.118l-.978 4.347M410.708 258.118l2.361.615M410.708 258.118l-7.109 2.462M407.156 272.196l.257 5.21M407.156 272.196l1.564 3.585M407.156 272.196l-2.09-4.6M409.73 262.465l-.217.79-2.357 8.941M413.069 258.733l.948.152M417.248 246.12l-1.096.917-.17.342-1.857 7.594-1.056 3.76M408.72 275.78l.377-.365.532-1.092 1.347-7.196 2.093-8.394M402.367 257.09l1.195-.492M402.367 257.09l-5.79 2.009M402.367 257.09l1.232 3.49M401.471 287.087l-2.094 3.235M401.471 287.087l3.7 2.266M405.17 289.353l-1.196 3.85M405.17 289.353l1.214.777M406.046 285.271l-.328 1.766-.548 2.316M396.867 279.874l4.332-6.164M407.413 277.406l-.185 2.18-.389 2.213-.793 3.472M401.199 273.71l3.868-6.114M401.199 273.71l6.214 3.696M405.069 264.337l.769 2.04-.771 1.22M409.369 277.261l4.648-18.376M409.369 277.261l-2.985 12.87M409.369 277.261l-.65-1.48M405.069 264.337l4.661-1.872M403.6 260.58l.182.344 1.287 3.413M403.562 256.598l8.04-2.851M408.384 250.826l-3.097 3.463-1.725 2.309M417.248 246.12l.696-2.57.158-.623M398.573 298.457l2.869 2M401.442 300.457l-2.393 6.138M399.377 290.322l4.597 2.88M409.414 333.77l2.614-2.629M409.414 333.77l2.552 1.45M400.885 345.085l4.728-7.81 3.8-3.505M414.353 329.101l2.836-2.619M414.353 329.101l-2.325 2.04M414.353 329.101l9.948 5.628M423.84 341.964l-3.081-1.75M423.84 341.964l.618-1.105M423.84 341.964l-.51.829M435.79 332.371l-1.923 1.856M417.189 326.482l.82-.731M419.8 329.74l-1.932-1.578-.528-.884-.151-.796M428.282 338.196l3.039-1.763M428.282 338.196l-2.76 2.133M428.282 338.196l3.307 4M426.866 336.557l1.014 1.128.402.51M431.59 342.197l2.782-1.832M431.59 342.197l-2.931 1.929M420.759 340.214l-3.116-1.735M420.759 340.214l1.763-2.73M420.759 340.214l-7.442 11.982M424.595 334.272l-.294.457M424.595 334.272l2.271 2.285M424.595 334.272l-4.795-4.531M417.956 351.029l7.877-5.044M417.956 351.029l-2.992 2.11M417.956 351.029l5.374-8.236M426.866 336.557l-2.408 4.302M424.3 334.729l-1.778 2.755M412.028 331.141l10.494 6.343M433.867 334.227l-2.546 2.206M434.372 340.365l2.565-1.688-3.07-4.45M431.32 336.433l3.052 3.932M425.521 340.329l-1.063.53M425.521 340.329l3.138 3.797M428.659 344.126l-2.826 1.859M423.33 342.793l2.503 3.192M404.227 347.712l.327-.528M404.227 347.712l2.895 1.652M411.966 335.22l2.992 1.7M411.966 335.22l-7.412 11.964M414.958 336.92l2.685 1.56M414.958 336.92l-7.426 11.917M417.643 338.48l-7.117 12.12M319.112 436.102l-2.613-2.106-1.827 1.975M321.787 433.576l-.64.604M321.147 434.18l-2.035 1.922M356.3 427.684l8.124 7.21M364.424 434.893l-2.322 2.51M380.012 454.453l-3.958-3.52M380.012 454.453l-.346.519M384.398 459.052l-2.987-3.366-1.249-1.089-.15-.144M379.666 454.972l.04.303v.326l-5.455 19.359M310.219 403.825l3.274-1.709 4.717-2.782M312.25 412.083l-1.367-4.556-.72-2.206.056-1.496M277.98 385.676l-.582 1.693.039.439.194.416 4.683 5.476.691.72.924.595 3.844 1.71.466.073.494-.055.407-.201 2.462-3.644.551-.335.777-.045.9.454 3.938 2.348 6.15 3.707 2.004 1.345 2.19 2.17 2.107 1.283M235.649 460.077l14.6-9.075 21.807-13.882 36.653-24.089 3.541-.948M326.451 407.169l-3.449 2.033-10.752 2.88M606.368 157.39l-10.105 1.38M606.368 157.39l.594 8.03M606.368 157.39l-.089-1.241M606.962 165.42l9.687-1.379M606.962 165.42l1.288 13.914M587.197 180.416l.831-.713 1.794-.528 5.708-.728.474.126.334.245.298 1.728.144.256.286.173 11.184-1.64M608.89 181.623l-.206-.262-.137-.357-.297-1.67M144.315 229.83l.226 1.015 1.758 6.79-.13 4.549-1.693 3.24M223.91 182.933l-3.56-.496-2.322.398-6.749-.463-6.902-5.234-2.083-3.053-2.82-1.167-2.655-1.933" clip-path="url(#pbe374097b7)" style="fill:none;stroke:#000"/><path d="m144.315 229.83-.425-1.913 3.386-5.982.608-4.121 2.413-4.348-1.459-3.119.326-1.122.912-.436-.594-2.656 4.197-2.235 4.24-2.385 5.407-4.394 3.808-3.283 6.014-5.846 5.071-2.304.36-2.039 5.608-3.13 2.024-3.44 4.298-5.11 2.31-.952 4-.03" clip-path="url(#pbe374097b7)" style="fill:none;stroke:#000"/><path d="m192.517 163.272.155 2.504.536 1.234 1.988 2.393 1.623 1.582M254.954 184.823l-1.715 1.24-1.655.52-1.98.157-7.424-2.155-6.508-1.441-6.292-.71-5.47.499" clip-path="url(#pbe374097b7)" style="fill:none;stroke:#000"/><path d="m244.665 201.454-4.05-.535-4.043.149-1.537-.491-1.77-1.976-2.362-1.584-3.145-3.767-3.269-7.134-.578-3.183M254.954 184.823l2.37-1.925 7.074-1.82 2.616-1.26 4.079-2.694 1.271-1.927.22-.204.336-.102 1.705-.368 3.286-3.227 2.56.139.292-.128.246-.286.109-3.15-.458-1.805-.35-.684-1.622-3.277-.136-.892.174-.713 2.307-2.929 2.702-3.106.668-.26.715-.022 7.727.87 1.879-.016.83-.654 7.122-7.773 6.03-4.802 2.093-1.129 3.449-1.148 1.153-.167 1.343.108 7.215 1.397.784.242 2.182 1.192 1.153 1.013.719.563.377.111.446.008 2.73-1.684.78-.133.758-.019 3.428.892 1.107.69 3.953 5.014.95.657 3.252.246M428.764 116.332l-10.274-3.745-.932.179-.629.52-21.341 28.151-.497.342-.683.022-4.383-1.354-12.314-3.933-.621-.041-.583.138-19.511 10.807-10.418 2.243" clip-path="url(#pbe374097b7)" style="fill:none;stroke:#000"/><path d="m337.021 157.538 2.97-.07.416-.197.385-.324 5.786-7.286M416.137 311.922l5.833-5.35M409.383 318.524l1.663-2.968 1.775-2.62 1.506.63 1.81-1.644M418.066 323.378l-.528-1.918-.174-1.16-.125-1.95-.31-2.764-.249-1.509-.326-1.404-.217-.75M440.107 305.96l-3.752 3.329-.524.365-.702.194-.81-.104-12.35-3.173M409.383 318.524l8.683 4.854M418.009 325.75l1.356-1.012M418.066 323.378l.206.775-.263 1.598M418.066 323.378l.89.678M398.612 311.098l-.127.349M208.045 290.716l.904 4.242.963 1.42 7.687 5.18 15.945 10.275 7.813 4.414M286.71 310.897l-3.79 1.575-4.186 1.739-.392-.004-.49-.204-1.207-.97-.695-.423-2.008-.413-1.817-.148-2.594.111-.691-.074-1.413-.46-.91-.202-3.3-.304-2.212.067-5.592.334-6.058.632-.947-.03-2.772-.46-.777-.016-1.091.372-1.045.416-.796.375-.49.62-.162.926.082 1.89M208.045 290.716l-1.655-2.375M208.045 290.716l.415-3.181M396.576 259.099l.247.25 2.543 1.892 1.185.394 3.048-1.055M357.442 420.329l-8.66 6.265M418.714 500.85l.459-.601.536-.915.839-1.812 1.048-2.912.606-1.434M390.724 466.562l-1.954-2.418M390.724 466.562l2.058 2.548M394.94 471.781l-2.158-2.671M401.335 479.439l-5.332-6.343-1.062-1.315M345.125 436.934l2.206-1.924M339.518 412.829l-.062-1.327-.498-.535-.31-.149-.248-.118-1.328.254M414.964 353.139l-1.647-.943M388.168 337.81l12.717 7.275M413.317 352.196l-2.79-1.596M410.526 350.6l-2.994-1.763M407.532 348.837l-2.978-1.653M407.532 348.837l-.41.527M404.554 347.184l-3.669-2.099M400.885 345.085l-.418.532M379.533 422.796l-6.016-8.33M379.533 422.796l.23.32M379.533 422.796l.46-.127M368.62 408.333l4.897 6.133M371.723 447.135l4.33 3.798M376.054 450.933l.545-.51M334.767 419.684l.969-4.34M331.948 417.988l.143-.239.303.034 2.373 1.9M374.58 350.087l3.625-4.35M374.58 350.087l-.265-.219M374.315 349.868l3.632-4.296M394.996 304.11l4.053 2.485M399.05 306.595l-.974 1.933M351.462 190.991l-3.875 3.56-.26.468-.086.568.093.832 3.63 4.21.87 2.642.548 1.494.645 1.13 1.437 1.387 1.108.916 1.252.63 1.643 1.536 1.153.785.684.237 1.533.275 3.817.226.431.146 1.383.71 3.576 1.757 1.382.594 3.468 3.423 1.42 1.17 3.218 3.8 3.801 4.725.556.766.174.176.43.305 2.45 2.675.842 1.338.858 2.236 4.885 16.256 1.468 5.933.58 1.202M411.602 253.747l-.633-.836-2.585-2.085M417.248 246.12l-3.23 12.765M383.69 390.238l-2.935 1.738M490.142 400.688l-10.685 16.957M494.326 401.818l-1.865-.546-2.319-.584M502.003 404.065l11.723 3.432M502.003 404.065l-7.677-2.247M502.003 404.065l-9.096 12.473M513.726 407.497l-10.623 14.576M525.52 429.752l11.394-15.467M525.52 429.752l8.187 6.527M514.669 425.69l3.98-.365 1.653.79 5.217 3.637M543.597 405.538l-4.946 6.933-1.737 1.814M501.223 386.098l-6.897 15.72M514.102 430.167l.254-3.798.313-.679M533.707 436.28l.49.39 10.629 5.396M547.804 452.508l-5.726-3.317-27.976-19.024M632.286 169.017l-5.45.929M408.924 374.786l8.95 2.78M392.202 383.996l8.403 3.314 2.772 1.345.373.044.31-.289.25-.483 1.778-5.506 2.836-7.635M419.8 329.74l2.242-2.204M419.365 324.738l.705-.876M419.365 324.738l2.677 2.798M418.956 324.056l.14.257.269.425M426.701 322.781l-2.33 2.2-2.329 2.555M426.701 322.781l3.915-3.567M420.07 323.862l1.27-1.575.585-.718 1.931-1.786 2.845 2.998M335.736 415.343l3.709 3.298M360.753 437.931l-6.293-5.633M339.445 418.64l7.233 6.592M354.46 432.298l-1.327-1.204-6.455-5.862M534.058 385.424l-8.39 25.093M626.837 169.946l.806 7.39M223.817 277.218l.552-.294.477-1.323-.658-2.881-1.547-3.677-1.464-2.466-2.683-6.774.333-2.14 1.965-1.003.296-1.806-2.501-2.57-4.722-4.4-3.852-2.913-2.733-2.675-1.926-1.07-.684-3.448-8.449.297-1.243-.832-2.05-.06-2.796-1.189-8.324-1.248-11.308-4.935-8.014-2.437-2.486.06-3.603-1.843-1.304.416-1.926 1.843-8.852 1.98M241.947 194.826l.606 1.144.419.565 1.351.773.326.43.326 1.858-.31 1.858M245.783 203.46l-.093-.936-1.025-1.07M570.29 452.9l1.903.766.513.17.303-.029.512-.2.404.104 3.153 2.005.59.372.163.216.008.4-.194 3.418 4.496 2.645 9.708-3.328 20.533-1.992M272.341 110.92l-1.738 1.578-4.139 1.791-6.283.892-1.569.074-4.667-.676-1.81-.13-2.547.204-4.007 1.033-1.188.796-8.387 6.621M232.892 130.126l-1.049-1.895-.769-2.571.11-1.762.244-.524.392-.182 4.186-.089M239.722 131.282l-3.405-6.73-.311-1.449M337.021 157.538l-3.215-.164-1.223-.382-1.414-.011-3.284.605-8.628.03-2.004.171-8.03 2.378-2.998.691-6.057.111-4.229.87-1.25.64-3.623 4.585-1.522 2.69-1.452 1.475-.404.357-.047.397 1.119 4.155-.14 1.27-.229.736-.408.097-.264-.19-.586-1.646M335.69 155.602l1.331 1.936M335.69 155.602l-.84-1.026-.378-.252-.246-.078-2.614-.033-.252.144-.183.23.012.592.07.219.186.156 4.245.048" clip-path="url(#pbe374097b7)" style="fill:none;stroke:#000"/><path d="m335.69 155.602-4.245-.048-.186-.156-.07-.22-.012-.59.183-.23.252-.145 2.614.033.246.078.379.252.839 1.026M380.755 391.976l.683.342.42.654.388.95.326.473.49.189.396-.022 2.873-.424.893.149.528.394.116.475-.185.952-.055.594.093.43.497.491 4.582 4.064 2.126 1.936.312.284M409.722 409.065l-2.703-1.085-4.674-1.961-1.6-.595-1.103-.757-2.834-2.33-.234-.007-.233.085-.73 1.122-.126.137-.247.233M440.666 416.35l-.253 3.28M465.155 434.653l-2.916 1.033-.738.32-.578.063-1.118-.104-.548.045-.431.152-.891.784-1.975.716-1.848.617-.326.049-.276-.082-.276-.286-.505-.758-2.189-2.801-7.58-10.967-2.547-3.803M385.56 337.121l-.501-.347M420.07 323.862l-.497.183-.287.052-.33-.04M378.205 345.738l-.258-.166M365.54 361.257l-.428-.291M352.552 376.7l-.245-.161M398.485 311.447l.396 1.984.48 2.906M398.076 308.528l.377 1.37M455.01 309.4l3.482.583 1.11.275.676.386 6.353 4.265 2.174 1.22 1.204.445 2.594 1.04.737.253.684.126 2.377-.72M455.01 309.4l-2.11-.48-6.6-1.59-6.193-1.37M379.764 423.115l.228-.446M379.764 423.115l-.38.526M445.134 550.789l-1.087 1.337-5.84 4.22-16.153 12.51-.9.601-1.344.513-1.405.349-.622.052-.73-.037-4.846-2.43-.83-.23-1.104-.118-2.61-.305-.908-.037-.94-.186-.69-.208-1.189-.26-1.654-.238-1.537-.081M445.134 550.789l.788-1.068M399.153 620.492l2.531-5.193.785-1.47.559-1.167.31-1.166.311-.98.225-.558.769-1.218 1.087-1.382.614-.943.559-1.144.613-1.174.738-.913 1.11-.773 4.055-2.243.908-.78.536-.558 2.99-4.947.528-.75.668-.684 1.522-1.73.272-.536.062-.415.039-.803.217-.386.45-.431 3.503-3.87 1.429-1.68 2.16-3.104 1.552-2.318 1.142-1.976.17-.394.094-.386-.024-1.248.016-.713.17-.625.575-1.092 2.346-3.387 1.281-2.622.49-.81.668-.743 1.405-1.211 1.607-1.939 4.613-6.315.781-1.04.109-.304.011-.249-.136-.457-.439-.876M403.253 503.027l-.167.2-2.87 5.156-6.764 11.545-.38.832-.187.662-1.467 5.304-.156.386-.21.297-.388.171-11.555-.713-.528-.111-.715-.305-.629-.32-.784-.304-2.144-.639-1.397-.624-1.127-.787M380.211 509.602l1.491-3.358.56-.699.823-.386 1.025-.163 19.143-1.969M401.335 479.439l-12.053 3.982-3.906 1.181-1.413.513-.396.275-.273.43-.077.543.536 3.21M263.56 556.264l.72.172.965.207 5.855 1.59 15.578 4.145M263.56 556.264l-7.604-2.303M195.957 591.038l1.212-.98 14.336-12.095.636-.557.327-.126.356.06.87.497 6.819 3.9.73.416.512.149.7-.03 1.723-.267 11.65-3.225 10.638-2.763 19.237-5.037.35-.208.17-.342-.008-.505-.124-.757-2.532-12.904M159.74 583.033l8.788.888 11.493.892 2.392.148 1.134.12 1.18.4 3.278 1.62 7.952 3.937M159.74 583.033l-1.572 6.31M163.446 487.57l-1.363 4.71-.63 6.018 14.55 25.694.368 2.028-16.63 57.013M278.664 494.357l-.839-.914-1.056-1.018-5.778-4.933-.652-.58-.19-.3-.105-.312.02-.565.974-2.448M315.952 490.832l-1.363-.175-8.65-1.56-7.844-1.47-.467-.164-.357-.312-.559-1.308-.326-.342-.497-.148-6.4-.194-.885-.03-8.041-.204-.28.041-.136.1-.17.283-.14 1.207-.094 1.27-.023.885-.015.876-.101.602-.171.594-.404 1.189-.249 1.07-.116 1.315" clip-path="url(#pbe374097b7)" style="fill:none;stroke:#000"/><path d="m315.952 490.832-10.822.464-2.733.282-6.12 1.62-1.064.178-2.617-.037-.885.07-1.243.22-1.227.06-1.475-.15-1.647.075-2.454.476-1.708.386-1.383.416-.497.052-.543-.111-.87-.476M418.714 500.85l1.911-.713 5.84-1.59 14.227-3.566 22.615-6.062 2.36-.424.576.06.48.282.234.772 2.034 7.437.105.212.136.164.288.204 2.531.773M385.045 458.567l4.957 5.77M385.045 458.567l-.647.485M388.77 464.144l-1.487-1.84-2.885-3.252M390.002 464.337l-1.232-.193M206.39 288.341l-1.813-2.695-4.924-5.148M156.84 318.729l2.943-1.412 4.792-3.299.815-1.026 2.606-5 .823-1.628.45-.468 3.196-2.236 1.048-1.093 3.363-5.699 2.575-3.266 2.186-2.623 1.58-1.293 3.525-2.467 5.907-3.292 7.004-3.429M206.39 288.341l.7.011.698-.245.672-.572M223.817 277.218l-3.991.709-1.084 2.307-1.27.617-6.76.554-1.565.68-.687 5.45M207.947 152.422l1.854-1.502.973-.223.614-.442.819-.962.657-.424 1.393-.453.855-.963.967-.606.617-.378.656-.9.85-1.315.715-.948 1.16-1.861 1.228-2.445 1.211-2.415 2.501-3.43 2.035-2.79.862-.759.893-.245 2.058.208 1.208.476.819.081M239.722 131.282l-1.281 1.672-.66.372-1.026-.171-1.001-1.171-.52-.932-.914-.706-1.428-.22" clip-path="url(#pbe374097b7)" style="fill:none;stroke:#000"/><path d="m254.954 184.823-.768-1.186-.307-.75-.353-3.95-1.115-4.362-.473-1.025-.614-.61-.275-.914-1.033-1.427-1.934-1.27-5.452-.86-.683-.233-.505-.64-.92-.354-.194-.214v-.32l.38-1.211 1.048-2.527 1.884-3.184 1.49-2.05.898-.826.753-.472.221-.312.218-1.293-.074-.33-.275-.239-2.544-.074-.97-.186-.96-.758-.858-.442-.59-.531-2.062-3.1-.17-1.545-.347-1.713-.073-.528.07-.364.854-1.378.815-1.799-.256-5.254.31-2.37.399-2.076-.014-.327-.167-.242-.586-.295M223.817 277.218l.385.48.16.29.189 1.555.466 1.349.198 2.675.256.442.435.186 2.24-.25 3.433-.809 3.572-1.233.715.066.823 1.026 2.276 7.356-.257 1.018-2.594 5.96-.038.698.757.951 2.202 1.457.621.223 1.444-.008.28.137.295.599M614.06 399.911l-.902.134-.87-.223-6.337-3.284-7.998-3.462-1.383-.253-3.991-.327-1.119.193-8.62 2.423-7.3 2.065-.59.149-.233.698-1.957 7.623-1.631 6.598M455.01 309.4l-.33.256-1.453.892-2.237 1.545-4.124 2.81-3.153 2.08M235.649 460.077l-8.947 5.276-5.288 4.42M240.235 512.655l-7.165-34.546-.629-.758-3.262-1.805-2.834-1.842-4.931-3.93M203.637 484.699l-2.003.512-9.801-.2M152.98 396.88l.45 2.415.498 2.645.567 1.94.364 1.767.669 1.531 1.273 1.857 1.43 1.672.473.766.349 1.144.109 1.497.792 1.586 1.118 1.085 3.922 2.14 2.074.787 2.166 1.323 1.553.594.59.446.94 1.538 1.631 3.685.979 2.348 1.693 9.614 1.452 6.545 1.165 2.393.636 1.88.35 2.258.823 2.214.086.683-.365 2.519.318 2.296-.179 2.452.18 2.095.403.936 1.072 1.285 4.892 4.532 1.677 1.776.583 1.032.257 1.345 1.863 9.51M221.88 440.255l.023 2.452.016.758.458.602 7.529 7.333.262.399 1.734 4.088.426.632 3.32 3.558M156.84 318.729l-2.307.453-3.164.119-1.992.587-3.588 1.694-1.01-.015-2.33-.698-3.339-.387-7.269-.148-2.131.561M183.065 368.438l-5.521.119-.816-.357-.722-.765-1.227-2.207-.466-.747-.9-.858-1.623-1.166-.933-.885-.792-1.077-.636-1.88-.171-1.307.225-2.988-.24-.668-1.678-2.133-.474-.802-.078-.67.28-5.847.008-1.167-.296-1.21-.605-.959-2.245-2.192-1.925-1.694-1.98-1.196-2.385-2.274-.699-2.029-.225-2.14.03-3.313-.294-2.943.163-4.354M240.235 512.655l2.178.643 1.134.717.889.787.87 1.115.023.286-.668 1.746-.008.378 1.123 4.937 1.001 4.866.31.275 2.066-.238 11.826-.507.287.061.146.196 1.03 6.186M226.337 531.4l.761-3.18 1.46-2.437 1.29-.714 3.882-1.575 1.057-.832 2.687-1.04 3.758-2.437.187-.653-1.184-5.877M163.446 487.57l.158-.546 1.751-1.62M127.656 557.252l-.086 1.029.06.488.546 1.447.97 3.276.649 1.582 1.064 1.698.322.761.173.782.165 2.48.222.345.698.59 2.113 1.62 2.438 1.412 2.493.63.97.58 1.065.84 1.949 1.18 1.996 1.732.885.304 2.874.312.537.344.783 1.239 2.01 3.525.758.605 4.858 3.29M204.135 485.583l-.498-.884M198.17 524.356l-5.017-3.447-9.202-6.582-.148-.506.218-.653 8.628-5.357 1.08-1.441 1.739-3.195 1.087-2.176.9-2.808 1.92-4.844 1.521-3.27 3.24-4.494M633.693 527.882l-3.34-.42-10.112-2.08h-1.196l-1.538.326-3.758 2.021-6.058 2.258-2.143.743-1.367.357-.637.312-.435.624-.202.892.093.876M613.593 188.189l-3.215-.067-.326-.133-.163-.246-.17-.357-.956-4.86-.016-.274.024-.223.119-.406M629.503 106.152l-.541.125-2.337.461-.35.179-.427.341-.42.364-.318.112-.722.097M636.542 116.266l-4.639.83M635.78 113.003l-.489-2.103-.116-.445M612.91 155.179l-6.63.97M347.898 387.062l.128-1.017.146-.511.544-.727.776-.405 1.004-.17M476.768 139.449l5.674 43.16-.077 2.258-.342 2.379-3.79 16.764M163.446 487.57l-.104-.196-.078-.208-.093-.164-.14-.074h-.186l-.45.208-1.539.98-3.184 2.244-1.661 1.13-.435.326-.249.164-.109.312-.124.386-.108.387-.25.58-.077.415v.342l-.03.446v.356l-.016.253-.14.252-.156.297-.232.238-.296.134-.093.148v.164M482.124 593.84l-5.782-6.887M477.895 603.87l7.64-5.845" clip-path="url(#pbe374097b7)" style="fill:none;stroke:#000"/></g><g id="PatchCollection_1"><path d="m307.271 428.653-1.24-1.843.248-.672 1.7-.71 1.879-1.168 1.24-.071 2.02 1.134 1.275.992.886.46-.851 1.17-2.09-.39-1.878.708-2.02.106-.814.39zM191.748 105.884l1.646-.149 2.206-.118 1.196-.12.606-.282.376.008-.669-1.74-.997-1.062-1.195-1.427-.668.015-.792.312-.482.401-1.305 2.066-.28.773-.077.728.14.328zM616.047 532.632l-1.21-2.11 6.274-2.436 1.273 1.366-2.176 5.064zM575.882 560.892l.932 3.09 5.218-4.754 7.145-6.003-7.58 4.517z" clip-path="url(#pbe374097b7)" style="fill:#00f;fill-opacity:.8"/></g><g id="PatchCollection_2"><path d="m513.04 201.96-.87.832-.994.713-.808 1.07-.558 1.1-.28 1.16-.062 1.248-.187 1.219-.28 1.159-.186 1.189v3.507l-.062 2.26v2.348l1.18 3.27.28 1.159.218 1.16.093 1.188.342 1.278 1.77 3.121.746.981 1.18 1.16.932.742 1.895 1.576 1.584 1.16 1.119.624 2.547.653 1.273.208 1.398.09h2.671l1.212-.387 1.242-.416 1.057-.565.652-1.01.373-1.13.217-1.278.094-1.16-.156-1.456-.434-1.308-.529-1.16-.994-.385-1.211-.506-1.15-.446-1.15-.564-1.241-1.07-.715-1.1-.186-1.16v-1.308l.28-1.218.372-1.19v-1.277l-.186-1.19-.311-1.277-.093-1.19 1.15-.446.93.863.56 1.04.528 1.01.684 1.16.373 1.13.123 1.189v1.248l-.434 1.278-.094 1.249.125 1.248.776 1.01 1.088.476 1.15-.535.403-1.13v-1.248l-.342-1.278-.217-1.19-.28-1.217-.03-1.19.248-1.159.124-1.159-.28-1.368-1.056-1.07-.994-.98-1.056-.893-1.242-.535-.84-.475-1.056-.892-1.242-.713-.87-.862-1.18-.684-1.15-.624-1.025-.773-2.267-1.486-.963-.862-.995-.921-.931-.803-1.088-.803zM422.085 231l-.714 2.498-.528 2.02.217 1.22.715.95.931.744 1.181.148h1.491l1.429.446 1.18.535 1.087.535 1.057.832 1.18.863.87.951.963.95 1.087.922.932.714.87.743 1.212.178.062-.565-.808-1.07-.932-.832-.497-.565 1.335-.713 1.057.327.56-.178-.747-1.16-1.149-.565-1.18-.505-.963-.773-.622-1.248-.683-1.04-.901-1.04-.777-.952-.87-.862-1.086-.832-1.553-.892-1.336-.654-1.212-.446-1.304-.327zM586.506 548.59l2.67 4.635 15.595-5.111 8.574-7.013 6.585-.06 3.666-4.991-7.549-3.418-8.915 8.231zM551.776 596.728l-4.473-19.018 3.714-11.392-17.506-12.736-1.988-8.202 18.39 8.558 4.168 5.9 7.76-2.572 3.599 9.94 7.211-.787-2.36 11.53-12.675-3.804-3.442 10.494 7.366 7.667zM656.523 591.141l-15.16 14.263-6.584 16.76-10.065 15.807 4.1 14.024 41.626 17.828 28.827 7.131-15.657-15.45 2.983-4.992 21.123-11.648 8.947-20.918-36.78-22.345 6.213-11.41-1.491-11.649-2.237-12.599-18.141 2.378 8.45 11.41-5.965 4.992-14.91-16.878z" clip-path="url(#pbe374097b7)" style="fill:#006400;fill-opacity:.8"/></g><g id="PatchCollection_3"><path d="m443.636 477.469.225.274.264.24.297.202.322.16.344.117.357.067.364.02.362-.03.355-.079.34-.125.318-.17.29-.211.255-.248.217-.281.173-.306.126-.327.077-.34.026-.332-.02-.331-.068-.326-.112-.314-.155-.297-.195-.274-.233-.247-.264-.215-.293-.178-.315-.14-.332-.098-.381-.058-.386-.002-.383.053-.37.107-.35.158-.32.206-.285.25-.242.29-.194.318-.143.344-.087.36-.03.368.028.37.085.36.14.344zM501.418 591.182l-.22-.226-.285-.143-.318-.046-.317.056-.28.153-.208.226-.12.277-.022.3.08.291.174.25.248.185.297.099.313.002.3-.094.256-.186.179-.257.08-.298-.026-.307zM422.902 490.429l-.406.141-.338.258-.235.346-.108.4.03.412.165.382.283.312.372.21.445.087.45-.06.404-.2.311-.316.183-.398.034-.433-.119-.42-.258-.358-.369-.254-.413-.12zM387.623 352.168l.27-.243.172-.315.05-.351-.073-.348-.19-.304-.286-.227-.348-.123-.354-.007-.337.1-.286.199-.206.274-.105.323.008.338.12.318.219.265.295.185.342.085.37-.026zM427.883 379.138l4.219 2.354-4.57-1.448zM348.215 382.842l3.072 2.27.043.347-1.855 2.262-.526.009-3.046-2.378-.07-.281 1.96-2.229z" clip-path="url(#pbe374097b7)" style="fill:green;fill-opacity:.8"/></g><path id="PatchCollection_4" d="m355.67 408.646 2.834-2.984 4.501 3.896-3 3.053z" clip-path="url(#pbe374097b7)" style="fill:#90ee90;fill-opacity:.8"/><g id="PatchCollection_5"><path d="m514.626 134.212 3.79 1.248 10.748.654-.808-2.497 3.542-3.032 1.801-3.627 2.547-3.508.497-.297 2.734-4.848.683-.027 3.417-4.849 1.429-1.275 4.722-3.449-1.305-1.605h-4.038l-10.686 3.924-.435 3.032-.994 2.497-.497 1.903-1.677 1.189-1.119-1.367.435-2.708-.56-2.762-.62-.773.683-1.817-1.242-4.366.87-2.59-.932-1.75-2.113-.06-.248-1.698 2.298-.978.87-3.005-3.914.092-1.74-1.13-1.677-.06-1.367-2.02-.931-3.152-.435-1.4-3.107-.086-.994.416 1.242 2.2.995 1.13-2.485-1.012 1.553 1.428 1.988 1.545.56 1.309.683 1.486-.311 2.465.373 1.875.807 1.308.746 1.427 2.36-2.378 1.554.951-.497.892-1.305.833-1.18 1.129 1.305 2.2v1.486l-1.926-1.308-.498-1.545-2.05-.655-1.553.714-2.423.594-7.704-2.437-1.429.357-1.429 15.042zM552.94 309.576l21.45-12.947 31.125 6.36 1.368 5.47-1.989 2.913-1.47-.351-.331 2.788-2.588 1.016-1.575 1.421-2.898 2.324-1.18-.594-1.43-.595-1.016-1.848-.04-.767 2.858 1.13-.519-2.503.87-.357.373-1.784-.994-1.01.186-1.07-1.18-.773-1.097-2.253-1.077 2.075-1.16.54-.208 2.73-.66 1.372-.085 1.897 1.864 2.497-13.336 38.94-31.769-19.265-.497-1.605zM218.96 373.103l10.53-2.824h2.858l3.552-6.055-.776-3.864-.881 1.45-1.895 1.336-1.429 1.546-1.211-.921-2.175-.803-.466-2.289-1.43-.802-2.515 1.486-.89-.23-.818-.87-1.605.156-3.51 2.735z" clip-path="url(#pbe374097b7)" style="fill:#006400;fill-opacity:.8"/></g><path id="PatchCollection_6" d="m485.914 578.604-10.48 7.857 3.037 4.359-5.219 3.937 3.89 4.867-7.245 5.236-7.306-8.816-25.046 18.533-1.532 3.35 7.642 8.942 25.286-19.638 1.367 1.902-4.847 3.803 2.237 3.804 4.809 2.977-10.897 9.74-5.008 5.592-3.69 9.978-5.84 14.262-.475 2.46 31.293-.867 1.737-22.273 2.572-9.384 19.304-35.211-8.923-10.45z" clip-path="url(#pbe374097b7)" style="fill:#d3d3d3;fill-opacity:.8"/><g id="PatchCollection_7"><path d="m350.445 385.942-.434.612-1.243-.807-.162.23-.294-.193.309-.436-.161-.104.183-.259.207.135.278-.392.272.177-.175.245zM339.49 409.988l.774.65-.567.618-.774-.65z" clip-path="url(#pbe374097b7)" style="fill:#a9a9a9;fill-opacity:.8"/></g></g></g><defs><clipPath id="pbe374097b7"><path d="M90 95.854h558v535.493H90z"/></clipPath></defs></svg>