<svg xmlns="http://www.w3.org/2000/svg" xmlns:xlink="http://www.w3.org/1999/xlink" width="960" height="960" viewBox="0 0 720 720"><defs><style>*{stroke-linejoin:round;stroke-linecap:butt}</style></defs><g id="figure_1"><path id="patch_1" d="M0 720h720V0H0z" style="fill:#fff"/><g id="axes_1"><path id="patch_2" d="M90 619.27h558V107.93H90z" style="fill:#fff"/><g id="LineCollection_1"><path d="m290.757 349.98 3.62-.4M290.757 349.98l1.847 5.563M290.757 349.98l-5.093.783M287.798 344.28l1.58 2.806 1.379 2.894M296.31 367.103l.897 1.332M296.31 367.103l-.242-.605M296.31 367.103l-1.31.076M276.092 316.82l3.604-.09M279.43 328.18l-2.268-4.346-.496-1.256-.306-.888-.198-.888-.038-1.7-.032-2.281M272.286 306.123l1.797 3.544.81 1.75.412 1.059.572 2.053.215 2.292M270.064 317.445l3.501-.5 2.527-.124M269.351 299.637l1.362 3.223M269.351 299.637l-2.177.508M265.722 288.984l3.328 9.77.301.883M242.027 266.57l3.256 2.706M242.027 266.57l-3.214-2.914M242.027 266.57l-8.706 7.712M605.012 608.238l-34.803 1.199-2.002-.05-1.466-.186-1.546-.34-2.26-.706-1.751-.808M557.223 604.208l2.086 1.89 1.875 1.249M367.516 415.946l2.613 2.433M367.516 415.946l-1.868-1.888M364.196 415.111l.755.148.806.185.641.214.48.12.638.168M246.586 288.769l3.045 3.354M246.586 288.769l-4.489-4.849M246.586 288.769l-7.624 6.794M246.586 288.769l4.993-4.3M228.598 284.435l-6.013 5.405M228.598 284.435l-2.827-3.417M228.598 284.435l.498.51M238.813 263.656l-1.766-1.596M238.813 263.656l-8.58 7.514M232.596 292.428l-4.24 3.75M232.596 292.428l1.54 1.758M230.57 288.425l.837 1.896 1.19 2.107M262.78 310.892l1.662 3.839M262.78 310.892l-4.063 1.813M258.896 302.354l1.413 2.939 2.472 5.599M270.064 317.445l-1.183-2.391-2.339-5.186-.168-.152-.207-.09-.4.016-.469.152-2.517 1.098M236.4 277.462l2.84 3.31M236.4 277.462l-3.079-3.18M236.4 277.462l8.883-8.186M229.096 284.945l2.261-1.945.097-.238v-.25l-.038-.419.059-.27.19-.276 4.735-4.085M256.285 314.23l-.24-.284M256.285 314.23l2.607 2.893M256.285 314.23l-3.158 2.08M339.385 376.322l.346.7M337.563 370.937l.794 2.59.708 2.043.32.752M337.346 376.733l.283.014.354-.039.418-.09.984-.296M292.91 327.556l.455 5.5M292.91 327.556l-.03-.554M292.91 327.556l2.42-.222 1.088-.132.878-.115.37-.295M292.91 327.556l-13.118 1.319M300.324 320.272l.341 2.014.004.424.017.332M306.515 324.78l-1.333-.998-.485-.18-.78-.198-.48-.074-1.368-.255-.868.074-.295-.008-.22-.099M297.667 326.792l1.32-.264.312-.127.232-.16.295-.35.27-.728.59-2.12M298.031 354.565l2.664-.488M298.031 354.565l-3.389.551M298.031 354.565l.08 6.02M298.031 354.565l-.204-5.35M312.976 338.761l3.574-1.347M312.976 338.761l-4.437 1.767M309.872 325.36l.152.576.025.551-.186 1.01-.505 2.188-.374 1-.05.324.006.4.089.532.168.695.456 1.012 3.323 5.113M313.824 346.5l-.162-1.884-.361-4.206-.325-1.649M299.374 314.228l.022-.533M299.374 314.228l.686 4.467M299.374 314.228l3.075-.11M299.374 314.228l-1.471.363M294.377 349.58l3.45-.366M294.377 349.58l.265 5.536M294.377 349.58l-.43-5.738M350.68 383.787l5.55-1.81M350.68 383.787l-.977-4.163M355.521 400.26l-1.138-2.671-.549-1.43-.472-1.258-.32-.978-.549-1.67-.75-3.05-1.064-5.416M230.233 271.17l-8.22 7.33M230.233 271.17l3.088 3.112M230.233 271.17l-1.753-2.002M233.321 274.282l-7.55 6.736M230.067 297.944l-1.711-1.765M230.067 297.944l2.873 3.102M230.067 297.944l4.069-3.758M230.067 297.944l-4.685 4.18M300.06 318.695l.264 1.577M300.06 318.695l6.16-1.318M315.87 320.65l.336-.296M315.87 320.65l-3.033 2.746M315.87 320.65l1.298 2.343.304.575.49.88M315.87 320.65l-3.531-5.11M252.27 295.239l-.322-.354M252.27 295.239l3.166 3.33M252.27 295.239l-7.374 6.634M328.903 324.279l-4.512 6.3M279.792 328.875l.33.633M279.792 328.875l-.361-.694M310.82 347.064l.764-.132M301.623 348.758l1.012-.124 1.265-.205 6.92-1.365M309.83 344.215l.268.685.304.832.419 1.332M343.391 356.544l-.185-1.506M343.391 356.544l4.121-.225M343.391 356.544l-4.503.443M343.391 356.544l.71 3.727M268.263 288.004l1.046-.493 3.442-1.472.43-.218.552-.32.877-.597.532-.456 1.826-1.841.333-.333.257-.16.544-.317.473-.148.594-.173 2.227-.255.658-.029.514-.028 9.903.345" clip-path="url(#p50240caecb)" style="fill:none;stroke:#000"/><path d="m306.962 304.899-2.718-5.99-1.812-4.447-.202-.399-.354-.415-.452-.415-.303-.165-.341-.148-1.477-.374-.35-.16-.279-.304-.156-.313-.986-2.458-.38-1.233-.425-1.094-.92-1.496-.59-.916-.389-.49-1.657-1.491-.363-.387-.16-.263-.177-.432" clip-path="url(#p50240caecb)" style="fill:none;stroke:#000"/><path d="m293.078 275.656-.038 1.738-.067.272-.055.201-.147.35-.245.633-.304.81-.101.447.025.453.325.95M248.719 272.06l2.912 2.367M248.719 272.06l-2.656-2.181M248.719 272.06l-9.479 8.712M360.32 408.256l-1.568-2.167-1.535-2.507-.912-1.685-.784-1.636M349.178 391.99l3.5 3.823.372.477.414.644.809 1.502 1.248 1.825M310.992 313.955l.023-.46M310.992 313.955l.2.073.118.103 1.029 1.41M310.992 313.955l-4.49.076M345.04 367.818l-3.146 1.116M345.906 369.281l-.414-.604-.451-.86M344.27 361.434l.425 4.46.089.695.042.452.215.777M338.888 356.987l1.012 5.231M334.012 357.373l.886.033.793-.041 3.197-.378M225.382 302.123l-1.655-1.855M232.94 301.046l-4.065 3.568-.517.145-.48-.124-2.496-2.512M339.9 362.218l1.994 6.716M339.9 362.218l4.37-.784M336.858 361.908l.871.084 1.163.113 1.008.113M222.014 278.5l-5.448 5.004M222.014 278.5l3.055 3.067M328.028 354.87l-.198-3.827M329.025 357.24l-.12-.204-.133-.205-.31-.481-.172-.33-.262-1.15M322.658 354.254l.36-.137.455-.094.498-.016.869-.013.527.107 2.661.769M334.012 357.373l.187-3.026M329.025 357.24l1.407.027 3.58.106M245.283 269.276l.78.603M239.24 280.772l2.857 3.148M239.24 280.772l-7.844 6.94M349.178 391.99l-1.816 1.63M339.731 377.021l3.973 7.275.607 1.077.86 1.356 1.047 1.595.927 1.267 2.033 2.4M312.377 353.135l.654 3.424M312.377 353.135l-.148-1.701M306.633 353.567l2.446-.444.725-.025.633-.082.658.016 1.282.103M322.658 354.254l-1.627-.523-1.645-.074-1.34-.469-.81-.345-.743.05-1.09.756-3.026-.514M308.54 340.528l1.29 3.687M304.988 332.67l.355.336.257.263.253.362.207.309 1.273 3.39 1.206 3.198M301.26 338.079l.06 2.112.083.206.114.164.169.144.177.058 4.652-.144 2.024-.09M292.31 316.17l.028 5.399M292.31 316.17l-7.709.271M291.906 308.467l-.258.83-.025.354.013.398.067.399.296 1.307.177 1.316.135 3.098" clip-path="url(#p50240caecb)" style="fill:none;stroke:#000"/><path d="m297.903 314.591-1.379.58-.544.228-.426.175-.464.135-2.78.46M306.515 324.78l.64.4.423.14.434.09 1.86-.05" clip-path="url(#p50240caecb)" style="fill:none;stroke:#000"/><path d="m308.817 322.915.54 1.097.515 1.349M234.136 294.186l.807.984M234.136 294.186l2.163-1.903M219.527 286.677l3.058 3.163M219.527 286.677l5.542-5.11M219.527 286.677l-2.961-3.173M219.527 286.677l-4.584 4.114M347.362 393.62l-2.494 2.251M342.076 388.39l.464.46.776.625 4.046 4.146M350.937 401.707l1.927-1.354.055-.13.032-.147.002-.103-.05-.152-1.742-2.166-.962-1.06-2.837-2.974M304.988 332.67l-.22-.286-.142-.278-.09-.382v-.448l.081-.781.118-.395.17-.292.155-.185.603-.719.224-.473.177-.74.033-.48v-.584l.042-.712.08-.37.106-.423.19-.341M232.94 301.046l2.818 3.275M238.962 295.563l-2.441 2.205-3.581 3.278M321.51 335.854l.576 1.246M321.51 335.854l-.25-.894M321.51 335.854l-4.96 1.56M231.396 287.711l-2.3-2.766M231.396 287.711l-.825.714M225.069 281.567l.702-.55M214.943 290.79l2.901 3.196M214.943 290.79l-2.995-3.243M141.65 363.213l1.916-.378.848.053.612.178 2.513 1.134 1.442.682 1.037.707 1.493 1.48.616.267.822-.079 1.624-.46 1.185-.756.904-.373.844-.045.37-.1.35-.233.52-.477.311-.14.368.02.647.176.538-.056 4.255-.633.56-.165.321-.296.194-.447.359-1.793.142-.321.423-.513.19-.28.16-.616.332-.72 1.184-2.022.272-.357.35-.05.367.181.856 1.065.325.222.631.39.527.27 1.57 1.229.39.051.499-.084 3.285-1.865 1.398-.657 1.77-.437 1.877-.436 1.502-.332.996-.098 1.67.066 1.951-.067 1.615-.284 1.781-.192 1.24-.357 1.316-.247 1.354-.144.733-.152.983-.501.376-.116.446-.037 2.597.21.392.205.305.349.337.55.303.116.297-.07.188-.346-.513-4.273-.178-.614-.34-.533-1.055-1.27-.709-.931-.074-.223-.052-.35-.16-1.131-.057-.976.318-2.353.515-1.891.559-1.267.325-1.172.33-2.067.15-.596.095-.48-.042-1.678.03-1.088.13-.958.186-.934.176-.37 1.21-1.587 1.11-1.84.226-.405.106-.34.174-1.471.06-.389.128-.308.671-.968.658-1.284.145-.718-.025-.69-.253-1.521-.143-1.143-.18-1.666-.59-3.19v-.6l.137-.554.843-2.828.493-1.04.4-.686.22-.715.06-1.628.07-.745.536-1.448.17-.71.868-4.112.529-1.04.838-1.075.219-.284.118-.295.08-.358.034-.452.101-.448 1.058-.943 2.009-1.655M217.844 293.986l4.74-4.146M217.844 293.986l-.415.46M222.585 289.84l2.846 3.186M216.566 283.504l-4.618 4.043M213.724 280.406l1.537 1.718 1.305 1.38M225.43 293.026l2.926 3.153M225.43 293.026l5.14-4.601M223.253 294.899l1.21-1.057.968-.816M252.358 274.953l-.727-.526M252.358 274.953l-5.36 4.733M257.406 279.142l-1.592-1.321-3.456-2.868M269.499 256.956l-.41.604-.24.395-.223.337-.734 1.11-1.72 2.318-1.637 2.08-.532.567-.81.938-.894.764-.885.822-1.662 1.53-3.728 3.428-3.666 3.104M242.097 283.92l4.901-4.234M236.299 292.283l-.088-.263-.084-.38v-.32l.054-.225.097-.234.544-.711.152-.264.004-.221-.153-.669.006-.339.139-.225.21-.153 4.917-4.359M236.299 292.283l2.663 3.28M246.998 279.686l4.581 4.783M251.579 284.469l5.827-5.327M257.406 279.142l5.131 4.19M228.356 296.179l-4.63 4.089M217.43 294.447l1.515 3.645.445.685.746.562 2.803 1.35.215.023.221-.105.352-.34M244.896 301.873l2.954 3.159M244.896 301.873l-2.874-3.058M241.559 304.282l1.254-.812 2.083-1.597M238.962 295.563l3.06 3.252M235.758 304.321l6.264-5.506M247.85 305.032l-2.528 2.032-.55.12-.565.066-.557-.009-1.045-.189-.465-.008-.318.061-.205.145-.468.366-.405.23-.337.053-.485.107-.272.047-.164.007-.315-.07-1.417-1.481-1.996-2.188M232.238 307.381l1.427-1.19 2.093-1.87M249.63 292.123l2.318 2.762M249.63 292.123l-7.608 6.692M262.537 283.332l.718.588M262.537 283.332l-1.485 2.51M268.263 288.004l-1.965-1.686M268.263 288.004l3.155 2.663M268.263 288.004l-1.645.082M265.277 287.64l-.624-1.231-.33-.772-.336-.749-.42-.714-.312-.254M266.298 286.318l-1.291-1.052-1.752-1.346M265.722 288.984l-.445-1.345M265.722 288.984l.896-.898M251.948 294.885l4.864-2.635.25-.162.238-.179.243-.21.145-.21.491-.793 2.873-4.854M262.654 292.682l-.667-4.168-.242-.991-.087-.284-.134-.39-.472-1.007M258.896 302.354l-3.46-3.786M258.896 302.354l3.69-.974M255.138 304.43l1.451-1.167.532-.346.64-.308 1.135-.255M250.626 308.08l5.42 5.866M250.626 308.08l-2.776-3.048M250.626 308.08l4.512-3.65M253.127 316.31l-2.593-2.75-.469-.572-.528-.341-.564-.165-.515-.246-.426-.518-.143-.312-.021-.251v-.362l.08-.284.56-.724 2.118-1.705M247.85 305.032l7.586-6.464M262.586 301.38l-2.53-2.882-1.655-1.923-.165-.11-.16-.006-.177.023-.232.099-2.231 1.987M262.586 301.38l2.109-.576M261.638 320.366l-2.746-3.243M261.638 320.366l4.427-1.959M264.61 324.027l-1.199-1.487-1.773-2.174M258.892 317.123l5.55-2.392M264.442 314.73l1.623 3.677M266.065 318.407l2.34 4.053M268.405 322.46l-3.796 1.567M268.405 322.46l2.123 3.31M271.05 326.64l-3.12.546-.207.016-.303-.061-.195-.107-.253-.164-2.363-2.843M270.528 325.77l.523.87M270.064 317.445l2.969 6.637.008.183-.055.18-.088.084-2.37 1.24M285.664 350.763l-1.139.09-.27-.09-.244-.312-6.79-14.936-2.197-4.572-.182-.205-.253-.227-.262-.217-2.066-1.858M271.05 326.64l.579.928.345.502.287.366" clip-path="url(#p50240caecb)" style="fill:none;stroke:#000"/><path d="m273.3 335.079-.277-.83-.18-.831-.582-4.982M290.543 368.986l-1.986-2.504M290.543 368.986l1.28.444M290.543 368.986l.237 1.163M290.78 370.149l1.042-.72M288.161 372.261l1.34-1.06 1.279-1.052M295 367.179l-.58.483-.86.649-1.738 1.119M295 367.179l.67-1.566M296.068 366.498l-.397-.885M298.295 362.787l-.076.316-.126.32-.81 1.624-.22.428-.219.3-.282.295-.494.428M285.306 374.152l.971-.505 1.884-1.386" clip-path="url(#p50240caecb)" style="fill:none;stroke:#000"/><path d="m280.966 361.516 3.451 4.992 1.222 1.914.877 1.398 1.645 2.441M283.977 359.601l-3.011 1.915M283.977 359.601l4.58 6.88M278.853 351.581l.19.367.684 1.264 4.25 6.39M280.966 361.516l-3.02 1.768M278.853 351.581l-1.295.555-.27.198-.194.246-.101.305-.017 1.105.043.514.185.501.283.539.333.563 3.146 5.41M297.207 368.435l.599.688M297.207 368.435l-3.023 3.286M277.937 349.43l-3.856.524M277.937 349.43l-4.637-14.351M278.853 351.581l-.215-.579-.701-1.572M269.157 344.766l1.24 4.192.13.326.237.308.312.251.3.115.329.062 2.376-.066" clip-path="url(#p50240caecb)" style="fill:none;stroke:#000"/><path d="m272.362 360.258-1.446-4.83-.051-.455.064-.313.193-.172.203-.095.346-.103 1.956-.27.262-.15.202-.258.06-.259-.017-.575-.053-2.824M264.695 300.804l2.48-.659M269.022 308.91l-2.012-3.49-1.42-2.552-.347-.666-.236-.534-.312-.864M273.799 298.87l-.66-1.941-1.721-6.262" clip-path="url(#p50240caecb)" style="fill:none;stroke:#000"/><path d="m286.41 303.292-.639-.572-.664-.51-13.69-11.543M276.141 300.138l3.64 1.279M276.141 300.138l-1.569.81M273.799 298.87l.701.418.266.185.397.234.367.205.611.226M270.713 302.86l1.573 3.263M270.713 302.86l3.859-1.912M274.572 300.948l-.773-2.078M283.32 302.958l-3.54-1.541M283.32 302.958l-2.854.14M286.41 303.292l-.506.193-.286.032-.772-.164-.869-.222-.658-.173M280.466 303.098l-.685-1.681M280.466 303.098l2.223 5.481M272.286 306.123l2.084-.97.91-.473.659-.324.742-.32.556-.173 1.603-.374 1.626-.391M297.127 305.82l1.704.772M296.596 298.288v2.508l.038.909.113.806.304 2.03.047.58.03.698M291.042 304.632h.8l1.046.053 1.169.214.961.27 2.11.65M303.065 313.013l-.616.637M298.831 306.592l.674.387 1.097.789.742.797.258.432.274.604.413 1.085.776 2.327M303.065 313.013l.838.623M297.667 326.792l-.481-.173-.574.065-1.638.084-2.093.234M292.88 327.002l-8.27.71" clip-path="url(#p50240caecb)" style="fill:none;stroke:#000"/><path d="m292.338 321.569.033 1.25.51 4.183M284.078 327.778l-4.647.403M284.078 327.778l.532-.066M284.078 327.778l.015-5.815M284.61 327.712l.088-5.775M284.601 316.441l-.71.08M284.601 316.441l-.126-1.554-.093-1.101-.278-1.743-.228-1.086-.262-1.002-.444-1.314M284.601 316.441l.097 5.496M283.17 308.641l-.48-.062" clip-path="url(#p50240caecb)" style="fill:none;stroke:#000"/><path d="m287.887 305.006-.663.402-.623.46-2.38 1.858-.602.506-.45.41M282.678 308.956l.312-.187.18-.128M279.074 310.29l.475-.15 1.294-.47.924-.348.91-.366M282.678 308.956l.616 2.176.387 2.455.116 1.813.093 1.12M282.678 308.956l.011-.377M283.89 316.52l.035.791M283.89 316.52l-4.194.21M284.093 321.963l.605-.026M283.925 317.311l.148 3.438.02 1.214M284.698 321.937l7.64-.368M282.24 333.54l2.836 5.46M282.24 333.54l-2.118-4.032M293.365 333.056l-6.377.148-2.387.082-1.08.115-1.282.14M293.365 333.056l.245 5.491M293.365 333.056l7.667-.085M304.988 332.67l-3.956.301M312.339 315.54l.475-.241M306.22 317.377l3.028-.574.329-.09.333-.11.396-.125.485-.177 1.548-.76M296.2 321.322l2.239-.532 1.885-.518M301.032 332.971l.228 5.108M285.076 339l8.534-.453M287.798 344.28l-2.207-4.28-.515-1M293.61 338.547l.337 5.295M293.61 338.547l7.65-.468M293.947 343.842l-3.948.265-2.2.173M301.818 344.816l-.016-.113-.035-.067-.06-.08-.542-.463-.238-.126-.33-.076-.351-.031-3.642-.035-2.657.017M301.818 344.816l2.77-.125.951-.081 1.507-.13 2.784-.265M301.818 344.816l-.195 3.942M301.623 348.758l-3.796.456M319.591 344.918l-5.767 1.583M313.824 346.5l-2.24.432M313.59 333.311l2.96 4.103M316.55 337.414l3.399 4.937M318.91 328.98l-.485-3.98M319.126 329.858l-.147-.539-.07-.338M314.444 329.596l.075-1.082.038-.128.106-.086.152-.045.296.045 3.799.68M319.85 319.943l1.468 2.203.447.822.232.712.084.588-.134.793-.19.464-.304.658-.43.715-2.113 2.083M319.126 329.858l2.133 5.102M319.126 329.858l-4.682-.262M313.003 329.544l1.441.052M306.503 313.608l-.001.423M306.503 313.608l-2.6.028M306.503 313.608l4.512-.112M306.22 317.377l2.597 5.538M306.22 317.377l.282-3.346M312.837 323.396l-.797-.74-.325-.234-.358-.198-.423-.107-.556.03-.367.077-1.194.69M317.961 324.448l-.341-.016-.591-.008-1.113-.025-.464-.025-.25.029-.653.152-.354.04-.228-.027-.266-.153-.864-1.02M318.425 325l-.056-.574M318.425 325l-.464-.552M293.778 268.281l-.21.37-.211.608-.068.634-.076.895-.135 4.868M269.499 256.956l2.003-3.309.262-.411.168-.098.371.032.456.156 1.56.551.439.164.498.24.531.484.329.346.426.39.468.3.531.239.405.386.422.732.194.468.312.683.152.324.21.35.363.435.33.214.573.132.523.164.514.403 1.772 1.603 1.973 1.011.523.428.43.362.186.238.22.169.24.102.278.12.173.061.143.111.215.28 1.363 2.758.388.863.227.946.119 1.389.11.806.202.69.531.773.801.987.557.485.768.764.32.379M291.042 304.632l-1.856.123-.798.054M291.042 304.632l-.267 2.175M286.41 303.292l.81.766M306.962 304.899l-6.423.702-.38.079-.278.106-.203.157-.847.649M311.015 313.496v-.177l-.015-.159-.019-.133-2.396-4.938-1.623-3.19M322.086 337.1l2.172 5.424M324.39 330.578l1.922 3.78.03.12v.053l-.008.05-.053.1-1.825 1.162-2.37 1.257M324.39 330.578l-3.13 4.382M324.258 342.524l5.672-2.131M327.627 347.344l-.156-.346-.249-.431-.36-.554-1.816-1.925-.465-.682-.323-.882M329.93 340.393l1.662 2.43M329.93 340.393l-.814-1.677M331.592 342.822l2.757 1.373M329.939 346.95l.033-1.02.06-.407.105-.366.257-.56.518-.879.68-.896M334.35 344.195l-.118 2.187M334.35 344.195l1.501.265M335.324 343.205l-.43.357-.24.218-.152.172-.153.243M335.324 343.205l.527 1.255M335.324 343.205l1.863-1.838M322.731 347.222l4.896.122M327.627 347.344l.203 3.7M327.627 347.344l2.312-.395M334.232 346.382l-4.293.567M334.232 346.382l.13 5.574M312.23 351.434l4.571-1.152M312.23 351.434l-.646-4.502M314.165 362.528l-.63-3.482M321.381 350.739l1.135-.16.792-.116.544-.082 1.48.177 2.498.485M337.087 352.322l-2.724-.366M336.912 348.68l.236 1.044.023.357.018.385-.102 1.856M340.068 352.798l-.354-.008-.784-.115-1.843-.353M334.2 354.347l.104-1.642.059-.749M340.068 352.798l.568-.01M336.912 348.68l1.2.238 1.792.522.22.181.075.197.064.267-.195 2.713M335.851 344.46l.135.191.097.152.152.453.677 3.424M334.2 354.347l6.47-.29M340.636 352.788l.034 1.268M343.142 353.94l.145-.609-.068-.294-.152-.222-.185-.14-.359-.058-.683.009-1.204.162M340.67 354.056l2.472-.117M343.142 353.94l.064 1.098M322.086 354.47l.572-.216M321.314 363.136l-1.035-.185-.182-.1-.101-.1-.119-.186-.092-.178-.036-.172-.063-.62-.154-5.46.111-.217.233-.26.35-.286 1.86-.901M324.021 361.81l-.113-.748-.583-1.765-.717-2.705-.522-2.121M323.988 364.423l.033-2.614M327.104 366.14l-.38-.119-.577-.254-.721-.358-.608-.366-.83-.62M321.314 363.136l.548.099.83.259.452.287.844.642" clip-path="url(#p50240caecb)" style="fill:none;stroke:#000"/><path d="m321.314 363.136.76-.206.463-.183.4-.224 1.084-.714M332.654 363.202l-1.484-2.064M332.654 363.202l-2.526 1.743M337.563 370.937l-.438-.961-.506-1.004-.43-.698-3.535-5.072M330.128 364.945l-1.779 1.059-.296.139-.236.055-.253-.004-.46-.054M327.121 369.54l-.527-2.269-.013-.312.03-.222.126-.268.367-.329M327.121 369.54l.22 1.878M331.575 368.701l-1.611.51-.776.205-.633.148-.536.064-.426-.014-.472-.074M331.575 368.701l1.518 3.124M331.575 368.701l-1.447-3.756M331.17 361.138l-.573-.583-.89-.868-.27-.238-.144-.201-.135-.276-.046-.48-.026-.618-.061-.635M331.17 361.138l5.688.77M344.27 361.434l-.17-1.163M337.563 370.937l1.836-.43M342.265 369.927l-.37-.993M342.852 372.304l-.356-1.625-.23-.752M339.399 370.507l1.005-.206 1.861-.374M336.858 361.908l2.54 8.6M346.938 355.252l-1.387-.115-1.008-.037-1.337-.062M347.749 355.343l2.539.337M347.749 355.343l-.81-.091M347.749 355.343l-.237.976M350.288 355.68l1.256.238.435.132.573.197.451.185 1.455.85M346.715 359.572h-.822l-.763.09-.33.152-.227.128-.472.329M346.715 359.572l.797-3.253M350.015 358.63l-.112.572-.168.205-.181.116-.35.135-.772.054-.856.004-.86-.144M348.542 362.297l-.542-.456-.345-.35-.27-.39-.294-.423-.215-.407-.114-.329-.047-.37M350.288 355.68l-.273 2.95M350.015 358.63l1.357-.038M356.23 381.978l-.992-4.112M361.577 380.835l-.497-.057-.574-.025-.86.156-.666.206-2.75.863M354.688 375.564l-.513-2.437-.281-1.269-.662-2.992-.368-1.8M349.6 363.111l2.134 1.381.405.296.16.214.194.411.135.55.236 1.102M356.896 367.706l-1.206-.164-2.826-.477M365.744 381.016l1.08.123 1.02-.049.877-.066 1.127-.23 1.877-.624M356.896 367.706l1.906.363 3.796.797.396.193.376.275.177.362.67 2.092.751 1.722.186.346.375.325.704.415.97.51.903.591.417.3.528.457 1.13 1.443.384.591.755 1.024.405.658M343.512 195.497l3.735-6.406.185-.937.186-3.56.194-.633.312-.625.147-.894.234-2.205.125-.42.434-.353 2.957-1.67 1.08-.295 2.96-1.003 4.875-.132.522.266 1.486 1.527.354.632.118.987-.05.715-.279.88-2.041 2.993-1.468 3.905-1.965 7.984-1.096 3.025-.136.912.094 1.71 1.754 5.065.81 1.168 3.587 2.521 2.634.496 1.164-.051.91-.43 1.587-.973 4.794-1.925 2.488-.296 1.164.165.777.353 1.088.33 1.855.024 1.19.279.742.477.86 1.085.287.732.329 2.269.692.97.548.411.886.362 1.652.18 1.283.009 3.323.452.827.28.346.328 4.15 7.441 1.349 3.404 2.033 3.84 1.72 2.883.498.989 2.208 3.375.26.999 1.035 2.522.031.33-.447 1.653-.21 1.027.024.979.195 1.702 1.13 6.084.076 2.5-.224 2.034-.611 2.265.198.84.324.755 1.3 2.339 1.796 2.174.987.797.472.642.49 1.71.135 1.135-.08 2.079.738 3.076 1.07 1.8 1.055 2.852.228 1.702.612 2.57.076 1.693-.01 1.73.372.806.443.728 1.45 1.566.582.978 4.42 9.997 1.628 2.245.33.764.27.92.64 5.74 1.215 6.362 1.135 7.662.552 2.89-.025 1.76.236 1.245.207 2.31-.19.654-.152.382-.038 1.55-.004 2.14-.768 2.192.034.473 2.572 4.151.338.822-.022.571-.19.67-.665 1.784-.38.691-.464.32-2.66.642-2.652 1.44-.354.648-.12.703.692 5.463-.043.633-.194.436-1.02 1.701-.203.716-.075.854-.195.675-.261.427-2.741 3.527-.692 1.315-.498.37-1.139.033-1.142-.32-.856.238-.658.329-1.586.18-.616-.04-1.387-.878-.342.055-.312.164-1.24 1.48-.37.074-3.071-.51-1.139.149-.65.394-.278.493-.548 2.532-.194.271-.236.107-1.805-.723-1.3-.624-1.054-.157-.92.008-2.37.411-.26.37-.49.98-.308.132-.232-.016-1.172-.237-.645.226-.173.198-.253.995-.469.579-.502.099-.442-.243-.877-.328-2.501-.551-.616.107-2.396 1.167-.158 1.143-.06 1.274-.347.748-1.214 1.895-1.805 1.13-.498-.008-.747-.407-.084-.255.14-.382.678-.53.414-.268.177-.702-.181-.568-.46-.502-.393-.213-1.936-.189-2.344.152-4.078.683M358.587 372.015l-.527-1.073-.231-.459-.182-.36-.751-2.417M361.577 380.835l-1.39-4.527M365.744 381.016l-3.138-.099-1.029-.082M349.703 379.624l5.535-1.758M346.854 370.426l.448.555.594 1 .245.7 1.562 6.943M355.238 377.866l-.55-2.302M355.238 377.866l4.95-1.558M360.188 376.308l2.216-.882M358.587 372.015l.35.842 1.25 3.45M365.744 381.016l-1.467-2.782-1.873-2.808M358.587 372.015l.896-.465.207-.033.188.004.213.136.837 1.5.43.83 1.046 1.44M348.542 362.297l1.058.814" clip-path="url(#p50240caecb)" style="fill:none;stroke:#000"/><path d="m348.75 365.274-.228-.382-.036-1.148.056-1.447M345.906 369.281l.948 1.145M348.75 365.274l-.365 1.187-.139.366-.135.366-.143.345-.19.275-.282.222-1.59 1.246M349.6 363.111l-.163.97-.103.395-.164.415-.123.144-.297.239M343.598 375.931l.332 1.812.35 3.74M343.598 375.931l-3.867 1.09M342.852 372.304l.497 2.266.25 1.361M333.945 375.402l1.071.583 1.181.42.632.184.517.144M339.151 383.48l-.046-.252-.034-.482-.053-.381-.253-1.033-1.419-4.599M333.085 374.916l.86.486M334.636 379.693l-.337-.962-.173-.74-.122-.522-.063-.616-.021-.584.025-.867M340.735 386.006l-.414-.83-.358-.481-.571-.785-.135-.212-.106-.218" clip-path="url(#p50240caecb)" style="fill:none;stroke:#000"/><path d="m336.087 385.07.43-.37.6-.47.514-.28.531-.254.99-.216M344.868 395.871l-5.01-5.549M349.345 400.573l-1.879-2.137-2.598-2.565M342.076 388.39l-2.218 1.932M340.735 386.006l.371.6.354.683.414.776.202.325M357.892 409.819l-2.451-1.461-3.402-1.376-6.058-2.115-2.477-.926-1.841-1.107-.692-.403-8.595-6.297M315.05 383.022l2.085 1.496 15.24 11.616" clip-path="url(#p50240caecb)" style="fill:none;stroke:#000"/><path d="m334.805 394.745-.793.854-.422.247-.54.214-.674.074M334.805 394.745l.844-.625 1.662-1.332 2.547-2.466M298.295 362.787l-.185-2.202M300.678 363.438l-.166-.088-.186-.101-.167-.058-1.864-.404M292.604 355.543l2.038-.427M295.28 364.743l-1.016-3.493-1.66-5.707M300.695 354.077l5.938-.51M300.678 363.438l.605-.522.177-.19.127-.227.088-.239.032-.147.038-.617-.02-1.517-.153-1.209-.877-4.693M315.05 383.022l-11.604-8.898-3.692-2.95-1.598-1.647-.35-.404M300.678 363.438l-.62 1.366-.907 1.686-1.345 2.633" clip-path="url(#p50240caecb)" style="fill:none;stroke:#000"/><path d="m302.753 363.226-.696.21-.438.09-.384.038-.272-.03-.285-.096M313.535 359.046l-.504-2.487M313.535 359.046l-4.31 1.764M306.633 353.567l1.202 3.531M309.225 360.81l-3.276 1.208M309.225 360.81l2.077 5.44M309.225 360.81l-1.39-3.712M305.95 362.018l-3.197 1.208M315.911 377.855l-.927-2.91-.198-.333-.258-.267-.236-.128-4.323-1.915-.194-.222-.127-.201-.037-.136-.047-.193-.034-.234-.088-.309-.426-1.055-1.37-3.1-1.697-4.834M298.11 360.585l-2.83 4.158M295.28 364.743l.39.87M302.753 363.226l2.659 6.953M605.012 608.238l.756-.518.089-.239-.067-.26-4.474-4.642" clip-path="url(#p50240caecb)" style="fill:none;stroke:#000"/><path d="m628.369 608.226-2.01-.268-2.123-.186-4.337-.123-14.887.589M577.026 579.767l.358 6.877-2.046 1.197-2.506 2.541-2.096 1.345-3.17 1.147-3.274.1-3.375-.1-5.779-.05-4.398.05-1.948.617" clip-path="url(#p50240caecb)" style="fill:none;stroke:#000"/><path d="m557.223 604.208-2.369-2.848-3.156-4.038-2.906-3.831M474.791 484.9l14.64 26.62 13.326 23.966 2.575 4.55 1.18 1.872 1.178 1.616 1.78 2.139 2.62 2.584 5.146 4.855 2.22 2.325 2.244 2.556 6.892 8.953 6.8 8.973 13.4 17.582M565.098 598.555l-.88.229-1.91.686-1.028.544-.558.659-.411.715-1.586 1.374-1.502 1.446M493.456 478.074l-1.218.83-.777 1.404-1.202.449-.971.448-2.02-.075-1.253-.298-1.534-.474-2.097-1.943-1.508-1.57-1.51-.997-1.968-1.794-1.534-1.246-1.228-1.545-1.201-1.82-2.864-2.391-2.557-2.393-1.739-1.396-1.713-.697-1.482-.057-.772.085M474.791 484.9l-5.925-10.417-5.491-9.986-1.067-1.903M416.585 439.762l8.813-.007 2.132.094 6.667 1.031 9.321 3.353 4.447 2.453 5.918 4.692 2.774 2.679 3.207 4.445 2.444 4.092M520.577 436.863l-3.072-.695-2.226-.173-1.692 4.121-2.448 2.3-1.47 2.04-1.024 2.776-2.003 2.17-4.273 3.297-.58.564.224 1.128 1.157.738 3.339 2.95 2.582 2.516.356 2.56-.445 2.734.667 5.163.89 3.34-1.201 1.085-1.736 1.215-5.654.26-2.405-.303-1.424.52-2.715 1.041-1.968-.136" clip-path="url(#p50240caecb)" style="fill:none;stroke:#000"/><path d="m477.261 339.426.27 6.972-.54 1.315-2.294.921-1.485 2.894-2.632 1.973-1.417 6.445 1.822 8.09.338 3.551-.068 1.973-2.766 2.367-3.172 3.42-5.33 1.316-1.013.986.81 2.17 2.227 8.418 4.183 2.5 4.05 7.826 1.146 1.973.405 2.761 1.552 5.065 4.79 8.286-.606 7.037 1.214 3.946-1.08 1.578 1.755 4.208 1.552 2.434 2.227.526-.067 7.694.54 1.973 1.821 3.09.473 3.091.742 1.513 1.956 4.67 4.32-2.303 1.619 1.71.945 3.749-1.012 6.97.54 2.565-1.62 2.975M417.163 447.866l6.765 7.275 3.297 4.176 1.949 2.383.658.855.368.76 1.404 4.211.447 2.009 1.433 4.25 1.046 2.45 1.03 2.942.505 1.792.371 1.89.237 1.25.455 1.233.472.888.743.542.578.28.442.127.92.173 1.56.056 3.023.075 1.574-.004 1.35.222.446.165.54.328.397.543.499.805.717.34 2.19-.19 1.666-.604 1.24-1.34 1.396-.321 2.15.019 1.609.17 2.015-.246 1.977-.926 2.287-1.19 1.511-1.057 1.376-.34 1.57-.076 1.123.038.795.284.756.755.741.041M416.585 439.762l-9.148.22M417.163 447.866l-1.35-1.924-.152-.358-.067-.37.008-.332.072-.395.683-1.83.182-.492.101-.551-.004-.534-.051-1.318M417.163 447.866l-3.746 11.522M397.754 449.913l-.759-1.34-.64-.568-.266-.336-.022-.239.253-.382.241-.16.392-.194.253-.029.574.1.345-.067.308-.25.35-.35.186-.386.143-.42-.042-.443-.067-.42-.102-.402-.573-1.34-.371-.822-.354-.444-.33-.378-1.42-1.346" clip-path="url(#p50240caecb)" style="fill:none;stroke:#000"/><path d="m407.437 439.982-9.052.119-2.195-.27-.337-.134M389.527 436.9l1.696 1.263 2.258 1.157 2.372.377M389.527 436.9l-4.717-4.48M384.81 432.42l.977.658 3.664 3.37.076.452M381.821 452.198l.312-.542.135-.404.076-.895-.008-.405-.009-1.01.266-.575.333-.654.076-.406.042-.235.063-1.163.122-.374.144-.176.371-.395.261-.185.27-.078.355-.066 1.358-.176.932-.362.374-.222.174-.206.177-.345.19-.383.11-.316.088-.477 1.494-5.248" clip-path="url(#p50240caecb)" style="fill:none;stroke:#000"/><path d="m387.325 435.638 1.497 1.413.705-.151M365.648 414.058l-2.164-2.153M365.648 414.058l.122-.443-.042-.436-.131-.365-.254-.432-.263-.251-.571-.259-.511-.061-.514.094M364.196 415.111l.472-.197.329-.207.334-.294.317-.355M364.196 415.111l-.477-.123M328.71 508.953l1.33-.399.537-1.918.895-.499 1.688-2.168 5.435-.916M344.687 521.978l-.605-1.75-.323-2.119-1.47-3.299-.689-2.342-1.047-3.558-.934-2.43-1.024-3.427M344.497 486.945l-.877 1.923-.607 1.192-1.079 3.405-.423 4.013-1.826 2.625-.779 1.8-.311 1.15M337.826 532.02l2.79.544.587-.114.852-1.23v-1.146l-.44-2.175.235-1.374 1.027-2.033 1.81-2.514M346.934 527.082l-1.942-4.221-.305-.883M350.153 527.177l-.338-.387-2.88.292M306.473 484.668l1.585 7.957-.472 6.313 2.818.682 1.324-.912.573-.518.54-.592.565-.592.878-.838.69-.576.322-.468.202-.44.06-.39-.03-.33-.153-1.47.047-.193.123-.145.88-.567.988-1.126 1.839-1.52.876-.519 1.063-.493.583-.09.784.008 1.122.12.843.028.823-.02.881-.03 1-.098 1.075-.115.75.025 1.688.287 1.645.313 1.256.255 1.46.131 1.24-.156 5.398-1.094 2.758-.55M363.72 414.988l-.245.292-.227.172-.22.045-.354-.098-.308-.173-.278-.242-1.392-1.447-.536-.616-.392-.432-.713-.514-.965-.464-.334-.128-.548-.037-.577.066-.342.123-.32.214-.414.543-.452.961-.99 2.265-1.493 3.847-1.966 5.393-1.999 5.318-.388 1.628-.498 2.861-.379.666-.262.444-.362.366-.536.357-.653.329-.899.226-.965.127-2.055.23-2.003.605-.363.136-.286.308-.13.423-.03.317.016.752.034.929-.025.633-.084.666-.068 1.397.202 1.685.304 1.957.143 1.586.11 1.66.194 3.97.119 2.714.117 1.61.118 1.695.11 2.038.11 2.664.084 2.137.127 1.405.05 1.817.127 1.118.38 1.167.43.921 1.678 2.795 1.206 2.417.658 1.38.447 1.587.13 1.2-.189 1.003-.312 1.463-.228.625-.337.855M360.32 408.256l3.164 3.649M360.32 408.256l-.005.597-.057.331-.11.255-.275.246-.257.165-.354.14-.384.004-.986-.175M363.484 411.905l-5.592-2.086M363.484 411.905l-.422.292-.387.472-.151.39-.078.494.042.52" clip-path="url(#p50240caecb)" style="fill:none;stroke:#000"/><path d="m362.488 414.072.267.311.391.305.573.3M357.892 409.819l1.194.993 1.21 1.08 1.46 1.451.732.73M336.087 385.07l-.582.59-.91.749-.92.592-.422.304-.472.386-.751.715-.961.856-1.156.937" clip-path="url(#p50240caecb)" style="fill:none;stroke:#000"/><path d="m336.087 385.07-.295-.314-.22-.147-.244-.05-.29.003-1.633.154-.666.107-.683.188-.524.222-.472.296-1.948 1.398-1.088.748-.152.27.025.305.371.535.557.526.607.526.48.362M332.941 392.706l-.804-.622-2.224-1.885M334.805 394.745l-1.864-2.04M307.835 357.098l5.196-.539M251.631 274.427l-.027-1.024-.076-.247-.311-.438-3.464-3.071-.29-.034h-.338l-1.062.266M262.54 282.026l1.105.888 1.544 1.126 1.358.938.24.288.076.288-.16.313-.405.451M287.22 304.058l.308.512.359.436" clip-path="url(#p50240caecb)" style="fill:none;stroke:#000"/><path d="m288.388 304.809-.242-.207-.344-.213-.582-.331M290.202 308l.82-.292M290.202 308l-.076.836-.061.177-.125.14-.11.042-.082-.01-.529-.44-.118-.184.008-.185.186-.175.354-.095.245-.032.308-.074" clip-path="url(#p50240caecb)" style="fill:none;stroke:#000"/><path d="m290.202 308-.308.074-.245.032-.354.095-.186.175-.008.185.118.185.529.439.082.01.11-.042.125-.14.06-.177.077-.836M346.173 351.453l.146.86.16.518.224.436.18.41.153.474-.013.357-.085.744M293.778 268.281l.388-.518 1.038-1.39.143-.6.076-.633-.076-.706-.177-.88-.152-.633-.32-.855-.574-.814-1.105-1.283-.472-.904-.186-.666-.11-2.343-.16-2.795-.236-2.335.06-1.012.143-1.159.055-1.011-.076-.839-.152-.702-.224-.62-.409-.827-.363-.485-.506-.765-.27-.633-.205-.858-.161-2.558-.043-4.39.186-4.218.472-3.61.16-.542.085-.46.177-.411.068-.51.008-.74-.97-6.544-.388-1.3-.405-2.022-.118-1.644.135-1.382-.017-.937-.135-1.15-.211-.503-.404-.64-.144-.502-.093-.806.025-.362.152-.838.186-1.579.236-1.332.05-1.99-.084-.879-.034-.945.043-.823.168-.806 1.405-5.594.966-3.433.21-.641.33-.674.236-.56.168-.715.203-1.11.733-3.305.17-.584.294-.731.507-.715.7-.666 1.273-1.234 1.046-.888 1.29-.872 1.881-1.11 1.105-.772 1.072-.798 1.03-.732.935-1.035.616-.667.692-.929.548-.755.464-1.062.08-1.436.194-2.947-.35-2.153 1.202-2.531 2.17-3.551M343.512 195.497l-3.03-4.712-.27-3.355-2.497-8.09-2.564-.329-5.398.33-.743-2.369 3.442-5.393-5.736-5.591-3.104-.657-9.38-7.894-4.21-2.045M415.69 384.243l1.119-.588 1.012-.617.784-.477.445-.468.212-.279.305-.436.261-.206.725-.255.532-.353.422-.255.565-.444 1.81-1.862.822-.71.223-.091.223.016.258.185.303.288.907 1.706 1.224 4.25 1.07 3.149.642 1.725 1.113 3.273.168.986.178.88-.034.682-.194.575-.38.781-.759 2.425-.312 1.192-.042.83.067.7.237.821.944 2.919.152.666.042.41-.134.436-.186.428-.843.953-1.536 1.924-1.142 1.903-.321.3-.308.148-.329.107-.286-.017-1.004-.164-.667.19-.92.32-.7.518-.556.51-.742 1.167-.987 2.639-.506 2.531.084.781.152.749.767 1.832.878 1.628.168.65-.025.271-.101.263-.287.115-.59-.057-1.181.222-.456.304-.27.55.06 1.283.139.835.029 1.072-.164.674-.262.547-.278.522-.35.361-.54.378-1.973 1.266-3.257 2.466-4.673 3.716M195.229 241.763l-1.686-.637-.384-.09-.265-.058-.19-.017-.325.103-.645.514-.447.164-.329-.09-.329-.239-.194-.476-.33-.386-.927-.61-1.147-.846-4.083-2.055-.362-.11-.266-.018-.329.066-.995.42-.211.053h-.253l-.763-.35-.35-.288-.473-.69-.413-.85-.603-.663-.472-.46-.385-.214-.383-.148-.97-.037-.304-.057-.48-.181-1.805-1.135-1.553-.666-.341-.127-.257-.123-.33-.268-1.665-2.355-1.675-2.319-.249-.123-.387-.078-4.104-.452-.472-.173-.507-.32-.345-.707-.287-1.086-.068-3.412-.162-2.87M237.047 262.06l-.317-.286-.305-.275-2.377-2.749-1.819-2.579-1.02-1.981-.928-1.735-.913-2.24-.566-1.34-.512-1.632-.304-1.22-.454-2.764-3.893-30.021M158.035 130.247l.967.827 20.66 19.756 3.592 2.943 9.988 6.66 4.629 3.8 3.019 2.928 2.188 2.814 6.34 8.887 6.938 8.497.823 1.314 1.117 2.322 1.236 3.364 2.368 8.48.72 3.269 1.02 7.13" clip-path="url(#p50240caecb)" style="fill:none;stroke:#000"/><path d="m232.87 191.747-.417.592-.127.275-.307 1.078-.481 1.27-.127.328-.244.297-.211.193-.32.308-.325.234-.401.197-.363.33-.206.255-.039.16-.033.304.025.543.122.81.11.998.038.691.008.765-.1 1.052-.144.731-.312 1.522-.135.79-.089 1.24-.076.374-.122.337-.156.276-.148.156-.299.32-.3.297-.628.629-.704.682-.32.498-.25.394-.16.276-.122.288-.215.345-.536.58-1.117 1.076M141.699 117.78l2.202 1.124 7.572 5.736 6.562 5.607M637.236 566.678l.033 1.29-.033 1.259-.27 1.668-.329 1.875-.57 2.88-1.075 5.216-.827 4.159-.759 4.743-.43 3.066-.405 3.51-.607 3.608-.38 2.075-.322 2.704-.196.905-.24.645-.34.489-.163.165-.324.246-.806.267-.506.202-.16.168-.158.408M320.744 369.244l-1.084 2.581-.21.712-.08.587-.013.477.08.44.084.456.637 1.58v.15l-.031.142-.066.1-.116.095-4.034 1.291M315.05 383.022l-.919-2.302-.12-.666.042-.608.23-.578.18-.232.231-.212 1.217-.569M275.939 364.558l2.007-1.274M273.3 335.079l-9.856.743M259.616 336.603l.088-3.992.579-.911.846.043.618.339.317.485 1.035 2.837.345.418" clip-path="url(#p50240caecb)" style="fill:none;stroke:#000"/><path d="m259.616 336.603 1.2-.582 2.628-.199M257.345 339.597l1.157-.911.708-1.017.406-1.066M248.085 319.073l5.042-2.763M255.138 304.43l3.579 8.275M258.717 312.705l-2.672 1.241M282.821 342.986l-.877-1.816-.447-1.094-.658-1.726-2.15-4.34-1.308-2.829-.004-.242.013-.193.134-.19 2.598-1.048M332.941 392.706l.422-.641.456-.551.69-.74.634-.74.54-.674.624-.78.734-.691 1.408-.847 1.358-.625.928-.41M118.904 133.942l.247-.66 9.34-12.37 2.82-1.603 5.346-1.546 5.042.017M116.276 172.95l-.65 2.532-1.88 2.806-1.174 2.577-.06 3.092 1.705 3.149 1.115 3.608 1.117 2.347 1.644 2.749 1.058 3.492 1.997 4.753-.529 5.382-.998 3.894.881 3.32.998 1.432 2.703 2.863 1.586 1.031v1.03l-2.996 2.005-4.053 2.404h-3.584l-3.583-2.404-1.175-1.66-2.115-.46-.058 3.207 1.468 2.92 1.763 2.406-.705 2.69-1.704 2.577.764 3.894 2.29 5.382 2.762 1.431 1.586 1.317 1.644 3.321 4.23 8.245 1.88 3.722.47 2.863.411 4.81.715 1.899.7 1.2 1.332 1.373 1.038 1.134.6.97.8 2.064.65 1.694.582 1.027.844 1.14.528.5.947.41M343.512 195.497l.353 1.23M211.948 287.547l-2.001 1.89-.806.931-.213.468-.234.327-.308.138-.33.002-.325-.097-.524-.174-.788-.021-.428.131-.49.267-.358.037-.307-.11-1.752-1.267-.675-.28-.646-.137-.57-.193-.759-.49-1.43-1.007-.45-.084-.5-.026-1.301.3-1.046.082-1.308-.082-.624-.033-.48-.12-.99-.605-.949-.78-.585-.135-1.224.025-.44-.136-.342-.284-1.766-2.651-2.873-4.974-1.206-2.014-.641-.823-1.426-2.318-.261-.616-.11-.485.025-.345.026-1.649-.254-1.706-.143-.325-.097-.185-.126-.123-.858-.398-.23-.264-.097-.18-.16-.395-.094-.296-.19-.56-.21-.497-.136-.299-.88-.773-.62-.354-.43-.247-.186-.016-.241.098-.143.19-.464.497-.637.456-.658.23-.3-.012-.34-.045-.266-.14-.16-.284-.157-1.13M263.695 238.171l.003 2.369-.042.622.022.448.039.474.042.357.05.518.144 1.242.034.896.025.592.228.394.295.362.54.576.742 1.463 1.527 4.184.835 1.982.91 1.693.41.613M291.906 308.467l4.407 3.703M291.021 307.708l.155.125.73.634M296.313 312.17l.337-.39M296.313 312.17l.601.58.116.15.112.201.036.203.02.355M297.199 313.66l.08.475.076.13.158.137.39.19M298.468 313.382l-.304-.094-.132-.008-.173.005-.168.05-.105.036-.156.099-.231.19M298.468 313.382l-.481-.443-.267-.26-1.07-.898M299.396 313.695l-.603-.144-.325-.169M373.011 421.163l-2.882-2.784M370.129 418.38l.756.09.536.106.265.136.224.14.628.534.507.688.042.107.023.109-.099.873M384.81 432.42l-.47-.445-10.113-9.523-1.216-1.289M346.854 370.426l-.472.133-.915.337-1.278.547-1.337.861M279.074 310.29l.049.72.06.424.218 1.139.047.551.05.806.08 1.316.118 1.483M354.688 375.564l-2.867 1.24M277.946 363.284l.9 1.454M280.758 367.664l4.548 6.488M282.134 375.88l2.184-1.213.988-.515M282.134 375.88l-4.344-6.435M278.064 477.401l-2.091-6.642-1.283-10.127-3.778-18.15-.54-7.76-4.32-8.55-2.766-6.905 4.859-6.577.742-8.944 1.755-3.946 3.17-4.538 2.565-2.302 2.564-3.945 1.198-4.978.548-1.86.009-.3-.055-.361-.082-.346-.15-.407-.27-.692-.295-.888v-.493l.169-.477.21-.493.636-.767.19-.236.27-.247.27-.222.545-.368M288.557 366.482l3.032-1.566.136-.19.118-.254.02-.21-.016-.185-6.183-13.314M262.245 294.786l1.67 1.55.73.683 1.193.974.367.374.253.292.295.456.156.312.265.718M214.649 296.159l2.78-1.712M209.643 284.942l2.305 2.605M195.622 252.26l-2.503-2.865-.05-.237-.009-.234.032-.27 2.137-6.891" clip-path="url(#p50240caecb)" style="fill:none;stroke:#000"/><path d="m199.362 241.237-.282-.265-.459-.17-2.693-.486-.105.05-.11.09-.101.12-.383 1.187M233.833 261.69l.484-.019.316.025.768.09 1.646.274M233.833 261.69l-.636.228-5.907 2.928M229.126 253.872l1.879 3.017.475.652 2.353 4.149M228.444 252.516l.682 1.356M222.61 257.038l.636-.34 5.88-2.826M210.226 267.205l.18-.143M210.226 267.205l-.9-4.008M210.226 267.205l2.295 9.364M215.697 262.567l-2.647 2.388M215.697 262.567l1.426-1.085M218.512 271.294l2.664-1.965.075-.148.009-.144-.123-.217-5.44-6.253M213.724 280.406l3.35-2.88M212.521 276.569l-.826 1.192.008.277.068.297 1.953 2.071M215.564 273.444l-.316.288-.206.191-.298.24-.556.588-1.667 1.818M214.818 258.623l-5.302 4.22-.19.354" clip-path="url(#p50240caecb)" style="fill:none;stroke:#000"/><path d="m209.738 258.074.797 1.052.127.317.046.247-.017.28-.093.189-.11.312-.425.505-.684.781-.126.342-.038.21-.008.267.12.621M220.38 254.196l-5.562 4.427M220.38 254.196l2.23 2.842M218.613 251.087l.138.643.284.678 1.345 1.788M217.123 261.482l4.723-3.897.764-.547M212.393 251.108l5.222-4.68M217.615 246.427l-.72-2.78-.439-.376-.354-.147-.455.106-.524.362-1.973 1.784-.304.51-.169.855-.284 4.367M212.393 251.108l-3.451 3.093M217.123 261.482l-2.305-2.86M200.392 251.006l5.52 2.115M200.392 251.006l1.612-4.855M195.622 252.26l2.421 3.311.439.18.278-.147.236-.444 1.396-4.154M214.818 258.623l-2.231-2.883M208.942 254.201l-3.03-1.08M212.587 255.74l-.328-.361-.433-.227-2.884-.95M217.615 246.427l.998 4.66M205.912 253.12l-3.908-6.969M205.912 253.12l3.826 4.954M199.362 241.237l.129.12 2.513 4.794M195.622 252.26l3.74-11.023M218.613 251.087l-6.026 4.653M209.738 258.074l2.849-2.334M213.05 264.955l-2.643 2.107M213.05 264.955l5.462 6.339M218.512 271.294l-2.948 2.15M215.564 273.444l-5.157-6.382M293.778 268.281l.397-.05.421.05.532.058.346.123.388.271.304.362.16.107.27.123.253.082.37.09.237.075.27.14.261.279.388.716.127.394.118.247.227.197 1.417 1.414.262.353.397.477.438.387.414.246.514.271.523.19.38.115.59.058.616-.09.995-.428 1.231-.543.616-.46.498-.51.59-.683.481-.616.565-.79.101-.394.06-.584.093-.559.126-.427.455-.93M276.032 311.145l.7-.188.957-.25.987-.292.398-.126M302.45 313.65l-2.683.058-.371-.013M302.45 314.118l1.505-.024M302.45 314.118v-.468M303.903 313.636l-1.454.014M303.903 313.636l.052.458M290.416 307.199l.359-.392M290.416 307.199l.605.51M290.416 307.199l-2.53-2.193M291.021 307.708l.548-.204M290.775 306.807l-1.172-.963-1.215-1.035M290.775 306.807l.794.697M287.887 305.006l.501-.197M283.925 317.311l-3.026.092-.228.098-.131.136-.092.245.447 2.309.096.385.118.14.21.177.31.073.897.005M316.206 320.354l-3.392-5.055M318.369 324.426l-1.091-2.247-.548-.954-.524-.87M317.961 324.448l.408-.022M312.814 315.299l-1.154-1.528-.165-.115-.157-.092-.066-.033-.257-.035M306.502 314.03l-2.547.064M296.65 311.78l-4.922-4.135-.16-.14M265.277 287.64l1.341.446M116.276 172.95l.525-2.048 2.174-3.837 1.703-3.493.059-1.489-.822-3.149 1.35-2.92-1.233-3.092-3.348-9.62.587-4.982 1.633-4.378" clip-path="url(#p50240caecb)" style="fill:none;stroke:#000"/><path d="m105.252 172.089 1.332-.609.692-1.283 1.13-2.91-.084-3.864-5.297-3.914-2.294-3.519.337-3.519 1.485-1.118 2.8-.888-.438-4.9 1.113-1.02 4.69-3.683 8.186-6.92" clip-path="url(#p50240caecb)" style="fill:none;stroke:#000"/><path d="m116.276 172.95-2.168.405-1.13.625-.877-.099-.776-.411-2.092-.806-1.687.165-2.294-.74M385.59 437.52l-1.247.55M386.909 436.318l-.544.859-.52.576-.106.116-.136-.32-.013-.03M386.767 436.057l-.281-.207-.225-.255-.178-.384-.098-.365-.09-.202-.182-.205-.232-.191-.192-.083h-.244l-.281.105-.113.178-.042.307.108.383.511 1.06.173.543.211.407-.103.178.081.193M384.343 438.07l-.067-.15-.525.219.125.285.526-.22-.059-.133" clip-path="url(#p50240caecb)" style="fill:none;stroke:#000"/><path d="m384.343 438.07.06.135-.527.22-.125-.286.525-.22.067.152M384.81 432.42l.207 1.041M385.017 433.461l2.308 2.177M368.778 417.742l3.71 3.42 8.861 8.731 3.668 3.568M386.909 436.318l.486-.328M386.909 436.318l-.142-.26M386.767 436.057l.376-.305.182-.114M386.637 436.163l.13-.106M386.637 436.163l-.6 1.014-.318-.33-.413-.986-.487-.84-.094-.246.057-.248.224-.182.225-.018.412.238.563 1.37.43.228" clip-path="url(#p50240caecb)" style="fill:none;stroke:#000"/><path d="m386.637 436.163-.43-.229-.564-1.37-.412-.237-.225.018-.224.182-.057.248.094.246.487.84.413.987.318.329.6-1.014" clip-path="url(#p50240caecb)" style="fill:none;stroke:#000"/></g><g id="PathCollection_1"><defs><path id="m6d1521110a" d="M0 3a3 3 0 1 0 0-6 3 3 0 0 0 0 6z" style="stroke:green;stroke-opacity:.8"/></defs><g clip-path="url(#p50240caecb)"><use xlink:href="#m6d1521110a" x="384.984" y="434.819" style="fill:green;fill-opacity:.8;stroke:green;stroke-opacity:.8"/></g></g><g id="PatchCollection_1"><path d="m340.481 353.04-.039.642-5.62.264v-1.85zM346.837 356.666l-.465 2.228-2.015.34-.62-2.493zM290.666 305.173l-.06 1.022-1.695-1.16zM346.533 370.45l-1.683-2.393-2.544.998.699 2.775 2.072-1.111zM351.49 397.77l1.922 2.326-3.93 2.762.945 2.376 3.07 1.628 1.965.887.17.38 2.926 1.618.27.094.289.003.273-.09.227-.173.156-.235.069-.273-.028-.28-3.146-5.252-1.248-2.212-.101.444-1.24-1.759.084-.6-1.577-3.033z" clip-path="url(#p50240caecb)" style="fill:green;fill-opacity:.8"/></g><g id="PatchCollection_2"><path d="m255.15 273.1-1.867 1.669 1.928 1.518 1.256-2.098-.355-.29-1.036 1.718-1.038-.834 1.47-1.39zM372.798 417.376l1.054.959.48-.502-1.054-.959zM384.276 437.92l-.525.219.125.285.526-.22zM342.822 352.9l.059.732-1.823.138-.058-.733z" clip-path="url(#p50240caecb)" style="fill:#a9a9a9;fill-opacity:.8"/></g></g></g><defs><clipPath id="p50240caecb"><path d="M90 107.93h558v511.34H90z"/></clipPath></defs></svg>