<svg xmlns="http://www.w3.org/2000/svg" xmlns:xlink="http://www.w3.org/1999/xlink" width="960" height="960" viewBox="0 0 720 720"><defs><style>*{stroke-linejoin:round;stroke-linecap:butt}</style></defs><g id="figure_1"><path id="patch_1" d="M0 720h720V0H0z" style="fill:#fff"/><g id="axes_1"><path id="patch_2" d="M90 639.746h558V87.454H90z" style="fill:#fff"/><g id="LineCollection_1"><path d="m333.614 600.91 6.299.25M333.614 600.91l.1 2.462M333.614 600.91l.152-2.062-.044-2.154M333.28 596.692l.063 2.452.271 1.767M333.13 580.718l-.405-8.596M333.13 580.718l5.568.145M333.13 580.718l-8.812-.299M333.13 580.718l-.202 1.062.202 9.175M333.722 596.694l-.292-14.991-.3-.985M332.234 552.352l-.276-5.098M332.234 552.352l.126 8.644M332.234 552.352l-5.845.316M340.443 552.127l-2.512-.134-2.315-.051-3.382.41M331.204 531.118l-.682-8.64M331.204 531.118l.144 3.417M331.204 531.118l-4.383-.287M316.402 520.8l.281-2.15M316.402 520.8l7.366.911M316.402 520.8l-.248.564-.572 3.424-.613 3.394-.034.324M307.667 519.876l2.8.196 5.935.728M315.48 528.55l.08-.631.504-3.503.54-2.99-.202-.626M311.552 560.018l-.562 4.621M311.552 560.018l.438-1.03.167-1.014M311.751 557.967l-.155 1.044-.044 1.007M310.698 571.12l-.576 5.199M310.698 571.12l-6.927-.082M310.698 571.12l4.737-.008M310.99 564.64l-.248 3.5-.044 2.98M320.634 571.306l4.3.227M320.634 571.306l-.04-6.016M320.634 571.306l-.057 8.921M320.634 571.306l-5.2-.194M320.577 580.227l-5.452-.317M320.577 580.227l3.741.192M320.178 589.354l.25-8.423.15-.704M348.156 581.169l-5.034-.163M356.004 580.653l-.597.56-7.251-.044M348.08 591.76l.188-.913-.112-9.678M348.621 573.206l-.238 2.889-.227 5.074M332.725 572.122l-.267-5.881M332.725 572.122l-7.791-.59M344.518 572.82l-2.886-.27-8.907-.428M348.621 573.206l1.163.109M348.621 573.206l-4.103-.386M330.457 623.71l.261 4.835M334.483 622.559l.227 5.756M333.493 628.386l-.214-3.8.153-1.334.267-.305.784-.388M334.352 619.243l.068 1.689.063 1.627M334.71 628.315l-1.217.071M333.493 628.386l-2.775.159M330.718 628.545l-8.984.25M321.734 628.795l-3.432.33M321.734 628.795l.256-9.431M334.352 619.243l-9.596.094M334.352 619.243l-.533-13.246M321.99 619.364l2.766-.027M321.99 619.364l.62-11.817M324.318 580.42l.616-8.887M324.318 580.42l-.644 9.239M324.934 571.533l.525-5.913M327.406 537.895l-.26 4.071M327.406 537.895l4.053-.725M327.406 537.895l-7.613.524M331.348 534.535l.111 2.635M331.348 534.535l-4.815-.342M281.053 534.408l3.713.529M281.053 534.408l-.074-4.608M281.053 534.408l-2.898-.016M281.419 537.326l.055-1.233-.42-1.685M284.766 534.937v2.408M284.766 534.937l5.463.05M286.634 555.127l.167 3.655M286.634 555.127l-.47-5.936M286.634 555.127l6.13.002M286.634 555.127l-4.499.065M287.79 574.236l.362.39M287.79 574.236l-.527-7.295M287.79 574.236l-3.191 2.798M287.79 574.236l3.511-3.078M312.229 554.632l-.414 2.911-.064.424M312.229 554.632l.204.176.232.089M312.229 554.632l.54-3.096M310.408 554.465l.152-.171.481-.241.526.044.35.153.312.382M312.665 554.897l.562-3.405M312.665 554.897l-.332 2.013M313.227 551.492l.165-1.108M313.227 551.492l-.458.044M312.769 551.536l-2.83 2.926-.477.532M312.769 551.536l.198-1.136M288.152 574.626l3.3-2.916M288.152 574.626l-3.117 2.755M309.462 554.994l.946-.529M309.462 554.994l-.496.555-1.568 1.456M307.407 554.53l.116.274.289.246.26.144.376.072.434-.014.58-.258M307.407 554.53l-.01 2.475M307.407 554.53l.003-1.339" clip-path="url(#p6f52076df0)" style="fill:none;stroke:#000"/><path d="m304.11 560.52 5.617-5.025.482-.807.199-.223M307.398 557.005l-5.23 4.63M307.537 534.994l-.002-.428M307.537 534.994l-.1 7.089M307.537 534.994l6.379-.016.288-.157M300.474 535.03h.158l6.905-.036M290.229 534.987l1.531.078 3.254-.013M295.014 534.626l-3.209.016-1.576.345M314.204 534.82l.468-.003" clip-path="url(#p6f52076df0)" style="fill:none;stroke:#000"/><path d="m314.204 534.82-.067.719-.372 4.598-.165 1.962M314.204 534.82l-.315-.185-6.354-.07M314.935 528.506l-.14 1.34-.59 4.975M307.535 534.566l-7.035.034M307.478 527.892l.045 3.77.012 2.904M299.768 563.737l-3.918 3.433M299.768 563.737l.38.286M299.768 563.737l2.4-2.103M300.147 564.023l2.258-1.996M304.009 564.345l-2.893-.122-.969-.2M300.147 564.023l-4.057 3.587M310.99 564.64l4.439.3M310.99 564.64l-6.981-.295M325.459 565.62l.278-4.032M325.459 565.62l6.999.62M325.459 565.62l-4.865-.33M332.458 566.24l8.666.328M332.36 560.996l.065 4.508.033.737M356.004 580.653l-.706-.493-2.01-2.468-.776-3.173-.735-1.017-1.993-.187" clip-path="url(#p6f52076df0)" style="fill:none;stroke:#000"/><path d="m351.595 566.957.15.528-.477 3.346-1.484 2.484" clip-path="url(#p6f52076df0)" style="fill:none;stroke:#000"/><path d="m352.25 558.355-.303 3.472-.604 3.772v.629l.252.73" clip-path="url(#p6f52076df0)" style="fill:none;stroke:#000"/><path d="m345.34 566.102 2.211.793 4.044.062M352.25 558.355l1.11-5.532M352.25 558.355l-6.226.722M330.522 522.478l-2.61-.679M345.637 525.528l-4.446-.82-5.925-.81-4.744-1.42M359.118 527.042l7.274.16M359.118 527.042l-6.607-.55M360.75 519.265l-.549 3.328-.74 2.432-.343 2.017M357.683 533.664l.932-3.956.503-2.666M379.356 520.551l-2.573 2.844-2.39 1.786-3.85 1.685M366.392 527.203l1.86.04 2.29-.377M368.916 536.128l1.285-5.9.341-3.362M366.392 527.203l-1.774 7.886M360.528 553.275l1.238-5.505M360.528 553.275l-7.168-.452M372.782 553.803l-1.938.1-10.316-.628M361.766 547.77l.558-2.48M361.766 547.77l-7-1.423M354.766 546.347l.597-2.674M354.766 546.347l-.47 2.104M354.296 548.45l-6.495-.439M353.36 552.823l.349-1.736.587-2.636M401.19 536.549l-26.948 16.852M374.242 553.4l-1.46.403M366.768 546.128l6.255 1.179.192 3.346 1.027 2.748M422.362 574.265l-.406-.133-10.898-3.244-6.313-2.362-9.629-5.006-5.29-.67-4.02-1.022-2.998-1.34-3.562-2.185-3.668-3.596-2.796-.904M353.36 552.823l-6.725-.362M326.389 552.668l.403-5.412M326.389 552.668l-5.177.002M325.737 561.588l.143-2.077.509-6.843M311.751 557.967l.406.007M312.157 557.974l.176-1.064M312.157 557.974l3.41.038M320.943 558.073l-5.376-.06M320.943 558.073l.269-5.403M320.594 565.29l.253-3.167.096-4.05M319.72 555.033l.213.469 1.01 2.57M312.967 550.4l.425-.016M312.967 550.4l.337-4.207M313.392 550.384l2.242-.042M313.392 550.384l.337-3.622-.15-.53M319.763 550.292l-.494-.019M319.763 550.292l-.037-2.904M319.638 552.672l.146-.77-.02-1.61M313.304 546.193l.275.038M313.304 546.193l-5.876-.616M313.304 546.193l.296-4.094M313.58 546.231l5.673-.036M313.58 546.231l.083-.698.377-3.44M319.71 546.193l-.457.002M319.71 546.193l-.092-4.198M319.71 546.193l.016 1.195M319.618 541.995l-.498-.025M319.618 541.995l7.528-.029M319.618 541.995V540.7l.175-2.28M319.864 534.47l-5.192.347M319.864 534.47l6.669-.277M319.864 534.47l-.314.742-.29 3.184M321.299 529.717l-1.322 4.332-.113.422M319.793 538.42l.244-3.218-.173-.731M319.253 546.195l.005 1.193M319.12 541.97v.672l.133 3.553M319.27 550.273l-3.636.07M319.27 550.273l.066 1.529.302.87M319.27 550.273l-.012-2.885M319.638 552.672l1.574-.002M319.638 552.672l.081 2.36M319.258 547.388h.468M319.726 547.388l1.568-.03M326.792 547.256l5.166-.002M326.792 547.256l-5.498.103M327.146 541.966l-.236 3.706-.118 1.584M331.958 547.254l-.304-5.615M341.203 547.564l-2.944-.2-6.3-.11M321.294 547.359l-.082 5.311M320.594 565.29l-5.165-.35M319.72 555.033l-4.084.113M315.636 555.146l-.063 1.85M315.636 555.146l-.002-4.804M315.567 558.012l.006-1.016M315.567 558.012l-.138 6.928M315.573 556.996l-3.24-.086M331.46 537.17l.164 3.898.03.571M327.146 541.966l1.178-.015 3.33-.312M319.12 541.97l-5.08.123M319.26 538.396l-.14 2.354v1.22M314.04 542.093l.632-7.276M314.04 542.093l-.44.006M313.6 542.099l-.494-.091-5.668.075M307.435 542.599l5.461-.21.704-.29M307.435 542.599l.001-.363.002-.153M307.438 542.083l-5.068.268-1.698.286M300.672 542.637l-.502.007M300.672 542.637l1.335.248 2.386-.126M307.435 542.599l-.007 2.978M307.435 542.599l-3.042.16M304.393 542.76l-.448 3.797M302.168 561.634l.237.393M302.168 561.634l.782-6.637M302.405 562.027l1.706-1.507M304.11 560.52l-.101 3.825M304.009 564.345l-.238 6.693M303.502 580.685l.356-1.166M303.647 586.993l.114-2.536-.259-3.772" clip-path="url(#p6f52076df0)" style="fill:none;stroke:#000"/><path d="m294.42 581.58 5.324-.137 3.758-.758M303.647 586.993l5.345.763M303.647 586.993l-5.943-.69M302.312 595.722l1.144-5.603.191-3.126M302.312 595.722l-.572 5.498M302.312 595.722l5.718.244M302.312 595.722l-3.584.16M323.201 596.451l.473-6.792M323.201 596.451l5.279.127M323.201 596.451l-3.233-.063M322.87 602.623l.302-5.752.029-.42M333.28 596.692l.442.002M333.28 596.692l-4.8-.114M333.28 596.692l-.15-5.737M333.722 596.694l3.867.064M340.65 596.862l-3.06-.104M340.65 596.862l.643-5.41M340.65 596.862l-.737 4.297M347.622 597.177l-.19-.025-6.782-.29M351.341 597.648l-3.719-.471M348.08 591.76l-.133.646-.325 4.77M343.675 601.307l-3.762-.148M343.122 581.006l-4.424-.143M343.122 581.006l-1.829 10.447M344.518 572.82l-1.167 4.947-.23 3.239M345.34 566.102l-.273 3.126-.55 3.592M332.36 560.996l-6.623.592M332.36 560.996l13.664-1.92M315.429 564.94l.006 6.172M315.435 571.112l-.31 8.798M309.961 579.773l-6.103-.254M309.961 579.773l5.164.137M309.961 579.773l.16-3.454M308.992 587.756l.796-5.796.173-2.187M303.85 576.047l.064.843-.056 2.63M308.03 595.966l6.798.29M308.03 595.966l-.493 6.314M308.992 587.756l-.539 3.926-.423 4.284M307.537 602.28l-.503 5.299M307.537 602.28l7.203.16M307.537 602.28l-5.797-1.06M322.87 602.623l-.26 4.924M322.87 602.623l-3.092-.07M318.617 624.823l.904-17.347M319.778 602.553l-5.038-.112M319.778 602.553l-.257 4.923M319.968 596.388l-.226 3.032.229 1.487-.193 1.646M319.968 596.388l.21-7.034M314.828 596.256l1.348.057 3.792.075M315.125 579.91l-.163 8.954M314.828 596.256l.134-7.392" clip-path="url(#p6f52076df0)" style="fill:none;stroke:#000"/><path d="m314.74 602.44.12-3.744-.032-2.44M285.035 577.381l-.436-.347M284.599 577.034l-.2.175-2.327 2.08-.187.26.21.243 1.679-1.296 1.261-1.115M285.035 577.381l3.18 2.444M308.992 587.756l5.97 1.108M314.962 588.864l5.216.49M320.178 589.354l3.496.305M323.674 589.659l5.388.739M333.13 590.955l-4.068-.557M328.48 596.578l.582-6.18M338.698 580.863l-1.109 15.895M341.293 591.453l6.787.306M346.024 559.077l.61-6.616M345.34 566.102l.147-1.678.533-2.82.004-2.527M346.635 552.46l-6.192-.333M346.635 552.46l1.166-4.449M347.801 548.011l-6.598-.447M347.801 548.011l1.3-5.937M352.51 526.493l-6.873-.965M352.51 526.493l-1.227 5.608M343.623 535.819l.452-2.198 1.562-8.093M341.203 547.564l-.76 4.563M341.203 547.564l1.424-6.912M342.627 540.652l.996-4.833M342.627 540.652l6.474 1.422M349.1 542.074l1.07-4.888M349.1 542.074l6.263 1.599M355.363 543.673l6.96 1.618M356.461 538.848l-.412 1.75-.686 3.075M362.324 545.29l1.04-4.623M362.324 545.29l4.444.838M343.623 535.819l-12.164 1.35M350.17 537.186l-3.54-.972-3.007-.395M350.17 537.186l1.113-5.085M350.17 537.186l6.291 1.662M356.461 538.848l1.222-5.184M356.461 538.848l6.902 1.82M363.363 540.667l1.255-5.578M363.363 540.667l4.354.963M367.717 541.63l3.781.835 3.47.305 6.667 2.36M366.768 546.128l.949-4.498M366.768 546.128l-1.347 3.926M367.717 541.63l1.199-5.502M351.283 532.1l6.4 1.564M357.683 533.664l6.935 1.425M364.618 535.089l4.298 1.04M368.916 536.128l5.786 1.19M319.793 538.42l-.532-.024M300.986 519.267l-4.386-.376M300.986 519.267l6.681.61M300.986 519.267l-.188 8.074M300.986 519.267l.115-4.947M326.533 534.193l.288-3.362M327.912 521.8l-1.091 9.03M327.912 521.8l-4.144-.089M315.48 528.55l-.545-.044M315.48 528.55l5.819 1.167M315.48 528.55l-.808 6.267M314.935 528.506l-7.457-.614M295.92 526.94l4.878.401M295.92 526.94l.68-8.049M295.92 526.94l-.906 7.686M307.478 527.892l.19-8.016M307.478 527.892l-6.68-.55M307.667 519.876l.144-4.356M316.683 518.65l-8.872-3.13M311.699 480.117l-.115.564.74 14.982.92 6.33 2.552 9.377.915 4.537v1.64l-.028 1.102M307.81 515.52l-4.04-1.181M306.102 488.996l.314 9.871 1.658 8.681-.263 7.972M303.77 514.339l.73-7.37M301.101 514.32l.48.019 1.284-.076.906.076M296.88 513.906l-.28 4.985M290.898 509.655l3.739 3.067 1.571.435.673.75" clip-path="url(#p6f52076df0)" style="fill:none;stroke:#000"/><path d="m301.101 514.32-.681.225-2.02-.09-1.52-.549M290.898 509.655l-1.023-1.445-1.441-2.405M301.606 506.366l-.505 7.954M300.798 527.341l-.298 7.259M300.5 534.6l-5.486.026M300.5 534.6l-.026.43M300.474 535.03l-.304 7.614M300.474 535.03l-5.46.022M300.17 542.644l.052 3.863M300.17 542.644l-5.932.447M300.222 546.507l-3.17-.1M300.222 546.507l3.723.05M303.945 546.557l-.775 6.57M297.052 546.407l-.57 8.64M297.052 546.407l-3.202-.199M295.85 567.17l.24.44M295.85 567.17l-.92.807-2.679 2.348M295.991 562.517l-.272 4.137.131.516M296.09 567.61l-1.01.893M303.771 571.038l-8.82.057M303.85 576.047l-.108-1.387v-3.05l.03-.572M292.673 570.63l2.406-2.127M292.673 570.63l-.422-.305M292.673 570.63l2.279.465M292.673 570.63l-1.222 1.08M292.251 570.325l-.95.833M310.122 576.319l-6.272-.272M303.85 576.047l-4.609-.011M291.141 581.909l3.279-.33M291.141 581.909l-1.921-1.31M297.704 586.303l-.96-.111-.992-.572-4.611-3.711M291.451 571.71l-.15-.552M292.14 562.175l-.848 6.967.01 2.016M295.014 535.052v-.426M295.014 535.052l-.229 2.581M281.287 567.513l.134 2.135.454 1.657 2.111 4.862.613.867M277.455 524.802l.484 5.105M278.155 534.392l-.76 10.557M278.155 534.392l-.216-4.485M278.155 534.392l-3.48-.448M294.238 543.09l-.388 3.118M294.238 543.09l-8.483.937M294.785 537.633l-.324 3.668-.223 1.79M285.755 544.027l.408 5.164M285.755 544.027l-3.505.428M284.766 537.345v1.39l.762 2.44.227 2.852M282.25 544.455l-4.855.494M282.33 548.81v-3.527l-.08-.828M281.789 541.267l.407 2.627.054.56M282.33 548.81l3.833.381M282.135 555.192l.194-4.806v-1.576M286.163 549.191l7.225.733M293.388 549.924l.462-3.716M292.765 555.129l.06-.674.563-4.53M281.78 561.123l.282-4.111.073-1.82M292.765 555.129l-.3 3.374M292.765 555.129l3.718-.081M296.483 555.048l-.492 7.469M296.483 555.048l6.467-.05M302.95 554.997l.22-1.87M307.41 553.191l.018-7.614M307.41 553.191l-4.24-.064M295.991 562.517l-3.852-.342M292.14 562.175l.325-3.672M292.14 562.175l-5.213-.603M286.927 561.572l-.126-2.79M286.927 561.572l-5.146-.449M287.263 566.941l-.247-3.427-.089-1.942M281.78 561.123l-5.32-.679M281.287 567.513l-.027-.43.347-3.419.174-2.54M240.285 559.683l10.372-6.315M100.73 563.132l6.808 1.305 11.674 1.833h3.88l6.454-.775 2.574-.07 4.126-.283 1.764.14 1.446.389 2.257 1.234 7.865 6.275 4.761 2.643 4.832 1.728 4.408 2.115 4.373 1.48 6.031 1.657 3.069.247 15.024-3.137 4.374-.317 10.086-2.292 8.147-2.68 2.645-1.304 11.18-7.825 4.854-2.846 6.175-2.779.748-.187M253.997 560.482l-.615.056h-3.474l-3.288-.08-5.319-.775h-1.016M249.293 570.557l5.447-.56M281.287 567.513l5.976-.572M281.287 567.513l-4.466.261M276.46 560.444l-2.719-.347M276.46 560.444l.361 7.33M277.395 544.949l-.075 3.836.564 2.961.142 3.984.034 2.256-.81 1.833-.79.625M273.364 568.086l2.47-.254.987-.058" clip-path="url(#p6f52076df0)" style="fill:none;stroke:#000"/><path d="m279.895 580.265-3.139-7.614.065-4.877M268.315 568.604l5.05-.518M268.315 568.604l-8.257.848M268.315 568.604l-.686-9.09M260.088 559.922l.564-.052 6.977-.356M273.74 560.097l-4.08-.52-1.684-.081-.347.018M260.058 569.452l-5.318.546M260.058 569.452l.016-4.91M260.088 559.922l-6.091.56M260.088 559.922l-.014 4.62M292.465 558.503l-5.664.28M311.901 479.13l-.202.987M310.476 469.928l.535 2.379.695 2.35.195 4.473M325.188 471.747l-4.893 3.822-.811.529-1.481.6-1.764.563-2.892.705-.952.494-.494.67M391.48 275.014l11.484-16.039 3.421-4.336 3.563-3.807 9.31-10.4 1.235-1.762.846-2.257.282-1.974-.459-32.292.071-1.304M464.602 175.51l-1.682 2.595-1.27 1.727-1.304 1.198-1.34.847-1.517.704-6.524 2.539-9.452 3.666-17.6 9.166-1.198.776-.953 1.022-.529 1.093M310.36 165.302l4.583-1.677 5.002-1.977 1.647-1.018 1.708-1.588 2.695-2.546 2.666-2.996 1.348-1.467 6.53-5.99.779-1.978 1.438-2.935 2.815-2.996 2.696-1.318 3.894 1.318 3.055 1.258 2.996 1.139 2.995-.18 4.672-1.558 2.097-.18 10.244 6.051 5.691 2.217 5.093 3.235 2.216 3.055 3.055 3.295 2.457 7.429 2.216 5.032 1.318 1.377 2.456.66 1.259 1.078 5.39 3.295 1.918 1.677 1.258 1.558.24 2.096 1.318 4.134.48 2.336 2.754 4.493 1.498 1.438 1.917 2.216 2.816 3.535 1.663 2.023M296.792 436.24l1.045 5.746M304.232 440.534l-1.186-5.897-6.254 1.603M288.099 407.792l.119.617 4.056 11.492 1.41 2.962 1.61 1.97 1.498 11.407M302.245 459.964l1.544 7.146M302.245 459.964l-1.816-7.214M302.245 459.964l5.662-1.466M306.04 479.948l-1.363-8.023M306.04 479.948 301 479.59M306.04 479.948l5.659.17M306.102 488.996l-.038-1.198-.024-7.85M289.415 475.62l-2.406 8.068M284.883 475.758l.576-.031 2.512-.268 1.444.16M294.66 478.265l-3.267-1.95-1.978-.695M276.333 473.24l-3.347-3.44-4.719-4.116M287.009 483.688l5.126 1.53M287.009 483.688 284 482.71M280.434 481.55l3.566 1.16M299.3 487.356l-7.165-2.138M299.3 487.356l6.802 1.64M300.999 479.59l-.96 5.397-.74 2.369" clip-path="url(#p6f52076df0)" style="fill:none;stroke:#000"/><path d="m294.66 478.265 1.116.668 1.23.374 3.993.283M299.052 468.437l1.108 5.26.839 5.893M299.052 468.437l4.737-1.327M296.313 453.806l.532 4.074.963 4.649 1.244 5.908M288.077 471.511l3.739.282 3.95-.352.528-.423.212-1.762 2.546-.819M303.79 467.11l5.7-1.566M304.677 471.925l-.562-3.305-.326-1.51M309.49 465.544l-1.583-7.046M309.49 465.544l.986 4.384M309.49 465.544l7.667-2.027M320.365 462.67l-3.208.847M320.365 462.67l1.346 2.533M331.432 458.58l-1.28.31-5.678 2.01-1.756 1.148-2.353.622M325.188 471.747l-3.477-6.544M337.282 457.647l-5.771 8.263-2.505 2.855-3.818 2.982M297.837 441.986l6.395-1.452M299.139 447.963l-.636-2.319-.666-3.658M304.232 440.534l1.182 5.876M304.232 440.534l5.55-1.837M305.414 446.41l.952 4.736M305.414 446.41l-6.275 1.553M299.139 447.963l-4.123.781M300.429 452.75l-.269-1.068-1.021-3.72M306.366 451.146l-5.937 1.604M307.907 458.498l-.584-2.595-.957-4.757M300.429 452.75l-4.116 1.056M294.66 478.265l-2.525 6.953M281.798 475.632l1.683.201 1.402-.075M284 482.71l.564-2.178.202-1.902.117-2.872M281.798 475.632l-.759 3.605M276.333 473.24l2.609 1.62 2.856.772M296.313 453.806l-5.38.714M295.016 448.744l.446 1.336.85 3.726M295.016 448.744l-7.01 1.898M260.074 564.543l-5.431.388M250.657 553.368l.494-1.834-.776-2.785-.035-1.903-.247-.634-2.363-2.82M253.997 560.482l.646 4.449M250.657 553.368l.176 1.022 1.8 3.878 1.364 2.214M254.643 564.93l.097 5.068" clip-path="url(#p6f52076df0)" style="fill:none;stroke:#000"/><path d="m277.395 544.949-2.764.281-4.544.32-2.713.274-4.69 1.058-2.434 1.198-9.593 5.288M289.22 580.598l-1.637 1.817 2.363 2.891M289.22 580.598l-1.005-.773M288.215 579.825l-2.007 1.11-4.303 3.102-4.127 2.433-4.373 3.031M295.835 587.396l.265 1.418.565 1.798.564.458 3.527-.511M295.835 587.396l-2.16 1.262M295.835 587.396l1.869-1.093M294.32 591.969l-.644-3.311M293.676 588.658l-1.544.901M292.591 591.951l-.459-2.392M292.132 589.56l-2.644 1.546M422.362 574.265l8.587 2.828 5.82 2.503 5.466 1.833 1.129.564 5.078 3.278 5.678 3.067 4.691 1.163 3.809.317 3.21 1.622 1.833.353 1.905-.388 3.14-2.926 2.08-.67 3.562.564 1.305.846 3.174 2.68 4.127 5.111 4.443 7.157 2.469 4.3 2.54 2.186 1.516 1.48 2.504.53 2.398-.107 3.386.564 1.834.635 3.174 1.34 2.786 1.691 1.376.424 3.491.07 6.384-1.022 6.701-1.516 1.481.141 5.29 1.41 4.021 2.432 2.045.424 4.127.176 5.008 1.339 6.102 1.974M356.004 580.653l2.151-.106 2.751.106M332.885 605.982l.934.015M332.885 605.982l-.486-.306M322.61 607.547l6.273.215 2.786-.943.37-.626.846-.211M333.714 603.372l.105 2.625M333.714 603.372l-1.338 1.344M321.71 465.203l-2.28.95-2.116 1.727M310.476 469.928l-5.8 1.997M276.333 473.24l-.282-1.235 1.375-5.605.952-3.808.882-4.582M321.299 529.717l2.47-8.006M637.27 407.651l-17.177-1.85-5.713 2.608-4.162 5.147-9.451 1.41-7.76 3.243-7.477 5.218-20.314 9.307-24.547-.564-7.618 8.6-48.953 28.626-63.483 27.216-6.207 6.909-16.929 3.102-7.336 1.551-6.692 7.851-4.095 4.526M360.75 519.265l13.03.93 4.795.106.78.25M362.81 508.492l-.528 1.938-.67 2.926-.318 2.609-.544 3.3M306.517 612.3l-.806 3.112M307.034 607.579l-.41 4.305-.107.417" clip-path="url(#p6f52076df0)" style="fill:none;stroke:#000"/><path d="m314.493 607.515-.282 4.689-1.623.176-6.071-.08M314.74 602.44l-.247 5.075M322.61 607.547l-3.089-.071M319.521 607.476l-5.028.039M307.034 607.579l1.64.077 5.819-.141M301.74 601.22l-.701 6.726 5.995-.367M295.08 568.503l-.128 2.592M294.42 581.58l-.242-3.677.212-5.605.562-1.203M280.98 529.8l-3.04.107M290.898 509.655l-1.798.352-1.552 1.728-2.08 1.657-3.105.775-.458.952.412 2.898-1.338 11.783M277.94 529.907l-3.23.106M274.463 526.048l.247 3.965M274.71 530.013l-.035 3.93M271.642 525.994l.017 3.843 3.051.176M274.675 533.944l-3.069.246M273.74 560.097l-.376 7.989M549.111 103.908l-1.617 3.23-1.94 2.857-1.551 1.763-2.54 1.938-4.902 3.103-10.369 6.346-24.512 13.29-9.592 4.865-3.668 1.515-2.117 1.27-2.186 1.798-1.622 2.01-17.893 27.616M251.108 265.186l-2.394-1.267-2.5-.634-2.004-.11-7.928 1.723-3.264 1.252M324.21 279.872l-2.826-2.32M361.728 317.942l-12.28-4.65-4.941-3.061-9.648-12.87-3.893-6.436-3.242-6.714-1.815-2.791-1.698-1.548" clip-path="url(#p6f52076df0)" style="fill:none;stroke:#000"/><path d="m336.097 275.567-2.788 3.946-1.024.465-1.35.047-4.281-.14-2.443-.013M311.27 269.626l-.69-.155-8.644.208-2.24.536-3.405.583-4.11 1.678-2.012.686-1.454.372-1.5.186-1.27.302-1.104.245-13.141 1.503-3.655-1.175-2.456-.893-2.8-2.647-.398-.165M251.108 265.186l2.39 1.554 3.481 1.912 5.412 2.238" clip-path="url(#p6f52076df0)" style="fill:none;stroke:#000"/><path d="m251.108 265.186 1.9-.038 1.975-.581 1.111-.141 1.393-.018 1.2.511.846.881 1.746 2.838 1.112 2.252M321.384 277.552l-8.972-7.362-1.142-.564M327.284 259.277l-1.31.427-1.656.668-1.016.909-1.497.961-2.165 1.23-1.336.748-1.87 1.843-2.406 1.71-1.925 1.149-.833.704M337.282 457.647l8.336-11.937 1.446-2.468 14.178-29.47 6.242-11.88 9.523-17.522.388-1.198v-1.305l-.459-1.198-7.477-20.729-.811-3.666-1.093-6.592-1.34-13.467-.565-3.878-1.128-3.525-1.552-3.948-1.41-4.09-.107-1.516.275-1.316M391.48 275.014 363.64 313.9l-1.023 1.48-.811 2.186-.078.376" clip-path="url(#p6f52076df0)" style="fill:none;stroke:#000"/><path d="m336.097 275.567 2.963-1.762 1.864-.945 1.118-.155 8.57-1.318 4.938.784 4.75-.055 2.14-.186 1.49.047 1.955.79 1.908.56 20.057 2.604.884-.186 2.747-.73M336.097 275.567l-.298.177-2.703 1.1-3.261.542-8.451.166M294.785 537.633l-10.02-.288M284.766 537.345l-3.347-.019M281.789 541.267l-.235-1.514-.187-1.256.052-1.17M278.625 541.312l3.164-.045M324.615 623.66l.14-4.323M293.188 393.289l1.625 1.971 2.751 3.102-9.465 9.43" clip-path="url(#p6f52076df0)" style="fill:none;stroke:#000"/><path d="m293.188 393.289-6.875 5.25 1.786 9.253M317.157 463.517l.792-2.863 1.288-1.005M331.432 458.58l3.376-.817 2.474-.116M331.052 450.783l.38 7.798M293.188 393.289l-3.665-4.445M293.188 393.289l4.623-3.458M549.111 103.908l1.08-.791 1.006-.388 2.733-.3 7.477-.934 8.341-.864 7.653-.952 13.12-1.604" clip-path="url(#p6f52076df0)" style="fill:none;stroke:#000"/></g><g id="PatchCollection_1"><path d="m324.774 606.034-1.834.088.423-6.539 9.646-.123.07 1.093-2.708 1.763.099-2.274-5.273-.07zM325.442 606.102l-.016.902.283.37 2.909.159.405-.547 1.111-.105.053-.3z" clip-path="url(#p6f52076df0)" style="fill:#006400;fill-opacity:.8"/></g><g id="PathCollection_1"><defs><path id="m696d5b354e" d="M0 3a3 3 0 1 0 0-6 3 3 0 0 0 0 6z" style="stroke:green;stroke-opacity:.8"/></defs><g clip-path="url(#p6f52076df0)"><use xlink:href="#m696d5b354e" x="329.553" y="601.998" style="fill:green;fill-opacity:.8;stroke:green;stroke-opacity:.8"/><use xlink:href="#m696d5b354e" x="327.19" y="600.482" style="fill:green;fill-opacity:.8;stroke:green;stroke-opacity:.8"/><use xlink:href="#m696d5b354e" x="328.248" y="601.54" style="fill:green;fill-opacity:.8;stroke:green;stroke-opacity:.8"/><use xlink:href="#m696d5b354e" x="328.953" y="600.712" style="fill:green;fill-opacity:.8;stroke:green;stroke-opacity:.8"/><use xlink:href="#m696d5b354e" x="326.378" y="600.835" style="fill:green;fill-opacity:.8;stroke:green;stroke-opacity:.8"/><use xlink:href="#m696d5b354e" x="326.043" y="602.139" style="fill:green;fill-opacity:.8;stroke:green;stroke-opacity:.8"/><use xlink:href="#m696d5b354e" x="326.714" y="602.545" style="fill:green;fill-opacity:.8;stroke:green;stroke-opacity:.8"/><use xlink:href="#m696d5b354e" x="327.824" y="602.633" style="fill:green;fill-opacity:.8;stroke:green;stroke-opacity:.8"/><use xlink:href="#m696d5b354e" x="328.671" y="602.739" style="fill:green;fill-opacity:.8;stroke:green;stroke-opacity:.8"/><use xlink:href="#m696d5b354e" x="327.172" y="603.919" style="fill:green;fill-opacity:.8;stroke:green;stroke-opacity:.8"/><use xlink:href="#m696d5b354e" x="327.718" y="603.937" style="fill:green;fill-opacity:.8;stroke:green;stroke-opacity:.8"/><use xlink:href="#m696d5b354e" x="328.512" y="603.937" style="fill:green;fill-opacity:.8;stroke:green;stroke-opacity:.8"/><use xlink:href="#m696d5b354e" x="329.799" y="604.836" style="fill:green;fill-opacity:.8;stroke:green;stroke-opacity:.8"/><use xlink:href="#m696d5b354e" x="329.764" y="606.017" style="fill:green;fill-opacity:.8;stroke:green;stroke-opacity:.8"/><use xlink:href="#m696d5b354e" x="328.9" y="605.946" style="fill:green;fill-opacity:.8;stroke:green;stroke-opacity:.8"/><use xlink:href="#m696d5b354e" x="328.018" y="604.713" style="fill:green;fill-opacity:.8;stroke:green;stroke-opacity:.8"/><use xlink:href="#m696d5b354e" x="328.159" y="605.382" style="fill:green;fill-opacity:.8;stroke:green;stroke-opacity:.8"/><use xlink:href="#m696d5b354e" x="326.66" y="605.576" style="fill:green;fill-opacity:.8;stroke:green;stroke-opacity:.8"/><use xlink:href="#m696d5b354e" x="326.061" y="605.576" style="fill:green;fill-opacity:.8;stroke:green;stroke-opacity:.8"/><use xlink:href="#m696d5b354e" x="325.709" y="604.889" style="fill:green;fill-opacity:.8;stroke:green;stroke-opacity:.8"/></g></g><path id="PatchCollection_2" d="M319.008 546.482v3.467l-5.232.173.376-3.684z" clip-path="url(#p6f52076df0)" style="fill:green;fill-opacity:.8"/><g id="PatchCollection_3"><path d="m316.19 537.77.228 1.721 1.032-.137-.229-1.721zM316.527 539.951l-.01 1.166 1.787.014.01-1.165zM323.27 531.382l-.017.854 1.479.03.017-.853zM297.83 547.883l-.57 6.26 4.375-.095.538-6.292z" clip-path="url(#p6f52076df0)" style="fill:#90ee90;fill-opacity:.8"/></g><g id="PatchCollection_4"><path d="m331.453 603.961.01.229.121-.005.006.138.622-.025-.015-.367zM331.932 605.688l.467-.012-.023-.96-.468.011zM290.857 269.289l1.405 1.373-.36.391-.676-.69-.161.13.26.192-.26.337-.745-.736.26-.246.37.3.115-.2-.553-.53zM307.58 553.19l.384.43.7-.623.25.28-.742.661.406.456 1.915-1.705-.476-.535-.816.727-.173-.194.144-.128-.306-.344-.13.115-.083-.094z" clip-path="url(#p6f52076df0)" style="fill:#a9a9a9;fill-opacity:.8"/></g></g></g><defs><clipPath id="p6f52076df0"><path d="M90 87.454h558v552.291H90z"/></clipPath></defs></svg>