<svg xmlns="http://www.w3.org/2000/svg" width="960" height="960" viewBox="0 0 720 720"><defs><style>*{stroke-linejoin:round;stroke-linecap:butt}</style></defs><g id="figure_1"><path id="patch_1" d="M0 720h720V0H0z" style="fill:#fff"/><g id="axes_1"><path id="patch_2" d="M90 555.157h558V172.043H90z" style="fill:#fff"/><g id="LineCollection_1"><path d="m254.574 206.312 1.04 15.487.64 6.83.82 5.669.533 2.686M258.957 242.346l-.645-2.455-.705-2.907M267.271 270.26l1.576-.473M267.271 270.26l4.863 16.484M258.957 242.346l.445 1.692 2.915 9.8 4.954 16.423M281.416 392.842l3.816-6.409M339.049 345.77l-7.032 2.024M339.049 345.77l.885 2.403M339.049 345.77l-.916-3.412M348.146 344.327l-4.712.569-2.595.39-1.79.484M308.75 346.996l7.086-1.952M308.75 346.996l-2.28-6.918M308.75 346.996l.607 2.135M337.173 339.167l-7.195 1.982M337.173 339.167l.96 3.19M337.173 339.167l-1.99-6.493M337.173 339.167l10.17-1.339M299.558 341.984l-5.363 1.405-1.141.14-1.734.133M290.38 337.335l.812 2.537.542 1.812.1.577.01.44-.079.32-.19.33-.255.311M290.804 344.539l.105-.294.147-.309.264-.274M313.813 338.318l7.039-1.948M313.813 338.318l-7.343 1.76M313.813 338.318l2.023 6.726M311.527 331.445l1.635 4.852.651 2.02M335.183 332.674l-7.233 1.865M335.183 332.674l-2.14-6.98M289.832 345.163l.972-.624M289.832 345.163l-4.337-13.679M289.832 345.163l1.432 5.16M282.273 310.397l2.004 6.779M282.273 310.397l6.94-1.86M282.273 310.397l-1.035.253M284.679 306.01l-1.332 2.53-1.074 1.857" clip-path="url(#pa0b4c8a4fe)" style="fill:none;stroke:#000"/><path d="m301.345 347.546-6.903-1.387-1.026-.22-.68-.1-.942-.185-.34-.23-.242-.284-.408-.601M301.345 347.546l8.012 1.585M301.345 347.546l-1.787-5.562M303.053 352.783l-.41-1.066-1.298-4.17M309.357 349.131l1.393 4.62M296.36 367.604l3.778-5.763.553-.797.294-.894.294-.992.26-.878.329-.585.692-.797.709-.488.89-.584.475-.474M305.993 355.083l-.765.215-.594.054" clip-path="url(#pa0b4c8a4fe)" style="fill:none;stroke:#000"/><path d="m303.053 352.783.765 1.345.316.444.5.78M299.558 341.984l6.912-1.906M299.558 341.984l-1.943-6.566M287.03 301.591l2.183 6.945M287.03 301.591l7.119-1.803M290.03 295.161l-1.756 3.61-1.244 2.82M284.679 306.01l1.391-2.643.96-1.776M290.38 337.335l7.235-1.917M288.314 330.698l.197.651 1.476 4.757.393 1.229M297.615 335.418l-2.127-6.752M297.615 335.418l6.958-1.992M311.527 331.445l7.203-1.976M311.527 331.445l-6.954 1.981M311.527 331.445l-2.002-6.606M318.73 329.47l7.119-2.004M318.73 329.47l2.122 6.9M318.73 329.47l-2.033-6.585M325.849 327.466l7.194-1.771M325.849 327.466l2.101 7.073M325.849 327.466l-2.025-6.544M333.043 325.695l-2.069-6.753M286.216 338.54l-2.94.825M330.974 318.942l-7.15 1.98M330.974 318.942l-2.065-6.734M283.523 328.758l1.617 1.615M283.523 328.758l.726 3.07M282.627 326.076l.293.984.603 1.698M285.14 330.373l.945-3.598M285.14 330.373 284 326.31M285.14 330.373l.355 1.111M272.172 291.037l.05.41.067.195.1.186M272.544 288l-.268.865-.113.688-.05.565.06.919" clip-path="url(#pa0b4c8a4fe)" style="fill:none;stroke:#000"/><path d="m273.083 289.733-.317.184-.243.227-.186.272-.118.302-.047.319M272.544 288l-.41-1.256M272.544 288l.539 1.733M284 326.31l-.82-2.777M284 326.31l.364-.185.29-.212.403-.324.218-.322.251-.433M282.627 326.076l.237.083.243.075.23.073.293.052.37-.05M285.365 324.238l.914-.243M285.365 324.238l.161.596M285.365 324.238l-.145-.448M283.18 323.533l-.687-2.207M283.18 323.533l-.224.058-.275.195-.204.185-.104.17-.213.364M285.22 323.79l-.336-.147-.42-.097-.424-.067-.426-.041-.434.095M282.313 325.023l.314 1.053M282.313 325.023l-.153-.518M279.243 325.955l.59-.168 2.48-.764M280.945 316.054l.953-3.136M280.945 316.054l-1.781-5.901M280.945 316.054l.452 1.775M281.898 312.918l1.369 4.53M281.898 312.918l-.66-2.268M281.397 317.83l1.096 3.496M284.116 320.206l-2.137-1.931-.582-.446M284.116 320.206l1.104 3.584M284.116 320.206l-.85-2.758M272.134 286.744l2.672 2.503M274.806 289.247l-.287-1.065M274.806 289.247l.34 1.14M286.085 326.775l1.203 4.214M286.085 326.775l-.559-1.94M287.288 330.989l1.026-.29M287.288 330.989l-1.793.495M277.494 308.717l-.865-2.707M277.494 308.717l1.67 1.436M280.301 318.128l-2.2-7.406-.607-2.005M279.164 310.153l-2.7-8.715M275.957 303.69l.672 2.32M275.957 303.69l.508-2.252M272.563 292.054l1.654 5.84 1.74 5.796M276.465 301.438l-2.574-8.884M275.319 290.933l.592 1.763M275.319 290.933l-.058-.28-.115-.266M273.891 292.554l.404-.085.365-.182.304-.264.22-.33.121-.372.014-.388M272.39 291.828l-1.398-.177M272.39 291.828l.173.226M272.563 292.054l.216.192.25.15.275.103.29.053.297.002M284.277 317.176l7.036-1.959M284.277 317.176l-1.01.272M286.279 323.995l2.035 6.703M293.418 321.961l-3.78 1.077-3.359.957M298.332 313.296l7.032-1.973M298.332 313.296l-7.019 1.921M298.332 313.296l2.056 6.68M296.26 306.611l.915 2.951 1.157 3.734M312.524 309.368l7.107-2.002M312.524 309.368l-7.16 1.955M312.524 309.368l2.067 6.695M312.524 309.368l-2.075-6.667M326.806 305.347l-7.175 2.02M326.806 305.347l2.103 6.861M326.806 305.347l-2.017-6.58M293.418 321.961l-2.105-6.744M293.418 321.961l2.07 6.705M293.418 321.961l6.97-1.984M300.388 319.977l7.06-1.992M300.388 319.977l2.115 6.776M307.449 317.985l7.142-1.922M307.449 317.985l-2.085-6.662M307.449 317.985l2.076 6.854M328.909 312.208l-7.182 1.934M318.095 387.453l-1.452.338M317.983 377.44l1.105 3.306.104 1.26-.07.944-.422 1.952-.284 1.472-.321 1.079" clip-path="url(#pa0b4c8a4fe)" style="fill:none;stroke:#000"/><path d="m306.034 414.77 1.015-.225.98-4.363.925-1.74 1.424-3.076 1.28-2.407 1.209-2.742 1.21-2.876 2.062-4.346 1.494-3.545.462-1.997M317.983 377.44l-1.098-3.895M317.983 377.44l-4.11 1.13M273.932 233.8l-4.315-14.832M273.932 233.8l9.747 31.598M270.135 235.264l.653-.557.489-.264.58-.204.488-.142 1.587-.297M290.03 295.161l1.688-3.336M290.03 295.161l-3.995-.698M291.718 291.825l-2.204-7.218M291.718 291.825l.099.323M322.793 292.255l-7.237 1.914M322.793 292.255l1.996 6.512M313.48 287.43l6.542-1.065.397.025.346.08.303.334.156.236 1.569 5.215M281.238 310.65l-3.047-10.28M289.213 308.536l2.1 6.681M289.213 308.536l7.048-1.925M310.449 302.701l7.133-1.956M310.449 302.701l-7.157 1.939M310.449 302.701l-2.034-6.642M324.789 298.767l-7.207 1.978M281.82 323.364l.34 1.141M280.301 318.128l.601 2.023.919 3.213M281.82 323.364l.673-2.038M280.815 384.215l8.04-13.727M280.815 384.215l4.417 2.218M286.535 369.354l-7.76 13.16-.06.233.017.235.12.232.23.191 1.733.81M288.854 370.488l4.486 2.33M288.854 370.488l-2.319-1.134M284.553 362.874l.813 2.57.276.422.33.26.726.488.418.24.06.06.092.13.048.075.028.079.028.1.003.085-.024.248-.052.26-.117.248-.647 1.215M293.34 372.818l-8.108 13.615M295.485 364.915l-.233 1.293-.044 1.098-.017 1.154-.208 1.025-.225 1.008-.432.813-.986 1.512M296.36 367.604l-.875-2.689M306.034 414.77l.907-3.34.263-2.955.011-2.073-.59-2.752-10.264-36.046M287.84 342.876l-3.123.898M273.287 347.058l5.801-1.577M272.527 352.127l7.845-2.173M272.527 352.127l-3.757 1.176M272.527 352.127l1.365 4.485M272.527 352.127l-.78-2.38M289.019 347.408l-8.647 2.546M290.131 351.948l-8.304 2.433M264.65 364.048l10.695-2.939M264.65 364.048l1.201 4.414M273.892 356.612l-7.211 1.954-2.228.722-.272.171-.187.212-.134.292-.069.415.195.959.665 2.71M291.254 356.536l-8.173 2.184M265.851 368.462l10.77-2.952M276.62 365.51l.893 2.877-.078.61-.095.333-.415.44-.7.422-1.947.7-6.361 2.007-.378.053-.14.002-.136-.038-.163-.105-.117-.155-1.132-4.194M283.08 358.72l.921 2.879.552 1.275" clip-path="url(#pa0b4c8a4fe)" style="fill:none;stroke:#000"/><path d="m276.62 365.51 5.699-2.009 2.234-.627M262.935 311.11l1.019 3.417M262.935 311.11l.996-2.051M262.935 311.11l-1.702 4.058M261.233 315.168l2.72-.641M261.233 315.168l-1.9.558M266.104 304.586l-2.173 4.473M266.104 304.586l1.083 3.828M266.104 304.586l-.546-1.63M265.558 302.955l-3.527-.505M265.558 302.955l-.74-2.915M262.031 302.45l-4.468-.727M259.333 315.726l-.934-4.64.009-.61.077-.375.173-.471 3.373-7.18M238.46 321.155l5.147-1.317M238.46 321.155l-1.267-3.861M238.46 321.155l1.568 4.974M266.814 321.933l-1.591-4.088-1.27-3.318M264.846 330.26l-2.59-7.05M264.846 330.26l3.36-.911M257.17 324.673l1.825 6.528.236.225.236.102.328.026.534-.053 4.517-1.241M259.333 315.726l-4.518 1.085M259.333 315.726l2.923 7.484M263.7 296.07l1.118 3.97M267.187 308.414l3.718 12.453M267.187 308.414l4.813-1.019M267.187 308.414l-3.256.645M270.905 320.867l2.07 6.985M270.905 320.867l-4.091 1.066M270.905 320.867l2.62-.723M272.975 327.852l-3.713 1.188M272.975 327.852l2.7-.652M276.63 306.01l-4.63 1.385M284.717 343.774l-5.629 1.707M284.717 343.774l-1.44-4.409M281.098 332.7l-1.855-6.745M281.098 332.7l2.178 6.665M281.098 332.7l3.15-.871M269.59 330.13l.398 1.235.346.748.51 1.05.329.682.212.253.368.3.419.13.99.05 1.194-.017 1.894-.39 4.848-1.472M269.262 329.04l-2.448-7.107M269.262 329.04l.328 1.09M269.262 329.04l-1.056.309M249.612 318.241l5.203-1.43M249.612 318.241l-6.005 1.597M249.612 318.241l3.018 7.652M249.612 318.241l-.347-7.164M252.63 325.893l4.54-1.22M205.027 410.01l.467-1.684.467-3.143.117-.373.181-.313.424-.55 4.298-6.154 2.046-2.728 3.477-4.436 2.197-2.915 3.541-4.662 2.405-3.184 2.37-2.826 1.094-1.532 11.001-17.035 2.162-3.326 1.315-2.252 2.474-5.033 1.193-2.334 3.892-8.107.735-1.626 1.072-2.927.316-.68.117-.206.199-.155.194-.102 1.168-.313.255-.167.147-.175.052-.174.026-.183-.009-.22-1.79-4.602M246.212 326.405l2.898.057 1.4-.057 2.12-.512M257.563 301.723l7.255-1.683M249.265 311.077l.044-1.386.03-.431.082-.455.148-.48.276-.687 2.17-4.33.59-1.253.354-.46.29-.215.362-.114.545-.085 3.407.542" clip-path="url(#pa0b4c8a4fe)" style="fill:none;stroke:#000"/><path d="m254.815 316.811-.979-7.015.009-.459.06-.354.104-.37 3.554-6.89M254.815 316.811l2.356 7.862M280.301 318.128l-3.173.869M246.212 326.405l-1.418-.106-4.766-.17M124.36 300.657l9.358 2.736 12.834 3.952 8.113 2.277 9.26 2.848 32.83 10.524 1.712.447.969.232 1.106.15 10.132.793 9.851.48 2.154.097 4.748.228 12.601.708M235.662 312.495l.513 1.378M239.98 310.606l.861 2.223M246.212 326.405l-2.605-6.567M236.175 313.873l1.018 3.421M236.175 313.873l4.666-1.044M240.841 312.83l6.034-1.382 2.39-.37M275.532 319.623l-2.007.52M275.532 319.623l1.596-.626M275.532 319.623 272 307.395M268.598 296.495l.83 2.503M269.428 298.998l2.572 8.397M269.428 298.998l-4.61 1.042M323.975 371.675l-1.968-6.438M323.975 371.675l7.176-1.91M323.975 371.675l-7.09 1.87M298.93 290.643l2.281 7.319M298.93 290.643l-7.113 1.505M306.267 289.042l-4.21.94-3.126.661M291.817 292.148l2.332 7.64M343.581 359.231l-.346.073M343.581 359.231l-.511-.937M345.854 365.989l-1.667-5.205-.165-.447-.156-.431-.285-.675M359.55 412.2l.991.976M359.55 412.2l-5.208-5.126M359.55 412.2l-1.77-5.773M316.885 373.545l-1.98-6.3M316.885 373.545l-4.093 1.172M345.142 366.176l.712-.187M345.142 366.176l-6.847 1.687M345.142 366.176l2.156 6.898M343.235 359.304l.147.61.208.683 1.552 5.58M306.267 289.042l7.213-1.611M306.267 289.042l2.148 7.017M337.4 390.395l-5.925-5.832M337.4 390.395l.187-.059M342.894 395.804l-2.989-2.626-2.505-2.783M333.901 378.682l1.468 4.762M333.901 378.682l-.595-1.931M331.475 384.563l-3.423-3.435-.06-.13-.052-.177.008-.128.017-.067.083-.083.134-.07 5.72-1.79M313.48 287.43l2.076 6.74M336.143 361.24l2.152 6.623M336.143 361.24l-2-6.52M336.143 361.24l7.092-1.936M336.143 361.24l-7.01 1.983M348.743 401.6l5.599 5.474M348.743 401.6l-5.85-5.796M348.743 401.6l-2.019-6.845M348.743 401.6l7.084-1.534M314.906 367.244l-2.176-6.924M314.906 367.244l7.101-2.007M312.73 360.32l-1.98-6.569M312.73 360.32l7.2-1.882M305.993 355.083l1.704 5.075.38.366.64.375.666.121.554.033 1.202-.155 1.59-.578M341.363 352.832l.247.806M341.363 352.832l-.513-1.672M341.363 352.832l-7.22 1.888M305.993 355.083l4.757-1.332M333.306 376.75l-2.155-6.985M333.306 376.75l7.162-1.956M340.468 374.794l2.066 6.592M340.468 374.794l-2.173-6.93M340.468 374.794l6.83-1.72M347.298 373.074l.779-.23M347.298 373.074l1.959 6.518M393.448 365.66l-7.78 1.333M393.448 365.66l-1.057-.806M394.656 370.139l-.389-3.415-.107-.366-.162-.239-.55-.459M385.654 360.148l3.105 2.175M397.21 358.597l-10.755 1.239-.801.312M383.68 360.668l1.388-.32.586-.2M395.067 372.734l-.41-2.595M395.067 372.734l-1.532.255M401.444 365.775l-2.68 4.006-.62.873-.557.553-1.176.961-.682.35-.662.216M388.759 362.323l3.632 2.531M388.759 362.323l4.985-.52M398.759 361.262l-5.015.541M398.759 361.262l.88 1.514M398.759 361.262l-1.548-2.665M392.39 364.854l1.612-.131M398.578 364.344l-4.576.379M398.578 364.344l-3.922 5.795M398.578 364.344l1.061-1.568M393.744 361.803l.258 2.92M403.307 363.306l-2.592-4.587-.147-.17-.199-.168-.29-.036-.264.02-2.604.232M401.444 365.775l-1.805-3M401.444 365.775l1.863-2.47M534.501 430.807l-32.838-17.036-28.091-13.92-24.563-12.033-43.936-23.547-1.766-.965M331.475 384.563l3.894-1.119M349.257 379.592l.727-.133M349.257 379.592l-6.723 1.794M349.257 379.592l2.033 6.704M364.124 377.167l8.881-1.308M364.124 377.167l-7.282 1.105M364.124 377.167l2.14 6.832M364.124 377.167l-2.05-6.68M393.535 372.99l-5.764.695M389.32 378.615l3.677-4.88.538-.746M363.187 415.78l-2.646-2.604M363.187 415.78l2.5-3.687M407.62 461.668l-48.808-27.609-1.73-2.601-.07-2.082 8.242-11.29-2.067-2.306M352.781 364.898l7.26-1.034M352.781 364.898l2.023 6.663M345.854 365.989l1.76-.401 5.167-.69M366.656 410.806l-.968 1.287M366.656 410.806l4.293-6.155M366.656 410.806l-1.73-5.723M354.342 407.074l3.437-.647M370.949 404.651l1.232-1.766M364.926 405.083l3.826-.719.714-.047h.612l.87.334M376.816 396.241l-4.635 6.644M376.816 396.241l-6.353 1.158M378.621 393.692l-1.63 2.298-.175.251M360.541 413.176l5.147-1.083M342.894 395.804l3.83-1.049M354.05 393.99l-.116-1.08M354.05 393.99l1.777 6.076M354.05 393.99l-.581-.972M360.872 391.667l2.142 7.09M360.872 391.667l-1.962-6.583M360.872 391.667l7.46-1.072M360.872 391.667l-6.938 1.243M377.165 389.325l5.12-.795M377.165 389.325l-8.834 1.27M377.165 389.325l1.456 4.367M377.165 389.325l-2.11-6.624M382.285 388.53l-3.664 5.162M382.285 388.53l1.824-2.571M344.647 388.128l1.048 3.342M344.647 388.128l-2.113-6.742M344.647 388.128l6.643-1.832M344.647 388.128l-7.06 2.208M351.29 386.296l.736-.14M351.29 386.296l1.027 3.51M358.91 385.084l-2.068-6.812M358.91 385.084l7.354-1.085M358.91 385.084l-6.884 1.071M387.754 380.823l-3.645 5.136M387.754 380.823l1.567-2.208M387.754 380.823l-5.054.747M360.042 363.864l2.032 6.622M369.173 362.687l-7.616.96-1.515.217M372.181 402.885l-1.718-5.486M369.173 362.687l7.133-1.026M369.173 362.687l1.832 6.491M368.207 358.965l.36 1.12.606 2.602M375.054 382.701l7.646-1.13M375.054 382.701l-8.79 1.298M375.054 382.701l-2.049-6.842M362.946 342.074l-.113-.845-.095-.333-.574-1.85" clip-path="url(#pa0b4c8a4fe)" style="fill:none;stroke:#000"/><path d="m355.552 340.026 2.776-.48 3.836-.5M361.535 336.128l.466 1.768.163 1.15M360.425 321.52l-.319.8-.3 1.52-.223.954-.215.937.087.59.276 1.084.284.88.19.752.049.93v.737l.082.696.219.72.241.793.245.684.17.675.309 1.245.015.611" clip-path="url(#pa0b4c8a4fe)" style="fill:none;stroke:#000"/><path d="m354.993 336.822 4.51-.594 2.032-.1M347.64 340.98l-8.24 1.206-1.267.172M376.306 361.661l7.375-.993M376.306 361.661l2.064 6.428M384.109 385.959l-1.41-4.389M383.68 360.668l1.989 6.325M389.32 378.615l-1.549-4.93M284.679 306.01l-2.083-6.755M273.646 268.31l3.281 11.209M273.646 268.31l-4.8 1.477M273.646 268.31l10.033-2.912M275.91 292.696l5.017.875M278.19 300.37l-2.125-7.168-.154-.506M278.19 300.37l4.406-1.115M280.927 293.571l1.215 4.213.454 1.47M285.272 294.33l-.641 1.94-.779 1.691-.307.639-.402.43-.26.163-.287.062M285.272 294.33l.763.133M285.272 294.33l-4.345-.759M286.035 294.463l-2.416-8.45M280.924 276.585l.475 1.663M274.25 280.201l2.677-.682M287.165 276.87l-3.486-11.472M287.165 276.87l-5.766 1.378M289.514 284.607l-.762-2.499-1.587-5.237M260.56 242.062l4.689 16.346 3.598 11.379M274.519 288.182l-1.037-3.248-4.635-15.147M274.519 288.182l4.542-1.083M289.514 284.607l-5.895 1.405M283.679 265.398l77.208-20.945M315.556 294.17l-7.14 1.889M315.556 294.17l2.026 6.575M308.415 296.059l-7.204 1.903M301.211 297.962l-7.062 1.826M301.211 297.962l2.081 6.678M296.26 306.611l-.608-1.896-1.503-4.927M317.582 300.745l2.049 6.621M303.292 304.64l-7.031 1.971M303.292 304.64l2.072 6.683M310.75 353.751l7.136-1.999M281.399 278.248l2.22 7.764M281.399 278.248l-4.472 1.27M276.927 279.519l2.134 7.58M283.619 286.012l-4.558 1.087M279.06 287.1l1.867 6.471M273.083 289.733l.808 2.82M275.146 290.387l-.166-.238-.213-.205-.25-.162-.278-.115-.296-.062-.304-.008-.3.047-.256.089M319.63 307.366l2.097 6.776M240.841 312.83l1.298 3.29M321.727 314.142l-7.136 1.92M321.727 314.142l2.097 6.78M314.59 316.063l2.107 6.822M243.607 319.838l-1.468-3.718M323.824 320.922l-7.127 1.963M266.814 321.933l-4.558 1.277M316.697 322.885l-7.172 1.954M262.256 323.21l-5.085 1.463M309.525 324.84l-7.022 1.913M302.503 326.753l-7.015 1.913M304.573 333.426l-.966-3.115-1.104-3.558M295.488 328.666l-7.174 2.032M285.495 331.484l-1.246.345M304.573 333.426l1.897 6.652M327.95 334.54l-7.098 1.83M327.95 334.54l2.028 6.609M320.852 336.37l2.073 6.721M279.088 345.48l-.983-3.24-.047-.361-.03-.268.025-.2.018-.166.099-.167.166-.108.192-.074.3-.083 4.448-1.448M329.978 341.149l-7.053 1.942M329.978 341.149l2.039 6.645M322.925 343.091l-7.089 1.953M322.925 343.091l2.058 6.673M315.836 345.044l2.05 6.708M279.088 345.48l1.284 4.474M332.017 347.794l-7.034 1.97M332.017 347.794l2.125 6.926M324.983 349.764l-7.097 1.988M324.983 349.764l2.098 6.803M280.372 349.954l1.455 4.427M317.886 351.752l2.043 6.686M281.827 354.381l1.254 4.339M281.827 354.381l-7.935 2.23M334.142 354.72l-7.061 1.847M273.892 356.612l1.453 4.497M327.08 356.567l2.053 6.656M327.08 356.567l-7.15 1.87M319.93 358.438l2.077 6.799M283.08 358.72l-7.735 2.39M275.345 361.11l1.276 4.4M329.133 363.223l2.018 6.542M329.133 363.223l-7.126 2.014M385.669 366.993l-7.3 1.096M385.669 366.993l2.102 6.692M338.295 367.863l-7.144 1.902M378.37 368.089l-7.365 1.09M378.37 368.089l2.14 6.665M371.005 369.178l-8.931 1.308M371.005 369.178l2 6.681M354.804 371.56l2.91-.436 4.36-.638M354.804 371.56l-6.727 1.284M354.804 371.56l2.038 6.712M387.771 373.685l-7.26 1.07M380.51 374.754l-7.505 1.105M380.51 374.754l2.19 6.816M356.842 378.272l-6.858 1.187M342.534 381.386l-7.165 2.058M335.369 383.444l2.218 6.892M366.264 383.999l2.067 6.596M368.331 390.595l2.132 6.804M346.724 394.755l-1.03-3.285M346.724 394.755l6.745-1.737M370.463 397.399l-7.449 1.357M363.014 398.756l1.912 6.327M363.014 398.756l-7.187 1.31M355.827 400.066l1.952 6.361M364.926 405.083l-7.147 1.344M291.097 450.954l13.68-32.936 1.257-3.248M345.695 391.47l6.622-1.664M352.317 389.806l.782-.276M352.317 389.806l.795 2.584.225.423.132.205M273.525 320.144l2.15 7.056M275.675 327.2l3.568-1.245M277.128 318.997l2.115 6.958M237.193 317.294l4.946-1.174M405.272 209.584l-16.968 18.45-5.76 6.018-2.387 2.123-1.418 1.122-1.315.943-1.332.814-1.299.603-1.555.681-1.765.651-3.77 1.138-6.816 2.326" clip-path="url(#pa0b4c8a4fe)" style="fill:none;stroke:#000"/><path d="m484.607 299.178-10.463-1.624-26.301-3.187-11.919-1.757-2.94-.455-6.02-1.04-3.632-.424-2.724-.52-3.305-.927-1.945-.635-.97-.26-.691-.048-1.116.09-2.75.121-.822-.024-.787-.066-7.862-1.39-1.063-.13-.684.057-1.453.35-1.651.439-.571-.009-.398-.056-.607-.303-.44-.389-.251-.522-3.468-12.993-.155-.317-.234-.244-.476-.113-.476-.033-.743.08-16.882 3.579-1.099.114-.571-.057-.675-.252-.535-.423-.502-.504-.286-.667-6.253-30.186M628.196 321.64l-17.202-2.765-32.114-4.824-15.092-2.429M484.607 299.178l12.906 2.003 27.434 4.424 6.616 1.155 32.225 4.862" clip-path="url(#pa0b4c8a4fe)" style="fill:none;stroke:#000"/><path d="m534.501 430.807 4.456-10.01 2.837-4.619 5.812-5.854 13.674-12.86.761-.773.459-.618 1.686-7.009 2.249-9.318.778-1.529.33-1.512.086-1.073.259-1.009.778-1.463 2.768-4.013.1-.28.108-.44.415-2.699.013-.5-.048-.394-.103-.342-.485-.895-.908-2.3-1.583-10.79-2.352-17.857-2.63-18.979-.173-2.049M534.501 430.807l21.577 11.194M568.492 448.427l-6.771-3.499-5.643-2.927M605.2 407.59l-.312.11-.169.09-14.146 5.006-16.605 25.303-.623.39-7.473-4.878-.76.064-9.034 8.326" clip-path="url(#pa0b4c8a4fe)" style="fill:none;stroke:#000"/><path d="m628.196 321.64.337.895 1.263 1.691 2.803 3.317 1.902 2.31 1.522 2.212.468.764.328.83.312 1.552.138 3.009-.467 3.651-1.09 4.92-1.427 5.976-1.02 4.033-.329.96-.631 1.317-.485.617-2.984 3.912-1.452 1.951-2.552 3.603-2.093 3.138-4.047 6.098-1.869 2.78-1.193 1.774-.97 1.626-3.39 5.123-1.262 2-2.664 4.667-1.003 2.78-.778 2.212-.537 3.48.022 2.5.152.253M594.435 505.51l-16.593-35.02-9.48-20.879.13-1.184M260.56 242.062l2.254-.565M260.56 242.062l-1.603.284M256.28 206.069l.441 7.352 1.228 14.784 1.02 7.221 1.592 6.636M270.992 291.65l-12.121-2.087-12.14-2.181-11.58-2.13-4.342-.725-12.688-2.439-.865-.106-1.301.029-.433-.053-.385-.147-.216-.195-.294-.43-.117-.277-.022-.269.035-.26.208-.455.502-1.05.977-2.87.514-1.175 3.23-8.603.84-2.436.108-.435.052-.423-.009-.552-.09-1.11-.217-.806-.207-.529-.208-.325-.424-.276-.683-.179-4.299-.618-1.28-.415-1.98-.284-2.171-.09-1.592.024M243.436 534.126l7.404 1.236.138 1.105-3.598 7.837v2.081l1.536 1.404 41.314-94.746.867-2.089" clip-path="url(#pa0b4c8a4fe)" style="fill:none;stroke:#000"/><path d="m407.62 461.668-.168 2.117-1.453 1.56-7.195 3.708-3.114 2.471-18.335 28.652-.208 1.105.104 1.04 5.674 11.838v.683l-.935.553-4.912.163-4.152-.423-2.836.78-2.907 1.3-2.283 2.245-1.66 1.95-1.522.781-2.076.033-1.245-1.724-18.51-22.568-10.827-13.399-1.8-2.146-1.591-.976-3.875-.975-30.697-29.482M310.125 379.6l-1.145-3.79M310.125 379.6l2.739 9.072M310.125 379.6l-3.597.989M310.125 379.6l3.747-1.03M308.98 375.81l-2.668-8.84M308.98 375.81l3.812-1.093M308.98 375.81l-3.561 1.02M306.312 366.97l-3.52 1.009M312.792 374.717l-2.353-8.338-.225-.31-.303-.122-.153-.007h-.158l-.277.04-3.011.99M312.864 388.672l-3.697.861M312.864 388.672l3.779-.881M305.419 376.83l1.109 3.759M305.419 376.83l-2.628-8.851M305.419 376.83l-3.434.984M306.528 380.589l2.639 8.944M306.528 380.589l-3.483.957M309.167 389.533l-.916.214M301.985 377.814l-2.448-8.269-.013-.178v-.22l.073-.22.143-.105 3.051-.843M304.307 385.99l-1.262-4.444M312.792 374.717l1.08 3.852M313.872 378.57l2.77 9.22M303.045 381.546l-1.06-3.732M291.264 350.323l4.221 14.592M303.053 352.783l-6.496-1.317-1.764-.342-1.799-.504-1.73-.297M341.61 353.638l1.139 3.695M341.61 353.638l7.787-1.057M357.324 351.555l-2.043.185M356.875 348.905l.294 1.065.094.642.061.943M359.114 356.888l-.89-2.738-.165-.586-.303-.83-.199-.455-.155-.423-.078-.3M367.16 355.705l.237.735M367.16 355.705l-8.046 1.183M366.437 352.944l.15.571.574 2.19M349.397 352.581l2.86-.388M349.397 352.581l-.335-2.47M349.397 352.581l.48 2.926M353.3 357.743l2.828-.415M353.3 357.743l-1.043-5.55M349.877 355.507l.269 1.647.276.484.242.17.459.163.45.016 1.727-.244M352.257 352.193l3.024-.453M356.128 357.328l2.986-.44M356.128 357.328l-.847-5.588M342.749 357.333l3.522-.956 3.606-.87M342.749 357.333l.32.96M362.946 342.074l-6.922 1.127M363.863 345.213l-.147-.48-.109-.374-.099-.488-.06-.585-.087-.333-.415-.879M339.934 348.173l.916 2.987M339.934 348.173l8.628-1.107M365.062 348.147l-.728-2.206-.095-.22-.113-.17-.263-.338M356.353 346.043l3.808-.659 1.781-.146 1.92-.025M340.85 351.16l8.212-1.05M349.062 350.11l1.758-.238 2.163-.325 3.892-.642M356.353 346.043l.28.991.12.618.07.578.052.675M365.062 348.147l-1.135-.146-1.301.066-5.751.838M355.552 340.026l-7.912.953M355.552 340.026l-.56-3.204M356.024 343.201l-.1-.848-.372-2.327M356.353 346.043l-7.791 1.023M356.353 346.043l-.33-2.842M356.024 343.201l-7.878 1.126M347.64 340.98l.506 3.347M347.64 340.98l-.297-3.152M349.062 350.11l-.5-3.044M348.562 347.066l-.416-2.739M267.92 285.49l1.104-.015.14.022.082.053.053.059.075.126 1.618 5.916M254.574 206.312l1.706-.243M368.533 179.41l-.286 1.168-.285.939-.199.736-.039.943-.073.52-.134.448-.528 1.916-.073.381.008.639.113.7.341 1.053.489.968.155.329.087.24.013.186-.082.286-.156.26-.398.536-1.392 1.814-3.788 4.444-.606.866-.203.367-1.224 3.252-.329.476-.475.447-.39.249-.337.072-.454-.016-.87-.252-2.594-1.22-4.15-2.066-2.492-1.016-.969-.374-.865-.187-1.543-.321-2.132-.724-.999-.472-.718-.533-.73-.74-2.423-2.142-.419-.31-.372-.207-.57-.138-.554-.057-1.125.017-2.677.381-6.036.944-5.57.748-14.668 2.277-15.983 2.895-17.782 3.254-15.767 2.683M269.59 330.13l-1.384-.781M124.36 300.657l-.571.67-.38.618-.27.537-.224.83.035 1.203.388 2.44v.927l-.069.577-.535 2.041-1.851 5.725-1.004 2.666-.986 2.408-2.421 6.342-1.717 5.469-.208.422-.298.415-.35.403-.558.406-.545.354-1.894.744-.376.195-.442.325-.612.606-.637 1.07-2.3 4.386-.196.252-.225.179-.259.139-3.29 1.353-.312.207-.238.29-.19.304-.177.419-.096 1.325.066 1.379.025.329-.03.471-.1.346-.674 1.383-.086.345-.022.431.082.468.177.463.952 1.76M266.124 242.872l4.85 2.72M266.124 242.872l-1.974-.907M267.843 239.606l.403 2.139.06.409.01.155-.09.196-.143.132-.149.051-1.81.184M267.843 239.606l2.292-4.342M264.15 241.965l1.107-.496.874-.48 1.712-1.383M264.15 241.965l-1.336-.468M262.814 241.497l.843-2.122.29-.55.272-.32.243-.18.233-.089 2.089-.293.42-.125.397-.171.619-.399 1.915-1.984M262.496 286.588l-.828-2.024-.033-.143.003-.141.056-.14.088-.133.174-.102.709-.191.352-.057 1.049.043.631.114.772.266 1.014.461.567.285.87.665" clip-path="url(#pa0b4c8a4fe)" style="fill:none;stroke:#000"/><path d="m262.496 286.588 2.951-1.003.61-.106.727-.008 1.137.02M262.559 288.756l-1.012-.517-.199-.17-.09-.187-.053-.215-.017-.49.046-.102.07-.084.146-.075 1.046-.328M353.469 393.018l.465-.108M343.235 359.304l-.165-1.01M353.934 392.91l-.07-.447-.173-.618-.592-2.315M353.099 389.53l-1.073-3.375M352.026 386.155l-2.042-6.696M349.984 379.46l-1.907-6.616M348.077 372.844l-2.223-6.855M594.435 505.51l-4.216 3.414-2.836-.033-3.875 1.073-3.183 2.96-1.66 1.04-2.007-.26-1.418.52-1.834 2.277-1.522.162-1.314-1.17-43.245-42.602-1.176-1.171-1.038.358-2.49 4.423-2.18 1.17-9.618 1.269-9.41 4.422-2.664.846-3.321-.683-6.054-4.716-5.397-.618-2.698-1.267-6.262-4.294-14.841-7.74-27.123-15.675-1.522-.683-2.215.195-4.773 2.146-15.568 9.367-1.354 1.428M370.245 358.55l.245.946.193.745M370.245 358.55l-.636-2.58M368.207 358.965l.543-.11 1.495-.305M368.207 358.965l-.81-2.525M365.062 348.147l.214.648.213 1.036.155.879.337.91.286.675.17.65M369.609 355.97l-.821-3.33-1.724.222-.627.082M369.609 355.97l-1.59.338-.622.132M369.609 355.97l5.699-.832M375.308 355.138l.14.753M373.334 352.325l.96-.076.476.238.293.57.245 2.08M347.343 337.828l7.65-1.006M484.607 299.178l21.926-29.37 1.592-2.732 5.88-15.158 8.131-19.256.312-1.237-2.284-1.593-8.441-2.733-17.333-5.855-5.915-3.318-6.4 3.708-10.414 6.538-3.32 3.644-9.895 7.807-15.983 11.254-19.823 11.808-7.922 3.48-14.185 4.652-.726-.39 6.573-60.015-1.108-.828" clip-path="url(#pa0b4c8a4fe)" style="fill:none;stroke:#000"/></g><g id="PatchCollection_1"><path d="m270.08 268.438-1.665-1.232-2.235-7.67.74-1.112v-.71l-.755-.96-.887-.315-3.242-11.124 12.46 2.17-.161.794.532.543.543-1.178 1.457.253-1.067.925.977 1.336.4-1.086.532-.375.578.501 5.011 15.73-1.415.008-1.776-1.168-1.288-.292-1.42-.376-1.022-.167-1.243.042-.71.375-.356.752-.488.834-.178 1.128.014 1.472zm2.035-10.056.755-.334 1.066-.25.843-.334.666-1.086.843-.417.489-.5-.444-.961-.844-1.044-.488-.96.799-.626.4-.71-1.022-.209-.843-.208-.311.667-1.243.627-.932.626-.756.584-.932-.459-.488.877-1.687 1.085.754.167.977.376.8 1.252 1.198.877zm-.8-10.645-5.416-.96-.09 1.002.4 2.755.578 1.252-.311 1.503 1.065.209.178-.96.977-.042.4.584.577-.75.266-1.337.045-1.253-.888-.876-.489-.835 1.288-.167zM266.581 399.37l-.18-1.756-.242-1.925.45-2.14.57-3.182 1.172-1.438 1.275-1.391.208-1.589-.482-1.19-.723-.339.361-1.132 1.145-.567 1.325-1.075 1.205-1.586 2.048-1.812 2.108-3.342h.06l1.386-2.321.723-1.133 1.324-1.698 1.145-.793.903-.85 1.265-1.642.784.34.42-.793 1.116-1.542.692-1.29 1.4-.628 1.376-1.343h1.734l.85-.35-.24-1.246-.843-.226-1.807.679-1.868 1.812-1.205.68-2.108 1.132-.843.906-.361.51-2.109 2.152-.842.68-.603.849-1.385 1.359-.422 1.529-.542 1.133-.662.339-1.808 1.076-.361.17-1.386 1.36-1.746 2.321-.784 1.302-1.144 1.53h-1.265l-1.023 1.132 1.445.623-.542.849-.542.566-.06 1.19.24.793-.541.679-.06 1.472-.362.793.06 1.585-.482 1.586-.12 1.416-.663 2.378.24 1.812-.903.906.06.793.181.793z" clip-path="url(#pa0b4c8a4fe)" style="fill:#006400;fill-opacity:.8"/><path d="m257.004 354.124-.542-1.585 1.084-1.473 1.686.227.182.17 2.409 2.605-1.325 2.038.36 1.642-.36 1.756.963.623.06.056.241 2.719v.962l.543.68-.482 1.642.301 1.246v1.359l.783.566-.18 1.246-.242 1.19-.542.849.783 1.02.964 1.415 1.928 1.415-.242.963.121.963.18.34 2.53 2.151h-.542l-1.023 1.133-1.326-1.416-1.325-.51-.12-.17-.362-2.208-.843.057-.542-1.755-.422-.397-1.385-1.133.18-1.302-.06-2.039.06-1.472-.602-1.869-.663-.85-4.095-.962-16.324-6.852 1.867-2.548 10.12 4.02 1.024-2.945 6.505 2.55-.18-1.7.662-1.076-.06-1.076-1.205-1.36zM264.593 400.276l-2.373-.133-1.635.23-3.186.154-2.124.691h-.654l-3.923 1-4.739 1.612-2.615.154-1.225 1.382-2.86.692h-.9l-2.042.23-2.942.999-1.797.999-2.043.691-4.086 2.382-1.47 1.997-.328.154-.575-.015-.346.211-1.003 1.024-1.402.326-.77-.193-.077 1.664 8.34-3.325 1.472-1.46 2.124-1.075 2.533-.768 3.84-1.23 2.534-.614 1.634.154 1.716-.538 1.389.154 3.84-.845 3.27-.691.571-.077 5.884-1.537 1.96-.921 2.056-.235 3.093-1.148 1.716-.846 2.288-.307 1.88.845.586.33.943.19 4.517-.059 3.35.385.899 1.382 4.167 2.305.572.076 2.043.846 1.553 1.46 1.634 1.152 1.613-.249 1.41-.673-.408-1.383-1.961-1.23-3.35-2.995-2.697-.614-.818-1.076-5.392-.845-2.533-.615-2.534-.46-4.566-1.424-1.725.655-2.34.149zM221.686 381.593l2.945-2.584 1.833-2.277-3.208-2.77 8.182-15.692-2.552-5.354-3.404-1.107.786-2.647-1.964-4.431-1.833.308-1.31 1.846-.523.8-.13.369-.132 1.97-.785.738-7.987 24 1.31.617 2.095.615h.72l2.422 1.353 1.374.739.916 1.415.066 1.847zM226.922 348.485l-1.178-2.708 3.076 1.415zM191.49 349.408l-.328-.75.328-1.192.798-2.338.985-1.941.188-.662.047-.133.61-.706 1.408.089.798.926 1.173.662 1.362 1.368.468.706-.516 1.368-.891 1.985-.61 1.192-1.408.882-.564.133-1.501-.177zM340.306 305.127l-1.026-4.072v-3.322l-2.62-1.714-.115-1.93 2.052-.75 2.849.858 2.165 2.679 2.052 1.607-2.052.857-1.823.858 1.026 2.464 2.735.107.798.858-1.254.535-.57.643-1.596 1.179zM216.517 277.862l1.604-6.329 5.788-16.2.404-.822.538-.98.539-1.045.774-.664.134.633-.125 23.113-3.566-.883-.422-.397-.235-1.324-.094-1.015.422-1.014.517-1.324.703-.927.47-.486-.094-.485-.47.176-.656.31-.61-.088-.61-.045-.798.53-.611.485zM228.182 257.991l.167 17.69.359.02 2.487-.089.752-.618.187-.662-.47-.573.188-.75.188-1.677.704-.883.798-.177 1.548.265.892.353 1.08-.794.657-1.28.938-1.986.188-1.28-.469-.485-1.22-.485-1.784-.309-.985-.353-.094-1.059.563-.486.704-.529.235-.618.094-1.014.563-.795v-.794l-.845-.882-.61-.751.516-.573.376-.398.75-.353-.515-.427-1.144.411-.572.855-.64.727-1.11-.443-.135.886-.976-.031-1.177-.38-2.221-.063zM349.46 310.002l2.487-2.131-.439-2.269 1.463.068 1.609.413 2.56.481 1.975.963 1.828 1.17 1.39.137 1.096.687.732.894 1.829.963 3.51 1.375 2.706 1.444 1.828 1.444 2.633 1.856 2.34.55 1.975-.206 1.317 1.1 1.024.688.95 1.031.44.894.438 1.031 1.17-.205 1.024-.07-.366-1.03.512-1.032.512-.825.512-1.238.732-1.513-.659-1.513-.877-1.237-1.244-.276-.073-1.168 1.901-1.1 1.83-.688 1.242-.688.732-.962.731-.826 1.097-.343 1.097-.963.951-.962.698-1.318.838-1.158.292-1.719.95-2.132 1.83-1.65 1.097-.55 1.097-1.031 1.682-1.032 1.682-1.238 1.974-1.306 1.097-1.307 1.244-1.375.292.55 1.682-1.1.659-.344h1.755l-.146.481.438 1.65-5.557 4.814-1.39.62-1.244 1.237-2.267 2.2-2.048 2.27-2.413 2.062-.731 1.582-1.17 1.375-.455.386-1.667 2.09-2.047 1.718-2.048 1.513-1.024.275-1.536-.55-.95.275.804 2.75v1.857l-1.17 2.338.146 1.306.366.895.146 1.1.292 1.444.44 1.1.73 1.375 1.024 1.1 2.048 1.238 3.218.825 1.755.894 2.048 1.65 3.291 2.544 1.756 1.65 1.535 1.032.512.619-1.316 4.194-1.609-1.031-1.17-2.063-1.902-1.169-3.145-1.582-3.071-1.856-.951-1.169-1.536-1.031-1.39-.963-2.12-1.513-1.244-1.788-.95-1.581-.366-1.031-1.463-.688-3.145-.275-1.243.756-.512-.069v-.687l-.512-.206-.146.55-2.487-5.02-1.316.138-.95.825-.878-1.238-2.049-1.237-1.681-.894-1.317-1.444-1.755-.276-2.048-.756-1.024-.068-1.024-.688-1.17.481-3.51-.756-1.17.069-2.34-1.376-.879-1.306-1.681-.963-.695 1.115-1.06-1.39z" clip-path="url(#pa0b4c8a4fe)" style="fill:#006400;fill-opacity:.8"/></g><path id="PatchCollection_2" d="m283.078 309.971 3.873-7.458 1.936 5.903z" clip-path="url(#pa0b4c8a4fe)" style="fill:green;fill-opacity:.8"/><path id="PatchCollection_3" d="m327.741 379.085-1.928-6.342 4.91-1.218 1.927 6.258z" clip-path="url(#pa0b4c8a4fe)" style="fill:#90ee90;fill-opacity:.8"/><path id="PatchCollection_4" d="m281.05 395.69.92-2.015 8.144-14.336.815.287 3.265 9.926v2.973l2.193 1.055.357-.48.663.384-.255 1.582-.612 3.308 1.275-2.205 2.31-.528-1.07.671-.97 1.343 1.072 1.534 1.887 1.583 2.754 1.102.714 2.973.153 1.39-.867.384-1.58-.143-2.551-1.055-1.887-1.103-1.275-1.295-1.938-1.87-1.224-.911z" clip-path="url(#pa0b4c8a4fe)" style="fill:#006400;fill-opacity:.8"/><g id="PatchCollection_5"><path d="m285.539 322.314 2.384-.616-.218-.691-2.365.579zM288.619 322.874l.973-.26-1.649-5.699-1.033.336zM242.211 289.343l-1.175-.193.278-1.496 1.176.194zM264.603 289.179l-.293-1.176 2.99-.74.339 1.118z" clip-path="url(#pa0b4c8a4fe)" style="fill:#a9a9a9;fill-opacity:.8"/><path d="m264.31 288.003 2.99-.74-.385-1.371-2.03.502.09.317-.96.237zM258.458 286.6l-1.09-3.366 1.169-.335.793 2.451.326-.093.096.293.37-.106.202.621zM279.649 270.051l-.147-.164-.083-.2-.008-.214.066-.205.134-.174.187-.123.217-.059.226.01.21.08.173.137.115.183.046.21-.028.21-.1.192-.16.15-.203.094-.226.027-.223-.044zM276.914 269.493l-.088-.023-.075-.047-.057-.068-.03-.08-.002-.086.026-.082.052-.07.073-.051.094-.028.098.003.091.034.074.062.047.08.016.092-.018.09-.05.08-.075.06-.085.03zM277.252 269.972l-.05-.133-.003-.141.046-.134.09-.114.122-.08.144-.04.154.008.142.054.115.095.075.125.029.142-.023.142-.072.128-.112.099-.14.058-.152.012-.146-.034-.126-.077zM277.012 270.32l-.11.09-.135.052-.145.01-.141-.035-.123-.074-.09-.106-.051-.129-.005-.137.041-.13.091-.12.13-.085.151-.037.157.014.142.062.11.104.068.133.015.136-.03.135zM372.034 359.985l.497-.082-.248-1.33-.291-.124-.186-.825-.457.09.097.43-.115.115.027.174.158.124.053.133-.07.065.114.696.352.165zM368.629 353.001l-.37.062.192 1.014-.122.02.087.46.1-.016.156.822.374-.063-.167-.88.105-.017-.065-.342-.087.014zM370.274 354.853l2.432-.417.017.088.861-.147.021.11.637-.11-.304-1.568-1.505.258-.125-.645-1.84.315-.158-.19-.494.084-.03-.152-.282.049.36 1.852.308-.053zM376.522 356.076l.553-.071-.368-2.534-.554.072zM375.897 353.316l.819-.098-.175-1.292-.82.098zM373.094 352.087l1.214-.218-.04-1.189-1.244.2z" clip-path="url(#pa0b4c8a4fe)" style="fill:#a9a9a9;fill-opacity:.8"/></g></g></g><defs><clipPath id="pa0b4c8a4fe"><path d="M90 172.043h558v383.114H90z"/></clipPath></defs></svg>