<svg xmlns="http://www.w3.org/2000/svg" width="960" height="960" viewBox="0 0 720 720"><defs><style>*{stroke-linejoin:round;stroke-linecap:butt}</style></defs><g id="figure_1"><path id="patch_1" d="M0 720h720V0H0z" style="fill:#fff"/><g id="axes_1"><path id="patch_2" d="M90.502 640.8h556.996V86.4H90.502z" style="fill:#fff"/><g id="LineCollection_1"><path d="m553.703 151.263.579.664.9 1.09 2.507 3.388.763.885.948.861.964.759 1.198.608 1.133.347 11.249 2.18 19.405 3.848M460.157 100.48l-.143 2.754M464.718 103.601l.016-.6-.04-.32-.052-.297-.112-.22-.19-.151-4.183-1.533M410.827 375.958l-2-1.055M410.827 375.958l-.217.75M411.783 373.963l-.544 1.135-.412.86M420.505 374.507l-2.772-2.17M420.505 374.507l-.28.32M420.505 374.507l1.656-1.725M470.366 113.49l1.138-2.421M470.366 113.49l-1.847-1.243M470.366 113.49l5.447 3.79M470.366 113.49l-1.407 2.606M468.959 116.096l-.033.652M466.938 114.737l.949.667 1.072.692M427.44 367.127l3.6-7.685M427.44 367.127l1.803.379M427.44 367.127l-5.28 5.655M423.49 366.013l2.953.833.997.281M410.61 376.708l1.467 1.232M410.61 376.708l-1.355 1.948M413.768 378.852l-.98-.446-.334-.189-.044-.024-.333-.253" clip-path="url(#pbe504bdd01)" style="fill:none;stroke:#000"/><path d="m413.904 373.723-.633 1.46-1.194 2.757M415.773 379.78l-2.005-.928M415.773 379.78l2.153 1.034M415.773 379.78l-.273 1.346M415.773 379.78l1.55-1.737M421.964 376.374l-4.038 4.44M421.964 376.374l-1.74-1.548M421.964 376.374l1.224 1.09M407.32 376.542l1.506-1.639M407.32 376.542l-1.55 1.56M403.661 374.863l.605.19.406.134.446.206 2.203 1.15M414.762 376.836l2.561 1.207M414.762 376.836l-.994 2.016M415.953 374.418l-.215.435-.976 1.983M399.79 377.237l-1.534 2.812M399.79 377.237l1.664-3.411M404.789 382.837l-4.227-4.983-.362-.332-.41-.285M393.684 370.42l.442 1.588.353.893.45.869.362.521.418.419 1.72 1.256 1.461.786.9.485M423.188 377.464l-2.207 4.712M425.776 378.765l-.502-.209-.446-.2-1.64-.892M417.323 378.043l2.902-3.217M409.255 378.656l1.71.945M407.572 381.367l.732-1.271.206-.359.174-.303.571-.778M406.63 379.658l1.39-.531 1.235-.471M403.661 374.863l.485.455.265.324.289.403 1.07 2.057M406.63 379.658l-.43-.778-.43-.778M425.776 378.765l-1.245 4.43M425.776 378.765l.941-3.22M425.776 378.765l2.359.707M428.135 379.472l2.157-7.525M428.135 379.472l5.63 1.703M410.965 379.6l-2.265 3.945M410.965 379.6l1.736.895M406.63 379.658l.942 1.709M402.064 384.741l-.516-.635-3.292-4.057M396.14 384.05l.54-.993.54-.994 1.036-2.014M412.7 380.495l-2.958 4.847M415.166 381.636l-.42-.195-2.045-.946M417.926 380.814l-.138 5.988M417.926 380.814l3.055 1.362M433.764 381.175l1.285.479M433.764 381.175l-2.592 5.533M433.764 381.175l2.113-7.781M407.572 381.367l1.128 2.178M404.789 382.837l1.399-.757 1.384-.713M415.683 381.794l-.517-.158M415.683 381.794l-.059-.323-.124-.346M415.76 386.786l-.06-2.547-.017-2.445M415.166 381.636l-.038.33-.09 3.802M415.5 381.126l-.211.27-.123.24M420.981 382.176l-1.52 4.623M420.981 382.176l3.408 1.567M404.789 382.837l-.328.23M424.531 383.196l-.142.547M427.485 386.777l.605-2.257-.008-.182-.076-.13-.127-.095-3.348-.917M393.183 388.092l1.618-2.158 1.339-1.884M399.333 386.653l-1.428-1.174-.235-.193-1.53-1.236M408.7 383.545l1.042 1.797M424.389 383.743l-.974 3.05M402.064 384.741l2.397-1.675M402.064 384.741l1.755 2.069M402.064 384.741l-2.73 1.912M409.838 385.508l-.096-.166M409.838 385.508l5.2.26M412.687 394.914l.014-1.98-.014-1.452-.072-.474-.12-.351-.182-.344-2.475-4.805M415.037 385.768l-.004 1.015M407.416 388.832l-4.227 1.935-.337.016-.305-.119-.281-.228-2.933-3.783M431.172 386.708l3.94.052M431.172 386.708l-3.687.07M431.172 386.708l-2.805 5.646M427.485 386.777l-2.239 5.937M423.415 386.793h.332l3.738-.016M423.415 386.793l-.591 6.225M423.415 386.793l-3.954.006M419.46 386.799l-1.672.003M421.213 392.905l.068-.357.012-.375-.097-.497-.265-.774-1.47-4.103M417.788 386.802l-2.027-.016M415.76 386.786l-.727-.003M415.76 386.786l.14 8.108M415.033 386.783l.097 8.111M409.842 394.954l-.096-.94-.12-.703-.185-.632-.282-.687-1.743-3.16M404.461 383.066l1.725 3.278 1.23 2.488M431.066 392.105l-2.7.249M428.367 392.354l-3.12.36M428.367 392.354l-.114 9.632M425.246 392.714l-2.422.304M425.246 392.714l-.42 9.53M421.213 392.905l-1.933 9.719M421.213 392.905l1.61.113M422.824 393.018l-.896 9.444M415.9 394.894h-.77M416.199 402.883l-.081-1.88-.217-6.109M475.401 99.726l.45-.738.37-.652.637-1.274M471.376 97.42l4.025 2.306M487.342 97.913l.819 4.136M478.425 101.417l3.75-1.17 3.812-1.228.454-.221.378-.28.523-.605M475.401 99.726l3.024 1.69M475.401 99.726l-1.57 2.587M478.425 101.417l1.389.833M493.111 104.696l-.583-1.111-.165-.233-.157-.154-.285-.158-.831-.371-1.049-.443-.386-.107-.381-.062-1.113-.008" clip-path="url(#pbe504bdd01)" style="fill:none;stroke:#000"/><path d="m483.504 105.9.063-.09.044-.11.24-2.75.084-.214.14-.123.193-.09 1.55-.241 2.343-.233M473.83 102.313l7.486 4.247M473.83 102.313l-1.465 2.643M465.204 103.526l.977-4.708.116-.217.137-.13.197-.06.217.035.269.13 2.322 1.348 4.391 2.389M468.708 103.029l3.657 1.927M460.014 103.234l-.038.74M464.718 103.601l-1.916.272-.35-.011-.402-.052-2.036-.576M465.204 103.526l-1.01 1.937M465.204 103.526l-.486.075M471.363 106.852l-5.463-2.95-.696-.376M472.365 104.956l5.752 2.843M472.365 104.956l-1.002 1.896M460.584 105.698l1.225.739M458.985 109.091l.022-.136 1.577-3.257M459.976 103.974l-.038.737.032.316.08.237.193.22.341.214M461.81 106.437l-1.567 3.946M461.81 106.437l1.048.565M483.504 105.9l-.1.051-2.088.609M478.117 107.8l.622-.463.298-.178.37-.15 1.909-.45M471.363 106.852l-.983 1.88M473.617 107.926l-1.141-.514-1.113-.56M462.858 107.002l-1.438 4.238M462.858 107.002l.419.217M463.277 107.219l.714.324M463.277 107.219l.916-1.756M463.991 107.543l5.622 2.656M463.991 107.543l-.503 1.394M473.617 107.926l1.045.15 1.575.134h.417l.374-.035.418-.099.67-.277M473.617 107.926l-1.52 3.416M463.488 108.937l-.883 2.311M463.488 108.937l.501.28M460.243 110.383l-1.13-.902-.07-.121-.043-.13-.015-.139M457.013 110.205l.824-.843.144-.11.165-.07.205-.05.634-.04M462.605 111.248l.348-.235.148-.144.147-.178.741-1.473" clip-path="url(#pbe504bdd01)" style="fill:none;stroke:#000"/><path d="m468.52 112.247-3.708-2.498-.823-.531M459.976 103.974l-.488.401-.314.253-.27.312-.405.612-1.462 2.864-.414 1.019-.032.233.032.17.088.126.302.24M459.17 113.18l-2.527-1.028-.209-.122-.088-.127-.032-.193.036-.174.663-1.331M469.613 110.199l1.89.87M469.613 110.199l.767-1.466M469.613 110.199l-1.094 2.048M460.243 110.383l.324.219M460.567 110.602l.853.638M460.567 110.602l-1.398 2.578M471.504 111.069l.593.273M461.42 111.24l.872.636M462.605 111.248l-.313.628M476.841 114.85l.292-.869-.008-.182-.069-.15-.12-.114-.68-.308-4.16-1.885M466.672 115.141l-1.61-1.25-2.77-2.015M468.52 112.247l-1.582 2.49M459.17 113.18l1.822.722M459.17 113.18l-1.248 2.759M466.938 114.737l-.266.404M466.672 115.141l1.503 1.042M458.2 116.37l-.052-.134-.226-.297" clip-path="url(#pbe504bdd01)" style="fill:none;stroke:#000"/><path d="m459.669 129.826-2.156.314-.155-.006-.124-.036-.085-.08-.05-.098-.122-.723-.563-3.323-.579-3.275-.007-.375.04-.399.606-2.737.125-.415.169-.41.704-1.559.45-.765M468.175 116.183l.751.565M461.024 128.611l.074-.172.764-1.38 4.48-7.827.149-.247 1.684-2.802M471.512 124.958l-1.423-4.518-.381-1.21-.782-2.482M476.595 120.49l-.764-.367-.414-.205-.522-.289-2.503-1.53-.062-.015-.052.004-.05.02-.198.198-.082.032-.078.006-.099-.022-2.07-1.094-.326-.17-.449-.31" clip-path="url(#pbe504bdd01)" style="fill:none;stroke:#000"/><path d="m459.669 129.826-.523-2.854-.739-4.116-.129-1.034-.056-1.114-.048-1.375.064-2.617-.014-.187-.024-.158" clip-path="url(#pbe504bdd01)" style="fill:none;stroke:#000"/><path d="m461.024 128.611-.32-.895-.804-4.914-.482-3.933.078-1.373-.029-.213-.064-.181-.14-.127-1.063-.604M475.813 117.28l1.028-2.43M477.788 118.709l-.826-.589-1.15-.84M461.08 129.683l-.056-.4-.044-.305.012-.2.032-.167M461.08 129.683l-1.411.143M474.774 146.034l-3.342-.585-3.246-.553-4.058-.602-.147-.032-.116-.075-.057-.116-.015-.157.15-3.181-.056-1.082-.16-.743-.33-.837-.539-1.161-.289-.759-.33-1.54-.546-2.48-.394-1.576-.218-.872M486.715 124.69l2.547 1.342 1.872.9 6.203 2.773 9.136 4.005 8.316 3.59M552.017 149.754l-1.536-1.374-3.39-2.978-1.045-.703-.916-.474-1.013-.214-.915-.008-.965.135-5.23 1.31-1.623.317-1.528.031-1.55-.26-1.607-.514-15.91-7.721M511.388 142.135l.083-.022.086.006 4.606.992.14.002.077-.032.053-.071.013-.093-.02-.092-1.637-5.524M475.602 142.25l-.828 3.784M475.602 142.25l12.354.817M471.512 124.958l3.962 12.45.208 1.09.121 1.058.016 1.17-.217 1.523M474.774 146.034l-4.387 22.371M456.414 206.163l-.562-3.04-.04-.917.023-.9.105-1.083 1.189-5.23M464.739 196.94l-6.895-2.61-.217-.024-.18.056-.15.13-.091.221-.077.28" clip-path="url(#pbe504bdd01)" style="fill:none;stroke:#000"/><path d="m444.82 191.803 3.157 2.638.844.6.771.458.828.34.45.126.353.017.394-.024 2.443-.459 3.069-.505M464.739 196.94l-1.19 5.922M464.739 196.94l.232-1.167M456.414 206.163l-.198 3.758M456.414 206.163l6.18 1.304M462.593 207.467l-.431 2.553M462.593 207.467l.956-4.605M462.162 210.02l-.107.523M466.539 210.765l-.45-.08-3.927-.665M456.216 209.92l1.785.193M454.245 213.51l.309-3.203.084-.206.13-.134.204-.08 1.244.034M458 210.113l4.055.43M458 210.113l-.344 3.01M462.055 210.543l-.52 2.56M461.536 213.104l-.164.635M461.536 213.104l4.737.698M457.656 213.123l-.848 5.063M461.372 213.739l-2.89-.614-.282-.032-.298.006-.246.024M454.245 213.51l1.92-.142.563-.08.928-.165M422.84 216.875l7.46.37 2.137.025.836-.024.771-.158.74-.245 5.367-1.975.683-.213.667-.079h1.117l2.933-.19 1.823-.237 1.503-.26 1.591-.221 3.777-.158M461.372 213.739l-.83 5.204M466.273 213.802l-1.125 5.632M475.269 214.462l-.283-.005-8.713-.655M466.539 210.765l-.025.339-.112 1.165-.129 1.533M456.808 218.186l3.735.757M458.688 228.281l-2.676-.647-.293-.134-.16-.163-.081-.233-.012-.276.49-3.152.852-5.49M460.543 218.943l-.225 1.188M465.148 219.434l-2.685-.323-1.92-.168M464.86 221.061l.216-1.217.072-.41M460.318 220.131l-1.027 5.44M460.318 220.131l4.541.93M467.664 225.09l.594-2.907.02-.233-.045-.193-.112-.134-.192-.092-3.07-.47" clip-path="url(#pbe504bdd01)" style="fill:none;stroke:#000"/><path d="m463.83 226.267.483-2.433.546-2.773M459.29 225.57l-.602 2.711M459.29 225.57l4.54.697M462.177 232.558l.434-1.561.285-1.024.934-3.706M458.688 228.281l-.534 2.856M458.154 231.137l-1.507 7.066M462.177 232.558l-1.294-.483-1.379-.488-1.35-.45M447.594 284.445l-1.04 5.063M447.594 284.445l.15-.712M449.556 286.311l.165-1.074-.016-.225-.096-.142-.181-.08-1.834-.345M449.556 286.311l-.498 2.24M449.556 286.311l4.874 1.118M454.82 287.508l.234-1.01M454.82 287.508l1.283.334M454.82 287.508l-.39-.08M454.43 287.429l-.532 2.08M449.058 288.55l-.33 1.375M449.058 288.55l4.84.958M474.767 289.159l-3.315.028-1.318-.014-.303.012M457.278 290.146l2.04-.798 2.15-.69.418-.084.422-.02.39.04 2.069.328 2.993.423.405.033.38-.004.936-.142.35-.047" clip-path="url(#pbe504bdd01)" style="fill:none;stroke:#000"/><path d="m457.075 275.04.544 1.078.362.592.603.821 3.503 4.18 2.378 3.151.675.797.7.72.699.6 3.292 2.206M453.898 289.508l-.445 2.016M446.555 289.508l-6.5 32.735M446.555 289.508l2.173.417M453.453 291.524l-4.315-.821-.177-.06-.112-.11-.088-.158-.033-.45M457.278 290.146l.237-2.701M457.278 290.146l-1.892.75M455.386 290.897l-1.933.627M455.386 290.897l.717-3.055M421.986 352.368l1.975.056M423.473 356.124l.23-1.769.258-1.931M433.843 353.02l-3.423-.79-5.588-1.417-.233-.008-.213.043-.133.09-.08.187-.212 1.299M433.843 353.02l-2.804 6.422M433.843 353.02l3.177.742M436.342 342.247l-1.317 7.061-.29 1.169-.361 1.122-.53 1.421M437.02 353.762l-2.707 7.03M436.68 340.438l4.034 1.224.37.174.264.166.306.307.088.27-.008.315-3.897 9.258-.817 1.61M436.55 361.555l2.127-6.868.024-.17-.053-.142-.128-.126-1.5-.487M421.175 355.193l2.298.93M423.473 356.124l3.863 1.656" clip-path="url(#pbe504bdd01)" style="fill:none;stroke:#000"/><path d="m423.49 366.013-.606-.118-.346-.103-.322-.253-.184-.379-.056-.442.361-2.459 1.136-6.135M427.336 357.78l3.703 1.662M427.336 357.78l-3.846 8.233M431.04 359.442l3.273 1.35M434.313 360.792l2.237.763M434.313 360.792l-2.445 7.43M436.55 361.555l-2.124 7.372M436.995 369.636l1.934-7.082-.003-.122-.03-.113-.073-.095-.106-.053-2.167-.616M400.523 366.149l-.676 1.35M423.49 366.013l-5.757 6.323M333.293 311.723l.845 2.012 4.91 11.04 18.74 9.008 9.468 10.103 1.615 1.588 10.17 4.901 10.409 12.773 3.366 2.783M398.714 369.497l-3.74-1.99-.985-.688-1.173-.888" clip-path="url(#pbe504bdd01)" style="fill:none;stroke:#000"/><path d="m399.847 367.499-5.594-2.933-.181-.036-.195.016-.183.065-.124.12-.754 1.2M393.684 370.42l-.229-.844-.64-3.645M429.243 367.506l-1.203 3.884M429.243 367.506l2.625.715M399.847 367.499l-1.133 1.998M399.847 367.499l10.186 5.542M431.868 368.221l2.558.706M431.868 368.221l-.52 1.764M434.426 368.927l-.54 1.73M434.426 368.927l2.57.71M436.995 369.636l-1.118 3.758M398.714 369.497l3.953 2.124M431.349 369.985l2.536.672M431.349 369.985l-.673 2.052M433.885 370.657l-.638 2.03M428.04 371.39l2.252.557M428.04 371.39l-1.323 4.154M402.667 371.621l-1.213 2.205M402.667 371.621l6.16 3.282M410.819 371.815l-.786 1.226M411.783 373.963l.452-1.206-.008-.109-.038-.1-.077-.068-1.293-.665" clip-path="url(#pbe504bdd01)" style="fill:none;stroke:#000"/><path d="m417.733 372.336-2.146-1.571-.341-.143-.281-.079-.35-.016-.413.044-.563.107-1.912.501-.382.194-.265.197-.261.245M290.738 370.871l23.398 8.025 11.57.379 1.93 1.706 2.57 2.212 2.282.868 6.22-2.148 7.038-1.959 2.202-.3 1.655.221 3.263.774 3.631.917 1.862.109 3.538-.757 1.187-.76 1.256-2.21 1.572-1.044 4.018.095 3.168-.567 2.424-1.17 3.237-3.795 2.72-1.658.434-.174.457-.106.587-.032 2.7.134 2.981.332.454.031.426-.028.852-.126.441-.063.394-.04.422-.011.418.055.438.126.345.13.338.135.518.247M401.454 373.826l-3.27-1.533-1.045-.458-1.197-.467-2.258-.949M430.292 371.947l.384.09M433.247 372.687l-2.147-.543-.424-.107M415.953 374.418l.605-.709 1.175-1.373M433.247 372.687l2.63.707M426.717 375.544l-2.218-1.032-.603-.347-.502-.383-1.233-1M408.826 374.903l.245-.269.14-.18.073-.096.749-1.317M411.783 373.963l.884-.004.313-.021.29-.06.399-.118.235-.037" clip-path="url(#pbe504bdd01)" style="fill:none;stroke:#000"/><path d="m415.953 374.418-1.377-.514-.334-.099-.338-.082M401.454 373.826l2.207 1.037M412.687 394.914l-.496 8.264M412.687 394.914l2.443-.02M412.687 394.914l-2.845.04M415.13 394.894l.393 8.053M408.557 399.637l.241-1.082.233-.742.37-.956.257-.9.184-1.003M428.253 401.986l-3.427.258M431.521 404.59l-.908-2.433-.14-.162-.193-.09-.205-.032-1.822.113M428.18 411.502v-.073l.073-9.443M424.826 402.244l-2.898.218M424.826 402.244l-.342 9.668M421.928 402.462l-2.648.162M421.928 402.462l-.924 9.837M419.28 402.624l-3.081.26M416.199 402.883l-.676.064M416.576 409.297l-.113-1.165-.06-.92-.204-4.329M415.523 402.947l-3.332.231M415.523 402.947l.559 6.405M412.19 403.178l-3.344.161M412.19 403.178l-.178 1.846M444.514 403.934l2.692-.23M444.514 403.934l.16 2.502M441.312 406.947l.004-1.702.004-.739.044-.15.08-.09.133-.08.181-.027 2.756-.225M431.521 404.59l-.005 6.434M437.901 407.307l-2.913-.004-.61-.063-.438-.127-.426-.217-.33-.276-.345-.364-1.318-1.666M416.082 409.352l-3.359.4-.345.003-.326-.055-.245-.154-.128-.202-.037-.304.37-4.016M282.124 446.285l.772.632 6.364.284 1.639-.127 3.407-2.18 7.295-.916 5.914-1.8 2.764-1.706 4.372-1.043 2.539 1.137 4.628 1.011 4.917-.474 3.953-1.927 1.93-.379 2.795-1.2 3.343-.822 2.732-1.611 2.99-3.349 1.83-7.93 6.011-6.13 2.571.822-.096 3.35.29.916.77.252 2.315-1.295.803-1.169 2.314-.79 3.536-1.832.289 1.8.675.254 8.582-3.16 12.92-5.845 11.828-2.527 3.567-1.975 1.985-1.05.643-.23.667-.094 4.37-.115 1.664-.043M447.02 406.043l-2.345.393M444.675 406.436l.098 2.862M444.675 406.436l-3.363.511M441.312 406.947l.008 2.849M441.312 406.947l-3.41.36M438.076 410.208l-.142-2.354-.033-.547M444.773 409.298l1.766-.285.482-.052.438.004.398.103M448.146 416.998l-.08-3.602-.049-2.416-.16-1.912M565.748 309.309l-3.712 9.138-.458 1.399-.258.687-.288.506-1.35 1.943-.772 1.271-.2.518-.101.438-.057.493-.325 6.545-.128 1.058-.338 1.556-.305 1.106-.763 1.659-.716 1.303-1.76 3.554-.803 1.533-.683 1.066-.956 1.217-4.01 5.663-3.198 4.486-.49.806-.353.869-.281.885-.603 3.088-.266.884-.329.695-.522.75-1.776 1.715-.474.585-.41.742-.265.727-.24 1.524-.178.782-.65 1.603-.466.727-.707.813-.443.293-.642.229-.627.087-.627-.056-.522-.173-2.202-2.102-.474-.307-.61-.159-.434-.055-.474.087-.45.206-.9.995-.177.402-.008.49.136.395.852 1.556.555.995.771 1.706.273.814.145.742-.024.75-.233.72-.483.94-1.703 2.235-.74.727-.972.805-2.603 1.469-1.912 1.059-4.484 1.816-1.969.956-1.14.426-1.037.293-3.053.544-.852.143-.876.221-3.07 1.043-.987.213-4.122.687-4.838.806-2.804.386-1.004.119-.788.205-1.462.546-.836.22-1.012.167-1.181.174-4.347.923-.828.261-.964.387-2.555 1.374-1.045.537-.924.356-2.379.726-.931.308-.9.348-4.733 2.165-8.164 3.783-5.158 2.2-.442.07-.326-.031-.417-.11-4.544-1.687M416.576 409.297l-.494.055M417.09 412.809l-.098-.61-.038-.24-.225-1.549-.153-1.113M444.773 409.298l-3.453.498M444.773 409.298l-.076 6.541M416.082 409.352l.186 1.05.416 2.501M441.32 409.796l-3.244.412M441.32 409.796l.02 6.496M438.076 410.208l-3.415.414M438.076 410.208l-.06 6.532M434.661 410.622l.113 6.554M431.516 411.024l1.572-.2.405-.052 1.168-.15M431.516 411.024l-.08 6.602M428.18 411.502l.613-.068 2.723-.41M428.18 411.502l-3.696.41M428.18 411.502l-.015 6.565M424.484 411.912l-3.48.387M424.484 411.912l-.238 6.753M421.004 412.299l-3.914.51M421.004 412.299l-.682 6.964M417.09 412.809l-.406.094M418.955 419.465l-.201-.7-.201-.7-.982-3.482-.308-1.04-.173-.734M444.697 415.84l.062 4.023M444.697 415.84l-3.357.452M441.34 416.292l.067 4M441.34 416.292l-3.324.448M438.016 416.74l.066 3.98M438.016 416.74l-3.242.436M434.774 417.176l-.048 3.973M434.774 417.176l-3.337.45M431.437 417.626l-.049 4.058M431.437 417.626l-3.272.44M428.165 418.067l-.178 4.184M428.165 418.067l-3.92.598M424.246 418.665l.03 4.656M424.246 418.665l-3.924.598M420.322 419.263l-.32 3.771M420.322 419.263l-1.367.202M418.955 419.465l-.459.052M418.955 419.465l.048.953M418.496 419.517l-4.106.652M418.496 419.517l.507.9M416.684 412.903l.182.663.288 1.087.085.316.952 3.514.305 1.034M444.76 419.863l-3.353.43M441.451 422.947l2.702-1.02.3-.135.093-.094.065-.139.076-.474.072-1.222M414.39 420.17l1.802 5.371M393.716 415.987l.763.158.66.253.936.49 1.116.587 2.133.83.683.252.342.087.8.163 1.088.193 1.543.185 1.1.166 2.496.6 1.824.34 1.498.238.864.11.37-.012.57-.047 1.888-.41M441.407 420.293l.044 2.654M441.407 420.293l-3.325.426M438.082 420.72l-3.356.43M438.082 420.72l.058 3.468M434.726 421.15l-.05 4.18M434.726 421.15l-3.338.534M431.388 421.684l-.004 4.705M431.388 421.684l-3.401.567M419.003 420.418l.998 2.616M427.987 422.25l-3.711 1.07M428.13 427.455l-.064-.9-.024-1.754-.055-2.55M420.001 423.034l.402 1.402M441.451 422.947l-.16.06M424.276 423.32l-3.873 1.116M424.276 423.32l.188 5.35M438.14 424.188l3.151-1.18M434.677 425.33l2.043-.647 1.42-.495" clip-path="url(#pbe504bdd01)" style="fill:none;stroke:#000"/><path d="m440.389 431.828-.025-.098-.076-.302-.78-2.401-.393-.94-.58-1.003-.264-.75-.153-.608.022-1.538M420.403 424.436l1.698 5.138M420.403 424.436l-4.211 1.105M434.677 425.33l-3.293 1.059M436.186 433.258l-.422-1.96-.29-1.55-.797-4.417M422.1 429.574l-3.555 1.165-.42.109-.159.017-.052-.031-.024-.047-.877-2.768-.348-1.101-.473-1.377M431.384 426.389l-3.253 1.066M432.151 434.553l.471-1.814.128-.806-.023-.49-.507-1.934-.659-2.172-.177-.948M428.13 427.455l-3.666 1.214M428.13 427.455l.161 2.07M424.464 428.67l-2.363.904M426.636 443.41l-.419-1.306-4.116-12.53M430.943 438.86l.186.02M426.636 443.41l1.776-1.675 1.157-1.193.424-.518.95-1.164M432.151 434.553l-.983 3.786-.225.521M441.308 439.95l-2.438-.256M440.389 431.828l.26 1.03.21.916.377 1.69.289 1.137.04.6-.048.412-.089 1.24-.12 1.097M444.337 444.318l-.812.043-.586-.027-.655-.119-.45-.107-.168-.094-.069-.091-.072-.284-.08-.877-.113-1.62-.024-1.192M426.636 443.41l1.873 5.79M421.958 450.741l.74-1.329.595-1.066.892-1.595.804-1.335 1.647-2.006M437.886 476.931l-.523-1.498-2.592-7.365-3.29-9.66M428.509 449.2l.65 1.974 2.322 7.234M415.908 464.97l5.73 1.115.663.071h.322l.224-.063.664-.703 3.953-3.54 1.952-1.838 2.065-1.604M440.868 485.46l1.09 3.056M441.959 488.516l8.642-2.883.104-.051.028-.123-.855-2.61-.101-.162-.097-.036-.112-.003-8.7 2.811M440.868 485.46l-2.45-7.006M452.899 521.605l1.9 5.754.996 3.26.96 3.295.754 2.663 1.09 3.844 1.118 4.012.98 3.349 2.547 9.335 2.732 9.698 1.029 3.83 1.47 5.268 1.286 4.597 1.614 5.757.603 2.353 1.446 5.11 1.616 4.96 1.526 4.17 1.16 2.919 2.593 6.053 1.374 3.245 1.122 3.139 2.895 8.123" clip-path="url(#pbe504bdd01)" style="fill:none;stroke:#000"/><path d="m520.125 630.138-1.117-.095-.643-.166-3.053-1.548-2.057-1.098-.547-.284-.458-.142-.7-.087-1.992-.095-1.76-.189-1.51-.308-1.615-.45-.94-.237-.474-.048-.507.032-1.204.213-1.873.482-1.599.418-.586.135-1.157.087-3.665-.127-6.958-.292M451.176 516.378l-2.786-8.496-2.592-8.037-2.003-5.93-1.836-5.4M455.76 242.092l-2.022 9.752M455.76 242.092l.887-3.89M422.84 216.875l7.846 5.656 5.785 3.98 1.43 1.138 2.161 1.873 4.163 3.499 2.04 1.493 2.628 1.832 1.35 1.066 5.518 4.68M333.293 311.723l-3.05-7.259-3.01-11.738-4.926-11.322-4.776-4.764-3.908-5.187-8.312-4.479-9.27-6.697-10.627-5.248L262.156 233l-15.209-8.763-12.81-4.524-19.146-6.109-17.909-6.283-7.094-.138-6.672-1.174-6.835-2.503-3.278-2.468-8.217-1.105-4.425.483-11.659 5.455-4.918 2.727-6.244 2.191-7.897 3.875-16.338 2.876-6.883 3.452-5.408.843M554.29 571.87l1.993.726 2.933 1.114 1.341.537.523.308.337.355.088.269.62 1.714.16.276.185.142.506.237.393.103.989.087.771-.048 1.342-.26.836.024.82.181.787.182.177.118.176.348.41.963.233.45.273.277.667.418 1.383.632 2.811.964 2.845.536 3.367.506 3.375.293.754.142.668.315 1.261.577.474.387 1.093.963.434.277.317.233.25.375.18.442.048.805.17.506.232.49.442.679.37.648.152.718.064.98-.176.75-.33 1.61-.048 1.288v1.185l.29 1.911-.017 1.46-.144 3.081-.209 1.343-.12 1.113-.009.995.12 1.422.033.71-.056.688-.177.497-.113.735v.394l.04.3.153.238.378.229 1.23.623 1.623.664 1.59.435 1.712.22.723.277.932.56.546.245.828.198 1.005.071 1.791.07 2.065.143 1.197.166.828.087.884.04 2.692.141 1.912.096.362.055.377.181.683.561.852.718.957.893.45.869.36.766.21.26.426.143.795-.048 1.213.127 1.037.102 1.125-.047 2.258-.126 2.427-.23" clip-path="url(#pbe504bdd01)" style="fill:none;stroke:#000"/><path d="m520.125 630.138.837-.89 2.216-1.651.878-1.22.544-1.096.394-.585.723-.529 1.486-.94.82-.774.49-.9.306-.734.193-1.122.072-1.105-.177-2.006-.305-2.583-.009-.83.065-.742.192-.71.346-.932.281-.482.723-.734 1.214-1.177 1.173-1.58 1.181-1.674.723-1.484.62-1.162.923-1.658.305-.892.073-.893-.113-.497-.506-1.122-.402-.987-.104-.6.008-.38.177-.639.86-1.76.594-1.043.273-.522.209-.663.16-.79.49-1.026.748-.933 1.358-1.121 1.414-.774 2.475-1.35 2.515-1.564 1.302-1.169 1.221-1.367 1.31-1.279.892-.876.337-.459.426-.821 1.302-3.143.932-2.298M636.786 389.52l-1.213 5.52-2.378 8.302-1.157 5.118-2.33 6.113-1.688 4.36-.771 1.216-1.029.656-3.222 1.73-3.053 1.287-1.551.53-1.382.212-.964.498-4.79 2.93-1.196 1.074-3.142 4.384-.78 1.58-.876 2.953-.136.775-.128 2.385-1.487 7.282-1.51 6.05-1.294 3.957-.667 1.698-.715 1.122-.756.892-5.126 3.594-2.58 2.172-3.157 3.633-.844 1.232-.77 1.77-.218.836-1.005 5.86-.714 2.299-1.511 3.704-.651 1.8-.98 2.923-.459.758-.521.617-1.174 1.026-3.262 2.038-.836 1.643-.65 1.342-4.677 8.64-.193.506-1.116 5.726-1.198 4.4-.875 2.487-1.375 5.955.41 2.512-.073.869-.49 2.756-.232.663-2.114 4.067-.458 1.311-1.872 6.943-.048 3.025-.763 5.71-.08 1.697-.13.506-.787 1.611-.305.885-.032 1.8-.515 2.022-.273.711-.305 1.556-.378 2.472-.305.624-1.639 3.025M421.958 450.741l-.263.543-.636 1.651-.522 1.65-.321 1.28-.2.972-.178 1.327-.2 1.097-.41 1.209-.442.987-.603.947-.756.996-1.06 1.217-.459.353M400.509 467.471l.873-.983 1.743-2.385.338-.213.28-.064.266.08.434.284 1.864 1.216 1.599.758 1.84.735 1.51.418.812.11h.266l.297-.078.578-.379 2.041-1.493.074-.057.584-.45M428.509 449.2l-6.55 1.541M400.509 467.471l-.445.502-.964 1.722-.788 1.09-.595.6-1.847 1.738-2.588 2.448-2.362 1.88-.884.584-.82.284-4.31 1.207M438.87 439.694l-.061 4.032M434.762 439.262l2.054.216 2.054.216M434.762 439.262l-.26 3.342-.08 3.317M434.762 439.262l-3.633-.382M438.418 478.454l-.532-1.523M424.828 482.68l2.7-1.391 1.012-.442 1.463-.616 1.285-.442 2.057-.474 1.655-.316 3.418-.545M437.886 476.931l9.328-2.276 1.952-.474M436.186 433.258l4.203-1.43M432.151 434.553l2.637-.796 1.398-.499M440.389 431.828l2.759-.921.205-.091.2-.198.021-.181-.073-.53-1.245-3.068-.498-1.406-.337-1.398-.13-1.028M432.151 434.553l-5.057.974M482.392 116l.538-4.227.574-5.874M457.515 287.445l-1.191-.439M458.35 280.739l.265 1.113.049.522-.032.45-.057.45-1.06 4.17M456.324 287.006l-.22.836M455.054 286.499l.599.236.67.271M455.054 286.499l-7.31-2.766M477.313 213.802l-1.494.553-.273.067-.277.04" clip-path="url(#pbe504bdd01)" style="fill:none;stroke:#000"/><path d="m474.557 200.03 1.053 1.457.233.419.112.363-.008.45-.77 5.27-.37 1.84-.519 1.966-.044.28.004.246.084.312.937 1.829M469.68 237.097l2.097-.107.587-.016.498.028 2.186.245.176-.016.149-.055.1-.123.06-.173.386-3.33.077-.17.12-.119.157-.067.763-.229.306-.13.257-.15.86-.628.602-.395.43-.23.41-.185.433-.248 1.138-.909 1.29-.739.943-.406.085-.103.032-.118-.008-.127-4.79-6.667-.385-.647-.378-.814-.747-1.73-.627-1.303-1.618-2.974M469.68 237.097l-1.896-1.438-.543-.462-.245-.249-.212-.24-.611-.882-.145-.138-.16-.102-.21-.067-3.481-.96M466.539 210.765l.747-6.308M449.014 276.757l-1.27 6.976M449.014 276.757l1.7-9.143M457.075 275.04l-3.208.738-4.853.98M475.282 125.504l-.343.848-.07.051-.083.028-.1-.004-3.174-1.47M468.916 175.846l.41-2.188 1.061-5.253M492.886 150.355l-5.882 3.317-.611.403-.699.577-1.728 1.817-1.47 1.335-2.073 2.125-.619.695-.554.719-1.398 2.488-.346.56-.482.554-2.153 2.086-.434.228-.506.19-3.544.956M468.916 175.846l-2.144 10.775M466.772 186.62l2.213-.24.64-.107 2.803-.66.14-.079.1-.118.066-.15.134-.896.052-.088.09-.069.113-.029.165-.012 2.728.343.22.067.182.1.124.122.668.875.07.026.08-.011.057-.033.04-.046.62-2.107.393-1.457.093-.387.044-.324.137-1.347.08-.648.334-1.267.02-.296-.032-.194-.149-.217-.494-.372-.723-.41-.57-.249-.447-.17-1.362-.355-.45-.072-.386-.015-1.028.007-4.62.11M466.297 189.093l-1.326 6.68M466.297 189.093l.475-2.472M472.91 196.957l-.566-1.77-.117-.256-.16-.198-.218-.19-2.507-2.33-2.097-2.172-.948-.948M463.55 202.862l3.736 1.595M469.68 237.097l-3.744 1.449-.599.193-.638.183-1.343.35-.397.068-.467.036h-1.594l-.318-.032-.317-.04-.317-.067-3.299-1.034M453.738 251.844l-.297 1.549M453.738 251.844l-11.33-3.388M450.713 267.614l2.728-14.221M457.075 275.04l.165-.093.082-.097.052-.117.032-.136.796-6.812.008-.186-.048-.146-.093-.075-.16-.032-2.387.13-4.809.138M440.055 322.243l-3.375 18.195M421.22 314.672l2.708 2.496.61.482.62.466 1.667.98.217.063.221-.008.196-.067.161-.111.928-.77.254-.091.28-.032.306.028 5.878 1.896.29.17.172.193.373.774.161.214.221.122.314.103 3.258.663M436.68 340.438l-.338 1.809M436.342 342.247l-4.724-1.24M553.703 151.263l-1.686-1.51M553.703 151.263l2.186-1.667M477.788 118.709l5.584 3.981 2.295 1.373 1.048.626M485.156 132.296l.217-2.59.337-3.038.024-.292.065-.221.08-.226.836-1.24M630.885 386.254l1.619 1.275.634.355 1.399.624.594.221 1.33.285.157.06.1.106.052.146.016.193M482.392 116l2.434.426.66.103.698.07 2.258-.039M476.841 114.85l2.037.422 3.514.727M567.532 124.073l2.66-2.18.819-.68.675-.663 1.615-1.81.338-.387.329-.481.313-.561.362-.656.337-.505 1.43-1.272 2.355-1.92.257-.387.129-.427.024-.418-.073-.49-.04-.3.048-.411.313-1.098.226-.648.554-1.067 1.479-2.717M567.532 124.073l-2.652 2.062-.642.584-1.568 1.738-.458.577-.393.624-1.02 2.046-1.009 1.88-.305.494-1.02 1.268-.09.189-.02.202.049.26 1.462 3.136.884 2.019.515 1.097 1.454 2.513M575.19 137.265l-1.278.316-3.89.806-.948.316-.57.331-.595.435-.819.782-1.398 1.77-.523.64-.578.537-1.872 1.564M555.89 149.596l4.683-3.049.884-.672 1.262-1.113M575.19 137.265l-1.527-4.977-.145-.284-.225-.181-.306-.12-2.155-.331-.122-.05-.093-.066-.054-.113-.02-.123.21-1.295-.003-.26-.052-.293-.635-1.442-.193-.371-.185-.3-2.153-2.986" clip-path="url(#pbe504bdd01)" style="fill:none;stroke:#000"/><path d="m633.48 108.36-2.608-1.228-.417-.237-.306-.225-.55-.628-.25-.24-.682-.42-.382-.161-.345-.06-.45-.024-5.3.325-.192.027-.157.087-.124.126-.068.194-.266 1.967-.089.328-.156.351-.213.332-1.205 1.248-2.997 3.381-.442.45-1.945 1.557-3.133 2.56-.643.64-1.495 1.69-1.623 1.69-.538.506-.908.79-.514.394-1.985 2.046-3.31 3.263-3.126 3.247-1.157 1.208-2.009 2.078-.515.316-.457.197-.498.135-3.4.821-3.82.976-.293.02-.23-.008-.212-.036-.217-.075-.691-.47-.293-.146-.328-.107-4.927-.604-.398-.031-.354.011-.386.067-1.687.577M555.89 149.596l-3.873.158M467.286 204.457l.952.257.197-.004.165-.08.156-.176.743-.861.406-.34 4.652-3.224M472.91 196.957l.575 1.197 1.072 1.875M464.97 195.773l2.71.493 5.23.691M453.441 253.393l1.459.11.426.008 2.137-.043.313-.005.346.052.325.114 2.583 1.284.623.245.635.197 2.029.7.598.233.358.15.357.106.98.198M476.595 120.49l1.193-1.781M475.282 125.504l1.288-3.904.056-.28.028-.324-.06-.506M485.156 132.296l-3.19-2.71-1.627-1.29-.37-.293-.454-.292-.53-.289-3.703-1.918M485.156 132.296l.016.395.048.332.723 2.97.072.502.101 1.17.056.354.097.332 1.522 3.203.137.238.072.236.02.218-.064.821M492.886 150.355l-5.037-4.12-.092-.122-.048-.111-.014-.158.261-2.777" clip-path="url(#pbe504bdd01)" style="fill:none;stroke:#000"/><path d="m511.388 142.135-3.621-1.615-12.455 2.796-2.668-1.39-3.503-.253-1.185 1.394M492.886 150.355l2.916-.221 1.21-.104.445-.07.378-.084 3.48-1.14 1.599-.45 2.603-.617.562-.08h.555l3.133.25.137-.01.104-.044.067-.083.044-.099.548-2.39.619-2.947.044-.091.058-.04M507.204 490.198l.226.555M451.176 516.378l.442 1.347 1.281 3.88" clip-path="url(#pbe504bdd01)" style="fill:none;stroke:#000"/><path d="m507.43 490.753.803 1.972.311 1.784-.228 3.056-.65 2.452-2.68 2.565-.475 1.627-1.196.869-4.725.126-14.913 3.242-2.893.58-2.988 4.518-.965.727-.845.464-1.051-.243-3.021-.916h-1.003l-.797.506-1.873 3.475-2.183 1.958-13.159 2.09M333.293 311.723l-5.818-1.83-4.05.285-6.685-2.75-7.007-.82M431.129 438.88l.075 5.23M464.193 105.463l.697.454 5.49 2.816M342.078 447.563l10.002-4.145 4.397.759 5.991 1.718 6.634 1.997 5.682 1.693 3.446 2.932 1.877 1.314 6.66 4.17 6.453 3.413 2.751 1.44 1.954 2.578 2.584 2.04M451.176 516.378l5.551-1.498M510.403 468.84l1.73 5.403-.508 6.903-2.103 3.435-2.092 6.172" clip-path="url(#pbe504bdd01)" style="fill:none;stroke:#000"/></g><g id="PatchCollection_1"><path d="m435.045 420.776 2.823-.423-.12-3.217-2.79.356zM426.214 378.722l1.912.508 1.842-7.143-1.79-.339zM411.096 376.715l1.035.599 1.242-2.908-1.4-.168-.925 1.927zM461.899 219.259l-.162.887 3.009.589.33-.891z" clip-path="url(#pbe504bdd01)" style="fill:green;fill-opacity:.8"/></g><g id="PatchCollection_2"><path d="m453.572 226.283.52-3.331-5.21-.785-.52 3.33zM454.091 225.186l1.223.241-.352 1.488-1.07-.075zM468.101 93.505l3.338.85-1.307 4.363-3.268-1.056z" clip-path="url(#pbe504bdd01)" style="fill:#90ee90;fill-opacity:.8"/></g><g id="PatchCollection_3"><path d="m78.932 455.288-1.093-2.717 2.122-11.373 1.543-10.678 1.35-5.371.835-11.69 4.885-8.404 1.736-5.94 4.178-4.865 5.143-1.2 11.377 3.286 8.55 2.338 12.47 8.15-9.674 6.951-5.721-.063-8.164.442-4.339 15.228-1.028 6.382-5.142 15.102-1.736 4.612-12.985 2.022zM450.54 247.966l9.642-1.896 9.128-5.688 4.243-13.144.257-10.237 6.686-11.375.77-6.572-1.8-10.364.9-12.007-2.828-5.435-4.242-.252-10.285-.759-2.186 9.227-4.5 8.215-2.956 3.539-4.757 13.524-2.7 5.56-1.543 9.985-2.957 5.056-4.756 10.869 3.085 7.204 7.714 3.16zM464.682 542.04l-7.2-29.949-6.428-20.724 4.243-6.066-4.885-18.955-7.457-8.846-.771-9.351 9-3.539 1.542-4.17-4.114-13.27 2.7-13.774-1.158-10.11-6.685-4.17-6.042-2.78.129-4.803 2.956-13.269.386-22.748 2.443-12.006.386-5.56 3.985-8.468 1.671-19.968 10.542-17.062 1.543-2.653.9-12.007-1.928-11.5-2.315-16.557-11.441 4.676.128 9.606-4.5 16.556-4.628 15.797-4.628 18.326-4.757 13.902-3.6 8.34-6.17 10.996-4.243 7.708-5.528 5.56-11.443-.251-12.341-.885 3.342 16.302-1.157 8.088-.771 4.17 5.657 3.54 3.214 9.477 2.956 10.616 6.686 12.385 9.128 9.604 1.157 15.164.257 9.604 5.27 19.082 2.186 12.384 10.028 15.417 8.357 9.477 3.6 12.258 7.07 15.164 2.7 6.95 11.57-3.16z" clip-path="url(#pbe504bdd01)" style="fill:#d3d3d3;fill-opacity:.8"/></g><g id="PatchCollection_4"><path d="m422.865 419.9.985-.114.174 1.247-.985.12zM421.41 420.05l1.113-.148.051.375.261-.035.09.649-.211.028.035.254-1.162.156z" clip-path="url(#pbe504bdd01)" style="fill:#a9a9a9;fill-opacity:.8"/></g></g></g><defs><clipPath id="pbe504bdd01"><path d="M90.502 86.4h556.996v554.4H90.502z"/></clipPath></defs></svg>