<svg xmlns="http://www.w3.org/2000/svg" width="960" height="960" viewBox="0 0 720 720"><defs><style>*{stroke-linejoin:round;stroke-linecap:butt}</style></defs><g id="figure_1"><path id="patch_1" d="M0 720h720V0H0z" style="fill:#fff"/><g id="axes_1"><path id="patch_2" d="M90 633.596h558V93.604H90z" style="fill:#fff"/><g id="LineCollection_1"><path d="m330.722 434.808 2.545.717M330.722 434.808l.433-.397.256-.494.166-.608M319.203 454.324l1.606-2.44 3.996-7.585 2.149-2.965 2.148-3.305 1.224-2.372.396-.849M328.03 433.93l1.375.506.523.17.794.202M330.977 433.192l-.194.63-.061.986M635.937 516.36l-4.286.88M633.014 531.042l1.97-11.669.953-3.012M592.848 448.8l-1.137-.235-1.218-.07-1.14.117-1.07.257-.869.342-1.21.76-.904.8-.6.748-.263.385-.713 1.11-5.954 10.616-1.548 2.131M573.598 468.553l1.059-1.035 1.565-1.757M574.546 446.665l.075.753.15 2.91.04 3.466.16 2.332.245 2.128.635 3.013.04 3.974.331.52M310.546 416.953l.355.742 1.382 2.698 1.569 2.6 1.793 2.3 2.206 2.395 2.825 2.3 3.566 2.19 2.213 1.04 1.576.713" clip-path="url(#pf5656d8f7d)" style="fill:none;stroke:#000"/><path d="m330.977 433.192-.574.498-.494.27-.405.085-.479.029-.994-.143M333.267 435.525l-.777-.42-.394-.406-.519-1.39M356.948 441.306l-1.012-.25-18.239-4.436-4.177-1.031-.253-.064M331.577 433.309l.123-1.372M331.577 433.309l-.293-.149-.307.032M331.7 431.937l-.723 1.255M341.165 386.847l.576 7.495-.16 1.251-3.311 9.072-1.72 7.058-2.357 10.911-1.964 7.883-.529 1.42M351.285 361.07l1.533-2.487.248-.357M345.793 372.544l3.76-8.563 1.732-2.911M351.285 361.07l.728-3.042M353.066 358.226l1.573-4.268M353.066 358.226l-1.053-.198M353.066 358.226l3.66 1.228M354.64 353.958l.017-1.003-.262-.565-.539-.62M353.38 353.727l.776-.171.483.402M353.856 351.77l-.477 1.957M353.856 351.77l-.157-1.697M353.38 353.727l-1.367 4.301M345.31 360.01l.767.251 1.194-.035 1.494-.351 2.124-1.321 1.124-.526M345.31 360.01l-.236-.585-.657-.97-2.032-1.411-6.795-2.436M552.395 465.179l-.227-.36.06-5.195.013-5.637M544.88 452.986l.718.268 1.234.262 5.409.47" clip-path="url(#pf5656d8f7d)" style="fill:none;stroke:#000"/><path d="m559.885 450.497-3.067 1.955-1.912.959-1.25.47-1.415.106M557.432 466.858l4.302 2.007M556.43 469.162l.156-.326.846-1.978M552.395 465.179l.448.21 2.885.736 1.704.733M559.885 450.497l-.027.864-.156 1.319-.634 2.46-.206 1.15-.65 6.815-.78 3.753M566.955 471.439l-1.494 2.323M566.955 471.439l-5.221-2.574M566.955 471.439l.894-1.595M569.137 472.577l-2.038-1.053-.144-.085M569.137 472.577l4.461-4.024M569.137 472.577l-5.528 4.997M565.461 473.762l-4.784-2.394M563.609 477.574l.149-.737.801-1.553.902-1.522M563.609 477.574l-4.906 4.414M317.102 508.896l-.332-4.773-.086-5.592-.472-2.839-2.407-8.389-.816-3.643-.22-2.791M319.203 454.324l-2.863 3.915-.831 1.84-.114 1.592.688 3.22.214 2.542-.172 2.627-.6 2.414-.903 1.484-1.547 1.948-.43 1.653.123 3.31M295.409 485.605l3.192-1.154 1.915-.185 12.252-3.397M305.183 577.282l-.206 3.583.142 5.32-.761 11.165v2.261l.08.641.19.61 1.73 3.42 2.816 6.43M257.945 606.472l-.008-1.674.174-.72.484-.383.334-.047 3.88.008 7.134.767 7.768 1.314 21.79 4.74 2.278.267 1.205.04 6.19-.071M223.668 138.095l-8.578-4.056-4.393-2.26-2.704-1.813-1.764-.741-2.63-.777-17.873-8.592-1.351-1.148-3.605-3.481-1.427-.518h-1.202l-2.741.74M150.588 113.46l3.822.175 5.52.703 1.239.037 2.328-.555 1.877-.222 1.99.481 3.08.926 2.29.556 2.666-.112M202.41 152.28l-1.091-1.269-6.693-4.52-1.837-1.051-2.587-1.253-2.314-1.32-2.314-.873-.567-1.141.181-3.11-.522-1.298-.884-3.154.521-2.618.34-2.35-.476-3.467-3.312-3.647-1.86-1.79-1.09-.805-1.202-.672-.862-.984-.635-.94.194-.569M120.598 126.466l48.596 59.107M145.006 115.177l-3.364 1.68-1.464 1.592-1.727 1.222-10.552 3.814-3.454 1.74-3.847 1.241M116.297 164.31l.285-.494.128-1.673-.576-3.631-.577-9.756-.32-2.779.256-1.452 1.345-3.41.32-1.957.32-3.978 1.025-1.326 1.985-.82.704-1.327-.49-2.31-.544-1.428.44-1.503M322.652 142.454l-16.923-8.774-6.94-3.714" clip-path="url(#pf5656d8f7d)" style="fill:none;stroke:#000"/><path d="m229.434 140.705 1.165-.223 6.608-3.999 4.318-.481 10.026-.74 1.427.184 7.36 2.185 2.028.26 2.103.703 1.389.74 3.116.852 2.742.037 1.99-.296 2.065-.926 2.178-.703 5.82-1.444 2.103-.63 5.295-2.63 7.622-3.628M223.668 138.095l5.128 2.425.638.185M279.344 168.334l.93-2.531-47.902-23.541-2.938-1.557M351.99 162.935l.225-2.704.113-4.184M322.652 142.454l4.63 2.52 5.408 3.667 5.37 4.74 2.252 2.592 2.103 1.63 9.575 5.332M306.644 275.175l4.34-9.533 1.362-2.78.824-1.873 2.723-3.31 2.153-2.124 3.136-3.841.918-2.343 7.669-8.2 4.747-4.46 7.076-9.23 10.122-12.19 2.04-2.884.752-3.925 1.277-2.703.375-1.63.188-1.999-.488-1.704-.94-1.184-1.313-1-.676-1.148-1.99-6.073-.489-2.63.113-2.74 1.727-6.332.489-2.666v-1.518l-.301-2.185-.638-6.221.15-3.814M244.955 254.663l-9.35 11.206M193.575 215.12l1.72.913 8.862 5.328 5.848 2.91 6.37 2.47 3.957 2.634 2.741 2.407 2.216 3 2.027 4.518 5.858 4.776 3.154 3.333 4.732 4.48 3.417 2.63.478.144M260.423 262.933l-6.972-4.267-4.393-2.518-1.877-.815-2.226-.67M235.605 265.869l-42.03-50.75M265.198 322.14l-21.002-43.91-3.059-5.134-3.475-4.742-2.057-2.485M296.617 290.485l2.64 3.252M282.604 277.879l4.075 1.954 2.741 2.037 2.741 2.777 4.456 5.838M301.783 284.318l-.742 1.072-4.424 5.095M299.257 293.737l1.128 1.389 1.501 1.441M375.984 243.481l-5.588 3.238-4.494 3.352-.46 1.08-1.268.909-1.21 1.25-.173 2.272-.173 4.83-.46 1.533-2.247 2.954-1.901 1.818-1.038 2.045-5.818 5.625-4.321 4.43-4.782 5.512-2.42 4.033-2.016 3.693-3.283 4.488-2.709 3.238-2.304 2.444-3.053 1.192-3.342.682-1.958 1.306-1.498 1.307-1.325.17-5.358-1.931-1.44-.625-1.095-1.533-1.844-2.273-4.148-2.614-2.372-1.339" clip-path="url(#pf5656d8f7d)" style="fill:none;stroke:#000"/><path d="m351.262 330.604-4.428-6.115-1.953-1.703-1.765-.852-8.673-2.222-8.412-2.591-5.031-2.666-2.967-2.037-1.502-1.592-.939-1.444-1.126-.74-2.403-.408-2.817-1.407-2.365-2.592-3.38-2.963-1.427-1.48-.188-3.225M353.699 350.073l-.894-9.625-.21-3.623-.917-2.894-.416-3.327" clip-path="url(#pf5656d8f7d)" style="fill:none;stroke:#000"/><path d="m381.52 260.037.324.414.157.684.022 1.082-.582 1.038-1.052.95-.761 1.104-5.106 6.094-2.553 2.385-1.276 2.319-.538 1.546-1.545 2.694-.918 3.113-.985 6.559-1.299 6.249-.806 7.442-1.545 3.643-2.463 3.18-3.293 4.946-1.769 4.217-1.043 2.533-.658 1.597-1.277 4.377-1.068 1.787-.224.614M366.822 356.954l-1.227.013M362.594 356.996l-2.028 2.926M362.594 356.996l3.001-.03M356.726 359.454l2.323-2.462 3.545.004M356.726 359.454l2.827.949" clip-path="url(#pf5656d8f7d)" style="fill:none;stroke:#000"/><path d="m359.805 359.78-1.056-.197-2.023-.129M359.805 359.78l-.252.623M359.805 359.78l.761.142M360.566 359.922l2.689 1.883M362.066 363.39l-2.122-1.11-.369-.364-.022-1.513M462.754 350.854l-2.979 1.014-4.32 1.01-4.718 1.288-2.82.642-1.294.197-3.198.27-1.946-.015-6.78-1.834-1.895-.82-1.181-.388-1.381-.721-1.936-1.6-2.67-1.836-.536-.588-.854-1.728-.413-.532-.492-.41-1.337-.791-.382-.093-4.828-.06-.519.082-1.889.63-.789.176-1.473.236-2.137.09-.615-.377-2.044-2.34-1.063-1.048-1.274-1.123-.32-.127-.265.003-.39.23-1.552 1.886-.98 1.625-2.135 2.828-.654 1.22-2.597 1.72-.717.71-.487.753-.403.763-.385 1.066-1.178 1.484-1.141 2.314-.139.49-.178 1.731-.326 1.94-.777 1.255-1.052 1.328-.301 1.18-.822 2.407-.483 1.02-.774.993-.623.29-3.099.556-1.317.81-.568.172-3.096.702-1.256.205-1.262.098-.605-.04-.466-.144-1.724-.86-2.709-2.277-3.162-3.675-1.094-.875-2.699-2.16M365.595 356.967l.05 1.056-2.39 3.782M336.507 368.963l9.286 3.581M345.31 360.01l-7.193 5.59-1.61 3.363M323.872 386.123l.013-.455-.253-3.43.147-.673.454-.638 1.123-1.19 2.008-1.743 1.964-1.633.675-.176 2.68-.078.59-.177.298-.266.633-1.194 1.385-3.589.918-1.918M341.165 386.847l-.06-.768.287-2.645.491-1.862 3.91-9.028M323.872 386.123l-.09.396-.197.297-.94.444M314.996 387.964l2.393-.37 5.257-.334M320.756 422.939l1.498-9.164.889-6.485.254-4.357-.483-8.237-.268-7.436M252.234 420.39l.736.069 4.957-1 1.54.11 12.166 2.815 1.352-.074 2.327-1.37 1.127-.962 3.793-6.814 2.215-5.109 5.37-6.11 3.755-1.888 5.557-3.48 2.686-2.06M308.124 389.195l-1.662.62-6.647 4.703M307.553 410.695l-6.286-13.14-.191-.402-1.26-2.635" clip-path="url(#pf5656d8f7d)" style="fill:none;stroke:#000"/><path d="m294.845 384.125 4.054 8.477.18.374.736 1.542M240.647 498.763l-1.074-2.687-1.39-1.703-1.502-1.259-1.69-2.665-2.14-4.814-.15-1.517 1.765-7.739.901-7.405.525-3.295 1.728-4.628 9.312-17.624 2.066-4.332-.038-1.518-.526-2.666.188-2.148.488-2.332 1.84-5.258 1.284-4.782M250.165 419.64l.864.542 1.205.209M295.409 485.605l-4.28 1.549-3.005 1.184-1.914.223-6.572.333-1.915.63-5.144 2.035-2.29.408-3.68.185-9.65 2.221-2.329-.037-1.802.408-3.718-.111-2.215.592-1.615 1.185-.384.438M240.647 498.763l1.742-.206 1.69-.777.817-.932" clip-path="url(#pf5656d8f7d)" style="fill:none;stroke:#000"/><path d="m246.714 502.193-.338-1.555-1.48-3.79M124.227 499.748l24.741-5.723 2.216-.26 2.74.593 1.804.518 16.596 1.888 2.404-.221 4.205-.963 9.726-2.48 3.38-.667h.9l1.39.71 1.94 1.493 3.663 3.22 1.301.68M242.238 502.741l-3.598.86-2.438.354-.767-.085-3.406-1.636-10.323-3.114-7.135-1.592-1.877-.111-5.3.858-3.744.314-2.417-.053" clip-path="url(#pf5656d8f7d)" style="fill:none;stroke:#000"/><path d="m189.662 513.843 3.46-4.131 1.523-2.723.572-1.22 2.38-3.726 2.92-2.347.716-1.16M240.647 498.763l1.591 3.978M246.714 502.193l-4.476.548M269.229 548.88l-.77-1.713-.85-2.425-.88-4.444-.603-2.425-.524-1.377-2.216-4.424-2.704-5.036-7.06-11.551-4.918-9.923-1.99-3.369M116.297 164.31l-13.228-8.778M169.194 185.573l-1.324.055-2.372-.344-4.333.383-6.642 3.92-.484.071-.508-.235-6.141-4.343-18.402-12.207-9.57-6.51-3.121-2.052M169.194 185.573l9.62 11.434 14.76 18.113M113.589 371.934l-7.215-2.64-4.031-2.455M113.589 371.934l2.81 4.434M119.357 326.968l-.67 4.657.202 2.059 1.646 5.9-.2 1.544-1.245 3.287-3.413 7.325-.683 1.188-3.253 4.276-.723 1.386-.361 1.465-.522 3.089-.16 2.89 2.007 3.802 1.607 2.098M250.165 419.64l-4.059-2.539-4.543-4.295-3.493-3.813-2.403-2.265-2.215-1.66-2.028-2.74-2.44-2.48-2.248-1.538-2.338-3.386-.645-.362-2.162-.758-2.952-1.699-4.84-2.065-11.014-.704-10.919-.908-4.698-.187-12.14 2.738-8 .203-2.588-.104-2.726-.728-4.202-1.512-2.272-.56-2.442-.336-2.953-.616-2.782-1.456-3.237-2.072-2.215-.112-2.158.168-2.214-.448-2.726-.895-5.452-1.065-3.805-1.567-2.442-1.568-6.415-1.943M124.227 499.748l-.1-8.087-.561-2.613-1.928-3.167-1.044-1.425-.562-10.216.723-2.771.16-2.336-.522-3.841.223-13.535-.442-3.722-.482-5.583.2-3.326.121-4.276 1.124-3.761-.682-15.244.442-8.513.04-3.168-2.329-4.751-.402-1.03v-1.94l1.526-4.038.643-2.534.16-1.465-.481-2.06-3.213-7.72-.442-2.258M519.513 110.813l-3.025 3.213-.825.516-5.174 2.207-2.888 3.215-2.604 1.35-2.282.442-3.014.241-2.445.04-3.218-.924-1.955.12-4.726 1.286-2.362.803-3.87 8.88-1.874 5.101-.937 4.7-.367 1.246-.57.522-.652 1.085-1.019 6.548-.407 1.929-1.14 2.13-3.952 8.596.041 1.125-.53 1.085-1.385.683M375.984 243.481l2.742-2.338 3.822-2.853 1.01-.866 1.544-1.757 1.175-2.088.344-.31.592-.268 5.804-1.06 2.448-.327.543-.162 1.16-.602.86-.781 1.263-1.369.677-.948.606-1.041.382-1.157.127-.727v-1.018l-.292-1.9-.125-1.567.028-2.613.144-1.545.233-.87.839-2.319.522-1.288.432-.822.846-1.201 3.171-3.738 7.41-4.843 1.088-1.075 3.46-4.062.765-.73.667-.32 21.476-6.838.496-.239.742-.536 1.662-1.779 1.968-1.914 2.4-1.81.433-.42 1.416-1.66 2.928-3.133 1.389-2.031 1.257-2.06.733-.523.978-.16 2.892-1.044 2.404-1.045 4.888-2.772" clip-path="url(#pf5656d8f7d)" style="fill:none;stroke:#000"/><path d="m511.663 185.36-3.333-.25-.73-.501-.476-.032-.317.126-.223.438-.635 2.285-.73 1.94-.825 3.068-.571.908-.92 1.002-.794.532-2.413 1.064-1.492.376-.984-.157-1.333-.595-1.523-.187-3.175-.97-1.491-.815-1.524-.563-2.222-1.064-2.445-1.346-1.555-.532-1.492-.094-5.11-2.88-1.365-1.847-.413-1.252-.064-2.254-.38-2.692v-1.095l.38-2.974v-.939l-.126-.626-4.063-5.572-.986-.91M381.52 260.037l-.717.21-1.456.088-1.187-.441-.425-1.26-.022-3.09-1.232-10.313-.497-1.75M322.652 142.454l5.634-10.54 3.34 1.928.449.08 2.892-5.423.57-.04 22.691 10.566 1.018-2.813.326-.321 12.751 2.893 13.891.964 4.644-2.612 2.974-.723 2.852-.401 2.526-.161 3.95 1.084M145.006 115.177l2.72-1.357 1.24-.445 1.622.084" clip-path="url(#pf5656d8f7d)" style="fill:none;stroke:#000"/><path d="m202.41 152.28-.43.246-8.01 7.875-1.065 1.253-.227 1.297.022 2.663-.816 1.365-1.452 1.544-1.93 1.52-3.334 2.171-1.338 1.723-1.134 1.118-3.994 1.432-2.427.65-3.79 1.61-1.201-.044-.477-1.03-1.974-.313-2.427-1.253-.94-.955.113-1.007 1.225-2.93-.295-1.186-.522-1.477-1.225-1.655-.454-1.455-.25-2.483-.34-.694-.703-.716-.295-.716.227-1.006-.658-1.432-.907-3.401-2.178-4.788-2.088-2.82-.068-.827-.18-.806.09-1.252-.09-1.343-3.949-10.068-1.111-1.343-.726-1.208-.363-.873-.93-6.443-.545-1.767-2.36-3.133-.317-.76-1.157-1.388-.404-.998M202.41 152.28l1.11.901 5.875 2.573 1.407-.067.998-.716 1.157-.515 2.587-.47 1.316-.581.566-.716.228-3.49.566-2.104 1.838-4.52-.18-.67.158-.582 2.223-1.096 1.361-.895.227-.56-.18-.677M491.925 291.703l.13.363-.324 2.747.087 1.111 1.467 3.346.302.403.81.72.98.613 4.534 2.23 4.392 2.282.457.399.785 1.095 2.048 4.058 2.833 5.25 1.107 2.33 1.285 2.103 1.283 1.837 1.825 2.112 2.26 1.9 2.027 2.112.358 1.515-.02 2.089-.155.528-.478.859-1.528 2.345-.085.742.169.354.478.015 5.02-2.353.717-.405.635-.399 2.924-2.37 3.656-2.53.935-.495.928-.47 1.412-.513 1.254-.308 1.008-.12.2.08.318 4.682-.018 4.106-.611 1.585-1.597 2.321-.13.321.028.237.826 1.764.106.548 1.378 10.207.318 4.23.382 5.97" clip-path="url(#pf5656d8f7d)" style="fill:none;stroke:#000"/><path d="m462.754 350.854 4.058-1.188 2.777-1.18 8.642-.167.66.138 1.01.379 1.934 1.395.853.516.833.16 2.635.214 3.194-.082 2.434.349 1.026.39 1.983 1.331.546.191.718-.068 1.569-.66 1.857-.61 3.864-.787.65-.018 1.547.508 1.28.258 2.448.962 1.014.278.703.352 2.246 1.679.435.124.37-.027.3-.13.468-.418.19-.281.192-.624.187-1.328.89-.472.629-.049.287.076 1.207.857 1.798 1.741 1.585.905 1.148.379 2.474.319.707.195 5.875 2.81.687.437.257.276.342.867.205.974.664.423.944.436.583.158 2.982.407" clip-path="url(#pf5656d8f7d)" style="fill:none;stroke:#000"/><path d="m540.658 387.642-.17-.59.067-1.057.115-.426.612-1.44.887-1.318 1.195-1.358 1.63-1.451.747-.344 1.396-.36.493-.38.472-.868 1.857-4.68.126-.454.02-.555-.333-1.155-1.254-2.182-.725-1.643-.37-.352-.444-.286-1.908-.735-3.394-1.666-3.036-1.093M571.91 415.12l9.36-2.38M540.658 387.642l.537.345 1.307.05.216.104.119.203.484 2.671.26.336.32.15.695-.1 1.044-.359.663-.03 2.747.363 3.963.782 3.52-.015 2.723.174.772-.116 2.535-.925.316.12.375.533.29.663.355 1.473.682.86.726.739 1.038 2.48.496 1.455 2.154 7.743 1.592 5.185.467 1.152.857 1.441M572.947 419.027l-.236-.558-.264-1.905-.536-1.445M581.27 412.74l.052.555.353 2.618-.011.547-.739 3.646-.224 1.741" clip-path="url(#pf5656d8f7d)" style="fill:none;stroke:#000"/><path d="m572.947 419.027.301.309 1.377.594 5.344 1.585.732.332M588.16 425.932l-.105-.62-.12-.234-.644-.51-5.298-2.087-1.292-.634" clip-path="url(#pf5656d8f7d)" style="fill:none;stroke:#000"/><path d="m581.27 412.74 7.007-2.403.766-.383.893-.712.589-.6.19-.067.364.142.305.486.544.618 1.345 1.002 1.763 1.152.045.127-.172.561-1.736 3.285-2.035 4.534-1.564 3.047-1.027 1.69-.387.713M587.218 437.613l-2.387-4.183-.063-.855.188-.705 3.204-5.938M629.98 450.115l-4.72 2.359-.743.456-1.095.975-1.543.959-1.408.68-.985.39-1.194.266-1.147.006-1.13-.207-4.59-1.95-6.482-3.275-1.93-1.3-1.21-1.08-1.078-1.202-2.69-3.816-2.41-2.634-.754-1.207-1.103-2.516-.559-.564-.795-.239-2.572-.181-1.04.528-1.584 1.05" clip-path="url(#pf5656d8f7d)" style="fill:none;stroke:#000"/><path d="m574.546 446.665 1.293-.668 1.734-.657.815-.086 2.28.274 1.604-.472.5-.248 1.284-2.132.178-.434.976-3.623.287-.315.436-.237 1.285-.454" clip-path="url(#pf5656d8f7d)" style="fill:none;stroke:#000"/><path d="m592.848 448.8-.357-.804-1.198-2.969-1.036-3.153-.458-.7-1.345-1.499-1.236-2.062M613.236 459.957l-2.761.971-2.071.331-1.22-.022-1.169-.189-1.024-.265-1.289-.596-.607-.343-.902-.677-1.452-1.549-3.412-5.164-1.273-1.647-1.212-1.041-1.05-.586-.946-.38M633.86 452.267l-11.12 4.153M633.042 447.439l.172 2.388.645 2.44M345.31 360.01l.2-.965 2.564-6.192 1.157-.895 4.468-1.885M559.632 123.38l4.706 3.41 2.273 2.526 1.697 1.39 2.818.915.896 2.115 1.217 1.642 6.21 5.557 3.052 2.025M578.28 153.966l.6-.513.904-1.875.408-1.563.905-1.562 1.178-2.546.226-2.947" clip-path="url(#pf5656d8f7d)" style="fill:none;stroke:#000"/><path d="m614.351 104.225-.451-.236-1.444.094-.842.329-.698.547-.08 1.566-.665 1.721-1.603 1.628-1.365 1.596-1.35 2.066-.174.454.46 1.503-.619.642-.904.172-.889-.313-.777-.58-2.556-2.41-.936-.188-.841.36-.413.862-.063 3.192-1.107 3.271-.09 2.858-2.988 4.242-1.359 1.518-.95 2.009-.317 1.741-1.585 1.027-3.033 3.572-3.396 4.956-.815.536M559.632 123.38l-.944-.984-.928-2.052-.288-1.42.448-1.768 1.12-3.063.097-2.273.416-2.715 4.226-4.326M519.513 110.813l2.982 1.53 1.626.407 1.968-.172 5.444-.869 9.776 8.076 2.413 1.44 2.602.313 5.84-1.252 3.69 1.295 3.778 1.8M482.866 284.994l.009-1.23-.052-2.108.056-.623.127-.52.878-2.12.197-1.01-.028-1.002-.143-.614-.238-.512-4.725-6.969-1.135-1.443-1.594-1.327-.687-.316-2.074-.51-6.963-1.266-1.693-.707-2.43-.597-3.062-1.295-2.731-.696-1.163-.466-.54-.446-2.527-2.902-.662-1.699-.724-2.936-.272-.538-.619-.587-1.357-.524-2.188-.207-1.291-.018-1.489.096-.813.252-.88.612-2.52 2.782-3.826 4.61-1.925 2.03-2.767 3.603-4.066 5.663-1.757 2.026-2.882 2.546-2.73 2.223-2.721 1.8-1.393.754-.572.196-1.127.05-.888-.148-.854-.293-.944-.49-1.313-.954-2.265-1.3-6.217-4.193-3.202-1.776-2.162-1.445-.83-.441-2.621-1.092-.942-.485-.623-.622-.238-.513-1.031-4.385-.449-.783-.702-.556-1.055-.364-.655-.07-2.032.026-3.225.872M462.754 350.854l.33-.43.71-1.341.385-1.32.183-1.666.13-3.97.293-1.027.485-.86.623-.545.762-.263 1.006.005 1.557.238.665-.047 3.251-.929 1.397-.532 1.761-.513.75-.39 1.087-.92 1.861-1.19.742-.801 2.4-3.15.64-1.307.293-1.025.11-1.849-.043-.577-.43-2.11-.915-3.36-.047-.605.115-.416.354-.303.46-.115 1.86.137 2.107-.935 1.288-.084.799-.143 1.087-.61.468-.51.279-.621.118-.728-.004-.764-.52-2.947-.674-1.384-.469-1.447-.321-.676-1.97-3.293-1.242-1.739-.684-2.128-.09-.63.15-2.434-.416-1.093-.552-.972-.1-.439.139-.305.927-1.008.208-.33.307-.685.061-.75-.261-.87-.393-.715-1.508-1.794-.4-.604-.809-2.48-.188-1.561" clip-path="url(#pf5656d8f7d)" style="fill:none;stroke:#000"/><path d="m491.925 291.703-.586-.454-1.708-.646-.666-.2-2.25-.375-.82-.277-.782-.439-.535-.657-1.084-2.594-.628-1.067M341.165 386.847l-2.151-.116-7.316-.063-7.826-.545M310.975 409.94l-.208-5.045-.043-4.209-.126-.848-2.123-8.985-.351-1.658" clip-path="url(#pf5656d8f7d)" style="fill:none;stroke:#000"/><path d="m314.996 387.964-5.981.926-.891.305M311.01 410.901l-.018 5.744M311.01 410.901l-.035-.961M311.276 417.075l1.174-.25.635-.267.27-.313.809-3.927-.333-.595-2.821-.822M310.546 416.953l.446-.308M310.546 416.953l-2.993-6.258M106.853 263.39l-.586-.933-3.155-8.66-.667-5.007-1.27-4.195-.444-4.21.078-.985.493-2.504 1.664-3.853 1.907-4.935-.01-.56M108.795 228.778l-.856-.47-2.54-.689-.535-.07M484.636 606.554l-2.285-2.417-10.554-9.029-7.19-4.287-5.648-2.359M420.453 581.281l8.288.699 20.393 3.693 9.825 2.79" clip-path="url(#pf5656d8f7d)" style="fill:none;stroke:#000"/><path d="m469.651 538.072-1.012 6.099.036 2.942-.623 3.063.333 5.59-.182 2.206-.226.724-.533 1.166-1.086 1.753-.413 1.15-.46 2.879-1.152 3.411-.57 2.32-.643 5.504-.396 1.631-.739 2.343-2.475 6.064-.551 1.545M488.405 512.62l-31.408-9.372M478.316 516.798l.555-.664.768-.584 3.648-1.13 4.77-1.71.348-.09M503.69 507.404l-5.04 1.66-2.468.908-4.856 1.37-.584.254-2.337 1.024" clip-path="url(#pf5656d8f7d)" style="fill:none;stroke:#000"/><path d="m507.787 510.426-3.287 1.623-1.363.486-2.813.766-1.496.228-1.678.16-1.636.036-2.284-.08-2.103-.328-2.722-.697M627.587 562.867l-.497 2.996-.335 1.083-.566 1.295M164.528 584.855l3.226 1.072 4 1.072 2.166 1.087 3.03 1.84 2.96 2.056 3.111 2.504 2.817 2.12 2.587 2.394M193.57 589.706l-1.947 3.47-.865 1.954-2.333 3.87M225.037 561.931l3.794.462 1.325.305 1.515.5.43.235.602.634M235.44 567.995l-2.055-2.73-.682-1.198M236.965 564.88l-2.262.008-.929-.281-1.07-.54M577.405 514.856l2.775 7.04 2.654 7.382 1.055 2.492 1.21 2.39.953 2.163 1.59 3.772.91 2.576M545.927 552.23l4.253 2.096 1.159.094 3.81-2.362 1.142-.532 1.825-.016.92-.204 1.08-1.064 1.666-1.142 1.412-.266 2.92-.36 3.318-.188 1.697-.203 3.778-1.674 9.49-2.786 3.983-.892.171-.06" clip-path="url(#pf5656d8f7d)" style="fill:none;stroke:#000"/><path d="m608.917 549.867-1.477.219-2.872.814-1.682.313-1.285.062-.89-.234-6.459-8.763-1.92-.204-3.285.423-.496.174M558.485 482.194l.218-.206M545.483 490.07l6.475-3.453 2.842-1.638 1.07-.713 2.615-2.072M575.538 510.375l-5.293-11.717-2.107-4.108-2.277-3.254-3.404-4.42-2.77-3.295-1.202-1.387M587.238 587.17l.317.095.793 2.378 8.158-.5M587.238 587.17l-.917.505" clip-path="url(#pf5656d8f7d)" style="fill:none;stroke:#000"/><path d="m594.272 583.538-5.61 2.79-1.424.843M569.877 589.104l-1.215-.313-2.437-.634-1.793-.11-1.73-.532-1.54-.219M568.52 581.981l.608.118.7.503.35.72.126.938-.032 1.237.19 1.846-.585 1.76M567.029 597.867l.244-.87 2.604-7.893M562.512 581.92l6.008.061M566.276 577.927l.144.64.433.356.169.782.529.57.65 1.162.319.544M235.44 567.995l.025-.646.11-.774.2-.337 1.19-1.357M255.675 567.596l-2.26-1.252-5.85-3.583-.555-.313-.54-.157-.777-.055-1.674.204-.492.18-3.119 1.713-1.04.4-1.539.148h-.864" clip-path="url(#pf5656d8f7d)" style="fill:none;stroke:#000"/><path d="m243.662 589.088.142-1.323.143-3.426-.056-1.502-.182-.744-.31-.618-.951-1.236-1.246-1.267-1.064-.845-1.452-.822-.468-.423-.746-1.063-1.135-1.98-.333-.876.016-3.114-.27-1.244-.31-.61M545.927 552.23l-.38-.407-.667-2.285M526.511 548.72l4.953 2.477.037.503 1.677 1.294 2.978.062 2.272.047.183-.612.364-.251.401.144.547.503.474.107 5.53-.764M525.01 568.136l-.412-.408-.476-.261-3.425-.634-1.412-.028-.44-.105-.488-.528-.345-.81-.167-.853-.036-.817.151-2.837-.004-2.284.718-4.566.543-2.699 1.048-7.214.294-2.468-.175-1.917-2.087-8.148-.25-.818-.726-1.745-6.542-14.128-.508-.625-.935.071" clip-path="url(#pf5656d8f7d)" style="fill:none;stroke:#000"/><path d="m507.787 510.426.282.868.714 2.465.298.461.255.094M483.431 529.451l.995-.087 2.52.129 1.503-.012 2.948-.367 1.38-.337 1.992-.915.77-.658 1.135-1.165 3.035-3.588 2.845-2.43 2.718-2.905 4.064-2.802M618.845 457.843l3.894-1.423M618.845 457.843l-5.609 2.114M618.845 457.843l.284.646M619.13 458.489l-1.734 1.135-.346.136-2.952.164-.862.033M527.185 535.815l-.674 12.906M112.253 271.15l2.221 3.682 1.341 3.66 4.31 21.442.031 5.884.286 2.63-.222.845-2.159 3.411-.476 2.035-.38 3.317 1.804 4.937.442 3.05-.094.925M269.229 548.88l-3.222 2.317-4.674 3.677-1.047 1.049-1.31 1.674-.627.97-.594 1.213-.564 1.494-1.214 4.475-.302 1.847M243.662 589.088l.88-.634.858-.735.642-.72 6.808-8.418 1.698-2.488.509-2.637.618-5.86M305.183 577.282l-1.817-.524-5.19-1.76-3.356-1.393-6.928-2.535-1.674-.814-.492-.4-1.96-2.456-5.785-8.7-1.92-2.253-4.713-4.812-1.286-1.526-.833-1.228M243.662 589.088l-2.53 14.616M315.937 529.854l.656 5.194.39 2.246-.144 1.212-.53 2.082-.247 1.603.056 3.842-.048 1.158-.254 1.698-2.182 6.572-.714 1.792-6.428 12.611-.357.884-.318.963-.404 1.886-.23 3.685M568.083 598.265l-.302-.219-.752-.18M546.235 599.936l2.502-.137 3.237.218 4.285-.531 10.538-1.675.232.056M568.083 598.265l.142 1.017.46 1.44 4.286 4.053 1.205.766 1 .924.714.907.73 1.252 1.937 4.381" clip-path="url(#pf5656d8f7d)" style="fill:none;stroke:#000"/><path d="m584.814 588.505-12.177 6.6-3.825 2.816-.73.344M530.158 601.771l.169-.783M522.059 605.134l5.332-1.392 1.127-.689 1.64-1.282M528.654 613.303l.277-1.69.11-1.956-.047-2.003 1.164-5.883M528.654 613.303l-.47 2.878-.349 3.208M546.235 599.936l-14.337.942-1.571.11M525.01 568.136l.12 2.046.261 1.607 3.793 14.553.238 1.752.016 1.846-.127 1.33-.35 1.972.382 2.222-.254 2.707 1.238 2.817M526.511 548.72l-.136 1.382v2.582l-.396 4.788-.175 4.005-.448 5.52-.163.68-.183.459M507.787 510.426l13.565-7.388M608.917 549.867l1.333-.25 2.872-.814 1.492-.72 1.968-.235M622.226 564.555l-1.09-.762-1.031-.86-.666-.72-1.35-1.064-.714-1.19-.698-.657-1.476-1.142-1.285-1.737-1.207-1.455-2.46-2.097-1.332-3.004M594.272 583.538h1.492l2.212-.332 1.732-.664.962-.522.674-.047 2.31-.902 1.875-1.043 1.54-1.328 1.155-.664.432-.807-.11-.26-.13-.309.433-.237.818-.048.673-.427-.096-.9.096-.713.337-.664.049-.806.384-.949.24-1.185.626-.854 1.107.047.928.472 2.206-1.955 4.206-2.786 1.38-.563.423-.537M627.587 562.867l-1.451.16-.76-.12-1.303.026-1.847 1.622M629.985 548.976l-1.5 8.104-.898 5.787M632.855 446.23l.187 1.209M632.855 446.23l-.52 1.153M635.894 435.906l-.684 1.555-.706 1.096-.91 1.196-.555 1.05-.187 1.24-.067 1.697.07 2.49M559.885 450.497l1.571-1.17 1.905-1.698.738-.337.948-.074 2.79.168 1.947.45 1.865.203.62-.086.444-.164 1.833-1.124M544.88 452.986l-.17.581-1.235 7.974" clip-path="url(#pf5656d8f7d)" style="fill:none;stroke:#000"/><path d="m540.658 387.642-1.536.74-.698.925-1.419 4.388-.385 1.85.169 1.163.722.759 1.202.712.385.9-.072 1.02-.289 1.4-.313.95-.553 5.123-.77.853-.432 1.329-.867 1.494-1.238 1.327-.345 3.193-.524 2.417-2.154 4.66-.464.735-.732.9-.617.419-.909.207-1.063.082-2.227-.23-.431.324-1.48 1.858-1.373 1.44-.353.704-.043 1.084.408 3.208.373.962.325.446.254.12.534-.037 2.51-1.01.745-.195.44-.004 1.591.258.5.196 2.504 1.51.627.704.96 2.214.11.598.029.509-.33 3.815.179 1.392 1.143 2.528.567.958 1.436 2.081.385.354.623.268 3.602.525 1.346.36 2.17.858M552.086 207.905l-2.858.073-1.872.031-.524-.078-.318-.423.032-.422.54-.704.333-.767.016-1.644.27-1.08.016-2.081-.127-.986-.492-.892-.476-1.925-.73-1.237-.572-2.065M571.705 240.08l-.298-.367-.365-1.072-.325-.667-.357-.338-1.048-.282-1.07.078-1.06.29-.85.348-.903.53-1.029.98-.335.198-5.894 1.87-2 1.27-.609.234-.82.55-.41-.168-.072-.906-.233-.696-.26-2.223.032-.939 1.407-3.179 1.031-2.79.196-1.247-.16-1.25-.87-2.16-.251-.443-2.504-3.004-1.39-2.28-.601-1.218-.591-1.526-1.048-3.247.08-1.44 1.49-5.193.478-1.091.191-.242.542-.368.287-.187M578.28 153.966l-1.257.558h-2.581l-2.716-.267-2.4.312-2.4 1.116-2.218 1.34-.906 1.652.136 2.232 1.901 6.073.408 2.768.09 9.242-.361 1.296-.59 3.84 1.585 4.509 2.659 4.559-.352 1.2-8.452 5.272-3.042 2.778-.832 2.21-4.866 3.249M265.198 322.14l1.09-.146 3.933-.463.59-.142 1.623.154.156.13.253 2.705.722 1.862 1.792 3.261 3.812 5.243.385.154.938-.095 1.215-.297 2.261 1.506 16.43 9.951 5.328 3.558 2.887 1.708.48.048 2.7-5.094M265.198 322.14l15.821 33.08M183.536 342.982l3.174.532 2.222-.626 4.094-1.565 2.381-.751 2.349-.94 4.825-1.407 8.126-2.098 3.491-.563h1.651l4 .438 1.555-.031 2.507-.532 3.142-.876 6.412-1.378 1.81-.5 1.587-.251 8.697.564.761.187.921.5 1.365 1.128 1.968 3.255 5.015-2.849 2.793-1.282 1.841-.094.698-.376.7-1.095.444-1.065 2.221-7.45.912-1.717M225.037 561.931l-.483 2.582M193.57 589.706l1.005-1.917 6.776-11.775 3.123-6.055 3.726-6.823.444-.65.468-.492.531-.415.675-.227.738-.062 7.939.379 3.777.02 2.265.242M199.495 593.665l-3.024-2.065-2.9-1.894M237.179 618.724l.333-.4.396-.961 2.77-11.204.454-2.455M257.945 606.472l-2.222-.07-4.76-.548-1.778-.305-5.301-1.228-2.752-.617M237.179 618.724l2.333.923 4.523 1.948 3.197 1.244.841.149.707.016 2.332-.376 5.96.583.37-.125.154-.254.047-5.665.302-10.695M317.102 508.896l.27 3.87.043 3.05-.473 1.653-1.074 2.458-.559 2.923.129 2.966.499 4.038M342.399 558.027l-1.611-5.352-3.214-2.894-.436-.501-.08-.242.024-.658 1.175-5.54.007-.453-.134-.274-.294-.297-.873-.595-10.284-5.484-10.742-5.883M566.986 427.153l.221-3.443.509-.595 1.11-.657 2.826-1.19.762-.689.533-1.552M518.66 302.948l-.132-.607.252-.71.251-.317 1.036-.681-.592-1.27-.515-.297-.702-.148-3.143-.313-.694-.24-.357-.218-1.214-1.381-.35-.212-1.527-.133-.496-.125-1.21-1.502-.798-.583-.523-.255-.623-.168-3.952-.281-.524.109-.69.32-.357.04-2.309-.477-3.356-.016-.89-.11-1.055-.274-.476-.25-1.27-.939-.52-.207M556.43 469.162l4.247 2.206M554.37 474.08l.39-.85.57-2.093.675-1.354.425-.62M545.816 463.58l1.042.265.815.207 1.055.465 2.393.501 1.274.16M554.37 474.08l.103.143 3 5.79 1.23 1.975" clip-path="url(#pf5656d8f7d)" style="fill:none;stroke:#000"/><path d="m543.441 486.92 2.883-2.005 1.524-1.443.698-.845.603-.963 1.81-3.055.742-1.467 2.67-3.063M560.677 471.368l1.057-2.503M575.538 510.375l1.867 4.481M602.33 502.406l-1.34-.106-.485.27-.404.435-.524.23-1.65-.015-4.833.21-3.015.275-6.523.923-.976.407-1.77 1.377-5.272 3.963M474.086 521.14l-.137.214M478.316 516.798l-.746.865-2.793 2.691-.69.787M447.182 521.419l6.118-.063 5.96-.25 4.983.367.408.11.653.403.272.06 5.039.061 3.471-.966M483.431 529.451l-1.588-3.964-2.206-6.533-.674-1.307-.647-.849M353.74 436.367l20.885-4.413 5.079-.814 5.237-1.001 2.032-.126 19.33.376 17.331 4.1h2.73l3.587-.564 5.84.251 4.222.595 3.364.093 1.556.189.762-.032 2.19-.376 7.26-2.344 1.028 1.854 1.488 3.767 4.352 16.001.496 1.471.766 4.378-.401 2.331-1.932 7.082-.913 3.075-.658 1.725-.103 1.013.083 1.182-.46 2.703-.091 1.37.166.91.754 2.012.432 1.666.1.856-.044 2.258-.286 1.87-.622 2.57-.612 4.526-.619 1.643-1.072 4.684" clip-path="url(#pf5656d8f7d)" style="fill:none;stroke:#000"/><path d="m356.948 441.306 2.678.634 6.908 1.659 2.919.792 2.663.87 9.085 3.623 8.202 3.466 3.852 1.96 3.4 2.16 2.27 1.596 1.884 1.534 2.138 1.965 2.199 2.307 1.776 2.1 1.069 1.425 3.737 5.586 1.28 1.568 1.478 1.503 1.462 1.144 1.613 1.023 12.02 6.927 2.562 1.743 1.463 1.24 1.32 1.446 3.675 5.173.602.72 1.48 1.428.726.563 1.626 1.116.763.422 2.152.843 4.59 1.472 6.457 1.934M518.66 302.948l.812 1.803.682 1.228.92 1.41.834.993M545.483 490.07l-.504.269M524.349 501.406l.297.398.087.258-.112.602-.793 1.307-.444 1.025-.127 1.971.063 1.002.326 1.107.563.767.706.426 1.536.305 1.995.055 2.286-.329 2.261-.524 1.396-.234 1.23-.055.818.203 2.817 1.346 1.143.164 2.309-.54 3.158-1.056 1.476-1.392.722-.947.666-1.37.215-.727.057-.584-.097-.665-1.643-2.194-.602-1.032-.191-.51-.111-1.267.516-2.034.119-1.04-.048-.407-1.46-5.366M524.349 501.406l20.63-11.067M524.349 501.406l-2.997 1.632M513.146 504.088l-.666-1.846-.892-2.48-1.242-3.013M513.146 504.088l7.315-2.618M513.146 504.088l-9.455 3.316M503.69 507.404l-.264-1.047-.38-2.1-.119-1.925M633.385 310.686l-.679.117-2.02 1.448-.487.215-.437.106-1.19-.04-1.02-.304-1.231-.725-2.331-1.665-1.947-.815-.603.037-.542.433-.784 1.782-.87 1.019-.742 1.107-.297 1.268-.155 2.832-.176.172-.366.103-.592-.118-.48-.258-.552-.387-.937-1.127-1.484-2.696-.34-.845-.239-1.236.008-1.585.575-1.96.219-1.342-.48-1.821-.371-2.726-4.93-7.445-1.655-2.145-1.816-3.168-1.43-1.862-1.09-1.162-.539-.71-.968-1.595-.818-.853-.5-.262-.758-.195-1.031.133-2.313.88-.445.027-.341-.101-.738-.517-.373-.454-.496-.954-.655-1.663-.29-.434-1.34-1.005-1.927-2.52-.771-.095-2.024.145-1.967.419-.306.016-.587-.138-1.152-.642-1.967-1.634-.908-.376-1.802-.442-.31-.16-.721-.701-.135-.188-.111-.513.043-.54.292-1.26.498-1.78 1.052-3.122.227-1.319.228-.805 1.45-3.085.065-.456-.054-.571-.946-3.877-2.236-3.553-1.35-1.81-1.67-4.235-.75-1.044-.321-1.052-.398-2.551-.046-.22" clip-path="url(#pf5656d8f7d)" style="fill:none;stroke:#000"/><path d="m588.634 210.999.064 3.411-.508.845-1.587.752-.35.939.223 2.942 1.206 2.723-.507 2.16-1.778 2.035-1.968 1.47-1.841.564-.381.564-.476 3.88-.476.877.571 1.91.19 2.691-.412.47-.127.532-2.507 1.252-3.429.806-2.836-1.741M473.949 521.354l-2.108 3.272-.489.944-.237.672-1.206 6.803-.258 5.027M483.431 529.451l-1.508.05-.472.14-1.965 1.62-1.916 1.22-5.21 4.363-1.337.669-1.372.56M473.949 521.354l-.354.155-1.584 1.478-3.388 2.805-1.888 1.706-.342 1.08-.04 1.087M633.042 447.439l-.706-.056M629.98 450.115l.806-.435.452-.389.445-.552.424-.85.229-.506M622.74 456.42l.862-1.131.59-.446 2.331-.845 2.017-1.092.294-.337.682-1.18.464-1.274M635.894 435.906l-.696.19-1.024.641-.88 1.056-.62 1.205-1.523 2.528-.306.696-.865 7.893M633.014 531.042l1.327-.047.881.016.714.164.476.368.15.22.08.242.159 2.605.468 4.342M633.014 531.042l-3.029 17.934M543.441 486.92l.737 1.684.8 1.735" clip-path="url(#pf5656d8f7d)" style="fill:none;stroke:#000"/><path d="m520.46 501.47.452-.175.468-.45 2.301-2.942.619-.614.325-.23 3.322-1.519 1.082-.586 1.159-.869 1.107-1.35.36-.324 2.77-1.698 4.378-2.007 4.121-1.506.517-.28M630.659 305.717l.38-1.968-.05-.43-.54-1.181-.095-.607-.167-2.574.206-1.436M630.659 305.717l-.552-1.545-.626-1.295-.976-1.068-1.175-1.87M633.385 310.686l-.784-.554-.577-.602-.381-1.544-.956-1.745-.028-.524M521.352 503.038l-.891-1.568M518.66 302.948l-2.244.59-.84.207M577.405 514.856l.74.233 1.205.376 10.594 2.558.234-.039.242-.38-.33-3.278.135-.368.504-.062 7.65.669 1.15-.126 1.278-.484M310.975 409.94l-3.422.755M314.996 387.964l-.424-1.92M314.572 386.044l-1.401-6.334M313.171 379.71l-.667-3.017.66-.225.761.6.305.827 1.65 7.987-1.308.162M313.171 379.71l-5.89 1.42M294.845 384.125l-1.32-2.758M294.845 384.125l6.439-1.551M293.525 381.367l-2.655-5.552M293.525 381.367l6.858-1.517M307.28 381.13l-5.996 1.444M303.788 379.096l2.824-.625.669 2.659M290.87 375.815l-5.485-11.467M290.87 375.815l6.656-2.638M303.788 379.096l-3.405.754M303.788 379.096l-1.67-6.91M285.385 364.348l-4.366-9.128M285.385 364.348l5.099-1.913M588.634 210.999l-.222-4.32.635-1.69-.159-2.191-1.11-2.16-.191-1.284.857-4.163-.445-1.971-.92-3.068-2-1.471.128-2.504-.572-1.503.952-.626 1.588-1.628.412-3.255-.793-1.565 1.872-3.756.952-10.424-.412-.955.063-.83-10.99-7.669M371.017 467.184l-2.412-7.543-1.81-3.254-1.301-3.13-8.546-11.95M371.017 467.184l-3.523.531-.381.126-4.762.438-2.285-.282M342.671 466.026l2.667-1.096 4.412-1.095 1.428.25 5.555 1.409.603.313 2.73 2.19" clip-path="url(#pf5656d8f7d)" style="fill:none;stroke:#000"/><path d="m354.75 477.645.102-.312 1.16-1.526 1.769-1.743 1.547-1.362.553-.981.055-1.036-.221-.708.22-.872.131-1.108M292.423 509.838l-5.714-1.064-3.11 1.44-4.254 1.659-9.618.876M319.203 454.324l5.534.842 1.428 1.033 3.047 3.349 1.111.845 1.556.813 1.492.345 2.317 1.032 2.603.876 4.38 2.567M338.754 468.45l.502-.207 3.415-2.217M371.017 467.184l2.603 5.007.064.282.349.5 2.825 5.414 4.444 7.26 3.904 8.043M420.453 581.281l-3.193-5.007-.419-2.313-1.424-4.294-3.015-3.8-1.341-1.403-1.34-1.239-1.173-.413-.586-.66.251-.992v-1.9l-.754-3.963-.084-1.9.876-2 .508-1.408-.508-2.848-1.174-5.507-1.968-6.29-1.048-4.037-1.016-2.16-3.015-4.256-2.349-3.756-2.19-3.943-.381-.876-.38-.532-1.524-3.536-3.365-8.919-4.635-9.639M354.75 477.645l-.45 1.377-1.549 3.87-.718 1.307-.474 2.732-.54 5.288.286.407 3.365.595.73.219 2.127.25 1.333.282 1.047.031 1.239.188.92.5 1.143.908.857.344 2.19-.03 3.81.343 2.665.501 1.334.532.285-.062 1.112-.751.475-.533.318-2.159.381-.438.571-.063 4.063.814 1.968-.157.254.063 1.016-.188.698-.125M292.423 509.838l7.046 1.596 2.445.72.952.094 14.236-3.352M292.423 509.838l3.396-19.09-.41-5.143M304.938 286.53l-3.155-2.212M304.938 286.53l.316-.441M299.257 293.737l2.14-2.265 3.541-4.943M306.644 275.175l-2.816 6.187-2.045 2.956M283.052 269.766l-.448 8.113M260.423 262.933l1.74 1.065 3.079 2.074 3.604 4.776 1.687 1.764 10.664 4.592 1.407.675M257.342 235.992l3.08 26.94M545.594 585.106l.641 14.83M573.598 468.553l-3.56-.758-.329.036-.437.27-.325.275-.369.487-.729.98M562.29 467.291l1.913.81 3.646 1.743M584.814 588.505l1.507-.83M584.814 588.505l-2.142-1.964M594.272 583.538l-2.165-.617-.866-.522-1.688.063-2.358 2.585-.89 1.305.016 1.323M333.91 476.918l-.936-1.076-1.885-1.487.042-1.24 1.089.042 1.968-2.023.754-.33.67-.042 1.634.082.586-1.651.364-.456.558-.288" clip-path="url(#pf5656d8f7d)" style="fill:none;stroke:#000"/><path d="m354.75 477.645-11.672-2.098.912-6.111-5.236-.987M310.992 416.645l.284.43M311.276 417.075l1.285 2.723M281.02 355.22l7.545-1.827M300.383 379.85l.901 2.724M588.634 210.999l1.905.375 1.81 2.536 2.094-.22.857 1.22 1.587.158 1.619 1.565 2.476 3.349.888.72 1.238.094 2.127.845 2.317.407 1.11.657 2.381.782 1.397 1.69M112.253 271.15l2.404.251 3.015.219 3.333.407M250.165 419.64l.853-6.329 1.27-7.7M106.853 263.39l1.837-.033 20.758 3.975M112.253 271.15l-5.4-7.76M313.682 278.404l-7.038-3.229" clip-path="url(#pf5656d8f7d)" style="fill:none;stroke:#000"/></g><path id="PatchCollection_1" d="m147.877 294.115-.464-.784-1.226.131-.331 1.862.894 2.778 1.525 1.405.397 1.372-.331 2.745-.033.784-.928 2.222.133 1.143.066 1.634-.332 1.013.2.62-.233 1.112.762 1.11-.099 1.307v.458l-.663.425.895 2.418v-1.34l.1-.85.695-.457.398-.915.033-1.372-.497-.425-.663-1.993.365-1.96-.166-1.405 1.557-3.04-.066-1.339.497-.751.166-1.307-.762-1.993-.431-.915-1.027-.392-.696-1.21-.199-.849z" clip-path="url(#pf5656d8f7d)" style="fill:#00f;fill-opacity:.8"/><g id="PatchCollection_2"><path d="m566.874 471.954-1.914 3.387 3.055-2.734zM538.803 488.706l-1.276-1.04-4.032 2.02.93 1.027z" clip-path="url(#pf5656d8f7d)" style="fill:green;fill-opacity:.8"/></g><path id="PatchCollection_3" d="m546.147 461.365.682.02.029 2.46-1.042-.264z" clip-path="url(#pf5656d8f7d)" style="fill:#90ee90;fill-opacity:.8"/><g id="PatchCollection_4"><path d="m540.727 492.825.479.78.956-.57-.478-.78zM567.656 468.23l.842.416-.438.863-.842-.415z" clip-path="url(#pf5656d8f7d)" style="fill:#a9a9a9;fill-opacity:.8"/></g></g></g><defs><clipPath id="pf5656d8f7d"><path d="M90 93.604h558v539.991H90z"/></clipPath></defs></svg>