<svg xmlns="http://www.w3.org/2000/svg" width="960" height="960" viewBox="0 0 720 720"><defs><style>*{stroke-linejoin:round;stroke-linecap:butt}</style></defs><g id="figure_1"><path id="patch_1" d="M0 720h720V0H0z" style="fill:#fff"/><g id="axes_1"><path id="patch_2" d="M90 615.632h558V111.568H90z" style="fill:#fff"/><g id="LineCollection_1"><path d="m301.156 518.035 7.525-4.794M301.156 518.035l-11.48 7.32M303.224 524.36l-.23-1.512-1.302-3.33-.536-1.483M336.91 492.764l.808 1.88M366.468 474.153l-.556.593-.517.487-.536.378-12.024 7.46-15.926 9.693M338.646 496.19l-.99.574-.292.129-.407.081-.398.057-.325.034-.268.11-.555.311-.695.407-4.92 3.042-.307.173-.187.09-.162.006-.254-.014-.225-.14-.579-.928-.105-.33.009-.282.148-.216.34-.22.488-.292.59-.354 4.313-2.75.411-.316.359-.34.397-.435.312-.407.282-.33.374-.35.91-.736" clip-path="url(#pee8f1ef728)" style="fill:none;stroke:#000"/><path d="m336.91 492.764-.033-.502-.688-1.242M335.722 491.337l.747 1.225.44.202M366.468 474.153l4.968-3.058M366.468 474.153l.762 1.59M362.59 467.138l2.059 3.674.995 1.857.824 1.484M371.436 471.095l3.887-2.531M371.436 471.095l.737 1.478M371.436 471.095l-2.45-4.192M375.323 468.564l15.71-10.301M375.323 468.564l.994 1.478M368.985 466.903l2.944-1.942.414-.282.177-.136.125-.03.134-.011.108.055.141.172 2.295 3.835M347.282 490.769l5.438-3.378M347.282 490.769l-2.006 1.248M347.282 490.769l3.293 5.325M377.113 471.463l4.845-3.014M377.113 471.463l1.555 2.393M377.113 471.463l-.796-1.42M373.37 474.219l.283-.378.125-.182.18-.134 3.155-2.062M411.617 449.636l-6.596 4.144M412.536 446.851l-.138 1.187-.058.321-.191.387-.532.89M418.127 446.66l-1.867 1.134-.479.187-.636.143-.608.115-.435.09-.388.063-.378.091-.508.24-1.21.913M412.536 446.851l13.145-8.554M412.536 446.851l-3.331 2.153M327.021 469.125l-2.59 1.438M324.06 470.752l1.71 3.084M324.06 470.752l.372-.189M346.32 508.768l-2.466-4.278M350.901 514.572l-.757-.336-.315-.239-.278-.24-.316-.334-.47-.545-.468-.737-1.977-3.373M365.72 498.39l-9.43 4.593-2.517 1.225-1.37.718-1.359.86-1.838 1.14-1.35 1.005-1.536.837" clip-path="url(#pee8f1ef728)" style="fill:none;stroke:#000"/><path d="m359.976 510.792-3.302 1.234-2.547 1.043-3.226 1.503M369.663 524.26l-4.42-2.062-4.146-2.067-8.722-4.564-1.474-.995M384.227 511.394l.9 1.886.584 1.31.134.546.115.55.062.46.043.354.029.268.04.267.036.24.01.23.019.306-.038.56-.067.951-.034.532.053.502.22.914.182.521.13.364.1.282.11.32.09.288.159.626.071.494.048.406.115.474.264 1.42.12.69.052.301.12.273.187.358.349.384M368.076 477.769l5.295-3.55M368.076 477.769l-5.524 3.417M371.178 483.128l-1.446-2.718-1.656-2.641M359.976 510.792l3.275-1.426M359.976 510.792l2.248 7.469" clip-path="url(#pee8f1ef728)" style="fill:none;stroke:#000"/><path d="m367.588 502.802-8.316 3.291-.29.11-.202.149-.076.23.009.296 1.263 3.914M380.56 503.07l1.953 4.592M380.56 503.07l3.294-1.426M380.56 503.07l-4.653 1.827M378.598 498.352l1.053 2.688.909 2.03M403.288 492.84l7.18-3.263M403.288 492.84l-6.769 3.129M403.288 492.84l1.547 2.786M400.895 487.74l.526 1.292 1.867 3.808M410.468 489.577l-3.35-5.291M410.468 489.577l1.322 2.287M400.604 501.883l1.545 1.56 2.48 2.315.736.795.345.622.115.45.048.755.048.546.086.416.124.474.154.43.239.498 1.082 1.598M398.319 499.117l6.516-3.491M398.319 499.117l-3.388 1.857M398.319 499.117l-1.8-3.148M398.319 499.117l1.85 3.033M381.958 468.449l7.64-4.976M381.958 468.449l3.427 6.306M400.895 487.74l-1.924-4.603M400.895 487.74l6.222-3.454M400.895 487.74l-7.027 3.244M389.598 463.473l3.437-2.144M389.598 463.473l3.255 6.641M417.016 489.147l1.035 1.98.46.976.354.824.88 2.66M406.266 470.85l1.091-.535M406.266 470.85l-5.62 2.785M412.646 481.367l-3.087-5.225-3.293-5.291M393.035 461.33l5.572-3.57M393.035 461.33l-.948-1.426M393.035 461.33l3.809 6.104M341.365 500.534l-2.45 1.435-1.934 1.062-3.179 1.847-2.04 1.388M341.365 500.534l2.49 3.956M341.365 500.534l-2.719-4.344M341.365 500.534l4.03-2.144M348.24 497.06l2.335-.966M348.24 497.06l-2.844 1.33M348.24 497.06l-2.964-5.043M356.119 494.524l-3.571 1.369-.426.167-.398.096-.407.096-.488-.01-.254-.148M373.274 487.53l3.18-1.445M373.274 487.53l-5.332 2.22M373.274 487.53l-2.096-4.402M373.274 487.53l1.265 2.909M388.152 480.028l7.602-3.867M388.152 480.028l-4.27 2.21M388.152 480.028l-2.767-5.273M388.152 480.028l1.877 3.693M417.821 465.014l-4.557 2.363M417.821 465.014l-.765-1.464M418.548 465.827l-.23-.23-.497-.583M367.588 502.802l-1.867-4.412M367.588 502.802l1.704 4.315M367.588 502.802l5.993-2.258M358.838 483.51l3.714-2.324M358.838 483.51l-6.118 3.88M362.935 491.788l-1.867-3.923-2.23-4.354M384.227 511.394l-1.714-3.732M384.227 511.394l3.408-1.914M376.606 493.864l-1.733-3.574M376.606 493.864l1.992 4.488M376.606 493.864l2.968-1.244M376.606 493.864l-5.06 2.039M391.694 486.735l7.277-3.598M391.694 486.735l-4.078 1.914M391.694 486.735l-1.665-3.014M391.694 486.735l2.174 4.25M404.59 480.152l-1.847-3.063M404.59 480.152l2.527 4.134M404.59 480.152l-5.62 2.985M378.598 498.352l3.178-1.53M378.598 498.352l-5.017 2.192M393.868 490.984l-3.734 1.971M396.52 495.969l-1.321-2.573-1.331-2.412M412.646 481.367l-5.529 2.919M417.016 489.147l-.612-1.206-.977-1.79-1.55-2.765-1.23-2.02M343.854 504.49l3.59-1.63M364.304 494.898l-1.37-3.11M364.304 494.898l1.417 3.492M364.304 494.898l5.304-2.288M364.304 494.898l-6.644 3.176M374.539 490.439l.334-.15M374.539 490.439l-4.931 2.171M390.029 483.721l7.371-3.617M390.029 483.721l-4.223 1.904M402.743 477.09l-2.097-3.455M402.743 477.09l-5.343 3.014M375.907 504.897l-6.615 2.22M375.907 504.897l-2.326-4.353M375.907 504.897l2.48 4.718M362.552 481.186l3.073 4.775M373.37 474.219l1.618 2.029M373.37 474.219l-1.197-1.645M367.425 464.535l-1.407-2.487-.9-1.512-1.81-2.766" clip-path="url(#pee8f1ef728)" style="fill:none;stroke:#000"/><path d="m358.78 460.249.823-.546 2.059-1.12.98-.483.27-.12.243-.143.154-.067M356.683 445.646l.766 1.837.268.69.134.727.354 1.425.25.651.373.756.727 1.014 2.93 3.875.306.365.321.418.197.366M372.173 472.574l4.144-2.532M372.173 472.574l-4.943 3.17M394.068 505.825l-2.182-3.358M394.068 505.825l2.796-1.731M394.068 505.825l-6.433 3.655M401.651 517.384l-.498-.813-.574-.947-1.044-1.483-.244-.287-.359-.277-.325-.307-.335-.364-.566-.909-3.638-6.172M378.387 509.615l1.426 3.014M378.387 509.615l4.126-1.953M417.016 489.147l-5.226 2.717M365.625 485.96l2.317 3.79M365.625 485.96l5.553-2.832M385.385 474.755l7.468-4.64M385.385 474.755l-4.48 2.546M404.068 464.158l5.29-3.302M404.068 464.158l3.29 6.157M402.446 464.22l.483-.264.24-.052h.275l.203.035.149.048.272.17M432.048 445.608l-2.796-5.828M421.354 453.153l5.926-4.292 4.768-3.253M439.19 459.31l-3.715-7.243-3.427-6.46M376.317 470.042l15.77-10.138M396.864 504.094l-1.933-3.12M396.864 504.094l3.304-1.944M374.069 481.51l2.384 4.575M374.069 481.51l3.14-1.923M374.069 481.51l-2.891 1.618M387.635 509.48l-1.78-3.55M394.8 524.413l-.836-1.09-.34-.69-.389-.923-.272-.8-.125-.406-.072-.21-.287-.603-.507-1.024-.335-.823-.498-.9-3.504-7.464M363.25 509.366l4.488 9.03M369.292 507.117l-1.101.383-.852.325-1.446.498-2.642 1.043M357.66 498.074l-10.216 4.785M357.66 498.074l-1.541-3.55M352.72 487.39l3.399 7.134M345.276 492.017l-6.63 4.173M345.396 498.39l2.048 4.47M429.252 439.78l-3.197 1.933-2.95 1.785-4.978 3.162M421.354 453.153l-.182-.742-.575-1.368-.727-1.474-1.743-2.909M435.578 434.188l-1.147-1.23M429.252 439.78l-.278-.88-.005-.187.063-.177.148-.205 6.398-4.143M447.843 449.01l-1.148-1.685-.728-.961-.41-.517-.49-.555-.67-.756-1.627-1.79-3.925-4.507-3.267-4.05M434.431 432.957l-8.75 5.34M474.893 407.107l-23.487 14.999-16.975 10.851" clip-path="url(#pee8f1ef728)" style="fill:none;stroke:#000"/><path d="m413.676 457.713.87-.565 3.562-2.316 3.246-1.68M417.056 463.55l3.403-2.13.177-.167.086-.216.086-.229v-.268l-.053-.364-.296-1.067-.254-.755-.053-.336-.033-.31.018-.44.111-.489.186-.43.527-.847.268-.545.106-.498.052-.445.015-.479-.048-.382M417.056 463.55l-3.38-5.837M413.676 457.713l-4.318 3.143M417.338 473.611l-4.074-6.234M404.078 452.368l.742-.497M404.078 452.368l-2.432 1.531M404.078 452.368l.943 1.412M407.357 470.315l5.907-2.938M402.446 464.22l-5.602 3.214M402.446 464.22l-3.84-6.46M397.76 456.34l3.886-2.44M397.76 456.34l-1.92 1.195M397.76 456.34l.847 1.42M358.78 460.249l-1.197-2.144-1.378-2.46M362.59 467.138l-1.531-2.928-2.28-3.961M367.425 464.535l1.56 2.368M367.425 464.535l-4.835 2.603M409.205 449.004l-4.385 2.867M409.205 449.004l-.853-1.616M395.84 457.535l-3.753 2.369M395.84 457.535l-.967-1.545M391.034 458.263l3.839-2.273M391.034 458.263l1.053 1.64M378.502 440.388l1.25 2.143.248.4.254.385.268.387.43.584 3.352 4.517 1.857 2.44 4.873 7.019M378.502 440.388l6.74-3.297M378.502 440.388l-5.276 2.426M402.309 428.399l5.968-3.135M402.309 428.399l-3.894 2.033M402.309 428.399l1.914 2.908M402.309 428.399l-2.096-3.216M393.893 415.312l1.45 2.344M393.893 415.312l-3.567 1.8M388.35 405.723l2.866 4.766 2.677 4.823" clip-path="url(#pee8f1ef728)" style="fill:none;stroke:#000"/><path d="m451.559 348.74-.44 2.258-.202.709-.201.603-.44.822-.814.995-1.043 1.063-2.346 2.124-2.346 2.47-.43.583-.288.64-1.761 5.733-.45 1.33-.67 1.502-.316 1.158-.125 1.828.393 2.46.46 2.133.21 1.617-.019 1.493-.182 1.387-.393 1.847-.497 1.507-.728 1.708-.489.785-.564.765-.536 1.197-.46.746-.708.68-.756.507-1.159.497-6.3 2.794-1.55.794-1.092.517-.948.508-.851.574-.633.574-.794.65-1.101.737-10.742 6.282-.99.526-.776.427-.45.248-.379.297-.292.373-.43 1.249-.216.315-.263.206-.378.25-12.181 6.104M408.312 438.034l-1.911-3.35M408.312 438.034l-3.942 2.243M408.312 438.034l5.507-3.048M366.765 428.795l-12.303 5.502M366.765 428.795l.75-.386M352.902 437.55l14.112-5.894.22-.153.095-.192.01-.258-.03-.392-.544-1.866M349.065 439.387l3.837-1.837M362.6 416.7l1.393 3.257M366.305 415.14l-2.863 1.244-.842.316" clip-path="url(#pee8f1ef728)" style="fill:none;stroke:#000"/><path d="m363.154 411.694-1.686.723-.153.115-.065.144.012.158.103.373 1.235 3.493M367.515 428.409l-3.522-8.452M367.515 428.409l3.705-1.933M384.144 420.278l1.482 3.171M384.144 420.278l6.182-3.166M384.144 420.278l-2.729 1.337M395.945 444.105l-1.694-3.234M395.945 444.105l-5.667 2.861M404.37 440.277l-4.25 2-4.175 1.828M390.278 446.966l4.595 9.024M390.278 446.966l-1.628-3.32M388.65 443.646l-1.829-3.31M388.65 443.646l5.6-2.775M406.4 434.684l-2.177-3.377M406.4 434.684l5.81-3.104M406.4 434.684l-4.166 2.187M386.821 440.335l-1.579-3.244M386.821 440.335l5.764-2.832M404.223 431.307l5.7-2.981M404.223 431.307l-3.941 2.215M383.617 433.797l1.625 3.294M383.617 433.797l-1.808-3.53M383.617 433.797l5.704-2.818M400.213 425.183l-1.876-2.738M400.213 425.183l6.139-3.173M400.213 425.183l-3.71 1.935M381.809 430.267l-1.797-3.83M381.809 430.267l5.949-2.601M394.806 424.356l1.697 2.762M394.806 424.356l-4.48-7.244M394.806 424.356l3.531-1.91M394.806 424.356l-7.048 3.31M398.337 422.445l5.985-3.382M395.343 417.656l1.406 2.431 1.588 2.358M380.012 426.438l-1.738-3.399M380.012 426.438l5.614-2.989M385.626 423.45l2.132 4.216M308.68 513.241l-4.289-5.904M308.68 513.241l3.973-2.564M302.784 504.351l-.527-1.348-.105-.412-.173-.526-.392-.871M313.621 510.007l-.67-1.349M313.621 510.007l-.968.67M337.718 494.644l-5.476 3.536-9.2 5.841-6.865 4.36-.996.631-1.56.995M304.391 507.337l5.975-3.693M302.784 504.351l.9 2.03.707.956M310.366 503.644l2.584 5.014M302.784 504.351l4.346-2.554 1-.527.182-.023h.273l.168.052.215.22 1.398 2.125M312.95 508.658l1.504-.938.497-.435.25-.326.378-.622.163-.517.363-.846.584-1.488M383.576 402.95l.144 2.095.19.89.307.813 5.139 8.857.97 1.507M378.274 423.039l3.141-1.424M378.274 423.039l-.615.3M375.131 416.416l.697 1.285 2.446 5.338M396.503 427.118l1.912 3.314M396.503 427.118l-7.182 3.861M387.758 427.666l1.563 3.313M398.415 430.432l1.867 3.09M398.415 430.432l-7.456 3.823M389.32 430.98l1.639 3.275M400.282 433.522l1.952 3.349M400.282 433.522l-7.697 3.98M390.959 434.255l-5.717 2.836M390.959 434.255l1.626 3.248M402.234 436.87l2.136 3.407M402.234 436.87l-7.983 4M392.585 437.503l1.666 3.368M404.37 440.277l4.34 6.881M408.352 447.388l.359-.23M408.352 447.388l-4.441 2.9M405.02 453.78l-6.413 3.98M405.02 453.78l4.338 7.076M394.873 455.99l5.802-3.635M409.358 460.856l3.906 6.521M333.625 482.832l10.928-6.192.651-.383.623-.459 2.74-1.718 10.42-5.195 3.603-1.747M397.037 467.741l-.193-.307M397.037 467.741l3.61 5.894M397.037 467.741l-4.184 2.373M392.853 470.114l2.9 6.047M400.646 473.635l-4.892 2.526M395.754 476.161l1.646 3.943M380.905 477.3l-2.237-3.444M380.905 477.3l-3.696 2.287M383.882 482.238l-1.465-2.53-1.512-2.407M377.21 479.587l2.957 4.613M377.21 479.587l-2.222-3.34M397.4 480.104l1.57 3.033M383.882 482.238l-3.715 1.962M383.882 482.238l1.924 3.387M380.167 484.2l-3.714 1.885M382.04 487.151l-.934-1.55-.939-1.401M385.806 485.625l-3.767 1.526M385.806 485.625l1.81 3.024M376.453 486.085l1.417 2.918M382.04 487.151l-4.17 1.852M382.04 487.151l2.062 3.336M387.616 488.65l-3.514 1.837M387.616 488.65l2.518 4.305M377.87 489.003l-2.997 1.287M377.87 489.003l1.704 3.617M367.942 489.75l-5.007 2.038M367.942 489.75l1.666 2.86M384.102 490.487l-4.528 2.133M384.102 490.487l2.633 4.124M362.935 491.788l-6.816 2.736M411.79 491.864l-6.955 3.762M406.282 498.43l3.823-2.221 2.656-1.55.308-.197.083-.161.019-.182-.08-.275-1.301-1.98M379.574 492.62l2.202 4.201M369.608 492.61l1.939 3.293M390.134 492.955l2.843 4.67M390.134 492.955l-3.4 1.656M337.718 494.644l.928 1.546M367.23 475.744l-11.647 7.47-17.865 11.43M386.735 494.61l2.882 4.517M386.735 494.61l-4.959 2.211M396.52 495.969l-3.543 1.656M371.547 495.903l-5.826 2.487M371.547 495.903l2.034 4.64M381.776 496.821l2.078 4.823M392.977 497.625l-3.36 1.502M392.977 497.625l1.954 3.349M389.617 499.127l-5.763 2.517M389.617 499.127l2.27 3.34M394.93 500.974l-3.044 1.493M383.854 501.644l2 4.286M391.886 502.467l-6.031 3.463M385.855 505.93l-3.342 1.732M373.17 533.145l.104-1.1.173-.962.297-.838.163-.41.239-.336.383-.364.297-.301.143-.301.191-.593.163-.733.175-.521.026-.237-.009-.883.038-.613-.053-.554-.033-.426.043-.397.196-.378.068-.287.004-.316-.052-.55-.044-.392.024-.512.087-.565.225-.758.083-.27.074-.307.017-.23-.034-.248-.121-.252-.32-.387-.427-.311-.332-.194-.36-.193-.155-.118-.364-.517-.354-.612-.288-.536-.459-.65-.364-.508-.316-.497-.603-1.31-2.403-5.56M334.477 487.94l1.67-.87M334.477 487.94l-.46.292M334.477 487.94l-1.184-1.98M334.477 487.94l1.712 3.08M336.148 487.07l3.992-2.249 6.833-4.099M332.056 483.65l1.57-.818M332.056 483.65l-.504.301M332.056 483.65l-2.547-4.082M332.056 483.65l1.237 2.31M336.148 487.07l-2.523-4.238M329.509 479.568l3.763-2.166M329.509 479.568l-.427.273M329.509 479.568l-3.314-5.989M409.424 504.16l1.475 2.134M406.282 498.43l.233.472.071.22.096.24.215.334.144.25.125.272.205.57.484 1.124.153.42.24.402.253.34.235.278.688.808M412.951 504.092l-.218-.386-.173-.115-.22-.124-.316-.02-.493.048-.383.043-.402.077-.646.23-.124.069-.182.06-.206-.029-.164.215M371.22 426.476l6.439-3.137M367.67 418.707l1.433 3.073 2.117 4.696M366.305 415.14l1.365 3.567M366.305 415.14l3.169-1.177M373.638 413.054l1.493 3.362M370.422 406.307l1.946 4.134 1.27 2.613M369.474 413.963l1.972-.411 2.192-.498M363.993 419.957l3.677-1.25M363.993 419.957l-5.03 1.86M367.67 418.707l3.642-1.16M375.131 416.416l-3.82 1.13M364.297 392.355l2.518 5.842M368.648 402.373l1.774 3.934M368.648 402.373l-1.833-4.176M368.648 402.373l-4.297 1.726M358.87 406.422l2.516 2.798M358.87 406.422l5.48-2.323M358.87 406.422l-3.834-4.66M363.154 411.694l-1.768-2.474M367.492 410.002l-.651.21-2.097.861-1.12.44-.47.181M367.492 410.002l-1.423-2.777M369.474 413.963l-1.45-3.005-.532-.956M369.474 413.963l1.838 3.584M374.638 405.36l.956 2.478 1.405 3.12 1.388 2.67 1.925 3.741.292.647.167.516.134.713.51 2.37M404.82 451.87l-.91-1.583M403.91 450.287l-3.235 2.068M400.675 452.355l.971 1.544M280.821 519.987l3.15-2.315M277.882 515.969l.795.813 1.063 1.34.727 1.148.354.717M284.392 527.47l-.699-1.296-.363-.665-.795-1.32-.546-1.187-.564-1.397-.604-1.618M288.116 509.864l-3.695 2.392M282.76 509.409l2.604-1.694.369-.138.306-.082.244-.014.22.057.23.14.283.31 1.1 1.876" clip-path="url(#pee8f1ef728)" style="fill:none;stroke:#000"/><path d="m283.971 517.672 5.046-3.76.277-.47.115-.334.048-.269-.038-.44-.197-.516-1.106-2.02M281.645 513.901l2.776-1.645M281.645 513.901l2.326 3.771M277.882 515.969l2.097-1.101 1.666-.967M263.235 542.14l5.67-3.6M263.235 542.14l-15.28 10.075M272.052 536.542l8.092-5.265M272.052 536.542l-3.148 1.998M284.392 527.47l-5.667 3.522-1.436 1.024-1.455 1.052-1.083.862-1.445 1.291-1.254 1.32M289.677 525.355l-1.513.432-.727.229-.9.344-2.145 1.11M289.677 525.355l-9.533 5.922M349.091 395.562l5.945 6.2M355.036 401.762l7.339-2.126M362.375 399.636l4.44-1.439M362.375 399.636l-2.36-5.452M362.375 399.636l1.976 4.463M364.35 404.1l1.719 3.125M370.422 406.307l-.757.163-1.512.383-2.084.372M361.386 409.22l2.238-1.027 2.445-.968M370.422 406.307l4.216-.947M394.327 403.638l-5.977 2.085M388.755 396.298l-4.624 1.636-.172.097-.067.162.047.259 4.41 7.27M374.638 405.36l-.923-4.124-.206-1.258-.13-1.163-.951-9.224-1.145-10.832-.043-.804.038-1.025.149-1.645.431-3.943 1.124-15.985.78-15.45-4.135-10.716.919-11.484-7.2-15.004-10.263-7.502 2.03-11.081-.938-2.555-1.484-3.837-.852-2.344-2.288-5.857-1.408-3.53-1.263-3.207-1.33-3.444-1.227-3.273-1.464-3.57-1.427-3.732-1.168-3.042-1.005-2.297-.833-2.172-1.14-3.454-.899-2.537-.948-2.985-.89-2.546-.67-1.712-1.407-3.445-.345-1.33-.058-1.522.278-2.23.21-1.435.106-.526.086-.297.12-.315.157-.398.211-.406.321-.546.316-.454.34-.455.354-.497.397-.622.47-.838.593-1.038.24-.383.205-.225.226-.23.244-.2.229-.154.244-.138.273-.1.268-.087.302-.08.411-.068.455-.005.651.034 4.34.34 2.008.162.248.002.197-.011.27-.037.19-.023.248-.032 2.063.106M401.47 414.441l-6.127 3.215M369.474 434.546l2.068 4.842M373.226 442.814l-1.684-3.426M373.226 442.814l-10.435 5.799M371.542 439.388l-14.859 6.258M356.683 445.646l-3.781-8.096M418.548 465.827l.499.206.476.222 1.587.955 5.193 2.78 4.156 2.363M275.853 513.476l.794.856.622.814.613.823M254.838 506.38l.259.316.2.163.346.096.555.018.593-.009 1.704-.048.536.029.47.115.306.191.422.23.354.373 1.608 1.67.402.33.474.263.407.24.368.134 3.48.97 2.528.526.35.053.349.02.421.005.474-.058.354-.057 1-.067.48.052.435.105.325.096.36.158.574.392.356.29.525.5" clip-path="url(#pee8f1ef728)" style="fill:none;stroke:#000"/><path d="m282.76 509.409-3.605 2.148-3.302 1.919M284.421 512.256l-1.66-2.847M312.653 510.677l1.181 1.251M313.834 511.928l-1.228.433M313.834 511.928l2.736-.964M198.286 584.358l49.669-32.143M198.286 584.358l.44 1.128M202.231 590.204l-.22-.555-1.225-1.78-1.035-1.215-1.024-1.168M197.166 589.707l.642-.919.555-.832.23-.737.105-.756.029-.977M195.99 596.768l5.43.911M197.166 589.707l-.469 2.258-.315 1.942-.393 2.861M201.42 597.68l1.385.103 1.417.191.517.191.24.182.143.287.144.45.172 1.407.086 3.388.007 2.059M202.231 590.204l-.278 2.967-.21 2.114-.323 2.394M197.166 589.707l5.065.497M326.195 473.58l-.425.256M326.195 473.58l-1.763-3.017M333.293 485.96l-.458.302M335.722 491.337l.467-.317M335.722 491.337l-1.705-3.105M332.835 486.262l1.182 1.97M332.835 486.262l-1.283-2.31M325.77 473.836l1.685 3.048 1.627 2.957M331.552 483.951l-2.47-4.11M247.955 552.215l.88 1.962M199.254 281.02l-1.207.21-.574.287-.632.45-.756.65-.738 1.015-1.282 2.287-3.428 6.048-.479 1.09-.153.737-.114.718v.709l.21 1.205.268.957.536 1.455 1.024 3.09 1.523 5.14.23 1.186.048.535.095.527.153.43.431 1.091 1.398 2.68.795 2.19.402 1.666.105.545.191 2.393.154.841.287 1.063.325.68.364.63.345.747.92 4.364 3.33 17.492 2.317 11.1 1.953 11.081 5.84 31.215.479 2.449-.057.612-.115.651-.096.842-.038 1.264v.841l.249.843.344.784.46.842.478.823 1.743 9.626.191 2.03.307 4.362-.135 2.967-1.148 9.167-.096 1.972.191 1.071.46 2.01.69 2.737.42 1.434.134.728.097.747.133.554 2.825 5.34 1.1 1.598 2.442 2.717.517.412.287.325.584.87 1.408 2.623 2.403 4.421.918 1.655.345.622.536.833 1.34 2.354.431.583.393.508 1.637 1.588 1.321 1.225 2.403 2.21.488.689.68 1.09 1.37 2.45 2.23 3.455.526.69.422.41.2.163.173.268.345.632 1.503 3.195 1.723 3.389 2.078 3.444 2.374 4.277 2.01 3.464M251 557.067l.397.22.302.23.554.468.297.393.25.43.181.47.307.803M248.836 554.177l-.403.426-.248.191-.393.225-.852.479-.264.143-.281.206-.14.196-.048.21.044.211.134.282.33.623.086.296.101.407.13.392.114.287.134.254.125.167.124.153.177.077.225-.005.21-.052.656-.326.46-.308.244-.197.249-.224.242-.292.184-.24.239-.267.213-.209.172-.126.2-.089" clip-path="url(#pee8f1ef728)" style="fill:none;stroke:#000"/><path d="m248.836 554.177.43.699.623.976.545.708.566.507M418.548 465.827l2.969 5.674M408.71 447.158l7.149-4.583.555-.307.565-.249 1.005-.545.89-.545.498-.364.354-.335.24-.22.19-.184.418-.309.373-.29.421-.349.766-.442 1.807-1.263.206-.13.25-.076.193-.033.179.023.16.087.752 1.253M400.168 502.15l.436-.267M406.282 498.43l-1.447-2.804M406.282 498.43l-5.678 3.453M201.162 281.265l2.763.693 1.475.554.852.412 2.106 1.693 1.034.833 2.25 1.474 1.991 1.215 1.426.641 1.781.603 1.695.344 2.45.46 1.628.172h1.312l1.445-.115 1.322-.325 1.398.038 1.148.21 1.34.346 1.11.478.959.65.574.728.555.765.613.862.364.363.497.325.71.498.822.22 3.562.87 6.567 1.456.786.095h4.7M199.254 281.02l.746-.89M201.162 281.265l-.942-.235-.966-.01M200 280.13l-.574-.966-.737-.692-1.159-.562-1.944-1.59-2.019-1.463-3.112-3.062-6.567-5.388-1.398-1.052-1.159-.421-1.014-.24-1.005-.592-3.18-3.465-.305-.832-.182-1.13-.192-.478-.67-.842-.842-.574-1.025-.392-1.11-.201-.249-.115-2.518-2.373-.718-1.082-2.432-1.464-2.872-1.473-.345-.508-.287-.813-.555-1.378-.412-.861-1.09-1.12-2.107-1.952-.508-.852-.43-1.062-.786-1.158-1.168-1.11-.68-.478-1.36-1.215-.458-.517-.709-1.167-.832-.795-2.423-1.636-.484-.292-.895-.053-1.435-.258-2.183-.574-.46-.258-1.57-1.397-.757-.92-.267-.22-1.393-.55-3.605-2.693-.632-.325-.88-.709-1.245-.67-.46-.038-1.129-.478-1.838-.383-4.294-.148-.838-.396-3.13-.116-.517-.21-3.677-3.034-.833-1.196-2.49-2.402-.258-.479-1.072-4.143-.162-3.158-.489-.765-.64-1.187-2.088-4.057-.584-2.077.096-.727.316-.66.01-.336-.795-2.028-.575-2.976-.2-.373-1.36-.976-.92-1.254-.708-1.75-.23-.9-.565-1.14-1.598-2.171-1.26-3.144-.042-.473.45-1.991 1.636-9.445.269-1.33 1.704-4.402.517-.86 1.675-1.8.306-.526.747-1.991-.038-.708-.45-1.703.019-.833 1.628-5.923 2.154-2.01.47-.143 2.402-.497 1.743-.776.373-.593.2-2.076.67-8.91.106-.88.079-2.483.065-.187-.076-.861.009-.861.306-.938.287-.804-.076-1.512.162-.956.384-1.254 1.043-2.45M201.162 281.265 200 280.13M488.786 398.212l-7.212 4.617M488.786 398.212l-6.199-6.383M532.72 370.991l-1.585.686-3.045 1.58-4.46 2.774-34.844 22.181M374.988 476.248l3.68-2.392M474.893 407.107l.384.866.034.148-.01.139-.057.115-.096.105-3.743 3.062-.134.24.01.22.057.248 2.614 6.316M474.893 407.107l6.681-4.278M482.587 391.83l1.494-1.885.258-.517.039-.393-.058-.277-.144-.364-1.345-1.703-.273-.215-.243-.1-.255-.015-.249.034-.253.114-1.317.929-1.024.976-2.566 2.535M482.587 391.83l-.201.167-.22.168-.173.191-.306.287-1.33.985-.67.776-.863 1.445-.56.8-.052.185-.014.22.09.235 3.286 5.54M637.27 175.816l-2.299 6.699-1.57.536-3.101 2.028-3.103 7.005-2.833 15.846-1.226 13.168-19.147 26.334-12.867 40.573-.307 6.89-6.893 10.717-34.77 48.84-11.643 7.58-4.79 8.959M268.904 538.54l2.44-.228 8.099-4.976.701-2.06M373.756 421.26l-1.04.44-.775.51-.224.39.007.293.14.517.223.586.336.593.195.181.44-.013 3.114-1.57.447-.029.272.015.21.042.558.124" clip-path="url(#pee8f1ef728)" style="fill:none;stroke:#000"/></g><g id="PatchCollection_1"><path d="m1178.762-159.492-13.816-.028-8.272-.803-7.02-3.646-4.234-4.036-6.629-5.791-3.15.148-5.056 3.631-7.32 8.274-5.474 11.963.262 6.629.3 21.027 3.313 17.785-.304 17.785-1.358 7.989-1.96 5.02-6.22 9.946-4.202 4.711-6.371 7.547-2.888 2.19-11.796 14.028-9.707 15.674-7.254 7.325-8.247 4.72-11.052 4.005L1035.735.54l-12.498 5.155-8.861 4.613-15.164 7.263-6.98.978-10.514-.808-12.637-3.278-12.344-4.245-12.736-5.337-11.031-3.88-10.368-7.821-15.221-14.279-11.407-9.047-8.712-5.157-11.023-7.05-11.996-6.617-11.617-4.296-7.807-2.323-6.955-2.65-10.28-1.361-9.043.462-10.162 2.354-10.545 6.424-13.569 12.093-10.26 10.678-16.588 14.67-12.352 4.133-10.97 2.195-8.599 3.086-7.075 5.606-5.686 6.117-3.425 4.112-9.709 5.005-4.424 2.085-5.048 4.254-15.416.949-19.06-5.076-9.23-3.9-11.835-4.765-8.77-.194-14.297.549-9.95-1.41-11.68-.957-9.223-1.462-14.488-.627-25.845-3.885-10.63-4.282-12.977-6.06-9.025-4.282-12.472-6.837-8.216-1.332-7.362-.135-10.354 1.95-13.394 2.718-14.083 2.827-12.37 2.511-6.185 2.362-8.656 1.907-52.224 25.692-5.362 7.997-4.222 7.935-3.053 8.234-1.614 7.062-3.056 3.81-1.473 6.887-3.19 4.965-1.735 6.095-1.537 3.797-2.855 1.804-1.099 3.34-4.144 17.708-6.097 29.957-5.127 16.67-1.011 8.144-1.874 12.532-3.859 3.006-2.812 6.78-2.53 4.642-4.018 7.644-7.115 4.845-6.276 11.042-6.192 14.917-12.279 53.151-.626 11.831-2.356 12.544 1.417 12.107 2.523 13.323 4.03 10.808 7.104 23.427 4.892 11.702 2.713 9.083 1.454 4.059 1.417 5.703.24 3.66 4.352 16.492 1.152 4.995 1.426 7.23 1.169 10.64 4.282 10.837 3.703 13.041 7.648 22.097 2.528 7.96 3.961 9.22 3.813 6.703 2.948 5.665 5.525 13.735 2.38 5.162 6.116 7.006 7.124 4.72 3.9 1.414 5.338 1.863 4.465.587 6.631-.645 5.153-1.135 4.836-2.24 5.501-2.146 3.383-3.211 3.983-3.216 1.8-2.335 2.962-1.91 4.084-4.712 3.235-2.777 2.024-3.24 6.423-6.6 3.37-4.705 2.143-2.696.766-2.564 2.412-2.22 1.886-3.503 5.39-8.67 1.57-2.755 3.7-3.953 1.585-5.195 1.609-2.182.804-3.368 2.144-2.296 1.19-4.11 1.032-1.44 3.676-1.532 2.642.613 3.217-1.302 1.494.278 1.378-1.005 2.106.115 4.481 1.502 3.906.565 6.893 2.168 9.377 6.37 5.136 4.17 4.52 4.21 7.098 6.851 3.47 4.02 3.83 3.482 9.942 8.77 5.644 2.905 6 2.25 6.834 1.177 6.237-.06 12.288-1.855 29.16-8.53 41.282-14.322 24.135-6.73 18.954-2.777 27.835-1.447 22.147-3.81 26.955-.362 23.32 6.893 14.627 4.613 3.512 2.42-3.519 6.782-37.483-13.507-23.193-1.011-30.595 4.081-24.355 2.079-17.176 3.037-29.84 9.583-22.144 6.259-35.286 12.653-12.177 3.024-9.198 1.374-9.039-.6h-2.924l-4.863-1.837-6.882-3.22-3.803-1.756-3.561-2.296-6.51-6.086-2.106-.727-2.037-1.596-4.397-5.026-4.021-2.029-3.6-2.718-3.484-3.291-2.643-4.325-2.412-2.373-2.305-1.463-1.525-1.905-2.872-2.872-4.842-2.312-7.183-1.86-3.628-.151-3.877.228-3.103 1.493-1.614 2.2-.223 3.235-1.838 2.488-.92 4.594-1.076 3.538-2.28 5.723-4.543 6.053-4.606 3.599-5.019 6.79-3.468 5.74-4.164 5.693-6.322 7.437-6.997 7.003-3.4 3.782-5.928 5.063-3.703 2.886-5.438 3.216-1.503 1.17-6.922 2.571-6.282 1.396-7.466.72-2.641-.291-7.052-.372-6.39-2.668-3.907-2.335-2.397-3.123-6.065-4.685-5.125-4.663-4.373-6.82-4.585-7.834-3.436-7.324-4.683-9.885-1.924-4.812-2.222-4.593-2.46-7.248-4.164-14.57-1.991-5.856-5.592-16.038-.3-3.506-2.074-4.608-2.505-8.718-2.284-10.048-.764-5.271-2.187-8.49-4.44-24.93-2.631-8.895-1.5-13.337-4.06-12.825-5.483-13.116-4.205-16.358-2.863-4.057-.986-11.596.842-11.12 1.883-7.488 3.182-15.969.236-13.261 3.062-12.922 1.41-9.294 6.061-15.898 2.117-8.741 4.392-8.67 5.31-4.678 3.556-5.132 5.798-7.477 3.465-4.683 3.658-6.619 8.93-37.538 1.594-13.691 2.119-11.174 1.577-6.885 1.947-7.027 3.715-12.916 2.81-6.107 2.875-6.753 3.117-7.597 2.532-4.4 2.314-4.964 5.195-16.73 3.908-8.933 5.531-7.362 3.014-2.529 10.718-4.296 12.246-7.511 11.77-7.175 13.467-6.193 9.762-3.691 5.342-.005 5.066.032 4.168-2.333 8.444-2.89 9.007-2.762 10.087-2.098 15.822-2.943 10.252-.461 6.718 3.423 6.272 2.261 28.284 12.107 25.917 7.247 29.48 4.74 21.293 1.927 27.808 1.94 6.182.653 13.492 3.25 7.512 3.642 12.428 3.852 10.115 2.058 8.12-1.907 8-4.95 8.85-7.47 6.031-6.04 4.727-3.828 10.345-5.108 7.383-1.923 9.376-3.347 11.724-5.509 10.494-8.866 10.373-10.652 4.528-5.291 8.007-5.78 5.157-3.915 9.952-6.77 9.445-4.091 19.373-.808 22.404 6.587 18.114 7.219 14.04 6.69 11.553 6.208 11.634 7.893 13.378 15.124 13.391 11.99 7.96 2.72 19.88 5.121 10.383 6.299 9.782 2.788 8.725-.045 6.183-1.52 6.014-2.02 14.515-6.477 16.284-6.327 13.043-4.51 9.005-4.35 5.559-2.34 4.217-2.694 7.74-9.314 5.25-8.612 5.04-6.905 9.939-11.939 3.246-3.689 9.11-12.984 2.113-4.508 2.968-9.532.136-13.763-.906-14.876-1.486-11.43-.478-16.852.57-7.545 3.397-9.65 7.784-12.085 5.996-7.495 4.503-3.14 6.613 1.122 3.614 2.776 3.697 2.749 5.631 6.04 4.79 3.514 7.144 1.603 8.183-.134 8.963-1.077-.587 3.537z" clip-path="url(#pee8f1ef728)" style="fill:#00f;fill-opacity:.8"/><path d="m421.13 483.595 1.847-.22.88-2.242-.264-1.144-.572-.263-.308.395-.792-.22-.748 1.232-.22 1.67-.307.528zM432.134 427.145l-1.334 1.267.467 2.665.8 1.133 1.134-.8-.4-3.598zM416.7 389.165l.697 2.147 1.045-.058 1.393-1.508 5.108-.87-.116-.929-.406-.58-2.555.29h-.638l-1.857.406-.638 1.102-1.22-.811z" clip-path="url(#pee8f1ef728)" style="fill:#00f;fill-opacity:.8"/></g><g id="PatchCollection_2"><path d="m333.627 483.46 2.106 3.483-1.34.842-2.106-3.483zM373.52 487.74l1.14 2.492 2.874-1.315-1.142-2.492zM373.743 474.091l1.208 1.836 3.365-2.068-.986-1.76-.484-.134z" clip-path="url(#pee8f1ef728)" style="fill:green;fill-opacity:.8"/></g><g id="PatchCollection_3"><path d="m377.243 476.304-1.275.82 1.263 1.964 1.276-.82zM402.33 456.642l1.136 1.76 1.094-.707-1.135-1.758zM351.61 464.017l2.84 5.402 3.78-1.985-2.838-5.402z" clip-path="url(#pee8f1ef728)" style="fill:#90ee90;fill-opacity:.8"/></g><g id="PatchCollection_4"><path d="m149.504 616.992.577.833.608-.422-.577-.833zM371.415 467.462l-.09.35-.824.533.396.61.887-.573.259.04.268.407.533-.351-.254-.385.053-.266.935-.615-.4-.607-.874.575-.35-.067-.292-.449-.107-.073-.111-.004-.104.01-.16.103-.055.096-.022.103.003.092zM376.858 475.511l1.598-.942 1.67 2.697-1.556.998zM403.502 455.843l1.395 2.203.457-.289-.77-1.215.182-.115.248.39.527-.333-.887-1.4-.424.268.287.453-.377.239-.274-.431zM343.12 208.974l-.005.3.859.016.008-.512-.514-.008-.003.21zM292.434 520.936l.23.441-.551.27-.245-.44.083-.05z" clip-path="url(#pee8f1ef728)" style="fill:#a9a9a9;fill-opacity:.8"/></g></g></g><defs><clipPath id="pee8f1ef728"><path d="M90 111.568h558v504.063H90z"/></clipPath></defs></svg>