<svg xmlns="http://www.w3.org/2000/svg" xmlns:xlink="http://www.w3.org/1999/xlink" width="960" height="960" viewBox="0 0 720 720"><defs><style>*{stroke-linejoin:round;stroke-linecap:butt}</style></defs><g id="figure_1"><path id="patch_1" d="M0 720h720V0H0z" style="fill:#fff"/><g id="axes_1"><path id="patch_2" d="M90 611.523h558V115.677H90z" style="fill:#fff"/><g id="LineCollection_1"><path d="m228.963 560.756-1.497-4.329M229.561 571.584l.069-4.959-.667-5.869M157.969 537.48l1.241.473 6.26 2.017 11.676 4.303 5.33 1.073 3.464.51 1.825.613 1.968.997.97 1.452.811.555 6.857 2.221 4.662.114 1.055.164 2.551 1.186 1.027.303 1.197-.037 6.757-1.313 1.283.202.698.492 3.051 4.051.984 1.704.707.779 3.669 1.632 1.44.138 1.51-.353M250.326 487.45l2.22-2.38.807-1.241.171-.846" clip-path="url(#pac5777eb58)" style="fill:none;stroke:#000"/><path d="m243.119 489.645 1.887-.585 2.852-1.205 1.924-1.382 3.742-3.49" clip-path="url(#pac5777eb58)" style="fill:none;stroke:#000"/><path d="m264.376 467.754-2.955 5.497-2.732 4.165-1.675 1.99-3.49 3.577M226.78 593.976l-.783 3.236M229.176 584.42l-.207 2.211-2.188 7.345M225.883 597.662l-3.808-.263-.19-.095-.064-.145.328-1.78.698-1.64.121-.126.179-.013.612.133.129-.044.235-.316.136-.006 2.522.609M342.59 382.259l4.6-1.255M365.257 370.52l-4.001 2.222M365.257 370.52l4.445-2.703M365.257 370.52l-7.563-10.06M365.257 370.52l3.191 4.519M256.789 452.979l-.699-.278-.356-.644-.043-4.241-.242-4.292.1-6.21-.428-1.137-1.397-1.931-1.11-1.747-1.716-3.96-.325-1.248.121-1.383.447-1.886.348-2.246.552-1.397 1.426-2.053 2.405-5.222 1.102-3.197.685-2.651.279-1.634.247-2.645.016-2.235.014-1.155M269.156 398.337l-.235.108-3.193 1.313-2.338.605-2.566.013-1.59-.429-1.019-.36" clip-path="url(#pac5777eb58)" style="fill:none;stroke:#000"/><path d="m254.034 398.798 1.666.29 2.515.5M258.47 386.06l-.605 2.64-.05 1.287.249 1.59.45 1.111.348 1.27-.078 1.11-.406 1.307-.128 1.123-.035 2.09M355.06 371.67l2.36-1.414M355.06 371.67l-4.866 2.916M355.06 371.67l2.491 3.25M302.226 388.34l-.035.366M302.226 388.34l-.72.327M307.97 353.137l.18 1.336.441 7.96.196 6.487-.243 1.573-.627 1.062-.829.653-7.98 4.91-.887.787-.085 1.326.391 1.47.898 1.547 2.48 5.309.321.783" clip-path="url(#pac5777eb58)" style="fill:none;stroke:#000"/><path d="m326.913 378.501-1.614 1.392-3.214 2.759-3.445 3.06-2.114 1.826-.728.343-4.714.272-2.648.199-5.217-.007-.993-.005M379.253 372.16l-2.252-2.903M379.253 372.16l2.357 2.962M379.253 372.16l5.108-3.738M331.749 380.309l3.846-.04M331.749 380.309l-.213 4.76M331.749 380.309l.246-5.497M328.826 380.272l.337.004 2.586.033M350.194 374.586l-4.286 2.567M350.194 374.586l1.33 3.61M350.194 374.586l-1.645-4.913M372.981 372.186l-3.279-4.369M372.981 372.186l4.134 5.554M372.981 372.186l4.02-2.929M372.981 372.186l-4.533 2.853M353.879 383.638l3.509-1.857M353.879 383.638l-.548.2M353.879 383.638l-2.014-5.2M353.879 383.638l1.972 5.429M379.258 359.884l-1.298-4.444M379.258 359.884l.68 1.773M379.258 359.884l-5.157.6M392.264 348.392l-1.55 1.197-3.088 3.2-.999 1.136-1.686 2.366-1.104 1.257-1.283 1.224-.464.36-2.832.752M368.348 382.077l4.006-1.887M368.348 382.077l-3.588-4.722M368.348 382.077l-3.747 2.203M370.568 385.293l-.169-.26-2.05-2.956M341.985 378.18l3.923-1.027M379.7 381.195l-2.585-3.455M379.7 381.195l2.49-1.333M379.7 381.195l-4.214 2.381M348.55 369.673l-3.963 2.324M348.55 369.673l-1.816-5.062M346.602 364.242l.132.369M346.602 364.242l-3.517 2.333-2.189 1.396M344.01 357.37l1.546 3.908 1.046 2.964M346.602 364.242l5.2-3.438M302.506 402.659l-.036-7.188M302.506 402.659l3.392-.02M302.506 402.659l-5.105.032M302.49 405.817l-.013-1.313.029-1.845M357.551 374.92l-3.435 2.202M357.551 374.92l3.705-2.178M357.551 374.92l3.258 4.664M348.167 385.285l1.31 5.516M348.167 385.285l5.164-1.446M347.19 381.004l.369 1.42.608 2.861" clip-path="url(#pac5777eb58)" style="fill:none;stroke:#000"/><path d="m337.469 388.008 5.535-1.345 5.163-1.378M347.19 381.004l-1.282-3.85M347.19 381.004l4.332-2.374M379.938 361.657l-6.016 3.459M382.18 365.843l-1.387-1.749-.4-.833-.455-1.604M382.19 379.862l5.098-4.122M382.19 379.862l1.116.925M305.898 402.639l.028 3.102M305.898 402.639l-.078-7.161M311.724 402.04l-2.119.577-3.707.022M384.361 368.422l-2.18-2.579M382.18 365.843l4.543-2.924 2.053 2.399-4.415 3.104M384.361 368.422l1.583 1.872M360.809 379.584l3.95-2.23M360.809 379.584l-3.421 2.197M360.809 379.584l3.792 4.696M372.354 380.19l4.761-2.45M372.354 380.19l-3.906-5.151M335.595 380.27l-.013-8.194M337.469 388.008l-2.435.628.357-3.907.204-4.46M384.706 379.863l2.701-.471M384.706 379.863l-1.4.924M388.1 376.354l-.667.798-2.727 2.71M369.702 367.817l-5.6-7.23M369.702 367.817l4.22-2.701M373.637 360.662l.003-.318M373.637 360.662l.285 4.454M373.637 360.662l.464-.178M373.637 360.662l-5.056-.03M302.47 395.471l-5.413-.067M302.47 395.471l3.35.007M302.191 388.706l-.378 3.945.064.921.593 1.9M358.822 369.442l-1.402.814M358.822 369.442l-2.7-3.457M358.822 369.442l2.434 3.3M364.6 384.28l-3.734 2.045M349.476 390.8l5.736-1.563M343.185 392.385l1.533-.37 4.758-1.214M311.407 395.2l-1.696.259-3.891.019M291.722 390.523l5.06-.966M287.507 391.94l.28-.048 3.935-1.37" clip-path="url(#pac5777eb58)" style="fill:none;stroke:#000"/><path d="m291.393 383.42.021 1.58.157 4.65.15.873M355.851 389.067l-.64.17M355.851 389.067l5.015-2.742M316.554 412.882l-15.89 12.394M316.554 412.882l2.075-1.507M315.505 412.704l.603-.024.446.202M345.908 377.153l-1.321-5.156M296.782 389.557l4.724-.89M296.782 389.557l.275 5.847M357.694 360.46l-.022-.43M357.694 360.46l6.407.127M352.785 360.694l1.715-.28 3.194.046M368.448 375.039l-3.688 2.316M361.256 372.742l3.504 4.613M360.866 386.325l-3.478-4.544M287.507 391.94l-5.443 1.38-2.367.959-1.083.404-1.168.48-3.165.959-2.709 1.06-2.416 1.155" clip-path="url(#pac5777eb58)" style="fill:none;stroke:#000"/><path d="m266.617 390.094.367.14.66-.026.317.079.153.23.335 1.452.171 5.286.121.521.415.561M311.407 395.2l9.251-2.544M311.407 395.2l-.304-6.637M311.724 402.04l-.19-4.078-.127-2.762M357.388 381.78l-3.272-4.658M381.61 375.122l-4.495 2.618M381.61 375.122l2.735-1.726M311.724 402.04l12.947-4.357M315.505 412.704l-2.398 1.598-.482.043-.34-.17-.019-.406-.372-8.052-.17-3.678M382.18 365.843l-5.179 3.414M354.116 377.122l-2.25 1.317M377.001 369.257l-3.079-4.141M352.017 360.321l-3.869-5.303M352.017 360.321l-.117.092-.079.119-.033.135.015.137M352.614 360.36l-.136-.074-.156-.033-.159.012-.146.056M367.796 388.377l-1.07.511M367.796 388.377l1.75-.397.892-.126 1.003-.064" clip-path="url(#pac5777eb58)" style="fill:none;stroke:#000"/><path d="m370.737 386.577-.29.191-.616.463-.477.29-1.558.856M276.856 262.038l-2.908 3.267M276.856 262.038l-1.433-.988M276.856 262.038l5.474 3.826M330.873 323.767l6.891-2.39M323.64 313.526l.076 1.72.486 1.567.855 1.868 1.967 2.475 2.2 1.43 1.649 1.18M335.229 328.655l-2.262-2.948-1.012-1.067-1.082-.873M339.519 325.985l-4.29 2.67M339.519 325.985l2.509 2.714M345.684 326.332l-1.69-.96-1.626-.619-.74-.05-2.11 1.282M345.974 352.077l7.743-3.814M345.974 352.077l-1.988-2.822M345.974 352.077l2.174 2.94M342.028 328.7l3.656-2.368M342.028 328.7l4.848 4.829M387.407 379.392l3.788 3.457M381.834 384.053l2.056-1.495 3.517-3.166M394.115 377.326l-2.716-2.489-3.992 4.555M355.76 395l-4.352 1.664M355.76 395l3.253-1.252M358.165 401.923l-1.324-3.632-1.08-3.29M339.797 359.618l.579 5.08M339.797 359.618l4.212-2.247M339.404 358.116l.115.587.278.915M363.147 398.722l3.562-2.5M363.147 398.722l3.752 4.363M363.147 398.722l-4.134-4.974M358.165 401.923l.468-.139.278-.12.233-.119 4.003-2.823M373.266 347.013l-4.4 1.408M373.266 347.013l-4.802-5.677M373.266 347.013l3.421 4.47M395.872 378.936l-1.757-1.61M395.872 378.936l2.377 2.18M395.872 378.936l1.763-1.474M395.872 378.936l-1.488 1.245M261.9 251.88l-5.005-3.454M261.9 251.88l5.16 3.475M261.9 251.88l-4.356 4.93M266.204 246.56l-2.292 2.816-2.013 2.504M368.866 348.42l-3.792 1.213M368.866 348.42l-4.137-5.27M368.866 348.42l3.478 4.495M338.208 347.978l2.359 3.176M340.567 351.154l-4.108 2.48-.295.028-.274-.123-.66-.919-1.29-1.909-.07-.305.252-.326 4.086-2.102M338.208 347.978l-1.576-2.101M324.045 329.508l-.242-1.863M321.368 343.518l-.202-11.984.255-.644 2.624-1.382" clip-path="url(#pac5777eb58)" style="fill:none;stroke:#000"/><path d="m324.772 341.963-.385-7.564-.23-4.198-.112-.693M345.684 326.332l1.625-1.155M345.684 326.332l5.068 5.524M391.195 382.849l-6.282 5.408M391.195 382.849l1.612-1.349M395.137 383.705l-1.571 1.308-2.371-2.164M362.888 392.158l3.821 4.065M362.888 392.158l-3.875 1.59M362.888 392.158l4.563-2.02M348.148 355.018l2.852-.933M348.148 355.018l-4.139 2.353M377.518 394.456l4.416 5.15M377.518 394.456l-2.74-3.336M377.518 394.456l2.333-1.887M370.377 400.258l3.574-2.844 3.567-2.958M350.752 331.856l-2.806 1.757M350.752 331.856l2.758-1.585M354.7 336.805l-2.638-3.485-1.31-1.464M367.45 390.138l-.725-1.25M371.932 388.156l-2.015 1.705-2.466.277M361.107 344.742l3.967 4.89M361.107 344.742l-3.558 1.638M361.107 344.742l3.622-1.593M360.795 338.082l3.934 5.067M360.795 338.082l-3.427 2.033M360.795 338.082l3.378-2.003M353.51 330.271l1.83 1.35 1.699 1.46 3.756 5.001M337.345 358.728l2.06-.612M352.338 356.376l5.549-.476M403.557 375.215l4.383-3.596M403.557 375.215l-1.595-1.372M405.7 375.968l-.616.56-1.527-1.313M401.427 384.028l-1.63-1.494M401.465 378.439l-2.322-2.238M401.465 378.439l-1.452 1.206M401.465 378.439l.645-.536M401.962 373.843l4.394-3.677M401.962 373.843l-2.82 2.358M398.249 381.115l1.548 1.42M398.249 381.115l-1.626 1.353M398.249 381.115l1.764-1.47M351.408 396.664l-2.397.898M349.466 395.98l.708.508.413.114.406.044.415.018M387.027 391.257l1.112 1.83M387.027 391.257l-2.114-3M387.027 391.257l-1.373.472M364.101 360.587l4.48.044M364.101 360.587l.008-.314M381.077 391.577l-6.3-.457M381.077 391.577l1.016-.899M381.077 391.577l-1.226.992M385.654 391.729l-1.14-.252-1.013-.203-1.043-.06-.568.035-.813.328M368.705 353.982l-3.631-4.35M368.705 353.982l-.118 6.307M368.705 353.982l-4.249 1.203M368.705 353.982l3.64-1.067M381.834 384.053l-3.35 1.818M381.834 384.053l3.079 4.204M339.404 358.116l-.193-2.43M370.762 337.614l-8.503-4.697M385.654 391.729l2.485 1.358M351.204 338.923l2.644 3.28M351.204 338.923l.345-.209M351.204 338.923l-.859-.975M399.143 376.2l-1.719-1.657M399.143 376.2l-1.508 1.262M373.684 355.49l-.044 4.854M373.684 355.49l4.276-.05M372.344 352.915l1.368 1.768-.028.808M354.7 336.805l2.668 3.31M354.7 336.805l-3.151 1.91M394.94 397.352l-.928-1.09-1.078-.693-1.574-.21-1.586-.626-1.635-1.646M343.204 342.07l-3.103 1.777M343.204 342.07l3.913-2.203M345.542 346.117l-1.703-2.949-.635-1.098M357.368 340.115l-3.188 1.89M397.635 377.462l-1.762-1.617M397.635 377.462l2.378 2.183M302.503 355.414l5.467-2.277M294.907 358.437l3.798-1.375 3.798-1.648M301.999 348.732l.056 1.24.052 4.742.396.7M403.352 382.709l-1.83-1.68M407.94 371.619l1.46 1.338M407.94 371.619l-1.584-1.453M394.384 380.181l2.239 2.287M394.384 380.181l-1.577 1.32M364.173 336.08l-1.914-3.163M364.173 336.08l4.291 5.256M294.099 366.888l.179-.981.302-5.865.127-.893.2-.712" clip-path="url(#pac5777eb58)" style="fill:none;stroke:#000"/><path d="m290.826 359.673 2.028-.632 2.053-.604M396.623 382.468l-1.486 1.237M347.309 325.177l.64.599 2.535 1.32 1.043.807 1.983 2.368M378.484 385.87l-2.138.771M378.484 385.87l1.995 2.677M356.903 327.481l1.76 1.704 3.596 3.732M384.913 388.257l-2.82 2.421M360.866 350.977l3.138 4.336M360.866 350.977l.336-.107M360.866 350.977l-4.063 1.212M360.866 350.977l-3.635-4.45M350.345 337.948l-3.228 1.92M350.345 337.948l.41-.22M350.345 337.948l-3.093-3.668M401.521 381.029l-1.508-1.384M401.521 381.029l1.538-1.344M401.521 381.029l-1.724 1.505M370.377 400.258l-3.668-4.035M370.377 400.258l-3.478 2.827M351.165 345.024l2.552 3.239M351.165 345.024l-4.048-5.157M351.165 345.024l3.463-1.912M351.165 345.024l-7.18 4.23M450.718 365.238l-7.72 2.66-15.648 6.719h-3.794l-6.717 3.849-2.292 4.619-2.292 2.73-2.845.91-2.769 1.994-3.952 4.979-1.692 1.207-1.559.484-1.055.834-1.852.757-1.59.372" clip-path="url(#pac5777eb58)" style="fill:none;stroke:#000"/><path d="m396.874 400.74-.24-.482-1.693-2.906M343.649 335.139l1.801 2.562M343.649 335.139l-.314-.46M343.649 335.139l3.603-.86M343.649 335.139l-4.304.822M380.48 388.547l1.613 2.131M373.594 389.812l1.54-.583 1.055-.202 4.29-.48M340.567 351.154l3.419-1.9M344.01 357.37l-1.39-3.59-2.053-2.626M354.628 343.112l2.603 3.415M354.628 343.112l.314-.14M354.628 343.112l-.78-.91M353.717 348.263l3.514-1.736M353.717 348.263l3.086 3.926M374.777 391.12l-1.183-1.308M349.466 395.98l-.474.17M366.725 388.888l-7.765 3.255-9.494 3.837M368.464 341.336l-3.735 1.813M409.4 372.957l-3.7 3.011M405.7 375.968l1.522.56 3.05-2.771-.872-.8M386.98 371.517l-2.635 1.88M386.98 371.517l3.502-2.274M386.98 371.517l-1.036-1.223M376.687 351.482l-4.343 1.433M376.687 351.482l.419.613M319.857 344.178l1.51-.66M365.074 349.633l-3.872 1.237M395.137 383.705l1.664 1.534 2.996-2.705M335.229 328.655l1.764 2.538M282.33 265.864l-4.295 4.937M282.33 265.864l9.048 5.931M286.938 261.23l-.656.391-.898.857-3.054 3.386M324.772 341.963l-3.404 1.555M324.772 341.963l.2 3.964M361.122 409.327l.713-.556 1.796-2.6 3.268-3.086M343.708 322.91l1.547.72 2.054 1.547M256.895 248.426l-.303-.237M256.895 248.426l4.373-5.187M256.895 248.426l-4.19 4.935M353.848 342.202l.332-.197M364.222 355.707l.234-.522M364.222 355.707l-.113 4.566M364.222 355.707l-.218-.394M304.432 281.398l-1.653-2.042-1.258-1.27-2.06-1.287-2.523-1.465-2.385-1.537-3.175-2.002M296.282 268.452l-2.313 1.585-2.59 1.758M339.345 335.96l-.059-.5M338.3 339.416l.669-1.709.376-1.746M339.582 426.71l.784-.7 3.656-3.485.991-1.073 1.187-.918 1.425-1.083 2.092-1.42 2.167-1.855 1.212-1.105 1.111-.833.67-.619 1.355-1.691.556-.392 2.865-1.653 1.47-.556" clip-path="url(#pac5777eb58)" style="fill:none;stroke:#000"/><path d="m365.17 415.588-4.288-4.702.24-1.56M395.137 383.705l-2.33-2.205M368.58 360.631l.007-.342M324.971 345.927l8.183-4.798M316.497 349.742l4.612-1.865 3.862-1.95M357.23 346.527l.319-.147M267.06 255.355l6.03 4.227M267.06 255.355l1.617-1.502M267.06 255.355l-2.508 2.777M321.32 302.854l1.47 2.349.84 1.445.56 1.847-.031 2.219-.518 2.812M334.156 312.379l-1.167.26-.506-.086-.389-.28-.39-.223-1.163-.446-2.265-1.064-.769.004-1.097.457-1.416.993-1.353 1.532M356.439 402.226l1.034-.196.692-.107M340.101 343.847l-3.469 2.03M340.101 343.847l-2.532-3.698M340.101 343.847l3.885 5.408M336.632 345.877l-3.478-4.748M328.84 354.24l4.027-.493.111-.085.053-.132-.007-.565-.1-2.228-.082-2.298.084-.337 3.706-2.225M333.154 341.13l4.415-.98M337.57 340.15l.73-.734M377.106 352.095l.308.901.297 1.07.25 1.374M357.887 355.9l6.117-.587M357.887 355.9l-.215 4.13M356.803 352.19l.984 2.108.1 1.602M405.527 344.481l-1.696 1.03-2.14 1.62-1.709 1.887-1.44 1.763-1.094 1.748" clip-path="url(#pac5777eb58)" style="fill:none;stroke:#000"/><path d="m398.579 345.527.105 1.216-.197 1.375-.451 1.373-.599 1.484-.133.712.144.842M394.818 361.758l1.28-5.899.686-1.84.664-1.49M397.448 352.529l.106-.016-.06.083-.046-.067" clip-path="url(#pac5777eb58)" style="fill:none;stroke:#000"/><path d="m397.448 352.529.045.067.061-.083-.106.016M356.803 352.19 351 354.084M347.117 339.867l-1.667-2.166M301.85 345.466l5.738-.48M301.85 345.466l-.033-2.92M301.85 345.466l.149 3.266M302.547 411.705l.089 9.374-.039 1.03-.264.608-1.4 1.171-.4.38-.046.403.176.605M288.805 434.453l10.057-7.798 1.801-1.379M234.693 200.058l-2.238-6.778M248.92 203.237l-.578-.625-.449-.41-.442-.162-.349-.066-.477.032-.55.057-1.325.182-.449.057-.955-.208-.97-.272-1.446-.555-1.17-.278-1.147-.297-1.411-.253-1.447-.252-1.062-.13M240.16 220.42l-.125-.15-.763-.875-.441-.692-.18-.621-.12-.689.114-1.187.196-.9.378-1.082.627-1.358.253-.65.17-.48.126-.482.007-.645-.078-.468-.756-1.594-.848-1.357-1.56-2.374-2.467-4.758M247.102 241.525l-.57-.238M251.564 244.694l-2.751-1.843-1.276-.916-.435-.41M248.67 229.352l.42 1.086.111.559v.614l.082 1.415-.15 1.652-.222 1.696-.22 1.006-.317.855-.317.673-.363.577-.325.563-.281.473-.064.376.025.353.053.275M249.012 219.616l-.47 4.545-.171 1.693.143 1.174.099.676.057 1.648M240.16 220.42l1.005.92 2.563 1.946 1.334 1.216 1.18 1.268 1.994 2.83.434.752M272.934 263.697l2.49-2.647M270.937 262.486l1.133.726.274.089.348.126.242.27M273.948 265.305l-.574-.67-.278-.337-.128-.306-.034-.295M251.065 204.196l.35.544.49 1.143.147 1.123.075.793-.064.445-.178.704-.15.691-.353 1.109-.617 2.497-.897 3.195-.407 1.531-.449 1.645M263.994 230.507l-1.325-1.231-1.786-1.234-1.365-.932-1.225-1.042-2.691-1.68-1.266-.826-1.19-1.042-2.672-1.907-1.462-.997M258.146 240.982l3.122 2.257M263.994 230.507l-2.167 3.656-2.501 4.148-1.18 2.67M254.051 246.427l1.297-1.461 1.106-1.285.655-.875.578-.883.46-.941M261.268 243.239l2.213 1.405 2.053 1.389.67.527M274.343 237.56l-.691.865-.752.615-3.125 3.347-3.571 4.173M243.078 255.2l4.41-5.18M243.078 255.2l-.44-.298M243.078 255.2l4.773 3.32M238.593 260.366l.513-.542 3.972-4.625M264.552 258.132l-1.777 2.094M267.712 260.27l-.219-.151-2.94-1.987M240.973 278.358l-.08 2.829.136.845.214.524M252.74 299.463l-1.254-3.453-.724-1.957-.716-1.932-1.279-2.077-1.872-2.765-1.09-1.225-1.112-.896-1.247-.802-1.362-.934-.84-.866" clip-path="url(#pac5777eb58)" style="fill:none;stroke:#000"/><path d="m240.267 283.32.599-.51.377-.254M273.948 265.305l-1.375 1.66M237.822 251.86l4.49-5.366M237.822 251.86l-4.284 4.931M237.822 251.86l4.816 3.042M264.95 221.359l-.075-.95v-.614l.06-.836.314-2.81.128-1.585.15-.404.221-.334.548-.525.45-.372.185-.373-.014-.208-.057-.196-.1-.138-.207-.253-.114-.24-.036-.29.107-.392.279-.398.32-.448 1.026-1.282 1.055-1.206.52-.202.35-.088.463-.24.52-.329.678-.625 1.56-.58M252.704 253.36l4.84 3.45M252.704 253.36l-.315-.21M248.269 258.74l.556-.725 3.88-4.654M247.487 259.497l-1.547 1.733-3.634 4.224-3.942 4.406M238.013 260.8l-3.544 4.221-.314.578-.06.186-.03.29.008.212.053.177.62 1.004.988.972 2.63 1.42M241.318 276.199l.146-2.15-.078-1.404-.064-.578-.264-.363-.734-.89-1.96-.954M272.573 266.966l-3.568-2.44M278.035 270.8l-.84-.627-1.398-.96-3.224-2.247M247.489 250.02l4.9 3.13M247.489 250.02l-.428-.311M247.489 250.02l2.168-2.576M251.813 244.88l-.249-.186M251.813 244.88l2.238 1.547M251.813 244.88l-.998 1.187M257.544 256.81l5.231 3.416M253.23 262.109l3.737-4.585.577-.714M275.423 261.05l-2.334-1.468M264.95 221.359l-.171.795-.05.707.12.612.221.563.243.751.17.707.086.675-.006 1.49-.314.682-1.255 2.166M262.775 260.226l3.037 2.21M258.185 265.315l1.319-1.37 2.024-2.255 1.247-1.464M253.23 262.109l-1.331 1.255-2.302 2.708-1.465 1.72-1.312 1.49-1.115 1.427-1.04 1.307-1.066 1.652-.545.675-.635.631-1.1 1.225M240.973 278.358l.224-1.202.121-.957M137.716 163.626l1.098.152.563.177.577.297.47.43.692 1.06.478.505.291.234 1.526.625 3.15 1.566.863.398.591.151.934.14 1.447.024.634.165.592.297 3.371 4.009 1.646 1.497.792.814 1.525 2.35.684.757 2.46 1.642.676.499 7.306 7.892.891.67 1.796 1.017 1.533.53 2.401.869 1.711.407 1.397.018 1.853.013.927.088.592.143.369.222.208.21.442.448 1.404 3.056.456.518.698.461 1.086.483 4.488 2.262 1.882 1.183.306.075.197-.047.634-.217.296-.02 1.446.196.823.02.546-.086.745-.08.702-.207.492-.26.27-.27.378-.345.545-.256.589-.082.705.025.745.212.709.227.599.048.342-.026.812.278.3.246.763.846.648.89.285.462.37.486.542.347 1.105.543 1.854.67 1.589.549.542.271.37.25.253.293.414 1.228.217.932.029.505-.079.682-.37.543-.371.303-.492.139-.805.145-.663.354-.57.467-.4.42-.613.562-.52.537-.42.514-.143.764-.014 1.818-.029 1.099-.05.72-.413 1.004-.37.878-.264.669-.1.751.142.814.52 1.124.878 1.541.634 1.124.435.575.42.363.667.404 1.321.792.436.322.498.524.2.297.242.473.51 2.431.246.717.274.568 1.71 2.194.813.89 1.476 1.655.556.776.495.713.478 1.528.342 1.22.292 1.218.35 1.269.434 2.07.171 1.017" clip-path="url(#pac5777eb58)" style="fill:none;stroke:#000"/><path d="m169.291 235.154.2 2.463.555 5.455.378 3.302.292 1.976.385.751.685.569 1.026.246 1.14.094 1.91-.056 1.476-.19 1.447-.195 2.63-.581.748-.278 1.297-.594 1.39-.46.792-.165 1.824-.082 1.066-.385 2.666-2.26 1.542-1.465 1.526-1.174 1.226-.777 1.14-.701.806-.397.777-.272.733-.228.827-.094.924-.016 1.015-.202 1.468-.212.959-.028 1.262.11 1 .14.878-.051.57-.057.691-.107.884-.158.506-.006.734.126.563.215.777.29 1.732.657 1.718.498 1.504.474 1.112.423.94.43.763.561.727.903.63 1.2 1.223 2.424.877 1.326M225.534 251.286l-.506-.379-.656-.537-.563-.643-.577-1.13M264.686 286.673l2.53-3.043 5.14-5.916 2.6-3.22 1.49-1.843 1.59-1.85M254.051 246.427l2.541 1.762M264.686 286.673l2.457 2.717M261.965 289.442l1.16-1.507 1.56-1.262M242.312 246.494l.506-.676M242.312 246.494l4.749 3.215M233.538 256.791l4.738 3.347M225.534 251.286l2.687 2.127 5.317 3.378M311.065 201.513l-3.2-.17-1.782-.404-2.324-.67-1.74-.442-1.111.063-.663.215-.741.435-1.483.96-2.288.916-2.124.764-1.889.707-1.589.815-1.54 1.01-2.213 1.945-2.462 2.014-2.082 1.78-2.066 1.895-1.561 1.13-1.333.575-1.419.29-.72.328-.448.297-.385.34-.948.86-1.219.795-2.181.777-2.138 1.004-1.604.852-.863.765M270.937 262.486l-.286-.164M270.937 262.486l-1.932 2.04M261.965 289.442l-.9 1.46-2.815 3.328-2.374 2.702-1.621 1.377-1.515 1.154M253.551 304.84l.084-.869-.774-3.352-.121-1.156M253.23 262.109l4.955 3.206M248.269 258.74l1.677 1.075 3.284 2.294M426.694 234.702l-1.318-3.81M426.694 234.702l8.789-3.996M416.954 239.138l.725-.345 3.536-1.438 5.479-2.653M398.54 344.32l.039 1.207M398.54 344.32l1.377-8.183M355.173 317.864l1.928.993.599.43.499.517.442.556 2.566 3.068 3.335 4.343 1.112.985 1.198.757 1.368.556 5.417 2.222 8.097 3.257 7.869 2.904 1.397.53 1.31.632 1.141.58 1.283.733 1.14.783 1.084.933.884.998.313.392.385.287M398.579 345.527l5.057-2.208M396.357 346.293l1.428-.505.794-.261M241.713 142.56l-4.003-6.485M239.791 144.992l.144-.414.367-.675.157-.246.246-.257.478-.426.53-.413M260.773 135.643l-.518.546-3.346 3.318-1.679 1.78-.962.8-1.196.67-1.262.194-1.46-.06-2.93-.186-1.326-.144-1.383-.15-1.419-.107-.887.028-.692.229M233.24 180.811l-1.096 6.173-.27 1.713-.096 1.495.328 1.829.35 1.259M228.043 193.28l1.69-.007 1.774.032.948-.025M602.6 237.973l1.966-.506 5.129-1.693 3.083-1.25M582.256 188.764l.618.298 4.368 2.996 2.806 2.475 1.996 2.101 1.937 1.883 1.655 1.945 2.372 3.983 1.631 3.65 2.689 5.856 2.888 6.261 2.421 5.475 1.22 3.144 1.966 3.454 1.077 1.408.878.83M617.79 239.07l-1.058-2.206-3.954-2.34M530.236 128.643l-.392.293-1.369 1.213-3.984 2.845-3.767 2.856-5.591 4.16-.542.508-.168.483.036.644.296.824.548 1.039.71.713 3.3 1.845 1.46 1.019 1.967.933.635.51 2.372 3.524 2.971 4.256 1.902 3.612 1.896 6.288" clip-path="url(#pac5777eb58)" style="fill:none;stroke:#000"/><path d="m512.216 156.299 13.06 5.955 7.24 3.954M582.256 188.764l-3.515-1.698-4.766-2.195-3.804-1.644-7.161-3.213-10.414-4.878-10.405-4.811-9.675-4.117M493.287 137.692l.905 1.642 2.611 4.203 2.799 4.053.688.814 2.198 2.353 2.374 1.876 2.704 1.38 4.65 2.286M517.021 154.401l-3.008-.365-1.797 2.263M491.062 172.342l-5.141-8.276.976-5.295-.417-.847.021-.274.78-1.478.429-.287.509-.029 2.434.802.62.11.588-.075 1.34-.587 1.604-.48 1.682-.033.205-.062.07-.17-.029-.152-.178-.14-2.495-.362-.905-.328-.912-.662-1.444-1.83-1.682-1.83-.57-.581-1.069-.537-2.31-.569-.523-.312-.175-.378v-.445l.99-4.649.3-.783.392-.537.827-.594 6.308-2.98M137.942 229.303l-.176.674-.242.379-.279.373-.178.328-.207 1.03-.413 1.432-.456.985M169.291 235.154l-2.402-.025-1.925-.17-1.068-.265-1.426-.67-.977-.24-3.977-.89-.748-.098-3.628-.142-.891.139-.93.334-1.5.91-1.326 1.237-1.454 1.604-.92.758-1.119.763-.684.37-.724.284-.449.085-.424-.076-.566-.284-1.073-1.013-2.566-2.13-.741-.493-.598-.303-1.184-.335M105.974 228.506l.687-.127 1.804-.34 3.393-.41 1.98-.051 1.612.057 1.233.17 3.057.859 3.828.972 1.254.41.92.625.827.821 1.888 2.52.517.574.695.41.67.158 2.302-.037 2.616-.53.734-.083M146.554 143.28l-1.326-.328-1.454-.1-3.82-.09-3.478-.012-.97-.063-.997-.303-2.181-.72-1.94-.392-1.767-.202-2.052.367-2.766.934-1.482.316-1.27.215-3.478.063-2.765.088-1.725.303-1.026.177-1.226.253-1.098.063-1.54-.208-1.061.05-.92.353M103.617 144.747l2.154-.665.441-.038M105.974 228.506l-1.722.252-1.532.518-1.753.935M125.136 199.868l.484-.151.088-.095.027-.142-.029-.316.107-.543.185-.606.157-1.04M127.146 209.248l-.164-1.017-.164-1.344-.093-.31-.285-.233-.833-.303-1.092-.221-.62-.253-.377-.328-.086-.506.186-.644.378-.833.912-1.66.263-.999-.035-.729M104.9 188.418l.447.066.752.35.897.77.407.695.385 1.067.128 1.137.114 1.168.25.67.505.542.799.31 2.067-.196 3.285-.416 2.003-.127 1.547.214 1.397.43 1.867 1.023 1.027.758.812.84 1.376 1.73.17.42M127.146 209.248l.591-1.37.442-.802.699-.801M169.184 233.962l.092 1.06.015.132M183.563 233.79l-1.607-.435-1.995-.676-1.932-.688-.741.063-.684.227-.563.543-.827 1.541-.52.448-.507.107-1.689-.018-3.207.252M212.476 165.824l-.206 1.086-.485 2.836-.228.467-.3.164-.562.259-1.19.385M101.65 213.744l1.854-.145 5.46.1 10.42-.126 6.443-.631M137.545 213.018l-2.837-.165-3.749-.063-5.132.152M127.146 209.248l-.086.43-1.233 3.264M104.9 188.418l.67-1.432M146.802 142.605l-.248.676M137.545 213.018l1.824-5.203.678-.922.762-.6 1.07-.7M160.693 144.19l.915 1.54M137.716 163.626v-2.304l-.036-1.093-.2-2.128.03-2.204-.143-1.13-.15-1.156-.05-1.44.171-.795.464-1.143.356-.467.434-.366 1.295-.654.181-.18 1.483-1.698.705-.575.487-.324 1.199-.93 1.103-.717 1.51-1.041" clip-path="url(#pac5777eb58)" style="fill:none;stroke:#000"/><path d="m149.709 144.527-.233-.198-1.867-.758-1.055-.29M103.19 208.346l-1.07.942-.412.712-.414 1.048-.087 1.447.444 1.249M173.566 156.884l.38-2.868.356-1.358.434-1.042.506-.739.849-1.357M187.352 151.995l-2.858-.751-1.255-.24-2.758-.525-4.39-.96" clip-path="url(#pac5777eb58)" style="fill:none;stroke:#000"/><path d="m161.608 145.73 3.492.317 2.181.442 2.366.757 3.393 1.086 2.167.809.884.379M168.335 217.236l-.427-.329-.848-.656-1.254-.455-2.075-.417-3.078-.48-7.713-.619-6.243-.48-9.152-.782M235.306 169.209l-.67-.164-1.19-.367-3.913-.568-3.91-.59-1.8-.332-1.917-.315-.777-.19-1.047-.127-.663.016-.777.13-.806.151-.99.19-.849-.082-1.96-.594-1.56-.543M187.352 151.995l3.391 1.44 3.915 1.856 1.39.783.876.518 1.234.685.74.502.785.537 1.054.815.827.65 1.105.846.706.594 1.169.808 1.34.802 1.404.79 1.54.694 1.953.783 1.695.726M239.791 144.992l-.101.29-.157.632-.24.676-1.58 8.201-1.103 7.238-.734 3.522-.57 3.658M233.24 180.811l.838-4.57 1.228-7.032M169.676 215.114l-1.34 2.122M103.418 228.07l2.556.436M168.242 234.12l.942-.158M149.709 144.527l.466.395 1.211 1.301 1.098.821.642.278.855-.038.798-.164 1.74-.62 2.423-.504 1.668-.29.998.025M186.945 152.709l.198-.288.209-.426M168.335 217.236l.436.921.285 1.105.135 1.414-.057 1.384-.143 1.572-.178 3.15.007 3.082.229 2.753.135 1.345M427.16 342.326l-6.45-.55-4.886-.109-3.399.405-2.397.508M405.527 344.481l.6-.363 2.071-.924 1.83-.614M403.636 343.32l1.249-.383 2.217-.438 1.193-.127.888-.13.638.083.207.255M375.373 385.228l-.992.25-.432.079-1.11.215-.399.057-.458.094M383.306 380.787l-3.244 2.143-2.496 1.33-2.193.968M372.812 387.212l.698-.454 1.216-.967.647-.563M370.737 386.577l.055.386.117.261.234.31.298.256M371.982 385.923l-.308.03-.317.074-.207.123-.207.168-.206.259M370.568 385.293l.078.342.037.394.027.274.027.274M372.812 387.212l-.006-.268-.055-.3-.098-.264-.221-.217-.45-.24" clip-path="url(#pac5777eb58)" style="fill:none;stroke:#000"/><path d="m371.441 387.79.424-.094.408-.114.267-.17.272-.2M372.815 388.836l-.056-.47-.038-.338.019-.378.072-.438M371.982 385.923l-.455-.134-.29-.098-.314-.157-.355-.24M371.441 387.79l.49.366" clip-path="url(#pac5777eb58)" style="fill:none;stroke:#000"/><path d="m371.932 388.156.262.209.254.216.367.255M372.815 388.836l.78.976M275.548 369.737l.265-.355.628-1.267 1.122-3.372.817-1.189 1.6-1.033 2.072-.718 2.945-.592M290.826 359.673l-3.165.906-2.664.632" clip-path="url(#pac5777eb58)" style="fill:none;stroke:#000"/><path d="m284.431 355.555-.034 1.14.221 3.584.139.475.24.457M284.431 355.555l1.976-1.268.368-.16M259.816 376.392l1.591-1.106.989-.448M272.92 371.936l-.637.391-2.49 2.058-1.166.52-1.432.196-1.366-.225-1.26-.106-1.51-.064-.663.132M262.805 351.264l.272 3.027.138 4.477-.31.999-.286.785-.121 1.333.185 1.483.325 1.092.041.943-.398 1.879-.203.535-.705.962-.58 1.157-.735.97-.115.532.106.566 1.977 2.834M255.69 374.119l1.11.625 3.016 1.648" clip-path="url(#pac5777eb58)" style="fill:none;stroke:#000"/><path d="m258.47 386.06 1.254-3.541.728-3.212.066-1.55-.337-.877-.365-.488M231.486 327.075l-3.557 3.499-.927 1.281-.32 1.51.278 1.205 2.445 3.996 2.437 4.198 1.632 3.408.278 1.073-.007.821-.485.72-2.594 1.767-.513.762-.276 1.239-.451 1.503M149.647 395.106l-.484-.574-.456-.606-.656-1.01-1.197-1.881-.172-1.042.02-.795.48-.858.77-.53.819-.234 1.133-.24.89-.468.778-.34.734-.126.934.012 1.796-.114 2.466-.505 6.4-1.085 1.54-.354 1.397-.606 3.05-1.401 2.01-.833 1.412-.695 1.725-1.363 2.566-2.437 1.311-1.01 1.397-1.212 1.084-.694 1.31-.606 2.04-.757 2.409-.846 2.494-1.06 1.81-.973 1.882-1.161 1.426-.859 2.523-1.3 1.882-.656 8.55-3.897 1.888-.847 2.416-.945 7.923-3.284 3.996-1.601 1.178-.41 2.58-.251 1.012-.254.713-.341M255.69 374.119l-1.571-.885-2.249-1.47-.826-.72-.514-.802-1.147-2.203-2.017-3.598-1.105-1.256-1.44-1.18-1.29-.708-2.152-.644-.863-.467-.541-.593-.542-1.288-.877-.688-3.421-1.06-2.43-.928-1.69-.499-.976-.379-.613-.694M213.481 387.004l-1.582.85-1.226 1.161-.705 1.124-.538 1.662-.439 1.215-.906 1.024-1.128.785-.878.403-1.785.478-3.695.775-1.323.213-.648.047-.713-.044-1.871-.252-2.07.012-1.426.139-3.87.486-2.096.227-.905.265-1.02.404-.812.177-1.782.05-3.991.392-1.839.075-1.625-.416-2.979-.682-2.656-.28h-2.22l-3.95.133-3.31.4-2.89.189-1.781-.316-1.397-.568-.984-.682-1.639-.689-1.155-.655M136.675 403.065l4.932-1.755 5.509-3.183 2.218-1.096.378-.524.071-.65-.136-.75M142.235 408.254l-1.176-1.265-1.655-1.8-1.016-.966-1.713-1.158M151.163 413.298l.878 3.905M167.41 412.843l-3.907 1.091-1.938.278-1.312-.164-1.61-.707-1.426-.366-1.682-.075-4.372.398M142.235 408.254l.705.734 2.633 2.165 1.844 1.3 1.097.522.934.265 1.715.058M171.787 415.22l-.369-.436-1.317-1.432-.639-.377-.962-.195-1.09.063" clip-path="url(#pac5777eb58)" style="fill:none;stroke:#000"/><path d="m168.877 416.864-.919-2.696-.549-1.325M184.173 413.631l-.713-3.828M191.664 410.842l-3.115 1.149-4.376 1.64M171.787 415.22l.42.497 1.353.925 1.34.26 1.604-.096 1.383-.378 2.33-1.098 3.956-1.699M190.645 420.953l-.791-.713-.285-.593-.244-1.198.03-.91.192-.391.271-.303.777-.53.699-.695.12-.877v-1.515l.065-1.49.185-.896" clip-path="url(#pac5777eb58)" style="fill:none;stroke:#000"/><path d="m198.415 409.492-.942-.02-1.077.044-2.383.572-2.349.754M198.415 409.492l.54 6.625M214.616 407.885l-.493.792-.96 1.159-1.072.874-2.415 1.743-.988.078-1.498-.5-1.78-1.077-1.728-.729-3.2-.49-2.067-.243M222.465 401.992l-1.738.58-1.864.66M214.616 407.885l.331-.532 1.165-1.662 1.272-1.333 1.479-1.125" clip-path="url(#pac5777eb58)" style="fill:none;stroke:#000"/><path d="m215.697 399.975.975 1.166.716.583.78.749.43.36.265.4M219.506 410.772l-.5-5.157-.143-2.382M617.59 528.207l-11.441-.93-6.843-.707-9.722.108M579.796 526.985l1.377-.213 8.41-.094M586.94 511.616l-.999 4.369.62 3.02 1.529 3.547.499 1.149.995 2.977M612.753 468.367l-1.49-2.92M610.595 470.053l.918-.52 1.24-1.166M594.02 406.931l5.287 5.203M594.206 404.21l.139 2.33-.325.391M568.687 411.414l23.165-1.87 2.168-2.613M482.076 224.272l-3.863-.913M498.092 244.057l-8.515-12.832-7.501-6.953" clip-path="url(#pac5777eb58)" style="fill:none;stroke:#000"/><path d="m505.929 230.439-13.52-3.469-9.302-2.455-1.031-.243M565.186 316.279l-.314.534M557.938 311.398l2.687 3.265 4.561 1.616M580.725 300.282l-5.333 4.4-3.674 1.446-6.532 10.151M566.156 358.759l-34.608-14.49M599.308 371.337l-27.594-10.407-5.558-2.171M564.872 316.813l-6.642 11.284-.342 3.535 3.763 11.919.342 4.949.799 3.03-2.167 3.13 5.53 4.099M406.818 433.275l-1.102-2.285M424.257 433.681l-2.167.05-2.337-.504-2.281-1.01-2.395-.405-4.22.101-4.039 1.362" clip-path="url(#pac5777eb58)" style="fill:none;stroke:#000"/><path d="m409.213 447.01-.748-7.79-.164-1.703-1.483-4.242M435.282 444.411l-5.085 1.992-4.448 2.02-4.79-.202-5.701-2.827-6.045 1.615" clip-path="url(#pac5777eb58)" style="fill:none;stroke:#000"/><path d="m373.065 482.324 3.647.157 5.404.233 3.18.096 2.729-.836 1.416-1.58 2.886-3.345 5.772-10.64 2.676-4.413 1.416-1.487 2.624-1.161 1.784-1.766.472-2.973-.525-2.928.84-2.834 1.827-1.838M548.443 419.66l-1.288-2.424M567.551 411.506l-2.423 1.717-7.892 3.25-8.793 3.187M505.392 416.156l1.303-.052 3.739.552 1.523.797 1.8.307 2.908-.552 5.054-1.042 5.677 1.471 3.461 1.9 7.34 1.778 4.776.491 5.47-2.146" clip-path="url(#pac5777eb58)" style="fill:none;stroke:#000"/><path d="m531.506 478.98.346-1.125-.158-3.22 1.581-5.178 2.529-2.798 2.528-2.8 1.976-3.989 3.478-1.82 2.608-3.708 1.343-4.34-.474-2.378 1.028-1.63 4.03-2.38 3.32-1.54 1.896-1.889.079-.91-8.93-18.335-.243-1.28M567.551 411.506l1.136-.092M567.061 417.402l-.112-1.699.226-2.132.376-2.065M589.74 390.927l-.865 2.124.623 4.905 3.67 3.679 1.038 2.575" clip-path="url(#pac5777eb58)" style="fill:none;stroke:#000"/><path d="m614.199 408.54-.903-3.597-.565-3.365-.15-1.766-1.166-2.265-1.693-2-1.994-.666-.903 1-1.467 1.299-1.693.766-.978 1.3-7.636 4.93-.845.034M627.581 375.018l-18.227-1.218-10.046-2.463M589.74 390.927l1.558-3.824.07-6.744-1.108-3.065-.06-.512.242-.644.456-.657.77-.976 1.593-1.333 1.368-1.213.546-.177.655-.063h1.055l.992.177.861-.088.57-.47M568.03 528.627l8.178-1.086M559.93 535.812l.568-1.392.89-2.836 1.197-1.682 5.445-1.275M533.038 501.162l4.267 3.43 5.611 4.548 7.192 7.977 5.927 5.248 3.595 3.153.92.455 3.178.92.613.165 2.02.835 1.67.734M330.468 403.999l-2.017 1.036M330.468 403.999l3.424-1.622M333.892 402.377l-.757-.173-.955.16-1.055.575-.42.473-.237.587M331.126 405.641l-.184-.459-.474-1.183M530.236 128.643l-.085-.191M586.8 166.697l1.462 5.77-3.447 2.235-2.69 2.01-1.597 1.267-.084 1.117 2.984 2.494-.588 3.948-.584 3.226M311.065 201.513l1.757-.031 1.4.025 2.794.707 1.397.442 1.397.606 1.112.67 1.61 1.944.942 1.231.912.922.599.5.89.226.834.09.941-.153.691-.227 1.925-1.093 2.16-1.401M338.413 193.633l-.649 1.844-1.176 2.374-1.596 3.7-.87 1.995-1.696 2.425M355.255 208.553l-2.18 1.408-1.455.834-.37.196-.62.044-.393-.007-.499-.113-.584-.234-1.91-1.086-.887-.158-.7-.057-.42-.142-.228-.11-.274-.278-.392-.555-.742-.98-1.28-1.68-.612-.602-.755-.429-.92-.635-.816-.688-.467-.271-.345-.136-.303-.05-.246.037-.335.057-.46.186-1.995 1.238-2.641 1.629M367.346 207.148l-.052-.508-.15-.448-.15-.348-.142-.277-.3-.215-.634-.34-1.119-.62-1.832-1.08-1.996-1.168-2.373-1.685-1.19-.827-1.889-1.409-1.055-1.243-.87-1.055-.723-1.493-1.7-2.756-1.996-2.722-1.725-1.881M334.984 182.021l.898-.063 1.754.335 1.874.246 1.362-.032.584.019.813.114.762.398.407.208.72.43 1.575 1.439 1.098 1.206.62.752" clip-path="url(#pac5777eb58)" style="fill:none;stroke:#000"/><path d="m366.93 178.662-2.095 1.225-.699.574-.492.594-.406.638-.891.713-.97.537-1.325.34-.84.12-1.241.196-2.388.171-1.732-.126-2.594-.31-1.747-.202-.834.025-.384.026-.492.227-.4.562-.199.518-.079.619.13.884.198 1.08" clip-path="url(#pac5777eb58)" style="fill:none;stroke:#000"/><path d="m338.997 192.105.32-.449.436-.397.712-.468.963-.284 1.297-.132.976-.076 1.497-.657.83-.808.382-.395 1.04-1.366M500.51 209.632l5.1 3.697M500.51 209.632l-.184-1.116M500.326 208.516l-2.857-.347-1.593.104-1.416.366-.236.784 2.36.836 3.927-.627M505.667 215.807l.175-.887-.231-1.591M512.862 202.996l-3.361 1.41-.177 3.24-.059.68-1.003.26-1.71.158-.295 2.246-.646 2.339M517.325 233.285l-5.231-1.094-5.606-1.609-.56-.143" clip-path="url(#pac5777eb58)" style="fill:none;stroke:#000"/><path d="m498.092 244.057 2.122-2.916 2.574-.12 1.017-.48 3.252-2.881-1.152-3.121-.299-1.41-.108-.866.066-1.39.365-.434M505.605 223.386l.064.826.26 6.227M367.346 207.148l1.801-3.031 4.567-.741 4.503-2.736 13.573 1.824 4.632.171 4.102.235M428.461 185.494l-2.592 1.03-10.171 4.691-2.144 1.005-4.413-.521-1.64 1.34-2.227 1.937-2.143 4.282-2.607 3.612M420.584 223.578l-3.878-3.468-4.119-.186-2.774-1.08-1.344-.969-1.01-5.883-7.481-6.739.546-2.383M476.722 173.716l.973.945M466.36 173.648l2.171.29 4.33.185 2.185-.111 1.676-.296M526.208 222.279l-5.735-1.604-2.113-.535-2.314 1.07-5.131.98-5.31 1.196" clip-path="url(#pac5777eb58)" style="fill:none;stroke:#000"/><path d="m505.667 215.807-.462 2.347.2 2.616.2 2.616M526.208 222.279l2.108-2.929M537.577 227.537l-3.42-.579-4.377-1.56-1.56-1.872-2.012-1.247M537.577 227.537l.522-.415M527.09 235.615l4.946-3.711 3.673-2.603 1.868-1.764M551.965 216.218l11.57 2.317M538.1 227.122l2.445-1.946 11.42-8.958M566.314 209.019l-3.117-2.04-11.232 9.24M563.535 218.535l5.735 3.343M572.205 214.685l-1.712-1.482-6.958 5.332M562.467 231.96l-.592-1.392-.452-1.961 1.207-1.248 2.213-.446 2.365-.579 1.308-1.782.15-2.14.604-.534" clip-path="url(#pac5777eb58)" style="fill:none;stroke:#000"/><path d="m569.093 236.401 4.435 2.724.429-.276.427-.861-.194-2.034 1.907-4.413 1.362-1.275 4.164-3.034v-.896l-8.017-1.517-2.062-1.585-2.274-1.356M527.09 235.615l2.492.695 2.835.677 3.695.226h3.982l3.122-.056 3.217-.762 4.013-1.185 5.797-1.975 3.314-.903 1.815-.423 1.095.052" clip-path="url(#pac5777eb58)" style="fill:none;stroke:#000"/><path d="m569.093 236.401-.426-.514-1.306-1.495-1.18-1.101-1.623-.987-1.402-.31-.689-.033M538.348 264.014l-1.789-1.177-5.872-5.493-2.086-7.244-.548-5.397-.604-1.993-3.403-3.792-4.018-5.05M517.325 233.285l2.19.458.513.124M527.09 235.615l-.948-.264-6.114-1.484M540.401 265.365l-2.053-1.351M546.274 281.311l-2.415-8.41-3.458-7.536M525.888 278.22l1.679-2.363.42-2.324.681-.79.945-.651 5.194-3.393 2.204-1.069 1.574-.372 1.816-1.893M580.725 300.282l-4.263-2.31-3.332-2.095-1.933-.826-11.395-2.39-6.697-3.218-2.7-3.07-2.798-2.124-1.333-2.938" clip-path="url(#pac5777eb58)" style="fill:none;stroke:#000"/><path d="m549.664 274.826.389 1.792.389 1.241-4.168 3.452M624.509 338.374l.216 3.399M624.509 338.374l2.675.699M598.153 310.966l6.464 4.537 8.863 7.407 4.231 3.217 1.566.06 1.966 1.947 4.565 7.023-.333 1.24-.966 1.977M598.153 310.966l-.6-.421-7.297-4.22-8.563-5.52-.968-.523M578.61 327.537h-3.278l-1.375-1.187-3.63-5.213-2.644-2.841-2.811-1.483M578.61 327.537l1.9-.38M578.61 327.537l.31-2.82M618.87 336.65l2.492 1.672 3.363 3.45M335.555 401.595l-1.663.782M335.555 401.595l-1.177 2.208M348.992 396.15l-1.032.368-12.405 5.077M334.378 403.803l4.372-1.793M334.378 403.803l-.486-1.426M331.126 405.641l.907.05 1.25-.294.336-.182.76-1.412" clip-path="url(#pac5777eb58)" style="fill:none;stroke:#000"/><path d="m334.435 407.913-.142-3.13.085-.98M328.451 405.035l.881.404 1.794.202M334.435 407.913l-1.51-.044-.834-.297-.628-.757-.337-1.174M328.068 405.231l-2.78 1.697M328.068 405.231l.383-.196M323.637 409.466l3.794-2.216.668-.817-.03-1.202M237.71 136.075l-1.748-.257M235.962 135.818l-3.734-.799-1.212-.547-1.153-1.241-.554-.977M258.47 386.06l-2.145.02-1.889.208-2.651.012-5.523-.902-2.378-.742-2.313-.909-.851-.085-.82.148-1.611.91-1.226.533-.599.205-.545.208-.68.442-1.301.597-.834.163-5.51.184-1.397-.063-2.352-.272-1.325-.145-3.115-.947-1.219-.063-.986.192-2.015.774-1.704.476M212.172 383.533l.09.912.828 1.632.391.927M235.48 455.436l1.886-.204 1.697-.17.765-.082 2.114-.316 1.532-.208 4.476-.468 8.839-1.01M270.352 451.256l-1.081.01-7.536.98-4.946.733M269.575 457.27l-5.2 10.484M275.22 446.614l-1.311 2.048-4.334 8.609" clip-path="url(#pac5777eb58)" style="fill:none;stroke:#000"/><path d="m270.352 451.256.35.524-.097 1.066-1.3 2.66-.015.73.285 1.035M306.002 414.423l-.025-2.763M339.774 308.449l1.76 2.902 1.633 2.885.023.876-.825.993-.865.945-.779 1.152-.505.649-.52.853-1.932 1.673M355.173 317.864l-.945-.155-.904-.37-1.59-.4-1.172-.462-.966-.044-.684.17-.85.29-1.55.963-2.278 1.05-6.47 2.471M355.173 317.864l1.03-2.492M399.917 336.137l.115-.679 1.115-4.683.892-4.853.924-4.232 1.401-8.38 1.306-7.73.31-1.92M411.144 257.342l-.09 8.116-.16 8.973-1.179 8.126-.891 6.122-1.593 7.308-1.051 6.433-.2 1.24M356.203 315.372l.447-.605.694-.796 1.09-.508.813.047.624.342 2.24 2.505 1.343 1.328.925.408 1.233.006 1.447-.442 4.523-2.693 1.715-3.73.078-1.519 3.82-6.49.39-2.141 2.183-4.075-.78-2.072 2.807-.69 6.393.621 5.77 2.901 6.782 3.315 5.24 2.576M310.725 288.82l1.332 1.478 1.632 1.414 3.038 2.076.952.921.785 1.499 1.76 4.733M321.32 302.854l-.343-.565-.753-1.348" clip-path="url(#pac5777eb58)" style="fill:none;stroke:#000"/><path d="m347.544 292.161-1.745-.733-1.855-.513-3.393-.694-.966-.065-.773.09-.866.216-3.403 1.571-4.113 2.115-2.794 1.161-1.772.904-5.284 2.55-.285.353.007 1.045-.078.78M118.144 295.297l.873 1.797M115.19 291.813l2.241 1.202.37.375.22.617.123 1.29M231.486 327.075l2.167-2.158M215.627 327.367l4.562-.884 3.407-.833 1.65.002 1.75.566 1.441.325 3.049.532M233.653 324.917l.737-.79 4.511-4.259M243.693 315.313l-4.364 4.12-.428.435" clip-path="url(#pac5777eb58)" style="fill:none;stroke:#000"/><path d="m180.931 303.386 2.658 2.492 1.254.58 5.688 1.753 2.585.565 1.35.006.862-.165.827-.094.7.076.626.183 3.42 1.603 6.026 2.88.876.152.69-.09 1.478-.414 1.44-.17 6.005 1.108 2.079.141 1.457-.14 1.418-.468 1.468-.183 1.31-.22 2.35-.75 1.4-.413 1.404-.66.934-.43.718-.164.636.093.97.379 2.359 1.786.812.713.45.705 1.075 3.85.645 1.778M341.456 228.613l2.659-1.547 6.4-3.687 2.374-1.617 1.789-1.332 1.033-.638 1.109-.41 2.202-1.171 2.463-1.222.613-.366.506-.373 1.083-1.509 1.005-1.238.573-.882.987-1.37 1.094-4.103M286.938 261.23l3.328-1.932 4.099-2.5 4.967-3.188 5.019-3.157 2.63-1.661 2.202-1.206 1.803-.985 3.471-2.156 2.823-1.437 2.031-1.193 3.25-2.083 2.078-1.285 1.985-1.096 1.133-.707 3.842-2.425 3.343-1.827 3.054-1.737 3.46-2.042" clip-path="url(#pac5777eb58)" style="fill:none;stroke:#000"/><path d="m348.413 241.84-.514.013-.82-.113-1.154-.366-.427-.247-.35-.398-.22-.385-.072-.436.093-.41.37-.625 1.148-1.598.477-1.275.25-1.054.05-1.194-.164-1.041-.2-.752-.406-.77-.378-.454-.598-.607-1.14-.745-.928-.391-1.974-.379M411.144 257.342l-3.143-2.053-5.34-1.994-2.315-1.254-1.415-4.844-1.03-4.045M348.413 241.84l1.36-.852 1.334-.688 3.799-1.502 2.416-.878 1.746-.297 1.96-.082 1.569.07 1.261.315 1.183.606 1.082.802 1.03 1.88 2.508 6.724 1.48.798 3.924-2.336 4.439-1.14 3.73-2.735 4.632-1.596 5.404.115 4.631 2.108M400.47 243.278l-1.746-.364-.823.238M411.144 257.342l2.325 2.733" clip-path="url(#pac5777eb58)" style="fill:none;stroke:#000"/><path d="m416.954 239.138-1.41.671-1.72.903-1.242 1.242-.605 1.072-.414 1.355-.414 3.696-.032 3.104.032 5.728-.005.433M413.469 260.075l2.339 2.849M412.022 261.744l.463-.955.984-.714M430 338.75l.258 2.621M422.726 327.143l1.293 3.284 2.058 5.19 2.187 1.196 1.737 1.937" clip-path="url(#pac5777eb58)" style="fill:none;stroke:#000"/><path d="m432.126 332.667-.274.79-.402 1.231-1.434 3.524-.015.538M430.258 341.371l-1.901.343M450.165 331.893l-2.207-.278-1.535.221-1.385.306-1.523.78-1.242 1.25-.497 3.245-.485 1.767-.819 1.182-3.999 1.318-3.307-.404-2.908.091M427.16 342.326l1.092.093M427.16 342.326l1.197-.612M403.636 343.32l.336-.613.713-.82.555-.531 1.141-.758.67-.34 1.568-.568.784-.266 1.34-.416.656-.341.727-.379.712-.341.799-.152h.741l2.85.43 1.127.43.727.163.798.076.798-.063h.856l.713.177.741.252.442.53.399.556.585.442.684.303.727.177.827.138.784.101.783.114.138.093M470.325 321.283l-.672 1.745-2.102 1.712-2.564 2.383-4.166.521-3.592.91-.941.454-1.283 1.313-1.283 1.06-.983.422-2.574.09" clip-path="url(#pac5777eb58)" style="fill:none;stroke:#000"/><path d="m456.693 331.806-1.1.53-3.18.394-1.913-.338-.335-.499M468.995 307.27l.692 3.678.347 1.104.123 5.248.168 3.983M480.414 321.069l-.474 1.62-1.355.78-1.423.06-2.574-1.74-1.558-.66-2.705.154M463.525 305.552l3.67.43 1.8 1.287M476.214 297.485l-2.507 1.92-.745 1.44-.61 2.581-.88 1.68-2.477 2.163M463.525 305.552l1.374 2.315M455.73 301.547l3.572.632 4.223 3.373M455.148 301.444l.582.103M431.036 291.746l5.42 7.797 1.522 1.532 4.57.307 2.492-.981 3.6-.675 1.731.123 4.777 1.595" clip-path="url(#pac5777eb58)" style="fill:none;stroke:#000"/><path d="m461.309 287.583.61 1.8-.407 1.08-2.168 1.321-1.627-.06-1.422-.42-1.423 2.04-.949 1.86 3.252 1.2.475 1.141-2.502 3.899M422.726 327.143l-.187-.476-.257-3.305.386-4.842-.708-2.222-3.152-5.129.129-.683 11.836-18.273.263-.467M425.493 277.295l.07.217 2.701 5.242 3.217 4.102.9 2.507-1.345 2.383M531.548 344.269l-7.003-2.497-6.24-.93-4.95.109-3.847.21M428.252 342.42l10.604.904 5.185.076 4.754-.23 3.543-.841 6.396-1.99 4.062-.842 4.148-.154 5.186.69 12.79 2.449 6.297.927 6.373-.093 10.148-2.06 1.77-.096M537.233 288.802 535.874 290l-4.5 6.991-13.43 21.241-2.908.368-3.255 1.901-1.592 2.467 2.146 2.882-2.354 4.66.762 7.174-1.235 3.476M537.233 288.802l-11.345-10.582M550.309 302.13l-2.571-3.124-8.553-8.384-1.952-1.82M490.466 365.29l-4.24 1.837-3.16.21-9.168-6.579-3.635-.42-5.611.63M450.718 365.238l2.238-.77 11.696-3.5" clip-path="url(#pac5777eb58)" style="fill:none;stroke:#000"/><path d="m459.343 352.119.434 3.53 4.11 1.96 1.106 1.61-.341 1.749M535.804 359.358l-4.9.56-3.556 1.05-3.873.14-2.845 1.33M504.98 361.963l4.033 2.434 3.556-.35 2.766.42 5.295-2.03" clip-path="url(#pac5777eb58)" style="fill:none;stroke:#000"/><path d="m522.257 366.296 1.505-.533-.377-1.166-2.755-2.16M547.155 417.236l-.92-1.733-1.659-3.15-3.24-1.959-.395-1.19.316-3.429-.79-1.33-10.353-12.387-2.687-2.31 1.106-2.59-2.37-3.639.473-1.624 4.347-6.859 2.37-1.05 2.135-4.13 1.501-3.359.316-3.08-1.501-4.059" clip-path="url(#pac5777eb58)" style="fill:none;stroke:#000"/><path d="m531.548 344.269 3.15 5.15.869 3.64-.237 2.87.474 3.43M436.859 344.52l-6.718-1.05M459.343 352.119l-.04-.32-8.14-6.86h-5.69l-6.796-.42h-1.818M438.178 350.57l-.338-4.665-.981-1.385M430.141 343.47l-1.889-1.05M419.82 352.902l1.015-1.266.226-1.266-.338-1.666 2.595-1.766 3.273-1.266 1.956-1.466 1.594-.737M531.762 328.953l-3.129 1.782 2.503 3.048.09 2.297-.313 6.374.635 1.815M531.506 478.98l-.128.415.08 1.959-4.19 3.989.237 3.008 2.293 5.669 1.106 4.623 2.134 2.52M473.015 527.959l6.805-5.977 3.348-1.53 4.05.143 3.241 1.817 2.053.144 2.808-.861 6.048-3.97 4.32-1.29 4.645-2.87 5.67-2.008 5.024-1.147 2.376.526 1.35-.335 1.998-2.39 1.944-2.488 1.674-2.39 2.669-2.17M500.677 416.563l-1.39.277-3.116 1.104-10.039.858-3.514 1.255M472.318 425.782l.383-.236 1.246-1.226 4.708-1.594 3.185-2.391.778-.278M511.475 474.617l-1.047-.488-1.662-1.961-.9-1.717-.138-6.989-.9-3.004-2.7-4.904-.554-1.594.623-2.085-.07-1.55-4.153-6.069-5.885-8.215-5.677-7.602-3.185-1.594-.415-3.25-2.194-3.538M511.475 474.617l1.584.738 6.3 1.104 6.093-.184 2.354.49 3.7 2.215M365.414 563.214l5.96.63 3.826 2.598 3.559.394 4.536-.394 4.537-3.386 5.248-4.804 5.783-6.065 2.152-3.322 1.027-2.342 3.024-3.395 5.995-4.926 2.442-3.968 2.808-1.96 9.127.286 3.672-.86 6.953-2.104 5.454-3.395 2.16-.287 6.968.574 6.048.86 3.673 1.435 5.13.909 4.644-.096 2.875-1.637M476.9 541.508l-.798-11.787-.103-.466-.353-.24-.556-.228-.983-.277-.357-.183-.735-.368" clip-path="url(#pac5777eb58)" style="fill:none;stroke:#000"/><path d="m381.285 579.573-3.95-1.058-1.957-1.89-6.166-6.418-.47-1.013-1.46-4.484-1.868-1.496M355.54 543.209l-.623 2.048-.177 6.222 3.025 4.883 3.024 3.386 4.625 3.466M350.116 477l2.67-.047 2.676.855 3.437 1.003 1.657.414 3.72 1.491 3.726.79 5.063.818" clip-path="url(#pac5777eb58)" style="fill:none;stroke:#000"/><path d="m355.54 543.209 2.225-4.253 2.668-5.75 3.291-7.561 5.605-9.058 1.957-8.034-1.69-7.404-3.38-10.004-.357-3.86 1.513-2.205 4.359-1.812 1.334-.944M355.54 543.209l15.746 7.314M449.146 540.8l.608-2.174M476.9 541.508l-6.76 1.339-4.003 2.126-1.78-.078-4.358-2.442-3.025.236-7.828-1.89M443.218 542.333l3.06-1.228 2.868-.306" clip-path="url(#pac5777eb58)" style="fill:none;stroke:#000"/><path d="m455.17 556.143-2.451-1.943-2.651-1.868-.713-2.297-.4-6.942.191-2.294M488.664 537.292l-1.177.278-6.138 3.387-4.448.55M473.674 557.91l1.283-.783.912-.807.143-1.792.627-1.742v-1.136l-.028-2.55.256-1.463.034-6.13M532.308 532.35l-2.637-.766-5.249.236M496.185 536.152h3.863l6.85-1.497 7.205-1.338 5.515-.158 4.804-1.339" clip-path="url(#pac5777eb58)" style="fill:none;stroke:#000"/><path d="m523.02 538.77 1.901-1.147.043-2.22-.542-3.583M611.262 465.447l-.667 4.606M613.185 452.507l-.79 1.16-.45.738-1.594 2.64-.697 3.088.542 3.225 1.066 2.089M586.94 511.616l.241-1.05 2.558-6.862 3.1-9.538 2.401-5.832 3.332-4.597 5.89-2.196 2.247-5.352 1.55-1.852.465-3.225 1.871-1.06M375.633 141.99l-1.073 3.352-.527.85-.731.574-3.364 1.364-1.29.588-.5.107-.505-.044-.72-.486-.749-.537-.456-.209-.926-.303-.791-.012-.578.012-1.076.43-.84.467-.678.638-.663 1.029-.962 1.553-.285 1.586-.292 1.932-.321 1.086-.257.46-.663.885-2.01 2.223-1.104 1.187-.756.94-.456.992-.4.998-.527.916-.406.94-.663 1.989-.292.569-.691.783-.628.53-.492.215-.92.404-2.18.96-.805.272-1.283.1-.749-.07-.428.026-.192.032-.15.17-.12.171-.136.644-.15 1.458-.257.701-.391.62-1.034 1.401-.713 1.048-.78 1.023-1.3 1.01-.682.591-.887.792-.82 1.074" clip-path="url(#pac5777eb58)" style="fill:none;stroke:#000"/><path d="m328.064 181.655 1.098-.209.655.032.599.107.798.38.598.195 1.113.138 1.119-.094.94-.183M631.527 381.004l-1.097-1.064-1.337-2.708-1.512-2.214M631.527 381.004l2.215 2.152 2.04 1.015M630.892 389.509l1.642-2.338 3.247-3M498.092 244.057l.267.401 4.79 5.253 5.587 3.031 6.5 7.677 7.983 12.83.913 3.333 1.756 1.638M250.326 487.45l-.853.822-3.034 3.559-4.205 3.837-5.331 2.94-4.762 2.55-2.309 1.604-3.395 3.585-4.652 5.468-2.73 3.745-1.682 3.989-.655 3.256v3.975l.826 3.699 2.153 5.755 3.05 8.178 3.493 8.948 1.226 3.067" clip-path="url(#pac5777eb58)" style="fill:none;stroke:#000"/><path d="m267.416 506.441-1.604.34-10.328.707-1.482.284-1.077.461-2.195 1.635-4.412 2.53-4.469 1.856-.548.429-4.913 5.902-2.108 3.614-.884.783-2.637 1.086-.207.416-.04.652.532 1.55.313 2.562.685 6.058-.364 1.553-1.732 2.083-.256 1.25.156 3.533.928 4.22-.243 2.204-.441 1.268-2.624 3.01M322.461 485.823l-2.409.189-2.28.454-1.768.96-3.977 3.345-2.666 1.931-2.495 2.133-3.637 6.77-2.35 5.246-1.097 1.73-1.483 1.022-1.91.265-7.598-.783M270.908 506.176l1.974 1.091 1.932.524 3.093.271 10.884 1.023" clip-path="url(#pac5777eb58)" style="fill:none;stroke:#000"/><path d="m291.821 520.596-5.204-1.534-.392-.441v-.619l2.374-8.19.192-.727M322.461 485.823l3.172-.526 3.429-.547 4.468-.568 1.347-.341 3.754-1.718 5.812-2.308 5.673-2.815" clip-path="url(#pac5777eb58)" style="fill:none;stroke:#000"/><path d="m348.367 465.203.295 1.535.47 1.666 1.383 3.875.043.884-.342 2.373-.1 1.464M363.395 464.973l3.055 2.82 2.938 1.765 1.732.232 5.771-.14 3.21-2.282 2.834-2.044.787-1.534-.052-4.228.682-3.944 6.559-9.385 8.972-11.151 5.833-4.092M400.888 411.734v4.878l.228 4.847 4.6 9.53" clip-path="url(#pac5777eb58)" style="fill:none;stroke:#000"/><path d="m358.224 460.241-1.83-1.944-1.524-.371-1.774.013-1.056.286-.754.6-2.382 5.634-.537.744M329.275 452.31l1.383 2.171.324.313.407.154 1.208.063 2.01.631.713.404 2.383 2.02 2.976.808 1.782.643 1.426 1.073 4.48 4.613M268.962 498.016l-.656-.67-2.238-.908-2.965-.884-.627-.441-2.124-3.774-1.254-.972-5.66-1.427-3.112-1.49M270.908 506.176l-.506-.19-1.02-.038-1.966.493M268.962 498.016l.228 1.174-.591 2.344-.677 2.262-.506 2.645M381.285 579.573l1.428 2.812M417.884 555.241l-.696 2.718-4.092 4.49-2.846.944-2.936 2.915-3.647 8.033-2.224 2.835-3.203.709-10.14 2.678-4.004-.236-2.811-.754M382.713 582.385l.515 9.04M479.763 591.128l-11.355-3.394-3.71-2.347-3.98-.718-7.079.98-5.308.913-3.318.98-12.239 2.022-4.571-.195-7.594 1.632-4.35.848-5.235-.783-7.372-.718-4.497.26-5.53-.456-3.244-1.175-2.728-2.676-4.94-3.916M534.141 593.636l-2.428.05-5.089 1.024-3.642-.819-2.024-.563-6.303 1.638-3.296 1.894-3.354-.614-3.758-1.177-1.908-1.639-2.429-1.484-6.765-1.638-9.83 1.945-3.552-1.125M482.488 601.402l-2.08-2.848-.53-1.463-.204-1.778-.078-2.137.04-.477.127-1.57M482.862 601.873l-.374-.47M221.203 140.021l3.299-1.452 7.881-1.452 3.58-1.299M420.584 223.578l.937.839M411.628 226.651l1.684.181.817-.113 1.888-.994 2.067-.95 1.608-.542.892-.655M338.3 339.416l3.905-.711 3.245-1.004M340.537 330.738l-3.544.455M339.286 335.46l-.401-1.566-1.892-2.701M325.289 406.928l-2.197 1.31M325.289 406.928l.095-.593M387.288 375.74l.812.614M390.482 369.243l.232.298-.033.499-.19.361-.241.463-.257.558-.505.885-.733 1.078-.732 1.111-.735 1.244M324.602 387.87l.026 3.612M324.602 387.87l-.03-4.41M324.602 387.87l1.63-.408M324.602 387.87l-2.71.824M324.671 397.683l-.043-6.201M324.671 397.683l3.948-1.157M321.893 388.694l-1.242-.923M321.893 388.694l-1.265.442M320.628 389.136l.023-1.365M320.658 392.656l-.014-1.81-.016-1.71M320.658 392.656l.071 1.516.05 1.982M320.651 387.771 318.92 386M297.057 395.404l-1.623.1M297.057 395.404l.134 2.822M286.575 388.496l-.143-.516-.15-.65-.085-.815M287.507 391.94l-.932-3.444M323.637 409.466l-.545-1.227M318.629 411.375l2.542-.748 2.466-1.161M323.887 418.277l.32-5.807-.085-1.679-.485-1.325M323.092 408.239l-.831.495-3.632 2.641M348.992 396.15l.155.692-.007.36-.129.36M338.75 402.01l5.123-1.949 4.547-2.222.591-.277M246.531 241.287l-1.225-.836-2.245-1.61-1.169-.58-.19-.073-.227.031-.224.184-.31.4-.571.75M265.812 262.436l1.9-2.165M265.812 262.436l3.193 2.09M267.712 260.27l2.94 2.052M273.09 259.582l-2.439 2.74M256.076 275.536l.32-.631.585-.752.449-.524.32-.574.015-.461-.043-.397-.114-.348-.221-.347-.613-.55-.713-.864-.306-.455-.086-.278-.021-.372.092-.278.5-.7 1.454-2.06.491-.63M351.865 378.439l-.343.191M351.865 378.439l-.341-.243M351.522 378.63l1.809 5.209M351.522 378.63l.002-.434M353.331 383.839l1.88 5.398M251.564 244.694l-1.005 1.12M247.06 249.709l-4.422 5.193M247.06 249.709l2.262-2.519M242.638 254.902l-4.064 4.866-.298.37M238.276 260.138l.317.228M238.276 260.138l-.263.662M256.592 248.19l-4.203 4.96M252.389 253.15l-3.799 4.47-.497.661-.242.24M247.85 258.52l.419.22M247.85 258.52l-.363.977M301.817 342.546l-.07-1.925M301.817 342.546l2.813-.297M307.508 341.866l.08 3.12M307.508 341.866l3.495-.41M307.508 341.866l-2.878.383M304.157 333.336l2.506-.286.402.242.127.494.316 8.08M307.97 353.137l3.558-1.467M307.97 353.137l-.242-5.16M304.63 342.249l-.473-8.913M307.588 344.985l.14 2.992M291.021 337.39l10.725 3.231M301.224 333.715l.24.962.282 5.944M126.725 182.11l1.14-1.062.243-.391.214-.518-.029-1.332.314-.594.42-.474 1.76-1.8 2.567-3.251.563-1.3 1.033-1.422.792-1.105 1.354-2.26.313-.606.228-1.144.08-1.225M146.993 532.349l-4.16-2.161-6.903-4.436-7.024-4.298-7.669-5.06M121.303 512.162l.234 1.139-.143.694-.297.995.14 1.403M579.796 526.985l-2.366.367M579.796 526.985l.289 4.78M568.046 586.687l-.403-3.877-3.07-1.07-1.36-1.382.352-2.361 3.172-2.452.856-2.406-.453-2.852-.151-2.229 3.54-4.27M581.012 548.03l.071 2.023-.453 2.72-5.788 6.417-4.313 4.599" clip-path="url(#pac5777eb58)" style="fill:none;stroke:#000"/><path d="m582.375 591.42-1.392-2.372-.202-3.342-.906-1.159h-2.819l-4.681 1.07-4.33 1.07" clip-path="url(#pac5777eb58)" style="fill:none;stroke:#000"/><path d="m534.141 593.636 8.616-1.587 3.296-.564 1.504-.665 3.7.256 3.759-1.485 5.782-.102 4.742-1.536 2.506-1.266M590.747 584.12l-1.192 1.714-.993 2.285-1.786 1.538-2.185 1.274-2.216.49M534.141 593.636l-.975-10.044M105.854 461.895l-5.123-2.292M121.157 458.738l-5.19.617-6.482 1.301-3.63 1.239M121.556 458.7l-.399.038M121.63 454.086l-.635.357-.111.385.672 3.871M130.673 459.283l-3.904-.54-2.393-.088-2.82.044M121.157 458.738l-.675-.508-2.694-2.613-.461-.872-.495-2.138M131.485 456l-.027 1.12-.293 1.05-.492 1.113" clip-path="url(#pac5777eb58)" style="fill:none;stroke:#000"/><path d="m151.645 510.411-6.374-2.386-6.771-2.727-.064-.111.027-.116.117-.09 1.773-.3 1.326-.279.285-.176.178-.385-.634-3.604-.072-3.793-.156-1.016-.47-.706-.8-.291-2.914.063-.186-.063-.05-.208-.512-8.627-.33-12.036-1.68-4.096-.927-3.219-.528-2.07-.113-3.118-.414-.403-1.432-.535-.222-.324-.029-.512" clip-path="url(#pac5777eb58)" style="fill:none;stroke:#000"/><path d="m152.285 468.176-7.613-4.518-5.56-2.436-6.811-1.714-1.628-.225M156.144 512.3l5.207 2.326 8.072 3.77M152.285 468.176l2.08 1.212M153.867 470.36l-.42-.132-.4-.29-.235-.436-.527-1.326M153.867 470.36l-1.44 6.463M153.867 470.36l.499-.972M155.48 511.995l-3.437-1.428-.398-.156M152.427 476.823l-.926 2.689-2.039 6.197-4.105 12.218-.229 2.727.172 1.4.77 1.213 2.836 3.155 2.74 3.989M174.958 482.094l-10.035-6.298-5.544-3.502-5.013-2.906M155.241 476.125l-1.132.85-.551.035-1.13-.187M156.144 512.3l-.665-.305M176.713 511.473l-1.87-.192-2.26-.214-3.506.486-4.697-.12-2.523.347-.513-.146-1.297-.599-.457.025-1.297.638-2.15.602" clip-path="url(#pac5777eb58)" style="fill:none;stroke:#000"/><path d="m158.209 509.357-.664.309-.45.08-.368.227-1.248 2.022M229.176 584.42l.186-3.257-.143-5.527.342-4.052M216.244 567.225l5.292.27 1.51.05 1.013.392 1.311 1.49.97 1.602.926.619 2.295-.064M239.055 563.255l-1.14 1.262-.884 1.577-.67.821-3.022 1.729-2.324 2.373-1.454.567M240.766 577.882l-1.839.48-2.723 1.047-.228.145-.1.227.356 2.815-.313.681-.549.65-1.226.473-3.314.36-1.654-.34M225.883 597.662l.114-.45M225.997 597.212l3.339 1.02M222.819 489.029l1.61.113 2.068.152M243.119 489.645l-3.28.375-3.435-.032-9.907-.694M218.99 498.045l2.724-1.43.399-.404.335-.846.791-2.177.649-.878 1.596-1.135.457-.455.556-1.426M235.993 488.061l.635.611.567.18.538-.034 2.106-.42.934.07 1.333.397 1.013.78M275.362 499.55l-2.01 3.49-2.444 3.136M268.962 498.016l2.884.162 1.692.361 1.824 1.01M284.147 485.12l-1.392.573-.365.382-.214 1.083.116 2.522-.614 4.852-.029.316-.314.34-1.539.366-.474.256-1.408 1.865-.304.452-.75.684-1.498.738M264.376 467.754l.522.272M264.898 468.026l-.312.946-1.429 5.216-.096.54.09.946.254.886M264.898 468.026l.543-.998.889-1.128 1.323-1.1.172-.028.175.015.413.269.143.01.335-.095 4.008-.736 4.627-.133 3.31.533M482.488 601.402l-2.295.586M477.35 601.606l1.14.087 1.703.295M432.678 546.39l-7.635 2.477M432.678 546.39l-.198-7.466M438.634 544.171l-3.743 1.502-2.213.717M425.043 548.867l-4.475 1.452-2.312 3.466-.372 1.456M413.954 550.086l.244 1.033.395 1.315 1.336 1.249 1.955 1.558M426.233 541.024l.428 4.24-.057 1.388-1.56 2.215M438.634 544.171l4.584-1.838" clip-path="url(#pac5777eb58)" style="fill:none;stroke:#000"/><path d="m438.378 550.035-.17-1.136-.172-3.509.598-1.219M441.458 538.751l-.2.455.656.833 1.197 1.262.107 1.032M488.664 537.292l-1.83-3.368M496.185 536.152h-2.543l-2.49.551-2.488.589M496.185 536.152l-1.568-2.077M538.832 532.886l-.977.352h-2.49l-3.057-.888" clip-path="url(#pac5777eb58)" style="fill:none;stroke:#000"/><path d="m532.743 530.01-.043 1.109-.392 1.231M538.832 532.886l-.169-2.762M559.93 535.812l-.588 1.443-1.868 1.102-5.605-2.362-6.275-3.545-2.935-.945-3.827 1.38M618.219 525.112l-.058.286-.054.265-.516 2.544" clip-path="url(#pac5777eb58)" style="fill:none;stroke:#000"/><path d="m621.892 507.856 1.599-.42 2.203.917 1.513 1.416 2.42 1.492.13 1.263-1.167 1.339-.26 1.76.26 2.373-.994 1.76-4.97 2.83-4.407 2.526" clip-path="url(#pac5777eb58)" style="fill:none;stroke:#000"/><path d="m616.62 523.734.389.536 1.21.842M635.394 436.513l-.494-.21-1.237-.264-1.072-.083-1.166.158-1.026.354-.485.366-.393.467-.405.946-.627.746-.6.63-.766 1.255-.886 1.17-.542.656-.852.716-4.568 2.56-3.205 1.356-.565.487-.275.384-.044.493.03.997.07 1.047-.12.503-.264.343-.47.316-.751.368-1.496.233M600.808 414.179l1.052 3.622.855.842 1.283 1.49 2.424 2.5.756 1.375 1.154 4.633.063 2.282-.291 2.86 1.627 9.126 1.628 4.049 1.492 2.297.385.644.299.593.157.568.043.454-.184.342-.366.65M635.394 436.513l1.875-2.492M596.97 419.034l1.165-1.332 1.467-2.499 1.206-1.024M599.307 412.134l1.1 1.21.401.835M603.138 408.174l-2.813 3.088-1.018.872M587.038 392.216l1.767-1.799.936.51M568.04 403.843l-.113-2.065.602-1.633 3.95-1.999 4.175-.233 3.913.633h2.784l1.204-.966 2.483-5.364M584.969 385.62l-.038 4.93 2.107 1.666M571.388 409.94l-1.844.766-.857.708M549.982 415.97l-1.617.166-1.21 1.1M490.466 365.29l3.19-1.383 7.059-3.499 1.343-.21 2.923 1.765" clip-path="url(#pac5777eb58)" style="fill:none;stroke:#000"/><path d="m507.247 367.062.451-.766-2.107-1.533-.61-2.8M493.967 371.16l-1.278-.8-2.223-5.07M455.897 354.535l1.58-1.766 1.866-.65M463.533 349.737l-1.73 1.5-2.46.882M441.187 361.331l1.844-1.299 7.687 5.206M433.212 356.267l.3-1.099 4.666-4.598M447.658 353.135l-8.54-2.132-.94-.433M410.98 348.17l.714-1.531-.075-1.667-1.543-.866-3.084.5-1.465-.125M586.94 511.616l-7.96-1.694M441.589 443.348l-1.585.025-3.877.707-.845.331M435.49 440.296l-1.311 2.07.114 1.161.989.884M468.606 427.694l-4.197 1.44-4.448 2.727-2.28 5.15-2.81 1.304M446.967 442.673l2.047-2.127 3.877-1.313 1.98-.918M454.934 430.954l-1.996 1.565-.912 1.768 2.844 4.028M441.589 443.348l4.801-.076.577-.6" clip-path="url(#pac5777eb58)" style="fill:none;stroke:#000"/><path d="m446.21 438.982-.285 1.718 1.042 1.973M441.589 443.348l-2.963-3.153M472.318 425.782l-2.348-7.158M468.606 427.694l1.391-.478 2.321-1.434M468.847 415.2l1.123 3.424M468.847 415.2l-2.68.404M471.527 410.05l-3.193 1.767-.57 1.06 1.083 2.323M465.71 423.128l1.712.353 1.197 3.282-.013.93M469.97 418.624l3.382-1.101M505.392 416.156l-3.336.132-1.379.275" clip-path="url(#pac5777eb58)" style="fill:none;stroke:#000"/><path d="m495.988 400.708 1.825.909.57 1.01.798 4.09.514 3.332.982 6.514M498.44 414.24l1.027 1.212 1.21 1.111M505.392 416.156l1.773 4.093M504.541 410.2l-1.653 1.01 2.504 4.946M507.165 420.25l-1.597 1.464M514.976 431.308l-2.052-1.566-1.54-1.918-1.254-2.273-2.965-5.302M321.243 497.239l3.546-3.583.3-1.277-.476-1.875-1.47-3.214-.682-1.467M358.224 460.241l4.5 4.113.671.62" clip-path="url(#pac5777eb58)" style="fill:none;stroke:#000"/><path d="m358.224 460.241.32 2.526.688 1.856 1.539.928 2.624-.578M275.825 445.98l1.067-1.242 2.68-2.832 3.19-2.775 6.043-4.678M275.825 445.98l.992.082 1.034-.34 6.798-5.973 3.634-2.849.351-.495.171-1.952M275.825 445.98l-.606.634M270.352 451.256l.321-.31.655-.58 2.35-2.85.943-.71.598-.192M530.15 128.452l-.252-.225-.286-.07-1.14-.007-3.183-.423-2.018-.486-2.215-.83-1.654-.705-.795-.494M530.15 128.452l.944-.556.62-.47.54-.62.12-.238.055-.394M338.16 393.682l-.691-5.674M338.16 393.682l-1.891.475M338.16 393.682l5.025-1.297M328.62 396.526l7.649-2.37M328.62 396.526l-.06 7.306M356.122 365.985l-.617.722-.093.754 2.008 2.795M356.122 365.985l-3.58-4.912M580.248 534.468l.684 11.307.08 2.255M585.341 548.025l-3.289-.472-1.04.477M560.43 541.06l.556-1.26-1.056-3.988M560.275 541.414l.155-.353M562.674 544.247l-.622-1.062-1.622-2.124M623.738 382.082l1.583-1.039 5.043.416 1.163-.455M511.475 474.617l-4.183 4.375M396.874 400.74l3.522-.12M400.888 411.734v-1.383l-1.716-3.453-.741-2.172-.7-2.256-.857-1.73M415.409 402.645l.645 1.246.059.987-1.467.675-5.278 1.35.118.987.82 1.04 1.35 1.038-1.76.83-4.457.676-4.55.26M157.969 537.48l-2.62-1.095M157.969 537.48l.893-3.97M146.993 532.349l-.201-2.894M155.35 536.385l-4.32-1.792-4.037-2.244M155.35 536.385l-.164-3.236M179.345 484.897l4.034 2.545 5.445 2.142 3.506.895M222.819 489.029l-2.908.076-6.196.555-12.422 1.49h-4.176l-3.799-.418-.988-.253M178.035 493.196l10.27-.991 2.525-.79 1.5-.936M178.035 493.196l-5.241.52" clip-path="url(#pac5777eb58)" style="fill:none;stroke:#000"/><path d="m178.918 497.46-.385-1.056-.498-3.208M174.958 482.094l4.387 2.803M166.792 482.542l.746-.38 1.041-.301 2.309-.254 1.639.139 2.431.348M192.099 482.049l-2.445.366-1.062.303-3.335 1.426-2.36 1.205-.627-.082-1.133-.524-.713-.126-1.079.28M260.773 135.643l-1.835-1.12M240.317 182.179l-2.138-.474-2.185-.518-1.857-.344-.898-.032M251.065 204.196l-.706-.36-.827-.309-.612-.29M248.713 197.794l-.634.815-.221.372-.036.44.506 1.505.37 1.231.222 1.08M264.657 176.117l-1.247-.732-.57-.43-.171-.303-.136-.448.043-.436.121-.316.128-.335v-.246l-.092-.22-.157-.21-.517-.33-.52-.234-.356-.146-.271-.006-.16.013-.165.028-.734.436-1.643.909-1.279.7-.563.386-.599.77-.591.98-.528.902-.492 1.112-.249 1.205-.043.676-.4 1.718-.241 2.109-.243 2.728.129 1.269.249 1.048.257.764.349 1.105.342.802.477.714.186.454.157.62-.214 2.284-.157.847-.157.435-.37.392-1.12 1.256-.366.458-1.301 1.999-.363.656-.257.878.085.884.157.934M311.923 199.347l.528.18.181.14.14.17.017.114-.012.07-.046.11-.137.144-.321.291-1.208.947M239.791 144.992l.661.202 1.44.58 1.119.342.706.325.812.588.877.691.634.398 1.062.637 1.166.68 2.041 1.53.927.77.805 1.011.799.796 1.02.96 1.845 1.3 2.177 1.15 1.43.688 2.03.878.999.55.812.568 1.219.884.913.467.976.101 1.04.07.87.107 2.06.076 1.874.107 1.362.271 3.243.897 2.694.758 1.101.259.478.145.62.31.502.375.376.352 2.04 1.922.884.836 1.098.884.749.562.805.405.727.24.87.233 1.311.114 1.568.259 1.376.303.84.094 1.159.06 1.621-.06 1.668-.107 3.001-.278 1.176-.196 1.354-.22h.478l.477.025.492.31.635.428.69.702.899 1.11.848.91.841.726 1.276.94 2.309 1.813 1.462 1.124 1.375.859 1.233.774 1.001.492 1.013.486.27.092.396.095.734.018 1.789.285 1.312.303 1.254.23 1.34.117 1.212-.05M322.866 182.676h2.553l2.645-1.021M338.997 192.105l-.584 1.528M338.413 193.633l-.87.038-.691.076-.346.085-.463.003-.246-.18-.314-.287-.577-.613-.128-.284-.018-.262.032-.205.071-.17.175-.133.25-.114.388-.063.73-.01.56.048 1.369.278.662.265M236.928 223.82l1.82-1.963 1.412-1.437M246.531 241.287l-.437.648-3.276 3.883" clip-path="url(#pac5777eb58)" style="fill:none;stroke:#000"/><path d="m241.508 244.955.59.437.72.426M207.972 271.041l.381-.53.225-.452.093-.391-.043-.824.014-.837.178-1.246.285-.986.406-.928.57-.782 1.205-1.226 1.198-1.13 1.012-1.092.47-.681.852-.48.556-.427.788-1.947.89-1.869.57-.89.55-.354 1.068-.448 2.545-.878 2.138-.713 1.611-.644M229.853 286.244l.948.372.592.24.399.04.307-.103.185-.209.268-.375.266-.79.171-.47.207-.458.193-.252.3-.23.548-.297 1.536-.849 1.112-.843 1.881-1.622 1.38-1.257.827-.783M267.143 289.39l2.375-.712M292.209 322.86l-.749-.872-1.293-1.736-.72-1.332-.3-1.9.05-4.084-.413-5.777-.007-2.759-.321-1.824-.763-1.37-2.298-1.793-2.655-1.08-2.98-.848-2.038-.648-1.967-1.092-2.395-1.593-3.072-2.027-1.932-1.544-1.213-1.191M310.725 288.82l-1.7-1.977-1.004-1.063-2.876-3.466-.713-.916M313.238 277.752l-.926-.637-.663-.62-.905-.924-.392-.253-.624-.192-.702-.02-.755.067-.468.12-.491.253-.41.435-.485.83-.484 1.042-.293 1.093-.113.63-.079.537-.107.29-.267.335-.642.66" clip-path="url(#pac5777eb58)" style="fill:none;stroke:#000"/><path d="m323.032 283.112-.375.657-.327.818-.489 1.164-.363.58-.52.676-.628.594-.392.07-.57.006-.968-.159-.914.039-1.475.252-.79.004-.785-.234-.658-.032-.64.24-.673.395-.367.142-.444.058-.28.11-.649.328M282.191 244.113l-.798.405-.635.17-.391.315-.122.455.057.341.805 1.503 1.454 3.315.913 2.81 1.197 2.512 1.355 3.03.912 2.26M324.86 301.31l.324.792.129.575-.082.552-.213.477-.432.41-.457.039-1.739-.872-1.07-.429M349.589 262.572l-1.896-1.595-.656-.53-.264-.246-.107-.316-.078-.272.036-.561.028-.518.464-2.74.933-4.104.585-2.734.456-1.616.05-.827-.143-1.326-.27-.884-.314-2.462M243.693 315.313l-1.38-3.221M253.551 304.84l-.615 1.05-1.89 1.774-1 1.067-.542.88-.923 1.117-1.774 1.623-1.765 1.746-1.349 1.216M268.497 305.375l.173-.88.307-1.105.057-.499-.172-.528-.75-1.536-.867-1.622-1.098-1.51-1.312-1.767-2.302-3.693-.42-1.023-.148-1.77M253.937 307.02l-.342-.928-.044-1.252M228.641 319.685l-.145.975.046.507.5.635 1.19 1.095 1.012.657 2.409 1.363M207.492 330.12l3.566-1.434 1.433-.486 3.136-.833M215.883 332.053l-.27-1.94.014-2.746M207.492 330.12l-1.758.706-1.115.26-2.948-.102-1.343-.16" clip-path="url(#pac5777eb58)" style="fill:none;stroke:#000"/><path d="m195.62 330.132 3.824.492.884.2M201.058 324.681l.05 3.702-.18 1.023-.6 1.417M178.257 327.718l3.193 1.227 1.99.505 2.38.271 4.312-.094 2.167.063 1.71.278 1.61.164M196.584 349.852l-.531-1.13-.875-6.596.057-1.023.582-3.527.003-1.397-.2-6.047M153.967 322.91l1.268-.1 1.469.264.88.435 1.13 1.156.855 1.401.599 1.465.513 3.207.57 1.067.822.716 1.217.256 1.121-.032.896-.435.937-.684 1.828-.812 3.35-1.452.962-.48 1.846-.896.998-.335 1.126-.145 1.393.033.51.18" clip-path="url(#pac5777eb58)" style="fill:none;stroke:#000"/><path d="m178.202 322.431.097 4.228-.042 1.06M178.202 322.431l-.207-8.93.037-1.434M153.967 322.91l-.558-11.82M148.721 325.391l.356-.013.62-.1.77-.33.798-.544 1.833-1.231.869-.263M133.654 311.875l1.041.993 5.117 4.145 5.345 4.205.998 1.01.741 1.137.6 1.161.498.606.727.259M148.992 312.57l1.254 4.318.1.934-.086.454-.299.871-.73 2.18-.51 4.064M119.017 297.094l1.137 2.003 1.211 1.528 1.098 1.06 1.354.948.927.732.414.82.755 1.604.656 1.111 1.055 1.174.94.468 1.882.707.955.43 1.112.908 1.14 1.288" clip-path="url(#pac5777eb58)" style="fill:none;stroke:#000"/><path d="m134.417 305.658-.371 4.307-.392 1.91M129.168 320.128l1.888-2.35.78-1.26.934-1.505.513-1.623.37-1.515M119.017 297.094l1.6-1.832M280.304 350.55l1.103.236.381.275.517 1.142.566.676 1.123 1.086.298.557.14 1.033M246.4 397.454l-2.656-.406M246.4 397.454l-.077-3.996M254.034 398.798l-3.623-.638-1.162-.17-2.85-.536M254.034 398.798l-.395-2.65M174.272 407.85l-1.534 5.2-.95 2.17M142.235 408.254l-1.404 5.636M136.176 414.856l1.686.2.228-.01.14-.07.566-1.065.137-.08.187-.035 1.711.094M132.018 427.102l.822-1.591 1.437-1.046 1.695-1 1.335-5.548.667-.546 1.13-.363 1.079-.364.648-2.754M222.819 489.029l.505-2.317M424.332 133.672l-1.109.6-3.157 1.866M407.275 141.755l2.192-1.114 2.313-.963 4.02-1.263 1.386-.65 2.88-1.627" clip-path="url(#pac5777eb58)" style="fill:none;stroke:#000"/><path d="m417.864 132.335 1.359 2.13.843 1.673M395.966 149.242l1.178-.86 2.337-1.338 3.592-2.465 4.202-2.824" clip-path="url(#pac5777eb58)" style="fill:none;stroke:#000"/><path d="m403.736 138.832.664-.239.199.002.16.106.904 1.334.895 1.074.717.646M431.087 137.91l-5.676-3.464-1.08-.774M452.656 174.422l-.307.074-5.842 1.824-4.707 2.905-6.6 3.91-1.317.43M428.461 185.494l2.284-.907 3.138-1.023" clip-path="url(#pac5777eb58)" style="fill:none;stroke:#000"/><path d="m446.627 193.016-7.02-3.292-1.769-.94-2.3-3.397-1.655-1.823M433.238 189.515l-2.536-1.201-1.12-.68-1.12-2.14M482.026 178.802l-.35-.334-3.981-3.807M466.36 173.648l-.387 3.17-.31 1.468 3.436 1.72 6.428-1.098.531-.418-.354-1.254 1.99-2.575M455.62 173.704l3.959-.958 6.78.902M452.656 174.422l2.964-.718M452.656 174.422l-1.547 3.389M456.771 176.922l-1.18-1.672.029-1.546M465.714 222.206l.606-.09 2.867-.027 2.962.14 4.269.706 1.795.424" clip-path="url(#pac5777eb58)" style="fill:none;stroke:#000"/><path d="m478.89 215.797.59 5.278-1.267 2.284M435.483 230.706l.83-.378 3.44-1.693 3.186-1.044 3.568-1.072 4.332-1.129 4.523-1.27 4.619-1.016 3.09-.508 2.643-.39M470.573 215.85l-2.241 2.246-1.298 1.724-1.32 2.386M505.667 215.807l-7.786 3.7M482.026 178.802l10.777 10.294.058 4.364 3.94 4.466 4.81 2.67v2.927l-1.39 4.363.105.63M537.458 223.478l-.413 1.672 1.054 1.972M482.026 178.802l4.834-2.935 2.86-1.228 1.342-2.297M493.61 175.471l-1.923-2.891-.625-.238M496.783 176.54l-1.877-.237-1.296-.832M496.47 174.68l-1.877.276-.983.515M602.6 237.973l-2.971.764-2.803.028-2.867-.507-2.358-.48-2.707.395-3.536.988-7.422 1.466-1.624.96-1.498.197-1.05-.564-1.37-1.157-3.301-3.662M586.8 166.697l-6.818-.802M590.809 153.864l-1.455 5.868-1.765 2.42-1.345 2.347.557 2.198M590.809 153.864l.768-3.223M586.156 151.457l3.389 1.456 1.264.951M574.997 150.29l.506-.676 1.304-1.8.342-.258.656-.221 1.475-.209.792-.24.477-.296.364-.487 1.311-1.635.302-.125.318.024.335.202 3.949 2.987 4.449 3.085M381.249 163.518l-.56.271-4.776 3.22-4.154 3.864-2.285 2.76-.727 2.362-1.108 2.086-.709.58M369.521 182.999l-1.34-1.03-1.25-3.307M362.753 171.86l-.128.43-.057.398-.014.398-.178.335-.5.36-.406.353-.783.511-.535.468-.236.233-.306.341-.1.38.114.599.314.916.542.6.456.24.549.107.491.057.47-.253.763-.518.799-.378 1.04-.158.635.05.399.095.25.234.185.246.206.366.207.392M421.521 224.417l1.67-2.251M425.376 230.891l-1.646-4.756-.578-.443-.61-.361-1.02-.914M416.567 212.705l1.284-1.274.77-.455 1.694.183.822 1.5 2.31 5.55-.308 1.183.051 2.774M425.81 220.62l-1.592.59-1.028.956" clip-path="url(#pac5777eb58)" style="fill:none;stroke:#000"/><path d="m437.157 223.076-2.876.728-.154.818 1.356 6.084M425.376 230.891l-3.161 1.964M419.031 235.311l-.513.91-1.564 2.917M599 243.58l.944-1.307.885-1.306 1.771-2.994M558.539 250.58l-.767.418-1.828 1.045h-1.18l-1.356-.888-.944-.365-3.008 2.09.059.783 1.061 1.515.531 1.202-1.416.94-4.01 2.09-4.07 2.665-3.263 1.939M516.426 237.101l.885-1.515.014-2.301M550.309 302.13l7.629 9.268M550.309 302.13l-4.043 2.303M455.55 308.767l.677-2.22-1.22-1.08-.61-1.561.272-1.02 1.06-1.34M425.493 277.295l2.928-4.497M415.808 262.924l3.836 4.673 3.988 3.932 1.86 5.766M428.62 326.901l-4.07-.366-1.824.608M397.89 332.543l.767 2.246 1.26 1.348M395.472 328.155l1.062.47 1.356 3.918M393.644 331.446l1.12 1.985.65.052 1.828-.888.648-.052M392.264 348.392l2.972-.49M396.357 346.293l-1.091.385-1.372.587-.727.43-.903.697M353.537 305.304l.442.87.624 1.458.418 2.094-.065 1.587.092 1.989.205.631.95 1.44M561.443 310.425l-1.61.08-1.895.893M595.882 311.829l1.49-.24.78-.623M580.51 327.158l-.414 2.794M618.87 336.65l-.042-.029-1.727-1.217-4.16-1.904-5.216-2.154-2.361-1.874-3.455-1.717-3.912-.562-7.438-1.748-2.255.156-7.795 1.557M616.614 340.453l.407-2.28 1.85-1.523M417.157 258.424l.822.955-2.171 3.545M375.633 141.99l-3.28-4.825M392.552 153.217l-.989 1.608-.834 2.646-.9 1.288-3.254 1.503-5.326 3.256" clip-path="url(#pac5777eb58)" style="fill:none;stroke:#000"/><path d="m378.86 159.806-.09 1.075.944 1.155 1.535 1.482M395.966 149.242l-1.232 1.124-.837.937-1.345 1.914M388.255 151.193l1.052 1.133.555.388.689.26 2.001.243M394.154 147.826l.65.697 1.162.719M390.482 369.243l.539-.39M407.525 369.19l-1.169.976M406.356 370.166l-1.785-1.636M339.61 411.902l-.07-3.345-.243-1.88-.235-1.143-.179-1.155-.133-2.37M302.49 405.817l.028 2.896M302.49 405.817l3.436-.076M305.926 405.74l.025 2.949M305.926 405.74l3.86.006M336.894 399.286l-1.332.725-.699.316-1.054.302-.87.354-1.077.587-1.674 1.218-1.628 1.044M325.384 406.335l.313-.656 2.863-1.847M297.19 398.226l.21 4.465M297.19 398.226l3.042.056M326.312 391.047l-1.684.435M320.658 392.656l3.97-1.174M286.575 388.496l2.83-.857M290.826 359.673l.236 7.995M291.25 374.062l-.188-6.394M301.224 333.715l2.933-.379M292.209 322.86l5.305 6.184 2.897 3.428.813 1.243M303.869 329.911l.52.063.218.255-.047.32-.352.65-.136.715.085 1.422M311.528 351.67l-.285-4.147M316.497 349.742l-3.585 1.387-1.384.541M307.728 347.977l-5.73.755M311.243 347.523l-.285.013-3.23.44M328.568 385.04l.258-4.768M316.738 355.888l.178-1.875.15-.896.411-1.003-.126-.765-.854-1.607M344.587 371.997l-1.388-5.013M343.185 392.385l.346 2.68M336.695 397.65l6.307-2.382.53-.203" clip-path="url(#pac5777eb58)" style="fill:none;stroke:#000"/><path d="m336.894 399.286 4.582-1.952 2.225-.922-.17-1.347M336.695 397.65l-.426-3.493M336.695 397.65l.2 1.636M331.856 398.332l2.266-.556 2.573-.126M384.345 373.396l-1.51-2.01M381.988 349.747l.174.44-.26.574-.756.344-4.04.99M340.896 367.971l-5.585 3.752M340.896 367.971l-.52-3.273M340.896 367.971l.354.315M385.944 370.294l4.17-2.551M390.696 372.87l-1.378 2.029-1.218 1.455M394.818 361.758l1.755.264M390.696 372.87l.353-.52.987-1.84.864-1.908.91-2.51.446-1.74.562-2.594M396.573 362.022l.39.65M396.573 362.022l2.81-2.315M394.115 377.326l1.758-1.48M404.57 368.53l-1.425-1.305M404.57 368.53l-7.146 6.013M397.424 374.543l-1.55 1.302M394.758 371.973l1.098 1.058 1.568 1.512M395.873 375.845l-2.843-2.61M392.622 372.683l-.552.268-1.374-.08M392.622 372.683l.593-.287 10.307-6.87M395.96 368.281l-.303.287-.584.192-.82.115-.454.287-.454 1.148-.723 2.373M311.243 347.523l-.24-6.067M311.243 347.523l1.81-.258M339.582 426.71l-1.148-.435-.506-.493-.585-1.004-.762-.915-1.033-.517-1.177-.461-.156-.31.021-2.921.043-1.636-.086-1.464.072-1.363.278-4.45-.108-2.828M325.384 406.335l-2.723 1.73-1.426.92-3.72 2.677-1.062.694-.948.348M328.826 380.272l-1.605-1.486M256.161 371.126l-.007 1.016-.214 1.332-.25.645M292.818 316.294l-.374.044-.129.11.097 3.116-.203 3.296M339.582 426.71l-.813.726-2.687 2.07-1.917 1.61M241.195 396.746l-1.334-.119-2.511.068-1.908.349-2.13 1.08-1.477.82-3.926 1.413-3.63 1.03-1.814.605M222.163 399.322l.021.998.28 1.672M206.49 334.084l.377-.979.378-1.382.247-1.604M275.548 369.737l-.533.647-1.27 1.043-.826.509" clip-path="url(#pac5777eb58)" style="fill:none;stroke:#000"/><path d="m273.217 375.507-.32-.783-.143-1.458.165-1.33M275.548 369.737l.05.682-.114 1.142-.014.663.164.815.506.87 1.055.98.62.46.47.53.228.486-.157.7-.3.323M210.959 402.409l.234.417.425.173 1.82-.088.296.142.186.306.09.492-.05 1.114.348 2.557.308.363M243.744 397.048l-1.182-.18-1.367-.122" clip-path="url(#pac5777eb58)" style="fill:none;stroke:#000"/><path d="m243.744 397.048-.106-1.576-.135-.246-.314-.158-.762-.082-1.251.063-.221.104-.05.218.29 1.375M361.202 350.87l-3.653-4.49M361.202 350.87l3.254 4.315M357.549 346.38l-2.607-3.409M354.942 342.971l-.762-.966M354.18 342.005l-2.631-3.29M351.549 338.714l-.793-.987M350.756 337.727l-2.999-3.584M346.936 333.88l-3.601.799M346.936 333.88l.316.4M346.936 333.88l-.06-.351M346.936 333.88l.488-.118M343.335 334.679l-4.049.781M373.64 360.344l-5.053-.055M373.64 360.344l.461.14M368.587 360.29h-3.508l-.97-.017M364.11 360.273l-6.438-.244M357.672 360.03l-3.372.043-1.686.287M343.199 366.984l3.535-2.373M343.199 366.984l-1.949 1.302M335.582 372.076l-.271-.353M335.582 372.076l5.668-3.79M335.582 372.076l-3.587 2.736M327.22 378.786l.63-.543 2.527-2.167 1.618-1.264M318.92 385.999l3.524-3.106 3.211-2.756 1.566-1.35M311.103 388.563l4.804-.297.915-.433 2.098-1.834M302.191 388.706l6.212.038 2.7-.18M302.191 388.706l-.685-.039M346.734 364.61l5.361-3.508M351.803 360.804l.06.125.101.103.131.07M352.095 361.102l.15.032.153-.01.143-.05M352.785 360.694l-.045-.184-.126-.15M352.541 361.073l.101-.07.078-.09.048-.106.017-.113M347.757 334.143l-.333-.38M347.757 334.143l.189-.53M347.757 334.143l-.505.137M346.876 333.529l.548.233M347.424 333.762l.522-.149M364.456 355.185l-.452.128M248.269 258.74l-.782.757M238.593 260.366l-.58.434M168.364 320.176l.699-.158.563.007.706.082.67.032 1.539-.158.912-.025.927.252 3.822 2.223M249.322 247.19l.335.254M249.322 247.19l1.237-1.377M249.657 247.444l1.158-1.377M250.559 245.813l.256.254M576.504 531.756l.937-.091M576.504 531.756l-.296-4.215M580.248 534.468l-3.548.087-.196-2.799M580.085 531.765l.163 2.703M580.085 531.765l-2.644-.1M576.208 527.541l1.222-.189M577.441 531.665l-.011-4.313M291.062 367.668l-1.444.049-.228-.17-.071-.259-.072-3.32M311.003 341.456l-.13-3.307M340.376 364.698l-4.201.52M393.152 342.075l3.205 4.218M383.102 395.945l-3.251-3.376M335.31 371.723l-3.526 2.745-1.752 1.354-2.537 2.177-.582.502M326.913 378.501l.308.285M310.544 411.6l-4.567.06M305.977 411.66l-.026-2.971M305.977 411.66l-3.43.045M302.547 411.705l-.03-2.992M302.547 411.705l-5.374.071M302.518 408.713l3.433-.024M297.4 402.69l.286 6.056 4.832-.033M305.951 408.689l4.436-.031M297.4 402.69l-1.724.01M149.709 144.527l.095 3.25.115 3.485.228 1.996.456 1.313.684.986 1.54 1.464M351 354.085l-.709-1.56" clip-path="url(#pac5777eb58)" style="fill:none;stroke:#000"/></g><g id="PatchCollection_1"><path d="m358.099 346.595 3.25 3.901 3.043-.89-3.256-4.374zM356.196 362.219l-1.483.776-1.29-1.824-.028-.095.057-.1 1.376-.417.176.022zM576.93 534.353l3.067-.074-.074-2.383-3.066.073zM350.946 362.27l.903 1.241 1.269-.725-.903-1.24z" clip-path="url(#pac5777eb58)" style="fill:green;fill-opacity:.8"/></g><g id="PatchCollection_2"><path d="m380.944 361.345 2.142 2.848 4.529-2.67-2.141-2.848zM412.254 263.816l2.494-1.055-.644-1.194-2.494 1.055zM328.323 351.315l.078 2.233 4.42-.12-.077-2.233zM130.92 397.802l1.565.56 1.118-2.45-1.565-.56zM476.344 529.12l.143 2.427 1.627-.075-.144-2.428z" clip-path="url(#pac5777eb58)" style="fill:#90ee90;fill-opacity:.8"/></g><g id="PatchCollection_3"><path d="m266.494 258.706-.99-.687 1.527-1.726.99.688zM349.247 363.362l1.516-.934 1.525 1.944-1.516.934z" clip-path="url(#pac5777eb58)" style="fill:#006400;fill-opacity:.8"/></g><g id="PatchCollection_4"><path d="m331.932 405.256.201.869 1.268-.229-.207-.874zM272.593 263.223l-1.032-.526 1.462-1.669.876.602zM328.717 407.028l1.6-.413.617 1.876-1.6.413z" clip-path="url(#pac5777eb58)" style="fill:#a9a9a9;fill-opacity:.8"/><path d="m332.133 406.125.229.996 1.27-.23-.094-.405.37-.067-.136-.59zM330.97 408.174l-.052 1.034 1.661-.115.026-1.027zM255.422 267.048l.526-.59.632.443-.486.567zM256.533 263.102l-.484.606.826.518.471-.62zM253.027 262.982l.77.025.056.644-.926-.063zM253.654 262.098l.342-.442.456.278-.142.19.484.277-.242.303zM258.543 263.171l-.3.329.457.353.3-.34zM258.6 262.06l-.712.644.284.265.67-.72zM256.904 262.887l-.157.215.185.177.214-.202zM259.1 258.626l.555.328-.328.417-.527-.342zM261.465 260.128l.357.227-.3.342-.327-.203zM257.859 257.855l.727.505-.527.556-.67-.492zM256.847 259.7l-.285.352-.613-.429.328-.366zM256.647 258.74l-.356.39.37.203.328-.392zM250.903 260.09l.698.417.456-.555-.641-.493zM247.595 257.085l-.527.556.598.416.543-.53zM252.129 254.357l.427-.492.67.455-.499.467zM251.216 255.595l-.342.316.157.088-.128.126.427.266.385-.493zM253.17 255.481l-.4.342.143.189-.115.164.4.202.2-.114-.1-.1.313-.279zM250.332 256.555l-.27.316.456.303.256-.392zM249.338 267.216l-.328.429.086.151-.172.177.357.303.285-.34-.1-.064.385-.353zM257.777 266.774l-.385.518.4.328.441-.455zM255.297 265.624l-.157.177.3.202.185-.164zM247.898 259.311l-.37.454.484.266.342-.467zM250.25 260.84l.485.365-.413.366-.414-.29zM251.377 261.95l.712.48.353-.389-.724-.478zM246.76 262.213l-.606.536.627.431.508-.632zM247.71 264.29l.648.383-.41.67-.735-.402zM248.337 263.352l.378.65-.746.25-.324-.632zM249.504 264.06l-.411.43.519.394.453-.432zM250.216 263.63l-.313.335.562.277.303-.287zM248.91 263.955l.237.191-.194.287-.303-.191zM249.32 263.525l.41.306-.183.181-.41-.258zM282.131 266.456l-4.138 4.831 4.082 2.733 4.458-4.849zM505.921 232.52l.214 1.417 1.276-.15-.214-1.418zM506.418 226.088l.971-.098.105-.256-.13-.212-.089-.69-.763.077.1.775-.242.025zM577.805 534.082l-.74.018-.058-1.867.74-.018zM355.932 362.364l.675.937.18-.1.365.508-.459.259.143.198-.032.245-.254.144-.3-.016-.164-.229-.309.175-.366-.509.179-.1-.675-.937zM334.115 338.048l.278 1.37-.74.118-.279-1.37zM348.755 363.734l.435-.3.3.341-.436.3zM359.246 360.762l.585-.007.449.587-.424.254z" clip-path="url(#pac5777eb58)" style="fill:#a9a9a9;fill-opacity:.8"/><path d="m359.246 360.762.61.834-.439.263-.832-1.088zM359.182 369.068l1.39-.858.52.66-1.39.859zM361.705 370.387l.21.276-.128.076.532.703-.19.112.128.168-.374.222-.128-.168-.184.11-.74-.98zM241.932 575.708l.049-.644.429.025-.048.644z" clip-path="url(#pac5777eb58)" style="fill:#a9a9a9;fill-opacity:.8"/></g><g id="PathCollection_1"><defs><path id="m46615ad617" d="M0 3a3 3 0 1 0 0-6 3 3 0 0 0 0 6z" style="stroke:#a9a9a9;stroke-opacity:.8"/></defs><g clip-path="url(#pac5777eb58)"><use xlink:href="#m46615ad617" x="377.298" y="372.592" style="fill:#a9a9a9;fill-opacity:.8;stroke:#a9a9a9;stroke-opacity:.8"/></g></g></g></g><defs><clipPath id="pac5777eb58"><path d="M90 115.677h558v495.846H90z"/></clipPath></defs></svg>