<svg xmlns="http://www.w3.org/2000/svg" width="960" height="960" viewBox="0 0 720 720"><defs><style>*{stroke-linejoin:round;stroke-linecap:butt}</style></defs><g id="figure_1"><path id="patch_1" d="M0 720h720V0H0z" style="fill:#fff"/><g id="axes_1"><path id="patch_2" d="M93.728 640.8h550.544V86.4H93.728z" style="fill:#fff"/><g id="LineCollection_1"><path d="m413.535 281.435.2-.37M413.535 281.435l-.67.883M413.535 281.435l-.244 1.116M395.887 310.445l-4.193 6.273M395.887 310.445l.582-.028M395.887 310.445l1.71-2.831M378.155 337.053l-.115.933M378.155 337.053l.487-3.03M378.155 337.053l2.25-3.06M379.808 381.793l-.662-5.505M379.808 381.793l-.836.048M382.141 400.137l-.24-3.076-.412-3.766-.668-5.142-.495-2.839-.518-3.521" clip-path="url(#p79e26f0213)" style="fill:none;stroke:#000"/><path d="m381.725 381.296-.485.17-1.432.327M419.255 473.763l-2.476-1.36-1.164-.84-1.064-.806-.495-.514-.578-.64-1.238-1.93-.957-1.82-.644-1.614-.875-2.412-1.42-5.339-1.98-6.786-1.997-7.388-.405-1.638-.222-.668-.199-.542-.392-.625-.384-.486-3.334-3.872-1.163-1.147-1.015-.918-1.016-.838-.932-.64-4.284-2.682-.85-.558-.718-.541-.31-.293-.474-.507-.56-.652-.52-.607-.413-.505-.38-.632-.288-.57-.605-1.72-1.583-4.9-1.617-5.035-.61-1.52-.232-.39-.095-.092-.12-.09-.098-.056-.122-.045-.448-.09" clip-path="url(#p79e26f0213)" style="fill:none;stroke:#000"/><path d="m382.147 401.68.003.957-.223 2.54-.396 2.095-.553 2.184" clip-path="url(#p79e26f0213)" style="fill:none;stroke:#000"/><path d="m372.099 426.265 3.91-6.226 2.609-4.524 1.452-3.165.908-2.894M361.187 438.738l.8.451M315.697 438.153l14.987.079 12.314.11 15.829.254 2.36.142M361.187 438.738l.933.064M430.213 289.712l-1.442 1.345M504.567 323.949l-11.63-5.352-27.17-12.904-32.995-15.051-2.559-.93M490.282 211.558l.296 1.553.23 2.975.017 1.044-.165.49-.726 1.504-10.423 18.552-.562.878-.347.395-.387.254-.677.388-1.164.696-4.77 2.492-.784.458-.38.365-.71.727-1.188 1.298-.891 1.06-1.667 2.515-3.301 4.795-2.394 4.018-1.436 1.789-4.135 6.209-3.936 5.546-5.166 6.63-1.205 1.123-.694.522-1.238.823-.61.38-.908.585-.909.68-.825.76-.89.822-1.883 1.725-2.872 2.01-3.369 2.093M412.87 308.206l-1.903.23M412.87 308.206l.406 2.656M412.87 308.206l2.035-2.194M632.62 384.381l-3.945 3.345-2.302 2.104-.594.546-.413.348-.467.293-1.733.823-.534.208-.613.164-.854.213-3.154.837-5.61 1.426-1.288.225-1.213.138-1.411-.063-1.437-.103-2.038-.26-1.898-.294-15.615-2.167-21.012-2.958-21.31-2.868-17.52-2.337-12.306-1.757-1.32-.427-1.04-.521-.73-.621-.587-.732-.383-.827-.363-1.27-1.816-6.739-.124-.573-.107-.752-.045-.815.3-8.175.137-1.594.153-1.602.907-7.277M504.567 323.949l3.961 1.38 1.09.514.717.408.562.423.664.59.285.395.198.348.215.656.032.614-.074.98-1.882 20.062" clip-path="url(#p79e26f0213)" style="fill:none;stroke:#000"/><path d="m569.625 350.619-1.329.51-.289.11-.322.138-3.656 1.587-.501.216-.469.216-.451.233-.441.241-3.172 1.693-.412.21-.467.221-.466.21-.413.182-2.022.74-.437.166-.38.161-.974.428-.474.164-.409.156-2.323.617-.53.18-.506.188-.957.332-.842.23-.623.118-.631.08-2.146.22-1.444.084-.487.004-.45-.024-.388-.059-2.047-.313-.532-.086-.504-.07-.523-.045-2.088-.12-1.474-.074-.606-.004-.562-.004-2.68-.03-.36-.018-.335-.027-1.452-.202-.417-.053-.388-.034-1.853-.122-1.155-.13-.607-.123-.483-.127-.994-.356-1.049-.47-.569-.373-.215-.18-.165-.18-.146-.2-.11-.179-.387-.591-.231-.337-.217-.273-1.145-1.342-.293-.317-.314-.296-1.155-1.104-1.597-1.365-.23-.142-.292-.109-.348-.096-.857-.198-.353-.068-.338-.063-.409-.036-.305.005h-1.094M632.835 384.198l-.215.183M624.544 359.672l.017.08.116.364 1.233 2.86.801 1.316.21.352.215.451.231.55.372 1.127.165.384.193.443.504.914 2.84 4.8.17.406.085.346.058.448.016.391-.043.516-.308 2.079-.037.466.03.51.094.617.412 2.6.137.645.173.509.248.586.359.766M363.875 439.67l.267-.43.466-.834M364.608 438.406l-.747.332-.636.167-1.105-.103M372.099 426.265l-3.682 5.861-3.81 6.28M361.987 439.19l.611.838.075.672-.058 1.17M361.987 439.19l.564.343.441.212.622.344M362.615 441.87l.999-1.781M355.2 524.52l.243-6.812.083-8.115.181-13.035.495-28.197.149-4.382.214-2.595.43-2.808.404-2.135.767-3.156.636-2.247.949-2.8 1.04-2.578.874-1.954.95-1.835M363.614 440.089l.261-.418M363.875 439.67l-.715-.327-.481-.26-.56-.281M342.766 343.373l2.938-.032M351.498 343.508l-.297-3.512M351.498 343.508l2.938 8.496M351.498 343.508l4.193.466M351.498 343.508l-1.956-.048M377 345.928l1.68-.182M377 345.928l.404-3.006M377 345.928l-6.421-.625M376.934 348.745l.025-1.338.04-1.48M378.427 376.28l-4.827-.079M378.427 376.28l.719.008M378.972 381.841l-.037-.64-.508-4.92M378.427 376.28l-.585-5.442M379.146 376.288l.792.008M379.938 376.296l5.53-1.17M379.938 376.296l-.883-5.498M381.725 381.296l-1.564-4.216-.223-.784M376.91 356.71l.024-7.965M376.91 356.71l.156 2.753M376.91 356.71l2.665-.364M376.91 356.71l-1.891.538M374.837 383.811l3.104-1.06.643-.285.289-.284.1-.34M381.725 381.296l3.012-.452M384.737 380.844l3.903-.846.868-.099.812-.028 3.354-.258M384.737 380.844l.62 1.904M385.467 375.126l-.148-2.698M385.467 375.126l5.427-1.45M373.6 376.201l-3.12-.158M373.6 376.201l1.237 7.61M374.837 383.811l-2.294.76M370.48 376.043l-.99-.063M370.48 376.043l.693 3.188M372.543 384.57l-.738.309M372.543 384.57l-.511-1.606M361.484 385.282l3.425-.704M361.484 385.282l.561 2.912M361.484 385.282l-.71-4.018M372.032 382.964l-.859-3.733M372.032 382.964l-4.49.965M358.142 381.667l2.632-.403M371.173 379.23l-4.324.744M366.189 375.853l3.3.127M366.189 375.853l-2.708-.047M366.849 379.974l-.479-2.705-.181-1.416M366.849 379.974l-2.427.49M366.849 379.974l.693 3.955M367.542 383.93l-2.195.522M355.69 343.974l1.692 7.116M355.69 343.974l2.377.269M358.093 354.012l-.71-2.922M358.093 354.012l.049.855M358.093 354.012l.436.728M367.38 392.825l-2.033-8.373M371.805 384.879l-1.474.546-.165.19-.099.237-2.195 6.34-.165.332-.14.192-.186.109M364.91 384.578l2.013 8.112.132.109.148.044.178-.018M365.347 384.452l-.438.126M365.347 384.452l-.925-3.987M364.422 380.465l-.462.103M364.422 380.465l-.94-4.66M363.482 375.806l-.504-.032M363.482 375.806l-.455-1.613M364.91 384.578l-.95-4.01M363.96 380.568l-3.186.696M363.96 380.568l-.982-4.794M362.978 375.774l-.388-1.653M380.314 400.584l-.508-.304-.825-1.107-.397-.49-1.403-1.203-1.371-1.195-.296-.372-.247-.553-1.424-4.683-2.038-5.798M382.141 400.137l.006 1.543M380.314 400.584l.515-.02.545-.11.767-.317M367.426 408.696l.268-.407.343-.328.545-.301 2.434-1.278 3.409-1.577 1.164-.546 2.6-1.23.531-.237.339-.246.375-.541.88-1.42M377.842 370.838l-3.104.174M377.842 370.838l-.958-8.82M362.31 371.645l-.776-3.093M362.31 371.645l-.425.067M362.31 371.645l6.123-.269M362.31 371.645l.717 2.548M361.885 371.712l.705 2.409M361.885 371.712l-.748-2.97M379.055 370.798l6.057-.41M379.055 370.798l-1.535-9.025M385.112 370.387l4.317-.26M385.112 370.387l-1.014-11.351M385.112 370.387l.207 2.04M384.098 359.036l-.314-2.99M384.098 359.036l3.878-1.661M377.52 361.773l4.58-1.978 1.998-.76M382.612 345.24l4.126-.396M382.612 345.24l-3.933.506M382.612 345.24l-.81-7.657M382.612 345.24l1.172 10.805M381.007 332.893l-.13.24M381.007 332.893l.233-.094.51-.592.325-.47 1.99-3.014" clip-path="url(#p79e26f0213)" style="fill:none;stroke:#000"/><path d="m383.947 328.024-2.59 4.009-.186.337-.102.288-.062.235M361.137 368.742l.397-.19M361.137 368.742l-1.667-8.005M361.534 368.552l-1.766-8.124M361.534 368.552l5.942-2.58M406.273 349.812l-5.504 2.262M406.273 349.812l-1.09-7.016M406.273 349.812l.52 2.563M372.13 364.027l4.754-2.01M372.13 364.027l-4.654 1.946M372.13 364.027l-2.03-5.228M372.13 364.027l2.608 6.985M367.476 365.973l-2.46-5.624M367.476 365.973l.957 5.403M365.016 360.349l5.084-1.55M365.016 360.349l-1.675-3.797M383.784 356.045l4.044-.553M383.784 356.045l-4.21.301M387.828 355.492l-1.09-10.648M387.828 355.492l.148 1.883M392.136 354.96l-1.27.184-3.038.348M389.429 370.126l-1.453-12.751M393.34 368.908l-.138.415-.113.226-.26.324-.627.142-2.773.111M387.976 357.375l4.224-1.78M386.738 344.844l4.246-.482M386.738 344.844l-.602-7.76M386.136 337.084l3.683-.306M386.136 337.084l-4.333.499M381.374 333.817l4.034-.655.235.026.097.065.017.078.379 3.753M379.575 356.346l-.896-10.6M392.586 355.452l4.023-1.716M392.586 355.452l-.386.143M392.586 355.452l-.062-.624M393.167 362.673l-.223-2.901-.358-4.32M377.066 359.463l-.182 2.555M377.066 359.463l.454 2.31M376.884 362.018l.636-.245M374.738 371.012l-6.305.364M370.1 358.799l4.919-1.551M370.1 358.799l-2.55-6.487M367.55 352.312l-1.46-3.789M367.55 352.312l4.935-1.772M367.55 352.312l-4.209 4.24M364.752 344.844l-.66-3.212M364.752 344.844l1.338 3.679M364.752 344.844l5.827.46M364.752 344.844l-6.685-.601M369.49 375.98l-1.057-4.604M358.067 344.243l2.485 5.933M375.019 357.248l-2.534-6.708M370.579 345.303l1.106-2.832M370.579 345.303l1.906 5.237M371.685 342.471l-7.593-.839M371.685 342.471l5.72.451M377.404 342.922l.636-4.936M364.092 341.632l-.479-3.321M351.456 340.032l2.386.343 10.25 1.257M351.2 339.996l-5.034-2.231M351.2 339.996l.256.036M362.59 374.12l-8.6-7.68M362.59 374.12l.437.073M353.99 366.44l-6.507-7.789M353.99 366.44l4.16-4.525M353.99 366.44l-2.162 2.389M343.457 353.98l3.52 4.032M349.666 370.996l2.162-2.167M359.47 360.737l.298-.309M359.47 360.737l-1.32 1.178M359.47 360.737l-1.328-5.87M359.768 360.428l-1.239-5.688M359.768 360.428l3.573-3.876M363.341 356.552l-1.243-3.105M372.485 350.54l4.449-1.795M354.873 372.007l-3.045-3.178M351.828 368.829l-6.275-7.469M345.553 361.36l1.93-2.709M345.553 361.36l-4.571 6.821M362.098 353.447l-1.546-3.271M362.098 353.447l-3.569 1.293M358.142 354.867l.387-.127M358.142 354.867l-2.322.87M358.15 361.915l-2.33-6.178M355.82 355.737l-8.337 2.914M354.436 352.004l1.173 3.17.21.563M346.637 354.1l.438-.064M346.637 354.1l.34 3.912M346.637 354.1l-.462-4.889M354.436 352.004l2.946-.914M354.436 352.004l-2.848.774M357.382 351.09l3.17-.914M360.552 350.176l5.538-1.653M351.588 352.778l-4.513 1.258M351.588 352.778l-.833-3.915M349.542 343.46l1.213 5.403M349.542 343.46l-3.301-.135M350.755 348.863l-4.16.324M344.244 349.282l1.93-.071M345.498 337.488l.668.277M345.498 337.488l.206 5.853M323.014 330.55l1.364.348 5.546 1.59 8.237 2.39 5.587 1.826 1.75.784M345.704 343.341l.47 5.87M346.24 343.325l-.263.008-.273.008M346.175 349.211l.42-.024M346.977 358.012l.377.51M347.483 358.651l-.129-.13M347.075 354.036l-.48-4.849M347.075 354.036l.279 4.485M346.596 349.187l-.355-5.862M346.24 343.325l-.074-5.56M363.613 338.31l3.85.257M371.594 332.425l-.761-.396-.788-.38-.506-.102-.722-.091-.518-.117-.666-.255-.648-.447-.384-.218-1.056-.288-1.77-.46-.589-.035-.464.083-.384.396-.09.581 1.365 7.615M378.04 337.986l3.763-.403M390.052 336.744l4.221-1.733M390.052 336.744l-.233.034M390.052 336.744l-.157-.478M390.052 336.744l.64 3.97M403.467 331.183l-2.27.902M403.467 331.183l-1.708-12.436M403.467 331.183l1.717 11.613M381.374 333.817l-.968.176M381.374 333.817l.429 3.766M393.34 368.908l.174-.783.05-.412-.019-.523-.229-2.578-.149-1.939" clip-path="url(#p79e26f0213)" style="fill:none;stroke:#000"/><path d="m392.71 362.704.33 4.598.074.633.04.218.187.755M391.4 344.306l4.037-.363M391.4 344.306l-.416.056M391.4 344.306l-.708-3.591M391.4 344.306l.652 6.1M388.128 321.943l-4.181 6.081M388.128 321.943l.077.684M388.128 321.943l.586-.909M394.273 335.011l6.924-2.926M394.273 335.011l1.164 8.932M395.437 343.943l4.853-.49M395.437 343.943l1.172 9.793M396.61 353.736l4.159-1.662M396.61 353.736l1.088 8.96M400.29 343.452l2.46-.396M400.29 343.452l.479 8.622M400.769 352.074l.279 8.341M405.184 342.796l6.561-.744M405.184 342.796l-2.435.26M400.463 309.852l3.868-.602M400.463 309.852l-2.134.314M400.463 309.852l.442 2.681M402.75 343.056l-1.553-10.971M401.197 332.085l-2.868-21.92M398.33 310.166l-1.861.25M398.33 310.166l-.381-2.193M407.371 308.869l3.596-.434M407.371 308.869l-.449.058M407.371 308.869l.388 2.78M413.676 317.094l.049-2.966M413.676 317.094l-.151 2.922M413.676 317.094l.553-.087M413.676 317.094l-4.904.708M410.144 328.778l-.413-2.713M410.144 328.778l2.996-.395M411.745 342.052l.24-.205.107-.349-1.948-12.72M413.14 328.383l.095-2.854" clip-path="url(#p79e26f0213)" style="fill:none;stroke:#000"/><path d="m411.745 342.052 1.65-.253.323-.68-.669-11.281.09-1.455M409.731 326.065l-.28-2.737M409.731 326.065l3.504-.536M413.235 325.529l.095-2.004M413.235 325.529l2.414-.192M400.905 312.533l.483 3.24M400.905 312.533l3.336-.44M407.759 311.65l5.517-.788M407.759 311.65l-.424.053M407.759 311.65l.44 3.097M413.276 310.862l.449 3.266M401.388 315.773l.37 2.974M401.388 315.773l3.187-.507M408.199 314.747l5.526-.619M408.199 314.747l-.427.063M408.199 314.747l.573 3.055M418.754 316.376l-.097-2.438-.045-.226-.052-.088-.13-.047-.181-.007-.859.063-3.665.495M401.759 318.747l6.697-.9M408.772 317.802l-.316.046M408.813 318.263l-.028-.3-.008-.086-.005-.075M409.092 320.478l.358 2.85M409.092 320.478l-.28-2.215M409.092 320.478l4.433-.462M413.525 320.016l-.163 2.726M413.525 320.016l5.334 4.45M409.45 323.328l3.912-.586M413.362 322.742l-.032.783M384.114 325.361l-4.407-.61M384.114 325.361l-.167 2.663M384.114 325.361l1.221-9.35M379.707 324.752l-.224 1.92M379.707 324.752l-3.475-.563M380.771 315.552l-.338 3.298-.726 5.902M391.694 316.718l-2.98 4.316M391.694 316.718l-2.15-.257M391.694 316.718l.502.038M380.771 315.552l4.564.458M381.655 308.376l-.26 1.796-.624 5.38M381.655 308.376l4.448.49M382.695 299.323l-.194 1.835-.846 7.218M394.185 202.69l-.399 3.554-.462 3.86-.578 5.507-.99 8.26-1.386 10.933-1.354 10.696-.94 8.83-1.321 11.328-1.238 9.398-1.8 16.027-1.022 8.24" clip-path="url(#p79e26f0213)" style="fill:none;stroke:#000"/><path d="m386.103 308.867 1.006-7.412.1-.772.03-.51.007-.196-.016-.171-.173-.131-.137-.044-.153-.033-.244-.026-3.828-.249M386.103 308.867l-.768 7.143M389.544 316.461l.681-5.87.068-1.002v-.154l-.105-.157-.233-.11-.177-.013h-.154l-.158.005-.234-.013-3.13-.28M385.335 316.01l4.21.451M383.947 328.024l.117.699M388.714 321.034l.83-4.573M404.331 309.25l1.28-.151M399.002 306.233l.578.348 4.751 2.67M397.62 300.81l3.073 1.673M400.693 302.483l.419.243M400.693 302.483l-2.11 3.494-.987 1.637M400.693 302.483l1.996-3.307M410.967 308.435l-3.573-2.067M405.611 309.099l1.311-.172M405.611 309.099l1.783-2.73M407.394 306.368l-6.282-3.642M407.394 306.368l2.012-3.525M419.6 286.017l-2.084 3.44M419.6 286.017l-6.309-3.466M419.6 286.017l6.63 3.769M398.607 296.984l4.082 2.192M402.69 299.176l.425.232M402.69 299.176l2.039-3.378M409.406 302.843l1.957-3.28M409.406 302.843l5.499 3.169M409.406 302.843l-6.291-3.435M414.905 306.012l2.767-2.985M417.672 303.027l2.625-2.831M417.672 303.027l-6.309-3.464M411.363 299.563l2.038-3.315M411.363 299.563l-6.213-3.525M404.729 295.798l-5.858-3.23M404.729 295.798l.421.24M404.729 295.798l2.026-3.355M406.755 292.443l.421.24M401.944 285.308l-1.101 1.939-.28.486-.232.455-.078.19-.038.127-.02.118.029.158.14.131.66.42 5.731 3.11M406.755 292.443l1.994-3.303M413.4 296.248l2.017-3.327M413.4 296.248l6.897 3.948M413.4 296.248l-6.224-3.564M420.297 300.196l2.733-2.947M423.03 297.249l1.31.938 2.046 1.765.305.347.058.206-.025.3-.115.278-.562.648-1.279 1.598-.256.087-.297-.063-.38-.19-2.22-1.922-1.318-1.045M406.114 278.607l-2.147 3.362M406.114 278.607l-3.645-2.003M406.114 278.607l6.752 3.71M401.944 285.308l2.023-3.339M401.944 285.308l6.805 3.832M408.749 289.14l.422.24M408.749 289.14l2.012-3.335M415.417 292.92l2.099-3.463M415.417 292.92l6.745 3.928M415.417 292.92l-6.246-3.54M423.03 297.249l2.947-3.178M423.03 297.249l-.868-.4M401.66 280.797l2.307 1.172M403.967 281.97l6.794 3.835M410.761 285.805l.427.23M410.761 285.805l2.105-3.487M417.516 289.457l6.864 3.695M417.516 289.457l-6.328-3.421M425.977 294.07l2.794-3.013M425.977 294.07l-1.597-.918M428.771 291.057l-2.54-1.271M412.866 282.318l.425.233M413.735 281.065l1.633-3.01 1.353-2.129.405-.767.61-1.432 1.28-3.125.438-1.068.255-.546.396-.625 1.437-2.73 1.089-1.668 1.469-1.891.643-.688.43-.357.57-.482.271-.308.389-.554.28-.554 3.293-6.123 3.21-5.277.743-1.274.891-1.218.537-.696 1.997-3.75 1.23-2.524 1.139-2.531 1.32-3.046.768-1.472 1.417-2.218.378-.72.251-.725.133-.43.049-.463-.015-.498-.1-.4-.347-.962-.083-.439-.029-.764-.045-1.763.091-.784.09-.902.834-5.648.14-.578.273-.894.272-.854.454-2.05.408-2.606.128-.922.207-.474.454-.744.949-1.179.908-.704 1.345-.791.487-.364.668-.744 4.028-5.095 1.056-1.495.256-.269.273-.127.494-.087.343.004.243-.047.186-.032.268-.099.33-.047h.256l.297.087.322.142M618.518 172.744l-3.656 14.178-.26 2.589-2.092 2.505-1.917 7.349-7.23 7.433-.61 3.591-1.568 1.503-12.023 25.722-24.219 5.094-2.352 2.255-22.041 23.216-9.148 6.847-17.163 6.013-2.787 2.338-6.885 40.572M378.667 333.698l.573-4.941M378.667 333.698l-.025.325M371.594 332.425l1.411.36 1.663.4 3.999.513M224.903 183.704l-.056-.237-.165-.396-.321-.57-1.783-2.412-1.527-2.31-.644-.902-.569-.752-.462-.499-.388-.324-.66-.316-.892-.357-.89-.332-.562-.34-.396-.395-.438-.53-.346-.539-.223-.545-.133-.507-.148-1.068-.124-.344-.19-.324-.586-.677-1.502-1.7-.643-.745-.298-.427-.313-.601-.19-.839-.107-.839-.017-2.341-.123-.958-.207-.814-.297-.815-.396-.744-2.683-4.557-.387-.57-.52-.617-.982-.886-1.111-.91-1.489-1.013-2.335-1.519-3.344-2.23-2.037-1.14-2.18-1.053-1.41-.656-.578-.34-.421-.396-.578-.79-1.214-2.206-1.146-2.811-.52-1.1-.344-.597-1.521-1.852-1.346-1.317-.297-.364-.314-.57-.874-2.223-.322-1.084-.157-.657-.136-.948.046-1.607-.034-1.646-.088-.673-.192-.727-.487-1.14-1.106-2.54-1.906-4.406-.232-.61-.14-.514-.041-.98.074-3.213-.074-.42-.107-.443-.273-.514-1.356-1.616-1.078-1.612-1.147-2.002-.298-.657-.198-.482-.181-.791-.116-.934-.14-1.21M418.754 316.376l-4.525.631M418.754 316.376l.237 4.405M413.33 323.525l2.319 1.812M418.86 324.467l-.446.443-.496.174-2.27.253M418.99 320.78l.034 2.382-.017.648-.148.657M418.99 320.78l-4.761-3.773M422.162 296.848l2.218-3.696M426.23 289.786l-1.85 3.366M431.84 285.743l-.37-.213-.652-.356-.347-.055-.297.063-.388.221-.743.538-.883.902-.743.886-.346.49-.84 1.567M129.938 485.295l.024 1.44M139.734 480.083l-2.344.782-1.939.895-1.42.806-2.31 1.52-1.783 1.209M127.803 486.753l.954-.624 1.18-.834M129.532 486.966l-.616.595-.246.196-.284.196-.526.29-.506.232-.99.355-1.98.704-2.774.958-.602.276-.384.262-.326.312-.499.557-.826.93-2.372 2.713-.33.474-.12.31-.103.37-.115.673-.182 1.936-.058.338-.06.173-.072.167-.268.423-.483.53-.664.767-.78.716-.867.674-.9.562-.546.255-.53.196-.743.203-.607.234-.47.253-.355.261-.363.431-.38.708-.474 1.068-1.82 5.73-.81 2.325-.135.513-.05.402.004.182.03.2.103.38.214.585.248.554.313.42M129.962 486.734l-.43.232M136.507 520.737l.198-3.068-.215-3.37-.099-1.202-.165-.91-.33-1.25-1.204-3.82-1.858-5.797-.734-2.608-.38-1.482-1.08-5.315-.414-2.38-.181-1.345-.083-1.456M117.577 607.543l-.349-1.495-.177-.953-.075-.727-.053-.866-.012-.665.061-.767.24-1.515.247-1.004.132-.601.041-.299.12-1.824.064-.463.275-1.337.098-.779.062-.7.211-1.061.078-.623.285-2.069.384-2.384.115-.864.157-1.453.207-3.265.26-2.932.342-4.676.176-4.026.154-3.94.289-3.259.256-2.661.227-2.875.136-1.27.314-2.357.138-.792.138-.554.458-1.164.52-.938.45-.629.462-.399.404-.238.425-.166 1.18-.328 1.85-.427.639-.127.877-.112.308-.063.292-.097.512-.241.635-.396.483-.435.214-.296.178-.32.144-.456.776-3.942.586-2.072.413-1.914.24-1.954.833-5.83.726-4.784.529-3.03.255-1.392M127.803 486.753l.771.128.545.07.413.015M117.691 615.535l.028-1.005.01-1.02.058-.403.37-1.82.128-.632M117.577 607.543l.39.807.15.34.134.411.072.314.032.358-.07.882M139.173 603.276l-1.787.495-2.996.652-.982.099-1.048.024-.746-.092-.541-.106-.537-.221-.329-.165-.183-.053-.177-.014-.458.03-1.155.119-1.667.236-.37.088-.262.134-.33.25-.557.434-.747.455-.565.265-.483.17-.553.13-.425.15-.5.27-.575.316-.157.117-.175.188-.396.553-.603.87-.536.83-.471.645-.577.51M117.691 615.535l-.009.138.38 2.416.247 2.555.215 1.81.371 2.025.305 1.733.22.99.684 2.252.314.684M141.113 479.648l-1.511-1.353M315.697 438.153l-1.832.285-2.097.79-1.766 1.171-1.32 1.44-2.988 4.066-5.398 7.814-1.915 2.405-1.733 1.487-1.633 1.203-1.486.806-1.057.459-2.855.696-10.118 2.12-18.735 3.986-28.736 6.186-3.516.696-2.443.537-10.531 2.42-6.652 1.283-11.785 2.42-1.981.269-1.733.063-1.948-.206-1.551-.237-1.147-.285-1.643-.609-6.107-2.554-2.262-.744-2.211-.45-2.022-.167h-1.824l-7.51 1.345-4.036.585-2.22.158-5.587-.008-4.622.237-2.674.436-2.064.553-2.846.839M139.734 480.083l.66-.261.719-.174M139.734 480.083l-.132-1.788M121.57 459.233l.824.443.685.363.529.452 1.025 1 1.306 1.185.66.662.314.233.175.043.155.009.12-.015.128-.037.31-.202.375-.233.326-.134.141-.108.09-.09.056-.086.039-.112.008-.257-.041-.336-.075-.342-.181-.599-.355-.914-.177-.554-.03-.277.015-.135.035-.11.178-.257.046-.1.02-.084.02-.155-.025-.199-.131-.64-.232-.961-.066-.408-.005-.168.034-.128.056-.083.085-.063.115-.05.18-.044.67-.092 1.152-.13.61-.015.305.054.29.13.713.392.57.34.206.18.136.216.136.438.363 1.293.562 2.504.314 1.724.26 1.1.375 1.123 1.288 3.927.668 1.808 1.783 5.386.899 2.175" clip-path="url(#p79e26f0213)" style="fill:none;stroke:#000"/><path d="m116.04 614.705.227.375.165.154.189.107.209.078.332.092.53.024M355.2 524.52l-.537.484-.206.317-.104.518-.29 9.602-.058.198-.14.168-.308.096-5.393-.209-6.008-.048-4.565-.055-3.342-.048-6.677-.166-6.016-.031h-.669l-.528.055-.552.127-.9.253-2.443.878-6.322 2.048-3.367 1.337-3.004 1.028-1.329.514-.57.27-1.08.719-2.526 2.096-4.456 4.184-7.461 7.442-1.453 1.503-2.525 2.99-.52.53-.734.577-4.02 2.958-.676.609-.719.838-1.262 1.4-.702.578-.94.6-1.073.776-1.296 1.012-1.585 1.06-2.03 1.257-1.395.65-1.254.418-2.171.585-1.502.483-2.302.83-1.189.49-1.015.538-1.353.886-1.197.664-.982.578-.677.474-.95.902-1.17 1.234-.992 1.217-.726 1.06-.635 1.424-.611 1.36-.528 1.123-.627 1.622M601.597 342.772l1.762 9.485.045.262.1.291.115.222.113.142.16.087.249.028.287-.028 3.823-.68.209-.04.258-.022.286.022.314.111 4.816 2.278 6.37 2.903 4.04 1.839" clip-path="url(#p79e26f0213)" style="fill:none;stroke:#000"/><path d="m625.977 337.52.206.395.084.202.073.256.043.232.03.24-.016.255-.016.23-.041.384-.07.598-.128.522-.471 1.083-.217.297-.185.231-.202.186-.374.275-.152.182-.083.133-.068.136-.048.253-.004.432.067 1.277-.005.478-.004.392.004 2.207.058 3.655.025 7.1.024.344.037.177M620.546 299.793l.784 1.226.124.265.123.297.389 1.064.198.447.243.44.59 1.047.19.435.186.51.879 2.6.503 1.332.235.46.281.454.623.965.809 1.21.367.61.227.608.157.61.181 1.151.017.3-.027.24-.068.227-.12.257-2.628 4.996-.215.478-.146.372-.043.261-.013.404.078.47.104.447.359 1.21.173.562.223.554 1.164 3.107.874 1.651.153.293.115.289.037.344.042.35-.013.429-.156.997-.132.53-.26.488-.268.437-.85.938-.207.305-.066.22-.004.226.041.218.178.395M620.827 331.681l1.107 1.733.199.28.198.248.25.298 1.291 1.384.307.308.366.349 1.432 1.238M602.109 289.327l2.732 5.32.093.17.1.15.236.194.289.107 1.58.396.423.077.366.046 1.43.043.484-.008.396-.035.784-.096.304-.027.212.004.297.043 1.02.214 1.538-.376.351-.063.268-.028.244.06.248.067 3.796 3.211 1.246.997M632.62 384.381l.644.956.124.18.111.238.095.235.07.431.02.7-.106 1.128-.062.423-.07.344-.157.609-.322 1.115-.116.396-.086.34-1.02 4.437-1.068 4.96-.09.38-.096.324-.17.408-1.254 2.365-.256.514-.206.467-.28.87-.128.344-.149.308-.706 1.491-.358.771-.227.578-.55 1.792-.088.322.002.292.053.33.087.222.55 1.325.152.325.09.344-.005.342-.176.326-.219.313-.198.176-.182.124-.29.14-1.323.608-.396.217-.43.261-3.321 2.049-.594.34-.747.475-.788.561-1.205.989-2.344 1.962-1.956 1.4-.685.45-.59.34-.813.372-8.819 3.216-.7.221-.921.233-.409.092-.548.182-.45.274-.326.26-.404.34-2.303 2.104-.248.182-.264.086-.277.084-.387.02-3.05-.135-3.804-.008-1.878-.093-.198.002-.195.02-.17.066-.122.078-.652.426-.157.073-.152.06-.176.03-.212.014-1.212-.146-.177-.004-.155.016-.179.051-.576.196-.181.073-.178.102-.136.098-.142.125-.762.668-.192.184-.115.172-.114.233-.131.333-.67 2.681-.742 3.116-1.04 4.074-1.196 4.453-.801 3.607-.062.479-.031.554-.018.66.002 1.143-.023.249-.07.237-.099.23-.386.662-.11.216-.09.195-.283.718-.08.21-.062.22-.14.674-.067.241-.111.237-.772.985M419.255 473.763l6.301-2.737 20.505-8.677 26.306-10.654.69-.325.577-.284.68-.431 7.887-5.541 12.75-8.84.305-.209.232-.132.227-.119.698-.345.171-.08.177-.118.215-.165.575-.489.221-.185.158-.124.188-.14 7.282-4.905.334-.234.334-.265.33-.314.399-.416 2.598-3.178 2.917-3.504.361-.409.456-.456.788-.681.285-.198.276-.162.339-.11 6.256-1.278 2.088-.459.45-.047.366-.008.447.05 2.285.69.855.304.528.162.17.075.118.087.12.172.047.115.029.126.003.165-.027.17-.052.249-.152.486-.112.343-.045.262-.012.44.024.506.132.609.343 1.127.102.254.13.264.292.364.289.233 1.865 1.048.342.202.376.28.305.294.256.316.392.546 1.853 3.156 6.883 11.422 4.382 7.174 2.204 3.737.27.394.283.35.767.834.322.29.34.23.27.115.362.099.46.077 2.01.265 11.5 1.621.574.123.524.146.957.372 1.143.515.693.39.669.412 1.405.98.332.236.31.263 1.328 1.175" clip-path="url(#p79e26f0213)" style="fill:none;stroke:#000"/><path d="m478.167 500.019-.637-.06-.95-.087-1.642-.182-15.474-1.866-.867-.15-.544-.135-.363-.214-.455-.324-2.434-2.088-4.762-3.67-.799-.6-.493-.389-.536-.376-1.465-1.075-2.707-1.922-1.073-.613-.957-.499-.78-.312-1.028-.387-.933-.336-1.65-.49-.862-.262-.656-.245-1.33-.61-1.138-.743-1.221-.79-8.088-4.952-5.068-2.88M404.24 312.093l3.095-.39M404.24 312.093l.335 3.173M404.575 315.266l3.197-.456M380.406 333.993l.47-.86M380.406 333.993l-1.764.03M413.291 282.551l-2.103 3.485M411.188 286.036l-2.017 3.343M409.171 289.38l-1.995 3.304M407.176 292.684l-2.026 3.354M405.15 296.038l-2.035 3.37M403.115 299.408l-2.003 3.318M401.112 302.726l-2.11 3.507M399.002 306.233l-1.053 1.74M396.469 310.417l1.48-2.444M396.469 310.417l-4.273 6.339M388.205 322.627l.92-1.337 3.071-4.534M388.205 322.627l1.69 13.639M388.205 322.627l-4.14 6.096M224.903 183.704l.176-.918V179.9l-.1-1.472-.495-2.452-.066-.84.1-.474.23-.427.595-.775 1.964-2.01 1.138-1.186 1.635-2.074.644-.537.726-.38 1.42-.49 1.501-.491 1.271-.554 2.46-1.092 2.096-.744 1.387-.38 1.122-.426.841-.38 1.04-.673.735-.395.553-.183.61-.11.579.047.915.356.883.34.53.048.486-.04.437-.134.405-.198.544-.38.891-1.052.52-.649.595-1.17.247-.373.33-.387.916-.76 1.123-.751.52-.301.116-.198M262.118 165.943l-1.007-2.453-.957-1.392-1.106-1.362-.545-1.06-1.238-2.769-.321-.617-.19-.28-.231-.258M221.993 207.197l-.2-.273-.313-.49-.371-.736-.232-.965-.107-.997-.049-.562.074-.554.223-.632.33-.712.833-1.116.9-1.17.396-.712.116-.333.132-.87.173-5.8.107-1.281.116-.72.256-.934.38-1.242.165-.957.082-1.052-.016-1.02-.085-.365M291.675 299.528l.277-2.836.636-6.78.693-5.853.76-3.386.676-4.43 1.04-5.68.124-.538.116-.167.157-.094.264-.048.586.024.313-.04.504-.158.816-.356 1.09-.688 2.344-1.701 2.195-1.606 1.048-.878.891-.791.455-.451.172-.277.092-.285.024-.593-.578-1.701-1.138-2.706-.24-.696-.305-.57-.677-.886-.289-.427-.165-.395-.082-.396.024-.807-.066-3.29.05-4.495-.149-3.401-.23-1.614M221.993 207.197l.246.337 5.688 6.534 2.095 2.303 1.486 1.48 5.793 5.078.586.602.347.458.33.68.257.728.156 1.274.016 1.124-.074 1.574.033 1.036.09 1.353.273 1.187.363 1.33.479 1.447.866 1.97.574 1.254.492.817.859 1.172 1.467 1.875L246 245.05l1.345 2.421 2.79 5.546 1.535 3.053.627 1.266.743 1.867 1.825 5.466 2.689 7.318.685 1.638.693 1.4 1.71 3.124 1.327 2.24 1.997 3.734 1.387 2.112 1.015 1.353 1.51 1.63 2.658 3.06 1.824 2.16 1.444 1.828.802.933 1.204 1.116 1.163.878 1.758.99 1.18.41.916.19.768.08 1.007.007 3.03-.507 4.092-.846.916-.102.693.047.342.067M319.812 329.735l-2.547-.648-1.18-.396-.826-.435-.537-.467-.643-.941-1.13-2.207-.463-1.044-.883-2.176-.875-2.207-.867-1.448-.536-.894-1.74-2.65-5.314-6.645-1.496-1.653-1.064-1.044-2.295-1.7-4.498-3.11-.52-.332-.495-.166-.228-.044" clip-path="url(#p79e26f0213)" style="fill:none;stroke:#000"/><path d="m215.67 200.057.792 3.276.71 1.883.578.902.693.49.561.27 1.04.094 1.95.225M397.949 307.973l-.353-.36M413.735 281.065l.23-1.073.94-2.982 1.206-3.592M408.456 317.848l.07.07.067.075.22.27M407.772 314.81l.684 3.038M407.772 314.81l-.437-3.107M407.335 311.703l-.413-2.776M321.853 373.622l-.074 2.025-.297 2.215-1.601 8.211-1.717 9.208-1.453 7.34-.742 4.446-1.024 5.727-1.27 5.726-.483 1.5-.095.625-.02.624.18 1.867.388 1.614.5 1.783.256 1.294.132.985.132 2.084.066 1.76-.235 1.554-.004.475.09.486.322 1.463.19.543.603.976M392.524 354.828l-.472-4.421M392.524 354.828l-.388.132M372.099 426.265l.584.53.405.3.437.206.446.103 1.444.23 1.387.26 3.408.775M379.24 328.757l.243-2.086M379.483 326.671l-1.544-.165-.112.025-.068.108-.206 1.585.062.162.173.1 1.452.27M382.147 401.68l1.141.111 1.106-.29.389-.01.297.098 1.08.85.405.095.42-.063.818-.23.836-.035.464.055.318.101.268.172.367.578M393.605 340.098l-2.913.617M390.692 340.715l-.421.109M380.876 333.133l.89-.28.722-.36 1.007-.717.768-.787M371.594 332.425l-1.328 2.69M392.052 350.407l-.412.042M393.167 362.673l-.457.031M392.71 362.704l-.51-7.109M391.64 350.45l.496 4.51M391.64 350.45l-.656-6.088M390.27 340.824l.714 3.538M389.819 336.778l.08 1.212.372 2.834M392.136 354.96l.064.635M389.895 336.266l-.076.512M351.456 340.032l.096-.598.457-1.598.058-.388.017-.838-.438-2.263-.222-1.182-.219-.61-1.164-1.526-1.679-2.346-.652-1.06-.128-.304-.02-.293-.1-1.974-.392-1.21-.82-2.207-.36-.756-.62-.704-1.546-1.522-1.527-1.27-1.395-1.377-.446-.45-.128-.262-.053-.26-.017-2.6.248-1.938.759-3.583.132-.862.07-1.65.145-1.736M322.687 332.223l-2.328-.597-.123.06-.089.136-.64 2.088.02.182.08.087.173.083 1.935.495.159-.022.087-.066.093-.144.633-2.302" clip-path="url(#p79e26f0213)" style="fill:none;stroke:#000"/><path d="m322.687 332.223-.633 2.302-.093.144-.087.066-.159.022-1.935-.495-.174-.083-.08-.087-.019-.182.64-2.088.089-.137.123-.06 2.328.598M323.014 330.55l-.077.886-.25.787M323.014 330.55l-3.202-.815M319.812 329.735l-.86 3.12-1.048 3.181-.136.538-.008.245.058.309.437 1.495.198 1.19M385.319 372.428l-.33.087-3.69 1.092M449.973 186.583l-4.952-1.203-9.441-.822-2.245-.001-2.608.538-1.816.855-6.833 3.892-2.608 1.236-8.583 3.291-4.424 1.61-3.83 1.267-1.122.474-2.476 1.334-.792.57-.957 1.07-1.189 1.657-1.912.338M319.938 110.898l1.19.127 3.465.95h.297l.727.443-.562 2.152-.264 1.962-.792 3.226-.462 2.467-.792 2.943-.397 2.096-1.254 4.21-.066 1.804.198 1.287.363 1.055 1.816 2.71.197 2.07.53 2.152.395 4.986 1.288 3.734 1.65 1.187 3.203.933 3.367 1.107 3.367 1.898 5.15 4.926 1.024 1.276 2.541 1.899 7.725 4.928 1.65 1.02 3.466 2.209 3.434 2.062 1.123.823.23.28.727.507 2.443 2.093.99.692.396.412.264.54.693.726 5.184 4.432 14.096 14.27 2.277.828.825.602 1.453 1.33 1.092.437" clip-path="url(#p79e26f0213)" style="fill:none;stroke:#000"/></g><path id="PatchCollection_1" d="m357.043 348.49.45 1.894 2.702-.743-.975-1.823z" clip-path="url(#p79e26f0213)" style="fill:green;fill-opacity:.8"/><g id="PatchCollection_2"><path d="m368.782 339.668 3.81 1.758 2.626-5.224-3.812-1.76zM365.862 347.269l.41.961 1.64-.641-.409-.961zM356.515 346.272l.902 1.967 1.472-.62-.902-1.967z" clip-path="url(#p79e26f0213)" style="fill:#90ee90;fill-opacity:.8"/></g><path id="PatchCollection_3" d="m401.71 274.152-3.384 18.211-2.62 17.806 17.082-2.29 17.766-18.737z" clip-path="url(#p79e26f0213)" style="fill:#d3d3d3;fill-opacity:.8"/><path id="PatchCollection_4" d="m403.413 319.904 5.034-.604 2.919 22.329-5.034.604z" clip-path="url(#p79e26f0213)" style="fill:gray;fill-opacity:.8"/><g id="PatchCollection_5"><path d="m375.78 357.564.126.959.55-.06-.112-.935zM377.944 361.716l.129.84 1.162-.164-.13-.84zM396.798 318.61l.726 3.6 1.426-.264-.726-3.6zM397.414 324.041l.236 1.104-.405.08.641 2.993 1.819-.357-.605-2.826-.304.06-.272-1.273zM398.404 301.064l.443-.75-.362-.196-.443.749z" clip-path="url(#p79e26f0213)" style="fill:#a9a9a9;fill-opacity:.8"/></g></g></g><defs><clipPath id="p79e26f0213"><path d="M93.728 86.4h550.544v554.4H93.728z"/></clipPath></defs></svg>