<svg xmlns="http://www.w3.org/2000/svg" width="960" height="960" viewBox="0 0 720 720"><defs><style>*{stroke-linejoin:round;stroke-linecap:butt}</style></defs><g id="figure_1"><path id="patch_1" d="M0 720h720V0H0z" style="fill:#fff"/><g id="axes_1"><path id="patch_2" d="M128.91 640.8h480.18V86.4H128.91z" style="fill:#fff"/><g id="LineCollection_1"><path d="m470.474 288.379.863-.888M470.474 288.379l-.835.85M470.474 288.379l-.529-.446M470.474 288.379l1.075 1.506M204.722 477.71l-7.864.223M204.722 477.71l7.07-2.256M204.722 477.71l.74 4.042M204.722 477.71l-1.534-8.248M163.805 478.843l7.651-.223M163.805 478.843l.072-5.159M163.805 478.843l-.128 4.258M163.805 478.843l-8.076.254M250.35 630.138l-1.135-.016-57.363-12.86-50.637-2.205-1.118-.162M163.395 492.509l-.4 7.663-.65 3.373-.851 4.363-4.44 13.38-4.859 14.432-.383 1.11-.58 1.094-.552.955-.306 1.145-.643 1.76-.84 2.24-.751 1.622-5.79 9.099-.985 2.109-2.937 7.2-.284.892.05 1.151.583 13.54 1.487 33.717-.167 1.54M223.58 467.271l-3.403.365M223.58 467.271l9.472-1.186M223.58 467.271l-.73-4.082M223.686 471.565l.144-1.851-.167-1.217-.083-1.226M222.13 458.673l-.132-.833M222.13 458.673l.72 4.516M222.13 458.673l-4.452.57M183.224 471.608l4.645-.497M183.224 471.608l-4.006.429M183.224 471.608l.205 6.694M171.456 478.62l-.063 4.229M171.456 478.62l.09-5.759M171.456 478.62l7.806-.214M171.245 492.22l.076-5.074M171.245 492.22l-7.85.289M171.245 492.22l8.11-.49M179.291 482.595l10.804-.375M179.291 482.595l-7.898.254M179.291 482.595l-.03-4.189M179.291 482.595l.03 4.435M202.406 465.263l-7.68.78M202.406 465.263l8.141-.827M202.406 465.263l.782 4.2M202.406 465.263l-.585-3.144M214.539 486.77l-8.135-.008M207.096 490.469l3.304.13.534-.163 3.605-3.665M214.806 481.451l1.335 2.92-.1.843-1.502 1.557M221.998 457.84l5.76-.775M221.998 457.84l-.916-5.745M163.677 483.101l7.716-.252M163.677 483.101l-7.883.25M163.677 483.101l-.127 4.157M194.411 464.292l7.41-2.173M194.411 464.292l.314 1.75M171.613 464.421l16.856.39 2.37-.422 2.337-.13 1.235.033M233.599 456.28l-2.965.398M230.023 450.994l2.908-.358.668 5.644M233.052 466.085l-.05-.992-.48-2.004-.61-1.384-.204-1.045.233-.678.523-.324.77-.198.64-.325.144-.466-.42-2.389M203.188 469.462l7.695-.83M203.188 469.462l-7.7.835M171.321 487.146l-7.771.112M171.321 487.146l8-.116M171.321 487.146l.072-4.297M155.66 474.567l8.217-.883M155.66 474.567l-7.94.846M155.66 474.567l.07 4.53M155.66 474.567l.3-4.334M190.095 482.22l7.494-.206M190.095 482.22l-1.068-4.058M190.095 482.22l.364 4.66M171.615 468.372l-7.407 1.044M171.615 468.372l7.572-.765M171.615 468.372l-.07 4.489M171.615 468.372l-.002-3.95M163.55 487.258l-7.692.112M163.55 487.258l-.155 5.251M230.023 450.994l-2.978.367M230.023 450.994l.61 5.684M190.459 486.88l-11.138.15M190.459 486.88l7.976-.127M190.459 486.88l.678 4.136M155.96 470.233l-7.42.496M155.96 470.233l8.248-.817M155.96 470.233l.037-4.708M227.758 457.065l2.876-.387M227.758 457.065l-.713-5.704M219.28 467.732l-.774-4.103M219.28 467.732l.897-.096M219.28 467.732l-8.397.9M194.725 466.042l-7.562.762M194.725 466.042l.763 4.255M155.794 483.35l-9.517.307M155.794 483.35l.064 4.02M155.794 483.35l-.065-4.253M210.883 468.633l-.336-4.197M211.792 475.454l-.427-.815-.482-6.006M210.207 460.197l.34 4.24M210.207 460.197l7.471-.954M201.821 462.119l4.774-1.46 3.612-.462M155.997 465.525l.114-3.733M155.997 465.525l8.006-.811M155.997 465.525l-6.649.583M164.003 464.714l4.572-.454 3.038.161M221.349 472.321l-1.172-4.685M221.349 472.321l-9.557 3.133M221.349 472.321l2.337-.756M198.435 486.753l7.969.009M198.435 486.753l.683 3.78M198.435 486.753l-.846-4.74M147.72 475.413l-.692 3.957M147.72 475.413l.82-4.684M147.028 479.37l-.75 4.287M147.028 479.37l-6.025.167M147.028 479.37l8.701-.273M164.05 461.405l.049-3.503M164.05 461.405l-.047 3.309M164.05 461.405l-7.939.387M240.642 465.135l-7.59.95M240.642 465.135l27.35-13.392M223.686 471.565l12.36-3.996 4.596-2.434M179.321 487.03l.034 4.7M211.792 475.454l3.014 5.997M179.187 467.607l7.976-.803M179.187 467.607l.03 4.43M207.096 490.469l-7.978.064M207.096 490.469l-.692-3.707M205.463 481.752l9.343-.3M205.463 481.752l-7.874.262M205.463 481.752l.94 5.01M227.045 451.361l-5.963.734M146.277 483.657l-.1 1.038M148.54 470.73l.808-4.622M141.003 479.537l.575-2.122 3.03-6.311 3.932-.375M210.547 464.436l7.959-.807M197.59 482.014l-.732-4.081M189.027 478.162l-1.158-7.05M189.027 478.162l-5.598.14M189.027 478.162l7.83-.23M164.003 464.714l.205 4.702M146.178 484.695l-.468 2.822 10.148-.147M179.262 478.406l-.044-6.37M179.262 478.406l4.167-.104M191.137 491.016l-11.782.713M191.137 491.016l7.98-.483M141.765 485.445l4.413-.75M141.765 485.445l-.762-5.908M156.308 458.129l7.791-.227M156.308 458.129l-.197 3.663M164.588 447.368l-.521.576-.773 1.336-.537 1.304-.884 1.608-1.685 1.54-1.595 1.488-.844.628-.451.763-.99 1.518M187.163 466.804l.706 4.307M187.87 471.111l7.618-.814M195.488 470.297l1.37 7.636M164.099 457.902l.49-10.534M179.218 472.037l-7.673.824M344.507 215.458l-.35.446-12.109 20.666-8.762 14.015-9.096 12.88-4.407 6.163-4.723 6.358-4.857 6.635-3.855 5.353-5.324 7.218-2.387 3.227-.417 1.136-.4.94-.451.212-4.09-.552-21.63-3.017-10.597-1.573-13.052-1.98-1.185-.112-.484.356-2.887 4.574-6.71 10.674-5.34 8.434-.401.876-1.402 4.25-4.573 14.565-2.838 9.18-.367 1.006.435.682 5.64 4.995 11.016 9.7.8.746.135.843-.735 5.06-.801 8.37-1.97 13.787-1.201 11.029-1.803 14.662-1.435 14.597-1.535 13.17-.1 1.784.823 5.282M222.85 463.189l-4.344.44M142.115 457.16l3.939 4.054 2.56 3.435.734 1.46M217.678 459.243l.828 4.386M468 290.899l-61.79 63.87-2.596 2.814-6.3 5.068-6.902 4.412-12.025 7.34-12.317 7.606-8.336 4.94-8.78 5.59-80.962 59.204M282.479 512.14l1.468-8.887v-2.887l-8.311-26.89-4.907-16.446-1.168-3.113-1.57-2.174M171.545 472.861l-7.668.823M163.877 473.684l.33-4.268M594.885 123.943l4.402-26.881M471.337 287.491l.216-.203 39.227-40.37 13.923-14.702 22.445-22.573 9.813-10.058 2.904-3.796 8.034-11.479 19.892-27.757 1.582-3.038 1.086-3.083.954-5.293 3.472-21.196M402.412 167.482l-3.087.633-3.455.114-1.886-.098-2.504-1.054-1.902-.73-2.97-.957-2.037-.34-5.658-.698-10.999-1.168-.384.016-.183.487-6.493 32.686-5.273 25.144-.3.519M344.507 215.458l.375.34 10.398 6.238M468.855 288.902l-1.794-.79-12.918-5.313-14.595-6.342-36.752-15.54-8.578-3.681-.534-.666-.017-.486.3-1.2 3.104-6.051.084-.795-.3-.762-41.575-25.24M599.856 557.168l-.586-.137-1.285-.324-1.853-.519-2.437-.876-7.915-2.964-5.703-1.138-6.86-.99-6.434-1.005-10.59-1.496-12.333-1.756-3.56-.49-1.293.227-32.766 7.496-11.066 2.502-10.256 2.591-11.35 2.497-13.226 2.635-10.03 1.744-10.799 1.249-.776-.252-7.122-4.63-7.924-5.29-10.798-7.148-1.102-.35-.843.097-2.887 1.452-17.437 9.11-7.476 3.961-1.315 1.131-8.479 11.799-.571.596-.735.304-2.365-.53-2.637-.699-5.934-1.549-4.18-.859-6.58-2.497-10.394-4.817-4.26-2.748-2.98-1.164-1.201-.977-2.825-3.738-1.936-2.563-2.304-2.805-1.351-1.573-6.977-5.677-12.917-12.52-15.122-14.823-5.607-5.514M263.352 605.975l-.284-.891.15-9.39.234-17.417.3-16.153.067-1.46.334-.778 5.074-12.293 10.982-24.165.701-2.043 1.569-9.244M250.35 630.138l.484-1.945 11.817-21.828.701-.39M468 290.899l1.465-1.493.174-.177M469.64 289.229l.83.298 1.17.69M469.64 289.229l-.785-.327M469.945 287.933l-.698.43-.265.355-.127.184M471.337 287.491l-1.13.28-.262.162M471.549 289.885l-.027-.217-.155-1.216-.03-.961M468.855 288.902l-.559 1.172-.296.825M471.64 290.217l-.091-.332" clip-path="url(#pbc540ba1bb)" style="fill:none;stroke:#000"/></g><g id="PatchCollection_1"><path d="m177.668 523.56 7.298-1.175-2.124-5.507-2.47-.13-1.481 1.162-.635 2.432zM293.527 348.3l15.288 9.083 2.27 1.168 2.87-2.011 2.404-3.439 2.537-8.434 1.495-6.923.6-7.072 4.447-11.114 6.57-10.816 5.847-4.431 7.01.13 3.165-2.9-3.405-3.31 1.242-8.194-1.042-9.389-4.032-3.717-7.718.668-4.165 4.003-1.202 4.152-4.312 2.745-.16 3.42-3.406 6.358-2.537 7.137-4.78 4.69-4.005.52.708 2.186-2.003 4.218-.601 3.762-.4 5.58-2.11 9.752-5.701 7.117z" clip-path="url(#pbc540ba1bb)" style="fill:#00f;fill-opacity:.8"/></g><g id="PatchCollection_2"><path d="m224.563 466.032 3.837-.599-.894-5.41-3.838.6zM229.336 464.982l1.856-.321-.563-3.07-1.855.32z" clip-path="url(#pbc540ba1bb)" style="fill:#90ee90;fill-opacity:.8"/></g><g id="PatchCollection_3"><path d="m129.97 519.376 5.34-.13 4.16-12.073-9.567-3.82zM220.824 445.806l2.437.486-.3.714 8.902 1.846 6.71-5.58 6.342-7.914-8.235-9.274-2.604-4.51 6.3-13.205-1.827-1.1.901-1.103-1.502-1.07-.744.451.578-1.943-1.035-.065-.634 2.79-2.07 1.103-.034 1.88.267 1.234-2.68 2.591-1.759-1.359-.901-.583-.044-1.334 1.045-1.1-2.213-4.058-2.71 1.787z" clip-path="url(#pbc540ba1bb)" style="fill:#006400;fill-opacity:.8"/></g><path id="PatchCollection_4" d="m170.025 492.583-.066 7.59-7.478.324-.047-7.142-3.625-.188.154-5.52-15.555.583-.067-2.4-2.203.26-.868-7.072 5.074-10.639 6.409-5.969 3.985-.447.067-4.93 9.547.194-.2 3.438 3.471.13v2.854l25.436.13 13.639-4.093 10.461-1.292-.18-1.368 3.317-.448-.867-4.8 13.572-1.694 1.983 16.16-8.259 1.486.648 3.315-15.688 5.06 4.272 9.277-5.855 5.508-12.083.13z" clip-path="url(#pbc540ba1bb)" style="fill:#d3d3d3;fill-opacity:.8"/><path id="PatchCollection_5" d="m215.937 478.129 1.568-1.016-.3-.438-1.569 1.015z" clip-path="url(#pbc540ba1bb)" style="fill:#a9a9a9;fill-opacity:.8"/></g></g><defs><clipPath id="pbc540ba1bb"><path d="M128.91 86.4h480.181v554.4H128.91z"/></clipPath></defs></svg>