<svg xmlns="http://www.w3.org/2000/svg" xmlns:xlink="http://www.w3.org/1999/xlink" width="960" height="960" viewBox="0 0 720 720"><defs><style>*{stroke-linejoin:round;stroke-linecap:butt}</style></defs><g id="figure_1"><path id="patch_1" d="M0 720h720V0H0z" style="fill:#fff"/><g id="axes_1"><path id="patch_2" d="M90 605.605h558v-484.01H90z" style="fill:#fff"/><g id="LineCollection_1"><path d="m356.843 371.827-7.505-.795M356.843 371.827l-.056.449M356.673 366.908l.17 1.592.071 1.32.015.792-.086 1.215M348.581 374.756l-.63.028-.848.037-1.98.088-3.56.159M374.783 342.537l-.033-.925M374.783 342.537l.117 3.917M380.098 342.533h-.566l-3.984.004h-.765M370.211 342.57l1.737-.038 2.835.005M368.767 362.132l-2.982-.098M368.767 362.132l.123-1.896M373.289 372.973l-.043-1.667-.504-.941-2.43-1.45-.497-.372-.206-.408-.696-4.15-.15-.88.004-.973M352.958 341.708l-1.511-.053M352.958 341.708l-.249.737M355.131 337.13l-.923 1.685-1.25 2.893M349.338 371.032l-.757 3.724M349.338 371.032l.75-3.715M349.338 371.032l-8.564.548M219.634 398.463l3.09.315 1.484.236 1.151.291 2.586.78.647.13 3.168.087 1.016-.099 1.3-.092 1.115.067 2.806.379 4.07.204.924-.006 1.002-.155.59-.21 2.883-1.488M264.054 400.581l-.654.124-.923.013-2.934-.781-1.314-.366-1.215-.191-5.583-.292-2.63-.16-.844-.063-.49.037" clip-path="url(#p62f6f157f4)" style="fill:none;stroke:#000"/><path d="m219.122 366.667.569.619.681.576.391.205 1.954.619.31.18 1.48 1.486.469.292.348.173.54.105 2.33.05.689.062.739.192.788.397 4.724 3.704.242.377.135.366.1.564-.072.93-.185.526-.66.761-.185.317-.092.446.483 1.102.355.415.476.353 4.497 2.162.447.279 3.403 3.252.583.365.631.273.47.328.284.465.014.29-.185.416-.689.935-.213.421-.128.477.014 1.214.242 2.646.163.693.29.502 1.55 1.988.362.712M100.73 416.84l.193-.557.106-.73.1-.812.305-.67 1.202-1.938.382-1.065.227-1.536-.1-1.041.05-.842.207-.681 1.307-2.608.44-1.933.348-1.462.377-.848.418-.637 1.024-1.185.69-.811.333-.631.746-1.747 2.407-4.323 1.749-2.033.461-.7.355-.799.235-1.004.355-1.25.596-1.227.441-.583.696-.451 1.563-.583 1.89-.576h1.229l.724.186.633.514.213.638.007 1.332M219.634 398.463l-1.813-.57-1.733-.47-1.327-.15-1.435.112-1.868.508-2.409.848-.817.26-1.066.081-1.654-.204-2.018-.8-.561-.105-.952.025-3.829-.105-5.335.427-.533-.012-1.89-.415-1.3-.304-1.406-.142-1.527.062-1.18.198-1.605.446-7.296 2.59-2.415 1.158-4.362 1.765-1.13.557-1.946 1.264-.965.688-.448.16-.44.044-1.309-.036-5.014-.063-6.13-.427-1.798-.186-1.18-.34-3.615-1.104-2.081-.904-1.236-.706-1.563-.632-3.566-2.998-.654-.904-.781-2.391-.616-.998-.976-1.059-1.052-1.485-.824-.967-2.67-2.664-.616-.911-1.231-1.803-.412-.322-.483-.074-2.131.267-.846.08-.525-.031-.291-.198-.135-.235v-1.041" clip-path="url(#p62f6f157f4)" style="fill:none;stroke:#000"/><path d="m219.122 366.667-.895-.329-1.353-.365-.629-.065-.934.025-.955.108-1.854.25-.952.143-.668.152-1.371.428-1.258.182-.838.121-2.447.453-1.503.312-.898.3-.512.208-1.21.784-.924.458-.53.205-.92.297-.585.232-1.027.576-.433.155-3.846.636-.925.067-.504-.006-.898-.164-1.123-.115-1.609-.025-.454-.049-.427-.208-.508-.492-.419-.36-.54-.254-.532-.086-1.883.012-2.237.037-.995.317-.998.702-.409.36-.596.675-.36.282-.344.17-.998.279-.731.114-.487-.002-.427-.1-1.868-.87-.394-.05-.337.034-.842.18-.561.043-.497-.024-1.155-.388-.486-.086-1.144-.068-1.648.04-.66.056-.434.115-.686.334-1.307.867-.352.17-.16.04-.184-.036-1.534-1.754-.238-.052-.125.001-.124.06-.142.142-.125.345-.376 1.233-.241.384-.228.278-.91.583-1.775 1.357-1.357.873-2.216 1.548-.767.645-1.144.631-.93.248-1.592.372-3.225.694-1.407.346-2.444 1.162-1.179.201-1.288-.152-3.272-2.858-1.805-1.313-.81-.186-1.293.024-1.136.285-1.037.731-2.827 1.599-1.222 1.201-.967 1.512-.34.285-.746.378M310.037 391.89l-2.188 1.233-1.421 1.04-.519.59-.284.625-.604 2.255-.824 1.715-.405.707-.518.57-.952.576-2.401.75-4.028 1.579-1.016.229-4.98.725-3.226.595-.723.073-1.158-.005-1.414-.174-1.81-.545-2.061-1.066-1.173-.737-.81-.328-1.449-.13-2.927-.16-.824-.322-1.052-.57-1.62-1.115-.63-.354-.711-.217-1.421-.018-.483.074-.739.279-1.612.817" clip-path="url(#p62f6f157f4)" style="fill:none;stroke:#000"/><path d="m295.161 463.622.47-.612.411-.787.405-.713.888-1.164.775-.73.823-.707.228-.346.128-.583-.206-.83-.519-.576-.597-.365-.836-.383-1.23-.645-.747-.607-.59-.595-.575-.78-.298-.706-.164-.75-.227-1.56-.192-1.344-.305-1.406-.228-.577-.461-.811-.455-.55-1.307-1.63-.803-1.146-1.612-2.44-.37-.595-.22-.533-.433-2.161-.327-1.264-.106-.985.042-.532.15-.52.475-.725.22-.632.057-.756.022-.49-.15-1.324.036-.558.291-1.63.895-2.96-.085-.607-.213-.557-.725-1.078-2.543-3.146-3.204-3.513-.462-.39-1.79-.953-1.904-.508-2.173-1.227-1.478-2.255-2.94-2.867-2.764-1.593-.604-.44-.774-.718-.533-.7-.995-1.567-.717-1.034-.561-.88M355.366 336.72l5.589.115M355.366 336.72l-.235.41M356.964 331.759l-.547 2.478-.426 1.12-.625 1.364M347.083 377.749l.433-.415.49-.812.39-.979.185-.787M159.408 424.236l1.541-1.164 2.38-2.291 4.724-3.488 3.886-3.27 1.243-.892 1.407-.595 2.884-.768 2.7-1.004 1.988-.557 2.515-.21 2.614.05 2.87.358 1.705.037 2.742-.062.846-.272.717-.322.44-.44.313-.396.15-.474-.043-.49-.157-.232-1.35-.8-.731-.687-.213-.489-.079-.564.086-.582.206-.433 1.264-1.029 1.578-1.214.56-.347 1.102-.334 1.42-.192.81.08 1.911.471.696.13 2.622-.006 1.484.068 1.613.316 1.321-.018.916-.112 1.087-.477 1.144-.681 2.338-.96 2.01-.793.646-.372.32-.266M408.793 403.629l1.386.198.888.217.305.149M414.292 420.724l-.408-.63-.473-1.252-.12-1.834-.42-1.127-.746-.818-2.328-.917-.5-.316-.328-.45-.119-.385.005-.52.366-.973.908-1.927.547-.947.512-.644.475-.54.462-.409.334-.39.192-.402.043-.434-.121-.44-.235-.526-.966-.65M416.928 404.124l-.548-.216-1.008-.223-1.201-.069-1.101.15-.93.234-.768.193M351.511 346.48l.48-1.6.718-2.435M361.184 342.581l-6.965-.068-1.51-.068M374.9 346.454l-.48.701M374.9 346.454l1.705-.398 1.905-.755.82-.63.33-.473.296-.624.142-1.041M375.98 291.025l.712-1.066.426-.898.142-.67.078-3.264.057-.96.249-.918.369-.687.398-.601.887-.96 1.002-1.16 2.884-3.5.42-.681.262-.651.157-.7.127-2.218-.05-.942-.24-.65-.42-.583-.604-.452-1.172-.682M378.458 266.173l.06.094.544.687 1.075.862 1.527.966M360.9 272.568l-.071.384.092.267.256.254 1.485.985.248.26.42.706.333.366.49.266.547.174.718-.006.71-.18.583-.025 1.093.149 1.734.34.23.029.192-.05 2-1.292 1.99-1.289 1.52-.322h1.222l1.037-.372.568-.68 1.676-2.083 1.691-1.667M357.49 322.46l-.37-.467M357.511 328.63l.299-1.381.22-1.413-.014-.811-.526-2.565M360.367 319.954l-.767.548-.924.477-.575.316-.327.27-.227.43-.057.465M405.784 401.567l.253.532.312.388M408.793 403.629l-1.171-.258-.661-.396-.612-.488" clip-path="url(#p62f6f157f4)" style="fill:none;stroke:#000"/><path d="m401.796 415.528 1.101-.855.775-.8 1.172-1.647.973-1.102 1.065-1.01.285-.514.113-.886-.298-1.666.078-1.115.22-.855.063-.632-.215-.606-.49-.679-.289-.674M414.292 420.724l1.662 1.004 6.339 2.087 2.406.632M443.389 430.518l-.368-1.19-1.886-2.607-2.086-2.2-1.25-.402-5.123.198-6.23.223-1.747-.093" clip-path="url(#p62f6f157f4)" style="fill:none;stroke:#000"/><path d="m409.88 419.765 1.109 1.542 3.154 2.329 3.047 2.075 1.236.29 2.309-.011 1.492.285 1.371.433.44-.05.291-.284.37-1.927M409.88 419.765l.938.049 2.38.768.419.093.675.05M340.05 363.96l-4.099-.105-.312-.1-.531-.36-1.16.063-1.235-.088M350.331 366.121l-.243 1.196M350.331 366.121l.083-1.572M350.331 366.121l6.342.787M405.72 399.739l-.045.873.109.955" clip-path="url(#p62f6f157f4)" style="fill:none;stroke:#000"/><path d="m394.263 389.634.26 1.001.794 1.479.263.83.412 1.437.3.52.857.699 1.686 1.446 1.188.868 1.189.94 1.133 1.132 1.867 1.06 1.572.52M373.276 349.022l-6.115-.183M373.276 349.022l-3.338 5.854M374.42 347.155l-.277.407-.867 1.46M310.037 391.89l2.535-1.319.583-.204.839-.13 2.976-.013.764-.133.706-.304.75-.55 2.866-2.896.952-.75 1.712-1.022 1.023-.403.696-.062.654.161 2.33.75.597.093 4.965-.273 1.613.025 1.532.373 1.394.34 1.094-.094.978-.426M347.083 377.749l-.902.86-.853 1.023-1.08 1.543-1.811 2.849-.533.7-.308.329" clip-path="url(#p62f6f157f4)" style="fill:none;stroke:#000"/><path d="m333.486 434.264-.355-.582-.085-.526.17-.626.498-1.078.752-1.214.81-.743 1.166-.718 1.037-.781.248-.266.163-.335.27-1.585.306-1.964.05-.39.199-.36.78-.699.534-.47.206-.378.206-1.153.213-.638.192-.49.284-.377.519-.458.248-.248.1-.279-.057-1.802.135-.954.192-.7.398-.743 1.555-2.057 2.33-2.626.476-.36.49-.247 1.996-.458 3.329-.805.216-.075.121-.1.668-1.176.06-.207.028-.196-.039-1.022-.469-2.205-.767-2.087-1.42-2.794-1.123-1.858-1.974-3.277-.896-1.307-1.918-2.032-1.52-1.945-2.212-1.82M350.6 361.538l-.186 3.011M350.6 361.538l.042-1.45M350.6 361.538l5.83.19M394.263 389.634l2.925.745 3.343 1.593 2.033 1.114 1.983 1.252.6.564.639.917.294.947.002.928-.187 1.146-.175.899" clip-path="url(#p62f6f157f4)" style="fill:none;stroke:#000"/><path d="m448 384.157-5.172 1.211-4.305 1.437-6.678 2.33-5.953 2.279-13.966 5.637-2.714 1.139-3.492 1.549M372.06 293.9l-1.222.966-.383.52-.207.583v.638l.123 1.195.268 1.574-.036.57-.109.59-.338 1.12-.085.675-.192.57-.21.412-.926.815-2.059 1.158-.513.533-.287.442-.044.477.059.693.329 1.759.02.47-.106.447-.568.873-.554.88-.163.365-.107 1.66-.085 1.785-.143.688-.354.706-.324.34-.302.199-1.357.458-.887.397-.391.347-.277.402-.263.747" clip-path="url(#p62f6f157f4)" style="fill:none;stroke:#000"/><path d="m363.299 322.053-1.346-.663-.818-.657-.768-.78M124.073 423.63l-1.129.284-.923.316-1.137.192-.753.192-1.357.576-.49.168-1.392.117-.562-.049-1.648-.78-.597-.224-.546-.043-.746.118-1.734.582-.49.05-1.776-.162-2.174-.099-.43-.068-.244-.115-.121-.225-.291-1.413-.42-.638-.532-.576-.093-.26.05-.34.519-1.5.476-2.409.021-.533-.256-.476-.404-.255-.42-.068-.831.174-2.252.57-.66.105M351.138 351.055l.02-.387M351.138 351.055l-5.08-.264M350.827 355.597l.079-1.314.102-1.71.13-1.518M351.24 348.88l-.082 1.788M351.511 346.48l-.137.457-.128.768-.007 1.174M361.147 348.865l-5.15.061-4.758-.047M345.396 364.281l3.655.168 1.363.1M340.659 350.553l-2.252-.078-2.742-.155-2.394-.093-2.136-.112-.463-.111M310.565 348.932l1.028.049 2.699.124 2.351.074 3.78.201 3.246.12 3.062-.027 1.968-.003.688.077.697.19.588.267M330.787 345.771l-.016.832-.164 2.624.065.777" clip-path="url(#p62f6f157f4)" style="fill:none;stroke:#000"/><path d="m330.353 354.502.327-3.805-.008-.693M373.289 372.973l-2.963-.657M394.263 389.634l-1.423-.578-1.267-.813-.6-.691-.576-.915-3.86-6.299-1.065-3.345-.626-1.275-.558-.553-1.062-.513-.681-.1-.815-.031-5.706.812-1.144-.112-1.05-.576-.385-.886-.156-.786M587.754 590.01l-.874-1.812-2.955-5.722-1.165-1.288-10.06-6.984-3.58-2.527-1.42-1.387-1.222-1.535-.739-2.081-1.023-4.905-.654-1.833-1.477-2.749-.71-.916-4.831-6.168-1.506-1.982-.739-1.14-2.216-7.084-.824-1.288-4.206-4.483-1.477-2.873-1.137-1.512-3.922-3.393-1.221-1.388-1.705-2.415M526.51 514.952l1.265.867 5.164 1.858 1.975.83 1.302.93 1.875 3.108" clip-path="url(#p62f6f157f4)" style="fill:none;stroke:#000"/><path d="m526.51 514.952.2 1.648 1.178 1.808 1.535 2.403.753 2.006.973 2.285.405.112.469-.056 6.068-2.613M443.389 430.518l.54 1.546.565.79.77.45.922.065 1.594-.194 1.74-.371 1.555.129 1.073.248.923.557M487.44 461.914l-.383-.967-.994-1.734-1.45-1.634-2.828-1.822-6.207-4.248-4.007-2.75-2.529-1.264-2.772-.967-3.58-1.523-2.77-1.796-1.96-1.61-1.99-2.428-.624-1.09-.654-1.983-.795-1.461-.826-.899" clip-path="url(#p62f6f157f4)" style="fill:none;stroke:#000"/><path d="m476.159 437.114-7.588.052-4.802-.648-5.15-1.251-5.548-1.529M487.44 461.914l1.692 9.315.426 1.437.625 1.238 2.215 2.626" clip-path="url(#p62f6f157f4)" style="fill:none;stroke:#000"/><path d="m520.625 497.512-.095-.345-.397-1.016-5.257-9.141-.71-1.066-.825-.694-3.694-2.378-1.855-1.648-.703-.88-.299-1.015-.035-.873.22-1.047.306-.594.333-.533.235-.737.078-.378-.078-.539-.483-.575-.633-.347-.98-.094-1.42.02-1.798-.141-1.13.017-1.165.297-1.171.603-1.498 1.528-1.117 1.196-.796.421-.568.075-.902-.083-1.058-.538-.732-.477" clip-path="url(#p62f6f157f4)" style="fill:none;stroke:#000"/><path d="m456.922 487.48 3.21-2.379 4.533-3.134 1.733-1.102 1.975-.557 3.964-.384 3.48-.644 3.766-.434 3.381-.805 3.012.198 1.918.285 1.35-.223 3.154-1.771M525.558 454.159l-.88-.248-.526-.817.07-2.28-.184-.966-.454-.297-2.899.31-5.938.557-2.984.446-1.975 1.387-3.396 2.763-1.605 1.634-1.25.682-2.814 1.45-.752.705-.441.992-1.321.718-1.35.149-1.278-.137-4.532.298-3.608.409M520.625 497.512l.133.769v1.883l-.427 2.329.143 1.362.426 1.907 1.08 2.23 2.5 4.533 1.194 1.635.836.792M434.382 436.42l-.874-.05-.81-.57-1.009-.68-1.058-.379-.782-.328-.483-.675.089-.242.437-.27 7.11-1.65 6.387-1.058M632.049 193.036l-.638.459-2.416 1.652-1.142 1.022-1.08 1.115-.767 1.661-1.79 2.04M492.955 213.754l.622-.352.838-.577 6.03-3.03 5.712-1.76 2.381-.54 1.563-.048 1.705.248 1.534.396 1.051.05 1.086-.354 4.688-2.131.875-.093.767.074 2.728.644 2.905.664.676.328 2.875 1.431.768.273.932.08 1.222-.223 4.495-1.518 1.614-.117 7.16.347 1.109-.198 2.756-1.166 1.903-.272 1.422.1 1.477.569.995.669.767.224 2.216.074 9.178-.471 5.968.47 1.96-.05 3.274-1.22 2.466-.241 1.341-.304.853-.545 1.017-.762 1.029-.329.875.23.852.768.972 1.506.995.52 1.187.08 1.023.224.881.446 2.08 2.497 2.728 2.033.682.718.676.081.796-.025.602-.378 1.955-1.902 1.938-.923 6.757-6.265 1.307-.52 1.256-.354 1.529-.291h5.03l1.17-.204 1.33-.763.682-.588M475.314 208.449l-5.62-.47-2.6.1M427.503 214.356l1.188.576.768.818.738 1.66 1.114 1.184 1.103.998 1.193.347h1.62l1.824-.65 1.705-.918 1.392-.545 1.273-.044 5.57-.174 2.5-.669 1.42-.817 1.825-1.568 2.643-2.256 2.955-3.197 1.301-.737 3.68-.038 3.779-.247M461.653 245.492l-.071-1.598.44-3.817-.1-1.314-.71-1.127-.483-1.19-.127-3.693-.086-2.925.498-.892 1.143-.446 3.73.161 1.108-.025.412-.322.17-.967-.312-3.63.27-.943.724-1.065.256-1.09-.227-1.587-.91-1.983-.284-1.214-.184-3.036.184-4.71M377.977 264.563l1.52-1.036M378.458 266.173l-.26-.414-.129-.452-.092-.744M366.03 257.088l1.924-.679 1.058-.229.746-.043.71.217 2.245 1.518 2.377 1.68.565.674.49.807.558 1.202 1.274 2.328M417.869 213.77l-.941.344-2.126 1.307-1.853 1.642-1.443 2.026-1.28 1.81-1.624 1.419-1.444 1.06-1.796.898-1.898.564-1.54.452M379.497 263.527l.988-.674 1.747-1.475 1.592-1.4 2.287-2.8 1.137-1.078 1.15-.632 3.51-1.227 1.975-1.227 1.009-1.103 1.193-1.475.653-1.734-.028-1.909-1.435-3.283-.668-1.611-.142-1.909.156-4.164-.27-1.165-.327-1.09.043-.855.242-.67.895-.78 1.904-1.921 2.15-2.498 1.365-.966 1.301-.589M389.994 183.138l-.26.514.341 2.033.341.917.71 1.76.938 2.082.313 1.338.199 2.157.056 1.586-.454 3.42-.085 1.636.227 1.389.483 1.065.938 1.041 1.449 1.14 1.108.992 1.108 2.057.91 1.884.397 1.76.028.967-.142 4.064.057.892.398.446 2.5 1.488.967.793.227.595.085 1.437-.426 1.537-.483 1.164M475.314 208.449l7.593.633 1.876.248 1.335.496 1.45 1.09 1.057.812 3.452 1.642.878.384M545.99 270.87l-1.422-.396-2.046-.112-1.804-.706-1.321-.272-.881-.508-1.847-1.735-.867-1.599-.625-.719-1.591-.916-2.216-1.19-1.493-1.5-2.5-2.403-.995-.471-.866-.496-.412-.657-1.392-3.346-1.208-1.772-1.89-1.797-1.165-1.474-1.861-2.714-1.563-2.057-.426-1.177-.682-1.785-1.605-2.206-.327-.941-.298-.905-.512-.583-2.174-1.61-1.193-.521-1.677-.074-2.103-.124-1.605-.41-1.165-.643-.824-1.091-1.194-2.367-.426-.98-.326-1.833-1.066-4.449-1.563-3.198-.191-.867.12-.57.732-.756.718-1.363-.15-.688-.61-.378-1.855-.068-1.463-.195-1.205-.494" clip-path="url(#p62f6f157f4)" style="fill:none;stroke:#000"/><path d="m417.869 213.77.968-.356 2.381-.515 2.103.198 2.307.713 1.875.546M434.289 178.1l-.597 1.487-.568.818-.2 1.017.03 1.19.227 12.343.085 2.132.256 1.289-.17 1.412-.313 1.438-.455.992-1.023 2.428-1.62 4.388-.511 1.19-.113.891-.54 1.19-.796 1.066-.478.985M374.928 360.13l-6.038.106M368.89 360.236l-.107-1.753M421.953 327.389l.771-.202 1.08-.136.916.018 1.066.155 1.378.36.689.318M509.575 327.41l-1.272.216-2.607.583-2.677.573-1.99.52-1.818.446-1.876.422-1.79.42-1.904.655-.88.712-.526.812-.561.718-.782.811-.952.7-1.42.782-1.414.659-.98.288-1.06-.124-1.441-.427-1.4-.136-1.2.055-1.243.168-1.663.105-1.932-.26-1.712-.038-1.698.347-2.095.83-1.336.905-1.222 1.152-1.158.589-1.761.526-2.23.595-3.468.991-2.926.62-2.6.31-2.628-.248-2.274-.421-4.71-1.367-2.045-.644-2.728-1.363-1.393-.895-1.449-1.17-1.343-.856-1.676-.947-.923-.54-.484-.414-.426-.508-.667-1.082-1.002-1.394-1.009-1.45-.803-1.024-.568-.71" clip-path="url(#p62f6f157f4)" style="fill:none;stroke:#000"/><path d="m449.42 328.153-1.89.533-3.225.582-1.719.446-1.321.608-1.18-.038-1.79-.446-.994-.05-.647-.179-1.115-.768-.795-.415-.867-.025-.917.112-1.03.167-1.214-.26-1.513-.509-.69-.092-.66.083M514.775 327.961l-.895-.117-1.485-.4-2.82-.034M502.897 324.411l3.112.979 1.875.583 1.691 1.437M514.775 327.961l1.002-.096 1.875-.297 2.202-.347M554.6 323.112l-.406-.327-1.705-2.008-1.044-1.018-1.911-.914-2.636-1.093-1.562-.453-1.002.112-2.074.889-1.564.84-1.171.7-1.158.838-1.052 1.193-1.15 1.58-.946 1.134-1.08.811-1.576.335-1.577-.075-1.172-.021-1.222.148-1.364.149-1.194.05-1.534-.1-1.847.224-1.485.499-1.314.616M520.722 320.859l.134.925.696 3.173-.028.39-.455.44-.895.774-.32.66M340.237 367.786l9.85-.469M356.673 366.908l5.652.702M362.325 367.61l-.158-2.063M362.325 367.61l.116 5.165M362.441 372.775l-1.761-.483-.611-.15-.668-.043-2.614.177M347.083 377.749l.835.279.479-.04.44-.069.999-.36.536-.287.582-.415.966-.852 1.4-1.264 1.428-1.632.294-.294.406-.291.543-.177.796-.071M362.441 372.775l1.137.086.486-.056.267-.102.511-.319.874-.23 1.47-.129 1.407.143 1.733.148" clip-path="url(#p62f6f157f4)" style="fill:none;stroke:#000"/><path d="m362.167 365.547 4.447 3.135 1.333 1.02 1.032 1.105 1.347 1.509M362.167 365.547l-.332-3.642M356.43 361.728l.467.187.383.174 4.887 3.458M361.835 361.905l3.95.13M361.835 361.905l-5.404-.177M361.835 361.905l-.536-6.427M361.299 355.478l-.152-6.613M361.299 355.478l4.193.086M361.299 355.478l-8.338.078M361.147 348.865l6.014-.026M361.147 348.865l.037-6.284M361.184 342.581l5.84.037M361.184 342.581l-.229-5.746M363.299 322.053l-.316 3.652-.392 2.733-.206.551-.384.453-.554.464-.512.589-.17.502-.029.625.093 1.556.126 3.657M368.541 338.528l-2.756-1.37-.701-.239-.782-.136-3.347.052" clip-path="url(#p62f6f157f4)" style="fill:none;stroke:#000"/><path d="m368.541 338.528 1.482-.674.844-.588.656-.687.263-.785-.113-1.259-.881-1.21-1.03-1.258-.788-1.063-.694-1.52-.375-1.7-.337-.85-.675-1.488-.428-.967-.466-.922-.462-.506-.66-.473-.599-.245-.98-.28M350.827 355.597l-.185 4.491M350.827 355.597l2.134-.041M351.158 350.668l.528.648.22.483 1.055 3.757M356.43 361.728l-.652-.215-.107-.109-.369-.914-.6-1.24-.572-1.15-.917-1.766-.252-.778M369.396 355.595l-2.24-.033M369.396 355.595l.542-.72M368.783 358.483l.008-1.77.114-.52.491-.598M345.614 359.809l2.422.134 2.606.145M340.05 363.96l.33-4.443M345.396 364.281l-.828.025-3.275-.13-.504-.086-.74-.13M340.38 359.517l.113-4.534M345.614 359.809l-3.683-.205-1.551-.087M329.929 357.068l-.094.468.017.6.224.478.277.223.391.167 1.748.13 2.671.093 2.532.141 2.685.15M340.659 350.553l5.399.238M340.659 350.553l-.166 4.43M340.817 346.001l-.036 1.062-.122 3.49M340.493 354.983l5.345.286M330.353 354.502l2.85.105 2.313.167 4.977.21M345.838 355.269l-.224 4.54M346.058 350.79l-.193 3.921-.027.558M345.396 364.281l.218-4.472" clip-path="url(#p62f6f157f4)" style="fill:none;stroke:#000"/><path d="m351.511 346.48-3.356-.064-.78.05-.228.092-.37.255-.646.538-.192.255-.068.298.082.562.057.502.048 1.823M336.399 336.801l4.838.07M336.399 336.801l-.203 4.57M330.633 336.055l1.177.499.88.21 3.709.037M355.131 337.13l-3.537.08M351.447 341.655l-3.204-.102-1.372-.086-.282-.022M346.674 337.065l-.234 3.949.05.22.1.21M341.016 341.67l2.33.125 1.89-.087 1.353-.263M346.674 337.065l4.92.145M341.237 336.87l.866.043 4.571.152M351.447 341.655l.147-4.445M329.929 357.068l.218-1.087.206-1.479M308.602 348.838l1.963.094M264.843 357.846l-.533-.31-.825-.744-.44-.706-.129-.714.015-.909.213-.93.455-.984.732-.812.845-.867 1.243-.855 1.2-.892.456-.62.39-.984.227-.905.292-.762.497-.694.952-.632 4.646-2.186 1.335-.453 3.567-1.58 2.337-1.151.66-.267.718-.099.717.031.796.279 2.778 1.505 3.644 1.468 2.287 1.134 3.865 2.392 3.85 2.08 1.555.72.498.123.99.133 1.496.078 2.43.105" clip-path="url(#p62f6f157f4)" style="fill:none;stroke:#000"/><path d="m285.678 355.77 1.634.285.497-.099.54-.384 2.557-2.131 2.188-1.685 1.648-.917 1.463-.495.896-.174.639.087 2.97 1.437 1.065.297 1.364.21.696-.067 1.819-.601 1.982-1.016.227-.235.085-.39.185-.348.469-.706M331.653 319.801l.052-1.186-.005-.764-.103-.291-.235-.205-.28-.091" clip-path="url(#p62f6f157f4)" style="fill:none;stroke:#000"/><path d="m319.492 314.995.959.124 1.1.297.732.241.668.329 1.648 1.295.313.217.433.111 1.634-.03 1.336-.07 2.186-.266.582.021M334.175 300.33l-.085 1.054-.1.34-.007.36.242.991.12.638-.027.57-.47 1.295-.07.397.07.377.264.564.937 1.165.37.564.149.377-.2 1.48-.24.354-.292.236-1.009.334-.248.13-.2.273-.333 1.17-.313 1.03-.206.42-.39.509-.498.836-.556 1.47M344.636 331.683l12.328.076M344.636 331.683l-8.156-.243M357.511 328.63l-3.708-.16-1.037.135-4.276-.074-3.076-.08-.363.043-.22.148-.185.278-.01 2.763M356.964 331.759l.547-3.129M367.023 342.618l-.13-2.1.375-.98.73-.572.543-.438M394.032 341.311l-11.949 1.072-1.985.15" clip-path="url(#p62f6f157f4)" style="fill:none;stroke:#000"/><path d="m380.098 342.533-.268-.388-1.07-.484-1.363-.157-1.36-.021-1.287.129M374.555 336.718l.121.73.074 4.164M374.75 341.612l-.322.036-1.211.137-3.006.785M370.211 342.57l-3.188.048M367.155 355.562l-1.663.002M367.155 355.562l.006-6.723M367.161 348.839l-.138-6.22M373.069 354.934l.618.03.98.416.59.625.59.28.726.292.608.506.846 1.023.785.496 1.41.554 1.5.182 1.412-.21 1.869.056 1.946.13 2.174-.044M373.069 354.934l-1.03.018-2.101-.076M374.42 347.155l.556.586.218.468-.034.454-.358.888-.569 1.146-.234 1.016.057.978-.087.405-.336 1.054-.564.784M386.367 440.322l-.753-.706-.987-1.32-.967-.879-1.435-.743-.866-.558-.483-.724-1.414-2.143-.767-.843-1.393-.582-1.037-.607-.142-.52.17-.582 1.265-1.735 1.407-2.291 1.478-1.276 1.15-.694 1.108-.322 2.145.198 1.151-.26.825-.744.369-.631 1.165-2.936.526-.91.774-.57 1.485-.453 2.003-.185 1.975-.285 2.174-.403 1.612-.322 1.67-.36 1.221-.408" clip-path="url(#p62f6f157f4)" style="fill:none;stroke:#000"/><path d="m409.88 419.765-.61-.614-.988-.712-1.357-.18-2.884-.6-1.172-.676-.86-.78-.213-.675M476.159 437.114l-1.634-.93-1.52-1.3-.938-1.437-.668-2.812-.014-1.165.568-1.052.597-1.512.227-1.994-.048-5.4-1.387-4.795-.795-1.524-2.856-3.667-2.117-1.71-2.912-2.156-1.55-1.288-.561-.918-.447-5.177-.781-1.152-1.322-.694-2.258-3.345-.754-.533-2.508-.884-3.182-2.083-1.506-.52-.667-.297-.288-.467-.018-.667.973-1.945.217-.92-.01-.613" clip-path="url(#p62f6f157f4)" style="fill:none;stroke:#000"/><path d="m451.402 380.766-1.826 1.982-1.576 1.409M416.274 402.563l.378-.126.475-.142.727-.214.8-.273.653-.545.774-.824 1.379-1.27.689-1.016 1.044-1.697" clip-path="url(#p62f6f157f4)" style="fill:none;stroke:#000"/><path d="m408.793 403.629.79-.744 1.079-1.003 1.009-.836 1.015-.551 1.343-.93.38-.08.42.087.564.898.476 1.09.405 1.003" clip-path="url(#p62f6f157f4)" style="fill:none;stroke:#000"/><path d="m416.928 404.124-.1-.384-.554-1.177M629.465 153.806l-.148-.385-1.636-4.432-1.018-2.572-.989-2.08-.076-.71.054-.747.106-.744M625.44 179.989l-.564-.701-.345-.78-.194-1.232.04-.95.104-1.102.424-1 .688-1.13.856-1.231.361-1.213.575-1.613 1.522-2.438 1.072-1.271.782-.857.631-.99.266-.586.18-.568.144-1.023-.05-.768-.158-.731-1.13-2.823-1.179-3.176" clip-path="url(#p62f6f157f4)" style="fill:none;stroke:#000"/><path d="m637.27 149.07-.54-.433-.43-.094h-.538l-.711.3-.668.226-.646.32-.538.45-.258.395-.022.3.97 1.54.473.846.194.658.021.826-.064.357-.237.15-.237.057-.517-.075-1.077-.225-2.003-.602-.977-.26M632.049 193.036l1.346-.967 1.064-.543.951-.667.742-.96.226-1.093.292-1.672-.152-.55-.303-.4-.725-.434-.703-.266-1.417-.566-1.373-.792-1.844-1.21-1.631-1.098-2.323-1.316-.758-.513" clip-path="url(#p62f6f157f4)" style="fill:none;stroke:#000"/><path d="m627.406 186.903-.452-.902-.474-.713-.474-.92-.387-2.311-.388-1.634.21-.434M296.97 484.361l.078.83.095.208.192.22.34.461.229.371.142.471-.015.706-.114.942.043 1.492.092 3.97.015 4.211-.043 1.35.582 2.948.413 2.862.426 2.458.149.545 1.2 2.483 1.152 2.46.142.717.085.868-.135.68-.504.781-.683.607-.689.527-.625.216-2.14-.076-2.093-.26-3.363.173-1.719.673-1.469 1.217-.523 1.541-.125 2.368.723 3.04.946 2.106.523 1.216.125 1.846.075 2.52.558 1.601.473.905.688.6.743.545 1.025.453M237.102 484.928l.071-.483.284-.706.313-.52.554-.347.668-.186 1.35.012 1.832.013 2.117-.26 2.259-.372 2.13.037.655-.025.355-.198.298-.594.256-.954.09-.251.09-.184.182-.352.66-.483 1.422-.52.845-.576.469-.52 1.712-2.397 1.105-1.887.536-1.55.49-2.218.242-.47.206-.223.34-.087.406.105.873.44.961.396.124.109.066.136.313 1.595.511 1.771.42 2.54.227 1.709.262.991.547.495.49.217.881.223.768-.006 1.292-.415.59-.106 2.998.075 3.609-.031 1.293-.087.568-.18.54-.365.753-.532.632-.236.71-.13.533-.025.37.128.383.306.47 1.21.403 2.027.297.4.5.253.646.099.746.005.891-.281 1.77-.031" clip-path="url(#p62f6f157f4)" style="fill:none;stroke:#000"/><path d="m296.97 484.361-.62-1.266-.773-1.487-.238-.235-.213-.096-.398-.083-1.818-.038-1.947.043-1.066.112-2.678.198-1.744-.077" clip-path="url(#p62f6f157f4)" style="fill:none;stroke:#000"/><path d="m294.856 463.926-.675.687-1.15 1.63-.69 1.084-.604 1.232-.575.954-.739.718-1.272 1.022-1.058.904-.739.446-.192.186-.127.254-.242 1.003-.426 1.096-.192.49-.085.736.064 1.462-.121 1.418-.334.967-.132.415-.092.802M295.161 463.622l-.305.304M308.644 462.5l-1.888.088-.94.092-.385.205-.509.27-.602.135-.28-.087-.68-.309-1.661-.981-.479-.206-.416.006-.212.312-.564 1.125-.528.476-.56.077-1.053-.028-1.838-.01-.888-.043M264.843 357.846l.625.247.895.316" clip-path="url(#p62f6f157f4)" style="fill:none;stroke:#000"/><path d="m266.685 345.79-1.75 1.512-.8.751-.529 1.002-1.16 2.264-.871 2.08-.645 3.206-.161 1.293.37.295 2.306-.169 1.398-.178M174.26 553.76l.24 1.37M179.093 512.03l-1.649 2.228-2.351 2.769-1.059 2.334-1.175 1.804-.662 1.195 1.298 3.393.596.718.995.768.71.891-.937 1.239-.654.917-.085.743.17 2.006.029 2.626-.143.743-.227 1.016.142.842.313.867v.916l-.17 1.09.056.966.71 1.412.357 1.281-.333 2.13-.334.972.028 3.231-.457 2.633M173.436 554.32l.303-.11.247-.173.275-.277M175.33 559.063l-.738-3.408-.092-.525M173.436 554.32l.42.153.28.221.206.197.158.239M175.33 559.063l.45 2.125" clip-path="url(#p62f6f157f4)" style="fill:none;stroke:#000"/><path d="m180.357 560.232-.877-.932-1.15-.306-1.563.014-1.437.055M110.175 575.617l.75-.523 1.96-2.055 1.62-1.759 1.108-1.189 1.364-.545.682-.817 1.279-1.882.824-1.289.852-1.312.426-1.61.342-1.09.596-.545.767-.371 1.08-.992.54-.768.625-.569.995-.644 3.636-1.56 2.442-.626 2.626-.472 2.02-.014 2.499.083 1.464-.18 2.975-.139 4.472-.208 3.15.028 1.035.11.716.417.302.819.828 1.983.445.999.573.388 1.687.583 1.607.277 1.766.042.828-.32 1.686-.97 1.385-.694 1.305-.471 1.193-.61.94-.875.747-.97.62-.61 1.05-.237 3.454-.11M161.717 572.373l1.176-2.686.612-1.271.517-.523.53-.185 1.305-.235 1.047-.39.73-.523 1.258-.943.905-.43 1.776-.657 1.282-.543 1.212-.84 1.011-.964.703-.995M174.205 502.938l.91 1.214 1.214 1.696 1.45 2.484 1.086 1.542.398.693v.892l-.17.57M241.147 548.16h-1.433l-1.891-.45-1.605-.849-2.58-.125-1.777-.025-1.174-.75-.379-1.151-.442-1.19-1.29-.095-1.805.835-1.916 1.317-1.62 1.317-1.659.417-3.021.321h-1.769l-1.473-1.124-1.217-1.574-1.915-3.5-1.474-3.244-.884-.9-1.326.097-2.617.16-2.431-.45-1.4-1.092-1.327-1.349-1.768-.803-2.874-.064-2.985-.128h-3.242l-.442-.482.074-1.799v-4.208l-.295-1.38-1.363-.836-1.732-1.51-1.142-1.67-.848-1.028-1.915-.23-.789-.067-.625.068-.717-.013-.803-.346-.561-.607-.277-.676-.1-.792.085-.954.356-1.752.234-1.474.05-1.183.05-.793M155.426 494.38l.075.544.305 1.523.405 1.4.405.836.512.6.22.428M174.205 502.938l-.88-.768-.54-.669-.938-.372-.498-.142-.86-.037-2.947.353-2.892.402-.93.006-.895-.067-1.47-.46-1.422-.37-.653-.211-1.932-.892" clip-path="url(#p62f6f157f4)" style="fill:none;stroke:#000"/><path d="m148.752 492.564 2.025 1.406 3.41 3.282 2.245 1.908.554.365.362.186M186.221 484.091l-.458.227-1.45 1.087-1.846.923-.952.73-.945.93-1.797 1.87-1.236 1.3-.384.558-.37.6-.653 1.74-.54 1.648-.774 1.753-.34 1.09-.129.489-.007 2.886-.078.607-.057.409M223.562 493.5l.817.173.547.167.512.366.355.42.597.323.518.124.511-.05.832-.205 3.339-.631.873-.13.455.006.238.114.202.282.533 1.14.497 1.282 1.606 4.725.305.78 1.037 1.989.249 1.077.178 1.74.17.682.228.482.596.515 1.144.774 1.837.816.536.423.34.451.185.54.298 1.993.1 1.004.32 1.653.27.675.39.632 1.819 2.062.091 3.267.106 2.343.849 2.004 1.803 1.11 1.4.536 2.427.132 1.651-.049 1.241-.028 1.065-.028.435.422.016.66-.306.646-1.645 1.855-1.257 1.181-5.788 6.872-1.721 1.148-1.203 1.049-.86 1.174-1.319 1.049-1.117 2.449-.717.474M224.47 577.738h1.732l1.018.43.742 1.463.825.959 1.677-.192.99-.288-.082-1.198.192-2.35.371-1.305.804-1.744 1.733-1.797 1.69-1.439 2.599-1.384 3.485-1.635 3.196-.9 2.516-1.545 4.166-2.822 2.515-2.48 1.28-2.356.02-.665-.227-.252-1.712-.809-2.97-1.51-2.103-.952-2.907-1.6-3.156-2.175-1.717-1.032M322.435 459.223l-1.753 1.243-1.485.437-1.176 1.06-1.484.05-2.005.05-1.908.32-1.248.133-1.307.08-.65.026-.274.013-.5-.135M314.514 455.263l-.464.63-.677.65-.427.186-.515.227-.887.255-.918.435-.788.551-.483.52-.398.67-.22.81-.036 1.177-.014.564-.043.562" clip-path="url(#p62f6f157f4)" style="fill:none;stroke:#000"/><path d="m294.856 463.926.717.038.696-.1 1.045-.012 1.08.08.667-.012.519-.118.405-.254.426-.693.32-.737.183-.259.138-.045.205.028.513.255.92.52.815.54.433.215.444.087.327.034.59-.066.335-.105.35-.111.48-.217.454-.112.696-.198.636-.055.394-.129M307.16 484.538l-.107-.437-.28-1.297-.288-1.292-.206-1.418.02-.465.133-.216.16-.08h.287l.387.024.96-.087.756-.052.43.059.32.127.343.12.331-.065.192-.108.103-.27.195-.272.472-.186.486-.115 1.358-.268.53-.143.147-.109.04-.096-.006-.055-.533-.595-.391-.842-.249-1.456-.206-.886-.426-.674-.593-.951-.647-1.164-.717-1.02-1.165-1.684-.423-.613-.252-.623-.081-.42-.068-.639.003-.87-.192-.486-.014-.27.107-.3.253-.353.177-.65.138-.841M314.815 457.56l.11-.662.125-.367.072-.446-.608-.822M310.037 391.89l-.06.527.017.499.306 1.434.518 1.82.838 2.516.568 2.019.91 2.67.734 1.782.726 1.658.11.735-.05.315-.483.731-.675 1.01-.824.96-1.328 1.146-1.89 1.412-.327.322-.547.682-.61 1.04-.526 1.233-.185 1.4.057 1.474.256 2.081.078.78-.072 1.221-.177 1.214-.206 1.214-.54 1.35-.185.638-.007.855.355.818 1.175 1.36 1.213 1.352.227.626-.078.917-.341 1.084-.562 1.046-.452 1.377-.205 1.247.167.963.49 1.12 1.061 2.055.612 1.105.423.346.843.502 1.12.495.657.346.285.243.313.433.196.388.445 1.314.583 1.767.113.467.107 1.016.03 1.452-.145.991-.235.856-.346.949M365.492 355.564l.132 2.905M365.785 362.034l-.161-3.565M365.624 358.47l3.16.013M331.301 331.248l5.18.192M331.28 330.359l-.034.446.055.443M330.633 336.055l.033-.555.17-2.211-.042-1.561.092-.242.415-.238M336.48 331.44l.064-3.602M361.902 314.39l-.459.422-.362.186-.863.319-1.123.241-2.681.61-.646.295-.367.279-.195.229-.078.217.046.356.206.499.235.528.415 1.008.39.898.7 1.516M331.653 319.801l3.715.094 1.99.031 1.79-.018 4.085.03.234.05.177.149.182.238.422.765.455.607.647.347.625.094 1.84-.305 1.861-.036 3.683.226 2.611.021 1.15-.101M148.752 492.564l-.824-.328-.83-.075-.704.044-.775.266-1.37.644-1.287.935-.667.26-.533.038-.504-.155-.746-.47-1.222-.88-1.186-1.047-1.258-.904-1.221-.452-1.087-.21-3.041-.137M115.115 490.968l1.727-.045 2.01.192.49-.012 1.74-.254 2.345-.136 1.925-.217 2.302-.105 1.364-.193 1.158-.13 1.32.025M150.225 467.579l-.727 1.717-.305.489-.306.266-.511.403-1.655 1.14-1.77 1.01-.816.216-.27.136-.405.465-1.208 2.112-.618.897-.625.65-.895.583-.93.304-1.315.68-.178.28-.191.705-.434.892-.142.403.015.304.54.885.12.52-.007.44-.689 1.585-.17.601-.064.552.106 1.139-.014.49-.142.358-.448.465-2.308 1.239-.753.217-1.115.154-.498.217" clip-path="url(#p62f6f157f4)" style="fill:none;stroke:#000"/><path d="m154.42 489.232-.674.725-1.073 1.016-1.32 1.077-.697.34-.675.15-1.229.024M154.42 489.232l-.103-.422M155.426 494.38l-.039-.286-.334-1.146-.362-1.468-.227-1.245-.043-1.003M237.102 484.928l-.511-.49-.767-1.244-.576-.824-.398-.378-.085-.483.014-.52-.17-.564-.306-.75.142-.414.483-.737.206-.6-.021-.886-.107-1.456-.163-.44-.533-.799-.561-.674-.568-.88-.405-1.028-.455-.694-.647-.86-.554-.75-.852-1.134-.646-1.01-1.01-1.362-.81-.947-1.32-.923-.498-.347-.653-.328-1.769-.898-.902-.452-.256-.26-.106-.291.1-.403.347-.298.242-.631.312-1.078.078-1.276.264-1.827.035-.811-.178-.459-.383-.619-.967-.786-2.223-1.753-.724-.682-.505-.526-.526-.719-.348-.347-.554-.198-1.108-.154-1.137-.292-.767-.507-.59-.7-.653-1.604-.34-.88M237.102 484.928l.434.16.532-.011.796-.143 1.534-.372 1.087-.253 1.797-.155.924-.025 1.271-.291 1.094-.087 1.457.174 1.456.303 2.55.755 2.366.954 1.122.39 1.407.36.696.223 1.143.495.86.558.923.817.747.663 1.548.948 1.329.526 1.051.334.355-.056.32-.482.64-1.778.326-.607.554-.47.824-.41 1.115-.39 3.24-1.325 1.023-.403.71-.08 1.144.012 1.897.05 1.775-.006 1.116.136 1.939.105 2.507-.303 1.777-.298 1.477-.315 1.492-.056 1.442-.099 1.321-.242.668-.043.682.111 1.477.18 1.922-.12M237.102 484.928l-.34.285-.384.124-.498.086-1.278-.334-1.251-.297-1.009-.136-1.065.123-.668.322-.547.52-.398.453-.401.31M219.158 476.982l.398.164 1.108.356.782.316.625.254.554.39.689.836.678.908.938 1.186.831.972.671.898.547.762.671.69.746.771.448.491.419.407M223.562 493.5l.291-.508.682-.992.732-1.238.69-1.226.901-1.127.74-.645 1.123-.51.638-.273.107-.14-.004-.213-.2-.245M416.928 404.124l.433.756.248.44.192.142h.341l.966-.13.625.038.363.074.447.186M394.032 341.311l-.008-2.998-.099-1.623-.22-.73-.483-.57-.568-.658-.256-.638-.092-.718.199-.545.213-.725.042-.353M421.953 327.389l-.934.244-2.586.706-4.134 1.066-3.502.947-2.998.781-1.314.409-1.322.458-1.463.787-1.264.936-2.11 1.71-1.215.873-.767.712-.59 1.146-.56 1.32-.938 1.245-.796.378-.661.105-.767.1M186.221 484.091l.608-.141.625.012 1.243.427 1.776.805 4.617 2.558 2.863 1.777 2.486 1.592 1.94 1.419 1.434 1.195.917.873.376.29.583.187 2.629.062 3.352-.1 1.059.075 1.435.198.781-.043.81-.23.703-.39 1.25-.91.818-.415.774-.223.668-.062 1.441.124 1.03.149 1.123.18M212.352 329.256l-.688-.037-1.493-.26-1.364-.137-1.03-.012-1.1.087-3.183.377h-.96l-1.228-.046-.213-.012-.238.13-.082.207-.128 1.896v.973M219.257 356.848l-2.13-3.63-2.245-3.197-.626-.594-1.023-1.078-1.648-.719-5.541-1.87-.259-.245-.181-.276-1.883-3.674-.256-.594-.802-2.559-1.599-3.84-.27-.85-.149-1.3" clip-path="url(#p62f6f157f4)" style="fill:none;stroke:#000"/><path d="m169.211 313.186-.56.533-.242.501-.171.515.092.414.263.342.803.768.17.365-.028.384-.213.78-.05.453.085.514.228.502 1.051 1.895.497.893.284.904-.042 5.019.206 1.071.27.514.284.36.313.297.475.23 1.727.44 1.108.104.54-.03.817-.13.383-.026 2.693.168 1.925.03 3.16-.321.633-.068 1.485.142.91-.05 3.608-.17.966-.096.71-.235 1.073-.075.476.044.988.365 1.69.768 1.805.545 1.022.577M217.346 320.096l-.142.292-.17.69-.284.639-.441.755-.746.88-.51.626-.42.625-.263.8-.405.922-.39.639-.676 1.096-.547 1.196" clip-path="url(#p62f6f157f4)" style="fill:none;stroke:#000"/><path d="m237.465 329.857-.274-.146-1.83-.591-1.47-.453-1.18-.216-1.327-.069-.995.094-.469.018-1.115-.223-.917-.254-.66-.019-.533.136-1.15.317-.91.16-.76.118-.69.161-1.3.688-1.079.353-1.215.006-.454-.018-1.016-.217-1.954-.372-.994-.068-2.053.118-.768-.124M219.257 356.848l-.156 4.752.1.501.475 1.4.214.725-.008.54-.1.408-.66 1.493M237.465 329.857l.156.217.177 2.453.256 2.1.064.923-.036.626-.192.83-.483 1.56-.468 1.34-.192.916-.235.409-.937 1.27-.682 1.35-1.442 2.64-1.847 3.345-.192.241-.22.198-1.386.793-2.173 1.326-1.705 1.158-.455.23-5.193 2.1-.596.34-.427.626M520.728 425.829l-3.41.334-3.168.657-1.194.545-1.037 1.214-1.008 1.783-1.393 1.586-.696 1.19-.753 1.164-2.017 1.437-.91.371-.952-.111-1.065-.694-1.265-.508-2.051-.35-4.84-1.78-1.562-.694-1.816-.418-1.523-1.056-2.06-1.029-1.72-.507-1.221-.025-1.293.557-3.24 3.654-1.79 3.085-1.236.52-1.35.36M520.625 497.512l1.336-.285 2.19-.123 4.866.229 9.584.006 1.165-.52.824-.941.54-.768.91-.72.482-.222.199.223.568.644.597.743 1.137.942.54.396.767.248 2.728-.05.71-.433.398-.793.014-3.022-1.705-15.644.014-1.908.342-1.647-.54-3.382.113-1.895.256-.719 1.52-.866 2.359-.372h2.216l1.222-.335 1.392-1.164 1.677-1.549.27-1.102.042-7.977.142-.67.782-1.61.071-.563-.398-.34-.625-.125-5.527.26-.782-.16-.454-.645-3.253-3.32-1.137-.52-1.336-.483-1.392-.991-.34-.743.042-.843.511-.854 1.634-.868 1.108-.693.37-.583.795-1.696-.113-1.858-.995-2.18-.42-.428-.41-.1-.754.1-1.25.384-1.641.074-1.322.18-2.692.836-3.154.725-1.335-.15-3.034-1.114-1.52-.328-.888-.917-.526-1.183-.362-1.833-1.123-2.986M520.728 425.829l1.676-.199 1.677.037 2.984 1.4.965 1.214M536.484 418.408l-1.4.681-.312.248-.575 1.32-.924 1.387-.34.57-.072.607-.213 1.523-.433.793-1.045.948-3.14 1.796M525.97 349.997l-2.195-6.22-.227-1.01.096-2.944-.032-1.225-.597-.966-1.15-1.171-.547-.892-.405-3.482-.832-.948-5.306-3.178" clip-path="url(#p62f6f157f4)" style="fill:none;stroke:#000"/><path d="m539.148 356.736-4.184-4.1-.782-.422-3.296-.136-2.373-.26-2.003-1.128-.54-.693" clip-path="url(#p62f6f157f4)" style="fill:none;stroke:#000"/><path d="m519.364 358.458.668-.693 1.292-1.599.526-1.573.71-1.127.839-.285 1.15-.545 1.08-1.165.341-1.474M553.377 356.253l-3.324.756-4.488.238-6.417-.51M532.769 361.283l.88-2.428.846-1.232 1.037-.738 2.202-.16 1.414.011M554.6 323.112l-1.365 2.96.1.88 1.747 3.828 2.131 2.07 2.898 2.638 1.975 2.205 1.35 3.457-.043 1.847-1.023 2.032-1.122 1.35-5.3 4.584-1.86 2.862-.711 2.428M587.873 385.008l-.682-.73-.312-.892-.143-1.116-.298-1.399-.767-2.094-1.123-1.487-.781-.793-.88-1.61-2.743-4.448-.654-.768-1.406-.892-.725-.768-.994-1.586-2.501-2.986-2.074-3.556-.64-.768-3.182-2.08-1.35.024-1.264.582-4.405 4.15-1.818.583-2.515-.756-1.96-1.834-1.28-3.53M595.218 402.105l-3.168-2.378-.824-.917-.384-1.19-.994-4.323-.455-1.883-.597-1.71-.113-1.586.198-.904-.255-1.09-.753-1.116M595.503 372.242l-2.643.947-.888.738-.519 1.003.135 1.171.263 1.04.583.657-.079.366-.632.625-.838.706-.327.855-.767 1.24-1.236 1.647-.682 1.771M607.976 351.967l-1.718 1.077-.313.558.17 1.276.924 2.081 1.364 2.268 1.108 1.424.021.292-.156.254-2.216 1.914-.846.873-2.458 1.437-2.6.843-1.69.842-1.165 1.722-1.293 2.02-1.605 1.394M331.28 330.359l-3.796-.355M331.653 319.801l-.168.768-.282 1.278-.212 3.25-.007.853.111.472.21.43.114.452-.138 3.055M591.44 588.95l-3.686 1.06M384.492 303.775l.642.471 1.517 1.258 1.15.248 1.223.148 1.761.446 1.038.508 1.293.818.738.545.54.273.59-.087 1.655-.582.938-.1M375.98 291.025l-.809.818-3.11 2.057" clip-path="url(#p62f6f157f4)" style="fill:none;stroke:#000"/><path d="m384.492 303.775-.552-1.165-.312-1.933-.058-2.678-.085-.446-.312-.718-.398-.446-3.58-1.166-1.847-.595-2.67-.049-2.618-.68M420.337 294.777l-.334 1.099-.142.638-.419.527-2.813.16-.817-.197-1.924-.194-1.592-.396-1.705-.298-3.9.088-1.286-.198-1.263-.683-.54-.372-1.45-1.388-.596-.446-.568-.273-2.273-.769-.88-.198-2.416-.099-5.259.157-10.091-.101-1.783-.056-.853-.149-1.452-.604M387.617 319.331l.227-2.44-.22-.508-.66-.26-2.402-.899-1.08-.217-.554-.229-.39-.459-.093-1.617-.084-3.122-.03-1.66.342-1.388-.128-1.19.213-.47.817-.657.917-.44M451.402 380.766l.618-1.345.306-1.728.156-1.865-.128-1.814-.767-1.673-1.663-2.41-2.749-3.742-1.264-1.276-1.357-.947-3.367-1.605-2.458-1.177-2.564-1.517-2.793-2.262-.774-.322-2.834-.514-1.023-.39-.881-.923-.952-1.685-1.25-1.951-1.13-1.252-.156-.638.078-1.691-.56-1.065-1.343-1.518-2.146-1.215-1.897-.935-.376-.576-.043-1.165 1.371-3.14 1.102-1.828.354-1.053.3-2.205.972-1.462.803-1.246.085-.681-1.119-2.561M516.38 397.46l.156 1.3-.468 1.338-.98 1.499-1.18 2.502-.099.744.34.62 2.033 1.684 2.429 3.023 1.25 3.072 2.657 4.113 1.279 1.412 1.215 1.635-.064.644-.69.911-2.088 1.728-.93.91-.512 1.234" clip-path="url(#p62f6f157f4)" style="fill:none;stroke:#000"/><path d="m490.878 375.47-.91-1.55-.639-.334-1.335-.075-1.25.038-1.364-.124-2.515.396-1.222-.124-1.208-.322-.696-.049-.994.495-1.72.892-1.136.223-1.45-.235-2.4-1.772-.881-.21-.824-.05-.995.421-1.051.421-1.307.211-1.79-.173-1.79.322-.981.322-1.477.248-1.634-.124-1.123.111-.682.731-.625 1.276-2.515 2.515-1.008 1.004-1.954.812M502.897 324.411l.74-1.028 1.718-1.09 3.34-.732 2.542-.173 2.004.149 1.605.124 1.378.36 1.364.68.554.062.426-.124 2.154-1.78M517.63 311.525l1.563.26.938.942.54.992v2.416l-.142 3.382.193 1.342M449.42 328.153l2.742-1.09 1.72-.743 2.315-.496 1.563.074 5.768.892 2.387.335 1.407.136 2.045-.371 3.467-1.103 1.108-1.041 1.194-.83 2.287-.576.76-.254 1.3-1.072.817-.508.696-.08.704.278.532.155.483-.025 3.005-.657 3.197-.272 1.094.111 5.2 1.871 1.833.992 2.415.619 3.438-.087M386.367 440.322l1.037 2.378.199 1.797-.768 1.833-1.917 2.304-2.16 2.453-1.307 1.796M417.979 478.834l-1.478 1.982-1.35 2.006-1.321 1.586-.526 1.14-.568.631-2.202 1.746-2.131 1.945-3.055 3.48-1.549 1.339-1.335.78-2.813 1.164-2.046.36-2.131.544-1.336.719-1.364 1.672-2.756 2.675-1.577 1.474-2.515.929-4.887.013-3.495-.31-1.464-.47-1.52-.893-1.974-1.709-3.055-2.836M438.65 517.343l-2.13.619-2.316.718-2.032.248-2.131-.186M438.65 517.343l.214 1.065-.242 1.845-1.065 2.589M443.382 501.91l.057 7.37-.2 5.71-.12.749-.178.198-.483.08-2.457.47-.881.385-.47.47M417.979 478.834l.952-1.673 1.094-.656 1.278-.805.625-1.858-.142-3.048-.468-2.75-.654-1.3-2.6-2.738-1.15-1.56-1.62-2.651-.853-1.957-.682-1.35-.582-1.04-.483-1.215-.98-1.647-2.473-2.466-2.216-2.712-2.316-2.601-1.705-.471-2.089-.26-1.193.322-2.813.855-1.45-.112-3.054-.88-1.236-.322-.582-.483-.512-1.499-1.137-.706-2.571-.929M443.382 501.91l-.47-.36-1.405-2.248-.413-1.077-.462-1.45-1.669-3.449-.767-1.288-.838-.496-1.932-.532-1.308-.595-2.287-.891-.895-.67-.313-.891-.71-1.202-.781-.62-3.282-1.287-2.018-.991-1.208-1.227-2.216-2.365-1.279-.743-1.15-.694M456.922 487.48l-1.293 1.697-1.222 2.316.17 1.288.683.99.27.967-.37.99-.81 1.524-.476.793-.824.266-1.307.13-1.57.818-1.136 1.003-.74.149-1.15-.198-.81.278-1.385 1.047-.647.353-.923.018M447.615 468.218l.952 3.345 5.954 11 2.4 4.916M464.38 288.218l2.018.335 3.609.793 2.344.855 3.922 2.18 1.022.484.256.483-.483 2.417-.284 2.013.37.688.639.39.944-.012 1.727-1.388 1.065-1.642.313-1.128 1.165-1.87 2.088-2.268 1.577-.843 1.18-.693.923-1.723 2.06-2.64 1.165-2.366 1.463-2.243 2.43-2.54.867-.496 1.179.013 3.097 1.183 2.039 1.106.185.022.17-.062.704-1.159M475.235 270.808l2.387 1.933.163.676-.163.334-.568.15-3.723-.205-5.128.706-2.785 1.685-1.293 1.363-.568 1.933-.398 2.566v3.431l.497 1.45.724 1.388M449.42 328.153l.398-2.298-.05-.576-.66-.483-.185-.608.07-2.205-.255-1.016-.98-1.177-1.307-2.404-1.592-1.945-.497-1.413.341-1.264 1.037-1.375 2.188-5.13 1.478-1.734 1.335-1.301.938-2.764.739-2.168.327-2.614.29-.552 1.159-.576 4.475-2.404 3.865-1.363 1.193-.83.483-.98.17-.755M150.095 467.413l-.554-.675-1.535-1.04-1.101-.973-1.747-1.765-.413-.582-.248-.62-.064-.774-.036-1.344-.142-.712-.525-.836-.299-.855-.149-.91.135-1.004.348-1.505.49-2.682.825-2.737.44-1.208.412-.719.767-.632.632-.625.192-.415.071-.607-.092-1.43-.12-2.02.013-.83.249-1.096.227-2.694.54-3.004.242-.787.525-.818 1.606-1.226 1.456-1.325.71-.676 1.03-.65 3.197-2 2.23-1.4M186.221 484.091l-.401-.584-.558-1.322-.16-.614.071-.923.213-.91.583-1.338.682-1.362.64-1.487.34-1.424.625-2.354.668-2.168 1.3-2.836.17-.793.008-.706-.2-.57-.418-.595-1.087-.656-1.3-.514-1.371-.36-1.392-.092-1.471.006-.547-.025-1.236-.427-.27-.198-.014-.304.1-.365.27-.34.34-.242.71-.353.86-.384.313-.236.546-.625 1.628-2.72.312-.668.142-.378-.021-.303-.285-.626-.639-1.164-.156-.527-.057-.532.071-1.778-.256-.954-.454-1.734-.384-.966-.554-.78-.611-.607-.61-.98-.548-1.418-.334-.588-1.314-1.598-2.443-2.62-.626-.929-1.229-2.676-.845-1.641-.64-.793-1.463-1.034-2.152-1.258-1.833-.824-2.131-1.145-.938-.416-.923-.216-.682-.235-1.193-.88-.881-.768-.74-.347-2.038-.65M150.095 467.413l.13.166M127.952 461.263l.47.632.624.625 1.037.762.952.582.696.558.931.755.362.1.54-.106 1.243-.44 1.578-.805.966-.607.49-.148.774-.087.504.074.391.21 1.272 1.06.838.452.746.297.49.056 1.2-.223.526.019.597.154.753.378 1.087.706 1.747 1.109.548.08.78-.043M272.027 301.264l-.607.077-1.172.043-2.301-.075-.682.112-.895.235-2.401.905-.668.055-1.016-.03-1.585-.212-.653.094-.98.403-.568.272-.633.44-.76.744-.653.761-.44.7-.456.973-.312.843-.419 1.512-.334.823-.327.62-.483.49-.824.625-1.414.737-1.86.936-.825.217-.824.055-1.89-.34-.695.086-.91.335-1.562.855-1.741.941-1.954 1.283-.909.719-.781.737-.341.625-.249.428-.447.397-.619.266-.973.143-3.04-.02-3.403-.049-4.688-.136h-2.686l-1.591.037-1.467.13-.643.04M180.968 301.637l1.563.521.568.297 1.783 1.413.91.644.987.434 1.47.49.746.501 1.144 1.518.98.849.966.545 2.764 1.338 2.514 1.512.952.805 2.032 2.342 1.15 1.264.711.99.568.373 1.123.57 2.515.948 1.747.49 1.13.179 3.21.087 1.912.005 1.236.057 1.157.154.54.133M243.424 326.233l-2.017 1.678-1.336.744-1.1.36-.718.34-.788.502M272.027 301.264l.501-.091.569.031.86.23 3.636 1.883 1.024.254.966.241.788.273.938.527 1.438 1.071 1.151.654.508.365.5.437 1.098 1.013.696.514.849.461 1.176.416 1.23.229 1.335.056 1.15.093 2.416.112 1.712-.15.739-.105.582-.13 1.108-.223.881-.056.867.056 3.02.576 1.022.118 1.044.031.611.136.604.217.448.266 2.653 2.853.174.115.227.068 2.721.09.732.077.412.084 1.378.477.753.195.945.124 2.003.143M317.325 289.08l-.526-.242-1.186-.322-1.193-.13-1.151-.013-1.051.093-1.045.236-.966.384-.597.452-.419.589-.682 2.118-.305.973-.789 1.468-.028.36.114.595 1.03 1.796 2.606 2.9.185.613.015.725-.114 2.974.384 1.883 1.463 2.775.312.706.2 1.165.387.72.515.485.305.17.455.143.824.41.767.452 1.37.6 1.287.837M321.274 240.124l.477.151 2.358.211.912.328 2.626 1.475.717.093 2.707-.31.497-.006 1.059.26 2.088.899 1.596.756.954.867.22.452.306 1.952.22.57.533.756 1.755 1.568.291.464.739 1.94.334.7.433.464.703.384.526.174 1.494.012 4.544-.824.96-.043.766.062.597.217.732.402 1.356 1.865.562.508 1.037.447 3.687.774 2.507.496.683-.031.873-.087 1.634-.533 1.273-.45" clip-path="url(#p62f6f157f4)" style="fill:none;stroke:#000"/><path d="m366.007 137.795-.312 2.032-.057 1.587v.718l.17.645.256.719.2.768-.37.744-.881 1.215-2.671 2.578-3.126 2.38-2.614 1.487-2.444.446-1.932.198-.853.298-1.306.644-.683.843-.284 1.09-.056 1.092.397 1.536.341 1.14.626 4.412 1.306 6.098.512 1.19-.114 1.19-.284 1.934-1.008 9.617-.157 1.345-.298.538-.54.342-.923.316-.824.13-.754.26-1.158.781-.533.588-.148.446.035.447.256.582 3.886 2.962 3.828 2.95.881.533 2.778 1.22.632.36 1.03.967.973.576 2.515 1.809 1.037 1.041.668 1.14.412.893.185.88.142 4.077.27 3.16-.014 2.813-.228 6.73.484 5.526-.043 3.012-.015 5.849.2 4.436.1 4.697.07 5.291-.029 4.778.079.377.413.84M317.325 289.08l-.376.681-.476 1.121-.483.967-.128.589.042 1.207.227.44.47.67 2.706 2.775 1.307 1.258.178.347-.007.384-.732 3.172-.384 1.636M321.274 240.124l-.93.777-.56.328-.562.08-.476-.142-1.591-1.096-.576-.1-.56.112-.52.347-.29.36-.164 1.647-.043 2.25-.248 1.152-.519 1.599-.462 1.096-1.343 2.02-1.022 2.255-.114.49.007.49.185.34 2.017 3.055.25.718.134.874.59 2.609 1.001 1.202.995 1.375 1.577 1.772 1.03 1.252.497.842.178.484.284.985.131.322.2.236.397.293 2.088.883.896.614 1.04.985.96 1.11.205.492.103.523.022 1.49-.217 2.736-.157 2.874-.205.459-.356.49-2.486 1.97-1.051.737-1.485 1.103-2.358 2.007-.441.458" clip-path="url(#p62f6f157f4)" style="fill:none;stroke:#000"/><path d="m264.092 213.886 2.707-.133 2.367.181 1.506.407 5.797 2.181 1.433.222 1.433-.229 3.488-1.04 2.073-.14 1.682.568 1.08 1.094 3.274 5.32.833 1.54 1.185 2.876.68.932 1.024.556 7.902 2.14 11.224 3.061 1.662.682 1.905 1.35.866.868 1.45 2.268.525.88.668.52.418.134M115.115 490.968l-.34 2.067-.292 1.684-.056.682.135.755.497 2.533.667 2.23.235.52-.035.384-.178.34-.291.44-.178.428-.071.613.05 1.523.128.372.34.303.612.502.404.403.086.464-.043.52v.91l.114.874.518 1.994.54 1.554.156.713-.028.452-.17.241-.405.205-.455.037-.377-.143-.44-.043-.497.012-.448-.086-1.193-.601" clip-path="url(#p62f6f157f4)" style="fill:none;stroke:#000"/><path d="m112.183 490.979.553.08 1.72-.074.66-.017M310.565 348.932l.317-1.71.81-2.9.028-.415-.483-1.103.021-.353.483-1.387-.056-.682M329.929 357.068l-4.065-.176-3.452-.18-.583.074-2.081.52-.292.186-.142.174-.064.247.178 1.438-.064.923.003.186.071.158.335.526.092.245.17.335.334.272 2.703 1.04M154.317 488.81l-.08-.327-.633-1.363-.98-2.44-.299-1.957-.163-2.452-.199-.639-1.57-3.325-.177-.551.028-.65.398-1.617.348-2.286.05-1.486-.164-.86-.227-.725-.424-.553M272.436 310.274l.839-1.784v-.62l-.299-.966-.667-1.4-.114-.62-.168-3.62M154.317 488.81l.601-.711.732-.613.582-.304.253-.015.238.09.667.644.313.539.789 1.052.951.998.455.792 1.272 1.146.177.44-.064.427-.213.427-.483.527-.469.173-4.692-.041M262.218 213.978l.926.508.526.285.247.198" clip-path="url(#p62f6f157f4)" style="fill:none;stroke:#000"/><path d="m264.092 213.886-.152.798-.023.285M253.426 239.147l.91-.693.454-.818.569-1.76.113-1.933.057-1.81-.284-2.726-.057-2.057.114-.62.34-.446.768-.322 1.194-.397 1.278-.693 1.734-1.042.937-.545.427-.52.824-2.008.795-2.156.228-2.504.09-1.128M262.218 213.978l1.874-.092M366.007 137.795l2.018-.992 1.875-1.09 2.188-1.364 1.137-1.016.91-1.091.71-.372 1.42-.446.74-.1M434.289 178.1l-.142-1.19-.625-1.214-.427-.496-.937-.694-1.335-1.611-.683-1.016.029-.72.227-.842.37-1.016.028-.868-.029-.645.455-.966.796-2.529.796-3.743.056-1.834-.369-1.413-.824-1.487-1.052-.954-.596-.323-.725-.768-.611-.818-.625-.806-.682-.904-.284-.323-.469-.111-.909-.26-1.833-.955-2.174-1.165-1.307-.979-.838-.992-.966-1.078-1.108-1.128-.824-1.24-1.35-1.673-.597-1.14-.298-.496-.91-.93-.81-.817-2.741-1.785-.825-.236-.895.062-.852.05-.668-.087-.796-.31-.639-.545-.568-.26M402.294 134.634l1.164-.124.583.111.682.224M402.294 134.634l-.256.062-.44.05-2.132.061-1.804.062-1.123-.037-1.35-.335-1.036-.049-.768.248-2.458.508M394.88 166.139l.296-2.044.497-2.095.37-1.772.695-2.355.37-1.909.454-1.462.498-1.785.355-1.524.071-.546-.654-1.549-.17-.173-.412-.025-.483.136-1.037.323-.753.062-.384-.1-.54-.433-.568-.583-1.279-1.289-.852-1.76-.285-1.041.285-1.487.596-.769.711-.57.398-.421.312-.645.483-.545.739-.67.384-.88.411-.272 1.748-.633 1.69-.669.754-.285.767-.136.838-.248.54-.607.569-.744M374.617 151.081l.88.1.74-.422 1.79-1.611 1.023-.72.454.125.37.446.71-.223.654-.793.682-.967 1.051-.867 1.535-.372h.852l.938.297.426 1.016.029 3.867.312.893.483.545 2.16 2.652.71.843.34.496.37.62.426 2.206.37 1.14.71.991 1.137 1.934.653 1.686.457 1.176M396.468 172.399l.057-1.71-.54-2.256-.994-2.008-.112-.286M472.081 161.79l1.023-.224.824-.644 2.444-2.28 2.103-1.959.681-.223.398-.297.256-.496.284-1.165.228-2.479v-1.81l-.114-1.486.028-1.389-.227-2.23-.284-1.017.028-.595.455-.645 2.074-1.338 1.307-.471 1.62-.124.881.174.909.52.654.892 1.449 1.438 1.165.397 2.301.446 3.155.57 1.25.298 1.506.62 3.069 1.61 1.506 1.116 2.216 1.661 1.478 1.165.795 1.214.796 1.885.483.371.88.322 2.942 1.302 1.278.31.611.31.228.483-.043 1.413-.17 1.822-.228 2.38-.014 1.078.412.57.469.149.426-.013M396.468 172.399l.853.793.682.471 2.387 1.24 2.216 1.19 2.358 1.065.483.52.37.868.483.322 1.136.422.427.347.454.818 1.45 3.495 1.25 2.875.653 2.082.768 2.975.256 1.586.198 2.181.256 2.776.085 2.206.37 2.082.653 2.479.853 2.33.455 1.14.681.917.625 1.66.999 2.53M373.594 177.951l1.052.818.767.298 1.023.371.824.496.88.372 1.251.297 1.591.248 1.478.05 1.534-.05 1.307.224 1.052.47 1.363.471 1.194.446.597.397.487.28" clip-path="url(#p62f6f157f4)" style="fill:none;stroke:#000"/><path d="m396.468 172.399-.34 1.214-.427 1.042-1.222 1.685-1.705 1.835-.91 1.76-1.704 2.874-.166.33M468.558 139.802l1.25-.57 1.278-.917.881-.322 1.109-.422 2.642-1.338 1.62-1.29 1.08-1.04.625-1.314 1.108-1.686M468.558 139.802l-.625.273-1.052.62-1.96.744-.654.421-.426.496-.824.743-1.137.546-.88.62-.37.62-.028 1.04-.142 1.388-.228.744-1.023.893-1.875.842-.71 1.29-.256.867.256.793.397.67 1.023.669.824.595.483.917-.227 1.214-.228.918-.966.817-.398.62-.283 2.107-.427 1.587-.085 1.016.028.867-.284.323-.34.173-.71.025-.882-.397-.88-.396-.712.05-.937.371-1.335 1.314-.967.744-1.222.247-1.79.62-.994.595-.54.645-1.222 1.19-.88.222h-1.222l-1.393.05-.938.273-1.59.892-1.308.645-.767.57-.2.768-.34 1.611-.284 1.264-.74 1.562" clip-path="url(#p62f6f157f4)" style="fill:none;stroke:#000"/><path d="m472.081 161.79.142-3-.199-3.272-.057-2.429.17-2.008.143-1.24-.199-2.032-.17-3.297-.256-.718-.511-1.24-1.478-1.636-1.108-1.116M475.314 208.449l-.534-3.158-.369-1.983-.568-.818-.597-1.438-.227-.99v-.992l.256-1.314-.057-.62-.057-1.066.057-2.8-.227-3.074.028-7.61-.114-5.899-.142-3.768-.199-3.792-.17-1.909.114-2.156-.313-1.884-.114-1.388M105.298 585.72l.313-1.164 1.335-1.412 2.16-2.427 1.165-1.783.511-1.56v-.793l-.607-.964M116.068 592.482l.426-.42.426-.694.455-1.09.454-.694.342-.619M116.068 592.482l1.534 1.09 1.307.57.54.619.994 1.015.796.47.625.05.597-.346 1.79-.99M105.298 585.72l.767 1.685 1.592 2.204 1.08.595 2.074 1.015.966.198 1.335.173 1.08.223 1.109.421.767.248M379.497 263.527l-.674 1.204-.167.436-.1.43-.098.576M331.227 341.064l.064-3.39-.39-1.083-.268-.536M336.196 341.372l-.437 4.513M336.196 341.372l4.82.299M336.196 341.372l-4.969-.308M335.759 345.885l5.058.116M335.759 345.885l-4.972-.114M341.237 336.87l-.22 4.8M340.817 346.001l.2-4.33M340.817 346.001l.256.006M330.787 345.771l.27-2.985.17-1.722" clip-path="url(#p62f6f157f4)" style="fill:none;stroke:#000"/></g><g id="PatchCollection_1"><path d="m211.685 294.166-.597-.05-.313-.446-.142-.52-.028-1.115.085-.52.17-.596.086-.495.341-.421.511-.347.54-.1.568.05.54.149.143.52-.086.471-.284.446-.397.372-.399.446-.085.495.114.496-.085.496-.256.446zM275.505 233.274l-.597-.075-1.08-.446-.397-.372-.228-.496.086-.52.142-.496.284-.42.426-.348.483-.248 1.109-.297 1.647-.273.654 1.14-.341.421-.426.942-.512.893-.397.347-.54.248zM264.693 345.437l.014-.792.128-.77.014-.494.057-.322.214-.756.362-.413.447-.009.98.223.256.087.142.223.156.31.157.483.057.248.014.248.156.47.043.248-.043.248-.17.199-.242.148-.27.124-.582.149-.334.124-.291-.025h-.299l-.284.049-.284.075-.298.062zM292.985 536.467l.038-.218.1-.093.113-.068.142-.018h.142l.142.024.562-.024.817.074.135.043.234.143.191.173.065.112.035.124.021.241v.26l-.02.248-.122.371-.05.118-.156.21-.127.069-.299-.05-.135-.043-.12-.08-.107-.094-.128-.074-.142-.037-.284-.037-.142-.056-.078-.112v-.513l-.093-.106-.234-.167-.448-.29zM559.827 567.119l-.568.025-.597-.1-.54-.222-.455-.322-.397-.422-.142-.495-.029-.495.228-.991.057-1.016-.142-.495-.285-.47-.454-.323-2.586-1.064-.426-.372-.313-.421-.228-.47v-.496l.086-.496.653-.842.427-.322.994-.47 1.08-.347 1.42-.942.54-.123h.597l.512.173.994.446.455.272.995 1.239.34.966.654 1.387.597.818.71.792.284.421.228.446.113.495.17.99v.497l-.141.495-.227.47-.342.421-.426.372-.568.025-1.563.718-.568.124z" clip-path="url(#p62f6f157f4)" style="fill:#00f;fill-opacity:.8"/></g><g id="PatchCollection_2"><path d="m257.206 555.08-1.649-2.229 1.08-.346 1.023-.397.228-.99-.512-.942-.397-.94-.569-.942-.739-.793-1.193.05-.625.842-1.194.248-1.136-.248-1.08-.495-1.136-.397-4.888-2.427.54-.718.256-.446.966-.917.369-.397.37-.37 2.074-1.413.398-.346 4.972-6.441.285.52.483.297 1.306.942.995.47.682.199 1.137-.025.54-.074.54.024.255.422.37.916.284.421.37.396.54.074.567-.074 1.109-.322.483-.223 2.756-.842.455-.322.653-1.51.34-.397.228-.47-6.194-.769.341-.396.966-.495.426-.322.938-1.809.71-.792 1.08-.322 1.137-.124.54-.1 1.022-.371.483-.272 2.757-1.04.483-.274.37-.37.34-.521.426-.941 2.245-6.268 1.762-2.576.454-.272 1.592-.62 1.506-.718 1.591-.694 1.42-.842 1.28-.99 1.62-1.487.681-.842.2-.471.113-.52v-.52l-.967-.57-4.404-1.66-.596-.074h-1.222l-.597.05-2.33.47-1.762.396-1.762.298-1.733.198-1.193.074-.569-.148-.54-.223-.398-.397-.084-.496-.029-1.015.113-.495.54-1.437.143-.496.056-.52-.17-.52-.54-.223-.596.025-2.36.346-.596.025-1.165.1-2.358.148-.455-.099.17-.496h.597l.54.075.37-.397.227-.47.227-.991.37-.941.54.025.738.767.427.322.483.248.54.05.54-.05.568-.173.54-.124.511-.173.426-.322.313-.422.34-.99.256-.471 1.052-1.214.454-.298.569-.024 1.108.124h.54l.483-.298-.34-.42-.54-.224-.569-.123-.455-.322.2-.471 6.932.669 4.036-.025.482-.223.313-.421.255-.446.455-.273.569.075 1.05.37.512.274.54.099 1.023-.421.966-.52 1.108-.273.37-.397.511-.916.228-.991 8.269.149 5.256 1.758-.028.496-.995 1.264-.085 1.015.37.372.511.198.767 1.288.2.446 1.107 1.858.17.446.058.495-.142.471-.029.966.2.446.51.198 1.109.124.54.173.937.57 1.45.743.454.273.37.371.312.421.256.446.34 1.462.143.47.17.447.398.347 1.563-.545.483-.273.511-.198.512-.248.54-.149.568-.074h.569l.085.47.17.472.54.148 5.598 8.026-.057 1.04.853.694.795.743-2.5 4.211.568.892-.512.892-.909.644-1.136.347-1.023.446-.057.693h-.597l-.568-.074-.114.495.91.62.568.074.54.149.625.817 1.05 4.459-.71 1.932-.369 1.982-.142.99.057.496.483.892.37.37.284.422.17.496-.455.767-.397.372-.284.446-.228.446-.113.47.37.397.539.074 1.705-.025.54.174.653.594-1.193.198-1.137.297-3.296 1.289-1.989.94-.853.694-.625.842-.51.942-.797.743-.909.644-1.023.396-1.08.347-2.387.446-2.33.05-1.193.198-2.16.693-1.023.446-1.193.298h-1.25l-2.558-2.18-4.49-1.536-1.079-.495-1.193-.248-2.274-.1-1.193.248-1.193.149-1.137-.05-1.08-.396-1.193-.297-1.194-.149-1.136-.05-21.596 10.602zm35.831-18.485.448.29.234.168.093.106v.513l.078.112.142.056.284.037.142.037.128.074.107.093.12.08.135.044.299.05.127-.069.157-.21.05-.118.12-.371.021-.248v-.26l-.02-.241-.036-.124-.065-.112-.191-.173-.234-.143-.135-.043-.817-.074-.562.024-.142-.024h-.142l-.142.018-.113.068-.1.093-.038.218zM395.02 601.399 426.9 582.97l-2.273-2.03.17-.942 1.023-.446.91-.644.113-.99-.17-1.883v-1.04l.17-.942 1.137-.396 1.193-.05 5.115-4.26-19.871-18.596.861-.625 9.974-8.274.398-.371 1.023-1.214.852-.693 1.279-1.685.71 4.632 6.45-.049.427.371 1.051.52 2.87-.024 4.518-.917 1.165-.149.483-.322 1.08-.42.739.173.596.173.569.124.597.074.568.15 1.79.197.597-.025 3.495-.346.597-.025.567-.124.54-.223.37-.371.085-.496-.199-.57-.483-.891-.227-.47-.34-1.462.112-.496.569-.173.54.173.511.322.256.446.37.421 1.392.966 3.836 1.858 2.33.62 2.358.346.597.05 2.756.05.796-.1 5.171-.248 1.166-.024 4.688-.421h1.222l.568.049.568.198 1.166.248.596.05 1.25.024.597-.099 1.25-.52.966-.62.341-.395.512-.917.142-.496.426-.916h.597l1.023.545.398.371.227.496.085.495.029.52.114.496.369.421.568.173h1.79l2.046.075 11.85-.223 17.02-.57 1.733-.148.597-.1.54-.247.313-.421-.313-.422-.426-.322-.398-.347-.029-.495.057-.495.426-.347.569.025.937.644.398.396.597.892.91.718.51.298.512.223.568.173.881.644-.426.371-.284.446-.085.52.113 1.61.611 1.809v.508l-.056.26-.128.235-.228.174-.255.086-2.145.16-1.99-.023-.412.123-.213.273-.227.545-.015.842-.34.755v.99l.965.645 1.137-.198h1.194l1.08.495.397.991v.99l-.511.893-1.137 1.684-14.605 13.078-58.45 52.756-.398-.371-.71-.768-.455-.273-.455-.322-1.165-1.015-.54-.124-1.62.198-.568.025-.54-.05-.54-.173-.426-.321-1.79-3.369-.568-.099h-.568l-.427-.347-.483-.223-1.506.743-.909.595-.568.05-.54-.025-.483.297-.313.42-.71.793-.938.52-.937.57-.54.149-1.677.049-.796-.148-2.045-1.214h-.597l-.994.495-.512.174-.569.148-.397.347.256.446.312.42 1.222 1.214.483.298.483.347-6.99 1.064-.284-.396-.37-.371-.426-.322-.994-.446-.967-.496-.483-.297-.369-.371-.142-.496v-.47l-.057-.495-.227-.47-.54-.1-.113.52-1.28 2.303-1.023.47-.425.348-.825.718-.483.297-.426.347-.91.867-.482-.223z" clip-path="url(#p62f6f157f4)" style="fill:#006400;fill-opacity:.8"/><path d="m317.616 601.498-.34-.223-.058-1.016.455-.297.568-.025.54.025 1.109-.124h.596l.54.074h.568l.569-.173.994-.446.54-.123.54.198.654.842.54-.124.54-.496.227-.445.454-.471.54-.074 1.108-.248v-.495l-.398-.397.285-.445 1.108-.223.54-.075.142-.495.028-.495.455-.347.483-.223 1.847-.545 1.336 1.412 4.063-1.214 48.021-18.08-33.586-33.886-2.216-1.09-2.274-.445-.114-.991.91-.595.795-.693-.227-1.04 4.944-1.883-1.42-2.527 1.08-.396 3.239-.297 1.08-.15 2.955-3.07 1.08-.397 5.569.496.852.643 1.25-.445 1.933-1.24 8.524-2.328 3.751-.297 1.819 2.18-2.33.149-3.467.743-2.387.446-1.136.248-1.99 1.14 2.444 5.944 2.444-.892 1.136-.198.91.644 1.023.446 1.08-.297 1.023-.397 1.08-.247 10.74 9.313 1.08.248.795.694.455.892.455.94.909.546 1.023.346 2.16.496 5.967-3.27 24.72 23.135-5.114 4.26-1.193.05-1.137.396-.17.941v1.04l.17 1.883-.113.99-.91.645-1.023.446-.17.941 2.273 2.031L395.02 601.4l-.056-1.734-.569-.892-1.08-.495-1.193-.248-2.273-.198-4.944-.099-1.194.148-.853.744-.681.842-.114.99.682.793 1.648 1.486.625.842.057.99-.853 1.933.17.99.797.743 1.761 1.19.284.99-.227.99-.454.942-.967.544-1.193.1-1.137-.05-3.523-.446-3.24-1.337-.966-.644-1.136-.198-2.387.05-2.387.346-1.137.05-1.08-.446-.965-.694-.683-.842-.227-1.981-.852-.743-1.194.05-.682.842-.568.891-.397.842-4.263-.842-2.33.1.341-.991.796-.743.34-1.04.057-.991-.454-.942-1.137-.297-1.193.149-1.023.545-.682.842-.227.941-.626.842-1.022-.594-.796-1.982.568-.842 1.08-.396.91-.545.51-.941-.113-.99-.625-.942-.853-.694-1.932-1.189-1.08-.445-1.08-.396-1.193-.05-1.08.446-.738.742-.967 1.784-1.875 1.387-.853 1.932-14.093 11.418-5.968 5.87-11.763-8.421zm16.65-4.756-.596.124-1.052.47-1.108.397-.596.148-.37.372.285.42.568.1h1.165l.54.199.596.841.427.347.482.223 1.109.173.511-.173.142-.495-.113-.52-.654-1.462-.028-.52-.71-.57z" clip-path="url(#p62f6f157f4)" style="fill:#006400;fill-opacity:.8"/><path d="m262.434 559.985 21.596-10.601 1.136.05 1.194.148 1.193.297 1.08.397 1.137.049 1.193-.149 1.193-.247 2.274.099 1.193.248 1.08.495 4.49 1.535 2.557 2.18H305l1.193-.297 1.023-.446 2.16-.693 1.193-.199 2.33-.049 2.387-.446 1.08-.347 1.023-.396.91-.644.795-.743.511-.942.625-.842.853-.693 1.99-.941 3.295-1.289 1.137-.297 1.193-.198.853.743.398 1.04.625.893.739.792.966.594 1.193-.198 1.136-.396 1.137.149 1.137.297.966.545 1.193-.05 2.33-.545 1.08-.396 1.023-.545.91-.693.681-.793 1.08-1.784.625-.792 2.33-.297 2.387-.1 1.137-.644 33.586 33.885-48.02 18.081-1.194-1.684-.683-.793-1.136-.297-2.273.545-3.296.298-2.274.049-1.08-.248-.738-.743-1.08-2.873-1.08-.297-1.023.346-.909.595-.228 1.04-.056.991-.91.644-.795.743.568.892 3.524 3.417-1.08.05-1.137-.198-1.08-.347-1.136.1-1.023.346-.455-.941v-.99l-.398-.893-.795-.742-1.933.792.285 1.14.057.99-.625.842-1.08.248-.228.99.398.991 1.876 1.338 1.08.347h1.363l-9.15 9.907-17.276-13.573-33.814-28.038.91-.694 1.08-1.733.397-.942.511-.892.625-2.873.512-.842.512-.941zM331.303 336.87l-.248 9.449 4.898.13.025 2.998 2.152.13-.05-1.597 1.312.216v-1.532l1.261.021 2.375.066-.148-1.252 1.347-1.057.038-1.575.296-.496.965.044.149-.928-3.884-.151.123-2.977-1.434-.108-.173 1.057-1.114-.086.298-1.942-3.736-.15z" clip-path="url(#p62f6f157f4)" style="fill:#006400;fill-opacity:.8"/></g><g id="PatchCollection_3"><path d="m379.917 342.885-.74 1.524-.937.805-2.514.818-.512-.21.014-3zM375.171 341.745l2.075-.025 1.435.21.866.509-4.39-.111zM351.854 337.593l1.136.05 1.322.024-.44 1.029-1.152 2.886-1.023-.012.142-1.437.1-1.648z" clip-path="url(#p62f6f157f4)" style="fill:green;fill-opacity:.8"/></g><g id="PatchCollection_4"><path d="m180.016 564.39 4.337.643-.812 4.165-4.337-.643zM358.618 357.803l2.07-.13.284 3.448-2.07.13zM346.88 341.846l2.584 2.008-3.763 3.682-2.584-2.008zM361.37 343.772l1.744.019v1.577l-1.744.02z" clip-path="url(#p62f6f157f4)" style="fill:#90ee90;fill-opacity:.8"/><path d="m349.224 341.875 2.347.094-.193 2.272-1.81-.15-.043-.62-.387-.15zM581.64 378.63l1.807 3.848 2.741-.98-1.807-3.847zM370.984 270.824l.962 2.934 6.163-1.535-.962-2.935zM468.307 208.274l-.306 2.809 5.006.415.306-2.81zM628.399 146.064l4.85-1.705-1.193-2.585-4.85 1.704zM556.608 321.183l-.112 2.147 1.705.068.112-2.148zM265.758 224.933l4.344 2.008 1.553-2.556-4.345-2.008zM585.166 594.265l2.092 4.159-2.695 1.03-2.093-4.158z" clip-path="url(#p62f6f157f4)" style="fill:#90ee90;fill-opacity:.8"/></g><path id="PatchCollection_5" d="m379.391 268.343-1.247 1.087-1.026-.895 1.247-1.087z" clip-path="url(#p62f6f157f4)" style="fill:#006400;fill-opacity:.8"/><g id="PatchCollection_6"><path d="m175.21 554.721 1.732-.312.35 1.474-1.731.312zM176.186 560.307l.477-.27.266.38.068.282-.253.151-.296-.144zM368.586 354.036l.043 1.158-.955.027-.042-1.158zM574.134 320.307l-.517.062-.133-.844.518-.062zM529.352 526.638l-.132-.33.568-.173.132.33zM592.157 596.837l.643 1.338.573-.209-.642-1.338zM604.015 597.623l-.49-.309-.335.405.489.309zM567.741 318.177l.184.393 1.62-.577-.184-.393zM561.96 318.758l.236.222.316-.256-.825-.772-.564.457.589.551zM509.982 325.736l-1.003-.366-.261.544 1.003.366zM370.888 341.437l1.015.013.033-1.846-1.015-.013zM365.225 319.697l-1.723.327.36 1.443 1.724-.327zM381.32 313.459l.02-.55-.638-.018-.02.55zM377.448 267.636l-.412-.327-.583.558.412.327zM380.744 266.663l.821.575.33-.358-.82-.575zM264.352 214.973l-.03-.41.469-.026.03.41zM469.164 205.809l-.154 1.13.71.074.154-1.131zM626.681 139.241l1.098-.138-.097-.58-1.097.139zM377.118 268.535l1.026.895-.408.356-.963-.759z" clip-path="url(#p62f6f157f4)" style="fill:#a9a9a9;fill-opacity:.8"/><path d="m379.391 268.343-1.247 1.087-1.026-.895 1.247-1.087zM379.217 270.173l1.478-1.288.355.31-1.837 1.601-1.065-.93.358-.312z" clip-path="url(#p62f6f157f4)" style="fill:#a9a9a9;fill-opacity:.8"/><path d="m379.732 268.045.963.84-1.478 1.288-.963-.84zM175.21 554.721l.242 1.017-.572.103-.242-1.016zM620.21 138.997l-5.343.644-.107-.677 5.342-.644zM613.873 140.794l-.097-.706 5.598-.583.096.707zM455.046 207.397l.02-1.337 2.23.025-.02 1.337zM542.608 549.582l.008.297.286-.006.01.371-.286.006.006.234-8.44.174-.024-.903zM533.87 547.873l8.397-.186.009.31.327-.008.008.285-.327.007.008.272-8.397.186z" clip-path="url(#p62f6f157f4)" style="fill:#a9a9a9;fill-opacity:.8"/></g><g id="PathCollection_1"><defs><path id="m3ec3dc5acb" d="M0 3a3 3 0 1 0 0-6 3 3 0 0 0 0 6z" style="stroke:#a9a9a9;stroke-opacity:.8"/></defs><g clip-path="url(#p62f6f157f4)"><use xlink:href="#m3ec3dc5acb" x="349.785" y="353.888" style="fill:#a9a9a9;fill-opacity:.8;stroke:#a9a9a9;stroke-opacity:.8"/></g></g></g></g><defs><clipPath id="p62f6f157f4"><path d="M90 121.595h558v484.009H90z"/></clipPath></defs></svg>