<svg xmlns="http://www.w3.org/2000/svg" width="960" height="960" viewBox="0 0 720 720"><defs><style>*{stroke-linejoin:round;stroke-linecap:butt}</style></defs><g id="figure_1"><path id="patch_1" d="M0 720h720V0H0z" style="fill:#fff"/><g id="axes_1"><path id="patch_2" d="M96.85 640.8h544.3V86.4H96.85z" style="fill:#fff"/><g id="LineCollection_1"><path d="m392.68 139.099 5.74-8.436 1.763-3.203 1.147-2.928 1.045-3.217M390.035 306.006l-.622-.152-.623.142-.834.375-.66.43-.887 1.332M390.419 321.24l-1.25-3.2-1.409-4.206-.802-3.058-.55-2.643M377.5 166.946l-.345 1.565-.523 3.515-.214 3.518.02 4.2 8.252 108.261 1.177 15.83.542 4.298M403.3 354.7l5.513-1.77M403.3 354.7l-3.29 1.088M404.294 359.896l-.249-2.044-.336-1.66-.408-1.491M401.269 348.989l1.134 3.048.898 2.664M404.294 359.896l-.758.288M397.877 395.005l.773-2.043 1.01-4.26 4.193-19.276.49-3.15.13-3.857-.179-2.523M414.867 338.072l2.025.402M414.867 338.072l1.062-5.628M412.936 338.147l.867-.16 1.064.085M426.038 341.752l.01-.984M426.038 341.752l-1.153 6.311M426.038 341.752l-.961-.806M426.038 341.752l7.462 6.883M399.175 343.426l.282.79M399.175 343.426l-2.228-5.491M399.175 343.426l-5.48 2.137M399.175 343.426l5.303-2.04M623.48 398.497l-8.749 7.969M608.397 326.462l8.59 8.056 2.82 7.097-1.154 7.352.449 3.133 1.987 3.516 1.346 1.726.449 2.493.064 4.923.769 4.604 3.333 10.293.513 6.01-2.308 3.9-.192 2.046.962 2.812-2.545 4.074M331.977 356.874l2.66-.07M320.347 358.967l1.388-.42.826-.471 1.508-1.266.98-.415 2.048-.19 2.72.113 2.16.556M338.679 359.795l-4.009-1.912-2.693-1.009" clip-path="url(#p8a50565a4b)" style="fill:none;stroke:#000"/><path d="m315.274 352.342.216.589 1.795 2.046 1.346 2.046 1.716 1.944M309.174 362.343l3.104-.973 3.496-1.61 4.573-.793M306.959 363.037l-2.881.634M306.959 363.037l2.215-.694M306.762 366.728l.633-1.49-.436-2.2M342.323 361.403l-3.644-1.608M342.323 361.403l1.689.782M342.323 361.403l-.476-4.403M341.847 357l3.544-.645M334.637 356.804l.789-.021 6.42.217M396.947 337.935l.617-.25M396.947 337.935l-.546.23M396.947 337.935l-2.131-5.44M393.695 345.563l-2.108-5.51M393.695 345.563l1.99 5.633M393.695 345.563l-5.607 2.131M391.587 340.054l4.057-1.578M391.587 340.054l-5.527 2.083M391.587 340.054l-2.115-5.553M382.059 331.53l5.529-2.238M382.059 331.53l.618 1.702M365.392 334.97l1.78-1.155 2.035-1.007.432-.656.096-.863.834-.48 3.413.304 1.426.144.866-.383 1.859-.16 1.25.495.88-.127 1.027.495.769-.048M390.635 321.793l.961 2.463M390.635 321.793l-.216-.552M390.635 321.793l-.397.967.495 1.599M396.401 338.164l-.757.312M396.401 338.164l-2.249-5.399M395.644 338.476l-2.174-5.43M390.733 324.359l1.361 3.345M391.464 327.942l-1.321-3.296.59-.287M392.834 327.424l-.74.28M392.834 327.424l.556-.21M392.834 327.424l1.982 5.071M392.834 327.424l-1.238-3.168M392.094 327.704l2.058 5.061M392.094 327.704l-.63.238M391.464 327.942l2.006 5.104M391.464 327.942l-3.876 1.35M394.816 332.495l-.664.27M394.816 332.495l.619-.242M394.152 332.765l-.682.281M393.47 333.046l-3.998 1.455M389.472 334.501l-1.884-5.21M389.472 334.501l-5.556 2.145M374.862 340.278l-4.969 2.226M374.862 340.278l3.758-1.465M374.862 340.278l2.084 5.558M374.862 340.278l-1.38-3.525M369.893 342.504l.37 1.531M369.068 338.003l.255.46.57 4.041M376.946 345.836l3.689-1.53M376.946 345.836l-.56.206M376.946 345.836l2.042 5.48M378.988 351.316l2.06 5.483M378.988 351.316l-5.437 2.114M378.988 351.316l3.525-1.37M382.513 349.945l-1.878-5.638M382.513 349.945l2.009 5.359M382.513 349.945l5.575-2.25M380.635 344.307l5.425-2.17M380.635 344.307l-2.015-5.494M378.62 338.813l5.296-2.167M378.62 338.813l-1.477-3.537M377.143 335.276l-.983-2.885M377.143 335.276l5.534-2.044M377.143 335.276l-3.661 1.477M383.916 336.646l2.144 5.49M383.916 336.646l-1.239-3.414M386.06 342.137l2.028 5.557M388.088 347.694l1.94 5.446M373.551 353.43l-1.904-5.51M373.551 353.43l-5.576 2.169M381.049 356.8l-5.25 2.009-.478-.367-1.77-5.012M371.647 347.92l4.739-1.878M371.647 347.92l-5.478 2.224M371.647 347.92l-1.383-3.885M370.264 344.035l-5.929-1.856M370.264 344.035l6.122 2.007M369.068 338.003l4.414-1.25M369.068 338.003l-4.735.397M365.392 334.97l2.918 2.497.758.536M360.428 338.728l3.905-.328M360.428 338.728l-.22-8.24M360.428 338.728l-.327 2.188M357.503 340.082l1.15.402M364.335 342.179l-4.234-1.263M364.335 342.179l-.002-3.779M364.36 344.788l-.08-.929.055-1.68M366.169 350.144l-5.778 2.315M366.169 350.144l1.806 5.455M364.36 344.788l.625 2.372 1.184 2.984M367.975 355.599l-5.591 2.175M371.488 366.556l-1.431-5.58-2.082-5.377M364.36 344.788l-5.998 2.247M358.362 347.035l1.06 2.834M358.362 347.035l-1.22-.002M360.39 352.46l-4.62 1.91M360.39 352.46l1.994 5.314M360.39 352.46l-.968-2.591M362.384 357.774l1.12 2.467M362.384 357.774l-5.64 2.192M358.653 340.484l1.448.432M358.653 340.484l-1.512 6.55M355.77 354.37l.975 5.596M349.96 355.626l3.954-.485 1.856-.771M357.141 347.033l-1.326 6.265-.045 1.072M356.745 359.966l-8.7 3.384M359.248 365.444l-2.06-4.617-.443-.86M348.044 363.35l8.099 3.51M344.012 362.185l2.374 1.094.97.264.688-.193M344.012 362.185l-2.612 5.309M341.4 367.494l5.94 1.395M337.62 366.795l1.262.23 2.518.469M401.269 348.989l5.266-2.079M401.269 348.989l-3.04 1.206M401.269 348.989l-1.812-4.774M406.535 346.91l2.278 6.02M406.535 346.91l-.965-2.612M395.685 351.196l1.118 3.07M395.685 351.196l2.544-1M390.029 353.14l2.895-.913 2.76-1.03M399.394 361.76l-1.745-5.174M399.394 361.76l-5.467 2.08M399.394 361.76l4.142-1.576M397.649 356.586l-.846-2.32M397.649 356.586l.57-.203M397.649 356.586l-5.386 1.881M398.23 350.195l1.049 3.384M400.01 355.788l-1.79.595M400.01 355.788l-.731-2.209M390.029 353.14l2.234 5.327M390.029 353.14l-5.507 2.164M392.263 358.467l1.664 5.374M392.263 358.467l-5.541 2.107M384.522 355.304l2.2 5.27M384.522 355.304l-3.473 1.495M386.722 360.574l-3.387 1.336M381.049 356.8l2.286 5.11M385.325 367.114l-.431-.704-1.56-4.5" clip-path="url(#p8a50565a4b)" style="fill:none;stroke:#000"/><path d="m377.29 364.19.601-.245 5.444-2.035M429.233 356.783l-1.49 6.165M429.233 356.783l4.133 1.036M429.233 356.783l-1.432-.358M425.06 291.243l-.436 1.973M417.218 317.829l1.311-5.775M417.218 317.829l-1.456 6.507M415.41 318.21l1.203-.36.605-.021" clip-path="url(#p8a50565a4b)" style="fill:none;stroke:#000"/><path d="m418.959 318.208-.892-.238-.85-.141M418.959 318.208l1.406-5.761M418.959 318.208l2.274.427M415.762 324.336l.446-.574.574-.201.752-.553.63-1.642.795-3.158M390.035 306.006l2.07 5.006M390.035 306.006l-1.428-4.053M397.588 303.39l-6.894 2.471-.659.145M398.07 325.326l-3.7 1.517M398.07 325.326l6.155-2.603M398.07 325.326l1.875 5.095M398.07 325.326l-1.033-2.562M399.945 330.421l-3.608 1.447M399.945 330.421l5.73-2.44M399.945 330.421l2.241 5.419M402.186 335.84l5.749-2.243M402.186 335.84l-4.622 1.846M402.186 335.84l2.292 5.547M404.478 341.387l1.092 2.91M404.478 341.387l8.458-3.24M408.813 352.93l.856-.367M408.813 352.93l.6 1.51M409.413 354.44l-1.73 7.38M410.812 354.917l-.88-.3-.52-.178M410.812 354.917l.697-2.355" clip-path="url(#p8a50565a4b)" style="fill:none;stroke:#000"/><path d="m411.094 358.208-.798-.5v-.662l.516-2.13M399.457 344.215l6.113.083M405.57 344.298l5.823.116M413.12 344.635l-.956-.137-.771-.084M412.936 338.147l-1.022 4.714-.521 1.553M409.669 352.563l1.075-4.204.649-3.945M415.446 345.093l-1.77 7.837M415.446 345.093l1.446-6.62M415.446 345.093l4.803.993M415.446 345.093l-2.326-.458M420.25 346.086l1.57-6.62M420.25 346.086l-1.942 7.931M420.25 346.086l4.635 1.977M399.279 353.58l-1.69.468M396.803 354.265l.785-.217M398.22 356.383l-.632-2.335M397.564 337.686l-2.13-5.433M395.435 332.253l.902-.385M395.435 332.253l-2.045-5.04M393.39 327.214l.98-.37M393.39 327.214l-1.179-3.186M392.211 324.028l-.949-2.564-.843-.223M392.211 324.028l-.615.228M394.37 326.843l-1.338-3.024-.82.209M394.37 326.843l1.967 5.025M405.675 327.98l2.26 5.617M410.183 326.267l-.673.227-3.835 1.486M407.935 333.597l4.57-1.98M404.225 322.723l-.586-1.994M408.364 321.076l-2.513 1.022-1.626.625M400.909 314.924l1.694-.689M400.909 314.924l-2.048.743M399.822 308.407l.196 3.288.27 1.146.621 2.083M403.64 320.73l-.538-1.7-1.281-1.62-.912-2.486M397.037 322.764l-2.267-5.432M403.64 320.73l-3.04.713-3.563 1.321M415.41 318.21l-7.046 2.866M415.41 318.21l-1.657 6.85M413.753 325.06l-3.57 1.207M413.753 325.06l2.009-.724M413.753 325.06l-1.248 6.557M412.505 331.617l.65-.212M411.509 352.562l-1.124.027-.716-.026M412.936 338.147l1.106-5.81M414.379 331.006l-1.224.4M414.379 331.006l-.337 1.331M415.591 330.515l-.352.129-.86.362M415.762 324.336l-.864 4.913-.52 1.757M422.829 292.942l1.113-5.417M422.829 292.942l-1.732 7.807M422.829 292.942l-5.73-.927M424.624 293.216l-1-.153-.795-.121M407.735 309.576l5.093 1.257M407.735 309.576l-6.33-1.704M407.735 309.576l1.252-5.803M419.298 282.765l-.896 3.77M417.1 292.015l-5.422-.997M417.1 292.015l-2.93 12.908M417.1 292.015l1.302-5.48M412.828 310.833l1.342-5.91M412.828 310.833l5.701 1.22M424.624 293.216l-1.944 8.302M424.624 293.216l2.1.419M426.724 293.635l-1.781 8.05M426.724 293.635l5.167 1.03M424.943 301.684l-1.1 5.435M424.943 301.684l5.392.692M424.943 301.684l-2.263-.166M421.233 318.635l-2.226 10.1M421.233 318.635l1.291-5.737M421.233 318.635l4.998.284M419.007 328.735l-.809 4.2M424.707 326.328l-2.114.865-3.586 1.542M415.591 330.515l.529-.293.852-.806 2.035-.681M416.892 338.474l1.306-5.54M416.892 338.474l4.929.992M413.676 352.93l4.632 1.087M411.094 358.208l1.19.747 1.392-6.025M411.509 352.562l.481-.032 1.686.4M411.509 352.562l1.611-7.927M421.82 339.466l1.184-5.39M425.077 340.946l-1.27-.793-1.986-.687M424.707 326.328l1.524-7.41M424.707 326.328l-1.703 7.749M424.707 326.328l2.999-1.235M426.231 318.919l1.129-5.318M426.231 318.919l2.917.433M428.964 308.017l.433-.591.938-5.05M431.89 294.665l-1.308 5.465-.247 2.246M420.365 312.447l1.306-5.86M420.365 312.447l2.16.45M418.53 312.054l.817.175 1.018.218M422.524 312.898l1.32-5.78M422.524 312.898l4.836.703M428.964 308.017l-.516.656-.604 2.96-.484 1.968M432.955 314.298l-2.468-.383-3.127-.314M421.67 306.588l1.01-5.07M421.67 306.588l2.174.53M419.862 306.186l.794.176 1.015.226M423.844 307.119l5.12.898M436.022 309.592l-1.986-.486M421.097 300.749l-1.235 5.437M422.68 301.518l-.838-.47-.745-.3M415.93 332.444l.157-1.182-.496-.747M415.93 332.444l2.268.49M418.198 332.935l4.806 1.142M423.004 334.077l4.426.973M427.43 335.05l4.789 1.01M426.048 340.768l.368-.848 1.014-4.87M427.706 325.093l1.006 1.897.023.784-1.305 7.276M423.473 355.34l-1.587 6.23M423.473 355.34l4.328 1.085M423.473 355.34l-5.165-1.323M424.885 348.063l-.488 2.758-.924 4.519M420.432 367.917l-.57 2.399M420.432 367.917l.76-3.09M420.432 367.917l5.718 1.353M426.15 369.27l-.757 3.157M426.15 369.27l.735-3.109M425.393 372.427l-.668 2.807M419.862 370.316l.774.824 1.02.348 3.737.939M423.341 380.985l1.384-5.751M423.341 380.985l3.11.83M423.341 380.985l-1.432-.383M421.193 364.827l.693-3.257M421.193 364.827l5.692 1.334M426.885 366.161l.859-3.213M421.886 361.57l5.858 1.378M427.744 362.948l4.024 1.124M277.555 589.719l.514-.129M277.555 589.719l-6.294 2.573M269.915 602.649l1.86-4.347 4.967-7.065.813-1.518M460.829 376.65l9.51 17.248 1.76 3.535 3.31 1.826 4.74 1.03 6.947.538 1.402-.042 1.156-.356 4.536-2.94.956-.501 2.037-.519 3.76.168 11.359.983 3.895.14 8.496-1.147 10.863-2.341M614.731 406.466l-13.13 11.96-1.179.132-11.35-1.24-2.789-.762-11.931-7.134-6.34-5.479-6.964-6.284-11.781-5.572-1.385-.304-1.432.14-10.894 2.349" clip-path="url(#p8a50565a4b)" style="fill:none;stroke:#000"/><path d="m630.683 599.135-1.338.853-4.39 11.32-2.034 1.708-13.17-.107-3.747-1.282-7.601 1.87-7.013-.428-2.141-.587-5.728 4.058-4.764-.321-5.407 6.193-15.817-97.136 2.436-.175-3.782-23.303-2.724-1.055-17.907-106.471M315.274 352.342l.024-.85-.032-3.836-1.057-2.557-2.436-2.909-1.474-3.069-10.096-5.019-1.891-3.132M306.762 366.728l-1.71.412M301.618 377.223l1.31-.765 1.089-2.525 1.218-1.119.673-1.567 1.539-2.63-.108-.632-.577-1.257M301.618 377.223l-1.535-4.933" clip-path="url(#p8a50565a4b)" style="fill:none;stroke:#000"/><path d="m278.069 589.59-2.798-8.448-20.256-50.439-1.971-5.966-2.243-8.067-.408-4.407.951-1.694.069-2.305.971-.36 8.269 4.346 3.59-2.237 4.55-1.406 4.167-2.75 1.282-4.603 5.641-4.986 1.987.192 3.334-2.75-.193-3.324-.513-2.43 2.052-12.977.769-5.307 12.307-17.326 1.603-3.644.832-6.713 1.603-2.429 3.782-4.284 1.282-6.713-.641-7.032.962-8.887v-4.155l.769-4.731-4.359-11.764-1.42-2.735-.306-2.083-.763-2.056-.462-2.818-.89-5.08M356.143 366.86l4.457 1.934M356.143 366.86l3.105-1.416M360.6 368.794l-.303-.999-1.05-2.351M365.392 334.97l-1.062-.92M387.588 329.292l-2.421-6.08M345.298 298.73l2.916-7.336.512-2.493-.64-3.005.416-.512.128-.607-.16-.96.032-2.269" clip-path="url(#p8a50565a4b)" style="fill:none;stroke:#000"/><path d="m301.42 295.006 3.077 3.325 5.898 3.325 5.128 6.137 21.153-2.173 1.314-5.435 2.051-1.63 2.019.288 3.238-.113M360.208 330.488l-2.763-2.363-3.077-3.74-1.924-1.535-2.147-1.47-1.378-1.663-.385-4.123.129-2.845.032-4.892.224-1.182 1.186-3.612-.353-1.088-3.397-2.333-.61-.927-.447.015M444.365 354.402l.993-.32 2.371.56 1.731-.608 2.244-.4 2.516.671 4.711.576 1.65-.016 1.635.543 1.618.16 5.545.048M444.365 354.402l1.737-1.87M444.365 354.402l-2.052 2.365M440.926 319.644l2.057-.847 12.535-5.217 3.717-2.142 2.18-.608M438.676 285.976l2.483-3.117.961-1.47M438.676 285.976l5.48.096 3.381.415 2.26-.367 6.875-.096 1.145-.12.273-.001 2.876-.007 3.093-.224M555.963 279.918l-3.814-3.037-9.711-1.31-23.044 10.293-1.891-2.558-.834-7.511-5.929-1.919-2.884.512-1.987-.607-3.27-.48-3.525 1.47-5.673.192-1.859 1.407-1.282 2.27-2.82 4.794-5.417 2.91-17.964-.672M546.668 176.663l-2.05 2.94-.77 2.174-1.218 2.686 3.269 13.618-2.051 5.498-3.013 3.517-1.154 3.772-2.243 2.366-4.936 2.43-1.154 3.324-4.359 1.79-3.718-.83-28.268 16.11-12.114 12.532-17.66 33.694-1.17 3.388M431.89 294.665l.616-.947.544-3.155 1.25-3.932 4.376-.655M442.313 356.767l4.136 3.886M442.313 356.767l-4.477-4.132M442.313 356.767l-3.568 3.787M425.077 340.946l.97-.178M430.843 341.455l-2.007-.464-2.147-.415-.641.192M417.57 357.31l.738-3.293M418.468 375.595l-.865-1.31-3.686-9.143-2.823-6.934M419.13 373.395l.732-3.079M394.77 317.332l-2.665-6.32M394.77 317.332l4.09-1.665M432.955 314.298l1.514.187M432.955 314.298l1.08-5.192M428.964 308.017l5.072 1.089M414.042 332.337l-.43-.616-.457-.316M364.33 334.05l.003 4.35M360.208 330.488l3.614 3.09.508.473M338.679 359.795l-.758 1.333-.227 2.415.077 1.506-.15 1.746M336 383.194l.483-3.635-.031-5.786.769-5.754.4-1.224M336 383.194l4.586 1.434M330.106 402.103l.163-1.416 5.363-11.786.368-5.707M297.83 365.046l-1.106-3.49M297.83 365.046l1.11 3.567M297.83 365.046l-5.309 1.778M297.83 365.046l6.248-1.375M371.488 366.556l-5.36 2.186-1.185.388-1.239.278-.955-.03-1.805-.435-.344-.15M403.536 360.184l-.03 1.475-.408 3.226-.178.787-.28.457-.178.711-.23 1.118-.05.71-.23.61-.101.965-.272.334-12.712 5.32M385.325 367.114l.868 1.417.449 1.694 2.225 5.672M397.877 395.005l-1.203-1.573-1.955-1.438-1.667-2.27-.705-1.438-2.532-2.621-.396-.944.011-.942.77-2.238.16-1.534-.32-1.12-1.173-2.99M390.81 411.885l6.307-14.402.76-2.478M390.969 408.393l1.65-4.188.113-1.118M390.22 411.75l.59.135M390.969 408.393l-.69 1.774-.058 1.583M387.963 411.487l.506.167h1.33l.422.096M386.946 416.209l.401-.671.144-2.142.472-1.909M385.424 410.921l1.635.269.904.297M387.35 419.781l3.46-7.896M386.946 416.209l-.256.975.032 1.838.629.76M385.424 410.921l-1.106 3.53.417 1.15 1.138.464 1.073.144M385.424 410.921l-1.888-.31M382.287 407.235l1.25 3.376M383.536 410.611l-5.035-.828-.144-.447.93-1.694.096-.848 2.904.44" clip-path="url(#p8a50565a4b)" style="fill:none;stroke:#000"/><path d="m390.969 408.393-3.109-.56-2.468-.127-3.105-.471M385.325 367.114l8.602-3.273M378.12 366.32l-.83-2.13M376.338 361.748l.952 2.442M371.488 366.556l5.802-2.366M359.422 349.869l2.687-.8M349.96 355.626l-.562-6.806M345.39 356.355l2.824-.515 1.746-.214M345.39 356.355l-.858-4.71M334.637 356.804l.236-4.978M298.94 368.613l1.143 3.677M298.94 368.613l-5.351 1.823M298.94 368.613l6.112-1.473M281.598 374.34l-.679.367-2.113 1.93-.662.89-.178.609M199.373 322.33l3.077 4.26 3.461 4.348.625.695.577.623 1.483 1.239.665.352.72.327.762.296 20.425 6.504 9.573 3.259 9.98 3.657 8.81 3.225 3.667 1.117 1.503.56 3.92 1.828.79.178h.993l1.298-.051 5.48.64.724.453.214.607.801 3.58.28.886.586.936.64.707.995.604 3.108 1.201.488.236M289.997 367.45l-.264-.075-2.932-1.917-1.783-.86M283.95 367.575l.076-.46.992-2.518M293.589 370.436l-2.027.69-4.812 1.067-1.4.407-2.597 1.117-1.155.623M283.95 367.575l-.077.479-2.275 6.286M289.997 367.45l-1.337.121-4.71.004M292.521 366.824l-1.633.547-.891.078M303.453 371.838l-3.37.452M305.052 367.14l-.974-3.469M304.078 363.671l-.446-3.77M303.632 359.902l5.086-1.223M303.632 359.902l-6.908 1.654M308.718 358.679l.159.791.297 2.873M308.718 358.679l-.453-2.256v-.432l.102-.406 2.546-2.337 2.037-1.955.179-.077.229.153 1.171 1.092.433.076.312-.195M295.601 358.939l.978 2.156.145.461M293.589 370.436l-1.068-3.612M291.435 363.153l1.086 3.67M295.601 358.939l-4.446.353M301.42 295.006l-3.333.895-5.64 15.856v9.462l1.923 9.974-4.23 14.833 2.364 5.013.943 3.2.61 1.549.968 1.88.576 1.27M408.364 321.076l1.82 5.19M411.678 291.018l-9.63-1.772-.344.027-.266.185-.265.61-.027.82-1.85 9.085-.203 1.365-.178 1.282-.328.393-.999.378M399.732 307.036l-.065-.608-.313-1.918-.416-.665-.692-.396-.658-.058M396.594 309.492l-3.678 1.094-.81.426M399.822 308.407l1.582-.535M399.822 308.407l-3.228 1.085M399.822 308.407l-.09-1.371M399.732 307.036l.448.439 1.224.397M398.86 315.667l-2.266-6.175M408.987 303.773l5.183 1.15M408.987 303.773l2.691-12.755M414.17 304.923l5.692 1.263M419.862 306.186l-1.333 5.868M412.822 285.596l-1.144 5.422M418.402 286.535l5.54.99M417.186 153.326l-.064 1.534.512 2.046 1.026 3.39 1.218 2.556-.384 1.663-.129 4.603 2.756 3.517 2.5 4.411-.64 2.878 1.922 3.452-.384 5.69 5.833-.96.641 1.088 2.82 16.623.767 5.13 1.477 9.256.176 2.56-.048 3.45-1.09 7.864-2.948 11.508-7.052 32.607-.994 3.691-1.16 5.642M434.667 318.877l-.198-4.392M429.148 319.352l1.618.24 1.023-.15 2.878-.565M435.485 321.887l-.734-2.537-.084-.473M440.926 319.644l-5.44 2.243M434.47 314.485l2.02.043 2.68-.232.279.092.115.531.51 2.1.852 2.625M435.485 321.887l-5.642 2.325M435.052 336.729l1.805-8.609.023-.808-1.395-5.425M446.102 352.531l2.116-2.278.394-.623-.44-.554-13.12-12.347M432.219 336.06l2.523.533.31.136M429.843 324.212l-.992-1.723-.162-.739.459-2.398M429.843 324.212l-2.137.88M446.102 352.531l-4.378-4.044M430.843 341.455l1.376-5.394M437.438 344.527l-2.235-2.064-4.36-1.008M438.745 360.554l-.963-.93-.67-.462-3.746-1.343M431.768 364.072l.623-2.717.975-3.536M434.475 356.273l-.65.858-.46.688M437.438 344.527l4.286 3.96M437.438 344.527l-3.938 4.108M429.65 352.075l-.267-.044-.393.161-.348.554-.84 3.679M433.5 348.635l4.336 4M429.65 352.075l.288.048.44-.23 3.122-3.258M441.724 348.487l-3.888 4.148M434.475 356.273l.207-.273 3.154-3.365" clip-path="url(#p8a50565a4b)" style="fill:none;stroke:#000"/><path d="m434.475 356.273-.88-.62-3.946-3.578M438.745 360.554l-1.362 5.087M442.85 364.54l-.74-.74-3.365-3.246M436.88 367.516l.503-1.875M446.449 360.653l-3.6 3.886M460.829 376.65l-2.09-3.788-1.41-1.987-10.88-10.222" clip-path="url(#p8a50565a4b)" style="fill:none;stroke:#000"/><path d="m460.829 376.65-1.134-.94-9.765-5.355-1.55-1.2-2.568-2.308-2.963-2.308M437.383 365.64l-5.615-1.568M427.864 376.103l1.079.299 2.825-12.33M423.529 374.902l1.196.332M424.725 375.234l3.139.869M428.388 382.333l-1.937-.517M427.864 376.103l-1.413 5.713M269.915 602.649l-.609 2.685.033 1.758.32 1.343.866.895 3.46 5.625 1.09 3.005 2.949 6.17" clip-path="url(#p8a50565a4b)" style="fill:none;stroke:#000"/><path d="m220.814 595.92 2.26 3.149.625.879.449 1.103.513 3.22.184.367.192.216.645.688.164.248.08.287.105 2.094-.028.395-.653 3.017-.04.271v.28l.328 1.107.292 1.187.573 3.356.056.28.024.32-.12.347-.637 1.21-.075.197-.065.288.289 5.43-.353 2.589.16 1.023 1.154.67 7.083-1.47 6.73-.447 2.244.447h4.167l3.686-.607 3.14-.032 2.853-.831 8.974-2.078 3.59-.383 2.916.543h4.327l1.025-.543.353-.608M257.208 594.77l-13.555 2.568-1.493.164-1.186-.191-1.89-.992-3.733-.944-5.85-.302-2.277.415-2.868.144-3.542.288" clip-path="url(#p8a50565a4b)" style="fill:none;stroke:#000"/><path d="m135.978 618.4 2.788-.488 2.116-.52 2.075-.463.537-.192.592-.28 3.422-2.133 4.11-2.39 2.981-1.382 3.718-1.566 6.186-2.246.384-.056h.392l1.988.04.408-.072.425-.096 1.402-.855.625-.351 1.315-.624 1.009-.383 4.775-2.022 2.292-1.079 1.09-.583.6-.328.425-.191.577-.216 2.892-.92 2.941-1.15 2.95-1.143.488-.215.409-.137.44-.104 4.763-.938 1.134-.124 10.897-.815.513-.032.465.016 5.56.56.45.087.428.108 1.75.69.285.073.39.034 1.85.006M259.563 609.457l.93-1.886 1.41-3.612 1.474-2.381M269.915 602.649l-5.448-1.311-1.09.24M260.504 596.427l-.075.5v2.813l.865 1.406.993.672 1.09-.24M260.504 596.427l-3.296-1.657M260.504 596.427l.349-2.31M271.261 592.292l-1.09 1.183-4.839 3.74-4.828-.788M260.853 594.118l-.52.06-3.125.592M271.261 592.292l-6.25 1.342-4.158.484M135.51 618.487l.468-.087M107.317 569.085l1.57 2.837 1.563 2.637.697 1.135.577.887 1.787 2.517.184.408.208.76.073.854.592 8.918.129 4.188.095.735.153.472.136.367.209.376 1.514 1.87 2.972 3.604 1.194 1.566.176.472.121.615.016.423-.016.592-.585 1.798-.048.336.048.295.24.248.457.248.946.256 3.46 1.158 2.044.943.425.296.408.503.64 1.074 1.324 2.106.472.552.457.256.28.208 2.204 1.614 1.47 1.278M151.17 183.376l-.385 5.115 1.282 5.626-2.051 13.299-3.975 8.056h-3.46l-1.027 8.822-7.179 15.473v6.01l-1.667 4.603 1.155 11.764 10.127.128 14.23 6.394 3.206 7.8 2.82 1.917 4.103 4.092 2.563-1.022 3.077 2.045 5.384 1.279 6.154 5.115.77 3.708 2.435 10.741 8.077 8.056 3.717 8.31-1.153 1.624M392.68 139.099l6.622 3.422 3.14.895 3.142 3.26 1.923-.063 2.243 1.47 4.23-1.087 2.116 1.279 1.09 2.43v2.62M476.863 97.062l-6.602 8.056-5.77 4.092 2.693 10.741-2.82 1.343-4.103 6.649-4.872 6.777-1.923 4.924-8.589 7.097-3.14-1.215-9.039.127-5.448 3.133-2.372 2.878-5.513.959-2.18.703M160.945 132.914l-2.404 2.765-.384 2.558.384 2.557-.32 7.225-1.539 21.355-2.371 4.86-1.026 5.498-2.116 3.644" clip-path="url(#p8a50565a4b)" style="fill:none;stroke:#000"/><path d="m160.945 132.914-9.262-.815-3.077.383-6.41 3.261-4.295 3.645-4.808 1.598-5.256 2.622-4.487.639.256 1.279-.64 2.557.64 3.709 9.872 8.31 2.692 1.28v3.452l12.307 14.194.256 2.813 2.436 1.535M301.42 295.006l-1.153-9.973-4.744-3.069-4.359-5.37-2.82-8.312.64-8.695-2.82-4.22-2.179-12.148 1.924-9.334-1.026-17.518.897-9.974-4.743-17.135-9.038-19.18M233.795 178.165h1.955l1.025.16 1.571 1.023 2.34.831h2.467l1.41-.8 1.283-.735.8-.064 1.796 1.088 1.185.32 2.372-.097 2.692-.862 1.795-.832 7.628-5.499 4.744-1.79 3.14-.83M285.652 166.081l-1.474-.096-1.795.192-10.384 3.9M377.5 166.946l-1.307-1.024-.705-.288-3.429.032-2.82.32-4.295.223-3.109-.224-1.506-.639-.77-.032-1.25.447-4.646 2.91-2.084 1.598-1.154 1.95-.801 1.055-4.743 3.325-2.949 1.214-5.769 3.58-2.115.64-.994-.16-1.186-.67-7.243-2.398-6.218-1.375-8.172-2.238-7.34-2.973-2.98-2.142-1.155-.735-1.185-.288-7.95-1.246-2.435-.608-1.057-.48-.481-.639M377.5 166.946l.299-1.352 1.055-3.317 1.24-3.237 1.37-2.98 1.476-2.645 9.74-14.316" clip-path="url(#p8a50565a4b)" style="fill:none;stroke:#000"/><path d="m233.795 178.165-3.205-.48-5.705-1.15-8.205-5.626-2.82-.96-4.039-.063-1.666-1.535-9.102-19.948-3.141-3.133-6.86-5.499-1.73-2.877-2.628-2.237-4.872-1.407-3.205.128-15.672-.464M232.032 201.47l.801-14.706.129-2.461.64-3.133v-2.333l.193-.672M614.731 406.466l-4.571-2.42-2.276-1.023-1.025-.895-.321-1.055-.128-3.677-1.058-1.79" clip-path="url(#p8a50565a4b)" style="fill:none;stroke:#000"/></g><g id="PatchCollection_1"><path d="m478.882 376.81-.56-1.359.208-1.39 1.41-2.701.721-.32.4.767.337 1.774.192 1.215-.4 1.582-1.442.768zM449.556 286.423l.273 1.375.24 2.062-.176 2.03-.818 1.774-1.105 1.662-.433 1.55.192 1.711.465.831.401.256-.369 1.758.657.32.946-.623.977.287.144.959.481 1.758.962 1.47 2.324.544L458 307.25l.064.464-.816.895.304 1.566 1.234.64h.945l2.292-1.791h1.01l.977.608 4.711-1.918 1.026.72 1.939.414-.77-1.518 1.716-.112 1.282.688.945 1.71.176 1.918-.64.703-.642-.128-.56-.767-.577.527.016.783.656 1.343.93.383.866 1.183.208 2.11.88.847.305 1.615 1.314 1.358 1.41 1.439 1.732-.176 1.361.495.738-1.022 2.98-1.79.785.191 1.139 2.11.88.176 1.203-.224 1.266-.927 1.09.096 1.987-1.982 1.906-1.31.465-1.423-.192-1.95.545-.767-1.17.64-.369 1.757.321.607-.625 1.231-.994.592-1.17-.033-1.153 1.103-2.02 1.072-1.25-.033.177-.607.48-.863-.496-1.167-1.186-.351-1.186.095-2.548 1.295-2.853-.048-1.217.99-.754.017-.592-.863.16-2.733.352-.352.641.064.802-1.454-.289-1.055.625-.895.065-.64-.85-.335-.865.527-.465-.208-1.378-2.253-.497-1.39-.016-.832-.369-.144-.384-1.535-1.234-1.214-1.715-.24-4.615.192-.4-.24-2.308-.48-1.86-1.166-1.057-1.79-.897-2.51-1.667-3.277-.785-2.253-1.442-3.053.272-.927-.85-2.765.538-.823-1.29.16z" clip-path="url(#p8a50565a4b)" style="fill:#00f;fill-opacity:.8"/></g><g id="PatchCollection_2"><path d="m396.898 353.906-.865-2.477.112-.24 1.81-.688.21.144.832 2.718zM399.753 343.478l.134.46 5.21.049-.753-2.29zM415.67 318.532l1.155-.448-1.346 5.946-1.283.48z" clip-path="url(#p8a50565a4b)" style="fill:green;fill-opacity:.8"/></g><path id="PatchCollection_3" d="m405.382 326.755-1.223-2.988 4.56-1.857 1.222 2.988z" clip-path="url(#p8a50565a4b)" style="fill:#90ee90;fill-opacity:.8"/><g id="PatchCollection_4"><path d="m469.94 357.51.005-.521.24.002-.004.52zM468.915 354.985l.336.003-.004.452-.337-.003zM290.609 260.288l.194.87.983-.218-.194-.87zM387.529 323.419l1.574-.603.498 1.296-1.574.602zM230.048 269.463l.845-.021-.026-1.043-.845.021zM433.493 321.644l.854-.188-.264-1.19-.854.188zM416.383 324.909l-.41-.081.164-.83.41.082z" clip-path="url(#p8a50565a4b)" style="fill:#a9a9a9;fill-opacity:.8"/></g></g></g><defs><clipPath id="p8a50565a4b"><path d="M96.85 86.4h544.3v554.4H96.85z"/></clipPath></defs></svg>