<svg xmlns="http://www.w3.org/2000/svg" xmlns:xlink="http://www.w3.org/1999/xlink" width="960" height="960" viewBox="0 0 720 720"><defs><style>*{stroke-linejoin:round;stroke-linecap:butt}</style></defs><g id="figure_1"><path id="patch_1" d="M0 720h720V0H0z" style="fill:#fff"/><g id="axes_1"><path id="patch_2" d="M90 601.379h558V125.821H90z" style="fill:#fff"/><g id="LineCollection_1"><path d="m569.764 160.59-.064-.627-.374-1.136-.64-2.012-.12-.543M573.025 156.324l-.904-.062-.664-.038-.536.038-.551-.013-.593.013-1.21.01M560.188 165.797l.972.033M560.188 165.797l-3.308-.516M557.163 166.442l.712-.245.714-.245 1.599-.155M497.284 164.748l-1.641.187-1.05.476-1.947 1.235-1.327.875-1.647.494-2.033.248-1.563.095-5.8-.932-3.873-.818-4.045-.604-2.541.276-2.203.903-1.61 1.405-1.044 1.731-.34 1.606-.31 2.86.214 1.984 1.198 1.578 1.355.603 2.909.652 3.558.953 2.513 1.556 2.033 1.806 1.214 2.082.904 1.63v1.807l-1.458 1.84" clip-path="url(#pacf088cbbc)" style="fill:none;stroke:#000"/><path d="m444.527 203.945 14.803-7.848 3.476-1.72 2.64-1.092 1.186-.364 1.51-.401 2.542-.264 1.587-.155 3.82-.384.51-.085 2.149-.357M491.81 168.342l-.823.759-1.012 1.48-.499 1.18-.389 1.617-2.912 10.296-1.301 2.586-.918 1.33-.877.991-1.043.865-.887.616-.92.589-1.48.624M448.05 240.94l-4.497-4.012-1.56-.816-5.252-1.38-1.405-.815-1.645-1.73-3.254-3.563-3.675-5.43" clip-path="url(#pacf088cbbc)" style="fill:none;stroke:#000"/><path d="m426.272 187.518-.055 11.032.47 6.271 1.229 7.746-.368 5.865-.199 2.588-.021 1.102-.162.453-.404.62" clip-path="url(#pacf088cbbc)" style="fill:none;stroke:#000"/><path d="m411.799 223.365 10.263.304 2.609-.118 2.091-.357M432.334 218.831l-.576.857-.706.815-1.355 1.204-1.327.803-1.608.684" clip-path="url(#pacf088cbbc)" style="fill:none;stroke:#000"/><path d="m406.259 211.924 2.796 2.346.62 1.016 1.158 2.27.975 2.157.056.991-.065 2.661M396.703 223.304l2.343.019 4.142-.035 8.61.077M380.177 227.374l2.786-2.45 1.293-.69.768-.298 1.491-.439 1.977-.308 1.733-.068 6.478.183" clip-path="url(#pacf088cbbc)" style="fill:none;stroke:#000"/><path d="m397.144 219.054-.032 1.042-.08 1.04-.138 1.087-.19 1.081M380.177 227.374l-3.237 3.055M385.115 232.5l-2.499-2.27-2.44-2.856M374.752 232.406l2.188-1.977M364.672 232.425l1.334-.358 1.052-.401 1.454-.163 2.118-.05 1.144-.026 1.186.139 1.313.501.479.339" clip-path="url(#pacf088cbbc)" style="fill:none;stroke:#000"/><path d="m381.388 275.15-.254-1.318-.332-1.047-.699-1.574-1.235-2.132-1.377-2.132-1.37-2.132-.776-1.424-.452-1.687-.078-1.003.015-1.078.162-1.459.89-4.125.08-.447.202-1.288.014-1.505-.064-.872-.31-1.417-.43-1.304-.368-.809-.593-1.022-.904-1.33-.86-1.154-.58-.865-.416-.721-.269-.878-.14-.853-.107-1.273.262-1.323.395-1.098.833-1.405 2.125-2.07M379.462 323.488l2.653 3.218M374.549 325.819l.366-.08 1.539-.526 1.144-.54 1.037-.601.827-.584M380.743 282.751l-2.378 12.899-.154 1.829.07 1.323.473 1.931 1.66 4.057.811 1.988.516 1.944.204 1.354.05.47-.07 1.468-.234 7.236-.239 1.31-.395 1.066-.603.895-.992.967M358.168 364.623l.234-1.282-.395-1.204-.72-1.128-1.882-1.825M355.82 354.641l-.05.537-.198 3.047-.064.667-.103.292M354.074 360.319l.693-.383.638-.752M302.837 386.182l1.44-.634.687-.43 1.94-2.297 1.446-1.442 1.194-.646 1.058-.514M330.602 364.432l-1.15 2.276-.423 1.266-.38 1.824-.087 1.038-.544 1.082-.988 1.292-2.458 2.717-2.484 2.01-1.426.872-1.285.495-1.941.175-2.916-.213-2.026.276-1.892.677M325.018 398.874l-5.755-5.765-1.042-1.589-.636-1.14-.501-1.92-.822-1.034-5.66-7.207M299.793 389.062l-7.32 15.59-.422.652-.335.492M298.293 420.667l-.56-4.053-.861-2.038-5.156-8.78M250.787 429.02l1.878-.295 2.379-.394 2.514-.333 1.496-.363 3.873-1.455.821-.395.607-.332.544-.501.513-.811.38-1.263.194-.974.283-.69.593-.883.79-.577 1.342-.677 9.622-4.959 2.372-1.11 6.738-3.332 1.59-1.158 1.385-1.389.41-.412.605-.92M298.996 424.135l-.703-3.468M303.168 458.804l.252-1.478.227-1.266.078-1.779.083-2.437-.053-5.283-.17-.784-4.42-10.958-.6-2.157-.183-.827.614-7.7" clip-path="url(#pacf088cbbc)" style="fill:none;stroke:#000"/><path d="m305.4 420.294-2.104 1.19-1.953 1.262-.86.51-1.487.88M301.087 495.67l-1.78-5.02-.795-3.224M335.303 488.549l-1.863-.903-.989-.677-.817-1.049-1.145-2.123-.925-.922-1.532-.639-2.188-.2-4.935.834-2.093-.18-2.33-.747-.98-.067-2.606.554-3.31 1.76-.974.667-.714.567-.714.413-1.018.319-3.131.5-.766.133-3.013.52-.748.117M303.168 458.804l-2.738 10.413-.53 1.843-1.08 3.165-2.167 4.219-.452 1.015-.064 1.38 2.375 6.587M599.625 559.811l-13.187.32M599.625 559.811l15.311-.223M599.625 559.811l4.405-14.61M611.022 576.097l-.196-2.656-.455-1.087-.872-.998-1.551-1.072-1.907-.909-4.403-2.007-1.483-1-.77-1.11-.424-1.229.028-1.78.636-2.438M534.946 529.976l.776-.207 1.708-1.492.862-.564 3.082-.903 1.276-.159 1.12.142.832.486.388.485 1.802 5.32.451.608.621.603.834.438 1.284.25 16.618-1.491 1.356.088 4.376.912 2.102.353 1.525.025 1.476-.227 1.328-.446 4.752-2.961.875-.07.748.232.678.86-.028.996-.466.959-.515.495-.79.69-2.239 1.303-3.325 3.021-.31.62.204.841.544.652.819.357 2.047.432.671.383.402.595.205.834-.233.833-.508.577-.798.552-3.608 1.128-3.847.871-.65.533-.402.921-.106 1.342.353.77.904.721 2.047.746 2.132.702 1.25.727 3.668 3.382.89.602.558.303 1.753.985M581.68 562.521l1.22-.748 1.981-1.022 1.557-.62M611.022 576.097l-3.688-.034M598.797 579.314l-.074-.433-.074-.75.165-1.1.352-.442.445-.363.819-.195 3.317.12 3.587-.088" clip-path="url(#pacf088cbbc)" style="fill:none;stroke:#000"/><path d="m598.968 574.226.028-.953 7.625-.156.31.082.19.188.213 2.676M598.797 579.314l-6.159.183M602.725 579.986l-1.2-.202-1.428-.289-1.3-.18M614.756 573.043l13.614-.068M628.393 569.878l-.024 3.097M628.393 569.878l-.051-1.776M628.56 559.703l-.218 8.399M628.56 559.703v-.336M628.56 559.703h-8.48M628.402 574.198l-.033-1.223M349.733 376.573l2.749-2.767.969-1.324M358.168 364.623l-.395.513-.718.714-2.859 2.992-.522 1.06-.15 1.124-.073 1.456" clip-path="url(#pacf088cbbc)" style="fill:none;stroke:#000"/><path d="m362.126 379.867-1.962-1.549-6.713-5.836M325.018 398.874l-1.582 1.247M325.018 398.874l1.585-1.179M383.477 380.646l-3.028-1.311M383.477 380.646l-4.052 16.363M399.672 504.39l.748-1.298.749-.941 1.002-.213 3.025-.05.49-.185.254-.295.763-7.255 2.513-9.428.17-1.454-.261-3.204.035-9.259.501-1.849-.304-1.51-.24-5.705.156-.408 2.428-2.388.83-1.156 1.401-.524 10.547-9.14.296-1.292.367-.576.833-.288 1.596.012 1.045-.2.536-.603 2.697-4.2.452-.438 3.149-.822 2.202-1.886 1.503-.853 1.462-.239 1.158-.062 1.023.126 4.596 1.397 1.469.301 1.976.207 1.278.301 1.348.12.55-.34.128-.557-.134-.339-1.433-1.354-.1-.244-.14-.872-.332-.79-1.616-2.859-.198-1.253.254-2.22-.452-1.905-.621-1.204-.855-.558-2.986-.903-.89-.539-1.136-1.385-1.285-2.445-.783-1.762-.643-.865-1.256-1.417-3.318-2.288-.904-.878-.346-.827-.219-1.618-.41-.827-.952-1.474-.664-.777-.374-.232-1.743-.753-1.123-1.391-.621-.245-2.647.075-1.271-.388-.876-.395-.536-.07-1.934.094-1.843-.426-.734.12-.402.357-.276 1.04-.17 1.198-.268.32-.36.15-.571-.125-.621-.326-1.603-2.52-.254-.847v-.921l-.134-.634-.509-.282-2.823-.67-2.464-.189-.558-.263-1.447-1.235-.763-.333-1.298-.231-.636-.39-.847-1.159-.614-1.95-1.278-2.921-1.73-1.744-3.247-2.344-5.895-3.335-6.777-3.022M366.061 372.482l-1.553 2.52M368.518 373.755l-.755-.194-.833-.414-.869-.665M358.854 366.388l.254.558.078.796.07.69.177.62.31.446.382.276.712.32.763.138 1.285.163.79.138.53.294.706.558.572.558.296.326.282.213M359.989 382.744l.769-.45.366-.327.156-.268.846-1.832M364.508 375.002l-1.552 3.024-.83 1.84M368.172 387.304l-3.84-4.207-.452-.859-.176-.64-.22-.376-.253-.37-1.105-.985" clip-path="url(#pacf088cbbc)" style="fill:none;stroke:#000"/><path d="m368.172 387.304-1.085.815-.879.53-.622.327-5.597-6.232M353.411 380.222l.307-.235.577-.486.89-.95.429-.294.486.382 3.889 4.105M349.733 376.573l-3.725 3.794M353.411 380.222l-.413-.288-.328-.279-2.937-3.082M368.172 387.304l6.862 7.536M346.008 380.367l4.854 5.459M338.096 387.76l4.295-3.88 3.015-2.95.602-.563M350.862 385.826l.457.344.878.463.784.69.53.633.317.758.335 1.49M350.862 385.826l-.984 3.683M364.508 375.002l-4.76-3.647-.822-.884-.13-.262-.244-1.28.05-.868.252-1.673M358.289 364.905l.332.777.233.706M364.508 375.002l2.737 1.318M369.848 372.287l-.121.142-.557.532-.47.437-.182.357M374.808 376.595l-3.706-1.812-1.715-.683-.869-.345M369.848 372.287l.107-.209.095-1.091.043-.943.219-.574.846-1.659M372.823 373.844l-.656-.375-.637-.423-.669-.389-1.013-.37M358.168 364.623l.12.282M352.028 365.853l1.584-2.737.257-.95.021-.817.184-1.03M345.681 355.864l.377.47.363.628.721.802.487.574 1.109 1.116.818.489.954.275 1.623.132 1.941-.031M307.164 419.453l-1.765.84M307.164 419.453l11.781 6.68M310.405 417.898l-1.504.765-1.737.79M312.227 415.613l-8.376-1.009M312.227 415.613l10.559 5.572M310.405 417.898l.14-.08 1.006-.932.676-1.273M314.006 411.668l-.192.517-1.38 2.858-.207.57M301.964 418.52l3.435 1.774M310.405 417.898l3.62 1.752M318.81 397.828l-3.99 4.155M314.82 401.983l3.463 2.827M314.82 401.983l-1.43-1.205M315.598 408.847l1.29-1.971 1.395-2.066M323.436 400.12l-.45.321-2.239 1.66-1.354 1.287-1.11 1.422M325.027 389.356l5.829 4.8M330.856 394.157l-1.537 1.318M330.856 394.157l3.585-3.119M329.32 395.475l-2.717 2.22M329.32 395.475l3.573 4.052M336.633 389.082l-1.9 1.68-.292.276M329.573 387.325l1.085.154.835.598.904.878 2.044 2.083M332.171 384.266l4.462 4.816M336.633 389.082l1.463-1.323M363.457 353.591l-3.016.593-.839.367-.812.27-.776.018-2.195-.198M356.627 348.83l-.135.457-.359 2.205-.166 1.485-.148 1.664" clip-path="url(#pacf088cbbc)" style="fill:none;stroke:#000"/><path d="m370.036 346.701-.242.038-8.817 1.449-4.35.642" clip-path="url(#pacf088cbbc)" style="fill:none;stroke:#000"/><path d="m357.087 346.663-.03.134-.43 2.033M357.76 343.745l8.21-.2M357.087 346.663l.597-2.634.077-.284M365.752 328.925l-.42.918-.752 1.276-.74.86-3.171 2.877-.833 1.117-.534 1.113-1.541 6.659M369.347 343.462l-3.378.083M365.97 343.545l-.787-4.296.197-.328.295-.109 2.628-.016 1.044 4.666M369.347 343.462l.689 3.24M370.036 346.701l3.424-.639M370.036 346.701l.227 3.116M370.615 352.45l.826 4.311M370.615 352.45l-.352-2.633M363.457 353.591l5.4-.877 1.758-.264M376.706 355.923l-.879-4.135-5.212.662M371.625 357.88l-.184-1.119M370.263 349.817l-3.433.53-1.45.283M376.706 355.923l2.833-.468M376.706 355.923l-5.265.838M373.46 346.062l.457 4.13M414.697 332.814l-.426-.228-.445-.006-.444.277-1.296 1.741-.847.904-1.042 1.173-.487.827-.165 1.56.031.516-.36.526-.565.239-.826.1-1.16.075-1.501.189-1.25.062-2.389-.1-4.282-.508-2.005-.057-3.607.333-3.29.307-1.143.213-.921.564-1.412 1.404-1.243 1.28-1.609.664-1.547.208-2.503.245-3.028.522-1.475.218M375.895 377.14l5.694-12.622M375.895 377.14l1.433.747M375.895 377.14l-1.087-.545M600.119 544.336l-1.99-.477-.474-.282-.31-.557.006-1.066.103-6.49M600.119 544.336l-.745 5.15M600.119 544.336l3.91.864M604.03 545.2l2.59-8.593M579.756 563.8l1.263-.793.66-.486M586.724 563.97l-3.955-.028-.507-.273-.583-1.148M566.586 567.62l1.666-.326 3.982-1.021 3.417-.602 1.108-.307 1.045-.426 1.952-1.138M581.083 567.505l-.487-.746-.84-2.959M583.462 568.96l-.931-.602-1.448-.853" clip-path="url(#pacf088cbbc)" style="fill:none;stroke:#000"/><path d="m583.462 568.96-.102-1.471-2.277.016" clip-path="url(#pacf088cbbc)" style="fill:none;stroke:#000"/><path d="m583.378 573.635-.057-2.582.141-1.605v-.489M561.16 165.83l3.549-.041 1.355-.22 1.071-.43.772-.504.62-.608.75-1.035M569.764 160.59l.05.709-.255 1.005-.282.688" clip-path="url(#pacf088cbbc)" style="fill:none;stroke:#000"/><path d="m566.833 167.337.089-.294.663-.612 1.757-2.23.064-.652-.129-.557M497.284 164.748l2.19-.81M493.449 166.988l1.605-1.086 2.23-1.154M557.163 166.442l-.283-1.161M555.725 167.114l.238-.108 1.2-.564M344.865 182.884l2.118 1.255 3.953 2.358 1.75 1.33.535 1.125.395 1.63-.057 2.233-.223 1.358-.819 2.76.139 1.602.65 1.831.99 1.634 1.07 1.502.94 1.021 1.299.904 2.09 1.655.338 1.255.368 2.47-.071 1.581-.24 1.066-.466.966-.296 1.016.155 1.304.508 1.104.734 1.116.763.64.24.954.042 1.003-.367.752-.748.628-1.525.74-.706.501-.212.577.042.866.509.966.875.765.946.752 1.751 1.756 1.581 1.744.756.82M363.123 232.88l1.04-.286.509-.17M374.549 325.819l-4.823.899-1.84.488-.835.39-.523.376-.776.953M363.33 326.718l.452.426.833.715 1.137 1.066M155.484 479.95l1.444-.922 1.421-1.058.516-.232.921-.205 1.206-.116 2.295-.668 2.263-.89 4.401-1.926 4.595-1.57 1.674-.783.374-.3 1.069-1.653.558-1.095.805-1.048.374-.658.474-.29M185 462.71l-.967.426-.763.407-.642.659-.775 1.087-.885.8-1.094.447" clip-path="url(#pacf088cbbc)" style="fill:none;stroke:#000"/><path d="m176.794 466.15.2-.013.52.033.375.025.248.042 1.737.299M117.857 362.463l.198 1.192.395 2.344.31 1.317.382 1.179.325 1.38.254 2.282.296 2.357.381 3.623.156 1.042.282.927.537.84 1.073.904 1.341 1.09 1.906 1.204 1.045.526 1.2.703.946.752.494.727.31 1.104.27 1.216-.142 5.216-.085 1.016-.678 2.056-.133.993.113 1.404 1.525 1.455 1.779 2.483 1.468 1.68 1.327 2.407 1.44.527 1.582.577.847.627.339 1.48-.734 1.805-1.215 3.393.226 3.461-1.525 2.909-4.54 6.145-4.545 4.533-2.609 2.151-1.452 4.897-1.65 1.08-2.31 1.598M154.562 468.712l-.016 1.57.34 3.507.064.656.534 5.505" clip-path="url(#pacf088cbbc)" style="fill:none;stroke:#000"/><path d="m176.794 466.15-.479.029-.705.152-.753.327-2.31 1.616-.585.3-.59.184-.616.095-.62-.053-2.117-.358-.984.095-2.237.595-1.327.231-3.853.474-.421.021-1.506-.168-.942-.284-1.29-.522-.51-.12-.387-.052M207.598 453.852l.882-.684 2.224-1.072 1.856-.495 1.102-.414.84-.526.515-.483.402-.558.639-.965.242-.568.313-1.313.684-1.601.459-.781.946-.8 1.398-.67 4.92-2.266 2.365-1.154 6.826-4.282 2.28-1.329 1.688-.871 1.038-.282 2.386-.276 1.497-.245 2.894-1.216 3.975-1.692.818-.289" clip-path="url(#pacf088cbbc)" style="fill:none;stroke:#000"/><path d="m214.184 439.113 1.433.025 2.866.283.897-.038 1.8-.546 2.492-1.372 3.607-1.612.544-.345.995-1.084.155-.52.198-1.643 1.03-1.504 1.872-1.16 2.04-.439 3.424-.194 2.026-.013 3.996-.551 1.764-.164 1.36.08.6.077 2.133.319 1.371.308M360.69 257.88l-5.145.132M357.183 247.826l.479.71 1.073 1.467 1.643 2.063.445 1.054.128 1.75-.261 3.01" clip-path="url(#pacf088cbbc)" style="fill:none;stroke:#000"/><path d="m360.327 274.146.102-.138 2.033-2.584.819-1.178.31-1.079-.007-.978-.184-.79-1.652-5.438-.903-2.439-.155-1.643M359.444 294.061l-.244-.367-1.193-2.16-1.56-3.906-1.411-2.91-2.407-4.375" clip-path="url(#pacf088cbbc)" style="fill:none;stroke:#000"/><path d="m360.327 274.146-1.62 2.195-.637.655-.606.624-1.844 1.204-2.991 1.519M249.008 316.993l1.045-.226 2.584-1.38 10.024-5.317 4.928-2.47 4.603-1.129 8.965-2.885 9.22-3.097 3.12-.765 3.417-.263 1.299-.49 1.468-1.442 1.2-.715 1.758-.47 2.189-.138 8.81-.339 1.165-.019 1.228-.225 3.727-1.668 1.518-.426 6.424-1.267 4.017-.966 5.153-2.51 7.294-3.842 5.343-3.085 3.122-1.516M362.49 305.882l-.353-4.102-.431-3.229-.367-1.58-.445-.878-1.02-1.307-.43-.725M351.139 296.118l.48-.79 7.825-1.267M362.49 305.882l-2.393.094-11.147-1.342-1.836-.226M372.67 305.612l-10.103 1.661M362.49 305.882l.077 1.391M362.553 310.327l.014-.871v-2.183M373.348 308.572l-10.795 1.755M363.33 326.718l-.24-.79.19-.646 1.44-2.47 1.003-1.762.162-.703-.141-.859-.989-2.245-.931-1.887-.96-2.188-.233-1.43-.078-1.411M386.012 324.034l-3.897 2.672M385.32 327.17l-2.287-.038-.918-.426M355.847 329.878l.677-.326.657-.239 1.214-.344.953-.245.727-.363.862-.339 1.454-.696.938-.608M352.932 346.62l4.155.043M341.961 359.147l.381-.872 3.339-2.41M330.602 364.432l.543-1.047.575-1.98.128-1.35.257-1.083.3-.76.513-.703.813-.874 1.304-.73 2.026-.52 2.94-.442 2.761-.475.854-.084.716.252.671.457.678.771M321.715 361.58l5.18 2.187M362.452 366.882l.575-.851.451-.677.255-.602.056-.552-.325-1.517M330.602 364.432l-2.139-.837-.808-.213h-.163l-.162.084-.434.301M314.796 374.545l3.389-.577 2.457-.852.542-.333 1.074-.928.554-.705.153-.417.26-2.664.438-.966.691-1.223 2.161-1.793.38-.32M362.452 366.882l.802-.071 1.147-.082.179-.184.339-.577.465-.551.685-.276.89-.013M358.289 364.905l.752.267.563.3.5.242.346.32.628.51.762.253.612.085M289.918 376.884l-.501-.565-.869-.72-.91-.54-.543-.614-.233-.997-.106-1.36-.07-.709-.1-.846M380.99 372.525l-2.694 5.832M374.808 376.595l-.612 2.153M299.793 389.062l-.728-.134-.883-.363-.604-.377-1.546-1.367-.692-.715-.14-.664.267-.978.48-2.383.176-1.228-.451-.709-.657-.533-1.892-.865-1.405-.702-1.504-.872-.296-.288M229.01 392.965l1.299-.2 2.146-1.505 1.468-1.355 1.638-1.655 1.884-.896 2.86-.357 3.24-.584 2.428-1.83 1.892-1.442 3.12-2.32 3.268-1.642 3.086-2.22 2.618-1.235 4.13-1.442 2.556-.414 3.339-.62 1.793.143 1.433.558 1.236.897.98 1.216 1.102.659 1.109.106 1.906-.081 2.104-.044 1.305-.245 1.278-.639.953-.138 1.017.357 1.292.514 2.428.333M378.296 378.357l2.153.978M378.296 378.357l-.968-.47M380.449 379.335l-1.637 3.624M302.837 386.182l1.977 3.072M299.793 389.062l.101-.454.606-.986.516-.487.6-.395 1.22-.558" clip-path="url(#pacf088cbbc)" style="fill:none;stroke:#000"/><path d="m303.27 392.464-2.663-2.778-.814-.624M332.106 403.46l-3.925-3.912-1.578-1.853M324.008 401.257l-.077-.2-.113-.451-.155-.226-.227-.26M298.293 420.667l-6.906.862M406.259 211.924l-.692-.552-3.007-2.082M406.259 211.924l.438-.376 1.016-.502 3.149-1.417M295.855 497.876l.607-.244.36-.327.205-.79.31-.2.742-.075.43-.132.72-.47.77-.181.522.012.566.201M561.16 165.83l.59.975M560.162 186.574l.18-.235.356-.214.513-.009.415.137.516.521.19.16.301.21.54.236.702.254M564.835 190.688l-.677-1.336-.24-.928-.043-.79" clip-path="url(#pacf088cbbc)" style="fill:none;stroke:#000"/><path d="m561.75 166.805.968 1.298.62.603 1.388 1.203 1.564 2.597.508 1.945-.014 2.333-.283 2.07-.014 1.969-.352 2.96-.509 1.33-.578.84-.72.865-.453.816M499.737 273.907l1.355-1.474 2.005-3.462 1.878-3.499 1.92-2.458 2.867-3.8 2.371-3.248 1.525-1.694 2.442-1.943 1.568-2.61 4.334-7.437 2.005-3.65 1.653-2.32 1.736-1.643 2.245-1.856M557.439 209.951l-.686.236-1.922.577-1.44.865-2.466 1.839-4.197 2.566-4.184 2.773-2.64 1.852-1.721 1.543-1.37.79-1.51 1.304-1.257 1.882-2.09 3.135-1.397 2.02-.918 1.48" clip-path="url(#pacf088cbbc)" style="fill:none;stroke:#000"/><path d="m586.455 357.917-1.376-.608-2.21-.922-.925-.721-.494-.708-1.2-1.443-.783-1.04-.657-.928-.212-.558-.035-1.06-.056-1.04-.071-1.424.134-1.016.395-1.16.438-.99.102-.539-.13-.778-.593-.596-.918-.401-1.313-.52-.903-.552-.84-.96-2.02-2.47-1.85-1.944-.889-.784-.65-.595-.36-.609-.698-2.037-1.37-4.296-.593-1.924-.133-.828.211-1.286.304-1.341.148-1.856-.029-2.634-.034-2.2.154-1.675.481-1.204.656-.96 1.136-1.266.742-.708 1.08-.947.615-1.142-.142-1.85-.53-1.291-.388-1.153-.126-.716.105-1.128-.352-1.142-.968-1.604-.6-1.662-.579-1.085-.247-.96-.035-1.624-.43-1.054-1.166-1.63-1.482-1.436-6.862-5.43-1.087-1.235-.099-.796.34-.527 1.093-.841 4.504-3.887 2.506-2.19 1.095-1.165.331-1.148-.05-1.222-.536-.647-.84-.79-1.242-1.135-.77-1.04-.868-1.512-1.349-1.605-1.913-1.173-1.426-.915-1.186-.42-1.185-.101-1.335-.345-.628-.69-.473-1.097-.509-1.273-.705-1.091-1.102-1.68-.847-1.186-1.411-1.167-1.928-1.486-1.892-1.454-1.906-1.318-1.666-1.755-1.468-2.039-1.497-1.592-1.581-1.512-1.97-1.888-1.68-1.574-1.221-1.517-.904-1.593-.861-2.063M499.737 273.907l-.632.6M499.737 273.907l-.752-.228M458.354 317.243l2.718-1.204 2.203-1.035 2.33-1.386 1.4-1.447 1.727-1.224 1.637-1.053 1.793-1.14 2.326-2.409 1.652-1.577 1.148-.593 1.796-.169M480.185 314.102l.043-1.317-.304-4.32-.501-1.499-.215-.884-.124-2.076" clip-path="url(#pacf088cbbc)" style="fill:none;stroke:#000"/><path d="m499.105 274.507-.823.915-1.458 2.292-1.588 2.577-2.86 4.847-2.915 3.13-3.177 2.928-1.941 2.195-.707.966-.865 1.1-.725 2.23-.43 1.432-1.29 2.737-1.242 2.15M450.564 367.216l-.43-.583-.996-1.888-.12-.67.346-.64.733-1.085 1.095-2.32 1.101-1.542 1.483-2.113 1.115-1.73.925-1.248 1.08-.903 1.567-1.279.812-1.034.635-1.555.756-2.082.077-2.013.495-1.222 1.404-1.87 1.052-1.134.96-1.448.07-1.223-.059-1.054.17-.853.949-1.228.614-.984.516-1.317.324-1.06.311-1.348.353-1.01.494-.438.9-.49.717-.664.825-.972 1.32-1.085 1.193-1.084.72-.96.826-.708.989-.602.6-.76.7-.79.945-.82.55-.84.389-1.342.198-1.53.279-.935.638-.658M481.66 368.194l1.172-1.806.283-1.166.31-.477.636-.489 1.384-.69 1.877-1.39.572-.584.304-.39.12-.588-.134-.834-.523-1.254-.113-1.129.522-2.094.1-4.038-.1-1.8-1.114-3.279-.453-.802-.211-.451.14-.39 1.06-1.404.12-.395-.12-.445-.353-.884-.31-1.354.38-2.383-.07-.59-.417-.695-1.539-2.778-.833-1.436-.91-1.505-.777-.64-1.299-1.122-.741-.658-.12-.339.042-.313.142-.508.36-2.339.176-2.32-.035-2.063-.501-2.646-.452-1.605-.127-1.157.077-.862M604.303 349.672l-1.3.12-2.767.526-2.535.552-1.927.99-3.53 2.006-3.932 2.546-1.172.928-.685.577" clip-path="url(#pacf088cbbc)" style="fill:none;stroke:#000"/><path d="m551.998 414.606 1.052-1.01 2.005-1.892 2.202-2.37 1.638-2.094 1.461-1.674 1.666-1.686 2.005-1.33 3.079-1.749 1.221-1.323 2.019-2.79 1.278-1.36 2.421-1.298 4.087-2.482 1.455-1.242 2.252-2.582 1.292-2.17.5-1.636.58-3.305.282-2.207.586-3.924.544-3.21.155-2.502-.636-1.894-.098-1.968.762-2.42-.007-1.455.106-1.987.55-1.129M551.222 423.459l-1.052-1.342-.134-1.06.176-.84.657-1.667.346-.94.084-1.33.155-.652.544-1.022M542.697 420.864l1.144-.477 1.567-1.548 1.193-.596 1.15-1.636 1.06-2.451.409-.232.776-.157 1.264.445.738.394M522.412 477.578l.67-.608.594-1.203.592-.427.735-.125 1.023.156 1.829.728.812-.132.741-.677.918-.727 1.002-.401 1.045.113.798.276.96.25.762.006.84-.42.735-.225.62-.088.6.112.791.502.537.533.925.32.776-.282.84-.608.544-.703.388-.99.317-.99.672-.979 1.291-.639.808-.663.216-.384-.057-.602-.035-.953.106-.539.346-.92.377-.884.089-.79-.233-.333-.749-.771-.204-.558.007-.345.233-.508.585-.463 1.476-.64 1.08-.626.17-.778-.438-.476-1.108-.477-2.33-.84-.508-.514-.254-.67.05-.74.282-1.229.586-1.191.402-.564.318-.47.105-.307.057-.596.035-.871.184-1.267.36-1.492.48-1.805.282-1.655.17-1.705-.226-1.38-.396-.902.141-1.003.82-.953.282-.853.678-2.784.275-.306.452-.258.931-.106 1.744.2 1.087.483.509.213.226-.276-.141-.4-.763-.878-1.327-1.003-1.045-.728-.988-1.304-.452-.978.057-.877.451-1.154.664-.846 1.263-.464.77-.552.176-.602-.374-.527-1.25-1.027" clip-path="url(#pacf088cbbc)" style="fill:none;stroke:#000"/><path d="m525.45 426.67 1.116.651.748-.031 1.187-1.185.705-.89.939-.401 2.605-.978 1.017-.207 2.11-1.273.954-.301.451.056.452.39.134.564-.346.457-1.1.74-.439.752.106.89.629.796 1.25.251 1.56-.019 3.092-.959 1.552-.263 1.95-.59 1.248.101 2.422-.608 1.43-1.154M466.324 516.777l.325-.29 1.581-1.054.413-.66.226-.65-.057-.651-.367-.583-1.645-2.232-.6-1.398-.36-1.987.085-1.742.346-.897 1.08-1.266 1.66-1.568.966-.682.953-.64 1.843-.306 1.49-.126.96-.477.727-1.084.794-.527 1.761-.557 1.486-.571 1.175-.307 1.384.1 1.32.546 1.878.727 1.334.15 1.031-.282 1.37-.79 1.447-1.128.696-1.073.253-1.88.576-1.297.691-1.473.495-1.185 1.228-1.002 1.193-.515 1.578-.144 1.553-.126.848-.35 1.242-.728 1.193-.52 1.214-.433.812-.433 1.144-1.103 1.1-.915.99-.57 1.164-.884 1.165-.99.882-.565.833-.332 2.887-.232 1.864-.401 1.49-.439 1.899-.313 1.426-.07 1.066-.294M509.757 469.28l.381.714-.268.501-.353.502.128.576.79.527 4.052 1.655 4.532 2.257 3.393 1.566M399.672 504.39l.547.397 1.67 2.354.642.527 2.188 1.434.805.327.925.257 1.475.112 1.942.057 5.033.871 4.603.201 1.701-.257 1.913-.596 1.313-.181 1.462.325 1.63.52 4.434 1.894 1.292.846 3.9 3.585 2.224 1.592 1.634 1.295.696.811.541 1.232.18.761" clip-path="url(#pacf088cbbc)" style="fill:none;stroke:#000"/><path d="m464.659 519.126-.433.227-1.078.205-11.338 2.08-3.177.426-4.003 1.062-1.503.067-.466-.075-.24-.364M437.288 576.695l.847-1.23.254-1.729.393-3.162.143-3.457-.51-2.435-.368-1.454.483-3.33.254-4.213.11-4.492-.037-3.125-.016-1.434-.483-10.007-.28-5.562.678-1.93.562-.982 1.697-1.802 1.183-2.912.223-.685" clip-path="url(#pacf088cbbc)" style="fill:none;stroke:#000"/><path d="m520.163 566.053-.79-1.723-.53-.74-.452-.288-1.56-.809-.974-.307-1.228-.106-1.165.27-.904.375-1.779 1.78-2.372 2.125-1.454 1.06-4.099 2.26-2.259 1.003-1.214.326-2.15-.004-2.823.451-2.909.427-1.722.551-1.157.753-1.47 1.554-1.721 1.68-1.497 1.103-1.61.952-1.268.932-.592 1.228-.145 1.075-.734 2.18-.96 1.73-.537 1.38-.253 2.005-.34 1.428-.564.979-.565.275-.79.276-1.017-.126-1.494-.547-1.553-.677-1.723-.602-.878-.505-.703-1.2-.624-.93-1.44-.878-1.72-.573-1.5-.405-2.51-.297-2.456-.451-2.46-.155-1.27.026-1.3-.05-1.129-.05-.96.475-1.27 1.053-.552.2-.65-.024-1.253-1.6-.48-.928-.79-.427-1.189-.304-1.892-.3-1.271-.227-1.27-.701-.76-.95-.508-.701-1.161-.58-.932-.627-.28-.699.196-.98.51-.8" clip-path="url(#pacf088cbbc)" style="fill:none;stroke:#000"/><path d="m409.756 592.198 1.502-.431.814-.153.827-.155 1.133-.041 3.324.083 1.856-1.213 1.717-2.333 1.296-.716 1.437-1.275.876-1.648.7-3.204.211-1.4.455-.746.806-.25 1.366-.217 2.593-.311.386-.622 1.611-1.337 1.787-.218h1.436l1.399.684M566.586 567.62l-.445.006-1.755-.083-2.428-.626-2.033-.827-2.431-.952-1.68-.783-1.031-.244-1.193.006-2.362.193-.984-.294-.904-.589-1.03-.827-.671-.633-.834-.238-.946.213-.677.526-.579.834-.19.852-.191 1.01-.41.883-1.186 2.006-.847 1.391-1.496 1.58-1.085.707-.906.322-1.44.312-1.906.696-.918.162-.805-.024-2.696-.47M520.163 566.053l.925 1.154 1.115 1.554.94 1.266.952.677 1.335.458 1.722.375 1.44.515 1.935.677M525.535 563.928l-1.56.396-1.094.376-1.846.868-.872.485M534.946 529.976l-.466.895-.16.72-.248 2.184-.21 2.987.018 1.21.062 1.198.02 2-.06 1.737-.12 1.822.053.66.264.47.276.42.304.384.13.452.022.44-.09.592-.409.71-.405.624-.252.863.014 1.033.14 4.316-.076.896-.11.299-.243.268-.38.257-.7.105-1.49.638-.607.508-.445.727-.198.758-.127 1.047-.176.376-.332.2-1.017.339-.416.32-.893.788-1.084.71" clip-path="url(#pacf088cbbc)" style="fill:none;stroke:#000"/><path d="m516.944 558.92.522.264.22.232.224.422.516.474.783.479.677.2.876.075h1.327l1.13.05 1.806.603.46.273.156.407.034.623-.14.906M374.75 170.754l4.65-.915 3.583-.58 2.965-.603 2.545-.824 2.287-1.079 2.99-1.76 1.725-1.15 2.99-1.509 2.065-.322 2.172-.23 3.278.606 1.949.978 1.041 1.352 1.186 1.279 1.641.882 3.163.652 2.82.247 3.022.075 3.307.581 2.567.674M499.474 163.939l-1.195-1.656-1.44-1.33-.873-.208-.845.275-.539.29-1.442 1.125-.788 1.383-1.13 1.08-.875.576-1.243.05-2.654-.577-9.604-2.237-2.74-.928-3.413-1.652-3.08-1.434-2.26-.903-1.073-.326-1.355.1-1.214.678-.845.989-.229.509-.366.534-.873.756-1.245.699-1.07.957-2.432 3.283-3.445 3.537-1.694 1.556-.873.555-1.274.423-6.099.828-2.708.48-1.895.298-2.848.004-1.049-.38-1.637-1.004-1.158-.954-1.155-.899-1.048-.58-1.072-.728M426.272 187.518l.001-.207.453-16.658-.03-1.545M344.752 182.157l1.832-1.66 3.618-2.906 4.26-3.516 2.602-1.627 1.694-.652 1.892.402 2.482.397 2.629-.197 2.061-.326 3.191-.602 3.737-.716" clip-path="url(#pacf088cbbc)" style="fill:none;stroke:#000"/><path d="m374.56 143.513-.13.364-.428.281-.75.202-.536.725-.019 1.275-.056 1.473.578 2.251-.317 2.384.056 2.151 1.192 2.235.243 1.307-.41 1.954-.708 2.085-.019 2.367.335 2.367.54 1.771.512 1.627.107.422M344.752 182.157l-.596.297M344.752 182.157l.113.727M344.865 182.884l-.709-.43M543.184 169.502l-1.779-.546-1.595-.27-1.348-.006-1.582.39-2.731.834-2.047.3-2.081-.002-1.477.103-1.511.351-1.54.552-1.527.375-1.084-.011-.739-.17-1.471-.501-1.497-.853-.65-.515-.783-.947-2.556-2.979-1.602-1.292-1.751-.884-.96-.264-1.151-.32-2.24-.123-1.035-.071-2.418.177-1.959.4-2.005.49-.591.219M553.312 163.424l1.316.552 1.546.84.706.465M333.651 176.91l-.028-1.83-.085-1.732-.084-2.258.056-3.11v-1.006l-.194-.823-.201-1.584.342-1.401.646-1.86M374.56 143.513l-.346-.996-.421-.778-.374-.374-1.476-.433-1.2-.677-2.06-1.311-2.108-1.83-1.022-.591-2.091-.994-1.688-.519-1.605.072-2.157.345-3.892.217-1.541-.087-.843-.288-.828-.303-.308.217-.6.418-1.119.562-1.103.158-1.622.476-1.816.519-.843-.246-.65-.244-.648.23-.99 1.017-1.656 1.455-.435.502-.225.752-.65 2.359-.458 1.375.622 2.898.127 1.405-.212.765-.833 2.51-.395 2.169.226 2.132-.042 1.267-.509 1.318-1.002.865-1.187.728-.477.732M334.3 177.989l.653-.147.958-.18 1.47.23 1.046.477 1.129.702 1.692 1.577 2.064 1.308.844.498M334.3 177.989l-.92.326" clip-path="url(#pacf088cbbc)" style="fill:none;stroke:#000"/><path d="m333.651 176.91.17.452.48.627M333.651 176.91l-.27 1.405M498.985 273.679l-.975-.875-4.348-3.882-.722-.387-1.403-.309-1.271-.385-.879-.23-3.689-1.335-2.011-1.198-.932-.784-.41-.99-.423-1.311-.657-.728-.35-.282-.991-.348-.898-.562-.616-1.21-.389-1.152-.13-1.182-.551-.95-.79-.679-.678-.03-.325.143-.812.596-.834.863-.875.835-2.077 3.055-.725.483h-.713l-.459-.37-.48-.664-.41-1.047-.536-.546-1.73-.941-1.616-1.138-7.765-7.209-8.465-7.99M439.035 258.136l.156-.827.43-1.236-.02-1.085.077-2.245.183-.765 1.158-2.558.261-1.261.24-.709.954-1.003 2.745-2.245 2.831-3.261M499.105 274.507l.015-.479-.135-.35M395.408 146.941l-1.37 1.995-.917.727-.749.264-.692-.2-.352-.565-.735-1.355-.282-.728-.183-.539-.551-.05-.509.54-.423 1.153-.522 1.543-.692.69-.734.514-1.257.1-1.44-.175-1.412-1.204-.805-1.167-.763-1.442-1.03-1.292-1.059-.302-1.27.038-.96-.25-.975-.578-1.166-1.145M282.06 216.395l2.43-.928 3.6-.82 7.468-1.964 6.446-2.23 9.283-4.544 5.422-2.508 3.078-2.56.79-1.68.085-4.014.141-2.057 1.043-2.398.813-2.395.706-3.328.728-1.92 1.049-1.54 1.455-1.045 2.29-.457 2.717-1.14 1.777-.552M198.872 199.524l2.935 2.662 2.318 3.311 2.595 2.017 4.12 3.718 2.562 1.786.843 1.412-.064 1.44-.682 1.672.714 1.268 1.524.519 1.298.836 1.654 2.65 1.525 3.458 1.27 4.508.564.76.501.206.848-.075 1.609-.439 1.666-.777 2.436-1.242" clip-path="url(#pacf088cbbc)" style="fill:none;stroke:#000"/><path d="m282.06 216.395-.762.753-.395 1.204-1.412 3.462-1.27 2.332-1.864 1.556-3.213 1.349-4.644.93-2.594 1.038-5.19-.346-2.66-.173-2.53.273-1.2.46-.714.577-1.135.173-1.493-.605-1.654-.375-1.978-.201-3.374-.289-1.265.058-2.66-.547-2.952-.202h-2.724l-3.23.389-2.04 1.003" clip-path="url(#pacf088cbbc)" style="fill:none;stroke:#000"/><path d="m241.568 234.52.268-1.543-.396-1.129-.677-1.135-.72-.816-1.37-.508-1.165-.276-2.061-.131-3.53-.02-1.68.308-.62.075-.51-.131M132.33 207.42l1.608.356 1.356-.46 1.772-.682 1.817-.367 2.866.308 1.781-.23 2.327-.221 2.657-.734 2.507-1.285 2.149-1.17 1.567-1.449 1.58-1.602 1.708-.677 1.652-.347.745-.26 3.262-1.653 2.697-1.353 2.97-.717 2.098.066 1.393.947 1.526.81 1.5.167 2.373-.04 1.54-.608 1.42-.426.474-.043.763.15 2.116.282 2.81-.118 1.353-.22.974.057.876.461.713 1.441.811.922.94.23 1.363-.316 1.979-.404 1.427.289 1.072 1" clip-path="url(#pacf088cbbc)" style="fill:none;stroke:#000"/><path d="m282.06 216.395-1.29-1.05-1.123-1.107-.333-.32-.556-.208-1.092.056-1.24.096h-.707l-.385-.248-.086-.74-.043-1.237-.278-1.083-.428-.229-.577-.057-.9.38-1.755 1.122-1.262.913h-.385l-.171-.19.32-.362.557-.57.77-.741.364-.57.193-.419-.064-.285-.814-.476-1.177-.722-1.455-2.053-1.24-2.015-.429-1.027-.685-.78-1.134-.969-1.22-.913-.514-.342-.235-.532-.492-.723-.9-.152-.478.058-.875.301-1.214.602-.509-.1-.395-.577-.395-1.13-.505-1.251-1.669-.685-2.568-.836-1.84-.228-1.97-.038-2.781-1.027-2.226-1.179-1.498-.875-1.07-.075-.556.342-.343.95-.214 1.369-.342 4.868-.6.912-1.155 1.178-.902.255-1.281-.216-2.61-.875-3.082-1.369-1.97-1.14-1.668-1.103-1.37-.457h-1.113l-1.156.571-2.225 1.179-.985 1.026-.744.69-1.066.578-.816.003-1.097-.282-3.253-.723-3.125-1.863-3.124-1.673-1.797-.722-2.654.342-1.552.057-.471.301-.588.402-.343.691-.053.868-.174 1.563M126.413 257.346l.014-.54-.014-.563-.155-.527-.141-.527-.24-.527-.353-1.241-.127-1.367.31-1.029.212-.514.297-.477.395-.439.932-1.09.24-.515.198-.514.056-.54-.028-.552-.325-1.191-.155-.527-.664-1.517-.113-.54v-.539l.113-.54.254-.526.678-1.455.254-.49.31-.476.396-.451 1.087-1.393.31-.464.283-.502.297-.614.028-.426-.07-.314-.368-.44-1.694-1.391-.523-.314-.578-.225-1.102-.502-.155-.402-.014-.326.17-.426.38-1.104.086-.552.013-.577-.268-.853-.113-.551.085-.553.296-.489.848-.727 1.581-1.029.946-.602.452-.364.41-.426.352-.452.141-.526-.127-.54-.395-.489-1.412-.953-.522-.314-.41-.413-.367-.477-.805-2.02-.141-.526v-.552l.127-.527-.127-1.016-.141-.577-.339-.966-.17-.539-.013-.565v-.539l.112-.527.368-1.003.352-.452.48-.338.565-.238.593-.176.607-.088.607-.05h.636l.847-.088.369-.195M154.312 355.617l-2.622.6-.85-.061-.905-.2-.903-.427-1.85-.503-3.84-.651-1.045-.15-.861.087-.861.49-.396.614-.522 1.066-.72.476-.735.285-1.355.004-.917.063-.933.313-1.454 1.354-.776.74-.537.288-.649.138-1.285-.025-1.355.013-1.031.175-1.073.289-1.186.314-1.347-.025-1.886-.214-1.483-.288-1.03.1-.918.339-.763.513-.268.527-.099.602M111.094 363.027l.254.301.763.138 1.948-.012 2.245-.063.621-.113.509-.3.423-.515M174.15 357.146l-1.582.339-.974-.088-.79-.576-.876-.853-.734-.226M154.312 355.617l.694.038.62.225.38.464-.013.627-.594 1.304-.437 1.304-.141.564.282.564.65.202.606-.026 1.3-.627 2.188-1.617 1.299-.515 1.497-.376 2.047-.501 1.51-.477 1.71-.74.705-.263.579-.025M173.557 343.528l-.085.552-.127.59-.099.538-.099.577-.113.565-.522.376-1.554.326-.592.112-.621.189-.537.238-.55.264-.438.075-.34-.088-.352-.264-1.13-.326-1.073.05-.395.126-.325.313-.141.276-.127.552-.014.54-.057.564-.07.551v.464l.226.552.338.464.396.44.41.463.437.414.946.714.494.351 1.257 1.03.494.626M249.008 316.993l-2.908.263-2.861.076-1.938-.231-1.23.117-1.61 1.041-2.019 2.345-1.567 2.47-2.838 2.86-2.09 1.38-.423.188-.635.163-.974.426-3.079 1.818-1.651 1.305-1.582 2.357-1.214 1.63-.946.778-.804.326-.48.163-.72.15-7.71.39-2.739.012-1.172.288-1.157.765-1.229.903-1.821.665-2.16.4-1.087.415-1.144 1.19-2.358 2.722-1.694 1.605-1.3 1.894-1.934 2.583-2.131 1.768-1.2 2.17-.417.652-.43.263-.488.082-2.619-.27-1.567.1-1.398.226-2.824 1.028-2.71.677M186.433 369.072l-.423.401-.509.351-.593-.1-.55-.264-.254-.501-.057-.527-.113-.54-.141-.513-.212-.514-.325-.527-.79-.966-1.116-.79-.621-.05-.621.026-.607.125-.608.1-.352-.063-.085-.238.127-.263.353-.402.353-.439.395-.45.438-.477.508-.301.551-.226.579-.175.593-.189.48-.376.254-.614.268-1.129-.07-.401-.255-.401-.663-.2-.593.024h-2.245l-.636-.088-1.651-.351-.664-.163-1.75-.464-.679-.25M360.76 559.704l.565.389 14.457 8.373 18.087 9.057-.967 5.315-.34 2.08.205.408.431.257 2.288.439 3.127 1.128 2.443 2.087 2.287 2.15.734.169 4.038.551 1.64.09M588.71 207.038l-1.298-.715-4.292-2.47-1.822-1.092-2.456-1.92-.763-.74-2.574-3.214-1.168-2.154-.536-.815-.635-.627-1.285-.728-1.468-.426-3.672-.822-.939-.245-.402-.138-.565-.244" clip-path="url(#pacf088cbbc)" style="fill:none;stroke:#000"/><path d="m567.25 201.97.282-.489.438-.902.014-.69-.508-1.43-.58-1.87-.62-1.956-.24-1.091-.65-1.782-.55-1.072M625.653 245.45l-.588-.625-.99-1.563-.389-.437-2.669-1.7-.473-.437-.353-.674-.38-1.31-.425-.806-.706-.89-1.09-.958-.463-.22-.605-.17-1.532-.1-.974-.205-.373-.173-.527-.458-.837-1.416-.22-.327-.296-.252-.631-.21-1.764-.296-.595-.194-.305-.185-.358-.342-.258-.7.063-.7.148-.553.658-1.774.047-.752-.052-.374-.169-.39-.253-.295-.6-.384-1.603-1.07-1.468-1.154-.664-.564-4.984-3.286-1.242-1.029-3.247-3.274-1.229-1.43-2.047-2.408-1.807-2.847-.692-1.48M624.177 190.544l-.36 1.307-.656.612-1.186.451-1.03.164-1.046.3-1.284.427-1.2.577-1.035.757-1.253.848-1.793.327-3.53.338-1.524.277-1.031.45-1.073.904-1.468 1.505-2.74 3.274-1.68 1.694-3.12 2.696-1.03.74-1.159.502-1.313.125-1.651-.238-1.695-.602-.762-.326-.847-.615M625.653 245.45l.715 1.789M626.368 247.239l1.366.37 1.227.311 1.331.262.683-.036.495-.13 1.109-.597 3.562-1.073.973-.288.138-.228.017-.286-.399-1.455-.494-.439-.593-.2-.614-.139h-.79l-.713.289-1.907 1.09-1.97.741-1.051.282-.65-.025-.988-.163-.847-.113-.6.038" clip-path="url(#pacf088cbbc)" style="fill:none;stroke:#000"/><path d="m613.363 256.568 1.63-1.084 2.732-2.164.932-.94 1.186-1.53 1.44-.916 2.422-1.28 2.663-1.415M610.897 348.134l-.51.234-2.534.915-2.464.313-1.086.076M170.878 568.45l.06.973 3.379 3.317 2.473 1.33.847.2.621-.3.861-.79 1.088-.2 2.395-.032 2.396.045M199.719 512.419l-.099.25-.353 3.686.07 3.849.128 1.341-1.85 4.676-1.143 1.292-1.836 1.203-1.99 1.04-1.68 1.856-1.144 1.403-.25.362-.077.635.248 1.502.503.943 1.553 1.924 1.145 2.258.534 1.388.989 1.857.113 1.843v1.504l-1.229 1.743-1.214.664-2.527 1.129-1.751 1.265-.508.703-.24 2.005-.466 1.266-1.821 1.78-3.474 2.996-2.753 1.943-2.103.74-3.756 2.03-1.215 1.354-.645 1.601M210.04 464.81l2.757-1.03M199.719 512.419l1.468-4.05 2.344-3.88.487-.326 1.384-.238.557-.194.65-.54.124-.507-.036-.53-.378-.724-.41-.805-.112-.245-.007-.228.163-.59.006-.345-.29-1.16.019-.294.271-.498.608-.63.226-.815.014-1.329.706-2.269 1.327-2.144.565-.827.211-.915-.17-4.589-.084-.677.424-.815.635-.614 1.78-.815.892-.46.392-.317.24-.74-.113-1.003-.498-1.072-1.126-.207-2.908.063h-3.572l-3.84.213-.96-.025-.403-.263.078-.364.388-.614 2.189-1.134 1.844-1.148 1.512-1.474 2.944-2.332.568-.983.109-1.575.103-2.581" clip-path="url(#pacf088cbbc)" style="fill:none;stroke:#000"/><path d="m207.598 453.852-.354 1.197-.261.55-.252.31-1.633.858-.325.382-.063 1.185.162.658.918 1.549.325.382.41.131.713.182.564.333.741.708.671 1.04.826 1.493M203.738 456.544l1.29-.925 2.57-1.767M185 462.71l2.732-.922 4.179-1.436 3.664-1.266 1.906-.464 3.205-.432 1.32-.464 1.732-1.182" clip-path="url(#pacf088cbbc)" style="fill:none;stroke:#000"/><path d="m214.184 439.113-.586.182-1.398 1.323-1.306 1.034-1.857.872-3.05 1.153-3.063 2.489-.318.551-.797 7.398.127.545.737.988.577.471.488.425M360.76 559.704l-.48.878-.17.74-.522.588-1.51 1.467-1.328 2.42-.31.727-1.313.902-1.173.614-.691.063-.805-.389M360.76 559.704l-1.68-1.73-2.217-1.39-1.75-.54-1.582.15-1.638-.25M343.782 393.642l-.833-.752-1.087-1.066-3.766-4.065M324.008 401.257l.05.126.24.364 4.546 4.601M322.952 404.083l.049-1.202.114-.39.275-.475.244-.381.374-.378M314.006 411.668l4.296 1.39M315.598 408.847l-.694 1.06-.25.48-.648 1.28M315.598 408.847l2.834 1.622M306.109 465.167l-.212-.17-.106-.26-.038-.501.07-1.497-.014-2.192-.184-.414-.254-.64-.152-.25-.222-.135-.36-.068-.77-.104-.699-.132M180.838 458.245l.049-.205.183-.79.085-1.003-.028-.928-.17-.952M180.838 458.245l-.191.798-.58 2.22-.267.325-.438.289-.212.35-.155.766-.198.564-.31.651-1.243.979-.45.962" clip-path="url(#pacf088cbbc)" style="fill:none;stroke:#000"/><path d="m178.331 458.755.41.1.353-.025.55-.125.715-.276.479-.184M183.715 468.872l-.127-.452-.148-.89.113-.552.189-.764.167-.304.016-.154-.035-.128-.154-.154-.056-.27.134-.357.463-1.038.723-1.1M190.406 507.859l-.396.627-.068.278.098.276.227.216.384.235.674.198.798.097 1.116.26.755.27.526.285.61.545.491.43.572.357.571.21.527.128.829.072 1.147.023.452.053M491.81 168.342l1.838.238M493.449 166.988l-.175.118-1.171.966-.293.27M493.648 168.58l.339.464M493.449 166.988l-.009.865.208.727M501.808 176.96l2.203 2.207.257 1.15.683.978 1.734 2.03M501.808 176.96l-3.177-2.71-2.202-1.844-.494-.565-1.525-2.283-.423-.514M498.272 176.61l-1.497-.338-1.07-.547-1.103-.663-.875-.835-.325-.461-.227-.72.065-.808.227-.951.52-2.243M500.18 178.55l-.472-.5-.81-.902-.626-.538M497.078 177.866l.32-.353.874-.903M500.18 178.55l-1.047 1.162M500.18 178.55l1.628-1.59M499.133 179.712l-2.57 2.72M499.133 179.712l-2.055-1.846M494.2 180.28l2.878-2.414M376.94 230.429l5.888 5.383M448.777 194.417l-3.05.878-4.038-3.889-6.918-6.271-1.242-1.08-.706-.075-1.3.377-2.09 1.004-3.16 2.157M572.335 170.383l-.374-.127-.36-.114-1.319-.766-3.45-2.039" clip-path="url(#pacf088cbbc)" style="fill:none;stroke:#000"/><path d="m561.75 166.805 1.044.512.4.08.34-.012.27-.04.284-.19.362-.21.528-.21.858.12.997.482M573.519 158.174l-.34.308-.275.49-.303.551-.459.628-.423.307-.389.069-.677.044-.89.018" clip-path="url(#pacf088cbbc)" style="fill:none;stroke:#000"/><path d="m595.295 181.985-.224-.75-.166-.984-.49-1.699-.24-.665-.678-.702-1.172-1.443-1.51-1.593-1.066-.928-.982-.627-1.122-.351-1.172-.075-1.25-.1-1.482-.384-.918-.282-.607-.451-.565-.834-.092-1.293.015-1.229-.12-.445-.269-.37-.473-.445-.635-.452-.403-.345-.162-.364-.805-2.34-.473-1.285-.529-.546-1.144-1.066-.339-.439-.19-.734.042-.896.502-1.782-.1-.213-.317.037-.675.716-.56.464-.6.477-.43.282-.375.325M573.025 156.324l-.07.547.564 1.303M573.025 156.324l.319-.736M355.716 239.45l-.003.143.224 1.685M357.183 247.826l-.425-.933-.395-2.408-.426-3.207M350.543 241.956l1.754-.238 3.64-.44M363.123 232.88l-.696.19-1.603.496-1.122.32-1.016.358-.862.558-.354.449M355.716 239.45l.025-1.111.424-1.154.996-1.543.309-.391" clip-path="url(#pacf088cbbc)" style="fill:none;stroke:#000"/><path d="m354.965 234.917.13.066.54.141.873.11.962.017M354.965 234.917l-.153-.076-.54-.36-.296-.11-.578-.142-.786.044-.246.076-.307.197-.037.37.049.307.086.24.074.13.307.23M354.965 234.917l-.583.284-.59.24-.54.164-.37.098-.344.12M347.868 239.983l.368-.207.393-.284.197-.23.345-.272.491-.273.455-.382 1.364-1.125.394-.35.306-.403.21-.35.147-.284M352.563 240.267l1.585-.458.725-.175.843-.185M363.123 232.88l-.336-.208-1.04-.438-.917-.365-1.686-.944M350.96 248.544l.541.596.289.281.26.124.261.067.29-.042.27-.058.41-.14 3.902-1.546M360.327 274.146l-1.265-.423-1.136-.256-2.357-.877M380.743 282.751l.734-3.985-.01-1.823-.051-1.505-.028-.289M385.813 274.15l-1.694.296-1.281.288-1.45.415M385.813 274.15l1.712-.309.519-.029.55.115.633.274.59.327.324.352.064.354-.254.486-.318.35" clip-path="url(#pacf088cbbc)" style="fill:none;stroke:#000"/><path d="m397.89 275.082-.512-.141-.333-.106-.395-.213-.861-.595-.496-.23-.73-.244-.567-.159-.973-.36-.611-.403-.574-.35-.794-.37-.568-.188-.47-.043-.568.058-.503.187-1.297.562-.973.547-.47.475-.382.642M397.89 275.082l-.017.054 1.121.973.889.599.862.391.857.358" clip-path="url(#pacf088cbbc)" style="fill:none;stroke:#000"/><path d="m401.383 273.077-.381-.339-.41-.376-.41-.088-.409.025-.395.163-.296.301-.438.703-.452 1.003-.303.613M444.527 203.945l-2.144 1.137-1.462.846-1.61 1.18-.846.676-1.017 1.042-.918 1.367-.79 1.58-1.869 3.888-.684 1.425-.78 1.636-.073.11M443.82 221.705l-4.884 1.87-.353.037-.255.013-.338-.088-.565-.226-.297-.176-.861-.74-2.16-1.893-1.773-1.67M458.326 216.517l-2.57-2.421-3.77-3.5-7.459-6.65M543.184 169.502l1.963.941 1.695.514.974.214 1.27-.004 1.201-.21 1.345-.51 2.396-1.836 1.088-.952.609-.545M561.602 174.739l-1.906-1.832-.706-.715-.353-.677-.338-.577-.467-.778-2.107-3.046M557.74 189.954l.844-.201.243-.173.13-.389.178-.951.73-1.124.15-.241.147-.301M557.74 189.954l-.048-.46-.065-.318.805-2.527.128-.12.628-.043.974.088M557.627 190.66l.081-.417.033-.289M586.579 224.36l-1.031-.84-1.059-.753-1.581-1.392-2.288-2.847-1.157-1.468-1.172-1.292-.862-.978-.733-.753-2.471-2.508-1.3-1.518-1.157-1.054-1.172-1.342-.593-.765-.621-.665-.24-.477-.381-.902-.621-1.142-.89-1.693M557.439 209.951l.612-.486.847-.846.982-1.43.889-1.33 1.017-1.091.875-.552 1.497-.828 1.562-.613.852-.353.678-.451" clip-path="url(#pacf088cbbc)" style="fill:none;stroke:#000"/><path d="m543.184 169.502.77-.094.79.044.79.063 1.018.138.91-.007 1.059-.307 1.214-.803 1.003-.665.452-.52.423-.508.184-.534.247-.652.155-.47 1.113-1.763M554.233 207.378l3.206 2.573M566.445 218.578l-3.064-2.848-2.626-2.195-2.964-2.834-.198-.376-.154-.374M414.697 332.814l.336.18 1.74 1.454 1.808 1.455 2.259 1.906 1.634 1.505.48.828.028 1.242-.134 1.623.141.615 1.158 1.166.939 1.185-.01 1.066-.34 1.354-.903 1.003-2.136 1.443-1.93 1.316-.315.884.149 1.13 1.306 1.517 3.092.971 3.219.627 1.048.452.498.677.099 1.129-.021.852.028.57.19.296.438.037.887-.39 1.242-.652.843-.375 1.412.119 1.256.721 1.44 1.066 1.116.74.833.64.375 1.197.324 1.173.297 1.216.14.42.24.225.212-.043.368-.408.914-1.073.434-.429 1.24-.435.96-.163.945.191 1.288.68 1.278 1.392.65.514.473.251.494.031.357-.063 1.048-.626" clip-path="url(#pacf088cbbc)" style="fill:none;stroke:#000"/><path d="m464.993 390.646.203-1.224.249-1.234.099-.702.402-1.296.344-.862.147-.535.074-.843-.205-.615-.473-.489-2.005-.934-.847-.445-.897-.339-.776-.131-.812-.063-.579-.207-.536-.458-.48-.59-.664-1.34-.134-.728.156-1.812.155-1.48-.002-.655.002-.43-.445-.426-.953-.37-.974-.3-.812-.22-.438-.106-.303-.232-.162-.402-.198-.526-.438-.558-1.341-1.323-.897-.821-.89-.734M335.303 488.549l1.935.595 2.245.527 2.237.22 3.12 1.447 1.963.483 2.062.27 2.414-.082 1.348.27.905.576 1.722 1.705.635.596.805.188 2.082-.483 1.497-.082.86.264.65.576 1.024 1.806 1.186.921 2.668 1.317 2.465.595 5.997-.786 5.432-1.508 1.675-.212 1.111.089 9.603 3.734 5.252 2.175.982.385.494.254M606.62 536.607l7.097-.07M467.022 519.12l.142.078 2.99 4.528 5.704 7.888 1.633 1.994 1.302.793 2.246.43 4.339-.974 3.374-1.253.735-.514 3.572-4.529.937-.85 4.07-2.04 1.194-.188.991.321.696.714 2.628 4.827 1.234 1.542.487.364.804.038.671-.251 2.852-2.45 1.44-.928 2.98-1.561.536-.176.452-.013 2.012.327.812.043.734-.2 1.362-.74 1.214-.47 1.956-.476 2.98-.483.875-.226 2.02-.82 1.213-.264.77-.006.705.307.494.69.622 3.66.494.978.388.476.572.257.692.013M467.022 519.12l-.437-.235-.767-.19-.74.21-.42.22" clip-path="url(#pacf088cbbc)" style="fill:none;stroke:#000"/><path d="m466.324 516.777-.13.117-.707 1.041-.828 1.19M466.324 516.777l-.092.761.149.695.64.888M565.713 572.038l.847-3.961.026-.456M363.457 353.591l.641 2.503M374.549 325.819l2.606 1.552M380.743 282.751l8.281-1.303M377.091 380.106l.477-1.116-.042-.401-.198-.702M610.897 348.134l-.146-2.756.027-3.166v-.201l-.077-1.18-.205-.933-.02-.596.592-.59 2.655-1.072M357.174 386.997l.451.256.671-.175.438-.445.113-.451-.198-.47-.36-.954-.473-.595-2.245-2.157-2.16-1.784M213.979 435.145l.494.759.261.57-.056.633-.325.821-.24.496.07.69M402.722 352.005l-1.003.978.014.314.325.238.72-.063 2.061-.276 3.671-.627 3.191-.564 2.146-.176 1.934-.35.466-.477v-.677l-.706-4.477-.466-3.235-.395-2.044.014-.433.276-.314.699-.344.127-.245-.05-.363-.812-4.415-.237-1.64M335.303 488.549l.248-.376.077-.289.134-1.38.074-.205.17-.082.222.066 1.384 1.094.727.175.515-.138 1.25-1.172.339-.163 5.485-.803 1.482-.338.269-.163.12-.22M614.936 559.588l.746.126 1.8-.01h2.597M620.069 559.43l-2.601.02-1.792.002-.74.136M628.56 559.367l-8.491.064M620.069 559.43l.01.273M401.056 219.077l2.583.015M401.056 219.077l-3.912-.023M397.032 215.605l3.967.05.057 3.422M396.072 215.505l.96.1" clip-path="url(#pacf088cbbc)" style="fill:none;stroke:#000"/><path d="m397.144 219.054.17-.351-.282-3.098M395.154 219.004l1.99.05M249.008 316.993l-.014-.264.014-.564-.155-.54-.381-1.19-.127-.54-.127-.527-.057-.564V311.6l.297-1.53.056-.539.056-.753v-1.6680000000000001l.114-.564.099-.865-.1-.527.226-.288.212-.088.55-.226.41-.464.043-.577v-.539l-.029-.565-.197-.539M111.094 363.027l.085-.313 1.017-.853.903-1.016.325-.5.31-.891.594-1.33.24-1.203.395-.953.184-.577-.128-.502-.268-.426-.48-.263-.438-.026" clip-path="url(#pacf088cbbc)" style="fill:none;stroke:#000"/><path d="m100.73 369.197 1.271-.351.438-.389.255-.489.663-1.605.918-1.467.72-1.053.494-.527.819-.439.607-.138.593-.088.593.05.833.101.593.087 1.567.138M150.966 350.1l-.607-.327-.593-.126-.593-.125-.593-.2-.508-.314-.537-.364-.593-.2h-.65l-.635.087M150.966 350.1l.438-.126.677-.176.495-.188.41-.402.254-.489.14-.526.127-.54.128-.2.452-.313.606-.05.65.137.607.088.579.125.607.026h.424l.31-.276.156-.565-.142-.527-.55-.3-.58-.2" clip-path="url(#pacf088cbbc)" style="fill:none;stroke:#000"/><path d="m154.312 355.617-.084-.301-.268-.49-.34-.451-.296-.564-.226-.577-.423-.439-.523-.25-.917-.264-.452-.288-.17-.653.113-.501.028-.414.212-.326" clip-path="url(#pacf088cbbc)" style="fill:none;stroke:#000"/></g><g id="PatchCollection_1"><path d="M304.409 392.347v-1.175l1.583-2.366 2.106-1.224.484.613v1.39l-.205.677-.596.894-.317.629v.347l-.838.58-.615.165-1.006.149-.354-.232zM336.54 393.072l-.052.124.097.137.08.136-.023.162.018.243.108.2.14.165.143.149.159.074.294-.066.139.045.093.075.21-.02.135.036.14.008.544-.355.257-.112.181-.012.159-.153.167-.054.186-.083.131-.111.168-.025.111.054.164-.067.232-.111.056-.116.028-.087.107-.207.019-.132.07-.116.107-.145.037-.112-.033-.111-.106-.07-.238-.196-.046-.066-.06-.06-.09-.066-.303-.115-.106-.029-.064-.013h-.29l-.169.073-.088.065-.12.073-.188.026-.209.114-.22.052-.394-.005-.217-.086-.315-.078-.16.002-.113.073-.037.183-.125.148-.146.138-.152.123-.131.135-.129.094z" clip-path="url(#pacf088cbbc)" style="fill:#00f;fill-opacity:.8"/></g><path id="PatchCollection_2" d="m587.378 567.023-.031 3.284 5.485.041.031-3.284z" clip-path="url(#pacf088cbbc)" style="fill:#90ee90;fill-opacity:.8"/><g id="PatchCollection_3"><path d="m244.997 544.5-.252.636-.094.338-.08.448-.44.789-.045.132-.352.69-.058.664-.077.334.032.387.08.341.16.287.027.107.26.496.206.283.192.146.227.105.5.177 1.1.539.43.23 1.453-1.448-.408-.305-.05-.058-.31-.246-.065-.101-.195-.218-.36-.522-.179-.304-.196-.405v-.058l-.13-.348-.098-.536-.114-.406-.033-.275v-.464l-.065-.463-.115-.478-.032-.464-.05-.13-.146-.059-.212-.014-.294.03-.182-.04zM260.85 551.706l-.052-.358.002-2.198.066-.53.161-.465.28-.383.328-.362.161-.508.302-.552.066-.507-.074-.359-.832-.29-2.012.059-.397.49-.462 1.186-.351.404-.47.426-.845.62-.89.958-.33.256-.73.28-.472.216-.61.533-.988.662-1.414.645-.186.319.025.169.355.018 2.06-.016 2.014.153 2.106-.101.805-.006 1.207.053 1.515-.033-.193-.4zM292.224 221.366l.178-.476.307.008.32.332.63.07.456-.304.29-.406.163-.006.18-.329 2.012-.73.174-.285.193-.249.184-.42.077-.25v-.223l-.058-.224-.029-.988-.029-.094v-.146l.107-.534-.01-.137-.107-.318-.144-.051-.117.094-.155.19-.212.343-.252.24-.126.19-.029.051v.12l.068.31-.048.25-.097.008-.135-.044-.378-.189-.164.035-.068.06-.454-.223-.242-.146-.242.026-.27.094-.358.206-.146.009h-.068l-.144-.043-.117-.06-.173-.146-.165-.069-1.19.25-.96.052-.428.048-.125.077-.145.129-.261.361-.194.146-.416.155-.27.051-.175-.009-.174-.077-.3-.034-.251.025-.407.138-.02.155.523.97.552.847.327.596zM335.045 258.998l-.29-.537-.963-.342-1.816-.398-1.14-.213-.995-.087-.745.133-.278.637-.03.508-.602.322-.496.131-.349.637-.456.512-.711.037-.536-.313-.745.133-.029.666-.168.954.114.697.36.441.36.537.005.476.257.823.18.348.571.186.146.411.006.54-.422.479-.246.224-.957.262-.674.132-.46.13.059.325 1.318 1.289.186 1.03.283.804.287 1.006.534.802.46.759.28.356 1.43-.011.92-.814.819-.948.344-.787.663-1.395.345-.675.515-1.26.214-1.121.337-1.46.291-.988-.107-.65.616-1.164.277-.763.6-.259 2.31-.177.954-.388.813-.483.456-.67-.003-.254-.393-.219-1.1.168-1.243.073-.748-.153zM453.58 321.175l-.843-.507-.18.19-.192.144-.447.277-.302.231-.4.219-.417.032-.548-.225-.13.053.03.16.004.426.14.455.038.365.106.364.175.425.378.331.72.269.015-.011 1.137-1.554.257-.47.464-.752zM464.202 328.221l-.544-.373-.12-.355.112-.441-.26-.228-.826-.434-.636-.204-1.152-.158-.633-.016-1.502.033-1.257.995-.255.337-.068.231.027.336.074.376-.276.526-.212-.06-.029-.483-.328.045-.456 1.324-.042.483.006.523.17.502.402.395.423.038.399-.066.374-.108.56-.34.417-.485.23-.463.373-.275.188.04.401.227.191.313.306.123.331.207.027.356.006.503.376.123.278-.38.352-.023.378.206.072.23.31.48.684.245.493.059.462.185.268-.186.675-.613.373-.186.24.211.037.274.209.393.238.029.729-.62.07-.29-.032-.858-.1-.649-.475-.415-.33-.165-.737-.916zM184.938 303.469h-.181v-.236l.056-.11.279-.165.111-.322.014-.16.028-.063.098-.173.195-.15.028-.247-.028-.012-.195.05-.112.16-.07.025-.209.013-.558-.025-.209.025-.21.05-.069.036-.167.26-.238.15.042.086.349-.087.21.025.139.136.056.186.013.21-.083.174-.153.198-.196.31-.098.347.028.223.251.632.251.161.098.21.028.124.21-.012.125-.05.111.1-.014.173-.097.198-.321.186-.125.124-.042.186.014.248.013.062.112.16.07.174.097.075.726-.26.18-.038.07-.037.224-.136.488-.558.39-.396.294-.235.111.173-.167.198-.098.161-.167.496-.168.26-.07.173-.083.124-.14.149-.167-.037-.07-.037h-.209l-.265.061-.348.199-.07.136-.042.298.125.235.377.087h.432l.447-.05.153-.124.14-.05.153.063.056.21v.074l-.056.174-.14.223-.153.111-.25-.024-.266-.21-.363-.125-.056.025-.195.223-.18.272-.127.296.084.347-.014.26-.083.297-.028.199-.363.334-.014.223.042.149.084.16.167.1.251-.013-.014.273-.028.062-.028.223.014.198.098.186.404.112.154.074.243-.105.321.204.412.091.495-.146.248-.018.33-.074.371.018.35-.183.021-.348-.247-.53-.124-.184-.248.11-.185.037-.041-.037-.042-.146.165-.129.165-.201v-.238l-.062-.055-.556-.22-.268-.183-.186-.257-.31-.64.042-.129.227-.147.19-.512.014-.1.125-.16.405-.025.168.037.125-.111.14-.21.027-.076.042-.371-.098-.36-.013-.37-.126-.261-.432-.496-.238-.31-.264-.47-.475-.224-.446-.098-.154-.112-.056-.173.112-.174.182-.161.013-.099.015-.471-.098-.21-.237-.05-.53.037zM208.783 161.012l.027-.012.07-.137.055-.161.069-.45-.112-.261-.041-.05-.416.087-.11.063-.333.074-.263.2-.29.162-.385.361-.097.05-.04.05-.428.186h-.055l-.302.149-.248.086-.178.112-.054.136.002.198.114.309.21.27.237.43.278.331.056.11-.04.208-.15.098-.04.061v.037l.098.195.041.037.07.121-.136.122-.19.097.26.146-.01.292.096.145.247.06.15.122.028.048.302.278.029.241.125.481-.027.06-.148.132-.542.276-.175.18-.175.083h-.204l-.205-.18-.125-.215-.264-.588-.083-.096-.165-.12-.164.011-.201.169-.142.28-.325.474-.093.232-.042.056-.084.25-.25.418-.074.084-.512.232-.293.111-.209.13-.063.177v.065l.094.176.095.121.073.167.03.307-.051.083-.031.019-.178-.01-.115-.065-.24-.194-.23-.251-.193-.075h-.188l-.188.103-.167.13-.23.353-.136.12-.147.038-.25-.066-.157-.083-.199.111-.177.298-.074.24-.01.242.094.177.042.176.052.084.272.186.154.347.147.241.26.298.179.102.146.12.104.204.283.158.03.038.022.12.084.14.146.083.293-.027.083.12-.02.27-.022.028.042.157.042.075.125.12.094.13.21.038.219-.047.314-.213.125-.047.02.177-.145.278-.043.13.032.186.073.176.052.056h.126l.073-.028.261-.158.095-.102.094-.065.156-.083.44-.112.114.074.022.056.125.084.397.009v.14l-.063.092-.05.287-.233.496-.279.262-.077.151-.093.4-.093.22-.258.078-.044.03-.41.384-.211.364-.144.482-.11.167-.233.06-.207.02-.374-.01-.182.191-.272.393-.442.06-.114-.03-.34-.15-.306-.07-.136.05-.272.14-.147.212-.262.09-.056.04-.238.061h-.114l-.113-.04-.84-.121h-.34l-.158.08-.205.242.024.565-.057.1-.284.02-.193.04-.045.03-.034.031-.056.171-.024.01-.079.253-.022.03-.148.08-.09.091-.205.292.034.312.136.142.216.05.499-.02.227.11.113.071.057.06.068.101v.262l-.034.08v.162l.045.131.034.03.465.202v.09l.144.01.063.122-.053.226-.022.038-.042.018-.042.133v.282l.063.104.455-.29h.027l.197-.121.143-.194.159-.097.077-.11.477-.415.334-.184.054-.012.241-.148.027-.062.201-.173h.203l.176.124-.092.344-.16.332-.079.243-.119.23-.198.267-.317.216-.12.036-.316.168-.287.262-.314.226-.05.094-.372.436-.125.211-.037.105-.077.059-.299.51-.023.092.027.436.322.314.053.279.254.475-.013.277-.123.216-.064.02-.231.196-.296.176-.066-.02-.248-.274-.262-.078-.351.392-.179.37-.044.486.007.175-.02.038.013.808-.061.058-.071.324-.02.02.03.209.518.72.003.075.045.056.074.264-.14.187-.054.225.24.224.438-.15.042.019.202.335.239.205.19.037.399-.018.228-.112.01-.372.265.58.03.31-.016.285.059.245.058.13.16.077.29.039.131.168.058.193v.258l.03.156.188.245.16.064h.059l.32-.103.232-.142.101-.22.102-.141.03-.078v-.078l.203-.632.116-.142.131-.052h.073l.13.065-.014.038-.116.142-.175.271-.087.207-.073.117-.029.232-.348.478.029.103.145.039.174.038.393-.012.247-.336.189-.374.087-.362.029-.284.058-.259.16-.206.058-.116.305-.233.058-.064.407-.285.524-.477.29-.155.48-.297.13-.052.32-.206.277-.35.13-.219.117-.27.014-.246-.029-.103.217-.391v-.067l.197-.221.15-.09.212-.022.189-.325.063-.33-.14-.31-.076-.034-.486-.081h-.6l-.203.093-.036.058-.044.32-.082.239-.167.303-.117.268-.387.01-.96.266-.387-.023-.04-.043-.14-.044.139-.245-.065-.185v-.23l.065-.207v-.22l.025-.195.052-.116.169-.196.181-.184.273-.127.52-.115.544-.242.325-.08.337-.059h.493l.26-.046.285-.138.194-.046.312-.046.376-.023.234-.08.247-.094.013-.022.467-.254.142-.265-.103-.3.039-1.395.005-2.083-.078-1.233.026-1.026.052-.392.195-.186-.014-.07-.207-.472-.039-.334v-.369l-.273-.265-.168-.012-.207.323-.105.023-.039-.011-.116-.161.13-.082.052-.08.025-.162-.025-.057-.182-.207-.208-.324-.026-.207v-.069l.338-.311.026-.081.077-.104.065-.035.067-.368-.014-.277-.055-.133-.042-.192v-.327l.095-.205.04-.183.137-.17.014-.072v-.122l-.083-.231-.055-.085-.028-.22.096-.097.37-.122.206-.233v-.306l-.055-.11-.454-.492.032-.208-.137-.229-.054-.205.081-.145.081-.387v-.133l-.054-.036-.083-.11.014-.072.123-.17.054-.134-.027-.097-.137-.11h-.028l-.04-.036-.124-.025-.178-.121-.028-.11v-.05l.04-.072.247-.183.04-.22-.082-.123-.193-.123-.138-.22.055-.21.11-.11.109-.173v-.11l-.139-.31-.083-.085-.125-.186-.221-.198.068-.199.055-.024.318-.012.4-.1.263-.174.055-.15.028-.398-.098-.224-.125-.414.17-.335.014-.17.109-.386.027-.194.028-.692-.069-.134-.014-.39.028-.183v-.196l-.18-.54-.234-.579-.014-.32-.083-.149-.152-.198v-.05l.151-.185.18-.125zM208.578 191.656l-.123-.212.023-.203.09-.122.023-.082-.123-.235-.035-.041-.226-.113-.306-.01-.361.143-.112.154-.055.234-.088.174.036.242-.01.131-.033.05-.167.101-.37-.04-.124-.05-.27-.01-.3.12-.39.43-.095.228-.152.139-.476.364-.021.039-.027.166.208.292.059.136.006.184-.063.087-.14.106-.06.124.006.22.028.163.023.028.088.038.288-.19.455-.144.281-.124.459-.077.24-.067.162-.116.495-.173h.085l.033-.03.351-.135.21-.175.153-.264-.033-.225-.133-.237-.079-.278-.078-.169.032-.12.257-.04.224.09.145-.07.113-.28z" clip-path="url(#pacf088cbbc)" style="fill:#006400;fill-opacity:.8"/></g><g id="PatchCollection_4"><path d="m406.737 210.603.24.514.398-.146-.24-.514zM389.866 221.355l.659-.01-.015-.752-.658.01zM389.158 221.278l.02.702.635-.015-.02-.702zM371.351 247.932l.398.062.043-.219-.398-.062zM380.354 226.48l-.582-.482.06-.057-.194-.16-.577.55.865.717.187-.179-.09-.074zM408.046 211.269l-.165-.187-.13.091.163.187zM381.125 235.247l-.13.114.437.398.521-.451-.607-.553-.39.338zM397.665 226.782l.489.047.117-.98-.489-.046zM372.21 248.943l-.012-.464-.58.013.014.464zM357.126 250.338l.4-.058-.047-.256-.4.057zM386.048 216.866l.144.27.51-.214-.146-.272zM378.874 250.906l.525.139.121-.361-.525-.14zM416.3 218.863l.04.22.275-.041-.041-.22zM407.363 210.154l.42.624.368-.196-.42-.624zM349.984 249.864l.474-.088-.217-.925-.474.087zM360.787 250.65l-.074-.359-.785.128.115.559.614-.1-.04-.2zM359.978 229.12l.211-.246-.281-.191-.211.245zM357.771 221.922l.1-.595-.56-.075-.1.595zM400.41 221.74l.006.346.875-.011-.01-.577-.323.004-.005-.288-.395.005.008.52zM348.888 248.742l.54-.152-.106-.296.219-.061-.162-.457-.758.212zM405.732 210.899l.581.375.27-.328-.583-.375zM369.352 245.273l.298-.037-.058-.37-.297.038zM365.137 230.06l.54-.37-.266-.307-.54.37zM382.982 235.445l.454-.367-.316-.307-.453.366zM406.822 221.213l.424-.068-.076-.377-1.026.164.115.57.602-.095zM376.516 232.668l-.638-.505-.267.266.638.505zM372.53 238.498l1.086.03.018-.519-1.086-.03zM382.438 233.738l.35.322.263-.225-.35-.323zM401.947 221.46l.014.627 1.195-.023-.013-.556-.31.005-.01-.383-.559.01.007.314zM356.967 226.326l-.96-.206-.12.439.961.205zM350.417 238.396l.418.35 1.153-1.084-.418-.35zM369.644 239.511l.402.177.27-.485-.403-.176zM406.843 213.815l.552-.527-.314-.26-.553.527zM371.216 232.012l-.247.223-.445-.389-.296.268 1.061.928.544-.49zM350.295 248.888l.075.278.408-.087-.076-.279zM360.552 232.518l1.077.237.112-.401-1.077-.238zM428.173 219.418l.522-.012-.02-.69-.523.013zM364.668 231.312l.576-.476-.81-.774-.576.475zM404.613 220.03l-.475-.152-.165.406.476.152zM407.539 214.615l.226-.18-.249-.248-.226.18zM359.477 249.468l.202.714.724-.161-.202-.714zM406.64 230.695l.101.717.542-.06-.1-.717zM380.963 221.38l.276.525.405-.169-.277-.524zM360.49 228.711l-.403.34.441.412.402-.34zM376.63 232.763l.4.35.382-.343-.401-.35zM407.702 231.854l.352-.01-.011-.289-.352.011zM383.77 235.11l-.168-.156-.242.204.168.156zM394.716 222.187l.01-.657-.565-.007-.01.658zM362.299 230.742l.173-.117-.18-.21-.174.116zM353.52 240.381l.605-.027-.014-.25-.606.027zM406.19 221.539l.103.574.674-.096-.103-.574zM424.664 213.874l.646.456.21-.235-.646-.455zM405.293 219.47l-.26-.085-.215.512.26.086zM376.742 231.289l.426.36.395-.37-.426-.36zM361.318 231.646l.496.34.113-.13.39.266.519-.598-.426-.29-.307.353-.46-.315zM356.116 239.251l1.044-.031-.022-.576-1.044.03zM387.324 221.863l.004-.283-.495-.006-.003.285zM398.226 224.024l.016.471.55-.014-.016-.471zM394.87 226.48l-.841-.03-.027.6.446.016-.006.12.395.014zM378.834 250.07l-.793-.263-.225.536.794.262zM353.64 247.777l.194.41.401-.15-.194-.41zM364.247 234.595l.31.012.02-.388-.31-.012zM370.564 252.785l.254.232.233-.2-.254-.233zM422.303 217.679l-.143-.547-1.17.24.143.547zM357.203 240.492l.182-.014-.02-.206-.182.014zM361.09 238.142l.21.285.42-.244-.21-.285zM382.062 236.384l.46-.401-.62-.563-.461.4zM378.127 254.452l.63.082.225-1.37-.63-.082zM356.718 217.34l.32-.091-.206-.581-.321.09zM376.23 232.408l.296.235.369-.368-.296-.234zM351.38 240.828l.179.617.609-.14-.179-.617zM412.071 218.824l.686-.238-.162-.37-.686.238zM396.34 221.5l-.593-.012-.016.685.338.006.003-.087.508.01.01-.452-.254-.005zM352.331 237.2l1.664.056.021-.501-.662-.022.03-.72-.826-.028-.03.727-.176-.005zM355.679 226.227l-.289-.07-.17.547.288.07zM376.148 233.467l.303-.29-.928-.763-.303.29zM375.184 234.845l-.127-.119-.342.288.482.453.633-.533-.355-.333zM406.635 220.09l.326.216.121-.144-.325-.217zM358.299 254.759l1.397-.002-.004-2.145-1.398.002zM353.297 247.45l.155.3.233-.094-.155-.301zM406.734 220.442l-.439.055.06.372.438-.055zM377.727 251.72l1.298.176.08-.474-1.297-.174zM389.221 231.311l.634-.248-.18-.362-.633.249zM361.16 236.309l.42-.41-.33-.268-.421.41zM379.467 232.083l.597.49.345-.33-.597-.49zM357.678 217.888l.939-.191-.147-.566-.939.191zM381.618 234.006l.305-.29-.475-.395-.306.29zM424.014 214.225l.294.245.158-.151-.293-.245zM377.355 233.291l.488.4.362-.348-.489-.4zM374.304 252.292l.205-.665-.563-.138-.207.665zM421.795 218.666l.02.494 1.706-.055-.02-.494zM357.879 232.865l.283-.44-.213-.107-.283.439zM379.505 224.323l.967.866.555-.49-.31-.277.362-.32-.522-.468-.282.249-.135-.12zM397.586 214.75l-.226-.006-.011.452.225.004z" clip-path="url(#pacf088cbbc)" style="fill:#a9a9a9;fill-opacity:.8"/><path d="m380.152 226.237.499-.458-.28-.24-.498.458zM371.947 234.035l-.902-.438-.186.302.323.157-.166.27.579.281zM405.51 210.164l-.297-.243-.408.39.296.244zM371.56 232.953l.762.623.72-.696-.762-.623zM380.03 234.414l.7.569.4-.389-.698-.568zM394.665 227.693l.198.003.008-.427-.198-.002zM396.52 218.063l.225-.009-.016-.363-.762.029.041.876.536-.02zM360.237 235.554l.427.363.592-.549-.426-.363zM376.667 231.275l-.34.337.806.642.34-.337zM365.01 233.223l-.875.013.01.54.875-.014zM357.196 239.214l.225-.01-.015-.274-.225.01zM411.654 217.703l.096.448.777-.132-.097-.448zM355.09 247.272l-.132-.37-.354.099.133.37zM355.228 235.376l-.592.017.015.439.593-.018zM359.034 248.91l.172-.041.176.585.553-.131-.247-.82-.724.172zM423.316 228.944l.038 1.04.536-.015-.038-1.04zM366.581 240.2l-.66.154.309 1.044.66-.153zM412.678 217.601l.188-.038-.05-.19-.188.038zM407.33 212.147l.536-.528-.408-.328-.537.527zM378.749 231.17l-.223-.183-.225.215.222.184zM383.89 217.403l.607.386.466-.578-.607-.386zM355.856 233.988l-.282-.007-.008.226.282.007zM378.394 232.976l.27-.27-.497-.393-.27.27zM405.795 211.953l-.303-.289-.532.441.303.289zM379.067 226.36l-.465-.396-.3.279.466.394zM359.183 232.322l-.356-.333-.312.263.172.161-.513.432.427.4.632-.532-.244-.228zM410.376 219.296l-.536.012.026.846.536-.013zM357.04 234.874l.303-.729-.596-.195-.303.728zM417.922 226.463l-.63.017-.006-.182-.4.01.024.697.127-.004.013.401.903-.024zM373.8 248.357l-.514.01-.007-.25-.36.007.021.82.875-.018zM398.801 222.087l.032-.463-.648-.035-.032.463zM402.342 231.174l.06.129-.497.18.188.408.895-.324-.246-.538zM417.703 228.251l-.012-.357-.523.014.013.357zM399.522 222.182l.029-.575-.64-.026-.028.576zM410.792 217.831l-.244-.456-.604.254.243.456zM357.026 246.187l.024.69.41-.012-.025-.69zM380.243 232.9l.515.478.42-.357-.514-.478zM387.645 230.147l.352-.17-.19-.31.478-.232-.231-.377-.831.403zM354.135 239.977l.017.389.91-.032-.016-.388zM425.389 215.762l.304-.354-.51-.347-.306.355zM351.232 242.337l-.63.055.054.484.63-.054zM360.506 251.214l.195.575.504-.134-.194-.576zM359.223 230.588l-.605-.286-.27.45-.154-.074-.243.406.759.359zM425.024 215.136l.217-.315-.538-.292-.217.313zM386.46 253.315l-.36-.119-.137.331.36.118zM357.11 245.607l.452.01-.004.15.437.01.014-.488-.184-.004.01-.314-.706-.016zM426.683 215.975l.324-.391-1.067-.698-.324.39zM380.807 224.45l.472.433.487-.42.225.205.502-.433-.698-.638zM380.34 225.324l.424.385.289-.25-.424-.385zM358.54 221.862l1.185.118.069-.552-1.54-.152-.04.322.354.035zM425.79 214.5l-.174-.09-.146.226.174.09zM350.171 248.329l.899-.33-.195-.418-.898.33zM395.67 222.112l.014-.551-.523-.01-.013.55zM411.442 217.257l.754-.252-.13-.308-.754.252zM374.627 231.569l.48-.4-.845-.801-.48.4zM350.991 242.932l.023.25.274-.02-.022-.25zM352.549 234.807l-.212-.004-.003.188.211.004zM410.7 215.625l.193.339.684-.31-.194-.338zM408.241 214.113l-.338-.315-.402.342.339.314zM358.15 243.824l.537.014.03-.921-.536-.014zM395.468 221.133l.833-.018-.008-.301-.833.018zM356.114 247.003l-.11-.592-.455.068.111.591zM360.562 233.355l-.092-.277-.455.12.092.276zM359.615 232.016l.303-.52-.367-.17-.303.52zM398.791 224.533l-.55-.005-.005.382.55.005zM410.466 209.484l-.253-.47-.321.137.252.47zM400.918 230.565l.168.597.805-.18-.167-.596zM397.335 214.546l-.597-.019-.03.696.599.02zM418.872 217.993l.074.33.225-.04.125.56.35-.062.169.756.587-.103-.215-.963.421-.074-.198-.889.447-.078-.24-1.076-.424.075-.054-.239-.664.117.058.26-1.19.21-.116-.514-.253.044.125.56-.36.064-.044-.2-.494.087.267 1.2.892-.157.048.213zM417.64 219.782l.205-.043-.09-.34-.711.148.209.79.507-.105zM373.763 238.726l.97.054.048-.674-.59-.033-.008.112-.38-.02zM386.066 232.4l-.19-.18.455-.381-.302-.286-.745.624.493.465zM408.946 209.323l.409.695.37-.172-.408-.696zM403.721 221.31l.502.14.197-.561-.502-.139z" clip-path="url(#pacf088cbbc)" style="fill:#a9a9a9;fill-opacity:.8"/><path d="m378.827 231.408.436.363.45-.427-.829-.69-.323.306.393.328zM382.481 233.35l.331-.279-.592-.557-.331.279zM350.387 240.975l.096.363.354-.073-.096-.364zM378.045 230.692l.41.326.475-.471-.411-.327zM385.935 217.31l.211.492.375-.127-.212-.492zM429.832 225.193l-.874.297.148.346.874-.297zM412.93 219.357l-.17-.38-.561.197.169.38zM416.89 227.893l.622-.012-.011-.445-.622.012zM407.205 233.055l.612.3.239-.383-.611-.3zM398.015 222.073l.049-.727-.782-.041-.05.727zM421.876 222.48l2.26-.024-.028-1.981.269-.003-.005-.333-.287.003-.005-.319-.903.01.025 1.893-1.336.015zM415.812 218.769l2.552-.457-.084-.37-.87.156-.039-.173-1.682.301zM377.714 234.483l.398-.395-.397-.314-.397.394zM357.125 240.424l-.096-.576-.677.09.096.576zM355.227 247.407l.47-.077-.13-.627-.47.078zM422.8 229.578l.019.476.493-.015-.017-.476zM423.8 230.008l-.324.018.015.212.324-.018zM353.144 247.158l.06.17.206-.058-.062-.17zM386.531 233.458l.225-.217-.302-.247-.113.108-.468-.383-.218.21.51.418.107-.101zM362.552 236.834l-.794-.716-.866.755.83.75.194-.17.176.16.495-.433-.211-.191zM361.202 250.456l-.048-.295-.207.026.047.295zM358.184 233.573l-.405-.305.178-.186-.333-.251-.484.506.737.557zM354.092 235.732l.006.176.493-.014-.015-.45-.325.008.01.276zM382.646 234.251l-.602-.507-.401.376.468.395.204-.191.134.112zM358.432 245.356l-.338-.012-.018.426.338.012zM359.664 232.572l.503.346.267-.306-.504-.346zM388.319 222.637l.438-.005-.007-.564.226-.002-.003-.234-.14.002-.006-.402-.203.002.004.326-.573.006.005.438.254-.002zM405.186 221.527l-.009-.276-.522.014.025.77.894-.023-.016-.494zM413.183 218.668l-.106-.379-.194.043.105.378zM396.815 214.218l.366-.02-.017-.233-.365.02zM360.042 230.747l-.376-.199-.155.232.376.198zM379.191 227.169l.38-.375-.41-.328-.38.375zM629.13 567.662l2.634.015.017-2.444-2.35-.013-.002.2-.283-.001zM622.109 562.004l.04 3.083 2.768-.03-.054-4.035-1.497.015.016 1.154-.212.002-.003-.2zM627.936 556.447l.386-3.337-3.116-.284.362-3.126-4.485-.409-.11.955-.238-.021.089-.77-2.04-.186-.201 1.738.028.002-.086.744.126.012-.286 2.468 3.158.288-.009.074.95.087-.145 1.253zM621.817 544.094l-1.477-.128.085-.77-1.39-.12-.216 1.962.16.013-.03.261.274.024-.063.571.35.03-.08.72-.51-.044-.093.845-.113-.01-.132 1.205.959.083-.039.347.308.027.031-.285 1.385.12.12-1.085-.742-.064.02-.17.265.023.143-1.304.532.047zM615.083 557.245l-1.454.024.034 1.62 1.453-.023z" clip-path="url(#pacf088cbbc)" style="fill:#a9a9a9;fill-opacity:.8"/><path d="m621.705 555.142-.661-.035-.026.387.112.006-.064.957.548.03zM621.801 557.412l-.005-.15-.691.019.028.826.614-.017-.024-.676zM628.825 570.327l-.015 1.04.514.007.016-1.04zM629.028 573.992l.564.01.017-.676-.565-.01zM627.734 573.41l-.565.008.015.882.564-.007zM625.538 574.177l.662-.02-.025-.676-.662.02zM624.54 574.406l.465.015.007-.158.352.011.028-.706-1.34-.042-.018.48.521.017zM623.264 573.72l.024.714.705-.02-.032-.951-.437.012.008.238zM622.566 573.948l.542-.014-.017-.502-.542.015zM621.853 573.973l.6-.008-.01-.585-.6.009zM621.028 574.426l.657-.017-.01-.308-.098.003-.025-.79-.558.014zM620.793 573.44l-.438.008.015.626.438-.008zM619.906 574.346l.367-.012-.036-.864-.564.018.025.6.197-.005zM620.127 571.831l-.572-.018-.027.676.572.018zM620.974 571.886l-.607-.013-.016.585.607.012zM621.438 572.308l.027-.643-.423-.014-.027.643zM621.71 572.41l.523.01.012-.501-.522-.01zM623.227 572.406l-.018-.476-.592.017.017.476zM623.97 572.406l.013-.438-.607-.014-.012.439zM624.015 572.398l.704-.022-.023-.601-.705.022zM625.528 571.8l-.015.726.776.013.015-.727zM627.13 571.982l-.009.547.607.007.009-.546zM627.097 571.54l-.67-.018-.02.58.522.016.008-.231.148.004zM625.402 571.445l-.67-.025-.02.412.67.026zM626.984 569.359l.013.356.578-.017-.014-.356zM629.68 558.164l-.494.006.01.527.493-.007zM627.845 560.916l-1.101.018.008.364 1.1-.018zM611.134 558.84l1.003-.016-.018-.847-1.002.016zM609.525 558.913l-.02-.621-.67.016.02.621zM608.829 558.872l-.023-.596-.614.018.023.596zM607.18 558.91l.889-.02-.02-.67-.888.02zM605.947 559.01l1.03.003.006-1.115-1.031-.004zM605.844 558.362l-.677-.012-.015.652.678.012zM604.76 558.76l.043-.436-2.018-.155.105-1.07-.463-.036-.156 1.593 1.318.101.008-.087zM601.153 556.627l1.18.323.175-.503-1.18-.324zM602.457 555.188l.279-.801-.948-.26-.12.344.303.082-.159.458zM602.498 553.364l.605.168.31-.88-.837-.231-.205.582.232.064zM604.005 551.728l.136-.444-1.09-.264-.137.443zM604.063 549.972l-.675-.07-.085.642.674.07zM603.714 549.627l.56.157.239-.672-.56-.157zM605.203 546.954l-.612-.134-.32 1.146 1.1.241.138-.496-.487-.107zM598.724 559.28l.095-.526.056.008.07-.39.159.022.029-.159-2.154-.308-.091.5.323.046-.104.575zM599.33 557.497l-1.54-.209-.119.693.704.095.016-.092.835.113zM601.068 559.23l.018-.626-.762-.018-.018.626zM600.006 560.98l1.218.1.072-.683-1.218-.1zM596.338 560.927l-.013-.439-.889.023.014.438zM593.968 556.721l.002 1.536h.572v.256h.523v-.226h.133l-.002-1.567zM335.766 390.639l.345.385.792-.56-.344-.384z" clip-path="url(#pacf088cbbc)" style="fill:#a9a9a9;fill-opacity:.8"/></g><g id="PathCollection_1"><defs><path id="m1eb1678c51" d="M0 3a3 3 0 1 0 0-6 3 3 0 0 0 0 6z" style="stroke:#a9a9a9;stroke-opacity:.8"/></defs><g clip-path="url(#pacf088cbbc)"><use xlink:href="#m1eb1678c51" x="343.941" y="358.479" style="fill:#a9a9a9;fill-opacity:.8;stroke:#a9a9a9;stroke-opacity:.8"/></g></g></g></g><defs><clipPath id="pacf088cbbc"><path d="M90 125.821h558v475.558H90z"/></clipPath></defs></svg>