<svg xmlns="http://www.w3.org/2000/svg" width="960" height="960" viewBox="0 0 720 720"><defs><style>*{stroke-linejoin:round;stroke-linecap:butt}</style></defs><g id="figure_1"><path id="patch_1" d="M0 720h720V0H0z" style="fill:#fff"/><g id="axes_1"><path id="patch_2" d="M181.226 640.8h375.548V86.4H181.226z" style="fill:#fff"/><g id="LineCollection_1"><path d="m192.822 97.062.114 1.85M192.822 97.062l-.303 1.19-.406.477-.49.335M194.055 99.86l-.706-1.13-.527-1.668M435.676 309.263l.828.495M435.676 309.263l-3.641 5.124M435.676 309.263l-7.652-5.065M435.676 309.263l.357-.507M401.11 359.158l-.714-.489M401.11 359.158l3.893-5.432M401.11 359.158l-.282.4M401.11 359.158l.337.562M188.448 97.967l1.74 2.344.621.647" clip-path="url(#p9e78cd7d4f)" style="fill:none;stroke:#000"/><path d="m191.622 99.064-.834.058-.83-.154-.622-.306-.888-.695M192.936 98.911l.146 3.157M192.936 98.911l-.673-.05-.64.203M194.055 99.86l-.447-.597-.672-.352M191.622 99.064l-.561.49-.29.675.038.73M193.93 101.397l.258-.754-.133-.782M190.81 100.958l.243.502.4.396M193.082 102.068l.48-.27.368-.401M193.31 105.433l.131-1.47.032-1.044.457-1.522" clip-path="url(#p9e78cd7d4f)" style="fill:none;stroke:#000"/><path d="m191.453 101.856.996 1.472.476 1.108.386.997M191.453 101.856l.508.245.563.074.558-.107M193.082 102.068l.229 3.365M234.755 226.498l-21.08-20.176-3.568-4-3.25-4.193-3.18-5.181-2.086-4.316-1.975-5.4-1.397-5.538-.605-4.719-2.152-32.57-2.151-34.972M428.785 254.746l-8.89 12.598M444.062 264.844l-7.557-4.995-7.72-5.103M377.804 174.7l.576 2.186 1.335 4.013 1.19 4.883 1.48 5.662 1.92 7.005.577 1.311 1.152 1.599 3.88 4.086 3.812 3.855 3.812 4.336 13.964 14.76 10.966 11.537 6.036 6.541 3.047 3.28.105.264-.074.367-2.797 4.361M444.724 265.286l-.662-.442M447.158 274.754l1.278-5.07.21-1.097-.192-.643-.456-.608-3.274-2.05M450.058 260.855l-2.67 1.566-1.78 1.779-.884 1.086M444.724 265.286l-3.794 5.631M440.93 270.917l-.426-.275M440.93 270.917l2.811 1.713M440.93 270.917l-3.913 5.407M447.158 274.754l-3.417-2.124M443.392 280.634l.316-.456 2.994-4.106.42-.794.036-.524M413.15 276.9l7.93 5.071M413.15 276.9l4.97-7.04M413.15 276.9l-3.837 5.561M421.08 281.971l3.885-5.572M421.08 281.971l-3.95 5.657M421.08 281.971l7.342 4.717M409.313 282.461l-4.549-3.302M409.313 282.461l7.816 5.167M409.313 282.461l-4.138 5.76M441.554 285.036l-1.247 1.77M441.746 287.782l-.053-.861-.14-1.885M443.392 280.634l-1.138 2.197-.438 1.268-.262.937M429.297 287.299l7.324 4.742M429.297 287.299l-.875-.611M429.297 287.299l3.706-5.358M429.297 287.299l-4.013 5.645M417.13 287.628l-4.135 5.776M417.13 287.628l7.363 4.764M441.746 287.782l-1.44-.976M444.21 297.141l-1.413-5.303-1.051-4.056M405.003 288.46l.172-.238M405.003 288.46l7.802 5.209M401.164 293.955l.193-.275 3.646-5.22M436.62 292.04l3.687-5.234M436.62 292.04l7.59 5.101M432.694 297.875l3.576-5.074.35-.76M425.284 292.944l-.79-.552M425.284 292.944l7.41 4.931M425.284 292.944l-4.152 5.934M412.805 293.669l.19-.265M412.805 293.669l-3.913 5.377M412.805 293.669l7.408 5.277M401.164 293.955l7.728 5.09M401.164 293.955l-1.323 1.937M401.164 293.955l-15.75-8.79M444.21 297.141l-4.01 5.687M444.21 297.141l.74.83M432.694 297.875l-4.335 5.87M432.694 297.875l7.506 4.953M451.606 303.463l-2.785-1.96-3.87-3.531M444.95 297.972l-3.858 5.379M420.796 299.322l7.228 4.876M420.796 299.322l.336-.444M420.796 299.322l-3.749 5.184M420.796 299.322l-.583-.376M408.892 299.046l-3.889 5.377M408.892 299.046l7.583 5.056M397.474 299.357l7.53 5.066M397.474 299.357l2.367-3.465M397.474 299.357l-3.814 5.424M451.606 303.463l-2.809 4.61M459.888 306.757l-2.87-1.046-2.557-.862-2.855-1.386M428.024 304.198l-3.578 5.147M428.024 304.198l.335-.453M417.047 304.506l-.572-.404M417.047 304.506l7.4 4.84M417.047 304.506l-3.853 5.473M405.003 304.423l-3.727 5.262M405.003 304.423l7.623 5.182M393.66 304.78l7.616 4.905M393.66 304.78l-3.851 5.351M393.66 304.78l-3.689-2.406M424.446 309.345l-3.864 5.473M424.446 309.345l7.589 5.042M413.194 309.979l-.568-.374M413.194 309.979l7.388 4.839M413.194 309.979l-3.838 5.354M458.646 309.783l-.253-.156M458.646 309.783l.876-1.352.512-1.221.099-.293.002-.047-.029-.036-.218-.077M458.646 309.783l-2.1 3.075M401.276 309.685l-3.894 5.62M401.276 309.685l7.581 5.255M389.508 310.548l.3-.417M389.508 310.548l-3.723 5.172M389.508 310.548l7.672 5.048M456.545 312.858l-.253-.156M456.545 312.858l-4.137 5.862M432.035 314.387l.81.478M432.035 314.387l-3.764 5.353M420.582 314.818l-3.741 5.37M420.582 314.818l7.69 4.922M409.356 315.333l-.499-.393M409.356 315.333l7.485 4.854M409.356 315.333l-3.932 5.577M397.18 315.596l.202-.29M397.18 315.596l-4.08 5.538M397.18 315.596l7.337 5.306M385.785 315.72l7.315 5.414M385.785 315.72l-1.18 1.636M452.035 319.247l.582.015M452.035 319.247l.373-.527M452.035 319.247l-.255-.152M452.035 319.247l-.386.342M428.271 319.74l.751.46M428.271 319.74l-3.98 5.328M416.84 320.187l-4.07 5.502M416.84 320.187l7.45 4.881M405.424 320.91l-.569-.522M405.424 320.91l7.346 4.78M405.424 320.91l-.29.411M393.1 321.134l-3.74 5.544M393.1 321.134l7.737 5.13M381.657 321.469l7.703 5.21M381.657 321.469l-8.62-4.726M381.657 321.469l2.948-4.113M381.657 321.469l-2.402 3.52M425.113 325.656l-.822-.588M425.113 325.656l7.599 4.897M425.113 325.656l3.91-5.456M425.113 325.656l-3.989 5.568M412.77 325.69l-.37.54M412.77 325.69l7.45 4.936M401.384 326.608l-.547-.344M401.384 326.608l7.394 4.922M401.384 326.608l3.75-5.287M401.384 326.608l-4.023 5.534M389.36 326.678l-3.89 5.39M389.36 326.678l7.555 5.157M378.117 326.699l1.138-1.71M378.117 326.699l-.213.29M378.117 326.699l7.354 5.369M421.124 331.224l-.903-.598M421.124 331.224l7.63 4.644M421.124 331.224l-.303.424M408.778 331.53l-3.963 5.615M408.778 331.53l3.622-5.3M408.778 331.53l7.422 4.978M397.36 332.142l-.445-.307M397.36 332.142l7.455 5.003M397.36 332.142l-1.214 1.722M372.468 332.15l8.693 5.76M372.468 332.15l-5.377 4.226M377.904 326.989l-.814 1.063-4.622 4.098M367.091 336.376l-6.077-3.48M367.091 336.376l-.41.32M367.091 336.376l2.792 2.039M416.97 337.024l-.77-.516M416.97 337.024l7.735 4.587M416.97 337.024l3.85-5.376M416.97 337.024l-3.964 5.532M404.815 337.145l-3.752 5.29M404.815 337.145l7.497 4.952M381.161 337.91l4.132-5.609M381.161 337.91l-3.876 5.111M381.161 337.91l7.71 5.117M361.549 340.707l5.133-4.011M361.549 340.707l-.464.394M361.549 340.707l4.185 2.963M413.006 342.556l-.694-.459M413.006 342.556l7.681 4.751M409.178 347.898l1.331-1.857 2.497-3.485M389.5 343.426l-.63-.399M389.5 343.426l7.24 4.95M389.5 343.426l3.741-5.433M389.5 343.426l-3.898 5.278M377.285 343.021l-1.874-1.159M377.285 343.021l-.368.538M377.285 343.021l5.167 3.577M365.734 343.67l3.925-4.972M365.734 343.67l-.37.53M365.734 343.67l7.55 5.201M355.775 345.604l2.253 1.649M355.775 345.604l5.31-4.503M355.775 345.604l-5.082 4.166M358.028 347.253l3.567 2.318M358.028 347.253l-4.944 4.85M396.74 348.376l-3.83 5.303M396.74 348.376l3.95-5.467M396.74 348.376l7.66 4.96M385.602 348.704l-.555-.309M385.602 348.704l-.418.531M385.602 348.704l5.074 3.454M373.284 348.871l3.633-5.312M373.284 348.871l-.398.578M373.284 348.871l7.723 5.17M361.595 349.57l7.554 5.305M361.595 349.57l3.768-5.37M361.595 349.57l-3.765 5.64M350.693 349.77l2.391 2.334M350.693 349.77l-5.67 4.635M405.003 353.726l-.602-.39M405.003 353.726l7.85 4.691M405.003 353.726l3.782-5.279M392.91 353.679l-2.234-1.521M392.91 353.679l-.342.48M392.91 353.679l7.486 4.99M381.413 354.366l-.406-.325M381.413 354.366l3.771-5.131M381.413 354.366l7.53 4.882M381.413 354.366l-.396.52M345.023 354.405l-.627.577M345.023 354.405l2.992 2.213M369.15 354.875l3.736-5.426M369.15 354.875l-3.865 5.377M369.15 354.875l7.356 4.86M357.83 355.21l-4.746-3.106M357.83 355.21l7.455 5.042M353.986 360.786l.117-.518 3.727-5.057M341.846 358.038l2.55-3.056M341.846 358.038l3.344 2.281M340.146 367.213l-2.997-1.924-.473-.743.158-.625.455-.812 4.557-5.07M388.944 359.248l-.381.549M388.944 359.248l3.624-5.089M388.944 359.248l4.479 3.034M377 360.061l7.777 5.186M377 360.061l-.494-.326M377 360.061l4.017-5.174M377 360.061l-3.596 5.625M365.285 360.252l-4.11 5.309M365.285 360.252l7.574 5.153M345.19 360.319l-5.044 6.894M345.19 360.319l3.328 2.247M348.518 362.566l-4.991 6.877M348.518 362.566l3.292 2.23M351.81 364.797l1.982-3.394M351.81 364.797l-4.99 6.86M351.81 364.797l3.276 2.264M397.162 364.754l-.748-.443M397.162 364.754l3.666-5.195M397.162 364.754l7.801 4.779M397.162 364.754l-.379.537M384.777 365.247l-3.85 5.501M384.777 365.247l3.786-5.45M384.777 365.247l7.518 4.9M373.404 365.686l-.545-.28M373.404 365.686l7.522 5.062M373.404 365.686l-3.963 5.521M361.176 365.56l-.33.624M361.176 365.56l-7.19-4.774M361.176 365.56l3.421 2.504M355.086 367.06l-4.869 6.861M355.086 367.06l3.397 2.316M340.146 367.213l3.381 2.23M364.597 368.064l-.348.442M364.597 368.064l3.57 2.287M358.483 369.376l-4.938 6.775M358.483 369.376l3.345 2.197M343.527 369.443l3.292 2.214M393.047 370.584l7.832 4.812M393.047 370.584l-.752-.437M393.047 370.584l3.736-5.293M393.047 370.584l-3.926 5.562M368.168 370.351l-.341.576M368.168 370.351l.825.562M380.926 370.748l-4.006 5.415M380.926 370.748l7.414 5.004M369.44 371.207l-.447-.294M369.44 371.207l-.349.523M369.44 371.207l4.637 3.147M361.828 371.573l2.42-3.067M361.828 371.573l-5.096 6.868M346.82 371.657l3.397 2.264M350.217 373.921l3.328 2.23M374.833 374.859l-.756-.505M374.833 374.859l2.087 1.304M374.833 374.859l-.414.495M389.121 376.146l-.781-.394M389.121 376.146l7.764 4.915M389.121 376.146l-3.915 5.548M364.32 376.094l3.507-5.167M364.32 376.094l-3.875 5.365M364.32 376.094l1.987 1.332M353.545 376.151l3.187 2.29M376.92 376.163l-.453.56M376.92 376.163l3.995 2.748M356.732 378.441l3.713 3.018M380.915 378.91l-.37.518M380.915 378.91l3.545 2.338M370.739 380.548l3.68-5.194M370.739 380.548l2.208 1.426M370.739 380.548l-.731-.497M370.739 380.548l-3.896 5.314M360.445 381.459l5.671 3.866M385.206 381.694l-.746-.446M385.206 381.694l-.345.488M385.206 381.694l.494.622M376.818 384.653l3.727-5.225M376.818 384.653l-3.903 5.33M376.818 384.653l-2.173-1.383M366.843 385.862l-.727-.537M372.915 389.983l-.592-.448-5.48-3.673M420.813 363.162l-7.96-4.745M420.813 363.162l3.672-5.325M416.869 368.85l1.06-1.57 2.884-4.118M416.869 368.85l-7.926-4.89M416.869 368.85l-3.65 5.491M413.219 374.341l-8.256-4.808M413.219 374.341l-.59.572M408.985 380.097l-8.106-4.7M408.985 380.097l-4.08 5.717M408.985 380.097l3.643-5.184M404.905 385.814l-8.02-4.753M404.905 385.814l-4.36 5.554M448.723 324.13l-8.28-4.837M448.723 324.13l-4.198 5.526M448.723 324.13l2.926-4.54M444.525 329.656l-7.936-4.898M444.525 329.656l-3.758 5.6M440.767 335.256l-8.055-4.703M440.767 335.256l-1.995 2.725M436.804 340.63l-8.05-4.762M436.804 340.63l-.316.468M436.804 340.63l1.706-2.281M432.737 346.457l-8.032-4.846M432.737 346.457l-3.98 5.502M432.737 346.457l2.276-3.3M428.756 351.959l-8.069-4.652M428.756 351.959l-3.946 5.476M409.178 347.898l-.662-.408M409.178 347.898l7.76 4.725M409.178 347.898l-.393.55M424.81 357.435l-7.871-4.812M424.81 357.435l-.325.402M444.083 314.502l7.697 4.593M444.083 314.502l-3.64 4.791M444.083 314.502l.37-.554M444.083 314.502l-3.24-2.028M440.442 319.293l-7.597-4.428M440.442 319.293l-3.853 5.465M436.59 324.758l-7.568-4.558M436.59 324.758l-3.878 5.795M432.712 330.553l-3.957 5.315M428.755 335.868l-.345.49M424.705 341.611l-4.018 5.696M424.705 341.611l3.705-5.253M420.687 347.307l-3.748 5.316M400.879 375.396l-3.994 5.665M400.879 375.396l3.67-5.27M393.01 386.556l-6.723-3.772M393.01 386.556l7.535 4.812M393.01 386.556l3.875-5.495M394.812 401.978l.46-2.264.82-1.892 4.453-6.454M394.812 401.978l-4.99 7.602M394.812 401.978l3.496 2.292M394.812 401.978l-2.891-1.909M384.454 395.14l-5.095 7.304M384.454 395.14l4.044 2.67M384.454 395.14l-4.447-3.24M360.188 429.926l5.588-8.13M360.188 429.926l3.518 3.354M360.188 429.926l-3.915-3.491M388.498 397.81l-5.04 7.271M388.498 397.81l3.423 2.26M363.706 433.28l2.907 2.772M369.38 425.023l-.227.312-5.447 7.945M375.276 399.816l-4.813 6.52M375.276 399.816l4.083 2.628M380.007 391.9l-.468 1.872-4.263 6.044M387.045 407.389l2.778 2.191M387.045 407.389l-3.587-2.308M387.045 407.389l-4.8 6.828M387.045 407.389l4.876-7.32M403.909 418.22l-3.93-2.684M403.909 418.22l-5.017 6.596M404.285 408.188l4.15 2.722.209.949-4.735 6.362M386.287 382.784l-3.967 5.787-1.408 2.056-.905 1.273M378.667 390.07l.876.85.464.98M370.463 406.336l-5.067 7.226M370.463 406.336l4.214 2.819M356.273 426.435l5.834-8.23M356.273 426.435l-1.942-1.732M377.11 421.52l-4.622 6.415M377.11 421.52l5.135-7.303M377.11 421.52l3.55 2.255M377.11 421.52l-3.684-2.342M366.613 436.052l5.875-8.117M376.055 430.839l-5.721 8.76-3.721-3.547M398.892 424.817l-3.336-2.305M398.892 424.817l-5.261 6.963M365.396 413.562l-3.29 4.644M365.396 413.562l4.297 2.739M365.396 413.562l-1.962-1.635M393.63 431.78l-2.73-1.975M386.703 436.344l1.34.83.59.342.454.084.273-.11.4-.432 3.87-5.278M404.285 408.188l-4.306 7.348M404.285 408.188l-2.921-1.892M399.979 415.536l-3.072-1.753M399.979 415.536l-4.423 6.976M395.556 422.512l-3.207-1.958M395.556 422.512l-4.655 7.293M390.9 429.805l-3.328-1.743M390.9 429.805l-4.197 6.539M386.703 436.344l-3.31-1.83M401.364 406.296l-4.457 7.487M401.364 406.296l-3.056-2.026M396.907 413.783l-3.284-1.831M396.907 413.783l-4.558 6.77M392.35 420.554l-3-1.909M392.35 420.554l-4.778 7.508M387.572 428.062l-3.065-2.015M383.393 434.515l2.955-4.657 1.224-1.796M398.308 404.27l-4.685 7.682M393.623 411.952l-3.8-2.372M393.623 411.952l-4.273 6.693M384.507 426.047l-3.848-2.272M384.507 426.047l4.843-7.402M389.823 409.58l-4.095 6.755M385.728 416.335l3.622 2.31M385.728 416.335l-3.483-2.118M385.728 416.335l-5.069 7.44M380.66 423.775l-1.58 2.393M362.107 418.206l3.669 3.59M362.107 418.206l-1.982-1.673M376.055 430.839l3.025-4.67M376.055 430.839l-3.567-2.904M376.055 430.839l7.338 3.676M401.063 342.436l-.373.473M401.063 342.436l-3.717-2.425M353.986 360.786l-.194.617M353.986 360.786l-5.97-4.168M369.883 338.415l-.224.283M375.41 341.862l-2.359-1.458-3.168-1.99M348.015 356.618l-.586.469M348.015 356.618l5.07-4.514M384.605 317.356l-3.93-1.944M375.556 312.88l-2.291-1.131M375.556 312.88l1.377.681M375.556 312.88l-2.52 3.863M366.14 313.541l6.896 3.202M370.389 320.802l-2.588-1.222-2.636-2.103-.76-1.516 1.735-2.42" clip-path="url(#p9e78cd7d4f)" style="fill:none;stroke:#000"/><path d="m370.402 310.32-1.384-.668-2.878 3.89M379.255 324.99l-8.866-4.188M370.389 320.802l2.647-4.059M443.392 280.634l-3.55-2.398M428.86 270.814l-1.242 1.779M428.86 270.814l7.615 5.14M440.504 270.642l-7.508-4.967-.937.484-3.2 4.655M424.965 276.399l2.653-3.806M424.965 276.399l7.626 5.302M368.056 378.6l-.912 1.296-1.8-1.198.963-1.272" clip-path="url(#p9e78cd7d4f)" style="fill:none;stroke:#000"/><path d="m368.056 378.6.963-1.37-1.673-1.198-1.039 1.394M368.056 378.6l1.952 1.45M374.645 383.27l.912-1.516-1.672-1.051-.938 1.27M374.645 383.27l-.912 1.296-1.673-1.077.887-1.515M418.12 269.86l1.775-2.516M390.999 260.928l5.684 1.614 21.437 7.317M437.017 276.324l-.542-.37M437.017 276.324l2.826 1.912M437.017 276.324l-4.014 5.617M433.003 281.941l-.412-.24M433.003 281.941l7.304 4.865M440.2 302.828l-4.167 5.928M441.092 303.35l-.473-.29-.419-.232M448.797 308.073l-7.705-4.722M448.797 308.073l7.495 4.629M448.797 308.073l-4.345 5.875M385.47 332.068l-.177.233M385.47 332.068l7.553 5.146M393.555 337.538l-.532-.324M393.555 337.538l2.591-3.674M393.555 337.538l3.79 2.473M393.555 337.538l-.314.455M416.939 352.623l-.329.467M412.853 358.417l-3.91 5.544M412.853 358.417l3.757-5.327M408.943 363.96l-7.496-4.24M408.943 363.96l-3.98 5.573M404.963 369.533l-.414.594M379.359 402.444l-4.682 6.71M379.359 402.444l4.099 2.637M383.458 405.081l-4.71 6.796M374.677 409.155l-4.984 7.146M374.677 409.155l4.07 2.722M378.747 411.877l-5.321 7.301M378.747 411.877l3.498 2.34M369.693 416.301l-3.917 5.495M369.693 416.301l3.733 2.877M373.426 419.178l-4.045 5.845M365.776 421.796l3.605 3.227M369.38 425.023l3.108 2.912M439.843 278.236l3.898-5.606M509.946 405.173l9.249 6.264.456-.037.951-.293 7.837-7.378 5.325-3.56.647-.367 1.522.22M549.552 400.867l-2.283.183-9.51-.33-1.826-.697" clip-path="url(#p9e78cd7d4f)" style="fill:none;stroke:#000"/><path d="m452.617 319.262 65.697 39.805 1.705 1.115 2.26 1.564 2.183 2.634 13.815 18.937.89 1.951.075 4.075-.494 1.174-4.565 3.266-.628 1.104-.227 1.11-.121 1.136.101.944.837.661 1.788 1.285M438.51 338.349l.262-.368M438.51 338.349l14.453 9.1M438.772 337.981l14.522 9.048M488.43 368.919l-35.136-21.89M488.43 368.919l-.245.705M488.185 369.624l6.13 3.863.419.037.076-.367-.114-.33-6.266-3.908M488.185 369.624l-12.553-7.904M488.185 369.624l-4.61 6.941M505.58 402.149l4.366 3.024M509.946 405.173l-3.914 4.171h-.494l-3.234-1.798-.016-.214.245-.449 3.046-4.734M483.575 376.565l-5.465 8.226.037.991.647.624 16.358 9.395.723.882 1.14 1.358 1.827 1.357 1.788.465 1.834.637 1.964 1.03 1.151.619M435.013 343.157l1.475-2.06M465.223 365.055l-2.71-1.991-9.36-7.194-18.14-12.713M468.059 367.011l2.042 1.258M468.059 367.011l5.483-6.607M465.223 365.055l.637.468 2.199 1.488M483.575 376.565 470.1 368.27M374.953 390.739l-1.002-.186-.38-.073-.656-.497M374.953 390.739l-17.61 23.907M377.44 391.822l-1.628-.888-.859-.195M377.44 391.822l1.227-1.752M377.44 391.822l-14.006 20.105M386.287 382.784l-.587-.468M378.667 390.07l.575-.888M363.434 411.927l-3.309 4.606M360.125 416.533l-2.782-1.887M354.331 424.703l2.046-2.828 3.748-5.342M379.08 426.168l1.756 1.077M334.686 624.527l-.48-.046-46.604-30.245-9.714-6.132 36.324-104.378 1.469-3.558 1.523-2.748 2.247-3.386 33.879-47.916 1.001-1.415M379.242 389.182l1.927-1.769 2.309-3.27 1.383-1.961" clip-path="url(#p9e78cd7d4f)" style="fill:none;stroke:#000"/><path d="m384.105 381.752-1.376 1.95-2.28 3.23-1.207 2.25M384.46 381.248l-.355.504M384.46 381.248l3.88-5.496M388.34 375.752l3.955-5.605M392.295 370.147l3.772-5.343M396.414 364.311l-2.991-2.03M396.414 364.311l-.347.493M396.414 364.311l3.606-5.108M400.396 358.67l-.376.533M400.396 358.67l4.005-5.335M344.396 354.982l3.033 2.105M353.792 361.403l7.054 4.78M353.792 361.403l-6.363-4.316M364.249 368.506l3.578 2.42M364.249 368.506l-3.403-2.322M367.827 370.927l.817.489M374.419 375.354l2.048 1.369M374.419 375.354l-.733-.481M380.545 379.428l3.56 2.324M380.545 379.428l-4.078-2.705M384.105 381.752l.756.43M384.861 382.182l.839.134M369.091 371.73l4.595 3.143M369.091 371.73l-.447-.314M368.644 371.416l.35-.503M368.993 370.913l3.866-5.508M372.859 365.405l3.647-5.67M374.077 374.354l-.39.519M373.686 374.873l-3.678 5.178M370.008 380.05l-3.892 5.275M376.506 359.735l4.09-5.129M381.007 354.04l-.41.566M381.007 354.04l3.68-5.149M385.047 348.395l-2.595-1.797M385.047 348.395l-.36.496M385.047 348.395l3.823-5.368M388.87 343.027l3.831-5.362M393.023 337.214l-.322.45M393.023 337.214l2.653-3.667M396.915 331.835l-1.239 1.712M396.915 331.835l3.922-5.57M400.837 326.264l3.68-5.362M408.857 314.94l-4.002 5.448M408.857 314.94l3.769-5.335M412.626 309.605l3.849-5.503M416.475 304.102l3.738-5.156M424.493 292.392l-3.98 6.102M424.493 292.392l3.929-5.704M428.422 286.688l4.169-4.987M432.59 281.7l3.885-5.747M436.475 275.953l4.029-5.31M440.504 270.642l3.558-5.798M361.085 341.101l4.278 3.099M365.363 344.2l7.523 5.25M372.886 349.45l7.71 5.156M380.596 354.606l.42.28M381.017 354.887l7.546 4.91M388.563 359.797l4.456 2.972M396.067 364.804l.716.487M396.067 364.804l-3.048-2.035M396.783 365.29l7.766 4.837M404.55 370.127l8.078 4.786M361.014 332.895l5.668 3.801M234.755 226.498l55.103 52.737 9.342 10.22 8.943 9.351 2.848 2.65 4.646 3.665 4.187 2.964 13.833 8.22 7.045 4.146 20.312 12.444M366.682 336.696l2.977 2.002M369.66 338.698l3.113 2.097 2.311 1.556M376.917 343.56l5.142 3.528M376.917 343.56l-1.833-1.209M384.688 348.891l.496.344M384.688 348.891l-2.629-1.803M385.184 349.235l5.139 3.427M392.568 354.16l7.452 5.043M392.568 354.16l-2.245-1.498M400.02 359.203l.808.356M400.828 359.559l.62.16M429.022 320.2l3.823-5.335M432.845 314.865l3.659-5.107M436.504 309.758l4.339 2.716M436.504 309.758l.412-.575M424.29 325.068l-4.07 5.558M420.22 330.626l-.329.482M416.2 336.508l-3.888 5.59M416.2 336.508l3.691-5.4M412.312 342.097l-3.796 5.393M404.4 353.335l3.72-5.284M408.516 347.49l-.396.561M424.485 357.837l-7.875-4.747M416.61 353.09l-7.825-4.643M408.785 348.447l-.665-.396M436.488 341.098l-8.078-4.74M428.41 336.358l-7.59-4.71M420.82 331.648l-.929-.54M419.891 331.108l-7.49-4.877M412.4 326.23l-7.266-4.909M405.134 321.321l-.617-.42M404.517 320.902l.338-.514M420.213 298.946l.3-.452M436.033 308.756l-7.674-5.011M436.033 308.756l.883.427M428.359 303.745l-7.227-4.867M421.132 298.878l-.62-.384M441.092 303.35l-4.176 5.833M452.408 318.72l-.255-.153M452.408 318.72l.209.542M444.452 313.948l-3.206-2.028M444.452 313.948l7.7 4.62M436.916 309.183l4.33 2.737M328.588 454.709l28.755-40.063M230.539 225.97l4.216.528M405.175 288.222l7.82 5.182M412.995 293.404l7.518 5.09M389.809 310.131l7.573 5.175M404.855 320.388l-7.473-5.082M451.78 319.095l-.131.494M451.78 319.095l.373-.528M452.153 318.567l4.14-5.865M456.292 312.702l2.101-3.075M459.888 306.757l-.078.221-.06.137-.497 1.185-.86 1.327M380.459 301.826l2.867-3.955M380.459 301.826l-7.194 9.923M370.402 310.32l.891-8.066.211-.436.625-.269 8.33.277M370.402 310.32l2.863 1.429M386.591 300.114l3.38 2.26M386.591 300.114l-3.265-2.243M386.591 300.114l5.868-8.015M386.591 300.114l-9.658 13.447M376.933 313.561l3.742 1.851M380.675 315.412l9.296-13.038M389.971 302.374l6.089-8.34M399.84 295.892l-3.78-1.857M396.06 294.035l-3.601-1.936M383.326 297.87l5.128-7.411.509-.204.634.195 2.862 1.649M396.146 333.864l-.47-.317M393.423 362.282l-.404.487M382.452 346.598l-.393.49M453.294 347.029l-.331.42M452.963 347.448l20.579 12.956M475.632 361.72l-2.09-1.316M475.632 361.72l-5.531 6.549M465.223 365.055l-.078.657-.538 1.482-1.55 3.539-.13.769.216.5.932.839 5.872 4.294 4.465 3.03.221.255.077.555-.768 2.08-.077.704.35.593 4.946 2.748.519.498.105.386-.127.297-1.282 1.27-.087.321.14.276 2.215 1.659 5.869 4.294 5.482 3.983M397.346 340.01l-.315.485M397.03 340.495l3.66 2.414M397.03 340.495l-3.789-2.502M377.904 326.989l7.389 5.312M393.241 337.993l-.54-.328M392.701 337.665l-7.408-5.364M446.386 258.478l-3.794-2.51-.087-.13.034-.246 3.438-4.54M446.386 258.478l3.672 2.377M450.058 260.855l1.777-1.603.74-1.093.513-1.07-.024-.307-2.953-2.97-.225-.069-.394.204-3.106 4.53M419.895 267.344l7.723 5.249M441.246 311.92l-.403.554M390.323 352.662l.353-.504M375.41 341.862l-.326.49M349.85 613.828l-3.343.982-4.609 2.242-3.535 2.612-3.005 4.512-.672.351M335.524 629.96l-.691.178-1.198-.133-.278-.489.139-1.112.507-2.134.46-.89.223-.853" clip-path="url(#p9e78cd7d4f)" style="fill:none;stroke:#000"/></g><path id="PatchCollection_1" d="m473.729 227.308-13.06 13.031-.66 12.096-6.735 12.637-.122.49-.276.64-.22.266-.383.246-.4 1.74.18.31.118.405.32.428-.002.196-.065.128-.288.164-.37.331-.085.539.189 1.264.082.186-.035.423-.727 1.933-.563 1.018-.332 1.056-.13.247-.598.681-.17.375-.617.327-1.771 1.725-.576.807-.857 1.362-.14.392.007.337.048.281.154.463.12.17.086.194-.604 2.185-.067 1.213.18.799.025.587-.021 1.124.178.453.16.22.154.335-.121.798.04.472.102.342.113.242.618.748.432.364.49.308.291 1.111.627 1.13.489.749.566.656.95.887.674.6.858.647.817.38.688.228 1.41.587.985.664.367.167.814-.017.201.136 1.083.41 1.346.366.54.09.384.026.36-.106.636-.042.566.095.506.227 1.318.298.535.274.469.136.703.135 1.224.315 1.009.706 1.383 1.158 1.897 3.332 20.894-10.823 9.678-.848-5.28-4.244 10.778-11.672 3.739 9.125 3.519 9.974 8.797 5.517 5.939 1.273 6.598-.212 5.278.637 7.699 6.79-1.98 9.124-1.98 12.308 7.698 8.064 3.3-12.095-3.08-8.7 7.258 3.607 2.64-11.247-7.258-8.912 1.54-3.183 7.919-.51 7.776 3.601 2.8-2.176 1.321-6.227 2.877.075.545 5.627-3.97 4.225-6.819 15.915-2.199 19.31-3.58 12.872.856 4.877 2.177 1.425-4.433 7.652-1.01 5.927-8.243 11.704.466 9.152-.31 12.904 6.998 7.801 1.4 12.153 6.065 12.304 7.776-1.65-.622-14.254 2.333-4.201-11.82-10.803-3.266-4.051 4.82.6.623-4.05 1.4-9.604.31-14.404 7-11.554 7.065-11.04-4.399-12.307.44-8.593 2.86-7.852 5.938 7.002 5.609 5.73 13.416 9.018 9.897 2.228 9.898-.742 1.21-10.398-3.96 4.668-12.097.531-15.505-11.247-10.997-11.883-3.3-3.82 8.578-10.291 5.719-.53 7.367-1.062 7.589.425 9.897 7.32-4.399-10.715-19.795-6.26-3.518 3.289-16.606-10.929-10.007-7.851-9.678 3.182-3.408 3.077-9.238 5.306-10.557 3.395-6.928-.637 5.279-10.822 9.897-5.836 2.639 4.244 4.619 1.804 6.598-11.46-11.547-8.17-11.767-3.819-11.767 2.865-12.316-3.82-6.928.318-7.168 4.538-5.698 6.603-2.75 9.868-3.299 6.154-15.395 3.502-8.248-.956-6.159-4.244 5.939-9.23 3.739-12.415 2.749-3.395-.11-2.97 3.85-9.444 10.996-11.46 19.465-6.154 2.309-6.579-15.286-2.653z" clip-path="url(#p9e78cd7d4f)" style="fill:#00f;fill-opacity:.8"/><g id="PatchCollection_2"><path d="m372.517 383.318 1.53-2.145 1.154.734-1.547 2.137zM365.912 378.783l1.096.715 1.502-2.109-1.096-.714zM432.868 282.643l.094-.077.146-.056.167.006.182.092 6.169 4.08.102.098.02.103-.006.233-2.995 4.227-.123.076-.104.043-.1.017-.154-.025-2.263-1.472-4.025-2.654-.065-.148-.03-.14.015-.183zM448.132 307.054l2.32-3.413-5.743-5.139-3.082 4.332z" clip-path="url(#p9e78cd7d4f)" style="fill:green;fill-opacity:.8"/></g><g id="PatchCollection_3"><path d="m397.344 348.096 7.538-10.48 6.942 4.647-7.538 10.48zM413.954 276.798l6.922 4.549 6.063-8.53-6.802-4.402z" clip-path="url(#p9e78cd7d4f)" style="fill:#90ee90;fill-opacity:.8"/></g><path id="PatchCollection_4" d="m459.633 305.914-2.07-.525.404-1.482 2.069.524z" clip-path="url(#p9e78cd7d4f)" style="fill:#a9a9a9;fill-opacity:.8"/></g></g><defs><clipPath id="p9e78cd7d4f"><path d="M181.226 86.4h375.548v554.4H181.226z"/></clipPath></defs></svg>