<svg xmlns="http://www.w3.org/2000/svg" width="960" height="960" viewBox="0 0 720 720"><defs><style>*{stroke-linejoin:round;stroke-linecap:butt}</style></defs><g id="figure_1"><path id="patch_1" d="M0 720h720V0H0z" style="fill:#fff"/><g id="axes_1"><path id="patch_2" d="M119.569 640.8H618.43V86.4H119.57z" style="fill:#fff"/><g id="LineCollection_1"><path d="m216.471 282.635 4.415 6.08 1.775 2.44 1.63 1.956 1.147 1.087 1.348.998M237.415 302.83l-1.702-1.715-1.284-.99-4.963-3.197-2.68-1.732M219.283 291.337l.57.316 3.97 2.577 1.147.572.847.274.969.12M352.843 357.642l-.88 1.98-2.664 5.08-.492 1.322M344.237 372.536l.862-.884.973-1.273 1.88-2.632.605-1.087.25-.636" clip-path="url(#pffd267927c)" style="fill:none;stroke:#000"/><path d="m356.983 364.276-.904.427-2.212.938-.613.145-.832.036-1.593-.036-.989.02-1.033.218M311.537 369.87l-.202 2.673M311.537 369.87l.463-.1M303.894 368.949l1.425.32 2.885.48 3.333.12M303.598 371.439l.115-.346.181-2.144M298.596 368.31l2.865.387 2.433.252M311.335 372.543l-7.737-1.104M311.335 372.543l.9.3M307.514 388.253l3.557-14.249.264-1.461M338.574 375.212l1.842-.49M330.318 373.427l6.224 1.709.582.131.634.033.816-.088M339.679 381.4l.136-.367.029-.246-.065-.278-1.205-5.297M379.396 379.16l.143-.035M379.396 379.16l-.165-.721M379.396 379.16l-5.488 1.3M353.357 385.35l6.284-1.518M353.357 385.35l-.153-.645M346.607 384.364l3.563 1.106 1.694.064 1.493-.185M305.326 397.467l1.181-4.716M305.326 397.467l-.8-4.892M306.787 412.974l-1.412-14.326-.05-1.181M357.911 363.842l7.406-1.413M357.911 363.842l-.928.434M352.843 357.642l1.791 1.449.816.853 1.032 1.184.719 1.143.71 1.57M346.668 330.554l.307 1.087 1.71 4.542.695 2.085.815 1.908 1.695 3.47 2.018 3.166.88 1.521.282.765.12.805-.071 1.095-.183 1.195-2.093 5.449M373.89 358.602l-1.266.827-5.295 2.287-2.012.713M368.506 369.472l-2.198-4.42-.99-2.623M308.54 486.175l-.605-3.593M307.902 496.247l.78-5.732.041-2.432-.183-1.908" clip-path="url(#pffd267927c)" style="fill:none;stroke:#000"/><path d="m303.262 496.104 2.104-1.485 1.718-2.695.422-2.708.097-1.573.937-1.468M303.262 496.104l-.665-.457-1.272-.291-5.741-3.508M303.262 496.104l-.028.757M307.902 496.247l-.493-.271-1.108-.128-3.067 1.013M223.84 466.674l.5 2.03.194 1.369 1.324 1.69.79 1.723 1.13 1.353 7.039 4.686 4.294 1.916 1.307 1.048.775.934 2.55 3.735 1.937 2.335 2.196 1.418 2.809 2.351 6.134 1.9 6.215.725.646.709.226.708.42 5.958.338.645.598.322 2.227.483 2.115-.065 2.744-.402 6.199-.338 1.065.112 1.501.773 2.874.612h.823l.743-.354 1.097-.886 1.356-.853 2.115-.564 3.745-1.82 3.454-1.175 4.601-2.062 1.313-.829M307.902 496.247 295.44 608.47M305.683 464.028l.467.135M307.935 482.582l-.817-4.47-1.176-3.842-.611-3.399-.159-2.074.079-1.873.432-2.896M307.729 426.847l.442 19.329-.054 3.159-.6 3.813-1.834 10.88M310.449 464.343l1.582-.394M310.449 464.343l-4.3-.18M318.6 465.661l-5.592.996-1.03-.316-1.53-1.998M312.971 472.216l-2.874-2.339-3.068-4.243-.88-1.47M319.517 479.016l8.765-4.241M402.278 584.57l-.483-2.255.613-4.412-3.713-11.401-1.582-5.765-.63-.983-1.146-.79-3.648-.933-5.908-2.093-7.845.032-12.527-3.35-6.683-1.997-4.262-2.673-4.81-2.254-12.655-24.253-.42-10.048-1.711-5.443-.743-3.865-2.098-3.962-5.382-4.307-2.19-2.585-1.87-3.003-1.68-5.42-1.388-3.794M316.663 475.642l1.017.817 1.837 2.557M316.663 475.642l-3.692-3.426M313.607 481.3l.419-.85 2.637-4.808M313.013 485.177l.594-3.876M313.607 481.3l-5.672 1.282M318.6 465.661l-1.97 1.357-3.659 5.198M318.6 465.661l1.213-.24 2.275-.073" clip-path="url(#pffd267927c)" style="fill:none;stroke:#000"/><path d="m325.194 423.792.255.75.194 1.06.33 2.19v1.432l-.004.705-.149.962-.234 1.288-.21 1.096-.242 1.215-.161 1.49-.396 4.123-.34 3.6-.193 3.026-.21 3.407-.072 1.24.048 1.16.121 1.368-.064.636-.266 1.216-.307 2.754-1.206 6.838M328.314 467.818l-2.454-.741-1.937-.58-1.835-1.149M307.729 426.847l-.065-2.088M321.296 425.714l-.835-.145-.492-.093-.368-.044-.33.016-.582.193-.315.077-.343.028-.484.044-2.769-.048h-.528l-.299.077-.266.136-.29.302-.138.125-.193.101-.243.048-2.372.118-2.72.198M267.722 426.894l.946.362.678.358.71.485.807.735.246.161.287.105.387.048 1.134.035 1.473-.345.642-.185.363-.105.468-.19.622-.41 1.07-.712 1.37-.89.473-.193.694-.105.771-.121.59-.213.56-.403.505-.531.65-1.02.496-.502.52-.306.5-.145.594-.033.525.04.564.194.828.44 1.897 1.155.565.265 1.432.475 2.576.737 5.52 1.832 1.122.286.746.137.505-.004.35-.077.38-.161.408-.273 2.768-1.752 2.2-1.309M306.787 412.974l.62 5.968.257 5.817M306.787 412.974l5.524.677M321.445 415.045l-9.134-1.394M322.272 417.621l-.633-1.698-.194-.878M320.146 405.753l.129 1.497.153 1.401.259 1.579.548 2.689.21 2.126M325.472 405.847l-5.326-.094M318.419 397.801l.23.717.21.725.294 1.928.21 1.397.129.793.146.58.201.652.307 1.16" clip-path="url(#pffd267927c)" style="fill:none;stroke:#000"/><path d="m322.272 417.621.295.821 2.627 5.35M321.296 425.714l.654.08 1.566.069.464-.077.286-.093.242-.225.158-.298.097-.39.085-.337.086-.229.125-.221.135-.201" clip-path="url(#pffd267927c)" style="fill:none;stroke:#000"/><path d="m325.337 416.907-1.119.348-.864.23-1.082.136M325.337 416.907l.89-.44.735-.359.48-.173.693-.338M325.337 416.907l4.044 6.325M316.642 411.1l-3.377-.83-.283.028-.18.077-.146.096-.073.17-.272 3.01M307.185 389.38l-.678 3.371M307.185 389.38l.329-1.127M307.185 389.38l-2.05-3.078M313.309 393.838 311.042 392l-2.05-1.655-.824-.56-.508-.24-.475-.166M305.032 386.147l.103.155M302.664 382.425l.664.97 1.704 2.752" clip-path="url(#pffd267927c)" style="fill:none;stroke:#000"/><path d="m304.525 392.575-.668-2.705-.152-.999.036-.543.174-.499.21-.512.907-1.17M304.525 392.575l1.982.176M294.7 380.027l-1.001-6.956M290.669 381.04l.513-.474.553-.286.629-.153 2.336-.1M302.664 382.425l-1.14-.777-1.52-.877-.82-.366-.677-.226-.678-.084-1.332-.085-1.797.017M284.764 371.476l-1.024-.226-.698-.23-.908-.419-.75-.519-.863-.637-.884-1.03-.283-.483-.25-.507-.194-.636-1.105-5.52-.653-2.31-.567-1.43-.79-1.635-1.193-2.886-.914-2.63-.612-1.234-3.585-6.584-2.469-5.523-.303-1.032-.024-1.146.278-.954.738-1.978.198-.902-.036-.914-.206-.685-.351-.784-.412-.629-.851-.608-4.827-2.028-10.646-3.624-1.26-.564-.92-.523-.83-.636-.864-.934-.702-1.128-2.72-5.217-3.14-5.968-.783-1.376-1.227-1.772-.719-.805M245.342 308.257l-1.26-1.191-.984-1.039-.63-.507-1.114-.741-1.783-1.2-.545-.399-.646-.21-.484-.107-.48-.033M357.468 372.432l-.118-2.152-.055-2.625-.312-3.379M346.583 328.718l.085 1.836M346.583 328.718l-1.15.491M353.27 319.309l-2.84 2.452-2.043 1.844-.726 1.014-.565.991-.299 1.047-.161.99-.053 1.071M353.27 319.309l6.013-4.883 3.261-2.384.485-.439.286-.362.145-.319.077-.535.056-.898.243-2.278-.017-.604-.096-.487-.324-.898-.266-1.096-.161-1.094.052-.782.117-1.07.864-2.263M368.977 295.808l-1.3.114-1.3.16-.5.234-.532.443-1.34 2.158M331.268 285.3l.315.813.363 1.281.621 1.457.783 1.885.565 1.16.15.253.218.237.234.11.326-.005.344-.117 1.154-.583 1.384-.593.456-.108.682-.069 1.235.005.775.133.654.148.516.089.48-.04.55-.12.613-.275.383-.334.412-.463.528-.56.59-.35.665-.274.525-.165 1.114-.318.621-.02.9.1 1.215.17 1.114.394.993.484 1.121.41 1.42.25 2.027.265 1.057.226.767.386.638.379 1.138.66.827.411.436.294.303.277.25.379.089.399.096.978.097 1.305.259 1.207.113.532.14.322.186.31.295.302M345.433 329.21l.468.514.767.83M326.7 319.225l1.065-.089.678.113.84.25.645.24.67.452.816.749 1.146 1.095.984.748.985.54 1.194.45 2.39.854.976.5 1.736 1.079 3.543 2.182 1.065.821M304.956 312.646l-1.001.016-.424.04-.431.004-.372-.024-.444-.14-.762-.214-1.013-.303-1.445-.595-.868-.314-.694-.245-.244-.148-.13-.147-.094-.157-.11-.29-.257-.647M315.61 319.208l1.21.91M304.956 312.646h.694l.614.153.516.2.581.275 1.001.636 1.219.733.54.458.791.846.581.612.594.471.746.536 2.777 1.642M318.927 310.858l-.904 3.076-1.09 3.069-1.323 2.205M305.101 306.64l.63.635.718.475 1.412.805.662.379.325.185.438.153.694.14 2.837.319 1.017.157.622.06 1.089.31 1.506.298 1.876.302M323.653 310.914l-.376.089-2.3-.089-2.05-.056M316.82 320.118v5.556M326.7 319.225l-.605.096-5.99 1.079-1.267.193-.868-.044-.552-.177-.598-.254M373.89 358.602l.525-.783 1.73-3.713.475-.74.452-.483M386.555 350.867l-2.065.566-3.213.709-4.205.74" clip-path="url(#pffd267927c)" style="fill:none;stroke:#000"/><path d="m375.523 342.833-.057.5.073 1.135.298 1.506.582 2.206.42 2.48.233 2.223M386.49 344.919l.065 5.948M396.548 338.155l-.638.262-.637.302-.743.459-5.909 4.565-2.131 1.176M375.523 342.833l1.073.073.307.04.246.064.137.101.178.282.81 1.558.546.781.678.56.401.267.279.093.304.063.34-.017.729-.281 4.939-1.498M396.548 338.155l.57 8.214M416.089 311.986l-1.268 2.069-2.276 3.317-.895 1.756-.469 1.498-.638 1.546-1.476 2.278-1.235 1.683-.904 1.031-1.01 1.095-.467.7-.88 1.788-.734 1.047-.8.797-1.081 1.224-3.52 3.165-1.137.78-.75.395M397.128 349.573l-.01-3.204M397.128 349.573l4.35-.686M397.473 358.888l.381-4.161-.21-2.158-.516-2.996" clip-path="url(#pffd267927c)" style="fill:none;stroke:#000"/><path d="m386.555 350.867 2.229-.473 1.97-.249 6.374-.572M397.047 365.774l.426-6.886M397.047 365.774l3.556-.006M397.047 365.774l-5.123-.06M386.167 361.216l2.115-.934 3.246-.796 2.058-.427 1.517-.17 2.37-.001M386.167 361.216l-5.984 2.603M386.167 361.216l3.379 4.436M378.354 364.68l1.83-.861M378.354 364.68l1.047 1.685M378.354 364.68l-4.463-6.078M384.311 373.36l-1.318-1.887M385.551 376.92l-.367-1.507-.446-1.353-.427-.7" clip-path="url(#pffd267927c)" style="fill:none;stroke:#000"/><path d="m372.783 376.24 7.124-1.667 4.404-1.213M385.683 377.644l6.879-1.657M385.683 377.644l-.132-.724M385.683 377.644l-6.144 1.481M385.551 376.92l-6.32 1.519M385.551 376.92l6.858-1.606M353.204 384.705l-1.598.088-1.436-.112-3.42-1.01M353.204 384.705l6.22-1.493M318.695 374.649l-6.46-1.806M318.695 374.649l1.291.466M313.309 393.838l5.232-18.607.154-.582M303.07 371.53l.528-.091M303.07 371.53l-.374-.04-.374.002-3.172.408M299.144 372.304l3.103-.423.493-.089.33-.261M284.764 371.476l.255 2.35M288.697 370.473l-1.252.398-1.372.358-1.31.247M285.019 373.826l.258 2.19M285.019 373.826l4.134-.707M285.277 376.017l2.104-1.2M260.088 392.193l.91-1.393 1.098-1.352.635-.436.489-.16.673-.174.9-.173.593-.125.574-.241.617-.407 1.179-.846.912-.86 1.435-1.635 2.034-2.126 2.324-1.642 2.422-1.289 2.744-1.16 5.65-2.157M289.457 373.907l-.304-.788M289.457 373.907l4.242-.836M289.457 373.907l-2.076.91M254.833 393.732l1.925 2.62M248.176 389.456l1.54.942 1.856 1.223 3.26 2.11M260.088 392.193l-.55.467-.638.33-1.55.516-1.194.129-1.323.097M244.662 387.483l3.514 1.973M244.662 387.483l-1.988 3.43M237.52 383.373l3.02 1.613 4.122 2.497M260.643 397.339l2.798.399M260.102 403.197l.477-3.378.064-2.48M260.088 392.193l.2 2.73.355 2.416M256.758 396.352l.334.471.969.774 1.098.193.774-.097.71-.354M257.52 421.213l.87-5.902M260.257 422.847l-1.501-.902-1.235-.732M241.823 409.795l1.59.797 1.485.861.625.387.327.234.295.342 1.287 1.34 1.594 1.567 1.102 1.212.79.732 1.292.741 1.106.45.888.371.795.52.98.728 1.542 1.136M263.441 397.738l-.73 5.71M263.441 397.738l2.802.42M261.822 409.61l-.674 6.019M261.822 409.61l.889-6.162M261.822 409.61l2.727.362M261.822 409.61l-2.577-.35M259.245 409.26l-.854 6.05M259.245 409.26l.857-6.063M260.102 403.197l2.609.25M262.71 403.448l2.453.46M265.163 403.909l2.847.463M265.163 403.909l1.08-5.75M265.163 403.909l-.614 6.063M287.381 374.818l3.288 6.223M285.662 387.89l.024-.432.077-.636.213-.725.36-.684.702-.974.767-.757 1.218-1.288.876-.725.77-.628M288.697 370.473l.456 2.646M288.697 370.473l4.49-1.96M289.153 373.119l4.52-.549M293.187 368.514l.486 4.056M298.596 368.31l-2.108-.183-.798-.026-1.221.117-1.282.296M293.673 372.57l.026.501M293.673 372.57l5.477-.67M293.699 373.071l5.445-.767M303.598 371.439l-.107.21-.073.176-.064.407-.307 2.02-.244 3.041-.105 3.112-.034 2.02M312.94 369.792l-.94-.021M312.94 369.792l-.705 3.051M324.338 371.828l-4.605-1.161-1.535-.288-5.258-.587M306.94 353.427l.042-.593.149-.33.25-.322.315-.185.416-.045.319.069.327.201.379.423.718 1.256 1.295 2.657.46 1.208.704 2.53.246 1.84-.016 1.658-.544 5.977" clip-path="url(#pffd267927c)" style="fill:none;stroke:#000"/><path d="m291.154 349.26 4.08 2.032.493.254.476.149.508.04.581-.036 1.134-.411.61-.23.468-.06.686.032 1.013.145 2.058.67 1.953.756 1.727.826M307.837 358.47l-.097-1.65-.12-.773-.227-.862-.452-1.758M324.368 355.352l-1.744-2.582-1.179-1.377-1.05-1.16-.653-.966-.83-1.521-.703-1.289-.63-.83-.613-.684-.767-.628-1.445-.87-.597-.164-.525.043-.403.121-1.122.556-.484.112-1.01.154-1.105.475-1.412.918-.694.394-.792.282-1.122.185-1.864.025-.936-.121-.617-.165-.404-.186-.52-.326-.691-.427-.795-.386M325.428 357.509l-1.06-2.157M325.428 357.509l3.173-1.253M325.998 363.498l.508-1.975v-.757l-.226-.927-.852-2.33M324.338 371.828l5.98 1.6M324.338 371.828l1.66-8.33M318.419 397.801l-1.639-1.268-3.471-2.695M328.255 378.203l.16-.643M328.255 378.203l11.037 3.847M319.986 375.115l.438.328.989.386 6.842 2.374M328.415 377.56l1.903-4.133M328.415 377.56l-7.214-2.352-.555-.185-.66.092M328.415 377.56l11.264 3.84M330.318 373.427l2.473-7.482M332.791 365.945l-3.284-1.388M340.416 374.722l-3.844-6.332-.61-.81-.648-.444-2.523-1.191M325.998 363.498l3.509 1.059M344.237 372.536l-.775.599-2.09 1.197-.956.39M339.679 381.4l-.387.65M339.679 381.4l6.432 2.055M339.292 382.05l6.804 2.155M335.922 391.572l1.172-3.378 2.198-6.144M345.465 377.982l.149.123.18.07.194.008.186-.053.16-.108.121-.16.062-.193M345.465 377.982l.638 4.6.008.873M345.335 377.43l-.018.2.045.188.103.164M346.136 377.022l-.262-.505M346.136 377.022l-.198-.04-.2.028-.18.091-.14.146-.083.183" clip-path="url(#pffd267927c)" style="fill:none;stroke:#000"/><path d="m346.517 377.67-.006-.202-.071-.188-.13-.155-.174-.103M345.335 377.43l-.34-2.607M344.237 372.536l.758 2.287M346.096 384.205l.51.159M346.096 384.205l.258 1.12M346.096 384.205l.015-.75M346.111 383.455l.64.216M346.517 377.67l-.2 1.964M344.995 374.823l.879 1.694M352.3 380.914l-4.825-1.121-1.159-.16M346.75 383.67l-.15-1.792-.302-1.818.018-.426M372.783 376.24l-8.276 1.88M372.783 376.24l-4.277-6.768M373.724 379.762l-8.02 1.905M373.724 379.762l.184.698M373.724 379.762l5.507-1.323M373.908 380.46l.964 3.797M373.908 380.46l-8.003 1.957M375.836 388.418l2.486-.723M375.836 388.418l-8.161 1.733M374.983 384.769l.587 2.68.266.969M380.42 382.872l-5.548 1.385M380.42 382.872l-.881-3.747M380.42 382.872l.14.594M374.872 384.257l.111.512M374.872 384.257l-8.032 1.862M349.121 391.267l-.677-.74M352.237 394.294l-.743-.716-2.373-2.31M360.802 388.45l-.666.076-11.015 2.741M365.704 381.667l-6.28 1.545M365.704 381.667l.2.75M365.905 382.417l.935 3.702M365.905 382.417l-6.264 1.415M366.84 386.119l.116.557M360.547 387.58l3.406-.746 2.887-.715M367.675 390.15l-.72-3.474M367.675 390.15l-6.108 1.401M360.802 388.45l.765 3.101M360.802 388.45l-.255-.87M360.802 388.45l6.154-1.774M361.567 391.551l-9.33 2.743M359.641 383.832l-.217-.62M359.641 383.832l.906 3.748M359.424 383.212l-.967-3.616M358.457 379.596l6.05-1.476M358.457 379.596l-.989-7.164M352.3 380.914l1.664.402.943-.036.886-.26 2.664-1.424M380.183 363.819l1.368 1.914M381.551 365.733l3.059 4.84M381.551 365.733l-2.15.632M379.4 366.365l3.593 5.108M379.4 366.365l-10.894 3.107M368.506 369.472l-6.81 1.862M357.468 372.432l4.229-1.098M352.599 373.903l2.05-.735 2.82-.736M352.599 373.903l-.3 7.011M345.874 376.517l.748-.247 2.492-.833 1.93-.715 1.555-.82M364.507 378.12l-1.783-4.095-1.027-2.691M352.237 394.294l4.972 5.114M348.444 390.526l12.103-2.946M346.354 385.325l.16 1.32.316 1.168.508 1.296 1.106 1.417M328.601 356.256l.34 1.197.334 2.108.232 4.996M327.45 353.682l-2.144-4.073M327.45 353.682l-3.082 1.67M328.601 356.256l-.371-1.007-.78-1.567M410.533 355.168l.812-.565M410.533 355.168l-2.384 6.403M410.533 355.168l-1.323-1.973M411.345 354.603l2.67.166M411.345 354.603l-2.135-1.408M416.124 355.145l-2.11-.376M416.124 355.145l-.388-8.486M439.786 369.204l-.738-.25-.517-.156-1.061-.162-.868-.08-.646-.117-.436-.14-.319-.226-.363-.286-1.679-1.369-1.678-1.216-.884-.447-.59-.27-.496-.233-.427-.302-.331-.302-.436-.5-1.461-1.392-2.3-1.86-3.173-2.657-.985-.636-1.13-.524-1.404-.475-1.74-.46M397.119 346.37l7.776.244M431.121 342.974l-.407.407-.622.314-.863.298-11.306 2.5-2.187.166M407.32 346.722l1.856.075 6.56-.138M414.014 354.769l-.815-2.903M406.845 346.704l.476.018M406.845 346.704l-1.95-.09M406.845 346.704l-1.935.848M409.21 353.195l-1.89-6.473M401.479 348.887l3.43-1.335M402.206 356.499l-.407-2.824-.32-4.788M400.603 365.768l1.032-5.102M400.603 365.768l5.896-.06M401.635 360.666l.568-3.629.003-.538M405.02 360.343l.878-2.718-.036-.153-.068-.116-.113-.121-3.475-.736M405.02 360.343l-.294.684-.062.105-.11.065-.137.012-2.782-.543M405.02 360.343l3.13 1.228M408.15 361.57l-1.65 4.137M390.575 367.276l-1.029-1.624M390.575 367.276l1.35-1.562M390.575 367.276l-5.965 3.298M382.993 371.473l1.617-.9M391.924 365.714l-2.378-.062M403.828 372.432l1.064-2.697 1.607-4.028M209.247 375.187l1.913 1.151M209.247 375.187l-1.872-1.224M209.247 375.187l-.081-1.764M208.803 384.918l-.234-.846-.037-.654.053-1.073.174-1.388.375-2.726.113-3.044M212.76 391.681l-.575-.978-1.767-2.938-1.123-1.7-.492-1.147M229.651 397.78l-3.019-2.012-8.972-5.952-2.828-1.842-2.17-1.232-1.938-.999-1.921-.825M232.436 399.681l-2.785-1.9M239.716 404.335l-4.027-2.649-3.253-2.005M239.303 396.801l-.459.799-.632.68-.928.68-1.416.538-3.432.183M237.52 383.373l-1.936 3.29M237.52 383.373l1.655-5.77M227.324 379.912l1.583.13 1.374.274 1.178.346 1.63.677 1.356.515 3.075 1.519M229.651 397.78l2.428-4.46M229.651 397.78l-2.686 3.927M226.908 383.254l-.832 7.582M226.908 383.254l.416-3.342M226.908 383.254l8.676 3.41M235.584 386.663l-1.772 3.375M235.584 386.663l7.09 4.25M242.674 390.913l-1.616 2.837M246.326 392.829l-1.323-.708-1.13-.467-.88-.42-.194-.152-.125-.17M233.812 390.038l-1.733 3.282M233.812 390.038l7.246 3.712M241.058 393.75l-1.755 3.051M232.079 393.32l7.224 3.481M239.303 396.801l3.64 1.92M285.662 387.89l3.314.704M275.7 412.05l1.112-.733.984-.878.509-.515.314-.556.259-.7.201-.838.137-1.03.044-1.409-.293-2.175-.041-.958.016-1.054.21-.879.234-.99.315-.861.48-.927.48-.74.59-.817 1-1.161 1.373-1.912 1.21-1.924.408-.817.273-.802.142-.816.005-.669M275.7 412.05l-.503-.009M298.418 419.602l-3.277-1.288-1.598-.837-3.31-2.19-1.517-.935-1.646-.483-2.114-.274-4.084-.21-2.794-.707-2.378-.628M248.176 389.456l-1.85 3.373M239.716 404.335l3.227-5.614M258.39 415.31l-.534-.555-.44-.395-.4-.293-.512-.371-.42-.25-.496-.185-.645-.177-.52-.133-.61-.266-.788-.382-.928-.511-3.002-1.965-3.31-1.844-3.478-2.013-2.59-1.635M232.564 404.762l4.646 2.706 2.247 1.087 2.366 1.24" clip-path="url(#pffd267927c)" style="fill:none;stroke:#000"/><path d="m232.564 404.762-1.096 2.327-.88 1.925-.985 2.335-.545 1.655-.137.39-.049.246.024.157.121.193.48.362 1.18.637.806.41.807.226 1.203.25 1.655.522 1.396.588 1.429.508.367.1.21.008.202-.084.198-.262 2.873-7.46M242.943 398.721l3.383-5.892M256.758 396.352l-.375.354-.38.507-.237.44-.226.768-.246.319-.227.132-.294.028-.25-.044-.242-.084-1.538-1.104-3.075-2.254-3.342-2.585M227.324 379.912l.812-7.134M217.577 379.302l1.509.24 4.753.082 3.485.288M216.89 396.356l10.075 5.351M212.76 391.681l.458.778.537.962.573.644.876.914.888.78.798.597M209.306 413.036l.829-2.87.226-.85.263-.77.217-.458.38-.395 1.158-.974 1.566-1.014.662-.415.234-.178.205-.209.141-.221.134-.326.097-.375.173-1.795.214-1.313.266-1.527.157-.953.262-.94.4-1.097M404.895 346.614l.015.938M298.596 368.31l.554 3.59M299.15 371.9l-.006.404M370.066 412.714l-3.664-3.547-3.72-3.978-5.473-5.781M367.653 391.919l-5.537 3.817-4.907 3.672M346.75 383.67l-.143.694M431.121 342.974l.553-1.276M432.385 342.415l-.59.137-.674.422M432.385 342.415l-.71-.717M546.124 333.163l-1.88 1.296-1.373.983-1.34.45-7.433 1.474-6.215 2.005-2.582.676-10.364 3.632-4.64 2.037-.994.21-6.925.917-1.178.049-2.446-.08-5.505.233-1.13.16-3.34.774-1.874.241-2.235.475-4.367 1.587-1.445.419-1.315.209-5.27.153-10.227.861-3.22.846-1.437.161-1.42-.016-1.098-.121-1.283-.346-2.285-1.128-2.63-1.827-1.357-1.112-.8-.507-.766-.273-2.833-.572-1.388-.403-1.097-.443-4.787-2.697-1.412-.653-.767-.33-1.081-.088M546.124 333.163l2.47-1.812 3.68-5.09 1.356-3.026 1.808-.838" clip-path="url(#pffd267927c)" style="fill:none;stroke:#000"/><path d="m608.838 297.016-5.618 2.062-4.133 1.224-4.455.386-8.071 5.347-3.939 6.12-2.066 5.088-1.937 2.19-2.583 1.934-3.358 1.416-3.615.516-2.519.129-4.197-.967-4.326-.386-2.583.322M508.803 260.636l9.766-.113 8.507.322.618-.02.314.137.263.181.137.23.161.616.09 3.253.435 3.125.226 3.414-.129.74-.726 1.707-.227 1.402v1.449l.162 2.802.145 1.675.323.966.678.999.783.966.936.99.605.943.775 1.884 1.388 3.14.437 1.965.564 1.224 1.163 1.288 3.034 3.028 3.746 4.638 3.486 4.767 4.52 8.567 4.455 5.476M274.705 416.422l.492-4.38M275.197 412.041l-2.592-1.013M273.332 405.238l1.776.29.336.165.197.184.133.274.045.729-.13 2.061-.492 3.1M272.282 417.033l.323-6.005M272.282 417.033l1.405.114M272.282 417.033l-3.006-.525M272.605 411.028l.727-5.79M269.9 410.643l1.867.182.838.203M273.332 405.238l-2.671-.434M270.66 404.804l-2.65-.432M270.66 404.804l-.76 5.839M268.858 398.552l.617.115.266.225.161.347.097.885.218.83.145.402.16.298.183.278.122.18.054.096.034.187-.052.387-.202 2.022M269.9 410.643l-2.682-.242M269.9 410.643l-.624 5.865M269.276 416.508l-.858 6.171M269.276 416.508l-2.852-.275M268.418 422.68l-.696 4.214M268.418 422.68l5.431.852M268.418 422.68l-2.733-.43M265.213 426.434l.664.203 1.03.156.815.101M265.213 426.434l.472-4.184M262.508 424.721l.599.49.911.636 1.195.587M265.685 422.25l.74-6.017M265.685 422.25l-2.66-.417M266.424 416.233l.794-5.832M266.424 416.233l-2.666-.29M267.218 410.401l-2.669-.43M267.218 410.401l.792-6.029M268.01 404.372l.848-5.82M268.858 398.552l.704-6.04M268.858 398.552l-2.615-.393M269.562 392.512l.155-1.027M269.562 392.512l3.222.615M266.243 398.159l.463-5.064.073-.338.125-.165.19-.125.27-.105 2.198.15M264.55 409.972l-.792 5.971M263.758 415.943l-.733 5.89M263.758 415.943l-2.61-.314M263.025 421.833l-.517 2.888M263.025 421.833l-2.563-.402M260.257 422.847l1.452 1.035.799.84M260.462 421.43l-.205 1.417M260.462 421.43l.686-5.801M261.148 415.629l-2.757-.318M234.873 369.66l-1.27 5.546M234.873 369.66l-5.9-2.558M239.175 377.603l1.98-5.02.024-.16-.012-.14-.03-.081-.089-.091-6.175-2.451M233.603 375.206l5.572 2.397M233.603 375.206l-5.467-2.428M223.497 365.006l-1.928 5.03M223.497 365.006l5.476 2.096M223.497 365.006l-7.05-2.735M221.569 370.035l-3.992 9.267M221.569 370.035l6.567 2.743M221.569 370.035l-6.72-2.87M211.16 376.338l2.3 1.417 1.364.733 1.477.556 1.276.258M211.16 376.338l3.69-9.172M214.85 367.166l1.596-4.895M214.85 367.166l-5.59-2.321M228.136 372.778l.837-5.676M209.166 373.423l-.072-3.277-.008-3.446.174-1.855M208.718 358.817l.376 3.084.137 1.474.03 1.47M216.446 362.271l-7.728-3.454M215.776 289.246l-.67 4.517-.435 2.754-.823 2.384-.597 1.16-1.26 1.368-.847.669-.977.909-.63.934-.58 1.063-1.397 3.632-.896 1.828-.274.813-.056.709.024 1.07.242 2.24-.024 1.513.097 1.344.201 1.055.436 1.95.242 2.221.194 3.076.226 3.237-.016 2.32.258 1.964.597 2.4.856 2.69.936 3.381.097 1.53-.29 2.302-1.269 5.919-.293 3.027-.13 3.592M307.514 388.253l-2.379-1.95M370.066 412.714l-.268.221-.474.665-.545 1.167-.811 1.172-9.524 10.038-.324.086-.619-.59-.99-1.575-.812-.97-1.275-.99-2.514-1.04-3.2-2.069-2.127-1.497-.403-.177-2.785-.753-3.245-1.627-1.057-.692-.932-.665-3.898-3.51-5.836-4.252-8.527-6.784-1.481-1.07M385.555 429.715l-4.148-5.394-2.567-3.012-8.774-8.595M373.739 176.264l.707-.484M373.739 176.264l-.485-1.877M373.739 176.264l-.572.198M321.114 430.988l.182-5.274M226.965 401.707l4.034 2.143 1.565.912M445.64 370.279l.893.592 3.342 1.98M547.504 340.176l-.145.62-.428.483-1 .701-4.488 3.897-5.303 1.764-1.897.87-2.97.958-3.866 2.278-2.187 1.458-2.316 2.883-1.107.973-2.195 1.49-1.565.894-1.696 1.28-3.422 4.477-3.454 2.951-.86.319-1.788.128-1.767.395-4.076.934-.791.314-2.026 1.039-6.215 5.008-1.05.628-.814.322-2.188.588-2.3.242-1.937.048-3.297.35-.964-.459-1.183-.89-1.215-.305-2.107-.282-.835-.286-3.043-2.061-1.029-.407-1.307-.121-2.35-.016-.798-.137-1.009-.266-1.784-.644-1.581-.33-8.847.62-1.614.024-.815-.056" clip-path="url(#pffd267927c)" style="fill:none;stroke:#000"/><path d="M450.383 391.935v-7.343l.08-6.281-.08-3.06-.08-.845-.073-.66-.145-.612-.21-.282M466.36 545.474l11.466-3.45 9.169-4.702 2.324-.548 4.972.773 2.84-1.803 2.777-2.9 2.292-5.281 2.067-2.126 5.779-3.672 5.294-6.055 2.067-1.288 8.62-1.771 1.679-.74 13.075-7.538" clip-path="url(#pffd267927c)" style="fill:none;stroke:#000"/><path d="m463.443 466.474 2.211 2.011 2.324 1.32 2.163 1.643.775.257 5.521.42 2.454 1.16 3.002 2.962.387.805-.387 1.675 1.388 4.058 1.227 1.933.614 2.286.678 1.16.387 1.127 2.55 2.577 1.421 1.61 1.388 1.353 1.776 1.481 1.582 1.127 1.873 1.128 1.388.612 3.777 1.965 2.066.772 2.422.355h1.55l3.615-.258 3.842.709 4.036.966 3.293.129 1.743-.064 2.163-.355 2.777-1.095 3.907-.644 1.162-.065 2.066.58 4.197 2.2M451.109 527.193l4.569 8.084 1.098 1.53 1.63 1.594 4.487 3.333 3.467 3.74M451.109 527.193l-8.733 7.455 2.26 6.522-.354 1.289-2.422 4.17-.388 3.994-.322 1.869-1.938 1.674-2.388.322-6.974 6.764-3.357 2.383-1.744 2.77-2.066 1.095-1.55 3.994-9.298 7.794-9.557 5.282M295.44 608.47l-1.471 13.294-1.223 5.78-.639 2.594M177.35 517.416l.807 3.06.968 1.352 1.615 3.576 2.55 1.706.872 1.128 1.647 2.125.742 2.062 1 1.449.227.644-.13.709-.451.837-.13.45-.129 4.381-.322 1.578.129 3.35.742 3.317.29 2.061-.128.612-2.035 1.806" clip-path="url(#pffd267927c)" style="fill:none;stroke:#000"/><path d="m209.732 578.064-1.421-.838-2.842.903-6.973 3.156-1.55-.13-.645-1.223-3.616-11.143-3.551-4.51-.42-2.029-1.679-6.892-1.42-1.74M198.82 513.842l-.388 1.515-3.71 6.505-.193 2.48.484 1.674 1.614 2.416.517 1.289 1.066 3.574.452 2.222.323 2.03.161 2.447-.065 6.506.13 2.9.354 2.028 1.034 2.706.613.934 1.872 2.158 2.196 1.513.194.902-.194.934-.84 1.9-.29 1.031.129 1.256.226.773 1.162 2.738 2.357 4.992.937 1.74 1.162 1.706.032.612-.423.741M476.446 253.816l.92 1.562.597.902.508.757.621.66.501.556.662.733.54.563.63.435.896.435.952.322.719.225 1.13.266 3.373.483 2.503.66 3.503.79 2.922.563 2.106.556 1.017.12 1.332-.04 1.453-.048 1.235.024.734-.12.662-.185.484-.452.726-.66.792-.87.839-1.417M518.723 119.828l.855 1.306.242.936.621 2.384.904 4.88.953 7.36-.242.87-.412.91-.492 1.086-.573 1.853-1.025 1.972-1.76 4.003-.839 1.336-1.84 2.07-1.768 1.908-2.623 3.318-.275.676-.549 2.247-.322 1.868-.452 1.699-.331.765-.476.813-.904 1.236-.243.504-.242.773-.129.958.105 1.135.573 2.078 1.695 3.245.226.588.468 2.512.242 1.997.573 1.538.533 1.442 1.316 5.258 1.655 3.462 1 1.82 1.146 2.456 2.736 8.89.493 4.799.105 1.763.492 4.583-.186 1.473-.701 2.673-.574 2.698-.726 3.785-.315.877-1.517 3.06-.105.693.145 1.844.08 1.811-.02.842-.512 2.146-.492 1.256-1.292 2.593-.895 2.19-.61 2.085-.771 4.14-.557 2.898-1.008 3.733-1.3 4.714M466.332 111.49l.484.064.59.036.67.032.774-.052 2.462-.298 1.461-.153 7.611-.942 1.816-.218.973-.068.665-.016.654-.037.5-.076.65-.088.771-.19.456-.1.674-.165.767-.105.727-.049 1.388-.088 1.137-.056 1.228.008 2.534.145 1.606.064 1.517.072 1.349.161 1.557.25 2.664.62 1.275.298 1.186.25 1.744.241.452.016.653.017.44-.053.36-.048.42-.04.503-.069h.493l.277.04.284.113.299.177.294.254.847 1.003 1.324 1.71.384.6.383.653.428.704.509.757.524.757 1.627 2.207M552.433 97.062l-9.008.322-.872.257-1.517 1.804-7.587 4.768-5.973 4.348-1.26 1.16-.903 1.127-.872 1.256-.516.806-.226.483-4.976 6.435M409.265 174.995l.722-.664.355-.475.904-1.329.702-1.038 5.045-7.795 2.34-3.712 4.964-7.731 1.865-3.076.443-.612.227-.265.282-.226.327-.157.319-.084.488-.05h.464l2.518.283.96.096.872.017.84-.029.944-.06.597-.085.582-.088.693-.153.828-.23 2.207-.668 1.01-.435.758-.467.646-.684.428-.669.218-.523.21-.62.096-1.2.113-.644.234-.5.347-.483.687-.925.492-.572.702-.75.726-.603.735-.516.84-.499.79-.467.622-.483.339-.338.411-.403 1.025-1.24.848-1.111 2.494-3.302.783-1.175.75-1.184.888-1.473.541-.87.71-1.128 1.09-1.562.799-1.087.702-1.007.695-1.038.476-.757.855-1.563.33-.539.332-.54.322-.475.372-.5 2.163-3.043M476.446 253.816l-1.066-1.659-.469-.854-.443-.507-1.094-.853-2.45-1.876-2.518-1.877-4.463-3.55-.92-.645-.896-.733-.799-.845-.533-.725-1.025-1.538-.928-1.442-.606-1.094-.314-1.063-.646-1.828-.58-1.538-.437-1.047-.226-.475-.226-.282-.299-.274-.54-.402-1.824-1.24-.872-.677-.759-.636-1.162-.821-5.182-3.398-2.324-1.256-3.084-1.756-1.598-.918-1.13-1.03-2.599-3.012-2.776-3.672-.436-.624-.145-.33-.048-.201.092-.307 1.409-1.437.213-.253.085-.234.02-.218-.028-.136-.125-.178-3.087-4.022-2.123-2.995-.84-1.458-.968-1.385-1.186-1.699-1.09-1.61-1.251-1.828-1.122-1.699-.549-.959-.758-1.561-.783-1.515-.557-1.087-.581-.676-1.009-.934-.678-.918-.719-.91-.42-.668-.322-.975-.484-1.079-.565-.54-.904-.652-1.09-.78-2.344-1.43M391.556 170.594l.345.012.283.025.546.074.285.024.288-.006 1.001-.16.929-.267.83-.298 1.115-.386 1.21-.507.525-.201.45-.14.236-.038.167-.015.22.015.232.047.204.066.222.133.375.262.646.467.76.531.629.5 1.445 1.143 1.638 1.168.871.531.872.54.488.297.295.17.602.414M374.446 175.78l.73-.5.678-.474.661-.346.59-.29.67-.258.822-.257 1.098-.307.832-.2.718-.17 1.784-.322 1.566-.37 1.67-.468 1.227-.322.904-.266.856-.265.92-.233.678-.081.363-.039.343-.018" clip-path="url(#pffd267927c)" style="fill:none;stroke:#000"/><path d="m388.033 152.758.767.878.856.89.63.729.863 1.473.298.636.105.322.032.258-.044.262-.157.47-.331.83-.767 1.176-.8 1.144-.318.547-.048.21v.2l.068.158.299.382.285.427.23.376.175.546.27 1.429.743 3.044.367 1.45M373.254 174.387l-.79 2.32M373.513 163.508l-.04.427.072.91.13 1.884.024 1.595-.008 1.4-.009.557-.073.82-.088.621-.153.813-.13.91.016.942M388.033 152.758l-.702.355-.347.169-.303.189-.34.205-.487.335-.94.712-.283.225-.561.4-.4.253-.605.293-1.005.363-1.057.31-.743.201-.742.274-.791.298-.557.298-.71.516-.605.652-.582.74-.549.612-.774.765-.541.508-.525.7-.258.556-.113.821M350.377 150.15l1.69 1.248 1.114.563 1.163.37 3.066 1.04 1.744.62.735.265.883.165.868.053 1.324.24 1.138.194.855.194 1.09.475.549.378.645.42.582.522 1.202 1.248 1.768 1.619.847 1.014 1.13 1.716.743 1.014M391.013 148.66l.045.175.006.207-.06.23-.073.177-.111.187-.196.308-.29.47-.444.581-.3.406-.379.435-.411.39-.29.214-.477.318M141.69 331.432l2.583 1.103 7.862 3.824 4.343 2.529 2.873 2.239 11.38 7.939 12.72 8.696 8.556 5.717 7.942 5.315 7.426 5.17M209.166 373.423l-.46.327-.375.124-.428.065-.528.024M216.471 282.635l-.695 6.611M192.531 204.514l2.924 22.324.242 1.427.49 1.6 4.416 14.715 2.078 7.066 4.5 14.949 1.017 3.688.533 1.28.492.974.613 1.007 2.405 3.326 4.23 5.765M323.653 310.914l.21.246.173.165.126.157.253 1.72.202 1.98.194.798.226.764.533.886 1.13 1.595M346.607 384.364l-.253.96M392.409 375.314l.153.673M403.828 372.432l-.456.157-.477.21-.759.239-9.727 2.276" clip-path="url(#pffd267927c)" style="fill:none;stroke:#000"/><path d="m392.562 375.987 10.16-2.446.48-.264.287-.238.207-.302.132-.305M374.74 338.525l.282.448.25.455.315.736.154.584-.025.91-.193 1.175M305.101 306.64l-.08 2.43-.065 3.576M331.268 285.3l-3.05 1.345-.646 2.835 3.099 10.822-.517 3.028-2.26 1.287-4.241 6.297M295.367 287.41l.509 2.778.42 2.15.435 1.812.436.974.525.813.904 1.377 1.331 1.74 2.172 3.213 1.13 1.65.775 1.063.62.942.477.717M372.464 176.707l.703-.245M331.268 285.3l-1.053-3.37-.299-.756-.585-.89-.678-2.464-.573-2.15-1.639-3.463-1.235-1.98-.871-1.651-2.841-8.11-.912-1.794-1.211-2.03-2.885-3.788-.642-1.341-.315-1.703-.396-.753-.427-1.337-.823-3.285-.977-7.062.153-1.128 1.05-4.243.815-1.457 1.396-2.384 1.179-1.852.71-1.41.435-1.199 1.615-5.758.662-3.204.532-1.063.953-.95 1.049-.644 1.598-.162 1.566.065 1.679.346 2.115.588 7.797 3.132 1.96 1.08 1.026.185 1.622-.089 1.615-.37 3.204-1.45.984-.733 1.47-1.642 1.807-3.044 1.655-4.05.621-1.957.065-.798-.097-2.359-.662-2.496.13-1.352.475-.726.913-1.167.443-.83.73-2.161 1.038-1.92.549-1.128.29-.48 1.655-4.034.286-.39 1.684-1.498 2.481-1.116 3.483-2.194 1.259-.773 3.568-1.851M385.228 258.438l-.077-.362-.169-2.013-.072-1.112.113-.596.153-.515.347-.644.557-.75 1.856-1.875 2.655-2.995 1.599-1.982 1.226-1.264.679-.809.246-.543.165-.717.5-2.85.767-3.64.146-1.716-.065-1.513-.089-2.23.145-1.966.243-2.375.04-1.925-.024-2.182-.266-1.626-.436-1.466-.848-2.448-.686-1.884-.427-.958-.437-.846-.782-1.11-.792-.91-.887-.839-1.47-1.183-1.226-.79-.8-.82-.451-.58-1.8-2.762-1.469-2.416-.444-1.135-.484-1.949-.355-1.893-.396-1.328-.646-1.248-.661-1.305-.42-.853-.371-1.192-.573-1.892-.638-1.321-1.364-3.245-1.655-3.946-.952-1.86-.137-.54-.032-.233M374.446 175.78l-.15.7-.032.806M373.167 176.462l.315.25.313.2.469.374M385.228 258.438l.085.394.404.943.887 1.707 1.05 2.294.968 2.69.525.967.565.901.218.62.145.7.113.975.057 1.868-.218 1.756-.654 3.6-.202.905-.13.362-.25.467-.455.532-.932.833-.38.362-.403.508-.533 1.079-.755 1.586-.246.664-.307 1.293-.904 3.176-.322.75-.541.809-.46.636-.767.732-.88.468-1.178.57-1.72.87-1.484.677-.888.21-1.413.096-5.246.37" clip-path="url(#pffd267927c)" style="fill:none;stroke:#000"/><path d="m378.178 290.655-2.696.387-2.284.442-1.864.17-.92.153-.501.153-.274.21-.242.37-.154.507-.266 2.761M374.74 338.525l-.856-.68-1.356-1.09-.888-.605-.887-.45-.719-.452-.67-.652-1.113-.974-.23-.27-.21-.306-.106-.298-.064-.54-.101-.515-.1-.423-.203-.338-.193-.274-.392-.37-.617-.463-.529-.5-.46-.676-.968-1.469-1.138-2.005-.864-1.063-.84-.91-.564-.757-.638-.713-.573-.51-1.582-1.152-.569-.342-.492-.162-.565-.124-1.03-.057-1.953-.076M442.482 373.287l3.159-3.008M443.7 376.153l-.492-1.127-.726-1.74M439.786 369.204l.79 1.128.953 1.183.614 1.08.339.692M435.51 328.498l1.023-.48.944-.403.767-.242.613-.076.57.028.658.137 2.066.531 1.848.556 1.848.383 1.478.18 2.203.395 3.406.814.847.16.678-.032.76-.089.455-.165.335-.237.363-.346.509-.451.718-.45.637-.186.816-.162.621-.225.622-.467.363-.443.323-.483.379-.7.371-1.683.404-.862.282-.394.493-.46.46-.25.662-.216 1.154-.33 1.114-.387.92-.459 1.26-1.023 1.815-1.425 1.308-1.047.67-.805.5-.821.969-2.295 1.315-1.9.54-.83.384-.515.436-.334.537-.322.436-.343.492-.563.452-.757.25-.54.146-.692v-.721l.056-.853.214-.604.42-.544.774-.467 1.264-.74.613-.274 1.025-.58 1.13-.443.944-.161.965-.06 2.514-.005 2.309-.253.758-.23.59-.193.387-.076.488.012.714.024 1.215.04 1.037-.08.476-.13.59-.257.903-.37 1.704-.71.46-.28.31-.142.424-.044.525.012.642.076.795.17 2.445.62 2.268.523 1.865.354 1.267.315 1.452.636 2.099.982 1.695.62 1.703.41 1.982.452.916.25.524.217.541.362.662.524.59.644.71.845.903 1.401.76 1.707.523.934 1.195 1.514 1.517 2.255 3.164 3.672 1.389 1.723 1.904 1.384 3.277 2.851 1.179 1.481 2.308 2.883 2.793 2.738 1.517 1.957M547.504 340.176l.025-1.063-.29-1.296-.13-1.787-.17-1.064-.323-.82-.492-.983M445.64 370.279l-.745-.495-.63-.226-.791-.225-.799-.137-1.788.077-.698.02-.403-.089M385.555 429.715l2.873 3.753 4.068 6.538 2.47 4.55.904 2.407 1.211 2.255 1.195 1.69 1.581 2.014 6.328 7.585 1.954 3.027.807 1.868.338 2.303-.193 6.168.145 2.963 1.388 3.865 2.196 2.577 3.31 2.35 9.281 5.508 3.083 1.98 4.18 4.558 3.875 5.604 2.01 3.366M451.109 527.193l-3.066-5.444-4.423-6.184-5.061-8.92" clip-path="url(#pffd267927c)" style="fill:none;stroke:#000"/><path d="m463.443 466.474.387 4.58-.21 7.682-.678 4.67-1.356 1.772-3.874 5.491-.34 1.095-.112 2.56-.29 1.192-.291.758-.468.467-1.162.692-2.002 1.53-2.309 1.256-.936.628-.5 1.804-.428.692-.38.225-5.326 1.74-4.61 1.336M463.443 466.474l-.065-.766-.855-1.747-.622-1.522-.678-2.448-.436-1.972-.637-1.837-.509-.644-2.155-2.294-.944-1.627-.69-.906-1.134-.885-.88-.286-1.72-.379-.815-.507-1.977-.644-1.856-1.087-.727-.797-1.348-1.836-2.099-2.593-3.567-4.252-.468-.66-.904-1.952-.5-.624-1.397-1.33-2.639-1.61-2.567-1.956-.948-1.051-.658-1.767-.524-1.107-.246-.322-.69-.48-1.663-.507-1.647-.918-.88-.362-2.026-.644-7.03-.773-1.444.362-1.098.467-4.415 1.297-.888.104-.799-.088-3.575-.967-2.038-.937-1.219-.943-1.126-1.598-.428-.298-.557-.234-.67-.177-1.96-.217-1.656.02-.871.221-.855.451-1.857 1.546-.42.757-1.445 3.624-.637 2.077-.686 1.74-.743 1.126M212.76 391.681l-.437.295-.452.145-.425.04-.306-.036-.23-.08-.307-.13-.379-.072-.52.008-.731.044-1.405.21M350.377 150.15l-.492-.725-.683-1.055-.48-.532-.827-.757-1.033-.942M350.377 150.15l-.727.345-2.675 2.24-.791.498-.504.19-.534.129-.827.012-1.275.064-1.017.064-.702-.112-.666-.17-.513-.092-.484-.048-.411.02-.775.21-.977.345-1.017.322-.791.016-1.76.04-1.037-.052-.786-.076-.517.004-.622.08-.871.15-1.187.346-1.122.37-.456.145-.274.036-.36.005-.536-.061-1.013-.125-1.404-.064-1.195.04-.734.097-.686.104-.646.105-.783.008-.815-.193-1.09-.258-.888-.113h-.823l-.581.025-.742.152-.856.323-1.186.918-.993.781-.59.41-.403.186-.484.064-.46-.073-1.13-.418-1.082-.463-.404-.044-.27.012-.335.092-.484.158-.292.01-.267-.027-.216-.104-.452-.303-.339-.24-.286-.303-.174-.358-.396-.99-.318-.67-.283-.313-.246-.463-.388-.785-.233-.596-.444-1.538-.428-1.708-.42-1.368-.444-.926-.67-1.28-.565-.765-.577-.516-.851-.435M428.87 304.135l-.214-.645M435.51 328.498l-1.237-2.582-.912-2.094-.985-2.576-1.307-2.714-1.768-3.97-.492-1.055-.146-.49-.007-.516.128-.515.267-.609.27-.51.255-.67.226-1.127.306-1.006.154-.757-.049-.87-.113-.676-.194-.54-.294-.442-.424-.379-.319-.265" clip-path="url(#pffd267927c)" style="fill:none;stroke:#000"/><path d="m427.849 304.002.54.036.48.097M427.849 304.002l.807-.512M418.134 310.085l.8-.362.908-.37 1.008-.636 1.647-1.031 1.356-1.289.872-.732 1.005-.617 1.17-.624.949-.422" clip-path="url(#pffd267927c)" style="fill:none;stroke:#000"/><path d="m415.956 309.844.346.294.324.08.504-.024 1.004-.109" clip-path="url(#pffd267927c)" style="fill:none;stroke:#000"/><path d="m416.089 311.986.847-.733 1.198-1.168M431.674 341.698l2.018-5.612 1.792-4.993.145-.612.048-.66-.04-.773-.127-.55M428.656 303.49l.33-.64.226-.644.234-1.373.13-.628.25-.508.557-.917.597-.846.993-1.151.79-1.425.396-.685.638-.62.71-.499 1.005-.536.573-.153.553-.052.52-.069.517-.084.432-.157.464-.282.5-.418.553-.346.828-.452 1.4-.482 1.328-.395 1.408-.31 1.566-.25 1.065-.161.598-.185.484-.298.783-.805.678-.95 1.017-1.337.557-1.36.428-.806.193-.298.283-.27.69-.37.779-.435.585-.31.56-.378.59-.536 1.065-1.003.944-1.006.703-.628.936-.58.8-.435.56-.318.456-.342.477-.463.387-.512 1.396-2.069 1.332-2.657.912-1.514 1.138-1.345 1.138-1.151.517-.83.887-1.811 1.162-2.32.428-.676.501-.612.702-.66 1.3-1.305 1.283-2.013 1.243-1.852.735-1.151M415.956 309.844l.02.708.064.813.049.62M415.956 309.844l-.32-.741-.702-1.055-1.121-1.723-.993-1.28-1.679-2.158-1.202-1.16-.566-.604-.92-1.288-.984-.95-.315-.347-.154-.278-.125-.346-.085-.467-.031-.632.031-.326.118-.278.294-.403 1.848-2.407.896-.918.638-.837.767-1.04.427-.82.396-1.265.315-1.151.508-.99.69-1.217.497-.925.605-.758.59-1.086.75-1.176 1.033-1.546.533-.95.161-.54.032-.556.057-1.32.105-1.434-.008-1.457-.17-1.152-.363-.885-.605-.87-1.235-1.53-.662-.82-.597-.597-.372-.274-.79-.37-3.132-1.32-2.018-.701-3.519-1.458-4.286-1.82-1.009-.442-.653-.234-.896-.128-1.825-.226-6.158-1.256-4.524-.894M217.395 290.092l.29-.02.51.144.366.193.355.302.218.315.149.31M217.395 290.092l.525.446.585.367.778.432M215.776 289.246l1.143.524.476.322M144.58 197.135l.016.918-1.42 2.706-2.115 4.284-.871 2.98-3.89 15.863-2.729 11.45-1.872 8.085-2.26 9.831-.117.411-.029.16-.13.132.155.138.205.13 7.309 2.145 11.606 3.543 11.09 3.398 6.231 1.965 6.796 2.142 2.777.725 2.18 1.079 5.068 2.013 1.566.79 4.665 1.755 1.436.547 2.535 1.047 2.082 1.063 2.164 1.191.838.725 1.082.5 3.051 1.884 3.955 2.464 5.876 3.72 3.946 2.327M374.74 338.525l-.142-.885-.028-.326.025-.306.109-.37.234-.407.286-.379.533-.612.407-.894.376-1.417.194-1.666.145-.758.492-1.61.42-.934.573-.926 1.323-1.828.222-.374.295-.29.266-.145.263-.069.346-.056h.477l.661.12.985.086M380.56 383.466l-5.577 1.303M380.56 383.466l.82 3.492M144.58 197.135l-1.475-.472M192.531 204.514l-6.448 1.012-1.292-.08-1.63-.258-9.12-1.74-6.78-1.449-10.235-2.287-10.977-2.246-1.468-.33M199.655 371.217l-.02.258.06.37.125.484.303.555.455 1.144.501 2.069.5 1.482.743 1.682.63 1.498 1.016 1.868.396 1.128.404 1.57.185 1.2-.072 1.972-.267 2.746-.13.757-.217.886-.057.49.097.62.275.87.912 2.593.468 1.61.59 2.529.67 2.73.403 1.892.549 2.295.605 2.343.527 2.178" clip-path="url(#pffd267927c)" style="fill:none;stroke:#000"/><path d="m198.82 513.842-.324-4.96-1.485-4.315-4.649-10.113.516-2.577-.58-4.058-1.421-2.126-2.389-5.99-2.325-4.124-2.647-7.214-1.162-6.184-.194-4.38v-4.767l1.098-2.512 4.971-2.512 2.648-3.479 3.035-8.89 15.394-22.605M177.35 517.416l-2.938-5.25-3.487-7.504-.549-.548-.516-.772-.775-2.062-1.582-3.543-2.809-4.799-1.356-1.997-.904-2.383-.355-.644-1.775-2.158-.388-.612-1.323-3.543-.582-1.256-1.743-1.996-2.26-4.413-2.099-2.802-.355-1.45-.774-2.383-.13-4.734-.42-2.255-.451-1.03-.258-.967.128-1.61.517-2.995-.097-.967-.355-1.062-.42-1.804-.613-1.61-.84-1.385-1.388-1.417-.516-1.708.064-1.416.517-.677 1.743-1.288 1.808-2.415.775-2.352" clip-path="url(#pffd267927c)" style="fill:none;stroke:#000"/><path d="m198.82 513.842-2.148 1.08-8.62 3.381-1.598.467-7.264-.483-1.84-.871M374.983 384.769l-8.027 1.907M347.427 610.748l-2.744 1.9-.775.805-.969.709-2.518 2.254-9.04 3.543-.678.419-.484.515-1.388.999-.872.289h-1.13l-1.905-.676-.839-.194-4.972-1.835-.645-.065-3.197.13-1.291-.452-.194-.193-.452-.129-1.776-.934-.84-.547-2.259-1.03h-.613l-.711.193-.58.031-.776-.29-.968-.579-1.034-.805-4.326-4.766M309.008 592.326l-3.584 9.404-.452.773-.516.516-1.066.45-1 .902-1.97 4.477-.969 1.192" clip-path="url(#pffd267927c)" style="fill:none;stroke:#000"/><path d="m295.44 608.47 2.559.893 1.452.677M560.02 99.703l-2.002-.58-5.585-2.061" clip-path="url(#pffd267927c)" style="fill:none;stroke:#000"/></g><g id="PatchCollection_1"><path d="m306.176 393.032-.655 2.64-.356.002-.4-2.793zM311.26 370.207l-.152 1.845-6.893-.955.083-1.627 3.5.474zM289.013 373.29l.092.415-3.69 1.989-.187-1.723zM400.997 346.996l.125 1.712 3.641-1.23-.1-.5zM321.683 371.443l-1.142 3.259-.5-.15.992-3.208z" clip-path="url(#pffd267927c)" style="fill:green;fill-opacity:.8"/></g><path id="PatchCollection_2" d="m342.41 388.038-1.047 2.503-1.662-.691 1.048-2.503z" clip-path="url(#pffd267927c)" style="fill:#90ee90;fill-opacity:.8"/></g></g><defs><clipPath id="pffd267927c"><path d="M119.569 86.4h498.863v554.4H119.569z"/></clipPath></defs></svg>