<svg xmlns="http://www.w3.org/2000/svg" width="960" height="960" viewBox="0 0 720 720"><defs><style>*{stroke-linejoin:round;stroke-linecap:butt}</style></defs><g id="figure_1"><path id="patch_1" d="M0 720h720V0H0z" style="fill:#fff"/><g id="axes_1"><path id="patch_2" d="M121.25 640.8h495.5V86.4h-495.5z" style="fill:#fff"/><g id="LineCollection_1"><path d="m405.321 451.037-.06-.828M405.321 451.037l2.59-.164 1.426.05 1.017.017.791.084 1.043.168 1.886.336M405.321 451.037l-4.033.297M396.37 451.6l.255 5.215M396.37 451.6l2.328-.114 2.59-.152M396.37 451.6l-.444-.25M387.98 452.64l-4.672 1.944M387.98 452.64l-1.105-1.981M395.926 451.35l-1.1.09-.787.104-.644.055-.834.063-.752.1-1.386.207-1.235.297-1.208.374M380.215 455.888l-.734-.4M383.308 454.584l-1.858.764-1.235.54" clip-path="url(#pa56c81bcb1)" style="fill:none;stroke:#000"/><path d="m374.994 461.573.767-.94.842-.87 1.919-2.068.595-.735.601-.597.497-.475M212.131 497.515l1.372.111 2.99.116 2.061-.074 1.522-.057 1.696-.116.698-.125 1.077-.474.93-.305 2.475-.756 2.05-.81.591-.312.507-.348.486-.357.405-.475.281-.548.145-.432.187-.718.239-2.116-.042-1.04-.26-4.504-.134-4.109.317-2.938.31-1.592.76-1.416.75-.66.746-.438.891-.415.616-.194.976-.242 1.032-.333.633-.163.722-.102.683.034.645.085 1.601.184 1.501.19.908.082.771.027 1.487.027.806-.04.71.027.79.081.482.136.848.411.508.293.572.368.354.279.276.263.271.308.26.344.334.462.334.602.338.834.222.915.271 1.146.208.853.44 1.375.31.704.472.898 1.176 1.204 1 .626 1.099.7 2.704 2.698.64.976 1.106 1.796.514.786.458.697.447.599.92.966.65.5.786.439.863.428 1.06.401 2.782.858 1.964.55 2.367.565 3.478 1.354 2.36 1.218 4.01 2.636 1.796 1.442.916.667 3.01 1.793 1.775.792 2.704.942 3.423 1.153 2.184.612M325.978 491.19l-1.37.659-3.904 2.095-4.3 2.255-1.933 1.126-1 .606-1.158.904-.905.915-.377.499-.26.37-.29.557-.263.82-.142.43-.08.421-.67 3.492-.577 1.918-.18.418-.302.47-.437.415-.303.259-.302.18-.313.143-.427.108-.655.062-1.398-.027-1.176-.133-1.502-.293M299.865 568.41l-.644-2.267-.608-.991-.261-.94-1.495-2.15-.643-1.31-.383-.806-.435-.554-2.485-1.73-1.582-1.998-.296-.722-.713-2.838-.834-1.511-.8-4.03-.33-4.467-.608-1.663-1.148-2.704-1.426-1.545-1.6.017-.955-.37-.243-.789.33-.99 1.095-2.05 7.666-8.85 6.155-6.062 3.946-6.784.186-.447M400.965 413.284l3.016.97M403.98 414.255l-1.369 4.486M407.744 415.456l-1.866-.656-1.897-.545M407.744 415.456l2.08-3.183M407.744 415.456l-.153.359M409.913 416.695l4.855.666M409.913 416.695l-2.322-.88M409.913 416.695l-.863 2.115M409.824 412.273l.91.458.331.205.119.205.04.268-.117.353-1.194 2.933M417.685 417.64l-2.917-.28M417.685 417.64l.188-1.162M417.685 417.64l.097 2.16M402.611 418.74l-1.115 3.578M397.353 427.856l.645-2.34.732-2.358 1.543-4.74.088-.192.048-.1.098-.085.108-.034.107.013 1.89.72M405.254 421.396l-.714 1.887M405.254 421.396l2.139.843M407.59 415.815l-1.307 2.961-1.03 2.62M412.655 422.814l1.226-3.254M412.655 422.814l-2.174-.09M416.132 419.922l-.554 1.899-.154.396-.16.377-.092.153-.118.105-.158.036-.213.024-.26-.005-1.768-.093M401.496 422.318l-.286 1.098-.3.843-.875 2.456-.12.19-.165.203-.284.208-.652.2-1.46.34M391.95 430.066l2.883-1.265 2.52-.945M391.95 430.066l1.399 3.359M387.455 431.213l.494.097.28.013.385-.054.406-.14 2.93-1.063M370.189 433.108l.423 1.67M377.264 434.167l-.062-.577-.074-.482-.116-.409-.17-.616-.112-.344-.084-.234-.123-.113-.074-.044-.089-.007-.677.171-5.494 1.596" clip-path="url(#pa56c81bcb1)" style="fill:none;stroke:#000"/><path d="m362.398 434.085 6.574-1.928.49-.162.22.022.136.16.11.236.261.695M396.983 433.332l.528.028M397.51 433.36l-.07-1.408-.104-1.618-.013-.247-.028-.203-.05-.096-.064-.034-.028-.007h-.068l-.039.01-.034.018-.028.026-.01.05.01 3.481M393.349 433.425l1.244-.104 2.39.011M403.404 433.509l-3.432-.064M403.404 433.509l.425 3.543M404.3 423.881l-.378 1.076-.829 2.443-.069.245-.037.261.11 1.889.307 3.714M391.918 434.062l.77-.381.66-.256M377.264 434.167l-6.304 1.547M387.455 431.213l-2.02.454-3.284.914-2.49.777-1.194.368-1.203.44M370.612 434.779l.348.935M360.469 439.755l1.162-2.038.354-.351.449-.232 8.178-2.355M391.918 434.062l-1.59.608-1.519.636M381.885 436.148l1.164.094 1.576-.089 1.39-.207 1.402-.225 1.392-.415M389.467 438.702l-.133-1.08-.182-1.058-.343-1.258M370.96 435.714l.564 1.89M377.682 436.562l.555 3.691M381.885 436.148l-.96-.047-.986.055-2.257.406M371.524 437.604l2.28-.372 3.878-.67M403.829 437.052l-4.203.496M404.167 440.88l-.103-1.185-.177-1.877-.058-.766M371.524 437.604l-10.561 3.023M371.524 437.604l.517 3.51M399.626 437.548l-5.116.65M399.818 441.391l-.064-.957-.128-2.886M394.51 438.199l.28 3.789M394.51 438.199l-1.604.21M389.467 438.702l.051.172M389.467 438.702l-7.471 1.114M378.237 440.253l3.759-.437M378.237 440.253l-6.196.86M378.237 440.253l.604 3.487M360.963 440.627l-.494-.872M362.311 442.71l-.733-.952-.615-1.13M372.04 441.114l.678 3.545M372.04 441.114l-9.729 1.597M394.79 441.988l5.028-.597M394.79 441.988l-4.537.631M394.79 441.988l.473 3.047M390.155 442.208l-.637-3.334M390.155 442.208l.098.411M378.841 443.74l6.293-.887 5.021-.645M365.442 445.685l-1.707-1.416-1.424-1.558" clip-path="url(#pa56c81bcb1)" style="fill:none;stroke:#000"/><path d="m379.171 447.003.012-.864-.128-1-.214-1.4M372.718 444.659l2.2-.41 3.923-.51M372.718 444.659l.469 3.236M372.718 444.659l-7.276 1.026M390.675 445.298l-.422-2.679M390.675 445.298l.816 3.444M379.984 446.887l6.87-1.042 3.821-.547M368.894 448.667l-1.403-1.242-1.174-.974-.875-.766M379.171 447.003l.813-.116M379.171 447.003l-5.984.892M395.428 446.977l-3.937 1.765M395.428 446.977l-.165-1.942M395.428 446.977l.285 1.667M413.556 447.084l.136 2.311M408.252 447.425l-3.162.186M418.585 446.692l.207 2.409M373.187 447.895l.336 4.03M368.894 448.667l.719-.252.75-.143 1.801-.237 1.023-.14M405.09 447.61l-.923-6.73M405.09 447.61l.17 2.6M405.09 447.61l-4.342.46M400.748 448.07l-5.035.574M400.748 448.07l-.364-3.82M400.748 448.07l.375 2.572M391.49 448.742l-4.615 1.917M373.523 451.925l-1.767-1.136-1.493-1.098-1.369-1.024M395.713 448.644l.213 2.705M380.864 449.27l-3.012 1.353M380.864 449.27l1.433 3.23M379.984 446.887l.242.819.315.848.323.717M413.692 449.395l-.265-.059-8.167.873M414.074 451.528l-.104-1.445-.078-.335-.2-.353M418.792 449.1l-.724 4.002M424.542 434.597l.134-.198.164-.114.337-.032.497.015.805.148.92.153.526.207.388.238.222.206.307.465.237.678.366 1.9.195 2.283-.012.498-.12.435-.113.313-.61 1.279-.484.66-.648.894-.993 1.01-.544.587-.45.425-.427.191-.27.077-.461.097-.588.12-.774.124-.736.117-.756.09-.583.17-.443.222-.247.186-.24.267-.301.344-.26.208-.343.122-.445.119M386.875 450.659l-4.578 1.84M405.26 450.21l-4.137.432M401.123 450.642l.165.692M401.123 450.642l-4.76.411-.437.296M401.288 451.334l.177 1.962M373.523 451.925l.78.363M414.074 451.528l3.994 1.574M374.304 452.288l3.548-1.665M379.481 455.488l-1.783-1.086-2.518-1.54-.876-.574M382.297 452.5l1.01 2.084M497.87 515.78l-4.338-6.826-2.051-3.426-2.025-2.56-1.913-2.033-1.217-1.125-1.625-1.209-1.54-1.016-3.38-1.94-2.182-1.243-4.833-2.67-3.2-1.847-5.728-3.174-1.692-.998-6.042-3.416-2.617-1.421-3.953-2.46-2.9-2.008-1.066-.818-2.014-1.694-6.764-6.1-1.461-1.329-5.356-4.944-1.66-1.464-1.445-1.388-1.55-1.279-2.912-1.915-2.93-1.805-1.408-.57M377.852 450.623l1.629 4.865M392.906 438.409l-.458-2.232-.53-2.115M392.906 438.409l-3.388.465M397.51 433.36l2.081.1M399.972 433.445l-.38.015M399.591 433.46l.19-4.134.044-.332.02-.05.037-.034.059-.024H400l.099.025.033.05.023.056-.008.327-.175 4.101M392.858 426.612l-5.784 2.093-.12.08-.04.114v.113l.03.13.511 2.071M395.263 445.035l5.121-.786M400.384 444.25l-.327-2.873M407.393 422.24l.322.073M406.725 424.679l.14-.523.14-.61.135-.466.117-.453.136-.388M406.014 427.594l.71-2.915M406.725 424.679l-2.424-.798M404.3 423.881l.24-.598M401.496 422.318l3.044.965M418.504 163.537l1.277 1.852.55 1.143 1.02 1.855.883 2.338.228.34 1.042.856 2.933 1.717.922.709.4.819.608 2.244.233 2.638-.227 1.516-.586 2.82-.047 1.63.042 5.614-.008 1.29.47 1.494.46.905.983 1.465 1.26 1.337.865 1.59.193.722.064 1.764-.271 1.387-.228.697-1.972 5.129-.376 1.666-.18 2.252-.076 1.017-.361 1.6.057 1.114.277.786 1.541 3.108.121.836-.038 2.846.518.773.867.697.736.024.556-.182.224-.137 1.185-.373.335.026.35.304.835 1.048 1.544 1.227.262.711.514 3.128.108 1.805-.172 1.37-.41 1.003-2.487 3.767-.884 1.334-.272.502-.074.42.025.533.143.45.43.595 1.58 1.363 2.714 1.889 2.417 2.225.161.444.736 3.923 1.376 3.206.097 1.12-.067 1.239-1.235 3.418-1.68 2.956-1.127 1.4-1.399 1.465-4.404 4.087-1.168.995-1.402 1.409-1.09 1.944-.488 1.27-.08.346.144 1.805.433 1.408.657 1.39.716 1.981.514 1.156 1.374 3.604 1.162 2.46.415.902.326 1.017.227 1.733-.034.721-.544 2.951-.326.558-.915.98-.652.577-.642.878-2.407 4.79-.506 1.53-.25 1.697.005 1.01.237 1.514-.243 1-1.65 2.511-1.885 4.12-.941 2.56.014 1.15.287 1.046.326.722 1.734 2.902 2.13 3.209.623 1.661.683 2.153.563 1.142.998 1.112 1.22.73 2.397.87.693.19 1.107.445.691.472.53.592 1.052 2.388.272.783.05 1.79-.075.597-.549 1.637-1.655 3.61-1.088 2.826-2.683 3.057-.35.372-1.503 2.134-.237.501-1.745 5.615-.217 1.146-1.354 3.578-.845 2.29-1.395 4.652-1.183 2.08-2.387 3.523-.531.604-1.195.938-.859.874-.625 1.153-1.24 2.475-1.434 1.75-1.186 1.091-.316.189-1.996.804-.448.39-.027.513.539 1.017.76 1.494.465 2.654.257 4.135-.15 1.358-.24.459-1.26 1.15-.742.595-.87.893-2.234 3.552M409.05 418.81l-1.335 3.503M409.05 418.81l2.742.45M417.782 419.8l-1.65.122M417.782 419.8l.074 1.767M413.881 419.56l.887-2.2M413.881 419.56l2.25.362M413.881 419.56l-2.089-.3M410.481 422.723l1.311-3.463M407.715 422.313l1.351.245 1.415.165M497.87 515.78l.33-.512.208-.696.079-.991.295-2.05.157-1.36-.013-1.137-.182-1.55-.153-1.443.03-.903.17-.617.287-.702.309-.541.743-.916.638-.717 2.921-2.939 2.082-1.969 1.312-.957 1.565-.815 3.251-1.381 3.177-1.273.596-.268 3.164-1.856 4.902-2.435 1.27-.554.83-.18.421-.038 1.678.088.773.08.644-.105.526-.315.647-.411.53-.118 1.209-.059 1.06-.269.991-.647 1.27-1.46 1.338-1.755.843-1.1.53-.32.391-.083 1 .008 2.364.017 1.573.1 1.374-.025 2.104-.293 2.234-.328 1.025-.37.809-.36 1.451-1.008 1.087-.764.539-.34 2.286-1.168 1.773-.995.952-.486.843-.181.37-.009 1.056.168 2.45.555 2.126.163 1.383-.125 1.938-.345 1.895-.277 1.747.176 3.207.462M576.962 468.759l-.009 1.402.027.99.052 1.705-.757 2.225" clip-path="url(#pa56c81bcb1)" style="fill:none;stroke:#000"/><path d="m533.396 596.268.556-3.257.452-3.577.382-6.255.166-6.708-.13-1.176-.41-2.317-.225-.84-.513-1.494-1.052-1.982-1.904-2.889-3.511-4.542-3.964-5.214-2.573-3.46-5.111-7.926-3.32-5.407-2.026-3.51-6.91-11.1-2.947-4.677-2.486-4.157M381.996 439.816l-.111-3.668M406.752 435.85l1.774-.053M408.244 433.148l-1.352.079-.118.02-.098.057-.04.085-.006.172.008.263.114 2.026" clip-path="url(#pa56c81bcb1)" style="fill:none;stroke:#000"/><path d="m404.167 440.88 2.672-.405.144-.031.082-.057.032-.078.025-.14-.01-.21-.36-4.11M245.304 335.87l.085.202.198.165 1.658.695 1.56 1.122.948.831 2.168 2.213 1.491 1.113 3.866 2.108 2.867 2.099.708 1.36 1.59 2.935.935 1.55 2.076 2.525 4.034 5.042.57.355 2.678 1.185 3.787 1.482.415.258 1.154 1.088.476.95.313.635.634.546 3.04 1.146.905.684 1.06 1.13 3.14 4.597 1.38 1.569 1.098 1.022.834 1.012.522.403 3.946 2.297 1.977 1.33.874.883 3.86 3.323.73 1.19 2.933 6.214.504 1.776.514.84.795.95 1.204 1.049 1.36.948 2.282 1.124 3.169 1.354 4.091 2.284 4.957 3.149.835.755.93 1.52 2.064 4.104.96 1.088 1.27.846 8.066 4.413 4.277 4.135 3.324 2.232 2.74 1.68 1.813 1.449.91.917 3 3.996 1.423 1.938 1.971 2 1.829 1.58.367.5M533.396 596.268l-.382 2.117-.218 1.754-.105 2.309.044 2.486.626 6.347.66 4.441.566 2.855.313 1.251.8 2.04.747 1.67 1.356 1.94 1.295 1.227 3.877 3.433M607.22 594.11l-2.007-1.267-.782-.705-.913-1.033-1.383-1.629-.617-.689-.652-.234-.617-.076-3.824.151-5.007.244-1.356-.06-.608-.15-.713-.31-1.835-1.31-1.225-.605-.604-.118-.591.017-2.443.285-.465-.08-.461-.306-1.343-1.18-2.055-2.111-.904-.865-.479-.23-1.425-.635-1.547-.428-1.626-.302-2.251-.126-.518.016-.456.11-.513.168-.417.071-1.095.038-1.356.059-1.565.268-1.895.672-4.32 1.486-4.086 1.503-1.45.57-2.609 1.227-2.49 1.285-.804.327-.552.126-.795.017-.466-.013-1.13-.096-.921.037-.808.14-.809.313-.787.433-.716.558-.935 1.096-2.677 3.594-.591.789-.583.68-.4.26-.347.176" clip-path="url(#pa56c81bcb1)" style="fill:none;stroke:#000"/><path d="m134.604 209.9 1.15 3.575.086 1.973.457.428 1.438.78.959.38.931.89.653.931.563 1.008.193.566.051 1.272-.254 3.35.02 1.306-.307 1.052-.097.997.099.578.466.717.743.519.672.43 1.869.563 1.83.312 2.964 1.054 1.21.73 1.347 1.602.541 1.382.343 1.648.033 1.22-.352 3.217.164.908.623 1.17.86.967.417.274 2.454 2.256 5.338 3.032 2.582.863 1.598.637 1.197.119 1.378-.148 1.446-.455 1.789-.562 1.04.022.786.31 3.353 2.175 1.97 1.192 3.738 2.035 2.434 2.555 1.053 2.35 1.29 1.222 2.066 1.518 1.583.358 3.121 1.223 2.64.072.948.138 1.597.477 2.743 1.332 3.504 2.41 1.835 1.171 1.127.442.534.036 2.478-.32.742-.117 1.366-.647.86-.669.496-.215.418.018.619.288 1.415 1.19 1.463 1.494 2.269 2.404 4.976 4.1.677.286 1.552.267.895.415 1.03.745.719.764 1.14 1.95.773.715.894.978.089.473-.044.391-.648 1.127-1.255 1.776-3.023 4.398-2.619 2.301-1.962 1.39-3.016 1.665-2.238 1.012-.974.773-2.966 3.254-1.754 2.88-.913.693-1.19.756-.222.252-.135.626.2.293.687.03 1.475-.516.678-.286.337-.27 1.99-2.934 1.013-.756 1.448-.726 1.038-.067 1.709.084 2.416.453 2.16.554.96.58.7.915.248.979.14 3.292-.053.804-.807 3 .168.7.578.236.52-.031.664-.385 1.318-.963 2.668-2.226 1.054-.678.938-.105.857.156 1.847 1.012 2.408 1.67 3.533 3.301 1.06 1.76 1.5 4.177.495 1.962.427 1.582.66 2.137.096.962-.187.714-.578.838-1.765 2.164-.628 1.567M134.604 209.9l-.143-.586-.094-.396-.025-.59-.034-.69-.018-.377-.113-.274-.089-.224-.1-.266-.042-.404-.197-.53-.106-.283-.19-.175-.334-.116M132.483 193.354l-.07.94-.278 1.277-1.356 4.435.14.403 1.147 1.075 1.053 3.505" clip-path="url(#pa56c81bcb1)" style="fill:none;stroke:#000"/><path d="m138.234 156.753-.807 1.919 1.737 2.338-1.923 1.559-1.177 1.962-1.182 4.501-.382 3.897.173.874.835 1.78v1.108l.347 1.546-.069.705-.522 1.78.07.807.626 2.42.104 2.888-.382 3.292v.806l.14 1.411.347 1.243.824 14.478-2.39 1.833M434.79 97.062l-.235.6-.14.498-.1.43-.303.78-.324.696-.245.566-.247.444-.425.477-.38.527-.406.774-.672 1.571-.267.45-.36.458-.386.477-.306.282-.525.416-.553.377-1.26.682-1.576.678-1.014.492-.662.325-.623.454-.578.664-.593.769-.784 1.132-.387.83-.121.516.049.595.084.37.106.348.455 1.022.753 1.61.734 1.284.267.712.243.778M418.504 163.537l-.107-.142-1.14-1.523-1.067-1.333-.761-.71-.949-1.085-.623-.76-.192-.649.079-.496.262-.459.425-.916.216-.448.15-.474.24-1.07.15-.85.341-.719.62-.737.887-.712.84-.542.779-.635.511-.413.393-.472.373-.612.282-.568.119-.907-.173-.54-.213-.352-.315-.273-.391-.244-.487-.168-.794-.18-.706-.163-.94-.195-.496-.135-.368-.234-.176-.245-.066-.322-.017-.387.083-.418.088-.13.167-.08.212-.094.267-.04.705-.034 1.008.003.427-.07.313-.11.288-.166.55-.282 1.004-.719 1.073-.84.687-.62.597-.727.361-.592.193-.559.064-.869-.03-1.074-.064-1.643.025-2.569.129-1.776.019-1.404-.094-.578-.232-.96-.025-.544.252-.941.487-.92.398-.67.257-.425.222-.487.026-.211-.04-.251-.114-.47-.252-.659-.232-.792M418.504 163.537l1.55-.448 1.365-.009 1.186.182.939-.03.85-.2.81-.268.96-.658.681-.325.336-.01.208.182.257.478.83 1.67.791 1.471.257.468.385.621.435.353.544.144.356.253.172.478.188.658.346.602.81.974.438.568.49.884.797 1.743.386.879.563.82.352.655.148.544.084.54.217.754.306.889.544.936M400.057 441.377l4.11-.496M400.057 441.377l-.239.014M218.12 576.443l.22-.243 1.036-.967.85-.84.435-.618.613-1.021.28-.835.497-1.64.56-2.383.433-1.795.408-1.624.104-.77.016-1.38-.11-.578-.105-.459-.401-.588-.72-.924-.473-.63-.252-.48-.14-.348-.37-1.207-.231-1.376-.265-1.973.048-.451.108-.288.281-.534.456-.742.593-.743.485-.742.24-.7.192-.859.132-1.13v-1.82l-.048-1.447-.004-.626-.044-.596.024-.654.08-.804.156-1.099-.004-.72-.028-.54-.2-.852-.224-.78-.272-1.037-.329-1.006-.344-.802-.084-.356-.037-.343-.192-.858-.304-.797-.376-1.245-.425-1.447-.328-1.06-.336-.773-.325-.418-.905-1.338-.713-1.106-1.24-1.891-.613-.944-.38-.684-.205-.662-.107-.834-.145-1.587-.086-.505-.144-.468-.206-.582-.219-.802-.042-.482.035-.572.1-.503.032-.43-.083-.528-.088-.46-.152-.472-.125-.564-.087-.428-.049-.975-.09-1.454-.11-1.844-.135-1.404-.252-2.02-.068-1.361-.069-1.036-.184-.836-.272-1.013-.409-1.199-.254-.996M325.978 491.19l-.987-1.495-.75-.915-.382-.524-.331-.395-.296-.402-.35-.435-.172-.21-.252-.365-.09-.191-.05-.212-.01-.215.07-.981.113-1.002.107-1.508.095-1.488.023-.404.047-.178.104-.21.28-.385 1.182-1.209 1.411-.987M374.994 461.573l-.127.156-1.838 2.534-.613.915-.341.374-.514.718-.255.395-2.055 3.513-.462.527-.493.419-.56.347-.63.33-3.697 1.833-4.38 2.153-4.41 2.075-5.605 2.7-6.042 2.8-5.806 2.572-3.008 1.321-8.18 3.936M218.12 576.443l-.165.445-.344.557-.38.67-.185.479-.12.73.032.65.016.816-.008.573.004.46.192.565.228.367.313.41.472.286.833.29.957.147.656.155.705.251.693.356 1.95 1.625.572.475.429.344.376.244.63.298 1.228.29 1.21.34 1.197.232.812.155 1.126.081.774-.174M378.933 462.742l-3.94-1.17M588.853 451.73l-9.561 3.24M588.853 451.73l-2.903-8.113M593.443 464.93l-.087-.555-2.486-7.12-2.017-5.526M579.292 454.97l-9.544 3.074M584.35 469.984l.088-.486-5.146-14.527M573.255 437.77l4.02 11.457 2.017 5.744M573.255 437.77l-2.413-5.707M561.542 441.82l1.286-.52 1.357-.269 2.729-.957 6.34-2.305M570.686 431.51l.156.553M561.542 441.82l-2.156-5.911 11.456-3.846M556.518 443.886l5.024-2.065M569.748 458.044l-1.53-4.165-1.478-4.182-.8-.386-7.927-3.107-3.2.907M569.748 458.044l.92 2.62M570.669 460.664l3.025 8.38M570.669 460.664l-7.041 2.2M593.443 464.93l3.407-3.41 1.044-.822" clip-path="url(#pa56c81bcb1)" style="fill:none;stroke:#000"/><path d="m584.35 469.984 2.139.32.922-.32 2.173-.856 2.016-2.889 1.843-1.31" clip-path="url(#pa56c81bcb1)" style="fill:none;stroke:#000"/><path d="m576.962 468.759.783-.27.886.118.643.47 1.86.655 3.217.252M576.962 468.759l-.851-.068-2.417.353M569.226 471.025l1.53-.805 2.938-1.176" clip-path="url(#pa56c81bcb1)" style="fill:none;stroke:#000"/></g><path id="PatchCollection_1" d="m741.058 640.818.835-3.56-1.947-1.276-2.852-2.62-.486-4.567-1.67-5.843-2.92-8.128-5.911-4.568-5.771-.268-3.408 1.276-4.798 2.217-4.729 6.717-3.13 5.037-4.52 5.105-6.605 2.955-3.825 1.814-.626 5.306.904 3.896 2.364 7.59 3.408 4.433 4.59 5.037 1.32 3.157 1.322 4.433-.418 3.29-2.503 2.352-3.13 1.41-1.529-.537-.348-3.157-4.172.739-3.06.873-3.338.873-3.268-1.276-3.2-.672-2.224.404-3.616 2.686.208 2.216-.695 3.56-1.391 2.754-.834 3.224 1.947 1.948 3.546-5.575 2.504-1.142 1.808.94 2.99 1.411 3.199-1.21 1.113-2.35 3.476-1.746 1.947-.269.974 1.075 1.043 1.88 1.113-.268-.07 1.612-1.807 1.141-1.46 5.173-.905 2.552-.904 2.485-2.712 1.545-2.086 1.612-1.183 1.813-1.112 2.418-2.364 2.217-.765 2.081 2.016.672 1.947 2.082.835-.336-1.53-3.492 1.808-3.023 2.573-4.23 3.755-2.285.07 1.478-1.252 3.358-1.113 2.62-.834 4.097-1.113.134-.487.94 1.322.336-.556 1.545-.974 1.68-1.739.402-.487 1.947 3.06 1.612-.208 1.546-1.252 2.216-1.878 1.545-.417 2.082 1.39 1.612 1.67-3.023 1.6-.739-.418 1.21.974.47 1.877-9.404-1.251-1.007 1.182-2.62 1.877-5.775 1.182-4.702.278-2.62-.486-3.022 2.155-2.149-.07-3.425-.555-1.88 2.503-3.023 2.156-2.687 4.033-3.694 6.05-3.896.904-2.62-1.739-7.387.348-3.963-2.85-4.366-3.756-3.896.835-1.141 1.042-1.747-.069-1.343 5.91-4.702 1.183-4.567 4.033-2.62 1.947-3.291-.486-2.552 2.433-.94 4.381-3.426 3.616.537.626 5.776.279.74-.627 4.567 3.27 6.717 4.52-.874 4.24-1.679z" clip-path="url(#pa56c81bcb1)" style="fill:#006400;fill-opacity:.8"/><path id="PatchCollection_2" d="m382.829 452.294 3.9-1.451.764 1.375-4.006 1.603z" clip-path="url(#pa56c81bcb1)" style="fill:green;fill-opacity:.8"/><path id="PatchCollection_3" d="m409.38 445.418 4.11-.491-.786-5.398-3.924.536z" clip-path="url(#pa56c81bcb1)" style="fill:#90ee90;fill-opacity:.8"/><path id="PatchCollection_4" d="m432.649 461.077-3.801-19.06-10.163-5.582 2.81-18.037-2.093-5.871-8.887-3.909-11.06 1.733-4.084 11.742-30.886 7.507-3.667-6.87-15.643 7.025 13.126 9.485 9.37 10.685 7.115 8.167-.622 7.46 6.227.096 3.238-4.86 8.867-2.647 12.803-.53 14.397 1.54 9.316 4.091z" clip-path="url(#pa56c81bcb1)" style="fill:#d3d3d3;fill-opacity:.8"/></g></g><defs><clipPath id="pa56c81bcb1"><path d="M121.25 86.4h495.499v554.4H121.25z"/></clipPath></defs></svg>