<svg xmlns="http://www.w3.org/2000/svg" width="960" height="960" viewBox="0 0 720 720"><defs><style>*{stroke-linejoin:round;stroke-linecap:butt}</style></defs><g id="figure_1"><path id="patch_1" d="M0 720h720V0H0z" style="fill:#fff"/><g id="axes_1"><path id="patch_2" d="M104.031 640.8H633.97V86.4H104.03z" style="fill:#fff"/><g id="LineCollection_1"><path d="m559.007 111.016 2.432 1.4M559.007 111.016l-.755-.437M557.808 112.627l.47-.427.272-.326.185-.318.272-.54M556.214 109.428l2.038 1.151M556.214 109.428l-1.18-.681M556.214 109.428l.349.705.164.344.17.357.136.405.083.26.046.148.069.203.1.25M586.018 126.524l-12.864-7.35-1.376-.795-7.128-4.074-3.211-1.89" clip-path="url(#peb8ecf5c6a)" style="fill:none;stroke:#000"/><path d="m557.808 112.627.618-.105.825-.207.64-.06.664.052.884.108M557.808 112.627l-.562.613M557.246 113.24l-.092.187M557.282 112.368l-.036.475v.397M542.987 138.307l-3.033 5.973-2.967 5.885-2.28 4.36-4.96 9.975-6.248 12.271-4.512 8.753M515.987 191.465l1.456-2.93 1.544-3.011" clip-path="url(#peb8ecf5c6a)" style="fill:none;stroke:#000"/><path d="m502.515 182.633 4.952 1.755 1.112.238 1.136.12 2.032.016 1.528.245 2.856.366 2.856.151M533.128 191.637l.009-.222-.078-.185-.345-.202-1.703-.905-2.456-.978-2.08-.73-.84-.143-.952-.183-1.368-.302-.968-.453-1.04-.46-.872-.683-.56-.46-.292-.123-.596-.084M505.555 231.279l-.98 4.074M511.443 206.571l-2.528 10.253-1.272 5.861-2.088 8.594M518.675 241.85l-.048-.961-.128-.715-.56-1.215-.904-2.08-.656-1.581-.192-1.613-.504-1.31-.28-.365-.48-.294-.592-.262-.872-.135-1.248-.136-2.424.064-2.72.063-1.512-.031M504.195 236.568l.38-1.215M500.139 244.403l3.424-6.445.632-1.39M518.675 241.85l-1.336-.159h-1.496l-1.176-.024-.784-.048-.776-.373-2.904-1.834-2.352-1.486-1.04-.667-.904-.405-.872-.286h-.84M498.867 246.798l1.272-2.395M489.643 263.413l1.432-2.51 7.792-14.105M508.282 252.446l-.811-.386-2.612-1.39-.56-.354-.484-.187-.374-.053-.348-.165-.246-.317-.428-.716-.728-.595-.704-.397-2.12-1.088M485.051 272.133l4.592-8.72M485.051 272.133l-.501.934M488.555 271.386l-1.888.358-1.616.39M484.55 273.067l-5.159 9.617-7.02 12.957-5.816 10.714M459.894 318.504l.453-.84 6.208-11.31M490.387 312.883l-.544-.571-.224-.445-.352-.54-.64-.445-3.072-1.017-.928-.476-.832-.477-1.024-.222-.96-.032-.8-.19-2.08-.858-.8-.445-1.024-.127-1.792-.413-.96-.159-.544-.032-.864.318-.544.35-.736.698-.48.287h-.704l-3.928-1.732M409.652 386.373l-.463-.246M439.892 352.423l-1.32 1.488-6.976 7.79-3.984 4.516-8.073 9.125-4.463 5.039-5.424 5.992M403.5 400.973l.586-2.713.741-3.442.189-.662.191-.588.365-1.025.212-.46.432-.941.196-.39.416-.698.808-1.24.348-.456.644-.79 1.024-1.195M396.352 433.598l.304-1.233M396.352 433.598l-.308-.179M396.352 433.598l-.544 1.826M394.956 437.647l-.298.348M394.956 437.647l3.09.77M394.956 437.647l-1.621-.273M395.583 435.753l-.021.071-.606 1.823M388.524 443.398l1.648-1.295M388.524 443.398l-.952.674M388.524 443.398l-4.15-1.115M327.877 477.578l.4 1.056M370.34 457.01l-7.472 5.797-5.92 4.494-4.056 2.947-1.52 1.04-1.864.993-1.376.516-3.056.786-6.08 1.437-11.12 2.558M315.708 480.254l4.624-.977 7.545-1.7M311.524 481.168l.723-.158M311.524 481.168l-5.104 1.246M305.097 479.9l.1-.202.144-.143.151-.048h.257l1.208.286 2.303.668 2.264.707M273.877 489.8l4.656-1.025M215.71 503.054l12.215-2.796 13.216-3.065 13.064-2.954 8.288-1.779 6.352-1.454 5.032-1.206" clip-path="url(#peb8ecf5c6a)" style="fill:none;stroke:#000"/><path d="m272.429 486.416.208.421.352.834.888 2.129M215.261 503.14l.448-.086M116.906 521.267l7.916-.774 5.208-.564 6.288-.627 5.736-.604 4.896-.54 4.976-.492 1.064-.127.776-.15 1.8-.438 3.92-.89 7.728-1.794 5.576-1.303 6.463-1.46 5.216-1.223 6.44-1.517 6.624-1.493 3.585-.921 8.327-1.93 5.816-1.28M279.038 530.792l-24.713-7.742-.832-.38-.352-.192-.032-.476.32-1.048.096-.572v-.604l-.064-.476-.256-.413-.48-.35-13.92-3.97-2.704-1.033-1.408-.699-.624-.206-9.456-2.922-4.392-1.461-1.736-.485-.504-.095-.776-.096-.776-.055-.468-.084-.348-.13-.16-.16-.136-.222-.104-.373-.023-.992.071-2.415M116.402 521.315l.504-.048M116.402 521.315l-.624-.044-.552.004" clip-path="url(#peb8ecf5c6a)" style="fill:none;stroke:#000"/><path d="m115.429 521.798.297-.142.244-.115.432-.226M557.33 112.1l-.048.268M558.252 110.58l-.276.302-.322.353-.324.865M553.395 109.62l2.432 1.504.507.35.497.388.176.187.275.32M398.796 422.282l1.066-4.69M398.796 422.282l-.3.559M398.796 422.282l.053.664M398.85 422.946l-.354-.105M396.656 432.365l.916-4.072 1.277-5.347M398.496 422.84l-2.176 9.455M398.496 422.84l-1.832-.506M395.808 435.424l2.775.696M395.808 435.424l-.204-.054M395.808 435.424l-.225.33M114.538 524.642l.1-1.14.072-.496.092-.333.176-.39.16-.19.291-.295M114.538 524.642l.228.903M119.795 554.203l-.03-.438M118.937 562.147l.367-2.243.268-2.23.139-1.714.084-1.757M157.726 560.462l-2.704.396-1.44.31-.848.104-.496-.017-.76-.119-1.104-.246-.776-.119-4.16-.381-1.72-.088-1.08-.07-.944-.152-1.856-.54-1.576-.294-1.16-.167-.84-.198-1.64-.42-1.528-.223-1.216-.143-2.128.016-2.288-.056-1.432.096-1.936.301-.912.071-.504-.079-.392-.08-.24-.134-.28-.262-.152-.254-.368-.644-1.45-2.867M116.118 554.752l1.728.603.352.095.512-.222 1.085-1.025M114.58 590.11l.318-1.484.444-2.245.678-4.637 1.384-8.885M118.937 562.147l-.502 3.066-.417 2.944-.614 4.702M534.587 97.062l11.908 6.81M534.587 97.062l-.872 1.622M533.715 98.684l-1.7-.975M545.912 105.532l-1.77-1.009-2.628-1.46-3.247-1.823-4.552-2.556M549.938 107.832l3.457 1.789M549.938 107.832l.593-1.613M549.938 107.832l-.776 1.89M549.938 107.832l-4.026-2.3M554.007 108.197l1.027.55M554.007 108.197l-3.476-1.978M554.007 108.197l-.612 1.424M549.162 109.722l-1.88-.588M549.03 114.066l.72-3.506.037-.433-.112-.21-.158-.086-.355-.109M557.154 113.427l-1.524 2.764M557.154 113.427l.769.465M549.03 114.066l-.508 1.992M549.03 114.066l2.209.664M553.395 109.62l-1.152 2.62-.6 1.485-.404 1.005M555.203 115.953l-.624-.405-.448-.254-.417-.088h-.772l-.34-.016-.62-.218-.743-.242M560.527 115.814l-2.94 4.556M560.527 115.814l-2.604-1.922M561.298 120.826l1.235-3.176.074-.206.03-.172-.03-.066-.052-.06-.065-.062-1.963-1.27M555.63 116.191l-.924 1.636M555.63 116.191l-.427-.238M551.69 123.002l.609-.97 1.28-2.334.428-.71.7-1.161" clip-path="url(#peb8ecf5c6a)" style="fill:none;stroke:#000"/><path d="m557.587 120.37-.564-.097-.289-.337-.248-.584-.267-.417-.5-.429-1.013-.68M547.398 120.572l-1.347-.35-1.592-.447-2.85-.985M561.298 120.826l-.644-.151-.648-.04-.795-.016-.685-.092-.94-.157M561.298 120.826l1.424.245M551.69 123.002l-1.152 1.922M551.69 123.002l-.36-.239M550.538 124.924l-.148.261M556.106 127.942l-2.96-1.506-2.368-1.345-.24-.167M542.987 138.307l-.52-.27M546.227 132.517l-.393.659-2.283 4.114-.564 1.017M553.13 144.605l-2.031-1.425-6.128-3.837-1.448-.83-.536-.206M386.276 382.477l1.608.477.872.111.904.047h.768l.812-.087.66-.11.652-.128.672-.19.768-.239 5.515-1.718M405.681 384.057l-.397-.293-.672-.46-.289-.171-.284-.132-1.395-.643-.992-.445-.72-.35-.697-.404-.728-.519M389.26 366.085l.056.27.216.485.152.318.632 1.08.344.556.176.318.264.635.208.627.176.358.264.42.528.58.968 1.096.712.866.72.913.632.953.608.89.512.746.456.6.784.87.876.944.963 1.03M390.448 394.45l.047 3.093M390.495 397.543l-2.556-.019M390.495 397.543l1.476-.019M390.364 400.102l.08-1.185.04-.787.01-.587M397.532 399.727l1.816.429M399.348 400.156l-1.184 4.566M399.348 400.156l2.44.5M390.364 400.102l-3.929-.005M389.66 402.96l.28-.867.256-1.04.168-.951M401.788 400.656l-1.541 7.106M401.788 400.656l1.712.317M403.5 400.973l-1.53 7.2M386.243 402.83l3.417.13" clip-path="url(#peb8ecf5c6a)" style="fill:none;stroke:#000"/><path d="m397.616 407.18-5.72-1.271-.596-.135-.568-.15-.392-.136-.248-.182-.168-.195-.128-.214-.088-.318-.056-.492-.008-.35.016-.778M394.243 403.822l3.92.9M398.164 404.722l-.548 2.458M397.616 407.18l2.63.582M396.96 409.741l.332-1.299.324-1.262M400.247 407.762l1.724.41M400.247 407.762l-2.292 9.32M399.862 417.591l.95-4.212 1.159-5.207M394.5 421.863l.528-3.084.408-2.272.44-2.2.576-2.644.508-1.922M385.988 406.898l2.664.85 8.308 1.993M353.131 410.573l-.906 2.148M353.131 410.573l3.625 1.741M353.131 410.573l1.033-1.976M352.225 412.721l4.552 2.08M351.624 415.117l-.076-.127-.032-.154-.012-.195.024-.258.697-1.662M357.332 413.336l-.555 1.465M367.508 413.49l-.722 2.082M366.338 407.844l3.01 1.008.124.063.152.12.06.142-.004.19-.1.299-2.072 3.824M360.22 410.774l.952.484 3.792 1.374 2.544.858M356.777 414.801l-.869 2.262M366.004 417.912l-2.224-.904-2.896-1.152-1.312-.429-1.152-.293-1.643-.333M371.86 415.33l-.619 1.79M355.908 417.063l-3.72-1.616-.432-.234-.132-.096" clip-path="url(#peb8ecf5c6a)" style="fill:none;stroke:#000"/><path d="m334.244 408.963.944.953 8.336 2.922 2.352.493 3.808 1.652 1.456.476.484-.342M366.786 415.572l4.455 1.549M366.786 415.572l-.782 2.34M371.241 417.12l-.822 2.328M371.241 417.12l4.766 1.528M355.908 417.063l2.963 1.067M376.492 417.339l-.485 1.31M366.004 417.912l4.415 1.536M366.004 417.912l-.856 2.479M390.227 418.03l-.375 2.94M376.007 418.648l-.682 2.463M376.007 418.648l5.103 1.78M387.61 419.165l-.284 1.22M381.78 418.938l-.67 1.49M387.326 420.384l-1.13-.32-4.416-1.126M385.988 406.898l-.8 2.35-2.08 6.116-1.328 3.574M370.42 419.448l-.784 2.567M370.42 419.448l4.905 1.663M387.326 420.384l2.526.586M387.326 420.384l-1.058 4.319M365.148 420.39l-.522-.187M367.623 421.294l-.395-.141-2.08-.762M381.11 420.429l-.824 2.458M389.852 420.97l-.904 7.99M389.852 420.97l4.648.893M375.325 421.111l-.881 2.846M375.325 421.111l4.96 1.776M394.5 421.863l2.164.471M369.636 422.015l-2.013-.72M374.444 423.957l-2.6-1.033-2.208-.909M368.919 425.821l.317-2.07.216-1.041.184-.695M396.664 422.334l1.291-5.253M380.286 422.887l-.971 2.711M380.286 422.887l5.982 1.816M379.315 425.598l-1.199-.307-1.12-.373-2.552-.961" clip-path="url(#peb8ecf5c6a)" style="fill:none;stroke:#000"/><path d="m374.053 427.214-.121-.55-.024-.277.032-.652.504-1.778M386.268 424.703l-.672 2.39M385.596 427.094l-1.232-.302-1.816-.405-3.233-.789M388.948 428.96l-1.712-1.08-.768-.445-.448-.223-.424-.118M384.716 430l.52-1.612.36-1.294M368.404 428.71l5.248 1.354M368.919 425.821l-.147.868-.368 2.022" clip-path="url(#peb8ecf5c6a)" style="fill:none;stroke:#000"/><path d="m365.749 427.85.626.273 2.03.588M367.271 433.363l.029-.83 1.104-3.822M398.795 429.87l-.559 2.763M379.572 428.563l-.736 2.78M374.053 427.214l.607.134.752.214 1.8.405 2.36.596M384.716 430l-3.256-.937-1.888-.5M388.948 428.96l7.096 4.46M404.307 429.148l-.887 4.394M374.053 427.214l.133.6-.17.873-.364 1.377M376.364 430.73l-1.376-.404-.808-.19-.528-.072M372.364 434.548l.6-1.935.264-.937.2-.675.224-.937M384.716 430l-.672 2.565M378.836 431.342l2.348.574M378.836 431.342l-2.472-.611M378.836 431.342l-1.162 4.65M396.656 432.365l1.58.268M396.656 432.365l-.336-.07M398.236 432.633l5.184.91M384.044 432.565l-.568 2.375M384.044 432.565l2.908.682M384.044 432.565l-2.86-.649M386.952 433.247l-.77 2.355M386.952 433.247 394 435.04M396.044 433.42l-.264 1.095-.176.855M396.044 433.42l.276-1.125M403.42 433.542l-.852 3.55M403.42 433.542l2.864.632M406.284 434.174l-1.066 3.58M525.826 400.124l-6.695.603-2.832-.04-3.136.08-2.036-.107-7.116.33-5.556.702-3.508.14-5.352-.207-1.304.175-2.52.563-2.024.57-3.4.542-1.576.675-.44.35-.936 1.064-.52.373-1.4.532-1.732.37-1.776.09-1.14-.15-.616-.135-4.16-1.191-1.056-.111-1.72.134-4.52.655-4.956-.043-.767-.14-.405-.146-10.256-4.868-1.284-.242-1.284.07-1.272.553-1.095.73-.697.906-.851 1.859-.436.849-.744.715-1.128.937-.612.754-2.237 2.883-2.44 2.812-2.8 2.589-5.384 4.407-6.631 5.694-.745.739-2.087 2.684-2.288 3.105-.768 1.24-.168.126-.68-.04-.456-.13M372.364 434.548l2.534.717M371.728 439.383l-.35-.797-.102-.573.072-.484 1.016-2.981" clip-path="url(#peb8ecf5c6a)" style="fill:none;stroke:#000"/><path d="m367.271 433.363.625.167 4.468 1.018M394 435.04l1.604.33M394 435.04l-.665 2.334M383.476 434.94l-.752 2.462M383.476 434.94l2.706.662M386.182 435.602l-.89 2.546M386.182 435.602l7.153 1.772M377.674 435.991l2.583.676M377.674 435.991l-2.776-.726M377.674 435.991l-1.326 4.5M398.583 436.12l3.985.972M398.583 436.12l-.537 2.297M380.257 436.667l-1.301 4.023M380.257 436.667l.927-4.751M380.257 436.667l2.467.735M402.568 437.092l2.65.663M401.103 440.126l.765-1.318.244-.47.188-.44.268-.806M382.724 437.402l-1.272 3.986M382.724 437.402l2.568.746M393.335 437.374l-.38 2.117M405.218 437.755l-1.659 3.593M405.964 442.794l1.792-3.717.064-.214.012-.143-.036-.127-.172-.14-2.406-.698M385.292 438.148l-.917 4.135M392.068 440.352l-.936-.544-.472-.238-1.224-.588-.744-.318-.6-.174-.584-.072-.712-.055-.584-.088-.92-.127M398.046 438.417l3.057 1.709M398.046 438.417l-.412 2.973M392.956 439.49l-.888.862M394.658 437.995l-.336.284-.378.333-.988.879M401.103 440.126l2.456 1.222M401.103 440.126l-.956 1.683" clip-path="url(#peb8ecf5c6a)" style="fill:none;stroke:#000"/><path d="m390.172 442.103 1.81-1.672.086-.08M391.813 442.378l.315-.974.076-.341.03-.203v-.14l-.034-.126-.132-.242M376.348 440.49l-.86 2.738M378.956 440.69l-.536-.096-.512-.04-.544-.023-1.016-.04M373.54 439.903l1.8.43 1.008.158M381.452 441.388l-1.056-.246-.696-.19-.744-.262M397.634 441.39l2.513.42M397.634 441.39l-.23 1.631M403.56 441.348l-3.72 5.592M403.56 441.348l2.404 1.446M381.452 441.388l-1.06 4.285M381.452 441.388l2.923.895M400.147 441.81l-2.305 4.014M384.375 442.283l-1.035 4.116M390.172 442.103l1.641.275M391.813 442.378l-.658 2.208M391.813 442.378l2.417.25M394.23 442.628l-.559 2.426M394.23 442.628l3.173.393M394.658 437.995l.19.24.056.111.034.126.026.204-.032.48-.18 1.029-.522 2.443M405.964 442.794l-3.702 5.412M548.73 479.25l-1.632-1.339-.96-.333-2.375-.46-.952-.279-3.152-1.421-2.264-1.128-1.736-.739-4.88-1.755-4.32-1.739-2.24-.596-5.632-.992-2.944.15-1.84.12-1.464-.239-6.24-1.19-2.168-.128-3.872-.182-6.672-1.501-1.596-.286-6.532-.691-1.04-.198-2.536-.763-8.476-2.22-1.704-.667-5.924-2.783-3.32-1.652-1.072-.27-.968.286-1.192.428-1.116.132-.708-.132-1.767-.722-.732-.568-1.829-2.029-.387-.226-.488-.143-4.609-.497-6.1-.88-2.28-.378-4.983.028-1.032-.358-4.416-2.382-1.968-.675-2.052-.326-8.292-.548-1.009-.198-4.783-1.899-3.288-1.39-1.224-.698M397.403 443.021l-.344 2.637M391.155 444.586l-2.583 8.143M391.155 444.586l2.516.468M377.699 444.92l2.694.753M393.671 445.054l-2.083 8.405M393.671 445.054l3.388.604M397.059 445.658l.783.166M387.572 444.072l-3.384 2.598M385.468 451.831l1.184-4.073.624-2.439.296-1.247M397.842 445.824l1.997 1.116M397.842 445.824l-3.226 5.269M380.393 445.673l-.563 2.329M380.393 445.673l2.947.726M383.34 446.4l.848.27M381.54 448.647l2.007-1.499.641-.478M375.62 446.603l1.123.38M399.84 446.94l-3.267 5.079M399.84 446.94l2.422 1.266M376.743 446.983l-.632 1.988M379.83 448.002l-.722-.268-.728-.23-1.637-.52M379.83 448.002l-.538 1.92M379.83 448.002l1.71.645M400.171 453.52l2.873-4.484.036-.105.028-.086-.018-.093-.058-.085-.096-.072-.674-.389M374.532 448.573l1.58.398M381.54 448.647l-.28.246M376.111 448.971l3.18.951M379.14 450.481l2.12-1.588M379.14 450.481l.152-.559M373.675 454.55l3.257-2.4 1.424-1.033.784-.636M394.616 451.093l1.957.926M390.452 459.193l.68-1.477.544-1.263.48-1.008.624-1.287.968-1.533.868-1.532M388.572 452.73l-1.432-.374-1.672-.525" clip-path="url(#peb8ecf5c6a)" style="fill:none;stroke:#000"/><path d="m381.26 448.893 1.704 1.398.744.58.696.46 1.064.5M384.268 456.27l-.048-.142-.016-.19 1.264-4.107M396.573 452.019l3.598 1.5M388.572 452.73l-1.488 4.787M388.572 452.73l3.016.73M390.436 458.788l.36-1.755.48-2.072.312-1.502M401.26 453.997l-1.089-.478M384.268 456.27l.192.16.456.182 2.168.905M390.436 458.788l-.52-.135-.624-.199-.688-.206-.664-.302-.856-.429M390.452 459.193l-.016-.405M387.342 464.25l.406-.395.735-.829 1.248-1.905.721-1.928M133.155 610.876l-.577-1.28-.929-1.168-2.647-2.078-4.228-3.515-2.512-1.906-1.564-1.542-2.104-1.718-1.308-1.234-.468-.776-.645-2.258-.536-1.52-.448-1.047-.609-.724M132.804 625.7l.713-6.132.576-5.357-.068-.64-.87-2.695M136.028 606.126l-.645 1.257-.95 2.01-.317.506-.407.505-.554.472M129.622 629.398v-.858l.256-1.048.448-.667.704-.254.832-.318.942-.553M376.364 430.73l-1.466 4.535M374.898 435.265l-1.358 4.638M371.728 439.383l.652.155 1.16.365M546.434 133.47l-.52.754M546.434 133.47l3.364 2.296M550.39 125.185l.049.505.015.33.012.532-.123.54-.272.544-.868 1.315-2.769 4.519M557.923 113.892l.581-.733.315-.215.296-.073.337.03 3.958 2.54M551.33 122.763l-1.12-.516-2.107-.794-.625-.203-.151-.157-.044-.228.115-.293M551.115 120.436l-1.233-.35-1.227-.297-.472-.04-.328.068-.168.234-.289.52M550.53 106.22l-4.035-2.348M546.495 103.872l-.583 1.66M546.227 132.517l4.163-7.332M542.466 138.036l1.355-2.621 1.565-2.708.197-.166.232-.104.412.08M482.003 124.018l1.28-3.908.48-.794.384-.572 3.392-3.717.512-.73.32-.572.352-.381.544-.223 6.272-.921.928-.095.96-.032 1.696-.381.8-.35 1.248-.73 2.272-1.78.96-.635 1.088-.381 2.688-1.017.64-.127.736-.095 4-.096.576.127.384.287.288.317.288.953 3.424 9.849.496 1.032.72 1.243.72.894 5.5 5.965.452.401.696.444 3.864 2.522 9.568 5.973.223.238.096.413 1.616.897M557.858 136.011l-1.663 3.44-1.072 2.033-1.993 3.121M563.674 178.9l.7-.85.273-.44.14-.307.684-1.651.643-1.835.524-1.644.2-.536.44-1.188.32-.79.3-.663.453-.798.804-1.39.455-.953.112-.465.116-.568.04-2.879.124-2.521.049-1.227-.049-.445-.183-.259-.197-.13-4.907-2.169-1.125-.373-2.543-.51-1.449-.304-1.855-.405-.877-.25-.615-.247-.569-.311-.472-.3-.384-.532-.343-.826-.39-2.097-.09-.945-.18-2.238-.146-.42-.099-.235-.13-.173-.318-.42M120.745 526.445l-2.58.536M118.166 526.98l-1.914.45M115.91 525.356l1.6-.372.156.035.12.096.06.143.076.345.244 1.378" clip-path="url(#peb8ecf5c6a)" style="fill:none;stroke:#000"/><path d="m116.337 528.888 1.293-.271.504-.19.152-.199.056-.19-.048-.358-.128-.7M116.337 528.888l-.085-1.457M116.337 528.888l-.592 1.406M116.906 521.267l-.284-.536-.304-.492-.442-.568-1.286-.944-.368-.267" clip-path="url(#peb8ecf5c6a)" style="fill:none;stroke:#000"/><path d="m115.91 525.356.448-1.258.256-.953.292-1.878M115.91 525.356l-1.144.189M115.91 525.356l.342 2.075M115.745 530.294l.159.843M114.766 525.545l.714 3.342.265 1.407M115.904 531.137l.316 1.68 1.68 8.467.566 2.892.659 3.505.422 2.934.218 3.15M312.247 481.01l2.206-.482 1.255-.274M314.824 484.426l.372-.686.352-.826.169-.444.136-.691-.024-.922-.12-.603M303.444 486.265l2.392.453M303.444 486.265l.729-3.398M302.053 492.095l.96-3.749.431-2.08M305.125 490.363l.4-2.009.311-1.636M306.42 482.414l-.007 1.366-.089.81-.152.707-.16.675-.176.746M305.125 490.363l-3.072 1.732M305.125 490.363l2.704-1.303M306.42 482.414l-2.247.453M300.66 492.92l.392-.253 1-.572M301.268 483.51l1.196-.265 1.709-.378M305.097 479.9l-.412 1.28-.216.694-.296.993M551.33 122.763l2.04-3.534 1.833-3.276M551.33 122.763l-.743 1.295M249.597 550.05l-.352.84M266.058 542.873l-.533.34-.968.81-.952.747-.528.238-.44.119-1.208.08-5.912.492-1.16.159-.72.182-.568.254-.584.326-1.32 1.207-.84 1-.728 1.223" clip-path="url(#peb8ecf5c6a)" style="fill:none;stroke:#000"/><path d="m271.269 566.108-.72-.318-2.384-.715-2.944-.945-2.64-.969-1.392-.611-.512-.302-.336-.31-.288-.476-.176-.484-.124-.43-.224-1.198-.14-.723-.096-.33-.168-.266-.184-.21-.292-.214-.428-.283-.408-.134-.704-.167-1.032-.198-1.128-.287-.608-.246-.8-.428-.944-.874-.616-.914-.592-1.246-.568-.842-.76-1.112-.464-.826M254.449 575.947l.124-.354.36-1.092.024-.357-.008-.286-.144-.294-.216-.23-.36-.254-1.944-.818-3.664-1.286-3.592-1.073-2.984-.96-.672-.294-.312-.214-.224-.255-.12-.19-.232-.588-.436-1.052-.316-1.366-.072-.425.004-.262.164-.683M249.245 550.89l-.168.4-.472.793-.488.802-.984 1.318-1.056 1.708-.776 1.168-1.872 2.525-1.192 1.564-1.2 1.477-.544.532-.664.437" clip-path="url(#peb8ecf5c6a)" style="fill:none;stroke:#000"/><path d="m206.752 563.897 1.133.257 3.304.905 4.096 1.382 2.792.985 6.384 2.04 3.44 1.105.648.142h.392l.424-.047.608-.167 1.048-.508 1.984-1.2 1.232-.801 1.032-.858 1.208-1.406.696-.734.244-.234.36-.25.716-.354 1.336-.54M192.645 581.093l.889-1.263 1.376-1.326 1.863-1.676.984-.92 1.52-1.621 1.752-2.033.64-.937.617-1.056.831-1.723.664-1.533.904-1.413.728-.763.72-.524.302-.238.317-.17" clip-path="url(#peb8ecf5c6a)" style="fill:none;stroke:#000"/><path d="m186.039 556.646.295.09 3.88 1.168 3.552 1.072 1.36.453 1.007.445.752.349.784.437.752.318 1.896.722 4.312 1.421 1.712.58.411.196M187.686 586.137l-1.777 1.388-1.391 1.183M156.314 593.869l.655.038 1.686.034 1.03-.169.894-.124 1.832-.135 1.143-.078.996-.056.88-.168 1.728-.318.695-.095.833.04 1.503.23 1.048.166.88-.07 1.425-.263 2.135-.89 1.097-.372 1.504-.287 2.096-.341.704-.238.424-.254.615-.556.633-.373 1.768-.882M184.58 597.092l.018-.76-.096-.858-.16-.762-.192-1.017.063-.889.385-2.51-.08-1.588M156.314 593.869l-2.275-.13-2.32-.214-.655-.056-.622.034-.634.09-1.188.303-.905.359-.973.488M136.028 606.126l.973-1.224 1.165-1.281.577-.808.736-1.068.927-.943 2.444-2.235 1.041-1.09 1.21-1.212 1.178-1.112.463-.41M157.726 560.462l-.728 2.231-.816 2.652-.528 1.533-.08.42.024.303.08.77-.072.5-.192.746-.512 1.47-.457 1.651-.455 1.382-.129.477-.055.42-.044.306-.024.183-.076.143-.244.19-.592.485-.32.306-.36.472-.252.298-.376.337-.78.628-.288.246-.264.306-.292.484-.68 1.183-.32.406-.224.238-.376.294-.904.67-.116.167-.06.17-.028.204-.08.794-.164 1.508-.1.795-.14 1.091-.04.818-.144.477-.376.913-.12.46-.064.525.024.429.12.238.176.214.352.318.16.222.072.334v.77l-.12 2.104M141.974 607.958l-.832-.287h-1.056l-2.112-.794-1.024-.35-.922-.401M557.42 576.868l-.066.207-.615 2.278-.544 1.747-.272.493-.368.365-.824.739-.785.754-1.367 1.183-1.297.79-.16.215-.363.596-.272.448-.212.274-.309.326-.312.29-.26.329-.371.592-.256.492-.956 2.55-.197.245-.22.143-.275.159-.308.067-.813.1-.22.103-.195.19-.556.505-.368.298-.305.281-.924 1.196-.315.29-.349.23-.411.083-.894.149-.373.145-.408.165-.3.15-.27.138-.304.087-.232.028-.24-.012-.903-.051-.468-.005-.74.02-.28.068-.65.212-.258.038-.388.032-.356.007-1.228-.012-.408.024-.376.072-.284.095-.232.151-.312.318-.292.306-.752.94-1.252 1.912-.124.183M507.667 610.15l1.352-4.154 3.48.301 2.448.175.476.009.476-.024 1.432-.12 1.284-.168.316-.02.308.02 1.864.482.324.024.308-.028.355-.087.337-.124.264-.19.18-.206.124-.259.492-1.378.136-.333.676-1.346.232-.38.196-.18.236-.135.318-.083 3.017-.778.269-.088.984-.238.186-.052.158-.087.136-.117" clip-path="url(#peb8ecf5c6a)" style="fill:none;stroke:#000"/><path d="m506.235 630.129.176.01.166-.06.108-.119.282-1.082 1.064.19.44.052.336.044.436.043 1.468.06.344.016h.468l.356-.091 1.08-.477.336-.178.388-.167.34-.115 2-.572.732-.667 1.088-1.207 8.063-17.661 1.984-1.652.833-1.016.768-1.715.576-1.589-.036-1.59M399.862 417.591l-1.907-.51M395.583 435.753l.02-.383M409.19 386.127l1.142-2.125 1.032-1.922.492-.873.563-.818.253-.35.172-.298.243-.5.12-.365.105-.413.087-.627.06-.99M405.681 384.057l.443.327.848.547 1.016.556 1.201.64M552.57 407.89l-.144-.619-.176-.298-.2-.139-.224-.083-.32-.052-.347-.004-.977.064-1.168.084-.791-.005-.792-.083-.836-.17-1.064-.29-.96-.318-1.12-.437-1.328-.548-1.648-.69-1.16-.453-1.864-.572-3.688-1.216-3.44-.992-2.248-.572-1.272-.254-.977-.12" clip-path="url(#peb8ecf5c6a)" style="fill:none;stroke:#000"/><path d="m548.922 380.754-.511.23-.532.25-.753.346-.78.389-.447.31-.276.242-.292.337-.489.612-.615.627-.744.62-1.072.818-.768.73-.36.366-.337.39-.303.428-.576.913-.512 1.032-.537 1.255-.64 1.176-.607 1.016-.952 1.406-.68 1.009-.456.556-.608.611-.728.588-.728.468-.784.429-1 .405-1.032.27-1.184.223-1.224.285-1.184.382-.824.325-.56.326M553.875 423.241l-.04-1.65-.088-.803-.113-.671-.176-.64-.207-.619-.24-.635-.12-.508-.064-.656.024-.623-.033-.492-.075-.413-.16-.572-.148-.47-.08-.38-.044-.44.052-3.65.103-1.422.105-.706" clip-path="url(#peb8ecf5c6a)" style="fill:none;stroke:#000"/><path d="m553.242 404.206-.143.786-.528 2.899M539.178 535.748l-.664-.897-1.055-1.636-.216-.762-.064-.667.031-.644.232-.675.432-.826.56-1.056.457-.874.167-.571.04-.46-.08-.771-.263-1.962-.096-1.318.056-1.064.12-.794.176-.572.192-.413.152-.389.108-.608.092-1.06.223-.968.256-.85.129-.516-.04-.588-.144-.604-.112-.73v-.73l.08-.97.152-1.048.048-.69-.08-.564-.148-.56-.18-.6-.252-.743-.185-.611-.147-.655-.104-.969-.033-1.056-.007-1.128.08-.913.128-.668.24-.46.296-.326.304-.238.52-.286.648-.254.992-.285.64-.223.56-.333.447-.366.392-.42.257-.414.167-.452.108-.52.077-.568.111-1.009.12-1.127.04-.97v-1.11l.025-.986.007-.802.065-.62.192-.754.432-1.207.448-1.064.671-1.628.352-1.056.528-1.811.785-2.74.086-.29M568.49 457.105l-.48 1.715-.712 2.129-1.023 2.16-.48.904-.993 1.668-3.44 4.868-.847.993-.16.159-.2.087-.233-.023-.44-.16-1.767-.865-1.173-.576-.588-.281-.32-.104h-.391l-.408.175-2.064 1.398-.992.738-.509.401-.223.258-.204.35-.384.873-.528 1.477-.929 2.891-.273.91M548.922 380.754l-.136.524-.112.985-.047 1.254.047 1.017.08.842.177.746.383 1.033 1.12 2.938.848 1.763.736 1.525.385.826.208.81.191 2.001.24 3.177.16 2.097.089 1.032-.049.882M561.723 400.99l-.377.436-.216.397-.327.699-.408.89-.353.444-.336.199-.328.11-.568.04-1.048-.078-1.304-.16-.636-.087-.511-.004-.788.067-1.28.263M568.49 457.105l.496-2.47.345-1.374.08-.46.056-.628.04-1.866.016-2.907.007-1.739-.02-.472-.048-.255-.084-.254-.32-.703-.784-1.422-1.056-1.858-.448-.547-.408-.438-.6-.563-.608-.508-.568-.366-.696-.35-.751-.373-1.017-.524-.671-.444-.624-.5-.8-.668-.593-.596-.736-.81-.608-.77M553.875 423.241l.015.596.105 1.51.064.412.131.437.237.532.671 1.207 1.2 2.002.497 1 .423.858.384.651.488.794M561.498 430.095l-.52.342-1.16.763-.183.127-.168.15-.22.255-.468.627-.689.881M583.474 464.435l-.84.15-.488.048-.6-.031-.576-.16-.688-.349-.528-.35-.392-.38-.608-.954-.496-.96-.376-.787-.304-.834-.191-.38-.305-.255-.408-.183-3.44-.698-4.743-1.207M538.232 539.866l.235-.417.711-1.239.152-.524.097-.62-.04-.667-.209-.65" clip-path="url(#peb8ecf5c6a)" style="fill:none;stroke:#000"/><path d="m545.108 544.69.015-1.088.053-1.608-.001-.21-.018-.082-.025-.08-.036-.07-.047-.068-.102-.066-.138-.012-.53.08-.969.185-.267.05-.135-.03-.074-.06-.083-.138-.08-.325-.205-1.107-.223-.779-.32-.683-.64-.89-2.105-1.96M513.235 573.604l.768-.818.848-.707 1.368-.865 1.656-1.096 1.528-1.167 1.048-.938 1.184-1.127.648-.647.44-.64.28-.77.64-2.049.335-.683.353-.373.32-.174.6-.12.68-.071.776-.151.448-.183.352-.325.44-.64 1.376-2.211 1.024-1.66 2.744-4.534 1.256-2.097.504-1.08.471-1.247.664-1.913M538.232 539.866l-.494.877-.615 1.184-.36.953-.777 2.438M544.435 544.777l-1.2-.08-1.464-.03-1.137.03-1.743.176-1.28.158-1.625.287M510.723 578.377l.656-1.597.688-1.54.416-.699.752-.937" clip-path="url(#peb8ecf5c6a)" style="fill:none;stroke:#000"/><path d="m405.14 554.49-.2.754-.04.627.048.755.12.66.207.705.305.589.4.5.512.397 1.416.508 2.264.897 2.376.842 1.32.556.896.413.8.445.551.468.664.62.617.722 1.12 1.493.632.921.616.739.523.516.437.405.52.385.436.274.46.183.588.15.695.152.94.142.784.175 1.249.342 2.04.643 1.687.532 2.552.588 8.192 1.89 2.664.643 3.216.571 1.848.405 2.936.604 1.264-.23.952-.874.512-1.263-.24-2.656.148-.675.492-.552.86-.58.848-.548 2.153-1.766.955-.726 1.304-.55 5.248-2.357.744-.93.768-1.381.928-1.017 1.472-.492 4.536-.985 2.304.071.92.223 1 .23.768.35.696.357.511.654.913 2.356.256.571.352.414 8.352 2.827.8.444.48.54 1.984 2.573.768.477 1.216.381 4.704.73 1.376.414 1.248.762 1.12.286 4.384.635h1.376l.96-.159 2.272-.651M567.137 349.29l-.787.027-.387.075-.337.12-.423.237-.288.302-.185.373-.151.532-.192 1.319-.062.216M555.25 367.38l1.152-1.842 1.744-3.209.6-.905.6-.731.752-.826.905-.834.455-.469.349-.42.256-.381.436-.747.72-1.405.495-1.128.385-1.192.226-.8M554.938 350.464l1.032.143 2.064.326 3.304.627 1.065.238 1.128.381.794.312M539.506 321.93l1.489 1.222 1.584 1.422 1.472 1.167 2.56 1.612 1.216.699 1.576.778.56.46.272.255.176.302.087.516-.016.914-.007 1.739.012.739.047.647.06.298.113.484.176.477.392 1.08.544 1.31.631 1.922.72 2.39.417 1.43.535 1.938.216.846.16.742.208 1.31.232 1.835M555.25 367.38l-.303-.54-.185-.322-.207-.446-.065-.364.009-.377 1.112-4.63.28-1.04.095-.548.017-.525-.017-.707-.08-.817-.128-.834-.284-1.259-.167-.885-.14-.898-.097-.726-.072-.933-.08-1.065M548.922 380.754l.233-.731.464-1.398 1.175-3.28.513-1.095.88-1.629 1.08-1.715 1.04-2 .943-1.526M586.2 473.232l-1.097-1.436M586.2 473.232l.334.073M585.035 473.083l.847.08.319.069M586.534 473.305l.724-.198.712-.167.536-.063.528.071 1.216.373 5.34 1.781.478.217.216.139.148.134.106.135.064.195.016.21-.12.945-.212 1.339-.136.65-.124.461-.164.44" clip-path="url(#peb8ecf5c6a)" style="fill:none;stroke:#000"/><path d="m586.534 473.305.408.16.448.281.812.885 1.752 2.28.424.535.349.317.27.168.493.243 1.192.452 1.312.5 1.252.508.458.185.098.076.06.073M623.778 519l-3.056-.779-1.088-.357-1.76-.746-1.144-.572-.816-.492-.576-.525-.568-.532-.672-.905-.192-.826.008-.627.16-.81.12-.714.032-1.033.168-2.025.104-2.002-.024-.698-.072-.405-.2-.381-.16-.43-.016-.484.056-.881-.12-.89-.16-1-.136-1.247-.16-.857-.312-.882-.424-1.04-.632-1.128-.624-1.231-.304-.628-.236-.357-.232-.258-.636-.552-1.32-1.032-.696-.7-.952-.682-1.072-.707-1.568-.921-1.248-.707-.792-.58-.848-.746-.656-.643-.412-.354-.98-.734-1.264-1.02-1.008-.926-.784-.77-.244-.274-.132-.179-.092-.206-.096-.374-.044-.778-.006-.256-.03-.15M585.035 473.083l-3.513.055-1.016-.071-.6-.063-.455-.112-.448-.262-1.253-.89-.22-.186-.28-.154-.252-.068-.284.011-.591.167-.785.358-1.152.802-2.615 2.105-2.393 2.127-.248.295-.312.515-.152.422-.167.532-.249.484-.312.302-.808.651M585.035 473.083l.068-1.287M583.474 464.435l1.1 4.391.109.69.08.645.071.583.084.361.185.691M589.258 458.51l-2.024-.881-3.088-1.255" clip-path="url(#peb8ecf5c6a)" style="fill:none;stroke:#000"/><path d="m583.474 464.435.748-.123.405-.103.431-.243.425-.44.24-.29 1.151-1.684.84-1.16.524-.667.588-.706.432-.509M508.282 252.446l.865.412.528.341.304.229 1.308 1.204.652.568 1.12.982 1.564 1.107 3.656 2.275 1.515.87.529.294.192.179M525.53 269.818l-.28-.19-.367-.18-.432-.262-.448-.44-.704-.83-.776-.882-.44-.508-.168-.246-.128-.262-.048-.334.032-.469-.032-.333-.112-.437-.152-.39-.196-.535-.172-.45-.128-.491-.08-.548-.072-.45-.084-.328-.228-.346M527.16 251.784l-.397.049-.296-.04-.848-.428-.428-.207-.22.05-.216.109-1.4 2.86-1.856 3.724-.148.536-.208 1.2-.128.579-.144.357-.356.334M526.421 271.83l-.062-.138-.14-.29-.272-.596-.096-.261-.076-.322-.104-.242-.14-.163" clip-path="url(#peb8ecf5c6a)" style="fill:none;stroke:#000"/><path d="m528.387 257.226.168 3.026.287 2.104.049 1.128-.272 1.47-.152.96-.336 1.271-.272.747-.457.571-.455.326-1.416.99M526.421 271.83l.074.164.06.202.036.326-.036.548-.2 2.883-.08.763-.08.667-.176.913-.232.778-.256.652-1.664 3.383-.944 1.946-.784 1.43-.436.738-.324.48-.32.453-.312.488-.24.525M539.506 321.93l-1.055-.978-.776-.881-.376-.572-.336-.62-.229-.651-.055-.278-.068-.349-.164-.437-.288-.473-.4-.48-.472-.405-.556-.318-.872-.389-.992-.413-1.096-.572-1.608-.862-.992-.544-.292-.222-.272-.274-.292-.393-.296-.572-.324-.703-.244-.647-.36-1.445-.24-1.589-.2-1.437-.04-1.716.008-1.517v-1.373l-.06-.259-.124-.353-.204-.334-.564-.746-.808-1.049-.792-1.016-.56-.834-.448-.635-.64-.866-.6-.651-.608-.643-.916-1.013-.312-.441-.12-.238-.068-.23-.008-.299.064-.305.26-.703.152-.425.244-.611M504.715 292.56l.36.143.656.015 1.8-.15 1.624-.151 1.024-.08.872-.11 1.552-.477 3.008-.945 2.68-.922 2.216-.714M541.938 317.228l-.847 1.532-.776 1.517-.809 1.652M571.114 402.808l.216 1.597M571.114 402.808l-3.664.174M567.619 394.668l.687.615.608.608.377.524.455.85.176.389.188.52.1.56.128.897.104.687.116.465.157.484.136.449.204.536.06.556M567.619 394.668l-.277-.449-.208-.444-.164-.405-.116-.457-.176-.604-.436-1.346-.36-1.092-.111-.524v-.794l.152-.81.528-1.176.495-1.032.44-1.731.273-.493.375-.444.22-.278.153-.306.071-.266.044-.489.04-.734.072-1.223-.016-.628-.087-.452-.192-.81-.36-1.517-.257-1.176-.08-.484-.032-.5.056-.827.136-1.548.089-.953.063-.612.184-.877.248-.675.228-.429.356-.29.424-.302.537-.31.463-.286.384-.261.312-.302.216-.341.192-.47.144-.54.08-.92-.064-.866.04-.66.124-.456.176-.485.24-.425.62-1.055.328-.731.064-.668-.12-.674-.192-.438-.44-.579-.76-.675-1.304-.953-1.232-1.342-.816-1.112-.472-.691-.4-.882-.377-2.08M571.33 404.405l-1.767-.636-2.113-.787M561.723 400.99l1.967.698 1.992.651 1.768.643M576.986 412.457l-.863-1.2-.584-.682-.593-.46-.896-.612-1.04-.795-.564-.67-.456-.584-.244-.389-.18-.489-.075-.365-.04-.774-.12-1.032M567.619 394.668l-.992.54-.896.556-.4.286-.28.317-.36.548-.665 1.382-.551.985-.537.627-.591.5-.624.58M488.555 271.386l.856.39 1.08.508.928.405 1.736.794.488.302.32.286.304.524.536 1.406 1.104 2.438.976 2.16.44 1.128.224.826.024.595-.048.715-.184.7-.104.507.008.453.072.342.192.31.352.365.416.254 1.296.603.776.318.512.286.464.5 1.44 1.748 1.504 1.842.448.469" clip-path="url(#peb8ecf5c6a)" style="fill:none;stroke:#000"/><path d="m490.387 312.883 3.776-5.687.352-.698 1.76-4.384.448-.667.8-1.175.896-1.748 1.28-2.446.576-.571.544-.414 3.456-2.224.44-.31M424.82 285.753l-.096-1.27-.065-3.59-.16-.635-1.024-2.288-.608-1.302-1.344-1.493-.832-.73-.831-.605-.8-.38-1.376-.414-.736-.285-.256-.255-.064-.54.192-.667.543-.381 2.432-1.239.865-.572.608-.445.863-.89 1.153-.666 1.183-.763.736-.921 1.217-2.192.383-.54h.48l.64.35 3.488 1.969 5.312 2.224 1.056.222.865.127 3.103-.127 4.128-.159 3.648-.762.704-.095h1.025l6.527 2.318 1.12.16.672-.223 1.44-1.747 3.04-3.717.928-.477.64-.095.752.151.568.278 1.24.778 1.272.818 1.048.66.6.508.544.596.744.746.76.826.52.469 1.952 1.604 1.424 1.167 1.704.93.68.313.544.143.552.095 1.04.02 1.076-.023h.6l.392.04.308.07.61.22M494.263 269.21l-1.052-1.683-.416-.826-.336-.549-.304-.325-.36-.278-.496-.222-.536-.218-.304-.172-.228-.154-.144-.195-.088-.246-.076-.342-.28-.587M526.421 271.83l-1.13.771-.816.382-.672.167-.288.028-.312-.033-.448-.099-.872-.238-1.408-.365-1.6-.381-.376.007-.68.191-.824.318-.56.246-.512.103-.56-.008-2.064-.246-1.14-.163-.604-.11-.376-.12-.456-.195-2.136-1.032-1.04-.54-.736-.31-.568-.167-.696-.095-1.016-.08-1.304-.174-1.524-.262-1.24-.239-.396-.035-.592-.012-1.524.056-1.728.13-.708.036-.572-.031-.352-.084-.328-.036M488.555 271.386l1.552-.31.784-.19.488-.238.368-.262.336-.263.52-.428.244-.19.292-.132.424-.115.376-.051.324.003M551.662 271.244l-.455-.04-.788-.103-.96-.191-1.336-.35-1.16-.341-1.048-.27-1.057-.127-1.496-.056-1.016.112-1.055.174-1.712.39-1.112.261-.872.056-1.192-.111-2.385-.286-1.712-.088-.84.136-1.391.286-1.44.373-1.416.397-.798.364M406.807 547.868l-.027.435-.136 1.398-.104 1.016-.137.818-.223.723-.304.723-.4.786-.337.723M404.18 555.474l.4-.476.232-.246.327-.262M557.184 549.046l.587-.302 1.567-.695 1.168-.429.877-.345.724-.29.416-.12.363-.067.42-.003.668.063.86.103 4.096.66M558.467 575.574l.163.27.207.305.217.272.34.459.333.325.303.22.58.372.696.425.529.345.847.651M548.41 578.36l1.169-1.405.432-.476.304-.23.488-.135.544-.032.847.135 3.516.683.325.015.324-.012.423-.012.638-.023M558.467 575.574l-.12.166-.269.262-.28.258-.207.306-.17.302M545.108 544.69l1.439-.175.872-.13.671-.188.445-.15.491-.246M545.108 544.69l-.007.532M545.101 545.222l-.302-.201M557.184 549.046l-.17-.095-.291-.084-.92-.166-.849-.112-1.12-.166-1.312-.294-.832-.278-1.224-.453-.547-.214-.492-.104-.577-.055-.571-.067-.464-.088-.328-.091-.404-.219-.52-.318-.74-.54-.722-.48M544.8 545.02l-.134.409-.055.329-.008.286.023.35-.012.476-.087.397-.117.437-.247.52M544.8 545.02l-.365-.243" clip-path="url(#peb8ecf5c6a)" style="fill:none;stroke:#000"/><path d="m558.467 575.574.195-.35.113-.29.136-.4.091-.612.052-.453.1-.433.144-.432 1.025-2.883.464-1.485.256-.842.103-.548.36-2.088.233-1.89-.033-.564-.112-.493-.04-.611.04-.556.248-1.668.088-.913-.111-.532-.169-.278-.32-.254-.792-.452-.527-.27-.48-.453-.296-.405-.193-.35-.127-.333-1.033-4.416-.327-.706-.257-.473-.114-.095M544.435 544.777l-1.848-1.802-.928-.842-.816-.62-1.048-.69-1.563-.957M576.986 412.457l.296.572.448.937.553 1.151.408.715.735.898 1.68 1.93.816.865.6.564.416.246.4.199.376.206.312.27.328.278.545.262.76.274.415.171.272.17.152.239.056.218-.016.254-.408 1.668-.18.703-.2.532-.384.556-.532.592-.456.452-.248.295-.18.293-.324.572-.464.961-.304 1.04-.16.866-.231 1.866-.257 2.288-.104 1.214-.016 1.66M570.963 414.76l1.023-.238 1.112-.366 2.216-.944 1.672-.755M550.395 422.329l3.48.912M385.108 549.733h.416l.64.095 13.6 3.558 1.024.445 3.392 1.643M401.724 563.797l.256-1.208.28-1.238.304-1.184.496-1.651.416-1.358.424-1.176.28-.508" clip-path="url(#peb8ecf5c6a)" style="fill:none;stroke:#000"/><path d="m388.388 566.973.456-.397.632-.39.872-.5.496-.214.88-.143 1.72-.127 1.936-.103.72.055.688.127.68.175.648.136.576.039.456-.063.576-.191.52-.302.44-.389.44-.468.6-.421M397.012 594.966l1.344-13.246.256-3.177.896-2.541.767-1.652.129-2.033-.064-2.128.191-1.43 1.193-4.962M551.41 275.493l.252-4.25M368.919 425.821l-2.493-.692M374.053 427.214l-.574-.127-4.56-1.266M291.728 510.713l.156-.4 1.072-2.86 1.297-3.97.272-.676.352-.834.408-.69.823-1.319.833-1.27.567-.794.457-.477.456-.389.295-.357.265-.326.288-.548.528-1.508.2-.517.28-.46.383-.397M301.268 483.51l-.207 1.239-.168.857-.064.937-.072.461-.28.747-.168.5-.176.857-.169.946.009.484.08.397.168.524.224.62.215.842M279.038 530.792l1.047-1.365.328-.572M284.349 524.83l-.448.356-.904.667-1.048.834-.712.731-.408.556-.224.42-.192.461M285.947 533.116l.025-.568-.16-.381-.415-.318-.896-.223-.928-.317-.385-.508-.287-.477-.416-.19-.48-.286-.224-.445-.352-.286-1.016-.262M380.588 382.453l2.248-.198.896-.087.896-.017.696.08.496.104.456.142M385.581 385.275l.023-.284.096-.99.112-.658.176-.445.288-.42M380.588 382.453l-.656-.024-.992-.182-.776-.183-.608-.222-1.728-.786-1.96-.866-.856-.222-.968-.167-.816-.143-.656-.048-5.32.326-2.52-.167-1.912-.19-3.088-.445-3.08-.445-1.912-.111-.92-.056M328.916 346.183l-.312 4.035-.272 3.288-.007 1.477.015 1.009.32 2.938.193 1.017.175.603.432.683.657.715.816.588.96.476 3.04 1.017 3.855 1.461 2.272.699.48.286.264.333.328.5.704.993.976 1.176.448.62.352.666 1.104 2.065 1.008 1.732.464.794.736 1.302.408.58.288.31.336.317.352.19 1.216.358.672.096.624.015" clip-path="url(#peb8ecf5c6a)" style="fill:none;stroke:#000"/><path d="m355.432 403.571-.34-.104-2.92-.969-2.08-.746-.768-.215-1.248-.198-.512-.103-.488-.175-1.192-.517-.452-.082-.54-.005-.384.005-.48.05-2.048.192-.44-.024-.2-.056-.287-.135-.465-.317-.527-.405-.36-.294-.481-.691-.424-.644-.916-1.096-.12-.21-.056-.175-.016-.246-.052-.893-.084-.58-.116-.302-.208-.333-.568-.707-.74-.942-.204-.412-.1-.278-.116-.608-.116-.576-.112-.357-.14-.377.004-.123.06-.108.104-.055.265-.028.575.008.284-.047.204-.084 1.652-.969 1.164-.715 1.04-.5.792-.286.56-.151.856-.135.568-.127 1.056-.341.66-.191.4-.06.368.008.56.072 2.624.417.42.008.148-.032.14-.087.136-.151.184-.481.224-.91.352-1.52.456-2.204.276-1.56.1-.31.14-.342.316-.52M380.588 382.453l.006 2.852M389.26 366.085l-.64-5.352-.048-1.255-.272-.556-.4-.298-.524-.202-2.28-.52-1.576-.024-.78-.465-1.696-1.437-7.248-6.227-1.192-1.39-1.544-2.58-.752-.787-3.064-2.454-1.368-.39-11.136-3.628-1.096.015-1.224.024-.712-.238-1.936-1.167-3.272-1.303-3.056-1.056-.32-.31-.312-.778-.192-.993-.248-2.35-.264-.644-1.296-2.59-.44-1.524-.24-.238-.904-.453-2.608-.937-2.072-1.247-1.784-1.493-1.624-1.636-.464-.97-1.408-3.89-.84-1.47-2.368-4.94-.12-.778-.112-6.06.457-1.826.903-1.787.08-1.636.025-1.874-.065-2.915.264-2.113-.08-.389-.376-.532-.864-.683-.903-.612-2.385-1.103-.56-.08-2.768.35-1.271.277-.952.342-.88.19-1.177-.047-2.008-.373-.616-.302-1.44-.834-1.471-1.31-.713-.977-.767-1.771-.753-.993-.471-.453-7.744-5.964-7.72-5.37-1.049-.508-2.791-.587-3.136-1.326-2.624-1.978-1.72-1.437-1.232-1.462-.728-.627-.736-.43-7.48-3.549-.904-.604-1.128-1.048-2.664-2.891-.752-1.16-2.464-4.693M266.689 224.163l-.824.373-.74.54-.584.763-.448.85-.336 1.135-.112 1.144.192 1.183.696 2.2 1.408 3.288.2.77.232 2.447-.032 1.27-.184 1.128-.312.699-.744.802-1.512 1.787-1.424 1.867" clip-path="url(#peb8ecf5c6a)" style="fill:none;stroke:#000"/><path d="m245.157 267.71.296-.564.52-1.47.6-1.858.216-1.39.104-1.16.072-.683.104-.93 1.352-3.628.632-1.986.24-1.628-.024-1.557.104-.532.368-.357.424-.215.624-.119 4.72-.048.872-.174.768-.366 1.56-.889 1.968-.922 1.488-.825M177.374 553.965l-.616.27-.713.27-1.191.437-1.432.627-.416.168-.28.09-.296.044h-.304l-.736-.007-2.545-.096-1.495.032-.416.024-.465.15-.431.262-.768.683-1.52 1.811-.656.627-.4.27-.465.152-.967.23-1.592.23-1.944.223M177.374 553.965l.828.26" clip-path="url(#peb8ecf5c6a)" style="fill:none;stroke:#000"/><path d="m129.659 533.773 1.035.236.88.167.584.135.32.143.24.214.168.31.168.46.18 1.378.112.25.108.152.168.134.528.302 2.84 1.183 2.48 1.128.472.151.36.008.472-.063.456-.096.784-.159.608-.31 1.2-.698 1.092-.52.504-.183.204-.036.256.024.344.091.304.131 1.208.477 1.264.469 1.087.301 1.529.405 1.4.39 1.24.444.72.38.911.47 1.233.88.816.406 1.744.651 4.6 1.613 2.248.73 1.744.62.615.221.393.207.336.294.432.588.832 1.088.64.738.155.254.089.25.052.215-.016.41.023.475.04.239.129.254.176.198.24.143.688.239 1.96.635.8.262.672.246.848.468M129.659 533.773l-.325-.074-2.8-.865-.576-.143-.472-.024-.76.071-1.184.096-.632-.072-.904-.166-1.616-.461-1.832-.46-1.04-.215-1.614-.323M141.03 257.083l.544 1.048.824 1.771 1.224 2.788.168.476.216.477 1.288 1.946 1.496 1.946.688.683.936.675 1.08.58.816.436.616.43.564.551.856.894.364.29.336.166.444.179.704.21.556.108.516.04.36.011.716-.063.736-.103.751-.06.692-.004 2.092.06.88.122.912.155 1.48.294.553.128.976.357.536.293" clip-path="url(#peb8ecf5c6a)" style="fill:none;stroke:#000"/><path d="m272.429 486.416-.72-.635-.488-.198-6.064-1.954-16.72-5.706-.32-.429-.24-1.032-.248-1.425-.896-2.772-.64-1.12-.584-.675-.68-.572-1.224-.65-1.632-.485-.784-.16-1.416-.619-.656-.5-.704-.707-.864-1.183-.376-.905-.136-.596-.176-1.485.064-2.565.224-.564.288-.413 1.264-1.533.456-1.373-.008-1.176-.184-2.152.016-.667.712-3.86.376-2.493-.248-1.12-.568-1.025-2.136-3.097-.68-.858-.448-.81-.176-.587-.216-1.636-.584-1.953-2.608-4.972-1.304-3.328-1.376-4.653-.888-.834-2.032-1.533-5.856-5.21-2.048-1.684-2.192-1.96-.688-.43-3.272-1.819-3.535-2.183-1.28-.207-1.344-.333-2.657-1.08-1.384-.66-1.128-.945-2.287-2.74-.633-.889-.544-1.374-1.36-3.995-.776-1.675-.383-.469-1.944-2.01-.472-.81-.809-1.683-.32-.325-.92-.548-1.64-.397-2.087-.31-.833-.278-3.968-1.612-1.144-.548-3.743-2.216-.657-.167-1.032-.087-.736-.294-.303-.453-.056-.587.415-4.797-.183-1.605-.593-1.723-1.056-1.692-2.807-4.153-3.593-5.9-.32-1.28-.072-.785.065-2.74-.184-.532-.376-.62-.664-.778-.825-.635-.856-1.104-1.015-1.565-.72-.643-1.488-.946-4.44-2.565-2.768-2.12-1.696-1.326-.784-.858-.904-1.358-.624-1.612-.792-2.01-.704-1.572-.152-.651-.7-4.134.056-.949.34-1.08.344-.66 3.336-5.241.736-1.278 2.343-3.185.345-.922-.176-.833-.536-.62-.296-.206-1.412-.818-.572-.556-.264-.692.024-.968.16-.469 1.504-3.145 3.28-8.18 9.8-25.955" clip-path="url(#peb8ecf5c6a)" style="fill:none;stroke:#000"/><path d="m245.157 267.71-.224.206-.432.246-.6.199-.552.11-.968.065-2.272-.057-3.28-.254-1.064-.087-.8-.143-.52-.222-.36-.262-.384-.334-.848-.77-2.128-2.07-.784-.77-.288-.19-.372-.155-1.624-.556-.716-.341-1.576-.723-.576-.16-.584-.086-1.12-.009-1.376-.023-.704.047-.792.112-1.504.159-1.664.047-4.032-.508-2.016-.16-3.936.263-1.144-.007-.856-.088-1.536-.326-.872-.199-.632-.007-.471.055-.352.151-.44.286-.688.596-.825.874-1.063 1.254-1.057.97-1.056.777-1.431 1.025-1.28.977-1.145.977-1.008 1-1.984 1.978-.416.262-.255.088-.448.118-.448.04-1.456-.111-3.952-.135-2.193.024-.96.095-.375.072-.32.15-.545.421-.424.422-.775.817-.593.493-.703.397-1.616.739-.72.198-1.025.183-1.752.159-.448-.032-.56-.111-.631-.294-1.224-.667-1.432-.938M146.158 255.518l-1.576-.047-.936.031-1.096.175-.608.234-.28.226-.292.45-.34.496M375.956 363.48l1.96-.38.976-.187.548-.06h.36l.348.08 1.048.357 3.704 1.27 2.816 1.057 1.544.468M278.533 488.775l-.508-.774-.128-.179-.204-.135-.296-.162-.324-.12-1.116-.345-1.68-.366-1.848-.278M365.1 489.204l1.456-.866 3.328-1.73.888-.406 1.288-.643 1.872-.794.776-.358.4-.135.376-.063.304-.008 1.016.167.584.07.432.029.312-.024.24-.027.208-.084M384.756 477.053l-.408.556-.368.525-.536.841-.808 1.08-1.568 1.763-1.724 1.85-.528.497-.236.167M383.348 487.282l-3.84-1.43-.576-.508-.224-.35-.128-.662M354.716 491.053l.272.113.464.127.776.055 2.432-.135 1.696-.317 1.504-.413 1.56-.565.888-.325.792-.39M365.332 493l-.32-.858-.096-.38.032-.732.096-.73.056-1.096M354.716 491.053l-.44-.181-.832-.421-1.104-.548-.52-.294-.592-.437-1.288-1.127-.456-.334-.816-.452-.888-.596-.72-.58-1.024-.937-.448-.405-.408-.27-.592-.286-1.04-.405-3.416-1.652-.776-.214-1.744-.365-3.215-.302-2.993-.46-.728-.208-.448-.166-1.224-.723-.264-.214-.208-.262-.256-.58M323.093 489.76l1.76-4.797.16-1.366.064-1.525.192-.571.415-.477.608-.699.384-.698.416-.223.417-.254.767-.516M387.342 464.25l-.33.32-.64.826-.368.746-.416 1.223-.736 3.78-.144 1.017-.064 1.89.016 1.763.096 1.238M406.807 547.868l.02-.343-.063-.786-.2-.921-.304-1.009-.352-1.326-.248-1.262-.184-.858-.24-.794-.48-1.224-.68-1.675-.288-.874-.136-1.008-.112-.937-.064-.826-.256-1.763-.384-1.54-.192-.763-.08-.587.16-.747.4-1.636.352-1.176.112-1.556-.208-1.858-.048-1.144.048-.69.032-.858-.048-1.295-.08-1.818-.048-1 .024-1.375.216-1.048.32-1.16.4-1.238.432-1.048.272-.906.143-1.191v-1.334l-.095-1.207-.432-2.462-.304-3.073-.2-1.835-.192-1.095-.176-.692-.232-.683-.544-1.127-.92-1.731-.568-.914-.368-.42-.456-.358-.729-.365-1.383-.54-3.384-1.08-2.544-.81-.936-.549-.472-.523-.584-.723-.424-.755-.432-.587-.464-.627-1.416-1.835-.616-.874-1.76-2.493-.32-.668-.232-.626-.104-.589M245.157 267.71l-.152 1.064-.28 1.691-.392 1.708-.392 1.921-.112 1.08.016 1.415.08 1.27.112 1.303.176.873.248.7.448.801.8 1.263.496.564.504.397.576.342.608.285.432.183.552.095 1.952.47.776.174.384.135.528.294M301.268 483.51l-3.36.818-5.775 1.35-6.649 1.509-6.951 1.588M358.871 418.13l5.755 2.073M358.871 418.13l-.915 2.642M355.316 419.946l1.736.604.904.222M363.616 422.586l-.224.092-.256.032-.436-.1-2.152-.877-1.456-.54-1.136-.421M365.749 427.85l-.397-.173-3.009-.806-.21-.248 1.483-4.037M364.626 420.203l-.406 1.156-.488 1.073-.116.154M387.924 567.505l.464-.532M383.653 572.778l.415-.524 3.28-4.066.576-.683M357.908 559.453l22.048 6.099.416.318.608.635.736.476.992.318h.896l1.728.158h1.184l1.408.048M384.244 563.868l1.984 1.112 2.16 1.993M367.271 433.363l-2.95-.794M367.271 433.363l-.719 2.587M359.556 408.018v.548l-.008.698.056.35.104.413.224.46.288.287M354.164 408.597l1.984.906 1.456.571.928.27.912.27.776.16M355.432 403.571l2.436.746.696.23.52.23.32.207.168.167.072.278.04.429-.04.667-.088 1.493" clip-path="url(#peb8ecf5c6a)" style="fill:none;stroke:#000"/><path d="m355.024 406.819.132-.1.14-.032h.184l.44.156 2.196.738 1.44.437M276.469 567.378l-.504.588-.472.611-.248.43-.088.245-.115.44M276.765 572.302l-.752-.818-.376-.548-.328-.628-.267-.615M272.605 567.1l1.704 1.501.288.302.248.333.197.457M287.7 568.76l-2.976-1.017-.671-.031-.384.19-.704.667-.288.255-.448.158-.512-.063-1.056-.5-1.432-.573-.576-.134-.993-.223-1.191-.11M271.269 566.108l1.264.222.8.151.296.08.904.333.824.254.616.143.496.087M267.58 577.916l-1.855-.04-2.824.032-2.104.064h-.88l-.544-.048-.648-.167-1.136-.397-1.48-.556-.664-.214-.528-.286-.468-.357M250.389 592.075l-.704-.318-1.152-.635-1.168-.635.136-1.422.008-.595-.104-.357-.136-.247-.52-.58-.24-.357-.048-.452.064-.795.152-.754.848-2.295.592-1.945.312-1.001.412-1.07.146-.213.228-.236.184-.123.39-.184 2.696-.985.756-.258.768-.266.268-.187.172-.218M268.98 593.282h.609l.512-.254.416-.794.255-.604.705-.89 1.92-1.556.32-.746.808-3.2.295-.882.089-.865-.024-.818-.096-.413-.16-.31-.328-.254-1.28-.699-2.44-1.357-1.808-1.112-1.192-.612M272.605 567.1l-.54.643-.156.282-.084.254-.068.31-.04.437.212 1.016.076.393-.008.902-.144.563-.152.299-.192.233-.308.191-.508.14-.456.095-.408.158-.304.19-.288.31-.456.74-.368.722-.232.492-.248.644-.352 1.802M279.412 575.939l-.096-.572-.367-.81-1.168-1.239-1.016-1.016" clip-path="url(#peb8ecf5c6a)" style="fill:none;stroke:#000"/><path d="m276.373 575.24.256-1.78.136-1.158M272.605 567.1l-.664-.524-.672-.468M370.34 457.01l3.335-2.46M370.068 459.868l.448-.508.224-.572-.4-1.779M380.916 460.186l-.544-.16h-1.376l-1.056-.095-1.056-.444-.832-.159-1.312-.063-.704-.19-.512-.096-1.12-.254-.704-.477-1.36-1.239M355.432 403.571l.631-2.34M355.024 406.819l-.372-.85-.072-.43.072-.34.78-1.628M354.164 408.597l.724-1.604.136-.174M215.71 503.054l-.273-1.057-.2-.96-.328-1.231-.288-2.335-.056-.77v-.54l.056-.524.512-2.136.329-1.366.04-.485-.025-.691-.216-1.827-.32-2.255-.224-.802-.12-.206-.172-.203-.444-.306-.231-.179-.14-.21-.064-.186-.029-.22.024-.273 2.528-6.079M385.988 406.898l-7.24-2.74-.416-.23M378.545 401.248l-.341 1.663-.08.342-.016.262.056.222.168.19" clip-path="url(#peb8ecf5c6a)" style="fill:none;stroke:#000"/><path d="m374.359 396.884-1.847 4.985 5.82 2.059M380.564 387.925l-.064 2.582M380.594 385.305l.002.817-.032 1.803" clip-path="url(#peb8ecf5c6a)" style="fill:none;stroke:#000"/><path d="m384.676 387.898-.176.099-.288.031-3.648-.103M373.675 454.55l1.257.49.288.159.096.635v.35l-.128.476.256.35.704.063.768.159.672.254.672.413.576.254.608-.222.672-.381.544-.064.448.127.832.254.64.127.576-.159.384-.318.728-1.246M379.988 395.859l-4.625-1.687M379.283 398.674l.257-.83.448-1.985M380.29 393.176l-.014.158-.288 2.525M305.097 479.9l-2.404-.821-1.76-.612-.768-.238-.912-.222-1.232-.27-1.929-.342-1.511-.262M511.443 206.571l.952-3.98 1.592-6.25.544-1.85 1.456-3.026M502.515 182.633l.2 1.255.24.953.352.93.572.813.876.759 3.476 2.867.34.274.428.107.7.107 2.136.14 1.592-.12.604.048.572.19 1.384.509M523.067 212.114l-1.113 1.295-1.407.922-.624.492-.424.524-1.252 1.99-.284.325-.372.167-.284.063-.192-.015-.272-.155-.536-.604-2.4-3.16-2.296-3.146-.152-.548.024-1.152-.016-1.064-.024-1.477M500.255 240.277l.764-.075.42-.242.452-.342.388-.46.74-1.192.776-1.267.78-1.346M392.84 172.117l.372-.206 1.36-.58 2.504-.865M401.46 168.4l-1.4.739-2.984 1.327" clip-path="url(#peb8ecf5c6a)" style="fill:none;stroke:#000"/><path d="m393.444 168.653 1.392.804 1.208.532 1.032.477M411.012 160.267l2.24-1.628 1.304-.929" clip-path="url(#peb8ecf5c6a)" style="fill:none;stroke:#000"/><path d="m502.515 182.633-1.76-1.04-2.232-1.565-2.496-1.898-.68-.382-.8-.301-1.92-.262-3.016-.803-4.856-1.548-1.872-.73-1.048-.263-1.464-.167-1.84.111-4.448.135-2.376-.111-1.448-.199-1.752-.452-1.408-.469-.864-.325-.744-.175-1.488-.35-1.752-.095-2.32-.127-.8-.151-.632-.27-1.264-.509-.872-.3-2.904-.867-1.696-.738-1.991-.89-1.017-.397-2.688-.739-1.103-.468-.889-.366-1.088-.397-2.432-.436-1.191-.31-.976-.358-.797-.432-.828-.656-.615-.381-1.773-.98-3.5-1.792-1.427-.642-.362-.089-.93-.206-4.776-1.025-2.2-.42-1.329-.477-.975-.254-.793-.056-.863-.016-1.513.294-1.151.421M411.82 157.639l.488.19.416.04.624.04 1.208-.199M411.012 160.267l-.728.374-3.736 1.39-.608.317-.816.588-.92.945-.664.826-.44 1.04-.32 1.037-.416.766-.448.509-.456.341M500.255 240.277l-.252-.099-.6-.44-1.276-1.3-1.136-1.195-.92-.85-.396-.218-.404-.183-.54-.134-2.696-.656-2.64-.786-2.74-.937-5.74-1.93-.536-.239-.524-.289-.684-.421-.992-.913-1.22-1.215-2.172-2.09-1.84-1.449-.72-.683-.412-.699-.276-.818-.132-.512-.168-.373-.316-.35-.58-.492-2.024-1.696-.552-.699-.444-.592-.456-.63-.416-.426-.592-.476-.836-.512-2.188-1.192-1.944-.945-.767-.33-.504-.13-.62-.056-1.909-.27-1.516-.25-.352-.092-.411-.226-.692-.56-1.529-1.322-1.456-1.704-1.103-1.628-.76-1.33-.609-1.108-.392-.715-.46-.838-.32-.473-.34-.39-.44-.432-.443-.333-1.329-.938-1.808-1.354-1.94-1.505-1.332-1.155-.88-.93-1.632-1.628-.603-.659-.98-1.39-1.013-1.95-.284-.492-1.536-2.14-1.736-2.248-1.048-.914-.8-.667-.567-.39-.857-.428-3.088-1.358-.591-.357-.596-.39-1.653-1.604-.516-.52-.455-.314-.509-.222-.863-.159-.913-.083-1.855-.242-.849-.223-.807-.453-1.48-.968-1.008-.763-.577-.437-.788-.496-.715-.386-.572-.222-.864-.155-.8-.155-.792-.131-.716-.238-1.148-.477-.92-.389-.51-.272-.51-.399-1.16-1.453-.648-.874-.56-.723M500.139 244.403l.028-.675.088-.476.208-.536.252-.54.206-.536-.006-.235-.132-.278-.196-.306-.332-.544M411.82 157.639l-.337-.362-.527-.798-.348-.58-.556-.476-1.424-1.168-.856-.46-3.128-1.454-.196-.151-.165-.199" clip-path="url(#peb8ecf5c6a)" style="fill:none;stroke:#000"/><path d="m391.285 152.04.643-.092.428-.091.3.007.158.058.516.365 2.698 2.08.504.15.648-.111.52-.127.372-.239.276-.34.592-1.061.384-.373.372-.235.348-.111.588-.012 1.092.203.608.024 1.951-.144M411.012 160.267l.528-.796.254-.359.13-.254.044-.385-.148-.834M266.689 224.163l.696-.532.316-.564.296-1.485.216-.66.296-.722 3.576-5.703 2.784-4.019.704-.92.648-1.2.704-1.501 1.056-2.407.392-1.112.264-.802.416-.683.8-.81.832-.588.472-.214.696-.111 2.048.063 5.631-.254.929.024.783.167 1.072.15.753-.023 2.92-.453 1.632-.238.551-.199.572-.334 2.477-1.786.788-.473.907-.322 2.076-.393.516-.02.497.08 1.823.699 4.024 1.604 1.968.596 1.944.587.769.135 5.584-.11 5.231.095 2.689.055.871-.158 2.537-.914 5.36-1.7 1.031-.278.512-.15.433-.318.471-.635.624-.66.528-.413.576-.302.856-.278 1.304-.302 2.096-.547 1.448-.564 2.304-1.438 2.472-1.374 2.576-1.636 3.608-1.946 3.456-1.834 2.248-1.097.808-.492.52-.469 1.128-1.358 2.192-2.009.64-.493.752-.373.768-.27.776-.095.888.135 1.768.532 1.096.19 1.664.262 1.096.088.984-.127.856-.12M392.84 172.117l-.58.485-1.424 1.652-.744.627-2.696 1.875-1.344.643-1.128.397-3.64.842M365.828 226.903l.536-2.176.408-.914.76-.85 1.24-1.08.632-.89.68-1.064.376-.69.152-.54.04-.763.048-.754.288-1.474.504-2.585.472-2.375.264-.984.736-2.057.176-.493.308-.5.74-1.029.316-.643.7-1.747.488-1.104.4-1.212.176-1.159.112-1.08.144-1.898.304-1.692.384-1.732-.016-.929-.128-.842-.144-.746.048-.429.12-.433.232-.743.144-.738.128-.405.264-.294 1.88-1.326 1.896-2.018.936-1.104.092-.373-.024-.425-.164-.528-1.192-3.447M523.067 212.114l1.016.62 1.88.858 5.311 2.136.569.421.327.43.153.666-.624 3.034-.624 3.956M563.674 178.9l-1.92 2.192-2.336 2.724-1.007 1.573-.88 1.62-.4.81-.192.588-.136 1.66-.08 2.772.023 1.525-.168.611-.263.286-.52.357-.489.199-1.92-.063-.976-.215-1.351-.302-1.128-.19-1.513-.183-1.456-.167-1.943-.436-1.688-.47-1.696-.627-.92-.27-1.033-.071-2.215.199-1.408-.16-.824-.218-.46-.11-.592-.279-1.055-.618M523.067 212.114l.624-1.143.512-.93.408-1.397.152-1.033v-1.985l.207-2.923.497-1.724.44-1.127 1.016-1.811.432-1.12.296-.699.56-.667.671-.604 4.073-3.11.173-.204M392.84 172.117l.16-.611.156-.707.17-1.265.118-.88M356.235 139.086l.961.571 3.576 2.112.992.74.56.603 1.392 2.51.896 1.21 1.088 1.18 2.944 2.82 2.536 2.287 1.976 1.58 2.832 2.145.904.898.776 1.175.972 1.763.444.75.456.446.616.397 1.224.583 2.592 1.12 3.784 1.58 2.176 1.026 2.936 1.739.576.332M556.21 168.765l2.384 1.994 1.145 1.183.303.47.544 1.818.253.504 2.06 3.269.775.897M528.387 257.226l.704-1.16.704-.873.736-.882.392-.62.368-.714.295-.85.073-.675.024-.73-.16-1.446M528.387 257.226l-.16-2.089-.312-.834-.264-.945-.209-.739-.283-.835M518.675 241.85l1.152.476.632.405.544.588.824.778 2.928 2.105.832.882.464.897.296 1.057.568 2.025.244.721M508.282 252.446l1.153-1.9.244-.532-.028-.23-.296-.477-.108-.448.084-.536M384.676 387.898l2.375.025M385.581 385.275l-.017.216-.104.592-.496 1.278-.176.39-.112.147M590.178 128.88l-4.16-2.356M589.186 110.564l-2.192 1.874-1.024.922-.784.556-.344.527-.091.577.027.484.184.532.608 1.064.28.779.16.834.168 2.247.136 2.105.008.822-.104.751-.072 1.112-.128.774M391.285 152.04l-.381.055-1.08.032-.444-.06-.4-.095-.252-.155-.152-.207-.068-.234-.248-1.219-.76-3.407-.556-1.875-.74-1.906-.456-1.636-.224-.763-.232-1.262-.056-1.35.096-1.01-.012-.372-.208-.465-1.5-2.26-1.248-1.978-1.264-2.438-.392-1.009-.16-.452-.32-.473-.484-.572-1.576-1.711-.992-1.06-.796-.807-.544-.651-.384-.795-.576-1.294-.536-.826-2.736-3.9-1.28-1.7M266.689 224.163l.044.341.152.414.272.34 1.34 1.053 1.332 1.235.776.73" clip-path="url(#peb8ecf5c6a)" style="fill:none;stroke:#000"/><path d="m393.316 159.839-2.172-3.348-.268-.58-.176-.647-.132-1.148-.004-.457.132-.389.59-1.23M345.908 148.227l2.828-.576.308-.123.26-.222.588-.66.464-.413.744-.357 2-.842.432-.219.288-.305.12-.43.344-2.994.144-.746.176-.548.328-.274 1.303-.432M371.728 439.383l-1.399-.33-5.172-1.138M366.426 425.13l-.677 2.72M366.426 425.13l1.197-3.836M382.385 402.457l-3.84-1.21M379.283 398.674l-.623 2.014-.115.56M375.363 394.172l-1.004 2.712M375.363 394.172l.928-2.506M381.556 399.486l-2.273-.812M374.359 396.884l4.924 1.79M386.408 393.512l-6.117-.336M380.29 393.176l-3.999-1.51M380.5 390.507l-.016.666-.193 2.003M375.268 391.28l1.023.386M386.205 390.726l-5.705-.219" clip-path="url(#peb8ecf5c6a)" style="fill:none;stroke:#000"/><path d="m376.291 391.666.92-2.484 3.29 1.325M380.594 385.305l4.987-.03M405.681 384.057l1.284-3.3M383.653 572.778l-.233.294-.52.58-.584.611-.68.596-1.576 1.111-.456.398-.576.58-1.352 1.429-.384.547-.328.517-.36.683-.184.588-.296 1.532-.303 1.84M388.276 610.499l.032-.604-.192-.572-.576-.349-.8-.254-2.144-.414-.608-.571-.48-.921-2.432-3.653-.448-.477-.672-.38-.832-.605-.48-.762-.352-.794-.576-.286-.64-.127-1.024-.603-.32-.89-.48-.857-.512-.35-.544-.285-1.472-.668 1.216-3.684 1.168-4.527.568-2.906.145-.875M397.012 594.966l-1.216.063-.736-.19-.993-.635-1.215-.827-1.568-.666-1.28-.413-1.344-.858-1.248-1.652-1.024-1.334-1.056-.763-4.8-1.715-.704-.666-.736-.382-2.648-.687-.623-.156M249.245 550.89l-.52-.141-2.496-1.46-1.216-.795-.896-.604-.928-.254-3.968-1.143-.832-.604-.384-.635v-2.51l-.48-5.177M266.058 542.873l-4.341-4.258-1.562-1.532-1.158-.565-1.472-.826-.736-.476-.544-.318-.512-.254M278.598 531.358l-.233.292-.744.803-1.48 1.572-1.088 1.294-1.256 1.7-1.536 2.033-.22.293-.244.287-.584.547-1.272.81-2.504 1.128-1.104.58-.275.176M196.714 582.308l.14 2.43-.417 1.08M196.714 582.308l-4.069-1.215M247.381 596.713l-.96-.318-2.432-1.588-2.816-1.842-2.304-.7h-1.344l-3.904-.127-2.88-1.206-1.28-.254-2.624-.89-5.76-.953h-1.792l-1.472.064-2.304-.508-1.088-.318-2.208-.476-2.016-.636-11.2-3.97-2.283-.683M187.686 586.137l.815-.637 2.024-1.628.776-.69.544-.771.392-.738.408-.58M250.389 592.075l2.688.826 1.024.127.64-.508.448-.509.256-.952M247.381 596.713l.768-1.461.96-.127 1.024-.127.704-.255.32-1.143-.768-1.525M270.869 610.562l-2.496-.444-1.856-.573-2.112-1.46-1.856-1.335-2.176-2.223-.96-.89-1.92-1.27-1.152-.635-1.664-1.144-1.152-.826-1.472-.89-.576-.38-.704-.445-3.392-1.334M187.686 586.137l1.007.983 1.088.635 1.344.318 1.792.127 1.792.445 1.409.825h3.7110000000000003l1.536-.063 2.432.508 1.984.953 2.624.572 3.392.953 2.24 1.27 1.344 1.589 2.496 2.223 1.984 1.016 2.112 1.271 1.856.762 7.808.89 2.304.064 2.304.444 2.432.254 1.6.127 8.64 3.177M241.013 624.284l-1.344.667-.576.445-.768.413-1.312.35h-1.888l-2.304-.541-2.144-.032-4.512-1.556-.832-.508-1.952-.762-1.44-1.08-1.216-1.653-.576-1.08-.48-2.35-.16-1.238-.256-1.716-.896-.984-.768-1.112-.15-1.97" clip-path="url(#peb8ecf5c6a)" style="fill:none;stroke:#000"/><path d="m241.013 624.284-.704-.92-.224-1.335v-1.017l.608-.92.416-.986.224-.603.288-.826-.64-.572-1.92-.762-5.6-1.239-5.856-1.97-4.704-1.651-5.463-1.905M184.58 597.092l6.322 1.971-.257 1.97 1.313.317.832.032 1.055.254 1.633.572 1.055.476 1.792.667 5.793 1.843 11.135 3.62 2.185.764" clip-path="url(#peb8ecf5c6a)" style="fill:none;stroke:#000"/><path d="m249.109 629.43-2.88-2.033-1.472-.604-1.28-.571-1.12-.604-.736-.857-.608-.477M180.63 603.892l.32-.382 2.24-2.636 1.12-2.477.255-.7.015-.605" clip-path="url(#peb8ecf5c6a)" style="fill:none;stroke:#000"/><path d="m156.314 593.869.188.938.704.254.8.16.672.348.863.477.609.572.8.571.544.413.704 1.08.608.445.863.127.992.095 2.049.572h1.152l1.215-.286 1.696.222 1.344.223 1.376.19.865.477.8.54 1.696 1.048 1.6.985 2.176.572M387.342 464.25l-.602-.22-1.184-.064-.768.064-1.216.031-.928.254-.544.35-.384.254-.416.858M453.78 599.032l1.6.095 4.671 1.397M397.012 594.966l4.384-1.176h.96l1.536.445 1.76.572 2.367.38 1.28.223h1.28l2.049.032 1.664-.032 1.408.223 1.311.254 1.344-.223 2.176.255 2.144.222 6.369 1.525 1.312.19 2.112.635 3.296.7 1.503.158 3.968.032h1.248l1.248.254 1.536.032 3.2-.381 2.816-.032 2.497-.222" clip-path="url(#peb8ecf5c6a)" style="fill:none;stroke:#000"/><path d="m446.483 594.425 2.048 1.652 2.688.89 2.56 2.065M388.276 610.499l2.016-3.749 2.048-2.414 2.431-3.05 1.025-1.778.768-1.652.448-2.89M382.036 573.048l1.617-.27M385.492 573.874l-.384-.445-1.455-.651M382.868 555.927l.8-.127.288-.445.16-.667.032-.73.352-.54.352-.54.064-.763v-1.2389999999999999l.192-1.143" clip-path="url(#peb8ecf5c6a)" style="fill:none;stroke:#000"/><path d="m373.972 549.224 1.216.191.832-.031.896.476.672.572.96.317.768.032 1.44-.286 3.68-.762h.672M406.807 547.868l-14.051-3.916-.384-.191-.032-.572.32-1.81-.256-.445-.8-.159-.672.032-1.76.35h-.832l-1.152-.223-3.68-1.398-2.432-1.27-.608-.286h-.64l-.992-.413-.768-.286-1.248-.032M354.716 491.053l-1.096 3.027-.064.508.16.858M307.445 490.395l.384-1.335M314.824 484.426l-.123.228-.489.587-.831.747-1.424.857-2.417 1.39-1.711.825M314.824 484.426l.46.506.032.476-.16.603-3.328 8.323-.928 3.621.129.509.223.254 1.6.73M294.773 511.551l-3.045-.838M287.585 520.992l.172-.34.28-.882.256-.85.392-1.747.232-.667.232-.476.56-.977 1.031-1.85.609-1.517.38-.973M284.349 524.83l1.144-.906.847-.89.488-.667.328-.524.43-.851" clip-path="url(#peb8ecf5c6a)" style="fill:none;stroke:#000"/><path d="m324.308 534.644.192-.952v-.509l-.32-.38-.736-.319-1.824-.698-30.623-9.562-.864-.444-.608-.191-1.94-.597M284.349 524.83l5.176 1.841.448-.19.128-.35.383-.222.704.095 3.105.699.928.159 1.6.54 1.344.572.896.89.832.666 1.663.794 4.928 1.81M285.48 539.204l-.083.809M307.253 542.967l-2.369-.127-1.407-.35-1.888-.286-2.88-1.207-4.8-1.525-2.08-.094-1.376.031-1.568.254-1.344.127-.864-.19-1.197-.396M285.909 533.977v1.08l-.429 4.147M285.947 533.116l2.81.988 2.592.731h.864l.703-.16 1.089-.444.607-.285h.705l8.064 2.572 1.824.667.863.668.512.603.544.667.992.826 1.44.826 1.056.19.96.16.672.19 1.12.127.96.667.832.286M285.947 533.116l-.038.861M278.598 531.358l.559.3 6.432 2.097.32.222" clip-path="url(#peb8ecf5c6a)" style="fill:none;stroke:#000"/><path d="m279.038 530.792-.25.326-.19.24M129.462 536.01l.197-2.237M186.039 556.646l.478-3.419.032-.985-.16-.604M186.039 556.646l-1.058 2.997M178.202 554.226l1.548.486 3.535 1.088 2.754.846M178.202 554.226l2.236-8.241.255-.636.193-.35.351-.222.544-.19.8-.064M474.93 344.397l2.081.92 4.192 1.843 1.152.763 1.472.953.512.54.384.603.064.413.032.668v.412l1.088 7.593.8 2.033.288 1.016v.509l-.288.445-.384.412-.416.54-.288.35-1.76 2.954M474.93 344.397l-.607-.477-4.192-1.048-1.056-.414-.608-.476M453.363 330.552l1.32-2.388 5.211-9.66M484.755 322.731l-2.816-1.334-.672-.032-.992.095-3.456.921-.992.223-.736-.063-.864-.477-1.664-1.239-1.28-.73-1.344-.446-1.088-.19-2.912-.031h-1.7280000000000002l-4.317-.924M490.387 312.883l-5.632 9.848M474.93 344.397l4.609-3.908.512-.636.352-.73 1.312-3.304.064-.794-.256-.635-.128-.318-.16-.508v-.635l.064-.509 2.56-8.005.48-.826.416-.858" clip-path="url(#peb8ecf5c6a)" style="fill:none;stroke:#000"/><path d="m445.942 344.148 8.925 5.14 2.624 1.59.768.253h.576l.48-.254 3.68-2.065 2.304-.89 1.728-.603 6.592-2.383 1.312-.54M453.363 330.552l-.615 1.114-5.76 10.602-1.046 1.88M444.664 346.32l1.14-1.923.138-.25M445.12 346.586l-1.005 1.876-.096.54.096.382.416.317 18.656 11.087M445.12 346.586l6.387 3.72M445.12 346.586l-.456-.266M439.892 352.423l.511-.577 1.184-1.342 1.257-1.597.912-1.215.603-.859.305-.513M435.347 326.893l-.031 1.302.32 1.302.16.731.064.858.096 1.08.671 9.944v.73l-.096.763-.352.825-.927 3.304-.129 1.334.16.89.32.508.353.382.383.254 1.505.762 2.048.56M432.211 326.48l.225-1.43.863-5.718.288-2.541v-.922l.32-.794.672-.159.929-.286.511-.412 1.569-3.178.767-.889.416-.89-.064-.857-.096-.699M432.211 326.48l-2.336-.16-1.248-.158-.832-.35-2.911-1.207-1.344-1.08-.736-.89-.929-.635-1.344-.73-1.344-.858-.671-.572-.928-1.397-.577-1.017-1.088-2.192-.735-1.239-1.44-1.08-1.088-.667-.96-.858-.928-.571-1.088-.573-1.248-.412M432.211 326.48l3.136.413M453.363 330.552l-1.567-.451-1.888-.317-2.465-.445-3.104-.318-4.896-1.334-1.92-.445-2.176-.35M313.542 473.415l-1.195 3.342-.408 1.876-.027 1.168.335 1.209" clip-path="url(#peb8ecf5c6a)" style="fill:none;stroke:#000"/></g><g id="PatchCollection_1"><path d="m369.268 609.784-3.168.635-.608 1.303-1.888 1.143-.896.223 3.424.92.608.382.704 1.524.032.699-1.248.73-.704 1.938-.608.254-1.248-.317 1.184 1.239.384 1.032.032.667-.48.572-1.856.508 2.048.826.192.762-.512.668-.352 1.492-.768.413-.96 1.51-1.408.793h-.928l-3.936-1.46 4.256 2.667.128 1.08-.704.223-2.688.031-1.344.763-1.152.031-1.504 1.017-2.944-.699-.608-.477.48-1.397 2.368-2.033-3.2 1.493-1.472-1.97-.832-1.397-.032-.636-.416.7.928 2.953.096.636-.288.635-3.52 1.175.64.35 3.456.826 1.6 1.874 2.976-.382 2.336 1.048 1.216.096 3.52-1.715h.864l1.248-.651 1.6.762.32.89-.16.825-1.248 1.557-.16.698-1.312.381-2.752-.508-1.152-.031-.832.35.928.602 3.808.826 1.216 1.24.736.063 1.6-.382 2.048.604 2.048 1.112 1.6.063 6.048 1.08-.608-.762-2.592-1.08-5.568-1.525-1.152-1.239.672-1.206 1.024-1.112 1.024-.572 3.744-.667-3.712-1.557-.416-.635.384-.571-.032-2.51-.352-.858-1.152-.984-.352-.969.352-1.747 1.152-1.715 1.76-.572h2.4l2.912-1.207-4.096-.064-1.088-1.143-.288-.635-.32-2.605.608-1.747.288-2.875-1.408-3.017.192-.794zM547.923 128.514l1.728-3.05-.384-.286-2.08-.445-.912.016-.352.064-.289-.334-.656-.413-.336-.159-.56-.54-.896-.763-.511-.603-.96-.81-.464-.54-.305-.254-.64-.398-.24-.27-.192-.317-.207-.27-.337-.032-.047.35.064.667.16.333.192.27.224.254.432.604.143.317.4 1.35.24.334.289.588.176.286v1.048l-.209.7-.08.364.08.366.624.318.352.032 1.137-.254h.368l.32.094.576.318.303.016.673-.016.352.111.56.302.575.382.448.143zM427.303 378.145l-.656 1.595.826.334.655-1.595zM427.492 377.513l5.823 2.4.657-1.542-5.793-2.462zM428.883 378.673l-.687 1.557 4.272 1.763.688-1.636zM475.283 685.747l-.608.508-.672.159-.48.54-.416.54-.48.476-.672-.222-.64-.286-.672-.063h-.704l-.608-.286.032.794.096.635-.352.603-.704.064h-.768l-.736.127-1.472.064-.704.063-.704.096-.672.19.672.223h2.08l.672.063.736.127.608.477.64.476.512.35.48.571.64-.095.64-.477.576-.317.544-.35.64-.38.64-.033.704.16.128.666v.7l.416-.605.608-.127.32.572.128.667.192.636.448-.477.704.159.384-.667.192-.635.608-.509h.672l.448.509.544.35.352.603.416.54.736.127.608.285.32.667-.128.636-.576.984v.667l.064.731.224.604.064.635v.699l-.48.508-.704.063-.672-.19-.32-.604-.64.159-.512.572-.608.476-.768.032-.704-.032-.576.286.064.635.096.636-.064.698-.544.509-.544.412-.256.731 1.376-.127.576-.317.192-.731.48-.572.736-.159.608-.254.448-.508.64-.127.64-.032.704.223.576.35.704-.192.512-.476.736-.159.64-.032.512-.445.064-.73-.224-.603-.224-.794.256-.667.672-.16.608-.094.16-.668-.32-.571.448-.54.608-.032.768-1.049.608-.285.64.254.448.508.608.477.416.476.576.35h.736l.608-.096.672-.063 1.632.095h1.568l.64.381.512.35.736.126.544.318.416.508.32.572.352.572.672-.032.32-.699.544-.413.64.128.544.35.608.443.64.286.608.54.384.572.16.667.416 1.27.128.763v.667l-.096.667-.608.38-.768.065-.672.158-.576.35-.832.063-.672.096-.576.317-.416.54v.699l.064.73-.224.89-.096.73-.256.636-.224.73v.667l-.224.73.192.605h.32l.384.54-.064.73v.699l.544.38.384-.57.256-.604.544-.35.544.286-.256-.635-.608-.572-.576-.381-.32-.635.032-.667.48-.667.384-.635.128-.668.064-1.27.384-.508.704-.064.672.381.512.413.576.254.64.032.736-.38.64-.128.8.222.608.318.512.413.16-.667.544-.413.672-.064.544.286.704.222.608.064.544.381.672.572.704-.19.768.126.448.477.64.38.768-.03.608-.223.48-.445-.704.19-.608-.222-.512-.444-.448-.667-.544-.35-.736-.063-.672-.254-.48-.477-.512-.603-.704-.223h-.736l-.704.032-.704-.032-.576-.444-.352-.636-.16-.73v-2.16l-.064-.73-.16-.7-.256-.603-.96-1.334-.448-.508-.448-.54-.448-.508-.48-.477-.576-.444-.672-.223-.704-.254-.608-.413-.576-.444-.704.286-.704.221h-.704l-.704-.285-.544-.54-.448-.54-.608-.318-.672.032-.672.286-.736.127h-.768l-.672-.064-.512-.508-.512-.54-.544-.381-.352-.444.032-.636.64-.254.608-.222-.8-1.207-.288-.7-.128-.825-.032-.635v-.762l-.032-.763-.512.508-.608.35-.352.699.064.73.416.603.128.636-.864.35-.768-.223-.576-.603-.416-.604-.416-.508-.672-.096-.512.381-.704.477-1.216-.413-.384-.603-.288-.763-.224-1.588-.256-.635-.736-1.207-.48-.73-.384-.636-.32-.667-.288-.953-.096-.699.064-.699.32-.603.416-.508.16-.985.192-.699.416-.508.608-.317.48-.414.576-.413.768-.19.832.222.64.35.736.127h.672l.736.095.704.254.672.381.704.159.608-.032.64-.19.672-.382.608-.254 1.056-.158.736.031h.672l.8-.063.704.032.704.285 1.472 1.017.704.254.768-.032.736-.19h.704l.64.159.544.412.64-.317.672-.413.576-.222.8-.032.608-.127-.064-.636-.096-.698.192-.636.544-.603.704-.508.576-.382.672-.38.576-.763.32-.572.288-.572.416-.476 1.408-.413.576-.254.416.572.64.222.672-.412.576-.287.352.636.096.635.192.603 1.28.255.608.254.384.476.544.445.576.413.512.413.416.635.48.667.448.476.64-.317-.448-.572-.448-.54-.224-.635-.096-.667-.224-.763-.417-.603-.543-.382-.992-.444-.576-.444-.16-.731v-2.16l-.032-.667-.288-.762-.48-.636-.544-.38-.608-.319-.704-.285-.416-.572-.128-.699.096-.699.32-.572.672-.063.64.159.704.317.608.223.672.095.96-.159.768.255 1.152.666.352.636-.128-.921-.353-.54-.383-.54-.32-.636-.864-.413-.448-.603.48-.476.64.254.64.285.672.128.8-.128.608-.285.576-.35-.864-.064-.672-.063-.736-.286-.544-.35-.544-.762-.192-.666-.704-.191-.8.222-.672.286-.736.032-.512-.572-.768-.318-.8.032-.768-.19-.64-.477-.384-.794-.16-.826-.064-.667-.576-.286-.64.223-.608.445-.48.603-.576-.572-.256-.858-.256-.698-.352-.572-.512-.54-.48-.477-.48-.54-1.088-.54-.512-.54-.416-.603-.224-.699-.064-.635-.608-.286h-.704l-.704-.127-.576-.444-.576-.477-.416-.508-1.184-1.017-.32-.572-.192-.857-.032-.635.416-1.27.512-.446.608-.381h.704l.608-.254.544-.413.544-.317.64-.127h.768l.704.221 1.568.668.768-.064.448-.476.416-.509.384-.603.544-.381.704-.286.576-.54.352-.73.224-.668v-1.08l-.128-.666-.416-.763-.416-.54-1.184-.699-.832-.222-.992-.063-.672-.127-1.12-.414-.64-.222-.736-.064-.512-.476.32-.636.256-.666.032-.636-.32-.698-.416-.604-.256-.698-.096-.668-.288-.635-.576-.508-.512-.667-.416-.572-.384-.604-.256-.635-.096-.635.064-.635.384-1.24-.576-.793 1.344-.127.448-.477.352-.571-.288-.573.352-.54.608.223.736-.635v-3.081l-.48-.508-.768-.287-.736-.127-.704-.19-.64-.508-.736-.477-.896-.095-.864-.032-.832-.127-.448-.635-.192-.667-.064-.636.064-.73.096-.763-.16-.698-.224-.604-.096-.73.32-.572 1.088-.985.256-.572.128-.635.384-.54.64-.254.672-.096.608-.031.704-.19.32-.604.224-.604 4.16-12.515-1.184-.445-.256-.73-.032-.668.512-.508.544-.349.448-.635.224-.604.352-.794.48-.476 2.496-.254.16-2.097.064-.603-1.408-.381-.416-.668-.704-.92-1.504-.605-1.28-.19-.608-.667-.416-.572-.544 1.08-.32.699-.448.572-.672-.032-.448-.603-.416-.731-.672.317-.672-.19-.448-.572-.48-.571h-.736l-.8-.064-.608-.445-1.12.477-1.088.19-1.024-.476-.736-1.08-.416-.508-.448-.763-.736.286h-.736l-.512-.477-.32-.667-1.056.16-.608.253-.928.254-.64-.222-.512-.794-.448-.603-.704-.318-1.216-.317-.96-.445-.864-.382-.544-.698-.352-1.017-.352-.667-.544-.476-1.472-.73-.672.158-.256.572.16.73.288.858.224.762.128.73v.763l-.224.667-.416.7-.192.698.032.635.128.794v.73l-.288.795-.448.667-.384.699-.192.826v.635l.224.667.448.667.32.572 1.152.413.544.35.736.348.704.255.64.38.256.604-.32.54-.576.381-.576.636-.224.699-.16.698-.48.509-.736.35-.928.126-.768-.063-.992-.477-2.272-1.016-.64-.35-.32-.603-.128-.921.192-.953.288-.572.48-.54.448-.953-.768-.286-.96-.571-.576-.414-.352-.54-.48-.952-.32-.763-.448-.54-.576-.508-.544-.921-.096-1.302.128-.7.224-.603-.96-.762-.544-.762-.288-.668-.16-.825-.32-.731-.672.031-1.6.636-.736-.381-.832-.763-.672.191-.32.635-.16.699-.448.572-.768.254-.48.477-.096.635v.667l.064.698-.064.763.192.73.512.382.608.476.416.572.192.635.576 1.207.256.604.512 1.017.385.635.351.54.224.825v.731l-.48.445-.832.571-1.056-.222-.704-.508-.448.508.224.7.256.57.192.7-.096.73-.511.413-.769-.127-.832-.54-.896.032-.672.222-.736-.095-.832-.35-.992-.476-.352.73.225.7.287.603.353.635v.635l-.16.7-.513.603-.896.54-.704.477.608.476.8-.032 1.088.286.512.35.992.635.704.19.897-.508 1.695-.445.928-.127h1.376l.864-.254.832.095.416.604.608.603.384.668.48.476.416.572.32.73.704-.063 1.216-.19.576.412.576.477.512.444.32.763.032.635v1.112l.128.667.832.222.704.159.608.159.608.317.512.382.8.667-.096.92-.512.795-.512.413-.768.063-.672-.158-.896-.382-1.088.89-.96 1.429-2.144-1.175-.672-.35-.608-.222.064.762.16.668.224.635.064.698-.16.636-.704.38-.832-.253-.8-.73-.416.667-.416.508-1.024-.032-.64-.255-.896.16-.672-.35-.575-.953-.353-.603-.96-.032-.352.603-.032.7.32.73.448.508.512.476.448.445 1.12 1.398.704.857.577.254.8.287.671.444.8.7.384.54.416.476.64-.191 1.088-1.175 1.024-.826 1.632-.572h.768l.448.572.192.699.32.762.512.54.704.286.608.445.896.889.864.19.672-.158 1.056-.35h1.152l.736.19.64.287.64.412.448.509.096.794.064.635.256.572.608.54.48.445.416.603.704 1.08.448.477.544.413.448.635.288.762.256.731.032.857v1.62l-.064.636-.448.508-.576.444-.896.35-.832.35.096.666 1.472.572.672.445.672.508.512.54.992 1.779.48-.636.576-.635.224 1.112.192.635.416.509.672.412.608.509.544.73.416 1.08.512.953.128.636-.576.412-.832-.19-.64-.222-.672-.255-.256.667-.096.89-.128.762-.416.635-.608.413-.64.604-.576.89-.864 1.206-.512.668-.864.348-.64.064-.736.35-.672.571-.672 1.366-.128.604-.832.73-.768.223-.704.222-.704.096-.992-.064-.64.317-.256.762-.256.668-.608.349-.832.032-.864.286.288 1.143.224.667-.032.636-.672-.064-.928-.445-1.024-.222-.096.762.032.668.256.571.64.381.576.255.64.412.64.159.768-.063.672-.254.672-.191.8.032.544-.445.448-.73 1.152-.16h.96l.64.604.576-.317.384-.7.896-.19.704.16.48.57.352 1.176.448.572.64.158.416-.666.544-.318.64.222 1.184.127.64.477.672.127.704-.032.64.159.704 1.27.416.636.48.508.224.635.48.858.224.635.064.762-.096.668-.128 1.365.032.635.672 2.192.608-.508.48-.54.64-.572.864-.445.736-.127.64.033.736.92.448.73.672-.158.576-.222.8-.16.768.065.608.54.384.666.256.636.192.635.032.762-.256 2.129-.48.508-.96.254h-2.368l-.736-.095-.64-.318-.608-.35-.672-.507-.832.063-.928.35-.736.349-.608.381-1.248.445-.704.19-.704.032-.704-.222-.416-.54-2.496-.064-.736-.063-.992-.477-.832-.571-.608-.35-1.536.953-.736-.222-.48.508-.16.667-.096.635-.608.858-1.12.222-.736.572-.096.667-.064.762-.416.635-.64.477-.416.572-.064 1.556v.762l-.16.667-.256.604-.448.603-.224.667.32.604.096.667-.16.667.128 1.143z" clip-path="url(#peb8ecf5c6a)" style="fill:#00f;fill-opacity:.8"/></g><g id="PatchCollection_2"><path d="m397.732 445.351 1.84-2.906-.017-.223-.24-.19-1.167-.223-.256.19-.08.223-.4 2.986.048.302zM392.772 449.96l1.97.193-2.732 4.683-1.164 2.964z" clip-path="url(#peb8ecf5c6a)" style="fill:green;fill-opacity:.8"/></g><g id="PatchCollection_3"><path d="m526.745 271.244-.396-2.945 4.288-.567.395 2.946zM554.994 361.872l2.904.719-1.047 4.166-2.904-.719zM583.138 463.986l2.977-.308.448 4.27-2.977.308zM551.542 548.48l2.975.335-.487 4.266-2.974-.334zM276.393 526.004l2.855.89-1.088 3.399-2.855-.891zM393.254 424.619l3.226.7-1.07 4.853-3.226-.701zM540.594 388.998l5.472 2.445 1.44.445.385-1.366-.512-.318-.065-.476-5.791-1.938h-.832l-.576 1.048zM554.418 138.537l.928.381.289-.571 2.207-5.815-1.696-.825-1.344 6.068zM237.733 555.053l-.88-.397-.528 1.938 7.248 2.271.784-.985-.304-.238-.416.509-.64-.287zM189.078 553.386l2.08-8.069-.96-.286-3.264 7.592z" clip-path="url(#peb8ecf5c6a)" style="fill:#90ee90;fill-opacity:.8"/></g><path id="PatchCollection_4" d="m550.786 127.29-1.424 2.86 4.116 2.963 1.916-2.98z" clip-path="url(#peb8ecf5c6a)" style="fill:#006400;fill-opacity:.8"/><g id="PatchCollection_5"><path d="m116.314 525.553 1.296-.222.256 1.334-1.297.238zM114.24 519.237l.864-1.255 1.312.905-.864 1.255zM544.61 137.187l-.685 1.184 1.31.801.735-1.334zM549.938 110.913l-.157 1.137.797.388.336-1.302zM118.468 527.253l1.096-.216.209 1.046-1.096.215zM118.261 525.915l2.26-.445.151.762-2.259.445zM548.838 110.868l-.145.385-.389-.12.194-.41zM399.281 440.953l.234-1.368-.736-.124-.235 1.368z" clip-path="url(#peb8ecf5c6a)" style="fill:#a9a9a9;fill-opacity:.8"/></g></g></g><defs><clipPath id="peb8ecf5c6a"><path d="M104.031 86.4h529.938v554.4H104.031z"/></clipPath></defs></svg>