<svg xmlns="http://www.w3.org/2000/svg" width="960" height="960" viewBox="0 0 720 720"><defs><style>*{stroke-linejoin:round;stroke-linecap:butt}</style></defs><g id="figure_1"><path id="patch_1" d="M0 720h720V0H0z" style="fill:#fff"/><g id="axes_1"><path id="patch_2" d="M90 602.435h558v-477.67H90z" style="fill:#fff"/><g id="LineCollection_1"><path d="m356.604 393.11.214.935M364.207 393.265l-6.853.073-.374-.08-.376-.148" clip-path="url(#pcacf642f8b)" style="fill:none;stroke:#000"/><path d="m355.449 391.891.593.667.562.552M357.412 359.412l-.197.433M363.47 363.075l1.495-1.684.012-.141-.526-.636-.687-.134-6.352-1.068M357.825 356.049l-.01.558-.081.473-.322 2.332M622.62 320.555l3.102-.125 1.318-.03 2.133.131 1.426.295 1.353.32 1.756.559 1.477.707 2.084 1.297M357.825 356.049l-1.398-3.84M357.825 356.049l2.953.367M350.264 347.092l-1.096-1.612M348.327 347.44l.36-.014 1.577-.334M351.487 348.043l-.657-.405-.566-.546M349.168 345.48l-.84 1.96M349.168 345.48l.804-1.775M348.327 347.44l-2.448.168M341.78 347.733l3.118-.047M341.78 347.733l-.1-3.873M337.714 347.64l1.716.17 2.35-.077M337.714 347.64l3.54-3.762M337.714 347.64l-2.347 2.62M341.253 343.878l.428-.018M345.753 340.628l-.954.018-.238.086-.266.2-3.042 2.946" clip-path="url(#pcacf642f8b)" style="fill:none;stroke:#000"/><path d="m331.543 347.692 6.014-3.49 2.456-.56 1.24.236M349.972 343.705l-4.19.115M345.753 340.628l5.643-.107-1.424 3.184M345.753 340.628l.03 3.192M345.782 343.82l-4.101.04M345.782 343.82l.097 3.788M345.88 347.608l-.982.078M356.241 351.22l.186.99M356.241 351.22l-4.754-3.177M356.073 349.656l.2.33.083.403-.115.83M356.073 349.656l1.15-1.281M351.487 348.043l1.992.37.507.19 2.087 1.053M356.427 352.21l-8.818-3.027M344.898 347.686l1.594.356.609.133.346.175.172.21.055.274-.065.349M346.105 352.86l1.191-3.19.313-.487M366.086 357.284l-2.704-.448M360.778 356.416l2.604.42M362.484 351.676l-.098.955-.224.951-1.384 2.834M336.867 351.002l-.538-.244-.962-.499M331.543 347.692l1.767 1.264 1.262.858.795.445M352.78 388.681l.18.252M352.78 388.681l-.696-1.172M354.848 376.324l-.25 1.568-1.818 10.79M336.867 351.002l.603.5 1.143.436" clip-path="url(#pcacf642f8b)" style="fill:none;stroke:#000"/><path d="m338.826 351.487-1.09-.402-.87-.083M345.155 352.508l.95.352M346.105 352.86l1.424.484M346.105 352.86l-.505 1.237M345.6 354.097l-.07.36M345.6 354.097l-.575-.188-6.199-2.422M345.6 354.097l1.522.244M354.109 358.207l.123-.516M354.109 358.207l1.85 1.195 1.185.996M347.024 354.74l.43.088.88.207.503.135.58.218.632.312.688.393 1.253.813 2.119 1.3M357.144 360.398l-.012.7M357.144 360.398l.07-.553M347.122 354.34l-.098.4M347.529 353.344l-.176.35-.14.335-.091.312" clip-path="url(#pcacf642f8b)" style="fill:none;stroke:#000"/><path d="m354.232 357.691-1.557-.944-1.579-.982-.945-.554-.474-.211-.503-.164-.86-.236-1.192-.26M347.529 353.344l6.958 2.53.088.163-.343 1.654M357.215 359.845l-.88-.738-2.103-1.416M345.53 354.457l1.494.284M338.613 351.938l6.01 2.275.584.194.323.05M356.694 364.638l-.719 3.808M356.694 364.638l-3.515.08M357.132 361.098l-.055.615-.236 1.578-.147 1.347M362.31 366.297l-.177-.129-1.159-.474-4.28-1.056M354.541 371.688l.994.172M354.541 371.688l.014 2.55M354.352 368.606l.052.675.137 2.407M355.535 371.86l-.36 2.398M355.535 371.86l.44-3.414M358.465 371.963l-.582.047-2.348-.15M358.465 371.963l5.32-2.278M357.917 375.898l.503-2.684.045-1.251M363.785 369.685l5.6-2.502M362.31 366.297l.104.076.16.257 1.21 3.055M355.014 391.35l.435.541M355.014 391.35l-1.36-1.527M355.014 391.35l.958-6.816M357.917 375.898l-.367.356-.426 1.81-.629 3.264-.523 3.206" clip-path="url(#pcacf642f8b)" style="fill:none;stroke:#000"/><path d="m356.486 384.625.556-3.209.64-3.375.391-1.654-.156-.49M355.449 391.891l1.037-7.266M273.134 321.091l.442.943 2.108 2.155 1.24.639 1.457.479 1.048.142 2.001-.182 3.739-.685 1.923.28 5.8 2.572 3.03.59 2.09.392 2.863.382 2.837-.057 1.08.065 4.26 1.851 6.352 2.1 1.81.757 1.327.875 7.554 9.311 2.679 1.979 1.518 1.08 1.251.933M347.126 380.71l2.121 2.974M347.126 380.71l.01-.938.039-.69M346.654 379.101l.036.555.126.435.31.618M346.17 369.293l.226 4.96M346.17 369.293l.949-.027M346.17 369.293l-4.438.027M347.119 369.266l2.498-.182M347.119 369.266l.07 4.762M346.654 379.101l.52-.02M346.654 379.101l-.034-.982M347.175 379.081l.008-.97M347.175 379.081l2.722-.024M338.735 369.334l1.084-.005M336.642 374.38l.016-.486 2.077-4.56M341.542 364.761l-.398.08-.34.184-.323.344-.295.498-1.45 3.467M355.975 368.446l-1.623.16M339.819 369.329l1.913-.009M339.819 369.329l.398 4.992M340.217 374.321l.877-.008M340.217 374.321l-3.575.06M336.642 374.38l-.352.01M336.642 374.38l1.04 4.348M346.396 374.253l.224 3.866M346.396 374.253l.788-.008M346.396 374.253l-2.232.052M347.184 374.245l.005-.217M347.184 374.245v3.866M337.683 378.728l2.152-.18M338.4 381.63l-.026-.32-.691-2.582M344.333 378.232l-3.578.235M344.333 378.232l2.287-.113M344.333 378.232l-.17-3.927M344.333 378.232l.119 2.622M346.62 378.12l.563-.009M347.183 378.111l2.696-.021M352.342 378.05l-.258 9.459M352.342 378.05l-.01-1.766M352.342 378.05l-2.463.04M341.542 364.761l7.926.006M341.542 364.761l.19 4.56M349.468 364.767l.149 4.317M353.179 364.717l-2.954.038-.757.012M349.617 369.084l.156 4.911M353.546 368.682l-3.15.328-.78.074M349.879 378.09l-.103-3.898M349.879 378.09l.018.967M349.972 384.684l.522.698M349.972 384.684l-.725-1M349.897 379.057l.064 1.944.011 3.683M353.179 364.717l.367 3.965M353.546 368.682l.806-.076M349.776 374.192l-.003-.197M349.776 374.192l2.565.007M355.176 374.258l-.328 2.066M355.176 374.258l-.621-.02M354.555 374.238l-2.214-.039M352.34 374.2l-.008 2.084M352.084 387.509l-1.59-2.127M341.094 374.313l3.07-.008M341.094 374.313l-.34 4.154M340.755 378.467l-.92.08M343.694 385.254l5.553-1.57M343.694 385.254l-.471 2.516M344.452 380.854l.015.45-.111.716-.662 3.234M350.494 385.382l-1.723 3.176M348.771 388.558l4.188.375M348.771 388.558l-.402-.04" clip-path="url(#pcacf642f8b)" style="fill:none;stroke:#000"/><path d="m339.956 387.213 1.549-3.254.123-.152h.176l.474.22.176.033.141-.135 1.196-2.35.158-.253.503-.468M339.956 387.213l3.267.557M339.956 387.213l-3.508-.495M336.448 386.718l-.442.508M337.99 382.866l-1.428 3.633-.114.22M353.187 389.249l.466.574M353.187 389.249l-.228-.316M353.187 389.249l-.987 4.573M334.882 387.568l-.487.333M334.882 387.568l-.057.166.002.163M335.508 387.32l-.181-.023-.179.039-.154.093-.112.139M335.882 387.86l.124-.634M335.882 387.86l-.012-.174-.074-.16-.126-.128-.162-.079M335.614 388.255l.133-.1.092-.137.043-.157M335.124 388.272l.162.046.17-.006.158-.057M335.614 388.255l-.432.432M335.508 387.32l.498-.094M335.124 388.272l.058.415M334.827 387.897l.055.154.103.13.139.091M334.827 387.897l-.432.004M334.395 387.901l-.544.31M334.16 390.144l.651-.8.371-.657M338.4 381.63l1.435-3.083M337.99 382.866l.147-.373.202-.584.062-.279M343.223 387.77l-.382 2.319M343.223 387.77l5.146.748M342.841 390.089l-.36 2.269M342.841 390.089l5.075.859M347.916 390.948l-.527 2.468M347.916 390.948l.453-2.43M347.389 393.416l4.811.406M342.48 392.358l3.53.841 1.379.217M340.898 399.588l.138-.207.352-.828.21-.947.882-5.248M352.2 393.822l-.75 2.224M327.725 388.651l1.038 2.396M320.948 396.648l-2.095-2.156v-.153l1.238-1.237.257-.13.367-.176.368-.189.367-.223.502-.483 1.654-1.272.477-.294 3.642-1.684M333.85 388.21l-1.153-1.569-4.972 2.01M333.85 388.21l-2.285 1.561-.45.257-2.352 1.02M321.768 395.87l3.19-3.025.255-.207.32-.195 2.333-1.026.897-.37M334.16 390.144l.905 1.495M323.717 397.314l4.876-3.317.253-.108.211-.07.235-.068.843-.616.259-.22.295-.175 1.407-.623.985-.77 1.08-1.203M335.065 391.639l1.318 1.454M335.065 391.639l-1.523 3.914M321.768 395.87l1.95 1.444M321.768 395.87l-.629.596M323.717 397.314l-.792.632M320.948 396.648l.191-.182M319.196 398.397l1.461-1.474.29-.275M321.14 396.466l1.785 1.48M319.196 398.397l.059 1.212.522.408.376-.058 2.772-2.013M265.933 479.554l1.694-1.346 2.341-2.37 2.993-3.036 2.536-2.979 2.068-2.43.566-.929.341-.948.265-1.455.031-.786-.01-.864.06-1.14.061-.903.283-.796.425-.697 1.011-1.502 1.174-1.423 3.244-5.411 2.13-3.828.755-1.195.41-.738.313-.676.08-.653-.008-.57-.113-.564-.31-.979-.603-1.134-.606-.765-1.171-.951-.86-.589-.36-.348-.21-.43-.065-.424.117-.538.28-.678.289-.741.371-1.596.186-1.286.22-1.472.007-.614-.133-.346-.442-.44-.488-.423-.464-.508-.218-.35-.12-.543-.029-.748.02-.98.113-1.954.11-1.414.014-.955-.083-.614-.126-.87-.297-1.025-.374-1.632-.293-.916-.486-1.259-.097-.425v-.573l.087-.513.16-.404.222-.425.384-.464.596-.56 1.292-.9.782-.622.654-.63.473-.446.31-.23.413-.216.444-.117.711-.047 4.433.362 4.335.376 3.87.008 2.141.022 1.28.125 1.096-.054.965-.143.78-.232.557-.374 2.023-2.106.947-.964 1.02-.839.855-.66.686-.393.539-.267.501-.34.353-.393.687-1.07.76-.803 1.003-.75.464-.393.898-.936M357.132 361.098l4.416.74.306.095 1.617 1.142" clip-path="url(#pcacf642f8b)" style="fill:none;stroke:#000"/><path d="m362.31 366.297.463-.375.208-.292.275-.356.202-.41.013-1.79M355.753 402.858l2.403-.402M355.753 402.858l.933 5.803M355.753 402.858l-.572-3.37M371.464 400.29l-2.109.302M371.464 400.29l-1.248 4.819M372.815 393.942l-.437 2.214-.914 4.134M350.287 409.77l4.167-.709M350.287 409.77l.121 5.71M350.287 409.77l.034-2.471M369.779 406.572l-1.465 4.097M369.779 406.572l.437-1.463M369.779 406.572l-2.172.338M348.658 415.88l1.75-.4M367.66 412.565l-2.011.235M367.66 412.565l.654-1.896M366.143 415.35l.62-.964.345-.647.23-.41.321-.764M354.79 414.55l2.796-.578M354.79 414.55l-.388.083M354.79 414.55l-.336-5.489M362.914 413.149l2.735-.35M362.914 413.149l-2.918.435M362.914 413.149l.967 6.012M362.914 413.149l-.91-5.359M358.927 421.44l2.435-.454M358.927 421.44l.271 1.538M358.927 421.44l-1.341-7.468M350.515 400.042l3.218-.36M350.515 400.042l-.027.551M351.45 396.046l-.45 1.769-.485 2.227M355.181 399.488l-1.448.193M355.181 399.488l-1.528-9.665M355.181 399.488l2.42-.354M347.152 400.696l.249-.087M347.152 400.696l-2.501 1.763M344.874 400.194l.652-.09.455-.03.275-.004.341.014.184.123.228.219.143.27M347.4 400.61l3.088-.017M347.26 406.824l.153-.688-.012-5.527M350.488 400.593l-.167 6.706M341.113 405.857l-.24-.82M340.873 405.037l-.431.294-.393.305-.537.453 1.601-.232M341.113 405.857l3.666.53M350.321 407.299l-3.06-.475M365.28 394.07l3.915-.071M365.28 394.07l.101 7.193M365.28 394.07l-.008-.826M369.195 393.999l3.62-.057M369.195 393.999l.16 6.593M372.815 393.942l.122-.687M358.156 402.456l2.8-.441M358.156 402.456l.932 5.804M358.156 402.456l-.314-1.866M359.088 408.26l.908 5.324M359.088 408.26l2.915-.47M359.088 408.26l-2.402.401M359.996 413.584l-2.41.388M359.996 413.584l1.366 7.402M363.881 419.16l-.444.76-.381.422-.399.242-.574.2-.72.202M356.686 408.661l.9 5.311M356.686 408.661l-2.232.4M360.956 402.015l2.816-.478M360.956 402.015l1.047 5.775M362.003 407.79l2.81-.458M363.881 419.16l2.262-3.81M363.772 401.537l1.61-.274M363.772 401.537l1.04 5.795M363.772 401.537l-.261-1.354M364.813 407.332l.836 5.468M364.813 407.332l2.794-.422M365.649 412.8l.494 2.55M366.503 401.061l2.852-.469M366.503 401.061l-1.122.202M366.503 401.061l1.104 5.85M367.607 406.91l.707 3.759M365.272 393.244l-1.065.02M372.937 393.255l-1.585-.086-6.08.075M370.216 405.109l-.303-.915-.126-.805-.432-2.797M417.948 401.208l-1.78 5.472-.69 1-.761.846-16.494 11.564-1.145.528-1.039.385-1.366-.02-1.6-.652-9.78-8.122-.863-.71-.755-.962-.813-1.375-.465-1.308-.372-1.291-.512-5.997-.178-1.095-.3-.911-.329-.836-.404-.736-.908-1.08-.81-.803-.907-.68-.77-.469-.63-.298-.688-.228-.652-.175M353.733 399.681l.721 9.38M350.408 415.48l2.427-.51M347.26 406.824l-2.48-.438M346.237 410.396l.353-1.58.317-1.068.354-.924M345.729 412.78l.175-.717.189-.93.144-.737" clip-path="url(#pcacf642f8b)" style="fill:none;stroke:#000"/><path d="m345.729 412.78 1.343.23.286-.037.108-.209.147-1.582-.083-.267-.148-.117-1.145-.402M340.336 460.365l-.873-4.349-.646-1.304-.646-1.635-.227-1.379-.032-3.82-.388-7.518v-3.039l.129-1.43.227-1.087 3.393-4.755.937-1.058 1.584-1.367.259-.404v-.28l-.711-1.335-.097-.466.064-.932.259-1.305-.13-.62-.937-2.238.582-.943.282-.754 1.065-2.437.657-1.928.216-.52.224-.338.202-.344M340.873 405.037l3.778-2.578M342.645 400.878l-.143.315-.165.341-.848 1.476-.62 1.015-.202.374-.118.168.324.47M344.65 402.46l.13 3.926M340.898 399.588l1.747 1.29M339.578 401.305l.667-.74.653-.977M344.874 400.194l-.663.223-.966.31-.6.15M344.874 400.194l.52-.6.474-.37.691-.285.869-.17.632-.186.291-.202 1.277-1.274.21-.124.63-.202.195-.093.786-.642M357.842 400.59l-.241-1.456M357.842 400.59l5.669-.407M363.51 400.183l-.54-3.305M357.326 397.363l.275 1.771M357.326 397.363l-.508-3.318M357.326 397.363l5.645-.485M362.97 396.878l-.4-2.82M362.57 394.057l-5.752-.012M364.207 393.265l-.26.385-.425.194-.951.213M492.527 336.532l-.9.577-8 5.276-2.332 1.586-1.643 1.35-1.35 1.352-3.094 3.86-3.184 4.258-1.74 2.276-1.659 1.683-.867.749-1.713 1.095-1.573.773-1.4.462-1.229.295-.982.152-.957.081-1.215.007-1.112-.069-1.002-.14-2.472-.326-1.31-.108-.855.04-1.067.177-.772.239-.933.304-.873.435-1.252.948-3.45 2.758-9.47 7.714-2.763 2.426-1.237 1.326-1.22 1.528-1.139 1.766-.764 1.366-4.794 9.083-2.65 6.076-1.606 3.301M437.337 445.601l-.137-.303-.344-.47-.614-.481-1.786-.851-2.828-1.383-2.149-.667-1.213-.638-1.16-.6-.326-.15-.527-.33-.507-.45-.503-.515-.546-.745-.391-.723-.782-1.765-1.523-4.004-1.968-5.046-.789-2.704-.51-2.247.075-1.259v-.963l.291-.917.307-.793.323-.792 1.394-3.488 1.907-3.099 1.208-2.533-.147-2.674-1.144-2.33-1.235-1.154-3.765-.319M609.74 590.72l-1.018.195-1.697.527-.654.49-.905 1.11-.67.207-.259-.082-.214-.218-.392-.87-.34-.497-3.41-4.015-.75-1.025-1.528-2.688-.315-1.048-.46-.637-.21-.513v-1.025l.096-4.691.429-2.16 1.066-2.135.42-1.166.065-.862.315-.652.38-.373.824-.52.226-.265.485-.885.816-2.066-.032-1.002-.574-1.235-2.448-3.627-2.639-4.206-.884-1.51-1.05-1.687-2.384-3.44-3.943-7.752-3.487-5.701-.497-.668-6.092-7.123-4.032-4.078-7.563-5.352-.808-.908-4.759-5.632-1.866-2.594-.558-1.662-.396-.388-.46-.544-.226-.669-.17-1.024-.202-.451-1.665-2.913-.258-.218-.55-.31-1.438-1.328-.34-.475-.912-2.423-.437-2.276-1.228-3.464-.74-2.513-.722-1.55-.283-.073-.646.054-.473.17-.966.044-.755-.164-.901-.046-1.107.241-1.414.605-1.875.545-1.268.675-1.552 1.095-3.329 4.498-1.713 1.965-1.527 1.305-5.93 5.678-3.685 3.55-.679.411-2.618 1.018-.355.062-.67-.07-3.976-.83-2.214-.226-5.26-1.142-6-1.81-.642-.458-.412-.497-1.947-3.1-9.47-12.878-9.365-13.089-.493-.373-.905-.326-1.882-.544-2.958-1.118-2.117-.668-3.208-.567-1.405.008-.865.256-11.34 6.556-1.277.882-1.055.26-.783-.133-2.4-1.49-1.952-1.56-2.936-2.317-2.344-1.266-1.373-.948-.857-.45-.65-.19M437.337 445.601l.044.4-.02.435-.206 2.055-.17.967-.31 1.325-.207.504-.173.23-.134.123-.5.308-1.472.788-2.759 1.487-1.923.789-.67.373-.307.272-.126.214-.06.232-.06.727-.189 1.502.11.834.56 2.058.661.717.352.7.533.66 3.345 3.584 1.281 1.088 1.414 1.18.497.525M420.003 507.273l.247-.62 2.525-1.9 5.552-2.867.696-.38.371-.311.703-.606.72-1.064.913-1.437.75-1.414.47-1.119.71-1.84.622-2.012.348-1.383.542-2.354.646-2.073 2.044-5.48.347-1.162.235-.87.274-1.62.122-.818.048-.521.008-.237-.036-.222-.243-1.048-.351-1.457-.214-.846-.15-.454-.508-.8-.546-.68" clip-path="url(#pcacf642f8b)" style="fill:none;stroke:#000"/><path d="m444.358 452.46-.679-.621-.743-.684-.412-.52-1.341-1.802-.477-.505-2.125-1.776-1.244-.95M493.097 336.165l-.57.367M622.62 320.555l-.008.846-.17.459-.29.287-.756.346-1.762.466-1.725.26-.5.222-.57.388-2.283 1.822-1.168.439-2.092.376-3.176.268-3.482.23-1.317.299-1.475.314-1.131-.073-1.47-.198-1.047.14-.978.392-.533.427-1.309 1.402-.521.373-2.153 1.216-1.111.478-2.008.505-4.384.789-1.2.388-8.661 4.191-2.25.812-1.754.17-.347.214-.768.618-.893.388-.392-.186-.48-.315-2.032-.668-.863-.464-.798.01-3.745.36-.945-.326-.542-.28-.606-.147-2.529-.35h-2.202l-4.929.525-1.757.63-2.093 1.16-.727.7-.687.478-2.319 1.052-.638.132-1.155-.062-1.164-.249-1.463-.698-.428-.07-2.125.007-.606.109-1.09.357-.63.063-2.352-.055-.372-.155-1.422-.668-.445-.016-1.76.101-.332-.078-1.099-.823-.525-.077-1.664.062-.833-.086-1.856-.389-.35.008-.919.185-3.533.235-.412-.039-4.815-1.259-2.118-.1-.322-.233-1.81-1.446-.388-.108-.978.147-1.786.117-1.535-.179-4.096 1.166-.655-.055-.808-.388-2.101-1.279" clip-path="url(#pcacf642f8b)" style="fill:none;stroke:#000"/><path d="m531.967 308.377-.894.19-1.107.482-.687.513-.694.63-.639.792-.646 1.11-.97 1.994-.347.492-.45.466-1.498 1.088-3.506 2.339-7.014 4.552-12.427 8.01-7.991 5.13M591.35 272.714l1.334 1.919.888.917 1.026.714 3.33 2.883 1.05.893 1.074 1.484 1.98 3.123 2.165 3.97 1.956 3.768.275.59.8 1.422.775 1.655 1.01 1.46 1.083 2.222.525 1.158.364.622 1.212 1.46 2.876 3.193 2.893 3.146 1.236 1.298.235.357.25.754.848 2.936.388.816.566.901.242.715.404 1.522.17.668.315 1.275M531.967 308.377l.924-.198 4.258-.66 25.994-3.31 1.038-.096.829.003.625.054.562.133 1.22.427 1.123.644 13.575 8.313 5.922 3.48 1.56.777 2.375.964 1.875.613 2.262.63 2.57.512 2.003.288 2.368.186 1.68.016 4.413-.101 11.764-.45 1.713-.047M438.087 240.492l1.42-.082 2.096-.303.614-.031.38.008.84.147.776.117.808.047 1.479-.125.977-.14 1.964-.148.307.032.388.14 2.246 1.196 1.753.94.372.14.444.101h.477l.679.039.282.047.21.1.113.11.68 1.467.347.56.331.38.42.303 1.98 1.407.396.38.986 1.073.63.458 2.65 2.113 1.01.832 1.05.69 1.212.599.93.435 1.753 1.088 2.23 1.212 1.066.52.38.117.364.023.857-.03 1.058.046.776.101h.485l.492-.062 1.131-.28.647-.264.396-.163.331-.086.356-.054.517-.078.678-.03.502.03.476.101 1.188.552.331.194.356.318.945 1.259.582.808.323.474M438.072 240.379l.015.113M503.197 182.807l-.986.319-.65.132-.707.163-.348.268-.512.618-.453.517-.566.357-.404.151-.508.082-.57-.047-.962-.135-1.163-.04-.663.117-.416.152-.566.326-.553.377-1.608 1.469-.752.481-.63.459-.679.613-2.634 2.595-2.294 1.95-.63.506-.566.497-.372.45-.921 1.251-.768 1.01-3.442 3.341-1.139 1.197-.275.28-.21.318-.986 1.243-.5.45-.47.342-.411.187-.655.202-1.252.466-.848.42-.711.512-.291.273-.905 1.103-.574.528-.646.56-.396.341-.307.42-1.996 3.255-.42.42-.623.435-1.551 1.072-.743.707-.695.8-.46.676-.38.754-.526.621-1.123 1.274-.541.49-.533.318-.453.241-.348.241-.177.171-.182.245-.214.338-.453.924-.274.373-.954 1.01-.533.754-.468.847-.267.361-.396.447-1.487 1.282-1.325 1.266-.735.707-.768.933-1.083 1.258-.622.56-2.06 1.709-1.447 1.336-2.504 1.942-.521.385-.789.649-.654.691-.416.564-.194.264-.311.43M398.997 151.895l1.373.191 1.358.218 1.293.295 1.438.357 1.148.342 1.357.326.776.264.371.203.323.403.437.793 1.034 1.927 2.004 3.636 1.567 2.673.566 1.259.226.916.178 1.12.42 1.211.55 1.446.743 1.336.356.84.436.931.226.808.162 1.01.065.918-.033 1.46.049 2.144-.065 4.818-.032 4.444.032 1.771.081 2.58-.049 9.4-.145 1.773-.049 1.072.065 1.352.21 1.615.21.871.162.326.339.42 1.907 1.942.372.575.323.808.662 2.688.243.855.468 1.196 2.877 6.387 1.002 2.097 2.876 4.305 2.069 2.47 5.834 6.294 1.034 1.001.137.18.089.217" clip-path="url(#pcacf642f8b)" style="fill:none;stroke:#000"/><path d="m430.606 251.932.517-.816 1.342-2.051.872-1.103.743-.614.63-.505 1.673-1.049.744-.7.476-.598.412-.901.154-.948.08-.901-.162-1.254M526.2 257.848l-.201.773-.55 2.494-.129 1.281.065 1.314.258 4.817-.073 1.071.073.832.187.621.759 1.6 1.543 3.28 1.002 2.004 2.78 4.8.242.576.259.87.29 2.408.13 2.113.048.668-.048.824-.372 1.383-.227 1.305-.484 3.838-.097.855-.04.48.024.226.105.218.242.295 1.204 1.166.145.178.097.257.097.466.356 1.25.113.52-.008.452-.04.63-.348 1.677-.396 1.088-.42.691-.82 1.208M539.557 150.262l3.168 6.682-.324 1.306-1.034 2.269-1.26 1.305-3.524 2.766-3.845 2.02-2.263.093-4.395 2.612-1.228 1.025-1.293 1.306-1.422 1.087-.194.249-2.877 2.113-2.197 2.052-.388.248-.711.218-1.39.062-1.455.249-2.262.653-1.357.87-1.455 1.305-.694.789-.744.264-1.075.365-1.373.358-.768.28" clip-path="url(#pcacf642f8b)" style="fill:none;stroke:#000"/><path d="m526.2 257.848.154-2.707-.04-.871-.145-.769-.405-2.261-.274-.769-.428-.505-1.14-.59-1.357-.506-1.35-.295-1.187-.582-.671-.397-.5-.551-.623-.925-.88-1.608-.485-1.18-.905-3.046-.881-2.33-.404-1.555-.315-1.686-.453-2.47-.032-.77.08-.77-.112-1.483-.033-.878.113-.816.05-.481-.042-.428-.307-1.538.008-.365.081-.357.3-.513.436-.878.226-.925.12-1.53.607-3.613.186-3.116.008-.924.073-.544.557-1.896.194-1.328-.016-.35-.097-.295-.145-.311-.437-.567-.258-.49-1.406-3.162-.849-2.4-.646-1.523-.21-.809-.534-1.484-.67-3.006-.356-1.469-.298-.963-.097-.443-.009-.365.049-.373.121-.481.267-.482.057-.288-.041-.373-.089-.217-.154-.202-.339-.187-.186-.287-.129-.358-.04-.536-.009-.614.017-.497-.114-.264-.218-.148-.178-.054-.427.031-.445.039-.832-.023-.663-.094-.662-.24-.413-.257-.33-.365-.59-.777-.397-.652-.258-.234-.445-.326-.751-.389M430.606 251.932l1.576.388 1.697.637 3.587 1.663.347.248.186.365.113.373.09.536-.05.358-.258.482-.694.816-1.132 1.289-.557.77-.218.426-.017.194.033.164.145.163.242.116 1.528.529.395.109h.259l.275-.016.428-.132.72-.295.468-.04.93-.07.363-.077.234-.14.905-.738 1.406-.924.525-.513.307-.42.493-.83.396-.475.153-.085.485-.148 1.6-.334.307-.17.695-.444.954-.784 1.211-1.53.59-.77.234-.194.736-.288 1.455-.497.524-.07.55-.015.355.054 1.01.257 1.148.178.646.195.638.395 2.643 1.88 1.002.855.59.575.557.451.412.303.598.342.962.513.573.442.356.451.185.427.04.482-.112.831-.146 1.111-.242.692-.509 1.647-.388 2.253" clip-path="url(#pcacf642f8b)" style="fill:none;stroke:#000"/><path d="m357.223 348.375 1.31-1.46.23-.368.278-.468.305-.665.744-1.72.647-1.828.914-3.475 1.859-3.79 1.001-1.399 1.164-1.057 1.81-1.817.985-1.228 1.1-2.33.775-2.548.13-1.958-.194-4.413.113-.855.517-1.336.404-1.693.323-.979.534-.933.322-.776 1.148-1.305.679-.606.679-.28 1.18-.373.807-.45.889-.933 1.648-1.802.744-.668.808-.606 1.244-1.181 1.18-1.46.565-1.026.34-1.212.727-1.352 1.147-2.906.469-.823 1.906-3.698.55-1.18.226-.39.259-.232 1.244-.451 1.156-.404 1.074-.497 1.245-.668 1.18-.793 1.227-.761 3.361-1.305 1.302-.544 1.074-.423.873-.19 1.785-.32.68-.318.759-.583 1.349-1.538.469-.513.404-.217.299-.039.331.023 1.22.163 1.188-.07.913-.155 1.22-.481 1.422-.73 1.632-1.166 1.31-.831 1.567-1.049.8-.754.662-.746.776-1.662.921-1.989.307-1.352.097-1.188-.073-1.205.024-.396.178-.45.542-.824.55-1.01.225-.505.106-.497-.009-.575.024-.319.138-.42.388-.683 1.22-2.175.8-1.663.404-.77.856-1.273.889-1.274.808-1.274M488.75 268.515l.424-.152.428-.077.626-.055.78-.116.174-.039.234-.128.925-.762.514-.307.75-.384.296-.128.259-.07.594-.113.331-.082.29-.135 1.641-.87 1.042-.606.214-.144.287-.214.627-.618.67-.687.715-.672.582-.598.243-.214.387-.245.683-.28 1.273-.59.303-.132.282-.055.804-.057.433-.098.48-.237 1.014-.575.392-.357.42-.423.263-.183.424-.171.485-.12 1.131-.128 1.568-.171.884-.082.853-.082.869-.147 1.228-.183.577-.081 1.18-.12.921-.086.727-.035.27.031.805.245.582.1.347.051.453.011 1.587-.127h.344l.558.05.973.268 1.305.513M488.152 312.863l-.113 1.181-.129.793-.081.668-.016.777.113 1.274.29 2.237.138.847.08.552-.031.474-.106.435-.54.722-.251.311-.121.481-.065.653.024.746.145.792.102.175.222.214.508.481.704.606.323.412.307.56.954 2.594.444 1.818.703 2.743.137.388.634.735M362.62 350.34l-.136 1.336M358.265 348.436l.187-.567.266-.373.457-.306.654-.106 2.347.21.436.233.243.493-.234 2.32" clip-path="url(#pcacf642f8b)" style="fill:none;stroke:#000"/><path d="m358.265 348.436.356.913.4.411.408.199 3.192.38M358.265 348.436l-1.042-.061M338.826 351.487l-.213.45M356.486 384.625l-.514-.091M268.068 309.352l1.325 2.875 1.438 3.154 2.303 5.71M189.66 544.32l9.584-11.824M179.931 556.283l.873-1.048 5.268-6.037.29-.3.26-.322 1.422-1.833.71-.808.195-.3.71-1.315" clip-path="url(#pcacf642f8b)" style="fill:none;stroke:#000"/><path d="m145.963 552.408 1.713-1.119 1.422-.528 8.694-2.423 3.232-.03 5.107-.964 10.406-.062.97-.28 2.004-1.21 1.164-.467 5.235-.28 3.75-.725M314.028 587.883l6.463-5.374 1.39-.839 2.424-.87 1.907-.373 1.584-.062 2.489.093.936-.186 2.069-.808 5.785-2.982 3.232-2.081 5.753-4.41 3.717-2.797 1.293-1.149 1.164-1.243.904-1.491.55-.59 2.1-1.522 2.554-.155 1.1-.218 2.39-1.398 2.877-2.112.162-.093 5.026-2.216 4.54-2.454 3.168-2.128 4.654-2.742 3.62-2.812 2.812-1.639 3.191-1.305 7.54-2.625 2.512-.917 2.424-1.693 3.49-1.53 5.98-.986 1.834-.59 1.85-1.438 1.746-1.942 1.478-1.631 2.33-1.782" clip-path="url(#pcacf642f8b)" style="fill:none;stroke:#000"/><path d="m420.003 507.273-.595 1.49-.037 2.57 1.39 5.135 2.526 6.087.842 1.76.937 2.478M377.884 490.685l.561.09 2.162.676 2.432.14 2.161.434 1.055.09.408.163.586.598.816 1.615.634.758.872.29 1.447.359 1.64.68.966.562 3.094.792 1.063.392 1.515.642 1.373.271 1.14.144 1.139.361.873.342 1.511.093 3.393.334 3.83.237 3.196.105.767.28.704.823 1.264 2.897 1.517 2.42M252.691 486.192l2.958-1.666 5.285-2.556 5-2.416" clip-path="url(#pcacf642f8b)" style="fill:none;stroke:#000"/><path d="m279.758 489.824-.387.02-.53-.02-.529-.137-1.058-.45-1.06-.686-.915-.371-.815-.372-.712-.41-.896-.588-.876-.783-.875-.998-.937-.999-1.792-1.664-1.425-1.566-1.018-1.246M238.16 491.725l-1.079.358-4.072 1.772-3.943 2.36-4.105 2.347M199.244 532.496l3.934-4.853.557-1.468.219-1.396.109-.893.088-.874.236-.946.5-1.024.61-.892.997-1.166.878-.731 1.203-.77 3.447-1.525 1.288-.665.822-.575 1.19-1.514 2.634-3.099 1.454-1.803 1.128-1.685.714-1.375 1.083-2.727 1.22-2.29 1.406-1.663M217.196 491.65l2.166 1.585 1.26 1.274 1.455 1.46 1.487 1.305 1.397 1.288M340.336 460.365l.194.574.872 1.492.42.916.291 1.198.033.745-.259.995-2.327 2.952-1.002 1.69-.226.61-.064.653.258 2.175.064 1.967-.516 3.098.031.84.388 2.026.324.894 2.618 3.517.55 1.052 1.55 3.64.55.741 1.422 1.153.582.9.808 1.677.581.497 1.907 1.244 1.358 1.46 1.745 1.118 1.713 1.491.452.249.55.125h1.648l.905.217.744.372 2.068 1.46 2.392.995 1.066.561.938.808 2.1 2.265.615.408.581.244.615.124 1.583.063.808.16 2.489 1.486 1.907 3.2M293.568 554.737l6.174 3.884.258.403v.404l-1.066.901-.388.56.032.434.55.466 2.068.466.97.342 1.422.741 1.422.932.517.47.161.373.194 1.025.194 2.485.324.837.323.405.646.31 1.002.219 3.265-.001.517.125 2.1 1.398.776.714.226.404.065.497-.259.995-.097.87.065 1.43-.13.558-1.712 2.298-.29.994 1.13 7.207M117.153 175.194l-.705.267-2.204.879-2.463.941-2.544.888-1.457.588-.95.532-1.728 1.528M100.73 177.71l.146.514.194.636.146.497.306.451.34.389.372.28.436.186.84.11.857.045h.735M293.568 554.737l-1.26-.46-1.034-1.341-2.585-.91-.615-.488-4.848-6.66.13-2.007-.744-2.89-.711-.697-1.196-.327-1.39-.217-.84.062-1.551.327-.744-.048-1.454-.341-2.747-.84-2.586-.155-2.392-.885-1.841-.978-.776-.606-1.002-1.072-.873-1.211-.355-.918-.162-1.244-.162-.186-.323-.107-1.648-.092-.938-.33-5.59-3.014-.292-.446-.161-.901-.162-2.32.032-.621.227-.808.905-1.221 1.196-1.203.323-.218 1.26-1.492 1.422-1.119 1.26-.808.291-.372.097-.38-.387-1.858-.808-2.921-.453-.715-1.745-1.834-.355-.807.581-2.365.71-2.297.098-1.989-.097-.466-2.553-4.784-.743-1.864-.453-1.522-3.319-4.186M252.691 486.192l-1.413.796-1.073.597" clip-path="url(#pcacf642f8b)" style="fill:none;stroke:#000"/><path d="m238.16 491.725 3.236-1.07 4.5-1.679 3.08-.707 1.23-.684M179.79 175.218l-1.701.031-1.26-.28-1.584-.745-1.616-1.243-1.164-1.113-1.405-1.498-1.681-1.756-2.02-2.113-3.523-3.62-4.687-4.134-1.39-.777-2.035-.373-6.077-.155-1.68-.156h-1.164l-.71.156-1.294.56-8.726 5.251-4.55 2.139M117.153 175.194l.432-.162 1.4-.604 1.167-.565.95-.64 1.093-1.014.895-.559 1.787-.994.794-.546 1.258-1.216 1.014-.944.728-.719 1.348-.895 1.503-.944M130.675 564.025l1.552-.435M132.227 563.59l.323-.403 3.264-2.827 1.81-1.988 2.521-2.175 4.33-3.199 1.488-.59M132.227 563.59l1.648.28 1.874-.434 1.649-1.088 1.325-1.646 2.877-3.014 4.266-4.783.097-.497M340.336 460.365l-.905.298-.323 3.884-2.004 1.305-.194 2.796-.97 1.989-2.52 3.293-2.263 3.791-2.844 10.564.226 4.17-.452.339-.356.838-.614 4.538-1.164 5.158-1.196 4.316-.872 4.044-.323 2.946-.324.752-.517 2.953-1.68 5.811-.259 2.082-.388 1.79.033.995.226.28-.29 4.224-.356 1.18-1.26 1.523-3.2 3.044-.195.28-3.652 5.156-2.068 2.02-3.006 2.267-3.264 1.957-9.794 3.79" clip-path="url(#pcacf642f8b)" style="fill:none;stroke:#000"/><path d="m268.068 309.352-2.084-4.381-7.15-16.352-1.582-2.436-.88-1.986-1.274-2.287-11.138-13.23-7.824-8.81-1.297-1.734-1.909-4.349-6.403-14.567-2.892-6.596-.772-1.054-3.34-2.659-.696-1.22-.109-.985-.125-1.315-.232-.488-.389-.526-4.417-4.28-2.653-3.01-2.095-3.367-8.677-11.034-1.908-1.403-2.116-.66-1.193-.95-6.314-8.784-4.762-5.196-1.158-2.017-2.89-8.458M178.27 168.058l.053.857.04.746.187 1.158.436 1.616.295.994.258 1.131.25.658M392.509 140.812l1.672 5.722 1.422 3.574.646.715.663.377 2.085.695M357.789 175.14l3.781.187 7.11.994 1.261.25h.905l2.069-.156 3.102-1.71 3.103-1.149.808-.528.679-1.306 1.228-3.138 1.228-2.331.437-1.134.662-2.409 1.535-2.098.566-.648.5-.48 1.003-.799 1.034-.771.792-.498 1.115-.762.679-.595.824-.528.953-.368.76-.253.937-.12 1.358-.176.582-.197.549-.326.34-.41.694-.942.614-.844M330.479 153.604h.387l8.112-5.718.905-.932.324-.435.581-.497 1.1-.591.613-.187.518.062.872.373 2.618 1.803.518.062 1.195-.373 1.164-.155h1.292l1.067.187 2.521.776.678.342 1.617 1.181 1.551.746 1.131.248.614-.092 2.263-2.953 1.357-1.243 5.43-5.532 1.52-.932 5.138-1.803 1.228-.155 1.422.062 14.294 2.964M230.286 141.189l-1.454 1.864-4.429 3.48-1.066.654-.646.248-3.49.59-.712.436-1.067 1.398-.323.249-3.005 1.398-1.1.373-2.52.498-1.035.092-1.422-.062-.42.125-.581.31-1.164 1.057-1.099.808-1.131.497-1.875.56-1.39.249-3.62-.218-.678.218-.323.186-1.713 1.927-2.521 2.455-1.39.622-2.52.87-.583.31-2.133.808-.743.529-.873 1.373-.703.978-.38.29-.371.161-.76.241-.67.319-1.091.582-1.015.394M223.402 133.951l1.664 1.725 1.358 1.243.985.87.921.809.68.714.516.778.76 1.099M354.848 376.324l-2.516-.04M362.484 351.676l3.081 1.387M366.675 351.112l-1.11 1.95M363.382 356.836l2.183-3.773M347.19 374.028l2.583-.033M354.402 414.633l-1.567.336M354.402 414.633l1.716 8.327M352.835 414.97l1.523 7.783M333.037 380.074l1.773.905.774.49.627.498.686.453 1.093.446M274.241 307.092l-2.1.683-2.457.529-1.616 1.048M106.775 163.508l-.033.87.033.947.129 1.042.145 1.056.275.731.614.932 1.309 1.989.598 1.477.34.699.339.482.371.357.388.202.323.015 1.196.047.55.047.76.046.824.187.791.248 1.426.312M318.65 136.387l-.033.529 1.164 2.952.032.622-.162 1.77-.776 3.886-.452 1.087-.517.87-1.907 2.082-1.1.746-2.035.995-.162.187 3.717 3.263" clip-path="url(#pcacf642f8b)" style="fill:none;stroke:#000"/><path d="m330.479 153.604.097-.497 1.227-1.46 2.554-4.289.097-.87-.259-1.803.065-2.237-.226-.716-.55-.932-.679-.683-.646-.405-3.878-1.74-1.26-.435-.647-.093-.97.031-1.164-.497-3.554-.218-2.037-.373M313.898 180.486l.937-1.771.097-2.02-.613-2.921.097-2.611.549-1.088 1.486-2.051.84-2.486.389-.808.775-.777 2.942-1.523 3.005-2.393 2.23-1.523.776-.248 1.842-.155.582-.746.226-.498.033-.466-.323-1.616.096-.497.615-.684M199.244 532.496l2.662 1.206 3.502 1.448 3.686 1.448 2.422.92 1.935.724.794.47.488.43.265.549.122.743.041.764.04.861.245.803.326.958.57.96.265.489.183.665.081.725.163.43.387.666.204.705.264.958.082 1.273.346.998.448.802.407.509.285.216.51.215.732.254.672.274.59.274.57.372.428.372.672.646.651.606.55.568M199.244 532.496l-2.346-2.356M238.16 491.725l-.65-.446-.773-.391-.875-.51-.856-.508-.672-.509-.61-.45M252.691 486.192l-.236-.811-.224-.764-.448-.92-.59-.685-.571-.41-.794-.236-1.072-.207-.862-.419-.916-.528-1.894-1.214-.835-.685-.468-.509-.326-.45-.162-.646.04-.372.285-.528.245-.529.02-.587-.082-.353-.406-.41-.449-.333-.63-.293-.632-.216-.448-.196-.387-.391" clip-path="url(#pcacf642f8b)" style="fill:none;stroke:#000"/></g><path id="PatchCollection_1" d="m345.09 358.44.156-.158.07-.102.278-.464-.223-.268.167-.285.409-.018.018.142.223-.089-.056-.285.167-.303.335-.286.408-.393.279.072h.37l.576.41.445.197.483.178.297-.125.353-.179.241.197v.303l.075.34.408.124.65.018.24.214.298.286.612.16.446.268.446.393.12.66.768.678.96.963.618.554.618.328.512.164 1.542-.085 1.498.158.15.29-.375 1.05-.511.28-.687-.153-.983-.429-.895-.188-.678.143-.916.123-.662.144-.554-.329-.473-.318-.03-.613-.27-.546-.245-.355-.192-.318-.361-.241-.268-.336-.408-.29-.312-.14-.789.123-.426-.164-.512-.533-.235-.39-.362-.04-.512.164-1.164.58-.81.129-.615.035-.803-.097-.68-.192-.435.081-.44.243-1.002.123-.213.266-.15-.164v-.369l.107-.246-.388-.195.21-.42.457-.317.638.666.298-.062.363-.184.299.04.106-.184.213-.205v-.225l.214-.062.192.225v.205l.34.041.065-.225z" clip-path="url(#pcacf642f8b)" style="fill:#00f;fill-opacity:.8"/><g id="PatchCollection_2"><path d="m344.63 374.608 1.536-.05.113 3.195-1.535.051zM347.888 353.64l-.101.026-.05.052-.253.544 1.696.378.758.291.727.389 1.03.573.838.524.819.495.636.418.282-1.321zM346.659 374.485l.365-.007.031 3.349-.227.012zM346.667 373.982l.33-.006-.053-4.315-.483.014zM339.42 378.714l-.888 1.902-.308-1.505-.017-.152.105-.127zM353.778 365.004l2.585-.097-.484 3.204-1.98.213zM354.71 371.903l.51.084-.2 2.039-.343-.018zM349.26 388.296l3.214.358-1.964-2.678z" clip-path="url(#pcacf642f8b)" style="fill:green;fill-opacity:.8"/></g><g id="PatchCollection_3"><path d="m343.162 360.628-.016 3.173 5.81.028.015-3.174zM349.567 364.01h1.654l-.001-2.286h-1.655z" clip-path="url(#pcacf642f8b)" style="fill:#90ee90;fill-opacity:.8"/></g></g></g><defs><clipPath id="pcacf642f8b"><path d="M90 124.765h558v477.669H90z"/></clipPath></defs></svg>