<svg xmlns="http://www.w3.org/2000/svg" width="960" height="960" viewBox="0 0 720 720"><defs><style>*{stroke-linejoin:round;stroke-linecap:butt}</style></defs><g id="figure_1"><path id="patch_1" d="M0 720h720V0H0z" style="fill:#fff"/><g id="axes_1"><path id="patch_2" d="M90 599.176h558V128.024H90z" style="fill:#fff"/><g id="LineCollection_1"><path d="m568.656 489.183 39.315-4.81 3.469.118 2.925.348" clip-path="url(#p2f45d7e63e)" style="fill:none;stroke:#000"/><path d="m627.515 360.348-.038.386-2.518 17.984-3.647 28.073-1.626 12.402-2.495 19.133-2.194 17.439-2.1 18.028.079 2.284 1.01 5.52.379 3.242M375.77 437.481l7.17 2.847M375.77 437.481l-2.58-.928M375.77 437.481l-1.31.854M378.221 436.31l-.338.226-2.113.945M369.064 435.797l-.271-.325M369.064 435.797l1.17-.59M373.19 436.553l-3.746-.533-.252-.106-.128-.117M369.064 435.797l-4.17 1.976M342.522 446.516l.773-1.24M342.522 446.516l2.463.454M342.522 446.516l-2.492.288M341.407 449.354l.057-.796.426-1.12.632-.922M340.03 446.804l-.107-.225M341.407 449.354l-1.058-1.889-.319-.66M344.985 446.97l-.579-.535M344.985 446.97l-.273 4.586M344.985 446.97l1.78-.753M344.508 454.986l.204-3.43M344.508 454.986l-.074 1.24M341.407 449.354l1.974 3.53 1.127 2.102M370.796 424.686l-4.285 1.958M380.186 425.748l1.578 3.378M380.186 425.748l-.252-.15-.26.025-5.475 2.462" clip-path="url(#p2f45d7e63e)" style="fill:none;stroke:#000"/><path d="m374.352 428.42 5.417-2.543.417-.129M366.058 426.876l2.013 4.012M366.058 426.876l.453-.232M366.058 426.876l-5.673 2.691M393.194 427.4l-9.773 4.688M393.194 427.4l-.348 4.639M396.686 432.085l.385-2.909.41-3.07.156-.837-4.443 2.13M392.812 424.1l.299 1.813.083 1.487M374.352 428.42l1.713 3.483M374.352 428.42l-.153-.335M374.352 428.42l-5.822 2.62M381.764 429.126l.175.341M381.764 429.126l-5.7 2.777M381.764 429.126l10.96-5.317M360.385 429.567l-.359.175M360.385 429.567l2.128 3.871M368.204 431.189l1.846 3.662M368.204 431.189l.326-.15M368.204 431.189l-5.503 2.626M368.204 431.189l-.133-.301M392.846 432.039l-7.677 3.586M392.846 432.039l3.84.046M390.433 440.953l1.868-5.238.366-1.255.179-2.421M383.421 432.088l1.748 3.537M383.421 432.088l-1.482-2.621M379.489 434.194l.186-.31 3.746-1.796M376.065 431.903l.155.308M376.065 431.903l-4.127 2.079M355.117 432.06l4.91-2.318M355.117 432.06l-1.45.753M358.261 435.541l-.812.364-2.332-3.846M362.7 433.815l-.187-.377M362.7 433.815l2.034 3.65M362.7 433.815l-.345.176M371.938 433.982l.155.32M371.938 433.982l-1.542.696M370.05 434.85l.183.357M370.05 434.85l-1.257.622M370.05 434.85l.346-.172M358.261 435.541l1.114 2.08M358.261 435.541l3.163-1.412M380.628 436.42l2.148.193.661-.178 1.732-.81M387.163 439.446l-.241-.553-1.753-3.268M378.221 436.31l2.407.11M378.221 436.31l1.268-2.116M380.628 436.42l-1.14-2.226M373.19 436.553l-1.097-2.25M373.19 436.553l-.306 2.578M359.375 437.62l1.124 1.855M359.375 437.62l-2.062.956M364.734 437.465l-.462.214M364.734 437.465l4.059-1.993M364.734 437.465l.16.308M360.5 439.475l.202.319M360.5 439.475l-2.18 1.092M360.5 439.475l3.772-1.796M390.433 440.953l-.44.75-.408.763M390.303 442.624l.076-.392.052-.489.002-.79M366.903 442.059l2.347 3.173M366.903 442.059l3.063-1.5M366.903 442.059l-3.43 1.747M343.737 444.625l.15-.314.657-1.478" clip-path="url(#p2f45d7e63e)" style="fill:none;stroke:#000"/><path d="m342.554 444.523.726-.654 1.264-1.036M351.322 433.994l-.486.324-.93.807-.598.611-4.764 7.097M389.183 442.807l-6.244-2.479M389.183 442.807l1.286.513M389.183 442.807l-.063.202.005.21.073.198.134.167.182.119M389.585 442.466l-.164.078-.137.116-.1.147M363.472 443.806l-2.77-4.012M368.194 449.112l-3.409-3.264-1.313-2.042M353.116 448.129l5.869-2.321 4.487-2.002M338.727 444.102l.131.272M207.848 318.88l1.996 1.46 4.11 1.346 6.975.415 13.41.103 3.73.644 3.731 1.066 10.273 3.937 14.059 5.802 4.851 2.797 3.422 2.902 5.136 5.801 23.79 27.58 2.22 3.163 4.255 8.685 2.507 5.343 26.414 54.178" clip-path="url(#p2f45d7e63e)" style="fill:none;stroke:#000"/><path d="m342.554 444.523-.646.021-.913.013-.981-.062-.704-.177-.583-.216M350.749 444.207l.186.308M350.749 444.207l-3.463 1.572-.521.438M350.749 444.207l7.57-3.64M342.554 444.523l-2.63 2.056M342.554 444.523l.741.753M374.437 445.137l-3.716 2.085M374.437 445.137l.022-6.802M379.457 450.937l-3.017-3.402-2.003-2.398M343.295 445.276l.442-.65M343.295 445.276l1.111 1.16M370.72 447.222l-2.526 1.89M370.72 447.222l4.754 6.427M370.72 447.222l-1.47-1.99M353.116 448.129l1.688 3.49M353.116 448.129l-4.462 1.82M353.116 448.129l-2.181-3.614M339.923 446.58l-.67.321-4.34 1.94M368.194 449.112l4.297 4.638M379.457 450.937l3.335-2.296M379.457 450.937l-3.983 2.712M379.457 450.937l1.758 2.003M379.457 450.937l1.444-4.398M354.804 451.62l-4.205 1.853M354.804 451.62l1.747 3.613M381.215 452.94l3.223-2.44M381.215 452.94l-3.985 3.084M381.215 452.94l1.942 2.232M375.774 457.138l1.456-1.114M350.599 453.473l-6.165 2.753M350.599 453.473l-1.945-3.525M350.599 453.473l1.804 3.577M375.474 453.649l1.756 2.375M383.157 455.172l3.193-2.512M383.157 455.172l-4.156 3.246M379 458.418l2.277 2.165 3.899-3.092-2.019-2.32M356.55 455.233l-4.147 1.817M354.12 460.452l3.687-1.924-1.256-3.295M377.23 456.024l1.77 2.394M344.434 456.226l-.264 4.453M352.403 457.05l-8.233 3.629M352.403 457.05l1.718 3.402M354.12 460.452l-10.21 4.6M344.17 460.679l-.26 4.374M396.686 432.085l-.31 4.094-.9 3.13-1.341 2.98M344.712 451.556l3.942-1.608M448.912 466.706l-25.16-10.15-27.349-10.744-5.934-2.492M390.47 443.32l.038-.183-.016-.188-.07-.175-.119-.15" clip-path="url(#p2f45d7e63e)" style="fill:none;stroke:#000"/><path d="m389.514 443.703.185.055.194.004.187-.047.167-.095.134-.134.088-.166M390.303 442.624l-.154-.111-.181-.066-.193-.017-.19.036M389.514 443.703l-.397.807M351.322 433.994l2.345-1.181M342.943 412.161l.49 1.772 2.452 6.742 3.35 8.758 2.087 4.561M360.026 429.742l2.137 3.862M362.355 433.99l1.917 3.69M362.355 433.99l-.192-.386M362.355 433.99l-.931.14M364.272 437.68l.157.308M366.511 426.644l1.847 4.096M368.53 431.04l-.172-.3M368.53 431.04l1.866 3.638M370.396 434.678l.197.342M372.884 439.131l1.425-.698.15-.098M382.792 448.641l1.646 1.86M382.792 448.641l-1.891-2.102M386.35 452.66l2.427 2.936M386.35 452.66l-1.912-2.16M389.117 444.51l-2.372 7.807-.395.343M369.966 440.559l1.42 2.631-.219.817-1.917 1.225M369.966 440.559l2.918-1.428M380.9 446.539l1.76-5.358M384.438 450.5l2.185-7.984M389.117 444.51l1.513.189.769.29.358.447.165.632-3.145 9.528M391.866 462l-3.106-4.451-.165-.553-.054-.684.236-.716M382.94 440.328l-.28.853M386.623 442.516l.57.19.948.65.976 1.154M386.623 442.516l-1.607-.537-2.356-.798M353.667 432.813l3.646 5.763M358.32 440.567l.182.352M358.32 440.567l-1.007-1.991M344.406 446.435l-.21-.479-.333-.756-.126-.575M339.923 446.58l-1.065-2.206M392.723 423.81l.089.29M391.662 418.456l.095.7.419 2.246.242 1.408.305 1M392.723 423.81l.376-.119M395.254 422.51l-2.155 1.181M394.374 417.802l.402 1.777.478 2.932M397.176 417.308l.49 2.429.325 1.502-.39.495-2.347.777M394.374 417.802l-.308-1.596-.229-1.58M391.662 418.456l-.583-3.315 2.758-.516M397.176 417.308l-.129-.957-.449-2.138-2.761.412M397.176 417.308l-2.802.494M394.374 417.802l-2.712.654M336.917 201.498l.161.525 1.161 1.399.75 1.52 1.476 3.071.253 1.006.007 1.233-.007 1.997.355 2.292.726 1.891 3.016 4.606 2.242 3.147.537 1.256.07.945-.268.892-1.24 2.096-1.736 2.443-.86 2.14-.356 2.02.064 1.914.592 2.314 1.073 2.481.26 1.777.111 2.322-.157 1.452-.798 2.55-.481 2.98-.095 5.347-.11 4.591-.135 3.215-.394 3.698-.703 6.059.063 1.27 1.097 4.917.497 1.081 1.516 3.73.3 1.715.474 7.92.576 5.4.284 1.24.53 2.685 1.278 5.272 1.5 8.107 1.705 4.674 1.942 3.101 5.526 7.548 2.755 3.358 1.705 1.785 3.126 4.296.592 1.27-.008 1.127-.545 1.18-.979.71-2.265.425-2.96.136-1.832.424-2.46 1.103-3.474 1.438-3.453 2.09-4.563 4.688-1.128 1.716-1.45 2.535-2.378 3.132-3.566 5.206-.77 2.16-.587 4.822-.095 3.799.787 4.357.896 3.5.87 3.122 2.143 8.103 2.863 10.342M517.97 311.616l-13.821 5.1-23.572 8.91-10.404 5.28-3.9 3.176-5.163 6.807-2.51 2.98-8.802 6.602-3.3 2.246-2.455.976-24.709 6.315-2.146.408-1.39.68-1.263 1.332-7.863 24.806-2.115 5.505-.648.984-1.183.408-4.547.121-8.905.242-20.335 5.263-13.388 7.684-12.608 4.72M374.2 428.085l-5.842 2.655M368.358 430.74l-.287.148M368.07 430.888l-5.557 2.55M362.513 433.438l-.35.166M362.163 433.604l-.74.525M393.099 423.691l-.287.408M381.94 429.467l10.872-5.368M381.94 429.467l-5.72 2.744M376.22 432.21l-4.127 2.092M372.093 434.302l-1.5.718M370.593 435.02l-.36.187M364.894 437.773l-.465.215M364.43 437.988l-3.728 1.806M360.702 439.794l-2.2 1.125M358.502 440.919l-7.567 3.596M346.765 446.217l.72-.148 3.45-1.554M564.88 489.645l-29.833 3.548-5.893.776-4.975-.207-6.434-.828-4.866-1.347-30.247-10.957-33.72-13.924M456.792 568.513l.174-1.067.007-1.338-.244-3.433-.418-1.05-.845-1.793-.143-.635-.22-3.062-1.287-18.564-1.12-15.336-.632-8.484-.474-6.261-1.721-23.283-1.137-13.59-.253-2.662.056-.476.377-.773M564.88 489.645l3.776-.462" clip-path="url(#p2f45d7e63e)" style="fill:none;stroke:#000"/><path d="m518.587 311.524 1.01.231 11.312 5.325 2.558 1.014 4.863 3.69 1.768 2.42 2.605 4.81 1.152 1.074 7.137 4.508 3.363 1.951 2.431 2.058.71 1.33 1.042 2.103 1.547 2.345 1.295 1.8 6.15 12.327 1.539 4.07.868.831 2.763 1.86 2.826 2.829 1.58 2.3 1.452 1.723 3.118 3.079 1.61 2.435 2.534 3.327 1.54 2.307.552 1.603.506 2.133 1.247 7.048 1.168 6.98.813 5.483.08 1.43-.49 4.394-2.4 7.79-2.384 6.745-.41 1.573-1.058 3.856-.837 4.175-3.253 11.101-2.754 8.516-1.493 3.116-3.244 3.478-2.029 2.957-2.826 4.477-1.602 3.221-1.714 3.736-.173.726-.64 5.498.13 4.143.33 2.195M518.587 311.524l-.616.092" clip-path="url(#p2f45d7e63e)" style="fill:none;stroke:#000"/><path d="m567.174 217.453-4.38 4.051-.206.204-2.897 2.878-.481.635-1.003 2.398-.371.545-1.69 1.391-.647.817-2.092 5.355-3.098 12.775-.88 4.78-.064 2.201.253 2.996-.079 4.19-.813 3.086-1.886 4.16-5.945 10.646-1.27 1.576-11.605 11.8-2.029 2.48-1.129 1.936-4.01 9.038-2.265 4.133M494.23 169.418l.58.004.836.336.664.73 1.606 2.451.415 1.059.229 1.278.32 7.87.342 5.693.257 13.891.383 2.546.26.94.127.462.12.434.559 1.476.552.84 2.842 5.264 3.568 5 1.58 2.723 1.696 2.58.916 2.994 1.065 3.276.372 2.11 1.12 5.015.435 3.177-.11 3.57L514 248.1l-.916 3.041-.268 1.694-.174 3.782-.442 2.133-1.136 2.375-.774 2.027-.82 3.026-1.375 4.356-.915 2.844-1.326 2.594-1.997 3.025-.774 1.756-.292 2.578v5.37l.292 2.55 1.342 4.447 1.041 2.556.703.96 1.831 1.43 1.272 1.482 1.31 1.997 1.413 1.74 1.058 1.157 3.935 3.218.715.82.268.557M626.735 359.493l-14.454-12.025-3.584-3.017-.513-.862-.434-1.46-.513-2.39-1.034-3.615-.04-1.498.427-1.588 1.405-4.235.426-1.702.229-3.615.552-8.221 2.306-8.894 3.915-7.897 1.815-3.176 1.58-4.705.947-4.266.505-4.885-.253-6.868-.6-3.063-.529-2.92M604.787 238.536l.272.863.26.806.568 1.006 1.587 1.535.71.757.553 1.15 2.012 5.354 3.032 4.841.387 1.649.134 1.702.892 3.668 2.51 5.204 1.184 1.52" clip-path="url(#p2f45d7e63e)" style="fill:none;stroke:#000"/><path d="m637.27 289.685-.785-1.406-17.597-19.688M627.603 359.426l-.868.067M627.603 359.426l.044-.454M627.603 359.426l-.088.922M626.735 359.493l.78.855M568.656 489.183l-.392 6.018-.3.991-17.825 24.622-10.01 13.959-1.065 1.913-.008.597.6.832 7.12 12.915 6.71 12.946.285 1.285-.127 1.996-.868 3.509-2.069 4.945-.805 1.815-1.058 1.86-1.073 2.73-.245 1.005.04 2.042.268 2.283-.22.56-.238.756.04.53.537.824M603.921 237.792l1.208-.737M571.264 215.638l2.036 1.815 1.658 1.173 11.1 6.27.883.771.34.976.355 3.517.6 6.392.276 1.051.64 1.09.876.816 1.184.484 2.431.242 1.09.318 1.35.106 1.444-.4 1.831-.727 2.092-.537 2.471-1.203M604.787 238.536l-.25-.366-.616-.378M204.103 474.436l2.597-.325.695-.348 7.176-7.993 8.691-3.766.877-.182 1.5.106 11.77 1.558 2.17.469 3.836 2.828 1.872.946 5.533 1.376 1.974-.045 6.623-.704 4.073-.34 1.966.098 2.526.174 3.102 1.293 1.382.786.703.039.71-.25 3.079-1.928 2.597-.998 4.452-.568 2.313-.84 2.431-1.012 1.563-.371 1.635-.242 2.47-.908.853-.128 2.542-.023 3.773-.522 1.926-.968 3.632-2.57 2.628-1.581 3.276-3.138 7.413-2.95 6.67-2.291 10.657-4.424 1.07-.32M571.264 215.638l-4.09 1.815M567.27 212.015l1.104.34.995.848 1.895 2.435M567.27 212.015l.339 1.218-.063 2.882-.372 1.338M204.103 474.436l-15.228.726-14.69.56-3.371.453-3.49.908-4.704.779-4.452.393M604.787 238.536l.342-1.481M494.23 169.418h-.119l-1.614.76-1.524.401-.765.046-1.232-.348-1.749-.284-.584-.215-.478-.477-.844-1.332-.758-.643-1.673-.854-1.13-.923-1.827-2.209-1.065-.843-1.97-.783-1.01-.586-3.66-2.156-2.632-1.286-1.014-.84-1.599-1.085-.888-.183-.738.137-.979.605-1.058 1.21-.52 1.544-.916 4.017-.584 1.187-1.485 3.359-.836 2.852-.363 2.011-.3 1.082-.96 2.209-.442 1.543-.043.862M207.848 318.88l-.295-1.226-18.314-15.942.253-1.543 1.926-2.511 4.325-7.231 9.158-6.867M115.44 155.511l-1.173.49-2.043.362-2.084.122-1.705-.092-7.704-2.299M216.206 181.17l2.051-.816 5.116-.06 5.936-.361 3.82.091 1.39-.091.38-.12.82-.697 1.547-2.572 2.337-4.477 1.579-5.235 2.4-7.352.41-3.812 1.926.03 3.284-1.06M336.917 201.498l-1.362-.483-1.64-.523-.923-.18-1.206-.212-3.012-.41-1.39-.574-.946-.877-1.106-2.39-.662-1.937-.38-2.3-.126-1.513.064-1.633.126-.727-.063-1.694-.38-2.541-.379-.908-.662-.182h-.916l-3.221.303-3.031-.212-4.832-.605-4.105-.394-1.073-.18-1.105-.364-1.516-.817-1.547-1.029-1.01-.514-.6-.424-1.263-1.18-.884-.484-3.316-1.059-4.832-1.27-1.357-.606-.821-.695-.6-.908-1.358-3.782-.537-.606-.757-.12-.6.151-.726-.03-1.927-.515-3.631-.726-1.705-.242-2.21-.121-1.485-.333-1.263-.665-6.03-4.115-2.053-1.21-1.705-.757-6.631-2.572-2.368-1.331-2.653-.363M203.069 251.308l2.21-6.142 1.958-3.42.537-1.3 1.263-4.539.316-2.662-.095-1.483-.284-1.362-.38-1.18-.568-1.21-.536-.696-1.105-.787-2.969-1.392-.915-.635-2.085-1.846-1.83-1.785-.885-.998-.663-1.03-.632-1.754-1.042-5.84-.315-1.331-.821-2.603v-1.482l.505-1.967.442-1.029.41-.544 1.705-1.725.253-.151 7.705-7.716.757-.756 8.905-9.138 1.296-1.634" clip-path="url(#p2f45d7e63e)" style="fill:none;stroke:#000"/><path d="m115.44 155.511.18-.076 1.625-.637 3.816-1.297 2.979-.755 5.095.26.492-.684 1.477-1.675 1.833-.846 2.4-2.633 1.326-2.149 1.452-1.391 3.505-2.089 3.095-1.3.884-.606 1.295-1.089 1.231-.756.726-.273 1.799-.43 2.043.188 1.92.26.648.617 1.58.212 1.61.545.758.12.442-.03 2.273-.967 2.558-.727 1.105-.121 1.39.182 1.357.393 2.337.938.569.515.6 1.482.441.212 1.863-.242h.19l2.273.091 2.053.09 2.652-.12 3.632-.484 4.957-1.302 1.358.03.916.303.6.333 3.82 2.693.916.363 1.358.303 2.4.03 1.547-.151.758-.303 1.2-.908 1.674-.484 2.841.242 2.655 1.426 2.208 1.245 1.689.872.585 2.053-2.729 3.922.39.747 1.494.56 2.457.549-4.294 16.61.22.695 1.58 2.179.536 1.12.348 3.72-.222 4.085M637.27 289.685l-.58.969-.79 2.435-2.273 17.835-.316 4.053-.616 3.661-1.61 12.873-3.284 25.873-.154 1.588" clip-path="url(#p2f45d7e63e)" style="fill:none;stroke:#000"/></g><g id="PatchCollection_1"><path d="m367.517 442.179 2.291-1.118 1.187 1.896-.353.938-1.313.738zM373.378 437.316l1.7.31-1.867.916zM370.105 435.69l1.916-.957.875 1.516z" clip-path="url(#p2f45d7e63e)" style="fill:green;fill-opacity:.8"/></g><g id="PatchCollection_2"><path d="m377.245 440.02 4.204 1.044-1.492 5.51-4.204-1.044zM363.734 434.02l1.976-.862.768 1.616-1.976.862z" clip-path="url(#p2f45d7e63e)" style="fill:#90ee90;fill-opacity:.8"/></g><g id="PatchCollection_3"><path d="m357.069 434.359.492-.247.477.876-.493.246zM358.185 438.647l.844-.399.396.878-.126.31-.176.209-.25.02-.22-.1z" clip-path="url(#p2f45d7e63e)" style="fill:#a9a9a9;fill-opacity:.8"/></g></g></g><defs><clipPath id="p2f45d7e63e"><path d="M90 128.024h558v471.153H90z"/></clipPath></defs></svg>