<svg xmlns="http://www.w3.org/2000/svg" width="960" height="960" viewBox="0 0 720 720"><defs><style>*{stroke-linejoin:round;stroke-linecap:butt}</style></defs><g id="figure_1"><path id="patch_1" d="M0 720h720V0H0z" style="fill:#fff"/><g id="axes_1"><path id="patch_2" d="M99.205 640.8h539.59V86.4H99.205z" style="fill:#fff"/><g id="LineCollection_1"><path d="m347.287 336.39 1.342-.823M347.287 336.39l-9.519 5.886M348.145 343.366l.26-.861.177-.903.03-1.158-.206-1.068-1.12-2.987M311.804 339.893l1.062 1.77M309.25 337.865l.379.352.406.308.567.343.41.281.395.336.397.408M313.43 341.35l-.337-.402-.315-.32-.283-.26-.691-.475M312.866 341.663l.564-.313M312.866 341.663l2.093 3.417M307.246 344.656l2.498-1.452 3.122-1.541M337.768 342.276l-1.854.86M334.52 339.174l1.601 1.443 1.647 1.659M336.2 344.103l1.71-.868.08-.127.024-.152-.004-.14-.242-.54M332.584 344.485l-.743.428M332.584 344.485l3.33-1.35M332.584 344.485l-1.803-2.98M334.313 347.199l-.431-.716-.757-1.221-.541-.777M326.613 347.669l2.434-1.13M326.613 347.669l-2.218 1.28M326.613 347.669l-1.61-2.914M327.377 350.448l.184-.677-.054-.466-.29-.67-.604-.966M318.774 351.862l3.211-1.737M318.774 351.862l-1.478-2.777M318.774 351.862l.505 1.166M312.803 355.047l3.646-1.907 2.325-1.278M319.28 353.028l.997 2.235M319.28 353.028l2.663-.9M319.28 353.028l-6.43 2.126M312.237 355.342l.613-.188M312.237 355.342l.566-.295M312.237 355.342l-4.285 1.906M307.952 357.248l-1.33-2.295M307.952 357.248l1.653 3.844M307.952 357.248l-3.445 1.653M322.448 359.58l-1.033-2.347M322.448 359.58l-3.112 1.136M322.448 359.58l1.25-.52M317.087 364.468l4.313-1.48 1.839-.726.154-.111.09-.113.049-.11.014-.133-1.098-2.215M391.858 324.293l2.25-.296M391.858 324.293l-13.672 1.828M441.977 299.47l-.74.323-.762.284-.954.303-8.05 2.573-1.124.534-.644.316-.42.278-.432.403-1.362 2.06-.494.65-1.303 1.382-.858.921-4.568 5.048-1.816 1.79-1.188 1.008-.843.481-.965.309-5.97 1.376-5.545.876-.755.167-8.506 2.478-1.594.602-1.226.661M112.298 598.959l.11-.534 1.257-2.737 2.116-3.129 2.544-3.49.766-2.407.399-2.647.096-2.417-.306-1.625-.092-2.226-1.537-6.863-1.39-6.299.133-1.914 1.58-2.858 8.8-12.797 1.223-2.35 2.395-4.104 2.881-3.354 5.702-4.768 5.651-4.2 1.338-1.186 5.008-8.126 3.678-9.161 3.74-8.29 1.18-1.112 2.269-1.61 2.824-2.057M211.083 379.4l-1.134 1.836-.49 2.768-.95 10.11-.716 2.306-1.559 3.22-2.86 3.993-4.214 5.194-6.315 5.897-3.291 5.54-12.051 14.783-1.682 2.712-1.304 2.556-.463 3.051-.716 5.043-2.364 21.072-2.131 17.676-.628 3.31-1.334 3.354-2.218 2.877M185.09 517.263l-4.997-7.105-15.43-13.46M258.314 340.225l-3.372 3.83M267.437 334.584l-.855.452-5.294 2.452-.713.488-.666.557-1.595 1.692M278.492 355.616l-1.18-2.212-1.18-1.963-1.318-1.497-1.571-1.421-.878-.798-.567-.391-.893-.466-6.575-3.243-2.843-1.511-1.517-.888-1.656-1M275.209 330.775l-2.52 1.234M275.209 330.775l2.042 1.251M280.657 328.567l-.682.184-.591.188-.9.348-3.275 1.488M273.365 327.476l.782 1.52.65 1.308.117.175.295.296M291.45 325.715l3.457 3.604M291.45 325.715l-8.283 2.23M263.392 297.24l4.479 4.543 15.967 16.15 4.4 4.556 3.213 3.226M225.497 374.641l-.558.578-2.116.902-6.406 1.505-5.334 1.775" clip-path="url(#pfb047c21a8)" style="fill:none;stroke:#000"/><path d="m199.712 381.206 2.636-.361 3.127-.361 5.608-1.083M326.045 335.072l.67-.36M326.045 335.072l-2.687 1.273M326.045 335.072l.648 1.163.466.771.612 1.005M311.244 352.32l-4.622 2.633M311.244 352.32l6.052-3.235M311.244 352.32l-2.058-4.043M311.244 352.32l1.56 2.727M317.296 349.085l-.717-1.367M317.296 349.085l1.625-.955M309.186 348.277l-4.86 2.708M309.186 348.277l5.773-3.197M309.186 348.277l-1.94-3.62M325.1 339.473l2.228 3.908M325.1 339.473l-1.742-3.128M325.1 339.473l-2.267 1.203M325.1 339.473l2.67-1.462M321.121 337.462l-4.319-7.426M321.121 337.462l1.712 3.214M321.121 337.462l2.237-1.117M321.121 337.462l-2.366 1.15M327.328 343.38l1.719 3.159M327.328 343.38l-2.325 1.375M327.328 343.38l2.71-1.51M316.802 330.036l2.032-1.752M316.802 330.036l-1.895 1.691M323.898 324.06l-5.064 4.224M323.898 324.06l-.923-2.29M324.875 327.675l-.444-1.967-.265-.888-.268-.76M318.834 328.284l4.524 8.061M318.755 338.611l-3.848-6.884M318.755 338.611l1.769 3.354M318.755 338.611l-3.59 1.882M297.75 350.26l2.163 3.064M297.75 350.26l4.656-2.696M295.911 351.577l.046-.18.096-.133.1-.097 1.597-.907M314.96 345.08l.94-.571M314.96 345.08l1.619 2.638M302.406 347.564l-.379-.748M302.406 347.564l1.92 3.421M307.246 344.656l-3.02 1.836-1.82 1.072M310.789 363.826l-3.818 1.32M310.789 363.826l5.299-1.984M310.789 363.826l-1.184-2.734M310.789 363.826l.923 2.53M328.429 337.646l1.913-.965M328.429 337.646l-.658.365M328.429 337.646l-1.008-1.761-.706-1.174M328.429 337.646l2.352 3.858M299.913 353.324l2.692 3.913M299.913 353.324l-2.162 1.278M299.913 353.324l4.414-2.339M304.327 350.985l2.295 3.968M322.975 321.77l-.242-.515-.429-.659-.533-.692-.908-1.188-1.386-1.734-1.365-1.873-.398-.452-.414-.376-.56-.398-2.513-1.775-3.87-2.377-2.081-1.118-3.318-1.677-9.035-4.348-2.495-1.204-1.713-.83-1.498-.835-1.163-.723-2.34-1.587-1.18-.895-.497-.43-.567-.518-1.211-1.256-2.138-2.475M255.717 270.84l1.624.27.663.09.908.05 1.127.01.796-.014.982-.09 3.402-.256 1.74-.106 1.034.03.928.099.52.105.369.135.299.233.214.309.514.918.405 1 .323.91.184.7.145.722.115.602.222.978.26.94.376 1.245.288.85.126.339.15.338 1.122 2.125 1.426 2.874.502.82.202.282.23.275.3.293 1.118.91 1.816 1.482.338.327.26.32.165.327.21.553M260.579 234.193l.238 1.415.202.809.165.534.203.474.173.297.456.44 1.923 1.47 3.123 2.344 3.548 2.813 5.993 4.664.931.64 1.31.857 1.825.955 3.065 1.573 6.13 2.956 3.17 1.538.348.223.115.21.077.331.015.286-.084.293-1.356 1.88-2.851 3.913-.345.473-.368.715-.238.692-1.57 5.748-.92 3.528-.176.895-.108.707-.322 2.595-.053.429-.092.511-.169.678-.782 2.151-.973 3.024-.176.586-.268.58-1.035 1.625-.306.602-.173.488-.103.7M328.534 327.852l-1.929-.136-1.73-.04" clip-path="url(#pfb047c21a8)" style="fill:none;stroke:#000"/><path d="m326.715 334.711-.656-1.233-.257-.53-.18-.47-.068-.241-.08-.38-.081-.519-.518-3.663M322.975 321.77l5.243-1.785M314.907 331.727l-2.996 2.434M309.605 361.092l2.01-.859M336.2 344.103l-.286-.968M336.93 346.164l-.245-.77-.486-1.291M306.622 354.953l-4.017 2.284M300.224 358.495l-2.129 1.374M300.224 358.495l2.38-1.258M300.224 358.495l-2.473-3.893M304.507 358.901l2.464 6.244M298.095 359.87l.83 1.047.134.104.14.073.143.04.148.014 5.017-2.247M320.277 355.263l.073.174M320.277 355.263l2.469-.53M366.889 331.406l3.039-.336M366.889 331.406l-3.239.266M366.889 331.406l-.266-1.843M366.889 331.406l.212 1.647M369.689 329.223l-3.066.34M369.689 329.223l.239 1.847M369.689 329.223l-.246-1.78M371.385 329.138l-.372.019-1.324.066M378.857 329.127l-5.176.61M378.857 329.127l-.298-1.283M378.857 329.127l.402 1.331M352.662 341.701l-.227-1.665M352.662 341.701l8.249-1.495M352.662 341.701l-4.517 1.665M320.524 341.965l2.26 4.026M320.524 341.965l2.309-1.289M320.524 341.965l-3.607 1.976M373.68 329.736l-.263-1.23M373.68 329.736l.317 1.346M370.207 333l-.279-1.93M360.91 340.206l4.279-.845 4.405-.882.5-.152.34-.106.26-.196.124-.221.034-.283-.007-.564-.638-3.957" clip-path="url(#pfb047c21a8)" style="fill:none;stroke:#000"/><path d="m379.259 330.458.256.858-.014.161-.058.117-.135.093-3.781.603-5.32.71M328.473 362.845l5.284-3.336M330.19 364.507l-.391-.354-.383-.492-.357-.369-.586-.447M326.385 361.498l1.506 1.046.582.3M371.825 330.752l-1.897.318M371.825 330.752l-.44-1.614M373.997 331.082l.043.222-.013.072-.041.049-.092.038-1.6.44-.06-.008-.048-.038-.039-.086-.322-1.02M315.166 340.493l-1.296.613M315.166 340.493l1.75 3.448M311.91 334.161l1.367 2.476 1.889 3.856M333.322 353.528l-3.37-1.135M333.322 353.528l.232 2.764M333.322 353.528l-.703-4.772M334.52 339.174l.932-1.224M334.52 339.174l-1.486.947M366.623 329.563l-.224-1.752M366.623 329.563l-3.187.396M363.65 331.672l-.214-1.713M361.158 328.517l1.539 3.109.09.073.126.045.107.008.63-.08M358.666 336.084l5.01-1.485.153-.105.096-.135.03-.151-.305-2.536M378.559 327.844l-5.142.663M378.559 327.844l-.373-1.723M498.61 284.787l-.337-1.28-.307-1.015-.43-1.414-.505-1.828-.276-.97-.184-.64-.79-3.17-.82-2.837-.946-3.866-.306-1.324-.626-2.016-.284-.91M358.698 177.935l-.598-2.016-.827-2.498-1.258-3.25-1.041-1.986-.698-1.125-.958-1.29-1.042-1.294-1.61-1.873-7.383-8.144-4.418-4.946-7.43-7.974-8.261-8.923M296.451 133.748l1.265-.173.939-.195.563-.162 1.525-.474.192-.056.214-.038.217-.011 17.221.015 4.587-.038M322.833 340.676l2.17 4.079M339.275 361.498l-.188.08M339.275 361.498l-2.397-3.698M343.953 349.08l.161.827.284 1.466.084 1.151-.107.723-.245.82-.69 2.053-.579 1.26-.333.65-.291.437-.525.522-2.437 2.509M342.429 366.62l-1.955-3.234-1.2-1.888M350.797 321.744l2.761 10.138M329.857 327.95l1.804.094 1.024-.03 1.026-.069 2.878-.35 1.732-.368.843-.308.314-.158.291-.21.894-.958.462-.43.38-.29.425-.18 3.51-1.099 5.357-1.85" clip-path="url(#pfb047c21a8)" style="fill:none;stroke:#000"/><path d="m358.698 177.935-1.12 11.547-.612 5.898-1.349 11.02-.613 5.839-.414 4.092-.06 5.973.06 3.25.292 3.535.26 3.22.322 2.182.667 2.986.835 4.235.247 2.035.12 2.298-.015 1.783-.122 1.904-.383 2.677-.56 2.61-.712 3.1-1.104 3.536-.33 1.076-.114.962.069 1.122.697 3.535.2 1.55-.085 1.444-.23 1.67-.357 1.35-.164.711-.15.605-2.602 7.692-.16.58-.108.721-.053.55-.368 6.905-.513 8.215-.2 2.414-.2 1.392-.106 1.06-.598 9.26v.61l.077.526 1.655 6.139M343.953 349.08l1.18-1.573 2.116-3.001.383-.534.513-.606M363.436 329.96l-.226-1.749M336.78 346.232l.15-.068M335.503 350.021l.182-.89.214-.887.088-.41.794-1.602M334.313 347.199l.923-.26.61-.21.325-.154.61-.343M308.026 367.657l3.686-1.3M308.026 367.657l-1.055-2.512M305.146 369.231l1.134-.684 1.746-.89M311.91 334.161l-3.668 2.95M328.017 333.753l.452.278.362.378.382.532 1.13 1.74M333.034 340.12l-1.135-1.143-.452-.489-.491-.722-.614-1.085M282.553 328.824l-3.043 4.589M282.553 328.824l1.282.949M282.553 328.824l.614-.88M332.619 348.756l-1.019-.331M332.619 348.756l-.417-2.11M336.878 357.8l2.102-1.131.858-.564 1.12-.85.743-.67.528-.699.46-.843.314-.963.651-2.098.3-.903M331.6 348.425l.602-1.779M331.6 348.425l-1.647 3.968M329.047 346.539l.35.686.21.252.254.196.432.184 1.307.568M306.97 365.145l-6.615 2.346M336.878 357.8l-2.144 1.02-.852.591-.125.098M333.761 358.753l-.015.4.011.356M334.006 360.373l-.172-.526-.077-.338M296.498 358.953l.524.368.395.218.276.165.402.165M373.997 331.082l5.262-.624M311.712 366.356l5.375-1.888M352.435 340.036l-.357-1.909M352.435 340.036l4.92-1.068M344.099 369.096l-1.67-2.475M366.33 411.083l-.383-4.784-.26-3.79-.314-2.927-.3-1.226-.52-1.143-.644-1.324-1.18-1.67-2.023-2.994-2.07-2.918-5.195-7.236-.614-.752-4.559-5.206-1.287-1.64-1.112-1.677-1.77-2.7" clip-path="url(#pfb047c21a8)" style="fill:none;stroke:#000"/><path d="m325.155 394.633.422-.324.795-.648 10.983-10.251.544-.587.544-.692 1.48-2.302 1.64-3.272 1.47-4.242.533-1.708.533-1.511M324.395 348.95l-2.41 1.175M324.395 348.95l-1.611-2.959M324.395 348.95l1.153 2.038M229.935 343.23l-4.292 1.805-7.234-.36-7.234-5.176M329.857 327.95l-1.323-.098M328.187 331.647l.256-.362.256-.477 1.158-2.859M329.047 346.539l2.794-1.626M283.835 329.773l-2.947 4.511M283.835 329.773l1.352 1.063M359.85 338.237l-1.184-2.153M359.85 338.237l1.06 1.969M359.85 338.237l-2.495.731M230.41 369.555l3.48-3.603 4.46-4.65 2.476-2.602 4.161-4.062 2.116-2.25 1.134-1.248.965-1.271 5.74-5.814M229.935 343.23l5.312.546.943.015.452-.105.675-.218 1.386-.49 2.43-.721 1.601-.422 1.403-.676.965-.46.974-.278.827-.12 1.004-.06 1.219.12 1.356.459 1.196.263.372.124.398.143 1.26.952.49.564.261.399.483.79M325.155 394.633l.904 1.12.115.286-.03.211-.223.165-1.126.625-.299.323-.184.354-.414 1.391-.05.256-.003.263.074.743M352.078 338.127l3.87-1.24M352.078 338.127l-.32-1.636M350.166 337.568l.49.75.03.03.057.036.049.008.06.003 1.226-.268M353.781 332.668l-.223-.786M353.781 332.668l2.469-1.461 3.501-2.092.725-.36.682-.238M353.781 332.668l-.55.355M373.417 328.507l-.371-1.719M371.385 329.138l.272-.03.214-.03.2-.05.843-.225.272-.128.23-.168M358.666 336.084l-2.717.804M363.149 327.78l.06.431M363.149 327.78l-1.326.204-.838.127M363.149 327.78l3.179-.344M329.953 352.393l-.434 1.027M285.084 337.001l2.617-4.139M285.084 337.001l-2.137 3.19M285.084 337.001l-1.424-.873M285.084 337.001l1.4.856M369.4 327.062l-3.072.374M369.4 327.062l.043.382M371.335 327.025l-.625-.11-1.31.147M330.78 341.504l-.743.367M330.78 341.504l2.254-1.383M323.869 354.48l.386 1.746M323.869 354.48l-1.123.252M323.869 354.48l-.82-2.696M279.51 333.413l1.378.871M279.51 333.413l-1.408-.91M279.51 333.413l-2.172 3.115M325.003 344.755l-2.219 1.236M325.967 356.748l-.758-.225-.954-.297M320.35 355.437l.751.01.337.03.544.116 2.273.633M334.566 363.845l-.118-.788M339.087 361.577l-.927.5-.973.572-1.717.812-.904.384M330.19 364.507l.333.17.21.02.323-.01 3.51-.842M322.784 345.991l-2.287 1.286" clip-path="url(#pfb047c21a8)" style="fill:none;stroke:#000"/><path d="m197.689 339.413-4.568-4.604.031-.752 4.2-1.353 4.75-.663 7.143 4.724 5.24-.636 8.46 2.888 3.68 3.01 3.31 1.203M280.888 334.284l-2.097 3.153M280.888 334.284l1.3.945M366.328 327.436l.071.375M327.377 350.448l-1.829.54M327.377 350.448l1.1-.376M326.952 352.438l.096-.523.33-1.467M325.548 350.988l-2.498.796M321.415 357.233l-1.065-1.796M321.415 357.233l2.284 1.828M294.974 356.4l.436-.32 2.341-1.478M297.751 354.602l-1.773-2.775-.048-.115-.019-.135M308.242 337.112l1.008.753M303.562 334.504l.718.366 3.962 2.242M470.71 292.26l1.744-.463 2.422-.654 9.15-2.375 14.584-3.981M521.324 277.415l-1.134.225-1.012.271-.935.278-1.854.685-5.84 2.136-4.103 1.388-2.123.689-5.713 1.7M373.046 326.788l.619-.08M373.046 326.788l-1.71.237M325.867 361.077l1.706-3.663M325.867 361.077l-.16 1.812M325.867 361.077l-.636-.662M325.867 361.077l.518.421M378.186 326.121l-4.521.587M316.917 343.941l-.627.32M318.109 346.383l-.196-.67-.383-.737-.613-1.035M318.921 348.13l-.262-.54M318.921 348.13l1.576-.853M321.985 350.125l-1.488-2.848M323.05 351.784l-1.107.343M321.943 352.127l.803 2.605M331.841 344.913l.219.804.08.504.062.425M329.52 353.42l-2.014-.83M327.573 357.414l.7-1.271 1.246-2.723M326.952 352.438l.554.152M326.952 352.438l-.985 4.31M325.967 356.748l1.606.666M325.967 356.748l-.736 3.667M333.761 358.753l-1.487-.256-1.027-.264-1.793-.308-1.103-.233-.778-.278M333.761 358.753l-.207-2.46M325.231 360.415l-1.532-1.354M325.707 362.89l.303-.572.375-.82M325.707 362.89l-.284.631-.467.678-.629.646-.536.482M316.088 361.842l3.248-1.126M316.088 361.842l1 2.626M307.246 344.656l-.997-1.268M313.87 341.106l-1.065-1.136-.47-.395-.526-.451-.609-.365-1.089-.583-.86-.31M313.43 341.35l.44-.244M313.43 341.35l2.47 3.159M315.9 344.509l1.27 1.576M315.9 344.509l.39-.248M318.66 347.59l-.551-1.207M317.17 346.085l.444.535.43.436.615.534" clip-path="url(#pfb047c21a8)" style="fill:none;stroke:#000"/><path d="m316.29 344.261.81 1.091.514.617.495.414M313.87 341.106l.809 1.14 1.611 2.015M316.579 347.718l.342-.831.134-.38.115-.422M334.448 363.057l-4.258 1.45M334.006 360.373l.161.813.281 1.871M327.77 338.01l2.267 3.86M330.037 341.87l1.804 3.043M335.503 350.021l-.113-.686-.123-.474-.142-.36-.345-.644-.467-.658M335.503 350.021l-.389 6.662M328.187 331.647l.347-3.795M328.017 333.753l.042-.173.023-.192.105-1.74M360.985 328.111l.173.406M360.985 328.111l-1.69.53-.716.309-.64.321-4.38 2.611M363.21 328.211l3.19-.4M361.158 328.517l.961-.173 1.09-.133M353.558 331.882l-1.75 1.348-.842.685-.893.65-1.018.64M348.629 335.567l.334-.103.175-.101M349.055 335.205l-.166.112-.26.25M353.23 333.023l1.115 1.68M349.138 335.363l1.119-.625 2.974-1.715M355.949 336.888l1.406 2.08M355.949 336.888l-1.604-2.185M354.345 334.703l-2.586 1.788M350.166 337.568l-1.028-2.205M350.166 337.568l1.593-1.077M366.4 327.81l3.043-.366M369.443 327.444l1.323-.14.57-.28M278.791 337.437l-1.453-.91M278.791 337.437l1.389.942M277.338 336.528l-1.39-.868M290.685 340.561l-1.484-.906M290.685 340.561l-2.066 2.982M288.619 343.543l1.238.59.14.023.098.013.094-.03.14-.096.133-.169.66-.767.88-1.38.035-.181-.027-.14-.08-.12-.103-.075-1.142-.65M291.638 336.04l1.183.852.08.071.039.054.013.09-.023.066-2.245 3.388M288.619 343.543l-1.278-.637M280.18 338.379l1.422-2.172M280.18 338.379l1.39.914M282.187 335.229l.821-1.074M282.187 335.229l-.585.978M285.187 330.836l1.227 1.012M285.187 330.836l-2.179 3.319M281.57 339.293l1.377.898M281.57 339.293l1.368-2.179M283.66 336.128l.786-1.15M283.66 336.128l-.722.986M286.414 331.848l1.287 1.014M286.414 331.848l-1.968 3.13M282.947 340.19l1.429.965M287.7 332.862l1.32 1.13M285.72 342.056l-.625-.432-.719-.469" clip-path="url(#pfb047c21a8)" style="fill:none;stroke:#000"/><path d="m286.485 337.857-1.096 1.654-1.013 1.644M286.485 337.857l2.534-3.865M286.485 337.857l1.37.91M289.02 333.992l1.321 1.02M285.72 342.056l1.62.85M287.855 338.767l-1.048 1.684-.506.828-.582.777M287.855 338.767l1.346.888M287.855 338.767l2.486-3.754M290.341 335.013l1.297 1.027M293.139 331.187l-.634.67-.203.241-.088.128-.153.308-.326.613-.322.516-.387.545-.685.805M287.34 342.906l1.861-3.25M289.201 339.655l2.437-3.615M294.582 334.828l-.349.29-.778.316-1.817.606M284.446 334.978l-1.438-.823M281.602 336.207l1.336.907M275.948 335.66l2.154-3.156M272.568 334.407l1.035.019.567.06.356.147 1.422 1.027M278.102 332.504l-.851-.478M280.657 328.567l-1.278 1.969-1.277 1.968M280.657 328.567l1.415-.354M267.437 334.584l5.253-2.575M267.437 334.584l5.131-.177M283.167 327.944l-1.095.27M294.907 329.319l-1.768 1.868M303.562 334.504l-3.731-1.902-2.057-1.087-.851-.511-.828-.64-1.188-1.045M273.341 319.392l2.346 2.284 3.822 3.833 1.564 1.519.346.365.293.354.36.466M277.25 332.026l-4.682 2.381M335.914 343.135l-.551-.999-.38-.515-.222-.17-.264-.086-.238-.068-.276-.21-.95-.966M326.715 334.711l.915-.56.184-.158.115-.12.088-.12M439.134 322.74l-4.384.005M439.134 322.74l1.517-.069M439.103 327.792l.046-2.904-.015-2.149M350.207 371.096l-2.077-2.813-2.211-3.167-.272-.229-.302-.087-.208-.007-.299.116-.34.215-2.07 1.497M328.477 350.072l-.333.647-.238.632-.4 1.239M328.477 350.072l.23-.291.094-.147.038-.141.027-.16-.123-.67M320.35 355.437l-2.096.726-.178.076-.082.077-.047.095-.015.122.16.671 1.244 3.512M296.498 358.953l-5.548 4.032M294.974 356.4l.006.581.02.226.175.477.238.343 1.085.926M294.974 356.4l-1.072.621-3.152 2.464M589.858 109.136l4.322 1.844 4 1.806 4.522 2.858 3.924 3.1 5.272 3.235.705.534.675.436.597.377.36.225.867.218 1.118.196M621.255 134.941l-.245-.94-.161-.76-.13-.617-.207-.602-.406-.489-.39-.263-.338-.557-.437-.82-.62-1.196-.706-1.354-.413-.775-.223-.602-.52-1.249-.239-.752M546.767 101.884l1.34-.85 1.085-.673 1.03-.553.852-.421 1.172-.309 1.042-.21 1.196-.053 1.333.075 1.234.045 1.395.083 1.517.143 1.127.075.98.015 1.134.06 1.058.06 1.12.136 1.172.233 1.21.346 1.257.542 1.51.767 1.563.918 1.61 1 1.11.64 1.22.715.812.542.804.473.621.287 1.073.39 1.525.43 1.44.443 1.855.542 1.364.384 1.403.39 1.28.302 1.647.285" clip-path="url(#pfb047c21a8)" style="fill:none;stroke:#000"/><path d="m594.06 107.013-.485.228-.989.534-1.348.647-.72.346-.66.368M628.418 282.097l-.066 1.764-.023 1.783v1.775l.03 1.783-.053 1.88-.039 2.152-.076 1.783-.092 2.287.015 2.738" clip-path="url(#pfb047c21a8)" style="fill:none;stroke:#000"/><path d="m536.247 275.083 16.137-2.791 1.494-.286 1.94-.309 1.294-.225 1.066-.166 1.386-.21.943-.023.667.158.56.361.904.707 1.118.993 1.342 1.227 1.302 1.308 1.12 1.279 1.003 1.15 1.065.971.828.79 1.188.955.95.858.843.775.973.767.667.52.736.428 1.195.557 1.004.443 1.081.542.942.565 1.104.706.743.302.836.262.789.061.567.007.858-.037.782-.143 1.111-.256 1.471-.338 1.319-.316 1.226-.264.927-.203.828-.248 1.395-.316 1.939-.429 1.456-.015 1.042.128.812.12 1.134.331 1.349.332 1.318.285 1.449.219 1.202.067 1.02.015 1.471-.068 1.25-.18 1.172-.136 1.065-.225 1.004-.279 1.188-.466 1.272-.496 1.571-.542 1.801-.497 1.594-.443 2.207-.587 1.448-.316.79-.15 1.241-.106 1.502-.075 1.17-.034M440.65 322.671l3.457.058 11.879.045 8.077.143 8.529.106 17.733-.203" clip-path="url(#pfb047c21a8)" style="fill:none;stroke:#000"/><path d="m540.375 333.155-7.004-2.667-9.434-3.595-7.556-3.005-1.678-.655-.751-.233-.418-.087-.456-.056-.873-.038-14.96-.105-6.92.106" clip-path="url(#pfb047c21a8)" style="fill:none;stroke:#000"/><path d="m490.77 318.607-.184 1.82-.26 2.393M541.878 339.39l-.062-.586-.108-.564-.535-2.16-.798-2.925M538.302 110.762l.832-.63.605-.521.636-.64.514-.707.674-.918.889-1.249.958-1.37.797-.984.52-.557.63-.482 1.41-.82M544.72 97.077l.912-.015.215.053.2.195.137.293.107.407.047.752.03.956.03.797.062.489.084.331.223.549M530.505 116.826l.648-.614 2.007-1.914 1.606-1.362 1.15-.835 1.103-.617 1.283-.722M527.195 121.903l-.054.14-.46 1.436-.138.708-.46 2.681-.64 3.472-.138.516-.923 2.844-.76 2.313-.317.884-.352.692-1.162 1.753-1.892 2.67M511.13 241.194l-1.585-4.943-1.383-4.04-2.364-6.597-3.372-9.083-.709-1.697-3.471-8.534-.127-.482-.088-.387-.042-.41-.015-.658.133-.88.192-.56.368-.915 1.33-3.13.567-1.662 1.065-3.761.483-2.386.057-.462.012-.444-.015-.463-.024-.42-.041-.266-.078-.299-.088-.293-.184-.572-.704-1.93-.161-.594-.073-.418-.035-.842.023-.662.23-.97.215-.52.464-.556 2.34-1.843 4.986-3.837.337-.384.674-.91.307-.52.21-.612.142-.775.54-3.494.491-2.363.214-.545.342-.65.29-.392.595-.58.651-.454 3.686-1.832.267-.237.2-.23.147-.256.08-.323-.015-.906-.157-1.945-.452-3.423-.476-4.536-.11-2.558.133-1.016.337-.985.368-.805.406-.783 1.656-2.152" clip-path="url(#pfb047c21a8)" style="fill:none;stroke:#000"/><path d="m512.81 129.295 1.272.316.483.109.29.094.174.113.149.161 2.046 3.469 1.15 1.956.276.586.176.437.13.414.123.489.26 1.444.44 2.584.12.545M536.247 275.083l-7.826 1.353-1.832.354-2.606.376-2.66.249" clip-path="url(#pfb047c21a8)" style="fill:none;stroke:#000"/><path d="m511.13 241.194 1.764 5.51 1.92 6.364.487 1.655 3.678 13.777.808 3.19 1.04 3.829.497 1.896M446.11 297.645l1.92-.729 1.323-.406 1.754-.436 2.066-.568 1.724-.414 3.02-.459 2.475-.481 5.457-.948 1.56-.288 2.194-.42 1.108-.236M473.151 265.236l-.06 2.159-.032 1.398-.106 1.264-.162 1.016-.237 1.587-.16 1.753-.346 1.632-.138 1.039-.421 5.37-.414 6.244-.364 3.562M440.114 292.794l-.137-.071-.188-.012-.356.012-.368.06-1.269.308M441.977 299.47l-.33-1.271-.444-1.79-.981-3.453-.108-.162M431.577 264.026l7.081 23.5 1.456 5.268M446.11 297.645l-.696.264-1.819.794-1.266.586-.352.181M536.247 275.083l-.738-2.829-1.487-5.612-1.563-5.807-1.288-4.815-1.38-4.807-.512-2.083-.491-2.016-2.43-7.478-.298-.963-.007-.233.16-.225.238-.12.33-.114 2.736-.699M349.138 335.363l-.083-.158M406.533 322.933l-1.724.029-1.471.038-1.326.045-1.556.135-2.085.233-4.264.584" clip-path="url(#pfb047c21a8)" style="fill:none;stroke:#000"/><path d="m397.659 353.991-1.303-1.986-1.027-2.286-1.333-3.731-.835-2.693-.139-.677.008-.693.169-3.535.23-2.708.482-5.581.047-.301.1-.3.137-.332.076-.399.024-.466-.046-.542-.039-.466-.045-.73-.058-2.568M434.75 322.745v1.286l-.02.62-.107.842-.041.599-.04.504-.014.977M406.533 322.933l17.412-.174 10.805-.014M511.13 241.194l1.02-.211 1.135-.128 1.18-.098 3.341-.384M530.505 116.826l1.119-.558.797-.406.475-.218.337-.098.682-.09 1.985-.105 1.962-.143.896-.09.53-.046.674.03.52.113 1.05.512M527.195 121.903l.168-.424.28-.621.348-.64.399-.684.674-1.061.82-1.001.621-.646M512.81 129.295l-.437-.08-.398-.044h-.422l-.314.052-1.25.512M527.195 121.903l-.813.542-1.675.85-1.038.7-.598.3-.452.151-.843.12-1.195.076-.79-.008-1.754.113-3.518.314-.383.01-.575.015-.153.068-.039.105v.158l.208.504.474 1.399.092.512-.092.406-.26.376-.376.316-.605.365M236.474 276.256l.896-2.332.881-2.407.82-2.472.043-.24v-.177l-.054-.135-.085-.083-.394-.309-.234-.217-.153-.223-.127-.285M221.593 269.535l.92.409 13.96 6.312" clip-path="url(#pfb047c21a8)" style="fill:none;stroke:#000"/><path d="m263.392 297.24-10.25-10.4-3.564-3.671-.56-.557-.467-.451-.414-.353-.39-.301-.59-.4-1.495-.789-4.115-1.843-5.073-2.22M260.579 234.193l-.265-2.11-.908-7.5-.38-4.295-.053-.564-.207-.715-.352-.767-.337-.527-.414-.33-1.065-.433-1.552-.52-.28-.199-.123-.27-.06-.422.03-.955.107-2.618.089-3.243-.035-.316-.073-.304-.375-1.113-.507-1.356-.055-.2-.054-.216-.695-3.788-.061-.275-.115-.372-2.089-6.315-5.41-16.445-1.579-5.63-.06-.121-.108-.06-.196-.02-.398.053-.406.113-.594.222-.736.418-.636.293-.628.218-.583.068-.651-.037-.43-.076-.329-.112-.276-.25-.1-.39-.007-.61.062-.578.114-.294.261-.49.145-.413.123-.624.191-2.333-.053-.488-.123-.4-.184-.36-.19-.309-1.005-1.053-2.353-2.52M272.69 332.009l-.804-.284-5.211-2.053-.398-.098-.49-.007-1.725.173M260.579 234.193l-.31-.281-.223-.196-.137-.068-.284-.022-2.805-.143-.406-.06-.43-.083-.681-.188-.322-.068-.322-.045-.391.015-1.272.18M263.392 297.24l-.353.406-.126.079-.2.06-1.425.233-1.426.346M373.665 326.708l-.016-1.692-.054-2.768M406.533 322.933l.322 1.203.192.79.115.857-.065 1.113-.047.185-.103.162-.613.586M339.087 361.577l-3.586-.305-.422-.15-.306-.188-.39-.574-.105-.056-.128.002-.144.067M335.114 356.683l-.043.866.008.173.05.154.077.113.122.064.154.034.164-.026 1.035-.542.751-.556.651-.475.698-.504.758-.323.836-.414.498-.368.383-.316.337-.391.391-.61.353-.662.812-2.211.114-.526.177-.858.138-.828.076-.639.008-.61-.03-.729-.093-.414-.214-.157-.276-.038-.6.141-2.25-.028-2.238-.08-.349.031-.318.045-.364.165M312.85 355.154l-.047-.107M366.744 416.767l-.114-.562-.108-.895-.191-4.227" clip-path="url(#pfb047c21a8)" style="fill:none;stroke:#000"/><path d="m436.09 411.038-.09-.376-.215-.437-.338-.345-.736-.512-2.015-.993-2.49-1.203-.445-.173-.33-.053-.467.022-1.747.18-5.058.227-.582-.008-.514-.12-.437-.15-.429-.098-.644-.03-1.831-.068-1.241-.076-1.15-.142-.521-.075-.43-.166-.413-.203-.498-.316-.544-.368-.445-.4-.743-1.015-.866-1.165-.56-.7-.705-.94-.421-.542-.253-.308-.759-.632-.735-.685-.583-.428-.728-.49-.468-.263-.337-.143-.33-.067-.329.007-.406.105-.797.294-1.962.707-1.433.459-1.157.399-2.191.812-5.74 2.046-1.564.496-2.43.767-1.624.542-1.617.534-2.697.79-1.778.534-2.307.835-4.897 1.843-3.402 1.459-.798.256-1.532.421M400.504 472.076l.147.185.618.327 1.57.872 1.219.896 1.157 1.158.805 1.226.414.955.582 1.43 1.042 2.33.544.933 1.296 1.467 1.041 1.189 2.537 2.775 1.824 2.129.498.782.284.857.483 3.295.253 1.587.536 2.03.682 2.092.797 1.707.43.632.88 1.128 1.824 2.203 1.012 1.06.866.79 1.755 1.505 2.89 2.272 1.685 1.429M432.415 515.039l-.439-.308-1.801-1.414" clip-path="url(#pfb047c21a8)" style="fill:none;stroke:#000"/><path d="m389.175 511.888 2.054.03 8.874-.053 11.626-.09 7.104-.128 2.56-.023h1.662l.614.038.59.075.966.15 1.463.302.567.158.644.255.644.241.712.256.445.113.475.105M269.848 555.323l-.521-1.113-1.69-5.776-2.1-6.852-.08-.466.214-.49.759-.721.245-.347.33-1.256.758-4.286 1.502-5.16 1.457-3.34.321-.459.43-.353 2.206-1.233 2.86-1.287.788-.647 1.027-1.428.697-1.166 1.51-3.423 1.518-2.316.965-1.354.483-.827 2.015-2.723.407-.797 1.64-2.008.751-1.166 1.548-1.22.551-.27 1.84-.774 3.08-1.76 1.464-1.241 1.257-.768 1.816-1.654 1.157-1.068 1.15-1.384 4.56-7.198.344-.715 2.514-7.288 1.472-3.332.245-1.091.115-.955-.054-1.06-.122-4.536-.33-3.926-.322-1.482-1.67-10.072-.376-2.986.191-2.016.468-4.49.115-5.386.015-10.094.062-5.047-.108-3.557.169-.97.314-1.64.031-.94-.092-4.694.253-1.415.421-1.023.66-.654 2.037-.61 1.127-.308.544-.496.905-2.159 1.601-4.535.345-.422 1.15-.692.758-.293 2.154-1.12 3.456-2.355M226.832 373.26l9.25 5.057 1.99 1.121.82.459.175.143.081.15.065.305.3 1.505.808 2.696.368 1.392.651 2.85 1.333 4.461.26.812.097.151.387.383.969.542 1.223.481.98.166 2.675-.188 3.686-.369 2.774-.646 5.357-1.024 5.425-1.098 3.372-.888 1.885-.654.782-.143.66.008.482.09 1.165.504.79.18 1.333.068.528.12.456.095.644.03 1.322-.087.943-.165M226.832 373.26l-1.335 1.381M226.832 373.26l3.578-3.705M249.34 422.05l-2.337-2.798-.697-.745-.36-.594-.207-.745-.154-.91-.168-.715-.353-.586-.889-.753-.858-.571-.444-.143-1.22-.466-.206-.219-.39-.579-1.587-2.317-.268-.631-.905-1.745-.452-.527-.157-.226-.065-.188-.008-.29.407-1.406.29-1.11.031-.353-.084-.353-1.57-2.67-3.84-6.658-.98-2.15-.46-1.64-1.549-3.355-1.655-3.942-1.487-4.453-1.22-3.57M400.504 472.076l.013.414.112.369.356.88.965 2.249.153.511.031.692-.107.677-.69 2.332-1.548 4.987-1.226 4.437-.996 2.151-2.1 3.926-1.533 2.919-1.348 2.655-.307 1.068-.444 1.617-.797 1.97-.207.693-.345.73-.322.82-.475 1.496-.368 1.512-.146.707M409.563 565.896l-.455-.487-2.514-2.918-1.777-2.129-.437-.646-.406-.678-.95-1.812-.798-2-.95-2.408-.935-2.39-3.203-6.424-3.61-5.679-.574-1.015-.177-.61-.038-.834.299-4.837.33-4.467.206-3.14-.05-.43-.091-.368-.303-.695-1.15-2.497-1.555-3.7-.996-2.438-.207-.812-.047-.594" clip-path="url(#pfb047c21a8)" style="fill:none;stroke:#000"/><path d="m388.24 438.735 1.173 2.796 2.529 5.852 2.023 4.513 1.732 4.197.797 1.79.567 1.85.629 2.694.659 3.91.552 1.67 1.187 3.37.257.5.159.2M385.075 434.115l-3.295-2.949-2.605-2.497-9.097-8.319-1.494-1.37-1.51-1.519-.291-.504-.039-.19M352.061 456.92l.314-1.233.483-1.535.843-1.91 1.257-2.783.56-1.346.352-1.166.23-1.106.36-1.376 1.173-3.483 2.429-6.717.529-1.842.406-1.866.49-1.963.292-.813.858-2.12.889-2.295 1.28-2.738 1.111-2.211.43-.82.397-.83M385.075 434.115l-1.157 1.519-1.103 1.384-.46.813-.368.947-.644 2.354-.375 1.715-.215.775-.858 2.19-1.924 4.715-1.693 4.897-1.31 3.836-1.085 3.9-.172.865.011.26.073.225.536.73.95 1.23.15.413.03.274-.103.301-.356.583-.908 1.132M388.24 438.735l-.19-.453-.867-1.685-.782-1.151-.643-.737-.683-.594M294.582 334.828l-.043-.169-.015-.492-.21-.568-.303-.493-.353-.425-.31-.478-.119-.3-.09-.716M303.562 334.504l-1.114 1.14-.567.091-1.694-.128-.95-.376-.78-.482-.584-.36-1.755-.181-1.536.62M421.93 438.82l.612-1.388 1.012-2.904.92-2.993.85-2.746.222-.169.337-.105.805-.075 2.35-.05 1.627-.135.292-.154.137-.192.027-.259-.475-6.379-.141-.226-.188-.12-.238-.06-.644.038-2.249.297" clip-path="url(#pfb047c21a8)" style="fill:none;stroke:#000"/><path d="m438.52 437.948-1.83-.095-1.304-.045-1.64.023-6.782.571-5.035.418M388.24 438.735l.33.306.23.316.333.516 1.958 4.419.728 1.27.414.527.582.64.798.511 2.237 1.219 1.77 1.038.997.33.881.158 1.057.083.936-.105 1.494-.384 1.548-.481.575-.286.567-.368 3.341-2.956 2.85-2.483 1.717-1.384 2.499-1.79.494-.278.809-.293.548-.147.885-.034 3.111-.259M409.563 565.896l-.225 1.34-.399.7-.42.309-.261.067-.445-.143-1.732-.932-2.475-.88-.935-.09-1.288.045-2.46-.504-.666.323-.338.406-3.54 5.385-3.663 5.438-13.426 14.373-2.024.775-1.126.518-4.13 2.738-.537.271-.736.158-2.054.06-.705.15-.644.294-2.483 1.346-4.705 1.18-1.79.945-1.42 1.109-.572.068-1.15-.166-.628-.026-.505-.117-.33.117-.218.192-4.798 4.475-4.613 3.918-4.912 5.016-.56.738-2.77 4.741-.518 1.185-.49.421-2.62 1.565-.342.39-.318.79-.33.711-1.843 1.786-.566.478-1.491.684-.613.365-1.111.308-2.253.452-1.575.346-.583.094-2.494.248-.536.082-1.35-.285-.329-.041-1.494.052-.207-.218-2.162-5.227-1.157-1.978-.612-.444-1.196-.451-.421-.452-.1-.33-.05-.779-.456-.236-.49-.279-.445-.413-1.195-1.46-.475-1.158-.07-.602.3-2.715-.36-.79-2.951-2.827-7.84-8.935-1.31-1.49-2.736-3.406-3.947-4.55-.629-1.316-.198-.527-.544-2.301-.583-1.234-.253-.45-.95-2.671-.337-.564-1.664-2.257-.82-1.632-.444-1.376-.084-.654-.084-1.933-.26-1.28-1.196-4.18-.82-1.7-.874-1.12-2.269-1.739-.52-1.429-.836-2.165-.345-1.7-1.195-3.062-.391-.51M200.978 494.43l1.493-1.21.383-.188.375-.136.667-.105.521.022.56.128.498.3.628.287.406.135.537.03.413.083.598.233.828.429.69.406.506.512.544.39.658.43 3.626 1.812 1.586.88.605.248.644.293.636.384.651.527.996.64 2.46 1.42 1.058.693 1.104.707 1.057.587.813.526 1.164.692 1.84 1.218.498.392.214.36.154.565v.669l.022.925.13 1.023.238.744.813 1.806.59 1.075.368.534.39.407.476.564.674.955.307.436.16.33.138.287.192.308.3.324.85.684.835.504.43.338.329.391.26.452.223.473.444 1.64.322 1.046.054.601.115.737.184.64.268.97.368.82.467.842.383.587.467.572.407.406.368.3.444.234.36.143.406.09.522.007h.52l.53.151.46.21.566.347.46.27.506.18.467.189.422.285.398.361.476.783.475.925.306.526.291.346.544.58.652.616.965.767.843.617.452.36.307.37 1.402 1.842 1.878 2.655.421.685.276.368.337.248.414.226.621.21.996.196 2.629.271.498.06.383.143.314.21.2.272.076.36-.007.361.015.527.053.67.177.985.161.692.184.556.376.715.582.691 1.195 1.122 1.495 1.278.82.616.36.234.659.263M582.663 593.805l-5.256-3.941-.859-1.144-.153-.812-.03-1.595-.644-1.956-.674-1.204-2.82-11.253-.183-1.504-.98-4.484-1.656-6.95.123-.693.888-.36.307-.422.184-3.1.613-3.58.643-2.197 1.563-3.37.766-3.1.061-1.654-.398-6.98.306-2.408.276-.451 1.307-.213 3.341.33 1.319.452 2.759.3 1.134-.15 2.115-.962-3.033-3.189-1.778-3.19-1.042-1.293-.614-1.113.154-.45-7.6-10.68-1.87-2.317-1.778-1.294-2.055-1.775-3.157-1.264-2.086-1.444-.736-1.023-.95-2.227-.276-1.264-.03-1.534-.399-1.474-.368-.692-.49-.602-1.165-1.174-1.963-1.233-1.594-.783-2.467-1.352-3.939-3.444-1.433-1.843-.551-.376-3.304-1-1.31-.625-.694-.455-1.49-.64-1.054-.236-.954-.451-4.345-2.317-.758-.083-.959.016-1.264-.294-1.02-.369-1.716-.842-2.809-1.877-.295-.575-3.417-2.941-2.23-2.738-.63-.436-1.018-.496-1.831-1.249-2.085-1.993-1.142-1.662-2.253-2.317-1.242-2.121-1.463-3.536-1.931-3.084-.506-.383-.337-.105-.613-.023-3.718.527-1.287-.008-2.506-.512-.498.046-3.449 1.24-.452-.164-.582-.414-1.878-2.182-1.478-2.798-.832-.248-.375.015-1.311.463-.533-.083-.153-.154-.436-1.136-.238-.365-.445-.432-2.16-1.633-1.388-.737-4.767-1.895-3.34-.843-4.852-2.136-1.34-.105-1.878.346-1.25.098-5.234.113-9.64.737-.92.007-7.365-.341M436.09 411.038l-.114.353-.145.316-.046.294.022.466.154.993.008.632-.047.571.062.565.16.737.223 1.278.069 1.204.13 1.888.468 4.317.283 2.52.391 3.941.46 3.844.352 2.99M450.92 405.869l-2.759 1.023-4.904 1.324-.89.12-.766.271-3.035 2.317-.429.18-.643.361-1.35-.24-.053-.187M432.415 515.039l2.006.226 1.501.18 1.824.196 6.637.526.682-.007.989-.03h.528l.72.03.951.083 1.111.037h.927l1.043-.037 1.931-.166 1.211-.075 1.705-.128 1.1-.105.697-.098.805-.188 1.142-.263.597-.12.575-.068 1.065-.068.552-.045.644-.113.743-.113.659-.037.881-.008h1.38l.835-.053.613-.098.766-.21 1.717-.459 1.203-.376 1.41-.428 1.418-.301.79-.06.636.022.436.106.368.188.468.308 1.172 1.128.797.962.59.572.537.406.352.166.43.098.536.022 1.563-.105 1.464-.24.552-.076.69-.06.429-.068.291-.158.674-.534.66-.436 1.003-.767.736-.58.322-.353.237-.406M335.114 356.683l-1.56-.39M191.498 511.887l.514-.132.79-.942.67-2.354 1.458-4.318 1.84-3.731 4.208-5.98M210.563 484.799l-6.038 4.302-2.208 2.888-.184.242-.122.12-1.073.993.04 1.086M582.663 593.805l-.282.35-.575 3.376M185.09 517.263l.644.21M185.734 517.474l1.103-1.48 4.661-4.107" clip-path="url(#pfb047c21a8)" style="fill:none;stroke:#000"/><path d="m197.934 496.021-2.146 2.588-.306.15-2.085 1.745-.828 1.174-.245.571-.061.723.398 2.708.246 1.023.03.872-1.439 4.312M221.593 269.535l-25.152-11.194-1.932-.538-1.773-.303-1.791.02-2.891.433-1.465-.096-1.307-.488-2.488-1.522-3.513-2.603-.677-1.052-.519-1.208-.319-1.556-.389-9.7-.197-.96-.595-1.117-1.111-1.06-6.747-5.933-6.719-5.89M184.11 126.057l2.237 13.542.582 2.048.092.811-.429 1.326-1.87 3.279-.214.904-.49 3.521-1.472 4.302-.061 3.07 1.624 16.102-1.011 4.332-2.391 7.586-5.978 19.17-2.513 8.394-.49 1.023-.369.421-2.881 2.378-2.391 1.354-2.698 2.648-1.379 2.5M167.035 110.349l.368.54 2.483 1.597 2.973 2.646 3.28 2.44.89 1.023 1.624 1.204 3.709 3.732 1.747 2.526M152.75 373.382l1.625.964 3.127.541 3.157-.12 4.966-1.354 10.484-2.437 5.517.06 9.626 5.236 6.62 4.091 1.84.843M184.324 345.132l-.246.692.675 3.821.552 1.414 4.168 9.328 10.24 20.819M114.494 366.583l-4.912 1.522M152.75 373.382l-2.33-1.383-3.678-1.835-3.985-.15-7.142-.542h-3.985l-4.936-.783-5.21 1.083-3.311-.932-3.679-2.257M111.552 364.268l.827.42.399.272 1.716 1.623M111.552 364.268l-1.38 2.557-.59 1.28" clip-path="url(#pfb047c21a8)" style="fill:none;stroke:#000"/><path d="m166.974 340.197-.062 1.024-.521.872-.49.482-.736 1.324-.368.33-1.532 1.324-.307.241-.766.511-2.606 2.107-.889.752-1.992 1.233-3.525 1.324.03.692-.306 1.083.214.903.705 1.625 1.778 3.58 1.012 2.377.214 1.053.154 2.046.153.541-.43 1.024-3.494 5.476-.46 1.261M135.921 594.618l.705 1.114 1.472 1.353.276.542.03.842-.214.753-2.545 4.091-.95 2.377" clip-path="url(#pfb047c21a8)" style="fill:none;stroke:#000"/><path d="m112.298 598.959.541.383 1.778-.18 2.85-.572 2.76-.24 3.709-1.475 2.574-.692 4.476-.511 4.935-1.054M151.984 595.16l-2.544.06-2.36.842-.706.03-1.349-.24-6.651-1.685-.981-.06-1.472.511M185.734 517.474l.337-.12.398.06 4.476-1.143 1.195-.482M200.723 276.905l9.534-3.31 11.336-4.06M193.09 279.583l1.748 7.763.123.18.245.06 1.532-.541M440.988 314.456l-.337 8.215M279.166 379.871l-2.268.241-4.475 1.023h-1.042l-.92-.18-3.127-.933-6.652-1.715-3.464-1.084-9.135-2.527-7.694-2.287-2.422-.602-.367-.18-7.19-2.072M450.92 405.869l-1.165-6.379-1.686-7.613.061-.18-.122-1.054-.49-2.196-1.135-6.289-1.655-9.358-1.257-10.29.03-.633-.551-2.677.03-.392-.183-.54-.552-5.447-.123-2.077-.184-1.233-1.287-26.84M193.09 279.583l7.633-2.678M183.618 285.72l1.625-2.256 1.287-1.504.43-.301 1.839-.752.736-.15 3.555-1.174M456.438 404.033l-4.936 1.715-.582.12M201.367 281.93l-.644-5.025M446.11 297.645l-1.842-5.816-2.299-8.906-5.456-18.897-5.855-19.407-.123-.572-.337-4.333.061-.361-.705-7.07.03-3.883.553-1.564 2.298-4.393" clip-path="url(#pfb047c21a8)" style="fill:none;stroke:#000"/></g><g id="PatchCollection_1"><path d="m339.246 355.028-1.839-.963-.962-1.959-.062-3.009 1.288-2.708 2.618.334 2.268-.24-.123 2.046-1.042 3.73-.43 1.445-.612.903zM295.79 339.779l.15-.685.233-.766-.017-.553-.15-.391.017-.636.15-.668-.332-1.01.066-.342.424-.088.614.133.406-.225.315.065.4.13.39.006.23.402.588.127.335.313.531.245.547.016.466.065h.53l.415.13.382.164.315.032.2-.163.249-.31.182-.162.449-.147.331.065.88.456.98.522.4.264.048.371-.05.277-.35.247-.547 1.09-.198.44-.448 1.938-.332.586-.515.278-.615.228-.514.26-.73.326-.93.57-.299.342-.58.473-.133.635-.183.375-.332.375-.432.26-.365.408-.398.358-.332.343-.448.293-.548.211-1.112.473-.598.294-.498.293-.448.553-.415.555-.05.505-.05.782v.554l-.066.814.017.62-.05.733-.067.407-.132.684-.448.929-.714.765-1.08.473-1.675.195-1.312.636-.448.815.05.863.232.88.398 1.124.449.522.165.749.117.83-.083.457.282.717.016.863.167.538.564.7.166.995.033.651-.282 1.108-.648 1.564-.896 1.434-.083.44.1.62.066.651.631.586.382.408.266.782.879 1.971.83 1.336 1.063 1.564.713.636.531.39.78.294.665.082.912.097 1.129-.423.581-.457.73-.684.233-.993.315-.766.25-1.565-.3-.586-1.062-.798-.531-.652-.166-.636.133-.684.282-.553.88-.522.53-.163.681.114.631.293.382.391.25.994.414 1.075.564 1.972.315 1.483.466.863.414.733.565 1.385.05.424.265.619.515.505.946.538.78.407 1.095.407v.391l-.497.196-.797.032-.863-.358-.631-.375-.946-.488-.564-.668-.88-1.336-.3-.538-.381-.391-.797-.342-.58.113-.78.408-2.125 1.792-1.146 1.255-.664.163-.514.342-1.361 1.922-.515.57-1.096.701-.912.39-.731.132-.996.276-.996.522-.697.586-.647.783-.282 1.026.05.488.43.652.516.408.265.293.017.277-.133.684-.332.538-.432.733-.282.586-.05.636.05.537.15.587-.067.652-.531 1.189-.498.912-.349.359-.597.065-.548.18-.133.472-.083.716-.033.652.033.554-.017.392-.365.39-.282.244.282.832.897.863.216.424.016.651-.116.848-.963 1.303-1.261.423-.482-.162-.282-.228-.415.016-.15.31-.464.57-.664.31-.93.472-.663.538-.532.7-.315.896-.183-.391-.016-.407.249-.505.514-.7.697-.44.499-.701.215-.815.664-1.45.033-.782-.199-.473-.597-.537-.581-.587-.366-.505-.066-.44.382-.977.332-.603.2-.603.264-.44.3-.326 1.078-.537.299-.343.282-.39.25-.294.464-.374.431-.424 1.013-.635.315-.212.366-.26.265-.44.515-1.157.332-.668.216-.473.381-.505.25-.408.05-.44-.1-.537-.2-.359-.215-.31-.415-.325-.349-.717-.116-.717.116-.847.266-.652.381-.325.216-.505.316-.473.282-.521.614-.212.498-.44.78-.179.647-.05.814-.211.697-.326.332-.211.133-.327v-.83l-.017-.424.067-.472.182-.375.498-.538.332-.603.05-.44-.15-.326-.232-.57-.448-.521-.415-.277-.531-.619-.565-.44-.464-.83-.465-.539-.282-.96-.332-.359-.664-.391-1.162-.766-.531-.668-.913-.798-.232-.278-.449-.325-.68-.717-.515-.782-.88-1.499-.448-.635-.398-.278-1.71-.668-.614-.52-.614-.229-.564-.13-.781.13-.332-.065-.481-.294-.398-.146-.582-.147-.298-.18-.581-.406-.233-.505-.116-.603-.05-.766.133-.489.515-.342.265-.489.332-.195.399-.098.63-.18.399.148.448.342.116.538.365.39.797.196.431.18.565.374.332.179.647.147.98-.065.53.13.632.13h1.129l.448-.097.514-.18.233-.39.431-.343.498-.44.448-.538.316-.537.365-.799-.332-.39-.299-.652-.664-.978-.266-.537-.398-.62-.315-.716-.316-.929-.066-.717-.033-1.548.05-.798.215-.978.283-.766.248-.146.084-.196-.017-.391-.232-1.743-.034-.456-.082-.391.248-.31.449.017.53.26.482.049.564.244.78.196.598-.049.548-.18.565-.292.232-.522.066-.538.1-.537.1-.44.049-.49.266-.406.381-.31.764-.293.249-.391.73-.912.565-.783.365-.325.116-.327.15-.52.248-.538.167-.456.033-.327.216-.863.415-.75.132-.39z" clip-path="url(#pfb047c21a8)" style="fill:#00f;fill-opacity:.8"/></g><g id="PatchCollection_2"><path d="m321.622 350.096-1.267-2.266-2.83 1.402 1.349 2.318zM323.81 355.911l-.24-1.074-2.348.42zM323.57 354.26l-.613-1.86-.694.171.64 1.873zM318.801 353.096l-.335-.726-3.68 2.022zM317.13 346.656l-1.637-2.005-.718.357 1.365 2.313zM316.322 343.648l-1.325-2.461-.84.446 1.76 2.144zM314.761 344.581l.496-.268-1.861-2.372-.182.08zM316.22 344.313l.345-.158.798 1.438zM324.65 344.876l-2.06-3.715-1.832.95 2.06 3.526zM328.047 328.407l-.44 4.994-.405.623-.388.103-.985-1.4-.37-3.093 1.954-.432.106-.847zM336.417 343.806l1.497-.727-.2-.407-1.44.659zM327.717 350.904l.37-.084-.57 1.708-.228-.056zM322.311 359.22l.428-.155-.87-.784zM328.742 328.22l.283-.188.322.06.161.226-.008.24-1.134 2.686z" clip-path="url(#pfb047c21a8)" style="fill:green;fill-opacity:.8"/></g><path id="PatchCollection_3" d="m312.38 356.775 3.389-1.223 1.915 5.115-3.388 1.222z" clip-path="url(#pfb047c21a8)" style="fill:#90ee90;fill-opacity:.8"/><g id="PatchCollection_4"><path d="m318.557 368.268-5.58 2.287-5.088 1.083-5.242.3-2.084-1.564-1.993-4.874-2.943-3.49-1.87.36-2.329 2.197-1.226.18-1.165-5.054 1.962-1.745 3.862-3.009-.245-3.19.644-2.557 4.843-3.009 2.452-2.046 3.556-2.196.215-1.324-.092-1.685.23-1.516 1.456-2.275 1.655-1.896 3.096-2.768 3.342-2.829 3.096-2.527 2.39-3.039 2.361-2.708 3.494-2.798 2.943-.813.92 1.685 1.042 6.65 1.931 1.565 1.656-.241 2.544 1.083 1.287-2.046 2.759-3.43 2.299-.963 3.372-.722-1.931-6.228 1.38-4.514-2.33-1.565.275-1.805.368-1.083 1.41-1.896 1.717.15 2.575.753.123 7.01-.123 6.23 1.318 5.596.858 3.731 4.353-.241 4.69-1.113 7.296-1.776 2.513-.661 2.79-.392 1.44 3.31 2.484 1.535 1.379 6.198-7.725 1.866 1.318 4.122-5.732 1.143-13.978 3.701-5.579 1.865-3.586 5.657.06 3.28-1.44 5.386-.215 2.677.215.692 3.188-.09 2.76 3.04 3.616 4.03 2.084 3.22v1.685l-3.402 3.04-3.587-.452-4.138-6.62-4.2-5.536-5.916 2.227-7.112 1.173-5.026-1.564zM277.205 340.196l11.924 7.07 5.027-4.964.89-5.266-1.257-2.467-5.671-4.393-2.667-2.257-2.422-.992-4.353.992-2.759.813-1.87-3.07-1.44.693-1.932.752-4.138-.602-3.862.783-1.84 1.655.246 3.279 6.253-1.595 1.564.572 1.042 1.204 2.85 3.58 3.71 3.792z" clip-path="url(#pfb047c21a8)" style="fill:#d3d3d3;fill-opacity:.8"/></g></g></g><defs><clipPath id="pfb047c21a8"><path d="M99.205 86.4h539.59v554.4H99.205z"/></clipPath></defs></svg>