<svg xmlns="http://www.w3.org/2000/svg" width="960" height="960" viewBox="0 0 720 720"><defs><style>*{stroke-linejoin:round;stroke-linecap:butt}</style></defs><g id="figure_1"><path id="patch_1" d="M0 720h720V0H0z" style="fill:#fff"/><g id="axes_1"><path id="patch_2" d="M194.748 640.8h348.504V86.4H194.748z" style="fill:#fff"/><g id="LineCollection_1"><path d="m392.67 340.903 8.168.186M392.67 340.903l-1.28.038M392.67 340.903l.043 8.076M392.422 383.154l-3.58.277M392.422 383.154l5.12-.234M392.422 383.154l-.024-6.95M392.422 383.154l-.25.42.027 2.974M392.963 386.556l-.088-2.955-.453-.447M392.963 386.556l4.598.018M392.963 386.556l-.764-.008" clip-path="url(#pf0d789d758)" style="fill:none;stroke:#000"/><path d="m392.928 396.609-.01-5.774.045-4.28M392.86 411.843l.008-4.752M392.86 411.843l-.076 7.879M392.86 411.843l5.704-.088M392.86 411.843l-3.983.051M392.765 427.872l.019-8.15M392.765 427.872l7.637-.497M392.765 427.872l-3.852-.014M393.474 435.697l-.363-.616-.346-7.21M393.474 435.697l1.2 7.575M393.474 435.697l-4.247-.288M393.474 435.697l1.699.413M401.4 435.53l-3.65-.07-2.577.65M409.929 478.236l-.57-1.569-1.458-3.564-2.187-4.31-2.464-6.605-1.459-5.657-.906-3.863-2.705-11.182-1.453-4.174-.56-.787-.994-.415M409.929 478.236l.74 2.31 1.331 8.407 7.543 51.735.554 3.888.025 2.666-.579 2.567-1.683 3.689-8.4 15.998-2.765 5.507-2.465 4.361-6.347 10.157M390.703 600.944l6.411-10.191.77-1.232M415.17 630.138l-1.06-3.676-5.236-13.908-4.4-10.587-6.59-12.446M415.17 630.138l-5.066-2.42-2.779-1.887-3.493-3.933-4.523-4.483-1.589-1.338-3.491-2.203-1.191-1.495-1.27-1.966.027-.55M390.703 600.944l1.144 7.896-.052 1.023M386.717 607.283l.984.353 1.002.274 1.866 1.061 1.226.892M386.717 607.283l3.986-6.339M386.717 607.283l-3.163 5.028M391.39 340.94l-.087 7.952M391.39 340.94l-8.524-.372M390.752 372.61l-1.996-.13M390.752 372.61l1.78.097M388.86 375.245l1.553-2.154.34-.481M390.752 372.61l.273-8.107M400.997 382.873l-3.454.047M400.997 382.873l2.54-.038M400.997 382.873l.068 3.479M400.997 382.873l-.08-7.222M382.945 383.612l5.897-.18M382.945 383.612l.003 1.479M382.945 383.612l-.016-7.143M367.142 388.254l2.53.18 2.694-.017 2.868-1.096.933-.84 1.52-1.626.484-.633.725-.223 2.021-.102 2.028-.285M401.065 386.352l-3.504.222M401.065 386.352l.017 4.554M465.304 395.758l-8.117 2.932-1.597.155-1.336-.155-5 1.271-1.702-.052-2.173.208-4.06 1.064-1.518.156-21.602-5.631-2.67-.416-2.2-1.011-3.063-3.192-4.74-4.127-1.269-.545-3.192-.063M385.984 386.729l2.83-.052M388.991 396.656l3.937-.047M388.991 396.656l-.002 3.553M388.814 386.677l-.032 2.035.21 7.944M401.301 396.513l-3.568.009M401.301 396.513l.259 3.579M401.301 396.513l-.09-2.663M388.99 400.21l3.988-.087M388.99 400.21l-.11 6.815M397.829 400.04l3.73.052M397.829 400.04l-4.851.083M397.829 400.04l.164 6.971M397.829 400.04l-.096-3.518M369.723 393.912l-7.815-.105M367.142 388.254l.124 1.418 2.457 4.24M370.258 400.323l.49-2.58-.55-2.725-.475-1.106M355.822 393.649l-6.467.175M355.822 393.649l6.086.158M355.822 393.649l.962-6.91M355.822 393.649l-.627 4.483M361.908 393.807l.999-6.034M367.153 400.235l-6.193-.32.948-6.108M377.248 400.247l-2.175-.002M367.153 400.235l3.105.088M367.153 400.235l-.568 6.771M366.585 407.006l2.926.032M366.585 407.006l-2.854.105M392.868 407.091l.11-6.968M392.868 407.091l5.125-.08M392.868 407.091l-3.988-.066M375.023 407.039l13.857-.014M375.023 407.039l-.04 5.183M375.023 407.039l.05-6.794M375.023 407.039l-5.512-.001M375.073 400.245l-4.815.078M374.98 412.809l.004-.587M368.544 414.859l.333-2.618M369.511 407.038l.747-6.715M369.511 407.038l-.634 5.203M366.88 340.636l8.034-.187M366.88 340.636l-.078 7.98M201.45 286.532l2.932 2.128 12.097 5.242 10.055 3.218 6.127-.623 3.875.83 4.19 1.765 18.485 10.744 4.818 3.166 5.341 2.595 6.128 3.685.733 1.194.471 1.608 3.404 4.828 4.346 7.37 5.028 2.439 2.722 2.802 14.559 10.848 4.347 1.972 1.728.052 5.865-2.335 4.765-1.61 6.023-3.737 3.246-1.09 1.833-1.297 2.67-3.166 5.552-5.087 3.823-1.349 3.77 1.765 4.923.986 1.885 1.557.838 2.128 3.194 1.817 3.352-.416 2.305.075M374.825 364.271l8.079.266M374.825 364.271l.084-8.328M382.812 372.416l-6.939-.034-.674-.064-.307-.182-.216-.486.149-7.379M409.743 364.221l-3.482-.09M391.025 364.503l1.57-.005M391.025 364.503l-8.121.034M391.025 364.503l.15-8.409M392.594 364.498l8.237-.138M392.594 364.498l.065-8.39M392.594 364.498l-.062 8.209M406.261 364.132l-5.43.228M406.261 364.132l.252-8.18M405.376 372.623l.347-.156.262-.505.157-.637.066-3.178.053-4.015M407.123 341.002l-6.285.087M407.123 341.002l.02-5.216M407.123 341.002l-.288 7.915M414.558 339.629l-1.435 1.02-1.122.374-4.878-.02M392.713 348.979l-1.41-.087M392.713 348.979l8.185-.087M392.713 348.979l-.054 7.13M391.303 348.892l-.128 7.202M391.303 348.892l-8.267-.12M366.802 348.617l8.178.239M374.91 355.943l-7.118-.321-.632-.178-.196-.254-.177-.492.015-6.081M406.513 355.953l-5.614.024M406.513 355.953l.322-7.036M410.45 355.664l-2.24.209-1.697.08M392.659 356.108l-1.484-.014M392.659 356.108l8.24-.13M391.175 356.094l-8.106-.153M392.532 372.707l-.134 3.497M392.532 372.707l8.283-.145M400.815 372.562l.102 3.089M400.815 372.562l.016-8.202M400.815 372.562l4.56.06M382.929 376.469l5.917-.218M382.929 376.469l-.117-4.053M392.398 376.204l5.22-.301M392.398 376.204l-3.552.047M400.917 375.65l-3.3.253M385.668 412.002l3.209-.108M402.712 411.666l-4.148.089M402.712 411.666l.602 7.791M402.712 411.666l-.419-4.516M382.866 340.568l-7.952-.12M382.866 340.568l.17 8.204M382.866 340.568l.3-7.688M383.036 348.772l-8.056.084M383.036 348.772l.033 7.17M383.069 355.941l-8.16.002M383.069 355.941l-.165 8.596M382.904 364.537l-.092 7.879M382.812 372.416l5.944.064M375.107 336.04l-.193 4.409M374.914 340.449l.066 8.407M374.98 348.856l-.07 7.087M400.838 341.09l.06 7.802M400.838 341.09l-.13-5.589M400.898 348.892l5.937.025M400.898 348.892v7.085M400.899 355.977l-.068 8.383M388.756 372.48l.103 2.765M388.846 376.251l-.004 7.18M388.846 376.251l.013-1.006M388.842 383.431l-.028 3.246M388.814 386.677l3.385-.129M388.88 407.025l-.003 4.87M388.877 411.894l.048 7.885M388.925 419.78l3.859-.058M388.925 419.78l-5.563-.096M388.925 419.78l-.012 8.078M397.543 382.92l.018 3.654M397.543 382.92l.075-7.017M397.561 386.574l.172 9.948M397.733 396.522l-4.805.087M398.564 411.755l.996 7.731M398.564 411.755l-.571-4.744M401.4 435.53l1.063 5.384M401.4 435.53l-.998-8.155M399.56 419.486l.842 7.889M399.56 419.486l3.754-.029M399.56 419.486l-6.776.236M397.993 407.011l4.3.139M367.142 388.254l-4.235-.48M356.784 386.738l4.422.566 1.701.47M356.784 386.738l-6.117-.495M351.162 381.68l5.302 1.79.491.726.106 1-.277 1.542M350.667 386.243l-1.312 7.58M350.667 386.243l.495-4.563M536.55 97.105l-3.255 8.09-.753 2.085-.579 2.239-.29 1.664-.192 1.875-.02 2.525.328 28.427-.154 2.966-.193 1.511-.386 1.683-.501 1.473-.889 2.047-3.551 6.657-1.506 3.214-1.737 3.96-2.567 6.083-.562 1.455-5.693 17.543-.503 1.663-.386 1.818-.25 2.257-.02 1.76.193 1.722 1.312 6.848.156.861v1.664l-.251 1.78-.425 1.721-1.082 2.372-5.249 11.019-.329.803-.52 1.511-.31 1.511-.288 2.257-.097 4.209-.059 1.702-.385 2.392-.83 2.735-.695 1.645-3.918 7.002-2.22 3.921-11.87 21.253-5.725 10.25-2.111 3.79-1.37 2.526-1.564 2.831-1.094 1.546-1.404 1.552-1.463 1.27-1.461.994-2.683 1.496-12.906 6.756-8.558 4.828-9.235 5.18-2.79 1.728-1.884 1.376-4.655 3.972-12.563 10.506M407.143 335.786l2.861.467 2.592 1.064 1.962 2.312M428.464 372.699l-16.91-.157-1.303-.14-1.62-.157-1.251.279-2.004.099M344.963 376.918l.472.726 1.1.883 3.089 1.505 1.538 1.648M344.878 383.807l-1.63 9.45M343.247 393.257l6.108.567M343.247 393.257l-.228 1.32M349.355 393.824l-.261 2.103M367.487 290.078l-.313 6.03M367.174 296.109l-4.157-.013.236-6.073 4.234.055M367.487 290.078l6.031.077M385.1 290.251l-5.666-.02M385.1 290.251l.066 5.755M385.024 280.74l-.211 3.281.287 6.23M379.434 290.23l-5.916-.075M379.434 290.23l-.078 5.918M373.518 290.155l-.158 5.973M367.174 296.109l-.184 5.06M367.174 296.109l6.186.02M385.166 296.006l.02 5.411M385.166 296.006l-5.81.142M379.356 296.148l-5.996-.02M379.356 296.148l-.079 5.216M373.36 296.128l-.236 5.132M373.124 301.26l-.13 4.671M373.124 301.26l6.153.104M385.187 301.417l-.175 4.67M385.187 301.417l-5.91-.053M383.165 332.88l-.358-13.706-.931-3.097-1.132-3.321-1.153-2.984-.47-2.907.156-5.501M405.566 406.995l-3.273.155M402.293 407.15l-.733-7.058M392.928 396.609l.05 3.514M404.728 399.962l-3.168.13M368.877 412.24l6.107-.018M378.053 412.17l-3.07.052M404.493 419.554l-1.179-.097M400.402 427.375l3.383-.088-.47-7.83M388.913 427.858l-3.85.078M388.913 427.858l.314 7.551M389.227 435.41l.137 4.761M419.457 463.409l.314-4.412-1.624-6.746M417.74 475.24l.145-.673.314-3.373-.419-2.906.42-3.426 1.257-1.453M417.74 475.24l-.378 1.766-2.828-.052-4.605 1.282M390.706 332.932l-7.54-.052M379.185 332.828l3.98.052M407.143 335.786l.007-1.92" clip-path="url(#pf0d789d758)" style="fill:none;stroke:#000"/><path d="m421.088 475.322-1.338.204-2.01-.287M425.839 474.595l-1.413.217M420.342 470.665l.746 4.657M421.839 480.009l-.751-4.687M421.088 475.322l3.338-.51M423.717 470.01l.71 4.802M425.109 479.422l-.683-4.61M536.55 97.105l-1.152-.043-.916.168-1.27.818-6.821 3.14-2.88.986-2.41.052-2.827.104-3.875.155-2.252-.986-2.67-1.557-8.38-1.92-.837.312-1.729 2.594-2.67.935-2.305-.364-2.042-1.765-1.832-1.505-1.415.468-3.455 1.816-2.724 4.775-3.456 5.813-2.148 2.596" clip-path="url(#pf0d789d758)" style="fill:none;stroke:#000"/></g><path id="PatchCollection_1" d="m423.645 413.247 1.86-.129 1.361 1.271 2.121 1.298 1.728.96 1.703.207 1.02-1.14.21-.675h1.466l1.99 1.764 2.723.986-3.351 1.038-1.31 1.79-1.7 1.713-.133 1.895-.209 1.764.105 2.102-.262 1.998-.602 2.466-1.545.7-1.964.078-1.126-1.22-1.36.182-1.546-.908-.55-1.272-.97-.7-1.151-1.87-.55-1.997.105-1.765.104-1.453.864-2.102.185-1.349-.315-.986-.864-1.22.55-1.22-.236-2.283z" clip-path="url(#pf0d789d758)" style="fill:#00f;fill-opacity:.8"/><g id="PatchCollection_2"><path d="m391.878 372.96.236.117-.249 2.556-2.527.143-.052-.22 2.291-2.492zM400.408 372.931l-.08 2.359-7.513.155-.032-2.405zM389.186 396.953l.019 2.876 3.364-.021-.019-2.876z" clip-path="url(#pf0d789d758)" style="fill:green;fill-opacity:.8"/></g><path id="PatchCollection_3" d="m348.43 333.154 7.98-.21-.581-8.973-7.892.262z" clip-path="url(#pf0d789d758)" style="fill:#90ee90;fill-opacity:.8"/><g id="PatchCollection_4"><path d="m393.91 367.702 2.286.02-.041 2.382-.594.006-.008.782 2.687.023.014-1.674-.972-.009-.008.862-.25.002.038-4.411-.832-.007-.02 1.181-2.292-.02z" clip-path="url(#pf0d789d758)" style="fill:#a9a9a9;fill-opacity:.8"/><path d="m394.36 368.666.026-.792 1.733.056-.025.792zM393.547 366.486l.027-.882 1.495.043-.026.882zM386.616 350.556l-.01.758 1.197.016-.004.323-1.479-.019-.01.77 1.485.019-.003.193-1.235-.015-.012.932 2.543.033.039-2.977z" clip-path="url(#pf0d789d758)" style="fill:#a9a9a9;fill-opacity:.8"/></g></g></g><defs><clipPath id="pf0d789d758"><path d="M194.748 86.4h348.505v554.4H194.748z"/></clipPath></defs></svg>