<svg xmlns="http://www.w3.org/2000/svg" width="960" height="960" viewBox="0 0 720 720"><defs><style>*{stroke-linejoin:round;stroke-linecap:butt}</style></defs><g id="figure_1"><path id="patch_1" d="M0 720h720V0H0z" style="fill:#fff"/><g id="axes_1"><path id="patch_2" d="M90 615.391h558V111.81H90z" style="fill:#fff"/><g id="LineCollection_1"><path d="m367.14 390.072-.166-2.135-.03-1.189-.007-.877M369.66 394.857l-.87-1.414-.93-1.767-.72-1.604M366.437 385.922l.1 1.31.228 1.236.374 1.604M455.088 547.601l1.066 1.89 2.19 3.98 2.152 4.132 1.383 3.486 1.68 4.322.895 2.477.545 1.95.298 2.023v2.688l-.16 3.242.248 2.734.684 2.73 2.356 6.4M493.044 574.027l-1.725 1.345-2.912 2.746-4.321 3.398-4.501 3.791-2.416 1.237-2.67 1.047-6.074 2.065M232.817 221.012l2.13 2.257 2.237 2.706 2.865 3.522 2.191 2.598 1.065 1.046.991.585.825.367.87.218 1.666.15 3.541.38 3.736.598 2.806.463M322.845 258.161l-.99-.734-1.23-.666-2.341-1.129-3.211-1.59-3.211-1.537-3.016-1.537-2.85-1.44-2.957-1.633-2.835-1.468-3.752-2.013-2.206-1.074-1.965-.72-2.4-.953-3.467-1.047-3.826-1.115-2.941-.666-2.701-.449-2.79-.217-2.701-.123-3.167-.054-2.58-.123-2.161-.312-1.47-.435-2.011-.653-2.326-.571" clip-path="url(#p59ab30431f)" style="fill:none;stroke:#000"/><path d="m215.682 286.62.315-1.074.615-1.142.99-.992 1.246-.966 1.965-1.591 2.01-1.305 1.487-1.496.51-.761.135-.503-.03-.598-.18-2.054-.09-1.223.15-.585.375-.64.87-.733 2.76-1.224 2.026-.843 1.066-.734.765-.707 1.396-1.524 1.095-1.141.915-.884 1.23-.884 1.29-.802 1.622-1.034 1.245-1.006 1.74-1.414 1.08-1.074 1.591-1.89 1.726-2.502 1.305-1.836 1.02-1.129 1.351-1.482 1.876-1.795 1.515-1.468.585-.83.405-.87.106-.925.27-1.577.375-1.468.69-2.34.345-.87.3-.802M372.991 317.743l.12-1.93-.03-1.102-.18-1.441-.42-1.89-.48-1.944-.66-1.904-.9-2.148-1.396-2.923-1.455-3.685-1.35-3.073-.706-1.7-.87-1.536-.705-1.156-.856-1.21-.75-.87-1.066-1.074-.99-.925-1.995-1.509-1.846-1.59-1.56-1.401-1.966-1.686-1.8-1.483-1.201-.747-1.17-.571-1.576-.612-2.956-1.278-2.596-.911-2.175-.762-2.626-.979-2.04-.761-.93-.503-.886-.748-1.006-1.251-.9-1.088-1.32-1.767-1.32-1.945-2.161-3.046-1.726-2.338-.885-1.184-.81-.91M381.124 301.06l.645-1.128.315-1.387.15-8.648-.27-3.018.3-1.088.615-1.346.45-1.523 1.546-4.514 1.065-3.21.435-4.445.106-1.265.18-.707.42-.748.93-1.25 2.115-4.216.226-.544-.03-.49-.285-.638-1.095-1.102-3.617-2.692-2.34-2.72-2.462-2.583-.84-1.115-.84-2.04-.03-1.224.18-.49.525-.312 2.476-1.06 3.181-1.007 4.652-1.414 2.91-.972.248-.3.165-.591.045-.673-.315-3.311-1.658-6.486-.067-.612.157-1.727.075-1.006-.015-1.945.322-1.312.338-.755 1.223-1.448 2.063-2.217.668-1.135.008-.333-.106-.374-.412-.3-.87-.36-4.84-1.346-3.518-.83-1.658-.502-3.136-1.102-7.322-2.21-1.17-.122-.42.23-.496.477-.495.816-.42 1.238-.51.951-1.11.897-1.366.748-2.82 2.177-3.437 4.364-.586.939-.48.544-.75.625-.825.38-1.365.191-6.092-.082-7.78-.42-1.553.155-.818.177-2.34.884-.968.483-.939.625-.577.571-1.553 2.027-1.29 2.318-2.109 4.576-1.05 2.08-.188 1.197.383 1.74.495 2.149-.105.455-.21.265-.683.306-.855-.088-1.043-.401-1.027-.231-.84-.075-1.592.21-.614.3-.27.272-.128.34.015.353.195.32.375.38 2.018 1.565 3.841 3.358.106.619-.173.374-.285.285-.758.429-1.35.618-2.911 1.686-1.613 1.115-.443.456-.247.421-.06.605M590.815 339.17l-1.734.306-2.324-.25-2.717-.161-3.098-.574-1.657-.22-1.255-.297-3.711-.929-2.53-.288-1.76-.353-1.413-.244-1.81-.392-1.54-.222-1.67.076-3.63.109-1.621-.449-1.336-.897-.945-1.564-1.14-2.637-1.831-5.439-1.76-5.06-1.316-3.22-1.515-3.154-1.381-2.584-1.245-2.325-.766-1.455-.857-2.066-1.288-2.257-1.148-1.665-2.12-2.026-3.05-1.027-2.355-1.02-1.696-.408-2.7.014-5.791 1.74M422.867 315.54l.63-.856.616-.653 1.395-.693 2.595-.938 2.116-.327 1.74-.312 3.227-.708 2.55-.448 2.387-.299 2.31-.122 2.07.122 3.197.367 2.686.204 1.695-.055 1.215-.312 1.696-.367 1.29-.136h1.141l1.875.272 1.651.476 2.206.462 1.98.53 1.756.082 1.575-.245 1.71-.571 2.957-1.088 1.29-.516 1.395-1.088 1.846-1.836 2.266-2.379 1.05-1.237.796-.762 1.14-.34 2.88.028 2.327.108 2.055.11 2.056.108 2.356.15 1.995.176 2.28.163 3.257-.081 3.39-.232 2.567-.149 2.67-.122 2.056-.164 3.121-.734 2.851-.952 5.328-1.944" clip-path="url(#p59ab30431f)" style="fill:none;stroke:#000"/><path d="m504.087 180.977.901 1.741 2.88 3.753 5.282 4.244 1.68 5.33-2.88 6.092-2.16 1.524-3.842.054-1.8 1.305-.18 5.113-.3 6.201 2.58 3.862 1.38 2.665-1.2 7.343-1.14 5.983-.3 5.82v5.44l-.06 6.417.48 2.72-.54 4.515 1.08 3.916 3.18 3.807 2.942 2.176-1.92 2.61-1.501 1.85 4.141 4.786 2.1 1.958 1.201 3.48 1.74 1.197 3.902 4.731 2.372 6.622M395.349 324.175l2.925-.586 2.356-.067 2.446.19 3.03.38 3.091.164 2.221.163 2.146-.068 1.516-.421 1.5-.653 1.71-1.06 1.02-.993 1.291-1.4.72-1.32.796-1.63.75-1.333M475.068 246.331l.21 1.197.42 1.17.6 1.006.901.979.96.843.96.68.63.788 1.021 1.822 1.41 3.182.541 1.931-.225 1.292-.48.788-1.066 1.115-1.005.748-1.59.857-1.38.57-2.177 1.062-1.365.87-1.246 1.02-.96.91-1.515 1.251-1.981.803-1.86.585-1.366.544-1.14.612-.78.543-1.156 1.074-1.08.653-.645.136h-.826l-1.125-.286-2.326-.584-1.366-.19-1.47-.096-2.205-.068-1.996.163-1.005.205-1.036.598-1.215 1.06-1.305 1.333-1.276.91-2.04 1.36-1.426.667-2.1 1.06-2.296 1.142-1.14.83-.93 1.088-1.577 2.026-.42.612-.15.638-.12 1.224-.12.64-.18.475-.405.571-.87.965-1.86 2.081-1.831 1.781-1.756 2.284-1.2 2.217-.676 2.121-.224 1.264-.016 1.007.075 1.019.346 1.972.42 2.556.315 2.23.24 2.025.255 1.279M372.121 320.816l.285-.707.353-1.251.232-1.115M381.124 301.06l-.465.449-1.005.761-1.11.789-.541.707-.9 1.441-.616 1.537-.375 1.264-.09.68-.105 1.006-.255 1.672-.36 1.387-.645 1.578-.63 1.604-.586 1.047-.45.761M384.5 327.315l-.69 2.964M600.778 368.728l-.27-2.638-1.38-4.65-8.313-22.27M360.59 353.038l-.027.503.02.435.1.622M360.683 354.598l.102.598.1.522.08.346M361.19 355.615l-.206-.445-.301-.572M391.222 370.182l.72-2.923.54-2.556M397.707 365.442l-2.134-.222-3.09-.517M387.35 363.806l2.822.462 2.31.435M373.126 353.936l-.57 2.23-.63 2.881-.69 3.454-.496 2.549M376.397 364.119l-2.385.353-3.272.578M364.28 366.362l2.154-.476 2.423-.476 1.068-.196.815-.164M380.23 371.535l-5.226-.93M381.109 367.558l-.42 2.23-.458 1.747M385.37 372.534l-2.34-.435-2.8-.564M378.348 375.335l-.33 1.332M388.893 381.49l-.702 2.994M389.895 376.499l-.533 2.262-.47 2.73M393.488 385.497l.255-1.462.21-1.536-5.06-1.009M372.466 381.751l4.18.731M373.734 375.845l-.728 3.623-.54 2.283M371.206 387.978l.63-2.964.63-3.263M378.018 376.667l-.6 2.393-.771 3.422M374.747 391.445l1.14-5.533.76-3.43M386.713 384.274l-2.784-.505-1.003-.164-3.288-.548-2.991-.575M388.926 387.502l-.735-1.182-1.478-2.046M385.37 372.534l-.57 2.91-.49 2.44.01.899.465 1.201.345.897.66 1.496.923 1.897M388.19 384.484l-.674-.102-.803-.108M393.488 385.497l-3.129-.57-2.168-.443M392.978 388.128l.24-1.306.27-1.325M390.355 391.666l.01-.761-.103-.527-.33-.823-1.006-2.053M392.978 388.128l-1.951-.259-2.1-.367M369.66 394.857l.825-3.643.72-3.236M374.747 391.445l-1.71-1.686-1.831-1.78M392.314 391.7l.288-1.832.376-1.74M377.553 394.45l-1.576-1.754-1.23-1.251M377.553 394.45l3.256-2.013M372.016 397.861l2.7-1.78 2.837-1.631M381.139 398.297l-1.636-1.822-1.95-2.025M372.016 397.861l-.765-.829-.81-1.087-.78-1.088M374.162 400.064l-.556-.68-.87-.884-.72-.639M381.139 398.297l-1.155.87-1.096.883 1.35 1.563 1.411 1.482M388.836 410.654l-1.875-1.985-2.596-2.746-2.716-2.828" clip-path="url(#p59ab30431f)" style="fill:none;stroke:#000"/><path d="m384.08 401.328-1.006.707-1.425 1.06M378.933 405.148l1.396-1.033 1.32-1.02M374.162 400.064l3 3.167 1.771 1.917M385.79 412.952l-1.56-2.013-1.606-1.78-2.115-2.162-1.576-1.849M385.79 412.952l1.41-1.06 1.636-1.238" clip-path="url(#p59ab30431f)" style="fill:none;stroke:#000"/><path d="m384.08 401.328 2.07 2.366 2.071 2.148 1.92 2.012.811 1.033-1.11.91-1.006.857M389.646 421.299l-.855-1.958-.75-1.727-.585-1.658-.795-1.496-.87-1.508M361.19 355.615l-.225.449M361.31 355.278l-.06.167-.06.17" clip-path="url(#p59ab30431f)" style="fill:none;stroke:#000"/><path d="m361.768 357.355-.316-.911-.262-.83M384.08 401.328l-1.47-1.563-1.471-1.468M392.82 405.1l-1.058-.679-1.208-.694-1.568-.917-1.71-1.006-1.14-.632-.533-.224-.413-.055-.39.055-.382.122-.338.258M378.288 354.833l-2.776-.462-2.386-.435M376.847 337.05l-.81 3.806-.78 3.508-.48 2.175-.66 1.931-.45 2.53-.54 2.936M383.464 355.866l-3.225-.652-1.951-.381" clip-path="url(#p59ab30431f)" style="fill:none;stroke:#000"/><path d="m382.01 337.933-.66 3.195-1.082 5.303-.99 4.16-.99 4.242M376.832 361.916l.766-3.59.69-3.493M387.29 338.844l-.78 3.78-.78 3.888-1.05 4.65-1.216 4.704M382.052 362.807l.707-3.406.705-3.535" clip-path="url(#p59ab30431f)" style="fill:none;stroke:#000"/><path d="m387.35 363.806.631-3.616.69-3.29-2.595-.45-2.612-.584M376.832 361.916l-.435 2.203M382.052 362.807l-2.564-.442-2.656-.449M381.109 367.558l.54-2.529.403-2.222M387.35 363.806l-2.52-.544-2.778-.455M385.37 372.534l.9-4.214 1.08-4.514M363.658 364.214l-.42.129M363.658 364.214l-.277-1.02-.203-.81M364.28 366.362l-.382-1.299-.24-.85M376.397 364.119l-.555 2.474M363.238 364.343l.33 1.115.278 1.046M358.692 366.729l1.74-.884 2.806-1.502" clip-path="url(#p59ab30431f)" style="fill:none;stroke:#000"/><path d="m362.758 362.487.165.707.315 1.149M395.903 374.138l.961-4.486.843-4.21M428.614 349.544l-1.846.082-1.786.258-1.56.19-1.53.218-1.35.123-1.516.462-1.53.856-1.426.612-.915.095-1.11-.136-3.227-.543-3.27-.653-3.722-.843-1.71-.218-.66.19-.421.354-.3.653-.3 1.278-.42 2.23-.69 2.718-.63 2.992-.988 4.98M364.28 366.362l-.434.142M364.731 368.374l-.233-1.217-.217-.795M363.846 366.504l.21.816.277 1.177M359.442 370.74l-.42-2.053-.33-1.958M350.724 371.134l4.787-2.706 3.18-1.7M349.4 369.689l-1.977-2.933M349.4 369.689l.23.683.48.993" clip-path="url(#p59ab30431f)" style="fill:none;stroke:#000"/><path d="m350.724 371.134-.712-.836-.613-.61M375.842 366.593l-.405 2.094-.433 1.919M373.734 375.845l.998-4.12.15-.587.122-.532M352.705 374.41l3.098-1.713 1.996-1.108 1.643-.85M360.957 378.108l-.885-4.663-.63-2.705M350.724 371.134l-.615.23M352.705 374.41l-.75-1.182-1.23-2.094M350.11 371.365l-3.617 1.992M350.11 371.365l.824 1.319 1.276 1.944M385.37 372.534l5.132.952M390.502 373.486l.72-3.304M390.502 373.486l-.607 3.013M395.903 374.138l-2.4-.272-3.001-.38M395.903 374.138l-.812 3.365M400.18 372.915l-.405.203-.57.123-.84.204-1.141.354-1.32.34M352.705 374.41l-.495.218M352.705 374.41l1.185 1.808M352.21 374.628l1.155 1.794M366.33 375.695l-.51.038M366.33 375.695l-.248-1.367-.225-.856M373.734 375.845l-1.373-.02-1.107-.053-.975.043-2.089.077-.683-.027-1.178-.17" clip-path="url(#p59ab30431f)" style="fill:none;stroke:#000"/><path d="m366.562 380.521-.128-2.4-.103-2.106-.002-.32M336.695 379.393l2.265-1.638 2.206-1.455 1.83-1.033M335.45 371.433l1.68-.462 1.05-.163.51.054.42.122.466.367.585.34.54.19.6.463.585 1.033 1.11 1.89M346.238 380.27l-1.5-2.202-.93-1.496-.811-1.305M346.493 373.357l-1.606.917-1.89.993M378.018 376.667l-2.288-.51-1.996-.312M353.89 376.218l-.525.204M356.681 380.501l-1.17-1.876-1.62-2.407M353.365 376.422l1.11 1.7 1.636 2.637M349.689 378.38l2.146-1.047 1.53-.91M389.895 376.499l5.196 1.004M396.729 378.68l-.885-.612-.753-.565M356.681 380.501l2.206-1.224 2.07-1.17M365.82 375.733l-.299.075-1.322.506-3.242 1.794M346.238 380.27l3.45-1.89M346.238 380.27l2.536 4.024M356.681 380.501l-.57.258M359.052 384.09l-1.14-1.713-1.23-1.876M356.111 380.759l1.215 1.822 1.23 1.849M366.787 383.71l-.51.006M366.787 383.71l-.143-1.578-.082-1.61M366.787 383.71l.15 2.16M366.277 383.716l.075 1.033.085 1.173M359.052 384.09l3.51-.176 3.715-.198M366.097 380.555l.082 1.4.098 1.761M359.052 384.09l-.495.34M354.926 386.347l2.16-1.102 1.47-.815M357.911 390.738l.751-.857.825-.584.78-.707.315-.462v-.354l-.27-.585-.87-1.427-.885-1.332M366.937 385.87l-.5.052M357.911 390.738l-1.47-2.19-1.515-2.201M351.504 388.291l1.366-.816 2.056-1.128M351.504 388.291l-2.73-3.997M356.17 395.496l-2.37-3.602-2.296-3.603M356.17 395.496l.676-1.59.315-1.13.24-.856.51-1.182M356.621 411.32l-.03-.74.022-.741-.104-.796-.316-.706-.397-.66-.63-.877-.3-.408-.623-.727-.42-.578-.353-.72-.18-.442-.067-.272-.03-.422.607-1.903.39-1.237.69-1.808.48-1.183.466-.87.345-.734M318.299 305.398l.72.408 2.011.516 1.95.707 2.641 1.115 1.831.925 1.98 1.25 1.231.762 1.29.761 1.831.626 2.04.163 2.582.136 2.43.354 3.571.87 4.862 1.142 1.41.272 3.091.625 3.421.707 2.896.612 2.55.49.976.23.63.177.345.15.39.34.323.441 1.306.327 1.102.244M372.121 320.816l-1.89-.51-2.522-.558" clip-path="url(#p59ab30431f)" style="fill:none;stroke:#000"/><path d="m365.024 327.56 1.755-5.099.93-2.713M369.165 328.742l1.05-2.93.766-2.046.765-1.944.375-1.006M356.471 325.14l.6.176M357.071 325.316l.668-2.046.045-.272-.083-.19-.202-.062-.135.069-.128.162-.262.677-.503 1.486M356.471 325.14l-1.275 3.793-1.516 4.187M357.071 325.316l1.838.497 2.063.598M365.024 327.56l-2.108-.592-1.944-.557M358.256 334.371l1.68-4.827 1.036-3.133M369.165 328.742l-1.778-.489-2.363-.693M362.203 335.554l1.65-4.936 1.17-3.058M366.952 335.18l1.02-2.916.705-2.08.488-1.442M377.988 332.046l.48-2.447 2.536.258 2.805.422M389.046 331.054l-2.655-.408-2.582-.367" clip-path="url(#p59ab30431f)" style="fill:none;stroke:#000"/><path d="m383.21 332.835.3-1.224.3-1.332M395.349 324.175l-1.861.489-1.095.366-1.201.558-.795.612-.615 1.17-.33 1.984-.406 1.7M387.29 338.844l.931-3.807.825-3.983M377.988 332.046l-.48 2.284M383.21 332.835l-2.416-.367-2.806-.422M383.21 332.835l-.526 2.352M353.68 333.12l.548.103M353.68 333.12l-1.455 4.297-.377 1.102M354.228 333.223l2.198.659 1.83.49M362.203 335.554l-1.89-.544-2.057-.639" clip-path="url(#p59ab30431f)" style="fill:none;stroke:#000"/><path d="m355.488 342.209 1.778-4.97.99-2.868M377.508 334.33l-.66 2.72M382.684 335.187l-2.49-.34-2.686-.517M366.952 335.18l.608.136M366.344 336.696l.3-.788.308-.728" clip-path="url(#p59ab30431f)" style="fill:none;stroke:#000"/><path d="m382.01 337.933.42-1.617.254-1.129M366.344 336.696l-1.92-.503-2.22-.639M359.532 343.399l1.59-4.61 1.081-3.235M376.847 337.05l-1.928-.327-2.365-.403-1.116-.202-1.298-.244-.915-.157M367.56 335.316l.817.204.848.197" clip-path="url(#p59ab30431f)" style="fill:none;stroke:#000"/><path d="m368.88 343.657.195-1.278.015-1.278.03-2.026.075-1.754.03-1.604M363.65 344.602l.496-1.482.473-1.427.802-2.373.503-1.502.42-1.122M382.01 337.933l-2.672-.435-2.49-.448M387.29 338.844l-2.88-.462-2.4-.449M395.349 324.175l.255 3.847v2.339l.09 1.984.45 1.415 1.56 2.284.66 1.141.03.572-.12.49-.45.651-.66.273-1.981.353-1.86.136-2.671-.435-3.361-.38M350.98 341.06l.524.127M350.98 341.06l-1.021 2.876M350.98 341.06l.868-2.541M355.488 342.209l4.044 1.19M351.504 341.187l1.966.451 2.018.571" clip-path="url(#p59ab30431f)" style="fill:none;stroke:#000"/><path d="m352.78 350.305 1.62-4.894 1.088-3.202M363.65 344.602l-2.242-.673-1.876-.53M356.666 351.298l1.14-2.876 1.111-3.242.615-1.781M368.88 343.657l-3.781-1.183M361.31 355.278l.728-1.642.51-1.142.465-.938 1.005-1.291.99-1.224 1.426-1.849 1.02-1.414.78-.979.646-1.142M360.792 352.352l.488-1.217.975-2.44.818-2.448.578-1.645M348.343 348.774l-.17.566M348.343 348.774l1.616-4.838M348.343 348.774l.543.233M348.173 349.34l.503.218M348.173 349.34l-.907 2.27-.488 1.353-.18.782-.098.7" clip-path="url(#p59ab30431f)" style="fill:none;stroke:#000"/><path d="m342.967 348.062.345-.163.315-.02.84.136 1.418.503 2.288.822M455.037 355.989l-.27.353-.585.095-.856-.204-1.155-.53-1.38-.544-2.206-.924-3.046-.925-2.19-.625-2.551-.571-2.521-.762-2.236-.693-1.725-.585-1.786-.38-2.386-.177-1.53.027M432.53 339.361l-.705-.082-1.096-.013-.36.122-.225.38-.165.98-.195 2.107-.27 2.584-.285 2.433-.27.965-.345.707M352.78 350.305l-3.894-1.298M352.78 350.305l-.142.367M356.666 351.298l-1.635-.503-2.251-.49M352.638 350.672l2.175.64 1.688.462M349.81 358.551l.81-2.63 1.154-3.222.864-2.027M348.676 349.558l1.86.51 2.102.604M356.666 351.298l-.165.476M360.792 352.352l-1.815-.47-2.311-.584M356.501 351.774l2.07.666 2.019.598" clip-path="url(#p59ab30431f)" style="fill:none;stroke:#000"/><path d="m349.81 358.551 1.372.333.975.28.683.155.435.062.233-.062.157-.156.233-.408.788-1.992.795-2.31.397-1.115.623-1.564M360.792 352.352l-.202.686M361.295 357.375l-.791-.53-1.043-.704-1.495-1.053M345.66 357.335l-1.028-.334-.99-.38-.975-.429-.81-.414-.473-.428M464.91 344.922l-.716.197-.293.125-.236.15-.548.408-.773.493-1.35.435-1.41.49-.66.516-.36.897-.451 1.305-.81 1.687-.9 1.699-.466.91-.9 1.755" clip-path="url(#p59ab30431f)" style="fill:none;stroke:#000"/><path d="m452.741 408.288 1.74-.08 1.441-.042.556-.014.614-.08.436-.11.3-.203.21-.408-.045-.897-.015-1.36-.09-1.93-.105-1.85-.135-2.066-.195-3.684-.195-3.494-.21-3.711-.106-2.121-.105-3.059-.075-2.406-.15-2.882-.27-3.549-.33-4.404-.075-1.863-.12-1.863-.195-2.855-.15-2.379-.06-1.795-.03-1.074-.045-.884-.06-.557-.24-.68M361.295 357.375l.473-.02M361.295 357.375l.3 1.109.345 1.169M360.965 356.064l.128.598.202.713M345.66 357.335l.84-2.89M347.423 366.756l-1.65-2.352-.69-1.373-.33-1.101.104-1.17.286-1.223.165-.72.24-.925.112-.557" clip-path="url(#p59ab30431f)" style="fill:none;stroke:#000"/><path d="m349.81 358.551-1.111-.299-1.343-.374-1.696-.543M375.842 366.593l5.267.965M349.689 378.38l-1.253-1.971-1.943-3.052M336.695 379.393l-1.666.958-1.305.748-1.74.734-1.306.517-4.171 1.36-2.281.733-1.876.72-1.995.749-3.587 1.318-3.075.98-3.587 1.168-2.28.721M276.811 394.68l4.682-1.278 2.43-.244 2.31-.082 3.242-.612 2.926-.475 2.25-.15 1.486-.04 2.43-.164 2.83-.388 2.032-.36 1.853-.36 2.544-.428" clip-path="url(#p59ab30431f)" style="fill:none;stroke:#000"/><path d="M285.784 421.19v-.395l.255-.992.465-.83.63-.774 1.125-.802 1.411-.857 1.305-.992 1.26-1.346.946-1.699.69-2.42-.225-2.257-.525-1.63-.3-1.17.06-.98.27-.923 1.59-3.48 1.073-3.223.398-.665.503-.558.63-.496 1.058-.496 1.343-.49 4.419-1.91 2.423-1.046 1.238-.66M324.226 321.55l2.776 1.346 3.51 1.89 2.672 1.4 3.526 1.673 3.15 1.631 1.651.857 1.291.843.72.68.57.706.27.694.75 2.067.946 2.27.855 2.38.585 1.74M349.959 343.936l-1.2-.401-.63-.38-.33-.586-.3-.842" clip-path="url(#p59ab30431f)" style="fill:none;stroke:#000"/><path d="m340.506 341.128.39.898.24.435.42.49.66.054 1.261-.136 2.34-.598 1.681-.544M349.959 343.936l.503.163M466.2 420.836l-.87-.285-.675-.354-.615-.543-.585-.544-.81-.843-.69-.775-1.111-1.481-1.26-1.469-1.246-1.196-1.11-.938-.81-.571-1.546-1.292-1.11-1.033-1.02-1.224M396.729 378.68l1.35 1.223 1.26 1.264 1.756 1.917 1.156 1.373.96 1.17 1.47 1.767 1.366 1.372 1.635 1.442 1.38 1.114 1.366.884 2.385 1.305 2.822 1.604 1.425.626 1.62.367 1.516.353 1.725.558 1.651.611 2.026 1.034 1.44.761 1.44.557 1.38.422 1.547.449 1.32.272 1.56.407 1.426.544 1.02.462.84.367.781.177 1.335.013 2.116-.054 1.005-.054 1.155-.177.916-.326 1.035-.53.796-.259.614-.027.721.204 1.065.517.72.611.705 1.129.45.938.976 1.903.78 1.318M569.104 471.178l-1.898-.492-4.435-.667-1.103-.313-.962-.525-2.315-1.595-8.238-6.132-8.684-6.232-7.447-5.43-7.668-5.41-4.756-3.426-.705-.109-.953.156-1.11.565-1.366.53-.743.006-.66-.129-.938-.428-2.22-1.502-1.096-1.36-.547-.802-.555-.421-1.599-.619-2.408-.91-.54-.055-.42.089-.908.468-2.01.959-.848.095-.885-.088-.818-.306-.675-.401-1.193-1.088-.54-1.135-.63-1.25-.751-1.21-.84-1.373-.885-1.21-.946-.748-2.085-1.346-.676-.38-1.14-.775-.84-.49-.99-.516-1.216-.449-.855-.367-1.036-.38-.93-.436-.6-.434-.54-.612-.435-.421-.51-.367-.84-.177-.69-.123-.946-.04-1.516-.055-1.62-.204-1.426-.19-1.605-.15-1.59-.095-1.321.15-.84.136M466.2 420.836l1.53.218.916.04.916-.135M509.944 514.846l-2.197-1.027-10.189-5.777-2.925-1.74-3.241-1.481-3.21-1.799-.465-.367-.458-.618-1.837-5.077-.136-.407.09-.626 1.621-3.126 2.13-3.983 1.516-3.398 1.951-3.14 1.846-3.711.09-.503-.09-.49-.991-3.208-.045-1.644.225-1.985.976-3.058.495-1.4.27-.87.42-1.373v-.83l-.075-.557-.18-.856-.285-.694-.555-.788-.496-.734-.45-.517-1.77-1.835-.42-.639-.226-.598-.075-1.141.195-1.32-.015-.815-.18-.394-.3-.34-.975-.707-.915-.761-1.186-1.1-1.215-1.075-1.71-1.685-1.126-1.197-1.215-1.183-1.606-1.563-1.185-1.101-.946-.884-1.05-.951-.495-.544-.225-.421-.06-.449.03-.639v-.49l-.03-.856-.135-.462-.225-.462-.465-1.047-.226-.639-.45-.951-.63-.898-.81-.951-.87-.979-1.38-2.12-.48-1.387-.57-1.93-.781-2.448-.465-1.141M362.383 359.537l-.443.116M362.383 359.537l-.315-1.156-.3-1.026M362.743 360.822l-.195-.802-.165-.483M361.94 359.653l.188.625.15.618M362.743 360.822l-.465.074M362.743 360.822l.435 1.563M362.278 360.896l.225.755.255.836M363.178 362.385l-.42.102M364.731 368.374l-.398.123M365.234 370.576l-.316-1.516-.187-.686M364.333 368.497l.188.89.248 1.271M365.234 370.576l-.465.082M365.857 373.472l-.3-1.237-.323-1.659M364.769 370.658l.217.877.233 1.135.187.952M365.857 373.472l-.45.15M365.406 373.622l.173.85.24 1.26M366.097 380.555l.465-.034M365.82 375.733l.006.288.098 1.271.083 1.536.09 1.727M569.104 471.178l-1.543 7.41M637.044 467.973l-.773.122-1.065.591-1.613 1.646-2.056 1.345-2.58.557-2.881.164-5.792-.694h-4.532l-4.036-.095-4.127-.626-4.493-.68-2.483.028-2.641.761-3.571 1.265-1.966.462-4.111.23-2.34.382-2.882.258-3.81-.435-4.052-.83-3.676-.611-2.46-.635M579.406 423.506l-.775 2.048-2.146 5.288-.615 2.365-.65 8.606-2.11 11.445-2.702 11.826-1.304 6.094M207.655 172.63l-.24-.655-.211-.64-.255-1.073-.09-1.238-.24-2.04-.33-2.053-.405-1.714-.585-1.428-.54-1.074-.796-1.074-1.05-1.401-.87-.993-.766-.735-1.005-.625-1.11-.435-3.93-.682-3.481-.843-2.821-1.169-3.721-1.769-2.49-1.55-11.736-5.424-13.07-5.373-8.717-3.522-6.092-3.753-4.802-3.387-2.145-2.04-2.28-2.176-3.017-2.271M363.103 450.811l1.17-2.787.51-1.482.51-1.685.33-1.876.226-1.02.135-.91.12-1.101.165-.98.3-1.073.21-.503.21-.517.075-1.1.09-1.129-.045-.87-.24-1.128-.465-1.115-.96-1.536-.75-1.033-.916-1.265-.96-1.169-.765-1.1-.495-.925-.856-1.686-.39-.843-.525-1.237-.66-1.726-.69-1.972-.645-1.821-.346-1.196-.345-1.278-.48-1.428M350.44 425.716l1.2-.652.675-.421.33-.558.135-.938.075-1.59.015-1.768.105-1.155.195-.72.465-1.17 1.23-2.487.87-1.4.51-.775.376-.762" clip-path="url(#p59ab30431f)" style="fill:none;stroke:#000"/><path d="m389.646 421.299-2.386 1.345-1.92 1.06-.84.599-1.08.815-1.41 1.36-.721 1.033-.3 1.305-.06 1.441.12 1.386.09.79-.24 1.005-.66 1.224-1.02 1.141-1.201 1.006-1.11 1.115-1.14.952-.871.924-1.95 2.256-1.741 2.665-1.17 1.441-1.351 1.305-1.56 1.36-2.132 1.087-1.89.897M314.48 493.832l.136.04 4.275.688 2.413-.25 1.896-.094 3.205-3.56 9.308-12.335 4.275-5.934 5.23-6.596 1.23-1.468 1.47-1.522 1.59-1.142 1.802-1.958 1.17-1.386 1.02-1.142 1.38-1.387 1.651-1.305 1.74-1.142 1.741-1.114 3.091-1.414M391.747 426.519l-1.366-3.317-.735-1.903M294.434 512.804l-1.983 1.96-2.068 4.434-.07 2.124-1.363 3.07-21.84 11.739M215.682 286.62l-1.575-.557-2.762-.693-2.956-.463-2.01-.353" clip-path="url(#p59ab30431f)" style="fill:none;stroke:#000"/><path d="m232.817 221.012-.99 2.883-1.006 2.434-1.125 2.733-.99 2.502-1.32 3.046-1.26 3.019-1.516 3.698-1.35 3.169-1.441 3.685-1.546 3.889-1.305 3.168-1.32 2.746-1.29 2.883-1.171 2.992-1.336 3.168-1.575 3.277-1.41 2.978-1.726 4.201-1.516 3.726-1.245 3.345M193.46 362.746l.87-.435.87-.572.51-.734.42-.38.841-.463.81-.517.623-.632.307-.448.15-.51.128-1.244.292-3.202.068-3.371-.045-1.802-.127-1.332-.113-.884.03-.938.105-1.142.218-1.659.24-1.57.315-2.787.195-3.481.135-3.535.18-2.352.105-2.135-.06-2.297-.06-2.08.045-.816-.045-.626-.225-.57-.48-.545-.99-1.142-1.066-1.631-.555-1.32-.24-1.168-.09-1.156.255-1.958.405-1.999.225-.924-.075-.68-.15-.49-.225-.299-.45-.271-1.05-.272-3.362-.68-3.586-.748-3.976-.734-4.156-.803-2.01-.476-1.216-.53-.676-.462-.794-.816-.51-1.115-.346-1.386-.135-1.238-.03-.802.27-.884.72-1.156.51-.829.225-.612.18-.693.06-.734-.194-1.89-.33-2.625-.33-2.107-.39-1.455-.72-1.496-.601-1.428-.345-1.264-.075-.789.03-.448.255-.231.435-.082 2.13.34 4.217.925 3.406.584 3.181.64 2.746.706 2.836.653 3.766.884 5.192 1.087 4.246.87M228.781 214.62l1.71 3.074.886 1.564 1.44 1.754M294.434 512.804l3.325-3.286 7.516-8.806 4.274-4.685 1.38-2.81h1.447l2.103.615M316.184 532.475l-1.05-4.035-.593-1.83-2.078-3.21-.778-2.172-1.275-4.637.086-2.826.275-1.968.62-1.624 1.449-1.889.362-1.702-.517-2.108-1.207-4.387.017-1 .431-1.124.914-1.514 1.64-2.617M319.987 547.483l-.862-4.78.6-1.326.027-2.674-.731-2.342-2.837-3.886M310.416 534.906l.421-.245.708-.382 1.835-.64.707-.246 2.097-.918M391.747 426.519l1.23 2.746 1.396 3.086 1.665 3.683 1.68 3.508 1.922 3.697 1.74 3.616 2.07 4.268 1.786 3.712 1.44 2.814 1.366 2.773.766 1.386 1.68 3.304 1.32 2.623.69 1.672.556 1.264.613 1.837.356 2.076.058 2.056-.189 5.285-.167 4.415-.335 7.426-.196 5.265-.03 2.34.175 1.6.451 1.503.917 1.496 1.171 1.331 2.626 2.168 8.06 6.306 4.262 3.341 4.582 3.519 6.118 4.612 2.626 2.036 1.345 1.311 1.535 1.964 1.542 2.754 2.917 5.574 2.342 4.488 1.255 2.227M510.358 515.042l-10.193 6.097-19.379 11.38-1.883 1.444-2.394 3.074-1.861 1.22-3.485.825-3.048.143-13.027 8.376M586.978 603.737l.37-1.686.916-4.988-.03-3.152-.255-5.124.15-3.058.78-4.2.188-1.94-.42-2.005-.7-1.35-1.336-1.493-2.223-2.518-5.63-7.05-4.748-7.877-2.754-5.15-1.298-3.413-2.285-7.781-1.556-6.817-1.455-8.699-.66-2.5-1.171-2.365-3.56-6.879-2.45-4.412-.83-1.97-.283-2.022.536-5.08.42-2.106.585-1.604 1.11-1.536 1.756-1.754 1.219-1.07 1.524-1.277 1.398-1.486.84-1.318.661-1.672.54-1.985 1.234-5.812" clip-path="url(#p59ab30431f)" style="fill:none;stroke:#000"/><path d="m510.358 515.042 5.793-3.715 4.997-2.854 4.126-2.8 7.518-4.377 4.246-2.718 3.72-2.094 2.657-1.577 2.79-2.106 5.042-4.459 5.897-4.363 5.041-2.828 5.376-2.563M510.358 515.042l-.414-.196M220.183 383.723l1.86-.775.93-.421 1.997-.898 2.13-.815 1.816-.843 1.35-.626.69-.149.72-.04.466.04M244.146 382.948l-1.5-.054-1.321-.19-1.126-.34-1.695-.626-1.71-.734-2.881-1.197-1.771-.611M235.053 368.836l.66.381.93.38.42.272.15.517-.09.788-.27.79-.66.597-1.14 1.251-1.32 1.278-.75 1.06-.571 1.55-.27 1.496M177.33 376.259l1.35-.081 1.606-.068 2.07.068 2.041-.245 2.16-.516 2.086-.585 1.576-.15 1.815.068M220.183 383.723l-2.82.693-2.206.245-1.771.027-2.04.027-2.236.014-1.35-.068-1.366-.15-1.366-.163-1.62-.434-2.116-.912-1.665-1.128-.9-.734-.466-1.088-.405-1.373-.495-1.02-.87-.992-.93-.762-1.186-.706-2.34-.449M193.46 362.746l-.57.462-.27.57-.03 1.089-.09 1.767-.51 2.855-.12 2.835.164 2.426M138.699 372.415l1.4.138 1.865.47 2.405 1.04 10.424 4.793 2.25.925 1.396.475 1.08.238 1.155.048 1.089-.04 1.77-.348 1.943-.645 3.766-1.034 4.202-1.278 3.886-.938M185.297 395.156l-1.26-.299-1.23-.271-2.011-.246-1.26-.217-.39-.136-.24-.49-.721-5.98-.75-7.75-.105-3.508M138.699 372.415l-1.537-.139M138.699 372.415l-.999.833M137.162 372.276l.538.972M100.73 341.863l1.621.788 1.89.68 1.681.081 2.131-.136 3.36.599 3.122.625 3.766.544 1.05.285 1.336.585 1.163 1.4.968 1.564.247.877-.03.564-.285.769-.487.863-.976 2.039-.66 1.781-.3 1.577-.06 1.074.285.87.615.612 1.545.802.736.435.495.558 3.031 5.152 1.77 3.087 1.023 1.393.575.326.563.102 1.658-.074 4.6.591M401.95 369.856l-.6 1.387-.285.666-.39.557-.495.449M402.46 375.98l-.9-.604-.45-.53-.45-.585-.255-.503-.225-.843M402.46 375.98l-.667.021-.338.081-.653.198-.592.258-1.103.53-1.208.755-1.17.856M403.848 375.905l-.78.055-.608.02M393.45 370.583l-.72-.136-.555-.088-.623-.123-.33-.054M365.099 342.474l-1.366 3.332-1.215 3.33-1.5 3.807-.068.918.143.836.217.581M365.099 342.474l1.035-3.195.765-2.161.66-1.802M350.462 344.1l1.042-2.913M348.886 349.007l.593-1.917.623-1.917.36-1.074M346.5 354.445l.466-.496.367-.686.856-2.285.487-1.42M354.228 333.223l1.148-3.155 1.065-2.991.63-1.76M352.45 338.688l.802-2.529.976-2.936M351.504 341.187l.946-2.499M348.886 349.007l-.21.55M332.073 394.517l.69-.965.826-1.074.69-.83.36-.516.465-2.366-.255-1.542.075-.476.203-.598.33-.626.345-.659.33-.591.458-1.108.217-1.142.053-.728-.023-.605-.037-.53-.068-.38-.037-.388M579.406 423.506l1.325-3.499.9-2.501 1.681-2.393 2.221-1.468 2.49-1.088 2.642-.924 2.19-1.604 1.441-1.767 1.14-2.475.45-2.284-.27-2.501-2.25-10.44.06-1.714.27-1.631 2.16-5.166 4.542-11.388.38-1.935" clip-path="url(#p59ab30431f)" style="fill:none;stroke:#000"/><path d="m628.027 356.328 4.68 4.46 2.822 1.413 1.74 2.666-1.98 6.688-2.641 3.372-3.001.924-28.87-7.123M484.326 366.824l-.6-1.074-.465-.517-.705-.666-.345-.34-.165-.489-.42-.435-.751-.476-1.275-.516-1.2-.367-1.08-.422-1.606-.585-1.336-.503-.72-.38-.21-.273-.03-.257.03-.463.075-.462v-.367l-.135-.381-.315-.476-.495-.421-.796-.952-.42-.707-.375-.883-.39-.748-.555-.707-1.336-1.414-1.215-1.32-.856-1.576-.765-1.754-.96-1.971M470.477 342.665l-1.306.38-.675.313-.525.272-.495.476-.495.354-.766.393-1.305.069M207.655 172.63l.36.977.69 1.7.72 2.067.615 2.27.66 2.163.51 1.374.465 1.047.6.87.646.707 1.02.721.855.626.916.734.96 1.02.976 1.197.81 1.291 1.545 3.319 1.545 3.753 1.501 3.93 1.246 3.087 1.185 2.815 1.365 2.638 1.23 2.216.706 1.469" clip-path="url(#p59ab30431f)" style="fill:none;stroke:#000"/><path d="m184.547 204.232 1.23 2.447.81.952.87 1.55.781 1.197.75.517.87.272h.931l.87-.11.93-.135 1.861-.163 2.04.027h2.072l2.04.136 2.19.517 2.491.544 1.35.245h.901l.66-.245.21-.435.24-.626 1.08-3.128 1.111-2.04.54-.625.66-.272h.42l.601.326.99.572 2.371 1.795 2.28 1.278 2.101.816 2.401 1.06 2.041 1.034 1.53.979 2.011 1.904M440.888 429.904l-1.336-.19-.855-.11-.9.028-1.328.082-1.08.04-.63-.143-.414-.244-.352-.347-.517-.625-.331-.36-.24-.15-.293-.027-.33.088-.547.442-.54.36-.563.28-.795.169-1.403.081-4.171-.027h-4.652l-3.871-.408-4.111-.489-6.422-1.033-4.712-.544-4.292-.163-4.456-.095M365.744 405.216l1.26-.706 1.89-.87 1.831-.87 1.891-1.333 1.546-1.373M285.784 421.19v.543l.225.721.81.707 1.2.952 1.576 1.508 2.866 2.447 1.98 1.7 2.206 1.998 1.305 1.223.376.327.375.49.06.325.045.408-.195 1.128-.15 1.537.075.638.255.422.84.598.976.788.495.462.21.45.075.747-.03 1.36-.165 1.372-.105 1.156.045 1.21.36 1.264 2.115 3.452 1.426 1.632.66.965.45.938.585 1.604 1.516 4.119.63 1.808.795 2.433.135 1.074-.09 1.047-.495 1.196-.615.68-.66.639-.78.38-1.05.571-.736.408-.975.693-3.662 3.208-1.995 1.794-2.37 1.78-2.267 1.415-1.14.815-1.92.938-1.47.979-1.381.68-1.966.611-1.875.734M263.997 391.962l2.686 1.78 1.726 1.115 1.335.476 1.32.136 1.245.068 1.666-.163 1.786-.462 1.05-.232" clip-path="url(#p59ab30431f)" style="fill:none;stroke:#000"/><path d="m277.366 361.889-.345.816-.21.802v1.332l.105 1.02.51 1.237 1.065 2.882 1.006 3.467.525 3.698-.12 1.59-.165.612-.375.449-.585.177-1.036-.218-1.455-.408-.705-.027-.525.163-2.747 1.482-2.265 1.142-.465.422-.105.258v.448l.045.422.165.394.81 1.482.81 1.278 1.02.979 1.441 1.36 1.17 1.576.63 1.006.75 1.605.496 1.345M263.997 391.962l-2.806-1.632-3.721-2.216-3.496-2.161-1.425-.816-.991-.599-1.41-.598-1.38-.285-1.786-.326-1.516-.3-1.32-.081" clip-path="url(#p59ab30431f)" style="fill:none;stroke:#000"/><path d="m239.752 366.015 1.604 1.973.72.593.508.267.456.13.777.214.584.275.41.391.41.88.843 1.86.302.763.065.744-.432 1.233-1.853 7.61M207.234 376.164l.51.367.345.38.075.436L208 378l-.12.734.105.707.24.572.63.802.856.57 1.71.748 1.95.598 1.232.218 1.575.109h1.35l1.32.095.75.19.586.381M165.656 314.167l-.54.449-.285.68-.09 1.006-.466 3.426-.495 2.787-.51 4.025-.66 5.275-.405 4.296-.39 4.202-.375 2.65-.03.98.18.584.24.326.435.245 1.035.259 1.186.082.885.244 1.695.72 2.191 1.306 2.071 1.305 2.055 1.183 1.981 1.1 2.506 1.674 3.526 2.107 3.931 2.392 2.056 1.115 1.846 1.17 2.7 1.332.886.489.42.544.225.626M307.285 318.083l-1.59 2.651-1.2 2.067-.78.762-1.5.706-.661.327-.57.897-.33.816-.12 1.142.51 1.278.9 1.196.72 1.795 1.066 3.44.21.965.285 1.074.375 1.373.345.83.27.72.27 1.183.12 1.142.15.89.218.884.307.545.45.468.773.55.555.334.63.313.646.115.6.007.795-.02 1.253-.041 1.29.068.84.156.676.225.945.435.878.557.72.782.488.673.203.455.39.564.427.354.848.38.773.204 1.118.041 1.95-.129 1.148-.115 1.448.027.788.081.998.375 1.26.727 1.283.768 1.538.972 1.246.83.585.455.75.808.922 1.109L336.89 359l.773.809 1.178.815.682.422.54.456.398.632.457.897.383.72.525.524.39.34.503.34 1.193.462 1.455.619 2.056.72M385.925 300.856l-1.965.19-1.546.041-.555-.054-.735.027M493.044 574.027l4.726-3.235 3.977-2.868 1.86-1.033 4.142-1.78 1.155-.87.885-1.128 1.35-1.658.48-.326.751.108.9.367 1.966 1.55 1.275 1.278.66.298 1.141.19 1.02.313 3.196 1.115 1.275.829 1.621 1.658.675.299.706-.082 3.736-1.277 3.106-.884 1.515-.081 1.74.068 4.607.57M530.646 595.236l.863.495.877.402 4.757 1.135 4.261 1.236 4.772.612 1.275.122 1.77.557 1.32.354 2.282.122 3.48-.054 3.182.489 2.7.91 4.892 1.78 2.641.775 7.878 1.536 1.71-.054 1.32-.517 4.464-1.501.488-.116.593.028.807.19M493.044 574.027l1.605 2.16.84 1.38.976.55 1.673.28 2.1.054 2.101.476 4.764 1.95 4.502 2.936 5.371 4.063 3.422 1.957 3.12 1.278 3.647.802 1.2.557.78.774 1.5 1.992M510.135 497.749l-2.731 3.14-.555.448-1.096.53-.285.693.075.789 1.2 2.052.69 1.523.78 2.473 1.73 5.449M237.349 416.935l1.455-1.183 1.29-1.237.796-.585 1.44-.57 1.86-.544 1.14-.34.796-.422.9-.897.99-.884 1.427-.775.78-.298 1.005-.177.57.013.72.218 1.08.326.646.15.66-.027.66-.259.916-.462 1.125-.775 1.516-1.087.75-.72.345-.694.24-.816.12-1.862.15-1.972.12-1.06.195-.693.72-1.278.72-1.129.646-1.305.21-1.02.15-1.413.105-.544.405-.652M343.267 382.527l.6.054.555.163.54.34.57.49.54.68.466.284.495.15h.45l1.29-.394M351.848 338.519l.602.17M321.09 320.014l1.306.612 1.83.924M317.894 326.907l.81-1.088.488-.897.442-.612.21-.462.023-.442.12-.36.157-.143.316-.157.57-.176 1.583-.503.983-.408.63-.109M307.285 318.083l3.481.653 2.791.313 2.416.244 1.876.054 1.215.014 1.11.258.916.395" clip-path="url(#p59ab30431f)" style="fill:none;stroke:#000"/><path d="m318.299 305.398-.03 1.468.21 1.877.78 2.664.6 1.985.15 2.257.21 2.067.12.98.18.679.57.639M250.658 293.854l1.635.34 1.936.448 2.34.422 2.446.38 2.056.34 1.98.531 1.997.626 1.515.38 1.14.232 1.2.448 1.831.87 1.74.925 2.267 1.101 1.41.83 2.37 1.577 1.816 1.631 1.156 1.414 1.365 1.74 1.44 1.646 1.17 1.06 1.216.844 1.846 1.196 1.725 1.074 1.951 1.101 1.8.707 1.486.326 1.756.3 2.325.353 2.911.422 2.896.584 1.905.381M215.682 286.62l3.136.816 2.04.218 1.156.15 1.035.244 1.2.272 2.446.449 3.481.68 3.152.625 3.18.87 3.271.748 4.502.992 3.391.572 2.986.598M252.923 304.922l-.24-.449-.105-.544-.06-1.02-.06-.76-.42-1.02-.69-1.986-.54-1.903-.27-1.388-.03-1.169.15-.829M464.88 430.814l.165-.186.15-.235.045-.435-.105-.897-.18-1.455-.045-1.373.24-.748.27-1.346.45-1.48.33-1.823M316.469 302.134l.81.761.51.98.3 1.006.21.517M504.087 180.977l7.252-.406 2.492.425.537-.091.994.006.432.084 3.178 1.94 3.961 1.143 1.14.405.88.858 3.442 1.457 1.23 1.024 1.23 1.587 3.902-1.306-.03-.431-.69-.656-1.118-.387-.623-1.137-2.19-1.823M501.626 177.877l2.461 3.1M285.784 421.19l-1.26.625-1.2.354-1.291.217-1.186.15-1.245.326-1.44.177-1.096-.136-1.02-.123-1.846-.027-1.305.15-1.365.435-1.246.516-.795.87-1.561 1.25-1.245.586-.675.23-1.036.232-1.38-.014-.9-.122-1.95-.163-1.516.176-1.26.218-1.606.23-1.126.082-1.11-.054-1.74-.367-.706-.082h-1.5l-1.036.041-1.035.218-1.155.462-1.41.897-1.216.924-.526.612-.66 1.075-.765.788-.945.747-1.035 1.278-2.701 3.263-1.606 2.841-.33.761-.3.802-1.365 2.651-1.171 2.107-.33 1.373-.09 1.44-.39 2.788-.225.816.3.68.45.652.48.516.15.353.345.653v.992l.15 1.197.376 1.006.06.802-.135.788-.135.802-.54 1.033-.48 1.631-.51 1.142-.616 1.318-.225.653v.762l.015.937.42.898.6 1.834.45 1.66.616 1.725.885 1.196.48.612.21.584.045.816-.24 1.102-.676 2.038-.72 2.515-.15 1.264.105 1.454-.104 1.931-.039.47.244.143.637-.115.573-.279 1.687-.807 1.24-.77 1.105-.758.912-.538.711-.087 1.273.038 2.112.53 1.994.402 1.91.318 1.74.519.615.183.45.289 1.051.407 1.237.383 1.047.263 1.123-.034.92-.4.77-.354.732-.08.896.171 1.338.423.442.171 1.513.824 1.3.526 1.098.274.845.011 1.363.423 5.047 2.48 6.283 3.658 4.176 2.377 6.183 3.544.227.286.366 1.005.593 1.35 1.072.914.72.903.404 1.017.618 1.44.782 1.017.921.983.404.629.306.3" clip-path="url(#p59ab30431f)" style="fill:none;stroke:#000"/></g><path id="PatchCollection_1" d="m549.264 185.615.756-.779-.914-.73-.757.779z" clip-path="url(#p59ab30431f)" style="fill:#a9a9a9;fill-opacity:.8"/></g></g><defs><clipPath id="p59ab30431f"><path d="M90 111.809h558v503.583H90z"/></clipPath></defs></svg>