<svg xmlns="http://www.w3.org/2000/svg" width="960" height="960" viewBox="0 0 720 720"><defs><style>*{stroke-linejoin:round;stroke-linecap:butt}</style></defs><g id="figure_1"><path id="patch_1" d="M0 720h720V0H0z" style="fill:#fff"/><g id="axes_1"><path id="patch_2" d="M90 626.38h558V100.82H90z" style="fill:#fff"/><g id="LineCollection_1"><path d="m365.662 390.692 1.552 1.2M365.662 390.692l-19.882-16.465M365.662 390.692l-.343 1.8M152.16 192.61l-4.943-3.951-33.773-26.532M170.714 383.101l-11.998 2.265-51.435 9.782M237.779 280.858l-31.355-43.308-3.419-4.046M152.16 192.61l47.783 38.194 3.062 2.7M222.364 220.577l-10.215 6.85-9.144 6.077M170.714 383.101l6.262-1.544 3.204-.807 3.536-1.286M213.915 360.302l-5.356 2.797-3.324 1.752-3.595 2.204-3.788 2.871-4.316 3.161-3.573 2.32-3.062 2.104-3.185 1.953" clip-path="url(#p52870ad037)" style="fill:none;stroke:#000"/><path d="m172.868 354.117 2.001 5.535-.406 3.51 1.594 5.642 4.502 5.46 3.157 5.2M292.68 281.685l-.787 4.952M292.68 281.685l.321-1.82M292.427 286.794l.688-4.157-.082-.418-.1-.246-.253-.288M312.301 288.452l-2.54 10.27M312.301 288.452l3.453.048M307.807 298.287l.604-6.244.341-3.52 3.55-.071M319.154 288.577l-2.828 11.603M319.154 288.577l-3.4-.077M322.455 288.87l-.503-.254-1.355-.068-1.443.03M315.754 288.5l-2.692 10.955M290.584 294.444l.556.129M290.584 294.444l-.6 3.43M290.584 294.444l.508-3.032M291.14 294.573l4.665 1.042M291.14 294.573l.515-3.032M291.14 294.573l-.563 3.397M300.11 296.577l1.343.299M300.11 296.577l-2.238-.5M300.11 296.577l.766 3.508M289.985 297.875l.592.095M289.985 297.875l-.546 3.082M306.335 297.96l-1.235 6.457M306.335 297.96l1.472.327M306.335 297.96l-1.068-.237M290.577 297.97l10.299 2.115M290.577 297.97l-.52 3.134M307.807 298.287l1.953.434M309.76 298.721l-1.468 6.423M309.76 298.721l3.302.734M313.062 299.455l-1.612 6.407M313.062 299.455l3.264.725M300.876 300.085l.774 3.547M300.876 300.085l.248-1.378M316.326 300.18l-1.551 6.439M316.326 300.18l3.222.725M319.548 300.905l.15-.584M319.548 300.905l-.691 2.674M289.44 300.957l.617.147M289.44 300.957l-.57 3.22M290.057 301.104l11.593 2.528M290.057 301.104l-.544 3.207M301.65 303.632l.214.975M301.65 303.632l3.45.785M288.87 304.176l.643.135M288.87 304.176l-.572 3.226M288.87 304.176l-3.09-2.376M289.513 304.31l11.822 2.522M289.513 304.31l-.536 3.161M305.1 304.417l-1.743 6.652M305.1 304.417l3.192.727M301.864 304.607l1.493 6.462M301.864 304.607l-.529 2.225M308.292 305.144l-2.338 9.61M308.292 305.144l3.158.718M311.45 305.862l3.325.757M311.45 305.862l-2.133 9.633M314.775 306.619l-2.304 9.561M314.775 306.619l3.21.624M301.335 306.832l-.775 3.268M317.984 307.243l.082-.418M317.984 307.243l-.646 2.834M288.298 307.402l.679.07M288.298 307.402l-.571 3.227M288.977 307.471l11.583 2.629M288.977 307.471l-.568 3.346M300.56 310.1l-.776 3.27M287.727 310.63l.682.187M287.727 310.63l-.228 1.286M288.409 310.817l11.375 2.552M288.409 310.817l-.546 3.186M303.357 311.07l.756 3.27M299.784 313.37l3.63.814M299.784 313.37l-.705 3.082M287.163 313.813l.7.19M287.163 313.813l-.648 3.405M287.163 313.813l-3.228-2.204M287.163 313.813l.336-1.897M287.863 314.003l11.216 2.449M287.863 314.003l-.551 3.439M303.413 314.184l.7.157M303.413 314.184l-1.285 6.563M304.113 314.34l1.84.414M305.954 314.754l1.545.347M307.499 315.1l1.818.395M307.499 315.1l-1.554 6.507M309.317 315.495l3.154.685M312.471 316.18l-1.253 6.483M312.471 316.18l3.527.702M299.079 316.452l-.654 3.45M317.338 310.077l-.987 4.323-.353 2.482M316.221 323.708l.382-2.997-.144-.758-.733-1.556.272-1.515M286.515 317.218l.797.224M286.515 317.218l-4.545-3.17M286.515 317.218l-.523 2.995-.297.661M287.312 317.442l3.28.801M286.733 322.105l-.016-1.678.595-2.985M294.497 319.1l3.928.802M294.497 319.1l-3.905-.857M294.497 319.1l-1.206 4.59M298.425 319.902l-1.35 4.607M298.425 319.902l3.703.845M302.128 320.747l3.817.86M302.128 320.747l-1.03 4.633M322.644 320.148l-1.172 4.683M305.945 321.607l5.273 1.056M305.945 321.607l-1.273 4.546M286.733 322.105l-.182-.15-.22-.09-.24-.022-.234.049-.208.115-.161.17M286.908 322.466l-.063-.192-.112-.169M285.488 322.177l-.375-.307" clip-path="url(#p52870ad037)" style="fill:none;stroke:#000"/><path d="m285.488 322.177-.101.214-.028.233.05.231.12.204M311.218 322.663l-1.208 4.93M311.218 322.663l5.003 1.045M285.53 323.06l.181.157.226.097.246.024.24-.05M285.53 323.06l-1.168.17M286.423 323.287l.227-.131.167-.197.09-.24v-.253M286.423 323.287l.306 1.617M316.221 323.708l3.192.7M316.221 323.708l-1.208 4.972M293.291 323.69l3.784.819M293.291 323.69l-3.802-.822M293.291 323.69l-1.149 5.524M297.075 324.509l2.566.555M321.472 324.83l-1.284 5.023M321.472 324.83l5.7 1.264M321.472 324.83l-2.059-.422M286.518 325.14l.211-.236M286.518 325.14l.413.443 6.55 5.484M286.518 325.14l-.43-.572M301.099 325.38l3.573.773M301.099 325.38l-1.458-.316M327.172 326.094l-1.148 5.025M348.327 309.288l-2.5 1.755-10.66 7.292-5.128 3.33-1.22.916-1.27 1.258-.377 2.255M330.958 332.169l.7-5.202-4.486-.873M304.672 326.153l5.338 1.44M304.672 326.153l-1.333 5.092M310.01 327.593l5.003 1.087M310.01 327.593l-1.358 4.82M315.013 328.68l5.175 1.173M315.013 328.68l-1.104 4.719M292.142 329.214l-4.692-3.925-.72-.385M292.142 329.214l5.159 4.395M320.188 329.853l5.836 1.266M320.188 329.853l-1.145 4.885M326.024 331.119l4.934 1.05M326.024 331.119l-1.035 4.969M303.339 331.245l5.313 1.168M303.339 331.245l-1.007 2.932M303.339 331.245l-2.592-.435M298.395 331.048l3.937 3.13M298.395 331.048l-1.094 2.56M298.395 331.048l1.246-5.984M330.958 332.169l-1.153 4.984M333.938 333.325l-2.225-.928-.755-.228M308.652 332.413l-1.188 3.815M308.652 332.413l5.257.986M313.909 333.399l5.134 1.339M313.909 333.399l-.938 4.204M302.332 334.177l4.772 3.207M302.332 334.177l-1.358 2.542M334.28 334.525l.047-.508M335.272 338.315l-.353-1.24-.548-1.81-.09-.74M333.26 337.934l.633-2.795.388-.614M319.043 334.738l-1.102 4.157M319.043 334.738l5.946 1.35M307.464 336.228l-.36 1.156M307.464 336.228l5.507 1.375M324.99 336.088l-.982 4.233M324.99 336.088l4.815 1.065M300.974 336.719l-3.673-3.11M300.974 336.719l-.346.33M300.974 336.719l4.9 4.209M307.104 337.384l-.925 2.474M307.104 337.384l5.634 2.425M329.805 337.153l-1.082 4.245M329.805 337.153l3.454.78M312.97 337.603l4.971 1.292M312.738 339.809l.115-.8.118-1.406M333.26 337.934l-1.287 4.394M333.26 337.934l2.012.38M335.272 338.315l1.723 5.195M317.941 338.895l-.625 2.475M317.941 338.895l6.067 1.426M312.738 339.809l.312.107M312.738 339.809l-.152.44-.697 2.865M324.008 340.32l4.715 1.078M324.008 340.32l-.817 3.206M305.874 340.928l.305-1.07M305.874 340.928l5.24 4.15M317.316 341.37l5.875 2.156M317.316 341.37l-4.266-1.454M328.723 341.398l3.25.93M328.723 341.398l-.809 3.85M331.973 342.328l-1.612 3.917M331.973 342.328l3.247.829M335.22 343.157l1.775.353M335.22 343.157l-1.638 4.67M339.208 351.227l-.323-1.037-1.89-6.68M323.191 343.526l4.723 1.723M327.914 345.249l2.447.996M330.36 346.245l3.222 1.583M339.208 351.227l-.79.286-1.108-.768-2.016-1.712-1.712-1.205M340.45 354.867l-.361-.816M345.78 374.227l-1.437-5.21-.698-3.644-.255-1.33-.658-2.545-1.095-3.661-1.187-2.97" clip-path="url(#p52870ad037)" style="fill:none;stroke:#000"/><path d="m336.703 356.427 1.57-.889 1.302-.634.875-.037M345.78 374.227l-3.142-2.588M289.49 322.868l-1.721-.275-.861-.127M285.113 321.87l-.186.193-.316.271-.339.159-.566.24M285.113 321.87l.582-.996M290.592 318.243l-1.103 4.625M298.546 244.106l-.267 2.398M298.546 244.106l4.56-3.76M301.471 212.76l-.422 8.23-1.094 14.614-1.409 8.502M297.172 253.023l-.436 2.773M297.172 253.023l.086-.55M302.314 256.11l.074-1.6-.14-.833-.672-.318-4.404-.336M296.736 255.796l5.578.314M296.736 255.796l-.426 2.713M302.314 256.11l-.227 2.728M296.31 258.51l5.777.328M296.31 258.51l-.436 2.833M302.087 258.838l-.184 2.569M295.874 261.343l6.029.064M295.874 261.343l-.576 3.532M301.903 261.407l-.372 3.809M294.995 266.878l6.487.434M294.995 266.878l-.405 2.571M294.995 266.878l.232-1.476M301.482 267.312l.049-2.096M301.482 267.312l-.565 2.769M294.59 269.45l6.327.63M294.59 269.45l-.407 2.591M300.917 270.08l-.106 2.4M287.816 270.468l-5.613 3.914M278.854 271.874l1.043.781M278.854 271.874l-5.97 7.171M289.867 264.093l-10.35 7.094-.663.687M294.183 272.041l6.628.439M294.183 272.041l-.415 2.64M300.811 272.48l-.21 2.806M279.897 272.655l1.658 1.241M279.897 272.655l5.663-3.691M281.555 273.896l.648.486M281.555 273.896l-6.019 7.254M282.203 274.382l2.336 1.958M293.768 274.681l6.832.605M293.768 274.681l-.986-.27M293.768 274.681l-.432 2.734M300.6 275.286l-.494 2.59M284.54 276.34l1.882 1.56M284.54 276.34l-1.924 2.165M284.54 276.34l3.041-2.257M293.336 277.415l6.77.462M293.336 277.415l-.225 1.697M281.582 286.537l1.247-7.143-.213-.889M278.589 282.893l3.45-3.95.577-.438M325.053 278.876l-23.197-.03-.773-.2-.696-.442-.28-.327M286.422 277.9l3.382.635M286.422 277.9l-2.042 12.39M289.804 278.535l.831.145M289.804 278.535l-2.11 12.31M272.883 279.045l-6.514 7.824M272.883 279.045l2.653 2.105M263.874 284.862l4.883-5.537 2.25-1.66 1.876 1.38M293.11 279.112l-2.475-.432M293.11 279.112l-.109.753M293.001 279.865l6.43.258M275.536 281.15l-6.468 7.795M275.536 281.15l2.743 2.099M278.279 283.249l-2.007 2.422M278.279 283.249l.31-.356M261.609 282.602l2.265 2.26M261.609 282.602l-6.334 3.445M261.609 282.602l-1.896-2.888M263.874 284.862l-2.203 2.47M263.874 284.862l2.495 2.007M276.272 285.671l1.972.322M276.272 285.671l-2.375 2.868M281.582 286.537l-3.338-.544M281.582 286.537l-.53 3.198M291.893 286.637l-.8 4.775M291.893 286.637l.534.157M297.21 289.226l.334-1.835-.395-.296-4.722-.301M292.427 286.794l-.2 1.203M266.369 286.87l2.699 2.075M266.369 286.87l-4.315 5.053M292.228 287.997l4.982 1.229M292.228 287.997l-.573 3.544M273.897 288.54l7.155 1.195M273.897 288.54l-2.082 2.518M322.455 288.87l-.578 2.686M322.455 288.87l2.598-9.994M269.068 288.945l-4.389 5.032M269.068 288.945l2.747 2.113M298.658 289.147l-1.448.079M297.21 289.226l-.626 3.195M281.052 289.735l-.587 3.395M281.052 289.735l3.328.556M259.54 289.957l2.13-2.624M259.54 289.957l2.514 1.966M255.275 286.047l1.098 1.432 3.167 2.478M284.38 290.29l-1.563 9.231M284.38 290.29l3.315.554M287.695 290.844l-1.916 10.956M287.695 290.844l3.397.568M271.815 291.058l-2.18 2.587M271.815 291.058l1.142.904M291.092 291.412l.563.129M291.655 291.54l4.929.881M262.054 291.923l2.625 2.054M262.054 291.923l-5.415 6.362M296.584 292.421l-.78 3.194M298.65 293.01l-.778 3.067M269.634 293.645l9.329 7.518M269.634 293.645l-2.138 2.536M264.679 293.977l-5.39 6.45M264.679 293.977l2.817 2.204M295.805 295.615l2.067.462M267.496 296.18l10.874 8.507M301.453 296.876l3.814.847M301.453 296.876l-.33 1.83M306.135 291.365l-.127.459-.215.559-.571.856-1.177.154-1.16.36-.606 1.198-.553 1.061-.273.864M279.724 297.142l.741-4.012M279.724 297.142l-.761 4.02M279.724 297.142l3.093 2.379M279.724 297.142l-6.767-5.18M256.639 298.285l-.455-.356M256.639 298.285l2.65 2.142M282.817 299.521l-1.272 7.68M282.817 299.521l2.962 2.279M259.289 300.427l-.849.954M278.963 301.163l-.593 3.524M285.78 301.8l-1.307 7.72M278.37 304.687l3.175 2.514M281.545 307.201l2.928 2.319M284.473 309.52l3.026 2.396M278.262 318.252l1.487-1.608 5.946 4.23M323.023 311.175l-.058.221-.79 1.202-.87 1.959-1.588 4.17-.263.885-.08 1.297.173 2.514-.134.985M292.782 274.411l-1.616-1.362-1.194-.242-2.39 1.276M290.969 275.893l-2.317-.465-1.07-1.345M290.969 275.893l-.334 2.787" clip-path="url(#p52870ad037)" style="fill:none;stroke:#000"/><path d="m292.782 274.411-1.095.396-.718 1.086M297.455 251.221l.475-2.716M297.455 251.221l-.197 1.252M299.732 251.404l-.473-.056-1.804-.127M299.732 251.404l.425-.474 1.359-.407M299.732 251.404l1.003.414M295.298 264.875l6.233.34M295.298 264.875l-.071.527M272.957 291.962l7.508 1.168M278.262 318.252l5.444 4.48M278.262 318.252l-15.083-12.837M325.348 301.73l.76-3.135M325.348 301.73l-.755 3.206M325.348 301.73l7.32 1.723M325.348 301.73l-5.65-1.41M326.911 295.278l.843-3.212M326.911 295.278l-.803 3.317M326.911 295.278l8.01 1.793M326.911 295.278l-5.688-1.123M332.136 289.871l-1.17.366-2.34.496-.463.235-.409 1.098M334.92 297.071l.074-3.412-7.24-1.593M321.877 291.556l1.415-.562 4.462 1.072M332.136 289.871l2.858-.653M340.26 282.102l-1.741.104-1.524.21-1.252 1.044-1.43 1.896-2.087 3.294-.09 1.221M321.877 291.556l-.654 2.6M321.223 294.155l-.785 3.161M334.886 300.574l.004-2.062.03-1.441M320.438 297.316l-.74 3.005M320.438 297.316l5.67 1.279M334.886 300.574l-8.778-1.979M332.668 303.453l2.216-1.694.002-1.185M324.593 304.936l4.69 1.078 1.493-1.12 1.892-1.441M318.857 303.58l-.791 3.245M318.857 303.58l5.736 1.356M318.066 306.825l5.753 1.315M323.819 308.14l-.796 3.035M324.593 304.936l-.675 2.83-.099.374M317.338 310.077l5.685 1.098M334.833 333.551l1.274.013 5.708.308 8.222-.12 6.565.12 3.532.12 4.685.59 6.846.736" clip-path="url(#p52870ad037)" style="fill:none;stroke:#000"/><path d="m374.979 320.72-.704 3.976-.636 3.265-1.974 7.357M446.85 311.035l-1.945.203-6.543 1.96-5.736 2.06-1.985.616-1.5.225-5.237-.21-8.331-.42-2.908-.315-2.83-.015-2.453.375-1.69.554-5.933 3.056-5.062 3.187-10.324 6.78-4.58 2.776-6.893 3.316-1.235.135M518.14 279.334l-4.877 1.95-11.682 4.566-2.37 1.41-1.42 1.683-1.138 1.228-2.606 4.685-1.469 1.182-5.639 2.911-2.89 1.728-2.745 2.182-.334.266-1.613 1.282-3.042 2.87-3.591 3.68-1.052 1.061-1.735.826-1.906.42-1.782.345-2.048.03-2.22-.27-5.986-.968-5.143-.788-4.002-.578M479.457 273.264l-.782-1-.32-.144-.579.053-.972.401-.614.683-.617 2.712-.54 1.965-.406.484-.829.427-1.989.552-1.266.043-.797-.033-.594.13-.944.714-.52.217-1.142.043-.745.137-1.565.68-1.41.391-.895.135-2.584.041-.832-.135-.645-.3-1.606-1.159-1.143-.675-.705-.529-1.239-.88-.453-.298-.508-.15-3.338-.199-.543.068-.343.18-1.423 2.025-.766 1.53-1.657 4.42-.727 1.845-.156 1.567 1.696 10.68.078 1.991-.226.807-1.306 1.485-.387.645.009.529.312.461 1.778.627.7.607.488 1.283.445 2.715M526.18 231.357l-1.163.354-2.75 1.56-2.252 2.641-.875 3.721-.311 3.646-.04 3.609.44 2.212.286.856 1.25 3.001-.374 4.441-.376 7.802 1.138 5.889.012 1.71-.38 2.682-1.017 1.716-1.629 2.137" clip-path="url(#p52870ad037)" style="fill:none;stroke:#000"/><path d="m579.453 346.851-2.896-1.361-6.645-3.659-9.97-4.488-6.91-3.18-2.329-1.336-.86-1.11-.765-1.785-2.862-9.045-5.565-14.463-4.158-9.962-.344-3.046-6.034-5.686-1.364-2.374-1.524-2.154-5.144-2.594-3.944-1.274M339.566 352.375l-.358-1.148M339.566 352.375l.523 1.676M345.545 349.411l-.314.25-5.665 2.714M347.294 348.025l-1.749 1.386M346.622 350.246l-.454-.525-.623-.31M295.227 265.402l-5.36-1.309M289.867 264.093l-.027-.254M289.84 263.84l-1.54-1.331-3.383-3.069-3.486-3.346-3.217-2.89-.887-.099M301.471 212.76l.266-5.184-1.5-1.613-9.192-8.71-1.301-1.386-6.788-6.702M275.563 163.08l-.117.772 3.751 11.643 3.76 13.67" clip-path="url(#p52870ad037)" style="fill:none;stroke:#000"/><path d="m222.364 220.577 4.932-3.713 2.032-2.43.954-1.126.656-.405 1.5-.63.782-.63 3.033-2.672.469-.765.078-.825-.266-1.575-1.298-3.676-.054-.6.148-.66.407-.841.172-.796-.016-1.305-.774-5.536.125-.278.321-.195 20.07-5.244.688-.015 1.016.284 1.516.346 1.376.165 4.548-.045.938.135 1.25.375.735.015 1.204-.285 1.594-.975 1.798-1.186.906-.307.759-.008 1.062.323 3.119 1.583 3.548 1.658 1.264.427M626.856 454.467l5.95 1.204M626.856 454.467l-2.201-.215M626.856 454.467l.426-2.136M622.075 453.895l2.58.357M436.463 431.742l22.482 4.317 3.248.603 3.364.51 6.293.474 25.388-1.362 11.476-.678 4.15.027 4.104.333 60.432 10.19 44.675 7.739M491.868 608.226l3.439-2.033 2.641-1.815 2.955-2.52 7.94-7.514 1.845-1.53 1-.615.516-.45.266-.825.25-7.455.64-13.05.298-1.2 1.5-1.905 7.066-8.055 5.173-5.91 2.158-2.565 1-1.185.672-1.41 1.563-3.33 1.376-3.225.985-1.275 1.054-.787 5.526-2.003 2.626-.855 1.336-.24 1.228-.382.742-.428.445-.667.118-.668-.361-.855-.593-.54-1.21-.217-.72.307-.774.728-.852.795-.984.705-2.071 1.005-2.267.705-.938-.068-.453-.367-.125-.525.164-.608 4.44-9.458 9.268-19.988.985-1.89.657-.87.906-.735 19.211-12.72 24.545-16.078.503-.33.259-.169 5.814-4.41 9.16-6.96 5.987-4.501 1.766-1.23.766-.855.766-1.305M434.8 431.402l.023 1.276M434.8 431.402l1.663.34M459.418 352.902l-.542 17.713-.405 17.752-.148 6.241-.234.675-4.623 5.351-7.405 8.08-3.922 4.706-2.13 2.986-4.16 11.487-1.048 3.51M367.214 391.891l27.24 22.34 6.581 5.535 5.284 3.45 5.83 2.686 4.895 1.543 7.99 1.959 9.767 1.998M333.938 333.325l-.053.124-.012.134.028.131.066.119.1.095.123.063.137.026M334.833 333.551l-.022-.13-.06-.12-.092-.1-.118-.068-.134-.034-.138.004-.132.042-.113.076-.086.104M334.327 334.017l.13-.01.123-.043.105-.074.081-.099.051-.115.016-.125M312.31 342.695l.176-.754M312.31 342.695l2.312.466 1.266.513 1.82 1.421 3.513 2.885M312.31 342.695l-.193 1.487M334.26 358.705l1.837-1.934.606-.344M325.596 355.043l4.864 4.227 1.57 1.318.553.069.731-.805.946-1.147M334.26 358.705l-6.871-5.653M340.089 354.051l-1.388.511M338.701 354.562l-1.623.788-.826.59M329.604 350.385l1.392-1.575.695-.068 2.961 2.26 4.05 3.56M312.486 341.941l.468-1.655.096-.37" clip-path="url(#p52870ad037)" style="fill:none;stroke:#000"/><path d="m321.698 347.566-5.186-4.183-1.48-.582-2.546-.86M319.324 350.256l-2.794-2.32-4.413-3.754M312.117 344.182l-.357 1.455M319.324 350.256l2.227 1.683 4.045 3.104M327.389 353.052l-.531.483-1.262 1.508M327.389 353.052l.456-.495M321.221 347.98l.928.762 5.24 4.31M327.845 352.557l1.76-2.172M327.845 352.557l-.22-.186-4.852-3.938-1.075-.867M336.252 355.94l-.226.224-.633.743-.805.848-.492.045-1.067-.893-5.184-4.35M329.604 350.385l6.648 5.556M321.698 347.566l1.7-1.718.802.274 5.404 4.263M321.698 347.566l-.477.414M321.221 347.98l-1.897 2.276M336.252 355.94l.45.487M305.267 297.723l.169-1.54M261.67 287.333l-2.449-1.73M258.44 301.381l4.739 4.034M258.44 301.381l-4.06-3.305M255.44 297.348l.744.581M283.706 322.732l.656.497M284.362 323.23l1.726 1.338M264.046 333.962l4.161-2.206 16.155-8.527M311.383 345.928l.377-.291M311.383 345.928l.774.617M311.383 345.928l-.7-.536M311.76 345.637l-.646-.56M312.157 346.545l-.143-.56-.254-.348M298.28 246.504l-.35 2M297.93 248.505l5.24.453.187-3.811-1.136-.016-3.942 1.373M278.589 282.893l-.345 3.1M256.184 297.93l-1.805.146M247.048 291.844l.826.797 6.505 5.435M172.868 354.117l-.198-.627M190.063 341.124l-3.283 1.996-13.912 10.997M436.463 431.742l-1.64.936M353.643 457.23l-.97-.095-16.127-.094-42.27.057" clip-path="url(#p52870ad037)" style="fill:none;stroke:#000"/><path d="m261.453 461.628 7.187-1.478 9.05-2.205 16.586-.847" clip-path="url(#p52870ad037)" style="fill:none;stroke:#000"/><path d="m342.638 371.64-2.72 1.29-4.986 2.805-1.72 1.666-2.313 3.465-3.22 3.39-1.47.796-4.345.675-3.486.044-11.16-1.035-2.681.18-6.292 1.493-.812.353-.821.795-.213.427-.053 1.41-.297.586-.469.247-4.712.57-5.722 1.32-6.173 6.932-2.736 4.605-1.141 2.326-.923 5.025.094 1.32 2.486 8.169 6.76.3.922.225.524.48 9.317 35.599M127.179 567.87l2.032-2.476M145.846 589.21l-1.504-5.823-.844-2.548-.152-.459-.485-1.464-1.372-.79-3.212.183-3.83-1.845-7.956-4.02-.297-1.74.985-2.835M193.97 458.635l-.031 3.195-4.345 39.453-1.173 4.455-1.61 3.436-.234.9-.125 1.484-.188 1.11-2.673 7.05-4.707 13.066-.023.143-1.163 4.942-.202 1.305.062 2.985-.078 1.71-.266 1.245-2.36 4.92-2.064 2.836-.453.75-.14.824.265 6.66-.25.555-.516.3-.954.09-1.937.076-4.58.93-6.925 3.06-2.102 1.32-.516.097-.586-.098-1.228-.652-1.258-.563-8.831-2.73-.868-.18-.734.045-5.55 1.403-2.735.487-3.681.15" clip-path="url(#p52870ad037)" style="fill:none;stroke:#000"/><path d="m129.633 499.648-.125 13.05 1.031 5.22 7.44 20.671 1.783 6.51-.094 5.67-1.75 4.95-2.97 3.87-1.376 1.29-2.095.832-.438.428-.148.759-.026.131-.122.625-1.532 1.74M100.73 507.718l12.318-3.585 16.585-4.485M142.42 450.91l-3.877 13.846-4.97 16.486-3.94 18.406" clip-path="url(#p52870ad037)" style="fill:none;stroke:#000"/><path d="m193.97 458.635-7.047-.733-6.946-1.228-30.64-5.5-6.918-.264" clip-path="url(#p52870ad037)" style="fill:none;stroke:#000"/><path d="M170.714 383.101 156.55 402.98l-1.454 2.836-5.033 9.886-7.394 11.79-.875 2.701 1.845 6.873.215.679.628 1.87-2.063 11.296M565.998 204.33l6.206.015 1.602.228h6.877l7.512-1.212 4.12-.886 4.353-.752 2.617-.047 2.18.42 4.65 1.189 6.875 2.2M637.27 206.743l-2.18-.002-2.407.413-1.538.851-1.772 1.393-.553.291-.554.152-1.525-.224-1.641-.432-3.961-.97-5.793-2.051-1.305-.344-1.05-.336M609.624 189.714l2.28 4.53.327 1.41-.109 3.867.544 4.336.324 1.627" clip-path="url(#p52870ad037)" style="fill:none;stroke:#000"/><path d="m628.5 192.53 1.524 1.602.328 1.463-.165 1.613-.691 2.108.12.762.658.945 1.836 1.913 1.735 1.5 3.424 2.307M526.18 231.357l9.466-2.885.869-.536.81-.682.827-.862.752-1.038.88-1.859.758-2.197 1.113-4.073.303-1.679.046-2.616.368-1.755.378-.821.74-1.23.618-.77.513-.454 1.55-.926 5.199-2.203.839-.28 2.733-.606 1.65-.262.757.017 1.282.21 1.09.018.996.198 1.906.029 2.494.233.881.002M574.615 187.632l-.77 1.137-1.063 2.1-.218 1.02-.407 1.112-.59 1.03-.88.74-.5 1.02-.5 1.32-1.625 3.662-1.125 2.58-.939.977M574.615 187.632l.793-1.174.782-.75.75-.72 1.813-1.2 1.407-.72" clip-path="url(#p52870ad037)" style="fill:none;stroke:#000"/><path d="m574.615 187.632 1.829-1.554 1.653-.82 1.344-.15 1.657-.15 1.532-.48.887-.604.3-.927v-.78l-.046-1.734.238-1.212.36-1.17.215-.863.371-1.508.645-.83 1.188-1.356 1.47-1.02 1.875-1.23.469-.3v-.901l.5-.6.899-2.101M289.767 263.17l-6.41-5.927M289.767 263.17l.073.67M289.767 263.17l2.207-1.74M283.357 257.243l-8.13-7.516-2.888-2.554M283.357 257.243l1.909-2.084M289.937 249.952l-.582.69M292.098 257.903l-5.021-4.72M292.098 257.903l-3.31-6.589M291.974 261.43l.908-.716.082-.276-.103-.337-.763-2.198M287.077 253.183l1.71-1.869M287.077 253.183l-1.811 1.976M287.077 253.183l-1.919-1.803M281.538 251.687l3.728 3.472M291.974 261.43l-6.708-6.27M288.788 251.314l.567-.673M285.158 251.38l1.993-2.5M284.776 247.331l-1.67 2.118 2.052 1.93M386.702 452.68l1.204-.09 1.922-.285 3.048-.81 4.236-1.68 1.97-.796 5.205-1.8 11.598-4.02 5.08-2.37 13.858-8.151M303.588 299.266l-2.464-.56M250.461 271.794l-12.682 9.064M247.048 291.844l-3.603-3.473-2.773-3.541-2.893-3.972M311.889 343.114l-.392 1.566-.383.397M306.18 339.858l2.538 1.206 3.17 2.05M356.794 170.088l-.885-1.074-.711-.199-.602.199-1.563 3.54-1.294 1.584-3.708 4.539-1.855 2.318-1.237 2.404-1.648 3.58-6.757 6.703-6.385 6.602-3.002 1.92-3.251 2.882-2.626 3.72-2.188 2.761-1.188 2.341-.688 1.2-5.877.78-5.002-3.54-1.251-.3-3.605.712M204.193 153.453l.328 2.686.438 2.461.391 4.472.078 1.875-.328 2.341-.407 2.161-.25 3.12-.547 8.253-.234 1.651-.5 1.606 1.938 7.862.875 3.796.329 2.116.421 1.89.594 1.516 1.079 1.816 2.97 3.87 4.658 6.078.781 1.38 1.001 2.28.782.826 3.157 2.386.617.682M216.76 110.927l-4.423 11.765-1.07 3.421-.071.6.328.976.235.9-.032 1.186-.36 2.483-.444.503-.259.315-.011.229.152.213 4.096 1.599 12.801 3.646 4.424 1.08 2.376.796 2.095.705 1.328.285 1.563-.165 3.08-.36 6.283-.135 2.627.075 1.578.615 2.063 2.221 3.736 4.606 2.83 2.626 5.533 4.532 8.345 7.436M368.12 208.594l-.48.434-1.314 1.608-9.882 9.964-5.1 4.827-22.384 38.295-3.907 15.154M255.19 495.425l.351 2.258.563 2.7.938 2.745.648.81.587.33.914.128 2.587-.188.742.082 1.58.488 7.268 1.665 6.166 1.68 10.958 2.625 15.037 4.455M312.157 346.545l19.72 15.983 1.741 1.427 2.08 1.706 6.94 5.978M193.97 458.635l9.442.9 16.655 4.576 2.72.577 1.21.171.133.043 2.931.934 5.401 1.635 12.06-.585 2.188-.615.327-.246 1.394-1.05.67-.505 2.173-.75 10.179-2.092" clip-path="url(#p52870ad037)" style="fill:none;stroke:#000"/><path d="m255.19 495.425 1.328-.735.602-.532.336-.863.727-5.243.024-.303.398-4.902.14-3.855.767-6.136 1.94-11.228M255.19 495.425l-.552.38-3.598 3.813-13.13 16.366-1.126 2.25-2.08 3.39-3.61 4.215-1.344 2.16-6.846 10.14-2.158 3.9-1.36 4.485-.359 1.995.125 1.68 1.392 5.288-.071.652-.305.788-1.188 1.65-.828 1.68-3.767 6.24-.407.255-.71-.068-1.861-.644-1.125-.128-1.657.225-2.415.15-.876.105-1.36.592-.805.33-.898.09-1.634.083-1.696.307-.805.435-1.673 1.875-4.603 3.503-.86.884-2.282 3.533-7.057 6.555-.813.443-1 .577-.89.915-1.572 2.64M208.828 325.979l21.422-7.67.078.056-.21 2.55.038.96.313.435.61.046.912-.479 8.833-4.488.677-.24.3.012.297.288 4.674 13.578.555.855.805.45 15.914 1.63M240.188 346.491l9.132-4.722 14.726-7.807M193.377 339.099l1.75-1.11.211-.435-.078-.533-1.618-5.514-.14-.863-.407-6.038M107.57 616.213l1.406-1.148.704-.21 1.414-.015.6.115.52.1.678.13 1.735.93.961.158.798-.173 2.837-1.762 4.423-3.48 2.61-2.355 1.47-2.055 13.818-12 4.302-5.239M310.682 345.392l.432-.315M310.682 345.392l-10.054-8.342M300.628 337.05l-7.146-5.983M286.73 324.904l-.642-.336M356.794 170.088l4.758-4.27 3.306-2.941.43-.604.16-.62-.067-1.485-.211-1.001-.305-1.04-.039-.821.166-.953.425-.956 1.183-1.921 1.9-3.77.668-.972 1.453-1.305 4.412-2.746 2.704-1.53 1.774-.669 1.283-.375.742-.536.531-.803.512-1.373.102-.852-.207-1.114-.32-1.373-.962-1.988-.41-1.272-.27-1.549-.062-1.478.05-1.077-.16-.619-.625-.66-1.161-.882-1.274-.598-.363-.456-.247-1.395-.289-1.94-.312-.787-.776-.514-1.315-.436-1.977-1.26-1.239-.593-2.669-.131-1.653.45-1.465 1.02-1.032 1.576-2.056 2.911M368.12 208.594l7.484-6.75.75-1.08-.25-1.02-9.936-15.101-5.351-8.132-2.782-4.917-1.241-1.506M526.18 231.357l-3.613-2.527-2.352-1.654-.524-.206-1.832-.102-2.763-.165-.665-.218-.504-.394-.52-.888-.71-1.681-.688-2.652-.5-1.132-.747-1.085-.137-.645.153-.641.52-.792 2.493-3.56 1.27-1.725.492-.36.891-.432 1.231-.457.586-.439.516-.627 2.024-3.402.38-.717.206-.72.063-1.94.187-2.91-.078-3.21-.852-3.617-.445-.923-.93-.913-.352-.546-.047-.536.243-.582 1.199-1.767.059-.686-.336-.675-.825-1.179-.164-.66.16-.64.657-.927 1.301-1.006 2.548-.968 3.459-.731.882-.405.844-.72 1.376-1.636M579.453 346.851l.824-5.697 1.22-3.69 2.016-3.526 1.5-2.1.872-.766 2.517-1.324.633-.63.558-1.08 1.607-2.963.723-1.744 1.016-3.166.89-2.847.028-.953-.36-1.447-.832-2.607-.723-2.003-.531-2.753-.594-1.527-.989-1.849-1.38-2.277-1.113-1.661-.368-1.032-.316-1.485-.05-1.61-.153-4.193-.258-2.28-.301-1.294-1.102-2.847-.469-1.756-.117-.885.351-1.718 1.86-8.35 1.08-2.932 1.39-2.146 2.283-3.106M627.282 452.33l-3.193-8.124-6.188-15.574-5.392-13.531-1.063-2.67-1.126-2.221-1.89-3.39-2.267-3.841-1.548-3.63-.985-2.791-.5-1.92-.234-2.506-1.235-18.392-.875-14.582-.298-1.261-1.235-3.526-.734-1.215-1.25-1.605-1.095-.75-1.703-.75-2.517-.585-5.237-.878-.46-.113-5.01-.885-1.794-.739M368.12 208.594l1.025.434 4.486 1.673 3.348 1.421 1.581.882 1.386.923.863.42 2.263.731.863.436 1.098.9 1.391 1.609.57.39.751.176.856-.146 2.435-.934 2.536-.487 4.177-.556 2.255-.104 1.614-.38 1.282-.435 1.512-.615 1.203-.146 3.67-.169.926.116 2.345.825.781.053.829-.21 2.696-1.403 1.078-.233 1.169-.07 2.572.284 1.836-.007 1.337-.169.539.109 1.758.712 1.551.822.63.244.551.049 1.864-.297 5.819-1.166.851-.21.602-.263 1.665-1.238 1.907-.975 1.508-.972.915-.255 1.868.004.781-.3 1.36-1.216 1.22-1.395.144-.39-.02-.536-.285-.702-1.32-1.88-1.126-1.68-.02-.427.31-.623 1.074-1.932M398.894 488.697l-2.141 1.8-1.626 1.14-1.766.9-3.533 1.276-2.25.6-1.016.29-.454.13-1.516.84-1.564 1.215-1.313.795-1.813.795-3.83 1.65-20.335 8.325-.86.51-.437.69-.423 1.23-1.75 7.006-1.142 4.29-1.031 4.23-.97 4.32-.656 2.82-.61 1.755-.86 1.725-.577 1.26-.282 1.14-.203 1.545.063 2.235v1.305l-.298.765-.547.75-.703.81-.828 1.185-1.689 2.985-.155.305-.225.443-1.276 2.507-2.204 4.59-2.095 3.93-.61.885-.578.27-1.172.196-2.08.45-3.454.734M398.894 488.697l1.078.57 5.737 2.326 1.814.87 1.36.45 2.407.465 3.33.93 2.11.645.484.51.235.6-.36 1.35-.453 1.725-.204 1.575.047 1.665.148 1.118.024 2.077.235 10.29.093 3.346.204 1.53.344.99.5.72 2.032 2.235 3.501 3.615M386.702 452.68l.328 1.41 1.985 5.295 9.88 29.312M353.643 457.23l7.408.73 3.064.33.99.021.499.01.621.014 3.33-.21 1.563-.285 1.157-.405 1.063-.885 2.406-1.995.97-.555 1.344-.405 3.11-.405 3.986-.45 1.548-.06M365.319 392.493l1.895-.602M353.643 457.23l2.172-21.142.203-.525.61-.525 7.925-6 .109-.511-.281-.57-2.939-2.34-3.642-3.36-3.642-2.866-3.72-3.345-3.595-2.94-.094-.346.25-.42.886-.573 1.052-.687 2.47-1.95 4.893-3.15.261-.215.38-.312.874-.719 1.095-1.305 1.36-2.16 2.547-4.591 2.502-4.185M624.655 454.252l2.627-1.921M632.806 455.67l-.915-1.535-4.609-1.804M190.063 341.124l-1.454-3.39.047-.42.844-1.156M190.063 341.124l3.314-2.025M193.377 339.099l2.657 2.925 1.078.856M289.844 336.608l3.638-5.541M172.67 353.49l-1.208-3.83.343-1.62 1.908-3.3 1.625-4.02-.25-3.241-.234-.256M177.98 329.182l-1.939 1.665-.234.405-.953 5.97M243.341 304.584l17.921 1.088.657-.03 1.26-.227M239.535 347.718l3.36.802.118.128-3.212 8.29M239.535 347.718l.653-1.227M239.535 347.718l-3.532 3.938M221.451 356.318l6.002-3.237 1.088-.636.988-.515 1.596-.754 9.063-4.685" clip-path="url(#p52870ad037)" style="fill:none;stroke:#000"/><path d="m218.464 338.244 1.345.615h.406l3.345-1.186.61-.06 5.08 1.05.782.18.656.286 8.92 7.2.283.106.297.056M157.393 359.158l2.58 2.55.687.39.876.06 1.125-.345 7.613-6.406 1.047-.945 1.35-.972M221.451 356.318l-2.81 1.515-4.726 2.469" clip-path="url(#p52870ad037)" style="fill:none;stroke:#000"/><path d="m198.05 355.541 2.095-1.44.305-.044.39.037 2.618 2.513.235.067.313-.09 2.383-1.882.297-.038.258.09 6.971 5.548M221.451 356.318l-7.074-5.45M251.706 280.518l1.839 2.992M251.706 280.518l-1.903-2.681M251.706 280.518l10.743-6.808M251.706 280.518l-7.867 4.986M262.45 273.71l-1.672-2.786-10.975 6.913M243.839 285.504l-2.069-2.607 8.033-5.06" clip-path="url(#p52870ad037)" style="fill:none;stroke:#000"/><path d="m259.713 279.714 4.629-2.849-1.893-3.155M243.839 285.504l2.12 2.674M255.275 286.047l-1.73-2.537M253.545 283.51l-7.586 4.668M253.545 283.51l6.168-3.796M245.96 288.178l1.088 3.666M297.258 252.473l-6.093-1.144-1.81-.688" clip-path="url(#p52870ad037)" style="fill:none;stroke:#000"/></g><g id="PatchCollection_1"><path d="m356.564 309.602-.907 1.98.031.33 1.876 3.421.438.39 1.52.887.512-.046 2.501-1.891.313-.69-.25-.99-.876-1.8-3.47-2.58h-.312zM367.94 325.972l.34-.237.341-.09.31.308.608.91.134.277-.3.544-.618.327-.701-1.484zM369.209 325.16l.402-.435.588-.535.33-.465.732-.812.124-.03.36.15.393.257.175.168.072.228-.835 1.504-.691.862-.206.316-.392.425-.186.01-.217-.306zM371.07 322.416l-.3.003-.219-.154-.34-1.008-.135-.873.045-1.206.156-.194.188-.158 1.114.161.367.135.211.604.063 2.198-.036.192-.101.093zM370.533 317.413l.103-2.376.124-1.504.433-2.692.31-.515.412-.02.846.89 2.887 2.654-.825 1.425-.825 1.821-.536-.119-.186.97zM367.914 317.156l-.103-1.623.33-.298.845-.455.454-.178.165.06.062.95.02 1.108-.185.475-.351.06-.722.02zM125.1 274.645l-.813 1.5 1.688.66 1.22 2.671 1.406.3 1.563-1.38-.03-1.08-2.377-2.341-1.094-.87zM119.942 281.456l-7.441 8.162 3.001 1.14-1.657 2.581 1.72.69 14.787-.27 1.407-2.37 4.095-.36-.25-4.232-.375-2.22-1.657-1.2-7.565-1.38-5.159-.96zM400.457 217.494l3.502 4.456 8.159-3.6-.532-2.326-2.86-.855-3.704.42-3.674 1.29zM237.8 270.024l1.157 1.47 6.127-1.68 5.221-2.581.344-2.07-1.313-1.591-7.222 1.98z" clip-path="url(#p52870ad037)" style="fill:#00f;fill-opacity:.8"/></g><g id="PatchCollection_2"><path d="m441.004 145.065 8.566 15.486 1.376 15.365-5.878 12.904 14.006-1.5 25.51 15.184 6.565 5.582-3.251-17.165 3.876-6.062-2-14.104 4.251-8.944-8.44-2.22 7.19-6.303-2.564-6.722-9.754-4.022-3.439-6.182-14.505 7.083-7.253-3.242-5.565 1.02zM367.538 156.109l1 8.043 8.754 4.382 7.878.12 3.814 5.641 24.01 9.364 1.813 5.642-11.943-1.501-3.126 3.3 2.376 5.162 18.195-2.16-2.751-5.822 14.005 1.2 6.377 2.701 4.502-6.962-3.376-9.363-10.379-7.623-16.757-6.602-16.256-4.261-6.19 2.34-10.629-1.26-9.754-2.7zM376.73 100.709l8.377 18.607 31.638-12.125 22.758-5.762-32.012-3.482 6.253-22.209-16.632 4.082-10.254-13.326L390.36 81.5l-6.878 1.921-20.883-28.092-5.002-8.403-11.88 3.001-6.002-9.124-1.001 8.164-9.628 6.843 2.5 11.284 9.13 1.441 10.503-11.525 3.127 21.13 6.877 20.408zM321.582 123.997l-6.252 5.162 2.376 4.922-3.126 3.001 1.25 2.881 6.753.6 3.751 4.442 1.376 10.804 5.377-8.643 2.814 1.38-2.188 6.663 6.752 2.94 13.13-5.1 5.503-8.644-15.757-11.224-17.007 3.662-3.063-12.785zM298.824 44.285 281.942 58.21l15.256 9.964-13.63 3.001L302.7 81.861l5.503 1.2-3.002 7.563 12.63 10.805 8.879-13.326 3 14.887 9.255-8.884-3.752-14.046-22.009-9.604-3-9.244-4.753-.96zM220.23 114.754l3.94-2.761 10.129.3.375 3.001 20.258 10.804 15.005 3.181-.562 3.122-6.878 2.28-1.75 3.181-7.754-5.941-4.814-5.463-11.817-1.32zM138.614 170.808l3.794-7.574 2.606 3.859.563 9.603 7.502 4.622 1.126-7.083 4.44-7.742-3.878-3.901-10.503-3.062 9.253-6.962.188-1.62.938-.54 7.44 3.12 5.94-3.24 2.75.3 3.752-38.835 4.127-9.604-4.127-5.282 5.753-6.483 10.879 4.922 1.25 23.53-9.629-.96.626 11.043-3.252 7.083-3.75 3.121 6.752 4.322-.126 3.72 6.128 6.724-3.251 4.2-15.175-5.409-.394 18.914 5.627 3.662 4.627-5.222 2.814 1.5 2.563 7.383 12.005 8.463 8.316-1.74 1 3.42-1.875 4.262-9.004-5.522-15.068 3.18-16.194 4.922.25 5.762-25.573-19.986zM608.507 45.605l-.25-2.58-.604 2.341-2.147-.601-6.377 6.303-4.44 2.88-3.813-4.681-4.315-.84-.125-3.542-14.881-6.663-1.938 12.305 11.004 5.163-2.688 2.28-3.501 6.063-7.066 5.522-2.938 3.362-2.376 7.023 1.313 13.085-4.127 17.347 15.318 4.382.876-7.443 5.877 3.721 8.19-12.484 17.008-9.424-7.066-2.761-16.444-.48-1.813-3.482 16.569-4.262 3.063-5.462-4.376-5.583-7.878.6 17.694-9.003-.625-4.142 7.378 8.044-.5 2.76 5.564-1.62-2.438-4.982 1.25-5.462-1.5-.78-3.189 2.52z" clip-path="url(#p52870ad037)" style="fill:#006400;fill-opacity:.8"/></g><g id="PatchCollection_3"><path d="m320.511 330.077-.921 4.335 4.924 1.088.904-4.25zM286.31 322.978l-.169.023-.168-.028-.15-.077-.128-.13-.074-.166-.012-.178.052-.172.11-.146.154-.1.18-.046.187.017.17.075.131.127.076.147.025.162-.029.161-.08.145-.122.114zM285.314 322.652l-.042-.116-.02-.277.039-.131-.664.398zM285.202 323.356l1.004.846-.053-.75-.259-.015-.273-.08-.084-.081zM285.532 321.6l.388-.132.327-.021.335.102.007-.555.144-1.262.384-2.2-.114-.066-.198.175-.421 2.346-.548 1.029-.319.518z" clip-path="url(#p52870ad037)" style="fill:green;fill-opacity:.8"/></g><path id="PatchCollection_4" d="m295.585 324.67 3.564.784-1.278 5.355-3.564-.783z" clip-path="url(#p52870ad037)" style="fill:#90ee90;fill-opacity:.8"/><g id="PatchCollection_5"><path d="m325.269 316.023 4.816 6.33 4.395-2.502 3.483 5.743 1.313.06.375 1.98 6.065-.24.312 6.062 16.194.3-1.75-16.444-1.232.199-2.332-1.64-6.61 1.34-1.894 3.282-.625-3.78-7.69-11.223 1.813-1.26-1.982-4.724-2.582.823-8.04 5.718-2.027 1.543-2.044.918-2.17 5.428zM324.421 289.971l7.602-1.165 2.752-4.801 2.125-9.062-8.61-1.513 1.86-9.467 11.455-20.784 3.11-.585.832 1.638-2.75 1.801 3.794 3.643 9.96-7.304.67-1.458 2.125-1.56h1.689l2-1.801-7.128-7.682-.437 1.5-5.359-2.067 1.892-3.684 5.807-6.864-5.091-8.511-3.44 1.44-2.231-4.303-3.69.9-.625-1.2-2.707.582-1.375-.54 1 2.7 2.126-.06 2.188-.42 1.832 4.1-22.59 8.865-20.07 18.304-.482 9.021-1.08 24.497-.12 4.473-.645.511 7.83.209-.131 8.767 14.895-1.519zM287.075 220.6l-.125 7.202 12.13 7.262.75-8.042zM310.584 207.516l4.126 7.562 2.064-.9 3.439-5.942-4.252-19.386-3.751 1.8 4.439 15.186z" clip-path="url(#p52870ad037)" style="fill:#006400;fill-opacity:.8"/><path d="m302.644 213.097-1.189 22.987 4.197 2.235 6.188-5.643-2.256-3.974 1.688-4.921-2.751-9.363-2.275-1.891zM119.566 140.023l-4.001 18.067 20.82 17.166 7.879-15.726 9.253-6.962.188-1.62z" clip-path="url(#p52870ad037)" style="fill:#006400;fill-opacity:.8"/></g><path id="PatchCollection_6" d="m144.264 159.53-1.856 3.704 2.606 3.859.563 9.603 7.502 4.622 1.126-7.083 4.44-7.742-3.878-3.901z" clip-path="url(#p52870ad037)" style="fill:#90ee90;fill-opacity:.8"/><path id="PatchCollection_7" d="m312.516 347.558 1.269-5.323 21.349 8.649 3.642 3.455 1.75-.72-4.475-20.973-1.366-1.584-.319-3.446-6.68-4.62-3.161-1.322.42-1.112.762-1.477-.438-3.062-2.212-2.087-1.913-1.184-3.545-1.303 4.985-21.186.642-2.63-14.717.458-1.063 6.514-7.393-.19-1.406-2.565.429-5-6.197-.382.918-5.167 5.776.243.174-1.612.95.111.113-.928.645-.51.12-4.474 1.08-24.497-2.25-.18-.688 1.62-2.501-.12-1.939 9.783-3.77 4.543-2.607 5.54-4.645-3.5-29.2 20.526 5.271 3.799-6.333 6.643 17.454 15.018z" clip-path="url(#p52870ad037)" style="fill:#d3d3d3;fill-opacity:.8"/><g id="PatchCollection_8"><path d="m320.476 332.1-.142.697 1.895.391.16-.731zM370.648 320.555l.03-.357.542.043-.03.357zM143.147 367.25l-.125.914 9.286 1.17.126-.914zM144.863 365.783l-.126.914 9.287 1.17.125-.913zM145.101 363.995l-.125.913 9.286 1.17.126-.913zM145.394 362.288l-.125.913 9.286 1.17.126-.913zM145.623 360.47l-.125.914 9.286 1.17.125-.913zM145.916 358.764l-.125.914 9.286 1.17.125-.914zM148.421 348.2l-.126.913 8.223 1.049.127-.914zM147.671 352.76l-.126.914 8.223 1.049.127-.914zM148.078 350.54l-.127.913 8.223 1.05.127-.914zM147.593 354.8l-.126.914 8.223 1.049.126-.914zM147.186 357.021l-.126.913 8.223 1.05.127-.914zM141.996 368.752l-.125.914 9.286 1.17.126-.914z" clip-path="url(#p52870ad037)" style="fill:#a9a9a9;fill-opacity:.8"/></g></g></g><defs><clipPath id="p52870ad037"><path d="M90 100.821h558V626.38H90z"/></clipPath></defs></svg>