<svg xmlns="http://www.w3.org/2000/svg" width="960" height="960" viewBox="0 0 720 720"><defs><style>*{stroke-linejoin:round;stroke-linecap:butt}</style></defs><g id="figure_1"><path id="patch_1" d="M0 720h720V0H0z" style="fill:#fff"/><g id="axes_1"><path id="patch_2" d="M90 620.726h558V106.474H90z" style="fill:#fff"/><g id="LineCollection_1"><path d="m319.49 314.937 7.545 9.261 3.768 4.68.78 1.043.865 1.224.848 1.335M338.033 335.18l-3.093-1.785-1.644-.915" clip-path="url(#pc4edd0adbb)" style="fill:none;stroke:#000"/><path d="m335.97 337.761-.977-2.22-.635-1.22-1.062-1.841M392.162 359.622l-2.89 2.35M392.162 359.622l4.195-3.102M392.054 354.302l.013.622.095 4.698M378.392 372.343l-.66-.96M378.392 372.343l2.002 2.767M378.392 372.343l-2.019 1.417M378.392 372.343l1.693-1.133M379.465 370.344l-2.11-3.256M379.465 370.344l.62.866M379.465 370.344l-1.733 1.038M379.465 370.344l2.324-1.26M396.892 361.106l-.056 3.007M396.892 361.106l-3.964 2.09M396.892 361.106l3.322-1.594M396.357 356.52l.27 2.313.09.776.175 1.497M362.24 378.18l4.31-3.298M362.24 378.18l.868 2.696M354.6 382.568l5.822-3.243.884-.515.933-.63M361.468 375.641l.351 1.189.22.7.2.65M357.68 363.424l-9.594 4.967M357.68 363.424l.779 2.719M361.693 361.197l-3.49 1.936-.523.291" clip-path="url(#pc4edd0adbb)" style="fill:none;stroke:#000"/><path d="m346.955 365.68 7.636-3.775.266-.043.225.023.215.055.287.132 1.217.575.32.171.213.157.16.178.186.271M380.97 346.563l-.475.582M373.639 344.386l.537-.25.203-.022.229.014.303.1 2.669 1.177 1.029.386 2.36.772M386.723 347.464l-.744-.161-.635-.099-2.324-.28-2.05-.361M400.793 365.337l4.316.986.409.112.385.136 1.786.9.909.468.868.46.961.331 1.436.437 5.189 1.5.62.058.821-.039 1.018-.098 1.299-.213 3.791-.795M482.564 323.891l-.54 1.173-2.154 6.739-1.367 4.392-1.078 3.102-.885 2.613-1.06 3.039-1.143 2.377-1.27 2.11-1.094 1.63-.925 1.235-.579.567-.844.417-.917.197-1.528.26-2.598.574-1.447.244-1.609.22-1.456.135-1.994.291-1.158.236-.852.346-1.014.567-1.166.646-2.155 1.133-4.303 2.07-4.31 2.079-2.975 1.306-2.864 1.182-3.313 1.243-5.71 2.204-3.655 1.362" clip-path="url(#pc4edd0adbb)" style="fill:none;stroke:#000"/><path d="m570.045 375.917-.997.157-1.11-.031-1.881-.244-2.14-.528-1.045-.236-.981-.394-1.456-.802-1.737-.662-1.898-.354-2.172-.252-2.404-.472-1.36-.275-1.19-.166-2.452.063-1.947.134-1.302.04-1.166-.071-2.542-.3-2.927-.299-2.123-.362-.715-.047-.547.094-.78.228-1.754.457-1.254.134-1.094.118-1.11.118-1.632.071-2.059-.04-1.81-.03-1.39-.025-1.601.339-1.946.614-2.895.866-2.848.598-2.653.158-1.223-.071-.627-.126-1.182-.496-2.332-1.118-1.31-.692-.861-.544-.716-.63-.732-.684-.571-.362-.828-.252-1.85-.174-1.665.142-1.576.33-2.316.71-2.268 1.101-1.053.52-.813.244h-.579l-1.343-.22-1.511-.237-1.553-.322-2.115-.174-1.793.119-1.331.212-.889.267-1.447.74-2.421 1.441-1.423.653-.877.19-.627.015-.813-.087-.65.071-1.022.229-.837.094-.707-.063-1.375-.496-1.11-.653-1.102-.74-1.866-1.142-1.383-.637-2.075-.582-1.093-.19-1.006.095-1.206.283-1.327.52-3.12 1.417-2.614 1.204-.965.291h-.684l-.917-.173-1.528-.401-4.206-1.165-4.656-1-8.432-2.393M361.308 346.338l5.113-1.117M361.308 346.338l-4.883-3.668M361.308 346.338l10.027 7.884M399.896 356.218l-1.62-.276-.214-.036-.329.005-.292.03-.211.072-.873.507M396.068 351.372l.174 3.087.115 2.061M376.373 373.76l-6.987 5.388M376.373 373.76l-1.44-1.712M376.373 373.76l1.472 1.905M400.214 359.512l-.318-3.294M400.793 365.337l-.012-.665-.157-2.149-.41-3.011M374.934 372.048l-1.576-2.189M371.188 374.838l1.217-.866 2.529-1.924M368.07 377.208l-1.52-2.326M368.07 377.208l-2.908 2.207M368.07 377.208l3.118-2.37M368.07 377.208l1.316 1.94M386.024 374.842l-.945-1.44M383.66 376.263l2.127-1.315.237-.106M393.62 370.123l-6.116 3.92-.587.347-.49.25-.403.202" clip-path="url(#pc4edd0adbb)" style="fill:none;stroke:#000"/><path d="m385.344 379.085 2.288 3.444.201.094.19.024.257-.036.193-.054 1.552-1.16.078-.104.068-.1.01-.097-.004-.126-.052-.157-2.477-3.436-1.624-2.535M364.772 372.469l1.496 2.03.282.383M369.501 372.673l-.687.518-.487.368-1.777 1.323M359.167 368.761l-9.111 4.542M359.167 368.761l2.148-1.267M359.167 368.761l-.708-2.618M359.167 368.761l.82 2.688M381.596 360.37l-1.724-3.566-.415-.858M381.455 355.048l-1.31.646-.688.252" clip-path="url(#pc4edd0adbb)" style="fill:none;stroke:#000"/><path d="m375.702 355.894 1.845.143.74.012.161.003.68-.043.33-.063M338 341.415l.882 2.44.343.582.103.146.187.133.259.118.507.162 5.215 1.39M389.273 361.972l-.103-.148M389.273 361.972l1.15 2.436M384.141 362.732l1.356 1.603.088.07.104.022.077-.01.167-.105 1.683-1.08 1.657-1.26M379.958 378.463l3.701-2.2M379.958 378.463l-1.522-2.082M385.328 383.096l-1.683-.331-.316-.08-.192-.09-.214-.16-1.596-2.114-1.369-1.858M389.437 358.552l-.064.818M390.436 348.341l-2.787 7.254-.01.373.098.332 1.7 2.252" clip-path="url(#pc4edd0adbb)" style="fill:none;stroke:#000"/><path d="m389.454 354.36-.109.444-.04.485.132 3.263M381.412 372.941l-.776-.96M381.412 372.941l.731 1.063M381.412 372.941l2.386-1.315M377.355 367.088l-1.786 1.119M379.667 365.55l-2.087 1.388-.225.15M378.436 376.381l1.958-1.271M378.436 376.381l-.591-.716M391.818 366.746l.95 1.783M391.818 366.746l-1.395-2.338M391.818 366.746l-5.107 3.251M395.887 363.896l-2.183 1.595-1.886 1.255M376.933 351.049l-7.174-6.36M376.933 351.049l1.85-2.054M376.933 351.049l-1.096 1.134M381.455 355.048l-3.184-2.816-1.338-1.183M375.702 355.894l2.774 6.877M373.144 355.363l1.307.326 1.25.205M356.482 389.21l-.82-.549-.403-.17-.31-.058-.402-.04-.993.005-1.657-.012-6.936.133" clip-path="url(#pc4edd0adbb)" style="fill:none;stroke:#000"/><path d="m324.35 395.494 8.761-6.817.764-.535.304-.162.422-.146.47-.066.582-.026.957.054 1.644.169 2.964.417.913.098.98.043.865.012.985-.016M355.357 386.32l-.3-.058-.33-.015-.506.082-9.26 2.19M352.22 339.45l2.762 2.134M356.037 338.4l-.255-.227-.113-.051-.102-.022-.23.004-.352.126-2.766 1.22M349.911 338.687l.929.157.414.098.438.181.527.327M390.436 348.341l-1.494-.345M390.436 348.341l1.647.382M360.089 393.667l-1.277-2.343M360.089 393.667l12.907 26.737M330.937 458.114l.34-1.316.709-2.26.618-1.951.789-2.52.321-.838.182-.33.212-.3.788-.87 1.516-1.786 2.642-2.944 1.038-1.11.514-.653.379-.535 1.833-3.102.788-1.299 1.013-1.708 1.36-2.11.964-1.503.523-.89.253-.527.174-.444.257-.91.394-1.841.957-4 .281-1.07.282-1.267.281-1.669.17-2.062.112-.63.16-.504.322-.866.64-1.346.27-.464.823-1.122.274-.334.374-.46.31-.481 1.218-2.216.868-1.59.545-1.045.244-.53.225-.55.212-.61.716-2.28.35-1.117.547-1.92 1.364-4.567M366.421 345.22l8.515 7.926M369.759 344.69l-1.79.267-1.548.264M381.999 361.248l1.134 2.113M381.999 361.248l-.403-.878M385.54 356.607l-.972 2.496-.277.603-.15.227-.267.238-.206.146-1.67.93M378.476 362.77l1.626-.702 1.897-.82M399.896 356.218l4.685 1.054M349.171 330.559l.322 2.558M354.768 331.763l-.957-1.464-.287-.246-.195-.143-.217-.083-.201-.016-.31-.008-3.43.756M347.83 319.176l.15 1.424 1.191 9.959M404.58 357.272l.338-.976.19-.956.006-.278-.043-.26-.119-.289-.53-.805-.274-.315-.323-.208-.386-.16-7.37-1.653M392.043 350.01l3.302-.07.253-.006.148.021.085.048.06.072.075.138.08.902.022.257M383.663 355.683l1.23.605.648.319M388.09 360.157l-1.27-2.137-.278-.44-.217-.292-.157-.168-.152-.162-.475-.351M388.942 347.996l-.925 2.34-2.476 6.27M372.147 368.084l.399-.268M372.147 368.084l1.21 1.775M367.99 370.6l3.388-2.05.769-.466M348.086 368.391l1.009 2.516M348.086 368.391l-1.13-2.711M369.501 372.673l-1.511-2.074M369.501 372.673l1.687 2.165M369.501 372.673l3.857-2.814M381.596 360.37l2.067-4.687M381.455 355.048l2.512-1.395M379.667 365.55l-1.19-2.78M379.667 365.55l2.032-1.284M379.667 365.55l2.122 3.534M400.793 365.337l-3.957-1.224M399.18 366.565l.849-.555.286-.204.208-.182.27-.287M384.367 367.677l.692-.388 1.684-.856.985-.502 2.695-1.523M392.928 363.196l-.808.39-1.697.822M374.936 353.146l.9-.963M374.936 353.146l-1.984 2.133M388.09 360.157l1.283-.787M389.17 361.824l-.245-.379-.834-1.288M384.141 362.732l.747-.466 1.393-.87.063-.042 1.747-1.197M392.083 348.723l-.567 1.283M392.8 347.247l-.39.803-.146.301-.18.372M385.32 386.918l.008-3.822M385.32 386.918l-.032 3.176M388.734 388.728l-1.028-2.02-.208-.127-.192-.041-.257-.048-.318-.003-1.41.429M375.802 363.696l-2.284-3.074M378.476 362.77l-1.749.623-.925.303M373.418 365.12l1.427-.948.503-.264.454-.212M350.056 373.303l1.186 2.673M350.056 373.303l-.961-2.396M362.9 369.76l2.814-1.723.22-.047.214.065.12.07.167.166 1.555 2.308M364.772 372.469l2.027-1.185 1.19-.685M380.394 375.11l1.75-1.106M380.495 347.145l-1.713 1.85M380.495 347.145l4.684 4.21M337.337 341.197l.897 2.374 4.946 11.855 1.054 2.67 2.026 5.667.695 1.917M385.288 390.094v2.196M388.734 388.728l-1.283.523-.909.343-1.254.5M335.97 337.761l1.367 3.436M346.582 341.355l-7.327-2.467-3.285-1.127M351.142 345.618l-5.485-1.775M359.988 371.45l1.158 3.136M359.988 371.45l-8.746 4.526M362.9 369.76l-.76.442-2.152 1.247M380.636 371.98l-.551-.77M383.798 371.626l-.5-.24-.26-.067-.528-.072-.304-.02-.268.047-.205.073-1.097.634M362.9 369.76l-1.585-2.266M362.9 369.76l1.872 2.709M373.639 344.386l5.143 4.609M369.759 344.69h1.218l.828-.04.648-.055 1.186-.21M385.079 373.402l-.78-1.252-.304-.369-.197-.155" clip-path="url(#pc4edd0adbb)" style="fill:none;stroke:#000"/><path d="m386.711 369.997-2.558 1.432-.355.197M354.6 382.568l.607 1.329M354.6 382.568l-1.239-2.416M393.62 370.123l-.851-1.594M399.18 366.565l-2.569 1.59-2.992 1.968M386.711 369.997l-1.009-1.515M351.242 375.976l2.119 4.176M385.344 379.085l.069.63.02.44.012.887-.117 2.054M383.66 376.263l-1.517-2.259M385.344 379.085l-.499-.98-1.186-1.842M385.179 351.356l1.544-3.892M384.262 353.964l.285-.813.632-1.795M354.982 341.584l1.443 1.086M356.037 338.4l.497.562.064.116.006.106-.036.105-.086.163-1.5 2.132M386.723 347.464l2.22.532M363.108 380.876l1.258-.858M356.923 385.83l.544-.68.329-.358.398-.338 3.044-2.217 1.87-1.36M384.367 367.677l-2.578 1.407M381.699 364.266l1.446 1.839 1.222 1.572M338.033 335.18l2.263 1.082 2.152.776 1.4.452 2.508.626 1.613.307 1.942.264M348.822 341.989l.876-2.559.213-.743M349.493 333.117l.394 3.68.088.5.033.492-.097.898M375.57 368.207l-1.187-1.63M375.57 368.207l2.162 3.175M370.274 330.275l.031.902-.124.511-.137.417-.326.576-.269.397-.382.386-.499.362-2.593 1.365-.62.374-.546.315-.555.39-1.122.775-3.498 2.74-3.209 2.885M383.133 363.361l1.008-.629M383.133 363.361l-1.434.905M349.493 333.117l5.275-1.354M356.146 385.926l-.84-1.815M356.146 385.926l-.618.195-.088.042-.068.068M357.744 389.496l-.607-1.248-.991-2.322M356.146 385.926l.625-.149M383.967 353.653l-.268-.27-4.917-4.388M372.952 355.279l.192.084M371.335 354.222l1.323.901.294.156M369.357 381.466l3.24-2.267 3.571-2.405 1.677-1.129" clip-path="url(#pc4edd0adbb)" style="fill:none;stroke:#000"/><path d="m307.614 232.187.084.287.033.492-.064.485-.165.79-.13.461-.273.748-2.07 5.318-.362 1.078-.117.48-.048.386.024.512.205.807.302.752.37.625.574.784 1.52 1.835.692.75.302.395.261.385.189.378.125.422.096.401.117.449.23.66 1.093 2.473 1.52 3.286.39.571 1.106 1.359.639.712.868.826.652.516.651.315.865.33 1.904.572.343.131.33.19.362.296.215.223 1.208 1.486.326.535.245.531.298.796 1.138 4.565 1.146 4.319.221 1.165.499 3.247.1 1.208-.012.54-.052.554-.113.733-.113.63-.587 2.526-.072.48.012.402.08.445.133.46.186.413.321.524 1.733 2.252 1.524 1.822.515.657.21.398.184.508.193.744.293 1.48.507 1.732.201.755.165.933.112.925.045 1.29.177 2.976.305 2.22.322 1.567 2.734 10.32 1.922 6.991.37 1.22.29 1.295.257 1.492.563 4.377M392.043 350.01l-.527-.004M392.054 354.302l-.003-1.25-.008-3.041M337.337 341.197l.664.218M363.478 352.002l1.68.421.825.181.837.236 1.194.406 2.227.653 1.094.323M353.361 380.152l8.107-4.51M363.813 365.93l-1.411.884-1.087.68M361.468 375.641l-.322-1.055M384.262 353.964l-.141.397-.458 1.322M361.146 374.586l1.747-1.02 1.241-.725.638-.372M357.016 337.21l-.37-.27-.486-.509-.253-.437-.174-.531-.333-1.531-.406-1.626-.226-.543M103.27 135.265l.252-.39.75-3.895.403-1.501M102.595 117.513l-1.864 4.064.035.316.172.406 1.153 1.151 2.076 1.795.854.937.253.463.115.587-.057.667-.254.891-.403.689M114.555 130.433l-6.039-.729-3.841-.225M114.555 130.433l-11.96-12.92M148.911 169.51l-26.575-30.85-7.781-8.227M102.595 117.513l.493-.591.304-.093 16.279-.465M254.888 247.776l.824 1.46 1.417 2.878 3.165 7.055 1.158 2.127 1.253 1.992 1.556 1.992 1.753 1.906 2.073 2.068 3.11 2.897 9.14 7.662 13.35 11.436 20.037 17.338 1.544 1.454 1.534 1.62 1.567 1.853 1.121 1.423" clip-path="url(#pc4edd0adbb)" style="fill:none;stroke:#000"/><path d="m197.547 261.378 5.417 1.558 1.624.477 4.584 1.271 1.5.449 1.58.563 3.984 1.618 1.758.775.744.429.631.449.784.63 3.58 3.322 2.331 2.235 1.27 1.016 1.107.78 1.339.846 1 .594 1.296.657 6.296 2.937 4.902 2.277 1.29.525.893.252.982.193 1.04.098 1.513.012 2.308-.063 6.965-.401 3.41-.272.88-.008.885.063 1.02.13 1.275.275 1.062.307.949.324 1.456.633 6.819 2.905 5.264 2.173 1.061.436.837.418.82.472.559.394.755.578 3.459 2.949 7.62 6.336 1.133.926.664.598.748.65.96.909.946.996 2.702 2.708.647.641.406.445.636.842.53.579.491.453.571.413.555.303.788.319.78.26.627.145.772.028.897-.06 1.412-.165.775-.002.716.06.833.131 4.505.768M486.81 463.765l.434.314 1.126.48 1.343.291 1.384.142 1.77.133 4.23.221 1.664.055 1.624-.173 4.713-.535 7.696-1.063 8.262-.954 1.678-.006 1.423.18 1.354.33 5.795 2.237 3.04 1.165 2.898 1.345.85.552.935.864.764 1.15 1.727 3.535.676 1.267.771 1.189.797 1.094 1.222 1.449 4.206 4.336 5.935 6.55 14.438 15.442 2.638 3.274 2.059 3.4 2.83 6.108-.163 3.268-1.094 8.501-.04.819M320.533 396.327l-1.108-.079-1.883-.144-.973-.047-.752.02-.671.066-.66.15-1.632.488-.945.385-.962.442-2.211.917-2.521.991-1.685.716-5.967 2.669-15.172 6.526-9.59 3.983-9.702 3.884-1.404.626M235.135 491.841l.097-.543.82-13.02.08-1.369.153-1.188.25-.898 3.49-7.108 5.396-11.319 5.043-10.036 3.482-7.021 1.688-3.725 7.061-17.694M338 341.415l7.657 2.428M351.865 343.02l-3.043-1.031M345.657 343.843l.925-2.488M346.582 341.355l2.24.634M356.037 338.4l.98-1.19M358.573 338.372l-.845-.638-.712-.524M364.366 380.018l.796-.603M364.366 380.018l1.363 1.92M365.73 381.939l.851-.635M358.36 388.763l.128-.59.094-.35.111-.303.257-.445.35-.378.43-.35 6-4.408M361.552 395.482l.917 2.137M361.552 395.482l3.844-1.96M362.034 386.497l-1.504.964-.321.335-.189.283-.096.299-.109.527-.049.776-.004 1.247.193.717.137.535.386.964.507 1.031.567 1.307M371.456 390.393l2.388-1.189M371.456 390.393l-2.478 1.126M371.456 390.393l-2.57-4.691M369.357 381.466l-1.649 1.138-2.976 2.082-2.698 1.81M363.583 389.559l-.279-.539-.112-.217-.361-.772-.797-1.534M365.396 393.522l1.042 2.184M368.978 391.519l-1.146.547-.653.356-.346.22-.335.284-.271.187-.83.41M363.583 389.559l.415.907 1.398 3.056M366.438 395.706l3.699-1.778M366.438 395.706l-3.97 1.913M371.388 396.282l-7.285 3.606-.203.077-.163.032-.12-.02-.085-.109-1.063-2.249M369.357 381.466l1.672 2.787M371.03 384.253l-2.144 1.449M373.844 389.204l-.953-1.657-1.862-3.294" clip-path="url(#pc4edd0adbb)" style="fill:none;stroke:#000"/><path d="m366.727 387.323-.664.642-.295.247-.44.329-1.745 1.018M366.727 387.323l2.251 4.196M368.886 385.702l-1.383.944-.378.311-.398.366M368.978 391.519l1.159 2.409M370.137 393.928l4.966-2.386M370.137 393.928l1.25 2.354M376.361 393.82l-4.973 2.462M376.361 393.82l-1.258-2.278M385.288 392.29l-5.388 1-.39.067-.84.11-1.267.15-.547.07-.495.134M372.996 420.404l.673-.28.273-.053.36-.01.451.077 11.168 3.112M385.244 394.833l-.013.732.137 1.487.08 4.778.009 10.419.016 8.466.04 1.224.06.54.069.241.082.206.197.324" clip-path="url(#pc4edd0adbb)" style="fill:none;stroke:#000"/><path d="m394.174 426.193-2.877-.6-.428-.112-.33-.126-.26-.126-.833-.68-.338-.24-.25-.149-.217-.084-.24-.055-1.595-.35-.322-.099-.207-.089-.356-.233M377.648 546.66l-.193-1.441-.149-1.35-.386-3.195-.462-3.72-.563-5.131-.036-1.433-.013-1.362.065-1.208.056-1.114.08-1.105.1-.866.057-.744.157-1.224.869-4.14 1.72-6.896 1.634-6.777 1.005-4.876.285-1.633.205-1.197.12-1.345.097-1.134 1.375-18.537 1.263-19.277.048-1.63-.052-1.613-.334-3.333-.136-1.098-.157-.996-.507-2.621-.157-.717-.253-1.09-.849-2.778-.474-1.311-.828-2.114-.885-2.11-7.354-15.14M486.81 463.765l-.58-.418-.924-1-.844-1.362-1.504-3.864-1.319-3.354-.869-1.448-1.029-1.495-3.248-3.401-7.03-7.478-5.17-5.392-1.392-1.283-1.495-1.086-1.287-.772-1.801-.89-6.048-2.873-7.72-3.62-11.886-5.416-2.976-1.404-.643-.395-.575-.405-.443-.339-.434-.437-.462-.586-.531-1.165-.395-1.126-1.326-4.77-.362-1.094-.442-.803-5.55-8.234-.527-.61-.45-.495-.607-.595-.502-.449-.853-.667-1.33-1.072-2.381-1.748-1.721-1.244-3.475-2.73-.888-.67-2.863-1.94-.645-.357-.746-.32-.563-.17-.768-.138-.716-.03-.61.078-.556.15-1.842.688-4.334 1.822-1.054.402-.796.299-.849.366-.715.303M392.928 363.196l2.96.7M396.836 364.113l-.949-.217M402.28 371.084l-.82-.803-.27-.28-.264-.326-1.745-3.11M404.58 357.272l.45.07.3.01.47-.05.56-.136.627-.205.284-.035.313-.002.34.061.738.303 1.214.602M394.854 337.683l-.591 2.275-.563 2.716-.515 3.267-.145.625-.24.681" clip-path="url(#pc4edd0adbb)" style="fill:none;stroke:#000"/><path d="m398.23 339.765-.168 3.306-.052.457-.088.488-.14.586-.133.418-.314.59-.297.386-.363.307-.422.272-.746.3-1.055.31-.615.086-1.038-.024M391.516 350.006l-2.062 4.354M389.454 354.36l2.6-.058M389.373 359.37l-.203 2.454M384.262 353.964l-.295-.311M375.837 352.183l2.7 2.35M444.916 184.62l-.089-.361M420.593 231.38l.71-3.401.234-.614.23-.46 1.962-2.67 3.61-4.077 3.314-3.905 3.828-4.125 3.924-4.133 3.788-3.811 2.172-2.267.731-.756.306-.362.265-.394.233-.543.04-.575V197.1l-.08-.874-.2-1.574-.62-3.842-.073-2.134.13-1.842-.049-1.102-.132-1.11M361.492 215.954l1.393-.839.641-.35 2.56-1.006 3.017-1.254 1.391-.645 1.271-.705 2.212-1.235 3.134-1.658.814-.492 2.683-1.606.474-.346.398-.354.42-.414.489-.54.51-.68 1.452-2.2.485-.65.438-.516.858-.978.37-.29.449-.245 3.146-1.333 2.586-1.188 1.978-.823.756-.264 1.033-.342 5.235-1.465 1.05-.35.66-.28.566-.314 4.194-2.654 5.948-3.727.775-.405.78-.316.744-.31 1.798-.433 1.017-.256.937-.272 1.041-.297.803-.199.752-.155 2.533-.353.375-.011.483.003 2.803.123.507-.009.566-.082 1.175-.228.856-.181.603-.114.754-.05.714.085.945.17 5.489.975 2.324.421 1.043.152.996.152M394.854 337.683l5.944-22.695.972-4.078.177-.594.225-.516.378-.528.535-.491 19.458-23.341M420.593 231.38l-.21 1.476-1.367 6.924-.643 2.87-.628 3.01-.164.847-.394 1.338-.805 2.547-.032.382.024.433.068.559.95 4.164.506 2.334.314 1.858.563 4.472.048.755-.028.65-.093.59-.864 3.35-.008.468.068.52.234.811 2.895 7.431.764 2.031.386.976.185.591.12.523.068.564-.007 1.586" clip-path="url(#pc4edd0adbb)" style="fill:none;stroke:#000"/><path d="m457.964 252.293-2.212.7-.724.363-.442.41-.603.645-.772 1.157-.853 1.181-.707.693-.692.41-.917.37-1.134.558-.66.48-.578.598-.62.772-.804 1.22-.61.977-.556.842-.796.787-1.23.937-1.247.819-1.101.542-1.014.654-1.287.945-1.013.89-.708.74-.86 1.101-.692.914-.426.866-.394 1.07-.74 1.18-.724.922-.973.968-1.383 1.244-.78.732-1.35 1.354-.637.606-.747.552-.869.464-1.062.7-.618.6-.507.621-.571.7-.808.863M524.728 163.23l-1.142.441-1.23.473-1.27.716-1.625.897-3.185 1.732-2.694 1.693-1.978 1.024-2.172.991-1.986.677-1.416.41-2.46.59-3.193.575-2.493.126-1.552.07-1.68-.14-4.569-.434-5.21-.512-3.346-.33-2.502-.063-2.187.134-1.503.236-1.28.283-.916.346-1.142.52-1.311.709-1.054.74-2.396 1.653-2.445 1.763-1.52.898-.788.339-1.102.33-2.815.725-5.62 1.52-3.033.763-3.602.732-1.484.402M482.564 323.891l1.987-5.644 2.026-6.046 1.464-4.203 1.03-2.882 2.01-6.014 1.48-4.464.273-.882.458-.716.732-.488 1.19-.362 2.236-.3 7.608-1.18 7.157-.96 8.3-1.087 5.34-.834 2.572-.536 2.3-.315 2.8-.377 9.055-1.229 10.888-1.51 7.142-1.15 7.447-1.024 6.095-.866 1.818-.267M588.216 261.031l-4.266.442-4.882.472-2.18.228-.715.22-.499.3-.57.59-.459.732-.233.606-.096.685-.065.921v3.763l.161 4.298.29 1.654.385 1.527.885 3.086M377.648 546.66l.45 3.238.402 2.346.648 3.306.587 3.1.623 3.22.25 1.409.22 1.193.214 1.208.193 1.094.072.433.093.775.08.779.1.732.028.708.085 1.078.025 1.594.011 1.496-.044.948-.104 1.464-.121 1.134-.14 1.098-.178 1.172-.148.988-.234 1.196-.534 2.224-1.589 6.25-1.424 5.721-.61 2.582-.25 1.02-.245 1.062-.125.606-.152.83-.205 1.122-.41 2.48-.146 1.058-.498 3.512M482.749 547.498l-.788.44-.877.544-.989.786-1.456.937-1.576.835-1.383.59-2.863.897-2.428.583-1.392.18-.957-.086-1.045-.212-2.373-.772-4.463-1.747-1.608-.622-2.284-1.11-3.072-1.448-2.22-.929-1.053-.448-1.078-.575-.973-.583-.62-.645-.594-.535-.676-.362-.772-.173-.82-.063-1.633.102-2.043.126-1.045.008-1.037-.079-.716-.016-.684.126-.547.26-1.085.771-1.842 1.346-.981.536-.925.204-1.094.031-1.03-.125-1.23-.55-.602-.277-.813-.425-1.206-.779-.768-.425-.487-.2-.587-.083-.458.039-.47.134-.544.33-1.278.898-.362.247-.354.201-.535.186-2.15.432-2.06.563-.595.173-.549.146-.52.053-1.014-.018-.478.02-.33-.061-.257-.138-.262-.207-.229-.235-.828-.78-.475-.272-.418-.149-.59-.114-1.207.016-1.303.047-.343.028-.324.074-.483.158-.24.078-.234.049-.201.002-.2-.033-.492-.136-.217-.055-.294-.055-.398-.016-.917.11-.703.107-.631.027-.556-.012-1.206-.114-.925-.023-.8.079-1.001.133-.668.138-1.017.26-.923.327-.309.157-.324.18-1.017.552-.33.134-.268.084-.28.054-.304.007-1.983-.015-.355.03-.336.09-.756.23-.336.065-.356-.014-.316-.098-.285-.166-.26-.165-.26-.189-.773-.539-.302-.153-.28-.083-.347-.079-.438-.051-.579-.004-1.206.047-.89.075-1.02.15-.86.102-1.577.09M345.79 500.701l.076.18.318.657.225.394.241.326.708.705.507.437.178.185.133.175.561.891.495.709.615.65 1.837 1.876.366.374.245.264.379.626.3.645.202.342.39.457.302.31.55.438.286.17 1.424.818.908.547.535.393.462.35 2.767 2.89 1.198 1.062 1.468 1.322.265.24.334.359.39.578.346.44.53.599.933.679.494.377.108.114.12.173.073.139.042.108.165.696.21.583.087.496.04.55-.112.607-.209 1.606.008.622.21 2.44.067.314.079.22.098.225.155.225.792.743.25.223.19.19.49.754.9 1.24.225.326.287.514.362.578.14.19.194.255.655.771.58.748.26.366.299.492.16.327.201.472.17.547.092.347.144.534.121.433.221.646.29.777.145.357.472.887.072.165.028.148.057.702.042.13.115.171.162.209.378.303 1.255.83M482.564 323.891l2.131-.142 1.778.048 1.632.275 1.617.457 1.624.448.812.197.643.087.78-.047 1.714-.268.844-.079.917.103 1.045.251 1.27.528.749.52.426.456.523.299.772.307 1.021.315 1.062.33 1.005.284.949.071 1.48-.063 1.81-.26 2.605-.44 2.01-.386 1.77-.276 1.48-.102 1.503-.22 1.158-.339 1.351-.646 1.207-.598.554-.441.217-.449.306-1.133.442-1.48.257-.685.435-.567.74-.794.949-.89 1.094-.827 1.134-.803.916-.732 1.013-.897.652-.803.611-.575.62-.393.594-.198.5-.078.57.047 1.359.22 1.046.11.562-.054.628-.158.9-.464.74-.339.596-.188.418-.056.346.134.257.386.957 2.361M420.593 231.38l3.674-.8 5.05-1.007 8.027-1.794 8.524-1.977 3.057-.74 1.399-.63 1.182-.78 1.472-.968 1.182-.991.86-.874 1.086-1.26 1.665-1.732 2.243-2.157.877-.834.547-.33.555-.23.812-.188.667-.22.748-.323.676-.323 1.865-.606 1.721-.646.966-.41.731-.275 1.263-.26 1.238-.267.523-.236.258-.41.2-.858.387-3.33M637.27 363.434l-.71-.522-1.785-.983-2.38-1.024-2.397-.748-2.26-.472-3.297-.425-1.568-.134-1.584-.212-1.32-.284-1.72-.496-1.793-.716-3.974-1.575-2.959-1.235-1.318-.544-2.003-.566-2.373-.646-1.994-.543-1.061-.197h-.748l-.684.244-.796.528-1.102.936-1.77 1.433-1.978 1.543-2.364 1.787-3.7 2.708-2.42 1.44-2.533 1.614-1.648 1.401-1.456 1.362-1.303 1.386-1.383 1.566-1.73 2.401-1.56 1.574-1.141.945-1.118.496-1.295.44M469.592 494.863l.82-1.29.515-.913.33-.67.177-.606.056-.63-.08-1.007-.073-.92.04-.882.218-1.032.265-.897.13-.913.007-.882-.089-.944-.08-.724.129-.598.37-.583.434-.449 1.134-1.22.62-.755.474-.709.394-.763.33-.843.434-.905.763-1.094 1.19-1.456.725-.795.603-.567.49-.37.322-.37.29-.48.32-.637.395-.661.805-.938.707-.653.716-.456.86-.41.901-.282.442-.213.257-.268.266-.583.61-1.73M588.216 261.031l.105-.515-.024-.43-.09-.346-.184-.322-.254-.256-.792-.567-.8-.543-1.624-1.224-1.327-.977-.587-.535-.306-.464-.233-.583-.136-.535-.298-1.716-.394-2.189-.25-1.512-.112-1.023-.145-.512-.169-.346-.418-.74-.322-.748-.2-.834-.234-1.205-.37-1.535-.442-1.346-.322-1.095-.338-.881-.482-1.22-.45-1.055-.137-.544-.032-.543.104-.448.426-.551.563-.67.322-.425.33-.582.201-.583.233-.913.193-1.015.105-1.024-.017-.646-.265-.574-.354-.418-.796-.48-1.03-.543-1.117-.575-1.343-.472-1.713-.543-2.316-.339M330.937 458.114l-.319 1.234-.014.354M335.612 473.875l-.14-.457-.153-.61-.225-.763-.278-.992-.37-1.09-.7-1.87-.253-.944-.18-.815-.133-.492-.262-.858-.755-1.826-.913-1.909-.46-1.03-.113-.233-.073-.284M329.935 472.974l.24-5.755.194-4.494.085-2.015.044-.478.106-.53M336.927 478.727l.057-.382-.04-.338-.073-.358-.145-.394-.623-1.92-.262-.752-.229-.708M329.935 472.974l2.24-.123 1.133-.07.342-.028.276.065.229.104.353.187 1.104.766M345.404 499.772l-.487-1.264-.531-1.031-.45-.906-.362-.873-.2-.689-.472-1.204-.257-.598-.523-.846-1.395-1.898-.943-1.218-.537-.628-.82-.967-.824-1.004-.294-.433-.277-.52-.262-.68-.193-.61-.12-.567-.024-.575-.012-.744-.02-.834.008-.775.04-.476.064-.335.153-.567.261-.803M329.985 491.229l.213-.185.443-.626.404-.72.198-.42.162-.49.247-.836.245-.75.197-.532.265-.55.45-.743.16-.311.203-.52.84-2.155.698-1.93.17-.348.13-.2.18-.223.247-.242.246-.177.311-.166.445-.2.488-.178M321.921 396.426l.575-.043.474-.106.368-.17.318-.184.694-.43M280.909 454.263l.46-.594.99-1.385.542-.682.462-.523.56-.524 1.479-1.428 2.412-2.728.294-.43.175-.307.179-.349.227-.53.24-.587.756-1.882.321-.728.177-.33.266-.383 2.766-3.093 1.624-1.771 3.483-3.55.398-.374.535-.421 1.37-.858.467-.326.402-.367.358-.425.563-.822.229-.453.282-.594.462-1.145 1.524-4.141 1.154-3.129.298-.886.297-.987.438-1.535.624-1.823.454-1.182.236-.41.148-.212.255-.27.897-.768 2.576-1.96.639-.462.468-.29 1.2-.638.352-.201.652-.408.796-.627 1.391-1.01.74-.56.426-.4.27-.362.27-.473.276-.598.998-4.038.185-.439.17-.313.208-.327.275-.275.475-.408 1.084-.73.214-.214.236-.236.736-.868M321.921 396.426l-1.388-.099M321.921 396.426l-1.636-.9M373.518 360.622l.23-.579.052-.44-.04-.56-.093-.594-.523-3.086M280.909 454.263l-.581.74-.398.413-.443.378-.655.5-2.514 1.653-1.74 1.106-.793.523-.728.492-1.47 1.047-.453.382-.27.248-.247.29-.756 1.02-1.01 1.244-.94 1.094-.459.63-.446.732-.671 1.362-.322.55-.252.353-.283.29-.145.11-.342.176-1.921.571-1.332.358-1.081.233-.973.157-1.826.166-.547.121-.623.19-1.865.888-.99.351-.655.177-.583.059-.547-.02-.64-.117-1.025-.292-.704-.134-.57-.021-.435.057-.502.161-.648.396-.51.389-.376.345-.561.645-.402.661-.346.575-1.03 2.346-.213.476-.37.728-1.194 1.967-.487.8-.414.57-.345.382-3.233 2.938-.477.52-.26.383-.248.57-.27.811-.253.776-.465 1.594-.13.356-.165.285-.64.827M374.383 366.577l-.965-1.456M374.383 366.577l-1.837 1.239M373.518 360.622l-.188.338-.776 1.153-.162.284-.092.287-.056.37.056.307.16.319.958 1.44M385.079 373.402l7.69-4.873M187.358 255.977l2.81 2.059 1.355.988 1.078.661M197.547 261.378l-1.37-.382-1.147-.319-1.456-.55-.973-.442M148.911 169.51l.271.981.117.26.18.258.578.738.255.368.177.293.175.443.083.417.036.642.072 1.909.378 3.07.595 2.378.636 2.235 1.158 2.425 2.219 3.968 2.815 3.936 5.323 6.645 2.815 4.33 3.201 4.897 2.284 3.826.772 1.291.627 1.323 1.223 2.046 1.206 1.638.95 1.291.674.504.632.394 1.223.602.635.393 1.098.815 3.377 3.653 1.723 2.027.424.585.306.553.167.454.11.392.065.534.02 7.296-.21 8.58.057 8.077M254.888 247.776l-.868.18-.472.117-.458.15-3.407 1.177-.607.225-.394.189-.538.42-.431.398-.326.22-.582.347-.636.35-.579.272-.704.224-2.686.65-.55.09-.455.075-.8-.004-1.11.028-2.316.18-.691.016-.417.03-.42-.026-.342-.126-.342-.185-.299-.127-.301-.066-.296-.011-.386-.004-2.59.169-3.876.193-1.081.106-1.69.161-.675.028-.865-.079-2.513-.377-2.228-.28-.458-.016-.579.041-.549.093-.612.122-2.413.524-.933.169-1.4.151-.364.048-.285.094-.34.153-.366.204-1.017.7-.459.275-.502.34-.64.5-1.133 1.054-2.867 2.787-.91.744-.397.204-.58.162-3.606.543M295.032 200.964l1.665 1.86.251.372.272.433.314.752.345 1.015 1.142 2.858 1.106 3.582.55 1.437.507 1.146.897 2.255.241.795.19.61.108.508.072.992.08.54.126.511.237.772 1.363 3.51 3.116 7.275" clip-path="url(#pc4edd0adbb)" style="fill:none;stroke:#000"/><path d="m361.492 215.954-.764.507-1.018.795-.57.457-.78.48-.837.434-1.062.425-1.009.327-.808.212-.784.158-1.13.149-2.36.303-.994.145-.728.146-.888.2-.845.206-4.017 1.22-3.216.929-1.482.429-1.67.51-2.514.809-1.003.346-1.273.482-.66.242-.86.256-3.14.772-2.201.545-2.353.608-2.137.543-1.55.323-.608.1-.496.067-2.172.195-.82.023-.474.01-.314.058-.394.132-.474.216-1.814.848-3.66 1.626M254.888 247.776l2.053-.297 3.31-.445 2.722-.323.734-.104 2.02-.403 4.122-.835 1.508-.212 1.821-.242.5-.052.38-.016 2.669-.007.418-.03.402-.08.549-.168 1.12-.446.444-.142.537-.122 1.112-.203.585-.16.826-.28 1.206-.412.537-.217 2.538-1.05.792-.274 1.522-.484.506-.152.547-.214.549-.266.746-.443.957-.646 2.477-1.857.846-.634.433-.274.486-.236.627-.267 2.66-1 6.207-2.207 1.258-.39M148.911 169.51l2.346 2.707 1.886 1.984 1.45 1.336 1.845 1.456 1.522 1.055 1.628.909 9.248 4.868 2.386 1.407 2.073 1.317 2.11 1.663 2.238 1.906 1.922 1.828 26.458 23.11 2.807 2.433 1.494 1.177 1.298.978 1.985 1.25 1.753.964 1.778.906 3.237 1.324 8.31 3.467 3.815 1.489 3.999 1.6 2.717 1.37 2.352 1.448 2.08 1.609 1.934 1.694 2.148 2.065 2.06 2.058 1.74 1.984 1.65 2.117 1.31 2.092.398.695M347.83 319.176l-.126-1.173-.028-.567.007-1.027.065-.862.112-1.772.064-.464.077-.386.125-.449.884-2.227 2.445-6.29.418-1.252 1.014-3.724.25-1.156.096-1.04-.069-1.972-.052-.858-.044-.488-.125-.622-.157-.539-.18-.488-.25-.512-.796-1.566-.063-.268-.036-.244.004-.238.036-.273.063-.272.128-.356 2.224-6.26 1.496-4.63 2.513-7.746 1.234-4.062.366-1.374.185-.7.1-.552.065-.606.117-2.346-.02-1.484.056-2.007.314-8.133.29-8.927.2-4.338.66-18.972M320.533 396.327l-.248-.802M195.384 349.498l2.622.918.842.332.49.235.395.27.22.141.427.24.29.13.287.175.39.303.436.408 2.025 2.095 1.299 1.142.538.342.825.496.812.435.847.413.376.142.426.126.275.087.426.2 1.37.77.59.362.443.35.575.508 1.592 1.464.826.654.413.322.299.29.392.434.856.96.552.509 1.194 1 .446.338.39.193.49.193.764.28.877.302 2.964.85 2.167.555.45.07.591.052.99.044 2.774.015.692.008.68.098.719.19.724.275 1.118.46 2.139.914.34.096.271.038.266.007.253-.06.35-.136 4.193-2.252.596-.252.458-.138.683-.114 1.243-.15 3.466-.33 2.397-.142.808-.012.503.06.57.11.471.193.494.287 1.251.787 1.496.906.94.649 1.529 1.043 1.596 1.205.712.582 1.037.905.68.661.486.44.563.418.805.54 1.318.81 2.176 1.252.94.555 1.099.74.932.704 1.38 1.17 2.316 2.019.474.413.406.285.462.277 2.04 1.071.984.445 1.022.41 2.356.971 2.027.791 1.258.425 2.16.658 2.77.87.503.145.619.11.672.091 4.604.386 1.913.192 3.362.351 3.953.515 4.986.65 1.636.2.704.146.297.103.475.248 4.275 2.593M317.968 473.485l-.728.433-.293.266-.533.517-.377.372-.164.175-.366.339-.432.348-.36.254-.885.56-.301.223-.317.286-.705.886M323.3 472.58l-.368.73-.449.888-.397.92-.857 2.098-.345.651-.208.36-.283.362-.326.378-1.536 1.41-.331.342-.522.586-.275.264-.24.122-.238.055-.272.026-.234-.029-.135-.068-.128-.109-.498-.617-.21-.222-.538-.49-1.316-1.198-.455-.382-.632-.513M306.404 472.423l3.385 3.187 1.344 1.256 1.374 1.278M317.968 473.485l-3.001.355M323.3 472.58l-.804.322-.323.102-.803.139-1.431.161-1.97.181M329.388 493.246l.579.937.587 1.141.213.484.128.445.097.748.121.602.173.484.17.39.083.179.068.212.079.427.086.163.1.16.218.228 1.371 1.196.7.598.18.112.195.095.389.154.25.088.25.136.376.262.446.419.39.376.356.407.485.746.089.203.036.128.028.21-.008.348-.086.673M307.192 537.36l1.544-.888.175-.124.144-.114.202-.161.185-.126.352-.152.317-.104.328-.114 1.618-.531.837-.323.251-.065.262-.055.817-.116.409-.104.225-.087.316-.148.239-.145.344-.26.283-.248.33-.307.543-.545.205-.205.286-.248.343-.277 1.765-1.443.434-.283.457-.27 1.017-.408.424-.119.409-.088.365-.028 1.16-.078.821-.158.148-.068.156-.107.18-.165.183-.25.139-.24.193-.573.076-.195.077-.133.109-.13.14-.105 1.42-.915.416-.195.6-.247 1.255-.435.394-.11.336-.085 1.76-.3.245-.082.175-.098.203-.158.163-.167.177-.29.23-.436.057-.18.014-.198-.018-.126-.05-.21-.479-1.112-.06-.307-.012-.287.052-.48.33-1.374.145-.63.092-.417.048-.46.049-1.709.1-.487.09-.333.12-.34.148-.445.096-.354.053-.772.044-.338.04-.319.125-.299.181-.28.836-.779.129-.136.11-.157.083-.197.05-.281.014-.266.04-.616.077-.374.109-.338.22-.425.318-.7 1.012-1.83" clip-path="url(#pc4edd0adbb)" style="fill:none;stroke:#000"/><path d="m344.973 500.716-.23.263-.224.249-.33.295-.297.26-.282.212-.345.205-.423.184-.515.123-1.395.224-.281.09-.338.146-.29.193-.317.275-1.098 1.177-.342.405-.73.98M329.388 493.246l-1.48-1.964M329.985 491.229l-.27.671-.118.319-.077.287-.132.74M329.985 491.229l-.4.147-.246.034-.343.004-.503-.057-.585-.075M318.274 490.306l1.53.19.229.007.221-.018.193-.036.257-.094 2.957-1.479.201-.017.104.02.15.062.147.114 2.324 2.282.242.228.132.062.125-.005.12-.069.163-.11.23-.12.309-.04M314.967 473.84l-.61.434-.227.124-.241.044-.25-.018-.373-.1-.326-.126-.746-.402" clip-path="url(#pc4edd0adbb)" style="fill:none;stroke:#000"/><path d="m314.967 473.84-.573.07-.586.016-.609-.043-1.005-.087M306.404 472.423l1.07.534.546.21.724.216.6.098.61.06.736-.028.35.008.277.025.336.077.541.173M280.909 454.263l2.245 2.062 1.247 1.134 3.177 2.723 2.914 2.457.312.217.179.1.332.186.293.185.26.224.8.964.185.179.273.211.296.152.28.128.39.184.335.187.362.25.684.667.305.272.217.15.27.12.31.09.26.086.32.12.752.377 2.143 1.039.825.373.764.438.61.4.703.566.474.326 1.1.613.668.326 1.21.654M329.935 472.974l-.479-.068-.386-.074-.474-.193-1.54-.697-.603-.277-.332-.114-.475-.057-.45.025-.252.067-.255.097-.275.151-1.114.746M344.973 500.716l.431-.944M344.973 500.716l.818-.015M345.404 499.772l.387.93M375.103 391.542l-1.259-2.338M385.288 392.29l-.044 2.543M385.244 394.833l-4.54.826M362.89 363.48l-4.431 2.663M358.459 366.143l-9.364 4.764M366.581 381.304l.331-.247.61-.47.364-.28.75-.58.75-.579M358.36 388.763l-.178-.409-.96-2.043-.128-.273-.095-.135-.076-.074M358.348 388.933l.012-.08v-.09M357.744 389.496l.312-.207.165-.153.127-.203" clip-path="url(#pc4edd0adbb)" style="fill:none;stroke:#000"/><path d="m358.634 391.005.007-.557-.025-.346-.108-.634-.16-.535M357.744 389.496l.89 1.509M356.992 389.533l.173.026.237.015.342-.078M355.357 386.32l.034.147.045.14 1.046 2.603M355.357 386.32l.015-.089M356.992 389.533l.33.612.313.342.272.263.336.249.569.325M356.482 389.21l.301.235.209.088M356.923 385.83l-.084-.043-.068-.01M372.546 367.816l-2.948-4.597M366.581 381.304l-1.42-1.89M356.77 385.777l-.276-.485-.153-.223-.23-.251-.331-.317-.474-.39M355.207 383.897l.022.761.018.388.125 1.185M358.634 391.005l.178.32M355.306 384.11l-.1-.213M347.83 319.176l2.885-.22.225.03.141.068.08.102.109.772.555 5.262M426.379 321.463l-1.017.384-.2.16-.155.172-.183.262-.685 1.643-.636 1.11-.39.641-.353.552-1.778 2.471-.15.254-.1.234-.057.239-.07.521-.427 6.258-.334 3.16-.036.139-.054.128-.061.098-.066.083-.085.05-.137.025-.291-.023-2.173-.27-.985-.091-1.307-.004-5.115.157-10.539.056-.325-.012-.253-.024-.187-.071M394.854 337.683l1.315.158.303.049.221.084.174.114.18.178.877 1.241.14.148.166.11M327.795 454.475l.696 1.185.199.272.215.25.857.856.555.535.62.54" clip-path="url(#pc4edd0adbb)" style="fill:none;stroke:#000"/></g><g id="PatchCollection_1"><path d="m177.607 100.786-.893.338-.316.197-.058.268.087.198.201.282.201.028.245-.057.216-.197.49-.127.446-.296.23-.324-.043-.268-.158-.141h-.216zM97.838 124.175l-.323.249-.15.304.046.395.208.384.346.158.38-.022.277-.226.161-.373.023-.451-.127-.328-.241-.169-.266-.034zM102.034 124.428l-.175.22-.02.273.035.274.168.2.272.034.231-.076.127-.123.042-.254-.057-.24-.16-.185-.21-.13zM122.971 126.31l.196.463-.01.248-.105.17-.253.09-.277-.011-.254-.17-.023-.666.138-.124.3-.124.173.034zM128.219 126.494l-.161.192-.035.236.08.192.139.136.22-.023.184-.192.023-.26-.058-.191-.138-.102zM103.551 109.258l-.323.079-.334.203-.392.373-.047.18.162.26.415.294.173.022.254-.158.288-.587.127-.294-.023-.214-.115-.113zM105.8 113.615l-.358.068-.196.147-.104.192.047.17.31.293h.128l.334-.203.07-.147-.047-.271zM106.684 125.002l-.209.192-.08.238.035.248.184.248.277.08.242-.091.138-.158v-.249l-.057-.304-.208-.18zM200.418 108.765l-.311.135-.265.283-.081.395.069.17.496.18.3-.034.461-.339.104-.169v-.294l-.092-.135-.416-.18zM210.209 115.392l-.22.158-.138.226-.034.226.138.18.3.034.242-.158.161-.18.047-.181-.035-.192-.173-.136zM174.557 112.997l.258.372.364.007.21-.096.084-.144-.035-.234-.119-.13-.147-.068-.175.028-.26.109zM372.645 341.951l.76-1.414.956-.86 1.07-.315 4.348-.164 3.033-.19 2.968.543 3.921 1.503 2.104.708 1.29.34.206.683-.877 4.256-1.974.316-2.813.214-2.528-.644-3.2-.67-1.394-.492-2.039-.657-1.225-.24-1.11-.568-2.09-1.364-.645-.05-.568-.303z" clip-path="url(#pc4edd0adbb)" style="fill:#00f;fill-opacity:.8"/></g><path id="PatchCollection_2" d="m162.639 73.95-1.68-.268-2.11.267-2.539-.114-1.328-.497-1.136-.077-.521.51-.38 3.112-1.209 1.3-.735 7.36 8.347 4.898 3.676.21-.569-3.994 1.28-.487-1.635-7.058 1.256-.464v-1.51z" clip-path="url(#pc4edd0adbb)" style="fill:#006400;fill-opacity:.8"/><g id="PatchCollection_3"><path d="m393.771 363.216 3.019-1.492.14 1.37-.887.716zM381.105 346.698l-.333.528 4.267 3.693 1.35-3.262z" clip-path="url(#pc4edd0adbb)" style="fill:green;fill-opacity:.8"/></g><g id="PatchCollection_4"><path d="m159.854 56.597 3.438 17.018-.653.334.717 3.19v1.509l-1.256.464 1.635 7.058-1.28.487.57 3.993 3.508.48 1.68 7.61 3.555-.612 2.734.115 4.023-1.224 1.133.038 6.25 3.021-.04.918 3.126 1.644 1.68.46 3.241-1.875 5.504-3.487 2.461 1.339 3.437.727 1.836-.268 3.242-1.912.118-.956h1.562l1.914 1.683 1.172.153.547-.574.625.268.351-.344 2.735.229.351-.688.82.382.977-.23.664.345.899-.191-.352-2.104.04-.956-2.852-15.565-.743-1.261-2.969-13.576-2.968-.115-.86-.956-.078-2.524 1.563-1.224.547-1.415-1.758-2.027.977-1.07-1.758-5.507zM89.498 102.001l-.42 9.308-1.622 12.592-1.564 7.352-5.601-2.39-5.95-2.678.22 7.69 39.091-4.421-11.058-11.941-5.688-6.562-6.127-7.425z" clip-path="url(#pc4edd0adbb)" style="fill:#90ee90;fill-opacity:.8"/><path d="m166.533 91.13 1.68 7.61 3.555-.612 2.734.115 4.023-1.224 1.133.038 2.862 1.383-.157 1.675.174 1.496.044 5.426 1.745 6.664-8.03-2.52 1.135 8.117.488 2.887-64.267 7.269-16.746-18.503-6.127-7.425-4.608-5.485-1.91-1.979-1.173-1.158-2.898-2.458L65.18 81.381l-11.068-7.426 1.347-2.953.61-.683 2.78-.454 4.788-2.637 1.641-.127.432-.154.23-.24.202-.395 1.382-7.752.086-.846.115-2.03.16-.704.2-.465.864-1.058.403-.605.26-.648.647-4.074.188-.649.374-1.014.144-.776.202-2.96-.087-.578-.26-.62-.733-1.155-.374-.395-4.838-4.454-.648-.761-7.472-14.19-1.88-4.272-3.652-8.17-2.086-5.597.81-.186.432-.211 1.622-1.027 3.767-3.092L57.096 1.3l3.2 1.792.518 1.832.777 3.16 12.875-.15-.569 4.829 1.082.113-.722.136-.288.339-.604 3.297 2.16 1.748.719.761L79.9 23.95l.546.423 3.83 1.635 8.032 4.82 6.478 3.072 8.954 1.635 2.13.705 8.455 7.914.072 3.308 13.082 6.474 12.436 1.76 1.94-1.97 13.998 2.872 3.438 17.018-.653.334-1.68-.267-2.11.267-2.539-.114-1.328-.497-1.136-.077-.521.51-.38 3.112-1.209 1.3-.735 7.36 8.347 4.898 3.676.21z" clip-path="url(#pc4edd0adbb)" style="fill:#90ee90;fill-opacity:.8"/></g><g id="PatchCollection_5"><path d="m100.193 126.23.021.412h.644l-.02-.418zM100.34 126.717l.014.274.504.007-.014-.28zM105.402 128.554l-.105.466.672.137.105-.452z" clip-path="url(#pc4edd0adbb)" style="fill:#a9a9a9;fill-opacity:.8"/></g></g></g><defs><clipPath id="pc4edd0adbb"><path d="M90 106.474h558v514.252H90z"/></clipPath></defs></svg>