<svg xmlns="http://www.w3.org/2000/svg" width="960" height="960" viewBox="0 0 720 720"><defs><style>*{stroke-linejoin:round;stroke-linecap:butt}</style></defs><g id="figure_1"><path id="patch_1" d="M0 720h720V0H0z" style="fill:#fff"/><g id="axes_1"><path id="patch_2" d="M90 618.414h558V108.786H90z" style="fill:#fff"/><g id="LineCollection_1"><path d="m384.325 141.249.245.798.154.54.061.233.053.207.052.267.052.337.061.356.048.208.196.601M385.937 143.786l-.661-1.086-.95-1.451" clip-path="url(#p84409948a7)" style="fill:none;stroke:#000"/><path d="m386.843 143.925-.476-.603-.36-.395-.521-.56-.46-.484-.339-.318-.362-.316M346.69 570.407l11.458 30.442M345.137 556.906l-.245 2.076-.03 4.309.55 2.972 1.279 4.144M355.128 578.26l-.825-2.106-.268-.777-.03-.334.112-.266.386-.3.335-.3.14-.293-.036-.443-.714-2.005-.453-.96-.327-.273-.41-.177-.742-.164-.99-.456-.319-.069-.424-.014-.542.102-3.33.982M441.256 333.837l-1.498.15-.966.28-1.71.81M441.256 333.837l-.1.691-.034.267M441.802 333.168l-.316.297-.23.372" clip-path="url(#p84409948a7)" style="fill:none;stroke:#000"/><path d="m444.928 334.73-1.096-.396-1.279-.36-1.297-.137M500.122 342.926l14.9.273 5.464.095M579.958 391.069l-10.654-9.878-20.422-18.48-14.506-13.375-1.569-1.453-1.691-1.445-1.784-1.207-1.13-.57-1.257-.466-2.757-.648-3.702-.253" clip-path="url(#p84409948a7)" style="fill:none;stroke:#000"/><path d="m542.244 285.122-.052 1.424.03.62.409 3.199.155 1.064.588 2.045.283.798.467 1.136.105.453.059.689-.022 2.243.03 2.012.015 3.54.059 2.543.022 2.012.26 2.304.23 1.255.462 1.875.706 2.203.795 2.127.907 2.032.617.873 1.279 1.627.349.521.52.86 1.688 2.093 1.048 1.54 1.122 1.822-.773 1.057-.312.313-.371.17-1.777.37-2.572.429-1.472.361-.855.416-.75.505-1.97 1.329-3.36 2.285-3.464 2.495-3.256 2.421-2.472 1.732-.398.235-.137.051h-.188l-.17-.044-1.043-.638-1.197-.606-1.041-.28-1.464-.04-1.54.101-3.307.6M495.532 343.223l1.451.15.35.15.318.228.988 1.25" clip-path="url(#p84409948a7)" style="fill:none;stroke:#000"/><path d="m450.35 337.928.58.334 4.498 3.198 2.899 1.74 2.23 1.117 6.437 2.946 1.837.927 1.501.682 1.576.382 1.48-.116 2.504-.6 11.738-3.273 4.783-1.214 3.119-.828" clip-path="url(#p84409948a7)" style="fill:none;stroke:#000"/><path d="m498.085 342.92-.784.078-1.77.225M585.95 396.56l-2.311-2.092M585.95 396.56l3.102 2.752M585.95 396.56l-.669-.88-.793-.971-.612-.779M582.977 394.71l1.072.602 1.9 1.249M410.805 356.523l-3.152-2.888M410.805 356.523l.468.463M410.805 356.523l-.78.723-1.51 1.39-.661.839M420.678 347.107l-1.072 1.274-1.494 1.487-2.542 2.543-2.238 1.954-2.527 2.158M411.273 356.986l1.959 1.691M411.273 356.986l2.699-2.394 2.23-1.956 1.91-1.903 1.743-1.687 1.46-1.247" clip-path="url(#p84409948a7)" style="fill:none;stroke:#000"/><path d="m407.854 359.475 1.434-1.077 1.985-1.412M403.824 364.016l2.112-2.502 1.918-2.039M371.11 390.984l-.372-.352-.729-.507-1.345-.867-1.36-.777M373.013 393.52l-.662-.927-.483-.669-.758-.94M367.274 393.36l1.204-.843 2.632-1.533M371.11 390.984l4.653-1.787M360.69 400.672l-.753.594M365.185 395.177l-1.174 1.105-1.65 1.95-1.67 2.44M360.69 400.672l-.373.811M351.3 429.26l-.253 2.922M336.076 422.047l3.597 1.664 9.04 4.827 2.587.723M351.3 429.26l1.62-7.785M141.623 451.968l-4.16-.914-1.204-.433-1.26-.504-3.94-2.052-3.106-1.562-3.97-2.127-2.803-1.609-2.408-1.281-2.163-1.378-1.316-1.234-1.509-2.107-1.01-1.39-.93-1.098-1.234-.88-2.9-1.275-3.017-1.234-2.178-.88-1.784-.51M343.175 443.694l2.735-1.452M343.175 443.694l-8.398-6.888M331.215 455.646l1.226-.58 1.724-1.322 1.16-1.241 1.01-1.67 1.614-2.891.936-1.343 1.495-1.405 2.795-1.5M289.32 453.608l-5.71-.055-1.249-.184M245.826 460.043l1.754-.975 1.82-.995 12.192-7.172 1.056-.525 1.04-.286 1.279-.082 3.136.49 4.758 1.14 9.5 1.73" clip-path="url(#p84409948a7)" style="fill:none;stroke:#000"/><path d="m281.283 445.46.209 1.548.319 2.216.409 3.068.141 1.077M289.32 453.608l2.905.036M279.507 471.606l1.546-1.206 1.516-1.623 1.829-3.19 2.616-6.068 2.305-5.911M306.074 453.84l4.906-.045M306.074 453.84l-13.85-.196M289.599 411.636l2.336 5.23 1.16 3.19.565 1.555.535 1.009.758.852 6.215 6.307 2.23 2.427 1.427 2.182 1.16 2.536.728 2.345.773 2.741.327 1.91.015 1.854-.297 2.127-1.457 5.938M352.92 421.475l.32 10.93M352.285 415.417l.59 3.508.045 2.55M610.312 122.87l-1.401.024-1.23.079-1.94.32-1.427.447-2.149.934-1.265.379-1.087.157-4.334.426-2.74.651-2.486.945M573.387 135.71l.472.304.52.225.51-.027.59-.16 1.62-1.068 1.9-1.357 4.151-3.001 1.893-1.156 5.21-2.238M582.427 393.4l1.212 1.068M582.427 393.4l-2.47-2.331M582.427 393.4l-.203.32-.018.369M582.897 393.175l-.255.078-.215.147M585.05 375.56l2.263-.914M585.05 375.56l.128 2.12M585.447 361.088l.019 1.602-.186 2.469-.286 3.173-.09 2.966.146 4.262M589.97 360.655l-.397.179-.435.08-1.02.078-2.67.096M583.024 353.789l.692 1.758.942 2.449.232.89.264 1.015.293 1.187M588.217 187.369l.178-.413.174-.156.206-.089.235-.008 2.295.059.413-.078.291-.198.212-.352.065-.358.04-1.352-.032-.441-.142-.3-.193-.116-.212-.07-3.78-.313-.992-.14-.78-.429-.636-.603-.491-.948-.416-1.562-.074-1.29.152-.927.286-.747 2.394-4.215 1.241-2.493 1.505-2.997.81-1.601.406-.954 1.092-3.13.055-.287-.058-.203-.184-.156-3.548-2.089-3.274-1.958-.333-.288-.307-.387-1.219-2.067-1.791-3.267-2.026-3.325-2.003-3.618-2.85-4.945-1.54-2.848M575.669 335.742l-.744-1.602-1.88-3.866-1.1-2.87-.74-2.343M562.582 297.515l.45 3.958.338 3.846.483 3.481.32 1.75.498 1.677.676 1.46 1.033 1.827 2.037 3.403 1.517 2.997 1.27 3.147" clip-path="url(#p84409948a7)" style="fill:none;stroke:#000"/><path d="m582.786 318.934-1.475 1.176-.176.099-.165.035-.198-.017-.272-.073-.112-.014-.118.031-2.427 1.357-6.638 3.533M560.036 285.376l-.152 2.261 1.472 5.832 1.226 4.046" clip-path="url(#p84409948a7)" style="fill:none;stroke:#000"/><path d="m573.048 288.414-1.624 1.31-2.423 1.735-1.673 1.221-.966.573-1.695.774-.178.211-.078.229-.008.245.357 1.238.011.347-.048.222-.186.201-1.955.795M383.553 379.76l1.792-2.495M379.525 384.087l1.52-1.579 1.338-1.418.62-.71.55-.62M387.724 382.195l-2.119-1.269-2.052-1.165" clip-path="url(#p84409948a7)" style="fill:none;stroke:#000"/><path d="m379.649 377.429 1.905 1.124 2 1.208M412.737 348.954l3.007-2.7M412.737 348.954l-5.084 4.681M412.737 348.954l-3.308-2.878M418.03 344.16l2.502-2.318M418.03 344.16l2.456 2.105M415.744 346.254l1.286-1.231 1-.863M398.699 360.194l.313.219M398.699 360.194l-.476.26-.33.3-.584.672-1.052 1.23-.847 1.09-1.438 1.754M395.395 358.846l.283-.284.26-.164.234.027.747.454 1.78 1.315M398.699 360.194l1.116-.212M418.436 363.223l2.136-2.234M418.436 363.223l-2.777-2.377M418.436 363.223l2.724 2.43M414.202 359.478l2.29-2.15M414.202 359.478l-.97-.8M414.202 359.478l1.457 1.368M421.175 352.827l-2.208 2.127M421.175 352.827l2.244-2.23M424.746 354.173l-.561.382-.353.096-.331-.014-.498-.249-.721-.593-1.107-.968M407.653 353.635l-.877.757-3.109 2.94-.675.601-.694.6-.578.474-.578.402-.689.315-.638.258M399.815 359.982l-.803.43M438.07 325.729l.143.129M428.221 334.73l2.543-2.38 1.754-1.623 2.118-1.91 3.435-3.088" clip-path="url(#p84409948a7)" style="fill:none;stroke:#000"/><path d="m431.78 320.091.857.776 2.014 1.814 3.42 3.048M379.525 384.087l2.222 2.54M379.525 384.087l-2.565-2.912M394.373 365.82l3.13 1.92M394.373 365.82l-.401-.32M394.373 365.82l2.044-2.612 1.937-2.366.658-.43M391.684 369.048l1.645-2.042 1.044-1.186M421.423 390.718l1.981.865.96.457M416.818 402.807l2.067 1.23.323.072.294-.038.215-.143 5.442-7.776 1.821-2.513.115-.31.026-.266-.097-.164-.278-.184-.94-.368-1.443-.307" clip-path="url(#p84409948a7)" style="fill:none;stroke:#000"/><path d="m419.573 398.678 2.828-3.897 1.962-2.74M408.076 382.541 404.709 380M413.11 385.604l-2.298-1.316-2.736-1.747M399.751 386.013l2.721 1.84.356.134.283.02.179-.106.211-.166 1.26-1.435 1.605-1.804 1.71-1.955M402.702 370.535l-3.085-1.493M402.702 370.535l3.687-4.5M406.289 372.199l-.963-.464-.936-.423-1.688-.777" clip-path="url(#p84409948a7)" style="fill:none;stroke:#000"/><path d="m399.004 375.237 2.925-3.693.773-1.009M406.39 366.035l6.842-7.358M405.363 365.019l.573.477.453.539M363.654 405.138l2.843-2.236M360.317 401.483l1.151 1.344 2.186 2.311M367.045 409.488l-.752-1.063-1.294-1.732-1.345-1.555M390.686 385.28l.353-.389M390.686 385.28l-.62-1.227M389.426 396.486l.067-.852.639-6.287.186-2.114.368-1.953" clip-path="url(#p84409948a7)" style="fill:none;stroke:#000"/><path d="m384.646 389.838 2.631-2.018 1.45-1.037 1.96-1.503M418.758 389l.58.388 2.085 1.33M416.927 397.108l2.003-2.845 1.293-1.84 1.2-1.705M416.491 357.327l4.081 3.662M418.967 354.954l-1.331 1.22-1.145 1.153M420.572 360.989l2.275-2.19M384.646 389.838l-2.899-3.211M384.646 389.838l.123 2.997M384.646 389.838l-2.185 1.456M367.118 371.36l-1.791 4.186M367.118 371.36l4.089 3.777M367.118 371.36l-8.905-5.428M368.91 366.907l-.313.669-.356.927-1.123 2.857M418.967 354.954l3.88 3.846M381.747 386.627l-.565.293-4.37 1.888-1.049.39M387.724 382.195l-.803.831-1.174.866-3.413 2.353-.587.382M416.06 387.383l-2.95-1.78M416.06 387.383l2.698 1.616M416.06 387.383l-1.779 2.536M355.656 369.99l.416-.757 1.702-2.755.439-.546M361.58 362.482l-2.557 2.462-.81.988M393.972 365.5l-2.13-1.457-.12-.245 1.85-2.778M407.653 353.635l-3.078-2.874M384.67 395.627l4.644 1.63M384.67 395.627l-2.506-.811M384.769 392.835l-.03.436-.022.433-.015.31-.04.512.009 1.101M375.169 396.595l1.806 2.08M375.169 396.595l7.292-5.301M373.013 393.52l1.516 2.148.64.927M375.169 396.595l-5.74 4.326M391.684 369.048l2.588 2.24M389.835 371.36l.639-.839 1.21-1.473M404.71 379.999l4.972-6.075M404.71 379.999l-2.915-2.448M399.751 386.013l2.773-3.375 2.185-2.639M424.746 354.173l.232.332.418.469.238.345.105.33-.015.209-.759.95-2.118 1.992M376.96 381.175l2.689-3.746M376.96 381.175l-4.787-5.096M372.682 384.434l2.345-1.817 1.933-1.442M412.37 375.56l-1.781 2.36M413.57 368.933l2.445 1.326.16.16.053.221-.011.253-.105.324-3.743 4.343M409.682 373.924l1.483.937 1.204.7M372.173 376.079l-.966-.942M374.596 373.41l-1.297 1.451-1.126 1.218M368.906 378.87l1.609-1.353 1.658-1.438M409.682 373.924l2.245-2.898 1.643-2.093M406.289 372.199l2.68-3.39.78-.964.234-.164.23-.071h.294l.26.078 2.803 1.245M406.289 372.199l1.639.797 1.754.928M393.63 381.8l1.69-2.105M393.63 381.8l-3.189-2.568M393.63 381.8l3.055 2.157M393.63 381.8l-2.591 3.091M396.733 389.562l-.918-.757M396.733 389.562l3.118 2.161M399.751 386.013l-1.62 1.902-1.398 1.647M395.58 390.86l.443-.53.71-.768M399.751 386.013l-3.066-2.056M393.953 387.179l2.732-3.222M393.953 387.179l-2.914-2.288M393.953 387.179l1.862 1.626M390.441 379.232l-.691.778M390.441 379.232l1.438-1.8M401.795 377.551l-.862 1.13-3.508 4.255-.74 1.021M367.304 388.481l2.256-1.762M367.304 388.481l-1.405-.73-4.75-2.31" clip-path="url(#p84409948a7)" style="fill:none;stroke:#000"/><path d="m390.066 384.053-1.03-.88-.483-.33-.83-.648M389.75 380.01l-.765.856-.423.438-.838.89M383.19 341.303l-2.307 2.949-.615.518-1.046.882-1.567.953M387.593 333.259l-2.813 5.016-1.59 3.028" clip-path="url(#p84409948a7)" style="fill:none;stroke:#000"/><path d="m378.878 348.006.728-.77 1.539-2.135 1.145-1.8.9-1.998M363.802 379.078l-3.166-1.87M363.802 379.078l1.525-3.532M362.39 382.39l.96-2.173.222-.542.23-.597M395.58 390.86l.12-1.05.045-.443.07-.562M362.39 382.39l-4.408-2.602-4.272-2.536" clip-path="url(#p84409948a7)" style="fill:none;stroke:#000"/><path d="m353.17 381.66-.116-.44.055-.437.235-1.036.156-.92.21-1.575M354.325 373.522l-.208.79-.134.935-.273 2.005M384.594 372.997l2.525 1.441M384.594 372.997l-2.118 2.631M381.158 365.156l.206 1.196.19.835.661 2.025.514 1.553.64 1.018 1.225 1.214M381.226 364.55l-.49.124M381.226 364.55l-2.493-8.501-.096-.342M383.938 358.12l.4 2.91.104.672.126.485-.158.367-3.184 1.997M381.226 364.55l-.068.606M381.36 374.96l1.116.668M381.36 374.96l-1.711 2.469M376.187 371.66l1.747 1.084 3.426 2.216M391.039 384.891l-.973-.838M372.89 362.196l5.542 4.589M372.89 362.196l-5.378-4.419M372.89 362.196l.23-.297M372.89 362.196l-1.967 2.095M373.12 361.9l-.204-3.823M378.246 355.813l-.803.983-.914 1.131-2.676 3.133-.732.84M372.682 384.434l1.617 2.445 1.464 2.318M374.496 370.477l1.69 1.183M374.496 370.477l1.995-2M368.91 366.907l3.33 2.067 2.256 1.503M369.452 356.168l-1.65 1.35M369.452 356.168l.245-.177M372.916 358.077l-1.784-.982-1.68-.927M360.03 389.146l1.119-3.705M360.03 389.146l-.94 3.085M360.03 389.146l1.595.876 1.761.982M353.7 385.48l3.286 1.91 3.044 1.756M368.91 366.907l-1.402-.842-1.32-.801-1.586-.968-3.022-1.814M367.512 357.777l-4.898 3.798-1.034.907M378.432 366.785l-1.941 1.692M380.736 364.674l-.394.328-.52.44-1.39 1.343M367.512 357.777l.29-.259M372.682 384.434l-1.669 1.17-1.453 1.115M362.967 382.198l.523.296.673.338 1.81 1.01.67.364.486.328.714.62 1.717 1.565M359.09 392.231l-.543 2.005-1.78 5.993M359.937 401.266l-.8-.368-2.37-.669M353.782 388.87l.156 5.216.038 2.523.044 2.382.028.323.076.197.19.135.264.089 1.122.255 1.067.24M385.345 377.265l-2.87-1.637M387.26 374.513l-1.209 1.75-.706 1.002M389.75 380.01l-2.105-1.371-1.449-.894-.851-.48M387.26 374.513l-.14-.075M387.26 374.513l.224.12M392.195 377.088l-.316.345M396.06 372.85l-2.698 2.755-1.167 1.483M387.484 374.633l2.41 1.248 2.301 1.207M354.325 373.522l6.31 3.685M355.656 369.99l-.216.538-1.115 2.994M375.577 352.663l1.892-.28M372.916 358.077l.394-.831.483-.914 1.784-3.669M372.641 353.154l.216-.1.193-.043 2.527-.348M378.246 355.813l.39-.106M378.246 355.813l1.264 4.255.49 1.82.736 2.786" clip-path="url(#p84409948a7)" style="fill:none;stroke:#000"/><path d="m377.469 352.384.049.535.163.842.565 2.052M365.327 375.546l1.672 1.023.506.321.416.416.985 1.564" clip-path="url(#p84409948a7)" style="fill:none;stroke:#000"/><path d="m362.967 382.198.45-.256.553-.416.49-.324.39-.16.707-.211.829-.154.747-.327.49-.368 1.283-1.112M372.682 384.434l-1.438-1.994-1.19-1.827-1.148-1.743M365.327 375.546l-2.91-1.545M406.037 395.969l-4.039-2.885-2.147-1.36M398.294 396.834l.09-.372.256-2.7.115-.477.22-.389.876-1.173M408.627 392.184l-2.052 2.7-.538 1.085M408.386 397.84l-1.722-1.04-.484-.435-.143-.396M362.416 374.001l-1.78 3.206M362.416 374.001l-6.76-4.012M408.623 397.983l2.874-4.096M408.623 397.983l-.237-.143M408.623 397.983l2.695 1.564M370.923 364.291l5.568 4.186M370.923 364.291l-2.013 2.616M362.39 382.39l.577-.192M361.149 385.44l.695-1.776.546-1.275M361.149 385.44l-1.286-.634-1.465-.702-2.475-1.241-2.754-1.203M353.17 381.66l-.86-.243" clip-path="url(#p84409948a7)" style="fill:none;stroke:#000"/><path d="m353.7 385.48-.01-2.379-.108-.688-.19-.355-.223-.398M377.726 399.609l-.751-.935M377.726 399.609l1.033-.62M377.726 399.609l-6.512 3.77M378.759 398.988l-.699-1.009M378.759 398.988l2.007 2.557M376.975 398.674l1.085-.695M389.314 397.257l.112-.77M388.147 407.634l.44-3.948.467-4.793.26-1.636M378.06 397.98l4.104-3.164M386.668 409.7l-2.111 1.387M380.766 401.545l5.314 7.479.304.38.284.296M387.89 409.419l-.493-.006-.729.287M386.586 414.077l.446-3.518-.022-.403-.13-.245-.212-.211M371.214 403.38l-1.784-2.459M371.214 403.38l1.77 2.638M386.003 419.255l.583-5.178M386.003 419.255l-.197 4.02M386.003 419.255l.888.106M386.003 419.255l-.063-.087M377.413 403.522l3.353-1.977M377.413 403.522l-1.59.91M383.665 411.656l-1.286-1.67-1.799-2.311-3.167-4.153M384.769 392.835l-.703.528M382.164 394.816l1.902-1.453M367.045 409.488l2.92-1.595M375.414 421.652l-4.862-7.064-3.507-5.1M381.346 418.14l2.69-1.615M381.346 418.14l-2.974 1.834M378.858 414.44l.057.08 2.43 3.62M383.665 411.656l-1.9 1.242M383.665 411.656l.892-.569M365.185 395.177l1.896 2.563M365.185 395.177l2.089-1.817M375.823 404.433l-2.84 1.585M381.766 412.898l-3.483-4.89-2.46-3.575M353.7 385.48l.082 3.39M367.081 397.74l2.788-1.956 2.289-1.61.855-.654M359.937 401.266l.38.217M359.937 401.266l-.35.603-.341.658-1.115 2.352-.571 1.333M353.782 388.87l5.308 3.361M375.243 348.654l-1.974 1.97-1.215 1.18-2.632 2.165M375.243 348.654l.096.569.205.304.431.286.327.16M375.243 348.654l2.412-2.05M367.081 397.74l2.349 3.181M363.386 391.004l2.03 1.22 1.858 1.136M349.805 344.167l2.164-.93M350.868 346.523l-.46-1.077-.235-.529-.368-.75M345.345 347.747l-.152-.661-.074-.55.126-.354.26-.364.431-.447.524-.345.848-.303 2.497-.556M359.773 359.59l-3.21-2.876M355.581 363.945l.818-.951.736-.826 1.182-1.247 1.456-1.33M365.862 355.067l-1.84 1.279-4.249 3.245M369.422 353.969l-.457-.6M369.422 353.969l-1.402 1.165-.429.33M354.02 354.525l2.542 2.189M354.02 354.525l-.75.78M353.299 353.82l.335.323.386.382M349.69 360.074l2.446-3.105M349.69 360.074l-.38.564M352.712 362.087l-2.026-1.282-.996-.731M348.091 360.297l.577-.116.483-.069.539-.038M346.876 363.935l.625-.815M348.337 363.696l-.769.133-.692.106M343.271 364.916l2.338-.616 1.267-.365M350.734 364.882l.196-.277M350.734 364.882l.498.356M350.734 364.882l-1.427-.727M355.53 344.46l-4.662 2.063M348.1 325.112l.583 1.428 1.673 4.024 1.397 3.518 1.91 4.814.751 2.107.714 2.1.401 1.357M357.332 348.852l-.368-.628-.487-1.237-.948-2.527M356.562 356.714l-3.85 5.373M350.868 346.523l.759 2.22M350.868 346.523l-1.36.365M355.581 363.945l-2.87-1.858M353.132 366.522l.435-.143.282-.252.636-.88.631-.784.465-.518M355.581 363.945l-.052.644-.163.955-.35 1.76M358.693 362.772l-1.168.477-1.078.413-.866.283M329.683 361.405l1.553-.369M329.683 361.405l-1.197-2.572M329.683 361.405l1.152 3.327M319.774 362.052l2.122-.022 1.975-.04 3.883-.301 1.93-.284M341.911 356.45l-2.408 1.055M351.463 353.628l-3.824.985-1.774.488-2.267.753-1.687.597" clip-path="url(#p84409948a7)" style="fill:none;stroke:#000"/><path d="m341.753 353.826.158.38.067.322.124.915.041.46-.053.321-.179.227M341.153 358.286l.063-.652.175-.518.52-.665M332.486 360.811l-1.25.225M341.271 358.616l-1.478.382-3.003.79-2.372.635-1.932.388" clip-path="url(#p84409948a7)" style="fill:none;stroke:#000"/><path d="m339.503 357.505-.543.252-3.308 1.472-1.62.785-1.546.797M345.345 347.747l1.175-.273 2.988-.586M349.27 349.302l.164-.85.09-.559.025-.466-.04-.54M352.845 353.277l.454.542M352.845 353.277l-1.382.35M352.37 351.006l.298 1.238.133.62.044.413M353.27 355.306l-1.134 1.663M353.27 355.306l-2.023.78M340.558 351.717l-1.736-1.73M349.27 349.302l-1.435.368-1.598.382-1.308.279-1.145.273-.914.252-1.212.41-1.1.451" clip-path="url(#p84409948a7)" style="fill:none;stroke:#000"/><path d="m341.753 353.826-.732-1.273-.463-.836M349.27 349.302l.66 2.27M319.774 362.052l-2.148-1.554M323.127 364.35l-1.472-.954-1.88-1.344M351.463 353.628l-.268-.481-.655-.798-.61-.777M341.753 353.826l1.113-.46.996-.307 1.524-.396 2.821-.681 1.723-.41M341.271 358.616l-.118-.33M351.247 356.086l-1.094.299-2.803.656-4.677 1.131-1.402.444M342.342 361.664l-.58-1.793-.49-1.255M336.102 351.136l1.921-.853.8-.296M345.345 347.747l-2.11.545-1.142.314-1.327.444-1.944.937M327.795 354.163l.702-.146 1.204-.246 1.1-.262 1.09-.423.795-.389 1.568-.743 1.848-.818" clip-path="url(#p84409948a7)" style="fill:none;stroke:#000"/><path d="m336.407 353.722-.123-.438-.086-.529-.074-.852-.022-.767M339.503 357.505l.691.313.959.468M345.799 372.584l-.524-1.251M337.499 355.762l.524.635.576.487.495.362.409.259M331.727 367.91l-1.42.463M330.835 364.732l.409 1.419.483 1.759M343.271 364.916l-2.349.573-4.579 1.22-4.616 1.2M342.342 361.664l-3.553 1.01-3.598.947-4.356 1.111M342.342 361.664l.506 1.548.423 1.704" clip-path="url(#p84409948a7)" style="fill:none;stroke:#000"/><path d="m344.256 368.002-.401-1.374-.584-1.712M262.201 364.617l-2.46 1.008M264.803 363.69l-1.234.394-1.368.533M265.591 369.976l-1.968-3.182-1.422-2.177M331.497 369.42l-1.19-1.047M333.456 370.995l-.606-.447-1.353-1.128" clip-path="url(#p84409948a7)" style="fill:none;stroke:#000"/><path d="m330.79 370.075.264-.164.208-.232.235-.259M352.366 366.11l-1.134-.872M352.366 366.11l-1.427.228M353.132 366.522l-.268-.119-.498-.293M345.275 371.333l-3.847.981-4.156 1.085" clip-path="url(#p84409948a7)" style="fill:none;stroke:#000"/><path d="m333.456 370.995 2.055 1.327 1.761 1.077M350.516 380.506l-1.32-.616-1.851-1.057-.922-.71-.892-.654-1.316-.682-1.667-.82-2.451-1.143-2.825-1.425M353.199 367.105l-.067-.31v-.273M348.091 360.297l-.572.116-5.177 1.25M142.768 452.292l-.482-.137-.663-.187" clip-path="url(#p84409948a7)" style="fill:none;stroke:#000"/><path d="m142.956 438-.21.42-.384.908-.215.96-.123 1.04-.089 3.184-.097 2.182-.215 5.274M315.232 359.134l2.394 1.364M278.121 361.414l.523-.234 2.26-.962 2.632-.832 2.914-.804 3.21-.545 3.212-.342 6.23.3 5.686.362 3.442.232 4.244.28 2.758.265M295.124 330.084l.566.889 2.46 3.675 1.88 3.096.915 1.527.729.832 2.586 2.66 3.435 3.968 1.635 2.237 1.19 1.282 1.159 1.05.832.818.476.668.461 1.241.49 1.555.35 1.18.565 1.288.379 1.084M254.664 367.46l2.475-.92M258.5 373.69l-2.921-4.652-.551-.992-.364-.586M250.397 367.105l1.576-.177 1.115.02.691.082.506.164.379.266M247.513 379.18l-.23-.844-.328-1.664-.037-.614.179-.716 1.546-2.987.624-1.282.55-.566 1.108-.708 3.739-2.339M345.275 371.333l-1.019-3.33M344.256 368.002l-3.705.999-2.55.73-4.545 1.264M328.114 367.05l1.19.607 1.003.716M350.939 366.338l-1.546.4-5.137 1.264M246.791 364.972l.47.51 1.129.71 2.007.913" clip-path="url(#p84409948a7)" style="fill:none;stroke:#000"/><path d="m227.085 373.45.491-.184.862-.362 2.149-.5 6.266-1.644 3.554-.955 3.91-1.145 2.453-.682 2.11-.559 1.517-.314M348.337 363.696l.97.46M348.337 363.696l-.836-.576M142.956 438l.101-.203 2.632-4.52 1.62-2.543.632-.573.61-.136 1.107.258.573.041.706-.13.684-.565 1.189-1.664 1.249-2.12 2.252-3.86 1.279-2.235.401-.955.141-.777.194-.546.323-.392.62-.323 5.286-1.65 2.29-.614 1.397-.464 1.293-.695 5.725-4.473 1.397-1.138.706-.382.855-.287.788-.218 10.957-1.466 2.245-.259M197.586 393.667l-2.026 1.025-.817.444-.231.307-.06.354.223 1.814.401 4.227.21 1.746-.046.613-.342.246-.92.314-1.77.354M193.308 415.91l.87-2.651.223-.832v-.293l-.053-.348-.497-1.527-1.227-3.805-.416-1.343M292.404 194.41l-.29.69-.308.664M348.1 325.112l-.934-2.206-1.39-3.287-1.152-2.803-1.42-3.6-1.508-3.546-.804-1.957-1.345-3.314-1.643-3.99-.327-.886-.327-.907-.401-.777-.431-.512-.49-.45-1.443-.866-.67-.614-.49-.504-.46-.546-.491-.709-.892-1.418-1.13-1.582-1.026-1.323-2.706-3.547-4.757-6.655-1.71-2.837-3.657-6.274-.312-.88-.12-.72-.148-1.203-.127-.682-.245-.73-.424-.914-.557-.933-.936-1.385-1.011-1.05-1.153-1.16-1.078-1.35-.576-.763-1.126-2.353-.84-1.923-1.04-2.524-2.275-4.794-1.814-3.86-.758-1.657-.773-1.698-.342-.641-.342-.573-.49-.675-.863-1.173-.825-1.18-3.412-4.747-2.49-3.553-2.193-3.124-1.658-2.618-.773-1.234-.431-.59-.335-.42-.375-.399-.439-.41-.613-.528-1.761-1.466-.81-.736-.447-.505-.29-.457-.133-.396-.082-.668.104-.832.141-.532.29-.676.36-.64.87-1.46 1.903-3.328 2.174-3.717 2.305-3.758 1.58-2.623M292.62 195.838l-.138-.08-.182-.058-.171-.024-.179.017-.144.071M364.873 343.724l-2.81.007M364.873 343.724l.557-.034M365.49 347.427l-.305-.662-.14-.716-.172-2.325M368.21 353.822l.418-.236.337-.217M365.892 348.006l.624 1.057 2.45 4.306" clip-path="url(#p84409948a7)" style="fill:none;stroke:#000"/><path d="m377.027 346.117-1.494 1.214-1.39 1.186-.61.676-.698.88-.58.722-.996.832-2.294 1.742M365.952 355.005l.646-.456.486-.276 1.127-.45M364.59 354.347l1.577-.241 1.115-.164.929-.12M357.975 349.48l.817.688 1.732 1.343 1.859 1.425M364.59 354.347l-.773-.395-1.434-1.016M353.299 353.82l.84-.08 1.108.09 3.798.81.614.11.442-.024.587-.19.554-.406 1.141-1.194M393.972 365.5l-2.167 2.775-.706.866-1.138 1.278M394.272 371.288l-1.244 1.305-.376.397-.182.085-.19.02-.248-.073-.222-.107-1.975-1.555M387.484 374.633l1.4-1.984.95-1.289M397.502 367.74l-3.23 3.548M399.617 369.042l-1.085-.655-1.03-.648M375.414 421.652l2.958-1.678M375.414 421.652l-3.33 2.155M382.104 425.32l-1.947-2.713M382.104 425.32l1.858 2.714M382.104 425.32l3.702-2.045M382.104 425.32l-6.304 3.668M369.965 407.893l3.018-1.875M366.497 402.902l2.004 2.843 1.464 2.148M378.372 419.974l-3.887-5.713-4.52-6.368M384.037 416.525l1.903 2.643M381.766 412.898l1.022 1.803 1.249 1.824M365.877 427.243l-6.237 3.681M365.877 427.243l-1.792-2.537M365.877 427.243l1.791 2.74M372.083 423.807l-1.011.476-5.195 2.96M378.372 419.974l1.785 2.633M383.962 428.034l1.242 2.004M383.962 428.034l1.375-.812M383.962 428.034l-6.474 3.729M355.039 433.46l-.067-3.763M355.039 433.46l.26 3.587M359.64 430.924l-2.365 1.378-2.236 1.159M355.039 433.46l-.198.055-.148-.017-.145-.058-.075-.15-.23-3.122-.119-.757-.349-1.193M366.497 402.902l2.933-1.98M385.204 430.038l.133-2.816M379.346 434.395l5.464-3.11.238-.224.111-.28.045-.743M355.373 440.879l-.074-3.832M355.373 440.879l.2 3.572M357.202 439.897l-.862.518-.967.464M373.34 438.049l-1.836-2.734M373.34 438.049l6.006-3.654M367.058 441.635l2.702-1.616 3.58-1.97M364.085 424.706l-6.214 3.491M360.48 422.654l2.252 1.596.676.293.677.163M372.083 423.807l-1.65-.873-2.55-1.776-.26-.072-.24.017-.213.147-3.085 3.456M377.488 431.763l-1.688-2.775M377.488 431.763l1.858 2.632M371.504 435.315l2.334-1.431 3.65-2.121M359.06 442.57l-1.858-2.673M359.06 442.57l1.731 2.712M365.163 438.922l-5.159 3.116-.944.532M355.574 444.451l1.858-.947 1.628-.934M363.342 436.229l-2.558 1.527-3.582 2.14" clip-path="url(#p84409948a7)" style="fill:none;stroke:#000"/><path d="m365.163 438.922 1.1 1.616.439.607.356.49M360.791 445.282l2.342-1.39 2.825-1.595 1.1-.662M362.74 448.071l-.562-.824-1.387-1.965M355.61 448.433l2.15-1.336 3.031-1.815M379.346 434.395l8.563 1.929M372.083 423.807l1.866 2.59M385.337 427.222l.469-3.947M358.101 406.345l-.541-.133M361.335 409.393l-1.1-1.296-1.075-.991-.486-.423-.301-.215-.272-.123M358.101 406.345l1.442-3.259.394-.86.38-.743" clip-path="url(#p84409948a7)" style="fill:none;stroke:#000"/><path d="m354.637 415.43.81-1.994.803-2.346.744-2.031.973-2.408.134-.306M373.95 426.397l.716.941 1.134 1.65M369.556 432.684l3.122-1.868 3.122-1.828M378.858 414.44l2.908-1.542M372.983 406.018l3.226 4.684 2.65 3.738M358.807 423.725l1.673-1.07M358.807 423.725l-2.713-3.9M355.878 425.559l2.112-1.357.817-.477M359.64 430.924l-1.77-2.727M359.64 430.924l1.836 2.625M363.342 436.229l-1.866-2.68M363.342 436.229l1.82 2.693M369.556 432.684l-3.494 1.977-2.72 1.568M371.504 435.315l-2.78 1.719-3.561 1.888M361.335 409.393l-1.472 3.11M366.925 416.504l-2.9-3.866-2.69-3.245M354.972 429.697l2.899-1.5M354.972 429.697l-.09-3.559M355.878 425.559l1.993 2.638M355.878 425.559l-.996.579M354.882 426.138l-.111-1.622.015-1.487.26-1.963.12-.675.23-.314.698-.252M360.48 422.654l-.84-.634-2.9-2.032-.646-.163M373.95 426.397l6.207-3.79M367.668 429.984l3.152-1.896 3.13-1.69M355.61 448.433l-.036-3.982M355.758 451.932v-.568l-.147-2.931M387.89 409.419l.257-1.785M386.891 419.36l.2-2.078.799-7.863M361.476 433.55l-3.769 2.188-2.408 1.309M386.586 414.077l-2.029-2.99M367.668 429.984l-1.412.845-3.598 2.059-1.182.661M380.157 422.607l5.783-3.439M356.168 459.573l-.133-.64M356.168 459.573l1.116-.702 2.974-1.874 5.41-3.103.1-.058.503-.29M356.168 459.573l-1.368 1.105M327.378 567.899l3.635-2.29 4.29-3.095M343.326 555.081l-4.857 4.706-3.167 2.727" clip-path="url(#p84409948a7)" style="fill:none;stroke:#000"/><path d="m337.993 571.812-.713-2.046-1.561-5.235-.417-2.017M343.472 554.94l-.146.141M343.472 554.94l.204.02.494.088M344.025 554.039l-.363.547-.19.354M327.378 567.899l-1.62.565-1.561.314-1.955.463-2.981 1.03-3.739 1.445-2.03.545-1.568.164-1.539.055-2.72-.219-5.873-.77-3.107-.143-.773.096-.654.286-.654.531-1.784 1.732-1.643 1.288-1.368.805-.855.818-.676 1.185-1.212 2.68-3.107 7.797-.937 1.582-1.19 1.31-1.67 1.398-15.694 13.951M243.81 595.37l.938.477 1.16.532.98.654.655.832.832 1.077.655.517.758.45 1.219.641 2.884 1.309 1.754.695 1.457.409 2.32.805 3.36 1.308 2.72 1.268.966.463M550.414 605.2l-.485-1.336-1.166-3.37-1.785-5.125-1.665-5.126-1.19-1.854v-1.691l1.33-2.7.396-1.172-.239-1.036-3.27-1.69-1.25-1.037-.275-1.608 3.627-7.962 2.141-4.418 2.774-4.226 3.033-4.363 2.34-3.19 1.288-1.717.357-.71-.179-.654-.714-.436-9.217-4.09-1.25-.71-.534-.981 2.557-9.762-.184-.747" clip-path="url(#p84409948a7)" style="fill:none;stroke:#000"/><path d="m482.545 508.51 2.23 2.808.55.804.357.941.328 2.877.505 2.604.773 2.209.936 2.236.253.423.498.286.774.143 1.166.239 2.706.736 3.88 1.076 2.081.164 3.033-.818 2.676-.11 5.115.11 1.13-.491.594-.545 1.011-2.236 1.011-1.527.853-.3 3.667 1.172 2.28 1.227 3.012 4.28 1.725 1.092 4.995 2.508 6.74 2.7 1.705.137h6.363l1.362.234" clip-path="url(#p84409948a7)" style="fill:none;stroke:#000"/><path d="m609.15 535.746-3.417-1.128-2.2-.273-1.228-.41-1.33-1.008-5.292-1.963-6.483-1.68-1.778-.466-2.59-.735-2.53.318-3.39.872h-2.08l-7.057.137-8.405.681-1.19.655-4.34 1.854-3.489.463-3.648.464-1.85-.038M602.58 577.157l.18.408 3.569 5.017.942 6.568M615.208 588.586l-1.486-.28-2.617.11-3.834.734" clip-path="url(#p84409948a7)" style="fill:none;stroke:#000"/><path d="m606.66 590.3.344-.58.267-.57M387.91 436.324l-.543-1.234-.9-2.25-.401-1.377-.179-1.61.112-1.84.49-4.03.402-4.622M482.545 508.51l-.684-.792M489.845 504.582l-5.322 2.795-1.978 1.132M462.566 481.552l4.934 4.296 1.115 1.078.765 1.097.603 1.5M481.861 507.718l-.304-.307-2-1.765-.736-.832-.646-1.159-.454-1.704-.676-3.504-.275-.9-.52-.846-1.94-1.854-3.019-3.122-.669-1.01-.639-1.192M457.167 500.192l-.222-.361-.052-.314.066-.212.186-.176.624-.444 1.183-.756 1.219-.511 2.274-.819 1.494-.818 1.487-1.125 1.836-1.874 1.918-2.257.803-1.002M588.532 593.813l-6 2.743-5.284 1.921-2.438.7-2.708.805-.415.124-.91.209-2.033.616-1.368 1.418M550.414 605.2l1.163-.333 2.03-.563 2.996-.585 1.275.152 1.463.195 1.44-.108 1.652-.498 1.18-1.017.85-.238 1.462.195 1.45-.051M588.532 593.813l.235-.094" clip-path="url(#p84409948a7)" style="fill:none;stroke:#000"/><path d="m582.595 588.38-.63 2.115.115.45.371.36 2.56 1.075 3.521 1.433M403.824 364.016l-4.812-3.603M403.824 364.016l-.434.484M405.363 365.019l-.572-.41-.967-.593M401.426 366.84l-.583.694-1.226 1.508M399.617 369.042l-3.085 3.296-.471.512M394.272 371.288l1.789 1.562M406.289 372.199l-4.494 5.352M399.004 375.237l-.896-.707-.988-.818-1.06-.862M399.004 375.237l2.791 2.314M395.32 379.695l.165-.193 3.519-4.265M367.668 429.984l1.888 2.7M369.556 432.684l1.948 2.631M584.102 392.659l-.383.378-.254.245M585.79 386.081l.092 1.473-.148 1.197-.335 1.06-1.297 2.848M583.804 393.625l.146-.464.152-.502M583.876 393.93l-.072-.305M583.639 394.468l.174-.236.063-.302M582.897 393.175l-2.94-2.106M583.192 393.179l-.148-.014-.147.01M582.206 394.089l.159.321.27.211.342.09M581.023 392.448l.424.529.759 1.112M582.977 394.71l.352-.047.31-.195M583.804 393.625l-.34-.343M583.465 393.282l-.273-.103M579.958 391.069l.952 1.237.113.142M603.737 405.49l5.36.93M589.052 399.312l2.93 2.802 1.1.788 1.04.556 1.17.43 1.343.279 7.102 1.322M598.57 401.149l3.782 3.08 1.385 1.26M592.298 397.202l-1.197-.996M592.298 397.202l1.381-3.64M592.298 397.202l-.82.854M598.57 401.149l-2.21-2.031-.773-.464-2.082-.842-1.207-.61M591.1 396.206l.379 1.85M591.1 396.206l-2.58-5.08M598.57 401.149l2.863-4.946M605.421 386.443l-1.089 4.39-.423 1.34-.298.638-.814 1.173-1.364 2.219" clip-path="url(#p84409948a7)" style="fill:none;stroke:#000"/><path d="m598.91 389.685.791 1.08.412.72.22.688.91 3.222.19.808M605.421 386.443l.808-1.156M598.91 389.685l1.254-.244.465-.039.87.013.598-.114.538-.223 1.036-.706.583-.573 1.167-1.356M607.981 383.055l-.687.78-1.065 1.452M603.507 382.374l1.335 1.45 1.387 1.463M607.981 383.055l1.202-1.068M607.981 383.055l6.298 3.052M625.618 353.945l4.105 2.412.322.25.19.328.059.386-.142.483-1.82 2.694-4.252 6.294-1.48 2.216-.59 1.036M625.618 353.945l-.93 1.248-5.032 7.603-1.538 2.396-.1.452.053.404.2.317 2.538 2.472 1.2 1.207M616.873 376.157l2.36-2.165.896-.961 1.88-2.987" clip-path="url(#p84409948a7)" style="fill:none;stroke:#000"/><path d="m633.996 371.54.782-1.516.083-.123.1-.066.16-.004.168.037.07.101.021.155-.08 1.91-.1.46-.221.383-2.167 2.699-.275.16-.272.055-.336-.074-1.226-.692-1.695-.77-2.282-1.453-3.879-2.235-.838-.523M616.873 376.157l-1.045.835-2.126 1.596M609.183 381.987l1.658-1.43 2.861-1.97" clip-path="url(#p84409948a7)" style="fill:none;stroke:#000"/><path d="m609.132 373.47 1.44 1.538 3.13 3.58M616.873 376.157l-3.974-3.901M606.482 379.685l.899.765 1.802 1.537M598.91 389.685l-.937-1.02M588.52 391.125l4.499-2.577.776-.265.818-.034 3.36.416M592.636 377.2l.135.672.556 2.175.71 1.844.858 1.558 3.078 5.216" clip-path="url(#p84409948a7)" style="fill:none;stroke:#000"/><path d="m587.836 381.029 2.893-1.691.426-.384 1.267-1.45.214-.304M591.365 373.044l1.183 3.599.088.557" clip-path="url(#p84409948a7)" style="fill:none;stroke:#000"/><path d="m608.164 350.733 1.632 3.243 1.026 3.861-.076.165-.11.111-1.423.914-.29.288-.368.651-.383.968-.134.822-.163 2.035-.08 1.14-.13.357-.226.256-.243.179-7.227 2.725-1.141.621-.751.696-3.401 4.084-.758 1.163-1.282 2.188M585.79 386.081l.661 1.248 2.069 3.796M589.052 399.312l2.427-1.256M585.522 382.345l.134 1.891.133 1.845M585.522 382.345l2.314-1.316M585.522 382.345l-.344-4.666M591.365 373.044l-4.052 1.602M590.506 368.353l.23 1.224.629 3.467M587.313 374.646l.226 2.896M587.836 381.029l-.297-3.487M585.178 377.68l2.361-.138M590.506 368.353l5.335-.907M589.97 360.655l-.46.94-.112.45.1 1.235 1.008 5.073M589.484 356.154l.487 3.107.065.964-.065.43" clip-path="url(#p84409948a7)" style="fill:none;stroke:#000"/><path d="m608.164 350.733-.777.536-1.756 1.023-2.934 1.687-2.914 1.579-1.61 1.101-1.475.951-2.356 1.302-.919.434-2.643.905-.81.404M575.669 335.742l7.243 1.845 1.684.4M588.653 337.632l-.5.258-.483.157-.617.014-1.241-.034-1.216-.04" clip-path="url(#p84409948a7)" style="fill:none;stroke:#000"/><path d="m586.745 343.795-1.063-2.178-.54-1.5-.304-1.016-.242-1.115M589.484 356.154l-.335-3.317M589.484 356.154l8.727-1.53M611.435 346.983l-2.14 2.472-1.13 1.278M636.174 525.869l1.095-1.127M612.335 522.648l4.906 1.2 2.617.054 3.102-1.53 8.167.03 3.687-.027.773.218.356 1.663.231 1.613M606.66 590.3l.68 9.95.892 1.28 3.965.754 3.587.91 3.162.59.347-1.954M588.767 593.72l.358-.144 3.173-1.345 2.81-.216h4.52l3.865-.055 2.715-.9.452-.76M585.128 543.427l-4.683 8.18-.03.6.164.272.788.382 13.395 6.095 8.162 3.694.238.227.118.281 2.499 4.66.163.572-1.903 4.676-1.6 3.772.14.32" clip-path="url(#p84409948a7)" style="fill:none;stroke:#000"/><path d="m573.116 572.739.06-.3.773-.11 1.401-.153.863-.41.65-.363 17.186 6.626 8.53-.872M615.208 588.586l.569-2.908.334-3.696.506-5.998.412-1.792M622.439 588.18l-1.007.318-3.13.463-1.963-.273-1.13-.102M612.335 522.648l-.584 2.124-1.1 4.063-.982 3.545-.337 2.184-.183 1.182M613.849 425.74l-.178 1.908.031 1.9-.163 1.39-.238 1.214-.344.951-.162.33-6.883 23.25.475 7.417 1.844 10.363 2.42 5.533 1.218 2.154.179 3.19.198 2.294.337 3.025.674 1.038 1.527 1.552.564 1.8.922 1.963 1.15 2.92-.063 1.704-.015.384-.153.405-1.91 3.144-2.185 1.397-.442.679.575 2.787.159 3.787-.297 4.281-.327 2.21-.427 1.938M142.768 452.292l-2.32 4.472-1.3 2.44-1.45 2.298-1.68 2.196-3.092 4.145-4.282 5.768-1.687 2.297-2.327 3.075-1.569 2.325-.624 1.234-.23 1.09-.238 2.175M128.99 499.63l-1.164-1.783-2.825-4.152-1.275-1.858-.717-1.299-.587-1.459-.394-1.738-.06-1.534M190.511 457.084l-6.808-1.56-2.319-.396-2.059-.136-3.293-.15-7.835-.062-7.924.028-3.97-.02-2.705-.124-1.725-.109-1.783-.238-1.792-.389-3.769-1.118-1.761-.518M620.028 425.136l-1.768.157M617.347 407.754l15.987 3.112M609.097 406.42l5.349.825 2.901.51" clip-path="url(#p84409948a7)" style="fill:none;stroke:#000"/><path d="m614.535 412.863.425-.748.816-.96.431-.61.279-.64.57-1.463.291-.688M613.849 425.74l2.084-.243 2.327-.204M618.222 441.765l.015-3.531v-10.636999999999999l.023-2.304M614.535 412.863l-.088.266-.057.443-.049.571-.085 1.167-.069 1.154-.02.879-.022 1.043-.058 1.313-.088 1.326-.068 2.53-.065 1.233-.002.788-.015.163M614.535 412.863l.351.226.42.209.842.431.914.397.859.207M618.857 415.942l-.191-.447-.104-.14-.222-.177-.11-.15-.31-.695M633.334 410.866v-1.698l.067-1.657.067-3.798-.111-.382-.146-.153-.32-.126-.36-.044-2.215.034-.543-.126-.412-.246-.305-.337-.153-.447-.029-1.07.09-2.27.103-1.48.208-2.66.09-2.761.111-1.336.26-1.31.532-1.292.226-.627.097-.555.16-1.61.15-.608.225-.418.307-.358.589-.443M498.659 345.036l.504.884 1.61 2.407 1.442 2.12.434.498.584.49 2.78 1.695M581.023 392.448l-1.374-.178-1.572-.393-2.845-.904-2.117-.709-1.814-.93-1.388-.935-.518-.232-.528-.085-1.549-.18-2.129-.195-.652-.225-.383-.31-2.366-2.16-.73-.64-1.464-.943-2.282-1.241-2.628-1.18-6.07-3.044-1.826-1.047-1.065-.47-1.286-.324-2.409-.46-6.882-.852-3.824-.468-2.866-.514-1.399-.4-1.003-.576-.96-.738-.638-.602-2.402-2.683-5.283-6.101-2.983-3.431-1.806-2.018-.695-.72-.977-.828-4.297-2.602" clip-path="url(#p84409948a7)" style="fill:none;stroke:#000"/><path d="m492.876 361.3.174-.068.143.024.399.139.421.006.396-.105 1.452-.743.23-.083.173-.011.25.094.926.55.213.068.344.022.642-.095.613-.242 1.126-.6 1.056-.607.767-.542.513-.469.318-.52.556-1.292.165-.336 2.26-3.36M609.097 406.42l.212-1.405.26-.985.364-.6.349-.326 2.591-1.272 1.327-.928.309-.453.185-.59.034-.661-.342-1.927-.424-1.474-.018-.297.084-.294.207-.246 1.17-.765 1.074-.634.663-.464.721-.728.642-.856.624-.572 1.01-.573 2.097-1.227 1.308-.662.78-.293.668-.145.563-.175.807-.338M498.639 345l-.292-1.064-.262-1.017" clip-path="url(#p84409948a7)" style="fill:none;stroke:#000"/><path d="m500.122 342.926-.985-.007h-1.052M347.501 363.12l.996-1.385M336.407 353.722l-.591.278-1.61.699-1.676.784-1.245.549-1.412.58M327.795 354.163l.892.918.717.835.469.695" clip-path="url(#p84409948a7)" style="fill:none;stroke:#000"/><path d="m330.961 358.705-.223-.365-.29-.491-.278-.556-.134-.348-.163-.334M354.689 350.273l-2.32.733M351.627 348.742l.743 2.264M351.627 348.742l2.208-.664M347.97 363.072l1.832-.364M347.97 363.072l.93-1.271M349.307 364.155l.166-.29-1.502-.793M349.854 362.374l-.058.163.006.171M350.04 363.025l-.11-.085-.08-.108-.048-.124M349.854 362.374l-.954-.573M350.178 362.132l-.13.053-.11.084-.084.105M348.9 361.8l-.403-.065M348.9 361.8l.814-1.185M349.31 360.638l-.433.585M349.31 360.638l.404-.023M350.178 362.132l-.464-1.517" clip-path="url(#p84409948a7)" style="fill:none;stroke:#000"/><path d="m350.64 362.2-.144-.065-.16-.024-.158.021M350.64 362.2l.512-.828M350.856 362.486l-.046-.11-.074-.097-.096-.08M351.152 361.372l-1.438-.757M351.152 361.372l1.297.724M352.45 362.096l-1.594.39M352.45 362.096l-.853 1.149M352.45 362.096l.187.106" clip-path="url(#p84409948a7)" style="fill:none;stroke:#000"/><path d="m350.812 362.837.046-.113.015-.119-.017-.12M350.812 362.837l.785.408M350.398 363.1l.167-.045.143-.09.104-.128M351.597 363.245l.212.122M351.597 363.245l-.907 1.234M350.69 364.48l.24.125M350.69 364.48l-.292-1.38M350.04 363.025l-.511.852 1.161.602M350.04 363.025l.171.067.187.008M317.782 364.5l.082 2.973M317.782 364.5l-.156-4.002M317.782 364.5l5.345-.15M328.114 367.05l-2.4-1.145-2.587-1.555M317.864 367.473l.104 3.069M317.864 367.473l8.994-.382M318.31 379.542l.096 2.23.052 1.834M328.114 367.05l-1.256.041M318.176 376.5l.134 3.042M318.176 376.5l-.09-3.108M318.176 376.5l9.131-.293M327.307 376.207l-.138-2.903M318.31 379.542l8.593-.204.208-.068.104-.106.12-.208.017-.259-.045-2.49M326.858 367.091l.149 3.069M317.968 370.542l.118 2.85M317.968 370.542l9.039-.382M318.086 373.392l9.083-.088M358.693 362.772l-1.886 2.257-1.791 2.274M366.876 356.011l-5.066 4.017-1.353 1.104-1.764 1.64M355.016 367.303l-.75 1.384-1.353 3.33-.662 2.057-.372 1.582-.082 1.07-.066 2.918M378.878 348.006l-.037-.603-.104-.314-.175-.208-.283-.17-.624-.106M378.102 351.243l.064-.334.206-.898.26-.86.15-.572.096-.573M378.878 348.006l-2.576 1.968M330.961 358.705l.275 2.331M337.499 355.762l-2.576 1.122-1.256.552-1.36.641-1.346.628M336.407 353.722l.338.578.45.87.304.592M327.296 356.56l-.698-1.384-.015-.328.12-.184.326-.248.766-.253M351.247 356.086l.889.883M353.24 432.404l.788 25.41M351.047 432.182l.357-.119.557-.109.602.054.677.396M345.91 442.242l3.04-1.418.766-.695.61-1.057.32-1.275.133-2.53.268-3.085M357.975 349.48l-.327-.297-.316-.331M358.714 343.71l-.535.044-.375.13-.272.28-.104.477-.096 4.21M367.505 452.633l-1.547.463M389.062 439.413l-2.513 1.548-3.865 2.55-5.59 3.463-3.564 2.205-6.025 3.454M367.505 452.633l-1.234.913M389.062 439.413l-1.153-3.089" clip-path="url(#p84409948a7)" style="fill:none;stroke:#000"/><path d="m429.232 462.344-1.74-.112-2.2-.273-1.471-.504-1.77-.832-4.92-2.168-5.174-2.372-2.528-1.173-2.66-.86-2.766-.586-2.75-.504-1.33-.498-1.458-.907-4.066-3.497-2.52-2.543-.855-1.31-.743-1.813-1.22-2.979M354.165 412.26l-.3-1.203-.29-1.343-.268-1.153-.201-1.391-.149-1.786-.089-2.7-.245-9.655-.082-3.818-.104-2.735-.09-3-.036-2.059M354.165 412.26l-.519-.094-.505-.036-.375.053-.314.148-.357.198M354.637 415.43l-.082-.859-.39-2.311" clip-path="url(#p84409948a7)" style="fill:none;stroke:#000"/><path d="m357.56 406.212-.753 1.756-1.397 3.477-.345.467-.324.26-.576.088M352.285 415.417l.572.412.565.085.49-.078.339-.143.386-.263" clip-path="url(#p84409948a7)" style="fill:none;stroke:#000"/><path d="M353.775 428.218v-.552l-.052-1.078-.052-2.57v-2.291l.074-1.528.2-1.192.44-2.121.252-1.456M355.009 484.335l-.35 3.88M355.009 484.335l.2-1.507-.067-1.936-.044-1.718.015-1.336.015-1.453.052-1.35.149-2.208.081-2.243-.007-.907-.03-.395M353.604 469.336l.327 3.177.402 2.727.245 2.666.29 5.004.14 1.425M324.588 356.952l2.708-.391M327.296 356.56l1.19 2.273M325.895 359.157l2.59-.324M388.318 356.734l-.921 1.712-.212.3-.268.098-.383.014-2.596-.737M388.318 356.734l-3.1-1.159-.46-.096-.283.041-.692 1.47.155 1.13M388.318 356.734l1.312-2.393M380.462 348.187l-1.486 2.74-.874.316M377.919 352.315l.055-.395.128-.677M357.975 349.48l7.515-2.053M365.49 347.427l.402.579M380.462 348.187l1.484-2.239M391.113 352.077l-5.218-1.841-5.433-2.05M381.946 345.948l.634.275 9.275 3.476.34.238.119.22.022.27-.13.27-.554.776-.539.604M389.63 354.34l.94-1.39.543-.873M389.63 354.34l-6.245-2.32M350.939 366.338l.293-1.1M350.855 380.664l-.34-.158M350.855 380.664l.091.33.1.335.175.623.413 1.286M351.73 379.644l-.278.312-.17.18-.202.245-.225.283M376.187 371.66l-1.591 1.75M374.596 373.41l-.563-.438-.461-.25-.333-.073-.316.135-1.716 2.353M359.038 414.24l.825-1.738M359.863 412.502l7.062 4.002M366.925 416.504l2.4 3.055M263.762 377.142l2.364-1.186M260.834 372.424l1.546 2.427 1.382 2.291M258.5 373.69l1.241 1.986 1.859 2.554 2.162-1.088M257.14 366.54l2.601-.915M257.14 366.54l3.694 5.884M266.126 375.956l2.357-1.255M263.18 371.258l1.787 2.795 1.16 1.903" clip-path="url(#p84409948a7)" style="fill:none;stroke:#000"/><path d="m289.599 411.636-1.217-2.488-4.713-11.087-1.471-3.655-.996-1.922-2.38-3.6-1.085-1.65-.293-.447-1.29-1.129-1.345-.947-1.472-.73-1.505-.76-.987-.605-1.998-2.596-2.72-4.064M259.741 365.625l3.438 5.633M268.483 374.701l-2.892-4.725M268.483 374.701l2.297-1.295M270.78 373.406l-2.817-4.623M270.78 373.406l2.393-1.296M264.803 363.69l.858-.33M264.803 363.69l3.16 5.093M273.173 372.11l-2.758-4.589M289.599 411.636l7.168-2.434.565-.368.238-.464.045-.804-.253-1.528-.327-1.963-.342-.764-.654-.968-1.71-1.746-1.814-2.44-1.56-2.482-2.781-4.65-2.186-3.942-1.144-1.95-.684-.695-.803-.818-2.453-2.564-4.98-5.196-2.75-3.75M258.5 373.69l2.334-1.266M270.415 367.521l-3.073-4.694M270.415 367.521l-2.452 1.262M265.661 363.36l.317-.12 1.364-.413M278.121 361.414l-2.16.966-1.62.47-1.45.062-2.245-.102-2.386-.116-.918.133M376.302 349.974l.721.289.372.191.175.143.126.29-.019.375-.204.76-.004.362" clip-path="url(#p84409948a7)" style="fill:none;stroke:#000"/><path d="m372.199 352.707.684-.514 2.021-1.305 1.398-.914M363.386 391.004l-1.62 2.102M355.758 451.932l.626-.356M355.797 455.81l-.038-1.212v-2.666M362.74 448.071l1.732 2.653M362.74 448.071l-6.356 3.505M356.384 451.576l1.903 2.802M355.797 455.81l2.49-1.432M356.035 458.932l-.142-.968-.067-1.656-.029-.498M364.472 450.724l1.486 2.372M364.472 450.724l-6.185 3.654M351.73 379.644l-.04.403-.022.556-.023.842-.042 1.136.03.657M351.634 383.238l.498 12.56.268 10.458-.194 4.869-.111 1.404M352.31 381.417l-.037-2.106.067-1.085.163-1.69.298-1.48.602-2.162.55-1.588.491-1.22.765-1.597 1.106-1.778.526-.738.497-.645.645-.725 1.217-1.364 1.302-1.275 2.393-1.909 2.922-2.366 1.467-1.146M351.11 376.157l-.063-.856.015-.525.126-.593.394-1.224.68-1.476.583-1.241.335-.9.346-.928.093-.364.004-.225-.094-.229-.33-.49" clip-path="url(#p84409948a7)" style="fill:none;stroke:#000"/><path d="m351.11 376.157-.859-.706-.122-.276-.056-.447.093-.583.665-1.864.84-1.807.669-1.548.505-1.136.354-.685M327.17 373.304l-.163-3.144M330.79 370.075l-.044.937-.316 1.37-.241.526-.138.133-.171.085-2.71.178M260.09 311.852l-1.127.247M260.09 311.852l-.802-.689M293.751 327.835l-.604-1.13-1.323-3.281-.35-.75-.542-.75-1.197-1.33-2.75-2.557-1.873-2.107-.736-.927-.513-.941-.64-.948-1.21-1.235-1.05-.845-.84-.464-1.924-.613-1.992-.512-.915-.048-.907-.017-1.167-.017-2.855.273-3.448.668-6.825 1.548M352.095 412.53l-.015 1.513.205 1.374" clip-path="url(#p84409948a7)" style="fill:none;stroke:#000"/><path d="m351.606 411.432-.061 1.07.052 1.807.104.573.171.204.413.33M354.028 457.814l.007 2.018M354.028 457.814l-.588.812M353.44 458.626l-9.715.347M353.44 458.626l.298.634.297.572M354.035 459.832l-.282 6.034-.15 3.47M353.604 469.336l.327.259.252.082.29.048.276-.041.267-.09.216-.128.141-.184M355.373 469.282l-.052-1.582-.186-1.514-.09-1.888-.11-1.207-.135-2.413M354.8 460.678l-.066-1.378M354.734 459.3l-.067-3.088-.357-11.01-.38-11.57-.066-1.685-.074-1.48-.015-1.479v-.77M354.734 459.3l1.3-.368M335.137 458.859l1.325.257 1.628.048 5.635-.19" clip-path="url(#p84409948a7)" style="fill:none;stroke:#000"/><path d="m343.093 462.416.335-.334.185-.266.082-.354.03-2.489M343.093 462.416l3.553.862M335.137 458.859l2.344 1.396 3.553 1.52 2.059.641M331.215 455.646l1.616 1.84 2.306 1.373M345.91 442.242 327.7 427.07M384.066 393.363l-1.605-2.07M415.659 360.846l-2.223 2.27M413.436 363.116l-.424.457-.2.519.03.395.23.477 1.992 1.132 1.204.597.216.01.237-.082.045-.15-.045-.204-.148-.246-3.137-2.905" clip-path="url(#p84409948a7)" style="fill:none;stroke:#000"/><path d="m413.436 363.116 3.137 2.905.148.246.045.204-.045.15-.237.082-.216-.01-1.204-.597-1.992-1.132-.23-.477-.03-.395.2-.519.424-.457M401.426 366.84l1.964-2.34M403.933 365.919l-.326.489-.417.368-.46.136-.461.028-.843-.1M403.933 365.919l1.43-.9M403.39 364.5l.204.215.242.283.126.205.063.344-.092.372M431.408 338.031l-3.187-3.301M431.408 338.031l.353.803M431.408 338.031l.745.31M432.153 338.342l2.253-3.237 1.167-1.623.647-.689 1.182-.811 4.534-2.796" clip-path="url(#p84409948a7)" style="fill:none;stroke:#000"/><path d="m438.213 325.858 3.002 2.728.721.6M444.895 329.507l-1.227-.144-1.732-.177M489.451 318.644l-.408.784-.61.518-.595.266-.855.177-2.126.321-1.026.28-2.356.9-2.267.927-1.137.586-1.413.975-1.308.9-1.019.396-.988.062-1.926-.13-2.534-.457-1.115-.225-.848.034-.758.403-2.067 1.834-.79.777-.808.812-1.955 2.093-.93.846-.705.47-.966.266-.803.027-1.531-.245-1.096-.08-1.046-.036-.66-.102-.923-.375-1.248-.594-.87-.333-2.268-.635-1.486-.395-1.115-.184" clip-path="url(#p84409948a7)" style="fill:none;stroke:#000"/><path d="m444.408 331.47-.048-.28.037-.337.23-.637.268-.71M542.244 285.122l2.87.132 1.426.02 2.022-.112 2.966-.331 1.238-.092 1.126.041 6.144.596M599.597 212.089l-1.424.95-2.34 1.263-2.614 1.32-6.098 2.728-2.536 1.02-1.305.296-1.267.095-1.862.191-.855.372-.647.644-1.534 1.859-2.992 4.296-2.127 3.502-1.52 2.517-1.605 2.81-.7 1.49-1.712 4.05-1.234 2.81-.762 2.411-.506 1.886-1.167 6.97-.297 2.11-.111 2.19-.168 4.752-.476 4.556-1.557 13.66-.145 2.54M491.935 302.896l-2.127-2.07M501.014 299.559l-4.616 1.98-1.193.289-.684.13-.688.07-.676.088-.597.184-.326.165-.166.164-.133.267" clip-path="url(#p84409948a7)" style="fill:none;stroke:#000"/><path d="m489.451 318.644 1.569-3.355.974-1.773.386-.777.134-.355.06-.389-.06-.586-.632-1.323-.513-1.241-.119-.573.045-1.016.64-4.36M542.244 285.122l-2.64-.12-1.236.081-1.011.167-2.643.655-.602.03-.584-.173-.556-.366-4.454-5.772-2.94-3.624M501.337 299.448l1.896-.63 1.485-.597.849-.437.773-.583.702-.75.672-.86.445-.828.385-.968.622-1.982 1.44-5.329.332-.753.36-.624.5-.527 2.481-1.945 2.148-1.493.844-.427 1.661-.644.614-.324 1.379-1.054 1.122-1.009.48-.334 1.55-.764 1.501-.586" clip-path="url(#p84409948a7)" style="fill:none;stroke:#000"/><path d="m435.707 229.357 14.93 8.74.948.477.921.385.606.19.417.066.41.025.46-.002.542-.049.68-.107 3.39-.668 3.065-.594.321-.058.28-.032h.25l.323.056.241.087 4.113 1.768 3.479 1.545 1.334.511.963.297.684.16.748.079.688.02.474-.03.53-.062.377-.069.45-.092 2.943-.814.19-.048.189-.028.143-.011.243-.018 1.845-.173.318-.055.185-.044.25-.087.237-.096 1.327-.593.414-.182.31-.118.36-.113.583-.166 9.381-2.34.779-.197.427-.041.413.036.41.192.339.409 2.795 4.969.97 1.902.45 1.07.52 2.037.382 1.8.086 1.507-.052 1.129-.23 2.813-.242 1.636.061.72.233.682.412.552 1.803 1.565.465.563.249.512.215.697 1.569 6.75.21.627.358.668.45.42.944.45 4.56 1.108 4.594.945 3.412.773.959.519.762.671.498.59.528.812M428.221 334.73l-4.036 3.692M421.904 328.959l1.322 1.27 2.944 2.741 2.051 1.76M420.532 341.842l3.653-3.42M414.745 337.183l1.39 1.127 2.036 1.609 1.256 1.064 1.105.859M409.422 332.862l5.323 4.32M408.627 392.184l2.87 1.703M408.627 392.184l1.026-1.555M413.11 385.604l-1.729 2.522M419.573 398.678l-2.646-1.57M419.573 398.678l-2.755 4.129M416.927 397.108l-2.741-1.626M416.927 397.108l-2.744 4.082M414.186 395.482l-2.69-1.595M414.186 395.482l4.572-6.483M414.186 395.482l-2.868 4.065M411.497 393.887l1.027-1.464M409.653 390.629l1.728-2.503M409.653 390.629l2.87 1.794M412.524 392.423l1.757-2.504M411.381 388.126l2.9 1.793M421.314 347.799l.476-.494M420.678 347.107l-.067.236.073.25.25.152.38.054M420.486 346.265l.134.384.058.458M420.678 347.107l.498-.519M498.639 345l.02.036M498.659 345.036l.09-1.048.1-.377.29-.327.32-.16.663-.198M583.024 353.789l-3.256-7.754M586.359 344.825l-1.722 4.47-1.613 4.494M586.745 343.795l-.386 1.03M589.15 352.837l-.648-3.767-.2-.771-1.557-4.504M588.653 337.632l-.518 1.638-1.39 4.525M579.768 346.035l6.591-1.21M575.669 335.742l1.416 3.546 2.683 6.747" clip-path="url(#p84409948a7)" style="fill:none;stroke:#000"/><path d="m607.577 342.572-3.568 2.277-2.557 1.861-1.197.658-1.82.62-4.04 1.241-1.282.405-.737.297-.543.397-2.684 2.509M597.95 313.216l2.416.849.365.058 1.732-.038.314-.002.133.05.079.097.031.159.024.517.033.137.073.096.316.205 2.303 1.201.842.473.139.174.04.2-.072.242-.173.273-1.458 1.528-1.36 1.316-1.086 1.05-3.479 4.678-1.932 2.53-1.079 1.04-.906.764-1.334.883-2.119.984-.64.427-.873.846-.693.974-.481.787-.272.625-.152.735-.028.558M389.961 370.419l-.442.56-.599.817-.69.935-.406.617-.705 1.09M390.113 361.384l-2.62 2.916-.587.875-.19.624.015.46.126.58.238.436.83 1.034 2.036 2.11M327.378 567.899l1.39 2.662M328.769 570.56l.803-.239M313.745 574.947l1.338-.306 13.686-4.08M370.976 344.31l-5.084 3.696M370.976 344.31l-.702-.835M375.83 343.396l-3.092 2.216-.357.171-.298.038-.267-.137-.234-.29-.606-1.084M370.274 343.475l2.047-1.783M368.858 343.662l.798-.044.618-.143M375.83 343.396l-.721-3.77M377.027 346.117l-.461-.893-.305-.614-.216-.497-.215-.717M358.714 343.71l3.35.02M358.714 343.71l.056-6.021M358.666 336.21l.104 1.479M372.064 336.372l.257 5.32M372.064 336.372l-3.236.011M373.496 332.766l-.465.378-.342.407-.102.47-.24 1.222-.283 1.129M372.321 341.692l2.788-2.066M368.828 336.383l.03 7.28M368.828 336.383l-3.435.01M368.858 343.662l-3.428.028M365.393 336.394l.037 7.296M362.004 336.946l2.077-.423.584-.092.446-.034.282-.003M362.004 336.946l.06 6.785M362.004 336.946l-3.234.743M345.793 555.484l.088.105.085.07.223.089.182.027.409.014M345.793 555.484l.331-.519.139-.33.014-.353M345.793 555.484l-.188.029M345.605 555.513l-.365-.027M345.137 556.906l.372-.947.096-.446M346.165 553.944l.042-1.553-.126-2.373M346.165 553.944l-.167-.23-.227-.183-.27-.124M346.165 553.944l.112.338" clip-path="url(#p84409948a7)" style="fill:none;stroke:#000"/><path d="m346.78 555.789-.186-.563-.317-.944M344.443 555.295l.426.92.268.691M344.443 555.295l.246.122.27.065.28.004M344.443 555.295l-.273-.247M344.025 554.039l-.076.345.05.349.171.315M344.025 554.039l.194-.305M345.501 553.407l-.347-.059-.35.039-.321.132-.264.215M344.22 553.734l1.861-3.716M345.501 553.407l-.261 2.079M346.081 550.018l-.377 1.82-.203 1.569M345.24 555.486l-.103 1.42" clip-path="url(#p84409948a7)" style="fill:none;stroke:#000"/><path d="m373.298 568.438-3.958.708-2.326.525-.29.041-.253-.103-.126-.238-1.45-5.303-.11-.327-.194-.225-.432-.184-.646-.089-2.43-.416-2.618-.613-6.437-1.316-3.501-.852-.372-.164-.245-.184-.134-.293-.46-1.915-.536-1.701M444.05 333.628l-.538-.18M444.05 333.628l.313-.807.279-.58.279-.549M444.05 333.628l.689.253M444.928 334.73l-.07-.423-.12-.426M449.514 337.29l-1.196-1.155-.855-.706-1.327-.863-1.397-.685M444.493 335.562l1.22.327 1.107.3 1.152.436 2.379 1.303M444.493 335.562l.301-.178.134-.368v-.286" clip-path="url(#p84409948a7)" style="fill:none;stroke:#000"/><path d="m441.122 334.795 1.423.18.759.191 1.19.396M433.249 339.295l.808-.685 1.702-1.61 1.68-1.323 1.063-.518.922-.272.988-.069.71-.023M441.802 333.168l-1.152.123-.714.157-1.077.375-.577.26-.501.306-.7.689" clip-path="url(#p84409948a7)" style="fill:none;stroke:#000"/><path d="m443.512 333.448-.61-.157-1.1-.123M450.35 337.928l-.836-.638M444.408 331.47l-.286.665-.313.713-.297.6M437.082 335.078l-1.59 1.357-2.052 1.623-.69.532M432.75 338.59l-.844.573M432.75 338.59l-.597-.248M433.249 339.295l-.075-.202-.176-.273-.249-.23M432.334 339.884l.582-.307.333-.282M431.906 339.163l.06.215.126.235.132.152.11.119M421.79 347.305l.983-.97 1.368-1.077 2.75-1.875 2.742-1.848 1.443-.989 1.258-.662M431.906 339.163l-.503.45-7.716 5.181-2.511 1.794M431.906 339.163l-.145-.329M395.32 379.695l-3.441-2.262M386.797 145.433l-.86-1.647M386.797 145.433l.234-.199.155-.255.06-.287M388.043 148.36l-.49-1.249-.38-.897-.376-.781M385.56 145.342l.28.167.322.074.331-.026.304-.124M385.937 143.786l-.311.15-.236.239-.132.299-.01.322M386.843 143.925l-.28-.134-.313-.049-.313.044M387.246 144.692l-.042-.293" clip-path="url(#p84409948a7)" style="fill:none;stroke:#000"/><path d="m388.043 148.36.015-.338-.007-.348-.026-.293-.038-.263-.07-.348-.128-.52-.134-.47-.15-.435-.26-.653M387.204 144.4l-.14-.266-.221-.209M385.247 144.796l.105.298.208.248" clip-path="url(#p84409948a7)" style="fill:none;stroke:#000"/><path d="m385.56 145.342.264.392.14.17.302.365.454.525.546.634.777.931M385.89 203.196l.184-2.664.163-2.67.32-5.034.397-5.312.253-3.545.62-8.807.48-6.705.506-7.429.256-3.504.075-1.456.018-1-.03-1.07-.069-.766-.059-.53-.128-.848-.115-.586-.294-1.308-.424-1.603M260.834 372.424l2.345-1.166M263.18 371.258l2.411-1.282M265.591 369.976l2.372-1.193M444.408 331.47l.513.222M449.514 337.29l-.828-.63-1.018-.648-.863-.444-1.877-.838M451.637 333.966l-.498 1.596-.063.497.107.369.365.389.468.327 1.36.845.647.266 1.844.484.958.382 3.383 1.65.55.362.416.361M444.92 331.692l.473.12 3.345.94 1.055.416 1.844.798" clip-path="url(#p84409948a7)" style="fill:none;stroke:#000"/><path d="m477.134 344.699-1.74.375-1.62.41-1.338.088-1.07-.123-1.398-.566-1.056-.791-.498-.593-.69-1.14-1.844-2.263-.692-.627-2.43-1.439-3.346-1.63-2.014-.934-1.22-.402-4.541-1.098M406.969 343.88l-4.862 4.617M406.969 343.88l2.46 2.196M406.969 343.88l-2.382-2.024M402.107 348.497l2.468 2.264M404.587 341.856l-2.138 1.889-.565.593-.416.709-.3 1.411-.09.47.033.448.134.374.862.747M409.43 346.076l-4.855 4.685M404.587 341.856l-.68-.6M404.955 337.096l4.861 4.262 5.928 4.896M418.469 333.613l3.025 2.61 2.69 2.2M418.469 333.613l-.722-.622-4.876-4.2M417.428 411.05l6.251 3.995.647.484.602.655M415.666 413.201l5.018 3.358.676.266h.573l.698-.096 2.297-.545M428.862 414.717l-.476.229-.365.188-.632.382-.966.388-1.495.28M417.428 411.05l1.07-1.514M417.428 411.05l-1.762 2.151M415.666 413.201l-2.765-1.715M415.733 407.797l-2.832 3.69M415.733 407.797l2.766 1.74M415.733 407.797l-1.647-1.084M412.9 411.486l-2.772-1.623M412.9 406.059l-2.772 3.804M412.9 406.059l1.186.654M412.9 406.059l-2.735-1.684M410.128 409.863l-2.824-1.78M407.304 408.084l.765-1.152M407.304 408.084l-1.011 1.534M418.499 409.536l.407-.26.421-.118.283.003.371.143.61.327 6.463 4.19.87.59.406.174.532.132M438.338 418.7l-5.04-2.397-.736-.365-.367-.2-.272-.277-.167-.303-.167-.31-.212-.209-.256-.177-.417-.085-.52.02-.684.089-.638.231M396.168 397.243l-1.364-.256M395.21 407.27l.096-1.361.483-4.589.38-4.077" clip-path="url(#p84409948a7)" style="fill:none;stroke:#000"/><path d="m398.294 396.834-.164.19-.226.168-.483.105-1.253-.054M394.804 396.987l-5.378-.5M395.58 390.86l-.311 2.251-.465 3.876M400.298 409.28l-.398-.497-.576-1.071-.777-1.633-.387-.74-.144-.368-.086-.474-.052-.64.134-2.141.17-2.748.1-1.364.012-.77M410.165 404.375l-2.096 2.557M410.165 404.375l-4.05-2.769M403.639 415.952l.364-1.105M405.081 412.331l-.528 1.378-.55 1.138M400.411 412.98l.418.224 3.174 1.643M405.081 412.331l1.212-2.713M405.081 412.331l-3.427-1.943M406.293 409.618l-3.873-2.44M408.07 406.932l-3.948-2.598M411.318 399.547l2.865 1.643M414.183 401.19l2.635 1.617M416.818 402.807l-2.732 3.906M408.386 397.84l-.205.848-.253.614-1.115 1.507-.698.797M400.298 409.28l.61-.76.464-.576.133-.239.052-.242.105-.531.245-.328.877-.839.498-.579.156-.222.026-.146-.09-.293-.051-.314.07-.208.227-.194.32-.072.286.004.167-.045.153-.136.472-.638.929-1.125.168-.191M395.21 407.27l-.217.798M398.145 411.759l.052-1.091.135-2.196-.038-.477-.208-.239-.424-.21-2.453-.275M398.145 411.759l2.266 1.22" clip-path="url(#p84409948a7)" style="fill:none;stroke:#000"/><path d="m394.993 408.068-.078 1.103.045.484.16.365.46.355 2.565 1.384M394.993 408.068l-6.846-.434M231.613 358.173l4.23.273M231.613 358.173l9.577-10.633M212.04 355.01l2.156 1.73 1.308.955 1.308.6 1.22.45 2.542.396 1.665.41.952.19.743-.11.49-.23.907-1.12.788-.613.61-.218.833-.04 1.456.177 2.595.586M366.876 356.011l-.472-.514M366.876 356.011l.715-.548M365.952 355.005l-.09.062M365.952 355.005l.452.492M367.591 355.463l-.36-.096h-.259l-.293.031-.275.099M369.697 355.99l-.476-.951M372.641 353.154l-.323.29-.77.846-.803.835-1.048.866M369.221 355.039l2.298-1.82.68-.512M367.284 356.543l1.198-.91.74-.594M367.802 357.518l-.518-.975M377.655 346.605l-.628-.488M375.109 339.626l-1.613-6.86M368.36 291.023l-5.672 3.287-.39.296-.205.276-.03.396.138.651.248.682.172.88.453 3.177.216.642.334.531.655.546.936.546M373.496 332.766l-.58-2.578-1.308-5.986-.506-2.62-.178-1.772-.297-2.4-.484-2.721-.2-.825-.35-.941-.446-1.194-.386-1.077-.587-2.25-.283-.778-.43-.907-.558-1.118-1.688-2.666M369.593 297.436l-.68-.2-.282-.018-.2.082-.213.259-.877 1.555-2.126 3.819M369.593 297.436l1.62.6.21.041.177-.047.179-.215 1.085-2.009M369.593 297.436l2.487-4.946M366.27 453.546l-.312-.45M365.958 453.096l-.572.266-5.404 3.204M359.982 456.566l-1.695-2.188M359.982 456.566 357 458.448l-.966.484M327.007 370.16l3.784-.085M352.712 362.087l-.075.115M352.637 362.202l-.828 1.165M348.497 361.735l.38-.512M351.81 363.367l-.88 1.238M476.777 143.926l-.387 1.54M485.318 149.88l-5.845-4.03-1.34-.944-1.356-.98M457.682 196.277l-2.009 4.79-1.776 4.4M429.401 214.65l7.793-2.827 7.381-2.674 4.713-1.719 1.962-.733 1.428-.627 1.219-.604" clip-path="url(#p84409948a7)" style="fill:none;stroke:#000"/><path d="m573.682 203.482-.249.078-.723.245-2.548 1.252-5.662 2.247-3.076 1.1-.721.387-1.425.912-.273.153-.367.06-.267-.078-.32-.221-.963-1.217-.245-.366-.13-.33-.111-.928-.104-1.402-.053-1.2.041-1.536-.133-.287-.287-.189-.4-.065-.521.044-1.234.212-2.9.464-2.378.361-2.68.433-2.893.454-.692.196-.782.482-.75.58-1.066 1.054-.916.919-.669.52-.754.41-.738.096-.742-.052-1.9-.281-4.228-.528-1.465-.232-.955-.303-4.4-2.473-1.09-.453-1.234-.208-1.012.061-.881.22-.809.377-2.018 1.285-2 1.3-.505.18-.71.082-.743-.1-2.511-.937-1.946-.67-2.505-.553-2.862-.457-2.813-.11-1.784.083-1.799.18-.8.143-1.018.192-1.234.146-.624.16-.803.218-1.4.386-.674.16-.843.18-.837.157-.674.082-.848.048-.845.031-2.673-.01-2.408-.028-2.108-.098-.97-.017-1.256.03-1.267.041-.383-.003-.374-.033-.403-.056-2.334-.46-2.078-.442-.598-.114-.548-.072-.758-.087-.731-.07-.632-.06-1.618-.163-.738-.063-.751-.034-.714-.027-1.014.006-1.598.062-.93.068-1.077.106-3.323.354M393.593 304.052l-.064-.471-.305-2.98-.371-4.222-.223-1.418-.357-1.664-.669-2.564-2.699-8.088-.669-2.168-.275-1.487.015-1.602.208-1.5.588-1.89.9-2.516.26-.825.234-.938.132-.721.072-.431.037-.325.026-.492.004-.83-.033-.713-.082-.74-.112-.696-.143-.666-1.035-4.83-.647-2.782-.554-2.513-1.275-5.378-.698-3.11-.327-1.67-.238-1.317-.264-1.647-.301-2.046-.138-1.18-.16-1.496-.096-1.122-.115-1.658-.06-1.68-.007-.9" clip-path="url(#p84409948a7)" style="fill:none;stroke:#000"/><path d="m385.89 203.196-.062.886-.323 4.842-.312 3.88-.22 3.029-.357 5.012-.312 4.478-.082 1.306-.06 1.63-.01 2.518" clip-path="url(#p84409948a7)" style="fill:none;stroke:#000"/><path d="m429.401 214.65-4.517 1.585-4.252 1.528-4.479 1.674-2.185.815-.818.29-.658.215-.624.194-.707.208-.568.188-.844.282-.925.321-4.345 1.541-7.196 2.551-13.131 4.735M245.826 460.043l.401 2.312M235.58 463.282l7.978-2.543 2.268-.696M583.192 393.179l.274-.672.346-.654.981-2.083.38-1.05.174-1.125-.015-1.119-.657-8.826-.231-6.222.078-3.18.212-3.083.111-2.212.022-1.453-.563-2.376M624.966 564.855l.05 1.656.509 1.749-.434 2.042.776 2.537.571 3.05-1.827 9.611-.178.7-.28.303-.56.28-.636.304-.458.256-.28.28v.233l.22.325M489.808 300.825l3.341-.985 2.833-1.067.158-.128.063-.17.007-.154-.033-.141-1.415-2.094-1.252-1.943M473.856 286.437l2.371 2.032 2.178 1.95 3.88 3.608 3.286 2.932 4.237 3.866M489.451 318.644l-2.32-2.094-2.065-1.813-3.39-3.042-7.426-6.43-3.747-3.267-3.546-3.157M501.337 299.448l-2.094-3.103-3.507-5.26-1.929-3.011-1.132-1.622-.288-.384-.044-.14-.01-.156.029-.196.291-.593M501.337 299.448l-.323.11M435.707 229.357l-.07.385-.37 2.117-.092.637-.074.629-.04.583.04 2.196-.009.325-.02.21-.034.148-.069.162-.11.189-.52.83-.089.177-.048.119-.022.114.004.103.03.103.086.144.12.135.21.18.269.17 3.495 1.862 5.78 2.853 3.393 1.706.28.154.34.211.31.273.208.293.193.46 2.707 8.402.07.249.036.21.019.216-.005.125-.02.104-.029.097-.07.15-.14.186-1.087 1.067-.568.543-.115.114-.073.099-.065.119-.026.115-.014.127.01.115.037.13.047.102.08.099.167.144 3.767 2.754 7.593 5.687 2.297 1.753 1.62 1.206 2.082 1.487M436.527 226.717l.001.081-.018.087-.803 2.472M436.527 226.717l-.022-.092-.058-.118-.51-.88-3.133-5.296-3.403-5.682M599.597 212.089l1.96-1.547 2.809-2.177 2.984-2.278M592.336 190.972l.312-.125.359.069 9.143 6.796.554.532.558.702 1.275 2.561 1.827 3.068.986 1.512M256.871 121.554l.61-.403.602-.334.81-.437.528-.21.788-.205.981-.185.365-.054.297-.082.275-.143.506-.41.736-.504M273.248 144.288l-2.676 2.462-2.23 2.278-3.345 3.683-3.613 4.14-.714.757-.765.532-.58.31-.974.488-1.145.529-.51.15-.634.02-.595-.092-.692-.184-1.01-.362-1.346-.695-4.765-3.097-3.181-2.036-.759-.412-.877-.573-.572-.614-.327-.525-.632-1.35-.513-1.201-.386-.648-.439-.43-.64-.341-.69-.184-.506.048-2.973 1.05-10.452 3.615-5.025 1.787-4.267 1.391-2.527.655-2.112.587-1.367.396-7.85 2.987-6.244 2.55-6.007 2.51M288.63 138.41l.488.687.298.375.297.266.297.13.402.143.394.061M288.63 138.41l.674-1.339" clip-path="url(#p84409948a7)" style="fill:none;stroke:#000"/><path d="m292.404 194.41.082-.354.052-.723-.045-1.548-.156-5.408-.505-6.575-.183-5.43-.457-7.093-.342-3.403-.46-3.54-.915-6.69-.476-3.725-.602-5.081-.178-1.534-.208-1.399-.09-.77.03-.649.067-.607.119-.426.275-.61.219-.435M295.72 128.71l-1.398.292-1.561.225-1.234.123-1.45.082-1.464.061-.54-.006-.56-.028-.513-.075-.595-.136M273.248 144.288l-.417-.144-.475-.266-.55-.457-.417-.41-.46-.463-.26-.41-.276-.654-.431-1.064-.468-1.098-.417-.935-.416-1.35-.49-1.528-.417-1.228-.572-1.67-.178-.567-.127-.225-.178-.17-.26-.041-.877.15-3.278.661-.425-.006-.312-.13-.23-.198-.245-.443-.595-1.616-.313-.615-.282-.436-.297-.416-.178-.341-.186-.525-.424-1.303-.952-2.66-.334-.778-.357-.764-.283-.634" clip-path="url(#p84409948a7)" style="fill:none;stroke:#000"/><path d="m289.304 137.071-1.398.177-1.367.294-1.167.422-1.383.71-1.62.737-2.074 1.186-2.29 1.405-2.096 1.324-1.063.64-.602.26-.439.102-.557-.04M292.62 195.838v.926l.044.62.1.57.167.767.127.73.06.389.2 1.145M292.404 194.41l.171.362.067.444-.023.622M289.304 137.071l.572-1.166.305-.518.573-.744 1.152-1.276 2.542-2.932.896-1.146.375-.58M445.334 220.382l-1.484-1.231-.095-.063-.082-.027-.09.006-.104.035-.092.047-2.038 1.08-.348.18-.31.177-.197.142-.199.19-.474.555-.554.716-.408.562-.298.481-1.323 2.312-.711 1.173M476.39 145.467l-.884 3.52-.41 1.776-.11.645-.086.655-.07.61-.503 4.83-.107 1.05-.041.695-.264 4.61-.223 3.682-.016.259-.023.16-.03.149-.047.148-.095.212-.138.229-.29.472M457.682 196.277l.943-2.248 1.501-3.376 1.178-2.227.41-.706.467-.754.435-.637.9-1.378.9-1.357.95-1.535.893-1.445 1.583-2.701 2.379-4.031 2.832-4.713" clip-path="url(#p84409948a7)" style="fill:none;stroke:#000"/><path d="m463.505 165.026.996.405.334.137.309.15 1.226.673.292.147.825.358.511.218.623.271.752.271.198.082.213.095.217.107.448.225.247.114.268.104.331.12 1.758.666M453.837 188.825l1.026-5.04 1.167-5.49.104-.57.078-.614.054-.5.017-.373-.01-.396-.048-.337-.058-.298-.052-.422-.029-.484-.108-3.12M453.837 188.825l-3.308-6.357-4.571-8.71-2.74-5.295-.345-.597-.275-.402-.229-.263-.394-.377-.522-.458M453.837 188.825l3.845 7.452M476.39 145.467l-6.02-2.148-9.363-3.356-7.92-3.038-3.412-1.307M383.68 202.98l-.23.328-.14.182-.164.182-.258.246-1.539 1.323-1.181.996-1.431 1.173-4.096 3.178M383.68 202.98l-.49-.521-.376-.341-.543-.433-1.78-1.239-1.554-.988-4.289-2.558-7.976-4.563-1.111-.59-1.123-.573-1.07-.535M383.68 202.98l2.21.216M364.59 354.347l1.272.72M350.516 380.506l.022-.208.252-1.264.164-1.24.137-1.007.019-.63M350.516 380.506l-.057 1.123.015.545.082.369.32.626.208.464.096.655v.811l-.089 1.077v.717l.09 1.247v.566l-.075.75.015.64.134 1.085.074.825.023 1.044.052.62.2.961v.478l-.119.948-.096.995.06.961.007.628-.075.627-.066.606.029.492.09.668v.429l-.09 1.234v.942l-.007 1.029.052 1.043.089.716.104.627.052.873.06 1.289-.037 1.165-.045.955-.006.096M330.545 412.25l1.606-.075.587-.11 2.594-.756 2.46-.716 3.413-1.05.61-.055.415.116 2.736 1.262 1.048.518.61.143 1.01.007 2.372-.13 1.6.028M381.946 345.948l.725-1.104M400.411 412.98l.507-.833.097-.368.018-.375-.115-.573-.037-.282.04-.25.135-.245.015-.099-.034-.112-.179-.153-.386-.256-.174-.153M380.736 364.674l.422.482M431.761 338.834l.392-.492M420.486 346.265l.69.323M421.79 347.305l-.086-.28-.17-.19-.183-.128-.175-.119M378.637 355.707l-.487-1.738-.213-1.091-.018-.563M377.469 352.384l.45-.069M372.199 352.707l.442.447M393.593 304.052l1.319-.915.353-.361.108-.263-.048-.378-.257-.77-.141-.532-.12-.82-.237-2.331-.082-.873.074-.382.186-.26.424-.217 1.397-.355M393.593 304.052l.191 1.412M392.766 305.362l1.018.102M387.999 314.941l-.432-.79-.103-.58-.023-.628.372-.982 1.085-2.175 1.412-2.305.387-.613.49-.43.514-.205.453-.136.283-.239.329-.496" clip-path="url(#p84409948a7)" style="fill:none;stroke:#000"/><path d="m382.966 312.984.892-.62.52-.457.707-.819 1.434-1.725 1.636-1.575 2.319-1.885.643-.437.409-.133.513-.045.727.074M394.996 315.22l-.01-.92-.424-3.082-.778-5.754M396.108 315.284l-.036-2.041-.105-1.507-.059-1.023.127-.43.319-.279 1.279-.58 5.017-2.168M396.108 315.284l-1.112-.063M415.206 309.929l-1.896.6-3.271 1.03-4.066 1.398-3.308 1.036-2.765.9-1.606.3-1.873.11-.313-.019M389.576 329.715l2.964-5.302 1.257-2.448.661-1.692.394-1.916.157-1.875-.013-1.261M389.576 329.715l-1.325-.74-.148-.198.015-.225.208-.348 1.211-2.175M387.593 333.259l.398-.711 1.585-2.833M387.593 333.259l-.932-.814-.179-.34-.238-.505-.223-.266-.468-.252-4.207-1.562-.327-.218-.09-.26.276-.776M424.746 354.173l1.431-1.35M443.913 318.985l-1.122 1.473-.825.975-2.156 2.523-1.597 1.902M428.342 316.965l1.802 1.647 1.635 1.48" clip-path="url(#p84409948a7)" style="fill:none;stroke:#000"/><path d="m421.904 328.959 4.46-4.048 5.415-4.82M428.342 316.965l-1.258 1.01-2.104 1.528-1.077.846-.915 1.05-1.717 2.38-1.42 1.848-.223.484-.06.307.064.262.152.242 2.12 2.037M431.098 304.95l-.253 1.099-.096.525-.127.341-.342.634-1.025 1.74-.982 1.752-.676 1.05-.654 1.03-.795 1.118-.179.402.037.358.242.413 1.223.913.871.64M501.014 299.559l-1.007-1.57-1.502-2.22-1.906-2.864-1.714-2.523-1.475-2.332-1.227-1.8-1.316-2.002-.188-.52-.053-.483.14-.398.596-.7M338.194 325.886l3.227-.54 1.315-.272.974-.116 1.278.014 2.023.164 1.088-.024M348.091 360.297l.443.385.343.541M211.288 386.729l1.615-.819 3.225-1.758 2.097-.996 1.308-.873.297-.545.313-.75.43-1.8.402-.846 1.413-1.022 1.694-1.078 1.086-1.159.624-.805.632-.525.661-.303" clip-path="url(#p84409948a7)" style="fill:none;stroke:#000"/><path d="m183.08 385.924 7.195-2.175 6.883-1.93 13.083-3.831 9.411-2.591 5.144-1.507 1.36-.303.93-.137M197.494 314.877l-.217-.181-1.486-.955-3.243-1.719M157.59 280.251l.278.58.125.121.353.128.576.08 2.199.183 1.988.644.833.212 1.133.037 7.82-.395 7.449-.41 5.054-.3.863.068.282.137.238.327.61 2.25.371.71 2.126 2.578 2.78 3.205 1.77 2.359.594.505.625.355 3.642.613.624.11.402.204.193.422-.015.478-3.925 8.456-2.899 6.164-1.131 1.95M137.78 309.84l1.94-.136 1.642-.252 1.19-.437 1.65-1.302 2.676-2.25 5.516-4.828 5.612-5.248.379-.286.439-.058.56.054 1.26.28 2.35.706 8.593 4.674 19.134 10.297 1.827.968M218.091 398.961l-6.095-.068M211.996 398.893l-.759 1.964M213.081 391.911l.505 1.39.134.519v.41l-1.04 2.85-.684 1.813M213.081 391.911l9.365-2.005" clip-path="url(#p84409948a7)" style="fill:none;stroke:#000"/><path d="m211.288 386.729.738 2.073 1.055 3.11M211.288 386.729 206.8 389M199.706 392.593l.931 2.536 1.546 4.704 1.77 5.442M199.706 392.593l-2.12 1.074M199.706 392.593l7.094-3.592M197.586 393.667l1.06 3.535 1.798 5.59M247.513 379.18l-5.65-.142-4.452-.334-.543-.02-.409.122-.424.334-.364.443-.29.812-.988 3.886-.81 3.368-.573 3.716M248.985 386.102l-1.086-5.149-.386-1.772M206.8 389.001l.587 1.996 1.07 3.9M235.843 358.446l-.268 2.7-.179 2.823M243.167 360.518l-.813-.981-.535-.478-.49-.231-.685-.123-4.801-.26M243.167 360.518l-2.515.293M246.791 364.972l-.646-.704-2.186-2.795-.792-.955M246.791 364.972l1.986-1.624 1.735-1.306.175-.071.182-.01.194.054 2.449 1.545M251.423 356.502l.684-.027.46-.055.313-.136.38-.246.482-.524.506-.56.223-.102.17-.02.224.061 1.524 1.145 1.702 1.324 1.353.708 1.07.662 1.465 1.112 1.523 1.329 2.16 2.188M278.121 361.414l-2.643-3.35-3.955-4.828-3.182-3.423-.884-.75-6.007-5.598M295.124 330.084l-.356.227-.402.334-.43.498-.622.955-1.078 1.565-.367.385-.327.095-.26-.034-.18-.109-.192-.286-.36-.791-.306-.372-.345-.225-.439-.26M281.848 327.686l.744 1.37.632 1.064.512.914.662 1.214.602.886.595.362.639.197.52.028.58-.198 1.033-.62 1.093-.836" clip-path="url(#p84409948a7)" style="fill:none;stroke:#000"/><path d="m294.297 328.784-3.432 2.23-1.405 1.053M295.124 330.084l-.827-1.3M190.439 330.277l-.915 2.243-1.806 4.76-2.215 5.837-3.182 8.128M204.934 322.612l-.298-.293-3.122-3.259-3.39-3.655-.63-.528M190.439 330.277l1.203-3.464 2.067-5.503 1.264-2.973.773-1.405 1.026-1.363.722-.692M204.934 322.612l-.38 1.433-.542 1.813-.498 1.384-.38 1.72-.638 2.87-.134.116-.149.014-.952-.382-.876-.26-.67-.15-2.363-.122-6.913-.77M258.963 312.099l-30.123 6.906-10.942 2.769-9.352 2.086h-1.04l-.729-.122-.787-.41-1.056-.716M293.751 327.835l.303.567.243.382M293.751 327.835l-.507.124-.505-.028-.491-.082-.372-.238-.662-.545-.453-.369-.23-.416-.224-.73M259.288 311.163l-.759-7.487-.713-11.525-.268-8.06-.594-17.73M259.288 311.163l-.325.936M620.422 124.984l-1.085-.163-1.576-.314-2.572-.593-3.806-.9-1.07-.144M436.718 462.775l.542.03 3.613.313 2.2.464 1.175.477M454.625 474.436l-4.638-4.228-1.992-1.963-1.651-2.154-.803-1.036-1.293-.996" clip-path="url(#p84409948a7)" style="fill:none;stroke:#000"/><path d="m435.15 479.562 1.516-2.536.476-1.2.163-.927.335-2.032.156-.517.29-.41.431-.456.49-.539 2.535-3.15 1.903-2.522.803-1.214M240.85 481.446l.066.17 1.051 2.691 1.376 3.266.223.314.43.382.373.184 4.816 2.236 11.88 5.767M343.326 555.081l-.709-.284-4.237-.443-4.891-.512-1.301-.068-1.59-.06-1.465-.246-3.033-.498-4.891-.573-7.917-1.24-2.022-.314-1.078-.382-1.36-.879-.885-1.016-1.353-1.895-7.99-9.687-1.398-1.336-1.182-.907-.96-.913-.549-.852-.223-.873-.163-1.118-.253-1.642-.179-.928-.357-.859-1.761-2.945-2.082-2.842-.758-1.146-.454-1.002-1.3-3.395-.803-1.772-1.167-1.78-1.732-2.01-4.073-4.064-2.513-2.332-1.77-1.117-3.449-1.855-7.537-3.367-2.877-1.473M279.507 471.606l-.536.307-.921.327-1.368.26-2.565.347-1.211.327-1.093.607-.951.695-1.822 1.76-3.092 2.726-.372.546-.245.777-.141.71-.394 2.208-.29 1.37-.149 1.95v1.193l.26 1.711.112 1.432.09.94v.369l-.157.436-.357.512-3.24 3.34M243.411 470.944l.103-.217 1.397-3.11 1.07-3.047.224-.81.074-.696-.052-.71" clip-path="url(#p84409948a7)" style="fill:none;stroke:#000"/><path d="m251.482 473.106.067-.19-.044-.226-.09-.375-1.3-3.313-.96-2.366-.349-.661-.297-.382-.617-.361-.23-.245-.134-.192-.483-1.22-.275-.545-.543-.675M235.58 463.282l-4.324 1.377-1.494.436-1.546.246-1.435-.082-.516-.078M216.436 463.027l8.546 1.96 1.283.194M229.813 485.032l-.149-1.09-.298-3.028-.386-3.272-.298-1.773-.594-2.59-1.823-8.098M235.58 463.282l-.69-2.795-1.337-5.85-2.52-11.877-2.253-10.097-1.412-6.293M350.552 517.952l4.003.47 3.836.463 6.794.839.491.17.297.266.052.422-.015.661-.572 3.587M350.552 517.952l-2.606 18.757M353.274 498.456l-.354 2.445-2.368 17.05M347.946 536.709l5.554.664 6.831.75 2.111.375.238.02.186-.061.178-.15.647-.913M346.081 550.018l.773-5.447 1.092-7.862M354.66 488.215l2.467 2.01 13.975 9.885 6.966 5.004 1.605.859 1.45.539 4.943 1.104 3.62 1.036 1.895.832 1.376.805.84.79.661 1.002 2.706 4.882 1.45 2.222.921 1.316.878.715 1.04.928.58.654.424.763.409 1.125 1.152 4.35.468 1.601.647 1.33 2.535 3.988.535.968.468 1.33 1.398 5.487.988 2.236.706 1.03.878.865 3.174 2.918 3.412 3.149 1.368 1.459 1.85 2.529.937 1.329.149.525-.082.688-.29.532-.736.546-5.248 3.285-1.1.532-.832.136-1.235-.013-1.412-.273-1.397-.327M353.274 498.456l.97-6.677.416-3.564M358.148 600.849l1.083-.326.981-.443.707-.15.624.034.699.136 2.007.886 3.025 1.112 4.036 1.042.528-.006.402-.157.305-.327.4-.723 1.629-2.502.535-.967.357-1.077.297-1.2.06-.805.23-1.206.862-1.813 2.17-2.352.164-.457v-.633l-.572-1.541-.357-1.09M145.421 554.674l7.166-1.459 9.961-2.031 5.582-1.104 4.223-.723 1.397-.368.424-.204.208-.273.06-.355-.023-.327-1.107-7.049-.952-6.694-.892-5.59-.624-4.117-.52-4.54-.194-1.855" clip-path="url(#p84409948a7)" style="fill:none;stroke:#000"/><path d="m128.99 499.63 1.854 2.69 2.825 4.574 1.197 2.112.357.812.155.948.127 1.418.126 4.847.037 1.922.15 1.473.624 2.563.802 2.85.751 2.556.736 3.565.595 3.163.698 3.58.789 3.196.824 2.639 1.68 4.676 2.104 5.46M208.857 478.803l-.845 3.05-2.216 7.779-.409 2.052-.111.866.015.688.23.893.439 1.5.379.675.624.716.624.634.752.723.282.095.275-.027.23-.095.952-.669M216.436 463.027l-16.756-3.841M208.857 478.803l.463-1.259.832-2.154 1.056-2.468 1.947-3.709 3.281-6.186M280.241 478.542l-2.296-2.424-.03-.117.046-.113 1.105-1.01.205-.226.206-.293.21-.444.101-.309.068-.275.06-.47-.03-.327-.092-.289-.287-.639M310.98 453.795l-1.263.235-1.91.382-1.458.368-1.412.71-.848.634-.721.681-.29.43-.118.525.052.49.319.437 2.349 2.543.193.218.09.273-.038.198-.237.265-2.81 2.843-7.969 7.963M331.215 455.646l-.231.109-1.45.245-1.412.042-2-.267-7.634-1.629-1.895-.3-1.48-.089-4.133.038M190.786 457.147l1.66-3.28 1.873-4.002 1.286-2.407.81-1.507 1.45-2.209 2.289-3.272 1.673-2.318 1.798-2.516.9-1.63.595-.988.118-.423-.037-.6-.089-.75-1.115-3.225M190.786 457.147l8.894 2.039M190.786 457.147l-.275-.063M454.625 474.436l2.513-2.427 3.122-2.81 4.534-3.954 3.494-3.326 5.56-4.841 4.445-3.914M462.566 481.552l-2.975-2.59-4.966-4.526M462.566 481.552l4.235-3.571 5.56-4.472 6.706-5.264 1.732-1.329.735-.702.335-.485.476-.661.951-1.138 1.115-1.234.61-.634 1.762-1.384.996-.914 2.415-2.693.12-.273-.023-.3-.312-1.268M481.861 507.718l-.683 2.7-1.517 4.622-.996 2.454-2.379 5.809-.401 1.118-.022.374.126.32.216.144.379.143.996.164M353.274 498.456l-2.48-.473-4.847-1.131-1.724-.368-.877-.082-.863.163-2.646 1.105-3.033 1.09-1.769.34-1.056.137-1.026-.15-1.471-.559-.848-.176-.773.122-1.947.723-1.502.381-1.784.014-3.702-.545-1.844-.49" clip-path="url(#p84409948a7)" style="fill:none;stroke:#000"/><path d="m190.511 457.084 1.176-2.392.922-1.828 1.561-3.286 1.145-2.284.112-.272-.015-.287-.142-.327-1.434-1.814-2.75-3.28-1.985-1.853-.707-.696-.817-.934-.558-.954-.156-.887-.067-1.009-.17-.695-.41-.9-.765-1.016-1.39-1.711-.714-.69M292.225 453.644l-.401-.309-.535-.314-.684-.211-.513-.142M290.092 452.668l-.788-.22-.52-.36-.312-.519-.447-1.173-1.233-2.877-.632-1.54-.157-.464v-.382l.238-.28.44-.075.341.137.305.45.364.94 1.814 4.712.587 1.65" clip-path="url(#p84409948a7)" style="fill:none;stroke:#000"/><path d="m290.092 452.668-.587-1.651-1.814-4.711-.364-.941-.305-.45-.342-.137-.439.075-.238.28v.382l.157.464.632 1.54 1.233 2.877.447 1.173.312.518.52.362.788.219M429.232 462.344l-.639 2.288-1.13 3.231-1.01 2.878M436.718 462.775l-5.404-.298-2.082-.133M199.68 459.186l-1.302 3.564-1.606 4.425-.275 1.418-.38 2.823-.638 3.865-.209 1.053.015.208.149.225.305.102 1.553.321 7.612 1.094 3.953.52M588.217 187.369l.642.552 1.619 1.153.448.406 1.41 1.492M573.682 203.482l.573-.106 2.58-.341 5.137-.344 1.466-.139.595-.129.606-.266.468-.361.649-.637.606-.779.832-1.482 2.074-2.988 1.851-2.952.981-1.702.236-.284M605.181 232.412l-.076-.146-.412-.826-.54-1.183-.709-1.17-1.226-1.408-.365-.607-.126-.402-.075-.552v-.512l.075-1.405.022-2.292.045-1.39.215-1.91-.052-.56-.14-.484-.975-1.732-.72-1.634-.227-.78-.298-1.33M573.682 203.482l-.526-.69-.695-.838-1.554-1.766-3.24-3.95-3.606-4.173-2.72-3.07-1.461-1.571-.46-.56-.03-.3.068-.215.225-.186.333-.088.982.042 1.96.353.576.063 1.434.082 3.576.038.854-.045 1.026-.218 1.666-.327 1.196-.136 2.921-.116 3.39-.052 3.405.215 3.29.191.616.157.402.266.907.78M605.181 232.412l-.749 1.234-1.583 2.285-.925 1.265-1.535 2.145-.29.205-.446.054-.93-.228-.546-.164M492.876 361.3l7.652-11.685M436.718 462.775l-.654-2.036-.12-1.193-.014-1.002.238-1.077.364-.955.558-.948 1.1-.927 1.367-.709 2.223-.79.848-.267.314-.273.102-.354-.045-.45-.186-.58-.475-1.029-.8-1.254-.62-1.044-.35-.708-.207-.744v-.927l.185-.688.372-.764.594-.798 1.785-1.875 1.695-1.442 1.07-.699 1.063-.484.713-.177.87.089 1.346.34 3.598 1.193.765.15.676.028.67-.157 3.137-1.418 1.59-.627 2.149-.696.907-.36.713-.492.84-.75 2.11-2.4 1.874-2.359.35-.613.416-1.112.435-1.17 1.193-2.9 1.16-2.898.32-1.128.445-2.867.179-1.31.327-2.12.267-2.08.328-4.526.58-7.037.531-6.522.494-6.324.305-3.689.245-3.21.106-1.054.213-.703.276-.552.669-.979.78-.865 1.606-1.548 2.3-2.288.815-.801 2.668-2.816 2.49-2.686 1.74-1.712.498-.62 1.241-2.258.688-1.295.128-.14M128.99 499.63l5.162-.372 5.493-.3 2.914-.211 2.535-.273 1.435-.198 1.427-.157 1.011-.02 1.88.102 2.037.11M240.01 477.238l-.109.204-.096.389.059.64.29 1.193.695 1.782M229.813 485.032l.98.136 10.056-3.722M229.813 485.032l-4.4 1.664M414.745 337.183l3.724-3.57M240.01 477.238l-5.78 1.024M243.411 470.944l-1.117 2.367-1.018 2.025-1.144 1.677-.121.225M243.411 470.944l-5.31 1.637M151.213 437.492l-5.486.038-1.652.3-1.119.17M590.273 596.156l.075-.602-.058-.4-.14-.344-1.383-1.09M592.6 604.1l-6.814 1.637M592.6 604.1l-3.815-3.272M593.043 599.384l3.059 2.601.042.205-.063.22-.188.183-.372.334-2.92 1.173M588.995 608.613l.901-.033 5.264-1.801.133-.111.048-.154-.051-.143-.111-.122-2.578-2.149M590.273 596.156l.149.825.196.358 2.425 2.045M588.785 600.828l3.33-.992.928-.452M588.785 600.828l-1.935.578-.45-.083M576.845 599.736l1.352.199.92-.067 11.156-3.712" clip-path="url(#p84409948a7)" style="fill:none;stroke:#000"/></g><g id="PatchCollection_1"><path d="m629.35 384.134 4.816-4.135 4.44-2.193 2.732-.25 2.767 2.16 1.264 1.912.683.438.649-.375-.888-6.172.956-2.757 2.152-3.384-.512-.814-11.613.751-.852.675-.104 2.207-1.165 2.185-3.572 3.87-3.701 4.18-.829.427.078.83.259.594 1.475-.38zM621.733 388.295l2.278-.308 1.035-1.235-.181-1.757-1.01-.783-1.035.45-2.537 2.636.078.546zM366.73 443.596l-.703 1.358-.537 1.454.045.872.088 1.169.152.45.758 1.185 1.057.829 1.385-.016 1.534-.695 4.15-2.629 1-.655 1.247-.843 1.588-1.218.692-.224 1.334-.699.665-.549.404-.35.917-.718.377-.15.717-.356.695-.309.651-.434.381-.27.3-.188.45-.122.847-.44.883-.61.092-.628-.159-.674-.184-.44-.359-.275-.206-.496-.699-.285-.502.13-1.339.809-1.187.443-2.244.811-1.502.23-1.131.12-.984.077-1.915.109-.87.214-1.238.21-.843-.055-.699.353-.646.143-.966.534-2.464 1.8zM390.885 434.376l1.295-1.994 1.242-2.184.932-2.517 1.294-3.229 3.52.76-.517 3.039-1.036 2.232-3.83 3.039-2.382 1.472zM608.544 340.15l2.408-1.992.862 2.073.119.873-.446 1.036-.684.437-.714-.055-1.01-.163-.863-.437.208-.655zM626.645 560.61l.484-.607.407-.233.636-.047.56.443.28.397v.63l-.28.583-1.196 1.143-.509.187-.636.28-.483.07-.61-.304-.687-.186-.357-.164-.203-.42h.28l.89.023.712.07.534-.093zM621.405 557.134l2.188-.607.178.233v.327l-.153.21-2.11.443-.204-.187zM624.382 556.317l1.195.024.051 1.492-.33.094-.382-.07-.356-.677-.331-.466zM627.637 557.67l.153 1.143.33.374.56.256.687.443.128-1.026-.128-.303-.381-.35-.534-.374zM103.345 416.46l-.352 2.479.457.999 1.931.805.246-.999.597-2.19v-.612zM106.961 421.29l3.126-1.384.737 1.578 1.194 1.417.808 1.32.527.966.14.774-.176.644-.666.096-.141-.773-1.896-2.029-1.545-.483-.808-.45zM115.108 429.536l.527 1.095.843.902.526 1.256.528.74.561.42.457.418.773.322v-.838l.034-.644-.772-.934.035-.773v-.418l-.948-.419-.492-.419-.702-.354zM118.304 443.61l.175-1.223 1.194.386.422.516-.176 1.03-.246 1.03-.316.548-.42.87-.492-.065-.668.065-.456.29-.562-.451.492-1.45zM107.102 417.393l-.28 1.127.105.806.245.837 2.6-.998-.036-.774h-.597l-.246-.998zM285.772 464.443l-3.211 5.155.713.6v.49l-.475 1.036-.149.982.297.737.743.436.477.818 1.665.845 1.338.982.713.709.803.764 1.338.19 1.398-.552.609 2.206 1 .401.762-.417-.022-1.378-2.022-2.032-1.695-2.427-1.22-1.363-.802-3.137-.417-2.072-.505-1.664zM256.068 440.647l.523-.116 1.517 2.831-.253.249-1.047-.116-.795.05h-.667l-.433.032-.271-.115-.181-.365.704-.347.379-.497.289-.629zM245.03 347.057l2.96 2.36-.388.832-.609.682-.684.477-.416-.068-.803-.532-.297-.723-.312-.382zM243.008 351.435l-2.438 2.414.09 1.95.995 1.037.863.381.966.028.655-.437.817-.927.61-1.173.074-.355-2.193-2.795zM177.586 440.586l.123 1.74 1.244-.15-.041-2.132-.836.056-.398.046zM177.321 437.05l.245 2.488.418.141.576-.117.29-.266-.02-2.526-.153-.253-.52-.083-.663.177zM175.853 440.83l.184 1.683.469.121.713-.215-.326-2.02-.55-.056-.398.047zM175.537 436.854l.071 1.188.153.225.887-.094-.04-1.328-.735-.019zM175.618 438.613l.072 1.187.194.131h.846l-.041-1.328-.734-.019zM548.444 335.9l-.914-1.816.33-.86 2.565-.677 1.142-.21.127.327.94.186.685.815.355.979.38 2.63.56 3.983.965 3.866 1.865 3.47-1.23.513-3.657-4.868-1.726-3.75zM559.056 358.444l3.732-.932.153.979.126 1.513.051 2.306.076.977-.025.746-.102.535-.634.187-1.092-1.048-.66-1.118-.431-1.165zM596.68 420.153l-1.345 1.817.228 1.7.762 2.165.686 1.723.228.326.432.28.507.07.483.256.584.21.279-.35.483-.396.964-.163.762.07-.102-.908.584-.443.229-.745-.864-1.001-2.894-3.563-.559-.792zM589.852 413.145l-.23.744-.938.722-.56.606-.507.675.686-.023.457.372.558.21.686.116.635.256.888.7.33.139 1.701.908.406-.047.102-.326-.736-.768-.026-.676-1.142-1-1.574-2.306zM577.603 402.839l-2.334 2.715-.209.83 1.08.383 3.83 1.949.767.32 1.01.223.592-.575.174-.51zM567.19 398.239l4.458.128 1.045 1.437-.035.863-.244 1.085-.244.959-1.288.415-3.866.447-.87-.67-.627-.671.8-1.438zM566.22 388.394l.833 2.038.648 2.07.37 2.31.055.424h.5l.167.271.407.577.037-2.053-.37-3.294-.037-.798.11-.594.149-.56zM561.464 405.59l3.424 2.106-.556.611-.721.459-.685.492-.703.085-.223.679-.37-.034-.315-.9-.37-1.018.37-.799-.277-.475-.425-.05-.538.78-.148-.34zM554.793 414.772l3.241 1.445-.476.737-.684.49-1.754 1.119-.565.654-.743 1.01-.714.626-.624-.381-.178-.382 1.248-2.346zM549.798 421.944l1.814 1.473-.952.982-.951.955-.922 1.173-.952 1.445-1.249 1.963-.564-.109-.297.11.594-3.574 1.977-2.208zM495.757 516.839l-.268 2.154.387 1.309.386.654-.03 1.118.863-.981.535-.846.297-.954.625-.655.772 1.309.625-.736.179-1.527-.15-.382zM530.456 511.073l1.075.116.11.435-.063.797-.19.203-.126.434-.269.203-.331-.145-.253-.39.094-.522-.11-.174-.142-.566zM550.838 501.396l-.622.232.19.746.813.233 1.218.721.584.536.66-.047.66.163.229.49.457-.047.152.326.33.302.889.35 1.396.698.736.21.762.559.634.814.534.722.431.303.559.116 1.421-1.7.508-.675.203-.675-.101-.49-.584.234-.686-.815-.939.21-.863-.745-.28-.676-.837-.512-1.117-.442-1.32-.256-1.168-.14-.812.652-.407.256-.457.023-.38-.465.025-.466-.559-.513-.38-.535-1.042-.35z" clip-path="url(#p84409948a7)" style="fill:#00f;fill-opacity:.8"/></g><g id="PatchCollection_2"><path d="M418.383 416.175v4.172l3.181.273 2.676-.491 2.35-.463 2.586-.464 1.873.055 6.363 3.08 1.06-.084 3.854-3.576 5.092-.552.057-1.63-3.035.008-3.692.069-1.848 2.769-1.432 1.35-5.37-3.105-.067-1.111-.595-.955-.982-.818-1.932.763-1.725.9-3.003.819-2.022.381-1.189-.381zM427.742 352.345l.238.846 3.627 1.936 1.814 1.91 4.728 3.954-1.724.518-1.338.655-1.785.3-1.576.572-.594 1.255-.922.682-.863.682 2.587 6.478-1.1.15-2.498-3.096-1.545-.777-7.88 6.218 4.742 4.773-.153.922-.332.268-.569-.142-.629-.414-4.836-3.62-5.389 6.34-2.185-1.172 4.356-5.264 8.266-10.719-1.457-1.172-1.309-1.173 2.528-2.673.862.409.268 1.064 1.01.873.804-.055.772-.6 1.16-.11 1.19-.926 1.308-.464.951-.9.625-.519 1.13-.19.208-.546-3.39-2.564-1.189.955-1.844 1.855-1.308-.955 1.398-1.364.327-1.445-.893-.982zM400.595 392.874l3.39 2.291-.357 2.318.535 1.091 1.962 1.391.268.41-1.13.845-1.1-1.01-.892-1.09-.387.573.12 2.727-.298.954-.06 1.937-1.278 1.418-.595-1.282-1.249-.355.684 2.183-.98-.628-.655-1.363-.297-1.31.594-1.336 1.07-.873-.505-1.145.03-1.01.654-1.417.803-1.255-.208-1.473.371-.702-1.59-1.357zM331.458 370.272l-3.35 8.87 1.217-.666 1.154-.74 1.31-.275.823.101-.727-3.826h.838l2.576.971-.443.754-1.2.536-.365.087.285 1.203 1.343-.174 1.217-2.13.506-1.378zM550.256 482.375l-2.12 3.816-2.163 3.367-.734 4.488-1.754.711-2.855-.486-.816 1.422 1.795 3.216-.612.562-2.937-.637-1.835-.411-.163-3.217 1.06-2.17.245-2.319 1.305-1.084.857-1.235v-.935l2.692-.075-.408-1.458.204-1.235 1.305-.711.53-1.87.204-1.87-1.958-.113-1.835 1.421-1.958 1.385-.571 2.207-.203 1.458-1.02 2.619-.735 1.646-1.427.86-3.14 2.731 1.835 1.608 1.386 1.758 1.183 1.908 1.06 1.422.817 1.758 2.814-.262 3.263-1.01 1.183.45 1.55-1.722 1.509.786 1.224-1.048 1.835.038 1.713.523 1.1.113 1.633-.337.408-.3-.694-3.59 1.142-1.609.285-.449-1.223-.037-1.02.187-.897 1.72.245 3.18-1.632-1.01-2.57-1.047-.652-1.422-.285-2.693.897-2.58 2.243-1.01 1.754-.15 1.183-.524 1.55-.561.897-.449.163.785-.693 1.085-.285 1.347-1.591.673-1.143 1.16.164.823 1.998.15 1.672-.375.408-.748.653.337 1.224.449-.327-1.721.653-1.496-.204-1.198-1.672-2.28zM578.76 469.82l-1.804 3.52 1.343 3.378 1.995.352.23 1.02.039.915.806.916.23 1.302.806.703.307 1.76-.192 2.042-2.878-1.514-2.38-1.196-1.304-.634.345-2.71-1.266-1.337-.537-1.197-.768-.563-2.072-.739-1.074-.633-3.339 4.329 1.42 1.267.269 1.618.268 1.69 1.305 1.267 1.803 1.126 4.03 2.358 1.995 1.267 3.569 2.147 1.266.633-.422 1.953 2.725-.228 1.803 2.569 2.878.457 3.895 2.059 3.665-.194 2.11-5.771 2.169-5.28-2.975-2.181-10.034-13.269-4.02.511-3.986-3.687z" clip-path="url(#p84409948a7)" style="fill:#006400;fill-opacity:.8"/></g><g id="PatchCollection_3"><path d="M327.857 354.709h-.572l-.213.19-.063.354 1.42 2.441.843 1.71.647 1.583.504.116.38-.177.117-1.289-.115-.924-1.017-1.788zM350.427 346.917l-.489.167-.188 1.643-.112.537.608 2.046.225.518.474.62.63.475.564.248.468-.207-1.833-6.13zM349.723 360.355l-1.828 2.697 2.866 1.635 1.828-2.697zM339.282 350.37l-.25-.137-.238.012-1.937.871-.188.436-.087.689-.05.894.162.413 1.45 2.683 1.513.986.188.035.55-.218 1.65-.837.125-.195-.175-1.64-.188-.493-1.1-1.915-.8-.849zM387.578 383.284l.672.611.511-.533-.731-.516zM377.25 398.695l.505.662.75-.48-.505-.663zM394.766 366.269l2.156 1.432.045.177-2.513 2.755-2.155-1.528.133-.368 1.962-2.373zM378.007 406.934l1.206-.746 2.6 3.58-1.226.81zM394.953 379.698l-1.224 1.54-2.907-1.943 1.223-1.54z" clip-path="url(#p84409948a7)" style="fill:green;fill-opacity:.8"/></g><g id="PatchCollection_4"><path d="m587.56 396.436 2.602-1.038-2.208-4.322-2.638 1.025zM395.494 365.34l2.614 1.777 3.02-3.637-2.704-1.944zM377.548 372.834l-.62.79 1.332.878.62-.79zM387.03 398.954l-.118.436 1.516.3.104-.436zM409.315 387.3l.7.654 1.084-1.05-.728-.64zM581.398 344.225l3.053-.959-1.902-4.672-3.142.853zM254.828 372.453l-.714-1.074 1.709-.954.713 1.073zM350.496 350.968l.79-.18-.307-1.136-.791.18zM616.22 436.836l-.015 1.478.969.008.015-1.478z" clip-path="url(#p84409948a7)" style="fill:#90ee90;fill-opacity:.8"/></g><path id="PatchCollection_5" d="m383.847 397.902-.17-.191-.414-.15-2.999 2.55 2.022 2.946 4.46 5.918.892-.41 1.387-11.427-4.64-1.31z" clip-path="url(#p84409948a7)" style="fill:#006400;fill-opacity:.8"/><g id="PatchCollection_6"><path d="m355.837 460.519.41 13.533-.41 14.848 23.5 16.351 6.352-2.881 2.528-5.764 1.571-2.945-2.869-3.07-5.123 1.003-7.514-.063-2.05-4.761-.273-4.073 2.255-5.45 1.912-1.943 6.216-.25 3.484-1.63 3.518-.343 2.22.72-2.049-5.733-1.486-5.072-1.547.327-8.563-15.653zM331.004 377.689l-2.625 1.624-1.545.764-9.456 4.964-7.828 4.371 2.876 6.923 1.24 11.89 13.784-.897 6.157-1.527-.21-6.02 17.556-2.13-3.047-7.648-.83-5.108.766-5.053-1.348-.98-2.846-.438-7.968-.712zM289.65 340.028l8.53 12.436-.837.839-.965.442-1.447-.163-1.65-.14-1.066.07-1.041-.326-5.966 2.492-1.016-1.351-1.345-1.84-.61-1.91-.101-1.117-.407-.955-.583-1.164-.026-.816zM178.345 362.287l-2.72 27.8-.433 5.492 4.578 10.63 14.814-2.324-.515-8.133-9.755-3.083-1.137-3.654.789-.349 1.051-2.933-1.96.866-1.628-.733-1.88-1.106-.417-1.015 1.08-7.302 1.672-13.916zM222.334 408.865l3.76 16.543 18.343-8.729.844-1.02-1.727-1.444-.92-1.407-.423-1.268-.844-1.337-1.075-.845-.767-.493-.652-.352-1.343-.281-1.804.035-1.381.633-1.535.951-4.74-4.805-2.09.405-2.898 2.13zM612.17 433.297l-6.759 23.111 2.126 11.074 2.902-.509 2.072.49 4.977-3.085 4.715-6.283-1.123-12.487-.167-3.57-3.44.197-3.248-8.632z" clip-path="url(#p84409948a7)" style="fill:#006400;fill-opacity:.8"/></g><g id="PatchCollection_7"><path d="m335.93 377.08 1.16.436h1.189l.505-1.31-.713-.326-.773-.327-.654-.192zM370.661 366.08l.431.273.788-.886-.476-.314zM407.77 361.458l.505.382.58-.546.252.123-.565.572.595.41 1.576-1.691-.61-.41-.877.887-.178-.11.833-.927-.55-.409zM403.547 367.063l.744.327 1.189-1.446-.625-.422zM398.775 370.649l.297.191.877-.9.378.313.143-.25.236.144.093-.246-.835-.589zM394.306 368.56l.371.19.253.233.163-.192.179.11.535-.491.015-.123.193-.191-.802-.6-.789.873zM254.828 372.453l-.714-1.074 1.709-.954.713 1.073zM251.11 373.924l-.74-1.095 1.725-.981.74 1.094zM353.635 351.784l.383-.134-.068-.134.26-.084-.237-.506-.766.32.203.528.136-.058zM375.72 345.177l.234.238-.181.13.724.736-.517.534-.751-.842-.155.106-.233-.202zM351.49 366.77l.341.982.372-.123.356-.055-.342-.968zM253.623 368.318l.387.545.61-.313-.343-.627zM342.76 347.238l1.19-.327.193.463-1.264.3zM584.364 355.382l.185.492.76-.153-.13-.458zM583.92 353.175l.722-.153.037.458-.648.12zM585.727 366.928l1.352.084-.152.419.076.372-1.334-.082z" clip-path="url(#p84409948a7)" style="fill:#a9a9a9;fill-opacity:.8"/></g></g></g><defs><clipPath id="p84409948a7"><path d="M90 108.786h558v509.627H90z"/></clipPath></defs></svg>