<svg xmlns="http://www.w3.org/2000/svg" width="960" height="960" viewBox="0 0 720 720"><defs><style>*{stroke-linejoin:round;stroke-linecap:butt}</style></defs><g id="figure_1"><path id="patch_1" d="M0 720h720V0H0z" style="fill:#fff"/><g id="axes_1"><path id="patch_2" d="M90 627.376h558V99.824H90z" style="fill:#fff"/><g id="LineCollection_1"><path d="m366.286 203.52 8.822-1.537 23.579-4.573M442.392 183.877l-24.437 9.519-4.788 1.372-14.48 2.642" clip-path="url(#p84aab404ad)" style="fill:none;stroke:#000"/><path d="m438.645 217.988-.696-2.49-22.984.813-15.554-16.564-.697-1.525-.027-.812M366.286 203.52l-3.12.394-1.9.572-.9.559-.624.698" clip-path="url(#p84aab404ad)" style="fill:none;stroke:#000"/><path d="m360.061 206.036.566-.648.726-.521 1.915-.66 3.018-.687M359.742 205.743l.32.293M341.676 149.736l16.702 24.605 1.161 4.827.813 5.437.406 7.775-.697 11.61-.319 1.753M359.742 205.743l-.45.966-.435 1.206-.145 1.55" clip-path="url(#p84aab404ad)" style="fill:none;stroke:#000"/><path d="m358.712 209.465.537-1.563.812-1.866M358.652 222.016l-.172-8.588.232-3.963M235.307 229.059l-4.817-4.878M242.823 235.334l-4.367-3.557-3.15-2.718M361.07 260.94l.092 1.73M361.07 260.94l-2.747-.068M359.043 241.551l.083 4.097 1.944 15.293M361.302 284.21l1.51-3.938.217-2.4-.203-3.455-.87-8.624-.886-4.852" clip-path="url(#p84aab404ad)" style="fill:none;stroke:#000"/><path d="m362.405 274.43.261 3.48-.232 2.26-1.132 4.04M357.481 274.894l4.179-.584.745.12M362.405 274.43l-.602-4.8M356.905 299.029l1.248-3.757 3.15-11.062M356.905 299.029l-3.903 11.738M348.18 305.881l.615-.861 8.11-5.991M348.18 305.881l-1.3 5.133M348.18 305.881l4.822 4.886M279.211 267.598l.372.405 45.314 20.817 11.782 5.334 1.51 1.118 9.99 10.61M353.002 310.767l-.493.311-.718 1.905-.102 1.194.677 7.485" clip-path="url(#p84aab404ad)" style="fill:none;stroke:#000"/><path d="m352.967 321.615-.668-7.514.116-1.016.725-1.86-.138-.458M347.648 326.814l-1.146-12.574.377-3.226M330.635 315.102l1.708.424 4.73-1.346 7.951-3.1 1.855-.066M352.967 321.615l14.161 2.284M352.967 321.615l-.601.047M352.967 321.615l.423 4.755M352.366 321.662l.43 4.756M353.39 326.37l-.595.048M353.39 326.37l.573 6.593M352.795 326.418l-5.147.396M352.795 326.418l.578 6.592M347.648 326.814l.55 6.608M364.85 331.697l-4.982.58M353.963 332.963l5.905-.687M353.963 332.963l-.59.047M353.963 332.963l.553 6.222M353.373 333.01l-5.174.412M353.373 333.01l.5 6.21M348.199 333.422l.572 6.81M349.418 348.073l-.647-7.842M349.418 348.073l4.946-2.108M350.522 371.39l-.58-9.399-.524-13.918M298.985 351.15l4.556 1.422 16.048 8.483 1.248.533 1.102.102 1.045-.254 1.277-1.016 1.364-1.194 1.393-1.244 4.014-1.934 18.386-7.975M357.354 370.932l-.562.038M357.354 370.932l-2.466-25.345M364.139 376.932l-.407-6.425-6.378.425M357.354 370.932l.507 5.773M356.792 370.97l-6.27.42M356.792 370.97l.513 5.715M356.792 370.97l-2.428-25.005M350.522 371.39l-9.99 1.267M351.624 382.158l-.584-5.706-.518-5.063M357.861 376.705l6.278.227M357.861 376.705l-.556-.02M357.861 376.705l-.186 5.628M357.305 376.685l-.184 5.633M364.139 376.932l-.029 5.588" clip-path="url(#p84aab404ad)" style="fill:none;stroke:#000"/><path d="m431.796 398.97-1.596-.355-1.044-.356-.61-.761-3.105-.814-1.45-.202-1.742.965-3.976 2.564-1.508.813-1.365.254-2.93-.177-4.499-.153-5.31-.94-1.567-.457-.987-.787-1.886-2.489-3.366-3.2-.784-.406-1.567-.153-1.48-.33-.9-.66-.174-.915-.029-1.726-1.218-1.524-1.742-1.524-13.784-4.8-2.495-1.041-.233-.585-.058-1.574-.665-.498-5.587-.207M351.624 382.158l.602 5.695M351.624 382.158l5.497.16M357.12 382.318l.555.015M357.12 382.318l-.186 5.686M357.675 382.333l6.435.187M357.675 382.333l-.196 5.688M364.11 382.52l-.231 5.706M352.226 387.853l4.708.15M352.334 393.485l.045-2.845-.153-2.787M356.934 388.004l.545.017M356.934 388.004l-.185 5.626M357.48 388.021l6.399.205M357.48 388.021l-.186 5.627M363.879 388.226l2.016.064M363.879 388.226l-.175 5.634M352.334 393.485l-.445 5.579M352.334 393.485l4.415.145M356.75 393.63l.544.018M356.75 393.63l-.182 5.622M357.294 393.648l6.41.212M357.294 393.648l-.182 5.626M363.704 393.86l-.102 5.676M351.89 399.064l-.498 5.824M351.89 399.064l4.678.188M324.246 390.326l1.538.66 2.264.229 1.683.432 5.072 2.945 7.257 3.809 1.484.195 8.345.468M356.568 399.252l.544.022M356.568 399.252l-.178 5.363M357.112 399.274l6.49.262M357.112 399.274l-.178 5.317M363.602 399.536l-.13 4.762M363.472 404.298l-6.538.293M370.61 423.067l.291-2.05.026-1.061-1.087-6.61-.278-3.582.127-5.284-.05-.376-.33-.265-.403-.045-5.434.504M356.934 404.59l-.544.025M356.934 404.59l-1.424 8.639M356.39 404.615l-.104.649M351.392 404.888l-.642 4.316M351.392 404.888l4.894.376M351.392 404.888l-3.035-.212M356.286 405.264l-1.28 7.912M350.234 412.68l-1.11 6.879M350.234 412.68l.516-3.476M350.234 412.68l4.773.496M355.007 413.176l.503.053M355.007 413.176 353.27 424.1M355.51 413.229l-1.79 10.856M341.46 433.713l5.463-8.457 1.313-2.584M349.124 419.559l-.054.332-.834 2.781" clip-path="url(#p84aab404ad)" style="fill:none;stroke:#000"/><path d="m350.007 431.878-.39-.43-.813-4.189-.232-1.473-.145-1.18.276-1.766-.467-.168M370.61 423.067l-1.394 7.065M370.61 423.067l-4.994.301M460.983 423.967l-1.639-.21-.413-.095-4.259-.977-6.152-1.6-2.104-.483-2.35-.724-8.257-2.082-1.378-.381-.726-.038-.986.127-.936.387-8.052 3.708-1.916.102-25.058-2.96-.697.046-16.019 5.688h-1.334l-5.76-1.41-1.263-.063-1.074.065M365.616 423.368l-1.33 6.834M365.616 423.368l-5.126.309M360.49 423.677l-1.525 6.8M360.49 423.677l-6.37.383M353.27 424.099l.45-.014M353.27 424.099l-.434 2.496-.595 1.874-.74 1.549M353.72 424.085l.4-.025M353.72 424.085l1.668-1.09M351.95 430.196l.777-1.6.53-1.855.18-.952.282-1.704M351.5 430.018l-1.493 1.86M351.5 430.018l.45.178M369.216 430.132l-4.93.07M376.275 432.411l-1.769-.5-.708-.743-.303-1.095-.52-.127-3.759.186M351.95 430.196l-1.37 1.675M364.286 430.202l-5.321.276M364.286 430.202l-.282 2.93M358.965 430.478l-5.083.264M353.882 430.742l-3.303 1.13M353.882 430.742l.237-6.682M350.195 432.342l.391-.026 3.296-1.574M350.58 431.871l-.573.007M350.58 431.871l-.385.47M350.007 431.878l.188.464M350.007 431.878l-.349.267-.798.438-5.354 2.203-.725.247-.443.133-.445.004M350.195 432.342l-.341 2.374M342.747 436.306l.375-.714.573-.4 5.354-2.21 1.146-.64M341.46 433.713l-.442.565-.486.819-.156.72M341.893 435.17l-.33-.435-.146-.45.043-.572M349.854 434.716l-2.59 13.542M349.854 434.716l-1.412.054M341.893 435.17l-.367-.05-.366.05-.334.141-.269.224-.181.283M342.747 436.306l-.028-.365-.167-.336-.287-.268-.372-.167" clip-path="url(#p84aab404ad)" style="fill:none;stroke:#000"/><path d="m340.376 435.818-.078.36.064.361.2.322.311.245M340.376 435.818l-.686.235-1.276.516M342.478 436.874l.182-.266.087-.302M338.414 436.569l.87.1.696.053.893.384M297.16 440.711l14.893 4.976 1.7.444.752.051.9-.127 18.477-7.451 3.504-1.67 1.028-.365M340.873 437.106l.324.125.352.039.349-.05.319-.136.26-.21M342.367 438.849l-.109-1.232.22-.743M340.873 437.106l.471.359.334.374.689 1.01M342.367 438.849l.588 1.13M258.566 444.251l.642-1.624M255.247 450.873l.435-.431.33-.458 2.554-5.733" clip-path="url(#p84aab404ad)" style="fill:none;stroke:#000"/><path d="M252.605 431.766v.991l2.408 3.327.697 4.012.638 2.464.784 1.168 1.434.523M347.264 448.258l-2.545-4.89M389.162 514.388l-.284-.298-13.93-14.69-1.044-1.218-1.277-1.803-14.135-26.981-11.228-21.14M390.863 516.171l8.535 8.951 1.218 1.346 1.161 1.498M403.932 532.803l-.566-1.689-.682-1.586-.907-1.562M418.147 523.811l-4.208.305-3.076.05-2.786-.278-1.132.152-1.102.584-3.193 2.97-.873.372M404.754 537.63l-.46-3.088-.362-1.74" clip-path="url(#p84aab404ad)" style="fill:none;stroke:#000"/><path d="m402.194 533.968.151-.622.697-.584.89.04M354.364 345.965l.524-.378M354.364 345.965l-.473-6.395M297.16 440.711l-.673-.224-15.115-5.066M259.208 442.627l1.621-4.102.976-1.866.74-1.041.653-.883.606-.515.558-.361.693-.248 3.414-.762 1.84-.349 1.014-.108 1.067.038.907.21 1.455.495 6.62 2.286" clip-path="url(#p84aab404ad)" style="fill:none;stroke:#000"/><path d="m278.098 437.747 3.105-1.98.169-.346M239.163 455.838l.493-.431.697-.331 1.222-.222 12.718-3.473.475-.228.479-.28M273.694 457.028l-2.176-.28-3.598-2.234-7.314-2.082-4.381-.584-.465-.305-.513-.67M232.224 470.71l.279-.308.627-.997 5.684-12.97.349-.597M238.24 452.235l.464 2.59.459 1.013M232.224 470.71l-.374.415-14.811 15.23-1.193.82-1.423.557-3.931.775-.958.102-.78-.007-.845-.12-.885-.204-15.424-4.926-4.165-1.232-3.594-.907-1.774-.375-1.262-.127-1.158.032-2.67.438-2.132.438-2.946.584-1.092.124-1.027-.048-2.02-.295-2.046-.444-4.135-.902-1.16-.152-.857.032-.685.079-.61.165-.957.559-1.306.743-2.133 1.377-1.132.73-.98.483-.913.387-2.22.825M113.027 525.838l-.93-14.123-.073-1.193v-.673l.117-.558.189-.47.333-.52.435-.432.798-.648 19.371-15.438 1.088-.832.588-.425.551-.273.747-.292.98-.343 11.404-3.752M142.504 379.856l-4.991 4.394-9.315 9.32-1.132 1.194-.928 1.397-.755 6.73-.13 2.984-.363 12.533-.407 16.61 6.704 21.915 7.458 6.603.667.838 2.873 9.42 1.161 2.769 5.28 9.303M114.375 546.298l-.09-1.357M116.97 584.923l4.21-2.718.523-.393.254-.42.065-.355-.058-.38-.225-.363-.37-.336-.566-.457-3.526-2.532-.537-.445-.333-.444-.218-.596-.087-.876-1.727-28.31M122.844 548.237l-.87-1.32-1.887-1.295-5.712.676M532.716 371.617l.406-.317.828-.622 1.19-.851 1.03-1.117.74-.75.609-.736.29-.508.232-.724.03-.75-.087-.8-.204-.368-.435-.19-1.06-.292-.84-.28-.828-.419-.943-.622-1.103-.775-2.612-1.765-.856-.724-.58-.648-.624-1.016-.566-1.104-.232-.635-.094-.914.087-.705M543.004 334.167l.072.33.145.292.261.381.117.495-.03.458-.18.31-.581.54-.791.699-1.313 1.092-.588.603-.5.426-.5.317-.567.191-.703.146-1.836.159-.646.037-.457.02-.624-.039-1.168-.114h-.957l-.886.038-.92.28-.697.387-.341.337-.261.52-.087.565.043.578.217.572.37.832.508 1.124.45 1.162.124.793.043.807-.203.838-.384.914-.602.743-.683.673-.522.451-.544.502-.428.667-.261.692M521.024 355.267l5.05-1.143 1.02-.14M552.32 335.056l-.407.089-.508.025-.406-.025-.755-.115-2.249-.457-1.48-.47-.914-.343-.798-.304-.58-.114-.639.012-.363.241-.173.292-.044.28" clip-path="url(#p84aab404ad)" style="fill:none;stroke:#000"/><path d="m539.292 328.051 1.277 1.702 1.48 2.261.955 2.153M570.587 304.88l-.755.102-.87.305-2.946 1.663-.856.673-.464.584-.247.66-.116.7.029.914-.043 1.092-.204.712-.362.787-.682.622-.726.419-.914.445-.87.368-.494.355-.319.483-.638 1.435-1.118 2.756-1.567 4.395-1.364 4.28-1.146 3.314-.972 2.223-.349.635-.275.254M557.592 338.405l-.986-.838-3.047-1.956-1.24-.555M587.283 294.603l.077.51.03.737-.088.622-.217.66-.58 1.042-1.031 1.982-1.538 3.212-.668 1.131-.45.508-.464.394-.812.47-1.03.482-.596.178-.623.05-.77-.012-1.204-.241-4.338-1.029-1.494-.355-.9-.064" clip-path="url(#p84aab404ad)" style="fill:none;stroke:#000"/><path d="m575.349 304.416-1.64-.368-2.234.304-.888.528M587.283 294.603l-.097-.646-.232-1.27-.682-2.451-.74-2.057-.334-.966-.101-.571v-.496l.087-.444.188-.572.174-.571.059-.826.014-.686.029-.711.087-.508.217-.56.306-.532.464-.61.565-.635.45-.42.407-.19.566-.076.42.05.406.191" clip-path="url(#p84aab404ad)" style="fill:none;stroke:#000"/><path d="m610.72 291.01-4.12-4.813-.711-.85-.523-.407-.594-.229-1.205-.241-10.664-2.07-1.002-.216-.45-.23-.318-.24-.334-.42-.305-.596-.319-.7-.319-.558-.32-.394M594.052 276.22l-1.451.876-.972.851-1.045.623-1.048.476M610.72 291.01l10.872-7.754M622.082 303.851l-7.473-8.547-3.888-4.293M624.505 308.805l.16-.508-.102-.89-.203-.952-.726-.864-1.552-1.74M615.548 305.705l1.074.585.435.787.639.482.638.076.812-.584 2.936-3.2M624.505 308.805l-.61.723M624.505 308.805l.663.723M623.896 309.528h1.272M622.923 310.85l.363-.775.61-.547M622.923 310.85l-3.475 3.64" clip-path="url(#p84aab404ad)" style="fill:none;stroke:#000"/><path d="m623.518 321.187.363-1.194.523-1.041.812-1.105.551-.635.247-.432.015-.622-.349-.66-.71-.877-.813-.889-.45-.737-.392-.838-.348-.762-.044-.546M623.518 321.187l-.138.376M618.722 315.405l2.699 2.896 1.19 1.346.907 1.54M606.583 365.424l-.65 1.635-2.452 6.159M601.435 378.754l.116-.61.333-.774 1.597-4.152" clip-path="url(#p84aab404ad)" style="fill:none;stroke:#000"/><path d="m601.478 393.828-.102-10.185v-4.342l.059-.547M601.478 393.828l.041 1.108M601.478 393.828l.696.688M620.413 449.451l-5.18-2.272-2.757-1.232-2.046-1.118-.84-.482-.726-.343-.494-.102-.566-.037-.537.24-1.059.56-1.93 1.358-.74.444-.269.17M585.372 447.934l11.855-.737 4.926-.273.486-.044.515-.172.115-.072M601.52 394.936l.394 10.613.246 4.202.13 7.645.334 11.301.334 8.679.311 9.26M606.68 365.18l-.097.244M612.69 349.126l-1.04 2.871-.987 2.16-1.277 2.869-.958 2.578-.478 1.765-.566 2.07-.704 1.74M597.103 369.814l5.383-2.26 2.003-.952 1.436-.839.755-.584M574.845 380.76l10.041-5.015 12.217-5.93M588.411 333.732l-.928 2.26-.32 3.048-.377 1.32-5.064 2.223-.29.965-1.16 4.979 6.5 7.721 10.331 13.566M558.541 389l9.877-5.09 6.427-3.15" clip-path="url(#p84aab404ad)" style="fill:none;stroke:#000"/><path d="m571.855 371.385.552 2.743.377 2.007 2.061 4.626M555.28 428.113l.231-.584.29-.47.798-.914 1.009-.736.813-.483.84-.47 1.06-1.028.74-.623.87-.406.755-.127.77.076 1.174.28 2.583.761.9.204.61-.051.348-.216.275-.394.145-.457-.072-.508-.189-.406-.479-.457-.42-.458-.29-.609-.146-.787.146-.597.304-.673 1.523-2.362.683-1.257.072-.444-.072-.33-.218-.293-.363-.228-.508-.09-.71.065-.9.164-1.132.064-.755-.216-.653-.483-.885-.85-.638-.775-.74-1.371-.218-1.969v-1.27l.276-2.113.268-1.143.327-1.035.377-.515.4-.438.5-.406 1.03-.559 1.219-.71.914-.573 1.074-.723.725-.876.435-.547.305-.596.116-.457-.072-.52-.102-.56-.29-.457-.435-.292-.276-.064-.711.153-.71.152-.828.14-.697-.05-.696-.191-.595-.229-.87-.622-1.147-1.13-1.437-1.41-1.087-.685-1.306-.572-.997-.306M532.716 371.617l.356.096.392.21.653.52.71.546 1.335 1.054 3.178 2.502.958 1.016.725 1.041 1.175 1.93 2.133 3.162 1.06.952.914.521.769.42 1.073.406 3.817 1.003 3.467 1.143 2.786.762.324.1M501.353 378.577l1.64 1.27.74.431.653.267.842.09.74-.065 2.974-.838 5.543-1.93 6.137-2.311 3.352-1.067 6.181-2.337 1.379-.444.667-.076.515.05M479.917 379.27l.426-.046 1.61.064 4.76.482 3.047.394 4.034.711.638.025.566-.14.711-.228 1.03-.673 1.364-1.168.755-.457.9-.229.783.153.812.419M502.582 374.506l-.26.75.159 1.752-.349.724-.779.845M635.284 500.8l-6.832.384h-.893l-.478-.019-.544-.114M606.215 488.292l5.449 3.408 13.697 8.697.718.438.458.216" clip-path="url(#p84aab404ad)" style="fill:none;stroke:#000"/><path d="m623.887 502.882.16-.863 2.148-.699.342-.27M605.297 487.718l-2.89-1.808-.726-.52-.493-.248-.711-.165-.341-.26-.167-.216-.13-.432-.059-.368-.094-.768-.24-.584-.34-.737-1.778-3.383-3.424-6.697M585.372 447.934l-.305 5.072-.08 2.553.03.596.145.566.275.704.748 2 .232.64.109.636.007.87-.022.45.094.654.37 1.301.414 1.112.326.647.378.49.602.52.566.343.559.196.84.159.632.14.479.222.37.4.37.622 1.393 2.705M589.884 471.896l.406.965 1.002-.368 1.044-.431 1.568-.53M620.413 449.451l8.344 3.733 1.015.419M628.581 466.678l-.507-.736-.29-1.194-.073-.698.305-2.336.74-3.771.812-3.962.204-.378M621.107 438.942l.552 2.768.058 1.067-.088 1.27-.9 3.072-.144.889.029 1.067-.2.376" clip-path="url(#p84aab404ad)" style="fill:none;stroke:#000"/><path d="m561.489 449.47.624.09 1.436-.14 7.56-.521 6.442-.381 7.821-.584M555.28 428.113l.449.559.566.482.464.318.639.546.26.33.16.305.058.304-.087.381-.16.496-.086.291-.073.559-.842 3.86-.406 1.676-.189 1.194-.087.546.102.495.261.203.551.33.45.356.42.508.32.647.45 1.334.696 1.955.595 1.422.653 1.359.595.647.45.254" clip-path="url(#p84aab404ad)" style="fill:none;stroke:#000"/><path d="m557.868 467.078 1.132-1.08.261-.951-.044-.915-.434-1.041v-.724l.478-.66.305-.762.174-1.51.015-1.69.623-.368 3.962-2.64.16-.483-.233-.419-2.38-3.213-.362-.736-.036-.416M547.328 432.532l.55.05.596-.152.885-.368 1.378-.724.958-.546 1.35-1.041 2.234-1.638M524.257 418.075l2.481-.05 1.988.266 1.016.013 1.073-.076 1.205-.19 1.16-.217 1.133-.031.71.24 1.096.591 1.139.705 2.307 1.555 3.373 1.943 1.176.8.58.483.69.908.449 1.168.145.901.973 4.699.115.508.262.24M556.482 484.949l-1.61-1.867-1.494-2.374-.653-1.486-2.99-3.847-.957-1.41-.914-1.929-.653-2.133-.32-1.612.218-.673 1.596-3.137.13-1.091-2.103-8.279-.45-5.257-.043-2.552.087-4.825 1.538-3.708-.029-.914-.507-5.323M488.099 424.056l.566-.025.682-.178 1.625-.597 7.385-2.793 2.322-.788 1.378-.381 3.004-.775 2.655-.774 2.887-.622 4.383-.737 2.132-.355 1.118.025 1.044.178 1.147.444 1.276.686.813.432.711.241 1.03.038" clip-path="url(#p84aab404ad)" style="fill:none;stroke:#000"/><path d="m479.917 379.27.69 1.211 10.854 11.124 3.569 6.45 2.496 4.776 2.843 3.428.9.432 2.583-.05 1.974.406 2.089.634 1.886 1.626 1.015.737.668.152 1.335-.305 2.989-1.067 4.585 3.353.929 1.117 2.321 3.91.614.871M488.099 424.056l-.697.505M487.054 423.497l.551.356.494.203M487.054 423.497l.348 1.064M460.983 423.967l1.756.146 1.027.032.827-.127.784-.229.87-.292 1.408-.28 4.686-.634 7.908-1.257 2.858-.457.886-.076.479.127.55.317 1.075 1.194.957 1.066" clip-path="url(#p84aab404ad)" style="fill:none;stroke:#000"/><path d="m471.819 386.728-1.603.903-2.54.902-2.742.838-.638.24-.334.407-.189.356.043.457.233.444.798.8.813.648.406.622.29.699.13.71-.086.978-.465 2.172-.493 1.765-.74 1.753-1.132 2.387-2.162 5.854-.667 1.942-.247 1.156-.32.787-.449.838-.435 1.258-.392 1.549-.087.634.03.699.231.698.363.788.61 1.142.493 1.245.445 1.568M383.23 520.126l-5.593 5.56M389.162 514.388l-1.884 1.587-4.048 4.151M376.917 516.866l1.364-.532.928.228 1.074 1.574 1.016.305 1.93 1.685M389.162 514.388l1.7 1.783M339.25 560.529l-9.097-3.472M339.88 589.784l-8.952.079 8.323-29.334M367.881 536.164l-.417.638-.804 1.034-.755.718-.965.755-1.77 1.441-3.417 2.71-7.037 5.827-6.791 5.675-3.308 2.73-2.822 2.196-.298.273-.116.146-.13.222M330.153 557.057l-1.952 3.76M316.502 552.16l.164-.01.472.165 4.222 1.441 8.793 3.3M316.502 552.16l-.162.01-.436.234-.595.457-.384.311-.457.216-.406.102-.588.025-7.959-.45-10.026-.585-4.28-.203-.958.013-.697.203-.493.114-.479-.063" clip-path="url(#p84aab404ad)" style="fill:none;stroke:#000"/><path d="m251.33 475.858.855.232 7.443 2.082.754.317.516.362.29.527.348.87 1.763 7.18 2.945 9.852 2.721 8.995 1.727 5.612.312.964.384.813.407.756 1.24 2.742 3.374 7.668 7.095 16.238 4.295 9.889.464 1.105.32.482M241.185 556.133l3.135.585 21.793 3.732 9.374 1.523 13.842.228 1.277.051 1.596.178.29-.432-.174-.761-3.685-8.074-.05-.619M251.33 475.858l-12.146-3.298-6.96-1.85M619.448 314.49l-.726.915M617.764 314.745l.867.11.817-.364M615.588 312.687l2.176 2.058M617.764 314.745l.958.66M621.018 327.768l-.771 1.974M623.38 321.563l-1.052 2.85-1.31 3.355M617.561 325.032l-.203 1.575 3.66 1.161M614.52 396.226l.595 1.663.638 2.362M602.174 394.516l8.718 1.278 3.628.432M602.174 394.516l-.655.42M618.26 334.843l-.923 2.423-2.496 5.867-.84 2.108-.814 2.514-.497 1.371M620.247 329.742l-1.778 4.552-.21.55M629.797 319.676l-1.045.889-2.075.736-2.162.19-1.135.072M613.096 262.28l.37-.21.276-1.015M613.096 262.28l-.602-.006-.407.076-.45.52-.768 1.068-.726.622-1.669.775M613.096 262.28l-.958-.635-5.368-.889-5.253-1.981-.638-.432-1.683-2.083-5.66 1.448M613.096 262.28l8.496 20.976M627.998 262.255l-.9-3.518-1.422-7.012-4.962-3.506-.436-.66-.783-4.675-.987-.685M630.943 276.315l-.261-.889-2.684-13.171" clip-path="url(#p84aab404ad)" style="fill:none;stroke:#000"/><path d="m630.914 256.005-.508 1.537-2.408 4.713M634.12 306.9l.465.507.9 1.499.783 2.235 1.001 1.296M630.022 309.63l-4.854-.102M625.168 309.528l1.465 2.381 1.045.07.537-.444 1.727-1.442.08-.463M634.12 306.9l-3.525 2.742-.573-.012M630.943 276.315l-9.351 6.941M584.018 292.877l3.265 1.726M546.808 291.383l2.08-16.044M569.77 278.995l-.682.038-1.016-.102-.725-.406-3.512-2.235-1.03-.584-1.233-.292-1.016-.128-.914.23-1.495 1.078-2.147 2.554-3.599 6.554-2.96 5.397-2.633.284M546.066 299.132l.423-1.866.26-5.436.059-.447M548.888 275.339l.3-3.679M558.851 268.46l-.145.952-2.917 2.083-5.963 3.315-.667.28-.27.249M549.187 271.66l-.761-.032h-9.301l-11.55-.14-.45-.342-.058-.496.508-2.07.566-2.362-.188-1.918M516.686 297.774l.551 1.143.378 1.575.725.66.928.508 1.858.863 8.387-4.013 4.15-2.108 1.073-.076h4.759l1.741.432 3.483 1.6.928.635.419.14" clip-path="url(#p84aab404ad)" style="fill:none;stroke:#000"/><path d="m539.292 328.051.087-1.295 5.63-22.962 1.057-4.662M539.292 328.051l-1.552-.063-3.541.228M549.187 271.66l2.482-17.083-.406-1.296-14.946-8.917-2.408-1.04M471.819 386.728l.718-.405 1.422-1.143.972-1.372.871-1.498.71-1.232.813-.838 1.016-.647 1.03-.267.546-.057M467.766 383.745l4.053 2.983M360.06 419.745l.726-.127 1.538-1.423M360.06 419.745l.317 2.843M355.388 422.995l-.203-2.133.26-.711 4.615-.406M360.377 422.588l4.036-.329M360.377 422.588l-4.989.407M371.866 342.88l10.206.659 14.451 1.016 9.81.61 21.067-3.506M367.394 338.078l.053.462M367.394 338.078l-6.489.581M371.181 334.4l-4.025.427.238 3.251M367.394 338.078l4.05-.416M371.445 337.662l-.264-3.262M371.445 337.662l.038.496M371.445 337.662l3.852-.31M375.297 337.353l-.21-3.169M375.297 337.353l.02.49M375.297 337.353l3.88-.313M367.447 338.54l.327 4.223M367.447 338.54l4.036-.382M367.447 338.54l-6.522.486M371.483 338.158l.383 4.722M371.483 338.158l3.835-.315M375.318 337.843l.311 4.73M375.318 337.843l3.905-.32M378.941 333.993l.235 3.047M378.941 333.993l-3.853.191M389.758 331.326l-3.282 1.07-5.34 1.306-2.195.29M379.605 342.599l-.382-5.076M375.088 334.184l-3.907.216M371.866 342.88l-1.497-.097M370.37 342.783l-1.945-.05-.65.03M354.888 345.587l4.218-1.126 5.503-1.424 1.669-.203 1.496-.07M354.516 339.185l-.643.034M354.516 339.185l.011.365M354.516 339.185l6.39-.526M379.176 337.04l.02.199M379.223 337.523l-.027-.284M354.527 339.55l6.398-.524M354.527 339.55l-.636.02M354.527 339.55l.36 6.037M370.37 342.783l.638.94 1.16 2.413M345.627 589.734l-5.747.05M345.627 589.734l.783 2.401M341.405 617.23l9.518-16.831-2.67-10.689-2.626.024M311.587 610.668l14.539-1.828 1.044-.762 12.71-18.294M251.33 475.858l-.815 4.774-.29 1.498-.986 3.58-1.597 4.266 2.728 4.673M114.286 544.94l-1.259-19.102M119.13 544.378l-1.713.076-3.131.487M116.97 584.923l-.507.327M117.606 586.372l-.363-.99-.274-.46M117.606 586.372l-.755-.8-.388-.322M121.052 594.718l-.551-.482-2.895-7.864M121.052 594.718l.066.984 1.218 3.173 5.978 3.326 8.445 1.117 8.619 1.27 3.714-.838.929-1.066.812-1.854 5.398-3.198 8.358.456 2.64-.304 1.103-.33.058-.711-.32-.66-.463-.61-.842-1.421-.725-2.184-1.277-.863.109-.78-2.67-.204-2.815.432-4.643.228-6.298.508-2.002.026-1.77-.584-1.248-.61-1.451.051-8.822 1.879-4.179.177-1.567.585-1.306.939-1.393.914-1.74.203-1.916-.05" clip-path="url(#p84aab404ad)" style="fill:none;stroke:#000"/><path d="m121.052 594.718 1.915.05 1.741-.202 1.393-.914 1.306-.94 1.567-.584 4.18-.177 8.82-1.879 1.452-.05 1.248.609 1.77.584 2.002-.026 6.298-.508 4.643-.228 2.814-.432 2.67.203-.108.781 1.277.863.725 2.184.842 1.421.464.61.32.66-.059.71-1.103.33-2.64.305-8.358-.456-5.398 3.198-.812 1.854-.929 1.066-3.714.838-8.62-1.27-8.444-1.117-5.978-3.326-1.218-3.173-.066-.984M377.637 525.685l-.494.49-1.422 1.626-.573.889-.501.755-.232.47-.276.476-.326.38-.515.476-1.263 1.054-.964.775-1.053.698-.725.565-.53.59-.515.673-.367.562M370.787 545.673l-.987-.838-.639-2.819-.087-2.64-.347-2.793-.846-.419M382.569 536.304l-2.177-1.803-1.277-1.422-.928-1.88-.29-1.878v-3.123l-.26-.513M399.934 540.162l-1.535.394M399.934 540.162l2.768-.71M402.194 533.968l-3.795.368.029 2.386 1.506 3.44M402.377 538.722l-.38-.857-.058-2.844.255-1.053M402.702 539.452l.253.571M402.702 539.452l-.325-.73M404.754 537.63l.234 1.577M404.754 537.63l-2.377 1.092M404.988 539.207l.342 2.302M404.988 539.207l-2.033.816M405.33 541.509l4.013 27.006M402.955 540.023l1.277 1.22.493.228.605.038M418.289 591.201l-.827-.853-.928-1.18-.958-1.41-2.684-5.128-1.234-2.577-.464-1.18-.377-1.232-.276-1.332-.878-5.637-.32-2.157M399.806 570.402l1.22-.38 7.196-1.296 1.12-.211M418.289 591.201l-.636.985-5.049 8.378-1.219 1.345-1.683.38-2.409.28-5.978.432-2.234-.101-3.86-.838-6.297-3.123-3.047-.99-3.772 1.65-.9.101-2.148-2.03-1.335-1.676 1.176-1.206-.145-.965-1.277-2.742-2.815.153-2.438.304-2.002.508-2.206-.61-1.8-.355-8.966-1.294M390.863 516.171l1.942-1.786 17.717-17.165 11.926-12.011 11.493-19.553.464-1.676.987-6.958M345.693 436.638l1.762 2.652M348.442 434.77l-1.713 1.13-1.036.738" clip-path="url(#p84aab404ad)" style="fill:none;stroke:#000"/><path d="m348.442 434.77-1.379.063-1.117.394-.464.419-.044.61.255.382M497.326 520.98l2.119-.71.174-.585.087-1.37-.697-1.321-.232-1.88.117-2.666 1.538-2.843 1.363-1.65 1.451-.94.32-.839-.32-1.066-1.306-2.158-.203-1.32.494-3.073.145-1.803-.262-1.295-.377-.914-.667-4.545-1.132-1.422-1.16-1.6-.697-2.108-.203-1.472-.175-4.14-.754-4.139-.783-7.364-.755-1.193-.696-1.245.028-1.98.61-4.723 1.045-1.854.174-1.245-.392-1.816-.827-2.526-.842-1.168-2.872-1.55-1.452-1.295-.754-1.193-.493-2.717-.493-3.734.232-2.742.522-1.727 1.045-1.88.348-1.04-.407-1.854-1.102-1.956-.87-1.625-.581-1.219-.232-.914M606.215 488.292l-.918-.574M601.76 491.138l.842-1.27 1.393-.634 1.451-.407.769-.535M612.316 469.789l-1.857 1.676-.639 1.549-.638 1.066-1.132 1.067-.9.634.058.712 1.046 1.498 1.45 1.194 1.016.609 1.538.635.58.558v.813l-7.541 5.918M628.581 466.678l.523.47 1.074.508 1.248.33M628.581 466.678l2.656.114M635.284 500.8l-1.203-2.71M288.85 247.103l-6.588 2.667-10.36 9.147M279.211 267.598l-.259-.281-2.162-3.95-4.889-4.45" clip-path="url(#p84aab404ad)" style="fill:none;stroke:#000"/><path d="m265.562 253.598 4.67 3.8 1.67 1.519M360.325 267.705l.174 1.981M354.26 267.4l-1.103-.05-.638-1.524.203-1.119.9-.355.986.102 1.51 1.143" clip-path="url(#p84aab404ad)" style="fill:none;stroke:#000"/><path d="m354.26 267.4.986-1.473.871-.33M357.597 269.661l-.029-3.023-.755-.762-.696-.28M357.597 269.661l.348 3.531-1.683.076-1.219-.559-.522-.94-.232-1.295-.03-3.074M360.499 269.686l.058.712-.61.203h-.928l-.696-.406-.059-.711-.667.177M361.803 269.63l-.84.006-.464.05" clip-path="url(#p84aab404ad)" style="fill:none;stroke:#000"/><path d="m361.162 262.67.169 3.199.472 3.761M358.99 262.168l2.172.503M358.323 260.872l-.813-.839-.639-.203-1.16-.025M358.323 260.872l-1.335.355-.9.534M359.043 241.551l-.03-1.523M359.013 240.028l-1.924-.025-.377.38.319.534 2.012.634M359.013 240.028l-.36-18.012M353.723 218.333l1.219-.23.61 1.017.957 2.54 2.143.356M481.153 169.377l-11.141-10.057-1.161-2.134-2.612-1.88-2.728-1.932-2.554-.71-2.553-.459-6.269-.508-4.628-.927-5.572-.457-11.956-2.49-17.528-6.556-2.321-1.168-1.625-3.456.174-2.744 1.334-4.879.349-4.065-.696-2.643-2.707-4.047-1.77-3.506-2.72-2.662-4.869-2.128-.87.102-17.528 26.324-1.103.153-1.393-2.287-1.625-1.576-1.509-.813-2.205.61-7.952 11.13-18.108 4.928-3.63 1.196M481.153 169.377l-37.428 13.933-1.333.567M433.896 180.675l7.575 2.438.348.305.573.459M230.49 224.181l-4.431 3.21M232.284 251.665l-.329-4.125.058-.61.116-.355 5.552-5.198 2.342-2.487.681-1.016.494-.8.633-.905.58-.534.412-.301M265.562 253.598l-18.343-14.556-4.396-3.708M254.15 260.29l.435-1.779 10.977-4.913M256.21 291.027l-.196.628-1.74 1.905-.93 2.642-2.089 3.658-1.886 2.642-1.858 1.143-1.944 1.753-.783 1.727-1.016 1.702.552.686.928.1 1.48-.507 2.09-.965 3.598-1.6 1.248-.102 5.31.432.349 1.575.58 1.092 1.277 1.422-.378 2.515-.203 1.905-1.654 3.226M255.942 340.92l2.554.33 1.508-.076 1.945.66 3.54 1.575.58.635.813 1.753.058 2.082 2.873 1.143 3.686 1.803.377.542M265.134 348.42l4.788 1.447 3.954 1.5M290.642 356.09l-2.438-.305-2.728-1.092-1.77-.407-2.902-.28-4.991-1.904-1.937-.735M269.066 287.572l-.167 4.591-.668.61-1.566-.203M268.405 281.52l3.57-.229 5.364.075M269.066 287.572l7.313-3.43.551-.355.32-.432.089-1.989M279.211 267.598l-.54.719-.9 3.455-.432 9.594M256.21 291.027l-11.027 1.498-7.748 1.245-4.47-1.321-5.528-1.105-2.554-.025-1.653.508-1.248.762-1.459.412-1.668.674-6.79 2.578-.871-1.372M269.066 287.572l-4.76 2.286-8.096 1.169M290.642 356.09l-7.095 3.847-5.95-2.006-5.63-3.683-1.566-.178-.784.686M290.642 356.09l8.343-4.94M298.985 351.15l-1.814-3.747-1.944-3.733-2.206-3.175-1.567-1.448M350.75 409.204l-16.47-5.03-3.424.432M326.865 415.005l7.371 1.067 14.888 3.487M263.16 443.658l-.435-.47-.45-.025-.464.177-1.001.56-.944-.991-.658-.282M291.791 451.519l-3.826.068M297.16 440.711l-.968.579-.798.8-3.603 9.429M302.482 475.451l-1.016-2.26-.406-.914-.087-2.26v-1.168l.26-.71.262-1.119-.551-1.015-2.525-1.32-2.35-.838-3.048-1.245-2.96-1.244-1.276-1.829.348-1.472 1.48-3.454 1.178-3.084M337.445 444.796l1.748 1.135M339.193 445.931l-1.537 2.668-2.626-.366.752-1.667 1.663-1.77M337.445 444.796l3.357-3.259M342.955 439.979l1.764 3.39M340.802 441.537l1.103-1.091 1.05-.467M339.193 445.931l2.973-2.718M340.802 441.537l1.364 1.676M342.166 443.213l1.286.704M344.72 443.369l-1.268.548M345.996 449.918l-.667-1.22-2.205-.761-.9-1.905 1.228-2.115M316.252 548.834l-.421.584.667 1.447.174.546-.17.749M219.74 405.393l11.825 21.853M189.211 447.728l1.712-.026 2.38-.33 2.118-.838 5.572-.152 7.545-1.016 2.496-.026 4.964.302M238.24 452.235l-17.6-6.31-4.642-.283" clip-path="url(#p84aab404ad)" style="fill:none;stroke:#000"/><path d="m227.445 434.94-3.831 1.22-1.741.762-4.875 7.567-1 1.153M231.565 427.246l-.682 1.13-2.031 4.445-1.407 2.12" clip-path="url(#p84aab404ad)" style="fill:none;stroke:#000"/><path d="m235.958 434.559-6.511-.329-2.002.71M231.565 427.246l3.454 1.016.464.457-.174.838.649 5.002M238.24 452.235l-1.451-11.275-.831-6.401M100.73 525.354l2.555-.128 5.281.381 2.554-.075 1.45.279.457.027M348.772 340.231l4.49-.836M353.873 339.22l.018.35M353.873 339.22l-.61.175M359.868 332.276l1.037 6.383M360.905 338.66l.02.366M379.196 337.239l4.783-.537M353.89 339.57l-.627-.175" clip-path="url(#p84aab404ad)" style="fill:none;stroke:#000"/></g><path id="PatchCollection_1" d="m358.335 377.002 5.484.241-.115 4.89-5.558-.153z" clip-path="url(#p84aab404ad)" style="fill:green;fill-opacity:.8"/><g id="PatchCollection_2"><path d="m360.626 410.4 4.577-.066-.054-2.876-4.577.067zM357.851 264.87l-.17-1.719 2.828-.216.172 1.719zM352.715 313.946l.216-.688 1.53.368-.215.689zM365.712 432.88l4.13-.24.345 4.532-4.13.241z" clip-path="url(#p84aab404ad)" style="fill:#90ee90;fill-opacity:.8"/></g><g id="PatchCollection_3"><path d="m359.423 394.082-.029 1.283-.77-.014.029-1.283zM347.972 319.317l-.027-.507.506-.02.026.506zM347.493 318.186l-.019-.362.78-.03.02.361zM347.464 317.64l-.024-.468.662-.027.025.47zM347.455 316.947l-.026-.483.565-.023.018.35-.175.007.007.133zM347.384 315.825l.624-.013.015.552-.624.013z" clip-path="url(#p84aab404ad)" style="fill:#a9a9a9;fill-opacity:.8"/><path d="m347.384 315.825-.01-.383.624-.013.01.383zM347.174 315.12l-.008-.421.863-.013.008.42zM347.737 314.617l-.06-.712.359-.022.015.181.58-.037.032.389-.575.037.012.14zM349.024 314.395l-.087-.425.499-.078.087.425zM347.065 312.522l.116-.463.811.155-.116.464zM347.225 311.995l.09-.408.596.101-.092.409zM347.522 310.973l.114-.42.733.152-.114.42zM349.633 310.694l-.21.749-.294-.064.21-.749zM350.25 310.89l.06-.36.399.051-.06.36zM350.888 311.1l.145-.654.95.161-.146.654zM350.613 311.316l.776.095-.072.447-.776-.096zM350.157 313.078l.247-1.29.879.13-.247 1.288z" clip-path="url(#p84aab404ad)" style="fill:#a9a9a9;fill-opacity:.8"/><path d="m349.444 312.973.247-1.289.713.104-.247 1.29zM350.99 314.573l-.03.305-.42-.076.11-.337v-.203l-.117.045-.058.222-.16-.076.13-.26.146-.318.356.038-.03.102.21-.007.197.16.072.088-.029.216-.16.133-.137-.083zM350.65 314.923l.463.089-.1.397-.463-.09zM351.258 316.656l-1.291-.197.094-.47 1.29.197zM349.437 316.853l.09-.419.349.058-.09.418zM350.845 317.164l.006-.455.617.006-.006.455zM349.575 317.622l.036-.549.638.032-.035.548zM349.807 318.688l.046-.412.827.07-.045.412zM351.04 319.374l-.005-.42.595-.006.006.42zM350.584 319.603l.616.032-.017.254-.617-.032zM348.879 319.406l.006-.177.225.007-.006.176zM349.14 320.155l.102-.984.657.052-.102.984zM350.14 319.98l1.772.09-.065.988-1.478-.074.034-.52-.294-.015zM349.274 325.86v-.476h.544v.477zM348.668 331.382l-.028-.398.573-.032.029.398zM348.45 329.274l.02-.394.682.025-.02.394zM348.32 328.493l-.032-.456.58-.032.033.456zM351.186 328.429l-.051-.75.585-.03.05.75zM350.46 328.81l-.012-.342.465-.013.012.342zM350.22 330.51l-.024-.427.509-.023.025.427zM350.685 329.674l-.022-.175.384-.038.023.175zM351.527 329.788l-.013-.34.668-.02.012.341zM351.44 330.277l-.004-.368.74-.006.004.368zM350.918 330.97l-.291.032-.056-.376.162-.018-.018-.119.129-.015z" clip-path="url(#p84aab404ad)" style="fill:#a9a9a9;fill-opacity:.8"/><path d="m350.918 330.97-.074-.496.234-.027.074.495zM351.382 331.262l-.03-.576.943-.038.03.575zM351.062 331.82l-.021-.394.47-.02.021.394zM350.352 332.646l-.037-.445.41-.025.036.444zM349.652 334.478l-.023-.788.706-.015.022.788zM350.022 336.46l-.033-.438.567-.031.032.436zM353.02 337.698l-.573.022.017.338-.569.021-.025-.53-.092.003.027.547-.6.022-.025-.525-.145.005.033.676-.625.023-.06-1.237.595-.022.017.373.163-.006-.024-.497.605-.022.025.508.086-.003-.022-.449.885-.033.014.279.267-.01zM351.494 339.145l-.033-.862 1.059-.031.033.861zM353.805 370.459l-.087-.235.197-.056.087.234zM356.297 374.71l-.058-.376.428-.05.058.375zM355.957 381.432l.028-.451.308.015.009-.13.531.026-.036.581zM356.204 380.819l.01-.415-.268-.005.007-.305.897.015-.016.72zM355.963 383.377l.03-.799.864.026-.03.798zM353.417 383.39l.007-.539.595.006-.007.539zM353.598 383.948l.022-.476.422.015-.022.476zM353.41 385.02l-.017-.163.167-.013.016.164zM352.713 384.92l-.03-.496.458-.02.03.495zM353.718 389.043l.036-.622.516.023-.036.623zM353.747 389.64l.007-.235.279.007-.007.235zM355.597 389.678l.004-.45.98.007-.005.45zM355.32 390.39l.03-.474.661.032-.03.473zM356.01 392.453l-.007.629-.138.031-.152-.14h-.138l-.087-.056-.015.126-.195-.006-.008-.35.21-.037-.057-.09.123-.063.109.02.036-.077zM355.59 392.364l.014-.495.48.01-.014.496zM353.714 395.243h.283v.127h-.283zM352.916 395.294l.029-.596.5.018-.03.597zM352.85 393.899l.827.016-.017.634-.7-.014.009-.33-.127-.001zM355.535 394.691l.025-.481.805.031-.024.482zM355.542 395.402l.015-.635.345.006-.014.635zM355.833 396.653l.007-.52.43.004-.006.52zM355.404 396.711l.849.011-.003.188-.17-.002-.007.425-.645.036-.035-.045zM354.171 397.034l.011-.215.32.013-.011.214z" clip-path="url(#p84aab404ad)" style="fill:#a9a9a9;fill-opacity:.8"/><path d="m355.391 398.028.037-.66.744.007-.035.642zM354.476 396.018h-.232v-.146h.232zM354.476 396.018v-.362h.247v.362zM352.785 397.294l.007-.577.776.007-.006.577zM353.152 398.667l-.004-.225.011-.501.305.017-.009.273.376.028.01.437zM354.38 400.352l.048-.68 1.352.053-.019.357-.005.319zM352.445 400.939l-.009-.415.776-.013.009.415zM353.587 402.517l-.006-.215.45-.01.006.215zM355.452 402.39l-.008-.477.494-.006.007.477zM354.371 402.573v-.52h.794v.52zM355.234 403.272l.007-.61.674.007-.008.61zM354.657 403.227l.011-.418.327.006-.011.419zM354.545 403.574l-.41-.02.014-.224.41.02zM354.97 403.732l.023-.42.598.025-.023.42zM353.123 404.507l.01-.46.559.01-.01.46zM352.274 403.596l.036-.498.404.022-.036.499zM352.15 404.224l.02-.386.696.026-.019.386zM354.086 407.394l-.806-.12.105-.54.806.119z" clip-path="url(#p84aab404ad)" style="fill:#a9a9a9;fill-opacity:.8"/><path d="m354.681 407.565-.61-.09.137-.711.61.09zM354.097 410.572l.069-.557.936.09-.07.556zM353.64 412.372l.028-.358.675.04-.028.359zM352.295 417.784l.091-.538.27.035.035-.207.422.055-.036.21.398.051-.09.535zM351.423 416.937l.044-.394.361.031-.043.393zM351.217 420.4l-.269-.076.105-.281.268.076zM351.608 420.178l.646.134-.078.288-.646-.133zM351.202 421.13l.143-.527.522.107-.142.528zM350.107 421.41l.602.108-.084.355-.602-.107zM351.587 422.902l.078-.33.841.152-.078.33zM351.485 423.492l-.45-.114.13-.39.45.114zM351.37 424.184l.144-.583.768.146-.144.583zM349.534 423.79l.098-.316.456.107-.097.318zM350.608 425.016l.148-.667 1.414.242-.148.666zM351.722 425.673l.08-.337.623.114-.08.336z" clip-path="url(#p84aab404ad)" style="fill:#a9a9a9;fill-opacity:.8"/><path d="m351.086 425.841.145-.61.571.105-.145.61zM350.658 425.835l-.205-.048.072-.236.206.049zM347.876 432.047l-.19-.375.377-.146.19.375zM346.664 432.936l-.188-.425.339-.115.188.425zM343.868 433.266l.597-.258.29.513-.383.165-.066-.116-.214.093zM343.022 434.371l-.224-.47.537-.197.225.47zM358.033 373.777l.71-.036.015.228.16-.008.028.421-.137.007.016.25-.368.02-.015-.218-.118.006-.023-.352-.245.013zM359.023 373.131l.57.011-.017.649-.57-.011z" clip-path="url(#p84aab404ad)" style="fill:#a9a9a9;fill-opacity:.8"/><path d="m358.653 372.724.95.019-.01.4-.95-.02zM358.022 371.968l.01-.559.835.013-.01.559zM359.32 372.019l.006-.337.544.007-.006.336zM363.182 372.33l-.308.017-.031-.422-.79.043-.047-.647.689-.038-.014-.188.41-.022zM362.23 373.175l-.007-.528.653-.007.007.528zM360.365 373.771l.02-.53.667.019-.02.53zM359.422 376l-.007-.566.755-.006.007.566zM361.243 376.026l.031-.544.58.025-.03.544zM362.1 376.197l-.062-.584.783-.063.062.583zM360.677 380.578l.181-.127-.014-.222-.167-.127-.217.127.014.241zM359.814 380.356l.065-.299.321.054-.065.299zM360.1 386.505l.051-1.092 1.278.045-.05 1.093zM357.954 386.063l.95.018-.01.406-.458-.009-.003.15-.31-.007.003-.15-.182-.003zM359.34 385.888l.45-.003.01.977-.45.003zM358.963 385.89l-.004-.374.828-.006.003.375zM358.013 385.853l.005-.337.55.007-.004.336zM358.96 384.128l.018-.35.203.009.013-.25.324.013-.032.599zM361.5 383.238l-.046 1.215-.475-.014.01-.233-.255-.007-.016.436-.502-.015.048-1.257.51.014.004-.1-.085-.003.008-.191.348.01-.007.2-.111-.004-.004.087.282.008.006-.154zM362.452 384.26l.009-.54.551.007-.008.539zM362.042 385.408l.005-.376.312.004.003-.19.553.005-.009.567zM362.03 386.147l.044-.661.371.019.001.126.092.014-.005.278.119-.005-.018.259zM357.607 392.33l.033-.517.783.038-.033.517zM357.565 392.988l.042-.658.783.038-.042.658zM357.644 391.636l.009-.47.45.006-.009.47zM358.878 391.375l.008-.315.638.013-.008.315zM358.994 389.921l.043-.635.586.031-.044.635zM357.891 389.127l.027-.71 1.349.039-.026.71zM359.676 389.083l.022-.483.517.018-.022.483zM362.368 389.73l.004-.373.74.006-.004.374zM362.302 390.556l.014-.553.653.012-.014.554zM362.063 391.203l.015-.568.964.019-.015.569zM361.551 394.794l.037-.474.428.026-.037.474zM360.695 394.934h-.195v-.35h.195zM360.057 394.7l.007-.534.403.004-.008.533zM360.55 396.204l.022-.337.18.01-.021.336zM358.729 395.213l.044-.901.466.017-.044.901zM358.94 396.356l-.015-.559.28-.005.014.559zM357.844 396.254l.019-.452.602.019-.019.452zM359.72 398.956l-.008-.457.657-.008.007.457zM359.081 398.81l.008-.507.508.007-.008.506zM358.653 398.632l.007-.514.374.004-.007.514zM359.457 397.594l1.023.007-.003.33-.498-.003-.004.349-.28-.003.004-.351-.245-.002zM360.822 398.385l.01-.489.798.013-.01.488zM360.663 400.931l.006-.825.603.003-.004.662h-.23l-.002.162zM360.329 400.975l-.022.22-.42-.032.021-.22zM359.93 400.594l.022-.565.645.02-.022.565zM359.465 401.28l.327.006-.006.23-.326-.007zM359.074 400.969l.036-.807.78.027-.036.807zM358.25 401.67h.574v.558h-.457v-.17h-.118zM359.828 402.34l-.004-.16.312-.005.004.159zM360.873 402.988l-.01-.181.327-.013.01.181zM360.8 403.845l.013-.526.689.013-.012.526zM357.472 404.083l.037-1.08 1.431.037-.018.534.338.009-.018.545zM369.328 424.064l.03-.527.446.019-.013.225.166.007-.017.302zM368.407 424.298l.058-.418.388.04-.059.42zM366.845 423.684l.58.03-.034.538-.262-.012.008-.133-.318-.015zM366.606 424.663l.42.04-.047.379-.151-.015.017-.135-.27-.026zM365.766 425.187l.058-.584.516.04-.059.584zM366.306 425.999l-.018-.276.334-.015-.026-.414.547-.026.043.689zM367.391 425.124l.064-.407.53.063-.064.407zM368.357 425.918l-.686-.03.036-.66.686.03zM368.421 427.346l.022-.525.616.02-.02.524zM368.146 428.68l.074-.46.827.102-.074.459zM367.406 428.813l.033-.284.428.038-.033.284zM367.464 429.593l.007-.385.443.007-.008.385zM365.246 426.97l.907-.057.048.587-.614.038-.012-.153-.083.005-.016-.19-.21.014zM366.138 428.164l-.043-.553.581-.035.044.553zM365.218 428.754l.019-.444.946.031-.025.577-.524-.018.005-.132zM366.08 429.763l.022-.374.324.014-.022.375zM365.151 429.725l.09-.49.776.109-.09.49zM360.766 429.38l-.063-.506.798-.076.063.505zM359.75 428.998l.09-.542.647.082-.091.543zM359.91 428.357l.05-.436.58.05-.05.437zM360.642 427.684l.45.006-.004.248-.45-.006zM360.135 427.481l.009-.3.565.013-.008.3zM360.389 426.91l-.024-.515.726-.025.023.514zM360.222 426.288l.033-.48.485.026-.032.478zM360.323 425.602l.054-.432.667.064-.053.431zM360.476 424.84l.132-.81.812.102-.132.81zM361.375 424.656l.095-.68.566.06-.094.68zM362.014 424.522l.07-.478.617.07-.07.478zM363.356 424.529l.014-.457.506.012-.015.457zM363.989 424.843l.669.032-.037.601-.503-.023.021-.356-.165-.007zM363.283 425.88l-.007-.475.275-.003.007.476zM363.93 426.033l.005-.45.588.007-.006.45zM362.405 426.535l-.014-.228.163-.009.014.23zM363.639 426.833l.109-.52.754.121-.109.52zM362.986 429.88v-.539h.71v.422h-.423v.118zM354.733 427.65l.11-.544.703.108-.109.543zM355.873 427.046l.108-.698.56.067-.108.698zM354.353 426.414l1.218.181-.095.494-1.22-.181z" clip-path="url(#p84aab404ad)" style="fill:#a9a9a9;fill-opacity:.8"/><path d="m354.353 426.414.096-.495 1.219.18-.097.496zM354.556 425.89l.065-.433.766.089-.066.433zM356.258 425.328l.624.068-.067.47-.152-.016-.029.194-.357-.039.043-.293-.115-.013zM356.114 424.99l-.486-.06.087-.534.486.062zM356.498 424.978l.026-.378.616.032-.025.378zM357.006 425.886l.023-.348.624.032-.023.348zM358.323 424.613l.04-.416.245.018-.04.416zM358.787 424.537l-.009-.362.516-.01.008.362zM359.386 424.537l.106-.342.547.13-.106.342zM358.709 426.545l.009-.577.551.006-.008.577zM358.354 426.627l.812-.02.016.52-.812.02zM358.136 428.284v-.495h.856v.495zM358.187 428.887l.028-.52.762.031-.028.52zM355.401 430.297l.011-.456.653.012-.011.456zM354.45 428.817l.097-.433 1.335.23-.096.432zM354.182 429.243l.085-.373.841.146-.084.373zM354.197 430.341l.021-.901.542.01-.022.901zM346.628 440.259l-.527-.918.397-.175-.086-.148-.347.153-.734-1.28-1.536.675.223.39-.072.032.966 1.685.526-.23-.495-.862.422-.186-.448-.781.155-.068 1.098 1.913zM343.614 438.56l-.663-1.194 2.078-.884.6 1.08-.493.21.064.113zM345.03 442.293l-.34-.578.763-.343.339.578zM345.871 442.965l-.248.084-.225-.514.249-.083zM349.158 375.76l.022-.552.422.013-.021.552zM350.466 397.236l.016-.394.55.024-.003.405zM348.186 398.447l.011-.511.901.053-.005.264.007.242zM328.9 390.686l.153-.306.748.286-.153.306zM296.453 407.02l.443.273-.293.363-.443-.272zM297.462 407.305l-.196-.171.225-.197.196.171zM326.42 391.994l.044-.159.355.077-.044.159zM330.413 400.709l.244-.414.747.336-.244.414zM327.355 402.56l-.33-.178.349-.496.33.178zM327.32 401.506l-.175-.088.146-.221.173.086zM326.985 402.343l-.304-.17.232-.318.304.171zM326.017 407.198l.121-.295.523.166-.122.294zM326.343 415.109l-.362-.293.377-.358.362.292zM345.13 399.87l.017-.402.399.013-.017.402zM345.678 399.896l.003-.403.387.002-.004.403zM346.106 399.918l.021-.39.508.021-.022.391zM349.753 400.09l.03-.492.675.032-.03.493zM349.427 400.738v-.45h.217v.45zM350.036 400.783l.029-.584.533.02-.029.584zM350.399 402.421l.014-.323.552.02-.015.322zM349.717 403.272l.004-.165.327.006-.005.165zM350.355 403.812l.037-.705.706.028-.037.705zM349.97 405.951l.097-.589.61.076-.097.59zM348.81 405.97l.052-.434 1.044.095-.051.435zM348.374 406.542l.306.012-.01.186-.305-.013zM339.73 434.754l-.232-.367.704-.342.232.366zM321.161 440.705l-.127-.253.363-.14.127.254zM319.275 441.385l-.109-.26.316-.102.109.26zM321.227 442.407l-.203-.444.415-.146.203.445zM320.385 442.985l-.199-.422.668-.241.199.422zM356.924 473.391l-.273-.232.261-.236.274.233zM357.926 473.067l.413.33-.408.393-.414-.33zM343.365 449.984l.134-.052.1-.094.053-.12-.004-.127-.06-.118-.106-.088-.137-.045-.147.003-.134.052-.1.093-.053.12.004.129.06.117.107.088.137.046zM342.603 450.371l.134-.052.101-.093.052-.12-.004-.128-.06-.117-.106-.089-.137-.046-.147.004-.133.053-.101.093-.052.12.003.128.06.117.107.088.137.046zM343.72 450.79l.135-.052.1-.093.053-.12-.005-.128-.06-.117-.106-.088-.136-.046-.147.003-.134.052-.1.094-.053.12.004.128.06.117.106.088.137.046zM342.883 451.066l.134-.052.1-.093.053-.12-.004-.128-.06-.117-.107-.088-.136-.046-.147.003-.134.053-.1.093-.053.12.004.128.06.117.106.088.137.046zM344.207 450.466l-.566-1.212 1.338-.478.566 1.212zM343.216 447.708l-.478-.996.55-.203.48.997zM341.17 447.29l-.333-.712.716-.257.334.71zM341.29 444.658l.893-.42.338.553-.892.418zM342.828 443.198l-.24-.294.464-.292.24.293zM337.951 444.893l.46-.354.263.261-.114.089.127.126-.215.166-.194-.192-.13.1zM337.025 445.828l1.196.993-.341.314-.18-.148-.243.225-.075-.062-1.111 1.025-.602-.5 1.128-1.04-.107-.088.26-.24-.234-.194zM335.778 451.125l.445-.887 1.306.501-.445.888zM333.297 450.852l.402-.745 1.016.419-.402.745zM333.856 453.214l.143-.223.283.14-.144.223zM331.614 453.316l-.223-.295.537-.31.223.294zM332.883 456.052l.148-.386 2.191.64-.147.387zM331.733 449.307l.157-.21.204.116.628-.849.286.163-.269.363.28.16-.515.694zM330.667 450.005l-.254-.116.254-.426.254.116zM303.108 472.712l.02-.255.319.02-.02.254zM303.035 473.083l.01-.217.384.013-.01.217zM299.076 472.206l-.037-.27.363-.04.036.272zM299.25 473.291l-.138-.997.806-.085.138.997zM288.016 452.585l.312-.12.134.266-.312.12zM287.276 452.706l-.116-.317.22-.062.116.317zM286.833 452.363l-.091-.339.493-.101.092.339zM294.208 441.358l.123-.3.566.177-.123.3zM289.983 441.478l-.143.083-.054-.072-.205.118-.19-.251.348-.201zM289.585 440.95l.534-.308.398.528-.534.308zM288.658 441.358l-.356-.47.522-.302.355.47zM277.873 437.85l.588.59-.545.416-.588-.59zM276.923 438.657l-.206-.25.319-.202.206.248zM274.228 455.522l-.356-.566.466-.223.355.565zM274.04 457.623l.372-.303.464.439-.372.302zM264.416 405.172l-.385-.054.061-.336.386.054zM265.167 405.032l-.527-.114.093-.325.526.115zM262.658 405.463l.784.228-.198.518-.783-.229zM263.347 394.752l-.306-.203.697-.806.306.202zM262.796 395.805l-.266-.207.363-.356.266.208zM265.23 382.684h-.334v-.31h.334zM265.31 383.008l.022-.597.35.01-.021.597zM265.397 381.713l.014-.408.479.012-.014.409zM344.588 371.55l-.044-.393.377-.031.044.393zM345.124 371.468l-.015-.378.391-.013.016.379zM345.683 371.405l-.016-.384.392-.013.016.384zM346.241 371.334l-.011-.148.11-.007-.02-.234.282-.017.03.382zM267.29 354.727l-.005-.338.478-.006.006.338zM268.654 355.623l.237-.366.551.273-.236.366zM263.169 348.008l-.253-.67.562-.163.254.67zM262.832 348.07l-.188-.648.188-.042.189.648zM263.057 348.552l-.065-.381.212-.028.066.381zM263.08 349.645l.022-.491.349.013-.024.49zM264.044 348.533l-.152-.603.519-.1.153.603zM265.299 347.212l-.087-.508.306-.04.087.508zM256.103 340.847l-.353-.087.123-.387.354.086zM282.083 351.172l-.344.006-.004-.136.205-.004-.002-.083.14-.002zM282.009 351.656l.018-.46.61.02-.019.459zM282.451 350.17l.023-.215.232.019-.022.215zM281.247 351.167l.007-.496.423.005-.008.496zM290.29 338.61l.026-.288.37.026-.026.287zM289.877 338.172l.005-.438.696.006-.005.438zM315.468 353.751l.134-.456.566.127-.134.456zM346.98 335.054l-.018-.462.638-.02.018.463zM346.965 334.47v-.42h.61v.42zM346.341 335.194l-.029-.54.461-.02.03.54zM346.494 334.52l-.04-.293.305-.032.04.294zM346.374 326.446l-.087-.686.612-.06.087.687zM345.561 325.805l-.07-.484.565-.063.071.484zM345.061 324.624l-.061-.442.604-.064.061.442z" clip-path="url(#p84aab404ad)" style="fill:#a9a9a9;fill-opacity:.8"/><path d="m345.119 325.043-.058-.42.604-.063.059.419zM330.192 332.87l-.327-.248.271-.274.327.248zM330.823 332.393l.522.388-.296.306-.522-.388zM328.922 331.892l.178-.293.587.273-.177.293zM345.823 319.976l.442.006-.008.438-.442-.006zM345.446 319.836l-.03-.47.598-.028.018.301-.137.007.01.168zM345.507 317.572l.61-.024.02.385-.101.004.009.173-.509.02zM345.41 317.906h-.27v-.165h.27zM345.656 316.165l-.022-.495.362-.012.023.495zM344.51 315.683l-.005-.35.748-.006.004.35zM345.438 314.514l-.006-.401.508-.007.006.402zM343.603 313.371v-.19h.29v.19zM343.334 313.022l-.029-.603.69-.025.028.603zM328.869 316.826l.528.502-.27.219-.118-.111-.273.22-.411-.39zM329.104 316.61l.451-.362.606.577-.451.363zM328.857 316.696l-.32-.334.497-.363.32.333zM329.52 314.038l.354.409-.187.124-.353-.41z" clip-path="url(#p84aab404ad)" style="fill:#a9a9a9;fill-opacity:.8"/><path d="m329.52 314.038.39-.258.355.409-.391.258z" clip-path="url(#p84aab404ad)" style="fill:#a9a9a9;fill-opacity:.8"/><path d="m329.483 313.284.428.496-.39.258-.428-.495zM346.651 309.357l.058-.286.196.03-.058.286zM346.18 309.11l-.174-.026.022-.118.174.026zM346.122 308.931l.07-.493.523.057-.07.493zM344.986 304.737l.393-.356.402.34-.393.355z" clip-path="url(#p84aab404ad)" style="fill:#a9a9a9;fill-opacity:.8"/><path d="m344.986 304.737-.493-.417.392-.355.494.416zM344.588 305.055l.203-.178.167.146-.204.178z" clip-path="url(#p84aab404ad)" style="fill:#a9a9a9;fill-opacity:.8"/><path d="m344.588 305.055-.385-.337.203-.178.385.337zM267.602 293.589l-.205-.4.58-.228.206.399zM267.429 289.321l-.059-.4.346-.038.058.4zM268.132 289.182l-.08-.337.28-.05.079.336zM347.598 304.306l.64-.473.314.325-.175.13-.055-.057-.407.301-.183-.19-.059.043zM348.587 304.053l-.225-.292.141-.084.225.292zM347.977 303.678l.283-.203.146.156-.283.203zM347.397 304.034l-.267-.265.37-.286.267.265zM354.855 279.032l-.283-.667.275-.09.283.667zM356.157 275.53l.566 1.498-.472.137-.566-1.499zM355.751 277.34l-.696-1.785.474-.142.696 1.785zM355.661 277.316l-.425.122-.279-.738-.072.021-.398-1.054.499-.144zM354.583 277.543l-.116-.407.418-.091.116.406zM355.889 274.99l.013-.31.118.004.017-.389.804.027-.03.699zM359.49 272.377l.85-.083.076.599-.849.082zM358.598 269.56l1.388-.113.076.72-.79.065-.03-.294-.598.05zM358.704 268.925l-.116-1.486 1.245-.075.116 1.486zM356.244 267.534l.21-.08.16-.144.084-.186-.004-.2-.09-.184-.165-.139-.212-.073-.23.002-.21.08-.158.144-.085.186.004.2.09.184.165.14.213.073zM356.353 268.683l.21-.08.159-.143.084-.186-.003-.2-.09-.184-.165-.14-.213-.073-.229.003-.21.08-.159.143-.084.186.004.2.09.185.165.14.212.073zM355.961 272.557l-.377-3.327 1.518-.132.377 3.327zM353.335 266.004l-.058-1.245 1.137-.04.058 1.244zM352.493 271.757l-.036-.355.405-.032.037.355zM357.677 262.139l-.065-.68.748-.055.065.68zM355.696 261.3l-.1-.815.935-.09.101.817zM355.232 262.279l-.037-.374.493-.038.038.374zM371.03 257.9l.199-.537.849.242-.2.536zM374.106 259.259l-.704-.207.37-.965.704.207zM367.834 261.16l.066-.133.552.21-.067.134zM365.73 260.97l.275-.527.37.148-.276.528zM362.2 262.091l-.028-.292.226-.017.03.292zM364.518 266.851l.157-.002.004.22-.157.001zM364.344 266.756l.032-.349.275.02-.03.348zM363.082 266.213l.015-.205.235.012-.014.206zM363.456 266.781l.01-.47.528.01-.01.47zM362.9 267.27l-.017-.414.591-.019.018.415zM367.252 272.432l.097-.226.348.114-.097.226zM367.368 273.486l.377.095-.052.158-.377-.095zM367.324 273.302l.232-.59.478.143-.232.591zM415.967 288.555l.449-.217.173.276-.177.086.093.147-.211.102-.093-.148-.061.03zM414.675 289.825l-.218-.273.302-.184.217.273zM413.507 290.942l-.08-.692.51-.045.079.692zM353.128 313.114l.165-.557 1.407.317-.164.558zM353.39 315.35l.031-.347.294.02.013-.15.295.02-.044.497zM354.587 315.438l.014-.52.25.005-.015.52zM354.326 316.315l-.051-.705.391-.022.051.705zM354.27 320.642l.113-.532.424.068-.112.533z" clip-path="url(#p84aab404ad)" style="fill:#a9a9a9;fill-opacity:.8"/><path d="m353.64 320.54.112-.532.63.102-.111.532zM353.205 321.176l.08-.411.799.12-.081.411zM354.099 321.332l.056-.373.491.056-.023.16.168.02-.032.212zM356.114 321.633l-.61-.082.083-.464.609.082zM356.23 321.532l.101-.47.692.114-.101.47zM356.65 320.852l.048-.272.428.057-.047.272zM358.116 320.223l-.297-.12.107-.202.297.12zM359.85 321.582l.036-.317.338.03-.037.317zM359.437 322.014l.096-.366.719.146-.098.366zM364.464 322.916l.09-.5.414.056-.09.5zM365.03 323.132l.062-.439.58.064-.061.438zM366.394 323.284l-.505-.07.08-.439.505.07zM366.981 323.354l-.508-.068.094-.54.51.068zM368.393 323.846l.05-.343.466.053-.05.343zM366.209 324.576l.106-.37.551.12-.106.37zM365.15 325.008l.02-.177.29.026-.02.176zM365.324 324.399l.084-.368.58.102-.084.367zM363.8 324.544l.097-.326.334.076-.097.327zM363.837 324.138l.08-.42.522.076-.08.42zM363.031 324.69l.105-.403.574.115-.106.403zM361.892 323.944l.116-.606.555.082-.116.606zM361.218 323.695l.099-.59.417.053-.025.15.117.014-.05.303-.114-.015-.024.139zM359.871 323.074l.61.063-.07.507-.61-.064zM359.167 323.557l.145-.629.498.088-.145.628zM358.456 323.353l.163-.579.373.08-.056.202.114.025-.048.173.128.027-.058.206zM356.568 323.567l.617.07-.039.261-.617-.07zM356.162 323.288l.106-.694.704.083-.107.693zM354.974 323.36l.12-.728.274.035.063-.386.548.069-.183 1.114zM353.258 323.389l.128-.7 1.238.173-.084.456-.933-.13-.044.244zM354.156 327.171l-.058-.496.566-.05.058.495zM354.678 327.64l-.021-.469.42-.015.022.47zM355.462 327.717l.025-.182.653.07-.025.182zM356.325 327.94l.01-.191.326.012-.01.191zM353.866 329.832l-.047-.355.529-.054-.106-.795.43-.044.04.287.229-.023.115.863zM356.006 330.556l-.03-.686.412-.013.028.686zM354.481 333.337l.54-.051.083.676-.424.04-.034-.281-.116.01zM358.168 333.934l-.05-.655.878-.05.05.654zM358.654 335.006l-.154-.691.702-.12.136.613-.406.07.017.078zM357.747 335.42l.522-.102.092.362-.522.102zM356.035 335.998l-.13-.813.76-.093.13.812zM354.675 336.178l-.11-.832.591-.06.026.191.36-.036.084.642zM372.246 346.681l.073-.19.174.05-.073.191zM373.457 346.618l-.302-.106.247-.54.302.106zM401.23 373.477l-.025-.448.468-.02.024.449zM401.225 374.048l-.043-.336.256-.025.044.336zM358.293 363.99l-.03-.318.326-.023.03.318zM357.328 364.326l-.05-.56.617-.042.051.558zM358.63 370.196l-.034-.379 1.008-.07.035.379zM359.9 369.63l-.03-.449.617-.032.03.45zM359.32 369.091l-.037-.29.595-.058.036.29zM362.047 369.891l-.029-.394.285-.016.029.394zM362.352 369.872l-.014-.527.625-.013.014.527zM362.031 368.956l-.02-.264.19-.01-.014-.19.194-.011.034.453zM364.851 375.907l.537.013-.014.45-.536-.012zM366.202 376.414l-.144.003-.005-.14-.267.008-.012-.353.411-.01zM366.237 375.856l-.039-.465.69-.044.038.465zM364.819 377.402l.508-.012.009.285-.508.013zM365.585 381.89l-.609.011-.004-.159-.12.002-.006-.302.119-.001-.004-.144.611-.01zM364.443 386.913l.016-.61.638.013-.015.609zM365.234 387.662l.014-.472.587.012-.013.472zM365.096 389.205l.022-.524.79.025-.021.524zM364.567 389.28l.021-.546.478.015-.021.546zM364.392 389.966l.051-.571.607.041-.051.572zM364.392 391.052v-.324h.443v.324zM364.407 392.36l-.007-.368.64-.01.008.368zM362.118 405.494l-.022-.419.624-.025.022.418zM360.01 405.433l-.511.016-.014-.369.51-.015z" clip-path="url(#p84aab404ad)" style="fill:#a9a9a9;fill-opacity:.8"/><path d="m359.64 406.126-1.555.044-.045-1.244 1.77-.05.006.13-.377.01.019.496.668-.018.015.427-.509.014zM360.17 406.474l.145-.971.31.035-.144.972zM357.486 406.792l.006-.254.334.006-.006.254zM361.683 412.262l-.073-.623.426-.037.073.622zM359.593 411.03v-.56H360v.56zM357.054 412.134l1.074-.037.024.51-1.074.038zM357.265 418.808l-.104-1.283 3.497-.216.103 1.283zM360.7 422.36l3.926-.324-.195-1.806-3.925.324zM359.725 420.82l-2.253.168.13 1.326.311-.023.018.175 1.391-.104-.016-.164.55-.041zM356.804 421.42l-.051-.908.43-.018.05.908zM355.766 422.239l-.058-1.003.787-.035.058 1.003zM362.408 423.169l-.045-.568.904-.055.045.568z" clip-path="url(#p84aab404ad)" style="fill:#a9a9a9;fill-opacity:.8"/><path d="m360.848 423.265-.045-.569 1.56-.095.045.568zM364.269 423.134l-.052-.526.827-.064.052.527zM365.314 422.855l.033-.51.769.038-.033.51zM366.257 422.893l.048-.634.885.05-.048.635zM431.399 397.954l-.08-.667.623-.057.08.667zM430.169 398.175l.295-.758.281.085-.063.16.179.054-.076.196.339.102-.156.4zM429.077 399.992l-1.756-.45.32-.957 1.756.451zM429.715 399.833l.051-.412.542.05-.05.413zM430.289 399.243l.092-.414.855.146-.092.414zM431.486 399.58l.086-.47.404.056-.086.47zM432.139 399.827l.132-.302.34.114-.131.302zM432.857 401.14l-.726-.456.198-.24.725.457zM372.942 424.35l-.043-.45.375-.028.044.45zM370.76 424.288l.06-.597.41.031.01-.1.459.034-.026.262-.245-.019-.044.437zM371.266 426.731l-.013-.219.276-.013.013.22zM370.41 428l-.022-.723.687-.016.022.724zM375.92 433.705l-.01-.669 1.102-.013.006.317-.16.002.003.192-.168.001.002.16zM375.374 433.843v-.26h.269v.26zM375.578 434.948v-.419h.26v.419zM374.17 433.335l-.007-.634.549-.005.007.634zM369.629 431.513l.055-.225.203.038-.055.225zM369.31 431.126l.115-.559.437.07-.116.558zM367.292 431.694l.04-.552.706.04-.04.551zM366.93 431.396l.025-.413.36.017-.025.413zM366.24 431.716l.055-.425.425.042-.055.425zM365.558 431.21l.014-.426.508.013-.01.332-.154-.004-.007.203-.131-.004.008-.233-.072-.002-.004.124zM364.864 433.034l-.03-.718 1.416-.045.01.24-1.081.033.02.48zM362.47 431.773l-.008-.324.23-.004.007.324zM362.455 431.36v-.578h.667v.578zM361.816 431.532l-.007-.394.51-.007.007.393zM361.185 431.417l-.015-.501.459-.01.014.501zM360.953 432.331l-.03-.578.328-.012.029.578zM356.604 432.957v-.324h.326v.324zM356.749 431.852l-.022-.602 1.139-.031.022.602zM355.865 431.246l.654-.013.012.431-.447.01-.004-.138-.207.004zM355.102 431.897l.03-.305.494.038-.03.305zM353.57 432.373l-.202-.654.371-.088.093.298.2-.048.11.356zM351.482 433.916l-.239-.34.508-.273.238.34zM350.952 435.141l.176-.619.668.146-.177.62zM350.734 436.861l.066-.596.358.03-.066.597zM349.95 437.046l.045-.377.421.038-.044.377zM352.79 456l-.206-.388.464-.19.208.387zM353.683 456.559l.238.698-.262.069-.046-.134-.312.082-.11-.319.167-.043-.084-.246zM353.741 456.507l-.036-.24.145-.018.036.242zM436.567 456.13l.769-.102.075.436-.77.101zM439.494 457.542l-.343-.263.308-.305.209.16-.074.075.133.102zM438.097 456.796l.9-.997.828.573-.9.996zM440.36 457.952l.068-.23.37.083-.067.229zM437.662 458.504l-.207.547-1.574-.457.207-.547zM437.394 459.26l.087-.233.552.158-.088.233zM438.888 459.5l-.603-.345.537-.717.603.345zM437.771 459.983l.177-.344.806.317-.178.345zM439.302 460.688l-.276-.305.29-.2.276.304zM352.596 398.608l-.01.25.455.018-.003-.237zM399.137 531.997l-1.148.185.402 1.792 2.259-.117-.076-1.977z" clip-path="url(#p84aab404ad)" style="fill:#a9a9a9;fill-opacity:.8"/></g></g></g><defs><clipPath id="p84aab404ad"><path d="M90 99.824h558v527.552H90z"/></clipPath></defs></svg>