<svg xmlns="http://www.w3.org/2000/svg" width="960" height="960" viewBox="0 0 720 720"><defs><style>*{stroke-linejoin:round;stroke-linecap:butt}</style></defs><g id="figure_1"><path id="patch_1" d="M0 720h720V0H0z" style="fill:#fff"/><g id="axes_1"><path id="patch_2" d="M90 570.964h558V156.236H90z" style="fill:#fff"/><g id="LineCollection_1"><path d="m371.908 344.926.3-.24M371.908 344.926l-4.417 4.287M371.908 344.926l.702.595.987.692 2.749 1.679M371.908 344.926l-.103-.355M398.47 360.572l-.878 4.054M398.47 360.572l.187-.281M398.47 360.572l.523.129M398.47 360.572l-6.92-3.95M179.483 367.624l-8.79-1.258-4.033-.445M111.772 369.843l9.317-3.16 2.363-.546 3.774-.165 39.434-.051M122.285 251.306l5.402 3.272.397.476.526 1.068 1.022 1.614.577 1.435.317 1.473 1.354 10.216.49 3.1 1.974 15.723.59 3.183 1.614 4.422 3.487 7.572.893 1.119 4.12 4.243 2.277 2.084 1.75 1.526.786 1.066 2.37 3.801.482.902 1.211 3.298 1.152 2.655 1.297 4.142 1.902 3.905.576 1.779.807 3.693.49 1.436 3.27 6.036 5.245 8.97.259.826.1 1.029-2.362 8.55M398.993 360.7l8.452 2.736 2.227.757 2.061 1.118 1.801 1.27 1.815 1.602 19.795 20.316 3.805 3.048 1.713 1.237 2.643 1.675 4.159 1.581 4.408 1.237 3.142.61 2.179.05 1.943-.22 4.493-.706M509.445 382.17l-2.362.967-3.804 1.499-10.403 4.09-7.03 2.796-6.887 2.44-2.968.813-4.006.71-8.356 1.526" clip-path="url(#p53b300e12a)" style="fill:none;stroke:#000"/><path d="m530.495 445.3-2.176-1.563-2.737-1.957-2.752-2.16-2.363-2.07-2.58-2.134-2.405-2.135-3.43-3.112-3.24-3.036-3.732-3.316-2.435-2.083-2.622-2.25-1.974-1.74-2.594-2.452-1.628-1.41-.994-.686-1.325-.8-3.717-2.16-2.479-1.36-1.642-1.168-1.441-1.283-1.527-1.296-2.493-1.855-2.146-1.5-1.657-.889-1.988-.75-2.824-.914-5.965-2.21M396.87 368.993l-4.918-2.253M396.87 368.993l.624-3.777M391.23 438.109l.303-.724.52-1.448 1.065-2.389.505-1.575.389-1.855.374-1.715.778-1.779 1.643-3.824.303-2.413-.332-1.461-.692-1.563-.994-2.439-.691-2.122-.418-2.16-.015-1.587.923-2.414 1.729-2.72 1.67-3.823.447-2.084-.1-1.995-.692-2.528-1.335-3.093-1.549-3.257-.66-1.755v-1.411l2.469-14.982M363.612 352.891l4.694 2.34M363.612 352.891l3.598-3.42M346.77 361.715l3.248-1.543 3.437-1.392 5.02-1.975 1.232-.464.677-.381 3.228-3.069M397.592 364.626l-4.656-2.41M397.592 364.626l-.098.59M367.49 349.213l-.28.257M367.49 349.213l4.532 2.453M383.682 362.95l-1.57 5.995-2.739-.96M383.682 362.95l-7.916-3.925M383.682 362.95l8.27 3.79M383.682 362.95l1.358-3.844M385.208 358.638l-6.716-3.618M385.208 358.638l1.125-1.954M385.208 358.638l-.168.468M388.913 360.353l-1.764-.817-1.94-.898M387.933 354.58l.22-.288M387.933 354.58l-1.6 2.104M387.933 354.58l3.617 2.042M387.933 354.58l-2.033-1.11M391.216 370.114l.736-3.374M391.952 366.74l.846-4.016M392.936 362.215l-.138.509M392.936 362.215l-2.168-1.003-1.855-.86M372.022 351.666l-.355.37M372.022 351.666l6.47 3.354M368.306 355.23l7.46 3.795M368.306 355.23l3.361-3.194M377.706 356.1l-.403.61-1.537 2.315M378.492 355.02l-.332.464M315.869 367.635l-3.095-.685M325.244 361.143l-8.09-1.092-.417.082-.328.233-.54 7.269M326.289 368.335l-3.775.102-3.076-.318-3.57-.484M341.982 363.868l-5.327 2.396-2.766.953-1.981.59M326.289 368.335l1.736-.127 3.883-.4M331.376 364.055l.07.412.462 3.34M346.77 361.715l-4.788 2.153M339.652 360.42l4.679-2.313 2.438 3.608M325.836 364.723l5.54-.668M325.836 364.723l-.592-3.58M326.289 368.335l-.082-1.66-.37-1.952M331.376 364.055l8.276-3.636M325.244 361.143l5.72.75.412 2.162M371.805 344.57l-.205-.238M371.805 344.57l.404.116M216.064 372.833l3.99 1.74 5.1 1.96 2.652.404 2.637.152 2.65-.229 3.127-.788 3.962-1.397 8.183-3.405 13.969-5.364 2.672-.493 2.723-.254 9.034-.293 12.967-.355 4.22.063 6.398.432 5.69.75 6.736 1.194M315.27 363.027l-.027.6-.426.823-.507.587-.453.494-.574.729-.509.69M374.96 337.085l3.592-5.037M371.6 344.332l4.887-5.598-1.528-1.649" clip-path="url(#p53b300e12a)" style="fill:none;stroke:#000"/><path d="m365.9 334.208 3.713-1.106 2.65-.89.39-.013.324.102.259.35 1.325 3.703.398.731M376.346 347.892l4.813 2.81M376.346 347.892l.225-.28M376.57 347.611l2.285-2.722.067-.73-.32-.752-.52-.27-.813-.047-.573.14-.334.495M385.9 353.47l.298-.356M385.9 353.47l-4.74-2.768M365.9 334.208l.242.704 1.244 3.301.549 1.104M371.6 344.332l-1.132-1.28-1.079-1.4-.98-1.48-.474-.855M332.686 328.178l4.356 2.785 3.67 1.91 2.08 1.376 2.75 1.945 1.904 1.431 1.712 1.504.896.573.807.185 1.188-.026 4.056-.432 2.363.032 1.477.241 3.567 1.223.792.086 1.997-.798 1.634-.896M299.88 308.635l.079.7.115.234.339.172 4.207 1.194 1.93.636 1.621.603 2.81 1.467 2.038 1.335 2.637 1.563 7.737 5.38 3.753 2.415 5.54 3.844M335.975 320.429l-.543.278-.14.255-.109.871-.286 1.685-.965 2.13-1.246 2.53M637.27 356.328l-3.775.05-4.323.204-3.371.407-3.833.737-5.734 1.169-8.155 1.626-7.693 1.626-7.06 1.245-4.265.712-4.783.61-3.66.305-3.803.533-4.812 1.119-5.446 1.499-4.812 1.423-5.273 1.778-6.34 2.287-7.463 2.567-2.766.813-2.767.432-3.918.457-6.369.966-8.327 1.169-3.775.508-2.564.66-2.738.94" clip-path="url(#p53b300e12a)" style="fill:none;stroke:#000"/><path d="m557.365 264.738-.23 1.335-.145 1.181-.345 1.728-.562 2.097-.577 2.046-.62 2.148-.504 1.398-.59 1.715-.52 1.754-.345 1.194-.36.903-.504.787-.75.89-.734.737-.533.724-.461.877-.202.838-.173 1.017-.202 1.118-.59 1.741-.85 2.02-1.326 3.089-.821 1.995-.533.762-.72.47-1.369.648-2.867 1.296-3.933 1.855-2.724 1.322-1.656.75-1.297.711-.793.66-.533.827-.346.94-.691 2.846-.634 2.77-.548 2.25-.46 1.575-.347 1.284-.374.978-.389.635-.677.788-1.11 1.08-.965 1.093-1.11 1.322-.85 1.207-.85 1.366-.655 1.251-1.16 2.223-.986 1.862-1.089 1.887-1.31 2.065-1.355 2.217-1.383 2.198-1.174 1.988-.353.725-.202.654-.166.852-.043.908-.014 2.548.043 2.776.036 2.109-.043 2.3v2.623l-.043 2.459v2.98l-.015 2.388-.021 2.23-.022 1.6.022 1.367.18 1.867.28 2.522.174 2.35-.03 1.576-.158.826-.252.59-.461.725M420.047 485.907l.095-.642-.358-1.156-1.131-1.365-1.788-2.784-3.038-4.885-1.132-1.313-2.86-2.522-2.86-3.098-2.263-2.837-1.43-2.468-1.317-3.424-.793-1.88-.59-.94-.793-.648-1.513-1.448-1.858-2.16-2.42-2.972-1.614-2.376-1.023-2.109-.677-1.905-.101-1.563.158-1.664.49-1.64" clip-path="url(#p53b300e12a)" style="fill:none;stroke:#000"/><path d="m325.518 460.1 3.3.31 2.067-.013 1.801-.374 2.426-.82 2.81-1.53 2.004-1.518.446-.451 1.05-1.303 1.515-1.32 1.044-.763 1.455-.864 2.983-1.302.641-.171.482-.076 2.644-.02 2.284-.285 8.645-1.963.648-.127.67-.146.675-.103.547-.076.543-.107 2.55-.35h1.095l2.843.33 2.363.178 1.268-.102 1.119-.36 1.013-.427 6.27-3.144.763-.495 2.687-2.82.944-.712 2.118-1.067M217.771 562.988l2.588-5.537.336-5.534 1.795-4.053 3.363-6.424.672-6.127 2.467-3.36 9.305-1.187 6.502.396 20.516 3.656 9.305-2.273 5.493.494 8.969-.395 25.897 2.965 12.354.375 13.198-.61 10.604-3.2 4.552-.813 2.857.018M420.047 485.907l-.084.566-1.43 1.68-6.434 5.62-6.552 5.463-3.635 3.467-1.37 1.838-.893 1.155-1.132 1.314-.894 1.155-.953.84-1.43.473-2.263.158-2.8-.368h-2.026l-1.787.578-1.608.945-1.132 1.366-.775 1.628-.715 1.155-1.191 1.523-1.728 1.733-4.11 3.467-3.694 2.574-3.038 1.732-2.681 2.364-1.847 1.523-1.548 1.05-1.43.42-2.323.053M367.21 349.47l4.457 2.566M371.667 352.036l6.493 3.448M385.04 359.106l1.877.875 1.782.826M385.04 359.106l-6.88-3.622M392.798 362.724l4.696 2.492M388.699 360.807l1.808.849 2.29 1.068M202.39 552.14l-.633 3.15.173 1.728 1.671 1.423 2.305.813 4.035 1.727 7.83 2.007M142.765 395.448l-1.088-1.932-1.902-3.944-2.975-7.223-.554-.8-4.971-4.74-1.859-1.492-2.722-1.97-1.401-.656-1.957-.684-5.446-1.106-6.118-1.058M145.675 398.624l-2.434-2.503-.476-.673M147.473 396.334l-1.524-.041-1.736-.388-1.448-.457" clip-path="url(#p53b300e12a)" style="fill:none;stroke:#000"/><path d="m145.484 412.504-2.08-2.215-.271-.586-.03-.725.152-.857.62-1.974 1.095-4.446.417-1.533.173-1.048.115-.496M147.473 396.334l-.638.524-.814.89-.346.876M216.064 372.833l-7.132-3.011-3.256-1.258-2.406-.623-2.81-.153-4.783.166-9.538.203-4.322-.254-2.334-.28M179.288 370.044l-.007-.416.202-2.004M194.034 458.365l.008-4.376-.21-.877-.425-.946-.38-.52-1.392-1.075-1.238-1.295-.836-.73-.987-.68-1.952-1.176-.685-.584-.403-.59-.224-.553-.093-.8.13-4.148-.159-.661-.273-.711-1.052-1.715-1.643-2.465-.418-.483-.908-.393-3.385-1.118-5.035-1.436-1.996-1.042-3.184-1.334-.692-.533-.259-.724.202-2.071.223-1.328.23-1.169-.115-1.041-.036-1.017.324-1.74-.007-.553-.504-1.474-.518-1.054-1.038-1.321-2.003-1.36-1.714-.813-.663-.178-1.585-.076-13.655.299M492.853 540.677l1.445-2.079-.229-4.894-.608-1.274-.988-.335-3.194-2.078-6.616-2.146-3.346.336-2.51-2.145-7.756-10.995-14.6-.067-2.661-4.224-15.513-21.522-7.681-6.972-8.55 3.625" clip-path="url(#p53b300e12a)" style="fill:none;stroke:#000"/><path d="m591.207 509.187-1.93 3.332-2.282.67h-8.365l-4.867 1.274-8.44 5.23-11.407 1.206-5.019-.067-4.106 1.073-4.183 3.553-.912 2.48-6.008 10.996-8.82 4.76-3.575 7.306-2.585 2.749-2.51 1.207-5.55-4.894-.077-1.743 3.346-2.95-.38-.872-14.373-1.675-6.311-2.145M530.495 445.3l3.89 3.023 2.607 2.426 3.113 3.024 1.916 1.943 1.095 1.08 1.181 1.017 1.7 1.346 1.167.89 2.824 1.778 2.349 1.308 2.42 1.36 3.112 1.753 3.501 2.312 2.247 1.524 2.291 1.702 1.801 1.487 7.958 10.96 2.99 8.072 9.06 13.014 3.49 3.868M105.291 240.657l5.986.713M105.291 240.657l-.18.617M106.984 224.02l-.317 3.892-1.376 12.745M106.05 244.737l5.92 2.197 6.98 2.415 1.807 1.01 1.528.947" clip-path="url(#p53b300e12a)" style="fill:none;stroke:#000"/><path d="m126.867 228.674-2.363 2.908-3.776 3.928-1.037 1.423-.908 2.554-1.166 3.05-.144 1.17.374 1.067 3.256 5.07 1.182 1.462M106.984 224.02l1.916.346 8.227 2.033 1.556.344 1.7.355 6.484 1.576" clip-path="url(#p53b300e12a)" style="fill:none;stroke:#000"/><path d="m176.587 164.434.785-.083 1.577-.14 3.04.185h2.536l1.066.28 1.686 1.524.994.845.426.756.497 2.727.129 1.137-.288 2.307-.029 2.281.188 2.136.835 3.044.087 1.252-.281 1.525-1.16 4.128-.173.737v.839l.23.534.605.711 2.198 1.61 1.087 1.186.462 1.017.057.864-.374 1.626-.26 2.263-.46.838-.52.56-1.584 1.27-1.095.585-1.095.204-1.996-.258-.749-.044-.857.031-7.262 1.271-.777.045-.822-.108-1.498-.496-1.045-.197-.713-.019-.447.26-.396.388-.238.804-.273 1.382-.194.56-.231.457-1.254 1.557-.382.769-.633 2.027-.512.82-1.08.953-2.536 1.226-.562.458-.223.311-.094.445.108.37.922 1.45.23.66-.029.61-.172.433-.288.257-.692.484-.72.216-.793.095-2.045.02-.642.081-.583.172-.468.312-1.564 1.53-.597.44-1.03.501-1.225.325-3.545.152-.691.12-.699.268-.843.745-.576.737-1.528 3.559-.777 1.092-.663.483-.519.23-2.161.635-1.239.025-1.585-.203-9.25-2.44-2.448-.509M105.11 241.274l-.69.54-.836.026-1.124-.178-1.73-.152" clip-path="url(#p53b300e12a)" style="fill:none;stroke:#000"/><path d="m106.05 244.737-3.13-.99-.921-.535-.663-.71-.194-.332-.224-.324-.187-.336M106.05 244.737l-.348-.586-.325-.737-.201-.94-.065-1.2M339.766 265.292l-.547 3.652M339.22 268.944l-.67-.165-.519-.064-.418.038-2.031.375-.836.045-2.32-.127-1.743-.127-2.925.044-3.637.4-2.176.376-1.873.216-3.53.184-4.495.337-2.716.082-.72.044-.771-.12-3.047-.725-.937-.355-1.765-1.106-.922-.438-5.208-1.684-4.481-1.233-.915-.21-1.448-.133-1.895.146-2.355.305-5.352.947-1.001.216-.584.025-.872-.17-.965-.198-3.509-.299-3.774-.07M386.198 353.114l2.195-2.904 1.318-1.83.41-.685.102-.604-.094-.711.036-.322.183-.272.523-.448.28-.362 1.687-3.063 1.16-2.128 4.25-5 2.86-3.678.619-1.004 1.664-3.564.569-1.093 3.89-6.01.605-1.36.224-1.016.547-2.853.475-1.214.714-1.08.872-1.01 3.558-3.481.598-.668.706-1.016 1.822-2.941.959-1.729.381-1.277.483-2.713.511-1.27 1.153-2.154 1.225-2.167.814-1.15.77-.839 3.92-3.1 1.592-1.69.568-.68.39-.96.072-1.174-.23-.813-.346-.661-.923-.763-1.988-1.143-.468-.376-.368-.578-.021-.979.288-1.162.295-.94.85-1.532.346-.966.209-1.391.238-1.875-.03-.743-.107-.445-1.03-2.611-.375-1.373-.547-1.373-.447-.513-1.628-1.47-.72-.736-.72-1.017-.044-.59.144-.674 3.242-5.915 3.832-6.75 1.477-3.576.685-1.238 1.418-1.614.9-.801.786-.82 1.758-2.573.893-1.023 2.01-1.678 1.8-1.855 1.658-1.926.85-.68.886-.31.98-.21 1.858.012 1.534-.158 1.484-.536.577-.381.432-.433 1.059-1.707.41-.56.685-.526 3.054-1.66 4.568-2.827 1.145-.832 3.35-1.602 4.423-2.478.702-.226.959-.187 1.051-.206.8-.293 1.782-.943 7.536-3.26 4.005-1.78 3.775-1.576 2.363-1.017" clip-path="url(#p53b300e12a)" style="fill:none;stroke:#000"/><path d="m365.9 334.208-.89-2.597-.288-1.898-.792-5.308-.512-2.286-.651-2.26-1.528-4.448-1.647-4.538-.837-2.344-.585-2.294-.652-3.893-.41-1.922-.33-1.023-.58-1.175-.597-.737-.786-.68-.622-.557-2.525-2.048-3.321-2.802-.728-.559-.749-.845-1.902-2.717-3.198-5.282-1.138-2.732-.937-2.974-.605-3.495-.058-1.728.187-2.122M179.288 370.044l-.511.118-4.006.58-2.297.579-1.196.438-.829.578-.915 1.277-.893 1.963-.288.667-.447.565-4.97 5.327-10.813 10.453-3.508 2.808-1.142.937" clip-path="url(#p53b300e12a)" style="fill:none;stroke:#000"/><path d="m177.177 385.335-.425-.42-.057-.35v-1.206l-.245-.94-.158-.934.007-.686.13-.769.352-.724.519-.883.692-.769.338-.362.281-.432.152-.35.165-.672.223-1.119.18-1.785-.043-2.89M339.652 360.42l2.33 3.448M388.913 360.353l-.214.454M389.545 358.412l-3.212-1.728M216.064 372.833l-.245-7.28-.13-3.863.101-.509.835-2.045.908-2.541.288-1.029.13-1.195.49-4.129.216-.826.346-.762 1.685-2.618 1.088-1.36.36-.253.432-.16.815-.1.944-.153.41-.235.44-.363.424-.546 1.16-.94.252-.273.152-.369.46-1.467.238-2.04M391.764 356.355l-.214.267M391.764 356.355l-3.612-2.063M391.764 356.355l6.893 3.936M381.4 350.372l-.24.33M381.4 350.372l-4.83-2.76M381.4 350.372l4.798 2.742M398.657 360.29l.336.41M376.57 347.611l-2.777-1.631-.954-.705-.63-.589M386.198 353.114l1.954 1.178M522.628 470.63l.216-.66.043-.381-.014-.56.058-.736.093-.368-.007-.23-.144-.368-.08-.317-.18-.686-.316-1.03-.13-.495-.043-.533.144-.674.173-.724.065-.368-.036-.343-.26-1.524-.173-1.27.058-.56.115-.482.288-.508.548-.839 1.844-2.693 1.96-3.405 2.074-3.277 1.57-2.3M637.27 356.328l-.808-1.931-.374-1.576-.058-1.55.044-1.88-.051-1.71.015-1.175.158-1.651.23-1.443.195-1.308.144-1.684" clip-path="url(#p53b300e12a)" style="fill:none;stroke:#000"/></g><g id="PatchCollection_1"><path d="m341.66 355.225.508 1.14.162.651 1.084.102.531-.245h.646l.577.367.485.285.6.061-.138-.814-.3.264-.416-.04-.092-.265.323-.122.346-.448.046-.448.024-.61-.208-.611-.323-.244zM339.42 355.612l.37.55.439.345.646.041.485-.122.07-.448-.14-.448-.253-.325-.924.162zM343.156 320.283l1.515-.561 2.218-.387.044 1.452-.395 1.743-.462.27-1.866-1.413-.834-.542zM345.9 324.253l1.143-.678 1.075-.542.637.252.286.755v.871l-.396.349-.241.174-.242.349-.395.058-.769-.233-.746-.367-.307-.446zM482.1 362.087l.746.716.418.561.68.116 1.12-.406.483-.6.439-.736.242-.465.549-.426.593-.6.153-.678.088-1.22-.285-.484-.396-.135-.636.193-1.054.117-1.054.736-.462-.136-.438.31-.527.658-.593 1.065-.176.794z" clip-path="url(#p53b300e12a)" style="fill:#00f;fill-opacity:.8"/></g><path id="PatchCollection_2" d="m374.983 346.498 1.03-1.35 1.369.814-1.03 1.349z" clip-path="url(#p53b300e12a)" style="fill:green;fill-opacity:.8"/><path id="PatchCollection_3" d="m375.582 336.983 3.392-4.648 3.044 1.758-3.638 4.897z" clip-path="url(#p53b300e12a)" style="fill:#90ee90;fill-opacity:.8"/><g id="PatchCollection_4"><path d="m393.262 363.666.677.306-.082.141 1.114.504-.488.837-.421-.19.148-.256-.452-.204-.064.111-.76-.343.19-.326-.157-.072zM369.36 344.878l.728-.538-.062-.066.251-.185-.234-.246-.366.27-.073-.076-.613.452zM376.875 330.267l.1.506 1.772-.272-.29-1.476-1.19.182.108.548.685-.105.083.423zM374.665 345.427l.647-.87.586.339-.647.87zM394.336 360.836l-.024-.154-.121-.14-.292.08-.17.306v.243l-.243.428.179.093.048.143.121.036.154-.03.154.065.477-.956zM390.484 363.64l.523-.813-1.063-.531-.177.276-.107-.055.213-.33-.573-.287-.182.284-.15-.075-.272.422.443.221-.127.198.193.097-.164.256.427.213.189-.293.158.08.277-.432.242.121-.278.433zM375.629 338.541l-.675.73-.743-.559-.31-.22.677-.707z" clip-path="url(#p53b300e12a)" style="fill:#a9a9a9;fill-opacity:.8"/><path d="m373.093 339.373.807-.881.31.22-.806.882zM372.052 346.586l-.294-.236.075-.073-.138-.11.385-.374.433.346zM372.139 347.022l-.339-.277.184-.174.338.276zM372.941 346.409l.448.302-.267.306.139.094-.28.321-.205-.138.07-.08-.167-.113.05-.057-.214-.144zM373.558 347.685l-.327-.254.436-.435.327.254zM373.518 350.142l.548-.666.474.302-.547.667zM375.425 348.985l-.509-.382.215-.222-.157-.12.337-.348.16.122-.13.136.302.227-.212.22.202.152zM376.225 349.05l.582.317-.174.248-.227-.124.05-.071-.355-.193z" clip-path="url(#p53b300e12a)" style="fill:#a9a9a9;fill-opacity:.8"/><path d="m376.107 348.986.28-.4.444.243-.28.4zM376.846 350.137l-.215-.176.183-.176.216.174zM377.332 350.214l-.126.147.133.09-.046.053.31.207.222-.26-.13-.087.17-.199-.161-.109.168-.195-.38-.255-.39.454zM378.244 350.51l.818.589-.295.32-.818-.588zM378.82 351.953l-.239-.172.27-.292.24.172zM379.632 350.75l.748.495-.43.506-.289-.191.098-.116-.459-.304zM381.086 352.182l-.338-.177.17-.251.337.177zM381.327 351.396l.577.32-.21.295-.24-.133-.079.11-.336-.186zM384.205 354.09l-.334-.19-.034.047-.243-.14.228-.31.145.082.175-.238.431.246zM385.14 354.535l-.137.233-.647-.297.139-.234zM384.612 354.29l.32-.542.795.366-.322.543zM385.733 355.563l-.46-.253.391-.556.461.253zM387.685 355.748l.263.154-.16.21-.262-.154z" clip-path="url(#p53b300e12a)" style="fill:#a9a9a9;fill-opacity:.8"/><path d="m387.948 355.902-.381-.223.3-.397.38.222zM388.145 355.976l.195.117-.142.185-.195-.118zM388.423 355.615l.598.36-.278.36-.598-.36zM388.95 356.528l.337-.432.49.299-.338.43zM390.109 356.62l.414.247-.205.266-.414-.248zM389.662 358.185l.234-.31.245.142-.234.312zM389.374 360.02l.382-.553.539.29-.382.552zM389.392 360.41l-.5-.273.135-.194.501.273zM392.987 358.56l.59.219-.267.559-.59-.219zM390.887 360.591l.573-1.197 1.16.432-.364.757-.333-.124-.21.44zM365.389 352.793l.353.464-.313.185-.354-.463zM365.173 352.825l-.4-.34.353-.323.4.34zM364.867 353.155l-.4-.359.265-.23.4.36zM367.024 352.754l-.197-.153.26-.26.197.152zM366.585 352.29l-.598-.56.46-.382.598.558zM369.337 351.692l-.476-.31.252-.3.475.31zM386.002 363.176l-1.477-.679.929-1.57.281.129.187-.317.355.164.29-.491.288.132-.095.162.237.109-.395.666.317.146zM389.025 364.7l.428-.712 1.94.908-.172.286.3.14-.256.426zM391.128 363.62l.663.343-.1.15.098.05-.21.314-.275-.142-.098.147-.114-.06-.062.095-.372-.193z" clip-path="url(#p53b300e12a)" style="fill:#a9a9a9;fill-opacity:.8"/><path d="m391.128 363.62.372-.558.662.344-.371.557zM392.763 365.64l.282-.537.872.356-.282.537zM388.383 352.512l.778.483-.478.6-.778-.483z" clip-path="url(#p53b300e12a)" style="fill:#a9a9a9;fill-opacity:.8"/><path d="m389.161 352.995-.778-.483.243-.304.778.482zM392.452 349.416l.235-.17.44.47-.235.171zM391.272 349.427l.944-.685.471.503-.944.686zM391.885 347.947l-.249-.239.505-.407.247.24zM391.582 347.655l-.459-.425.591-.496.459.426zM390.624 346.683l-.128-.166.201-.121.128.166zM392.295 346.187l.59-.514.456.407-.59.515zM392.223 345.425l-.691-.48.59-.661.692.48zM408.561 336.172l-.458-.426.706-.59.458.425zM391.805 342.515l-1.21-.717.843-1.106 1.21.718zM391.063 343.131l.259-.384.425.223-.259.384zM389.068 343.894l-.23-.394.463-.211.23.394zM390.364 345.038l-.67-.775.64-.43.67.775zM389.385 345.717l-.526-.781.568-.297.525.781zM386.514 349.366l.387-.468.274.176-.387.468z" clip-path="url(#p53b300e12a)" style="fill:#a9a9a9;fill-opacity:.8"/><path d="m385.48 349.278.699-.845.722.465-.698.845zM384.96 351.444l-.428-.295.074-.084-.166-.115.073-.083-.308-.213.345-.388.384.264-.056.063.52.358zM385.188 350.274l-.32-.223.294-.33.322.223zM381.965 347.962l.22-.264.258.167-.22.264zM381.165 348.138l-.266-.206.13-.131.266.206zM380.882 348.95l-.38-.235-.03.038-.246-.152.14-.174-.215-.133.226-.285.127.08.093-.116.36.223-.077.098.352.218zM379.656 349.078l-.322-.22.364-.414.322.221zM378.88 348.456l.416-.464.39.27-.242.272-.1-.07-.173.194zM377.833 346.882l.8.466-.441.59-.573-.333.235-.314-.228-.132zM379.228 343.564l.156-.253.27.13-.157.253zM377.562 344.699l-.403-.176.111-.2.137.06.241-.433.268.117zM377.88 344.61l.148-.24.332.16-.148.24zM376.915 345.583l-.472-.304.385-.467.472.304zM375.838 346.906l.145-.192.35.207-.146.19zM372.92 345.02l.468-.52.446.31-.467.522zM372.899 344.595l-.454-.344.335-.344.454.343zM375.5 343.96l.195-.35.627.273-.196.35zM374.721 343.05l-.713-.459.548-.66.713.46zM375.096 341.888l.621-.567.88.75-.622.567zM376.739 341.748l-.5-.42.605-.559.5.42zM377.79 340.058l.354.265.101-.106.27.203.272-.281.386.288-.458.477-.321-.24-.182.188-.091-.069-.133.138-.363-.272.161-.166-.235-.176zM378.09 329.642l-.698.11-.12-.59.698-.11z" clip-path="url(#p53b300e12a)" style="fill:#a9a9a9;fill-opacity:.8"/><path d="m376.927 330.746-.11-.546 1.342-.212-.19-.937.465-.073.3 1.484zM378.183 328.094l-.184-.198.238-.172.183.199zM378.86 329.714l-.122-.794.583-.07.122.794zM372.766 336.007l-.187-.276.54-.285.187.276zM372.21 336.299l-.273-.404.555-.292.274.404zM372.759 336.42l.37.589-.25.122-.126-.201-.124.06-.244-.388zM373.336 337.881l-.334-.313.294-.243-.24-.225.49-.407.574.538zM373.868 338.554l.694-.785 1.146.788-.695.785zM373.407 339.622l-.42-.3.734-.8.42.3zM371.264 342.752l.356.405-.183.125-.355-.405zM371.72 342.441l.355.405-.455.31-.356-.404z" clip-path="url(#p53b300e12a)" style="fill:#a9a9a9;fill-opacity:.8"/><path d="m371.73 342.173.144.163-.413.282-.143-.163zM370.673 342.395l.49-.366.265.277-.49.366zM370.831 341.652l.3.276-.26.218-.298-.277zM370.194 341.6l-.127-.183.324-.175.127.184zM369.816 341.626l-.144-.187.267-.16.143.188zM368.674 339.175l-.202-.393.363-.145.202.394zM369.28 337.902l.377-.18.176.29-.378.179zM368.462 337.905l.226.38-.489.228-.227-.382zM367.87 338.1l-.258-.428.958-.45.259.427zM367.129 335.286l-.072-.623.61-.055.071.623zM367.154 330.94l-.108-.203.19-.079.109.203zM367.9 331.719l-.12-.198.113-.052.119.197zM366.389 331.532l.23.502-.353.127-.034-.076-.237.085-.196-.427zM366.052 331.607l-.187-.428.562-.19.187.428zM367.824 327.65l-.05-.197-.054.01-.052-.205.054-.011-.06-.238.543-.108.05.197.143-.028.06.239-.143.028.053.206zM368.512 326.887l-.127-.445.62-.137.126.446zM365.602 326.87l-.028-.367.432-.025.028.367zM365.608 325.223l.078.551-.404.045-.032-.227-.116.013-.027-.187.108-.012-.02-.137zM369.142 324.225l-.476-.792 1.304-.61.476.792zM366.44 324.727l-.111-.302.27-.078.112.302zM365.742 324.126l-.024-.22.295-.026.024.221zM365.195 323.99l-.03-.553.468-.019.029.553zM375.205 312.103l.275-.007.012.351-.458.011-.011-.35zM375.205 312.103l-.013-.413.525-.014.014.413zM374.329 312.155l-.003-.379.475-.003.003.38zM376.638 310.812l-.364-.21.133-.18.363.21zM364.394 322.081l-.041-.4.095-.008-.04-.384.63-.05.04.39.16-.013.04.395zM365.047 320.526l.454-.915.862.333-.454.914zM363.78 319.754l-.351-.369.508-.374.35.368zM363.12 317.336l-.281-.506.69-.299.282.507zM363.498 314.565l-.044-.314.403-.044.045.313zM362.363 315.06l-.07-.332.094-.015-.035-.163.602-.1.104.496zM362.507 314.365l-.054-.229.317-.059.055.23zM361.895 314.215l-.065-.397.601-.076.03.18-.151.018.036.218zM361.423 312.576l.276-.084.055.137-.277.085zM361.7 312.492l-.13-.33.264-.081.13.33z" clip-path="url(#p53b300e12a)" style="fill:#a9a9a9;fill-opacity:.8"/><path d="m361.294 312.246.276-.085.13.33-.277.085zM360.743 312.294l-.148-.417.613-.168.147.416zM359.914 309.71l.692-.204.152.402-.692.204zM359.81 309.555l-.237-.815.376-.085.08.275.122-.028.07.242.151-.034.086.298z" clip-path="url(#p53b300e12a)" style="fill:#a9a9a9;fill-opacity:.8"/><path d="m360.137 308.893-.19-.416.298-.107.19.416zM360.872 307.433l-.158-.311.245-.097.159.311zM361.83 306.925l-.209-.318.268-.137.209.318zM361.067 305.736l-.512-.889 1.321-.59.511.89zM359.102 306.002l-.207-.508.86-.273.13.318-.265.085.077.19zM358.718 304.222l.661-.167.05.153.065-.016.017.053.081-.02.076.233-.737.186-.028-.089-.072.019zM360.009 304.002l-.258-.801.704-.177.05.156.188-.047.13.404-.176.044.078.242zM358.124 298.957l-.246-.207.201-.187.358.301-.201.187zM357.671 299.375l-.426-.358.452-.419.427.359zM358.33 297.84l-.119-.088.162-.168.118.089zM359.05 295.473l-.12-.105.383-.337.118.105zM357.688 297.391l-.468-.349.598-.622.468.349zM345.002 293.665l-.325-.407.562-.35.325.408zM357.097 306.626l-.084-.388.623-.105.085.388zM359.957 314.97l-.035-.108.213-.055.035.109zM359.658 315.213l.764-.19.119.369-.764.19zM360.076 316.09l-.168-.45.656-.19.168.449zM361.618 321.121l-.134-.469.663-.146.133.469zM361.884 322.664l.837-.153.128.542-.661.121-.058-.243-.176.033zM361.765 323.577l-.046-.35.19-.02.048.35zM363.464 329.758l-.018.475-.49-.015-.004.11.165.005-.01.237-.094-.003-.006.148-.514-.016.007-.19-.148-.005.011-.295.144.004.009-.235.368.012.01-.25zM360.249 331.213l-.008-.693.706-.006.008.693zM358.887 331.28l.026-.514.447.016-.025.515zM358.093 331.185l.008-.34.504.01-.008.339z" clip-path="url(#p53b300e12a)" style="fill:#a9a9a9;fill-opacity:.8"/><path d="m358.088 331.388.005-.203.504.009-.005.203zM361.989 332.278l-.019-.433.616-.021.019.433zM363.33 333.848l.542-.102.095.39-.178.035.038.155-.364.07z" clip-path="url(#p53b300e12a)" style="fill:#a9a9a9;fill-opacity:.8"/><path d="m362.465 332.96 1.337-.253.245 1.006-1.06.2-.06-.241-.276.052zM366.906 338.52l.254.612-.526.17-.183-.441.084-.027-.071-.172zM363.73 339.493l.26-.044.043.195-.26.045zM363.583 339.877l-.016-.167.27-.019.016.168zM363.709 340.459l.003-.521.433.002-.003.521zM363.233 339.757l.191-.346.132.056-.191.346zM362.455 340.144l.184-.459.724.226-.184.459zM361.105 339.585l.074-.505.526.06-.074.505zM360.618 339.544l.07-.26.335.07-.07.26zM359.963 338.508l.122-.152.193.12-.123.153zM359.563 339.106l-.546-.114.198-.743.546.113zM352.526 339.003l.156-.537.35.079-.028.096.163.037-.128.441zM349.791 338.878l-.31-.165.303-.442.31.166zM349.84 337.91l.126-.111.258.228-.127.111zM349.742 338.035l-.165.184-.163-.114.165-.184zM345.413 334.535l.062-.167.356.103-.062.167zM345.993 333.686l-.045-.219.26-.041.044.218z" clip-path="url(#p53b300e12a)" style="fill:#a9a9a9;fill-opacity:.8"/><path d="m345.545 334.389.093-.253.52.149-.094.253zM343.075 332.696l-.098-.1.127-.096.097.1zM343.342 332.785l.163-.126.199.2-.164.126zM341.966 333.173l.312-.291.335.279-.312.291zM336.92 330.02l.247-.414.375.175-.248.414zM334.017 328.166l.283-.38.439.254-.283.38zM333.664 327.451l-.21-.12.124-.166.208.121zM335.758 319.933l.024.247.252-.019-.009-.086.167-.012-.013-.141.22-.017-.013-.138-.253.02-.008-.087-.2.014.02.205zM335.313 319.502l-.01-.157.237-.012.01.156zM335.237 320.512l-.084-.308.48-.102.084.308zM336.466 320.655l-.246-.337.403-.229.246.338zM332.042 327.01l.174-.394.483.165-.174.394zM299.089 308.635l-.007.162.431.014.015-.369-.431-.013z" clip-path="url(#p53b300e12a)" style="fill:#a9a9a9;fill-opacity:.8"/><path d="m298.76 309.074.019-.449.31.01-.007.162.127.004-.012.287zM363.657 342.008l.367-.146.131.257-.367.146zM363.509 342.767l-.174-.288.403-.188.173.288z" clip-path="url(#p53b300e12a)" style="fill:#a9a9a9;fill-opacity:.8"/><path d="m363.278 342.875-.173-.288.23-.108.174.288zM367.986 342.276l-.359-.673.461-.191.193.361-.135.056.166.313zM367.65 342.887l-.187-.363.584-.235.187.362zM368.595 342.972l-.311-.53.626-.287.312.531zM369.11 343.496l-.317-.42.336-.197.317.42zM368.993 344.533l.942-.714.344.352-.337.256.062.063-.606.46zM368.296 345.458l-.103-.115.223-.155.103.114zM368.735 345.537l-.195-.202.335-.251.195.202zM368.84 345.785l.368-.333.598.515-.368.333zM367.482 346.788l-.124-.13.288-.213.124.13zM368.551 346.954l-.36-.369.363-.275.36.368zM368.393 347.452l-.45-.454.324-.25.45.455zM364.24 349.513l.308-.324.422.312-.179.188.09.066-.13.137zM364.2 350.745l.407-.317.353.353-.407.316zM363.729 351.491l-.236-.164.22-.245.235.165zM363.786 352.158l-.52-.412.33-.323.199.158-.084.082.32.255zM362.398 352.945l-.405-.342.348-.322.405.342zM362.235 353.704l-.643-.516.376-.365.643.517zM361.38 353.71l.07-.064-.072-.06.118-.11.069.059.125-.116.42.35-.313.29zM361.41 354.507l-.188-.146.317-.32.189.145zM360.835 354.99l-.206-.166.102-.098-.06-.048.302-.29.264.213zM359.761 355.161l.209.299-.22.12-.209-.3zM358.917 356.079l-.22-.396.21-.09-.076-.136.627-.27.228.41-.22.096.066.12zM357.485 356.673l-.251-.447.846-.369.25.448zM356.92 356.972l-.39-.598.462-.234.39.598zM355.742 357.156l-.181-.308.526-.241.181.307z" clip-path="url(#p53b300e12a)" style="fill:#a9a9a9;fill-opacity:.8"/><path d="m355.9 357.422-.158-.266.526-.242.158.267zM355.215 357.626l-.209-.438.417-.154.209.438zM353.76 356.765l-.158-.197.176-.11.159.196zM354.564 357.53l.407-.164.193.37-.268.109.085.164-.139.056zM354.531 358.137l-.555-.969.254-.112.555.968zM353.672 358.226l-.303-.584.668-.27.369.712-.434.175-.066-.127z" clip-path="url(#p53b300e12a)" style="fill:#a9a9a9;fill-opacity:.8"/><path d="m353.227 358.405-.303-.584.445-.18.303.585zM352.104 358.9l-.242-.534.4-.14.242.533zM351.93 358.855l-.319.112-.165-.369.319-.111zM350.785 359.335l-.19-.422.368-.13.19.422zM350.832 358.636l-.253.087-.17-.385.253-.086z" clip-path="url(#p53b300e12a)" style="fill:#a9a9a9;fill-opacity:.8"/><path d="m350.832 358.636-.17-.384.427-.146.17.384zM349.98 359.738l-.16-.417.158-.048-.057-.149.376-.112.217.566zM349.669 357.618l-.18-.451.377-.117.18.45zM340.725 358.488l-.06-.09.191-.098.06.09zM340.685 358.793l-.06-.08.079-.047.06.08zM330.244 363.312l-.033-.347.475-.035.033.347zM330.384 363.985l.004-.168.263.004-.003.169zM330.092 363.43l.519-.013.011.356-.519.012zM329.754 363.883l-.06-.314.346-.05.06.314zM329.07 364.137l-.059-.447.572-.058.058.448zM328.943 363.68l-.05-.384.27-.028.051.384zM327.167 364.439l-.02-.219.132-.009-.025-.277.304-.022.044.496zM326.548 364.414l-.061-.511.335-.031.062.51zM326.382 363.664l-.038-.289.404-.041.037.289zM323.281 363.037l-.51-.305.289-.375.509.305zM317.068 362.85l.014-.434.77.02-.013.434zM321.091 364.34l-.195-.157.328-.318.195.156zM318.786 364.956l-.171-.466 1.725-.492.17.465zM319.25 365.137l-.113-.216.256-.105.113.216zM317.676 365.85l.559-.213.16.327-.559.212zM318.65 367.117h-.444v-.299h.443zM318.652 367.44l.004-.644.419.002-.004.645zM320.19 366.96l-.404.034-.036-.348.272-.023-.014-.133-.27.022-.026-.242.401-.033z" clip-path="url(#p53b300e12a)" style="fill:#a9a9a9;fill-opacity:.8"/><path d="m320.198 367.032-.085-.795.435-.036.084.795zM319.576 367.66l-.05-.528.417-.031.05.527zM324.972 365.957l.288-.013.014.236-.289.012zM324.64 366.586l-.006-.362.38-.006.006.362zM324.23 366.186l-.036-.333.375-.032.036.333zM323.358 366.312v-.406h.397v.406zM322.724 366.865l-.006-.426.526-.007.006.427zM321.255 367.583l.006-.654.516.004-.005.548h-.115v.105zM321.968 367.818l.036-.533.262.014-.036.533zM322.473 367.856l.007-.584.412.004-.007.584zM323.005 367.875v-.368h.317v.368zM323.38 367.932l-.006-.573.756-.006.007.573zM324.712 367.964l-.038-.4.558-.042.04.4z" clip-path="url(#p53b300e12a)" style="fill:#a9a9a9;fill-opacity:.8"/><path d="m324.374 367.99-.039-.4.339-.026.038.4zM325.224 367.424l-.1-.298.256-.068.1.3zM325.455 367.914l-.08-.435.49-.07.08.435zM330.461 365.957l-.04-.304.375-.038.04.304zM329.964 365.233l-.057-.439.404-.041.058.438zM329.164 365.379l-.018-.447.576-.02.019.447zM327.81 365.354l-.043-.445.564-.043.044.445zM326.716 366.815l-.23-.839.73-.156.231.838zM327.119 367.723l-.087-.604.48-.053.086.604zM327.918 367.59l-.08-.536.598-.07.08.536zM328.769 367.011l-.116-.59.485-.074.116.59zM329.633 367.26l-.144-.789.478-.067.144.787zM330.18 366.98l-.064-.369.364-.05.064.37z" clip-path="url(#p53b300e12a)" style="fill:#a9a9a9;fill-opacity:.8"/><path d="m330.562 367.087-.072-.552.54-.055.072.553zM343.795 359.88l-.166-.388.44-.146.166.388zM344.48 361.405l-.317-.648.67-.255.318.648zM343.867 362.027l-.374-.736.706-.28.375.738zM342.715 362.384l-.375-.763.59-.225.374.763zM339.342 363.19l.476.878-.342.145.045.082-.464.195-.25-.459.247-.104-.272-.501zM333.934 365.439l.72-.311.232.417-.72.311zM333.854 365.306l-.274-.47.678-.308.274.471zM331.844 363.518l-.15-.49.575-.138.151.489zM330.476 361.63l-.087-.45.538-.08.087.45zM329.085 360.983l.418-.045.054.39-.157.017-.015-.113-.261.028zM327.32 361.097l-.011-.287.575-.019.013.287zM320.355 359.245l-.087-.368.336-.062.087.369zM317.617 358.96l-.037-.435.756-.05.038.433zM316.89 358.712l-.037-.381.692-.051.036.38zM313.043 361.415l.092-.047.066-.073.029-.09-.013-.094-.052-.082-.083-.058-.103-.025-.106.011-.092.046-.066.074-.029.09.013.093.052.083.083.058.103.025zM313.633 361.642l.13-.04.104-.08.06-.108.009-.122-.044-.114-.092-.092-.123-.053-.137-.007-.13.039-.104.08-.06.109-.009.12.044.116.092.09.123.054zM314.379 361.778l.13-.039.103-.08.06-.109.01-.12-.045-.116-.091-.09-.124-.054-.137-.008-.13.04-.103.08-.06.108-.01.121.045.115.091.091.124.054zM314.76 360.616l.168-.07.125-.121.063-.154-.01-.163-.079-.149-.137-.11-.174-.054-.186.008-.167.07-.125.12-.063.154.01.164.079.147.137.11.174.056zM312.21 361.975l.087-.768.378.032-.087.77zM314.202 362.19l.044-.323.351.037-.043.323zM313.06 362.522l.105-.769 1.08.114-.104.77zM314.011 364.987l-.174-.152.396-.356.175.152zM316.158 371.501l.007-.178.223.007-.006.178zM317.434 370.682l.068-.459.49.058-.069.458zM320.221 371.113l-1.695-.22.296-1.76 1.694.22zM321.434 369.424l.118-.495.558.104-.066.273-.076-.014-.052.222zM333.157 368.506l.17.51-.46.12-.063-.189.126-.033-.107-.32zM340.67 367.864l.038-.423.713.05-.038.424zM349.335 362.992l.213-.197.138.116-.212.197zM349.43 363.888l-.397-.322.316-.303.396.32zM349.274 361.332l.58-.235.19.364-.58.235zM350.25 361.351l-.28-.172.278-.35.28.173zM351.774 362.316l-.548-.374.202-.23.548.375zM353.15 362.38l-.343-.28.097-.091.343.279zM352.62 361.656l.25-.213.421.385-.25.212zM352.584 361.627l-.277-.212.16-.164.278.213zM350.836 360.819l.243-.11.073.123-.243.111zM350.387 360.627l.508-.232.184.313-.508.232zM351.628 360.844l-.456-.655.277-.15.114.163.61-.33.343.49zM353.384 360.729l-.223-.21.188-.156.223.21zM353.553 359.27l.364.674-1.02.429-.627-.563zM353.615 359.253l.538-.207.214.433-.37.143-.047-.093-.167.064zM354.255 358.966l.678-.267.266.525-.677.267zM357.558 361.743l-.279-.477.305-.139.279.478zM356.532 358.683l.378-.15.082.161-.378.15zM356.208 358.381l.497-.212.173.315-.497.213zM357.083 359.326l-.274-.502.369-.156.273.502zM357.37 358.716l.385-.16.49.915-.384.16zM358.113 359.949l.497-.165.209.487-.497.165zM359.395 360.355l-.155-.265.227-.103.156.265zM357.872 358.284l-.287-.49.377-.17.286.49zM358.43 357.926l-.254-.435.579-.264.317.542-.243.11-.062-.106zM362.129 358.282l.598-.362.367.471-.599.362zM360.27 357.52l-.388-.724.625-.261.39.724zM360.854 357.044l-.324-.534.51-.24.324.533zM361.582 356.866l-.151-.241.172-.085.151.242zM361.387 356.466l-.36-.439.37-.236.361.438zM362.072 355.653l.432-.362.392.363-.432.362zM381.343 363.778l.386-.6.486.243-.327.508-.138-.07-.061.095-.06-.03-.127.195-.196-.098.127-.198zM380.91 363.851l-.137-.07.071-.108.137.07zM381.952 365.394l-.273-.103.084-.17-.106-.04.232-.475.378.145zM382.447 364.295l.075-.189.176.055-.074.189zM383.925 364.972l.46-.75.4.192-.46.75zM387.695 366.365l.317-.493.461.231-.317.492zM387.382 366.978l.172-.24.432.243-.172.239zM388.903 366.585l.331.12-.157.337-.331-.12zM388.841 366.562l.233-.498.471.172-.232.497zM389.22 368.352l.273-.424.468.235-.274.424zM390.343 368.98l.257-.436.526.241-.257.437zM390.062 369.927l.232-.389.562.26-.232.39zM402.719 364.378l.311-1.062 1.981.45-.311 1.063zM397.892 366.585l.044-.473.384.028-.021.228-.116-.008-.022.245zM398.224 366.027l.06-.492.392.037-.061.493z" clip-path="url(#p53b300e12a)" style="fill:#a9a9a9;fill-opacity:.8"/><path d="m398.127 366.96.056-.6.481.035-.056.6zM406.083 367.639l.24-.037.205-.115.14-.176.053-.209-.042-.211-.13-.181-.2-.124-.237-.046-.24.037-.205.115-.14.175-.052.21.042.21.13.182.199.123zM404.787 367.49l.24-.037.204-.116.14-.175.053-.21-.042-.21-.13-.181-.2-.124-.236-.047-.24.037-.206.115-.14.176-.052.21.042.21.13.182.2.123zM402.827 366.708l.18-.067.137-.122.073-.16-.001-.172-.076-.158-.139-.121-.18-.065-.195.001-.18.067-.137.123-.074.16.001.171.076.158.139.121.181.065zM403.9 366.677l.18-.068.137-.122.074-.16-.001-.171-.077-.159-.138-.12-.181-.066-.195.001-.18.067-.137.123-.074.16.002.171.076.159.138.12.181.066zM402.597 367.524l.146-.07.103-.116.047-.141-.02-.146-.08-.128-.13-.092-.16-.041-.166.017-.145.07-.105.115-.046.142.019.146.08.129.13.091.161.04zM403.54 367.718l.146-.07.104-.116.046-.141-.019-.146-.08-.129-.13-.091-.16-.041-.166.016-.146.071-.104.115-.046.142.019.146.08.128.13.092.16.04zM401.515 367.422l-1.431-.183.211-1.285 1.453.185.034-.205.409.052-.197 1.198-.43-.056z" clip-path="url(#p53b300e12a)" style="fill:#a9a9a9;fill-opacity:.8"/><path d="m401.501 367.781.049-.43.511.044-.048.431zM402.316 368.131l-.012-.336.922-.025.012.336zM399.672 371.901l.202-.914.415.071-.202.915zM425.94 364.405l.199-.112.134-.17.05-.203-.04-.204-.127-.175-.193-.119-.23-.044-.232.036-.198.112-.135.17-.05.203.04.205.127.174.194.119.23.044zM424.95 365.294l.198-.111.135-.17.05-.203-.041-.205-.127-.175-.193-.119-.23-.044-.232.036-.198.113-.135.17-.05.202.041.205.127.175.193.118.23.045z" clip-path="url(#p53b300e12a)" style="fill:#a9a9a9;fill-opacity:.8"/><path d="m425.939 366.122-.774-.678 1.738-1.544-.39-.342.245-.217 1.164 1.02zM426.693 366.311l.714-.622.495.441-.713.623zM424.626 367.315l-.325-.282.382-.342.325.28zM425.256 372.318l.127-.037.1-.076.061-.104.011-.117-.04-.112-.087-.089-.118-.053-.133-.01-.127.036-.1.077-.062.104-.01.117.041.112.086.089.119.053zM424.651 372.718l.126-.037.102-.075.06-.105.01-.117-.04-.111-.086-.09-.119-.053-.133-.01-.126.037-.101.076-.06.104-.011.117.04.112.087.09.118.052zM425.753 372.826l.126-.036.102-.076.06-.105.01-.117-.04-.111-.086-.09-.119-.053-.132-.01-.127.037-.101.076-.06.104-.01.117.04.112.086.089.119.053zM425.21 373.321l.126-.036.1-.076.062-.104.01-.117-.04-.112-.087-.09-.118-.053-.133-.009-.127.036-.1.076-.061.105-.011.116.04.112.087.09.118.053zM426.39 372.566l-1.157-1.21.32-.238.153.16 1.14-.846.791.828-1.188.883.213.222zM425.44 369.497l-.368-.416.378-.26.367.417zM422.86 370.89l-.208-.193.59-.498.21.192zM423.517 375.345l-.368-.367.738-.576.368.368zM421.665 375.49l.526.564-.508.368-.21-.226.162-.118-.315-.34zM419.853 378.114l-.623-.575.473-.398.623.575zM419.403 379.045l-.872-.648.283-.295.871.648z" clip-path="url(#p53b300e12a)" style="fill:#a9a9a9;fill-opacity:.8"/></g></g></g><defs><clipPath id="p53b300e12a"><path d="M90 156.236h558v414.728H90z"/></clipPath></defs></svg>