<svg xmlns="http://www.w3.org/2000/svg" width="960" height="960" viewBox="0 0 720 720"><defs><style>*{stroke-linejoin:round;stroke-linecap:butt}</style></defs><g id="figure_1"><path id="patch_1" d="M0 720h720V0H0z" style="fill:#fff"/><g id="axes_1"><path id="patch_2" d="M90 552.956h558V174.244H90z" style="fill:#fff"/><g id="LineCollection_1"><path d="m557.841 328.748.788.138M564.312 324.814l-3.627-.605-2.844 4.54M482.995 316.656l3.51.565 16.877 2.623 24.016 3.907 30.443 4.997M588.596 334.597l19.16 8.525M558.629 328.886l10.77 1.879 4.687.83 14.51 3.002M562.436 339.833l.297 1.059.43 1.884 1.125.695 2.811.43 3.208-.463 18.025-7.672.264-1.169M637.27 356.462l-29.515-13.34M324.846 394.133l-4.069 27.695-3.712 25.207-4.06 24.794-2.62 13.715-.662 3.092-3.497 19.585M108.713 188.268l-7.982-6.74M108.713 188.268l3.86 3.138M412.653 545.673l32.071-32.289 11.982-13.472 3.37-4.613 1.598-3.813 1.15-2.117 1.66-1.325 1.456-.874 3.72-1.524 3.721-2.946 9.782-9.717 17.493-18.342 18.604-18.516 26.57-28.082 21.593-22.804 4.495-4.256 3.707-2.305 32.13-35.556M345.937 283.254l5.723.99M345.937 283.254l1.342-7.775M345.937 283.254l-.215 1.207M369.359 287.175l-.418-.073M369.359 287.175l.755-4.343M369.359 287.175l-.836 5.14M347.279 275.479l5.554.997M370.703 279.445l-.435-.076M370.703 279.445l1.322-7.719M370.703 279.445l-.589 3.387M364.705 286.364l4.236.738M364.705 286.364l-4.479-.682M364.705 286.364l1.296-7.74M364.705 286.364l-1.525 8.986M367.166 270.791l4.365.858M367.166 270.791l-4.202-.868M367.166 270.791l1.075-6.31M367.166 270.791l-1.165 7.833M360.226 285.682l-4.127-.73M360.226 285.682l1.283-7.747M360.226 285.682l-1.4 8.88M361.509 277.935l4.492.69M361.509 277.935l-4.239-.675M361.509 277.935l1.455-8.012M362.964 269.923l1.141-6.041M354.006 295.75l.29-1.937M354.006 295.75l-9.987-1.813M354.006 295.75l8.178 1.405M356.099 284.953l-4.44-.708M356.099 284.953l1.171-7.693M356.099 284.953l-1.803 8.86M357.27 277.26l-4.437-.784M357.27 277.26l1.221-7.376M351.66 284.245l1.173-7.769M351.66 284.245l-1.641 8.86M352.833 276.476l1.512-7.57M344.019 293.937l.416-1.75M343.531 297.208l.094-.95.394-2.321M267.936 271.647l23.638 9.309 11.493 4.414 3.29 1.34 4.102 1.339 3.075.876 3.39.727 11.096 1.828 9.043 1.388 5.139.79 1.817.279M362.906 297.255l.274-1.905M362.906 297.255l-.722-.1M362.906 297.255l3.766.558M366.001 278.624l4.267.745M367.629 297.995l.287-1.941M367.629 297.995l-.48-.09M367.629 297.995l3.497.708M375.383 251.621l1.981-13.068M375.383 251.621l-2.487 13.618M375.383 251.621l3.99.325M378.24 232.775l4.238.52M378.24 232.775l1.22-5.803M378.24 232.775l-.876 5.778M372.297 237.785l.19-1.72.504-2.703.066-.455.195-.194.45-.12 4.538.182M345.722 284.46l-5.852-.852M344.435 292.186l.692-4.518.595-3.207M336.04 283.173l3.83.435M336.04 283.173l.436-2.138M336.04 283.173l-.96 4.713M344.435 292.186l5.584.919M367.916 296.054l.607-3.74M367.916 296.054l-.445-.066M339.87 283.608l1.195-7.86M376 272.387l-3.975-.66M376 272.387l.827-5.937M380.64 272.987l-.77-.075-1.45-.205-2.42-.32M372.885 265.785l.01-.546M372.885 265.785l3.942.665M372.885 265.785l-.202-.046M372.025 271.726l.779-5.312.081-.629M379.374 251.946l-.198 1.81-.29 1.017-.975 3.084-.125.984-.96 7.609M381.962 267.365l-1.273-.274-3.862-.641M384.461 245.443l.068-.35M384.461 245.443l-1.356 6.72M379.374 251.946l.124-1.15.789-5.151.488-.519.663-.259 3.023.576M379.374 251.946l3.731.216M384.53 245.094l2.856.784.885.33.74.473" clip-path="url(#p1cc3422e16)" style="fill:none;stroke:#000"/><path d="m390.627 241.042-.388 1.726-.53 3.044-.314.487-.385.382M383.105 252.162l3.688.248.518-.116.403-.662 1.296-4.951M384.53 245.094l.964-4.926M372.297 237.785l5.067.768M371.825 240.438l.206-1.232.266-1.421M385.494 240.168l-5.064-1.087-3.066-.528M390.627 241.042l-1.588-.32-3.545-.554M382.478 233.295l2.818.345.576.2.29.158.273.356-.39 3-.551 2.814M392.072 235.699l-1.004 3.927-.441 1.416M342.084 305.358l.114-.523M342.084 305.358l4.647.87M342.084 305.358l-.76-.304M343.531 297.208l-1.846-.414-2.851-.95M343.531 297.208l4.387.955" clip-path="url(#p1cc3422e16)" style="fill:none;stroke:#000"/><path d="m342.198 304.835.684-3.124.649-4.503M387.837 304.71l.144-3.5M383.538 304.177l1.017.16 3.282.374" clip-path="url(#p1cc3422e16)" style="fill:none;stroke:#000"/><path d="m386.246 313.078.67-2.322.921-6.045M387.98 301.21l12.731 2.211M375.358 299.416l5.213.74 7.41 1.054M383.586 320.29l-2.642-.372M386.344 325.631l-.232-1.165.058-.579.633-1.533-.054-.356-.236-.17-.897-.21-1.232-.27-.517-.255-.165-.29-.116-.512M386.246 313.078l-.266.64-.116.41-.174.727-.214 1.573-.576 3.339-.288.288-.662.23-.364.006M349.87 316.017l-.895 5.216M349.87 316.017l1.287-8.961M349.87 316.017l-4.81-.513M349.87 316.017l4.561.46M337.423 314.384l3.159.626M324.846 394.133l2.48-15.641 4.115-25.9.684-5.044.174-2.476-.404-16.813.173-1.381 1.036-2.188 2.54-4.44.421-.934.157-.976.165-2.171.345-1.037.691-.748M341.324 305.054l-1.088.083-1.143.351-.481.298-.439.483-.276.575-1.251 5.525.144 1.036.633.979M341.324 305.054l.874-.22M360.313 308.77l4.31.77M360.313 308.77l.093-.717M360.313 308.77l-1.299 8.113M360.313 308.77l-4.417-.827M368.863 310.468l4.54.818M368.863 310.468l.138-.764M368.863 310.468l-1.375 7.44M368.863 310.468l-4.24-.928M381.621 312.672l.134-.51M381.621 312.672l.413.018.666-.083M381.621 312.672l-3.753-.611M382.7 312.607l3.546.47" clip-path="url(#p1cc3422e16)" style="fill:none;stroke:#000"/><path d="m382.7 312.607-.493-.327-.452-.118M364.804 308.856l-4.398-.803M364.804 308.856l-.18.684M364.804 308.856l1.079-7.575M364.804 308.856l4.197.848M346.833 305.608l-3.738-.638-.897-.135M347.918 298.163l4.948.868M347.918 298.163l-1.085 7.445M346.833 305.608l-.102.62M346.833 305.608l4.492.796M346.731 306.227l4.426.829M346.731 306.227l-1.67 9.277M348.975 321.233l-4.278-.876-.281-.165-.124-.153.033-.294.736-4.24M340.582 315.01l.469.093 4.01.401M340.582 315.01l.667-2.384M352.866 299.031l4.373.767M352.866 299.031l-1.541 7.373M351.325 306.404l-.168.652M355.996 307.248l-3.486-.637-1.185-.207M351.157 307.056l4.739.887M345.913 341.328l.995-6.244M346.908 335.084l4.413.68M348.38 325.63l-.193 1.42-1.28 8.034M364.935 337.835l-4.863-.72M365.489 334.129l-.388 2.558-.166 1.148M364.144 341.622l.15-.588.462-1.958.18-1.24M348.975 321.233l-.596 4.396M358.827 294.563l4.353.787M358.827 294.563l-4.531-.75M350.019 293.105l4.277.708M363.18 295.35l4.291.638M357.24 299.798l-1.244 7.45M361.585 300.554l-.956-.161-3.39-.595M355.996 307.248l-.1.695M355.996 307.248l4.41.805M355.896 307.943l-1.465 8.535M354.431 316.478l-1.554 9.733M354.431 316.478l4.583.405M351.321 335.764l4.187.646M351.321 335.764l-2.22 13.179M351.321 335.764l.694-4.156M352.202 354.622l.74-4.966M352.202 354.622l-.103.757M349.1 348.943l-.467 3.35.132.579.53.43.892.629 2.015.69M359.495 363.233l-4.062-.568M359.495 363.233l1.17-6.3M363.217 363.989l-1.178-.326-2.544-.43M375.776 379.84l-16.973-7.474-.761-.563-.104-.305-.016-.285.931-4.155.642-3.825M351.149 361.86l-4.871-.822M351.149 361.86l-.847 5.828M355.433 362.665l-3.402-.575-.882-.23M352.1 355.38l-.854 5.705-.097.775M355.508 336.41l4.564.705M355.508 336.41l.782-4.052M355.508 336.41l-2.566 13.246M357.53 325.949l4.284.667M357.53 325.949l-.163.837M359.014 316.883l-.592 3.797-.893 5.269M363.355 317.33l-.48-.068-3.86-.379M360.406 308.053l1.179-7.499M361.585 300.554l4.298.727M361.585 300.554l.6-3.399M366.672 297.813l-.79 3.468M366.672 297.813l.478.091M365.883 301.281l4.527.766M364.623 309.54l-1.268 7.79M363.355 317.33l-1.541 9.286M363.355 317.33l4.133.577M360.072 337.115l-.806 4.293M360.072 337.115l.648-3.903M355.433 362.665l1.108-6.512M352.653 376.853l.125-.554.535-1.924.363-.91.141-.694.027-1.02.144-.864.403-1.44 1.042-6.782M350.244 390.366l-.143 1.104-.947 6.549M352.47 406.7l-.48-.463-.306-.612-.107-.787.71-5.728-.05-.463-.396-.256-.496-.066-2.191-.306M324.846 394.133l10.781 3.125 4.001.744 5.295.01 4.23.007M350.244 390.366l3.11 1.018M351.409 382.687l-.76 4.552-.405 3.127M351.409 382.687l3.068 1.068.69.46.116.375-.115.576-1.123 4.145M351.409 382.687l-3.583-1.005M352.653 376.853l-1.084 4.8-.16 1.034M352.653 376.853l-3.804-1.201M348.85 375.652l-4.334-1.368-.317-.317v-.604l.633-4.405M348.402 377.911l.447-2.26M348.85 375.652l.682-3.553M372.3 318.624l-4.07-.613-.742-.104M366.39 327.923l.698-5.918.4-4.098M369.001 309.704l1.409-7.657M369.001 309.704l4.434.895M370.41 302.047l4.345.735M370.41 302.047l.716-3.344M371.126 298.703l4.232.713M375.358 299.416l-.603 3.366M374.755 302.782l-1.32 7.817M379.28 303.509l-3.161-.497-1.364-.23M373.435 310.6l-.032.686M377.972 311.52l-1.335-.274-3.202-.647M373.403 311.286l4.465.775M373.403 311.286l-1.102 7.338M372.3 318.624l-1.585 9.167M372.3 318.624l4.326.65M374.641 331.153l1.985-11.879M376.626 319.274l1.242-7.213M376.626 319.274l4.318.644M377.868 312.06l.104-.54M377.972 311.52l1.307-8.011M377.972 311.52l3.783.642M379.28 303.509l4.258.668M381.755 312.162l.595-2.172.544-2.437.644-3.376M379.065 327.02l.26-2.389.38-1.232.818-2.034.24-.915.181-.532M379.065 327.02l-.029.397-1.192 5.415-.016.368.115.24.211.16.612.203 2.302.385M402.958 332.36l-17.472-3.216-.807-.374-1.362-.683-1.297-.38-1.24-.249-1.715-.438M365.489 334.129l-4.77-.917M366.39 327.923l-.137 1.164-.764 5.042M360.72 333.212l.524-3.16M360.72 333.212l-4.43-.854M356.29 332.358l-4.275-.75M356.29 332.358l.639-3.303M352.015 331.608l.862-5.397M348.38 325.63l4.497.58M352.877 326.21l4.49.576M357.367 326.786l-.438 2.269M361.814 326.616l-.57 3.436M366.39 327.923l-3.138-.996-1.438-.311M356.929 329.055l4.315.997M349.1 348.943l3.842.713M352.942 349.656l4.631.757M357.573 350.413l-1.032 5.74M357.573 350.413l1.693-9.005M357.573 350.413l4.074.667M364.144 341.622l-.8 3.125-1.072 3.997-.625 2.336M360.666 356.934l.462-2.63.52-3.224M352.1 355.38l4.441.773M356.541 356.153l4.125.78M365.986 365.359l-2.769-1.37M363.914 359.89l-.697 4.099M363.217 363.989l-.457 2.408M408.455 304.617l-1.602 8.273M400.711 303.421l1.504.314 6.24.882M421.624 306.741l-2.47-.332-10.699-1.792M403.71 328.65l-.752 3.71M403.71 328.65l.936-4.355M403.71 328.65l7.646.747M392.596 326.546l3.604.427.909.088.851.257.952.306 1.57.397 3.229.63M402.958 332.36l7.613 1.15M418.26 321.917l2.232-10.894.206-1.587.306-1.017.414-.611.19-.538.016-.529M437.857 309.385l-1.81-.305-6.705-1.107-6.737-1.077-.98-.155M416.956 329.827l.488-3.11M416.956 329.827l-5.6-.43M410.571 333.51l4.596.818h.57l.248-.09.258-.976.713-3.435M418.26 321.917l-.816 4.8M418.26 321.917l-6.792-.715M406.853 312.89l-7.623-1.089M405.402 320.258l1.367-6.794.084-.574M399.23 311.801l1.481-8.38M405.27 321.07l-7.664-1.488 1.403-6.158.221-1.623M412.388 325.455l1.464.391 1.951.587 1.64.284M410.794 324.899l1.594.556M410.794 324.899l.674-3.697M404.646 324.295l1.475.369 4.673.235M404.646 324.295l.624-3.225M412.388 325.455l-1.032 3.942M411.356 329.397l-.785 4.113M410.571 333.51l-.795 2.96M381.962 267.365l1.852.33M381.962 267.365l1.72-7.143M381.962 267.365l-1.323 5.622M377.001 287.207l1.588-6.217 2.05-8.003M261.205 277.554l2.016-2.576.728-.392 1.12-.336 1.513-.504.784-.672.57-1.427" clip-path="url(#p1cc3422e16)" style="fill:none;stroke:#000"/><path d="m112.573 191.406 7.99 6.492 5.73 7.084 1.23 1.587 6.757 8.662.67.874 4.785 4.356 6.499 3.108 51.707 20.414 48.824 19.3 21.171 8.364" clip-path="url(#p1cc3422e16)" style="fill:none;stroke:#000"/><path d="m110.655 198.424 1.4-6.048.518-.97M382.478 233.295l-.312 2.578M411.468 321.202l-6.066-.944M372.025 271.726l-.494-.077M405.402 320.258l-.132.812M364.144 341.622l-4.878-.214M368.523 292.314l-.43-.092M368.094 292.222l-.623 3.766M368.094 292.222l.847-5.12M370.114 282.832l-.423-.098M369.69 282.734l-.749 4.368M369.69 282.734l.578-3.365M372.683 265.74l-.13.661-1.022 5.248M372.683 265.74l.213-.5M371.53 271.649l-1.262 7.72M367.471 295.988l-.321 1.916M562.072 338.577l-.397-1.323-1.587-3.373-1.46-4.995M437.857 309.385l1.025-2.073.827-3.109.53-3.44M482.995 316.656l-11.684-1.882-18.612-2.916-8.375-1.433-4.202-.659-2.265-.381M482.995 316.656l-.1 2.49.2 1.654.595 3.605.397 1.653.43.959 2.183 2.646.397.496.265.463.297.198.265.463.927.827.793.96.198 2.215-.528 1.422-.364 1.753-.828 5.655-1.654 2.679-.264 1.124.232.761 1.852 2.745.496 2.05.927 1.455 3.241 2.315 1.952 1.82.827.958.595.96.43 1.124-.496 2.712-.628 1.521" clip-path="url(#p1cc3422e16)" style="fill:none;stroke:#000"/></g><g id="PatchCollection_1"><path d="m-1730.183 1621.942 510.403-573.897 866.207-973.933 29.5 10.317 18.52 11.905 14.553 8.73 14.816-10.582 11.642-6.35h8.467l4.762 11.905-3.175 25.662 10.319 5.82 8.995-13.757 3.44-4.497 7.938-3.704 17.726-7.407 7.674 5.29.793 7.408 47.36 29.63 14.288 1.85 52.386 36.773 14.553 5.82 59.53 8.466 19.844-35.714 26.193 2.645 20.108 4.762 17.198 7.672 5.292 6.35-1.323 12.697-15.367 25.298 18.012 12.004.265 35.714 17.727 16.402-3.704 14.021 23.812 14.286 47.625-39.683 5.556 1.323-7.673 17.99 84.402 49.735 5.291-10.053 5.292 3.175 5.291-6.614 7.144 3.968 5.82-4.497 17.728 7.937-4.763 54.761-29.897 28.571-9.261 26.72 23.283 3.704-1.852 17.196 34.13 12.434-13.492 25.132H269.91l-10.583 3.175-4.762 10.318-7.673.264-6.88 3.439-1.851 5.82 2.645 8.201 9.526 1.323 15.345-4.497 10.848-2.117 5.556-8.73 6.615-7.672 6.614-3.703 13.494 1.058 16.14.794 11.905-6.35 1.323-9.26-6.879-7.407.53-8.73 12.17-18.783 69.32 6.878 2.382-24.868-29.898 7.937-28.575-7.143-14.817-12.434-4.762-7.937 4.498-6.084 6.615-.793 7.408 7.672 10.847 1.058 3.97-2.117-1.324-5.82.53-12.17 12.435-48.941 18.785.264 2.646-8.465 25.4-5.82 2.38-11.376 13.495 2.381L453 333.37l22.49 2.646-1.588 15.872 7.673 7.408 11.906 19.048-17.991 28.836-12.436 5.29-35.718 85.98-18.388-8.862-14.685 1.984-4.1 9.391-5.821 2.514-2.778 3.836-8.996 20.634-2.381 7.938-3.705 8.597-2.91 5.688-3.44 19.974-15.742 4.1-7.276-4.497.529-16.535-18.785-21.429-2.116-2.645-6.747-6.217-5.028-2.777h-3.836l-5.556 8.465-3.043 13.757-6.35 3.174-6.615.794-4.497.794-1.059.396-3.042 7.143 37.04 22.884 14.553 8.73-3.307 4.762-18.653-9.391-5.292 9.524-6.879-1.984-15.346 21.957-8.73 8.069-13.89-3.968-8.468-3.307-7.143-.926-8.732-1.058-9.392-.661-3.307 7.54-6.218 4.894h-1.72l-7.937-1.058-5.82.132-2.514 4.233 1.058 2.91 5.027 5.423-24.077 24.339 34.924 22.487-22.225 25.397-41.274-21.694-22.225 28.572 46.831 34.393-27.781 30.953-12.7-6.614-1.852-6.085-28.575-19.048-8.996 3.44-25.399 35.45-49.477 43.122 21.431 19.048-8.995 13.757 7.937 8.465-11.642 15.874 9.525 11.111-3.704 8.73-78.316 85.717-49.212-10.053 5.292 7.408.265 6.878 24.077 12.17-10.584 19.577 1.852 12.963 4.762 6.085 26.723 5.291 9.525-4.233 7.938 6.879 11.112.528 6.085-5.555h8.732l3.704 4.762v8.202l-3.175 7.143-1.852 7.671 2.646 6.614 6.614 6.35 37.835-38.89-7.937-23.016-27.517-35.98 56.885-62.436 13.494-5.952 16.14 20.503.925.794 10.716 1.19 2.116-10.185 3.704-6.746 29.766-4.366 2.646-7.936-.794-7.011-5.689-1.852-4.762.53-14.288-10.848 4.234-6.878 14.42-14.022 2.116 2.514-11.906 15.212 5.424 4.497 13.89-17.196 7.408-2.249 9.261-8.862h4.498l8.863-7.011 4.499-2.249 7.275 1.587 7.673-1.19-.661-7.408.926-5.423 8.599-4.1 8.598-2.779-2.778-5.29-7.276-5.953-1.19-.53-3.704-5.158.132-6.482 2.646-2.38 31.485 15.079 13.096-15.344 7.806 1.72 5.82.528 14.685 6.085 7.937.397 7.409-13.757-.926-18.518-12.304-3.043-5.953-3.174.265-5.821 6.614-1.851 3.837-2.911 4.63-2.513-5.027-5.026 3.969-4.762 30.559 1.851 6.88-16.402 30.955-43.122-18.918-14.55-3.042-11.377 17.197-26.455 13.626 3.439 14.023 6.746 48.286 28.44 8.996-20.371-25.267-19.18 21.96-32.805 12.17 1.985 9.922-11.112 69.32 34.92 29.898-28.57-92.471-48.546-23.945 31.085-7.408-6.614 18.785-36.508-23.283-12.699 18.786-18.783 21.695 10.185 7.673-14.814.793-11.111 6.615-2.778 6.88 23.809 62.44 26.984 4.763-28.306 11.642-12.434 13.228-4.498 15.346-14.815 9.26-15.344v-4.233l-9.79-3.174-4.497-5.291 2.381-7.143-60.191-31.878 32.278-34.458 19.248 16.137 12.105-4.166 25.135-16.535 21.696 14.021 16.933 4.498 13.758-5.82 8.996 5.555 2.38 5.82 1.985 9.657-5.291 11.375-6.218 11.508.53 13.227 7.672 16.667 11.112 7.143 6.615 1.588 10.319-8.466 8.466 3.704-7.408 10.053 13.229 22.487 35.454-43.652 58.737 23.81-33.602 39.683 16.14 21.693 15.345-7.937 14.817-20.899 38.628-29.63 29.369 15.609-37.57 41.005 80.432 33.07 7.409-1.059 24.076 14.286-10.848 16.402 36.777 40.477 27.252-29.101-8.466-7.407 8.466-13.492 10.583 8.73 30.162-6.614 11.378 11.376-21.167 17.724 16.668 29.366-13.758 18.519 16.669 12.963.662 8.598 15.61 12.434-2.117 10.318-28.178-4.63-10.186-3.042-90.09-59.26-19.05 8.994 17.198 10.318-16.801 26.455-29.633-16.799-11.377 2.514-3.704 2.91.794 3.571 23.548 15.477-20.903 37.566 24.21 19.313-.265 11.64 15.346 8.069 1.984-7.275 29.236 12.831 10.716-8.599 4.366 4.895 7.805 4.233 5.688-1.588 8.335-1.719 6.879-8.466-17.595-30.027-3.44-7.936.265-6.482 2.646-2.116 5.953 1.455 17.86 3.439 17.461-1.058 8.6-6.746 23.547 5.423 12.832 7.937 7.673-4.762 39.555 5.158 4.497-11.11-31.352-8.467 13.758-13.757-27.649-24.47 16.537-17.726 22.621 16.138 8.599 2.91 31.22-19.313 11.113 4.63.265 8.598 19.578 14.154-36.247 51.324 6.747 6.349 6.35-8.334 21.431-1.72 31.882-42.725 19.843-1.19.662 15.873-10.054 15.344 20.372-.661 6.748-3.969 3.571 2.117 5.16 15.873 5.291 3.968 1.19-10.979.53-7.672 1.72-5.026-3.308-4.63 1.985-20.106 53.313 9.92 9.392 6.35 34.793 1.323 86.782 13.36-4.1 8.862 25.267 11.376 20.77.133 2.513 5.555-2.25 4.762 12.966 8.73 7.672-3.968 3.572-8.069 5.953-1.455 7.805 3.572.926 7.01 7.409 4.63 3.968-8.598 7.805 2.91-19.05 39.155 12.105 5.026 13.361 1.52 18.852-28.108 26.723 12.302 21.034-35.98 34.527 7.805-3.307 11.376 2.117 4.894 12.832 1.72h3.307l27.65 12.566 13.228.396 4.498-5.422 4.895-1.985 14.684 2.514 5.953 4.233 2.778 7.143 11.51-16.8 16.007.264 8.598 5.556 4.366-4.365 24.474.662 15.875 5.026-15.61 30.027 13.89 6.085 13.097-27.646 5.291-.662 7.408-24.339 13.494 1.19-7.54 23.546 3.836.397 4.895-9.391 15.213 3.967-1.984 5.953-5.16 4.365-.661 6.879.132 3.703 8.467 3.307-1.72 8.202.926 3.968 38.894 15.212 10.186-.926 6.35-.397.264 3.704 13.759 6.217 17.991-51.456 16.669 2.778 1.984 27.117-4.63 63.096-60.986-12.566.662 14.683 8.73-1.323 6.615-.132 1.984 3.571 5.557 7.143 11.112 4.233 3.704 8.73 4.498 4.101-5.953 2.646-14.552-5.027-6.085-.397-8.6 5.556-8.73 5.423-26.458 46.43 13.89 4.365-4.498 3.572-7.54 6.217-2.381 8.863-5.821 7.672-7.938-.132-12.303-.926-2.116 28.704v5.16l3.175 5.952-.794 18.386-59.53-10.053-3.97 12.302 27.65 6.35 3.042 9.26-.53 5.157-11.508 15.61-16.008-2.513-8.995 1.983-7.409-1.454-16.668-11.376-10.848-.662-69.718 73.283-29.5 38.361 21.299 4.762-21.034 15.476-8.468-4.894-2.91 12.963-3.968 7.938.397 7.407 5.027 6.482 3.704 5.16-1.059 3.967-10.45 5.292-7.144 10.714-2.778 8.202-10.054 5.688-4.101 10.45.661 7.01 8.202 7.673.265 7.408-10.716.396-10.318-.132-5.424 2.249-10.055.132-2.248 6.217-12.832-.529-8.335 7.54-7.54 22.356 1.455 2.777 5.027-.396 8.202-.926 5.953 4.1-1.19 6.614-8.335 7.805-13.361 16.932-9.658-1.852-13.89-5.16-4.498-10.185-5.82-13.757-25.003-4.762-7.806-1.984-8.466 9.524-3.175 6.879 1.058 3.307 9.922 2.38 9.922 10.98 1.124 4.63 8.467 4.497-.265 4.432.662 3.24 1.984 5.16 3.109 5.423-.066 5.159.661 14.55-8.268 10.45-14.684 4.83-33.8-7.871-6.813 10.185-4.697 1.984-13.957 23.15 2.647 4.1-1.125 5.291-1.257 3.043.463 3.373 28.64 4.498 4.764 3.439 3.704 3.24 1.455 6.086-8.202 9.722-4.564 4.829-6.086 2.777-12.633-5.622-17.33-2.182-.199 2.58 4.432 5.224.066 2.25-4.96 4.497-7.607-1.588-.993 15.676 13.163 2.513.33 3.837-.991 5.159-6.284 2.91-6.813-.728-7.937-1.52-16.404-2.647-10.716-3.439-7.54-1.323-14.023.596-7.276 13.095 31.551 5.358-.529 2.249-2.183 7.87-11.972 9.326-4.763 1.124-3.109 4.101-3.042 13.559 2.976 3.836-.992 5.887-.264 11.244-.794 6.084-5.424 13.956 2.447 8.466.265 11.112-6.614 7.606 19.181 4.696-2.513 15.147 3.506.463 5.755-12.37 4.96-1.653 3.308-3.24.264-5.556-12.039-7.011 3.11-4.035 4.365-2.58 7.078-.86.397 8.996 3.836.926 8.798 1.786 5.886-1.918 32.61 5.952.794-12.434-20.373-3.373.794-5.027 4.1-5.49.331-3.637-4.96-3.506-4.763 8.73-2.977-2.645-4.563-8.003.926-6.879 4.167-7.209 9.128-.198 10.649 1.72 13.56-28.706-5.292-3.77 3.704-4.696 2.25-6.217 4.563-2.778 17.926 5.16 11.244 1.256.86-2.778 2.315-5.16 1.455-.727 2.712-2.314-4.498-2.448-7.805-5.754-1.785-5.886-7.012-2.646-7.805-2.976-3.307-3.903 4.497-2.91 6.814-4.894 4.498-4.895 5.953-3.77 6.746-2.182 5.755-1.918 4.762.594 2.977 1.258 2.977.463 4.63-1.456 3.968.067 3.77-1.059.728-4.233-.926-3.506.728-3.042 4.696-.595 5.887 1.058 8.334.993 9.128.528 5.887.199 12.171-8.07 3.968-.793 4.83.331 5.49-3.308 2.645-4.894-.926-4.3-.86-3.372 3.241-2.315 4.564-.066 3.307-.662.331-6.018-3.241-1.919-12.369-2.777-1.786-3.506-2.91-3.042-4.035-.992h-4.234l-4.365-1.39-4.366-4.166-6.482-2.249 11.179-9.921 14.287 1.455 5.689-4.762 1.72-6.614-1.985-7.143 7.21-5.291 4.068-.067 3.935-.098 4.862 1.984 5.16 2.414 4.266-.893 1.918.661 4.068 3.539.86 1.488 3.174.231 4.83-.198 5.886-8.07 1.488-4.001.926-9.921-1.52-3.141-.828-2.812-21.728-4.662 7.937-12.435 15.147 3.109 2.911 1.786 7.144 5.225 8.73 4.762 5.821 2.91 6.02 1.19 3.174 5.16 6.748 4.762 8.003.33-1.058-16.998 5.159-12.037-29.633-8.202 6.019-11.905-18.322-5.688 11.178-11.707 4.234-.066 1.72-1.389.198-4.1.661-3.837 5.292-.793 27.252 6.944 12.634-28.043-12.105-4.167-3.638-9.722.198-5.622 4.366-2.844 5.556-1.323 3.77-.662 4.366 2.712 10.98 5.027 1.72 2.116 3.836 2.448 4.829 1.918 9.194-13.03-8.4-4.762 7.011-10.252 19.05 3.836 1.521-2.513 1.191-3.109-1.918-3.571-4.035-3.969-1.786-3.108 7.739 1.389 11.443 2.182 12.435-14.22 18.918-19.908 6.218-1.984 1.653-3.836-1.521-3.175-4.035-.463-5.424.529-4.101 2.05-6.085.794-6.02 4.498-6.35 6.283-1.388-2.249-.926-6.878-1.257-5.291-1.125-4.167 1.39-4.697-1.588-3.571 2.117-3.174 1.389-4.696 6.548-6.416 41.539 9.127 23.15-24.537 3.44.595 2.117-1.191 2.05-4.034 3.573-.728 4.233-.463 6.02-4.167 2.38-7.01 1.522-5.424-1.39-5.358-4.431-5.423-6.152-5.225-4.233-6.746-4.498-7.21 2.117-3.901 6.416-.728 6.614 1.72 10.848 2.579 5.556-.066 7.541-11.574-1.19-2.778-4.433-4.498-.595-5.82 5.094-12.832-.53-4.166-1.39-4.894.795-6.086 3.043-2.116 5.424.53 5.423 2.711 7.409 5.754 4.96 4.497 7.475 5.16 3.704 2.91 7.012-1.654 8.334-10.714-16.8-14.088-.133-2.976 6.68.86 5.226-.397 2.116-8.003-2.38-2.844-7.673-6.416-.199-5.423 3.307-3.24 4.035-1.919 2.778-.066 5.424 1.058 7.21 2.05 4.564-1.19.066-.992-.264-8.07 1.521-7.341 2.381-2.645 7.938-1.72 2.315-5.225v-14.286l-.067-3.77 1.456-3.44 3.902-2.579 3.77-5.49.728-5.952 1.19-3.704 8.004-1.455 8.6-.793 7.01-4.697 5.094-10.119-.596-3.571-5.49-4.035.397-8.73.066-6.283-8.466-5.49-6.68-8.135 1.322-4.365 6.68-1.19 2.58-4.3-1.52-6.878 1.256-1.918 12.369-.728 7.871-.33-.926-6.747-2.25-5.357.994-3.638 2.38-.066h1.125l8.004-1.52 1.587-7.276-7.937-1.786-1.786-.265-13.825-2.182-5.688-3.307 4.895-33.996 13.691 6.02.596-1.39-3.374-8.863-9.657-9.656.199-3.373 1.587-15.609.992-4.696 1.39-2.844 1.587-4.299 5.291-6.15 13.759-.53 2.249 1.984 4.762 4.762 1.852 6.218.926 1.19 5.556 7.01 5.954 6.482 5.688.265 4.101.661 2.117 7.011 8.07 5.159 5.159-2.117 6.35-7.54 5.953.133 1.984 6.35-.132 6.216-.794 8.73-27.252-3.968-8.73 27.514 31.352 7.54 8.996-9.392 13.89-2.513 3.308-9.26 2.38-11.11 5.028-9.922 7.011-2.513 22.093-1.587 8.599 2.778 12.7 7.407 15.477 9.524 1.985 11.773.529 11.111 5.424 7.143 4.233 1.455 2.91-5.82 1.852-8.069 1.456-5.688 5.292-11.905 5.027-2.116 3.307 8.333 3.175 6.879 8.466 4.233 15.61 8.069 10.848 12.037 31.089 14.947 11.376-8.333 11.245-33.202 3.704-9.127 2.91-5.556 10.716-35.98 8.07 3.175 8.467 4.63 6.217 6.614 23.416 18.916-6.218 13.756-17.462 32.012-4.101 13.89 6.217 6.745 1.852 13.228 107.155 32.937 12.171-23.677 7.805-.662 1.72-4.365-2.778-5.953 4.895-11.243 16.272 10.45 11.641-7.937 6.085-2.38 16.802 5.555 6.35 4.762 7.143 5.82 6.218 5.82 5.026-4.233 4.102-5.688 6.879-3.042 10.583-.132 4.233 6.085-2.116 9.26-.926 7.142 7.673 9.656 8.334 9.657 4.365 8.598 5.027 5.688 3.043 4.365 8.202-16.006 5.557-1.852 10.053 2.646 5.027 4.63 7.673 3.042 2.381 14.286 3.44 19.842-4.234 21.958 28.31 8.202 7.144-14.022 2.381-3.175-1.455-14.153 9.79-5.556 3.043-6.217 13.89.264 7.938-3.836 2.91-2.91h10.319l2.38-3.307.53-5.026.53-2.117 9.127 3.44-.007 1616.433-576.795 1.572-699.56-5.596-506.253 3.427-1313.452-3.58-1483.302-13.763-260.646-592.302zm875.89 799.47-3.44 1.19-7.275-2.91-7.54 7.012 5.82 7.804-2.116 6.086 13.758 12.832 9.392-7.541 4.763 4.101 7.011-4.498-8.863-6.746 2.248-6.747-4.762-6.614v-3.572l-2.513 1.19zm59.267 9.657-3.175 3.043-4.234-.264-3.307 6.216 7.012 3.043 12.302-11.906-5.159-3.44-4.1 1.324zm-73.817-38.76-3.969 2.25-2.514-2.514-6.614 5.689 39.29 22.885 10.98-13.36-5.424-3.97-7.673-1.058-21.563-16.27-4.63 4.365zm86.782-13.096-5.953-3.307-5.688 4.1 6.35 4.498zm153.193-148.82 9.79 8.73 6.35-13.095 10.318-12.038-9.657-4.63-4.101-4.63-7.673 8.598-5.82-3.968-3.175 2.116-5.292.926-2.381 7.012 3.043 3.307 7.54 1.454 3.175 3.043zm270.931-193.002-27.714-14.022 1.256-1.63 3.438-7.764-10.317-1.982.529-3.44 2.778-9.127-4.233-7.937 18.653-26.853 5.16 1.719 7.805-4.895 8.466-13.89-7.673-7.142 2.91-4.233 6.615 2.91 7.144 5.291 5.423 6.217 10.584 6.085 2.249-1.852.397-7.937-5.424-5.555-.265-12.038-3.307-3.836-13.097-2.91-10.186 5.29-3.969-2.513-14.023-23.81-11.377 1.72-35.718-18.652-9.393 17.99 29.898 18.652-.794 52.516-18.785-8.863-7.673 14.022-31.618-13.89-7.805 10.715 19.183 9.525-21.82 37.363 10.575 16.079-21.431-8.466-.53 19.048 16.14 10.848-29.633 18.784-11.377-3.704-1.852 14.816-8.466 1.058-5.292 8.202 10.583 3.968 4.233-6.35 11.906-6.878 10.055 3.175 8.599 8.268-6.946 5.49-.793-1.787-6.417-.132-.727 4.365-1.985 2.25 4.63 2.38-.926 2.58-3.44 2.778-2.71-1.058-7.21 9.193 2.38.463.397 5.358-1.984 4.167-3.373-1.059-3.506-5.159-5.027 4.102-6.35 4.034.793 3.174-1.852 1.125.133 2.25 3.506 2.38-.86 5.424-3.705-.53-2.38 4.168-13.163-9.59-5.953 7.738 11.575 7.606-1.654 2.249-3.24.198-2.647-1.455-20.968 22.687 9.566 7.854-25.771 26.341-8.203-2.712-13.89 13.824-1.455.926-3.969-4.035-.992 2.448-2.646-.53-.132 2.05 2.25 1.39 1.719-.86.529.661-.86 1.522 2.249 2.645-5.755 10.583 2.828 2.513-1.902 2.299-1.455 1.041-3.67 2.745-4.598-3.108-8.334 9.061 3.902 3.737-7.508 8.979-2.512 1.819-4.052-2.166-10.401 9.127-7.607-6.151-4.432 4.365-.463 3.638-16.47 13.89 11.641 6.912-11.674 9.855-8.963-12.732-3.77 3.572-4.233-2.183-.86-3.373 3.44-3.109-.067-2.249-13.56-13.625-10.319 10.318 15.743 16.006-5.82 5.82-4.631 1.191-.926 3.837-5.556 1.19-1.588-2.513-4.233 2.38-8.07-4.629-1.322 1.455-5.292-2.513-2.58 1.72.794 1.984-2.116 3.108-3.11 1.323-.594 1.786 2.513 1.72 13.956 4.431-2.711 4.895 1.124 2.05 5.688 1.323.926.926-2.976 1.984-2.447 3.373.33 6.615-8.665 2.58 3.374 4.431-1.522 2.711 3.175-.197.86 1.653-4.167 2.513v2.315l4.399 2.414-4.647 4.085-3.72-.81-3.44-3.241-11.377 6.614 8.07 4.233 1.554 3.24-5.523 5.92-5.126-5.82-3.605 1.422-6.483-5.027-3.968.265-8.203 6.217-6.945-6.548-1.653 1.19-2.58 6.549 1.455 2.48 4.432 1.918 1.72 1.158 6.283-1.522 1.92 2.25h1.983l.86-3.572 5.689 3.571 8.4 3.77.066.86-4.498 3.241 7.805 3.473 2.216 3.935-.628 3.803 2.778 4.795 7.607 8.334 1.455 8.07-2.249.793-5.953 10.451-5.027-2.249 2.91-6.614-3.836-3.571-8.731-5.954-5.556-.529-5.027 5.953 1.852 2.38 5.159 2.912-4.564 7.805-4.63.793-6.88-4.034-6.085 2.182-3.836-.264-6.218 2.315-7.011-3.043-5.821 4.3-4.167 4.299-3.374-.926-8.07 5.555-9.789 12.964-2.712 1.059 1.522 4.299-3.307 2.513-1.125-.463-3.241 2.977-5.887 3.505 3.638 3.572 3.571-2.91.86-3.374.992-.397 4.499 1.257.397 1.588 2.712.595-1.059 3.373.133 8.135 6.614 9.525 8.202 5.292 6.482 5.291 4.233 5.556 8.996 4.365.265-9.656 1.455-7.011-7.144-4.895-9.26-10.319 1.984-1.587-8.07-8.202-4.233.133-7.672-2.117 5.026-2.249 5.424 2.117 6.086-.53 5.027 9.393 10.98-8.73 17.594-11.51 6.748-8.466 5.159 1.852-2.25-5.026 1.985-3.043-.661-1.918 1.19-1.39 2.977-2.05 4.167-.595 1.686-.86 5.16.629 6.515.562 3.109-1.455 3.175 1.19 3.308-1.124 2.315-4.63 4.034-.198 2.91-1.985.398-2.844-1.522-2.447-1.72-1.124-2.15-.034-1.058-6.019-1.521-5.423-3.935-3.969-4.068-4.266-1.158-1.885-1.224-5.523h9.03l-1.985-9.392-3.705 1.587-1.984-1.587-4.398-.397-1.455 1.488-1.026-1.521.298-3.638 4.861-2.381 1.158-2.15 2.083-3.505 3.34-3.373 4.4-3.208 3.604-4.597 5.755-6.532 5.06-4.762 6.648-7.821 2.447 2.81 7.938-1.157 12.865 15.345 10.451-13.096 1.852-4.762-3.705-1.72h-3.174l.264-3.043 4.63-3.174 1.985-5.82 3.043-1.191 5.424 9.524 4.233-6.085 10.98-.397 7.276 7.408 6.218 5.291 6.085-2.116 4.762-5.16 4.498-7.143-5.291-6.35-8.6-7.936-8.202-5.027-.793-2.381 1.455-3.836 4.498-1.455-2.116-6.482-1.853.132-4.233-2.646 3.44-5.556-3.705-3.075 7.673-7.508 18.389-17.726 7.077 5.093 2.05-3.968 3.837.463 7.607-11.773-4.498-2.117-3.043.397.38-3.043 1.357-1.57 4.547-3.39 5.887 3.902 2.183-1.058 1.72.529 1.918-.595 3.571.264-.926-3.836-2.248-.33-7.276-4.498 7.474-8.07 2.447 1.588 1.455-1.984-1.686-1.687 1.455-1.654 2.083.695 2.977-.265 1.587.728.926-1.058-.463-1.455 2.911-6.68-.264-1.72 1.19-.199.662-1.124 2.116-.265 1.29-1.819.364-3.075 4.531-4.696 8.103-8.269 3.373 2.448 4.63.463 7.342 4.299 4.168-6.085 3.307-2.117-8.864-5.49 3.97-5.952 6.415 3.307 3.175-4.498 1.918-.793 1.323-3.175 2.878-1.753.562-2.15-.331-2.447 1.984-4.696 3.175 2.613 7.077-7.706 13.759 9.921 3.704-7.143 4.1-2.91-4.1-9.657-3.44-5.423 5.557 1.19 10.319-11.773 4.233-6.482-5.557-4.63-3.505-4.299-2.117-2.448.661-4.828 3.903-3.902 8.533 5.093 1.786-.662.728-3.638 7.54 3.374 2.183-1.522 1.852-4.63-8.665-4.1-2.91-2.977-.728-3.307 3.836.992 2.977 3.11 2.91.925 4.035-2.05 4.564 1.984 2.183-7.606 2.778-1.985-5.556-3.571 7.937-6.35-5.093-2.447 1.918-4.96 6.879.396 3.837 3.969 2.712 2.182 5.953 1.918 15.875 8.136 4.564-.132 5.424-5.622 4.365-5.755-37.173-21.562 1.72-2.645 7.54 1.72 3.572-5.689 2.38-7.54 17.199 4.1 7.805 5.424 6.746-5.292 2.911-5.423 4.366-1.19-1.588-8.864 2.646-3.571 10.45 3.836.398 5.027 3.44 1.72 2.91-3.44 6.482 3.175zm-234.022 30.029-13.625-7.144-1.456 8.863-8.863-3.174-5.16 13.096 11.642 4.894-2.513 22.224 11.377.66 12.038 8.6 4.63-5.953-3.44-11.641 3.704-.926 6.218-11.244-5.82-5.027 4.233-9.524zm-82.681 20.239.265-15.08 2.38-7.144-13.493-6.878-16.933 22.488 14.552-2.117zm-442.644-48.944 15.742-18.387-9.921-6.482-14.825 17.368zm629.967 186.653-2.645-4.63.926-5.424-7.806-7.275-8.996 23.547 5.292 3.175 3.175-.662 6.482 2.249zm967.043-180.832-13.759-2.117-5.555-7.143-14.284 1.235 3.304 14.904 3.44 7.937 2.645 12.435-12.435-2.513-2.25 20.107-6.746.926-1.455 28.573-.133 9.524 2.25 7.54-1.985 4.895-6.615 4.233-12.038 1.058 2.117 29.5 25.664-3.572 2.91 6.217-4.894 16.403-3.175 5.556-3.705 10.583-.793 13.493-1.191 12.302 19.05-11.641 15.345-66.142 22.754 1.588 4.234-42.86 17.462 1.587 13.23-20.107 2.116-29.234h-5.556l2.38-19.976-14.816 2.646-14.022 1.058-6.086-1.852zm-596.365-7.937 6.217-10.582 4.896 2.645 4.628-8.633 4.764-4.66 3.373.793 2.117-1.059 2.183-3.637 1.653-3.638 3.043-4.3 8.136-8.465 4.167-.662 4.432.463 7.276 2.91 1.19.265 4.564-3.902 3.308-2.117 9.326 2.05.794-5.158-25.135-13.956-4.829-1.852-3.704 3.968-3.638.596-2.183-.926-4.498-2.05-1.52 3.703 1.586 5.093 2.25 3.572-5.16 6.548-3.969.926-5.82.066-4.498 4.1-1.984 4.234-1.19 4.696 2.248 4.034-1.853-.595-1.057.926-2.117 3.042-2.316 2.844-3.503 2.214-11.908 26.029-1.588 25.134 4.564 5.424 5.953 1.19-.793 7.474-1.39 2.91.331 6.35 4.697 2.116 3.108-6.614-4.63-2.38 1.323-1.654 3.969.595.529-1.852-1.19-2.249 1.388-2.05-.992-3.043-1.521.53-3.307-2.58-2.778.264-3.903-3.77.728-24.472 3.968-4.63zm633.605-37.039 1.455 1.39 6.085.925 4.432.33 4.565-6.084 18.652 9.061 12.236-17.263 6.616-17.196 2.38-1.588 16.14-3.968 3.704-1.853 5.821-8.201 1.852-14.022-7.144-11.64-5.82-12.435 4.233-8.467-.529-5.82-1.852-6.085 9.525-3.44 1.323-5.555-.53-2.646 1.059-7.672h12.435l7.937-4.762 3.704-13.758 4.234-10.053 5.556-7.408 8.202 2.91 9.79 12.17 8.996-2.381 2.645-10.054 2.646-11.64 2.381-6.615-10.847-2.38 15.874-32.277 7.012-6.747 8.467-3.571 1.719-2.117 1.588-6.482 8.466-5.555 3.837-4.366-.53-4.894 3.572-1.984 7.805 1.455 8.467.264 3.572-1.455 3.043-6.746 1.455-4.762-1.852-4.1-.397-5.821.132-6.218.794-5.424 7.011-.264 7.011-2.646 2.514-7.275-47.492-14.948 4.895-10.78 24.606 3.901 23.282 5.688 4.896-17.99 3.175-3.175 18.784-1.19-.264-12.038-3.44-6.614-3.44-5.291-6.084-1.984-6.615-2.646-4.762-3.175-.927-2.645 3.176-1.19 4.498-1.588 3.042-2.91v-1.985l-2.646-2.645-.529-11.112 1.852-6.614-1.19-3.704-6.086-2.778-2.778-3.439 8.864-20.371 10.318 2.249 5.027 2.777 7.011.53 5.028-6.614 3.043-1.456 1.852-2.117-2.25-2.248-3.836-2.91-3.571-1.72-4.763.264-15.544-4.034 5.093-16.337-37.637-7.21-4.431 14.685-6.681 14.815 27.252 5.688-2.712 6.019-10.517-2.381-5.953 9.656 13.36 1.786-3.306 9.194-24.077-5.093-4.697 12.368-4.497 2.844-1.456-2.976-.727-3.638-2.117-1.323-2.778 1.455-17.132 36.907-6.151 16.866 12.766 7.275-2.91 14.948-10.12 1.521-2.316 4.432-3.968 5.29-3.903 3.572-3.968 3.043-.86 3.24 2.116 1.324 2.25 1.52 3.439 5.292 1.323 4.762-.199 6.35-4.3 5.82-.86 2.513-.66 10.65.793 2.248 9.26 5.887-4.564 5.225-9.59-2.513.859-6.482-26.26-5.093-.264 7.011 12.501 3.175-3.968 10.053-6.747-.86-2.381 8.93 3.042 1.587.265 4.63-1.984.198-3.572-2.91-4.63-3.241-3.307-1.455-3.11-.132-3.836.66-.926 1.72-7.871 11.84 20.373 5.82 1.653 1.984-4.829 2.58.662 4.365-.331 1.984.463.86 2.249 2.315 6.615 4.233-.265 3.903-9.856 12.632-10.98 20.306-3.77-.199-2.646 1.257-2.58.331-1.124-1.455-3.704 5.291-3.308 1.323-3.307.86-.727 1.521-2.977.728-1.521 1.587-.463 2.514-.066 2.314.529 1.191 2.116.661 1.522 1.456.397 2.314-.133 1.786-4.497.265.727 3.638-2.05 3.637 1.256 2.91 2.315.331 2.05 2.315-2.182 3.043-3.307 2.315.595 2.91-7.011 8.003-5.755 10.053-7.87-1.256-3.043 3.505.066 4.696 9.525 1.39-.397 4.332.892 2.976-1.52 2.249-3.01 1.025-3.969-1.257-13.097-2.943-9.59-2.348-7.475 5.258-4.432.595-4.134-2.91-.364-1.687-.694-1.52-2.15.958-2.679.397-1.158.43-.727 1.455 1.091 1.687 3.638.562 2.414.926 1.489 1.653 1.786 1.753 2.811 1.323 2.05-.1.993-.694 2.48-1.95 1.224-.563 2.546.496 2.811.695 1.191-.695.992-1.157.794-.166 1.555.992.892 1.82 1.059 1.124 1.984.033 2.414.76.662 1.125 1.455 1.653.926 1.091-2.877 5.226.1 1.984-.133 1.687-2.216.297-1.554-3.042-1.224-1.82-2.547-1.785-1.522.033-.197.265-.067 2.05-.827 1.753-.562 1.62-1.025 1.29.33 1.39.728 2.38.231 1.62-.463 3.076-10.748-.926-1.522 2.15-1.19 2.117-4.73 7.407-10.946-.662-13.99-3.968-6.317.629 1.19 4.53.596 2.05-.33 3.639 8.532 1.852 1.654 2.58 2.778.197.727 1.456 15.941 3.108-4.696 6.879-2.183 1.72-2.976 1.587-4.895-.595-2.05-2.448-4.035-.793-1.323 1.323-31.287-3.572-2.58 15.61 11.708 2.116 1.918-.265 1.588 1.125-4.234 3.307 1.786 4.299-8.797 6.283 2.448 5.16 6.812 2.645 5.226-6.151 2.58-.066 2.447-1.19.727-1.125 5.689-5.027 4.829.992 1.19-2.646.463-1.984 3.77-.793 1.72.264 2.712-.132.794-1.72-3.44-1.786.53-2.315 2.116-1.389 1.522.728 1.19 1.984zm2211.301-781.784 7.408-8.202-18.52-5.158-37.175-8.599 2.25 8.202-1.72 4.498-5.292 6.085 1.852 20.767 4.498 3.44 5.689 6.481-1.852 8.334-5.027 3.968-13.097 4.233-5.689 7.937-11.906 3.043-10.583 3.968 7.144 12.831-3.969 21.165 1.852 6.217 9.393 5.424 17.86 11.508 53.576-77.252-23.812-4.63 3.572-22.355 9.26 5.423 2.382-6.878zm-535.18-262.706-4.433-2.976-4.564-2.117-13.097-4.563 3.77 7.936 1.191 3.969-2.646 2.38-6.614 1.059 1.19 5.423 6.483 1.985 5.291 1.587 4.101 6.746 4.102 5.82 8.334 3.307 9.79-.926.66 16.535-78.977-13.757-8.863 28.308 8.202 3.44-10.98 29.497 11.112 4.895 2.381-9.26 9.79 6.746-.397 3.704 26.193 3.704-3.174 11.375-4.631-.131h-11.377l-.264 5.423 13.361 2.513-1.323 14.551 6.086 2.117-4.763 16.005-1.455 6.085-5.291 4.498-20.903-1.72-1.72 14.683-1.19 9.524-4.234 8.862-15.742 6.614-7.144 6.879-4.63 3.837-5.556 3.703-10.319 10.583-8.466-2.646-11.112-1.19-10.98 3.042.264 5.291 6.086 2.381 1.852 7.805 2.778 6.481-5.16 22.62-.926 10.318-49.609-12.17-.529 4.497 6.482 7.938-16.8-1.191-5.954 14.419-3.44 10.979-6.217.794-10.848-.794-13.758 21.825 10.716.266 5.556-.662 3.969 5.291 10.053 3.836-.926 13.228 19.976 10.186-7.805 9.127 35.322 9.921 5.953-14.021 24.076 6.878 6.218-14.683-25.267-6.614-17.066-2.249-5.688 2.646-4.233-1.323 3.836-4.497 4.365-1.588 5.292-3.174 3.44-6.085-6.614-2.646 3.042-3.175 6.218-2.248 4.233-1.455 11.51-10.98 1.851-5.026-.794-5.027 5.292-6.746 3.837 2.513 7.672 4.63.926-4.762-1.852-4.234 2.117-3.307 1.852-7.936 21.564-24.472 6.217 12.566 5.424 4.895 7.408-8.202.132-12.698-.926-7.673 1.588-6.745 10.848-1.852 12.832-2.381 6.614-6.086 1.125-6.878 3.043-2.513-1.522-3.505.33-5.094 2.051-4.034-.661-4.828-1.786-5.622 4.63-.662 3.639 1.39 3.175.065 5.688-.066 11.51-6.481 3.306 2.646-2.315 15.543-14.353-2.977-3.77-1.852-3.241-.529-.662 2.447 1.521 3.44 4.63 4.893 3.44 2.184v12.037l6.416 1.984 47.294 13.36 14.75-43.586-56.554-15.212.794-.926 2.315-5.291-.794-3.704 2.183-2.645 3.109-1.059 4.696-.198 3.704-7.937-1.852-1.19.463-2.646 2.712-.133 4.366.265 4.63-.066 10.98-.793 2.381-7.606-5.225-5.225.33-8.532-.397-1.985-2.976-1.256-.198-4.3-6.946-2.249 4.168-10.383 2.58-2.778 8.995-1.058 2.38-16.006 32.214 10.053 7.74-14.815-.398-4.894-3.042-16.138 2.315-1.323 2.248-.926 3.506-4.762 1.72-.661.198-3.638-2.38-3.175 3.637-11.376 5.358-.066 3.175-8.995-20.703-9.987 7.143-17.196 5.292-4.564-20.241-5.82-2.778 4.63-1.918-.794-5.556-3.571-20.043-5.093-1.455 1.323h-4.3l-3.77-1.786-2.645.992-6.482 2.249zM-330.423 247.655l-5.423 11.64-3.308 14.419-27.78 20.899-12.039-4.762.53 2.513 2.91 2.513 2.513 3.704-2.513 3.44-3.837-.133-5.16-1.984-3.968 4.1-1.455 6.217-4.763 23.016-5.953 6.349-11.112 2.778h-1.455l-4.895-1.455-11.377-2.116-6.88 2.645 1.324 5.82 5.556 5.82 2.381 1.984 3.308 7.275-4.102 11.244-6.085 8.069-7.673 5.952-.132 8.995-1.852 22.884-3.043 3.967-3.307-.528-3.44-3.704-7.805-.926-5.027 3.175 1.985 6.878 4.762 8.334-26.458-10.45 3.175 14.55 5.953 13.227 14.023 9.656-3.44 20.768-38.629-21.826-8.598 23.678 10.318 7.407 6.482 3.704 4.895 2.91 7.409 4.63 2.513 10.846-2.116 5.159-3.175 8.598-.53 1.322-5.292 5.821-8.466 1.058-10.318-3.836-5.953-5.423-7.277-5.423-5.424.926-8.598 6.348-1.985 16.006-1.455 9.127-7.937 9.26-15.478 5.687-3.837 4.895-1.984 10.053-4.63 8.068-4.499-2.777 1.192-8.07 2.91-9.523-4.498-5.291-6.747-5.16-10.186-2.115-5.292 2.116-4.498 9.788-4.63 5.292-9.393 1.72-1.852 47.619 4.895 3.836 7.012 1.323 11.509 1.586 6.085 7.409 4.101 9.788-2.646 7.936-7.805 14.022-4.894-.397-12.7-4.365-11.245-4.498-7.276-.661-3.572 2.91-3.307 10.185-1.455 13.757-.794 16.402-6.35 14.154 27.913 17.329 2.778-3.704 9.393 7.407 13.229 17.726 2.91 6.349 3.704 5.29 7.144 1.985 6.218-1.852 9.26-3.836 6.482-8.862 2.91-13.625 19.183-59.657 62.97-63.757 7.408 5.555 5.027-5.026-3.44-3.44 8.732-8.597 24.077-35.583 19.844-38.096-1.852-7.01-5.689-11.376-1.852-15.608 9.128-16.138 10.583-4.63 3.836-8.598 21.432 10.318 9.524 2.778 8.202-42.329 36.248-7.672 1.852-20.37-18.388-30.688-6.35-8.73-7.144-9.26.397-1.851 3.307-4.63 8.335-.132 7.408-1.588-2.646-6.084-6.747-5.291-.793-6.35 8.863-7.274 5.688-2.778 10.584-1.058-1.984-9.656-.133-10.053 4.366-2.91 7.937-1.19 6.218-7.144 1.984-16.799 5.557-6.35 11.906.133 2.248.397 18.654 5.291 17.594 1.984 6.614-6.084-4.894-8.069-3.44-5.026 8.731-13.492 10.98.793 2.514-17.328-30.294-14.418 8.334-11.375 6.35-.53 11.245 1.059 6.217-23.677-53.71-15.08-21.431 41.005-1.852 7.143-.397 4.498-6.085.793-5.16-.264zm-91.942 75.397 8.997 1.19 7.54-11.508 8.996-28.703-38.894-8.863-14.42 24.868 7.144 1.852 4.498 5.688 7.673 6.481 4.762 2.513z" clip-path="url(#p1cc3422e16)" style="fill:#006400;fill-opacity:.8"/><path d="m-137.291-1329.367 1281.241-3.073.401 55.026-8.863 1.851-3.837 2.646 1.059 2.513.662 3.836-4.631 4.761h-8.202l-9.79 9.787 75.538 2.315-3.968 3.836-3.175 3.108-.595 4.828-1.059 5.621-3.44 4.894-5.026 3.637-2.448 4.233-2.447 2.777-2.91 3.44-2.316 5.819-3.373-.198-5.16-.86-8.4.396-16.735-2.182-3.307 30.95 13.693 5.158-.133 3.902-.529 5.622-13.56 15.408-9.326-3.835 7.87-24.536-21.43-6.083-5.424 22.815 13.361 5.291-6.284 22.551-3.109 12.896-1.587 13.028 3.175-.463-1.19 7.407 3.307 4.365 1.918 4.299 2.58 8.2-4.763-1.389-24.936-14.748-3.638 7.407-.596 6.283 7.078 6.547 7.937 6.018-2.91 16.533 10.715 8.664-10.45 8.399-12.635-6.812-1.984 8.267.926 4.166-16.007 11.706 11.377 7.737 3.175 4.63-3.572 3.968-3.506 2.116-23.547-8.862-20.637 22.088 6.614 101.846 7.342 4.563 2.646-4.034 7.276-2.447 4.498 2.38-1.125 4.762-6.813 3.44-4.035 8.002 2.382 11.44 9.326 1.72-3.042 5.555-52.52 3.836-.198 11.905 6.284-2.315 10.318-1.058 10.517 2.843 9.062 4.63 6.02.33 1.388-4.827 1.323-2.976 6.152-1.19 2.117-.86 6.151 5.687-1.257 6.349-2.712 6.018-5.093.661-3.836.199-2.845 7.804 1.522 8.597-3.97 5.423-11.574 4.1-3.572 6.878-2.117 2.05-47.03 1.257L969-784.59l4.366 5.357 2.249 6.348 17.86 5.49-1.258-4.035 5.027 13.227 9.194 8.664 2.977 4.167-.265 5.091-1.454 3.241.198 5.555 3.043 8.598 6.283 5.49 8.665.462 16.868.463 4.1 3.638.199 4.1 1.389 9.986 1.852 8.994v4.1l7.342 7.738 5.358 2.645 3.373-1.322 9.591-2.249 6.218 1.191 2.381 3.24.728 4.233 4.365 11.31-1.124 10.448-.86 6.349-16.338 2.249-6.152 2.513-4.63 13.624.993 2.116 21.63.33 6.614 1.588 1.587 7.473-6.085 9.39-40.613-1.719 3.836 18.254 3.572 1.852 4.167 3.306 8.4-3.24 30.36-1.125-.33-6.216 8.533-.662 1.456 6.217 2.05 2.579-.132 14.351-1.455 2.249-8.864-1.72 1.455-4.761-3.373-1.059-1.522.596-1.521 4.894-36.843 2.711.794 13.823 25.003-.86 12.567 5.621 11.642-.198 4.101 5.158-3.969 8.2-.662 4.763 1.192 4.43-.926.927 2.513 7.738-7.806 4.497-13.625 2.315-3.969-6.812 6.68-3.572 4.83-7.076 1.19-4.233v-.53l-2.05-4.827-5.49 4.034-2.448 2.05-7.408-.396-8.93-7.474-2.183-8.134-3.307-.264-5.953 1.389-2.513 4.232.066 4.299 1.256 14.153-.264-6.151.992 11.508.794 6.745-30.692.198-5.225 3.968-.066 5.357-7.342 2.05-5.358 3.307 2.25 4.895 18.056-.86 7.805-1.852 5.027-.926.728 2.315 4.101 13.425 4.763-1.124 5.556-.727 6.35.793-.133 2.778-6.548 13.425-.066 4.894-1.257 1.984-62.176.132 2.05 18.915 58.473-.727 4.762 24.734 4.696-.529 2.381-6.878.331-3.968 4.96 1.653 2.713 6.812 3.44 6.217 1.389 14.55-.33 8.862-6.748 7.01-.728 2.249 8.732 7.142.595 3.704-1.323 1.389-42.664 4.696-2.58 17.195-5.092 3.902-2.977 5.687 3.307 2.381 3.11 2.646-6.946 23.544 2.778 11.507 4.035 1.125 15.743 24.867 9.987.925 7.144-.727 2.249 6.415-7.54 6.945-6.615 5.224-1.257 4.96-4.365 1.19 2.513 20.503-10.253-1.125 3.837 12.103 13.494 4.035 7.21 1.72 3.902 6.282.066 4.1-9.988 5.424-6.151 2.05-27.384-.463-6.284 23.875 7.805 12.566 87.18-1.653 3.505 39.55-4.63 3.57-15.478.463-33.602 14.22-29.368 10.184 12.37 39.087 3.174 12.699 46.566-11.376 14.42 91.93-3.903 7.804-9.988.463-6.548 1.852-.794 2.314 2.25 10.715-3.573 8.135-.529 2.91-2.447 15.674-3.837-.066-10.252-4.96-5.027-2.316-4.167.926-7.74 2.91-8.069 4.564-3.969.066-3.704-3.307 14.023-12.897 3.638-5.158 3.109-3.439 3.175-4.762.992-2.844 2.182 1.323 6.88-.463 2.844-3.307 1.323-5.952-10.451-8.135-8.334-.728-7.342 3.241-3.44 3.572 3.043 5.753 5.688.993 1.72.33.86 3.175-12.568 8.465-5.49-.199-12.237.199-8.863-2.314-6.548 1.123-5.359-.991-1.918 1.521-8.863 5.82-.199 4.695-8.797 2.183-4.696 2.778-4.697 4.762-7.077 10.45-2.58 4.1 1.72 3.439 8.533-1.72 12.964-4.299 8.467-4.761 10.914-5.16 7.607-1.19 6.548-1.587 3.638.198 3.77 2.05 2.712 7.144 1.124 6.216 5.094 7.342 9.128 4.034 6.02-2.447 6.812-1.984 2.646 1.653 7.475 3.373 8.07-2.645 3.372.264 2.977-3.571 2.05-6.35 18.124-9.258 5.623-2.25 6.35-1.322 4.497 1.422 2.91 5.787-3.34 4.332-4.597 1.323-3.307-1.687-2.05 6.482 1.124 5.026-3.505 7.54-4.83 9.59 6.219 7.274 5.622 2.778.926 7.275-1.918 9.458-1.059 4.828.066 1.19-6.15.926h-6.087l-32.873 4.63-.199 15.278 8.731 8.135.926 3.373 1.654 7.407 5.688 3.571 1.257 6.35 4.366 5.687 10.45-1.984 2.117-1.587 3.638 1.984.529 3.637-3.373 3.109-4.035 6.018 5.755 3.836 8.532 1.257 4.498 6.283 3.572 1.257v4.828l.53 7.54-.927 4.166-3.836 1.786-5.82.198-24.475.133-15.544 13.822-8.202 2.513 1.323 13.69 25.334.596 18.52-.265 8.6 1.323.264.199.926 3.836v6.217l-3.175 3.439-7.937-2.183-16.206.066-11.377 13.492-4.63-1.058-2.712 6.416-4.3 4.365-14.684-1.257-2.91 22.95 13.229 2.116 6.812 13.624 13.494 2.712 5.953 2.05.662.33-5.49 14.948-.199 7.474-1.455 6.15-5.16 4.96-48.418-20.105-10.318 28.175 51.857 34.92-4.034 6.019-2.778-2.183-4.829 5.027-4.035 8.598-2.844 5.886.662 3.902.992 13.36 6.416 3.24 3.373-3.438 1.72-4.63 2.778-9.26 44.185 25.993-5.291 71.429-5.16 2.182-8.863 7.408-6.946-4.564-2.38-.463-.133-2.116-1.124-10.582 4.233.529 6.746 4.233 1.786-2.05 1.257-5.49-1.918-3.836-9.79-4.828-5.225-10.847-4.63-5.225-2.513-6.614-.067-5.026-10.186-11.375-3.241-5.027-5.358-2.976-14.685-7.275-10.384.397-5.424 4.761-.066 7.342-1.72 10.251.33 2.711-2.314 4.432-7.805-1.588-5.755 2.051-.463 7.805-5.887 4.76-7.011-11.176 1.852-14.947-4.101-8.797-6.615-11.177-3.704-7.804-1.852.264-2.513-7.341-2.117-9.656-.264-2.249 1.322-1.72 6.35-2.248.133-4.96-7.012-8.268 2.448-6.746 5.423.794 5.358-2.514 2.447-1.984 1.522-12.698-26.458-13.36-2.315 11.508-.331 6.944.992 7.672-.066 1.654-.463 4.696 9.458 4.497-3.307 4.167 5.226 7.606-3.241 2.91-9.591-3.506-38.96-17.79-7.011-1.456-4.498 3.77-2.249 6.945 1.125 8.333-2.184 2.513-5.225 1.521-5.688.86-14.883 1.984-3.837-2.513.463-8.135-.463-2.712-3.77-2.182-4.96-3.77-5.954-12.07-3.77-8.83-6.151-.33-8.268 1.852-4.3 2.248-1.125 3.836 5.822 5.16 1.389 1.52 1.322 3.373-1.72 5.622-4.63.265-13.163-3.307 7.54-18.85-6.878-2.116-3.572 5.555-5.027-.264 6.615-22.354-6.88-2.646-1.918-3.505-.86-10.714-14.089 2.711-3.44 16.138-3.042 2.05-4.828-1.389-2.977-5.092-3.44-2.05-4.365 1.851-.926 10.12-2.448 1.785-5.887-1.587-4.034-7.143 2.712-5.291 1.389-8.797-.265-5.555-21.298-15.609-7.607 1.918-3.374 2.712-5.754 7.01-4.167-2.513-8.533 3.109-1.588-8.003-.793-4.563-8.996 3.108-6.68-3.24 1.322-6.35 4.432-4.828.264-3.572-5.291-2.645-5.292-2.249-5.093-1.719-4.366 6.283 1.72 2.248 2.315 2.381 2.05 2.977-2.38 4.563-5.027 2.778-6.35-2.38-2.117-5.887v-8.07l-1.125-5.753-5.357-2.117-7.276-9.06-.463-8.069-7.475-13.029 4.697-9.92-14.95-4.167 6.284-5.424 11.84 2.58 3.903-9.855-1.786-7.209 6.88-11.309 9.921.132h16.536l21.564-1.058 2.646-9.127-4.763-6.878-10.848-7.408 11.642-8.994 3.572-1.059 23.944 7.276 8.731-.794-2.645-5.556-4.63-9.92 5.688-6.879 5.953-2.513 11.509 2.513 5.16 1.059 16.007 16.005-1.72 10.582-6.482 8.466-.794 7.01-.794 5.026.529 17.46 5.821 14.815 86.782 53.307 4.366-20.105 3.44-8.07 1.455-5.555 19.446-3.439-.926-10.317-.397-10.582 12.833.529 3.44.264 5.556-12.698-1.985-5.424-6.746-2.513-4.234-11.64-.264-11.508 15.08-5.82 3.97-3.968-10.32-4.1-10.98-3.175-1.454-3.44 8.73-16.798 6.747-16.8-5.688-6.612h-8.202l-21.828-1.852 3.572-32.275 2.646-6.614 29.765-4.498-8.466-26.85-18.257-1.985-25.532-27.116-6.879-4.762-.53-7.672.927-5.291 5.027-4.63 6.483-5.82-2.118-5.952-7.01-5.952-5.954 14.286-12.038-3.704-28.575-19.18-11.509 2.249-5.557-3.836-2.91-7.01-11.906-5.16-2.116 5.027-7.145 5.423 64.294 49.603-1.191 3.571-3.307 7.672-12.7 5.82-13.626-3.571-10.45.529-3.705 7.54 3.836 17.592-1.984 7.54-2.778 6.878-6.218 5.158-16.404.794-8.863-2.646-8.996 2.91-3.704 13.096-2.646 16.534-6.88 7.143-10.318-.794-4.63-1.322-9.26-8.466-11.774 11.64 10.32 4.894-4.102 10.714-2.382 12.566-9.921 18.916-12.965-3.307-13.229 6.084-11.641 7.408-6.35 14.55-5.557 18.254-13.493 7.407-6.747 5.159-10.054 2.645-11.774-14.55-1.323-16.534-1.19-6.481-5.689-2.25-77.787-40.078-21.166 37.301-17.992-6.878-7.143 5.688-11.51 4.365-32.543 3.968-9.128-8.466-13.89-6.481 1.058-8.333-4.498-4.1-8.466 16.004-6.615 9.524-7.276 1.852-3.175-1.058.132-6.746 9.922-33.202 12.965-15.21-3.572 3.703-13.097-10.185.793-7.275 11.642-6.878 27.78.264 11.246 4.894 40.878 9.656-5.821-8.73-6.218-5.688-6.085-6.481-2.779-2.646 7.277-1.455 50.8 20.635 12.302-21.957-93.198-37.236 6.151-18.98-5.688-9.79-12.304-11.64.397-3.703-9.26-13.227 6.615-8.73 5.292-10.185 9.392-1.984 22.092 7.804 4.763 5.952 3.307 4.762 8.731-8.465 2.25-11.244-31.75-15.211 8.07-12.566 38.23 12.301 12.569-2.645 10.318-4.365 2.25-7.805-3.308-10.582-12.832-6.48L485.148-.093l18.918-20.9 9.392-5.688 15.346-2.645 8.599-13.227-9.128-8.995-4.101-8.068-.265-12.302 5.292-8.598 11.906 3.307 18.124-10.846 12.832 7.01 4.366.662 23.415-30.952 35.057 11.905 13.89-22.222 36.777 13.492 25.929-43.65 2.381-12.83 1.984-1.852 4.367-1.852 6.482-.397 5.953 1.058 7.672 3.175 10.451.529-2.778 9.523-9.657 18.65 21.034 10.45 5.16-5.82 14.551 18.518 1.852 2.778 26.855 30.555 2.778 8.465.133 11.905 28.178 19.312L859-27.21l3.969 7.54v.53l.397 8.2-3.175 12.566 8.07 8.466 1.851 10.449-4.894 12.83 5.556 7.01 9.79-9.523 3.307-8.598 11.112-14.417 3.307-12.037-5.82-31.348-1.059-7.01-23.283-7.937-10.186-5.291-2.25-4.498-12.303-5.687-12.964 1.058 5.292-6.085 2.513-9.788 3.043-11.507 5.16-13.36 4.232-9.788 5.292-21.826 110.595-78.834 1.587-11.11-22.225-70.633-6.614-32.01-29.898 2.646-12.17 12.697-19.579 40.475-23.019-7.936-3.175-14.285-7.408-17.195-20.902-15.08 11.377-38.358-14.288-2.38-49.211-34.391 24.341-49.998-31.485-39.681-23.813 2.91-11.112 16.666-3.174 9.788 6.35 16.666 19.313 36.507-3.968 6.349-7.144 15.078 8.202 15.344 15.61 27.776-12.5 65.475 8.201 3.704-4.63 9.126-13.758 12.301-10.98 4.498-3.109-.066-7.872-.728-1.455 5.82-5.688 1.654-1.852 1.058 12.039 13.756-2.514 13.888 6.416 9.855 6.548 4.563-16.47 31.68-10.55.43-3.605 1.124-13.096 1.884-36.248-14.55-12.568-7.01 10.45-17.328 7.277-5.82-.133-4.894-2.116-8.994 6.879-2.25 5.424-5.555 6.085-8.465 9.79-3.57 8.334-6.085 2.646-6.482-1.984-7.54-3.572-7.671 6.35-7.54-1.852-2.91-7.806-8.068 7.012-11.375 9.79-16.799 2.116-7.407.53-5.423-15.347-24.205 9.261-14.021L667.71-394l-13.494 30.688-19.182 33.2 5.027 17.724 17.991 16.27 1.853 14.946-.397 4.232-4.63 7.143-2.91 19.18-6.218 5.555-11.245 15.476-8.599 13.36-18.52 13.623-14.684 12.699-9.261 17.724-6.88 7.804-22.224-3.704-9.657-2.116-5.424 4.894-5.16 6.614-4.365 7.54-17.86 26.057-3.836 7.54 5.689 8.862-.794 8.73-8.995 13.756-11.245 6.613-21.828-.264-8.732.529-9.921.661-7.805 5.423-4.233 6.217-18.521 22.62-14.949-1.324-4.498 9.127 4.498 6.878 4.366 3.307-13.494 12.566-7.144 7.407-15.478 28.174-9.128 5.82 1.455 7.805 8.864 6.216 2.381 18.651-32.41-1.984-10.188 1.587-2.38 6.879-3.176 12.301-6.35 3.571-26.326 60.052 40.879 16.8 34.395 14.153-1.059 8.465-4.762 5.953-18.52 18.385-7.673-3.57-.927-9.657-2.91-5.555-7.673-5.291-13.758-4.233-30.427-5.026-13.758-2.117-13.097-7.275-13.096-12.566-21.564-12.169-8.864-7.805-13.758-3.967-7.54 2.645-2.117 7.54 1.059 13.624.926 8.73-1.455 9.524-3.175 9.788-10.584 5.026-14.552.133-6.879 3.439-11.906-11.376-3.969-11.11-5.953-8.599-4.498-5.952-4.365 5.688.265 6.746v7.407l-6.218 4.894-8.996-5.29-7.805-7.144-7.673-8.862-3.968-1.323-12.568-8.069 13.89-23.544-46.566-30.82-5.292-4.1-6.35.66 2.514 8.863-8.797 3.506-7.673 5.158-5.358-.595-1.058 6.945-2.315 3.24-5.623-3.439-4.96-5.159-7.607-6.613-5.622-3.506-26.658-4.96-2.38-.992-17.198-23.611-9.525-8.2-37.57-10.583-4.234 9.789-9.79-4.233-9.789 8.995-12.965-.265-16.932 2.38-15.346-11.375-2.646-15.873-21.166-17.988-4.763 5.82-9.79 9.258-26.193-1.587-9.79-18.782-18.52-18.254-6.88 7.672-6.35 10.582-8.466 8.465-7.144 11.64-10.847 4.233-18.785-16.138-13.759-12.433-16.404-5.556-26.458-16.666-14.287-1.852-16.14-1.852-16.933-8.2 6.35 2.115-24.077-13.226-24.077 1.586-22.225 1.852-23.282-10.846-27.781.265-29.898 2.116-23.283-32.54-58.208-547.601-31.75-50.262 13.759-87.297-25.93-173.8 14.023-398.383zM132.197-111.07l-15.346-7.01-23.68-20.37-62.044-35.582-5.688-3.175-21.563 75.925-5.027 6.746-8.6 14.682 1.191 16.799.133 7.275.397 10.317L8.638-31.046 85.895-8.824 79.942-.226l9.129 7.408 21.298 4.63 13.362 6.877 9.525 10.185-16.405 1.852-13.758-3.571.926 10.45 10.319 21.163-1.588 4.497 44.186 28.042 9.657 3.175 9.79 7.54 12.832 5.158 19.314-4.365 7.011-12.434-5.556-28.306 15.213 1.058 18.389-34.127-26.59-12.83 12.7-22.222h16.138l25.93-31.084 6.35-8.994-51.858-20.635-9.393-13.889-2.116-12.036-6.483-7.408-18.785-5.687-14.552-5.424-6.482-9.788-2.25-13.094-1.454-11.111-5.953-9.524-7.674-7.01-16.35-.902-10.504-1.876-5.556 2.645-1.324 10.582 2.514 6.614 12.965 7.672 8.334 10.184 1.984 11.905zm328.08-26.851 5.556-3.175 7.674-7.936-19.183-21.693-3.571-2.513-14.817 11.375 9.26 17.725zM283.405-305.246l3.704-15.343-28.045-19.576-12.435 61.109-1.059 7.407-47.36 3.704-15.081 9.788 5.82 10.847-6.349 2.116-11.642 4.233 46.302 4.497 15.61.528-8.996 17.725-15.345 16.137-16.669 19.576-12.965 11.64-6.35 20.106 10.055 6.085 16.668-22.751 28.575.793 14.287 1.058 6.88-3.968-8.732-7.936-2.38-6.613 10.053-13.228 7.673-7.407-2.116-11.376-12.436-7.407.53-7.672 12.7-2.38 7.937-4.762 9.524-9.788-3.175-13.227 1.588-22.486zM24.91-214.243l8.466 18.122 2.646 4.233 10.848-4.498 4.894-4.365 3.639 4.1 1.852 4.696 1.19 4.895 4.432 5.224 5.226 3.042 9.789-.132h6.68l4.3 4.1.926 3.44 8.533-4.696 1.323-2.315-.397-2.843-3.903-.86-4.365.925-5.887-.926-.397-4.695-2.977-6.349.86-3.571 8.004-7.01-4.515-4.663-5.572-.844 2.712-19.89 24.11-2.05 1.72-2.116-1.985-5.82-2.514-4.498 1.323-5.687-2.91-13.492-1.984-9.523-8.864-14.683-2.116-10.846 11.509.926 10.054 8.2 8.467 12.567 5.291 8.068 12.038 3.174 3.44-9.127-10.054-20.37 3.307-7.803 3.704-16.534 1.323-9.391-7.937-3.44-10.715-4.76-4.631-3.44-3.175-10.317-6.747.926-10.318 8.068-16.801-3.703-11.51-22.883-14.155-5.555-7.143-.794 8.07-9.127.264-7.407-11.774-.132-14.551-.926 4.894-26.057 3.175-6.085 9.525-3.836.794-9.655-7.012-4.233-6.746 6.48-15.875-18.781-1.059-9.788-8.202-7.408-6.482 2.646-3.704 15.872.53 2.381-6.88 3.175-5.689 5.82-8.863 5.952-10.318 16.666 3.571 25.925 6.615 3.042 10.847-3.042.265 10.052.794 11.111 7.938 5.291 22.489.397 25.929 57.009 2.38 7.142 3.176 6.085 15.081 3.439-7.54 8.465 2.645 14.947 3.837 2.513 14.42-5.556 4.497 1.588 2.775 14.875-1.584 10.521-17.992 1.455-7.342 1.389-3.836 20.502-.132 6.084-3.639 2.712-9.657-9.788zM396.778-726.92l-37.306 7.671-4.63 31.348-26.723 2.778 1.72 23.808 37.438 15.211-.926 8.2 1.588 15.476-5.953 32.01 14.287 13.094 9.79-36.771.396-7.142 6.218-3.704-.661-9.92.396-4.365 44.45 18.65 3.837 14.946 31.882 20.767 11.244 1.984 4.101 3.703 21.034 16.666 14.95-20.634 3.174-13.888-3.836-14.153-9.657-5.953-14.288-2.248-12.303-5.82-2.778-5.29 1.72-16.667-71.172-26.056 4.762-11.64 3.969-22.353-1.455-13.888-2.382-6.614-7.937 1.984-9.79 1.587zm-988.87 25.527-12.964-1.984-11.113-5.423-3.175-12.962-2.646 1.125-1.19 1.52.529 3.968-1.455 2.117-4.564-3.174-7.74-1.323-3.042 1.323.926 3.967 6.086.992 1.52.926 1.787 2.05 2.183 2.05 5.754.86 3.307 2.712-10.781 2.711-4.504-.611-5.749.347.596 2.182 4.564 1.125.529 6.746-2.844 1.388-3.97 1.521 1.258 5.225-3.704 3.77-5.689-.2-7.144-2.248-1.521-6.216-1.984-6.944 4.365-1.786 2.712-3.571-16.14.661-1.851 2.381-1.257 1.058-4.498 1.521-2.844 4.3 2.447 2.579 3.704 1.19 2.183 5.159 6.152 4.695 4.431.33 2.117 2.183 4.96 6.613 7.21 2.05 6.152 1.588 3.837 1.918 4.497 21.229 5.226 2.248 5.027 1.852 12.832-5.555 5.16-11.772 3.174-9.523 9.525-7.01 9.658-7.408-4.102-11.242-.793-6.879zm131.893-86.9 11.113 12.3-.661 10.186-83.079-19.973-2.844-1.124-3.506 40.474-34.66-20.898-55.462-20.006.099-4.728 1.19-4.564 3.837-4.563 4.233-4.696 1.19-2.975-5.754-5.159-.397-5.026-1.39-11.375 2.316-3.968 8.599.86 3.44.066 3.373-4.894 8.07 1.19 4.233.86.992-14.55-33.205-4.96-2.513.926-7.805-1.124-6.615-.264-.86 15.343-3.637 17.525 6.614 13.955 1.587 20.104 1.786 29.694-1.389.662-2.38-7.738-9.328.794-.926 16.666 8.203 5.357-2.25-9.392 7.277-.727 2.844 10.978 1.256 16.335 7.21 2.315 3.506-.463 8.335-.132 7.275-.463 4.366-2.513 15.411 3.835 6.748-12.433-38.762-12.962 1.323-23.94 41.275 13.49 6.416 1.059 22.82 20.501 3.969 1.918 6.614 3.505 6.88 61.902-.265 26.19 2.38 6.877 8.6 2.116 11.642 3.175 9.789-5.423 21.563 2.248 9.79-2.513 4.498 1.455 7.805 1.323 10.98 6.614 3.836 5.026 23.813-1.984 2.645-32.274 6.218-2.91 6.614-12.565 9.923-4.233 19.314-59.124-17.462-3.571-11.245-17.856 1.455-2.117 16.404.794 5.688-10.582.662-4.63 5.424-8.596-9.79-11.508-12.435-.264-6.218 6.084-4.894-2.513 3.042-11.507-17.197-10.714-4.234-4.232-7.276-4.233-10.848-6.085 3.97-4.232 9.127 5.158 22.754 10.979 2.91.661 10.849 2.249 14.154 3.306 7.409-5.952-5.689-8.597-9.79-1.984-5.688-8.201-3.175-10.581 1.455-2.116 4.102-3.44 6.085-1.322 9.525-3.571 7.54 2.116 3.969 3.703 10.054 2.778 19.182 1.058 11.774-44.177-31.088-6.746-5.821-6.48-10.187-5.292 1.588-23.807 12.039 1.058 4.365-18.65-18.388-5.423.661-19.708-38.1-12.962v-12.962l-4.1.529-3.97 3.439-2.645 7.672-5.16-.662-4.1-7.142-8.335 4.63-3.704 8.861 4.366 23.676 2.778 15.74-.397 48.806-59.795-3.571-8.996 8.861-4.498 1.323-3.307 3.571 28.442 7.937.794 2.116-1.19 10.052-5.027 12.962 12.964 1.588 11.774 19.575-1.059 4.365 28.178 9.127 5.424 14.02-32.543.396zm685.794-119.305-14.684-5.82-11.245 16.005-36.512 71.688 20.373 5.291 11.642.53 3.571-8.07 5.027-7.539 6.482-10.713 2.514-12.169 5.027-12.3 6.615-8.201.397-9.523-3.44-.662-7.673 3.175-9.79 3.836-1.587-9.259 8.863-6.481zm-909.364-14.02-5.556 9.126 4.63 14.814 14.287 19.84 1.455-.132 5.027-5.159 21.696-6.48 2.381 13.226 17.066 4.497 8.201-.793 7.012-8.995 10.054-4.365 17.86 5.291 2.513 4.894-4.895 11.772-2.514 7.54-6.085 6.48 3.969 7.804 4.366-3.174 3.042-2.91 16.801-2.381 8.996-3.44 16.14-8.861 2.116-5.158h-13.361l-9.393-4.233-14.42-12.698 4.101-8.597-6.879-8.068-8.467-.265-16.536-7.804v-6.745l3.704-4.63 9.922-1.719 13.362-1.852 1.19-5.423 11.51-10.317-12.436-2.513-17.595-3.042 2.91-5.555 14.95-5.952 10.715-9.655-8.334-4.365-10.584 3.835-14.022.133-21.034 3.571-6.88 2.645-4.233-4.364-13.493-10.185-5.424 1.058-7.409 8.465-3.571 5.026-27.914 1.852 2.382 26.586 9.525 6.084zM561.083 117.365l-.264-15.74-12.04-6.614-8.201 1.984-1.72 22.354 20.108 5.556 1.984-3.571zm7.805-13.624.662 5.291 7.01 4.63 1.853 4.1 12.832-2.116 11.906 7.143 22.358 3.439.926-15.609 18.652-51.322 2.778-9.259 5.556-11.376 10.584-10.714-3.572-20.237-1.059-19.048-13.625-7.804-70.114 121.295zm4.895-356.74 12.832 8.995 13.097 9.127.529 2.513 4.762 2.645 9.128 2.117 6.35-6.878-4.233-6.217-8.07-8.2-10.054-7.673-12.038-8.068-5.953-11.904-6.747-5.952-6.218 4.497-2.249 8.597 3.572 9.524zm44.581-344.035 96.043 30.95-21.43-103.963-61.648-4.497-10.319 1.587 4.498 11.904 11.377 11.375 16.669 3.968 7.673 15.608-17.727 5.556-20.373-3.175-6.615 6.878zm-84.004-432.45-1.653 6.944-3.242 4.894 1.125 15.409h1.19l1.455 1.257 24.871-5.092.662-1.125 14.023-6.282 1.852-.199 1.984 5.423 6.284.86 12.634-6.547-2.448-2.976 1.985-2.58 9.525-5.357 3.902-11.903-7.607-15.343-9.326 4.563-2.977 5.423-.86 10.912-2.91.595-.992-1.389-3.44-.462-6.614 1.984-7.144-3.506-3.77 2.25-2.778 5.686-4.168 4.96-4.431-2.711-4.035-3.836-6.747-.463zm431.135-56.543-9.79-10.45-16.404 3.44-44.781 17.677-4.166 2.56 15.874 46.557 8.997 17.724 5.688 14.813-3.175 7.54-5.292 24.733 21.034 2.117 17.463-32.803-11.245-27.379-2.778-3.703 7.012-3.968 12.302-6.878-1.587-7.275-12.832-2.513-6.218-2.645 11.774-7.407 10.054-8.2zM547.589-1052.1l-2.646 21.691 12.965-1.19 4.763-21.559zm510.641-7.54 8.004-15.21.793-4.431-8.664-9.854-7.805 24.404z" clip-path="url(#p1cc3422e16)" style="fill:#006400;fill-opacity:.8"/><path d="m555.394 395.803-54.371-30.225-4.167-9.722v-1.124l.132-3.903 2.845-4.43 7.276-1.588 3.307-2.05 3.704-6.812 1.19-1.587 5.953-5.82.728-2.117 11.443.794-1.984 7.606-.728 3.836 1.191 4.365 2.712 2.58 3.373.462.794 6.415-2.05 6.415-3.771 2.646-2.315.992-.926 3.24 3.241 4.498 6.152 4.034 6.879.331 3.572-4.431 3.77-3.572 7.276-5.687 3.307-.662 2.448 2.778 1.323 7.937 1.653 5.489.595 4.233z" clip-path="url(#p1cc3422e16)" style="fill:#006400;fill-opacity:.8"/></g><path id="PatchCollection_2" d="m362.193 299.924.317-2.13 3.484.69-.346 2.189z" clip-path="url(#p1cc3422e16)" style="fill:green;fill-opacity:.8"/><path id="PatchCollection_3" d="m393.342 233.839-22.225-3.174-3.704 32.142-5.159-.926-1.19 6.746-12.415-2.205-2.27 9.084-10.318-1.852-2.382 15.08 9.128 1.322-.605 3.602-5.14-.79-.737 5.521 4.63 1.19-.794 3.308-3.836.396-2.513 14.55 8.995 1.852-.132 2.91 3.572.133-2.91 18.915 4.1 1.058-1.587 10.45-3.175 21.826 4.498 1.587-2.25 21.448 8.732 1.038 4.365-23.677 10.584-9.127.132-3.968-7.012-3.836 5.69-23.413 14.07 3.157 8.238-4.705 27.571 5.11 5.88-29.268-45.826-10.647z" clip-path="url(#p1cc3422e16)" style="fill:#d3d3d3;fill-opacity:.8"/></g></g><defs><clipPath id="p1cc3422e16"><path d="M90 174.244h558v378.711H90z"/></clipPath></defs></svg>