<svg xmlns="http://www.w3.org/2000/svg" width="960" height="960" viewBox="0 0 720 720"><defs><style>*{stroke-linejoin:round;stroke-linecap:butt}</style></defs><g id="figure_1"><path id="patch_1" d="M0 720h720V0H0z" style="fill:#fff"/><g id="axes_1"><path id="patch_2" d="M92.39 640.8h553.22V86.4H92.39z" style="fill:#fff"/><g id="LineCollection_1"><path d="m342.198 381.907-.418.128M342.198 381.907l-2.14 4.567M343.82 381.48l-.576.085-1.046.342M337.879 392.143l-.166 1.383-.094 2.037" clip-path="url(#pfa40ac864d)" style="fill:none;stroke:#000"/><path d="m323.137 466.76.169-.593.348-.833.397-.785 1.457-2.31 8.956-11.903 1.505-2.026.587-.864.443-.706.318-.691.348-1.084 1.589-5.528.118-.711.277-1.671.177-1.07.177-2.704-.008-1.61-.026-1.832-.291-3.672-.138-2.948-1.861-25.439-.06-2.217M348.004 394.655l-.229.202-.78.215-3.258.095-1.67.228-4.448.168M612.401 137.914l-.532.514M612.401 137.914l-.214-1.578M615.238 135.496l-.99.683-.508.408-.602.518-.737.81M454.145 184.14l-2.612-.834-2.505-.345-1.965-.03-17.752 2.449-2.567.094-2.282-.251-3.202-.754-1.68-.314-2.378.251-2.44 1.163-2.568 2.041-2.124 2.42-1.743 2.198-5.516 5.434-2.44 2.513-3.805 5.592-1.394 2.355-3.266 8.042-1.33 2.388-1.269 1.853-3.202 3.36-.792 1.226-.126.754.411 1.319.825 1.602.602 2.167 2.504 10.052.476 1.54.475 1.601.824 4.24.095 1.477-.158 2.67-.222 1.037-.665 1.1-2.314 2.575-5.167 4.9-.888.723-1.11.345" clip-path="url(#pfa40ac864d)" style="fill:none;stroke:#000"/><path d="m320.552 290.704 1.585-.252 2.536-.125 1.426-.472 1.49-1.005 3.043-2.073 3.202-1.79 4.66-2.23 2.187-1.351 3.36-2.45 2.187-1.162 2.029-.535 1.744-.188 1.87.063 1.363-.283 1.204-.377 1.078-.88.983-1.067 1.87-2.293 1.11-.786 2.44-1.476 1.173-1.005 1.966-2.042 1.426-.754 2.22-.816 2.978-.974 3.868-1.476 1.426-.189 1.395.157 2.504.22M423.859 279.996l-7.07-1.853-1.267.031-2.092.597h-.539l-.792-.157-7.418-2.262-1.712-.785-3.328-2.136-1.522-1.225-2.853-2.764-.92-.723-9.445-3.015-4.026-2.611M314.522 291.075l-.151-.026-5.991.471-2.839.205-1.059-.013-1.016-.223-1.521-.471-1.459-.691-6.213-3.707-1.457-1.068-1.11-.44-3.93-1.036-1.49-.534-.888-.723-2.98-3.298-1.014-1.13-1.015-.691-1.553-.63-6.371-1.35-1.65-.408-.823-.534-.603-.848M220.814 259.122l5.716 1.618 1.837.295 4.16-.015 3.325.565 4.09.754 7.259 2.544.728.566.54.565 2.377 3.235.602.566 3.582 2.702.76.44 1.206.376 1.616.22 1.426-.063 1.3-.408 1.49-.377 3.614-.188 1.49.282.697.471.76.66M271.35 235.112v9.298l-.253 4.02-.127 3.016-1.14 2.639-.888 3.266.507 3.895.887 10.931-.947 1.753M320.552 290.704l-1.627.122-1.915.125-1.324.054M318.08 292.337l.49-.801.857-.566 1.125-.266M315.686 291.005l-1.164.07" clip-path="url(#pfa40ac864d)" style="fill:none;stroke:#000"/><path d="m318.08 292.337-.492-.66-.76-.44-1.142-.232M314.522 291.075l.768.131.507.267M315.797 291.473l1.379.644.845.441M315.797 291.473l.428.456.555.879.919 2.293M318.08 292.337l-.059.221M317.699 295.101l.048-.895.095-.974.179-.674M328.444 341.93l-.538-1.598-.507-1.507-2.155-3.581-.952-2.324-3.93-16.837-2.536-19.914-.127-1.068M347.908 381.009l-.828-1.678M347.908 381.009l.497-.177M345.182 381.417l1.28-.135 1.446-.273M345.182 381.417l-1.363.063M347.548 383.074l-1.213-.692-1.153-.965M341.68 380.488l.318.059 1.821.933M621.17 132.26l3.198-1.751 3.502-1.964M615.238 135.496l.476-.307M613.67 136.014l.585-.22.983-.298M613.67 136.014l-.524.149-.531.106-.428.067M611.695 128.13l-.134 1.782-.095 1.382.024.832.07.644.27 1.618.357 1.948M615.333 164.6l-.44-.358-.388-.294-.468-.295-.84-.467-.8-.463-.535-.475-.309-.323-.167-.408-.047-.37-.051-.635-.1-1.504-.142-1.46-.119-.967-.166-.91-.246-.912" clip-path="url(#pfa40ac864d)" style="fill:none;stroke:#000"/><path d="m602.931 155.16.911.024 1.799-.04 1.68-.18 2.005-.173 1.189-.032M614.734 154.83l-.495.04-1.22.023-1.11-.063-1.394-.07M611.87 138.428l-.412.398-1.141 1.06-1.165 1.303-.967.848-1.093.849-1.11.745-.681.487-.429.464-.293.448-.206.431-.238.786-.316 1.688-.278 2.364-.349 3.031-.15 1.092-.111.738M587.977 163.869l.713-.196.864-.4 1.506-.802 2.274-1.06 1.815-.754 2.805-1.13 1.427-.621.919-.479.57-.369.507-.432.381-.393.515-.762.658-1.31M619.569 166.7l-.139-.047-.329-.13-.336-.16-1.09-.566-1.66-.852-.682-.346" clip-path="url(#pfa40ac864d)" style="fill:none;stroke:#000"/><path d="m616.557 174.608-.194-1.66-.162-1.846-.305-2.199-.29-1.617-.126-.849-.096-.895-.05-.943M619.569 166.7l.325.06.614.101.793.103 1.105.14.646.099.547.047h.582l.582-.051 1.245-.208 2.635-.468 1.26-.239.535-.035.412.055.198.125.218.232.158.306.119.582.246 1.652.29 2.07.079.671M633.924 181.696l-.214-1.445-.15-1.469-.301-1.656-.412-2.098-.25-1.327-.214-.907-.225-.852M357.62 373.198l.442 2.67M354.06 376.352l.96-3.546 2.6.392" clip-path="url(#pfa40ac864d)" style="fill:none;stroke:#000"/><path d="m423.859 279.996-7.77 46.397-1.458 3.204-11.73 10.365-11.538.409-.982.66 1.078 7.066-1.11 1.1-6.055 1.1.318 7.318-.857 1.005-25.866 3.8-.65.476.38 10.302M358.062 375.869l-4.002.483M358.062 375.869l.463 2.79M354.06 376.352l-.384 1.415M347.08 379.33l2.33-.698 1.6-.157.428-.345.333-1.35.508-.55.633-.032 1.148.154M353.676 377.767l2.081.382M353.676 377.767l-.858 3.17M355.757 378.15l2.768.508M355.757 378.15l-.906 3.385M358.384 382.572l.488-1.82-.347-2.094M345.342 374.092l.76 3.147.443 1.006.535 1.086M348.405 380.832l.357 2.886M352.818 380.937l-2.648-.502-.823.062-.942.335M352.818 380.937l2.033.598M354.851 381.535l1.714.503M333.372 381.764l.616 2.094M318.043 388.68l2.061-2.09 1.03-1.004.967-1.508 1.03-.707 10.24-1.607M312.983 374.727l3.19.886 4.438.722 3.963.817.285 1.036-.824 2.922 1.822-.283 5.991-.832.618.125.523.346.383 1.298M356.565 382.038l1.819.534M348.762 383.718l1.654-.563.602.032 3.352 1.311.507-.07 1.07-.362.618-2.028M358.384 382.572l1.223.36M318.043 388.68l-.19-.958.999-4.9M359.055 386.022l.126-.804.426-2.286M403.266 420.136l-1.351-2.63-1.303-1.306-2.905-2.117-5.213-3.578-2.952-3.439-2.764-2.598-3.407-2.038-1.052-1.136-.393-1.105.173-2.52-.141-2.178-.377-1.09-.487-.45-3.878-1.308-3.33-1.509-1.774-1.586-1.512-1.811-5.103-2.56-5.42-2.104-.47-.14M347.548 383.074l-.143 2.593M347.548 383.074l1.214.644M350.963 384.873l-1.562-.787-.639-.368M333.988 383.858l1.712.032M333.988 383.858l.095.832" clip-path="url(#pfa40ac864d)" style="fill:none;stroke:#000"/><path d="m323.512 388.161-.365-2.544 5.452-1.052 4.676-.644.713-.063M335.7 383.89l6.08-1.855M335.7 383.89l-1.617.8M334.083 384.69l-10.571 3.471M350.963 384.873l1.548.826M350.963 384.873l-.768 1.724M353.04 385.402l.782.05 2.162.4 3.071.17" clip-path="url(#pfa40ac864d)" style="fill:none;stroke:#000"/><path d="m353.04 385.402 3.38 3.239 1.443 1.427.617-.123.575-3.923M352.51 385.699l-.876 1.618M353.04 385.402l-.195.068-.334.229M356.648 390.472l.892-.35-4.33-3.934-.7-.489M347.405 385.667l2.79.93M347.514 389.005l-.149-2.618.04-.72M340.059 386.474l2.432.933M337.879 392.143l.516-2.07 1.664-3.6M351.634 387.317l-.847-.47-.592-.25M342.491 387.407l2.375.892M342.491 387.407l-1.953 4.788M351.634 387.317l-1.162 2.3M356.648 390.472l-2.517-1.743-2.497-1.412M344.866 388.299l-1.741 3.85M347.514 389.005l-.753-.08-1.895-.626M318.407 389.767l2.172-.663 2.488-.315.27-.314.175-.314M318.043 388.68l.364 1.087M347.514 389.005l.152 2.705M350.472 389.618l-.63-.314-.412-.116-1.916-.183M350.472 389.618l3.42 1.927M318.407 389.767l-.7.213M317.235 390.124l.472-.144M356.648 390.472l-2.756 1.073M348.004 394.655l2.315-.458.458.188 2.208-.255.78-.31.2-.596-.05-1.13-.023-.55M347.666 391.71l.338 2.945M343.125 392.15l3.685-.31.856-.13M340.538 392.195l.662.054 1.925-.1M337.879 392.143l2.659.052M213.06 257.145l1.442-9.506 1.099-2.272 1.24-2.147.283-1.277.094-2.816-.392-3.594.173-3.19-.299-3.205.126-1.696 1.35-5.275 1.618-3.22 1.491-4.062 1.27-3.428" clip-path="url(#pfa40ac864d)" style="fill:none;stroke:#000"/><path d="m271.702 190.883-4.408.252v3.518l.253 3.142-3.804 1.508-1.395 1.13-5.072 4.775-2.155 2.01-7.425 1.708-9.154 2.116-2.858.124-3.674.7-3.078-.155-1.994.03-4.383-.284M186.968 128.406l1.585.532 2.916 1.382 1.141 1.13 1.775 1.697 1.65.754 6.529 1.068 3.17 1.131 2.472 1.382.634 1.508.444 1.508.697 1.445.127 1.194v1.193l-.76 1.006-1.015.188-1.965.377-2.283.566-1.457.565-2.537.251-1.14.88-1.142 1.319-.19 1.194.253.754.951 1.005 4.184 1.382 1.522.126 2.093.251.95.942 2.916 2.2.127.88-.063 2.512.698 1.257.76 1.318.19 1.571.127 3.77-.127 1.13.507 1.697 1.015 2.262 2.853 6.282 2.155 6.786 1.205 3.015 4.628 3.078.317.691.57 1.76 1.078 2.764.19 2.261-1.458 4.021-2.705 7.066M131.602 264.09l.463-.114 2.31-.949 1.255-.156 1.413.031 1.068.016 3.25-.7 1.916-.638 1.02-.607.88-1.027.675-.389.943-.264.894-.031 1.13-.14 2.2-.903 1.114-.28 2.293-.778.91-.031 4.993.14 1.885-.093 6.846.404 3.752.202 2.921.062 2.073.234 4.098 1.012 2.607.218 1.853.155 3.8.638 1.287-.062 2.403-.67 3.454-1.291 1.601-.669 1.665-.84 2.293-.28M211.917 256.937l-1.247-.227-1.13-.031-1.539.015-1.271-.451-1.178-.544-.958.14-1.727.45M211.917 256.937l-.179.831M211.917 256.937l1.143.208M213.06 257.145l-.09.852M213.06 257.145l4.009.73M211.738 257.768l1.232.229M210.765 260.553l.424-1.883.55-.902M217.069 257.874l-.048.42M220.814 259.122l-.738-.7-3.007-.548M217.021 258.293l-1.122-.23-2.653-.015-.276-.051M220.814 259.122l-.66-.031-1.978-.56-1.155-.238M123.822 265.859l-.723-1.81M106.196 277.606l3.102-1.913 3.375-2.74.817-.357 1.02-.576 1.57-1.524 1.288-.919 2.827-1.446 2.904-1.992.723-.28M131.602 264.09l-.856.213-1.554.685-2.544.653-1.664.187-1.162.03M454.145 184.14l3.093.989 4.882 1.287 2.029.346 8.939.346 1.997.314 1.838.785 1.585.377 2.314.22 4.597.094 4.216-.534 13.979-1.759 10.62-.314 4.374-.629 14.962-2.512h4.564l4.692.188 1.553-.125 2.504-.848 1.712-.817 2.98-2.45 1.458-.817 3.486-2.953 1.269-.566 5.959-2.324 1.902-1.194 1.712-1.507 2.79-1.257 11.728-3.99 2.44-.376 3.062-.109.596-.136M583.81 179.802l-.42-4.66.054-.985.313-.638 1.14-1.039 1.196-1.366.625-2.352 1.259-4.893M556.93 232.723l1.584-.409 3.455-.722 1.245-.463 3.44-1.421 1.728-.237.478-.346.166-.82-.516-5.304v-.492l.681-.328 5.886-.547 8.239-.984 6.055-.498 1.72-.133 1.981-.181M592.55 217.537l.15.471.142.636.23 1.194M594.372 226.82l-.237-.715-.278-1.154-.31-2.003-.475-3.11M593.889 270.073l.642-.094.666-.063.8.031.673.158.595.133.705.008 1.205-.11 1.18-.125" clip-path="url(#pfa40ac864d)" style="fill:none;stroke:#000"/><path d="m599.656 251.21.153 1.524.118 4.853.214 2.749.277 3.11v.918l-.094.77-.16 1.076-.039 1.17.032 1.005.198 1.626M601.018 281.584l-.076-2.181-.08-4.225-.158-2.969-.111-1.13-.19-.707-.048-.361M594.768 288.017l-.174-1.492-.071-1.375-.095-1.138-.143-.676-.166-.636-.08-.761.016-1.885-.08-.596-.094-.668-.016-1.288.016-1.579-.166-2.371.07-1.288.056-1.083.048-1.108M592.97 264.67l.269.456.262.463.126.566.056.573.055.848.04 1.021.11 1.476M598.327 398.77l1.846-3.424 1.973-3.392 1.086-1.798 1.316-2.097.823-1.452.864-1.728.318-.534.285-.353.325-.244.396-.204.983-.314 1.18-.385.484-.196.46-.299.348-.298.634-.777 1.712-2.01.681-.786.523-.51.516-.581.395-.62.239-.488.134-.534.103-.88v-.823l-.071-.637M613.788 348.851l-.183.48-.142.699-.182 1.806-.143 3.58-.333 4.83-.15 1.766-.135.911-.484 1.555-.388 1.28-.087.48.008.29.103.298.237.432.825 1.154 1.656 2.38 1.244 2.096.246.518" clip-path="url(#pfa40ac864d)" style="fill:none;stroke:#000"/><path d="m630.444 371.607-.49.072-.875.177-.868.255-.448.168-.428.095-.535.082-.784.016-2.085.11-3.459.165-2.777.2-.619.09-.519.118-.677.251M592.066 407.352l.38-.408.69-.934.784-1.123 1.324-1.767 2.504-3.494.579-.856M621.792 410.595l-.975-.094-.832-.047-.682.04-.935.117-1.68.134-.88-.047-.808-.11-.657-.204-.286-.142-.19-.259-.27-.558-.546-1.452-.428-1.21-.206-.462-.214-.268-.253-.118-.262-.078-.5-.04-1.933-.078-1.64-.094-1.3.024-.484-.055-.364-.15-.262-.18-.309-.307-.277-.502-.357-.887-.357-.832-.499-.84-.562-.716-.444-.494-.261-.244-.365-.25-.341-.142-.38-.141-.594-.165-.579-.252-.73-.337-.823-.385M406.22 434.933l-.074-.422-1.389-7.452-.99-5.554-.501-1.369M554.41 355.82l-2.107.724-1.585.188-4.818.283-5.483 1.225-6.752.691-.349-.125-1.52-.157-1.966.314-.412.817-.761 1.036-3.708 4.24-1.585 1.98-.698 1.13-1.743 2.074-3.17 2.638-1.331 1.445-2.884 4.209-.856 1.822-.697 1.256-.413.534-1.87.942-.633.471-.825.88-.634 1.068-1.3 3.172-.982 1.665-1.046.848-2.472 1.571-2.282 1.696-3.106 1.54-4.628 3.957-1.965.722-7.417-1.602-.286-.157-4.247.628-1.775.723-3.55 2.01-1.648 1.32-2.885 1.758-1.394.817-.602.471-1.712 3.267-2.726 2.419-3.01.628-2.03.565-3.043 1.57-1.267.44-48.971 4.603M406.865 438.931l.3 1.747.151.573.135.503.198.479.999 2.222.99 2.222 1.007 2.896.641 2.161.647 2.382.59 2.11.148.846.09.606.055.888.095 1.122.047 1.123.183.88.19.596.325.692.334.565.466.534.705.651 2.814 1.861.428.377.428.385.46.51 1.441 1.838 2.251 2.921.42.596.277.44.357.739.262.738.245.753.27.99.237.652.405.895.625 1.146M441.284 498.023l-1.794-2.008-6.751-7.982-5.48-6.628-1.178-1.835M418.672 483.19l1.87.314.539.079.476.03.364-.093.523-.267.92-.943 1.696-1.837 1.02-.903M554.837 293.22l6.942-1.633 1.015-.691 2.124-2.074 1.743-.188 6.974 1.32 1.394-.095 1.839-.283 2.948.471 2.424.79.72.243.642.11.777.007.705-.157.69-.11.8-.055 1.007-.11.887-.204 1.165-.448 1.498-.628 1.941-.761 1.696-.707M597.875 287.09l-1.498.409-1.609.518M341.68 380.488l-.289-.054-3.298-.11M341.78 382.035l-.1-1.547M345.342 374.092l-2.493.605M344.191 367.605l.072 1.75.285 1.445.794 3.292M342.849 374.697l-2.403 1.095M342.849 374.697l-1.658-5.522M344.191 367.605l-1.895.523M328.444 341.93l.667 1.983.887.943 3.868 3.329 1.14 1.257 1.269 1.947 1.775 2.764 1.331 1.633 2.346 2.262 1.141 1.822.824 2.136.333 1.366.048 1.335.118 2.898M617.076 134.467l-1.362.722M621.17 132.26l-1.019.542-3.075 1.665" clip-path="url(#pfa40ac864d)" style="fill:none;stroke:#000"/><path d="m611.695 128.13 1.459.212 1.379.164.435.063.238.086.19.22.199.33.273.884 1.208 4.378M575.984 422.536l1.959-3.236 2.566-4.418 1.188-1.256 3.577-1.923 5.286-3.353 1.007-.597.499-.4M599.357 420.976l-.357-.514-.225-.479-.44-1.099-.476-1.092-.253-.643-.199-.704-.154-.698-.131-.958-.103-.849-.06-.466-.079-.205-.103-.188-.142-.185-.424-.373-.721-.612-.436-.373-.35-.393-.336-.46-.788-1.248-1.514-2.085M514.43 550.97l.926.298 1.339.369 2.494.532.524.213.53.33 2.437 1.979 2.517 1.903.746.532.91.446.975.307.937.185 1.155-.036 1.538-.11 1.093-.15.705-.164.412-.283M572.265 517.643l-1.617-.094-1.696.204-.827.072-.758.054-.644-.085-.817-.133-.632-.08-1.143.264-1.355.444-1.331.612-1.284.707-6.055 3.79-1.093 1.047-.416.64-.982 1.604-1.201 1.784-.357.652-.23.698-.11.66-.144 1.036-.753 5.266-.283 1.095-1.132 2.768-.3.397-.543.604-.73.432-.57.235-.756.335-.639.387-.836.637-.491.398-1.56 1.423-.82.613-1.586.737-.626.4-.428.334-.895.806-.627.502-1.133.793-.563.483-.289.389-.159.247-.24.269-.187.12-.226.11-.357.176-.238.24-.11.298v.251l.044.302.128.56.136.858.072.84.119.707.238.707.23.65.205.433M509.827 544.262l.21 1.148.349 1.42.523 1.249.516.856.237.36.419.47 1.375.826.973.379" clip-path="url(#pfa40ac864d)" style="fill:none;stroke:#000"/><path d="m524.166 596.557-1.568-.817-2.14-1.115-2.806-1.46-1.553-1.178-.285-.314-.08-.361-.055-.691-.08-.817-.166-.746-.285-.597-.198-.408-.15-.196-.603-.393-.76-.541-.603-.425-.697-.227-.714-.047-.498.055-.38.11-.374.102-.182.078-.166-.031-.159-.079-.166-.204-.182-.314-.23-.487-.182-.565-.19-1.665-.254-6.124-.226-8.425.002-.206.034-.1.077-.124.081-.049.137-.069.194-.027 2.03-.03 2.473.031.18-.017.102-.022.13-.072.1-.11.233-.422 1.189-2.097.61-1.099.182-.463.056-.267-.012-.263-.036-.318-.134-.923-.175-1.323-.484-3.706-.774-6.03M492.186 512.494l.073.167.526.469.709.512.709.375.745.087 1.054.015 2.22.082 1.465.262 1.038.37.579.268.475.534.365.652.34.518.38.333 1.046.69.762.566.871.821.888.848.468.605.46.942.388 1.24.372 1.069 1.284 3.313.317.856.174.605.063.69.089.866.045 1.155.104 3.35.133 2.306-.027 1.424-.272 1.751-.23 1.672-.04.99.068 1.365" clip-path="url(#pfa40ac864d)" style="fill:none;stroke:#000"/><path d="m475.365 571.396.635-.358 3.55-2.041 2.219-1.579 1.157-.934.578-.51.397-.424.404-.542 1.236-1.712 2.124-2.936 2.314-3.11.793-.871.65-.597.76-.809.88-1.091.785-1.154.364-.471.54-.503 1.061-.785 1.553-.848 2.425-1.382 1.427-.895.122-.09.135-.127.075-.14.024-.236-.012-.295-.17-1.326-.028-.548.018-.238.064-.157.144-.165.206-.094.61-.102 2.647-.094 4.775.03M467.253 493.943l.423-1.025.863-1.182 1.9-2.35 2.167-3.329 2.12-2.443.39-.31.292-.152.402-.06.404.082.676.18 1.605.494 4.986 1.038 4.812 1.435 1.82.218 1.034-.115" clip-path="url(#pfa40ac864d)" style="fill:none;stroke:#000"/><path d="m496.024 485.105-.45.173-1.45.401-1.878.487-1.1.258M491.163 501.947l.078-.3-.19-2.84-.408-4.713.096-1.118.433-.953.624-.975.097-.953-.073-1.19-.288-1.333-.385-1.148M599.357 420.976l.28.456.235.4.408.801.34.746.5 1.34.294.69.233.4.258.303.277.267.373.333 1.296.765.816.766.816.953 1.317.415 2.466.663 1.275.56 1.36.58 1.192 1.077 1.366 1.886 1.066.663 2.342.601 4.643.933 3.953.89 2.247.477 1.778.891.531.312M578.538 518.24l-.397.063-3.471-.016-.38-.063-2.025-.581" clip-path="url(#pfa40ac864d)" style="fill:none;stroke:#000"/><path d="m571.988 526.675-.02-.275-.173-1.46-.056-.801-.063-.672-.08-.455-.035-.326.032-.373.05-.357.215-.605.253-.926.159-.715.048-.283.007-.4-.06-1.384M602.66 518.118l-.397-.02-5.876-.392-1.807-.095-5.775-.11-2.409.11-7.858.629M579.292 506.652l-.133 2.828-.772 3.883-.268 1.761-.024.966.146.856.297 1.294M157.503 125.545l1.078-.084 2.05-.458 6.937-1.97 2.586-.656 7.341 1.498 2.923 1.059 1.335.832 1.621 1.327 1.882.84 1.712.473M157.503 125.545l-.586-.125-3.501-.736-2.704-.816-2.255-.777-2.825-1.943-3.184-3.048-1.824-2.434-2.283-2.12-1.838-1.382-3.424-.817-5.626-1.555-5.278-1.712-9.905-2.86-4.803-3.486-2.473-2.45-1.965-2.136M302.036 192.14l-3.044-.88-2.536-.627-3.803-.252-5.58-.377-15.371.88M268.561 217.899l3.17-4.273 1.268-3.643-.507-3.393v-2.513l3.296-1.76.762-2.26-4.819-.252-.03-8.922M302.036 192.14l1.775-4.02 3.296-2.514 3.297-2.261 2.663-.628 7.227-2.136 3.043-1.634.761-1.634 1.395-2.135 2.282-.126 3.043.126 6.213.251 2.663-1.131 2.536-.502M302.036 192.14l3.803.754 2.536.88 2.283 4.9 1.014 2.765 2.282 1.507 4.185 1.382.76 1.76 2.156.879 3.17 2.136 2.916-1.256 2.41-.377 5.198-.252 11.919 2.01 4.438 1.257 1.394.88.254 1.884M615.714 135.189l-1.26-4.303M613.67 136.014l-1.186-4.025M580.076 501.454l-.333.973-.222.668-.071.652-.063 1.06-.095 1.845M573.816 505.686l.934.416.547.196.484.126.919.055 2.592.173M533.593 462.085l.817-1.201.832-.965 4.852-4.823 3.564-2.894 2.246-1.571.682-.358.626-.36.745-.566.758-.77 1.35-1.727 3.737-5.68 3.11-4.837 2.182-2.739.496-.533.571-.447.713-.432 1.846-.866 2.069-.893 1.434-.825 1.951-1.317 1.298-.764.848-.368 2.747-1.03.396-.227.237-.208.195-.196 1.257-1.578.832-1.374M580.076 501.454l.408-1.27.416-1.18.135-.652.04-.667v-1.186l-.213-2.017-.21-2.487-.299-2.979-.37-2.491-.312-1.45-.634-1.822-.918-2.655-.936-2.45-.46-1.366-.295-1.323-.116-1.017.032-.93.348-1.928.665-2.701.603-2.16.245-1.114.016-.416-.04-.448-.205-.667-.428-.896-.246-.997-.103-1.154.016-.59.091-.44.297-.58.484-.942.53-1.044.373-.448.356-.377.637-.422.743-.245.76-.126.31-.133.237-.212.507-1.06.523-.966.69-.927.57-.824.23-.424.087-.417-.047-1.335-1.117-12.893-.064-.51-.063-.33-.143-.33-.721-.84-1.64-1.932-.666-.926-.73-1.273-.681-1.225-.277-.604-.174-.518-.682-2.45-.348-1.154-.27-.51-.246-.37-.787-1.118M613.788 348.851l.221-.29.405-.298.768-.51.77-.307.728-.354 1.53-.91 1.402-.912 1.007-.824.8-.871.793-.888.864-1.264 1.426-2.16.54-.722 1.41-1.516 1.331-1.413.515-.518.487-.609.25-.369.297-.471.4-.81.321-.568.266-.365.436-.354.487-.325.432-.126.804-.157.947-.158.583-.121.246-.161.178-.196M613.788 348.851l-.823-.448M599.357 420.976l-1.062.515-1.114.522-.543.287-.443.29-.34.247-.528.468-.527.47-.23.248-.25.318-.364.518-.329.448-.34.49-.143.268-.044.22-.012.243.04.487.055.451.072.7.055 1.224.032 1.398M591.369 351.203l.955-.117 1.28-.083 1.957-.2 1.525-.028.856-.055 1.36-.18 1.339-.137M612.965 348.403l-1.194.26-1.68.33-2.381.393-2.014.341-2.4.314-1.518.204-1.137.158M599.444 344.603l.119.173.19.157.23.18.309.236.107.173.044.137v.31l.031.77.127 1.657.072.816-.032 1.19M554.41 355.82l.033.094.061.06.094.033.142.008.825-.077 2.579-.286 3.856-.49 3.803-.495 5.337-.652 1.99-.303.93-.137 1.46-.161 1.132-.114.995-.134.8-.196.75-.204.546-.114.59-.05.916-.012 1.061-.016 1.05-.083 1.7-.212.793-.11.757-.102 1.541-.286 1.256-.256 1.962-.322M589.197 337.693l.555.628.392.722.195.527.221.762.238.965.064.487.04.668.07.871.016 1.218.048.946.055.679.111.624.055.495.025.494.015 1.39.028 1.167.044.867" clip-path="url(#pfa40ac864d)" style="fill:none;stroke:#000"/><path d="m592.399 305.575-1.355.778-1.498.895-2.108 1.296-.697.432-.516.204-1.712.565-1.798.526-1.966.817-1.687.739-.96.667-.618.51-.53.566-.445.628-.427.8-.214.597-.341.33-1.498.95-1.632 1.116-1.689 1.452-1.584 1.524-1.474 1.64-1.49 1.87-1.078 1.5-.705 1.256-.65 1.186-1.03 1.853-.476 1.13-.618 1.996-.634 1.586-.317.667-.332.503-.452.62-.777.99-.483.738-.214.518-.104.589-.086.77-.088 1.075-.198.574-1.022 1.79-1.046 1.618-1.062 1.46-.436.62-.119.33-.071.503-.024 1.044.182 2.93.199 2.394-.088.652-.028.29.008.162M604.94 326.714l-.147.315-.428 1.327-.705 1.626-.174.55-.048.455-.047 1.146-.175 1.296-.143.51-.214.558-.158.58-.063.511.094.472.175.353.262.369.61.566.713.612.365.4.27.44.22.55.682 1.712.947 2.14.504 1.229.261.557.285.416.333.448.452.456.57.345 1.07.487 1.997.981.517.282M596.052 301.33l-.206.413-.293.456-.372.36-.532.488-.744.691-.872.966-.634.871M592.868 314.492l-.12-1.268-.199-2.827.064-2.332-.214-2.49M597.875 287.09l.563-.15 1.442-.29.76-.031.397.142M596.052 301.33l.08-.16.38-.62.49-.565.714-.747.325-.423.254-.362.246-.55.19-.494.214-.377.285-.37.523-.525.626-.487.618-.558.238-.51.127-.558.031-.746-.023-1.539.007-1.1.064-1.122-.04-1.343-.087-.856-.119-.322-.158-.235" clip-path="url(#pfa40ac864d)" style="fill:none;stroke:#000"/><path d="m601.018 281.584.043 1.219.079 1.413.008.81-.064.918-.047.817M592.55 217.537l.515.197 1.14.683 1.19.785.919.566.578.22.579.11 1.339.125h1.165l1.553.063 1.712-.071 1.617-.228 1.703-.369 2.172-.738 2.67-.942 1.498-.495.674-.134.539-.039.72.055.817.197.76.298 2.806.895 2.9.958 1.07.385.73.216.436.074.63.067 1.16.177 1.094.172 1.498.174 1.212.03h1.046l1.039.134.634.181.475.369.753.88 1.078 1.712M603.11 238.45l.13.275.233.125.25.047.714.118.657-.008.674-.07.69-.126 1.243-.306M599.5 238.924l2.068-.356 1.541-.118" clip-path="url(#pfa40ac864d)" style="fill:none;stroke:#000"/><path d="m598.336 234.98 1.575-.308 1.831-.33 1.125-.117.476.024.15.086.103.172.032.354-.007.455-.04.55-.087.581-.147.369-.147.252-.095.318-.004.313.004.299.004.452M599.656 251.21l-.086-.84-.047-.706.063-.935.357-2.426.135-1.186.024-1.202-.056-1.484-.174-1.562-.371-1.945M598.336 234.98l.284.611.222.636.562 2.191.097.506M594.372 226.82l.618 1.625.935 1.924 1.427 2.733.856 1.602.128.277M594.372 226.82l-1.078.157-4.271.761-4.042.538-2.595.404M583.81 179.802l.15 1.664.496 6.324 1.14 6.56.552 2.917.405 3.518 1.14 5.668.736 2.15.911 2.11 1.204 3.031.73 1.571.626 1.06.348.581.301.58M597.875 287.09l-.048-.785-.04-.613-.039-.455-.127-.903-.015-.832.087-.652.325-.895.206-.464.174-.141.27-.07.372-.017.855.126 1.123.195M596.052 301.33l.317.288.468.502.34.456.325.494.302.48.293.313.214.119.293.117.531.126M604.94 326.714l1.359-.054 2.029-.07 2.321-.008h1.355l.682-.095.436-.063.309-.149.317-.275.848-.69.96-.817.72-.542.547-.495.563-.683" clip-path="url(#pfa40ac864d)" style="fill:none;stroke:#000"/><path d="m592.868 314.492.085.9.08.518.182.337.206.197.436.157 1.308.283 2.218.22 2.093.054 1.973.11 1.268.196.99.346 1.229.49 1.36.492.514.302.175.169.166.216.035.188-.012.204-.075.185-.507.84-.309.668-.12.816-.11 1.32-.055.997-.088.361-.182.369-.317.463-.356.582-.114.242M582.897 324.14l-.281-.46-.21-.38-.286-.354-.428-.287-.65-.243-.193-.09-.143-.146-.044-.224.036-.345.08-.616.102-.26.17-.141.238-.13.36-.05.987.046.547.048.222-.016.195-.06.229-.172.4-.361.412-.338.678-.392.86-.33.558-.252.334-.149.293-.082h.21l.285.055.17.098.278.365.376.4.178.119.111.023.175-.028.15-.082.29-.247.499-.554.408-.412.237-.228.187-.267.17-.392.14-.649.173-.518.219-.459.213-.373.246-.295.273-.184.517-.236M628.44 184.052l.381 1.366.396 1.461.46.927.46.423.887.52.856.305.491.07.373-.015.246-.078.19-.173.158-.252.111-.447-.087-.95-.119-1.422-.246-1.429-.134-.777.008-.432.135-.354.388-.455.53-.644M620.324 160.632l-.349.375-.52.475-.23.283-.12.4-.024.424.206 1.217.175 1.54.107 1.354M616.557 174.608l.187 1.272.261 2.098.254 2.418.257 2.364M608.558 169.76l.546.38.349.345.202.35.127.452.13 1.315.072 1.06.02.432.027.228.056.121.111.067.238.036.499.027.432.07.63.103.769.004 1.243-.067 1.494.012 1.054-.087M622.093 136.277v-.287l-.024-.224-.067-.149-.123-.145-.23-.22-.119-.29-.063-.291.023-.314.127-.252.112-.266-.009-.33-.079-.244-.19-.4-.281-.605M617.632 154.668l-.06-1.267-.064-.75-.031-.326.003-.134.036-.086.038-.027.075-.012.186-.004.34.043.9.145.744.154.325.027.127-.012.114-.054.091-.13.072-.24.083-.494M614.734 154.83l1.74-.14 1.158-.022M614.734 154.83l-.177-1.845-.135-1.665-.206-2.333-.238-1.523-.15-.856-.088-.605-.043-.25-.04-.143-.091-.098-.068-.023-.17.016-.139-.008-.142-.032-.083-.074-.044-.11-.024-.295-.107-.895-.114-1.276-.21-1.304-.341-1.641-.255-1.442M611.506 124.846l-.262-.211-.492-.165-.49-.047-.468.055-.84.25-2.44.739-1.748.538M594.61 132.135l1.291-.48 1.15-.322.864-.259.768-.4.705-.385.88-.581.832-.688.828-.577.987-.698.927-.849.924-.89M611.506 124.846l.229.448.048.581.008.675-.096 1.58M607.773 97.062l.214 1.766.705 1.249.57 1.217.088.518.19 1.737.389 2.74.15 3.087.507 2.112.65 1.964 1.023 2.622.514 2.733.088 1.446-.555 2.057-.452 1.9-.348.636M583.81 179.802l1.472-.156 1.165-.157.951-.117.769-.048.46.055.65.291.887.487.872.502M386.15 540.086l-3.963.393-4.296.14M367.871 539.088l.495.15 2.108.518 1.125.267.904.377.602.157.396.016.412-.126.809-.267.49-.157.429-.094.285.063.57.25.302.237.428.11.665.03" clip-path="url(#pfa40ac864d)" style="fill:none;stroke:#000"/><path d="m376.227 524.209.397.911.19.738.08.722.03 1.398.19 2.151.286 2.576.174 1.32.032.926v.628l.095 1.554.19 2.105v1.382M321.051 534.985l-1.525 2.832-.444.856-.293.77-.156.51M308.075 574.328l.11-.243 3.047-6.765.15-.42.151-.522.997-5.33.83-4.23.158-.722.199-.683 3.534-10.93 1.382-4.53M334.489 540.593l-.533.137-.998.22-1.823.157-1.585.125h-1.014l-2.06-.157-2.71-.267-3.33-.573-1.803-.281M357.205 538.24l.209-.007 3.661-.063h1.965l1.141.047 1.141.236 1.744.392.805.243" clip-path="url(#pfa40ac864d)" style="fill:none;stroke:#000"/><path d="m368.734 547.984-.448-3.485-.237-3.078-.178-2.333M371.398 573.222l.217 3.376.493 5.48M373.33 595.141l-.083-.673-.507-5.826-.451-4.515-.181-2.05M359.649 571.768l.507 5.504.158 1.681.08.298.158.314.19.157.46.032 1.432-.132.363-.005.168-.015.082.04.063.07.03.079.027.139.14 1.331.11.662.155.309.216.167.336.075 2.124-.082 5.66-.314M358.621 554.652l.362 3.808.634 5.433.475 4.554-.103.306-.198.37-.222.29-.095.345.016.88.159 1.13M364.11 570.253l-.349.134-.602.11-.864.196-1.002.298-.507.228-.206.137-.167.165-.178.095-.273.09-.313.062M334.489 540.593l.688-.177 1.617-.298 4.136-.472 5.136-.66 6.387-.612 4.752-.135M358.055 548.686l-.07-.748-.78-9.699M441.284 498.023l3.058 3.421.645.525M449.809 503.467l-1.586.084-.593-.009-.603-.212-.674-.368-.692-.444-.674-.55M419.243 565.118l.158-.33.508-.377 1.172-.942.674-.605.182-.259.15-.282.04-.605-.238-2.945-.539-6.108-.094-5.246.126-1.397.175-.88.253-.832.111-.99.095-1.538.032-1.445v-.487l-.127-.628-.364-1.005-.682-1.664-.206-.676-.126-.612-.095-.707-.064-2.685-.127-1.586.016-.361.127-.299.253-.282.365-.189 1.347-.252 1.3-.203 1.965-.268 1.95-.267 2.219-.125 1.109-.126.507-.172.428-.205.412-.266.84-.644 1.284-1.21.444-.643.317-.707.412-1.492.071-.464.024-.635-.087-.519-.103-.726-.032-.389.012-.435.068-.428.027-.334-.083-.522-.206-.974-.135-.88-.158-1.578-.109-2.529.093-.666.135-.55.316-.542 1.435-1.774 1.094-1.602.84-.91.935-.692 1.521-.863 3.777-2.595" clip-path="url(#pfa40ac864d)" style="fill:none;stroke:#000"/><path d="m411.207 579.089 1.76-.089 2.012-.094 1.15-.087.855-.14.721-.22.618-.33.54-.393.38-.455.19-.417.095-1.57-.063-2.371-.349-3.408-.206-2.355.08-1.084.11-.502.143-.456" clip-path="url(#pfa40ac864d)" style="fill:none;stroke:#000"/><path d="m401.345 570.54-.084-.844-.214-2.175-.205-2.395-.183-2.748-.277-2.701-.238-2.309-.175-1.877-.125-3.706.065-.266.138-.223.287-.218.618-.046 1.522.062.92.126.84.299.744.518 1.205 1.146 1.569 1.539.887 1.02 1.19 1.54.76.973.523.472.602.44.523.565.555.753.222.518.174.597.159 1.13.091.535.11.22.132.161.19.13.234.105.677.09.674.142.72.126 1.142.133.69.157.578.204.658.385M391.95 598.818l-1.093-.085M398.266 591.45l-.484.443-2.551 2.952-1.95 2.324-1.331 1.65M391.728 607.816l-.27-3.11-.206-3.045v-.707l.08-.534.19-.628.428-.974M392.582 619.958l.176 2.415.143 1.79M369.86 619.716l.558-.413.246-.11.357-.054.443.094.698.463.896.848.958.934.99 1.186.88.91.73.833.974 1.233.967.973 1.054 1.005.721.612.777.464.943.463.84.408.88.315.665.188.682.07.641-.007.587-.063.76-.188.983-.495 1.197-.824 1.355-1.218 1.752-1.798.206-.313.174-.409.127-.66" clip-path="url(#pfa40ac864d)" style="fill:none;stroke:#000"/><path d="m373.33 595.141.44 3.614 1.094 10.019.46 5.363.055 1.319-.004.256-.034.11-.084.074-.112.05-.25.035-3.438.197-.278.063-.158.063-.111.125-.064.165-.198.73-.789 2.392M334.489 540.593l.14 2.25.92 9.194.579 5.81.46 4.052.071.298.095.236.103.204.19.172.658.346 1.085.495.848.29.65.141.658.134.95.251.714.212.254.126.349.283.689.651.626.416M326.202 522.348l-.028 1.57-.04.849-.11.863-.154.656-.203.499-1.445 2.631-1.9 3.21-1.27 2.36M310.848 534.833l.476-.44.277-.228.356-.149.404-.094.73-.055.626-.015.46.093.467.119.483.07 1.316.095 1.656.258 2.952.498M324.935 509.306l.02.33.268 3.392.526 4.662.03.245M326.202 522.348l.004-.22-.075-1.27-.352-2.923" clip-path="url(#pfa40ac864d)" style="fill:none;stroke:#000"/><path d="m312.512 518.426.222-.082.491-.22 1.141-.51.968-.41.554-.25.301-.063.23-.031.3.047.255.063.285.015.357-.063.729-.164.744-.134.54-.015.507.055.729.117.887.063.991.117.92.268.483.185.455.129.71.204.468.188M309.881 520.7l-.051-1.396.013-.246.057-.223.125-.158.262-.125.569-.051 1.125-.028.25-.011.281-.036M312.076 522.718l.198-.377.131-.295.083-.361.032-.357.016-1.03-.024-1.872M324.935 509.306l-.014-.24M383.118 507.578l-.456.158-1.902.486-1.537.361-.999.174-3.17.628-1.03.031-.364-.031-.27-.173-.348-.267-.571-.519-.586-.44-.619-.25-.538-.094-.746.03-1.759.346-2.932.565-2.663.519-3.614.613-3.217.282-3.566.392-1.823.158-.84.157-.46.235-.523.362-.95.659-1.791 1.068-1.538.832-.999.299-1.283.282-.84.157-.729.032-.634-.063-.761-.204-1.632-.314-1.918-.456-.983-.314-.333-.22-.348-.266-.349-.377-.618-.738-.476-.44-.618-.377-.776-.283-1.57-.314-1.505-.346-1.728-.423-1.271-.189M324.345 498.062l-.024-.403M324.92 509.066l-.3-5.1-.126-3.36-.149-2.544M337.34 497.801l-.23-.069-.475-.236-.682-.204-.665-.047h-1.442l-2.077.063-1.521.078-1.284.11-1.95.205-2.669.361M322.848 474.537l2.122-.173 1.743-.173.904-.172 1.188-.471 1.443-.739M323.137 466.76l-.299 1.048-.158.777-.064.718.008.93.224 4.304M323.322 482.03l-.444-6.928-.03-.565M369.57 477.285l4.438-.44 3.297-.361M336.095 480.32l1.158-.099.951-.14 1.173-.157 1.791.078 1.823.094 1.41-.047 2.473-.33 2.647-.392 1.521-.173 1.855-.204 2.551-.236 2.806-.298 1.442-.158 2.647-.25 3.043-.346 4.184-.377" clip-path="url(#pfa40ac864d)" style="fill:none;stroke:#000"/><path d="m370.45 471.404-.032.855-.047 1.21-.064.275-.087.117-.15.134-.143.173-.246.486-.19.487-.04.244.024.494.095 1.406M324.321 497.659l-.017-.288-.982-15.341M336.095 480.32l-.887.075-3.455.33-1.537.188-1.775.267-2.489.518-2.63.332M312.29 458.66l2.6-.11 2.068-.095 1.822-.094 1.07-.078.817-.063.427.024.365.14.301.197.167.251.126.472.016 1.28.103 2.434.095 2.175.009.298.079.29.198.354.584.624M312.29 458.66l-1.775.157-2.742.141-1.823.141-1.6.173M311.965 453.917l.127 2.238.198 2.505M441.284 498.023l-1.754.416-7.481 1.884-2.425.668-1.418.369-1.791.479-1.237.337-.745.212-.404.244-.444.267-.737.588-.8.66-.698.51-.253.299-.15.267-.064.165-.119.494-.396 1.108-.388.761-.182.314-.159.141-.238.134-.277.196-.404.236-.19.047-.199-.007-.182-.055-.19-.134-.246-.236-.634-.832-.546-.777-.111-.189-.062-.141-.045-.157-.02-.369v-.485l-.028-.29-.028-.154-.015-.165v-.163l.047-.565-.04-.126-.095-.07-.11-.024-.568-.047-2.143-.117-1.934-.189-1.41.031-1.712-.078-3.66-.425-1.158.08-1.046.094-.793.204-.808.345-.666.33-.364.157-.428.079h-.9670000000000001l-1.173.015-1.934-.079-.681.064-.935.188-1.237.283-2.345.392-2.219.534-1.078.314-.65.377-.602.361-1.078.377-1.319.408" clip-path="url(#pfa40ac864d)" style="fill:none;stroke:#000"/><path d="m382.805 496.664.095 3.11.079 3.36.14 4.444M387.56 511.732l-1.023-1.193-.626-.66-.404-.274-.468-.22-.729-.244-.67-.137-.22-.094-.132-.119-.051-.145-.06-.33-.059-.738M397.053 571.164l2.283-.298 1.6-.244.409-.082M411.207 579.089l-.38-5.004-.101-2.044-.026-.226-.027-.126-.021-.05-.027-.028-.048-.021-.076-.006-.712.004-2.641-.047-.163.002-.052-.036-.025-.054-.016-.095-.051-.971-.072-.103-.071-.094-.27-.07-2.932.14-1.854.229-.297.05M397.053 571.164l-.375.053M398.266 591.45l-.658-6.341-.222-3.361-.222-2.136-.127-2.983.016-5.465M388.622 572.64l-2.298.377-1.443.22-.92.18-.26.095-.128.125-.063.165-.023.212.07.982-.03.282-.096.102-.159.094-.333.048M377.986 570.21l.343.108.105.086.085.128.068.236.144 1.166.365 3.093.031.282.08.213.166.094.42.024 1.982-.071 1.164-.047M389.503 583.42l-1.388-.109-.468-.134-.149-.072-.089-.077-.067-.098-.036-.098-.087-.519-.095-.55-.175-.384-.332-.353-.238-.346-.095-.267-.238-1.201-.286-1.672-.229-.997-.111-.193-.139-.102-.25-.067-.431-.07-.575-.016-.238-.03-.142-.04-.222-.15-.484-.353M396.678 571.217l-.18-3.147-.19-.8-.158-.315-.285-.157-1.506-.063-4.216-.046-5.183.203-.316.103-.128.22-.04.235.04 1.115.016.91-.071.15-.167.102-.214.031-1.347.024-2.702.141-.943.087-.642.11-.46.09M370.967 568.045l1.203.48 1.886.959 1.37.871.135.079.15.062.239.008 1.268-.196.768-.098M370.542 563.732l.217 2.203.208 2.11M371.398 573.222l-.148-2.294-.283-2.883M515.537 474.307l1.38-1.552 3.777-4.41 2.552-2.747 1.02-.84.99-.56 1.664-.7 1.02-.265 1.037-.062 1.366.078.797.06.547-.088" clip-path="url(#pfa40ac864d)" style="fill:none;stroke:#000"/><path d="m533.593 462.085-.22.323-.45.35-.562.29-.674.173" clip-path="url(#pfa40ac864d)" style="fill:none;stroke:#000"/><path d="m528.074 428.57.04.408.094 1.02-.016 4.068.064.644.143.55.253.502.507.644.365.471.206.503.237.754.223 1.774.047 2.482-.19 2.591-.127 1.46-.063.44-.127.33-.183.416-.11.342-.056.396v.232l.047.593.239 1.837.253 1.916v1.162l-.127 1.524-.016 2.135.006.776.054.28.136.39.15.435.205.664.242.722.444.848.673 1.342M496.278 485.006l.18-.07 3.187-1.415 2.689-1.18.42-.274.333-.369.436-.613.348-.542.34-.337 1.024-.761.898-.658M515.537 474.307l-1.795 2.02-.44.436-.432.24-.56.219-.562.083-.836-.008-.974-.155-.587-.057-.426.026-.414.072-.37.13-2.008 1.474M504.73 458.757l.02.185.16.801.079 1.21.063.989v1.46l.047 1.76.08.659.08 1.225.095 2.183.316 3.423.143 2.12.32 4.015M503.809 445.249l-.08-1.854-.175-2.623-.016-1.602-.079-1.342-.15-1.288-.199-1.65-.059-.804.02-.16.055-.076.123-.063.305-.043 2.227-.267 1.593-.141.57-.079.42-.157.389-.211.206-.189.103-.118.072-.235.174-.597.27-.581.641-.958.404-.676.468-.533.903-.88.404-.455.888-1.249.983-1.382.182-.259.008-.078-.063-.252-.175-.385-.277-.753-.428-1.202-.484-1.107-.475-.778-.69-1.177-1.014-1.885-.507-.966-.357-1.013-.515-1.594M528.074 428.57l-.123-.471-.166-.429-.112-.384-.067-.507-.095-1.193.031-1.367-.015-3.878.174-2.152.095-1.147-.063-.69-.27-1.163-.444-1.084-.221-.266-.365-.157-1.189-.142-1.569-.188-.982-.283-.84-.063-1.268.141-1.284.174-.999.125-.744.078-1.68.048-2.822-.016-2.219-.047-1.363.078M498.19 412.001l1.997.628 1.901.361 2.188.205 1.79.33 1.395.204 1.046-.047.967-.095M491.668 455.683l-.532-.008-4.271.181-1.038.142-.523.157-.325.18-.627.464-.91.636-1.03.628-.722.44-.238.25-.071.15.016.361.04.613-.064.196-.143.212-.214.15-.309.062-.5.11-.617.18-.389.22-.586.456-1.038.762-.602.478-.483.385-.42.244-.58.259-.601.236-.357.18-.317.22-.603.471-1.79 1.359-1.443 1.146-.412.235-.206.071-.285.055-.373.05-3.455.35-2.94.3-.982.077-.175.055-.107.043" clip-path="url(#pfa40ac864d)" style="fill:none;stroke:#000"/><path d="m457.583 502.43-.761-4.306-.19-1.366-.301-2.622-.492-4.052-.744-5.575-.12-1.17.04-.18.096-.126.19-.118.269-.055.657.016 1.38.126.134.007.107-.011.111-.055.159-.153.428-.994 1.002-2.603 1.007-2.866.253-.91.095-.448.088-.503.079-.793.174-2.026.182-1.876.008-1.147.012-.185" clip-path="url(#pfa40ac864d)" style="fill:none;stroke:#000"/><path d="m465.285 426.088-1.173 3.141-2.567 2.104-1.617 2.482-2.036 4.24-.103.362-.055.431.079.707.047.236.111.243.198.306.107.255.064.232.027.251.064.613.09.428.187.616.404 1.021.183.471.103.652.063.55.285 1.076.214.8.103.934.04.935-.175.88-.19.8-.222.55-.507.927-.285.722-.142.613-.096.848.048 1.02.23 2.097.15 1.704.048.447.103.472.428 1.625 1.387 4.42.411 1.485.155.655M449.809 503.467l2.902-.342 4.872-.695M467.253 493.943l-.174.423-.754 2.582-.754 2.1-.612 1.012-.879.995-.943.514-1.883.295-1.775.296-1.896.27M504.73 458.757l-.027-.255-.143-2.827-.316-3.407-.412-6.486-.023-.533M492.423 439.025l.425.082 1.189.173.776.189 1.11.408 1.252.613.713.565 1.474 1.398.634.745.444.62.808 1.32.155.214.095.092.139.065.152.004.21-.018 1.81-.246M528.074 428.57l.784.282.523.267.27.126.237.04.697-.142 2.156-.55 2.118-.439.178-.09.079-.105.031-.227-.029-1.251-.214-2.175-.174-2.19M533.593 462.085l1.62 1.003.809.409.84.282 1.094.283h.554l1.601-.126 1.585-.063.903-.125.492-.141.428-.22.27-.346.538-.691.697-.596.698-.566.475-.408.381-.173.76-.22 1.87-.44.762-.235.237-.157.318-.283.284-.251.381-.251.333-.126.634-.11.444-.094.475-.157.777-.487 1.648-1.257M574.394 502.066l.65.173.665.078.666-.062 1.03-.251 2.67-.55M403.201 609.553l.493 3.524M401.238 609.905l1.569-.283.394-.069M392.582 619.958l2.332-.63 2.409-.74 1.426-.55.745-.313.333-.236.745-.895.793-.918.709-.616 1.054-.86.384-.358.119-.157.064-.153.007-.196-.008-.259M391.728 607.816l.222 2.56.444 6.501.142 2.45.046.63M391.728 607.816l2.013.566 2.44.769 1.332.408 1.284.283.745.126.634.062 1.062-.125M399.82 592.238l.308 3.706.333 4.617.777 9.344M496.916 491.052l2.367-.261 1.806-.189.437.024.3.055.334.164.372.284.412.51.27.636.126.47.024.653-.008.738-.206.738-.206.848-.091.383-.083.072-.131.051-.14.022-1.02.092-4.125.424" clip-path="url(#pfa40ac864d)" style="fill:none;stroke:#000"/><path d="m496.916 491.052.037.32.174 2.701.227 2.693M497.656 501.075l-.196-3.045-.106-1.264M496.024 485.105l.232 1.885.253 1.492.254 1.225.153 1.345M507.461 500.01l-4.406.454-4.85.582-.549.029" clip-path="url(#pfa40ac864d)" style="fill:none;stroke:#000"/><path d="m491.163 501.947 3.523-.493 2.045-.33.925-.05M496.024 485.105l.254-.099M492.186 512.494l-.213-.586-.411-1.602-.096-1.916-.456-3.698-.125-1.678.278-1.067" clip-path="url(#pfa40ac864d)" style="fill:none;stroke:#000"/><path d="m470.984 522.13.752.006 1.474-.282 1.95-.377 1.521-.44 1.363-.55 1.031-.565.95-.377 2.14-.675 2.362-.927 1.284-.565.539-.33.475-.455.634-.644 1.078-.88 2.298-1.853.46-.314.254-.141.637-.267M470.984 522.13l-1.023-.01-1.14-.063-1.538-.125-1.522.016-1.03-.032-1.22-.157-.872-.11-.793-.047-.507.032-1.11-.11-.522-.11-.254-.141-.285-.236-.745-.833-.998-1.161-.476-.597-.365-.613-.444-.973-.618-1.57-.745-2.215-.555-1.288-.76-1.46-.745-1.225-1.276-1.782-.784-1.178-.254-.495-.19-.605-.404-1.575M515.537 474.307l-3.052-4.591M491.668 455.683l-.873.378-.744.47-.42.409-.278.424-.071.212-.01.336.24 1.006M504.73 458.757l-1.358.091-.46.094-.554.18-.476.048-.317-.04-.237-.125-.452-.29-.365-.22-.412-.346-.476-.675-.277-.306-.301-.158-.31-.086-.72-.149-.69-.18-.641-.252-.825-.44-.372-.18-.246-.04-.5.008-.696.048-.706-.032-1.671-.024M388.622 572.64l1.632-.267 4.787-.926 1.637-.23M368.734 547.984l.107.834.809 5.7.439 4.352M370.542 563.732l-.401-4.346-.052-.516" clip-path="url(#pfa40ac864d)" style="fill:none;stroke:#000"/><path d="m362.387 554.554.083.639.223 1.924.026.134.026.07.04.052.051.036.107.022 1.064.023 1.744.046.234.033.132.107.075.191.075.975.074.185.17.139.3.015 3.278-.275M358.055 548.686l.566 5.966M361.73 548.496l-.185.001-.193.004-3.297.185M464.841 576.95l-2.155-.133-2.345-.188-2.251-.016-1.6-.094-1.047-.204-.887-.377-.682-.267-.444-.047-.634.094-1.347.173-1.934.235-1.442.252-.507.11-.286.204-.681.502-1.204.864-1.348 1.209-1.68 1.256-.872.628-.539.236-.27.079h-.316l-.46-.063-1.22-.377-1.632-.503-1.411-.298h-.65l-.76.032-.571.093-.698.142-1.14.487-1.443.706-2.172 1.273-3.732 1.758-.5.315-.174.29-.071.196-.04.307-.007.793.063 1.35-.024 1.06-.055.243-.143.15-.214.062-.46-.008-1.933.032-.428.078-.254.157-.158.205-.127.266-.222.377-.38.346-.492.377-.697.738-1.347 1.343-.714.714-.134.236-.048.29-.032.275-.063.118-.166.094-.587.117-2.536.362-2.14.353-.498.032-.175-.055-.135-.126-.07-.165-.064-.856-.095-.22-.143-.102-.23-.086-1.22-.251-2.916-.534-1.617-.534-2.671-.558-.745-.259M398.266 591.45l.46.333 1.093.455" clip-path="url(#pfa40ac864d)" style="fill:none;stroke:#000"/><path d="m411.207 579.089-1.98.1-1.285.094-.57.235-.365.22-.38.377-.602.816-.952 1.853-1.632 3.69-.444.77-.301.346-.507.393-.539.345-.634.487-1.094 1.115-1.656 1.52M258.891 507.968l.652-.052 4.842-.228 7.08-.33 1.725.11 5.61-.408 4.137-.156 3.566-.048 2.41-.047 2.662-.063.856.07.84.064.856.015 2.837-.055 3.756-.078 4.438-.251 2.52-.126 1.76-.188 2.614-.424 2.71-.268 1.554-.062h.57l.492.126.665.502.698.69.618.598.396.33.634.298 1.696.44 2.836.639M234.025 509.84l-1.675.117M247.644 508.704l-.495.029-6.174.29-1.799.252-1.006.172-4.145.393M236.145 530.389l-.143-.122-.063-.287-.028-.267-.555-7.247-.325-2.929-.158-.848-.08-.47-.086-.707-.682-7.672M274.83 536.36l2.12-.392.364-.099.266-.086.15-.09.13-.138.068-.196.004-.38-.04-.46-.233-1.892-.071-.322-.104-.29-.107-.177-.17-.228-1.038-.93-.856-1.022" clip-path="url(#pfa40ac864d)" style="fill:none;stroke:#000"/><path d="m266.988 539.14.139.082.206.036.337.027 2.108-.088.146-.032.183-.066.1-.099.056-.092.02-.141.01-.152.034-1.313.097-.158.127-.154.158-.069.264-.027.594-.006.68.01.514-.047.817-.173.5-.086.752-.232M275.86 541.565l-.325-2.924-.119-1.492-.044-.31-.067-.141-.146-.138-.166-.102-.163-.098M276.154 544.106l-.295-2.541M278.768 552.665l-.316-.526-.278-.385-.483-.365-.357-.26-.404-.372-.08-.142-.063-.22-.063-.25-.127-1.257-.443-4.782M267.506 545.966l3.718.016.113.01.067.012.068.022.09.043.264.106.349.083.293.023.349-.032.69-.086.269-.067.063-.027.024-.047v-.05l-.107-.413-.166-.585-.04-.09.01-.072.031-.045.106-.046 2.457-.615M282.778 567.937l-.007-.228-.04-.746-.15-1.288-.056-.573-.016-.66-.119-1.177-.27-1.044-.372-1.218-.753-2.096-.444-1.366-.134-.44-.048-.275.024-.44.111-.769-.04-.636-.079-.424-.206-.416-.586-.393-.54-.557-.285-.526M268.154 553.647l3.264-.226.119-.013.077-.01.059.005.038.016.025.022.019.029.024.24.036.072.118.062.103.08.064.058.057.01.08-.016.092-.053.141-.086.15-.014.183.002 1.008.41.555-.043.757-.248 1.942-.188-.024-.722 1.727-.369M270.024 574.105l2.488-.244.614.05.218-.093.194-.157.043-.181.005-.353-.238-3.266-.032-.77.008-.098.071-.169.06-.098.178-.138 1.046-.204 4.882-.361 2.456-.047.603-.055.158.016" clip-path="url(#pfa40ac864d)" style="fill:none;stroke:#000"/><path d="m308.075 574.328-2.268-1.539-3.296-2.379-.666-.447-.404-.181-.72-.29-.5-.181-.603-.173-.562-.18-.634-.291-.809-.424-2.528-1.696-1.735-1.21-.793-.51-.285-.094-.245.012-.38.09-.841.409-1.49.863-1.458.723-1.427.722-.205.138-.238.192-.206.173-.131.133-.198.066-.143.005-.309-.02-2.223-.302M260.763 591.34l-.328.883-.599 1.428-.21.605-.067.263-.012.228-.008.263.004.542.15 2.214.44 5.3" clip-path="url(#pfa40ac864d)" style="fill:none;stroke:#000"/><path d="m276.684 607.384-3.352-1.264-1.256-.695-1.458-.526-.52-.07-.45-.02-.762.027-.622.016-.372-.059-.456-.145-1.185-.487-1.165-.42-.74-.224-1.499-.145-.907-.082-1.11-.134-.697-.09M256 603.832l.397-.087.594-.15.626-.192.448-.13.444-.093.851-.067.773-.047M276.684 607.384l.293 3.384.746 10.082.118 1.97.033.391M257.133 614.949l-.625-5.924-.444-4.177-.012-.177-.02-.247-.008-.282-.023-.31M253.59 604.242l.802-.108.848-.138.76-.164M308.075 574.328l-1.843 4.072-1.122 1.872-1.646 2.667-1.207 2.547-1.18 2.7-.715 2.365-1.765 6.572-.516 1.978-1.101 3.564-1.617 4.225-.57 1.358-.516.872-.618.832-.681.746-2.235 2.48-.579.872-.293.637-.214.863-.028.24M276.684 607.384l4.494 2.678 4.485 3.015 3.966 2.713M390.857 598.733l-.524-.04-1.22-.142-.856-.11-1.791-.314-3.011-.8-1.19-.472-.285-.11-.088-.092-.054-.096-.052-.13-.027-.106-.266-1.3-.071-.145-.093-.104-.093-.066-.123-.034-.179-.016-.523.032-2.52.141-4.562.312M275.86 541.565l1.68-.058.848.15.626.188.618.259.618.283.61.408.444.408M341.297 497.714l.031.495.038.838.095.923.068.761.59 6.518.028.487.044.25.107.291.122.177.257.228M337.34 497.801l.064 1.698.159 1.735.094.982" clip-path="url(#pfa40ac864d)" style="fill:none;stroke:#000"/><path d="m341.297 497.714-.827-.03-1.386.099-1.244.075-.365-.016-.135-.04M406.249 435.106l2.13.114 2.586-.03.373-.036.17-.051.254-.079.234-.121.233-.122.202-.09.313-.087.444-.004 3.852-.015 1.632-.016.325-.016.113-.012.077-.035.048-.063.04-.102.23-.926.348-2.348M406.249 435.106l-.028-.173M406.865 438.931l-.051-.265-.565-3.56M392.632 428.209l.376.165.305.176.198.165.139.173.154.294.064.377-.008.942-.071.707-.04.927.047.816.222 1.068.386 1.409.069.15.055.073.1.035.136.008 1.513-.08 2.663-.197 3.368-.228 3.913-.256M406.865 438.931l-4.566.49M362.387 554.554l-.14-1.088-.459-4.295-.057-.675M368.734 547.984l-5.396.072-1.195.068-.175.026-.086.037-.066.047-.047.042-.026.064-.012.156M470.984 522.13l.17.35.063.167.061.194.078.528.071 1.24.246 1.493.301 1.813.254.934.158.601.123.425.103.498.004.267-.04.334-.19.6M467.253 493.943l.188.154.135.188.079.338.15.479.223.408.3.275.556.282.895.487 1.268.762.562.353.27.087.34.007.635-.125.73-.142.657-.031.372.008M389.503 583.42l.26 3.589.491 4.79.603 6.934M389.503 583.42l-.152-2.096-.318-4.161-.411-4.523M366.305 563.61l-.04-.345-.023-.502.04-.676.063-.589M366.305 563.61l1.958.08 2.279.042M364.11 570.253l.832-.377.666-.385.38-.487.238-.565.071-.581-.015-.479-.112-1.264.009-.62.095-1.256.031-.628M364.11 570.253l.071.298.27 1.108.214.973.071.283.08.141.118.079.222.055 1.458.007 2.441.008 2.343.017M362.387 554.554l-3.766.098M336.095 480.32l.825.373.38.29.531.582.278.267.246.165.349.133.918.188 1.062.165.39.094.348.197.673.565 1.118 1.06M343.91 492.69l-.05 4.041-.02.196-.067.141-.087.05-.083.021-.185.012-.316-.04-1.092-.148-.234-.026-.134.021-.137.069-.074.099-.051.144-.083.444M321.673 523.11l.652-1.162.251-.448.151-.165.246-.117.303-.075.271-.024.167.018.107.041.1.1.145.332.101.377.062.134.073.094.129.062.333.079h.507l.93-.008M319.05 499.287l.824-.574.547-.423.468-.315.467-.188.634-.134.777-.023 1.554.029M492.423 439.025l-.463-.09-1.568-.275-.341-.133-.175-.095-.23-.235-.202-.353-.218-.904-.087-.522.016-.18.083-.17.119-.156.349-.244.218-.165.225-.263.202-.31.254-.42.38-.381.456-.283.178.008.183.055.174.181.127.44.167 1.115.071 1.452.082 1.928" clip-path="url(#pfa40ac864d)" style="fill:none;stroke:#000"/><path d="m492.423 439.025-.082-1.928-.071-1.452-.167-1.115-.127-.44-.174-.18-.183-.056-.178-.008-.456.283-.38.381-.254.42-.202.31-.225.263-.218.165-.35.244-.118.156-.083.17-.016.18.087.522.218.904.202.353.23.235.175.095.34.133 1.57.275.462.09M495.543 474.466l.182 2.073.166 2.63.175 1.76.212 4.077M464.841 576.95l.381.024 1.046-.125 1.395-.503 1.553-.69 1.205-.755.729-.69 1.347-1.147 1.775-1.052 1.093-.616" clip-path="url(#pfa40ac864d)" style="fill:none;stroke:#000"/><path d="m464.841 576.95-.07-1.122-.032-.581-.063-.291-.111-.321-.072-.417.04-1.185.016-.754.047-.236.159-.274.935-.99.777-1.005.38-.479.23-.29.112-.134.15-.133.116-.06.234-.05.323-.024.697-.031.57-.04.39-.03.38-.087.728-.267 1.554-.503 1.22-.4.445-.091.199-.033.162.056.131.141.149.586.143 1.021.087 1.092.04.423.07.291.112.235.276.429M144.261 514.536l2.814-.307 1.727-.267 2.473-.173 1.696-.062 1.085-.15.603-.039.776.032 1.086.047 3.106-.126 1.308-.07 1.078-.134 1.022-.18M171.871 512.318l-.856.043-1.862.164-2.56.268-3.558.313" clip-path="url(#pfa40ac864d)" style="fill:none;stroke:#000"/><path d="m161.941 520.385 1.475-.078.158-.048.091-.098.036-.117.008-.2-.063-.825-.318-1.97-.095-.747-.04-.51-.158-2.686M144.261 514.536l-2.429.132M150.108 501.326l.319 3.104.237 2.316.048.703-.06.55-.114.33-.179.31-.213.207-.23.067-.321.016-2.81.263-1.878.184-.519.032-.281.083-.27.14-.11.166.02.2.023.216.491 4.323M105.856 544.64l-.157-1.037-.221-1.82-.095-.826-.127-.777-.135-.754-.198-.965-.436-2.937-.53-3.879-.065-.958-.017-.46M103.472 524.782l.175 1.618.119.966.11 2.861M118.47 552.323l-2.155.263-4.248.519-3.935.51-1.264.17" clip-path="url(#pfa40ac864d)" style="fill:none;stroke:#000"/><path d="m107.688 563.622.163-.463.076-.467.007-.707-.225-1.834-.337-1.888-.163-.985-.265-1.59-.093-.591.008-.21.018-.181.019-.118.032-.33-.06-.473" clip-path="url(#pfa40ac864d)" style="fill:none;stroke:#000"/><path d="m105.856 544.64.414 2.748.484 4.696.102 1.578.012.123M131.23 547.066l-.567.079-1.284.165-2.37.526-.3.125-.144.018-.162.034-.145.09-.12.141-.183.157-.38.079-1.783.274-1.328.232-.25.043-.154.055-.198.126-.04.11.21 1.959-.02.322-.103.196-.158.138-.194.055-3.087.333M115.997 531.965l.298 2.565.23 1.767.21 1.437.436 3.753.003.472.044.518.067.683.321 2.308.551 4.7.115.77.198 1.385M113.967 512.453l-.092-.017M113.967 512.453l.925 8.983M125.936 515.33l-.306.014-.705-.047-.76-.125-.888-.322-.761-.299-.444-.18-.452-.15-.713-.18-1.062-.173-4.69-1.146-1.047-.244-.141-.025M107.688 563.622l-.273.522-.594.801-.666 1.076-.55 1.005-1.36 1.99-.233.303-.377.298-.317.134" clip-path="url(#pfa40ac864d)" style="fill:none;stroke:#000"/><path d="m108.705 563.92.045.283.06.334.028.557-.02.483.004.393.012.255.051.35.226 2.426-.002.13-.034.12-.089.119-.104.072-.155.042-3.39.557-.058.002-.067-.001-.073-.009-.05-.027-.142-.12-.093-.028-.064.006-.103.003-1.369-.116M108.705 563.92l-.303-.074-.31-.075-.404-.149M173.923 512.185l.367-.028M171.871 512.318l.872-.044.597-.045.583-.044" clip-path="url(#pfa40ac864d)" style="fill:none;stroke:#000"/><path d="m174.888 524.158-.092-1.22-.08-1.077-.467-4.719-.04-.824-.071-1.264-.024-.817-.191-2.052M174.355 561.998l-.53.073-.916.063-.907.047-.146-.05-.143-.118-.107-.212-.06-.248-.178-1.288-.05-.094-.08-.13-.16-.107-.2-.04-.279.022-3.233.424-1.018.133-.464.04-.214.058-.186.15-.202.318-.186.357M179.13 579.081l-.213-3.363-.048-1.366-.345-4.857-.206-3.517-.067-2.486-.165-2.523M177.4 552.594l.502 5.567.184 2.808M174.355 561.998l.096-.013 1.213-.2.582-.13.345-.082.265-.106.356-.153.874-.345M177.4 552.594l-2.105-.363M176.735 544.672l.51 6.195.155 1.727M175.295 552.231l-1.835-.316-.376-.047-.248-.014-.248.002-.297.027-5.848.794-1.189.255-1.763.31-1.292.185-3.824.345-.562.04-.424-.04-.194-.177-.052-.302-.044-.416-.736-6.29-.078-.97-.012-.106-.032-.138-.06-.103-.084-.059-.12-.021h-.118l-.172-.004-.14-.034-.132-.113-.041-.095-.006-.133.016-.112.794-3.518" clip-path="url(#pfa40ac864d)" style="fill:none;stroke:#000"/><path d="m158.656 540.713-1.952.225-.18.025-.171.079-.175.14M147.198 526.325l.613 4.064.722 5.794.056 1.069.047 1.782-.024.88-.008.572.04.413.194.31.186.16.385.122.49.028.583-.016 3.602.043 1.37.04.249-.026.17-.053.153-.15.152-.176M147.198 526.325l.832.09.844.256.994.4.682.495 1.378 1.13.999.872.29.243.273.229.3.286.276.296.097.126.092.19.277.668M176.434 541.012l.3 3.66M176.036 535.282l.392 5.644.006.086M158.656 540.713l3.392-.392 1.7-.125 3.547-.24 1.304-.145.249-.004.23.106.103.177.027.267.258.707.115.149.135.094.242.05.443-.007 3.135-.208 2-.09.898-.04M141.832 514.668l.345 3.142.016.644-.08.47-.031.833.04.7.127.698.546 3.549.226 1.503.036.165.063.098.123.04.38-.028 1.138-.094.875-.047.749-.039.813.023M137.224 514.92l4.446-.243.162-.009M109.694 524.169l-6.222.613M114.892 521.436l-1.256.162-3.324.428-.34.043-.254.064-.107.098-.028.125.003.185.012.223.096 1.405M115.997 531.965l-4.948.886-.21.03-.17-.03-.1-.134-.059-.184-.083-.33-.535-5.136-.198-2.898M115.997 531.965l-.162-1.392-.396-4.26-.539-4.817-.008-.06M135.089 515.017l-.096.484-.02.224-.003.185.043.258.107.46.23 1.04.25 1.524.69 3.02.074.246.064.165.115.18.186.326.182.315.147.341.083.487-.004.593-.15.895-.377 1.35-.155.189-.194.153-.202.114-.325.055-.27-.06-.99-.541-.578-.228-.444-.078h-.464l-.38.051-.42.133" clip-path="url(#pfa40ac864d)" style="fill:none;stroke:#000"/><path d="m125.936 515.33.51-.025 6.737-.204 1.906-.084M137.224 514.92l-.135.008-2 .089M117.984 568.63l.038.367.254 1.602.04.73.11 1.075.112.943.02.255-.036.106-.175.079-.293.03-1.466.197-1.569.165-1.414.094M117.45 563.552l.534 5.078M123.138 562.978l-3.543.432-.653.067-.622.035-.87.04M108.705 563.92l.165.028 8.58-.396M157.522 586l-.13 1.787-.015.95.008.588.079.448.218.616.277.526 3.052 4.916.107.156.063.197.024.204-.068.193-.182.196-.764.588-.175.083-.23.11-.261.063-.341.027-1.161.09-.82.106-.92.146-.23.031-.206.079-.194.153-.17.153-.384 1.633-.143.644-.15.46-.155.31-.29.58-.15.33-.214.742-.158.656-.115.451-.353.797-.123.228-.198.231-.179.142-.324.161-2.43.915" clip-path="url(#pfa40ac864d)" style="fill:none;stroke:#000"/><path d="m142.082 574.803 1.922.075.33.08.25.124.228.141.444.267.638.436.258.192.213.236.286.365 1.66 1.66.598.59.278.24.188.18.178.13.216.135 1.728 1.14.59.409.523.432.553.508.262.26.13.1.115.068.256.092.525.078.446.08.18.082.146.119.179.175.156.196.575.966.773 1.154.233.275.287.177.096.036M165.21 587.23l-.91.187-.635.106-.463.008-.579-.075-.575-.11-.713-.062-1.204-.082-.599-.067-.404-.138-.356-.2-.452-.357-.333-.224-.333-.165-.132-.05M179.653 585.811l.034.228M179.373 582.93l.05.79.167 1.656.063.435" clip-path="url(#pfa40ac864d)" style="fill:none;stroke:#000"/><path d="m165.21 587.23 1.586-.327 1.09-.098.474.008.536.082.768.126.685.05.496-.027.44-.066.404-.162.483-.27.381-.24.614-.357.495-.212.555-.153.476-.055.328.02.36.098.77.156.998.15.44.024.713.007 1.351-.173M212.145 567.183l-.178-.565-.167-.358-.392-.541-.614-.754-.472-.491-.218-.302-.46-.683-.265-.35-.332-.467M210.735 547.136l-10.232.347-.317.007-.28-.047-.156-.106-.067-.247-.027-.275-.088-.75-.051-.208-.107-.212-.285-.184-.234-.051-.317-.008-4.022-.177-.392-.012-.373-.11-.234-.177-.174-.25-.107-.248-.115-.636-.04-.125-.162-.177-.261-.063-.29.023-5.024.962-1.577.205-.785.11-.729.196-.776.055-.935.008-.785-.103-.301-.058-.503-.047-.575-.005-1.24-.086-.701-.035-.702-.004-1.036.024M212.145 567.183l-.139-2.435-.06-1.044-.38-5.983-.364-4.53-.254-3.25-.079-1.068-.134-1.737" clip-path="url(#pfa40ac864d)" style="fill:none;stroke:#000"/><path d="m209.903 532.459.087 1.306.332 5.567.262 5.858.15 1.946M227.136 544.832l-.358-.027-.305-.016-.452.028-.685.125-.785.15-1.755.282-2.643.428-1.597.267-.491.11-.464.106-.404.122-1.308.498-.388.114-.329.051-.349.032-.31.013-3.778.021M195.566 535.846l-.206-.463-.154-.314-.202-.264-.258-.086-1.502-.13-.38-.047-.612-.05M197.829 525.917l-.13.082-.233.063-.283.031-1.228.04-.864.09-.59.087-2.216.302-.265.04-.218.078-.166.204-.076.173-.027.22.305 2.563.115 1.7.047.432.15 1.044.06.719.042.706" clip-path="url(#pfa40ac864d)" style="fill:none;stroke:#000"/><path d="m184.931 534.287.888.868.674.624.245.184.242.06.33.004.351-.036.726-.184.261-.06.254-.054.685-.047 1.775-.099.464-.004.214-.066.143-.099.05-.113.025-.196-.008-.271.002-.307M206.003 521.861l-7.211 1.516-.515.18-.21.146-.072.09-.027.122-.012.133-.04 1.606-.016.167-.071.096M209.903 532.459l-8.75 1-2.06.283-.216.023-.145-.016-.11-.064-.038-.185-.016-.288.002-.224-.741-7.071M209.213 521.208l-3.21.653M209.575 527.232l-.346-5.779-.016-.245M208.515 511.166l.028.264.044.432.047.42.579 8.926M206.003 521.861l.048 2.45.178 3.137.062.197.055.11.105.111.168.053 2.956-.687M209.786 530.7l-.026-.397-.185-3.071M206.003 521.861l-.356-10.778M205.647 511.083l.221.002M174.29 512.157l.53-.04 1.75-.22 1.245-.228 1.561-.25 3.178-.338 2.116-.087 3.36-.047 4.557-.117h1.355l1.696.007 1.997.118 1.767.126 1.133.082.829-.004.89-.008 3.155-.07.238.002M213.797 592.368l-.44-6.611-.102-1.402-.096-1.79-.032-1.052-.142-2.639-.483-6.58-.198-2.543-.16-2.568M205.868 511.085l1.269.011 1.046.079.332-.009M223.763 510.469l-1.791.172-4.248.212-5.635.157-1.585.016-1.339.125-.65.015M243.432 579.754l-.169-.112-.16-.034-.159.016-.192.033-.319.077-4.92.876-1.027.133-.99.157-3.365.62-2.809.538M230.41 600.248l.01-.582-.005-.53-.055-.624-.048-.393-.305-5.877-.352-4.33-.14-2.128-.086-2.131-.107-1.595M229.236 578.935l.026.419-.004.698.039 1.657.025.35M230.41 600.248l.086.046M225.308 600.021l2.2-.088 1.374.012.729.063.36.067.334.117.104.056M227.633 555.214l-.035-.174-.051-.275-.012-.24-.27-3.988-.13-5.705M237.602 544.528l-.248.21-.254.185-.27.168-.48.17-1.925.321-.526.094-.345.016-.254-.035-.19-.059-.349-.023-2.14-.087-.752-.082-.694-.126-.665-.153-.714-.192-.495-.09-.165-.013M253.59 604.242l-.161.021-1.161.177-1.855.31-.927.126-.637.086-.634.028-.662-.004-.722-.083-1.117-.267M230.496 600.294l.177.094 1.612.939.952.459.887.334.907.239.948.212.586.102.686.04.86.004 1.157.03.748.091.551.094.733.256.872.31.658.325.63.205 2.254.608" clip-path="url(#pfa40ac864d)" style="fill:none;stroke:#000"/><path d="m243.432 579.754.46 4.208.578 5.819.586 6.454.587 7.24.071 1.161M214.792 606.537l-.365-4.696-.114-1.718M213.797 592.368l.115 1.739.4 6.016M220.142 599.992l-.366-.02-1.018.004-4.445.147M232.607 536.868l-.322-5.926M241.157 536.39l-1.501-.152-1.399-.196-1.232-.082-.646.024-.57.058-.492.11-2.033.558-.677.158M215.957 532.784l.127 2.222.174 1.86.063.26.08.275.162.184.238.07.499.032 5.963.2 2.928.008.488.04.73.003.784-.055.337-.066.518-.106 1.253-.303 2.306-.54M236.145 530.389l-.23.078-.275.063-.317.057-.75.088-2.288.267M215.957 532.784l7.655-.864 5.417-.612 3.256-.366" clip-path="url(#pfa40ac864d)" style="fill:none;stroke:#000"/><path d="m209.786 530.7 5.478-.343.1-.01.173-.003.149.02.061.066.043.179.032.247.135 1.928M241.405 540.355l-.097-.399-.04-.334-.099-1.378.02-1.008-.032-.846M240.906 532.449l.153 1.983.067 1.1.031.858M209.786 530.7l.117 1.759M255.793 539.094l9.08-.889 1.204-.133.226-.027.238.039.194.082.087.161.063.251.052.37.051.192M267.182 543.31l-.31-3.56.017-.173.02-.133.02-.13.059-.174M241.815 546.43l-.206-3.305-.204-2.77M237.602 544.528l.057-.049.257-.314.345-.542.29-.455.356-.499.317-.396.448-.507.526-.51.603-.514.345-.252.259-.135M253.895 539.3l-.387.043-5.79.405-1.457.11-1.165.067-1.284.118-1.755.228-.301.023-.19.027-.161.034M240.906 532.449l-.137-1.778-.083-.278-.119-.161-.127-.09-.182-.04-.265-.016-3.29.377-.292-.003-.266-.071M253.19 508.383l.35 3.661.36 3.575 1.015 9.195.174 1.704.175 1.476M255.793 539.094l-.11-3.232-.13-2.01-.024-.68.004-.781-.016-.455-.174-2.285-.08-1.657" clip-path="url(#pfa40ac864d)" style="fill:none;stroke:#000"/><path d="m240.906 532.449 4.424-.329.206-.035.222-.043.17-.067.123-.165.028-.17.087-.254.091-.267.174-.255.353-.26 1.375-.757.654-.392.848-.64.475-.338.29-.212.455-.177.67-.165.816-.22.242-.047.178-.008.274.032 1.236.4.251.086.147.042.17.007.163-.02.129-.074.107-.127M253.19 508.383l-5.546.321M258.891 507.968l-4.016.317-1.685.098M255.793 539.094l-1.898.206M267.506 545.966l-.324-2.657M268.154 553.647l-.015-.177-.557-6.45-.076-1.054M269.58 567.595l.134.13.182.05.163-.003.253-.051.516-.165.36-.18.218-.162.195-.247M260.763 591.34l5.064.14.682.02 1.196.032M270.024 574.105l-1.114.07-.483.051-.274.067-.225.192-.21.255-.254.405-1.216 2.524-.813 1.575-.67 1.413-.364.754-.274.628-.372 1.075-.753 2.223-.654 1.778-.214.487-.198.455-.673 1.951-.5 1.331M269.58 567.595l.253 3.357.19 3.153" clip-path="url(#pfa40ac864d)" style="fill:none;stroke:#000"/><path d="m268.154 553.647.035.404.277 3.556.559 4.311.555 5.677M254.368 544.484l6.356-.614 4.287-.411 2.171-.15M253.895 539.3l.445 4.449.028.735M255.39 554.891l-.356-4.055-.547-4.814-.067-.707-.052-.831M179.13 579.081l.243 3.849M192.723 584.181l-.374-1.451-.42-1.779-.531-1.904-.337-1.016-.067-.146-.17-.145-.238-.036-.361.055-1.938.334-.289.027-.23.016-.2-.011-.283-.044-.503-.02-.797.071-1.374.063-1.264.145-1.796.22-.855.173-1.134.247-.432.101M192.723 584.181l.596 2.321.163.633.178.761.136.708M179.687 586.04l.442.2.313.133.297.149.567.243 2.528 1.312 2.108.966.333.117.34.087.515.066.757.012.769-.043.535-.122.44-.145.412-.09.515-.051 1.446-.122 1.637-.138.155-.01M213.797 592.368l-1.347-.57-.67-.259-.226-.098-.352-.117-.587-.185-1.077-.4-1.086-.487-3.622-1.916-.824-.451-.356-.13-.436-.11h-.623l-.899.078-2.853.287-1.264.184-1.149.173-1.26.142-1.37.095M220.142 599.992l.918.05 1.193.036 2.318-.027.737-.03" clip-path="url(#pfa40ac864d)" style="fill:none;stroke:#000"/><path d="m229.236 578.935-4.768.375-.175.044-.138.07-.119.118-.027.141.027.153.321 4.268.245 2.473.12 1.555.11 1.766.024 1.037.182 2.968.27 6.118M227.633 555.214l.029.14.043.38-.016.578.04.507.033.325.09.876.06 1.33.269 5.01.087 2.002.06 1.21.095 1.205.26 2.658.413 5.696.064.955.055.525.02.324M241.815 546.43l.032.51.365 3.424.19 1.284M243.606 566.178l-.05-.32-.045-.277-.103-.864-.27-3.11-.166-2.935-.23-3.062-.082-1.41-.1-1.159-.158-1.393M227.633 555.214l.79-.205.475-.122.337-.106.325-.161.293-.169.443-.141.456-.09.452-.048.539-.086 2.274-.55.907-.208.639-.102.86-.145 5.979-1.433M243.432 579.754l.406.017.416-.03.257-.139.153-.184.129-.223.036-.227.002-.23-.005-.21-.296-2.524-.095-.93-.08-1.127-.392-4.33-.016-.891-.083-.844-.084-.777-.174-.927" clip-path="url(#pfa40ac864d)" style="fill:none;stroke:#000"/><path d="m255.39 554.891.139 1.197.295 3.131.172 1.574v.06l-.014.05-.029.03-.036.026-.037.01-.415.025-.067.016-.051.019-.03.023-.028.027-.01.043.008.223.012.2.003.34-.032.147-.05.156-.114.112-.164.088-.124.042-.49.093-.352.1-.442.11-.297.069-.28.03-.328-.011-.37-.01-.34.028-.35.041-1.072.2-.4.09-.296.056-.36.04-.363.027-.525-.022-.443-.014-.189.027-.198.071-.208.124-.739.526-.303.251-.26.234-.202.192-.184.218-.485.67-.16.201-.128.09-.15.072-.188.033-.179-.018-.195-.003-.165.02-.18.046-.196.069-.195.098M220.608 606.673l.135 2.337.206 2.834.198 3.141.341 5.386.084.97.02.369-.017.245-.027.332.024.765.117 1.92M220.608 606.673l-.03-.545-.124-1.711-.312-4.425M172.474 476.649l-.012-.2M172.644 482.244l.024-.381.008-.664-.163-3.51-.04-1.04M183.469 475.404l-.135.193-.253.094-.298.028-5.65.412-4.66.518M182.692 464.443l.765 7.809M180.717 432.402l.09 2.206.031.758.04.592.226 2.564.166 2.816.056.706.107.62.102.711.107.664.072.78.246 3.802.356 6.026.091 1.445.028 1.295-.02.475-.011.542.027 1.276.103 2.042.032.51.154 1.351.044.35-.016.298-.056.212M171.903 465.452l.357-.145.598-.083 2.223-.165 6.768-.36.332-.005.266-.074.245-.177M172.644 482.244l3.133-.153" clip-path="url(#pfa40ac864d)" style="fill:none;stroke:#000"/><path d="m172.117 488.851-.004-.424-.063-.785-.112-2.83-.015-.362.015-.235.048-.224.111-.303.35-1.087.096-.177.101-.18M306.082 380.606l1.47.912 6.814 4.554 1.142 1.163 1.759 2.332.44.413M171.903 465.452l.035 3.027M180.717 432.402l-.237.072-.288.138-.29.115-.512.291-.347.216-.355.257-.346.271-.34.361-.264.322-.492.711-.71.944-.201.253-.246.3-.196.18-.329.233-.414.36-.21.244-.137.213-.158.294-.15.373-.206.573-.223.503-.205.408-.27.35-.471.443-.496.248-.733.223-.527.102-.705.079-.594-.06-.527-.156-.543-.29-.412-.283-.409-.047-.316.011-.298.103-.261.121-.293.161-.353.146-.543.255-3.182 1.303-.33.11-.173.088-.132.109-.103.126-.098.162-.119.255-.251.299-.177.178-.162.106-.206.114-.258.086-.265.06-.19.066-.157.08-.119.103-.1.178-.094.183-.042.188-.007.25.118.333.234.428.313.346.341.184.376.153.468.114.388.09.496.087.598.039.555-.11.55-.074.646-.083.662-.075.44-.027.535-.031.487-.02.587.055.408.051.582.086.372.075.948.306.16.114.168.194.08.122.075.202.051.26.298 3.878.404 6.321.221 2.521.397 4.429M226.632 495.25l-3.573.519M222.66 488.167l.08 2.372.319 5.23M223.763 510.469l-.214-4.9-.333-7.224-.157-2.576M222.66 488.167l-.439-.27-.289-.16-.583-.35-.304-.251-.234-.228-.219-.255-.475-.652-.364-.503-.393-.526-.241-.235-.286-.2" clip-path="url(#pfa40ac864d)" style="fill:none;stroke:#000"/><path d="m222.122 480.748.074.125.037.165.317 3.91.11 3.22M214.245 477.395l.583.447.368.315.484.475.28.298.259.22.241.326.297.318.273.196.444.137.4.142.246.173.258.137.392.141.194.004 2.476-.11.274-.001.256.033.152.102M227.789 477.175l-.048.299-.135.337-.317.605-.198.353-.34.416-.46.48-.507.384-.65.416-.373.15-.388.102-.492.015-.404-.015-.46-.055h-.34l-.555.086M232.35 509.957l-2.35.166-3.583.306-2.654.04M239.378 504.185l.258-.996.388-.981.674-1.17.562-.73" clip-path="url(#pfa40ac864d)" style="fill:none;stroke:#000"/><path d="m247.644 508.704-.48-4.22-.02-.337-.023-.267-.17-.188-.167-.036-.277.036-.246.039-5.294.322-1.59.132" clip-path="url(#pfa40ac864d)" style="fill:none;stroke:#000"/><path d="m232.35 509.957-.29-4.467v-.169l.02-.149.087-.106.17-.09.234-.035.281-.048 5.104-.589 1.422-.119M258.891 507.968l.77-1.426.136-.22.11-.157.262-.235 2.56-2.984.253-.361.167-.323.205-.235.27-.173.389-.172.523-.213M257.942 622.203l-2.585.328M257.133 614.949l.112.888.198 1.794.4 3.659.099.913M254.724 615.026l.088.972.545 6.533M254.724 615.026l-.253-2.797-.27-2.976-.182-.777-.158-.777-.056-.558-.216-2.9M125.936 515.33l-.04-1.372-.036-.369-.048-.373-.198-2.481-.142-1.178-.04-.604.04-.527.11-.486.088-.644-.016-1.139-.182-1.248-.183-1.217M152.733 457.835l-.078-.108-.053-.096-.084-.177-.05-.1-.094-.157-.109-.159-.051-.132-.037-.205-.038-.287-.048-.237-.093-.203-.143-.196-.24-.281-.223-.24-.177-.162-.142-.085-.16-.049-.189-.002h-.142l-.218.034M156.867 461.5l.141-.018.14.02.086.047.105.193.054.184.491 2.399.491 2.179.123.499.107.26.107.21.23.287.396.33.432.396.809.845" clip-path="url(#pfa40ac864d)" style="fill:none;stroke:#000"/><path d="m157.242 470.964.405-1.158.088-.132.114-.086.142-.053.396-.033.543-.01 1.05-.087.599-.074M163.098 468.993l-.451.024-1.185.231-.883.083M137.224 514.92l-.23-2.748-.356-4.067-.507-5.018-.183-2.607-.032-.597-.055-.486-.095-.644-.127-.77-.119-.565-.087-.534-.11-.833-.207-2.716-.11-1.46-.08-.872-.142-.832-.175-.817-.143-.66-.031-.526-.008-.573-.024-.636-.071-1.123M150.108 501.326l-.378-.398-.198-.126-.286-.078-.452-.048-.776.118-.911.15-.532-.071-.46-.212" clip-path="url(#pfa40ac864d)" style="fill:none;stroke:#000"/><path d="m165.46 493.235-9.953 2.981-.896.33-.562.252-.864.235-1.887.448-.602.153-.328.086-.282.185-.178.216-.076.22.005.337.271 2.648" clip-path="url(#pfa40ac864d)" style="fill:none;stroke:#000"/><path d="m165.895 496.847-.34-2.664-.096-.948M164.17 479.714l.058.516.329 2.728.273 2.812.301 3.403.119 1.567.178 2.194.031.3M172.117 488.851l.008.248-.012.345-.091 1.943v.644l.02.44.047.456.135.679.15.57.222.545.297.436M174.29 512.157l-.001-.346.011-.285.04-.233.095-.397.028-.231.02-.148-.007-.163-.04-.551-.184-3.763-.21-4.492-.142-2.242-.266-2.618-.09-.515-.23-.455-.258-.396-.163-.165" clip-path="url(#pfa40ac864d)" style="fill:none;stroke:#000"/><path d="m165.895 496.847 2.268-.379.602-.079h.515l.737-.03.808-.15.428-.189.34-.196 1.3-.667" clip-path="url(#pfa40ac864d)" style="fill:none;stroke:#000"/><path d="m171.871 512.318-.087-2.046-.202-1.924-.087-.33-.107-.223-.127-.197-.535-.694-1.204-1.709-.223-.396-.293-.51-.28-.425-.845-1.15-1.414-1.987-.214-.286-.064-.204-.031-.228-.155-2.312-.108-.85M171.938 468.479l.218 2.909.159 2.925.147 2.136M164.17 479.714l.799-.513 1.3-.7 1.703-.933.975-.393 1.609-.432.896-.212 1.01-.082" clip-path="url(#pfa40ac864d)" style="fill:none;stroke:#000"/><path d="m163.098 468.993.032.588.024.567.063.738.143 1.994.491 3.973.32 2.861M171.938 468.479l-7.754.428-1.086.086M182.302 349.498l-5.541 9.75.38 10.805 1.205 21.862.507 5.779.475 13.632.54 5.59.316 3.958.373 7.735.146 3.33.014.463M175.76 488.47l.017-6.379M176.848 489.42l-.15-.251-.38-.435-.282-.2-.277-.064M172.117 488.851l3.122-.412.452.016.068.015M179.63 483.17l-.15-.707-.112-.215-.138-.103-.195-.043-1.814.122-.175-.012-.09-.047-.06-.047-.1-.02-.202-.015-.817.008M185.676 474.058l-.547.243-.46.29-.538.393-.662.42" clip-path="url(#pfa40ac864d)" style="fill:none;stroke:#000"/><path d="m183.457 472.252.088 2.3.007.26v.318l-.083.274M183.457 472.252l.067-.236.112-.153.15-.098.23-.055 5.34-.27.283-.009.198-.063.164-.111.16-.128.124-.173.467-.46.408-.337.368-.274.377-.22.551-.354.447-.33.437-.53.26-.455.239-.593.186-.534.107-.133.142-.122.12-.06.229-.117.222-.082.25-.075.368-.157.357-.22.325-.302.325-.357.455-.585.476-.617.186-.227.214-.079.852-.067h.297l.254.067.896.334 2.543.973.155.075.129.128.071.188.028.17.002.197.184 2.91.113 1.762.107 2.242.186 3.011.253 3.083.226 3.156.567 7.813.309 4.609.253 4.381.25 4.626.392 7.69M165.21 587.23l-.09-3.982v-.558l-.04-.518-.175-.879-.127-.856-.011-.26-.503-3.51M268.154 553.647l-12.764 1.244M257.133 614.949l-2.409.077M109.514 470.99l.072.626.132 1.468.221 2.63.13 1.598.219 2.27.146 1.272.147 1.593M111.064 486.263l-.047-.533-.127-.805-.214-1.44-.095-1.038M109.514 470.99l-.153-1.318-.282-2.544-.186-1.558M111.064 486.263l.052.586.19 1.512.072.6.095.648.095.777.17 1.437.183 1.527.17 1.83.246 2.615.237 2.473.052.625.071.655.178 1.366.325 2.772.278 2.517.17 2.026.227 2.207M111.064 486.263l.38-.128.429-.157.246-.064.317-.046h.42l.467.062.975.15.523.007 1.744-.008M156.867 461.5l-.338.089-1.474.321-.27-.078-.277-.142-.69-.455-.3-.235-.15-.33-.215-.95-.222-.99-.135-.514-.063-.38" clip-path="url(#pfa40ac864d)" style="fill:none;stroke:#000"/><path d="m156.867 461.5-.893-.987-.499-.612-.586-.582-.484-.447-.372-.232-.266-.133-.416-.13-.23-.142-.194-.14-.194-.26M214.792 606.537l1.953-.103.274.008.4.04.491.09.325.055.273.055.833.035 1.267-.044M241.815 546.43l-.586-.172-.372-.048-.484.048-.579.101-.412.071-.14.026-.145-.018-.091-.06-.067-.097-.072-.306-.063-.314-.15-.322-.357-.432-.318-.141-.377-.238M179.373 582.93l1.033-.043h.365l.34.004.472.055.337.106.721.125.5.051.34.067.349.098.329.157.376.103.428.078 1.862.063.904-.028h.328l.19.008.239.066.372.138.915.322.559.086.566.02.964-.055.86-.17M158.656 540.713l-.114-.76-.056-.542-.15-1.932-.19-1.932-.08-1.06M176.036 535.282l3.45-.158.211.05.143.087.127.196.102.322.203.534.071.255.028.275.031.487.012.22.064.196.114.235.12.114.186.067.487.075 1.264.157M174.888 524.158l.035.452.23 1.672.19 1.288.213 1.539.15 2.638.2 1.649.13 1.886M174.888 524.158l2.547-.028 2.266-.007 1.498.016.467-.032.515-.07 1.87-.409M174.355 561.998l-.003-2.156.071-1.885.024-.935.055-.58.12-1.17.19-1.186.26-1.13.223-.725M117.984 568.63l-5.533.013-.578-.055-.365-.07-.349-.118-.404-.134M550.146 295.01l.412 7.068.666 6.533.38 6.848.729 9.455M517.655 283.486l.824-1.323v-5.78l-.507-6.407 1.109-1.634 2.378-2.166 4.691-2.23 1.807-1.194 3.582-1.508.697-.597 1.458-1.602 2.092-2.764.951-.66 1.553-.785.381-.345.507-.754.634-1.508 1.236-4.083 3.36-5.246 2.06-4.052.476-1.257.634-2.67.412-.942.19-.22 1.078-.69 1.364-.535 2.282.252 4.026-.063" clip-path="url(#pfa40ac864d)" style="fill:none;stroke:#000"/><path d="m554.837 293.22-.126-3.078-.634-4.712-1.015-4.523-.475-1.665-.19-1.225-.032-3.864-.476-6.69.508-2.167.063-1.98-.57-4.93.158-2.482.444-.754 1.331-.565.697-.534 1.87-2.388.761-5.245-.253-3.393-.064-6.344v-3.016l.096-.942M517.655 283.486l6.846.594 1.205.377 1.87 1.727 1.902 1.225 1.807 1.508 1.966 1.382 2.091 1.916 1.11.66 1.838.66 1.776 1.381.729.409 1.553.47 3.138.378 4.66-1.163M554.837 293.22l-.475.283-2.663.753-1.553.754M517.655 283.486l-3.875 1.858-3.321.777-2.44 1.068-5.96 2.199-1.585.377-2.314.031-7.195-.031-1.078-.251-1.458-.66-2.917-1.916-4.057-1.382-3.424-1.634-1.077-.25-1.205-.127-4.311.063-1.046-.188-2.028-.848-1.585-.88-4.565-1.602-2.124-.062-1.997-.597-6.34-1.288-3.01-.251-4.249.188-3.138 1.382-2.44.817-3.55-.251-4.534.816h-2.187l-3.614-.816-1.172-.032M345.84 310.823l.805-.585.79-.63M334.499 310.514l.071-.35.197-.211.263-.11.335-.063 4.963.72 1.965.062 3.548.26M341.845 313.752l.663-.41.785-.054.593-.056.507-.168.721-.413.262-.196.226-.29.178-.774.06-.568M332.752 333.238l2.346-.343 9.523-1.551.83-.155.65.025.924.064.924-.096 1.821-.41 3.67-.765M332.752 333.238l-2.377.316M332.752 333.238l.356 7.787M333.108 341.025l2.434-.183M333.108 341.025l-3.811.288M330.375 333.554l-1.078 7.76M334.499 310.514l-.836 5.372-.555 2.529-.623 2.558-.216 1.847-.167.903-.388 1.696-.373 2.372-.364 1.382-.183 1.39-.42 2.991M329.297 341.313l-.853.617M182.302 349.498l-14.86-5.515-.064-4.335-6.847-1.822h-3.677l-13.821-3.957-3.93 1.633-6.848-.817-.063-7.978 2.156-6.03-.128-2.765 3.551-2.952-.38-2.514-1.332-3.015-1.648-3.518v-3.455l-3.867-6.157-.825-8.92 1.776-8.104.507-5.215 1.284-3.628-.127-.785-1.966-1.319-1.3-.927-.237-1.24.618-.503.983-.707.345-.862M306.082 380.606l-8.453-5.244-9.573-6.314-2.155-1.193-11.031-3.738-2.124-1.76-6.625-.753-6.404-2.639-4.279-2.512-7.671-4.492-3.297-1.068-2.41-1.822-2.091-.377-2.6-1.884-6.973-2.01-25.36-12.313-14.2 5.78-4.693 4.145-2.408 1.508-.761 4.397-.672 1.181M318.075 373.131l-1.98.252-3.112 1.344M306.082 380.606l5.907-6.155.994.276M139.864 160.233l.448-1.914-.628-2.024-1.235-.913-.067-.756.673-2.114 3.525-3.938 4.805-3.293.943-2.024 2.671-1.002 1.774-2.981 2.852-1.313.112-.534-.988-3.515 2.754-8.367M337.196 311.708l-.387-.347-.218-.192-.306-.137-.649-.238-1.137-.28M103.254 279.543l2.589-1.719.353-.218" clip-path="url(#pfa40ac864d)" style="fill:none;stroke:#000"/><path d="m104.485 275.35.447.87 1.264 1.386M104.485 275.35l.16-1.884M104.485 275.35l-1.435 2.292M103.05 277.642l.204 1.901" clip-path="url(#pfa40ac864d)" style="fill:none;stroke:#000"/></g><g id="PatchCollection_1"><path d="m268.435 599.06-.412.306.017.408.412.101.307-.069.053-.321-.103-.289zM268.623 602.542l.446 1.07-.155.306.497.68-.325.067-.737.018-.052-.85-.17-.747-.018-.493.24-.085z" clip-path="url(#pfa40ac864d)" style="fill:#00f;fill-opacity:.8"/></g><g id="PatchCollection_2"><path d="m361.76 384.235-.839-.293-.714 1.586-.025 1.246-.148 1.074-.073.708-1.011 1.343-1.897.732-.271.928-.887.488-.246 1.417 1.133.61 2.34.659 1.134-4.248 1.897.537.148-.61-.887-.684.592-2.613.098-.878 2.636.244.025-.586-3.055-.391zM361.685 383.331l-.911-.293.32-1.318-.788-.147-.469.464-.986.122.099-.757.863-.635.344-1.196-.517-2.515 1.355-.61.394-2.1.518-3.296.96-1.929.543.22-.025.708.444.635-.074.44-.936.146-.592 3.98-.468 2.417 1.084.927.025.587-.961-.074-.045 1.442z" clip-path="url(#pfa40ac864d)" style="fill:#006400;fill-opacity:.8"/></g><path id="PatchCollection_3" d="m353.764 377.921-.76 2.93 1.759.51.769-3.102z" clip-path="url(#pfa40ac864d)" style="fill:green;fill-opacity:.8"/><g id="PatchCollection_4"><path d="m358.858 361.284.162-4.681 3.597.122-.162 4.682zM634.202 188.873l.206 1.289.27.785.895-.07-.365-2.176-1.14-5.152.118-.047-.142-.675-.484.04.092.78-.187.044z" clip-path="url(#pfa40ac864d)" style="fill:#90ee90;fill-opacity:.8"/></g><path id="PatchCollection_5" d="m346.143 387.362-1.932-.628.34-1.029 1.933.629z" clip-path="url(#pfa40ac864d)" style="fill:#006400;fill-opacity:.8"/><g id="PatchCollection_6"><path d="m352.433 384.853.313.124-.135.334-.312-.124zM346.143 387.362l-1.932-.628.34-1.029 1.933.629zM342.052 365.71l-.06-1.719.657-.022.06 1.72zM355.349 370.831l.193-1.425.54.072-.084.621 1.116.149-.109.803zM342.51 366.775l-.121-.224-.052-.29.02-.279.118-.2.328.193-.114.286.126.311zM274.312 624.79l.384-.013.022.57-.385.015zM273.303 624.845l.385-.015.021.571-.385.014zM277.302 624.333l.386-.014.02.57-.384.015zM274.804 624.619l.385-.014.022.57-.385.015zM273.795 624.964l.385-.014.022.57-.385.015zM252.335 623.51l.384-.013.022.57-.385.015zM254.284 622.477l.385-.014.022.57-.386.015zM257.08 623.882l.385-.015.022.57-.386.015zM259.555 622.293l.385-.014.021.57-.385.015zM251.946 604.982l.385-.015.021.571-.384.014zM252.632 604.828l.384-.014.022.571-.385.014zM254.175 604.744l.384-.015.022.571-.385.014zM252.837 606.204l.385-.014.022.57-.385.015zM253.06 607.291l.385-.014.022.571-.386.014zM253.3 608.395l.385-.014.022.57-.385.015zM253.18 610.382l.385-.014.022.571-.385.014zM250.163 605.338l.385-.014.021.57-.384.015zM247.952 606.017l.384-.014.022.571-.385.014zM249.203 604.064l.385-.014.022.571-.385.014zM248.243 603.929l.385-.015.022.571-.385.014zM247.712 603.98l.385-.015.021.571-.385.014zM246.974 604.217l.386-.014.02.57-.384.015zM251.62 603.47l.385-.014.022.57-.385.015zM245.5 606.918l.385-.015.022.571-.385.015zM244.352 609.67l.385-.015.021.57-.385.015zM244.849 605.423l.385-.014.021.57-.384.015zM244.095 606.391l.385-.014.021.57-.385.015zM243.1 605.355l.385-.014.022.57-.385.015zM241.952 604.353l.385-.014.021.57-.385.015zM243.529 607.07l.385-.014.021.571-.384.014zM251.226 605.1l.385-.014.022.57-.386.015zM252.923 611.08l.385-.016.022.571-.386.015zM255.169 602.977l.384-.014.022.57-.385.015zM259.197 600.548l.385-.014.021.571-.384.014zM260.654 599.937l.385-.014.022.57-.385.015zM263.106 602.536l.384-.014.022.57-.385.015zM263.003 604.71l.385-.014.021.57-.385.015zM261.174 604.843l1.168-.066.02.339-1.168.065zM259.197 601.296l.385-.014.021.57-.384.015zM259.283 602.366l.385-.015.021.571-.385.014zM258.58 596.098l.385-.014.021.571-.384.014zM260.311 595.283l.385-.014.022.57-.385.015zM258.768 597.984l.386-.014.021.57-.385.015zM258.768 597.27l.386-.014.021.57-.385.016zM260.774 598.68l.385-.014.022.57-.385.015zM253.66 595.368l.385-.014.022.57-.385.015zM250.832 599.41l.385-.014.021.571-.385.014zM266.106 602.62l.384-.014.022.57-.385.016zM256.603 602.769l.384-.015.022.571-.384.014zM267.317 591.776l.385-.014.022.571-.385.014zM264.511 591.85l.385-.014.022.57-.385.015zM267.078 590.298l.385-.015.022.571-.385.015zM272.048 589.455l.385-.014.022.57-.386.015zM260.9 588.272l.385-.015.021.571-.384.014zM261.662 586.394l.384-.014.021.57-.384.015zM263.333 586.113l.384-.014.022.57-.385.015zM261.527 591.968l.385-.014.021.571-.384.014zM262.05 592.782l.384-.015.022.571-.385.014zM260.393 590.017l.385-.015.021.571-.385.014zM260.035 590.741l.384-.014.022.57-.385.015zM260.646 589.174l.386-.014.02.57-.384.015zM268.942 575.558l.385-.015.022.571-.385.014zM245.8 578.819l.385-.015.022.57-.386.015zM251.046 579.872l.384-.015.022.57-.385.016zM244.806 580.415l.384-.014.022.57-.384.015zM244.292 581.944l.384-.015.022.571-.385.014zM244.429 583.2l.384-.014.022.571-.385.014zM239.012 581.06l.384-.014.022.57-.385.016zM237.263 581.434l.385-.014.022.57-.385.015zM236.063 579.804l.385-.015.022.57-.385.016zM234.315 580.11l.384-.015.022.571-.384.014zM236.372 578.173l.384-.014.022.57-.385.015zM238.875 579.328l.384-.014.022.57-.385.015zM231.058 578.717l.384-.015.022.571-.385.014zM227.869 585.646l.385-.014.022.57-.385.015zM222.898 582.487l.385-.014.021.57-.385.015zM214.566 583.642l.386-.014.02.57-.384.015zM214.087 581.808l.384-.015.022.571-.385.014zM213.95 579.872l.384-.015.022.57-.385.016zM214.395 578.785l.385-.015.022.571-.385.014zM213.435 578.343l.385-.014.022.57-.385.015zM210.59 580.483l.384-.014.022.57-.385.015zM214.875 586.87l.385-.015.021.57-.384.015zM212.784 589.994l.385-.014.021.57-.385.015zM214.6 592.033l.386-.015.021.57-.385.016zM214.978 594.41l.385-.014.022.57-.386.015zM212.852 593.629l.385-.014.022.57-.385.015zM211.206 594.716l.386-.014.02.57-.384.015zM213.504 600.797l.385-.015.021.571-.385.014zM217.892 599.03l.385-.014.022.57-.385.015zM221.15 598.86l.384-.014.022.57-.385.015zM224.098 598.996l.384-.014.022.57-.384.015zM225.538 598.827l.384-.015.022.571-.385.014zM226.463 598.827l.385-.015.022.571-.385.014zM228.76 598.996l.385-.014.022.57-.385.015zM227.732 600.898l.385-.014.021.57-.384.015zM228.59 603.14l.384-.014.021.57-.384.015zM226.463 601.51l.385-.014.022.57-.385.015zM227.012 601.102l.385-.014.022.57-.386.015zM219.263 598.35l.385-.013.022.57-.385.015zM201.847 588.873l.385-.014.021.57-.385.015zM203.527 590.572l.385-.014.021.57-.385.015zM197.595 588.772l.386-.015.02.571-.384.014zM194.887 589.825l.385-.015.022.571-.386.014zM194.133 591.251l.385-.014.021.57-.385.015zM188.304 588.432l.385-.014.022.57-.385.015zM190.842 587.616l.384-.014.022.571-.385.014zM194.098 586.495l.386-.014.02.571-.384.014zM193.653 584.593l.384-.014.022.57-.384.015zM190.533 583.099l.385-.014.021.57-.384.015zM184.567 587.277l.385-.015.022.571-.385.015zM187.344 588.194l.385-.014.022.57-.385.015zM180.865 585.17l.384-.014.022.571-.385.014zM177.95 584.628l.385-.015.022.57-.385.015zM182.648 582.08l.384-.015.022.571-.385.014zM183.916 582.215l.385-.014.021.571-.384.014zM181.79 582.046l.385-.014.022.57-.385.015zM179.973 582.012l.385-.015.022.571-.385.014zM172.156 584.797l.385-.014.021.57-.384.015zM191.322 577.12l.384-.014.022.57-.385.015zM194.407 578.92l.385-.014.021.571-.384.014zM179.253 575.66l.385-.015.022.57-.385.015zM184.053 591.625l.385-.014.021.57-.384.015zM213.847 586.054l.384-.014.022.57-.385.015zM230.235 570.224l.385-.014.02.57-.384.015zM229.446 569.375l.385-.014.022.57-.385.015zM223.584 564.178l.384-.014.022.57-.385.015zM225.846 564.755l.385-.014.022.57-.385.015zM226.532 561.698l.385-.014.021.57-.384.015zM223.447 561.46l.384-.014.022.57-.385.015zM229.892 559.694l.385-.015.021.571-.384.015zM218.167 560.883l.384-.015.022.57-.385.016zM212.715 566.216l.385-.014.022.57-.385.015zM213.161 568.696l.385-.015.021.571-.385.015zM213.435 572.84l.385-.014.022.57-.385.015zM209.15 561.732l.385-.014.021.57-.385.015zM208.944 557.112l.384-.015.022.571-.384.015zM212.338 557.214l.385-.014.022.57-.385.015zM212.235 558.81l.385-.014.022.571-.385.014zM211.55 548.517l.384-.014.022.571-.385.014zM209.733 548.212l.384-.014.022.57-.385.015zM211.687 549.4l.384-.013.022.57-.385.015zM215.424 551.235l.384-.014.022.57-.385.015zM220.806 551.779l.385-.015.022.571-.385.014zM221.012 548.857l.385-.014.022.57-.385.015zM214.91 548.008l.384-.014.022.57-.385.015zM217.79 545.12l.384-.013.022.57-.385.015zM211.961 546.174l.385-.014.022.57-.386.015zM211.447 544.917l.385-.014.02.57-.384.015zM209.424 544.441l.385-.014.021.57-.385.015zM209.287 545.664l.385-.014.021.57-.385.015zM215.904 547.703l.384-.015.022.57-.385.015zM210.144 550.42l.385-.014.021.57-.385.015zM209.835 552.798l.385-.014.022.57-.385.015zM197.87 546.343l.385-.014.022.571-.386.014zM197.355 550.25l.386-.014.02.57-.384.015zM196.053 549.91l.385-.014.021.57-.385.015zM195.024 552.186l.385-.014.022.571-.385.014zM197.081 548.28l.385-.014.022.57-.385.015zM191.356 544.713l.385-.014.021.57-.385.015zM185.493 545.494l.385-.014.021.57-.384.015zM182.648 546.343l.384-.014.022.571-.385.014zM184.156 546.785l.385-.014.021.57-.385.015zM181.31 543.592l.385-.014.022.57-.385.015zM184.979 543.762l.384-.014.022.57-.384.015zM186.693 543.524l.385-.014.022.57-.385.015zM187.139 542.233l.385-.014.021.57-.385.015zM188.064 543.184l.385-.014.022.571-.385.014zM191.63 541.418l.385-.015.022.571-.385.015zM198.213 542.301l.384-.014.022.57-.385.015zM181.139 540.807l.385-.015.022.571-.386.014zM177.95 539.482l.385-.014.022.57-.385.015zM182.236 538.7l.385-.014.021.57-.384.015zM181.036 534.488l.385-.014.022.57-.386.015zM182.27 536.492l.385-.014.022.571-.385.014zM179.048 535.78l.384-.015.022.57-.385.015zM178.122 535.88l.384-.013.022.57-.384.015zM177.162 536.323l.385-.015.021.57-.385.016zM176.853 538.123l.385-.015.022.571-.385.014zM176.785 539.244l.385-.015.021.571-.385.014zM175.002 536.968l.385-.014.021.57-.384.015zM174.933 535.54l.385-.013.022.57-.385.015zM174.728 533.367l.384-.014.022.57-.385.015zM174.008 539.89l.385-.015.021.57-.385.015zM175.31 540.161l.385-.014.022.57-.385.015zM169.996 540.365l.385-.015.022.571-.385.014zM171.95 539.991l.386-.014.02.57-.384.015zM183.436 543.66l.385-.014.021.57-.384.015zM187.207 545.46l.385-.014.022.57-.385.015zM191.973 540.399l.384-.014.022.57-.384.015zM195.95 535.813l.385-.014.021.57-.385.015zM192.693 535.813l.385-.014.021.57-.385.015zM184.328 534.454l.384-.014.022.57-.385.015zM207.778 535.643l.385-.014.021.57-.384.015zM206.578 535.677l.385-.014.022.57-.385.015zM205.79 534.182l.385-.014.021.571-.385.014zM203.767 542.573l.384-.014.022.57-.384.015zM210.966 543.524l.386-.014.021.57-.385.015zM210.864 542.64l.385-.013.021.57-.384.015zM211 539.855l.386-.014.021.57-.384.015zM211.515 541.18l.385-.014.021.57-.384.015zM217.275 539.822l.385-.015.022.57-.385.015zM218.99 539.72l.384-.015.022.57-.385.015zM221.218 541.01l.385-.014.021.571-.384.014zM221.355 539.04l.385-.014.021.57-.384.015zM222.11 539.108l.384-.014.022.57-.385.015zM223.55 540.535l.384-.014.022.57-.385.015zM223.069 544.51l.385-.015.022.57-.385.015zM222.898 546.343l.385-.014.021.571-.385.014zM213.915 543.116l.385-.014.022.571-.385.014zM210.727 536.526l.384-.014.022.57-.385.015zM210.624 535.473l.384-.014.022.57-.384.015zM210.898 534.182l.385-.014.021.571-.384.014zM211 538.055l.386-.014.021.57-.384.015zM213.127 539.957l.385-.014.02.57-.384.015zM212.27 551.677l.384-.014.022.57-.385.015zM211.858 553.41l.385-.015.022.57-.386.015zM225.88 549.639l.385-.015.022.571-.385.014zM228.177 553.171l.386-.014.021.571-.385.014zM225.572 552.934l.385-.014.022.57-.386.015zM228.177 551.167l.386-.014.021.57-.385.015zM227.972 545.698l.385-.014.021.57-.384.015zM225.092 545.834l.385-.014.021.57-.384.015zM227.63 548.381l.384-.014.022.571-.385.014zM234.829 547.906l.385-.014.021.57-.384.015zM239.012 547.023l.384-.014.022.57-.385.015zM240.006 542.335l.385-.014.021.57-.384.015zM239.937 543.388l.385-.014.022.57-.385.015zM224.132 543.32l.385-.014.022.571-.385.014zM216.761 536.764l.385-.014.022.57-.386.015zM211.07 532.654l.385-.014.02.57-.384.015zM211.344 531.193l.385-.014.021.57-.385.015zM206.853 529.699l.384-.015.022.57-.385.015zM206.613 528.441l.384-.014.022.57-.385.015zM208.053 525.214l.384-.014.022.57-.385.015zM204.83 526.539l.385-.014.021.57-.385.015zM199.31 525.078l.385-.014.021.57-.385.015zM193.756 525.078l.385-.014.021.57-.385.015zM194.442 524.297l.384-.014.022.57-.385.015zM198.864 521.206l.385-.015.022.571-.385.015zM200.098 521.817l.385-.014.022.57-.385.015zM212.255 514.84l.984-.002v.62h-.983zM204.523 515.016l.384-.015.022.571-.385.014zM204.105 512.206l.384-.014.022.571-.384.014zM196.942 512.472l.384-.014.022.57-.385.015zM202.672 517.411l.385-.014.021.57-.384.015zM203.806 517.323l.385-.015.022.571-.385.014zM207.985 519.57l.385-.014.021.57-.384.015zM213.835 511.822l.384-.014.022.57-.384.015zM210.522 508.51l.385-.015.021.571-.385.014zM213.984 508.687l.385-.014.022.57-.385.015zM194.942 518.535l.385-.014.022.57-.386.015zM196.643 509.515l.385-.014.022.571-.385.014zM196.374 508.747l.385-.015.022.57-.385.015zM193.45 509.486l.384-.014.022.57-.385.015zM191.24 509.87l.386-.014.021.57-.385.015zM199.598 507.889l.385-.015.021.571-.384.014zM201.717 507.77l.385-.014.021.571-.384.014zM203.389 507.504l.384-.014.022.57-.385.015zM204.374 507.504l.384-.014.022.57-.385.015zM191.33 508.865l.385-.014.022.57-.385.015zM191.39 507.977l.385-.014.022.57-.385.015zM186.525 508.126l.385-.015.022.57-.385.015zM186.645 506.262l.384-.014.022.57-.385.015zM184.853 509.574l.386-.014.021.571-.385.014zM183.242 509.752l.385-.014.022.57-.386.015zM179.272 508.598l.385-.014.022.57-.385.015zM179.541 510.314l.385-.014.022.57-.386.015zM177.303 510.728l.384-.014.022.57-.385.015zM176.168 510.935l.385-.014.022.57-.385.015zM177.78 512.354l.385-.014.022.57-.386.015zM173.214 512.739l.384-.014.022.57-.385.015zM172.348 512.975l.385-.014.021.57-.384.015zM172.885 510.846l.385-.014.022.57-.385.015zM172.676 514.07l.385-.015.021.571-.384.014zM175.362 510.994l.385-.014.022.57-.385.015zM176.915 509.101l.384-.014.022.57-.385.015zM197.867 508.598l.385-.014.021.57-.385.015zM225.499 497.185l.384-.014.022.571-.385.014zM226.174 494.38l.385-.015.022.57-.386.015zM185.866 474.894l.384-.014.022.571-.384.014zM192.38 473.943l.385-.014.021.57-.385.015zM186.688 472.856l.386-.014.02.57-.384.015zM192.894 469.935l.385-.014.022.57-.385.015zM191.454 467.795l.385-.015.021.571-.384.014zM198.517 464.635l.385-.014.021.57-.385.015zM206.437 463.956l.384-.015.022.571-.385.015zM195.603 464.77l.384-.013.022.57-.385.015zM177.717 462.685l.385-.014.02.571-.384.014zM166.769 469.454l.385-.014.021.571-.385.014zM168.398 470.62l.384-.014.022.57-.385.015zM169.89 470.216l.385-.014.022.57-.385.015zM170.795 467.527l.385-.014.022.57-.385.015zM171.293 470.486l.385-.015.021.57-.385.015zM169.483 477.747l.385-.014.022.57-.385.015zM167.945 478.285l.385-.015.022.571-.385.015zM156.137 471.516l.386-.014.021.57-.385.015zM157.676 471.247l.385-.014.021.57-.385.015zM174.143 483.395l.385-.015.021.571-.385.014zM172.47 484.516l.384-.015.022.57-.386.015zM165.412 485.546l.384-.014.022.57-.385.015zM165.91 487.698l.384-.015.022.571-.385.014zM178.847 485.995l.386-.015.021.571-.385.014zM177.852 485.277l.385-.014.022.57-.385.015zM177.174 489.984l.385-.014.021.57-.385.015zM178.486 487.564l.384-.015.022.571-.384.014zM180.024 487.34l.385-.015.021.57-.384.015zM180.884 487.429l.384-.014.022.57-.385.015zM180.657 484.784l.385-.014.022.571-.385.014zM179.888 485.726l.385-.014.022.57-.385.015zM180.612 482.588l.385-.014.021.57-.384.015zM179.843 478.464l.385-.014.022.57-.386.015zM204.318 476.268l.384-.015.021.571-.384.014zM206.896 479.63l.385-.015.021.571-.384.014zM216.804 478.374l.384-.014.021.57-.384.015zM214.994 479.092l.385-.015.021.571-.385.014zM216.487 483.17l.384-.013.022.57-.385.015zM215.627 477.388l.385-.014.022.57-.385.015zM213.953 476.357l.385-.014.022.571-.385.014zM214.27 478.285l.385-.015.021.571-.384.015zM402.46 440.02l.385-.014.022.57-.385.015zM399.894 438.69l.385-.015.021.57-.384.015zM400.371 440.996l.386-.015.02.571-.384.015zM406.913 435.482l.385-.014.022.57-.385.015zM406.913 436.412l.385-.014.022.571-.385.014zM407.244 437.805l.222.004-.004.255-.223-.004zM409.417 437.368l.222.004-.005.255-.222-.004zM409.824 437.536l.222.004-.004.256-.223-.004zM410.005 436.258l.222.004-.005.256-.222-.004zM408.263 439.07l.223.005-.006.256-.222-.004zM408.58 439.295l.222.005-.005.255-.222-.004zM420.147 431.416l.223.004-.005.256-.222-.005zM419.082 430.798l.222.004-.005.256-.222-.004zM419.446 430l.222.004-.005.256-.222-.004zM401.138 424.796l.222.004-.005.256-.222-.005zM391.91 427.755l.222.004-.005.255-.223-.004zM407.85 415.559l.222.004-.005.255-.222-.004zM404.699 414.947l.435.007-.014.792-.434-.006zM398.02 415.2l.436.006-.013.793-.435-.007zM399.763 414.46l.435.006-.013.793-.435-.007zM346.008 392.682l.435.007-.013.792-.435-.007zM345.63 394.084l.41-.02.039.737-.41.021zM342.63 393.068l.436.007-.013.792-.436-.007zM341.175 395.746l.436.007-.013.792-.436-.007zM341.362 394.557l.392-.056.107.723-.393.057zM348.1 393.047l.913-.041.022.491-.912.042zM344 395.612l.435.007-.013.792-.436-.007zM347.462 395.272l.436.007-.013.792-.436-.007zM348.61 389.445l.436.007-.013.793-.435-.007zM348.097 389.344l.435.007-.013.792-.435-.007zM344.776 389.49l.821.29-.145.403-.82-.289zM341.867 389.363l.821.289-.145.404-.821-.29zM340.996 388.66l.669.26-.141.356-.668-.26zM343.89 390.875l.82.289-.144.403-.82-.288z" clip-path="url(#pfa40ac864d)" style="fill:#a9a9a9;fill-opacity:.8"/><path d="m343.72 391.317.718.204-.111.384-.719-.204zM349.417 392.062l.747.045-.022.353-.747-.045zM342.322 384.223l2.05 1.063-.296.56-2.05-1.061zM341.894 385.025l2.05 1.062-.296.561-2.05-1.062zM342.63 383.462l2.051 1.063-.296.56-2.05-1.062zM340.41 386.917l.82.289-.144.404-.82-.289zM340.17 387.511l.821.29-.145.403-.821-.289zM339.656 388.632l.82.29-.144.403-.821-.289zM339.21 389.6l.82.29-.144.403-.82-.288zM339.159 390.331l.82.29-.144.403-.821-.289zM342.107 388.802l.821.29-.145.403-.82-.288zM342.381 388.259l.821.289-.145.404-.82-.289zM341.162 387.948l.657.24-.15.405-.658-.24zM341.42 387.365l.658.24-.151.406-.657-.24zM340.152 390.032l.657.24-.15.405-.658-.24zM340.7 389.166l.658.24-.151.405-.657-.24zM339.93 388.096l.656.24-.15.405-.658-.24zM343.855 388.35l.657.24-.151.406-.657-.24zM342.724 390.865l.657.24-.151.405-.658-.24zM342.45 391.391l.656.24-.15.406-.658-.241zM343.306 389.319l.657.24-.15.405-.657-.24zM342.724 387.807l.657.24-.151.405-.658-.24zM346.186 389.166l.657.24-.15.405-.658-.24zM348.106 390.44l.657.24-.15.405-.657-.24zM344.631 381.918l.31.134-.299.684-.311-.135zM345.094 382.013l.31.135-.3.683-.31-.134zM344.404 382.854l.31.134-.3.684-.31-.135zM344.139 381.905l.321.129-.419 1.03-.321-.127zM343.691 381.89l.311.135-.3.683-.31-.134zM346.1 382.9l.311.133-.3.683-.31-.134zM345.444 382.395l.312.134-.3.683-.311-.134zM342.587 382.429l.76.376-.163.323-.76-.377zM342.867 383.104l1.385.716-.142.27-1.385-.717zM345.438 385.236l-.713-.41-.193.331.713.409zM345.509 385.304l.897.338-.15.393-.898-.338zM342.99 386.802l.362.149-.156.37-.36-.15zM342.504 386.642l.36.148-.155.37-.36-.149zM342.029 386.44l.36.149-.155.37-.36-.15zM341.418 386.137l.36.15-.155.369-.36-.149zM346.01 387.662l.36.148-.155.37-.36-.149zM345.535 387.662l.36.148-.155.37-.36-.149zM343.782 388.94l.36.148-.154.37-.362-.15zM346.777 387.17l.36.147-.155.37-.36-.149zM346.81 386.286l.362.148-.155.37-.36-.149zM346.828 385.691l.361.149-.155.369-.36-.148zM346.513 387.837l.639.032-.014.272-.638-.032zM347.63 387.388l.64.031-.014.272-.64-.031zM347.701 387.873l.352.021-.017.266-.35-.021zM347.784 388.512l.35.021-.016.266-.351-.02zM348.142 384.157l.248.11-.248.552-.25-.111zM348.444 384.314l.248.11-.248.552-.25-.11zM348.743 384.442l.249.11-.249.551-.249-.11zM349.112 384.56l.249.11-.25.552-.248-.11zM349.489 384.67l.249.11-.25.553-.248-.11zM350.063 384.968l.25.11-.25.552-.248-.11zM350.312 385.146l.249.11-.249.552-.249-.11zM351.435 385.716l.249.11-.25.551-.248-.11zM351.77 385.86l.248.11-.249.552-.249-.11zM350.929 385.367l.249.11-.249.552-.249-.11zM349.3 386.548l.25.11-.25.551-.248-.11zM348.195 386.25l.249.11-.25.552-.248-.11zM347.904 386.157l.248.11-.248.552-.25-.11zM349.797 386.7l.25.11-.25.552-.248-.11zM350.389 386.896l.249.11-.25.552-.248-.11zM350.758 387.193l.248.11-.248.552-.25-.11zM350.08 388.102l.25.11-.25.551-.248-.11zM352.24 387.966l.249.11-.249.552-.249-.11zM352.566 388.119l.25.11-.25.552-.248-.11zM352.849 388.399l.249.11-.25.552-.248-.11zM353.166 388.535l.249.11-.249.552-.249-.11zM353.672 388.917l.249.11-.249.552-.249-.11zM354.426 389.317l.249.11-.249.551-.249-.11zM354.734 389.478l.25.11-.25.552-.248-.11zM354.118 387.779l.248.11-.248.552-.25-.11zM353.93 387.1l.248.11-.249.552-.249-.11zM353.706 386.845l.25.11-.25.552-.248-.11zM353.45 386.666l.248.11-.249.553-.249-.11zM353.389 387.44l.249.11-.249.551-.249-.11zM346.626 388.294l.568.04-.018.25-.568-.04zM348.535 388.262l.284.023-.056.691-.285-.023zM348.935 388.276l.283.024-.056.69-.285-.023zM349.32 388.35l.285.023-.058.691-.284-.023zM349.97 389.254l.262.125.2-.413-.263-.125zM350.951 389.413l.356.185.26-.493-.356-.184zM351.454 388.203l.355.184.26-.493-.355-.184zM351.24 389.86l.355.185.26-.493-.356-.184zM350.746 387.905l.356.184.259-.493-.355-.183zM352.64 389.811l.25.11-.25.552-.248-.11zM352.995 389.95l.249.11-.25.551-.248-.11zM352.019 389.514l.248.11-.248.552-.25-.11zM352.34 389.652l.25.11-.25.552-.248-.11zM353.306 390.173l.248.11-.248.552-.25-.11zM353.649 390.311l.249.11-.249.552-.249-.11zM355.032 389.758l.25.11-.25.552-.248-.11zM354.003 389.067l.249.11-.25.552-.248-.11zM354.496 388.272l.224.129-.25.427-.224-.127zM354.83 388.45l.225.128-.25.429-.224-.128zM355.163 388.652l.224.129-.25.428-.223-.128zM356.172 389.386l.224.128-.25.428-.224-.128zM355.893 389.12l.224.128-.25.428-.224-.127zM355.464 389.991l.224.129-.25.428-.224-.128zM355.813 390.26l.2.147-.21.284-.201-.147zM355.445 388.918l.2.146-.21.284-.2-.147zM352.582 387.154l.2.146-.21.283-.201-.146zM352.936 387.377l.2.146-.21.284-.201-.147zM353.021 386.654l.2.146-.21.284-.2-.146zM352.48 385.996l.249.11-.249.552-.249-.11zM352.759 386.22l.249.11-.249.551-.249-.11zM350.222 387.61l.2.147-.21.283-.2-.146zM349.032 385.62l.252.106-.164.386-.253-.105zM349.422 385.778l.253.106-.165.386-.252-.105zM349.768 385.899l.252.105-.164.386-.253-.105zM348.629 385.445l.252.106-.164.386-.253-.106zM348.255 385.353l.252.105-.164.386-.252-.105zM347.91 385.223l.252.106-.164.386-.253-.106zM350.645 386.176l.253.106-.165.386-.252-.106zM348.815 386.472l.253.106-.165.386-.252-.106zM352.055 386.823l.253.106-.165.387-.252-.106zM349.292 389.627l.252.106-.164.385-.253-.105zM349.917 389.886l.253.105-.165.387-.253-.106zM350.244 390.043l.252.106-.164.386-.253-.106zM350.586 390.114l.29.13-.273.598-.289-.129zM351.016 390.249l.29.129-.272.599-.289-.129zM351.353 390.48l.29.129-.273.6-.289-.13zM351.773 390.721l.29.128-.272.6-.29-.129zM352.118 390.878l.29.129-.272.599-.29-.128zM352.483 391.045l.288.128-.27.6-.29-.129zM353.024 391.313l.29.128-.272.6-.29-.129zM340.735 389.801l.525.24-.108.232-.526-.24zM342.93 389.953l.821.288-.145.405-.821-.29zM348.17 393.772l.912-.041.023.491-.913.042zM354.101 391.722l.21-.015.04.567-.21.015zM354.425 391.647l.21-.015.04.567-.21.015zM354.683 391.549l.21-.015.041.568-.21.014zM355.965 391.049l.21-.015.04.567-.21.015zM356.78 389.79l.224.127-.25.429-.223-.128zM354.633 390.673l.2.146-.21.284-.2-.147zM354.316 390.471l.2.147-.21.283-.2-.146zM353.31 384.825l.313.124-.135.333-.313-.124zM354.15 384.862l.313.124-.135.334-.313-.125zM354.832 384.779l.261.009-.013.397-.262-.008zM355.133 385.026l.262.009-.014.397-.261-.008zM355.701 384.847l.27.022-.064.777-.27-.023zM356.456 385.205l.257.01-.02.53-.258-.01zM357.464 385.227l.257.01-.021.53-.257-.01zM357.837 385.274l.257.01-.02.53-.258-.01z" clip-path="url(#pfa40ac864d)" style="fill:#a9a9a9;fill-opacity:.8"/></g></g></g><defs><clipPath id="pfa40ac864d"><path d="M92.39 86.4h553.219v554.4H92.39z"/></clipPath></defs></svg>