<svg xmlns="http://www.w3.org/2000/svg" width="960" height="960" viewBox="0 0 720 720"><defs><style>*{stroke-linejoin:round;stroke-linecap:butt}</style></defs><g id="figure_1"><path id="patch_1" d="M0 720h720V0H0z" style="fill:#fff"/><g id="axes_1"><path id="patch_2" d="M100.42 640.8h537.16V86.4H100.42z" style="fill:#fff"/><g id="LineCollection_1"><path d="m566.595 399.064 1.556-.526 1.103-.399.57-.243.865-.403.967-.512 2.13-1.069 3.634-1.881 1.677-.883 1.443-.852.62-.372.749-.573.705-.611 1.697-1.496 1.177-1.037 2.044-1.708.57-.445.381-.29.468-.334.48-.28M608.104 384.736l-2.54-.467-2.32-.442-2.543-.5-2.172-.44-1.19-.156-1.04-.038-.496.027-.69.058-.675.1-.657.145-.618.165-.675.252-.729.356-.854.465-1.474.889" clip-path="url(#pa2b0c0a540)" style="fill:none;stroke:#000"/><path d="m617.918 420.401-.589-.089-.694-.17-1.272-.395-.943-.384-1.373-.685-2.566-1.564-1.47-.915-2.534-1.474-2.676-1.72-.444-.352-.223-.26-.296-.495-.624-1.263-.81-1.46-.43-.553-.535-.62-.373-.53-.203-.386-.137-.404-.215-.64-.097-.584-.11-.833.024-1.944-.007-.801-.082-.666-.149-.542-.288-.655-.48-.94-.46-.616-.405-.5-3.253-3.582-.97-1.134-.793-1.073-.503-.77-.346-.608-.437-1.182-.554-1.7-.421-1.246-.23-.609-.203-.398-.316-.51M566.595 399.064l-.913-1.285M564.045 399.866l1.134-.375.78-.244.636-.183M561.553 400.807l.88-.337 1.612-.604M561.408 402.047l1.51-.779.284-.14.203-.185.183-.268.457-.809M435.99 402.03l1.21.559M415.936 392.048l1.56.635 1.794.682 1.345.542 1.72.735 1.017.516.812.46.674.396 1.291.863 1.213.863.437.357.378.298.39.321.897.705.694.472.745.446.76.36 1.033.333.734.255.624.163.616.136.554.15.766.293" clip-path="url(#pa2b0c0a540)" style="fill:none;stroke:#000"/><path d="m431.663 414.77.059-.227.199-.744.358-1.205.652-1.966 1.185-3.432 1.154-3.71.258-.634.304-.573.158-.25M415.936 392.048l-.055-.682M413.206 391.382l.62.108.823.17 1.287.388M401.566 389.167l-.518-.21M406.5 390.453l-1.132-.306-1.111-.298-.894-.213-1.006-.225-.791-.244M401.566 389.167l-.542-.054M384.81 312.695l2.187 1.034M350.851 316.42l.753-.643 1.142-.874 1.466-1.34 2.324-2.231.917-.832.866-.511.752-.303.59-.154.522-.101 1.907-.1 1.517.053 1.86.194.406.062.397.147.706.267.8.163.783.085.8-.03.674-.101.738-.202 1.473-.55 1.383-.374.269-.067.353.006.335.035.273.029.411.147.404.27.57.524.826 1.053.343.329.5.313 2.296 1.212 1.166.492.285.084.344.017.467-.047 2.34-.747M477.66 205.155l4.492 4.462 6.988.991 10.982 6.072 3.368 2.231v3.593l-3.619 1.86-8.485 7.93.624 4.585-4.118 2.231-2.995 2.603-6.988.867-9.983 9.914-11.98 5.205-10.607 6.072-10.607 12.64-9.983 7.31-3.549.28-2.62 2.23-2.433 3.222-3.378 3.152-.928.488-1.529.743-.943.612-1.942 2.107-2.184 3.965-1.778 1.766-3.229 3.153-.663.867-.39.542-.483.472-1.092.713-1.475 1.007-.842.294H394.2l-1.333-.07-1.006.031-1.147.302-1.154.589-2.488 1.503-2.262 1.006M396.508 316.297l-4.239-.767-1.162-.229-.905-.263-3.205-1.309M379.9 341.541l-.348-2.598-.07-.388-.027-.336.094-.43 1.205-2.587.128-.36.02-.283.007-.302-.034-.217-.077-.213-.16-.163-.27-.1-1.085-.36-1.158-.465-.144-.151-.057-.19.037-.163.148-.298 2.005-3.512 2.215-4.182.69-1.216.043-.138-.03-.15-.066-.122-.934-.589-.112-.217.027-.201.078-.182 4.972-7.699M350.851 316.42l-1.536 4.283" clip-path="url(#pa2b0c0a540)" style="fill:none;stroke:#000"/><path d="m349.626 180.99-2.37 5.701-2.184 6.413-2.559 3.13-1.59 5.204-.406 10.038.374 3.748 2.246 1.952 3.12 4.585 3.183 4.43 5.116 3.408 1.996 2.2.936 7.218-1.404 4.554-5.054 3.872-4.399 2.2-5.833 4.988-2.403 4.585-2.706 3.594-1.373 10.192-2.745 5.39.031 3.13 2.496 4.09 1.498 3.47 5.99 6.567 4.117 4.213 4.968 7.49.207.538.14.577.024.514-.378 2.119-.18 1.37v.562l.079.904.064.548.08.554.144 1.383M349.315 320.703l3.463 1.233M348.41 324.026l.374-1.642.53-1.68M347.13 329.51l-.623 1.89M347.13 329.51l.452-1.907M356.53 329.378l-.403-.074-.59-.098-.8-.082-.821-.04-1.13-.175-2.36-.445-.265-.004-.314.052-.513.13-1.388.546-.815.321M346.507 331.4l-1.453-1.165M346.622 332.701l-.072-.283-.07-.45.027-.569M346.682 332.94l-.06-.239M348.714 337.71l-.99-2.454-1.042-2.316M351.582 335.25l-.524-1.09-.722-1.36-.796-.607-.278-.073h-.24l-2.34.82M349.786 341.576l-.635-2.161-.437-1.704M351.582 335.25l.253.527v.35l-.399.304-2.722 1.28M349.786 341.576l.445-.306.468-.36.573-.415.519-.48.951-1M352.308 346.37l-.089-.113-.137-.195-.958-1.272-.375-.627-.343-.79-.62-1.797M356.53 329.378l.512.064 2.353.125 2.219.24.491.005.856-.014.156.015.197.068.185.118.147.143.084.175.36 1.473.17.343.13.254.207.302 1.736 1.413 1.563 1.227 1.194.98.694.566.402.251 3.443 1.51.764.365 1.182.65 1.368.825.312.217.414.174.437.159.771.224 1.022.291M380.125 344.31l.012-.333-.062-1.162-.176-1.274" clip-path="url(#pa2b0c0a540)" style="fill:none;stroke:#000"/><path d="m385.792 345.49-3.019-.708-.72-.126-.49-.1-.51-.1-.563-.082-.365-.064" clip-path="url(#pa2b0c0a540)" style="fill:none;stroke:#000"/><path d="m376.791 351.21 1.443-2.354.725-1.41.64-1.363.464-1.42.062-.353M381.451 354.467l1.338.74.203.058.156.034.114.002.12-.032.234-.067 1.279-.84.491-.375.308-.298.258-.287.212-.217.213-.209.216-.178.256-.205.134-.134.166-.188.15-.304.23-.41.21-.244.31-.204.297-.193.378-.182.737-.407.527-.27.604-.396.924-.786.232-.213.277-.306.21-.214.288-.216.448-.38.655-.67M409.449 343.4l-1.53 1.413-.371.314-.328.128-.437.057-.475-.015-4.949-.282-.616.042-.772.097-.566.093-1.891.503-.69.202-.78.14-.526.032-.344.035-.314.077-.288.078-.365.16-.393.29-.188.113" clip-path="url(#pa2b0c0a540)" style="fill:none;stroke:#000"/><path d="m385.792 345.49.994.253.846.185.699.124.495.047.909.04.542-.007h.353l.235.017.203.048.487.146.248.106.178.068.18.048.143.002.538-.044.127.029.187.064.164.081.306.18M355.316 350.393l.815-.956.912-1.348.757-1.231M363.845 349.762l-1.038-.333-1.068-.302-.647-.24-.484-.263-.757-.41-1.411-.915-.64-.441M352.308 346.37l2.085-1.81.15-.057.155-.017.168.027.185.075.138.11.164.183.35.431.409.47.335.267 1.353.809M355.374 352.93l-.054-1.604-.004-.933M353.902 348.257l.185.223.352.45.42.577.457.886M366.692 350.498l-2.395 5.584M366.692 350.498l-2.847-.736M376.791 351.21l-2.267-1.224-.238-.085-.21-.042-.256-.022-.33.031-.544.006-.713-.023-.687-.015-.588.035-.656.054-.92.147-.803.163-.609.115-.647.078-.631.07M371.722 358.003l.718-.83.974-1.262 1.1-1.634 2.277-3.066M379.201 353.216l-.935-.875-.57-.488-.257-.198-.309-.236-.339-.208M355.671 356.097l-.078-1.022-.219-2.145M364.297 356.082l-6.758-2.874-.542-.248-.367-.042-.499.008-.757.004M379.201 353.216l-3.336 6.444M379.201 353.216l2.25 1.25M370.197 358.274l-.144-.48-.219-.636-.222-.344-.355-.434-.475-.438-1.428-1.278M355.671 356.097l3.12 1.138M353.543 363.286l1.145-3.51.515-1.557.273-.999.129-.515.066-.608M364.297 356.082l-1.442 3.07M358.79 357.235l4.065 1.916M358.79 357.235l-1.692 5.12M371.722 358.003l-.318.375" clip-path="url(#pa2b0c0a540)" style="fill:none;stroke:#000"/><path d="m375.212 359.548-.3-.136-.55-.29-2.64-1.12M224.949 353.138l4.896.845 1.849.31 2.893.55 3.088.643 1.943.44 1.926.403 1.731.31 1.662.256 1.965.24 2.293.27 2.636.264 1.38.117 1.725.108 5.303.202 4.46.193 4.384.093 1.03-.031h.81l.61.023.542.074.818.131" clip-path="url(#pa2b0c0a540)" style="fill:none;stroke:#000"/><path d="m216.535 376.521.543-.42 1.669-1.254 1.286-.767.656-.34.647-.318 1.123-.503 1.427-.597 1.498-.519 1.108-.355 1.216-.35 2.23-.541 1.42-.357 2.831-.79.905-.286 1.372-.48 1.21-.418 1.1-.31 2.09-.589 3.829-1.015 6.006-1.564 5.973-1.735 4.618-1.382 1.98-.616 1.99-.62 1.2-.325 2.567-.697 1.677-.387.58-.143.449-.109.46-.062.698-.093M321.756 365.766l-3.654-1.095-4.188-1.2-2.122-.574-.975-.302-.57-.201-1.255-.48-1.27-.465-.758-.201-.647-.17-.924-.199-.983-.1-1.045-.108-1.026-.032-1.021.02-1.428.127-1.88.229-1.154.062-1.045.015-1.314-.05-.928-.12-.795-.127-1.673-.392-1.74-.255-3.844-.705-2.567-.434-1.544-.31-1.193-.147-1.583-.232-1.147-.163-.534-.007-.99.046-.613.093-.675.17-.943.136-.835-.016M361.533 364.17l-.523-.31-.12-.119-.044-.15.031-.179.254-.62 1.724-3.64M375.865 359.66l2.233.953M375.212 359.548l.302.05.162.023.189.039M375.212 359.548l.103.28M378.098 360.613l3.353-6.146M376.784 361.545l.764-.182.166-.121.08-.083.101-.146.094-.192.11-.208M346.452 360.658l-1.83 3.635M346.452 360.658l1.311.82M341.953 363.02l1.298-4.445.07-.104.086-.046.146-.018.15.044.097.07 2.652 2.137M347.763 361.478l-1.685 3.518M347.763 361.478l1.474.962M363.642 361.418l2.046.934M375.856 362.1l-.242.262M375.856 362.1l.046-.961M376.558 361.612l-.395.257-.307.23M365.688 362.352l-1.476 3.05M365.688 362.352l.438.192M349.237 362.44l-1.482 3.245M349.237 362.44l.865.511M366.126 362.544l.773-1.577M366.126 362.544l2.827 1.406M341.712 363.846l.241-.826M341.712 363.846l-1.21 4.147M344.52 364.531l-.198-.066-.16-.018-.206-.024-.136-.023-.359-.082-1.75-.472M353.543 363.286l6.818 3.73M352.606 367.443l.18-.953.584-2.532.173-.672M368.953 363.95l-.238.786M370.177 360.775l-.616 1.603-.608 1.572M361.533 364.17l-1.172 2.845M361.533 364.17l2.68 1.231M344.621 364.293l-.1.238M344.621 364.293l1.457.703M346.078 364.996l-1.521 3.276M346.078 364.996l1.677.69M364.212 365.401l3.684 1.613M320.711 368.946l-.043-.53.062-.322.059-.283.967-2.045" clip-path="url(#pa2b0c0a540)" style="fill:none;stroke:#000"/><path d="m323.955 366.351-.987-.279-1.212-.306M347.755 365.685l1.185.496M346.445 368.303l.346-.403.223-.36.152-.391.203-.577.386-.887M333.536 370.32l-1.466-.453-2.043-.635-1.318-.422-.578-.244-.557-.29-.44-.252-.437-.24-1.373-.798-.374-.186-.585-.27-.41-.179M323.292 369.899l.3-1.131.149-.62.117-.798.097-.999M360.361 367.015l-1.27 3.075M360.361 367.015l6.233 3.414M367.896 367.014l4.505 2.319M367.896 367.014l.819-2.278M367.896 367.014l-1.302 3.415M352.606 367.443l6.485 2.647M352.75 371.63l-.02-1.05-.148-1.107-.062-.814.04-.844.046-.372M343.083 368.18l-.648 3.383M343.083 368.18l1.474.092M344.52 364.531l-.72 1.688-.717 1.96M340.501 367.993l.351-.007.48.046.378.038 1.373.11M344.557 368.272l1.646.027M383.64 369.205l-1.82-.794-.37-.176-.303-.128M380.706 368.926l.176-.282.152-.287.113-.25M378.94 363.25l.23.449.191.342.281.595.273.596.386.856.21.484.195.48.25.581.191.474M346.445 368.303h.413M346.445 368.303l-.242-.004M395.704 370.557l-.444 2.47M372.4 369.333l1.357-2.82M372.4 369.333l-1.4 3.076M375.603 370.81l-1.65-.718-1.552-.759M383.64 369.205l-1.093 2.513M388.62 371.273l-.746-.283-4.235-1.785M384.06 366.417l.11.348.05.453.012.488-.055.338-.12.352-.187.364-.23.445M359.091 370.09l-1.519 3.585M365.802 372.83l-3.837-1.53-2.874-1.21M333.536 370.32l-.842 3.055M339.682 371.3l-1.283-.167-.74-.1-1.342-.166-1.657-.326-1.124-.22M335.032 366.65l-.123.085-.12.12-.078.127-1.175 3.338M366.594 370.43l4.407 1.979M366.594 370.43l-.792 2.4M398.84 371.269l-.43 2.502M379.872 370.48l2.675 1.238M379.872 370.48l.238-.624M378.917 372.605l.518-1.088.437-1.038M376.417 371.19l-.02.37M376.417 371.19l-.814-.38M376.417 371.19l2.5 1.415M379.324 369.32l-.115.06-.975.425-.6.306-.577.287-.34.236-.18.213-.12.343M342.435 371.563l2.061.188M339.682 371.3l1.693.14 1.06.123M388.62 371.273l2.317.562M388.364 373.321l.1-.232.057-.24.032-.21.03-.51.036-.856M351.412 371.629l-2.191.02M351.412 371.629l-.093.314M351.412 371.629h1.338M352.75 371.63l-.015.352M355.422 372.712l-1.578-.829-.21-.094-.239-.066-.144-.03-.151-.02-.35-.043M398.41 373.77l2.212.59.168.038.128-.004.162-.031.143-.064.099-.077.173-.3.121-.287.235-1.413M344.496 371.751l.84.076.691.046M346.043 371.575h-.634l-.386.048-.527.128M382.547 371.718l-.928 2.292M382.547 371.718l4.551 2.068M351.32 371.943l1.415.039M350.531 373.391l.304-.38.203-.41.281-.658M351.32 371.943l-2.083-.023M352.735 371.982l.45.106.222.062.293.099.49.242 1.102.528M371 372.409l3.943 1.911M371 372.409l-.942 2.173M392.6 372.393l-1.663-.558M392.6 372.393l2.66.634M392.6 372.393l-.533 2.415M378.917 372.605l2.702 1.405M365.802 372.83l-1.357 3.953M365.802 372.83l4.256 1.752M395.26 373.027l3.15.744M323.292 369.899l4.941 1.811 4.461 1.665M335.14 376.16l1.08-.519.202-.132.113-.24.028-.248-.086-.251-.14-.147-3.643-1.248M350.531 373.391l-6.291 3.589" clip-path="url(#pa2b0c0a540)" style="fill:none;stroke:#000"/><path d="m356.43 376.308-4.557-1.654-.53-.271-.215-.23-.261-.32-.336-.442M357.572 373.675l-.13.355M357.572 373.675l-2.15-.963M357.572 373.675l1.682.762M387.098 373.786l-1.071 2.28M388 373.678l-.126.045-.14.04-.116.014-.136.008-.384.001" clip-path="url(#pa2b0c0a540)" style="fill:none;stroke:#000"/><path d="m392.067 374.808-2.23-.56-1.838-.57M388.364 373.321l-.104.15-.082.086-.179.12M381.619 374.01l-1.123 2.92M381.619 374.01l4.408 2.057M357.441 374.03l-1.01 2.278M357.441 374.03l1.666.742M355.292 373.02l.395.158 1.754.852M374.943 374.32l1.455-2.76M374.943 374.32l-.902 1.968M374.943 374.32l2.716 1.306M370.058 374.582l-1.88 3.984M370.058 374.582l3.983 1.706M392.067 374.808l8.372 2.053M392.067 374.808l-.667 2.44M386.027 376.067l5.373 1.181M386.027 376.067l-.32.7M374.041 376.288l-1.902 4.089M374.041 376.288l5.745 2.424M356.43 376.308l-.942 2.287M356.43 376.308l4.693 1.784M380.496 376.93l-.71 1.782M380.496 376.93l-2.837-1.304M380.496 376.93l4.703 2.138M364.445 376.783l-2.013-.83M364.445 376.783l-.156.38M364.445 376.783l1.814.876M364.29 377.162l1.791.816M364.29 377.162l-.671 1.821M364.29 377.162l-2.011-.83M391.4 377.248l6.73 1.796M391.4 377.248l-.812 3.268M361.123 378.092l2.496.891M361.123 378.092l-.846 2.255M368.179 378.566l-1.92-.907M368.179 378.566l-.138.364M368.179 378.566l1.896.79M355.488 378.595l-2.763-1.025M355.488 378.595l4.789 1.752M379.786 378.712l-1.7 4.043M379.786 378.712l5.086 2.192M368.04 378.93l1.84.839M368.04 378.93l-.74 1.847M368.04 378.93l-1.959-.952M363.619 378.983l3.681 1.794M362.677 381.763l.052-.17.585-1.72.305-.89M385.199 379.068l-.327 1.836M385.199 379.068l.509-2.301M387.574 379.682l-.425-.087-1.21-.256-.74-.27M360.277 380.347l-.331.873M390.588 380.516l6.443 1.332M390.588 380.516l-.044.218M387.574 379.682l.558.114 1.006.232.78.232.67.256M372.139 380.377l-.175.329M372.139 380.377l-2.064-1.02M372.139 380.377l5.947 2.378M371.964 380.706l5.99 2.401M371.964 380.706l-2.083-.937M367.3 380.777l4.063 1.97M367.3 380.777l-1.16 3.205M384.872 380.904l-.929 3.938M390.23 382.274l-1.295-.247-1.817-.465-1.147-.287-.538-.178-.561-.193M337.896 382.189l3.33.415M337.896 382.189l-.452 3.284M335.042 381.628l.405.174.375.124 2.074.263M336.399 378.809l1.938-.881.06-.017.065.006.068.032.043.038.034.068.011.153.004.214-.726 3.767M390.23 382.274l1.684.434M390.23 382.274l.314-1.54M388.521 385.945l.593-.445.203-.22.18-.303.171-.433.172-.674.39-1.596M371.363 382.747l-.733 2.191M371.363 382.747l1.887.736M378.086 382.755l-.133.352M383.943 384.842l-1.684-.476-.913-.268-.873-.337-.8-.31-1.587-.696M341.227 382.604l-.578 3.217M341.227 382.604l5.771 1.041M344.24 376.98l-1.773 1.011-.36.325-.233.295-.101.302-.336 1.882-.046.689-.062.407-.102.713M377.953 383.107l-.865 3.125M377.953 383.107l.71.302.85.313.765.291.756.256.955.313 1.88.504M362.23 383.227l3.91.755M362.23 383.227l.447-1.464M362.23 383.227l-1.053 2.97M359.212 383.158l.734-1.938M359.212 383.158l-1.01 2.536M353.79 382.958l.395-1.063.04-.07.075-.064.082-.014.092.016 4.738 1.395M346.998 383.645l-.577 3.168M346.998 383.645l3.111.507M366.14 383.982l1.177.251M353.135 384.723l.655-1.765M358.202 385.694l-2.687-.57-.975-.181-.591-.147-.814-.073M350.109 384.152l1.409.229 1.617.342M383.943 384.842l-.073.244M383.943 384.842l4.578 1.103M370.63 384.938l-3.313-.705M370.63 384.938l6.458 1.294M369.858 388.114l.343-1.278.164-.93.265-.968M383.87 385.086l-.602 2.655M383.87 385.086l1.7.433 5.752 1.425M361.177 386.197l-1.49-.337-1.485-.166M388.521 385.945l3.483.833M360.144 389.512l.76-2.273.273-1.042M366.673 387.403l-4.529-1.012-.967-.194M383.268 387.741l-4.62-1.168-1.56-.341M376.424 389.399l.336-1.417.328-1.75M323.546 386.72l-2.956-2.355M325.699 385.146l-.984.722-1.17.852M321.744 388.501l.73-.821 1.072-.96M369.858 388.114l-.64 3.129M369.858 388.114l-3.185-.711M369.858 388.114l6.566 1.285M336.89 389.136l-.483 3.795M337.444 385.473l-.133 1.13-.171 1.193-.25 1.34M339.94 389.725l-.858-.14-.905-.17-1.287-.279M330.046 388.052l.23.02.344.014.53.035.546.055.593.073 2.246.415 2.355.472M375.388 392.73l.468-1.038.28-.937.164-.674.124-.682M360.144 389.512l6.641 1.312M349.571 387.458l2.972.61 1.194.302.935.278.578.147.491.093.367.016.311.015.547-.03.312.003.39.039.46.085 2.016.496" clip-path="url(#pa2b0c0a540)" style="fill:none;stroke:#000"/><path d="m358.822 393.04.745-2.045.577-1.483M339.94 389.725l-.679 3.702M340.65 385.821l-.414 1.2-.133.612-.1.52-.024.588-.04.984M345.719 390.716l-2.324-.38-3.455-.611M346.42 386.813l-.245 1.653-.148.93-.164.724-.144.596M345.707 394.424l-.14-.202-.112-.183-.035-.063-.019-.094.018-.21.3-2.956M347.886 391.051l-.435-.064-.937-.14-.795-.13M369.218 391.243l-2.433-.419M369.218 391.243l6.17 1.487M369.218 391.243l-.538 2.888M372.362 395.835l1.294.043.195-.016.195-.054.219-.112.245-.384.878-2.582M336.407 392.93l2.854.497M330.046 388.052l-1.193.81-1.2.8-.301.272-.129.162-.027.144.011.19.055.205.137.197.167.19.16.112.215.105.23.08.429.056 3.845.79 3.962.766M318.967 392.645l.305-.705M296.9 406.41l.487-.452.905-.798.896-.713.96-.658 1.123-.751 1.607-.937 1.614-.914 10.1-5.77 1.185-.65.624-.31.633-.318.428-.24.336-.217.35-.255.82-.782" clip-path="url(#pa2b0c0a540)" style="fill:none;stroke:#000"/><path d="m276.898 467.039.905-.612.74-.558 1.756-1.471 1.24-1.061 1.989-1.766 1.091-1.014 1.264-1.182 4.516-4.325 1.482-1.472.99-1.1 1.03-1.323.826-1.092 1.264-1.836.632-.767.53-.537.585-.384.616-.232 1.817-.701.29-.217.22-.198.138-.27.1-.333.258-2.038.398-3.71.133-.665.132-.395.242-.976.133-.441.081-.516-.015-.286-.074-.476-.117-.415-.16-.325-.195-.31-.285-.294-.261-.229-.331-.185-1.205-.472-.457-.19-.374-.194-.312-.225-.257-.278-.23-.338-.172-.379-.09-.38v-.541l.05-.465.11-.492.18-.611.3-.802 6.138-13.429.553-1.263.484-.952.71-1.209.64-.898 7.003-8.69.725-.99.757-1.193 1.888-3.237.701-1.255.343-.837.624-1.362M357.683 396.675l.488-1.18.28-1.019.37-1.436M366.933 394.395l-.16.123-.172.082-.214.05-.304-.023-.437-.066-2.925-.623-3.9-.898M348.838 391.202l.656.11 1.583.24.757.094.53.092.593.17.592.14.835.194 4.438.798M345.707 394.424l-1.856-.308-1.56-.294-1.298-.19-1.732-.205M345.707 394.424l.983.172M368.93 395.107l.202.12.23.082 3 .526M372.237 399.57l-.047-.271-.078-.513-.07-.604-.008-.496.015-.488.086-.472.227-.89" clip-path="url(#pa2b0c0a540)" style="fill:none;stroke:#000"/><path d="m364.88 398.022-3.227-.576-2.476-.422-1.494-.349M346.69 394.596l1.864.314 3.159.616 1.84.43 1.974.34 2.156.38M370.354 407.327l.221-.626 1.607-4.484.195-.639.117-.623v-.407l-.027-.229-.121-.414-.11-.335M368.93 395.107l.222.368.078.182.02.232.015.24-.027.248-.063.476v.163l.047.186.047.143.14.245.43.514.94.868.093.083.124.079.1.045.247.1.281.097.271.084.342.11M370.354 407.327l-1.4 4.61-1.857 5.576-.18.712-.148.584-.023.388.062.333.125.333.223.349 1.317 1.246 1.424 1.108.702.546.456.465.316.445.304.615.944 3.145.92 2.749.866 2.44.475 1.363.301.86.195.778.082.63.21.969.11.7.097.295.199.627.347.573 2.25 2.754 3.775 4.755 1.793 1.99M399.979 452.286l-3.502-.546-.776-.105-.5-.1-.323-.086-.289-.082-.304-.046-.58-.039-.61-.084-.565-.086-.53-.081-.433-.097-.702-.194-.963-.279-1.2-.344-.719-.174-.694-.12-1.033-.144-.838-.12-.745-.147-.434-.147M352.45 512.729l1.679-.506.614-.186.542-.228.577-.275.792-.461.842-.62.499-.44.359-.388.398-.627.701-1.278.78-1.394.437-.93.39-.967.25-.729.171-.65.234-1.417.14-.922.243-1.022.171-.65.28-.59.329-.472.28-.31.515-.487.515-.442.382-.178.336-.108.319-.054.37-.018.326-.052.345-.116.236-.206.1-.212.163-.52.082-.402 1.622-6.475 4.204-18.09.164-.59.359-1.176 1.615-4.523.943-2.64.234-.62.191-.48.219-.43.307-.492.492-.681 2.738-3.865 4.304-5.545M129.094 97.062 129 105.52l.25 7.435-1.748 5.453-2.495 8.427M224.949 353.138l-1.702-.294-4.75-.944-.702-.186-.538-.17-.585-.288-.772-.495-.523-.465-12.37-10.47-7.986-6.568-5.49-5.453-6.965-1.208-2.247-2.416-.343-1.859M151.582 280.099l3.281 3.994 5.74 4.647 6.583 3.408 4.742 3.965 4.742 5.948 4.492 6.444.967 3.563-.312 3.872-1.84 6.382M353.202 174.814l2.04-2.87 1.84-.991 1.404.124 3.338.867 2.453-2.58M462.81 151.744l-2.745 1.24-1.748 1.115-11.98 14.747-5.49.248-4.118-1.363-8.112-1.735-3.369-2.231-2.745-1.24-3.994-.99-5.99 3.965-3.369 2.99-2.136 1.192-2.528.558-9.515.666-3.79-2.308-3.37-4.213-7.315 2.757h-2.168l-3.417 1.24-4.04-.528-1.17-.108-5.424 1.619M167.622 135.727l-1.84-1.828-2.185-2.292-6.644-6.042-6.489-3.81-7.332-5.454-5.022-6.196-1.373-2.85-1.372-4.462-3.494-3.345-2.777-2.386M192.518 135.742l-2.933-.139-4.368.248-3.338 1.55-3.369-1.023-5.023.062-5.865-.713" clip-path="url(#pa2b0c0a540)" style="fill:none;stroke:#000"/><path d="m144.63 148.305 5.585-2.478 2.34-1.797 2.37-.589 4.368-1.27.53-1.332 2.402-1.487 2.278-3.067 3.12-.558M192.518 135.742l4.118-.727M201.373 141.554l-2.71-2.171-6.145-3.641M201.373 141.554l-3.365-5.424-1.372-1.115M208.644 127.15l-.185 2.04-2.417 2.556-1.825.743-4.274.512-3.307 2.014M349.626 180.99l.78-2.323 2.153-2.293.643-1.56" clip-path="url(#pa2b0c0a540)" style="fill:none;stroke:#000"/><path d="m316.932 172.688 2.87.99 4.243-.247 2.121-1.642.5-1.332 3.992-3.718 3.62-1.363 5.615-.093h3.712l2.527 1.332 7.07 8.2M477.66 205.155l-5.866 5.205-1.872 4.957.874 2.912-.124 5.143.842 3.408-3.151 3.625-2.87-2.789-6.303-4.368-4.617-6.568-8.236-2.974-10.856 1.735-7.846-1.983-1.997-1.61-3.665-8.443-4.79-4.058-8.734-1.085-2.23-1.548-2.06-2.464-1.498-2.974-4.492-2.106-8.111.371-5.865-4.09-9.983-.37-6.864-2.48h-4.367l-13.353-1.61M316.932 172.688l-1.56-3.47M201.373 141.554l5.246 8.455 1.716 2.758 1.248 1.27 2.027 1.301 1.31 2.076.094 1.859.718 1.27 1.341 4.213.655 3.222 1.872 3.718.936 2.122 1.84.93 3.339-.078 4.617 1.363 1.03.992.78 2.137 1.154.652 3.4-1.302 3.869-3.346 1.123-.837 1.622-.216 8.298-3.563 4.087-1.673 5.304-1.301 2.652.155 5.365 1.61 1.748.807 3.743.433 3.37.744 3.244 1.456 1.466 4.43 4.306 1.425 2.495 4.213 2.87 2.572 1.966-.34 4.367-.62 1.997-1.24 3.12-5.948 3.743-2.727 2.528-1.146 3.15.31 5.803-1.022M535.491 178.798l-.257 1.852 1.481 4.477-.374 3.066" clip-path="url(#pa2b0c0a540)" style="fill:none;stroke:#000"/><path d="m562.92 199.362-2.4-.34-5.367-3.161-3.868-1.487-4.617-1.859-4.742-1.734-5.585-2.588M531.428 184.522l2.854 1.875 2.059 1.796M477.66 205.155l2.495-2.85 8.299-4.027 7.425-7.497-.562-3.78 7.924-7.621 5.46-.403 7.487-2.695 5.085 3.47 10.155 4.77M531.404 178.004l-.21.88.234 5.638M590.094 240.473l-3.12-3.004-3.993-2.324-4.118-3.594-1.123-4.09-1.373-3.717-2.496-3.966-3.12-4.337-3.057-2.045-1.497-2.23-.874-7.25.734-2.463-1.451-1.471-1.685-.62M409.449 343.4l.392-.322.353-.38.743-.928 1.52-1.852 3.182-3.717 4.072-4.779 3.564-4.252 9.924-11.199.437-.476.265-.22.29-.183 1.196-.345.999-.197.506.07.656.225.667.286.807.128 1.427-.132 1.552-.29 1.283-.306 1.19-.256.717-.34 1.162-.76 3.229-1.572 3.9.186 4.149-.774 3.525.464 1.84-6.227 6.677-3.067 3.12.124 3.744.124 6.52-3.872 1.84-2.292-.218-1.457 1.591-2.013 2.464.247 3.65.34 3.869.373 3.369-2.602 5.74-2.107 6.739-.62 5.616-1.61 1.497-1.116 7.987-12.144 3.244-2.726 6.49-5.7 3.618-2.974 4.617-3.223 6.864-2.726 4.866-1.611 17.096-.372 9.36-6.815 6.738-6.94M126.182 399.827l.12-.5.296-.742.328-.542.452-.628.866-.952 1.115-1.077.756-.565 1.475-1.263 2.386-2.424 1.482-1.185.819-.627.694-.403.593-.286.74-.256.477-.132.702-.054.631-.046.671.054 1.63.225 1.037.31 1.1.425.57.334.538.39.37.225.335.182.293.112.37.12.952.21.877.174 1.045.22 1.155.202 1.973.325 4.648 1.24.913.247.608.17.322.065.357.054.44.033.504.003 9.546-.612 5.795-.34 4.476-.225 5.382-.263 7.12-.503 1.366-.17.928-.187.631-.232.57-.302.85-.535 1.084-.712" clip-path="url(#pa2b0c0a540)" style="fill:none;stroke:#000"/><path d="m216.535 376.521-.97.75-1.77 1.394-1.616 1.209-4.39 3.144-3.4 2.378-5.82 3.988M213.94 419.998l-.435-.712-1.146-1.82-.702-1.146-.429-.728-.382-.76-1.21-2.687-1.324-2.81-.539-.984-.304-.457-.328-.488-.42-.465-.437-.434-.437-.58-.585-.953-.476-.906-.484-1.023-.42-1.13-.297-.984-.429-1.425-.347-1.073-.144-.546-.16-.422-.176-.356-.21-.31-.16-.224-.152-.255-.187-.392-.133-.371-.148-.496-.162-.686-.095-.336-.203-.558-.343-.744-.336-.565-1.63-2.788M247.745 458.404l-.108.114-.117.064-.15.046-.35.027-.36-.011-.674-.109-.535-.085-.67-.046-.757.023-.912.054-.956.004-.737-.046-.819-.12-.698-.12-.694-.155-.616-.179-.491-.166-.433-.147M213.94 419.998l.876 1.44.834 1.364 1.7 2.617.85 1.24.68.937.483.58.452.38.803.55 1.841 1.13.733.55 1.505 1.108 1.272.898.749.573.46.35.335.355.359.465 1.63 2.292 1.108 1.673 1.068 1.89.834 1.541.43.767.39.844.101.333.081.329.067.399-.004.391-.043.526-.015.457-.012.45.031.422.058.607.457 3.939.07.604.078.36.093.302.2.434.561.917.67 1.007 1.943 2.533" clip-path="url(#pa2b0c0a540)" style="fill:none;stroke:#000"/><path d="m180.122 441.137 2.834.794 4.422 1.247 8.876 2.617 3.813 1.084 12.713 3.633 4.259 1.193 7.308 2.16 3.486 1 2.036.572 1.723.511 3.674 1.092 2.402.512M276.898 467.039l-.447.2M349.412 508.44l-.425-.321-.753-.492-.803-.503-.643-.48-.367-.345-.289-.275-.257-.314-.3-.515-.296-.588-.215-.527-.105-.445-.114-.577-.07-.387-.109-.318-.136-.287-.305-.456-.354-.457-.297-.364-.37-.388-.554-.48-.355-.27-.526-.376-.605-.387-.208-.153-.147-.15-.148-.213-.175-.24-.125-.17-.355-.38-.55-.495-.308-.322-.41-.5-.206-.278-.542-.596-1.014-1.262-1.224-1.371-1.381-1.518-1.287-1.402-.546-.542-.413-.325-.523-.325-3.392-1.72-2.23-1.17-.93-.518-1.543-.921-1.202-.62-.88-.43-1.16-.624-.841-.48-.83-.484-.675-.329-.96-.449-1.162-.503-.74-.33-2.314-1.1-1.185-.677-1.115-.58-.788-.407-.924-.465-.838-.398-.722-.322-.826-.34-.832-.264-1.824-.538-.847-.237-.947-.278-.44-.152-.496-.236-.472-.313-1.014-.829-.632-.507-.639-.465-.456-.306-1.034-.592-.85-.457-.702-.295-.846-.259-.839-.166-.74-.113-.811-.007-.609.042-1.958.286-1.427.249-1.577.294-.75.174-.564.124-.273.011-.312-.048-.232-.07-4.516-2.27-2.808-1.518M294.661 513.757l-.316.615-.351.658-.515.767-.483.45-.772.611-.78.503-.647.465-.469.317-.615.326-.546.178-.64.077-.796.009-1.326-.202M224.596 517.826l1.084-.193 1.443-.31 1.67-.372 1.793-.48 1.287-.38 1.022-.232 1.287-.232 1.442-.248 1.342-.163.983-.123 1.271-.148 1.279-.147 1.638-.224 1.458-.21.99-.085 1.167-.027 1.376.035 4.157.17 2.145.117 1.256.085 1.076.046.952.085 1.154.109 1.388.201 1.568.194.803.128.484.081.366.039.445.042.499.027.796.024.725.038 3.479.349 4.219.588 1.607.24 1.364.194 1.06.085 1.046.031 1.326.023h1.412l1.825.078 1.03.201.67.202 1.053.34 1.372.527M303.076 521.81l-.428.04-1.116.104-1.002.062-2.55.008-1.537-.054-.92-.078-1.014-.124-1.77-.333-1.35-.333-.96-.31-.857-.356-.975-.457-.67-.349-.562-.348-.96-.751M276.45 467.24l-.207.093-1.685.712-1.092.496-.358.263-.39.326-.421.557-.188.395-.148.573-.085.72-.04 1.526-.042 3.222-.004.476.043.57.128.627.203.534 4.165 9.355 1.544 3.098 1.51 3.23.416.812.367.69.367.557.46.542.523.496 1.075.906 5.172 4.29.553.589.382.496.375.604.288.542.43.813.288.728.273.736.18.643.112.553.114.484.14.504.18.472.226.45.288.51.343.55.406.558.452.542.819.797 1.05.88M303.537 521.772l-.91-1.196-.56-.814-.687-.991-.585-.813-.756-.756-.897-.7-.913-.612-.913-.557-.627-.376-1.123-.689-.905-.511M361.013 524.82l.593.022.663.093.687.155.889.357 8.056 4.267 6.942 3.314 1.708.806 1.45.743 1.069.612.718.534M392.436 550.696l-.678-3.628-.343-2.137-.265-.983-.297-.829-.311-.628-.375-.503-.928-1.06-1.614-1.65-2.691-2.393-1.146-1.162" clip-path="url(#pa2b0c0a540)" style="fill:none;stroke:#000"/><path d="m448.543 528.012-.279-.175-.137.022-.136-.03-.173-.07-1.835-1.023-.601-.283-.589-.247-.589-.167-1.048-.236-3.456-.604-.725-.093-.6-.008-.453.054-.647.178-2.663 1.15-.367.213-.296.22-.223.21-.257.345-.616.879-.858 1.494-.398.612-.257.267-.363.341-1.135 1.061-.366.263-.343.151-.835.17-.46.14-.437.147-.433.19-.255.116-.201.074-.351.046-.476-.011-.553-.093-.761-.113-.704-.073-.27-.025-.35-.022-2.158.055-2.94.039-1.252.019-.75.023-.67.015-.244.019-.347.005-.302-.027-.6-.101-.628-.089-.776-.085-1.272-.151-.76-.093-2.172-.364-.585-.04-.53-.014-.367-.003-.372.041-.447.082-.55.1-.608.07-.788.03-1.509.066-2.457.078-2.207.027-.402.012-.327.065-.336.124-1.275.516-.64.263-.37.131-.472.124-.596.12-.5.047-.624.062-.604.042-.597.07-.768.132-.897.201-2.324.426-1.299.194-.573.108-1.364.302M120.975 556.292l-.11.333-.14.255-.327.597-.515.75-.21.264-.243.271-.39.364-.803.775-1.279 1.154-.78.89-.452.728-.304.542-.39.883-1.28 3.64-.78 2.633-.264 1.107-.219 1.495-.187 1.433-.273 1.123-.156.348-.164.348-.195.264-.764.774M142.556 604.739l-1.514-2.028-.272-.226-.375-.286-.382-.178-1.03-.433-1.286-.419-.82-.325-.413-.217-.694-.418-.881-.488-1.358-1.007-2.448-1.913-2.831-2.555-1.896-1.502-1.606-1.263-1.178-1.146-1.388-1.316-.717-.829-.461-.642-.741-.899-.554-.852-.475-.867-.78-1.193-.39-.488-.36-.325-.35-.348-.881-.814-1.28-1.145-1.419-1.24-3.026-2.114M120.975 556.292l.437-1.332.686-2.687.874-3.137 2.043-7.574 1.341-5.002 2.753-10.78M149.689 525.102l-1.245.267-2.278.457-1.91.333-1.536.233-1.272.1-1.154.054-1.264.024-1.208-.093-2.239-.17-3.76-.326-2.714-.201M620.94 460.514l.055.28.058.7-.012.541-.085 1.914-.562 3.36" clip-path="url(#pa2b0c0a540)" style="fill:none;stroke:#000"/><path d="m559.755 435.62.347.015.28.046.36.124.495.224.386.198.425.38 1.735 1.893.468.442.433.367.273.202.347.182.55.251.363.117.267.105.286.065.66.132.71.182.549.174 1.91.507.562.205.581.279 1.552.856 2.044 1.053 2.086 1.088 1.13.713 1.826 1.138.203.088.245.063.244.037 2.08.157.223.027.273.09.292.115 2.34 1.07.788.247 3.276.813.889.31.975.418.51.205 1.034.306 5.335.922 5.506.89.62.113.3.093.316.17.335.248.328.387.25.45.171.471.097.546.18 1.17.086.697.09.375.16.345.167.26.421.371.46.295.761.491 1.092.84.331.291.8.767.3.283.495.344.652.45.744.449 1.236.712 1.393.829.308.186.346.255.268.221.162.124.304.286.62.589.909.832 1.1 1.054M618.952 476.378l.222-.453.1-.29.099-.356.467-2.657.157-1.355.019-.755.004-.833.101-.983.273-1.386M506.766 417.884l1.186-.371M506.766 417.884l1.911 1.944M492.389 420.215l2.062.062 1.459-.077 1.673-.109 1.256-.17 1.08-.205 1.158-.29 2.597-.717 3.092-.825M503.366 429.664l1.528-3.648.68-1.758.23-1.305.124-.31.21-.24.383-.34.554-.43.397-.248.433-.465.772-1.092M532.083 436.87l-.2-.5-.192-.356-.213-.333-.495-.584-.284-.372-.352-.352-2.913-2.06-2.776-1.813-9.53-5.987-4.4-2.95-2.05-1.735M532.083 436.87l.234-.477M531.982 449.501l.109-.731.094-1.394.116-1.294-.039-3.617-.015-3.082-.008-1.37-.156-1.143M593.071 559.387l-.255-.33-.554-.458-.819-.394-1.092-.295-2.98-.642-3.111-.41-2.363-.35-2.27-.48M556.143 550.578l1.39 1.168 1.31 1.038.436.24.522.174.929.236 1.357.271 1.372.147 2.036.26 3.416.484 5.631.759 2.742.287 2.343.386M577.506 549.02l.936 1.17.795.936.199.2.125.164.074.152.051.243.027 2.192-.086 1.951M608.55 588.323l.496 1.447 1.295 3.438.89 1.828 1.216 2.2 1.435 2.74.749 1.712.35.596.5.72.74.845 1.14 1.053" clip-path="url(#pa2b0c0a540)" style="fill:none;stroke:#000"/><path d="m581.503 614.62.76-.061.737-.213 2.38-.883 2.413-.763 2.06-.48 5.287-1.1.99-.403 1.038-.596 1.568-1.177 2.105-1.285 2.473-1.402 1.037-.526.78-.303.944-.201 1.88.016 5.646-.14 3.76-.201M346.288 517.269l-1.418-1.72M344.897 515.425l-.027.124M333.669 519.344l1.486-.608 1.173-.491.913-.357.687-.201.69-.182.787-.144 1.093-.147.376-.073.337-.093.768-.248 1.29-.561 1.144-.57.484-.244M349.712 511.74l-1.088.832-.974.693-.788.604-.566.488-.803.65-.596.418M344.87 515.549l-.126.574-.14.604-.234.759-.351.998-.445.992-1.037 1.866M333.669 519.344l1.646.271 1.49.279 1.1.248 1.614.371 1.107.28.983.286.928.263M353.737 525.276l-1.21-.224-1.177-.333-.725-.202-.718-.27-1.052-.442-1.482-.713-.82-.372-.663-.27-.943-.35-1.248-.347-1.162-.411M303.537 521.772l1.182-.128 1.388-.14 1.497-.232 1.396-.294 1.763-.302 1.193-.186.85-.178.694-.24.897-.34 1.17-.318.827-.252.616-.14.686-.096.648-.062.885-.05 1.15-.035 1.162.054 1.295.132 1.084.108.96.078.927.023h1.194l1.342-.078.927-.023.874.008 1.146.07.905.085 1.474.108M349.412 508.44l.125-.794.214-1.25M352.45 512.729l-.023-.146-.034-.149-.078-.154-.189-.281-.838-1.422-.23-.332-.273-.295-1.014-1.119-.359-.39" clip-path="url(#pa2b0c0a540)" style="fill:none;stroke:#000"/><path d="m349.712 511.74-.142-.127-.121-.15-.072-.192-.058-.264v-.244l.046-.255.114-.457.065-.248.016-.352-.055-.492-.093-.519M352.434 512.994l-1.871-.806-.85-.449M352.434 512.994l.016-.265M352.434 512.994l3.268 5.072M356.147 525.37l.88-.063M353.737 525.276l1.13.078 1.28.015M354.404 542.418l.152-.066.167-.162.086-.152.417-1.227.234-.712.156-.844.047-.643-.023-.775-.102-.852-.023-.286-.024-.302.028-.442.074-.41.07-.364.211-.565.21-.52.18-.565.093-.626.04-.651.007-.76-.132-4.135-.125-1.99M361.013 524.82l-3.494.41-.491.077" clip-path="url(#pa2b0c0a540)" style="fill:none;stroke:#000"/><path d="m354.178 523.569 1.647.242.26.025.265.01.526-.014.1.025.073.074.036.147-.057 1.23M354.178 523.569l-.441 1.707M354.178 523.569l.572-2.21M355.702 518.066l.82 1.092.49.55.617.65.682.62M361.013 524.82l-.32-.69-.53-.899-.8-1.188-.33-.383-.309-.321-.413-.361M354.75 521.358l1.99.596.253.039.25-.012.245-.066.21-.205.613-.732M354.75 521.358l.952-3.292M397.647 572.292l.834.828 1.615 1.518 1.325 1.154.835.557.764.426.835.232 1.069.187.99.054 1.326.023 1.318-.04 5.147-.216 2.777-.155 1.302-.224 1.022-.248.89-.317.779-.458.632-.48.874-.998.85-1.108.982-1.223.944-1.046.835-.852M429.366 566.67l-1.017.816-1.248 1.069-.741.643-.768.708" clip-path="url(#pa2b0c0a540)" style="fill:none;stroke:#000"/><path d="m462.498 596.19-1.498-.116-1.03-.155-1.107-.233-1.006-.286-1.318-.519-.944-.348-.485-.167-.4-.136-.359-.104-.425-.178-.428-.202-1.44-.754-1.365-.736-1.119-.647-.546-.333-.42-.236-.403-.19-.612-.263-.526-.182-.561-.201-1.303-.458-1.166-.464-.745-.298-.425-.182-.289-.186-.304-.178-.468-.352-.636-.446-1.918-1.266-.577-.445-.628-.48-.928-.635-.811-.465-1.014-.48-.874-.271-.647-.229-.359-.162-.206-.132-.313-.294-.214-.31-1.115-1.293-1.833-2.258-.382-.418-.312-.298-.34-.275-.26-.224-.184-.186-.113-.19-.067-.217-.09-.457-.436-2.18-.71-2.269-.397-1.014-.398-.751-.452-.535M429.366 566.67l.52-.33M439.35 576.9l-.874-.419-.472-.225-.296-.178-.242-.255-.2-.294-.295-.384-.343-.372-.367-.313-.429-.333-.46-.403-.308-.348-.191-.248-.2-.33-.28-.522-.133-.372-.1-.321-.118-.345-.148-.364-.183-.314-.313-.472-.366-.469-.18-.185-.26-.213-.29-.132-.42-.12-.297-.077-.136-.082-.105-.098-.153-.177-.16-.267-.214-.391-.19-.344-.138-.167-.183-.197-.16-.117-.78-.383M473.947 561.821l-1.217.21M486.165 558.608h-.546l-1.704.034-.39.043-.43.077-.83.248-3.748 1.541-2.304.693-2.266.577M473.158 562.524l.368-.289.42-.414M303.537 521.772l-.46.039M392.436 550.696l1.358 7.26.99 4.47.96 4.692.183.914.144.732.219.736.296.793.476.953.585 1.046M383.721 584.616l.394-.182.355-.162.475-.322 1.79-1.126 1.397-.961 1.115-.906.92-.96.96-1.045.639-.682.546-.666.663-.767.526-.55.355-.356.328-.271.515-.407.651-.425.694-.635.768-.81.835-1.091M383.721 584.616l-.296.167M355.296 571.997l.504.1.436.097.48.117.694.178 1.385.414 1.369.434 4.344 1.363 1.372.48 1.194.457 1.786.798 2.176.929 1.918 1.022 3.237 1.696 5.654 3.19.741.45.57.356.565.538M383.425 584.783l-2.991 1.998-4.68 3.779-.96.782-.724.519-.414.232-1.16.562M353.105 581.19l1.825.743 2.543 1.3 1.848.883.83.384.706.38 1.123.615 1.108.635 1.045.736 1.404 1.076 2.083 1.379.951.635 1.06.697 1.475 1.076 1.39.926M340.575 561.503l.437.357.495.43.184.19.273.332.46.535.807.987.308.418.328.507.589.837.347.477.323.386.304.33.512.344.729.353 1.271.638 6.298 2.897 1.056.476M353.105 581.19l.874-3.26 1.158-4.28.136-.507.055-.368v-.356l-.032-.422M416.147 388.517l-1.918-.267M416.147 388.517l-.266 2.85M416.147 388.517l.241-1.975M416.724 382.08l-.336 4.462M413.153 384.467l.935.285.694.272.624.31.366.31.328.402.288.496M411.266 383.89l1.887.577M396.09 391.072l-8.34-2.114-4.482-1.217M346.42 386.813l3.151.645M340.65 385.821l1.528.225 1.459.24.842.132.733.147 1.209.248M321.744 388.501l-2.695-2.105M319.272 391.94l.234-.53.304-.47.347-.534.565-.705 1.022-1.2M314.518 382.857l4.531 3.539M332.094 377.76l1.143-.602M336.399 378.809l-1.26-2.65M336.399 378.809l-1.56.944M335.14 376.16l-1.903.998M126.182 399.827l-.06.252-.288 1.704-.25 1.766-.015.705-.078 1.13-.117.837-.265.681-.258.48-.273.388-.296.294-.312.232M166.398 436.773l-3.065-1.564-3.62-1.828-1.614-.983-1.278-.674-1.162-.744-.835-.681-.788-.69-.733-.735-1.529-1.654-.616-.794-.472-.638-.164-.268-.14-.255-.349-.568-.128-.23-.102-.118-.103-.09-.127-.08-.17-.076-.25-.093-.288-.058-.28-.035-.165-.015-.104-.027-.09-.033-.085-.054-.097-.082-.084-.091-.128-.186-.21-.371-.235-.492-.128-.353-.07-.259-.07-.221-.11-.217-.171-.298-.289-.368-.741-.875-.632-.759-1.092-1.154-1.766-1.955-.94-1.088-.46-.457-.226-.175-.192-.135-.335-.159-.433-.162-.437-.17-1.598-.477-1.26-.453-.62-.19-.565-.12-.905-.147-.679-.093-.487-.086-.277-.026-.363-.054-.222-.047-.265-.077-.449-.147-.702-.256-1.037-.325-.444-.117-.578-.232-.49-.186-.305-.131-.195-.117-.164-.17-.257-.317-.312-.427-.343-.72-.164-.247-.164-.101-.156-.062-.336-.054-.514-.063-.702-.046-.772.023" clip-path="url(#pa2b0c0a540)" style="fill:none;stroke:#000"/><path d="m120.437 389.206.34.588.151.267.148.229.242.395.353.753.169.333.08.19.036.072.035.052.062.06.135.098.343.194.23.13.129.099.099.123.06.107.038.099.08.362.171.867.101.341.087.155.073.082.106.084.24.082.245.072.265.083.149.072.077.074.056.084.031.083.026.114.032.123.078.344.066.28.404 1.35.808 2.18M180.122 441.137l-1.424-.399-3.76-1.076-3.01-.883-3.175-.992-.96-.379-.72-.336-.675-.299" clip-path="url(#pa2b0c0a540)" style="fill:none;stroke:#000"/><path d="m149.689 525.102.276-.98.14-.45.094-.285.055-.264.015-.209-.047-.225-.093-.208-.078-.287-.04-.233-.03-.24v-.356l.25-1.23.14-1 .085-.775v-.596l-.015-.976-.46-5.173-.11-1.2-.168-.684-.064-.245-.035-.237-.006-.209.026-.234.054-.283.103-.41.114-.304.12-.395.098-.468.078-.45.068-.69.018-.446-.008-.289-.031-1.58.023-1.529-.02-.573-.035-.53-.042-.531-.082-.747-.047-.62.016-.728.05-.6.07-.5.152-.74.266-1.312.187-.79.117-.82.109-1.046.086-1.394-.047-2.169-.016-3.422.055-2.038.024-.975-.063-.806-.078-.465-.046-.294.03-.255.094-.372.172-.666 1.45-4.46.609-1.774.304-1.069 1.2-4.282 1.272-4.275.624-2.169.928-3.771.133-.62.156-.875.082-.86.09-.937.035-.248.017-.1.04-.086.046-.057.06-.041.115-.03.174-.005 1.72-.122 2.16-.078 1.147-.015 1.692.054.14-.008.157-.046.108-.047.086-.093.024-.1.039-.178.164-2.951.374-8.255.04-5.298M159.454 522.699l-2.47.765-3.072.674-3.23.75-.993.214M159.355 570.704l.952-1.425.265-.333.374-.194.523-.077.655-.008.866.062.32.054.15.068.122.108.069.1.066.152.074.213.076.377.035.334.035.29.074.217.09.2.183.295.32.45.336.62.413.541.57.72.265.38.147.279.118.294.124.434.242.945.226 1.432.078.868-.039.371-.093.403-.936 1.959" clip-path="url(#pa2b0c0a540)" style="fill:none;stroke:#000"/><path d="m159.355 570.704-1.544 3.686-.125.597.008.24.031.2.133.186.226.101.257.078.39.046.398.124.491.225.772.41 2.301 1.154.733.434.929.62.561.596.71.906.429.526M159.454 522.699l-.255 2.655-.226 1.386-.359 1.432-.218.86-.491 1.309-.905 2.4-.266.543-.249.333-.421.418-.562.519-.623.674-.593.89-.492 1.084-.78 1.89-.499 1.65-.304 1.417-.133 1.208.016 1.548-.039 4.012.14 3.346.125 1.053.156 1.859-.031.774-.062.589-.14.51-.968 2.122-.374.883-.117.488-.008.325.016.667.194.929.328.851.374.806.375.627.53.52.617.448.499.271.693.217.882.349.35.147.336.26.265.282.508.612 2.612 2.842M211.065 518.856l-2.293.024h-2.255l-1.092.015-.927.085-.944.124-1.068.054-1.67-.015-1.84-.155-3.175-.194-3.892-.201-2.495-.124-1.35-.1-1.427-.086-1.248.008-.717.031-.928.054-1.342.178-1.599.163-1.497.131-1.194.109-1.267.159-7.398 1.266-1.575.434-8.418 1.883M296.9 406.41l-.355.33-.967 1.076-.905 1.108-.749.975-.632.945-.561.93-.46.844-1.124 2.238-3.026 6.141-1.068 2.1-1.396 2.206-.46.65-.562.698-.873.921-2.652 2.517-1.194 1.131-.479.422-.285.271-.28.272-.215.228-.21.279-.157.19-.144.147-.288.247-.344.283-.166.147-6.104 5.855-1.467 1.433-.71.728-.771.712-.975.821-1.193 1.061-4.82 4.655-2.87 2.827-1.896 1.75-1.1.86-.858.634-1.076.659-1.037.576-1.295.609-.912.348-1.42.422-.583.17-.163.083-.117.072-.079.1-.066.142-.091.18M276.45 467.24l-1.697-.72-1.1-.333-.678-.225-.468-.27-.413-.257-.304-.286-.328-.38-.343-.472-.273-.472-.515-1-.92-1.696-.367-.635-.499-.673-.413-.403-.344-.24-1.286-.566-1.154-.488-1.303-.665-2.044-1.038-.624-.287-.553-.14-.733-.115-.687-.05-.682-.028-.542.008-.616.024-.511.023-.503-.008-.503-.024-.433-.007-.378.046-.406.07-.538.162-.675.264-1.022.403-1.411.627-1.201.457-.96.294-1.278.264M216.945 519.212l.335-.038 1.015-.179 2.347-.603.725-.147.465-.078.51-.07 1.06-.116 1.194-.155" clip-path="url(#pa2b0c0a540)" style="fill:none;stroke:#000"/><path d="m220.798 546.217.203-1.17.07-.689-.032-.643-.257-1.324-.233-2.006-.04-.534.024-.434.046-.256.422-1.44.64-2.114.303-.829.273-.681.312-.557.14-.31.077-.353.01-.205-.047-.395-.063-.705-.156-.666-.265-.527-.585-.99-.935-1.472-.149-.337-.078-.325-.047-.349.024-.301.18-.88.264-.968.624-2.23.476-2.2.117-.313.113-.174.148-.176.191-.128.36-.153.303-.19.277-.244.281-.263.807-.86M216.945 519.212l-.475.063-.976-.04-1.45-.162-2.98-.217M196.698 512.854l.82.93.537.426.858.495 1.084.473 2.426.983.881.356.261.101.16.012.176-.062.105-.19.097-.182.106-.07.072-.03.129-.01.216.01 2.032.32.46.132.32.117.647.425.89.628.85.503 1.24.635M444.697 460.914l.362 1.006.206.476.285.623.257.496.27.472.381.515.192.237.148.228.078.197.062.24.016.283-.297 1.305-.062.271-.047.387-.03.33-.018.249-.007.22-.042.224-.059.17-.097.252-.324.557-.172.326-.155.317-.168.492-.2.596-.362 1.44-.078.43-.054.264-.023.267.026.229.036.352.027.422-.004.515-.491 9.309-.035.468-.036.372-.074.26-.085.278-.07.325-.048.35-.03.374-.082 1.541-.016 1.971.047.318.093.252.176.282.18.19.292.183.296.115 2.424.757.226.12.172.12.116.155.057.128.02.174-.006.161-.033.196-.047.253-.11.604-.108.573-.098.686-.074.801-.047.635-.078.724-.076 1.166.023.164.082.194.108.155.16.136.198.125.32.148 2.265.878 1.12.48.119.09.087.093.056.081.026.075.004.074-.015.136-.285.954-.214.821-.859 3.195-.116.41-.1.325-.023.188-.002.258.03.228.06.194.109.26.109.255.041.251.008.264-.05.352-.135 2.037-.578 4.491-1.367 10.967-.033.24.096.35M486.165 558.608l-.457-1.782-1.435-.495-3.057-2.23-2.371-.125-11.543-8.859-2.62-3.036-.5-1.858-1.123-1.487-2.62-4.957-11.896-5.767M214.668 526.035l-1.014 2.827-1.997 5.622-.027.178.012.194.054.201.098.246 2.219 4.262.116.182.075.2.007.253-.039.212-.07.237-.144.352-.195.376-.445.635-.222.329-.163.155-.153.081-.171.015-.207-.03-2.866-.876-.176-.02-.1.007-.099.068-.054.092-2.503 7.264-3.073 9.154M214.668 526.035l.53-1.572 1.747-5.25M399.979 452.286l-.258 3.407-.253 2.42.027.155.07.143.121.116.23.128 2.546 1.019.39.185.34.175.304.24 1.17 1.057 1.287 1.262.28.268 1.315 1.177 1.184 1.198.083.116.06.141.038.169-.02.204-.608 1.757-.027.182-.012.17.047.152.097.147.195.163 4.193 2.087 1.208.727M444.697 460.914l-.489.014-.401-.019-.394-.058-.449-.105-4.52-1.235-6.8-1.704-.835-.216-1.13-.272-4.906-1.224-7.683-1.928-2.273-.561-.73-.19-.436-.093-.347-.042-.32.015-.421.043-.472.003-.612-.042-3.225-.14-2.141-.115-1.252-.082-.835-.058-.931-.12-2.531-.407-.585-.092M397.634 397.373l-3.542-1.024M397.634 397.373l3.488.89M398.322 395.593l-.363 1.048-.325.732M397.109 402.898v-3.16l.054-.588.07-.449.157-.527.244-.801M398.322 395.593l.97-2.798.16-.282.257-.29.254-.247M401.024 389.113l-.066.302-.66 2.157-.074.158-.093.132-.168.114M396.09 391.072l.886.21 2.155.56.24.051.592.083M367.335 392.122v-.24l-.074-.337-.148-.28-.328-.44M368.633 394.387l-.222-.21-.28-.096-.293-.03-.336.03-.273.1-.296.214M367.335 392.122l.004.108-.023.492-.141.914-.242.759M368.633 394.387l.047-.256M368.93 395.107l-.133-.166-.09-.236-.074-.318M377.72 409.14l-7.366-1.813M444.697 460.914l-.348-.97-.452-1.192-.242-.736-.145-.55-.565-2.145-1.209-4.19-.5-1.51-.311-.75-.226-.566-.172-.38-.83-1.44-.133-.376-.09-.33-.043-.328.016-.33.05-.34.351-2.153.64-3.694.168-1.112.132-.759.183-.828.278-1.208.742-2.98 1.065-3.607.018-.186-.04-.139-.052-.107-.11-.104-1.764-.769-1.353-.577-1.03-.461-.567-.288-.166-.11-.136-.132-.05-.13-.016-.168.043-.198 3.216-6.219M437.2 402.589l.094.27.215.283.394.353.42.317.816.589.413.263.968.659 1.114.937.508.418 1.325.798 1.576.768.131.07.106.097.05.118.004.16-1.052 2.604-3.233 7.559" clip-path="url(#pa2b0c0a540)" style="fill:none;stroke:#000"/><path d="m431.663 414.77 1.474.969.398.252.4.269.232.209.204.246.17.174.351.197.305.11.366.092.312.034.324.059.569.162.546.148.733.224 1.154.318 1.848.619M431.663 414.77l-.597 2.316M473.158 562.524l-.245.192-.378.243-.577.326-.608.31-.523.305-.596.4-.577.471-.535.523-.32.465-.409.74-.472.867-.21.441-.094.368-.043.38-.008.433.176 1.786.175 2.357.06.446.077.507.008.399-.074.306-.118.267-.183.464-.218.775-.273 1.324-.6 3.292-.457 1.846-.168.686-.148.93-.148 1.052-.11 1.115-.116 1.24-.078.96-.086.62-.171.526-.304.658-.687 1.247-.44.852-.465 1.042-.257.565-.172.484-.148.62-.14.836M477.98 612.189l-.336-.085-.261-.1-.21-.16-.215-.186-.348-.34-.51-.662-1.412-1.712-2.69-3.051-1.28-1.332-.507-.561-.433-.418-.57-.496-.393-.364-.437-.515-.405-.504-.27-.398-.303-.457-.304-.453-.281-.337-.246-.28-.367-.32-1.376-1.181-.846-.701-.53-.43-.387-.333-.265-.267-.3-.356M472.73 562.03l-2.753.148-4.157.464-7.58.77-.773.063-.71-.008-.717-.097-2.964-.682-1.107-.255-1.162-.201-1.287-.179-1.334-.1-2.473-.302-1.224-.163-.85-.062-.725.07-.679.124-1.115.24-2.313.565-1.053.31-.76.283-.523.24-3.58 1.583-.994.434-.97.457-1.042.608M398.973 555.44l.827-1.425.576-.953.234-.487.219-.604.137-.353.112-.201.125-.143.16-.124.207-.117.323-.158.574-.174.55-.124.467-.032.985-.007.102-.003.082-.013.046-.017.04-.024.05-.043.078-.032.096-.005.136.011.195.064 1.33.457 1.236.383.585.198.522.236 1.525.724 2.394 1.107 1.412.775.749.527.881.666 2.324 1.882 1.88 1.525.71.565.835.743.569.55 1.247.942.702.537 1.872 1.596.64.503.764.496.67.41 1.744 1.042M338.489 559.753l-.16-.135-1.208-1.038-1.073-.855-2.542-2.169-1.03-.836-.733-.574-5.99-4.355-.64-.55-.783-.686-.87-.786-.652-.712-.713-.778-.71-.941-.276-.43-.492-.81-.205-.284-.165-.24-.197-.213-.273-.248-.28-.25-2.694-2.42-.823-.77-.514-.492-.492-.399-.624-.468-.428-.356-.39-.357-.418-.367-.367-.275-.413-.252-.41-.24-.409-.198-.565-.205-.617-.294-.639-.33-.514-.36-.89-.89-.663-.899-.44-.724-.207-.414-.242-.635-.335-1.293-.156-.65-.16-.84-.137-.504-.113-.326-.164-.333-.198-.348-.293-.519-.308-.592-.292-.616-.199-.43-.226-.569-.195-.511-.768-1.874-.118-.302M328.23 387.425l.136.14.156.1.507.201.608.131.41.055M334.246 384.446l.25.233.183.155.25.143.292.097.402.105 1.82.294M334.075 380.226l.616 1.096.234.209.117.097M334.246 384.446l.18-.135.107-.127.087-.246.052-.3.062-.733.066-.542.058-.282.067-.198.117-.255M334.075 380.226l.764-.473" clip-path="url(#pa2b0c0a540)" style="fill:none;stroke:#000"/><path d="m325.699 385.146 1.73-1.137.843-.666 1.263-.705 1.802-.852 2.738-1.56M319.198 376.458l.662.82.503 1.511.238 1.829 5.098 4.528M319.653 368.535l1.058.411M347.886 391.051l-1.196 3.545M348.838 391.202l-.545-.09-.407-.06M367.335 392.122l.39.511.394.538.288.472.273.488M328.23 387.425l.962-.41 1.202-.535 1.34-.635 2.165-1.2.347-.199M319.272 391.94l1.474-.938 1.185-.704 1.552-1.115.445-.295.382-.24.491-.248.765-.275 1.158-.379.6-.163.297-.058.199-.021.41-.08M347.356 371.893l1.88.027M347.356 371.893l-.001-.27M346.027 371.873l.297-.004.343.012.69.012M347.355 371.623l-.501-.007-.374-.018-.437-.023M347.355 371.623l1.866.026M362.279 376.331l.153-.378M362.279 376.331l-3.172-1.559M362.432 375.953l-3.178-1.516M391.322 386.944l2.293.55M391.322 386.944l.682-.166M392.004 386.778l1.478.322M369.88 379.769l.195-.413M366.081 377.978l.178-.32M359.107 374.772l.147-.335M355.292 373.02l.13-.308M349.237 371.92l-.016-.271M346.027 371.873l.016-.298M527.934 604.174l-.928 3.043-.36.86-.254.43-.326.416-.223.227-.257.266-.304.403-.725 1.216-.718 1.456-1.084 1.657-.795 1.394-.305.736-.413 1.27-.137 1.072-.039.55.02.72-.105.477-.172.368-.242.344-.402.45-1.63 1.455-1.883 1.58-1.985 1.603-.57.526-.327.392-.437.685-.495.778-.81 1.162-.147.2-.19.138-.18.074-.233.016-.194-.007-.182-.022-.306-.109-.663-.263-1.295-.604-1.926-.79-.702-.186-.655-.039-.788.07-1.708.565-2.698 1.092-.897.202-.827.023-.788-.116-1.973-.69-1.72-.708-.838-.441-.788-.507-1.404-1.18-1.115-.95-.913-.945-.554-.752-1.255-3.058-.068-.262-.088-.323-.133-.244-.64-.774-1.746-1.897-1.397-1.387-.245-.248-.23-.24-.227-.34-.206-.26-.27-.306-.46-.425-.943-.697-.655-.434-.452-.233-.469-.185-.467-.151-.414-.128M492.993 592.202l-1.038.584-.51.194-.721.263-.765.22-.815.214-.788.286-.425.182-.483.256-.718.472-.99.744-.921.82-.757.86-.842 1.193-.577.72-.772.759-.908.944-.242.31-.16.271-.129.322-.105.41-.078.84-.226 2.711-.055 1.077-.11.774-.104.487-.106.45-.171.62-.18.518-.234.628-1.084 1.858M320.59 384.365l-2.964-2.362-1.996-1.58-.27-.197-.183-.198-.148-.301-.094-.38-.015-.275.07-.434.117-.29M296.9 406.41l-1.307-1.107-1.236-1.092-2.878-2.37-2.582-2.126-.666-.612-.41-.325-.355-.247-.565-.345-2.067-1.263-1.884-1.138-1.603-1.019-1.333-.902-1.985-1.216-.117-.096-.097-.136-.02-.144.028-.15.136-.182 6.216-4.16M213.94 419.998l-1.495 1.363-1.716 1.565-2.328 2.2-5.136 4.91-4.882 4.677-3.058 3.005-4.609 4.468-.665.641-.158.087-.142.045-.168.025-.238-.004-4.478-1.026-2.605-.747-1.457-.374-.265-.085-.119-.008-.084.014-.052.04-.163.343M184.39 363.99l1.046.34.8.228.358.132.238.14.289.216.795.538.38.245.455.216.179.055.142.025.213.008.236-.022.236-.045.173-.005.143.011.193.033 1.04.23.697.16.499.135.546.159.472.074.445.054.592.042.64.058 1.528.182 2.601.33 1.903.03.855.04.693.065.516.081.518.147.413.14.593.294.538.333.41.28.335.27.433.616.222.375.2.268.12.089.281.166.417.237 1.626 1.037.546.271.41.166.518.128.554.186.3.14.258.162.514.364 1.022.713 1.193.813 1.821 1.581M338.489 559.753l.359-.538.596-.798.632-.801.886-1.15.538-.643.64-.956.444-.766.756-1.518.67-1.344.636-1.371.242-.387.223-.279.335-.46.324-.508.682-1.15 2.629-4.747.346-.438.25-.193.234-.112.304-.07h.378l.566.077 1.736.577.744.194.515.07.25-.024M392.436 550.696l-1.084.934-.615.604-.858.921-2.94 3.323-.407.503-.428.597-.281.48-.351.708-.261.608-.082.134-.1.052-.13.033-.15-.004-.148-.029-.188-.106-3.067-2.372-1.318-1.034-.057-.07-.013-.075-.006-.068.236-.631.031-.29-.023-.233-.121-.244-.215-.256-.268-.213-5.437-2.09-2.542-.945-1.006-.349-8.447-2.911-.413-.12-.344-.074-.285-.027-.183.009-.177.023-.12.022-.134.024-.16-.005-.157-.029-2.792-.81-.425-.148-.562-.209-1.488-.558-.311-.108-.157-.072-.171-.159-.224-.214-.067-.128-.031-.166.016-.167.429-2.339M340.575 561.503l-.55-.448-1.536-1.302M415.881 391.366l-1.903-1.084M413.206 391.382l.67-.79.102-.31M414.229 388.25l-.087 1.134-.086.565-.078.333M406.5 390.453l.373.1 1.525.369.858.143.982.096.976.062.924.047.64.066.428.046M407.51 387.257l.174.036 3.198.48 3.347.477M393.482 387.1l.133.394M391.914 382.708l.32.45.21.386.165.434.873 3.122M401.048 388.958l-.695-.279-.427-.12-.466-.093-5.978-1.366M407.51 387.257l-.902-.18-1.373-.365-6.504-2.145-1.302-.473-.882-.279-.92-.247-3.713-.86M390.544 380.734l.45.572.316.438.206.352.398.612M349.571 387.458l.538-3.306M348.838 391.202l.102-1.144.117-.767.117-.612.18-.596.217-.625M333.237 377.158l.456.516.218.295.32.476.226.426.382.882M320.711 368.946l.288.112 2.293.84M492.389 420.215l-1.518-.046-2.043-.039-1.037.035-.835.035-3.24.182-2.765.097-1.919.085-1.684.03-1.28.008-1.528-.05-.831-.034-1.045-.132-1.88-.279-.978-.163-1.237-.213-.975-.224-.772-.201-.59-.235-.328-.151-.692-.37-1.17-.685-2.168-1.305-5.234-3.028-2.51-1.503-1.097-.666-.885-.488-.64-.336-1.005-.485-2.028-.898-2.559-1.061-.826-.434-1.24-.65-.968-.62-.553-.402-.417-.314-.42-.347-.632-.486-.793-.503-.558-.37-.604-.378-1.45-.878-.254-.124M409.449 343.4l.355.174.119.084.094.068.105.107.132.16.129.14.093.12.134.136.21.225.267.174.21.075.19.053.314.075.196.072.28.159.3.145.303.162.285.086.302.067.314.037.131.068.101.087.08.165.084.277.394 1.49.336 1.19.076.276.091.299.066.16.088.175.222.25 1.485 1.422.725.833.62.654.518.46.503.388.667.372 2.082 1.061.886.402.518.249.25.139.452.21.683.448 1.599.918.475.232.172.118.14.198.344.633.261.558.215.585.136.352.16.48.101.608.082.67.437 3.253.198 1.568.278 1.522.14.813.062.604.02.473.003.689.005.38-.016.483-.004.419.082.588.078.46.133.454.323.96.421 1.011.492 1.2.358 1.046.68 1.909.74 2.296.433 1.514.265 1.166.207.697.144.523.133.7.123.665.103.399.172.536.268.709.332.673.242.562.083.217.053.25.016 1.264-.063 1.556-.07.972-.015.86-.022.699.02.413.068.522.101.419.336 1.002.347 1.042.515 1.332.214.558.132.495.11.57M346.203 368.299l-.16 3.276M340.501 367.993l-.179.465-.172.48-.125.442-.09.526-.253 1.394M337.44 367.276l1.946.562.64.078.475.077M337.44 367.276l1.417-5.18M335.032 366.65l.164-.014.15.019 2.094.621M362.261 353.023l1.584-3.261M375.614 362.362l-1.857 4.152M372.239 363.802l.594-.413.312-.175.226-.123.25-.105.41-.136.51-.154 1.073-.334M372.239 363.802l-1.896 1.104M372.239 363.802l1.369-2.928M372.27 365.737l-.018-1.407-.013-.528" clip-path="url(#pa2b0c0a540)" style="fill:none;stroke:#000"/><path d="m371.332 360.25.335.432.18.31.117.325.117.318.093.596.047.875.018.696M370.343 364.906l-1.628-.17M370.343 364.906l1.927.831M372.27 365.737l1.487.777M370.326 359.002l.397.464M370.326 359.002l-.129-.728M369.312 358.68l.21.027.406.124.398.17M370.723 359.466l.609.784M370.177 360.775l.258-.635.288-.674M371.404 358.378l-.26.306-.42.782M373.976 366.615l-.219-.101M373.976 366.615l1.627 4.195M379.324 369.32l-2.236-1.102-.835-.403-1.06-.48-.64-.364-.577-.356M379.324 369.32l1.382-.394M380.11 369.856l-.17-.159-.116-.11-.202-.134-.298-.133M380.11 369.856l.596-.93M385.792 345.49l-.398 1.15-.561 1.1-.578 1.023-.366.538-.27.469-.545.999-.324.612-.273.604-.195.418-.83 2.064M376.558 361.612l.093-.022.133-.045M378.94 363.25l-.201-.318-.228-.312-.12-.143-.135-.132-.173-.149-.16-.102-.163-.073-.277-.073-.217-.08-.186-.097-.125-.087-.171-.139M376.558 361.612l-.656-.473M226.367 348.314l-1.418 4.824M413.153 384.467l.584-1.999.082-.36.05-.438.023-.476-.046-.53-.304-1.379-.086-.76-.031-.619-.008-.612.062-.774.308-1.692.047-.387.004-.364-.02-.322-.1-1.502-.067-.48-.035-.415-.004-.372v-.332l.047-.345.152-.804v-.228l-.035-.184-.09-.175-.144-.143-.617-.518-.57-.597-.342-.399-.281-.403-.565-.956-.476-.949-.23-.445-.359-.565M378.94 363.25l1.727.677.562.295.484.31 1.614 1.107.316.26.207.205.21.313M390.937 371.835l.143-1.298.062-.472.113-.434.176-.51.312-.617.128-.311.018-.21-.07-.19-.166-.162-1.357-.595-.807-.32-.932-.351-.361-.13-.252-.062-.452-.046-.331-.022-.262.014-.263.031-1.078.26-.46.08-.336.043-.28-.02-.422-.096M388.364 373.321l.797-.371.608-.302.523-.271.328-.233.163-.131.154-.178M385.708 376.767l.856 1.364.491.79.519.76M393.48 397.964l.612-1.615M394.764 394.574l.894-2.36.433-1.142M336.881 361.513l-1.899 4.432.05.705M366.899 360.967l.55.28.221.062.222-.003.258-.04.312-.069 1.715-.422M369.312 358.68l-.297-.042-.748.038-.125.037-.14.076-.065.104-.039.077-.24.473-.76 1.524M214.668 526.035l-.89.558-.436.286-.413.333-.469.41-.327.38-.464.64-.73.97-.3.35-.401.383-.495.426-.45.368-.44.267-.413.178-.519.135-.429.031-.483.023M472.73 562.03l.428.494M353.902 348.257l-.442-.532-1.152-1.355M352.725 377.57l-2.326-.864-.437-.02-.328.09-.218.124-3.54 2.168-.243.062-.233-.008-.125-.116-1.035-2.026M377.66 375.626l-.237-1.096-.25-.868-.202-.55-.32-.96-.253-.592M512.56 416.168l-1.348.4-3.26.945" clip-path="url(#pa2b0c0a540)" style="fill:none;stroke:#000"/><path d="m496.331 410.205.27.31.229.325.223.376.156.414.034.275.009.306-.028.992.043 1.87-.012 2.525.02.107.043.075.087.036.121.008.24-.025 3.435-.472.586-.082.624-.046 2.04-.012 1.648.027.839.105 1.014.194M541.56 340.383l1.575 1.543.674.5.058.29-.09 1.33.145.343.542.537.6.534 1.186.664.41.61.286.635 1.082 1.61.94.96 1.005 1.59.785.73.706.794v.43l-.304.453-1.357 1.302.004.712.132.453.565.698.007.377-.318.885-.46.913-1.529 2.033-1.256 1.07-3.548 1.943-3.136 1.425-4.367 1.34-3.276 1.347-.667.554-1.04 1.077-1.416 2.06-1.151 1.785-2.176 2.834-.53 2.673-.866 1.835-2.219 4.14-.527.492-11.909 9.163-1.111.594-2.818 1.282-.345.264-1.252 1.272-.374.09-1.63.186-1.266.425-1.982.156-1.264.705-.554.6-.561 1.27-1.6 3.261-.217.705-.094.898.105 1.164.25.648.924 1.638" clip-path="url(#pa2b0c0a540)" style="fill:none;stroke:#000"/><path d="m492.389 420.215-.184-1.622-.09-.326-.124-.321-.453-.7-.058-.21-.025-.238.03-.196.131-.24.36-.492.724-.638 1.611-1.468.46-.414.773-.589.311-.315.133-.208.156-.224.136-.322.09-.375.041-.376-.021-.39-.059-.346M527.934 604.174l.752.573.511.387.347.205.433.24.476.198 1.654.604 3.4 1.069 2.2.704.873.457.476.38.499.852.358.658.305.596.226.782.25 1.231M532.769 589.917l-.148.558-.144.532-.148.401-.117.182-.226.257-.453.444-1.75 1.97-.364.391-.257.372-.199.43-.296.952-.074.5-.028.445.073.254.12.215.15.215.289.304.183.255.137.256.035.242.008.193-.09.39-.18.464-1.356 4.035M486.165 558.608l.573.077.341.085.47.163.524.238 1.332.73 1.716.867 3.268 1.324 1.404.457 1.544.337.776.229.792.306.545.251.613.503.558.581 1.88 2.068.865 1.015.476.491.928.856 1.606 1.293 1.849 1.402.897.75.772.775.402.492 1.563 2.483.765 1.238.733.93.436.358.617.447.437.271.678.488.527.418.885.836 2.768 2.308 1.763 1.076.85.419 1.704.643.737.313 4.813 2.258 3.197 1.533" clip-path="url(#pa2b0c0a540)" style="fill:none;stroke:#000"/><path d="m550.492 598.183-.296-.108-1.688-.74-2.972-1.463-4.476-2.137-8.291-3.818M603.509 425.265l-.343 1.115-.125.643-.125.836-.343 1.727M578.317 432.56l4.941 1.92.238.024.265-.066.28-.151 2.231-1.595.792-.554.632-.422 1.88-1.127.803-.43.401-.19 1.396-.522.971-.295.468-.224.625-.38.366-.26.327-.34.21-.317.488-.744.656-.759.397-.406.414-.357.343-.197.27-.09.225-.02 2.933.184 2.64.023M617.918 420.401l-.117.337-.18.224-.28.233-.472.248-.983.523-1.552.619-2.671 1.208-1.689.597-.99.263-1.373.31-1.435.178-2.667.124M620.94 460.514l-.094-.376-.627-2.346-.094-.682-.07-1.13.016-1.015.222-1.534.273-2.687.117-1.642.16-1.432.877-2.533.445-1.069.347-.797.448-.821.753-1.057.698-.933.71-.899 1.185-1.603.577-.98.27-.712.097-.67-.004-.523-.086-.518-.148-.59-.258-.68-.94-2.785-1.021-3.249-.476-1.626-.433-1.104-.487-1.25-.336-.822-.233-.44-.36-.438-.319-.287-.534-.348-.558-.303-.5-.17-.383-.075-.295-.026-1.419.05-.542-.01M558.631 431.63l2.091-.294 1.326-.217 1.247-.108M539.843 433.412l-.928-.573-.593-.387-1.2-1.177M559.755 435.62l-.37.158-.367.14-.296.003-.535-.039-.737-.131-3.307-.846-.343-.037-.246.022-.222.067-.21.068-.238.089-.287.037-.213.004-.935-.055-1.876-.155-.96-.05-1.602-.011-.636.011-.76-.035-.452-.1-1.541-.41-2.496-.518-1.01-.348-.273-.072" clip-path="url(#pa2b0c0a540)" style="fill:none;stroke:#000"/><path d="m532.317 436.393 2.16-.487 2.223-.45.905-.216.452-.225.366-.294 1.42-1.31" clip-path="url(#pa2b0c0a540)" style="fill:none;stroke:#000"/><path d="m547.447 415.801-.631 1.537-.162.304-.156.279-.248.323-1.072 1.228-.53.666-.457.515-.484.449-.732.5-.597.472-.234.232-.468.512-1.638 1.68-.585.635-.445.48-1.415 1.398-.257.248-.285.352-.336.423-.417.576-.8 1.24-.416.553-.336.302-.651.492-.323.302-.223.271-.164.31-.18.511-.389 2.06-.499 1.742M558.631 431.63l.61 2.2.24.922.274.867M547.447 415.801l4.134 1.859.686.236.62.135.285.049.224.064.158.104.152.163.187.325.184.635.861 2.959.246.696.383.906.343.852.226.663.23.778.253.782.32 1.154.297.666.206.45.063.43v.402l.144.445.175.268.317.352.49.456M554.632 404.713l-.243.617-.265.372-.476.426-.57.573-.569.495-.663.543-.194.228-.176.283-.46.697-.484.662-.503.709-1.053 1.812-.292.553-.464 1.073-.773 2.045" clip-path="url(#pa2b0c0a540)" style="fill:none;stroke:#000"/><path d="m539.309 411.263.386.332.374.33.613.437.943.593.901.465 1.002.441 1.038.36.67.279.31.15.293.171.236.151.69.43.682.4M539.309 411.263l1.174-.17 1.466-.357 1.747-.5 2.18-.724 1.525-.484 1.415-.495 1.135-.457.682-.306.503-.287.53-.333.441-.333.512-.387 2.013-1.717M561.553 400.807l-1.237.473-1.287.472-.6.275-.698.34-.4.235-.401.26-.451.323-1.15.933-.697.595M574.324 412.672l-12.495-9.464-.25-.255-.147-.372-.024-.534M561.553 400.807l-.09.837-.055.403M622.789 384.66l-.663.364-.948.476-.534.217-.464.167-.663.185-.924.163-.55.027-.581.004-.687-.039-1.326-.163-1.926-.325-1.91-.356-2.57-.472-.939-.172M622.789 384.66l-1.131-.086-.99-.007-4.72-.248-7.027-.565-.246.003-.186.028-.14.07-.122.17-.123.71M512.56 416.168l-.116-.67-.066-.278-.246-.744M539.309 411.263l-.979.143-2.687.403-2.211.329-3.81.573-2.64.38-1.98.294-2.684.371-1.59.232-1.256.24-1.233.256-2.386.674-2.473.767-.82.243M550.492 598.183l.863.315 2.16.793.972.399 1.391.597 1.053.565.71.298.827.314 1.989.68 3.75 1.38 1.304.588 1.084.627 1.404.922 1.778 1.27 1.115.805 1.723 1.456 1.225 1.37 1.482 1.558 1.599 1.571 1.271.697 1.06.325h1.089l1.162-.092M618.952 476.378l1.641 1.36M617.485 486.756l.084-.25.087-.371.082-.552.035-.43-.171-3.028-.004-2.27.047-.445.093-.422.324-.782.89-1.828M597.852 567.757l-.216-2.296.043-.228.11-.303.221-.367.85-1.263 1.053-1.347.289-.627.187-.418.164-.713.335-1.325.234-.82.367-.69 1.1-2.145.756-1.943.27-.542.229-.326 1.388-2.037.359-.588.312-.635.09-.418.097-.256.139-.174.162-.112.218-.086.312-.08.366-.005.348.085 8.04 5.925M606.02 583.288l-1.178-1.773-2.628-4.19-.64-1.1-1.528-3.26-1.919-4.584-.275-.624M593.071 559.387l.26.335.834 1.247 2.901 5.011.786 1.777M606.02 583.288l.577.82.562.9.42.743.407.929.564 1.643" clip-path="url(#pa2b0c0a540)" style="fill:none;stroke:#000"/><path d="m593.071 559.387.08-.547-.02-.523-.054-.372-.214-.7-.507-1.379-.14-.484-.086-.333-.094-.507.008-.643-.148-1.44-.026-.486.016-.409.134-.561.18-.62.218-.697.047-.554-.059-.317-.077-.515-.032-.887.082-1.421.094-1.1.09-.387.167-.492.367-.677 1.614-2.223 1.443-2.734.96-1.95.569-1.1.593-.969.706-1.08 1.485-1.986.57-.845.81-1.425 1.544-2.718 1.112-1.952.185-.14.197-.057h.242l.359.05 3.888.98.452.062.344-.008.268-.085.917-.608 2.698-1.626 1.521-1.061.772-.62.632-.55.6-.557.874-.883.414-.553.311-.535.285-.519.203-.325.234-.333.48-.577.374-.375.609-.632.296-.445.136-.27.113-.3.05-.27-.014-.43-.09-.469-.671-2.083-.386-.883-.113-.352-.07-.322-.055-1.432-.133-1.209-.156-.418-.082-.197-.132-.217-1.864-2.296-2.126-2.726-.335-.36-.406-.333-.366-.225-.565-.278-.488-.216-.26-.144-.277-.184-.137-.126-.211-.275-.074-.244v-.302l.039-.45.125-.329 1.06-2.397 1.147-2.067.25-.446.103-.246.078-.22.052-.366.203-1.092.075-.418.159-.596.335-.845.913-2.168M531.982 449.501l-1.1-.182-.41-.083-.382-.106-1.158-.461-.819-.357M556.143 550.578l-1.364-1.147-3.463-3.083-3.3-3.028-2.316-2.13-.709-.72-.928-1.03-.515-.704-.351-.705-1.74-3.942-1.395-3.493-2.208-5.366-2.655-6.18-5.438-13.661-3.052-7.404-3.4-8.383-2.083-5.038-.148-.468-.078-.492-.027-.48-.031-.597.058-.786.168-.774.16-.538.185-.447.306-.599.507-.805 1.2-1.712 2.364-3.183 3.112-4.267 1.28-1.96.366-.627.234-.51.125-.496.109-.914-.04-1.658-.163-1.556-.223-1.143-.214-1.595-.136-1.239-.016-.584.032-.887.073-.535.137-.503.199-.566.35-.983.329-1.026.358-1.781.18-1.352M401.048 388.958l-.024.155M393.615 387.494l5.295 1.27.538.136.535.1 1.041.113M370.197 358.274l.25-.022.357.012.6.114M370.197 358.274l-.42.182-.465.224M375.315 359.829l.135.365.156.399.132.314.164.232" clip-path="url(#pa2b0c0a540)" style="fill:none;stroke:#000"/><path d="m373.608 360.874.41.216.714.127 1.17-.078M345.054 330.235l.858-3.005M319.17 305.355l.786.005 1.086.14 1.162.302.922.56 2.183 1.057 2.722 1.348.825.183 1.129.755 1.053.819 1.031.916.999 1.714.727 1.789.478.442.52.312.522.55.37.647.379 1.133.923 2.17.473 1.245.925 2.05.923 1.815.405.603 1.27 1.022 1.684 1.272.073.407 2.314 1.624" clip-path="url(#pa2b0c0a540)" style="fill:none;stroke:#000"/><path d="m327.15 331.066.834-.042.432.08.636.28.917.483.97.403.859.306.853.265.406.016.456-.066.638-.135.546-.132.883-.172 1.299-.058 2.187.03 1.217.063 1.025.096.73.167.51.162.312.082.16.01.082-.028.133-.096.176-.22.193-.294.624-.902.826-1.13M356.53 329.378l-4.948 5.872M531.404 178.004l2.16-9.034-.997-3.222-1.03-10.162-.406-9.852 3.432-24.196M394.764 394.574l-.672 1.775M394.764 394.574l3.558 1.019M398.322 395.593l3.44.971M366.673 387.403l.644-3.17M362.677 381.763l-2.731-.543M352.725 377.57l-1.133 4.876 2.198.512M320.59 384.365l-1.54 2.03M348.41 324.026l5.22 3.406M347.582 327.603l.36-1.524.468-2.053M352.778 321.936l.87-2.426.279-.055 2.258.79.278.276-.185.754-.296.385-1.296.736-.685-.037-.943-.323-.28-.1" clip-path="url(#pa2b0c0a540)" style="fill:none;stroke:#000"/><path d="m352.778 321.936.28.1.943.323.685.037 1.296-.736.296-.385.185-.754-.278-.275-2.258-.791-.278.055-.871 2.426M345.912 327.23l-1.944-.827M345.912 327.23l1.67.373M346.622 332.701l-1.321 1.68M353.902 348.257l-1.123 1.655M373.608 360.874l.13-.278.268-.38.841-.329.468-.058" clip-path="url(#pa2b0c0a540)" style="fill:none;stroke:#000"/><path d="m371.332 360.25.723.055.574.076.497.19.482.303M535.491 178.798l-4.087-.794M116.958 167.669l3.245-4.121.811-5.577 2.558-4.46 2.839-2.232 1.903-.371 2.06-.155 1.497-.96 9.858-1.705 2.9.217M154.426 210.787l.5-1.611.03-5.7-.561-2.448-.125-3.842-.156-4.864-.468-2.292-.436-5.577.062-1.208.811-3.625.218-1.549-.03-1.054-.437-2.385-.125-1.394.062-6.878-.125-1.115-.374-1.828-.562-1.394-1.404-2.758-1.279-2.168-2.527-3.098-1.435-4.43-1.435-1.264M550.492 598.183l6.876-13.478-.25-.774-2.027-2.354-.437-2.324-.468-3.004-1.279-3.346-1.497-1.858-4.711-3.841-.156-.899 2.246-4.244 7.354-11.483M407.51 387.257l-1.01 3.196M153.584 211.158l.842-.371M151.582 280.099l7.368-13.113 2.963-4.74.344-1.023-.187-1.053-2.216-6.63-.686-2.602.094-1.642.78-2.974.218-1.394-.125-1.209-1.279-5.05-.718-3.47-2.37-5.638-.125-1.642-.437-3.253-1.716-7.033-.405-1.89-.437-.805-.437-1.208.156-.806 1.217-1.766" clip-path="url(#pa2b0c0a540)" style="fill:none;stroke:#000"/><path d="M191.332 205.86v-.216l-4.617-4.028-1.248-.712-.936-.341-1.185-.062-1.872.217-.78.186-4.055 1.456-1.186.712-1.435 1.519-.717.31-1.03.092-.437.248-1.03 1.022-.592.373-3.244.897-3.588 2.077-2.59 3.438-4.274-1.27-.998-.713-1.092-.278M336.881 361.513l-1.07-.317M336.881 361.513l1.976.584M341.953 363.02l-3.096-.923M341.953 363.02l1.25.481M338.857 362.097l1.454-4.39M340.31 357.708l-1.877-1.334M340.31 357.708l1.144.812M404.01 399.111l-2.888-.848M401.122 398.263l.64-1.699M401.763 396.564l3.016.852M401.763 396.564l1.426-3.653M208.644 127.15l.318-.09.928-.46 1.144-.555.994-.433.888-.199.855-.011 1.087-.095 1.038-.344 1.263-.799 1.718-.948.676-.514 1.926-.527.942-.604.931-.445 1.462-.349.786-.13 1.088-.716.718-.493.603-.54.55-.387 1.356-1.094 1.226-1.034.842-.694.622-.548.488-.49.544-.581.807-.776.819-.871 1.344-1.434.767-1.017.25-.533-.03-.595.273-1.523v-1.114l.384-1.098.53-.644.7-.425.826-.534.715-.82.546-.959.676-.713.779-.482 1.422-.371.81-.078 1.068.384.88.3" clip-path="url(#pa2b0c0a540)" style="fill:none;stroke:#000"/></g><path id="PatchCollection_1" d="m355.39 379.114-.89 2.045-.03.217.187.155 3.775 1.084.28.062.266-.17.686-1.952-.016-.248-.25-.17-3.587-1.24-.25.047z" clip-path="url(#pa2b0c0a540)" style="fill:#00f;fill-opacity:.8"/></g></g><defs><clipPath id="pa2b0c0a540"><path d="M100.42 86.4h537.16v554.4H100.42z"/></clipPath></defs></svg>