<svg xmlns="http://www.w3.org/2000/svg" width="960" height="960" viewBox="0 0 720 720"><defs><style>*{stroke-linejoin:round;stroke-linecap:butt}</style></defs><g id="figure_1"><path id="patch_1" d="M0 720h720V0H0z" style="fill:#fff"/><g id="axes_1"><path id="patch_2" d="M119.844 640.8h498.312V86.4H119.844z" style="fill:#fff"/><g id="LineCollection_1"><path d="m313.782 358.249 1.162 1.01M313.782 358.249l-.612-.49M313.782 358.249l.308-.178.27-.182.243-.185.215-.192.343-.268.237-.26.04-.09.062-.213M305.135 363.322l3.04-1.779 5.607-3.294M357.028 304.645l4.485-4.64 4.48-4.573 5.97-6.006 5.505-5.535 3.477-3.447 3.497-3.822 3.515-3.745 3.88-3.977 4.522-4.176 8.36-7.9 8.54-7.465 8.802-7.96 6.532-6.007 4.54-3.863 1.267-1.12 2.09-2.246 1.367-1.615 1.005-1.537 1.204-1.972 4.021-9.099 5.018-9.812 2.659-5.967.784-1.458.944-1.596.864-1.674.684-1.419.823-1.831 1.16-3.233M478.72 108.998l-.51 1.184-2.994 6.619-2.875 7.819-1.004 2.839-.864 2.6-.763 2.7-.865 3.703-1.066 5.178-2.069 9.026-2.823 13.125-.593 3.245-.201 1.852-.241 1.733-.322 1.852-1.467 6.067-.783 2.64-.924 2.424-.684 1.792-.65 1.554" clip-path="url(#pbdb5546759)" style="fill:none;stroke:#000"/><path d="m349.776 97.062.1.433.222.414.563.374 2.752 1.832 3.939 2.935 2.653 2.128.462.375.503.374.502.571.362.433.422.571.522.592.683.768.764.768.744.572 5.084 3.96 6.25 5.28 5.989 5.003 4.24 3.526.482.335.553.355.392.295 2.753 2.088 3.275 2.68 5.788 4.944 5.144 4.137 2.13 1.733 1.196.946.815.562.452.295.683.522.583.542.964.857 4.13 3.723 6.953 6.028 5.226 4.551 3.094 2.679 2.914 2.344 5.627 4.945 5.828 4.787 6.29 5.024 2.753 2.423 2.466 2.184M582.55 578.876l-11.385 1.43-16.951 1.878-8.24.985-7.015.682-.722.126-.904.137-3.317.105-6.189.782-5.905.712-4.645.49-4.668.702-5.019.893-4.54.674-10.443 1.438-39.843 6.173-34.915 5.021-22.548 3.23-22.528 2.57-16.256 2.038-16.43 1.978-3.263.365-3.487.354-6.29.768-8.43.907-.753.108-.443.078-.633.09-.653.117-2.08.254-1.859.18-1.677.177-3.9.56-3.647.523-4.181.464-2.29.245-2.59.202-.685.064-.944.078-1.348.09-1.888.167-3.256.305-2.186.239-7.45.834-3.557.444-2.301.295-2.206.261-4.043.428-4.13.444-4.331.59-4.25.62-3.819.542-4.44.542-8.663 1.051-7.234.633-7.696.69-14.355 1.314-3.521.448-3.648.473-7.174.775-4.009.279-3.427.295-6.018.62-7.024.71-2.261.265-1.456.148-.583.05-.825.078-.823.054" clip-path="url(#pbdb5546759)" style="fill:none;stroke:#000"/><path d="m269.636 394.483-.852 1.125-1.487 1.93-2.452 3.388-2.452 3.762-1.588 2.64-1.166 2.066-5.179 8.64-3.295 5.534-2.051 3.583-4.21 6.995-1.918 3.25-2.06 3.653-.874 1.428-.914 1.625-1.599 2.827-.532 1.064-.522 1.024-1.046 2.127-.713 1.596-1.077 2.262-.993 2.17-1.165 2.482-2.02 4.458-2.522 5.636-2.443 5.365-3.094 6.798-2.974 6.617-3.205 7.102-3.126 7.048-6.078 13.386-1.538 3.31-1.517 3.377-2.795 6.842-4.64 12.629-2.432 6.726-2.408 6.752-3.138 8.591-3.296 9.424-6.589 17.842-1.871 5.045-1.769 4.963-3.014 9.04-3.437 10.065-1.708 5.061-1.125 3.349-.392 1.058M292.945 366.503l2.475 2.018M292.945 366.503l-4.837-3.422M299.073 358.65l-4.088 5.223-.52.717-1.52 1.913M296.005 368.998l9.13-5.676M296.005 368.998l7.245 5.411M296.005 368.998l-.585-.477M290.21 372.997l.465-.313 3.011-2.144 2.32-1.542M307.992 377.976l5.984-7.777M307.992 377.976l4.67 3.447M307.992 377.976l-4.742-3.567M299.98 388.207l4.158-5.393 3.854-4.838M284.829 377.002l9.59 7.033M284.829 377.002l-.563-.451M284.829 377.002l.51-.461 1.466-1.103.744-.547 1.416-1.04 1.244-.854M281.118 381.283l3.485-4.036.226-.245M279.619 364.71l4.493 3.453M279.619 364.71l-5.358-4.156M279.619 364.71l4.013-5.23M279.619 364.71l-3.836 5.187M299.073 358.65l2.225-2.635M299.073 358.65l5.5 4.24M299.073 358.65l-4.703-3.52M305.135 363.322l4.23 3.279M305.135 363.322l-.561-.432M309.365 366.6l-6.115 7.81M309.365 366.6l4.611 3.6M314.944 359.26l-2.064 2.833-2.653 3.427-.862 1.08M313.976 370.2l5.501-7.03M313.976 370.2l4.694 3.362M283.632 359.48l4.476 3.6M283.632 359.48l-4.585-3.345M283.632 359.48l4.032-4.904M323.496 377.152l4.5-6.05M323.496 377.152l-6.25 7.857M323.496 377.152l4.16 3.484M323.496 377.152l-4.826-3.59M275.783 369.897l4.31 3.305M275.783 369.897l-3.28 4.992M269.436 364.955l2.83 2.17 3.517 2.772M284.112 368.163l-4.019 5.04M284.112 368.163l3.996-5.082M289.711 372.52l-.29-.277-.365-.351-.261-.197-4.683-3.532M288.108 363.08l6.262-7.95M280.093 373.202l-3.48 4.775M280.093 373.202l4.173 3.349M294.37 355.13l5.191-6.566M287.664 354.576l1.723-2.391.347-.268.437.05.342.218 3.857 2.946M312.662 381.423l4.583 3.586M312.662 381.423l6.008-7.861M304.678 391.715l2.072-2.657 1.88-2.422 4.032-5.213M304.678 391.715l2.48 2.03M299.98 388.207l2.45 1.896 2.248 1.612M301.269 396.139l1.267-1.62 2.142-2.804M318.67 373.562l5.187-6.635M281.118 381.283l-.644-.473M291.326 388.602l-2.501-1.769-3.155-2.285-4.552-3.265M275.978 387.246l.364-.327.171-.183.42-.44 1.02-1.236 3.165-3.777M291.326 388.602l-3.163 4.423M291.326 388.602l3.092-4.567M291.326 388.602l5.937 4.618M308.356 400.627l-3.881 4.237M308.356 400.627l.67.662M308.356 400.627l-4.645-4.213M302.857 406.746l1.618-1.882M331.195 377.916l1.178 1.274 1.91 1.753.285.32.177.261.155.271.321.646" clip-path="url(#pbdb5546759)" style="fill:none;stroke:#000"/><path d="m341.19 378.47-2.293 1.514-3.676 2.457M332.468 384.576l.287-.254.472-.375.814-.66.583-.463.597-.383M331.195 377.916l1.942-1.471M331.195 377.916l-3.54 2.72M334.287 375.574l1.907 1.938M334.287 375.574l-1.15.87M363.64 372.707l-1.103-.234-1.005-.157-.763.039-1.93.551-1.608.394-1.376.296-1.738.187-.713-.089-.804-.107-.673-.188-1.075-.315-1.97-.316-3.296-.128-3.798.119-.975.167-.974.236-1.096.365-1.055.424-.944.344-1.09.51-1.367.77M324.042 390.175l-2.513-3.355M324.042 390.175l8.426-5.599M324.042 390.175l-8.695 6.174M321.529 386.82l7.567-5.029M321.529 386.82l-8.975 6.842M329.096 381.791l3.372 2.785M329.096 381.791l-1.44-1.155M315.347 396.35l-.568-.565-.713-.719-1.512-1.404M310.52 391.774l1.104 1.057.572.532.358.299M315.347 396.35l-6.32 4.939M317.245 385.009l-3.125 4-.421.522-.387.473-.332.296-.387.27-.577.364-.82.469-.676.371M307.158 393.746l1.31-.856.694-.394.613-.345.745-.377M582.55 578.876l-.695-.227-.381-.207-.217-.221-.185-.252-.05-.226-.02-.364.964-4.846 1.588-8.055 1.567-6.697 1.447-6.657.824-3.112.342-1.418.643-4.058.502-5.16.242-1.655.1-.61 1.648-6.283 2.29-10.084.946-4.315 1.467-4.825.28-1.418.422-1.181.1-1.104.061-1.438.1-.925 2.11-10.045 2.212-10.282 1.125-4.235 1.165-6.263.985-4.393 1.607-7.268 1.95-8.982.884-5.298v-.788l-.18-.61-.342-.414-.583-.335-.663-.119h-.462l-3.98.237-1.105.079-4.1.511-6.45.71-3.979.374-6.933.71-4.36.354-4.301.315-7.808.837-5.818.404-4.16.374-2.3.227-5.687.68-4.291.432-6.3.66-6.07.7-4.702.482-1.377.079-5.496.532-2.13.187h-.412l-3.808.345-2.874.334-2.291.246-.703.04-3.527.345-2.964.236-5.245.463-.623.078-4.16.484-4.924.462-2.552.227-3.497.383-4.27.345-1.497.08-5.315.551-5.818.521-5.014.365-2.733.286-5.004.463-6.753.62-6.5.423-.724.04-.463.108-.3.069-4.764.503-1.909.314-1.798.159-4.894.58-5.828.64-5.677.493-4.933.393-3.266.277-1.286.138-2.281.236-6.652.699-4.501.413-.231.05-.221.069-.373.02-4.028.443-3.678.207-.734.01h-.462l-.552-.07-.433-.138-.361-.177-.352-.226-.402-.296-.944-.866-15.836-15.876-12.66-12.724-13.103-13.08-9.37-9.525-12.47-12.281M303.711 396.414l-.65-.053M307.158 393.746l-2.126 1.901-.291.256-.302.227-.27.187-.458.097M301.269 396.139l.407.109.352.04.472.05.562.023M304.475 404.864l-4.843-4.393.024-.303.161-.325.221-.236.623-.68.854-.897 1.547-1.669M288.163 393.025l4.47 3.8M290.146 399.635l-3.738-3.004-.176-.274-.01-.296.16-.374 1.781-2.662M299.98 388.207l-5.562-4.172M319.477 363.17l4.38 3.757M319.477 363.17l-4.533-3.91M301.298 356.015l6.326 5.014M301.298 356.015l3.378-4M313.17 357.759l-.924-.73-2.1-1.447-3.114-2.088-1.668-1.073-.688-.406M299.561 348.564l.18.006.192.069.15.074 4.593 3.302M276.614 377.977l3.86 2.833M276.614 377.977l-4.11-3.088M272.503 374.89l-7.648-5.856M297.263 393.22l4.006 2.919M296.024 394.857l.528-.69.497-.59.214-.357M269.636 394.483l8.803 7.84 5.79 4.886M275.384 387.562l-.181.277-5.567 6.644M274.261 360.554l-1.433 1.322-2.37 2.147-1.022.932M264.855 369.034l1.04-.993 3.034-2.679.507-.407M279.047 356.135l-1.576 1.506-.865.768-1.627 1.497-.718.648M279.047 356.135l5.04-3.45.377-.087.502.06 2.698 1.918M279.047 356.135l-4.606-3.49M238.765 343.104l-.784 3.476-.03.532.01.236.056.252.07.157.166.286.206.212 9.149 7.318 9.188 7.276 4.135 3.262 3.924 2.923M327.997 371.103l5.14 5.342M327.997 371.103l-4.14-4.176M258.67 313.123l5.617 4.432 4.2 3.378 5.366 4.305 6.28 4.757 4.34 3.456 4.583 3.822 3.366 2.56 1.879 1.468 2.813 2.69.141.137.12.128.076.143.075.231v.758l.04.212.101.345.13.241.825 1.102.94 1.276M275.978 387.246l-.436-.262M275.978 387.246l-.594.316" clip-path="url(#pbdb5546759)" style="fill:none;stroke:#000"/><path d="m594.62 577.537-.713.086-11.358 1.253M275.542 386.984l-8.833-5.913-9.214-6.214-9.365-6.314-4.723-3.18-4.516-2.897-2.156-1.338-2.793-1.596-5.144-3.349-9.827-6.599-10.27-6.894-3.295-2.128-3.416-2.461-3.236-2.364-9.867-6.5-10.21-6.62-9.826-6.54-8.902-5.731-.483-.296-.643-.04" clip-path="url(#pbdb5546759)" style="fill:none;stroke:#000"/><path d="m224.288 194.516-4.949 9.593-8.74 14.404-1.5 3.995-2.152 1.98-6.314 11.264-8.944 16.078-7.783 13.517-8.704 15.19-3.106 6.486-13.347 22.017.074.97M275.542 386.984l-.158.578M280.474 380.81l-2.17 2.556-1.99 2.482-.175.234-.16.199-.164.212-.273.49M284.266 376.55l-1.42 1.626-1.095 1.25-1.277 1.384M289.711 372.52l-3.046 2.11-1.528 1.132-.442.394-.429.395M289.711 372.52l.498.477M295.42 368.521l-2.566 1.756-3.143 2.243M304.574 362.89l-3.425 2.019-3.26 2.078-2.469 1.534M304.574 362.89l3.05-1.861M313.17 357.759l-1.44.906-4.106 2.364M315.5 356.68l-.203.026-.202.046-.291.094-.276.13-.598.335-.427.246-.333.202M357.028 304.645l-5.162 6.193-3.296 4.196-1.589 2.164-5.947 8.729-2.934 4.235-2.915 4.469-2.672 4.267-1.165 1.822-1.557 2.413-1.267 1.891-1.537 2.02-1.105 1.496-1.185 1.36-.553.58-.503.474-1.057.932-.54.475-.673.582-.734.58-5.137 3.158M291.535 232.51l-.103 7.133-.41 5.189.342 1.195 3.72 3.447 4.916 4.71 7.066 6.52 7.646 7.305 7.442 5.633 16.692 14.883 15.907 13.927 2.275 2.193M129.427 98l8.67 7.953 5.513 2.884 3.925 2.578 3.704 1.757 6.144 3.756 6.281 3.6 4.967 2.8 2.373.153.836.154.938 1.058 1.297.802 2.356.563 1.929.12 2.082-.17 1.467-.206.53.12 1.006.665.717.683 2.066 3.192 3.055 2.73 4.795 2.936 1.64.188 2.696 1.434 9.797 6.861 14.063 7.92 6.042 2.696 14.712 3.584 1.912-.82 2.662-3.345 1.366-3.242 1.263-2.048 1.638-1.639 1.742-.956 3.96.922 5.222 1.604 3.584 3.073 1.707 1.4 1.706-.342 2.424-1.81 1.639-.921 1.877-.034 5.838 1.194 5.87-.136 2.868.341 7.68-.375 1.912-.99 13.517-14.473 7.203-8.739 9.797-10.24 14.968-16.454 3.602-3.498.791-.221M393.359 398.464l2.578 3.27M363.64 372.707l2.233 1.066 3.376 1.694 3.738 1.694 1.085.749 2.05 1.93 1.728 1.832 3.859 4.274.381.197.342.099.422.256 3.879 4.432 4.682 5.436 1.944 2.098" clip-path="url(#pbdb5546759)" style="fill:none;stroke:#000"/><path d="m412.015 416.788 1.144-3.72 1.245-1.588.973-1.178.29-1.348-.033-1.366-.342-.836-1.792-1.656-11.213-11.605-.786-.717-.631-.086-.512.086-7 5.69M423.604 384.889l.204-4.728-1.467-2.373-1.912-4.232-1.228-1.349-13.962-15.19-.495-.17-.324.085-13.5 9.199-.58.154-.461-.256-13.706-14.661-.683-.188-.614.188-13.125 12.544-.65.99-.101.734.256.717 2.662 3.653.307 1.04-.068.564-.517 1.097M478.72 108.998l.364.16.412.246.362.246.173.14.096.178.028.209-.277 2.586.02 1.634.04.543.1.374.171.335.282.453.262.246 1.386 1.162.592.542.383.502.18.325.04.266-.06.286-.13.434.03.374.07.286.08.216.252.226 1.467.631 1.587.847 1.518.828.3.059.494.039.442-.118.864-.453 2.984-1.546 1.025-.523.703-.413.864-.769.563-.68 1.337-1.447.291-.315.26-.473 1.378-2.995M594.62 577.537l-.117-.93-.401-1.163-.523-.827-.825-.67-1.125-.374-1.306-.315-.643-.02" clip-path="url(#pbdb5546759)" style="fill:none;stroke:#000"/></g><path id="PatchCollection_1" d="m491.66 564.149 15.01 5.149 1.305-2.623-.164-2.463 3.296-4.317 1.273-8.06-1.73-18.996-12.302-4.926-3.556 17.079z" clip-path="url(#pbdb5546759)" style="fill:#006400;fill-opacity:.8"/></g></g><defs><clipPath id="pbdb5546759"><path d="M119.844 86.4h498.312v554.4H119.844z"/></clipPath></defs></svg>