<svg xmlns="http://www.w3.org/2000/svg" width="960" height="960" viewBox="0 0 720 720"><defs><style>*{stroke-linejoin:round;stroke-linecap:butt}</style></defs><g id="figure_1"><path id="patch_1" d="M0 720h720V0H0z" style="fill:#fff"/><g id="axes_1"><path id="patch_2" d="M90 585.943h558V141.257H90z" style="fill:#fff"/><g id="LineCollection_1"><path d="m126.399 284.332 2.208-5.342 11.278-29.187 3.916-10.889 10.513-28.714 1.56-5.036.906-3.913 1.504-6.867.925-4.366.997-3.46M279.083 217.737l-1.287-.254-4.704-1.558-4.84-1.875-.009.009-1.985-.933-2.157-1.196-3.253-1.893-2.227-1.025-1.15-.42-1.015-.285-1.296-.25-2.071-.285-3.571-.525-2.357-.326-2.193-.507-2.502-.852-4.622-1.684-1.94-.924-1.903-1.015-2.7-1.63-3.137-1.885-2.284-1.376-2.12-1.015-5.983-2.663-5.673-2.282-6.019-2.537-3.081-1.25-1.595-.598-1.487-.145h-39.716M543.471 206.527l.684.215M527.805 208.316l5.674-1.087 5.011-.743 1.931-.163.834-.013.807.013 1.41.204" clip-path="url(#pcd738ab7f3)" style="fill:none;stroke:#000"/><path d="m530.852 218.377 4.213-4.88 1.169-1.205 1.314-1.086 3.67-2.799 2.253-1.88M515.904 221.307l-.1-2.936.073-2.518.217-1.558.046-.798v-.503l-.055-.81-.154-.97.05-.171.182-.14.303-.114 11.339-2.473M528.983 220.3l.082-1.558-.01-1.078-.036-1.716-.036-1.029-.163-1.24-.499-2.51-.516-2.853M556.4 213.036l-2.83 6.148M565.772 217.429l-5.103-2.356-4.27-2.037M544.155 206.742l.852.27 2.171.711.974.457 3.69 2.337 4.557 2.519M565.781 223.362l-.1-1.196-.109-1.748.037-1.676.163-1.313M582.349 226.468l.797-2.191-.013-.177-.047-.118-.125-.136-.974-.629-.93-.498-1.228-.635-4.767-1.395-7.115-2.518-2.175-.742M539.116 218.271l-7.858.127M553.57 219.184l-4.103-.596-3.916-.217-6.435-.1" clip-path="url(#pcd738ab7f3)" style="fill:none;stroke:#000"/><path d="m538.871 224.594.136-3.56.11-2.763M530.852 218.377l.406.02M530.852 218.377l-1.87 1.923M554.843 219.682l-.854-.351-.418-.147M565.781 223.362l-2.257-.417-2.012-.507-1.682-.48-3.267-1.45-1.72-.826M553.726 227.637l.563-3.45.554-4.505M565.781 223.362l4.894 1.839M572.061 236.332l-.23-1.385-1.156-9.746M582.349 226.468l-.702-.144-1.052.009-5.08.335-1.233-.054-1.096-.245-1.496-.689-1.015-.48M538.817 227.085l.054-2.491M553.726 227.637l-9.462-1.05-2.075-.01-1.224.09-2.148.418M525.747 230.663l4.088-1.105 4.188-1.024 1.784-.489 3.01-.96M558.177 243.815l-.426-2.083-.381-1.83-.426-2.237-.362-1.857-.218-1.323-.09-1.195.035-4.131-.072-.29-.154-.2-.308-.208-2.049-.824M520.01 232.067l-4.07 5.95M520.01 232.067l5.737-1.404M525.458 224.305l-3.907 5.488-1.541 2.274M572.061 236.332l1.116 6.55M579.231 235.472l-1.94.282-5.23.578M579.231 235.472l4.967-.47.662.036.58.226.644.399 2.452 1.922M515.94 238.018l-.29.498M515.904 221.307l.054 1.629-.154 10.417.136 4.665M589.75 242.552l1.382-.204 1.282-.259 1.95-.593 2.206-.589 1.586-.489 1.296-.534 1.377-.743M608.18 235.618l-.689.592-.342.18-.333.115-.925.312-.52.277-.898.584-.843.507-.788.412-.802.288-.435.111-.776.145M582.349 226.468l.526.218.852.707 1.468 1.358 1.043.825 1.531 1.014 2.728 1.432 3.29 1.43 2.51 1.232 2.385 1.586.779.589.462.588.82 1.515.086.179" clip-path="url(#pcd738ab7f3)" style="fill:none;stroke:#000"/><path d="m609.05 264.622-.689-4.385-.18-3.894-.337-1.794-.308-1.404-.634-1.92-.625-1.268-.97-1.903-1.051-2.373-1.668-3.043-1.042-1.984-.717-1.513M582.385 245.242l4.949-2.142.879-.254 1.536-.294M591.984 253.293l-1.188-6.317-.417-1.757-.63-2.667M574.41 248.569l-.134-.618-1.1-5.069" clip-path="url(#pcd738ab7f3)" style="fill:none;stroke:#000"/><path d="m558.177 243.815.634-.321.585-.114.847-.081 1.999-.027 4.164.212 1.903.163 1.097.023.671-.045.503-.077 1.237-.295 1.36-.37M551.026 246.18l4.241-1.36 1.722-.597 1.188-.408" clip-path="url(#pcd738ab7f3)" style="fill:none;stroke:#000"/><path d="m559.99 251.383-.644-1.5-.245-.868-.172-.788-.444-2.773-.308-1.64M546.827 246.962l.736-.076 1.777-.335 1.686-.371M559.99 251.383l-1.238-.942-3.892-2.735-1.614-.87-.852-.317-1.368-.34M582.385 245.242l-3.09 1.463-3.653 1.44-1.233.424M565.899 255.853l1.092-.928 1.423-1.504 1.527-1.517 1.849-1.72.77-.69.535-.335 1.314-.59M515.895 246.442l-2.565 1.703-1.74 1.232-2.928 2.101M417.628 360.801l67.342-77.266 8.411-9.583 4.786-5.924 2.864-4.33 4.686-7.347 2.945-4.873" clip-path="url(#pcd738ab7f3)" style="fill:none;stroke:#000"/><path d="m515.65 238.516-1.15 1.658-.88 1.603-1.849 3.859-3.109 5.842M559.99 251.383l4.78 3.642 1.129.828M579.863 262.818l-.886-.035-1.84-.19-1.395-.344-1.314-.48-1.188-.508-1.405-.897-1.848-1.367-4.088-3.144M579.863 262.818l.936.038 7.858-.182 7.36-.081M637.27 290.717l-2.162 1.496-1.17.607-1.54.47-7.93 2.564-2.366.725-1.151.263-.934.1-.942-.164-1.134-.353-.978-.417-1.142-.742-.989-.951-.788-1.205-1.405-2.337-1.65-2.772-1.83-2.528-1.35-1.793-2.538-2.753-1.124-1.604-.68-1.196-1.042-1.965-3.843-7.926-2.565-5.643" clip-path="url(#pcd738ab7f3)" style="fill:none;stroke:#000"/><path d="m591.984 253.293.443 1.356.563 1.404 3.027 6.54M126.399 284.332l-1.777 4.192M226.814 248.688l-.853.218-.951.136-2.474.163-1.704-.227-1.995-.48-1.313-.29-1.007-.135-1.305.035-1.042.154-1.695.417-1.278.435-1.042.245-1.35.208-.717.036-1.577.09-1.658.083-2.021.307-2.601.58-1.197.372-.68.37-1.042.698-3.898 3.116-1.55 1.16-.725.443-.697.282-.98.253-2.365.589-3.117.806-2.611.526-1.683.255-1.245.215-2.12.689-1.523.561-1.233.653-2.175 1.213-1.178.942-4.876 5.218-.816.906-.78.58-1.359.435-1.65.29-1.576.162-1.106.019h-1.487l-1.595.271-1.287.344-1.215.525-.997.617-.924.688-1.052.779-1.558 1.105-1.251.725-3.082 1.413-4.096 1.939-8.774 3.115-4.332 1.395M123.281 291.688l.226.165M123.281 291.688l1.34-3.164M267.826 311.393l.517-.253.844-.66 2.369-1.9.648-.334.625-.236.895-.324M290.962 294.981l-1.682.647-1.532.652-1.043.49-.833.524-1.242.907-3.544 2.97-3.009 2.555-3.055 2.726-1.298 1.234" clip-path="url(#pcd738ab7f3)" style="fill:none;stroke:#000"/><path d="m272.212 314.94-.706-1.055-.322-.698-.163-.607-.086-1.019.095-.53.089-.281.251-.498.752-.9 1.602-1.666M142.568 305.691l-.27-.193M142.568 305.691l1.971-2.693M233.493 369.388l-5.71-3.333-9.425-5.797-5.874-3.66-2.99-2.047-2.049-1.395-1.795-1.395-1.83-1.431-39.916-29.067-17.012-12.32-4.324-3.252M226.814 248.688l-.408 1.785-.49 1.83-.843 1.974-.67 2.673-.318 2.055-.036.626-.036.39-.335.94-.444.735-.263.652-.045.543.162.526.38.525.6.471 4.858 2.21.76.409 1.27.788.815.533.599.29.408.408.208.625.181.67.181.888.037 2.645-.019 2.428.037 2.953-.018 1.323-.309 7.626.073 3.786.145 2.718.09 2.03.11 1.684v5.724l-.11 5.816.037 1.141.109 1.45.253 2.046.037 1.413.145 2.012M233.45 362.838l-.002-.262.072-5.806.128-6.323.28-8.324.155-6.205-.046-.435-.054-.642-.145-.59-.109-.615-.054-.643-.027-.806.018-.97.154-6.377.018-1.34.109-2.863.018-2.608M267.826 311.393l-.358.096-.68.063-.879-.09-.62-.032-.363.072-.326.136-.39.335-.399.43-.553.888-.68 1.386-.625 1.975-.2.34-.217.24-.372.27-.371.1-.77.037-1.206-.009-.58.063-.562.11-.96.09-11.747.063-5.547-.054-5.456.127M276.277 333.885l1.365-.43 1.233-.363 1.196-.407.607-.136.644.009.956.1.693.035.84.028.688-.086.62-.19.517-.195.285-.24.223-.326.394-.408.263-.23 1.391-1.59.19-.317.018-.236-.05-.181-.113-.15-.57-.244-1.487-.78-4.532-2.3-2.701-1.44-1.305-.467-.603-.108-.435.013-.363.114-.385.307-1.078.748M272.212 314.94l.671 1.005.889 1.36 1.151 1.72.407 1.05.214.956.104.793-.036.688-.236.942-.598.96M274.225 329.528l-.235-1.707.027-.761.072-.761.118-.67.181-.608.39-.606M274.225 329.528l1.218 2.567M273.43 333.448l.319-.483.254-.616.118-.53.068-1.123.036-1.168M241.05 367.254l-.312.405M273.43 333.448l-.13.197-1.626 1.902-1.419 1.658-1.849 1.965-2.99 2.692-4.197 3.676-2.121 1.984-3.127 3.043-2.393 2.337-2.529 2.754-1.531 1.54-2.324 2.72-2.806 3.258-3.338 4.08M307.289 412.468l-6.916-4.819-5.881-3.84-2.394-1.649-5.981-4.157-3.853-2.637-6.39-4.239-3.425-2.536-3.861-2.636-1.251-.933-.893-.607-.974-.58-2.402-1.621-1.215-.824-.997-.589-1.16-.715-1.396-.825-1.713-1.186-1.042-.688-1.917-1.3-4.074-2.74-5.968-4.022-2.536-2.071M233.493 369.388l1.82 1.09M233.493 369.388l-.043-6.55M233.493 369.388l-.099 2.33M237.934 372.05l-2.621-1.571M257.022 383.899 244.188 376l-6.254-3.95" clip-path="url(#pcd738ab7f3)" style="fill:none;stroke:#000"/><path d="m240.738 367.659-.955 1.24-.76 1.232-1.089 1.92M315.093 419.492l-6.725-4.144-11.457-7.055-9.082-5.517-13.858-8.497-10.527-6.417-6.422-3.963" clip-path="url(#pcd738ab7f3)" style="fill:none;stroke:#000"/><path d="m244.098 391.598 1.196-.489 2.628-1.25 3.5-1.648 3.443-2.192 1.414-1.142.743-.978M276.277 333.885l1.229 2.667 3.762 8.243.516 1.124.643 1.177 1.015 1.54.916 1.268 1.006 1.25 1.441 1.531 2.52 2.364.698.788 1.531 2.355 1.007 1.468 2.329 3.106 3.046 4.195.434.733.3.698.715 2.59.132.526.263.625.648 1.331.77 1.323.915 1.25.68.77 2.148 1.993 1.006.86 1 .666 1.221.792 5.483 2.808 1.668.888 5.556 2.989.825.435.67.425M310.2 407.74l2.359-3.658 2.435-3.776 2.653-4.187 2.106-3.324 2.618-4.132" clip-path="url(#pcd738ab7f3)" style="fill:none;stroke:#000"/><path d="m339.764 407.468-3.046-3.705-5.71-6.893-2.076-2.473-.933-.97-1.903-1.738-1.713-1.512-.943-.753-1.07-.76M417.628 360.801l-22.957 26.278-6.1 6.73M377.16 399.352l3.534-1.83 3.925-1.947 2.37-1.091 1.582-.676M379.38 404.57l3.807-4.539 5.384-6.223M377.16 399.352l2.22 5.218M370.942 402.477l3.934-2.083 2.284-1.042M370.942 402.477l-2.692 1.268-1.55.77-1.468.834-1.323.86M366.247 411.055l-.997-2.029-1.341-2.817M352.498 390.385l3.054 2.98 1.015 1.123.59.806.623.93 6.129 9.985M339.764 407.468l8.655 11.44M335.784 413.02l2.085-3.088.734-.987 1.16-1.477M377.422 407.468l1.958-2.898M370.942 402.477l1.704 1.603 1.052 1.07.57.47 1.079.653 2.075 1.195M373.561 416.01l.898-2.392 1.06-2.925.544-1.024 1.36-2.2M366.247 411.055l.263 4.72M369.039 415.104l-1.496-2.373-.761-1.024-.535-.652M369.039 415.104l-2.529.67M372.356 420.014l-.889-1.232-1.123-1.622-1.305-2.056" clip-path="url(#pcd738ab7f3)" style="fill:none;stroke:#000"/><path d="m373.561 416.01-.324.016-.383-.055-.353-.054-.517-.215-.527-.235-.463-.17-.41-.071-.63-.059-.915-.063M372.356 420.014l.235-1.287.39-1.213.58-1.504M348.42 418.909l5.446 4.882M341.004 428.266l.653-.49.581-.652 3.435-4.846 1.803-2.31.943-1.06" clip-path="url(#pcd738ab7f3)" style="fill:none;stroke:#000"/><path d="m372.755 422.885-.245-1.504-.154-1.367M366.51 415.774l-.104 1.685-.091.788-.181.73-.689 1.327-1.237 2.074-.363.598-.28.353M367.475 425.117l-.947-.425-2.964-1.363M360.61 424.47l.996-.394 1.958-.747M353.866 423.79l.834.462M353.866 423.79l-.492 3.698M359.893 424.523l-.453.006-1.323-.054-3.417-.223M354.7 424.252l-.417 3.351M327.11 426.88l.889.543M327.11 426.88l-3.914-2.404M335.784 413.02l-2.691 3.977-1.804 2.826-4.178 7.056M341.004 428.266l-5.092 3.229M342.93 432.708l-.928-2.241-.998-2.2M341.201 432.577l-3.698-.715-1.591-.367M331.607 429.61l1.984 1.155.63.263.666.235 1.025.232M343.832 432.809l-.901-.1M343.832 432.809l1.478.362.82.235.368.086M346.643 432.83l-.852.017-1.959-.038M346.643 432.83l-.145.662M346.643 432.83l3.821.347M352.634 433.374l-2.17-.197M352.634 433.374l.045.707M352.634 433.374l.942.036M352.634 433.374l.296-2.558M353.576 433.41l.082-1.186.208-1.286M355.734 433.719l-1.025-.2-1.133-.109M353.576 433.41l.019.707M394.652 434.108l-17.151.502M463.236 466.698l-1.713-1.947-1.405-1.513-3.18-3.36-3.3-3.796-5.502-6.16-2.755-3.06-1.215-1.341-1.414-1.34-1.124-.78-1.422-.57-1.922-.498-2.212-.463-6.298-1.267-5.765-1.323-9.109-2.183-5.737-1.395-3.408-.725-3.299-.498-2.683-.29-2.23-.09-2.89.009M373.733 441.608l1.478.788 2.103.824 5.782 2.065 4.858 1.414 1.85.416 1.458.09 1.35-.035.898-.272.444-.435.308-.426.164-.85.081-2.03.145-9.05M377.5 434.61l-8.48.331M376.47 432.097l.472 1.223.559 1.29M369.02 434.941l-.416-2.2M373.733 441.608l-1.123-.725-.88-.987-1.169-1.83-1.54-3.125M360.818 434.298l4.758.516 1.505.1 1.94.027M353.903 437.731l-.884.083M353.903 437.731l-.308-3.614M353.903 437.731l.425 3.831M353.019 437.814l.177 3.15-.027.698M353.019 437.814l-.34-3.733M345.283 440.349l-.321 2.01M345.283 440.349l1.215-6.857M353.169 441.662l-2.348-.326-2.402-.408-3.136-.58M362.214 440.584l1.975 8.596M362.214 440.584l-7.886.978M360.818 434.298l.69 3.324.706 2.962M354.328 441.562l-1.16.1M354.328 441.562l1.5 9.113M350.49 450.417l2.316-7.387.363-1.368M364.19 449.18l-8.361 1.495M364.19 449.18l1.413 5.915M373.733 441.608l-.38 1.467-.49 1.078-.756 1.359-.39.507-.376.412-.408.376-.544.371-.933.39-1.985.607-3.282 1.005M344.25 450.04l-.136 6.74M344.25 450.04l5.547 2.42M344.962 442.36l-.413 3.614-.3 4.067M355.829 450.675l.756 5.072M351.977 451.15h.484l.73-.045 2.638-.43M374.286 454.062l-3.543.417M370.743 454.48l1.939 9.646M365.603 455.095l2.457-.245 2.683-.37M365.603 455.095l-3.498.2M365.603 455.095l1.419 5.834M348.41 456.472l4.106-.344M348.41 456.472l-4.296.308M348.41 456.472l-2.728 7.41M348.41 456.472l1.387-4.013M356.585 455.747l5.52-.453M356.585 455.747l-4.07.38M356.585 455.747l.98 6.45M352.516 456.128l.548 6.761M367.022 460.929l1.083 4.393M367.022 460.929l-3.992.507M357.564 462.197l-4.5.692M357.564 462.197l.825 5.326M357.564 462.197l5.466-.761M377.876 463.03l-5.194 1.096M353.064 462.89l.566 5.765M353.064 462.89l-7.382.991M345.682 463.881l-1.595.2M344.223 467.414l.407-.852.69-1.594.362-1.087M372.682 464.126l-4.577 1.196M344.087 464.08l.027-7.3M344.223 467.414l-.082-.942-.009-.879-.045-1.512M368.105 465.322l-4.269.996M368.105 465.322l.798 3.342M344.223 467.414l-.553 3.442M467.125 471.01l-2.466-2.736-1.423-1.576M463.109 493.664l-.254-3.387.019-1.25.199-1.36.253-2.282.146-2.862.144-4.239-.035-2.609-.2-4.71-.145-4.267M358.389 467.523l5.447-1.205M358.389 467.523l-4.759 1.132M358.389 467.523l.616 3.695M494.496 475.503l-.734-2.092-.906-2.61-2.139-5.778M343.67 470.856l1.278-.235 1.523-.317 4.728-1.09 2.431-.56M342.383 476.092l.725-2.736.562-2.5M478.481 483.61l-1.341-1.549-2.439-2.7-3.851-4.247-3.725-4.104M496.282 391.635l.76.616.255.434.117.498-.08.535-.273.77-1.006 2.754-1.133 3.279-.825 2.508-1.287 3.968-.96 3.45-1.414 4.413-1.251 3.695-.87 3.587-.843 3.116-.988 3.506-.815 2.663-.853 3.007-.516 2.228-.227 1.468v.969l.073 2.5-.046.77-.136.552-.38.688-1.297 1.903-1.866 2.917-2.112 3.043-1.813 2.59-.834 1.35-.67 1.377-2.031 4.52-1.713 3.352-1.033 1.938-1.097 1.866-.788 1.141-1.205 1.404M511.246 476.409l2.002-.57.707-.29.68-.381.97-.562 1.496-1.177M521.287 475.79l1.442-.803.766-.752.385-.499.499-.724 1.015-1.947 1.376-3.78.355-1.52.19-1.322.064-2.74-.014-.3-.064-.121-.127-.042-.162-.017-.467.05-8.927 1.141-1.605.335-3.902 1.372-.308.21-.118.188-.03.215.102.56.422 1.558.744 1.522 1.214 1.667 2.964 3.388" clip-path="url(#pcd738ab7f3)" style="fill:none;stroke:#000"/><path d="m521.287 475.79-1.63-1.012-1.088-.661-1.468-.688M534.185 488.917l-1.296-1.113-1.849-1.703-1.241-1.169-1.142-1.195-1.831-2.048-2.14-2.445-1.34-1.422-2.059-2.031M503.895 478.628l3.462-1.096 1.55-.49 1.178-.334 1.16-.3M513.974 491.436l-.58-3.279-1.052-5.87-.571-2.79-.308-1.603-.217-1.485M373.035 489.213l-.996-5.331M496.653 480.702l5.43-1.594 1.812-.48M505.762 492.07l-.435-2.246-.399-2.772-.47-4.203-.563-4.221M361.035 484.679l-1.622-10.843M372.039 483.882l-4.115.326-6.889.47M346.734 484.316l4.477.091 3.68.145 6.144.127M485.139 485.153l1.671-1.217.571-.324.889-.374 3.598-1.069 4.785-1.467" clip-path="url(#pcd738ab7f3)" style="fill:none;stroke:#000"/><path d="m498.747 492.486-.544-3.35-.943-5.037-.607-3.397M494.496 475.503l1.034 2.246.498 1.295.625 1.658M478.481 483.61l3.897 4.202M463.109 493.664l3.029-1.802 12.343-8.252M481.626 480.72l-1.731 1.576-1.414 1.314M482.378 487.812l2.76-2.659M487.87 493.936l-2.854-3.17-2.638-2.954M513.974 491.436l-8.212.634M516.874 498.049l-1.088-2.356-1.033-2.228-.78-2.029M505.762 492.07l-7.015.416M507.763 500.926l-1.128-4.7-.873-4.156M490.771 493.184l1.91-.268 6.066-.43M500.45 498.827l-.488-1.866-.563-2.101-.652-2.374M464.052 511.218l-.499-2.156-.09-.633.027-.499.607-2.028.127-.58.045-1.023.073-1.849-.272-2.12-.961-6.666M487.87 493.936l2.901-.752M491.379 499.226l-.544-1.495-.463-.842-.507-.788-.698-.78-1.297-1.385M493.413 515.285l3.077.354 1.423.126 1.233.019 1.395-.172.943-.254 1.967-.933 1.477-.96 5.185-3.949 3.244-2.663 1.251-1.241 1.115-.97.734-.86.471-.561.236-.471.136-.426.09-.607-.045-1.694-.1-.471-.37-1.503" clip-path="url(#pcd738ab7f3)" style="fill:none;stroke:#000"/><path d="m522.154 500.829-.685-1.34-.267-.467-.204-.217-.195-.1-.249-.046-.558-.058-1.672-.277-1.45-.275M507.763 500.926l4.616-1.41 4.495-1.467M507.763 500.926l-6.08 1.805M491.052 505.756l6.517-1.775M491.379 499.226l.144 1.25-.036 1.331-.145 1.495-.163 1.223-.127 1.231" clip-path="url(#pcd738ab7f3)" style="fill:none;stroke:#000"/><path d="m491.08 510.1-.128-1.509-.018-.95.01-.761.108-1.124M468.855 519.751l-.67-.752-.698-.942-1.36-2.183-.67-1.286-1.405-3.37M457.03 523.537l-.089-.213-.032-.348.037-1.313.027-1.296-.018-1.096-.081-1.486-.127-.76-.354-1.549-.063-.48.036-.28.126-.3.345-.317.635-.335 1.323-.57 5.257-1.976M493.413 515.285l-1.8-.92M492.036 515.53l.566-.072.485-.082.326-.09M491.614 514.365l-.535-4.265M491.614 514.365l-.196 1.193M491.614 514.365l.422 1.165M483.657 515.834l7.76-.276M478.614 516.474l1.388-.534 1.932-.04 1.723-.066M485.333 524.624l-.326-.525-.381-.906-.272-1.503-.697-5.856M493.055 523.23l3.2.797.588.108.327-.027.435-.136.789-.416 1.132-.815.689-.503.444-.44.214-.254.607-.719.433-.46.405-.45.816-.599M493.055 523.23l-1.02-7.7M492.484 525.213l.208-.308.146-.344.113-.462.068-.435.036-.435M492.484 525.213l-.498 1.45M491.418 515.558l.405 3.124.407 3.46.023.956.004.73-.004.425.036.34.068.28.127.34M487.055 525.675l-1.468 5.453M487.055 525.675l4.93.987M485.333 524.624l.598.544 1.124.507M485.587 531.128l.661.552.853.562.498.272.353.108h.193l.229-.117.498-.458.793-1.118 1.46-2.627.86-1.64M485.587 531.128l-4.251-.48-1.895-.154-.906-.118-2.556-.562-1.296-.37M470.668 521.807l1.487 2.419 1.124 2.002.797 1.766.607 1.45" clip-path="url(#pcd738ab7f3)" style="fill:none;stroke:#000"/><path d="m467.723 532.233 2.365-.507 2.583-.58.88-.262.425-.263.254-.28.453-.898M333.81 444.298l-3.73.897-.346.045-.412.045" clip-path="url(#pcd738ab7f3)" style="fill:none;stroke:#000"/><path d="m325.715 431.467.653 2.197.988 3.74 1.386 5.5.48 2.091.1.29M332.83 450.83l-1.26-1.016-1.464-1.055-.183-.192-.084-.152-.082-.407-.199-1.427-.118-.716-.118-.58M321.237 430.874l-.217 3.284-.05 1.195.068 1.2.145 1.2.1.653.227.747.267.589.462.833.53.82 1.45 1.762 1.7 2.477.308.172.367.082.417-.036 2.311-.567M341.201 432.577l1.73.131M328.552 432.093l6.84.426 3.72.237.887.062.569-.1.633-.14M360.818 434.298l-3.349-.385M331.607 429.61l.733-1.236.69-1.032.851-1.015.734-1.024 3.898-6.195 1.395-1.939.16-.24.081-.249-.005-.262-.15-.263-.575-.553-.86-.598-2.775-1.983M331.607 429.61l-3.608-2.187M368.903 468.664l1.668-.217 2.61-.181 2.628-.163 4.768-.073M359.005 471.218l.408 2.618M368.903 468.664l-2.43.67-2.21.67-2.865.69-2.393.524M368.903 468.664l3.136 15.218M333.81 444.298l1.113-.045 1.025-.118 1.771-.367 2.035-.647 2.42-.834.354-.063.453-.01 1.98.146M333.81 444.298l-5.258-12.205M328.552 432.093l-2.837-.626M327.999 427.423l.226 2.328.182 1.096.145 1.246M368.604 432.74l7.513-1.63M367.475 425.117l.277.92.154.879.698 5.824M376.117 431.11l.354.987M372.755 422.885l.997 2.255 1.341 2.835 1.024 3.134" clip-path="url(#pcd738ab7f3)" style="fill:none;stroke:#000"/><path d="m367.475 425.117 2.66-1.195 2.62-1.037M353.866 430.938l.417-3.335M353.866 430.938l-.936-.122M353.866 430.938l3.773.583M358.203 431.608l-.564-.087M358.203 431.608l2.407-7.138M358.203 431.608l-.41.46M357.47 433.913l-1.736-.194M357.47 433.913l.323-1.845M359.893 424.523l.182-.003.535-.05M363.836 466.318l-.806-4.882M363.03 461.436l-.925-6.142M350.49 450.417l-.507 1.494M350.49 450.417l1.487.733M349.983 451.911l.716-.248.657-.227.62-.286M349.797 452.46l.186-.549M466.345 522.704l-.027 1.304.018 1.432-.045.38-.191 1.34-.036.888.073.598.18.553.463 1.005.943 2.03" clip-path="url(#pcd738ab7f3)" style="fill:none;stroke:#000"/><path d="m457.03 523.537-.619 1.313-1.006 2.02-.816 1.631-.48.598-.408.435-.725.652-1.078.87-.843.805-.698.807-.77 1.123-.68 1.096-.227.471-.059.494.045.23.096.195.213.213.18.086.227.064.363.023.648-.11.675-.153.947-.236 1.323-.398.318-.163.285-.218.295-.276.63-.856.33-.286.29-.122.323-.05.448.01.508.05 2.112.226 2.7.172 1.043-.109.77-.19.807-.254 1.767-.724 1.759-.743M470.668 521.807l-1.35.344-.988.227-1.985.326" clip-path="url(#pcd738ab7f3)" style="fill:none;stroke:#000"/><path d="m457.03 523.537.156.154.172.057.238.022 3.338-.377 5.41-.689M468.855 519.751l.608.598.625.707.58.751M500.45 498.827l1.234 3.904M500.45 498.827l-9.071.399M497.569 503.98l4.115-1.249M498.965 509.317l-.617-2.446-.78-2.89M498.965 509.317l-7.886.783M501.684 502.731l1.124 3.841.416 1.567-.009.247-.063.165-.091.117-.174.091-.252.068-3.67.49M321.237 430.874l4.478.593M242.866 443.384l8.354-2.604 6.438-.613 6.515-1.302 8.316.728 3.335-1.609 5.25-2.872 6.17-3.6 4.599-1.456 1.264-1.34 2.07-1.38 3.794-.612 1.341-.191.69-1.38 13.988 2.529 1.38 1.455 1.342.723 3.525 1.014M321.706 423.562l-.151 2.756-.209 2.283-.109 2.273M323.196 424.476l.272.963.28.833.77 1.695.436.842.28.86.318 1.2.163.598M481.626 480.72l-1.156-1.445-1.364-1.757-.163-.412-.031-.335.045-.272.136-.403.688-1.318.522-1.141.29-.666.068-.222.086-.534.05-.571.018-.73-.068-2.25M481.626 480.72l3.513 4.433" clip-path="url(#pcd738ab7f3)" style="fill:none;stroke:#000"/><path d="m485.364 478.637-1.363.643-.916.552-1.46.888M485.364 478.637l4.002-1.377 2.91-1.014 2.22-.743M485.139 485.153l1.191 2.08.997 1.422 1.106 1.404.978 1.286.78 1.042.58.797M485.364 478.637l-.045-1.105-.027-1.132-.032-1.749.019-.851.081-1.331M353.595 434.117l1.078-.14.494-.087.567-.171M353.595 434.117l-.916-.036M352.679 434.08l-2.262-.215M346.498 433.492l3.919.373M307.289 412.468l1.774-2.88M313.86 417.21l-.236-.348-.226-.232-.422-.353-5.687-3.809M321.982 203.34l.633-.413 1.024-.607 1.025-.462 1.196-.29 1.65-.28 2.13-.29 2.365-.255M340.516 483.809l-.889 3.66-.76 3.387-.962 4.13-1.395 5.454-.272 1.884-.055 1.666.127 2.066.798 7.481.308 3.225.526 3.442.779 5.87.29 2.572.218 2.011.58 3.17 2.193 10.724.327 1.613.706 2.79.254 1.087.036.942-.09 1.268-.798 3.642-.145 1.032.018 1.467.127 1.63.181 1.305 1.016 3.805.344 1.177.29 1.485.109 1.124-.164.978-.96 2.862-1.142 2.473-.327.426-.543.57-1.36.859-.45.224-.259.074-.165.007-.202-.027-.501-.113M579.231 235.472l.227 1.83.254 1.386.684 2.256.39 1.132.389.86 1.21 2.306M515.895 246.442l.036-2.844-.018-1.803-.109-1.404-.154-1.875M529.572 245.953l-5.674-.082-3.643-.18-1.387-.046-1.242.118-.755.177-.976.502M516.675 269.567l-.164-7.572-.235-5.798-.272-5.942-.11-3.813M546.827 246.962l-.76.078-1.45.045-1.966.037-2.003-.21-9.335-.878-1.74-.08" clip-path="url(#pcd738ab7f3)" style="fill:none;stroke:#000"/><path d="m525.747 230.663.938 1.916 1.392 2.848 1.395 3.08.327.843.108.942-.072 1.268-.263 4.393M531.258 218.398l.62 5.054.118.44.195.254.263.235.281.077.521.082 5.615.054M525.458 224.305l.502-.635.997-1.223 1.142-1.264.884-.883M272.212 314.94l-1.612-1.604-.571-.606-.898-.644-1.305-.693M425.287 375.385l.38-.34.2-.25.19-.411.127-.394.136-.96.009-.83-.045-.607.004-.008-.18-.58-.354-.475-.621-.48-.78-.544-.616-.544-.34-.434-.276-.49-.335-.896-.417-1.06-.263-.444-.907-1.096-2.011-2.147-1.56-1.594M380.94 428.365l-1.723.652-.902.43-.883.666-.458.548-.222.403-.281 1.033M321.982 203.34l-.835.546-3.109 1.948-2.674 1.911-2.057 1.232-1.668.842-1.387.544-1.132.254-1.27.208-2.41.163-3.906.164-.816.072-.472.117-.643.245-.58.263-1.16.77-1.94 1.114-2.628 1.26-1.949.814-1.124.308-1.16.217-2.8.49-3.145.588-2.71.3-1.324.027M274.995 225.97l.218-.43.2-.557.625-2.246.426-1.912.507-1.594.232-.632.133-.176.138-.111.209-.107.231-.088.648-.213.521-.167M579.863 262.818l4.045-3.432 4.024-3.324 1.813-1.187 1.187-.806 1.052-.776M321.706 423.562l-1.62-.994-4.993-3.076M313.86 417.21l.159.28.194.413.4.716.48.873M321.706 423.562l1.49.914M546.131 203.008l-1.976 3.734M290.962 294.981l1.091.375.503.235.476.29 2.207 1.563 1.88 1.3" clip-path="url(#pcd738ab7f3)" style="fill:none;stroke:#000"/><path d="m302.159 286.959-.204.417-.104.276-.073.317-.013.426-.046.31-.056.202-.161.249-.449.44-.56.608-.364.496-.807 1.015-.3.242-.262.165-.933.39-1.74.697-2.801.97-2.324.802M515.904 221.307l3.046-.174 1.278-.045.68-.018.425.072.49.254 1.305 1.078 2.33 1.831M359.893 424.523l-.815 2.628-1.439 4.37M357.64 431.52l.153.548M354.283 427.603l-.91-.115M353.374 427.488l-.444 3.328M321.982 203.34l-.364-.93-.462-.924-2.32-3.478-.916-1.277-.906-1.024-1.504-1.214-.626-.48-.417-.444-.109-.326-.045-.462.172-.58.263-.615.064-.535-.046-.516-.136-.825-.517-2.137-.434-1.622-.49-1.775-.245-1.377-.58-1.63-.815-2.42-1.424-3.595-.878-2.111-1.505-3.641-1.278-3.252-1.622-3.904-1.777-4.122-.598-1.449-.127-.561.028-.471.235-.526 1.65-2.355 2.157-2.953M310.2 407.74l-1.137 1.848M318.51 412.07l-2.393-1.247-2.946-1.535-2.97-1.547M546.827 246.962l-.74-3.391-.2-1.006.008-1.386.073-5.108M276.277 333.885l-.511-1.11-.323-.68M273.43 333.448l.777-.455.535-.354.7-.544M309.063 409.588l6.899 4.36-2.102 3.262M274.995 225.97l-.002.256-.032.218-.065.378-.295.924-.394 1.06-.97 2.554-.57 1.522-.354.58-.336.525-.353.625-.58 1.594-.34 1.119-.558 1.272-.163.268-.217.185-.48.173-.635.081-2.04-.027-.852.054-.444.082-.67.29-.408.48-.172.607-.57 2.327" clip-path="url(#pcd738ab7f3)" style="fill:none;stroke:#000"/><path d="m226.814 248.688.68-.389.643-.598.626-.507.707-.48.96-.353 1.07-.181 1.024-.055 1.921-.054 2.112-.254 2.311-.199 4.332-.317.78.054.915-.072.78-.3.997-.57 1.686-1.014 1.305-.58 2.03-.707 1.704-.39 1.151-.108.635.014.661.013.707-.036.544-.082.607-.144.544-.173.471-.226.563-.344.742-.49.571-.602.309-.412.58-.724.562-.897.743-1.658 1.885-4.112.426-.67.435-.526.408-.299.589-.236 1.704-.606 1.586-.67 2.42-1.06 1.368-.657.794-.476.33-.299.263-.272M350.464 433.177l-.047.688M207.178 399.694l-1.329.111-7.359.29-4.659-.037-3.344-.137-10.142-1.42-1.505-.11-1.359.091-1.27.218-13.141 3.206-9.426 2.337-2.81.814-4.314 1.506-4.079 1.72-4.06 1.757-11.584 5.49-1.722.76-2.03.888-2.248.707-5.71 1.431-1.849.616-1.758.816-2.501 1.611-8.248 5.707" clip-path="url(#pcd738ab7f3)" style="fill:none;stroke:#000"/><path d="m143.404 437.763-2.401-.994-1.45-.662-2.319-1.283-1.45-.29-3.892.29-1.698.042-.58.496-.579 1.16-2.154 1.323-3.644 1.449-3.934 1.241-2.319-.082-1.407-.952-2.94-1.325-2.32-.827-2.608-1.283-1.616-.952-2.236-3.228-3.126-3.82M233.058 394.588l-.289.075M244.098 391.598l-1.686.435-9.354 2.555M238.918 417.608l.384-3.561-.46-.958-3.948-.345-1.878-.46-.574-1.416.115-6.626.076-4.864.425-4.79M244.098 391.598l-3.03 1.673M485.333 524.624l-.49-.267-.235-.15-.453-.371-.127-.068-.208-.085-.395-.037-1.278.043-.21-.01-.22-.042-.227-.073-.256-.18-.831-.68-.816-.797-1.07-1.168-1.595-1.45-1.115-.697-.535-.236-.407-.09-.498-.031-.825-.05-.662-.01-.68.09-.77.236-.807.362-1.768.888M340.516 483.809l6.218.507M342.383 476.092l-.96 4.058-.907 3.659M492.036 515.53l-.618.028M346.734 484.316l.398-8.714M347.132 475.602l-4.75.49M359.413 473.836l-3.181.498-3.027.417-6.073.851" clip-path="url(#pcd738ab7f3)" style="fill:none;stroke:#000"/><path d="m207.178 399.694 3.113.756 6.4-.536 6.208-.306 5.825-.154 3.794-1.914 2.491-1.188M241.068 393.271l-.655.362-5.404 2.72" clip-path="url(#pcd738ab7f3)" style="fill:none;stroke:#000"/><path d="m241.068 393.271-1.87 1.992-1.89 1.05-2.299.04M232.769 394.663l-9.5 2.48-3.787.94-4.605.762-4.278.561-3.42.288M233.394 371.718l-.224 5.254-.401 17.691M235.313 370.479l-1.919 1.24" clip-path="url(#pcd738ab7f3)" style="fill:none;stroke:#000"/><path d="m200.978 385.36 4.062.65 4.944-.229 5.634 1.111 4.1.88 1.917-2.297 10.5-12.065 1.26-1.692M240.738 367.659l-7.288-4.821M149.936 306.607l4.02 2.689 37.901 25.89 41.593 27.652M144.54 302.998l-.663-.443-19.255-14.03M142.299 305.498l-7.326-5.278-11.466-8.367M107.47 302.937l6.016.23 2.07-.536 4.253-2.183 2.454-4.021 1.244-4.574M144.54 302.998l2.322 1.553M144.54 302.998l3.667-4.235M148.207 298.763l3.57-1.256M148.207 298.763l1.89 1.128M151.777 297.507l1.22-.43 2.76-1.8 6.362-4.059M149.936 306.607l-3.074-2.056M150.098 299.89l3.053 1.822-3.215 4.895M146.862 304.551l3.236-4.66M150.098 299.89l1.679-2.383M131.69 322.356l.23-8.12 4.56-2.872 4.254-2.835 1.565-3.031" clip-path="url(#pcd738ab7f3)" style="fill:none;stroke:#000"/></g><g id="PatchCollection_1"><path d="m591.467 386.435-1.849 2.065.508-1.811 2.32-3.895 3.01-2.681 5.11-1.558 2.72-1.304 3.372-2.609 5.8-2.754 6.96-3.224 2.684-1.812 1.812-3.66-7.287-16.558.834-12.645.145-2.826-.399-2.899-.544-3.115 1.015-2.972 6.417-3.152 3.3-.761 6.09-.181 2.829-1.811 4.386-2.32 3.408-.543 4.024 2.427 1.016 5.399-1.777-.942-1.523-.036-1.958.507-7.685 2.5-2.14.761-4.277.435-3.626-.798-2.683.363-3.734 7.971-.834 2.464-.145 6.522.4 6.05 1.014 2.827 2.14 4.746 2.863 6.848.471 2.391-1.305 3.008-4.604 3.66-8.338 3.767-2.357 1.884-4.785 2.718-3.916.978-3.843 1.63-3.117 2.754zM358.933 203.986l1.233-4.348.616-1.848.435-1.884 1.922-2.246-1.197-1.196.398-1.123 2.176-.689 2.828-1.739 11.215-6.614 4.99.382 3.408.725 3.181 2.297 2.493 1.616.598-4.746-.507-3.406-1.777-4.964-1.341-2.754-1.45-1.884-.87-.507-4.387-2.066-2.683-.833-1.414-.399-3.226-.434-2.502-.617-2.03-.144-1.342.434-2.538.689.617-.979 2.066-1.05 2.03-.181 5.982.58 2.357.434 3.19 1.124 3.046 1.304 1.595 1.05 3.045 2.429 1.994 2.463 1.776 4.511.508 1.975.2 3.26.036 4.946-.417 2.518 1.631 2.863 7.179 8.08 3.081 1.015 3.01-.073 1.559-2.572-1.777-5.544-4.532-10.689-.441-3.197.26-5.571 1.921-4.13 4.387-3.696 4.133-1.957 4.46-2.065 3.443-.833 8.085 2.1 3.372 3.153 3.407 3.587 1.378 1.957 2.393 4.457 2.642 4.839 1.999 4.147 4.554 1.237 7.35.178 4.83-4.328 2.577-6.67-1.51-6.18-2.72-6.34-1.836-5.397-.339-5.545v-9.131l1.777-5.435-1.632-1.232-1.994.036-7.214 1.921-3.444 1.268-2.792 1.34-2.03 1.196-1.414-.29.834-.76 2.537-1.087 3.48-1.559 4.641-2.029 8.411-1.847 1.559-1.559 1.217-4.04-.818-4.293-.761-3.732-1.632-2.681-2.574-2.32-2.139-.905-2.755-.616-1.813-.109-1.74 2.138-3.154 2.573-3.046 2.028-2.537-.543 2.283-.942 4.678-3.37 1.486-1.847 2.936-1.631 2.176-.254 3.988 1.087 3.299 1.957 4.386 3.913.726 4.674.108 3.152 4.278-1.05 3.698-1.305 11.348 1.087 8.41 1.05 4.75-5.724 1.921-1.377 2.829-.398.725.108 2.102-4.601 1.342-4.312 1.377-3.261 2.574-6.74 1.813-2.246 1.27-2.246.651-2.609-.834-4.82-1.921-2.571-4.64-2.718-1.27-.979-3.08-3.007-5.802-4.275-3.625-2.862-4.785-3.262-3.3-3.985-1.486-1.413-3.3-4.022-1.486-1.087-2.972-.76-3.118-.653-3.336-.363-6.417-.906-3.589-.398-5.184-2.283-5.62-4.094-1.848-5.544.036-1.413.689-2.754.87-2.536 1.92-2.029 2.503-1.377 3.661-1.486 3.082-2.753 1.269-4.457-3.082-5.616-3.662-3.333-5.11-4.856-4.062-4.384-1.848-1.885-4.678-3.695-5.764-4.276-8.81-7.428 12.907 8.008 3.553 1.956 9.789 9.167 4.785 4.602 3.335 2.754 2.538 2.355 2.212 3.117 1.667 2.68 1.088 3.334.073 1.087-3.988 4.928-2.756 2.355-4.097 5.87-1.015 1.196-1.015 2.645 1.233 2.536 2.284 1.703 2.574.507 2.393.254 2.719-.036 2.864-.435 4.568.145 3.553.797 4.785 2.572 4.859 2.827 9.715 7.319 2.466 2.319 3.807 4.094 1.993 1.485 7.904 4.783 4.35 3.298 1.56 2.101 1.776 3.877 1.45 2.826.834 6.486-.834 6.015-1.486 4.166-1.524 3.334-3.117 6.304-2.176 7.972-.797 4.82 1.523 6.52 7.83 8.117 5.149 4.855 13.631 7.391 4.06-14.13 9.427-18.769 5.22-6.811 7.324-9.856 5.583-2.03 7.469-6.739 6.435-3.255 10.603-1.165 1.45-.29 5.947.797 5.8 2.826 2.828-2.028 1.233-3.117 1.16-7.029-2.32-8.334-2.828-6.159-3.263-4.13-6.163-4.421-6.091-2.247-7.396-2.246-6.236-4.493-7.613-11.16-5.438-18.551-2.61-8.48-3.843-4.058-2.828-1.666L553 4.993l-9.716-5 1.595-.29 3.408 1.233 5.8 2.029 5.584 2.68 6.453 3.624 3.263 5.942 1.813 7.9 2.61 9.203 2.466 5.072 7.54 11.45 5.728 2.464 5.366 1.522 5.873 2.028 6.889 4.783 4.35 4.783 4.713 7.175 3.915 7.464.146 4.13-.943 6.305-2.248 3.405-7.334 7.814-4.122 1.172-5.366.146-7.685-1.087-6.236.652-15.735 11.522-5.438 7.029-5.076 8.986-5.437 13.044-1.74 14.71 3.842 10.653 6.712 4.482 14.751 13.272 10.876 6.087 12.399 2.826 3.263-.58 17.257 7.9-4.398 39.067-5.572-2.726-1.14-1.694-3.428-3.197-1.148-2.139-4.58.073-3.302-.988-5.363-3.541-2.393-.543-3.43-2.115-3.603-2.16-1.305-1.776-2.067-1.848-5.22-.326-3.336-1.667-1.45-1.993-2.103-1.232-4.355-.533-5.578-2.438-.69.29-3.037-1.206-5.88-4.953-7.644-6.074-2.882-3.084-3.541-2.401-5.53-5.526-3.795-8.877-4.742-5.597-6.163-6.884-5.34-7.092-13.398-11.19-2.616-2.335-13.631-9.022-3.566-1.35-4.554 2.048-2.847 5.804-1.106 6.578.043 5.636 3.002 13.93 1.56 6.485.47 1.776-.615 1.16-.799 8.442-1.812 3.188-7.106 3.913-8.048 1.957-6.09-1.087-5.294-2.21-6.012-5.244-1.565.388-.798 2.247-3.915 7.138-1.233 2.029-2.066 3.804.253 1.123 1.596 2.5.797 1.74v.87l-1.45-1.885-1.27-1.485-.651-.471-1.74.978-1.886 3.225-1.667 2.427-2.104 2.754-6.888 9.964-1.45 2.609-1.812 1.703-2.067 1.449 2.936-4.094 1.958-3.406 1.16-2.102 4.17-6.123 1.522-1.812-.47-1.45-2.538-1.23-1.124-1.233-1.197-.87-1.432-.706-4.949 1.431-4.604-1.232-6.345-5.326-3.411-5.181-3.477-6.486-5.147-3.442-5.91 1.014-3.263 1.74-3.3 2.97-4.676 3.842-3.698 5.833-1.414 5.652-.29 1.993 1.342 2.826.18.145 2.212 1.087 2.792.471 3.48-.507 3.372-.942 1.922-1.268 2.936-.254 3.662.616 3.915 2.971 2.43 4.022 1.05 2.138 1.922 1.884.435.797-1.523 2.065-.326 3.84-.617 4.349-1.957 3.768-1.849 2.464-3.77 3.405-2.756 1.74-4.857 1.848-4.605 1.376-4.495-.942-5.402-2.1-3.952-2.972-2.284-3.116-3.988-3.225-2.466-1.486-1.667-1.123-1.487.689-3.48 2.572-2.212 1.304-2.03 3.008.037 3.044-1.45 2.463-2.647.181-1.74-1.376-2.575-1.486-2.464-2.137-1.197-1.921-.544-2.355-.108-1.884.76-1.812.617-1.268.472-1.45.217 2.574-.544 2.354-.217 1.812.906 2.283 2.284 2.138 2.356.833.653-.471 1.958-1.522 1.704-1.811 2.502-3.117 1.957-1.232 2.103-1.485 2.501-1.957 2.574-.18 3.88 2.463 3.552 2.428 4.75 3.478 2.066 1.667 4.242 2.319 3.915.615 3.372-.615 2.937-.979 6.308-2.79 2.429-3.37 1.413-2.536 1.777-3.043-.616-5.616-.58-4.348-.943-2.391-1.486-2.175-2.212-1.557-.978-.11-2.538.11-.943.144-6.163 2.464-2.212.688-3.117-.253-2.72-.761-1.885-.797-2.175-1.413-1.668-3.225-.544-2.826.58-2.464zm54.236 1.776 2.284 1.848 1.124.688 2.175 1.015 1.776-.58 1.052-2.138 3.045-4.24 1.595-3.985 2.176-4.747 3.734-4.963 1.523-3.551.82-4.671-.096-4.17-1.3-4.145-4.283-3.283-.87-1.009-6.054-.005-2.695.97-4.084 1.385-3.517 3.406-.073 2.391.374 4.084.714 7.04 1.958 5 .978 3.152.29 6.087zm97.451-57.211-.362-1.268-1.015-1.993-2.357-2.283-1.559-.906-2.139-.688.943 1.848 2.211 2.355 1.921 1.776 1.414.833zm-6.888-25.69-1.704-.289-1.994.978-1.958 1.956-1.486 1.559-1.777 1.739-.58.688 4.75 1.667 2.719 1.232 1.812.398.182-1.159-.145-3.84.326-2.574.145-1.775z" clip-path="url(#pcd738ab7f3)" style="fill:#00f;fill-opacity:.8"/></g><g id="PatchCollection_2"><path d="m354.153 431.412-.24 1.774 2.946.437.391-1.722zM356.786 455.916l.897 5.857 5.055-.604-.815-5.727z" clip-path="url(#pcd738ab7f3)" style="fill:green;fill-opacity:.8"/></g><g id="PatchCollection_3"><path d="m479.191 491.3 4.028 4.804 2.826-2.367-4.03-4.803zM546.864 210.43l.833.571 1.01-1.467-.834-.572z" clip-path="url(#pcd738ab7f3)" style="fill:#90ee90;fill-opacity:.8"/></g><g id="PatchCollection_4"><path d="m354.306 453.707.159 1.48.57-.062-.051-.47.4-.044.043.388.51-.054-.152-1.42-.559.06.047.44-.404.044-.045-.418zM547.686 211.27l.644.444.48-.696.147.101-.488.706.584.403.547-.793-.344-.238.417-.604.321.221.279-.403-1.354-.933-.326.472.343.236-.342.495-.34-.234z" clip-path="url(#pcd738ab7f3)" style="fill:#a9a9a9;fill-opacity:.8"/></g></g></g><defs><clipPath id="pcd738ab7f3"><path d="M90 141.257h558v444.686H90z"/></clipPath></defs></svg>