<svg xmlns="http://www.w3.org/2000/svg" width="960" height="960" viewBox="0 0 720 720"><defs><style>*{stroke-linejoin:round;stroke-linecap:butt}</style></defs><g id="figure_1"><path id="patch_1" d="M0 720h720V0H0z" style="fill:#fff"/><g id="axes_1"><path id="patch_2" d="M145.717 640.8h446.566V86.4H145.717z" style="fill:#fff"/><g id="LineCollection_1"><path d="m455.953 582.67 7.724 24.014 7.571 23.454M395.611 321.488l6.869-.237M395.611 321.488l.049.82M395.803 320.178l-.111.543-.08.767M410.445 320.69l-3.998.229M410.445 320.69l-.5-7.02M415.11 316.085l-3.444 3.965-.346.292-.343.186-.532.162M411.026 329.451l.028-.382-.077-1.075-.532-7.304M398.634 330.861l4.475-.38M398.634 330.861l.549 2.543M398.634 330.861l-.41-1.603M409.181 307.512l.373-1.513M409.945 313.67l-.08-.759-.544-5.072-.043-.181-.034-.085-.063-.061M405.162 307.922l3.623-.416.306-.03.09.036M412.346 313.588l-2.4.081M409.945 313.67l-3.905.244M399.296 314.143l2.66-.118M399.296 314.143l.197-2.388M397.675 317.74l.609-.9.456-.856.334-.878.222-.963M406.04 313.914l-4.084.111M406.04 313.914l.407 7.005M405.162 307.922l.305.65.181.406.154.439.104.485.072.89.062 3.122M407.076 330.182l-3.967.3M407.076 330.182l-.63-9.263M411.026 329.451l-.13.257-.342.245-.335.08-3.143.149M406.447 320.919l-3.967.332M401.662 308.319l.012 2.578M401.662 308.319l3.5-.397M401.662 308.319l-1.964.138M401.956 314.025l.145 3.158M401.956 314.025l-.282-3.128M402.48 321.25l.629 9.232M402.48 321.25l-.379-4.067M398.223 329.258l-.355-1.576-.144-.552-.287-.821-.181-.475M395.66 322.309l.511.995.476 1.058.609 1.472M392.459 329.345l1.008-.782 3.789-2.729M401.101 341.435l.394.237M400.045 337.936l.355 1.533.363 1.216.338.75M398.152 345.66l1.877-2.658.633-.83.44-.737M337.11 322.384l.758 1.745 3.265 7.095 2.842 6.085.927 2.116.266.502M364.46 366.56l-.484-.318-1.781-1.192-1.673-1.18-1.625-1.28-2.908-2.924-2.53-3.148-.898-1.335-.827-1.402-.875-1.65-1.527-3.233-3.398-7.238-.766-1.733M354.157 344.341l-5.047-2.377-3.942-2.037M371.09 352.238l8.11 2.646M371.09 352.238l-1.817-.912M371.09 352.238l-2.651 4.536M371.09 352.238l.908-1.315M384.133 356.99l2.005-3.118M384.133 356.99l-.51.586M384.133 356.99l-2.24-1.221-2.693-.885M384.133 356.99l5.381 3.525M393.566 361.264l-1.341-.21-1.25-.213-1.46-.326M392.7 362.381l-.637-.273-.648-.327-.415-.24-1.486-1.026M367.696 365.767l.004-.308M367.696 365.767l-.144.286-.165.458" clip-path="url(#p3c3423757b)" style="fill:none;stroke:#000"/><path d="m360.308 352.025-2.582 7.59-.006.504.146.473.41.569 1.113.983.903.786 1.532.41.887.332 2.922 2.089.292.085.417.065h.61l.471-.09.273-.054" clip-path="url(#p3c3423757b)" style="fill:none;stroke:#000"/><path d="m368.91 367.856-.493-.729-.4-.78-.321-.58M367.7 365.459l.065-4.495.073-1.903.234-1.256.367-1.03M378.891 360.513l-.677-.45-.75-.552-.726-.214-1-.236-1.878-.411-5.421-1.876M360.308 352.025l3.362 1.255.798.38 2.387 1.8.676.576.908.738M389.911 346.56l-3.354-2.274M394.209 342.304l-1.557 1.464-2.74 2.792M386.699 351.862l.375-.611 2.837-4.691M395.24 350.319l-3.66-2.764-1.669-.995M394.209 342.304l3.943 3.357M394.209 342.304l-3.346-2.227M400.045 337.936l-.427.237-.943.656-4.466 3.475M400.045 337.936l-.862-4.532M386.138 353.872l2.13 1.69M386.699 351.862l-.262.617-.299 1.393M371.875 371.27l-2.94-1.849M371.875 371.27l-1.058-.877-.528-.498M392.782 387.923l-.597-1.098-.963-1.512-.69-.916-.68-.86-1.093-1.098-.964-.857-1.41-1.007-1.274-.857-13.236-8.447M368.023 369.984l.673-.062.532.083.456.142 2.191 1.124M367.551 369.978l.472.006M366.77 369.539l.353.284.428.155M367.551 369.978l-1.017.492M368.023 369.984l.352-.104.312-.192.249-.267M366.936 367.615l-.283.31M368.91 367.856l-.318-.303-.4-.188-.439-.053-.434.086-.383.217M367.387 366.511l-.254.58-.197.524M366.653 367.924l-.165.355-.055.386.06.386.171.352M364.46 366.56l1.243.774.95.59" clip-path="url(#p3c3423757b)" style="fill:none;stroke:#000"/><path d="m368.936 369.421-1.379-.935-.904-.562M369.179 368.712l-.01-.229M370.289 369.895l-.641-.592-.238-.292-.231-.3M368.936 369.421l.172-.338.07-.371M369.168 368.483l.903-1.008M369.168 368.483l-.258-.627M366.77 369.539l-.236.93M366.77 369.539l-.106-.136M370.289 369.895l-.218-2.42M367.387 366.511l-.431.142-.468.166-.452.115-.504-.02-1.072-.354" clip-path="url(#p3c3423757b)" style="fill:none;stroke:#000"/><path d="m364.46 366.56.808.79.483.441.317.49.142.319.116.316.338.487M354.157 344.341l3.33 1.627M360.308 352.025l-7.183-3.562-.29-.292-.109-.336.048-.34 1.383-3.154M383.623 357.576l-.903.868-.508.364-1.434.687-.872.402-.5.261-.515.355M391.855 369.034l-5.717-3.577-3.523-2.227-1.507-1.074-2.217-1.643M361.929 348.155l.96.446M361.929 348.155l-4.443-2.187M361.929 348.155l-1.62 3.87M357.486 345.968l.363-2.97M362.614 343.906l-2.39-1.16-.44-.154-.435-.13-.315-.056-.265.024-.283.031-.29.182-.347.356" clip-path="url(#p3c3423757b)" style="fill:none;stroke:#000"/><path d="m355.483 332.697-.065.43-.104.73-.097.798-.022.559.086.61.146.561.32 1.084.526 1.403.887 1.987.201.594.158.547.33.999M373.167 348.803l-7.594-3.522M373.167 348.803l-1.17 2.12M376.037 347.476l-.5.032-.588.082-.605.162-.43.288-.356.297-.39.466M362.888 348.601l6.385 2.725M362.888 348.601l1.62-3.802M364.508 344.8l1.065.48M364.508 344.8l-1.894-.894M377.065 342.41l-2.995-.249-1.588-.24-1.105-.138-.984-.107-.927-.076-.866-.153-.407-.075-.245-.001-.295.09-.24.14-.248.351-.544.96-1.048 2.369M386.699 351.862l2.833 1.679M386.699 351.862l-4.043-2.08M392.971 355.686l-3.439-2.145M394.594 351.6l-.64 1.271-.623 1.656-.36 1.159M393.713 359.526l-.203-.963-.334-1.669-.205-1.208M376.037 347.476l.701-.04.662.032.87.182 1.177.553 3.21 1.579M371.998 350.923l3.434-.873.71-.19.842-.106.915-.012 2.463.012 2.294.028M369.273 351.326l1.245-.162.915-.103.565-.138M393.566 361.264l-.867 1.117M394.373 360.387l-.376.381-.248.27-.183.226M392.7 362.381l-.568.743M401.495 341.672l.6-.539 5.027-3.979M408.974 345.632l-1.971-1.698-.85-.529-1.142-.506M401.495 341.672l.654.351.98.415.736.257 1.146.204M413.533 334.786l-2.741 2.59-5.78 5.523M394.594 351.6l.646-1.281M394.594 351.6l7.061 5.448M406.67 348.354l.042.63-.068.66-.133.712-.201.571-.337.643-.405.577-3.913 4.901M395.264 360.931l.984-.319.568-.162 1.06-.306.763-.247.491-.219.603-.438.471-.42.714-.81.737-.962M397.225 347.318l.927-1.657M397.225 347.318l-1.985 3M406.67 348.354l-4.418.557-1.133.004-.675-.043-.576-.152-.568-.23-2.075-1.172" clip-path="url(#p3c3423757b)" style="fill:none;stroke:#000"/><path d="m408.974 345.632-.51.61-.879 1.506-.362.51-.553.096M393.713 359.526l.66.861M388.267 355.562l2.612 1.967 2.834 1.997M395.264 360.931l-.89-.544M392.475 365.247l.296.054.314-.076.23-.073.4-.42.348-.49.343-.696.403-.924.288-1.04.167-.65M377.065 342.41l.427.075M392.459 329.345l-.749.583-.887.672-1.452 1.09-2.25 1.817-.442.37-.565.435-.491.402-.662.467-.608.379-.246.147-.215.125-.163.049-.144.032-.228.016-.266.014-.195.029-.164.04-.201.075-.198.148-.235.274-.176.3-.389.675-.278.425-.196.267-.262.32-.346.35-.587.405-.561.354-.694.556-.422.415-.419.472-.306.446-.222.432-.175.484M392.459 329.345l2.709 2.471M398.223 329.258l-3.055 2.558M381.797 343.772l1.472-1.705M386.557 344.286l-1.249 1.5-.32.055-.292-.04-.19-.118-.248-.173-1.602-1.177-.859-.56M377.492 342.485l.544.08.678.078 1.72.535 1.363.594M387.767 337.77l7.4-5.954M387.767 337.77l3.096 2.307M383.269 342.067l2.45-2.59 2.048-1.706M399.183 333.404l-8.32 6.673M386.557 344.286l2.403-2.52 1.903-1.69M383.269 342.067l3.288 2.219M419.063 326.715l.87-1.086M419.063 326.715l-.66 1.287M419.063 326.715l-4.804-2.764M424.126 310.187l-1.024 1.082-2.878 3.617-.943 1.232-1.024 1.39-.87 1.239-3.128 5.204M411.026 329.451l.366-.426.392-.51.338-.504 2.137-4.06M447.244 535.987l-.257.184-.34.11-.31.01-.216-.015-.293-.085-.511-.194-.815-.288-.302-.04-.435-.017-1.302.006-1.467-.016-.375.063" clip-path="url(#p3c3423757b)" style="fill:none;stroke:#000"/><path d="m435.639 523.676.58 1.186 1.088 2.407.544 1.29.932 2.164 1.838 4.982M455.953 582.67l-6.755-20.612-6.602-20.04-1.975-6.313M449.277 467.529l.748.839.423.43.887.726.89.612 1.4.79 1.068.556.964.492.852.326.409.087.766.146.889.27.868.334.422.201.153.09.155.124.369.422.364.422.442.39.282.193.268.095.67.195.713.106.536.028.762-.051.798-.048.6.06.67.233 1.523.702 3.285 1.378.267.121.677.448.677.523.834.855.593.525.359.311.37.25 1.617.84.62.387.198.288.157.372.073.37-.028.57-.108.609-1.666 5.016-1.677 4.418-1.153 2.831-1.185 3.166-1.394 2.914-.976 2.614-.133.485-.183.63-.23.357-.327.381-.562.283-.375.138-.411.146-.465.287-.465.417-.424.445-.468.612-.467.753-.404.6-.37.47-.287.245-1.608 1.038-1.27.79-1.016.56-.798.415-1.552.75-1.765.665-.367.135-.355.085-.465.109-.41.146-.576.234-1.132.506-1.111.46-.848.282-1.69.434-1.378.438-.875.356-1.407.655-1.055.45-.968.347-2.657.7-1.688.288-.734.165-.597.208-.78.343-.453.303-.379.378-.333.55-.231.532" clip-path="url(#p3c3423757b)" style="fill:none;stroke:#000"/><path d="m413.487 482.255 1.205 4.155 1.364 3.483.952 2.34 1.805 3.886L421.46 501l7.23 11.219 6.95 11.457M407.644 484.158l.468.049.299.033.444.062.258.022.21-.002.275-.026.347-.104.653-.245 1.514-.813 1.375-.88" clip-path="url(#p3c3423757b)" style="fill:none;stroke:#000"/><path d="m404.94 442.899 7.869 37.007.678 2.349" clip-path="url(#p3c3423757b)" style="fill:none;stroke:#000"/><path d="m424.679 435.965-1.174.19-3.708.797-3.334.85-1.152.43-1.04.485-1.13.604-5.237 2.938-.774.345-.522.158-.411.038-1.257.099M392.782 387.923l.749 1.722.339 1.224.784 3.657L404.94 442.9M433.224 404.944l.118.746.18.721.262.681.601 1.84.294.872.355.928.536 1.062 2.092 3.336 1.08 2.097.927 2.013.309.721.093.342.03.414-.05.555-.123.408-.416.94-.435.794-.36.797-.322.814-.193.616-.062.507-.034.527.157 1.026.18.784.219.847.068.897-.048.92-.13.935-.398 1.542-.157.438-.183.183-.29.141-.388.07-.524.052-.346.064-.376.07-.667.109-1.06.122-.77-.007-.957.043-2.88.347-2.104.382-1.512.223-1.261.102" clip-path="url(#p3c3423757b)" style="fill:none;stroke:#000"/><path d="m433.224 404.944-.25.462-.98 1.788-.794 1.793-.604 1.528-2.568 7.217-1.129 3.566-.508 2.294-.1.864-.234 6.614.012 3.166-.27.655-.355.501-.765.573M416.246 353.54l.294.51 1.409 2.983.35 1.048.198.738.17 1.064.118.74.152.64.23.83.674 2.007.77 2.305.518 1.166 6.218 12.882.431.845.4.924.354 1.113.286.889.432 1.03 2.527 4.876.39.885.364 1.184.222.856.16.995.09.612-.009.62-.173 1.288-.202 1.52-.149 1.145-.044.876.06.563.113.36.127.36.228.735.097.723.066.827.107 1.265M465.723 373.558l-.633.132-.187.017-.137-.014-.172-.03-.246.228-.517.213-.617.375-.894.588-.343.195-.296.137-.404.126-.594.188-2.149.776-1.753.836-1.975 1.11-1.762 1.086-2.015 1.634-.879.739-1.016 1.046-.794.983-1.696 2.412-2.053 3.16-3.8 5.645-1.867 2.405-1.849 2.68-1.138 1.33-1.185 1.292-.31.346-.295.38-.923 1.371M395.66 322.309l-4.45 3M471.03 123.595l-.62.924-.371.616-.161.584-.073.759-.258 3.143v.98l.088.876.121.679.242.98.58 3.798.267.857.23.592.23.667.12.467.182.888.056.786-.056 1.113-.157 1.343-.323 1.904-.153 1.24-.29 1.777-.025.695.122 1.026.322 1.09.46 1.445.056.9-.016 1.47-.202 1.382-.33 1.824-.283 1.556-.378 1.216-.581 1.295-.218.877-.153.735-.27.754-.39.675-.718 1.33-.303.96-.1.857.08.782.443 1.931.283 1.367.29 1.188.326 1.03.432 1.027.617 1.122.21.584.132.723.048.991-.133 1.46-.108.823-.13.67-.165.712-.314.536-.44.458M400.988 257.766l.024-.956.106-1.168.16-.72.242-.82.347-.869.363-1.027.185-1.121.178-1.421.234-1.375.362-1.248.767-1.5.918-1.335 1.62-1.84 3.895-3.348 2.185-1.943 2.825-2.23 1-.728 1.06-.754.742-.351.826-.21.992-.142 1.004-.015.906.098 1.794.368 2.483.765.98.261 1.024.15 1.116.036 1.008-.158.915-.27.96-.37.684-.426.678-.573.882-1.05.524-.869.464-.912.339-.64.415-.612.33-.655.29-.774.363-1.121 1-3.365.242-.671.379-.616.54-.53.726-.504 4.506-2.03.605-.182.685-.09 1.814-.044.766.055.701.158 1.125.348.826.118 1.08-.012 1.267-.095 1.402-.063.637.012.589.04.806.008.862-.123.75-.103.733-.008.964.099 1.282.071 1-.055.64-.158.46-.213.387-.237.854-.545.783-.68.83-.97.415-.72.488-1.37.145-.477.117-.652.028-.944-.097-1.567-.16-1.742-.182-1.228-.057-.967.044-.79.073-1.105.242-1.683.274-1.856.097-2.306-.073-3.498-.242-2.914-.129-1.92.073-2.614.234-.931.41-.814.436-.632.694-.719M583.695 273.094l-1.45-.213-1-.371-.645-.497-.42-.6-.339-1.051-.733-4.438-1.048-4.13.016-.814.242-.845.629-1.019 4.184-5.694.073-.45-.162-.576-.75-1.043-.838-.758-.435-.64-.766-1.927-.589-1.358-1.298-2.559-.326-.62-.529-.556-.95-.715-1.589-.663-1.608-.517-1.024-.526-.665-.478-1.096-1.12-.468-1.106-.665-2.792-.183-1.58-.337-.288-.31.016-.618.569-6.03 8.782-12.382 16.394-.92 1.011-.508.118-1.531-.181-3.064-1.272-1.427-.336-.645-.312-1.08-.678-4.76-2.33-.626-.15-.592-.008-.564.13-.557.312-.528.162h-.649l-.713-.296-.524-.466-.153-.419.008-.584.226-1.126-.101-.667-.339-.576-1.165-1.169-3.672-2.689-1.564-1.528-.617-.411-2.765-2.286-1.628-1.52-.984-.861-.69-.762-2.14-3.795-.286-.722-.44-2.73-.632-1.227-2.003-2.981-1.71-1.027-1.233-1.098-.798-.979-.476-.92-.58-.608-.815-.644-.37-.525-.246-1.157.052-1.224.194-.553 1.648-2.926.335-.734.967-2.784.834-1.208.27-1.142-.173-.537-.395-.217-2.64-.81-1.44-.236-1.62-.727-2.962-1.252-1.484-.868-1.37-1.003-.911-.837-.71-.83-.491-.79-2.108-4.595-.36-1.051-1.881-3.238-1.134-1.52-1.153-2.022-.575-.652-2.532-2.503-1.245-.924-2.411-1.256-.815-.3-2.313-.375-2.205-.02-1.653.178-1.987-.083-4.208-.506M471.03 123.595l1.29-2.259 1.649-4.348.782-1.761.738-1.378" clip-path="url(#p3c3423757b)" style="fill:none;stroke:#000"/><path d="m543.74 98.132-.354.56-.645.206-.564-.008-.847-.229-.975-.198-.783-.173-.87-.348-.992-.498-.653-.284-.443-.098-.677.087-.577.292-.455.454-.508.734-.79 1.714-.556 1.122-.226.525-.11.683-.076.655-.088.9-.282.996-.347 1.098-.395 1.177-1.742 4.328-.383.608-.407.513-.395.273-.5.09-.451-.055-.629-.209-1.128-.423-2.387-.836-.796-.329-.536-.153-.445-.036-.407.063-.493.28-.552.585-1.983 2.535-.35.395-.412.28-1.854.687-.867.4-.552.363-1.237.908-.577.47-.427.478-.48.635-.528.486-.383.249-1.56.739-.838.386-.726.143-.886-.087-.903-.08-.444.024-.58.115-.573.178-.645.316-1.007.292-1.04.19-.783.197-.564.252-.54.395-.661.759-.846.584-.605.285-1.104.197-.742-.024-1.685-.032-.968.032-.548.292-.427.522-.322.766-.323.397-.548.37-.56.196-.92.312-.96.241-.906.071-.718.067-.58.127-.806.26-.826.202-.738.008-.444-.154-.318-.332-.218-.458-.064-.47-.004-1.062-.089-1.102-.145-.521-.346-.502-.388-.434-.689-.305-1.072-.197-.94.032-.688.158-.351.09-.484.083-.677.032-.629-.055-.451.023-.395.052-.468.067-.65.08-.902.038-2.302-.244M424.126 310.187l4.361-4.952 2.605-3.055.568-.72.56-.591.427-.376.581-.375 2.04-1.919.459-.545.557-.726 2.588-3.917 1.29-2.124.556-.968.52-.79.423-.481.524-.565 1.096-.86 1.322-1.02.79-.9.597-1.263 1.355-3.396.79-1.28.677-.662.806-.538 3.853-2.163 3.37-1.359 1.645-.896 1.056-.73.875-.937 1.197-1.906 1-1.312 1.08-1.026 1.193-.798 4.063-2.124 6.014-3.601M417.008 330.363l.895-1.429.5-.932" clip-path="url(#p3c3423757b)" style="fill:none;stroke:#000"/><path d="m422.11 331.808-1.45-1.505-2.258-2.3M420.725 334.032l.738-.986.28-.455.178-.36.19-.423M423.256 329.487l-.404.884-.741 1.437M424.505 326.73l.46-.639 1.16-1.28.476-.45.387-.228 1.08-.411.516-.26.54-.498 1.008-1.421.577-1.055.06-.347-.173-.498-.294-.509-1.001-1.15-.786-1.073-.81-.825-.99-.64-.84-.576-.628-.743-.42-.734-.386-1.453-.315-1.753M413.533 334.786l3.487 3.063M415.411 332.472l-1 1.287-.878 1.027M417.02 337.85l1.839-1.93M408.974 345.632l4.145-4.018 3.9-3.765M328.162 302.918l2.406 5.299 2.709 5.867 1.31 2.875 1.11 2.38.876 1.884.537 1.16M334.206 320.315l.037.015.234.094.362.215.554.432.407.334.33.266.98.713M334.206 320.315l-.135-.032-.162.007-.223.057-.411.15-.643.268-.613.233-.566.219-.742.34-.982.51-.675.319-.892.515-.345.263-.288.29-.687.75-.54.553-.51.572-.327.415-.076.158-.026.235.038.149.096.18.302.245.48.387.629.414.97.725.775.628.647.531.486.375.619.343.725.358.44.318.868.742M312.68 269.913l.236.401 1.105 2.048 1.08 2.221 1.093 2.472 1.785 3.885 2.91 6.361 3.262 6.957 3.152 6.847.859 1.813" clip-path="url(#p3c3423757b)" style="fill:none;stroke:#000"/><path d="m320.16 306.544 1.524-.614.854-.316.508-.224.375-.21.512-.265.67-.343.453-.29.622-.395.678-.458.407-.284.256-.15.184-.054.237-.034.32.01h.402M176.963 128.562l1.51 3.845 2.289 5.682 1.237 3.078 2.782 7.065.677 1.761.73 1.793.483 1.275.67 1.47.72 1.449.676 1.26.435.77.446.75 1.277 1.939.742 1.077.548.786 1.093 1.331 2.27 2.44.822.873.81.661.36.384M266.317 227.091l-.506-.437-3.185-2.696-4.57-3.898-2.532-2.195-3.501-3-4.15-3.509-2.193-1.839-2.016-1.75-1.745-1.512-2.564-2.223-2.684-2.255-4.634-3.975-6.44-5.494-3.768-3.242-4.716-3.988-9.36-8.031-4.555-3.839-1.363-1.149-2.958-2.598-1.337-1.21" clip-path="url(#p3c3423757b)" style="fill:none;stroke:#000"/><path d="m154.305 181.763.253-.094.496-.285.474-.27 2.257-1.122 1.198-.588 1.548-.608 1.765-.703 1.262-.577.806-.292.653-.122.867-.221.624-.143.931-.414 1.085-.498.943-.41.91-.36.954-.547.579-.3.574-.306.605-.278 1.042-.46.498-.233.4-.19 1.948-.908.862-.474.94-.395.452-.173.537-.17.315-.08.324-.078.397-.064.627.005.693.02.834-.04 1.222-.087.677-.118.613-.147.866-.343.81-.233.791-.217 1.374-.308 1.084-.272 1.117-.27.545-.067.596-.07.625-.103.391-.162.403-.181.276-.101.218-.024.169-.004.193.041.244.075.637.214.996.193.735.05M392.475 365.247l-.62 3.787M392.132 363.124l-.31.58-.195.501.012.296.268.365.568.381M377.492 342.485l-.25.36-.524.742-.44 1.22-.225 1.176-.016 1.493M367.7 365.459l.73.239.23.09.202.15 1.21 1.537M362.614 343.906l1.813-2.583M400.988 257.766l.085.36.375 1.417 1.427 3.838.838 2.575.331 1.287.254 1.07.153 1.002.153.711.198.648.338.75.371.7.92 1.2.93 1.14.94 1.019.496.691.286.612.16.612.14.939.047 1.774-.04 1.101-.102 1.087-.193.97-.375.952-.472.96-.62.794-1.21 1.425-1.076 1.133-1.056.821-1.23.806-.633.438-.572.494-.496.462-.383.564-.358.648-.254.64-.117.62-.089.718-.052.747-.053 1.385-.036 1.363M399.642 307.241l-.008-1.066.032-.565.073-.54.105-.695.073-.742.04-.74.056-4.654" clip-path="url(#p3c3423757b)" style="fill:none;stroke:#000"/><path d="m405.124 301.871-.516-.663-.967-1.485-.448-.604-.205-.221-.339-.237-.463-.17-2.173-.252M379.2 354.884l1.996 1.169 2.427 1.523M392.132 363.124l-8.509-5.548M393.558 384.636l-.1-.595-.165-.935-.149-.96-.31-.99-.296-.45-.442-.467-.705-.655-.847-.723-.334-.529-.146-.493-.024-.517.058-.497.223-.834.425-1.078.342-1.034.242-1.054.154-1.082.37-2.709M393.558 384.636l-.228 1.111-.202.948-.346 1.228M416.246 353.54l-5.801 10.345-1.177 1.67-.87.98-.94.9-1.805 1.788-3.306 3.047-.31.364-.322.447-.69 1.153-.925 1.716-1.1 1.75-1.26 1.607-1.299 1.653-1.257 1.544-.615.853-.465.525-.546.754" clip-path="url(#p3c3423757b)" style="fill:none;stroke:#000"/><path d="m408.974 345.632 2.624 2.89 2.844 2.957 1.804 2.062M415.411 332.472l1.597-2.109M415.411 332.472l3.448 3.447M418.859 335.92l1.866-1.888M417.008 330.363l3.717 3.67M419.932 325.63l3.324 3.857M424.505 326.73l-2.12-2.51-.246-.277-.266-.232-.21-.06-.185.06-.302.284-1.244 1.634M424.505 326.73l-.276.528-.296.634-.238.537-.44 1.058M399.602 310.866l-.11.889M399.602 310.866l2.072.031M399.698 308.457l-.064 1.825-.032.584" clip-path="url(#p3c3423757b)" style="fill:none;stroke:#000"/><path d="m399.642 307.241-12.83-1.934-.674-.158-.463-.083-.552-.123-.798-.138-1.109-.083-1.419-.154-1.44-.253-1.522-.229-2.42-.434-1.289-.268-.451-.063-.238.006-.176.058-.134.12-.097.194-.131 1.785-.023.435.008.738.057.227.089.235.203.188.37.11.364.077.202.036.415.104.614.125 1.17.161 2.777.423 2.265.359 2.459.293 1.487.181 11.526 1.677 1.72.013M396.478 318.53l-.675 1.648M396.478 318.53l-8.496-1.36M399.493 311.755l-.681 1.899-.524 1.22-.88 1.767-.93 1.889M397.675 317.74l-1.703 2.177-.169.261M397.675 317.74l4.426-.557M399.698 308.457l-.056-1.216M353.51 186.272l-1.312-.112-.79-.047-.62-.052-.702-.118-.446-.114-.328-.115-.911-.316-.742-.186-.532-.126-.504-.083-.36-.12-.347-.168-.172-.191-.06-.192-.024-.383.05-.219.07-.136.101-.115.295-.091.507-.043h.383l.654.04.75.058.52.083.713.246.399.167.27.158.252.217.365.39.324.352.504.38.428.227.368.185.347.178.55.246" clip-path="url(#p3c3423757b)" style="fill:none;stroke:#000"/><path d="m353.51 186.272-.55-.246-.347-.178-.368-.185-.428-.228-.504-.38-.324-.352-.365-.389-.252-.217-.27-.158-.4-.167-.713-.246-.52-.083-.75-.059-.653-.038-.383-.001-.507.043-.295.09-.101.116-.07.136-.05.219.024.383.06.192.172.191.347.168.36.12.504.083.532.126.742.186.91.316.33.115.445.114.701.118.62.052.791.047 1.312.112M399.67 256.47l.585-1.247.387-.83.298-.702.266-.774.194-.703.153-.813.048-.648-.024-.892-.181-1.856-.097-.38-.162-.355-.265-.367-.238-.257-.484-.529-.145-.35-.048-.388.056-.573.077-.422.23-1.197.088-1.034-.056-.537-.347-1.13-.717-1.808-.831-1.658-1.16-1.611-2.984-2.827-6.223-5.355-1.355-1.528-1.298-1.363-.875-.836-.508-.4-.834-.473-1.265-1.046-.633-.624-.323-.265-.286-.107-.568-.138-.25-.237-.242-.308-.21-.51-.097-.323-.068-.154-.452-.644-.66-.687-.944-.805-.665-.683-.77-.6-.693-.534-.472-.37-.79-.62-.766-.79-.496-.636-.58-.723-.468-.837-.226-.557-.12-.245-.14-.218-.2-.289-.176-.188-.395-.568-.13-.379-.116-.364-.069-.41-.08-.498-.04-.592-.06-.288-.056-.241-.167-.38-.141-.287-.196-.492-.116-.484-.027-.252.024-.427.069-1.098.097-1.137.149-1.121.08-1.244.09-.66-.017-.34-.088-.35-.106-.258-.168-.268-.537-.817-.758-1.047-.761-.927-.63-1.012-.771-1.25-.252-.293-.476-.372-.264-.183-.292-.127-.244-.08-.302-.026-.306-.083-.244-.113-.299-.205-.296-.344-.2-.282-.338-.385-.35-.371-.513-.316-.725-.34-.762-.193-.758-.194-.653-.13-.6-.182-1.557-.702-1.281-.518-1.201-.446-.317-.14M267.994 230.836l-.122.058-.19.163-.21.194-.182.24-.25.482-.28.452-.324.417-.192.27-.284.331-.08.106-.058.106-.007.133.048.152.202.253.25.347.246.454.1.238.097.366.077.28.088.277.254.598.228.486.36.883.533.995 1.116 2.112.351.711.145.233.12.144.092.057.113.042.128.01.128-.061.139-.111.129-.162.118-.182.428-.76.556-1.097.327-.695.536-1.616.181-.71.314-.561.263-.395.294-.26.248-.178.278-.158.197-.107.243-.113" clip-path="url(#p3c3423757b)" style="fill:none;stroke:#000"/><path d="m267.994 230.836.08-.037.144-.037.15-.002.137.066.161.087.22.207.143.155.53.75.263.353.22.213.303.297.41.333.54.383.324.233.738.535.542.365.3.174.317.138.29.09.234.039.441.039.261.043M276.08 235.45l-.698-.103-.405-.068-.235-.02" clip-path="url(#p3c3423757b)" style="fill:none;stroke:#000"/><path d="m266.317 227.091 5.383 4.645 3.581 3.025.799.69M312.68 269.913l-.364-.617-.714-1.117-.73-1.107-.85-1.168-.633-.83-.947-1.212-.733-.836-1.04-1.07-2.326-2.382-2.75-2.322-3.561-3.073-1.714-1.468-1.138-.915-.995-.865-4.25-3.656-1.942-1.635-6.188-5.28-1.612-1.358-4.113-3.552M266.317 227.091l.101.424.165.51.173.405.145.353.256.667.304.521.308.427.225.438M308.16 303.17l.504.316.713.478 1.076.782 3.418 2.827 2.62 2.337.996.774.85.727 1.04 1.192 1.04 1.43 1.388 1.966.383.6.141.255.241.444.133.292.23.296.276.251.293.275.633.477.322.364.375.56.326.53.347.465.286.234.246.185.484.296.491.272.434.33.274.192.113.067.079.025.088.004.111-.014.234-.11.369-.336.886-.853.557-.383.496-.233.882-.26.907-.162.532-.087.516-.02.25.057.21.095.256.208M399.67 256.47l1.318 1.296M373.687 258.603l.471-1.18.54-1.177.654-.988.427-.43.528-.371.73-.34.818-.375.454-.15.352-.008.375.02.726.09.588.048 1.08.032.843-.04 1.002-.045.844-.01.55-.026.343-.08.265-.09.32-.167.823-.442.432-.388.488-.489.673-.403.673-.178.923-.05.75.03.91.115.98.371.839.577.42.355.318.218.354.146.722.161.648.222.376.177.403.218 1.028.56.745.557.67.537.899.86M312.68 269.913l-.124-.796-.034-.393.003-.156v-.18l.002-.153-.04-.225-.097-.19-.06-.11-.151-.276-.055-.172-.038-.2-.002-.205.163-.598.557-1.437.467-1.355 1.084-3.044.674-1.84.238-.873.157-.568.056-.336.004-.378-.044-.403-.121-.47-.206-.652-.11-.351-.065-.289-.042-.378v-.386l.044-.404.06-.241.145-.514.053-.244.012-.306-.052-.368-.565-1.743-.244-1.149-.13-.699M455.953 582.67l.777-.715.043-.088.08-.455.033-.317-.107-.599-.099-.487-.248-1.124.002-.12.097-.193.315-.516 1.834-2.394 4.36-5.78 2.452-3.34.198-.355.818-2.25 2.467-7.043.074-.547-.03-.673-.093-.556-1.515-4.612-.25-.671M388.267 355.562l.62-1.003.645-1.018" clip-path="url(#p3c3423757b)" style="fill:none;stroke:#000"/></g><g id="PatchCollection_1"><path d="m446.15 343.025 3.05 1.322 4.028 1.232 3.166 1.277 3.097 1.915 2.7 1.938 2.747 1.848 1.77-.069 1.676-.775 3.05-3.01 2.305-3.945.838-2.646 2.142-6.431 2.119-4.811 2.048-6.067.652-3.306 1.14-6.98-.395-2.735-1.863-3.626-.07-2.373.187-2.713.768-4.584 1.072-.662 1.49.48.255 1.459.536 2.486.745 2.622 1.536 3.079.676 3.102-.28 3.033-.372 3.147.093 1.665-.699 3.17-1.187 2.349.093 3.192.07 1.277-.792 2.395-.465 1.573 1.49 1.391 1.746.799 2.677-.388 4.33.433 3.935.115 2.934.752.955.707-1.374 1.756-2.468 1.665-2.235.844-2.654.57-2.259.775-1.513 1.049-1.28 1.664-.816 2.965-.651 2.714-.396 1.369.885.432 1.536-1.368.722.092.303.912.652 1.117 1.49-.365 1.28-.046 1.932.57 1.048.297.931 1.483.536 1.436-.885 1.734-2.514.592-3.027.206-2.351.41-3.05.388-.396-.616-.396-.48-1.164-.136-.791 1.164-.722 1.823-.908.799-1.374.798-1.536 1.277-.373 2.03-.14 2.622-.838 1.528-11.035-.16-14.528-2.622.885-.935 1.91-.866 2.583-1.21 1.304-1.459.768-2.463-.396-2.713-1.7-.935-1.582-2.896-3.167-3.49-2.514-2.212-2.328-1.55-1.444-.867-1.769-1.87-.28-1.323.373-.388zM451.317 263.207l-.238-2.776.844-1.653.93 1.06 1.125 2.712 1.58 1.758 3.915 1.78 2.834 1.483.281.806-1.01 1.459-2.2 2.822-2.703 1.728-2.099.569-1.854-1.52-.692-1.422-2.602-2.954-.401-1.454-.012-1.444.268-1.236.559-.624.904-.58z" clip-path="url(#p3c3423757b)" style="fill:#00f;fill-opacity:.8"/></g><path id="PatchCollection_2" d="m406.326 342.588 2.65 2.635 3.896-3.757-2.653-2.637z" clip-path="url(#p3c3423757b)" style="fill:#90ee90;fill-opacity:.8"/><path id="PatchCollection_3" d="m348.94 342.982 1.581-3.316 8.255.758 9.481-2.337 9.868 1.232 11.448-8.624.323-6.254 4.61-2.685 1.226-4.233 2.322-4.454.452-3.759 11.319-.41 2.482 1.295 1.161 5.211 6.579 4.486 5.514 6.191-2.87 4.296-1.806 3.728-11.222 11.782 3.257 2.906-1.87 1.927-2.773-.664-2.13 4.517-7.48 8.623-1.903-.031-1.387 2.938-5.643 3.063-12.19-7.897 1.839-3.6-7.966-2.085-.967 2.4-1.58-.505-.87 9.887-11.32-8.655-5.933-10.14 1.677-4.169z" clip-path="url(#p3c3423757b)" style="fill:#d3d3d3;fill-opacity:.8"/></g></g><defs><clipPath id="p3c3423757b"><path d="M145.717 86.4h446.566v554.4H145.717z"/></clipPath></defs></svg>