<svg xmlns="http://www.w3.org/2000/svg" xmlns:xlink="http://www.w3.org/1999/xlink" width="960" height="960" viewBox="0 0 720 720"><defs><style>*{stroke-linejoin:round;stroke-linecap:butt}</style></defs><g id="figure_1"><path id="patch_1" d="M0 720h720V0H0z" style="fill:#fff"/><g id="axes_1"><path id="patch_2" d="M90 618.875h558v-510.55H90z" style="fill:#fff"/><g id="LineCollection_1"><path d="m388.3 315.625-12.562-1.347-12.652-1.439-10.356-.877-3.002-.22-1.004-.08M348.724 311.662l-.609-.085-3.05-.14-1.097-.073-1.443-.094-1.121-.06-1.07.007M347.511 311.843l.585-.077.628-.104M413.271 318.346l9.152 1.112 6.92.637M435.476 320.555l-5.059-.38-1.075-.08" clip-path="url(#pa100ee4b68)" style="fill:none;stroke:#000"/><path d="m416.52 320.217 2.575.263 1.295.137 2.51.266 2.537-.142 2.456-.428 1.45-.218M237.606 306.134l6.131 3.945 6.627 3.373 4.334 1.877 4.542 2 5.23 1.314 5.158.727 8.363.973 8.472.167" clip-path="url(#pa100ee4b68)" style="fill:none;stroke:#000"/><path d="m299.373 319.044-3.605.616-5.814.62-3.491.23M290.898 331.951l-.377-9.283-4.058-2.158M390.428 327.488l7.853-.374M390.428 327.488l-10.293.447M390.428 327.488l-.036 4.944M390.428 327.488l.164-5.714M337.125 350.297l1.963-10.398M337.125 350.297l-39.081 1.307M337.125 350.297l-.036 3.517M337.125 350.297l8.197-.363M350.08 329.295l8.25-.374M350.08 329.295l-9.718.44M350.08 329.295l.295 4.714M350.08 329.295l-.375-6.046M358.33 328.921l10.17-.46M358.33 328.921l.271 4.727M358.33 328.921l-.344-5.971M340.026 323.603l.336 6.131M340.026 323.603l-.048-1.43M340.026 323.603l9.68-.354M398.281 327.114l.244 4.925M398.281 327.114l-.284-5.71M398.281 327.114l6.434-.188M368.5 328.461l5.86-.265M368.5 328.461l.31 4.853M368.5 328.461l-.376-5.875M340.362 329.734l-.312 4.728M340.362 329.734l-5.846.265M410.51 326.794l6.258-.393M410.51 326.794l-5.264.114M410.51 326.794l.283 2.333M410.51 326.794l-.092-2.814M374.36 328.196l5.775-.26M374.36 328.196l.216 4.87M374.36 328.196l-.262-5.831M340.05 334.462l10.325-.453M340.05 334.462l-3.542.155M340.05 334.462l-.962 5.437M325.15 330.423l4.64-.21M325.15 330.423l-.364-7.625M290.898 331.951l5.067-.018 15.785-.916 13.4-.594M416.768 326.4l.25 2.356M416.768 326.4l2.015-.104M416.768 326.4l-.14-2.625M380.135 327.935l.149 4.887M380.135 327.935l-.187-5.78M435.476 320.555l.947.19M435.476 320.555l-1.609-.301-4.116-.464-1.085-.306-3.06-1.227M425.605 318.257l-.294-.042" clip-path="url(#pa100ee4b68)" style="fill:none;stroke:#000"/><path d="m434.874 319.008-3.917-.393-5.352-.358M421.286 317.697l-4.156-.563-6.901-.468M421.286 317.697l-2.66.494-1.523.239-3.832-.084M421.286 317.697l.4.03M404.815 317.491l1.111.096 2.339.238.501.056 2.836.318 1.669.147M404.815 317.491l-2.27-.523-2.321-.638-1.656-.438M404.815 317.491l-2.29.143M390.034 315.89l-1.733-.265M390.034 315.89l2.006.643 1.515.431.95.253 1.024.251 1.109.12M396.69 315.764l-1.077.006-1.327.033-4.252.086M338.656 311.357l-.16.23-.131.318-.022.338.087.33.191.293.347.35M338.656 311.357l-.815.15-1.073.295-1.205.367M340.334 311.217l-.508.007-.633.039-.537.094M338.656 311.357l.914-1.5M338.968 313.216l.575.596M338.968 313.216l.466-.031.504-.046.41-.066" clip-path="url(#pa100ee4b68)" style="fill:none;stroke:#000"/><path d="m330.788 313.614 2.878-.343 1.352-.091 1.511.014 1.893.035.546-.013M340.334 311.217l-.764-1.36M340.348 313.073l.134-.251.1-.267.052-.277.002-.281-.047-.278-.094-.268-.16-.234M340.348 313.073l1.263-.254 1.07-.251 1.315-.294 1.193-.214 2.322-.217M340.348 313.073l-.635.736M396.69 315.764l-.279.278-.135.316-.03.361.098.322.294.546M396.69 315.764l1.878.128M396.69 315.764l1.29-.82M396.638 317.587l1.072.915M396.638 317.587l.76.097.878.01M398.276 317.694l1.306.058 1.902-.065 1.04-.053M398.276 317.694l.17-.272.159-.239.135-.278.024-.206-.053-.325-.143-.482M398.276 317.694l-.566.808M398.568 315.892l-.588-.947M397.997 321.404l-.242-2.41-.045-.492" clip-path="url(#pa100ee4b68)" style="fill:none;stroke:#000"/><path d="m397.71 318.502 2.868.148 4.436.479M390.53 317.758l4.246.447 2.163.242.77.055M398.525 332.04l.251 5.099M398.525 332.04l6.322-.155M398.525 332.04l-8.133.392M398.776 337.139l.26 4.991M398.776 337.139l-8.208.422M405.396 336.966l-1.605.072-3.068.054-1.947.047M399.585 347.105l-.426-2.377M399.585 347.105l6.611-.234M400.147 356.327l.317-2.377.128-2.441-.102-.936-.588-1.97-.317-1.498M402.525 317.634l4.403 1.69M406.928 319.325l3.312.371M406.928 319.325l-1.914-.196M397.98 314.945l-.12-1.993M397.98 314.945l9.67 1.323M456.104 321.454l-1.386-.034M487.63 322.491l-11.897-.374-19.63-.663M456.104 321.454l-2.352-.862-2.17-.57-1.991-.226-1.259-.08M448.973 321.096l.03-.385-.053-.378-.173-.298-.445-.318M448.973 321.096l-5.194-.126-4.696-.232-.603-.027-2.057.034M454.718 321.42l-1.727-.205-.8-.053-2.095-.04-1.123-.026M447.119 321.488l1.081-.123.389-.063.207-.09.177-.116M448.332 319.717l-1.447-.047-5.392-.19M410.229 316.666l-2.579-.398M410.229 316.666l.011 3.03M410.24 319.696l6.28.52M410.24 319.696l.031.814M405.014 319.129l.232 7.779M405.246 326.908l-.53.018M299.373 319.044l6.973-1.269M306.9 319.214l-2.557.421-2.941-.356-2.029-.235M339.713 313.809l-.17.003M349.087 313.314l-2.051-.09-3.913.214-3.41.37M339.713 313.809l-.065.107M357.965 313.96l-4.526-.531M357.965 313.96l.17 3.06M373.79 315.684l-2.602-.37-7.205-.76-6.018-.594M380.45 316.444l10.08 1.314M380.45 316.444l-.69-.083M380.45 316.444l2.62-.448 2.66-.338 2.57-.033M390.53 317.758l.062 4.016M349.087 313.314l.251 4.045M353.439 313.429l-1.551-.019-2.801-.096M349.338 317.359l.367 5.89M349.338 317.359l-9.55.369M349.338 317.359l5.097-.196M349.705 323.25l5.106-.184M350.375 334.009l.328 5.264M350.375 334.009l8.226-.361M351.03 344.52l.313 5.03M351.03 344.52l-.327-5.247M351.03 344.52l8.269-.482M351.03 344.52l-3.24.186M351.343 349.55l.32 4.458M351.343 349.55l8.24-.432M351.343 349.55l-6.021.384M357.646 317.039l-3.211.124M357.646 317.039l.488-.02M357.646 317.039l.34 5.91M357.986 322.95l5.753-.208M357.986 322.95l-3.175.116M358.601 333.648l10.21-.334M358.601 333.648l.3 5.212M358.9 338.86l10.267-.449M358.9 338.86l-3.432.075M358.9 338.86l.399 5.178M359.299 344.038l10.208-.592M359.299 344.038l.285 5.08M359.584 349.118l.52 4.485M359.584 349.118l10.278-.793M368.124 322.586l5.974-.221M368.124 322.586l-4.385.156M374.098 322.365l5.85-.21M374.098 322.365l-.308-6.68M379.948 322.155l4.453-.163M379.948 322.155l-.188-5.794M390.592 321.774l-6.19.218M397.997 321.404l-1.692.08-5.519.277-.194.013M390.392 332.432l.176 5.129M390.392 332.432l-10.108.39M390.568 337.561l-10.318.378M369.167 338.411l5.636-.238M369.167 338.411l.34 5.035M369.167 338.411l-.356-5.097M374.803 338.173l5.447-.234M374.803 338.173l.106 2.39M374.803 338.173l-.227-5.106M380.25 337.94l.034-5.118M380.25 337.94l.053 2.268M405.396 336.966l-.55-5.081M405.716 341.905l-.116-1.83-.204-3.11M368.81 333.314l5.766-.247M374.576 333.067l5.708-.245M411.032 331.503l-6.185.382M411.032 331.503l-.239-2.376M417.017 328.756l.187 2.482-6.172.265M416.52 320.217l.003.747M404.715 326.926l.132 4.959M431.46 337.361l-1.437-2.126-1.296-.889-2.948-1.671-2.548-1.174-.678-.577-3.77-4.628M487.785 323.332l-4.56-.1-19.222.212-11.578.106-1.509.016-1.822.116-.995.226-2.005.557-3.739.65-8.804.424-14.768.757M373.79 315.684l2.292.292 3.678.385M369.507 343.446l.355 4.88M390.112 357.059l-12.35.73-.776-.147-.628-.293-.28-.456-.154-.69.02-6.888-.146-.487-.334-.438-.415-.244-.589-.073-4.598.252M339.787 317.728l.19 4.445M339.787 317.728l-.139-3.812M324.786 322.798l4.692-.192M324.786 322.798l-.16-6.62M329.478 322.606l4.555-.188M329.478 322.606l.312 7.607M334.033 322.418l5.945-.245M334.033 322.418l.483 7.581M329.79 330.213l4.726-.214M324.626 316.177l6.162-2.563M339.543 313.812l-.603.03-2.078.332-6.504 1.021-5.236.902-.496.08M306.9 319.214l1.707-.267 5.56-1.093 10.459-1.677M162.625 339.078l-1.376.072-5.073-1.757-3.077-.759-3.724.047-7.826 1.71M136.389 401.863l-9.037-20.866-.512-2.512-.879-2.06-.439-1.611.586-1.482 6.663-5.99 1.318-2.19 1.61-6.377 1.099-4.316-.22-5.282-.513-8.825.806-.901 4.678-1.06M363.74 322.742l-.197-5.556-.687-.33-4.722.164M354.435 317.163l.376 5.903M339.009 409.434l24.777-.545M339.009 409.434l1.657 58.68M213.35 416.082l30.946-1.614 53.342-2.58 7.112-.939 34.259-1.515M337.089 353.814l.098 2.854 1.822 52.766M390.112 357.059l.91 50.29M400.147 356.327l-.758.205-.702.107-8.575.42M391.806 458.944l4.244.236M391.022 407.35l.708 47.119.189 1.137.253 1.4.01.43-.376 1.508M365.755 467.375l11.623-.491.845-.106.286-.318.15-.69-1.175-4.363-.196-1.326.286-.769.558-.544.573-.079 7.93-.106 3.377.212 1.794.15" clip-path="url(#pa100ee4b68)" style="fill:none;stroke:#000"/><path d="m397.143 479.242-5.352-1.657-.309-.226-.136-.265-.234-4.23-.241-4.773.287-.716.346-.77.076-.636-.468-1.856.03-.597.664-4.572M410.418 323.98l-.147-3.47M410.418 323.98l6.21-.205M416.627 323.775l-.104-2.811M410.793 329.127l6.224-.371M422.22 317.768l-.534-.041M422.22 317.768l.755-.704.248-.12 1.546.186.173.159.369.926" clip-path="url(#pa100ee4b68)" style="fill:none;stroke:#000"/><path d="m425.31 318.215-.368-.926-.173-.159-1.546-.186-.248.12-.755.704M397.86 312.952l-.913-18.928M397.86 312.952l9.98-.079M407.84 312.873l-.19 3.395M421.686 317.727l1.704-2.606 1.13-1.619-.082-.398-.287-.251-2.209-.484-5.17-.08-3.62.225-5.312.36M393.466 200.449l-.228-4.48-.21-1.275-.122-.478-.136-.543M392.657 184.176l.445 1.537.287 2.773-.362 1.433-.618 1.153-.09.916.451 1.685M405.72 186.151l-2.607 1.897-2.654 1.818-1.085.503-4.719 1.778-.995.544-.89.982M363.786 408.889l10.608-.234.874-.199 2.457-1.007.709-.12.64-.073 11.948.093" clip-path="url(#pa100ee4b68)" style="fill:none;stroke:#000"/><path d="m405.842 407.276-1.357.265-1.629.16-11.834-.352M110.587 411.575l25.802-9.712M340.666 468.113l25.09-.738M344.667 524.993l-2.49-19.58-1.51-37.3M366.57 555.19l-.655-1.38-15.558-24.16-5.69-4.657M378.883 529.795l-.253-2.142-.159-.743-.67-1.485-.671-.537-.603-.385-.973-.225-30.887.715M259.984 609.057l-42.212-26.621-19.538-32.456 27.98-10.713-2.292-6.258 3.378-4.667 1.49-.034 78.592-1.77 37.285-1.545M366.57 555.19l1.522 4.256 1.115 2.732.797 2.5.123 2.127-.467 2.227-1.75 4.203-.828 2.638-.272 1.618.121 1.803.422 3.593.09 4.56-.135 2.108-.498 2.188M330.211 313.627l-.349.056-.69.11-.914.17-21.912 3.812M306.346 317.775l-.302.315-.133.371.033.216.178.254.311.186.467.097M353.439 313.429l-5.928-1.586M447.119 321.488l3.075.072h2.827l1.697-.14M379.722 536.907l.008.345M379.722 536.907l-.84-7.112M399.555 537.345l-8.638.397-3.845.2-1.93-.12-5.42-.915M514.075 604.477l-.39-.929-.331-.291-.573-.206-17.661-1.83-7.447-1.365-9.845-1.949-.626-.172-.249-.132-6.972-5.502-9.731-7.676-2.578-1.883-2.774-1.591-19.237-8.697M379.73 537.252l23.413 18.774.588.39.791.465 31.14 15.373" clip-path="url(#pa100ee4b68)" style="fill:none;stroke:#000"/><path d="m492.685 491.554 4.99.54 1.033.276.422.358.211.517-.03.636-3.965 8.884-2.683 5.927-.076.45.09 1.101 1.976 9.627 1.884 9.506 1.719 7.597 1.13 6.995-.09.159-.132.06-9.366-.558-.452.067-.543.291-2.97 3.236-2.035 2.386-4.131 6.086-2.683 3.751-2.714 2.453-.407.53-.12.637 1.175 4.707-.03 1.365-.346.809-.378.583-1.04.372-2.85.583-2.863.848-4.282 2.89-.414.166-.28.02-.452-.132-1.447-1.247-.603-.689-.754-1.485-.331-.503-.573-.332-3.86-.477-.995-.106-1.613-.663-5.94-2.347-.753-.12-.814.226-2.503 1.432-6.136 3.288M339.088 339.9l11.615-.627M339.088 339.9l-5.571.356M384.555 324.77l-.154-2.778M405.928 344.456l5.981-.196M405.928 344.456l-6.769.272M405.928 344.456l.268 2.415M405.716 341.905l.125 1.675.087.876M399.16 344.728l-.124-2.598M405.716 341.905l-6.68.225M411.91 344.26l-.295-2.526-5.899.171M411.91 344.26l.127 2.494-5.84.117M345.322 349.934l.216 3.405M345.538 353.339l-8.45.475M345.538 353.339l.212 2.586M334.004 134.786l.301 17.407-.12 9.393.603 9.924M338.663 279.365l-.739-31.39-.06-4.935-.845-4.245-.784-26.584-1.447-39.746v-.955" clip-path="url(#pa100ee4b68)" style="fill:none;stroke:#000"/><path d="m378.285 169.83-8.475.454-11.457.45-10.252.133-13.313.643M391.007 133.348l-.618-.02-2.744-.02-6.347.08-8.955.304-13.719.346-17.352.385-4.146.119-3.122.244M338.663 279.365l.907 30.492M293.57 249.927l.868 13.029.444 14.571.358 1.193.828.81 1.317.464 7.26-.574 30.996-1.539 1.628.372 1.394 1.112M237.606 306.134l.109-2.304.054-5.865.296-4.796.73-2.422-.352-2.398-1.866-3.252-3.423-8.565-2.89-7.783-4.978-1.057-.71-11.676.148-1.683.162-.915-.054-1.025.126-.537.593-.184 1.952-.147 2.663.017 5.512-.096 6.096-.457 11.459-.416 6.81-.184 4.644.11 15.633-.283.574-.237.663-.22 1.112-.08 1.2.394 1.489.269 6.794-.19 1.418-.225M492.508 404.34l10.12-.353M405.842 407.276l2.954-.517 1.04-.093 16.056-.49 5.79-.32 20.442-.304 10.478-.53 9.497-.12 20.409-.561M487.785 323.332l.762 4.09 2.284 19.836.158 2.287 1.014 28.78.505 26.016M487.63 322.491l.155.84M509.487 323.086l-11.804-.173-10.054-.422" clip-path="url(#pa100ee4b68)" style="fill:none;stroke:#000"/><path d="m501.27 321.666-3.03.107-5.593.013-2.23.106-2.788.6M257.024 332.287l15.787-.496 9.822.19 8.265-.03M136.389 401.863l9.314-3.505 10.846.157.943.17 2.077.373 1.418.91 1.877 1.514" clip-path="url(#pa100ee4b68)" style="fill:none;stroke:#000"/><path d="m213.35 416.082-14.039.732-21.159 1.095-1.6-.47-3.2-3.518-3.379-2.581-4.09-5.865-3.02-3.993M150.275 370.224l.917.855.81 1.092 1.025 2.848.864 1.069 4.492 2.963.69.455.606.534.348.673.249 5.696-.547 3.536.447 2.355 1.348 3.84 1.34 5.342M405.842 407.276l-.147-2.891-.368-2.402.053-11.083-.105-9.513.105-3.556-.525-18.289-.213-.919-.428-.61-2.07-1.47-.803-.23-1.194.014M111.386 250.71l.034-1.29-2.167-1.123M100.73 255.165l.822-2.544 4.063-1.77 2.36-1.056 1.278-1.498M100.73 255.165l2.342-1.59 3.264-1.637 4.468-1.152.582-.076" clip-path="url(#pa100ee4b68)" style="fill:none;stroke:#000"/><path d="m171.21 260.808-26.614-5.318-15.06-2.884-9.216-1.764-4.825-.564-4.11.432M172.06 260.978l-.85-.17M205.985 283.121l-13.787-13.24-6.123-4.16-2.358-1.327-4.269-1.747-6.018-1.396-1.37-.273M171.827 291.69l-1.122-8.717.31-2.485 1.122-17.74-.077-1.77M205.722 296.285l-3.212.19-2.536 1.14-5.398 3.799-3.13-.024-3.157-.998-3.454.072-4.507-1.187-3.185-2.636-3.508-2.28-1.808-2.671M162.625 339.078l-.663-3.724.44-9.662-.147-3.35-4.466-9.083-4.466-6.7.805-9.92 2.635-4.51 8.09-.147 2.527-.046 4.447-.246M205.985 283.121l-.236.983-.135 4.37.108 7.81M226.764 311.781l-14.868-4.238-5.194-1.854-.98-9.404M226.166 298.774l-1.106-.712-6.242-3.68-3.695-2.84-6.222-5.62-2.916-2.8M257.024 332.287l-1.391-1.266-3.275-3.378-3.463-3.31-6.06-1.59-2.935-2.186-6.625-4.503-2.634-2.385-3.877-1.888" clip-path="url(#pa100ee4b68)" style="fill:none;stroke:#000"/><path d="m226.166 298.774-.155 1.02.301 10.862.452 1.125M162.625 339.078l.788-.042.535-.028 1.133-.617 1.457-2.232 1.458-1.092 2.05-.095 2.7.427 12.737-.427 4.048-.285 6.638-1.282 8.096 1.045 33.949-1.377 5.937 1.14 4.48-.096 7.556-1.804.837-.026M226.166 298.774l11.44 7.36M511.944 323.125l-2.457-.04M511.944 323.125l.03.902M555.33 325.131l-11.71-.91-8.52-.247-14.14-.451-9.016-.398M551.204 339.04l-22.635 1.512-14.574.877-.55-.147-.272-.211-1.199-17.044M574.761 327.82l-1.398-.212-1.568-.186-3.467-.344-4.191-.345-7.358-.398-1.567-.16-4.674-.264-2.412-.425-1.598-.398-1.689-.08-20.864-.61-1.749-.026-1.568.371h-1.688l-1.628-.08-5.368-.636M487.785 323.332l4.2.35 1.627.16 7.538-.107 3.74.107 4.521.052 2.563.133M574.761 327.82l-.464-1.246M585.959 334.592l-.204-.206-4.481-2.8-6.513-3.767M574.297 326.574l-18.968-1.443M604.811 328.139h-4.251l-8.836-.231-4.232-.219-5.714-.39-6.425-.566-1.056-.16M637.27 327.316l-1.019-.02M627.273 330.447l.333-.531.723-.624 5.94-.901 1.87-.557 1.13-.518M628.258 367.576l.003-1.108v-.583l.272-1.651.06-.783-.21-4.76-.325-7.182-.423-6.009.06-4.628-.422-10.425" clip-path="url(#pa100ee4b68)" style="fill:none;stroke:#000"/><path d="m606.047 329.744 1.538.278 17.036-.464 1.613.239 1.04.65M630.38 428.07l-.03-5.026-.121-5.862-.242-12.253-.754-14.774-.663-5.676-.271-2.785-.015-5.902-.038-1.996-.286-2.268-.4-2.208-.03-.73.218-.51.51-.504M566.76 216.008l7.847-.16 7.71-.167 11.64-.026 7.296-.424 23.11-.36" clip-path="url(#pa100ee4b68)" style="fill:none;stroke:#000"/><path d="m625.728 265.983-.427-19.391-.952-27.727.014-3.995M481.793 166.131l-.814-.172-25.252.557-1.387-.278-1.13-.425-1.343-1.022-.949-2.043-4.222-7.058-.858-1.559M606.8 328.139l1.765-.796.844-.226 8.156-.702 6.106-.08 2.231-.08 1.147-.216M626.671 307.899l.4 17.628-.022.512" clip-path="url(#pa100ee4b68)" style="fill:none;stroke:#000"/><path d="m636.251 327.297-1.53-.63-.874-.107-4.452-.18-1.217-.072-1.129-.27M606.8 328.139h-1.989M606.8 328.139l29.451-.842M509.487 323.086l-.317-.478-.391-.186-3.377-.132-2.081-.213-2.05-.41" clip-path="url(#pa100ee4b68)" style="fill:none;stroke:#000"/><path d="m500.427 297.062.783 16.09.287 5.795-.226 2.72M195.93 468.743l3.698-1.121 7.967.056 7.968-.504-.829-24.278-1.384-26.814M413.21 320.749l3.313.215M413.21 320.749l-2.939-.239M413.93 322.419l-.664-.014-.098-.072-.038-.083.08-1.501M333.517 340.256l.35 5.568M329.41 342.394l-.043-1.872 4.15-.266M335.563 312.169l-3.209.913M335.563 312.169l-.712-.028-.262.024-1.762.557-.218.112-.255.248M332.354 313.082l-1.817.388-.326.157M330.211 313.627l.29-.008.287-.005M339.543 313.812l.105.104M500.427 297.062l-.047-3.303M518.246 292.486l-1.643.186-2.035.623-2.985 1.154-1.086.676-.814 1.035-1.07.557-.92.093-2.096-.292-1.974.133-3.196.411M500.38 293.76l-.104-2.999-.483-7.666-.158-.524-.505-.65-.844-.259-4.09.223-6.539.427-.95-.106-.708-.398-1.251-1.684-.528-.73-1.734-1.446-.452-.57-.136-.743.226-2.587-.316-.822-.89-1.287-.738-.769-1.1-.583-4.252-1.009-.633-.424-.257-.518-.135-.57.09-2.282.166-3.66-.12-1.26-.332-.956-4.116-5.678-6.874-10.187-.89-.77-.678-.305-3.483-.464-.588-.331-1.779-1.897-.92-1.327-.602-.61-.77-.292-4.236.133-4.417.477-1.538.147M395.68 246.324l5.669-.265 13.085-.849 9.136-.238.664-.16.361-.291.8-1.5.753-.729 2.82-1.645 2.653-1.167 1.327-.226 9.768-.45M442.747 217.353l-.633 1.061-.272.929-.422 5.97.166.729.196.199.407.12 2.269.132.249.106.233.325.174 2.142-.09 2.76-.136.929-1.644 2.56-.331.742-.226.956.03 1.79M396.947 294.024l-12.121-2.918M395.68 246.324l.106 4.67.045 6.951.681 15.95.435 20.13M393.466 200.449l.104 2.046.527 5.253.212 4.391.512 5.081.257 8.331.422 6.766-.211 3.548.03 4.995.361 5.464M566.76 216.008l-.875.018-13.838-.008-15.348.22-26.639.12-.422-.133-.196-.398.015-9.67-.256-11.304-.121-1.127-1.085-1.738-1.78-2.388-2.758-3.065-1.297-1.153-.904-.982-.618-1.062-1.1-2.945-.905-1.539-2.066-2.772-1.824-1.447-4.854-3.343-3.905-2.163-1.478-.888-1.779-1.42-.934-.69M470.554 147.962l.678-.59.355-.193.361-.06 3.71.12.7.166.324.212.257.518.279 1.97.135.51.415.77.693 1.466 1.93 5.691.739 2.747.301 1.817.362 3.025M626.49 299.423l.181 8.476M625.728 265.983l.068.982.242 9.418.115 14.089.337 8.95M560.398 293.892l-2.563 3.913-.181.862 1.176 6.711 1.538 6.884.904 4.47.196.916.513.702 2.97 2.931 2.291 2.414-.015.557-.271.61-.438.26-8.623-.405-1.387-.067-.527.133-.652.348M585.959 334.592l.105.298-.377 1.545-.139.205M551.204 339.04l9.495-.635 24.167-1.579.512-.092.17-.094M606.658 364.002l-1.5-2.407-1.124-1.725-4.507-6.558-1.802-2.6-4.703-6.3-2.473-3.647-.678-.941-.482-.292-.792-.12-.385-.165-.859-.537-1.342-1.353-.463-.717M606.047 329.744l-.92.106-.844.106-.844.08-3.106.185-.964.173-.754.199-2.382.557-.769.212-3.06.955-.8.172-2.296.544-.658.265-.709.305-1.982.989M421.37 122.442l-6.061-2.893-1.688-1.048-.513-.239-.844-.119-.95.173-5.638 1.432-1.704.398-1.146-.026-1.96-.425-2.08-.252-1.266.345-1.357.703-.86.518-.587.716-1.448 2.442-.874 1.34-1.04 1.512-.287.822-.105.783.165 3.556-.06.57-.06.598" clip-path="url(#pa100ee4b68)" style="fill:none;stroke:#000"/><path d="m435.985 136.028-.972.272-1.523 1.094-.542.385-.543.146-1.41.034-14.917-.764-18.362-.782-5.586-.272-.482-.186-.242-.285-.399-2.322M568.63 266.833l.738.159 6.06-.213 12.016.027 14.292-.292 12.905-.16 11.087-.371M566.76 216.008l.301 12.86.453 17.271v13.716l.256 6.234.361.478.498.266M541.01 273.359l2.141-1.698 1.87-.823 9.618-3.581 1.025-.345.995-.08 9.8.053 2.17-.052M436.423 320.745l1.609.35.995.117 4.572.209h1.726l.633.02 1.161.047M604.811 328.139l.498 1.06.738.545M393.466 200.449l-1.63.215-1.342.04-1.07-.133-3.784-1.273-2.502-.73M626.671 307.899l-1.266.57-.965.106-2.232-.133-2.804-.65-.904.014-2.322.557M457.883 293.653l1.447 1.393 1.01.663.724.2 3.844.052 10.04-.77 15.317-.848 10.115-.584M378.285 169.83l1.295 5.256.27.797.604.53M392.657 184.176l-.504-1.74-.03-1.432.964-2.256.543-2.07.06-2.202-.512-2.892-1.222-1.658-.527-.252-.633-.027-12.061.16-.45.023M392.657 184.176l5.767-3.093M441.493 319.48l-.943-.033-3.67-.238-2.006-.201" clip-path="url(#pa100ee4b68)" style="fill:none;stroke:#000"/><path d="m441.493 319.48-.36-.739-.346-.344-.294-.16-4.236-.278-.513.166-.87.883M551.204 339.04l1.385 23.025.316 4.59.528 6.074.542 2.108.875 1.486 4.176 5.424 1.462 1.618 3.513 2.652M491.403 455.334l-.316.961-.143.657-.03.69.09 2.506.437 7.491.06 1.168.393 1.684.196 1.79.06 5.436.15 7.373.363 5.609.022.855M399.555 537.345l6.316-.318 4.493-.319.98-.212.92-.503 4.703-4.217 1.447-.941 3.74-2.44 3.256-2.2 2.261-1.075 1.357-.862 1.236-1.193 3.211-4.627 1.252-1.247 3.12-2.174 1.93-1.843 2.925-3.381 2.23-2.135 1.463-.716 5.065-1.604 1.629-.836 3.135-1.976 5.383-3.99 3.377-2.547 1.417-.795 1.733-.61 5.76-2.188 3.045-1.18 2.261-.477 3.633-.371 2.563.159 3.746.503 3.543.524" clip-path="url(#pa100ee4b68)" style="fill:none;stroke:#000"/><path d="m396.05 459.18 7.35.238.994-.04.784-.185.437-.318.86-1.088.844-.49 1.312-.186 9.482-.238 5.322-.027 2.2.146 1.237-.186 2.834-.252 12.076-.226 10.628-.278 19.101-.477 19.892-.239M505.027 443.933l.352 9.618-.038.689-.226.319-.709.165-13.003.61M397.143 479.242l-.287-4.906-.806-15.156M507.18 396.574l.257 6.04-.159.57-.376.571-.46.2-3.815.032M504.913 440.806l-.205-5.589-.935-14.666-.603-11.034-.543-5.53M363.786 408.889l-.021 7.312.37 11.186.143 3.534.753 17.849.272 5.517.24 2.797.046 3.846.166 6.445M630.925 443.36l-.063-6.26-.483-9.03M619.962 428.985l1.055.132.468.385.769 1.087.301.173.663.04 3.045-.186.815-.226.769-.49 2.532-1.83M630.925 443.36l.058 5.622.24 8.036.272 8.38.392 8.169.407 4.39" clip-path="url(#pa100ee4b68)" style="fill:none;stroke:#000"/><path d="m602.67 498.217-.302-2.745.136-.291.257-.226 1.477-.875 1.281-.57 7.162-2.89 1.25-.319 1.373-.16 6.301-.61 2.789-.337.384-.153 1.343-.855.407-.14.444-.006 2.91.192.626-.02 1.183-.338.256-.225.106-.53-.302-6.736.226-1.724.317-.703M399.208 521.202l.498-1.717.753-3.17v-.993l-.256-.902-1.794-5.184-.136-1.207-.512-5.317-.212-3.673-.173-2.28.016-.717.135-.729.136-.756.075-.67-.03-3.314-.565-11.33M399.555 537.345l.03-2.068-.196-1.843-.106-2.705-.165-7.624.09-1.903" clip-path="url(#pa100ee4b68)" style="fill:none;stroke:#000"/><path d="m378.883 529.795.953-.18.482-.173.302-.358 1.9-2.69.421-.558.151-.49.03-1.22.151-.59.626-1.094.249-.16.52-.085.618.119 1.613.384.573.027.324-.1 1.613-.616.92-.338.316-.252.535-.935.34-.265.376-.086 3.807.722 3.505.345M379.73 537.252l-.015 1.962.181 3.063.21 7.12.114 3.494-.188.841-.445.51-.8.312-7.032.345-5.186.291M604.976 370.931l-1.145-5.782.06-.371.272-.292.391-.192 2.104-.292" clip-path="url(#pa100ee4b68)" style="fill:none;stroke:#000"/><path d="m604.976 370.931 3.084-.63.248-.198.053-.345-.738-3.382-.283-.952-.682-1.422M584.066 419.211l-.603-5.835.197-.49.331-.226.844-.199h.679l.422-.112.377-.312.136-.385-.664-2.155.023-.285.128-.179 1.53-.623.467-.431.785-.982.49-.285.648-.212 5.759.113 4.093-.146 1.266-.378.404-.275.196-.312.049-.275-.672-4.33.106-.41.286-.405.257-.113 6.15-.478.242-.232.045-.251-.068-4.184-.852-6.115-.467-4.23-.422-4.443-.618-4.827-.392-2.984-.242-1.294M569.91 414.716l-.407 1.71-.06.982.664 3.726.98 2.573 1.04 1.91 1.1 1.366 1.191 1.564.227.478.06.636.633 15.582.06.219.189.172.376.133 1.787.006 1.326-.198 1.704-.597 1.598-.57.86-.12 6.482.278 12.302-.556 12.528-.385 16.375-.265M351.664 354.008l.116 1.612M351.664 354.008l8.44-.405M351.664 354.008l-5.432.26M360.104 353.603l.209 1.805M505.027 443.933l-2.247-.325-1.942-.646-16.274-.462-.158-4.248M505.027 443.933l-.114-3.127M510.092 439.293l-.512.12-.392.65-.242.875-2.352-.252-1.681.12" clip-path="url(#pa100ee4b68)" style="fill:none;stroke:#000"/></g><g id="PatchCollection_1"><path d="m357.225 322.668-1.937.037-.124-5.06 1.938-.037zM390.815 318.065l6.718.62.18 2.422-6.75.187z" clip-path="url(#pa100ee4b68)" style="fill:green;fill-opacity:.8"/></g><g id="PatchCollection_2"><path d="m335.42 322.05 3.992-.257-.397-4.706-3.944.17zM403.956 312.385l-.06-1.67 1.098-.03.06 1.67z" clip-path="url(#pa100ee4b68)" style="fill:#90ee90;fill-opacity:.8"/></g><path id="PatchCollection_3" d="m408.592 311.377-.372-.006.036-1.8.39.006.005-.273.844.013-.004.216.3.004-.043 2.149-1.161-.018z" clip-path="url(#pa100ee4b68)" style="fill:#006400;fill-opacity:.8"/><path id="PatchCollection_4" d="m409.972 304.954 3.814-.213-.136 7.256-3.346.252z" clip-path="url(#pa100ee4b68)" style="fill:#006400;fill-opacity:.8"/><g id="PatchCollection_5"><path d="m337.125 350.297 8.197-.363.216 3.405.212 2.586.03.464-8.593.279-.098-2.854zM405.716 341.905l5.9-.171.293 2.526.128 2.494-5.84.117-.269-2.415-.087-.876zM410.271 320.51l2.94.239 3.312.215.104 2.81-6.21.206zM410.418 323.98l6.21-.205.14 2.626.25 2.355.186 2.482-6.172.265-.239-2.376-.282-2.333z" clip-path="url(#pa100ee4b68)" style="fill:#d3d3d3;fill-opacity:.8"/></g><g id="PatchCollection_6"><path d="m347.483 326.587-.407-.013.007-.155.407.013zM348.962 324.707l-.915.066.035.367-.195.015.054.569.572-.042-.01-.106.434-.031-.052-.544.104-.008zM347.956 323.967l1.009-.038.03.606-.657.024-.006-.12-.18.006-.005-.096-.172.007zM343.497 324.717l-.636.006.003.326-.283.002-.01-.824.33-.002-.002-.165.308-.003.001.088.283-.003zM342.38 324.84l-1.19.046-.01-.17-.17.007-.025-.486.88-.035.011.213.482-.019zM342.53 324.89l.021.29-.497.026-.02-.29zM342.033 326.813l-.087-.479.467-.066.088.478zM342.079 327.548l-.033-.361.565-.04.033.362zM342.14 328.108l-.02-.247-.73.044.037.476-.463.028.051.655 1.484-.09-.035-.455.27-.016-.01-.122.19-.011-.024-.307zM346.014 328.663l-.24.007.004.142-.215.006-.003-.115-.465.012-.033-.99.565-.015.01.318-.109.003.006.17.464-.012zM344.864 328.831l-.643.035-.087-1.229.477-.026.036.5.166-.01zM346.51 327.396l-.866-.02.02-.637.866.02zM347.848 327.89h-.111l-.002.12-.264-.002.002-.16-.14-.002.007-.56.28.002.005-.392.542.005-.003.18h-.198l-.002.17-.107-.001zM348.627 328.482l-.264.01-.005-.099-.22.009-.037-.778.485-.018zM345.056 319.81l.007-.491.176.002-.008.49zM345.154 318.483l.023.73-.528.012-.022-.73zM346.247 318.974h-.603v-.77h.603zM347.378 318.297l-.435.02-.023-.384.435-.02zM347.558 318.523l.023.43-.386.017-.022-.432zM347.664 318.795l-.036-.502.7-.039.037.5zM348.214 320.532l-.045-.604.552-.032.045.604zM348.735 321.05l-.837.026-.014-.335.837-.027zM348.395 321.607l-.07-.455.497-.06.07.455zM348.9 322.236l-1.168.087-.05-.516 1.17-.086zM347.838 322.853l-.25.01-.014-.312.249-.01zM348.049 322.86l-.047-.457.935-.073.046.457zM346.813 321.945l.331-.013.021.416-.331.013zM346.7 321.773l.007-.498.475.006-.008.497zM346.27 322.036l.012.19.206-.01.045.718-.499.024-.025-.391-.319.016-.032-.518zM346.534 321.892l-.506.007-.005-.297.506-.006zM344.724 323.185l-.269.014-.022-.325.269-.014zM344 323.06l-.014-.604.363-.008.015.604zM343.933 322.363h-.37v-.452h.37zM343.111 323.112l.016-.736.395.006-.015.736zM342.816 322.629l-.006.534-.265-.003.001-.13-.206-.002.005-.503h.144l.001-.13.182.001-.003.231z" clip-path="url(#pa100ee4b68)" style="fill:#a9a9a9;fill-opacity:.8"/><path d="m342.206 322.823-.006.467-.451-.004.004-.362-.121-.001.004-.353.386.004v-.053l.323.004-.003.3zM340.578 322.493l.052.84.928-.045-.03-.486-.327.017-.021-.355zM341.317 321.819v.524h-.754v-.524zM341.45 321.031l-.015.339-.127-.004-.005.108.17.006-.01.27-.466-.016.007-.157-.197-.006.004-.092-.117-.004.01-.237-.154-.005.01-.231zM340.484 319.922h.762v.484h-.626v-.315h-.136zM340.488 319.79l-.004-.546 1.26-.006.003.545zM342.387 318.327l-.027.318.124.008-.028.333-.43-.028-.015.18-.38-.024.013-.16-.172-.011.03-.363.427.027.026-.308zM343.74 318.313l.029.564-.343.014.02.412-.45.018-.034-.668.23-.01-.015-.308zM347.642 314.199l-.83.007-.004-.431.83-.007zM347.905 314.603l-.007-.584.82-.007.007.583zM348.459 316.19l-.576.01-.015-.542.953-.02.008.311-.377.008zM348.38 316.566l-.007.677-.415-.004.007-.676z" clip-path="url(#pa100ee4b68)" style="fill:#a9a9a9;fill-opacity:.8"/><path d="m348.373 317.243.007-.677.46.004-.007.677zM345.697 315.71l-.304-.004.01-.499.304.005zM345.538 316.739l.015-.733.664.01-.015.733zM344.368 316.98l.012-.638.612.01-.016.775-.374-.007.003-.137zM344.019 316.656l.002.427-.46.001-.003-.69h.311v-.139l.349-.001.002.402zM341.32 316.68l.02.493-.91.026-.018-.493z" clip-path="url(#pa100ee4b68)" style="fill:#a9a9a9;fill-opacity:.8"/><path d="m341.307 316.313.014.367-.302.009-.014-.368zM340.881 315.494l.013.152.155-.01.016.197.194-.013.026.31-.761.05-.055-.659z" clip-path="url(#pa100ee4b68)" style="fill:#a9a9a9;fill-opacity:.8"/><path d="m340.47 315.521-.052-.602.595-.038.05.602zM349.808 315.133l-.343.014-.072-1.341.342-.014zM349.496 315.704l-.03-.557.342-.014.03.557zM351.33 316.612l-.191.001v.137l-.545.004-.003-.233.169-.001-.003-.278.18-.001-.003-.257.39-.003zM351.69 316.752l.014-.597.472.01-.015.596zM353.49 316.625l-.595-.012.016-.63.253.006.013-.463.542.011-.01.376-.2-.005zM353.778 316.586l.007-.756.468.004-.007.756zM355.03 315.625l.02.982-.449.007-.005-.242-.162.003-.016-.74zM357.297 316.109l.008-.564.362.004-.008.564zM357.225 316.16l-.391.02-.02-.288-.184.01-.024-.362.575-.03zM356.793 315.419l-.025-.253.354-.027.025.254zM356.619 314.928l.023-.443.814.034-.023.443zM356.114 315.167l-.007-.696.344-.003.008.696zM356.227 316.858l-.025-.423.58-.027.026.423zM358.39 315.207l.004-.514.622.003-.003.515zM358.375 316.745l.004-.414.683.003-.004.415zM360.186 316.15l-.38-.003.003-.495-.322-.002-.007.977.703.004zM360.282 316.414l-.015-.537.462-.01.015.537zM361.792 314.983l-.011.762-.585-.007.005-.42-.123-.002.004-.341zM361.926 315.014l.709.007-.008.682-.709-.005zM364.436 316.626l-.49-.004.008-.683.49.004zM364.911 316.129l.03.418-.3.016-.03-.418zM364.76 315.678h-.43v-.491h.43zM368.213 316.852l-.607-.077.105-.65.607.076zM369.961 316.99l-.032-.642.504-.02.033.643zM370.097 317.614l-.018-.371.362-.014.018.372zM362.386 318.735l-.058-.256.422-.073.058.256zM361.835 318.065l-.042-.474.67-.047.043.475zM360.817 318.284l-.014-.636.6-.012.015.637zM359.95 318.264l-.022-.57.372-.012.023.571zM358.67 317.793l.031.566-.408.018-.032-.566zM359.235 318.171l-.488.022-.032-.566.488-.021zM359.045 318.917l-.317.014.012.212-.59.026-.024-.412.522-.023-.01-.17.386-.017zM359.936 318.821l-.008-.292.346-.006.008.291zM360.817 319.743l-.014-.623.478-.01.015.624zM359.702 320.79l-.015-.27.31-.013.014.27zM358.602 320.804l-.023-.736.766-.018.023.736zM359.68 322.243l-.83.029-.03-.676.83-.03zM361.948 321.553l.03.763-.565.018-.03-.763zM362.529 321.023l-.041-.453.565-.04.041.453zM362.483 322.19v-.564h.559v.564zM352.684 320.814l.008-1.278.85.004-.004.577h.131l-.002.32-.106-.001-.004.609-.73-.004.001-.227zM352.119 320.413l-.075-1.247.276-.013.075 1.247zM350.747 318.496l-.882-.013.009-.425.881.014zM349.948 319.212l-.045-.557.543-.034.045.557zM350.069 319.451l.597.003-.002.289-.597-.003zM350.03 320.295l.003-.431.711.004-.002.214-.141-.001-.002.217zM350.964 321.003l-.772.014-.005-.24-.401.007-.007-.304 1.173-.022zM350.86 321.547l-.904.04-.021-.367.904-.04zM351.206 321.84l-.005.802-.326-.002v-.134l-.257-.002.003-.553h.17l.001-.113zM352.127 321.474l-.883.027-.02-.53.882-.026zM351.569 322.449l-.076-.856.54-.037.076.856zM351.162 325.486l.384-.02.021.308-.384.02zM350.845 325.32l-.011-.23.378-.016.012.231zM350.845 325.32l-.844.034-.023-.455.844-.033zM350.197 325.5l.625-.027.034.608-.626.026zM350.408 327.157l-.05-.415 1.41-.133.05.416zM351.095 328.08l.437-.01.02.651-1.186.029-.014-.456.749-.018zM350.37 327.927l-.048-.498.8-.06.047.498zM353.129 327.17l-.816.016-.006-.214.816-.017zM353.051 327.443l.019.734-.187.004.003.122-.2.004-.003-.07-.144.003-.01-.433.303-.006-.009-.353zM354.252 327.94l-.015.63-.476-.009.015-.63zM354.373 327.927l.756-.014.015.636-.756.014zM354.84 327.655l-.542-.013.008-.277.543.014zM355.565 327.571l.55-.012.014.492-.126.003.004.155-.264.005-.004-.135-.344.007-.01-.347.185-.003zM357.787 327.569l-.663-.63-.709.046-.022.411h.452l-.022.351.361.292.468-.238zM356.476 325.34l.69-.033.037.606-.69.033zM355.15 326.48l-.048-3.038 1.05-.013.031 1.98-.623.007.018 1.059zM349.263 332.746l-.972.01-.008-.69.32-.004.002.215.653-.006zM349.206 331.897l-.935.024-.022-.657.408-.01.005.156.528-.014zM349.215 329.535l.019.671-.74.016-.01-.388.113-.002-.008-.283zM348.498 330.755l-.01-.246.406-.014.01.247zM348.508 331.01l-.01-.255.407-.013.01.255zM347.612 330.732l.583-.008.008.418-.583.009zM347.61 330.562l-.015-.78.582-.008.018.95-.583.008z" clip-path="url(#pa100ee4b68)" style="fill:#a9a9a9;fill-opacity:.8"/><path d="m346.257 329.801 1.338-.019.015.78-.477.007.002.116-.35.005-.002-.099-.511.008zM345.406 330.829l-.535-.002v-.168h.166v-.368h.268v-.166h.26v.172h.15v.356h-.308zM343.835 331.15l-.317-.02.018-.21.316.019zM344.422 329.876l.084.802-.96.078-.052-.5.206-.017-.032-.302zM343.01 331.043l-.94-.052.053-.733.616.033-.025.352.324.018zM342.63 331.455l-.597-.014.008-.267.595.013zM341.047 330.892l-.014-.694.775-.012.014.694z" clip-path="url(#pa100ee4b68)" style="fill:#a9a9a9;fill-opacity:.8"/><path d="m341.055 331.277-.008-.385.551-.009.008.385zM341.543 331.813l-.678.06-.05-.44.678-.06zM340.887 331.96l.882-.075.043.394-.134.01.016.155-.296.025-.014-.126-.45.038zM341.483 332.781l-.04.663-.851-.04.04-.663zM343.224 332.35l-.437-.013.013-.33.437.013zM343.096 332.712l-.037.993-.51-.014.023-.625-.235-.007.013-.368zM344.89 333.47l-.025-.379.64-.033.026.38zM351.092 332.166l.003.597-.611.003-.001-.21h-.18l-.002-.387zM351.644 332.655l-.03-.212.2-.022.03.212zM351.456 332.377l-.007-.256.324-.006.007.255zM351.47 332.071l.023-.384.254.011-.022.385zM351.168 331.367l.025.597-.701.022-.01-.205-.156.005-.01-.232.405-.013-.007-.159zM351.44 331.554l-.06-.418.265-.03.06.418zM351.72 331.15l-.023-.365.293-.014.023.364zM351.346 330.285l-.346-.002v.217l-.462-.001.004-.787.658.003-.001.151h.148zM351.78 330.161l-.058-.7.724-.046.057.7zM352.88 330.135l-.046-.494.731-.052.046.493zM354.026 331.216l.006-.567.326.003-.007.567zM354.014 330.56l.009-.806.632.006-.007.604h-.1l-.003.201zM356.016 330.645l-.015-.205.58-.033.015.205zM356.458 329.983l-.017-.43.43-.014.017.432z" clip-path="url(#pa100ee4b68)" style="fill:#a9a9a9;fill-opacity:.8"/><path d="m355.783 330.3-.035-.92.686-.02.035.92zM357.882 330.265l.022.614-.397.01.002.067-.582.016-.01-.302.566-.015-.014-.379z" clip-path="url(#pa100ee4b68)" style="fill:#a9a9a9;fill-opacity:.8"/><path d="m356.956 330.414-.034-.943.492-.014.018.516.29-.008.006.2-.262.007.008.227zM357.723 331.926l-.476.005.003.224-.489.006-.004-.33.151-.003-.005-.395.813-.01zM359.83 329.89l-1.296.033-.023-.685 1.296-.033zM359.62 330.898l-.898.046-.035-.534.897-.047zM359.612 332.071l-.588.02-.023-.522.588-.02zM364.796 330.658l-.68.028-.008-.156-.136.006-.015-.281-.139.006-.03-.559.55-.023.017.309.403-.017z" clip-path="url(#pa100ee4b68)" style="fill:#a9a9a9;fill-opacity:.8"/><path d="m365.61 329.038.063 1.159-.385.016.015.285-.27.01.021.388-.245.01-.055-1.019.214-.01-.016-.29-.17.008-.029-.52zM366.282 329.93l-.052-.883.707-.032.053.882zM367.263 331.024l-.026-.517.528-.02.025.516zM367.225 331.68l-.016-.527.565-.014.016.528zM365.759 332.99l-.822-.017.014-.528.822.016zM366.03 332.944l-.018-.637.49-.011.018.636zM373.195 331.123h.784v.57h-.784zM372.976 330.533l.882-.014.01.497-.882.013zM372.893 330.01h.739v.41h-.739zM373.444 329.458l.015-.603.44.009-.015.603zM372.735 329.518l-.023-.69.568-.014.022.69zM371.555 329.44l.009-.72.68.005-.005.47.15.002-.002.273-.216-.003-.002.133-.449-.004.002-.153zM370.813 329.784l-.045-.763.55-.025.045.762zM370.353 330.055l.437-.013.019.47-.438.012zM369.147 329.38l.926-.035.041.842-.658.025-.013-.249-.268.01zM369.245 331.853l.784-.007.004.378-.784.006zM371.868 332.748l-.03-.504.416-.02.03.504zM372.547 332.808l-.012-.43 1.598-.032.012.428zM364.346 334.717l-.563.042-.06-.637.562-.041zM365.175 334.71l-.533.053-.083-.656.533-.053zM368.122 334.698l-.017-.209-.603.04.034.42-.133.008.02.242.263-.017.007.086.395-.026-.015-.18.208-.013-.03-.359zM365.996 336.481l-.024-.412.851-.04.025.412zM366.237 337.907l-.07-.67.656-.053.07.67zM379.553 331.399l.195-.001.001.434-.61.002-.001-.39h-.135v-.231l.55-.001zM379.105 331.13l-.03-.684.642-.022.03.684zM379.375 328.487l-.543.014.017.508.182-.004.01.313.927-.024-.007-.189-.121.004-.01-.277-.215.006-.01-.275-.228.007zM377.336 328.481l1.11-.05.035.593-.287.013.013.212-.179.007.012.193-.388.018-.026-.451-.258.012zM377.002 328.73l.097.9-.587.05-.098-.902zM375.614 329.34l-.007-.697.79-.007.008.696zM374.86 329.246l-.026-.409.64-.033.027.41zM376.168 331.515l-.419.005.002.123-.668.008-.008-.498 1.087-.013zM377.16 332.377l-.58.026-.029-.478.58-.027zM376.776 331.654l-.005-.127.241-.007.005.127zM378.17 331.707l-.015-.624.555-.01.015.623zM377.959 332.264l-.708.033-.025-.407.708-.033zM378.034 332.416l-.022-.378.272-.012.022.377zM379.775 332.436h-.821v-.497h.821zM378.174 337.68l-.402.032-.068-.65.402-.032zM378.562 337.649l-.388.031-.068-.65.388-.031zM378.652 337.47l-.068-.64.566-.047.068.64zM378.728 336.667l-.4.013-.014-.33.4-.013zM379.127 336.05l.481-.013.023.623-.481.013zM379.512 335.46l.008.479-1.003.013-.008-.479zM379.293 334.293l.535-.033.031.384-.535.034zM379.187 333.935l-.03-.497.536-.026.03.498zM375.207 335.162l-.037-1.267 1.232-.028.037 1.266zM375.755 336.848l-.058-.81.668-.036-.015-.218.77-.043.028.384.439-.024.04.561-.533.03.012.157-.674.038-.005-.077z" clip-path="url(#pa100ee4b68)" style="fill:#a9a9a9;fill-opacity:.8"/><path d="m375.306 337.645 1.176-.065-.055-.77-.672.038.017.243-.503.028zM369.923 335.135l-.59.015-.031-.962.591-.015zM370.262 334.863l-.037-.464.274-.017.038.464zM371.946 333.969l.04.872-.782.028-.02-.474.227-.008-.018-.399zM374.062 334.26l-.86-.014.011-.536.57.009.285.256zM372.829 334.835l1.036-.023.016.563-.536.011-.006-.244-.501.012zM371.863 336.086l-.85.008-.008-.56.213-.002.003.25.638-.006zM373.909 337.16l-.628-.005.001-.172-.255-.002.004-.38.749.007-.002.138.136.001zM373.293 337.801l-.034-.415.845-.054.033.416zM362.683 324.202l-.04-1.107.749-.021.036.982-.378.01.004.126zM362.468 324l-.46.016-.03-.717.46-.014zM361.677 324.399l-.023-.292.248-.015.023.291zM361.247 323.695l-.03-.49.569-.027.03.49zM358.308 324.292l-.057-.603.542-.04.057.603zM359.725 323.875l-.015-.465.59-.015.016.465zM359.28 323.835l-.037-.398.33-.024.037.398zM358.526 324.823l-.022-.249.384-.026.022.249zM359.031 325.148l.068.577-.623.057-.068-.577zM358.466 326.382l-.033-.409.625-.04.033.409zM359.438 328.205l-.007-.318.285-.005.008.318zM363.712 327.303l-.055-.216.302-.06.055.217zM362.998 327.308l.038.443.21-.014.02.222.172-.012.022.262.277-.02-.02-.243.208-.014-.04-.462-.3.02-.02-.22zM362.763 327.595l-.423-.033.032-.312.422.033z" clip-path="url(#pa100ee4b68)" style="fill:#a9a9a9;fill-opacity:.8"/><path d="m363.292 328.26-.901.06-.046-.523.902-.06zM365.899 326.943l.218.338-.267.134.079.123.223-.112.106.163-.208.104.118.184-.223.112-.077-.12-.144.072-.077-.12-.159.079-.432-.67.446-.222.065.1zM366.916 326.713l-.014-.176.527-.033.015.176zM367.112 327.927l-.038-.657.615-.027.026.446.12.065-.108.145-.027.107-.211.013-.085-.105zM373.82 325.42l-.512.02-.022-.43.513-.019zM373.61 325.977l.003-.408.374.003-.005.408zM369.75 327.747l-.738-.005.007-.684.738.005zM373.353 326.773l.724-.008.005.381-.127.002.002.235-.596.006zM372.17 326.322l-.386-.195.204-.312.386.195zM373.145 327.716l-.618-.004.003-.387.619.004zM377.513 324.97l-.065-.662.506-.04.065.662z" clip-path="url(#pa100ee4b68)" style="fill:#a9a9a9;fill-opacity:.8"/><path d="m377.167 326.406-1.5.114-.224-2.27 1.985-.151.131 1.337-.217.016.04.416-.265.02zM374.808 326.547l-.113-1.233.811-.058.114 1.233zM375.607 323.735l-.098-.842.59-.053.098.842zM377.981 323.755l-.052-.895.521-.024.053.895zM379.172 323.503l-.414.014-.01-.238.415-.013zM378.833 323.158l-.036-.36.678-.054.037.361zM378.785 321.806l-.05-.809.696-.034.028.445-.286.013.023.365zM378.016 321.627l-.006-.41.683-.007.006.418-.253.002.002.116-.34.004v-.124zM377.226 321.308l.003-.515.515.002v.108l.209.001-.003.398-.172-.001v.081l-.422-.002v-.072zM376.542 321.806l-.038-.65.576-.026.038.65zM376.444 321.567l-.55.007-.009-.517.55-.007zM377.296 318.81l.46.03-.09 1.011-.46-.031z" clip-path="url(#pa100ee4b68)" style="fill:#a9a9a9;fill-opacity:.8"/><path d="m377.8 318.33-.045.51-.459-.03.045-.511zM376.768 317.873l-.618-.026.027-.49.618.026zM378.095 317.86l.06-.929.46.023-.06.929zM384.698 321.474l-.982.051-.075-1.121.982-.05zM385.74 320.737l-.02.585-.314-.008.003-.086-.202-.006.003-.104-.173-.004.01-.276-.285-.008.012-.345.587.016-.008.225zM387.21 321.173l-.86.025-.01-.3-.14.005-.018-.46.42-.013.005.13.275-.009.004.108.304-.009zM389.29 320.203l.756.013-.023 1.03-1.289-.023.017-.738.533.01zM388.632 319.086l.008-.809.445.003-.007.81zM389.53 318.781l.007-.637.498.006-.008.636zM386.718 334.519l-.06-.286.281-.046.06.285zM386.05 333.371h.645v.242h.317v.554h-.558v-.18h-.403zM385.18 334.008l-.001-.574.755-.001.001.573z" clip-path="url(#pa100ee4b68)" style="fill:#a9a9a9;fill-opacity:.8"/><path d="m385.179 333.434.002.792h-.178v.309h-.52v-.527h.181l-.001-.574zM383.665 334.399l.724-.027.016.351-.723.027zM383.816 334.14l.03-.733.52.017-.03.733zM383.086 333.91l.02-.475.16.005.005-.106.493.015-.015.346-.162-.006-.01.237zM382.057 334.115l.058-.803.268.015.008-.117.531.03-.036.508-.106-.006-.014.197-.39-.022-.016.215zM381.728 334.777l.007-.457.522.006-.007.458zM382.425 335.742l-.027-.715.546-.016.014.392.168-.004.012.323zM380.604 336.276l-.023-.48.484-.017.023.479zM382.8 336.3l.048.976-.43.016.007.145-.31.012-.007-.172-.337.013-.026-.528.627-.023-.02-.422zM383.8 336.713l.58-.04.037.413-.58.04zM383.944 335.473l-.063-.492.603-.06.063.493zM385.218 335.5l-.008-.32.777-.012.007.318zM385.806 336.826l-.738-.004.008-.935.737.004zM387.562 336.99l-.025-.58.378-.013.024.58zM388.504 336.985l-.438.011-.015-.484.438-.01zM390.026 337.045l-.774.007-.003-.287-.411.003-.004-.315.359-.003.002.178.826-.007zM388.474 336.342l-.037-.292.271-.027.038.292zM389.183 336.25l-.385-.014.013-.285.385.013zM389.936 336.223l-.617-.014.01-.41.62.013zM389.929 335.64h-.31v-.233h.31zM389.484 335.354l-.024-.392.542-.027.025.392zM389.047 328.172l.543-.013.016.535-.542.013zM387.901 328.072l.716-.02.017.46-.716.02zM387.35 328.623l-.029-.696.522-.018.03.697zM386.899 328.785l.011.246-.295.01-.012-.245zM386.646 328.636l-.022-.495.577-.02.022.495zM384.23 329.159l-.306-.004-.005.313-.392-.005.005-.319-.128-.002.017-1.024.639.008-.007.416.186.002zM382.625 329.074l.007-.743.446.004-.007.742zM381.667 328.941l-.02-.535.686-.02.02.535zM380.62 329.093l.303-.013.03.502-.303.014zM380.62 329.093l-.036-.608.45-.021.037.609zM381.494 330.082l-.455.021-.02-.333.455-.021zM380.7 330.713l-.025-.417.656-.03-.007-.123.398-.018.033.54zM380.597 331.355l-.006-.393.57-.007.005.393zM381.301 332.352l-.597.015-.003-.124-.103.003-.012-.38.7-.017z" clip-path="url(#pa100ee4b68)" style="fill:#a9a9a9;fill-opacity:.8"/><path d="m381.682 332.343-.38.01-.016-.504.38-.01zM381.682 332.343l-.03-.968.441-.01.03.968zM382.383 332.317l.004-.487.48.002-.005.488zM383.642 332.144l-.486-.002.004-.588.487.003zM384.489 331.29l.712.005-.005.73h-.272v.11l-.182-.001.002-.347-.26-.002zM387.381 331.985l.015-.882.582.008-.016.882zM388.36 330.712l-.047-.383.407-.04.048.383zM388.21 331.893l.008-.843.445.003-.008.842zM385.823 323.364l.019.439-.163.005.02.44-.655.022-.158-.15.007-.318.123-.2.572-.018-.01-.212zM385.797 322.756l-.254.009-.015-.352-.714.024.03.708.38-.013.01.251.589-.02zM385.896 323.218l-.015-.796.571-.008.015.796zM386.658 323.06l-.038-.611.561-.027.038.61zM383.976 324.178l-.413.003.001.216-.417.003-.004-.609.83-.005zM382.383 323.423l-.036-.886.634-.02.036.887zM382.293 324.478l-.04-.525.663-.04.04.525zM381.69 324.961l-.162.005.004.071-.496.016-.004-.09-.13.005-.01-.23.11-.003-.004-.098.51-.016.005.104.166-.006zM381.818 325.3l-.046-.35.392-.04.046.35zM382.369 326.918l-.656-.013.012-.48.656.013zM383.184 326.153l.012.278-.101.003.015.351.121-.004.01.227.35-.011-.006-.119.225-.007-.023-.53-.15.005-.01-.208zM383.243 326.023l.015-.397.265.007-.015.398zM384.442 325.592l-.398-.005.008-.503.397.004zM385.022 326.939l-.008-.81.497-.003.007.809zM385.851 325.957l.587-.012.03 1.194-.587.011zM387.359 325.546l-.015-.318.398-.015.015.318zM386.838 326.19l-.022-.511.792-.027.022.51zM387.344 326.905l-.679-.013.011-.437.679.013zM388.21 326.839l-.022-.743.47-.01.023.742zM389.974 326.46l-.852.014-.024-1.185.852-.014zM396.291 320.4l-.044-.645.353-.019.044.645zM396.705 320.467l-.533.03.026.371.453-.023.01.146.268-.014-.008-.114.573-.03-.025-.37-.496.026-.008-.123-.266.014zM396.002 320.117l.033.859-.641.018-.014-.362-.646.02-.03-.786.666-.02.011.29zM395.484 319.518l-.036-.548 1.312-.067.036.548zM390.832 322.15l-.03-.81 5.473-.162.031.81zM395.205 324.6l-.015-.602 1.815-.034.014.602z" clip-path="url(#pa100ee4b68)" style="fill:#a9a9a9;fill-opacity:.8"/><path d="m393.78 324.72-.022-.908 1.427-.027.022.91zM392.96 324.896h-.634v-.796h.633zM393.64 325.861l-.004.823-.481-.002v-.128h-.215v-.225l-.49-.001.002-.52h.394v-.2l.52.001v.251zM393.75 326.275l-.06-.65.316-.022.06.65zM394.437 326.52l-.023-.576.35-.011.023.577zM397.09 326.01l-.03-.836-.317-.132-.317.046-.105.252.09.71.272-.027-.015.212.196-.006.022-.219zM403.64 321.998l.988.046-.024.39-.988-.046zM401.804 319.43l-.077.681-.318-.028-.022.194-.33-.03.06-.529.11.01.038-.345zM399.774 320.188l-1.23.072-.04-.531 1.229-.073zM398.567 320.353l1.23-.066.042.623-1.228.067zM398.409 321.38l.434-.017.02.37-.434.017zM398.409 321.38l-.018-.34 1.47-.059.018.34zM401.857 322.356l1.485.146-.043.334-.38-.037-.048.373-.158-.016.038-.293-.521-.051.008-.068-.425-.041zM401.01 322.927l.041-.697.573.027-.042.696zM400.316 322.853l.032-.677.362.013-.032.677zM400.18 322.661l-.243.002-.013-.89.244-.003zM399.509 322.321l.002.133-.128.002.004.261-.609.007-.007-.522.412-.004-.002-.194.582-.006.005.32zM399.374 323.888l-.03-.624.372-.013.03.623zM398.658 324.034l-.008-.644.572-.005.007.644zM399.45 325.433l-.007-.248.28-.005.007.248zM399.367 325.204l-.733.014-.013-.51.768-.015zM398.62 325.902l.684-.016.01.354.406-.01.009.262-1.09.026zM398.62 325.902l-.012-.416.683-.017.013.417zM400.942 325.864l.052.63-.668.043-.053-.63zM401.078 326.216l-.047-.49.633-.046.046.49zM403.384 325.155l-.053-.379.422-.045.053.378zM404.311 324.89h-.188v-.173h.188zM404.477 325.188l-.045-.24.205-.029.046.238zM402.336 325.327l-.017-.182.362-.027.017.183zM402.14 326.342l-.03-.55.547-.024.03.55zM403.756 326.029l.211-.02.04.328-.332.03-.019-.16-.82.076-.055-.473.161-.014-.019-.158.408-.038.028.23.37-.035zM404.1 326.222l-.059-.492.573-.053.06.492zM394.912 336.362l-.014-.444.573-.013.013.444zM397.09 335.633l-.03-.77.603-.018.03.769zM396.2 334.008h.626v.484h-.625zM396.2 334.008v-.365h.626v.365zM397.075 333.08l-.025-.539.754-.026.025.538zM395.688 333.04v-.372h.332v.372zM394.58 333.298l-.006-.547.791-.006.006.547zM392.597 333.126v-.438h.422v.438zM391.611 333.707l-.01-.319.175-.004-.013-.431.49-.012.023.75zM391.293 335.944l-.57.015-.03-.929.57-.014zM392.53 336.707l-.008-.836.58-.004.008.836zM395.1 328.258l-.731.013-.015-.633.73-.013zM394.467 329.425v-.908h.4v.908zM394.151 328.612l-.614-.01-.002.124-.514-.008.02-.885.919.016-.004.172.208.003zM392.786 329.147l-.508.014-.015-.397.508-.015zM391.226 329.276h-.374v-1.227h.622v.697h-.248zM391.58 328.723l.015-.756.447.006-.014.756zM391.928 329.92l-.302.01-.016-.43.301-.009zM392.289 329.91l-.361.01-.017-.429.36-.01zM391.58 330.069l-.332.01-.008-.183.333-.01zM391.542 331.88l-.63.018-.048-1.28.63-.018zM392.65 330.817l.373-.01.023.616-.558.017-.015-.36-.283.008-.015-.396.469-.014zM393.871 329.784l.505-.027.012.182-.504.027zM393.136 330.68l1.203-.055.044.732-.34.016-.006-.107-.265.013-.013-.2-.598.028zM395.65 330.5l-.4-.007.006-.273.4.007zM395.168 331.037l-.649-.007.007-.451.648.007zM394.52 331.713l-.008-.616.752-.008.008.617zM397.843 329.439l-.378.007-.011-.44-.388.008-.012-.487.332-.006-.005-.178-.19.003-.006-.21-.21.005.012.52-.603.01-.028-1.166.68-.013.003.17.76-.015zM395.278 328.062l.434-.005.004.256.284-.004.002.06.184-.002.006.315-.124.001.001.055-.236.003-.003-.22-.546.005zM395.695 330.115l-.02-.55.67-.02.021.55zM397.067 330.082l.01-.42.71.013-.011.42zM400.934 329.366l-.022-.458.35-.013.022.457zM398.605 328.868l2.208-.053.03.91-2.21.052zM399.336 328.172l-.635.02-.03-.757.635-.02zM400.158 328.271l.01-.711.61.006-.01.712zM401.492 328.245l-.09-.683.452-.047.09.684zM402.706 327.937l-.61.025-.033-.615.989-.041.016.305-.378.015zM402.788 328.444l.013.173-.58.034-.013-.174zM403.512 328.072l-.04-.61.648-.033.04.61zM403.263 328.875l-.034-.38.557-.04.035.38zM402.412 329.478l-.008-.324.256-.005.008.325zM403.595 330.015l-.045-.749.646-.03.045.75zM403.324 330.851l.037.508-.58.033-.037-.508zM402.798 332.504l.025.636-.135.005.02.543.391-.011-.019-.5.269-.009-.027-.68zM402.012 333.08l-.013-.496.633-.013.013.495zM401.937 333.278l-.513.015-.022-.603.512-.015zM400.286 333.497l-.023-.371.363-.017.023.37zM399.073 333.206l.022-.717.633.016-.022.716zM399.186 333.935l-.005-.426.83-.007.004.426zM399.276 334.75l.603-.006.007.482-.603.007zM408.103 327.827l.511-.052.076.57-.512.053zM406.852 328.524l-.076-.704.542-.045.076.704zM409.377 331.037l-.304.006.004.118-.208.004-.002-.117-.239.005-.011-.412.26-.005-.002-.083.33-.007.004.187.16-.003zM405.826 324.723l-.037-.335.347-.03.036.336zM406 326.103l-.088-.795.48-.04.087.794zM408.681 325.622l.399-.034.05.456-.044.004.021.192-.547.047-.06-.541.193-.016zM408.773 325.126l.257-.018.017.194-.256.018zM408.51 324.916l.5-.035.02.227-.5.034zM409.392 324.147l-.04-.439.575-.039.039.438zM409.37 323.43l-.046-.506.225-.015.008.096.262-.018.036.41zM409.013 322.24l.048.311-.11.014.035.223.29-.035.01.07.224-.026-.012-.07.276-.033-.06-.38-.21.026-.025-.155zM408.306 321.52l.595-.005.005.45-.595.005z" clip-path="url(#pa100ee4b68)" style="fill:#a9a9a9;fill-opacity:.8"/><path d="m408.306 321.52-.015-1.286.595-.005.015 1.286zM411.472 321.779l-.636.034-.027-.392.636-.035zM411.76 321.896l.04.588-.804.043-.027-.392.27-.015-.014-.195zM411.488 323.404l-.617-.007.006-.431.616.006zM411.593 323.37l.006-.457.597.006-.006.458zM412.844 322.615l-.548-.006.005-.413.549.007zM412.422 323.33l.006-.421.386.004-.006.422zM413.515 323.297l-.6-.006.005-.425.601.007zM413.78 323.264l.005-.441.379.003-.007.442zM414.683 322.482l-.482.026-.028-.404.482-.027zM414.8 322.832l-.006.434-.34-.004.006-.381-.208-.002.004-.283.286.003-.003.23zM415.09 323.245v-.478h.415v.478zM411.543 321.338l-.441-.026.019-.237.44.026zM411.767 321.555l-.008-.417.456-.007.008.417zM412.843 321.594l-.434.007-.008-.44.433-.007zM408.364 324.134l-.023-.421.46-.02.022.422zM413.386 322.03l.066-1.04.52.025-.065 1.041zM414.345 321.857l-.016-.407.431-.012.016.407zM414.964 321.91l-.012-.427.56-.013.013.427zM415.726 321.976l-.027-.404.508-.026.027.404zM415.756 322.719l-.033-.351.53-.04.033.351zM415.778 323.27l-.035-.374.538-.04.035.375zM415.484 324.615l-.027-.382.538-.03.027.382zM414.64 324.635l-.026-.372.47-.026.028.371zM414.015 324.828l-.244.013-.043-.596.47-.026.04.554.172-.01.01.131-.4.022zM410.999 324.394l.873-.044.033.504-.46.023-.006-.104-.159.008.006.098-.255.012zM412.87 324.73l-.028-.374.463-.027.028.375zM411.981 324.907l-.052-.657.424-.026.052.657zM411.648 325.686l.023.497-.573.02-.022-.497zM411.746 326.054v-.4h.492v.4zM412.844 326.008l-.165.004.004.14-.357.009-.017-.538.522-.012zM412.91 325.62l.518-.019.023.502-.181.006-.005-.104-.336.012zM413.348 325.36l-.299-.026.017-.152.3.026zM413.923 325.959l-.42.003-.008-.69.42-.003zM414.678 326.044l-.607.01-.014-.703.606-.01zM414.678 326.044l-.015-.703.525-.008.014.703zM415.283 325.972l-.03-.558.38-.016.03.558zM415.865 325.979l-.014-.44.531-.013.014.44zM413.625 327.556l-.38.014-.024-.494.38-.014zM413.144 327.663l-.258.01-.005-.107-.365.013-.023-.466.372-.014.01.202.252-.01zM411.308 327.747l-.019-.625.814-.02.02.625zM412.616 328.653l-.02-.76.642-.014.02.761zM413.34 328.628l-.067-.822.544-.034.067.82zM413.863 327.628l-.015-.624.403-.008.015.625zM414.543 327.45l-.052-.525.68-.052.053.525zM415.5 327.004l.918-.066.042.453-.919.066zM414.311 328.436l-.34.015-.022-.414.34-.014zM414.618 328.436l-.023-.623.598-.017.022.624zM415.29 328.377l-.052-.71.52-.029.052.71zM415.888 327.878l-.02-.3.5-.025.02.299zM416.075 328.443l-.03-.506.338-.015.03.506zM412.743 329.87l-.013-.376.362-.01.013.376zM412.448 330.165l-.4-.01.02-.641.341.008.005-.169.158.004-.005.178.098.003-.013.408-.04-.002-.004.127-.157-.003zM411.934 329.442l.035.728-.324.012-.011-.242-.305.011-.024-.485zM411.407 331.04l-.022-.528.659-.021.019.438-.281.009.003.09zM412.115 330.993l-.021-.537.538-.016.021.537zM412.77 330.944l.01-.624.367.005-.01.624zM413.943 330.079l-.606.007-.012-.798.606-.007z" clip-path="url(#pa100ee4b68)" style="fill:#a9a9a9;fill-opacity:.8"/><path d="m413.679 330.082.264-.003.011.714-.594.007-.01-.58.331-.004zM414.053 330.919l-.006-.522.616-.005.005.39-.202.002.002.13zM414.722 330.908l-.037-.579.427-.02.037.577zM414.005 330.047l-.06-.796.618-.035.06.795zM414.67 330.04l-.022-.663.567-.015.022.663zM415.305 329.994l-.022-.749.559-.013.022.75zM416.03 329.988l-.03-.67.532-.019.03.67zM415.335 330.224l.568-.046.055.527-.568.047zM416.082 330.277l.514-.017.022.526-.514.017zM424.785 324.736l.015.678-.582.01-.015-.678zM424.763 324.506l-.022-.354.56-.026.022.354zM426.369 324.014l-.022-.303.479-.027.021.303zM426.287 324.684l.02-.527.68.02-.02.527zM428.311 324.572l-.07-.394.523-.073.07.395zM431.15 324.875l-.762-.027.016-.349.761.027zM432.502 324.92l-.593.011-.015-.638.593-.01zM432.853 324.395l.463-.013.016.415-.464.013zM435.236 323.816l-1.01-.073.029-.3.225.017.086-.579.752.055zM436.078 324.246l-.3-.004v.075l-.336-.005.007-.337.36.005-.002.07.275.005zM436.133 324.197l2.069-.052.022.675-2.07.052zM441.13 324.756l-1.568.033-.011-.409 1.569-.033zM442.542 323.724l-.105-.357.575-.131.106.357zM443.543 323.85l-.224-.375.357-.165.224.374zM441.1 312.387l.008-.434.406.005-.008.434zM440.712 313.721l.093-.805.57.05-.094.806zM437.54 315.436l.099-.104.05-.128v-.135l-.055-.126-.1-.103-.134-.066-.15-.023-.152.025-.132.07-.098.103-.051.128.002.135.053.127.1.102.134.067.152.022.15-.025zM437.57 314.411l.098-.104.052-.128-.002-.135-.054-.126-.1-.103-.133-.066-.152-.023-.151.025-.132.068-.098.105-.051.128.001.134.054.127.1.103.134.067.151.022.152-.025zM438.58 314.49l.097-.105.051-.127-.001-.135-.054-.127-.1-.102-.134-.067-.152-.022-.15.025-.133.069-.098.104-.05.127v.136l.055.126.1.103.134.066.15.022.152-.024zM438.53 315.483l.098-.105.052-.128-.002-.134-.054-.127-.1-.103-.133-.066-.152-.023-.151.025-.132.069-.098.104-.051.128.001.135.054.127.1.102.134.067.151.022.152-.025zM436.873 316.085l-.455-.053.083-.551 1.58.184-.055.364.384.045-.056.375-.292-.035-.076.508-1.174-.137.07-.469-.044-.005zM434.4 316.39l.006-.394.523.006-.006.394zM433.062 315.01l.486.019-.012.239-.486-.02zM435.37 314.095l-.358-.039.036-.251.359.04zM436.17 315.785l-1.17-.097.165-1.538 1.17.097zM436.912 318.05l.94.116-.108.678-.472-.058.012-.076-.468-.057zM431.724 317.662l.033-.649.364.015.015-.288.353.014-.049.942-.4-.016-.008.163-.193-.008.01-.168zM431.362 317.705l-.823-.006.01-.915.823.007zM430.617 316.436l-.752-.01.017-.947.752.01z" clip-path="url(#pa100ee4b68)" style="fill:#a9a9a9;fill-opacity:.8"/><path d="m430.612 316.764.03-1.761 1.141.015-.03 1.761zM428.983 316.068l-.575-.027.011-.182.575.027zM427.4 316.39l-.005-.181.56-.013.005.18zM427.661 317.514l-.052-.769.306-.016.008.11.597-.032.013.19.4-.021.033.469zM422.38 314.312l-.01-.253.209-.007.01.254zM422.432 314.865l-.336-.02.02-.273.337.02zM423.29 313.662l-.089-.52.687-.093.09.52zM423.46 315.868l.951.06-.14 1.709-.95-.06zM425.018 315.966l-1.558-.098.052-.647.19.012.025-.313 1.37.086zM413.155 314.58l-.032.537-.137-.006-.008.138-.6-.027.04-.676zM413.318 313.912l-.012-.307.426-.013.012.307zM413.355 315.285l.008-.571.56.005-.007.572zM412.01 315.739l.762.046-.03.402-.763-.046zM413.796 317.77l-.598-.072.042-.267.598.073zM404.525 313.596l-.01-.289.455-.013.011.289zM408.592 311.377l-.372-.006.036-1.8.39.006.005-.273.844.013-.004.216.3.004-.043 2.149-1.161-.018zM399.987 312.49l-1.736.056-.076-1.827.14-.004-.055-1.324.994-.032.024.577 1.14-.037.015.391 1.3-.041.025.61-.995.031.024.564-.395.013-.025-.631-.425.013-.008-.195-1.061.034.053 1.283 1.039-.034zM399.416 313.794l-.479-.027.02-.285.479.025zM400.698 314.431l-.165.785-.992-.162.166-.785zM400.86 314.457l-1.153-.188.159-.752 1.152.188zM402.135 313.649l.02-.533 1.3.039-.02.533zM396.57 313.754l.068-.448.606.072-.07.448zM379.44 307.786l-.014-.507 1.316-.026.012.507zM377.273 308.036l-.085-.941 1.12-.079.086.941zM367.427 301.529l.097-.848.785.07-.04.341-.287-.025-.058.506zM366.506 308.115l.28-.751.884.255.092-.244.478.138-.092.245-.221-.064-.125.333-.494-.143-.156.418zM366.695 306.472l-.284.71-.728-.226.284-.71zM365.38 307.655l-.52-.026.03-.473.52.025zM343.2 307.635l.12-.096.08-.124.034-.14-.017-.141-.067-.13-.11-.106-.14-.07-.158-.03-.162.016-.148.058-.12.096-.08.124-.033.14.018.141.067.13.108.106.141.071.159.029.16-.016zM343.492 307.655l-.134-1.512.998-.069.135 1.512zM340.19 305.025l.672-.039.047.624-.672.04zM341.819 308.995l-.057-.492.747-.065.057.491zM337.788 308.064l-.007-.472.554-.006.004.264-.198.003.003.207zM337.68 309.363l-.024-.397.882-.04.023.398zM328.835 317.855l-.988.01-.015-1.157.988-.01zM331.225 318.512l-.099-1.255 2.151-.131.1 1.255zM334.572 321.733l-.06-1.34.723-.026.06 1.341zM339.095 329.166l.818-.046-.099-1.381-.384.021.037.52-.433.023z" clip-path="url(#pa100ee4b68)" style="fill:#a9a9a9;fill-opacity:.8"/><path d="m339.095 329.166-.676.037-.062-.863.677-.037zM337.71 329.258l-.023-.552.469-.014.022.552zM337.672 328.082l-.021-.361.568-.026.02.36zM339.045 327.13l.77-.048.027.326-.486.03.01.138-.284.017zM338.285 327.32l-.038-.342.434-.037.037.342zM338.106 327.411l-.45.03-.038-.447.45-.03zM338.247 326.833l-.58-.011.016-.585.58.011zM339.069 326.616l-.039-.67.733-.032.038.67zM338.563 324.788l1.06-.07.034.401-.747.048.02.245-.313.02zM337.874 324.54l-.016-.304.493-.02.016.303zM338.71 324.711l.907-.066-.052-.548-.483.035.018.195-.423.03zM339.533 323.821l-.673.02-.014-.38-.34.01-.006-.141 1.013-.03zM338.516 323.231l-.02-.439 1.045-.04.021.44zM337.867 323.258l-.024-.455.477-.02.024.455zM338.3 323.777l-.394-.006.007-.42.394.005zM337.03 323.75l-.03-.414.3-.016.03.414zM336.417 323.442l-.014-.553.453-.01.014.553zM335.782 323.336v-.427h.494v.427zM336.223 323.73l-.344-.006.006-.216.343.007zM336.485 323.974l.007-.302.442.008-.008.303zM336.796 327.326l-.025-.518.568-.021.025.517z" clip-path="url(#pa100ee4b68)" style="fill:#a9a9a9;fill-opacity:.8"/><path d="m334.89 326.532 1.47-.055.01.197.271-.01.008.149.122-.005.025.518-1.059.04-.022-.459-.805.03zM336.066 329.068l-.007-1.4 1.12-.005.008 1.4zM335.838 328.453l.038.705-.743.03-.054-1.018.927-.038.016.314zM333.31 324.817l-.727.017-.011-.397.227-.006-.01-.362.782-.019.015.49-.284.006zM333.623 329.567l-.032-.593.62-.027.032.594zM332.869 329.521l-.403.014-.03-.684.403-.013z" clip-path="url(#pa100ee4b68)" style="fill:#a9a9a9;fill-opacity:.8"/><path d="m332.869 329.521-.03-.683.513-.018.03.684zM331.238 329.63l-.476.022-.037-.618.477-.022z" clip-path="url(#pa100ee4b68)" style="fill:#a9a9a9;fill-opacity:.8"/><path d="m331.748 329.607-.51.023-.074-1.249.51-.023zM325.608 329.765l-.016-.96.553-.007.014.96zM320.871 326.242l-.09-1.552 1.593-.07.09 1.55zM321.663 328.805l-.034-.408.613-.04.034.408zM333.22 331.637l.62-.02.015.37-.62.02zM333.227 331.342l-.03-.75.58-.017.03.749zM335.2 331.94l-.695.013-.011-.452.694-.014zM336.315 331.286l-.924.006-.002-.367.287-.001-.004-.47.702-.005.004.377h-.067zM338.475 330.754l-.396-.008.009-.319.396.009.004-.126.98.02-.013.501-.226-.005-.006.226-.29-.006-.01.324-.214-.005.01-.34-.25-.005zM337.256 331.08l.01-.9.684.006-.005.494-.19-.001-.005.405zM337.71 331.42l-.037-.182.344-.053.036.183zM337.425 331.848h-.47v-.5h.47zM339.137 332.793l-.008.313-.322-.006.024-.93.316.006-.006.222.493.01-.01.395zM337.986 333.024l.045-.486.52.037-.045.486zM337.399 335.4l.045.7.26-.013.026.392.557-.028-.026-.404.14-.006.02.297.208-.01.007.093.357-.017-.01-.16.084-.004-.027-.417-.158.008-.013-.187-.246.013-.005-.072-.358.018.012.192-.086.004-.011-.179-.144.007-.007-.115-.093.005-.01-.142zM336.873 336.33l-.03-.591.37-.015.03.591zM337.68 336.972l.99-.06.047.596-.745.046-.016-.2-.244.015zM337.216 337.645l-.036-.433.23-.015.037.433zM337.882 337.64l.778-.05.027.328-.096.006.014.168-.105.006.011.139-.38.025-.015-.18-.119.007-.016-.191-.077.005zM338.718 339.393l-.555-.082.113-.585.554.082zM337.82 342.403l-.74-.059.064-.609.464.038-.023.226.274.022zM335.597 342.788l-.002-.24.302-.001.001.24zM335.961 342.915l-.014-.335.33-.011.015.335zM336.59 343.363l.062-.46 1.06.111-.062.46zM336.802 344.51l-.577-.17.232-.608.79.234-.184.48-.212-.063zM336.746 345.262l-.521-.11.127-.467.521.11zM334.587 346.063l.026-.56.718.026-.027.56zM347.085 348.272l.246-.027.026.181-.247.027zM347.773 349.376l-.61.02-.023-.505.61-.021zM347.855 348.778l.455-.031.038.425-.196.014-.009-.106-.26.017zM348.019 348.469l-.027-.298.258-.017.027.298zM349.916 348.476l.592-.04.043.493-.59.04zM349.177 348.311l-.016-.174.247-.017.016.174zM350.596 347.302l.021.23-.14.01.03.34-1.053.073-.029-.322.34-.023-.011-.119.441-.03-.012-.13zM349.976 347.246l-.02-.41.68-.026.02.41zM349.46 345.557l-.015-.434.71-.02.015.435zM348.709 346.75l-.035-.545.755-.038.029.443-.113.006.006.101zM347.97 345.097l.546.001-.001.312h.121l-.002.543-.32-.002v-.15h-.113l.002-.18-.207-.002v-.18h-.112v-.115h.086zM347.616 345.787l-.748-.006.006-.46.747.006zM347.13 344.112l-.03-.566.516-.021.03.565zM347.048 342.245l1.255-.078.066.816-.826.051-.016-.2-.43.026zM348.631 336.527l.096-.252.314.092-.096.252zM348.572 335.38l-.486-.02-.007.128-.27-.012.038-.669.756.034zM348.58 335.259l.283.012-.013.237-.284-.013z" clip-path="url(#pa100ee4b68)" style="fill:#a9a9a9;fill-opacity:.8"/><path d="m348.58 335.259.036-.657.709.03-.037.658zM344.77 335.489l.35-.013.01.19-.352.012zM344.493 335.364l-.013-.51.68-.012.012.509zM340.546 335.574l.345-.013.002.054.638-.023-.023-.495-.244.008-.011-.242-.454.016.007.148-.285.01zM342.23 338.02l-.016-.162.261-.02.016.161zM342.344 338.9l-.04-.482.703-.046.02.24-.178.011.02.244zM339.316 349.264l-.844-.189.196-.676.509.114-.087.302.334.074zM341.37 348.18l.006-.223.551.01-.006.224zM341.041 348.173l.006-.223.329.007-.006.222zM341.624 349.238l.012-.21.441.019-.012.21zM339.786 351.427l-.09-.717.75-.073.09.717zM339.69 353.082l-.034-.516.65-.033.033.517zM342.955 351.3l-.283-.003-.004.259-.225-.003-.002.101-.249-.002.007-.454.192.003.005-.337.143.002v-.111l.17.002-.002.113.254.002zM343.372 351.978l-.456.009-.007-.302.456-.009zM343.148 351.538l-.029-.24.285-.025.028.239zM343.611 351.321l-.022-.795.678-.015.023.795zM356.966 343.25l.728-.039.029.426-.275.015.01.142-.706.038-.014-.197.254-.013zM357.442 341.824l.226-.004.005.198.097-.002.007.289-.112.001.004.177-.362.007-.005-.198-.068.002-.011-.466z" clip-path="url(#pa100ee4b68)" style="fill:#a9a9a9;fill-opacity:.8"/><path d="m358.542 341.288.01.385-.232.005.005.183-.655.013-.002-.054-.226.004-.013-.515zM357.977 341.207l-.01-.428.656-.013.011.428zM358.537 340.642h-.717v-.592h.717zM357.738 339.998l-.028-.471.867-.04.028.471zM352.157 344.084l-.639.015-.021-.698.813-.02.008.272-.19.005zM352.628 343.927l-.034-.301.382-.033.033.302zM356.429 344.845l.845-.052.082 1.035-.2.013-.023-.302-.176.011-.007-.09-.47.028zM357.529 345.604l-.009-.426.882-.013.008.425zM357.006 346.701l-.015-.204.19-.01.015.203zM358.185 347.042l-.028-.434.553-.028.015.23-.124.005.014.206zM351.717 345.807l-.045-.644.531-.028.045.643zM352.353 346.67l-.562.03-.042-.622.562-.03z" clip-path="url(#pa100ee4b68)" style="fill:#a9a9a9;fill-opacity:.8"/><path d="m351.614 346.709 1.005-.053.04.587-.77.04-.013-.214-.237.012zM352.86 347.76l-.045-.48.446-.033.044.48zM353.294 348.178l.038.774-.42.016-.018-.36-.178.007-.02-.414zM354.174 348.935l-.42.013-.03-.789.42-.012zM355.064 348.2l-.03-.434.34-.018.03.433zM355.093 348.843l-.045-.571.425-.026.045.572zM357.301 348.373l.109-.011.026.195.487-.05-.101-.748-.596.063z" clip-path="url(#pa100ee4b68)" style="fill:#a9a9a9;fill-opacity:.8"/><path d="m357.301 348.373-.063-.464-.84.088.081.598.66-.069-.018-.134zM361.227 346.76l.508-.02.025.514-.507.02zM360.778 346.74l-.657.014-.011-.432.657-.013zM361.05 345.085h-.369v.302l-.543-.001.003-.917.611.001v.118h.3zM361.862 345.328l-.022-.598.695-.02.021.598zM362.123 341.246l-.011-.164.246-.014.011.165zM361.152 340.004l-.06-.579.569-.045.06.579zM360.317 339.939l.498-.025-.028-.446-.499.025z" clip-path="url(#pa100ee4b68)" style="fill:#a9a9a9;fill-opacity:.8"/><path d="m360.345 340.39-.057-.897-.547.027.058.898zM359.997 340.408l.693-.034.043.668-.521.026-.011-.164-.172.009zM359.822 341.857l-.038-.577 1.039-.053.038.578zM359.777 342.036l.993-.022.017.585-.496.01-.004-.133-.498.01zM361.204 341.824v-.276h.381v.276zM359.867 343.468l-.012-.418.851-.02.013.418zM361.6 343.317l-.535-.01.016-.703.534.01zM361.735 343.172l.022-.599.51.016-.022.598zM370.22 340.451l-.507-.007.006-.368.508.006zM370.662 340.43l.015.461-.291.008-.015-.46zM371.125 340.497l-.346.017-.03-.487.346-.017zM372.492 339.544l-.022-.572.601-.018.016.41-.17.006.006.161zM374.322 340.655l-.978.033-.021-.477.978-.033zM373.59 339.665l-.058-.82.741-.04.041.592-.186.01.016.229zM375.956 338.843l-.04 1.156-.145-.004-.005.141-.568-.015.012-.337.26.007.012-.356-.203-.006.02-.603zM379.07 339.64l-.328.008-.01-.304.328-.007zM378.281 339.38v-.77h.397v.77zM397.048 338.074l.006.489-.469.004-.002-.146-.488.004-.008-.712.637-.005.004.368zM397.241 338.703l-.025-.293.389-.027.025.293zM396.285 339.899l-.037-.368.228-.018.037.368zM397.219 338.098l-.02-.467.753-.026.022.467zM397.132 340.186l-.04-.72 1.047-.046.015.284.284-.013.024.438zM397.496 343.428l-.022-.147.232-.027.021.148zM397.87 343.363l-.06-.651.51-.037.06.651zM398.026 344.454l-.724.025-.022-.46.724-.026zM398.16 345.229l-.026-.384.493-.026.026.384zM398.115 345.886l-.005-.423.635-.007.006.424zM397.757 346.057l-.397.012-.022-.578.396-.012zM400.446 340.576l-.01-.222.374-.014.01.222zM400.2 340.602l-.657-.006.007-.569.657.007zM400.499 339.176l-.452-.118.087-.26.452.118zM399.935 339.12l-.665-.066.043-.34.665.066zM399.805 337.549l.013.68-.441.007-.008-.42-.134.002-.005-.261zM400.696 338.154l-.769.003-.003-.584.77-.003zM401.379 337.492l.018.888-.369.006-.003-.185-.166.002-.003-.172-.084.002-.01-.531zM403.687 337.517l-.018.582-.632-.015.01-.345.335.007.007-.236zM403.77 337.474l.018.605.38-.009.004.106-.321.008.012.394.877-.02-.01-.353-.171.003-.023-.752zM403.823 339.117l-.01-.447.717-.013.01.446zM404.257 339.741l-.007-.402.523-.007.006.402zM404.16 341.279l-.018-.53.785-.02.016.53zM404.712 342.981l-.023-.414.503-.021.023.414zM403.704 342.863l-.034-.371.56-.04.034.372zM403.076 342.981l-.022-.433.426-.018.023.434zM402.09 343.034l-.007-.46.402-.006.007.46zM401.455 343.165l-.022-.67.457-.012.022.67zM400.738 343.218l.015-.54.502.012-.015.538zM400.477 343.518l-.253.01-.018-.344-.513.02-.029-.546.767-.03zM400.58 344.157l-.776.007-.006-.538.777-.007zM401.365 344.256l-.47.024-.03-.453.47-.024zM401.44 344.256l-.052-.52.466-.036.052.52zM402.15 344.184v-.454h.463v.454zM403.644 344.151l-.42.005-.001-.15-.205.002-.004-.27.192-.002-.002-.106.432-.005zM403.756 344.144l-.008-.427.58-.008.008.428zM404.705 344.092l-.048-.355.508-.053.048.355zM400.401 346.425l.456-.033.033.354-.455.033zM400.29 345.741l-.038-.433.425-.029.037.434zM401.089 345.59l-.034-.401.299-.02.034.401zM401.761 345.643l-.052-.532.423-.032.052.532zM402.456 345.36l-.024-.38.53-.026.024.38zM403.256 345.36l-.027-.322.507-.033.027.323zM404.899 345.157l-.022-.302.47-.026.022.301zM402.643 346.642l-.023-.304.456-.027.022.305zM403.27 346.616l-.006-.429.605-.006.007.428zM404.637 346.53l-.448.007-.005-.263.449-.007zM404.996 346.51l-.024-.321.456-.027.024.322zM380.024 337.516l-.702.032-.046-.77.703-.031zM381.404 337.45h-.634v-.81h.634zM329.166 342.834l-.474-.013.016-.457.475.013zM328.405 342.364l.045.482-.55.04-.045-.483zM327.81 342.191l.017-.257.384.02-.017.257zM328.978 341.594v.345h-.694v-.345zM330.387 342.695l-.037-.557.536-.028.038.557zM332.822 342.443l-.475.014-.015-.432.474-.014zM331.954 340.725l.342-.02-.01-.14.502-.03.048.643-.178.01.017.22.086-.005.038.504-.624.036-.038-.505-.129.008zM334.774 341.628v-.312h.204v.312zM334.737 341.196l-.06-.663.584-.04.06.662zM334.835 344.413l-.087-.693.965-.093.086.693zM338.302 354.665l-.512.013-.018-.52.513-.013zM338.796 354.651l-.378.004-.004-.298.378-.004zM338.792 354.353l.671-.007.006.49-.67.006zM338.792 355.68l-.038-.405.435-.031.037.404zM340.202 355.554l-.023-.279.242-.015.023.278zM339.953 354.698l-.043-.442.445-.033.043.442zM340.558 355.308l-.05-1.156.664-.022.023.532-.191.007.016.364-.16.005.012.259zM341.657 354.147l.452-.02.041.726-.452.02zM342.915 355.487l-.022-.311.15-.009.022.312zM342.237 355.507l-.015-.295.49-.02.015.295zM342.867 354.775l-.424.027-.012-.15-.179.012-.042-.508.602-.038zM343.081 354.526l-.009-.466.89-.013.009.465zM343.45 356.216l.015-.304.264.01-.015.305zM344.166 356.017l-.022-.472.257-.01-.008-.163.544-.02.01.22.097-.003.02.416zM342.373 353.146l-.007-.164.43-.013.006.164zM341.026 352.968l-.172.004-.012-.462.679-.014.011.462-.205.004.003.104-.302.006zM340.458 352.855l-.007-.458.27-.004.007.458zM340.646 352.092l-.204.005-.007-.266.204-.004zM340.676 351.323l-.022-.59.5-.015.023.59zM341.355 351.296l-.038-.65.622-.028.038.65zM409.942 343.352l.663-.027.025.488-.663.026zM407.334 345.819l.53-.016.024.604-.532.015zM406.565 346.475l.007-.577.535.006-.007.576zM396.796 346.88l-.037-.615 1.146-.053.037.615zM386.813 339.308l.07-.121.114-.007-.046-.574.225-.014.047.574.189-.012.293.384-.241.392-.52.026-.294-.371.05-.085-.126-.061-.18.312-.379-.17.468-.808.378.168-.176.305zM387.931 339.671l-.52-.716.37-.209.52.717zM385.49 340.62l-.042-.445 3.513-.252.04.444zM382.12 339.731v-.199h.166v.2zM382.014 339.346l-.006-.16.242-.006.005.16zM381.088 338.9l.752-.034.046.762-.752.035z" clip-path="url(#pa100ee4b68)" style="fill:#a9a9a9;fill-opacity:.8"/><path d="m380.898 338.484 1.14-.053.024.424-1.138.053zM383.047 340.09l-.09-1.685 1.009-.043.09 1.685zM405.962 314.557l-.046-.544 1.01-.066.046.543zM406.098 313.84l-.04-.494 1.282-.08.039.495zM311.007 326.229l.006-.101-.052-.09-.097-.054-.114-.005-.102.046-.063.084-.005.101.052.09.097.055.114.005.103-.046zM310.713 326.925v-.418h.347v.418zM311.06 326.925v.803h-.444v-.803zM310.593 325.758v-.398h.414v.398zM309.696 324.644l1.304.013-.008.574-1.304-.013zM306.251 325.148l-.022-.652.761-.02.022.652zM308.286 326.382v-.266h.197v.266zM306.53 327.933l-.019-.902 2.081-.033.019.902zM307.224 330.493l-.008-.351.329-.006.008.351zM306.462 330.38v-.278h.452v.278zM336.579 317.068l-.11-1.474 2.865-.165.091 1.236-2.06.119.018.237z" clip-path="url(#pa100ee4b68)" style="fill:#a9a9a9;fill-opacity:.8"/></g><g id="PathCollection_1"><defs><path id="m8aef169748" d="M0 3a3 3 0 1 0 0-6 3 3 0 0 0 0 6z" style="stroke:#a9a9a9;stroke-opacity:.8"/></defs><g clip-path="url(#pa100ee4b68)"><use xlink:href="#m8aef169748" x="396.781" y="325.745" style="fill:#a9a9a9;fill-opacity:.8;stroke:#a9a9a9;stroke-opacity:.8"/></g></g></g></g><defs><clipPath id="pa100ee4b68"><path d="M90 108.325h558v510.551H90z"/></clipPath></defs></svg>