<svg xmlns="http://www.w3.org/2000/svg" width="960" height="960" viewBox="0 0 720 720"><defs><style>*{stroke-linejoin:round;stroke-linecap:butt}</style></defs><g id="figure_1"><path id="patch_1" d="M0 720h720V0H0z" style="fill:#fff"/><g id="axes_1"><path id="patch_2" d="M90 601.803h558V125.397H90z" style="fill:#fff"/><g id="LineCollection_1"><path d="m398.192 563.129-.47 14.043-.246 7.399-.363 3.639-.744 4.431M377.226 398.205l-.222-2.158M377.226 398.205l-1.216-.127M378.34 407.277l-.285-2.134-.83-6.938M357.25 296.966l5.265-6.501M357.25 296.966l-1.937 2.39M357.25 296.966l5.51 3.395M357.25 296.966l-5.538-3.398M227.009 221.448l.2.129 14.002 9.012M303.02 252.105l-51.018-16.092-4.72-2.111-6.07-3.313" clip-path="url(#p5ad041f47d)" style="fill:none;stroke:#000"/><path d="m135.469 220.732 4.901 2.73 1.328.39 1.417.092 1.778-.045 1.232-.321.7-.78.596-.88.66-.253.692-.076 2.68.696 1.674.145 3.703-.344 1.086.015.958.26 1.103.91 2.108 1.607 4.315 1.514.651.398.982.903.572.206 2.616.29 1.046.276 2.503 1.3 2.922.995.773.03.692-.206.691-.834 1.369-1.086 1.336-.933 2.109-.872 1.15-.566 2.35-2.478.613-.429.708-.314 1.368-.229 1.264-.36 1.07-.543 1.674-.917 1.522-.475.611-.015.427.122.378.307 3.002 2.945 1.626 1.346 1.698 1.208 3.429 1.859 3.92 1.706 3.404.91 5.023 1.01 3.171.459h2.8l7.39-.872 3.637-.452 2.254-.435.628-.07 1.432.013M474.042 304.19l8.347-2.103 1.634-.566 2.857-1.354M473.928 302.644l5.555-.695 7.397-1.782M534.03 286.044l-1.042-.002-4.453.618-6.145 1.751-3.75 1.292-2.664.85-29.096 9.614M372.24 273.717l-1.24-.329M372.24 273.717l.579.383.278.242.205.389.23.607M374.382 274.05l-.744-.191-1.397-.142M316.965 302.806l4.27-2.78M280.505 310.592l6.52-1.453 17.449-2.555 6.165-1.636 6.326-2.142M320.297 271.262l-2.752 27.23-.58 4.314M363.754 347.388l3.693-5.382M363.754 347.388l3.832 2.45M363.754 347.388l-4.1 6.103M380.232 357.84l-.725 7.363M380.232 357.84l-3.168-2.094M380.232 357.84l3.515 2.276M380.232 357.84l.734-6.852M386.049 315.183l3.885 2.508M386.049 315.183l-3.618 5.142M386.049 315.183l-3.383-2.15M327.545 306.613l2.918 3.695M327.545 306.613l-3.453-4.213M327.545 306.613l2.892-2.19M327.545 306.613l-1.801 1.313M330.901 280.8l-2.16-1.216M330.901 280.8l.38.212M330.901 280.8l2.907-4.45M366.377 285.647l5.554-6.73M366.377 285.647l-3.862 4.818M366.377 285.647l-1.941-1.19M366.377 285.647l5.908 3.392M328.627 272.434l1.166-4.74M328.627 272.434l.845.213M328.627 272.434l-3.412-.353M359.824 269.786l-1.565 3.117M359.824 269.786l-2.994-.94M359.824 269.786l4.789 1.476M345.025 293.08l1.962-2.566M345.025 293.08l-.798.845M345.025 293.08l4.682 2.865M345.025 293.08l-4.655-2.822M324.456 261.67l.687-2.398M324.456 261.67l-1.354 4.88M324.456 261.67l3.254.658M330.463 310.308l.523-.393M330.463 310.308l-1.67 1.205M355.105 278.974l1.363-2.64M355.105 278.974l-2.613 3.8M355.105 278.974l-4.15-2.32M355.105 278.974l5.734 3.478M321.73 271.423l1.372-4.872M321.73 271.423l3.485.658M321.73 271.423l-1.433-.161M349.707 295.945l2.005-2.377M349.707 295.945l-2.29 1.737M349.707 295.945l2.201 1.354M321.61 299.49l.227.279M321.61 299.49l-.375.536M324.465 297.307l-2.03 1.61-.826.573M352.243 274.827l-3.437-1.513M352.243 274.827l2.506-3.24M352.243 274.827l-1.288 1.828M350.955 276.655l-2.97-1.882M350.955 276.655l-2.294 3.06M338.446 269.251l-1.125 1.723M338.446 269.251l.51.22M335.817 265.887l-.274 2.057 2.903 1.307M338.446 269.251l3.292-5.037M362.515 290.465l-2.695-2.074M362.515 290.465l5.19 3.928M377.776 292.566l-5.491-3.527M377.776 292.566l3.31 2.334M377.776 292.566l-5.057 5.788M327.71 262.328l-1.264 4.822M330.737 264.813l.407-1.781-3.434-.704M343.977 276.127l1.875-4.054M343.977 276.127l-6.253-4.865M343.977 276.127l2.237 1.599M338.624 285.431l.72-1.315 4.633-7.99M342.118 301.587l3.025-2.37M342.118 301.587l-2.668 2.07M342.118 301.587l1.605 1.964M342.118 301.587l-3.04-3.801M346.966 301.13l-1.823-1.914M346.966 301.13l3.541 4.243M346.966 301.13l4.942-3.831M346.966 301.13l-3.243 2.42M356.83 268.845l-2.08 2.742M356.83 268.845l-8.325-2.665M372.285 289.039l5.916-4.68M372.285 289.039l-4.58 5.354M324.092 302.4l-2.255-2.631M324.092 302.4l2.91-2.153M346.987 290.514l5.505-7.74M346.987 290.514l-4.532-2.76M346.987 290.514l4.725 3.054M333.335 302.242l2.902-2.31M333.335 302.242l-2.898 2.18M333.335 302.242l-3.446-4.153M333.335 302.242l3.116 3.622M381.086 294.9l4.257 3.746M381.086 294.9l2.517-1.407M336.237 299.932l2.841-2.146M336.237 299.932l-3.359-4.106M336.237 299.932l3.213 3.725M336.451 305.864l3-2.207M336.451 305.864l-2.935 2.263M336.451 305.864l1.101 1.283M325.215 272.08l1.23-4.93M328.74 279.584l-4.757-3.564 1.232-3.94M345.143 299.216l2.273-1.534M345.143 299.216l-3.104-3.668M345.852 272.073l1.65-3.595M345.852 272.073l2.954 1.24M345.852 272.073l-6.895-2.601M372.022 306.35l3.91-2.318M372.022 306.35l-4.202-2.757M372.022 306.35l10.644 6.682M339.078 297.786l2.961-2.238M339.078 297.786l-3.31-4.178M355.313 299.356l-4.806 6.017M355.313 299.356l-3.405-2.057M332.878 295.826l2.89-2.218M332.878 295.826l-2.99 2.263M332.878 295.826l-2.28-2.636M342.04 295.548l2.187-1.623M342.04 295.548l-3.383-4.06M351.712 293.568l5.786-7.008M329.889 298.089l-2.887 2.158M329.889 298.089l-2.21-2.662M357.498 286.56l3.34-4.108M357.498 286.56l-5.006-3.786M357.498 286.56l2.322 1.83M339.45 303.657l1.096 1.133M338.657 291.488l-2.403-2.655M338.657 291.488l1.713-1.23M338.657 291.488l-2.89 2.12M329.793 267.693l.944-2.88M329.793 267.693l-3.347-.543M326.446 267.15l-3.344-.6M338.624 285.431l-7.343-4.42M338.624 285.431l.523.33M333.29 290.7l.242.29M333.29 290.7l-2.984 2.177M333.29 290.7l2.71-2.14M335.768 293.608l-2.236-2.617M362.76 300.36l2.827-3.582M362.76 300.36l5.06 3.233M365.587 296.778l5.098 3.686M365.587 296.778l2.118-2.385M343.723 303.55l4.364 5.083 2.42-3.26M336.74 287.975l.33.234M336.74 287.975l-.74.585M339.147 285.76l-1.988 1.836-.419.38M377.995 302.857l-2.062 1.175M377.995 302.857l7.348-4.211M377.995 302.857l-5.276-4.503M367.705 294.393l5.014 3.961M385.343 298.646l3.886 5.603M385.343 298.646l.978-.587M378.201 284.36l3.286-2.297M378.201 284.36l5.402 9.133M378.201 284.36l-3.619-3.598M330.306 292.877l.292.313M330.306 292.877l-2.908 2.21M352.492 282.774l-3.831-3.06M371.87 352.58l3.68-5.354M371.87 352.58l-3.9-2.496M371.87 352.58l2.46 1.504M371.87 352.58l-4.325 5.917M375.933 304.032l-5.248-3.568M337.321 270.974l-1.71 2.618M337.321 270.974l.403.288M378.6 325.848l3.771 2.722M378.6 325.848l3.83-5.523M378.6 325.848l-4.268 6.11M370.685 300.464l-2.865 3.129M370.685 300.464l2.034-2.11M382.43 320.325l3.811 2.678M382.666 313.032l-1.545.895-2.378 1.66-1.47 1.353 5.158 3.385M389.23 304.249l1.125 4.308M386.32 298.06l1.999 3.795.91 2.394M383.603 293.493l2.718 4.566M383.603 293.493l2.717-1.518M382.78 337.314l4.12-5.85M382.78 337.314l-3.063 4.22M382.78 337.314l-4.083-2.556M382.78 337.314l4.72 2.99M389.934 317.691l.39.27M389.934 317.691l-3.693 5.312M390.393 310.833l-.155.237-.04.11-.264 6.511M391.423 334.433l.358.244M386.9 331.463l3.165 2.14 1.358.83M391.423 334.433l-.889 1.304-3.034 4.566M391.423 334.433l.535-.428M390.779 325.86l3.582-4.866M390.779 325.86l-3.878 5.603M390.779 325.86l-4.124-2.587M391.958 334.005l3.364-4.916-4.543-3.229M374.332 331.957l-2.967 4.32M374.332 331.957l3.932 2.521M387.5 340.303l.33.208M387.5 340.303l-2.963 4.368M391.93 279.863l-1.9-.563M391.93 279.863l.38.126M391.93 279.863l-3.267 7.228M391.93 279.863l.316-.36M377.064 355.746l-2.734-1.662M377.064 355.746l-1.586 2.277M377.064 355.746l3.063-4.456M386.9 331.463l-4.076-2.604M390.382 310.305l-.002-.563M390.382 310.305l.01.528M390.382 310.305l7.876 5.19M371 273.388l-2.295 3.94M371 273.388l-6.387-2.126M364.436 284.456l-3.597-2.004M364.436 284.456l4.097-6.842M350.01 367.843l.937-1.394M356.228 374.653l2.389-3.272M356.228 374.653l3.053 2.31M354.15 369.547l-1.624 2.392.551.5 3.15 2.214M373.055 361.974l-.002 2.21M373.055 361.974l2.423-3.95M373.055 361.974l-2.087-1.323M349.666 365.677l1.28.772M372.043 379.648l-.603 9.979M372.043 379.648l.058-.584M372.043 379.648l-3.628-2.065M372.24 375.117l-.139 3.947M372.24 375.117l.194-2.91M372.24 375.117l-1.352-.834M354.008 359.55l1.065.758M372.562 370.868l-.094 1.053M372.562 370.868l.307-4.451M372.562 370.868l-2.758-1.674M372.87 366.417l.183-2.233M372.87 366.417l-.914-.472M370.968 360.651l-2.18 3.177M370.968 360.651l-.657-.454M362 373.514l3.306 1.928M362 373.514l-3.383-2.133M362 373.514l2.064-3.074M362 373.514l-2.72 3.449M373.053 364.184l-1.097 1.761M372.434 372.208l.034-.287M372.434 372.208l-1.546 2.075M366.752 399.8l.677-10.453M366.752 399.8l3.906.981M366.752 399.8l-3.465-1.081M367.429 389.347l.514-7.512M367.429 389.347l4.01.28M376.795 390.079l.41-3.558M376.795 390.079l-.086 2.009M376.795 390.079l-5.355-.452M367.447 342.006l3.918-5.728M367.447 342.006l3.809 2.553M371.365 336.278l3.935 2.463M386.014 353.843l2.43 1.622M386.014 353.843l-1.447-.92M386.014 353.843l2.964-6.436M398.258 315.494l-3.897 5.5M398.258 315.494l11.406 7.242M402.7 308.034l-.03 1.08-1.95 2.962-2.462 3.418M384.567 352.924l-3.601-1.936M384.567 352.924l-.82 7.192M382.94 365.596l.807-5.48M382.94 365.596l4.22.629M382.94 365.596l-3.433-.393M385.14 393.143l.504.058M385.14 393.143l-3.354-.426M385.14 393.143l.941-3.531M377.843 380.883l.867-8.44M377.843 380.883l-.045.405M377.843 380.883l2.927.54M376.709 392.088l.295 3.96M376.709 392.088l.996.177M379.96 384.535l-.57 2.265M379.96 384.535l.81-3.113M379.96 384.535l3.753.967M380.223 392.51l1.563.207M380.223 392.51l-2.518-.245M380.223 392.51l-.67-4.59M378.71 372.442l.797-7.239M378.71 372.442l-2.653-.07M388.444 355.465l3.832 2.464M388.444 355.465l-1.285 10.76M388.444 355.465l1.631-7.568M384.604 382.353l3.202.986M384.604 382.353l-3.834-.93M384.604 382.353l-.89 3.15M384.604 382.353l.883-3.13M381.786 392.717l1.104-4.041M381.64 378.342l-.87 3.08M381.64 378.342l3.847.881M386.099 373.608l-2.055-.053-2.403 4.787M354.975 383.723l1.201-1.268 1.522-1.713 1.583-3.78M371.237 409.96l3.47-8.161M371.237 409.96l-3.669-1.673M360.637 433.79l.338-.841 6.72-14.898 3.542-8.092M352.069 388.361l-4.434 7.798M352.069 388.361l2.906-4.638M352.069 388.361l6.755 12.204M364.114 409.905l-3.574-.78M367.568 408.287l-1.184 1.947-2.27-.329" clip-path="url(#p5ad041f47d)" style="fill:none;stroke:#000"/><path d="m358.824 400.565.702 1.383 1.412 2.613 1.761 2.847 1.415 2.497M347.635 396.159l7.143 6.657M348.686 402.727l-3.013-2.94 1.962-3.628M360.54 409.126l-5.762-6.31M348.686 402.727l2.443 2.6 1.926 1.718 1.478.92 6.007 1.16M371.036 397.25l-.378 3.531M371.036 397.25l.404-7.623M371.036 397.25l4.974.828M376.01 398.078l-1.304 3.72M321.633 261.732l-.354 2.83-.982 6.7M329.472 272.647l6.139.945M329.472 272.647l-.498 2.883M328.974 275.53l-.467 2.662.233 1.392M328.974 275.53l4.834.82M370.658 400.781l4.048 1.018M367.568 408.287l.74-1.918 2.35-5.588M358.824 400.565l4.463-1.846M354.778 402.816l1.466-.82 2.58-1.43M385.552 276.528l-2.99-1.14M385.552 276.528l1.259-3.314M392.333 279.102l-6.089-1.69-.286-.146-.173-.217-.233-.52M375.642 273.345l3.57.96M375.642 273.345l2.073-5.488M375.642 273.345l-.476.81M379.708 261.827l-.894 2.78M379.708 261.827l6.783 2.016M379.708 261.827l-.12-2.617M378.814 264.607l-1.099 3.25M385.49 266.795l-2.68-.864-3.996-1.324M377.715 267.857l3.365 1.107M387.597 270.95l.244-.61M387.597 270.95l-.786 2.264M387.597 270.95l-3.2-.964M386.49 263.843l.903.26M386.49 263.843l-1 2.952M382.562 275.389l-3.35-1.084M382.562 275.389l1.834-5.403M381.08 268.964l3.316 1.022M381.08 268.964l-1.867 5.341M386.81 273.214l6.32 1.638M393.13 274.852l-.797 4.25M393.13 274.852l.61-3.134M387.841 270.34l5.9 1.378M389.134 266.788l-.363 1.082-.93 2.47M393.74 271.718l.58-3.722M389.134 266.788l5.186 1.208M387.393 264.104l2.425.807-.684 1.877M390.355 308.557l.025 1.185M390.355 308.557l12.222-1.346M402.577 307.21l.123.824M402.577 307.21l1.185-.079M340.37 290.258l-3.3-2.05M340.37 290.258l2.085-2.505M371.93 278.916l1.64-2.026M371.93 278.916l-2.822-1.187M371.93 278.916l2.652 1.846M347.502 268.478l1.003-2.298M347.502 268.478l3.211 1.346M350.713 269.824l-1.907 3.49M350.713 269.824l4.036 1.763M346.214 277.726l2.447 1.988M346.214 277.726l1.771-2.953M364.613 271.262l-1.717 3.66M362.896 274.923l-.112.276M362.896 274.923l-4.637-2.02M362.896 274.923l5.809 2.406M360.839 282.452l1.062-3.572M356.468 276.333l1.655-3.145M356.468 276.333l5.433 2.547M361.9 278.88l.884-3.681M381.487 282.063l-4.788-4.803-2.117 3.502" clip-path="url(#p5ad041f47d)" style="fill:none;stroke:#000"/><path d="m385.385 283.962-2.985-2.54-.463.367-.45.274M390.701 295.294l-4.38 2.765M390.03 279.3l-4.645 4.662M384.988 277.844l.865.275 4.177 1.18M385.385 283.962l3.278 3.13M330.737 264.813l5.08 1.074M335.817 265.887l.63-3.004M347.985 274.773l.82-1.46M343.992 261.38l-1.34 1.793M343.992 261.38l.614-.798M342.801 246.143l.147 4.067 1.044 11.17M284.033 146.302l-2.213 3.193-.382.632-.08.401v.364l.18.382 4.616 3.713 5.352 5.585 5.03 3.786 1.248 1.07.442 1.11.523 1.836.242.918 1.006 1.377.966.803.604.918.603 1.3.402 1.874.403 2.334-.08 3.557.402 1.453.764.995 1.329 1.377.885.803.805 1.033 1.766 4.849 1.557 1.672 1.691.965 2.437.386 1.353.772 3.182 3.474.947 2.315 3.452 10.228 4.805 14.472 5.208 16.26 1.046.536 2.978.995 5.3 2.103M344.606 260.582l6.888-.87M350.683 251.12l-.223.358-.606 1.042-2.335 3.802-1.844 2.847-1.069 1.413M359.82 288.39l-3.025 3.48M342.455 287.753l6.206-8.039M342.455 287.753l-2.89-1.726M385.49 266.795l-1.094 3.191M354.75 271.587l2.961 1.26M358.259 272.903l-.136.285M358.259 272.903l-.548-.056M368.705 277.329l-.172.285M368.705 277.329l.403.4M392.333 279.102l-.087.402M388.663 287.091l.326.282M388.663 287.091l-1.782 3.94-.089.135-.472.81M386.241 323.003l.414.27M386.241 323.003l-3.87 5.567M382.371 328.57l.453.289M382.371 328.57l-4.107 5.908M378.264 334.478l.433.28M378.264 334.478l-2.964 4.263M375.3 338.74l-4.044 5.819M375.3 338.74l.407.258M379.717 341.534l-4.167 5.692M379.717 341.534l1.86 1.229M379.717 341.534l-4.01-2.536M384.537 344.671l.334.212M384.537 344.671l-2.96-1.908M384.537 344.671l-3.428 4.818M371.256 344.559l-3.67 5.28M371.256 344.559l.358.222M375.55 347.226l4.794 3.386M375.55 347.226l-3.936-2.445M388.978 347.407l1.097.49M388.978 347.407l-4.107-2.524M388.978 347.407l3.777-8.23M367.586 349.838l.385.246M367.586 349.838l-4.167 5.993M380.966 350.988l-.161-.1M359.653 353.491l-2.626 3.909M359.653 353.491l3.766 2.34M359.653 353.491l-1.066-.714M363.42 355.831l-2.755 3.963M363.42 355.831l.315.206M357.027 357.4l-1.954 2.908M357.027 357.4l3.638 2.394M367.545 358.497l-2.79 3.942M367.545 358.497l2.766 1.7M367.545 358.497l-3.81-2.46M360.665 359.794l-1.988 2.859M360.665 359.794l.332.215M355.073 360.308l-1.96 2.918M355.073 360.308l3.604 2.345M364.755 362.439l-1.98 2.877M364.755 362.439l3.43 2.225M364.755 362.439l-3.758-2.43M358.677 362.653l-2.028 2.917M358.677 362.653l.338.22M353.112 363.226l-2.165 3.223M353.112 363.226l3.537 2.344M329.754 375.275l.677-1.032.571-2.555.467-2.849.402-.883.942-1.621 4.346-1.553 3.855-.115 3.284-.734 7.392-1.566 1.422.859M368.788 363.828l-.604.836M368.788 363.828l3.168 2.117M362.775 365.316l-2.017 2.926M362.775 365.316l3.383 2.117M362.775 365.316l-3.76-2.443M356.649 365.57l-2.221 3.195M356.649 365.57l.337.219M371.956 365.945l-2.152 3.249M350.947 366.449l3.48 2.316M366.158 367.433l-1.836 2.636M366.158 367.433l.33-.454M360.758 368.242l-2.141 3.14M360.758 368.242l3.306 2.198M360.758 368.242l-3.772-2.453M354.428 368.765l-.278.782M354.428 368.765l.4.256M369.804 369.194l-2.175 2.978M369.804 369.194l-3.316-2.215M364.064 370.44l.258-.371M358.617 371.381l-3.79-2.36M367.63 372.172l-2.324 3.27M367.63 372.172l3.258 2.111M367.63 372.172l-3.308-2.103M386.099 373.608l-.05.565M386.099 373.608l1.06-7.383M370.888 374.283l-2.473 3.3M390.11 374.757l.491.076M390.11 374.757l-4.061-.584M390.11 374.757l-1.379 5.356M390.11 374.757l1.03-7.906M365.306 375.442l3.11 2.14M367.943 381.835l-4.905-3.239 2.268-3.154M367.943 381.835l.234-3.27.238-.982M385.487 379.223l.562-5.05M385.487 379.223l3.244.89M388.731 380.113l-.925 3.226M388.731 380.113l.474.146M387.806 383.34l.512.14M387.806 383.34l-.869 3.043M383.713 385.502l-.823 3.174M383.713 385.502l3.224.881M386.937 386.383l.47.136M386.937 386.383l-.856 3.229M379.553 387.92l-.163-1.12M379.553 387.92l3.337.756M382.89 388.676l3.191.936M386.081 389.612l.514.107M394.361 320.994l-4.036-3.032M394.737 340.917l.266-2.027-.451-2.82 4.115-12.13-4.306-2.946M327.398 295.088l.282.339M327.398 295.088l-2.142-2.293M327.398 295.088l-2.933 2.22M325.256 292.795l-3.22 2.643M322.526 291.244l.68.062 2.05 1.49M322.526 291.244l-.49 4.194M322.037 295.438l-2.575 1.952.664-6.443 2.4.297M372.101 379.064l2.524.967M373.57 276.89l1.175-.708M373.57 276.89l.276-1.041M375.318 275.95l.152-.162.2-.318.065-.428-.05-.324-.278-.407M375.318 275.95l1.223-.075 1.079-.016 1.682.352 1.904.591 1.927.556 1.855.486M374.745 276.182l.332-.1.24-.131M375.407 274.311l-.241-.155" clip-path="url(#p5ad041f47d)" style="fill:none;stroke:#000"/><path d="m384.988 277.844-2.032-1.19-1.268-.757-1.034-.523-1.296-.513-1.404-.436-1.413-.241-1.134.127M373.846 275.849l.26.188.31.129.33.016M363.287 398.719l-8.312-14.996M379.39 386.8l-2.185-.28M377.205 386.52l.593-5.232M387.16 366.225l3.98.626M391.14 366.85l.525.077M391.14 366.85l1.136-8.921M381.578 342.763l-.47 6.726M392.755 339.178l1.74 2.256M392.755 339.178l-1.896-3.139M339.147 285.76l.417.267M324.465 297.307l.287.334M333.516 308.127l-2.53 1.788M333.516 308.127l-3.08-3.704M390.38 309.742l-3.182 1.202-2.423.998-2.109 1.09M402.7 308.034l1.062-.903M448.866 314.814l-4.427.214-2.301-.015-6.253-.688-5.967-.973-.832-.17-3.372-1.604-2.785-1.4-2.75-.964-1.298-.574-1.14-.956-.895-.594-1.588-.808-1.383-.45-5.027-.489-1.773.109-3.313 1.679M392.276 357.929l.46.226M392.276 357.929l1.205-9.562M390.075 347.897l3.406.47M393.44 381.086l-4.235-.827M397.696 385.448l.616-3.095-4.872-1.267" clip-path="url(#p5ad041f47d)" style="fill:none;stroke:#000"/><path d="m390.601 374.833 4.3.398-1.461 5.855M375.478 358.023l.579 14.348M376.057 372.371l-3.589-.45M376.057 372.371l-1.432 7.66M374.625 380.031l3.173 1.257M393.48 348.367l.563.068M393.48 348.367l1.014-6.933M394.494 341.434l.314.056M394.494 341.434l.243-.517M327.002 300.247l3.435 4.176M327.002 300.247l-2.25-2.606M374.382 274.05l-.28.122-.28.235-.204.308-.065.306-.021.317M375.166 274.156l-.35-.117-.434.01M373.532 275.338l.058.184.256.327M378.34 407.277l.194-2.323M378.34 407.277l8.133 52.851M394.243 405.352l-2.065.207M385.847 406.44l2.418-.336M385.847 406.44l.624 3.323M379.6 407.397l.62-.122 5.627-.834M379.6 407.397l.56 3.27M378.534 404.954l.88 1.028.186 1.415M380.678 414.02l-.519-3.354M380.678 414.02l6.238-.772M386.916 413.248l.547 3.73-6.294.894-.49-3.852M380.16 410.666l6.311-.903M394.335 408.722l-1.69.185M377.612 395.973l2.407-.147M377.612 395.973l-.234.027-.202.026-.172.021M377.612 395.973l-.258-1.677-.02-.417.04-.481.029-.219.042-.21.107-.306.153-.398M378.534 404.954l.093-1.12-1.015-7.861M538.174 267.927l-.024 5.17.235 9.879" clip-path="url(#p5ad041f47d)" style="fill:none;stroke:#000"/><path d="m538.385 282.976-.198.45-.697.785-.907.702-.84.447-.94.383-.773.3" clip-path="url(#p5ad041f47d)" style="fill:none;stroke:#000"/><path d="m541.456 286.243-1.245-.692-.706-.574-.503-.703-.403-.797-.214-.501M409.664 322.736l1.795 1.14 2.589.935 2.294.451 2.865-.252 3.83-.988 2.762-.878 17.916-6.004 5.151-2.326M474.042 304.19l-10.382 3.412-9.603 4.482-5.19 2.73M541.456 286.243l2.258.288 3.338.686 5.561 1.836 6.504 3.427 15.292 8.85 15.147 8.757 9.289 5.507 4.72 2.556" clip-path="url(#p5ad041f47d)" style="fill:none;stroke:#000"/><path d="m637.27 319.513-10.383 1.57-6.232.652-3.465-.055-2.722-.307-3.207-.59-3.737-1.064-2.321-.849-1.638-.72" clip-path="url(#p5ad041f47d)" style="fill:none;stroke:#000"/><path d="m530.254 425.424-.604-2.891-.016-.72.282-4.256.362-.726.628-.406.696.042 1.038.62 1.14 2.24.354.483.684.206 2.084.1 2.914.58 4.668 2.77 1.787 1.33 1.674.474 1.618-.612 2.696-2.875.998-.498 1.505-.206 1.561.122 2.262.56.733-.131 8.088-2.432 4.821-1.675 2.504-2.012 2.994-3.28 1.328-2.425.394-.596 1.763-1.477.458-.78 3.445-7.227 1.352-2.126.83-.688 7.143-3.356 1.026-.56 1.964-1.346 4.475-1.5 3.123-1.78 3.477-3.894.95-2.448.305-2.478-.298-3.252.202-.985 1.513-2.523.354-1.714-.37-2.57-.676-3.885-.403-9.85-1.068-4.04-.944-5.001-1.61-3.87-.072-.482.258-3.503-.04-.406-1.156-4.623-.149-.302-1.062-1.148-.17-.305-2.22-6.792-.057-.643.258-1.323 1.517-4.183M534.03 286.044l3.846.118 3.58.08M473.928 302.644l.114 1.546M392.31 279.99l48.323 15.244 11.952 3.824 7.63 2.218 6.506 1.191 5.042.195 2.165-.018M472.687 293.534l-.11 2.633v.841l.201 1.002 1.15 4.634M258.403 389.493l2.801-.505 21.828-6.853 15.164-8.42 2.092-.818 9.24-.887 14.037 2.539 4.733.948 1.456-.222M319.412 392.055l-.125-1.782-.048-.314-.195-.59-.036-.325.138-.377 4.379-5.46 2.978-3.595 3.014-3.331.084-.155.061-.187.092-.664M238.089 370.388l14.624 14.371 5.69 4.734M109.246 503.444l2.817 1.116 2.165 1.254.717.29.716.039.724-.168 1.957-.933.98-.94 2.102-2.387.668-1.017.62-1.215.7-.735 1.932-1.2 1.706-1.339.547-.558.877-.688 3.252-1.835.716-.337 3.067-.788 1.578-.81 1.239-.383 2.584-.497.772-.45.886-.88 1.762-2.325.588-.451.732-.352 4.073-1.125 2.012-.871 1.046-.711 1.022-1.071 1.803-2.409 1.497-1.996 1.055-.971 2.084-1.407.942-.933 1.787-2.585 1.304-1.575 2.825-2.562.442-.689.226-.688.435-2.44.941-2.4.37-.414.636-.245 1.715-.145 3.509-.03 2.18-.345.814-.405.668-.597 1.255-1.33.95-1.423 2.149-3.326.523-1.24.91-3.135.982-2.684 1.159-2.386.644-2.065 1.014-1.79 1.079-1.828 1.48-1.621 1.538-1.69 1.207-1.032 3.284-4.29 1.392-1.316.925-1.37.653-.42 1.827-.62 1.963-.894 1.836-1.124 1.295-1.33 1.425-.728 2.76-.642 2.673-1.583 4.322-1.904 1.03-.398 1.586-.33 2.165-.236 1.948-.49 3.912-.719 1.102-.634.845-1.079.829-1.46.266-1.285-.057-5.048.17-.979.394-.574.74-.542 2.455-1.385 1.248-.688 1.126-.191 1.811.19 1.063-.19 1.923-.772 2.793-1.43 1.86-1.416 8.676-6.73 2.237-1.59" clip-path="url(#p5ad041f47d)" style="fill:none;stroke:#000"/><path d="m280.505 310.592-.692.627-10.174 12.177-1.867 4.222-1.61 6.547-2.382 5.813-9.53 15.847-4.378 6.547-4.121 3.55-7.662 4.466" clip-path="url(#p5ad041f47d)" style="fill:none;stroke:#000"/><path d="m166.697 375.765.886.252 12.982 7.817 2.728.734 7.92-1.392 7.34-.551 17.772-5.262 12.942-4.772 6.234-1.079 2.588-1.124M209.66 323.748l-.361-1.576-.218-2.432.274-1.698.87-2.814 1.078-3.06.789-2.585 1.03-1.469 2.624-1.759 4.668-2.264 2.736-.872 2.672-.29 4.105.443 3.864 1.04 2.736.811 3.558 2.02 1.32.35 3.235.154 6.488 1.086.579-.107.87-.566 1.174-1.086.918-.382 1.223-.123 3.59.949 6.664 2.31 3.831 1.162 3.8.49 3.347-.353 3.381-.535M370.31 360.197l4.02-6.113M386.264 395.642l.049-.413 3.863.367M381.97 395.21l4.294.432M381.97 395.21l-.672 9.326M380.019 395.826l.37-2.302 1.738.099-.158 1.587M386.264 395.642l-.607 9.22M385.657 404.861l-4.359-.325M385.657 404.861l3.408.204" clip-path="url(#p5ad041f47d)" style="fill:none;stroke:#000"/><path d="m381.298 404.536-1.054.1-.66-.237-.113-.237.048-5.553.5-2.783M386.473 460.128l-1.392-1.193-21.627-17.666-1.159-1.315-1.167-3.694-.491-2.47M313.714 477.152l.064-1.53.58-.764.772-.429 2.383-.825 2.8-1.194 4.733-.58 5.376-1.5 1.771-.336 2.64.428 7.244.245 1.674-.46 1.416-1.834 10.657-24.38 2.511-6.578.161-2.294 2.14-1.33M386.473 460.128l.321 2.092M386.916 413.248l-.445-3.485M392.646 408.907l.435 2.903.032.642-6.197.796M386.471 409.763l2.366-.328M330.986 309.915l1.183 1.307M344.227 293.925l3.19 3.757M336 288.56l.254.273M410.188 342.798l5.539-4.544.253-.792-.107-.715-.57-.593-1.014-.78-5.198-2.824-.391-.44-.147-.418-.131-1.267.072-1.17.13-1.063 1.04-5.456M368.184 364.664l-1.696 2.315M390.634 393.776l-4.99-.575M390.634 393.776l.783-3.059M396.059 391.902l-.555 2.356-4.87-.482M391.417 390.717l4.642 1.185M391.417 390.717l-4.822-.998M348.686 402.727l-1.245 1.352M392.178 405.56l-3.913.544M392.178 405.56l.468 3.347M392.646 408.907l-3.81.528M511.517 430.287l4.049-1.177 3.87-1.492 4.395-.658 6.423-1.536M581.797 497.77l-3.412-2.265-10.495-1.712-6.568-5.69-7.019-4.527-22.278-15.479-3.606-5.69-2.19-4.527.966-15.112 3.67-6.852-.61-10.492M369.78 264.569l-2.068 6.381M369.78 264.569l7.22 2.348M351.494 259.712l2.495.367 15.791 4.49M367.712 270.95l-3.276-1.08M377 266.917l-2.261 5.967-.75.023-6.277-1.957" clip-path="url(#p5ad041f47d)" style="fill:none;stroke:#000"/><path d="m351.494 259.712 2.64-8.024 24.174 8.403.479.68.008 1.243-1.795 4.903M379.587 259.21l-.051-2.756M387.393 264.104l.336-4.958-8.142.064M332.644 259.521l1.505-2.08 1.393-1.97.104-.463-.12-.36-.604-.405-.66-.222-.548.069-.499.314-.877 1.66M331.207 260.829l-.153.445M332.644 259.521l-.885.424-.298.39-.254.494M331.207 260.829l-5.931-1.882-1.574-.328M331.207 260.829l.898.256M332.105 261.085l.37-.746.17-.818M339.433 263.525l-2.897-1.029-4.431-1.41M341.738 264.214l-2.305-.689M341.738 264.214l.479.155M341.738 264.214l.914-1.04M396.059 391.902l.773-3.178M396.832 388.724l-9.424-2.205M396.832 388.724l.864-3.276M397.696 385.448l-9.378-1.968M333.808 276.35l.525.159M333.808 276.35l1.803-2.758M335.61 273.592l.543.122M358.123 273.188l4.661 2.01M358.123 273.188l-.412-.34M362.784 275.199l5.75 2.415M368.533 277.614l.575.115M321.837 299.769l.854-.586 2.061-1.542M321.837 299.769l-.602.257M324.752 297.64l2.928-2.213M327.68 295.427l2.918-2.237M330.598 293.19l2.934-2.2M333.532 290.99l2.722-2.157M336.254 288.833l.816-.624M337.07 288.209l.383-.324 2.111-1.858M354.827 369.021l2.159-3.232M354.827 369.021l-.677.526M356.986 365.789l2.03-2.916M359.015 362.873l1.982-2.864M360.997 360.009l2.738-3.972M363.735 356.037l4.236-5.953M367.97 350.084l3.644-5.303M371.614 344.78l4.093-5.782M375.707 338.998l2.99-4.24M378.697 334.758l4.127-5.9M382.824 328.859l3.831-5.586M386.655 323.273l3.67-5.311M390.325 317.962l.257-6.759-.022-.13-.167-.24M348.505 266.18l-6.288-1.81M392.246 279.504l.064.485M388.989 287.373l3.32-7.384M386.32 291.975l.689-.57.13-.141 1.85-3.891M386.595 389.719l.813-3.2M386.595 389.719l-.951 3.482M387.408 386.52l.91-3.04M388.318 383.48l.887-3.221M389.205 380.259l1.396-5.426M390.601 374.833l1.064-7.906M391.665 366.927l1.07-8.772M392.735 358.155l1.308-9.72M394.043 348.435l.765-6.945M394.808 341.49l-.07-.573M342.652 263.173l-.435 1.196M338.957 269.472l3.26-5.103M338.957 269.472l-1.233 1.79M337.724 271.262l-1.57 2.452M336.153 273.714l-1.82 2.795M334.333 276.509l-3.052 4.503M388.837 409.435l-.572-3.33M325.143 259.272l5.911 2.002M325.143 259.272l-.304-.138M336.447 262.883l2.986.642M331.054 261.274l.97.285 4.423 1.324M323.702 258.619l1.137.515M321.177 257.832l1.481.467 1.044.32M303.02 252.105l18.157 5.727M212.204 134.559l1.055.948.684 1.492 2.954 10.595.99 3.175.273 1.308-.04 1.331-.386 1.928-.008 3.06.064 1.063.684 2.47 2.93 4.927 1.416 2.678 1.702 2.88.632.615.898.203 9.912 1.129 9.352 1.2 1.683.613.354.227.119.184-.131.182-.495.615-2.842 10.427-.064 1.109.435 1.07.941 1.255 9.594 5.914 3.686 2.248 1.111.161 3.823-.038 4.194 1.384.277.318.584 1.755.54.742.74.184 6.358.39 3.823-.176 2.077-.36.402-.007.379.145 1.408 1.209.974 1.415.611 3.396.757 4.36.644 2.012 1.183 2.088 3.614 4.108 3.927 6.838 2.802 4.368.966 1.247 1.448 4.36 1.836 9.324.08.758-.133 2.72M381.157 350.37l3.714-5.487M381.157 350.37l-.048-.881M381.157 350.37l-.352.519M390.859 336.039l.922-1.362M390.859 336.039l-3.028 4.472M380.805 350.889l-.461-.277M380.805 350.889l-.678.401M384.871 344.883l2.96-4.372M391.781 334.677l.177-.672M380.127 351.29l.217-.678M380.344 350.612l.765-1.123M227.009 221.448l-44.633-28.728-2.873-1.309-18.584-5.943-6.198-1.714-27.977-8.246-26.013-7.573M386.794 462.22l10.963 71.384.58 4.313.386 5.268-.314 14.132-.217 5.812" clip-path="url(#p5ad041f47d)" style="fill:none;stroke:#000"/><path d="m431.674 469.198-4.089-.825-2.35-.215-11.493.796-24.146 2.325-.612-.826-1.03-7.22-1.16-1.013M321.177 257.832l-.043.702.355.59.57.397.693.23 1.465-.13.622-.487M538.174 267.927 503.5 282.032l-15.227 6.333-3.06 2.326-12.526 2.843M166.697 375.765l-1.605-1.106-3.318-2.098.256-3.49.427-2.747.427-2.504-.708-2.318-.183-1.31-1.024-1.97-1.025-2.239-.232-.707v-1.217l.232-1.299.183-.927.158-1.02.513-1.113.512-1.356.403-1.217.134-1.079.05-.822.206-.708.647-1.24 1.22-2.632.622-.87.671-.66.28-.962.416-.997.341-1.125.049-.66.305-.603.695-1.078 1.5-3.073.72-1.24.318-.835.012-.429.036-.533.098-.429.025-.325.024-.417-.207-.324-.281-.349-.623-.382-.097-.15.147-.325M243.2 211.141l-.355.153-1.9.98-2.124.214-3.155.703-1.996 1.378-2.608 3.151-4.053 3.728" clip-path="url(#p5ad041f47d)" style="fill:none;stroke:#000"/></g><g id="PatchCollection_1"><path d="m400.124 324.574-.729.153-.47.94-1.659 5.951.153.773 1.143 2.547 1.24 2.524 1.006.987 4.33 2.431 1.119.651.748.099.861-.734.62-1.056 1.232-1.988.539-.23.668-.214.708.077.821.466 1.18.715.185.039h.281l.403-.306.042-.155-.113-.293-.271-.382-.475-.482-1.876-1.369-.233-.145-.378-.039-.652-.176-.218-.214-.032-.206.145-.26.016-.123-.129-.206-2.607-1.377-.354-.405-.122-.544.065-3.526-.48-1.104-.904-.839-2.358-1.2-1.61-.505zM285.35 514.96l5.151 6.057 7.47 4.405 1.738-2.937-6.375-3.67-1.802-1.836z" clip-path="url(#p5ad041f47d)" style="fill:#00f;fill-opacity:.8"/></g><g id="PatchCollection_2"><path d="m107.765 322.294 10.174-13.216 12.62-8.811-2.834 36.223-7.983-10.524-7.083.49zM9.572 282.399l-15.003 10.28.387 15.787-12.62-.49 8.498 9.546-1.288 17.377 8.5-1.713 12.363 7.343-3.864 23.496-6.696 25.208 2.833 3.67 5.667-6.118 9.787-2.202-1.932-17.866.257-10.524 6.826 6.608 1.416-9.79.773-15.787 9.401 11.014 4.507-19.09 16.741 13.094-.515-21.294 13.908 19.703 6.568-5.997 9.272 13.217 5.022-10.524-3.22-11.38 8.243-2.082v-5.629l-12.62-7.098 25.111-12.115 15.968-7.955 12.492-19.214-5.409-1.59-16.74 16.398-9.53-12.483 14.809-4.16-12.363-8.568-2.06 6.731-25.112-4.038-23.438-10.648-1.931 1.591 6.439 15.91-16.87 7.71-.13 3.427 12.106 2.08-9.787 12.483-16.226.98-10.946-1.225-2.318-10.157z" clip-path="url(#p5ad041f47d)" style="fill:#006400;fill-opacity:.8"/></g><g id="PatchCollection_3"><path d="m334.394 273.263.806-5.013 2.802 1.31-2.45 3.857zM375.485 284.21l.896.909.94-.837-.896-.91zM393.94 320.933l-3.5-2.306-3.165 4.407 3.321 2.166zM382.274 337.37l-3.612-2.183-2.47 3.275 3.531 2.184zM385.61 358.251l-.897 7.03 2.157.32.925-7.004z" clip-path="url(#p5ad041f47d)" style="fill:green;fill-opacity:.8"/></g><g id="PatchCollection_4"><path d="m329.922 271.53 3.977.594.924-5.699-3.993-.565zM356.304 288.82l1.535 1.105 1.283-1.607-1.535-1.106zM338.836 291.01l1.2-.71-3.195-1.778-.145.364z" clip-path="url(#p5ad041f47d)" style="fill:#90ee90;fill-opacity:.8"/></g><path id="PatchCollection_5" d="m370.343 413.337-17.965-3.548-9.263-9.008 1.925-2.683 2.907-4.012 9.292-16.373-10.279-10.772 10.16-15.174 20.599-29.176 2.41-2.38-2.575-1.59-1.992-3.463 3.702-2.24-2.624-1.7 2.564-1.977 3.128 2 6.426-3.512-1.662-5.118-1.932.857-.85-1.674-4.816 2.714-3.155-.123-5.228 2.733-.813 1.162-7.815-5.324.837-1.223-4.25-2.693-1.03 1.408-2.19-1.346-8.37 10.766-4.7-6.055-13.306 10.025-9.263-12.725-4.265 2.853 3.924-47.065 5.924 1.652 6.554-15.809 41.734 14.876 20.546-1.106.185 7.125.878.216-2.886 14.235.262.934-4.78 11.74 4.78 5.798-2.82 2.01 3.819 7.047 14.146-1.111 4.378.306 4.945 2.028 1.353.52 2.813 1.307 7.972 2.793 6.084 1.59-.483 1.867-2.8-.581-2.963-.857-7.275-1.407-3.864-1.163-5.151-3.549-6.18.306-2.886-.04-2.009 3.36 1.063.535.354 1.622-4.379 10.126-3.943 12.105.574 5.686-.237 5.95-2.432 19.363 1.866.667-1.244 7.537 1.304.23-1.159 5.801 4.718 1.328-.787 3.541-.717 3.099-.828 3.25-.697 2.645-.345 1.488-3.8-.245.017 9.56-13.77.073-3.777-.103zm-8.173-123.852 3.002-3.701-4.354-2.386-2.69 3.058z" clip-path="url(#p5ad041f47d)" style="fill:#d3d3d3;fill-opacity:.8"/><g id="PatchCollection_6"><path d="m361.27 281.97.981-3.167 3.478 1.667-.403 1.438-1.336 2.034zM361.71 294.566l1.948-2.31 3.03 2.307-1.947 2.31zM353.424 286.404l1.156-1.374 2.25 1.71-1.155 1.373zM329.898 261.244l1.332.369-.176.575-.224-.062.031-.099-1.11-.307z" clip-path="url(#p5ad041f47d)" style="fill:#a9a9a9;fill-opacity:.8"/></g></g></g><defs><clipPath id="p5ad041f47d"><path d="M90 125.397h558v476.406H90z"/></clipPath></defs></svg>