<svg xmlns="http://www.w3.org/2000/svg" width="960" height="960" viewBox="0 0 720 720"><defs><style>*{stroke-linejoin:round;stroke-linecap:butt}</style></defs><g id="figure_1"><path id="patch_1" d="M0 720h720V0H0z" style="fill:#fff"/><g id="axes_1"><path id="patch_2" d="M90 640.062h558V87.138H90z" style="fill:#fff"/><g id="LineCollection_1"><path d="m449.532 312.984-4.405-2.897M449.532 312.984l-1.409 2.075-2.342 3.773M449.532 312.984l.13.455.396.205" clip-path="url(#pa93832b4b6)" style="fill:none;stroke:#000"/><path d="m450.508 312.915-.504-.149-.472.218M451.276 301.69l-.246 4.986-.16 2.502-.171 1.285-.202.88-.433.8-.532.84M452.559 313.527l3.621.435M452.559 313.527l-.855-.385-1.196-.227M450.058 313.644l1.626-.008.875-.109M420.556 357.841l-.87 1.4M420.556 357.841l.457.416M420.556 357.841l2.217-3.423M403.056 385.058l-7.102.4M403.056 385.058l-.242.726M403.056 385.058l.955-.04M409.06 375.547l-3.742 5.967-2.262 3.544M418.484 384.944l.86-.307M418.459 384.227l.015.3.01.417M418.443 389.729l.01-2.057.03-2.728M418.484 384.944l-7.262.366M418.459 384.227l-7.257.351M414.803 379.101l2.805 2.215.453.682.272.702.13.554-.004.973M418.459 384.227l.885.41M389.85 386.163l-2.153.17M389.85 386.163l1.015.175.82-.01 3.741-.148M395.954 385.458l-4.22.247-.793.119-1.09.339M404.011 385.018l.563-.993 2.842-4.51 2.322-3.585M408.82 384.694l-2.214.107-2.595.217M404.011 385.018l-.302.717M446.414 319.42l-.633-.588M446.414 319.42l1.796-2.879 1.488-2.254.36-.643M447.812 327.106l-.634-6.307-.13-.4-.137-.342-.497-.637M441.342 327.044l2.216-3.364 2.856-4.26M450.508 312.915l.428-.763.432-.95.15-.967.072-.95.422-6.367.08-1.175M450.508 312.915l-.45.73M453.857 272.667l.739-7.043M453.857 272.667l-.463 1.01-.232 1.344-.22 2.595M453.66 277.68l.136-1.31.111-1.953.04-.874-.09-.876M352.018 389.094l-8.5.765M352.018 389.094l4.435-.37M356.453 388.724l.083.803-.259.43-3.5.256-.644-.316-.115-.803M268.201 461.163l5.874 5.83M286.904 435.53l-3.047 4.097-2.294 3.154-2.706 3.648-1.286 1.838-1.182 1.617-1.097 1.482-.587.829-1.666 2.315-1.623 2.104-1.696 2.374-1.519 2.175M230.506 482.624l7.392-2.61 3.56-1.245 2.917-1.048 2.514-.969 2.113-.87 3.48-1.581 2.876-1.7 1.66-1 1.538-1.076 1.66-1.256 1.81-1.453 1.82-1.66 1.047-1.118 1.287-1.483 2.021-2.392M510.944 303.66l.272.866.2.608.207.608.367.855.343.529M478.035 256.612l.307.959.317.855.618 1.117.805 1.236 1 1.498 29.862 41.384" clip-path="url(#pa93832b4b6)" style="fill:none;stroke:#000"/><path d="m513.89 306.163-.472-.456-.387-.37-.477-.371-.524-.415-.638-.534-.448-.356M512.28 307.256l-.09.643.174.626M512.28 307.256l-.44.378-.614.797-.579.702-.767.809M512.28 307.256l.053-.13M513.917 309.409l.548-.123.475-.298.344-.437M509.88 309.942l1.014-.19 1.252-.184.774-.08.997-.08" clip-path="url(#pa93832b4b6)" style="fill:none;stroke:#000"/><path d="m512.364 308.525.272.38.371.288.44.173.47.043M515.284 308.55l.153-.41.036-.435-.084-.43-.198-.392M515.284 308.55l.752-.974.785-.908 1.304-1.485M514.146 306.207l-.256-.044" clip-path="url(#pa93832b4b6)" style="fill:none;stroke:#000"/><path d="m518.125 305.183-1.05.302-1.127.262-.616.141-.74.193-.446.126M515.19 306.883l-.284-.312-.356-.231-.404-.133M513.89 306.163l-.581.098-.58.332-.396.533M509.88 309.942l2.484-1.417M509.88 309.942l-8.179 5.207M518.125 305.183l-2.934 1.7M518.125 305.183l8.796-5.441M471.186 229.76l3.435 2.037M465.981 246.266l.89-1.676.191-.662.242-.98 3.882-13.188M467.36 227.036l1.236.846 2.59 1.878M475.043 197.436l2.55 16.348 1.312 8.868 1.393 9.174M478.035 256.612l-.25-1.043-.112-1.177.048-1.22.118-1.004.448-1.686.392-1.23 1.61-5.018.417-1.79.276-2.214v-1.848l-.03-1.662-.13-1.334-.192-1.32-.332-2.24M474.62 231.797l.62.138.93.12 2.474.142.578-.005 1.076-.366M461.701 256.138l-.885 5.734M461.701 256.138l-4.455.138M465.981 246.266l-1.609 3.277-1.483 3.42-1.188 3.175M454.596 265.624l.297-1.835 1.583-6.401.056-.365.115-.391.315-.252.284-.104M458.383 244.67l-.247 1.418-.759 5.62-.11 1.038-.021 3.53M454.596 265.624l-3.867-.213M421.013 358.257l2.394-3.448M421.013 358.257l3.3 2.911M421.013 358.257l-.86 1.32M453.645 388.434l1.77-.243M453.44 387.06l.064.237.091.385.05.752M451.015 397.43l-.487-2.768-.574-4.157-.035-.46.151-.37.196-.381.342-.248.976-.197 1.317-.267.744-.148M373.282 387.47l7.285-.568M373.282 387.47l.289 5.45M365.687 388.065l2.766-.255 4.829-.34M373.878 406.466l.864.237M366.777 405.842l3.862.1 1.358.138 1.88.386M370.961 411.013l.372-.593.383-.593.583-.96 1.579-2.401M374.3 403.173l.08.841.01.554-.06.681-.14.604-.312.613M331.198 423.746l-3.294.362M331.198 423.746l.18 2.516M331.198 423.746l6.945-.712M330.69 418.95l-.01.9v.564l.05.544.468 2.788M338.143 423.034l.185 2.913M338.143 423.034l-.011-4.74M344.387 420.569l-.18.196-.789.614-.87.656-.955.515-.885.37-.8.119-1.765-.005M345.183 417.794l-7.051.5M345.183 417.794l-.272-5.14M344.387 420.569l.409-.447.418-.666.05-.505-.081-1.157M344.53 407.227l7.965-.544M344.53 407.227l-7.147.564M344.53 407.227l-.432-7.044M344.53 407.227l.381 5.427M381.773 407.692l-.261-5.072M389.12 407.177l-1.232.149-1.69.232-1.588.217-.66.04-.76.03-1.417-.153M374.742 406.703l2.616.356 4.415.633M398.66 404.666l6.236-1.745M398.66 404.666l-2.218.549M398.66 404.666l1.006 3.856M401.667 416.025l-1.7.425M401.667 416.025l-1.02-3.677M406.998 410.578l.976 3.198-.01.292-.15.172-.248.132-5.899 1.653M404.896 402.921l-.131-1.913M404.896 402.921l3.339-.855M404.896 402.921l1.006 3.87M414.803 379.101l5.2-5.16M414.803 379.101l-5.065-3.171M408.82 384.694l1.839-1.579 4.144-4.014M428.823 365.073l-4.51-3.905M428.823 365.073l1.136-1.107M423.634 370.273l2.232-2.264 2.957-2.936M438.086 355.538l-3.475-3.514M438.086 355.538l3.178 3.1M438.086 355.538l4.295-4.265M438.086 355.538l-4.043 4.058M450.844 341.96l3.49 5.739M448.848 335.922l1.167 3.666.83 2.372M445.418 347.803l2.957-3.253 2.47-2.59M450.729 265.41l-1.147 11.815M438.127 267.427l.236-2.174.146-.287.175-.133.318-.055 11.727.633M437.638 275.075l-.507 6.777M437.638 275.075l.489-7.648M437.638 275.075l-5.174-.223M436.688 286.919l-4.692-.371-.236-.232-.116-.302-.04-.35.86-10.812M438.127 267.427l-4.426-.568-.337.015-.226.143-.116.267-.558 7.568M437.13 281.852l-.442 5.067M437.13 281.852l3.783.415M440.913 282.267l-.474 5.032M440.913 282.267l6.577.406M449.21 282.772l3.36.336M449.21 282.772l-1.72-.1M449.21 282.772l.372-5.547M447.49 282.673l-.633 5.17M436.688 286.919l3.751.38M436.653 294.145l-.292-.929-.06-.746-.035-.722.03-.603.392-4.226M440.44 287.299l.548.05M446.857 287.843l-.026.514M446.857 287.843l-5.87-.494M452.836 289.643l-.73-.05M452.836 289.643l.824-11.963M452.836 289.643l5.426.306M452.091 301.743l.614-10.104.131-1.996M457.448 302.158l.864-7.77.06-1.256-.085-1.661-.025-1.522M458.986 278.135l-.412 5.516-.312 6.298M436.467 294.477l.186-.332M436.467 294.477l4.556 2.634M408.758 293.172l.81.432 1.895.886 1.94.204 2.355-.188.945-.237 1.62-.593.945-.218 5.814-.059 4.847.044.486-.023.195-.063.133-.08.338-.224.483-.396.412-.183.433-.096.455-.01.269.121 3.334 1.988M441.023 297.111l2.334 1.696M441.023 297.111l-4.898 7.559M446.831 288.357l-.477.292-.252.311-.332.534-4.747 7.617M439.037 348.02l-4.426 4.004M439.037 348.02l5.39-5.187M439.037 348.02l-3.502-3.556M439.037 348.02l3.344 3.253M454.335 347.699l1.448 2.392M448.34 352.386l1.174-.764 4.82-3.923M444.755 348.712l3.585 3.674M444.755 348.712l.663-.91M444.755 348.712l-2.374 2.56M455.783 350.091l-5.683 4.448M457.316 352.528l-.714-1.137-.82-1.3M425.78 351.179l1.15-1.85M425.78 351.179l1.685 1.656M425.78 351.179l-.67 1.042M442.381 351.273l3.448 3.348M448.34 352.386l1.76 2.153M448.34 352.386l-2.51 2.235M457.316 352.528l-5.192 4.376M457.316 352.528l4.235 6.327M450.1 354.539l2.024 2.365M445.83 354.621l-4.566 4.017M450.166 358.944l-2.495-2.268-1.842-2.055M430.256 355.855l-5.944 5.313M430.256 355.855l4.355-3.831M430.256 355.855l3.787 3.741M430.256 355.855l-2.79-3.02M415.09 356.414l-3.969 6.099M415.09 356.414l4.596 2.827M419.902 348.85l-2.283 3.659-2.53 3.905M410.623 353.759l.739.462 3.727 2.193M457.166 363.255l-1.133-1.565-3.909-4.786M450.166 358.944l.402-.45 1.556-1.59M450.166 358.944l-4.214 4.3M455.858 364.658l-3.023-2.97-2.67-2.744M441.264 358.638l-4.334 4.083M441.264 358.638l4.688 4.606M419.686 359.24l-3.938 6.13M419.686 359.24l.467.337M406.807 359.73l-2.666 4.305M406.807 359.73l3.816-5.971M406.807 359.73l4.314 2.783M406.133 350.956l-3.417 5.378-.186.48.145.19.29.2 3.842 2.526M434.043 359.596l-4.084 4.37M434.043 359.596l2.887 3.125M424.312 361.168l-6.19 5.725M411.121 362.513l-2.665 4.191M411.121 362.513l4.627 2.857M436.93 362.72l-3.953 3.807M436.93 362.72l4.691 4.923M404.141 364.035l4.315 2.67M401.274 368.9l.665-1.444.805-1.157 1.397-2.264M415.748 365.37l.557.365M415.748 365.37l-1.66 2.55-1.116 1.686M416.305 365.735l1.816 1.158M416.305 365.735l2.119-3.3 1.729-2.858M416.305 365.735l-2.8 4.203M432.977 366.527l5.01 4.6M432.977 366.527l-3.018-2.56M408.456 366.704l4.516 2.902M408.456 366.704l-3.943 6.06M418.121 366.893l5.513 3.38M412.972 369.606l.533.332M412.972 369.606l-2.484 3.781-1.428 2.16M413.505 369.938l6.497 4.003M409.738 375.93l1.38-2.129 2.387-3.863M420.002 373.94l1.016-1.057 2.616-2.61M408.82 384.694l-.962.779M408.82 384.694l2.382-.116M411.222 385.31l.271 4.957M411.222 385.31l-.02-.732M411.222 385.31l-3.364.163M395.954 385.458l-.528.722M404.513 372.765l-7.06 10.735-1.499 1.958M403.709 385.735l4.149-.262M403.709 385.735l-.895.05M403.709 385.735l-.543.623M395.426 386.18l7.388-.396M395.426 386.18l.287 5.146M380.567 386.902l7.13-.57M380.567 386.902l.264 5.531M365.687 388.065l-7.442.513M365.687 388.065l.329 5.408M356.453 388.724l1.792-.146M343.518 389.86l-5.578.43M343.518 389.86l.277 5.126M343.518 389.86l-.1-3.042M418.443 389.729l-6.95.538M423.643 392.203l-.25-2.593-.147-.232-4.803.35M417.035 394.998l.714-1.562.363-.83.23-.9.101-1.977M411.493 390.267l.342 4.968M411.493 390.267l-2.363.164M404.08 390.668l.363 5.101M404.08 390.668l5.05-.237M404.08 390.668l-8.367.658M404.08 390.668l-.632-1.404M395.713 391.326l.241 5.046M395.713 391.326l-7.573.647M388.14 391.973l.422 4.982M388.14 391.973l-.443-5.64M388.14 391.973l-7.31.46M380.83 392.433l.329 5.066M380.83 392.433l-7.259.488M373.571 392.92l-7.555.553M373.571 392.92l.377 5.064M366.016 393.473l.429 5.034M366.016 393.473l-7.377.595M358.64 394.068l-.395-5.49M358.64 394.068l.418 4.978M358.64 394.068l-7.219.499M351.421 394.567l-7.626.42M351.421 394.567l.42 4.959M343.795 394.986l.303 5.197M343.795 394.986l-9.967.863M417.035 394.998l-5.2.237M412.268 400.91l1.327-.505.74-.498.362-.45.272-.426 1.433-2.778.633-1.255M411.835 395.235l-7.392.534M411.835 395.235l.433 5.675M404.443 395.769l-8.489.603M404.443 395.769l.322 5.24M395.954 396.372l.252 5.18M388.562 396.955l2.987-.237 4.405-.346M388.562 396.955l-7.403.544M388.562 396.955l.342 5.106M381.159 397.5l-7.21.484M381.159 397.5l.353 5.12M373.948 397.984l.352 5.19M366.445 398.507l4.466-.306 3.037-.217M366.445 398.507l-7.387.54M366.445 398.507l.332 7.335M359.058 399.046l-7.216.48M359.058 399.046l.619 7.192M351.842 399.526l.653 7.157M344.098 400.183l.436-.099 7.308-.558M344.098 400.183l-7.15.803M336.948 400.986l.435 6.805M329.79 408.418l-.388-4.873.117-.332.17-.223.207-.143 2.403-1.839 4.649-.022" clip-path="url(#pa93832b4b6)" style="fill:none;stroke:#000"/><path d="m408.235 402.066 1.6-.435 2.433-.721M404.765 401.008l-8.559.544M396.206 401.552l.236 3.663M396.206 401.552l-7.302.51M405.902 406.792l2.846-.782.243-.138.119-.16.02-.25-.895-3.396M388.904 402.061l-7.392.559M389.12 407.177l.016-.885-.076-1.774-.156-2.457M381.512 402.62l-7.212.553M389.12 407.177l4.96-1.324 2.362-.638M359.677 406.238l3.58-.227 3.52-.169M359.677 406.238l.543 6.13M352.495 406.683l3.772-.257 3.41-.188M352.495 406.683l.684 8.65M405.902 406.792l1.096 3.786M399.666 408.522l2.202-.574.564-.187.402-.223.302-.257.331-.237.392-.188.323-.045 1.72-.02M368.891 416.964l3.986 1.323.593.15.262.01.407-.212.402-.312.212-.434.14-.693.03-.721.056-.836-.237-8.536M389.858 429.074l-1.698-1.937-.593-.93-.171-.553-.031-.742.12-1.166.082-.89.809-5.634.582-3.643.283-2.368.045-.594-.022-.689-.023-.408-.02-.356-.043-.393-.035-.353-.018-.272v-.324l-.002-.313-.002-.332M337.383 407.79l-7.593.628M337.383 407.79l.408 5.351M329.79 408.418l.327 5.264M399.666 408.522l.98 3.826M410.317 409.669l-3.319.909M406.998 410.578l-6.351 1.77M370.961 411.013l-1.824 1.777M370.961 411.013l-2.07 5.951M400.647 412.348l-1.253.296M360.22 412.367l.241 5.934M369.137 412.79l-1.282-.566-1.139-.302-1.166-.059h-.955l-1.177.09-3.198.414M344.911 412.654l-7.12.487M363.094 419.384l2.083-2.352 3.96-4.242M337.79 413.141l-7.673.541M337.79 413.141l.342 5.153M330.117 413.682l.573 5.269M353.179 415.333l4.774 2.06M353.179 415.333l-1.23 1.908M364.16 425.731l2.345-3.462.735-1.271.442-.9.714-1.621.495-1.513M351.949 417.241l-2.074 3.193M351.949 417.241l4.098 2.86M357.953 417.393l2.508.908M357.953 417.393l-1.906 2.708M338.132 418.294l-7.442.657M360.461 418.3l2.633 1.084M330.69 418.95l-3.57.306M363.094 419.384l-3.012 3.584M356.047 420.101l-2.185 3.096M356.047 420.101l4.035 2.867M349.875 420.434l-1.968 2.905M349.875 420.434l3.987 2.763M360.082 422.968l4.078 2.763M357.903 425.865l.916-1.173 1.263-1.724M353.862 423.197l-1.983 3.011M353.862 423.197l4.04 2.668M364.16 425.731l-2.26 2.995M357.903 425.865l-2.31 3.1M357.903 425.865l3.997 2.86M351.88 426.208l-3.973-2.87M351.88 426.208l3.714 2.757M345.503 426.808l2.404-3.47M345.503 426.808l7.83 5.168M345.503 426.808l-5.575.236M361.9 428.726l-2.305 2.853M355.594 428.965l-2.261 3.011M355.594 428.965l4 2.614M356.221 434.126l.34.17.105.035.124-.015.26-.079.273-.161.246-.29.77-.847 1.256-1.36M356.221 434.126l-.2-.203-.227-.232-2.461-1.715M358.932 479.065l-.785-3.816-1.589-8.956-1.93-10.933-1.001-5.2-.599-3.43-.265-2.088-.062-1.525-.015-.786.09-.539.116-.45.201-.524.156-.36.519-1.083 1.272-3.243.453-1.038.728-.968M512.364 308.525l1.738-.998 1.089-.644M460.816 261.872l2.415.375 1.875.366 1.856.173.684-.099.442-.232 1.531-1.293.531-.333.906-.507 2.564-1.308 4.415-2.402" clip-path="url(#pa93832b4b6)" style="fill:none;stroke:#000"/><path d="m458.986 278.135.271-3.352.393-4.033.607-4.552.56-4.326M467.676 98.938l-1.408 1.147-1.067 1.364-2.312 4.311-.473.662-1.087 1.127-2.856 2.898-.473.662-1.186 2.59-.503 1.394-1.519 4.687-.171.623.09 1.246.353 1.888.573 1.364 2.243 5.686.603 1.799.543 1.621.413.9.382.544.473.454.643.336 1.026.07.604-.06.744.297.643.593.282.559-.01.751-.22 1.192-2.485 10.4-.252 1.177-.16 1.305.02.94.18 1.423.93 6.926 1.826 13.273M472.217 179.22l-.442-.855-.362-.81-.287-.738-.468-1.181-.251-.534-.323-.38-.316-.277-.377-.203-.599-.084-4.727.929M465.876 219.636l2.232-7.696-.065-.361-.095-.272-.78-1.685-.136-.416-.035-.267.02-.376.146-.366.282-.449.347-.445.216-.336.05-.366-.07-2.61-.272-2.486-.392-3.273-.09-1.058-.01-.93-.121-2.689-.201-2.011-.684-3.624-1.449-8.572-.704-4.261M472.217 179.22l2.826 18.216" clip-path="url(#pa93832b4b6)" style="fill:none;stroke:#000"/><path d="m467.676 98.938-.803 1.957-1.228 3.51-.64 2.398-.724 3.446-.366 2.61-.252 2.857-.07 2.754.035 1.849.105 2.022.63 5.393 1.09 7.286 4.652 30.462 2.112 13.738M467.676 98.938l.443-1.166M465.876 219.636l4.546 3.668M462.798 223.769l1.89-2.61 1.188-1.523M470.422 223.304l6.271 4.568.24.366.086.375-.054.45-2.344 2.734M462.798 223.769l4.561 3.267M460.062 233.052l.412-3.138.212-1.009.176-.85 1.242-2.951.694-1.335M470.422 223.304l-3.063 3.732M460.062 233.052l2.113-.267.563-.237.452-.356 4.17-5.156M458.383 244.67l.274-1.074.966-6.841.439-3.703" clip-path="url(#pa93832b4b6)" style="fill:none;stroke:#000"/><path d="m465.981 246.266-2.192-.692-2.298-.48-3.108-.425M445.82 300.547l-.31 4.409M445.82 300.547l.186-1.488M445.82 300.547l-.855-.583M443.357 298.807l1.608 1.157M443.357 298.807l2.162.193M451.463 299.33l-5.457-.27M451.463 299.33l-.187 2.36M451.463 299.33l.643-9.737M445.519 299l.487.06M445.519 299l-.554.964M436.633 313.062l3.776-5.822M436.633 313.062l4.56 2.997M436.633 313.062l-4.2-2.658M445.78 318.832l-4.587-2.773M445.78 318.832l-1.13 1.773-3.99 6.041M441.193 316.06l3.934-5.973M441.193 316.06l-5.088 7.75M451.276 301.69l.815.053M445.317 309.794l1.962-3.019 2.394-3.643.472-.586.463-.5.305-.214.363-.142M445.127 310.087l.19-.293M445.127 310.087l-4.718-2.847M436.125 304.67l4.284 2.57M436.125 304.67l-3.691 5.734M442.817 303.486l-2.408 3.754M442.817 303.486l2.148-3.522M442.817 303.486l2.692 1.47M445.317 309.794l-.075-.607-.03-.47v-.528l.297-3.233M421.773 326.854l-4.501-3.08M421.773 326.854l5.803-8.379M421.773 326.854l-2.922 4.365M426.173 329.498l-2.197-1.24-2.203-1.404M423.221 334.04l2.952-4.542M423.221 334.04l-3.732 6.13M423.221 334.04l4.546 2.888M423.221 334.04l-4.37-2.821M431.558 321.026l4.547 2.783M431.558 321.026l-3.982-2.55M426.173 329.498l2.017-3.07 3.368-5.402M440.66 326.646l.682.398M440.66 326.646l-4.555-2.837M440.66 326.646l-1.729 2.778-2.445 3.944M436.105 323.81l-5.23 8.62M394.838 333.023l7.222 4.468M402.06 337.491l3.902-5.843M406.867 340.595l-2.953-1.846-1.854-1.258M409.744 325.183l-6.322-2.877M409.744 325.183l9.107 6.036M405.962 331.648l1.88-2.985 1.902-3.48M413.173 320.725l-1.82 2.066-1.61 2.392M395.451 325.048l3.631 2.162M402.522 348.633l4.345-8.038M402.522 348.633l-2.263 3.984M402.522 348.633l3.61 2.323M402.522 348.633l-4.234-2.462M411.433 332.617l-1.206 1.884M432.207 339.721l-.578.887M432.207 339.721l-4.44-2.793M432.207 339.721l.61.365M435.19 335.242l-2.027 2.986-.956 1.493M435.19 335.242l-4.315-2.812M435.19 335.242l.616.404M435.19 335.242l1.296-1.874M417.272 323.774l-4.099-3.05M417.272 323.774l5.808-8.18M427.656 307.675l-4.576 7.918M427.656 307.675l4.778 2.729M418.826 312.905l4.41-6.451.458-.331.528-.12h.477l2.957 1.672M413.173 320.725l5.653-7.82M418.826 312.905l-3.254-1.953-.503-.128-.502.04-.574.197-3.883 6.06-.175.47.08.484.146.445 3.012 2.205M402.433 371.752l2.08 1.013M442.071 327.324l5.741-.218M442.071 327.324l-.73-.28M442.071 327.324l.927 6.27M448.848 335.922l-.212-1.624-.824-7.192M445.418 347.803l-.992-4.97M443.429 336.504l.813 4.952.184 1.377M443.429 336.504l-.43-2.91M443.429 336.504l5.419-.582M443.429 336.504l-7.894 7.96M427.465 352.835l4.013-4.103M432.188 341.07l3.347 3.394M432.188 341.07l-.56-.462M432.188 341.07l.377-.553.251-.43M428.944 346.236l1.8-2.932 1.444-2.234M457.643 383.851l4.3-4.483M457.643 383.851l-5.466-5.481M455.25 386.783l.01-.309.1-.215 2.283-2.408M457.166 363.255l-1.308 1.403M457.166 363.255l1.086-1.029M465.855 364.48l-.965.88M461.55 358.855l1.41 2.076 1.9 2.452.995 1.097M466.404 374.91l2.63-2.61.271-.514.09-.505.051-.8-.08-.692-.12-.623-.248-.524-3.143-4.162" clip-path="url(#pa93832b4b6)" style="fill:none;stroke:#000"/><path d="m494.651 349.603 1.275 2.972.495 1.862-.26 2.359-2.287 5.33-.543.825-.92.637-.92.094-3.961-1.745-1.25-.236-.708.26-1.415.754-1.415.33-4.15.213-6.227-.095-3.301.071-2.241.684-.968.562M469.262 377.815l-2.858-2.905M467.193 384.529l1.66-1.601M467.193 384.529l-5.25-5.16M462.788 386.773l1.458-.514 1.278-.593 1.67-1.137M437.988 371.126l3.633-3.483M443.809 376.907l-2.944-3.169-2.877-2.612M461.55 358.855l-3.298 3.371M464.89 365.36l-1.518-.682-2.002-.999-3.118-1.453M453.44 387.06l1.81-.277M448.53 382.016l4.602 4.574.184.243.123.227M455.415 388.191l-.12-.944-.04-.252-.005-.212M459.72 399.743l1.75-.652M459.72 399.743l-7.322 2.521M459.72 399.743l-1.116-2.946M466.224 397.472l-4.754 1.619M466.224 397.472l1.627 4.819M466.224 397.472l-1.696-4.777M471.905 404.523l-.528-2.316M471.905 404.523l.966 4.127M467.851 402.29l.54 1.848.25.266.493.144 1.931-.005.84-.02M469.12 401.847l-1.269.444M454.068 407.108l-4.224 1.503-1.147.297M452.398 402.264l-1.383-4.834M454.068 407.108l-.895-2.58-.775-2.264M451.015 397.43l6.945-2.451M464.528 392.695l-6.568 2.284M464.528 392.695l-1.74-5.922M458.604 396.797l-.644-1.818M461.47 399.09l-1.71-1.438-1.156-.855M461.47 399.09l2.897 4.222M464.367 403.312l-10.3 3.796M464.367 403.312l3.484-1.021M455.415 388.191l3.762-.618 3.611-.8M449.582 277.225l3.36.39M453.66 277.68l2.067.212 3.259.243M452.57 283.108l-.464 6.485M452.57 283.108l.371-5.492M446.782 289.363l.05-1.006M446.782 289.363l5.324.23M446.006 299.06l.076-.747.09-1.266.61-7.684M457.448 302.158l-5.357-.415M457.448 302.158l-1.268 11.804M463.13 302.87l-3.852-.396-1.83-.316M462.214 314.516l.916-11.646M462.214 314.516l-6.034-.554M501.701 315.149l-1.283.783-1.553.73-1.59.632-1.69.356-1.769.05-5.36-.544-26.242-2.64" clip-path="url(#pa93832b4b6)" style="fill:none;stroke:#000"/><path d="m552.18 310.087-2.02.242-19.221 2.675-17.169 2.768-5.571.603-1.006.079-.805-.04-.94-.188-3.747-1.077M552.18 310.087l7.247-2.031 1.353-.44 1.6-.623 1.085-.53 1.202-.617 1.303-.94 1.504-1.394.882-1.112.973-1.487 1.675-2.966.87-1.483.996-1.67.915-.91.729-.381.327-.134.246-.197.106-.337.452-.563.896-.672.91-.406 1.076-.375.98-.351 3.078-1.735.92-.223.81-.079 1.227-.07 1.036.036 1.353.262 1.202.326.734.46 3.435 2.333M635.519 358.054l-2.525-1.226-2.524-1.334-.845-.583-.965-.9-.413-.495-.483-.504-.855-.671-.708-.43-5.924-3.046-8.473-4.727-21.464-12.587-38.16-21.464M358.932 479.065l16.052-5.127M230.506 482.624l-.304 9.106M183.294 499.44l11.195-3.965 13.699-4.843 14.723-5.28 7.595-2.728M169.968 504.214l10.64-3.816 2.686-.959M183.01 502.32l.186-1.517.098-1.364M161.258 507.2l8.71-2.986M161.258 507.2l4.825 8.195M100.73 528.868l9.656-3.5 11.104-3.954 10.239-3.677 12.933-4.547 8.45-2.985 8.146-3.006M318.017 359.527l11.487 10.776 12.712 11.255.815 1.033.176 1.31.21 2.917M355.448 385.455l-8.414.943-1.424.108-1.563.075-.63.237M337.94 390.29l-.326-4.38M330.056 390.726l5.25-.317 2.634-.12M403.277 387.485l3.374-.341.36-.086.18-.189.129-.23.538-1.166M403.277 387.485l-.111-1.127M403.277 387.485l.17 1.779M409.13 390.43l-1.202-.943-.327-.159-.427-.148-3.726.084M422.723 384.44l-3.38.197M425.11 352.22l-.665-.428M423.407 354.809l.523-.753 1.18-1.835M432.816 340.086l2.99-4.44M431.629 340.608l-3.309 5.193M435.806 335.646l1.435-2.21M437.24 333.436l5.758.159M437.24 333.436l-.754-.068M437.24 333.436l.987-1.59 3.115-4.802M494.54 163.43l-.171 2.987.015.637.222.524 1.518 4.212.136.944v.78l-.166.689-.438.504-.598.183-.634-.258-.618-.519-.603-.648-.62-.38-.793-.267-.83-.124-.835.015-.976.168-1.066.267-1.046.465-.749.415-.388.322-.16.415-.141.396-.136.425-.608.612-2.163 1.87-.523.641-.282.54-.482 1.892-.433 1.257-1.016 2.323-.382.761-.14.742-.06.81.175 2.496-.11.421-.262.474-.548.677-.186.475-.277 1.775-.387 2.511-.212.559-.351.39-.458.282-1.715.346M513.901 149.875l-1.84 2.106-2.223 1.87-.845.562-14.453 9.017" clip-path="url(#pa93832b4b6)" style="fill:none;stroke:#000"/><path d="m491.571 120.044.42 2.79-.525 10.603.981 3.753 1.926 6.817.167 19.423M399.082 327.21l6.88 4.438M403.422 322.306l-1.09 1.315-1.289 1.142-.522.47-.453.454-.986 1.523M403.422 322.306l1.187-1.972M253.779 297.867l3.339-.563 3.897-.652 1.403-.149.906-.05 1.488-.034 1.287.045.875.01 1.419.039 1.035.06.815.079 3.631.454 8.157 1.196 6.904.846 12.306 2.051 2.052.198 1.101.03.896.103.558.154 1.026.445 1.88 1.008 1.87.613 2.274.593 1.89.267 5.097.603 6.148.554 2.565.123 1.775.02.68.015 1.407.109 5.09.553 12.622.91 4.033.158 5.195.44 1.619.173 1.187.223 1.625.32.91.164 7.371 1.71 4.647 1.078 2.43.43 1.599.291 1.82.263 1.307.118 2.309.321.656.087.676.136.621.153.677.282.89.509.85.583 1.025.836 1.575 1.26.658.45 3.061 1.758 5.327 2.513 1.182.553M330.056 390.726l-.424-5.013M286.904 435.53l2.645-3.624 4.641-6.257 3.355-4.528 6.135-8.245 4.888-6.687 3.882-5.309 3.058-4.152 1.725-1.992.734-.707.805-.613 1.096-.697.885-.464.8-.342.865-.296.885-.222.86-.178 1.046-.134.92-.093.485-.038.684-.054 1.92-.118.838-.054M442.727 383.145l1.182 1.423M443.909 384.568l-2.242 1.64-.161.058-.169-.022-.113-.094-.711-.832-.044-.123.01-.105.062-.105 2.186-1.84M443.809 376.907l-3.279 3.148-.15.218-.046.291.176.317 2.217 2.264M448.53 382.016l-3.333 3.224-.191.1-.254-.003-.166-.11-.677-.66M480.218 427.78l-.262 2.52-.523 2.986-.573 2.184-.235.52-.318.627-.785.969-.472.464-.544.396-.552.197-.714.04-.725-.158-1.498-.405-4.134-1.068-3.701-.712M530.587 541.719l-2.927-2.057-3.128-2.322-2.363-1.68-2.354-1.8-1.469-1.275-.543-.505-.673-.75-.634-.801-.674-1.137-3.58-6.258-2.846-5.011-3.048-5.101-3.309-5.1-1.961-2.848-2.072-2.689-3.53-4.705-3.5-4.627-1.278-1.72-1.69-2.254-2.545-3.41-1.035-1.581-.654-1.256-.764-1.898-1.81-4.063-1.65-4.043-2.816-6.752-2.615-6.189-2.394-5.664-2.524-6.198-2.102-4.943-2.917-6.742M454.068 407.108l3.154 9.153 2.65 7.129 5.31 12.95M530.587 541.719l.694-.613.584-.818.683-1.278.503-1.522.408-2.078 1.443-7.432 1.046-5.832.842-4.884.928-4.092.287-1.683.075-.808-.12-.731-.222-.594-.383-1.221-.2-1.804-.156-1.954M580.747 619.876l-1.823-2.547-3.35-4.428-3.962-5.397-3.128-4.24-2.242-3.036-2.857-3.963-2.836-3.717-2.414-3.154-1.469-1.967-.995-1.364-1.126-1.73-1.167-2.174-.212-.297-.226-.227-.488-.257-.498-.223-.543-.297-.357-.31-.18-.257-.127-.342-.085-.622v-.277l.07-.49.151-.652.151-.385.09-.465-.06-.484-1.257-2.936-2.072-4.626-2.283-4.863-1.87-4.33-2.314-5.507-2.223-4.972-.573-1.117-.674-.998-.593-.633-1.136-.87-2.103-1.62-3.379-2.383M455.858 364.658l-4.204 4.33M455.858 364.658l4.996 4.902M428.944 346.236l-.624-.435M431.478 348.732l-1.408-1.334-.573-.599-.553-.563M426.93 349.329l.646-1.042 1.368-2.051M428.32 345.8l-4.385-2.881M428.32 345.8l-1.277 1.894-.783 1.248M463.13 302.87l.659-8.062.08-.267.201-.178.252-.06 1.212.055.342.297.14.198.03.316-.347 7.28-.045.307-.07.51-.569-.193-1.885-.203" clip-path="url(#pa93832b4b6)" style="fill:none;stroke:#000"/><path d="m463.13 302.87 1.885.203.569.193.07-.51.045-.306.348-7.28-.03-.317-.141-.198-.342-.297-1.212-.054-.252.059-.201.178-.08.267-.659 8.062M409.06 375.547l-4.547-2.782M409.06 375.547l.678.383M410.623 353.759l-4.49-2.803M415.567 346.078l-1.37 2.165-3.574 5.516M411.066 343.255l-2.091 3.353-2.842 4.348M415.567 346.078l3.922-5.908M415.567 346.078l-4.501-2.823M419.902 348.85l-2.933-1.833-1.402-.94M411.066 343.255l-4.2-2.66M411.066 343.255l3.804-5.968M406.867 340.595l3.36-6.094M419.49 340.17l4.445 2.749M414.87 337.287l2.377 1.51 2.242 1.373M414.87 337.287l-4.643-2.786M418.851 331.219l-2.464 3.747-1.517 2.32M405.962 331.648l4.265 2.853M418.826 312.905l4.254 2.688M423.08 315.593l4.496 2.882M432.434 310.404l-4.858 8.071M426.173 329.498l4.702 2.932M419.902 348.85l4.033-5.931M419.902 348.85l4.543 2.942M423.935 342.919l3.832-5.99M427.767 336.928l3.108-4.498M457.96 394.979l-2.545-6.788M460.854 369.56l5.55 5.35M460.854 369.56l4.036-4.2M460.854 369.56l-4.352 4.312M466.404 374.91l-4.461 4.458M443.809 376.907l3.47-3.42M448.53 382.016l-1.527-1.688-3.194-3.421M448.53 382.016l3.647-3.646M452.177 378.37l-4.898-4.884M452.177 378.37l4.325-4.498M456.502 373.872l-4.848-4.884M456.502 373.872l5.44 5.496M447.279 373.486l4.375-4.498M447.279 373.486l-5.658-5.843M451.654 368.988l-5.702-5.744M441.621 367.643l4.33-4.399M434.611 352.024l-3.133-3.292M435.535 344.464l-4.057 4.268M280.81 412.506l1.362 4.794.327.796.371.648.121.277.03.242-.05.271-.21.361-.247.311-.287.396-.362.702-.689 1.636-.211.51-.076.405.015.271.046.237.115.273.317.44.187.523.04.396-.02.419-.126.377-.176.489-.015.38.035.341.09.307.187.485.663 2.303.277 1.23.256.954.136.327.236.287.579.232.543.104.422.128.518.247 1.69.924M452.941 277.616l.72.064M580.747 619.876l2.593-1.212 2.595-1.107 1.75-.672.925-.238 1.026-.098 1.106-.02 1.227.158 4.466 1.186 8.87 2.53 12.21 3.44 11.808 3.44 4.627 1.661.976.287.563.167.472.03.574-.068.352-.159.261-.286.121-.376M519.926 258.888l-1.504 4.853-2.528 4.373-.068 2.733 1.161 2.46 2.12 3.144 6.764 8.2.273 2.734.82 4.373-.615 5.467.572 2.517M402.814 385.784l.352.574M436.653 294.145l2.308-3.632 2.027-3.164M303.554 150.459l.02 2.002-.13 1.431.12 1.98-.24 1.21-.428.637-1.009.944-.558.353-.54.178-1.062.213-3.067 1.591-1.851.653-1.026.104-.91-.06-.955-.232-.986-.549-.794-.613-.675-.736-1.81-1.33-1.9-2.037-1.635-1.438-.363-.465-.658-1.735-.558-.924-1.483-1.78-.428-.292-.694-.261-1.941-.391-1.871-.82-.543-.342-.603-.514-1.856-1.39-6.045-3.702-2.162-.465-4.3-1.507-.663-.45-2.772-2.467-.794-.38-1.021-.238-.785.005-.618.158-.493.287-.584.494-.522.722-.383.8-.175.703.015 1.275.085 1.117-.256 7.159-.428 14.395.04 3.594-.528 11.746-.246 3.296.11 3.065-.13 7.524-.493 10.87-.12 8.785-.307 5.472.05 3.302-.377 6.891.351.835.549.569.694.188.311-.04 1.846-.978 1.087.162 1.855.628.629-.014 1.347-.154 5.1-.84.714.356.145.267.121.524-.14 1.423-.182 1.355-.211 17.074.12 5.729-.25.41-.358.292-1.237.484-3.943.723-1.935-.015-1.806-.035-.482.281-.242.757.09.924.152 1.098.186 3.084-.091 18.32.05 6.277-.02 8.947.11.94M423.407 354.809l-.634-.391M422.773 354.418l1.672-2.626M426.93 349.329l-.67-.387M426.26 348.942l-1.815 2.85M344.387 420.569l3.52 2.77" clip-path="url(#pa93832b4b6)" style="fill:none;stroke:#000"/></g><g id="PatchCollection_1"><path d="m447.625 352.023-2.965-2.883-1.499 2.129 2.7 2.587zM448.392 356.705l1.666-1.342 1.166 1.474-1.433 1.178zM396.318 391.709l.042 4.409 7.857-.602-.39-4.081z" clip-path="url(#pa93832b4b6)" style="fill:green;fill-opacity:.8"/></g><g id="PatchCollection_2"><path d="m418.59 395.415-.087 10.703 1.797.064 1.04-10.64zM442.768 273.23l-.93 7.465 4.507.543.931-7.464z" clip-path="url(#pa93832b4b6)" style="fill:#90ee90;fill-opacity:.8"/></g><path id="PatchCollection_3" d="m353.853 391.868-.118-1.341 1.434-.122.118 1.342z" clip-path="url(#pa93832b4b6)" style="fill:#a9a9a9;fill-opacity:.8"/></g></g><defs><clipPath id="pa93832b4b6"><path d="M90 87.138h558v552.923H90z"/></clipPath></defs></svg>