<svg xmlns="http://www.w3.org/2000/svg" width="960" height="960" viewBox="0 0 720 720"><defs><style>*{stroke-linejoin:round;stroke-linecap:butt}</style></defs><g id="figure_1"><path id="patch_1" d="M0 720h720V0H0z" style="fill:#fff"/><g id="axes_1"><path id="patch_2" d="M114.111 640.8H623.89V86.4H114.11z" style="fill:#fff"/><g id="LineCollection_1"><path d="m124.97 244.117-.431-10.945.386-3.49.545-1.793 1.662-3.468.552-1.996-.004-2.216-.954-8.78.142-2.197 1.644-7.767.114-2.57-.419-7.324.246-2.554 2.449-5.438.26-1.255-.107-1.305-1.041-3.266.041-1.21.657-1.381 9.738-10.78 2.072-2.64 1.502-2.397 3.543-8.387.218-1.516-1.324-6.002-.01-3.016 6.56-39.543.607-1.965.996-1.854M124.97 244.117l-.52 1.52-.535.79M124.97 244.117l.566 3.33M123.915 246.426l1.621 1.021M203 366.168l-3.83-4.357-27.086-29.908-1.397-1.155-1.504-.604-5.887-1.37-2.346-.777-3.88-2.04-1.512-1.078-1.025-.955-.602-1.118-.248-1.385.085-1.357 7.093-38.387.09-.816-.281-.715-.597-.648-6.901-3.007-2.246-1.306-2.272-2.05-8.744-9.96-1.828-2.575-.656-1.496-.603-2.086-.738-1.005-1.166-.677-3.462-1.579-1.764-1.242-1.516-1.674-1.777-2.677-.864-.717M212.994 415.678l-.15-.7-.632-.898-1.287-.6-4.915-1.035-1.064-.232-.62-.4-.408-.442-.244-1.267.21-1.924.675-2.15 2.324-6.197 1.898-4.653 1.055-2.87M203 366.168l7.824 8.898.764 1.214.238 1.638-.49 3.368-1.5 11.024M202.22 407.963l.132-.957 1.158-3.14.813-1.464 2.443-4.394 1.414-2.929 1.656-2.769M258.19 427.582l.9-1.644 1.318-2.463 1.114-2.79.986-3.375.396-1.167.267-.732.375-.721.579-.797 1.328-1.846 1.596-2.748 1.756-3.353 1.168-2.983.343-1.04M420.949 302.672l-14.739 8.087-6.63 3.555-1.296.307-1.392.127-3.964-.02-17.737-1.572-9.234-.211-.707.02-.578.235-.321.424-2.721 5.157-1.735 3.374-.986 2.06-1.07 1.549-2.529 3.077-3.749 7.492-1.274 2.748-.61 1.582-.922 2.812-.707 1.676-.729.988-1.435 1.718-.814 1.316-.536 1.635-.877 3.289-.343 1.995-.15 1.316.042 2.409-.192 1.719-.246 1.114-.526.913-.589.679-1.274.403-3.717.467-5.41.424-2.27-.063-.771.085-.836.212-1.692.7-1.516.536-1.146.233-4.328.749-5.018.615-6.34.806-1.865.255-1.778.478-1.317.488-1.114.594-2.078 1.359-1.8 1.273-4.83 4.043-2.946 1.645-1.254.87-.877.796-.804.881-.792 1.252-2.304 3.703-2.731 4.218-3.492 4.43-2.27 2.293-2.957 2.504-1.81 1.432" clip-path="url(#p557a3c0550)" style="fill:none;stroke:#000"/><path d="m251.186 424.427.77-2.267.407-1.199.172-.764.236-1.624.118-.71.224-.85.321-.966.762-1.91 1.702-5.019.461-1.666.171-.223.31-.031.248.17 2.26 2.398.256.064.3-.022.268-.106 7.52-5.879 2.624-1.9M224.598 437.91l-5.386-4.884-4.391-4.52-.801-2.289-.173-1.61.636-.505" clip-path="url(#p557a3c0550)" style="fill:none;stroke:#000"/><path d="m232.73 435.552-2.7-1.348-10.39-5.062-1.692-.827-2.592-1.614-.729-1.313-.144-1.286M213.75 419.224l.212.994.52 3.884M270.6 453.807l1.982-3.724M270.6 453.807l3.565 1.59M270.6 453.807l-3.873-1.772M264.71 463.18l4.214-6.61 1.675-2.763M272.582 450.083l3.558-5.737M272.582 450.083l3.796 1.954M268.994 448.038l.712.414 2.876 1.631M261.698 468.293l-2.792 5.11M261.698 468.293l2.852 1.974M261.698 468.293l-2.677-1.965M264.71 463.18l-1.531 2.612-1.481 2.5M255.335 478.907l3.57-5.504M255.335 478.907l-2.61-1.45M255.335 478.907l2.459 1.457M257.794 480.364l3.475-5.508M261.35 482.447l-1.44-.801-2.116-1.282M274.883 454.387l-.718 1.01M274.883 454.387l4.503-.74M276.378 452.037l-.477.807-.44.75-.578.793M279.386 453.647l-1.335-.735-1.673-.875M274.165 455.397l3.298 1.32M272.843 457.596l.768-1.307.554-.892M280.898 458.19l1.78-2.737M277.463 456.717l1.32.486 1.054.481 1.06.507M277.246 464.032l2.282-3.496 1.37-2.345M293.816 461.728l-3.36-1.644M293.816 461.728l2.728 1.557M298.28 451.064l-1.995 4.759-2.47 5.905M290.456 460.084l-3.103-1.93M294.048 451.184l-.788 2.174-1.125 3.003-1.68 3.723M286.037 469.917l1.449-2.192.772-1.294.642-1.563 1.556-4.784M282.677 455.453l-1.648-.79M282.677 455.453l4.676 2.7M281.03 454.664l3.042-.66M279.386 453.647l.824.541.82.476M246.945 436.2l-2.112 5.252M246.945 436.2l1.81-4.55M246.945 436.2l-4.146-2.148M252.566 439.128l-1.372-.752-4.249-2.177M248.156 423.052l.25-5.065-.118-1.085-.67-2.807.15-2.717M240.206 439.213l2.593-5.161M240.206 439.213l4.627 2.239M240.206 439.213l-3.481-1.762M236.9 448.435l.961-2.585 2.345-6.637M232.515 459.807l-2.217 5.527M232.515 459.807l2.364-6.917M232.515 459.807l4.45 2.192M232.515 459.807l-7.498-3.195M230.298 465.334l-1.272 3.316M230.298 465.334l4.514 2.174M222.113 461.687l5.167 2.289 3.018 1.358M221.158 454.735l3.396-7.342M221.158 454.735l3.859 1.877M222.113 461.687l-2.89-1.49-.247-.44-.021-.5.14-.498 2.063-4.024M252.554 469.69l3.755 2.057M252.554 469.69l-3.333 5.736M248.098 467.45l2.019 1.04 2.437 1.2M255.397 463.932l-1.226 2.559-1.617 3.198M262.216 449.914l2.352-4.518M262.216 449.914l-4.36 9.147M262.216 449.914l4.511 2.121M262.216 449.914l-4.57-2.15M264.568 445.396l2.631-5.664M264.568 445.396l-4.487-2.315M264.568 445.396l4.426 2.642M267.2 439.732l2.513-6.214M267.2 439.732l-4.405-2.133M267.2 439.732l4.664 2.428M248.756 431.65l-3.874-1.694M248.756 431.65l6.189 2.629M248.756 431.65l1.187-3.55M259.144 435.976l-4.2-1.697M259.144 435.976l3.651 1.623M259.144 435.976l1.392-3.29M264.543 424.643l-2.486 4.732M262.795 437.6l-2.714 5.48M262.795 437.6l1.631-3.231M260.081 443.08l-2.434 4.684M252.566 439.128l4.71 2.455 2.805 1.498M265.981 431.255l.725-1.37 1.178-1.952M257.647 447.764l-4.354 8.861M257.647 447.764l-4.05-1.993M248.098 467.45l-4.945-2.478M248.098 467.45l-2.809 5.76M248.098 467.45l2.947-6.185M225.896 475.734l-1.524 3.7M225.896 475.734l1.556-3.346M232.528 479.283l-2.587-1.392-4.045-2.157M234.632 480.426l-2.104-1.143M234.632 480.426l1.865-3.238M234.632 480.426l-1.599 3.164M242.019 479.955l-1.437 2.741-.193.182-.291.097-.431-.036-5.035-2.513M240.075 470.54l3.078-5.568M240.075 470.54l-1.789 3.274M240.075 470.54l-2.375-1.457M240.075 470.54l5.214 2.67M243.153 464.972l-2.678-1.25M243.153 464.972l2.487-4.819M246.047 458.718l.498.247M246.047 458.718l-2.542-1.37M246.047 458.718l-.342.782-.065.653M246.047 458.718l2.387-4.752M253.597 445.77l-.74-.354M253.597 445.77l-1.39 2.767M252.857 445.416l-1.39 2.76M252.857 445.416l-2.704-1.36M262.351 488.64l2.293-4.398M249.221 475.426l-3.932-2.215M249.221 475.426l3.503 2.03M243.634 476.49l1.005-1.896.65-1.383M234.812 467.508l-1.718 3.464M234.812 467.508l2.153-5.51M234.812 467.508l2.888 1.575M229.026 468.65l-1.574 3.738M229.026 468.65l4.068 2.322M229.026 468.65l-2.012-1.08M238.286 473.814l-1.79 3.374M238.286 473.814l5.348 2.676M238.286 473.814l-2.321-1.335M243.634 476.49l1.258.72M242.019 479.955l.79-1.677.825-1.788M242.019 479.955l-5.522-2.767M236.497 477.188l-2.229-1.278M227.452 472.388l6.816 3.522M232.528 479.283l1.74-3.373M232.528 479.283l-1.632 3.096M234.268 475.91l1.697-3.43M235.965 472.48l-2.87-1.508M235.965 472.48l1.735-3.397M237.7 469.083l2.775-5.36M240.475 463.722l3.03-6.375M236.965 461.999l1.722.852 1.788.871M250.153 444.056l-1.399 2.87M250.153 444.056l-5.32-2.604M250.153 444.056l2.413-4.928M252.566 439.128l2.379-4.85M254.945 434.279l1.564-3.333M269.713 433.518l-3.732-2.263M269.713 433.518l5.316 3.17M265.981 431.255l-1.555 3.114M265.981 431.255l-3.924-1.88M262.057 429.375l-3.866-1.793M260.536 432.687l.836-1.825.685-1.487M251.186 424.427l2.9 1.142 4.105 2.013M256.509 430.946l1.071-2.08.61-1.284M248.156 423.052l-1.42 3.478M248.156 423.052l3.03 1.375M264.426 434.369l-3.89-1.682M260.536 432.687l-4.027-1.74M256.509 430.946l-6.566-2.845M251.186 424.427l-1.243 3.674M249.943 428.1l-3.206-1.57M244.833 441.452l-3.463 8.947M239.329 455.329l-.792 2.36-1.572 4.31M216.605 443.6l4.68 2.29M224.554 447.393l4.551 2.641M224.554 447.393l-3.269-1.503M234.88 452.89l2.02-4.455M234.88 452.89l4.449 2.439M229.105 450.034l3.265 1.622 2.51 1.234M239.329 455.329l4.176 2.018M241.37 450.399l-.637 1.86-1.404 3.07M243.505 457.347l2.41-4.774M251.045 461.265l2.248-4.64M251.045 461.265l4.352 2.667M251.045 461.265l-4.5-2.3M255.397 463.932l2.46-4.87M255.397 463.932l3.624 2.396M264.55 470.267l-3.281 4.59M264.55 470.267l2.84 1.94M267.822 465.198l-1.216 1.981-2.056 3.088M270.332 474.487l-2.941-2.28M270.332 474.487l-.456 1.102M273.716 468.904l-1.034 1.84-2.35 3.743M252.724 477.457l3.585-5.71M259.02 466.328l2.635-4.984M259.02 466.328l-2.711 5.419M266.727 452.035l2.267-3.997M266.727 452.035l-5.072 9.309M268.994 448.038l2.87-5.878M271.864 442.16l4.276 2.186M271.864 442.16l3.165-5.472M279.386 453.647l-1.923 3.07M282.838 448.376l-1.342 2.254-2.11 3.017M277.463 456.717l-1.36 2.147M270.879 467.072l-3.057-1.874M270.879 467.072l2.837 1.832M267.39 472.207l.645-.683.674-.86 1.242-2.037.928-1.555M276.104 458.864l-2.035 3.124-3.19 5.084M264.644 484.242l-3.294-1.795M264.644 484.242l2.885-4.858M272.843 457.596l3.26 1.268M267.822 465.198l1.477-2.41 2.223-3.196 1.32-1.996M282.256 475.313l-4.613-3.574M282.256 475.313l7.908 6.27M285.482 470.776l-1.466 2.234-1.76 2.303M273.716 468.904l2.771 1.912M277.246 464.032l-1.174 1.552-2.356 3.32M267.822 465.198l-3.112-2.018M264.71 463.18l-3.055-1.836M261.655 461.344l-3.798-2.283M257.857 459.061l-4.564-2.436M253.293 456.625l-4.235-2.286M249.058 454.339l3.15-5.802M249.058 454.339l-.624-.373M249.058 454.339l-2.513 4.626M248.434 453.966l-2.52-1.393M248.434 453.966l3.033-5.79M245.915 452.573l2.84-5.646M245.915 452.573l-4.545-2.174M241.37 450.399l-4.47-1.964" clip-path="url(#p557a3c0550)" style="fill:none;stroke:#000"/><path d="m232.366 445.95 1.855 1.059 1.096.639 1.584.787M224.548 441.966l-3.263 3.924M224.548 441.966l7.818 3.985M224.598 437.91l.206 1.854.075.786-.065.583-.266.833M251.467 448.176l-2.713-1.25M251.467 448.176l.74.36M229.105 450.034l3.26-4.083M229.105 450.034l-4.088 6.578M232.366 445.95l.324-.61M236.725 437.45l-3.995-1.898M236.725 437.45l2.077-5.334M232.69 445.34l1.604-3.019 1.67-3.246.76-1.624M304.303 445.887l-2.695 6.385M304.303 445.887l6.856-2.124M298.584 450.252l.63-1.054.708-.7.675-.478 1.628-1.093 1.189-.68.89-.36M298.584 450.252l-.304.812M294.69 450.916l2.013-1.017.193-.107.316-.048.29.027.623.271.459.21M277.781 441.685l-1.641 2.661M276.14 444.346l6.698 4.03M290.164 481.584l5.848 4.573 2.228 1.475 3.107 2.08 1.231 1.02 2.668 2.46 9.211 7.067M269.876 475.589l-2.347 3.795M295.53 509.751l-3.717-1.851-1.456-.807-.407-.233-.45-.414-.482-.584-.546-.987-2.047-3.417-2.195-3.3-1.457-2.63-.804-1.083-2.896-4.282-.938-1.156-.562-.807-.477-.71-.638-1.067-3.1-5.263-3.482-5.571M304.862 453.523l3.166 1.246M304.862 453.523l-3.254-1.25M311.16 443.763l-1.205 1.972-2.748 4.222-2.345 3.566M297.139 463.597l.93.213.921.074.803-.191.643-.552.493-.902 3.933-8.716M298.28 451.064l3.328 1.208M294.69 450.916l1.73.181.953.021.907-.054M294.69 450.916l-.642.268M202.22 407.963l-5.474-.099-.477-.009-1.543-.381-1.157.339-1.714 1.91-.9.043-2.699-2.802-3.385-4.839-4.24-3.99-2.606-.991-3.865-1.47-3.17-2.08-2.1-.85" clip-path="url(#p557a3c0550)" style="fill:none;stroke:#000"/><path d="m212.994 415.678-2.116-1.116-5.055-.552-2.913-1.23-1.029-2.378.339-2.439M212.994 415.678l.756 3.546M279.367 439.139l-4.338-2.45M282.838 448.376l3.035-4.324M225.017 456.612l-2.904 5.075M232.69 445.34l-.764-.62-.675-.669-.91-.87-5.743-5.27M213.214 502.875l-21.572-5.31M220.785 488.826l-1.58 2.735-5.991 11.314M219.698 488.399l1.087.427M220.785 488.826l6.096 1.975M220.785 488.826l1.912-4.804M230.896 482.38l-2.154 4.592M230.896 482.38l2.137 1.21M230.896 482.38l-6.524-2.946M238.524 486.7l-5.49-3.11M261.269 474.856l6.26 4.528M261.269 474.856l-2.363-1.453M256.309 471.747l2.596 1.656M261.35 482.447l-.958 1.687M285.482 470.776l.555-.859M290.164 481.584l3.16-3.544.107-.308-.043-.36-.182-.235-7.724-6.361M276.487 470.816l1.156.923M276.487 470.816l4.038-4.42M280.525 466.396l2.396 1.56M280.525 466.396l-3.28-2.364M286.037 469.917l-3.116-1.96M282.92 467.956l-1.668 3.584-.198.303-.295.169-.47.032-2.646-.305M295.53 509.751l1.11.66.546.332.584.226M238.802 432.116l-2.89-1.892M238.802 432.116l3.997 1.936M244.882 429.956l-3.362-1.655-2.718 3.815M242.799 434.052l2.083-4.096M235.911 430.224l-.503.404-.322.116-.278.255-2.078 4.553M246.737 426.53l-.45-.22-1.405 3.646M284.072 454.003l2.45-4.6M289.828 452.728l-1.785.341-1.894.377-2.077.557M287.353 458.154l2.475-5.426M289.828 452.728l4.22-1.544M459.37 504.005l-2.098-1.04-14.064-6.462-10.862-5.21-11.76-5.359-3.696-1.803-.879-.436-1.221-.722-1.028-.668-.653-.54-3.546-3.153-13.025-11.958-1.757-1.496-.39-.441-.552-.377-.61-.694-1.179-.749-1.49-.266-2.848-.47-6.073 1.022-7.66 1.115-1.894.244-1.78-.085-1.295-.34-1.135-.562-1.082-.828-13.41-12.129-3.44-2.748-1.52-.923-1.575-.806-1.574-.51-2.335-.403-11.28-1.316-13.003-1.146-2.72-.106-1.607.127-1.714.488-1.456.508M296.544 463.285l.595.312M296.544 463.285l5.064-11.013M302.641 466.703l5.387-11.934M308.028 454.769l2.97 1.443.235.286.011.255-.097.403-5.216 10.108-.166.207-.241.148-.29-.01-2.593-.906M297.139 463.597l-.074.208-.003.145.038.12.122.1.397.223 5.022 2.31M472.494 519.78l-.698-.95-1.259-1.688-4.846-7.63-.997-1.315-1.424-1.56-1.06-.998-1.264-.859-1.575-.775M485.603 481.52l-1.885 4.595-5.474 13.307-.272.387-.295.312-.31.223-.35.154-.465.1-3.615.76-.51.085-.546.047-.845-.016-.718-.11-3.786-.775-2.33-.282-.611.022-.477.133-1.568.715-1.216.393-1.891.398.932 2.037M513.366 548.922l17.192 12.628 3.257 2.504 1.317 1.21 1.082 1.072 1.168 1.379M604.59 589.144l-1.034-1.157-.69-.7-.649-.546-.68-.436-.895-.467-.749-.34-1.013-.265-.7-.047-.633.031-.878.218-.98.218-.68.074-.745-.026-.895-.16-1.311-.408-7.643-2.467-11.922-4.054-22.408-7.682-9.27-3.157-3.433-.058M593.444 602.274l3.75-4.286 2.078-2.038 2.207-2.758 1.499-1.783 1.611-2.265M472.494 519.78l1.133 1.055 1.297.88 1.534.63 2.568.798 2.517 1.013 1.382.817 1.05.742 14.192 11.471 5.1 4.16 10.1 7.576" clip-path="url(#p557a3c0550)" style="fill:none;stroke:#000"/><path d="m567.952 543.702-3.52-1.56-.626-.207-.54-.17-3.423-.822-4.611-1.109-.985-.27-4.869-1.741-4.729-1.623-1.344-.371-4.991-.913-2.614-.446-.953-.085-.996.032-1.007.223-.964.372-.504.275-.45.297-.67.632-1.183 1.204-1.408 1.258-3.867 2.952-3.883 3.26-2.292 1.858-1.522 1.22-.728.424-.573.265-.524.138-.81.127M418.126 598.788l18.177-23.652 2.91-4.222 10.007-13.718 1.456-1.692 10.461-13.864.983-1.383 10.374-20.477M235.911 430.224l-22.16-11M485.603 481.52l4.199 1.21 4.884 1.164.745.253.755.323 2.656 1.401 7.883 4.817M608.031 382.415l-4.346-1.588-13.454-5.019-8.794-3.215-.578-.191-.466-.058-.418.037-.348.08-.225.106-.23.276-1.194 4.037-1.313 4.701-1.805 6.091-2.003 6.834-1.103 4.043-.932 2.902-.798 2.611-2.945 10.32-2.126 7.244-.343.873-.29.385-.425.276-.37.082-.35-.016-.59-.27-11.825-6.218-5.549-2.94-1.66-.955-3.695-2.844-2.164-1.592-1.36-.572-1.114-.266h-.857l-1.103.382-.761.573-.696.806-.61.998-.354.71-.354.924-.663 2.653-.922 2.833-.867 2.112-1.81 2.642-1.007 1.375-.917 1.618-.535.7-.514.541-1.344 1.443-2.368 2.048-1.35 1.083-.985.669-1.585.891-3.503 1.538-2.463 1.167-1.029.722-.669.674-.35.603-2.858 6.013-.729 1.857-.631 2.314-.129.615-.005.711.064.69.236.658.423 1.199.182.652.088.746-.026.424-.147.608-1.5 3.395-.461.85-.685.848-1.339 1.55-3.696 4.244-.631.69-.74.69-2.94 2.074-.798.669-.568.62-.358.631-.338.791-4.413 10.707M296.259 566.919l.878.7 1.58 1.586 3.69 3.89 6.962 8.17 4.928 5.762 3.555 4.191.91 1.136.73 1.05.664 1.21.481 1.22.461 1.22 1.372 3.841.749 1.666.343.944.15.955.021 1.083-.17 1.082-.515.785-1.864 2.568-1.832 2.621-1.285 2.08-.696 1.327-.75 1.845-1.479 2.664-.695 1.528-1.618 3.979-1.478 4.116M296.259 566.919l-2.025 6.133-.428 1.162-.107.233-.161.234-.187.217-2.437 2.377-5.8 5.035-1.393 1.189-.648.63-.267.33-.306.504-.594.992-.365.52-2.635 3.173-.631.679-.75.965-.568.956-.739 1.331-2.18 3.746-.016.223.07.201.16.128 2.523 1.013" clip-path="url(#p557a3c0550)" style="fill:none;stroke:#000"/><path d="m295.53 509.751-.016.478-.053.716-.129.552-.284.796-1.2 3.523-1.253 3.99-.364.922-1.96 4.32-1.574 3.363-.269.732-.17.828.042 1.02.161 1.007.856 2.568 1.318 4.297 1.06 3.406.932 2.919.279.583.31.382.504.35 1.585.552 6.224 1.655.22.106.154.133.118.18.016.287-.09.398-2.384 6.945-2.688 8.181-.616 1.979M555.639 325.01l-.434 2.378-.364 1.432-.429 1.2-.728 1.538-.171.493-.166.717-.08.976.053.604.145.457.214.355.198.175.31.202 3.418 2.09 4.016 2.494 3.064 1.91 4.124 2.558 3.984 2.44 3.952 2.505 4.414 2.96 2.795 1.74 4.917 3.058 3.952 2.291 9.19 5.826 6.341 4.032 4.44 2.776.568.334.511.244.212.212-.005.302-.09.229-.826 1.008-1.264 1.411-.931 1.359-1.907 3.035-1.031 2.064M555.639 325.01l1.216-4.701.375-1.332 1.37-4.191 1.254-5.173" clip-path="url(#p557a3c0550)" style="fill:none;stroke:#000"/><path d="m448.713 284.122 4.327 5.859 1.971 2.504 16.882 6.367 11.996 10.867 11.311-2.208 4.199 2.887 4.113 1.273 20.223 3.183 5.335 1.062 7.669 1.464 10.411 1.677.825.233 1.06.552 1.061.838 1.2.786.417.371.729.822.54.531.536.388.953.657 1.168.775M420.949 302.672l1.457-2.42 2.913-3.353 3.6-2.843 5.955-3.396 9.597-4.967 4.242-1.57M522.15 250.843l-3.685-.679-3.599.424-2.142 7.557-11.14 1.528-7.54-1.274-15.682 11.8-8.912-1.357-4.627 2.97-9.855 10.358-6.255 1.952M224.372 479.434l-1.675 4.588M222.697 484.022l6.045 2.95M245.64 460.153l.534-.463.37-.725M226.881 490.801l1.861-3.83M231.09 488.258l-1.324 2.755-.31.287-.311.116-.361.002-1.903-.617M233.033 483.59l-1.944 4.668M231.09 488.258l-2.348-1.286" clip-path="url(#p557a3c0550)" style="fill:none;stroke:#000"/></g><path id="PatchCollection_1" d="m211.5 413.161 1.221-1.443 1.328-.509 4.97 3.905.814 2.547 1.028 1.528 2.571 1.612-1.67-3.523.6-3.437-.9-3.354-.857-1.698v-1.867l.942-1.613 2.057-.594 2.87.466 1.2-2.674 1.457-1.528.77-1.57 4.457.382 2.913.382 1.543 1.825 2.828 1.655 1.542-.51 1.843 4.925.942-1.062 5.398-1.74h3.728l2.613 1.529 2.272 1.952 1.285-.297 1.885-1.518.128-1.369-2.57-2.674-3.385-1.783-.257-2.037 1.714-3.014 2.1-.72-.558-1.699-.3-1.528.728-.51 2.614.382 2.656 3.948h.9l3.9-2.165 2.528-2.716 3.727-1.868 1.071-4.924-1.457-4.201-.643-3.184.43-1.698-3.728 1.23-2.357 2.887-5.913 2.717-2.314-.892-1.628-3.056-.428-2.717-2.7-2.037-1.284.68 1.156 2.376 1.885 1.825 1.371 3.99-3.856 2.887-3.599 1.697-1.542 2.335-1.543 4.882-2.013 1.273-2.271-.68-1.2.425-2.827-.806-1.372-2.037-.3-3.778-2.013 3.056-3.642 1.103-1.757-.042-.47-.594-2.614 1.315-2.186-.17-.428-1.23 1.242-6.07 1.543-2.802 1.028-3.31-.9-4.33-.857-5.688-2.185 1.359-2.4.127-1.413 1.613-.043 2.334 1.243 1.74.385 3.609-2.1 4.075-.47 2.037-1.885 2.292-1.758.297-1.285 2.844-2.87 2.802-1.629 1.783-3.255 2.461-1.821.552-3.171 8.596-.279 1.973.279 1.082 1.093.7z" clip-path="url(#p557a3c0550)" style="fill:#00f;fill-opacity:.8"/><path id="PatchCollection_2" d="m248.879 447.417-2.092 5.13 1.69.91 2.701-5.114z" clip-path="url(#p557a3c0550)" style="fill:green;fill-opacity:.8"/></g></g><defs><clipPath id="p557a3c0550"><path d="M114.111 86.4h509.777v554.4H114.111z"/></clipPath></defs></svg>