<svg xmlns="http://www.w3.org/2000/svg" width="960" height="960" viewBox="0 0 720 720"><defs><style>*{stroke-linejoin:round;stroke-linecap:butt}</style></defs><g id="figure_1"><path id="patch_1" d="M0 720h720V0H0z" style="fill:#fff"/><g id="axes_1"><path id="patch_2" d="M90 609.388h558V117.812H90z" style="fill:#fff"/><g id="LineCollection_1"><path d="m389.304 349.386.12-.543.097-.473M398.308 236.346l.536 3.569.64 4.916.154 1.397.088 1.52-.132 1.238-.265 1.328-.602 2.158-1.059 3.32-1.248 3.855-.574 2.375-.25 1.979-.059 1.239-.102.932.088.919.264 1.174 2.012 11.08.509 2.565.316 1.433.625 3.575.316 1.66.154 1.187.058 1.934-.125 1.736-1.528 8.709-2.16 11.366-1.117 6.077-.97 5.643-4.356 23.14M389.52 348.37l-1.2.033-.949-.014M340.122 128.706l2.12 4.315.682 1.067.463.526.75.533 1.881.977 1.124.49 3.329 1.279 2.668 1.216.867.33.834.268 1.01.098 3.509-.287 1.44.01 1.485.23 3.81.715 1.976.51 1.646.827 3.12 1.842 2.237 1.415 3.248 1.746 3.592 1.778 3.341 1.482M393.528 188.426l.055-2.312-.265-3.645-1.598-11.045-.907-4.285-.68-1.65-.595-1.542-3.663-7.33-.698-1.737-.276-1.254-.11-.948.084-1.217.38-1.388M552.354 127.265l-.244.108-.442.112-1.786.664-.506.033-1.128-.097M555.947 158.55l.112-.484.147-1.87.04-1.274-.132-.773-.217-.561-1.998-5.329-2.73-7.601-.577-1.613-.558-1.55-1.25-3.5-.624-1.804-.254-.756-.044-.645.066-.543.136-.61.184-1.552M555.825 165.467l.296-5.817-.174-1.1M507.256 226.237l.073-.708.309-.706.393-.677.573-.767.713-.698 5.276-4.277.944-.763.618-.581 10.232-12.318.69-.869.405-.7.268-.72.235-1.015.445-2.267 1.087-5.497.228-1.171.28-.68.389-.661 2.436-2.979 1.194-1.404.676-.684 1.738-1.187 1.073-.722.767-.617.584-.902.603-1.293.294-.479.463-.562 1.606-1.79 1.403-1.632 1.1-1.177 1.931-2.204.77-1.133 5.113-7.862 2.277-3.545 1.12-1.824.385-.616M555.368 174.335l.375-7.515.082-1.353M606.43 221.02l-2.744-.867-1.312-.341-1.7-.252-1.397-.03-1.451.067-3.472.02-.27-.047-.36-.153-.211-.065-.32-.016-1.712.179-1.11.124-1.741.118-.438.001-.28-.09-.157-.188-8.428-23.766-.305-.589-.406-.297-.713-.098-14.857.062-.398-.168-.24-.347-6.93-17.283-.103-.383-.018-.39.011-1.886" clip-path="url(#p8fc3cf15c3)" style="fill:none;stroke:#000"/><path d="m610.03 194.47-4.866 2.811-.63.274-.563.108-.687.033-.449-.108-.343-.24-.4-.324-.526-.539-.44-.43-.581-.523-.354-.29-.63-.349-2.528-1.219-.172-.149-.23-.315-.486-.655-.353-.34-.372-.315-.334-.24-.43-.117-.61-.149-1.107-.24-3.112-.581-5.535-1.467-2.987-.838-1.613-.365-.716-.232-.515-.299-.268-.232-.22-.323-.19-.473-.01-.44.02-.563.047-.656-.124-.812-.076-.406-.105-.44-.21-.398-.344-.249-3.34-1.998-2.586-1.717-5.898-3.955-.287-.199-.314-.182-.525-.191-.611-.066-.926.016-5.898.332-.181.058-.449.116-.194-.117-.128-.186-.276.044M589.156 272.885l.03-.304.002-.227-.1-.217-.278-.204-.202-.122-.085-.143-.316-.46-.095-.395-.272-.6-.287-.69-.19-.434-.177-.523-.162-.37-.349-.394-.397-.207-.202-.144-.235-.188-.103-.13.022-.524-.04-.454-.15-.427-.317-.974-1.66-5.004-1.308-4.17-.456-.938-.455-.76-.346-.58-.206-.715-.264-.862-.412-.907-.456-1.161-.315-1.175-.47-1.96-.508-2.308-.385-.624-.455-.344-.538-.152-1.098-.194-2.315-.41-.599-.237-.466-.342-.259-.35-.178-.377-.301-1.062-.353-.482-.378-.236-.505-.188-.565-.096-1.13-.079-1.477-.127-2.043-.285-1.61-.144-1.728-.235-1.147-.28-1.149-.323-1.422-.443-1.679-.775-.672-.185-.984-.038-.783-.007-1.099-.148-1.242-.244-1.08-.16-1.34-.316-1.11-.317-.842-.218-.746-.22-.861-.277-.775-.334-.724-.4-.553-.39-.55-.474-.595-.48-.606-.391-.487-.157-.536.01-.485.108-.482.307-.554.711-.327.492-.481.32-.633.022-1.392-.1-.676-.239-.713-.547-1.076-1.53-.511-.652-.5-.376-.597-.161-.49-.018-.647.124-.587.179-.724.24-.732.258-.771.204-.702.08-.933-.024-1.014-.08-1.431-.186-.94-.072-8.982-.046-.58-.093-.563-.176-5.527-1.806-.337-.125-.2-.292-.105-1.684-.084-.284" clip-path="url(#p8fc3cf15c3)" style="fill:none;stroke:#000"/><path d="m409.625 246.15 1.705-.103 1.052-.086.733-.095.327-.026h.447l.337.043.367.104.436.215.436.25.675.405.585.319.506.25.496.146.367.051.803.053.426.077.605.164.367.18.407.31.397.371.336.259.467.318.486.147.525.155.357.069.774.017.654-.06.873-.121.645-.319.614-.24.605-.277 1.24-.379.714-.301.357-.12.555-.078.546.094 2.687 1.172.373.2.295.122.295.189.631.231.533.354.322.231.379.097.463-.414 3.45-3.984.379-.524.42-.523.786-.646.364-.451.618-.475.519-.183.722-.195.129.525.535.542.992.302 2.32.483.923.112.892.043 1.577-.508 1.468-.664 5.652-3.136 7.647-4.075 1.963-1.085 1.14-.733.784-.508.674-.56.605-.672.496-.69.426-.68.635-1.232.179-.526.396-1 .308-1.188.287-1.043.08-.542.287-.371.605-.353.645-.06.714-.155.852-.259.814-.276.704-.275.575-.276.357-.293.417-.328.585-.508.565-.595 1.061-.999.327-.276.347-.24 2.668-1.922.287-.25.199-.293 1.289-2.248.06-.199.168-.172.159-.181.476-.077 14.498-.854.417.078.188.164.139.31-.03.233-2.003 5.359-.099.456-.04.543.15.706.118.336.288.31 2.568 2 .575.37.228.086.397-.017.387-.095 1.123.55M586.623 133.818l-.36.263-.407.046-.559-.062-.833-.112-.575-.057-.432-.003-.586.068-1.167.26-3.777.904-1.069.148-.844.041-.788-.007-.673-.093-.625-.175-.91-.381-1.605-.954-.992-.549-.669-.355-.632-.203-.946-.234-1.463-.342-1.372-.298-1.147-.292-.606-.273-.46-.267-.429-.311-.414-.28-.296-.076-.38.067-.845.391-.524.203-.448.02-.395-.061-.489-.273-.665-.334-.856-.182-.911-.223-.628-.344-.456-.332-.338-.355-.501-.484-.474-.367-.485-.265-.485-.181-.753-.239M190.442 208.243l4.714.648 9.042 1.402 11.448 1.768 8.473 1.373 5.18.72 2.344.25 5.74 1.187 7.37 1.06 4.945.78 1.529.127 4.114.057 3.998-.01.852.007 2.453.165 3.124.075 6.32-.138.489-.16.253-.319 3.865-9.79 4.703-12.43 5.768-13.542 5.813-16.374.213-.354.404-.19.456.018 2.976 1.516.674.3.443.045.727-.157 3.899-1.634.462-.268.239-.262 1.738-2.165 1.073-1.363.841-1.564 1.029-2.023.439-.534.43-.268.692-.25 4.274-.386.977-.233.86-.472 3.38-3.001 1.715-1.475 1.246-.827 2.888-1.692 2.913-1.58.842-.607.448-.408 1.808-2.101.874-1.36.412-.78.301-1.116.43-2.542.176-.843.265-.925 2.391-4.534.467-.639.606-.485 3.135-1.234M396.755 228.588l.731.128 5.287.813 1.112.293.915.293.731.166.783.128 1.076.125.821-.07M391.864 202.784l1.062 3.263.326 1.226.17.996.55 5.298.17 1.8.294 2.95.323 2.13.286 1.363.309 1.296 1.401 5.482M398.308 236.346l-.757-4.478-.796-3.28M399.18 236.233l.972-.132 1.668-.47 2.047-.83 1.776-1.065M399.18 236.233l-.872.113M409.625 246.15l-.477-.252-.515-.345-1.17-.465-1.19-.465-.496-.259-1.547-1.602-1.607-1.62-.317-.74-.218-.776-.298-.879-.138-.344-.437-.156-.694-.103-.773-.414-.568-1.497M412.897 262.853l-3.173-15.99-.1-.712M387.371 348.389l.714.343.723.323.496.331M324.113 346.606l.974-.073 1.84.245.9.17 1.485-.045 4.501-.189 4.32-.089 4.402-.188 5.228-.188 2.962-.15 5.735-.214 1.896-.064 1.029-.051.668-.051.992-.281 2.58-1.11.675-.243.669-.115.794.032 4.776.823 1.307.218 9.862 1.99 4.659 1.095 1.004.26M388.357 353.898l.002-.097.069-.204.46-1.942.416-2.269M370.877 357.335l-.745-4.5.013-.638.288-.45.407-.218.67-.217 2.853-.3 1.236-.077.56-.015.827.093M386.929 354.076l-1.291-.564-1.31-.531-1.644-.608-1.242-.402-1.31-.41-.866-.23-.88-.187-1.4-.13M377.748 356.69l-.704-4.886-.058-.79M388.357 353.898l-.122.235M388.6 354.727l-.093-.25-.026-.09-.038-.17-.031-.148-.055-.17M388.235 354.133l-.437.037-.353.02-.125.008M388.235 354.133l-.074.157-.053.128-.057.139M386.929 354.076l.166.17.19.193.142.149.086.092.1.147M386.929 354.076l.391.122M387.32 354.198l.658.37M388.05 354.557l-.072.01M388.6 354.727l-.224-.131-.196-.034-.13-.005M387.978 354.567l-.144.064-.129.088-.092.108M388.733 354.954l-.023-.067-.11-.16M387.613 354.827l-.062.14-.015.14.033.144.025.065M387.594 355.316l.112.137.067.052.088.05.072.028.113.025.127.007.111-.008.139-.05M387.594 355.316l-.089.129-.094.142-.113.188-.09.157M388.59 355.449l.057-.063.068-.11.032-.102.006-.134-.02-.086M388.59 355.449l.463.157.397.146.286.106.426.156.592.246.713.258 3.52 1.238" clip-path="url(#p8fc3cf15c3)" style="fill:none;stroke:#000"/><path d="m388.423 355.557.071-.036.096-.072M388.423 355.557l-.357.452M387.207 355.932l.22.012.411.034.228.03M388.885 363.469l-.718-5.92-.11-.865-.021-.415.03-.26M387.207 355.932l-9.46.758M387.207 355.932l.002.2.043.396.048.884.684 6.13M351.808 356.99l-.228-.644-.506-1.028-.845-.849-1.51-.717M377.748 356.69l.843 7.732M370.877 357.335l.786-.076 1.44-.179 4.645-.39M370.877 357.335l-.624.109-1.845.249-1.675.102-1.514.064-.963.108-2.557.306-3.233.307-1.264.064-1.23-.045-.937-.198-.577-.128-.974-.338-.97-.408-.382-.268-.324-.268" clip-path="url(#p8fc3cf15c3)" style="fill:none;stroke:#000"/><path d="m343.439 382.775-2.058-8.552-1.117-9.905-.056-1.148.35-.63.524-.52 3.158-.881 2.61-.957 1.28-.51 1.087.127.24-.083.118-.25.362-1.492.027-.766.345-.505.434.007 1.065.28M395.217 357.22l-.23.536M395.217 357.22l-1.237-.344-1.293-.453-1.301-.422-1.066-.408-.268-.115-.435-.177-.287-.115-.597-.232M399.798 359.078l-.682-.473-1.31-.558-2.59-.827M378.59 364.422l-6.153.448-.502-.35-.172-.673-.886-6.512M394.988 357.756l.502 5.11M394.988 357.756l3.868 1.446.5.305M395.49 362.866l.695 5.88M395.49 362.866l-6.605.603M388.885 363.469l-.901.074M388.885 363.469l.655 5.76M387.984 363.543l.8 5.738M387.984 363.543l-9.393.88M378.59 364.422l.802 5.849M408.902 367.38l-.556.394M408.902 367.38l-6.112-5.577-2.454-2.228-.538-.497M408.902 367.38l6.147 5.721M408.346 367.774l-5.32.42M408.346 367.774l5.84 5.401M399.356 359.507l.443.397 1.102.96 7.445 6.91M403.025 368.193l-6.84.553M403.025 368.193l.835 5.952M396.185 368.746l-6.645.483M396.823 374.645l-.228-3.754-.41-2.145M389.54 369.229l-.756.052M389.54 369.229l.77 6.05M388.784 369.28l-9.392.99M388.784 369.28l.64 6.043M380.302 375.605l-.298-.519-.612-4.815M415.05 373.101l-.864.074M425.637 373.082l-3.456.045-.556.017-.95.028-3.467-.009-2.159-.062M415.05 373.101l3.804 3.57M425.637 373.082l15.46.1M425.637 373.082l-.021-3.095M440.994 383.478l-.853-.224-1.61-.542-1.226-.447-.882-.32-.665-.306-.559-.338-.922-.676-1.058-.728-.83-.517-.842-.456-.79-.425-.642-.28-1.5-.498-2.218-.736-.39-.173-.215-.121-.104-.116-.03-.192-.02-3.301M454.04 372.673l-4.89.133-5.235.392-2.818-.015M440.994 383.478l.043-3.134.052-5.865.008-1.296M441.273 358.382l-.03 2.604-.014 4.762-.132 7.435M414.186 373.175l4.135 3.887M414.186 373.175l-10.326.97M403.86 374.145l.422 4.622M403.86 374.145l-7.037.5M396.823 374.645l.393 4.845M396.823 374.645l-6.514.634M390.31 375.279l-.886.044M389.791 378.924l.522-.278.185-.612-.189-2.755M389.791 378.924l-.168-1.21-.199-2.391" clip-path="url(#p8fc3cf15c3)" style="fill:none;stroke:#000"/><path d="m380.302 375.605.488.303.628.172 1.536-.063 2.281-.243 4.19-.451M384.163 393.038l-.632-2.604-1.088-4.25-.852-4.06-1.087-5.259-.202-1.26M404.282 378.767l.631 4.915M404.282 378.767l-3.484.347M416.71 381.467l-.635.172-.353-.007-.288-.165-.243-.169-2.607-2.318-.675-.225-.984-.064-6.643.076M397.216 379.49l3.582-.376M401.52 384.18l-2.663.32-.542-.135-.323-.492-.776-4.383M390.085 381.918l-.294-2.994M404.913 383.682l-3.394.498" clip-path="url(#p8fc3cf15c3)" style="fill:none;stroke:#000"/><path d="m416.71 381.467-1.212.938-1.237.256-2.528.255-2.484.345-4.336.421M324.105 348.555l-.11-.384-.052-.396-.004-.327-.037-.257.091-.29.12-.295" clip-path="url(#p8fc3cf15c3)" style="fill:none;stroke:#000"/><path d="m335.023 355.98-.82-.134-.373-.206-.434-.312-.17-.295-.019-.344.15-.492.227-.525.1-.48-.23-.702-.365-.381-.735-.357-.923-.287-.827-.1-.415.018-.49.032-.638.092-.726-.016-.41-.043-.548-.136-.893-.307-.757-.305-.57-.36-.545-.558-.27-.53-.237-.697" clip-path="url(#p8fc3cf15c3)" style="fill:none;stroke:#000"/><path d="m301.79 351.068 7.436-.766 4.056-.243 4.805-.6 1.853-.051h2.292l.911-.217.962-.636M447.458 395.849l.312-.417M447.458 395.849l.917.173M425.915 525.21l.173-1.08.386-2.62 1.256-6.145 1.066-5.915 1-6.662 2.292-12.953 3.578-21.256.669-3.433 2.168-12.367 1.403-7.741 1.352-8.296.823-5.948.661-5.705.603-3.944.5-3.574.72-4.34.735-4.123 1.337-5.042.44-3.727.412-2.284.015-.836-.037-.83v-.271l-.009-.27M447.458 395.849l-7.401-4.192M448.375 396.022l-.605-.59M458.188 401.977l-1.66-1.114-2.697-1.876-2.917-1.724-2.54-1.241M462.399 405.711l-3.726-3.323-.485-.411M464.515 385.6l-3.761 2.589-.27.271-.214.302-.07.244-.047.35.007.385.004 1.108-.032.422-.039.285-.093.308-.153.963-.145.862-.147.88-.279 1.354-.22 1.289-.132 1.06-.148 1.378-.132 1.06-.25.746-.206.52M487.801 448.908l-1.432-3.73-3.69-9.77-.66-1.48" clip-path="url(#p8fc3cf15c3)" style="fill:none;stroke:#000"/><path d="m487.801 448.908.93.375 2.44.338 7.025.191 5.202-.102 7.951.128 7.231-.026 4.806.217 6.628-.064 2.373.026 4.468.076 3.424.038 5.232.23 5.335-.268 3.277-.025 1.455-.383 1-.191 3.439-.32 1.278-.23.235-.574 2.94-7.823-.06-.575-1.734-2.795-1.102-1.979-.602-2.628-.382-2.4.059-.932.705-1.302.734-.727-.205-.307-.353.115-.455.396-.618.587-2.072.395-8.832 1.048-2.91.357-3.998.395-5.863.805-4.777.561-3.66.536h-1.572l-.308-.166-.148-.357 1.088-1.353.176-.638-.22-.6-1.337-1.379-3.689-3.088-.97-.88-1.249-.09-1.294.14-21.515 9.164-1.352.013-2.322-.038-.764.115-2.143.662-2.325.78-1.073-.358-.764-.165-1.014-.102-1.66.025-1.871.172M476.353 420.666l.419.932 2.513 5.896 1.462 3.549 1.272 2.885" clip-path="url(#p8fc3cf15c3)" style="fill:none;stroke:#000"/><path d="m492.122 466.473-2.263-9.54-1.275-5.38-.326-1.222-.457-1.423M496.862 485.623l.183.626M493.805 474.035l1.91 7.23 1.147 4.358M504.1 472.306l.717.332 1.131.843.588 1.135.254.803.286 1.918.063.645-.07.213-.158.176-.383.09-.79.133-.503.053-.251.085-.133.102-.162.27.035.374.184.83.313 1.564.162.81-.118.574-.438.344-.554.238-6.613 1.658-.798.127M425.915 525.21l1.06 4.12M422.527 527.43l1.375-.344.866-.262.508-.376.64-1.238M497.045 486.249l.177.58.397 1.544.845 3.242 1.477 6.081 1.394 5.507 1.148 4.033 1.058 4.243.588 2.47.191 1.632.044 2.56-.727 6.15-.22 2.055.014.638M453.64 532.784l15.358-2.45 1.22-.173 1.256.013 1.076.192 1.804.44 3.458.689 1.374.083 1.426-.032 1.385-.35 6.025-2.228 3.057-1.62 1.55-.747.934-.35 1.124-.18 1.212.013 4.63.613 2.902.287M517.157 534.239l-.867-.415-4.372-2.131-4.585-2.08-3.27-1.691-.522-.453-.11-.485M426.976 529.33l-.95-.853-.933-.726-.9-.346-1.666.025M393.807 529.983l2.796-.447 2.307-.326 1.478-.203 1.763-.224 1.992-.057 2.836.083 1.763.153 2.925.076 2.895-.012 1.367-.077 1.712-.332 4.886-1.187M443.742 534.819l-1.514.281-2.425.23-3.219-.09-3.203.051-2.102-.28-1.285-.485-.993-.983-.661-.97-.808-2.092-.556-1.152M380.327 530.487l7.4.083 2.082-.03 1.235-.159 2.763-.398" clip-path="url(#p8fc3cf15c3)" style="fill:none;stroke:#000"/><path d="m383.266 519.57.662.682.278.313 2.404 2.846 1.241 1.486 1.014 1.57 2.234 3.1.213.18.12.062.222.008 1.422-.077.477.09.254.153M216.932 599.935l1-1.072 1.249-.88 1.999-.944 1.499-.932 2.145-1.276 2.22-1.2 4.54-2.22 2.455-1.084 2.425-.919 3.762-1.824 2.601-1.367 1.771-.745 2.396-.989.972-.477 1.139-.621.997-.662 1.397-1.284 1.631-1.651 4.917-5.063 3.227-3.047 2.687-2.394 1.678-1.142 1.702-.988 1.76-.754 1.807-.57 3.216-.989 1.514-.611 1.595-.765 4.237-2.506 2.03-1.284 1.795-1.426 3.227-2.823 2.617-2.414 1.608-1.376 1.126-.693 1.35-.58 4.952-1.641 4.154-1.335 2.171-.652 3.849-.673 3.31-.825 3.766-1.141 1.962-.952 1.524-.933 2.58-1.773 1.644-1.324 1.749-1.651 1.431-1.233 1.28-.856 1.324-.705 1.705-.81 3.437-1.77 2.08-1.04 4.445-2.228 1.551-.484 1.227-.275 1.425-.057 1.713.312 2.888.9 2.722.852.904.195 1.297.127 1.297.067 1.495-.022.948-.172 1.867-.294 2.256-.179h3.968l2.27.007 1.25.05.83.097.69.07.897.12 1.25.218 2.63.128 2.366.006" clip-path="url(#p8fc3cf15c3)" style="fill:none;stroke:#000"/><path d="m383.854 554.784 1.11-2.291.61-1.972.073-1.008-.118-.373-1.907-3.787-.84-2.545-1.625-7.784-.404-1.283-.515-2.303-.022-.205.11-.746M453.64 532.784l-1.709.255M453.106 533.803l.229-.54.305-.479M443.742 534.819l2.249-.51 1.44-.421 4.5-.85M453.106 533.803l-.358-.32-.817-.444M439.708 544.951l-.265-3.209.17-.492.322-.338.684-.401.143-.16.08-.23-.047-.912.088-.376.154-.396.89-1.06 1.719-1.664.125-.236-.03-.658M144.898 569.362l2.462.383 3.835.466 3.116.842 1.778.823 2.389 1.467 4.11 2.502 2.748 1.825 1.778 1.353 1.908 2.18 1.337 1.296 1.397.83 4.659 1.811 1.322.447 1.301.376 1.286.338 1.521.453 2.351.657 2.3.594.94.485 1.125.79 1.462 1.48 4.52 4.594 1.361 1.264 1.455 1.034 1.176.395 2.29.325 4.144.421 4.05.3 4.394.09 1.16.095 2.36.657M441.34 354.495l-.614-1.228-.65-1.111-.95-.98-.972-.692-1.124-.593-.981-.617-1.358-.508-1.316-.598-1.524-1.542-2.799-2.74-.062-.345.188-.526 1.817-4.009.146-1.216-.606-6.784-.334-.545-.439-.507-.606-.237-12.97-1.614-1.086.145-1.19.472-.668.362-.377.581-.312.744-3.484 11.5M441.34 354.495l.096-.72.15-1.08.23-1.251.003-.655M476.823 352.992l2.05-.112 1.279-.12M476.823 352.992l.048 4.628M441.31 356.301l.382-.23.793-.127 2.785-.21 6.525-.55 6.173-.644 3.468-.358 2.352-.044 3.93-.332 9.105-.814" clip-path="url(#p8fc3cf15c3)" style="fill:none;stroke:#000"/><path d="m441.31 356.301.03-1.434v-.372M441.31 356.301l-.037 2.08M426.653 359.365l4.317-.077 10.303-.906M461.137 372.347l5.626 6.586M461.137 372.347l-7.096.326M476.808 371.348l-.154.137-.268.147-4.563.242-2.767.157-2.66.226-2.974.198-2.285-.108M464.515 385.6l-5.327-6.59-5.147-6.337M440.994 383.478l-.044 2.22M440.95 385.698l3.533.215M440.663 391.074l.051-.601.198-1.66.038-3.115M440.057 391.657l.606-.583M432.83 387.271l1.399.851 5.828 3.535M476.808 371.348l.581.188 2.682-.07.97.039 1 .165.565.134.919.402 1.977 1.239.97.849.815.816.44.409.508.58.845 1.08 3.197 4.09.367.473.25.319.382.453.345.294.573.35.794.358 1.021.223 1.242.421 3.204 1.034 2.469 1.328 1.5.708 1.307.409 1.646.625.867.492.765.523.646.721.698.836 3.46 4.015 1.133 1.206.521.574.75 1.021.625 1.22.338.631.463.154.771-.109M453 556.74l-.228-.622-.12-.777-.055-1.175.131-7.039.24-6.46.11-4.283.08-1.288-.052-1.293M464.86 561.91l-3.248-1.34-1.748-.912-1.33-.555-.904-.319-.977-.5-.83-.374-.71-.23-.44-.179-.909-.539-.34-.114-.423-.109M548.292 538.13l2.587.128 5.312.256 2.58.203 1.484.3 2.182.683 3.513.874 6.01 1.487.993.37.749.453.654.702 1.212 1.716 1.418 1.519 3.145 2.737 4.459 3.386 2.06 1.185 2.26.862 2.332.647 3.128.625 2.11.086 1.762.13 1.838-.237 2.73-.432 1.315-.194h.795l.72.173.62.323.423.41 1.935 1.568 1.76 1.56 1.617.997 2.047 1.248 2.119.873 2.478.998 2.406.998 1.473.78 1.221.966 2.335 1.497 2.227 1.248 2.55 1.278 1.544.562 1.365.062 1.365-.094 1.472-.156.672-.187M466.763 378.933l2.083 2.593.213.395.1.26-.043.221-.227.284-.342.247-4.032 2.666M391.864 202.784l-.118-.338-.283-1.133-.136-1.401.015-1.147.113-1.091.401-1.635.596-2.276.558-1.966.325-1.535.193-1.836" clip-path="url(#p8fc3cf15c3)" style="fill:none;stroke:#000"/><path d="m313.23 215.553 1.709-2.5.665-.883.713-.633 1.642-1.104.863-.46 1.845-.574 2.649-.856 1.694-.76 1.682-1.002 3.94-2.381 8.053-4.15 2.182-.843 1.084-.137 1.404.01.75.143 1.792.604.379.04.503-.168 2.127-1.641.558-.648.177-.396.459-2.218.187-.785.559-1.112 1.653-2.496.65-1.698.408-.517.731-.192 1.684.102.642.042.522-.036.87-.15.54-.047 6.364.05 5.423-.009 3.94.15 4.32-.109 14.935.237M420.08 378.695l-3.37 2.772M420.08 378.695l1.43 1.44.86.66.566.324.455.249.461.214 1.263.715M420.08 378.695l-1.76-1.633M425.43 381.992l-.315.305M425.43 381.992l-1.414-.731-.406-.152-.476-.28-.447-.401-.604-.697-1.274-1.275-1.413-1.31-.542-.475M440.663 391.074l-6.177-3.422-1.649-.988-3.033-1.845-3.196-2.061-1.178-.766M425.115 382.297l1.204.849 3.204 2.036 3.307 2.089M418.32 377.062l.534-.39M466.763 378.933l2.913-2.13M474.011 357.872l2.86-.252M476.87 357.62l.115 4.443M476.87 357.62l3.655-.37M476.985 362.063l-2.583.218-.562-.073-.206-.134-.066-.274.033-.463.04-.383M476.985 362.063l4.036-.323M476.808 371.348l.151-.195.026-9.09M462.399 405.711l-.685.514M476.353 420.666l-.683-1.423-.522-1.021-.544-.836-.5-.594-2.572-2.636-2.924-2.66-3.314-3.236-2.895-2.549" clip-path="url(#p8fc3cf15c3)" style="fill:none;stroke:#000"/><path d="m461.714 406.225 5.923 5.296 2.234 2.183 3.586 3.14.823.957.91 1.71.544.69.62.465M461.714 406.225l-2.557-2.35M102.848 553.791l-1.125.04-.992.267M101.448 552.866l-.225.54-.492.692M101.448 552.866l1.4.925M134.449 566.861l-2.908-1.083-3.13-1.366-4.328-1.097-3.718-.473-3.471-.421-2.336-.524-2.404-.899-1.998-1.046-1.46-1.13-4.88-4.26-.968-.77M138.6 569.286l.775-.516.514-.377.376-.185M134.449 566.861l3.704.967 2.112.38M144.898 569.362l-2.961-.842-1.672-.312M144.898 569.362l-2.807-.012-3.49-.064" clip-path="url(#p8fc3cf15c3)" style="fill:none;stroke:#000"/><path d="m134.449 566.861 2.483 2.119 1.669.306M520.44 480.174l-3.117.875-4.369 1.103-5.077 1.295-10.015 2.537-.817.265M493.805 474.035l-1.683-7.562M500.896 471.546l-.808.064-.812.129-.44.37-.53 2.373.048.555.007.293-.15.244-.646.21-.846-.127-.617-.39-.647-.855-.852-.395-.798.018M504.1 472.306l-2.082-3.056M500.896 471.546l.911.16 1.301.446.992.154M492.122 466.473l.414.013.37-.008.502.142.643.262.97.28 1.014-.012.941-.293.867-.383.618.038.889.395 1.807 1.456.86.887M500.896 471.546l.7-.551.226-.342.135-.523.06-.88M525.444 537.13l4.585 1.416 2.156.53 1.47.126 1.241-.07 1.132-.255.933-.191.713-.275.566-.261.999-.345.61-.147.903-.133 1.264-.058 1.896.064 2.241.268 2.139.332M571.387 580.081l-1.697-1.078-1.168-1.235-.834-1.212-1.292-1.668-.794-1.518-.431-1.583-1.279-4.421-.294-.524-1.94-2.214-1.499-1.506-.816-.535-1.045-.536-1.497-.536-1.007-.32-.36-.293-.161-.44-.368-1.225-.75-2.897-.11-.905.022-.651.633-3.204-.03-.663-.198-.478-.656-.88-1.999-2.884-1.27-2.094-.345-.938-.374-1.34-.787-2.31-.543-1.377-.206-.485M571.387 580.081l.037-1.703.198-.307.397-.236.75-.364.514-.472" clip-path="url(#p8fc3cf15c3)" style="fill:none;stroke:#000"/><path d="m573.627 584.828.308-.778-.147-1.11-1.558-1.863-.843-.996M573.627 584.828l-3.38 3.33-1.838 1.519-.896.868-.309 1.378.103.727.985 1.812.75.957.356.183" clip-path="url(#p8fc3cf15c3)" style="fill:none;stroke:#000"/><path d="m573.627 584.828-.926 3.178-.72 1.403-1.264.855-1.94.344-.97.651-.074 1.047 1.044 2.233.62 1.063M517.157 534.239l.934-2.355 1.278-3.675.364-1.008.107-.412-.008-.797-.062-.923.21-.42.55-.345.515-.354.433-.444.357-.839.036-.568.243-.634.21-.294.41-.172.456-.074.46.077.973.354.845.153.882.077.669-.032.647-.188 2.476-1.082" clip-path="url(#p8fc3cf15c3)" style="fill:none;stroke:#000"/><path d="m525.444 537.13-3.576-1.181-2.638-.849-2.073-.861M525.444 537.13l1.582-3.421 1.066-2.412.639-1.493M432.83 387.271l-.757.649-5.57 2.144-5.115 2.183-12.433 5.106-8.832 3.586-3.88 1.634-.735.332-.352.408.058.894.5 3.255.037.421-.155.434-1.734 1.672-1.139.99M369.378 208.786l.588-1.686.61-.868 1.613-1.535.985-1.249.613-.596.5-.253.749-.035 1.389.246 3.99 1.551 1.646.818.735.262.591.009.652-.148.947-.197 1.11-.038 1.326-.118 1.08-.313 1.392-.77 1.97-1.082M399.798 359.078l-.442.429M400.798 379.114l.721 5.066M440.663 391.074l7.107 4.358" clip-path="url(#p8fc3cf15c3)" style="fill:none;stroke:#000"/></g><g id="PatchCollection_1"><path d="m599.408 225.364-.607-.2-.232-.327-.246-.164-.535.075-.564-.527-.492-.578-.058-.654.304-.302.608-.163 1.113.1.362.164.13.39.072.465.203.452.275.34.376.339.101.213-.246.138zM603.056 202.48l.622.396.47.528.21.358-.03.346-.527.188-.666.252-.687.333-.614.484-.412.446-.276.364-.246.226-.412-.069-.31-.094-.456-.453.174-.578.6-.465.585-.32.145-.37.304-.472.5-.346.325-.364.426-.283zM601.983 226.897l.347.59.232.328.303.377.333.214.275.263.405.554.463.54.853.326.29-.087.332.176-.144.553-.796.59-.81.503-.39-.025-.232-.327-.217-.428.159-.2-.101-.302-.318-.565.029-.265-.13-.603-.276-.515-.29-.44-.274-.352-.376-.678v-.151zM487.23 193.505l9.151-1.901.642-.593.301-.767-.22-.68-.282-.488v-.68l-.08-.662-.401-.332-.18-.89-.663-1.55-.04-1.082v-1.203l-.26-1.081-.603-.436-1.124-.645-1.124.104-1.646.89-1.304.278-.722.837-1.325 1.203-.2 1.134.22.732-.321.715-.502 1.168-.38.715-.262 1.03-.522 1.394.08 1.273.402.941.682.593zM585.966 176.036l-.897-.427 1.765-.403-.26-.452.375-.428.695.328 1.013.728.23.955.521.277.203-.352.492.428.26.728.405.629.492-.05.753.176 1.62.729 1.07.251 1.36.654.694.88.087 1.13-.434 1.207.087.88.983.452 1.187.428 1.648 1.08-.057.453-3.212 3.595-.492-.428-1.243-.83-.81-1.18-.58-1.132-.751-.553-1.186-.427-1.158-.05-1.186-.227.52-.779-.433-.628-.926-.277.029-.352 1.1-.15.752.2.434-.678-.058-1.207-.26-1.03-.666-1.03-.695-.956-1.012-.83-.781-.402-.029-.377-1.157-.704zM484.421 212.8h1.365l.25.606-.362.605 1.587.919 1.476.387 14.728-.774.501-.702.53-.338.278-.847-.362-1.5.083-.75v-.435l-.25-.363-.53-.097-.473-.12-.863-.944-.696-.798-1.642-.823-.53-.024-.556-.218-.446-.653-.334-.846.028-.581.083-.58-.278-.388-.445-.338-.39-.315-.696-.919-1.086-6.222-.279-.23-.556.024-4.9.533-.376.169.11.375.363.387-.084.641-.264.556v.436l-.516.617-.027.858-.766.847-.737.859-.195.87-.404 1.5.028.98-.167.472-.794.544-1.1.69-.738.834-1.016 1.814.028 1.101.432 1.233.528.81zM605.224 196.676l4.455-2.526.014-.704-.115-.704.29-.553-.102-.402-.26-.088.346-1.068v-.39l.579-.566.376-.263v-.176l.145-.151-.608-.365-.217.24-.347.188-.462.15-.16.277-.361.252-.333.527-.159.503.202.214.203.176-.087.125-.39-.088-.275-.138-.174.076-.275.251-.304.226h-.578l-.608-.226-.55-.264-.506-.302-.42-.138-.26-.314-.144-.189-.203-.025-.231-.05-.391-.315-.304-.3-.347-.064-.29-.251-.201-.302-.13-.1-.275-.076-.145-.427-.101-.15-.246-.076-.203-.026-.607.403-.333.414-.073.44.117.591.419.465.636.578.333.616.087.34.665.741.477.83.637.602.448.654.405.943.434.716.174.214zM605.936 135.393l.695 4.676-.203.44-.607.452-.694.44-1.027.628-.087.201.289.302.405.264.376.063.116.088.072.125-.593-.025-.361-.087-.261-.189-.087-.113-.607-.05-.073.25.188.34.13.195.17.062.196.141-.004.091-.058.098-.072-.019-.09-.1-.105-.088-.08-.053v.176l.025.07-.015.133-.18-.032-.163-.16-.056-.164-.21-.111-.721.014-.491.181-.827.467-.87.552-.634.63-.317.223.133.168-.133.258-.246.116-.306-.178.04-.178.164-.098.02-.16-.409.018h-.245l-.092-.178-.368-.47-.44-.4v-.427l.696-.551.552-.836.716-1.466.399-.204.194-.24.297-.24.163-.347.686-.489 1.104-.436.747-.4.041-.222.071-.515-.173-.284.061-.48.061-.33-.163-.32-.082-.293.092-.15-.46-.17-.44-.31-.4-.187-.357-.205-.245-.382.49.213.573.09.379-.143.245-.178-.02-.133.296-.214-.02-.346-.205-.267-.378-.187.378.01.543.204.838.48.42.31.644.356.338.018.245.027zM446.778 243.866l.87-1.023 1.122-1.657.28-1.365-.056-.926.421-.463 1.15-.487 1.43-.463 1.515-.195 1.178.463.702.244 1.206.34.476.22.646.39.028.633-.028.878-.758.414-5.497 3.07-1.01.414-.87.171-.504.025-.758-.05-.926-.146-.7-.194zM541.073 221.327l.873-.275.515-.328.496-.43.953-.121.178.775-.377.93-.218.828.277.137.695.207.118.19-.495.12-.417.172.338.242.197.31-.356.19-.06.551.08.241-.298.31-.04.517.1.724.02 1.19.396 1.085.397.55.416.07.278.448-.337.345h-.615l-2.42-.087-3.094-.378-.476-.224-.218-.535-.277-1.051-.278-.655.08-.792.177-.483.16-.31.217-.052.16.345-.021.362.12.19.158-.26.238-.326.397-.896.436-1.224.238-.12.277-.311.02-.224.417-.827.218-.293.06-.379zM465.278 226.055l2.468-.073 1.319-.147.056.878.392.195.312.414.35.182.323-.207.308-.219.323-.06.07.23.042.646.379.756.743 1.352-.28.549-.744 1.364-.308.341-.126.342-.59.682-.911.658-1.094.768-.94.584-.996.646-2.201 1.255-2.216 1.328-.716.317-.98.512-.983.45-.575.293-.337-.232-.07-.463.197-.658.014-.499.519-.475.336-.585.547-.707-.084.512-.154.524.757-.512 1.234-.975.505-.536.393-.706.084-1.426.379-1.694.35-.207.477-.45-.253-.451-.196-.293.169-.316.322-.366.183-.402-.14-.28-.253-.561.28-.378.59-.572.406-.585zM546.995 202.924l-.133.381-.23.514.154.274.238.862-.048.415.039.323-.115.224-.114.183.162.099.83-.066.124-.456.248-.299.573-.174.62-.025.811.108.611.274.2.39.182.306.344.066.248-.132 1.794-.183.382-.05-.22.216-.239.382-.505.199-.306.356.038.191-.6.497.142.266-.114.796.257.207-.095.208-.458-.009-.64.009-1.765-.142-.983-.173-.668-.067-.496-.1-.287-.256-.248-.349.22-.44.391-.538.105-.274-.267-.265-.477-.116-.115-.158.038-.182-.143-.29-.01-.324.23-.356v-.349l.124-.207-.134-.166-.047-.315-.163-.373.143-.423.172-.29zM411.725 334.45l1.197-4.078.798-.96.798-.453.89-.266.829.026 8.593.88 3.1.24 1.136.16.552.506.307.693.215 1.014.706 5.011-.215.827-.706.293-1.627-.187-10.588-3.545-.86-.16-.767.24-1.38.32-1.352-.213-1.319-.027zM363.228 283.424l-.613-.197.274-.533.29-.406.452-.155.662-.084.662-.014 1.098.364.743.632.468.337 1.146 1.023.485-.112.29-.449.743-.842.71-.49.662-.197.92.028 1.808.155 2.357-.772.469-.266 1.097-.154 1.244-.07.839-.365 1.598-1.403.565-1.163.533-.87.646-.617.984-.295.904-.168.469-.266.42-.337.694-.505.42-.449.097-.35.258-.225h.533l1.646.393.678.112.646-.14 1.066.14.58.505-.015.463.371.645.597.786.436.729.242.743.565.575.905.168.855.113 1.21-.057.05-.364.16-.772-.08-.757.549-.126 1.292.309.677-.702.743-.084.581.463.097.645-.064.232-.049.392.702.063 1.276-.4 1.412-.476 1.607-.183 1.388.063 2.473-.37 1.644-.02 1.461-.416 1.347-.794 1.21-.317 1.073.576.503.376.799.258.433-.575.229-.595.342-.04-.023.496.366.357.365.635.206.515-.297.258-.64.952-.296.774.41.595.434.1.617-.338.684-.258.891-.238.685-.714.89-.694.868-.258 1.416-.198 1.164.119.73.436.07.476-.206.833-.377.357-.114.397.57.952 1.131.05.673-.18.48-.386.468-.436.685-.417.616-.02 1.712.189 1.245.357.879-.05.993-.168 1.358-.09 1.324-.128 1.348.168.844.427.594.436.787.634.354.466.446.655.011.347.434.288.548.515.354.04.342-.307.354-.238.594.05.433.252.177.273.411.357.229.391.125.298.172.273.685.917-.086.263-.291.298-.394.292-.32.1-.29-.065-.509-.273-.662-.104-.24-.015-.342.025-.457.124-.074.332.034.421.172.303.08.372.205.6.131 1.021-.32.789.098.47.308.243 2.637-.213.622-.144.423-.044.685.203.279.431.33.813.23.958.21.728v.377l-.2.218-.69.249-.513-.219-.234.08-.172.129-.057.386.137.238-.102.437.01.451.098.292.348.412.24.5.274.472-.497.55-.12.853.115.461.77.803.394.486.548.332.268.511.171.58-.085.53-.16.437-.422.685-.484.66-.678.715-.823.435-1.356.168-.452.21-.146.309.274.252.517.379 2.583.687 1.017.182.808.295.887.519 1.228.603 1.388.462.936.127.791.49.592.711-.115.77-.51 1.072-.491.407-.162.427-.436.175-.436.323-.742.484-.46.476-1.155.92-.403.392-.412.519-.21.617-.065.364.081.723.04.715.638 1.01.469.588.823.491.985.161h1.017l.694-.371 1.905-1.297.718-.42.283-.225.516-.288 1.43-.49.912-.239.685-.238.63-.14.533.02 1.057.232 2.107.68 2.212.449.84.238.871.316.84.385 2.042.744 1.404.554 1.348.427 1.195.204 1.017.035 1.445-.162.646-.694.702-.63.678-.702.46-.652.565-.631.775-.59.258-.434.3-.168.338-.05.35.061.566.239.613.169.823-.113.307-.337.5.015 1.244.56.726.562.178.645.371 1.416-.533.14-.468-.519-.532-.617-.824.07-.387.253-.114-.407-.63-.603-.186.374.114.784.314.793.44.615.427.574.343.303.514.238.604.71.514.629.72.694.525.436.21.446-.597.187-.388-.561-.63-.59-.92-.616-.322-.491-.258-.238-.081-.379-.923-.994-.497-.594-.302-.506-.235-.496-.068-.466-.428-1.036-.348-.288-.713-.174-.509.085-.433.287-.691.774-.457.634-.69.625-.537.61-.548.535-.222.377-.389.367-.32-.06-.405.243-.548.174-1.25-.158-.838-.249-1.182-.237-1.216-.332-3.852-1.468-.96-.317-1.826-.442-2.489-.555-1.05-.59-.49-.139-.531.065-.948.312-.41.218-.817.179-1.033.292-1.678.848-.6.496-.684.634-.788.446-.948.298-.799.179-.65.089-.548-.045-.583-.228-.702-.421-.496-.57-.349-.501-.456-.73-.366-.822-.102-1.537.17-.64.446-.525.508-.724.622-.481.8-.372.44-.53.872-.918.68-.55.559-.516.377-.59-.092-.55-.16-.491-.336-.372-.583-.322-.719-.174-.867-.109-.514-.104-.57-.258-1.37-.723-.531-.184-.908-.302-.548-.11-1.073-.139-.605-.203-.913-.327-.794-.357-.348-.396-.028-.452.262-.68.189-.262.25-.159.497-.143 1.713-.397.576-.238.697-.615.342-.65.154-.931-.091-.585-.286-.373-.753-1.1-.348-.625-.366-.5-.222-.248-.097-.645.205-.918-.36-.66-.154-.609-.005-.59-.246-.367.234-.728.354-.308.537-.114.748-.243.137-.268-.115-1.423-.108-.535-.183-.327-.308-.174-.554-.06-1.25.13-.662.123-.342.248-.257.67-.485.337-.554.06-.514-.333-.416-.506-.223-.436.012-.491.063-.68.382-1.378-.097-.654-.143-.576-.205-.52-.257-.446.171-.377.2-.11.428-.093.348-.04.594.074.628.04.707.179.366.014.325-.124.24-.218.034-.262-.268-.218-.308-.333-.366-.848-.633-.759-.32.035-.383.114-.97.362-.416-.02-.668-.738-.805-.353-.114-.367-.337-.213-.428-.421-.423-.362-.177-.362-.576-.297-.588-.353-.508-.05h-.536l-.782.16-.902.054-.702.189-1 .099-.73-.07-.879-.203-1.432-.288-1.33.075-.508.382-.508.44-.691.283-.885.209-.799-.035-.616-.164-.737-.46-.376-.418-.291-.58.097-.456.171-.163.262-.67.029-.347-.411-.223-1.09-.07-1.125.184-.314.248-.513.729-.474.57-.69.451-1.896.551-.633.035-.885-.08-.416-.342-.303-.48.171-.928.251-.367.195-.233-.058-.411-.234-.372-.188-.233-.497-.05-.262.198-.257.605-.542.104-1.393-.08-1.073.19-1.45.188-2.654-.045-.742.173-.383.452-.09.615.068.565.471.699.267.476-.082.428-.403-.224-.759-.89-.25-.632-.105-.849-.573-.434-.783-.007-3.261.666-1.364.21-1.332.14-1.01.197-.717-.224-.437.273.372.33.662.21 1.025.168.492.407-.5.176-.848-.05-.411-.049-.025.393-.129.49.186.344.492.127.097.182-.412.287h-.508l-.162-1.01-.532-.708-.476-.301-.646.05-.703.273-.517.259-.556-.147-.162-.484-.46-.323-.524-.098-1.22-.463-.992-.827-2.212-2.952-.654-.604-.436-.322-.476-.14-.484-.014-.372.12.065.251.517.133.33.204-.193.182-.613-.126-.445.14-1.477.898-.88.414-.742.266-.63.337-.25.308-.323.954-.509.645-.734.736-.944.61-.767.239-1.93.456-1.105.378-1.244.162-.064.231.234.119.024.26-.355.063-.936-.043-2.406-.532-.533-.162-.88.134-.798.736-.291.463-.654.498-.67.266-.823-.084-.388-.505-.113-.526-.37-.505-.493-.33-.864-.511-.614-.238-.395-.099-.679.154-.282.155-.161.14zM312.103 363.29l.302 1.327.094 1.032-.018.918-.19.787-.338.31-1.227.394-1.189-.016-.623-.508-.17-.721-.018-.623.434-.656.585-.54.773-.64.717-.41.49-.556zM334.444 355.577h-.246l-.358-.23-.151-.147.189-.836.075-.705.32-.18.227-.082.68.246.037.245-.075.345-.076.245-.113.23-.038.213-.075.262-.151.18zM305.99 356.7l1.51-.032.622-.147.585-.23 4.378-1.295.434.525.49 1.59v.72l-.396.705-.548.508-.735.131-.963.115-.849-.082-.698-.164-1.32-.147-1.491-.18-1.302-.541-.302-.344v-.59l.264-.443zM376.276 424.43l1.924-1.082.717-.262.642-.065.528.557.226.819.302.46.793.622 1.094 1.015.529.722.716.655.19 1.082.112 1.966-.113 1.344-.453.754-.98.655-1.02.164-.83-.098-1.057-.36-.339-.263-.151-.655-.378-.918-.528-1.836-.906-2.064-.528-1.115-.641-.622-.378-.393.076-.492zM340.336 352.167l.414-.016.453.016 3.585 1.328.076.213-.057.311-.264.394-.283.13-.66.427-.453.262-.397.328-.471.475-.245.509-.359.31-.434.181-.604.164-.377.05-.358-.165-.246-.246-.17-.54-.056-.607-.17-.737.377-.885.113-.607-.245-.262.095-.36.226-.115.208-.345zM320.349 351.767l.132-.213.34-.114.622-.164.717-.05.642-.016.377.066.472.18.32.459.152.672-.038.508-.057.508.095.41.245.672-.113.557v.672l-.265.508-.811.311-.943.41-.906.099-.83.573-.83.82-.265.54-1.132.87-.717-.116-.584-.213-.586-.164-.603-.819.51-1.066-.076-.868-1.698.082-.246-.689.736-.72 1.057-1.344.15-.853.888-.754 1.207-.196.698-.148zM346.683 398.831l-.227-1.05-.68-.802.756-1.491.264-.246.378-.131 1.188.23h.49l.793-.427.868-.098.812.098 1.075.279.944.164 1.056.13.547.017.944.115.453.442.018.902-.264 1.344-.566 2.277-.811 2.066-.283.638-.358.279-.566-.065-.416-.41-.49-.197-.585-.033-.66.213-1.114.311-.472.066-.717-.213-.698-.36-.51-.525-.434-.655-.546-.869-.208-.54-.132-.673.15-.393zM319.044 409.813h1.6l.961.14 1.068-.325 1.227-.464 1.334.047.961.51 1.014.51.48.88.48.742.401.672.534.185.293-.255.294-.301.4-.093.454.162.16.394-.107.325-.187.904.187.417.24.231.774.557.667.58.347.486.72 3.592.4 1.854-.853.649-1.36.394-1.656.603-1.76.277-1.362.094-.96-.117-.828-.556-.613-.625-.48-.788-.48-.626-.854-.788-.908-.44-1.868-.834-.827-.765-.32-.904.046-.903-.152-.885-.264-.77-.358-.705-.396-.737-.133-.623-.094-.705.264-.639.49-.656.453-.36zM353.163 410.302l.935-.047.626-.057.548-.232.16-.406.347-.174.493.232.227.29.32.08.214.244.414.556.36.51.093.394.333.811.534 1.078.307.765.494.765.32.764.253.406.2.487-.093.359-.454.348h-.4l-.493.139-.2.313-.24.556-.32.984-.134.904-.64.36-.321-.44-.067-.615-.667-.463-.453.011-.334.22.174-.277.453-.267.267-.267.293-.15.414-.383-.2-.625-.76-.36-.561-.07-.6-.15-1.094-.973-.72-.765-.574-.475-1.055-.15-.787-.058-.467.069-.96-.336-.614-.568-.187-.556.2-.626.214-.44.574-.22.653-.348.427-.452.614-.243.694-.209.84-.093zM519.405 402.755l2.183 2.812.104.362-.062.281-.23.472-.125.354-.157.399-1.002.535-.763.136-.825.054-.804-.045-.543-.317-.689-.653-.408-.653-.26-.853-.021-.835.157-.661.448-.354.993-.272.783-.281.908-.49zM594.007 379.637l.752-1.088.397.054.25.127.898-.236 1.233-.598.752-.998.564-.345 1.4-.399.876-.145 1.211-.09 1.233-.799.982-.798.563-.671.794-.69.647-1.324.272-1.524.919-.67.898-.146.71.145.439.617.835 1.651.188 1.487.084 2.214-.418 1.668-1.023.635-.731 1.016-.836-.327-2.297.073-1.107.817-1.295 1.542-1.233 1.27-1.65.87-1.273.182-2.924.707-1.797-.363-.167-.961.44-1.034-.043-.799-.856-.653zM574.332 370.168l.458-.026.237-.192.501.09.37-.09.458-.193.354-.23.118-.321.015-.334-.06-.243.163-.078 1.285.629.177.193.045.282.014.179.09.257.339.474.31.18.073.23.222.296.325.141.222.013-.133.628.088.257.266-.077.044.154.296-.026.074.372.354-.18.207.244.517.09.34.372.34.475.28 1.27.133.551.502.333.768.424.783.218-.015.346-.71.334-3.248 1.167-.384.629.03.718.487.757.546 1.077.28 1.54.015 1.205-.103.821-1.034.654-1.167.385-.723-.012-.664.243-1.138-.128-.266.09-.664-.129-.738-.846-.444-.193-.295-.051-.31-.27-.236-.14-.193-.385-.28.154-.37-.167-.782-.95-.738-1.05-.428-1.04-.325-2.45.147-1.693-.06-1.36.12-1.103.265-1.065.414-.91.531-.847 1.492-1.36zM648.045 374.703l1.608-1.106 1.336-1.034 2.736-1.923 1.525-.962 1.483-1.034.961-.49.407-.185.436-.167.317-.096.532-.026.177.058.303.199.14.25v.295l.14.725-.029.512-.052.52.015.802.184.738.606 1.301.879 1.508.738 1.289.702 1.09.502 1.052.273.789.288.789.236.981.37.853.694.77.31.52-.066.763-.414 1.064-.259.392-.848.834-.754.506-.9.148-.65-.16-1.256-.783-.443-.565-.458-.891-.288-.7-.184-.615-.28-.41-.525-.482-.54-.23-.05-.75-.164-.533-.39-.231-1.249-.058-.517.058-.413-.218-.414-.513-.295-.578-.251.045-.052.193-.007.41-.022.379-.193.256-.066.276.06.224-.156-.115-.081-.288.221-.52-.03-.25-.17-.186-.213-.147-.251-.398-.421-.231-.635-.308-.76-.41-.488-.411-.288-.18-.333-.05-.56.025-.274.038-.406-.134-.694-.552-.332-.372-.362-.43-.008-.41.096-.257z" clip-path="url(#p8fc3cf15c3)" style="fill:#00f;fill-opacity:.8"/></g><path id="PatchCollection_2" d="m557.436 272.775.128-.42.76-.702.096-.8.226-.658-.064-.702-.162-.49.097-.52-.13-.729-.21-.393-.774-.56-.387.098-1.163.785-.387.21-.5.113-.453-.098-.29-.127-.243-.379-.468-.196-.549.154-.339.113-.37.042-.308-.098-.839.028-.759-.169-.565.112-.823.407-.662.056-.904.491-.71.463-.711.252-.387.45-.437 2.552-.225.196-.355-.084-1.97-.645-1.953-.771-1.76.154-.662.126-.468.35-.436.45v.644l.064 1.347v1.515l.565.476.34.197.451-.056.727-.183.468.014.226.309.55.785.047.631-.387.702-.355.364-.533.084-.55.351-1.064.519-.743.379-.775.463-.936.644-1.066.421-1.178.323-1.228.07-.904.364-1.049.898-1.21.589-1.115.463-1.033.533-.597.73-.323 1.654.016 1.318-.177 1.403-.291.911-.92.253-.936.49-.646.351-.42.393-.565.968-.565 1.304-1.243.66-.953.882-.306.463-.097.702-.033.673-.742.603-.484.084-.792-.252-.646-.617-.758-.646-.791-.126-.824.196-.92.646-.775.63-.952.632-.565.505-.194.645-.29.575-.646.35-1.163.365-.436.098-.694.449-1.05.364h-1.048l-.565-.252-.904-.267-.582-.252-.242-.126-.63.014-.387-.336-.888-.07-.597.294-3.149.967-1.42.379-.452.519-.388 1.43-.242 1.249-.662.967-.08.772.694.673.92.855.452.73-.581.673-1.663.406-1.792.112-3.132-.014-.258-.056.064-1.065-.694.406-.484.87-.404 1.093-.71 1.417.193 1.318-.565.687-.129 1.347.614.547.452.07.516.238-.226.294.566.239.613.169.823-.113.307-.337.5.015 1.244.56.726.562.178.645.371 1.416-.533.14-.468-.519-.532-.617-.824.07-.387.253-.114-.407-.63-.603-.186.374.114.784.314.793.44.615.427.574.343.303.514.238.604.71.514.629.72.694.525.436.21.446.246.377.251.71.451.817.622.71.548.584.525.308.531.228.52-.13.274-.425.45-1.017.314-.318.337-.361.388-.327.348-.244.514-.133.611-.06.325.055 1.147.064.651.105.697.218.336.247.765.53.64.542.582.38.433.254.508.169.411.089.349-.134.234-.184.508-.238.154-.336.04-.348.354-.01.154.095.456-.055.668-.104.383-.193.25-.239.298-.381.508-.318.37-.267.44-.402.257-.005.205-.228.149-.367.205-.064.297-.169.382-.386.212-.263.194-.555.148-.482.034-.138.229-.432.25-.342.4-.109.469-.1.354-.143.444-.243.229-.248.2-.327.034-.297-.092-.174-.336-.129-.234-.104-.228-.198-.16-.258-.034-.253-.063-.833.085-.689-.314-.506-.32-.64-.16-.455.012-.477.143-.45.166-.318.257-.173.667-.402.365-.238.206-.332.114-.456.017-.194-.091-.268.023-.228.205-.114.183-.198.297-.243.325-.134.415-.154.59-.063 1.234-.204.807-.224 1.938-.42.339-.246.266-.386.493-.575.298-.554.024-.442.525-.897.412-.533.54-.449.509-.372-.21-.441-.42-.316-.233-.428.112-.413.057-.386.234-.582.242-.407.396-.273.484-.12.621-.083.485.063h.581l.411-.113.291-.105.347-.196.646.091.476.358.452.196.638-.035.315-.161.355-.231.436-.162 1.51-.715.54-.19.55-.111.677-.253.517-.098.5-.372.808-.729.371-.54.678-.61.742-.638.218-.442.202-.449.541-.771.064-.344-.242-.406-.416-.454-.142-.48.048-.155.076-.153.38-.268.38-.313.465-.325.237-.55.342-.61-.057-.62-.14-1.103.12-.523.16-.503.182-.38.286-.463.234-.183.143-.09.134-.19.299.02.387.042.396.28.282.324.267.322.146.1.245.01.343-.104.4-.154.279-.144.542-.213.263-.263.205-.278.257-.119.702-.247.24-.17.222-.381-.04-.293v-.401l.155-.298.256-.262.305-.14.383-.13.616-.51.64-.827.388-.243.194-.347.303-.15.702-.143.228-.109.2-.233.273-.441.448-.595.203-.258.343-.14.462-.138.542-.312.166-.303.131-.396.04-.417-.034-.372-.086-.223-.205-.188-.56-.323-.354-.297-.365-.278-.354-.357-.33-.407-.144-.381.006-.501.188-.317.235-.313.057-.337-.263-.327-.183-.476.154-.769.372-.466.776-.753.896-.254.834.025.621-.193.291-.427.28-.332.217-.525z" clip-path="url(#p8fc3cf15c3)" style="fill:#006400;fill-opacity:.8"/><path id="PatchCollection_3" d="m383.65 370.113.792 5.083-3.653.386-1.194-5.213z" clip-path="url(#p8fc3cf15c3)" style="fill:green;fill-opacity:.8"/><g id="PatchCollection_4"><path d="m597.413 561.484-.18-.044.33-1.028.18.044zM438.733 395.896l5.22 3.133 2.482-3.133-5.348-3.111z" clip-path="url(#p8fc3cf15c3)" style="fill:#90ee90;fill-opacity:.8"/></g><path id="PatchCollection_5" d="m387.01 354.774-.456.779-7.099-2.387.03-1.149z" clip-path="url(#p8fc3cf15c3)" style="fill:#d3d3d3;fill-opacity:.8"/><g id="PatchCollection_6"><path d="m390.559 376.66.477-.02.033.593-.478.02zM386.33 372.57l1.684-.14.059.534-1.685.14zM379.21 368.256l.783-.046.032.42-.783.045zM393.273 373.477l.447-.023.045.678-.447.023zM390.529 375.804l1.202-.065.04.561-1.202.065zM390.073 370.384l-.045-.6.815-.047.045.6zM382.7 368.27l.342-.018.065.95-.343.018zM388.652 377.165l.051.455-.41.035-.05-.455zM390.634 377.932l-.022-.435.724-.028.022.435zM384.745 375.133l-.103-.623 1.555-.196.104.623zM386.658 368.819l-.032-.67 1.008-.038.033.67zM387.199 369.784l.75-.054.063.68-.749.055zM379.347 369.534l-.037-.307.611-.056.037.307zM391.522 370.371l-.033-.542.794-.037.034.542zM390.29 374.525l-.033-.44.987-.056.033.44zM380.588 368.827l.636-.044.054.578-.636.044zM387.547 376.4l1.03-.064.044.525-1.03.065zM385.495 355.088l.501.177.252-.46-.525-.17zM369.927 347.462l1.507.361.192-.604-1.507-.362zM330.435 352.18l.683.052-.08.788-.683-.052zM335.919 356.317l.276-.6.6.21-.276.599zM521.943 398.329l.264.12-.198.327-.265-.12zM426.822 373.562l.25.004-.007.328-.251-.005zM426.549 377.561l.462.15-.335.776-.462-.15zM428.693 373.495l.336-.003.008.69-.337.002zM423.984 377.595l.025-.285.45.03-.024.284zM517.902 397.803l.022-.498.814.027-.022.498zM429.095 373.446l.656.015-.03.988-.655-.015zM428.343 373.828l.298-.005.03 1.234-.299.006zM423.888 379.163l.015-.274.476.02-.015.274zM518.1 398.347l.015-.387.657.018-.014.387zM425.275 376.894l.495.122-.245.757-.496-.121zM423.349 379.134l.005-.217.34.006-.005.218zM520.095 399.453l.037-.427.543.036-.037.428zM404.783 380.197l1.029-.102-.09-.84-.94.125zM403.132 377.75l-.022-.23-.659.044.02.232zM404.999 377.121l.03.383-.47.076-.03-.382zM403.102 376.953l.039.305-.603.058-.039-.305zM403.177 378.28l-.022-.281-.53.031.023.282zM405.047 378.037v-.408l-.529.102v.255zM408.997 370.528l.183-.14.095.094.445-.341.256.252.105-.08.194.192-.589.45-.448-.442-.145.11zM412.407 380.56l-.926.011.006.352-.52.006-.005-.342-.251.003-.003-.237-.418.005-.01-.705 2.113-.024zM409.643 369.938l-.68.541-.226-.213-.12.096-.194-.184.39-.311.056.052.35-.277-.071-.067.061-.049zM449.402 398.512l.584.29-.349.53-.1-.054-.087.092-.129.003-.172-.01-.118-.143-.015-.185.011-.169.147-.172.155-.074zM511.745 536.103l-.148-.046-.191.455-.33-.105.18-.43-.14-.045.173-.41-.193-.061.111-.266.198.063.163-.39.614.195zM374.215 367.982l-.159-1.717.331-.023-.032-.346.847-.059.033.349.312-.022.158 1.717-.255.017.028.305-.855.06-.028-.307zM430.894 373.66l.344.003-.007.437h-.075l-.003.18-.275-.004.001-.064-.12-.001.002-.149h-.076l.003-.19.203.003zM448.572 394.825l.514-.606.596.38-.236.278.117.075-.093.11.051.033.104-.124.254.162-.111.132.086.054.098-.116.052.034-.277.326zM402.573 375.858l-.043-1.049.21-.006.006.163.214-.007.007.17.086-.002.007.165-.061.002.006.131.052-.002.007.158.067-.003.004.117-.212.007.006.145zM281.538 341.495l.02-.088-.02-.088-.057-.076-.086-.05-.102-.019-.102.018-.087.05-.058.075-.02.089.019.088.058.076.086.05.102.018.102-.017.087-.05zM448.017 399.153l.064-.032.045-.051.02-.062-.01-.064-.036-.056-.06-.039-.07-.017-.074.008-.064.033-.046.05-.02.063.01.064.037.055.059.04.071.016zM281.553 342.233l.06-.09.015-.103-.031-.101-.074-.082-.104-.052-.119-.014-.115.027-.095.064-.06.09-.015.104.031.1.074.083.103.051.119.014.116-.027zM317.052 555.91l.106.019.107-.018.09-.053.06-.078.022-.093-.022-.092-.06-.079-.09-.052-.107-.019-.106.019-.09.052-.06.079-.022.092.021.093.06.078zM281.263 342.641l.02-.054-.004-.058-.03-.05-.049-.038-.062-.019-.067.004-.059.026-.043.043-.022.054.005.058.03.05.05.038.062.02.066-.005.06-.026zM377.793 369.195l-.142-1.22-.435.039-.018-.155 1.16-.102-.018-.156-1.167.103-.047-.4-.41.036-.054-.465-.583.052.325 2.784.558-.05-.201-1.72.344-.03.014.121-.102.01.141 1.208zM387.499 366.854l.048.646-1.086.061-.025-.32-1.956.11.026.344-.635.036-.005-.066-.233.013-.065-.872.239-.014-.006-.08.631-.036.026.356.77-.043-.017-.231 1.11-.063.014.177.272-.015.003.047zM457.409 400.473l.404-.534.463.265-.404.533zM376.16 362.972l-.016-.306.508-.02.015.307zM417.087 374.008l-.324-.324.438-.33.323.325zM462.88 402.756l-.235-.194.272-.249.236.194zM278.786 344.228l.445-.024.01.149-.444.024zM340.191 532.3l-.114-.18.345-.166.115.18zM439.547 377.007l-.477-.064.044-.251.478.063zM559.731 541.909l.06-.491.438.04-.058.49zM480.443 353.682l-.038-.18.412-.065.037.181zM400.605 367.606l-.043-.432.426-.031.043.431zM457.484 408.872l-.348-.271.401-.389.348.27zM445.334 392.779l-.661-.308.485-.785.661.308zM366.394 358.925l-.011-.289.434-.013.01.29zM626.157 565.69l-1.043-.415.281-.534 1.044.415zM432.661 381.635l-.275-.177.191-.224.275.178zM415.944 376.756l.316.256-.292.272-.315-.256zM460.417 563.088h.456v.6h-.456zM428.76 377.37l.015-.35.308.01-.015.35zM432.712 372.462l-.433-.07.07-.328.434.07zM399.708 364.47l-.252-.237.404-.325.252.236zM505.403 535.155l.5.198-.123.233-.5-.198zM442.007 386.582h-.415v-.44h.415zM371.663 353.921l-.05-.44.896-.077.05.44zM405.98 361.887l-.081-.16.214-.082.082.16zM515.604 401.119l-.026-.184 1.146-.122.026.185zM429.825 387.696l-.17-.281.364-.165.169.28zM350.824 530.602l-.367-.198.15-.21.368.197zM458.193 397.462l-.698-.083.096-.61.698.082zM235.817 584.445l-.323.128-.132-.251.323-.127zM440.152 372.523l.015-.407.478.012-.015.408zM379.56 364.873l-.018-.255.47-.025.019.254zM457.22 402.606l-.169-.109.124-.144.168.108zM505.322 534.434l-.75-.223.155-.39.75.223zM390.71 345.787l.08-.622.999.096-.08.621zM380.34 355.842l-.12-.75.624-.075.121.75zM504.611 527.815l-.228-.197.147-.127.228.197zM414.232 369.425l-.112-.181.367-.173.112.181zM384.634 356.984l.309-.032.036.262-.308.031zM308.069 352.599l-.006-.37.536-.007.006.37zM435.553 375.657v-.275h.445v.275zM367.915 353.57l-.426.007-.006-.275.427-.006zM568.248 550.012l-.646.026-.022-.408.647-.025zM520.152 479.673l-.148-.39.757-.217.148.39zM390.618 358.204l-.01-.167.271-.013.01.167zM433.565 352.265l.433-.07.058.268-.434.07z" clip-path="url(#p8fc3cf15c3)" style="fill:#a9a9a9;fill-opacity:.8"/><path d="m385.558 354.994-.512-.15.19-.492.513.15zM529.235 519.655l.066-.613.43.035-.066.613zM447.713 373.977l-.03-.402.275-.016.03.402zM385.435 362.045l-.058-.358.256-.031.058.357zM537.059 546.305l-.243-.007.014-.383.243.007zM383.95 396.901l-.118-.524.258-.043.118.523zM507.83 499.672l-.214-.479.25-.084.213.48zM389.656 366.898l-.11-.753.576-.064.11.753zM480.898 357.33l-.002-.15.28-.004.002.15zM500.854 527.97l.323-.618.698.274-.323.619zM585.926 548.106l-.301-.185.119-.146.301.185zM460.21 380.017l-.265-.333.422-.254.265.332zM381.456 366.813l.397-.057.039.204-.397.057zM521.708 539.088l.089-.261.225.057-.088.262zM439.598 389.01l.279.21-.18.18-.279-.211zM506.462 516.375l-.132-.311.478-.154.132.312zM374.662 346.963l-.41-.068.111-.504.409.068zM480.27 372.063l-.196.008-.015-.307.196-.007zM444.127 384.61l.333.01-.01.302-.334-.01zM382.82 362.23l-.06-.306.299-.043.058.306zM429.178 383.202l-.304-.165.294-.409.304.165zM492.96 448.686l.191-.938.658.1-.191.939zM383.935 349.784l-.37-.022.028-.376.372.02zM465.228 375.459l-.223-.26.426-.275.223.26zM401.84 364.993l-.229-.294.222-.13.227.294zM441.412 382.998h.423v.23h-.423zM388.152 345.947l-.331-.03.058-.485.332.03zM378.624 358.567l-.033-.273.291-.026.033.272zM500.204 474.326l.002-.543.445.001-.003.543zM330.025 353.243l-.771-.087.103-.689.77.087zM443.782 369.409l-.036-.243.173-.02.037.243zM391.357 373.475l.066.466-.29.03-.065-.465zM441.394 376.396v-.326l1.169.004-.001.325zM371.868 360.661l-.05-.489.735-.057.05.489zM344.968 530.532l-.033-.28.515-.044.032.28zM452.327 401.444l-.534-.221.396-.721.534.221zM475.542 356.988v-.434h.506v.434zM376.6 360.91l-.037-.513.809-.045.037.514zM599.072 551.283l-.16-.098.125-.154.16.1zM430.064 379.88l-.136-.092.154-.173.136.093zM467.686 409.604l-.284-.254.522-.44.284.253zM277.034 342.109l.004-.173.331.007-.005.172zM338.574 533.2l-.117-.181.287-.141.118.181zM437.086 380.906l.271-.607.492.166-.271.607zM443.676 609.333l-.311-.05.073-.345.312.05zM424.74 372.143l-.008-.18.42-.012.007.18zM396.512 367.587l.793-.083.078.563-.794.083zM456.905 409.275l-.507-.478.43-.344.507.478zM442.484 378.71l.005-.2.367.006-.004.2zM370.487 363.068l-.039-.273.478-.051.039.272zM636.364 569.94v-.588h.404v.587zM464.668 377.836l-.232-.24.412-.3.232.24zM480.986 429.145l-.187-.463 1.043-.319.188.463zM418.17 378.837l-.404-.377.247-.199.403.376zM456.287 391.826l.007-.293.654.013-.008.293zM435.718 372.329l-.403-.04.073-.556.404.04zM396.122 361.33l.537.127-.129.406-.536-.128zM374.559 531.432v-.223h.316v.223zM466.397 377.635l-.188-.23.324-.198.187.23zM371.405 350.711l-.086-.54.845-.101.087.539zM411.6 365.895l-.237-.323.632-.352.238.324zM511.38 537.857l-.775-.124.05-.232.775.124zM401.292 527.245l-.434.038-.025-.211.434-.038zM431.838 374.16l-.01-.264.418-.013.01.265zM367.974 351.247h-.654v-.313h.654zM428.337 359.79l.286-.026.023.193-.287.025zM381.466 368.514l-.088-.791.364-.03.088.79zM391.408 351.729l.03-.175.397.051-.03.175zM378.511 352.555l.118-.657.443.06-.118.657zM516.162 533.054l.037-.542.516.026-.037.542zM420.485 371.422l-.047-.466.5-.039.047.467zM385.7 359.556l-.044-.453.59-.043.045.453zM388.572 378.641l-.338.013-.013-.259.338-.012zM436.968 375.947l.025-.261.265.019-.025.261zM369.458 356.89l-.08-.413.646-.095.081.411zM501.12 495.974l.27-.066.128.398-.268.066zM438.774 349.252l-.08-.631.68-.066.082.632zM403.687 369.033l-.04-.46.947-.065.041.46zM540.477 533.17l.015-.441.379.01-.014.44zM454.823 375.667l-.232-.3.584-.341.233.3zM384.837 366.226l-.06-.447.283-.028.058.447zM522.281 539.12l.06-.16.16.046-.058.16zM397.43 375.833l-.326.037-.08-.529.325-.038zM367.218 532.912l-.132-.376.37-.098.132.376zM438.54 375.436l-.212-.025.037-.23.212.026zM505.14 508.675l-.147-.39.27-.076.147.39zM345.937 342.922l-.048-.287.515-.066.049.288zM477.345 361.252l.01-.292.286.006-.01.292zM393.473 377.901l-.081-.957.592-.038.08.957zM461.501 374.176l-.248-.303.405-.249.247.303zM520.687 537.863l.489.126-.034.097-.488-.126zM409.095 374.363l-.042-.26.329-.04.043.259zM434.49 385.678l.464.274-.311.396-.463-.274zM550.133 451.621l-.088-.204.19-.062.088.204zM377.057 347.486l-.426-.115.086-.24.426.114zM453.843 401.508l-.612-.443.373-.39.612.444zM454.987 403.32l-.17-.119.22-.236.17.12zM467.102 372.708l-.037-.35.273-.022.037.35zM389.306 380.403l-.822.045-.035-.482.823-.045zM441.658 385.197v-.294h.397v.294zM373.907 344.85l-.867-.214.149-.455.867.214zM378.55 363.277l1.036-.09.049.424-1.037.089zM424.526 379.04l.331.077-.069.226-.33-.077zM497.976 456.477l-.02-.195.338-.025.02.195zM390.653 332.941l.537.08-.058.29-.536-.079zM434.891 356.567l-.025-.193.323-.031.026.192zM319.278 555.748l-.194.09-.06-.099.195-.09zM441.305 379.938v-.332h.324v.332zM496.454 474.83l-.037-.626.713-.032.037.626zM335.926 356.351l-.375-.07.044-.176.375.07zM350.258 541.602l.507-.235.158.254-.507.237zM441.622 372.772l-.007-.613.55-.005.008.613zM390.13 370.96l.933-.064.034.37-.934.064zM457.28 400.453l-.522-.207.28-.53.521.208zM376.469 363.195l.36-.025.018.199-.36.025zM422.003 378.571l-.36-.319.305-.26.36.319zM644.827 600.012l.172-.235.371.204-.172.236zM462.997 393.576l.162-.349.39.137-.161.348zM278.786 344.228l-.029-.415.445-.024.029.415zM440.172 377.37l.008-.196.397.013-.009.196zM480.333 353.184l.558-.102.071.293-.559.102zM454.54 390.689l-.004-.098.129-.003.003.098zM367.276 358.868l-.015-.498.542-.012.015.498zM627.069 561.409l-.33-.013.023-.434.329.013zM431.64 381.686l.272.137-.086.129-.273-.138zM432 378.666l-.312-.217.264-.287.313.217zM317.813 553.63l-.213-.287.351-.198.213.287zM430.148 372.456l-.02-.487.419-.012.02.486zM398.136 364.24l-.024-.367.514-.026.024.367zM505.307 535.767l-.178-.075.154-.274.178.075zM442.092 386.18l.407-.013.013.307-.408.013zM372.074 355.683l-.632.012-.007-.267.632-.013zM407.266 361.919l-.1-.125.214-.127.099.124zM430.302 386.98l-.235-.165.202-.215.235.166zM352.059 531.24l-.221-.108.106-.163.221.109zM457.914 397.915l.056-.339.617.077-.056.339zM197.062 594.456l.257-.485.431.172-.257.485zM440.197 371.438l.543.013-.018.595-.544-.012zM400.421 362.216l-.327-.284.448-.39.327.285zM469.759 376.863l-.159-.196.272-.165.159.195zM378.173 356.021l-.036-.664.598-.025.037.664zM505.507 519.29l-.014-.548.555-.011.014.549zM412.946 370.26l-.175-.232.551-.312.175.232zM382.019 358.011l-.103-.42.18-.034.102.421zM510.62 536.9l.05-.224.882.15-.05.224zM382.624 516.972l-.067-.555.407-.037.066.555zM353.286 543.02l-.156-.127.213-.198.156.126zM434.749 374.4l.004-.734.489.001-.004.734zM369.12 353.736l.493-.02.01.203-.493.019zM500.202 481.212l-.083-.314.286-.057.083.313zM388.942 358.772l.634-.027.018.319-.634.027zM433.653 351.154l-.056-.428 1.624-.16.056.429zM383.7 354.33l-.507-.172.25-.556.506.172zM525.906 520.644l-.485-.064.055-.314.485.064zM449.76 373.575l.003-.345.335.003-.004.344zM385.825 361.758l-.043-.317.691-.07.042.316zM384.611 395.567l-.169-.632.4-.08.17.632zM438.898 374.464l.013-.639.27.004-.014.64zM376.196 354.604l-.04-.415.522-.039.04.416zM507.91 500.508l-.135-.215.374-.178.136.214zM392.103 368.487l-.038-.526.365-.02.037.526zM433.565 547.147l-.041-.255.47-.057.04.255zM480.303 354.336v-.217h.47v.217zM410.506 371.244l-.345-.32.317-.258.346.32zM583.942 547.027l-.522-.233.353-.594.522.234zM460.849 379.04l-.177-.185.195-.14.177.184zM385.3 365.052l-.194.033-.044-.191.193-.034zM400.865 375.795l-.007-.568.433-.004.007.567zM364.698 532.478l-.09-.325.463-.096.09.325zM438.79 386.125l-.684-.485.4-.425.683.485zM506.014 513.076l-.053-.146.161-.045.054.146zM375.066 347.071l.102-.434.28.05-.102.434zM572.444 576.7l-.074-.517.726-.078.074.518z" clip-path="url(#p8fc3cf15c3)" style="fill:#a9a9a9;fill-opacity:.8"/><path d="m480.27 372.063-.015-.306.3-.01.015.306zM387.242 376.567l-.059-.452.72-.07.059.452zM462.96 375.587l-.224-.237.232-.166.225.236zM382.15 363.347l-.088-.612.427-.047.088.613zM427.525 381.255l-.229-.125.309-.427.228.124zM496.645 453.325l.005-.312.58.007-.004.311zM382.414 348.852l-.329-.066.184-.695.329.065zM467.139 374.527l.352-.118.14.312-.353.119zM405.19 367.016l-.243-.255.285-.204.242.255zM441.162 383.598v-.344h.91v.344zM382.685 346.47l-.875-.191.186-.64.875.192zM378.344 359.907l-.072-.422.344-.043.072.42zM429.145 374.28l.036-.706.4.015-.037.706zM504.302 468.736l.596-.121.093.346-.595.121zM325.969 363.251l-.121-.594.705-.108.121.594zM443.158 369.07l-.016-.555.618-.013.015.556zM394.31 373.36v-.37h.42v.37zM457.162 408.28l-.178-.146.246-.227.178.146zM441.375 377.091h.647v.39h-.647zM372.103 362.117l-.035-.382.536-.038.036.381zM349.542 356.045l-.97-.07.045-.465.97.07zM450.475 402.644l.147-.331.195.065-.147.331zM474.652 359.248l-.245.013-.022-.293.245-.014zM399.017 369.323l.61-.057.063.5-.61.057zM432.91 546.873l-.124-.709.615-.081.125.708zM455.66 397.754l.31.28-.323.272-.312-.28zM375.3 362.25l-.09-.38.36-.064.09.38zM599.77 551.864l.147-.3.24.089-.146.3zM418.167 373.839l-.257-.115.132-.223.257.114zM644.265 599.604l.368-.37.23.172-.368.37zM466.033 408.097l-.185-.168.434-.358.184.17zM332.535 345.887l-.096-.721.472-.047.096.721zM339.332 532.485l-.183-.288.36-.173.183.288zM459.506 560.268l.514.025-.02.293-.514-.025zM436.564 381.417l-.414-.184.323-.55.414.185zM426.13 370.214l.011-.19.426.019-.011.19zM397.577 367.038l-.044-.42.301-.025.045.421zM382.296 556.826l-.39-.115.08-.2.389.116zM370.642 365.659l-.051-.428.712-.064.05.428zM629.163 567.291l-.588-.274.282-.456.588.275zM402.034 360.511l-.227-.18.338-.32.227.181zM491.62 435.4l-.2-.429.237-.082.198.428zM417.105 377.58l-.218-.197.382-.32.218.197zM350.704 532.296l.686-.054.016.154-.686.053zM427.202 374.02l.015-.358.466.015-.015.357zM433.396 372.507l-.022-.453.365-.014.022.454zM398.216 360.32l-.395-.291.42-.428.394.292zM468.55 375.198l.198-.07.14.296-.2.07zM374.25 352.683l-.075-.27.367-.077.075.27zM407.949 363.182l-.162-.28.203-.089.162.282zM522.584 401.272l-.04.405-.94-.07.04-.405zM398.345 527.895l-.026-.167.713-.083.026.168zM432.448 374.391l.059-.855.526.027-.059.855zM231.011 587.654l-.146-.223.816-.402.146.224zM434.502 359.35l.492-.032.037.433-.492.032zM379.266 367.764l-.05-.475.793-.064.051.475zM390.549 349.923l.044-.341.267.025-.044.342zM380.128 353.079l-.438-.184.309-.555.438.184zM502.846 528.596l-.765-.236.178-.433.764.236zM514.127 530.917l.022-.252.477.033-.021.25zM424.401 369.992l.014-.214.412.02-.014.213zM385.141 357.552l.64-.058.045.377-.64.057zM388.785 379.58l.426-.026.024.296-.427.026zM353.154 542.202l-.324-.465.39-.205.324.466zM437.291 376.468l-.168-.003.004-.217.168.003zM367.144 357.138l-.045-.472.374-.027.044.473zM564.243 543.044l-.03-.223.242-.024.029.223zM506.771 486.948l.01-.26.484.013-.009.26zM391.214 361.83l-.015-.205.573-.031.015.205zM439.686 347.771l-.977.115-.114-.726.978-.114zM402.28 372.89l-.044-.363.44-.04.044.364zM540.272 533.086l-.562-.065.095-.625.562.065zM453.63 373.854l-.164-.248.317-.156.162.248zM383.947 366.436l-.017-.322.624-.026.018.323zM397.809 375.616l-.045-.396.374-.032.045.396zM367.96 532.28l-.059-.484.341-.032.059.485zM438.974 375.596v-.325h.346v.325zM389.979 364.217l-.69.032-.026-.42.69-.031zM478.102 358.003l.434-.006.006.31-.434.007zM390.504 378.942l-.04-.273.415-.047.041.272zM460.164 374.872l-.037-.247.64-.07.036.246zM376.12 369.693l-.015-.303.18-.008.015.304zM521.958 538.725l-.358-.096.147-.415.358.096zM406.413 374.956l-.188.014-.03-.306.19-.014zM437.438 388.09l.213-.542.705.209-.213.542zM489.62 432.598l-.103-.217.25-.09.103.217zM377.388 347.652l.1-.369.434.09-.1.368zM462.574 372.99l-.271-.357.264-.151.272.357zM385.926 381.947l-.025-.311.712-.045.026.312zM374.892 342.973l-.048-.281.207-.027.047.281zM378.646 362.722l-.028-.3.654-.045.028.3zM423.593 378.115v-.415h.338v.415zM139.202 572.132l-.029-.447.354-.017.03.446zM497.814 462.801l-.06-.491.341-.03.059.49zM438.36 358.003l-.052-.44.178-.016.051.44zM385.912 374.196l-1.565.159-.235-1.75 1.565-.157zM441.346 379.52v-.454h.532v.454zM387.182 347.185l.779.14-.11.463-.78-.141zM379.55 357.233l.367-.045.051.32-.367.045zM335.058 357.239l-.357-.055.117-.58.358.054zM352.559 542.31l-.206-.306.39-.197.206.306zM442.232 372.772l.013-.25.323.013-.013.25zM390.482 372.862l-.044-.38.793-.07.045.38zM441.445 375.435l.003-.332.4.004-.002.331zM376.792 363.757l-.713.058-.035-.333.712-.057zM419.53 375.865l-.217-.21.232-.18.217.21zM644.93 600.223l-.161.127-.158-.15.161-.127zM463.174 394.172l-.39-.137.213-.46.39.137zM281.008 344.17l-.031-.937.919-.023.031.936zM440.003 376.439l-.015-.42.485-.013.015.42zM452.407 402.421l-.537-.2.242-.491.538.2zM475.828 353.765l-.015-.364.295-.009.014.364zM394.388 364.338l-.08-.714.465-.04.081.715zM376.204 357.432l.764-.077.06.448-.765.076zM625.577 562.18l-.463-.05.034-.236.463.05zM433.164 381.003l-.193-.154.258-.243.193.155zM471.654 412.055l-.396-.368.352-.287.397.367zM415.114 375.901l-.371-.312.448-.402.37.312zM460.417 563.688h-.367v-.6h.367zM429.65 376.796l.021-.28.205.011-.022.281zM430.92 371.416l.029-.262.206.017-.03.262zM397.158 365.49l.309-.006.007.249-.31.006zM382.833 556.124l-.344-.174.309-.46.343.175zM443.242 383.17v-.488h.437v.488zM372.243 355.39l-.028-.255.374-.032.029.254zM407.81 361.497l-.096-.172.147-.061.095.172zM517.132 401.03l-.056-.272.61-.095.056.271zM427.033 389.463l-.258-.383.177-.09.257.384zM458.351 393.783l.019-.348.324.013-.02.348zM199.135 593.62l-.544-.217.262-.496.544.217zM436.379 372.411l-.007-.325.218-.004.007.326zM400.73 362.593l-.273-.245.227-.191.273.244zM468.278 379.83l-.26-.31.375-.236.26.31zM382.215 354.675l-.176-.005.008-.198.175.005zM504.956 520.746l.007-.307.396.007-.006.306zM410.631 367.363l-.182-.268.61-.312.182.267zM382.202 357.558l-.073-.65.394-.035.074.651zM335.411 530.933l-.041-.11.132-.038.041.11zM353.837 543.051l-.204-.256.382-.23.204.256zM435.348 373.707h.353v.791h-.353zM367.518 352.836l-.021-.363.196-.01.022.364zM502.156 483.215l-.05-.421.259-.024.051.421zM388.795 357.63l.024-.35.72.039-.024.349zM390.284 353.057l.034-.387.485.032-.034.386zM384.64 354.668l-.49-.162.242-.555.49.162zM502.515 530.918l.007-.255.333.007-.007.255zM527.471 518.832l-.27-.031.067-.428.27.031zM449.12 373.639l.46-.007.002.15-.459.006zM385.935 360.61l.582-.049.066.607-.582.047zM381.327 377.212l-.107-.49.625-.102.106.49zM437.108 374.199l.033-.352.36.026-.033.35zM376.108 354.962l.757-.064.056.503-.756.063zM563.193 542.368l-.515-.096.08-.322.514.096zM502.832 497.368l-.734.147-.068-.258.734-.146zM433.888 547.995l-.049-.287.647-.084.049.289zM480.861 356.366l-.001-.148.26-.003.002.148zM408.743 369.534l-.372-.37.262-.198.371.37zM584.868 547.206l-.537-.223.308-.558.537.223zM461.708 380.224l-.095-.125.29-.166.096.125zM385.3 364.72l-.06-.396.206-.023.058.396zM365.638 532.772l-.285.096-.191-.428.285-.095zM439.972 387.56l-.44-.19.144-.25.44.19zM346.224 339.871l.904-.159.187.8-.904.16zM417.627 605.288h-.412v-.23h.412zM490.947 345.8l-.116-.109.103-.083.116.108zM388.241 383.862l-.485.039-.018-.171.485-.039zM463.235 375.931l-.143-.188.15-.086.143.188zM390.98 331.824l.037-.313.36.032-.037.313zM384.4 363.2l-.052-.465.586-.05.051.467zM431.074 384.536l-.299-.187.58-.702.3.186zM495.962 447.02l-.016-.45.69-.02.017.451zM383.289 348.45l-.24-.042.089-.383.239.042zM465.191 375.746l-.11-.12.293-.205.112.121zM402.78 364.195l-.167-.183.346-.236.166.183zM441.797 383.672h.416v.322h-.416zM384.816 344.53l-.485-.051.046-.334.485.051zM430.067 374.57l-.512-.018.048-1.05.512.018zM503.597 469.776l-.088-.55.691-.084.088.551zM428.344 358.858l-.037-.555.394-.02.037.555zM393.738 373.277l-.339.007-.003-.164.338-.006zM442.812 377.468h-.401v-.444h.4zM373.845 359.921l-.009-.175.17-.006.008.174zM474.153 361.303l.003-.178.383.006-.004.178zM398.183 373.845l-.683.026-.01-.187.684-.026zM456.38 399.215l.364.243-.384.434-.364-.242zM376.557 361.702h-.338v-.275h.338zM429.872 379.33l-.368-.201.338-.466.368.202zM644.662 600.047l-.214-.158.19-.195.215.159zM467.363 408.18l-.177-.16.153-.126.176.16zM278.76 342.032l.339-.004.007.44-.338.004zM439.878 380.664l.095-.336.507.109-.095.335zM424.875 369.593l.011-.287.456.013-.01.286zM397.445 367.855l-.052-.683.535-.03.052.683zM381.973 557.126l-.33-.115.076-.166.33.115zM441.364 389.56l.036-.233.428.05-.036.233zM369.921 359.94l-.032-.276.588-.05.032.275zM631.301 569.735l.007-.613.672.006-.008.613zM462.577 378.354l-.114-.186.154-.07.114.184zM518.637 536.804l-.669-.127.16-.635.67.128zM481.038 428.245l-.132-.35.294-.084.132.35zM417.156 377.733l.448-.364.439.407-.448.364zM350.236 533.46l-.051-.197.168-.033.051.198zM428.297 373.994l.456-.006.005.305-.455.007zM317.555 554.957l-.567-.711.837-.505.568.712zM433.815 372.048v-.205h.338v.205zM396.555 362.823l-.046-.355.325-.032.046.355zM443.888 386.47l-.39-.01.01-.287.39.01zM374.205 351.79l.551-.122.162.555-.551.121zM408.86 364.823l-.176-.198.198-.133.176.198zM413.108 521.004l.036-.49.487.027-.036.49zM431.897 374.397l-.172-.016.022-.178.172.015zM426.69 359.956l.317.007-.007.269-.317-.007zM380.578 367.598l.206-.013.014.17-.206.012zM440.092 546.015l-.072-.635.288-.024.072.634z" clip-path="url(#p8fc3cf15c3)" style="fill:#a9a9a9;fill-opacity:.8"/><path d="m390.027 349.872.044-.342.522.052-.044.34zM377.865 353.736l.977-.006.004.498-.977.006zM514.98 532.41l.124-.798.485.058-.125.797zM416.083 372.086l-.183-.235.323-.19.184.234zM385.567 358.4l-.06-.477.677-.064.06.478zM387.646 379.018l-.175.014-.022-.211.175-.014zM353.506 542.502l-.126-.16.412-.243.126.16zM435.925 377.185l-.015-.306.27-.01.014.307zM368.158 354.31l-.287.007-.006-.196.287-.007zM505.14 487.273l.024-.283.404.025-.024.284zM509.54 532.8l.566.237-.252.454-.566-.236zM440.803 347.472l-.243-.026.023-.162.242.025zM402.177 373.485l-.054-.419.72-.07.054.418zM503.323 529.323l.25-.504.276.103-.25.504zM529.631 529.526l-.713-.313.207-.355.713.313zM453.761 374.142l-.132-.182.272-.15.132.182zM385.64 363.13l-.016-.195.5-.032.017.195zM395.273 409.404l-.03-.281.25-.02.03.281zM440.18 375.016l-.01-.302.264-.007.01.302zM503.655 507.297l-.053-.24.338-.056.053.238zM390.831 364.466l-.335.022-.044-.51.336-.023zM478.102 358.003l-.005-.263.433-.006.006.263zM394.031 378.552l-.04-.315.264-.026.04.316zM405.811 375.097l-.052-.562.405-.028.051.562zM364.61 531.706l-.125-.421.335-.075.125.421zM437.827 386.622l-.485-.122.206-.613.485.123zM323.357 556.146l-.044-.166.195-.038.044.166zM490.326 433.325l-.334-.813 1.073-.332.334.813zM376.087 348.073l-.223-.075.125-.28.223.074zM418.56 604.657l.021-.51.596.02-.022.51zM468.726 372.747l-.044-.518.242-.015.044.517zM386.984 381.475l-1.16.128-.106-.73 1.16-.127zM442.635 385.216v-.303h.39v.303zM369.26 343.898l-.397-.09.279-.92.397.091zM381.644 360.756l-.082-.506.624-.076.082.505zM538.995 539.72l.919-.025.015.42-.918.026zM425.416 381.108l-.316-.223.176-.188.316.223zM138.27 571.456l-.015-.53.43-.009.015.53zM598.405 559.684l-.58-.05.05-.43.58.052zM435.758 357.53v-.306h.456v.306zM441.4 380.445v-.424h.511v.424zM380.078 357.507l-.069-.448.492-.057.07.448zM497.3 474.236h.132v.103h-.132zM336.433 356.173l.69.204-.105.268-.69-.204zM442.651 370.538v-.204h.272v.204zM391.533 372.09l-.068-.458.86-.096.068.458zM442.345 374.283l-.018-.24.537-.03.018.239zM374.11 363.342l-.013-.29.39-.012.012.29zM461.271 390.764l-.617-.013.01-.372.617.013zM440.135 377l.018-.322.456.019-.018.322zM473.668 354.646l.014-.32.379.014-.015.319zM392.309 364.332l-.052-.562.433-.03.052.562zM452.846 397.342l-.388-.221.338-.447.388.221zM364.16 358.88l-.03-.244.28-.025.03.244zM608.044 556.362l-.228-.172.126-.125.228.172zM432.51 381.83l-.264-.141.11-.157.265.14zM643.53 598.769l-.007-.169.405-.012.007.167zM472.374 412.099l-.433-.492.185-.123.434.492zM458.903 561.812l-.47-.025.019-.266.47.026zM432.934 379.266l-.39-.217.277-.375.39.217zM427.686 372.386h-.485v-.626h.485zM396.526 365.925l-.03-.415.51-.028.029.415zM382.51 556.641l-.403-.21.257-.37.403.21zM441.51 386.406l-.403-.003.002-.23.405.003zM373.58 356.372l-.058-.517.416-.035.058.516zM404.98 362.32l-.433-.516.363-.23.434.517zM518.242 397.966l.018-.304.838.039-.019.303zM429.082 387.734l-.096-.135.33-.179.097.135zM499.994 528.391l-.455-.173.265-.523.455.174zM456.701 396.217l-.05-.23.22-.036.05.23zM141.709 570.32l-.037-.492.573-.032.037.492zM439.278 372.294l.009-.235.47.013-.009.234zM466.757 378.261l-.2-.236.418-.268.2.236zM381.539 355.562l-.059-.766.543-.031.06.765zM411.873 367.178l-.087-.18.19-.07.088.18zM381.536 516.602l-.052-.466.358-.03.051.466zM368.996 353.41l-.058-.387.632-.07.057.387zM496.667 476.866l-.066-.224.236-.052.066.223zM388.78 357.75l.677-.005.005.414-.677.006zM434.69 353.005l-.008-.434.345-.004.007.434zM382.237 353.768l.286-.51.45.19-.286.51zM502.324 530.797l-.258-.025.027-.202.257.026zM528.676 518.653l-.308-.102.07-.161.309.102zM444.63 373.907l-.005-.292.482-.006.005.291zM385.663 361.056l-.455.032-.021-.226.455-.033zM380.144 382.841l-.157-.614.896-.173.157.614zM437.718 374.435l-.012-.519.78-.013.01.519zM375.844 353.398l-.01-.335.837-.019.01.335zM563.376 542.764l.003-.102.316.007-.003.1zM507.33 498.88l-.225-.206.383-.313.224.207zM393.484 368.28l-.044-.619.43-.023.044.619zM449.345 348.33l-.426.039-.027-.228.426-.038zM564.38 538.44l.119-.473.408.077-.117.472zM460.86 380.738l-.316-.38.635-.399.316.38zM385.836 364.745l.375-.019.016.239-.375.019zM398.94 375.642l-.465.044-.073-.588.465-.043zM435.329 382.391l.356.137-.17.334-.357-.137zM559.731 541.909l.44.04-.016.132-.44-.04zM504.75 512.738l-.185-.532.485-.127.186.532zM373.905 346.58l-.42-.077.078-.315.418.077zM415.598 604.019l-.03-.172.13-.017.03.172zM480.49 373.595l-.012-.24.323-.012.013.24zM385.03 376.778l-.051-.276.595-.084.051.277zM390.473 330.981l.058-.203.33.07-.057.204zM383.518 363.015l-.104-.485.794-.127.103.484zM429.48 383.47l-.296-.147.39-.593.295.146zM598.677 561.433l-.323-.064.056-.213.323.063zM494.849 446.506l-.373-.054.095-.494.374.054zM547.482 542.423l-.025-.405.629-.029.024.404zM468.27 374.757l-.02-.3.367-.019.02.3zM401.038 364.942l-.507-.518.532-.394.508.518zM442.68 383.79v-.167h.245v.167zM378.886 345.896l-.764-.172.147-.494.765.173zM378.477 361.892l-.055-.5.844-.071.056.5zM434.939 374.988l-.022-.339.413-.02.022.338zM466.442 533.61l-.411.058-.062-.337.411-.057zM493.273 465.246l-.052-.396.406-.04.052.396zM390.834 332.454l.066-.253.178.035-.066.253zM427.734 358.667l.309-.013.016.293-.309.013zM388.55 373.251l.045.49-1.102.077-.046-.49zM441.426 378.445v-.406h.485v.406zM372.801 360.745l-.029-.282.226-.017.03.28zM539.37 542.176l-.17-.714.288-.052.17.716zM463.452 532.634l-.103-.688.39-.044.103.689zM334.691 361.623h-.544v-.58h.544zM447.317 372.121l-.024-.507.36-.013.024.507zM397.69 372.23l-.023-.36.772-.039.024.361zM455.553 399.369l-.343-.24.426-.462.344.239zM375.3 362.25l-.203.036-.09-.38.204-.036zM417.498 373.906l-.084-.089.282-.203.085.088zM462.778 402.38l-.633-.454.376-.395.632.453zM278.188 342.377l-.006-.199.294-.006.005.198zM437.012 381.742l.206-.484.386.123-.206.485zM424.857 370.082l.018-.49.456.013-.018.49zM398.185 367.76l1.021-.089.036.31-1.021.089zM444.096 391.79l-.232-.132.139-.184.231.132zM369.944 361.485l-.059-.61.713-.05.058.609zM627.539 566.96l-.39-.168.257-.452.39.166zM462.801 378.315l-.14-.22.346-.166.14.22zM480.34 428.443l-.155-.377.514-.16.155.377zM415.944 376.756l.5-.467.317.255-.501.468zM428.23 377.147l.03-.29.345.025-.028.29zM433.236 372.014l.059-.268.2.033-.058.268zM382.745 555.384l-.153-.1.316-.363.153.1zM443.965 386.486v-.326h.382v.326zM372.581 352.868l-.6.057-.096-.766.6-.057zM406.237 362.991l-.338-.466.385-.21.338.465zM522.584 398.994l-.455-.154.178-.4.456.154zM401.46 527.889l-.037-.43.573-.037.038.43zM431.827 373.896l-.007-.177.419-.013.007.177zM235.45 585.147l.442-.186.25.446-.443.187zM427.073 360.939l-.393.007-.015-.67.393-.007zM378.671 364.592l.61-.058.045.36-.61.058zM439.436 547.032l-.095-.406.433-.077.096.406zM390.798 348.754l-.544-.082.11-.538.543.082zM377.703 352.364l-.015-.37.343-.01.015.37zM500.854 527.97l.698.275-.153.293-.698-.274zM518.683 526.942l-.302-.083.062-.17.302.083zM419.831 371.467l-.154-.428.299-.081.154.428zM385.068 357.169l-.059-.581.454-.035.059.581zM308.737 353.67l.006-.413.56.006-.007.414zM436.91 376.63l.017-.2.16.01-.019.201zM369.267 355.083l-.056-.369.618-.07.055.369zM522.18 480.554l-.085-.248.566-.147.085.248zM389.677 362.519l-.03-.379.837-.051.03.379zM441.317 348.493l-.816-.051.059-.696.815.05zM399.782 369.7l-.081-.69.615-.054.082.69zM503.059 530.28l-.478-.172.126-.264.478.172zM540.492 532.729l.01-.283.379.01-.01.283zM448.227 374.468l-.242-.012.01-.154.243.013zM397.202 376.308l-.066-.319.364-.057.066.32zM437.593 375.182l.01-.244.41.014-.009.242zM563.28 541.896l.105-.429.521.096-.104.429zM459.486 560.56l.515.026-.018.267-.514-.025zM503.751 509.084l-.138-.384.353-.096.138.384zM389.465 366.087l-.054-.407 1.294-.127.053.407zM477.492 356.446l-.013-.2.375-.02.013.2zM393.818 378.188l-.015-.274.268-.01.014.274zM598.499 551.794l-.055.141-.375-.109.055-.14zM460.391 374.119l-.291-.32.808-.556.292.32zM382.103 366.539l-.132-.74.435-.06.133.741zM404.437 375.308l.396-.026.02.22-.398.025zM439.568 389.776l-.433-.294.238-.266.434.293zM490.091 435.52v-.612h1.029v.612zM376.3 346.854l.33.077-.052.172-.33-.076zM417.994 605.097v-.389h.485v.389zM467.976 372.593l-.029-.302.353-.026.03.303zM387.447 382.248l.366-.047.045.266-.366.047zM444.083 385.245l-.006-.279.37-.006.007.278zM370.38 344.038l-.37-.052.11-.59.37.052zM380.138 363.104l-.037-.363.244-.019.037.364zM424.144 380.22l.087-.35.411.077-.086.35zM136.565 572.898v-1.047h.235v1.047zM597.361 559.71l-.424-.025.044-.562.425.025zM497.24 456.58l-.394-.006.007-.434.395.006zM383.377 350.46l.027-.302.47.032-.027.302zM464.545 375.638l-.323-.428.44-.252.324.428zM441.629 379.938v-.332h.253v.332zM387.417 346.266l-.44-.102.06-.198.44.102zM378.131 358.611l-.032-.272.492-.045.033.273zM540.501 543l.375-.038.02.15-.374.04zM466.979 532.29l-.838.077-.064-.53.838-.078zM500.606 476.01l-.125-.395.132-.031.125.395zM337.124 356.377l-.691-.204.197-.504.691.203zM441.6 370.723l.007-.542.43.004-.008.543zM390.644 373.737l-.026-.277.44-.032.027.276zM441.86 375.78l.005-.233.382.006-.005.233zM374.58 363.897l-.034-.404.698-.044.034.403zM537.68 540.92l-.012-.253.536-.02.012.253zM463.366 392.794l-.221-.07.09-.212.22.07zM282.243 344.106l-.036-.612.233-.011.037.613zM475.872 355.31l.022-.428.276.01-.022.428zM393.903 364.338l-.22.007-.007-.159.221-.007zM429.626 543.127l-.19-.102.1-.141.19.102zM451.967 396.503l-.214-.126.298-.383.214.126zM375.851 360.649l-.161.012-.022-.217.161-.012zM609.734 555.94l-.284-.187.183-.21.285.187zM431.283 379.816l-.37-.25.33-.37.37.25zM468.994 409.266l-.145-.147.272-.204.145.146zM338.09 342.795l-.006-.3.419-.007.006.3zM432.567 378.954l-.402-.266.44-.504.403.265zM429.964 372.418l-.475-.004.008-.734.475.004zM397.114 366.572l-.018-.399.636-.022.02.4zM442.558 379.373l-.014-.367.306-.01.015.368zM372.956 356.557l-.024-.117.206-.032.024.118zM635.718 569.46v-.274h.506v.274zM405.047 363.055l-.317-.377.671-.425.316.377zM518.381 398.534l-.004-.385.742-.006.005.384zM418.832 379.092l-.189-.175.345-.28.189.175zM456.294 393.154l.017-.522.779.019-.017.522zM196.166 594.13l-.566-.172.188-.465.566.172zM436.07 371.403l.046-.268.346.044-.046.269zM467.83 377.584l-.235-.255.312-.217.235.255zM373.28 350.29l.032-.25.455.044-.032.25zM411.373 366.558l-.342-.543.338-.16.343.543zM381.955 516.576l-.046-.304.558-.064.046.304zM434.212 374.291l.015-.514.429.01-.015.513zM368.87 351.802l-.03-.481.521-.025.031.48zM496.227 477.146l.543-.108.09.338-.544.108zM315.308 557.558l.337.318-.395.317-.337-.318zM390.57 352.233l.147-.708.348.054-.148.708zM383.214 353.794l-.25-.061.103-.32.25.062zM524.877 517.881l-.173-.2.206-.134.173.2zM444.737 374.334l.242.003-.006.352-.242-.003zM384.45 359.869l.589-.052.031.274-.588.051zM388.248 378.099l.845-.058.027.295-.845.057zM436.55 375.507l.014-.291.345.012-.014.292zM376.116 354.042l-.017-.391.588-.02.017.392zM392.764 368.36l-.035-.495.53-.029.036.494zM434.535 547.913l-.05-.289.476-.06.05.288zM508.871 531.94l-.401-.139.228-.498.401.139zM448.728 348.547l.602-.076.07.407-.604.076zM503.448 529.763l.264-.491.484.197-.264.491zM564.22 538.643l-.493-.12.105-.324.493.121zM454.629 376.095l-.269-.327.334-.208.269.327zM386.336 364.043l.705-.064.037.308-.706.064zM400.064 374.806l.544-.058.087.621-.544.057zM437.35 385.187l.224-.337.368.185-.226.336zM560.29 543.115l.014-.37.366.01-.014.37zM506.11 512.489l-.17-.447.205-.058.168.447zM346.04 343.535l-.103-.613.516-.065.103.613zM477.661 361.59l-.426-.02.015-.245.426.019zM386.742 376.995l-.933.064-.07-.779.933-.063zM462.53 375.887l-.38-.479.235-.14.38.48zM376.524 372.915l-.026-.377.508-.025.025.377zM409.162 374.765l-.067-.402.33-.041.066.402zM433.881 385.971l-.5-.287.344-.45.5.286zM497.873 448.105l-.015-.555.197-.004.014.555zM380.755 350.36l-.49-.187.48-.947.488.186zM467.895 373.991v-.198h.456v.198zM401.163 362.478l-.412-.358.294-.255.412.358zM441.162 385.175v-.33h.382v.33zM381.81 343.95l-.168-.026.04-.202.169.025zM378.418 360.628l-.074-.435.588-.075.074.435zM540.861 543.574v-.127h.272v.127zM428.803 375.166l.03-1.238.266.005-.03 1.238zM598.824 558.236l-.022-.46.402-.014.022.46zM466.53 533.553l-.058-.319.71-.098.058.319zM492.479 466.094l-.055-.296.36-.05.055.295zM390.588 332.276l-.137-.027.034-.13.137.027zM430.35 358.756l-.008-.562.388-.003.008.561zM393.113 370.845l.404-.038.024.194-.403.038zM441.353 377.969v-.348h.441v.348zM382.165 358.503l.39-.02.02.31-.39.02zM539.421 542.624l-.015-.173.236-.015.015.172zM348.117 356.447l-.765-.019.024-.714.764.02zM474.77 359.81l-.375-.007.002-.09.375.006zM399.896 373.769l-.393.017-.03-.511.393-.017zM455.996 399.65l-.192-.129.384-.434.192.128zM375.3 362.25l.36-.063.06.258-.36.064zM417.645 374.257l-.18-.15.345-.313.18.15zM461.322 403.062l-.393-.337.514-.453.394.337zM278.283 343.838l.474-.025.03.415-.474.025zM439.466 378.009l.022-.409.382.016-.022.408zM480.568 352.916l-.022-.307.493-.025.02.307z" clip-path="url(#p8fc3cf15c3)" style="fill:#a9a9a9;fill-opacity:.8"/><path d="m398.07 366.764 1.02-.09.116.997-1.021.09zM444.309 391.91l-.213-.12.138-.184.214.121zM369.296 358.478l-.066-.51 1.036-.101.067.51zM629.148 565.99l-.073-.313.275-.049.073.313zM463.8 377.488l-.086-.129.228-.114.087.129zM474.013 413.005l-.309-.242.13-.125.31.242zM417.039 377.05l-.904.69-.212-.21.904-.69zM460.417 563.088v-.587h.456v.587zM426.504 373.905l.006-.261.367.006-.006.261zM432.977 371.97l.059-.267.259.043-.059.268zM396.409 364.406l-.017-.326.662-.026.016.326zM505.902 535.353l-.5-.198.114-.216.5.198zM442.955 386.441l-.386-.01.01-.265.385.01zM373.103 351.936l.661-.077.079.511-.662.077zM405.862 363.967l-.44-.402.385-.319.44.402zM520.38 399.626l.015-.448.518.014-.015.446zM430.956 387.683l-.353-.255.318-.33.352.255zM231.628 585.626l-.433-.707 1.021-.472.434.707zM440.402 371.119l-.03-.37.4-.024.03.37zM379.891 366.985l-.033-.289.596-.05.033.288zM438.863 546.12l-.089-.779.874-.074.089.778zM390.549 349.38l.13-.576.67.115-.132.576zM377.88 354.847l-.048-.513.735-.05.047.512zM512.51 530.534l-.608-.203.316-.715.608.203zM385.553 356.735l-.017-.2.508-.031.016.199zM437.148 376.665l-.004-.153.135-.002.004.153zM368.93 354.362l-.015-.325.588-.019.014.325zM507.366 486.501l.346.009-.015.44-.345-.008zM388.942 358.772l-.03-.523.634-.027.03.523zM435.431 547.74l-.096-.314.521-.121.097.314zM436.761 348.352l-.22-.453.38-.14.221.453zM402.074 371.563l.5-.025.03.436-.5.025zM518.837 533.552l-.419-.153.212-.437.42.152zM449.095 374.286l.293-.006.005.17-.294.007zM386.023 362.403l-.085-.42.786-.12.086.418zM386.463 394.82l-.19-.778.453-.084.191.778zM439.944 374.115l-.006-.447.67-.006.005.447zM507.249 501.075l-.177-.357.348-.13.177.358zM390.265 364.907l-.02-.34.713-.03.02.338zM477.309 356.995l-.036-.311.514-.045.036.31zM412.086 372.744l-.21-.208.3-.23.211.208zM598.682 551.174l-.381-.05.033-.19.382.052zM460.07 379.324l-.435-.468.61-.428.435.469zM382.184 365.69l-.103-.46.349-.059.103.46zM404.437 375.308l-.027-.314.397-.025.026.313zM438.076 389.035l.214-.44.415.151-.213.44zM490.223 434.486l-.123-.412.794-.178.123.412zM375.536 347.09l.095-.466.283.044-.096.466zM568.49 576.528l-.201-.223.088-.061.203.223zM476.736 372.466l-.015-.237.218-.01.015.236zM443.59 385.2v-.277h.383v.277zM366.647 343.669v-.575h.4v.575zM381.827 363.545l-.457.032-.051-.562.457-.032zM427.657 382.41l.303-.36.382.243-.303.36zM137.814 572.221l-.016-.263.426-.019.016.263zM385.338 351.903l-.866-.141.243-1.124.866.141zM466.47 376.27l-.206-.318.42-.205.205.318zM405.858 367.009l-.415-.356.496-.436.416.355zM441.695 382.947v-.613h.856v.613zM388.21 347.823l.089-.293.245.056-.088.293zM378.954 357.584l-.69.038-.033-.443.69-.038zM467.207 532.296l-.093-.388.816-.146.092.388zM499.122 475.245l-.086-.428.507-.076.086.427zM325.984 364.56l-.142-.388.463-.127.142.387zM442.555 369.696v-.23h.265v.23zM390.6 373.411l-.038-.377 1.08-.083.038.377zM442.352 375.25l.009-.24.367.01-.008.24zM372.177 363.323l-.03-.356.618-.038.03.356zM538.15 542.113l-.044-.332.26-.026.045.332zM456.537 533.688l-.381.055-.074-.383.382-.055zM475.196 354.914l-.011-.25.39-.013.01.25zM391.008 364.249l-.035-.399.58-.038.035.399zM454.374 397.288l-.25-.125.176-.266.25.126zM375.183 360.157l-.024-.242.426-.032.023.242zM599.197 552.342l-.507-.128.172-.514.506.128zM432.062 379.803l.397.217-.346.478-.397-.217zM468.524 410.319l-.4-.315.368-.352.4.316zM334.11 344.741l-.722.05-.07-.769.723-.05zM433.786 378.909l-.176-.083.08-.128.176.083zM426.114 370.478l.016-.264.426.019-.016.264zM397.29 365.95l-.235.006-.006-.173.235-.007zM443.778 382.551l.415.007-.003.17-.416-.006zM376.49 365.212l.882-.038.058 1.006-.881.039zM517.836 545.022l.006-.406.522.007-.007.406zM402.982 361.067l-.304-.23.323-.323.304.23zM445.95 349.058l-.029-.204.18-.02.03.204zM456.786 393.792h.61v.434h-.61zM436.379 372.411l-.26.005-.008-.326.26-.004zM398.003 361.36l-.434-.362 1.168-1.053.435.363zM503.19 535.723l.153-.472.631.153-.151.472zM468.52 376.2l-.147-.294.25-.095.147.294zM381.421 354.132l.125-.201.286.134-.124.2zM410.433 367.006l-.343-.544.941-.447.342.543zM386.577 518.127l-.125-.136.129-.09.125.136zM433.168 373.797l.02-.261.42.025-.021.262zM367.996 352.53l-.048-.42 1.036-.088.048.419zM568.38 550.663l-.02-.45.581-.019.02.45zM438.396 359.452l-.024-.327.463-.025.024.326zM316.538 557.486l1.16-.446.405.792-1.161.447zM439.76 547.85l-.018-.186.36-.025.018.184zM390.152 351.927l-.706-.109.087-.428.706.11zM380.819 353.315l-.52-.207.294-.556.52.208zM526.935 517.715h-.368v-.14h.368zM441.504 373.827l.003-.351.463.003-.003.351zM385.817 360.252l-.058-.58.547-.043.059.58zM381.466 377.684l-.035-.162.463-.077.035.162zM436.498 374.199l.024-.414.42.02-.026.413zM366.504 357.004l-.073-.657.563-.048.073.658zM503.082 496.787l-.132-.465.383-.082.132.466zM394.476 368.104l-.03-.432.684-.037.031.432zM440.715 345.978l-.388-.02.03-.452.387.019zM408.581 369.569l-.315.292-.338-.274.315-.293zM540.316 531.504l-.391-.062.118-.561.39.061zM460.39 382.024l-.254-.33.312-.18.254.328zM383.867 365.945l-.013-.424.566-.013.012.424zM398.889 376.765l-.03-.344.266-.018.03.345zM439.93 375.852l.01-.6.513.007-.01.599zM504.655 510.97l-.206-.503.323-.1.205.505zM344.622 342.571l-.147-.61.875-.159.147.61zM478.514 361.481l-.044-.414.368-.03.045.415zM461.214 375.249l.361-.135.309.625-.361.135zM376.332 372.558l-.033-.365.655-.045.032.365zM520.687 537.863l.176-.516.489.126-.176.516zM410.234 374.586l-.196-.231.588-.377.196.232zM355.997 533.142l-.03-.21.27-.03.03.211zM433.08 385.429l-.368-.249.132-.146.367.249zM378.688 349.592l.346-.663.233.091-.345.664zM462.4 373.091l-.273-.357.176-.1.271.357zM401.685 363.231l-.353-.367.404-.293.353.366zM442.169 384.153v-.147h.304v.147zM374.293 344.103l.015-.473.473.011-.015.472zM378.557 362.051l.478-.038.033.312-.477.038zM425.15 377.4l-.357-.059.073-.338.359.059zM493.92 464.582v-.274h.403v.274zM429.284 357.493l.647-.014.005.21-.646.013zM385.912 373.405l-.038-.753.507-.019.038.753zM441.452 379.01v-.444h.412v.443zM382.592 358.311l-.004-.121.317-.007.003.122zM335.14 358.56l.103-.942 1.308.108-.104.942zM443.018 372.013l-.028-.336.405-.026.027.336zM398.55 373.89l-.014-.453.263-.007.014.453zM376.931 363.463l-.034-.392.684-.045.034.392zM537.635 540.499l-.012-.418.588-.012.012.417zM418.968 375.259l-.408-.409.379-.285.407.408zM464.203 394.006l-.401-.151.191-.383.401.151zM279.65 342.906l-.022-1.065.897-.015.022 1.066zM439.922 378.405l.426.127-.061.155-.427-.128zM479.693 353.516l-.044-.348.344-.033.044.348zM401.861 367.695l-.044-.529.395-.025.044.53zM456.236 408.311l.316.306-.216.169-.316-.307zM446.488 391.879l-.58-.306.264-.379.58.306zM369.51 359.27l-.037-.376.867-.063.037.375zM625.048 565.186l-.698-.364.126-.183.698.364zM463.977 377.233l.4-.194.17.261-.401.196zM477.739 415.194l-.253-.303.345-.217.253.303zM415.848 376.616l-.566-.498.41-.35.565.497zM429.443 377.48l.052-.384.32.032-.052.383zM432.389 370.567l.478.038-.028.264-.478-.038zM396.313 363.365l.588-.038.037.426-.588.038zM443.388 386.464l-.36-.026.028-.297.36.026zM371.413 355.198l-.087-.537.684-.083.086.537zM406.906 362.193l-.235-.415.277-.118.236.414zM511.013 537.95l.348.04-.059.377-.348-.04zM516.383 400.8l-.217.011-.015-.21.217-.012zM412.446 520.845l-.404-.058.08-.42.403.057zM457.765 399.813l.085-.233.133.036-.084.234zM229.174 577.44l-.338-.6.582-.246.338.599zM440.454 367.04l-.404.015-.022-.466.404-.014zM381.81 365.166l-.126-.574.45-.074.125.575zM468.961 380.252l-.246-.31.309-.185.246.31zM379.305 354.157l-.056-.366.61-.07.056.366zM504.405 527.414l-.331-.252.42-.415.33.252zM415.547 371.926l-.382-.425.5-.339.382.426zM383.003 356.735l.61-.058.124.991-.61.057zM309.546 352.177l-.007-.593.44-.005.008.594zM435.891 374.32l.008-.61.325.003-.008.61zM368.46 354.623l-.067-.542.417-.039.066.543zM520.909 479.457l-.148-.391.37-.106.148.39zM390.853 360.776l-.006-.166.265-.006.005.166zM440.472 349.22l.051-.68.677.038-.052.681zM384.317 355.268l.161-.351.22.076-.162.351zM532.52 528.958l-.557-.047.088-.797.557.046zM449.12 373.639l-.009-.492.46-.007.008.492zM386.413 363.156l-.038-.47.53-.031.037.469zM387.668 394.814l-.044-.19.33-.057.045.19zM439.826 375.13l-.007-.325.285-.005.007.325zM502.759 504.075l-.24-.344.411-.217.24.344zM389.795 368.008l-.117-1.04.632-.054.118 1.04zM480.865 356.676l-.004-.31.26-.003.004.31zM395.148 375.916l-.059-.587.485-.037.06.588zM585.522 547.468l-.404-.198.155-.24.405.198zM457.241 376.165l-.456-.524.457-.3.455.524zM384.418 364.681l-.065-.545.787-.07.064.545zM440.237 389.59l-.234-.159.214-.236.233.16zM505.559 516.114l-.019-.42.573-.02.019.42zM375.58 347.729l-.233-.045.081-.32.233.045zM454.531 403.25l-.977-.664.556-.617.977.664zM477.095 372.255l-.021-.491.296-.01.022.49zM388.932 383.135l-.353.025-.026-.272.353-.026zM444.447 386.496l-.004-.333.356-.003.004.332zM368.418 342.21l.232.003-.003.135-.231-.004zM382.555 360.386l-.034-.262.654-.064.034.262zM427.495 382.43l-.367-.294.266-.252.368.294zM137.19 570.725l-.022-.474 1.087-.04.024.473zM496.168 452.687v-.62h.573v.62zM383.48 349.228l.178-.877.5.076-.179.878zM465.625 374.987l-.074-.307.414-.074.073.306zM318.882 555.084l-.375-.465.378-.23.375.466zM441.353 380.99v-.318h.79v.319zM384.125 345.947l.22-.92.934.17-.22.92zM378.263 359.3l-.058-.344.569-.073.058.344zM540.501 543l-.03-.218.376-.038.03.218zM430.824 374.81l.002-.13.296.004-.003.128zM571.092 551.543l-.044-.319.178-.018.044.319zM502.884 475.41l.287-.05.05.21-.287.052zM336.558 356.773l.448.096-.075.263-.448-.096zM441.585 369.9v-.3h.427v.3zM392.474 373.89l-.015-.32.256-.008.015.319zM374.22 363.897l-.5.032-.039-.459.5-.032zM373.434 531.579v-.326h.353v.326zM456.633 533.662l-.06-.345.315-.04.058.345zM461.727 390.425l-.515-.082.08-.373.514.083zM345.004 530.009l-.14-.594.58-.102.14.593zM474.402 358.38l-.75-.013.01-.367.749.013zM391.956 364.102l-.037-.344.207-.017.037.345zM453.985 398.376l-.563-.344.448-.552.563.344zM376.829 361.644l-.06-.53.594-.05.06.53zM599.733 553.012l-.403-.112.236-.638.402.112zM430.556 379.522l-.492-.255.274-.399.492.255zM466.79 408.8l-.269-.248.39-.32.268.248zM433.47 379.585l-.264-.14.25-.357.266.14zM396.512 367.587l-.049-.347.794-.083.048.347zM453.98 409.25l-.034-.163.603-.095.034.162zM441.29 390.031l.074-.472.428.05-.074.473zM636.768 569.94v-.588h.368v.587zM404.114 361.612l-.297-.284.39-.306.296.284zM445.848 351.79l-.564.01-.03-1.084.564-.012zM418.589 378.773l-.308-.256.323-.294.308.257zM351.338 531.745l.052.497-.686.054-.052-.498zM464.223 560.855l-.984-.242.09-.278.985.242zM455.845 391.13l-.007-.267.226-.005.008.268zM139.232 570.786l-.037-.43.404-.027.037.43zM435.079 372.495l-.625-.103.088-.407.625.101zM399.249 361.319l.403.339-.224.202-.404-.34zM504.66 535.149l.177-.537.338.084-.177.536zM467.903 376.442l-.14-.224.232-.109.14.224zM376.307 352.236l-.707-.167.25-.797.707.167zM408.743 365.908l-.684-.639.372-.3.683.639zM511.476 537.47l-.775-.136.069-.294.775.138zM380.94 516.321l.398-.064.063.295-.397.064zM433.447 375.061l-.276-.025.051-.434.277.025zM308.608 545.124l-.088-.218.339-.102.087.218zM570.666 551.396l-.022-.274.258-.015.022.274zM438.845 358.003l-.249-.004.007-.357.249.003zM380.681 368.087l-.03-.281.314-.025.03.28zM389.85 350.695l.064-.374.94.121-.063.374zM381.781 353.653l-.545-.202.28-.568.544.202zM516.199 532.512l.02-.287.515.026-.02.287zM443.087 374.136l-.017-.339.323-.013.017.34zM385.237 359.205l-.044-.338.217-.022.044.338zM388.572 379.094l-.779.045-.026-.338.779-.045zM436.792 376.624l-.398-.03.044-.446.398.03zM375.55 353.391l-.492-.006.003-.194.492.006zM468.94 551.01l-.014-.689.52-.008.014.689zM500.951 495.058l-.132-.402.24-.06.132.403zM394.12 368.398l-.048-.662.275-.015.048.662zM434.535 547.913l.475-.061.031.181-.475.061zM449.242 349.109l-.426.05-.024-.153.426-.051zM404.12 371.197l-.042-.367.507-.045.042.367zM542.873 530.215l-.287-.058.19-.715.288.058zM454.033 374.464l-.145-.232.379-.178.145.231zM386.431 365.02l-.03-.275.16-.013.03.275zM398.903 376.223l-.036-.326.314-.027.037.326zM439.745 376.554l-.396-.045.027-.182.397.045zM504.986 511.8l-.075-.155.264-.096.075.155zM338.832 346.133l-.015-.163.631-.045.016.163zM572.436 581l-.324-.5.638-.314.326.502zM477.889 359.58l-.02-.26.434-.026.02.26zM392.15 377.978l-.022-.613.52-.014.022.612zM456.353 410.048l-.117-.262.161-.055.117.262zM462.601 375.17l-.275-.34.27-.164.275.339zM408.228 374.841l-.036-.484.48-.028.037.485zM434.373 385.327l-.213-.134.13-.157.214.134zM488.24 434.027l-.354-.97.715-.196.353.97zM567.41 575.973l-.159-.13.187-.173.16.13zM456.052 402.702l-.41-.319.442-.427.41.318zM463.384 374.144l-.192-.218.25-.166.192.218zM387.91 379.924l-.308.02-.01-.124.309-.019zM442.146 385.184v-.284h.4v.284zM375.116 344.869l-.527-.126.25-.792.527.126zM379.41 361.573l-.032-.271.36-.032.032.271zM426.893 377.694l-.566-.16.114-.305.566.16zM493.831 465.162l-.024-.362.374-.019.025.362zM387.038 352.284l.238-.427.485.205-.238.426zM434.781 358.182l.03-.575.416.017-.03.574zM319.08 556.086l-.097-.13.169-.095.097.13zM387.066 373.832l-.044-.542.344-.021.044.542zM441.992 378.524v-.517h.243v.517zM380.968 357.788l.31-.05.071.342-.31.05zM497.66 474.09l-.03-.364.214-.013.03.364zM335.786 362.108l-.059-.67.4-.026.06.67zM450.754 403.02l.603.141-.107.347-.603-.14zM444.907 372.555l-.006-.358.514-.007.006.359zM390.24 372.217l-.044-.714.399-.019.044.715zM439.737 546.045l-.089-.778.355-.03.089.778zM455.647 398.306l.324-.273.269.241-.494.417-.27-.241z" clip-path="url(#p8fc3cf15c3)" style="fill:#a9a9a9;fill-opacity:.8"/><path d="m380.968 357.788-.11-.52.603-.095.11.519zM500.202 474.626l-1.771-.007.079-.802 1.696-.034zM457.885 408.482l-.5-.389.499-.484.5.39zM448.577 399.97l-.552-.216.25-.482.551.215zM378.774 358.883l.51-.066.087.513-.51.066zM391.012 332.49l.066-.254.277.055-.108.41-.277-.054zM454.216 401.119l-.612-.443.228-.238.911.659-.228.238zM314.657 556.21l1.41 1.327-.422.34-1.41-1.328zM338.718 343.974l-.05-.823.542-.024.05.822zM399.024 361.52l-.413-.347.655-.587.413.348zM462.574 375.405l-.393-.485.145-.09.393.486zM448.722 399.446l-.59-.23.23-.445.59.231zM380.265 350.173l-.455-.173.478-.948.456.174zM396.034 362.874l-.066-.51.522-.051.065.51zM399.659 362.053l-.231-.193.574-.516.231.194zM500.687 495.652l.573-.14.13.396-.574.141zM457.85 399.58l.048-.132.288.079-.047.132zM387.117 381.992l.647-.083.05.292-.648.083zM139.599 570.33l-.66.042-.027-.311.66-.043zM456.36 399.892l.384-.434.038.045-.255.645-.268-.125zM380.629 349.182l-1.014-.387.163-.321 1.013.386zM472.067 412.39l.07-.053-.252-.251-.383.29.18.18.313-.237zM439.167 374.468l.013-.639.39.006-.007.331.148.003-.006.308zM389.014 383.088l-.106-.887.343-.032.02.171.273-.024.086.716zM398.43 369.15l.366-.037.112.823-.254.027-.026-.192-.111.011zM391.164 362.141l.51-.024.036.57-.196.009-.01-.152-.314.015zM393.491 363.663l.603-.04.022.257-.165.01.012.14-.438.03z" clip-path="url(#p8fc3cf15c3)" style="fill:#a9a9a9;fill-opacity:.8"/><path d="m471.532 413.166-.283-.282.746-.565.283.282zM412.687 376.105l-.534-.426.668-.632-.168-.133.922-.873.701.56zM518.307 400.046l-.025-.3.371-.023-.027-.314.877-.058.054.614zM437.313 544.148l.359.326-.178.148-.174-.158-.1.083-.185-.168zM368.231 342.208l-.155 1.274-.8-.074.091-.754.174.016.063-.52zM443.025 384.913h-.39v-.112h.219v-.137h.171zM386.484 351.28l-.633-.184.058-.15.193.056.16-.411.44.129zM409.67 380.234l.376-.025.026.3-.176.01.044.516-.202.013zM504.682 514.168l.613-.118.186.723-.352.068-.034-.134-.263.05zM496.95 457.473l-.138-.745.554-.077.095.514-.171.024.042.231zM383.597 372.412l.052-.169-.144-.13-.205.012-.096.157.129.175zM279.812 344.42l.087.861-.639.049-.043-.434.164-.012-.043-.429zM382.877 372.208l-.232.006-.132-.143.089-.198.26-.054.143.166zM546.707 540.211l.007-.553.766.007-.003.205-.186-.002-.004.35zM413.885 371.002l-.63-.565.665-.56.311.279-.46.387.319.286zM330.837 352.99l.015-.247.203.01.04-.616.433.021-.055.863zM496.955 452.955l.005-.51.56.005-.003.228-.19-.002-.003.283zM425.798 388.372l1.249-.62.426.649-.472.234-.129-.197-.777.386zM388.354 356.602l-.044-.44.309-.024.018.186.32-.024.026.255zM391.644 377.378l-.054-.36.283-.03.03.197.4-.045.024.161zM390.834 332.454l-.027.102-.279-.056.094-.354.278.055zM441.629 376.903v-.37h.529v.175h-.162v.195zM426.12 371.424l.69.009-.008.493-.574-.007.003-.186-.116-.002zM504.927 511.315l-.089-.05-.082-.106.073-.14.187-.036.115.107-.006.126zM280.977 343.233l-.016-.487.609-.014-.013-.374.61-.015.029.86zM339.235 343.537l-.034-.552.628-.03.023.367.177-.009.011.187zM377.89 371.26l.78-.079.051.376-.436.045.041.306-.591.06-.037-.272.247-.025zM441.762 390.743l.245-.355.556.291-.124.18-.15-.079-.093.137-.18-.093-.026.038zM389.854 368.764l-.033-.467.175-.01-.017-.234.447-.024.017.248.2-.011.033.454zM308.136 543.947l-.265.12-.36-.603-.199.089-.147-.246.205-.092-.378-.633.257-.116zM389.14 360.52l.78-.05.127 1.5-.777.05-.02-.245.101-.006-.043-.518-.105.007zM386.078 350.066l.437-1.076.645.198-.198.486-.132-.04-.099.244-.11-.034-.14.346zM433.652 374.113l.002-.317.529.003-.002.32h-.068l-.001.126h-.174l.001-.13zM389.247 357.09l.153-.646.49.088-.028.122.259.046-.075.317-.266-.047-.049.206zM496.186 447.522l.922-.002.003.615-.881.003v.106l-.446.002-.002-.425h.405zM545.125 539.843l.05-.63.534.031-.025.321.155.01-.018.237-.147-.01-.006.074zM406.355 366.572l.566.486-.289.315-.527.023-.089-.1-.166.06-.195-.168zM375.734 371.322l-.147-1.273 2.136-.186.107.929-.38.033.017.15-.815.072.022.193zM137.19 570.725l-.37.014.01.18-.423.015-.008-.156-.618.023-.031-.625 1.41-.052zM465.47 411.962l-.083-.067.114-.106.082.068zM141.425 567.577l.054-.195.315.066-.054.195zM403.935 379.678l-.552.052-.047-.372.502-.047.024.19.05-.004zM403.986 380.17l-.552.051-.046-.371.501-.047.025.19.05-.004zM404.015 380.724l-.551.053-.047-.371.502-.048.024.19.05-.004zM404.089 381.248l-.552.052-.046-.371.501-.048.025.19.05-.004zM404.126 381.784l-.552.052-.047-.371.502-.047.024.19.05-.005zM404.162 382.307l-.551.052-.047-.371.502-.047.024.19.05-.004zM404.25 382.882l-.551.052-.047-.371.502-.048.024.19.05-.004zM404.332 383.437l-.553.052-.046-.371.502-.048.024.19.05-.004zM400.885 383.788l-.552.052-.047-.371.503-.048.024.191.05-.005zM400.848 383.265l-.552.052-.046-.371.502-.048.024.19.05-.004zM400.797 382.703l-.552.052-.047-.37.503-.049.024.191.05-.005zM400.724 382.154l-.553.053-.046-.372.502-.048.024.191.05-.005zM400.672 381.51l-.552.052-.047-.372.503-.047.024.19.05-.004zM400.635 380.967l-.552.052-.047-.371.503-.047.024.19.05-.005zM400.538 379.916l-.555.005-.005-.373.506-.005.002.192h.05zM400.624 380.43l-.552.052-.047-.371.502-.048.024.19.05-.004zM402.08 379.443l.042.37-.473.04-.013-.116.052-.004-.028-.255zM402.154 379.973l.041.37-.472.04-.013-.116.051-.004-.028-.255zM402.199 380.497l.04.37-.472.04-.013-.117.051-.004-.028-.254zM402.257 381.058l.041.37-.473.04-.012-.116.051-.004-.028-.255zM402.302 381.588l.04.37-.472.04-.013-.116.051-.005-.028-.254zM402.338 382.143l.04.37-.472.04-.013-.116.052-.004-.028-.255zM402.404 382.666l.041.371-.472.04-.013-.116.051-.005-.028-.255zM402.44 383.24l.042.371-.473.04-.013-.116.052-.005-.028-.254zM399.12 383.58l.04.37-.472.039-.013-.116.051-.004-.028-.255zM399.032 383.05l.04.37-.472.04-.013-.116.051-.005-.028-.255zM398.936 382.5l.04.371-.472.04-.013-.117.052-.004-.028-.255zM398.782 381.913l.04.37-.472.04-.013-.116.051-.004-.028-.254zM398.693 381.307l.041.37-.472.04-.013-.116.051-.004-.028-.255zM398.539 380.784l.041.37-.473.04-.012-.116.051-.005-.028-.254zM398.355 379.721l.042.37-.473.04-.013-.116.051-.004-.028-.255zM398.434 380.224l.041.37-.472.04-.013-.116.051-.005-.027-.254zM397.348 378.62l.427-.014.015.368-.378.012-.005-.134-.049.002zM397.29 378.154l.425-.014.016.368-.378.012-.005-.134-.048.002zM397.212 377.643l.427-.013.015.367-.377.012-.006-.133-.049.001zM397.176 377.172l.426-.013.015.367-.377.012-.006-.133-.048.001zM399.541 378.61l-.039-.41.416-.028.031.333-.094.006.007.077zM400.107 378.566l-.039-.41.416-.03.031.334-.094.007.007.076zM401.268 378.464l-.039-.41.416-.03.031.334-.094.007.007.076zM400.686 378.53l-.04-.41.417-.029.03.333-.093.007.007.076zM455.665 374.33l.405-.28.444.489-.404.279zM462.4 382.496l.422-.308.254.263-.422.308zM461.91 381.236l.558-.191.085.187-.557.191zM461.033 381.089l.607-.381.246.295-.607.382zM379.778 365.092l.66-.046.056.612-.659.047z" clip-path="url(#p8fc3cf15c3)" style="fill:#a9a9a9;fill-opacity:.8"/></g></g></g><defs><clipPath id="p8fc3cf15c3"><path d="M90 117.812h558v491.577H90z"/></clipPath></defs></svg>