<svg xmlns="http://www.w3.org/2000/svg" width="960" height="960" viewBox="0 0 720 720"><defs><style>*{stroke-linejoin:round;stroke-linecap:butt}</style></defs><g id="figure_1"><path id="patch_1" d="M0 720h720V0H0z" style="fill:#fff"/><g id="axes_1"><path id="patch_2" d="M96.125 640.8h545.75V86.4H96.125z" style="fill:#fff"/><g id="LineCollection_1"><path d="m377.248 401.232 1.477 2.495M377.248 401.232l-7.402.327M365.62 387.785l1.605 1.226 1.256 1.16 1.578 1.794 3.099 4.032 4.09 5.235M377.248 401.232l-.482.35-.17.385-.042.41.088.406.211.37.319.304.402.217M378.286 401.256l-.403-.078-.42.006-.215.048M388.08 426.017l2.813 7.398M388.08 426.017l9.237-.137M386.047 421.551l.352.796 1.68 3.67M418.65 514.58l7.895 5.355 2.16 1.527 2.283 2.13 2.834 2.87 1.356.935 1.703.669 1.45.393 2.09.387 10.595 1.005 2.633.184 1.91.372M457.537 531.043l-1.206-.46-.772-.176" clip-path="url(#pc7d1fba952)" style="fill:none;stroke:#000"/><path d="m441.6 515.518-.178.784-.008 1.776.451 1.653.797 1.618 1.039 1.139 3.59 2.687 8.268 5.232M399.821 446.387l-2.559-1.512M406.749 458.625l.08-.521.16-1.818-.025-1.075-.283-1.376-.43-.983-.69-.952-1.328-1.527-2.154-2.29-2.258-1.696" clip-path="url(#pc7d1fba952)" style="fill:none;stroke:#000"/><path d="m405.06 468.168-2.326-8.18-.443-1.594-.105-.476-.024-.892.097-5.95-.322-1.154-.934-1.428-.894-1.33-.288-.777M382.673 414.13l-2.373-7.024-.37-.957-1.205-2.422M378.725 403.727l.165-.237.245-.38.156-.423.006-.452-.178-.42-.419-.313-.414-.246M377.574 403.674l.465.113.686-.06M217.269 129.694l-2.532-3.401-5.145-4.823-.675-.607-1.7-1.56-1.36-1.056-1.31-.635-1.504-.376-1.688-.179-3.602-.134M303.59 303.076l2.752 2.49 2.376 2.751 1.118 1.795 1.578 3.095 1.449 3.77.934 1.549 1.9 2.04 2.157 2.069 3.252 3.292 3.124 4.151 1.369 1.97 2.462 2.533 3.816 3.39 5.33 4.405 2.495 1.885 2.833 1.844 2.737 1.562 2.838 1.781M352.121 359.196l.21-.704.147-2.097-.135-.77-.295-.688-2.507-3.875-1.431-1.614" clip-path="url(#pc7d1fba952)" style="fill:none;stroke:#000"/><path d="m352.121 359.196.397-.14.297-.232.186-.738.305-3.209.113-.611.379-.648 1.754-1.9 3.212-3.165 3.108-2.673 3.252-1.942 2.979-2.139 1.835-1.618 2.19-2.378.595-1.14-.032-.928-.145-3.841.032-4.124.049-.886.306-.619.281-.598v-.591l-.314-.52-2.56-2.385-5.659-4.081-.467-.62-.2-.766.176-.93.5-2.173-.017-.359-.16-.26-.307-.106-4.613.029-4.145-.12-4.363-.17-1.063-.168-3.59-.43-.99.114-.604.358-1.015.88-.684 1.217-.74 1.822-.314.71-.628.958-.62.71-1.006 1.428-.355.872-.064.985.378 1.373.91 1.773.692 1.252.765.921 1.111 1.042.813.718.435.668.153 1.189.088 1.998.258 3.58.064.747.25 1.118.37 1.52.524 1.78.604 1.569.394 1.428.257 1.21.387 1.618.185.872.06 1.001M352.121 359.196l-.56.796-2.599 2.34M339.38 375.99l-.185-1.267.073-1.055.571-1.379.861-1.54 1.047-1.527 1.481-1.892 1.723-1.682 4.011-3.317" clip-path="url(#pc7d1fba952)" style="fill:none;stroke:#000"/><path d="m340.885 361.57.1-.536h.381l3.717-.116.459.038.454.067.448.098.519.152.502.192.481.23.456.267.56.37M339.38 375.99l.733 1.428.805.745 1.095.648 1.022.394 1.441.232 1.168.003 5.32-.125 2.067.286 1.74.787M365.62 387.785 357.24 382l-2.47-1.612" clip-path="url(#pc7d1fba952)" style="fill:none;stroke:#000"/><path d="m346.012 396.565.605-13.358.16-.766.363-.38.825-.166 1.393.334 1.365.461.833.243.857.042.632-.33.563-.545 1.163-1.712M220.006 130.646l-.405.035M220.006 130.646l1.44-.368M220.88 131.335l-.272-.363-.602-.326M238.746 151.94l1.609 1.728 1.688 1.895 1.005 1.907.29.828.231 1.002.005 2.006-.24 2.412-.418 2.337-2.01 5.218-1.462 3.635-.946 2.808-.193.873-.13 1.547.045 1.53.381 1.84.582 1.665 4.683 7.39.942 1.015 1.06.98 3.386 1.752 2.449 1.49 1.723 2.156 1.995 3.234 2.792 5.961.259 3.051-1.166 8.297-2.86 8.024-1.283 3.99.257 3.184.483 3.41-.39 3.644-2.338 12.536-2.104 6.77-.238 1.887.258 1.942 1.948 4.995 1.094 2.322 1.305 1.9 1.883 1.506 2.416 1.477 3.38 1.633 4.027 1.742M290.388 293.873l-1.595-1.027-1.706-1.182-5.957-4.236-5.088-3.279-2.205-.97-2.577-.605-3.526-.676-2.59-.44M246.963 290.107l3.335.389 4.975.605.853-.028.757-.197.547-.366 1.69-1.66 1.096-1.197.354-.774.16-.76.436-1.548.595-.844.484-.563.611-.436 1.063-.492 1.225-.777M292.706 295.477l6.407 4.489 4.477 3.11M382.188 287.497l-.227.082-1.342.485-1.919.085-1.834-.312-1.857-.892-2.4-.517-8.556-.392-6.05-.264-5.205.011-1.612.172-3.549.605-2.48.682-1.478.622-1.403.932-1.6 1.96-1.312 1.464-.556.633-.354.373-.499.218-.435.063-.346-.26-.29-.416-.267-.879-1.391-2.441-1.417-1.14-1.497-.408-1.594-.127-1.352.308-2.577.649-2.092.366-.983.042-2.64-.225-2.978.07-1.16.24-2.173.69-1.674.675-.902.661-.66.76-.644 1.083-2.077 2.786-2.882 2.857-.789.886-.515 1-1.03 2.392M221.446 130.278l-.566 1.057M516.94 420.103l.853-.052 1.512-.135.9-.006.885.155.49-.06.078-.161-.196-.245-1.565-1.32-.172-.504.218-.323.386-.183.657.357 1.477 1.134.917.338.5.394.12.534-.087.614M383.17 401.041l-4.884.215M383.17 401.041l-1.395-10.557M481.501 425.194l-.32-.567-.402-.732-.024-.76.628-1.835.173-.693.077-.996-.201-1.305-.477-2.396-1.33-2.803-2.189-2.95-.71-.718-.821-.557-4.375-2.123-1.27-.553-4.494-1.494-1.32-.548-2.673-1.344-3.185-1.448-2.27-.49-3.222.063-2.462-.21-5.026-.834-4.09-1.065-1.208-.13-1.092.109-2.758.49-5.324.078-2.766.301-1.956.476-1.582.3-1.071.031-.914-.163-1.708-.427-1.916-.224-1.853.16-.925.202-.878.191-1.652.568-1.122.252-1.652-.056-2.165-.449-2.645-.223h-2.866l-7.205.196-13.09.523M378.286 401.256l-1.594-9.896M372.53 406.975l1.522-1.498.945-.506 1.907-.892.67-.405M513.374 431.359l.777-.837.31-.508.285-.467.093-1.051.218-2.16.273-1.28.314-.605.709-1.23.229-.468.12-.58.065-.673.173-1.397" clip-path="url(#pc7d1fba952)" style="fill:none;stroke:#000"/><path d="m515.37 417.156-.012.224.053.213.143.248.219.251.523.577.354.485.209.57.081.379M504.433 433.966l2.327-1.05 1.551-.424 2.825-.683 2.238-.45M583.362 429.663l-1.031.148-1.363.406-.739.431-.595.62-1.73 1.406-1.843.964-.464.116-.809.095-1.981-.025-2.006.206-1.439.31-.572.071-.515-.168-.29-.591.13-.964.635-1.54.689-2.607.028-2.078-.133-.605-.374-.549-.725-.594-.571-.32-1.651-.398-1.32-.231-2.125-.033-2.709.247-3.53.46-4.01.553-.96.207-1.164.348-3.052 1.928-.9.675-1.293 1.221-.893 1.087-.689.576-.523.215-.926-.078-.531-.257-1.159-.73-.822-.53-.474-.304-1.208-.623-1.344-.465-1.503-.334-2.39-.28-1.667-.09-.646.04-.817.145-1.14.39-1.15.685-.687.31-1.254.401-2.511.478-3.14.5-1.876.218-2.495.281-1.73.352M339.38 375.99l-.664-.2M364.838 377.984l-3.69-2.765-1.236-.478-.994-.141-.986.05-3.115.37-5.262.808-4 .513-1.61.127-2.544.127-.588-.064-.494-.16-.94-.381M364.838 377.984l2.882 2.392M369.16 373.91l-1.238 1.158-3.084 2.916M367.72 380.376l2.62 1.93M367.116 386.711l2.645-2.164.06-.126v-.093l-.06-.164-1.996-1.442-.238-.302-.02-.388.097-1.065.116-.591M370.34 382.307l3.542 3.475M372.824 375.842l-.118 1.72-.228 1.923-.53 1.147-1.608 1.675M373.882 385.782l.878 1.027M373.882 385.782l5.201-1.955M376.692 391.36l-.837-2.933-1.095-1.618M367.116 386.711l2.452 2.694.394.12.465-.115 4.333-2.6M376.692 391.36l5.083-.876M338.102 377.34l.614-1.55M317.798 384.962l2.81-.882 3.364-.845 1.804-.351 1.947-.38 1.047-.45 1.272-.676 1.465-.605 1.755-.703 2.657-1.407 2.183-1.322M337.79 396.49l.029-3.472.08-8.927.203-6.75M335.48 374.936l.112-5.855M297.214 371.382l2.342-.268 7.31-.225 3.252.233 4.259.351 1.867.21 5.12.515 3.896.745 4.34.866 3.63.633 2.25.494M338.716 375.79l-.687-.21-2.548-.644M379.083 383.827l-1.328-2.597M381.775 390.484l-.307-2.306-.265-.88-2.12-3.471M369.16 373.91l.892-1.691M372.824 375.842l-1.127-.605-2.537-1.326M369.846 401.56l-.713-3.868M361.872 401.94l4.72-.226 3.254-.155" clip-path="url(#pc7d1fba952)" style="fill:none;stroke:#000"/><path d="m372.53 406.975-.861-1.453-.781-1.555-1.042-2.408M374.68 409.679l-1.032-1.223-1.117-1.481M381.023 420.237l2.196-1.096M378.718 415.124l.196.513 2.11 4.6M374.14 416.914l2.282 5.4.089.146.127.032.176-.049 4.21-2.206M384.362 418.565l-1.143.576M382.673 414.13l1.109 3.17.58 1.265M386.047 421.551l-1.231-2.09-.454-.896M622.597 500.002l-.272-.722-.21-.595-.053-.665.382-.687 1.522-1.91.756-1.336.246-1.07.342-2.517-.046-1.293-.598-1.457-.105-.77.072-.887.423-1.81.403-.711 1.212-1.47.482-.862.06-1.235-.164-.956-1.441-2.673-.54-1.076-.117-.534.17-.827 1.531-3.392 1.242-2.752.266-.753.088-.647.174-5.68-.02-4.948-.02-.608-.174-.774-.507-1.003-1.428-1.715-.212-.426.01-.384.31-.527.933-.758 3.084-1.268.523-.52.346-.602.113-.809-.145-.506-.338-.506-1.76-1.77-1.396-1.688-.563-.81-.636-1.54-.813-1.188-1.144-1.048-.982-.661-1.409-.458-.925-.112-1.401-.022-2.488.367-2.72.02-1.578-.337-.837-.281-3.148-1.555-2.06-1.062-.943-.296-.958-.137-1.916-.08-2.776-.437-1.192-.193-1.38-.36-2.766-.896-.867-.124-2.111-.192-3.897-.183-2.463-.303-2.406-.352M337.98 402.808l7.896-.206M337.98 402.808l-.19-6.318M323.406 403.154l1.323-.038 10.616-.28 2.634-.028M377.755 381.23l-1.506-2.602-.623-.668-1.619-1.323-1.183-.795M504.433 433.966l-3.98 1.742-1.134.476-1.45.148-1.062-.246-1.103-.605-2.423-1.846-.712-.574-.85-.506-1.73-.676-1.973-.538-.706-.336-.567-.31-1.278-1.239-3.964-4.262" clip-path="url(#pc7d1fba952)" style="fill:none;stroke:#000"/><path d="m475.692 437.437.322-.254.418-.5.693-.85.865-.98.503-.596 1.218-1.227.997-1.075.467-.914.172-.935-.103-.74-.45-1.035-.05-.451.234-.86.345-1.302.178-.524M407.493 463.404l5.679.01M406.749 458.625l-.043 1 .19 1.419.24 1.269.357 1.091M409.58 469.715l-.616-2.322-.806-2.494-.665-1.495M475.692 437.437l-.41.112-.608.048-2.106-.062-2.896.125-9.625.214-1.9.264-1.194.031-1.577-.177-2.428-.199-1.538.13-.683.273-2.228 2.086-2.351 2.6-.743 1.013-.923.79-.714.554-1.648.866-3.65 1.564-3.102 1.024-.995-.04-.781.064-.363.2-.406.349-.48.236-1.218.226-2.498.312-2.826.538-.664.1-.354.112-.173.17v.179l.138.216.204.153.748.512.773.434.566.467.222.436.024.602-.184.73-.43.743-.788 1.167-1.083 1.085-.836.834-.825.381-.492.097-.874-.204-.338-.172-.265-.414-.374-.417-.214-.115-.34-.022-.34.215-.46.29-.874.673-.677.575-.597.57-.744.806-1.052.914-1.003 1.021-.51.377-.813.32M406.749 458.625l6.406-.046.017 4.835M542.789 514.111l1.107.042 1.348-.204 1.513-.429 1.98-.446 1.402-.18 8.331.007 10.908.275 7.97.12 4.766.19 5.256-.127 3.108-.078 9.688-.032 2.865-.108 1.945-.123 2.789-.51 1.646-.359 5.28-1.456 3.85-1.568 1.11-.865.789-.922.74-1.54.344-1.02.502-2.237.241-1.167.149-.864.181-.508M457.537 531.043l1.758.94 1.06.78 1.361 1.602M463.745 537.36l-1.52-2.395-.509-.6M451.158 549.588l.534-.514.535-.528.636-.637.588-.684.618-.666.679-.63.708-.673.81-.612.823-.564.822-.582.81-.769.577-.888.408-.985-.024-.954-.024-.99.018-1.009.222-.972.408-.793.474-.66.366-.42.24-.252.205-.264.125-.177M451.674 586.047l.042-.586-.066-.835-.038-.7-.119-.917-.032-.896-.016-.767-.032-.907-.016-.675-.008-1.013v-.999l.015-1.02-.024-1.075-.032-.872-.016-.927-.01-.673-.026-.59.004-.666.022-.578.142-.692.383-.713.491-.541.596-.52.661-.723.558-.534.326-.544.46-.705.112-.786-.136-.795-.307-.703-.458-.584-.733-.584-.992-.78-.649-.678-.36-.684-.252-.852-.012-.877.012-.87-.009-.695-.008-.815-.008-.802-.008-.844v-.802l-.032-.767-.097-1.032-.056-.853-.016-.611.056-.507.172-.87" clip-path="url(#pc7d1fba952)" style="fill:none;stroke:#000"/><path d="m374.237 562.084 8.786-1.934 1.32-.257 1.075-.408 1.49-.937 2.048-1.018 2.476-.974 1.521-.886 3.26-1.848 1.554-.67 3.172-.887 2.64-.752 2.826-.38 1.738-.126 2.673-.148 2.858-.077 1.578-.05 1.787-.133 1.956-.274 2.029-.577 1.118-.218 1.031-.028 2.777.33 1.272.277 1.964.703 1.787.814 3.285 1.104 2.013.746 4.258 2.257 1.062.457 3.075 1.104 1.53.514.783.202.554-.028.458-.378.314-.915-.072-2.257.112-.807 1.707-2.555.7-.964.406-.518M348.687 625.814l1.472 1.75 1.759 2.292.276.222.384.06.33-.132.469-.558 1.38-2.851 2.047-3.283.504-.36 1.069-.397 1.086-.324 2.005-.138 1.945.282 4.028.973 1.044.366 1.633.402 6.218.936 6.075.192 1.669-.066 1.836-1.152 2.39-.973 1.59-.852.78-.264 1.105.072.426.168 1.65.06.775.396.654-.06.355.21 1.158.054 2.353.529.696.024 1.561.39.606-.054 1.915.948 1.837.9 1.374.517 1.693.558.768.096.547-.348.408-.75-.06-.715-.09-.66.114-.732.39-.835.93-3.073.277-.546.396-.462 2.083-.054.708-.229.816-.084 2.737-1.32 1.129-.799.51-.18.63-.354 1.225-1.11.678-1.429.192-.726.589-.492 1.326-.397 1.423-.354.726-.306 1.074-1.032.877-1.183.516-.516.87-.024.81.162 1.147.642 1.429.144 1.519.175 1.494-.115 1.38-.606 1.19-.714 1.962-.864 1.267-.54 3.445-.799 1.045-.678.66-.913.234-.516.042-.54.204-.612.474-.559 1.219-.954.894-.984.288-.505.63-3.445-.1-4.698-.272-4.266.09-.805" clip-path="url(#pc7d1fba952)" style="fill:none;stroke:#000"/><path d="m348.747 603.207 1.01.158.643-.036 1.361-1.399 1.054-.45 1.144-.183 1.03.063.572.317 1.344.836.556-.055.692-.535 1.022-1.505.749-.605 2.978-1.462 3.22-1.21 1.924-.422 2.238-.514 2.27-.83 2.633-.506 1.424-.239 2.126-.274 3.3-.415 3.728-.464 1.529-.183 2.761-.577 2.165-.513 3.486-1.034.62-.351 1.457-1.371 2.037-1.78 2.342-1.94.306-.184 3.34-1.132 4.18-1.033.876-.057 1.111.148.805.077 2.31-.155.854.05.636.168.41.408.564 1.414.234.387.571.323 3.091.612 1.252.485.632.725.547.977.419.943.644.47 1.054.64 3.18 1.358.837.02 1.12-.26 3.59-1.322 1.537-.653 1.224-.373 1.369-.106.539.078 1.127.724.563.084.483-.07.79-1.11.957-3.84.073-.366.394-.275.652-.056.87.281 1.24.605.877.106 2.407.126 1.847.102M348.747 603.207l-.19.748.097.9-1.803 4.585-2.544 3.883-.323.9-.128.9.064.338.387.506 3.703 2.757.354.394.257.506.29 2.87-.224 3.32M346.012 396.565l-.136 6.037M346.012 396.565l-8.221-.075M345.876 402.602l12.373-.513M304.105 389.253l-.548.089-.41.155-.242.217M300.627 398.88l1.811-4.122.274-1.829.185-2.476.008-.739" clip-path="url(#pc7d1fba952)" style="fill:none;stroke:#000"/><path d="m297.214 371.382-.741 1.132-.78.992-.33.69-.307.809-.716.97-.66.71-.982 1.26-.653 1.295-.418.984-.418 1.197-.202.808-.024.472.137.549.266.766.531 1.337.12.352.057.38-.113.359-.241.618-.46.859-.547.88-.33.836-.12.394.032.387.17.31.305.414.314.141.507.043 1.57-.247 1.61-.408 1.553-.365 1.787-.507 1.216-.17 1.07-.111 1.94-.064.339.099.21.161" clip-path="url(#pc7d1fba952)" style="fill:none;stroke:#000"/><path d="m256.474 399.022 2.393-1.06 4.697-2.542 2.278-1.57.967-.907.918-1.632.869-1.217 1.095-.865 1.159-.527 1.763-.465 2.89-.556 1.81-.682 1.192-.534 1.41-.887 4.233-3.517 5.016-4.348 1.304-1.83.795-1.32.509-.698.823-.655 1.664-.886 1.659-.618 1.296-.324M183.513 435.693l.775-.458 2.028-1.168 2.383-1.688 2.173-1.998.83-.464.86-.063.532.288.387.57-.141.823-.568.872-3.059 3.995-2.19 2.04-.53.591-.114.633.226.745 1.33 3.778 1.351 2.997 1.618 2.75 1.345 2.652.692 1.153 1.086 1.062 1.063.45 2.254.043 2.81-.19 7.446.654 1.787-.112 1.61-.38.82-.394.146-.563-.226-.59-.66-.634-1.722-.605-1.916-.816-.596-.506-.29-.844-.354-1.885-.322-2.617.25-1.174.546-1.09.782-1.535.99-1.25 1.827-1.816 1.972-1.63 2.649-2.127.934-1.027.773-1.069 2.744-4.29 4.984-6.824.83-.997 4.09-2.931 4.384-3.91 1.789-1.602 1.19-1.69 1.123-2.367 1.384-3.323.875-1.329 1.302-1.133 2.303-1.006 4.353-.974 8.023-1.698" clip-path="url(#pc7d1fba952)" style="fill:none;stroke:#000"/><path d="m254.5 450.077-.499-2.054-.096-.915.048-.773.354-1.492.322-1.28.08-.605-.064-.478-.467-1.857-.483-1.745-.16-.563-.387-.435-.725-.31-1.127-.296-1.191-.183-.821-.21-.902-.647-.692-.817-.322-.815-.177-1.239-.017-1.955.13-1.871.305-1.885.306-2.49.145-.83.097-.662.209-3.25.58-5.43.048-2.195.032-2.87.435-3.334v-1.112l.129-.76.209-.576.611-.676.757-.76 1.369-.872 1.884-1.125 1.497-.9.557-.788M399.43 433.478l-2.202-.016M442.594 512.04l-.076-1.182-.33-2.113-.234-.739M425.94 494.709l.542.496 1.545 1.309 1.61 1.167 3.019 2.096 2.117 1.625 2.294 1.864 1.409 1.238 1.707 1.716 1.191 1.16.58.626" clip-path="url(#pc7d1fba952)" style="fill:none;stroke:#000"/><path d="m498.12 481.237-2.198-.05-1.53.162-.894.359-1.666 1.048-3.236 1.751-.982.33-.846.113-1.473.008-1.907-.212-2.423.042-2.609.38-1.07.282-1.659.802-1.207.619-1.208.302-3.936.035-1.78.211-2.615 1.126-2.166.991-3.398 2.082-.876.647-3.438 3.088-1.119 1.21-1.522 2.314-1.384 1.618-2.154 1.846-2.861 2.064-1.61 1.716-1.03 1.238-1.37.647M442.594 512.04l9.35-.591M441.6 515.518l.38-1.168.413-1.227.2-1.083M441.6 515.518l10.577-.45M542.789 514.111l-1.771-.485-3.095-.5-.656.053-.902.3-2.447 1.392-.99.274-.838.035-1.143-.084-2.343-.746-1.054-.098-1.087.007-2.237.176-1.12-.085-1.211-.274-.753-.056-2.544-.14-2.077.048-3.614.338-1.783.018-2.967-.04-1.928.286-1.577.299-1.377.372-4.053 1.175-2.584 1.013-.749.225-.745.112-1.641-.169-1.651-.21-.535.126-.584.278-3.353 2.887-3.723 3.397-2.201 2.286-1.296 1.213-.733.475-1.45.914-.434.538-1.167 1.207-1.578.548-1.715.14-1.48-.224-1.128-.267-1.079-.718-1.248-.302-1.52-.036-.894.183-.733.281-.974.225-.748.021-.87-.21-1.248-.426-1.389-.229-.687.163-.704.47-.844.756M451.944 511.449l.233 3.619M456.597 506.923l-3.328 3.693-.403.393-.922.44M452.177 515.068l.178 1.298M468.033 543.757l-1.593-2.5-1.48-2.248-1.215-1.648M462.183 548.094l.487-1.458.697-1.769.459-.696.829-1.006.193-.513.024-.401v-.661l-.591-2.423-.536-1.806M461.656 550.376l.234-.856.293-1.426M468.033 543.757l-1.526 1.306-1.187 1.456-.233.748.03.64-.246.236-.252.032-2.436-.08M491.416 574.001l-5.504-4.853-4.112-4.202-2.655-3-2.412-3.3-3.56-5.367-1.442-2.578-2.338-4.455-1.36-2.49" clip-path="url(#pc7d1fba952)" style="fill:none;stroke:#000"/><path d="m483.954 540.03-11.49 1.813-1.366.317-1.256.457-1.809 1.14M537.315 549.938l.402-1.927.08-.647-.353-2.602-.113-1.168.306-1.21.91-2.039 3.099-6.414 1.32-3.643.185-.613.008-.723-.45-3.475-.564-2.25-.032-1.309.523-3.087.141-1.643.052-1.748-.04-1.329M367.116 386.711l-1.495 1.074M390.893 433.415l6.335.047M397.262 444.875l-1.21-.847-1.45-1.407-.963-1.231-.772-1.463-.583-1.78-1.39-4.732M386.047 421.551l-.193 11.753 5.04.111M218.727 131.425l-1.458-1.73M218.727 131.425l.923 1.083M218.727 131.425l-.06.298.096.484.255.24.632.06M219.6 130.681l-.525.27-.348.474M219.6 130.681l-.736-.19-1.595-.797M220.893 133.878l-.196-1.774M220.893 133.878l-1.243-1.37M230.929 145.988l-2.247-1.35-3.301-4.757-2.791-4.253-1.697-1.75M219.65 132.508l.484-.014.334-.195.229-.195M220.88 131.335l-.01.273M220.697 132.104l.172-.496M287.303 119.2l-2.263 2.785-1.15 2.465-2.61 4.747-16.499 7.03-4.803-1.187-8.876-4.29-17.23.365-4.804-1.279-2.715 1.552-5.484.22M378.718 415.124l-4.578 1.79M374.68 409.679l.901.999 1.746 1.92.625 1.038.766 1.488M374.14 416.914l-3.1-4.316M369.133 397.692l-8.043.38M361.09 398.072l-.61-3.331.016-.264.133-.101.21-.057 7.087-.33.41.101.129.317.668 3.285M358.692 398.179l2.398-.107M361.872 401.94l-3.623.15M361.872 401.94l-.782-3.868M515.37 417.156l-.378.465-.684.619-1.176.802-1.561.836-1.054.522-.806.245-1.351.264-.834.318-.658.336-.56.288-.533.36-.467.523-.337.787-.323 1.096-.16.77-.064 1.04-.049.742-.063.954-.252.857-.119.734-.02.87.09.728.049.587.032.486v.64l.105.444.236.497M565.715 277.282l-5.522 3.075-5.168 2.272-2.286.803-.242.31-.056.83.37 1.196.757 1.71 1.876 3.292.153 1.112-.049.633-.185.704-.314.69-.483.717-2.962 3.103-.54.88-.265 1.329.032 1.16.354 1.148.072.907-.104.718.08.724.226.633.402.697.564.43 1.666.78.934.394 1.755 1.098 2.954 2.54 1.24 1.301 2.157 3.012 1.039 1.414.917.999 1.369 1.266.515 1.133.073 1.71-.057 1.857-.33 3.067-.628 2.786-.813 2.456-.49.386-.42.078h-.66l-7.462-.71-7.406-.591-16.31-1.098-3.397-.844-1.32-.169-2.825.31-1.248-.022-.994-.155-.27.085-.234.24-.148.685.136.654.524.49.757.21 1.469-.056 2.145-.221.362.098 3.22 2.434.789.387 1.083.996.696.7.617 1.065.533 2.197.153.386.634.524 1.24.38 3.68.76 2.64 1.12.799.594.567.783 3.795 3.624 2.424 2.313 2.324 3.697.897 1.211 1.478 1.151 1.38.667 1.05.27.511-.013.68.098 2.64 1.034 1.933.833 2.717 1.517 5.287 2.48 6.646 2.87 2.367.942 3.536.998 12.396 1.236 3.18.673 4.195.392 1.652.526 1.45.636 1.393.9 1.1 1.114.77 1.212.186.703.13 1.029.007 1.5.122 1.753-.01 1.655-.344 2.155-.567 1.835-1.75 4.584-.358 1.206-.322.667-.406.447-1.113.52-1.298.138-.803-.028-4.904-.598-3.124-.697-3.114-.18-2.738-.376-2.898.064-1.022-.085-1.305-.246-.917-.287-2.037-.803-2.404-.813-2.962-.545-5.028.374-3.474-.11-.826-.08-1.68.245-12.137 2.368-.988.404-1.239.82-.98 1.04-.981 1.053-1.534 1.157-1.839.84-1.165 1.253-1.1 1.744-1.141 2.1-1.877 2.6-.735.893-.68.6-1.919 1.083-2.227 1.17-1.904.788-1.495.466-.936.073-4.88-.434-.75-.233-.756-.413-.697-.242-.955.075-.354.281-.418.648-.66 1.4-1.12 1.519-.925.816-.717.837-2.302 3.777-.136.401M586.436 272.35l.523.668.484 1.007.45 1.604.226.844.49 1.084.894 1.23.813 1.028M585.994 271.653l.442.697M589.39 292.142l.717-.454.495-.482.596-.71.245-.605.17-.68.192-.95-.015-.636-.162-.704-.475-1.47-.305-.584-.46-.514-.506-.246-.628-.493-.37-.57-.379-.576-.37-.457-.58-.373-1.24-.627-.829-.717-.426-.542-.29-.83-.298-.922-.073-.605.033-.69-.177-.71-.016-.725.136-.623.13-.214.293-.166.221-.06.689-.334.26-.14.25-.187.194-.2.133-.268.004-.292-.113-.436M583.764 296.568l.788.077h.79l.756-.12.83-.295.772-.507.942-.506 1.586-.549 2.544-.928 1.167-.578.926-.584 1.215-.957.91-.738.531-.38.87-.725M565.56 271.288l.099-.38.129-.985.089-1.633-.153-1.935-.21-1.28-.04-.81-.12-1.575-.154-1.182.016-.395.17-.964.024-.915.024-1.414-.024-1.421-.29-1.414-.298-1.014-.45-.563-.669-.555-.556-.781-.708-.725-.628-.323-1.079-.226-.974-.19h-.635l-.79.078-.877.21-1.698.718-.7.408M565.715 277.282l-.563-.76-.374-.19-.085-.077-.044-.105v-.11l.064-.112.628-.883.318-.493.113-.281.032-.356-.04-.587-.03-1.342.003-.37-.06-.225-.117-.103M551.74 265.574l.46.591.193.528.007.556-.04.534-.145.451-.603.725-.902.928-.692 1.14-.894 1.57-.877 1.744-1.08 1.668-1.062 1.83-.724 1.062-.195.288-.028.17.028.117.074.116.117.048.157.003.27-.069.663-.314 1.615-.87 1.3-.668.91-.327 1.971-.514 1.425-.492.491-.205.42-.013.74-.036.813-.197 1.417-.372 1.594-.613 2.214-1.273 2.133-1.28 1.765-1.12.154-.031.131.039" clip-path="url(#pc7d1fba952)" style="fill:none;stroke:#000"/><path d="m589.39 292.142-.257-.221-.708-.49-.999-.415-1.255-.26-1.844-.317-.982-.21-1.642-.317-1.795-.218-2.31.133-1.764.12-1.425.133-.563-.055-.322-.12-.153-.176.064-.401.636-1.02.491-.908.596-1.077.459-.534 1.123-1.031 1.211-.925.616-.5.222-.31.515-1.224.092-.291-.024-.25-.237-.151h-.25l-.438.256-.802.281-1.85.268-2.335.028-2.11-.028-2.527-.281-2.06-.043-.597-.056-.225-.211-.113-.45.048-1.478.016-1.365-.177-.746M583.764 296.568l.676-.317.467-.204.443-.324 1.11-1.147 1.055-1.182.934-.626.942-.626M414.168 482.548l1.625 3.662.866 2.328.082.642M418.65 514.58l-1.633-1.108-1.55-1.274-1.445-1.483-1.163-2.061-.804-1.744-.226-1.97v-1.998l.386-1.8.741-1.829 2.85-4.751.492-1.27.375-1.666.08-1.198-.012-1.248M418.086 490.066l-.5-.305-.845-.581M498.12 481.237l.458-.584.282-.837.338-.943.362-.513.998-1.006.7-1.02.62-.527 2.415-2.399.484-.893.104-.746.048-3.643.016-.887.21-.66.467-1.035.708-1.245.926-.787 1.4-.781.298-.267.145-.38.04-.753-.37-2.138-.088-.97-.04-1.977.08-.422.378-.26 1.151.07 2.608.738.685.197.45-.176.186-.485-.242-.443-3.936-2.575-1.063-.394-.95-.042-2.27.302-1.103.113-1.723.036-7.72-.085-1.328-.14-.506-.219-.781-.246-.677-.035-2.214.091-.982-.077-.611-.204-.604-.415-1.055-1.245-1.602-2.504-.724-1.013-.805-.873-2.125-1.167-1.297-.626-3.46-1.055-1.055-.767-.338-.908.024-.724.66-3.256M323.406 403.154l-5.503.159-2.867.013-1.094-.126-1.368.042-1.361.105-1.763.331-1.763.078-1.208-.014-1.368-.057-1.313.07" clip-path="url(#pc7d1fba952)" style="fill:none;stroke:#000"/><path d="m304.105 389.253-.419.87-.16.689.071 1.942.113 1.885.234 1.737.016 2.027-.016 2.103-.09 2.124-.056 1.126" clip-path="url(#pc7d1fba952)" style="fill:none;stroke:#000"/><path d="m303.22 414.962.482-6.5-.096-1.309.192-3.397M285.203 412.443l1.223-3.981.403-1.224.306-.704.435-.337 1.642-.999.419-.31.37-.042 1.747.14 1.151-.105 1.666-.507.62-.119 1.473-.077 2.56-.183 2.037-.148 2.543-.091M397.262 444.875l-.034-11.413M397.228 433.462l.09-7.582M397.317 425.88l5.98-.043M374.68 409.679l-3.64 2.919M367.813 415.356l3.228-2.758M382.673 414.13l-.651.88-.148.311-.024.409 1.369 3.41M287.303 119.2l.556-.684 1.88-7.851-.21-6.848.21-6.755M447.91 366.485l1.852-.855 2.866-1.126 4.154-.309 1.707-.31.547-.31.612-.403 1.006-.851.781-.922.112-.524.05-.468-.58-1.948-.097-4.257M427.381 335.744l.038-.323.206-1.586.088-5.41.338-1.315 1.087-2.505.096-1.006-.33-.676-1.344-1.189-.917-.915M377.755 381.23l2.938-1.92.813-1.16.49-1.091.122-1.077-.113-.872-.515-.753-2.182-2.201-1.754-1.977-.387-.64-.109-.605.226-.64.447-.433 1.09-.567 1.936-.988.644-.113.673.036.357.217.451.31 1.192 1.21.934.647.708.169h.612l2.093-.282 1.393-.08 1.634.52.628.092 1.078-.07 3.913-.732 1.69-.415 1.272-.485.982-.377 1.498-.116 2.213.324.942-.077 2.471-.268 1.973-.155 1.626-.337 1.046-.38 3.293-1.218 3.107-.562 5.691-.419 1.61-.056M447.91 366.485l-.764-.014-1.344-.053-1.908-.165-3.277-.68-4.411-1.153-3.123-.563-1.868-.197-4.733.029M427.381 335.744l-.087.75.178 6.874.088 1.42.153 3.195.145.404.234.23 1.9 1.533.265.62-.242.61-.62.733-1.658 1.245-2.603 2.237-.512.458-.189.464.052.59.274.493.515.56 1.654 1.178.359.714-.045.78-.76 2.857M524.08 389.605l-1.119 1.378-.665.453-1.092.302-.697-.045-.939-.557-.99-.832-2.676-3.293-.752-.958-.53-.927-.035-.6.435-2.105-.31-1.342-.322-1.154-1.371-1.849-.854-.771-1.289-.943-1.348-.433-.87-.225-1.094-.113-2.15-.158-3.646-.123-2.898-.028-2.045.13-1.038.1-3.124.773-1.079.106-.837-.163-3.75-.956-1.523-.542-.917-.155-.822-.025-.571.089-.45.33-.572.33-1.039.17-1.545.063-17.992.102-3.293-.045-.628-.099-.458-.274-.596-.584-.773-1.822-.644-1.076-3.317-4.067-.845-.914-.54-.232-1.038-.063-1.521.027M350.65 572.046l3.767-1.699 3.325-1.561 8.364-3.683 5.31-2.12 2.82-.9M365.97 551.914l.426.837.193.21.459.177.821-.029 2.222-.203.668.042.685.337.652.408.467.162 1.416.19.161.105.153.395.049 3.192-.105 4.347M348.747 603.207l1.033-4.063.335-4.851.213-1.241.563-2.465.017-1.048-.306-1.78-.645-1.209-.177-.713.065-.848.354-4.114.242-2.926.21-5.903M392.51 471.516l-.245.253-1.039 1.024-2.048 1.93-1.103 2.244-.616.31-.922.105-.902-.162-2.737-.619-3.075-.815-1.167-.183-1.03-.148-2.037-.05-1.867-.077-4.468-.316-1.433.133-1.256.366-.982.275-.773.133-.62.17-.99.224-1.368.31-1.047.316-.982.302-.74.493-.926.837-1.224.928-1.69.953-5.861 2.335-.797.292-1.167.805-1.043.94-2.6 2.715-1.034 1.413-.5 1.014-.386 1.18-.394 1.977-.258 2.37-.153.669-.467.303-.523.02-.982-.358-3.212-1.308-1.393-.366-1.022-.218-1.224-.042-2.407.225-1.803.359-1.867.456-1.619.697-3.099 1.767-2.318 1.23-1.441.703-1.055.647-1.77 1.463-2.376 1.962-.442.59-.596 1.703-.395.886-.974 1.413-.805.81-.917.675-1.07.59-.701.316-.616.4-.306.31-.306.67-.89 2.609-1.134 3.376-.596 1.835-.153.704.008.816.217.513.323.563 1.054.795 1.063.557 2.648 1.172 2.97 1.59 1.98.964 2.432 1.153.805.387.918.253 4.314.98 1.9.562 2.35 1.21 2.223 1.435.869.815 1.256 1.52 3.67 4.895.967 3.207 1.03 1.615 2.383 1.688 3.59 2.785.443.584.79 1.505.2 1.302.065.984.235.803.376.54 1.602 1.393 1.49.9 2.737 1.47 1.07.872.089.457-.057.71-.321 1.534.024 1.47.064 1.483.27 1.08.1.854.028.992-.076 3.049M382.188 287.497l.61-.222 1.851-.266 1.151-.312 1.396-.817.37-.65.061-.91-.24-1.042-.357-2.334-.885-2.388-.591-1.15-.222-.866-.073-.866.06-1.958-.159-1.57-1.07-1.914-.271-.871-.037-.649-.246-.534-1.462-1.892-.032-1.014.611-1.632-.16-1.098-.548-1.576-1.095-2.224-.58-.76-.45-.9-.515-.62-.676-2.167-.194-6.755.065-.844-.194-2.928-.257-1.97-.258-1.239-.772-2.11-.902-1.83-.258-.957v-.62l.13-.422.386-.59 1.416-.845 1.417-1.013.87-.394 1.255-.789 1.03-1.238 1.095-1.548.29-.788.58-2.533V223.7l-1.868-5.573-.16-1.464-2.03-2.364-3.348-5.067-.708-1.717-.677-1.21-2.672-2.224-1.062-1.295-2.061-7.008-.065-4.7-.16-2.309.096-.309-.708-2.224-1.74-3.434-.224-.985-.258-2.055-.516-1.886-.547-1.125-.547-.816-.483-.507-2.06-1.463-3.575-2.28-2.029-1.549-1.352-1.21-1.835-2.027-1.03-.816-2.061-1.182-2.994-1.323-3.768-2.392-2.672-1.352-5.023-3.94-3.413-1.52-3.96-.76-1.61.282-5.12 1.294-1.417.029-.902-.282-.644-.62-.386-.984-.87-5.01-.74-2.336-.612-1.211-.321-.422-2.544-2.73-.838-1.21-.611-1.802-.451-2.14-.548-1.378-.901-1.52-1.803-2.506-1.545-1.491-1.095-.704-4.347-2.308-6.31-2.955-5.733-3.378-2.167-1.031M238.746 151.94l-3.172-2.895-3.99-2.663-.655-.394M238.746 151.94l-.997-.028-.709-.088-.944-.31-1.654-.65-1.62-1.017-.86-1.047-.777-1.328-.256-1.484M405.06 468.168l-5.425-.81-2.544-.217-1.506.084-1.191.24-.563.4-.653.816-.273.739-.193 1.737-.202.36" clip-path="url(#pc7d1fba952)" style="fill:none;stroke:#000"/><path d="m412.08 477.62-4.827-.265-7.208.168-7.424-.05-.324-.157-.148-.528.361-5.272M409.58 469.715l-1.026-.137-.782-.28-2.712-1.13M412.08 477.62l-1.117-2.754-.612-1.936-.772-3.215M390.836 527.713l2.608-.168 1.433-.021.958.014.861-.183.918-.556 1.216-.28 4.411-.88 1.103-.549 1.578-1.013 1.272-1.392.144-.437-.048-.45-.113-1.406.202-.935.435-.507 1.617-.647 1.12-.19 2.326.063 1.087-.14 1.191-.289.652-.52 2.843-2.647M498.12 481.237l2.535-.042.837-.113 1.82-.682.965-.085 1.329.036 1.014.175 1.94.591 1.345.112 5.57-.182 3.043-.148 1.119-.176 2.6-.858 1.755-.668.708-.056.733.196 1.851.563.966.204 1.699.19 4.46.063 4.218-.231 2.85-.254 3.96-.176 1.755-.112.886-.226.644-.499.708-1.449.467-.366 1.618-.59 1.32-.74 1.328-.948.814-.675 1.062-.38 1.506-.493 1.408-.69 1.143-.59 1.232-.14 1.441.02.845-.105.652-.436 2.68-2.139.589-.274 1.392-.309 1.071-.31 1.079-.07 1.224.035 3.18.514M491.416 574.001l.947-.883.355-.76.128-1.069.145-5.823.338-.83.596-.428 1.49-.31 5.111-.302 8.235-.471 2.617-.38 2.342-.387.523.063 1.562.731M504.514 589.834l-.396-1.922-.382-1.414-.695-1.322-1.194-1.763-1.557-1.768-7.24-6.203-1.634-1.44M459.583 291.073l1.031.126 1.988.085 2.013-.057.563.036.58.45 1.715 1.492.837.323.748-.063.934-.408 1.425-1.998 1.167-1.57.443-.316 1.256-.296 1.11-.133 5.765-.056 1.561.014.653.14.555.345 1.747 2.216.483.852 1.03 2.026.193.696.217.43.29.513.057.465-.129.633-.877 1.696M459.583 291.073l1.369-.915.982-.887.805-1.182.773-.872 1.304-1.055 3.751-2.196 1.578-1.294.805-.837.298-.634.274-2.575.298-.577.515-.204 2.294.021 1.409-.183 1.199-.338 1.868-.576 1.006-.17 1.795-.21.894-.211 1.063-.402 1.762-1.027 4.396-2.259 1.779-.689 1.988-.5 2.673-.731 3.823-.739 1.731-.57.822-.486 1.038-.463 2.19-.465 1.545-.493 1.602-.534.845-.085 4.758.148 6.947.042 6.569-.042 5.538-.07 1.98-.127 2.416-.127 3.493.029 1.74.168.949.212.724.351 1.128.957M410.538 296.546l2.484.19 1.393-.098 1.44-.33 1.272-.641.685-.774.575-1.569.347-.267.467-.053.422.155.819.477.79.221.873.04 1.873.089.926.19 3.413 1.308 2.44.584 1.593.317 2.036.02 1.217-.077 1.85-.204 1.62.008 3.066-.099 1.255.162 3.849.774 2.43.267 2.045.091 1.135-.056 1.788-.267 1.497-.486.717-.57.193-.872-.604-1.386.112-.577.5-.436 2.527-1.604M410.538 296.546l-.56-.09-1.883-.543-2.817-1.182-1.94-1.076-1.377-.387-1.497-.057-1.538.627-3.027 1.738-3.373 1.927-.571.12-.41-.162-.87-1.125-.749-.683-1.086-.725-.427-.38-1.602-1.9-2.721-3.084-1.902-2.067M427.381 335.744l.663-.488.812-.338.838-.035 2.068.437.612.112.853-.07 1.635-.718.942-.83.426-.696.129-.585.21-2.342.402-.97.58-.585 3.324-2.047.966-.859.54-.83.233-.985.024-1.231-.379-1.055-.796-1.513-.765-1.73-.733-1.303-1.215-1.794-2.745-2.997-1.127-1.132-.765-.662-1.022-.45-1.667-.556-.756-.464-3.752-2.688-2.02-1.696-.765-.393-1.892-1.056-1.223-.795-1.828-1.491-1.666-1.16-.556-.508-.644-.774-.467-.26-.7-.281-2.938-.69-1.191-.37-.488-.32M504.514 589.834l.824 4.002.451 2.532.483 1.547.548 1.238.772 1.321 1.418 1.548 1.149 1.058" clip-path="url(#pc7d1fba952)" style="fill:none;stroke:#000"/><path d="m504.514 589.834-.22 1.512v.999l.209 1.336-.025.682-.072 1.772.024.964.242.886.78 1.266.838.872.772 1.118 1.627 1.87.418.064 1.052-.095M425.94 494.709l-1.519-1.389-1.707-1.055-1.626-.858-.982-.366-1.344-.562-.676-.413M415.445 483.037l.813 1.055.564 1.224.933 2.66.33 2.09" clip-path="url(#pc7d1fba952)" style="fill:none;stroke:#000"/><path d="m415.445 483.037 1.57.24 3.824.45 3.936.288.628.183.41.4.137.564.017 3.98-.028 5.567M415.445 483.037l-1.277-.489M412.08 477.62l1.043 2.573 1.045 2.355M412.08 477.62l3.091-.062 2.488.056h1.28l.499-.155 3.099-1.357 2.198-.78 1.827-.317 4.395-.26 2.552.098.636-.099 1.208-.583M292.706 295.477l-.451.634-.161.52.032.577.322 1.407.225 1.126.355.844.837 1.337.386.844.177.605-.08.887-.193 1.787-.016 1.548.177.858.112.999-.129 1.112-.305 2.335-.387.929-.37 1-.048.703.145.774.402.703 1.369 1.59 1.127 1.055.499.465.16.535.049 2.068-.322 1-.386.759-.37 1.407.128.647.242 1 .032 2.476-.21 1.266M292.706 295.477l-2.318-1.604M290.388 293.873l.24-2.11.42-6.502-.033-3.771.08-1.858-.063-1.266-.339-1.042-.515-.9-1.127-1.562-1.562-2.631-.837-1.69-1.32-3.377-.048-.703.193-.746.595-1.506.122-.676-.05-.429-.24-.393-.556-.641-.725-.584-1.014-.633-1.215-.59-.298-.346-.024-.373.177-.274.338-.268 1.787-.556 1.328-.4.636-.198.765.036 2.15.267 1.553-.035M246.963 290.107l-.77-.09-4.202-.21-1.949.042-.788.098-.967.239h-1.03l-1.755-.366-2.882-.717-1.046-.17-.821.141-1.45.521-1.964.493-1.376.07-.628.056M209.742 304.525l1.497-.844 1.24-.478 1.642-.859 1.852-1.393 2.656-2.392.934-1.225.403-.703.29-.858 1.03-1.858.917-1.266.58-.507 1.046-.591.934-.563.403-.394.17-.38M184.553 262.992l1.957-.577 3.654-1.287 1.28-.592 1.393-.69 4.355-1.28 1.062-.225h.483l.46.12.41.372.692.697 4.855 3.328 2.64 1.837 2.318 2.244 1.079.472 1.988.372.669.36.402.351.25.78.031 1.31-.072 1.309.008 2.596.04 10.75.017 1.535.24 2.434.21.683.411.422.58.232.998.063 7.237-.408.483-.014.652.028M183.513 435.693l-1.463.864-1.513 1.815-.725 1.688-.644 5.416-.998 4.446-.709 2.828-.112 5.092-.226 5.585-.435 1.393-.323.421M322.588 434.763l.555-.358.394-.507.29-.619.226-.493.587-.773 2.488-3.489.885-1.562.918-1.181 1.015-1.042 1.56-1.477 1.353-1.52 1.305-.914 3.252-3.18 1.803-2.081 1.658-1.506 3.236-2.462.999-.563 3.655-2.011 5.57-2.997 3.204-1.703.66-.52.21-.59-.162-1.126M317.798 384.962l-3.824 1.2-1.996.549-1.192.337-1.948.858-.918.38-1.288.38-1.167.366-1.36.22M183.513 435.693l.291-.86.315-.4.708-.697 1.256-1.196.684-.978.805-1.983 1.256-2.645.628-.886.772-.704.29-.548.016-.577-.257-.662-.403-2.04-.612-.886-.644-.59-.805-.31-1.69-.408-2.013-.099-2.608-.182-1.191-.24-1.272-.619-2.447-1.153-4.106-2.518-.644-.605-.901-.52-.862-.282-.41-.155-.298-.211-.725-.676-.491-.647-.845-.738-.225-.331-.065-.486.129-.998.346-1.414.161-1.998-.016-1.864-.346-1.442-1.014-3.116-.443-1.373-.274-1.835-.073-1.26-.337-1.28-.387-1.055-.418-.732-.652-.619-2.93-2.223-.846-.879-.555-.83-.395-.957-.402-.682-.161-.285.012-.307.104-.274.09-.256.051-1.242-.072-1.076-.37-.915-.451-.598-2.448-3.405M317.798 384.962l-.202 1.707.033 1.11.112.93.274.646 2.609 4.39.836 1.45.38.562.087.36-.088.28-.306.901-.024.57.45 2.56 1.447 2.726M184.553 262.992l-.434 1.013-.443.81-.604.738-.684.64-1.45.859-1.368.795-2.672 1.414-1.401.929-.548.24-.595.056-1.417-.775-2.447-1.66-.87-.169-.611.113-1.337.746-1.432.478-1.788.084-.982.17-.789.365-.467.591-1.513 2.378-.564.45-.627.423-.838.225-4.363.352-5.426.127-4.25.393-2.463-.07-2.947.084-1.126.028-1.144.296-1.288.436-3.67 1.52-1.402.774-.756.45-.95.296-.902-.07-.917-.352-1.32-1.154-.693-.788-3.525-4.799-.484-.303-.595-.034-1.111.239-5.024 1.9-1.85 1.013-1.321.83-4.525 4.25M184.553 262.992l-.934-.021-1.28-.408-1.24-.81-1.175-1.034-2.262-1.914-4.62-3.574-4.01-3.927-2.084-1.653-1.232-1.041-.443-.19-.434-.021-1.055.372-1.272.578-.87.478-1.062.303-3.655.794-3.365 1.162M246.963 290.107l-1.214 1.268-1.65 1.506-.281.387-.193.514-.443.879-.016.542.177.633 1.127 2.695M340.868 363.876l.017-2.306M340.885 361.57l-5.127-.087M332.224 361.396l3.534.087M331.278 369.052l4.314.03M335.758 361.483l-.166 7.598" clip-path="url(#pc7d1fba952)" style="fill:none;stroke:#000"/></g><g id="PatchCollection_1"><path d="m220.273 468.41-.025.383.212.141.4-.24.038-.164.7-.372.751.022.526.131.487-.021.389-.12.2-.34-.176-.35.576.132.45.197.1.218.163.077.75-.186.176-.251-.1-.514-.35-.186-.639.077-.575-.077-.738-.23-.313-.273v-.754l-.213-.317-.538-.328-.662-.339-1.101-.273-.063-.273-.313.033-.487-.318-.226-.098-.288.274v.743l.626.339.475.328.3.666.426.809.175.274-.338.349zM299.703 296.36h.496l.688.235.401.233.23.05.229.017.535.1.306.084.783.267.249.1.21.117.133.184.153.467v.268l-.076.2-.096.184-.401.3-.325.384-.19.134-.23.066-.249.017-.229-.05-.249-.083-.21-.1-.229-.084-.23-.033-.247-.05-.21-.084-.23-.15-.21-.117-.229-.15-.21-.117-.21-.15-.65-.718-.134-.234-.057-.2v-.435l.076-.2.134-.184.153-.167zM388.049 405.474l.439-.2.21-.084.344-.017.21.084.268.133.21.117.65.518.229.15.172.15.134.167.19.134.42.334.192.183.038.217.02.251-.04.267-.095.267-.114.217-.267.067-.23-.033-.267-.084-.249-.1-.496-.15-.23-.017h-.305l-.249.067-.248.016-.23-.05-.19-.116-.173-.151-.152-.2-.115-.234-.095-.284-.058-.217-.076-.467-.038-.534v-.218zM404.223 429.685l.083-.364.11-.315.722-.703.305-.17.333-.048.333.049.305.145.305.29.222.243.222.267.166.267.139.315.139.266.027.315v.316l-.166.363-.194.29-.222.219-.416.024-.333-.048-.444-.146-.5-.194-.304-.17-.277-.193-.333-.267-.14-.315z" clip-path="url(#pc7d1fba952)" style="fill:#00f;fill-opacity:.8"/></g><g id="PatchCollection_2"><path d="m386.764 410.417 4.444.239-.35 4.992-4.445-.238zM474.208 542.674l1.95-.286.464 2.414-1.95.286zM221.619 143.411l3.4-1.917 3.177 4.303-3.4 1.918z" clip-path="url(#pc7d1fba952)" style="fill:#90ee90;fill-opacity:.8"/></g><path id="PatchCollection_3" d="m472.275 543.47 1.587-.281.451 1.941-1.587.281z" clip-path="url(#pc7d1fba952)" style="fill:#006400;fill-opacity:.8"/><g id="PatchCollection_4"><path d="m381.743 420.788.38.88.41-.135.058.134.557-.183-.119-.277.495-.163-.21-.488-.332-.087-.195-.45-1.469.484.161.372zM381.312 421.707l-.345-.576.372-.17.346.576zM380.09 421.026l.804-.374.21.347-.805.372zM379.473 424.86l-1.397-2.786.698-.337.712 1.468-.184.103.465.862 1.434-.806.292.418zM383.734 424.152l-.335-.715.825-.295.244.52-.247.09.092.193zM383.825 425.02l-.29-.653.34-.116.29.655zM386.52 428.489l-.474-1.203 1.087-.328.475 1.203zM385.968 431.265h.459v.458h-.459zM386.745 432.789l-.006-.692h.216l.006.69z" clip-path="url(#pc7d1fba952)" style="fill:#a9a9a9;fill-opacity:.8"/><path d="m386.014 432.794-.008-.964.731-.005.008.964zM386.473 437.264l.12-.077.077-.111.023-.13-.035-.125-.088-.105-.127-.068-.148-.02-.144.03-.12.077-.078.112-.023.129.036.126.087.105.128.067.147.02zM387.407 434.573l-.162-.577.324-.069.161.577zM385.89 435.843l-.043-1.607.92-.019.043 1.608zM384.074 438.91l-.161-.361.62-.211.16.36zM383.365 439.093l-.113-.626.41-.056.113.626zM388.345 435.557l.99-.144.086.451-.29.043.044.23-.7.102zM389.612 437.704l.019-.332.837.036-.018.33zM388.55 437.992l.104-.52.614.094-.104.52zM389.757 438.54h.942v.45h-.942zM391.509 440.617l.741.176-.15.483-.741-.176z" clip-path="url(#pc7d1fba952)" style="fill:#a9a9a9;fill-opacity:.8"/><path d="m391.148 440.074.494.117-.186.596-.494-.118z" clip-path="url(#pc7d1fba952)" style="fill:#a9a9a9;fill-opacity:.8"/><path d="m387.954 439.715.232-.746 3.077.732-.231.745zM391.625 443.303l.04-.345.258.023-.04.345zM392.736 442.41l-.42-.275.243-.282.42.274zM393.154 443.486l-.194-.321.652-.303.194.321zM393.79 444.499l-.459-.725.59-.285.459.724zM394.612 444.344l.643.492-.396.396-.644-.492zM395.48 445.772l-.48-.374.644-.633.481.373zM395.77 446.574l.588-.5.466.419-.587.499zM397.695 447.15l.901.05-.055.772-.902-.049zM401.09 458.798l.015-.433.416.01.004-.157.205.005-.02.59zM400.7 456.828l.012-.502.756.014-.012.502z" clip-path="url(#pc7d1fba952)" style="fill:#a9a9a9;fill-opacity:.8"/><path d="m400.69 457.251.01-.423.756.014-.01.423zM399.594 457.244l.024-.618.514.015-.024.618zM400.543 456.227l.015-.536.353.008.002-.07.427.01-.01.354-.055-.001-.007.25zM399.465 456.284l.02-.58.413.01-.02.58zM400.153 455.066l.006-.289.399.008-.007.288z" clip-path="url(#pc7d1fba952)" style="fill:#a9a9a9;fill-opacity:.8"/><path d="m400.146 455.359.007-.293.398.007-.007.293zM400.507 454.421l.802.008-.003.175h.083l-.004.253-.224-.002-.005.331-.526-.005.006-.451-.133-.001zM403.299 452.38l-.026-.445-.294.012.007.134-.067.003-.01-.175-.317.014.022.385.218-.01.005.085-.12.005.002.058-.21.01.016.293.622-.027.003.046.535-.023-.022-.382zM402.652 454.799l.805.002v.326h-.107v.347l-.572-.001v-.352h-.127zM403.314 454.325h-.692v-.31h.692zM403.314 454.016h.547v.689h-.547zM402.58 457.547l-.015-.57.52-.011.016.57zM395.28 473.127l.484-.397.603.563-.484.397zM393.621 472.416l1.039-.056.041.587-1.038.056zM394.153 470.37l.644.126-.16.62-.644-.128zM394.627 469.673l.604.183-.146.368-.604-.183zM397.292 468.111l.14-.552.764.147-.14.553zM403.462 468.917l.115-.438.616.124-.115.437zM407.784 471.452l.056-.398-.05-.005.071-.506-.305-.032-.03.216-.32-.034.018-.129-.386-.04-.041.298.142.015-.02.15-.137-.015-.022.164.578.06-.022.164.35.037-.005.042zM407.54 472.325l-.525-.065.063-.39.525.065z" clip-path="url(#pc7d1fba952)" style="fill:#a9a9a9;fill-opacity:.8"/><path d="m407.54 472.325.088-.549.47.058-.09.549zM391.179 468.68l-.3.008-.02-.653.299-.008z" clip-path="url(#pc7d1fba952)" style="fill:#a9a9a9;fill-opacity:.8"/><path d="m391.19 469.04-.032-1.013.898-.022.032 1.013zM369.842 474.759l-.009-.43.465-.006.008.43zM371.935 474.956l.023-.536.83.028-.024.536zM381.482 476.053l-.024-.59.602-.02.024.591zM381.385 475.378l-.006-.437.628-.007.006.436zM382.593 475.659l-.087-.65.756-.077.087.65zM383.285 475.835l.837-.268.195.466-.837.267zM392.93 492.976l1.545-.373.142.45-1.546.372zM392.993 492.631l-.065-.469 1.256-.133.065.468zM396.262 491.76l.043-.362.612.056-.044.36zM395.207 491.837l-.114-.58.797-.12.114.58zM414.914 489.587l-.125-1.21.966-.077.126 1.211zM413.884 494.34l-.274-.52.982-.394.274.52zM414.262 514.61l-.733-.625.441-.395.733.626zM413.11 513.535l-.29-.662.52-.173.29.66zM411.645 514.301v-.422h.491v.422z" clip-path="url(#pc7d1fba952)" style="fill:#a9a9a9;fill-opacity:.8"/><path d="M411.645 514.814v-.513h.491v.513zM418.663 517.984l.08-.545.35.038.019-.13.646.072-.097.675zM417.844 519.056l.25-.563.656.222-.25.563zM416.137 519.287l.58.388-.258.294-.579-.387zM423.358 520.905l-.198-.103.233-.344.198.103zM422.585 520.638l.274-.633.476.157-.274.633zM423.366 521.609l-.515-.197.12-.241.516.197zM423.81 521.062l.059-.643.772.053-.018.203.29.02-.04.44zM427.07 522.27l-.427-.345.244-.23.427.344zM428.317 523.071l-.66-.386.289-.376.66.386zM430.506 526.546l-.208-.549.526-.153.209.549zM431.304 527.2l-.415-.384.427-.351.414.383zM430.032 527.615l-.234-.37.282-.135.234.37zM433.22 530.144l-.202-.335.296-.136.201.334zM432.503 529.444l.54-.338.222.272-.54.337zM434.21 528.67l.942.282-.215.546-.941-.28zM435.771 530.175l.363-.9.478.147-.362.9zM444.042 531.357l1.056.101-.061.491-1.056-.1z" clip-path="url(#pc7d1fba952)" style="fill:#a9a9a9;fill-opacity:.8"/><path d="m443.74 531.329.117-.928 1.916.183-.116.928zM446.92 531.955l.62.006-.005.368-.62-.008zM448.112 531.687l.089-.64.66.07-.089.64zM448.877 531.743l.08-.52.65.077-.08.52zM449.143 532.405l.692.027-.016.3-.693-.029zM450.479 531.638l.716.063-.052.451-.717-.064zM452.958 533.037l.104-.606.805.106-.104.606zM452.636 532.229l.093-.764 1.368.126-.092.765zM456.452 532.602l-.163-.492.692-.176.164.492zM458.615 534.711l-.451-.454.298-.226.45.454zM459.03 534.396l.51-.386.488.49-1.06.803-.487-.49z" clip-path="url(#pc7d1fba952)" style="fill:#a9a9a9;fill-opacity:.8"/><path d="m459.03 534.396-.67-.675.51-.388.67.677zM457.418 535.57l.942-.05.028.405-.942.05zM462.059 538.54l.864-.382.303.523-.864.382z" clip-path="url(#pc7d1fba952)" style="fill:#a9a9a9;fill-opacity:.8"/><path d="m461.895 537.69.603-.266.425.734-.864.381-.425-.734z" clip-path="url(#pc7d1fba952)" style="fill:#a9a9a9;fill-opacity:.8"/><path d="m461.895 537.69-.542-.937.603-.266.542.937zM460.63 539.79l.581.506-.368.323-.183-.16-.179.157-.398-.348zM459.317 542.757l.025-.654.751.021-.024.654zM457.418 544.691l.378-.183.184.29-.378.184zM458.086 544.516l-.432-.465.603-.43.433.465zM465.243 544.853l-.484-.303.197-.24.483.303zM465.693 545.043l-.36-.264.379-.394.36.264zM466.208 544.009l-.12-.809.556-.063.12.809zM467.44 547.294l.073-.62.64.058-.073.619zM467.9 550.215l-.458-1.23.93-.265.458 1.23zM467.303 551.422l.29-.247.171.154-.29.246zM466.177 550.726l-.113-.422.51-.105.113.422zM465.971 548.709l.141-.69.43.068-.054.262.44.069-.087.427zM464.728 549.13l.056-.866.708.035-.056.866zM465.56 547.057l.749.07-.05.403-.749-.07zM464.393 547.556v-.879h.5v.879zM463.427 547.035l.01-.382.346.007-.01.383zM462.678 547.493l.02-.389 1.047.043-.02.388zM462.963 549.23l-.568-.026.048-.809.568.026zM463.084 550.193l-.483-.162.114-.26.483.162zM463.19 550.6l.538.02-.012.231-.539-.02zM460.604 551.684l-.03-1.055.514-.012.031 1.056zM460.004 550.653l-.012-.408.57-.013.042 1.452-.57.013z" clip-path="url(#pc7d1fba952)" style="fill:#a9a9a9;fill-opacity:.8"/><path d="m459.427 550.665-.012-.407.577-.013.012.408zM470.439 553.173l-.334-.58.657-.29.334.581zM475.305 564.06l-.201-.153.458-.464.202.153zM475.152 563.694l-.298-.323.406-.285.298.323zM475.957 563.722l-.378-.33.19-.166.377.33zM476.094 563.406l-.369-.248.564-.64.369.248zM475.82 560.79l.491.267-.331.465-.491-.268zM476.746 562.625l-.606-.495.571-.535.607.495zM476.97 562.792l.458.464-.285.214-.458-.464z" clip-path="url(#pc7d1fba952)" style="fill:#a9a9a9;fill-opacity:.8"/><path d="m477.358 562.499.459.464-.389.293-.459-.464zM473.76 563.195l.555.239-.307.544-.555-.24zM473.196 565.023l.306-1.02.376.087-.306 1.02zM484.04 573.878l.086-.469.749.106-.087.468zM483.428 572.78l.732.05-.049.555-.732-.049zM485.078 572.766l.515.106-.104.388-.515-.106zM481.777 575.03l-.386-.036.065-.52.386.036zM480.852 574.995l.193-1.455.474.048-.194 1.455zM479.515 572.492l.21-.38.402.169-.21.38zM479.233 572.534l-.425-.186.29-.506.425.186zM514.18 563.638l-.38-.558.675-.351.38.557zM515.217 563.912l1.127-.429.16.318-1.128.43zM516.868 563.771l-.901-.843-.58-.774.227-.185.623.814.858.803zM515.072 561.788v-.33h.395v.33zM514.396 562.119l-.008-.586.644-.007.008.585zM495.173 559.278l-.113-.458.566-.106.113.457zM494.818 558.813l-.138-.513.685-.14.138.513zM493.41 560.888l.941.112-.112.72-.942-.113zM493.297 559.601l.012-.574.894.014-.012.574zM490.834 558.856l.028-.628.837.028-.028.628zM489.095 558.391l-.058-.152.314-.091.058.152zM488.507 558.623l-.047-.36.427-.042.047.36zM481.584 562.766l-.523-.774.714-.369.524.774zM479.733 560.902l.869-.281.247.582-.87.282zM479.188 559.84l.561-.161.094.249-.561.161zM479.04 559.882l-.157-.417.708-.204.158.418zM479.934 559.601l-.41-.577.297-.161.41.576zM477.551 556.95l-.378-.64.665-.3.378.64zM478.083 555.36l-.29-.38.224-.13.29.38zM476.03 555.234l-.142-.27.419-.168.141.27zM476.762 555.12l-.346-.575.399-.183.346.576zM472.754 550.001l-.041-.689.71-.032.04.69zM475.015 548.58l.741-.077.06.44-.74.078zM474.54 546.717l-.103-.498.708-.112.104.497zM471.78 548.855l-.073-.774.715-.05.072.773zM471.49 547.4l.877-.064.05.531-.877.063zM471.496 546.85l-.273-.677.412-.127.118.291.328-.1.21.52-.469.143-.054-.133zM471.667 545.782l-.094-.28.626-.16.094.28z" clip-path="url(#pc7d1fba952)" style="fill:#a9a9a9;fill-opacity:.8"/><path d="m471.2 545.901-.094-.279.467-.12.094.28zM470.266 545.254l.692-.204.203.524-.693.204zM470.033 544.08l1.916-.363.115.46-1.917.363zM470.033 544.08l-.279-1.126 1.835-.347.28 1.125zM479.065 542.202l-.113-.511.837-.14.112.51zM478.783 541.61l-.119-.604.99-.148.119.605zM480.843 540.253l-.088-.548.723-.09.088.55zM478.888 540.211l-.105-.78.453-.047.105.78zM478.01 540.176l-.016-.724.496-.009.016.725zM476.15 540.345l-.085-.68.733-.07.085.68zM475.048 539.128l.716-.063.053.46-.716.064zM473.96 540.373l-.147-.673.926-.155.147.673zM472.158 540.485l-.084-.605.998-.105.084.605zM471.176 540.253l-.104-.439.78-.14.104.439zM469.67 540.654l-.186-.298.725-.345.186.299zM469.703 541.534l-.344-.594 1.288-.57.343.594zM468.688 538.987l-.257-.415.56-.265.258.415zM467.963 539.481l-.229-.39.55-.245.229.39z" clip-path="url(#pc7d1fba952)" style="fill:#a9a9a9;fill-opacity:.8"/><path d="m468.43 540.281-.467-.8 1.924-.858.467.8zM466.345 538.22l1.184-.681.361.478-1.183.682zM465.766 537.412l1.336-.612.344.573-1.337.612zM473.437 536.315l-.2-.31.358-.178.201.31zM473.704 537.273l-.17-.576.537-.12.169.576z" clip-path="url(#pc7d1fba952)" style="fill:#a9a9a9;fill-opacity:.8"/><path d="m473.397 537.342-.169-.577.307-.068.169.576zM470.821 537.426l-.008-.647.705-.007.008.647zM471.146 536.141l-.604-.21.131-.288.604.21z" clip-path="url(#pc7d1fba952)" style="fill:#a9a9a9;fill-opacity:.8"/><path d="m470.427 536.182.115-.252.604.211-.115.251zM467.344 535.147l1.82-.73.596 1.132-.528.212-.123-.234-.977.392-.268-.509-.315.127zM466.82 535.063l-.135-.354.797-.233.135.355zM464.196 536.189l.511-.246.235.375-.51.245z" clip-path="url(#pc7d1fba952)" style="fill:#a9a9a9;fill-opacity:.8"/><path d="m463.978 535.844.894-.43.218.346-.894.429zM463.78 534.377l.348-.177.436.654-.438.223-.099-.15-.636.324-.438-.658.725-.369zM470.25 533.037l-.74-.238.196-.464.74.24zM467.89 531.546l.605-.499.509.47-.604.499zM467.344 531.462l-.45-.105.13-.422.449.105zM466.16 530.59l.709.035-.048.73-.708-.035zM464.933 533.126l.137-.605.648.112-.137.604zM463.612 533.431l.882.215-.101.317-.882-.214zM463.37 533.386l.251-.502.201.077-.251.502zM463.37 533.386l-.432-.165.047-.094-.208-.08.204-.407.64.244zM462.067 533.597l-.255-.22.396-.352.151.13-.196.175.104.09zM461.532 532.823l.43.39-.297.25-.43-.39z" clip-path="url(#pc7d1fba952)" style="fill:#a9a9a9;fill-opacity:.8"/><path d="m461.962 533.213-.43-.39.366-.308.43.39zM460.079 531.772l-.171-.268.382-.187.171.268zM459.938 531.399l-.395-.682.552-.244.394.683zM480.457 524.9l.716-.225.231.562-.716.225zM479.62 526.117l-.33-.682.542-.2.33.682zM479.105 526.617l.821-.373.27.453-.822.373zM479.129 527.503l-.138-.23.355-.162.137.23zM460.775 529.366l-1.16-.393.245-.55 1.16.393zM457.24 530.238l-.562-.893.508-.245.564.894zM456.355 529.401l-.304-.585.781-.31.304.586zM453.16 527.221l.354.282-.213.204-.354-.281zM453.57 528.487l-.364-.229.54-.654.364.23zM454.793 528.058l-.217-.38.255-.11.217.379zM454.5 527.265l-.215-.37.28-.123.213.37z" clip-path="url(#pc7d1fba952)" style="fill:#a9a9a9;fill-opacity:.8"/><path d="m453.957 527.643-1.466-2.54.607-.266 1.465 2.539zM450.054 525.283l.307.212-.531.589-.307-.212z" clip-path="url(#pc7d1fba952)" style="fill:#a9a9a9;fill-opacity:.8"/><path d="m450.27 525.044.307.212-.216.239-.307-.212z" clip-path="url(#pc7d1fba952)" style="fill:#a9a9a9;fill-opacity:.8"/><path d="m449.947 524.822.197-.22.63.435-.197.219z" clip-path="url(#pc7d1fba952)" style="fill:#a9a9a9;fill-opacity:.8"/><path d="m449.625 524.245.52.358-.64.707-.79-.544.114-.126.27.187z" clip-path="url(#pc7d1fba952)" style="fill:#a9a9a9;fill-opacity:.8"/><path d="m450.144 524.603.255-.282.608.42-.254.281z" clip-path="url(#pc7d1fba952)" style="fill:#a9a9a9;fill-opacity:.8"/><path d="m449.639 523.798.76.523-.255.282-.519-.358.064-.071-.24-.166zM448.798 523.66l-.262-.167.274-.327.262.168zM449.377 524.031l-.579-.37.232-.276.578.37z" clip-path="url(#pc7d1fba952)" style="fill:#a9a9a9;fill-opacity:.8"/><path d="m449.366 524.507-1.094-.7.264-.314 1.093.7zM448.114 521.86l-1.464-1.583-.053.037-.088-.096-.23.162-.263-.284-1.13.798.384.416-.495.35 1.45 1.569.221-.156.13.14.328-.232-.14-.15.442-.311.066.071.537-.38-.076-.081zM446.058 518.568l.605.622-.596.443-.133-.137-.177.131-.472-.484zM444.522 519.035l-.403-.549.35-.196.402.549zM457.627 516.805l.556-.091.074.343-.555.091zM447.717 512.248l-.032-.472.722-.037.032.471zM446.445 512.374l-.024-.47.532-.022.024.472zM445.447 512.641l-.102-.637.805-.099.102.638zM445.012 513.12l-.017-.329.346-.013.018.328zM444.32 512.81l-.04-.654.625-.029.04.654zM444.755 514.048l.708-.014.013.49-.709.014zM446.019 514.506l-.04-.732.573-.024.04.731zM446.727 514.323l-.008-.59.668-.008.008.59zM447.83 514.147l-.048-.64.458-.026.048.64zM448.715 512.747l.507-.021.017.294-.508.021zM448.33 513.746l-.057-.549.808-.063.056.548zM449.255 514.14l-.08-.577.76-.081.08.577zM450.108 514.16l-.048-.59.581-.036.049.59zM450.913 514.182l-.04-.45.45-.031.04.45zM450.833 513.029l.86-.029.025.562-.862.028zM449.569 512.5l-.065-.646.903-.069.064.648zM450.72 512.34l-.049-.57.663-.043.049.57zM455.727 509.272l-.515-.248.733-1.16.515.248zM461 506.656l.29.225-.212.209-.29-.225zM449.79 510.574l-.02-.682.651-.015.02.682zM447.081 510.18l-.04-.703.792-.035.04.704zM444.908 510.89l-.04-.647.572-.027.04.647zM443.926 511.123l.088-.662.576.06-.088.66zM457.844 481.335l-.579-.66.563-.378.58.661zM456.653 481.659l-.483-.915.572-.23.483.914zM456.702 482.46l-.307-.618.62-.234.307.618zM438.495 509.293l-.509-2.334 1.38-.23.45.458-1.318.28.478 1.723zM437.163 510.413l-.212-.763.484-.102.211.763zM438.342 511.57l-.949.2-.368-1.327.949-.201zM440.179 508.493l.285-.06.354 1.273.348-.074.162.583-.325.07.151.544-.105.022.159.574-.203.044z" clip-path="url(#pc7d1fba952)" style="fill:#a9a9a9;fill-opacity:.8"/><path d="m439.727 511.895-1.23-4.428 1.32-.28 1.307 4.71-1.319.28z" clip-path="url(#pc7d1fba952)" style="fill:#a9a9a9;fill-opacity:.8"/><path d="m438.504 512.155-.75-2.706 1.222-.26.75 2.706zM436.625 508.076l.835-.157.347 1.4-.836.157zM436.496 507.851l-.113-.443.468-.09.112.443zM433.718 505.291l.532-.12.1.342-.53.12zM434.765 504.989l-.388.063-.144-.675.387-.064z" clip-path="url(#pc7d1fba952)" style="fill:#a9a9a9;fill-opacity:.8"/><path d="m435.22 504.996.668 2.875-.87.154-.177-.764-.224.04-.255-1.097-.075.013-.15-.642.306-.054-.086-.372zM432.27 513.373l-.242-.436.34-.144.241.436zM432.479 514.125l-.145-.577.719-.137.144.576zM445.27 525.744l.035-.43.692.041-.034.431zM445.754 527.784l.157-1.521 1.905.151-.158 1.521zM443.805 527.63l.159-1.522 1.947.155-.157 1.521zM441.089 528.073l-.293-.039.03-.173-.636-.084.068-.393.236.031.038-.22.692.092zM428.929 519.54l-.66-.59.443-.377.66.59zM425.612 518.401l.29.155-.225.321-.29-.154zM426.98 517.972l.564-.527.526.429-.563.527zM424.767 516.186l.877.471-.313.446-.878-.471zM423.197 515.637l-.483-.358.158-.163.484.36zM423.398 515.406l-.957-.592.623-.771.957.591zM424.38 489.009l.033-.422.6.035-.032.422zM423.922 488.924l-.033-.253.314-.03.033.253zM423.438 489.044v-.408h.33v.408zM418.589 486.395l-.526.056-.014-.096-.183.02-.04-.287.064-.007-.024-.172.15-.016-.009-.072.334-.036.007.049.227-.024.034.251-.152.017.023.159.086-.01zM418.448 482.974l.112-.584.468.07-.113.583zM417.836 482.925l.088-.535.45.057-.088.535zM415.19 480.045l-.072-.275.255-.05-.132-.512.464-.091.064.247.589-.116.139.539zM414.289 479.001l-.011-.311.227-.006-.012-.34.256-.007-.005-.122.649-.017.027.772zM415.855 478.507v-.66h.532v.66zM416.62 478.613l.103-.722 1.296.14-.103.723zM438.774 473.486l.483.196-.12.225-.483-.196zM437.099 473.13l1.776.697-.107.209-.123-.048-.124.242-1.332-.523.107-.21-.32-.126zM436.641 473.788l1.11.267-.244.775-1.11-.267zM435.634 473.978l.717.028-.026.516-.717-.029zM436.182 475.807l.08-.64.53.05-.08.64zM434.797 475.188l.071-.55.854.084-.071.55zM432.165 475.23l1.996.668-.385.88-1.996-.67zM416.282 476.44l.652.147-.113.384-.652-.149zM410.354 466.172l-.057-.714 1.008-.062.04.496-.54.033.017.219zM412.217 462.928l-.016-.535.684-.016.017.535zM411.291 462.45l.757-.029.022.444-.757.028zM407.177 460.888l3.373.028-.015 1.474-2.98-.025zM412.112 460.36l.016-.5.6.015-.017.5zM412.145 459.685l-.009-.486.617-.007.008.485zM411.96 460.022h-.508v-.597h.507zM410.59 459.537l.846-.007.006.518-.845.007zM410.55 459.038v1.632h-.595v-1.632zM409.174 460.494l.708-.021.015.38-.708.022zM408.425 459.924l-.032-.802.685-.02.032.8zM411.283 457.723l1.063-.043.03.602-1.062.042zM411.838 457.315l.015-.51.628.014-.015.51zM409.6 457.441l.194-1.449.962.098-.193 1.45zM408.466 455.81l1.24.02-.017.74-1.24-.022zM408.95 455.738l.047-.527.293.02-.049.528zM408.554 455.71l.048-.527.395.028-.048.527zM441.48 448.269l-.264-.33.53-.324.264.33zM423.68 449.331l.362.281-.291.287-.362-.281zM423.069 449.873l-.37-.248.29-.331.369.248zM422.24 449.183l.474.302-.193.232-.475-.302z" clip-path="url(#pc7d1fba952)" style="fill:#a9a9a9;fill-opacity:.8"/><path d="m422.24 449.183.412-.495.475.302-.413.495zM422.263 448.571l-.298-.443.393-.201.298.443zM421.651 448.121l-.45-.52.488-.323.451.52zM397.976 442.613l-.032-.668.778-.029.033.669zM400.367 443.95l1.167-.056.04.619-1.167.056zM395.44 434.56l-.072-.599.521-.048.072.598zM395.602 440.967l-.164-.134.274-.254.163.135zM396.294 442.079l-.54-.542.546-.414.539.541zM393.095 431.993l-.843.033-.032-.63.844-.032zM393.933 432.6l.907-.036.023.464-.906.036z" clip-path="url(#pc7d1fba952)" style="fill:#a9a9a9;fill-opacity:.8"/><path d="m393.064 431.364 1.711-.066.065 1.266-.907.036-.032-.638-.806.031zM391.834 430.353l.862-.07.07.662-.86.07zM402.46 428.34v-.758h.75v.759zM403.314 428.855l-.008-.539.628-.006.007.537zM408.12 429.72l.101-.406 1.94.373-.102.405zM410.301 430.522l.054-.293.756.105-.053.293zM391.343 424.662l.91-.014.014.693-.91.014zM390.377 425.26l-.017-.56.587-.014.018.56zM389.846 425.056l-.204.027-.072-.422.203-.027zM389.09 425.337l-.315-.703.547-.186.314.703zM387.214 420.315l1.57-.556.376.812-1.57.555zM386.256 419.456l.893-.126.128.687-.894.127zM386.618 418.345l-.016-.598.703-.014.017.597zM386.305 417.437l.01-.594.775.01-.01.594z" clip-path="url(#pc7d1fba952)" style="fill:#a9a9a9;fill-opacity:.8"/><path d="m385.096 416.91 1.218.015-.011.67-1.217-.016zM384.5 416.115l-.2-.563.873-.238.2.563zM385.056 414.82l-.193-.787.647-.121.193.788zM385.142 413.061l.727-.182.002.753-.5.126z" clip-path="url(#pc7d1fba952)" style="fill:#a9a9a9;fill-opacity:.8"/><path d="m383.792 413.4-.233-.71 2.077-.52.233.71zM383.462 410.72l-.13-.425.692-.162.13.425z" clip-path="url(#pc7d1fba952)" style="fill:#a9a9a9;fill-opacity:.8"/><path d="m382.665 410.576-.18-.614.761-.17.138.471-.395.088.041.143zM382.972 409.707l-.282-.796.94-.254.282.795z" clip-path="url(#pc7d1fba952)" style="fill:#a9a9a9;fill-opacity:.8"/><path d="m382.424 409.855-.282-.796.548-.148.282.796zM384.75 411.374l-.17-.739.778-.136.17.74zM384.71 410.48l-.033-.454.902-.049.032.455zM385.29 409.897l-.041-.437.417-.029.04.436zM384.734 409.165l.588-.063.02.142-.588.063zM385.394 408.982l-.153-.57.316-.064.154.57zM381.26 406.927l-.078-.506.202-.024-.037-.236.626-.073.093.606-.155.018.02.136zM398.866 401.134v.668h-.511v-.157h-.174v-.394h.186v-.117zM394.225 403.031l-.507-.668.445-.25.191-.06.477.627zM393.427 402.346l-.42-1.012.998-.316.42 1.011zM395.103 404.642l-.483.386-2.085-1.99.482-.387zM394.555 405.12l-.488.388-2.117-2.033.488-.387zM391.284 404.061l-.294-.229.378-.37.294.228zM388.71 403.693l-.313-.296.24-.194.313.295z" clip-path="url(#pc7d1fba952)" style="fill:#a9a9a9;fill-opacity:.8"/><path d="m390.98 404.438-2.358-1.836.349-.342 2.359 1.836zM395.063 405.486l-.167-.453.925-.26.167.453zM393.871 406.288l-2.608-2.061.517-.5 2.608 2.062zM393.122 409.37l.008-.74 5.7.05-.009.738zM390.385 409.468l-.009-.662.685-.007.009.661zM417.111 404.023l-.024-.408.402-.018.024.408zM416.516 404.192l1.328-.092.067.75-1.328.092zM413.666 403.622l.016-.676.574.011-.016.676zM414.116 406.295l-.055-.506.552-.047.057.506zM381.466 400.576l-.105-.893.688-.062.104.893zM380.505 400.581l-.008-.429.713-.01.01.52-.714.01z" clip-path="url(#pc7d1fba952)" style="fill:#a9a9a9;fill-opacity:.8"/><path d="m379.904 400.59-.008-.43.6-.008.009.43zM380.614 399.766l-.877-.014.01-.519.225.004.01-.487.653.01zM380.363 398.416l-1.132-.313.17-.472.815.225.063-.171.317.088zM380.934 397.238l.745.169-.113.383-.745-.17zM378.208 389.512l-.057-.34-.706.089.16.976.21-.027-.105-.635z" clip-path="url(#pc7d1fba952)" style="fill:#a9a9a9;fill-opacity:.8"/><path d="m379.464 390.003-1.65.207-.104-.635 1.65-.208z" clip-path="url(#pc7d1fba952)" style="fill:#a9a9a9;fill-opacity:.8"/><path d="m379.303 389.027.909-.115.18 1.097-.909.114zM379.303 389.027l-.102-.615.91-.114.1.614zM376.829 388.711l2.372-.299.102.615-2.373.298zM376.928 386.446l-.344.105-.041-.101-.145.044.132.33.15-.046-.04-.097.341-.104z" clip-path="url(#pc7d1fba952)" style="fill:#a9a9a9;fill-opacity:.8"/><path d="m377.001 386.629-.186-.466.26-.08-.02-.05.52-.159.11.275-.135.041.115.287-.398.122-.018-.046z" clip-path="url(#pc7d1fba952)" style="fill:#a9a9a9;fill-opacity:.8"/><path d="m376.436 387.112-.105-.263.187-.057.012.032.15-.046-.02-.045.509-.156.11.277zM376.279 386.598l-.111-.278.632-.194.11.273-.345.106-.022-.055-.145.044.024.06zM377.554 387.295l-.098-.198.354-.134.098.198zM378.318 387.16l-.17-.324.564-.225.17.325zM378.262 384.67l.612-.034.048.65-.611.034-.259-.417.224-.05zM377.255 385.712l-.257-.542.645-.234.258.541zM376.29 386.064l-.314-.535.675-.303.314.535zM376.95 399.38l-.13-.907.637-.07.13.908zM376.716 398.212l-.595.1-.177-.801.595-.1zM376.716 398.212l-.177-.802.636-.107.177.802zM376.31 397.25l-.095-.494.558-.082.125.647-.558.083z" clip-path="url(#pc7d1fba952)" style="fill:#a9a9a9;fill-opacity:.8"/><path d="m376.03 397.29-.094-.493.28-.041.094.493zM375.154 395.736l-.08-.71.553-.048.08.71zM375.324 394.857l-.428-.109.218-.654.427.109zM375.28 393.303l-.217-.688.507-.121.049.156.371-.09.116.37-.376.09.051.163zM373.504 393.295l-.237-.355.58-.296.237.356zM372.457 392.655l.934-.457.307.477-.934.457zM374.83 390.02l-.164-.486.824-.212.062.182-.182.048.102.302zM374.792 389.124l.386-.036.034.28-.387.035zM374.498 389.13l-.074-.203.354-.099.074.204zM374.724 387.615l.466.52-.612.42-.467-.52zM373.52 388.079l.383-.253.427.492-.383.254zM373.347 388.852l-.439-.53.363-.229.439.53zM373.099 386.38l.314.407-.273.16-.314-.406z" clip-path="url(#pc7d1fba952)" style="fill:#a9a9a9;fill-opacity:.8"/><path d="m373.413 386.787-.314-.407.608-.358.314.406zM369.844 385.112l-.255-.214.421-.279 1.625 1.59-.516.385-.56-.667.27-.163-.67-.843zM371.44 387.585l.323-.176.364.51-.322.175zM371.376 388.31l-.394-.59.342-.175.394.59zM371.062 388.535l-.426-.605.28-.15.427.604zM370.692 388.774l-.443-.661.289-.147.442.66zM370.418 388.985l-.418-.682.207-.097.42.682z" clip-path="url(#pc7d1fba952)" style="fill:#a9a9a9;fill-opacity:.8"/><path d="m368.978 386.889-.67-.842 1.85-1.126.671.843zM371.24 383.66l1.883 1.843-1.23.96-1.883-1.844zM367.772 384.952l1.088-.999.536.446-1.087.998-.107-.088-.236.255-.21.07-.177-.147.009-.211.25-.27zM367.523 383.083l.912.757-.51.47-.065-.054-.213.195-.101-.084-.186.17-.432-.358.408-.375-.314-.26zM367.813 382.117l-.08-.57.473-.051.08.57zM372.35 400.87l-.043-.942.4-.014.012.256.24-.008.03.686zM372.232 400.858l-.608.035-.048-.633.608-.036zM370.81 400.796l-.015-.484.306-.007-.01-.308.425-.01.024.792zM371.145 399.749l-.04-.352.286-.025.04.352z" clip-path="url(#pc7d1fba952)" style="fill:#a9a9a9;fill-opacity:.8"/><path d="m370.775 399.781-.04-.351.37-.033.04.352zM369.986 399.303l-.054-.418.708-.07.055.418zM367.483 396.693l-.057-.486.707-.062.056.486zM367.072 395.982l-.032-.481.812-.042.033.481zM366.783 396.271l-.637.042-.04-.472.635-.042zM364.705 397.446l-.128-.577.748-.128.129.577zM362.182 397.487l-.146-.577 1.015-.195.145.577z" clip-path="url(#pc7d1fba952)" style="fill:#a9a9a9;fill-opacity:.8"/><path d="m361.735 397.572-.145-.576.446-.086.146.577zM367.95 398.662l-.008-.485.53-.007.007.486zM361.751 399.24l-.12-.578.593-.094.12.576zM363.24 399.035l-.104-.4.575-.115.105.4zM365.36 399.045l-.086-.61.599-.065.02.148.092-.01.02.137.137-.014.046.324zM366.944 401.16l-.137-.873.692-.083.137.873zM365.97 400.428l.54-.096.12.521-.54.096zM365.084 401.21l-.177-.796.488-.083.178.795zM363.325 400.784l.494-.035.052.573-.494.035zM362.548 401.592l-.018-.258.403-.02.018.257zM362.689 400.942l-.037-.319.43-.038.038.318zM362.049 400.939l.588-.071.066.427-.587.071zM359.047 395.511l.812-.091.057.385-.813.091zM359.24 397.706l-.492.007-.006-.35.49-.007zM359.344 397.77l-.065-.465.596-.064.065.465zM359.489 400.295l-.043-.204.306-.05.043.204zM360.157 400.808l.974-.14.101.534-.974.14zM358.99 401.399l-.113-.647.706-.094.113.647zM358.362 401.547l-.08-.556.533-.059.08.556zM373.683 383.068l-.129-.184.384-.205.129.185z" clip-path="url(#pc7d1fba952)" style="fill:#a9a9a9;fill-opacity:.8"/><path d="m374.242 382.771.665.955-.678.36-.317-.458.118-.062-.347-.498zM373.44 384.48l-.275-.404.732-.38.275.405z" clip-path="url(#pc7d1fba952)" style="fill:#a9a9a9;fill-opacity:.8"/><path d="m372.731 383.482.814-.478.412.535-.813.478z" clip-path="url(#pc7d1fba952)" style="fill:#a9a9a9;fill-opacity:.8"/><path d="m372.731 383.482-.292-.379.814-.478.292.379zM372.381 382.089l.567.601-.654.472-.568-.601zM371.882 382.391l-.18-.195.33-.232.18.195zM371.966 381.343l-.23-.166.266-.282.23.167zM371.629 382.187l-.451-.492.545-.382.451.492zM373.576 380.084l-.314-.148.186-.301.314.148zM372.426 380.182l.2-.788.612.12-.201.788zM373.99 378.408l-.64-.427.32-.364.105.07.07-.08.221.148.066-.075.312.209zM371.395 376.01l.5.07-.07.373-.498-.07zM370.236 376.003l.25-.584.645.21-.251.586zM367.62 376.982l-.46-.627.599-.334.458.626zM368.223 377.96l-.458-.437.544-.437.459.436zM368.964 378.677l.245-.573.774.254-.246.572zM369.862 380.427l.688.185-.372.522-.506-.234z" clip-path="url(#pc7d1fba952)" style="fill:#a9a9a9;fill-opacity:.8"/><path d="m370.55 380.612.66.359-.373.522-.66-.359zM368.754 380.619l.292-.727.918.281-.292.727zM368.634 380.597l-.623-.216.25-.549.623.217zM367.555 379.774l-.644-.548.418-.375.644.55zM365.635 378.108l.475-.281.194.25-.475.281z" clip-path="url(#pc7d1fba952)" style="fill:#a9a9a9;fill-opacity:.8"/><path d="m365.334 377.72.474-.281.302.388-.475.281zM365.91 380.453l.254.214.273-.247.231.195-.104.094.121.102-.066.06.123.104-.037.034.075.063-.41.37-.457-.385-.068.062-.347-.293zM365.193 381.122l-.17-.194.333-.225.17.194zM366.13 382.658l-.362-.456.404-.245.362.457zM364.974 380.027l-.657-.918.723-.394.438.611-.296.162.219.306zM359.267 378.121l.254.253-.354.272-.254-.254zM359.095 379.197l-.443-.414.341-.279.443.415zM355.078 379.282l-1.74-.788.724-1.22 1.739.789zM341.167 399.634l.016-.725.73.012-.017.725zM338.406 398.212l-.005-.48.861-.007.006.48zM338.398 399.267l.853-.013.013.577-.854.015zM339.754 400.485v-.465h.608v.465zM339.859 400.917l-.23.01-.021-.334.231-.01zM339.09 400.963l-.024-.425.503-.023.024.426zM338.398 400.58h.503v.429h-.503zM338.82 401.427l-.02-.232.254-.017.02.232zM338.503 402.2l-.025-.548.517-.017.025.549zM344.09 401.666l-.026-.263.483-.035.025.263zM342.97 402.074l-.028-.509.838-.035.027.51zM338.487 381.779v-.753h.66v.753zM338.51 382.49l-.012-.44.644-.014.013.44zM338.454 383.2v-.485h.708v.485zM339.541 382.855l-.004-.233.504-.006.004.233z" clip-path="url(#pc7d1fba952)" style="fill:#a9a9a9;fill-opacity:.8"/><path d="m339.55 383.32-.009-.465.504-.006.008.464zM339.557 383.904l.04-.465.4.027-.04.464zM338.406 384.192v-.513h.813v.513zM338.478 387.309l.677.007-.008.5-.675-.008zM339.557 388.765h-.475v-.528h.475zM338.358 388.744l.016-.612.656.013-.016.612zM338.51 390.587l.822.021-.018.523-.82-.021zM338.325 392.135h1.135v.541h-1.135zM339.38 393.837l-.013-.377.506-.014.014.377zM338.366 393.14l.861.007-.007.622-.861-.007zM341.03 392.986v-.395h.338v.395zM344.355 393.513v-.612h.29v.612zM344.757 392.88l.636-.014.013.437-.636.014zM344.42 392.339l.619-.078.072.44-.62.078zM345.184 392l-.523.015-.013-.365.523-.015zM344.935 391.543l.018-.461.692.02-.018.462zM344.83 390.144l-.435-.021.017-.27.435.02zM345.031 390.123l-.031-.478.564-.028.03.477zM344.476 389.58l.008-.71.443.004-.007.71zM345.071 388.884l.58.021-.026.548-.58-.02zM345.071 388.294l.556.028-.027.413-.556-.028zM345.192 388.097v-.465h.523v.465zM345.289 385.803v-.295h.29v.295zM345.361 385.5l-.017-.522.555-.013.018.522zM344.717 385.515l.008-.507.47.006-.008.506zM345.506 384.052l.016-.535.46.01-.017.535zM344.765 384.002l.009-.464.51.007-.007.464zM348.094 380.77l.785.243-.196.483-.784-.243zM347.833 381.196l-.364-.13.214-.457.363.13zM345.562 346.498l.17-.682.644.122-.169.683zM345.272 345.352l.556.028-.027.4-.555-.028zM345.442 344.747l.051.197-.459.092-.051-.198zM345.579 344.247l.732-.14.13.519-.732.14zM343.405 344.944l-.014.173-.338-.022.014-.172zM343.783 345.169l.009-.507.379.005-.008.507zM343.888 327.468l.652-.106.067.318-.651.105zM343.46 330.918l.55.016-.008.224.19.006-.016.428-.74-.021zM343.606 330.254l-.052-.551.676-.05.053.552zM341.232 328.89l1.183-.373.28.678-1.184.373zM341.215 328.46l.902-.302.12.275-.901.302zM339.807 321.896l-.243-.1.322-.598.243.1zM339.28 321.06l-.097.568-.4-.052.048-.285-.165-.022.047-.281z" clip-path="url(#pc7d1fba952)" style="fill:#a9a9a9;fill-opacity:.8"/><path d="m338.694 320.342.692.09-.106.629-.692-.09zM338.003 320.27l-.266-.231.21-.184.266.233zM338.31 319.7l-.733-.646.46-.398.732.647zM339.066 318.892l.587.154-.17.494-.587-.155zM339.79 319.004l.105-.351.323.073-.105.352zM341.135 319.63l.155-.511.7.162-.155.511zM350.298 315.242l.052-.633.863.054-.024.302-.185-.012-.028.332zM348.531 342.297l.252.569-1.456.492-.105-.238.254-.086-.146-.331zM348.935 339.548l.475.028-.032.422-.475-.028zM348.08 339.827l-.034-.526.236-.012-.01-.148.263-.013.043.675zM347.744 337.508l-.033-.434.491-.028.033.434zM346.77 340.265l-.25-2.715.868-.061.25 2.716zM346.85 341.708l-.225-.753.491-.113.226.753zM348.557 341.39l.217-.618.304.082-.217.618zM352.187 342.644l.162-.76.568.091-.161.76zM347.69 345.762l.17-.57.68.155-.169.57zM348.21 347.519l-.071-.718.706-.054.072.717zM349.805 346.808l.418-.02.023.348-.418.02zM349.394 347.483l.91-.07.05.487-.91.07zM350.714 346.674l-.054-.362.49-.057.055.363zM350.408 347.962l.483-.12.132.405-.483.12zM351.02 348.96l-.25-.548.451-.156.25.549zM350.417 350.072l-.395-.85.552-.196.394.851zM351.833 350.488l-.273-.5.792-.331.273.5zM352.614 352.88l-.218-.356.765-.358.218.355zM352.812 360.105l.809.469-.232.306-.258-.15-.065.086-.26-.15-.278.365-.29-.168zM354.24 359.296l-.273-.732.444-.127.274.732zM353.017 359.549l.193-.788.676.127-.194.787zM353.468 364.171l-.455-.588.298-.176.455.588zM350.018 364.262l-.676-.921.586-.328.676.921zM348.726 364.934l-.431-.454.62-.45.43.454zM349.483 373.211l-.065-.38.31-.04.064.38zM343.944 368.293l-.501-.335.442-.506.502.335zM343.397 369.602l-.583-.474.645-.604.582.473zM342.125 371.27l.294-.423.326.173-.294.423zM341.715 373.197l-.004-.716.77-.001.354-.567.709-.003.006 1.28zM341.008 372.25l.38-.754.194.074.06-.12.341.132-.058.115.252.097-.168.331-.108-.041-.216.427zM341.066 373.708l-.229.016-.274.092-.048.274.129.162.128.105.207.036-.052-.12.335-.11z" clip-path="url(#pc7d1fba952)" style="fill:#a9a9a9;fill-opacity:.8"/><path d="m341.262 374.164.473-.156.147.343-.807.265-.148-.343z" clip-path="url(#pc7d1fba952)" style="fill:#a9a9a9;fill-opacity:.8"/><path d="m341.262 374.164-.196-.456.742-.244.195.456zM340.458 375.575l.613-.465.39.393-.612.464z" clip-path="url(#pc7d1fba952)" style="fill:#a9a9a9;fill-opacity:.8"/><path d="m340.458 375.575-.473-.476.613-.465.473.476zM342.173 373.393l.79-.006.008.764-.789.007zM344.234 375.617l-.016-.33.34-.014.016.331zM345.36 374.288l-.011-.392.697-.016.012.392zM345.38 374.928l-.02-.64.497-.011.019.64zM346.858 375.068l.757-.056.06.613-.757.056zM347.945 375.138l-.072-.752.67-.05.073.753zM349.603 374.393l-.116-.555.66-.106.117.555zM351.045 374.71l-.042-.596.651-.036.042.596zM352.558 374.491l-.048-.548.837-.056.048.548zM354.257 374.526l-.063-.428.756-.084.063.428zM356.83 373.394l-.02-.261.525-.03.02.26z" clip-path="url(#pc7d1fba952)" style="fill:#a9a9a9;fill-opacity:.8"/><path d="m356.64 374.027-.048-.619.95-.056.047.618zM357.5 372.937l-.044-.36.596-.056.044.36zM359.763 373.049l.084-.394.475.078-.085.393zM359.054 373.88l.181-.698.853.169-.18.697zM360.777 374.583l-.7-.409.344-.451.7.408zM361.598 374.928l.507-.724.57.305-.507.725zM361.042 374.632l.508-.725.555.297-.507.724zM362.491 375.47l-.277-.135.315-.5.278.134z" clip-path="url(#pc7d1fba952)" style="fill:#a9a9a9;fill-opacity:.8"/><path d="m363.836 376.116-1.345-.647.316-.5 1.345.647zM364.633 376.194l.524.57-.527.368-.523-.57zM363.933 376.13l.54-.682.392.237-.54.683zM365.18 375.8l-.612-.605.482-.372.611.605zM364.985 373.797l-.38-.39.321-.239.38.39z" clip-path="url(#pc7d1fba952)" style="fill:#a9a9a9;fill-opacity:.8"/><path d="m364.649 374.047-.38-.39.337-.25.38.39zM364.424 374.596l-.596-.611.44-.328.597.612zM366.718 374.263l-.282-.222.15-.145.28.222zM367.004 375.406l-.584-.503.396-.351.583.503zM367.7 370.432l.515.236-.18.302-.516-.236zM365.495 372.184l.627.07-.042.287-.628-.07zM367.902 370.06l.547.224-.182.337-.547-.225zM368.553 371.902l-1.892-.802.297-.534 1.892.802zM370.8 370.32l-.411-.416.544-.41.41.415zM370.588 373.563l-.571-.64.49-.336.572.64zM371.942 373.9l.148-.251.346.154-.147.252zM371.926 374.794l-.74-.387.318-.465.74.387zM373.054 375.35l-.516-.317.337-.42.516.317zM375.154 375.195l.21.12-.135.179-.209-.12zM374.864 375.258l-.265-.19.2-.214.265.19zM374.213 376.207l-.464-.321.564-.62.463.323zM374.398 376.278l.466-.676.443.234-.467.676zM375.034 376.693l.427-.57.444.254-.427.57zM376.925 367.667l-.417-.062.145-.745.417.062zM377.087 365.613l.724.232-.176.419-.724-.233zM390.643 364.403l-.217-.246.297-.2.217.246zM390.402 364.08l-.266-.387.252-.133.266.387zM390.852 365.444l-.467-.584.49-.299.467.584zM391.745 366.626l-.386-.506.546-.319.387.507zM391.89 367.343l-.217-.281.197-.116.218.281zM392.31 367.238l-.428-.52.486-.304.427.52zM405.044 361.223l.25-.155.178.22-.25.154zM403.611 361.891l.54-.4.322.33-.539.402zM380.226 384.706l-.346-.753.722-.254.346.753zM381.78 387.808l-.216-.58.942-.268.215.58zM385.04 388.385l-.491-.563.396-.264.49.563zM383.282 388.408l.81-.103.148.89-.81.103z" clip-path="url(#pc7d1fba952)" style="fill:#a9a9a9;fill-opacity:.8"/><path d="m381.909 388.033 2.093-.267.09.539-2.093.267zM383.72 392.409l-.29-2.195 2.198-.222.289 2.195zM384.09 396.807l-.042-.408.904-.071.042.408zM384.168 397.562l.25-.02.027.258-.25.02z" clip-path="url(#pc7d1fba952)" style="fill:#a9a9a9;fill-opacity:.8"/><path d="m384.168 397.562-.078-.755.904-.07.033.322.337-.026.044.431z" clip-path="url(#pc7d1fba952)" style="fill:#a9a9a9;fill-opacity:.8"/><path d="m383.413 397.882-.104-1.013.781-.062.105 1.013zM384.002 398.43l-.042-.288.378-.042.042.288zM383.253 398.332l.531-.056.053.383-.531.056zM386.212 399.964l-.009-.48.324-.005.008.481z" clip-path="url(#pc7d1fba952)" style="fill:#a9a9a9;fill-opacity:.8"/><path d="m385.563 400.407-.016-.914.656-.01.017.915zM390.804 399.774l.14-.008.127-.054.093-.092.046-.117-.008-.123-.063-.11-.105-.082-.134-.04-.14.008-.127.054-.093.092-.046.117.008.123.063.11.105.082zM389.161 399.598l.894-.063.05.546-.893.063zM391.697 400.26l-.08-.845 1.835-.133.08.844zM398.71 397.917l.006-.636.853.006-.007.637zM405.334 398.505l.37-.004.002.126-.37.004zM405.527 399.222l.033-.52.475.022-.032.52zM408.868 398.906l.95-.043.03.504-.95.043z" clip-path="url(#pc7d1fba952)" style="fill:#a9a9a9;fill-opacity:.8"/><path d="m408.868 398.906-.03-.515.95-.042.03.514zM408.224 399.352l.04-1.062.547.016-.04 1.062zM410.116 398.177l-.467-.4.23-.205.467.4zM412.016 398.698l-.008-.458.577-.007.008.457zM411.388 399.19l-.234-.5.318-.113.233.5zM415.155 388.061l.435.289-.32.369-.435-.289zM413.287 388.842l-.458-.147.124-.294.458.148zM418.021 397.72l-.789-.366.128-.21.789.365zM417.441 398.62l.014-.41.837.02-.013.411zM426.892 398.522l-.04-.696.57-.026.04.697zM450.712 397.727l-1.24-.408.298-.69 1.24.409zM452.097 398.698l-1.16-1.055.534-.448 1.16 1.055zM447.798 398.036l.05-.677.756.042-.05.678zM447.17 397.164v-.548h.757v.548zM440.843 396.77l.186-.644 5.104 1.125-.186.645zM374.327 421.53l.881-.465.29.42-.135.07.085.122-.435.23-.1-.145-.312.165zM376.797 421.707l-.287-.446.66-.324.287.447zM377.883 419.456l.347-.105.098.247-.346.105zM378.141 420.062l-.121-.268.282-.097.12.267zM377.457 420.667l.571-.282.178.275-.572.282zM379.101 420.685l-.3.138-.24-.4.3-.138zM379.695 420.413l-.594.272-.434-.724.593-.272zM380.175 420.162l-.394-.662.36-.163.394.66z" clip-path="url(#pc7d1fba952)" style="fill:#a9a9a9;fill-opacity:.8"/><path d="m379.823 420.322-.394-.661.352-.16.394.66zM379.18 419.598l-.313-.666.805-.289.313.666zM377.634 415.876l.66-.19.252.67-.66.191zM377.183 416.896l-.298-.802.634-.18.298.802zM376.16 417.234l-.257-.598.55-.18.257.597zM374.366 421.335l-.354-.598.684-.31.354.599zM380.814 418.788l.778-.232.265.678-.78.232zM380.814 418.788l-.363-.928.78-.232.361.928zM380.893 417.39l-.23-.696 1.023-.26.23.697zM380.339 417.782l-.387-1.167.632-.16.386 1.168zM380.242 413.263l-.227-.445.515-.2.227.445z" clip-path="url(#pc7d1fba952)" style="fill:#a9a9a9;fill-opacity:.8"/><path d="m379.727 413.464 1.03-.401.425.832-1.03.401zM379.59 412.063l.95-.443.343.563-.95.443zM379.646 416.375l-.612-1.407.885-.293.612 1.407zM379.107 414.033l-.346-.682.352-.137.346.683zM377.682 412.633l.62-.302.249.39-.62.302zM377.449 412.31l-.355-.57.5-.237.355.57zM375.202 412.479l-.482-.507.533-.388.484.506zM375.905 412.626l.529.74-.409.223-.171-.24-.146.08-.357-.5zM377.127 415.074l-.255-.523.644-.239.255.523zM375.38 415.721l-.202-.513.598-.179.201.513zM374.43 416.08l-.258-.549.482-.172.258.548zM378.48 408.61l.629-.071.097.662-.63.07zM377.087 408.912l-.564-.345.44-.548.563.344zM376.86 407.35l.838-.429.48.715-.837.429zM376.7 406.71l.982-.492.25.38-.983.492zM376.16 406.872l-.289-.485.373-.17.29.485zM375.911 405.972l-.201-.36.334-.143.202.36zM375.823 405.078l.415-.22.532.767-.416.22zM377.4 406.26l-.364-.494.974-.548.364.493zM375.087 407.134l-.303-.354.336-.22.303.354z" clip-path="url(#pc7d1fba952)" style="fill:#a9a9a9;fill-opacity:.8"/><path d="m374.462 406.992.322-.212.303.354-.322.211zM374.43 406.654l-.531-.62.38-.249.532.619zM373.512 407.42l-.499-.555.534-.366.5.556zM375.219 409.102l-.564-.522.572-.471.563.522zM375.855 410.235l-.677-.605.622-.53.676.604zM374.31 411.135l-.435-.45.462-.342.436.45zM373.126 412.507l-.491-.592.61-.386.49.59zM371.379 415.778l-.58-.577.345-.265.58.577zM375.452 404.304l-.658.242-.21-.436.66-.242zM374.47 404.881l-.137-.229.354-.162.137.23zM373.127 404.562l.79-.376.204.329-.144.069.151.242-.646.307zM372.106 403.916l-.302-.21.226-.248.302.211z" clip-path="url(#pc7d1fba952)" style="fill:#a9a9a9;fill-opacity:.8"/><path d="m371.95 404.086-.301-.21.155-.17.302.21zM372.693 402.647l-.072-.634 1.142-.099.03.265-.248.022.042.369zM370.582 401.99l.62-.035.045.602-.62.036zM356.817 425.66l-.093-.066.17-.176.091.067zM355.585 425.548l.676-.605.414.354-.676.605zM363.578 415.911l-.157-.59.725-.147.157.59zM365.513 416.412l.74-.19.082.243-.74.19z" clip-path="url(#pc7d1fba952)" style="fill:#a9a9a9;fill-opacity:.8"/><path d="m365.35 415.925.74-.19.163.487-.74.19zM367.821 414.392l-.467-.464.434-.334.467.464zM368.497 414.117l-.387-.365.38-.306.386.366zM368.457 412.612l-.201-.218.206-.145.2.218zM368.175 413.238l-.45-.45.264-.202.45.45zM369.149 413.386l-.596-.724.411-.259.595.726zM369.318 412.437l.419-.367.443.388-.419.365zM371.618 409.99l.784.685-.437.382-.443-.388.16-.14-.258-.227.105-.092-.082-.071zM373.601 409.088l.604.443-.433.45-.604-.443zM372.385 408.757l-.45-.541.536-.34.45.54zM369.493 404.08l.355-.13.032.069.245-.09.122.258-.1.037.108.229-.26.094-.09-.189-.238.087zM367.274 402.06l.796-.049.036.44-.797.048zM364.625 402.159l.676-.035.03.436-.676.035zM363.562 402.365l.34-.018.005.081.236-.012.006.088.296-.015.03.442-.76.038-.015-.24-.114.006zM362.726 402.934l-.007-.396.468-.006-.007-.343.258-.004.014.74zM361.952 402.922l-.103-.641.245-.03.027.17.268-.032.075.47zM361.252 402.99l-.073-.451.488-.06.072.45zM360.31 403.017l.25-.063.113.34-.25.063zM360.592 402.869l.507-.084.088.405-.507.084zM362.79 405.817h.475v.478h-.475zM362.17 404.804l-.105-.43.466-.086.104.43zM357.952 405.226l-.314-.528.487-.221.314.527zM359.505 405.67l.483-.177.222.465-.483.176zM355.947 407.667l-.01-.5.434-.008.01.5zM356.527 402.475l.853-.084.057.436-.854.085zM353.99 402.99l-.046-.446 1.32-.106.047.445zM347.342 403.678l-.057-.675.74-.047.055.675zM345.909 403.59l-.02-.492.509-.016.02.492zM345.446 403.612l-.013-.503.33-.006.011.503zM344.878 403.573l-.01-.422.53-.011.011.422zM342.1 403.903l.629-.035.04.538-.629.036zM342.1 403.158l.62-.021.028.602-.62.021zM340.49 404.417l.033-.514.557.027-.033.514zM340.005 404.007l-.391.003-.004-.352.391-.003z" clip-path="url(#pc7d1fba952)" style="fill:#a9a9a9;fill-opacity:.8"/><path d="m339.106 404.347-.003-.333.902-.007.003.333zM338.366 403.84v-.591h.571v.591zM337.963 407.505l.362.007-.005.198-.362-.007zM337.955 406.457l.894-.014.007.364-.893.014zM337.234 403.777l-.352-.001v-.104l-.577-.002v.158l-.43-.001-.001.376.391.002v.21l.966.003zM334.695 404.34l-.016-.711.449-.008.016.71zM336.9 380.253l-.482-.634.594-.346.483.633zM321.83 395.349l-.08-.78.64-.05.081.78zM324.23 397.966l-.3-.37.853-.527.3.37zM323.075 396.25l.438-.076.072.314-.439.077z" clip-path="url(#pc7d1fba952)" style="fill:#a9a9a9;fill-opacity:.8"/><path d="m322.707 397.378-.176-.769.602-.105.176.77zM319.714 397.6l1.285-.052.018.337-1.285.052zM319.714 397.6l-.047-.884 1.553-.063.047.884zM320.849 399.254l-.089-.486.484-.067.088.485zM318.885 406.218l-.194-.549.354-.095.193.548zM319.77 406.549l.241.745-.62.153-.24-.745zM320.648 407.069l.635-.162.08.241-.635.162zM320.213 406.028l.773-.197.18.542-.772.197zM322.435 404.677l-.017-.66.711-.014.016.66zM316.751 386.563l-.233-.52.625-.215.233.52zM315.93 386.999l-.226-.675.612-.156.226.675zM312.831 387.991l-.206-.534.765-.225.206.534zM314.15 389.058l-.298-.544.811-.339.298.544zM312.042 390.707l-.342-.625 5.523-2.308.341.625zM312.042 391.62l-.16-.491 4.991-1.238.16.492zM312.042 392.718l-.153-.489 4.878-1.168.154.49zM307.953 392.908l-.089-.858.273-.022.088.859zM306.3 393.262l.363.093-.106.315-.362-.093zM306.101 392.634l.74.19-.178.531-.74-.19zM306.777 397.34l.08-1.203.475.024-.08 1.203zM306.478 396.5l.004.62-.634.003-.005-.62zM305.843 396.503l-.007-1.23.634-.004.008 1.23zM307.38 394.512l-.028-.571.724-.028.03.571zM307.68 397.164l-.122-1.182.69-.054.122 1.182zM306.423 399.9l.024-1.23.44.006-.024 1.231zM300.723 409.756l1.095.084-.049.493-1.095-.084zM298.325 411.796l-.177-.9.797-.12.177.9zM299.307 412.57l.286-.74 3.091.915-.286.74zM301.126 419.506l.644-5.43.76.068-.643 5.43zM301.803 400.724l.208-.507.356.112-.21.507zM301.73 399.873l.113-.55.37.06-.113.548zM299.963 399.56l1.314.37-.309.838-.574-.161.128-.345-.741-.208zM301.263 399.008l.91-1.5.39.182-.91 1.498zM300.217 397.523l-.738-.487.821-.95.738.488zM298.164 400.048l-.695-.499.82-.872.696.5zM298.502 404.495l.788-.17.128.456-.788.17zM294.654 406.506l-1.175.31-.21-.608 1.175-.31zM293.978 405.31l3.622-.9.173.53-3.622.9zM285.01 413.723l.016-.844.698.01-.016.845zM323.618 382.223l1.827-.36.177.689-1.827.359zM326.935 381.463l.7-.303.282.498-.7.303zM329.623 381.202l-.3-.392 1.53-.894.3.393zM336.836 377.635l-.515-.548.497-.357.516.549zM334.131 375.764l.058-.51.82.07-.057.51zM331.266 375.44l.049-.583 1.964.127-.05.584zM323.223 373.668l.042-.587.78.043-.04.586zM315.584 379.29l1.28-.965.365.37-1.28.964zM315.39 379l1.434-1.189.194.18-1.433 1.188zM337.838 373.918l.242.01-.006.111-.242-.01zM337.893 373.535l.201.008-.014.261-.201-.008z" clip-path="url(#pc7d1fba952)" style="fill:#a9a9a9;fill-opacity:.8"/><path d="m337.986 371.853.678.021-.429 1.386-.125-.005-.016.288-.201-.008z" clip-path="url(#pc7d1fba952)" style="fill:#a9a9a9;fill-opacity:.8"/><path d="m338.035 370.976.914.039-.025.45-.589-.025-.023.427-.326-.014zM340.523 367.97l-.536-.27.491-.745.536.269zM341.582 365.89l.399-.457.228.154.119-.136.408.273-.38.436-.237-.158-.137.156zM342.334 364.699l-.475-.12.094-.285.475.12zM343.043 363.939l1.223-.753.4.497-1.223.753zM344.814 363.031l-.12-.182.338-.17.12.184zM344.765 363.495l-.176-.262.7-.358.177.262zM345.651 361.891l.338-.541.223.106-.337.542zM345.836 362.356l.214-.586.732.204-.214.586zM347.736 360.745l.2-.655.781.183-.2.655zM349.998 360.098l.129-.176.16.09-.128.175zM348.324 360.076l.184-.774.812.149-.185.773zM349.58 357.431l.272-.724 1.074.308-.18.479-.612-.176-.092.246zM341.325 347.209l-.464-.113-.052.162-.436-.107.087-.273.097.024.184-.579.555.135-.036.112.249.06zM346.77 349.94l.45.323-.36.384-.451-.324zM344.058 349.364l1.087.662-.297.373-1.434-.872.298-.374z" clip-path="url(#pc7d1fba952)" style="fill:#a9a9a9;fill-opacity:.8"/><path d="m345.145 350.026-1.087-.662.634-.795 1.087.662zM339.268 346.35l-.693-.794.58-.385.691.795zM338.173 347.829v-.705h.644v.705zM320.962 328.32l-.484-.592.508-.317.483.592zM320.011 328.08l-1.046-.591.25-.338 1.047.59zM319.98 326.856l-.564-.844.534-.272.563.844zM537.9 540.055l.367.231-.32.387-.366-.231zM539.045 543.882l-.024 2.526-.788-.006.024-2.525zM601.94 568.786l.508.219-.33.583-.507-.218zM602.03 567.907l.75.041-.033.443-.75-.041zM602.858 562.295l.362 5.457-.926.047-.362-5.458zM559.016 423.275l.016-.248.356.018-.016.247zM558.116 423.612l.009-.532.68.01-.009.531zM553.938 424.634l-.006-.269.435-.006.006.268zM554.481 424.244l.503.017-.01.232-.503-.018zM552.046 423.97l-.099-.252.608-.183.1.251zM551.692 424.697l-.009-.504.753-.01.009.504zM551.213 424.694l-.038-.258.338-.04.039.26zM550.42 424.943l-.143-.127.173-.148.144.128zM549.092 425.679l.33-.17.161.242-.33.168zM549.816 425.657l-.277-.402.567-.299.278.402zM525.852 409.812l.384.034-.045.39-.384-.033zM526.35 409.27l.808.091-.1.686-.808-.09zM527.896 409.348l-.08.897-.727-.05.08-.897zM528.753 409.33l-.04.574-.708-.038.04-.574zM518.84 412.795l-.39-.306.769-.749.39.306zM518.007 413.045l.58.223-.233.464-.58-.223zM518.075 413.886l-.189.291-.376-.186.189-.292zM516.389 418.145l-.313-.372.487-.313.312.372zM513.334 424.957l.825.022-.019.563-.825-.021zM518.357 420.906l1.189.483-1.07 2.012-1.19-.483zM633.203 301.844l.228-.437.664.264-.228.437zM624.936 299.614l.33.341-.327.242-.33-.341zM626.034 299.522l.258-.364.73.394-.259.365zM618.238 295.734l-.338.542-.898-.428.338-.542zM616.724 296.226l.248-.381.753.372-.248.382zM617.817 295.085l.705.377-.199.282-.704-.376zM618.282 296.43l.214-.379.925.397-.213.38zM619.232 272.892l1.152-.085.052.547-1.152.084zM617.896 274.426l.571-.068.089.57-.571.067zM557.657 219.443l-.02.592-.556-.015.02-.59zM558.273 219.362l.028.856-.482.012-.028-.855zM557.971 220.66l.246.687-.642.175-.245-.685zM558.028 221.998l-.147-.47.72-.173.147.47zM566.65 203.537l.116.43-.469.097-.116-.43zM536.244 174.383l.604.197-.223.522-.604-.197zM536.474 173.94l.555.214-.187.37-.555-.216zM535.672 175.311l.278-.324.446.293-.276.324zM534.513 158.82l-.185.281-.25-.125.186-.281zM535.27 161.1l-.222-.368.547-.253.223.368zM532.734 159.003l.564.232-.138.256-.563-.233zM534.2 158.56l-.337-.416.636-.394.337.415zM529.112 158.524l.58.295-.31.464-.579-.296zM526.496 158.869l.273-.26.386.309-.273.26zM528.001 158.018l-.724.773-.45-.32.725-.775zM523.726 155.892l.363-.316.812.71-.362.317zM229.248 132.818l-1.12.1-.124-1.054 1.835-.164.24 2.091-.71.064zM223.491 132.81l-.595.59-.41-.315.595-.592zM222.3 131.648l.717.83-.714.47-.716-.83zM223.29 134.076l2.979-.416.246 1.35-2.979.416z" clip-path="url(#pc7d1fba952)" style="fill:#a9a9a9;fill-opacity:.8"/><path d="m228.965 133.71-1.53.112-.063-.664 1.53-.112zM228.313 130.402l1.506-.14.092.757-1.505.141zM472.275 543.47l1.587-.281.451 1.941-1.587.281zM232.122 150.28l.96-.735.635.634-.96.735zM162.859 624.323l-.678-.807 1.408-.902.036.043 5.474-3.507-.036-.043.976-.626.677.807-.916.587-.033-.04-5.518 3.537.033.039zM163.89 625.631l-.678-.807 1.408-.902.036.043 5.473-3.507-.036-.043.976-.626.677.807-.915.587-.033-.04-5.519 3.537.033.039zM164.968 626.995l-.677-.806 1.407-.902.036.042 5.473-3.508-.035-.042.975-.625.678.806-.915.586-.033-.039-5.52 3.537.034.04zM166.047 628.275l-.678-.806 1.408-.903.036.043 5.473-3.507-.035-.044.975-.624.678.806-.916.587-.033-.04-5.518 3.537.033.039zM167.126 629.625l-.678-.807 1.408-.902.036.043 5.473-3.507-.036-.043.976-.625.677.806-.915.587-.033-.04-5.518 3.537.032.039zM168.22 630.89l-.677-.806 1.408-.902.035.043 5.474-3.507-.036-.043.976-.626.677.807-.915.587-.033-.04-5.519 3.537.033.039zM169.524 632.452l-.677-.807 1.408-.902.036.043 5.473-3.508-.036-.042.976-.626.677.807-.915.586-.033-.039-5.519 3.537.033.04zM170.587 633.736l-.678-.806 1.408-.903.036.043 5.473-3.507-.036-.043.976-.625.677.806-.915.587-.033-.04-5.519 3.537.033.04z" clip-path="url(#pc7d1fba952)" style="fill:#a9a9a9;fill-opacity:.8"/></g></g></g><defs><clipPath id="pc7d1fba952"><path d="M96.125 86.4h545.75v554.4H96.125z"/></clipPath></defs></svg>