<svg xmlns="http://www.w3.org/2000/svg" width="960" height="960" viewBox="0 0 720 720"><defs><style>*{stroke-linejoin:round;stroke-linecap:butt}</style></defs><g id="figure_1"><path id="patch_1" d="M0 720h720V0H0z" style="fill:#fff"/><g id="axes_1"><path id="patch_2" d="M90 636.847h558V90.353H90z" style="fill:#fff"/><g id="LineCollection_1"><path d="m406.08 347.826-1.01.38-2.153.841-2.22.967-1.483.611-.977.507-.683.59-.615.698-1.942 2.695-1.501 2.035-1.96 2.336M398.165 360.546l-3.569-.466-1.807-.323-1.253-.27M383.373 358.475l1.943.276 1.427.139 4.793.596M386.666 365.807l.175-.352.153-.228.554-.77.784-1.04 3.204-3.93M410.163 416.14l-.31-.138-.222-.152-.286-.179-.279-.245-3.839-3.282-.33-.283-.757-.778-.522-.442-.514-.514M400.076 388.421l2.506 4.687.305.567-.014.471-.493 1.851-.102.645.025.595.7 3.625-.008.563-.016.555-.163 2.197-.02 1.051-.016 1.482.026 1.259.081.892.217 1.266" clip-path="url(#p4a98b02cf0)" style="fill:none;stroke:#000"/><path d="m399.973 429.443.545-2.136.264-1.167.298-1.303.255-1.204.184-1.296.307-2.338.145-1.732.025-.731.015-1.04-.123-1.923-.054-.766.008-.495.123-.37.254-.292.235-.345.295-.517.135-.371.22-1.29M391.925 386.84l.441.418.608.363.391.157.63.135 2.166.225 2 .145 1.915.138M412.386 397.506l-.077-.511-.29-1.485-.263-.68-.256-.447-1.59-1.44-2.676-1.752-1.803-1.184-.745-.413-.633-.256-.559-.185-.776-.193-1.352-.341-1.29-.198M399.973 429.443l-.252.735-.177.491-.286.526-1.186 1.757-.196.374-.107.349-.277 1.319-.2.611-.186.494-.313.51-.684.969-.3.406-.228.376-.225.436-.513 1.2-.202.417-.192.241-.261.307-.254.292-.22.328-.34.605-.585 1.09-.984 1.61-.338.683-.18.526-.265 1.198-.133 1.464-.324 2.064-.082.496-.028.392-.063 1.554-.055.361-.107.285-.504 1.079-.142.317-.169.434-.1.482-.278 2.112-.175 1.174-.164.74-.112.286-.193.22-.494.56-.205.352-.1.377-.03.35.28 1.105.701 1.554.78 1.348M394.57 474.146l-.32-.288-.155-.25-.054-.276.058-.472.104-.626-.041-.304-.166-.365-.246-.25-.2-.12-1.962-.856-.836-.393-.307-.305-.169-.384-.125-.522-.113-.689-.114-.485-.247-.554-.353-.608M367.305 515.89l.423-.684.991-2.264.115-.441.085-.542-.03-1.154-.154-.975-.131-.634-.446-1.446-.261-.213-.284-.057-.293.02-.192.193-.738 1.546-.16.064-.178-.236-.407-.69-.914-1.389-.7-.712-.937-.705-.915-.74-.653-.321-.845-.413-.485-.3-.153-.242-.031-.334.07-.47.207-1.047.222-.99-.007-.434-.008-1.254-.169-1.033-.33-1.288-.254-.584-.446-.577-.307-.264-.116-.3.008-.398.192-.968.115-.983.293-1.652.568-2.721.4-.456.676-.27 1.291-.47.661-.363.585-.307.652-.25 2.252-.576.63-.178.815-.285.469-.263.423-.342.33-.548.968-1.91.254-.391.446-.613.261-.555.192-.605.284-1.21.14-.307.252-.313.661-.342 3.712-1.097.307-.05.462.043.722.313.477.192.5.086.698-.071.908-.071.76-.036 1.299.113.461-.006.477-.179.414-.334.846-1.012.968-1.11.515-.663.438-.712 1.191-2.835.07-.277-.016-.35-.046-.548.023-.349.17-.284.545-.82.731-1.248M406.08 347.826l.825-.554.82-.605.665-.7.43-.487" clip-path="url(#p4a98b02cf0)" style="fill:none;stroke:#000"/><path d="m471.216 327.513-.073-.098-.207-.314-.199-.397-.52-1.23-3.559-7.922-.93-2.016-.553-1.467-.08-.285-.214-1.132-.11-.428-.191-.442-.243-.338-1.062-.983-1.108-.854-.642-.36-.826-.3-.365-.073-.489-.037-.503.01-.313.038-.423.079-.526.165-.644.3-1.56.943-1.71 1.05-1.012.45-.598.164-.668.124-.565.046-.73-.01-1.155-.067-1.706-.004-.317.028-.208.046-.61.237-.815.436-.661.446-.838.633-.38.403-.296.378-.707 1.164-.738 1-.419.514-1.202 1.154-.462.434-.618.492-.772.516-1.641.958-.62.439-.283.262-.3.41-1.088 1.696-1.06 1.574-1.752 2.725-.803 1.022-.396.429-.45.351-.71.417-.586.4-.302.262-.3.392-.15.315-.153.547-.018.269.021.254.096.467.489 1.19 1.198 2.15.17.407.08.331.015.413-.051.26-.102.186-.127.15-.127.115-.234.132-.27.07-.768.084-1.133.107-.3.082-.257.117-.98.56-.546.242-.5.135-.37.05-.375.015-.73-.104-.98-.392-.53-.181-.488-.068-1.318-.025-.475-.066-.336-.098-.995-.498-.903-.356-.5-.09-.298-.103-.232-.124-.526-.392-.383-.298-.367-.219-.386-.147-.505-.124-.888-.22-1.48-.125-.618.054-.38.114-.4.235-.3.281-.76.79-.3.446-.1.276-.054.258-.006.12.025.14.081.218.111.181 1.318 1.675.323.705.13.622-.084.415-.115.426-.335.486-1.402 1.677M402.55 337.74l2.3 1.416.962.573.533.411.4.399.519.764.895 2.128.66 2.049M386.32 369.043l.229.33.384.37 2.155 1.775M390.384 375.054l-.036-1.947-.187-.558-.477-.527-.596-.504M384.655 372.453l.883.061.943-.061.958-.164.572-.203.474-.235.603-.333M508.922 396.112l-.141-.691-.377-1.703-.202-.641-.205-.513-.807-1.197-.435-.516M505.63 390.032l.463.278.662.541" clip-path="url(#p4a98b02cf0)" style="fill:none;stroke:#000"/><path d="m505.891 398.202-.258-1.29-.176-.868-.013-.16.01-.098.02-.074.087-.2.457-.658.169-.335.08-.253.116-.487.037-.337-.006-.632.065-.844.104-.577.172-.538M509.234 397.65l-.312-1.538M528.74 416.71l-2.598-1.525-3.682-2.307-.726-.611-.78-.778-3.174-3.683-4.396-4.031-2.513-2.336-.615-.744-.3-.453-.169-.356-.132-.384-.225-.748-.196-1.104M506.146 403.305l.745-1.404.978-.906.606-.627.187-.777.186-.863.386-1.078M398.257 335.463l2.07.986M398.257 335.463l2.949-4.58M396.204 340.992l.18-2.04.094-.408.17-.512.322-.656 1.287-1.913M384.781 369.9l.83-.427.71-.43M386.666 365.807l-.21 1.03-.092.954-.043 1.252M375.543 359.143l-.578 1.997M375.543 359.143l.644-2.167M372.411 358.209l.103.039 3.029.895M368.83 353.763l.427.217 3.828 1.848 1.168.51.66.25 1.274.388M381.652 358.346l-2.696-.584-2.769-.786M399.96 360.69l-1.795-.144M400.015 364.088l-.025-.375-.03-3.023M412.528 354.724l-.703-.11-.353-.035-.4.05-.49.146-.478.267-2.636 1.744-2.352 1.874-1.822 1.26-.76.417-.607.21-.4.058-.914.07-.654.015M231.924 380.997l-.819-2.474-.042-.589.139-.612.235-.331.512-.433 4.294-2.755 1.737-1.425.569-.284.899-.179 1.052.036 3.459-1.366 1.644-.414 1.922-.043.289-.142 5.187-3.588.718-.8 3.427-3.063.585-.3 2.167-.911.753-.37.366.027 1.731.89.639.137.702-.006 9.149-1.223.619-.255.505-.383.215-.484.322-1.524.492-1.069.524-1.99.282-.374.27-.115.314.066 2.058 1.055.287-.102 1.137-.948.37-.028 1.338.333.398-.048 1.076-.484h.476l3.075.356.214.157.227.32.715 3.004.565 1.206.038 1.56.17.299.652 1.662.47 2.163.794.87 1.995.925.764.563.955 1.283 1.186 2.328.538.67.493.433.414.05 1.215-.387.78-.482.15-.754-.077-.314-1.115-1.916-.323-.548-.468-1.46-.045-.583.03-2.153.302-1.51-.31-1.018-.639-.634-.526-.306-2.347-1.14-.562-.62-.084-.288.093-.856.814-1.84.33-1.468v-.57l-.115-1.203.384-1.674-.169-.92-.136-.73M314.774 333.305l-.17-.093-1.025-.53-.646-.256-.648-.192-.682-.186-.415-.206-.82-.493-.432-.248-.354-.064-1.713-.021-.346-.05-.387-.17-1.287-.751-.31-.127-.353-.022-.307.044-.45.17-1.24.649-.796.255-.78.094-.735.036-1.325-.057-.838-.086-.75-.126-2.455-.486-.399.02-.503.17-.45.294-.313.396-.163.266-.108.413.006.655.109.776.124 1.22.081.381.271 1.036.04.417-.009.323-.169 3.256.02.324.134.467.24.648.086.407-.072 1.87-.13 2.948-.024 1.663.087.565" clip-path="url(#p4a98b02cf0)" style="fill:none;stroke:#000"/><path d="m264.662 353.061.362.706.153.163.223.036.215-.064 1.03-.762.585-.364.391-.12.776-.037.4.086.861.2.76.12.546-.035.661-.207.992-.477 1.544-.94.57-.313.875-.314 1.968-.527 2.182-.499 1.23-.356 1.321-.499 1.246-.44 1.69-.5 2.03-.84.798-.214.876-.028.969.213.891.442 1.153.898 1 .783.33.128.292.007.33-.092.456-.311M209.222 437.049l.43-.418.202-.197.177-.39-.06-.702.015-1.245-.06-.481-.128-.354-.36-.755-.262-.597-.773-1.977-.088-.353.023-.463.038-.237.418-.863.398-.78.243-.493.171-.483.33-1.168.231-.87.037-.426-.042-.426" clip-path="url(#p4a98b02cf0)" style="fill:none;stroke:#000"/><path d="m231.924 380.997.615 1.795.26 1.069.145 1.394-.2 1.07-.513.997-.891 1.254-.972 1.48-1.734 2.451-2.182 2.337-.83.655-.891.498-1.83.813-.645.398-.446.37-13.208 13.892-1.302 1.194-.491.541-.437.51-.286.41-.23.427-.114.447.045.357.216.643 1.111 2.173.899 1.472.233.612.277.67.13.278.252.355 1.09 1.453.167.36" clip-path="url(#p4a98b02cf0)" style="fill:none;stroke:#000"/><path d="m207.362 404.658-4.41 2.521-.677.485-.385.413-3.75 4.494-.1.257.016.277.069.25.215.399.745 1.004.239.456.122.427.293 1.396.26.784.293.413.323.299.584.299.83.242 2.074.314.516.114.714.241.676.286.953.512 1 .798 2.2 2.032M197.31 428.413l-1.816-2.369-.69-.645-.86-.627-1.146-.632-1.667-.864-1.27-.346-1.189-.124-1.56.095-1.499.162-1.093.347-.782.422-.768.598-.71.85-.536.874-.426.92-.834 2.299-.295 1.112-.212 1.053-.522 4.393-.23.607-.493.77-.757.928-3.174 3.649-.373.565-.153.626.027.93.357 7.845.538 6.652.03.878-.123.817-.368 1.253-.628.968-.71.528-.825.341-4.861.927-4.394.742-.986.041-.918.015-4.83-.47-.969-.172-.795-.179-.742-.362-.522-.299-.903-.612-1.419-1.171-6.034-5.083-.651-.37-.765-.278-.665-.056-.707.141-1.46.578-2.25 1.162-1.07.518-1.199.67-1.436.861-1.515 1.09-1.46 1.168-.57.616-.337.51-.424 1.395-.406.984-.508.856-2.166 2.904-.6.676-.753.492-.925.358-2.242.553-.979.296-.957.559-1.378 1.038-.928.614-1.044.598-1.491.77-3.129 1.441-.76.21-.798.088-.601-.158-.568-.3-.71-.349-1.365-.819-1.095-.61M104.208 463.517l.397.068.43.277.3.267.392.435.315.413.253.413.193.563.153.59.107.713.093.655.069 1.026.038.975-.068 1.336-.031.737.045.676.058.481.316 1.728M294.296 559.943l-.902.452M294.296 559.943l-.219.733M306.862 464.933l-.103.262-1.094 1.918-.333.549-.645 1.068-.265.526-.552 1.098-1.474 3.108-.322.68-.316.77-.284.954-.623 2.952-.253.666-.421.762-.883 1.275-.187.37-.058.507.002 1.332-.097.483-.42 1.006-.088.418.07.65.1.917-.02.64-.18.6-.323.783-.417 1.091-.206 1.259-.9 5.763-.393 2.987-.082 4.275-.13 1.404-1.806 3.65-.275 1.18-.133.988.188 1.036.594 1.45 1.163 1.674.64 2.562.273 2.808.98 3.323.608 6.449-.928 7.776.713 4.693.5 3.3-.56 1.803-.561 1.803-.8 2.392-.893 2.809-1.372 4.24M288.817 425.698l3.467-3.091 3.104-2.628.83-.634.622-.442.538-.32.513-.26 2.945-1.507 3.347-1.746 1.595-.682.361-.122.324-.09.529-.087.653-.022 1.045.086.542.086 2.664.64.672.18 2.086.39.784.07.792.008h.83l1.582-.087.723-.198.83-.356.716-.428.576-.526 1.26-1.396 1.415-1.753 1.367-1.751.585-.655.706-.613 3.31-2.654 6.741-5.084" clip-path="url(#p4a98b02cf0)" style="fill:none;stroke:#000"/><path d="m306.862 464.933.084-.42.01-.57-.232-.916-.568-1.52-.312-1.154-.25-1.565-.105-1.265-.126-.559-.18-.489-1.038-2.253-.196-.69-.112-.695-.15-1.3-.052-.634.083-.476.237-.533 2.396-3.364.518-.662.51-.4 1.338-.646.565-.272.51-.294.49-.51.34-.744.044-.595-.105-.537-.618-1.343-.732-1.396-.236-.57-.099-.489.352-2.33-.069-.486-.537-1.453-.075-.352-.033-.431.12-.492.224-.366 2.27-2.921.69-1.094.262-.669.305-.936.886-2.592.58-1.244.304-.398.368-.24.43-.067 1.815.193 2.148.43 2.74.488.706.072.754-.093.51-.206 4.033-3.186 1.251-1.166.352-.367.31-.516.56-.955.414-.523.471-.353 1.674-1.061.385-.413.354-.651.376-1.073.56-2.92.207-1 .47-1.108.523-1.31.291-1.197.277-.898.354-.662.482-.713.41-.548.188-.368.026-.23.002-.3-.442-.817-.283-.524M370.354 372.107l-.436.179-.515.128-.518.064-1.272.057-.446.121-.453.225-.377.21-.346.228-.406.396-.409.544-.562.918-1.643 3.15-.349.438-.374.351-.438.286-.553.249-.757.253-1.618.438-.545.196-.638.295-.473.332-.419.423-.384.513-.388.576-1.496 2.48-.683 1.132-.446.648-.446.527-.433.386-1.926 1.253-.96.598-.777.577-.889.66-.678.501-.776.434-1.215.649-2.291 1.238-.406.286-.569.698-1.844 2.13-.638.712-.543.56-.718.63-1.43 1.25M299.415 626.338l-.022-1.394.529-1.131.372-.708 1.173-.816 2.16-2.326 1.372-1.508 1.64-2.563.826-.883.989-.596 2.788-1.184.815-.655.238-.634-.054-1.296.14-1.36-.188-1.618-.568-1.252-2.239-3.971-1.029-1.314-2.18-1.407M305.903 598.74l.037.392.238.59" clip-path="url(#p4a98b02cf0)" style="fill:none;stroke:#000"/><path d="m312 595.108-1.273.895-3.35 2.564-1.2 1.155M301.334 607.044l1.726-.799 2.544-3.076.35-.962-.014-1.95.238-.535M285.364 561.204l.825.082M275.26 557.842l1.36.684 2.152.904 1.571.438 5.021 1.336" clip-path="url(#p4a98b02cf0)" style="fill:none;stroke:#000"/><path d="m271.55 557.654 2.18 1.121 1.615.933 2.705.919 1.768.37 1.782.007 2.406.228 1.358-.028M209.222 437.049l-1.146-.873-.499-.364-.546-.232-.683-.196-1.045-.07h-.892l-1.581.07M197.31 428.413l.9 1.174 2.762 3.385 1.858 2.412" clip-path="url(#p4a98b02cf0)" style="fill:none;stroke:#000"/><path d="m288.817 425.698-3.128 2.77-.384.392-.384.47-.27.438-.207.452-.815 2.5-.418.821-.534.746-2.644 3.903-1.06 1.454-.646.825-.692.727-.755.724-2.058 1.399-.65.279-1.056.22-.891.07-.769-.057-.613-.206-1.108-.848-.88-.272-.703-.055-.76.105-.47.094-.593.26-1.298.709-.566.18-.725.133-2.09.185-.91.22-.735.208-2.866 1.107-2.513.873-.646.142-.628.046-3.445.082-.92.173-1.385.454-.628.31-2.2 1.527-.662.442-.632.32-3.739 1.383-.808.277-.569.152-.646-.038-.537-.1-.374-.304-1.238-1.502-.417-.302-.6-.128-.66.026-2.135.254-2.4.446-1.771.405-.98.35-1.199.498-.929.125-1.023-.067-.677-.185-.668-.244-1.038-.725-.682-.478-3.956-3.083-3.587-2.716-3.748-2.669-.953-.683-1.091-.869-1.32-1.098-1.047-1.096-.692-.84-1.166-1.425M463.761 347.726l-2.128-2.073-.339-.541-.17-.35-.085-.295-.052-.267-.12-.815-.326-1.574-.029-.316.022-.429.08-.48.119-.357.832-2.151.198-.549.043-.202.019-.158-.035-.273-.1-.34-.057-.544.05-.335.142-.373.288-.435.857-.855.334-.249.326-.171.436-.155.865-.198.565-.196.392-.192 1.063-.72.342-.194.288-.085.338-.034.568.043.24-.005.134-.02.15-.044.141-.06.213-.149.26-.263.358-.55.353-.597.327-.809.322-1.232.23-.622M490.137 320.088l-1.445 1.574-1.06 1.418-.343.438-.65.697-.316.29-.382.235-.235.121-.365.128-.653.107-.615.029-1.01-.079-.483.055-.474.132-.7.355-.912.582-.751.33-1.841.604-.926.25-.389.15-.516.25-.428.284-.685.57-.16.104-.249.127-.165.064-.221.06-.208.03h-.25l-.309-.038-.274-.084-.677-.331-.66-.484-.57-.543M405.308 326.542l2.99-3.027.895-.99.25-.25.365-.235.526-.231.746-.248.592-.016.44.07.182.08.115.17.004.232-.184.256-.345.381-.29.335-.391.477-.354.61-.162.734.032.747.13.641.077.378M407.406 326.67l2.045-.021 1.475.007" clip-path="url(#p4a98b02cf0)" style="fill:none;stroke:#000"/><path d="m425.433 320.073-.578.382-.745.609-.477.374-.51.552-1.007 1.218-.52.66-.241.204-.35.226-.723.228-1.483.52-.576.232-.573.352-.699.926-.43.541-.363.458-.475.255-.73.15-.538.014-.76-.092-1.153-.47-.977-.478-.599-.278M426.158 319.768l1.79-.058.43-.138.424-.189 1.529-.99M442.178 306.795l-.058.101-.1.31-.1.544-.238 1.917-.116 1.154-.353 1.09-.396.591-.42.51-.162.16-.236.174-.715.388-.953.335-2.282.755-1.73.42-.36.11-.358.19-.175.135-.211.216-.898.956-.868.766-1.118.776" clip-path="url(#p4a98b02cf0)" style="fill:none;stroke:#000"/><path d="m410.027 305.311 1.157-.175 1.15-.026.49.042.653.13 1.853.517.833.256.527.214 1.053.605 2.213 1.212.492.366.28.285.231.331.422 1.062.077.193.1.184.242.296.68.506.45.342.353.377.696 1.08.826 1.147.773.662.88.477.445.332.8.728.322.247.948.62.322.25 1.036.822M500.736 308.776l-.947.855-.288.314-.154.256-.04.121-.033.182-.05.923-.042.83-.015.167-.05.203-.104.203-.211.26-.215.274-.252.248-.356.215-.703.331-.595.388-.321.217-.398.336-1.75 1.96-.359.348-.293.247-.488.308-.436.205-.298.173-.271.247-.347.422-.573.627-.233.153-.305.148-.472.151" clip-path="url(#p4a98b02cf0)" style="fill:none;stroke:#000"/><path d="m505.44 303.646-.187.119-.38.221-1.241.516-1.357.823-.501.397-.625.611-.891 1.012-.569.534-.357.242-.396.228-.691.369-.377.276-.43.43-.181.316-.108.31-.065.429.042.748.079.557.01.307-.028.193-.076.193-.207.271-.134.156-.247.2-.692.402-1.952.905-1.049.584-.278.244-.114.12-.1.156-.157.35-.323 1.175-.338 1.14-.17.39-.322.521-.891.997M577.167 299.833l-1.48-1.207-2.19-1.667-1.222-.816-1.19-.708-.856-.574-.403-.42-.202-.268-.196-.341-.296-.816-.165-.53-.219-.428-.37-.47-1.482-1.546-.233-.214-.254-.144-.294-.105-.585-.134-.373-.116-.279-.114-2.701-1.545-2.375-1.29-.714-.299-.777-.2-.736-.04-.243.023-.24.075-.188.104-.114.106-.148.214-.104.272-.39 1.376-.557 1.219-.337.947-.14.278-.117.14-.157.118-.344.136-.21.04h-.244l-.422-.07-.502-.225-.488-.287-.47-.372-.739-.805-.887-1.296-.522-.617-.281-.427-.115-.313-.06-.348-.006-.29.033-.294.038-.196.36-.942.315-.833.03-.553-.04-.341-.094-.337-.157-.25-.18-.183-.171-.077-.17-.026-.175.018-.165.048-.35.183-1.08.838-.365.106-.426-.032-.252-.064-.228-.132-.24-.222-.164-.212-.27-.533-.395-1.401-.154-.396-.138-.222-.173-.109-.257-.053-.284.02-.527.122-.467.077-.46.032-.675-.07-.78-.334-.65-.396-.311-.269-.23-.293-.22-.368-.557-1.481-.392-.691-.738-.798-.514-.292-.477-.164-1.16-.193-2.483.015-.906-.086-2.986-.69-.788.025-.344.048-.34.105-.622.395-1.038 1.043-.734.535-.599.206-.386.082-.548.015-.588-.086-.7-.2-1.556-.633" clip-path="url(#p4a98b02cf0)" style="fill:none;stroke:#000"/><path d="m505.44 303.646.217-.29.48-.805.607-1.343.23-.389.915-1.289.427-.84.284-.969.534-2.714.261-.698.249-.42.214-.301.882-.975.408-.548.304-.684.23-.773.36-1.407.032-.626-.085-.595-.203-.766-.508-1.09-.153-.983.069-1.168.637-2.323.281-1.827.104-.367.203-.406.404-.434.626-.455.657-.386 1.803-.815 1.494-.638.612-.203 2.224-.492 1.383-.327M548.06 266.436l-.212.315-.776.951-.452.449-.366.27-.771.405-1.835.95-1.176.462-.937.306-2.29.635-2.152.69-1.914.848-.926.32-.332.054-.321.014-.363-.02-.44-.062-1.883-.38-.75-.073-.654.024-.363.041-.454.1-.607.246-.546.328-.753.705-.995.947-.346.22-.334.157-.385.072-.467.018-1.673-.255-.226-.002-.247.025-.492.104M426.158 319.768l-.725.305M426.158 319.768l-.523-.114M459.198 304.659l.112.205.163.322.146.326.079.339-.006.29-.021.095-.045.113-.068.11-.116.116-.63.378-.78.317-.796.308-.64.178-.705.116-.812.023-.321-.052-.113-.044-.113-.066-.076-.062-.217-.24-.119-.257-.277-.381-.61-.59-.5-.468-.538-.567M459.198 304.659l-.46-.04-1.548-.245-.964-.078-.388.034-1.176.251-2.467.587M442.178 306.795l.142-.248.11-.13.178-.13.703-.381 1.518-.716.419-.146.603-.085 2.916-.022 1.495.01 1.26.133.673.088M381.652 358.346l.459-1.766M382.15 359.857l-.535-.157-.123-.129-.017-.234.177-.991M382.15 359.857l-.533 3.485M383.373 358.475l-.268 1.168-.126.206-.265.057-.564-.049M386.666 365.807l-1.275-.22-.955-.173-3.247-.422M370.354 372.107l.102-.042 1.654-.83 3.641-1.934.446-.263.433-.295 1.919-1.25.806-.585.562-.434.386-.336.344-.426.238-.335.304-.385M381.617 363.342l-.195 1.037-.233.613M382.11 356.58l1.134.242.185.057.11.142.043.162-.21 1.292M383.496 353.39l-.474.354-.234.388-.677 2.448M373.445 189.516l1.837-1.112 3.127-2.216.47-.463.578-1.007 1.325-3.555.356-.767.394-.558 1.19-1.052 1.406-1.035 1.744-1.173.492-.371.553-.49 1.691-1.522.858-1.546.098-1.704-.514-1.295-.123-1.341.515-.977.943-.76 1.729-.877 1.96-.704 2.526-.273 2.133.204 2.72.137 1.435.245 3.1 1.118 3.114.647 1.349.171h1.201l1.373-.704.932-.977.367-1.205.76-2.25.907-1.931.932-1.364.955-.548 2.06-.43 1.642-.568 1.373-.977.908-1.466.907-.898 1.127-1.522.71-1.41M459.957 179.719l-2.583 1.14-.522.455-.707 1.055-.4.399-.4.284-1.628.685-.554.455-.153.371.153 2.963-.092.855-.215.4-.277.227-.768.257-1.107.598-.43.143-.554-.058-.615-.541-.338-1.14v-.54l.123-.571.43-1.054-.061-.314-.185-.256-.737-.427-.277-.286-.153-.341-.031-1.682.123-1.025v-1.426l-.246-2.108-.492-1.31v-2.252l-.184-1.425-1.445-2.479-.708-2.252-.122-1.68.184-1.596-.062-.97-.798-1.909v-.228l-.738-2.108-.277-.4-.307-.227-1.168-.485-.923-.57-.615-.797v-.4l.738-1.424.246-.826-.03-.542-.37-.684-.676-.456-.738.086-2.029.94-3.32 1.111-4.887-.513-1.199-.264-1.227-3.586M329.297 332.916l-1.412 2.374M327.287 330.945l.082.085 1.103 1.054.825.832M330.941 333.497l-.197-.06-.935-.292-.512-.229M359.303 195.234l1.21-1.263.723-.761.336-.29.338-.177.398-.09.501.012 1.793.32 1.312.25.487.074.535.018.423-.064.494-.189 1.066-.516.792-.428.637-.474 3.097-2.14" clip-path="url(#p4a98b02cf0)" style="fill:none;stroke:#000"/><path d="m347.547 174.718 2.12 1.204.896.281.995.378.888.602 1.041.674 1.395.754 2.586 1.233.85.093 1.41.082 2.685.281 1.05.167.833.058.896-.05.572-.14.57-.078.73.09.923.247.748.385.754.522.894.77.478.16.635.037.762-.006.538.104.285.3.134.59-.077 1.386-.186 1.256.052 1.227.057.965.384 1.226M171.865 300.456l.399-.449 1.56-1.282 4.096-3.091.523-.242 3.804-.741 3.65.32.4.128 2.428 1.325 1.253.542 1.522 1.09 2.152 2.066 2.743 3.077 1.714 2.443.277.634 1.614 6.582.23.399.876 1.026.077.263.192 1.696.362.42.53.171 1.514.22.738-.206 2.22-1.296.354.007.385.171 2.082 1.111.576.243 1.484.263 1.829.114 2.306.427 2.481.705.485.207 1.844 1.232 1.276.463 3.343.798 1.752-.192.277.028.392.214 1.33.92.607.049 1.974-.135.354.063 2.244.99.769.086 3.658-.499 1.53-.633.937-.071.7.199 2.45 1.282 1.069.185.653-.029.492-.134.461-.308 4.734-4.116 1.46-.2.461.071 1.391.4 1.991.356.354-.086.437-.22.423-.357 1.806-2.351 1.606-2.364.66-.627 1.868-1.219 4.904-3.526 1.299-.648 2.981-1.866.254-.057.315.057 1.883 1.218 1.43.67.453-.035 2.121-.628 2.905.178.269-.128.315-.655.7-3.085.153-1.667.27-.263 4.095-2.144 2.09-2.358.915-.171 2.836.563.415-.114.23-.243 2.175-2.82.516-.307 1.19-.356.677-.078.614.042 2.206.407 4.504 1.26.22.177.125.357-.046.4-.66.968-.185.87.071.592" clip-path="url(#p4a98b02cf0)" style="fill:none;stroke:#000"/><path d="m306.5 289.387-.345.558-.554.767-.148.298-.013.321.082.3.489.91.09.2.33.913.268.837.308.608.454.663.154.328.027.369-.12.315-.806 1.143-.262.459-.19.828M317.181 325.469l-1.29-1.598-.553-.727-.63-.89-.517-.513-.375-.235-.553-.193-.915-.136-2.05-.221-.409-.127-.338-.234-.246-.343-.085-.411.024-.48.123-.67.589-1.85.351-1.072.197-.688.098-.494.04-.618-.007-.498-.092-.328-.198-.253-.846-.441-1.794-.857-.574-.394-.377-.383-.27-.443-.5-.868-.444-.891-.073-.207-.004-.196.069-.12.66-.566.258-.332.112-.257-.079-.343-.478-.957-.054-.139v-.144l.166-1.02.034-.46-.02-.185-.097-.833-.014-.464.05-.68.095-.939.1-1.567M354.706 227.249l-.505.634-1.37 1.348-1.186 1.069-.394.467-.223.596-.077.684-.015 1.167.194 2.298-.086.824-.38 1.541-.374 1.152-.446.77-.654.84-.452.684-.456.89-1.516 3.42-.38.59-.365.39-1.487 1.33-.976 1.017-.785.755-1.582 1.254-1.045.746-1.137.92-1.713 1.626-2.023 2.135-.737.913-.792 1.174-.774 1.296-.448.657-.591.434-.687.15-.801-.162-.57-.451-.594-1.214M317.551 259.299l2.597-1 .823-.307 1.007-.42 1.666-.839.878-.486.484-.214.415-.1.57-.006.545.199.753.434.555.41.49.431.484.7.46 1.092" clip-path="url(#p4a98b02cf0)" style="fill:none;stroke:#000"/><path d="m335.827 294.252.354-2.579.353-1.638.154-1.325-.016-.855-.092-.556-.354-.712-.2-.641-.322-1.838-.138-1.781-.43-1.41-.692-.97-.754-.697-.83-.528-.676-.399-.153-.256v-.327l.645-2.665.184-.997.031-.67-.154-.484-1.475-2.522-.353-.812-.877-2.793-.538-2.692-.092-.862.1-1.34-.046-.776-.177-1.934M289.97 333.003l-.265-.712-.042-.257.068-.337.469-1.508.193-.52.284-.428.3-.299.345-.24.5-.265.738-.221.375-.157 1.096-.649.365-.156.561-.142.638-.221.474-.159.495-.147 1.936-.335.615-.05.73-.057.622-.064.558-.127.926-.436.427-.264.303-.284.684-.72.253-.37.385-.812.308-.563.614-.919.172-.133.274-.088.308.067.214.204.415.811.384.6.462.605.253.213.432.228.437.093h.55l2.393-.363.369-.021.446.034.453.108.52.18.379.204.897.665.3.177.402.092.96-.028.43.028.285.035.521.174M325.874 329.577l-.66-.898-.388-.36-.696-.416-.638-.228-.684-.257-1.425-.345-1.587-.346-.873-.196-.388-.11-.3-.178-.524-.34-.53-.434M354.41 222.344l.135.661.452 3.291-.065.494-.226.459" clip-path="url(#p4a98b02cf0)" style="fill:none;stroke:#000"/><path d="m371.532 233.386-.807-.698-.607-.313-.492-.135-.553-.058-.439.022-3.242.164-.4-.036-.477-.143-2.82-1.21-1.752-.855-.677-.556-.46-.485-1.015-1.453-.477-.399-.322-.135-.492-.035-.738.013-1.056.175M358.66 200.01l.088-.553-.16-1.879-.02-.625.053-.47.137-.465.201-.383.344-.4M339.3 199.404l.892.542 1.106.57 1.522.398 3.082.257 1.86.114 1.806-.128 1.706-.243.707-.249 1.452-.905.684-.662.93-1.069.254-.427.569-.692 1.075-.783.677-.485.522-.277.6-.107.559-.024M592.356 485.363l-7.861-6.214-.938-.754M580.331 475.721l.567.451 2.66 2.223" clip-path="url(#p4a98b02cf0)" style="fill:none;stroke:#000"/><path d="m590.166 480.396-.507.37-.248.087-.236.027-.337-.03-.293-.077-.275-.115-.302-.172-.252-.211-.228-.267-.254-.467-.396-.776-.862-1.122-.171-.168-.138-.095-.12-.054-.119-.032-.14-.022-.129-.003-.162.027-.13.04-.098.058-.49.367-.722.634M396.204 340.992l-.11 1.513-.185 1.595-.339 2.95-.151 1.133M394.91 349.081l.34-.464.169-.434M401.14 344.817l-.816 1.22-.709.774-.561.426-.532.211-.582.188-.77.169-1.751.378M393.77 348.236l1.14.845M386.617 350.47l1.096-.295.957-.148 2.443-.213.491-.11.968-.444.478-.402.72-.622" clip-path="url(#p4a98b02cf0)" style="fill:none;stroke:#000"/><path d="m354.971 346.894 1.083-1.625.646-.77.645-.669.446-.292.522-.15 2.598-.163 3.059-.256 2.49-.2 1.153-.136 1.09-.15 1-.213 1.276-.285.953-.284 2.97-1.018.795-.173.876-.1 1.655.062 1.127.01 2.113-.352 2.543-.475.755-.07.682.11 1.288.498 1.516.922 2.97 2.003.626.56.296.422.369.513.384.869.473 1.36.4 1.394M383.496 353.39l1.715.84.6.244.738.154 1.102.035 1.14-.164.959-.375.679-.504 4.48-4.539" clip-path="url(#p4a98b02cf0)" style="fill:none;stroke:#000"/><path d="m386.617 350.47-.56.246-.784.522-.54.376-.39.45-.25.357-.597.97M378.96 364.822l.265-.15.658-.466.779-.568.177-.135.22-.138.171-.047.387.024M383.852 376.53l2.275-1.691.045-.096.004-.21-.087-.147-.155-.07-.337.025-2.177.263-.537-.018-.5-.078-.578-.2-.544-.32-.15-.274M384.655 372.453l-1.74-.12-.362.074-.41.157-.562.37-.258.228-.23.297.018.255M370.07 382.436l.198-.238.81-1.009.392-.52.815-1.14.115-.263-.038-.2-.146-.448-.016-.441.093-.421.207-.42.4-.499 1.445-1.381 1.045-.912.86-.613.661-.356.677-.156 3.523.295" clip-path="url(#p4a98b02cf0)" style="fill:none;stroke:#000"/><path d="m374.547 378 .336-.884.415-.735.603-.807.534-.46.507-.243.442-.065.54.071 3.045 1.027.8.306.836.183.624.074.623.063" clip-path="url(#p4a98b02cf0)" style="fill:none;stroke:#000"/><path d="m374.547 378 .873.048h.493l.686-.173 1.265-.724.44-.18.376.065 2.24 1.047.343.057.376-.07 2.213-1.54M370.07 382.436l2.116-1.281.699-.6.64-.63.492-.693.53-1.231M362.793 391.6l2.33-1.628 2.136-1.546.615-.477.325-.373.113-.346.126-.617M369.33 383.14l-.166.493-.23.654-.271 1-.225 1.326" clip-path="url(#p4a98b02cf0)" style="fill:none;stroke:#000"/><path d="m370.371 392.745 1.73-1.407.476-.397.126-.176.028-.18-.128-.228-.571-.369-.292-.023-.375.143-.417.291-.715.499-1.922 1.385-1.083.78-.532.369-.451.172-.573.122-.872.02-.347-.049-.214-.143-.04-.176.101-.187.488-.46 4.007-3.084.231-.288.198-.498-.013-.827-.184-.66-.59-.76M401.86 342.937l-3.664-1.419-.842-.31-.384-.128-.766-.088M412.858 359.296l-.603-.01-.557.036-.4.11-.45.15-1.02.6-2.66 1.954-2.352 1.446-1.299.548-.699.206-.653.115-.456.062-.743-.005-.376-.022-.173-.012-.207-.066-.095-.11-.1-.21M398.637 366.27l.523-1.411.855-.771M459.613 384.164l1.804-.19 3.213-.256h1.214l1.122.082.7.11.668.157 1.453.47 3.634 1.624 2.213 1.183 1.953.868 2.713.89 1.283.3.9.117.649.011 2.263-.164 1.837-.028 3.45.206 2.402.193.857.12 3.366 1.034.918.185.577.021.826-.085.66-.153.593-.225 1.383-.548 1.014-.26.682-.086.703.032.552.127.415.133M497.46 370.07l-.653.681-.119.137-.037.063-.032.073-.03.152-.039.334-.023.93-.108.583-.204.645-.072.423-.031.467-.012.862.077 1.994.05.591.127.588.192.58.229.346.192.216.23.185.221.114.266.087.585.096.521.043 1.115-.032.914-.078.486.033.627.207.416.2.453.296.333.311.444.495.277.27.253.132.213.039.288.008.744-.104 2.951-.563.442.015.484.113.289.138.22.183.189.25.108.223.147.499-.054.517-.234.512-1.084 1.639-1.513 1.816-1.046 1.475-.622 1.178M618.148 336.743l-.58-1.274-.717-1.093-.202-.252-.156-.161-.072-.044-.058-.022-.085-.014-.084.005-.292.062-.135.018-.131-.004-.094-.011-.102-.029-.358-.145-.55-.33-1.022-.613-1.28-.812-.888-.405-.47-.269-.314-.239-.178-.174-.144-.215-.177-.376-.588-1.617-.403-.866-.296-.627-.133-.176-.148-.144-.326-.27-.4-.26-.691-.307-.53-.16-.497-.054-.66-.025-.596.071-.519.164-1.21.68-1.16.813-.333.157-.267.067-.365.047-.469-.018-.492-.122-.549-.263-1.28-.816-.637-.36-.727-.445-.323-.25-1.26-1.263-.53-.446-.546-.338-.768-.327-.888-.267-.738-.275-.269-.153-.305-.24-.352-.362-.513-.703-.778-.996-1.583-1.723-.49-.615-.154-.237-.148-.303-.891-2.607-.623-2.258-1.368-4.117-.224-.538-.198-.331-.73-.805-.6-.556-1.033-.68-1.076-.72-.523-.436-.25-.25-1.133-1.354-.926-1.397-.266-.595-.09-.35-.04-.27v-.22M578.422 300.723l-.298-.163-.957-.727M525.37 333.574l-1.004-.008-1.487-.03-1.702-.192-1.737-.263-.75-.22-.622-.355-.422-.389-.298-.423-.233-.529-.103-.365-.054-.37-.031-1.424.061-2.058-.077-2.778-.076-.456-.108-.256-.17-.298-.237-.308-.388-.34-.352-.196-1.097-.368-.446-.246-.43-.381-.45-.492-.26-.545-.082-.297-.042-.258-.034-.46.048-.556.155-.659.227-1.513.004-.705-.05-.442-.116-.413-.268-.363-.239-.188-.273-.122-.903-.282-1.014-.516-.73-.467-.715-.658-.545-.667-.377-.534-.922-1.984-.334-.424-.38-.299-.474-.214-.641-.124-1.103-.057-.892.054-.876.124-.857.217-.728.3M504.77 306.084l-.543.124-.568.214-.642.381-1.134.73-.664.563-.231.267-.252.413M508.922 396.112l.216-1.146-.011-.35-.4-3.202.167-.62 2.507-4.042.77-.582.907-.326 1.17-.237 1.394-.671 1.888-1.257.857-.287.234-.3.018-.175-.242-1.163.111-1.026.3-1.142-.036-.152-.404-.918-.314-1.123-1.18-2.186.022-.563.13-.456 1.007-1.56.386-1.174-.07-.436-.138-.285-.454-.682-.066-.438-.003-.93-.265-.496-.83-1.407-.108-.634.012-1.08-.162-.601-.888-1.325-.054-.794.297-1.87.1-2.842.303-1.229.22-.424.49-.526.793-.585.976-.573 1.671-.82 4.876-3.126.611-1.058.389-1.773.676-.859 1.721-1.556.561-.677.188-.434.012-.862-.342-1.692-.819-1.934-3.015-4.748.132-.694.137-.49" clip-path="url(#p4a98b02cf0)" style="fill:none;stroke:#000"/><path d="m557.992 334.897-.55-.236-.381-.087-.31.003-1.552.3-2.56.586-.683.296-.517.353-.332.31-.342.466-.769 1.165-.394.463-.196.135-.075.03-.098.015h-.053l-.085-.016-.072-.025-.066-.04-.293-.261-.731-.668-.75-.694-.219-.283-.176-.32-.12-.299-.057-.27-.035-.48.025-.334.064-.269.664-.922.216-.342.041-.157.018-.171-.01-.33-.029-.15-.047-.139-.078-.107-.08-.079-.14-.083-.236-.058-.196-.018-.208.017-.772.11-1.232.26-.507.057-1.005-.018-.714.04-.911.178-1.003.313-2.168.905-2.574 1.125-1.537.37-1.2.08-1.924-.161-.81-.132-.514-.15-.51-.192-2.397-.976-1.432-.433M407.692 349.418l-.615-.664-.996-.928M412.528 354.724l.339-.181.257-.16.18-.164.13-.195M413.482 351.769l.028.868-.076 1.387" clip-path="url(#p4a98b02cf0)" style="fill:none;stroke:#000"/><path d="m413.88 355.176-.091-.32-.093-.231-.096-.246-.166-.355M581.95 514.319l2.968-3.46 2.474-3.136 3.317-4.723.836-1.282 5.56-5.067.335-.48.557-1.194.17-.833.103-.858.004-.755-.092-.904-.202-.6-.21-.543M594.594 487.27l1.16.988 1.628 1.588.231.344.157.294M602.076 494.064l-2.054-1.436-2.252-2.144M598.95 500.13l3.266-3.666.1-.883-.24-1.517M413.482 351.769l-.034-1.926-.11-.714-.419-.602-.823-.44-.906.058-1.235.687-.582.226-.748.223-.933.137" clip-path="url(#p4a98b02cf0)" style="fill:none;stroke:#000"/><path d="m413.482 351.769-.743-.303-.75-.165-.787.036-1.475.007-.515-.05-.319-.103-.442-.438-.759-1.335M255.863 184.643l1.322.256.33.114.284.228.984 2.023.246.35.37.37.937 1.026.699 1.097.285.377.314.15.423.078.284-.035 1.246-.363.637-.136.508.071.599.207.292.335.8 1.503.468.72.43.591.423.37.454.15.561.057.591-.035 2.952-.5.568-.085.661-.042.553.213.37.599v.527l-.861 1.225-.2.741.106.729" clip-path="url(#p4a98b02cf0)" style="fill:none;stroke:#000"/><path d="m309.347 133.918-.086 4.607-.39 1.81-1.268 1.596-1.173 1.842-3.025 2.715-2.245 2.17-4.196 1.901-1.562 1.72-5.27-.091-2.05 2.714-3.122 2.986-.781 4.252.683 8.686 2.245 4.705.396 1.973v1.025l-.038.597-.147.658-.46.997-.892 1.625-.892 1.282-1.03 1.197-1.06 1.268-.722.997-.354.695-.492 1.385-.43.898-.461.57-.466.418-2.055 1.306-.63.536-2.106 2.214-1.015 1.154-.507.684-.247.544M291.461 244.24l-.33-.289-3.805-3.156-.569-.42-.514-.306-1.338-.812-.925-.592-1.058-.933-.33-.327-.853-.97-.277-.47-.153-.449-.065-.429-.074-.874.046-.484.108-.35.2-.342 1.652-1.837.192-.286.092-.427-.049-.412-.204-.564-1.114-1.88-.155-.343-.06-.285-.07-.584-.177-2.55.077-.55.123-.384.23-.349 1.789-1.97.318-.43.338-.506.384-.663.346-.72.23-.612.123-.699.016-.434-.088-.422-.196-.326-.331-.484-.692-.776-.278-.285-.221-.307-.162-.406-.361-1.66-.285-.68-1.355-2.193-.527-.974-.115-.495.022-.445.354-1.14.014-.543-.199-.426-.707-.827-1.444-1.653-.738-.698-.784-.513-1.921-1.054-.502-.355-.636-.643-.594-.89-.235-.406-.125-.397M398.165 360.546l-1.24.258M396.925 360.804l-1.004.385-1.319.463-.534.22-.403.278-.43.356-.327.428-.553 1.082-.262.784.03.627.174.455.473.172.523.043 1.371-.229.38-.2.143-.27.441-.74" clip-path="url(#p4a98b02cf0)" style="fill:none;stroke:#000"/><path d="m390.172 366.31.28-.912.43-1.41.2-.585.132-.241.172-.2.32-.121.246-.071.172-.078.184-.186.604-.541.642-.541.66-.356.673-.129.76-.078 1.278-.057M400.327 336.45l2.223 1.29M401.206 330.884l1.635.666.23.156.09.17-.135.343-1.368 2.212-1.33 2.018M405.308 326.542l-.534.434-.582.541-1.105 1.126-.922.955-.96 1.286M401.39 339.353l.33-.474.83-1.138M386.32 349.76l.164.344.133.365M386.32 349.76l-1.864-.14-1.246-.186-1.137.057" clip-path="url(#p4a98b02cf0)" style="fill:none;stroke:#000"/><path d="m378.476 347.924 5.737-1.345h.453l.42.163.387.492.846 2.526M317.551 259.299l-.153-.265M306.5 289.387l.386-.702.137-.502.054-.342-.018-.455-.09-.308-.988-1.306-.272-.177-.382-.164-1.989-.715-.442-.262-.123-.268-.041-.33.402-1.507.17-.403.23-.346 1.034-.982.334-.35.261-.377 1.122-1.458.17-.288.092-.363-.033-.327-.282-1.945.015-.3.114-.366.109-.203 1.24-1.433.227-.341.126-.418.106-1.243.068-.277.188-.386.765-.996.377-.377.86-.629.323-.19.455-.108 2.05-.366.3-.09.212-.146.357-.758.14-.441.39-1.368.115-.343.128-.252.211-.253 1.415-1.286.306-.317.494-.734.167-.363.094-.41.03-.552-.063-1.265M114.548 193.832l.778-.242.585-.364.408-.53.977-2.171.234-.175.558-.024.365.206 1.998 2.047 1.207.962 1.913 2.08.753.492.615.2 3.674.748 1.314.555.645.157 2.336.178 2.867-.32.861.277 1.56.99.638.214 1.714.385 2.52 1.475 1.868.441 1.484.442 1.574.37 3.79 2.003 1.828 1.132 1.507.677 2.89 1.425 1.786 1.047.426.097 1.511.078.476.117 9.35 3.398 3.158.107 2.144.827 3.012 1.852 1.53.285.714-.107 1.607-.534.53-.328 1.014-.826 1.368-.79.423-.094 2.636.064.384-.078.63-.32 1.115-.806.46-.805.14-.44.383-2.908-.59-2.33.145-.57.184-.128.35-.054.918.214 2.828 1.044 1.007.392 2.505 1.012 2.022.384.384.292 1.537 1.76 1.11.962 4.523 3.355.83.635 1.122.463 1.914.455 4.796 1.219 1.106.128 5.794-.022 6.141.228.346.193.946 1.154 3.896 6.141 1.552 1.574.115.32.023.813-.392 2.194.07.428.307.527.369.37 3.166 2.394.584.705.054.413-.177 1.169.292.32.161.029 2.236.036 2.253.854 1.722.007 2.436.727 1.69.05 3.812 1.674.96-.014 2.813-.876 1.43-.15.845.014 1.083.15.854.271 3.327 1.253 1.622.058 1.552-.306 1.115-.229.76.178.685.499 1.575 2.144.273.22 3.708 2.01 4.634 1.795 1.391.876 1.99 1.497.377.12 2.513.05 1.683-.09" clip-path="url(#p4a98b02cf0)" style="fill:none;stroke:#000"/><path d="m291.461 244.24.268.43.17.656.184 2.974M317.398 259.034l-.44-.473-.398-.234-.3-.164-.56-.206-1.76-.556-2.199-.62-1.547-.552-3.586-1.585-.92-.288-.94-.296-3.673-1.04-.646-.17-.542-.048-1.548-.039-.677-.127-.563-.283-2.418-1.498-1.491-1.012-.323-.314-.277-.327-.322-.542-.185-.36M303.965 245.483l-1.669.143-.445-.043-.569-.1-1.998-.57-.776-.278-1.376-.72-1.322-.94-.591-.32-.676-.221-.547-.057-.53.135-.584.307-.422.299-.999 1.121M354.971 346.894l2.197 1.077M338.344 337.519l.45.52.318.446.655 1.07.456.77.316.32.384.163 2.205.514 1.251.316.793.297.984.442 1.091.556 1.967 1.139 3.763 1.893 1.994.929M360.091 349.45l-2.923-1.48M366.744 345.93l-2.774.208-.338.063-.215.135-.608.912-.576 1.055-.15.164-.142.049-.523.058-.484.113-.3.171-.543.592M368.83 353.763l-6.3-3.206-2.439-1.107M356.21 349.73l.373-.703.585-1.056M335.755 335.213l-1.49 2.34M330.941 333.497l2.466.748.63.218.806.342.912.408M337.303 336.378l-.185-.17-.5-.42-.488-.335-.375-.24M322.717 328.7l1.436.314 1.007.32.714.243M327.287 330.945l-.298-.307-.33-.307-.347-.339-.245-.245-.193-.17" clip-path="url(#p4a98b02cf0)" style="fill:none;stroke:#000"/><path d="m319.896 328.924.564-.393.389-.115.449.032 1.419.252" clip-path="url(#p4a98b02cf0)" style="fill:none;stroke:#000"/><path d="m321.189 331.227.568-.727.96-1.8M319.896 328.924l-.961 1.23-.322.214-.37.099-.372.067-.689-.124-4.199-.828" clip-path="url(#p4a98b02cf0)" style="fill:none;stroke:#000"/><path d="m318.286 329.332.519-.061 1.091-.347M407.406 326.67l-.076 2.034M405.308 326.542l.626.025.696.053.776.05M417.112 351.53l-.004.627-.257 2.343-.064.812-.028.134-.044.1-.064.081-.161.12-.32.158-1.225.46M416.203 358.855l-.258-.561-.372-.804-.628-1.124M413.88 355.176l.12.062.277.188.238.31.43.63M391.925 386.84l-.192-.418-.73-1.05-1.23-1.675-.227-.378-.128-.288-.064-.289.015-.335.192-.747.83-2.729.077-.363.089-.556-.004-.662-.06-1.064-.109-1.232M393.444 379.127l-.81 1.358-.14.056-.144-.006-.629-.355-.131-.159-.069-.156-.062-.255-.307-2.046-.169-.698-.162-.57-.437-1.242M394.083 377.746l-.64 1.381" clip-path="url(#p4a98b02cf0)" style="fill:none;stroke:#000"/><path d="m397.505 379.446-2.326-.137-1.735-.182M372.147 407.643l.416-.458 1.068-1.178.883-.987.33-.475.31-.764.297-.939.17-.363.2-.321.353-.313.358-.176.952-.25.688-.265.52-.318 1.16-.849 1.356-1.055.369-.2.514-.214 2.444-.84.692-.284.538-.3.593-.446.59-.565.659-.793.863-1.237.361-.591.234-.315.335-.37.469-.44 1.106-1.026.247-.264.303-.39.25-.586.083-.657.067-2.574M431.672 422.411l-.792-.26-.787-.142-1.407-.11-1.026-.061-.254-.04-.196-.052-.191-.068-.573-.285-1.687-1.122-.403-.179-.335-.1-.476-.003-2.997.307-.423-.014-.525-.068-.296-.068-.278-.096-.24-.125-.16-.117-.36-.364-.308-.476-.23-.396-.118-.226-.306-.436-.272-.29-.242-.17-.294-.161-.584-.243-.725-.247-.613-.22-.973-.391-.44-.134-.456-.096-.672-.053-.63.043-.423.05-.411.083-.406.059M412.56 426.984l-.442-.566-.462-.763-.246-.453-.161-.63-.031-.712v-1.716l.123-2.564-.046-.726-.13-.604-.132-.5-.196-.488-.218-.474-.456-.648M431.672 422.411l.569.285.434.273 2.2 1.577.617.39.295.153.38.135 1.288.285 2.275.588.673.159.231.02.168.004.188-.01.139-.038.132-.062.133-.075.476-.368.21-.113.347-.109 1.13-.241.58-.193.815-.324.553-.302.515-.374.638-.62.492-.563.188-.194.219-.14.515-.257 1.331-.511.408-.135.332-.06.295-.011.789.033 1.737.171.23.001.206-.017.14-.04.11-.047.209-.156.173-.164.223-.246.182-.118.264-.089 1.167-.212.395-.123.345-.2.227-.179.19-.258.167-.256.67-.873.424-.477.495-.381" clip-path="url(#p4a98b02cf0)" style="fill:none;stroke:#000"/><path d="m432.196 428.268.018-1.61-.185-1.904-.357-2.343M392.59 426.753l1.613 1.281.753.613.563.262.882.18 3.572.354M425.635 319.654l-.45-.267-.228-.163-.089-.103-.05-.101-.041-.146-.122-1.17-.128-.365-.154-.27-.081-.11-.107-.1-.74-.496-.257-.239-.858-1.11-.847-1.266-.55-.736-.428-.396-.41-.263-1.395-.862-.335-.286-.26-.27-.35-.492-.596-1.1-.227-.442-.23-.299-.435-.399-1.114-.887-.715-.434-1.222-.456-1.495-.47-1.694-.645M397 308.933l1.975.143 1.061.007.6-.129.645-.313.407-.313.677-.705.764-.699.454-.327.495-.264 1.138-.363 1.057-.225 3.754-.434M130.108 285.213l-.189-.079-.922-.171-1.176-.2-.868-.256-1.676-.755-.672-.467-.73-.467-.984-.427-1.36-.456-1.01-.107-1.123-.014-.784.11-1.31.292-1.71.445-2.06.517-1.667.46-.91.103-.75-.064-1.303-.367M124.94 351.928l-.124.592.015.662.047 2.437-.077 2.094-.092.726-.146.634-.454 1.168-.3.655-.468.72-1.007 1.332-.523.67-.722.854-2.167 2.237-.53.477-.546.477-1.53 1.168-.845.791-.953.783M132.155 346.522l-.376.428-.323.299-2.543 2.072-.408.264-.392.221-2.397 1.197-.378.298-.284.343-.114.284" clip-path="url(#p4a98b02cf0)" style="fill:none;stroke:#000"/><path d="m103.79 339.663 1.237.641.638.378.707.562.584.563.5.613.33.306.408.27 1.075.535.5.263.53.37.3.264.223.356.353.983.17.314.23.313.976.655 1.045.563.715.278.6.15.514.064 1.114.014.385.014.4.121.799.449.36.256.316.328 1.16 1.425.553.47.485.3.591.284 1.706.833.3.085.231-.006.269-.121.846-.628M100.73 454.301l1.8 1.602.376.449.192.455.354 1.097.245.606.192.548.14.541.137 1.07.042 2.848M107.15 194.516l.72-.02 2.745.133 1.583-.12.884-.15.514-.164.952-.363" clip-path="url(#p4a98b02cf0)" style="fill:none;stroke:#000"/><path d="m252.179 181.563-.815-.79-.814-2.574-.002-1.953-1.692-2.785.559-3.018-1.414-1.796-1.63-1.523-1.444-3.266-.4-1.209-.615-1.242-.584-.753-1.014-.929-.123-.684.523-3.202-.83-3.448-.462-3.733.093-2.45-1.753-4.27-1.137-3.71-.86-1.678-1.446-1.824-1.167-2.624-2.183-2.108-5.195.797-1.937-.4-3.443-.283-2.49-.456-4.273-.2-1.076.229-1.998 1.195-1.322.315-3.197.058-1.26-.23-2.89-1.081-1.875-1.312-.43-.57-.584-1.967-.338-.484-.554-.371-2.244-1.054-.645-.057-.738.113-.891.285h-.523l-.585-.17-.522-.285-.4-.37-.123-.315.247-1.823-.031-.77-.185-.683-.522-1.111-.708-.972-.553-.368-1.168-.313-.553-.003-1.845.37-.707.003-.922-.17-1.076-.371-1.199-.288-2.643.145-.892-.17-.737-.403-1.169-.852-1.844-1.567-1.015-1.115-1.537-2.418-.768-.513-4.12 1.197-1.967-1.796-.584-.974-.092-.713.338-1.796-.215-.392-.584-.598-1.968-1.546-1.506-.913-2.09-.541-3.259-.998-1.014-.057-1.23.2-2.674.77-5.871 3.335-2.86.655-2.52 2.11-5.226 5.387-2.644 3.392-3.228 4.62-9.498 9.431-.584 1.085-1.168 3.421-1.322 1.763-.584 1.23-.4 1.168-.523.937-4.15 4.958-3.381 3.819-1.353 1.994-1.322 2.536-.153 1.263.092 1.7 1.106 4.828-.092 1.385.308 2.08 2.305 1.808.707.814.922 2.094.739 2.55v.756l-.339.685-1.475 1.865-.277.684-.061 1.185.246 1.038.614 1.225.615.644 1.968 1.34.307.552.215.969.54 3.795.842 3.068.11 1.162-.269 1.395-.432 1.274M130.108 285.213l.526.22.492.392.637.904.231.528.146.726-.038.655-.308 1.924-.023.555.085.627.261 1.553-.008.577-.33 1.432.007.32.062.364.292.463.56.37.593.171.538.03 1.475-.15.915-.093.622-.014 1.468-.036.684-.05.661-.1 1.315-.213.368-.03.47.066.33.22.522.776.385.67.199.378.154.391.338 1.112.17.405.226.332.976 1.11.319.333 1.322 1.146 2.005 1.589 1.353 1.125 1.299 1.012.676.556.746.747.63.57.814.691.408.292.653.4 1.906 1.075.868.463.615.192.553-.035.454-.221.446-.314.5-.534.199-.32.292-.94.223-.428.692-.784 1.275-1.24 1.89-1.538 2.982-2.08 2.198-1.916 1.438-1.183M132.155 346.522l.516-.634.345-.37 1.13-.912 2.321-1.56 1.83-1.317.714-.691.937-1.197.43-.727.692-1.096.569-.741 1.444-1.51.677-.485 1.276-.982.33-.364.215-.484.07-1.51.03-.392.185-.435.292-.377.492-.463 1.867-1.497.93-.833 1.03-1.032 1.59-1.767.73-.656 1.261-1.04 1.253-1.203.253-.328.254-.463.969-2.322.184-.385.2-.363.253-.314.285-.135.423-.071 1.283-.057.46-.093.5-.207.423-.263 1.445-1.175.346-.32.369-.435 1.09-1.632.316-.37.369-.356.791-.563.331-.285.215-.25.407-.554.47-.628.468-.52.991-.897.216-.257.268-.47.223-.605.215-.784.223-.876.393-1.788.16-.513.185-.456.876-1.595.7-1.46M453.698 386.154l-1.117-1.056M459.613 384.164l-1.608.17-.738.11-.984.268-.695.288-1.224.66-.666.494M416.203 358.855l1.209 2.127.484.897.404.574.75.605.675.353.842.285.801.112.684-.007.817-.08 1.497-.363 1.458-.29.852-.085 1.119.004 1.172.143.98.263.622.285.204.14.136.145.313.442.412.778.16.464.09.342.037.588-.076.645-.292.961-1.06 2.614-1.084 3.38-.542 1.884-.116.552.024.823.08.512.254.855.492.82.53.669.52.415.517.311.83.4 1.146.234 1.936.1 2.052-.107.804-.01.994.074.823.121.876.243.822.391.823.535.614.542.596.615.795 1.015 1.768 2.614.465.616.242.27.538.51.588.374.264.102.166.05.366.069.295.021.4-.02.32-.047.637-.2.446-.278.437-.402 1.433-1.681.316-.34.738-.675M592.356 485.363l2.238 1.907M594.808 484.382l-.018.67-.247.36-.441.295-.99-.164-.756-.18M413.88 355.176l-.376-.213-.365-.114-.61-.125M548.06 266.436l.614-.914.379-.438.315-.255.302-.197.257-.123.692-.233.883-.26.354-.201.153-.148.116-.193.115-.322.043-.324-.05-1.388.023-.4.087-.345.099-.245.14-.185.419-.345 3.286-1.75 2.889-1.342.94-.44 2.268-1.06.907-.556.4-.377 1.275-2.06.227-.273.208-.162.207-.123M570.858 250.38l-.22.123-.422.13-2.46.506-.887.164-.619.207-.642.267" clip-path="url(#p4a98b02cf0)" style="fill:none;stroke:#000"/><path d="m568.417 242.904.043 1.82.05.83-.293 1.39-.192.601-.05.162-.028.235.006.344.134 1.098-.018.307-.044.173-.159.287-.19.223-.23.183-.205.134-1.006.513-.143.091-.153.126-.33.356M548.06 266.436l.453.393.15.176.146.238.196.512.165.809.088.51.058.533-.011.384.024.217.047.134.086.154.17.156.145.108.184.094.554.246.184.103.15.136.296.356.396.773.215.883.161 1.033.089.275.073.139.062.088.088.09.27.187.214.083 1.418.364M596.828 299.272l-.314.294-1.425 1.542-.715.46-.7.277-1.11.243-1.403.142-2.052-.004-1.78-.204-.792-.036-1.172.063-.63.024-.35-.035-.517-.139-1.537-.556-.66-.138-2.37-.25-.518-.094-.361-.138M584.533 305.735l.292-.802.046-.324-.001-.093-.018-.078-.047-.074-.072-.068-.258-.178-.27-.135-.318-.118-1.183-.328-.465-.163-.603-.31-2.402-1.533-.396-.363-.416-.445M557.992 334.897l.508.695.542.887.507 1.082 1.452 2.522.358.556.626.644.6.538.499.57.503.727.426.84.298.588.343.577.118.148.145.147.534.41.674.495.123.139.106.174.08.303.008 1.084-.038.294-.112.339-.234.36-.918.854-.223.263-.221.435-.048.28.011.269.07.312.115.293.322.463.246.257.302.18.26.091.265.044.707.032.991-.045.604.103.63.222.518.299 1.633 1.41.321.22.532.268 1.051.466.215.177.135.147.098.153.161.542v.449l-.096.46-.388 1.2-.02.242.012.142.031.136.173.39.4.592.069.155.06.212.001.206-.061.595-.288.805-.273.962-.304.769-.568 1.075-.442.642-.423.79-.334.745-.22.363-.264.317-.63.563M505.44 303.646l.878.012 1.448-.146 1.314-.217.385-.024.392.006 1.114.064.742-.053.61-.153.7-.367 1-.61.714-.434.883-.612.358-.13.273-.041.372.007.311.064.877.349.607.378 3.116 2.767.442.36.503.295.808.296 1.517.652 3.099 1.467 2.427 1.1 1.975.855.73.357.857.285 1.848.405.876.05.746-.05.568-.127.251-.036.349-.014 1.794.024.53-.006.243.037.207.07.41.21.559.53.799.702.597.454.358.235.874.4.129.086.043.067.03.074.02.096-.003.134-.089.263-.192.314-.753.783-.315.474-.338.694-.196.682-.027.148.004.206.058.325.726 1.482.167.354.104.33.073.46-.015.34.022.302.062.267.133.277.305.42.492.403.517.518.449.617.327.552.142.356v.277l-.033.165-.073.18-.054.069-.098.064-.122.035-.179-.001-.444-.123-.803-.264M497.384 293.596l1.517 1.607.312.488.08.263.012.364-.042.345-.1.364-.611 1.029-.317.617-.04.145.005.147.037.152.115.187.177.176.288.175.24.107 1.132.392 1.256.278.842.092.277.028.245.061.143.068.165.132.538.662.265.349 1.52 1.822M580.331 475.721l-5.497-4.37-2.797-2.429-3.574-3.447-2.075-2.179-.776-.955-.576-.925-.462-.933-.291-.784-.376-1.32M560.875 447.296l1.71 5.837.33 1.175.837 3.525.155.547M554.966 466.525l1.578-1.557.392-.322.153-.104.222-.08.263-.023.13.009.142.034.427.188.93.613.215.064.246.032.365.007.355-.03.471-.101.53-.232.708-.616.257-.324.198-.354.06-.156.032-.185.021-.405-.13-1.261-.012-.69.088-.735.227-.705.186-.512.102-.159.127-.12.242-.177.416-.244M554.966 466.525l-.357.351-.252.325-.225.409-.163.618-.16.623-.058.082-.09.067-.146.055-.168.024-.171-.036-.172-.07-.2-.152-.587-.782-.186-.188-.152-.068-.183-.024-.171.038-.184.073-.515.255-.922.583-.942.21-1.156.52-.346.147-.212.039-.208.015-.175-.008-.412-.04-1.276-.177-.324-.091-.26-.123-.507-.37-.255-.123-.229-.055-.179-.008-.182.022-.446.128-.807.363-1.091.648-.999.706-.98.566-.357.15-.677.167-1.86.377-1.567.548M560.41 445.847l.145.356.32 1.093M551.518 442.962l.25.106.167.117.232.233.092.2.092.345.212 1.823.234 1.433.239.818.169.513.098.177.155.175.389.296.958.525.16.051.26.043.165.007.147-.008.376-.07.147-.065.603-.376.764-.463.37-.224 1.871-.859 1.207-.463M528.74 416.71l-.285.954-.166.965-.011.247.073.298.127.228 1.047 1.179.134.228.079.263.092.399.012.392-.142.623-.388 1.145-.054.424-.008.332.025.257.094.267.35.46.65.651.303.452.18.355.188.212.2.168.216.12 1.97.691" clip-path="url(#p4a98b02cf0)" style="fill:none;stroke:#000"/><path d="m534.538 418.964-.29-.06-1.893-.485-1.372-.517-1.153-.566-1.09-.626M555.398 438.092l-.756-1.127-.442-.986-.273-.794-.119-.584-.104-.798-.12-1.73.065-2.87M534.538 418.964l2.716.566 5.303.898 4.711.476 1.314.296.884.31 1.326.812.61.488.6.612.522.645.566.944.218.452.196.534.093.492.083 1.37-.03 1.343" clip-path="url(#p4a98b02cf0)" style="fill:none;stroke:#000"/><path d="m567.165 427.571-.38-.595-.139-.162-.19-.164-.175-.09-.15-.045-.118-.01-.12.008-.117.02-.571.183-1.037.392-1.115.584-.354.228-.322.324-.304.428-1.118 2.197-.419.591-.518.52-1.6 1.282-1.113.755-.617.274-.486.167-.442.079-.3-.002-.262-.053-.093-.042-.096-.076-.133-.173-.092-.185-.046-.189-.03-.222.01-.159.174-1.05-.008-.595-.093-.759-.207-.936-.102-.219-.186-.226-.17-.153-.477-.296M555.398 438.092l1.438-.486 1.371-.405 1.434-.68.603-.216.494-.08.747-.032.836-.058.443-.1.222-.1.17-.123.643-.605.914-.713.95-.527 1.094-.83.777-.474 1.156-.523.926-.36 1.103-.323.367-.147.156-.043.175-.032.29-.01 1.214.142M565.68 436.631l.696-.768 1.15-.025 1.58.471.562-.1.24-.669 1.125-.595.91-.397 1.712-.57.67-.521.133-.446-.321-.62-1.216-1.024" clip-path="url(#p4a98b02cf0)" style="fill:none;stroke:#000"/><path d="m578.38 429.711-.73.075-.405-.094-.853-.376-.506-.131-.427.244-1.622 1.786-.916.152M560.41 445.847l-.961-1.71-.684-1.118-2.748-4.006-.619-.921M560.41 445.847l1.371-.787.5-.278.45-.196.564-.16.565-.06 1.549-.1.445-.068.283-.087.232-.109.734-.52.303-.17.327-.122.596-.085 1.195-.064h.93l.503-.079.314-.132.649-.39.35-.167.553-.15.797-.18.592-.248.538-.306 1.752-1.105.37-.176.23-.073.372-.057.634-.028.53-.075.342-.121.183-.105.203-.191.162-.308.102-.418.073-.442M578.062 480.844l.584-1.367.484-.961.185-.58.046-.343-.027-.39-.063-.232-.118-.193-.518-.588-.064-.093-.029-.089-.004-.09.018-.08.032-.067.043-.054.119-.084.136-.046.144-.01 1.301.144M394.57 474.146l1.55.438.512.231 1.26.766 1.583.834 2.302 2.033.475 1.059.47.245.347-.022.38-.193.195-.299.166-.893.045-1.026-.063-1.462.2-.152.682-.028.505.13 1.985.469 1.76.136 1.045-.307.838-.396 1.779-.997.653-.016.311.32.273.807.438 1.154.6.663.79.37 1.6.597.768.742 1.824 1.407.501.214.456-.045.287-.31.775-1.086.357-.097.213.097 1.117.93.526-.065 1.922-1.188.584-.064.814.15 1.58.395.441-.004.957-.199.477.103.472.474.724.66.483.052.768-.192 1.08-.637 1.395-1.663 2.72-2.251.857-.42.338-.065 1.226.079 1.413.077.618-.148.267-.143 1.017-.74 1.523-.741 1.076-1.061.4-.189.862-.037 1.028.293.9.339.55-.077.337-.19 1.314-1.34.457-.088 1.015.005.251-.156.097-.15.532-1.401.438-.691.745-.862.815-.534 1.398-.663 1.242-.299.401.004 1.49.281.28-.021 1.548-.242 1.588.092 1.721-.345 1.656.253.517.197.709.7.669.449 6.434 1.727 1.78-.217.708.206 1.4.68 1.04.178.86-.067 1.25.142.438.15 2.255 1.1.788-.075.495-.217 1.538-1.018.709.073 3.123.732.306-.132.453-.654-.046-.45-.184-.242-.738-.67-.484-.739-.07-.272.009-1.688.245-1.018M424.99 520.899l-.17-.282-.514-1.38-1-.271-.318-.453-.366-1.154-.461-.314-.737-.048-1.245.203-.82.242-1.865-.56-.97-.824-.973-1.034-.51-.785-.968-.603-2.016-1.977-.71-1.271-.51-.674-1.547-.79-1.317-.701-.561-.607-.101-.755-.022-.679-.322-.831-.123-1.224.333-1.244.25-1.23-.06-.418-.229-.396-1.05.022-1.416.43-1.074.114-.953.497-1.223.319-.824.156-.596-.748-.242-.756-.426-1.37-.173-1.235.066-1.687-.4-2.516-.244-2.192.067-1.945.825-1.8.031-.369-.057-.252-.166-.36-.335-.295-.683-.376-.365-.205-.336-.278-.218-.277-.092-.314.045-.321.132-.676.343-1.38.141-.493.188-.575.461-1.087.082-.446-.047-.377-.13-.303-.185-.239-.377-.306-1.545-1.102-.222-.25-.1-.272-.07-.31-.123-1.765-.057-.196-.096-.144-.369-.37-.755-.644M425.635 319.654l-.202.419M595.185 307.131l1.483-1.696 1.203-1.27.741-.945 1.53-2.23.288-.498.092-.239.044-.197.01-.23-.02-.224-.093-.233-.114-.16-.165-.122-.204-.084-.179-.048-.466-.044-1.092.128-1.415.233M426.778 296.533l-.036-.422.01-.278.055-.27.55-1.454.637-1.253.033-.17-.003-.13-.033-.113-.077-.14-.124-.118-.226-.134-.868-.42-2.751-1.468-.25-.212-.158-.19-.13-.253-.077-.385-.07-1.297.1-2.849.308-2.8-.006-.172-.036-.159-.127-.214-.112-.117-.134-.078-.461-.143-.83-.093-1.203.029-.941.22-.915.34-.407.085-.323-.015-.296-.074-.122-.082-.09-.114-.072-.207-.018-.22.031-.193.06-.174 1.06-1.34.93-1.688 1.253-1.353.853-1.012.175-.353.06-.285.015-.27-.096-.307-.177-.36-.34-.425-.605-.544-.404-.484-.242-.402-.073-.178-.038-.24.004-.747-.022-.248-.044-.204-.065-.115-.077-.085-.082-.067-.122-.068-.261-.09-.55-.056-1.398-.05-2.913-.388-.66-.125-.635-.224-1.007-.51-.376-.203-.665-.374-.357-.338-.196-.345-.277-.677-.507-1.51-.622-1.952-.515-1.062-.23-.399-.16-.447-.095-.557-.026-.833.018-.627.024-.713.088-.801-.05-.63-.576-.813M426.778 296.533l.071.84.081.444.138.296.266.377 2.09 2.138 1.153 1.324.722.463.622.278.5.139.453.06 1.077.008.93.096.784.267.541.267.442.353.926.776.384.263.32.15 1.575.563 1.07.429.774.422.48.309M475.857 287.575l-.368.465-.946 1.183-.326.563-.142.355-.338 1.397-.143.41-.226.423-.753 1.09-.408.645-.301.655-.152.474-.3 1.111-.392 1.446-.392.934-.265.391-.419.449-.645.427-1.169.463-2.02.641-.97.442-1.751.876-1.284.481-1.122.545-1.099.698-.728.52" clip-path="url(#p4a98b02cf0)" style="fill:none;stroke:#000"/><path d="m467.926 288.359.815 1.06.1.176.046.162.002.242-.018.123-.037.146-.254.55-.5.816-.172.431-.125.575-.041.557.08.437.068.164.11.169.16.185.224.175.494.227.384.202.095.076.057.082.044.152.011.165-.047.287-.116.272-.918 1.07-.615 1.067-.279.412-.24.278-.657.479-1.783.94-1.883 1.482-2.751 1.856-.786.606-.157.21-.052.124-.016.156.03.189M568.417 242.904l.492-.367.323-.345.208-.339.092-.265.053-.386.123-1.397.304-2.198-.025-.222-.087-.22-.115-.157-.192-.116-.148-.04-.251-.01-2.252.153-.738-.063-.745-.176-.7-.319-.253-.094-.412-.082-.357-.025-.519.034-.188.03-.211.075-.254.167-.307.3-.371.457-.306.458-.142.265-.079.29-.193.91-.237 1.262-.044.514-.001.23.028.184.307 1.065.102.34.06.112.076.084.076.046.076.025.11.017h.055l.14-.017.766-.305.708-.343.425-.127.27-.043.19-.014.64.064 1.505.35 1.187.185.811.053" clip-path="url(#p4a98b02cf0)" style="fill:none;stroke:#000"/><path d="m568.417 242.904-.81-.053-1.188-.186-1.506-.349-.638-.064-.191.014-.27.043-.425.127-.708.343-.765.305-.141.016h-.054l-.11-.016-.077-.025-.076-.046-.076-.084-.06-.112-.102-.34-.307-1.065-.028-.185v-.229l.045-.514.237-1.263.193-.908.08-.29.141-.266.306-.458.37-.457.308-.3.254-.167.211-.075.188-.03.52-.034.356.025.412.082.253.094.7.319.745.176.738.063 2.252-.153.251.01.148.04.192.116.115.158.087.219.025.222-.304 2.198-.123 1.397-.053.386-.092.265-.208.339-.323.345-.492.367M570.858 250.38l.295-.167 1.622-1.083.55-.271.312-.121.27-.085 1.358-.264.903-.246.557-.245 1.184-.73.595-.31.626-.181 1.222-.175 2.751-.278 4.043-.328.965.043 2.547.456.73.27.4.198.328.22.333.25.453.444.623.948.43.448.346.269.282.107.256.048.265.01.584-.035 1.694-.281 1.15-.502 1.2-.725.49-.294.304-.128.28-.076.734-.11 1.118-.107 1.157-.064h1.399l1.546-.089.498-.016.403.023.318.072 1.108.37.494.094.459.038.517-.038.54-.13.468-.11.592-.066.861-.102.296-.06.276-.094.262-.125.136-.088.145-.113.318-.378.663-1.008.743-1.5.777-1.018.85-1.015.258-.253.252-.193.215-.126.715-.353.232-.126.165-.14.1-.134.072-.132.203-.656.412-.72.322-.418.43-.4 1.315-.934 1.652-1.132 1.015-.542.883-.541.8-.734.664-.725.235-.215.197-.143.821-.349.903-.22 1.621-.186.7-.182.63-.267.565-.413.403-.42.408-.613.153-.648-.03-.691-.385-1.447-.553-1.966-.28-.72-.319-.523-.684-.751-.55-.577-.227-.335-.124-.244-.056-.198-.088-.545.019-.672.088-1.946-.023-1.945-.089-.748-.107-.456-.377-.97-.134-.506-.038-.42.03-.547.071-.298.102-.194.124-.183.145-.145.442-.246 1.264-.38.477-.218 1.103-.794.626-.293.75-.22 1.288-.095.192-.033.16-.04.227-.078.194-.115.125-.125.081-.155" clip-path="url(#p4a98b02cf0)" style="fill:none;stroke:#000"/><path d="m623.258 211.38 1.2-1.475 1.083-1.335.438-.417.144-.112.152-.08.156-.068.101-.021.163-.011.14.02.353.145.712.462 1.053.62.386.169.344.094.7.1.972-.075.71-.132.37-.042.253.024.162.05.168.082.806.57.238.114.259.096.407.064.325.016 2.216-.04M426.778 296.533l.763-.443 1.068-.752 1.196-.712 1.152-.599.754-.227.368-.193.308-.228.465-.48M475.857 287.575l-.424 1.169-.075.354-.011.281.073.553.165.49.282.592.287.48.61.806.513.51.38.288M478.036 275.22l-.13.233-.15.472-.092.49-.23 1.381-.37 1.966-.153 1.995.061 1.845.077 1.022-.023.927-.115.502-.362.648-.692.874M492.542 185.711l1.583-.509 2.621-.873.682-.152.271-.012.274.025.225.096.175.107.133.143.115.174.038.278-.017.198-.054.172-.182.31-1.607 2.223-1.567 1.482-.477.422-.196.298-.077.203-.018.203.017.242.055.178.117.241.1.145.371.348.527.313 2.409 1.098 3.866 1.446 1.041.58.707.545 1.049 1.076 1.391 2.144.253.691.216 1.226.138 1.026.021.33-.01.197-.038.17-.04.19-.09.203-.143.207-1.349 1.296-.338.253-.495.26-1.637.755-.265.209-.18.219-.158.203-.089.246-.115.648-.004.92.142 1.495.037.229.069.213.144.303.791 1.164.27.355.172.183.257.201.374.227 1.014.399 1.065.202.695.282.53.324.392.342.114.142.098.179.051.22.037.243-.092 1.531-.023.99.088 1.029-.015.4-.066.716-.123 1.382.016.353.053.367.15.516.7 1.724.772 1.13.223.384.18.453.12.566.017.435-.225 1.937-.013.565.04.597.188.926.151 1.05M499.824 258.369l.077-.729.437-2.647.489-4.302.065-.383.104-.351.219-.61.61-1.171.93-1.86.388-.628.199-.256.183-.133.368-.23.684-.466.352-.302.34-.385.99-1.703 1.158-2.312.818-1.556.234-.734.512-1.852.147-.447.222-.48.798-1.481.098-.556-.013-.598-.048-.338" clip-path="url(#p4a98b02cf0)" style="fill:none;stroke:#000"/><path d="m495.893 235.933 1.076-.523.326-.26.196-.235.434-.717.22-.512.4-1.112.437-.812.946-1.232.453-.478.334-.27.362-.2.633-.256 3.001-1.215 1.019-.417.411-.092.33.014.179.045.16.08.219.142.2.196.837 1.39 1.13 1.602.326.367.261.21.401.21M495.893 235.933l-.996.307-.791.178-.304.024-.257-.038-.254-.129-.253-.274-.461-.552-.316-.244-.264-.116-.537-.118-.274-.01-.292.025-.934.21-.703.08-.773.034-.55.082-.625.189-.688.256-.78.428-1.891 1.553-1.476 1.61M502.769 176.952l-4.179-1.408M506.954 178.19l-3.353-1.064-.832-.174M499.553 177.018l.274.008 1.4-.106.962-.027.58.059M498.71 176.976l.843.042M492.542 185.711l-.968.296-.446.07-.298-.017-.246-.09-.163-.13-.084-.2-.035-.282.035-.245.08-.237.81-1.445.531-.648.377-.356.453-.353.523-.263.53-.282.346-.251.284-.256 1.268-1.516.834-1.28.384-.444.603-.442.307-.173.258-.096.331-.073.453-.022" clip-path="url(#p4a98b02cf0)" style="fill:none;stroke:#000"/><path d="m481.531 195.277-.113-.187-.04-.147-.003-.191.017-.112.168-.643.285-1.475.126-.588.004-.288-.036-.196-.164-.396-.088-.552.042-.58.138-.343.723-1.602.53-1.076.125-.387.063-.34.02-.42-.116-.52-.269-.777-.069-.343-.008-.37.05-.224.12-.238.288-.35.257-.227.204-.127.492-.267.213-.166.188-.22.117-.3.031-.189.061-.609.081-.207.104-.181.223-.278.217-.174.244-.145.273-.108.311-.072 1.99-.014 1.084.057.546-.085.27-.07.23-.087.345-.242.126-.07.163-.055.154-.028.18-.017.984.034.668-.05.5-.088.351-.098.417-.216.242-.153.198-.155.943-.918.747-.78.196-.124.173-.075.235-.038.207.004.436.097.53.206.454.28M513.446 164.67l1.23 1.396.368 1.282-1.567 4.018-.185.58-.062.678-.084.584-.376.57-.854.833-.25.367-.098.194-.067.237-.013.287.036.258.1.31.738 1.165.186.327.11.318.035.246-.008.281-.15.502-.227.303M506.954 178.19l1.857.59 1.93.79.637.135.362.004.31-.1.258-.203" clip-path="url(#p4a98b02cf0)" style="fill:none;stroke:#000"/><path d="m547.598 180.838-.465.35-.419.242-.953.32-.787.349-.304.207-.586.532-.447.246-.277.1-.388.105-.707.118-1.076.067-.392.082-.313.153-.413.32-.861.731-.354.167-.949.357-.618.27-.62.305-.233.09-.154.028-.201.016-.304-.007-.425-.057-.477-.122-.902-.356-1.73-.773-1.325-.47-.292-.05-.27-.018-.915-.057-.412-.12-.357-.165-.523-.267-.475-.173-.499-.098-.457-.017-.592.06-1.652.328-1.334.299-.857.32-.614.211-.323.05-.377-.002-.153-.025-.177-.06-.104-.06-.172-.137-.766-.719-.35-.233-.475-.164-.43-.19-.38-.204-1.27-1.035-1.11-.965-.496-.374-.503-.274-.553-.222-.96-.249-.762-.192M407.998 205.275l.338-.235.311-.246.623-.613M495.893 235.933l-.842-.082-.51-.352-.085-.383.117-.283.858-1.044-.018-.31-.233-.354-.175-.102-3.687-1.385-.221-.315-.056-.421.061-1.637-.189-.479-.953-.874-.707-.303-2.287-.752-.649-.463-.173-.25-.888-1.933-.672-.406-1.091-.175-1 .093-1.833.522-.155-.176-.002-.325.385-.602.376-.392 1.064-.873 3.543-3.986.753-.473 1.31-1.364-.053-.332-.284-.24-1.041-.163-1.469-.1-.29.06-1.506.508-.61-.022-2.097-.566-1.153-.107-2.275.22-4.23 1.094-1.633.445-1.875.2-.792-.228-1.514-1.25-.492-.3-.692-.071-4.088.268-1.68-.1-2.958.59-.965-.127-1.055-.16-.443.16-1.05.883-.768.267-2.432.104-5.088-.168-2.013-.53-1.76-.3-1.979-.096-.268-.229-.033-.403.182-.597 2.54-7.014.21-1.667.355-.894.144-3.08-.328-.226-1.16-.771-.337-.438-.379-1.982-.13-1.29.15-2.632.134-1.065.492-1.567.369-3.438-.143-1.143-.234-.478-.66-.664-.683-.268-.417-.022-.907.078-.964.391-.242.246-.38.505-2.403 2.534-.737.27-1.443.246-.509.189-1.353.638-.791.117-1.998.168-.723.317-1.602 1.35-1.372.41-.553.292-.801.755-.575.969-2.42 3.149-.736.712-1.547.342-.57.068-.644.445-.738.634-3.927 1.581-1.43.934-.818.716M409.331 205.684l-.05-.345-.05-.527.039-.63M358.66 200.01l1.913.12h.661l1.614-.227 1.045-.1.784.029.553.142.469.25.461.47.592.755.507.577.37.335.721.577.584.534.223.285.062.363-.047.314-.622 1.702-.03.343.061.306.177.328.23.285 1.315 1.033.46.327.254.114 1.176.307.292.135.246.3.192.391.03.477-.222 1.119-.108.855.03.37.086.286.192.263.238.15.292.078.307-.007.73-.25.331-.042.284.05.815.441.515.342.415.342.3.306.238.328.2.47.453 1.639.162.456.207.406.269.399.538.499 1.168.94 1.107.855.392.263.384.172.553.106.43-.021.416-.121.53-.307 2.597-2.087.83-.598.654-.556.66-.784.765-.922.563-.588.365-.158.496-.034.7.119.877.084 1.172-.103 2.087-.603.745-.402.896-.74 1.34-1.258.584-.863.354-.887.192-1.182.27-.641.649-.545 1.171-.435 1.165-.548.784-.307 2.156-.723 1.721-.833M409.331 205.684l-.226-.153-.219-.094-.264-.075-.624-.087" clip-path="url(#p4a98b02cf0)" style="fill:none;stroke:#000"/><path d="m565.858 200.245-.676 1.375-.216.349-.268.289-.477.299-.584.317-.33.075-.335.028-.487-.04-1.038-.54-1.368-.585-.534-.117-.561-.018-1.118-.007-.598-.084-.417-.145-.622-.32-.919-.452-.872-.634-.338-.319-.25-.411-.219-.453-.238-.317-.223-.18-.282-.153-.406-.144-.369-.04-.38.025-.43.072-.773.192-.338.085-.098.005-.082-.012-.07-.026-.096-.062-.28-.29-.461-.854-.377-.634-.653-.684-.546-.513-.392-.684-.807-1.881-.373-.513-.403-.434-.6-.513-.522-.214-.373-.046-.411.028-2.067.346-.456.089-.338.15-.805.608-.303.255-.335.208-.236.09-.501.132-2.667.32-3.97.36-.556.1-.277.08-.192.098-.415.288-.258.107-.357.05-.53-.029-.607-.05-.281.03-.242.085-.128.083-.088.087-.092.137-.061.152-.065 1.154-.027.174-.052.172-.076.11-.083.086-.116.05-.107.016-.139-.006-.273-.06-.286-.173-.813-.686-.906-1.033-.63-.89-.47-.898-.235-.39-.125-.143-.162-.094-.211-.054-.25.007-.258.043-.372.032-.39-.046-.329-.128-.442-.285-.488-.44-.434-.393-.377-.478-.372-.759-.4-.809-.158-.208-.169-.18-.487-.38-.757-.439-.554-.424-1.291-1.172-.703-.645-.88-.97-.254-.23-1.767-1.51-1.495-1.628-.673-1.115-.27-.381-.187-.188-.261-.183-.275-.151-.69-.259-.635-.315-.538-.352M498.59 175.544l.6.485.174.173.133.188.066.159.02.219-.03.25M481.531 195.277l.152.18.346.228.422.143.462.092 1.183.212.709.077.221-.018.198-.04.34-.124.164-.09.186-.15.14-.179.117-.257.085-.442-.031-.413-.43-1.426-.392-1.011-.277-.82-.108-.932.077-.834.13-.399.178-.313.214-.257.2-.17.415-.29.377-.181 1.318-.42 1.06-.34 1.092-.398 1.495-.485.513-.222.455-.287M467.926 288.359l-.053-.07-1.207-1.624-1.376-1.987-.99-1.767-.197-.495-.146-.584-.15-.65-.023-.593.03-.392.082-.36.215-.491.215-.385.196-.22.35-.307.51-.374.692-.663M464.66 193.334l2.03 1.596 3.503.912 3.26.459 2.305-.798 5.773-.226M478.036 275.22l-.015-.334.02-.302.059-.251.12-.259.212-.3.561-.594.528-.4.602-.39 1.625-.852 1.426-.886.511-.255.355-.137.272-.071 1.08-.172 1.156-.132.218-.056.174-.086.087-.088.05-.077.053-.132.007-.154-.019-.138-.05-.116-.088-.113-.098-.072-.214-.091-.267-.07-1.594-.07-.734-.122-.565-.146-.71-.289-.5-.3-.189-.145-.068-.084-.067-.12-.046-.156-.006-.084.008-.103.026-.102.05-.12.245-.339.977-.965.499-.605.185-.31.146-.481.05-.292.006-.22-.04-.355-.09-.397-.034-.236.004-.181.034-.214.03-.08.041-.066.29-.278.216-.228.175-.326.046-.388-.018-.458-.091-.676-.05-.489.005-.188.033-.164.089-.21.126-.145.561-.41.4-.364.127-.189.045-.16.027-.171.004-.317-.125-1.421.01-.221.039-.264.072-.242.777-2.044" clip-path="url(#p4a98b02cf0)" style="fill:none;stroke:#000"/><path d="m499.824 258.369-.081.763-.042.987-.09.548-.139.407-.305.623-.577.826-.768.777-1.906 1.371-.988.645-.918.563-1.06.548-1.03.388-.861.307-.515.199-.165.103-.068.07-.048.066-.042.078-.023.096-.012.153.018.168.34 1.68.006.3-.052.363-.215.428-.346.413-.32.175-.4.128-.306.018-.692-.047-1.18-.157-1.26-.013-.567.04-.55.098-.5.143-1.119.516-1.579.923-2.187 1.236-.76.42-.214.156-.178.186-.089.158M409.331 205.684l.227.506.139.513.107.745.168.776.243.62.329.67.405 1.317.177 1.015.138.866.146.566.207.589.8 1.76.646 1.325 1.506 2.357" clip-path="url(#p4a98b02cf0)" style="fill:none;stroke:#000"/><path d="m501.249 270.338.638-1.268.361-.87.331-1.196.215-1.218.088-.58.02-.531-.162-.976-.319-.99-.903-1.881-.376-.67-.884-1.282-.434-.507M463.861 285.568l.319.14.258.18L465.65 287l.481.363.863.545.56.314.37.137M412.858 359.296l.3.005.604.057.36-.035.762-.135 1.319-.333M242.652 366.296l-3.243-.243-1.576-.12-.83-.008-1.037.05-.884-.007-1.421-.121-.323.007-.438.128-2.075.969-.285.235-.23.335-.515 1.723-.184.435-.315.67-.62.936-.068.178.011.168.362 1.88.123.463.16.442.224.363.615.783.207.378.092.206.092.364.139 1.937.053.228.1.256.277.4.33.555.53 1.111M283.637 455.34l-.238-.213-.116-.207-.345-1.09-.2-.355-2.413-2.536-.292-.499-.17-.455-.06-.484.215-.784 2.105-3.105.507-.698.815-.897 1.214-.998 5.119-4.145.568-.64.507-.713.231-.798.077-.84-.215-.698-1.23-2.08-.507-.94-.246-1.025-.092-.685.414-1.595.124-.983-.031-.413-.56-1.766M292.867 276.656l1.507-.413.599-.156.492-.086.491.072.646.441.814 1.083.738 1.34.615 1.096.292.513.338.342 1.199.84.261.343.108.342.523 2.379.276.627.246.2.57.199 2.181.227.43.1.262.171.2.328.845 2.743M372.411 358.209l-3.43-1.302-1.541-.401-1.318-.282-2.101-.363-2.145-.219-.296-.145-.44-.445-1.496-1.631-.34-.19-.363-.074-3.61-.003-.337-.022-.427-.093-1.707-.785-.48-.169-.316-.027-1.166-.001-.6.02-.238-.106-.37-.223-.852-.539-.523-.12h-.453l-.632.036-1.128.248-.853.264-.338.135-.408.278-2.337 1.608-.122.016-.127-.086-.252-.26-.546-.646-.197-.155-.204-.032-.335-.034-.537.045-.569.106-.446.179-.307.2-1.444 1.11-.185.207-.046.178.046.278.123.27.208.35.69.84.385.556.415.783.185.812.015.584-.153.413-.185.242-.338.015-.369-.143-.8-.598-1.183-.712-2.797-1.71-.4-.328-.292-.398-.169-.414-.077-.441.139-.741M246.48 427.963l-.685-1.73-1.052-2.266-.254-.441-.292-.257-.376-.15-.377-.106-1.46-.285-.477-.029-.999.043h-.6l-.276.107-1.852 1.332-2.298 1.73-1.13.798-.568.306-.57.3-.752.256-.792.142-2.305.442-.592.207-.423.285-.353.37-.953 1.126-1.89 2.542-1.461 1.638-.715.876-.407.499-.338.278-1.59.754-2.23 1.02-.922.384-.538.085-.9.076-2.277-.02-.88-.085-.646-.1-1.138-.213-.522-.178-.384-.107-.354-.135-.337-.187-.293-.221M314.774 333.305l2.365 1.288 3.487 2.313.576.27.57.23.643.128 1.534.254.296.08.208.205.63.934.335.368.295.195.423.235.7.27.921.279.516.2 1.167.64.262.114.2.043 2.005-.378.446-.02.162.035.246.228.16.242.987 1.41.259.506.284.705.185.556.23.634.552 1.33M354.41 222.344l-.392-1.35-1.237-3.523-.354-1.182-.215-1.026-.213-1.016-.725-2.304-.815-2.665-.122-.655.042-.571.203-.569.373-.55 2.68-2.06 1.097-.88 1.51-1.11.78-.629.738-.826.615-.834.177-.272.107-.312M316.922 222.9l7.147-.242 2.09-.3.999-.242.63-.313 1.83-1.838.983-.87 1.106-.726 2.09-.798 1.676-.727 1.26-.627.908-.512.676-.214.906.042 2.444.585 1.092.399.722.413.876.627 3.689 2.806.8.528.737.199 2.19-.156.362.035.415.079 1.86 1.296M154.62 363.525l-.339-.499-.477-1.004-.284-.741-.123-.954v-1.055l.139-1.011.215-1.054.276-.655.293-.499 2.32-2.764.308-.541.169-.613-.046-.57-.277-.783-.6-1.125-.583-.741-.523-.556-.584-.342-.722-.114-2.306-.299-3.443-.328-.968-.142-.585-.285-.415-.328-.245-.356-1.276-2.122-.523-.6-.522-.384-.86-.327-.37-.057-.476.1-3.29 1.225-.568.285-.461.384-1.169 1.097-.445.314-.446.185-1.506.513-.43.085-.446-.043-.877-.299M164.864 376.638l.36.641.277.377.323.342.476.428.992.705 1.79 1.125.47.321.407.363.414.456 1.13 1.88.215.342.254.285 1.007.89 1.414 1.204.27.171.399.2 2.582 1.452 1.068.727 1.23.997 1.29 1.069 1.63 1.396.492.541.4.556 2.52 3.504.546 1.025.3.741.245.727.293.698 1.26 1.88.207.35.185.412.192.898.261 1.096.277.855.177.328.261.392.692.933.376.583.146.463-.038.371-.1.3-.23.32-1.192.911-.353.414-.177.448.061.62.108.377.261.406.23.207 1.7.947.46.278.477.37 1.099 1.29 1.368 1.502.238.342.13.228.208.442.66 1.773.631 1.36 1.015 2.358.476 1.09.07.327-.024.435-.122.413-.293.87-.33.782-.716 1.241M154.62 363.525l1.352 1.403 1.898 1.752.269.128.3.007 1.06-.227.277-.014.269.056.484.328.33.363.2.428.1.413v1.51l.092.377.2.321 1.115 1.674.438.84.76 1.482.692 1.353.408.919M154.62 363.525l.184.933.153.377.254.406.53.998.154.434.146.827.023.526-.046 1.061-.046.92-.046.392-.07.334-.276.605-.323.698-.469.884-.945 1.396-.115.32v.264l.115 1.019.108.776.161.72.177.54.138.364.346.612.438.485.592.484.437.228.646.171.938.135 1.752.05.315.05.3.114 1.92 1.09.8.52.315.256.331.363.307.4.838 1.778.044.036.071.014.044-.027.035-.069-.002-.493.054-1.696-.008-1.453-.1-.584-.207-.94-.238-.598-.27-.406-.214-.064-.331.078-1.103.41-.15.003-.107-.046-.016-.075.043-.1 1.064-.865.319-.331.184-.253.25-.331.33-.292.47-.335M283.637 455.34l.146 1.183.085.313.253.442.208.335.215.555.269.969-.008.306-.115.27-.169.207-.784.67-.277.163-.614.186-.408.078-.43.028-.707-.078-.646-.15-.968-.348-.223-.172-.1-.15-.376-1.046-.247-.463-.276-.349-.277-.228-.338-.2-1.714-.768-2.566-1.069-.554-.277-.261-.157-.039-.15.1-.206 1.007-.933M283.637 455.34l.238.043.354-.05 1.275-.22.823-.114.3.035.2.121.383.357.608.897.261.484.223.27.219.18.419.17.51.178.45.11.358.079.465.032.984.042.315.064.6.271 2.135 1.075.523.285.63.371 1.16.819.762.442.384.142.392.093.615.07.476-.035.592-.157 1.207-.434.314-.057.262.029.407.15.469.312 1.667 1.354 1 .997 1.245 1.188M124.255 262.894l-.4 1.973-.038.377.13.77.255 1.218.1.591-.016.877-.092 2.899-.015 1.197-.17.912-.391 1.054-.208.62-.008.541.192 1.175.092.983.124 1.596.107.47.23.37.462.428 1.083.499 2.152.876.953.548 1.053.685.407.28.131.186.015.16-.295 1.034M252.179 181.563l-.776 1.671 1.248 1.626 2.068-.026 1.144-.191" clip-path="url(#p4a98b02cf0)" style="fill:none;stroke:#000"/><path d="m252.179 181.563-.166-4.416.36 1.19.44 1.076.306 1.197.2 1.154.185 1.14.123.428.378.389.36.466.837.292.661.164M107.15 194.516l-2.753.984-.461.3-.323.313-.108.328.17.427.338.37 1.106.613.876.627 1.384.898 2.444 1.083.645.313 1.491.997.676.898.277.584.092.955.077 3.163M317.398 259.034l-.86-.258-1.184-.342-.953-.27-2.122-.4-8.853-1.794-4.857-.713-1.813-.292-.96-.2-3.375-1.033-1.967-.541-.723-.086h-.6l-.583.158-1.43.64-2.797 2.294-.646.727-3.35 5.086-.723.713-.6.327-.752.243-2.213.626-1.645.499-.661.37-2.075 1.226-.953.57-1.2 1.111-.568.84-.491.514M370.07 382.436l-.252.228-.29.267-.198.208M362.71 389.544l3.181-2.265.876-.683.461-.456.63-.827.769-1.31.23-.335.473-.529M275.26 557.842l-1.867-.25-1.844.062M180.25 622.585l2.009.584.48.01.942-.27 2.478-1.356 2.69-1.998 2.555-2.21.788-.527 2.378-.827 2.917-.811 1.944-.193 1.745.107 1.052-.284 1.814-.883 1.06-.926.738-1.004.608-2.15.269-.328 1.644-.898 1.568-1.224 1.783-1.873.438-1.011.146-1.73.477-2.642.346-.363 1.775-.763.956.008.838.402 1.66.716.969.06 1.832-.395 1.537-1.182 1.207-.947.561-.969.446-1.858 1.06-1.78 1.23-1.553 1.452-1.701.776-1.161 1.122-1.268 2.475-1.752 2.052-1.31.884-1.096.246-1.004.176-2.094.354-.562.723-.677.507-.549.637-1.53.777-1.382.638-1.538.615-.57.976-.441 2.036-.513 1.76-.612 1.237-.17 1.287-.023.684.172.584.1.48-.108 1.065-.737 1.341-.577 1.418-.341 1.445-.528.577-.494 1.579-2.614 1.19-1.46.647-1.538.414-.737.523-.192 1.395-.167 1.01-.428.669-.868.941-2.023.435-.637.557-.324 1.556-.043 2.398-.107.853-.206 1.114-.029.754-.024M294.077 560.676l-.683-.28M305.903 598.74l.141-2.206-.276-2.718-.892-2.73-.833-1.808-1.801-2.467-1.795-2.635-1.509-1.88-1.099-2.414-1.21-2.517-.672-2.64-.954-1.964-.845-2.492-.784-1.44-.015-1.409.261-1.894-.085-1.639.231-1.843.311-1.368M286.189 561.286l.571.057 1.017-.01 1.212-.282 1.146-.604.968-.161.581.08.906.079.804-.05M271.946 553.164l2.222 2.547 1.092 2.131" clip-path="url(#p4a98b02cf0)" style="fill:none;stroke:#000"/><path d="m314.44 594.06-.938-.57-1.238-.477-1.375.085-.846.256-.5.328-1.498.235-.738.37-.442.702-.326 1.228-.636 2.523M309.728 588.954l-.3-.37-.353-1.033M314.44 594.06l.283-1.36.308-.727-.03-.634-.285-.683-.822-.641-1.015-.442-1.245-.12-1.199-.257-.707-.242" clip-path="url(#p4a98b02cf0)" style="fill:none;stroke:#000"/><path d="m306.617 588.48.688.84.336.244.79.04 1.297-.65M312 595.108l.448-.315.685-.256.838-.207.468-.27M317.892 594.307l-2.822.081-.63-.328M466.043 601.06l.861-.143 1.2.313 1.044.086 1.2-.883.584-1.225.036-9.536.129-3.205-.757-2.624-.681-1.702-1.15-.47-1.246-.838-1.05-1.29-1.45-1.897-1.505-2.108-.416-1.652-1.147-1.878-1.954-2.217-2.027-1.765-1.27-1.922-2.393-3.577-2.637-1.675-2.931-2.42-.39-1.653-.593-.887-1.068-1.037-2.564-1.063-.635-.702-1.66-2.828-2.272-1.923-2.369-1.607-1.41-1.234-1.35-.735-.781-.995-1.001-2.105-1.514-2.535-2.711-2.217-.426-.782-.063-1.956v-1.7l1.93-2.125.134-1.857-.378-2.691-.717-1.821-1.945-1.03-1.014-.904-.696-1.146" clip-path="url(#p4a98b02cf0)" style="fill:none;stroke:#000"/><path d="m396.877 555.905-1.298 1.257-.373.068-.158-.097.031-.206.992-1.075 1.598-1.998 1.599-1.51.653-.776 1.23-.826 1.29-.94.47-.594.737-1.834 1.076-1.218 1.96-1.759 1.483-1.346 1.276-1.396.668-.89.485-.398 1.398-.969 1.43-1.303 1.268-1.104.722-1.104.584-.498 1.86-1.296 2.306-2.265 1.206-1.738 1.499-2.336 1.967-2.705.477-.951.107-.624-.315-1.032-.115-1.543M286.189 561.286l.054-1.002-.077-2.186-.17-2.727-.053-2.898-.146-1.71-.346-.918-1.438-2.877-.276-.904-.33-2.33-.485-2.762-.092-3.261 1.445-9.273.4-1.007.8-.951.056-.431-.142-.25-.407-.134-.987-.125-1.026-.467-.984-.801-1.63-1.88-.837-1.702M287.186 615.972l.709.838 1.452.837.76.673.339.502.008.484-.189 1.015.404 1.545.227.541.638.922 1.06.705 1.664.63 3.182 1.062 1.975.612M280.525 620.883l.814-.911 1.899-.997.599-.399.304-.445.526-1.285.7-.662 1.164-.524.344.04.31.272" clip-path="url(#p4a98b02cf0)" style="fill:none;stroke:#000"/><path d="m273.457 621.658.596-2.408.947-.828 1.635-.235 1.086-.793 4.552-4.668 1.156-.015 1.747.635 1.55-1.084.935.867h1.228l1.55-.217.469.054.292.597-.146.514-1.521.407-2.135.84-.212.648M338.316 133.273l-2.582-.228-2.766-1-1.537-.283-.738-.03-.923.144-1.229.37-.215.14-.769.145-.737-.059-1.23-.54-.43.115" clip-path="url(#p4a98b02cf0)" style="fill:none;stroke:#000"/><path d="m309.347 133.918.986 3.244.317.462.307.148.708.257 2.766.399.83-.057.86-.627 1.66-1.653.462-.228 1.322-.228 1.383-.114 2.183-.513 1.967-.313.584-.2.461-.541-.307-1.197-.676-.71M509.142 149.282l-.86 1.026v.911l.338.627 1.475 1.482.246.37.092.371v1.823l.523 1.882-.061.968-.739 2.109.154 1.453.369.798 2.767 1.568M312 595.108l-1.804.03M366.355 365.745l-.374.509v.36l.174.62.334.297.509.236 1.19.1 1.633-.237 1.178-.52 1.682-.959.284.66-.481 1.216" clip-path="url(#p4a98b02cf0)" style="fill:none;stroke:#000"/><path d="m370.354 372.107-.198-.644 1.833-2.617.495-.819" clip-path="url(#p4a98b02cf0)" style="fill:none;stroke:#000"/><path d="m376.977 365.898-1.996 1.038-.624.546-1.873.545M376.977 365.898l.832-2.892M378.96 364.822l-.98.555-1.003.521M379.322 361.47l.268.28.046 1.177-.676 1.895M375.444 349.682l-.724.933-.247.294-.406-.016-3.09-.998-.283.016-1.865 3.852M335.467 339.56l1.836-3.182M338.344 337.519l-.761-.884-.28-.257M336.543 340.829l1.801-3.31M330.687 335.843l-.215-.484.47-1.862M330.687 335.843l-1.03 1.61M331.64 338.094l.077-.955-.108-.655-.922-.641M330.35 330.3l-.37.044-.522.085-1.138.128h-.584l-.45.388M314.774 333.305l-.456-.739-1.998-1.296-2.675-2.451M366.08 363.033l1.025-3.436.23-.327.476-.017 2.878 1.277.441-.033.671-.72.61-1.568M382.342 370.74l2.313 1.713M416.589 394.739l-.585 2.094-.368.627-.57.683-.353.64M412.386 397.506l.336 2.234.485.354.568.058.554-.129.061-.256.093-.356.23-.627" clip-path="url(#p4a98b02cf0)" style="fill:none;stroke:#000"/><path d="m412.386 397.506.805.295.753.071.462.143.184.413.123.356M415.954 366.394l-.419-.341-1.277-.958-.345-.452.345-1.166.06-.827-.567-1.41-.893-1.944M415.954 366.394l1.447 1.181 1.623.959 1.075.188 1.156-.15 1.115-.508 1.298-1.41M415.954 366.394l-3.643 8.776M462.446 397.422l.845-1.923-.537-.77-.354-.541-.169-.57.015-.726-.968-1.31-1.921-1.354-.815-.67-.815-1.353-.353-.499-.047-.655v-.627l1.522-.655 1-.442-.236-1.163M536.473 417.972l-.224.282-.587.3-.913.17-.211.24M554.966 466.525l4.742.747 5.964.929 3.029 2.72 2.563 2.116 1.584 1.943 1.91.906 1.608.13 2.166-.453M606.231 487.462l-1.217.883-1.034.715-.568.225-.649-.094-1.075-.564-.872-1.485-.548-1.015-1.48-.733-2.11.32-1.196.488-.888 1.068M608.199 486.841l-.913.32-1.055.3M597.754 476.749l-3.043-1.26-1.541-.357-1.034.17-.142.357.284.45 1.217 1.148 1.845 1.804 1.197 1.108 2.089 1.26 2.069 1.635 2.413 1.579.872 1.672.65.432.506.094.608.02.487.6M572.152 523.45l2.085-1.73 4.354-3.666 2.429-2.652.93-1.083M580.9 519.712l1.764-2.104.041-.752-.121-1.071-.634-1.466M572.152 523.45l-.967-.956 1.278-1.316M567.006 528.601l.133-.338 1.174-1.627 3.839-3.186M566.415 530.185l.177-.528.414-1.056" clip-path="url(#p4a98b02cf0)" style="fill:none;stroke:#000"/><path d="m569.867 528.49-1.602-.02-1.26.131M566.415 530.185l-.685-.249-1.015-.94-.73-2.142M565.75 532.421l.306-1.169.359-1.067M557.22 553.736l-.57-2.033-.033-1.573.137-1.67.638-1.816 1.22-2.145 1.846-2.704 3.34-4.553.844-1.289.422-.919.685-2.613" clip-path="url(#p4a98b02cf0)" style="fill:none;stroke:#000"/><path d="m569.28 531.008-.63.92-.608.583-.406.188-1.887-.278M595.091 589.753l-.676-.352-2.37-2.24-6.142-5.99-1.838-1.315-2.838-1.39-1.144-.686-.92-.792-2.772-2.958-15.238-15.502-1.732-1.395-1.357-1.616-.775-1.532-.07-.249M548.897 556.285l1.845-.264 3.083-.733 3.394-1.552M536.099 560.644l.345-1.184 1.054-.62 2.454-.376 1.116-.526 2.981-1.578 2.028-.357 2.82.282M545.26 553.637l.522 1.367 1.291.37 1.824.91M595.091 589.753l-.657 2.945" clip-path="url(#p4a98b02cf0)" style="fill:none;stroke:#000"/></g><g id="PatchCollection_1"><path d="m423.576 357.691 4.61-8.376 5.043-3.99 3.012 3.533 1.352 3.477-3.197 4.045-1.66 7.18-.368 1.938-4.427-3.362-.738-2.222zM414.112 402.001l-2.336 2.764.83 2.85.799 3.475 4.272 1.34 7.716-.571 1.23-1.253-1.414-3.134-1.66-2.992-1.875-2.479-.984-1.053-4.334 1.025zM507.513 336.72l2.828 8.549 3.443 5.698-2.46 4.33-5.656 4.218-2.336-1.71 2.705-1.938-5.533-.57-.984-2.62 2.951-2.166-2.705-5.356-.738-7.18 9.714-3.533zM540.513 346.75l5.595-6.382 3.811-4.673 4.984-1.752 2.044.256 1.937 3.013 2.89 4.673 3.504 4.132 1.076 1.937-2.49 3.077.277 3.989-2.767.94-6.302-.455-7.562-1.824-2.644-3.96-3.104 3.105-3.259-3.875zM541.453 287.323l3.675 5.554 6.455 4.16 8.73.114.185 1.938 3.505-7.238 2.09-.911 7.808 11.397-4.919-.285-1.168 1.653 1.353.968 6.763 2.622.123 2.507-9.038 2.678-4.242-.57-1.537-1.652-5.226.627-4.365-2.222-1.538-2.166-3.81-1.652-9.9-.058-3.012.741-.185 3.306-4.365-.685-5.41-2.849-.922-1.31 2.643-3.762 2.582.684 1.906-.911.247-9.916.676-4.16 3.627-.171 4.242-.228zM440.948 399.494l6.302.741 3.72 2.82 4.764 1.14 4.611.285 2.09 1.567 3.413-.826 3.812-2.422 2.398-2.308 4.949 2.394 3.504.256 1.722-2.62 3.289-3.562 3.72.684 3.32.57-1.814-2.422-1.568-1.083 1.26-2.934 1.445-1.083 1.23.627 1.106 3.219 4.028 1.396 3.75.541.83.998-1.783 2.763-2.797 3.191-2.92 1.88-3.598.94-.553 3.305.4 3.22.707 1.51.03 2.365-1.444 1.595-1.63-1.083-.983-1.966-.093-2.421-2.612-.228-1.753-1.909-6.21-2.479-3.596-1.652-5.503.342-3.289 1.282-3.012 1.738 2.182 4.017 2.644 2.336-4.673 2.479-1.229 2.165-.83 1.054-5.84-3.162 1.997-3.134.553-3.761-4.242-.37-5.563-.029-5.78-.74-4.18 1.367v-2.165l5.963-3.618 1.476-2.48-4.15-1.823zM78.593 435.642l4.918-2.735 2.213-2.28h3.074l2.951-.34 2.214-1.938-2.951-3.305-9.96 1.254-3.32-4.102-7.378-6.268-2.09-5.015-2.46-2.051 2.214-2.849 1.352-5.128 4.919-4.103.984-2.507 2.09-1.823 2.582-3.875 1.844-3.76v-3.192l-5.41-.455-9.345.797-2.951-3.647-2.336 1.596-3.443-4.445-2.09-3.647-1.722-7.635.861-1.596 3.197-.228 1.722-3.533-2.214-1.254 1.967-5.47-6.886-1.367-1.106 5.812-3.935 2.507-5.533 1.026-.738 2.393-2.213 3.191 3.32 3.533 4.795 2.28 3.689-.684 2.46.228-1.845 3.532-5.533 2.622 4.057.456-.86 2.165 2.336 1.14-.123 2.28 5.41-.913 1.968 1.14-.246 1.367 5.04 3.42.616 4.786 1.23 1.14-5.903 1.253-5.41 2.85-.492 1.708-2.582.456-.123 2.393 6.148 7.977-3.197 2.736-1.599 3.76-.122 5.584.246 3.875-1.722 1.253-6.64-2.849-.369 1.824 1.967 3.874 1.968 3.077 6.271 1.71-.738 2.62 5.902 2.165 3.936-2.05 3.565-2.052-.246 3.304 1.722 1.482 2.09-6.268zM314.393 587.914l6.887-.798 9.468-.798 3.073 1.368 8.608-5.241 11.19-8.317 14.263-11.166 7.5-4.33 1.476 4.216 1.845-.114 3.197-4.785-7.5-5.128-4.673-5.583-11.805-7.52-12.173-2.849-3.443-5.81-2.705-3.191 1.722-4.9 3.811-1.822 3.566-6.353.007-1.04-.307-.569-2.375-2.949-2.298-1.58-.8-.656-.252-.641-.37-7.52 4.92-3.305 1.352-4.558.984-3.988-5.41-4.33-3.198 4.33-3.688-3.874-.492-2.507 7.377-1.595 2.952-3.533-2.09-6.837-5.165 1.14-5.78-.114-5.902-.228-2.95 1.481-1.722 2.393-4.427-.57-2.828-.797-.246 2.735-6.763 6.723-2.828 3.418 1.23 7.293 6.148 8.888 1.967 9.001-5.902 3.419-1.599 6.95-.368 8.432.246 5.697 3.811 7.064.37 2.963 3.81 3.076 8.24.57 2.09 2.051-8.976-.57-9.714.57-2.583 2.279 1.353 7.748-5.041 3.874-.246 3.645 1.967 4.558 2.828 5.811-2.828 1.367-3.074.57.369 2.05 3.812 4.786 3.443.341v-1.594l4.18-.343.615 1.482zM311.035 613.99l-1.967 5.127.123 5.127 2.828.911 9.345-4.1 7.009 1.936 6.886-.684.983 2.165-.492 3.646-2.582.57-2.582 4.67 2.705 2.05-.246 4.672 2.828.57 4.796-1.14 5.656.912-.123 2.506-4.55 2.506-.245 4.102-3.075 2.05-1.967 8.773 1.845 2.506-2.706 4.329 7.993 1.481.246 3.532 4.673 3.19 1.106 3.873 3.32 1.937-.983 5.012 6.394.57 1.475-1.937 3.935.228 3.32-1.48 1.352-1.368 1.968 2.62 1.844-2.962 4.181-7.519 4.18 3.646-.245-5.924 3.812-1.367.86-3.304-.491-3.873 3.32.113.368-3.987-.123-6.721 3.074 3.19 1.476-1.823-3.32-8.659-3.074-3.19 4.304-2.05 3.811 2.392 5.288-.57 3.443-1.024 4.058-1.937 3.934 2.05 3.197 1.595 2.828.342 2.583 1.709 2.09-1.367-.984 7.86-5.779.115 3.074 5.24-4.058-.797-1.721 3.76-4.919 3.19-7.5-1.026-5.288 1.708-5.041 5.469 11.681.114 4.673 3.304-10.206 1.708 8.853 2.962 3.566 3.077 7.501 3.645.983 3.076-6.763 5.126 3.69 1.823 3.565-1.367 5.78-3.19 3.688 2.05 1.968 5.355-1.722 6.72-4.18 2.849-6.886 2.506 8.115 1.367 18.567-3.873 12.42-3.076 13.402-6.38 9.96-5.126 5.78 1.367 6.885-4.1-3.32-4.558 6.026-6.721 16.476-14.354 14.018-5.696 16.231-21.988-8.73-5.469-6.763-8.43-1.721-5.47-.738-3.76-2.09-2.163-7.378-4.672-4.55.57-1.844-2.62-2.46-1.482-1.106 1.368-1.353-1.026-2.705.342-.369 3.418 1.353 2.848-3.443 1.595-2.46 6.608-11.312 3.532-1.106 2.507 11.927 13.215-10.944-1.709-8.976-10.253-2.828 3.303-17.338 4.216-8.73 2.506-5.165-6.038-5.04-2.506h-6.887l-5.287-5.925-.37-4.329-1.966-2.392 4.672-2.507-.123-4.671-1.967-3.874-1.23-2.279-1.967-3.417-7.01.683-6.762 6.38-3.197-2.962-6.271 4.102-.37 2.392 1.476 2.848 3.197.798 2.706 4.785 7.5 4.443-3.442 2.507-14.51-.57-5.533 1.937-3.443-1.709 3.934-7.975h-5.656l-5.164 1.71-6.025 6.607-3.812-10.71-8.116-.683-7.624.683-4.18 2.849-1.967-5.013-5.165-1.026-5.41 1.253-6.271 2.85-3.935 3.986-4.304 1.368-6.025-3.19zM450.21 519.734l.878-1.266.878-1.899 1.464-1.176 4.587.181 2.83.362 1.854.362 3.319-.091.78-.723.781-2.714 1.465-1.356 1.561-.633 1.66-.09.39-.905-1.758-1.447-.585-1.266.488-.543-1.171-1.447-1.074-.814.976-1.809h1.269l2.05-1.537-.293-1.9 1.073-1.356.683-1.537.976-1.176-.878-.452.098-1.267.976-.632.488-2.171.78-1.357.098-1.356.976-.905 2.147 2.985.78-.181 1.66-1.085 3.123-2.261 4.196-1.447 2.343.27 1.269-.903.78.361 3.22-1.447 1.172-2.442-3.61-3.256 4.489-2.713 1.756-2.351-.098-4.613.879-3.889.78-1.9 6.15-4.884 3.415.363h2.732l.879.542-1.562 5.517.098.995-2.342 4.974 1.659 1.447-.195 2.443-1.66 2.35 1.074 2.443-.293 2.985.293 2.26.78.181-.194 1.357.293 1.176-.879 1.357-1.171.361-2.05 5.155-.292 2.352-1.367.452-2.83 4.341-.585 2.261-1.464 1.447.097.633-2.05 1.447-.878 2.442.78 4.07.782.633.097 1.537-3.123 1.357-4.586 1.356-2.733-.904 2.927 5.336 1.172-1.9.878 1.177-.585 1.175 3.025 3.708 3.806 1.9 1.757-.453 1.854.995-10.345 6.692-8.1-6.602-4.294.995-5.466 2.894-2.244-.272-3.319-2.08-4.099-1.537-2.244-4.16-5.27-2.623-2.83-.361-.391-1.266-2.635-1.447-1.66 1.447z" clip-path="url(#p4a98b02cf0)" style="fill:#006400;fill-opacity:.8"/></g><path id="PatchCollection_2" d="m383.098 359.237-.207.392-.177.057-.976-.143-.085-.213.569-2.301.146-.186.162-.042.814.156.115.172z" clip-path="url(#p4a98b02cf0)" style="fill:green;fill-opacity:.8"/><path id="PatchCollection_3" d="m400.24 353.689 2.797 2.507 4.15-3.448-2.705-2.764z" clip-path="url(#p4a98b02cf0)" style="fill:#90ee90;fill-opacity:.8"/></g></g><defs><clipPath id="p4a98b02cf0"><path d="M90 90.353h558v546.494H90z"/></clipPath></defs></svg>