<svg xmlns="http://www.w3.org/2000/svg" width="960" height="960" viewBox="0 0 720 720"><defs><style>*{stroke-linejoin:round;stroke-linecap:butt}</style></defs><g id="figure_1"><path id="patch_1" d="M0 720h720V0H0z" style="fill:#fff"/><g id="axes_1"><path id="patch_2" d="M90 630.12h558V97.08H90z" style="fill:#fff"/><g id="LineCollection_1"><path d="m455.521 346.449.95 2.802M455.521 346.449l-2.22-6.618M459.337 345.412l-2.926.914-.89.123M449.149 344.979l2.595.395 1.87.388 1.907.687M461.63 352.293l-1.036-1.637-1.467-1.667-1.61-1.316-1.996-1.224M392.952 340.4l.404-3.877M392.952 340.4l-.373 5.158M392.952 340.4l-7.613-.614M392.952 340.4l5.88.441M359.765 337.851l.32-3.837M359.765 337.851l-.388 5.022M359.765 337.851l-11.25-.913M371.055 338.67l-6.26-.48-5.03-.339M544.654 437.035l2.446.324.817.187.669.308 1.003.708M474.49 388.073l.676 1.815 3.167 8.995.985 3.009 1.024 2.567.904 1.876 1.038 2.042.873 1.456 1.039 1.494 1.297 1.977 2.13 2.502 1.3 1.298 1.231 1.048.915.815 5.031 3.94 2.545 1.783 3.244 2.332 3.256 2.312 3.224 2.057 1.148.63 1.149.496.904.42 1.431.586 2.939 1.135 1.56.38 1.88.342 4.505.47 12.079.69 4.986.256 3.704.24M550.753 436.47l-1.451.07-1.62.195-3.028.3M550.753 436.47l-.505.119-.465.316-.311.487-.084.447.201.723M550.753 436.47l.658.106M555.848 437.635l-1.313-.517-1.93-.469-1.194-.073" clip-path="url(#p3b74217ae1)" style="fill:none;stroke:#000"/><path d="m551.944 438.768.308-.553.004-.703-.35-.607-.495-.33M636.765 479.01l-20.87-17.645-5.516-3.429-25.427-13.826-8.985-3.973-4.325-1.231-3.823-.511-11.971-.76M551.944 438.768l.555-.601.755-.39.47-.106.843-.13 1.28.094M549.59 438.562l.354.387M551.944 438.768l-.19.16M549.944 438.95l.458.231.613.056.74-.31M549.944 438.95l.283.466.227.51.086 1.022M550.54 440.948l.209-.456.523-.87.482-.694M380.852 400.44l-7.695.021M380.852 400.44l-.775 4.012M380.852 400.44l4.61-.095M380.852 400.44l1.035-3.816M348.516 336.938l2.301-3.67M290.881 329.4l.684.592 2.265 1.352 2.36 1.05 2.37.513 49.956 4.031M367.076 398.454l2.91 1.08M367.076 398.454l.73-3.131M367.076 398.454l-.772 3.032M398.051 366.507l-7.67-1.908M398.051 366.507l-.131.278v.225l.088.328M399.776 360.357l-1.465 5.718-.26.432" clip-path="url(#p3b74217ae1)" style="fill:none;stroke:#000"/><path d="m398.788 366.683-.278-.133-.459-.043M408.348 325.783l-.847 3.875M408.348 325.783l.399.02M408.348 325.783l-3.46-.287M408.348 325.783l.872-3.973M404.989 368.132l-6.2-1.449M404.989 368.132l1.66-7.253M404.768 368.956l.132-.049.113-.022.101-.056.078-.083.047-.102.012-.11-.025-.11-.059-.095-.087-.074-.091-.123M404.989 368.132l4.995 1.335M411.44 341.922l.81-3.127M411.44 341.922l-1.063 5.009M411.44 341.922l-6.195-.54M411.44 341.922l5.54.45M394.569 324.675l5.82.462M394.569 324.675l.075-1.282M394.186 328.562l.168-1.612.215-2.275M467.944 382.042l-5.506-1.104M467.944 382.042l.162.467M467.944 382.042l-5.195-14.956M470.76 381.654l-.429.285-.433.263-.408.105-.692-.045-.854-.22M415.445 326.344l-6.698-.54M415.445 326.344l-1.01 4.024M416.811 320.977l-.349 1.31-1.017 4.057M409.984 369.467l.876-3.381M409.8 370.193l.1-.053.1-.016.089-.045.07-.07.043-.087.012-.096-.02-.094-.05-.084-.075-.064-.085-.117M409.984 369.467l.94.223M473.9 386.494l.59 1.58M473.9 386.494l-1.06-3.108M473.9 386.494l-.258-1.365-.15-1.126-.292-1.12M471.283 383.593l.739.673.76.611.616.793.502.824M391.423 359.62l8.353.737M391.423 359.62l-7.748-.672M391.423 359.62l.468-5.363M391.423 359.62l-1.042 4.98M386.386 324.249l-.357 3.78M386.386 324.249l.34-4.152M386.386 324.249l8.258-.856M378.191 324.961l1.157-.014 7.038-.698M382.714 393.416l-5.373.033M382.714 393.416l1.214-4.627M382.714 393.416l-.827 3.208M387.045 394.606l-3.661-1.206-.67.016M362.753 362.6l.454-5.463M362.753 362.6l-6.278-.523M362.753 362.6l5.898.49M360.584 367.443l1.2.024.456-.098.251-.255.103-.458.16-4.055M455.67 359.983l-2.395-7.592M455.67 359.983l1.725 5.339M455.67 359.983l-3.372-.319M460.451 360.255l-1.016.078-3.765-.35M369.706 350.87l-6.49-.277M369.706 350.87l-.137 1.743M369.953 347.994l-.075.734-.06.745-.112 1.398M396.47 375.235l6.258 1.556M396.47 375.235l.111-.432M396.47 375.235l-2.27 8.43M396.47 375.235l-.414-.098M403.458 346.434l-2.262 8.65M403.458 346.434l.461.033M403.458 346.434l-5.979-.481M403.458 346.434l1.333-5.092M471.283 383.593l.314.107.332.032.33-.044.31-.117.271-.185M470.858 383.28l.197.176.228.137M399.776 360.357l.512.039M399.776 360.357l1.42-5.272M389.93 400.494l-.38-.023M389.93 400.494l1.115-4.01M389.93 400.494l-.277.41M408.125 355.654l5.365.505M408.125 355.654l-6.462-.531M408.125 355.654l2.252-8.723M408.125 355.654l-1.477 5.225M401.196 355.085l.467.038M401.196 355.085l-4.603-.41M402.728 376.791l.12-.463M402.728 376.791l-2.224 8.377M402.728 376.791l4.994 1.198M370.984 406.27l.607.28M370.984 406.27l-.278.706-.453 1.349M370.984 406.27l1.52-5.946M465.152 395.15l-5.846-14.443M465.152 395.15l-.85.587M462.615 381.422l3.863 11.689-.008.368-.143.405-1.175 1.266M425.046 348.205l-5.995-.565M425.046 348.205l3.57-4.844M425.046 348.205l-.743 1.087M372.504 400.324l.653.137M372.504 400.324l-2.518-.79M372.504 400.324l.989-4.062M391.89 354.257l4.703.418M391.89 354.257l-7.773-.582M391.89 354.257l.69-8.699M410.377 346.93l5.291.418M410.377 346.93l-6.458-.463M416.98 342.373l-1.312 4.975M416.98 342.373l3.44.334M363.216 350.593l-.009 6.544M356.845 350.26l.881.054 5.49.28M371.58 381.548l-1.339 4.96M371.58 381.548l.833-3.36M371.58 381.548l5.445 1.386M371.055 338.67l.339-3.888M371.055 338.67l-.663 5.025M371.055 338.67l7.376.618M462.438 380.938l-5.043-15.616M462.438 380.938l.177.484M462.438 380.938l-3.245-.707M406.648 360.879l5.52.452M406.648 360.879l-6.36-.483M368.65 363.09l6.824.538M368.65 363.09l.489-5.316M376.25 370.842l.31-1.746-.162-.264-.346-.22-1.84-.466-3.99-.798-.709-.194-.583-.284-.474-.567-.099-.835.294-2.379M392.58 345.558l4.899.395M392.58 345.558l-7.73-.63M391.045 396.484l-.432-.455M391.045 396.484l2.903 2.701M391.045 396.484l2.356-9.647M388.004 373.223l.124-.475M388.004 373.223l-1.062 3.959M388.004 373.223l8.052 1.914M388.004 373.223l-7.398-1.727M404.79 341.342l-5.959-.5M404.79 341.342l.455.04M404.79 341.342l1.575-7.083M390.38 364.6l-7.426-1.78M390.167 365.458l.157-.057.13-.042.107-.081.073-.111.03-.127-.015-.13-.06-.118-.097-.092-.111-.1M394.2 383.664l6.304 1.504M394.2 383.664l-.799 3.173M468.106 382.509l1.147.28.922.35.683.14M471.294 391.803l-.564-1.712-.856-2.572-1.768-5.01M468.106 382.509l-5.49-1.087M382.09 363.512l.636.186M382.09 363.512l-.15.576M382.38 362.647l-.118.263-.079.267-.093.335M390.167 365.458l-2.04 7.29M390.167 365.458l7.84 1.88M390.167 365.458l-7.441-1.76M404.768 368.956l-1.92 7.372M404.768 368.956l5.032 1.237M404.768 368.956l-6.214-1.48M398.554 367.477l.2-.256.094-.27-.06-.268M398.008 367.338l.244.14.302-.001" clip-path="url(#p3b74217ae1)" style="fill:none;stroke:#000"/><path d="m396.581 374.803 1.796-7.021.177-.305M383.223 358.908l-.055.653-.788 3.086M382.38 362.647l.574.173M462.615 381.422l-3.31-.715M453.275 352.39l1.339-1.435M452.298 359.664l-1.546-4.598 2.523-2.675M409.8 370.193l8.689 2.013M409.8 370.193l-.882 3.154M363.207 357.137l5.932.637M363.207 357.137l-6.291-.645M379.648 408.761l-.053-1.916M374.127 393.567l.811-.03M374.127 393.567l-3.733-.598M374.127 393.567l-.634 2.695M374.127 393.567l1.556-5.818M400.504 385.168l4.89 1.052M393.948 399.185l3.62-4.329.379-.794 2.557-8.894M393.948 399.185l1.73 1.655M411.437 364.434l5.715.479M411.437 364.434l.73-3.103M411.437 364.434l-.577 1.652M417.152 364.913l3.975.279M417.152 364.913l.354-3.164M417.152 364.913l-.149 1.587M418.142 356.621l-.636 5.128M418.142 356.621l.827.044M418.142 356.621l-2.29-.227M416.608 371.003l-5.684-1.313M416.608 371.003l.303-3.182M416.608 371.003l2.085.552M425.5 367.237l.558 4.252M425.5 367.237l-.185-1.763M420.943 367.724l2.072.058.755-.137.412-.115 1.319-.293M430.512 365.503l-1.811.711-3.2 1.023M423.426 350.553l-1.778 2.355M423.426 350.553l.877-1.26M423.991 353.275l-.33-2.067-.235-.655M385.817 381.495l-7.326-1.774M385.817 381.495l1.125-4.313M385.817 381.495l-.846 3.316M372.413 378.188l5.507 1.395M374.72 374.324l-2.149 3.455-.158.41M374.205 396.388l3.481.285 4.201-.049M373.493 396.262l.712.126M373.493 396.262l-5.687-.94M379.46 383.603l5.511 1.208M379.46 383.603l-1.838-.505M377.34 393.449l-.024-1.803 2.145-8.043M377.34 393.449l-2.402.088M386.942 377.182l-7.352-1.734M374.72 374.324l4.4 1.013M376.25 370.842l-1.371 3.128-.158.354M418.489 372.206l7.396 1.628M418.489 372.206l-.854 3.22M418.489 372.206l.204-.651M381.94 364.088l-6.466-.46M381.94 364.088l-1.596 6.74M376.478 353.188l-.454 5.126M376.478 353.188l7.214.455M376.478 353.188l-6.91-.575M376.024 358.314l-.55 5.314M376.024 358.314l7.199.594M376.024 358.314l-6.885-.54M385.024 339.76l-6.593-.472M385.024 339.76l.315.026M385.024 339.76l-.575 5.137M385.024 339.76l.174-.669M385.392 335.92l7.964.603M385.392 335.92l-.194 3.171M385.392 335.92l.318-3.996M398.831 340.841l.385-3.875M435.924 350.99l-3.055 2.693-.278.413" clip-path="url(#p3b74217ae1)" style="fill:none;stroke:#000"/><path d="m434.884 358.048-.194-.623-2.099-3.33M423.991 353.275l8.108.702.492.119" clip-path="url(#p3b74217ae1)" style="fill:none;stroke:#000"/><path d="m431.797 357.78.485-2.89.31-.794M462.254 328.298l-3.56 3.085M462.254 328.298l2.661 7.9M462.254 328.298l-1-1.87M469.484 349.762l-3.74 1.206M469.484 349.762l-2.293-6.807M469.484 349.762l.81 2.323M457.945 353.482l3.686-1.189M457.945 353.482l2.506 6.773M457.945 353.482l-1.473-4.231M467.19 342.955l-3.836 1.2M467.19 342.955l-2.275-6.757M455.507 334.279l3.187-2.896M455.507 334.279l-3.258 2.806M455.507 334.279l-4.414-4.238M455.507 334.279l1.557 4.375M461.927 352.198l-.296.095M461.927 352.198l3.816-1.23M461.927 352.198l-2.59-6.786M452.25 337.085l-2.671 2.195M452.25 337.085l-4.606-4.295M453.3 339.83l-.776-2.336-.275-.409M464.915 336.198l-3.922 1.227M453.3 339.83l3.764-1.176M460.993 337.425l2.36 6.73M460.993 337.425l-3.929 1.229M465.743 350.968l2.398 6.836M465.743 350.968l-2.39-6.813M470.518 364.583l-2.377-6.78M470.518 364.583l-3.28.94M470.518 364.583l3.1 8.6M474.253 363.377l-.75.22-2.985.986M429.426 342.63l-.81.731M429.426 342.63l.926-1.77M431.123 341.437l-.985.793-.712.4M457.27 319.724l2.127 3.697M453.18 323.83l2.466-2.04.812-.896.812-1.17" clip-path="url(#p3b74217ae1)" style="fill:none;stroke:#000"/><path d="m458.495 316.534-.702 2.048-.523 1.142M433.817 343.783l4.75-3.756M433.817 343.783l-1.714-.14M433.817 343.783l8.19.688M435.52 345.3l-.876-.61-.827-.907M459.397 323.421l-4.96 3.954M459.397 323.421l1.768 2.84M438.566 340.027l2.888-2.302M438.566 340.027l4.912 4.332M443.478 344.359l-.203.219M446.25 342.2l-2.239 1.788-.533.37M445.162 334.77l2.482-1.98M445.162 334.77l-3.708 2.955M445.162 334.77l4.417 4.51M449.579 339.28l-3.33 2.92M441.454 337.725l4.795 4.474M441.454 337.725l-2.675-2.454M451.093 330.04l3.345-2.665M451.093 330.04l-3.449 2.75M454.438 327.375l2.587 2.475M454.438 327.375l-2.644-2.456M458.694 331.383l-1.669-1.533M461.165 326.26l-4.14 3.59M461.165 326.26l.089.168M444.902 330.328l6.892-5.409M444.902 330.328l-6.123 4.943M444.902 330.328l2.742 2.462M444.902 330.328l-4.688-4.331M458.495 316.534l.223-1.335-.101-1.256-1.08-7.184M451.408 312.79l2.794-2.947 3.334-3.084M456.298 304.791l.334.06.401.459.298.6.205.849M451.408 312.79l-4.542 4.755M458.495 316.534l-3.921-1.863-3.166-1.881M446.866 317.545l6.313 6.286M440.214 325.997l4.948-6.758 1.704-1.694M453.18 323.83l-1.386 1.09M430.352 340.86l1.036-1.98 1.526-2.536 3.853-5.495 3.447-4.852M456.472 349.25l-1.858 1.705M449.004 390.159l-3.686 1.193M449.004 390.159l7.324 7.603M449.004 390.159l11.003.016M449.004 390.159l-.999-2.935M446.841 384.048l9.76-.592M448.005 387.224l-1.07-2.658-.094-.518" clip-path="url(#p3b74217ae1)" style="fill:none;stroke:#000"/><path d="m449.856 378.778-2.897 4.723-.118.547M455.169 379.882l.393 1.427.448 1.126.59 1.02M460.007 390.175l-1.503-3.176-1.904-3.543M455.705 369.79l-1.585-4.712M455.705 369.79l-4.6 2.317M459.193 380.231l-.284-1.201-3.204-9.24M445.12 363.91l1.313 1.143 1.502 1.563.935 1.07.905 1.58 1.33 2.84M455.074 379.334l-.427-.937-.359-.982-.453-.863-2.015-3.056-.715-1.39M424.303 349.292l7.28.808M435.924 350.99l2.517-2.033M431.583 350.1l1.894.21 1.032.193.845.223.57.264M432.103 343.644l-.52 6.456M432.103 343.644l-3.486-.283M420.42 342.707l-1.369 4.933M420.42 342.707l3.86.308M420.72 354.107l.928-1.2M420.72 354.107l-1.75 2.558M419.051 347.64l-1.13 4.69-.052.62.372.457 2.478.7M368.57 392.676l-.764 2.647M368.57 392.676l1.671-6.167M368.57 392.676l1.824.293M367.806 395.323l-5.315-.877M430.884 400.447l3.666 3.514M430.884 400.447l-.429 4.603M430.884 400.447l.295-4.33M444.899 414.106l-2.268-2.2M444.899 414.106l2.12-2.09M444.899 414.106l-1.276 1.257M440.231 409.57l2.4 2.336M440.231 409.57l-2.283-2.217M440.231 409.57l-6.733 6.152M433.498 415.722l-2.28-2.199M442.63 411.906l-6.322 5.819-.27.056-.396-.078-2.144-1.981M429.959 409.75l.453-4.294M430.822 413.856l-1.768-1.779-.072-.33.053-.362.816-1.294.108-.34M435.644 405.018l-4.966 4.437-.72.295M437.948 407.353l-2.304-2.335M437.948 407.353l-6.73 6.17M447.019 412.016l-8.67-8.84M447.019 412.016l2.59-2.345M431.179 396.117l.435-4.202M431.179 396.117l.495-.151M349.995 361.536l6.48.54M350.875 355.962l-.25.652-.204 1.445-.426 3.477M349.146 361.701l.425-.09.424-.075M356.845 350.26l.07 6.232M352.35 353.868l2.221-3.02.545-.328 1.729-.26M355.88 367.138l.595-5.061M355.88 367.138l-2.128-.166M355.88 367.138l4.704.305M385.71 331.924l8.06.63M385.71 331.924l.32-3.896M399.608 333.01l.404-4.071M399.608 333.01l-.392 3.956M399.608 333.01l-5.838-.456M352.062 366.858l-4.465-.38 1.55-4.777M243.69 371.73l26.548 7.026h.944l.99-.285 31.22-13.482 1.37-.39 1.667-.105 3.601.285 5.851.646 2.25.135 3.82-.285 2.313-.18 5.088-.699.763-.09 19.031-2.605M353.752 366.972l-1.69-.114M353.752 366.972l-.374 5.333M352.062 366.858l-.659 4.268M385.462 400.345l4.088.126M385.462 400.345l1.583-5.74M425.885 373.834l.138-.61M425.885 373.834l3.913.976 2.734.558M416.91 367.821l.093-1.321M420.943 367.724l-3.24.014-.792.083M410.924 369.69l.98-.757.634-.26 2.208-.428 2.165-.424M449.149 344.979l-.138.93M449.149 344.979l-5.874-.401M463.672 396.171l-.602-.527M463.672 396.171l.63-.434M461.847 398.362l.889-1.166.936-1.025M460.451 360.255l1.792 5.326M460.451 360.255l3.788-1.208M466.595 365.708l-3.846 1.378M466.595 365.708l.642-.184M466.595 365.708l-2.356-6.66M466.595 365.708l4.507 12.823M451.69 411.717l1.796-2.618M451.69 411.717l-2.08-2.046M447.348 418.363l3.72-5.538.622-1.108M436.522 392.203l1.696 1.6M453.486 409.099l2.14-2.82M453.486 409.099l-7.973-7.98M441.734 392.521l7.24 7.18M441.734 392.521l3.584-1.17M441.734 392.521l-3.516 1.282M455.626 406.279l1.969-2.529M455.626 406.279l-6.321-6.25M445.318 391.352l7.399 7.511M457.595 403.75l2.121-2.595M457.595 403.75l-4.878-4.887M440.103 427.75l-6.017 7.435M440.103 427.75l7.245-9.387M440.103 427.75l-3.578-3.933M399.216 336.966l-5.86-.443M414.436 330.368l-6.569-.65M414.436 330.368l-2.186 8.427M407.5 329.658l-1.135 4.601M407.5 329.658l.367.06M403.403 394.08l1.316-5.09M415.668 347.348l3.383.292M415.668 347.348l-2.178 8.811M356.475 362.077l.44-5.585M369.986 399.534l-.699 2.114M389.653 400.904l-.14 1.284.215 1.933M389.728 404.121l.31 8.564.268 1.892 1.856 2.372 16.64 17.414 2.422 1.652 13.165 8.151" clip-path="url(#p3b74217ae1)" style="fill:none;stroke:#000"/><path d="m410.385 433.785-2.778-2.274-15.193-15.973-1.133-1.501-.22-.75-.346-4.895-.283-2.402-.704-1.869M390.613 396.029l-.06-.062-3.508-1.361M380.077 404.452l-.482 2.393M380.077 404.452l-7.797-.58M384.414 404.437l-3.04.076-1.297-.061M370.241 386.509l5.442 1.24M375.683 387.75l.689.21M375.683 387.75l1.342-4.816M384.971 384.81l-1.043 3.979M384.971 384.81l8.06 1.938M405.395 386.22l2.327-8.23M405.395 386.22l-.676 2.77M408.918 373.347l-1.08 4.193M408.918 373.347l8.717 2.08M417.635 375.426l-1.176 4.321M418.693 371.555l1.995.409M406.618 390.977l-1.9-1.987M406.618 390.977l3.66-2.995M411.108 394.737l-2.705-1.966-1.785-1.794M410.88 382.823l-1.222 3.906.05.405.57.848M416.335 380.217l-.788 3.241-.272.528-.566.63-4.43 3.366M410.88 382.823l2.334.833M410.88 382.823l1.248-3.697M369.569 352.613l-.43 5.16M471.873 356.614l-3.732 1.19M471.873 356.614l2.38 6.763M471.873 356.614l.642-.202M471.873 356.614l-1.579-4.53M421.648 352.908l.375.21M434.884 358.048l2.19.267M434.884 358.048l-3.087-.268M430.95 362.827l-.438 2.676M430.95 362.827l.847-5.047M430.95 362.827l-6.097-.489M435.31 363.412l-.948-.189-1.871-.218-1.541-.178M422.023 353.119l1.968.156M422.023 353.119l-.341 3.76M420.688 371.964l.255-4.24M420.688 371.964l5.335 1.26M421.127 365.192l4.188.282M421.127 365.192l-.184 2.532M421.127 365.192l.21-3.136M435.644 405.018l-.85-.82M430.455 405.05l-.043.406M430.455 405.05l4.095-1.09M441.66 401.93l-3.546 1.005M441.66 401.93l.234.227M441.66 401.93l-6.751-6.958M441.66 401.93l3.597-1.068M446.227 415.035l-1.261 1.396M444.165 417.318l.8-.887M434.909 394.972l3.309-1.169M434.909 394.972l-3.235.994M432.35 392.298l.614.69 1.945 1.984M380.2 371.401l.406.095M380.2 371.401l-1.08 3.936M380.2 371.401l-3.95-.56M380.2 371.401l.144-.573M416.335 380.217l.124-.47M416.335 380.217l9.312 6.97 5.967 4.728M416.335 380.217l-4.207-1.09M412.128 379.126l.19-.439M412.128 379.126l-4.406-1.137M359.377 342.873l11.015.822M359.377 342.873l-3.023-.225M449.011 345.909l-6.707 6.851M449.011 345.909l5.603 5.046M350.817 333.267l2.961-3.713M350.817 333.267l9.268.747M353.778 329.554l6.633.581M360.772 326.152l-4.247-.192-2.747 3.594M375.921 331.23l-4.19-.247M372.07 326.967l.684.098 1.038.42 1.62 1.081.697.662.36.342-.087.626-.46 1.034M371.394 334.782h1.99l.825-.067.432-.196 1.28-3.289M360.772 326.152l.397-5.05.117-.535.273-.535.855-1.391M372.254 325.172l-5.056-3.543-4.784-2.988M360.818 307.745l-1.888.456-1.41 1.538-.402 1.13.428.816 1.711 1.2.479.601-.957 1.514.353.889 1.659 1.149 1.46 1.013.163.59M372.254 325.172l.215-1.301M372.07 326.967l.125-1.21.06-.585M372.47 323.87l-.277-3.247M378.191 324.961l-1.669-.308-4.053-.782M378.191 324.961l-1.013 2.696M372.07 326.967l-.339 4.016M372.07 326.967l-11.298-.815M386.03 328.028l8.156.534M400.012 328.939l.377-3.802M400.012 328.939l-5.826-.377M400.626 322.753l.421-4.247M400.626 322.753l-.237 2.384M400.626 322.753l8.594-.943M400.626 322.753l-5.982.64M416.811 320.977l-7.156.786M416.811 320.977l.596-5.058M406.356 318.047l-5.309.46M394.892 319.201l6.155-.695M394.892 319.201l-8.167.896M394.892 319.201l-.248 4.192M438.441 348.957l3.863 3.803M443.275 344.578l-.511.548-4.323 3.831M442.304 352.76l-5.23 5.555M445.353 359.007l6.945.657M445.353 359.007l-8.28-.692M440.362 361.318l4.321-1.837.67-.474M462.749 367.086l-.506-1.505M440.362 361.318l-5.053 2.094M445.12 363.91l-2.53-.119-.384-.182-.427-.358-1.417-1.933M451.883 364.787l-3.869-.755-1.342-.108-1.553-.014M438.247 376.431l11.609 2.347M438.247 376.431l.413-.403M432.532 375.368l1.453.296 4.262.767M429.868 374.175l-3.845-.952M429.868 374.175l9.15-3.137M429.868 374.175l8.792 1.853M438.66 376.028l1.34-1.935.163-.303-.052-.483-1.092-2.269M426.058 371.49l10.546-3.555.517.01.454.19 1.444 2.903" clip-path="url(#p3b74217ae1)" style="fill:none;stroke:#000"/><path d="m426.023 373.223.083-.528-.048-1.206M410.86 366.086l6.143.414M435.31 363.412l-4.798 2.09M459.716 401.155l2.13-2.793M459.716 401.155l-3.388-3.393M463.07 395.644l-1.236-1.845-1.827-3.624M450.122 378.35l-11.462-2.322M450.122 378.35l-.266.428M450.122 378.35l4.952.984M448.005 387.224l4.675-.242M372.193 320.623l4.005.15.964.039 1.007-.007 1.93-.12 6.626-.588M369.128 308.493l.068.301 1.954 3.062.55 1.021.142 1.02.35 6.726M400.39 325.137l4.499.36M360.772 326.152l-.361 3.983M394.186 328.562l-.416 3.992M360.41 330.135l11.321.848M360.41 330.135l-.325 3.88M371.731 330.983l-.337 3.8M393.77 332.554l-.414 3.969M360.085 334.014l11.309.768M438.779 335.27l-7.656 6.167M457.064 338.654l2.273 6.758M428.617 343.361l-4.337-.346M370.392 343.695l5.11.436M370.392 343.695l-.439 4.299M463.354 344.155l-4.017 1.257M443.275 344.578l-1.268-.107M384.449 344.897l.4.032M384.449 344.897l-6.552-.561M384.449 344.897l-.757 8.746M464.239 359.047l-1.389-4.004-1.22-2.75M423.991 353.275l.354 3.863M383.692 353.643l.425.032M383.692 353.643l-.47 5.265M413.49 356.16l2.361.234M413.49 356.16l-1.323 5.17M418.97 356.665l2.712.214M421.682 356.879l2.663.259M421.682 356.879l-.346 5.177M424.345 357.138l.508 5.2M424.345 357.138l7.452.642M468.14 357.804l-3.901 1.243M383.223 358.908l.452.04M452.298 359.664l1.822 5.414M412.167 361.33l2.633.202M417.506 361.749l3.83.307M417.506 361.749l-2.706-.217M421.336 362.056l3.517.282M424.853 362.338l.462 3.136M474.253 363.377l.627-.204M474.253 363.377l3.037 8.614M379.12 375.337l.47.11M379.12 375.337l-1.2 4.246M407.722 377.99l.116-.45M449.856 378.778l5.313 1.104M455.074 379.334l.095.548M455.074 379.334l4.12.897M377.92 379.583l.57.138M377.92 379.583l-.895 3.35M455.169 379.882l4.137.825M459.193 380.231l.113.476M377.025 382.934l.597.164M393.401 386.837l-.37-.089M431.614 391.915l.737.383M471.294 391.803l3.942 10.873M471.294 391.803l3.195-3.73M471.294 391.803l-3.37 7.109M438.218 393.803l7.04 7.059M463.07 395.644l-3.17 1.07M456.328 397.762l3.572-1.048M456.328 397.762l-3.611 1.101M363.883 572.138l.55-.42.63-.09.708.375 21.39 14.38 8.508 5.569.63.187.613.023.7-.158 12.402-7.918 1.18-1.02.55-1.081.739-32.783.315-42.857.314-1.456.692-1.711 9.901-19.02 44.22-85.246M464.301 395.737l1.488 1.539 2.135 1.636M452.717 398.863l-2.958.877M448.975 399.701l-3.718 1.16M448.975 399.701l.33.328M448.975 399.701l.784.039M445.257 400.862l.256.256M438.114 402.935l-6.44-6.97M438.114 402.935l.236.24M438.114 402.935l-3.564 1.026M434.55 403.96l.244.237M431.217 413.523l-.395.333M371.59 406.55l.274.126 7.731.17M377.716 472.96l-1.423-15.087.094-.886.346-.826.52-1.14.172-1.547.095-1.771-.22-1.381-.583-2.072-.078-1.306.22-2.102.912-4.774.44-1.426.771-1.486.96-1.516.314-1.066.142-1.712-.378-5.254.032-2.822.078-1.261.41-1.126 1.43-2.267.535-1.081.378-1.411.534-4.144-.723-5.675-.378-.465-2.72-.51M368.346 415.733l-.221.123-.183.173-.132.21M369.034 415.694l-.348-.038-.34.077" clip-path="url(#p3b74217ae1)" style="fill:none;stroke:#000"/><path d="m370.253 408.325-1.516 4.782-.198.92-.072.829-.12.877M369.034 415.694l.144-1.272.12-.614 1.654-5.156" clip-path="url(#p3b74217ae1)" style="fill:none;stroke:#000"/><path d="m367.767 416.912.142.279.225.222.287.144.32.05.32-.047.29-.14.227-.22.145-.276.047-.306-.056-.305-.153-.273-.234-.214-.293-.132M370.952 408.652l-.7-.327M370.952 408.652l.462-1.44.177-.662M370.253 408.325l-2.633-1.026M354.894 402.221l5.957 2.432M354.894 402.221l-1.312 2.934M350.263 398.559l.676.24 1.95 1.608 1.464 1.219.54.595M348.564 398.618l.99-.06h.709" clip-path="url(#p3b74217ae1)" style="fill:none;stroke:#000"/><path d="m352.32 407.638-2.032-8.24-.025-.84M344.955 425.763l-.152.315.13 1.509M344.955 425.763l8.736-1.87M347.776 421.502l-2.685 3.978-.136.283M361.734 415.666l-.207.607M361.734 415.666l-8.486-3.426M365.044 416.118l-1.349.017-.846-.117-1.115-.352M361.527 416.273l1.414.372.559.036 4.267.231M367.81 416.24l-.07.218-.014.229.041.225" clip-path="url(#p3b74217ae1)" style="fill:none;stroke:#000"/><path d="m360.236 419.257 1.132-2.518.16-.466M361.527 416.273l-8.183-3.218M353.344 413.055l-1.507-.64M351.625 415.886l1.356-1.978.363-.853M353.249 412.24l.085.509.01.306M367.81 416.24l-2.766-.122M353.249 412.24l-1.485-.624M352.564 408.576l.535 2.776.15.888M367.268 407.163l-6.417-2.51M367.268 407.163l.352.136M367.268 407.163l-1.092 3.155M366.176 410.318l-1.006 3.042M366.176 410.318l-12.594-5.163M365.044 416.118l-.057-.738.183-2.02M352.564 408.576l.704.233 11.902 4.551M353.582 405.155l-1.262 2.483M352.32 407.638l.244.938M347.776 421.502l1.894-2.764M347.776 421.502l5.915 2.39M353.691 423.892l.39 1.925M358.76 422.478l-.488.433-4.58.981M351.625 415.886l-1.955 2.852M351.625 415.886l8.61 3.37M358.76 422.478l.191-.365 1.285-2.856M349.67 418.738l9.09 3.74M360.851 404.653l.575-1.28M279.018 304.098l1.727 3.679M279.018 304.098l.295 1.317.07.533.009.586-.063.562-.165.699-.347 1.096M169.028 178.678l6.428 19.49 4.126 12.188 2.39 6.487 2.233 3.814 3.241 4.095 4.372 3.863 4.435 2.943 58.273 32.642 3.334 2.057 2.973 2.388 3.208 3.333 2.045 2.552 1.415 2.433 2.813 5.974 5.209 12.238 3.495 8.923" clip-path="url(#p3b74217ae1)" style="fill:none;stroke:#000"/><path d="m282.272 308.569-.281-.624-.291-.514-.366-.552-.495-.676-.889-1.021-.932-1.084M283.633 315.107l-1.535-4.09M283.633 315.107l-.317-1.734-.016-.766-.133-1.052-.158-.9-.375-1.223M290.881 329.4l-1.108-1.066-1.259-1.825-1.132-2.402-1.825-4.504-1.924-4.496" clip-path="url(#p3b74217ae1)" style="fill:none;stroke:#000"/><path d="m280.344 311.59.77.401.598.33.605.45.448.654.3.675.568 1.007M282.098 311.016l.166-.188.139-.207.11-.223.078-.234.047-.241.015-.246-.019-.245M280.745 307.777l.72 1.75.633 1.49" clip-path="url(#p3b74217ae1)" style="fill:none;stroke:#000"/><path d="m280.344 311.59.32.022.32-.028.31-.076.295-.122.27-.166.24-.204M280.745 307.777l-.265.004-.263.037-.256.07-.243.102-.227.13-.207.16-.184.183-.156.205-.127.223" clip-path="url(#p3b74217ae1)" style="fill:none;stroke:#000"/><path d="m282.272 308.569-.163-.189-.187-.168-.208-.143-.226-.117-.239-.089-.25-.058-.254-.028M280.015 311.516l.329.074M278.642 309.512l-.006.287.039.285.083.276.125.26.165.241.2.214.232.183.257.148.278.11M275.996 313.1l.824-.448.613-.308.465-.188.464-.157.814-.24.839-.243" clip-path="url(#p3b74217ae1)" style="fill:none;stroke:#000"/><path d="m278.642 309.512-.398.977-.433.601-.409.51-.621.691-.785.81M278.817 308.89l-.115.305-.06.317M282.634 309.432l-.048-.23-.077-.223-.105-.212-.132-.198M231.799 377.315l1.195-1.141 3.334-4.414 2.454-3.933 1.95-5.165 4.23-10.252 4.358-11.728 2.264-5.945 1.353-2.822.755-1.397.99-1.391 1.024-1.251 1.1-1.201 2.36-2.373 2.595-2.147 2.815-1.952 5.756-3.663 5.664-3.44M450.576 279.425l-1.32 14.144M450.576 279.425l3.272.045M450.576 279.425l-3.483-.308M449.255 293.569l3.303 2.574M446.141 291.076l1.463 1.171 1.651 1.322M446.873 282.165l-5.042 6.239M446.873 282.165l.22-3.048M446.873 282.165l-.732 8.911M441.831 288.404l-2.956-1.472M446.141 291.076l-1.746-1.171-2.564-1.501M445.402 278.314l.897.495.794.308M445.402 278.314l-6.527 8.618M438.875 286.932l-3.209-1.396 7.046-9.084 2.69 1.862M453.848 279.47l.818-8.063M453.848 279.47l-.372 4.19M457.528 283.78l-.473-.015M457.528 283.78l.645-8.079M457.528 283.78l-.691 7.131M453.476 283.66l3.58.105M453.476 283.66l-.918 12.483M451.705 264.332l-.236 3.502M451.705 264.332l-14.466.409M454.666 271.407l.57-6.591-.13-.496-.346-.15-3.055.162M451.394 271.107l.075-3.273M451.394 271.107l3.272.3M441.91 267.819l3.68 2.102 1.18.54 1.085.27 3.54.376M451.469 267.834l-9.559-.015M437.239 264.74l.66.737 4.011 2.342M437.239 264.74l-.095-1.456M458.393 271.723l-.41-.035M458.393 271.723l1.086-11.276-.111-.79M458.393 271.723l-.22 3.978M454.666 271.407l3.317.281M452.558 296.143l3.153 2.348M459.714 254.38l-.346 5.278M408.52 265.522l-.473-.556-.125-.706.503-1.471 3.114-7.793.457-.345.754.015 8.069 1.651 4.451.796 2.807.518.645.18.496.038.322-.09.323-.308.282-.99.504-2.651.11-1.562.079-.48.33-.3.74-.06 7.187 1.336 1.541.495 1.495.751.927.45.866.271.959.105 1.966.015 3.9-.285 5.38-.286 3.585.12M464.274 251.292l-3.364-.92-.847.454-.349 3.554M456.097 298.779l-.386-.288M456.097 298.779l.74-7.868M456.298 304.791l-.083-.3-.378-.488-.133-.51.393-4.714M406.365 334.259l.446.159M406.365 334.259l-2.918-1.028M403.447 333.231l-.745 2.343M404.889 325.496l-.423 3.478-.214.972-.805 3.285M424.593 337.86l-.125 2.012M424.28 343.015l.188-3.143M424.468 339.872l-12.218-1.077M487.943 334.667l-3.453 1.08M487.943 334.667l3.652 10.34M487.943 334.667l-3.362-10.02M484.49 335.747l-3.457 1.24M484.49 335.747l3.637 10.412M484.49 335.747l-3.653-10.837M481.033 336.986l3.59 10.336M481.033 336.986l-4.073-11.723M484.58 324.648l-3.743.262M543.737 295l-.522.4-5.442 5.646-1.494.856-1.793 1.155-1.148 1.157-3.492 4.474-2.752 4.249-.834.886-.683.583-6.222 4.21-2.752 2.128-2.03 1.922-.895.39-.913.136-.928.03-27.256 1.426M488.127 346.159l2.14 5.911M488.127 346.159l-3.503 1.163M488.127 346.159l3.468-1.153M490.266 352.07l-3.61 1.103M491.595 345.006l2.17 5.825-3.499 1.24M476.96 325.263l1.58-.143 2.297-.21M484.624 347.322l2.033 5.851M484.624 347.322l-3.373 1.12M476.96 325.263l-15.706 1.165M479.36 354.26l-3.267 1.027M479.36 354.26l3.534-1.11M479.36 354.26l-1.642-4.644M479.36 354.26l1.634 4.619M476.093 355.287l-3.578 1.125M476.093 355.287l-1.64-4.587M476.093 355.287l2.397 6.71M482.894 353.15l-1.643-4.707M482.894 353.15l.869 2.486M481.25 348.443l-3.532 1.173M477.718 349.616l-3.264 1.084M470.294 352.085l.634-.212M478.49 361.996l-3.61 1.177M478.49 361.996l3.054 8.662M480.994 358.879l-1.776 2.469-.728.648M480.994 358.879l2.769-3.243M486.657 353.173l-1.543 1.232-1.351 1.23M483.11 399.524l-2.408-6.682M483.11 399.524l.619 1.714M483.11 399.524l3.552-1.213M483.11 399.524l-3.352 1.145M479.86 390.502l-3.351-9.298M479.86 390.502l.842 2.34M479.86 390.502l3.606-1.164M479.86 390.502l-3.353 1.124M476.338 380.731l-2.72-7.548M476.338 380.731l.17.473M476.338 380.731l-1.936.644-.746.197h-.673M476.338 380.731l3.695-1.197M473.618 373.183l3.672-1.192M473.618 373.183l-3.282 1.088M483.729 401.238l3.555-1.181M479.758 400.669l.607 1.688 3.364-1.119M487.16 398.14l-.942-2.55M487.16 398.14l2.48-.846M487.16 398.14l-.498.17M487.16 398.14l.644 1.744M483.466 389.338l.51-.16M483.466 389.338l2.113 5.933M483.466 389.338l-3.244-9.34M480.033 379.534l.189.465M480.033 379.534l-2.743-7.543M480.033 379.534l.51-.173M477.29 371.991l.603-.203M487.804 399.884l-.52.173M490.928 396.853l.636 1.78-3.76 1.25M487.74 388.003l-3.764 1.176M487.74 388.003l-3.314-9.372M487.74 388.003l3.188 8.85M476.507 391.626l3.251 9.043M473.273 382.629l.235.819.66 1.644.378 1.08 1.96 5.454M484.238 378.105l-2.694-7.447M484.238 378.105l.188.526M484.238 378.105l-3.696 1.256M481.544 370.658l-3.651 1.13M470.336 374.271l-3.099-8.747M472.946 381.53l-.422-1.144-.966-2.65-1.222-3.465M490.928 396.853l-1.288.44M474.454 350.7l-3.526 1.173M471.102 378.531l.92 2.554M471.102 378.531l.165.908.047.706-.165.826-.221.49M472.89 381.472l-.27-.471-.614-.924-.904-1.546M472.022 381.085l.818 2.3M472.022 381.085l-.398.022-.375.13-.321.225M472.89 381.472l-.255-.193-.294-.131-.319-.063M472.84 383.386l.21-.232.15-.272M470.76 381.654l-.167.312-.075.341.021.35.116.331.203.291M470.928 381.462l-.169.192M472.89 381.472l.056.058M473.292 382.367l.372-.187.228-.128 2.617-.848M473.292 382.367l-.041-.285-.105-.269-.163-.241M473.292 382.367l-.02.262M473.273 382.629l-.073.253" clip-path="url(#p3b74217ae1)" style="fill:none;stroke:#000"/><path d="m464.274 251.292-.549 1.437-.66 1.997-.897 3.874-.77.99-.865.03-1.165.038M459.368 259.658l-.526.698-.859 11.332M424.39 444.166l-9.233 6.62-6.37 4.235-.653.337-.7.225-.896.368-1.636.856-27.186 16.153" clip-path="url(#p3b74217ae1)" style="fill:none;stroke:#000"/><path d="m235.778 574.464 28.318-23.754 20.124-17.284 49.166-41.807.582-.255.708-.06 10.16.45.787-.105.786-.375 31.307-18.314M436.525 423.817l-.702-.773M428.416 431.643l3.035-3.164 5.074-4.662M449.61 409.67l-7.716-7.513M435.823 423.044l7.8-7.681M432.015 423.337l2.122-1.706.405.137 1.281 1.276M243.69 371.73l-10.036 6.967M290.881 329.4l-3.594 3.34-11.481 11.215-13.904 13.572-5.725 5.495-2.14 1.622-3.93 2.762-6.418 4.324M233.654 378.697l-1.855-1.382M298.525 420.852l-.668-.315-20.825-9.533-9.405-4.429-21.122-9.638-1.652-.796-.755-.675-11.348-15.598-.102-.369.126-.345.88-.457M197.51 395.654l11.451-4.767 8.18-3.363 4.34-2.072 4.813-3.062 3.114-2.793 2.39-2.282M415.851 356.394l-1.051 5.138M453.706 368.502l-1.823-3.715M451.883 364.787l2.237.291M454.12 365.078l3.275.244M462.243 365.581l-4.848-.26M174.352 563.77l-.165 2.004.35.424.53.079 1.518.022.582.322.834 1.089.566.173 1.73-.45.912-.106 5.492 1.254 1.523.255 4.9 2.124 6.802 1.277 1.077-.49 3.404-2.338 1.015-.723.716.003.472.203.983.844.755 1.201.786 1.861 1.243 2.972.409.496.503.255 2.753.51 1.085.165.786.09.787-.135.786-.135h.613l.661.226M235.778 574.464l-.378.166-.786.015-.55-.21-.661-.796-.567-.315-.896.03-13.18 3.888" clip-path="url(#p3b74217ae1)" style="fill:none;stroke:#000"/><path d="m155.27 619.87 11.32-8.158.448-.638 1.416-4.113.629-.622 45.352-27.327 1.628-.99 2.697-.78M376.466 287.367l-2.202 3.664-1.463 2.102-.519.916-.283.78-.22 1.847-.142 2.493.11 1.696.032 1.276-.189.691-.315.706-.817 1.637-.645 1.53-.63 1.33-.055.458M362.874 305.966l2.74.374 3.514 2.153M485.886 284.08l-23.531 6.067-2.444.524-1.345.18-1.73.06M475.663 267.263l-1.715 1.006-1.274.84-.865.346-1.022.27-.708.166-.582.135-.424.33-.19.48-.188 1.277-.409 1.742-.99 3.438-.433 1.629-.134.248-.236.142-.322-.022-5.182-2.988-.724-.42-.543-.143-1.55-.038M480.702 392.842l4.877 2.43M489.64 397.294l-3.422-1.705M486.218 395.59l-2.242-6.411M486.218 395.59l-.639-.319M472.983 381.572l-.037-.042M484.426 378.63l-3.717 1.21M480.222 379.999l.487-.159M480.222 379.999l-3.713 1.205M487.284 400.057l-.622-1.746M485.58 395.271l1.082 3.04M470.928 351.873l1.587 4.54M477.893 371.788l-3.013-8.615M477.893 371.788l2.65 7.573M480.71 379.84l-.168-.479M480.71 379.84l3.266 9.339M472.515 356.412l2.365 6.76M420.381 423.428l2.337 3.778.858.956 1.144 1.07 3.696 2.411M434.086 435.185l-4.254-2.658-1.416-.884M425.589 443.288l2.323-1.703 2.564-1.967 3.61-4.433M416.362 426.924l1.604-1.801.503-.466 1.525-.99.387-.239M426.027 418.324l-.794.74-4.852 4.364M443.623 415.363l1.343 1.068M447.348 418.363l-2.382-1.932M461.847 398.362l-1.947-1.648M449.759 399.74l-.454.289M430.412 405.456l4.382-1.259M449.305 400.029l-3.792 1.09M445.513 401.118l-3.619 1.04M434.794 404.197l3.556-1.021M438.35 403.176l2.38-.685 1.164-.334M430.822 413.856l-4.795 4.468M416.362 426.924l-5.977 6.861M414.361 424.669l1.293 2.045.252.15.456.06M410.385 433.785l15.204 9.503M410.542 418.622l3.82 6.047M409.882 429.867l3.853-4.684.626-.514M430.769 422.992l-3.335-3.484-1.407-1.184M432.35 392.298l-.292-.518-.55-.54-1.56-1.32-4.857-3.965-6.559-4.864-1.588-1.082-.485-.262M432.532 375.368l-2.392 2.42M416.459 379.747l-4.14-1.06M407.838 377.54l-4.99-1.212M407.838 377.54l4.48 1.147M398.788 366.683l.013-.423 1.195-4.745.292-1.119M398.008 367.338l-.072.363-1.768 7.002M405.245 341.382l1.566-6.964M405.245 341.382l-1.326 5.085M409.655 321.763l-.435.047M409.655 321.763l-.908 4.04M408.747 325.804l-.88 3.914M407.867 329.718l-1.056 4.7M400.288 360.396l1.375-5.273M401.663 355.123l2.256-8.656M380.344 370.828l.408.101M396.581 374.803l-.413-.1M396.581 374.803l6.268 1.525M396.168 374.703l-8.04-1.955M396.168 374.703l-.01.04-.102.394M388.128 372.748l-7.376-1.819M396.056 375.137l-3.025 11.611M390.613 396.029l-.321 1.233-.742 3.209M390.613 396.029l2.418-9.28M389.653 400.904l-.103-.433M397.18 402.276l-1.501-1.436M397.59 398.778l-1.911 2.062M402.874 411.854l-9.452-7.791-.11-.345.015-.27.284-.376 2.068-2.232M383.928 388.789l3.832.922M396.593 354.675l.886-8.722M373.157 400.461l1.048-4.073M373.157 400.461l-.877 3.41M382.726 363.698l.102-.39.078-.256.048-.232M380.752 370.93l1.697-6.603.277-.63M382.954 362.82l.047-.563.518-2.464.156-.845M383.675 358.948l.442-5.273M384.85 344.929l.49-5.143M384.85 344.929l-.733 8.746M385.34 339.786l-.142-.695M374.938 393.537l1.434-5.577M374.938 393.537l-.733 2.85M371.59 406.55l.023-.082.667-2.596M379.59 375.448l1.016-3.952M379.59 375.448l-1.1 4.273M378.49 379.72l-.868 3.378M377.622 383.098l-1.25 4.862M380.606 371.496l.146-.567M369.287 401.648l-.478 1.628-.65 2.34-.54 1.683M369.287 401.648l-2.983-.162M363.99 401.361l2.314.125M370.394 392.969l1.066-3.558M375.211 347.171l-.133 1.389-.079.27-.204.195h-.33l-4.512-1.031M375.501 344.131l2.396.205M375.501 344.131l-.29 3.04M375.211 347.171l1.927.113M378.431 339.288l-.534 5.048M360.584 367.443l-7.853 8.1M350.875 355.962l-4.128-2.577M352.35 353.868l-1.037 1.412-.438.682M352.35 353.868l-2.83-2.322M599.712 268.56l.44-.26 1.82-1.074 3.102-2.144 2.193-1.884 1.503-.71 6.354-3.483 1.648-1.017 2.339-1.828M499.98 119.261l2.28-8.762.369-1.31M492.678 236.46l14.764 8.07.652.136.676-.045 6.213-.931 5.174-.766 1.715-.368.582-.173.519-.037.558.18 4.396 2.177 4.994 2.44 5.34 2.643 1.21.586.74.525.566.6.88 1.067 1.055 1.17 1.1.767.976.706 1.18 1.246 1.462 1.65 1.62 2.284.315.57.062.63.016.571.19.661.36.255.85.436.622.21M473.128 235.994l.71-1.148 3.13-5.18.71-1.18M499.98 119.261l-1.433 5.503-.361 1.532-.158.969-.039 1.614.37 3.709.44 4.22.189 2.853.016 1.622.267 1.261.519 1.201.519 1.172 1.667 5.706.472 2.613.849 3.153.22 1.952-.063 2.613.189 2.673v2.703l-.283 1.862-1.054 3.228-.943 2.988-.346 1.307-.44 1.081-1.212 1.787-1.447 2.312-1.164 2.283-1.132 1.832-1.243 1.606-1.856 2.073-1.258 1.486-.897 1.502-.896 1.666-1.51 2.463-.723 1.246-.74 1.472-.456 1.246-.393 1.817-.52 2.778-.093 1.651.11 1.562-.079 2.252-.204 2.373-.472 3.379-.267 1.546-.378 1.081-.755 1.246-2.69 4.67-2.624 4.361M492.678 236.46l-9.136-4.993-5.864-2.98M317.4 185.505l-4.963-17.208-2.328-8.484-5.867-20.558-2.39-8.784M317.4 185.505l2.209 7.658 4.876 16.442 5.992 20.977 7.109 24.519 3.711 12.958 1.683 5.735-.078.736-.535.736-12.393 13.213-23.64 25.208-9.39 9.76-6.063 5.953M473.128 235.994l-.627-.397-.314-.616-.126-.69-.031-1.187-.126-.886-.378-1.29-.33-1.292-.189-1.411-.141-1.232-.22-1.216-.174-1.382.079-1.906.189-2.358-.047-3.168-.126-1.051-.299-.78-2.516-3.725-3.413-4.715-1.62-2.267-1.102-1.877-2.091-3.033-1.195-1.997-.598-1.802-1.557-4.1-.252-.825-.299-.931-.739-1.187-.88-.75-1.353-.916-2.116-1.487-.582-.57-.81-.601-.833-.346-.96-.285-.865-.51-.818-.946-.472-1.006-.062-1.382.361-1.486 1.117-2.478 1.274-2.087 1.195-1.712.504-1.006.298-.93.205-1.202.125-1.802.22-3.229.017-1.171-.189-1.036-.141-1.277.062-1.441-.078-1.186-.252-.54-.488-.241-1.431-.42-1.699-.571-.912-.541-.645-.66-1.431-2.538-1.243-2.027-.754-1.577-.787-1.427-.912-1.186-.88-1.051-.567-.24-.85.03-1.116.27-1.903.886-1.714.856-1.023 1.006-.535 1.006-.392 1.231-.315.766-.63.39-1.1.481-1.416.24-1.085-.105M464.274 251.292l.552-1.446.834-1.892 1.4-2.297 1.132-1.727 3.193-5.12 1.743-2.816M424.39 444.166l1.199-.878M226.844 471.669l-2.202.36-.597-.03-.378-.196-.267-.375-.425-.495-3.366-2.732-2.076-1.426-.346-.48-.11-.496-.031-.526-.268-.63-.472-.51-.88-.51-.771-.436-.63-.105-.628.165-2.816 1.501-1.006.63-.535.586-.52 1.216-.44.84-.519.421-.691.075-.677-.345-.85-.766-.58-.78-.504-.871-.52-1.681-.786-2.538-.63-1.44-.518-.901-.44-.405-.55-.376-.708-.21-1.086-.06-10.317-.15-6.983-.03-.881-.06M197.51 395.654l-.234 1.298-.331.961-.66 1.246-1.07 2.402-6.999 17.024-13.385 32.727-.11.841.142.555.723.751 2.014 1.801 2.06 2.012.535.376.645.255M135.008 517.312l1.29-.09 13.966 3.903.692-.24.41-1.862.44-.87.754-.87.41-.181.377.03 1.07.42 1.887 1.291 2.013 1.081.755.24 1.384.06.314-.12.283-.3.63-1.32 1.195-1.18.842-.654 5.088-3.752 5.905-4.579 4.223-3.865 1.377-1.23 2.202-1.232 1.926-1.344 1.589-.525 2.163-1.043 1.824-1.26-.134-.451-4.073-2.358-7.377-4.142-1.108-.729-.284-.78.26-1.674 1.935-15.867 1.273-10.899.33-3.017M279.565 456.326l1.777-1.02 1.714-.691 1.133-.315.85-.15.723-.36 1.132-.601.928-.36 1.4-.21.52-.18.33-.316.22-.69v-8.783l.047-5.014v-11.41l.125-.464.33-.286 6.332-3.4.849-.54.354-.413.196-.27M302.827 425.581l-2.36-3.137-.912-1.096-.621-.473-.409-.023M302.827 425.581l3.098.195.803.24.833.691 3.31 3.333.952 1.058.401.646.653 1.471-.008.248-.142.225-4.018 2.117-5.835 2.597-.393-.135-.315-.436-.802-1.726-.299-.676-.094-.975.11-4.684.236-.78.535-.797.408-.63.394-.961.173-1.021" clip-path="url(#p3b74217ae1)" style="fill:none;stroke:#000"/><path d="m302.827 425.581-.173 1.02-.394.962-.408.63-.535.796-.236.78-.11 4.685.094.975.299.676.802 1.726.315.436.393.135 5.835-2.597 4.018-2.117.142-.225.008-.248-.653-1.471-.4-.646-.952-1.058-3.311-3.333-.833-.69-.803-.24-3.098-.196M431.123 341.437l-.77-.577M543.737 295l.579-.996 2.28-1.96.999-1.2 2.242-3.033 1.722-2.185.66-.608 1.148-.826.637-1.089.354-1.441.3-1.629.306-.653.731-.518 1.337-1.104M599.712 268.56l-5.475 3.238-2.592 2.738-1.43 1.064-1.55 2.05-6.566 6.963-1.396.893-1.584 1.07-1.106.529-2.626 1.291-3.319 1.194-4.99 2.466-2.268 1.025-1.92.33-2.19.067-14.465.42-1.723.508-.775.594M499.98 119.261l2.192-.428 3.878-.976 3.114-.879 2.296-1.134 3.735-2.041 4.011-2.441 1.856-1.066 1.148-1.156.7-.361 1.007-.083 4.459.196 2.123-.068 1.321-.255 1.368-.383 1.974-.218 4.499-.533 1.305-.105 3.35.3 7.958.797 3.02.345.975.315 1.557 1.186 3.398 2.944 2.8 2.267 1.006.706.904.315.692.451.55 1.336 1.157 3.8.77 1.081 1.258.616 1.07.705.41 1.892.172 3.244-.4 1.291.07.616.487.435M599.712 268.56l-2.369-3.061-1.368-2.11.023-.645.52-1.104 1.234-1.952 1.384-1.194.283-.345-.04-.405-.455-.608-2.163-2.05-1.376-1.366-.086-.23.055-.42.05-.533-.165-.349-.353-.225-.516-.128-2.115-.221-.814-.221-.566-.444-.157-.683.185-2.432.802-2.057.723-1.261M636.765 479.01l.504.427M635.334 481.9l-.047-1.217.04-.203 1.438-1.47M635.334 481.9l1.935-2.463" clip-path="url(#p3b74217ae1)" style="fill:none;stroke:#000"/><path d="m613.394 494.667.826 1.5.55.353.787-.037 2.524-.976.566-.03 3.012.773.708-.105.802-.653 4.301-4.803 7.864-8.79M169.028 178.678l-10.11-30.653-11.237-34.09M120.719 240.139l.173-.653.047-.668-.582-2.463-6.087-15.507-.361-.582-12.986-12.628-.189-.342-.003-.249.135-.21 39.364-17.683 1.277-1.04M169.028 178.678l-27.21 9.278-.31.158M455.711 298.491l-.479 4.59.04.547.11.443.377.503.54.217M455.711 298.491l1.344-14.726M457.055 283.765l.928-12.077M492.678 236.46l.004.112.126.992.154 1.406.153 1.207.515.095.895.13.46.111.29.518M317.4 185.505l.24-.106.52-.075.392-.165.55-.33.41-.33M433.496 347.334l2.025-2.033M442.007 344.47l-1.685.941-2.202.677-1.683-.15-.916-.637" clip-path="url(#p3b74217ae1)" style="fill:none;stroke:#000"/></g><g id="PatchCollection_1"><path d="m352.842 281.016-.032 1.532.567 1.832.66 1.411.913 1.351 1.29 1.021 1.478.691 1.384 1.321-.063 1.441-.975 1.292-.504 1.561-.03 1.562.534 1.531 1.006 1.351 1.699.15 1.164-1.14-.535-1.502-.503-1.652-.189-1.741.913-1.351 1.383-.841 1.542-.75 1.384-.841 1.353-1.082 1.258-1.02 1.195-1.081 1.195-1.112.881-1.47.692-1.412.566-1.532.881-1.411 1.542-.75 1.635-.091h1.604l1.29-.09.944 1.05-.283 1.472-.409 1.592 1.604.39.975-1.231 1.07-1.171 1.006-1.231.692-1.441.22-1.593.441-1.561 1.321-1.08 1.636-.601 1.572-.331 1.7-.03 1.698.18 1.604.481 1.479.75 1.51.63 1.636-.209 1.226-1.2 1.195-1.112 1.321-.481h3.964l1.699-.21 1.761-.3 2.296-.931 1.542-.75 2.013-.481 1.73-.12 1.668-.18 1.54-.541 1.416-.781 1.447-.87.346-.571.787-.6 1.635-.151h1.604l1.48.63 1.352.932 1.29 1.23 1.32.961 1.385.871 1.415.871 1.416.84 1.447.662 1.446.9 1.51.541.378-.27 1.007-.54.157-.902-.724-.42-1.667-.18-1.667-.27-1.636-.42-1.415-.872-1.416-.9-1.415-.872-1.384-1.11-1.133-1.172.22-.63 1.29-.961 1.321-.93 1.384-.842h.598l.126 1.351.44.36.566-.84 1.196-1.081 1.635-.18h3.366l1.604-.03 1.636-.06 1.73-.09 1.667-.15 1.416-.45-.535-.512-1.73-.06-3.492.06h-5.127l-1.73.24-1.636.21-1.698.241-1.51.66-2.957 1.502-1.699.39-1.698.121-3.398.54-1.698.51-1.51.662-1.447.9-1.51.6-1.636.301-1.73.24-1.636.27-.566.06-1.73.421-1.604-.36-1.415-.931-1.73.12-1.605.72-3.334.901-1.447.841-1.51.72-1.699.121-1.698-.06h-1.7l-1.76.57-1.668.421-1.667.03-1.604-.42-1.416-.961-.534-1.531-.598-1.502-.41-1.201V264.2l.567-1.471.818-1.382 1.07-1.38 1.006-1.262.944-1.382.692-1.411.723-1.411.944-1.322.44-1.501 1.479-.63h1.32l1.102-1.172.157-1.261-1.541-.69h-1.636l-1.447-.842.44-1.501.976-1.322 1.037-1.26 1.48-.631 1.635-.18h.723l.913-1.322.346-1.591.818-1.382 1.572-.6h3.366l1.887.15 1.605.15h1.636l.849-.54-.881-.751h-8.776l-1.636-.21-.44-1.262-.378-1.592.283-1.591 1.195-1.111 1.51-.661 1.48-.66 1.289-1.082.692-1.441-.095-1.562-1.51-.69-1.761-.481-1.416-.871-.22-1.621.157-1.622.85-2.913-.063-1.562.283-1.562 1.447-.93 1.604-.21 1.636.36 1.478-.72-.723-1.412-1.825-1.022-1.478-.69-1.479-.721-1.446-.78-.787-.3-1.541.66-.63 1.471v1.622l-.503 1.531-.818 1.382-.44 1.532-.409 1.681-1.038 1.321-1.447 1.112-1.29.96-1.446.781-.504.781.22 1.652 1.038 1.261 1.164 1.081.063 1.562-.535 1.531.22 1.682.787 1.382.818 1.381.535 1.531-.095 1.772-.503 1.532-.912 1.35-1.321.962-1.667.06-.535.18-.252 1.171.912 1.382.378 1.682-.252 1.591-.535 1.502-.188 1.621v1.562l-1.227 2.493-.944 1.35-1.227 1.082-1.1 1.17-1.322.992-.975 1.35-.692 1.593-.252 1.651.158 1.562 1.132 2.973.44 1.501.032 1.622-1.195 1.17-1.479.662-1.604.54-1.604-.39-1.384-.931-1.102-1.231-1.635-.09-.63 1.561.315 1.532-.63 1.441-1.32 1.08-.787 1.382-.283 1.592-.22 1.591-.472 1.532-.817 1.14-1.479.902-1.447.93-1.415.962-1.604.54-1.73.18-1.668-.42-1.258-1.051-.377-1.531-.127-1.562-1.195-1.17-1.604-.452zM329.753 316l-.063 1.05.41.902 1.258.96 3.177.901 1.572.54 1.416.872 1.195 1.29 1.07 1.232.88.51 1.636.06h1.636l1.604-.33.818-.03.943.48.19 1.562-.881 1.381-.63 1.562-.692 1.5-.597 1.473-.503 1.591.849.21 1.164-.06.975-1.291 1.227-2.943.849-1.321 1.353-1.11 1.478-.602 1.604-.15h.724l1.384-.991.692-1.441.598-1.472.786-1.38.503-.45 1.007-.271.314-.42-.314-.481-.755-.06-.85.42-1.478 1.08-1.667.181-1.415-1.02-.315-1.532.723-1.471.85-1.382.503-1.441v-1.651l.095-1.682.817-1.442.944-1.32.031-.871-.849-1.352-1.636-.57-1.478.72-.189 1.592-.44 1.561-.692 1.412-.598 1.44-.66 1.472-.63 1.592-1.006.51-1.385-.87-1.509-.721-.158-.3.567-1.171.723-1.412.346-1.682.252-1.65.032-1.562-.661-.571-.975.51-1.038.39-.284.812.598.57.094 1.081-1.32 1.171-1.51.72-1.605.3-.66-.21-.409-1.801.44-1.591.063-1.652-.63-1.471-1.446-.84-1.541.36-.975 1.38-1.856 4.325-1.73 2.882-1.542 2.463zM536.703 408.932l.44.81 5.443-.33 5.599-.69 1.196-.51 4.812-4.654.975-.57 8.462-1.712h1.667l.755-.48.346-.841.818-1.382 1.101-1.17.881-1.352 1.069-1.35 1.51-.692 1.604-.18 1.793-.06 3.178.3 2.957.09 1.887-.15 1.258-1.44.818-1.172 2.013-.87 2.328-.301 3.932-.36.251-.39-.157-.33-1.54-.721-1.448-.78-1.604-.391-1.73.12-1.605.39h-1.667l-1.667-.21-1.447-.78-.094-.931 1.038-1.082 3.491-1.68 3.492-1.803 3.492-1.86 2.17-1.352 1.888-.48.345-.451-.503-.39-1.573.15-3.177 1.681-4.938 2.823-2.705.9-3.43.24-1.73.03-1.667.18-2.422.3-1.635.332-1.636.27-1.636.3-5.882 1.23-2.611.601-2.737 1.201-1.415 1.382-10.664 10.87z" clip-path="url(#p3b74217ae1)" style="fill:#006400;fill-opacity:.8"/></g><g id="PatchCollection_2"><path d="m405.67 355.805-1.25 4.635-3.854-.302 1.251-4.672zM384.864 345.35l7.226.823-.6 7.854-7.186-.69zM382.639 359.519l-.996 4.24-5.914-.483.297-1.912 1.863.18.276-2.454zM462.117 326.48l7.101 20.884 12.682-4.533-5.474-17.418zM385.263 384.623l1.29.39 1.75-6.893-1.156-.474zM400.151 323.126l-.214 1.684-4.935-.478-.048-.546zM431.555 395.638l2.847-.795-1.793-1.877-.677-.496zM431.28 363.197l3.16.255-3.6 1.682zM422.063 352.823l1.29-1.592.393 1.742zM419.499 356.501l1.95.12.299-3.423zM400.986 323.026l-.22 1.832 7.297.585.756-3.363z" clip-path="url(#p3b74217ae1)" style="fill:green;fill-opacity:.8"/></g><g id="PatchCollection_3"><path d="m389.16 378.775-1.471 5.503 4.094.997 1.472-5.503zM393.2 375.124l-.4 1.494 1.845.448.049-.182.18.044.295-1.109-.18-.044.055-.202zM383.904 325.755l1.691.2-.415 3.201-1.692-.2zM378.515 326.171l1.691.2-.415 3.202-1.69-.2zM380.652 327.23l2.295.27-.444 3.443-2.295-.27z" clip-path="url(#p3b74217ae1)" style="fill:#90ee90;fill-opacity:.8"/></g><path id="PatchCollection_4" d="m385.836 325.002-7.537.73-3.721 9.91.338 2.892 9.63.834z" clip-path="url(#p3b74217ae1)" style="fill:#006400;fill-opacity:.8"/><path id="PatchCollection_5" d="m291.438 417.248 6.165-7.085-8.493-5.645-4.781 9.308z" clip-path="url(#p3b74217ae1)" style="fill:#006400;fill-opacity:.8"/><path id="PatchCollection_6" d="m435.257 422.443 1.982 2.342-4.75 4.984-4.499-4.114 2.044-2.788 1.981 2.401z" clip-path="url(#p3b74217ae1)" style="fill:#d3d3d3;fill-opacity:.8"/><g id="PatchCollection_7"><path d="m392.851 376.689 1.939.46-.338 1.295-1.938-.46zM445.92 351.561l3.176 2.86-1.683 1.704-3.177-2.86zM470.16 397.952l.943.56-.428.655-.942-.56zM393.2 375.124l-.4 1.494 1.845.448.049-.182.18.044.295-1.109-.18-.044.055-.202zM403.447 348.396l.769.195.363-1.774-.745.018zM402.692 353.493l-.283 1.106 1.128.267.283-1.116zM399.395 347.965l-.081.764 2.703.658.15-.637-1.262-.34.03-.1zM407.487 348.284l-.097 1.042 1.799.5.396-1.038zM406.112 349.924l-.205.727.956.246.026-.09 1.049.268.152-.54-1.077-.275.027-.097zM399.855 355.554l.694.043-.093.63-.748-.083zM406.84 353.521l-.708-.052-.193 1.745.788.032zM406.998 352.446l.132-.578 1.32.275-.131.578zM404.746 359.471l-.202.574 1.166.18.134-.621zM409.35 356.377l-.15 1.684.75.06.149-1.684zM397.277 361.175l-.18.654 1.598.42.16-.617zM402.802 345.607l-.104.456.417.086.104-.456zM412.584 343.28l.657.052.06-.678-.657-.053zM387.208 352.723l.671.032-.026.516-.672-.031zM388.632 353.189l-.586-.028.058-1.121.586.028zM389.635 351.383l.019-.364.704.034-.021.412.603.028-.028.54-.603-.029-.053 1.023-.152-.007-.028.528-.446-.022.027-.527-.105-.006.055-1.067-.536-.026.029-.542zM405.197 363.874l-2.116-.173.048-.528 2.116.173zM405.256 363.086l-1.694-.139.046-.514 1.694.14zM402.79 362.095l.048-.525 2.516.206-.047.526zM388.199 376.054l2.595.596-.142.56-2.594-.596zM388.513 375.236l1.945.446-.12.477-1.945-.447zM388.993 374.395l1.47.338-.136.541-1.47-.337zM413.45 341.486l.059-.75 1.785.126.011-.142-.169-.011.049-.62.169.012.028-.362.854.06-.065.828-.22-.016-.024.296.429.03-.059.752-.52-.037-.017.218-.277-.02.017-.218zM407.898 354.138l-.947-.281.065-.421 1.014.296zM407.065 354.413l.837.082-.087.804-.837-.083zM382.45 336.178l.307-2.154 1.737.225-.118.825-.403-.052-.189 1.33zM376.254 333.003l1.132.045-.049 1.111-1.132-.045zM376.308 336.08l.071-.803 1.64.131-.07.804zM407.438 344.286l.776.065-.072.775-.775-.065zM407.455 343.94l.778.067-.027.285-.778-.066z" clip-path="url(#p3b74217ae1)" style="fill:#a9a9a9;fill-opacity:.8"/><path d="m407.881 343.977-.426-.036.122-1.319.426.036zM403.117 345.672l-.962-.199.054-.236.103.022.063-.278.859.178zM459.967 332.652l1.358-.596 1.006 2.087-1.049.46.072.148-.31.136zM461.46 335.278l2.4-.78.5 1.4-2.4.78z" clip-path="url(#p3b74217ae1)" style="fill:#a9a9a9;fill-opacity:.8"/></g></g></g><defs><clipPath id="p3b74217ae1"><path d="M90 97.079h558v533.042H90z"/></clipPath></defs></svg>