<svg xmlns="http://www.w3.org/2000/svg" xmlns:xlink="http://www.w3.org/1999/xlink" width="960" height="960" viewBox="0 0 720 720"><defs><style>*{stroke-linejoin:round;stroke-linecap:butt}</style></defs><g id="figure_1"><path id="patch_1" d="M0 720h720V0H0z" style="fill:#fff"/><g id="axes_1"><path id="patch_2" d="M90 584.381h558V142.819H90z" style="fill:#fff"/><g id="LineCollection_1"><path d="m403.124 344.255-.265.349-.343.473M406.16 339.836l-.863 1.297-.608.878-1.565 2.244" clip-path="url(#p0b902adb75)" style="fill:none;stroke:#000"/><path d="m405 344.879-.318-.334-.39-.16-.408-.094-.76-.036M551.706 440.13l64.718 43.706M528.956 427.63l4.63.964 2.083.876 1.101.605 14.936 10.055M547.29 449.134l1.33-1.087.963-1.236.396-1.68.34-2.399.368-1.31.51-.84.509-.452M420.4 370.194l-1.296-.792M461.663 393.196l-24.251-13.627-17.012-9.375M419.14 370.165l.574-.061.686.09M397.328 352.506l-.443-.024M397.328 352.506l-.1-.705M403.266 356.597l-1.076-3.74-.141-.252-.347-.124-4.374.025M397.328 352.506l-.173 2.201M405 344.879l.524-2.497.637-2.546M428.205 290.487l-.242.396-5.536 10.285-5.648 10.212-3.526 7.33-1.344 3.548-1.968 6.045-1.274 3.782-2.506 7.75M433.965 197.692l-.156-.288-.481-.729-1.387-1.706-5.069-5.305-2.137-2.621-1.897-2.548-1.657-2.868M369.325 190.184l4.05-.557 10.857-1.855 15.035-2.46 15.77-2.597 5.097-.853 1.047-.235M430.525 286.05l-2.32 4.437M428.205 290.487l-.1-1.235.466-1.348 1.076-1.483.878-.371M430.525 286.05l.92 1.013M437.844 252.064l1.585 13.439.1 1.978-.199 1.286-.396 1.545-1.288 2.56-1.812 3.14-5.31 10.038M414.421 370.317l-1.394 4.963M414.421 370.317l.135-.42M414.421 370.317l2.513.411.51.059.62.003.449-.083.332-.192.294-.35M414.421 370.317l-4.671-1.192M616.424 483.836l3.962 2.647 1.553.844 1.845.781 1.614.445 1.933.282M528.956 427.63l-4.317-1.014-2.591-.816-3.85-1.68-14.232-8.11-15.569-9.082-13.505-6.786-13.23-6.946" clip-path="url(#p0b902adb75)" style="fill:none;stroke:#000"/><path d="m574.64 282.835-7.466 7.698-3.463 3.305-15.912 16.095-3.907 2.893-11.297 7.343-3.257 2.002-7.984 2.918-13.697 4.636-5.599 2.026-1.372.78-7.206 5.623-11.935 8.987-1.09.358-2.576.581-.835.445-.765.68-4.87 5.97-.906 1.57-.452 1.274-.029 1.298.878 5.215.113 1.41-1.09 6.39-.255 3.35-.566 3.25-.524 2.275-.793 1.705-6.122 10.284M396.821 366.288l-.34-.012M396.821 366.288l-.166-2.546.053-1.057M396.821 366.288l.018.35M402.36 366.924l-4.813-.578-.726-.058M386.504 369.075l9.372-2.627M386.504 369.075l-1.43.29M386.504 369.075l3.626 5.617M311.665 250.967l2.618 4.19 1.203 1.98 2.124 2.798 1.83 2.82 14.277 22.73 3.944 6.42 4.192 6.313 5.629 9.168 11.775 18.424 7.195 11.788 4.572 7.17 2.463 3.832 2.832 4.45 5.096 8.022 2.52 3.968 2.57 4.035M517.452 259.365l-1.985-.242-50.174-8.258-1.372-.136-3.041.112-19.42.93-3.616.293" clip-path="url(#p0b902adb75)" style="fill:none;stroke:#000"/><path d="m434.427 198.541.475 1.46.256 1.364.067 1.418-.227 4.315-.382 10.522-.07 4.957.197 2.906.765 6.677.382 3.35.564 4.151.88 8.225.51 4.178M269.267 545.084l-.828.858M269.267 545.084l.58 2.083M316.785 505.933l-3.79 3.31-15.743 10.577-6.003 4.152-8.72 8.502-8.495 7.512-4.767 5.098M396.683 367.178l.156-.54M395.006 372.604l.544-1.07.531-1.359.404-1.304.198-1.693M396.683 367.178l-.173-.566M386.193 387.801l1.989-3.974M386.193 387.801l-.428-.164M386.193 387.801l-1.637 3.392M390.801 378.179l-.566-.038M390.801 378.179l2.18-2.707M388.182 383.827l2.203-4.939.416-.71M363.917 437.85l-1.189 5.03-.582 3.584-.409 4.981-.384 2.137-1.838 5.229-4.474 8.898-2.052 3.003-2.93 2.46-3.186 1.63-5.507 1.755-2.718 1.817M316.785 505.933l.626-.546 13.25-18.19 7.987-8.823M393.42 374.823l1.586-2.219M393.42 374.823l-.813.147M393.42 374.823l-.439.649M405 344.879l-.233 1.372M404.101 345.028l.648-.07.251-.08M404.101 345.028l.312.531.354.692M402.516 345.077l.708-.158.39.01.286.055.201.044M397.228 351.801l1.02-1.762.615-.81 1.614-1.897 2.039-2.255M417.756 368.637l-2.945-1.979-2.33-1.937-1.804-1.684-1.444-1.755-1.614-2.386-1.061-2.348-1.147-2.843-.567-2.633-.17-1.57.029-1.694.064-1.557M417.756 368.637l1.348.765M417.756 368.637l.392.7.1.474" clip-path="url(#p0b902adb75)" style="fill:none;stroke:#000"/><path d="m419.104 369.402-.342.065-.515.344M419.14 370.165l.094-.44-.13-.323M418.247 369.81l-.3.297-.383.142-.488.006-2.52-.358M434.427 198.541l-.462-.85M434.427 198.541l.64-1.075M397.228 351.801l-.343.681M395.876 366.448l.634.164M395.876 366.448l.606-.172M395.006 372.604l7.262 3.708M620.869 400.406l-32.582 22.453-.92.655-1.076.321-36.821 3.424-18.418-.222-.567.11-1.529.483M311.665 250.967l-15.513-25.028-3.37-5.629-1.513-3.426-4.393-10.319M369.325 190.184l-.722.037-2.42.333-.737.186-2.321.433h-1.557l-1.982-.223-.722-.099h-1.331l-.765.062-.82.111-.737.16-6.583 2.264-9.91 2.967-.693.223-.58.42-.1.668.227.618.014.643-.312.618-.58.396-1.359.42-2.506.73-.693.26-.75.073-.765-.061-.722-.223-.651-.309-1.133-.779-.934-.717-.651-.272-.765.087-.765.173-.721.21-1.487.457-4.487.94-5.96 1.224-3.653.52-.779.098-3.425.445-.807.112-5.521.779-.765.074-.75.148-.75.037h-1.954l-.75.012-.75.087-.695.297-.608.37-.637.347-.637.358-1.345.36-1.643.307M369.325 190.184l-.396.89-.24.618-.284.593-.368.581-.297.495-.453.569-1.345.94-.623.37-2.605 1.422-.552.433-.439.57-.311.58-.27.618-.212.668-.226.655-.226.619-.34.593-.779 1.681-.028.643.099.668.382.557.594.506.666.359.608.445.539.507.198.321.297.594.425.606.41.556.355.606.254.643.425 1.249.198.704.51 2.622.127.655.765 2.621.198.63 1.43 4.625.17.63.042.668-.014.655-.283.606-2.662 3.994-.467.519-.283.606.085.667.467.544 1.118.742 2.124 1.138.665.296.623.359.595.445.198.667-.425.544-.68.223-.735-.025-.722-.21-.637-.383-.666-.31-1.416-.382-2.364-.483-.694-.185-.707-.248-1.43-.543-.694-.235-.722-.198-.722.05-.679.296-.566.408-1.232 1.595-2.138 3.301-.41.556-.44.557-2.916 3.783-2.307 3.276-.482.495-.594.408-.693.309-.751.136-1.84-.013-1.798-.235-.736-.136-2.18-.185-.736-.099-3.696-.359h-1.514l-1.912-.11-.722-.174h-1.486l-.793.111-.75.124-5.649 1.916-.735.223-.709.173-2.18.532-1.77-.025-.707-.111-.736-.272-.722-.05-.68.235-.467.52-.184.435M353.597 378.487l-4.267 1.668-14.751 5.958-5.464 2.546-1.869.519-2.748.007-4.076-1.416-22.31-9.666-27.748-27.341-10.306-5.933-1.812-.297M233.953 353.184l1.19-.247 21.178-8.108 1.925-.297M178.052 174.32l12.863 24.375 8.068 15.234 14.39 27.166.145 2.538-.29 1.968 23.692 25.07 11.555 11.931 1.527 1.904-.655 2.666-1.38 4.188 1.017 3.047 2.326 3.11 2.616 21.45-.145 5.647 3.343 15.865 1.122 4.053M212.626 346.614l19.43 6.2 1.897.37M246.367 501.836l1.296-5.685-1.02-4.646-4.19-4.3.057-1.285 21.461-30.5 2.436-2.522-.114-2.224-.793-2.373.17-2.62-6.342-36.286-23.443-29.664-3.398-8.01 2.265-3.856-.906-11.57.107-3.11M397.028 356.423l5.006.192M397.028 356.423l-.475-.018M397.028 356.423l.127-1.716M397.028 356.423l-.183 3.597M403.266 356.597l-1.232.018M403.266 356.597l1.246 2.763M405.029 360.256l-.517-.896M409.87 368.729l-1.727-.445M409.87 368.729l-.12.396M409.87 368.729l4.686 1.168M409.75 369.125l-1.409 5.018M409.75 369.125l-1.706-.433M385.075 369.365l-.397 8.604M385.075 369.365l-8.585 2.466M376.49 371.83l-.606-1.596M376.49 371.83l1.839 5.879M376.49 371.83l-6.767 1.825M408.341 374.143l-1.401 4.419M408.341 374.143l4.686 1.137M402.268 376.312l1.918-3.071.241-.08 3.914.982M369.723 373.655l-2.838.765-1.184.137M358.835 376.473l4.693-1.632 2.173-.284M367.096 379.575l-.268-.644-1.127-4.374M390.13 374.692l.105 3.45M390.13 374.692l2.477.278M392.607 374.97l.374.502M413.027 375.28l-1.642 5.395M402.268 376.312l4.672 2.25M403.5 384.186l-4.23-2.077-.103-.204.052-.186 3.049-5.407M358.835 376.473l2.463 4.783M358.835 376.473l-5.238 2.014M378.329 377.709l-7.114.587M378.329 377.709l-.481 4.252M378.329 377.709l6.35.26M384.678 377.969l-.255 5.135M384.678 377.969l5.557.172M390.235 378.141l-.31.574-2.21 4.964M353.597 378.487l2.251 4.648M367.096 379.575l-.913.266-4.885 1.415M355.848 383.135l1.536-.507 3.914-1.372M384.423 383.104l3.292.575M377.848 381.96l2.33.568 4.245.576M387.715 383.679l-1.95 3.958M387.715 383.679l.467.148M378.775 402.472l-.848 1.217M378.775 402.472l.545-.538 1.553-3.187M380.422 398.594l-1.576 3.223-.071.655M350.971 430.453l6.187 1.879M357.158 432.332l-.8 3.33M357.158 432.332l3.652 1.125M350.66 433.864l5.698 1.799M364.64 434.575l-.723 3.276M364.64 434.575l-3.83-1.118M374.956 407.955l-.874 1.321-2.52 4.375-2.054 4.758-2.929 9.11-1.94 7.056M356.358 435.663l3.532 1.05M350.094 436.83l4.877 1.546.403-.08.283-.31.7-2.323M363.917 437.85l-4.027-1.137M240.947 525.615l5.42-23.78M268.439 545.942l-1.487-.766-4.58-1.68-3.143.075-2.831-.964-1.691-2.362-12.175-13.592-1.585-1.038M198.096 535.596l31.809-7.954 9.909-2.323 1.133.296M268.439 545.942l1.407 1.225M195.772 535.21l-47.389-14.105h-4.077l-2.888-2.274-14.78-4.25-6.541-.573-19.366-1.236M195.772 535.21 124.4 575.89M198.096 535.596l-.56.14-1.764-.525M104.025 453.111l24.003 17.651" clip-path="url(#p0b902adb75)" style="fill:none;stroke:#000"/><path d="m128.028 470.762 4.321 3.179 27.466 20.754 24.89 20.003 2.833 4.57 8.068 12.662 2.49 3.666M517.452 259.365l11.924 1.762M530.655 254.327l-.538.235-2.973 1.867-.962.358-2.308.222-1.345.347-5.077 2.009M435.068 197.466l.667-1.119 1.104-1.564 8.04-9.039 5.508-6.38.976-.754 1.218-.458 1.642-.383 6.285-.593 19.013-1.694.595-.247.269-.36V173.8l-.595-4.34-.156-2.41.071-.928 3.106-1.212 5.406 1.422 3.193.398 3.387-.967 1.173-1.65-2.41-5.974 2.8-3.984 4.496-2.844 3.648.17 5.537 1.878 3.062 1.365 1.89 2.96 5.927 3.357 5.342 1.479 3.453-.569 2.28 1.707 3.518 6.316M157.391 420.383l3.161 7.952-2.947 2.573-.053 1.123 7.77 6.455 4.393 3.977 4.273 3.706 3.057 3.663 2.05 3.72 5.333 12.066.586 1.022 2.862 1.136 37.337 19.647 2.341 1.249 1.497 1.42 17.316 11.744M128.028 470.762l16.61-20.862.054-.795-7.073-2.433.804-2.198M362.304 529.076l-.991-.704-1.912-.976-3.694-1.236-16.17-4.371-6.255-3.276-3.336-2.001-9.59-8.098-3.57-2.48M397.823 544.324l-1.217-1.31-1.176-1.63-.948-1.446-.821-1-4.12-3.016-1.699-1.001-.807-.185-4.558-.668-2.661-.74-.75-.05-5.267.222-1.104-.296-5.805-2.917-1.302-.37-1.6-.42-1.684-.42" clip-path="url(#p0b902adb75)" style="fill:none;stroke:#000"/><path d="m471.989 557.026-5.022-1.76-15.239 1.498-7.125 1.086-2.709 2.241.157 2.593-2.815 4.185-4.116 2.547-6.984-.136-10.32-2.002-17.354-.818-2.763-1.547-11.153-6.368-14.593-3.366-7.192-15.558 1.564-5.368-2.19-1.546-1.831-3.63M359.288 438.53l.602-1.817M359.89 436.713l.92-3.256M367.096 379.575l4.12-1.28M377.848 381.96l-4.948.198-3.801 1.52-.354-.098-1.65-4.005M402.034 356.615l-.056 2.609.113.117 2.421.019M410.22 387.196l-2.166-.933M403.5 384.186l3.44-5.624M403.5 384.186l4.554 2.077M406.94 378.562l4.445 2.113M408.054 386.263l3.331-5.588M411.385 380.675l.808.39M374.956 407.955l-11.166-9.308-.821-1.026-7.12-14.486M374.956 407.955l2.971-4.266M371.215 378.296l-1.492-4.641M369.723 373.655l-.639-1.916M408.143 368.284l-.099.408M403.372 365.41l.014.445.142.136.566.124.708.012.736-.062.78.075.905.284.722.531.269.582-.07.747M408.143 368.284l-4.92-1.193-.863-.167M396.51 366.612l.329.025M396.51 366.612l-.028-.336M396.839 366.637l.752.12 4.67.587M396.232 362.672l-.01 1.014.26 2.59M396.708 362.685l-.476-.013M396.708 362.685l.137-2.665M396.232 362.672l.137-2.663M396.845 360.02l-.476-.011M396.369 360.009l.184-3.604M397.155 354.707l-.46-.03M396.695 354.676l-.142 1.73M396.695 354.676l.19-2.194M402.26 367.344l.1-.42M402.26 367.344l.751.143 5.033 1.205M385.765 387.637l-1.66 3.424M377.741 393.171l-3.85-1.539-.177-.216.078-.37 2.796-2.67 2.959-2.64.254-.074.29.031 5.674 1.944M384.556 391.193l-.45-.132M384.556 391.193l-1.83 3.79M384.106 391.06l-1.851 3.75M382.725 394.982l-.47-.172M382.725 394.982l-1.852 3.765M382.255 394.81l-1.833 3.784M382.255 394.81l-4.514-1.639M380.873 398.747l-.451-.153M637.27 423.18l-2.323-4.078-.934-1.162-1.104-1.013-2.492-3.165-9.548-13.356M377.741 393.171l-2.725 5.401-.68 1.607-.027.272.268.322 3.35 2.916M529.376 261.127l.416-1.867.566-2.609.297-2.324M433.965 197.692l.41.015.319-.074.374-.167M487.491 291.736l-.318-.507-.078-.426.212-.668.022-.525-.164-.42-.948-1.657-1.076-1.459-.736-.321-1.5-.247-4.304-.693-5.182-.667-5.832-.791-3.256-.322-.906-.074-1.19.124-2.18.321-9.456 1.41-5.535.506-2.421.186-1.7.247-1.188.52-5.146 2.533-.8.081-.764-.34-1.6-1.484M428.205 290.487l1.187-.271.496-.445 1.557-2.708" clip-path="url(#p0b902adb75)" style="fill:none;stroke:#000"/></g><path id="PatchCollection_1" d="m-131.812 302.077-.161-4.814.435-3.637-2.124-4.185-2.427-1.768.595-3.063 2.137-1.72.928-3.233.26-8.33-.689-9.298-1.888-1.585 2.113-.955.465-5.257 1.441-10.436-1.427-6.596-2.487-12.115-2.403-4.559-4.842-9.538-2.353-5.878-1.168-5.165-1.525-2.598-1.697-1.2 2.517-7.283 1.087.76 1.6-.538 1.368-1.196 3.363-6.462-.438-.408 10.167-18.28 2.366-2.02 2.739-1.547.7-1.04 3.227-1.069.564-1.347.715-1.48 2 .21 3.406-1.592 1.91-1.953.832-1.165 1.16.117 2.043-1.074 2.016-2.482 2.977-1.742.263-1.435 2.645-1.67.72-.87 1.192-2.356.42-1.731 1.285-2.374 1.082.092-.427 1.257.495 1.226-1.34 7.01-.957 1.322.876.318 1.606-.582 1.2 1.027 2.164 1.462 8.116 1.975 7.016 3.426 5.835 2.578 3.375.312 3.292-1.944 1.974-.073 1.485 2.745 1.676.214 1.218-.346 1.97.411 2.271-.173 2.724-.634 2.792-1.78 1.303.418 3.414-.157 8.076-.59 1.903-2.696 1.95.027 2.01 4.594 3.25.01 2.494 2.191 6-1.164 3.918-2.983.664-2.428-.687-1.688.034-1.277.572-1.709-.769-1.346 1.402-1.733 2.495-1.32.3-.497-1.03 6.373.344 2.887-.051 3.306.283 2.136-.308.407-2.272 1.075-.817 1.461-1.922 2.156.209 1.396 1.553 1.245 4.6 2.235-.345 2.67.389 1.841.21 2.203.812.938 2.763 1.165.168 1.835 1.928.593 3.248-.174 21.292-7.513 1.673-1.736 1.25.705 4.45-.168 4.059-1.677 2.915-2.186 19.787-6.982 13.624-2.657 10.986 2.385 2.043-2.89.695-1.071-.181-2.095-1.645-2.351.75-1.27v-1.106l.305-2.089-1.395-16.108.08-6.094-3.104-4.971-4.41-2.932-13.677-18.62-5.045-5.729L34.72 73.87l-10.204-5.05-5.096-3.736-3.72-.98-4.185-2.116-5.375-2.35-8.323-2.558-7.464-2.424-7.968-4.386-1.638-2.395-2.1-2.652-2.241-.756 3.063-1.758.641-4.815 6.3-6.95 3.768-3.665 3.143-2.255 5.873-.303 10.039 1.62 1.295.027 1.639-1.474.796-2.003.297-1.96-.157-1.915-1.218-1.475-1.671-1.422-3.797-2.222-5.163-1.72L-3.495 11l-4.127-.666-5.128-.339-2.506.453-4.128.614-5.79-.332-4.642-.881-1.761-1.418-1.538-2.076-.877-1.56-2.067-.66 1.427-13.052.146-2.668-.6-1.925-1.48-4.25-2.23-2.492-2.083-1.178-1.46-1.758-3.819-1.067-2.51.506-2.146-.646-3.016-1.489-3.303.198-1.499 1.289-2.336 2.502-.659 2.244-.97 1.596-1.608 1.344-1.156.628-6.634 1.335-3.143.551-2.559.006-2.265.517-2.438 1.182-1.57 1.206-1.143.987-1.01-.197.568-.83-.222-1.16-1.113-1.123-3.277-1.532-2.03.075-1.876-.524-.802-1.28-1.35-.911-2.112-.809-4.503-1.665-2.394-.02-2.739 1.382.747-2.425-.717-.961-2.213-.996-6.576-.71-6.612-4.957-3.177-4.4-3.023-2.529-1.824-.228-1.068.814-.97 4.406-1.693-6.914 1.038-2.973.835-1.495-.179-1.835-1.074-1.254-4.692-4.199-3.939-2.294-1.024-2.917-.332-3.04 1.454-2.036 2.256-2.198 2.096-2.376 2.781-2.237 2.253-2.282 2.001-.985 2.236-1.631 3.226-2.28 2.986-1.564 3.265 1.81 1.101-.165 1.703 1.388 1.229-.44.034-.87.825-1.929.677.499.257 1.29 1.461 1.036 2.956.333 5.583-1.259 4.074-.938 11.739-6.08 4.242.254 7.152-1.636 9.42-4.066 3.062 1.513 5.592 2.89 1.668.885.874 1.103 5.505 2.172 1.984.058 2.04.024 4.785.083 1.403-.434.85-.76 1.32-1.422 1.926-2.6.413-.901-.465-1.729.76-6.1 2.541-5.461 1.885-3.129 1.896-1.805 4.122-3.343 1.859-1.543 1.682-.19 1.246.228 2.237-.473 2.527-.969.799-2.09 2.097-1.146 2.546-.32 5.402-2.35 1.572-1.143 3.664-3.12 1.16-1.307.98-.48 1.351-1.049 3.624-.803 1.931-.627 2.135-.993 2.965-2.49 1.07-1.083 1.195-1.29 2.68-.715 2.309-1.426.128-1 .874-1.854 4.686-3.45 1.116-.614.99-1.057-.03-.915-.301-.948 1.389-1.495 3.99-2.777 1.733-1.327 1.386-1.833 2.18-5.844.313-8.341.504-3.177 2.675-6.015.937-7.286-7.032-3.423-8.151-.135.852-3.395 8.729 1.821 9.304 5.25-1.174 7.238-1.802 6.67-.067 3.314-3.346 7.644-.283 2.66-.084 2.881 1.86 4.22-1.02 1.87-.744.389-5.328 3.85-2.751 1.536-7.117 5.018-.05.467-2.78 2.491-2.041 2.171-.707.38-1.528 1.572-2.77 1.216-2.835 1.607-.638.567-.826.527-1.287.496-2.65.678-2.202.891-.508.517-.659.432-.55.822-.997 1.188-3.14 1.796-1.047 1.825-2.584.968-3.048 2.936-5.313 2.682-1.745.55-1.326 1.334-1.37.267-2.811 1.335-4.623 3.111-.611.917-1.463 1.464-.94 1.52-.829.454-1.22 2.853-1.172 3.59-.066 1.208.343 3.308-2.112 3.587-.324 1.993-5.985 4.746-2.656.802-3.838-.683-10.192-.525-5.095-1.806-4.568-3.602-1.675-.186-2.53.206-2.11.432-1.794.826-1.111-.025-1.677 2.301-2.237.713-2.123.173-2.487.539-5.074 1.288-1.968.576-1.922-.04-1.184 1.322-8.604 2.196-5.984.911-2.231.379-1.421 1.173-1.303.811-1.497.255-2.446.03-5.106-2.689-3.07-.668-2.265.653-2.405 1.977-2.612 3.385-1.119 3.841-1.47 3.353-.024 1.439.811 1.136 1.524 1.03 3.424.001.519 1.212.116 3.071 5.758 6.437 1.836 2.978 8.435 5.126 3.792 1.09 10.282 7.343 7.018 1.714 5.928.756 4.425.19 3.848-2.032 2.424-.774 4.891-2.75 1.81-2.498 1.717.418 2.538-.575 3.925-2.62 1.952-1.018 2.109 1.643 8.311 1.279 8.26 1.243 3.08 1.61 2.83 2.368.796 1.277 1.758 2.217 1.026 1.975.658 3.62 2.446 1.988-.34 1.647.291 2.547.853 2.086-.127 3-.14 3.854.724 2.025.557.858 2.145.789 2.525.343 2.039-.29 1.687-.343 1.05-.91 2.541.224 2.64-1.32L-6.5.462l2.264 2.603 4.1 1.662L7.55 8.17l9.653 3.31 1.066 1.094-1.31 1.031.1.86 1.449 2.308.147 2.441 1.455 1.122.16 2.038-1.772 3.225-3.798 6.088-2.682 2.933-1.597.455-12.504-.98-7.289.98-1.714 9.226 2.99 3.948 26.434 7.938 29.671 19.052 8.595 7.338 14.951 16.97 8.8 9.42 2.639 5.278 6.297 7.414 2.497 18.999 1.834 4.451 1.195-.08 2.687-.862 4.453.606 2.91.96 2.766.75 1.167 2.429 1.177 1.979.242 1.29.41 2.76.738 1.47 1.118-.018.868-.169.834-.37.884-.742 1.29-.649 1.336-.23 2.172.216 1.34 1.463.743 1.876 1.45 1.754 5.935 4.258 5.657 5.444 1.195.402 1.569.193 1.477-.144 6.568-2.9 1.684-2.047.555.478-1.824 3.068-6.212 3.365-.344.912-.048 1.629-.207.751.103.856.75.5.79.003 1.498-.83 1.223.194.738.344 1.875.379-.703.849-2.014.432-.94-.164-1.63-.33-2.101-.446-.952-.404-1.017-1.138-.434-1.056-2.03-2.197-6.269-6.554-7.16-4.864-1.762-2.995-.733-.315-.75.203-2.386 1.313-3.24 2.044-1.053-.344-1.37-.876-.945-.895-.943-1.045-.596-1.689-.757-3.176-.734-.75-1.19-.535-2.502-.57-2.4-.734-1.1-.418-1.192-.085-1.092.485-.515.792-.676 1.218-.14 1.427.156 1.673.46 1.465.437 2.428.406.295.217.513-.821.689.203.927-.784 1.179-.646 1.639-.625 2.165-.707 4.307.153 2.787-.2.756-.605-.464-.792-3.469-.297-2.503-.615-1.023-1.148-.116-2.849.778-1.637.228-3.767-.505-6.94-1.732-2.534-1.701-2.356-.057-4.088.148-1.37-.209-2.808.497-2.786 1.378-1.88 1.286-2.36.449-1.947-.5-1.456.413-1.994.645-.521.654-9.866 4.662-2.115.178-2.716.954-3.964.906-6.672 1.827-3.694 1.19-2.622 1.253-1.302 1.254-1.327 1.7-.34 1.766-1.174 1.752-.33 1.376.21.894 1.54 1.442 1.316 1.08 1.591 1.343 1.583.798.846.177.949.31.882-.09 1.037.257.127.867-.394 2.057-.824-.217.001-1.86-.767-.013-2.166.022-1.536.135-.867-.094-1.454-.401-3.66-.042 1.4-1.459.033-1.082-.614-.437-1.094-.197-.45-.964-.675-1.734-.459-1.321-.062-1.281.421-1.132.307-1.153-.279-.623-.779-.224-1.478.196-2.52.85-1.657 1.17-2.277 1.461-1.286.367-1.605.24-1.311.018-1.236.387-.79.563-.861.326-.197-.666-.78-1.845-4.286-1.276-4.242-2.16-3.896-4.452-1.457-5.529-2.419-3.043-5.923-1.876.441-2.097-1.182-1.827-2.95-.748-4.455-.075-8.514 2.999-4.266-.174-2.895.585-4.609.207-3.198-1.765-5.113-.629-3.446 3.163-.743-4.24-1.614-.757-4.499-1.422-3.584-.187-.788.424-1.34-2.263-4.844-1.932-3.86-.644-1.748.242-1.875-1.021-2.844-.235-1.803.367-2.453 1.241-2.432.031-9.527 5.64-7.809 5.78-10.716 19.373.314 5.087-1.362 3.281.459 3.93 2.211 5.062-.327 2.408 2.234 1.956 2.094 4.794-.307 1.733 3.194 6.328.93.622.19 1.055 1.28-.736.826.93-2.053 3.71 1.602 5.3 1.034 12.846 1.074 1.85-.763 2.016-.41 5.062-.14 3.593-.721 7.09 1.617.995-1.841 1.21-.416 4.089-1.359 11.403.011 5.355 1.816 2.794 3.068.058-2.176 1.313.679 4.326 2.718 7.907 3.2 6.24 3.142 4.524 3.496 7.167.549 2.788 1.33 2.309 2.765 1.092 3.403.014 2.922-1.51 1.853-2.455-.363-3.101-1.566-2.358-1.933-1.95-.258-.94 1.693-1.23 1.2-1.367.155-3.626.76.697 2.107 1.067 2.504.826 2.71-.705 1.456-1.316-.277-4.75-.588-.863 1.078-.572.214-2.678 1.219-.496 1.875-.92.976-2.211.06-1.924 2.106-3.587 4.745-1.878 1.04-.54 2.376-.318 1.265-1.965.101 1.764-1.67 1.952-2.783.94-1.354 2.473-1.837 1.218.094 1.4.773 1.57-.414 2.812-.754 1.552-.676 1.78.947 1.517 1.964.525 6.437-.704 2.89-1.655 2.002 1.12 2.904-.077 4.269.08 3.257-1.454 2.34 1.557 2.464.155 1.26 1.61 2.77.444.599 1.155.779.678 1.88.327 1.906-.8 1.705.261-1.439 2.104-.473.957.373 1.317 5.002 3.165-.347 1.396-1.295.55-1.287 1.35-.142 2.273.515 10.946-1.133 5.537.68 6.33-.234 1.761-.35 8.374-1.536 2.215.278 2.004-.76 2.546-1.28-.154-1.508-.731-1.344.25-2.221 2.803-3.701 2.341-3.289 1.59-8.028-7.782 2.211-1.225 3.773-1.44 2.031-2.074 1.433-2.848-1.086-11.006 1.084-1.623-.365-1.795-.976-1.616 1.132-1.203.313-5.657-.756-1.031-.214-.943.26-1.412-1.319-2.518-2.008-1.924-3.312-.777-2.409.01-2.298.607-3.588 1.409-3.976 2.947-2.273.617-3.896 4.105-1.518 1.415-1.565.723-1.65 1.901-1.57.391-1.728.939-2.061.293-3.824 1.644-5.913-.22-5.723.774h-2.64l-1.41-1.254-2.564-1.034-2.275-2.896-2-1.26-.543-2.954-4.096-4.78-1.849-1.049-4.414 1.156.654-2.857.547-1.632-.19-.89-2.468-1.426 1.686-2.21-.234-2.125-1.713-2.43-1.198-2.364-2.195-1.679-2.405.798-1.706 1.722-4.738 1.79-5.66-.565-1.678 1.37-1.414-.83-.66-3.314-2.513-2.398-3.167 1.29-.641 1.08-1.382-.426-2.535 1.282-4.546-2.803-4.5-.127-2.006 2.467-1.309-.284-.482-2.626-3.717-.435-5.365 1.1-2.905-1.757 3.618.114 17.88-2.459 5.023 1.891 2.912-5.03 5.264 1.31 3.952 4.037 4.912-.112z" clip-path="url(#p0b902adb75)" style="fill:#00f;fill-opacity:.8"/><path id="PatchCollection_2" d="m390.434 375.168.29-.16 1.735.196.248.291-1.544 2.009-.403-.08z" clip-path="url(#p0b902adb75)" style="fill:green;fill-opacity:.8"/><g id="PatchCollection_3"><path d="m377.879 372.828 5.511-1.49 1.062 2.993-5.512 1.49zM447.772 404.61l.676-1.226 2.423 1.02-.677 1.226zM357.993 435.268l-.894-.186.354-1.298.894.186zM267.312 574.727l-.304-1.236.852-.16.304 1.236z" clip-path="url(#p0b902adb75)" style="fill:#90ee90;fill-opacity:.8"/></g><g id="PathCollection_1"><defs><path id="m3f6662177f" d="M0 3a3 3 0 1 0 0-6 3 3 0 0 0 0 6z" style="stroke:#90ee90;stroke-opacity:.8"/></defs><g clip-path="url(#p0b902adb75)"><use xlink:href="#m3f6662177f" x="447.286" y="397.25" style="fill:#90ee90;fill-opacity:.8;stroke:#90ee90;stroke-opacity:.8"/><use xlink:href="#m3f6662177f" x="264.537" y="541.05" style="fill:#90ee90;fill-opacity:.8;stroke:#90ee90;stroke-opacity:.8"/></g></g><path id="PatchCollection_4" d="m404.737 368.324-.667 2.01 1.411.356.667-2.01z" clip-path="url(#p0b902adb75)" style="fill:#006400;fill-opacity:.8"/><g id="PatchCollection_5"><path d="m376.475 399.03 2.478 1.037-.51.928-2.478-1.037zM407.21 369.343l.79.217-.379 1.046-.79-.218zM270.251 574.219l.133.545-1.133.21-.132-.545zM400.443 353.037l-.002 1.351-1.203-.002.001-.697h.52v-.652zM397.702 354.421l.02-.863 1.444.025-.02.863zM400.762 354.106l-.314-.002.004-.405.314.002zM401.09 353.024l.59.114-.114.445-.487-.093.046-.183-.102-.02z" clip-path="url(#p0b902adb75)" style="fill:#a9a9a9;fill-opacity:.8"/><path d="m400.474 354.524-.165-.019.024-.17.166.019zM401.896 353.97l-.017.348.066.003-.01.21-.45-.015.008-.152-.053-.002.008-.169-.047-.001.011-.24zM401.227 355.523l.47.006.003-.218h.063l.002-.148.581.007-.007.521.1.001-.005.297-.176.112-.266-.003-.177-.152-.594-.007zM400.41 355.957l.056-.652.426.028-.056.653zM400.111 355.346l-.028.255-.098-.008-.009.078.137.012-.035.31-.377-.032.006-.056-.085-.007.017-.156-.106-.009.026-.231.143.012.015-.135.15.013.007-.066zM398.531 355.645l-.154-.002-.012.505-.747-.013-.146-.152.022-.914 1.05.018zM399.408 355.749l-.42-.01.015-.46.121.003.004-.115.299.007zM403.988 356.505l-.167-.454.705-.197.166.453zM404.222 357.147l-.188-.553.457-.119.188.554zM404.8 357.997l.469-.166.053.113.129-.046.142.308-.185.066.03.064-.45.16-.044-.096-.11.038-.13-.281.145-.052zM405.573 357.895l-.118-.284.273-.086.118.283zM405.149 359.029l-.184-.467.62-.185.183.467zM404.791 358.853l-.095-.176.11-.046.095.176zM402.469 357.493l.012-.424.263.006.003-.112.215.004-.015.536zM400.817 357.907l.035-.853.479.015-.035.853zM398.127 357.87l-.509-.02.005-.094-.055.022-.124-.223.194-.09.037-.74.509.02-.004.08.138-.005v.395l-.158.006zM398.857 358.584l.087-1.234 1.405.076-.056.786-.414-.023-.031.448z" clip-path="url(#p0b902adb75)" style="fill:#a9a9a9;fill-opacity:.8"/><path d="m397.462 357.986.878.047.019-.259.553.03-.024.336-.255-.014-.02.294-.229-.012-.012.181-.328-.017.005-.075-.33-.017-.006.1-.378-.02.027-.382.086.004zM398.778 359.533l.254-.466 1.31.544-.254.466zM398.424 361.59l-.87-.308.123-.266.87.31zM400.435 361.17l-.588-.315.153-.216.587.315zM399.907 361.797l-1.468-.551.496-1.007.637.24-.39.792.83.313zM400.52 362.932l-.756-.226.375-.958.756.226zM399.557 363.698l.531-.71.475.27-.119.11.628.3-.036.197.125.082-.19.255-.576-.026zM398.545 364.087l-1.451-.321.234-.807 1.452.321zM399.04 364.087l-.332-.043.048-.284.333.043zM398.495 364.248l-.087.398-.63-.105.087-.398zM399.448 365.882l-1.682-.325.025-.101-.239-.046.134-.527.243.047.027-.107.376.073.054-.212 1.302.251zM399.672 365.754l.29-.94.635.148-.165.537-.159-.038-.124.405zM401.993 364.869l.122-.468.572.113-.034.13.246.049-.088.338z" clip-path="url(#p0b902adb75)" style="fill:#a9a9a9;fill-opacity:.8"/><path d="m402.399 365.4-.922-.183.113-.429.92.183zM402.678 365.456l-.128.49-.972-.193.128-.49zM404.094 365.688l.347-1.57.896.152-.347 1.57zM406.996 364.502l-.46-.26.28-.38.461.26zM404.993 366.8l-.392-.103.135-.389.391.103zM407.237 366.146l-.793-.476.715-.909.793.476zM408.736 366.752l.357.077-.03.109.423.091-.17.598-.458-.099.1-.35-.323-.07zM410.007 366.459l.713.162-.376 1.259-.421-.096.25-.833-.293-.067zM411.675 367.209l-.516-.124.136-.436.517.124zM411.797 367.69l-.376-.082-.122.431-.58-.126.22-.776.955.206zM413.098 367.629l-.22.773-.467-.102.219-.772zM413.162 368.45l.18-.616.637.142-.18.617zM402.952 368.138l1.351.355-.462 1.343-.444-.116.137-.398-.5-.131.036-.106-.407-.107zM401.11 368.02l.197.027.027-.154.384.053-.024.135.187.026.04-.224.383.053-.106.589-.186-.026-.033.18-.785-.108.058-.317-.18-.024zM401.178 369.05l-.303-.037.057-.346.302.037zM400.414 369.087l-1.05-.245.319-1.038 1.049.245zM398.686 372.96l-.194-.078.11-.214.195.077zM398.927 373.908l-.719-.383.301-.43.719.383zM400.556 373.84l.41.224-.261.368-.13-.07-.121.17-.159-.085-.061.086-.378-.205.32-.449.254.138z" clip-path="url(#p0b902adb75)" style="fill:#a9a9a9;fill-opacity:.8"/><path d="m400.452 373.868-.247-.117.138-.222.247.116zM401.369 373.951l-.163-.062.086-.17.162.06zM401.22 375.027l-.38-.175.39-.649.38.175zM401.955 374.014l.723.331-.21.351-.049-.022-.053.089-.133-.061.03-.048-.154-.07-.028.047-.203-.093.074-.123-.187-.085zM402.735 374.285l-.44-.213.29-.458.44.213zM401.758 372.802l-.516-.253.227-.352.516.252zM402.544 373.024l-.609-.29.164-.262.609.29zM403.16 373.63l-.68-.315.239-.393.68.315zM407.575 373.245l.132-.442.164.037.24-.8-1.035-.236-.085.287.25.057-.02.072-.526-.119-.164.547.318.072.034-.114.259.059-.135.451zM405.829 372.69l-.621-.153.31-.959.622.154-.123.377.112.028-.107.332-.112-.028zM404.632 368.006l1.642.462-.771 2.09-1.642-.463zM410.62 370.958l-.237-.037-.023.115-.45-.068.026-.13-.312-.049.056-.28.231.036.03-.145-.154-.023.067-.33 1.08.165-.066.329-.16-.024zM410.44 371.751l-1.087-.213.142-.552 1.087.214zM409.814 372.362l-.657-.13.1-.385.339.067.054-.209.508.101-.06.23-.19-.038zM408.98 372.988l.568.104.037-.153.237.043.026-.107.11.02.104-.426-.427-.079-.032.136-.19-.034-.053.219-.3-.055zM410.267 373.74l-.977-.19.103-.402.977.191zM412.74 370.543l-.044.172.194.038-.165.644.588.114-.193.755-.171-.034-.029.111-.558-.108.022-.088-.881-.171-.023.089-.483-.094.022-.089-.146-.029.209-.816.691.135.145-.565.11.021.055-.212zM377.67 411.191l.188-.408.495.174-.187.408zM377.33 409.85l-.611-.212.304-.668.612.213zM377.048 408.275l-.512-.208.517-.97.512.208zM378.41 405.11l-.212.352.603.275.21-.353zM378.493 404.413l.62.282-.346.577-.619-.282zM382.406 398.672l-.495-.186.094-.192.495.186zM382.092 397.262l.958.399-.23.422-.246-.102-.035.065-.713-.297zM383.513 396.76l-.538-.188.113-.245-.44-.154-.126.274.091.032-.212.461.594.208.075-.164.294.103zM383.797 396.926l-.173-.058.124-.282.173.058zM382.94 395.542l.787.265-.101.23-.106-.036-.048.11.106.036-.08.181-.106-.035-.023.05-.412-.139.07-.16-.152-.052.088-.2-.116-.039zM384.259 394.258l.592.202-.1.221-.259-.089-.236.525-.997-.342.222-.493.348.119.048-.109.317.11zM385.096 394.061l-.21-.068.095-.225.21.068zM385.882 392.09l-.196-.066.093-.208.195.067zM383.769 393.473l.831.254-.132.331-.26-.08-.065.166-.573-.176zM385.015 393.685l-.584-.197.042-.093-.497-.168.095-.215.494.167.066-.148.586.198zM384.54 392.317l.762.245-.176.416-.118-.038-.045.106-.644-.207zM385.485 392.522l-.693-.216.143-.35.694.216zM385.393 391.917l-.368-.136.131-.27.368.136zM385.261 390.558l.168-.437 1.147.336-.169.437zM385.57 390.075l.163-.388.502.161-.162.388zM386.016 389.222l.9.26-.15.39-.898-.259zM387.46 388.926l-.182-.066.085-.18.182.066zM386.275 388.653l.507.164.03-.069.37.12-.15.35-.281-.09-.053.124-.595-.192zM386.78 388.536l-.48-.185.147-.292.481.185zM387.68 387.343l.013-.188.384.02-.013.189zM387.333 387.325l.013-.19.347.02-.014.188zM386.957 387.065v-.259h.446v.26zM388.557 387.065l.016-.332.517.019-.016.332zM388.72 387.634l.034-.362.432.03-.034.363zM396.592 375.44l-1.526-.753-.184.284-.365-.18.704-1.087 1.89.934zM394.531 378.864l1.09.433-.36.624-.377.4-.327-.197.094-.564-.3-.35z" clip-path="url(#p0b902adb75)" style="fill:#a9a9a9;fill-opacity:.8"/><path d="m394.008 380.2-.45-.2.439-.754.45.2zM394.276 378.677l-1.072-.537 1.019-1.548-.126-.063.436-.663 1.197.6z" clip-path="url(#p0b902adb75)" style="fill:#a9a9a9;fill-opacity:.8"/><path d="m391.297 383.205-1.325-.664 2.978-4.529 1.326.665zM392.4 386.213l-3.61-1.051.518-1.353 3.61 1.05zM393.604 384.08l-.493-.249.546-.821.492.249zM394.919 380.802l.65.348-.257.365-.388-.208-.114.162-.381-.204.173-.246.12.064zM397.03 378.466l-.51-.282.146-.2.51.28zM397.34 378.035l-.642-.365.323-.433.326.185-.064.086.315.179zM397.724 377.61l-.651-.39.276-.351.651.389zM398.05 377.184l-.645-.39.25-.316.645.389zM398.984 375.892l-.23-.152.178-.204.229.152zM398.351 376.59l-.544-.316.564-.742.292.17-.096.125.253.146zM399.146 375.453l-.764-.321.213-.387.765.322zM399.84 376.213l-.573-.277.326-.513.573.277zM400.963 376.008l-.4.601-.196-.1.077-.115-.36-.183.323-.485zM401.339 376.873l-.198-.094-.088.14-.387-.183.27-.435.15.072.106-.171.436.206zM400.937 380.527l-.38-.181.303-.488.382.18zM401.707 378.365l.547.294-.246.348-.437-.236.092-.131-.109-.059zM402.254 378.147l-.34-.172.233-.352.34.172zM403.947 374.817l.315.152-.154.243-.149-.072-.168.266-.462-.223.13-.206.102.05.11-.175.194.094zM404.61 375.064l-.693-.34.204-.318.694.34zM405.356 374.176l-.288-.062-.028.097-.378-.082.126-.442.128.027.074-.258.348.075-.025.09.189.042zM436.322 385.354l-.828-.242.17-.448.83.24zM435.19 386.237l.12-.494.905.166-.12.495zM434.906 387.64l-.545-.074.081-.454.546.074zM436.775 387.64l-.687-.099.102-.539.687.1zM438.226 386.732l-.777-.078.107-.804.776.078zM444.526 385.749l-.418-.222.246-.352.417.223zM450.939 395.44l-.095-.103.269-.191.095.102zM450.224 395.68l-.16-.174.58-.408.16.174zM447.024 395.791l-.099-.086.128-.111.099.086zM443.514 397.43l-.23-.331.432-.229.23.33zM443.761 399.505l-.155-.193.283-.173.155.194zM446.14 399.073l-.198-.228.212-.141.198.229zM447.003 398.869l-.122-.177 1.21-.636.123.176zM447.474 403.67l.286.13-.253.427-.286-.13z" clip-path="url(#p0b902adb75)" style="fill:#a9a9a9;fill-opacity:.8"/><path d="m447.76 403.8-.476-.215.39-.655.476.216zM452.822 400.847l-2.223-.927.913-1.67 2.223.928zM405.191 331.844l-.602-.273.382-.643.602.273zM391.16 374.07l-.321.01-.004-.122-.196.005.012.327-.357.01-.04-1.1.306-.007.008.216.567-.015zM392.743 374.327l.047.07.453-.21-.028-.075.113-.05-.05-.117-.714-.612-.254.122.42.722-.065.014z" clip-path="url(#p0b902adb75)" style="fill:#a9a9a9;fill-opacity:.8"/><path d="m392.07 373.15.673 1.177-.337.147-.064-.112-.24.105-.037-.063-.218.095-.573-1.002zM393.254 372.663l.612.336-.266.37-.446-.245.127-.178-.165-.09zM394.191 373.16l-.573-.39.306-.342.574.39zM395.255 371.158l-.668 1.377-.49-.182.058-.118-.336-.124.179-.368.066.025.299-.616.186.068.133-.274zM395.409 370.738l-.814-.167.145-.539.814.167zM394.58 369.891l.022-.451.267.01-.022.45zM395.65 369.81l-.708-.024.025-.547.708.025zM394.99 368.544l-.077.512.385.044.036-.235.533.061.06-.404-.598-.069-.02.128zM394.425 369l-.085-.42.407-.062.085.42zM394.998 368.142l-.537.05-.018-.151.537-.05zM395.402 368.377l-.045-.478.771-.056.046.478zM394.842 367.2l.015.43.14-.003.01.226.79-.022-.017-.475-.512.014-.007-.182zM394.208 368.073l-.276-.698.475-.143.226.572-.28.084.049.127zM392.422 368.488l-.205-.451.48-.166.204.45zM391.105 368.957l-.162-.5.512-.127.163.5zM389.916 370.063l-.119-.304.576-.171.163.418-.575.171z" clip-path="url(#p0b902adb75)" style="fill:#a9a9a9;fill-opacity:.8"/><path d="m389.467 370.197-.119-.304.45-.134.118.304zM388.653 369.778l-.074-.211-.09.023-.125-.357.46-.123.023.066.377-.1.116.332-.289.077.06.171zM388.104 369.505l-.074-.194.213-.062.073.194zM394.73 353.927l-1.168-.056.049-.79 1.168.056zM396.28 355.212l-.737-.031.057-.995.736.032zM391.535 359.08l.09-1.532 1.025.045-.017.29.157.008-.028.48-.155-.007-.044.762zM395.732 360.381l-.264-.016.01-.124-.135-.008-.008.099-.26-.016.008-.105-.123-.008-.02.252-.332-.021.023-.278.117.007.027-.34.997.062zM395.617 361.19l-.326.016.018.281-.702.035-.025-.378.14-.007-.028-.44.888-.043zM394.947 361.685l.723-.021.02.525-.386.012.007.183-.336.01zM394.071 363.513l-.042-1.119.7-.02.011.288-.104.002.03.832zM394.783 365.188l-.333.003-.005-.398.333-.004zM395.36 363.847l.078.877-.674.046-.043-.484.188-.013-.012-.14-.12.01-.023-.256zM392.507 365.2l.014-.723.425.006-.014.723zM389.442 366.634l-.07-1.014.832-.044.07 1.014zM387.933 365.778l.652-.006.011.962-.355.004-.002-.093-.296.002zM386.568 367.079l-.34-1.211.906-.194.34 1.211zM380.052 370.331l-.142-.413-1.047.274-.148-.43 1.053-.276-.1-.291-1.063.279-.147-.428 1.068-.28-.085-.247-1.077.283-.153-.444 1.083-.284-.075-.218-1.092.287-.15-.435 2.66-.697.149.435-1.286.337.078.23 1.285-.338.15.435-1.292.338.091.266 1.291-.338.146.424-1.299.34.098.284 1.297-.34.142.414-1.305.342.144.42zM376.701 370.682l-.353-.997 1.558-.42.352.997zM364.922 372.334l.54-.162.04.103.335-.1.245.624-.554.166-.103-.262-.32.095zM364.363 371.621l-.162-.414.41-.123.162.414zM364.193 373.434l.747-.283-.306-.616-.103.04-.183-.367-.419.158.169.339-.225.085zM360.748 373.492l-.295-1.198.106-.02-.154-.628.714-.134.154.623.161-.03.297 1.203zM362.261 374.297l-.382-.964.682-.206.382.964zM315.098 388.08l-.518 1.052-1.24-.466-.138.279-.82-.307.657-1.332zM316.115 389.145l.188-.542.745.197.028-.08.509.136-.251.724-.756-.2-.091.263-.961-.254.127-.366zM314.44 389.624l-.573-.26.166-.281.574.26zM313.937 391.1l-.679-.215.172-.412.679.217zM320.338 389.883l.104-.01.084-.053.043-.083-.011-.09-.061-.075-.095-.037-.104.01-.085.053-.042.083.01.09.061.075zM320.205 390.27l.104-.009.084-.053.043-.084-.01-.09-.062-.074-.095-.037-.104.01-.085.053-.042.083.01.09.062.075zM320.117 390.648l.104-.01.084-.052.042-.084-.01-.09-.061-.074-.095-.037-.104.01-.085.052-.043.084.011.09.061.074zM322.955 391.385l-2.676-.593.345-1.184 2.675.593zM320.715 390.987l2.196.48-.313 1.092-1.836-.401.078-.273-.36-.079zM326.523 391.354l.69.02.368.274-.05.423-.205.022v-.108l-.089-.007-.01-.197-.138-.071-.566-.043zM324.447 392.144l1.967.01.004-.658-1.095-.005v.118l-.467-.003v.126l-.406-.002zM325.78 393.11l-.645-.032.043-.667.644.03zM329.361 392.516l-.595-.111.105-.424.594.11zM346.364 382.457l-.75.233-.115-.282.75-.233z" clip-path="url(#p0b902adb75)" style="fill:#a9a9a9;fill-opacity:.8"/><path d="m346.888 382.294-.524.163-.115-.282.205-.064-.058-.143.142-.044-.033-.082.176-.056zM347.684 382.046l-.796.248-.207-.508.347-.108.035.085.213-.066.032.08.236-.075zM346.919 384.192l.073-.086.03-.103-.016-.106-.062-.091-.098-.065-.119-.026-.12.015-.106.054-.073.085-.031.103.017.106.063.092.097.064.119.027.12-.015zM347.655 383.932l.074-.085.03-.103-.017-.106-.062-.092-.098-.064-.118-.027-.121.015-.106.054-.073.086-.03.103.017.106.061.092.098.064.119.026.12-.014zM348.356 383.654l.073-.085.03-.103-.016-.106-.063-.092-.097-.064-.118-.027-.122.015-.105.054-.073.086-.03.103.016.106.062.091.098.065.118.026.122-.015zM349.092 383.456l.073-.085.03-.103-.016-.106-.062-.092-.098-.064-.118-.027-.122.015-.105.055-.073.085-.03.103.016.106.063.091.097.065.118.026.121-.015zM349.326 384.105l.073-.085.03-.104-.017-.105-.062-.092-.098-.064-.118-.027-.12.015-.106.054-.074.086-.03.103.017.106.062.092.098.064.118.026.121-.014zM348.59 384.383l.073-.085.03-.103-.017-.106-.062-.092-.097-.064-.12-.027-.12.015-.105.054-.074.086-.03.103.017.106.062.092.098.064.118.027.12-.016zM347.903 384.532l.073-.086.03-.103-.016-.106-.062-.092-.098-.064-.119-.026-.12.014-.106.055-.074.085-.03.103.017.106.062.092.098.064.118.027.121-.015zM347.142 384.785l.073-.085.03-.104-.016-.105-.063-.092-.097-.065-.118-.026-.122.015-.105.054-.073.086-.03.103.016.106.062.091.098.064.118.027.122-.015zM350.66 383.086l.098-.045.06-.082.005-.096-.052-.086-.093-.052-.11-.004-.099.044-.06.082-.004.096.05.086.094.052zM349.44 382.611l.648-.182.49 1.332-.687.193.157.426-.379.106-.576-1.563.419-.118zM351.314 382.586l.303-.088.157.41-.304.088z" clip-path="url(#p0b902adb75)" style="fill:#a9a9a9;fill-opacity:.8"/><path d="m350.929 382.35.637-.185.12.313-.638.185zM351.538 384.886l-.432.145-.235-.538.431-.144z" clip-path="url(#p0b902adb75)" style="fill:#a9a9a9;fill-opacity:.8"/><path d="m352.064 383.42.115.26.058-.019.304.694.256.087.222.505-.963.322-.107-.244-.306.102-.479-1.093.674-.225-.12-.274zM348.132 387.285l.107.334-.699.17-.213-.67.403-.098.107.336z" clip-path="url(#p0b902adb75)" style="fill:#a9a9a9;fill-opacity:.8"/><path d="m349.429 386.97-1.592.387-.321-1.007 1.592-.386zM352.84 383.314l-.233-.568.624-.196.234.568zM353.569 381.646l.46-.148.193.461-.46.147z" clip-path="url(#p0b902adb75)" style="fill:#a9a9a9;fill-opacity:.8"/><path d="m353.569 381.646-.241-.575.46-.147.241.574zM351.21 381.18l-.222-.477.233-.082-.059-.126.49-.173.28.603zM352.528 380.372l-.204-.366.538-.229.204.367zM355.551 378.945l-.227-.42.423-.174.227.42zM356.054 379.167l.205.334-.253.119-.205-.334zM356.872 380.99l.32-.11.204.455-.173.059-.099-.221-.147.05zM357.681 381.473l-.155-.31.27-.103.156.309zM356.804 381.708l-.184-.335.325-.136.183.334zM357.137 382.35l-.206-.37.495-.21.206.37zM357.943 382.023l-.198-.408.39-.145.2.408zM358.637 381.75l-.138-.317.616-.205.138.319zM359.614 381.473l-.181-.348.637-.254.18.348zM358.113 380.737l-.12-.297.292-.09.12.297zM359.588 379.791l.471-.22.117.192-.102.047.16.262-.276.13-.044-.072-.105.05-.037-.06-.072.033-.106-.174.085-.04zM359.14 380.261l-.15-.257.411-.182.15.258zM359.493 379.575l-.173-.3.315-.138.173.3zM358.917 379.236l-.31-.536.185-.082.085.148.428-.19.226.39zM358.503 378.512l-.152-.293.8-.315.151.293zM358.46 377.684l-.138-.278.574-.216.138.278zM361.844 380.811l-.199-.414.448-.163.198.414zM361.405 379.743l.44-.147.216.492-.43.144-.053-.12-.08.026-.091-.209.07-.023zM362.58 379.934l-.255-.489.553-.22.255.488zM362.056 379.347l-.187-.327.368-.16.187.326zM360.867 378.883l-.125-.27.404-.141.124.269zM360.661 378.506l-.297-.569.448-.178.297.568zM360.322 377.839l-.147-.263.276-.117.147.262zM361.068 377.575l.279-.1.103.22-.279.099zM360.385 376.794l-.155-.451.266-.07.156.451zM359.833 377.292l-.2-.662.347-.08.123.408.233-.053.076.254z" clip-path="url(#p0b902adb75)" style="fill:#a9a9a9;fill-opacity:.8"/><path d="m362.006 377.24-1.175.42-.3-.64 1.175-.421zM361.872 376.547l-.376.088-.22-.717.376-.088zM362.035 376.324l-.106-.378.496-.106.105.38zM362.721 376.22l-.14-.463.587-.136.14.462zM363.606 376.114l-.127-.445.594-.13.128.446zM364.54 375.805l-.127-.395.446-.11.128.396zM365.287 375.7l-.184-.507.424-.117.184.507zM365.464 376.35l-.063-.209.347-.08.063.208zM357.207 383.61l-.147-.296.407-.155.147.297zM357.593 383.139l.577-.21.16.336-.394.144-.037-.077-.182.066zM358.645 382.89l.41-.146.166.355-.5.178-.085-.182.09-.032zM360.18 382.807l-.177-.383.63-.221.177.383zM364.774 382.084l-.064-.154.11-.035.065.155zM362.34 381.62l.438-.185.246.445-.438.185zM363.995 381.547l-.176-.402.424-.143.177.402zM364.554 381.318l-.134-.413.573-.142.135.413zM367.482 375.484l-.23.04.017.075-.495.084-.118-.532.112-.02-.02-.089.345-.058.024.11.343-.059.064.286-.075.013zM367.35 376.113l-.64.091-.062-.33.34-.048.033.183.302-.043zM369.156 374.983l-.138-.522.744-.149.137.523zM370.627 373.967l.672-.206.089.22-.16.05.074.183-.124.038.04.1-.243.075-.044-.11-.1.031-.048-.121-.046.014zM371.466 375.036l-.088-.26.15-.039.088.26zM373.006 374.035l-.641.126-.09-.346.13-.026-.036-.135-.05.01-.052-.2.324-.063.014.053.215-.042.088.341.035-.007.012.048.148-.03.031.123-.158.031zM372.86 374.656l-.47.136-.114-.302.47-.136zM373.17 373.944l.588-.124.15.537-.403.085-.025-.09-.296.062-.105-.378.11-.023zM373.905 374.044l-.23-.68.397-.102.23.68zM375.25 373.997l-.109-.226.17-.062.109.227zM374.41 373.513l-.166-.487.582-.151.129.377-.31.08.037.11zM375.009 373.296l-.15-.4.707-.204.151.4zM375.944 373.426l-.255-.853.494-.113.255.853zM383.207 370.31l.128.33.055-.016.119.305.36-.106.078.203.176-.051.034.087.204-.06-.09-.234.229-.068-.247-.636-.532.157-.021-.057zM378.941 376.504l.506.018-.037.778-.506-.018zM379.836 376.463l.458.017-.035.722-.234-.01-.006.112-.397-.015.032-.653.173.007zM384.07 372.894l-.248-.766.197-.049.247.767zM382.803 374.76l.336-.076.038.125-.336.077zM381.341 375.234l-.04-.103.194-.058.04.102zM379.695 375.657l-.036-.111.36-.09.037.112zM380.658 376.398l.01-.085.173.016-.01.085zM380.123 376.133l.007-.088.22.013-.007.087zM380.584 376.819l.374.009-.016.515-.375-.009zM380.534 376.89l-.184.006-.01-.238.183-.006zM381.182 377.344l.014-.4.453.012-.015.4zM381.224 376.01l-.006-.11.29-.011.006.108zM381.238 376.584l.008-.469.496.007-.008.468zM382.01 377.387l.007-.487.552.007-.007.487zM383.057 376.207l-.211-.014.02-.247.213.014zM382.075 376.07l.494.003-.005.583-.352-.002v-.152h-.14zM383.588 377.64l.016-.58.595.012-.016.58zM383.162 376.536l.573-.003.004.489-.462.002v-.119h-.112zM384.232 376.417l-.409-.02.036-.538.409.02zM383.737 375.472l.025-.48.623.026-.025.478zM385.761 370.237l-.12-.18.145-.074.12.18zM385.737 370.991l-.332.095-.089-.235.332-.095z" clip-path="url(#p0b902adb75)" style="fill:#a9a9a9;fill-opacity:.8"/><path d="m386.288 371.312-.215-.573-.389.112.116.31-.192.055.075.2.246-.07.023.062zM387.043 371.462l-.165-.438-.401.115.036.097-.092.026.09.237.094-.027.04.105z" clip-path="url(#p0b902adb75)" style="fill:#a9a9a9;fill-opacity:.8"/><path d="m385.45 371.931-.153-.406.524-.15.152.407zM385.433 373.246l.664.031.008-.135.244.01.028-.447-.348-.016-.01.164-.56-.026zM387.227 373.519l-.115-.437.743-.149.115.437zM385.69 373.87l-.102-.425 1.175-.216.103.426zM385.917 374.069l-.039-.153.474-.093.039.153zM386.745 373.945l.453-.013.012.327-.453.012zM386.44 374.458l-.077-.296.272-.055.077.297zM385.734 374.564l-.108-.315.333-.087.036.106.153-.04.072.21zM387.019 374.553l-.008.328-.751-.012.007-.33zM387.019 374.553l.439.007-.003.106.327.005-.007.265-.614-.01.004-.189-.15-.002zM386.154 375.731h-.287v-.17h-.648l.001-.621.935.001zM386.328 375.688l-.043-.563.491-.028.043.562zM386.2 376.27l.01-.13.199.012-.01.13zM385.45 376.238l.016-.334.652.025-.017.334zM387.637 375.873h-.715v-.482h.715zM388.437 374.915l-.046-.386.616-.056.046.387zM388.564 375.033l.687-.006.009.72-.687.007zM388.434 376.816l-.096-.578.256-.032.095.578zM388.642 376.43l-.028-.279.485-.037.028.279zM389.357 376.738l-.62.016-.008-.275.62-.016zM385.68 377.183l-.023.592-.198-.006.006-.14-.346-.01.017-.452zM386.313 377.687l-.58-.05.048-.427.58.05zM386.457 377.202l.504-.04.05.49-.391.031-.03-.282-.111.009zM387.464 376.844l-.043-.804.587-.023.042.803zM387.102 377.004l.775.025-.025.613-.585-.018.003-.07-.19-.006zM388.676 376.88l.574.026-.063 1.024-.192-.009.006-.094-.523-.024.012-.19-.249-.01.031-.518.39.019zM391.452 376.226l-.189-.184.205-.16.19.183zM389.796 377.894l-.525-.01.028-1.04.525.012zM388.536 380.008l-.618-.209.22-.495.618.21zM389.194 379.285l-.542-.228.354-.642.542.227zM388.366 378.914l-.326-.062.064-.254.325.062zM387.135 379.032v-.575h.382v.575zM385.754 378.994l.043-.494.59.039-.042.494zM385.542 379.29l-.57-.036.057-.667.57.037zM385.814 380.292l.018-.158.223.019-.018.157zM385.048 379.793l.512.01-.008.376.223.004-.006.236-.434-.007.003-.124-.3-.005zM385.79 379.724l.094-.36.403.08-.094.36zM387.205 380.558l-.343-.103.163-.414.343.103zM387.708 380.256l.433.131-.047.117.225.068-.143.36-.105-.031-.069.173-.447-.136.108-.273-.105-.032zM385.974 381.825l-.241-.012.01-.148.24.012zM386.413 381.689l-.298-.037.033-.203.297.037zM387.453 382.369l-.488-.118.09-.285.488.117zM387.276 381.188l-.245-.05.063-.24.246.049zM387.248 381.676l-.439-.173.171-.33.439.173zM385.798 381.02l.016-.281.094.004.013-.246.425.019-.03.525zM384.974 381.623l.016-.372.361.011.008-.183.258.008-.023.556zM385.02 382.075l.283.01-.009.2-.283-.01zM384.806 381.781l.743.025-.012.286-.744-.025zM386.052 382.844l-.645-.135.123-.442.644.136zM386.632 382.571l.868.205-.133.43-.197-.046-.046.15-.672-.158zM379.451 378.648l-.627-.028.028-.47.626.027zM380.155 378.914l-.612-.059.056-.443.612.059zM380.256 378.718l.159.011-.027.279.52.038-.02.216-.33-.025-.019.195-.35-.026z" clip-path="url(#p0b902adb75)" style="fill:#a9a9a9;fill-opacity:.8"/><path d="m380.91 378.982-.463-.05.07-.5.463.05zM381.125 378.351l.64.061-.046.37-.18-.018-.024.19-.333-.031.013-.106-.126-.012zM382.661 378.89l-.616-.02.016-.398.616.018zM383.687 378.883l-.644.006-.005-.393.644-.006zM383.666 379.025h.51v.284h-.51zM383.192 379.489l-.014-.204.19-.01.014.204zM382.576 379.829l-.276-.019.019-.208.276.019zM384.14 380.125l-.626-.006.007-.542.422.004-.002.14.205.001zM383.616 380.685l.016-.347.46.015-.015.347zM383.641 381.364l.014-.396.45.012-.014.397zM383.493 382.033l.552.007-.008.47-.128-.002-.005.312-.398-.006.002-.084-.18-.003.007-.395.153.002zM383.61 381.967v-.38h.46v.38zM383.001 382.43l.01-.29.248.007-.011.29zM382.87 381.973l.003-.382.432.003-.003.382zM382.591 381.727l-.002-.416h.32v.191h-.184l.001.225zM381.638 382.28l.018-.523.592.015-.017.522zM381.73 381.494v-.145h.145v.145zM379.794 382.004l-.447-.11.163-.506.447.11zM380.707 383.456l-.51-.253.167-.255.51.254zM382.225 383.427l-.21.522-.396-.122-.094.233-.322-.098.118-.294.349.107.186-.462zM382.3 384.18l.157-.47.63.161-.157.47zM383.001 383.728l-.206-.047.1-.328.205.048zM383.333 384l.071-.562.568.054-.07.563zM384.183 385.669l-.333-.062.066-.271.333.061zM383.645 385.341l-.317-.038.078-.488.316.038zM383.992 385.082l.052-.33.41.05-.052.33zM384.19 384.03l.502.075-.114.587-.501-.074zM384.367 383.95l-.361-.044.07-.438.362.044zM385.492 384.204l-.541-.149.198-.55.542.149zM386.066 384.328l.16-.522.659.154-.16.522zM386.023 385.41l-.77-.345.127-.215.261.117.129-.218.508.228zM385.882 385.86l-.892-.37.177-.326.892.371zM385.126 385.767l.65.266-.182.338-.563-.23-.091.17-.416-.17.14-.26.33.135zM382.265 388.759l.685-1.293.948.383-.685 1.293zM381.974 388.63l-1.359-.55.513-.966 1.359.55zM378.718 390.347l-.636-.283.397-.68.636.283zM379.808 389.674l-.311-.121.276-.544.311.12zM381.068 389.494l-.354-.157.205-.353.354.158zM380.403 389.89l-.174-.071.156-.29.174.07zM379.54 390.81l-.224-.09.163-.304.223.092zM380.099 390.594l-.254-.08.128-.308.253.08zM380.736 390.84l-.539-.19-.036.08-.223-.078-.106.23.23.08-.082.18.53.187zM381.469 391.666l-.958-.337.414-.896.549.193-.226.488.409.144zM380.814 393.323l-.227-.068.08-.202.226.068zM381.238 393.243l.836.275-.056.13.05.016-.1.231-.055-.017-.084.194-.31-.102.041-.095-.274-.09-.038.088-.246-.08zM380.325 397.12l-.602-.222.144-.297.602.222zM379.292 397.678l.26-.527.585.221-.1.202.09.033-.084.168-.09-.034-.077.156zM378.683 398.152l.18-.407.735.247-.179.408zM378.492 398.109l-.587-.235.248-.473.587.234zM376.588 397.992l-.538-.198.16-.331.538.198zM377.278 401.205l-.315-.26.147-.135.315.26zM377.608 400.733l.637.247-.047.092.099.038-.15.294-.089-.035-.048.095-.484-.188.089-.176-.162-.063zM378.315 400.94l-2.555-.94.476-.987 2.555.94zM363.387 415.77l-.673-.92.674-.375.672.92zM360.442 416.84l-.043-.408.288-.023.043.408zM361.935 416.08l-.43-.214.347-.532.43.214zM364.08 416.445l-.36-.464.51-.303.36.464zM363.471 436.67l-.6-.16.19-.543.6.16zM362.386 436.536l.297.088-.119.31-.191-.055.071-.186-.106-.031zM360.807 436.048l.837.242-.221.583-.401-.115.06-.16-.435-.125zM362.091 436.133l-.259-.062.064-.204.259.062zM361.001 435.786l.552.1-.061.26-.552-.1zM361.553 435.1l-.51-.142.115-.313.51.142zM359.034 436.176l.197-.6.669.169-.199.6zM358.779 435.818l.099-.272.203.056-.1.272zM357.71 433.587l-.425-.118.14-.384.424.117zM358.729 433.741l-.446-.111.13-.398.446.112zM360.223 434.087l-.595-.234.154-.3.595.236zM363.684 432.845l.112-.322.396.105-.112.322zM363.408 432.95l-.224-.028.064-.389.223.028zM361.483 432.656l-.123.5.364.069.044-.175.136.025.056-.228-.118-.023.059-.237-.199-.037-.035.14zM360.8 432.04l.424.09-.054.195.206.044-.096.342-.29-.061-.028.1-.236-.05.028-.099-.105-.022zM361.062 431.799l.532.108-.06.23-.416-.084.031-.118-.117-.024zM360.202 432.74l-.584-.209.254-.543.584.208zM359.324 432.45l-.288-.078.135-.377.287.078zM359.225 431.881l.113-.345.346.087-.113.345zM358.814 432.03l-.528-.109.134-.5.529.108zM356.096 431.653l-.334-.116.248-.544.334.116zM356.35 430.874l-.36-.149.13-.24.36.148zM355.36 431.368l-.324-.11.156-.347.323.111zM354.864 431.3l-.314-.073.114-.37.313.073zM354.716 430.738l-.2-.064.1-.235.199.064zM354.057 430.967l-.428-.156.156-.327.428.155zM354.298 429.873l-.22-.087.069-.132.22.087zM354.39 430.497l-.305-.074.076-.235.304.074zM353.476 429.7l-.055.132-.177-.057-.053.126.166.053-.092.22-.24-.077-.188.452.558.177.482-1.155-.548-.174-.095.227zM352.925 429.743l-.202-.074.149-.31.202.075zM352.748 430.59l-.547-.133.142-.445.546.133zM351.162 430.194l.113-.308.332.093-.112.308zM351.007 430.102l-.356-.126.205-.445.356.126zM351.566 431.492l-.524-.136.105-.307.523.136zM353.144 432.073l.106-.302.347.093-.106.301zM353.853 432.473l-.108-.024-.025.082-.208-.049.19-.626.316.073z" clip-path="url(#p0b902adb75)" style="fill:#a9a9a9;fill-opacity:.8"/><path d="m354.428 432.024-.165.544-.41-.095.165-.544zM355.593 434.872l.13-.308.445.142-.129.308zM354.029 434.47l.105-.264.37.112-.106.264z" clip-path="url(#p0b902adb75)" style="fill:#a9a9a9;fill-opacity:.8"/><path d="m354.029 434.47-.347-.105.105-.264.347.105zM352.826 434.093l-.398-.058.078-.402.398.059zM350.723 433.648l.037-.41.542.037-.037.41zM350.727 433.098l.032-.311.438.034-.031.312zM350.897 432.314l.023-.218.467.037-.023.218zM350.812 432.31l-.375-.046.048-.295.375.047zM349.922 431.791l.049-.762-.358-.017-.013.213-.087-.005-.017.27.106.004-.018.28zM349.566 432.298l-.028-.176.188-.023.028.176zM349.463 434.378l.453.061-.055.311-.453-.061zM351.014 435.02l-.602-.197.132-.306.602.197zM352.11 435.453l-.594-.148.155-.473.595.148zM351.948 435.953l-.14-.032.078-.254.14.033zM352.847 436.096l-.3-.072.114-.364.3.071zM353.852 435.91l-.394-.124.156-.377.394.124zM354.333 436.546l-.219-.046.092-.328.22.047zM354.815 436.12l-.384-.071.092-.377.384.071zM355.062 436.88l.071-.377.392.057-.07.377zM354.567 437.501l-.089.349-.52-.102.07-.272.21.041.019-.076zM354.15 437.041l-.162-.03.05-.204.16.03zM354.63 437.3l-.252-.034.05-.278.252.035zM353.08 437.467l.128-.488.478.095-.127.488zM353.215 436.831l.085-.371.282.05-.085.37zM350.964 436.695l.149-.55.47.097-.15.55zM350.796 435.993l-.274.56-.272-.102.047-.093-.16-.06.229-.466zM349.043 438.513l.293.098-.13.295-.082-.028-.038.085-.248-.084.027-.062-.136-.046.084-.19.175.058zM348.225 438.92l-.235-.066.163-.445.235.066zM354.195 438.768l-.138-.006.011-.167.138.006zM355.65 436.374l-.487-.138.163-.439.487.138zM356.782 437.77l-.181-.015.021-.197.182.015zM357.774 437.201l-.633-.12.163-.654.632.12zM358.47 438.378l.203-.536.41.119-.203.536zM357.697 437.398l1.031.297-.338.894-.485-.14.082-.217-.547-.158zM360.505 437.303l-.285.685-.08-.025-.254.614.357.113-.073.178.28.088.336-.807.248.079.278-.67zM361.796 437.759l1.437.427-.226.58-1.02-.304.117-.297-.11-.032-.029.076-.309-.092zM367.612 435.601l.007-.401.328.004-.008.401zM272.947 575.98l-.12-.716.684-.088.12.717zM273.166 573.658l-.078-.414.475-.068.078.414zM272.33 573.43l-.07-.514.529-.055.07.512zM273.187 572.713l-.099-.377.397-.08.1.377zM272.826 572.107l-.073-.287.446-.086.073.287zM272.741 572.187l-.587.124-.086-.31.588-.123zM272.854 571.706l-.077-.336.453-.08.078.335zM271.668 571.242l.84-.147.124.538-.835.145-.039-.169-.095.016-.046-.201.09-.016zM271.68 571.156l-.107-.526.586-.09.106.525zM272.756 570.97l-.094-.304.368-.087.094.305zM271.446 570.136l-.128-.531.586-.107.127.531zM272.564 569.92l-.07-.34.301-.047.07.34zM272.571 568.833l-.056-.16.113-.031.057.16zM272.175 568.95l-.035-.247.16-.018.036.247zM272.04 568.293l-.318.036.011.078-.272.03.023.157-.387.044.067.45.446-.05-.022-.15.214-.025-.042-.285.317-.036zM271.014 568.326l-.118-.48.622-.117.12.48zM271.807 568.197l-.057-.322.274-.037.056.322zM270.809 567.455l-.107-.445.485-.088.106.445zM271.41 566.887l-.068-.348.58-.087.069.348zM270.667 560.591l.095-.637.764.086-.094.638zM272.395 560.344l-.015-.512.328-.007.014.512zM271.793 559.195l.014-.238.403.018-.014.239zM271.719 557.207l-.67-.046.056-.63.524.036-.023.265.145.01zM271.766 556.252l.517-.283.483.672-.38.207-.365-.507-.137.075zM272.607 555.068l-.036-.352.184-.014.035.352zM271.361 554.401l.012-.404.842.019-.012.404zM271.014 553.826l.036-.451.821.05-.036.45zM271.19 553.244l.036-.444.423.026.006-.073.235.015-.043.517zM271.184 552.127l.058-.482.538.05-.058.482zM271.269 551.423l.02-.402.835.03-.02.403zM271.92 549.428l-.454-.02.028-.507.455.02zM272.317 549.001l.04-.178.218.038-.039.177zM272.38 548.52l-.014-.384.174-.005.014.384zM271.397 548.433l.03-.406.664.037-.03.406zM271.566 547.055l-.333-.593.43-.184.333.593zM277.178 542.373l-1.096-1.133 1.253-.925.5.517.235-.172.596.616zM274.929 542.459l-.75-.724.586-.463.75.723zM276.613 542.49l-.274-.262.333-.265.274.26zM275.85 542.658l-.399-.484.534-.335.398.484z" clip-path="url(#p0b902adb75)" style="fill:#a9a9a9;fill-opacity:.8"/><path d="m276.213 543.1-.364-.442.534-.335.364.443zM276.998 543.564l-.076-.212.652-.176.075.212z" clip-path="url(#p0b902adb75)" style="fill:#a9a9a9;fill-opacity:.8"/><path d="m276.358 543.504.564-.152.107.301-.421.114-.042-.117-.142.038zM279.784 543.429l-.927-.952.681-.506.928.951zM277.519 535.2l-.395-.222.305-.414.395.22zM276.556 535.218l-.313-.248.46-.444.314.247zM275.099 535.854l-.206-.13.098-.118.205.13zM275.849 536.169l-.298-.21.545-.587.298.21zM274.94 536.77l.478-.451.562.454-.296.279-.234-.19-.183.173zM273.286 537.257l-.177-.181.226-.169.177.18z" clip-path="url(#p0b902adb75)" style="fill:#a9a9a9;fill-opacity:.8"/><path d="m273.039 537.442-.178-.18.248-.186.177.18zM272.39 537.28l.395.295-.422.429-.168-.127.183-.187-.225-.168zM272.034 537.399l-.33-.35.487-.352.33.35zM269.974 537.232l-.298-.182.234-.291.297.182zM273.116 538.492l.364-.413.7.47-.363.412zM272.288 538.961l-.885-.617.395-.43.884.617zM272.031 540.489l-.248-.155-.104.127-.3-.188.23-.28-.116-.072.09-.11-.24-.15.215-.26.39.244.089-.106.511.32zM271.736 540.852l-.254-.197.13-.129.254.198zM270.98 541.229l.428.273-.302.36-.093-.059-.251.3-.52-.331.175-.21.084.054.157-.187.101.064zM270.314 540.055l-.224-.128.234-.31.223.13zM268.43 540.327l-.17-.73.333-.058.17.73zM267.707 544.572l.766-.932.86.54-.766.931zM266.52 544.46l-.331-.126.24-.482.33.126zM265.253 543.33l.877.371-.222.398-.448-.19-.046.084-.43-.182zM265.564 543.367l-.24-.1.154-.286.24.099zM264.828 543.04l-.244-.134.191-.266.244.134zM263.528 543.075l.36-.517.502.267-.197.283-.158-.085-.163.234zM267.503 542.6l.118-.208.545.235-.118.208zM267.419 543.57l-.277-.136.136-.21.276.137zM262.69 541.266l.148-.214 2.272 1.192-.148.215zM262.64 541.087l-.209-.108.156-.23.209.11zM260.616 539.295l-.347-.24.14-.155.348.24zM254.975 543.114l-.992-.477.495-.784.991.476zM253.948 543.639l-.18-.133.262-.272.18.133zM255.137 543.632l-.41-.18.075-.13.41.18zM256.595 544.188l-.417-.099.092-.296.418.1zM256.81 543.16l.79.264-.19.432-.55-.185-.04.09-.24-.08zM266.278 546.785l-.37-.364.208-.162-.465-.458.717-.555.607.597-.474.368-.16-.158-.063.048.39.383zM265.111 546.326l-.347-.321.29-.239.347.321zM264.976 547.438l-.311-.519.428-.196.311.52zM264.403 548.1l-.673-.563.383-.348.672.562zM264.17 546.746l-.207-.26.368-.223.206.26zM263.776 546.171l-.62-.62.473-.361.343.342-.11.084.277.278zM262.91 546.814l-.46-.444.501-.396.46.445zM262.673 547.209l-.117-.112.084-.067-.192-.184.152-.12.308.296zM264.042 549.088l-.41-.383.338-.276.41.383zM263.41 548.747l-.491.428.26.228.094-.082.359.315.398-.347zM263.016 548.933l-.262-.222.215-.193.261.222zM262.52 548.556l-.248-.21.16-.142.247.21zM260.758 547.53l-.358-.285.304-.29.358.285zM261.062 551.262l-.255-.179.173-.187.255.179zM261.897 551.782l-.517-.39.389-.393.517.39zM259.745 552.127l-.332-.222.28-.32.333.223zM260.9 552.961l-.386-.34.28-.242-.127-.112.173-.149.512.454zM267.345 548.999l-.2-.972.875-.137-.237-1.15.806-.127.436 2.123zM269.346 552.11l.832.28-.172.391-.174-.058-.154.35-.659-.22zM268.954 553.017l-.466-.1.29-1.031.467.1zM269.257 551.245l.808.17-.152.549-.374-.08-.018.067-.434-.092zM266.498 573.22l-.14-.543 1.791-.352.14.542zM268.584 573.876l-.181-.727.592-.112-.11-.439 1.017-.193.29 1.167zM271.092 575.925l-.063-.24.431-.087.064.24zM431.11 288.481l1.775.609-.395.878-1.774-.609z" clip-path="url(#p0b902adb75)" style="fill:#a9a9a9;fill-opacity:.8"/></g></g></g><defs><clipPath id="p0b902adb75"><path d="M90 142.819h558v441.562H90z"/></clipPath></defs></svg>