<svg xmlns="http://www.w3.org/2000/svg" width="960" height="960" viewBox="0 0 720 720"><defs><style>*{stroke-linejoin:round;stroke-linecap:butt}</style></defs><g id="figure_1"><path id="patch_1" d="M0 720h720V0H0z" style="fill:#fff"/><g id="axes_1"><path id="patch_2" d="M90 621.917h558V105.283H90z" style="fill:#fff"/><g id="LineCollection_1"><path d="m309.55 318.522.34-2.061M250.65 319.427l2.61.331 3.981-.298 3.581-1.172 24.33-8.503 1.669-.361 1.557-.022 2.357.576 2.113.894 16.702 7.65" clip-path="url(#paed26f5dba)" style="fill:none;stroke:#000"/><path d="m332.878 327.22-.876-.415-11.687-3.616-10.765-4.667M371.033 334.954l-.853.98M374.622 328.31l-2.444 4.815-.405.647-.74 1.182" clip-path="url(#paed26f5dba)" style="fill:none;stroke:#000"/><path d="m381.132 332.453-3.624 2.054-1.923.566-2.175.095-.213-.02-2.164-.194M376.374 341.177l-5.146-4.599M376.374 341.177l-.244.438-.017.285.106.294 1.496 1.232.639.511.28.465" clip-path="url(#paed26f5dba)" style="fill:none;stroke:#000"/><path d="m377.56 341.187-.363-.099-.396-.028-.427.117M379.936 343.92l5.42-1.402M379.936 343.92l-.727-1.691-.308-.384-.357-.234-.39-.235-.594-.19" clip-path="url(#paed26f5dba)" style="fill:none;stroke:#000"/><path d="m378.634 344.402 1.044-.366.258-.117M379.936 343.92l.964 3.253M339.653 330.426l-6.775-3.206M339.653 330.426l2.459 1.087M339.653 330.426l1.457-3.09M341.593 326.356l2.34.963M341.593 326.356l-.483.98M345.264 314.158l-1.576 1.046-.816.865-.603 1.2-.457 2.487-.22 6.6M347.601 312.608l3.488-2.477M347.601 312.608l-2.337 1.55M352.27 314.584l-2.606-1.15-2.063-.826M386.984 327.965l2.065 7.6M386.984 327.965l1.557-1.499M386.984 327.965l-5.852 4.488M376.553 323.904l9.874 3.48.557.58M334.82 325.205l.458-.433 4.372 1.921.546.24.914.403M334.82 325.205l-.376.495-1.566 1.52M363.12 330.842l2.37-.083M356.97 331.793l1.386.071 1.154-.176 3.61-.846M365.18 328.725l-1.33 1.57-.73.547M369.06 320.888l7.493 3.016M369.06 320.888l-6.992-2.797M369.06 320.888l2.07-4.402M369.06 320.888l-2.484 4.7M374.509 309.431l-5.31-3.64M374.509 309.431l-1.354 2.82M381.876 312.983l-3.198-.989-4.17-2.563M392.202 319.7l-1.466 4.086M392.202 319.7l2.486.848M392.202 319.7l-11.51-4.393M393.061 314.96l-10.34-3.538M393.061 314.96l5.92 2.047M393.061 314.96l1.718-4.43M393.061 314.96l1.627 5.588M374.622 328.31l4.3 1.586 1.92 2.361.29.196M383.804 336.968l-.525-1.452-2.147-3.063M366.576 325.589l-7.256-2.417M366.576 325.589l8.046 2.72M365.585 328.163l.166-.746.825-1.828M384.696 307.224l-1.975 4.198M384.696 307.224l10.083 3.306M384.696 307.224l1.106-2.888M390.387 323.673l.35.113M390.387 323.673l-1.846 2.793M390.387 323.673l-11.859-4.1M378.528 319.572l-1.975 4.332M378.528 319.572l2.164-4.265M378.528 319.572l-7.398-3.086M371.13 316.486l-6.47-2.744M371.13 316.486l2.025-4.234M355.388 309.905l9.272 3.837M352.45 314.138l.821-.945 1.418-1.888.699-1.4M366.863 309.81l-2.32-.963-4.854-1.826-3.985 2.482-.316.402M362.068 318.091l-9.798-3.507M362.068 318.091l2.592-4.35M360.17 321.706l1.058-1.966.84-1.649M364.66 313.742l2.203-3.931M369.2 305.79l-3.818-2.221M369.2 305.79l-2.337 4.02M381.876 312.983l-1.184 2.324M381.876 312.983l.845-1.561M380.692 315.307l-7.537-3.055M394.688 320.548l3.486 12.432M398.176 302.812l-1.53 3.504M387.941 299.178l3.544 2.028.794.19 2.94.3 2.957 1.116M403.479 304.838l-3.232-1.299-2.071-.727M394.78 310.53l1.866-4.214M399.717 312.915l-3.132-1.468-1.806-.917M417.033 328.03l-4.902 1.277M417.033 328.03l-.058-6.909M421.647 321.129l.79 5.735-5.404 1.167M416.916 317.035l-.065-6.594M416.916 317.035l.06 4.086M416.916 317.035l4.198.312M416.916 317.035l-4.214-.26M416.851 310.44l-1.88-.628M416.851 310.44l4.606 1.66M412.131 329.307l-4.386 1.185M412.131 329.307l.273-8.375M412.702 316.776l2.27-6.964M412.404 320.932l.118-3.656.18-.5M421.114 317.347l.533 3.782M421.114 317.347l2.143.194M407.745 330.492l-4.764 1.279M407.745 330.492l-3.13-11.4M404.615 319.091l-5.633-2.084M412.404 320.932l-3.187-.203-2.553-.842-2.049-.796M405.425 316.26l-.885 1.914.075.917M398.982 317.007l4 14.764M402.981 331.77l-4.807 1.21M402.981 331.77l1.46 5.697M419.025 391.106l-1.669-6.2M419.025 391.106l-5.009-2.467M419.025 391.106l1.065 1.145M398.174 332.98l-4.365 1.273M398.174 332.98l1.734 5.661M414.016 388.639l-3.743-1.905M414.016 388.639l-.31.826M414.016 388.639l-.704-2.653M390.736 323.786l.639 2.087M393.809 334.253l-4.76 1.312M393.809 334.253l1.514 5.835M393.809 334.253l-2.434-8.38M408.078 385.618l-5.407-2.71M408.078 385.618l1.122 1.567M406.748 379.922l1.277 4.74.053.956M408.078 385.618l2.195 1.116M402.671 382.908l-.507-1.86M402.671 382.908 400 381.539M402.671 382.908l-.144 1.01M396.997 363.244l2.796 9.566M396.997 363.244l.48-.201.415-.309.322-.398.21-.46.084-.498-.046-.5M394.419 362.007l.243.448.353.377.438.281.497.168.526.045.52-.082M396.019 359.316l-2.07-6.643M396.019 359.316l-.5.15-.447.265-.364.363-.26.436-.138.485-.01.503.119.489" clip-path="url(#paed26f5dba)" style="fill:none;stroke:#000"/><path d="m398.462 360.878-.147-.421-.24-.38-.32-.32-.384-.247-.432-.16-.458-.066-.462.032M389.05 335.565l-5.246 1.403M389.05 335.565l1.505 5.632M383.804 336.968l1.552 5.55M377.56 341.187l.369-.296 1.5-1.563 1.53-1.436 2.845-.924M395.456 378.93l-3.148-1.495M394.166 374.21l1.03 3.5.26 1.22M395.456 378.93l.372.234M404.44 337.467l1.767 5.628M404.44 337.467l-4.532 1.174M399.908 338.641l-4.585 1.447M399.908 338.641l1.607 5.613M395.323 340.088l1.657 5.505M395.323 340.088l-4.768 1.109M390.555 341.197l1.667 5.786M390.555 341.197l-5.199 1.321M385.356 342.518l1.621 5.666M378.634 344.402l.855 3.093M386.598 375.33l-.085.131-.05.147.015.327M387.686 375.351l-.126-.133-.209-.105-.234-.032-.232.045-.169.094-.118.11M385.934 372.73l.509 2.332.155.268M387.686 375.351l-.015-.522-.539-2.34M387.81 375.595l-.09-.21-.034-.034M386.478 375.935l.07 4.349M386.478 375.935l.087.174.135.143.173.1.195.046h.135l.188-.042M387.391 376.356l.17-.093.135-.134.091-.165.04-.183-.016-.186M387.391 376.356l.579.044.774.35M420.09 392.25l4.083 1.83M413.706 389.465l4.189 2.033 2.195.753M408.413 342.435l-2.206.66M406.207 343.095l1.696 5.916M406.207 343.095l-4.692 1.16M401.515 344.254l-4.535 1.34M401.515 344.254l1.901 5.917M396.98 345.593l1.546 5.783M396.98 345.593l-4.758 1.39M392.222 346.983l1.728 5.69M392.222 346.983l-5.245 1.201M386.977 348.184l1.7 5.939M386.977 348.184l-5.401 1.27M381.576 349.454l-.676-2.28M381.576 349.454l.144.565M407.903 349.01l2.246 8.675M407.903 349.01l-4.487 1.16M420.346 348.203l-1.248-.438-9.276.688-1.919.558M403.416 350.17l-4.89 1.206M403.416 350.17l2.373 8.675M398.526 351.376l2.699 8.687M398.526 351.376l-4.576 1.297M393.95 352.673l-5.273 1.45M388.677 354.123l2.654 8.668M388.677 354.123l-5.573 1.335M383.104 355.458l-.632-2.484M383.104 355.458l.113.464M412.156 357.183l-2.007.502M410.149 357.685l2.922 11.436M410.149 357.685l-4.36 1.16M405.789 358.845l-4.564 1.218M405.789 358.845l3.234 11.417M401.225 360.063l3.553 11.393M401.225 360.063l-2.763.815M394.419 362.007l-3.088.784M391.33 362.79l2.836 11.42M391.33 362.79l-6.051 1.644M385.279 364.434l-2.062-8.512M385.279 364.434l-1.103.25M385.279 364.434l.611 2.656M413.07 369.121l2.27 8.467M413.07 369.121l-4.047 1.141M409.023 370.262l-4.245 1.194M409.023 370.262l2.223 8.456M404.778 371.456l1.97 8.466M404.778 371.456l-4.985 1.354M399.793 372.81l2.371 8.238M399.793 372.81l-5.627 1.4M415.34 377.588l2.016 7.318M415.34 377.588l-4.094 1.13M411.246 378.718l-4.498 1.204M411.246 378.718l2.066 7.268M406.748 379.922l-4.584 1.126M402.164 381.048l-2.165.491M399.999 381.54l-.65-.37M342.112 331.513l3.59 1.682M342.112 331.513l-.717 1.767M342.112 331.513l1.821-4.194M329.063 360.604l-.226 2.25M329.063 360.604l1.006-2.23M329.063 360.604l.798-6.996M327.973 371.438l.423-4.205M327.973 371.438l1.968 1.485M250.65 319.427l32.28 17.361 1.344 2.43.417.417 43.282 31.803M345.14 339.602l-2.088 4.2M345.14 339.602l-5.678-2.192M345.14 339.602l4.887 1.894M329.941 372.923l.522-1.133M329.941 372.923l3.56 2.688M352.04 337.695l-2.013 3.8M352.04 337.695l-1.104-.258M357.114 337.232l-2.453.88-2.622-.417M333.501 375.611l.933-1.643M343.556 383.75l-1.643-1.201-4.824-4.23-3.588-2.708M357.114 337.232l1.183.016 2.737-.767M365.275 336.002l-2.336.122-1.905.357M361.477 346.694l-.049-8.669-.394-1.544M361.477 346.694l.125 4.43M361.477 346.694l-.759-.308M370.047 346.475l-3.033.416-2.76-.06-2.777-.137M365.201 368.648l-2.701.493M365.201 368.648l10.775-2.277M365.201 368.648l-3.162-9.86M365.454 374.826l1.084-2.502-1.337-3.676M371.228 336.578l-1.048-.645M371.228 336.578l2.39 8.916M377.648 355.405l-3.073.668M377.648 355.405l3.818-.752M377.648 355.405l1.902 10.162M373.618 345.494l1.403 5.23 1.573 2.696 1.054 1.985M379.55 365.567l-3.574.804M384.176 364.684l-.76.105-3.866.778M350.027 341.496l-1.945 4.202M350.027 341.496l5.053 2.295M350.027 341.496l.909-4.06M339.462 337.41l-2.07 4.343M339.462 337.41l1.933-4.13M332.014 334.715l3.056 1.106 4.392 1.589M360.718 346.386l-5.638-2.595M360.718 346.386l-2.678 4.718M352.882 359.733l-2.3 3.672M352.882 359.733l2.788-4.157M352.882 359.733l.698.459M352.882 359.733l-3.876-2.919M358.04 351.104l-2.156 4.076M358.04 351.104l-4.988-3.164M358.04 351.104l2.03.012M359.265 359.397l-.94-5.984-.285-2.309M353.052 347.94l-4.97-2.242M353.052 347.94l-1.955 4.315M353.052 347.94l2.028-4.15M348.082 345.698l-1.907 4.296M348.082 345.698l-5.03-1.896M343.052 343.802l-1.84 4.295M343.052 343.802l-5.66-2.049M337.392 341.753l-1.909 4.538M337.392 341.753l-5.9-1.811M355.884 355.18l-.214.396M355.884 355.18l-4.787-2.925M351.097 352.255l-4.922-2.261M351.097 352.255l-2.091 4.56M346.175 349.994l-1.832 4.15M346.175 349.994l-4.963-1.897M341.212 348.097l-1.846 4.12M341.212 348.097l-5.729-1.806M335.483 346.29l-1.843 3.968M335.483 346.29l-4.49-1.326M330.993 344.964l.5-5.022M330.993 344.964l-.617 4.118M330.376 349.082l3.264 1.176M330.376 349.082l-.515 4.526M333.64 350.258l-1.743 4.068M333.64 350.258l5.726 1.96M339.366 352.218l-1.855 4.14M339.366 352.218l4.977 1.925M344.343 354.143l-1.993 4.014M349.006 356.814l-2-1.438-2.663-1.233M361.519 365.865l-2.254-6.468M361.519 365.865l.98 3.276M361.519 365.865l-4.281-3.006M342.35 358.157l-1.973 4.083M342.35 358.157l-2.802-1.03M346.403 360.187l-.934-.58-3.12-1.45M337.51 356.359l-1.832 4.092M337.51 356.359l-5.613-2.033M337.51 356.359l2.038.769M331.897 354.326l-1.828 4.048M331.897 354.326l-2.036-.718M340.377 362.24l-2.131 4.41M340.377 362.24l-2.64-.984M348.35 367.76l-5.441-4.43-2.532-1.09M335.678 360.451l-1.91 4.265M335.678 360.451l-5.609-2.077M335.678 360.451l2.06.805M338.246 366.65l-1.919 3.957M338.246 366.65l-2.361-1.02M348.207 374.384l-4.658-3.802-2.074-2.527-.634-.322-2.595-1.082M333.768 364.716l-1.871 3.99M333.768 364.716l-4.931-1.863M333.768 364.716l2.117.915M328.837 362.853l-.44 4.38M346.225 378.375l-2.669 5.375M346.225 378.375l1.982-3.99M336.327 370.607l2.823 1.239 4.68 4.904 2.395 1.625M336.327 370.607l-1.893 3.361M336.327 370.607l-4.43-1.901M331.897 368.706l-1.434 3.084M331.897 368.706l-3.5-1.473M339.548 357.128l-1.81 4.128M337.738 361.256l-1.853 4.375M381.466 354.653l.41 1.518M381.466 354.653l-.38-1.375M362.04 358.788l-2.775.61M362.04 358.788l12.535-2.715M361.663 353.024l.125 3.821.251 1.943M353.58 360.192l3.658 2.667M353.58 360.192l2.99-.39M384.176 364.684l.579 2.647M384.176 364.684l-2.3-8.513M362.5 369.14l-.954 2.548M359.265 359.397l-2.695.405M355.67 355.576l.9 4.226M356.57 359.802l.668 3.057M376.107 372.502l-.138-1.92.007-4.211M383.436 380.274l3.111.01M383.436 380.274l-1.754-1.697M383.436 380.274l-.048.462M386.547 380.284l2.169.017M377.96 374.547l2.715 2.999M377.96 374.547l-1.542-1.738M377.96 374.547l-2.349 2.065M368.845 383.498l4.29-4.721M368.845 383.498l-5.424-4.218M368.845 383.498l8.136 5.838M380.675 377.546l1.007 1.031M380.675 377.546l-4.228 4.286M376.447 381.832l-3.312-3.055M376.447 381.832l2.614 2.397M389.35 395.868l-.062-6.321M389.35 395.868l.04 4.617M389.35 395.868l-4.998-.02M389.35 395.868l4.822.216M406.938 391.431l11.322 5.341 3.284 1.624 2.629-4.317M563.897 428.346l-9.094.814-9.819.182-8.662-.524-7.206-1.044-6.736-1.385-11.912-2.808-12.675-2.326-35.846-6.023-4.394-1.032-2.418-.937-1.979-1.203-8.105-5.615-12.33-8.058-8.548-4.308M389.372 382.659l.036-2.35M389.372 382.659l-.648.02M389.372 382.659l5.821 2.946M389.372 382.659l.214 6.894M396.816 380.87l2.054 1.084M396.816 380.87l-1.623 4.735M396.816 380.87l-1.55-.813M395.193 385.605l5.553 2.893M394.255 390.466l.256-2.344.682-2.517M394.172 396.084l.083-5.618M398.39 392.45l-2.188 3.777-2.03-.143M403.24 384.3l5.96 2.885M403.24 384.3l-2.494 4.198M403.24 384.3l-.713-.382M400.746 388.498l-2.357 3.952M400.746 388.498l6.192 2.933M381.864 395.778l-2.097 4.702M381.864 395.778l2.645-6.108M381.864 395.778l2.488.07M406.938 391.431l2.262-4.246M409.2 387.185l4.506 2.28M409.2 387.185l1.073-.45M398.39 392.45l-4.135-1.984M394.255 390.466l-4.669-.913M389.586 389.553l-.298-.006M384.352 395.848l-.077 4.728M384.486 409.89l.034 4.743M384.486 409.89l-.12-4.71M384.486 409.89l-4.992-.05M384.486 409.89l4.775-.105M389.39 400.485l.2 4.56M384.275 400.576l.517-.01 4.598-.08M384.275 400.576l.09 4.603M384.275 400.576l-4.508-.096M379.767 400.48l-2.154 4.766M389.59 405.045l.27 4.696M389.59 405.045l-5.224.135M384.366 405.18l-6.753.066M377.613 405.246l-2.196 4.089M389.86 409.741l-.599.044M391.046 430.998l-.446-2.963-.74-18.294M376.553 323.904l-1.93 4.405" clip-path="url(#paed26f5dba)" style="fill:none;stroke:#000"/><path d="m392.308 377.435-3.932-1.864-.565.024M389.476 377.061l2.32 1.2M389.408 380.308l.058-2.776.01-.47M388.744 376.75l.456.205.276.106M389.408 380.308l-.692-.007M388.744 376.75l-.028 3.55M388.716 380.3l.008 2.38M388.905 389.52l-4.396.15M388.905 389.52l.383.027M388.905 389.52l-.18-6.84M382.991 389.166l.326.346 1.192.158M379.06 384.229l4.328-3.493M382.991 389.166l-.685-.813-3.245-4.124M382.991 389.166l.11-2.355.24-5.299.047-.776" clip-path="url(#paed26f5dba)" style="fill:none;stroke:#000"/><path d="m376.98 389.336 1.11-1.112 1.088-.552.73-.073 1.497.625 1.586.942M391.796 378.262l3.47 1.795M391.796 378.262l.512-.827M395.828 379.164l-.561.893M395.828 379.164l3.522 2.006M398.87 381.954l3.657 1.964M398.87 381.954l.48-.784M410.273 386.734l3.04-.748M413.312 385.986l4.044-1.08M356.743 392.648l.608.565 8.43 10.533.696.353 1.07.922 7.87 4.314M379.494 409.84l-2.326-.023h-1.074l-.677-.482M385.934 372.73l1.198-.24M385.934 372.73l-.566-2.589M387.132 372.49l-.612-2.66M385.368 370.141l1.152-.31M385.368 370.141l-.613-2.81M386.52 369.83l-.63-2.74M384.755 367.331l1.135-.241M381.876 356.17l1.341-.248M381.087 353.278l1.385-.304M381.087 353.278l-.819-2.961M382.472 352.974l-.752-2.955M380.268 350.317l1.452-.298M380.268 350.317l-.779-2.822M379.49 347.495l1.41-.322M370.047 346.475l.184 1.114.206.677 1.555 3.466 2.583 4.34M370.047 346.475l3.571-.98M365.275 336.002l4.905-.069M365.275 336.002l.215-5.243M365.585 328.163l-.095 2.596M365.585 328.163l-.405.562M359.32 323.172l.85-1.466M359.32 323.172l-2.13 3.755M357.19 326.927l7.99 1.798M356.97 331.793l-.256-1.53.095-1.895.38-1.44M349.522 329.377l5.864 2.131 1.584.285M373.155 312.252l-6.292-2.441M352.27 314.584l.18-.446M389.261 409.785l.125 4.788M389.386 414.573l.15 4.604M389.386 414.573l-4.866.06M389.535 419.177l.107 4.645M384.52 419.295l3.401-.046 1.614-.072M389.642 423.822l.296 4.649M389.642 423.822l-4.931.01M389.938 428.47l1.108 2.528M389.938 428.47l-5-.057M391.417 453.386l.304-6.06.346-7.958-1.021-8.37" clip-path="url(#paed26f5dba)" style="fill:none;stroke:#000"/><path d="m385.68 431.374 2.625.602 1.301-.237 1.44-.741M372.456 428.45l2.053-.03M374.055 423.857l2.064.02M375.995 419.19l2.09.053M376.452 414.633h2.384M384.52 414.633v4.662M384.52 414.633h-5.684M384.52 419.295l.19 4.538M384.52 419.295l-6.435-.052M384.71 423.833l.228 4.58M384.71 423.833l-8.591.044M384.938 428.413l-10.429.007M129.802 278.217l-.452-1.33-2.063-5.843-1.646-4.734-.95-2.73-1.009-2.459-1.142-1.947-1.929-1.99-2.67-1.82-4.214-2.46-5.223-3.07-2.788-1.593-2.746-1.492-2.24-1.493M361.546 371.688l-3.767-2.83M361.546 371.688l-1.896 4.548M361.546 371.688l3.908 3.138M353.12 389.897l2.136-4.486M353.12 389.897l-5.015-3.13M353.12 389.897l-.094-7.369M356.743 392.648l-1.645-1.53-1.978-1.22M359.65 376.236l-2.39 4.944M359.65 376.236l3.77 3.044M359.65 376.236l-4.272-3.22M363.42 379.28l-2.416 4.712M363.42 379.28l2.034-4.454M336.8 375.501l-2.366-1.533M334.434 373.968l-3.971-2.178M350.582 363.405l2.333 1.762M348.35 367.76l.16-.272 2.072-4.083M346.403 360.187l.253.142 3.926 3.076M346.403 360.187l.95-1.03 1.653-2.343M361.602 351.125l.061 1.899M361.602 351.125l-1.532-.009M332.014 334.715l-.521 5.227M332.014 334.715l.08-2.186M343.933 327.32l5.59 2.057M341.395 333.28l3.53 1.539M350.625 335.396l2.28 1.02 2.564.792 1.645.024M350.936 337.437l-1.218-.202M349.718 337.235l.907-1.839M344.926 334.819l.73.318 2.973 1.76 1.09.338M350.625 335.396l-3.214-1.437M344.926 334.819l.776-1.624M345.702 333.195l1.709.764M347.41 333.96l2.112-4.583M360.17 321.706l-6.495-1.736-1.033 3.26-.909 1.072-2.21 5.075M376.418 372.81l-.311-.308M381.44 371.659l-1.118.252-3.904.898M381.44 371.659l.019-1.633M381.682 378.577l-.323-3.681.082-3.237M375.611 376.612l-1.614-1.897 2.11-2.213M375.611 376.612l-2.476 2.165M374.51 428.42l1.609-4.543M376.119 423.877l1.966-4.634M378.085 419.243l.751-4.61M378.836 414.633l.658-4.793M388.54 326.466l2.835-.593M412.404 320.932l4.571.189M416.975 321.121l4.672.008M409.079 317.085l1.275-.418 1.311-.964 2.448-6.45.858.56M409.079 317.085l-3.276-1.643M405.425 316.26l1.694.783 1.96.042M405.425 316.26l.378-.818M399.717 312.915l5.388 3.196.32.148M410.835 303.85l-1.492 3.532M410.835 303.85l-6.034-2.122M410.835 303.85l.062-1.39M405.803 315.442l1.858-3.973M405.803 315.442l-5.634-3.425M400.169 312.017l1.609-3.226M400.169 312.017l-.452.898M409.343 307.382l-1.682 4.087M409.343 307.382l-5.864-2.544M403.479 304.838l1.322-3.11M403.479 304.838l-1.701 3.953M390.929 297.246l9.545 2.96 4.327 1.522M401.778 308.79l5.883 2.68M401.778 308.79l-5.132-2.474M385.802 304.336l1.43.22 2.027.267 2.518.233 2.137.552 2.732.708M400.283 136.306l-.595.78-7.25 5.525-11.359 8.004-3.748 1.787-4.396 1.387-4.395.564-6.489.566-2.835.984-5.632 4.304-2.17 3.591-5.746 9.19-3.101 3.993-3.825 5.507-3.178 2.716-5.955 3.665-4.681 2.316-2.474 3.3-4.7 6.327-2.397 1.714-3.044 2.169-.78 2.389.38 6.272 1.218 5.944.608.529.99-.11" clip-path="url(#paed26f5dba)" style="fill:none;stroke:#000"/><path d="m319.422 224.215-.354-3.73-.248-4.103.19-2.807-.4-.529-.95.182-.723.547-1.085 3.355-.229 1.66-.894.929M319.422 224.215l-3.38-2.233-1.313-2.263M319.422 224.215l.045.482-.99.82-5.118 1.933-7.003 2.752-3.082 2.462-4.49 3.756-2.626 3.264M302.517 253.284l-1.793-3.864-2.834-5.014-1.542-3.446-.19-1.276M291.974 230.885l1.376 4.996 2.808 3.803M313.08 267.894l1.078 1.307 3.539 2.608 9.742 5.888 2.17 1.532 1.865 2.954 3.196 3.591 3.958 7.22 3.444 3.956M351.089 310.13l-.352-.793-2.081-3.18-4.51-6.345-1.473-2.033-.6-.829" clip-path="url(#paed26f5dba)" style="fill:none;stroke:#000"/><path d="m390.748 283.665-.25-.954 2.193-5.104-1.766-3.647-3.836-2.83-4.688-2.012-5.42-2.072-4.11.38-3.196-2.188-2.1-1.05-3.776-1.693-1.096-2.128-.944-1.576-1.461-.438-2.705-.035-3.923 2.69.068 3.865.495 3.984-2.402 6.245-1.796 6.069-.162 2.59.213 3.788-2.607 3.843-5.407 5.558M352.45 314.138l-.645-1.118-.716-2.89M348.105 386.768l.102-4.314M343.556 383.75l2.265 1.655 2.284 1.363M348.35 367.76l4.442 3.144M348.207 374.384v-5.04l.143-1.584M352.915 365.167l4.864 3.691M352.915 365.167l-.123 5.737M352.792 370.904l2.586 2.112M352.792 370.904l.092 6.99M476.832 210.525l.566-.36 2.226-1.695 3.444-2.772 1.237-1.148 2.474-2.261 1.77-1.404 1.826-2.079 1.712-2.206 1.142-1.513.933-1.459.78-1.641.57-1.185 1.237-2.042.78-1.75.628-1.35.666-.985.742-1.13v-.984l-2.493-2.863-4.775-5.47-1.808-2.024-1.028-1.313-3.12-3.41-1.58-1.841-2.207-1.787-1.712-1.386-1.941-1.732-1.732-1.404-2.168-1.24-1.428-.31-1.484-.182-2.15-.711-2.245-.912-3.14-1.039-.799-.474-4.148-2.625-1.94-1.368-3.122-2.298-2.188-.838-4.243-1.897-1.427-.547-4.32-1.422-1.293-.438-3.901-1.513-1.503-.693-4.32-1.787-2.13-.675-2.722-1.02-1.617-.566-2.626-.71-1.199-.274-4.338-.237-1.846-.274-4.89.11-3.786.218-3.216.22-2.697.477M476.832 210.525l-3.735 2.375-4.414 2.552-.713.352-.976.638-.504.369-1.08.575-1.075.56-1.313.697-1.426.743-.78.465-.534.27-1.098.646-.823.566-.947.269-.552.1-.794.246-.51.25-1.018.689-.58.551-1.394 1.186-.989.97-1.09 1.108-1.04.893-.543.402-1.375.765-.395.347-.956.807-1.241.665-.71.27-1.198.464-.766.164-1.427.169-.652.196-.99.278-.413.136-1.818.62-.65.283-2.432.866-1.522.37-.414.045-1.446.287-.447.192-1.608.706-.88.46-.485.37-1.104 1.007-.28.323-.457.657-.519.811-.485.73-.504 1.025-.88 1.03-.4.365-.547.679-.066.547.123.42-.104.665-.343 1.003-.314.447-.59.756-.4.838-.713 2.052-.333.912-.133.464-.504 1.778-.914 2.425-.647 1.787-.79 2.998-.39 1.6-.932 2.102M563.784 431.288l4.985.218.533-.145.686-.51-.19-3.009M563.897 428.346l1.68-.15 4.221-.354M563.784 431.288l.113-2.942" clip-path="url(#paed26f5dba)" style="fill:none;stroke:#000"/><path d="m634.378 611.981 1.598-1.094.989-1.713.228-.911-.114-2.224.19-1.203-.076-.765-.304-.51-.875-.984-.838-1.86-.266-3.135-1.826-8.129-3.692-6.524-1.788-1.677-.229-1.422-.343-.911-.57-.838-.875-.656-1.675-.365-1.027-.583-.723-2.115-.496-.875-.988-.874-1.827-.875-.99-.985-.267-.837-.151-1.495-.381-1.64-.99-2.698-1.674-4.01-.913-3.244-1.104-1.495-6.24-2.442-4.986-4.01-1.903-2.332-.99-.948-.722-.474-1.751-.838-2.74-1.021-1.141-.073-2.208.693-2.511-.839-1.485-.693-.342-.4-1.066-.84-2.093-2.332-.876-.51-.684-.073-.685.292-.533.4-.761.984-.495 1.386-.304 2.625-.495 1.24-.533.655-.913.656-1.903.729-2.17 2.625-.875.583-.722.145-1.599-.181-1.218-.511-.342-.328-.419-.656-.533-1.604-.533-3.426-.418-.62-.533-.401-1.674-.51-1.674-.146-1.257.146-3.92 1.057-1.597.109-.457-.11-.8-.437-3.272-2.114-.57-.765-.077-1.604.19-1.021 1.903-3.718 1.408-1.167 5.708-3.353 10.047-4.812 4.719-2.552 3.045-2.041 2.55-2.077 1.56-1.969.532-.912.304-.947.61-2.953.799-1.64 1.142-1.568 1.864-1.385.495-.51.685-1.167.761-1.968 1.598-2.77.99-3.974.647-7.727.684-5.03.077-4.266-.304-2.005-.61-1.64-.798-1.276-5.024-6.197-1.256-.729-.723.037-2.664 1.567-1.674.802-3.235 2.99-1.98 2.624-1.902 2.187-1.065 1.422-.305.218-.99 1.604-.265.182-1.484.547-1.143.62-1.294.437h-1.407l-.914-.218-1.027-.584-.152-.328.038-.729.684-1.349 2.056-2.223.304-.693.114-.655-.037-1.277.151-.911 1.484-2.953.457-1.785.039-1.24-.153-.693-.38-.874-1.18-1.422-.914-.875-4.985-3.755-.913-.874-.913-1.24-.571-1.093-.495-1.713-.038-6.817.38-1.786.685-1.969.61-1.057 1.788-2.223.457-1.203v-.73l-.304-1.275-1.447-4.01-.076-1.203.19-.911.305-.474.685-.255 4.3.4M250.65 319.427l-.741-.14M202.066 395.58l6.265-4.518.52-.239.135-.06 1.148-.261 2.777-1.631 2.093-.146 1.979-.365 4.376-2.26 4.072-2.771 4.34-2.406 11.149-5.47 1.218-1.276 4.795-6.307 1.294-4.34.99-3.646.114-6.271.19-3.245.57-17.356.56-13.585M369.905 398.624l.87-1.35 2.438-3.678 2.663-3.152 1.105-1.108M396.824 477.902l-1.7-5.21-3.287-9.672-.462-8.786.042-.848" clip-path="url(#paed26f5dba)" style="fill:none;stroke:#000"/><path d="m417.825 431.116-3.765 2.706-1.231 2.844-1.449 7.354.797.624-.797 2.636-1.448 1.388-4.417 3.468-4.127 3.815-.812 1.496-.61 1.506-.47.271-.42.007-1.334-.43-1.462-.635-1.131-.618-.796-.647-2.936-3.515M313.08 267.894l1.083-3.757M309.425 261.675l.356 1.255 1.523 2.807 1.777 2.157M309.425 261.675l5.1.137M302.517 253.284l.338.73 3.464 3.738 2.759 2.698.347 1.225M309.89 316.46l-1.127-5.788M309.89 316.46l2.789-1.155M308.763 310.672l2.727 3.227M308.763 310.672l-7.597-10.908M306.876 295.123l-1.032 1.42 2.919 14.13M306.876 295.123l1.426-1.965 1.434-2.453-1.639-9.174-3.328-3.581-2.765-6.23-2.508-3.337-3.994-2.404-11.162-2.698-3.943-.981-3.02.343-3.687-1.668-8.653-.883-4.608 1.717-2.816.393-2.151-.197M251.208 243.027l3.62-1.318 6.444-2.013 5.141-2.428 4.635-.832 3.547.763 11.731 4.302 9.413 5.134 3.476 4.024 3.302 2.625M287.485 221.28v1.418l4.489 8.187M294.774 226.85l-1.249 2.434-1.551 1.6M287.485 221.28v-6.353l1.81-12.975 3.186-25.603 2.606-2.22-.072-4.996-.796-2.914 1.376-6.315.361-6.314.218-6.87 1.882-.831 1.81-3.47 1.883-2.428 3.983-8.396 3.693-4.65.724-7.493 2.607-1.042 4.055.209 7.023-1.11 4.78-2.29M287.485 221.28l-5.37-2.764M505.946 231.25l-28.253-19.311-.861-1.414M361.663 353.024l-.3-.589-.394-.51-.195-.25-.704-.559M396.824 477.902l10.257-1.47M358.214 580.463h1.57l.988-.559 1.032-1.72.36-3.095-.405-2.364-.359-2.235-.224-2.665-1.212-5.631 1.123-4.73-.494-7.651.18-2.88.403-8.426.494-3.61 1.526-3.998 2.827-3.955 2.871-3.44 1.526-2.149 2.692-3.18 4.487-5.546 3.635-3.181 1.526-1.376.538-1.934v-1.548l2.11-3.225 2.557-4.212.628-2.193 1.257-13.541.583-1.247 6.39-2.27M407.081 476.432l-.628-3.654M407.081 476.432l.897-1.548M353.026 382.528l-.01-.805M353.026 382.528l-4.819-.074M348.207 382.454v-8.07M357.78 368.858l-2.402 4.158M353.377 378.265l1.052-2.556.949-2.693M353.377 378.265l-.493-.37M353.377 378.265l3.883 2.915M348.207 374.384l4.677 3.51M357.26 381.18l-.965 2.049M357.26 381.18l3.744 2.812M361.004 383.992l-4.261 8.656M352.884 377.895l.132 3.828M233.364 316.177l16.545 3.11M233.364 316.177l1.784-3.52M202.702 314.99l16.042-.836 5.56.32 9.06 1.703M239.84 303.4l-4.692 9.256M239.84 303.4l15.924-4.61M204.1 310.652l2.68-1.43 2.954-.262 1.948.204.517-.584.792-.087 12.513-2.64 14.336-2.452M235.148 312.656l15.496 2.715M250.644 315.371l-.735 3.917" clip-path="url(#paed26f5dba)" style="fill:none;stroke:#000"/><path d="m306.876 295.123-7.437-6.636-7.49-4.608-5.17-.484-8.179.53-3.636 1.128-10.086 10.646-2.1 2.747-4.59 2.487-4.165 1.438-3.38 13M318.506 308.068l-7.342-8.984-4.288-3.961M318.506 308.068l-7.016 5.831M334.82 325.205l-2.165-1.732-2.919-3.165-5.734-6.573-4.627-5.04-.87-.627M129.802 278.217l2.663 7.84 3.057 9.908.875 2.573 1.188 2.487 1.364 2.247 2.537 3.226 2.344 2.147 1.638 1.238 4.198 2.865 4.737 2.344 4.742 1.443 5.944.415 37.613-1.96M204.1 310.652l-1.065 1.75-.333 2.588M204.1 310.652l-2.039-.759M311.49 313.9l1.189 1.405M353.016 381.723l3.28 1.506M356.295 383.229l-1.04 2.182M355.256 385.411l2.95 1.933M389.857 294.351l-1.702-1.518M389.857 294.351l-1.916 4.827M410.897 302.46l-1.34-.992-.73-.7-2.71-1.546-7.276-.38-6.644-2.916-2.34-1.575M390.748 283.665l1.76 6.718-2.651 3.968" clip-path="url(#paed26f5dba)" style="fill:none;stroke:#000"/><path d="m383.66 301.255 2.45-3.146 3.747-3.758M415.85 282.366l-2.366 5.304-.03 1.138-2.192.379-1.096.934-.305.729-2.161 1.312-.7 1.489.305 1.516 1.156.583.396 2.13 1.492 1.721.67 1.371-.122 1.488M386.045 303.751l1.896-4.573M386.045 303.751l-.243.585M383.66 301.255l.323.505 2.062 1.991M380.878 296.917l2.782 4.338M345.264 314.158l-1.894-4.639M415.85 282.366l-7.693-1.842-6.637-2.422-3.471-1.867-7.3 7.43M415.85 282.366l2.292.55 5.237.32M312.679 315.305l.755.37M129.802 278.217l18.348-11.454" clip-path="url(#paed26f5dba)" style="fill:none;stroke:#000"/></g><g id="PatchCollection_1"><path d="m363.004 359.065 10.6-2.408.657 1.843.218 1.863-.109 2.283-.218 1.633-.197 1.718-.372.376-1.158.273-1.574.167-.983.21-.984.272-.569.042-1.486-.482-1.049-.712-1.05-1.277-.94-1.948-.567-1.906-.328-1.381zM367.783 368.563l-.205 1.816.708 1.836.662 1.553-.89.919-.183 1.75.137 1.486.821.657 1.37-.285 1.14-1.268 1.188-1.444 1.141-1.837.707-1.18-.136-1.29-.091-1.838-.229-1.05-.502-1.115z" clip-path="url(#paed26f5dba)" style="fill:#00f;fill-opacity:.8"/></g><g id="PatchCollection_2"><path d="m395.167 360.631.894-.756 1.237.1.827.957-.124 1.24-1.018.757-1.17-.164-.78-.957zM386.74 379.436l1.91.11-.087-2.555-.68-.389-1.143-.032zM341.974 330.667l1.19-2.608-1.485-.642-1.307 2.633zM376.764 341.366l1.156.11 1.227.939.148.578-.39.429-.818-.16-1.57-1.19-.043-.455zM350.437 336.963l1.99.58.397-.58-1.678-1.077zM371.096 335.982l1.064.779.7-1.102-1.427-.29zM389.27 326.019l1.72-.381-.497-1.495z" clip-path="url(#paed26f5dba)" style="fill:green;fill-opacity:.8"/></g><g id="PatchCollection_3"><path d="m378.68 364.202-2.062.29-.548-3.192 2.033-.29zM343.85 320.03l3.984 1.216 1.768-5.313-3.984-1.217z" clip-path="url(#paed26f5dba)" style="fill:#90ee90;fill-opacity:.8"/></g><g id="PatchCollection_4"><path d="m391.706 353.839.614 2.563 1.794-.43-.682-2.513zM392.418 356.79l-.39-1.471-2.624.606.371 1.475zM408.916 350.22l.095.605 1.21-.173-.095-.606zM408.48 350.268l.685-.156-.107-.432-.684.156zM408.047 348.113l.909-.106-.07-.55-.909.106zM408.502 347.367l-.077-.481-.613.09.076.481zM408.04 346.746l.73-.167-.112-.449-.728.167zM407.144 345.271l.087.505.741-.117-.086-.505zM407.466 344.955l.609-.1-.09-.497-.609.102zM374.233 379.134l.099.092.459-.451.208.193-.564.555-.307-.286zM388.47 347.005l.13.397.844-.254-.301-.92-.53.16.172.522zM375.77 327.895l-.556-.238.618-1.326.555.237zM390.255 318.548l-.423-.173.405-.904.422.173zM621.769 419.853l.156-.44-.654-.213-.157.438z" clip-path="url(#paed26f5dba)" style="fill:#a9a9a9;fill-opacity:.8"/></g></g></g><defs><clipPath id="paed26f5dba"><path d="M90 105.283h558v516.633H90z"/></clipPath></defs></svg>