<svg xmlns="http://www.w3.org/2000/svg" xmlns:xlink="http://www.w3.org/1999/xlink" width="960" height="960" viewBox="0 0 720 720"><defs><style>*{stroke-linejoin:round;stroke-linecap:butt}</style></defs><g id="figure_1"><path id="patch_1" d="M0 720h720V0H0z" style="fill:#fff"/><g id="axes_1"><path id="patch_2" d="M90 615.646h558V111.554H90z" style="fill:#fff"/><g id="LineCollection_1"><path d="m368.45 409.685-.155-4.619M368.45 409.685l-.17.59M368.45 409.685l.2.557M401.095 407.409l-2.553-1.145M408 412.46l-.676-.959-.82-.845-1.403-1.153-1.654-.972-2.352-1.122M396.85 415.707l2.511-4.943 1.734-3.355M382.903 401.219l.957 1.434M382.903 401.219l.267-.55M382.903 401.219l-5.243 3.371M427.68 433.291l.472.53M408 412.46l.705 1.3.582 1.581.835 3.164.64 2.072.54 1.193.69 1.186 1.063 1.288 1.368 1.198 1.762 1.026 7.84 4.21 1.62 1.005 2.035 1.608M431.154 438.426l-.187-1.234-.237-.784-.396-.71-.446-.577-.446-.482-1.762-1.348M460.538 384.515l-1.158 5.885-.346.77-.64.537-.892.248-.884.054-3.986-.074-1.604.04-1.668.248-1.763.563-5.884 2.608-9.797 4.437-11.185 4.96-4.567 2.467L408 412.46M369.603 423.264l.31-1.223M369.603 423.264l2.345-.16M369.345 428.371l-.03-.804-.02-1.528.086-1.4.222-1.375M377.66 404.59l-2.82-3.747M377.66 404.59l2.323 3.305M368.65 410.242l.466-.249 1.158-.648 7.386-4.755M431.154 438.426l-.775 1.705M502.135 506.019l-.439-1.441-.669-1.233-1.15-1.515-.907-.738-1.057-.556-1.374-.429-6.812-.837-1.712-.356-1.072-.401-1.539-.785-1.18-.817-1.208-.965-2.648-2.99-6.977-8.103-1.2-1.246-2.504-1.944-3.28-2.634-1.417-1.233-.748-1.08-.684-1.44-1.884-5.168-.56-1.28-1.137-1.816-5.841-8.331-.835-.986-.618-.717-.899-.77-.756-.543-1.424-.704-2.021-.556-7.394-1.85-1.554-.67-.907-.658-.683-.65-.748-.884-.424-.657-.885-1.776-3.834-8.834" clip-path="url(#p4449a39529)" style="fill:none;stroke:#000"/><path d="m428.152 433.82.744.832.82 1.153.733 1.274.705 1.347M385.184 394.362l-4.47 2.831M385.184 394.362l-2.467-2.715M385.184 394.362l2.06 1.652M367.374 389.924l.18.67M367.374 389.924l4.424-3.224M363.741 384.95l2.834 3.5.453.737.346.737M356.843 377.188l.597-.596M356.843 377.188l-1.604 1.408M356.843 377.188l3.59 3.814M368.64 374.99l1.798-1.274M368.64 374.99l-2.352 1.682M368.64 374.99l3.244 3.928M375.818 383.596l-4.02 3.104M375.818 383.596l-3.934-4.678M375.818 383.596l1.493 1.793M368.295 405.066l6.545-4.223M367.553 390.594l.188 1.006.107 1.414.447 12.052M618.398 207.037l1.203 4.847M618.398 207.037l4.957-1.048M618.398 207.037l-4.943.937M602.326 208.104l.396 1.936M613.455 207.974l1.23 4.83M613.455 207.974l.126-.213M607.424 209.14l5.144-.969.887-.197M607.424 209.14l-4.702.9M607.424 209.14l1.13 4.796M556.028 173.37l.587.158 1.086.107 1.906.007 1.525-.067 1.294-.02.36-.014.504.074.82.295 3.3 1.473 5.562 2.496 2.436 1.151 2.052 1.356 1.827 1.409 1.525 1.408 1.165 1.126 1.381 1.61 2.086 2.614.834 1.032.792.845 1.323 1.395 1.367 1.287 3.582 3.353 1.007.737 1.223.644 9.193 4.37.748.564.374.443.215.416.633 2.252.689 3.248M602.722 210.04l1.137 4.74M625.616 210.77l.301.007M619.6 211.884l5.281-1.006.735-.108" clip-path="url(#p4449a39529)" style="fill:none;stroke:#000"/><path d="m623.915 205.87.645 1.393 1.056 3.507M619.6 211.884l1.553 6.913M619.6 211.884l-4.916.92M614.684 212.804l-3.067.558M614.684 212.804l1.016 4.986M611.617 213.362l1.263 5.505M611.617 213.362l-3.062.574M608.555 213.936l1.29 5.595M608.555 213.936l-4.696.844M603.86 214.78l-.34.065M603.52 214.845l1.237 5.597M536.14 236.101l5.283-2.695 9.617-5.182 3.208-1.723 1.31-.644.985-.483.906-.456.734-.341 1.136-.436 1.453-.516 1.295-.483 1.266-.423 1.162-.35 1.161-.326 1.11-.236 3.07-.603 28.193-5.35 5.491-1.009M615.7 217.79l.093.403M621.153 218.797l-.808-.345-1.665-.487-1.17-.18-1.81.005M615.793 218.193l-2.913.674M615.793 218.193l1.173 4.868M625.349 221.64l-.646-.585-2.12-1.412-1.43-.846M612.88 218.867l1.167 4.77M612.88 218.867l-3.036.664M609.844 219.53l-5.087.912M609.844 219.53l1 4.7M610.844 224.23l-4.392.934-.234.01-.155.01-.112-.081-.05-.097-.05-.171-.064-.276-1.03-4.117M625.349 221.64l-8.383 1.42M616.966 223.06l-2.92.578M616.966 223.06l1.296 5.743M614.047 223.638l-3.203.592M580.783 307.48l6.767-5.6 5.71-5.116.97-1.2.658-1.023.483-1.116.357-1.37 1.79-7.285.802-2.936 6.466-18.745 3.46-9.878 2.883-7.302.26-.827.223-1.016.352-3.274.022-2.438.155-2.846.194-2.705.004-.674-.029-.673-.126-.885-.18-.728-.363-1.609-.797-4.004M521.678 251.548l1.324-1.267 1.61-1.71 7.162-8.45 1.949-2.28.95-.777.816-.583.651-.38M536.366 226.353l-.187.55-.226.486-.27.426-.284.42-.09.23-.086.403-.03.54.073 1.089.41 2.587.464 3.017M445.992 308.498l9.884-8.675 10.617-9.257 2.727-2.212 2.237-1.63 2.273-1.602 2.453-1.575 2.524-1.472M505.462 266.115l-2.535 2.3-2.504 2.113-1.014.73-1.036.63-.993.523-2.158.979-4 1.73-1.963.925-6.272 3.553-4.28 2.477" clip-path="url(#p4449a39529)" style="fill:none;stroke:#000"/><path d="m467.91 239.595.957 2.567.288.44.417.318.852.389.245.238.1.338-.032.54-.288.68-.56 1.02-.986 1.4-1 1.389-.18.429-.028.74.237 4 .036.67-.014.757-.065.597-.173.811-.05.704.288 7.502.15 5.762.13 1.88.37 1.673.26.745.204.308.32.305 6.575 4.368 2.744 1.91M424.005 327.258l8.93-7.266 13.057-11.494M481.663 357.896l-.118-1.614-.168-1.297-.403-1.25-.625-1.17-.858-.943-5.711-4.826-5.769-5.43-5.567-6.268-1.798-2.52-1.03-1.884-.531-1.615-.166-.966-.194-3.573-.417-2.366-1.173-4.492-.345-.824-.554-.785-.64-.69-.849-.596-1.924-1.18-1.57-.991-2.296-1.711-2.965-2.407M424.005 327.258l-1.12.532-4.56 3.929M418.753 332.162l4.482-3.962.77-.942M408.086 340.542l.367.344M408.086 340.542l-2.244 1.876M408.086 340.542l-4.157-4.056M408.086 340.542l10.239-8.823M408.453 340.886l5.777 5.59M408.453 340.886l2.467-2.054M408.453 340.886l-2.215 1.901M405.842 342.418l.396.37M405.842 342.418l-4.028-4.069M405.842 342.418l-2.054 1.71-.36.339M406.238 342.787l5.564 5.734M403.76 344.824l.42-.308 2.058-1.729M402.966 345.158l-2.34 1.687M402.966 345.158l.795-.334M402.966 345.158l.463-.691M393.24 345.603l-2.604-5.498M393.24 345.603l2.863 4.631M393.24 345.603l-6.495 6.3M393.24 345.603l3.258-2.722M416.53 344.51l-2.3 1.966M416.53 344.51l-1.999-2.011M422.012 335.534l1.547 1.528.15.279.011.295-.119.29-2.366 2.18-4.704 4.404M414.23 346.476l-2.428 2.045M416.598 348.502l-5.196 4.38M411.802 348.521l-2.536 2.176M396.103 350.234l.59.858M400.626 346.845l-2.746 1.979-1.777 1.41M390.348 355.541l1.903-1.771 3.852-3.536M409.266 350.697l2.136 2.185M409.266 350.697l-2.439 1.97M403.76 344.824l.573.575 4.933 5.298M405.36 350.985l1.467 1.683M386.745 351.904l-6.129 5.771M386.745 351.904l3.603 3.637M404.152 356.542l-.486-.676-.054-.195.054-.231.187-.228 2.974-2.544M411.402 352.882l2.288 2.427M404.152 356.542l1.086 1.026.226.06.252-.006.356-.178 5.33-4.562M413.69 355.309l7.856-6.84M406.403 361.503l3.964-3.399 3.323-2.795M377.89 355.054l2.726 2.621M390.348 355.541l-3.704 3.441M390.348 355.541l3.661 3.522M397.44 355.8l-3.43 3.263M399.98 361.08l.158-.83.155-.282.248-.285 3.61-3.14M350.456 358.171l3.654.858M380.616 357.675l3.654 3.533M380.616 357.675l-5 4.659M354.11 359.03l3.215 1.045M355.728 351.689l-.726 2.809-.058.409.043.422.101.684-.043.335-.935 2.681M386.644 358.982l-2.374 2.226M386.644 358.982l3.646 3.577M394.01 359.063l-3.72 3.496M399.98 361.08l-3.288-.247-.662-.141-.496-.262-1.525-1.367M357.325 360.075l-.805 1.368M362.522 363.584l-.792-.538-3.614-2.582-.79-.39" clip-path="url(#p4449a39529)" style="fill:none;stroke:#000"/><path d="m362.522 363.584.55-.69.094-.322-.026-.248-.154-.302-2.136-2.121-1.331-1.354-.248-.208-.23-.07-.212.03-.202.117-.654.748-.648.91M399.98 361.08l6.423.423M392.355 369.094l6.236-5.231.856-.96.353-.663.151-.684.029-.476M384.27 361.208l-4.977 4.632M384.27 361.208l3.69 3.546M356.52 361.443l4.308 3.787M352.995 364.827l1.597-1.602 1.928-1.782M375.617 362.334l3.676 3.506M375.617 362.334l-3.683 3.466M390.29 362.559l-2.33 2.195M362.522 363.584l-1.694 1.646M369.064 368.541l-3.748-3.412-1-.657-1.794-.888M387.96 364.754l2.352 2.353M387.96 364.754l-4.912 4.598M352.995 364.827l2.712 2.454M331.844 359.431l5.693-.516 1.223-.013 1.036.12 1.323.376 2.791 1.24.727.356 1.143.505 7.215 3.328M354.682 371.159l-3.507-3.181-.374-.419-.111-.301.021-.232.284-.358 2-1.84M360.828 365.23l4.273 3.888M360.828 365.23l-3.496 3.452M370.718 366.933l.24-.212.722-.67.254-.251M375.096 369.748l-.925-.952-1.46-1.877-.342-.456-.435-.663M379.293 365.84l-4.197 3.908M379.293 365.84l3.755 3.512M370.718 366.933l-1.654 1.608M370.718 366.933l3.317 3.827M390.312 367.107l-5.2 4.498M390.312 367.107l2.043 1.987M369.064 368.541l3.503 3.506M357.332 368.682l-2.65 2.477M357.332 368.682l-1.625-1.4M357.332 368.682l4.23 3.814M365.1 369.118l5.338 4.598M365.1 369.118l-3.538 3.378M383.048 369.352l-.231.222M382.817 369.574l2.295 2.03M382.817 369.574l-3.647 3.381M375.096 369.748l4.074 3.207M374.035 370.76l.233-.228.62-.562.208-.222M374.035 370.76l3.89 3.311M374.035 370.76l-1.468 1.287M385.112 371.605l2.208 1.796M385.112 371.605l-3.568 3.244M372.567 372.047l-.77.63M361.562 372.496l4.726 4.176M361.562 372.496l-4.122 4.096M371.798 372.677l3.69 3.56M371.798 372.677l-1.36 1.039M379.17 372.955l2.374 1.894M377.926 374.071l.287-.238.736-.66.221-.218M387.32 373.401l-3.338 2.923M387.32 373.401l5.035-4.307M377.926 374.071l-2.438 2.166M381.544 374.85l2.438 1.474M351.305 375.063l1.805 1.61M375.488 376.237l-3.604 2.68M383.45 383.51l-6.215-5.725-1.747-1.548M394.016 383.787l-1.006-.673-.698-.48-4.391-3.68-2.19-1.632-1.749-.998M354.682 371.159l-1.148 1.072-.158.218-.007.188.209.295 3.862 3.66M366.288 376.672l-1.673 1.212M353.11 376.672l-1.774 1.704M353.11 376.672l2.129 1.924M364.615 377.884l3.183 4.05M364.615 377.884l-4.183 3.118M348.578 390.118l.295-1.688.195-.758 1.77-4.015.718-1.28.626-.872 3.057-2.909M371.884 378.918l-4.086 3.016M398.757 379.434l10.099 1.2M398.757 379.434l-1.13 2.487M394.331 371.056l5.059 5.02.23.315.05.278-.05.392-.863 2.373M408.856 380.634l11.207 1.14M408.856 380.634l-.36 2.507M421.854 379.146l-11.66-1.174-.576-.02-.226.08-.144.185-.112.352-.28 2.065M360.432 381.002l3.31 3.948M360.432 381.002l-7.732 5.671M420.063 381.773l.633-.486M417.315 384.052l.978.087.338-.006.248-.107.263-.252.92-2M367.798 381.934l4 4.766M367.798 381.934l-4.057 3.016M397.628 381.92l-.486 1.12M397.628 381.92l10.868 1.22M408.496 383.14l8.819.912M408.496 383.14l-.316 2.561M383.45 383.51l-.673.493M383.45 383.51l1.791 1.775M396.37 383.924l-.331.162M397.142 384.304l-.182-.236-.277-.136-.313-.008M396.37 383.924l.772-.884M396.039 384.086l-.161.218-.052.261.067.258M396.039 384.086l-.683-.1-1.34-.199M417.315 384.052l-3.194 2.32" clip-path="url(#p4449a39529)" style="fill:none;stroke:#000"/><path d="m394.016 383.787.982.62.895.416M382.777 384.003l-3.916 3.247M377.31 385.39l3.367-2.682.324-.15.194-.01.183.056 1.399 1.399M397.142 384.304v-1.264M397.142 384.304l.052.258M408.18 385.701l-9.272-.978-1.714-.16M397.194 384.562l-.134.366M395.893 384.823l.205.235.3.12M363.741 384.95l-3.726 3.319" clip-path="url(#p4449a39529)" style="fill:none;stroke:#000"/><path d="m396.397 385.178.37-.038.293-.212M397.06 384.928l.104 1.33M396.397 385.178l.767 1.08M385.241 385.285l-4.805 3.781M385.241 385.285l1.903 1.73M377.31 385.39l.767.941M408.18 385.701l-.367 2.574M414.121 386.372l-1.388-.181-4.553-.49M397.164 386.257l.37 1.04M378.077 386.331l-4.258 2.755M378.077 386.331l.784.919M414.121 386.372l-3.165 2.285M371.798 386.7l2.02 2.386M348.578 390.118l.869-.84 3.253-2.605M355.042 388.5l-.371.137-.226-.047-.231-.178-1.514-1.739M387.144 387.015l1.1 1.06M383.407 390.056l.43-.367 3.307-2.674M397.534 387.297l10.279.978M397.534 387.297l.734 2.614M378.86 387.25l1.576 1.816M388.244 388.076l-5.527 3.571M391.207 393.775l-.96-2.316-.345-.825-.316-.602-.496-.812-.846-1.144M360.015 388.269l2.503 2.761M355.042 388.5l2.679-1.954.266-.077.223.016.244.114 1.561 1.67M407.813 388.275l-.331 2.54M410.956 388.657l-1.064-.14-2.08-.242M355.042 388.5l6.353 6.688M407.482 390.816l.611-.242.828-.429 2.035-1.488M380.436 389.066l.525.684M373.819 389.086l-3.942 2.47M373.819 389.086l1.791 2.373M364.143 389.613l-1.625 1.417M380.961 389.75l-3.85 2.444M380.961 389.75l1.756 1.897M398.268 389.91l9.214.906M398.268 389.91l.489 1.475M391.207 393.775l3.37-1.994.837-.494 1.527-.86.532-.241.467-.168.328-.107M341.867 410.033l.547-2.126 3.374-10.851 1.114-3.103.91-2.306.518-1.09.248-.439M367.553 390.594l-3.395 2.34M407.482 390.816l-.23 1.937M362.518 391.03l1.64 1.904M375.61 391.46l.86 1.139M375.61 391.46l-2.38 1.427M382.717 391.647l-4.093 2.66M377.112 392.194l-.643.405M377.112 392.194l1.512 2.114M376.47 392.599l-2.341 1.577M364.158 392.934l-2.763 2.254M373.23 392.887l.899 1.29M374.84 400.843l-3.981-5.623-.058-.316.015-.244.126-.228.23-.157 2.058-1.388M374.129 394.176l1.41 2.025M378.624 394.308l2.09 2.885M378.624 394.308l-3.085 1.893M361.395 395.188l-.934.795M387.244 396.014l3.963-2.24M383.17 400.669l3.308-3.988.356-.362.41-.305" clip-path="url(#p4449a39529)" style="fill:none;stroke:#000"/><path d="m398.542 406.264-.476-.213-1.453-.75-.913-.684-2.424-2.433-3.324-3.553-2.708-2.617M360.461 395.983l.266 1.703M360.461 395.983l-1.593 1.25M375.54 396.2l-.768.484M380.715 397.193l-5.875 3.65M380.715 397.193l2.455 3.476M383.86 402.653l-3.877 5.242M383.86 402.653l1.582 2.292M385.442 404.945l-3.783 5.303M387.183 407.546l-.805-1.287-.936-1.314M379.983 407.895l1.676 2.353M374.085 418.036l-.317-.71-.061-.322.036-.295.5-.831 1.941-2.67 3.799-5.313M314.545 432.176l7.376-7.149 1.223-1.052 1.165-.778 2.021-1.166 4.374-1.977 5.25-2.56 2.223-1.134.971-.643.705-.717.569-.805.46-1.112.427-1.207.558-1.843" clip-path="url(#p4449a39529)" style="fill:none;stroke:#000"/><path d="m358.868 397.234-4.104 3.288-4.768 3.559-4.87 3.559-3.259 2.393M381.659 410.248l2.453 3.431M376.228 417.875l2.356-3.359 3.075-4.268M384.112 413.68l-3.007 6.403M384.112 413.68l3.071-6.134M384.112 413.68l1.848 2.392M623.882 194.164l2.61-3.363 2.278-3.277.739-1.29.906-1.677.662-1.515.82-2.495 2.373-7.2.317-1.355.139-1.101.091-2.573" clip-path="url(#p4449a39529)" style="fill:none;stroke:#000"/><path d="m637.27 189.335-1.561-13.48-.504-5.392-.388-2.145M632.6 150.837l.548 4.634 1.669 12.847M625.917 210.777l.283-1.533.244-1.22.407-1.144.92-1.913.757-1.19.533-1.29.287-1.3.1-1.326-.069-.849-.028-.75.085-1.1.13-.791.158-1.1.36-1.113.446-.952.791-.871.763-.724.575-.47 1.108-.537 2.353-.746 1.15-.523M460.538 384.515l8.315.858 3.941.188.742-.108.56-.215.41-.209.37-.263 9.432-7.464M538.438 390.045l-1.414-.617-1.438-.3-1.363.019-15.789 2.788-12.89 1.796-2.568.322-1.107-.027-.878-.107-1.064-.275-1.05-.49-1.727-.79-2.028-1.408-2.417-1.99-1.82-1.964-3.18-4.264-1.74-2.533-1.657-2.903M481.663 357.896l1.31 12.2.726 4.606.609 2.6M421.402 380.556l.452-1.41M421.402 380.556l-.178-.003-.172.044-.153.087-.12.124-.077.15-.028.164.022.165M421.907 380.98l-.071-.153-.114-.128-.149-.093-.17-.05M423.206 382.061l-1.503-.478M422.463 380.652l.214.591.159.306.37.512M460.538 384.515l-3.849-.53-4.064-.703-2.359-.141-3.122.214-3.417.51-1.712.16-1.985-.013-1.309-.147-3.28-.503-1.928-.483-2.071-.375-1.942-.06-1.978.154-1.238.087-.935-.06-.726-.128-.849-.234-.568-.202M481.663 357.896l-11.832 12.73-5.74 5.743-1.284 1.609-1.013 1.767-.414.867-.305 1.022-.537 2.88M582.545 434.8l-.628-.512-7.658-5.595-1.521-.961-1.432-.714-19.572-7.226-1.298-.54-1.118-.683-.846-.707-.698-.938-.704-1.22M538.438 390.045l-.194 1.099.028 1.093.224 1.126.453.992 1.172 2.326 1.122 2.286 1.403 3.586 1.2 3.646 1.346 4.222 1.878 5.282" clip-path="url(#p4449a39529)" style="fill:none;stroke:#000"/><path d="m538.438 390.045 6.064-1.06 7.39-1.362 6.63-1.186.29.027.26.11.139.273 1.065 3.386 2.244 5.811 1.04 2.802.06.794-.176.637-.632.808-12.48 11.44-3.262 3.178M367.888 420.684l-2.597.013M367.888 420.684l-.061.107-.072.382.05.523.166.53M369.83 420.764l-.41-.187-.327-.067h-.273l-.436.04-.496.134" clip-path="url(#p4449a39529)" style="fill:none;stroke:#000"/><path d="M368.28 410.274v.278l-.004.245.087 3.536.118 2.296.015 1.266-.187 1.321-.42 1.468M365.291 420.697l.075 1.61M360.727 397.686l.331 1.361.41 1.294.525 1.93.073.462.05 1.254.13 2.936.122 4.598.175 1.22.076.281.173.295 1.446 1.26.377.366.212.322.14.315.09.39.234 4.727M626.115 195.591l-1.186 7.227M626.115 195.591l2.7.334M628.815 195.925l.74-4.557.008-.2-.085-.182-.163-.13-.207-.05-1.412-.163-.255-.01-.241.079-.195.153-.124.208-.766 4.518M628.815 195.925l-1.198 7.177M619.513 199.85l-.926 1.215M623.882 194.164l-2.544 3.28-1.825 2.407M623.987 202.62l-.7-.329-.454-.262-3.32-2.178M624.93 202.818l.109.011M623.987 202.62l.252.118.69.08M627.617 203.102l-.914-.096M625.71 205.535l.605-.113.367-.114.244-.148.18-.274.137-.59.08-.335.121-.396.173-.463M623.915 205.87l-.56.119M623.915 205.87l.628-.117M580.783 307.48l-1.784 1.588-1.078 1.284-.81 1.37-.572 1.251-.55 1.64-.637 1.86-.661 1.317-1.14 1.669-6.021 6.928-1.05 1.143-1.298 1.102-3.845 2.77-1.874 1.276-.777.59-.485.473-.49.633-.384.624-2.597 5.362-1.78 4.006-2.892 8.202-1.395 3.368-2.356 5.708-1.33 4.149-1.235 4.771-2.406 8.203-1.722 6.485-1.176 4.793M369.913 422.04l.025-.545M367.97 422.225l.5.235.418.064.36-.04.266-.135.399-.308M367.97 422.225l-2.604.082M367.97 422.225l.468 1.99.245 1.449.086 2.084.18 4.498M365.366 422.307l-2.503.09M365.366 422.307l.338 10.019M584.207 434.686l-.723.006-.939.108M365.779 434.538l-.075-2.212M369.83 420.764l-.507-1.32-.317-1.395-.129-1.333-.029-2.366-.154-3.623-.017-.24-.027-.245M369.938 421.495l-.043-.466-.065-.265M368.949 432.246l-3.245.08M368.949 432.246l.23 6.079-.023 1.584.045 2.404M365.704 432.326l-2.683.084M370.083 442.298l-.882.015M370.083 442.298l-.2-2.84-.193-1.669-.345-9.418M369.866 447.756l.176-3.941.04-1.517" clip-path="url(#p4449a39529)" style="fill:none;stroke:#000"/><path d="m369.2 442.313.059 1.394.172 1.435.435 2.614M371.02 479.118l-.028-.37-.497-12.741-.237-7.688-.392-10.563M529.367 563.038l-.906-1.173-6.128-8.746-.677-1.44-.302-1.36-.388-1.523-.604-2.251-.734-2.775-1.51-4.49-2.806-7.76-.74-2.661-.116-.617-.021-.556M633.11 564.857l-8.911-2.631-1.093-.269-1.151-.59-1.151-.75-1.266-.965-5.064-5.308-1.496-1.34-1.784-.911-1.381-.764-1.324-.416-1.496-.335-9.322-.053-1.266-.04-1.726-.39-8.114-3.216-1.38-.308-1.44-.43-1.726-.174-1.496.054-1.726.12-2.475.269-13.005 3.378-1.093.16-1.554-.12-1.61-.148-1.44-.71-1.266-.697-.805-1.073-.69-1.166-.519-1.126-.23-1.447-.172-1.233.287-1.247 2.992-7.023v-1.11l-.172-1.448-.288-1.447-.518-1.394-.805-1.072-.863-.982-1.812-1.084-.95-.255-1.466-.013-1.763.16-1.338.168-1.136.348-.978.47-1.238.764-6.754 6.078-1.849 1.569-1.553.864-1.705.697-1.295.234-1.611.101-1.439-.114-1.345-.234-1.273-.436-1.597-.737-1.122-.71-1.014-.798-5.826-4.973-1.072-.918M509.227 525.012l.806.295 1.582.583 1.15.616 1.67 1.18M203.553 289.915l-3.079-3.767-1.043-.945-.697-.463-.993-.476-1.13-.375-2.79-.832-1.238-.502-1.18-.597-3.991-2.011-3.82-1.958-4.984-2.232-2.417-1.133-4.546-2.058-1.057-.383-1.087-.241-.956-.194M157.46 202.868l9.524 22.976.935 2.641.518 1.824.258 2.252.245 3.017.475 3.902.1 3.259v3.754l-.287 6.168-.288 6.865-.288 8.287-.107 3.935M215.292 304.831l-.662-.777-1.467-1.824-5.15-6.958-4.46-5.357" clip-path="url(#p4449a39529)" style="fill:none;stroke:#000"/><path d="m221.32 218.348 3.653 5.9 2.331 3.687 1.51 2.28 3.683 4.988 1.022 1.757.892 1.689 2.33 6.074 2.36 6.664 1.626 4.693 1.093 3.238.719 2.085 2.273 7.24 1.295 3.748.237.751.087.463-.101.369-.202.254-.56.262-1.698.348-4.258.624-1.389.275-1.05.281-.9.436-.97.53-2.964 1.475-1.54.884-3.538 1.944-1.137.71-1.424 1.114-.604.47-.561.308-.59.227-4.79 1.85-4.704 1.838-2.978 1.032-1.611.375-1.583.282-3.726.422M331.844 359.431l-17.152 1.556-1.87.1-1.029-.054M215.292 304.831l.669.63 1.985 1.596 2.31 1.743 2.085 1.38 4.078 2.69 2.799 2.11 1.395.953.92.322 1.036.134 1.295-.054 1.655-.282 5.675-1.676 12.63-3.78 1.18-.302 1.094-.201.906-.034.935.094 2.748.603 6.531 1.522 2.597.738 1.812.676 1.72.859 3.416 1.944 17.81 10.203 4.489 2.634.543.412.417.493.306.55 1.46 3.492 2.237 5.202 1.841 5.39 2.863 8.915 1.647 4.96.475 1.187.374.57.568.53" clip-path="url(#p4449a39529)" style="fill:none;stroke:#000"/><path d="m311.193 361.895.259-.288.341-.574M357.37 365.555l-1.663 1.726M392.355 369.094l1.976 1.962M459.944 129.769l2.334 3.569 2.726 4.257 1.022 1.51.697.878.633.59.472.325.881.419 1.388.49 1.841.375 3.029.456 3.136.496 1.424.396 1.209.57 1.007.724 1.338 1.28 3.718 3.862 3.108 3.373 2.445 2.514 3.31 3.641 1.323 1.562 1.114 1.073 1.245.946 1.244.844 1.273.691 2.266.959 1.137.352.809.174.931.097 2.288-.04 5.79-.469 7.679-.909 9.167-1.005 2.15-.097 1.691.14 1.662.443" clip-path="url(#p4449a39529)" style="fill:none;stroke:#000"/><path d="m556.028 173.37-.363-.097-1.927-.979-10.2-4.881-3.043-1.657-3.064-1.501M521.678 251.548l.496-4.612 1.209-8.528.647-3.594.346-1.81.517-1.582 1.842-5.23 2.92-8.554 3.467-8.086 3.453-7.657 2.661-6.744.418-1.462.129-.979-.115-1.69-.575-5.632-.547-6.242-.063-.591-.628-8.293-.424-6.007M389.068 269.12l-.67-.664-.38-.238-.446-.11-.723.05-1.27.318-5.582 2.052-6.92 2.554-5.602 2.098-1.62.57-.675.09-.64-.103-1.13-.597-1.417-1.14-4.215-3.593-1.899-1.415-5.848-3.546-3.15-1.793-1.108-.553-1.194-.403-1.496-.409-4.532-1.12-6.632-1.575-1.524-.412-.875-.356-.79-.516-.774-.694-1.367-1.2-2.719-3.224-2.87-3.99-.784-1.266-.496-.979-.388-1.073-1.022-3.654-.395-1.247-.748-2.44-1.101-2.81-.367-.57-.482-.428-.784-.476-2.2-.476-7.54-1.468-3.409-.812-.597-.255-.525-.402-.374-.59-.388-1.12-1.216-4.512-1.1-3.66-1.655-6.356-1.618-5.554-.327-.865-.241-.406-.213-.225-.377-.2-.522-.071-1.91.114-5.473.657-3 .268-1.043-.033-.69-.141-1.014-.396-1.713-.932-3.272-2.038-3.827-2.367-3.568-2.232-2.661-1.837-5.467-3.641-.935-.642-3.014-1.946-1.719-1.482-1.51-1.428-4.068-3.818-1.19-1.05-2.964-2.363-1.158-.882-1.51-.871-1.425-.497-6.23-1.89-1.876-.67-2.237-1.1-3.888-2.635-11.139-7.087-1.607-1M171.066 138.178l9.757 6.646 12.388 8.218 6.213 4.105 4.814 3.139 6.961 4.539.824.523" clip-path="url(#p4449a39529)" style="fill:none;stroke:#000"/><path d="m158.974 202.214 4.29-1.971 9.157-4.617 2.533-.905 1.208-.302 1.92-.415.72-.288.642-.495 1.329-1.154 2.841-2.535 2.1-1.794 3.453-3.134 4.69-3.95 4.128-3.694 4.942-4.163 9.096-7.45M157.46 202.868l1.514-.654M138.183 219.16l.77-.403.668-.436.662-.462 2.647-2.072 8.416-6.865 1.582-1.489 1.299-1.337 1.636-2.005.78-.717.817-.506M139.169 177.281l-.288-1.031-.396-1.83-.115-1.77.086-1.194.173-.751.532-1.717.547-2.105v-2.065l-.238-1.911-.309-1.16-.77-1.784-1.266-3.137-.77-1.408-.985-1.281-.626-.812-.704-1.105-.389-.651-1.057-3.064-1.924-5.093-.215-.557M136.468 218.105l.83.508.885.547M135.4 220.239l1.668-.657 1.115-.422M136.468 218.105l-1.069 2.134M144.083 199.844l-.038.342-.194 1.12-.223.91-.676 2.053-1.626 3.44-2.424 5.142-2.434 5.254M144.083 199.844l7.14 1.254 3.1.636 3.126.42.709.07.816-.01M139.169 177.281l.337 1.208 3.036 12.008.374 1.77.877 5.05.202 1.756.088.77M171.066 138.178l1.427-1.414 1.54-1.3 1.482-1.181 2.042-1.65 2.72-2.253 2.129-1.743 2.906-2.374 5.308-4.398.834-.483.475-.134.46.013.389.202 3.855 2.145 5.985 3.286 2.057 1.012 1.029.55.884.771.885.899.928.818 1.194.992.69.778M401.566 207.42l-.982-6.423-1.065-7.04-1.093-7.308-1.036-6.37-.95-6.53-.704-4.633-.49-1.583v-.026l-.625-1.341-1.18-1.81M340.53 163.27l.294-.162.216-.05.299-.034.45-.104.82-.241 1.582-.288 1.805-.222 1.964-.113 1.611.033 3.086.013 2.18-.073 1.963-.262 3.316-.462 2.302-.466.582-.08.483-.041.525.024 1.913.321 3.834.47 4.51.57 2.891.409 1.885.234 2.82.308 5.409.631 4.186.603.813.077.521.007.651-.017M393.398 242.45l1.784-9.815.457-2.708.125-.697.266-1.013.41-.965.612-1.053 1.043-1.401 2.043-2.628 1.323-1.918.471-.84.55-1.432.26-1.308.021-1.247-.129-1.12" clip-path="url(#p4449a39529)" style="fill:none;stroke:#000"/><path d="m401.566 207.42.168 1.073.9 5.813M435.754 213.008l-.694-.419-.507-.21-1-.323-1.079-.251-.658-.087h-.518l-1.655.094-3.035.328-3.273.335-3.424.248-4.028.403-5.243.435-5.284.48-2.722.265M505.462 266.115l8.44-7.527 4.87-4.419 2.906-2.62M505.462 266.115l-.206-.947.011-.386.076-.489-.015-.49-.114-.469-.22-.536-.241-.463-.295-.704-.36-1.055-.176-.668-.176-.972-1.08-5.947-1.078-4.954-1.827-9.299-.42-3.003-.206-.547-.23-.295-.334-.157-.479-.05-1.172.15-2.697.617-2.612.496-.6-.003-.385-.14-.194-.286-.155-.482-.183-1.086-.187-.684-.31-.53-.46-.45-.842-.67-1.539-1.3-1.23-.966-.834-.858-.389-.55-.338-.838-.834-2.333-1.173-3.707-.54-1.214-.323-.436-.366-.288-.634-.308-1.985-.416-6.862-1.033-8.862-1.408-5.625-1.065M437.844 210.856l-1.126.01-.496-.027-.331-.074-.6-.217-1.227-.577-.72-.352-1.068-.593-.428-.155-.381-.073-1.276-.107-3.82-.219-2.913-.134-2.777-.094-2.417-.056-1.301-.08-1.896-.222-1.424-.064-3.381-.063-4.406-.242-3.211-.124-.716-.001-.363.028M389.068 269.12l-.043-1.06.086-.931 1.41-8.313 1.698-8.917 1.042-6.49.137-.958M356.78 221.484l-.088.295-.029.35.054.4.223.798.529 1.216.154.42.004.003.112.533.093.958.008.691-.076.888-.065.597-.251.858-.54 1.461-.108.711-.058.617.015 1.227-.036 1.562.151 1.723.115 1.04.05.452.08.322.222.254.421.141.558.138 2.295.335 5.509.456 3.05.201 5.503.496 3.344.402 4.978.557 6.071.516 4.33.349M171.674 323.011l.618-1.581.964-1.355.993-1.019.863-.75.892-.778.834-.59 1.108-.563.935-.429 1.568-.47 2.23-.643 1.827-.684 1.424-.871 1.87-1.475 1.381-1.046 1.9-1.112 1.05-.59 1.18-.55 1.553-.67 1.611-.724 3.74-1.703 1.626-.47 1.798-.227 1.439-.08 4.948.16 5.266.04M171.674 323.011l-.39 2.374.044 1.448.115 1.541.288 1.033.46.724.605.71" clip-path="url(#p4449a39529)" style="fill:none;stroke:#000"/><path d="m130.904 364.519-.015-1.367.101-.751.287-.59.705-.791 2.676-2.722 3.108-2.909 2.747-2.895 2.36-2.682.662-.496.863-.456 1.18-.523 1.25-.523.921-.228 1.554.027 1.396.04h1.237l1.194-.24.848-.349.562-.47.115-.28-.015-.282-.445-.993-.806-2.037-.288-1.703.158-1.26.36-1.086.59-1.328.59-1.595.978-1.877 1.022-2.025 1.797-2.869 1.684-2.305 1.38-1.489.936-.657 1.554-.979 1.41-.63 1.51-.281 1.985-.121 2.619.214M144.182 411.977l.661-3.177.533-4.465.144-2.4-.015-1.46-.172-.63-.547-1.917-.46-1.676-.245-1.542.043-1.233.187-1.368.49-1.42.748-1.435 1.15-1.555 1.31-1.1 1.222-.858M311.193 361.895l-.31.255-.47.238-1.41.523-6.863 2.278-20.227 7.012-13.781 4.545L253.487 382l-9.38 3.07-11.48 3.807-9.193 2.749-4.704 1.367-4.488.898-3.31.55-2.387.241-1.726.108-2.403-.094-1.884-.309-1.9-.429-4.761-1.367-7.524-1.971-5.007-1.112-9.624-2.132-8.819-1.502-4.761-.938-3.726-.429-2.575-.027-1.654.148-1.381.402-1.569.71M137.435 382.269l.489.442 11.307 3.03M223.609 504.797l.214-.729.618-1.876.792-1.81 1.453-1.903 4.589-4.853 2.841-3.009M314.545 432.176l-1.594 1.544-2.867 3.108-4.088 3.716-2.813 2.326-2.028 1.407-2.112 1.147-1.1.548-4.031 1.971-15.868 8.653-5.59 2.916-1.23.53-1.359.448-5.61 1.388-3.065.891-2.704 1.113-1.496.898-1.057.905-2.878 2.768-11.242 13.116-4.856 5.737-2.172 2.5-.669.811" clip-path="url(#p4449a39529)" style="fill:none;stroke:#000"/><path d="m128.753 566.876 12.345-4.576.75-.28.419-.09.456-.097 1.53-.327.351-.653.047-.874-3.59-9.77-1.401-.158-3.87-5.8-12.618-14.212-3.982-6.374-2.635-5.644-2.356-7.21-1.795-13.586-.392-6.375-.785-8.622-2.187-5.434-2.356-7.107-5.776-17.505-.177-.554 3.623 5.097.925.616 15.942 12.565 10.643 8.192 7.14-3.696 2.973-.924 2.731-.185 15.005-11.394 8.197-6.036 3.038-1.296 4.746-2.264 9.301-4.104.873-.141.57 6.863 1.154 17.908 2.974.985 4.826.616 4.098.123 4.759-.123h.727l.174 1.503.403 1.045.273 1.287.029 1.783.115.737.244.362.374.148.734.133 2.1.148 2.504.415 2.345.336 1.524.026.835-.147.762-.188 3.144-1.628.56-.174.404.02.388.107.64.368 3.74 3.278 4.244 3.525 3.604 3.103M130.904 364.519l.373.416.23.75.82 4.626.62 1.542.79 1.327.979 1.448 1.295 1.796.445 1.032.202.765.187.925.288 2.4.302.723M223.464 575.597l.128-.41 1.727-5.535.763-1.903.402-.979.058-.992-.374-2.506-.36-1.193-.432-1.287-1.87-3.9-.935-2.251-1.05-2.735-.26-.83-.114-.926.029-1.528.1-1.045.26-2.037.56-4.96.188-3.659.129-3.11.409-5.72M223.609 504.797l-1.023 3.48-.705 3.525-.13 1.595.115 1.97.475 2.065.374 1.944.173 2.171.029 3.097-.044 1.956-.051 1.49" clip-path="url(#p4449a39529)" style="fill:none;stroke:#000"/><path d="m187.484 505.931 2.733 1.783.957.537.82.348.726.395.82.624.77.583.834.523 1.36.656 1.582.73 1.835.986.348.228.274.228.165.22.137.269.075.318-.01.259.003.177.05.15.109.185.366.587 1.295.107.55.258.44.231.416.268.442.318.45.513.227.319.273.405.27.482.435 1.24.158.62.248.982.31.915.482.982.996 1.826.496.704.46.341.533.269.31.09 1.269.181 1.41.188 1.658.194 1.898.301 1.914.362.899.168 1.029.067 1.006.04 1.51.002M595.801 157.373l.476-.145 1.323-.43 1.137-.495.863-.55.89-.63M601.405 162.889l-.136-1.638-.676-4.425-.13-1.395.027-.308M595.801 157.373l-1.107.338-2.071.402-2.647.308-3.137.336-4.186.187-2.733.295-1.41.309-.877.2-1.022.35-1.28.603-2.043 1.194-2.316 1.662-2.906 2.32-1.079.845-.978.617-1.569.778-1.826.831-5.597 3.58-.99.842M618.587 201.065l-.86-1.02-1.526-2.28-1.006-1.676-.62-1.046M613.58 207.76l.536-.756.56-.925 1.155-1.594 1.766-2.12.99-1.3M619.366 189.907l1.957 2.012 2.56 2.245M632.6 150.837l-.401-3.385-.331-2.266v-1.167l.058-.624.053-.164M617.05 133.66l2.31 1.32 1.747.993.604.49.532.55.476.482.611.422 1.575.906 1.892.918 1.057.55 1.014.65 1.878 1.308.64.51.593.472M601.405 162.889l2.41-1.088 3.654-1.744 2.892-1.26 1.352-.59 1.942-.657 2.56-.925 3.986-1.502 5.107-1.905 2.877-1.153 1.122-.483.734-.281.676-.201 1.883-.263M601.405 162.889l.027.33M613.58 207.76l-.227-.669-.31-1.025-.596-2.119-1.022-3.5-.734-2.494-.776-2.615-.561-1.408-.676-1.434-.907-1.985-.403-.966-.633-1.783-1.25-3.406-.807-1.998-.446-1.234-.273-.778-.216-.885-.273-1.622-.273-1.69-.46-3.42-.62-3.673-.604-4.855-.081-.982" clip-path="url(#p4449a39529)" style="fill:none;stroke:#000"/><path d="m595.801 157.373 1.354 2.564 1.654 3.272.288.335.302.067.417-.013.777-.161.839-.218M362.974 569.953l-.182.925-.302 1.649-.216 1.77-.144 1.842-.093 1.695-.015 2.795.173 1.97.424 4.765.77 8.544.482 4.577M373.164 507.017l.327 4.873 1.032 12.66.065 3.283-.115 1.998-.194 2.218-.482 2.48-.575 2.285-6.625 20.943M363.202 568.794l.583-2.138.97-3.062 1.842-5.837M342.17 559.653l.492.02 2.01.024 1.19-.104 4.263-.442.82-.155.54-.274 1.69-.945.683-.188 2.517-.2 5.525-.028 2.812.175 1.885.22M342.17 559.653l-.461.288-.46.61-.684 1.193-2.46 4.33-3.309 6.111-2.402 4.41-2.115 4.02-2.676 5.241-1.654 3.029M270.61 538.036l.183-.444.324-.657.856-1.187 1.633-1.943 1.186-1.3.583-.51.72-.402.733-.335 1.064-.342.842-.268.842-.026 2.194.214 2.575.603 1.259.18 1.309.035 1.446-.02.683.113.697.235 2.69 1.428 5.021 2.6 4.057 2.365 7.826 4.35 2.755 1.689.849.469.705.274.56.383.44.435 1.539 1.722.475.443.618.409.9.408 1.532.329 5.869.663.734.12 1.079.383 2.201 1.012 4.848 2.546 1.92 1.28 2.87 1.843 1.59.986.877.81.476.724M270.61 538.036l-.148.36-.172 1.018-.13 4.437-.172 3.793-.022 3.605-.022 1.87-.086 1.307-.317.683-.863 1.18-1.754 2.265-1.698 2.212-1.698 2.05-1.251 1.69-.863 1.34-1.209 1.983-.619.891-.539.65-2.093 1.73-2.992 2.291-4.05 3.297-2.05 1.501-.626.664-.438.704-1.965 4.865-.467.61-.496.268-.54.094-.87-.255-2.209-.999-5.926-3.15-5.64-2.854-3.409-1.528-1.812-1.01M574.21 600.007l-.645.1-9.223 2.62-1.09.163-.982-.082-2.137-.426-1.352-.203-.436-.427-.327-1.24-.349-2.091-.196-6.887-.24-1.158-.349-.975-.654-1.26-1.046-1.28-5.273-5.481-2.863-2.668-3.712-3.203-4.769-4.289-8.214-7.218-.986-.964M363.202 568.794l-.228 1.16M367.036 569.607l-1.928-.015-.626-.034-.532-.215-.748-.549M401.712 515.91l3.792 2.072 9.97 6.038 3.783 2.118 2.625 1.454 3.446 1.917 6.474 3.579 5.883 3.672.115.268.015.221-.209.208-3.05 1.327-2.208.684M371.02 479.118l.418 6.392 1.309 16.474.417 5.033M401.712 515.91l-2.955-1.614-6.632-3.706-4.215-2.266-3.77-1.896-.668-.181-.856-.12-1.043.026-5.711.596-2.698.268M504.89 524.851l-1.201 1.2-1.626 1.632-.906.968-1.396 1.045-4.064 2.93-2.208 1.789-.907.744-.906.482-1.719.563-2.05.784-1.496.79-3.33 2.012-2.274 1.494-2.625 1.896-2.446 1.85-.877.697-.662.818-.561.925-.935 1.95-.446.878-.317 1.119-.373 1.414-.526 2.312-.611 1.649-1.467 3.317-2.273 5.066M502.926 522.17l1.237.71 1.942.838 3.122 1.294M504.89 524.851l.298-.19.28-.115.328-.067.28-.01 1.331.335.673.124.543.09.604-.006M502.926 522.17l.5.657.597.533.45.506.262.389.155.596M502.135 506.019l.014.878-.079 1.032-1.734 5.542-.28 1.08-.079.924.079 1.508.324 1.394.518 1.253.604 1.032.676.825.748.683" clip-path="url(#p4449a39529)" style="fill:none;stroke:#000"/><path d="m471.852 520.046 1.554.496 2.201.576 1.812.282 3.9.59 2.452.428.54-.02.532-.221.417-.543.273-1.018.151-1.81.029-.53.288-.536.388-.382 1.482-1.2 3.165-2.439 2.662-1.762 2.25-1.67 2.044-1.453 1.086-.798.9-.617.74-.53.935-.549.482-.321M367.036 569.607v.768l-.288 2.078-.561 3.27-.302 1.569" clip-path="url(#p4449a39529)" style="fill:none;stroke:#000"/><path d="m371.344 564.163-.54 1.4-.244.913-.072 2.378-.266.537-.438.18-.605.054-2.143-.018M360.727 397.686l-.535-.23-.338-.125-.339-.067-.647-.03M418.753 332.162l1.202 1.294M418.753 332.162l-.428-.443M410.92 338.832l1.575-1.421 6.258-5.249M426.874 331.063l-4.862 4.471M422.012 335.534l-2.057-2.078M414.531 342.499l3.74-3.573 3.74-3.392M425.076 329.119l-5.121 4.337M412.123 340.058l3.904-3.371 3.928-3.231M412.123 340.058l2.408 2.44M412.123 340.058l-1.203-1.226M423.54 371.035l-.212-.69-.49-1.275-.423-.87-.526-.658-4.549-3.965-.367-.234-.41-.194-.507-.131-6.812-1.153-2.841-.362M394.331 371.056l.466-.497.173-.12.248-.084 1.619-.235.32-.1.222-.175.159-.349.06-1.491.173-.623.302-.53.62-.576.69-.33.701-.143.885.003.334-.016.263-.097.575-.433 2.903-2.55 1.359-1.207M422.814 375.822l-.119.482-.841 2.842M403.429 344.467l.332.357M399.174 340.609l3.309 3.391.327.232.227.104.392.13M368.65 410.242l-.175.02-.195.012M371.905 422.051l-.694.211-.316.004-.295-.097-.277-.205-.385-.47M423.637 371.601l-.097-.566M426.779 377.945l-2.214-5.16-.187-.326-.27-.338-.47-.52M422.814 375.822l.334-1.36.425-1.456.079-.644-.015-.761M426.617 370.708l-.858.152-1.15.121-1.069.054M389.068 269.12l.216.945.56 1.642 2.791 6.181.662 1.616.26.771.143.865.151 4.069.201 2.802-.057 1.368-.137.985-.23.986-.654 1.796-2.72 5.766-6.757 11.222-.542 2.286 1.527 12.534.593 2.763M385.075 327.717l-.013.724.064.544.19.852M385.075 327.717l.48.797M314.545 432.176l-.702 1.33-.683.945-.705 1.08-.083.348.004.348.49 2.413.992 4.518 1.704 7.4 3.525 15.804 1.618 8.297.648 2.58.248.57.23.248.49.252.98.25 5.101.436 6.538.785 2.015.167h2.761l6.744-.399 2.953-.197 6.15-.155.856.068.964.261 1.38.697.583.201.813.04.806-.094 8.638-1.058 1.417-.193M401.814 338.35l-2.64 2.259M401.814 338.35l2.115-1.864M401.814 338.35l-4.105-4.207M397.71 334.143l2.963-2.27M397.71 334.143l-2.78 2.128M399.174 340.609l-2.676 2.272M399.174 340.609l-4.244-4.338M400.626 346.845l-4.128-3.964M392.837 337.733l.82 1.897.183.359.184.268.45.459 2.024 2.165M403.929 336.486l-2.05-2.025-.525-.657-.23-.482-.209-.604-.242-.845M399.195 329.662l.792.65.237.295.23.503.22.763M392.837 337.733l.863-.577 1.23-.885M392.837 337.733l-2.424 1.374M405.447 324.8l-3.224-2.829M405.447 324.8l-2.18 1.597M407.23 323.099l-.003.251-.205.299-1.575 1.152M402.223 321.971l-2.89.88M407.23 323.099l-.093-.204-1.59-1.482-.353-.138-.345-.033-.582.107-2.044.622M401.288 328.006l-4.838-4.037M401.288 328.006l-2.093 1.656M401.288 328.006l1.979-1.61M396.45 323.969l2.882-1.118M396.45 323.969l-2.765 1.107M396.985 331.345l-5.91-5.022M396.985 331.345l-2.066 1.563M396.985 331.345l2.21-1.683M394.919 332.908l-6.326-5.184M394.919 332.908l-2.398 1.815M392.52 334.723l-3.1 2.306M386.501 329.838l3.487 2.823 2.533 2.062M399.195 329.662l-5.51-4.586M403.267 326.397l-3.935-3.546" clip-path="url(#p4449a39529)" style="fill:none;stroke:#000"/><path d="m385.555 328.514.466.168.392-.041 1.526-1.22 1.418-.893 1.962-1.036 4.1-1.769 3.968-1.544 3.598-1.138 1.352-.366.894.04.567.204.872.874 1.003.975-.443.33M393.685 325.076l-2.61 1.247" clip-path="url(#p4449a39529)" style="fill:none;stroke:#000"/><path d="m388.593 327.724.676-.469 1.806-.932M388.593 327.724l-2.232 1.827M386.077 329.381l-.522-.867M386.077 329.381l-.168-.022-.169.022-.155.066-.129.104-.092.133-.048.153M386.361 329.551l-.129-.104-.155-.066M385.316 329.837v.158l.047.153.092.133.129.105M386.501 329.838l-.048-.153-.092-.134M386.231 330.386l.13-.104.092-.133.048-.153v-.158M385.584 330.386l.155.066.169.022.168-.022.155-.066M387.002 332.277l-.682-1.352-.075-.2-.014-.339M385.584 330.386l.247.51.762 1.543M390.413 339.107l-.993-2.078M390.413 339.107l.223.998M389.42 337.029l-.446.248M389.42 337.029l-1.007-1.999M388.974 337.277l1.065 2.118.597.71M388.974 337.277l-1.01-2.06M320.627 332.417l.503 1.173.259.442.482.637 2.014 2.977 2.093 3.314 3.111 5.209 1.061 1.86.27.593.1.372.069 1.207.15 2.59.087.199.23.184.4.097 1.147.087.212.114.061.158.025.18-.453 2.287-.493 1.74-.071.528-.04 1.066M433.564 373.427l-1.334-2.895M433.564 373.427l2.7-1.805M433.564 373.427l-2.256 1.509M436.263 371.622l-.38-.343-.435-.187-.417-.084-2.8-.476M429.372 370.256l.404-.025.565.013.784.1 1.105.188M431.308 374.936l-1.936-4.68M431.308 374.936l-2.276 1.522M426.617 370.708l2.012-.357.743-.095M426.617 370.708l2.415 5.75M426.779 377.945l2.253-1.487M426.779 377.945l-2.185 1.455M422.814 375.822l1.78 3.578M436.263 371.622l.793.716M424.594 379.4l-2.13 1.252M421.907 380.98l.556-.328M421.703 381.583l.12-.123.077-.15.029-.165-.022-.165M381.105 420.083l-.056.149M376.228 417.875l3.036-.127.27.037.233.09.209.241 1.13 1.967M376.228 417.875l-2.143.161M374.085 418.036l1.021 2.497M381.049 420.232l2.94-.118M375.106 420.533l.608-.087 5.335-.214M388.924 409.926l-.414-.316-.172-.174-.223-.294-.932-1.596M393.074 412.962l-4.982 6.288M393.074 412.962l-1.964-1.474M393.074 412.962l1.561 1.173M388.092 419.25l-.484-.723M388.092 419.25l2.093 3.12M387.608 418.527l3.502-7.04M387.608 418.527l-1.648-2.455M391.11 411.488l-2.186-1.562M390.185 422.37l.408-.017M390.185 422.37l-7.166.29M383.28 428.59l-.067-.942M385.96 416.072l-1.97 4.042M385.96 416.072l2.964-6.146M383.019 422.66l.158-.663.302-.75.51-1.133M371.905 422.051l2.784-1.374.417-.144M392.188 424.822l-9.14.292M392.188 424.822l-1.33 2.591M392.188 424.822l1.332-2.597M383.048 425.114l.165 2.534M383.048 425.114l-.03-2.453M383.048 425.114l-10.96.47M372.089 425.584l.147 2.6M372.089 425.584l-.14-2.48M372.337 429.887l-.1-1.703M371.905 422.051l.043 1.052M383.019 422.66l-11.07.443M390.593 422.353l2.927-.128M390.593 422.353l4.042-8.218M394.635 414.135l2.215 1.572M394.635 414.135l3.907-7.87M390.442 428.375l.417-.962M393.52 422.225l3.33-6.518M390.859 427.413l-7.646.235M383.213 427.648l-10.977.536M372.236 428.184l-2.89.187" clip-path="url(#p4449a39529)" style="fill:none;stroke:#000"/><path d="m420.696 381.287.07.153.115.128.148.093.17.05.18.003.171-.044.153-.087M430.379 440.131l-.8 1.76-1.82 4.209-.36.845-.165.797-.18 2.024-.086 1.013-.237.951-1.62 4.853-2.401 6.327-3.813 10.58-5.186 13.683-4.215 10.508-3.021 7.808-2.82 6.857-.734 1.454-1.209 2.11" clip-path="url(#p4449a39529)" style="fill:none;stroke:#000"/><path d="m428.152 433.82 1.096 2.18.41.971.424 1.12.166.636.079.49.052.914M317.055 370.706l.622 1.448.238.657.258 1.02.475 2.995.065 1.113-.122.905-.382 1.267-.935 2.232-.518.945-.69.791-1.31 1.046-3.265 1.99-2.114 1.455-2.273 1.555M317.055 370.706l-.19-.442-1.144-2.494-.4-.627-.356-.442-.938-.992-1.777-1.696-.277-.362-.212-.378-.568-1.378M387.002 332.277l-.41.162M387.002 332.277l1.41 2.753M386.593 332.439l1.37 2.777M388.413 335.03l-.45.186M634.317 401.51l1.895 1.587.086.126-.002.217-.091.21-1.744 1.574-2.327 1.973-.45.523-.391.63-.375.527-3.992 4.424-3.621 4.174-1.898 2.15-1.055 1.253-.727.653-.694.38-2.104.64-8.286 1.062-9.988 1.213-4.974.865-1.168.459-.82.65-1.135 1.14-1.926 2.242-2.406 3.24-.444.455-.43.266-1.043.543M128.753 566.876l-.197-11.652-.617-.914M574.21 600.007l.925-.144 1.308.162 1.309.752 3.35 3.07 2.268 2.105M591.704 594.934l-1.823 1.98-1.898 2.9-1.367 2.194-3.246 3.944" clip-path="url(#p4449a39529)" style="fill:none;stroke:#000"/><path d="m601.878 602.29-2.126-1.343-2.126-1.557-2.733-2.193-3.19-2.263M581.856 586.048l2.186.965 2.993.59 3.28.858 3.107 1.072-1.783 1.554-1.784 1.716.805.75 1.044 1.38M613.571 592.034l-1.822 1.343-2.05 1.84-2.506 2.051-2.733 2.476-2.582 2.547M590.687 571.759l1.329.247 1.898.425 2.164.53 1.215.354.266.814-2.468 1.733-2.474 2.037-3.51 2.306-2.475 2.198-2.474 2.037-2.302 1.608M574.21 600.007l.321-4.22.698-3.25v-1.463l2.617-2.357 1.744-1.137 2.266-1.532M619.568 580.331l.335-.356.72-1.02.891-1.152.749-.804.892-.965.978-1.179 1.036-.965.892-.992.92-1.045.748-.858.864-.536.719-.483.546-.402.806-.83.748-.993.892-1.206.805-1.688M619.568 580.331l-.5.528-.373.135-.374-.08-.403-.484-.431-.643-.662-.563-.633-.858-.605-.616-.374-.429-.46.455" clip-path="url(#p4449a39529)" style="fill:none;stroke:#000"/><path d="m621.457 581.958.115-.295-.489-.321-.806-.51-.71-.5M624.774 203.995l.265-1.166M624.596 204.045l.056-.03.122-.02M625.075 204.14l-.081-.077-.104-.05-.116-.018M624.748 204.673l-.205 1.08M624.972 204.621l-.107.043-.117.01M624.454 204.494l.076.091.104.063.114.025M624.972 204.621l.739.914M625.075 204.14l.05.099.015.108-.023.107-.058.095-.087.072M624.454 204.494l-1.1 1.495M624.596 204.045l-.052.028-.08.088-.045.107-.003.116.038.11M625.075 204.14l1.628-1.134M623.987 202.62l.61 1.425M624.543 205.753l1.168-.218M625.039 202.83l1.664.176M129.55 586.373l-.49-1.368-.307-18.129M223.609 504.797l15.34 10.44 5.62 3.88-.53 2.402 6.577 4.434 5.618 3.265 9.056 5.42 5.32 3.398M317.055 370.706l3.816-.904.244-.121.087-.141-.058-.45" clip-path="url(#p4449a39529)" style="fill:none;stroke:#000"/></g><g id="PatchCollection_1"><path d="m389.633 378.542-.077.552 1.532 1.452 1.353 1.249 1.353.948.54.024.361-.396.954-2.82.154-1.97-.386-.888-.348-.48-.915-.372-.888.084-1.212.6zM357.257 352.67l-.371-.244-.327.02-.284.427-.349.752-.196.63v.813l-.043.914-.131 1.016-.131.57.021.426.219.223 1.286.468.742-.772.74-.67.394-.184.305.061.48.386.719.752.501.081.393-.223.262-.366.065-.386-.305-.508-2.53-3.13-.632-.61z" clip-path="url(#p4449a39529)" style="fill:#00f;fill-opacity:.8"/></g><g id="PathCollection_1"><defs><path id="m7ba642d7ad" d="M0 3a3 3 0 1 0 0-6 3 3 0 0 0 0 6z" style="stroke:green;stroke-opacity:.8"/></defs><g clip-path="url(#p4449a39529)"><use xlink:href="#m7ba642d7ad" x="476.262" y="384.159" style="fill:green;fill-opacity:.8;stroke:green;stroke-opacity:.8"/><use xlink:href="#m7ba642d7ad" x="490.44" y="387.366" style="fill:green;fill-opacity:.8;stroke:green;stroke-opacity:.8"/></g></g><g id="PatchCollection_2"><path d="m379.298 391.028 1.309 1.722 1.637-1.08.037-.12-.008-.125-.05-.116-1.04-1.194-.123-.036h-.129l-.123.036zM383.05 395.95l1.741 2.354 1.841-2.17.052-.133.005-.143-.042-.136-.038-.063-1.11-.963-.154-.05-.162-.004-.156.04zM382.839 390.114l.61.738.593-.355.069.07 3.807-2.497.038-.192-.67-.653h-.183l-3.282 2.59.008.383-.116.16-.12.068-.136.025-.137-.019-.123-.061-.092-.098-.052-.12-.005-.129.042-.123zM379.362 406.408l-1.056-1.516-.017-.177.04-.175.095-.154.065-.066 4.428-2.75z" clip-path="url(#p4449a39529)" style="fill:green;fill-opacity:.8"/></g><path id="PatchCollection_3" d="m368.852 422.206.3-.056.255-.16.17-.238.059-.281-.061-.28-.172-.237-.256-.158-.3-.055-.301.057-.255.159-.17.239-.058.28.06.28.172.238.256.157z" clip-path="url(#p4449a39529)" style="fill:#32cd32;fill-opacity:.8"/><g id="PatchCollection_4"><path d="m398.266 350.593 4.366-3.59 2.538 2.69-4.418 3.637zM622.64 202.456l-3.1 4.119-2.927-1.915 3.101-4.119zM622.036 203.917l-.133.895 1.576.203.133-.895z" clip-path="url(#p4449a39529)" style="fill:#90ee90;fill-opacity:.8"/></g><g id="PatchCollection_5"><path d="m349.804 607.834-.049.504 1.516.128.05-.504zM608.365 211.732l.122.537 2.217-.435.09.393.711-.14-.096-.425 2.2-.43-.114-.502-1.562.307-.352-1.558-.663.13-.104-.462-.656.129.099.438-.795.156.185.82.773-.153.17.757z" clip-path="url(#p4449a39529)" style="fill:#a9a9a9;fill-opacity:.8"/></g></g></g><defs><clipPath id="p4449a39529"><path d="M90 111.554h558v504.092H90z"/></clipPath></defs></svg>