<svg xmlns="http://www.w3.org/2000/svg" width="960" height="960" viewBox="0 0 720 720"><defs><style>*{stroke-linejoin:round;stroke-linecap:butt}</style></defs><g id="figure_1"><path id="patch_1" d="M0 720h720V0H0z" style="fill:#fff"/><g id="axes_1"><path id="patch_2" d="M90 638.426h558V88.774H90z" style="fill:#fff"/><g id="LineCollection_1"><path d="m591.408 545.676 1.37-4.868.42-1.334.595-1.756 1.438-3.546M597.486 529.525l-.658 1.266-.825 1.64-.772 1.74" clip-path="url(#p81121de12c)" style="fill:none;stroke:#000"/><path d="m591.806 530.244 1.832 1.034.714.547.43.569.229.727.22 1.05M397.959 538.58l-1.146-.76M363.73 571.378l.204-.887.27-.778.39-.892.65-1.176.508-.839.595-1.011.54-1.065.364-.763.381-.78.317-.989.23-1.139.088-1.1.206-.892.293-1.05.254-.763.135-.495.19-.367.365-.457.643-.652.785-.704.841-.72.587-.516.952-.735 1.04-.741.896-.547 1.095-.72.785-.546 1.188-.605.478-.227.666-.157 1.016-.045 1.086-.014 1.063.036 1.146.03 1.133-.092.57-.185.5-.3.499-.307.69-.645.84-1.018.643-.907.667-.891.69-.795.515-.487.484-.54.786-.696.46-.397.746-.502 1.302-.718.824-.278.798-.382.764-.51.548-.405.523-.437M450.935 571.17l-.984-1.787-.761-1.401-.573-1.033-.506-.967-1.174-2.195-1.016-1.776-1.079-1.978-.785-1.343-.318-.598-.533-.712-.402-.479-.591-.497-.56-.424-.806-.429-.693-.268-.86-.22-.687-.11-.812-.004-.703.012-.736.083-1.382.201-1.789.268-1.186.047-.92.03-.843-.162-1.085-.317-.984-.397-.967-.472-1.524-.765-1.443-.756-2.258-1.19-2.002-1.028-1.92-.929-1.967-1.042-1.777-.899-3.451-1.783-1.626-.863-2.745-1.407-1.452-.787-1.72-.983-1.92-1.122-2.11-1.244-1.326-.864M456.487 589.487l.08-.774.095-1.491.032-.922-.095-1.146-.064-1.019-.258-1.367-.146-.499-.365-1.206-.27-.854-.357-.801-.453-1.138-.499-1.012-.634-1.192-.937-1.73-.832-1.551-.849-1.616" clip-path="url(#p81121de12c)" style="fill:none;stroke:#000"/><path d="m453.131 549.8.012.347.032.218.023.204.111.323.22.578.262.599.198.45.23.644.119.779-.016.996-.159.765-.32 1.101-.241.888-.393 1.277-.29.775-.288.888-.286.656-.366.741-.505 1.188-.198.585-.127.614-.04 1.056-.047.592-.072.345-.214.9-.111.516-.04.547.135.66.072.778.047.585.024.247.032.527M364.803 388.472l-.194-1.388-.071-.72-.097-.85-.062-.431-.15-.764-.15-1.034-.183-1.147-.167-1.468-.135-1.177-.15-1.393-.223-.638-.264-.558M368.075 390.845l-1.078-.629-.992-.697-.475-.352-.508-.375-.219-.32" clip-path="url(#p81121de12c)" style="fill:none;stroke:#000"/><path d="m361.986 377.151.263 1.296.16.784.17.831.206.866.234.993.25 1.064.143.626.17.711.292 1.305.93 2.845M348.799 462.731l-.798 1.57M321.043 453.137l.904-.195 1.142-.12 1.182-.04 1.658.047 1.807.218 1.779.374 3.133.525 2.015.405 2.221.629 2.412.75 1.063.299 1.05.462.758.377.873.78.571.614.358.412.404.39.698.427 1.117.757.676.554.788.75.648.621.499.558M389.832 450.978l-1.971.15-1.27.136-2.03.18-1.373.112-1.187.154-1.51.115-2.03.203-1.19.135-1.524.157-2.57.262-1.714.12-1.57.157-1.135.083-1.253.15-2.166.187-.785.105-1.183.11-1.284.234-1.33.283-.939.257-1.183.425-1.086.444-1.114.543-.85.461-.626.367-.581.383-.878.651-.856.677-.83.758-.698.707-.58.672-.689.872-.571.822-.477.681M587.5 559.734l1.252-4.563 1.935-7.028.72-2.467" clip-path="url(#p81121de12c)" style="fill:none;stroke:#000"/><path d="m583.79 550.072 1.182-2.562.35-.817.46-.674.293-.281.484-.214.483-.127.663-.007.476.157.58.289.487.09.599-.053.341-.019 1.22-.178M135.036 180.325l.34.369 1.307 2.9.329 1.28.194 4.107-.01 1.28-.358 1.062-2.391 4.354-.117.805.117.85.967 2.297 1.376 2.78.658 1.72.155 1.555-.126 1.463-.978 2.891-.387 2.634.198 1.245" clip-path="url(#p81121de12c)" style="fill:none;stroke:#000"/><path d="m193.776 220.737-3.273-.518-2.352-.769-2.643-1.271-3.07-.86-3.01-.86-3.485-.466-4.667-.037-2.227.302-1.975-.064-3.234-.137-1.781-.284-2.876-.018-2.982-.43-4.153-.869-1.704-.01-1.51-.328-1.375-.083-.988.339-1.268.795-2.237 2.26-.687.302-.93.027-.948-.338-3.631-3.064-.46-.44M121.115 236.157l1.392.334 1.015.374.62.39.785.607.57.232.675.083.532-.03.737-.457.619-.637.667-1.364.809-2.031 1.737-3.043 1.07-1.986.533-.802.3-.435.16-.502.063-.502-.04-.787.064-.39.166-.487.38-.952.27-.764.128-.952.071-.78-.032-1.341-.087-1.44.12-.831.142-.465.46-1.161.412-1.132.405-.63.452-.36M223.118 233.033l-1.452-1.42-1.362-1.746-.971-.624-1.24-.395-1.498-.14-2.481-.42-1.956-.79-.593-.714-.23-.777.04-1.657-.188-.764-.526-.637-2.225-1.083-.675-.612-.89-.917-.768-.319-2.253-.204-1.173.255-3.048.968-1.322.09-4.531-.39M215.046 168.471l-.308.625-.127.417-.047.258-.08.843-.008.555.04.63.103.577.12.472.241.58.052.3.016.368.004.385-.056.51-.146.952-.124.551-.023.48.059.292.115.293.17.303.357.409.651.57.488.419.786.712 1.003 1.046.511.528.314.326.329.33.623.7.306.405.372.562.405.671.65 1.188.302.558.253.53.151.317.15.416.076.353.155.764.095.847-.075.446-.123.401-.318.517-.682.75-1.317 1.109-1.063.697-1.086.645-.77.517-.555.57-1.563 2.038-.992.974-1.181.96-.833.652-1.468.914-1.364 1.034-.413.495-.38.585-.564 1.55-.492 1.103-1.182 2.248-1 1.627-.888 1.469-.516.554-.785.637-1.856 1.147-2.102.907-1.793.914-.627.45-.523.57-.635.891-1.055 1.904-1.047 1.949M246.368 261.713l.772.233 1.674.326 2.146.348 1.416.244 1.059.146 1.777.165.781-.019.659-.097 2.086-.517 1.896-.442 2.059-.35.947-.291 1.028-.341.829-.308 1.043-.34.575-.196.88-.21.758-.179.745-.075.671-.041.59-.01.564.133.393.173M303.813 277.8l-1.878-1.594-.97-.721-.834-.465-1.237-.503-.873-.284-.888-.3-2.071-.472-1.078-.322-.81-.307-1.443-.637-1.552-.752-2.93-1.774-2.5-1.626-1.665-1.132-.746-.465-1.206-.96-1.126-.8-1.304-.824-.877-.344-.699-.122-.84-.068-.43-.097-.485-.184-.72-.393-.67-.627-.83-.707-.855-.834-.58-.421M275.155 236.768l.186.405.333.982.516 1.813.167.547.222.577.57 1.245.2.427.174.562.087.57v1.056l-.024 1.072-.055.712-.159 1.326-.278.81-.277.457-.262.374-2.23 2.863-.356.555-.23.562-.603 1.874-.905 2.57-.23.63-.11.36-.104.517-.07.43M337.543 285.866l-.437-.466-.682-.656-.69-.431-.825-.487-1.198-.66-2.02-1.11-.645-.329-.988-.32-.575-.145-.666-.06-1.078.102-.81.154-.835.152-.95.012-.804-.101-1.069-.124-1.048-.004-.68.035-.7.134-.94.2-.431.138-.365.27-.687.829-2.347 3.274-.769.727-.85.382-.863.14-.863-.153-.755-.535-.58-.816-.432-1.35-.144-1.262-.07-1.503-.217-.955-.42-.607-.443-.362-.445-.343-.513-.256-1.51-.446-.856-.204-.849-.255-.88-.27-.8-.405" clip-path="url(#p81121de12c)" style="fill:none;stroke:#000"/><path d="m284.337 294.565.5.112.42.232.619.33.563.113.436-.023.23-.142.27-.262.318-.382.214-.368.23-.457.317-.697.198-.39.262-.719.326-.51.293-.472.278-.36.23-.232.38-.165.564-.12.61-.044.611.022.58-.022.404-.083.413-.262.547-.36.571-.428.405-.366.301-.435.341-.66.19-.51.143-.689-.063-.87-.167-.62-.135-.488-.095-.472.095-.465.246-.442.413-.525.452-.607.397-.494.563-.57.54-.495.682-.51.698-.397.69-.374.754-.427.634-.233.587-.142.818-.135.603-.15M340.497 296.491l-.09-.645-.143-1.064-.127-.907-.08-1.026-.11-1.094-.056-.622-.122-.91-.195-.851-.332-1.022-.287-.545-.562-.856-.85-1.083" clip-path="url(#p81121de12c)" style="fill:none;stroke:#000"/><path d="m329.377 230.375-.156.353-.452.764-.214.397-1.024 2-.666 1.2-1.023 2.226-.841 1.724-.476.982-.182.607-.04.427-.024.592.159.51.333.652.626.87 2.452 3.29 2.356 3.11 2.094 2.577 1.507 1.724.651.832.619.682.491.517.405.427.397.323.3.39.16.3.119.336.277 1.17.611 1.76.326.795.237.787.27 1.117.207 1.439.15 1.85.087 3.726.024.606v.803l.095.516.254.832.302.57.262.42.214.314.158.315.151.36.12.465.118.48.04.629.023.457-.182.63-.365.943-.277.525-.69 1.664-.842 2.053-.975 2.453M337.993 314.235l-.21-1.339-.114-.75-.032-1.12.04-.686.106-.77.339-.976.389-.877.488-1.084 1.66-3.797.247-.755.063-.71-.102-1.058-.128-1.274-.142-1.326-.1-1.222M295.752 330.529l.088-.375.206-.63.333-.659.714-.892.73-.734.912-.877.468-.427.524-.374.547-.368.746-.307 1.316-.383.675-.231.61-.255.834-.623.888-.734 1.016-.809.3-.263.223-.27.294-.546.182-.57.357-1.004.198-.42.358-.54.349-.359.467-.465.39-.254.705-.21.46-.06 1.222-.165 1.38-.225 1.127-.18.92-.314.84-.795.604-.96.579-1.296.54-1.131.468-.997.69-1.004.999-1.05.897-.673.856-.585 1-.585.849-.3 1.277-.404 1.063-.3.698-.203 1.007-.321.587-.24.88-.278.993-.397.8-.502.516-.42.342-.592.205-.434.151-.652.143-1.027.127-.862.159-.697.254-.592.238-.292.349-.173.412-.15.405-.104 1.087-.128 1.118-.21 1.174-.262 1.38-.51 1.519-.389M337.993 314.235l.041.264.214.944M339.843 321.473l-.061-.263-.232-1.023-.294-1.14-.317-1.025-.278-.907-.413-1.672" clip-path="url(#p81121de12c)" style="fill:none;stroke:#000"/><path d="m304.645 343.463.635-.54.587-.404.476-.262.642-.225.604-.217.563-.435.396-.457.373-.525.278-.292.388-.217.492-.27.698-.292.976-.375.952-.225.73-.21.698-.374.984-.607.547-.323.595-.337.54-.374.61-.428.492-.404.492-.487.301-.48.167-.78-.095-.659-.095-.637-.104-.607-.095-.6-.008-.502.095-.472.112-.494.055-.63-.04-.891.024-.855.103-.614.23-.772.444-1.14.278-.749.31-.644.547-.697.412-.345.374-.165.523-.337.444-.322.603-.607.345-.45.281-.416.354-.547.357-.498.31-.349.249-.202.722-.446.42-.202.92-.487 1.27-.532 1.539-.727 1.404-.592.698-.248 1.047-.232 1.182-.187.682-.143.904-.045.754.06 1.007.255.825.247M358.848 333.862l.336-.463.174-.39.072-.217.016-.233-.08-.13-.175-.11-.388-.119-.516-.135-.269-.038-.477-.007-.57.048" clip-path="url(#p81121de12c)" style="fill:none;stroke:#000"/><path d="m358.848 333.862-.481-.208-.35-.158-.38-.252-.27-.197-.178-.216-.171-.369-.047-.394M352.31 333.997l1.21-.583.912-.412.722-.36.703-.254.518-.18.596-.14M361.02 333.12l-.866 1.45M351.6 333.244l.71.753M343.523 334.667l1.08-.382.321-.077.331-.018.41-.013.46-.074.556-.093.368-.127.338-.162.262-.24.428-.487.294-.262.389-.172.587-.135.674.03.52.119.416.177.341.228.301.265M348.04 337.129l.061-.234.143-.322.17-.252.635-.607.679-.637.57-.531.683-.652.618-.65M358.848 333.862l1.306.707M357.936 338.217l-.942-.532-.817-.472-1.586-.98-.596-.474-.55-.494-.346-.337-.404-.457-.386-.474M360.154 334.57l-1.158 1.937M367.57 339.152l-.74-.5-.435-.285-1.627-1.116-1.194-.831-1.043-.555-.873-.45-.825-.465-.679-.38M343.523 334.667l1.985 3.555M339.843 321.473l.246 1.187.211.79.257.874.214.55.405.806.466.725.724.931.398.607.189.51.09.33.068.63-.008.374-.118.892-.061.903.021.7.072.504.087.665.174.6.245.616M356.272 334.853l2.724 1.654M358.996 336.507l-1.06 1.71M361.825 344.32l-3-1.808-1.854-1.169-.953-.555-1.276-.586-1.873-.965-.984-.502-1.116-.524-1.105-.48-.952-.368-.671-.234" clip-path="url(#p81121de12c)" style="fill:none;stroke:#000"/><path d="m345.508 338.222 1.747-.754.37-.16.416-.18M346.664 342.027l.088-.529.06-.365-.034-.407-1.27-2.504M364.317 341.42l-1.16-.49-1.387-.644-1.484-.72-1.23-.637-1.12-.712M367.57 339.152l-1.987 2.835M374.364 340.198l-.592.028-.507-.053-.707-.202-.666-.15-1.34-.187-1.706-.24-1.277-.242M365.583 341.987l.843.255.728.117.502.04.674-.045 1.079-.09 1.261-.03 1.349-.045 1.095-.007.5-.03.17-.023.152-.104.106-.18.107-.244.083-.333.08-.442.052-.628M374.462 336.955l.055.753.025.614-.03.719-.06.696-.088.46M341.787 344.916l.412-.748.397-.72.425-.883.28-.69.31-.877.152-.845M338.83 351.356l-.201.07-.297.108-.44.116-.341-.004-.275-.04-.447-.117-.418-.16-.26-.155-.31-.267-.186-.295-.095-.314-.207-.69-.111-.667-.175-.892-.365-1.363-.285-.937-.103-.517-.135-1.053-.135-.678-.135-.506-.154-.397-.298-.58-.32-.447-.342-.46-.314-.315-.206-.15-.371-.188M364.317 341.42l1.266.567M364.317 341.42l-2.492 2.9M346.664 342.027l-.545 1.495" clip-path="url(#p81121de12c)" style="fill:none;stroke:#000"/><path d="m348.007 343.972-.747-1.16-.596-.785M346.12 343.522l1.887.45M346.12 343.522l-1.571 5.681M348.007 343.972l4.654 7.142M338.732 346.895l-.205-.562-.167-.457-.111-.33-.14-.5-.052-.582.029-.39M361.825 344.32l1.53.645M361.825 344.32l-.658 1.15M341.787 344.916l-2.29 3.911M338.732 346.895l1.35-2.472.12-.137.13-.077.146-.012.119.023 1.19.696M361.167 345.47l.345-.208.307-.139.323-.105.343-.05.348-.028.522.025M388.071 341.442l-.29.081-.996.295-3.225.645-1.192.282-1.575.14-1.341.08-.596.142-.617.18-1.384.524-1.596.743-1.175.267-1.386.196-.973.065-.809.015-.827-.008-.886-.104-.706-.083-.849-.015-.889.09-1.063.127-1.032-.005-.753-.055-.556-.079M359.6 347.064l.369-.191.431-.255.371-.371.396-.777M338.732 346.895l.764 1.932M359.6 347.064l1.769 3.32M359.6 347.064l-6.939 4.05M339.496 348.827l1.056 3.138M344.549 349.203l3.61.933M344.549 349.203l-.956 3.459M348.159 350.136l-2.236 6.988M352.661 351.114l-.863-.105-.944-.202-.659-.164-.864-.233-.357-.053-.815-.221M361.369 350.384l-1.073.583M361.369 350.384l.579 1.197M360.296 350.967l1.652.614M360.296 350.967l-4.429 2.407-1.422.681M354.445 354.055l-.553-.76-1.23-2.181M337.093 352.89l-.86-.21-.539-.157-.357-.105-.436-.187-.293-.142-.524-.337-.692-.533M361.948 351.58l2.062 4.264M339.505 351.724l.862.198M340.552 351.965l.882.202M340.552 351.965l-.185-.043M341.434 352.167l-.407 1.371M341.434 352.167l1.938.444M343.593 352.662l-.22-.05M343.593 352.662l-.483 1.749M337.093 352.89l1.018.258M338.184 354.59l-.197-.392-.218-.37-.298-.447-.378-.49M338.484 353.242l2.261.567M338.484 353.242l-.373-.094M338.484 353.242l-.3 1.349M341.027 353.538l2.345-.927M341.027 353.538l-.282.27M340.745 353.809l2.365.602M354.445 354.055l-2.78 1.248M354.037 359.949l.376-.88.826-3.01.007-.503-.8-1.501M343.11 354.41l-.45 1.63M338.075 358.015l.131-1.877-.022-1.547" clip-path="url(#p81121de12c)" style="fill:none;stroke:#000"/><path d="m351.665 355.303 1.8 3.887.572.759M345.923 357.124l.377.083.388.03.263-.037.302-.12.714-.24 1.063-.412 1.19-.472.713-.308.732-.345M364.505 356.826l-.101-.285-.255-.45-.14-.247M357.93 359.73l.111-.395.206-.512.35-.417.359-.263 5.054-2.3M342.66 356.04l-1.31 4.846M345.923 357.124l-.558-.134-.556-.166-.603-.209-.785-.27-.761-.305" clip-path="url(#p81121de12c)" style="fill:none;stroke:#000"/><path d="m348.052 360.546-.462-.233-.444-.243-.404-.255-.203-.206-.135-.278-.19-.486-.156-.544-.167-.64-.019-.248.051-.29M364.505 356.826l.279.021.484.067.532.09 1.019.107 1.907.244 2.908.461 1.195-.004.729-.148 1.19-.367 1.079-.427.848-.353.572-.27.563-.232.809-.262.468-.157.741-.124.798-.1.916.034 1.226.01 1.079.127 1.225.245.52.137.944.24.897.27.793.375.261.142.278.075.254-.026.27-.169.218-.217.416-.428.492-.509.333-.48.088-.24.007-.434-.007-.255-.103-.33-.254-.464-.556-.465-.349-.15-.662-.166M363.419 364.996l-.84-.13-.58-.159-.245-.104-.355-.216-.161-.189-.111-.368-.048-.194.058-.466.3-.65.325-.66.27-.628.11-.496.196-.845.106-.249.178-.194.302-.296.495-.292.298-.188.361-.161.35-.124.388-.104" clip-path="url(#p81121de12c)" style="fill:none;stroke:#000"/><path d="m363.998 361.844.493-1.497.237-.971.064-.408.024-.685" clip-path="url(#p81121de12c)" style="fill:none;stroke:#000"/><path d="m364.505 356.826.223.632.088.825M357.93 359.73l-1.124 6.982M354.037 359.949l.55-.056.804-.154.643-.044.429.022.832-.015.635.029M353.93 361.08l.058-.538.05-.593M346.087 362.422l.578-.554.627-.622.76-.7M350.158 360.184h-.698l-.708.125-.7.237M341.35 360.886l4.737 1.536M323.59 371.265l.34-.487.27-.397.452-.705.484-.847.54-.816.364-.36.484-.54.73-.63.642-.471.54-.24.54-.172.475-.142.612-.124.65-.176.57-.195.326-.203.666-.584 1.399-1.224.232-.185.258-.168.34-.199.358-.146.44-.15.305-.105.377-.064.44-.074.492-.083.369-.011h.286l.407.043.41.035.356-.007.504.004.568.022.543.008h.35l.193-.05.09-.102.05-.103.307-.731M352.766 366.417l.246-1.094.357-1.56.301-1.333.26-1.35M350.158 360.184l1.307.327 1.404.33 1.061.238M380.499 377.908l.27-.986.143-.689.3-1.296.255-1.341.103-.847.086-.707-.11-.44-.135-.172-.364-.397-.34-.198-.842-.342-.873-.3-.261-.213-.469-.318-.445-.405-.983-.585-.825-.442-.673-.385-.826-.282-.69-.113-.754-.037-.873.015-.688-.077-.62-.095-.472-.163-.644-.393-.582-.5-.587-.39-.81-.42-.761-.293-.809-.284-.857-.24-.54-.202-.315-.176-.16-.203-.015-.21.019-.337.083-.31.119-.368v-.307l-.071-.255-.207-.232-.278-.129" clip-path="url(#p81121de12c)" style="fill:none;stroke:#000"/><path d="m363.419 364.996-.119-.37-.013-.379.204-.745.278-.817.23-.84M345.017 365.072l.058-.499.08-.442.063-.322.094-.284.262-.425.254-.366.259-.312M372.746 373.58l-.672-.876-.753-1.034-.706-.937-.77-1.154-.714-1.08-.738-1.16-.285-.428-.421-.462-.404-.265-.944-.3-1.237-.39-.723-.224-.96-.274M350.158 360.184l-.291.946-.19.925-.33 2.292-.063 1.153.08.976.08 1.015.092.99.242 1.362.205.746.189.548.28.524.37.646.45.52.383.386.49.325.922.283.857.209 1.483.187 1.087.053 1.043.082 1.774.345.704.305.796.443.498.421.459.551M356.806 366.712l-.104.432M368.117 375.37l-2.546-4.864-.255-.335-.291-.263-.688-.268-.743-.121-1.014-.117-.939-.319-.815-.358-.913-.45-1.023-.45-.746-.404-.642-.322-.696-.387M355.753 371.102l.95-3.958" clip-path="url(#p81121de12c)" style="fill:none;stroke:#000"/><path d="m352.766 366.417-.08.352-.182.771-.135.54.011.66.306.64.546.629.993.65 1.528.443M359.104 372.192l-.492-.297-.763-.309-2.096-.484M359.104 372.192l.972.959.71.835.6 1.145.382 1.286" clip-path="url(#p81121de12c)" style="fill:none;stroke:#000"/><path d="m362.957 376.904-1.108-2.387-.55-1.005-.339-.299-.84-.557-1.016-.464M368.117 375.37l1.21-.476.419-.16 3-1.154M370.115 387.922l.913-1.45.063-.512-.106-.397-.346-.662-.27-.59-.134-.668-.096-.516.03-.783.176-1.06.135-.495.206-.487.317-.42.324-.311 1.19-.815.588-.44.426-.405.185-.254.132-.489-.068-.59-.095-.607-.183-.847-.246-.704-.198-.368-.312-.472M368.117 375.37l-1.232.462M366.885 375.832l-3.928 1.072M370.115 387.922l-.571-.606-.65-.76-.525-.702-.277-.628-.258-.836-.163-.97-.011-.814.125-1.153-.058-.724-.048-.547-.03-.75-.104-.494-.23-.959-.183-.794-.15-.817-.097-.536M361.768 376.417l.218.734M362.957 376.904l-.97.247M370.115 387.922l-2.04 2.923M368.075 390.845l1.057.463M396.813 537.82l-1.035-.653-.936-.674-1.458-.923-1.327-1.01-1.61-1.087-1.215-.848-1.15-.845-1.57-1.101-1.602-1.124-1.587-1.086-1.428-.998-.801-.606-1.15-.817-1.762-1.229-.929-.742-.554-.472-.773-.734-.449-.562-.554-.807-.262-.616-.235-.656-.146-.58-.117-.703-.058-.421.037-.775.05-.491.094-.727.366-1.619.286-1.101.278-1.027.203-1.265.082-1.305-.143-.891-.08-.522-.166-.497-.341-.747-.269-.482-.48-.648-.766-.798-.967-.944-.96-.884-1.262-1.184-1.539-1.423-1.104-1.083-2.14-1.997-1.849-1.79-2.062-1.949-1.896-1.813-2.023-1.873-2.126-1.978-1.805-1.644-1.824-1.819-.909-.98-.894-1.087-.795-1.071-.866-1.377-.475-.999-.57-1.405-.31-.992-.365-1.551-.183-.922-.119-1.424-.04-.801.024-1.311.155-1.36.101-.734.121-.69.24-.99.172-.595.312-.918.418-1.064.285-.678" clip-path="url(#p81121de12c)" style="fill:none;stroke:#000"/><path d="m355.646 463.731-.187-.074-.17-.038-.189-.024-.208.017-.266.093-.29.139-.257.116-.381.161-.361.135-.484.143-.456.13-.337.08-.603.145-.476.124-.46.116-.611.124-.214.026-.215-.041-.27-.21-.269-.202-.405-.233-.23-.112-.306-.045M452.842 615.002l-.175-1.71.029-.927.085-.831.2-1.657.17-1.005.386-2.456.349-1.843.38-2.217.405-2.21.357-2.188.286-1.716.407-2.08.195-1.21.278-1.662.293-1.803M475.519 581.948l-1.095.254-1.475.375-.778.164-1.23.405-1.3.495-1.262.39-1.832.464-2.31.599-1.149.374-.722.42-1.142.84-1.301.883-.857.547-.984.547-.777.412-.818.37" clip-path="url(#p81121de12c)" style="fill:none;stroke:#000"/><path d="m424.701 618.425.817.053.829.162 1.606.49.5.09h.571l.857-.106.579-.037.444.068.524.231.84.495 1.04.459 1.372.403.714.052.746-.217 1.5-1.094.602-.292.613-.088 2.042.337 1.475.128 1.59.103.69-.06.492-.18.341-.277.444-.757 1.182-1.7.587-.54 1.055-.705 1.349-.629.555-.12.714.038 1.471.27M493.63 621.422l-1.222-1.131-.12-.322.136-.293 1.753-1.678 1.11-.839 1.119-.622 2.015-.81 4.768-1.497 1.574-.386.226.067.167.173.619 1.621" clip-path="url(#p81121de12c)" style="fill:none;stroke:#000"/><path d="m493.63 621.422 1.57-1.588.896-.69.85-.524 1.134-.502 2.213-.764 4.133-1.356.682-.165.667-.128M525.868 616.83l-.713-.532-4.478-3.164-1.111-.545-1.152-.31-1.214-.059-1.07.204-1.78.66-2.15.966-2.039.734-2.332.562-2.054.36M501.38 556.631l.023.248-.055.3-.032.288-.075.371-.084.48-.079.307-.056.397.016.584.032.262.127.36.587 1.071.817 1.311.778 1.282.57 1.079.421.816.524 1.101.325.87.262.524.214.689.19.525.096.599.063 1.004-.032.944.112.929.07.42.088.382.262.277.484.307.928.315.531.112.548-.03.817-.09.682.053.469.172.38.247.603.435.563.314.754.36.54.18 1.118.532.698.344.722.36.674.36 1.11.45.913.464.61.397.492.344.54.412.476.51.54.524.396.547.349.727.111.494.056.54v.712l-.159.764-.325.681-.627.99-.412.726-.532.847-.301.622-.286.734-.15.741-.16 1.327-.15.801-.103.862.024.996.071.615.063.472.23.472.468.546.358.292.436.323.23.247.143.202.166.375.15.315.43.351.34.135.5.165.468.248.659.501.492.323.38.33.365.374.635.832.214.359.286.472.476.72.444.471.357.143.515.127.564.292.5.337.515.405.492.397.397.494.372.585.198.472.032.33-.031.381-.088.285-.15.352-.155.354-.51.896-1.316 2.518-.406.688-1.565 2.419-1.324 1.98" clip-path="url(#p81121de12c)" style="fill:none;stroke:#000"/><path d="m532.318 624.725-1.349-1.445-4.83-5.334-.23-.36-.088-.344.047-.413" clip-path="url(#p81121de12c)" style="fill:none;stroke:#000"/><path d="m538.204 625.73-9.321-6.75-3.015-2.15M487.922 627.745l1.081-1.321 2.984-3.339 1.642-1.663M538.204 625.73l-2.81 2.112M538.204 625.73l.88.42M539.085 626.15l.743.927.487.605M541.457 627.073l-1.322-.498-1.05-.426M570.614 603.265l-.481.017-.753.032-.833-.061-1.361-.194-.408-.04-.25.005-.26.012M561.66 603.184l.493.3.739.204.852-.007.821-.233.62-.256.414-.101.388-.037.28-.018" clip-path="url(#p81121de12c)" style="fill:none;stroke:#000"/><path d="m559.706 613.095 1.662-1.311.488-.457 1.055-1.221.892-1.412.714-1.267.984-1.813.34-.749.247-.741.18-1.088M570.498 604.22l-7.337 12.55M570.498 604.22l.627-.973M565.77 614.267l1.088-2.345 1.895-3.603.837-1.603.702-1.428.068-.22.051-.267.087-.58M548.564 614.98l-2.634-1.994-.674-.337-2.054-.764M559.06 613.503l.646-.408M556.584 618.92l1.165-1.89 1.072-1.676.23-.555.056-.33.016-.381-.063-.585" clip-path="url(#p81121de12c)" style="fill:none;stroke:#000"/><path d="m554.332 615.496 2.47-.884.885-.375 1.373-.734M548.564 614.98l5.768.516M546.49 615.974l1.372.752h.046l.027-.016.248-.607.381-1.124M554.332 615.496l-.913 1.603M563.16 616.77l-1.356.288M551.123 621.137l-2.487-.764-.929-.307-.833-.457-.745-.495-1.46-.921-.61-.247-2.071-.637M520.614 617.01l1.301 1.762M510.264 617.511l4.372-1.55 1.451-.585.595-.195.682-.067.69.15.96.404.817.442.48.495.303.406M516.003 618.067l1.73-.52 1.028-.253 1.105-.193.748-.09M553.419 617.1l-.3.6M553.419 617.1l3.165 1.82M564.089 617.234l-1.757 3.076M567.143 622.905l1.392-2.667.036-.198-.024-.195-.103-.202-.27-.191-4.085-2.218M565.77 614.267l-.412.772-1.27 2.195M561.804 617.058l-4.62 7.77M567.385 607.09l-1.107 1.81-1.681 2.76-.215.45-.325.66-.94 1.816-1.313 2.472M526.503 627.492l-4.18-7.621-.408-1.099" clip-path="url(#p81121de12c)" style="fill:none;stroke:#000"/><path d="m528.675 626.56-1.238-1.409-4.634-5.45-.888-.929M553.943 622.8l2.054-2.952.587-.928M510.908 619.536l4.21-1.205M562.332 620.31l-1.74 2.978M562.332 620.31l4.81 2.595M551.123 621.137l1.996-3.438M553.943 622.8l-2.05-1.266-.405-.221-.365-.176M573.735 621.759l-1.99 3.589M553.943 622.8l3.24 2.028M567.143 622.905l-1.547 2.96M567.143 622.905l4.601 2.443M560.591 623.288l5.005 2.577M532.318 624.725l-2.076 1.097M532.318 624.725l3.077 3.117M571.744 625.348l2.577 1.233M530.242 625.822l-1.567.738M543.96 625.916l.186.233M543.96 625.916l-2.503 1.157M546.664 624.613l-.537.208-1.003.499-1.165.596M528.675 626.56l-2.172.932M540.315 627.682l1.142-.609M515.117 618.33l.886-.263M513.596 621.34l.889-1.784.632-1.225M511.732 624.988l.564-1.071.887-1.814.413-.764M546.664 624.613l-.498-.443-.54-.635-.284-.351-.612-.75-1.021-.921-.681-.471-.704-.386-.816-.257-.535-.13M558.016 611.738l.614.37 1.076.987M554.67 610.479l.331-1.052M558.016 611.738l-.404-.244-1.273-.56-1.669-.455M552.294 611.676l1.725.593.651-1.79M558.016 611.738l2.48-8.898M560.496 602.84l1.165.344M555.001 609.427l.518-1.645 1.894-5.984 3.083 1.042M556.838 599.68l.516.188 2.57.888.492.127.305.135.218.195.21.352.16.434.21.88.142.305M552.294 611.676l-3.973-8.184M548.321 603.492l-.213-.438-1.835-3.357-.447.261-.34.302-.298.643-.34 1.105-.192.946.042 1.346.256 1.066.446 1.206.192.723.043 1.307v.603l.296.286 6.363 2.185" clip-path="url(#p81121de12c)" style="fill:none;stroke:#000"/><path d="m555.001 609.427-1.341-2.513-.384-.986-.234-.924v-.704l.17-.864.17-.905-.361-.784-.681-.362-1.085-.18-1.065.18-.809.422-.468.563-.592 1.122M571.125 603.247l-.511.018M576.373 594.283l-1.956 3.368-1.88 3.266-1.412 2.33M574.083 594.996l2.29-.713M569.42 585.08l2.166 2.959 1.063 1.464.983 1.547 1.273 1.611.135.285.024.232-.075.227-.906 1.59M570.614 603.265l.158-.96.505-2.202.158-.572.265-.573.655-1.084 1.728-2.878M578.82 589.545l-1.174 2.48-1.273 2.258M595.346 616.174l-.105.289-1.396 2.314-.666 1.064-.377.364-.432.325-.364.31" clip-path="url(#p81121de12c)" style="fill:none;stroke:#000"/><path d="m594.245 614.983.469.378.206.229.087.22.012.226-.063.24-.08.19-1.257 2.075-.302.427-.305.323-.682.719-.111.157-.095.22-.118.453M487.922 627.745l.166.11M497.81 621.796l-.365.101-.508.274-.944.637-1.237 1.071-.738.66-.555.374-.627.345-2.086 1.04-.976.48-.897.57-.79.508M580.407 585.143l-.88 2.693-.707 1.709M583.73 591.237l-1.904-.816-.792-.29-2.214-.586M582.346 578.31l-1.72 6.042-.22.791" clip-path="url(#p81121de12c)" style="fill:none;stroke:#000"/><path d="m590.03 585.302-.684-.186-.858-.066-1.88-.164-1.02-.055-1.171-.01-1.543.01-1.45-.022-.37.066-.647.268M582.346 578.31l.383-1.412M578.468 576.86l1.383.667 1.434.557 1.061.226M582.73 576.898l1.754-6.241M582.73 576.898l.92.134M583.65 577.032l.404.117M586.628 569.383l-.105 1.583-.2 1.29-.355 1.09-.31.735-.285.786-.143.502-.54.75-.5.532-.54.38M587.5 559.734l-.793 2.886-2.223 8.037" clip-path="url(#p81121de12c)" style="fill:none;stroke:#000"/><path d="m567.58 556.76 2.887 1.1.301.24.095.278-.016.337-.135.36-.888 1.602-.103.446.028.345.195.363.959.742 3.269 1.963 6.092 3.656 2.554 1.618 1.666.847M340.367 351.922l-.179-.272-.21-.24-.387-.153-.366.007-.395.092M338.11 353.148l.347-.883.373-.91M409.96 317.38l-.236.26-.635.928-1.095 1.65-.793 1.123-.81 1.35-.872 1.109-1.38 1.138-.984.72-1.38 1.169-1.349 1.154-1.602 1.604-1.285 1.498-1.857 2.039-1.205 1.364-.714 1.139-.762.99-1.047 1.153-1.305 1.731-.715.79-.615.518-.737.433-.51.202" clip-path="url(#p81121de12c)" style="fill:none;stroke:#000"/><path d="m399.482 338.679-.61.183-.786.247-.944.255-1.166.27-1.137.226-.777.157-.547.156-.854.227-1.055.254-.687.229-.68.207-.794.25-.402.126-.466.09-.216-.022-.29-.092M258.25 462.518l-.409.105-.372.045-.35-.008-.936-.15-.761-.097-.722-.098-1.04-.18-.848-.157-.556-.194-.396-.21M230.027 460.88l.334-.084 1.131-.121.594-.008.575.049.517.13.777.113.873.045.635.022.894-.013 1.177-.046 1.221-.098 1.198-.06 1.483-.037 1.028-.015.787-.007 1.973.063.929-.03.567-.026.61-.135.86-.183h.786l.719.082.765.262 1.4.79" clip-path="url(#p81121de12c)" style="fill:none;stroke:#000"/><path d="m244.635 449.822.188.568.096.517.04.82-.048 1.129v1.91l.087.709.16.747.1.272.13.252.15.208.154.154.193.163.216.106.398.104.76.084 1.42.187.684.208.474.24.365.34.204.33.256.493.254.446.274.48.27.498.4.787M259.753 461.997l-1.502.52M275.158 456.972l-.555.308-.817.359-.88.42-.96.383-1.246.434-2.218.772-1.216.42-1.16.337-1.046.18-.915.08-.687-.028-.714.068-.642.127-.818.382-1.53.783M264.902 435.123l.245.72.476 1.004.548 1.161.508 1.161.238.645.452.9.468.868.38.772.183.465.032.48-.016.434-.048.374-.126.263-.294.569-.325.577-.326.592-.396.742-.508.854-.397.682-.57.817-.46.592-.54.547-.405.412-.635.704-.5.562-.34.532-.469.742-.579.974-.356.592-.35.562-.23.622-.118.464-.135.683-.056.546-.095 1.154-.19 1.798-.215 1.308M319.29 453.811l.602-.24.611-.254.54-.18" clip-path="url(#p81121de12c)" style="fill:none;stroke:#000"/><path d="m323.59 371.265-.168.24-.452.555-.357.382-.349.42-.333.44-.067.286.003.195.1.438.146.589.207.779.317 1.191.222.937.159 1.379.063 1.094-.135 1.491-.119.981-.126.9-.175 1.004-.111.622-.246.96-.326.838-.253.667-.246.757-.103.397-.175.817-.016.457.016.697v1.012l-.04.974-.063.847-.064.876-.12.969-.046.747.024 1.439.04 1.289.04 1.356.102 1.5.119 1.288.024 1.288.056.915.103.734.15 1.05.175.951.095.914.08.892.071.981.143.885.174.33.365.366.436.495.31.42.15.607.08.674.031.517.016.54-.023.786.003.343-.21.662-.063.42.063.546.024.457.032.562.08.457.142.615.206.487.072.562v.614l-.04.585-.159.959-.174 1.011-.096.87-.103.809-.174.712-.207.584-.356.525-.286.599-.246.532-.135.824-.055.525-.127.862-.175.697-.15.584-.183.42-.246.592-.214.532-.428.899-.444.989-.397.884-.063.547.024.497.166.492.293.547.167.922-.008.741-.063.87-.088.832-.031.861-.056.937-.08.637-.079.801-.024.727.02.515.163.856.182.548.278 1.026.238 1.004.127.877.071.622.048.48.127.434.183.225M424.701 618.425l-.73.127-.856.308" clip-path="url(#p81121de12c)" style="fill:none;stroke:#000"/><path d="m423.475 617.657-.036.465-.067.315-.099.202-.158.221M423.475 617.657l.187.184.281.255.37.194.388.135M363.73 571.378l-.144 1.062-.063.802-.063.704-.056.554-.095 1.034-.064.3-.135.674-.198.967-.27.981-.166.592-.318.615-.626.824-.627.838-.952 1.26-.92 1.106-.27.49-.254.494-.238.868-.008.638.024.758.071.852-.016.839-.07.42-.178.511-.815 1.527.683 3.603 2.118 2.764 4.537 2.158 1.048 1.649-.127 1.858-2.094 3.655-1.683 1.619-3.11-.99-1.911.72.222.379.234.298.393.372.367.241.335.14.38.143.376.148.267.126.203.135.325.348.13.2.203.4.15.397.23.531 1.047 2.65.58 1.939.159.756.083 1.222v.827l-.068.42-.13.468-.41 1.015-.26.84M615.89 500.429l2.162-3.388 2.4-3.788M633.985 471.85l-10.079 15.945-3.454 5.458M606.343 489.432l.781.22 3.733.825 4.49 1.046 3.542.85.575.213.555.33.433.337M599.224 490.9l1.017-1.558.966-1.611.285-.337.29-.109.372.004.306.124.25.262.523.562.595.416.468.206 1.516.416.531.157M599.224 490.9l.666.562.75.488.935.404.679.15.507-.022.611-.203.472-.307.512-.57.456-.666.484-.701.432-.322.615-.28M612.446 475.93l1.602.87-.243 2.017v1.193l-1.214.688-1.845.688-.97 1.283-1.36 4.54-.728 1.33-1.345.893M586.198 475.937l.872.548.405.419 1.07 1.162 2.397 2.66 1.229 1.52 1.087 1.889 2.392 3.694.65.812 1.174.971 1.75 1.288M630.086 434.367l.194.27.199.711.413 1.619.475 1.101.516.825 1.055 2.345.531 1.442.607 1.349.46.734 1.036 1.18 1.543 1.443M636.263 449.799l.911-.592.072-.117.023-.168-.067-.24-.155-.494-.02-.225.024-.315.064-.262M303.711 554.5l.506.139 1.245.33 1.285.366 1.357.398 1.531.36 1.373.307.8.224 1.317.187 1.198.098.643.06.428-.045.532-.142.563-.21.595-.098.992.038 1.269.21 1.039.097 1.079.045.968-.037h1.094l1.048.157.896.09.603-.09.63-.064 1.012.079 1.23.097.983.03.841.09 1.134.173 1.341.321 1.444.3 1.087.307.92.3.674.202.659.352.468.443.491.726.326.675.333.561.42.645.524.57.603.598.658.652.476.495.659.704.603.87.475.823.437.675.31.509.443.42.516.389.873.255.721.112.62.105.658.03 1.055.008 1.174-.075.936-.045.96-.045.738-.157.84-.285.73-.33.54-.21.721-.082.572-.038.54.053.681.292.524.33.888.51.469.299.602.315.754.404.412.21.659.345.77.262.524.189M135.036 180.325l-.193-.208-.813-.357-.775-.585-.522-.97-.175-.96.252-1.226.697-1.765 1.414-2.379.164-.805-.252-.988-1.587-3.595-1.21-2.022-1.036-.987-1.433-.814-1.482-.257-1.568-.466-1.549-1.015-2.062-1.171-1.714-.787-1.24-.43-.716-.512-.638-.796-.669-1.83-.495-1.345M149.003 283.6l1.269-1.933.428-.764.095-.405-.015-.63-.27-.914-.524-2.308-.253-1.843-.302-2.249-.571-1.828-.523-2.279-.493-1.709-.76-1.963-.73-1.739-.778-1.169-3.475-4.212-1-1.02-.793-.598-1.46-.885-3.347-2.368-1.047-.555-1.031-.33-3.602-.779-.968-.315-1.205-.494-1.206-.884-2.666-1.62-2.633-1.783-.937-.96-.682-.989-.507-1.259-.699-2.728.096-.72.206-.524.412-.57.65-.6.81-.959.286-.262.158-.15.179-.146M223.967 233.893l4.78 5.021.58.854.148.751-.203 1.466.149.93.54 1.312.539.573.687.204h.634l1.565-.433 1.186-.064 1.066.268.944.42.701.676.769 1.172.957 2.357 2.185 3.822 1.742 3.632 1.268 3.135.634.815.701.574.829.335" clip-path="url(#p81121de12c)" style="fill:none;stroke:#000"/><path d="m183.415 293.028 1.571.18 3.03.255 2.793-.09 1.967-.225 1.809-.66 2.665-1.828 3.539-3.162 5.537-4.902 2.363-1.963 1.016-.75.92-.524 6.664-2.848 3.617-1.454 3.094-1.094 4.093-1.574 2.793-1.214 1.443-.75 2.349-1.693 3.11-2.204 3.03-1.978 3.03-1.619 2.52-1.218M183.415 293.028l-1.76-.18-2.698-.389M165.82 284.86l.936.45 2.11 1.049 1.46.42 1.158.21 1.492.3.713.344.62.6 1.348 1.843 1.27 1.184.983.644 1.047.555M170.984 298.814l.274-.89.4-.789.138-.238.175-.215.123-.135.138-.116.324-.198 2.958-1.45 1.872-.96.698-.45.584-.52.289-.394M165.82 284.86l-5.236-1.364-1.047-.255-.888-.135-.872.045-1.301.21-3.999.36-3.474-.12M122.19 311.1l1.186-.719 2.296-1.48 2.245-1.424 1.482-.907.26-.143.16-.068.288-.092 1.19-.206 1.202-.187.422-.107.315-.115.905-.388 1.312-.65.403-.288.333-.277.371-.438.258-.406.746-1.348.761-.944.456-.469.449-.356.504-.34.527-.275.618-.224.798-.203.694-.157.761-.285.58-.322.526-.383.226-.212.287-.327.59-.91.235-.472.107-.371.119-.566.024-.575-.028-.358-.099-.495-.282-1.068-.365-1.225-.369-.99-.135-.307-.108-.46-.02-.427.071-.756.149-.856.242-.918.32-.847.295-.595.21-.278.234-.225.28-.208.327-.178 1.217-.434 1.238-.24M165.82 284.86l.318-3.373.253-1.004.477-1.559.031-.554v-.6l-.206-.54-.444-.898-.46-1.454-.064-.66.159-.66M196.022 307.215l-1.335-7.6-.068-.304-.04-.1-.042-.082-.093-.12-.16-.116-.476-.229-1.603-.697-2.451-1.236-.766-.446-1.388-.886-.387-.268-.387-.21-1.384-.566-.698-.292-.333-.188-.369-.262-.627-.585M565.984 397.088l-.317-.443-.178-.475-.123-.573-.055-.87.07-1.154.152-.652.301-1.026.492-2.324.15-.501.278-.472.349-.398.429-.382 2.626-2.053 2.88-2.353 2.355-2.18.69-.375M542.527 334.553l.373.562 1.293 1.859 1.285 1.708.445.802.38.57.77 1.094.333.667.333.981.238.547.778 1.222.674 1.502.285.653.148.205.273.21.317.322.23.398.794 1.775.38.862.444 1.395.374 1.168.166.435.325.644.746 1.5.341.943.064.413-.064.434-.19.697-.683 1.611-.11.465.007.427.17 1.813.084.495.119.337.222.218.742.39.34.134.314.075.314.011.563-.101.754-.18.944-.284.313-.079.326-.022.237.01.246.046 1.484.607 1.094.374.778.255 1.277.27.896.24.905.284.555.248.587.352 1.214.816.54.45.618.532.444.517 1.174 1.252 1 .997.619.719 1.396 1.604.413.614.166.592.119.314.214.3.571.39.516.517.944 1.087.31.42.205.366.088.33.007.383-.118.854-.246.764-.27.57-.38.352" clip-path="url(#p81121de12c)" style="fill:none;stroke:#000"/><path d="m585.642 339.35-.262.502-.313.258-.273.187-.683.308-.678.22-.15.075-.088.11-.06.184-.34 3.483v.33l.142.847.096.39.158.27 1.246 1.348.769.937 1.214 1.754.214.411.032.33-.08.427-.483 1.02-.167.652-.103 1.543-.12 1.05-.3 1.004-.326.644-.801.757-.335.303-.121.244-.004.27.087.255.27.33.444.299.444.09.564-.037.999-.233.468-.15.35-.277.523-.487.408-.345.377-.15.185-.019.196.012.208.082.175.123.109.147.063.412-.159.817.008.554.16 2.024.197 1.813.294 2.106.111 1.184-.174.891-.453 1.26-.087.591v2.339l-.051 1.27-.028.453-.095.323-.262.411-.857.915-1.032 1.019-2.459 2.57-.864.712-.516.232-1.238.195-.666.128-.777.284-.936.36h-.675l-.65-.113-1-.307-1.404-.434M572.117 429.346l-.944-.213-1.04-.139-.57-.165-1.052-.51-3.014-1.573-.615-.439-.293-.329-.195-.498-.23-.727-.115-.794-.182-1.608-.159-1.315.055-.42.135-.344.278-.255.746-.48.5-.427.222-.374.23-.592.063-.532.008-.585-.08-.442-.3-.741-1.127-2.398-.175-.465-.008-.465.08-.307.222-.27.706-.539 1.602-1.094.46-.502 1.095-1.521.46-.915.659-1.558.25-.84.075-.674-.008-.72-.175-.98-.345-1.38-.178-.457-.238-.382-.635-.809-.682-.892-.77-.802-.849-.786M552.007 395.154l1.135.308.888.104.817.21 1.095.405.682.217.67.019 1.864-.041.437-.071.635-.165.53-.165.544-.034.833.15 1.92.442.912.232 1.015.323M573.976 430.272l-1.232-.679-.627-.247" clip-path="url(#p81121de12c)" style="fill:none;stroke:#000"/><path d="m515.017 458.738.082-.233.171-.115.397-.132.682-.19.389-.113.468-.158.504-.157.463-.21.865-.42.77-.471.595-.3 1.118-.48.655-.247.654-.243.778-.267.507-.18 1.293-.396.643-.255 1.777-.982 1.65-.996 1.237-.802.477-.36 1.086-.877.738-.494.952-.502.88-.465.984-.427 1.087-.502 1.491-.674 1.301-.592.937-.42.864-.45 1.031-.404.81-.202 1.205-.113.888-.112.762-.187 1.19-.45 1.047-.457 1.166-.375 1.658-.345 1.452-.36 2.935-.898 1.547-.465.62-.232.943-.517 1.436-.644 2.3-.81 1.016-.45 3.03-1.798 1.444-.914.896-.682.444-.382.294-.382.548-1.184 1.118-2.293.825-1.626M608.108 431.633l1.17-.68 1.246-.445 1.158-.304.964-.13.809-.054.872-.003.786.093.75.184.761.296.98.45.714.318 2.019.49 2.836.758.785.273 1.904.832.718.289.496.09.432.014 1.345-.127.5.007.408.143.325.24M630.852 417.267l-.223 1.147-.198 1.655-.119 1.282-.095 2.158-.067.944-.14.532-.158.48-.119 1.94-.04.982.104 2.503.087 2.341.055.472.147.664M449.259 495.717l-.198.176-.245.35-.451.532-.667.202-.452-.03-.547-.105-.762-.292-.944-.352-1.07-.412-.913-.225-1.008-.098-.896-.014-1-.015-.515.022-.635.15-.754.202-.507.15-.659.218-1.03.314-1.167.217-1.007.098-.786.037-.968.09-1.055.098-1.396.157-1.404.172-.793.12-.405.113-.57.299-.58.39-.833.666-.928.69-.294.169-.412.093-.428-.022-.548-.09-.595-.097-.666-.135-.548.037-.563.188-.619.27-.579.314-.698.472-.714.45-.476.36-.349.306-.34.352-.707.675-.698.629-.611.57-.476.599-.373.524-.317.517-.286.555-.452.712-.468.749-.405.637-.444.682-.388.614-.31.435-.325.517-.468.734-.492.816-.515.742-.318.495-.42.464-.58.435-.65.472-.595.525-.388.434-.421.547-.428.554-.429.645-.396.63-.38.68-.16.503-.135.554-.079.6.056.54.047.629.095.681-.047.592-.262.6-.23.36-.285.411-.334.517-.317.637-.072.517.056.435.103.45.215.83.182.78.079.877-.135.734-.166.585-.222.434-.405.607-.611.487-.587.405-.817.652-.61.509-.612.666-.626.562-.698.622-.294.405-.04.314.016.338.143.584.02.512M534.65 526.595l.643-.202.614-.109.861-.086.58-.041.447-.06.437-.127 1.019-.424 1.11-.42.786-.262.928-.3.73-.291.587-.218M567.88 528.453l-2.728-.719-1.08-.142-2.934-.45-.976-.262-1.127-.382-2.205-.974-.746-.472-1.832-1.192-.436-.24-.46-.127-.817-.187-1.286-.24-.666-.082-.793-.023-.659.008-.706.007-1.237.09-1.214.105-.967.254-.635.203-.984.427" clip-path="url(#p81121de12c)" style="fill:none;stroke:#000"/><path d="m536.506 523.568.397-.09.603-.045.84.075 1.302.12 1.76.165 1.984.262M567.88 528.453l.77.06M562.09 525.973l.603-.011.535.019.337.082 1.73 1.008 1.166.558 1.089.558.182.116.149.15M579.328 526.43l-.682.173-3.197.839-5.72.951-1.079.12M572.625 531.615l-.976.195-.563.045-.239-.105-.198-.202-.444-.847-.61-1.02-.945-1.168M579.328 526.43l-.153-.262M591.806 530.244l-.936-.457-.579-.203-.532-.074-.721.045-2.579.411-.44.02-.491-.08-.477-.198-1.848-1.195-3.003-1.918-.46-.165h-.412M597.486 529.525l-1.793.45-1.285.291-.523.113-.516.037-1.563-.172M597.486 529.525l.361-.616M230.027 460.88l-.426.158-.69.348-.644.345-1.11.667-1.047.66-1.071.74-.904.683-.512.345-.373.172M204.48 469.936l.194-.06 1.814-.607 2.813-.787.626-.232.333-.173.395-.233.3-.235.88-.783.585-.438.716-.446.694-.322.681-.203.731-.146.892-.03 1.785.18.945.06.973-.015 1.236-.075 1.65-.25.527-.143" clip-path="url(#p81121de12c)" style="fill:none;stroke:#000"/><path d="m221.708 471.914-.374.172-.388.098-.58.045-.53-.098-.421-.225-.262-.225-.301-.456-.127-.533.174-.501.27-.645.214-.704.056-.622.134-.577.199-.285.253-.225.58-.404.618-.427.627-.36.54-.315.444-.27.416-.36M572.854 282.222l-.087.674-.206.547-.032.443.095.681.009.675-.19.825-.644 2.15-.88 1.47-.381.778-.04.398.04.435.199.464.563.93.182.607.278 1.475.008.42-.294.593-.618.524-1.032.644-.293.36-.301 1.042-.27.996-.111.99.055.397.135.27.246.224.365.196.349.262.936 1.116.174.368.064.48-.143 1.626.032.3.166.321.714.765.183.27.095.45.127 1.318.167.84.285.884.159.615.087.929.15 1.056.14.559.472 1.083.825 1.768.269.562.516.622.278.39.182.427.365 1.32.302.681.65.974.428.592.135.457.222 1.237.254.846.468.952.111.435-.008 2.226-.103 1.37.064.488.166.405.318.36 1.047.794.476.382.254.382.285.757.135.727.08.203.166.224.73.885.69.981.658.75.837.929.587.87.448.681M584.054 577.15l1.002.29 3.571.609 6.216 1.019 3.201.363 1.025.122 2.217.388 11.362 2.291.692.132" clip-path="url(#p81121de12c)" style="fill:none;stroke:#000"/><path d="m604.938 605.616 1.917-3.02 1.983-3.125 2.047-3.386.198-.405.032-.285-.032-.412-.206-1.49-.143-.892-.254-.51-.619-.719-.658-.517-.27-.427-.214-.756-.064-.712.207-.78.285-.83.508-1.02 1.277-1.798.897-1.086.571-.495.94-.587" clip-path="url(#p81121de12c)" style="fill:none;stroke:#000"/><path d="m608.735 570.927-.135.547.04.292 2.554 4.458 2.079 4.562.214.712.031.487-.178.379M128.234 324.206l-.113-.186-.08-.194-.156-.574-.314-.816-.249-.548-.618-1.079-.456-.603-.41-.42-.38-.307-.635-.423-.226-.181-.178-.19-.09-.148-.077-.171-.067-.262-.03-.29-.014-.803-.063-.389-.095-.391-1.452-4.19-.341-.94M595.114 614.859l.024.45.142.4.058.225.008.24M601.794 624.291l1.804-2.453.326-.39.432-.42.928-.752 1.095-.884.436-.435.333-.405.171-.382.044-.321-.032-.293-.111-.168-.238-.075-.27.037-.21.15-.266.337-.293.345-.342.262-.559.296-.79.337-.927.285-.556.067-.587-.037-.452-.173-3.229-1.963-.714-.441-.634-.285-.801-.187-1.006-.169M596.614 613.132l-1.119 1.023-.285.39-.074.157-.022.157M594.245 614.983l.135-.277.107-.079.104-.019.099.015.424.236M196.022 307.215l.082.465.242 1.716.274 1.409.174.64.357.934.433.794.404.667.351.468.46.474.361.277.286.166.268.114.238.069.812.146 1.393.176.406.011.274-.01.266-.051.382-.105 2.166-.768M597.847 528.909l-1.535-.913-.801-.592-.183-.427.072-.547 1.07-2.247 1.207-2.285.135-.308.007-.22-.079-.308-.174-.176-.742-.422-.415-.077-.36-.014-.205.007-.248.049-.351.106-.393.066-.396-.082-.571-.315-.225-.015-.211.056-.176.124-.388.577-.412.674-1.389 2.555M191.566 472.97l-.409.464-.213.282-.397.75-.218.308-.179.212-.3.274-.711.494-.968.58-.916.469-1.07.46-1.238.413-.944.307-1.238.472-1.485.714-.671.376-.293.225-.494.435-.476.708-.294.727-.126.408-.056.332-.012.466.068.824.15 1.723.052.274.258.696.087.567-.044.958-.143.802-.202.495-.087.386-.016.28.037.195.05.128.389.622.052.147.035.186-.023.363M204.48 469.936l-.529.148-12.089 2.798-.296.088" clip-path="url(#p81121de12c)" style="fill:none;stroke:#000"/><path d="m158.86 485.333.46-.296.485-.416.736-.82.797-1.101.796-.837 1.287-1.052.702-.457.75-.337.987-.33.853-.348 1.05-.565.826-.484.517-.237.582-.223 2.13-.607.471-.19.503-.282.483-.396 1.627-1.523.164-.123.165-.087.25-.075.24-.026.25.008.32.047.38.106 1.655.698 1.92.835.429.105.369.037.448-.03.575-.135 2.618-.996 3.022-.975 1.86-.67 1.147-.35.852-.23M164.63 413.423l.088 1.207.095.54.182.636.508 1.473.082.321.247 1.342.203.783.23.637.452.918.09.197.06.211.042.225-.01.25-.143.657-.03.231.003.286.016.578.083.859.266 1.845.107.524.13.575.04.377.014.361-.013.186-.124.532-.146.76-.038.251.002.255.055.412.088.315.54 1.334.166.547.099.517-.02.502-.11.558-.297.656-.057.194-.105.758-.022.475.044 1.087.09.498.421 1.457.115.66.028.644.083 1.372.048.37.095.487.107.317.714 1.605.766 1.843.383 1.263.214.553.256.492.579.763.475.493.453.565.047.103.018.122v.083l-.012.087-.028.075-.057.076-.17.128-.52.3-.442.354-.112.143-.099.22-.15.494-.159.644-.008.163.017.176.045.216.142.318.675.914.991 1.067.686.829.155.253.246.488.298.58.233.297.262.253.206.165.877.496 1.162.536 1.277.42 1.9.513 2.543.55 4.054.967 3.673.832.987.352 1.178.51.924.487.643.434.385.405.16.235.077.14.046.16.03.18.006.186-.015.176-.074.33-.19.54-.762 1.245-1.174 2.18-.429 1.004-.095.176-.155.191M221.82 502.913l-.176-.624-.27-1.18-.057-.695-.01-.156-.025-.135-.088-.193-.121-.15-.818-.84-1.011-1.187-.515-.746-.7-1.032-.276-.339-.34-.348-.24-.2-.78-.606-.86-.584-.355-.312-.37-.37-.24-.293-.686-1.138-.87-1.596-.989-1.95-.815-1.82-.532-1.565-.515-1.75-.202-.914-.14-.925-.156-.619-.126-.357-.205-.467-.333-.625M204.48 469.936l.64 1.873.734 1.933.828 1.829.85 1.296 1.467 2.33M213.545 477.369l-1.508.584-1.396.585-1.642.659M158.86 485.333l-1.425-.24-.349-.262-.238-.423-.095-.637-.103-2.94-.619-3.32-1.257-5.608-.607-.903-.793-.54-.674-.198-.909-.139-1.646.083-.563.239-.361.386-.17.607-.177 2.692-.141.226-2.086 2.235-.944.65-2.595 1.521-.467.038-.306-.132-.301-.318-.334-.64-.368-1.39-.175-1.675-.11-.318-.398-.555-.666-.517-2.416-1.49-.285-.645-.004-.525.234-2.33.639-3.095.004-.933-.151-.891-.302-.81-.396-.636-.9-.96-1.024-1.472-.397-.914-.271-1.536.073-.783.413-.685 1.336-1.487-.051-.316-.387-.331-.724-.463-1.388-.742-.216-.34-.038-.364.1-.206.523-.435 1.114-.76 1.938-1.76.006-.477-.02-2.33.29-1.023.495-.978 2.285-3.192.179-.464.777-3.189-.071-.836M100.73 501.36l1.72.154.796-.004.718-.063.504-.116.323-.126.266-.147.267-.196.39-.378.374-.468.546-.907.202-.253.228-.2.276-.195.499-.248 4.286-1.644.342-.119.17-.036.157-.007.237.02.29.08.77.268.246.064.257.045.905.048 1.487-.064.674-.135.548-.194.42-.244.567-.464.71-.7.94-1.214 1.015-1.334.385-.371.373-.255.357-.146.757-.251.766-.19.589-.046.692.041.96.124.702.026 1.476.011.25-.002.224.031.22.072.208.099.189.111.404.307.42.405.223.144.207.076.264.07.302.028.813.045.996-.056 2.364-.285.94-.116 2.193-.453 1.365-.405.583-.247.444-.273.429-.364.626-.663 1.154-1.296.346-.235.158-.072.198-.058.278-.037.337-.006 2.059.27.39.012.33-.027.226-.059.246-.097 2.514-1.478.71-.337.438-.158.52-.103.395-.04.405-.003 1.35.184.425.023.492-.035.372-.067 1.063-.236.85-.33.848-.419.176-.113M111.768 509.608l.232-.037.194-.042.15-.053.179-.078.42-.229.37-.168.627-.25.287-.133 1.077-.56.787-.369.744-.29.44-.156.488-.129 1.15-.247.845-.146.752-.174.252-.1.265-.153.12-.129.06-.098.037-.092.018-.075.016-.16" clip-path="url(#p81121de12c)" style="fill:none;stroke:#000"/><path d="m120.325 518.915-.698-.43-1.213-.615-.397-.259-.385-.303-.396-.405-.116-.173-.162-.313-.029-.115-.007-.114.007-.103.024-.11.18-.431.02-.266-.068-.255-.085-.133-.105-.114-.25-.206-.321-.154-.19-.047-.203-.01-.475.011-.25-.025-.206-.05-.24-.096-.963-.465-.657-.4-.368-.272-.279-.254-.279-.306-.156-.2-.094-.186-.044-.165-.023-.154.004-1.15.056-.537.003-.086-.008-.095-.016-.068-.036-.099-.059-.081-.073-.073M100.73 501.36l.525.772.275.32.37.322 3.064 2.213.408.282.359.281.631.625.75.831.184.17.157.115.271.142 1.204.508.325.157 1.164.721 1.004.554.244.158.103.077M611.447 507.399l-7.428 11.666-5.311 8.377-.86 1.467M579.175 526.168l.867-.73 1.737-1.84 1.007-.97M557.997 486.99l.317.449.682.622.444.39.405.614.27.637.103 1.049.087.779.127.69.325.561.405.54.57.591.342.15.626.083.651-.03.5-.172.579-.503.437-.659.253-.502.31-.33.293-.12.714-.044.928.18.952.351.452.233.35.397.245.764.135.674-.08.937-.214.734-1.142 2.278-.261.78-.016.584.15.69.46 1.678.952 2.495.39 1.498.34 1.963.301 1.806.183.87.357 1.228.333 1.071.278.592.865 1.364.614.824 2.035 2.259.992.967.262.329.265.506.37.828.868 1.405.09.224.104.502.436 1.926.341.757.403.689M608.108 431.633l-.686-.136-.639-.176-.44-.24-.555-.495-1.182-1.408-.531-.514-.235-.153-.281-.056-.437.003-1.645.079-.703-.037M573.976 430.272l.287.157 1.177.43.69.297.687.423 1.305.937 1.63 1.341.722.472.924.326 1.083.229 1.063.146 1.75.09.888.06 1.075.19 1.114.3 1.367.482.66.298.484.27.357.164.385.087.595.033.972.086 1.455.289.65.183.528.064.571-.053.698-.183.952-.39.786-.37.876-.256.571-.082 1.571-.056.654-.067.449-.161.543-.304.873-.682 1.075-.895.384-.484.536-.749.273-.27.623-.498.849-.493M573.976 430.272l.18-2.454.372-2.495.239-1.267M587.5 559.734l-1.897-.712-3.729-1.506-.777-.262-.5-.008-.531.157-1.166.525-.326.067-.38-.015-.397-.202-1.373-1.049-1.03-.495-2.246-.928-.404-.064-.401.019-.766.097M129.801 325.572l-.057-.122-.149-.242-.134-.146-.423-.35-.439-.296-.212-.11-.153-.1M129.801 325.572l-.507.161-.172.033-.197-.003-.296-.061-.198-.086-.155-.138-.103-.203-.053-.303-.01-.16.03-.23.094-.376M129.801 325.572l.123.367.103.434.032.32-.005.246-.038.203-.066.189-.101.17-.194.255-.3.437-.166.29-.34.933-.456 1.117-.052.177-.035.212-.061.93-.032.393-.056.29-.077.185-.123.187-.167.17-1.309 1.738-.484.772-.156.349-.083.268-.078.331-.194 1.26-.231 1.9-.002.127.013.142.057.27.238.576M220.353 571.168l-.228-.043-.242-.004-.24.038-.284.082-.488.184-.38.195-.564.228-.793.375-.512.285-.761.434-.56.315-.428.28-.349.281-.286.259-.448.472-.8.865-.255.19-.198.123-.21.095-.25.074-.343.06-1.125-.053-.722-.065-.182.002-.155.027-.144.039-.117.06M194.45 615.204l.158-1.82-.047-1.716-.125-1.084-.224-1.576-.23-1.49-.083-.547-.064-.514-.007-.255.027-.213.111-.314.218-.435.377-.802.107-.584-.007-.615-.087-1.192-.014-.194.013-.265.119-.744.002-.274-.022-.263-.16-1.052-.02-.265.034-.173.069-.164.148-.2 1.246-1.574.712-.98.089-.153.076-.162.061-.26.058-.42.071-1.266.08-.546.23-.764.543-1.495.033-.34-.01-.304-.083-.48-.242-.584-.063-.281v-.236l.073-.22.074-.155.119-.146.084-.076.354-.244.331-.257.357-.348 2.749-2.97.952-.855.157-.159.29-.414.985-1.622.297-.46.563-.731.583-.618.266-.24 2.142-1.97.984-.93.385-.228M207.19 570.605l.33.06.26.086.28.137.112.03.116.012.413.01.116.024.827.22.45.164.329.167.134.108.054.073.058.122.017.162-.005.15-.234 1.04-.21.84-.366.685-.387.71-.114.283-.081.277" clip-path="url(#p81121de12c)" style="fill:none;stroke:#000"/><path d="m224.753 567.39-.174.203-.317.225-.453.254-.587.345-.793.404-.77.39-.713.532-.35.457-.19.472-.053.496M240.793 575.463l-.586-.011-.778-.045-.809-.12-.968-.337-1.626-.652-.52-.183-.416-.094-.833-.068-1.142-.03-.841.068-1.15.27-.897.123-.571.173-.44.258-.544.461-.22.169-.148.052-.132.027-.154.01-.106-.013-.338-.092-1.119-.456-.639-.218-.555-.172-.864-.293-.726-.254-.444-.266-.52-.469-1.579-1.625-.288-.238-.279-.186-.208-.084" clip-path="url(#p81121de12c)" style="fill:none;stroke:#000"/><path d="m271.854 588.596.31-1.07.024-.446-.032-.278-.047-.165-.092-.146-.325-.273-.536-.412-.475-.457-.222-.412-.175-.626-.174-1.109-.175-.607-.142-.311-.144-.24-.392-.381-.825-.495-.853-.386-1.13-.314-1.79-.42-.999-.31-1.13-.525-1.476-.84-.742-.269-.828-.143-.976-.045-2.027-.078-1.372-.176-1.091-.244-1.4-.43-.806-.206-.61-.101-1.626-.218-2.023-.262-1.547-.337-1.579-.292-.746-.075-.984-.09-1.046.007-.858.049" clip-path="url(#p81121de12c)" style="fill:none;stroke:#000"/><path d="m243.927 570.47-.706.225-.587.164-.61.172-.548.188-.639.19-.432.184-.317.195-.397.349-.135.27-.071.236.047.209.112.36.225.505.219.432.206.456.159.285.198.3.142.273M277.277 586.518l-.793-.135-.762-.045-1.006.113-.85.247-.532.307-.389.337-.356.352-.294.367-.44.535M196.022 307.215l.298.191.104.039.07.016.07.009.18.002.928-.072 2.096-.27.874-.117 3.605-.375.34-.066.163-.045.157-.063.23-.128.171-.202.145-.276M233.704 430.161l-.177-.17M244.635 449.822l-.177-.537-.717-2.068-.258-.483-.452-.712-.313-.601-.306-.714-.262-.84-.452-1.873-.23-.565-.643-1.132-1.047-1.757-.737-1.079-.699-.869-1.396-1.424-.813-.963-.78-1.053-.755-1.318-.745-1.446-.15-.227M235.876 428.897l-.39.18-.34.18-.333.187-.453.277-.373.225-.284.215M195.894 430.283l1.88-.022 2.173.142.682.116 1.611.408.821.105.434.032.23-.017.177-.033.56-.225.256-.083.2-.034.338-.033.943-.045.41-.015.182-.02.15-.036.152-.06.169-.101.809-.652.551-.33.67-.296.552-.163.634-.148.762-.068.57-.018.479-.054 1.021-.2 1.865-.27 1.834-.15 1.003-.113.328-.056.702-.19.678-.192.567-.206.204-.048.19-.012.298.034.292.065 1.055.324.678.184 1.13.206 1.084.314 1.51.319 1.69.3 1.54.314 1.808.195.666.052.556.188.343.167.196.133" clip-path="url(#p81121de12c)" style="fill:none;stroke:#000"/><path d="m216.464 421.666.27-.09.404-.21.452-.262.674-.308.572-.18.452-.03.333.06.31.105.388.203.468.21.571.217h.532l.468-.158.452-.217.706-.427.468-.172.31-.075.444.105.317.217.214.27.405.51.579.666.54.622.65.637 1.055.952.714.554.983.81.532.651.58.795.626.689.738.87.53.554.231.442.095.315M230.648 453.421l-.365.375-.19.345-.128.629.016.884.223.795.396.809.222.569v.825l-.27.794-.364.779-.161.655M611.447 507.399l1.984-3.117 2.46-3.853M584.054 577.15l.077.313-.016.345-.087.734.083.682.326.562.329.46.452.32 1.491.528M611.447 507.399l-.804-.516-.397-.334-.25-.334-.202-.442-.302-.648-.273-.42-.476-.546-.849-.91-1.114-.9-1.068-.614M542.527 334.553l-.356-.405-2.357-1.925-.8-1.072-1.032-1.656-.555-.735-.595-.591-1.555-1.897-1.904-1.52-.913-.623-2.007-1.783-.468-.106-.816-.045-1.373.285-1.388.345-1.262.18-2.53-.262-2.03.105-2.23.292-1.888.39-1.467.554-.762.57-.5.232-1.443.495-1.088.442-.54.022-2.395-.367-.54-.172-.864-.915-1.864-2.398-1.563-1.738-.658-1.072-1.634-1.506-1.31-.997-1.094-.525-1.348-.734-.207-.66-.04-.599-.174-.54-.373-.57-.555-.389-1.119-.015-.864.33-1.31.84-1.364 1.093-.317.12-2.054.142-1.968.45-3.435 1.394-1.737.42-1.714-.187-1.864-.315-2.023.105-2.998.892-1.817.974-.302.315-.3.809-.255.36-.785.337-1.032-.278-1.102-.742-1.222-.816-3.577-1.447-.604-.397-.285-.352-.238-.577-.317-1.978-.405-.076-.309.106-1.285 1.49-.35.076-.967-.094-.722-.236-1.404-.907-.913-.502-3.879-1.484-1.11-.21-.262-.217-.175-.314-.103-.578.088-1.348.888-1.881.968-1.62.159-.756-.056-.495M498.751 245.101l-.12.136-.337.27-.314.142-.392.127-.39.075-.34.03-.429.08-.579.209-.428.262-.313.229-.822.877-.912.966-1.138 1.177-1.004 1.113-1.816 1.821-.492.596-.325.442-.393.84-.472 1.071-.384.746-.306.775-.266.956-.19.956-.167.895-.119.619-.15.79-.16.896-.055.858-.015.603.015.364.016.408.072 1.71-.06 3.338-.016 1.019-.063.933-.08.637-.102.637-.092.378-.127.368-.123.262-.139.251-.178.278-.194.243-.385.341-.325.285-.532.45-.444.404-.48.453-.535.469-.504.51-.262.333-.282.382-.261.315-.254.289-.46.498-.449.521-.416.524-.186.304-.163.356-.226.625-.357.833-.29.562-.325.48-.147.205-.21.177-.365.277-.492.318-.84.51-.508.386-.242.236-.353.393-.33.473-.404.565-.643.828-.503.476-.532.428-.436.307-.793.51-.952.554-1.159.78-.856.704-1.08.96-1.078 1.123-.667.72-.666 1.049-.397.524-.65.93-.778.974-1.03 1.094-.429.644-.397.855-.412.81-.246.546-.357.555-.167.18-.246.228-.289.161-.456.143-1.063.135-.825.06-.778.12-.523.21-.81.374-.872.36-.905.33-1.221.464M439.535 314.717l.508.315.293.067.405-.023.437-.127.34-.158.69-.614.754-.78.984-1.094 1.03-1.094 1.128-1.214 1.118-1.2.643-.583.888-.81.793-.764.635-.705.667-.494.761-.345M421.184 310.926l.677-.496.84-.6 1.112-.57 1.094-.374 1.174-.255 1.222-.15 1.285.046 1.206.194 1.602.6 1.904 1.154 1.19.75 1.412.704 1.444.764 1.221.974.588.615.38.435" clip-path="url(#p81121de12c)" style="fill:none;stroke:#000"/><path d="m461.914 329.892-.444-.375-.445-.374-.602-.473-.651-.554-.802-.562-1.15-.884-.737-.623-.69-.584-.564-.39-.84-.63-.992-.629-.762-.524-1.047-.615-.666-.442-1.309-.81-.722-.45-1.07-.666-.786-.577-.675-.397-.61-.435-.476-.345-.762-.247-.643-.21-.967-.24-.397-.142-.849-.51-.547-.412-.714-.517-.547-.442-.445-.502-.468-.614M339.843 321.473l1.127-.746 1.475-1.012 1.404-.772.524-.284.396-.188.063-.028.45-.197.162-.127.19-.281.194-.352.108-.259.333-.9.301-1.003.39-.847.49-.937.199-.87.167-.704.38-.996.453-.803.65-.868.571-.54.834-.532.475-.48.468-.667.397-.72.595-1.213.57-1.44.382-1.01.428-1.23.484-1.236.627-1.14.626-1.056.556-.9.515-.711.556-.743.8-.607.81-.547 1.333-.824 1.277-.704 1.047-.585.936-.495.754-.494.809-.51.555-.382.294-.248.27-.351.57-.758.913-1.041.65-.72 1.032-1.094 1.213-1.169.936-.996.937-1.012.825-.855.38-.382.54-.465.77-.592 1.141-.666 1.802-1.244 2.752-2.136 1.515-1.08 1.468-.936 1.642-1.087 1.38-.742 1.618-.644 1.23-.338 1.349-.27.785-.202.627-.233.48-.378.254-.344.22-.366.72-1.332.698-1.41.825-1.438.54-.884.507-.765.587-.854.412-.704.175-.465.111-.435-.016-.622-.349-.72-.619-.824-1.206-1.281-1.15-1.094-.873-.863-1.11-1.199-1.301-1.191-1.333-1.221-.991-1.05-.611-.84-.785-1.228-.873-1.507-.5-.81-.396-.973-.627-1.777-.262-.922-.198-1.289-.127-.57-.107-1.217.02-1.087.035-.506.107-.48.17-.535.235-.573.341-.698.563-1.424.112-.36.142-.651.333-1.664M404.036 198.365l-1.475 2.952-.667 1.477-.619 1.89-.23.808-.08.63-.102 1.057.087 2.525.04.997-.04.667-.072 1.492-.07.982-.128.929-.119.69-.452.989-.817 1.026-.952 1.2-.38.45-.754.682-.682.404-1.246.607-1.055.473-.762.442-.404.427-.429.637-.476.765-.349.644-.8 1.791-.295.69-.3.652-.326.674-.23.435-.23.382-.294.397-.285.248-.833.697-.5.434-.492.562-.317.458-.19.337-.127.42-.088.337" clip-path="url(#p81121de12c)" style="fill:none;stroke:#000"/><path d="m378.619 227.59.31.24.313.184.34.165.441.296.782.622.698.57 1.257 1.02 1 .812.443.33.262.18.385.19.857.297.79.225M264.902 435.123l-.524-.854-.524-.824-.666-1.109-.555-.84-.317-.584-.032-.27-.175-1.214-.079-.944.063-.749.064-.54.317-.42.476-.389.413-.21.38-.51.366-.748.142-.704.175-.885.174-.974.095-.75.032-.719-.016-.51-.048-.869.016-1.003.048-.855.206-1.064.27-.584.159-.645-.016-.374-.095-.585-.223-.404-.09-.225-.052-.36-.06-.303-.035-.521.035-.337.076-.352.07-.29.152-.265.349-.225.246-.049.42-.01.825.044.548.049.547.086.5.094.515.094.381.067.484.056.452.026.238-.037.492-.135.46-.24.301-.24M244.635 449.822l.07-.851.055-.712.167-.697.222-.607.293-.457.476-.412.524-.315.444-.195.428-.142.5-.083.674-.09.643-.097.564-.015.76.067.699.135.548.173.666.06.61-.068.342-.127.73-.397.547-.397.54-.495.333-.502.348-.577.183-.277.222-.435-.008-.494-.095-.435-.159-.42-.08-.374-.063-.45-.031-.352.11-.36.16-.217.452-.195" clip-path="url(#p81121de12c)" style="fill:none;stroke:#000"/><path d="m264.902 435.123.063-.764.143-.809.222-.93.127-.674.095-.487.111-.277.19-.247.263-.24.349-.135.554-.217.485-.278.38-.284.318-.345.412-.472.46-.487.278-.322.285-.397.207-.225M323.59 371.265l-.866-.218-1.102-.307-.865-.232-1.254-.232-.809-.165-.714-.165-.825-.142-1.214-.248-.618-.194-.889-.405-.92-.622-.666-.502-.413-.307-.643-.472-.721-.555-.524-.405-.65-.487-.77-.584-.69-.547-.515-.502-.698-.645-.707-.607-1.285-.974-.761-.585-.857-.494-.333-.21-.452-.375-.627-.764-.357-.464-.31-.457-.46-.832-.365-1.154-.079-.885-.127-.959-.127-1.124-.237-.764-.46-.87-.588-.734-.365-.51-.254-.674-.119-.547-.087-.742-.032-.614v-.443l.112-.487.222-.434M284.337 294.565l.08-.517-.016-.824-.175-.66-.206-.555-.65-.869-.667-.765-1.016-1.109-.523-.704-.714-.78-.889-.944-.634-.734-.397-.465-.54-.367-.657-.105-.548.135-.65.322-.723.375-.634.307-.492.105-.516-.06-.626-.21-.444-.284-.619-.39-.334-.337-.523-.292-.777-.158-.778.113-.976.352-1.03.592-.984.63-.723.314-.698.375-.404.39-.412.711-.445.712-.54.817-.436.772-.674 1.072-.603.816-.476.668-.484.45-.523.426-.698.435-.572.352-.753.368-.54.3-.65.246-.563.173-.444.03-.659-.015-.722.045-.515.15-.762.18-.555.225-.682.366-.675.226-.452.082-.587.06-.833.157-.397.143-.602.172-.603.3-.524.382-.468.383" clip-path="url(#p81121de12c)" style="fill:none;stroke:#000"/><path d="m284.337 294.565-.793.045-.928.105-.381.21-.373.24-.357.381M453.131 549.8l.128-.335.338-.483.614-.674.647-.645.567-.599.357-.352.438-.342.341-.151.394-.105.442-.158.42-.214.46-.103.53-.239.553-.266.53-.44.447-.32.313-.274.28-.235.364-.204.568-.146.484-.061.57-.133.642-.21.574-.402.534-.412.454-.292.471-.277.551-.294.81-.124.638-.138 1.038-.163.599-.208.955-.217.767-.345.5-.172.547-.076.683-.09.789-.112.639-.052.65-.034.615-.023.456.12.508.255.595.341.472.199.511.116.5.078.5.071.559.045.567.105.607.214.488.296.572.3.57.224.794.18.555.083.428.06.476.172.389.247.444.314.42.42.596.704.238.382.285.338.301.21.589.25.602.169.5.135.952.184 1.203.175 1.027.032 1.136-.097 1.03-.033.667.005.343.11.385.172.282.22.362.327.196.419.274.846.235 1.036.101.56.15.672.117.435.103.58.14.858.066.604-.014.6-.169.484-.223.51-.132.36-.154.54-.123.52-.03.435.048.377.092.23.168.168.213.12.32-.133.237-.205.573-.47.43-.38.415-.24.447-.064.42.052.545.218.296.198.242.23.116.268M534.65 526.595l-.667.532-.777.585-.618.494-.865.704-.912.72-1.103.898-1.182.93-1.325.966-1.237 1.057-.619.562-.619.591-.413.502-.253.382-.286.525-.365.712-.428.779-.317.982-.112.352-.158.816-.08.645-.277.809-.294.697-.563.674-.476.405-.61.299-.683.315-.873.434-.983.382-1.658.892-1.285.652-1.96.899-1.11.532-1.048.494-1.142.33-.765.187-.722.188-.369.104-.286.128-.262.18-.499.562-.444.569-.635 1.146-.667 1.071-.944 1.32-.61.98-.913 1.162-.484.555-.372.336M423.475 617.657l-.408-1.502-.603-1.678-.167-.547-.047-.54-.056-1.984.063-1.237.096-1.25-.016-.855-.016-.285-.127-.359-.222-.33-.666-.63M225.96 559.674l.435.314.469.278.555.284.468.217.547.225.707.21M224.753 567.39l.588-.322.705-.3.278-.112M224.753 567.39l.223-.419.222-.66.127-.524.079-.352.008-.48-.214-.54-.318-.456-.174-.472-.032-.592.119-.704.238-.57.341-.606.262-.562.238-.435.087-.344M221.82 502.913l.185.65.285 1.323.116 1.52.02.467-.025.657-.142.484-.214.324-.145.163-.132.099-.271.118-.261.06-.212.022-.245-.003-1.106-.034-.199-.01-.198.018-.218.06-.778.337-1.325.464-1.34.607-1.516.85-.523.338-.412.303-.282.3-.38.532-.362.835-.737 2.087-.583 1.525-.39 1.13-.319.962-.406.865-.105.352-.04.216-.01.43.103 1.286-.024.749.088.887.03.304.061.266.14.324.3.466.44.457.524.371.594.349.182.084.132.041.113.021.138.018.199.02.151.022.161.043.268.123.288.178.336.274 1.357 1.221.89.714.657.522.349.27.341.307.31.356.214.334.372.861.238.915.095.606.255 1.356.261.772.453 1.161.372 1.087.151.891.127.885.023.576-.03.697-.12.861-.159.825-.27.779-.364.772-.12.832.2.54.277.449.253.404.365.607.373.696.23.6.23.69.31.674.23.719.127.697.111.584.214.495.294.494.246.405.205.314.215.375.34.584.413.734.485.862.388.637.357.629.54.75.261.696.103.63.016.562M221.82 502.913l.602-.256.554-.33 1-.734.722-.6.285-.202.223-.187.516-.413.293-.397.293-.434.317-.69.167-.57.016-.516-.016-.45.04-.36.23-.381.436-.495.548-.464.178-.21.155-.217.127-.248.08-.33.039-.441-.064-.397M277.277 586.518l.833.262.484.247.285.135.516.345.31.374.15.48.103.808.182.832.144.75.198.726.11.84-.023.531-.032.682.008.996-.016.734.04.533-.04.764M319.29 453.811l.134.997.143 1.259.119.944.12 1.109.15 1.528.134 1.281.104.93.174 1.476.135 1.266.103.644.111.72.166 1.056.072.494.111.69.016.562-.095.247-.262.337-.626.495-.524.39-.413.277-1.04.772-.888.637-.753.591-.746.592-.642.532-.627.57-.635.562-.563.39-.936.794-.666.546-.786.81-.356.42-.42.531-.366.727-.111.547-.072.69-.04.262-.181.232-.103.164-.453.158-.428-.037-.508-.143-.436-.195-.397-.232-.69-.352-.516-.225-.809-.225-1.349-.284-.697-.12-1.047-.21-.556-.075-.587-.075h-.294l-.372.045-.198.188-.12.382-.031.479M307.153 455.636l1.006.445.875.358.656.264.627.165.844.118.719.047.603-.03.579-.24.872-.427.763-.367 1.03-.464.976-.48 1.032-.517 1.555-.697M297.695 554.854l.02-.376.025-.326.035-.349.048-.404.032-.375.023-.3.092-.27.126-.34.104-.188.13-.295.14-.382.063-.285.016-.236.012-.326.031-.386.028-.333.064-.334.107-.33.119-.314.103-.303.055-.098.128-.101.174-.06.182-.06.147-.056.218-.131.202-.188.143-.255.056-.254-.024-.337-.06-.495-.063-.37-.107-.255-.08-.191-.174-.199-.349-.176-.603-.225-.392-.15-.683-.277-.745-.255-.683-.24-.706-.247-.563-.165-.508-.164-.444-.15-.595-.165M303.711 554.5l-.827-.228-1.285-.24-.825-.068-.722.106-.936.254-.674.225-.747.305" clip-path="url(#p81121de12c)" style="fill:none;stroke:#000"/><path d="m294.922 556.973.29-.424.398-.315.595-.419.698-.487.792-.474M284.228 539.916l-.081-.434-.072-.87-.055-.674-.064-.531-.166-.795-.159-.726-.182-.502-.16-.42-.324-.727-.397-.944-.302-.869-.214-.517-.27-.786-.205-.593-.246-.764-.262-.674-.365-.682-.23-.352-.373-.382-.238-.217-.397-.36-.563-.374-.365-.278-.428-.42-.342-.456-.221-.368-.302-.464-.317-.495" clip-path="url(#p81121de12c)" style="fill:none;stroke:#000"/><path d="m292.278 553.503.436.259.357.18.294.172.444.315.17.22.076.117.119.315.15.427.144.382.134.356.1.22.11.282.11.225" clip-path="url(#p81121de12c)" style="fill:none;stroke:#000"/><path d="m289.37 571.134 1.25-3.1.413-.921.53-1.206.683-1.491.682-1.626.706-1.716.302-.711.349-1.057.262-.906.158-.547.217-.88M281.862 568.694l-.301-.045-.294-.03-.674.023-.786.037-.618.007-.968.113-.841.075-.754.075-.912.105-.944.037-.468.112-.5.323-.404.262-.54.45-.61.48-.627.374-.635.314-.428.15-.572.022-.983-.082-.944-.165-.698-.194-.722-.263-.841-.36-.5-.194-.595-.203-.698-.082-.555-.008-.785.106M281.862 568.694l.337.158.163.119.428.375.317.307.516.51.515.442.421.397.492.366.531.248.389.038.54-.06.618-.113.588-.127.515-.12.722-.105.416.005" clip-path="url(#p81121de12c)" style="fill:none;stroke:#000"/><path d="m277.277 586.518.5-.135.356-.113.723-.404.61-.412.35-.345.436-.427.54-.337.499-.195.666-.24.762-.33.302-.262.554-.517.54-.666.42-.442.651-.727.619-.734.214-.352.222-.54.246-.824.246-.577.325-.787.159-.659.023-.427.128-.682.285-.764.436-.794.437-.997.844-1.695M256.275 471.969l.408.372.556.3.42.225.579.187.357.18.635.42.372.366.484.682.254.337.341.382.35.286.634.486.476.345.317.307.23.3.147.349.067.31.072.443.159.427.23.419.301.255.754.202.555.023.373.037.436.135.81.427.8.45.39.247.904.48.674.292.563.262M251.54 474.333l.764-.239 1.277-.3 1.056-.292.88-.315.325-.247.175-.232.135-.33.123-.41" clip-path="url(#p81121de12c)" style="fill:none;stroke:#000"/><path d="m258.25 462.518.162.442.127.622.04.637-.071.607-.167.614-.31.734-.547 1.296-.277.825-.175.704-.238 1.034-.52 1.936M251.54 474.333l.502 1.874.643 1.814.23.45.365.433.492.353.397.262.634.45.635.434.428.33.46.457.444.577.278.592.31.487.221.195.429.344.42.263M236.455 483.827l.57.046.326.082.372.03h.437l.373-.06.246-.232.214-.218.492-.577.515-.704.714-.824.73-.735.865-1.018.555-.727.81-.757.737-.622.595-.42.492-.224.84-.39.572-.24 1.063-.427.833-.36 1.04-.449 1.237-.525.457-.143M389.832 450.978l-.821.286-.746.277-1.095.232-.662.123-.71.143-.932.154-.94.153-1.007.139-.651.071-.706.098-.504.067-.237.138-.16.2-.067.197-.34.967-.326.735-.413.861-.38.802-.5 1.02-.428.793-.413.862-.54 1.326-.182.457-.158.562-.128.794-.301 1.334-.166.78-.151.711-.112.585-.047.72.04.546.031.54.008.726.024.622-.024.742-.047 1.184.063 1.094.143.824.19.54.159.944.174 1.303v.84l-.063 1.034" clip-path="url(#p81121de12c)" style="fill:none;stroke:#000"/><path d="m369.132 391.308.144.063 1.68.495 10.01 1.804 1.278.39 1.145.497 1.921 1.165 2.478 2.093 2.12 1.94 1.42 1.35 1.121.989.68.763.396.375.736.832.77 1.049.714.94.644 1.225.459.93.365 1.064.38.998.557 2.12.912 3.46.516 2.114.356 1.364.778 2.877.333 1.177.198.726.476 1.724.286.981.547 1.971.302.93.515 1.655.287.99.387 1.31.333 1.226.35 1.165.206.996.12.668.015.45.02.772-.052 1.01-.047 1.035-.143.891-.444 1.274-.492 1.019-.54.982-.634.854-.913 1.042-.785.711-1.253.892-1.079.6-1.19.509-1.079.344-1.293.338-1.15.187-1.436.135-1.31.12-1.415.09M421.184 310.926l.122-.518.135-.368.253-.487.365-.532.342-.57.285-.6.262-.396.246-.24.523-.457.5-.435.317-.345.302-.3 1.27-.771.943-.532.436-.285.635-.412.642-.382.42-.255.445-.412.278-.307.285-.375.19-.345.318-.405M409.96 317.38l.613-.573.337-.3.321-.232.408-.285.893-.509.686-.397.98-.532.587-.274.746-.405.701-.367.679-.288.646-.281.727-.3.503-.24.492-.243.706-.394.396-.247.803-.587M461.914 329.892l.753.337.754.232.912.218.643.24.436.202.334.24.547.479.349.345.31.277.578.285.833.322.667.285.57.3.667.127.944.15.65.06 1.104.045.84.045.833-.015.888-.082.611-.016.754.023 1.206.285.793.112 1.396.3.825.165.706.142 1.007.308.77.262.595.172.54.112h.65l.69-.022.81.008.777.014.523-.037.468-.037M495.113 480.83l.095-.502.048-.442-.04-.24-.12-.314-.253-.187-.492-.158-.54-.09-.904-.082-1.206-.173-.824-.112-1.048-.202-.356-.12-.722-.225-.738-.15-.857-.112-.476-.082-.325-.09-.516-.21-.46-.352-.372-.45-.286-.472-.31-.524-.388-.72-.405-.817-.333-.644-.246-.45-.199-.606-.087-.825-.103-1.116-.031-1.169-.08-.735-.04-.621-.238-.787-.237-.772-.215-.622-.237-.629-.223-.592-.5-.981-.54-1.005-.443-.584-.381-.502-.58-.824-.673-.824-.46-.533-.42-.434-.184-.232-.205-.39-.183-.36-.143-.42-.055-.381-.008-.502.206-.824.413-.84.634-.989.238-.382.151-.45.285-.757.095-.546.032-.382-.023-.525-.064-.66-.071-.524M515.017 458.738l.023.236.095.674.064.39.063.809.088.892.023.914.032.719v.809l-.024.937.032.832-.047.75-.144.628-.182.45-.19.584-.207.36-.349.397-.436.457-.643.517-.491.368-.818.711-.658.472-.706.554-.603.697-.285.443-.23.411-.135.338-.214.532-.286.674-.349.75-.389.838-.262.48-.34.24-.35.217-.65.33-.611.284-.904.435-.564.375-.737.457-.786.39-.856.276-1.19.293-.85.157h-.888l-1.158-.217-.92-.053-.896.008-.548.098-.428.18M471.624 512.263l.428.044.365-.068.722-.374.745-.457.667-.412.587-.457.674-.375.698-.412.841-.382.84-.285.628-.097.96-.203 1.166-.404 1.269-.54.84-.307.834-.262.492-.142.563-.323.388-.531.365-.854.365-1.095.207-.801.277-.757.214-.637.111-.382.135-.525.096-.344.04-.397.015-.555.008-.84-.024-.539-.08-.651-.166-.667-.142-.412-.326-.465-.238-.224-.19-.158-.143-.217-.182-.262-.064-.383.016-.3.246-.531.413-.502.555-.884.682-1.132.65-1.228.294-.555.23-.554.198-.413.112-.344.166-.435.27-.397.698-.412.761-.27.58-.247.404-.218.238-.314.167-.45.238-.689.134-.562.072-.42.111-.554.198-.48.326-.681.428-.585.349-.427.397-.322.57-.375M449.259 495.717l.121-.038.12-.011.116.037.246.212.258.27.345.38.256.254.241.379.19.42.205.526.104.284.192.334.174.28.25.335.278.363.254.337.408.521.484.64.531.57.607.663.365.345.52.494.726.585.404.318.425.285.54.374.408.307.531.536.484.337.56.352.365.2.483.21.445.16.789.217.71.191.73.184.757.172.718.143.571.187.52.21.551.247.587.442.437.322.475.292.512.315.678.202.627.11.599.07.65.154.27.142.167.206.222.476.083.401.028.307.048.297" clip-path="url(#p81121de12c)" style="fill:none;stroke:#000"/><path d="m521.503 519.925-.276-.343-.523-.465-.57-.419-.453-.262-.635-.33-.69-.307-.61-.172-.417-.05-.655-.107-.333-.064-.416.014-.413.057-.71.127-.385.079-.428.079-.758.097-.5.041-.487.034-.6.075-.55.09-.6.06-.368.033-.393.026-.413.038-.428.101-.42.172-.468.177-.564.3-.912.471-1.127.69-.784.524-.794.794-.5.675-.745.524-.714.382-.69.39-.865.419-.889.645-.531.442-.619.666-.436.382-.913.562-.69.54-.523.494-.912.562-.746.457-.794.323h-.491l-.548-.12-.57-.06-.47-.03-.411-.023-.413.008-.468.097-.42.27-.548.547-.944.742-.603.097-.634-.105-.635-.33-.65-.434-1.111-.712-.5-.225-.5-.142-.658-.03-.817.113-.627.33-.325.187-.246.194-.333.045-.405-.21-.206-.24-.143-.404-.11-.974v-.57l.03-.464.033-.57-.048-.314-.222-.652-.412-.704-.604-.862-.491-.659-.365-.427-.54-.592-.515-.322-.698-.225-.611-.105-.762-.24-.428-.337-.548-.592-.254-.494-.333-.622-.476-.974-.674-.81-.658-.809-.341-.816-.048-.6.111-.689.246-.54.238-.524.349-.45.175-.313M283.917 564.588l-.508.135-.38.172-.366.278-.356.36-.247.36-.198.471-.087.262-.032.27-.008.3.032.367.063.352.08.423-.012.221-.036.135M284.228 539.916l.101.533.127.697.087.689v.562l.199.636.27.502.261.405.381.48.302.262.396.45.325.366.238.457.262.577.302.637.245.607.246.554.286.54.357.674.23.397.365.645.388.516.611.757.477.487.53.487.294.315.302.16.19.083.278.112" clip-path="url(#p81121de12c)" style="fill:none;stroke:#000"/><path d="m290.763 545.311.135.21.174.247.064.15.102.225.104.337.08.385.063.334.09.457.028.247.167 1.675.064.663.02.404.02.337.063.338.122.498.076.318.091.386.044.296.056.322v.191l-.048.172M521.503 519.925l.312.519.635 1.176.618.794.666.817.397.427.508.57.468.411.864.66.778.562 1.332.929.492.367.357.217.476.277.42.128.517.09h.452l.753-.157.42-.158 1.492-.494 1.19-.465M449.102 493.898l.072.337.087.621v.33l-.002.53M284.228 539.916l-.446-.554-.35-.57-.396-.45-.492-.388-.278-.218-.34-.292-.223-.36-.142-.45M542.392 333.017l.008.405.048.554.08.577M510.09 457.812l1.04.12 1.11.038.428.037.42.217.469.293.444.202.31.075.253-.015.453-.041M454.767 541.804l-.334.206-.345.308-.139.183-.135.375-.158.465-.246.397-.357.45-.492.598-.638.836-.46.46-.167.244-.087.292-.024.266.059.142.214.27.294.33.5.487.293.367.317.727.269.592" clip-path="url(#p81121de12c)" style="fill:none;stroke:#000"/><path d="m450.947 553.998.257-.787.238-.595.215-.45.42-.794.234-.408.214-.409.175-.28.142-.206.289-.27M460.192 334.051l.127-.345.318-.69.317-.883.349-.78.365-.78.246-.681M521.503 519.925l.272-.635.468-.614.571-.427.65-.405.754-.255.905-.202.618.022.754.06.73-.097.928-.292.976-.382.88-.323 1.174-.367.92-.165.802-.15.785-.067.944-.157.674-.18.698-.382.54-.322.468-.217.714-.218.793-.052h.667l.73.157.539.217.524.375.333.285.476.307.277.15.195.06.289.037.222-.026.167-.049.825-.442.983-.487.477-.165.721-.435.278-.194.325-.315.325-.502.135-.39.064-.397-.024-.531-.031-.45-.064-.547-.087-.6-.048-.554-.048-.39-.095-.749-.04-.524-.031-.33-.04-.6.056-.329.119-.3.27-.36.507-.344.46-.105.738-.097.595-.008h.619M303.711 554.5l.268-.678.484-1.086.317-.72.254-.441.135-.36.127-.442.103-.487.032-.412-.064-.54-.103-.307-.103-.66-.016-.299-.072-.232-.126-.218-.286-.292-.167-.12-.523-.314M275.158 456.972l.152.668.301 1.319.285 1.041.294.824M307.153 455.636l-.263-.117-1.673-.696-1.54-.675-1.785-.719-1.515-.532-1.221-.45-.757-.261-.822-.173-.73-.09h-.983l-.857.037-1.428.03-1.103.038-1.038.08-.905.01-1.04-.075-.541-.118-.736-.227-.761-.24-.603-.212-1-.372-.63-.123-.782.003-1.047.127-.823.13-.763.23-.54.277-.436.487-.286.562-.468.705-.435.61-.604.611-.674.547-.572.407-1.76 1.039-.874.486M307.153 455.636l-.691.273-.77.27-.563.217-.476.195M409.96 317.38l.517-1.008.571-.846.69-1.004.659-.96.563-.907.92-1.326.572-.831.428-.668.484-.584.674-.727.317-.352M369.132 391.308l-.27.504-.31.607-.444.75-.194.318-.21.356-.138.275-.085.212-.026.11.034.13.077.088.097.084.038.075.018.109-.008.206-.143.547-.214.899-.238 1.109-.27 1.454-.451 1.896-.604 2.292-.38 1.537-.373 1.536-.166.562-.096.48.032.486.198.427.492.757.333.435.302.427M352.766 366.417l.817.187.73.165 1.11.21 1.28.165M337.993 314.235l.573-.253.54-.157.515-.113M355.211 116.615l-3.032-3.577-.841-1.064-.643-.907-.428-.652-.31-.562-.388-.54-.413-.33-.452-.285-.444-.27-.968-.569-.872-.57-1.333-.996-1.349-1.117-1.412-1.245-.524-.465-.579-.547-.721-.704-.833-.877-.563-.622-1.349-1.372M323.303 217.289l-.706-1.267-.666-1.49-.38-1.417-.12-1.027-.048-1.447.096-1.619.11-.847.278-.921.39-.743.364-.749.254-.72.015-.569-.15-.69-.27-.577-.46-.546-.817-1.02-.515-.592-.302-.33-.373-.285-.476-.345-1.047-.772-.42-.411-.484-.795-.175-.525-.119-.644.016-.525.182-.847 1.075-4.875.314-1.128.111-.255.317-.581.416-.566.62-.832 1.812-2.762 1.154-1.941 1.075-1.758.833-1.311M332.148 166.938l-.246.506-.174.304-.528.711-.352.435-.488.513-.333.402-.469.693-.396.648-.21.36-.504.85-.346.555-.36.675-.445 1.128-.852 2.102-.258.671-.238.69-.127.307-.286.498-.33.574" clip-path="url(#p81121de12c)" style="fill:none;stroke:#000"/><path d="m306.16 170.476.833 1.195.353.435.385.45.278.34.166.27.14.24.523.783.27.248.3.243.402.191.563.027.635-.072.57-.138.456-.154.651-.39.5-.385.27-.18.488-.218.44-.135.618-.123 1.65-.206.945-.109.384.011.29.11.321.179.754.708 1.007 1.057 2.237 2.33.754.788.405.374.507.413.492.36.198.157.262.285M361.341 131.601l-.848 1.218-.596.817-.785.982-1.055 1.072-.96.945-1.095 1.131-.991.9-.77.824-.832 1.095-.31.524-.643.877-.714.75-.666.667-.825.817-.88.817-.54.554-.524.69-.515.66-.38.72-.334.666-.404.577-.437.517-.516.63-1.34 1.274-.905.727-.618.45-.762.772-1.832 1.912-.325.397-.282.36-.325.58-.239.502-.289.525-.246.383-.29.36-.416.572-.377.42-.317.293-.301.266-.326.288-.34.263-.532.48-.365.322-.337.46-.298.525-.25.551-.242.577-.214.469-.528 1-.258.461-.364.525-.429.69-.226.483M318.107 149.024l3.285.593 1.562.43 1.25.424.86.349.893.434.551.352.294.323.186.33.202.535.12.431.114.806.048.48.012.543-.016.36-.278 1.106-.27 1.458-.051.397-.012.42.016.367.202 1.506.21 1.147.056.341.159.334.214.4.246.308.563.427 1.745 1.065.532.427.527.543.321.416.274.416.226.446M329.377 230.375l.066-.15.032-.42v-.352l-.103-.63-.817-2.173-.754-1.978-.634-1.462-.421-.862-.54-.966-.539-.788-.722-1.124-.5-.667-.348-.51-.794-1.004M275.155 236.768l.583-.528.72-.581 1.307-1.038 1.36-1.016.861-.678.559-.36.623-.367 1.194-.64 2.848-1.485.301-.15.258-.1.436-.068.524-.034.67-.075.492-.056 2.384-.285 1.507-.176 1.507-.187.409-.06.329-.087.452-.146.385-.172.373-.255.396-.288.223-.214.34-.457 1.044-1.44.512-.674.198-.303.19-.401.397-1.06.147-.368.218-.371.294-.353.257-.276.317-.285.39-.251.46-.27.598-.237 1.087-.366 1.11-.39 1.258-.551 2.253-.948 1.487-.611.992-.326 1.443-.551 2.023-.757.52-.19.563-.18 1-.282.896-.229.817-.202.52-.056.516-.008.698.087.8.22 1.31.44 1.511.678 1.281.535M215.046 168.471l.248-.697.103-.825.087-1.05.678-5.924-.056-.697-.388-1.035-2.602-2.623-.96-.495-2.22-.509-1.468-.12-1.024.277-.492.217-.801.48-1.404 1.215-.92 1.244-.342.554-1.293 1.395-.951.682-1.944.802-.65.164-1.04.577-1.348.78-1.008 1.072-1.047.802-3.141 1.873-2.031 1.567-1.024 1.027-1.554 1.701-.635.495-3.577 3.538-1.46 1.394-1.491.884-1.73.84-8.31 3.005-.828.832-.298.61-.163.62-.456.475-.702.484-1.543.6-5.676 1.847-2.697.933-.646.431-1.81.686-1.958.562-1.083.056-.917-.075-.507-.21-.226-.416-.314-.967-.36-.427-.306-.183-3.348-1.248-2.38-.158-1.277-.45-1.523-.899-1.515-1.341-1.988-1.207-1.023-1.254-.287-.112-.384.055M275.155 236.768l-.183-.258-.206-.255-.246-.191-1.896-1.29-3.566-2.491-1.435-.964-.825-.596-.365-.314-.25-.229-.234-.31-.159-.244-.655-1.027-1.07-1.615-.67-1.046-.477-.708-.52-.918-.558-1.102-.247-.52-.543-1.117-.376-.769-.5-1.135-.27-.652-.286-.63-.134-.517-.06-.51.012-.58-.028-.315-.048-.319-.055-.296-.179-.686-.242-.933-.103-.378-.253-.64-.223-.59-.352-.861-.484-1.215-.655-1.536-.317-.783-.139-.442-.111-.379-.48-1.735-.476-1.731-.068-.229-.067-.21-.154-.273M258.916 194.5l-.365.525-.368.574-.286.622-.246.607-.139.323-.063.206-.084.34-.083.465-.095.36-.198.48-.67 1.555-.496 1.057-.477 1.094-.162.285-.182.236M224.087 232.916l.298-.765.202-.46.258-.578.527-1.158.786-1.623.602-1.247.235-.322.25-.244.273-.217.36-.36.279-.311.29-.232.368-.21.274-.083.42-.052.611-.038.33-.004.25-.014.356-.076.206-.12.203-.16.218-.256.147-.284.174-.873.06-.266.087-.244.067-.135.183-.221.563-.367.638-.439.338-.292.603-.476.908-.622.385-.288.377-.3.809-.72 1.166-.929.634-.584 1.317-1.095.702-.536.389-.31.389-.424.36-.398.544-.554.547-.573.893-.832.83-.716 2.264-2.02 2.554-2.091.75-.648 1.202-.956 1.313-1.124 1.654-1.353.242-.225.23-.262M223.118 233.033l.97-.117M223.967 233.893l-.4-.42-.45-.44M224.087 232.916l-.12.977M215.046 168.471l.513-.244.163-.13.139-.207.147-.274.087-.375.075-.78.076-.385.142-.412.27-.476.139-.278.214-.525.095-.726.1-.731.253-.945.143-.536.15-.468.215-.259.25-.16.313-.124 1.741-.409 4.34-1.079 3.097-.866.286-.09.468-.09.758-.161M361.341 131.601l.262-.558.325-.855.294-.952.166-1.102.226-1.498.012-.405v-.409l-.02-.31-.09-.372-.128-.333-.162-.262-.175-.26-.496-.539-.507-.544-1.028-1.097-.682-.825-.662-.88-1-1.283-.42-.427-.58-.532-.92-.9-.545-.643M588.57 139.115l-2.483-1.506-3.182-1.469-1.42-.075-.57.105-2.833.652-2.364-.143-1.523-.457-.92-.39-.531-.075-7.323.068-1.3.21-2.103.72-2.411.33-2.848.726-.817.083-8 .105-.6-.068-.892-.465-1.697-1.322-1.1-.593-3.442-1.206-2.891-1.113-.397-.09-3.265-.196-3.18-.816-2.103-.225-2.999-.69h-.563l-.46.128-1.888-.016-1.063-.186-3.776-.937-4.823-.533-2.332.15-2.15.472-1.293-.037-2.388-.24-2.007-.03-5.3 1.26-2.054.33-2.11.247-2.935 1.101-1.808.6-1.42.96-1.912.854-1.238.39-4.879 1.214-3.672 2.338-1.246.675-4.601 2.233-3.3 2.211-1.007.847-.556.555-1.896 2.032-.801.532-2.57 1.304-.365.367-2.007 2.226M404.036 198.365l.793-.622 1.071-.667.88-.488 1.127-.562 1-.51 1.404-.719.61-.375.516-.45.643-.667.555-.63.563-.591.587-.592.793-.81 1.095-1.214.738-.742.595-.457.722-.525 1.325-1.094 2.95-2.736 2.515-2.196.849-.697.984-.712 1.317-.697 1.515-.78 1.237-.494 1.19-.307 2.198-.023 1.729.068 1.214-.053.77-.082 1.023-.248 1.46-.404.658-.323.595-.36.936-.63.587-.434.555-.472.762-.674.603-.398.745-.36 2.078-1.461.794-.584.817-.75.785-.877.516-.645.492-.532.563-.742.714-1.311.896-1.567.453-.944.245-.63.342-.982.222-1.094.095-.682.325-1.709.159-1.184.087-.66.222-.615.548-1.386.523-1.252.635-1.769M438.674 122.532l.084.51.075.637.206 1.187.258 1.001.31.81.444 1.176.19.38.258.524.115.333.107.51.37 1.244.308.948.238.671.12.488.202.996.099.731.115.888.047.491.103.42.128.318.15.27.226.285.302.285.468.266.777.33 1.491.723 1.23.574.762.404.714.443.642.48 2.277 1.866 1.023.622.381.292.341.308.19.198.175.263.163.367.285 1.05.12.606.142.431.131.285.326.465.42.509.61.87.386.686.174.348.178.435.214.73.088.375.119.701M387.805 148.773l.151.36 1 2.544.662 1.601.48 1.218.706 1.97.134.488.052.274-.008.322-.035.326-.183.383-.214.472-.182.37-.215.683-.04.468.009.468.043.349.12.91.146.59.135.483.25.607.222.57.162.382.155.45.107.453.071.498.024.446.036.55.044.66.095.683.127.502.353 1.274.246.776.364.952.437 1.383.357 1.06.19.813.115.581.092.465.146.484.147.374.159.367.273.424.46.54.889.989.884.873.417.39.619.61.738.84.674.63.468.487.384.464.588.559.349.412.48.615.69.85.547.592.218.24.27.251.226.368.199.318.258.6.134.596.107.367.266.888.393.866.412.843.15.382.084.353.016.258-.028.379-.17.502-.286.73-.186.506-.393 1.125-.254.757-.166.633-.14.746" clip-path="url(#p81121de12c)" style="fill:none;stroke:#000"/><path d="m387.805 148.773 1.872-1.004.326-.203.19-.202.115-.273.08-.364.185-.855.16-.576.158-.477.159-.494.281-.724.782-1.645.734-1.323.511-1.131.238-.664.08-.566.027-.802.004-.618.115-1.214.092-.87.146-.712.313-.963.155-.543.286-.829.19-.656.302-.76.198-.484.587-1.027.607-.907.52-.787.52-.656.693-.498.575-.371.627-.311.52-.21.511-.278.496-.295.389-.285.258-.262.261-.293.274-.319.369-.386.615-.577.416-.33.48-.322.813-.435 1.325-.682 2.384-1.072.321-.153.436-.176.338-.045.42.034 1.162.423.377.12.266.086.242.068.277.044.52.045 1.25.038 2.63.135 2.708.187 1.067.075 1.654.094 1.622.086.841.072 1.452.01 1.063-.07.96-.083 1.222-.165 1.765-.322.59-.098.504-.04.61-.03.89-.016.71.012.321.06.337.093.317.15.314.206.607.476.614.555.346.382.273.266.226.165.222.153.187.083.269.094M361.341 131.601l.678-.014.457-.023.84-.086 1.813-.266.917-.06.638.018.872.094 2.27.43 2.26.342.647.18.357.142.555.248.742.326 1.654.91 1.238.787.67.57.377.454.46.607.242.4.138.282.163.532.266 1.934.095.667.12.45.058.247.19.405.254.363.393.484.782.775 1.039.934.531.412.512.303 1.039.495.984.409.448.198.31.176.293.199.194.221.194.27.155.352.226.79.167.582.226.633M378.619 227.59l.353-.588.686-1.109.115-.228.123-.405.012-.259-.04-.21-.083-.172-.187-.236-.773-.656M378.619 227.59l-.488.41-.31.303-.583.667-.233.367-.235.438-.428.743-.258.396-.293.342-.246.213-.282.169-.452.232-.392.206-1.305.488-.397.168-.813.345-1.44.554-1 .371-.65.266-.298.2-.194.145-.147.146-.345.578-.238.408-.305.622-.139.311-.095.266-.123.225-.135.198-.163.177-.234.232-.233.244-.223.314-.313.405-.35.405-.646.573-.722.614-.837.87-.622.794-.393.581-.35.55M329.377 230.375l1.085-.131 1.897-.221 1.566-.18 2.067-.225 2.118-.225.377-.015.448.03.59.15.683.273.607.233.543.161.302.049.246.011.448-.03.833-.127.417-.064.53-.011.58.063.555.139.79.247 1.51.48.401.142.44.076.334.022.293-.011.31-.056.325-.165.357-.225.234-.236.333-.371.361-.514.659-1 .392-.562.365-.469.294-.314.356-.32.413-.34.754-.547 1.003-.573.893-.394 1.075-.427 1.094-.352.98-.218 1.182-.225 1.281-.16 1.135-.136.753-.105 1.047-.206.802-.127.333-.062.226-.06.214-.08.218-.124.111-.135.095-.131.167-.259 1.317-2.196M498.751 245.101l.317.406.245.363.357.588.429.694.277.386.31.412.642.896.321.397.421.483.408.352.901.896.36.454.187.22.203.315.646 1.285.095.173.226.52.203.563.099.453.095.724.214 1.855.27 1.832.29 1.498.043.462.072.498.087.506.139.54.202.456.297.525.464.667.833.903.932.96 1.135 1.056.936.798M530.684 215.299l-.52.21-1.063.412-.872.293-1.42.397-1.48.517-1.063.48-1.404.614-2.519 1.185-2.237.899-1.527.566-1.773.614-1.043.36-.603.27-.643.415-.325.297-.448.521-.294.39-.313.397-.583.618-.857.798-.389.375-.876.768-.638.517-.607.427-.591.413-.576.502-.412.472-.381.472-.313.514-.794 1.375-.872 1.387-.754 1.183-.412.783-.262.54-.242.593-.301.73-.123.379-.135.486-.484 1.544-.425 1.376-.178.72-.163.674-.19.929-.29 1.308-.15.431-.222.464-.166.187M530.684 215.299l.067 1.709.02.334.016.189.06.155.138.074.202-.006.246-.103.15-.075.221-.127.323-.261.203-.22.234-.214.29-.21.217-.14.286-.16.476-.165.444-.132.73-.153.778-.094 1.082-.045 1.02-.03.809-.067.92-.12 1.11-.169 1.02-.18.623-.097.642-.056.722-.034.754.037.975.072 1.658.164M575.9 186.395l-2.458 2.444-1.032.66-1.205.359-3.348.645-1.27.374-1.84.84-1.808 1.064-2.047 1.304-2.174 1.124-.84.645-.334.615-.19 2.278-.175 1.589-.475.9-1.127 1.424-1.587 1.048-2.57.585-6.878 2.054-.452.236-.274.16-.36.23-.357.265-1.571 1.117-2.027 1.465-1.09.87-.949.768-.301.315-.595.577-.373.337-.424.307-.56.233-1.003.412-1.809.84-1.333.667-.38.153M565.77 614.267l.695-.427.178-.049.194.023.147.06 2.348 1.397M549.112 616.98l2.552.233.265.043.3.113.89.33M604.938 605.616l-.812 1.28-1.142 1.423-.43.532-.498.472-1.492 1.131-3.435 2.255-.515.423M591.473 609.338l1.523.891.246.127.222.038.976-.015.135.022.126.053 1.619 1.049.174.135.032.112v.165l-.222.592-.008.157.048.15.27.318M586.483 611.001l7.762 3.982M575.9 186.395l.984-1.364.35-.794.301-1.725.143-3.207-.111-2.863.103-1.087.238-2.054-.087-.892-.286-1.29-1.016-3.342-1.19-4.347-.666-1.829-.142-.614-.262-3.883.023-.907.135-.69.754-2.915.413-1.05.935-1.288 1.54-2.024.825-.78 3.03-2.563 5.886-5.142.77-.63" clip-path="url(#p81121de12c)" style="fill:none;stroke:#000"/></g><path id="PatchCollection_1" d="m595.55 478.772-.436.642-.922.046-.68-.505-.68-.32-.776.825v.917l2.378 3.989 1.36 3.256 3.204 2.522 2.233-3.118.194-1.238-.048-.78z" clip-path="url(#p81121de12c)" style="fill:#00f;fill-opacity:.8"/><g id="PatchCollection_2"><path d="m360.748 350.949.835.353-.306-.63zM338.745 351.741l-.363 1.262 4.454 1.137.363-1.342zM351.954 355.451l1.676 3.666.19.154.236-.01.185-.222.791-2.995v-.5l-.65-1.124zM363.34 378.954l-.147-.927-.333-.833-.266.05-.35.084.787 3.627.456 2.251.537 2.358.173.241.037-.396-.328-2.616-.32-1.903z" clip-path="url(#p81121de12c)" style="fill:green;fill-opacity:.8"/></g><g id="PatchCollection_3"><path d="m364.76 364.114 4.772 1.336.993-3.163-4.77-1.337zM364.036 373.233l.824 1.541.83-.396-.825-1.541z" clip-path="url(#p81121de12c)" style="fill:#90ee90;fill-opacity:.8"/></g><g id="PatchCollection_4"><path d="m339.052 352.83 1.775.485.176-.574-1.774-.485zM341.319 354.277l-.185.613 1.384.372.184-.614zM364.097 373.062l-.314-.627-.558.25-.064-.128-.12.054-.1-.198-.31.139.16.32-1.154.516.343.67.603-.283.073.145-.342.153.41.816-.27.12.092.186.266-.119.15.3-.333.15.416.83 1.296-.577-.41-.82.32-.143-.648-1.298-.53.236.627 1.254-.223.1-.62-1.24-.112.049-.088-.177zM81.68 207.867l-.31-.112.175-.43.31.112zM357.143 337.446l.37-.52-.317-.201-.37.52zM582.595 526.801l.158-.215-.343-.225-.158.215z" clip-path="url(#p81121de12c)" style="fill:#a9a9a9;fill-opacity:.8"/></g></g></g><defs><clipPath id="p81121de12c"><path d="M90 88.774h558v549.652H90z"/></clipPath></defs></svg>