<svg xmlns="http://www.w3.org/2000/svg" width="960" height="960" viewBox="0 0 720 720"><defs><style>*{stroke-linejoin:round;stroke-linecap:butt}</style></defs><g id="figure_1"><path id="patch_1" d="M0 720h720V0H0z" style="fill:#fff"/><g id="axes_1"><path id="patch_2" d="M90 548.993h558V178.207H90z" style="fill:#fff"/><g id="LineCollection_1"><path d="m151.238 210.716-1.812 2.707-2.318 4.182-1.714 3.761-1.23 3.102-.852 2.017-1.366 2.38-4.275 6.1-1.358 2.481-1.061 2.538-.22 1.704-.09 1.947.354 2.283.2 1.428.278 3.056-.056 2.468-.37 4.432-.406 4.047.008 1.868.048.536.109.539.265.684.354.763.57 1.09.37.622 1.601 3.155.611 1.081.76 1.244 1.56 2.764.363.755.514 1.208.358 1.07.1.545.101.731-.05.996-.288 1.043-.22.55-.31.518-.326.5-.297.327-.463.425-.382.32-.519.372-.913.413-1.073.346-1.255.19-2.718.288-3.245.243-.985.008-.857-.084-.683-.182-.8-.296-.66-.342-.752-.582-1.958-2.026-.688-.573-.45-.282-.635-.258-.748-.228-.77-.13" clip-path="url(#p93967410d1)" style="fill:none;stroke:#000"/><path d="m100.73 250.459 1.991.721.437.25.42.442.253.364.165.346.173.342.14.371.238.764.134.831.316 1.64.109.347.144.277.302.254.455.307.466.228.346.118.295.075 1.287.02.187.074.197.12.1.125.097.142.072.177.053.273-.085 1.402-.18 2.03.003.263.029.167.104.199.108.125.194.177.486.3 1.062.475.684.326.257.18.208.19.656.708.157.236.068.182.017.164-.023.242-.138.19-.889.881-.322.422-.278.451-.095.24-.025.22.037.338.172.47.153.274.173.168.245.071.29.042.297.069 3.92 1.314.166.083.132.091.193.247.394.862.338.748.246.395.196.28.592.661.261.33.651 1.022 1.038 1.77.37.596.253.55.237.672.028.297-.028.186-.2.504-.23.304-.44.378M387.869 438.946l-1.708.213M391.311 444.08l-.643-4.07-.002-2.37-.738-.212-1.544.668-.515.85" clip-path="url(#p93967410d1)" style="fill:none;stroke:#000"/><path d="m391.311 444.08-2.116.21-.137-2.303-.287-1.308-.411-1.676-.491-.057M593.53 216.569l1.148 3.078 4.633 4.373 2.573 3.525-.258 4.8 2.32 2.728 3.214 1.342 3.345 4.982-.772 13.123 3.024 6.926 3.281 2.552 3.153 2.88 3.088.364 1.222 1.859 3.86.972 1.609 4.945 5.404 1.823 2.766 3.803" clip-path="url(#p93967410d1)" style="fill:none;stroke:#000"/><path d="m513.6 390.058.346-1.774 2.947-7.058 2.803-5.226 1.111-2.906 1.909-2.457 3.042-2.997 1.435-1.124 4.795-3.208 3.844-.334 2.614-1.726 2.395-.488 1.733.89 3.36 1.036 3.886.617 5.928-.799 4.418.464 9.633 1.968 9.92 2.308 6.397 1.222 3.379.61 2.803-.27 8.493-2.299 8.813-.084 8.901 1.752 8.945 3.064 5.864-.082 2.861-1.733.291-1.66.031-2.07-2.786-3.992-3.133-3.42-2.77-7.056 1.74-6.794 1.93-4.253-.9-2.065-7.463-1.822-2.316-1.823v-2.916l2.445-1.701 1.03-3.16 5.082-12.793 2.316-4.01-.515-1.579 1.737-3.366 1.801-1.336-1.736-2.467.836-2.393 3.088-.73.386-4.495-.129-12.88M391.311 444.08l1.354-.136M383.334 427.186l.812 1.64.37.833.145.458.12 1.146.065.6.056 1.67 1.26 5.626M397.278 481.364l-.906-.428-1.263-1.296-.828-5.655v-4.791l-.72-4.736-2.766-7.228-1.785-3.48-1.503-4.093-.443-6.641-.903-3.857M370.585 407.788l2.178-3.364M370.585 407.788l5.95 3.931M363.036 402.455l3.418 2.635 1.914 1.405 1.208.727 1.009.566M337.623 382.823l.535-.186.567-.137 1.387-.304 4.946-1.059.74-.102.442-.016.394.023.435.125.257.168.25.243.216.288.571 1.15.193.259.33.319.169.14.37.216 1.025.68.483.421.39.452.169.194.361.406M352.316 381.19l.323 1.185.13.35.065.222.028.297-.012.22-.028.329-.054.277-.09.205-.825 1.828M358.247 396.676l-1.608-1.954-.42-.604-.674-1.07-.833-1.764-2.859-5.18M373.361 403.508l-.598.916" clip-path="url(#p93967410d1)" style="fill:none;stroke:#000"/><path d="m358.247 396.676-.96.855-.592.456-.656.573-.96.733-.383.36-.16.228-.08.25v.331l.023.429.052.402.217.832.077.425.019.185-.047.168-.049.11-.236.62-.04.128-.027.114-.008.144.004.126.054.601-.022.095-.072.167-.479.89-.048.407.012.35-.034.168-.058.131-.238.256-.239.215-.076.08-.033.114.027.174.044.186.008.325.044.313.123.258.197.304.547.564.211.235.281.404.135.122.137.05.153.012.137-.016.28-.033.507-.047.427-.099.337-.08.278-.174.14-.14.186-.244.24-.5.142-.365.172-.388.125-.178.17-.24.196-.216.302-.36.321-.43.84-1.522.326-.539.302-.36.285-.225.282-.178.828-.607.181-.137.334-.357.583-.676" clip-path="url(#p93967410d1)" style="fill:none;stroke:#000"/><path d="m358.247 396.676.366.418 1.315 1.599 2.794 3.379.314.383M376.535 411.719l.57.432.354.323.306.361.234.365.144.242.133.323.108.46.081 1.15.189 1.401.06.288.1.33 1.21 3.653.298.759.218.516.26.555 2.534 4.309M112.014 524.42l2.24 2.54 3.554 4.51.587.447.563.289 3.064 1.966 5.83 3.007 1.255.364.62-.09.984-.346 1.557-.228.475.018.373.202 4.721 3.993 1.484.718.643.053.386-.205.04-.27-.12-.343-.489-.412-1.003-.718-.236-.383-.09-.589.056-.86.355-.935.012-.387-.193-2.281.293-.456.217-.114.378-.064 1.962.132.322-.11 1.174-1.625.39-.455.668-.288 1.657-.202 1.736-.557.286.011 3.361.778 5.481-.099 1.17-.205.636-.16 1.66-.87 1.506-1.727.497-.242.533-.195.95-.632.749-1.027.486-.226 1.122-.364 3.45-.327.55-.231.222-.217.06-.413-.096-1.595.157-.637.506-.452.965-.562 2.043-1.435.6-.774.212-.797-.184-1.018-.595-1.09-.805-.428-.824-.255-.64-.042-.43.114-2.191.858-.845-.038-.506.194-1.924 2.014-.266-.002-.179-.175-.018-.446.139-.378 1.098-1.647.498-1.458.097-.903.25-.36.705-.384.605-.057 1.713.125.261-.125 3.64-3.246 1.957-1.708.587-.186.672.072 1.013.41 1.134.645.177.224.773 1.165.795 1.333 1.263.475 1.046.474.273.353.459 1.48.165.206.67.641 2.063.38.913.839.973 1.924.29 1.386.281.16.636-.07.402-.508 1.15-2.175 1.456-1.393.949-1.514.358-.388 2.271-1.898.382-.664 1.343-3.462.398-.596.708-.801 3.832-3.212.31-.657-.032-.698-1.09-4.05-.672-1.124-.128-1.014.112-.752.459-1.013.394-.588 1.017-1.075.99-.702 3.229-1.944 5.013-3.584 2.28-1.165 1.565-.77.715-.604.813-.801.18-.372.358-1.891.483-.5.278-.157.466-.094.466.026.402.145.427.31.305.669-.04.463-.611 1.58.199.31.436.084.42-.218.473-.97 1.25-2.206.89-1.56.568-.381.453-.462.707-1.214.547-.394.726.008.47.237.304.43.688 1.02.627.22.422-.163.959-1.596.472-.152.616.033.553.168 2.116 1.016 1.187 1.051 1.4 2.167 1.354.525.4.467.058.175.053 1.901 1.093 3.702.592 1.085.784.733.273.118.362.008.406-.13.254-.23.18-.574-.116-.623-.241-.539-.45-.729-.19-.79.221-.744 1.018-2.126.14-1.814-.044-2.843-.458-.942-.45-.589-.238-.653.02-.663.953-3.05-.04-.853.31-.52.603-.566 1.435-2.042.459-.414.591-.3.796-.175 2.534-1.298 2.01-1.287.454-.13 3.869-.345.575-.394.49-.566.149-.35.507-2.342.257-.512.816-.847 3.687-2.763.833-.293 2.304-.585 2.762-.09.933.064 3.16.311.415-.133 3.241-1.883 2.026-1.245 1.348-1.017.478-.805.246-.85.293-2.308.337-.532.64-.285 2.839.042.849-.228.35-.167.53-.664 1.065-1.36 2.912-2.474.62-.703.51-1.162.808-1.53.58-.72 1.39-1.123.68-.237 1.813-.444.479.034 3.989.053 2.215-.353 3.1-.3 1.392-.596.478.084.634.36 1.23.877 1.335.203 1.837.418 1.51.723 1.122.224 1.742.036 4.367-.492 4.592.843 1.813.16 1.613.425 2.32.46.341.216.15.197.872.566.908.042 1.283-.14.848-.164 1.792-.457.493.075.223.109 1.652 1.215.571.098 2.383.205 2.55-.581 3.461.308.487.17 1.222.722 1.27.163 1.28-.038 1.121-.11 1.903-.512 1.137.094.736.3.14.228.118.528.361.588.5.179.548.044 2.33-.397 2.598-1.101.711-.71.905-.927 1.046-.728 5.505-3.429.767-.588 1.4-1.412 4.065-3.06 1.387-1.447 1.32-2.023M159.684 362.051l2.078 1.352 1.28 1.355 3.498 1.401.482.338.675.71 4.082 4.18.406.771 1.801 5.387.551.942 3.434 4.875 1.765 2.145.535.801.53 1.61.437-.19 1.217.118 2.207.907 2.364 1.463 2.96 2.262 1.842.82 2.002 1.329.571.455 4.649 4.366 1.898 1.64 2.605 2.878.825 1.192.8.669 3.14 2.065 1.198.512 3.117 1.109.78.702.643 1.061.03.414-.014.234-.213 2.293.688 1.917-.045.482-.615 1.959.141.705.577.692 2.077 2.104.892.414.905.231.346.368.258.714.104.589-.113 3.773.221.752.427 1.025.02.702-.25 1.276-.39 1.2-.486.733-1.058.865-1.777 1.275-2.308 2.51-1.796 2.119-3.005 5.117-2.485 5.911-.752 2.262-.293 2.415.06 1.06.804 4.578.028.918-.8 4.711-.302 1.052-.462 2.665-.297.839M412.064 503.177l-.27-.417-2.765-4.567-3.633-3.105M397.278 481.364l.314.148 2.7 1.398 3.573 4.422 2.17 3.468-.64 4.288M513.6 390.058l-.66 3.385-.863 3.8-2.3 4.276-2.229 3.733M365.956 380.26l-.033 2.13.073.558.136.505.153.255.398.638 2.023 2.73.365.417.523.448.475.27.567.3 1.339.823.462.342.422.375 1.549 1.09.498.289.523.28.45.335 1.022.63.924.744 3.523 3.402.667.645.572.767.345.615.708 1.747.426.873.692 1.002 2.24 2.277.066 1.732-.901 1.214-.322 1.945 5.854 10.052 5.662 6.075 1.392 2.72.796 3.72.128 3.947-.707 2.217 1.03 3.129-.387 1.913 2.51 9.506 1.994 2.824 1.544 6.47 5.276 9.779 3.715 6.89.66 5.015 1.017 1.75-.502 2.427.414 2.509 3.47 5.205 2.173 2.1.847.818 5.175 1.968 5.966-.272 6.11-1.29 5.68-2.442 1.796-1.018 1.223-2.647.359-3.733-1.15-4.071-2.377-2.579-.793-2.815 1.013-3.157 1.94-2.647 2.158-6.583 3.665-7.126 3.02-4.275 4.672-3.665 3.306-1.493 6.039-1.154 5.822-1.221 4.6-.204 3.81-.882 3.667-1.833 4.96-3.257 3.45-2.85 1.006-4.82 1.653-7.329 1.582-5.09 3.594-9.705 2.875-7.262" clip-path="url(#p93967410d1)" style="fill:none;stroke:#000"/><path d="m506.55 398.094 1.127.894 1.165 1.374v1.203l-1.091 1.409-1.056.928.853 1.35M372.763 404.424l5.744 3.616.207.118.113.099.078.155.026.114.012.281-.056.193-2.352 2.719M166.317 356.108l-4.695 4.235-1.938 1.708M118.974 395.219l.7-.357 1.27-.425 4.158-1.166 9.273-2.604.937-.285.804-.311.671-.388.708-.55.523-.471.611-.562 7.592-7.87 1.166-1.29.426-.586.531-.805 5.155-7.623 3.153-4.655.462-.619.535-.695.498-.501 1.537-1.405M401.84 477.851l-1.613.72-2.949 2.793M367.274 377.16l-.466 1.179-.482.896-.37 1.025M362.155 379.213l1.375.368 2.426.68M362.155 379.213l1.054-3.216M352.316 381.19l1.62-.26 5.044-1.4.726-.306.419-.084.41-.019.378-.004.587.008.655.088M370.704 361.69l-3.635-1.7M370.704 361.69l3.402-6.5M363.21 375.997l.848-1.758 1.789-3.623 1.48-3.112 3.377-5.814M367.07 359.99l3.715-5.885.217-.24.12-.058.13-.015.212.068.197.089 2.445 1.242M385.425 340.554l.077.452.032.516-.089.368-.14.312-.985 1.39-.282.865-.439.836-1.17 1.788-.764 1.036-.615.74-.88.62-3.575 2.338-.458.311-.41.346-.194.19-.18.258-1.247 2.27M376.86 326.939l.547.364.422.25.403.293.595.596.478.57 1.19 1.48 1.392 1.937.554.752.793 1.887.129.36.144.669.065.8.04.456.177.684.245.755.374.414.294.285.317.315.173.205.125.22.108.323" clip-path="url(#p93967410d1)" style="fill:none;stroke:#000"/><path d="m441.623 336.195-3.989-2.005-1.576-.455-.708-.395-.965-.911-1.64-1.124-.836-.152-2.542.243-2.123-.456-2.188-.212-2.637-.122-2.734-.577H418.3l-1.415.456-1.448 1.033-1.77.728-2.476 1.003-1.673.395-1.383-.243-1.19-.395-2.091.364-.965-.698-.096-.486-.387-.578-1.319-.12-1.318-.031-.612-.638-.675-.577-1.641-.03-1.319.577-.514 1.063-1.062.972-2.252 1.366-.804.395-.9.182-.773.942-4.793 4.845M364.25 314.246l-.032.66.157.597.177.39 1.556 1.758 1.025.767.145.205.145.41.145.43M376.86 326.939l-.45-.29-.74-.618-3.864-3.292-.957-.735-1.206-.852-1.268-.998-.807-.691M357.081 312.35l1.395 1.033.756.57.981.623 2.385 1.375.671.425 4.299 3.087M364.355 310.787l-.25-2.206M364.355 310.787v1.886M364.355 310.787l4.789-.38M369.912 306.845l-.394 1.565-.189.805-.185 1.192" clip-path="url(#p93967410d1)" style="fill:none;stroke:#000"/><path d="m364.25 314.246 2.723-.179.41-.057.297-.057.21-.117.233-.24.229-.258.229-.273.149-.3.149-.535.265-1.823M364.355 312.673l-.105 1.573M364.355 312.673l-3.732-1.288M359.706 310.293l-.486.44-.47.418-.426.273-1.243.927M329.018 303.82l1.5.527 1.934.501 1.447.342 1.705.266.978.075 1.805.073.864.038.87.125.638.186.636.247.639.27.84.273.81.207 1.169.146 1.717.266 2.674.49 3.747 1.214.403.175.41.293 2.363 2.099.914.718M306.613 312.518l4.085 2.096 3.338 1.557.265.223.332 1.398.311.311.414.198.463-.065.615-.357.68-.474 1.202-.498.652-.103 7.825-1.472.635.003 1.592.353 2.067.999 1.15.186 2.553.182 1.021.243.375.194 1.258.786 1.922.152 2.73.737 1.21.5 4.351 1.159 2.61.394 1.395.63.543.41 4.15 3.74 3.53 2.795 1.404.634 1.254.585.603.452.745.645 1.379 1.44 1.934 2.399 1.327 1.029.49.395.66.816.559 1.158.217.809.056.835-.31 1.705-.165.526-.273.35-1.805 1.743-.149.293-1.03 1.739-.98.972-.913.585-.684.52-1.214 1.185-.591.352-.877.217-.591.193-.535.517-.313.364-.773.702-1.298 3.926M352.85 369.554l.05-.442.196-1.715.072-.398.09-.384.964-2.76.611-1.272 1.01-1.974.333-.885.35-.755 1.488-3.088" clip-path="url(#p93967410d1)" style="fill:none;stroke:#000"/><path d="m367.07 359.99-3.244-1.577-4.993-2.215-.82-.317M363.21 375.997l-2.661-.887-.084-.11-.05-.146-.018-.175.018-.156.08-.326 1.357-3.816.284-.607 4.459-8.98.474-.804M304.142 294.357l-3.485-1.238-.478-.026-3.872.072-1.693-.592-3.032-1.345-2.463-.816-1.355-.716-.939-.727-1.19-1.037-5.159-5.067-1.584-1.08-1.412-.604-1.629-.497-1.09-.634-1.716-1.132-.95-.292-3.642-1.815-3.322-2.931-.249-.51.024-.675.177-.501 1.778-2.802 3.353-3.926 1.825-1.61.45-.616.347-1.268.16-1.48-.04-.48-.184-.622-2.132-3.12-.362-1.292-.562-2.195-1.673-3.197-7.383-5.377-8.59-3.682-6.036-1.489-5.003-.428-4.097.034-6.127.617-4.822.924-1.884.548-1.342 1.18-1.486 2.244-.964 1.115-1.12.887-1.313.826-.66.854-.367 1.11-2.946 12.518-.221.615-.748 1.083-.985 1.055-2.541 2.662-.483 1.173-.269.819-.302.54-1.431 2.001-.676 1.656-.305 1.48-.105.597-.475 1.504-.217 1.207-.128 1.245-.386 6.114.129 2.08.24 1.018.515 1.2 1.544 2.415 2.385 4.051.66 1.018.446.974.006.905-.232.714-.546.972-.635.813-1.155 1.074-5.17 4.056-.813.386-2.014.384-1.625.47-2.091.426-3.225.034-.346.088-2.42.858-1.468.205-5.984-.247-.394-.167-.41-.3-.796-1.03-.169-.8-.169-.881-.333-.3-.547-.54-.197-.622.093-1.598.192-1.291-.152-.616-.773-.854-.594-.493-2.619-2.738-.321-.357-4.279-2.984-.514-.691-1.492-2.157-1.335-.927-1.536-.91-1.013-.464-4.299-1.12-.888-.027-2.003-.364-.402-.106-2.911-1.303-.728-.573-.201-.346-1.5-5.38.145-1.344.217-1.845.032-.995-.16-.6-.668-.486-1.263-.449-.768-.676-.193-.497-.086-1.175-.823-.604-1.415-1.167-.503-.618-.522-.343-1.742-.38-.245-.178-.326-.596-1.306-2.53-.724-.546-.459-.554-.301-.954-.012-.99.402-3.019.253-.912-.076-.447-.35-.464-.888-.956-.105-1.28.145-6.277-.185-.38-.965-1.378-.6-1.523-.301-1.093.489-1.603.682-1.703 4.23-5.228 2.953-1.448 1.846.362 2.158 1.152 1.164.31 1.506-.819 4.77-2.815 5.48-2.427 2.513-1.314 1.775-.603 1.32-.858 2.712-3.607v-1.193l-2.116-5.028-1.05-3.7-.951-5.135-.157-2.226-.582-.912-1.15-.362-7.837-.241-.525-.43.028-1.434.71-1.448.852-1.126M156.67 195.254l1.225 1.81.667 1.287 1.008 1.73" clip-path="url(#p93967410d1)" style="fill:none;stroke:#000"/><path d="m151.238 210.716 1.772-2.393 2.066-2.716 1.125-1.575.757-2.184.305-2.14-.059-1.743-.534-2.711M107.389 186.068l-.712.613M107.389 186.068l-.993-.73M151.238 210.716l-2.095-2.154-.342-.31-.451-.196-.719-.207-.61-.173-.877-.46-2.414-.806-.694-.242-.39-.288-.537-.714-.95-.633-.83-.322-.914-.311-.926-.23-1.39-.196-.61-.15-.5-.23-4.034-3.085-3.803-3.2-4.157-3.626-1.304-1.393-1.584-1.865-.524-.506-.44-.3-.621-.15-2.852-.042-1.084-.08-.882.08-.806.172-1.596.489-.413-.027-.56-.29-1.702-1.441-2.238-1.762M106.396 185.337l.165.228.093.508.023.608M352.85 369.554l-.277 1.393-.346 1.055-.896 2.107-.077.441v.418l.028.356.254 1.538.78 4.328M438.597 306.581l-2.444-2.004-2.638.607-1.075-1.145-1.865-.304-4.588-3.411-.965-1.701-1.267-.963-5.984-2.37-3.3-.373-1.609.607-2.876-.416-3.023-.607-1.82.66-2.381 3.037-.946 1.831-.405 1.388-2.297.435-.58 1.7-2.702 2.066-2.766-.547-.855 1.024.578.79-.772 1.276-2.361.434-2.142 1.631-1.654.021-.946.566-.522.296-.406.149-.55.08-.564-.012-.42-.02-.336.031-.346.08-.317.121-3.383 2.138-.224.254-.137.202-.089.277-.808 3.413-.043.545.051.29.133.251.205.259.977.858.246.197.236.224.09.182.196.642.19 1.056.245.371.22.209 1.255 1.189.23.35.023.174-.056.151-.128.137-.133.106-.31.057-1.729.091-.718.131-.347.173-.298.289-.256.389-.146.31-.085.486M329.018 303.82l-5.55-2.087M364.17 268.2l1.077.72.386.43.33.497.09.304.055.403-.04.216-.112.197-.226.107-.297.09-.997.25-.326.195-1.834 1.534-.354.345-.193.285-.165.384-.173.383-.285.403-.362.296-.402.21-.362.223-.467.402-.575.714-3.426 3.532-.365.451-.169.255-.692 1.154-.35.47-.365.362-1.738 1.34-.353.35-.354.459-1.134 1.765-.652 1.078-.281.282-.274.243-.31.186-1.04.702-.427.262-.37.262-.2.205-.821 1.09-.217.353-.137.346-.073.338.012.349.077.71.069.44-.02.304-.081.368-.093.266-.18.437-.145.3-2.602 2.912-1.154 1.147-.362.258-.892.584-3.08 1.554-2.932 1.082-1.319.47-.29.061-.265-.011-1.142-.197-.406.019-.341.041-1.026.452M273.191 379.23l.67-.006 2.22-.073 5.107-.117.727.023.716.094.933.198.776.182.615.201 2.622.92 1.025.315 1.162.28 1.13.156 1.532.129 1.416-.004 9.53-.232 1.009.039.35.049.494.16.475.197.45.228.402.288.684.703.808.767.732.736.603.509.47.292.64.27.519.185 2.517.653.298.119.277.174.434.292.499.445.688.892.437.763.86.922.234.194.306.145.31.11.285.026.563-.053.502-.072.531-.122.716-.205 1.09-.288 2.633-.554.564-.096.45-.052.487.026.486.095.535.258.366.22.386.429 1.17 2.035.314.326.37.248.514.083.419-.015.357-.042.322-.129.293-.246.35-.384.523-.816.286-.593.57-1.207 1.842-3.596.627-1.04.515-.6.551-.508.438-.335.7-.398" clip-path="url(#p93967410d1)" style="fill:none;stroke:#000"/><path d="m352.85 369.554-.957-.145-.092-.003-.098.032-.497.548-.187.205-.682.49-.18.103-.205.049-.145.05-.05.054-.04.125-.035 1.155.08.778.022.207-.01.202-.02.16-.096.17-.449.465-.084.231-.353.881-.137.179-.167.148-.225.11-.223.045-.205.027-.198-.001-.196-.03-.764-.27-.63-.413-.225-.108-.13-.034-.164-.004-.165.034-.108.095-.11.173-.106.224-.064.178-.016.15.039.497-.04.277-.125.221-.12.163-.184.096-.324.14-1.214.25-.551.255-1.7.793-2.047.93-1.625.803-.435.314-.735.733-.31.41-.189.463-.05.292-.002.262.054.167.113.188.113.085.283.006.326-.07.55-.175.857-.09M413.392 505.235l-1.328-2.058M424.48 512.624l-3.729-1.124-6.21-3.858-1.149-2.407M414.225 508.653l-.86-2.341.027-1.077M414.225 508.653l-2.083-.437M416.739 510.839l-1.29-1.061-1.224-1.125M416.739 510.839l.793 1.03M420.575 512.338l-1.455-.875-2.381-.624M407.148 502.315l1.72.937 1.488.374 1.708-.449M233.188 352.362l-.989-1.428-.57-.767-.773-.721-.386-.311-.411-.267-9.51-4.354-3.827-1.777-1.7-.645-1.573-.452-.623-.133-.688-.08-1.757-.17-1.436-.126-.957-.175-.643-.193-.59-.262-.628-.334-.712-.497-7.777-6.823-.756-.653-.414-.3-.555-.316-.398-.153-.366-.115-.298-.028-.494-.004-.332.025-.253.059-.332.117-.378.194-.454.327-.33.345M166.317 356.108l3.48-3.139.542-.326.407-.198.486-.223.547-.202.776-.122 1.142-.151 4.934-.296 3.522-.213.961-.004.824.114.551.118.53.163.62.254.744.433 1.388.843 1.495.752.789.038.675-.106.374-.213.241-.201.286-.289.358-.482.16-.46.009-.466-.105-.578-.354-.948-2.276-4.83-.193-.858-.04-.516.032-.51.096-.485.193-.608.302-.713.897-2.195.298-1.04.233-1.041.144-1.04.29-2.453.157-.69.205-.487.241-.395" clip-path="url(#p93967410d1)" style="fill:none;stroke:#000"/><path d="m185.825 328.524.48.226.837-.226.798-.037 2.873 1.884.798.904.667 1.07M122.54 376.675l3.99 1.168 1.717.113 1.396-.226 2.035-1.017 2.075-2.6 1.237-1.997.758.076.4.527-.24 1.96-.599 1.996-.997 4.634-.719 1.319-.757 1.168-.839.716-1.356.075-.998 1.168-1.117.038-1.556-.942-1.038-.227-.917.716-.599 1.62-1.636 1.658-1.436 1.055-4.11 2.11-.918.753-.2 1.394.24 1.055.479.528.798-.038.878-.678.518-.038-.055.46M273.191 379.23l-.637.005-1.355-.136-2.533-.29-4.391-.477-.965-.069-.643-.072-.885-.178-.551-.186-.66-.357-.988-.646-.86-.71-1.36-1.196-1.146-1.165-.869-1.064-1.544-2.148-.426-.596-.406-.467-.362-.33-.45-.3-1.078-.665-1.243-.611-.948-.444-.632-.38-1.113-.805-3.049-3.459-1.178-1.196-1.222-1.082-4.464-2.965-.8-.642-.474-.456-.438-.462-.387-.464-.667-.88-1.279-1.975M110.803 522.275l-.391 2.392M112.014 524.42l-.652-.66-.18-.263-.181-.557-.198-.665M112.014 524.42l-.655.012-.516.075-.431.16M304.142 294.357l-.626-.74-.229-.376-.076-.406-.032-.547-.073-.635-.08-.215-.113-.141-.26-.13-.375-.094-1.689-.471-.623-.216-.173-.126-.073-.16.033-.269.113-.216.452-.7.142-.128.33-.22.302-.148.213-.034.283-.036h.354l.354.073.601.164 1.962.634.616.231.703.346M323.468 301.733l-3.147-1.184-9.249-3.614-6.93-2.578M323.468 301.733l.395-1.343-.004-.185-.04-.175-.113-.137-.14-.125-.25-.103-.245-.045-.487-.148-.716-.247-6.007-2.427M268.822 373.856l.873.665.607 1.604.85 1.008 1.383.895.22.343.436.859M159.53 353.957l1.476 1.017 1.357.188.758.64.958.528 1.277.038.961-.26M593.53 216.569l-3.32-1.94-4.89-5.378-3.732.03-1.126-.728-2.992.182-2.863 1.337-1.93-.456-3.184-3.767h-1.93l-2.735-1.215-3.7.486-4.696 2.157M464.733 470.852l-1.262 2.382-5.404 6.196-1.287 5.102-.386 5.953.386 6.56v4.13l-1.801 2.186-8.107 2.673-5.147 2.794-1.801 3.887-1.999 1.237-11.126-.63-2.32-.698" clip-path="url(#p93967410d1)" style="fill:none;stroke:#000"/><path d="m421.738 512.852 3.614 1.388 3.094.675-3.966-2.291M464.733 470.852l-6.077-2.869M502.422 455.302l-4.595.317-5.758-.304-2.37.382-1.136-.32-3.86.85L482 454.89l-6.82 2.186-5.018 3.159-2.37 3.76-2.005 4.865-1.054 1.99" clip-path="url(#p93967410d1)" style="fill:none;stroke:#000"/><path d="m504.082 457.826-.398.405-1.132.173-.276-.491.429-1.618-.283-.993M502.182 383.009l2.074 3.127 1.274 1.272 1.893 1.477 3.675 1.065 2.502.108" clip-path="url(#p93967410d1)" style="fill:none;stroke:#000"/></g><g id="PatchCollection_1"><path d="m413.43 481.432.655 2.28 1.222 1.458-.321 2.126-1.866 2.915.92.134 1.222.547-.019 1.02-.817-.534-.579 1.215.56 2.72 1.692-.291.623 1.446-1.736 2.611 1.499 3.596 1.608 1.033.045 1.081 3.217.79 1.03.971 2.142 1.41 1.396-.074 1.37-1.08 2.811-.499.856.802 3.281-.79 2.362-1.652.534.741 5.983-3.097 3.217-2.551 3.52-.984 1.221-1.58 1.223-.182.772-2.551-.386-1.944-1.544-5.527.321-3.644-1.138-3.693-.539-3.87.561-3.87 2.577-7.504 2.636-5.392 1.535 5.678-1.875 4.093-1.185 6.454.922 8.966-.212 3.693.579 7.41-.431 2.564-1.435 2.114-4.227 2.684-4.117 2.187-2.96.182-3.493 2.6-3.648.801-.728 2.721-2.702.486-1.286-1.215-1.287 1.215-3.667-.546-1.075-.838-1.37.291-1.415-.668-1.48-1.64-1.416.607-2.103-1.931-.58-1.458-1.434-3.232-1.03-1.214-.836-3.645-.836-5.344.579-4.01-.758-6.224z" clip-path="url(#p93967410d1)" style="fill:#00f;fill-opacity:.8"/><path d="m363.132 396.425-.708-1.458-1.447.152-.708-.79.192-.546-.996-.67.289-1.244-.933-.425-.708-1.701 3.838 1.069 1.47 2.09-.193.82.837.577 2.058-.972 1.255-1.519 3.363-.079 1.076.626-2.605 2.703 1.544.243v.547l-.87.547.066 1.366-.065.577.886 1.137 2.155.546 3.168-.134.997.578 5.147 1.791 2.445 1.489v1.245l1.125.455.13.76-1.448 1.123-.837 1.793.708 1.73-1.319 2.522.128.728-.257.79.611 1.58-.16.698.61 2.521 1.287 2.187.708.213.58.334 1.157 2.642 1.834 1.154 3.281 1.397 1.609.82 1.287 1.67 1.304 1.015.271 1.02 1.158.942.644 1.701-.611 2.49-.515.517-.064.546.322.669-.322.971.725 1.349-.629 1.597.676.82-.547.577.643.85-.193 1.003-.257.091-.29 1.094.065 2.55 1.093.821-.096 2.946.933 3.037.675 2.156-.354.942 2.864 6.894.932.486 1.995 1.093 1.705 3.584-.58.698.29.608.836-.213 1.641 1.55-.707.758.29.486 2.122.577 2.027 3.19-.335 1.91-1.84.368-4.033-7.472-3.7-2.217-.45 1.154-.58-.091-.997-1.58-1.126-3.947-1.672-2.43-.87-2.521-.964-1.154.225-.699-1.286-1.002.193-1.215-.837-1.427-.997-3.918.547-2.582-.611-3.128-.483-.729-.032-1.822.257-.03.836-2.4-.904-3.39.157-2.167.394-1.306-.418-1.823-1.545-2.764-1.673-.577.29-1.276-1.254.183-.837.547-.547-.577.919-1.234-1.948-.285-1.126-.517-.915-.291-1.273-1.197-.192-1.214-1.301-1.416-.115-1.652-.965-1.063.372-.686-.597-.377-.9-3.037-.033-2.764.29-1.701-.322-.82.95-1.081.144-1.318.579-1.094 1.029-.699.032-.941-.997-.82-.836-.213-.225-.638-1.094-.03h-.966l-1.833-1.245.032-.699-2.83-.395-2.606.304.16-.942-1.447-.151-3.152-.82-1.448-.73 1.222-.424.436-1.203-.693-.134-.74.88-.547-.273-.386-1.275h.966l.128-.85.5-.596.369.778.868-1.64.29-.73-.386-.607.275-.99-.63.534-1.8 2.279-.419-.213-1.43.225.386.455v.577z" clip-path="url(#p93967410d1)" style="fill:#00f;fill-opacity:.8"/><path d="m361.951 390.812-3.838-1.07-.804-.212-.064-1.215-.418-1.944-.58-.88-.303-.96-.436-.256.225-.82-.772-1.154-.579-3.25v-1.306l-.9-1.64.096-1.458.5-.899-.146-.62.66-.929 1.012-3.96 1.144-2.995-.21-1.501.996-1.974.887-1.568.593-2.229 1.416-.03.114-1.72.626-.437-.29-2.308 1.144-1.537 2.362-1.44.9-1.367 2.317-1.093.5-1.021 2.027-.85-.725-1.045 1.318.06.854-.321.465.93 1.448.637 1.77-.729.192-.577 1.305-.048.947-.803 2.799-.212.643-.606-1.03-1.944-.353-1.367-1.448-2.156-.16-1.337-2.445-1.337-2.091-2.217-4.44-3.706-2.058-1.093-3.056-2.977-.997-1.458-.773-.516-.418-.547-4.783-3.957-1.64-1.818-5.671-3.532-3.327-1.434-2.24-.61-4.053.388-4.408 2.097-3.3.459-7.215-1.29-15.775-5.125 4.114-2.216 7.687 3.062 7.935 1.949 4.35-.073 6.5-1.33 3.855-1.047 2.946.157 3.696 1.243 2.855 1.934 3.943 2.616 3.215 1.558 3.533 2.172 2.717 3.097 1.178 1.275 3.056 2.126.643 1.154 3.25 2.217 1.061 2.31 1.609.12 3.538 3.099-.707 1.974.932 2.4 1.416 1.093 1.447 1.914 1.015 1.074-.708 1.397-1.175.293-1.158.758-1.512 2.156-1.61.73-1.06 1.063-1.705.668-2.413 1.063-1.222 1.032-2.188.396-1.544 1.154-1.415 2.035-.676.182-1.093.911-1.416.82-1.222 2.248-.869.577.225.668-1.094 1.793-.224 1.366-.805 2.43-.611.547-.386 2.156-.611 3.16-.869.819-.032 1.154-.547 2.34.547.789-.965 1.67.868.973.258 2.49 1.286 1.731-.707 1.246 1.383 1.306v1.032l.675.668.065.638zM603.446 369.876l8.007-.49 8.353.817 7.135 2.242 2.04.17 5.454-.246 12.855-2.574 5.756-.818 5.93-4.29 10.343-8.664 3.29-2.411 4.241-1.185 6.362.572 7.704 2.002 9.262 9.113 3.593 4.21.908 6.374 2.684 13.445 3.765 12.668.303 2.493 2.683 3.555 4.501 4.168 2.208 5.72 5.8 9.604 4.068 4.659 3.462 2.002 2.77 2.942 2.77 1.348.346 3.8-5.583-.898-2.51-3.76-1.818.246-3.16-2.534-3.202-3.31-3.333-6.17-2.64-5.68-2.294-3.392-3.03-1.839-2.077-2.738-.952-2.37-3.116-2.125-1.645-2.86.433-9.399-4.79-9.947-1.28-9.013-4.687-11.425-7.036-5.333-6.467-1.28-6.645 1.257-10.034 5.188-9.534 7.449-11.385 3.488-17.873 1.982-12.101-3.2-7.96 1.284z" clip-path="url(#p93967410d1)" style="fill:#00f;fill-opacity:.8"/></g><g id="PatchCollection_2"><path d="m362.936 385.762 3.386-1.808 2.931 4.894-3.387 1.808zM408.701 494.702l-1.359 1.118.833.902 1.36-1.117z" clip-path="url(#p93967410d1)" style="fill:#90ee90;fill-opacity:.8"/></g><path id="PatchCollection_3" d="m382.465 336.773 4.41.035-.44 8.296-4.264 5.172-2.206 1.943 1.25 2.395-3.308 1.215-3.198 3.332-1.465 10.51-.705 3.1-1.44 3.603-1.941 5.487-1.691 1.909-4.375 1.388-1.654.278-1.397-4.304-1.617-2.638 1.47-8.642 3.53-9.962 1.176-3.193 2.058-.73 2.794-3.158 4.264.208 1.323-1.943-.147-1.25 1.838.035 3.603-1.805 3.235-3.436 1.544-3.332-3.456-4.166z" clip-path="url(#p93967410d1)" style="fill:#d3d3d3;fill-opacity:.8"/><g id="PatchCollection_4"><path d="m118.51 378.608-.428-.971 3.196-1.257.464 1.055-.824.323.25.566-1.04.408-.285-.647zM376.75 351.102l.366-.212.241.372-.365.212zM92.425 482.746l.267-.282-.554-.465-.265.282zM373.033 664.776l.535-.095-.112-.561-.535.095zM372.78 356.35l.425.243.423-.664-.427-.241zM393.714 463.13l-.483.138-.18-.566.482-.137zM111.31 136.37l.441.003.003-.385-.442-.002zM366.544 359.462l.527.202.314-.732-.527-.202zM374.383 413.773l.27.321.5-.376-.27-.32zM385 628.886l.444-.142.143.4-.443.142zM516.438 419.21l.703.112.234-1.311-.703-.112z" clip-path="url(#p93967410d1)" style="fill:#a9a9a9;fill-opacity:.8"/></g></g></g><defs><clipPath id="p93967410d1"><path d="M90 178.207h558v370.786H90z"/></clipPath></defs></svg>