<svg xmlns="http://www.w3.org/2000/svg" width="960" height="960" viewBox="0 0 720 720"><defs><style>*{stroke-linejoin:round;stroke-linecap:butt}</style></defs><g id="figure_1"><path id="patch_1" d="M0 720h720V0H0z" style="fill:#fff"/><g id="axes_1"><path id="patch_2" d="M90 618.29h558V108.91H90z" style="fill:#fff"/><g id="LineCollection_1"><path d="m412.317 232.938.683-.866M413.65 296.719l-1.032-2.227-4.831-10.383-6.469-13.997-1.185-2.884-.356-1.532-.303-1.352-.144-1.002-.098-1.753.033-1.967.196-1.66.34-1.603.373-1.32.694-1.848 1.046-2.186 2.317-3.97 2.884-5.035 1.556-2.768 2.079-3.576 1.567-2.718M412.317 232.938l.146-.87M318.31 382.647l-.65.33M318.31 382.647l-.772-.878M319.45 384.573l-.611-1.215-.53-.71M348.956 381.475l-6.72 1.654M348.956 381.475l.935 3.227M341.094 379.154l6.424-1.599.177.022.104.037.08.095 1.077 3.766M350.443 382.178l-.035-.017-1.452-.686M364.033 393.51l-3.567-2.974M364.033 393.51l5.043 2.8M364.033 393.51l2.606-2.324M364.033 393.51l-.249.157M338.263 397.883l.133.23.17.096 2.165.646.423.129M343.585 398.492l-1.236.297-1.195.195" clip-path="url(#p6ed69d7932)" style="fill:none;stroke:#000"/><path d="m342.707 401.462-.374-.815-.287-.588-.326-.492-.566-.583M334.82 384.913l7.416-1.784M334.82 384.913l-4.59 1.046M334.82 384.913l-1.064-3.853M334.82 384.913l.824 3.163M330.915 370.288l.33 1.25M328.706 372.196l2.538-.659M331.244 371.537l.87 3.295M339.32 373.07l-.894-3.06-.081-.07-.095-.028-.087-.003-6.919 1.628M342.236 383.13l.799 3.224M342.236 383.13l-1.142-3.976M346.2 397.825l1.014 3.79M346.2 397.825l-.969-3.728M346.2 397.825l-2.615.667M346.2 397.825l6.918-1.671M343.402 394.543l1.83-.446M345.231 394.097l-1.284-4.633M345.231 394.097l6.852-1.665M360.466 390.536l-8.383 1.896M360.466 390.536l-5.134-4.208M353.118 396.154l-1.035-3.722M353.118 396.154l5.595-1.399M353.118 396.154l1.13 3.673M352.083 392.432l-1.314-4.703M341.094 379.154l-1.173-3.934M341.094 379.154l-7.338 1.906M333.756 381.06l-1.002-3.997M333.756 381.06l-4.515 1.117M319.45 384.573l3.962-.955M324.691 387.418l-2.999.763-.437-.018-.295-.084-.269-.246-1.241-3.26M337.526 395.783l.737 2.1M336.444 391.35l.665 2.741.417 1.692M332 392.487l1.064 3.645.104.264.13.132.16.066.341-.025 3.727-.786M330.23 385.96l-5.539 1.458M330.23 385.96l-.989-3.783M330.23 385.96l.884 3.211M329.241 382.177l-1.019-3.956M329.241 382.177l-5.829 1.44M327.632 375.867l.59 2.354M327.632 375.867l-5.736 1.473M327.632 375.867l4.482-1.035M339.32 373.07l.601 2.15M339.32 373.07l-7.206 1.762M332.114 374.832l.64 2.231M321.896 377.34l-3.868.994-.926.029-.537-.165-.561-.393-2.823-3.377M321.896 377.34l1.516 6.278M323.412 383.618l1.28 3.8M328.215 389.844l2.899-.673M331.114 389.171l.886 3.316M331.114 389.171l4.53-1.095M335.644 388.076l.8 3.274M335.644 388.076l7.391-1.722M343.035 386.354l.912 3.11M343.035 386.354l6.856-1.652M349.891 384.702l.878 3.027M349.891 384.702l2.826-.69M353.319 383.764l-.602.247M353.319 383.764l.09-.02M332 392.487l4.444-1.137M336.444 391.35l7.503-1.886M343.947 389.464l6.822-1.735M350.77 387.73l4.562-1.402M352.717 384.011l.304.278 2.311 2.04M390.079 409.523l-8.036-4.986M390.079 409.523l-7.617-11.933M390.079 409.523l14.625 9.349M421.41 429.579l-2.437-1.585M438.935 446.806l-9.726-10.194-4.649-4.598-1.196-1.109-1.953-1.326" clip-path="url(#p6ed69d7932)" style="fill:none;stroke:#000"/><path d="m425.343 421.362 1.097 4.478-.024.265-.045.161-.115.125-2.125 1.402-2.72 1.786M430.037 414.293l.545 4.625.017.695-.054.47-.117.546-.92 2.679-.061.514-.023.457.05.563.598 1.586 1.606 3.949.207.49.19.712.286 1.14.202.46.282.424 2.113 2.452.43.606.977 2.055.246.532 2.324 7.558M445.9 452.641l-2.187-1.36-1.35-1.062-1.357-1.226-2.071-2.187M410.396 230.88l2.112-.071M396.126 230.86l8.222.005 6.048.016M410.396 230.88l.659.198.4.123.4.167.468.39.14.31M412.508 230.809l-.004.154.01.187-.008.19v.183l-.013.284-.03.261M412.508 230.809l.455-.015M413 232.072l.704-.628.488-.317.567-.288.55-.19M413 232.072l.007-.508-.01-.225-.01-.24-.016-.167-.008-.138M415.31 230.649l-2.347.145M415.31 230.649l.372-.066M626.16 273.315l.447-.38.085-.3-.035-.276-.057-.29-.583-1.153-1.772-2.614-.668-1.005-.283-.779-.369-1.578-1.18-6.212-1.021-5.102-.553-2.203-.283-.61-2.87-4.94-4.149-6.373-7.095-11.197-4.526-7.518-3.443-5.195M623.174 193.317l-21.782 19.196-3.587 3.077M483.113 239.258l10.192 3.6 2.12.633 1.871.407 1.276.15 1.82-.007 1.857-.25 1.767-.476 1.602-.739 1.244-.82 1.164-.908 1.06-1.103.66-.795.917-1.421 1.066-1.948 2.185-4.058 1.391-2.677 1.006-1.838 1.178-1.813 1.227-1.444 1.22-1.296 1.394-1.275 1.658-1.213 3.121-1.676 2.13-.992 6.1-2.716 16.028-7.29 3.642-1.62 4.037-1.279 4.386-.267 4.277.62 4.345 1.737 3.609 2.338 10.431 7.156 2.04 1.06 2.216.599 2.21.144 2.078-.249 2.434-.892 1.733-1.05M521.485 482.944l13.806 6.198 7.225 3.366 6.098 2.892 1.903 1.174.95.69M637.27 505.973l-15.932-4.038-13.912-3.79-8.946-4.771-2.59-.349-2.076.635-2.312 1.557-1.862 1.065-3.317 1.29-8.133-.266-18.535-1.802-8.187 1.76M542.036 152.827l8.361-1.937M542.036 152.827l-.343-.144-.234-.166-.234-.23-.2-.29M542.036 152.827l-1.44.92M564.756 147.54l-11.696 2.73M543.511 126.389l-.074 1.858M549.06 127.175l-2.93-.529-2.619-.257M543.437 128.247l5.236.943M542.393 135.233l.025-.233 1.02-6.753M495.385 222.198l.838-1.152 2.179-2.975 3.075-3.838.746-.94.36-.601.307-.576.327-1.297.203-.782.203-.426 1.256-2.004 1.466-2.392 1.773-2.342.791-1.172.988-1.728.903-1.56.811-1.49.537-.72 2.342-2.568 1.42-1.535 1.616-2.047 1.753-2.349 1.884-2.806 3.35-5.053 3.421-5.293 1.597-2.148 1.348-2.191.444-.89.465-1.12.465-1.472.379-1.16.439-.857 1.21-1.948 1.302-1.622 2.894-3.184.547-.68M539.618 156.074l-.164.339-.43.868" clip-path="url(#p6ed69d7932)" style="fill:none;stroke:#000"/><path d="m539.024 157.28.345-.166.314-.07.455-.006M554.049 154.412l-8.703 1.886-.682.089-3.674.742-.318.011-.247-.02-.287-.082M540.138 157.038l-.228-.211-.18-.256-.08-.256-.032-.241M540.595 153.748l-.34 1.006-.637 1.32M541.025 151.997l-.02.145-.22.908-.19.698M541.452 146.862l-.173 2.806-.254 2.329M541.452 146.862l7.678-1.695M541.817 142.504l-.015.397-.302 3.184-.048.777M555.896 143.662l-5.927 1.32M557.27 133.669l-1.638 7.402-.062.792.326 1.799M583.309 122.641l-1.197 1.616-3.712 4.7-1.228 1.615-.92 1.175-2.976 3.818-.86 1.175-1.166 1.615-.214.294-1.197 1.469-.627.695-4.111.748-.813.25-2.163.485-2.378.484-3.85.882M541.817 142.504l.078-2.084M541.817 142.504l7.444-1.217M549.26 141.287l.71 3.695M549.26 141.287l-.381-1.989M541.895 140.42l6.984-1.122M541.998 138.897l-.021.198-.082 1.325M548.879 139.298l-.289-1.504M541.998 138.897l.395-3.664M541.998 138.897l6.592-1.103M548.59 137.794l-.68-3.549M542.393 135.233l5.516-.988M557.27 133.669l2.414-7.706M551.728 133.745l.2-.024 5.342-.052M548.673 129.19l-.166.972M548.673 129.19l.386-2.015M548.507 130.162l-.616 3.629.018.454M551.728 133.745l-3.5.423-.319.077M549.97 144.982l-.84.185M549.97 144.982l.647 3.109M551.164 150.713l-.767.177M551.164 150.713l-.547-2.622M551.164 150.713l1.896-.443M554.049 154.412l-.46-.18-.545-.3-.617-.456-.488-.602-.395-.723-.38-1.438M575.995 153.561l-1.378-.608-2.025-.646-2.117-.529-1.718-.22-1.78-.03-1.55.147-1.671.352-3.943 1.136-5.764 1.249M549.13 145.167l1.267 5.723M559.684 125.963l1.35-3.468M552.612 127.588l.69-4.535 6.382 2.91M552.612 127.588l-.395 2.75M552.612 127.588l-3.553-.413M551.728 133.745l.49-3.407M623.104 192.604l.07.713M579.338 155.559l7.29 4.516 6.9 4.402.758.59 1.058.962 1.885 2.109 3.225 3.677 3.562 4.166 4.7 5.932 3.82 4.756.48.537.775.716 4.755 3.835.716.409.582.152 3.26.286M623.104 192.604l1.072-.17M624.176 192.434l-1.002.883M495.385 222.198l-.68.933-1.524 2.149-2.06 2.974-1.329 1.61-2.263 2.842-.936 1.597-.982 1.798-1.184 1.722-.687.787-.283.29-.344.358M478.093 246.893l.883-1.273 1.503-2.16 1.303-2.05.7-1.07.631-1.082" clip-path="url(#p6ed69d7932)" style="fill:none;stroke:#000"/><path d="m415.834 230.57.552-.043 2.172-.344 3.441-.808 1.577-.45 5.483-1.447 5.064-1.36 2.702-.67 1.014-.187 1.36-.063h.766l1.76.106 1.4.214 1.668.47 3.94 1.289 8.288 2.887 8.466 2.95 7.602 2.705 10.024 3.44M553.06 150.27l-.493-2.218-.093-.217-.187-.102-1.67.358M350.135 413.02l-.84-3.812M350.135 413.02l-1.665.544M382.043 404.537l-14.821 3.94-17.087 4.542M355.228 403.483l5.271-1.196M355.228 403.483l-7.024 1.607M355.228 403.483l-.98-3.656M355.228 403.483l.986 3.955M369.076 396.31l1.642.88M369.076 396.31l-4.44 1.109M369.6 395.649l-.09.204-.135.169-.299.288M354.249 399.827l-7.035 1.788M354.249 399.827l5.391-1.284M347.214 401.615l.99 3.475M347.214 401.615l-4.525.91M342.388 402.544l.3-.019M342.388 402.544l.32-1.082M307.403 433.016l2.186-2.004 6.888-5.942 1.219-.925 1.143-.536 2.969-.999 2.845-1.27 1.664-1.042 1.343-1.1.936-1.014.667-.984.767-1.754 2.064-5.594.452-.91.567-.587.622-.375.71-.25 3.447-.902 2.12-.782.799-.553.449-.462.62-.985.508-1.502M358.713 394.755l.927 3.788M363.784 393.667l-3.171.68-1.9.408M359.64 398.543l4.996-1.124M359.64 398.543l.86 3.744M361.472 406.097l-.973-3.81M361.472 406.097l4.94-1.219M361.472 406.097l-5.258 1.34M364.636 397.419l.8 3.695M364.636 397.419l-.852-3.752M366.412 404.878l-.977-3.764M366.412 404.878l5.432-1.384M360.5 402.287l4.935-1.173M365.435 401.114l5.535-1.332M373.601 399.16l-2.131-1.488M373.601 399.16l3.24 2.03M373.601 399.16l-2.631.622M386.347 395.335l-1.458-2.318M386.347 395.335l-3.885 2.255M391.9 388.923l1.22 1.948.007.302-.065.158-.115.19-6.6 3.814M376.842 401.19l1.11.76M376.842 401.19l2.85-1.813M371.47 397.672l-.752-.483M371.47 397.672l2.244-1.558M383.324 390.479l1.565 2.538M383.324 390.479l-2.713-4.397M383.324 390.479l-3.934 2.36M390.248 386.394l-.12.07-6.804 4.015M390.248 386.394l1.653 2.53M380.274 385.547l.28-.157 6.605-3.708 3.009 4.59.08.122M384.889 393.017l7.012-4.094M376.324 387.826l.78 1.237M380.611 386.082l-3.082 1.667-.464.032-.15.011-.591.034M373.122 388.943l1.059-.38 2.143-.737M379.39 392.84l-2.826 1.679M379.39 392.84l3.072 4.75M379.39 392.84l-2.286-3.777M382.462 397.59l-2.77 1.787M379.692 399.377l-3.128-4.858M382.043 404.537l.534-.25.12-.183.012-.205-.033-.125-.272-.44-2.712-3.957M376.564 394.519l-2.85 1.595M376.564 394.519l-2.395-3.892M373.714 396.114l-4.254-6.863M369.46 389.251l3.662-.308M366.639 391.186l2.243-2.16.578.225M366.639 391.186l2.96 4.463M370.718 397.19l-1.119-1.541M105.05 334.771l7.516 3.02 10.34 2.173 10.983-3.67 4.695.352 5.983-.734 2.485 1.967 3.774.03 1.38 1.556.338 2.1.706 1.571 4.924 2.305 2.04 2.878 2.67.91 3.053 2.026 1.932 3.245 5.661 4.58M196.664 353.475l-1.626.261-3.467.94-6.596 3.142-11.445 1.263M416.852 305.07l1.26 3.342 1.604 3.544 4.79 8.984 8.29 15.675 2.582 5.016.37.809.165.5.153.743.111 1.01-.13 1.43-.612 2.23-.647 1.976-.946 1.756-1.394 1.635-2.041 1.374-8.888 5.223-3.512 1.88-.22.122-.216.11M417.57 362.43l-.458.112-.799.37-.577.297-.637.379-.186.11-1.487.893-4.573 2.626-5.755 3.373-7.277 4.246-5.414 3.198-4.223 2.521-4.862 2.822M417.57 362.43l-.188.16M339.921 375.22l-7.167 1.843M332.754 377.063l-4.532 1.158M380.274 385.547l.337.535M379.774 384.79l.058.087.442.67M382.043 404.537l-4.091-2.586M354.092 421.656l-3.003-.558-.25-.121-.144-.169-.775-1.64-.767-1.942-.138-.455-.116-.59-.429-2.617M342.689 402.525l1.425 1.889 2.082 2.564 1.304 1.64.172.33.13.5.668 4.116M343.108 396.327l-4.845 1.556M373.122 388.943l1.047 1.684M356.214 407.438l-6.918 1.77M348.204 405.09l1.092 4.118M377.952 401.95l-6.108 1.544M343.585 398.492l-.878 2.97M196.664 353.475l8.591.467 2.263.301 2.217.404 1.089.096 1.664-.015 4.02-.184 4.433-.272M247.995 354.207l-1.42-.8-.774-.228-1.12-.184-2.308-.059-2.877-.168-.95.036-.791.11-.713.243-1.53.668-1.163.44-1.081.11-1.32-.073-1.772-.235-1.986-.404-1.043-.147-.706.015-.92.117-1.826.353-2.754.271M228.144 323.96l-.146 3.289-.345 3.083-.223 3.348.05 2.812.12 1.34.19 1.64.032.533-.062.672-.145.565-1.097 3.314-.334.881-.445.591-.48.393-1.963 1.292-1.116.852-.56.624-.353.554-.146.521-.057.947-.123 3.061M248.279 354.405l1.634 1.306.629.375.966.36 1.856.381 2.263.367M278.285 367.025l-6.29.212-1.748-.08-1.067-.243-.958-.477-.698-.558-.714-.676-.394-.55-.27-.587-.222-.84-.266-.553-.324-.446-.503-.422-.927-.478-.96-.403-1.111-.646-1.435-.991-2.085-1.261-1.319-.516-1.367-.316M268.034 324.716l.119.448.119.811.065.635-.01.474-.136.598-2.386 6.02-1.403 3.193-1.642 3.84-1.68 3.979-2.017 4.633-1.622 3.721-1.814 4.126M247.995 354.207l.284.197" clip-path="url(#p6ed69d7932)" style="fill:none;stroke:#000"/><path d="m252.206 322.58-.391.874-.468.968-.33.58-1.012 1.373-.683 1.028-.399.91-.775 2.342-1.304 3.576-1.311 3.612-.982 2.657-.269.807-.084.676.115 1.182.207.749.3.55 2.1 2.776 2.149 2.767.169.323.084.301-.03.39-.591 1.82-.706 1.366M285.066 370.82l-4.113-2.592-1.233-.719-.706-.316-.729-.168" clip-path="url(#p6ed69d7932)" style="fill:none;stroke:#000"/><path d="m236.554 438.382 2.781-.392 2.408-.544 1.282-.36 1.02-.352.552-.293 2.025-1.278 2.309-1.622.89-.873.636-.955 1.258-2.415 2.723-5 1.335-3.736 1.189-3.402 1.143-4.261 1.556-5.418.453-1.373.499-1.255 1.411-3.12 1.94-4.683.147-.86-.054-.645-.322-1.395.015-.536.18-.347.188-.233 1.365-.69.526-.253 1.745-1.046.434-.428.203-.431.174-.797.263-.976.284-.617.368-.664.514-.881.103-.408.035-.45-.154-.97-.39-2.246.076-.668.33-.632.613-.72.715-.772.463-.659.832-1.512 1.112-2.136.76-1.425 2.063-4.044 1.12-1.784.613-.8M548.22 120.72l-.061 2.276.14.928.564 1.048.39 1.034-.194 1.17M337.982 187.96l1.727.771 2.149.883 1.927.815 2.833 1.227 3.14 1.465 1.315.56.605.073.504.028.383-.044.51-.088.216.004.298.047.461.222 3.968 1.932.18.072.177.01.124-.057.157-.197.223-.52.98-1.76M416.799 158.04l-2.087-1.142-.78-.408-.784-.325-3.468-.726-2.047-.282-1.067.006-2.06.3-3.037.414-2.217.494-1.957.608M393.93 157.73l1.593-.294 1.772-.457" clip-path="url(#p6ed69d7932)" style="fill:none;stroke:#000"/><path d="m408.005 118.706-.163 1.215-.7 2.593-.36 1.578-.32 2.136-.328 2.743-.21 1.823-.097 1.434.02 2.33.143 1.716.157 3.144-.006 1.697-.223 1.002-.595 1.34-.824 1.328-.557.714-.818.79-.398.494-1.021 1.917-.936 1.81-1.05 1.668-.893 1.216-.504 1.036-1.027 2.55M366.587 169.636l-2.004 1.059-1.809 1.158-.533.238-.438.072-1.204.003-2.355.226-1.793.345-1.695.513-.987.482-1.283.808-1.217 1.102-1.132 1.635-1.17 1.766-1.708 4.985-2.93.081-1.715.163-.779.17-.72.369-1.484.745-.472.244-.222.25-.15.352-.439 1.02-.366.539M335.352 190.071l1.413-1.133 1.217-.977M416.799 158.04l.097.054.825.463 1.073.376 3.29 1.002 2.86.933 1.452.69 2.564 1.283.871.476.739.514 2.212 1.991 1.282 1.234 1.223 1.378.942 1.578 1.505 2.004M372.24 219.28l-1.52-1.835-6.261-7.139-2.892-3.564-1.9-2.171-2.248-2.507-.824-.908-.674-.733-1.55-1.346-1.361-.964-1.623-.927-1.897-.984-8.237-3.626-5.901-2.505M311.422 184.355l5.075.042 3.238.088 1.505.15 1.8.395 2.047.695 2.355.977 3.2 1.366 4.71 2.003M370.492 167.334l-.498.166-.883.358-.746.55-1.328.99-.45.238" clip-path="url(#p6ed69d7932)" style="fill:none;stroke:#000"/><path d="m314.51 135.595.724-1.52 1.537-2.837.596-1.09.32-.463.425-.288 2.205-.92 2.414-.915 1.145-.175.714.006 1.635.22 3.906.394 1.603.37 1.073.369.824.388 1.524 1.078 1.845 1.29 1.086.814.635.745.615.927.798 1.015 1.963 1.941 1.151 1.359 1.008 1.246.517.796.975 2.06.877 1.986.628 1.014 1.328 1.66.53.595.72 1.108.948 2.08.811 1.866.609.984.91 1.252 1.451 1.409 1.577 1.485 1.701 1.415 1.531 1.647 1.106 1.233 2.198 2.95 2.172 2.58 1.742 1.967M302.418 183.437l-1.27-.354-3.746-1.521-3.491-1.526M280.553 174.062l1.367.635 6.294 2.85 5.697 2.489M314.103 136.45l-.152.318-2.774 8.155-.562 2.067-.17.476-.34.589-1.937 3.375-1.472 2.21-.275.552-.15.526.091.57.255.864.377 1.55-.036.35-.086.208-.196.222-.156.12-.459.125-.634.012-1.132-.207-.694-.05-.438.131-.772.445-.628.64-.654 1.12-1.427 3.557-.614 1.792-.118 1.02-.053 1.998-.071 1.215-.203.67-.51 1.052-1.82 3.32-2.382 4.594M268.318 181.548l-.3.095M280.553 174.062l-1.695 2.338-.556.463-.392.2-1.002.326-1.073.382-1.223.614-1.832 1.165-1.263.727-3.2 1.271M264.414 213.877l-.123-.286-.143-.79-.096-.718.028-.503.136-.947.396-1.39.313-1.11.116-.934v-.711l-.082-.692-.047-1.332.177-1.593.198-1.88.116-.594.368-1.313.144-.823.361-1.11.204-.365.178-.515.19-1.182.198-1.28.205-1.358.143-1.404.13-2.193.273-2.26.368-1.892.266-1.117.02-.633v-.542l-.133-.862M256.833 189.151l-.206.119-1.492.77-2.093.683-1.093.4-1.623.771-.746.476-.994.783-1.7 1.371-1.27.895-1.086.358-.615.075-.32-.025M235.005 192.983l3.192.796 1.086.338 1.661.62 2.133.908.517.182M228.791 228.587l.321-2.533.45-1.378 1.302-2.252.574-.712.19-.13.376-.059 2.367.098 1.387.055.563-.049.484-.101.54-.352.886-.823.682-.669.723-.787.174-.293.306-.807.365-1.168.348-1.169.082-.692-.03-.51-.22-1.05-.108-.718.116-1.088.389-1.524.419-1.413.212-.712.433-.744.28-.38.132-.28.174-.616.157-.666.348-.816.163-.663.287-1.518.12-1.698-.021-1.247-.17-.574-.26-.594-.347-.705-.062-.19-.027-.222.078-.228.62-.783" clip-path="url(#p6ed69d7932)" style="fill:none;stroke:#000"/><path d="m230.994 148.389 4.547 1.197 2.898.688 1.508.13 1.783-.045 1.465-.156 1.767-.395 1.916-.683 2.919-1.352 1.74-.627 1.413-.32 1.498-.162 1.649.02 1.413.174 1.78.507 1.857.871.956.601.876.67 1.518 1.316.779 1.015.811 1.415.83 1.71.956 2.843 2.192 6.112.811 2.236.66 1.378.661 1.027.675.833 1.138 1.171.96.765 1.2.776 1.216.638 2.652 1.081.515.24M225.768 190.989l-1.448.153-4.07.54-4.422.512-2.051.227-2.9.235-2.945.316-2.63.426-1.166.088-.975.052-.506.095-.391.11-.406.213-.346.301-.253.345-.307.39-.292.403-.544.426-.53.484-1.848 1.029-1.898 1.1-.863.552-1.066.565-1.082.547-.272.158-.215.176-.226.231-.265.371-.238.242-.437.357-.249.168-.238.158-.291.162-.284.169-.265.14-.264.131-.45.184-.425.062-.448.022-.173.03-.31.095-.27.103-.678.349-.238.124-.153.081-.184.07-.13.033-.258.066-.142.03-.21.022-.2.007-.341.033-.457.124-.809.335-2.347.961-2.079.896-1.173.661-.79.404-.706.293-.683.228-.606.066-.467.044-1.06-.036-.85-.081-1.228-.338-2.178-.433-.422-.136-.537-.066-1.001-.165-.855-.176-.814-.206-.406-.125-.468-.073-.537.022-1.189-.477-1.534-.896-1.135-1.329-.407-.411-.352-.287-.322-.227-.384-.074M132.176 162.761l.188.312 1.08 1.572.591.859.414.778.323.676.023.558.07.536.076.448.168.374.315.602.545.595.958 1.035.951.713.591.337.606.55 1.212 1.124 1.012.903.775.75.66.712.53.741.551.786 1.051 1.19.545.711.521.845.745 1.087.62 1.087.315.572.445.903.568.823.575.587.706.66.72.625 1.243 1.028.836.734.453.47.353.668.498.999 1.097 2.21.782 1.483.537 1.512.537 1.792.997 2.045.722 1.48.498 1.137M165.154 231.9l.008-.796.027-.33v-.37l-.004-.214-.268-.888-.376-1.263-.2-.779-.1-.403.008-.815.1-1.145.038-.492.039-.823.007-1.116-.061-.837-.23-1.167-.307-.647-.276-.52-.184-.397-.453-.61-.276-.3-.138-.368-.092-.514-.038-.374-.138-1.263-.184-1.55-.215-1.644-.453-2.151-.376-1.22-.207-.836-.33-1.843-.084-.565-.192-.683-.522-1.395-.498-1.212M302.417 206.344l-.444.818-.687 1.096-.95 1.359-1.288 1.722-.157.35-.099.308-.038.4.117 1.516.052.5-.045.633-.236.909-.85 2.098-.51 1.54-1.087 4.747-1.06 2.987-.098.827.013.5.223 1.247.196.99-.046.632-.143.633-.289 1.039-.536 2.7-.399 1.352-.563 1.109-1.518 1.627-1.242 1.14-.799.934-1.1 1.39-.993 1.058-1.093.833-.707.545-.51.714-.896.883-1.164.958-.348.444-.091.263-.092.338M292.627 282.357l-.466-.56-2.669-2.65-1.718-1.719-.706-.91-1.089-1.997-1.389-2.136-.414-.793-.2-.485-.068-.69.115-1.145.414-3.062.518-2.36.105-1.015-.183-2.242-.21-1.29-.706-2.555-.537-2.83-.497-3.808.013-.627" clip-path="url(#p6ed69d7932)" style="fill:none;stroke:#000"/><path d="m275.24 244.676 1.642.573 1.969.477.274.07.369.308 2.312 2.632.437.382.161.11.536.255M311.422 184.355l-1.52-.014-3.291-.137-2.774-.37-1.419-.397" clip-path="url(#p6ed69d7932)" style="fill:none;stroke:#000"/><path d="m302.417 206.344.21-.61.89-1.553.51-.958.288-.82.307-.683.602-1.052.844-1.234.667-1.108.301-.783.412-1.823.197-1.359.255-1.02.065-1.022.04-1.484.006-.758-.105-.519-.255-.589-.922-1.14-1.047-.952-1.413-1.064-.825-.796-.595-.807-.43-.773M299.225 290.989l.154.294.015.256-.061.44-.376 1.719-.169.727-.582 1.512-.69 1.887-.929 2.18-.774 1.454-.94 1.56-.522 1.263-.265.862-.099.404-.054.352" clip-path="url(#p6ed69d7932)" style="fill:none;stroke:#000"/><path d="m250.553 281.768.36.202 1.247.422 1.864.528.568.375.283.433.192.58v.976l.015 1.263.054.325.142.23.326.275.567.315.568.206.806.213.613.088 1.657-.015 1.964-.103.713-.168.66-.25 1.503-.462 1.32-.294 1.096.066.737.11.728.271.675.309.553.69.713 1.46.157.207.203.176 3.299 1.615 4.717 2.048 4.357 1.946 2.746 1.226 1.641.624.338.217.256.23.326.456 1.205 1.6 1.764 2.254 1.128 1.564 1.32 1.923M285.066 370.82l1.618-3.062 1.09-2.701.614-2.136.153-1.028.291-1.52.222-.749.177-.946-.061-1.095-.085-.932.085-1.145.176-1.116.016-1.013-.146-.837-.36-1.424-.077-.753.003-.58.043-.503.613-1.989 1.074-3.355.606-2.76.276-2.13.315-1.768.613-1.814.391-1.153.276-1.13.576-2.298.445-1.343.146-.676.122-.863.13-.561.18-.385.2-.196.115-.094.495-.166.28-.165.226-.169.192-.378.096-.62.042-3.414.038-3.385-.16-1.336-.223-.97-.683-1.629-.398-1.358-.476-2.577-.353-2.195-.122-1.314.076-1.19M396.126 230.86h-2.887l-3.127-.107-2.343-.35-2.086-.558-1.499-.602-1.563-.613-1.178-.676-2.074-1.309-1.7-1.259-1.355-1.315-2.362-2.787-1.712-2.005M364.205 234.04l.09-.102.929-1.297.675-1.017.568-1.272.36-.525.842-.64.908-.536 1.13-.883.253-.415.1-.333v-.62l-.3-.933-.08-.505.046-.66.167-.466 1.416-2.775.93-1.782M388.81 213.202l-2.337-1.975-2.612-1.886-.555-.5-.38-.28-.448-.276-1.513-1.064-.708-.495-.354-.109-.17.003-.134.048-.137.153-.41.704-1.317 2.506-1.49 2.513-2.484 4.501-1.521 2.234M360.768 258.593l-.325-.507M343.991 264.048l1.786-.231 1.03-.11 2.016-.04.702-.023.48-.052.884-.277 1.836-.732 1.21-.645.745-.368.237-.064.387.013 1.123.192.414.032.347.032.575-.15.44-.327.561-.428.675-.646 1.055-1.298.274-.333M400.678 298.598l-.28-1.282-.348-2.004-.068-1.501-.137-1.815-.177-2.194-.259-1.405-.307-1.069-.491-1.195-.785-1.586-.661-1.403-.6-.79-1.194-1.136-2.033-1.893-1.78-1.3-2.639-2.121-1.234-.927-1.221-.757-1.664-.862-2.585-1.6-.758-.424-.777-.541-.44-.453-.515-.58-.784-.763-.852-.548-3.342-2.044-2.224-1.247-2.735-1.684-1.446-1.142-.737-.718-.593-.477-.484-.307-1.085-.496-2.564-.836-1.337-.58-.774-.325M478.093 246.893l-1.355 1.994-1.43 2.277-1.162 2.264-.781 1.195-1.884 2.717-2.645 3.888-1.978 3.011-2.551 4.189-2.538 3.957-2.566 3.958-2.198 2.933-.636.957-.566 1.027-1.067 2.005-1.144 1.799-1.122 1.61-.334.64-.133.606-.076.78.077 2.77-.025.319-.045.426-.272.55M416.852 305.07l3.187-.403 2.559-.646 3.046-.818 2.511-.953.615-.269.781-.243 1.012-.143 1.677-.023 1.364-.012 1.805-.144 2.011-.202 1.49-.198 2.23-.48 1.618-.498 1.95-.62 1.73-.563.761-.505.795-.8.922-1.086 1.553-2.146 1.193-1.553" clip-path="url(#p6ed69d7932)" style="fill:none;stroke:#000"/><path d="m496.678 327.565-.768-2.944-.981-3.444-1.342-4.705-.369-1.388-.191-.14-.2-.043-.46.065-3.597.992-.821.168-.69-.073-3.1-.8-4.801-1.314-2.255-.646-.629-.419-.49-.624-1.167-2.225-.368-.917-.614-.984-1.622-1.824-.445-.437-.407-.224-3.29-.995-3.118-.837-1.53-.58-.821-.543-2.68-1.95-2.62-1.556-.92-.576-.3-.308-.318-.433-.97-1.491-.994-1.571-.602-.709-1.536-1.325M416.852 305.07l-.29.03M413.65 296.719l1.268 3.003 1.84 5.064.094.283M370.492 167.334l-.008 1.444.007 1.09.19.757.556 1.554.792 2.236.804 2.31.975 2.694.988 2.806M373.82 165.878l-.64.508-.995.382-1.693.566M373.82 165.878l.453.552.536 1.214.327 1.24.779 2.042.765 2.637.642 1.528.575.708.498.5.333.483.255.614.3.344.57.388.484.42.589.633.471.713M393.93 157.73l-.377.07-2.552.789-2.485.977-1.329.4-1.714.145-2.23-.025-1.46-.113-.994.069-.877.269-.994.526-.87.689-1.133 1.303-3.048 3.012-.047.037M393.93 157.73l.523.424.248.316.174.319.075.398.03.704.15 1.503.262 1.585.261.682.485.577.732.57 1.44.67.562.263.3.288.55.89 1.152 2.147 1.21 2.142.772 1.466.38.951.386 1.121.144.727.104 1.052.027 1.065.13.639.262.582.386.764.105.432.052.552-.02 1.603M416.799 158.04l1.556-.835 1.538-1.172 2.682-1.91 1.276-.852M364.205 234.04l-1.6 1.785-2.037 2.167-1.069 1.139-.508.83-1.45 2.916-.573.793-.628.518-.735.582-.354.53-.127.397-.007.646.2 2.11.148 1.822.32 1.669.308.812.287.486 1.062 1.055.695.569.52.543.668.928 1.118 1.749" clip-path="url(#p6ed69d7932)" style="fill:none;stroke:#000"/><path d="m344.86 259.44 2.666-.268 2.442-.66 1.371-.247 2.858-.144 3.049-.033 2.29.046.907-.048M416.562 305.1l-3.427.37-1.61.211-.542-.006-.392-.12-.42-.184-.845-.482-.519-.21-.559-.153-.726-.12-1.508-.236-.934-.274-.317-.13-.266-.223-.386-.486-1.462-2.033-.785-1.11-.532-.568-.443-.49-.21-.258M336.757 301.774l4.48.286 1.41.14 1.42.095 1.258-.155 2.193-.315 1.427-.183 3.575-.522 3.46-.69 1.434-.536 1.55-.91.56-.507 1.487-1.248 2.07-1.725 1.313-.91 1.764-1.16 2.354-1.487.392-.316.249-.415.288-.565.36-.385.675-.426.898-.386.702-.242.786-.059 1.277-.099 2.07-.242h.546l.49.059 1.47.271.72.272.76.444.867.75.659.487.667.323 1.262.411 1.266.426 1.507.591 2.3.705 1.302.297.709.22 1.058.492 3.506 1.81 3.344 1.52 1.281.41.755.298M373.72 240.026l-2.41-.755-3.628-1.093M373.72 240.026l.95-2.79M387.769 245.889l-4.81-1.515-7.635-2.29-1.543-.45-.237-.102-.107-.1-.05-.121v-.189l.086-.39.248-.706M385.417 240.39l-2.365-.703-6.292-1.823-2.09-.629M364.205 234.04l1.75.583 2.91.828 4.308 1.333 1.497.451M268.019 181.643l-.924.563-1.99 1.484-3.33 2.304-2.91 1.986-2.032 1.171M250.425 210.228l.225-3.348.096-1.241-.212-1.325-.17-1.208-.198-1.155-.02-.712.116-1.861.013-1.821.137-.712.225-.366 1.37-1.247.928-.73.635-.647 1.61-2.18 1.172-1.672.48-.852M264.414 213.877l2.441.647 1.958.516 3.697.493 1.595.268.29-.013.181-.075.239-.157.232-.365.095-.262.055-.333.055-1.156-.226-3.819-.116-3.035M269.795 224.174l.239-.797.027-.444-.102-.3-.246-.522-.845-1.41-.553-.758-.511-.783-.587-.784-.511-.464-.696-.626-.464-.692-.6-1.482-.532-1.235M309.67 229.826l2.534.38 5.163.98 3.983.763 4.631 1.208 2.428.848M317.135 242.1l-.395-.293-.52-.294-.62-.163-2.66-.366-2.387-.398-3.15-.376-.28-.06-.16-.122-.103-.194-.058-.293.062-.195.324-.552.241-.937.894-2.742.996-3.434.327-1.39.023-.465M302.417 206.344l.675 1.064.375.777.361 1.077.328.53.43.456.648.385.845.248.546.17.28.261.661.954 1.091 1.514.84 1.143.668 1.325.62 1.626.621 1.175.327.744.103.542.116 1.025-.116.907-.464 1.567-.716 2.35-.417 1.084-.334.797-.19.829-.046.932M314.103 136.45l.407-.855M311.69 125.14l1.06 5.398 1.353 5.912M314.51 135.595l1.957.597.893.236.539.267.43.503 1.323 2.207.852 1.286.655 1.044.436.83.355 1.155.164 1.228.164.966.177.542.334.875.485 2.108.272 1.372.082.927.218.77.634 1.953M239.531 145.93l1.898 1.061.969.346.77.053 1.167.019.211-.033.203-.084.149-.123.419-.4.409-.32.597-.297.48-.235.956-.656.77-.575.737-.529 1.118-.535 1.399-.548.818-.268M246.238 139.34l-2.156 2.082-1.725 1.47-1.562 1.631-1.264 1.407M231.284 148.046l3.243.074 1.685.034.887-.118.562-.111.177-.075.181-.176.287-.35.64-.744.585-.65M231.284 148.046l-.29.343M241.442 136.463l-.122.03-.095.059-.12.136-.167.239-.839 1.296-.77 1.221-.655.6-2.394 2.325-2.55 2.794-2.446 2.883M226.537 147.192l1.572-1.52 1.235-1.312.606-.764 1.065-1.502 1.432-2.017.546-.881.15-.497.218-1.188.395-2.435.089-1.273.102-.353.328-.535M226.537 147.192l4.457 1.197M218.12 145.038l8.025 2.048.392.106M248.311 132.693 246.3 134.5l-1.412 1.143-.627.333-.959.392-.869.306-.165.042-.08.01-.08-.006-.42-.194-.245-.064M238.913 132.52l.598.089.323.051.184.228.053.448-.122.675.03.3.092.119.598.462.353.368.42 1.203M260.62 154.52l-5.277 2.936-3.045 1.807-2.094 1.101-.514.088-.368-.022-.936-.125-2.255-.565-1.38-.558-.967-.756-1.557-.823-1.45-1.028-1.435-.991-.943-.984-.874-1.146-1.028-1.57-.882-1.014-.364-.28-.58-.227-1.749-.418-1.242-.411-.384-.258-.191-.252-.085-.225-.026-.41M436.818 201.911l1.364-1.345 1.344-1.416 2.169-2.103.77-.776M434.145 184.114l.13.718.006.288-.082.333-.17.176-.348.254-.348.274-.757.503-.395.535-.198.667.007.809.17 1.045.49 1.677.574 1.26.962 1.887.729 1.09.293.588.147.44.072.49-.184 1.094.027.973.116.725.307.73.293.392.832.85" clip-path="url(#p6ed69d7932)" style="fill:none;stroke:#000"/><path d="m415.682 230.583.427-.35.428-.164.809-.177 2.387-.476.515-.177.392-.222.499-.42 1.138-1.355.423-.614.273-.561.239-1.012.286-1.704.791-1.789 1.153-2.637.798-2.024.709-2.285.403-.934.457-.757.743-.75 1.248-1.666 1.91-2.71 1.33-1.912 2.196-2.416 1.582-1.56M415.682 230.583l.152-.012M218.12 145.038l.995-.204 1.259-.184.706-.029.598.067h.306l.215-.082.146-.102.66-1.38 1.273-2.512.805-1.087.96-1.38 1.288-2.38.59-1.291" clip-path="url(#p6ed69d7932)" style="fill:none;stroke:#000"/><path d="m213.562 143.843 4.381 1.15.178.045M213.562 143.843l.637-.107.173-.047.23-.051.234-.122.18-.194.265-.53.191-.638.139-.418.214-.338.153-.176.883-.992.513-.41.216-.265.383-.617.491-.749.797-1.057.553-.705M207.21 141.863l2.026.732 2.593.786 1.733.462M482.065 211.725l.369-1.065.713-1.66.2-.646-.008-.741-.499-1.609-.69-2.363-.468-2.813-.514-2.525-.023-1.234.1-.374.138-.191.25-.195.222-.051 3.171.07 1.385-.217.74-.202.407-.198.644-.588 1.979-2.32M495.385 222.198l-1.024-1.457-.974-.94-1.289-.991-2.201-1.697-3.076-2.37-1.618-.992-1.864-.97-1.274-1.056" clip-path="url(#p6ed69d7932)" style="fill:none;stroke:#000"/><path d="m454.176 188.72 1.02.052.732.103.472.19.652.559 1.534 1.263 1.726 1.123 2.677 1.652 4.411 3.106.99.676.551.646.445.88 1.25 2.292 1.711 2.438 1.757 2.172 1.327 1.579.751.587 1.895 1.175 2.386 1.454 1.365.881.237.177M425.615 239.726l4.192-.109 2.278-.323 1.42-.396 1.58-.918 1.886-.932.683-.573.437-.654M425.136 254.537l.077-1.49-.108-.706-.307-.8-.153-.345-.023-.235v-.187l.422-.687 1.097-1.41 1.395-1.696.975-1.424.376-.587.038-.217-.054-.202-.234-.363-.59-.779-.618-.98-1.123-1.747-.69-.956" clip-path="url(#p6ed69d7932)" style="fill:none;stroke:#000"/><path d="m415.834 230.57.872.978.897.86 2.47 1.857 4.33 4.045.648.635.564.781M478.093 246.893l.375.33.725.507.909.999 1.956 2.305 1.388 1.667 1.143 1.454 1.61 1.974.718.826.257.5.054.279.004.257-.13.301-.403.694-1.151 1.732-.959 1.52-.092.282.046.284.1.19.563.55.626.371.422.082.452-.07.38-.118.533-.418M284.353 149.835l1.488-4.994 1.419-4.398.732-2.42 1.745-5.26.315-1.953.207-.72.499-1.065.414-.712 1.07-1.468.345-.434.391-.246.46-.26.265-.25.318-.463.69-1.112.798-1.52.28-.232.227-.12.38-.045 1.084.232 1.198.532.77.334.917.14 3.451.528 1.282.15 1.863.398 2.946.41 1.783.254M311.008 188.457l.276-3.092.138-1.01M258.84 172.45l.922.558 1.928.896 1.853 1.248.675.646.142.231.092.199.042.374-.016.158-.133.239-.445.444-.123.275.008.206.076.183.161.202.28.191 1.366.8 1.135.91.947.937.269.496M225.768 190.989l.149-.016.438.057 1.38.338 3.22.701 3.022.658 1.028.256" clip-path="url(#p6ed69d7932)" style="fill:none;stroke:#000"/><path d="m225.95 211.82.599-.631.697-1.263 1.42-2.812 2.945-6.579 1.756-3.818 1.638-3.734M227.23 269.684l2.01-1.99 4.473-4.582 2.155-2.379.568-.73.118-.265.047-.246-.039-.205-.146-.298-.982-.925-.506-.327" clip-path="url(#p6ed69d7932)" style="fill:none;stroke:#000"/><path d="m219.955 266.269 1.922 1.13 1.38.926.568.256.698.25 1.343.433 1.365.42M250.553 281.768l-.295-.28-1.09-1.197-1.108-1.442-1.016-1.245-.621-.569-.837-.47-1.526-.682-1.193-.323-1.315-.657-.598-.36-.384-.36-.522-.961-.679-1.532-.521-1.376-.083-.073-.149-.087-.19-.036-.34.055-.546.225-1.419.874-.802.382-1.246.29-.905.018-.706-.106-.617-.327-.617-.349-.703-.427-.601-.3-1.335-.352-1.358-.417M292.627 282.357l1.659 1.995 1.887 2.13.376.513.36.594.3.69.314 1.065.299.565.568.529.66.404.175.147M314.728 295.6l-2.712-.217-4.48-.272-1.507-.154-1.208-.231-.855-.375-.679-.62-.92-.944-1.128-1.141-.56-.338-1.454-.32M391.554 199.492l.223 1.66.023.903-.084 2.173-.276 1.454-.353 2.21-.553 2.224-.214 2.042-.284 2.738-.422 2.152-.023 2.063-.046 2.055-.115.757-.307.683-.452.991-.415.932-.452 1.711-.644 1.71-.634 1.249.02.121.065.136.176.136 1.289.242 1.293.202 2.673.195 2.42.047.487-.007.268.062.227.107.682.42M311.95 446.192l-.064-.66-.161-.58-1.477-3.953-1.275-3.688-1.336-3.51-.234-.785" clip-path="url(#p6ed69d7932)" style="fill:none;stroke:#000"/><path d="m311.95 446.192-.314-.282-.713-.573-.698-.653-.514-.532-.567-.716-.399-.418-.483-.385-.68-.489-1.192-1.072-1.308-1.207-.238-.242-.218-.555-.096-.616.042-.529.372-.987.625-1.112.89-1.586.944-1.222M199.328 138.753l-3.845-1.53-7.206-2.904-6.326-2.48M105.05 334.771l7.424-16.323 3.467-5.99.644-.705 2.67-2.114.368-.412.49-.851 1.412-4.846.89-4.757-.338-2.026.43-4.875.337-1.233.89-2.41-.015-.243-.039-.213-.122-.242-.161-.242-.353-.324-1.388-1.203-1.212-.955-2.003-1.964-1.288-1.207-1.73-1.616-.337-.33-.986-.896-.53-.528-1.073-.955-1.19-.639-2.96-1.674-1.472-.859-1.412-.91-.844-.375-.629-.147-.966-.242-1.764-.41-.53-.09M132.176 162.761l1.284-1.37 1.764-2.408 1.75-2.701 2.009-3.187 2.117-3.466 1.488-2.482 1.265-1.553.407-.43.276-.176.265-.157.226-.1.568-.216.621-.246.56-.323.288-.243.184-.286.13-.187.123-.125.18-.08.161-.037.153-.019.193.015.675.092 1.004-.077M207.21 141.863l.492-1.17.211-.502.64-1.099.906-1.461 1.871-3.348 1.457-2.159.814-1.16 1.127-1.19.338-.462.234-.558.348-.827.546-1.3M199.328 138.753l7.224 2.872.658.238" clip-path="url(#p6ed69d7932)" style="fill:none;stroke:#000"/><path d="m197.86 149.394.308-1.094.077-.815-.046-.675-.031-1.586-.142-.826-.027-.6.115-.66.18-.62.058-.555.088-.72.161-.583.219-.55.276-.537.096-.382.136-.438M204.136 163.36l.367 2.79.154 1.16.207 1.476.069 1.256.222.932.384.984.368.779.123.682.07 1.344.091 1.71.246 1.836.115.55.253.522.759 1.204.82 1.22.66 1.042.46.58.706.39 1.082.682 1.081.778 1.181 1.021.99.69.967.558.606.191.575.096 1.948.293.905-.014.69-.015.4.059.306.14 1.274.726 1.748.932 1.412.83.393.205M164.946 235.622l.093.325.314.58.353.697.43 1.123.307.867.468 1.086.614 1.535.414.947.774 1.093.867 1.286.875 1.174.636.64.898 1.041.339.426M197.982 262.162l-.574.083-1.856.132-2.109.265-1.327.36-1.979.785-1.097.301-.437.096-.406-.008-.534-.07-.748-.3-.59-.331-.718-.415-.318-.323-.234-.297-.192-.415-.195-.363-.43-1.267-.314-1.175-.253-.565-.246-.345-.36-.294-1.557-.782-1.06-.602-.827-.7-.338-.338-.728-.661-.591-.455-1.131-.518-.657-.367-.582-.62-.652-.793-.798-1.036-.729-1.006-.782-1.314-.305-.382M142.189 269.117l.077-2.588.08-.601.173-.551.211-.404.226-.32.26-.253.576-.257.713-.22 1.143-.437 1.002-.36.974-.322 1.657-.276.92-.184.71-.058.62-.022.664.088.338.084.479.191 1.02.353.61.198.698.022 1.013.015 2.857-.067 1.603.015.667-.015.414-.11.353-.257.391-.337.526-.577 1.238-.947.545-.484.384-.503.471-.867 1.47-2.386 1.334-2.187.863-1.627.41-.892.215-.653.26-.727.546-.771.897-.808.53-.573M219.955 266.269l-1.054-.675-1.373-.698-.997-.375-1.626-.506-1.365-.36-1.366-.477-1.461-.349-.441-.143-.161-.063-.108-.095-.126-.143-.123-.136-.104-.239-.138-.411-.107-.264-.184-.323-.207-.125-.176-.11-.177-.08-.353-.089-.545-.059-1.02-.212-.667-.184-.575-.03-.376.023-.82.315-.898.368-1.987.708-1.473.341-1.965.284" clip-path="url(#p6ed69d7932)" style="fill:none;stroke:#000"/><path d="m196.664 353.475-.859-1.97 2.21-6.578 3.804-5.697 1.84-5.814-1.104-12.334-6.381-4.522-1.78-5.874 1.289-6.813 2.822-3.465-1.043-1.468-4.111 1.233-1.902-1.351-1.674-3.72-.18-1.11-.027-1.135.614-.75.589-.329 2.394.436 3.99-.557 2.7-1.41 1.902-5.286-2.086-3.994 1.964-6.696-1.772-5.83-.4-1.284-.053-.954.016-1.227-.046-.859-.139-.492-.176-.366-.268-.33-.253-.214-.315-.257-.247-.296M164.946 235.622l-.068-.234-.076-.543.076-.595.176-1.013.1-1.336" clip-path="url(#p6ed69d7932)" style="fill:none;stroke:#000"/><path d="m162.915 235.043.43-.932.897-1.227.912-.983M162.915 235.043l.318.004.276.073.349.151.376.15.36.11.352.09M135.079 242.026l.958-1.498 2.04-1.953 1.627-2.555.33-.602.1-.368.03-.205-.008-.22-.053-.184-.123-.169-.23-.176-.207-.374-.284-.882-.407-1.057-.268-.822-.038-.463.084-.433.107-.242.607-.837.897-.573 1.181-.617 1.764-.94 1.12-.601 1.733-.426 1.136.015.49.084.17.084.13.118.1.183.045.214v.176l-.007.19-.192 1.138-.1.485-.023.382.054.257.07.264.137.309.506.837.4 1.108.245.764.421.69.546.396.498.338.291.411.192.316.553.94.299.228.475.264.483.147h.492l.467-.03 1.565-.25 1.964-.234 1.955-.177 2.455-.308 1.059-.125M317.66 382.977l-.228.116-.104.12-.076.177.047 1.888-.017.492-.088.573-.173.39-1.937 1.404-1.35 1.047-.237.095-.338.007-.276-.08-5.45-4.255-1.488-1.189-1.48-.976-7.295-4.346-6.014-3.539-6.09-4.082M245.64 296.759l.15-.943.345-1.82.487-2.795.49-2.393.227-.602.326-.683 1.795-3.568 1.093-2.187M489.33 545.305l-5.5 2.335M514.903 572.738l-.246-5.464-.46-3.046-.345-1.072-1.864-3.237-.982-1.482-.905-.984-2.186-1.38-2.301-.913-4.46-1.26-1.04-.241-.74-.023-3.252-.007-.848-.139-.848-.408-.398-.34-4.698-7.437" clip-path="url(#p6ed69d7932)" style="fill:none;stroke:#000"/><path d="m445.9 452.641.575 1.256 1.465 3.039.86 1.233 3.16 4.191.383.742.345 1.152.66 3.487.398 2.166.223 2.774.514 3.89.76 5.08.252 2.856-.107 1.32-.384 1.322-.26 1.145.061 1.116.89 3.92.207.827.475.967 1.051 1.759.269.653.237 1.255.285 2.459.191.77.322.478.713.418 3.046 1.263.644.433.675.572.905 1.124 2.01 1.908 1.411 1.358 5.415 7.282 3.13 4.492 2.593 5.08 3.812 7.383 6.244 11.494" clip-path="url(#p6ed69d7932)" style="fill:none;stroke:#000"/><path d="m521.485 482.944-5.102-2.291-6.106-2.686-1.296-.624-1.266-.757-1.986-1.387-.763-.51-.802-.371-5.56-1.707-.599-.205-5.247-1.098-8.192-1.82-8.506-1.74-5.232-1.02-1.825-.462-1.366-.412-8.736-3.883-1.166-.52-1.366-.889-4.835-4.029-5.635-3.892M417.382 362.59l-.145.441-.02.16.248 6.579.154 1.725.345 1.864.53 1.763 1.088 2.562 3.26 7.142 1.741 3.54 1.32 2.576.59 1.108.353 1.035.184.97.177 1.32.383 1.146.46 1.108.269 1.116.253 1.813.338 2.614.398 2.929.729 8.192" clip-path="url(#p6ed69d7932)" style="fill:none;stroke:#000"/><path d="m626.16 273.315-1.708 1.455-16.1 14.948-.334.536-.138.54.011.712.211 1.234.487 2.162.13 1.16-.068.433-.246.176-.606.059-21.57-3.884-6.803-1.101-17.772-3.282-.913-.066-.637.132-.506.397-.245.447-1.377 12.767-.33 2.75-1.188 3.146-.265.239-.411.172-8.203 2.1-1.592.36-2.573.998-.566.438-2.41 2.506-1.619 1.123-1.036.514-.874.272-2.025.41-2.615.265-.79.213-.407.272-.476.727-1.522 3.472-.648.543-1.442.97-.66.697-1.408 1.222-3.674 2.236-.767.165-1.952.206-1.457.422-8.108 3.12-.345.396-.138.411-.085 1.71-.076 6.153-.3 6.57.1 4.023-.169.69-.352.441-1.235.823-7.287 4.088-.648.73-.196.438-.782 2.532-.911 1.64.014.276.145.485.82.947.185.404.061.411-.291.521-2.394 2.8-3.144 2.42-7.183 6.244-.472.106-1.833.163-.31.385-.005.208 4.357 11.908-.138.322-.414.338-5.57 3.45-1.771 2.672-.498.39-1.113.176-1.749.396-.36.096-1.036-.14-.506.073-.36.324-.553.792-1.204 1.094-4.587 2.415-1.012.932-12.703 4.831-9.741 3.942-7.763 2.995-.99.125-4.38-.55" clip-path="url(#p6ed69d7932)" style="fill:none;stroke:#000"/><path d="m404.704 418.872 1.46-.284 1.943-.39 3.544-.572 4.986-.844 7.271-1.285 4.802-.954 1.327-.25M432.123 284.645l-.46.478-.567.595-.855 1.049-.952 1.15-.402.37-.338.25-.752.492-.48.388-.394.445-.291.411-.261.286-.426.305-3.655 1.835-3.46 1.748-5.18 2.272M470.767 559.37l7.51-3.15 5.384-2.312 3.184-1.314.093-.11.031-.119-.002-.152-.115-.258-3.022-4.315M499.8 593.506l1.008-.16.307-.181.449-.594.87-2.283.932-2.532.353-.566.61-.858 1.055-1.317.56-.683.15-.353.072-.271.031-.664-.142-1.085-.05-.508.027-.294.134-.3.25-.265 1.982-2.011 2.255-2.455 1.155-.961 1.423-1.303.859-.654.813-.47M418.973 427.994l-.434 1.854-.095.35-.212.502-1.196 1.615-.568.954-.414 1.138-.721 2.885-.238 1.395.03.793.223.697.875 1.542 1.18 2.679 1.75 3.318 2.462 5.432 2.73 6.034 1.965 4.214 2.676 5.417 2.447 5.153.656 1.471.165.372.061.366-.115.419-.315.418-1.042 1.138-1.335 1.05-2.064 1.688-1.787 1.505-.766.763-.745.97-.375.755-.154.48-.276.658-.599.858-1.265 1.505-.813 1.22-.3.725-.532 2.698-.142.488-.261.459-.46.452-.721.598-.733.682-1.488 2.118-.798.884-.475.353-.441.136-.633.095-.79.085-.487.168-.525.37-.68.78-.567.719-.917.83-1.848 1.49-.756.715-.571.851-.319.419-.256.52-.472.775-.3.569-.287.566-.594.579-1.028.654-.499.223-.414.243-.453.433-.51.304-1.154.29-2.49.481-2.757.194M418.973 427.994l-14.27-9.122M334.046 598.46l.18-2.264.107-3.38.315-4.022-.031-.969-.123-1.115-.122-1.417-.215-1.387-.422-1.637-.337-1.68-.1-1.05-.13-2.466-.131-3.215-.1-1.637-.146-.675-.245-.888-.866-2.276-.653-1.152-.667-1.094-1.979-3.34-2.6-4.183-3.091-5.263-2.846-4.668-2.746-4.573-3.482-6.084-2.356-4.148-.212-.486-.163-.57M310.455 525.906l.26 3.655.108 2.643.062.616M271.627 550.517l2.448-1.563.482-.213.545-.158.97-.059.898-.176 1.848-.4 2.206-.466.94-.214.348-.08.763.026.863.33 1.496.543.844.132.652.015 1.204-.12.702-.023.786.1.786.209.51.051.79-.066.845-.305 1.61-.822 1.987-1.13 1.189-.823 1.411-1.387 1.687-2.187.906-.925.874-.638.943-.565 1.596-.61 1.035-.256.66-.309.798-.624.552-.514 1.028-.99.614-.72.502-.763.629-1.09.31-.907M311.95 446.192l-.045.995-1.104 4.096-.668 4.39-.337 1.777-.207 1.607-.162 2.342-.368 4.17-.337 5.52-.507 5.446-.498 7.78-.453 6.387-.445 6.658-.59 7.971-.269 5.498.077.947.207.815.629 1.453 1.496 3.354 1.411 3.942.576 3.274.1 1.292" clip-path="url(#p6ed69d7932)" style="fill:none;stroke:#000"/><path d="m336.389 528.16-.284.241-.218.048-.35.07-1.55.051-1.717.074-1.956-.059-1.511-.103-1.12-.278-1.289-.492-.99-.22-1.53-.008-.674-.117-.365-.173-1.917-1.78-.384-.528-.383-.603-.261-.212-.384-.008-2.431.676-3.674.741-.86.007-1.11-.112-.293.04-.236.1-.447.391M286.17 599.422l.346.096.387.249.548.32.465.322.448.206.576.055 1.533-.015 3.157-.205 4.162-.407 3.708-.28 3.482-.091 5.466-.129 4.403-.08 3.436-.125 4.407-.169 3.516-.15 4.564-.214 2.807-.091.25-.037.15-.095.065-.121M186.66 474.711l.087-.356.636-1.395 1.68-3.347 3.153-5.557 2.807-5.035 2.63-4.735 1.06-1.703.582-.573.806-.396 2.086-.8 5.937-1.836 7.141-2.106 4.894-1.366 3.26-.726 1.703-.096M236.554 438.382l-1.438.158-.705.147-.507.198-.77.576-1.047.855-.929.97-.897 1.1-1.097 1.11-.79.55-1.066.389-1.112.146-1.074.103" clip-path="url(#p6ed69d7932)" style="fill:none;stroke:#000"/><path d="m223.403 452.187.767-2.65.338-1.605.445-2.528.169-.72M377.104 389.063l-2.935 1.564M319.007 315.598l-1.783-4.023-1.285-3.234-.226-.845-.069-.532.077-.396 1.53-3.09 1.994-4.289.767-1.637.062-.374-.085-.265-.245-.154-.422-.132-4.594-1.028M331.825 285.32l-3.559 2.115-3.498 2.28-3.82 2.588-1.745 1.152-1.411.75-3.064 1.394M229.678 561.716l1.074-2.127 1.036-1.952 2.155-3.942 1.005-1.658 1.28-1.997.852-.771.836-.374 2.37-.367 3.736-.264 6.673-.426 5.798-.337 3.79-.22.475.168.216.176.275.323 1.22 1.666.53.705M199.031 608.424l-.062-.125-.019-.503.084-2.51.146-.553.783-1.626.36-.9.625-1.585.58-.954.598-.855.58-.628 1.441-1.401 1.204-1.072 1.02-.66 3.245-1.865 2.427-1.218 1.052-.301.928-.173.548-.14.468-.26.84-.594.863-.764.552-.565.683-.59.713-.665.3-.448.226-.59.157-.65.11-.914.27-1.115.605-1.982 1.02-3.171.368-.844.564-.88.411-.566 2.324-3.259.859-1.262.315-.639.445-1.072 1.265-3.515 1.546-4.619.203-.675M186.66 474.711l-.197.811-.077 1.262.414 3.4.721 3.86.806 2.489.705 1.769.61 1.567.733 1.266 2.14 3.876 1.664 2.54.86 1.453 1.672 3.017 1.388 2.231.383.653.292.698.326.95.18.76.521 3.112.016.984-.184.536-.445.727-3.321 4.198-2.708 3.274-.564.826-.242.737-.06.837.084.536.387.628 1.741 1.236 1.81 1.222 1.907 1.428 2.258 1.916.69.906 1.642 1.733.43.561.295.572.188.723.725 1.935.82 2.15.208.749.084.947.315 2.767.123.426.176.294.683.535 4.218 3.465.656.576.636.763.261.305.35.279 1.28.895 2.631 1.633 2.094 1.502 3.79 2.796 3.812 2.833 2.309 1.923.579.617.203.32M336.389 528.16l.096-.408 1.438-8.269.499-3.795.92-3.978.765-3.053.546-2.775.699-3.92.053-1.424-.13-.962-.314-3.06-.675-3.583-.714-3.435-1.05-4.955-1.259-5.498-.552-3.097-.69-2.951-1.136-3.802-.736-2.496-1.066-3.832-.3-.874-.36-.646-.886-1.156-2.297-2.521M236.554 438.382l1.236 2.136 1.798 2.504 1.868 2.639 2.07 3.031 1.47 2.074 1.317 1.828.263.537.244.55.374 1.225.594 1.795.398 1.255.288 1.076.265 1.508.184.587.2.448.394.631.261.433.112.325.001.178-.025.161-.157.196-.59.47-1.216.872-.621.305-.564.172-.587.205-.244.168-.101.163-.096.22-.07.775.137 2.46.042.241.135.274.243.2 1.265.25.173.076.12.147.122.19.2.629.137.242.208.183.184.118.468.233.191.165.1.101.065.173.062 1.16-.089.183-.118.158-.285.14-1.582.32-.437.089-.25.112-.212.209M521.485 482.944l.812-1.828 1.419-3.81 1.68-4.346 1.227-3.274.874-2.114.022-.136.01-.176-.018-.149-.662-1.091-1.2-2.067-.82-1.673-.361-.727-.215-.639-.522-.947-.59-.712-2.846-3.64-.122-.33-.014-.238.075-.57.088-1.288-.135-.948M219.955 266.269l.358.741.06.345-.091.5-.58 1.046-.517.9-.476.675-.322.653-.123.602-.015.823-.108 3.986v4.222l.323 4.992-.054 1.997-.107 1.358.023.668.145.573.33.793.253.778.2 1.145.222 1.52.507 1.99.736 2.32.307 1.3.207.763.268.44.575.69.837.786 1.334.859 1.059.83.468.528.43.653.27.422.124.192.123.044.2-.008 8.97-2.5M248.279 354.405l.974-2.313 1.25-3.179 1.419-3.435 1.603-3.913.315-.544.514-.631 3.766-4.148.345-.58.46-.895 3.227-7.71.018-.111v-.116l-.05-.104-.61-.468" clip-path="url(#p6ed69d7932)" style="fill:none;stroke:#000"/><path d="m240.225 605.544-1.964-.521-1.864-.727-1.396-.514-.982-.161-1.104.05-5.17.889-1.05.088-.492-.03-.552-.066-.521.081-1.895.925-1.12.47-.522.102-.529-.007-2.3-.25-.722.008-1.488.132-.46-.007-.246-.096-.92-.594-.767-.573-.392-.11-.606.03-2.454.396-3.505.749-1.312.345-1.204.36-1.519.528-3.697 1.372-.292.08-.149-.07M336.389 528.16l9.42 4.308 3.969 1.651.709.15.368-.083.326-.375.08-.286 1.128-4.114.116-.4.088-.19.283-.203 12.4-5.237M286.17 599.422l-.505-1.035-.522-.77-.614-.94-.683-.639-1.25-.924-1.442-.991-1.315-.932-1.868-1.02-3.252-1.674-.392-.279-.314-.323-.276-.543M381.322 383.377l-.633-1.696-1.039-2.566-.376-1.369-.257-.892-.456-.892-.663-1.064-.76-1.252-.959-1.156-.982-1.05-.679-.903-.1-.255-.057-.186-.011-.256.146-.76.103-.338.173-.308.306-.266.166-.268.082-.28.152-1.014.103-.558.157-.448.23-.25.621-.29 1.205-.495 1.35-.822 1.48-1.175.622-.734.452-1.064.23-1.19.07-1.784.214-1.108.284-1.08.598-1.761.12-.553.014-.475-.023-.448-.076-.833.069-.676.234-.774.475-1.237.476-1.289.284-1.13.33-2.257.582-3.091.967-5.378M381.322 383.377l-1.802 1.017M262.016 602.608l4.127 3.317 1.818 1.354.449.22.56.085.686.08.598-.032.135-.008.318-.084.146-.169.03-.169-.061-1.116.046-.348.257-.463.303-.378.422-.29 1.5-.583 1.223-.444 1.07-.466 1.246-.778.802-.363 1.553-.566 1.362-.535 1.346-.518 1.131-.414 1.185-.268 1.17-.24.733-.01M408.537 308.44l.349-.21.107-.084.073-.12.276-.548.139-.147.207-.084 1.208-.25 2.546-.455.337-.076.656-.148 1.216-.488.495-.316.416-.413M303.675 264.734l-3.521 2.122-.087.077-.028.096.05.201.138.298.188.418.092.397.042.488-.085.492-.349 1.24-2.815 5.324-.445.778-.222.565-.376 1.124-.307.785-.728 1.16-.553.654-2.042 1.404M371.844 403.494l-.874-3.712M317.66 382.977l-.831-1.3-1.564-2.202-1.397-1.865-2.684-2.73M548.507 130.162l3.71.176M579.338 155.559l-2.926-1.813-.417-.185M579.338 155.559l-1.767 3.004-2.976 5.757-.368.293-.246.03-2.853-1.528-.062-.205.154-.558 4.775-8.79M379.774 384.79l2.079-1.215 5.439-3.077 29.795-17.511M379.52 384.394l.167.26M379.52 384.394l-.147.083-2.172 1.26-2.207 1.195-1.456.53-.84.186-1.056.198-2.196.117-3.637.022-3.179-.25-1.676-.426-1.856-.76-5.604-2.923-.132-.069-.097-.045-2.822-1.334M379.687 384.654l.226-.132 6.373-3.704 10.278-6.017 9.044-5.352 8.02-4.572 3.413-2.067.341-.22" clip-path="url(#p6ed69d7932)" style="fill:none;stroke:#000"/><path d="m379.774 384.79-1.438.753-1.652.966-.86.473-.87.384-.58.244-.617.194-1.716.414-1.092.153-2.284.058-2.86-.01-1.814-.064-1.36-.145-1.73-.447-3.415-1.602-3.998-2.198M353.409 383.744l-2.966-1.566" clip-path="url(#p6ed69d7932)" style="fill:none;stroke:#000"/><path d="m353.409 383.744 3.708 2.045 2.844 1.4 1.502.518 1.673.322 1.322.116 3.156.08 1.698.04 2.404-.202 2.47-.532 1.262-.586 4.108-2.215.13-.076M352.717 384.011l-2.274-1.833M379.774 384.79l-.087-.136M626.16 273.315l.422-.02.306-.058.307-.103.215-.132.353-.235M637.27 505.973l-.292.622-1.041.495-3.129 2.53-3.29 3.055-.676.988-.258 2.963.29 1.327 1.16 2.283 1.323 2.5.065.957-.613 4.32-.29 1.667-.355.772-.968 1.975-.677 3.055-1.903 5.833-.354 1.018v.37l.225.525" clip-path="url(#p6ed69d7932)" style="fill:none;stroke:#000"/></g><path id="PatchCollection_1" d="m311.595 372.114.348-.434.116-.323.654-.05h.243l.37-.334.231-.03.792-.464-.211-.293-.401-.08-.095-.132.327-.273-1.108-.242-.317-.111-.443.211-.432.354-.18.172.042.434-.19.152-.073.383.116.435.01.222-.136.02z" clip-path="url(#p6ed69d7932)" style="fill:#00f;fill-opacity:.8"/><g id="PatchCollection_2"><path d="m548.837 151.502 1.985-.435.562 2.352-1.366.3zM550.87 148.395l.485 2.048 1.493-.325-.486-2.048zM386.898 380.955l6.664 10.628 25.236-14.563-1.565-5.226-.215-6.138-.062-2.437zM380.554 385.39l3.009 4.678 6.605-3.796-3.009-4.59zM327.944 378.048l1.104 4.405 5.001-1.35-1.211-4.347zM359.451 390.842l1.162 3.506 3.42-.838-3.596-2.857zM353.345 384.19l10.627 9.012 5-4.762-5.047-.178-2.953-.467-3.836-1.714-3.488-1.936zM386.615 381.168l.305.487-6.412 3.592-.356-.548zM380.226 386.014l-2.593 1.47-.848.088-.495-.74 3.357-1.766z" clip-path="url(#p6ed69d7932)" style="fill:green;fill-opacity:.8"/></g><g id="PatchCollection_3"><path d="m337.7 392.088 4.065-1.097 1.208 5.306-3.897 1.077zM550.272 138.122l3.954-.497.336 2.452-3.954.497zM548.178 150.07l1.601-.337-.223-.97-1.601.337z" clip-path="url(#p6ed69d7932)" style="fill:#90ee90;fill-opacity:.8"/></g><g id="PatchCollection_4"><path d="m364.439 393.423 4.776-4.903 5.35-.844 2.119-1.167 3.148-1.632 6.88-3.89 3.456 5.285-.014.42 3.408 4.891-10.554 6.167 7.07 11.773z" clip-path="url(#p6ed69d7932)" style="fill:#d3d3d3;fill-opacity:.8"/><path d="m383.718 390.416 1.357 2.289 6.592-3.842-1.539-2.399z" clip-path="url(#p6ed69d7932)" style="fill:#d3d3d3;fill-opacity:.8"/></g><g id="PatchCollection_5"><path d="m317.306 381.213-.533.353-.573-.98.424-.17zM389.002 387.44l.774 1.074 1.147-.718-.769-1.103-.698.441z" clip-path="url(#p6ed69d7932)" style="fill:#a9a9a9;fill-opacity:.8"/></g></g></g><defs><clipPath id="p6ed69d7932"><path d="M90 108.911h558V618.29H90z"/></clipPath></defs></svg>