<svg xmlns="http://www.w3.org/2000/svg" width="960" height="960" viewBox="0 0 720 720"><defs><style>*{stroke-linejoin:round;stroke-linecap:butt}</style></defs><g id="figure_1"><path id="patch_1" d="M0 720h720V0H0z" style="fill:#fff"/><g id="axes_1"><path id="patch_2" d="M90 616.45h558v-505.7H90z" style="fill:#fff"/><g id="LineCollection_1"><path d="m264.94 606.724-.963-.439-.891-.334-.847-.335-.782-.427-.65-.485-.957-.866-.866-.674M257.485 606.352l.63-.141.905-.183.794-.103 1.044-.039.446.022.487.081 3.148.735M342.25 422.912l-.251.467M330.172 418.627l5.998 2.127 6.08 2.158" clip-path="url(#p82aa343934)" style="fill:none;stroke:#000"/><path d="m346.217 414.72-3.578 7.376-.39.816M396.552 321.309l5.888 2.347M396.552 321.309l-2.533 5.445M390.614 318.9l2.939 1.235 2.999 1.174" clip-path="url(#p82aa343934)" style="fill:none;stroke:#000"/><path d="m399.03 315.766-.957 2.253-1.521 3.29M371.95 364.543l.624.23 3.376 1.3M371.95 364.543l.177-.314.12-.337M369.167 365.526l.63.091.635-.061.597-.21.517-.346.404-.457M352.497 369.874l5.982 2.377M352.497 369.874l-5.958-2.396M352.497 369.874l2.579-5.508M352.497 369.874l-2.5 5.46M362.11 307.572l4.01 1.656M356.106 305.023l.53.242.611.262 2.643 1.128 2.22.917M364.577 301.995l-1.072 2.339-1.395 3.238M359.994 311.945l1.438-2.928.678-1.445M390.614 318.9l2.513-5.545M390.614 318.9l-.554-.216M390.614 318.9l-2.49 5.555M330.172 418.627l1.563-3.32M324.258 416.317l.974.346 1.12.414 3.82 1.55M367.467 369.282l1.452-3.152.248-.604M368.664 365.33l.245.11.258.086M384.93 299.01l-5.906-2.25M384.93 299.01l6.05 2.41M383.126 302.933l.876-1.895.927-2.028M372.247 363.892l.068-.415-.016-.42-.099-.408-.178-.386-.252-.349-.317-.3-.372-.24M376.237 365.453l-1.94-.71-1.411-.585-.639-.266M383.838 348.919l-2.587 5.585M377.874 346.553l3.163 1.308 2.801 1.058M389.712 351.24l-5.026-1.963-.848-.358M386.377 343.392l-.675 1.486-1.864 4.04M368.583 382.515l2.366-5.346M374.56 384.643l-.89-.294-1.816-.617-3.27-1.217M362.47 380.305l1.59.61 2.844 1.028 1.68.572M366.656 386.482l.554-1.128 1.373-2.839M391.475 385.177l-2.63-.91M370.949 377.169l2.505-5.64M370.949 377.169l5.974 2.34M364.885 374.766l1.351.553 4.713 1.85M397.158 303.86l-6.178-2.44M403.268 306.381l-3.168-1.304-2.942-1.216M424.792 243.881l-4.447 9.71-6.873 14.943-6.106 13.234-4.558 9.952-5.65 12.14M395.378 307.78l1.252-2.74.528-1.18M388.844 384.268l2.443-5.486M382.854 381.846l2.567 1.063 3.423 1.359M414.36 328.384l2.627-5.634M414.36 328.384l-2.44 5.373M418.874 330.12l-.518-.176-1.405-.532-2.591-1.028M408.482 326.074l3.034 1.192 2.844 1.118M349.998 375.333l5.981 2.466M344.068 372.977l2.865 1.157 3.065 1.2" clip-path="url(#p82aa343934)" style="fill:none;stroke:#000"/><path d="m344.272 387.885 2.157-4.747 1.143-2.518.27-.585 2.156-4.702M377.874 346.553l2.571-5.458M377.874 346.553l-.548-.224M377.874 346.553l-2.517 5.598M341.433 351.943l2.79-5.708M341.433 351.943l3.782 1.572M100.73 257.865l4.491 1.649 12.572 4.975 10.436 4.015 10.58 4.14 10.565 4.204 3.355 1.246 5.002 1.907 15.54 6.011 5.19 1.99 18.381 7.271 6.57 2.606 13.655 5.298 10.872 4.188 11.564 4.466 2.656 1.02 10.532 4.325 9.245 3.505 14.835 5.806 4.578 1.864 6.73 2.58 7.373 2.932 9.093 3.585 10.225 4.1 6.554 2.605 4.91 1.893 9.125 3.505 3.727 1.49 2.347.902M391.287 378.782l2.508-5.668M385.414 376.343l2.529 1.066 3.344 1.373M373.454 371.53l2.496-5.458M379.354 373.936l-2.35-.95-3.55-1.456M367.467 369.282l3.94 1.473 2.047.775M409.323 308.79l-1.827 3.78M409.323 308.79l5.84 2.371M403.268 306.381l3.136 1.232 2.92 1.177M364.885 374.766l-.322-.136M364.885 374.766l1.064-2.294 1.518-3.19M362.47 380.305l.996-2.274 1.419-3.265M378.152 313.982l-5.918-2.422M378.152 313.982l2.459-5.486M378.152 313.982l-2.595 5.534M384.09 316.359l-.738-.296-4.406-1.735-.794-.346M354.136 309.554l.752-1.751.61-1.429.338-.752.17-.37.1-.23" clip-path="url(#p82aa343934)" style="fill:none;stroke:#000"/><path d="m351.17 302.785 1.387.64 1.643.73 1.906.868M379.354 373.936l2.5-5.48M376.923 379.509l1.465-3.451.966-2.122M385.414 376.343l-3.31-1.3-2.75-1.107M374.56 384.643l-.906 2.013M376.923 379.509l-1.65 3.675-.334.677-.38.782M403.268 306.381l-1.704 3.841M376.923 379.509l5.931 2.337M374.68 426.15l-4.16-1.689M374.68 426.15l-1.286 2.904M374.68 426.15l1.284-2.566M365.423 341.742l-5.904-2.468M365.423 341.742l-2.576 5.482M371.443 344.002l-.808-.333-5.212-1.927M367.987 336.14l-1.223 2.654-1.341 2.948M355.076 364.366l5.934 2.251M355.076 364.366l-5.994-2.45M355.076 364.366l2.44-5.6M340.397 358.54l2.705 1.117M421.142 313.522l-5.979-2.36M419.484 317.259l1.148-2.578.51-1.16M425.716 315.01l-1.062-.303-.698-.182-.618-.192-.841-.262-.708-.285-.647-.264M401.756 356.13l-6.102-2.45M406.126 357.956l-2.21-.916-2.16-.91" clip-path="url(#p82aa343934)" style="fill:none;stroke:#000"/><path d="m404.217 350.502-1.198 2.671-1.263 2.958M349.266 335.215l4.246 1.671M349.266 335.215l1.091-2.52M349.266 335.215l-2.427 5.46M334.202 409.964l2.569-5.567M334.202 409.964l-2.467 5.343M334.202 409.964l-6.039-2.451M334.202 409.964l5.858 2.352M402.44 323.656l2.535-5.648M402.44 323.656l-2.486 5.482M408.482 326.074l-3.241-1.305-2.801-1.113M367.467 369.282l-.455-.177M362.47 380.305l-.329-.186M359.992 386.007l.704-1.57 1.775-4.132M389.712 351.24l2.51-5.448M395.654 353.68l-4.982-2.033-.96-.407M387.181 356.86l1.752-3.816.779-1.804M328.163 407.513l-2.438 5.64M328.163 407.513l2.698-5.604M322.316 405.09l2.035.843 3.812 1.58M346.217 414.72l-6.157-2.404M346.217 414.72l6.247 2.403M348.969 409.24l-.318.635-2.434 4.844M370.528 435.188l-3.474-1.16-.848-.333M360.349 431.225l5.002 2.1.855.37" clip-path="url(#p82aa343934)" style="fill:none;stroke:#000"/><path d="m367.903 429.963-.687 1.554-1.01 2.178M347.92 395.694l-6.066-2.489M347.92 395.694l5.984 2.353M347.92 395.694l-2.459 5.608M382.286 409.585l-4.4-1.934M382.286 409.585l-2.551 5.844M382.971 416.723l3.786-7.892.016-.216-.048-.165-.108-.112-.308-.185-1.487-.643-.784-.237-.416.045-.254.215-1.082 2.052M354.199 398.178l-.295-.131M354.199 398.178l6.02 2.445M354.199 398.178l1.435-2.964 1.192-2.447M354.199 398.178l-.422.542M342.715 406.785l-2.655 5.53M342.715 406.785l2.746-5.483M342.715 406.785l6.254 2.456M342.715 406.785l-5.944-2.388M370.528 435.188l1.627-3.695M376.79 430.409l-1.541 3.226-.72 1.493-.4.79-.208.252-.328.118-.293.01-2.772-1.11M341.999 423.38l5.177 2.116M312.632 483.94l14.601-30.284 7.198-15.172 3.767-7.585 3.8-7.52M348.519 426.069l1.296.564M348.519 426.069l-1.343-.573M348.519 426.069l1.535-3.117M370.52 424.461l-2.617 5.502M370.52 424.461l2.567-5.613M364.492 422.041l1.155.44 4.874 1.98M376.79 430.409l-3.396-1.355M375.964 423.584l2.492.95.416.193.152.148.06.2-.025.149-2.268 5.185M336.77 404.397l2.551-5.636M336.77 404.397l-5.909-2.488M382.26 422.605l-1.636-.81M373.087 418.848l4.187 1.636M373.087 418.848l-5.934-2.294M317.985 396.818l2.519-5.32M317.985 396.818l-2.673 5.695M317.985 396.818l2.814 1.194M317.985 396.818l-2.795-1.137M361.94 427.647l-6.049-2.288M361.94 427.647l2.552-5.606M361.94 427.647l-1.591 3.578M367.903 429.963l-5.143-1.99-.82-.326M375.964 423.584l1.31-3.1M373.394 429.054l-1.24 2.439M367.903 429.963l4.252 1.53M348.969 409.24l6.161 2.476M348.969 409.24l2.583-5.622M377.274 420.484l2.46-5.055M377.274 420.484l3.35 1.31M359.337 387.267l1.415.351M359.337 387.267l.655-1.26M356.826 392.767l1.633-3.698.878-1.802M359.337 387.267l-.315-.094M366.656 386.482l-.592.055-.951.078-1.05.037-.78-.013-.801-.039-.655-.09-.731-.154-1.104-.35" clip-path="url(#p82aa343934)" style="fill:none;stroke:#000"/><path d="m373.654 386.656-1.708-.097-2.277-.088-1.914-.034-1.1.045M359.992 386.007l-.365-.159M380.535 387.07l2.32-5.224M380.535 387.07l-.94-.023-2.842-.166-3.1-.225" clip-path="url(#p82aa343934)" style="fill:none;stroke:#000"/><path d="m379.755 388.673.217-.439.421-.857.142-.308M377.229 394.333l1.51-3.427 1.016-2.233M372.99 387.824l2.755.185 2.295.31 1.715.354M360.752 387.618l.8.147.8.09 1.024.058.909-.034 1.02-.06.687-.049M360.304 389.6l.426-.285.347-.357.135-.375-.039-.32-.173-.376-.248-.269M385.414 376.343l2.415-5.523M385.414 376.343l-2.56 5.503M355.13 411.716l-2.666 5.407M355.13 411.716l2.545-5.541M355.13 411.716l5.83 2.411M352.464 417.123l-2.41 5.829M358.554 419.763l-4.415-1.932-1.675-.708M377.229 394.333l-2.42 5.438M377.229 394.333l-5.939-2.347" clip-path="url(#p82aa343934)" style="fill:none;stroke:#000"/><path d="m380.723 401.99 2.125-4.241.053-.363-.272-.366-.351-.237-3.048-1.294-.709-.347-.554-.31-.738-.5M374.809 399.771l-2.619 5.63M374.809 399.771l-6.094-2.389M374.809 399.771l5.914 2.22M377.886 407.65l-5.696-2.25M377.886 407.65l2.837-5.66M355.07 428.969l2.803 1.289 2.476.967M408.482 326.074l-2.554 5.312M411.077 320.437l-1.146 2.543-1.45 3.094M360.22 400.623l5.946 2.418M360.22 400.623l-2.545 5.552M364.492 422.041l-3.039-1.22M364.492 422.041l2.661-5.487M372.19 405.4l-6.024-2.36M372.19 405.4l-2.438 5.54M356.826 392.767l-.379-.138M356.826 392.767l5.548 2.139M367.153 416.554l2.599-5.613M367.153 416.554l-6.193-2.427M413.486 314.934l.94-2.144.737-1.629M395.654 353.68l2.547-5.52M395.654 353.68l-2.575 5.616M360.96 414.127l-2.406 5.636M360.96 414.127l2.685-5.589M364.96 389.842l6.33 2.144M364.96 389.842l1.032-2.072M364.96 389.842l-.791 1.55M366.166 403.04l-2.52 5.498M366.166 403.04l2.549-5.658M354.408 428.664l.662.305M354.408 428.664l-1.863-.824M355.891 425.359l-.981 2.274-.502 1.031M365.992 387.77l.71-.06 1.44-.063 1.59.006 2.548.117.71.054M355.891 425.359l-5.837-2.407M355.891 425.359l2.663-5.596M368.715 397.382l-6.341-2.476M371.29 391.986l-.347.976-.7 1.5-1.528 2.92M362.374 394.906l1.795-3.513M372.99 387.824l-.7 1.693-1 2.469M358.554 419.763l2.899 1.057M379.024 296.76l-6.154-2.393M377.297 300.574l1.06-2.325.667-1.49M372.234 311.56l-6.114-2.332M369.647 317.146l.29-.616 1.657-3.524.64-1.446M374.741 306.117l-.68 1.525-1.827 3.918M346.539 367.478l-6.034-2.495M344.068 372.977l1.48-3.336.991-2.163M349.082 361.915l-1.136 2.44-1.407 3.123M359.519 339.274l-6.007-2.388M359.519 339.274l-2.64 5.548M362.07 333.752l-1.016 2.184-1.535 3.338M335.749 391.052l-2.422 5.41M335.749 391.052l2.513-5.55M329.737 388.655l3.205 1.266 2.807 1.131M341.854 393.205l-2.544-.935-3.561-1.218M330.861 401.91l-6.032-2.265M333.327 396.462l-1.993 4.407-.473 1.04M349.082 361.915l-5.98-2.258M349.082 361.915l2.557-5.49" clip-path="url(#p82aa343934)" style="fill:none;stroke:#000"/><path d="m340.505 364.983-.976 2.215-1.191 2.996-.042.213.04.178.08.146.172.167 1.041.423 4.439 1.656M338.262 385.502l1.393-3.125 1.086-2.453.791-1.661.411-.845 1.283-2.78.842-1.66M345.461 401.302l-6.14-2.54M345.461 401.302l6.091 2.316M317.605 390.462l2.899 1.036M317.605 390.462l-2.415 5.22M322.945 385.837l-1.83-.804-.31-.07-.347-.012-.284.05-.257.17-.267.32-2.045 4.971M369.752 410.94l-6.107-2.402M351.552 403.618l6.123 2.557M353.777 398.72l-.467.998-1.758 3.9M357.675 406.175l5.97 2.363M333.327 396.462l-5.886-2.222M333.327 396.462l5.994 2.3M339.321 398.761l2.533-5.556M354.28 381.425l1.7-3.626M371.443 344.002l5.883 2.327M371.443 344.002l2.499-5.57M371.443 344.002l-2.562 5.52M355.98 377.799l6.161 2.32M358.479 372.25l-.902 1.945-1.598 3.604M358.479 372.25l2.53-5.633" clip-path="url(#p82aa343934)" style="fill:none;stroke:#000"/><path d="m364.563 374.63-1.985-.768-4.1-1.611M384.09 316.359l2.515-5.556M390.06 318.684l-4.83-1.885-1.14-.44M381.475 321.893l1.515-3.238 1.1-2.296M390.98 301.42l-1.834 3.808M361.01 366.617l6.002 2.488M363.57 361.18l-.924 1.896-1.636 3.541M419.484 317.259l-1.238 2.79M419.484 317.259l-5.998-2.325M407.496 312.57l-2.521 5.438M407.496 312.57l-5.932-2.348M407.496 312.57l5.99 2.364M344.272 387.885l-2.216-.83-3.794-1.553M332.208 383.155l3.51 1.364 2.544.983M338.162 364.06l2.343.923M327.441 394.24l-4.154-1.796M327.441 394.24l-2.612 5.405M329.737 388.655l-.724 1.612-1.572 3.973M329.737 388.655l-4.177-1.763M332.208 383.155l-.936 2.196-1.535 3.304M371.081 361.374l.901-1.873.374-.731.492-1.004M371.081 361.374l-.261-.12-.275-.09M366.12 309.228l2.56-5.563M366.12 309.228l-2.507 5.486M318.275 413.94l-4.01-1.68M318.275 413.94l1.452-3.09M324.258 416.317l-.573-.253-1.204-.43-1.579-.62-2.627-1.074M311.332 411.052l2.933 1.208M311.332 411.052l1.503-2.956M309.88 406.856l-1.397 2.666.037.31.144.228.328.155.736.244 1.604.593M413.486 314.934l-1.174 2.782M314.265 412.26l1.375-3.036M367.112 296.54l-.655 1.378M367.112 296.54l4.078 1.594M368.881 292.822l-.57 1.127-1.199 2.59M371.19 298.134l6.107 2.44M371.19 298.134l1.68-3.767M368.68 303.665l1.15-2.488 1.36-3.043M322.316 405.09l-4.103-1.426M322.316 405.09l2.513-5.445M322.316 405.09l-2.589 5.76M345.713 354.071l-1.21 2.499-1.401 3.087M340.505 364.983l1.596-3.204 1-2.122M323.287 392.444l-2.783-.946M323.287 392.444l2.273-5.552M323.287 392.444l-2.488 5.568M355.985 331.291l-.717 1.658-1.756 3.937M351.005 342.446l1.488-3.294 1.02-2.266M324.829 399.645l-4.03-1.633M383.126 302.933l-5.83-2.36M383.126 302.933l6.02 2.295M383.126 302.933l-2.515 5.563M312.391 401.364l2.92 1.15M312.391 401.364l2.799-5.683M312.391 401.364l-2.512 5.492" clip-path="url(#p82aa343934)" style="fill:none;stroke:#000"/><path d="m325.56 386.892 2.21-4.61.241-.297.234-.12.248-.02.352.04 1.595.571 1.768.7M334.083 379.207l-.732 1.449-1.143 2.5M344.272 387.885l-2.418 5.32M322.945 385.837l1.363.53 1.252.525M312.835 408.096l2.477-5.583M312.835 408.096l2.805 1.128M312.835 408.096l-2.956-1.24M320.799 398.012l-2.586 5.652M389.146 305.228l-2.54 5.575M389.146 305.228l6.232 2.551M395.378 307.78l6.186 2.442M393.507 311.684l.063-.13 1.337-2.792.471-.983M372.87 294.367l-3.989-1.545M399.03 315.766l1.558-3.495.976-2.049M315.64 409.224l4.087 1.625M315.64 409.224l2.573-5.56M318.213 403.664l-2.901-1.15M325.725 413.152l-5.38-2.093-.618-.21" clip-path="url(#p82aa343934)" style="fill:none;stroke:#000"/><path d="m320.504 391.498 1.29-3.16 1.151-2.501M331.735 415.307l-6.01-2.155M374.741 306.117l1.7-3.78.856-1.763M346.839 340.675l-2.615 5.56M346.839 340.675l4.166 1.771M351.005 342.446l5.874 2.376M348.375 347.954l1.782-3.73.848-1.778M404.217 350.502l2.565-5.59M408.698 352.256l-2.334-.872-2.147-.882M398.201 348.16l3.663 1.428 2.353.914M331.736 321.797l1.283.528M356.88 344.822l5.967 2.402M354.37 350.373l1.698-3.794.811-1.757M398.201 348.16l-5.98-2.368M398.201 348.16l2.651-5.524M373.942 338.431l2.443-5.426M373.942 338.431l5.901 2.407M367.987 336.14l3.1 1.19 2.855 1.101M398.144 367.684l-1.538-.59M392.221 345.792l2.553-5.487M392.221 345.792l-5.844-2.4M360.402 352.696l-6.032-2.323M360.402 352.696l5.974 2.372M362.847 347.224l-1.23 2.778-1.215 2.694M357.743 358.278l1.448-2.99 1.211-2.592M393.079 359.296l-5.898-2.436M401.152 362.54l-4.544-1.835-3.53-1.409" clip-path="url(#p82aa343934)" style="fill:none;stroke:#000"/><path d="m390.576 364.78 1.255-2.739 1.248-2.745M375.357 352.151l-.57-.236M381.25 354.504l-2.73-1.09-3.163-1.263M375.357 352.151l-2.509 5.615M366.376 355.068l5.842 2.44M368.881 349.523l-.845 1.924-1.66 3.62M363.803 360.697l1.397-3.095 1.176-2.534M354.37 350.373l-5.995-2.42M351.867 355.943l1.775-3.978.728-1.592M387.181 356.86l-5.93-2.356M384.642 362.378l1.883-4.14.656-1.378M367.987 336.14l-5.917-2.388M370.49 330.58l-1.221 2.674-1.282 2.885M384.642 362.378l-5.982-2.307M384.642 362.378l5.934 2.402M382.135 367.854l1.547-3.422.96-2.054M390.576 364.78l6.03 2.314M390.576 364.78l-2.515 5.517M348.375 347.954l-4.151-1.72M345.943 353.578l1.511-3.584.92-2.04M388.866 337.847l-.814 1.834-1.675 3.71M380.445 341.095l3.445 1.34 2.487.957M368.881 349.523l5.906 2.392M362.847 347.224l3.053 1.177 2.981 1.122M372.848 357.766l-.63-.259M378.66 360.071l-2.183-.847-3.629-1.458M378.66 360.071l-2.423 5.382" clip-path="url(#p82aa343934)" style="fill:none;stroke:#000"/><path d="m381.25 354.504-.759 1.652-1.831 3.915M355.985 331.291l2.502-5.428M355.985 331.291l-4.212-1.569M362.07 333.752l-3.175-1.272-2.91-1.189M362.07 333.752l2.483-5.538M380.445 341.095l2.526-5.588M380.445 341.095l-.602-.257M394.774 340.305l2.605-5.531M394.774 340.305l6.078 2.331M394.774 340.305l-5.908-2.458M364.553 328.214l2.619-5.56M364.553 328.214l5.938 2.366M364.553 328.214l-6.066-2.35M400.852 342.636l5.93 2.275M400.852 342.636l2.523-5.602M391.435 332.365l-.851 1.878-1.718 3.604M382.97 335.507l2.954 1.172 2.942 1.168M382.97 335.507l2.568-5.461M382.97 335.507l-.605-.214M376.385 333.005l2.55-5.59M376.385 333.005l-5.894-2.425M382.365 335.293l-2.746-1.031-3.234-1.257M370.49 330.58l2.548-5.5M406.782 344.911l2.495-5.45M406.782 344.911l4.462 1.708M358.487 325.863l2.537-5.62M358.487 325.863l-4.115-1.67M363.613 314.714l-2.59 5.528M363.613 314.714l6.034 2.432M359.46 313.082l2.492.939 1.66.693M388.125 324.455l-.582-.202M394.019 326.754l-2.992-1.151-2.902-1.148M388.125 324.455l-2.587 5.59M373.038 325.08l2.52-5.564M378.936 327.415l-5.105-2.03-.793-.305M367.172 322.654l3.65 1.527 2.216.899M403.375 337.034l-5.996-2.26M403.375 337.034l2.553-5.648M409.277 339.461l-2.525-1.046-3.377-1.381M391.435 332.365l1.478-3.247 1.106-2.364M399.954 329.138l-2.67-1.068-3.265-1.316M367.172 322.654l-2.769-1.086-3.38-1.326M356.947 318.647l1.92.732 2.157.863M356.947 318.647l-2.575 5.545M359.46 313.082l-1.189 2.675-1.324 2.89M367.172 322.654l2.475-5.508M369.647 317.146l5.91 2.37M381.475 321.893l-2.54 5.522M387.543 324.253l-4.883-1.917-1.185-.443M375.557 319.516l1.056.421 4.862 1.956M385.538 330.046l5.897 2.32M385.538 330.046l-.664-.266M411.92 333.757l-3.03-1.155-2.962-1.216M399.954 329.138l3.13 1.148 2.844 1.1M359.46 313.082l.534-1.137M353.604 310.677l2.968 1.235 2.889 1.17" clip-path="url(#p82aa343934)" style="fill:none;stroke:#000"/><path d="m397.38 334.774-5.16-2.076-.785-.333M397.38 334.774l2.574-5.636M409.277 339.461l2.644-5.704M409.277 339.461l4.553 1.67M384.874 329.78l-5.155-2.05-.783-.315M411.92 333.757l4.423 1.71M357.516 358.767l6.053 2.413M357.516 358.767l.227-.49M357.516 358.767l-5.877-2.343M351.64 356.424l.227-.481M351.64 356.424l-5.927-2.353M345.943 353.578l-.072.164-.158.33M345.713 354.071l-.498-.556M367.806 362.1l-.12.19-.1.198-.079.207M367.806 362.1l-.512-.2-3.49-1.203M370.545 361.164l-.512-.084-.52.017-.504.118-.466.214-.407.3-.33.372M345.943 353.578l-.728-.063M351.867 355.943l-2.705-1.099-3.219-1.266M363.803 360.697l-.234.483M363.803 360.697l-6.06-2.42M357.743 358.278l-5.876-2.335M367.507 362.695l-.098.502.026.51.15.493.264.449.365.383.45.298M363.57 361.18l3.506 1.336.431.179M381.853 368.456l.282-.602M381.853 368.456l3.697 1.509 2.279.855M381.853 368.456l-5.903-2.384M382.135 367.854l-3.091-1.233-2.807-1.168M388.06 370.297l-2.287-.954-3.638-1.49M396.606 367.094l-.296.606-.58 1.146-.971 2.137-.792 1.739M393.795 373.114l.1-.214.072-.178M393.967 372.722l-2.396-.967-3.51-1.458M393.967 372.722l.51.401M388.06 370.297l-.231.523M393.795 373.114l.682.01M387.829 370.82l3.522 1.36 2.444.934M375.95 366.072l.287-.62M418.246 320.048l-1.259 2.702M418.246 320.048l-5.934-2.332M380.61 308.496l5.06 1.95.935.357M392.547 313.137l-.98-.386-4.962-1.948M374.741 306.117l-6.062-2.452M380.61 308.496l-.64-.28-5.229-2.099M411.077 320.437l5.91 2.313M411.077 320.437l-6.102-2.43M411.077 320.437l1.235-2.721M404.975 318.008l-5.944-2.242M393.127 313.355l2.923 1.204 2.98 1.207M364.577 301.995l2.395.982 1.707.688M416.987 322.75l4.494 1.858M393.507 311.684l-.96 1.453M393.507 311.684l-.38 1.671M312.632 483.94l-36.275 76.922-17.132 36.693M259.225 597.555l-.729 1.196-1.62 2.953-.475.965" clip-path="url(#p82aa343934)" style="fill:none;stroke:#000"/><path d="m258.89 602.883-.06-.787-.185-.842-.086-.551-.05-.38-.008-.27.021-.238.067-.336.09-.317.546-1.607M256.4 602.67l-.326.578-.288.558-.511 1.233M258.89 602.883l-.302-.278-.24-.155-.247-.103-.25-.045-.254-.028-.252-.005-.247.053-.331.147-.366.2M255.275 605.039l.027.419.081.359.148.306.359.304.385.173.362.084.326.002M257.485 606.352l.248-.167.396-.389.276-.397.183-.336.203-.555.119-.43.081-.516-.007-.398M256.963 606.686l.234-.16.288-.174M258.89 602.883l.094.281M353.604 310.677l.532-1.123M348.566 321.84l1.716-3.788.79-1.824 2.532-5.55M353.604 310.677l-1.93-.75M354.136 309.554l-2.059-.796M359.994 311.945l-2.805-1.135-3.053-1.256M352.077 308.758l-.404 1.168M352.077 308.758l-1.204-.517-.237-.02-.248.007-.208.089-.176.175-.078.168-.048.197.03.232.108.141.198.111 1.46.585" clip-path="url(#p82aa343934)" style="fill:none;stroke:#000"/><path d="m351.17 302.785.295 1.896.396 2.688.216 1.39M343.366 319.736l2.873-6.36.388-.56.578-.477 1.113-.594 1.33-.593 1.154-.656.467-.284.404-.286M379.735 415.43l3.236 1.293M382.971 416.723l-2.347 5.071M390.06 318.684l-2.517 5.57M390.06 318.684l2.487-5.547M387.543 324.253l-1.665 3.492-1.004 2.035M384.874 329.78l-2.51 5.513M382.365 335.293l-.43.954-1.521 3.432-.57 1.159M379.843 340.838l-2.023 4.432-.494 1.06M377.326 346.33l-2.539 5.585M374.787 351.915l-2.569 5.592M372.218 357.507l-.752 1.702-.92 1.955M367.012 369.105l-1.395 3.255-1.054 2.27M368.664 365.33l-.259.615-1.001 2.317-.392.843M364.563 374.63l-.508 1.175-.911 2.105-1.003 2.21M362.141 380.12l-1.874 4.305-.64 1.423M359.627 385.848l-.605 1.325M359.022 387.173l-.858 1.83-1.717 3.626M356.447 392.629l-.944 1.982-1.599 3.436M353.777 398.72l.127-.673M481.624 120.476l-5.498 11.935-6.138 13.325-12.451 27.121-5.382 11.554-2.163 4.699-9.11 19.769-4.742 10.3-3.243 7.091-4.978 10.803-3.127 6.808" clip-path="url(#p82aa343934)" style="fill:none;stroke:#000"/><path d="m390.784 229.19 10.476 4.57 15.199 6.533 4.686 2.118 1.808.743 1.84.727M128.4 197.617l-3.953 8.718-3.863 8.607-3.927 8.637-3.955 8.506-5.866 12.973-6.105 12.807M249.812 174.003l-19.65-7.576-29.677-11.47-16.834-6.425-4.791-1.767-11.54-4.556-11.518-4.625M128.4 197.617l.522-1.137 3.662-8.261 2.167-4.762 2.376-5.224 2.45-5.273 3.512-7.302 3.179-6.836 9.534-21.238M392.547 313.137l.58.218M431.996 316.965l-1.308-.416M431.996 316.965l2.727 1.017M436.01 315.236l-1.983.796-2.031.933M431.346 331.708l.415-8.847.217-4.584.018-1.312M436.01 315.236l-.33.75-.957 1.996M488.33 347.802l.561-.976.313-.495.246-.4.06-.317-.046-.246-.104-.194-.158-.172-.284-.23-.894-.82-.373-.325-.788-.76-1.08-1.305-1.08-1.564-.611-.916-.472-.588-.464-.404-.848-.501-.963-.547-1.664-.733-2.16-.944-2.976-1.24-6.855-2.839-3.24-1.26-5.573-2.418-5.39-2.322-7.99-3.227-1.863-.672-4.215-1.662-2.39-.885-2.306-.858M442.05 312.91l-2.26.804-2.658.978-1.121.544M425.716 315.01l-1.172 2.72M430.688 316.55l-2.821-.945-2.151-.595M406.126 357.956l1.104-2.313M406.126 357.956l-.468 1.015M419.982 356.733l-4.933-1.997M423.03 349.9l-4.837-1.941M411.883 345.444l-.639 1.175M411.883 345.444l1.573-3.374M411.883 345.444l6.31 2.515M410.273 348.841l-1.575 3.415M410.273 348.841l.971-2.222M416.655 351.273l-3.523-1.342-2.859-1.09M421.457 353.262l-4.802-1.989M407.23 355.643l1.468-3.387M407.23 355.643l6.282 2.446M418.43 360.023l-4.918-1.934M413.512 358.09l1.537-3.354M413.512 358.09l-1.551 3.341M405.658 358.971l6.303 2.46M405.658 358.971l-.64 1.388M411.142 363.156l.402-.827.417-.898M425.85 331.43l4.037 1.564M424.348 334.613l.924-1.974.578-1.209M419.502 328.95l2.77 1.118 3.578 1.362M419.502 328.95l-.628 1.17M419.502 328.95l1.47-3.104M417.957 332.208l-1.614 3.259M417.957 332.208l.917-2.088M417.957 332.208l6.391 2.405M416.343 335.467l6.452 2.449M416.343 335.467l-1.392 3.253M427.843 339.917l-5.048-2.001M414.951 338.72l-1.12 2.41M414.951 338.72l6.318 2.503M426.38 343.26l-5.11-2.037M413.456 342.07l.374-.94M419.762 344.542l-3.06-1.201-3.246-1.27M424.792 346.54l-5.03-1.998M421.481 324.608l-.51 1.238M421.481 324.608l.704-1.529M430.688 316.55l-.14 3.3M429.887 332.994l.164-3.697M424.348 334.613l3.951 1.486.502.1.332-.041.204-.074.172-.157.14-.277.062-.378.176-2.278M423.42 320.385l.656-1.547.468-1.107" clip-path="url(#p82aa343934)" style="fill:none;stroke:#000"/><path d="m430.548 319.85-2.795-.963-3.209-1.156M430.548 319.85l-.186 3.122M423.42 320.385l-1.235 2.694M430.362 322.972l-3.11-1.123-3.831-1.464M430.362 322.972l-.162 3.16M430.2 326.133l-3.94-1.499-4.075-1.555M430.2 326.133l-.15 3.164M430.05 329.297l-4.68-1.722-4.398-1.729M424.348 334.613l-1.553 3.303M422.795 337.916l-1.526 3.307M421.27 341.223l-1.508 3.319M419.762 344.542l-1.57 3.417M418.193 347.959l-1.538 3.314M416.655 351.273l-1.606 3.463M415.049 354.736l-6.351-2.48M418.846 382.952l-1.084-.392M457.331 398.06l-11.986-4.785-2.717-1.001-2.097-.75-2.236-.592-1.577-.279-.482-.146-.264-.16-.252-.238-.448-.475-.387-.32-.532-.382-.936-.417-5.494-2.122-5.766-2.114-3.31-1.327M420.394 379.877l-.356.802-.582 1.214-.61 1.059M394.477 373.123l4.436 1.749 5.862 2.335 12.987 5.353M416.219 387.086l.196-.793.8-2.404.547-1.329M368.881 292.822l-5.76-2.359-4.134-1.696-1.34-.533-.516-.225-.45-.233-.461-.34-.46-.35-.836-.597-.712-.44-1.335-.565-2.4-.983-11.68-4.47-3.335-1.33M289.018 260.54l8.762 3.366 12.535 4.872 8.937 3.575 7.666 2.987 2.007.761 6.537 2.6M357.027 215.715l-.868 1.974-1.707 3.723-3.057 6.535-2.3 5.159-1.162 2.505-.627 1.393-1.003 2.172-2.603 5.572-.783 1.737-.077.267.006.216.098.214.128.182h.001l.217.148 1.989.805 2.82 1.119.415.244.186.253.044.187-.022.273-.264.618-1.491 3.123-2.012 4.381-2.449 5.26-3.64 7.652-3.404 7.273M249.812 174.003l14.155 5.52 19.242 7.55 21.408 8.274 18.21 7.173 14.419 5.501 19.781 7.694M390.784 229.19l-3.283-1.408-3.287-1.342-14.29-5.642-12.897-5.083M404.279 199.57l-1.607 3.622-2.124 4.67-1.69 3.771-3.164 7.047-4.91 10.51M215.528 231.738l.962-2.152 2.36-5.25 2.336-5.131 1.943-4.355 1.312-3.089 1.747-3.803 1.92-4.166.238-.43.165-.123.274-.104.278.019.32.103 3.53 1.422 1.688.691.26.028.222-.065.156-.126.158-.247 2.071-4.466 2.443-5.365 3.429-7.274 3.269-7.044 2.203-4.638 1-2.17M289.018 260.54l-3.202-1.17-3.637-1.402-6.832-2.67-6.205-2.51-8.292-3.308-9.623-3.808-5.254-2.022-3.915-1.486-5.227-2.064-7.768-2.983-4.642-1.752-5.095-2.033-3.798-1.594M138.894 202.095l59.95 23.221 3.16 1.235 8.943 3.422 4.58 1.765M128.4 197.617l10.494 4.478M152.335 179.183l-.09.71-.174.622-2.905 5.966-2.42 5.64-.419.46-.448.267-.643.144-1.192.207-.864.133-.731.167-.556.332-.38.614-.44 1.176-2.179 6.474M458.047 423.59l-6.23-.089-.33-.156-.176-.289-.072-.414.01-.31.882-3.072.632-2.464 4.568-18.735" clip-path="url(#p82aa343934)" style="fill:none;stroke:#000"/><path d="m637.27 469.525-28.365-11.178-40.402-16.13-21.608-8.59-22.297-8.922-22.336-8.923-1.048-.429-10.42-3.97-11.245-4.376-22.218-8.946M339.121 318.092l4.245 1.644M339.121 318.092l-3.45-1.353M336.507 323.774l1.53-3.268 1.084-2.414M343.394 308.82l-2.177 4.652-2.096 4.62M347.922 298.88l-3.554-1.467M351.17 302.785l-.179-.897-.454-1.318-.343-.502-.688-.486-1.584-.701M345.037 305.162l1.514-3.346 1.371-2.935M336.263 294.258l4.582 1.769M289.018 260.54l-.648 1.365-.387 1.394.004.318.078.266.182.253.324.176 4.354 1.626 11.305 4.481 9.424 3.727 7.281 2.898 12.932 5.094 6.078 2.318.35.233.142.248.026.227-.016.244-.146.333-1.28 2.453-1.695 3.696-1.063 2.368" clip-path="url(#p82aa343934)" style="fill:none;stroke:#000"/><path d="m334.87 297.203.52-1.047.465-.946.408-.952M344.368 297.413l-3.523-1.386M344.368 297.413l-2.805 6.304M332.124 315.335l1.811.666 1.736.738M333.02 322.325l1.295-2.76 1.356-2.826M339.853 307.454l-2.015 4.38-2.167 4.905M333.02 322.325l3.487 1.45M328.133 333.364l.324-.753 1.847-4.32 2.715-5.966M328.133 333.364l3.329 1.33M326.621 332.76l.836.334.676.27M332.868 335.317l-1.406-.623M336.507 323.774l-2.476 5.379-2.57 5.541M345.831 327.346l-4.554-1.782-4.77-1.79M345.037 305.162l-3.474-1.445M345.037 305.162l-1.643 3.658M341.563 303.717l-1.71 3.737M341.563 303.717l-3.577-1.398M334.87 297.203l4.661 1.848M337.986 302.319l-4.815-1.954 1.7-3.162M339.531 299.05l-1.545 3.269M339.531 299.05l1.314-3.023" clip-path="url(#p82aa343934)" style="fill:none;stroke:#000"/><path d="m336.496 305.532.744-1.579.746-1.634M332.124 315.335l1.38-3.23M327.826 313.712l2.09.808 2.208.815M333.503 312.104l1.54-3.264M333.503 312.104l-4.398-1.748M335.043 308.84l1.453-3.308M335.043 308.84l-4.41-1.768M324.258 416.317l1.467-3.165M343.366 319.736l5.2 2.105M336.496 305.532l-2.203-.854-2.104-.836M339.853 307.454l3.541 1.366M347.176 425.496l-1.857 3.639M344.426 430.884l.893-1.75M347.954 430.316l-2.635-1.181M347.954 430.316l1.861-3.683M347.954 430.316l2.82 1.307M349.815 426.633l2.73 1.207M361.453 420.82l-1.218 2.82M351.773 329.722l-.69 1.431-.726 1.542" clip-path="url(#p82aa343934)" style="fill:none;stroke:#000"/><path d="m345.831 327.346-1.133 2.29-.058.271.041.21.09.18.107.104 2.26 1 3.22 1.294M366.343 298.16l-.059.122-1.707 3.713M348.566 321.84l5.806 2.352M345.831 327.346l.124-.27 1.898-3.8.713-1.435M351.773 329.722l.128-.277 1.276-2.765.504-1.05.691-1.438M351.773 329.722l-5.942-2.376M366.457 297.918l-.114.241M366.457 297.918l-1.822-.7M364.635 297.217l-.11.247M362.914 296.414l1.38.51.207.116.134.177M362.914 296.414l-.257.575" clip-path="url(#p82aa343934)" style="fill:none;stroke:#000"/><path d="m359.09 295.543.06-.262.13-.219.22-.18.27-.072.3-.022.325.047 2.27.764.212.103.107.128.04.198-.024.19-.086.196M362.657 296.99l-.103.173-.102.077M359.26 296.041l.192.19.306.151 1.883.723.359.134.225.04.227-.04M362.214 300.314l-.221.3-.144.133-.169.033-.1-.084-.071-.185.01-.235 1.212-2.79-.28-.246M364.526 297.464l-.1.066-.109.035-.151-.001-1.51-.575M364.526 297.464l1.817.695M359.26 296.041l-.795 1.658M359.09 295.543l.05.273.12.225M359.09 295.543l-2.225-.87M356.865 294.673l-.12.234M355.861 293.274l1.04.888.065.09.03.085-.006.088-.125.248M355.47 297.385l1.275-2.478M356.745 294.907l-3.4-1.357M363.37 391.053l-.254.103-.145.211-.582 1.035-.27.321-.231.232-.232.143h-.367l-1.698-.678-.637-.696-.212-.41.019-.447.193-.446.25-.25 1.1-.57" clip-path="url(#p82aa343934)" style="fill:none;stroke:#000"/><path d="m363.37 391.053-.65-.438-.621-.27-.269-.025-.879-.01-.336-.049-.27-.202-.117-.23.076-.228M364.169 391.393l-.798-.34M355.07 428.969l-1.772 3.823M350.135 439.613l3.163-6.821M353.298 432.792l-2.523-1.17M352.545 427.84l-1.77 3.783" clip-path="url(#p82aa343934)" style="fill:none;stroke:#000"/></g><g id="PatchCollection_1"><path d="m355.09 388.209-.511-.118-.352.059-.544.266-.256.266-.16.355-.32.09h-.384l-.512-.179-.288.207-.192.207-.192.237-.32.178-.287.088-.288.207-.64.384-.512.178-.415.177-.416-.089h-.288l-.288.09-.32.177-.416.03-.16-1.272-.192-.326-.064-.384.128-.296.416-.62-.224-.888.096-.414.224-.295.256-.267-.544-.828.16-.236.224-.06.243-.148.013-.354-.064-.355.224-.473.223-.384.225-.296.064-.325.128-.267-.417-.384.193-.857.255-.237.148.117-.243-.443.383-.073.417.131.434.268.48.364.3.417.065.258.115.26.48-.059.204-.264.148-.268.255-.088.27.149.415.414.384.325.512.325.576.296 2.59.976.193.118.064.266-.224.444-.096.237.288.266.383.265 1.46.62-.115.268-.544.089-1.12.088-1.088-.088zm1.568-1.804.128-.295-.608-.237-.16.266zM331.783 371.07l.093-.105.127.03.004.106.064.088.14.028.164-.072.044.116.1.105.38.102.08.059.112-.177.116.12.096.06.112.03.096-.09.128-.074.127-.251.176.414.192.133.14.057.244.046.268.013.208-.044.18-.057.128-.089.128.015.176.06.06.07.128.09.28.1.106.18.146.15.331.042v.074l-.043.092-.128.029-.224-.044-.176.015-.208.25-.08.12-.016.147.028.13-.08.178.196-.057-.116.16.084.15.076.102.068.15.028.234-.272-.207-.224-.148-.352-.073-.108-.131.108-.106.18-.249.236-.12.272-.563-.128-.177.02-.145-.18-.12-.252-.058-.036.131.004.106.064.089.096.207-.208-.133-.244.13-.236.106-.192.03-.255-.163-.197-.077-.427-.1-.128-.148h-.224l-.176.014-.192-.044-.176-.074-.064-.148-.032-.118-.24-.104-.16.045-.303-.207-.272-.045-.145-.103.016-.163-.176-.148-.26-.076-.143-.059.115-.145-.143-.133-.128-.193v-.133h.128l.108.116.115.047.092.012.048.133-.06.166.124.1zM409.263 396.182l-.48-.192-.208-.4.272-.176.496-.385.656-.03.592-.059.416.089-.209.385-.32.266-.063.25z" clip-path="url(#p82aa343934)" style="fill:#00f;fill-opacity:.8"/></g><path id="PatchCollection_2" d="m466.068 292.535-3.207-.868-.782-1.085-1.643-.65-1.174-.58-2.893-3.398-.86-2.025.703-1.446 1.486-1.953 1.408-.94 1.721-.94 1.173-.362 9.309 2.82-.939 3.544z" clip-path="url(#p82aa343934)" style="fill:#006400;fill-opacity:.8"/><g id="PatchCollection_3"><path d="m367.744 362.925.136-.383.218-.35.289-.3.35-.243.394-.171.424-.095.435-.014.43.067.407.146.366.218.312.283.243.334.166.373.08.396-.006.403-.095.394-.178.368-.255.327-.32.273-.374.208-.411.134-.432.055-.435-.027-.42-.107-.39-.183-.34-.252-.278-.31-.206-.356-.124-.386-.038-.401zM391.716 331.5l-.2.437-.152.022-.224-.074-5.055-2.085-.08-.089.064-.163 2.215-4.739.096-.044.176.044 5.127 2.012.096.066-.008.11zM348.174 379.743l11.67 4.552-6.44 12.832-11.01-3.992zM347.853 323.276l5.828 2.354-1.78 3.815-5.946-2.37zM355.4 287.705l-3.982 9.29 12.84 4.933 4.215-8.909zM344.72 310.418l2.01.908 4.051-8.63-.436-1.86-.97-.336z" clip-path="url(#p82aa343934)" style="fill:green;fill-opacity:.8"/></g><g id="PatchCollection_4"><path d="m370.587 415.143 2.622-5.767 4.191 1.775-2.43 5.796zM361.827 307.662l-1.87 3.859-5.39-2.011 1.742-4.126z" clip-path="url(#p82aa343934)" style="fill:#90ee90;fill-opacity:.8"/></g><g id="PatchCollection_5"><path d="m360.897 390.362.898.027.637.602v.843l-.637.642h-.941l-.594-.628v-.897zM414.825 388.382l-.124-.573 1.996-.366.123.573zM416.98 387.873l-.276-.6 1.547-.606.198.431-.469.184.016.192zM421.465 386.448l.261-.417-.763-.409-.262.417zM417.682 385.849l-.532-.096.144-.68.532.095z" clip-path="url(#p82aa343934)" style="fill:#a9a9a9;fill-opacity:.8"/></g></g></g><defs><clipPath id="p82aa343934"><path d="M90 110.751h558v505.698H90z"/></clipPath></defs></svg>