<svg xmlns="http://www.w3.org/2000/svg" width="960" height="960" viewBox="0 0 720 720"><defs><style>*{stroke-linejoin:round;stroke-linecap:butt}</style></defs><g id="figure_1"><path id="patch_1" d="M0 720h720V0H0z" style="fill:#fff"/><g id="axes_1"><path id="patch_2" d="M162.048 640.8h413.904V86.4H162.048z" style="fill:#fff"/><g id="LineCollection_1"><path d="m451.528 302.282-.831 3.526M451.528 302.282l.1-.903M459.095 303.189l-2.978-.39-4.59-.517M446.142 284.49l-.873-1.572-4.203-8.54-1.208-2.809-.184-1.763.277-.953 6.14-9.686 1.125-1.963.52-1.187.604-1.847 2.625-9.377.26-1.345.084-1.003-.436-3.276-.906-4.078-3.875-16.556-1.032-3.978-1.427-6.084-.62-1.53-.487-1.07-1.107-1.905-4.245-6.342-1.812-2.616-1.577-1.83-2.282-1.99-2.634-1.98-7.122-5.316-10.453-7.613-1.67-1.412-1.477-1.58-1.685-2.04-28.43-36.311-13.432-17.3-.78-1.12-.697-1.805-.335-1.53v-2.841l.327-8.29-.42-3.47-.327-1.52M439.942 366.898l1.43 6.606.032.725" clip-path="url(#pbae8ece65d)" style="fill:none;stroke:#000"/><path d="m450.664 374.16-1.56.426-2.92-.109-3.507.025-1.273-.273" clip-path="url(#pbae8ece65d)" style="fill:none;stroke:#000"/><path d="m434.284 380.527 2.353-.898.906-.455 1.141-1.22 1.686-2.282 1.034-1.443M377.549 370.629l.675-2.027.47-1.938M379.794 352.994l.107 1.327.462 2.423.294 2.214-.009 1.513-.142.593-1.024 2.75-.788 2.85" clip-path="url(#pbae8ece65d)" style="fill:none;stroke:#000"/><path d="m386.87 371.054-6.557-3.53-1.62-.86M373.644 343.197l-1.259-1.688-1.031-1.63-.911-1.922-.486-1.437-.302-.393-.546-.288-3.31-.748-1.3-.443-1.065-.535-.897-.652-1.066-.868-1.082-1.154-2.726-3.744-2.66-1.696-1.51-1.22-1.946-2.232-.97-1.358-.12-.831.045-.635 1.095-4.663-.025-.87-1.796-5.557-.628-1.429-1.401-2.407-.31-.702-.236-1.638.143-1.112.344-1.453.394-1.12.856-.978 2.45-2.04 1.683-1.202 1.806-1.112 1.082-.903 1.242-1.203.151-.618-.017-.786-.285-2.106-.487-1.237-.654-1.329-1.2-1.805-.99-.96-.99-.761-.872-.92-.15-.409-.173-2.014-2.152-7.572-.916-4.036M393.152 395.03l.709.352M383.97 394.559l4.405.067 2.034.054.885.02.856.097 1.002.234M392.865 397.642l-.031-.56.067-.81.08-.481.171-.76M395.95 388.567l-.539-.071-.183.019-.146.064-.1.117-.097.19-.176.91-.185.843-.747 2.624-.625 1.768M402.707 386.051l-.583.23M405.367 384.71l-1.322.63-1.338.711M405.352 391.043l-.526-.763-.42-.744-.847-1.813-.852-1.672M402.326 377.811l.26 4.363.017 2.632.104 1.245" clip-path="url(#pbae8ece65d)" style="fill:none;stroke:#000"/><path d="m390.707 408.924-2.106-.502-2.609-.718-1.418-.543-.402-.234-.155-.234-.097-.318-.025-.51.193-1.487.067-1.713-.11-3.335-.066-2.582-.008-2.19" clip-path="url(#pbae8ece65d)" style="fill:none;stroke:#000"/><path d="m383.563 387.3.19 2.788.1 2.055.118 2.416M324.11 384.054l4.635 5.448M333.284 375.417l-.83.715-4.472 4.387-2.609 2.682-1.263.853M403.538 398.9l.605-3.284M396.327 397.24l3.885.904 3.326.755M402.54 408.389l.168-1.679.112-3.67.336-2.222.382-1.919M390.645 413.671l6.342-2.715M390.707 408.924l-.294 2.858.009 1.02.223.87" clip-path="url(#pbae8ece65d)" style="fill:none;stroke:#000"/><path d="m392.125 416.58-1.275-2.375-.205-.534M377.549 370.629l.46.207M355.808 369.162l4.295-.685 2.87-.318 3.187-.175 1.695.1 2.282.41 3.456.877 3.956 1.258M412.818 386.274l4.189 4.922M412.818 386.274l-1.767-4.443M408.374 388.368l.864-.366 1.393-.63 1.36-.702.827-.396M415.85 381.046l.016 1.22.05 1.002-.093.435-.284.493-.89.844-1.83 1.234M414.939 369.572l-.206-1.99-.505-2.81-2.289-10.092-.402-.886-1.384-2.248-2.366-4.195-1.158-2.34-1.124-2.015-3.47-5.824-.66-1.3M396.327 397.24l-1.111-.922M400.64 406.2l-1.351-2.917-1.032-2.356-.722-1.822-.52-.895-.688-.97M393.979 378.296l-3.297-1.295M393.979 378.296l-.903-5.325M396.093 378.4l-1.057.013-1.057-.117M379.794 352.994l9.674-1.044M373.644 343.197l2.466 3.142 2.281 3.11.647 1.345.756 2.2M468.893 365.218l2.016 4.168M450.664 374.16l5.428-3.753 3.153-1.646 2.543-1.02 1.233-.276 1.896-.25 1.283-.51 2.693-1.487M492.798 348.888l-2.94 2.098-5.068 2.624-5.663 3.46-2.516 1.863-2.164 1.947-3.062 2.59-2.492 1.748M470.909 369.386l1.978 2.438M470.909 369.386l3.067-1.455M470.909 369.386l-2.6 1.106M476.359 376.194l-1.348-1.69M470.117 373.172l2.77-1.348M472.887 371.824l2.124 2.68M472.887 371.824l3.482-1.65M472.295 375.929l2.716-1.425M475.011 374.504l3.122-1.7M453.715 380.16l-2.372-4.73-.68-1.27M457.954 385.258l-1.845-1.678M465.062 390.04l-2.388-1.973-2.782-1.498-1.938-1.311M454.396 391.24l.663-1.203 1.04-1.771 1.133-2.023.722-.985M468.273 392.941l1.545 1.689M468.273 392.941l-.641-.64M468.273 392.941l-2.766 2.66M472.546 397.372l-.362-.342M472.546 397.372l-2.74 2.81M540.351 473.538l.52-1.847.134-.977-.05-1.237-1.779-5.156-.763-3.502-.713-2.707-1.174-2.942-.416-.794-.922-1.099-.55-.572-1.12-.928-.822-1.032-1.036-1.759-1.141-2.123-.755-2.598-.805-2.131-.445-.543-2.475-2.416-1.3-1.495-.63-1.07-.494-.978-.822-2.173-.327-1.228-.747-4.571-.202-.552-.494-.785-1.058-1.254-.419-.443-1.92-.978-1.855-1.662-1.015-.318-3.683-.794-2.064-.902-2.55-1.588-2.18-1.521-1.494-.785-1.41-.586-6.392-2.256-3.205-1.488-3.028-2.047-4.002-2.498-3.54-2.408-4.692-3.69-2.176-1.873-1.794-1.86M467.915 402.004l1.89-1.821M470.251 395.082l1.933 1.948M470.251 395.082l-.433-.452M470.251 395.082l-2.683 2.572M465.386 399.697l2.182-2.043M463.361 397.598l2.146-1.998M466.154 390.958l1.478 1.344M466.154 390.958l-1.092-.918M466.154 390.958l-2.542 2.463M463.612 393.42l1.895 2.18M454.396 391.24l.999.711 2.24 1.596 2.215 1.751.73.519.23.053.31-.033.26-.18.307-.309 1.925-1.927M465.507 395.6l2.06 2.054M467.568 397.654l2.237 2.529M469.805 400.183l2.133 2.231M451.25 389.686l-2.256-.91-2.223-1.036-2.718-1.229-2.39-1.086-1.444-.62-1.971-.743-1.297-.505-.477-.184-.588-.426-.474-.51-.47-.631-.46-.723-.198-.556" clip-path="url(#pbae8ece65d)" style="fill:none;stroke:#000"/><path d="m430.807 379.951 1.145.957.514.207.47-.05 1.348-.538M456.109 383.58l-2.394-3.42M451.25 389.686l1.494-1.88 2.122-2.657 1.243-1.569M454.396 391.24l-1.434-.66-1.711-.894M445.587 386.001l.605-.685.881-.802 1.241-.753 1.662-.986 1.694-1.153 1.1-.777.945-.684M424.662 374.828l-.281-.296-.11-.063-.26-.076-.926-.054-1.72-.088M425.34 375.233l-.317-.271-.361-.134" clip-path="url(#pbae8ece65d)" style="fill:none;stroke:#000"/><path d="M421.304 374.907h2.586l.369-.008.403-.071M429.825 367.658l-1.502 2.365-2.03 3.535-.704 1.2-.248.475M415.85 381.046l.754-.226 1.15-.234 1.543-.418 1.996-.51.789-.2.595-.384.596-.61.621-.82.923-1.379.524-1.032" clip-path="url(#pbae8ece65d)" style="fill:none;stroke:#000"/><path d="m428.139 377.51-2.164-1.884-.634-.393M415.394 374.862l-.51.212M415.394 374.862l.036.207M414.939 369.572l.293 4.717.162.573M417.602 374.338l-1.418.298-.79.226M438.806 362.098l1.136 4.8M438.806 362.098l-3.655.822M449.346 312.243l-7.382 31.497-1.77 8.24-1.334 5.449-.193 1.312-.042 1.279.18 2.078M435.683 366.912l.325-.04 1.652-.116h1.268l1.014.142M434.456 367.06l-2.458.355M434.456 367.06l1.227-.148M434.31 369.532l.07-1.28.034-.502.042-.69M429.825 367.658l2.173-.243M414.939 369.572l1.614-.251 2.593-.326 1.837-.209 1.502-.242 1.241-.293 2.382-.309 2.056-.159 1.661-.125M435.151 362.92l-.324.073-1.285.274-.662.239-.63.333-.345.46-1.325 2.248-.755 1.111M403.106 371.693l3.037-.642 1.971-.276 2.576-.577 2.063-.334 2.186-.292M393.076 372.971l-2.203.19M393.076 372.971l.804-.049M396.093 378.4l.126.89M396.093 378.4l6.233-.589M396.65 386.068l-.7 2.499M396.65 386.068l3.205.121M396.219 379.29l.251 1.38.288 1.97.092 1.597-.05 1.043-.15.788" clip-path="url(#pbae8ece65d)" style="fill:none;stroke:#000"/><path d="m383.563 387.3 4.073-.806 2.928-.368 1.904-.142 2.341.009 1.842.075M393.86 395.382l.777.518M393.86 395.382l2.09-6.815M392.865 397.642l.308-.589.151-.447.31-.719.227-.505M378.01 370.836l3.142 1.552 2.399 1.387M390.682 377.001l-2.974-1.187-4.157-2.039M382.98 378.338l.167-2.024.404-2.539M383.417 380.193l.566 1.011.68 1.358.793 1.417M383.643 385.96l.189-.264.256-.26.788-.839.58-.618M391.952 381.547l-.96.376-1.376.376-1.056.276-1.477.576-1.627.828M391.952 381.547l.844-.485.772-.409 1.207-.627 1.444-.735" clip-path="url(#pbae8ece65d)" style="fill:none;stroke:#000"/><path d="m383.643 385.96-.077.215-.019.19.014.36.002.576M390.682 377.001l.49 1.957M391.952 381.547l-.78-2.59M383.417 380.193l1.552-.359 1.417-.243 1.452-.142 1.325-.091 1.259-.218.75-.182M382.98 378.338l.042.543.101.644.294.668M402.326 377.811l2.081-.433M405.352 391.043l-.317 1.192M406.277 389.92l-.381.306-.29.342-.254.475M411.05 381.83l-.573-1.223M415.85 381.046l-.677.033-1.304.125-1.074.13-.814.196-.93.3M408.914 382.808l1.07-.521 1.067-.456M414.884 375.074l.478 2.085.286 1.438.133 1.328.068 1.12M414.884 375.074l.546-.005M414.884 375.074l-6.048 1.384M408.836 376.458l.789 1.955M408.836 376.458l-4.429.92M418.768 392.787l-1.761-1.59M416.017 403.133l.612-1.689.168-1.136.025-1.304-.151-1.704.059-.936.142-.669.244-.526.704-1.045.948-1.337M430.807 379.951l-1.418 1.529-2.374 2.524-3.943 3.986-2.257 2.164-.956 1.229-1.09 1.404M405.367 384.71l2.184 4.206M408.914 382.808l-1.647.883-1.9 1.02M407.551 388.916l.823-.548M407.551 388.916l-1.274 1.004M399.855 386.189l.156 1.25M399.855 386.189l2.27.092M400.01 387.439l2.114-1.158M399.306 389.962l.562-1.328.092-.67.05-.525M394.637 395.9l.579.418M398.236 391.948l-.642.981-.453.635-.73.769-1.774 1.567M395.95 388.567l3.356 1.395M398.236 391.948l.6-1.083.47-.903" clip-path="url(#pbae8ece65d)" style="fill:none;stroke:#000"/><path d="m405.035 392.235-2.944-1.22-2.785-1.053M405.035 392.235l2.374.577M405.035 392.235l-.892 3.38M407.41 392.812l.196-.006.191-.017.25-.069M406.277 389.92l.847 1.363.923 1.437M411.57 397.058l-.578-.837-1.418-1.854-1.527-1.647M398.236 391.948l5.907 3.668M390.707 408.924l1.72-7.647.36-2.833.078-.802M396.749 408.048l-.296-2.517-.453-3.217-.784-5.996M396.987 410.956l-.238-2.908M396.987 410.956l2.56-1.028M411.57 397.058l1.74-2.117M411.57 397.058l.422 1.115M405.708 407.556l-.262.119-.496.132-1.294.248-1.116.334M402.045 408.805l.247-.203.248-.213M396.749 408.048l3.891-1.849M402.045 408.805l-.793-1.494-.612-1.112M404.143 395.616l2.855.717M407.41 392.812l-.412 3.521M406.998 396.333l-1.29 11.223M411.992 398.173l-1.356-.56-3.638-1.28M405.708 407.556l-.344 3.46M411.992 398.173l.121.321.007.172-.049.176-.127.274-2.057 3.112-1.068 1.73-.84 1.093-1.03 1.361-.748.707-.493.437M417.007 391.196l-3.697 3.745M408.374 388.368l4.936 6.573M430.807 379.951l-2.668-2.44M416.017 403.133l1.226 2.319M411.992 398.173l.44.275.915.469.614.455.512.493.369.936.562 1.27.613 1.062M405.263 417.106l-.901-2.615M405.263 417.106l-1.427.62M408.204 410.019l.54 1.278.305.535.554.593.268.352.315.167.31.12.433.06.41.15.273.228.206.181.13.265.065.169-.002.17-.059.121-.121.155-.244.117-.73.227-.86.31-.73.334-1.098.488-2.906 1.067M386.596 423.03l2.651.936 4.027 1.12" clip-path="url(#pbae8ece65d)" style="fill:none;stroke:#000"/><path d="m392.125 416.58.637 1.32.512 2.239.185 2.449-.01 1.595-.175.903M383.438 457.18l.877-1.943.417-2.042 1.057-10.647 1.946-7.487 3.09-5.113 1.744-2.706.705-2.156M392.125 416.58l5.167-2.245M403.383 411.782l1.98-.766M403.383 411.782l-2.624 1.213M404.362 414.49l-.553-1.455-.426-1.253M402.045 408.805l.278.63.33.676.73 1.671M408.204 410.019l.976-.343 2.818-1.304 1.989-1.103 1.836-1.036 1.42-.781M424.203 408.863l-.309-.115-1.166-.334-1.762-.025-.862-.052-.597-.124-.371-.219-.419-.433-.443-.726-1.03-1.383M406.079 413.828l-1.717.663M404.362 414.49l-2.747 1.198M398.68 416.967l2.935-1.28M398.68 416.967l-1.388-2.632M398.68 416.967l.844 2.478M399.524 419.445l3.059-1.219M404.674 420.907l-3.9 1.468-.405.082-.277-.037-.21-.11-.15-.254-.11-.555-.098-2.056M403.836 417.727l-1.253.5M403.836 417.727l.838 3.18M405.463 422.926l-.79-2.019M410.773 422.279l-1.182.426-1.078.284-.835.137-.805.021-.79-.092-.62-.129" clip-path="url(#pbae8ece65d)" style="fill:none;stroke:#000"/><path d="m405.04 428.583.004-.48-.05-.514-.147-.339-.089-.718.06-.92.15-.66.21-.56.126-.71.16-.756M419.926 416.119l-11.63 3.612-3.622 1.176M397.292 414.335l3.467-1.34M405.364 411.016l2.84-.997M430.673 374.065l-.462.831-.545.776-.797.944-.73.895M432.107 371.092l2.621 1.246M432.325 369.639l-.067.751-.151.702M430.673 374.065l.964-2.028.47-.945M432.325 369.639l1.985-.107" clip-path="url(#pbae8ece65d)" style="fill:none;stroke:#000"/><path d="m431.998 367.415.197 1.237.13.987M434.728 372.338l.034.215-.027.17-.103.33-.31.58-.349.68-.39.761-.226.21-.189.05h-.273l-.29-.114-1.932-1.155M434.728 372.338l-.18-1.358-.238-1.448M449.774 291.618l1.46 3.372M449.774 291.618l-1.443-3.025M444.084 293.78l.8-.164.847-.326 1.518-.627 2.525-1.045M449.346 312.243l.647-3.134M449.346 312.243l4.85.375M449.993 309.11l.57-2.65M449.993 309.11l8.319.723M458.312 309.833l2.955.15 2.345.1 1.413.054M451.821 298.48l-.193 2.9M451.821 298.48v-.436M451.821 298.48l7.792 2.638M462.903 302.046l-3.29-.928M459.613 301.118l-.518 2.07M458.312 309.833l.296-3.1M459.095 303.189l-.487 3.544M464.095 303.518l-.563.11-.536-.05-.538-.06-.587-.125-.847-.142-1.93-.062M450.697 305.808l-.134.652M450.697 305.808l7.911.925M450.563 306.46l-6.385-1.163M443.575 305.232l.603.065M438.323 309.009l1.074-3.321.155-.478.143-.338.155-.188.34-.1.55.097 2.835.55M441.625 311.535l1.108-3.223.397-1.117.26-1.086.185-.877M451.821 298.044l-.134-1.228-.453-1.826M444.933 296.3l1.536-.244 2.785-.627 1.98-.44M439.758 297.239l4.161-.796M439.758 297.239l-.437-2.09M439.758 297.239l.157 1.393M444.34 301.82l-.017 1.251-.145 2.226M443.92 296.443l1.013-.143M444.299 299.836l-.148-1.64-.232-1.753M441.888 299.865l2.411-.03M444.34 301.82l-.033-1.086-.008-.898" clip-path="url(#pbae8ece65d)" style="fill:none;stroke:#000"/><path d="m451.821 298.044-.956.201-1.309.276-2.5.618-1.258.36-.822.2-.677.137M442.547 302.003l1.793-.182M451.628 301.38l-3.398.057-3.89.384M438.835 292.403l.486 2.746M438.835 292.403l4.327-1.814M447.602 286.946l-.374.063-.256-.075-.2-.176-.19-.347-.319-.388-.159-.08-.297-.02-.32.062-.771.314-5.818 2.778-.323.189-.134.275-.05.435.016.534.428 1.893M444.084 293.78l-.878.186-1.074.251-2.811.932M448.331 288.593l-.73-1.647M448.331 288.593l-5.169 1.996M447.602 286.946l-1.46-2.456M444.084 293.78l.48 1.29.369 1.23M444.084 293.78l-.922-3.19M492.798 348.888l.092-.91.059-.774-.022-.614-.159-.296-.31-.264-.445-.171-1.174-.163-2.03-.267-1.795-.251-1.586-.15M511.845 348.237l-4.455-.62-5.72-.751-1.838-.075-3.272.844-3.762 1.253M512.062 352.445l-.142-1.567-.05-1.28-.025-1.361" clip-path="url(#pbae8ece65d)" style="fill:none;stroke:#000"/><path d="m567.993 346.197-3.398 2.55-2.936 2.482-2.022 1.411-.797.427-.813.159-2.332-.243-2.903-.681-1.325-.004-4.195.31-1.552-.05-9.211-1.137-3.222-.1-2.667-.301-1.46-.343-4.681-1.496-1.208-.284-1.15-.117h-1.065l-2.122.217-1.594-.05-5.495-.71M513.21 356.1l-.293-1.238-.317-.817-.36-.92-.178-.68" clip-path="url(#pbae8ece65d)" style="fill:none;stroke:#000"/><path d="m513.976 358.432 1.174-.126 2.03-.154 1.699-.113.596-.167.276-.217.253-.489.07-.74-.217-2.49-.177-.773-.16-.188-.175-.071-.273-.038-1.003-.1-3.296-.268-2.711-.053M500.545 352.072l3.8.777 1.376.226 1.191.067 1.754-.184 1.585-.293 1.81-.22M513.976 358.432l-.766-2.331" clip-path="url(#pbae8ece65d)" style="fill:none;stroke:#000"/><path d="m515.167 362.402-.81-2.668-.381-1.302M560.552 155.672l-9.547-1.086M446.142 284.49l2.982-3.832.772-.777.784-.506.931-.41 2.374-.526 1.36-.577.62-.476.982-.986 2.852-3.652 1.309-1.237 1.334-1.02 4.798-2.983 2.568-1.212 7.206-4.095 4.328-3.25 11.157-7.74 6.682-4.763 3.327-2.59 2.81-1.78 2.5-1.43 1.284-.426 2.668-.242 1.098-.326.646-.402.822-.794 1.124-2.348.353-1.48.814-5.514.604-7.748.193-1.211.847-3.051.134-1.295-.125-4.296-.336-2.407-1.62-4.513v-.66l2.685-7.362 2.249-5.474 1.744-3.845.948-3.961.529-1.128 1.292-1.99.763-.61 5.763-3.493 1.268-1.178.821-1.07 1.284-2.106 1.51-3.66.93-1.363 2.736-3.017.738-.593 1.225-.794 1.988-.836 2.072-.45.772-.277.78-.442.998-1.037.462-.502.302-.551.654-2.558.168-1.052M409.625 378.413l.852 2.194M408.4 381.375l-.437-1.027-.273-.844-.054-.293.063-.163.243-.12 1.683-.515M408.914 382.808l-.514-1.433M513.21 356.1l-2.707.585-.609.143-.31.17-.184.201-.05.214.104.618.478 1.905M465.062 390.04l.802-.905 1.217-1.546 1.56-1.747 1.426-1.684.273-.225.273-.067.39.134.457.18 1.93 1.275" clip-path="url(#pbae8ece65d)" style="fill:none;stroke:#000"/><path d="m475.042 388.463.634-.753.149-.209.029-.19-.063-.171-.145-.15-2.257-1.535M467.632 392.302l1.513-1.847 1.535-1.913 1.485-1.7 1.224-1.387M475.042 388.463l2.148 2.344M475.042 388.463l-5.224 6.167M479.396 393.391l-2.206-2.584M479.396 393.391l1.124-1.114M472.433 396.737l.415.429.722.781.67.64.27.133.247-.03.176-.057.356-.337 4.107-4.905M477.19 390.807l-4.757 5.93M472.184 397.03l.249-.293M421.364 374.251l-.06.656M421.364 374.251l-.897-.05-1.187-.033-.847.033-.831.137M421.304 374.907l-3.635.084M417.67 374.991l-.068-.653M417.67 374.991l-2.24.078M403.106 371.693l-.52.11-3.264.543-2.55.401-1.67.117-1.222.058" clip-path="url(#pbae8ece65d)" style="fill:none;stroke:#000"/><path d="m401.05 367.6-4.534.81-1.472.267-.487.163-.507.334-.306.285-.185.472-.063.668.384 2.323M352.503 373.357l3.509-.469M356.012 372.888l.2 3.862M356.012 372.888l-.204-3.726M376.53 374.293l-1.72-.535-2.752-.718-3.456-.836-1.586-.301-1.267-.042-1.795.209-7.942.818M376.53 374.293l-1.083 3.702M378.01 370.836l-.7 1.268-.78 2.19M375.447 377.995l1.896.25 1.712.219 1.803.016 2.122-.142M356.211 376.75l6.183-.735 2.064-.21 1.056-.066 1.024.159 4.186.935 4.723 1.162M351.698 377.017l4.513-.267M333.284 375.417l1.392-1.199 6.544-4.755 1.04-.501 1.208-.251 1.015-.067 7.357.694 1.678-.008 2.29-.168M419.926 416.119l-.772-1.814M422.93 412.935l.058.635.105.504.034.286-.039.282-.107.186-.2.188-.657.267-2.198.836M399.546 409.928l.802-.32.455-.179.506-.198.415-.203.32-.223M519.613 628.234l3.49 1.07 4.262.233 3.22.067 4.028.534 4.026-2.138 2.886.267 7.383 1.604h8.792M424.203 408.863l1.058.395 2.425 1.613.738.685 2.903 4.572 8.389 14.39 7.382 8.29 6.41 8.607 1.443 2.49 5.52 8.892 3.103 4.061.604 1.42.94 3.444.235 2.123-4.698 14.089-.219 1.621.42 1.788 2.014 2.808 1.696 5.441 1.357 2.13 2.148 2.64 3.825 5.299.671 1.588.034.835-.151.886-7.903 19.086.034 1.12 1.477 1.872 4.916 6.886 8.053 9.61 1.258 2.073 2.484 7.403 2.7 7.02.873 2.306.235 2.524-.772 5.18-.587 4.346v4.028l.134 5.13.437 2.575.637 1.236 7.785 6.184.94 1.236.402 3.343 3.289 5.215 2.617 7.42 3.96 6.15 2.818 1.94 4.027.6 4.833 3.41 2.516 1.37M410.477 380.607l-2.077.768M378.946 395.001l.57-7.203.47-1.12.94-.435 1.308-.3 1.41.016M399.546 409.928l1.213 3.067M368.631 344.914l.574-1.052.202-.163.26-.08.348-.029 1.59-.134 1.313-.117.726-.142M418.344 412.655l.299.64.26.518.251.492M422.93 412.935l-.639.226-1.048.393-2.089.751" clip-path="url(#pbae8ece65d)" style="fill:none;stroke:#000"/><path d="m422.93 412.935-.026-1.01.076-.728.235-.71.553-.886.435-.738M292.777 321.749l-.6-.025-.944-.221-.545-.36-.587-.242-1.38-.264-3.813-1.048-.667-.259-.721-.385-1.074-.76-2.617-1.287-1.166-.92-1.234-1.8-.306-.25-.41-.151-.521-.167-1.213-.122-2.201-.031-.814-.136-6.036-2.44-2.71-.886-2.24-.91-2.256-.744-5.554-1.48-4.345-.952-1.116-.117-1.653-.468-1.476-.585-1.745-1.513-1.796-.727-2.23-.685-6.578-3.26-1.51-1.245-.906-.36-1.585-.4-1.183-.468-1.67-1.05-.696-.317-5.226-.998-1.863-.284-3.263-.256-1.003-.267-.885-.447-11.358-8.541-2.836-1.947-2.013-1.605-2.903-1.47-1.846-1.279-.562-.268-.973-.242-2.475-.944-3.372-1.956-.612-.426-.227-.326-.394-4.646-.16-.494-.981-1.53-.377-.952-.076-.894.1-1.738-.25-.627-.798-.81-.512-.385-1.3-1.513-1.032-1.905-1.007-2.457-.428-.417-1.375-.878-.654-.652-.47-.852-.193-1.078.092-1.388.402-2.215.294-2.314-.042-.326-.21-.385-.47-.35-1.5-.836-1.268-1.003-.47-.71-.176-.953M255.131 240.916l1.779 2.54 2.072 2.324.67.96 1.326 3.602 1.485 4.58.78 3.176.705 1.638.504 2.858 1.291 10.814.206.673.21.226 2.32 1.416 2.097 1.42 6.124 3.694 1.946 1.647.922.417 1.746 1.062 1.552 1.22 1.67 1.513 2.868 3.292 1.594 1.396.29.443.041.48-.298.723-.654 2.39-.302 2.557.436 2.758.948 4.513.57 1.354.948 1.78 1.016 3.017.277 5.081-.1 2.473.385 2.174.222.622M333.284 375.417l-.646-.815-1.275-1.62-1.485-2.149-1.317-1.562-.713-.685-5.705-4.046-4.522-2.949-4.069-2.942-.797-.652-.503-.551-3.548-5.875-1.107-1.655-2.534-3.426-1.007-1.563-.789-1.02-1.685-1.821-2.442-3.41-1.627-1.914-.94-1.261-.797-1.313-.704-1.88-.655-2.665-1.158-6.268-.482-1.626M218.781 187.271l1.183-.142 1.686-1.02 1.242-.484.89-.176.737.017 2.257 1.387.965 1.128.587.978.512.526 1.77.945.378.3.293.419.184 1.888 1.008 3.067.502.845 2.467 2.84.789.578 2.785 2.916 2.886 3.385.93 1.329.68 1.496.898 3.894.721 2.323.764 1.714 1.527 2.816 2.231 3.168 2.593 5.549 1.082 4.404 1.258 6.042.545 1.513" clip-path="url(#pbae8ece65d)" style="fill:none;stroke:#000"/><path d="m259.812 232.684.395.835.174.807-.088.439-.124.238-.155.153-.336.26-.99 1.045-2.34 2.95-1.217 1.505M401.615 415.688l.968 2.538M404.407 377.378l-1.301-5.685M435.151 362.92l.339 1.542.193 2.45M383.438 457.18l-6.003 2.887-15.972 12.77-8.994 7.955-9.865 10.295-3.288 5.616.067 3.309-.84 1.437-5.704 6.217-.94 1.237-.603 1.337-.47 9.427-.638 1.303-.705.836-1.879 1.07-.738.668-.47.936" clip-path="url(#pbae8ece65d)" style="fill:none;stroke:#000"/></g><path id="PatchCollection_1" d="m416.798 328.097.68-.174.642-.697.252-.368.7.02 1.282.387.914.251.816.059 1.555-.156 1.205.465 1.03.775.836.91 1.03.58 1.107.213.66.407.186.39-.394.064-.064.209.177.576.225.273.266.16.193-.032.234-.224.192-.217.048-.184-.056-.232-.394-.441-.29-.265-1.207-2.189.95-.633.587-.504 1.36-2.798.314-.722.137-.865.024-1.9 2.704-.53.386 2.18.95 1.981.209.778-.056 1.178.032 1.219.097 1.627.217 5.227.04 2.966-.016.633.217.73.282.52.45.521.266.498.024.817-.129.818-7.347-1.034-2.502-.441-.87-.257-.233-.264v-.898l-.475-1.643-.169-1.059-.29-.48-1.094-1.083-.442-.248-1.2-.842-1.81-.593-3.243-1.09-1.988-.77-.813-.2-.266-.602.114-.994.29-.753.683-.53z" clip-path="url(#pbae8ece65d)" style="fill:#00f;fill-opacity:.8"/><g id="PatchCollection_2"><path d="m407.997 379.061.33.988 1.348-.481-.33-.95zM391.064 377.67l1.078 3.423 3.702-1.804.016-.296-.072-.265-.226-.072-1.875-.216zM408.695 381.399l.336.842 1.39-.53-.313-.759zM395.373 391.02l1.54.54.74-2.094-1.54-.54zM399.977 386.372l.1.788 1.744-.788z" clip-path="url(#pbae8ece65d)" style="fill:green;fill-opacity:.8"/></g><path id="PatchCollection_3" d="m386.831 387.188 3.766.226-.268 5.13-3.825-.2z" clip-path="url(#pbae8ece65d)" style="fill:#90ee90;fill-opacity:.8"/><g id="PatchCollection_4"><path d="m397.737 389.513-.816 1.931 1.029.431.236-.56-.245-.102.401-.949.324.136.179-.422zM465.14 368.254l.336.576.685-.397.217.372-.735.425.334.572 2.185-1.264-.345-.592-.65.376-.21-.358.48-.277-.334-.57z" clip-path="url(#pbae8ece65d)" style="fill:#a9a9a9;fill-opacity:.8"/></g></g></g><defs><clipPath id="pbae8ece65d"><path d="M162.048 86.4h413.905v554.4H162.048z"/></clipPath></defs></svg>