<svg xmlns="http://www.w3.org/2000/svg" width="960" height="960" viewBox="0 0 720 720"><defs><style>*{stroke-linejoin:round;stroke-linecap:butt}</style></defs><g id="figure_1"><path id="patch_1" d="M0 720h720V0H0z" style="fill:#fff"/><g id="axes_1"><path id="patch_2" d="M147.415 640.8h443.17V86.4h-443.17z" style="fill:#fff"/><g id="LineCollection_1"><path d="m509.246 177.697-.148-1.55M510.98 176.535l-.38.158-.77.433-.584.571M497.973 196.48l2.169-2.98 2.756-4.13 1.403-2.828 2.407-4.53 1.37-2.508 1.168-1.807M195.813 316.279l-5.178-3.303-6.593-3.6M225.927 335.852l-3.46-2.181-19.29-12.588-7.364-4.804M422.37 408.478l-.541-.025M422.37 408.478l-.018-1.067M422.37 408.478l-.056 2.018M418.382 413.982l-.033-1.285-.154-.932-.252-1.044-.206-.832M417.691 407.564l-.266 1.192-.093.395.029.198.088.158.288.382M418.252 407.692l-.323 1.275-.05.24-.142.682M421.644 426.105l.02-.313.098-1.498M421.762 424.294l.25-.614.127-3.182M421.514 420.45l-.028 3.202.276.642M418.382 413.982v12.804l-.125.54-.427.54M421.644 426.105l-2.806 2.283-.355-.151-.653-.371" clip-path="url(#pbc3a83ca58)" style="fill:none;stroke:#000"/><path d="m412.893 444.587.122-5.494-.104-1.1-.224-1.052-.969-.901-.568-.996-.032-.643.146-.481.697-1.446 2.415-4.467.698-.82.371-.115.245-.077.519.145 1.621.726M398.636 403.553l3.653.78M398.636 403.553l.682-6.214M393.87 402.613l1.23.25 3.536.69M400.018 388.242l-3.782-.418M400.018 388.242l3.78.421M399.662 391.589l.042-.209.314-3.138M424.212 384.295l.108-1.309M424.212 384.295l.92-.284M424.212 384.295l-.292 2.628M418.252 407.692l.143.031M418.252 407.692l-.56-.128M419.36 398.555l2.804.13M419.36 398.555l-3.43-.32M419.36 398.555l-.484 5.051M419.36 398.555l.259-2.376M419.894 393.54l2.92.064M419.894 393.54l-3.757-.133M419.894 393.54l-.275 2.639M423.554 390.577l-.396-.035M423.554 390.577l.366-3.654M423.554 390.577l-.345 3.049M393.308 387.457l2.928.367M393.308 387.457l.808-7.446M393.308 387.457l-1.297-.065M394.116 380.011l3.024.288M384.253 379.135l2.245.197 1.5.114 1.995.17 3.472.303.65.092M396.236 387.824l-.476 3.266M396.236 387.824l.904-7.525M397.14 380.299l7.42.768M404.56 381.067l5.75.596M404.56 381.067l-.537 5.353M403.798 388.663l2.741.288M403.798 388.663l-.556 6.292M403.798 388.663l.225-2.243M402.289 404.333l1.483.307M402.289 404.333l.733-6.874M399.318 397.34l3.704.12M399.318 397.34l-4.397-.053M399.318 397.34l.264-2.59M403.022 397.46l.22-2.505M403.022 397.46l3.017.169M406.54 388.95l2.995.276M406.54 388.95l-.426 6.211M406.039 397.629l3.256.226M406.039 397.629l-.118 3.027M406.039 397.629l.075-2.468M405.433 404.964l.182.029M405.433 404.964l-1.661-.324M405.433 404.964l.303-2.652M405.92 400.656l-1.011-.192-.22.014-.115.17-.802 3.992M405.92 400.656l-.184 1.656M412.359 406.379l5.332 1.185M412.359 406.379l-6.744-1.386M412.359 406.379l.08-3.346M412.378 398.004l3.551.23M412.378 398.004l-3.083-.149M412.378 398.004l.065-2.598M412.378 398.004l.061 5.03M412.49 389.385l-2.955-.16M412.49 389.385l3.657.426M412.49 389.385l-.047 6.02M413.25 381.933l-.047.975-.365 3.432-.347 3.045M413.25 381.933l-2.94-.27M423.892 382.932l-.257.108-3.207-.332-7.178-.775M410.31 381.663l-.57 5.31M409.535 389.226l-.282 6.102M409.535 389.226l.205-2.254M409.295 397.855l.01 4.804M409.295 397.855l-.042-2.527M409.305 402.659l3.134.374M409.305 402.659l-3.569-.347M416.147 389.811l7.011.731M416.147 389.811l-.01 3.596M415.93 398.234l.198-2.627M416.137 393.407l-.009 2.2M423.21 393.626l-.396-.022M423.21 393.626l-.31 2.803M422.609 398.722l.29-2.293M422.609 398.722l-.445-.038M422.609 398.722l-.22 4.072M412.44 403.033l6.436.573M418.876 403.606l-.48 4.117M399.582 394.75l.08-3.161M399.582 394.75l3.66.205M399.582 394.75l-4.295-.167M403.242 394.955l2.872.206M406.114 395.161l3.14.167M409.253 395.328l3.19.078M412.443 395.406l3.685.201M404.023 386.42l5.717.552M427.442 385.886l2.899.116M427.442 385.886l-.192 4.412M427.442 385.886l-2.31-1.875M431.91 386.094l-1.57-.092M426.877 397.044l-3.978-.615M426.877 397.044l.279 5.938M426.877 397.044l.373-6.746M426.877 397.044l2.974.306M422.139 420.498l.887-.003M422.139 420.498l-.625-.047M422.139 420.498l.03-3.973M426.591 420.609l2.812.023M426.591 420.609l-3.565-.114M426.591 420.609l.052-3.72M421.644 426.105l.186-.003.228-.002 1.678-.566.407-.14 2.325-.637.123-4.148M422.17 416.525l.856.017M422.17 416.525l-.521-.01M422.17 416.525l.018-.832M426.643 416.89l-.161-.286M426.643 416.89l2.914.115M437.744 417.053l-2.042-.01M423.026 420.495v-3.953M423.026 416.542l1.113.02M429.403 420.632l3.43.002M429.403 420.632l.154-3.627M429.557 417.005l.063-1.76M429.557 417.005l3.205.125M429.996 405.698l.065-2.586M429.996 405.698l-.186 5.456M429.996 405.698l3.106.134M422.39 402.794l4.766.188M422.39 402.794l-.438-.015M422.39 402.794l-.014 2.303M427.156 402.982l2.905.13M427.156 402.982l-.146 4.396M430.061 403.112l2.618.08M429.85 397.35l-.101 1.895-.007.487.32 3.38M432.833 420.634l-.071-3.504M456.856 415.295l-4.509.84-5.14.996-3.426 1.01-5.347 1.872-1.176.353-.329.088-1.28.132-1.168.063-1.648-.015M432.762 417.13l.174-5.768M432.762 417.13l2.94-.086M427.01 407.378l-4.658.033M427.01 407.378l-.107 3.15M422.352 407.411l-.533.002M422.352 407.411l.024-2.314M426.634 415.761l-1.252-.018M426.634 415.761l.392-.65M426.482 416.604l.156-.305-.004-.538M422.188 415.693l-.525-.014M422.188 415.693l1.945.034M422.188 415.693l.05-1.648M422.243 413.895l1.98.02M422.243 413.895l.016-.95M422.243 413.895l-.005.15M427.03 413.98l-1.477-.035M427.03 413.98l-.004 1.13M427.03 413.98l.032-.914M429.724 413.19l.086-2.036M429.724 413.19l-.104 2.055M429.724 413.19l-2.662-.124M426.822 413.058l-1.25-.036M426.822 413.058l.24.008M426.822 413.058l.08-2.53M422.26 412.945l-.537-.005M422.26 412.945l1.967.055M422.26 412.945l.054-2.45M427.026 415.11l2.594.135M424.139 416.561l1.239.01M424.139 416.561l-.006-.834M424.497 415.73l-.364-.003M424.497 415.73l.885.013M424.497 415.73l.023-1.804M424.52 413.926l1.033.02M424.52 413.926l-.296-.011M424.227 413l1.345.022M424.227 413l-.003.915M429.81 411.154l3.126.208M432.936 411.362l.166-5.53M419.619 396.179l2.864.177M422.9 396.429l-.417-.073M381.857 397.035l-1.73.7M391.24 397.273l-4.998-.329h-2.835l-1.032.042-.518.049" clip-path="url(#pbc3a83ca58)" style="fill:none;stroke:#000"/><path d="m383.026 393.742-.015.333-.075 1.166-.065.401-.056.338-.235.422-.723.633M379.762 397.94l-2.691-1.389M379.762 397.94l.365-.206M391.142 402.055l-2.057-.42-2.44-.618-2.318-.78-2.068-.924-2.497-1.373M383.585 386.528l-.306 3.295M383.585 386.528l.567-6.44M383.585 386.528l-2.712-.224M383.585 386.528l3.879.373M374.201 385.754l-1.591-.157M374.201 385.754l1.295-.759M374.201 385.754l-1.707.943M374.201 385.754l1.191.098M426.482 416.604l-1.104-.033M418.382 413.982l3.318.063M384.705 389.918l.302-.686.69-.996 1.767-1.335M389.412 387.167l-1.224-.198-.724-.068M380.646 389.617l-.202 1.928-.325 3.093-.097 1.02.008 1.213.097.863M389.412 387.167l-.291 3.036M392.011 387.392l-1.191-.096-1.408-.13M389.12 390.203l2.614.317M384.705 389.918l1.254.117.805.042h.79l1.567.126M392.011 387.392l-.277 3.128M391.734 390.52l-.386 3.735M391.734 390.52l4.026.57M384.152 380.087l.101-.952M381.326 381.545l.625-.338 2.2-1.12M363.035 389.264l1.024.491M354.12 384.663l4.384 2.276 4.531 2.325M349.146 400.826l11.32-9.144 2.57-2.418M430.627 380.148l-.286 5.854M444.411 356.372l-.187.636-.518 1.57-1.423 2.717-.938 1.48-1.287 1.708-1.142 1.226-.966 1.04-1.142 1.335-1.403 2.737-.713 1.537-.617 1.386-.965 2.274-1.015 2.38-.304.538-.443.57-.72.642M426.557 382.725l2.573-1.428 1.497-1.15M430.34 386.002l-.22 4.454M429.85 397.35l.27-6.894M432.68 403.192l-.406-5.586-2.423-.256M427.25 390.298l2.87.158M435.702 417.044l.02-2.565M425.132 384.01l.716-.578.709-.707M426.557 382.725l-.884.382-1.353-.12M423.892 382.932l-.341 3.965M423.892 382.932l.428.054M422.814 393.604l-.331 2.752M422.814 393.604l.344-3.062M422.164 398.684l-.212 4.095M422.483 396.356l-.052.397-.267 1.931M421.829 408.453l-3.434-.73M421.829 408.453l-.039 2.039M421.829 408.453l-.01-1.04M421.723 412.94l-.019.935-.004.17M421.723 412.94l.067-2.448M421.649 416.515l-.135 3.936M421.649 416.515l.014-.836M421.663 415.679l.037-1.634M421.819 407.413l.085-2.316M421.952 402.779l-.048 2.318M423.158 390.542l.393-3.645M410.81 456.7l-.057-.353.073-.98.251-1.172.235-1.526.179-1.029 1.402-7.053" clip-path="url(#pbc3a83ca58)" style="fill:none;stroke:#000"/><path d="m532.171 456.482-1.647.321-9.468 1.575-4.215.771-16.44 2.795-13.1 2.25-5.285.834-5.188.772-2.076.321-2.885.225-2.497.354-12.614 1.96-.973.096-2.107.321-2.432.482-1.33.386-1.394.578-1.459.578-.648.161-3.827.514-2.853.61-1.2.29-.908.032-.389-.096-.307-.296-1.038-2.457-1.524-5.478-1.864-5.768-.39-1.077-.389-.481-.486-.467-.746-.803-2.35-2.506-2.903-3.486-2.026-2.218-.568-.433-.437-.048-2.108-.049-1.054-.112-2.189-.562-.379-.17-3.585-1.614M415.378 467.826l-.872-2.257-2.999-6.804-.344-.884-.207-.626-.146-.554M364.855 473.433l.81.29.698-.025.51-.208 1.054-.466 1.119-.787.487-.354.696-.29.827-.305 1.686-.385 1.265-.225 1.491-.514 1.346-.562 4.978-2.17 6.031-2.666 3.81-1.671 2.788-1.253 2.384-.9 2.188-.498 1.59-.482 1.248-.53.616-.37.81-.658.81-.402 2.092-.53 2.108-.353 2.513-.418M448.21 525.23l1.608 4.777.291 1.559.179 1.912-.056 1.004-.18 1.39.033 1.012.138.867.211.835.649 2.442M451.547 545.628l-.14-1.708-.324-2.892M344.41 525.529l-1.64 2.568-.786 1.272-.474.706-1.053.91-1.459.615-2.673.589-.864.963-1.324 1.178-.73 2.489-.545 4.03-.682 4.194-.705 2.027-2.187 2.54-4.185 5.815-1.458 2.644-.011.503 2.902-.418 7.523-1.06 6.728-.949 9.55-1.285 8.543-1.108 10.506-1.334 7.847-1.012 10.247-1.59 6.55-.788 7.068-.883 12.37-1.783 10.28-1.446 4.929-.755 8.203-1.157 7.734-1.205 6.469-.77M450.698 593.427l1.86 7.01.745 3.293.341 2.377.251 2.234.446 5.911M455.23 625.117l-.257-1.95-.437-5.22-.195-3.695M447.522 614.507l.301-.014 1.16-.357.365-.013 2.156.097 2.837.032M465.417 612.771l-.663-.316-.467-.098-.369-.024-.823.073-1.683.122-.787-.061-.503.11-.381.145-.516.378-.418.28-.21.11-.76.158-1.463.28-.7.097-.603.134-.73.093M423.55 386.897l.37.026M422.376 405.097h-.472M432.037 505.584l-.248 2.238-.405 3.695.016.642.195.45.648.434 1.832.498.817.236 3.338.964M433.183 516.32l4.508-1.333.54-.246" clip-path="url(#pbc3a83ca58)" style="fill:none;stroke:#000"/><path d="m440.473 513.017-.578.7-.648.563-1.017.461M425.724 491.243l1.12 2.521 2.092 5.286.535 1.895.26 1.077.323 1.028.341.69.555.732.872.912.215.2M440.473 513.017l-7.565-6.626-.87-.807M400.75 520.076l1.396 1.673.32.19.578.064 5.413-.063.641-.021 6.076-.827 7.809-1.081.77-.17.556-.276.792-.55.382-.22 5.171-1.431 2.53-1.044M427.024 515.973l3.243.565 2.916-.218M444.541 517.078l-.973-1.184-2.57-2.418-.525-.46M444.541 517.078l3.542-.694 6.842-1.108 2.61-.629.616-.03 1.054.016.843.016.6-.192.924-.595 1.038-.755 1.102-.53 1.395-.322 3.436-.465 2.14-.161M445.792 519.092l-.465-.796-.656-1.06-.13-.158M455.869 628.768l-.36-1.857-.28-1.794" clip-path="url(#pbc3a83ca58)" style="fill:none;stroke:#000"/><path d="m454.441 626.375.157-.183.21-.363.422-.712M369.668 388.168l-.03.355M369.668 388.168l.25-2.835M369.668 388.168l-1.025.328M372.494 386.697l-1.551.856-1.275.615M378.201 386.084l-.407 3.21M378.201 386.084l.248-2.819M378.201 386.084l-2.809-.232M378.201 386.084l2.672.22M404.526 414.561l-.549-1.845 1.638-7.723M380.873 386.304l-.227 3.313M380.873 386.304l.453-4.759M346.432 380.657l-4.753-2.523-3.34-1.723M323.856 369.243l9.3 4.538 5.183 2.63M321.04 389.674l1.678-1.47.819-.675.389-.594.194-.306.276-.224.324-.161.381-.073.317-.088.891-.562 2.707-2.032 3.494-2.683 3.519-2.587 2.31-1.808M305.84 411.195l-1.435-1.92M318.56 391.21l.404-.315 1.573-1.108.503-.113M324.505 394.215l-2.622-3.898-.227-.306-.276-.209-.34-.128M324.505 394.215l-.13.099M346.432 380.657l-1.008.116-1.232.386-1.703.096-.794.193-.6.386-2.318 1.719-5.14 3.775-4.685 3.55-4.447 3.337M304.405 409.275l-2.74 2.137-3.582 2.602-10.976 8.322M318.56 391.21l-4.621 3.59-8.35 6.056-4.402 3.374-.226.193-.082.24.138.362 1.427 1.695 1.961 2.555M324.374 394.314l-.967.726-5.334 4.097-3.437 2.458-5.675 4.418-4.556 3.262M348.475 381.738l-.77-.398-1.273-.683M331.076 395.152l4.54-3.413M348.475 381.738l2.929 1.516" clip-path="url(#pbc3a83ca58)" style="fill:none;stroke:#000"/><path d="m335.615 391.739 6.72-5.053 3.13-2.322 2.1-1.663.91-.963M351.404 383.254l-.395.74-.405.435-1.419 1.076-3.729 3.012-7.477 5.9" clip-path="url(#pbc3a83ca58)" style="fill:none;stroke:#000"/><path d="m335.615 391.739.795.956 1.57 1.722" clip-path="url(#pbc3a83ca58)" style="fill:none;stroke:#000"/><path d="m354.12 384.663-.233.625-.308.86-.3.417-5.293 4.161-4.735 3.784-2.642 2.089-.324.032-.552-.29-1.754-1.924M354.12 384.663l-1.526-.793-1.19-.616M380.646 389.617l2.633.206M380.646 389.617l-2.852-.324M377.794 389.293l-2.756-.253M377.794 389.293l-.723 7.258M377.07 396.551l-2.884-1.489M393.87 402.613l-2.728-.558M394.921 397.287l-.543 3.16-.219 1.02-.288 1.146M394.921 397.287l.366-2.704M394.921 397.287l-3.68-.014M391.142 402.055l.098-4.782M391.24 397.273l.108-3.018M432.68 403.192l.328 1.641.094.999M274.406 482.193l1.83.253 2.943.016h2.196l.438.072.6.177M270.147 487.619l.143-.185 4.116-5.24M284.436 469.292l-.479.615-4.604 5.912-3.373 4.37-1.574 2.004M255.672 505.722l-3.504-2.72-1.005-.787-1.2-.804" clip-path="url(#pbc3a83ca58)" style="fill:none;stroke:#000"/><path d="m233.294 534.294 3.581-4.592 3.486-4.626 6.988-8.853 4.41-5.502 3.299-4.23.614-.77M260.867 499.198l-.68.853-4.515 5.67M225.786 544.579l-3.632 4.643-4.67 6.088-7.003 8.98-3.632 4.82-4.053 5.22-5.025 6.765-3.6 4.707-.624.738-1.07 1.334-1.597 1.912-1.978 2.674M344.41 525.529l-13.205 2.214-3.89-.193-2.595 1.092-31.258 4.498-7.847 5.784-5.038 2.517-.203.071-.952.07-.288.1-.188.176-.138.6.037.45.008.3-.137.408-1.116 1.96-.214.287-1.323 1.292-.358.562-.258.662-.306.85-.132.46-.216.522-6.493 11.91-3.956 5.591-2.983 11.631-.39 2.25-36.25 5.462-2.011.963-3.892.193-29.916 4.25M233.294 534.294l-1.493 1.915-6.015 8.37M216.872 538.06l1.598 1.193 4.126 3.093 3.19 2.233M334.185 413.355l.866-.716M298.612 450.83l.326-.427 2.886-3.615 3.663-4.675 3.665-4.836 3.08-3.92 2.562-3.421 1.054-1.414 1.702-1.607 1.978-1.655 5.22-4.29 9.437-7.615M325.344 414.793l1.918-1.98 3.62-.723 3.303 1.265M349.146 400.826l14.86 17.606M340.362 408.245l1.28-1.06 7.504-6.359M364.855 473.433l-.187-1.02-.251-1.148-.762-1.672-1.175-2.554-1.946-4.321M364.855 473.433l-1.8-.602-.948.032-2.562.193-3.923.53-1.168.064-1.572.032-2.465.482-4.004 1.092-2.4.483M395.76 391.09l3.902.499M395.287 394.583l.08-.596.26-2.032.133-.865M420.999 481.466l.787 1.84 3.68 7.357.258.58M400.75 520.076l1.532.019.065-3.984.606-1.284 3.358-4.598 2.418-2.903.884-.894 1.748-1.453 3.827-3.423 6.582-5.784 2.14-2.249 1.814-2.28M368.75 385.219l1.168.114M368.75 385.219l4.268-3.578M366.372 387.218l.647-.549 1.73-1.45M384.253 379.135l-2.665-.359M378.893 378.226l2.695.55M378.893 378.226l-.444 5.039M375.957 379.06l.554-.341.798-.28.756-.15.828-.063M373.018 381.64l-.408 3.957M375.957 379.06l-.393.24-.915.73-1.173 1.135-.458.476M364.06 389.755l.299-.378M367.053 391.34l-2.587-1.405-.407-.18M426.903 410.528l-4.59-.032M422.314 410.496l-.524-.004M425.378 416.57l.004-.827M425.553 413.945l.019-.923M320.258 367.378l-3.336-1.67-2.7-1.298M307.518 361.655l3.158 1.192 2.087.892 1.46.67" clip-path="url(#pbc3a83ca58)" style="fill:none;stroke:#000"/><path d="m292.854 380.364 3.802-2.804 5.245-4.057 7.093-5.31 5.228-3.783M323.856 369.243l-.643-.314-2.955-1.55M292.854 380.364l5.816 2.598.211.073.194.003.223-.032.244-.132 3.283-2.382 5.034-3.84 3.056-2.265 6.12-4.402 3.223-2.607" clip-path="url(#pbc3a83ca58)" style="fill:none;stroke:#000"/><path d="m286.231 377.749.572.333 1.252.486 4.8 1.796M307.518 361.655l-1.815 1.622-1.93 1.293-3.149 2.467-2.756 2.016-2.562 1.888-4.292 3.22-3.47 2.463-1.313 1.125M246.883 405.33l3.566-5.245 11.098-13.765 7.251-9.138 1.435-1.895.28-.35.271-.28.242-.11.253-.045h.22l.171.021 2.292.406 3.28.462 1.353.185.883.2 4.953 1.752.775.24.25.084.173.021.168-.012.197-.04.237-.072M268.993 349.934l-2.444 5.414-5.496 11.918-1.747 3.816-3.47 6.289-2.72 4.848-6.128 10.925-3.437 6.467M268.993 349.934l-4.584-1.27M300.619 359.563l-.546-.166-3.47-1.036-3.777-1.165-23.833-7.262M300.619 359.563l3.722 1.135 3.177.957M266.608 341.135l-.01-.15-.155-.659-.348-.706-.47-.796-.527-.466-.592-.337-2.035-1.069M225.927 335.852l.67.421 2.379 1.362 1.463.607 2.314.88 3.417 1.004 4.953 1.518L247 343.42l12.504 3.764 4.905 1.482M266.608 341.135l.038.573-.105.956-.69 2.297-1.442 3.704M490.942 208.57l-.202 1.027M472.362 201.597l1.41-.24.96-.121 1.079-.1.446-.037.413-.097.426-.184 1.058-.373.151-.035.167-.002.103.06.106.133.075.169.334.908.28.405.32.325.36.318.268.341.21.318.523 1.125.207.273.296.184.365.185.256.132.198.214.215.377 1.082 1.856.337.406.348.233.35.118.29.048.323-.026 1.092-.197.685-.12.673-.056.494.023.872.13 1.808.28" clip-path="url(#pbc3a83ca58)" style="fill:none;stroke:#000"/><path d="m497.973 196.48-1.463 2.008-2.966 4.491-1.054 1.55-.56 1.077-.559 1.454-.43 1.51M469.72 132.105l-.633.434-.479.538-.664 1.278-.17.554-.017.563.073.474.381 1.703.438 1.856.519 1.47.243 1.116.251 2.507.154 1.84-.032.317-.053.297-.154.265-.223.23-.255.156-1.098.438-.188.065-.996.348-2.217.948-.487.326-.186.233-.106.29.05.308.133.27.195.33 1.856 2.594 2.7 3.872.664 1.253.357 1.157.56 2.145.177 1.093.017.546-.07.438-.153.426-.231.51-.917 1.39-1.783 1.823-4.555 4.636-4.248 4.274-1.679 2.177-1.994 2.908-.891 1.354-.507.927-.292.486-.267.21-.405.209-.738.305-2.416.892-.66.16-.345.113-.349.18-.462.298-1.321.907-.312.31-.207.28-.178.37-.588 2.182-.6 2.956-.494 2.876.024.868.09.755.129.699.47 1.478.47 1.314 1.46 3.105.332 1.373.332 1.133.422.884.705 1.124 2.383 5.166.156.357.1.155.105.09.142.039.162.006.199-.04 5.11-.856 5.245-.844 4.167-.65 4.11-.49 1.472-.31.263-.056 3.194-.783 4.231-.538 11.399-1.898M444.411 356.372l1.459-5.346 3.478-12.298 1.009-2.804 1.24-2.366.487-.843.377-.699.267-.735.296-1.35.478-2.807-.032-.599-.122-.53-.198-.622-.45-1.623-.13-.699-.06-.558-.025-.611.053-.554.073-.74.137-.735.179-.49.23-.482.925-1.514 3.153-4.49 2.327-4.033.474-.719.437-.534.552-.515 1.48-1.052.559-.457.417-.527.365-.646.336-.908.337-1.29 1.017-2.204.332-.92.078-.715-.102-.723-.183-.599-1.122-3.41-1.245-3.933-.356-.927-.231-1.161-.117-1.237.084-2.286-.015-1.052-.17-1.21-.284-1.349-.167-.775-.044-.827.101-1.238.58-2.871.34-1.39.454-1.286.56-1.076.607-1.109.856-1.382.798-1.2.948-1.86 1.338-2.76.312-.682.43-.72.543-.82 1.017-1.545 1.046-1.221 1.042-.9 1.917-1.398 1.512-1.45.592-.47.725-.442.774-.357 1.6-.599.396-.241.276-.293.178-.345.156-.41.138-.472.142-.625.677-3.824 1.248-7.146.86-2.948.376-.9.377-.759.478-.851.848-1.31.506-1.064.446-1.238.884-3.318.332-.967.434-.76.474-.606 1.427-1.615.267-.39.147-.353.015-.402-.089-.357-.19-.454-.645-1.318-.166-.73-.053-.711.085-.993.17-1.245.139-.864.06-.88.211-3.856.05-.25M469.638 104.653l3.202 6.813.56 1.27.202.771.073.683-.162 1.036-.316 1.205-.625 1.968-1.588 3.03-.503 1.02-.26 1.204-.3 3.31-.202 5.142" clip-path="url(#pbc3a83ca58)" style="fill:none;stroke:#000"/><path d="m509.098 176.147-.17-.54-.121-.542-.081-1.1-.129-4.695.04-3.218-.024-.546-.093-.43-.178-.546-.507-1.045-.993-1.747-.482-.614-.612-.623-1.419-1.077-1.84-1.47-.45-.297-.41-.18-.473-.101-.617-.056-3.457-.121-.839-.149-.75-.149-1.447-.325-.762-.08-1.248.004-1.788-.117-.782-.116-.543-.12-.442-.213-.594-.376-.642-.492-.543-.683-.426-.69-.539-1.358-1.718-3.973-.908-1.57-.148-.356-.152-.4-.085-.448-.32-2.099-.568-4.057-.069-.432-.095-.255-.166-.217-.367-.349-.353-.197-1.818-.502-1.898-.747-2.076-1.157-2.99-1.735-2.287-1.736M440.641 107.707l-.77-1.616-.51-.73-.543-.519-.633-.526-.693-.438-1.739-.59-1.001-.145-.464-.062-.3-.058-.189-.079-.147-.138-.138-.242-.085-.238-.258-.958-.397-.667-.255-.51-.454-1.097-.227-.33-.24-.144-.332-.1-.45-.04-3.218.116-1.15.096-.99.225-1.45.579-2.92 1.342M440.641 107.707l-.737.706-.235.515v.602l.251.78.276.803.648 1.454.187.707.056.514-.073.683-.462 3.56-.64 2.156-.296.707-.807 1.599-.207.434-.29.47-.317.38-.479.5-3.021 2.448-.636.5-.57.403-.49.267-.665.278-1.01.377-1.013.422-3.47 1.808-.409.208-.336.322-.13.261-.138.554-.194.872-.183.715-.008.27.081.268.159.314.166.208 1.982 2.797.369.59.238.26.406.314.446.217 1.872.928.807.438.596.249.648.14 1.038.262.96.277 3.871 1.33.908.353" clip-path="url(#pbc3a83ca58)" style="fill:none;stroke:#000"/><path d="m469.638 104.653-1.094-.04-10.336.016-1.395.024-1.288.113-2.205.345-3.34.74-4.54 1.132-2.82.425-1.979.299M469.638 104.653l4.45-.024 10.887.008 6.915.097 7.296.136.778.048.405.193.381.394.414.482 2.618 4.804.413.679.227.201.26.12.4.057.58-.008 5.213.373 1.69.105.446.04.344.085.552.176 2.626 1.016 3.332.78 4.79 1.253 5.116 1.824 1.403.787.389.342.336.34.39.652.558.94 3.53 6.507.86 1.374.332.474.47.715.535.948.763 1.864 1.686 3.14.843 1.487.656.756.698.433 1.637.458M578.676 120.731l-.568.708-.16.162-1.17 1.097-.228.23-2.577 1.763-.906.425-5.722 2.283-2.025.748-6.163 2.046-.833.32-1.178.548-1.75 1.06-5.805 3.76-4.734 2.828M510.98 176.535l.99-.413 1.645-.542 5.74-1.803 1.264-.318 1.488-.269 1.365-.27.949-.292 1.094-.555.775-.542.587-.647.981-1.249 2.375-3.418 2.172-2.893.94-1.092 3.73-3.631.616-.772.519-1.028.583-1.51 2.27-7.809.487-1.093.42-1.446.228-1.381-.064-1.318.032-1.093.227-.61.421-.579 2.043-1.253M193.284 438.498l.834-1.418.2-.361.216-.365.203-.436.176-.486.648-2.163.365-1.301.308-.892.308-.883.365-.804.381-.739.373-.61.916-1.703 1.135-2.09.527-1.108.713-1.486.381-.956.284-1.108.437-1.944.325-1.398 1.475-4.74 1.613-4.257 2.088-5.334.283-.755.235-.446.312-.49 1.638-2.55 1.18-2.338.145-.35.207-.349.292-.357.535-.602.649-.792.312-.478.49-1.016.843-2.193 1.719-4.595 1.208-3.382.194-.795.118-1.434-.017-1.446-.048-.835-.073-.68-.215-1.012-1.232-3.936-1.285-3.514-.231-.703-.146-.502-.073-.502-.17-2.442-.008-.803.08-1.013.268-3.338.418-3.755-.004-.35.032-.433.09-.318.202-.361.486-.522 3.417-3.39 1.698-1.751 1.979-2.33.393-.583.348-.598.79-2.049.848-3.71.465-2.266M216.872 538.06l-3.987-2.976-7.653-5.928-10.927-8.386-6.91-5.25-1.687-1.317-1.787-1.453-1.707-1.338-3.429-2.462-2.265-1.739-4.09-3.093-2.93-2.209-5.537-4.297M162.56 532.779l.236-1.607-.009-.819-.097-.803-.422-1.563-.733-1.739-.207-.554-.097-.522-.28-1.542-.06-.659-.009-.73.138-2.427.333-3.261.543-4.161.332-2.964.405-2.418.146-.908.397-3.59.357-3.125.114-.803.316-.972" clip-path="url(#pbc3a83ca58)" style="fill:none;stroke:#000"/><path d="m193.284 438.498-1.419 2.378-.705 1.185-1.27 2-.214.426-.17.462-.442 1.425-.105.374-.138.285-.17.21-.467.453-2.39 1.96-2.558 2.056-.487.398-.145.185-.106.225-.077.293-.045.398-.022.213-.035.176-.048.163-.087.154-.154.2-.448.503-.112.183-.084.261-.035.322-.02.451-.081 1.057-.146.903-.146.77-.074.289-.064.184-.142.384-.616 1.534-1.972 4.59-.898 1.973-1.013 2.153-1.921 4.507-2.043 4.86-1.678 3.967-2.327 5.085-2.472 5.559-1.775 3.96M155.937 548.161l1.46-3.1.527-.796.818-1.421 1.427-3.053 1.508-3.935.705-2.386.178-.691" clip-path="url(#pbc3a83ca58)" style="fill:none;stroke:#000"/><path d="m157.72 530.915 1.598.394.745.152.657.217.648.354 1.192.747M165.34 549.487l-3.072.024-1.811.084-2.339.12-.235-.04-.231-.092-.401-.281-1.314-1.141M186.426 435.365l1.216 2.201.234.282.232.189.21.036.247-.02.388-.109.213-.066.202-.032.337-.02.348.05.56.116.32.02.693-.036.365.04.356.105.937.377M456.856 415.295l-.339-4.163-.02-.482-.291-7.936.583-10.507.681-1.446 3.113-3.213 2.594-4.627.162-.927-.421-1.162-.26-.482-.161-.45-1.2-1.762-1.038-1.708-5.901-7.772-1.816-9.773v-.9l.226-.22 4.216-.064 6.518-1.322 3.631.096 8.658-1.767.567-.203.13-.257-.065-.257-.746-.321-6.923-1.864-12.24-3.23-8.058-2.233-.567-.048-.228.193-.794 3.1-.778 3.134" clip-path="url(#pbc3a83ca58)" style="fill:none;stroke:#000"/><path d="m529.375 419.09-.38-.177-.705-.466-.734-.633-.892-.879-.731-.853-3.11-4.35-2.172-1.67-2.189-1.157-2.634-.952-2.034-.622-3.11-.586-2.322.12-2.643.353-12.516 1.848-6.939 1.125-16.294 2.554-3.91.688-7.338 1.514-1.866.348M356.27 523.497l11.511-2.181 12.646-1.285 11.89-2.012 3.84-.008 1.693.262.492.162.44.185.536.195.422.333 1.01.928M574.665 426.186l-.024.854.085.811.113.476.451 1.343.423 1.258.593 1.735.311.867.14.671.142 1.091.17 1.063.31.95.48 1.68.226.755v.447l-.113.392-.339.476-.706.81-.48.7-.564 1.063-.734 1.622-.593 1.035-1.496 2.154-.17.363.085.28.286.537M532.171 456.482l2.309-.45 10.052-1.542 1.686-.193 1.816-.257 2.237-.29 2.205-.192 6.583-1.028 4.929-.868.616-.129.68.032.713.067 1.27.07.773-.22.876-.546.745-.578 1.622-.321 1.978-.418M531.272 419.7l.783.167 4.097.13 4.71-.176 5.676.491 6.24-1.353 2.044-.11 1.215.657 3.48 2.245.719.219 14.43 4.216M531.272 419.7l-.192-.041-1.403-.428-.302-.14" clip-path="url(#pbc3a83ca58)" style="fill:none;stroke:#000"/><path d="m530.731 421.006-.38-.573-.467-.672-.509-.67M532.171 456.482l-.405-.187-.428-.297-.235-.318-.064-.763.663-8.31.706-9.434.214-2.14-.022-1.209-.128-1.971-.364-3.626-.3-2.332-.653-3.406-.282-1.063-.142-.42M531.272 419.7l-.286.453-.142.476-.113.377M546.57 470.825l-.364-1.005-.77-2.099-.535-2.035-.3-.721-.513-.72-1.262-.89-1.647-1.125-5.134-3.349-1.862-1.208-2.012-1.19M480.107 198.41 496 195.78l.31-.013.31.055.453.168.493.224.407.266M510.98 176.535l-1.113-.122-.406-.085-.363-.18M580.625 116.778l.123-.314.346-.693.969-1.41M570.728 97.062l2.868 4.61.184.206.344.159.541.182.651.147.381.17.21.256.097.34v.378l.025.353.086.195.922 1.45 1.29 2.18 1.474 2.033.344.584.283.512.467.95.344.84.344.828.48.926M580.625 116.778l-.685 1.75-.136.358-.584 1.087-.217.352-.327.406M576.341 117.504l.075.35.205.314.186.166.67.498.391.425.28.388.528 1.086M575.634 115.75l.242.221.149.222.149.388.111.535.056.388M580.625 116.778l-.625-.162h-.37l-.466.121-.602.159-2.22.608M383.026 393.742l.011-.228.179-.627.478-.851.608-1.205.403-.913M383.279 389.823l.21.016 1.216.079M381.588 378.776l-.262 2.77M381.326 381.545l-2.877 1.72M378.449 383.265l-2.953 1.73M375.957 379.06l-.46 5.935M375.496 384.995l-.104.857M375.392 385.852l-.354 3.188M375.038 389.04l-2.759-.256M374.186 395.062l.312-.688.056-.517.484-4.817M374.186 395.062l-1.552-.801M372.61 385.597l-2.692-.264M372.61 385.597l-.116 1.1M369.637 388.523l2.642.26M369.637 388.523l-.994-.027M367.053 391.34l1.442.784 4.139 2.137" clip-path="url(#pbc3a83ca58)" style="fill:none;stroke:#000"/><path d="m372.28 388.784-.427 4.15.957.623.088.065.015.125-.279.514M372.494 386.697l-.215 2.087M365.62 387.855l.752-.637M368.643 388.496l-2.014-.324-.336-.056-.674-.261" clip-path="url(#pbc3a83ca58)" style="fill:none;stroke:#000"/><path d="m364.975 388.602.488-.615.156-.132M365.278 389.377h.834l.2-.037 1.499-.577.832-.267M364.359 389.377l.616-.775M364.359 389.377h.92M365.278 389.377l-.186-.3-.075-.259-.042-.216" clip-path="url(#pbc3a83ca58)" style="fill:none;stroke:#000"/><path d="m367.053 391.34-.117-.261-.186-.231-.42-.36-.39-.36-.382-.369-.28-.382M391.348 394.255l-8.322-.513M391.348 394.255l3.94.328M421.7 414.045h.538M272.676 430.862l25.936 19.967M284.436 469.292l5.958-7.659 4.329-5.72 3.889-5.084M289.028 470.394l-.48.791-4.112-1.893M260.867 499.198l4.17-5.048 2.432-3.069 2.678-3.462M281.747 491.396l-.534-.806-.343-.381-.235-.191-.342-.085-.385-.02-1.049-.022-.813-.064-.556-.085-.513-.084-.664-.17-1.668-.509-1.626-.445-1.776-.487-.599-.191-.497-.237M260.867 499.198l3.36-.217M216.872 538.06l-3.311 4.405M471.577 612.412l-.753.347-.836.377-.578.244-.59.207-.626.098-.516.048-.516-.048-.479-.147-.602-.304-.664-.463" clip-path="url(#pbc3a83ca58)" style="fill:none;stroke:#000"/><path d="m471.577 612.412-.991-.128-.664-.012-.65.012-.75.122-.614.146-.787.243-.417.061-.615-.036-.672-.049M472.728 611.883l-1.15.53M447.522 614.507l-.478-1.725-.222-.865-.073-.414-.099-.913M450.277 591.787l.222.89.199.75" clip-path="url(#pbc3a83ca58)" style="fill:none;stroke:#000"/><path d="m449.13 592.853.117.046.503.144.389.096.559.288M451.686 572.554l-.522 3.496-.487 2.586-.34 1.253-.535 1.446-.99 1.783-.183.442M449.66 589.7l-.977-2.677-.211-1.35-.032-.887.032-.559.157-.667M446.602 585.876l.959-1.332.373-.337.695-.647M449.13 592.853l-.596-.228-.422-.257-.47-.353-.357-.402-.518-.739-.422-.482-.421-.305-.357-.385-.146-.306-.113-.546.032-.675.065-.498.065-.273.47-.61.662-.918" clip-path="url(#pbc3a83ca58)" style="fill:none;stroke:#000"/><path d="m449.66 589.7-.526-.208-.697-.562-1.022-1.044-.405-.466-.179-.29-.113-.4-.116-.854M449.66 589.7l.617 2.087M449.13 592.853l.603-.292.276-.273.268-.501M445.113 595.115l.908-.128.405-.112.243-.274.162-.321.163-.29.291-.24.228-.145.454-.193.535-.257.628-.302M452.567 567.48l-.188 1.196-.437 2.169-.256 1.709M448.936 570.024l.962.896 1.788 1.634M447.76 564.773l-.04.525M447.78 560.13l.13.509.341.763.193.594.021.36-.107.615-.17.615-.322.72-.107.467" clip-path="url(#pbc3a83ca58)" style="fill:none;stroke:#000"/><path d="m444.138 567.739.681-.803.373-.45.502-.45.438-.354.665-.401.962-.508M448.358 556.908l-.17.806-.194.636-.214.7-.02.593.02.487" clip-path="url(#pbc3a83ca58)" style="fill:none;stroke:#000"/><path d="m448.358 556.908-.43.548-1.035.675-.235.373v.35l.4.582.722.694M448.636 555.008l-.064.29-.107.614-.107.996" clip-path="url(#pbc3a83ca58)" style="fill:none;stroke:#000"/><path d="m451.92 552.265-.48.17-.408.298-.62.466-.385.402-.407.488-.706.7-.278.219M444.942 556.081l1.034-.466 1.881-.583.78-.024M451.92 552.265l-.12-2.926M452.567 567.48l.023-.153.037-.425-.313-4.33-.291-7.84-.103-2.467M447.72 565.298l.374.369M448.936 570.024l-.107-.1-.663-.72-.236-.488-.17-.552-.129-.827v-.847l.089-1.192M452.567 567.48l-.615-.11-.486-.129-.664-.257-.616-.257-.827-.322-.616-.289-.357-.208-.292-.241" clip-path="url(#pbc3a83ca58)" style="fill:none;stroke:#000"/><path d="m448.936 570.024.001-.903-.049-.627-.226-1.044-.195-.74-.162-.545-.21-.498M366.372 387.218l-1.32-1.692-.208-.568.19-.417 3.169-2.444M406.03 413.282l-1.504 1.28M363.95 448.147l15.202-12.007M378.436 406.563l-14.43 11.87M364.005 418.432l-16.964 14.183M364.005 418.432l15.147 17.708M379.152 436.14l25.374-21.579M276.248 533.135l-1.172-1.132-2.625-2.63-.255-.167-.211.028-.452.182-.437.265-.819.28-.55.196-.636.266-.776.279-.62.168-2.132.588-1.073.335-.522.168-1.524.63-1.002.475-1.694.853-1.566.685-.565.238-.48.266-.41.28-.408.335-.82.671-2.554 1.706-1.058.56-1.242.49-.396.126-.62.153-9.203 1.287-4.361.56-.41.013-.296-.14-.254-.182-.212-.279-.536-1.105-.325-.644-.155-.307v-.294l.085-.308.409-1.37.141-.574-.07-.377-.184-.307-.593-.644-.37-.464M297.43 323.634l.89.195 1.39.17.493.042.407.297.449.424.492.636 2.524 2.29.685.466.406.148.663.064.856.17.642.19.577.234.728.381.449.254.235.255.064.276-.021.487v.275l.214.191.492.467 1.07 1.144.92.87.449.254.492.297 1.668 1.717.492.403.556.36.75.255 3.871 1.738.386.127.214.276.15.36.085.467-.034.633-.123.243-.208.292-1.119 1.583-4.963 6.393-1.684 2.155-.798 1.193-.738 1.06-2.027 2.63-.32.328-.172.049-.172.037h-.393l-1.093-.098-3.367-.402h-.455l-.295.06-.258.172-.16.146-.11.17-.11.366-.086.486-.074.28-.172.342-.197.28-.283.316-.307.268-.831.767M266.608 341.135l2.297.035h1.583l.406-.021.493-.276.577-.423.663-.636 3.124-3.858 6.16-7.844.643-1.166.492-.87.257-.509.449-.423.363-.255.642-.275.834-.15 1.541-.317 5.67-1.25.683-.15M297.43 323.634l-.372-.08-.877-.276-.856-.276-.684-.148-.77-.106h-.386" clip-path="url(#pbc3a83ca58)" style="fill:none;stroke:#000"/><path d="m297.958 320.278-.21.161-.779.515-1.037.674-.99.515-1.457.605" clip-path="url(#pbc3a83ca58)" style="fill:none;stroke:#000"/><path d="m297.43 323.634.27-.367.177-.305.05-.386-.017-1.109.048-1.189M299.272 315.57l-.292.628-.21.562-.276.787-.179.707-.227.98-.13 1.044M336.036 349.145l-.707-.128-.391-.075-.41.056-.559.24-.614.35-.28.333-.28.442-.297.61-.205.683-1.173 4.429-.298 1.033-.224.646-.205.517-.242.498-.26.406-.392.388-.633.553-.521.591-.54.646-.428.701-.54.978-1.62 3.433-.224.498-.485.979-.652 1.29M324.374 394.314l-4.115-1.884-.847-.448-.494-.363-.358-.41M420.999 481.466l-3.639-8.506-1.982-5.134M407.26 472.626l1.34-.475.258-.073.615-.024.27-.012.245-.085.221-.159 5.169-3.972M356.27 523.497l-.161-3.889.319-11.47" clip-path="url(#pbc3a83ca58)" style="fill:none;stroke:#000"/><path d="m304.896 492.8 4.522-.754.553-.085.27-.037h.197l.393.012.32.061h.27l.344-.024 3.858-.755.455-.11.258-.17.209-.207.147-.122.246-.036h.246l.258.133.184.208.258.45.81 1.912 3.429 7.719 2.838 6.562.221.414.492.755.344.5.43.425.307.232.356.182.59.134.664.134.577.061.48.134.392.17 2.114.95.455.134.503-.012 8.601-1.376 1.708-.28 3.576-.694.479-.049 1.007-.097 3.133-.353 5.038-.782M420.999 481.466l-.924.134-.258.097-.455.268-.48.243-.896.353-.64.268-.343.195-.344.195-.258.024-.651-.158-.48-.024-.343.133-2.126 1.084-.43.34-.32.183-.774.414-.442.22-.32.207-.417.353-.48.56-.319.377-.442.378-3.269 2.569-.922.791-.331.232-.344.073-2.457.17-.517.06-.528.11-.38.11-.468.146-.737.195-2.027.365-.357.012h-1.2530000000000001l-.442-.073-.467-.17-.602-.304-.344-.147-.332-.06-1.118-.073-1.057-.05-.32.013-.442.06-.515.122-.787.183-.38.085-.75.22-2.691.67-.394.06-.847.146-.823.134-.59.073-7.028 1.424-.787.17-.344.099-.307.158-.246.146-.282.22-.246.255-.147.256-.086.328-.037 1.376-.013.244-.073.243-.099.28-.233.475-.27.378-1.376 1.935-.21.366-.27.571-.233.439-.283.45-.516.78-.16.219-.344.304-.282.244-.454.414-.934 1.035-.529.572-.283.219-.246.146-.233.11-.43.097-.872.11-1.388.182-6.697.862M344.41 525.529l9.841-1.65 2.02-.382M447.652 523.567l-.298-.885-.957-2.554-.605-1.036" clip-path="url(#pbc3a83ca58)" style="fill:none;stroke:#000"/><path d="m447.16 524.634-.634.018-.608-.035-.538-.105-.616-.113-.6-.13-.396-.124-.273-.14-.15-.174-.053-.253.045-.166.131-.087.477-.113.422-.097 1.092-.244.168-.06.176-.124.176-.279.22-.454.053-.2-.044-.148-.114-.167-.405-.646-.106-.366.053-.646.156-.69M447.16 524.634l.176-.06M440.338 526.965l.36.477.335.317.266.12h.375l.186-.067.147-.212.04-.304.027-.397.04-.53.053-.303.107-.16.214-.105.32-.053.281.026 2.15.424.347.013.294-.026.24-.16.187-.343.374-.543.479-.505M447.652 523.567l-.034.273-.053.305-.123.297-.106.131M448.21 525.23l-.333-.357-.243-.18-.298-.12M447.652 523.567l.559 1.663M455.108 629.283l-.196-.016-.38.075-1.605.42-.489.075-.434.022-.607.064-1.39.215-.162-.042-.119-.13-.032-.129.042-.18 4.102-2.89.603-.392" clip-path="url(#pbc3a83ca58)" style="fill:none;stroke:#000"/><path d="m455.326 628.788-.131-.22-.228-.247-.37-.376-.39-.29-.108-.215.043-.226.299-.84M455.869 628.768l.192.99M455.326 628.788l.075.017.282-.032.186-.005M455.108 629.283l.26.092.325.15.368.233M455.108 629.283l.218-.495M451.8 549.339l-.053-1.274-.2-2.437M451.8 549.339l-.768-.93-1.371-1.217.041-.507.225-.324.716-.122.904-.61M340.362 408.245l-5.311 4.394M340.362 408.245l-3.697-3.707M335.05 412.64l-2.17-2.661M446.73 356.971l-2.319-.6" clip-path="url(#pbc3a83ca58)" style="fill:none;stroke:#000"/></g><g id="PatchCollection_1"><path d="m411.718 411.275 2.272.444 1.006 5.683-4.73-1.18zM410.936 418.362l-7.114 5.352 1.676 5.167 4.805-.258 1.788-1.18.782-1.404-.15-1.624.373-1.808-.037-2.4-.149-1.144-.447-.664zM440.537 410.349l.811-.682.688-.024.492-.707.983-.389h1.277l1.23-.024.982-.244.664-2.386 1.155-1.73 2.088-2.946.59-.95.27-1.68-.049-.998-.246-1.193-.048-2.095.417-1.778.738-1.704.736-.877.37 2.046-.296 2.46.369 2.75-.565 1.828-1.008 1.631-.86 2.484-1.523 2.338-.689 1.46-1.843 1.9-2.58 1.656-2.335.438-1.498.122-.59.292zM466.462 387.398l2.314 2.406 2.428-.336 1.693.392 3.84.448-3.387-1.12-1.017-1.118-.056-1.622.79-1.008 1.637-.391 2.71.223 2.484-.783.847-.95-3.444.503-2.822-.616-.34-1.175.452-2.74.734-1.96.904-.503 1.016-1.902-.17-.783-1.806 1.623-1.355.727-.339 1.119-.903.615-.282 1.23-.565 1.511-1.976 1.902-2.936.784.509 1.23-.509 1.455zM499.198 367.637l-.037 1.698 1.191.184 1.602-.406 1.714-.184 1.117-.443-.745-.406v-.923l.149-1.034-1.08 1.366-.969.222-.782-.37v-.885l-.41-.85v-.922l.485-1.292-1.192 1.55v1.218l-.298.813zM302.821 490.399l-.451.671-.283.727.085.42.339.112 1.072.168.367-.448.65-1.007 1.242-2.57.826-.328-.544-.309-.458-.582-.408-1.143-.32-1.241-.055-.8-.069-.544.167-.63.265-.393.283-.706-.095-.494-.242-.566-.314-.843-.376-1.343-.127-.361.093-.392.406-.466-.754-.06-.297-.036-.444-.12-1.023-1.263-.542-.7.21.787.103.277 1.462 2.578.155.377.217 1.402-.155.57-.56.388-.782-.037-.808.175.839.478.98.575.299.451.228.731v.813l.052 1.316-.188 2.104-.39 1.352zM439.942 419.793l2.825-.89.898 1.483-.6 1.993.172 1.484.129 1.357-.557 1.908-.556 1.865-.47 1.145-1.498.382-2.268-.382-3.722-.212-2.567-.297-1.155.382-2.311 1.441-3.38 1.866-3.294 2.162-2.396 1.696-1.626 1.06-.385 1.23.256.932 1.198.806 1.156.975.47 1.442-.47 1.399-1.584.763-.47.424-2.097-.763.942-.933 1.54-.466-.257-.933-.642-.679-1.24-.169-1.199-.424-.599-.975-.256-1.06.428-1.315 1.283-1.229 6.119-3.986 1.968-.975 2.738-2.162 2.91-1.484 2.396-1.06 5.818.763 2.268-.339.984-.551.6-1.484.127-.678-.641-.933-.043-1.993-.086-1.23-.984-.593z" clip-path="url(#pbc3a83ca58)" style="fill:#00f;fill-opacity:.8"/></g><g id="PatchCollection_2"><path d="m420.62 384.405-.522 4.32 3.05-.042.487-5.643-3.207-.332zM424.256 414.127l-1.93-.012-.011 1.338 1.892.037zM422.344 413.421l.118-.243 1.455.01.224.297-.192.202-1.466-.043zM424.334 413.199l.021.477.813-.021.129-.223-.13-.233zM426.612 413.347l-.117-.063h-.696l-.107.307.193.148h.578l.203-.169zM422.398 415.87l-.107.244.128.159 1.412-.032.214-.17-.096-.19zM424.494 415.87l-.192.212.085.223.278.148.482-.138.043-.19-.15-.255zM425.735 415.923l-.257.16.033.147.128.128.289.063.449.01.096-.307-.053-.17zM422.076 398.424l.158-1.91-2.442-.2-.158 1.91z" clip-path="url(#pbc3a83ca58)" style="fill:green;fill-opacity:.8"/></g><g id="PatchCollection_3"><path d="m413.203 382.908-.365 3.432 2.76.29.305-3.47zM416.265 383.25l3.99.455-.632 5.082-3.956-.414z" clip-path="url(#pbc3a83ca58)" style="fill:#90ee90;fill-opacity:.8"/></g><g id="PatchCollection_4"><path d="m421.279 415.626-.79-.016-.02.924.79.016zM424.724 414.144l2.024.06-.038 1.286-2.024-.06zM427.502 413.411l1.393.013-.007.814-1.394-.014zM415.445 427.072l-.371.116-.698.82-3.112 5.912 1.595 2.668.512 2.547 3.274-3.636 3.359-1.986.96-2.546-.254-.727-.536-.07-.622-.28-.747-.433.31-.518-.734-.447-1.51-.797zM295.908 417.917l.344-.223.48.73-.345.221z" clip-path="url(#pbc3a83ca58)" style="fill:#a9a9a9;fill-opacity:.8"/></g></g></g><defs><clipPath id="pbc3a83ca58"><path d="M147.415 86.4h443.17v554.4h-443.17z"/></clipPath></defs></svg>