<svg xmlns="http://www.w3.org/2000/svg" width="960" height="960" viewBox="0 0 720 720"><defs><style>*{stroke-linejoin:round;stroke-linecap:butt}</style></defs><g id="figure_1"><path id="patch_1" d="M0 720h720V0H0z" style="fill:#fff"/><g id="axes_1"><path id="patch_2" d="M90 591.879h558V135.32H90z" style="fill:#fff"/><g id="LineCollection_1"><path d="m380.268 369.371-.663.085M380.268 369.371l.734 5.296M380.268 369.371l-.426-3.917M370.96 370.719l.734 5.094M370.96 370.719l-.348-2.513M374.833 370.204l-1.522.222-2.35.293M371.694 375.813l-3.2.41M371.694 375.813l.857 5.414M375.527 375.236l-1.94.285-1.893.292M381.002 374.667l-.608.054M382.587 385.003l-.852-5.434-.733-4.902M365.36 376.614l2.24-.277M365.36 376.614l.965 5.494M365.36 376.614l-.616-4.59M367.174 387.373l-.85-5.265M367.174 387.373l-2.602.593M367.174 387.373l2.304-.338M359.886 383.133l-1.597-1.47M366.325 382.108l-4.771.797-1.668.228M361.101 384.31l-.52-.477-.695-.7M366.325 382.108l2.267-.353M381.118 379.866l.766 5.24M381.118 379.866l-.724-5.145M381.118 379.866l-4.907.755M380.394 374.72l-.757.016M381.884 385.107l-4.816.755M381.884 385.107l.703-.104M382.587 385.003l.852 5.872" clip-path="url(#p81eb9d28c5)" style="fill:none;stroke:#000"/><path d="m384.953 382.494-1.337 1.89-.284.269-.276.169-.47.18M362.291 385.307l1.382 1.45.378.493.52.716M366.133 391.33l-.994-2.187-.567-1.177M377.44 388.949l-.372-3.087M377.068 385.862l-3.718.519M377.068 385.862l-.857-5.24M376.21 380.621l-.683-5.385M372.55 381.227l2.29-.4 1.37-.206M375.527 375.236l-.694-5.032M375.527 375.236l2.8-.361M374.833 370.204l2.887-.401M374.833 370.204l-.53-3.836M376.766 348.592l-1.949.03-1.175-.038-1.758-.177M372.904 355.504l-.54-3.533-.236-1.878-.244-1.686M367.593 348.2l1.396-.016 1.001.069 1.002.085.892.07M367.593 348.2l1.194 7.882M363.648 352.432l-.149-2.57.039-.554.091-.37.485-.17.347-.103 2.004-.38 1.128-.086M369.035 357.862l-.248-1.78M368.787 356.082l4.117-.578M368.787 356.082l-4.69.657M372.904 355.504l4.84-.679M373.382 359.09l-.237-1.755-.241-1.83M378.343 354.741l-.18-1.139M378.343 354.741l-.6.084M378.864 358.413l-.253-2.102-.268-1.57M369.95 359.494l3.432-.404M373.382 359.09l4.804-.609M373.382 359.09l.418 3.624M378.864 358.413l-.678.068M378.864 358.413l.457 3.663M370.96 363.05l2.84-.336M373.8 362.714l4.811-.584M373.8 362.714l.504 3.654M379.321 362.076l-.71.054M379.321 362.076l.52 3.378M402.74 358.42l-2.138-.627-.28-.054-.24.008-.24.08-1.046.52-.252.2-.146.188-.083.255-.235 2.03-.071.144-.108.079-.158.051-.225.028-3.991-.093-3.147-.162-1.144-.107-.576-.008-.749.07-6.2.8-2.39.254M376.766 348.592l.977 6.233M376.766 348.592l.66-.01M377.743 354.825l.443 3.656M378.186 358.481l.425 3.649M378.611 362.13l.53 3.455M379.605 369.456l-1.885.347M379.605 369.456l-.242 1.166M379.14 365.585l.331 2.17.134 1.701M379.363 370.622l-1.547.222M379.637 374.736l-.063-.57-.126-1.708-.061-.83-.024-1.006M374.304 366.368l4.836-.783M379.14 365.585l.702-.13M377.72 369.803l.096 1.041M378.327 374.875l-.51-4.03M379.637 374.736l-.426.054-.884.085M372.55 381.227l-3.958.528M372.55 381.227l.8 5.154M373.35 386.38l.769 4.784M369.478 387.035l2.003-.347 1.87-.307M370.462 393.2l.049.207-.008.235-.036.204-.437 1.316" clip-path="url(#p81eb9d28c5)" style="fill:none;stroke:#000"/><path d="m368.202 393.816.92.596.908.75M373.043 397.07l-1.318-.615-.725-.416-.97-.877M369.478 387.035l-.886-5.28M370.042 390.674l-.33-2.03-.234-1.61M368.592 381.755l-.992-5.418M367.6 376.337l.895-.114M385.225 404.03l-.119-.945M385.225 404.03l.84.629M385.428 405.873l-.12-.791-.083-1.052M385.722 406.598l-.294-.725M385.722 406.598l.121.296M385.722 406.598l-.212-.005-.225.02-.293.068M385.722 406.598l.3.042M395.416 410.042l-1.582.312-.622.092-.655-.007-1.988-.224-1.585-.338-1.625-.454M386.673 408.149l.402.546.17.335.114.393M386.294 419.374l.024-.686.45-3.132.489-3.44.118-1.308.023-.693-.04-.692M385.843 406.894l.388.643.442.612" clip-path="url(#p81eb9d28c5)" style="fill:none;stroke:#000"/><path d="m385.172 407.28.352.248.221.14.324.189.604.292M386.294 419.374l-.205-.012M390.718 419.956l-1.878-.246-2.546-.336" clip-path="url(#p81eb9d28c5)" style="fill:none;stroke:#000"/><path d="m386.74 421.906-.123-.377-.173-.57-.087-.708-.063-.877M391.24 398.386l2.934-.746M393.204 394.654l-.213.17-.28.13-.3.05-.418-.015-1.743-.324-.124.004-.113.043-.063.08-.004.115 1.293 3.48" clip-path="url(#p81eb9d28c5)" style="fill:none;stroke:#000"/><path d="m385.106 403.085.334-.145.095-.074.061-.106.031-.158.044-2.53.075-.274.158-.195.252-.17 5.083-1.047M394.174 397.64l-.97-2.986M394.174 397.64l4.661-1.409M417.348 390.298l3.289-.316M420.637 389.982l-.292.697-.334.643-.11.092-.164.046-.169.004-.19-.05-2.03-1.116M417.348 390.298l-1.107.103M429.722 388.341l6.73-.922M429.722 388.341l.411 3.186M422.972 389.567l4.354-.777 2.396-.449M430.646 395.7l.071.62.04.135.07.092.119.046.164-.008 2.175-.664M430.133 391.527l.513 4.173M430.133 391.527l4.291.156M436.451 387.42l-.93 1.423-.363.608-.182.477-.181.647-.37 1.108M430.646 395.7l1.363-.596.436-.289.323-.353 1.412-2.271.244-.508M422.972 389.567l-.32-3.205M420.637 389.982l.844-.146 1.49-.27M422.653 386.362l1.273-.143M422.653 386.362l-6.817.917M427.168 383.371l-1.302-2.293M427.168 383.371l.288.478M429.723 384.14l-.674-1.311-.142-.081-.138-.012-.162.039-1.439.596M412.868 385.681l2.715-.347M423.973 384.349l-8.39.985M423.973 384.349l-.047 1.87M427.456 383.849l-1.504.236-1.979.264M418.35 383.34l4.566-.723.817-.106.108.017.08.053.052.09v1.678M427.456 383.849l.335.715.294.827-.004.118-.03.106-.085.071-.12.046-3.92.487M399.758 400.18l-.639 2.763-.662 2.578-.355.923-.462.919-1.265 1.836-.395.424-.564.42" clip-path="url(#p81eb9d28c5)" style="fill:none;stroke:#000"/><path d="m405.737 405.752-1.735.35-.588.165-.525.223-.528.354-.788.616-.6.454-.757.4-2.311 1.055-1.278.554-.375.092-.386.035-.45-.008M400.374 398.51l-.348-.718M399.758 400.18l.229-.67.387-1M402.692 394.839l-.098.465-.099.316-.173.327-1.452 1.948-.496.615M399.7 397.111l-.005-1.172M399.7 397.111l.326.68M398.835 396.231l.5.49.364.39M398.835 396.231l.86-.292M402.692 394.839l-.555.193-2.442.907M395.294 390.99l.775.658.928.882 1.68 1.646.45.555.32.562.248.646M395.294 390.99l-.103-2.12M391.735 388.8l1.516.92 2.043 1.27M393.204 394.654l.45-.608 1.64-3.056" clip-path="url(#p81eb9d28c5)" style="fill:none;stroke:#000"/><path d="m394.514 388.687-1.969.052-.434.02-.376.042M384.788 390.579l.619-.2.978-.27 2.93-.742 2.05-.493.37-.073M413.956 390.721l-1.336.413-4.611 1.942-2.047.767-2.649.818-.62.178M402.66 388.274l.04 1.624-.031 2.193.023 2.748M395.191 388.87l-.677-.183M396.153 385.034l-.362 1.154-.323 1.262-.277 1.42M383.439 390.875l.217 1.355M383.439 390.875l1.349-.296M382.528 392.819l.366-.751.545-1.193M379.621 395.854l-.208 1.274M379.621 395.854l.655-.615M378.288 397.009l.249-.108.311-.227.773-.82M368.202 393.816l2.26-.615M367.166 393.48l.657.186.38.15M367.166 393.48l.49 2.19M366.133 391.33l.6 1.223.433.926M372.792 315.78l-.648-5.602M372.919 316.74l-.094-.666-.033-.294M363.434 311.853l.94.99 1.136 1.192.797.477.97.216 1.349.146 1.364-.078.529-.107.631.4.8.467.47.13.372.094M369.925 330.887l-.647-5.233M368.063 317.173l.888 6.02M368.063 317.173l3.827-.356M368.063 317.173l-3.799.3M369.08 290.472l-2.284.377M369.08 290.472l.228 1.557M358.28 215.093l1.866 13.143 5.522 38.387 2.395 16.915 1.016 6.934M367.293 310.925l-.954-5.241M367.293 310.925l-3.96.316M372.144 310.178l-1.183.124-3.668.623M364.288 291.314l-2.193.393M364.288 291.314l.851 6.735M364.288 291.314l-.975-5.194M366.796 290.849l-1.288.256-1.22.21M361.432 298.526l3.707-.477M361.432 298.526l.847 5.213M362.095 291.707l-.65.223-.435.277-.252.266-.11.223-.004.273.788 5.557M365.991 303.314l-.347-2.202-.505-3.063M362.279 303.74l3.712-.426M362.279 303.74l1.054 7.5M365.991 303.314l.348 2.37" clip-path="url(#p81eb9d28c5)" style="fill:none;stroke:#000"/><path d="m371.213 305.007.657 3.795.179 1.038.095.338M369.278 325.654l-3.52.172-.153-.012-.123-.065-.059-.092-1.159-8.183M363.434 311.853l.213 1.215.617 4.406M372.919 316.74l-1.029.077M372.919 316.74l1.49 10.624M371.89 316.817l.79 5.879M368.951 323.192l3.73-.496M369.278 325.654l-.167-1.11-.16-1.352M372.68 322.696l.44 2.654M369.278 325.654l3.843-.304M374.606 328.763l-.624-.116-.186-.07-.126-.104-.067-.146-.482-2.977M366.339 305.684l4.874-.677M371.213 305.007l-.86-5.854M385.428 405.873l-.2.336-.141.255-.095.217M384.992 406.681l-.343.098-.34.12-.594.23M384.992 406.681l-.022.142.013.147.054.124.135.187M383.715 407.13l.497.076.41.077.26.023.29-.025M380.796 406.875l1.475.108 1.444.146M380.796 406.875l-1.798-.192M380.138 402.243l.233 1.885.425 2.747M374.347 407.098l.242.316.26.17.276.06.32-.034.73-.223 1.123-.354.92-.204.78-.146M377.837 403.834l.302.101.137.096.09.147.632 2.505M385.172 407.28l.202-.042.17-.078.166-.125.133-.14M385.843 406.894l.179-.254M384.14 402.527l.438.246.528.312M383.778 393.584l.323 2.41.6 4.34.405 2.751M384.14 402.527l-.449-.254-.457-.146-.56-.078-.497.009-.608.038-1.43.147M379.61 398.764l.255 1.643.273 1.836M379.61 398.764l-.378-.022M379.61 398.764l3.953-.287M379.413 397.128l-.076.633-.105.981M376.674 400.774l2.403-.394.118-.07.063-.111.02-.154-.046-1.303M379.413 397.128l-1.125-.12M375.662 404.135l-.141-.988M375.662 404.135l2.175-.3M373.406 403.162l.047.958.042.096.07.048.123.023 1.974-.152M375.253 401.045l.268 2.102M375.253 401.045l-.451-4.106M375.253 401.045l1.42-.27M376.674 400.774l1.163 3.06M373.043 397.07l.536.008.742-.07.481-.069M378.288 397.009l-.248.042-.32-.027-1.179-.239-.5-.034-.553.058-.686.13M383.78 399.733l.258 1.424.047.516.056.854M373.406 403.162l-.363-6.092" clip-path="url(#p81eb9d28c5)" style="fill:none;stroke:#000"/><path d="m375.52 403.147-1.4.088-.363-.012-.351-.06M369.352 402.62l2.566.306 1.028.141.46.095M368.894 401.85l.458.77M368.894 401.85l-.742.192M368.894 401.85l-.67-4.795-.103-.385-.161-.4-.304-.6M367.656 395.67l-.178.661-.067.393-.008.439.213 1.577M346.044 382.732l-2.47-5.071-.114-.258-.055-.25.008-.231.466-2.282.053-.1.075-.056.124-.039.777-.063 5.75-.462 3.076-.33 2.572-.309M354.43 369.547l.647.893.569 1.031.399.887.26.923M357.363 378.983l-.361-1.509-.696-4.193M343.906 348.646l1.988 3.278.378.724 2.398 5.503.52 1.17.142.577.103.561.22 1.961.15.887.19.608.324.593 2.03 2.453 2.082 2.586" clip-path="url(#p81eb9d28c5)" style="fill:none;stroke:#000"/><path d="m345.302 372.18 3.926-.249 5.203-2.384M343.117 383.056l1.396-.162 1.53-.162M355.8 381.863l-1.214.069-1.089.007-1.348.101-2.217.208-3.888.484M338.637 383.471l.3 2.132M338.637 383.471l2.666-.238M335.49 383.88l.489-.086 2.658-.323M339.491 388.697l-.554-3.094M339.491 388.697l-2.76.16M339.942 393.141l-.235-2.975-.216-1.469M344.844 388.304l-2.764.203-2.589.19M332.9 389.228l3.832-.372M354.034 388.45l-.6-.615-1.325-1.604-.315-.247-.344-.131-.453-.026-5.088.345-1.128.133-.092.049-.048.078-.01.09.213 1.782" clip-path="url(#p81eb9d28c5)" style="fill:none;stroke:#000"/><path d="m354.034 388.45-1.964.759-.56.162-.39.038-.34-.03-.394-.124-1.1-.574-.604-.284-.422-.139-.414-.08-.71-.039-2.292.165M336.732 388.856l-.426-2.388-.004-.25.083-.169.19-.107 2.362-.339M336.732 388.856l.425 1.954M341.252 382.74l-.099-.373-.11-.227-1.247-2.394-.48-1.054-.545-1.416M341.303 383.233l-.051-.493M341.303 383.233l1.814-.177M357.488 381.67l.288-.023.241.004.272.011M357.363 378.983l.112.57.22.777.3.761.294.571M355.8 381.863l.987-.116.701-.077" clip-path="url(#p81eb9d28c5)" style="fill:none;stroke:#000"/><path d="m361.101 384.31-.797.096-.899.139-.209.003-.173-.053-.118-.12-1.417-2.705M335.49 383.88l-1.694.096M333.873 385.34l.686-.668.418-.4.513-.393M333.873 385.34l-.077-1.364M326.167 386.304l1.759.154 1.23.045 2.485-.122.694-.108.465-.162.458-.262.615-.51M326.167 386.304l.023-4.75M313.873 386.062l.501-.021 3.298.055 3.944.03 3.328.078 1.223.1M297.78 382.001l3.336 1.27 1.798.678 2.193.908 1.853.792M313.247 386.057l-1.744-.143-2.65-.142-1.893-.123M306.78 386.912l.117-.624.063-.639M307.055 381.97l-.012 1.682-.083 1.997M297.78 382.001l1.788-3.706M291.887 380.77l.62-.034.512.015.39.027.45.1.67.192 3.25.931M267.594 368.06l.997.766 1.085.769 1.49 1.085 3.037 2.01 2.658 1.8 2.477 1.524 1.877 1.008 1.357.623 1.27.5 1.278.409 1.254.422 1.293.493 1.183.431 2.13.747.426.084.481.039M297.685 390.86l-1.357-2.625-.9-1.693-1.056-1.77-2.485-4.002M277.594 366.127l.23.497.276.477.268.347 1.12 1.285.56.562.339.277.402.223 2.162.962 3.935 1.609 1.2.577.453.269.24.204.182.224.769 1.061.324.335.43.431.165.216.11.215.09.281.28 1.612.15 1.347.064.374.063.284.114.258.367.716M343.117 383.056l-1.865-.316M333.656 381.261l.678.06.407.076 2.76.604 3.751.739M333.796 383.976l-.067-1.564-.073-1.15M329.882 381.278l1.759-.2.512.008 1.503.175M357.363 378.983l-1.298.744-.134.146-.051.204-.08 1.786M362.291 385.307l-.575-.473-.615-.524M394.514 388.687l.543-2.037M395.057 386.65l.886-3.078.059-.112.08-.054.104-.02.148.031.109.082.035.07.009.087-.014.1-.32 1.278" clip-path="url(#p81eb9d28c5)" style="fill:none;stroke:#000"/><path d="m402.424 385.349-.769.3-.619.2-.556.073-.493-.027-.536-.123-1.594-.515-.457-.127-.434-.054-.813-.042M408.903 371.066l-.587 1.838-.26.916-.161.35-.241.312-1.893 2.07-.45.42-.256.3-.17.342-.11.439-.348 1.586-.398 1.689-.24.708-.213.52-.458.923-.284.53-.193.528-.217.812" clip-path="url(#p81eb9d28c5)" style="fill:none;stroke:#000"/><path d="m402.66 388.274-.046-.947-.103-1.054-.087-.924M405.358 495.3l-.532 2.64M424.541 463.898l.123 1.004-.064.912-.284 1.12-.295.97-.557 1.177-.725 1.285-.611.95-.837.982-.812.873-1.002.878-1.222 1-1.341 1.228-1.104 1.131-1.787 2.154-2.17 2.744-1.722 2.205-.573.774-.844 1.17-.682 1.192-.84 1.804-.63 1.54-.848 2.901-.356 1.408M403.213 495.716l.686-.008.71-.131.75-.277M404.826 497.94l-1.613-2.224M409.065 509.73l-2.59-5.53-.938-1.91-.372-.903-.228-.761-.134-1.097.003-.892.02-.697M353.863 185.445l.995 6.39M379.337 181.456l-1.42.015-24.054 3.974M409.725 511.123l.212.504.344.762M414.662 516.694l-1.317-.793-1.132-.92-.722-.653-.453-.543-.757-1.396M416.02 514.068l-1.515-.894-2.164-1.217-.355-.119-.31.023-.63.202-.765.326M415.575 517.131l-.913-.437M415.575 517.131l2.47 1.185M415.575 517.131l.116.748M422.426 520.629l-.81.102M421.495 520.03l.34.169.591.43M423.664 521.724l-.16-.17-.284-.276-.477-.42-.317-.229M424.135 522.227l.51.652.815 1.175 3.77 4.96 3.345 4.029 3.166 4.105 1.038 1.355 1.04 1.381.81 1.162.717 1.193.615 1.223.765 2.819M446.69 560.727l-.513-.48-.665-.605-.509-.571-.392-.472-.576-.962-.48-.892-.462-1.386-.643-2.291-1.724-6.787" clip-path="url(#p81eb9d28c5)" style="fill:none;stroke:#000"/><path d="m449.766 525.99.087.377.126.47.773 2.708 1.561 3.863 1.523 3.225.248.596.406 1.15.418 1.336.39 1.054.541 1.474.126.846.064.87.017.733-.057 1.144-.213 1.37-.55 3.832-.065.14-.138.053-.182-.043-.124-.076-.183-.193-.422-.508-.466-.361-.844-.516-.87-.404-2.537-1.012-1.396-.508-2.378-.712-1.27-.28-1.21-.224-1.157-.1-.656-.027-.602.014M271.238 501.564l-.237-1.4-.047-1.062.118-1.208.244-1.155.205-1.008.229-1.985.166-.954.134-.554.166-.54.402-.992 1.451-2.978.56-.962.978-1.47 1.183-1.678 1.325-1.724 1.223-1.454 2.059-2.501 1.648-1.909 3.36-3.74 1.349-1.33M359.65 406.672l-4.283 3.412-.97.916-1.862 2.155-1.534 2.078-.351.45-.584.647-.735.57-3.97 2.408-3.396 2.112-5.205 3.248-2.958 1.893-5.08 3.483-.923.689-.418.365-.43.508-3.186 3.383-.734.715-.701.616-.553.293-2.275.592-.56.154-.344.185-.315.35-.291.508-.356.646-.378.52-.572.638-.678.7-5.892 5.684-1.653 1.74-.43.534-.201.29-.17.395-.339 1.186-.418.984-.473 1.112-.501.839-.532.79-.702.726-.71.539-.868.543-.887.342-.848.397-.781.492-.805.62-1.064.984-.533.497-.525.685-.638 1.139-.698 1.381-.237.412-.249.366-.449.492-.477.362-1.294.908-1.774 1.443-1.621 1.35-.987 1.028-1.498 1.793" clip-path="url(#p81eb9d28c5)" style="fill:none;stroke:#000"/><path d="m296.43 392.453-1.411 1.94-2.343 3.416-.292.3-.316.2-.504.162-.726.177-.287.162-.186.22-.154.384-.146.727-.268 1.824-.45 2.263-.654 2.562-.513 1.825-.11.542-.06.639-.224 2.828-.197 3.378-.356 2.24-.15 1.24-.054.792.102.846.355 1.486.844 2.347.643 1.428.998 1.558.431.727.243.62.079.506.035.471.095.862-.008.635-.142.793-.382 2.335-.13.843-.06 1.232.016.5-.008.3-.071.229-.268.43-.718.991-.92.922-.222.262-.144.25-.088.533-.103 1.83-.069.648-.134.516-.177.566-.056.35.016.538-.04.547-.102.523-.162.574-.086.469-.06.657-.09 1.401.047 1.697.19 1.305.189.947.26.788.154.57.07.654-.027.842-.04 1.513v2.455l-.177 4.929-.032 2.844.1.908.145.696.229.812M411.944 406.96l-.835-.066-.631-.111-.758-.223M405.737 405.752l.939.107.765.162 1.002.246 1.277.293" clip-path="url(#p81eb9d28c5)" style="fill:none;stroke:#000"/><path d="m417.23 403.981-.86.108-.939.17-3.147.946-.82.323-.845.47-.899.562M381.958 438.184l.388.987.156.422.318.904" clip-path="url(#p81eb9d28c5)" style="fill:none;stroke:#000"/><path d="m381.451 438.544.316.392 1.053 1.56M383.652 444.797l-.083-.762-.13-1.34-.067-.723-.064-.422-.134-.343-.157-.343-.197-.367M363.072 403.546l.45-.315M359.65 406.672l.494-.446 2.125-1.936.803-.744M359.943 403.41l1.951.092 1.178.044M630.138 393.395l7.131-30.317M436.451 387.42l5.482-.894 5.285-.908.615-.207.426-.231.426-.323 3.124-3.333 2.208-1.74 1.483-1.277 3.928-2.216 6.815-4.033 1.53-.616 1.751.2 3.14-.015 4.7.385 3.172.754 2.791.705 2.509-.29 2.603-.769.952-.197 3.417-.234 3.345-.323 1.846-.185 1.182.015.71.308.568.4 1.894 2.448 1.995 2.416 1.057 1.64 1.23 1.454 1.05 1.524.394.97-.04.862-.157.6.157.824 1.073.992.844.524 1.286.377 1.34 1.008 1.2 1.047 1.356.639 2.95 1.108 1.838.546.679.077 1.853-.207 2.901-.975.617.174.907.677.331.732 1.16.977 2.177 1.316 2.547 1.493 1.152.939 2.31.93 1.113.332 1.136-.315 1.144-.286 2.319-.076 2.263-.339.568.016.79.138 1.577-.17.978.416 1.42.739 1.435 1.186 2.871 1.862 3.17 2.047 1.515.416 2.303.107 2.02.677 1.514.97 1.246.123 1.862 1.093.347.477.63 1 .648 3.187.678 1.14 1.23 1.785 1.136 1.077.884 1.093 1.53 1.447 1.735 1.877 3.03 2.017.835.662.568.738.6.554.52.154.517-.138.292-.304.28-.558 1.924-4.371 1.436-2.263 1.735-2.74.836-.477.773-.97 1.735-3.54 1.467-2.032 2.414-3.54 2.398-2.863 2.729-3.448 1.483-2.416.868-1.585.315-1 .804-.185 1.216-.293 2.413-.893 1.562-.97 1.609-1.385 2.54-1.231 1.198-.57 1.72.2 1.767.508 2.044.998 1.08.726 2.255 1.386 4.575 2.57 1.978 1.127M636.078 396.266l-.062-.412-1.025-.785-4.853-1.674M325.213 296.56l-.49 1.243-.268 1.116-.15 1.662-.04 1.147.08 1.093.157.862.347 1.023.79 1.782.425 1.305 1.85 6.569.73 3.367.07.877-.062.916-.506 3.371-.102 2.194.087.947.213.67.339.676 2.635 4.303M335.013 336.755l-.572-.578-3.123-4.494M332.643 334.954l-1.089-2.074-.11-.281-.068-.324-.058-.592M299.568 378.295l7.492 3.337M301.265 374.938l-.847 1.48-.85 1.877M382.556 418.396l.551 2.193M382.556 418.396 380 412.455M382.556 418.396l3.533.966M124.125 210.128l-2.957.477-2.872.593-7.287.8-2.398.324-1.901.292-.876.254-.639.308-.552.37-1.46 1.516-1.222 1.2-1.23.678M326.19 381.555l3.692-.277M313.807 382.37l3.486-.022.473-.062.49-.177 1.561-.577.32-.089.335-.026 5.718.138M302.155 373.2l-.89 1.738M302.155 373.2l2.534 1.262M296.738 362.272l2.998-.065 1.159.1.71.184.528.19.21.153.117.208.048.215.098 5.076.08 2.748-.056.569-.11.508-.365 1.042M307.055 381.97l6.752.4M307.055 381.97l.005-.338M175.919 146.483l-1.021-.288-1.215-.37-2.713-.954-2.13-.339-1.372-.43-1.041.169-1.783.57-.962.661-2.13 1.294-3.66 1.539-1.893.77-1.561.893-.52.908-.206.77.126.846-.568 1.97-.915 4.188-.205 1.478.094 2.11.127 2.431-.458 3.033-.364 1.704-3.343 5.162-.946 1.632-1.725 2.08-.705 1.922-2.871 5.358-2.904 6.938-13.503 11.7-1.427 5.9M240.46 252.138l-2.777-3.325-1.672-1.878-1.553-1.082-11.658-7.558-.923-.348-1.305-.26-1.18-.235-2.476-.539-2.264-.808-4.378-1.678-3.352-1.07-3.85-1.123-2.137-.478-3.186-.554-2.098-.115-2.54-.039-4.15.016-.749-.03-.757-.116-3.597-.87-5.34-1.355-4.661-1.031-5.813-1.255-4.867-1.293-5.159-1.162-3.612-.793-3.092-.631-1.625-.308-.891-.277-.67-.223-.608-.308-.497-.43-.946-1.164-.947-1.4-.852-.97-.804-.732-.994-.615-1.01-.477-.93-.331-1.034-.216-1.49-.177-2.13-.1-.876-.146-.78-.254-2.809-1.301-2.673-1.34-2.114-1.054-1.065-.423-.79-.139-.654-.015M289.84 183.312l.336.507 1.214 2.479 1.152 3.725.489 2.57.489 4.388.52 4.573.537 3.263.205 1.832.41 1.462.426 1.632.284 3.972.205 2.724-.41 1.294-.71 1.031-.3.954.553 2.68.41 3.77-.032 2.248-.016.77.536 1.077 2.414 1.386 1.815 1.047 1.277 1.277.789 1.432 1.909 2.57 3.47 3.757 1.357 1.155 2.035 1.893 1.215.83.757.401.49.955 1.482 2.966.062.126 3.298 6.698 3.928 6.889.552 1.562.347 1.278.237 1.231.828 4.572.197.747.268.63.371.609 2.075 2.494.37.593.158.523.126.777.181 8.336.19 3.763-.008 1.509-.118 1.1-.107.547-.215.386-.443.422-1.215.762-.537.477-.48.596M363.333 311.24l-1.001-.4-2.84-.646-25.114-8.774-9.165-4.86M282.832 278.346l1.554.4 1.286.269 1.348.27 1.215.169.872.173.714.158 1.04.262.884.261 3.415.978.828.177 2.777.262 1.207.161 2.035.438.639.278.607.423.481.539 1.665 2.971 2.831 5.242.521.738.544.524.576.369.939.292 3.029.409 8.755 1.061 2.619 1.39M380 412.455l.923-.204.061-.03.034-.05.013-.07-.018-.114-.059-.149-.044-.048-.057-.029-.104-.009-3.165-.042-.085.029-.052.046-.025.073-.045.71.036.12.076.069.13.038.148-.002 2.233-.338" clip-path="url(#p81eb9d28c5)" style="fill:none;stroke:#000"/><path d="m380 412.455-2.233.338-.147.002-.13-.038-.077-.07-.036-.119.045-.71.025-.073.052-.046.085-.029 3.165.042.104.01.057.028.044.048.06.15.017.114-.013.07-.034.05-.061.029-.923.204M399.758 400.18l2.327 1.092.9.293 1.135.246.828.139.205.061.127.1.106.174.09.272.253 1.055.09.713-.003.657-.079.77M379.337 181.456l2.525-3.002 4.4-5.45 1.8-1.77 1.64-1.339 3.407-1.863 4.764-2.833 4.654-2.509 5.742-3.156 5.648-2.894 3.88-1.786 3.424-1.278M375.443 188.672l.171-1.905.6-1.37.946-1.231 2.177-2.71M374.888 195.065l-19.028 3.204M375.443 188.672l-.176 1.944-.252 2.724-.127 1.725M370.96 202.392l1.562-3.125 1.388-2.17.978-2.032M370.96 202.392l-14.202 1.967M358.106 213.865l1.37-.497.837-.893 2.019-2.247 2.255-2.248 2.02-1.539 1.845-1.077 1.089-1.14 1.42-1.832M358.106 213.865l.175 1.228M358.106 213.865l-1.348-9.506M289.84 183.312l-1.747-2.633-1.357-3.233-1.369-2.994" clip-path="url(#p81eb9d28c5)" style="fill:none;stroke:#000"/><path d="m238.787 208.004.03-.99v-2.354l.474-.54 8.85-5.588 9.954-6.465 10.964-6.881 11.5-7.56 4.808-3.174M238.823 209.327l-.919-.615-1.593-.893-1.167-.585-.963-.292-1.01-.123M238.787 208.004l.036 1.323" clip-path="url(#p81eb9d28c5)" style="fill:none;stroke:#000"/><path d="m175.919 146.483 4.753 1.344 10.38 3.048 10.774 3.11 1.057.631 1.657 1.4.552.94 1.877 3.756.836 2.633.126 1.493-.268 2.494-.126 1.647-.236.939.094 1.54.174 1.277-.064 1.309.3.77.6 1.077 1.498.97.773.462.379.539.536 1.247.647.97.773.83.978.355.742.354.552.785.74 1.724.159 1.663-.063 1.509.11 1.354.22.6.979.77 1.861 1.478.805.708 1.688 1.77.883 1.186 1.105 1.878 1.357 1.509 1.245.831 1.152.493 1.798.585 2.035.616.694.307.695.816.252.862.52 2.017.458.94.458.291 3.234 1.217.599.292.52.185M240.46 252.138l.095-5.142-.521-3.601-.095-2.017.095-2.802.016-1.816-.473-1.848-.127-1.631.237-2.478-.205-4.88-.316-5.142-.095-3.248-.204-6.574-.044-1.632M280.88 277.715l-.28-.1-.718-.309-2.816-1.254-1.908-.885-1.215-.554-1.333-.539-1.696-.8-2.043-.932-1.183-.531-1.712-.762-2.697-1.186-1.073-.515-.986-.554-1.301-.831-1.357-.9-1.238-.855-1.105-.816-3.549-2.51-3.565-2.77-2.998-1.54-2.09-1.82-1.664-1.874-1.893-2.74M304.535 360.425l2.043-.023M304.689 374.462l-.093-4.725-.061-9.312" clip-path="url(#p81eb9d28c5)" style="fill:none;stroke:#000"/><path d="m306.52 358.16-1.717.572-.146.108-.098.134-.028.185.004 1.266M307.04 375.606l-.009-.547-.007-.592M304.689 374.462l2.35 1.144M301.265 374.938l5.715 2.803M307.04 375.606v.539M307.04 376.145l2.878.184M307.04 376.145l-.06 1.596M306.98 377.741l.013.463M306.993 378.204l5.496.453M306.993 378.204l.067 3.428M309.918 376.33l1.274.103.205.054.107.073.047.096.008.17-.055.58.01.152.053.14.12.16.605.546.115.113.082.14M313.807 382.37l-.328-.365-.16-.261-.147-.34-.24-.95-.367-1.55-.076-.247M313.807 382.37l.066 3.692M361.922 387.813l.155-1.12.214-1.386M313.873 386.062l-.626-.005M297.685 390.86l1.143-.909 1.562-.946 2.146-.978.694-.223 1.198-.3 2.351-.592M313.247 386.057l-.939.224-.851.122-4.678.509M361.922 387.813l-5.963.476M355.959 388.29l-.506 2.573-.007.087.023.063.06.06.098.033 5.427.977.264-.027.17-.069.126-.146.09-.274.052-1.477.166-2.277M355.959 388.29l-1.925.16M383.656 392.23l.52-.586.253-.372.359-.693M297.685 390.86l-1.255 1.593M383.656 392.23l.122 1.354M382.528 392.819l1.25.765M381.822 393.645l.378-.461.328-.365M381.822 393.645l-.367 1.728M380.276 395.239l.684-.73.862-.864M381.455 395.373l-.548-.057-.631-.077M381.455 395.373l-.079.516M420.455 400.757l.742-.27 3.266-.87 1.987-.661 1.348-.608.324-.223.229-.25.741-1.074.257-.296.32-.216.977-.589M367.616 398.74l.536 3.302M362.012 398.83l3.01-.02 2.594-.07M362.012 398.83l-.119 3.01M360.245 398.956l.046-.08.063-.059.106-.023 1.552.035M360.245 398.956l-.197 2.844M360.245 398.956l.102-1.771" clip-path="url(#p81eb9d28c5)" style="fill:none;stroke:#000"/><path d="m417.23 403.981.54-.35.413-.388 1.491-1.87.395-.362.386-.254" clip-path="url(#p81eb9d28c5)" style="fill:none;stroke:#000"/><path d="m413.956 390.721-.008 3.794.162 2.513.021.127.054.094.112.062.13.028 5.06-.068.152.034.118.067.085.11.073.2.54 3.075M360.048 401.8l1.845.04M360.048 401.8l-.105 1.61M363.55 401.918l-.726-.057-.93-.02M363.55 401.918l-.027 1.313M363.55 401.918l3.68.378M368.152 402.042l-.922.254M363.523 403.23l1.23-.295 2.477-.64M370.345 409.83l-.769-1.196-1.06-1.735-.348-.709-.228-.747-.174-.776-.536-2.371M359.65 406.672l.18-2.005.113-1.256M418.555 408.615l.007-1.009-.007-.346-.044-.243-.069-.177-.321-.619-.584-1.355-.307-.885M411.944 406.96l-.552 2.947-.22 2.078-.142.69-.166.484-.292.538-.276.34-.37.265-2.051 1.078-.407.215-.41.123-.437.061-2.489.028-.239.024-.175.066-.15.156-.584.95-2.24 2.948-.32.319-.354.227-.525.154-.702.03-8.125-.725M386.74 421.906l2.427-1.16 1.551-.79M383.806 420.322l2.283-.96M383.806 420.322l-.699.267M383.806 420.322l.95 1.903M383.107 420.59l.371 1.908M386.74 421.906l.134.238M389.153 426.088l-.394-.454-.394-.55-.967-1.824-.524-1.116M384.756 422.225l.529.242.175.062.173.017.17-.025 1.07-.377M384.756 422.225l-1.278.273M381.958 438.184l-.136-.429.015-.219.087-.27.347-.453.435-.516.997-.8.28-.355.197-.384.154-.585.059-.378.067-1.053-.059-2.425-.41-4.587-.197-1.492-.316-1.74M392.971 428.524l-1.388-.635-.9-.523-.78-.581-.75-.697" clip-path="url(#p81eb9d28c5)" style="fill:none;stroke:#000"/><path d="m392.971 428.524.341-.925-.002-.114-.036-.109-.083-.075-.115-.045-3.923-1.168M424.541 463.898l-.2-1.043-.932-4.025-.816-3.193-.548-1.82-.958-2.078-.92-1.447-.808-1.004-1.1-1.093-1.014-.92-1.163-.882-1.274-.853-.762-.373-.66-.227-3.586-.954-1.433-.39-1.017-.319-1.069-.504-.694-.531-.824-.75-.683-.84-.622-1.138-.47-1.254-.548-1.809-.532-2.26-.367-1.392-.229-.666-.272-.458-.493-.507-.623-.474-1.03-.473-1.108-.35-1.277-.347-1.885-.454-1.653-.546M245.073 518.851l-.67.16M271.474 503.192l-1.1.727-.678.37-1.041.438-.435.193-.3.154-.362.211-.915.62-1.06.716-1.125.788-.706.404-1.23.547-.84.327-.801.33-.458.162-.504.174-1.61.488-1.4.438-.33.132-.297.157-.177.104-.177.116-.25.188-.386.33-1.21 1.136-.399.339-.48.404-.687.52-1.116.788-2.122 1.554-1.238.908-.765.624-.773.539-.655.361-.774.372" clip-path="url(#p81eb9d28c5)" style="fill:none;stroke:#000"/><path d="m239.328 514.262.785.647.966.777 1.12.954 1.81 1.419 1.064.792M271.474 503.192l-.236-1.628" clip-path="url(#p81eb9d28c5)" style="fill:none;stroke:#000"/><path d="m244.404 519.01.276.35.138.166.166.18.169.158.173.127.222.158.173.104.178.088.33.147.348.096.516.088.73.093 1.613.27 1.708.36.291.1.194.07.205.066.193.038.225.023.49.042 1.13.143.478.034.323.004.348-.02.204-.018h.143l.17.008.204.018.529.047.607.112 1.986.515 3.208.735 1.672.323 4.725.97.533.127.054.003.038-.003.027-.008.023-.013.015-.023.013-.027.012-.035.006-.041.007-.067-.137-1.283-.248-1.55-.138-1.07-.209-1.209-.62-2.928-.047-.23-.012-.185.036-.25.067-.235.107-.208.216-.292.293-.316.232-.25.296-.35.21-.315.18-.324.296-.596.315-.558.178-.258.162-.169.114-.096.134-.077.166-.077.213-.062.438-.088.958-.173.296-.09.18-.074.234-.117.307-.189.419-.254 1.786-1.162.718-.435.516-.373.237-.212.107-.142.067-.15.04-.127.007-.146-.008-.135-.024-.115-.035-.137-.044-.129-.07-.165-.083-.139-.197-.342-.139-.165-.224-.209-.154-.107-.134-.096-.292-.17-.416-.211-.44-.204-.517-.277-.412-.23-.42-.218-.463-.243-.39-.196-.196-.12-.161-.101-.155-.099-.145-.111-.249-.244-.24-.262-.229-.28M238.275 513.43l1.053.832M238.275 513.43l-.823.33M237.124 511.769l.138.284.157.277.308.4.548.7M237.124 511.769l-.766-.044M236.91 509.987l.127 1.285.087.497M236.673 503.976l.4.066M237.072 504.042l.276-1.147.089-.344.018-.09.001-.059v-.046l-.012-.045-.025-.05-.045-.04-.04-.023-.041-.01h-.047l-.058.01-.05.019-.032.02-.025.025-.023.036-.024.051-.127.5-.234 1.127M236.484 505.53l.083-.845.106-.71M236.484 505.53l.399-.002M236.35 507.32l.04-.642.094-1.148M236.35 507.32l-.063.809M236.35 507.32l.462.074M236.264 509.506l.011.43M236.264 509.506l-3.015-.442M236.287 508.129l-.035.87.012.507M236.271 510.28l-.007.62.094.825M236.62 514.134l-.105-.87-.157-1.539M236.62 514.134l.038.323.078.955.099 1.108.138 1.123M236.985 519.076l-.007-.504-.009-.49.004-.439M240.188 518.945l-.509.05-.395-.023-.441-.1-.403-.139-.37-.177-.45-.293-.647-.62M236.472 521.596l.312-1.509.201-1.011M239.013 521.03l-.876-.657-.288-.286-.205-.242-.268-.312-.39-.457M240.188 518.945l.596-.073.812-.031.867.008 1.94.161" clip-path="url(#p81eb9d28c5)" style="fill:none;stroke:#000"/><path d="m239.013 521.03.248-.565.327-.524.324-.515.276-.481M239.052 524.809l-1.66.061M239.052 524.809l.248.577M239.013 521.03l.394.608.217.57.047.154.052.234.015.212-.031.28-.063.24-.11.3-.482 1.18M235.743 525.882l.095-.584.051-.124.075-.085.122-.08.178-.07.288-.042.84-.027M236.806 526.408l.148-.385.299-.816.139-.337M235.743 525.882l.588.304M235.1 528.285l.142-.483.28-.894.221-1.026" clip-path="url(#p81eb9d28c5)" style="fill:none;stroke:#000"/><path d="m228.353 525.036 1.885-.242 1.104-.143.524-.008.414.042.402.105.561.172.47.197.555.304.308.127.56.18.288.07.32.042M235.1 528.285l-.179.512-.065.185-.04.102-.06.077-.086.069-.157.073-.383.06-.698.082-1.144.23-.954.24-1.546.508M236.33 526.186l-.189.15-.07.066-.052.08-.15.42-.122.327-.09.204-.13.234-.186.293-.24.325M236.33 526.186l.476.222M238.886 526.962l-.134.02-.193.005-.146-.008-.127-.017" clip-path="url(#p81eb9d28c5)" style="fill:none;stroke:#000"/><path d="m238.886 526.962.056.42.011.124-.02.115-.078.143-.083.08-.103.059-.094.03-.158.012-.174-.031-.114-.085-.055-.115v-.123l.012-.089.043-.173.157-.367" clip-path="url(#p81eb9d28c5)" style="fill:none;stroke:#000"/><path d="m236.806 526.408.731.285.75.27M239.3 525.386l.087.242.041.137.022.183.004.107-.011.1-.056.22-.13.223-.142.18-.23.184M239.3 525.386l.443.241M237.452 513.76l-.238.104-.594.27M239.328 514.262l-.39.23-.077.024-.061.012-.083-.005-.055-.005-.063-.025-.093-.044-.336-.198-.718-.49M233.249 509.064l-1.37-.19M233.249 509.064l-.054.666M229.405 508.55l-.03.016-.03.024-.027.04-.01.043v.043l.009.065.014.04.043.054.049.062.061.051.064.049.1.057.116.062.14.05.186.047 1.002.198 2.103.279" clip-path="url(#p81eb9d28c5)" style="fill:none;stroke:#000"/><path d="m258.984 359.644-1.349-1.297-4.315-1.89-1.238-.488-1.577-.304-.75-.143-.792-.35-4.895-2.882-.76-.797-.221-.33-1.05-1.925-.362-.315-1.408-.404-7.068-1.713-2.547-1.24-1.455-.53-2.761-.639-3.583-.674-5.326-1.57-1.397-.118-2.354-.132-1.467-.26-6.373-1.39-1.794-.37-2.229-.657-2.449-.74-2.323-.6-5.88-1.405-2.45-.888-2.298-.947-9.195-2.68-2.984-.406-8.302-1.901-2.378-.643-1.739-.258-1.913-.046-1.44.192-2.436.674-1.677.092-.99-.08-.664-.332-2.962-2.022-.668-.25-2.698-.287-1.64-.608-.927-.6-.663-.677-.741-.813-.564-.188-.994-.07-.303.04-.71.21-1.448.932-.544.609-1.337 2.22-.568.589-1.499 1.05-5.766 4.195-1.376.92-.943 1.077-1.664 2.063-2.32 3.598-3.813 6.459-.907.799-1.151 2.008-2.204 4.375-.69 1.06-.715.635-.445.507.01.287.624 3.422.213.823.316 2.067.22.204.9.189 1.34.196 1.925.585 1.089.523.37.516.537 1.416.655 1.408.779 1.227.774.944 1.278 1.239.324.846v.862l-.229 1.509.04.577.212.67 1.326 2.563.8 2.237.097.699.183.334.335.293.509.346 1.002 1.132.757 1.123 2.634 6.034.67 2.601.403 2.317.016 2.547-.19 1.293v1.985l.277 3.472.378 1.593 1.334 4.456.26 1.362.173 1.016.844 3.117.3 2.709.915 2.74 1.025 2.685.545 1.193.339.262.22.115 1.641.45 1.779.432.292.438.146.816-.123.8-.61 2.706-.68 4.44-.196 2.047-.813 4.979-.434 7.15-.591 2.016-.324 1.37-.804 2.64-.766 2.681.131 1.3.28.859v1.566l-.118.477-1.444 3.24-.662.735-.446.597-.95 1.666-.47.546-.379.177-1.317.331-1.747.947-1.199.762-.272.473-.142 1.608-.024.578-.674 1.085.209.788.613 2.775-.033 1.435v.554l-.158.202-1.08.898-.371.778-.166.938.229.554 1.21 2.119-.094.21-.438.434-.402.235-1.282.52-.923.75-.875 1.158-.173.562-.186 1.646.063 1.617.201.777.39.77.604.8.725.735.754 1.481.414 1.19-.059.85-.221 1.03.051 2.502-.595.992.012.335.205.4.256.208.746.208 2.441.343.619.115.355.373.674.97.375.088.532-.177.51-.142.164.127.095.169.615 1.516.39.265.458-.022.486-.233.32-.53.68-.794.207-.02 1.952.15 1.323-.765.37.037.894.208.958-.03.414-.155.256-.277.028-.805.073-.554.182.059.713.569 1.475.47.637.236.252-.11.241-.3-.063-.219-.351-.446-.096-.6.059-.21.258-.43-.048-1.188-.244-.662-.055-.281.229-.22.248-.2.422-.488.51-.543.516-1.447.465-.25.86-.1.488.093 1.286.3.509-.07.958-.292 1.065-.697.308-.42.11-.216 1.303-.61.979-.58 5.286-3.683 2.505-2.12.595-.023.493.219.37.115.916-.089 2.431-.782.464.211.649.435.749.76.872.608.304.394.014-.01.191-.09.752.245.45-.094 1.55-.805 1.07-.71 2.071-1.589 1.227-1.208.717.027.817-.816.367-.07.366.143.761.685.947 1.085.244.893.284.154.336-.023.22-.324.237-.238.328-.062.926.081.777-.462 1.176-.523.3-.38.8-1.142.72-.496-.04-.218-.305-.467.43-.579.378-1.24.264-.119.816-.073 1.994-.117.448-.005.504-.155.403.312.792.489.667.793.505 1.023.647.596.789.622.14.058.664-.039.087.356.51.521.065-.092.168-.09.402.001.419-.127.04.233.02.447.384.094.094.33.408.005.558.242 1.061.08.923.28 1.648.692 2.31 1.063.782.369.592.408.887.123 1.246.058.921.04 1.375.821.61.543.592.877.569.947.189.185 2.516 1.735 1.423.573 3.207 1.024.434.47 1.68 2.32 1.065 1.504.997.862 2.146 1.627.52.641M231.88 508.875l-2.379-.327-.036-.003h-.023l-.037.005M233.195 509.73l3.076.55M236.271 510.28l.004-.343M231.88 508.875l.073-.793-.008-2.544M245.141 551.323l-.11-.246-.13-.22-.135-.134-.153-.108-.17-.108-.276-.146-.245-.096-.248-.092-.21-.093-.11-.06-.11-.093-.075-.09-.063-.096-.051-.11-.032-.14-.04-.215-.07-.616-.103-.654-.141-.73-.056-.255-.016-.261.009-.262.015-.3.024-.446.008-.647.063-1.023.197-1.27.153-1.29.147-.973.213-.769.355-.993.173-.854.174-.792.457-1.355.26-.885.064-.354.023-.269-.008-.477-.063-.977M243.78 531.1l.364.515.717 1.209" clip-path="url(#p81eb9d28c5)" style="fill:none;stroke:#000"/><path d="m246.095 530.902-.345.54-.889 1.382M246.095 530.902l1.23-1.43M243.78 531.1l1.18-.106 1.135-.092M247.325 529.471l.81-.919M245.243 527.454l.533.471.292.212.454.323.154.124.118.11.098.113.154.234.28.43M277.733 561.523l-.106-.08-.103-.1-.067-.108-.37-.82-.754-1.889-.09-.185-.08-.111-.132-.091-.136-.06-.182-.05-1.226-.142-1.017-.088-.611-.089-.97-.196-.403-.093-.351-.084-.26-.084-.15-.074-.194-.12-.13-.107-.18-.162-.143-.16-.154-.209-.13-.227-.311-.577-.604-1.093-.568-.9-.568-.97-.978-1.57-2.942-3.82-2.17-2.52-1.932-1.84-1.285-1.412-.804-.934-.561-.708-.402-.601-.193-.338-.355-.635-.182-.235-.208-.22-.43-.361-.363-.273-.355-.224-.809-.488-.228-.18-.233-.278-.166-.246-.174-.3-.137-.285-.119-.389-.086-.407-.083-.589-.047-.639-.033-.228-.145-.41-.166-.347-.181-.292-.245-.339-.741-.808-.868-.862-.796-.646-.576-.37-.615-.308M245.243 527.454l.55.152 1.237.454.647.277.458.215M239.743 525.627l1.115 1.766.84 1.329.205.273.257.258.954.996.667.85M236.883 505.528l.11-.82.08-.666M236.275 509.937l.636.05M236.812 508.252l.023.527.04.72.036.488M236.287 508.129l.525.123M236.812 508.252v-.858M236.883 505.528l-.032.53-.02.531-.02.805M413.305 521.644l1.227 1.772M413.305 521.644l-.87-1.268M413.305 521.644l2.043-.322M418.045 518.316l1.616.76M418.045 518.316l.003.452M418.129 521.054l3.486-.323M416.034 521.234l1.006-.065 1.089-.115M418.048 518.768l.026 1.12.055 1.166M415.348 521.322l-.213.509-.197.473-.406 1.112M415.348 521.322l.686-.088M409.725 511.123l-.66-1.393M409.391 512.13l.097-.45.237-.557M409.28 518.33l-.247-.285-.102-.176-.03-.222.053-.542.488-1.954.147-.723.036-.362.007-.512-.122-.57-.09-.492-.029-.361M407.865 510.73l.64.762.435.392.451.247M412.435 520.376l-.653-.785-.464-.458-.562-.427-.189-.08M409.28 518.33l.257.007.451.073.579.216" clip-path="url(#p81eb9d28c5)" style="fill:none;stroke:#000"/><path d="m412.229 518.09-.82.243-.842.293M418.048 518.768l3.567 1.963M415.69 517.879l-.677-.138-.662-.04-.9.108-.611.101-.611.18M412.435 520.376l-.227-1.01-.031-.44.01-.415.042-.42M409.065 509.73l-1.2 1M407.865 510.73l-2.013 1.68-.236.092-.284-.015-3.47-1.509M277.733 561.523l.493.143.611-.035.694-.154 9.35-3.166 4.37-1.259.778-.026 1.32.13 2.126.374 3.4.395.6.093 1.151-.277 1.495-.592.864-.774.835-.761 1.243-.663 1.314-.51 1.325-1.125 2.342-2.297.887-.5 2.023-.735 2.048-.727 1.057-.535.993-.196 2.339.12 5.994-.72 1.76-.127 6.826.207 9.726.827 4.673.409.903.573.268.011.643-.296.549.112.425-.008.331-.2.541-.639 1.049-1.639 2.804-3.743.363-.309.315-.115.45.023 1.522.439.529-.138.914-.486 1.791-1.785 3.132-1.839.433-.1.473.03.923.27 2.863.592 1.373.447 1.64.77.497.03 1.128-.239 5.017-1.485 5.758-.858 3.49-.296 3.53-1.273 1.155-.39 1.006-1.084 2.674-3.21.844-1.254 3.573-5.648 3.95-4.469 2.055-2.507M416.02 514.068l3.618 1.895M414.662 516.694l.737-1.37.62-1.256M422.782 517.645l-2.257-1.217M422.782 517.645l-.734 1.36M422.782 517.645l2.177-4.358M424.959 513.287l-3.825-1.557M425.945 508.398l.187.362.095.211.093.358-.004.277-.276.977-1.081 2.704M421.495 520.03l.28-.518M419.66 519.075l.67.336 1.165.618M420.525 516.428l-.167-.088M420.525 516.428l1.074 1.986M422.048 519.005l-.274.507M422.048 519.005l-.45-.591M420.358 516.34l-.72-.377M420.29 517.836l-.308-.242-.038-.088-.015-.074v-.088l.43-1.004M420.29 517.836l1.309.578M420.29 517.836l-.63 1.24M424.135 522.227l-.47-.503M424.135 522.227l.665-1.189M421.774 519.512l2.054 1.066M424.8 521.038l-.972-.46M425.355 519.8l-.192.451-.145.372-.218.415M428.445 511.107l-1.802 2.99-.445.996-.095.504-.024.473-.055.729-.67 3" clip-path="url(#p81eb9d28c5)" style="fill:none;stroke:#000"/><path d="m433.31 522.817-4.641-1.751-3.314-1.266M423.828 520.578l.441-.264.367-.203.719-.311M449.766 525.99l-.694-.015-4.189-.616-2.816-.354-2.24-.293-1.254-.338-1.561-.57-.474-.115-.749-.085-.52-.107-.632-.208-.788-.285-.54-.187" clip-path="url(#p81eb9d28c5)" style="fill:none;stroke:#000"/><path d="m448.127 517.819-2.131 2.015-1.755 1.647-.296.215-.324.142-.358.054-2.461.23-3.124.14-2.469-.012-.587.015-.533.112-.43.158-.35.282M423.664 521.724l.022-.707.045-.256.097-.183M400.026 397.792l-2.96 1.035-.049.073-.004.11.19 1.216.213 1.547M370.462 393.2l-.42-2.526M366.133 391.33l3.909-.656M256.665 383.55l.659.845.41.531.363.631.323.547.647 1.246.493.859.35.657.213.316.241.265.272.243.978.854.53.477.717.616 1.033.83 1.148 1.002.497.477.374.357.213.227.162.216.24.39.213.468.154.335.166.285.156.17.152.119.122.078.165.083.18.075.223.048.477.058.505.03.532-.023.643-.142.627-.257.49-.362.414-.368.445-.313.3-.127.307-.054.22-.007.234.007.205.022.138.032.125.03.097.03.496.144.583.157.568.154.474.116 1.032.323.506.311.287.127.273.07.311.023.481-.02.848-.057.852-.07.605-.085.673-.183.45-.171 1.325-.769 1.502-.822 1.05-.495 1.123-.452 1.31-.27.985-.054 1.01.07 1.57.169.868.023.583-.085.623-.192 2.224-.862M418.555 408.615l-1.105-.093-.631-.154-2.165-.82-.931-.288-.5-.116-1.279-.184M362.095 291.707l-.93-5.166M366.796 290.849l-1.058-5.247M362.757 282.694l.556 3.426M365.738 285.602l-.496-2.881-.098-.173-.162-.096-.174-.027-2.05.27M361.165 286.54l-.521-3.022.027-.22.119-.154.22-.115 1.747-.335M359.74 286.834l1.425-.293M365.738 285.602l-2.425.518M361.165 286.54l2.148-.42M364.098 356.74l-1.75.249M363.867 361.612l1.138-1.283.11-.216.024-.192-.019-.185-.406-1.054-.616-1.943M363.648 352.432l.238 2.617.212 1.69M362.348 356.989l-.324-1.77-.15-1.078-.087-1.19.024-.17.087-.112.154-.066 1.596-.17M363.867 361.612l.847 2.457.772 2.216M362.348 356.989l1.163 3.59M363.51 360.579l-1.814-.114-.092-.015-.087-.042-.047-.07-.842-2.768-.002-.114.037-.084.087-.058 1.598-.325M329.882 381.278l-1.007-4.368M310.526 356.75l.291 2.624.032.716-.023.785-1.081 8.936-.063.846.031.955.205 4.717M343.906 348.646l-7.21 1.508-4.89.909-6.751 1.4-5.16 1.293-3.517.931-1.554.485-4.298 1.578M306.52 358.16l.188-.063 3.818-1.347M335.013 336.755l.481.296.966.412.584.377.568.608 1.282 1.653 1.329 1.918.859 1.478 2.824 5.149M376.592 342.904l.354 2.407M376.592 342.904l6.326-2.293M374.606 328.763l1.022 7.164.964 6.977M389.694 341.765l.637-2.182.03-.148-.005-.117-.05-.089-.082-.056-.128-.02-1.151.141" clip-path="url(#p81eb9d28c5)" style="fill:none;stroke:#000"/><path d="m385.86 339.64 1.333-.13.797-.039.406-.057.549-.12M384.149 326.65l2.981-.678h.138l.09.033.064.083.797 7.073.726 6.133M384.149 326.65l-3.203.653M384.149 326.65l1.711 12.99M382.918 340.61l1.093-.392.927-.323.922-.254M374.41 327.364l1.172-.076.28.027.261.1.876.346.3.066.307.02.938-.086.493-.08 1.91-.378M382.918 340.61l-.797-3.64-.244-1.377-.93-8.29M378.162 353.602l-.736-5.02M378.162 353.602l2.31-.362M388.44 346.083l-.829 2.493-.379.77-.354.562-.529.516-1.538 1.146-1.814 1.016-.52.223-.56.154-1.444.277M376.946 345.311l2.13-.365.123.002.105.042.093.1.05.13 1.026 8.02M399.254 369.272l3.121.618M402.74 358.42l-1.743 5.341-1.089 3.417-.386 1.347-.268.747M396.421 372.79l1.594-1.786.789-1.009.45-.723M411.676 358.32l-3.076-.43-3.103-.455-.904-.012-.753.097-.43.123-.264.138-.201.223-.205.416M408.903 371.066l.377-1.098.33-1.158.237-1.324.23-1.584.235-1.525.276-1.393.3-1.339.566-2.285.222-1.04M369.308 292.03l.367-.573.04-.208.078-2.182.304-.442 4.097-2.16.466-.453 4.87-5.511.099-.493-.067-.33-4.35-12.685-1.325-4.395-.387-2.217-.165-1.193-.813-3.202-.41-.93-.584-.524-2.256-1.463-.764-.515-.655-.693-.75-1.209-.165-1.2.095-.593.552-1.386.134-.561.473-2.463.26-.5.505-.678.765-.793 3.02-2.347 1.515-.97.537-.162 1.814-.1.844.193 2.422.785.607.477 1.518 1.928.54.968.268.008 1.172-.383.682-.412.332-.12 3.936-.989 1.57-.5.56-.046 2.208.039 3.849.323 2.283.38 4.595-1.104 3.013-.862 1.64-.784 3.487-2.171 1.36-.54 1.704-.341 1.432-.643 2.082-.47 1.72-1.046 1.49-.362 1.034-.362.78.046.876.47.903.77.25-.143.618-.34.867-.156 2.355-.232 2.406-.323.441.07 4.962 1.462 1.065.162 7.58 2.309 1.38.107.954-.215.734-.308 3.723-1.047 1.04-.03 1.208.33 1.427.555 1.491.73 2.185.809 1.991.5 1.538.108.21.173 3.825 4.83.64 1.147 1.19 2.986.024.243-.11 1.697-.103.439-.607 1.108-.56.681-.046.314.138.256.613.438.062.193.163 1.92-.15 1.224-.272.342-.91.59-.38.802-.278.289-.167.359-.761.758-.099.874.174.192.536.616.186.697.268.97.639 1 .165.808.016 4.934.11.77.158.27.876 1.015.284.5 1.332 3.456.222 1.004.694 5.261.445 4.68.352 1.17.067 1.035.287 1.897.379 1.517.276 1.477.572 2.01-.012.337-.244 1.232-.036.993-.107.187-1.356 1.53-.584 1.115-.955 2.294-1.032 1.408-1.965 1.224-3.739 2.463-3.226 2.724-2.666 2.132-1.478.616-.182.454-.19 1.516-.429.808-.489.578-2.24 2.163-.505.354-1.64.892-1.223.724-3.4 1.162-3.21 1.316-4.015 2.216-6.625 1.84-1.46.085-1.553.392-.962.454-2.375.585-3.064.966-.256.197-1.341 1.27-1.467 1.762-1.35 1.931-1.557 1.855-.217.078-1.388.338-.19.22-.682 1.212-.304 1.924-.567 3.194-.221 1.316-.734 8.227-.33 1.44-.518 1.507-.43 1.648" clip-path="url(#p81eb9d28c5)" style="fill:none;stroke:#000"/><path d="m430.827 348.946-.804 3.386-.165.316-.261.215-.355.146-.513.085-3.241.062-.75.038-.52.123-.442.178-1.475.846-.828.439-.694.3-.789.246-.584.254-.418.27-2.208 1.689-.41.242-.493.212-.738.196-.48.174-.391.107-.47.035-2.122-.185M408.903 371.066l-6.528-1.176M403.735 364.742l-1.36 5.148M396.421 372.79l.782-.1.497-.11.89-.26.324-.062.252-.008 1.085.17.931.123.205-.016.177-.054.13-.12.087-.153.594-2.31M415.836 387.279l-6.318.85-1.802.11-5.055.035M416.24 390.401l-.404-3.122M413.956 390.721l.607-.146 1.678-.174M415.583 385.334l.253 1.945M369.352 402.62l1.009 1.947 1.799 3.947 1.025 1.986.244.654.103.5-.008.547-.34 1.962-.03.778.062.561.127.64.986 3.37.808 3.282.678 2.37.513 1.817.21.537.385.64.907 1.097.434.6.328.655.516 1.258.233.774.031.546-.047.53-.102.94.082.42.17.565.403.889.63.88.943 1.232M381.958 438.184l-.065.203-.11.103-.147.058-.185-.004M424.541 463.898l.19-.043M432.168 582.873l.383-1.908.256-.923.332-.493.366-.342.687-.381 1.676-.665 1.155-.378 1.306-.296.698-.312.43-.338.224-.343.201-.519.304-.95 1.613-4.348 1.373-3.24 1.388-3.563.442-.996.457-.904.288-.44.272-.31.276-.243.395-.254M403.213 495.716l-2.627-3.463-2.452-3.301-.73-1.041-.501-.768-.852-1.778-.781-1.654-.93-2.001-.793-1.605-.754-1.381-1.27-2.24-.89-1.685-.391-.627-.438-.754-.331-.79-.288-.738-.26-.454-1.436-2.047-2.165-3.032-.201-.439-.138-.377-.107-.481-.083-1.02-.082-1.196-.052-1.059.071-2.343.398-3.001.159-1.2.035-1.148.023-.773.012-.57-.082-.5-.142-.484-.233-.604-.18-.581-.102-.576-.061-.948-.06-.79-.121-.695-.304-1.064-.269-.922-.153-.79M271.238 501.564l3.538-.383 3.345.8.947-.153 3.28-1.57 2.967-.924 1.296-.001 3.628 2.924 1.165.155 1.2-1.262 1.388.647 2.208.985.915.062.757-.185.568-.308 1.957-.554 5.395-1.94 2.461-1.139 3.786-2.524 2.714-2.032 2.05-1.231 2.809-1.262 1.735-.955 4.165-2.462 1.199-.555 5.017-2.862 2.24-1.54 3.123-1.632 4.764-2.74 3.787-1.538 4.165-1.078.852-.092 1.987.461 1.704.185 1.704.277 1.262-1.508 4.794-3.755 8.204-4.125.063-3.017-.505-7.696-1.262-2.4 1.136-1.663 2.65-.493 4.291-2.832 1.956-2.955 3.218-.616 1.79-1.281M448.127 517.819l.085.372.205 1.643.067.746.154.854 1.128 4.556M421.134 511.73l.544-1.939.26-.723M421.134 511.73l-1.496 4.233M416.034 521.234l-.343-3.355M465.784 464.42l1.61.113 1.2.192.745.22.489.304.394.423.486.696.682 1.343.54 1.213.797 2.116.879 2.528.529 1.65.204.497.277.392.426.481.627.516.851.5 1.566.723 1.093.581.915.586 1.214.869 1.46 1.132 1.056.646 2.28.985 2.532 1.093 1.735.615 2.84.785 1.278.37.721.338.525.412.505.558.24.542.194.793.078 1.178.056.896.169.62.264.854.422.93.308.466.347.328.753.434 1.046.535.414.242.477.277.224.209.351.407.51.589.315.389.576.846.335.693.292.866.576 1.523.705 1.897.962 2.47.545 1.34.362.7.284.392.419.493.797.815.299.224.308.069.946-.046 3.258-.631 2.066-.324 1.199-.1.883.077 1.081.477 2.438 1.317 4.046 2.3.505.123.56-.06.37-.278.718-1.147.474-1.323.102-.908-.11-.908-.687-2.34-.6-1.586-.078-.492.134-.384.465-.577 1.657-1.832.394-.416.529-.308.93-.37 4.338-1.042.573-.08.5.004.77.092.796.088.663-.073.564-.216 1.34-.715 3.026-1.624 1.218-.889.611-.165.58.02.556.168.355.347.19.346.063.443-.044 1.25-.17 1.854-.236 1.236-.367 1.35-.6 1.84-.6 1.47-.685 1.516-.655.73-.607.685-.67.2-.38-.107-.473-.454M465.784 464.42l-3.753-.26-3.502-.212-2.193-.096-1.475-.127-1.96-.285-2.007-.284-1.148-.14-.777-.137-1.759-.378-2.508-.57-1.664-.246-1.46-.177-1.08-.06-1.01-.016-1.246.115-2.753.377-3.762.616-4.46.742-2.536.573" clip-path="url(#p81eb9d28c5)" style="fill:none;stroke:#000"/><path d="m448.127 517.819-.1-.44-.355-1.193-.88-3.032-.639-2.393-.244-1.447-.434-2.563-.41-2.37-.292-2.493-.237-1.409-.031-1.185.197-1.1.07-.677-.054-.785-.308-.786-.6-.838-1.68-1.955-1.198-1.331-1.006-1.29-.75-.953-.725-1.147-.718-1.212-.615-1.047-.524-.854-.411-.82-.355-.754-.406-.827-.379-.824-.292-.738-.24-.539-.331-.52-.702-.938-.773-1.09-1.025-1.207-.52-.708-.416-.747-.634-1.285-.592-1.224-.773-1.67-.647-1.7-.516-1.428-.481-1.032-.387-.773-.56-.685-.611-.573-.517-.723-.295-.66M374.606 328.763l-.197-1.399M377.426 348.583l-.48-3.272M332.643 334.954l.828.962.489.458.284.177.272.115.497.089M289.52 362.992l-11.926 3.135M288.795 361.414l.138.027.11.088.091.162.387 1.3M296.738 362.272l-.552.012-2.35.153-1.342.2-2.646.493h-.15l-.106-.042-.071-.096M389.694 341.765l-1.255 4.318M388.44 346.083l-2.302-.043-.17-.024-.106-.049-.065-.069-.016-.096.477-2.975.127-.28.252-.258.438-.204.596-.135 2.023-.185M368.058 371.596l.437 4.627M363.867 361.612l-.356-1.033M396.421 372.79l-1.427 1.6-.82.777-.852.608-2.61 1.54-1.058.685-.662.546-3.412 3.294-.416.388-.21.266M395.057 386.65l-1.23-.608-.75-.324-2.69-.992-5.434-2.232M465.784 464.42l.61-.282.259-.09.35-.083 2.482-.51 4.007-1.039 2.16-.63.186-.108.134-.15.091-.216.832-3.11.08-.166.128-.123.16-.075 3.982-.431.19-.104.106-.127.075-.162.296-1.189.083-.177.122-.146.216-.177 1.98-1.428.97-.866.38-.411.299-.462.253-.377.291-.331 1.128-.892.844-.87 1.041-1.162.813-.8 4.985-4.757 1.861-1.847 1.31-1.48.05-.136.013-.123-.032-.135-.079-.112-1.428-.669-1.813-.793-2.525-.985-.994-.438-1.317-.685-.41-.162-.442-.123-.89-.1-.584-.177-.576-.292-.505-.331-1.317-.624-1.357-.785-2.666-1.247-.592-.277-.686-.184-.828-.085-2.997-.138-4.828-.232-2.752-.045-5.364.053-1.909-.076-.394-.062-.233-.089-.185-.165-1.167-1.79-2.324-3.913-.358-.55-.19-.23-.244-.228-1.499-.97-4.582-3.024-1.527-1.009-.544-.369-.28-.273-.17-.27-.087-.273-.125-.993-.08-.227-.126-.165-.173-.077-.201-.02-2.588.467-1.017.122-1.195.043-.646.012-.49-.05-.591-.158-1.046-.485-3.56-1.978-.521-.277-.383-.3-1.037-1.185-.359-.343-.422-.234-.473-.203-1.203-.344-4.673-1.75-.335-.162-.202-.047-.217.012-1.175.18-.335.012-.371-.057-1.423-.266-4.354-.438M386.904 406.398l-.882.242M386.904 406.398l-.838-1.74M386.066 404.659l.764.584.737.674.028.06.006.069-.024.073-.068.056-.605.223M288.795 361.414l6.134-.981M276.971 364.777l6.414-1.955 3.754-1.031 1.656-.377M276.971 364.777l-1.056-2.324-.123-.404-.023-.378M332.643 334.954l-1.799.83-2.192.878-1.097.37-.528.077-.569-.008-3.912-.646-.733-.17-.64-.261-2.298-1.412-.485-.254-.418-.166-.64-.139-.587-.157-.438-.2-.497-.297-1.711-.946-1.594-.87-2.106-.891-.185-.037h-.209l-.213.081-.52.408-2.809 2.378-.504.331-.53.262-.914.338-1.388.4-1.483.508-2.334.863-2.115.815-2.074.947-.836.354-.71.231-.734.108-1.632.185-.746.111-.477.135-.457.238-1.972 1.163-3.131 2.008-1.767 1.155-1.665.9-.402.231-.22.262-.135.315-.584 2.148-1.34 5.603-.363 1.562-.545 1.863-.434 1.446-.378 1.155-.418 1.177-.312.9-.094.435" clip-path="url(#p81eb9d28c5)" style="fill:none;stroke:#000"/><path d="m294.929 360.433-.6-3.131-6.747.853-11.813 3.516M262.515 351.336l3.622 3.488.454 1.404 1.414 1.28 1.615 1.38 4.568 1.896 1.58.887M276.971 364.777l.623 1.35M369.308 292.03l.754 4.95M370.062 296.98l.292 2.173M370.354 299.153l3.872-.473.146-.073.09-.108.048-.146-.012-.227-.256-1.376-.058-.121-.11-.066-.144-.01-3.868.426M267.594 368.06l-1.066-.874-.765-.677-.769-.658-.714-.658-.82-.778-.544-.623-.733-1.039-.217-.331-.276-.385-.367-.48-.206-.208-.204-.212-.324-.25-.355-.247-.567-.373-.407-.358-.276-.265" clip-path="url(#p81eb9d28c5)" style="fill:none;stroke:#000"/><path d="m262.515 351.336-3.383 6.084-.148 2.224M213.018 368.735l2.524.014 9.162 1.157 3.509-.27 4.34.295 1.49.738 1.388 2.611.682.64 1.413.173 3.812-.37 5.426.05 1.868-.837 1.918-1.133 1.515-.542.606-.419 5.376-1.527 5.704-.591 1.742-.542 2.1-.122M239.743 525.627l.925.504.786.382.639.17 1.238.246 1.207.3.705.225M280.88 277.715l.493.177.734.245.725.209M279.747 267.585l.287.63.311.863.765 1.914.335 1.516.359 1.424.693 2.263.335 1.493v.658M284.307 583.099l-1.735-4.186-.253-2.863-1.892-8.65-2.462-5.602-.232-.275M363.333 311.24l.101.613M358.28 215.093l-1.825.253M280.88 277.715l-.344.38-1.024.478-.76.203-1.07.477-.78.292-.561.053-.743-.044-.562-.027-.398.071-.825.045-1.15.044-1.133.07-.625.124-.707.319-.825.388-.86.345-.87.602-.725.548-.924.274-.526.336-.498.344-.354.142-.706.15-.77.451-.752.645-1.07.743-.76.318-.626.018-.888.035-.77.098-.577-.098-.809-.049-.809.004-.892.185M336.373 195.031l.844 5.653M336.373 195.031l3.221-.51M336.373 195.031l-2.058.326M339.594 194.521l.936 5.701M339.594 194.521l3.2-.507M345.978 193.397l1.044 5.743M345.978 193.397l3.19-.62M345.978 193.397l-3.184.617M347.022 199.14l-3.245.636M347.022 199.14l3.233-.632M335.388 201.145l1.83-.461M337.217 200.684l1.041 5.726M337.217 200.684l3.313-.462M340.53 200.222l.852 5.85M340.53 200.222l3.247-.446M343.777 199.776l-.983-5.762M343.777 199.776l.956 5.596M350.255 198.508l3.085-.165M350.255 198.508l1.097 5.778M350.255 198.508l-1.087-5.73M336.65 206.81l1.608-.4M338.258 206.41l3.124-.338M341.382 206.072l3.351-.7M344.733 205.372l1.01 5.918M351.352 204.286l-3.44.616-3.179.47M349.168 192.778l3.13-.684M349.168 192.778l-.498-2.624M342.794 194.014l-.466-2.72M345.744 211.29l-8.306 1.37M356.455 215.346l-6.397.886-1.009-4.926-.6-.462-2.705.446M351.352 204.286l2.934-.493M351.825 189.692l.473 2.402M352.298 192.094l1.042 6.25M353.34 198.343l2.52-.074M353.34 198.343l.946 5.45M354.286 203.793l2.169 11.553M355.86 198.269l.374 2.4.524 3.69M355.86 198.269l-1.002-6.434M375.443 188.672l-20.585 3.163M306.52 358.16l.058 2.242M306.804 369.056l-.226-8.654M294.929 360.433l1.505-.24.304 2.079M262.515 351.336l-.24-.23-2.7-2.808-.96-1.503-1.412-3.403-4.82-7.036M213.018 368.735l-2.095-.011-7.547-2.389M202.72 385.84l8.152-3.152 2.146-13.953" clip-path="url(#p81eb9d28c5)" style="fill:none;stroke:#000"/></g><g id="PatchCollection_1"><path d="m372.14 404.23-.271.305-.208.833.166.853.354.792.375.386.396.447.27.61.354.466 1.27 1.625.187.447.104 1.523-.27 1.32.208.914.291.325.729-.101.437-.447.146-.467-.126-.732-.062-.568.166-.67.334-.61.333-.304.479-.081.687.101.645-.203.583-.264.332-.346.396-.121.437.04.313-.304.02-.447-.125-.508-.499-.365-.52-.224-.375-.385-.292-.427-.333-.265-.312-.121-.375.02-.416.081-.375.224-.083.386v1.015l-.104.305-.5.325-.457.122-.375.06-.25-.04-.27-.223-.23-.407-.29-.446-.5-.366-.417-.264-1.124-1.117-.375-.67-.29-.894zM237.166 522.56l.032.554.315.462 1.294.123.504-.462-.188-.769-.631-.246-.694-.062zM254.497 384.799l.526-.256.359-.28-.048-.49-.383-.327-.478-.117h-.67l.12.443-.048.467z" clip-path="url(#p81eb9d28c5)" style="fill:#00f;fill-opacity:.8"/></g><g id="PatchCollection_2"><path d="m400.343 397.988-.326-1.927.218-.194 1.83-.602.217.071.055.212-1.795 2.405zM375.594 401.256l1.002-.094.824 2.265-.096.241-1.085.201-.343-.12zM372.88 375.769l2.271-.257.168.14.67 4.41-.144.28-2.917.42-.622-4.223.191-.49zM356.075 381.504l.127-1.61.979-.583.489 2.033zM357.779 381.716l.453.07 2.337 2.193-1.486.212zM334.041 383.678l-.126-2 .205-.247.52.046 6.421 1.446-6.814.847zM392.837 388.996l.096-.134h.824l1.14-.067.151.148.041 1.473-.137.108-.22-.134zM360.003 404.87l-.071.993.102.116.276-.14 1.838-1.661-.086-.215-.174-.255-.205-.1-1.404.062-.126.138-.056.254zM360.316 401.588l1.465.04.074-2.6-1.465-.039zM366.36 402.285l-2.319-.112-.177.015-.146.15-.055.216.05.27.206.072.236-.03zM388.276 412.191l.124-1.93-.749-.02-.104 1.93.333.04zM383.637 422.238l.8-.14-.669-1.435-.406.047zM383.294 420.296l2.123-.812-.02-.183-2.311-.67-.166.05-.042.082zM390.167 426.588l.742.432 1.948.77.108-.385zM377.544 411.802l.079.8 1.735-.2.915-.292-.095-.2zM368.822 393.711l.757.662.3.077.19-.17.157-.446.047-.57z" clip-path="url(#p81eb9d28c5)" style="fill:green;fill-opacity:.8"/></g><g id="PatchCollection_3"><path d="m422.934 390.791-.152 2.925 5.393.267.153-2.925zM237.496 525.358l-.26.723 1.494.514.262-.723zM392.275 424.523l.935-.397-.76-1.702-.934.397zM424.511 515.664l.845.425.803-1.522-.844-.424zM374.537 318.797l-.465-3.258 5.53-.751.465 3.258zM253.343 510.628l2.468-.734-1.172-3.75-2.468.735z" clip-path="url(#p81eb9d28c5)" style="fill:#90ee90;fill-opacity:.8"/></g><path id="PatchCollection_4" d="m322.918 398.422-44.927-4.187 7.32-28.568 13.882-.246 5.048-16.501 14.64-1.232-5.302 18.472 9.592 9.851 21.088-7.783.618-14.875 7.207-2.611 5.161 14.679 4.178-.394-.392-20.786 9.478-6.305-12.001-12.647-3.534-47.78 17.92-2.71 6.31 51.967 12.873 10.825-6.057 24.136 1.261 15.269 12.116 1.231 12.254-15.91 9.957 5.32-4.404 8.226 23.082.394 8.582 18.471-34.327 13.791 1.515 12.314-9.34.739 3.534 13.052-17.668 2.71-5.058-4.899-13.137-1.462-26.733-23.193 3.786-15.022-6.31-2.217-3.281 9.359-12.116-6.65z" clip-path="url(#p81eb9d28c5)" style="fill:#d3d3d3;fill-opacity:.8"/><g id="PatchCollection_5"><path d="m378.563 374.5-.39-3.537.87-.16.137 1.239.18-.01.082.788-.217.044.1.901-.01.354-.172.186zM360.451 402.093l-.025.958 2.638.068.026-.959zM281.825 280.697l.546.055-.052.499-.546-.056zM373.316 356.401l-.072-.478.893-.129.072.478zM373.373 356.58l.84-.119.075.505-.84.119zM373.501 357.162l.594-.077.024.174.206-.026.04.294-.8.105z" clip-path="url(#p81eb9d28c5)" style="fill:#a9a9a9;fill-opacity:.8"/></g></g></g><defs><clipPath id="p81eb9d28c5"><path d="M90 135.321h558v456.557H90z"/></clipPath></defs></svg>