<svg xmlns="http://www.w3.org/2000/svg" xmlns:xlink="http://www.w3.org/1999/xlink" width="960" height="960" viewBox="0 0 720 720"><defs><style>*{stroke-linejoin:round;stroke-linecap:butt}</style></defs><g id="figure_1"><path id="patch_1" d="M0 720h720V0H0z" style="fill:#fff"/><g id="axes_1"><path id="patch_2" d="M90 632.514h558V94.686H90z" style="fill:#fff"/><g id="LineCollection_1"><path d="m174.99 270.554-5.363-1.226-68.896-14.517M218.897 277.581l-43.907-7.027M218.897 277.581l22.659 3.732M182.724 179.545l1.306-3.664.058-.517-.146-.471-.603-.284-.782.015-3.933.736-4.116.506-7.346-.153-8.802-.215-1.121.935-.737 1.625.686 7.42-.544 8.484.068 1.924-.134 1.119-.528 1.349-.385 2.153.436 2.736 1.17 2.491 1.808 1.717 2.017 1.67.895 1.15 1.146 1.71 2.536 3.203 3.73 3.97 4.929 5.648 3.907 5.343 2.779 3.601.878.82 2.376 1.878.87.89.427 1.133.193 1.442.644.957 1.681 1.295.837.82.402.967.426 1.386.754.997 3.589 2.828 1.514 1.617 6.25 8.261 2.97 3.756 1.356 1.67 1.263 2.407.879 1.494.653.913 3.999 3.387 3.832 3.126 2.086 1.791M357.089 289.317l.877-1.477 8.521-16.105.941-4.068.315-4.86.47-.86M351.078 290.247l5.723-1.019.288.09" clip-path="url(#pe6eb6b46b2)" style="fill:none;stroke:#000"/><path d="m359.77 295.13-.757-3.41-.175-.668-.163-.361-.202-.264-.365-.423-.433-.378-.586-.309M377.03 373.929l1.285 5.649M377.03 373.929l.821-.16M377.03 373.929l-.214-.888M377.03 373.929l-3.602.662M326.408 253.409l-9.364 16.483M340.004 259.897l-3.629 6.581M340.004 259.897l3.281 1.524M333.446 265.24l3.238-6.885 3.32 1.542M343.285 261.421l4.163 1.513M343.285 261.421l-3.58 6.594M347.448 262.934l-3.66 6.997M347.448 262.934l2.943 1.389M333.446 265.24l2.93 1.238M329.617 271.602 332.05 267l1.397-1.76M336.375 266.478l3.33 1.537M336.375 266.478l-3.619 6.564M339.706 268.015l4.082 1.916M339.706 268.015l-3.582 6.598M317.044 269.892l-2.038 3.13M317.044 269.892l8.538 4.256M343.788 269.931l2.871 1.321M343.788 269.931l-3.777 6.609M400.207 271.197l20.323 9.946M387.663 288.694l1.433-.78 2.412-1.888 1.3-1.662 3.247-5.963 4.152-7.204M427.523 223.76l-12.472 21.677-14.844 25.76M329.617 271.602l-2.024 3.602M329.617 271.602l3.14 1.44M315.006 273.021l-.815 1.362M315.006 273.021l8.645 4.336M332.756 273.042l-3.664 6.647M332.756 273.042l3.368 1.571M325.582 274.148l2.011 1.056M325.582 274.148l-1.931 3.21M336.124 274.613l3.887 1.927M336.124 274.613l-3.612 6.653M327.593 275.204l-2.061 3.031M313.4 275.703l-9.923 15.825M313.4 275.703l.79-1.32M313.4 275.703l8.796 4.051M340.01 276.54l2.774 1.4M337.969 281.848l-.057-.297-.045-1.026 1.976-3.637.168-.348M323.65 277.357l1.882.878M323.65 277.357l-1.454 2.397M325.532 278.235l-1.279 2.443M329.092 279.69l-2.787-1.068-.773-.387M329.092 279.69l3.42 1.576M322.196 279.754l2.057.924M420.53 281.143l33.377 16.336M396.526 349.217l15.836-2.786-7.232-36.58.132-1.568 1.545-3.868 13.723-23.272M332.512 281.266l1.219.562M333.73 281.828l-9.008 1.438M333.73 281.828l4.666 2.244M374.876 281.011l.46 1.905M324.722 283.266l.672 3.484M322.908 283.517l.309-.005 1.505-.246M324.253 280.678l.073.94.396 1.648M322.908 283.517l-2.117 3.097M322.908 283.517l1.345-2.839M338.396 284.072l.081.606M337.969 281.848l.107.562.32 1.662M338.477 284.678l.755.023M338.477 284.678l-13.083 2.072M338.477 284.678l.099.582M379.278 284.629l1.401 6.113M379.278 284.629l-3.941-1.713M379.278 284.629l8.385 4.065M318.69 290.626l.07-.399 2.031-3.613M325.394 286.75l-3.948-.105-.655-.03M325.394 286.75l.633 3.4M318.69 290.626l-.48-.13-4.026-1.056-1.288-.308M339.154 288.016l-13.127 2.134M339.154 288.016l-.578-2.756M339.899 292.25l-.162-.953-.583-3.28M387.663 288.694l-1.402.782M386.26 289.476l-2.075.471M385.21 293.664l-.025-.706.122-.754.32-1.09.634-1.638M320.478 290.119l5.549.031M320.31 289.34l.098.471.025.111.03.117.015.08M321.395 294.418l.022-.256-.151-.649-.788-3.394M327.108 294.429l-.34-.918-.741-3.36M351.078 290.247l1.294 6.254M343.584 291.582l1.95-.347 5.544-.988M380.68 290.742l1.305 5.701M380.68 290.742l3.505-.795M380.68 290.742l-3.291.646M319.476 294.175l-.021-.54-.765-3.009M377.389 291.388l1.314 5.647M377.389 291.388l-2.052-8.472M377.389 291.388l-3.185.625M303.477 291.528l16 2.647M241.556 281.313l40.764 6.714 21.157 3.5M343.584 291.582l-.86.153M343.584 291.582l1.323 6.188M342.723 291.735l1.316 6.211M342.723 291.735l-2.824.514M374.204 292.013l1.325 5.593M374.204 292.013l-2.968.582M371.236 292.595l1.294 5.552M371.236 292.595l-2.83.555M368.406 293.15l1.233 5.518M368.406 293.15l-2.14.42M328.506 298.98l-.101 2.04M327.108 294.429l.632.818.766 3.734M328.506 298.98l1.041 1.803M320.41 294.304l1.576 7.678M319.476 294.175l.138.023.796.106M321.395 294.418l-.303-.023-.536-.072-.146-.02M321.395 294.418l1.679.128 2.002.035 2.032-.152M339.899 292.25l-9.693 1.714-3.098.465M359.77 295.13l.157.951M359.77 295.13l-7.398 1.37M363.512 294.07l-2.58.496-1.162.565M359.927 296.081l1.006 4.155M359.927 296.081l-7.356 1.386M384.666 295.935l-2.68.508M385.64 296.313l-.562-.28-.412-.098M385.21 293.664l-.07.594-.108.657-.152.67-.214.35M381.985 296.443l-3.282.592M378.703 297.035l-3.174.571M352.571 297.467l1.463 6.468M352.571 297.467l-.2-.966M352.571 297.467l-7.43 1.4M585.54 180.04l6.78 7.278.485 2.75-4.747 32.212-.775 1.598-2.906 1.33-1.938.977-3.971 6.921-.291 1.42 1.066 5.945.29 3.461-.484 2.396-1.938 2.04-2.034.799-6.297 1.242H562l-8.429-1.153-7.556.266-8.815.976-7.557 1.775-4.165 2.13-13.95 7.364-4.36 2.13-3.874.798-5.91 1.243-1.966.807-40.974 29.82-.537.914M412.994 366.89l2.384-2.122 18.505-33.202 20.024-34.087" clip-path="url(#pe6eb6b46b2)" style="fill:none;stroke:#000"/><path d="m514.491 328.787.318-1.5-60.902-29.808M375.529 297.606l-3 .54M372.53 298.147l-2.891.52M345.142 298.867l-.235-1.097M345.142 298.867l-.873.164M345.142 298.867l1.496 6.399M369.639 298.668l-2.077.374M344.269 299.031l1.48 6.395M344.269 299.031l-.23-1.085M344.269 299.031l-6.84 1.29M360.933 300.236l.532 2.361M360.933 300.236l3.983-.717M329.547 300.783l-1.142.237M329.547 300.783l.24.977M329.547 300.783l6.912-1.353M328.405 301.02l-6.419.962M328.405 301.02l.213.96M329.787 301.76l6.89-1.298M329.787 301.76l-1.169.22M329.787 301.76l1.43 6.28M328.618 301.98l1.628 6.236M328.618 301.98l-6.385 1.203M361.465 302.597l.172.76M361.465 302.597l-7.43 1.338M322.233 303.183l-.247-1.201M322.233 303.183l1.39 6.224M361.637 303.357l1.455 6.456M361.637 303.357l-7.441 1.324M354.034 303.935l.162.746M354.034 303.935l-7.396 1.33M354.196 304.68l1.422 6.588M354.196 304.68l-7.395 1.316M387.458 305.072l-1.817-8.759M387.458 305.072l9.068 44.145M387.458 305.072l-24.366 4.741M346.638 305.266l-.889.16M346.638 305.266l.163.73M345.75 305.426l.16.728M345.75 305.426l-7.037 1.265M346.801 305.996l-.89.158M348.286 312.694l-.92-4.167-.565-2.531M345.91 306.154l1.484 6.714M345.91 306.154l-7.042 1.252M338.713 306.691l-1.283-6.37M338.713 306.691l-.328.06-.364.065M338.713 306.691l.155.715M338.02 306.816l.156.713M338.02 306.816l-6.804 1.225M338.02 306.816l-1.343-6.354M338.868 307.406l-.692.123M338.868 307.406l1.48 6.832M338.176 307.53l1.49 6.841M338.176 307.53l-6.808 1.21M331.216 308.04l-.97.176M331.216 308.04l.152.7M330.246 308.216l-6.623 1.191M330.246 308.216l.172.693M330.418 308.909l.385-.069.565-.1M331.277 310.615l.155-1.582-.064-.293" clip-path="url(#pe6eb6b46b2)" style="fill:none;stroke:#000"/><path d="m330.418 308.909.088.354.51.907.261.445M330.418 308.909l-6.65 1.182M323.623 309.407l.145.684M363.092 309.813l1.64 7.504M363.092 309.813l-7.474 1.455M323.768 310.09l2 7.013M331.277 310.615l1.096 5.176M355.618 311.268l1.442 7.325M355.618 311.268l-7.332 1.426M348.286 312.694l-.892.174M348.286 312.694l1.452 7.273M347.394 312.868l1.596 7.22M347.394 312.868l-7.046 1.37M340.348 314.238l-.681.133M340.348 314.238l1.567 7.234M339.667 314.371l1.426 7.286M339.667 314.371l-7.294 1.42M332.373 315.79l1.407 7.253M332.373 315.79l-6.606 1.313M364.732 317.317l1.356 6.7M364.732 317.317l-7.672 1.276M325.767 317.103l1.05 7.17M357.06 318.593l1.43 6.924M357.06 318.593l-7.322 1.374M349.738 319.967l-.748.12M349.738 319.967l1.533 6.91M348.99 320.087l1.438 6.961M348.99 320.087l-7.075 1.385M341.915 321.472l-.822.185M341.915 321.472l1.498 6.91M341.093 321.657l1.589 6.864M341.093 321.657l-7.313 1.386M333.78 323.043l-6.963 1.23M335.397 329.796l-.293-1.149-1.324-5.604M366.088 324.017l1.461 6.585M366.088 324.017l-7.598 1.5M326.817 324.273l.903 5.412M358.49 325.517l1.476 6.5M358.49 325.517l-7.219 1.36M351.271 326.877l-.843.171M351.271 326.877l1.347 6.516M350.428 327.048l1.344 6.51M350.428 327.048l-7.015 1.333M343.413 328.381l-.731.14M343.413 328.381l1.311 6.594M342.682 328.521l1.382 6.596M342.682 328.521l-7.285 1.275M514.491 328.787l-11.955 20.992M335.397 329.796l-7.43 1.378M367.55 330.602l-7.584 1.416M369.24 337.417l-.273-1.09-1.418-5.725M327.967 331.174l-.247-1.489M327.967 331.174l2.477 11.22M359.966 332.018l1.5 6.944M359.966 332.018l-7.348 1.375M352.618 333.393l-.846.166M352.618 333.393l1.61 6.875M351.772 333.559l1.682 6.886M344.724 334.975l2.355-.468 4.692-.948M344.724 334.975l-.66.142M344.724 334.975l1.431 6.94M344.064 335.117l1.402 6.926M369.24 337.417l1.476 7.346M369.24 337.417l-7.774 1.545M361.466 338.962l1.56 6.511M361.466 338.962l-7.239 1.306M354.227 340.268l-.773.177M354.227 340.268l1.538 7.294M353.454 340.445l-7.299 1.47M353.454 340.445l.303 1.212 1.25 6.055M346.155 341.914l-.69.129M347.91 349.055l-.497-2.205-1.258-4.936M345.466 342.043l1.43 5.493.357 1.642M341.327 341.833l1.013.091 1.53.077 1.596.042M370.716 344.763l.146.539M370.716 344.763l-6.983 1.325M363.733 346.088l-.708-.615M362.812 346.304l.438-.117.483-.099M363.733 346.088l1.488 6.78M362.812 346.304l1.526 6.739M362.812 346.304l-7.047 1.258M362.812 346.304l.213-.83M355.765 347.562l-.759.15M355.765 347.562l1.615 6.863M355.006 347.712l1.582 6.864M355.006 347.712l-7.095 1.343M347.91 349.055l-.657.123M347.91 349.055l1.567 6.937M347.253 349.178l.118.54M372.074 350.389l-1.212-5.087M372.074 350.389l-.004 1.15M372.074 350.389l.699 1.027M400.915 369.248l-.657-2.454-3.732-17.577M449.87 360.427l2.013-1.451 50.653-9.197M487.062 377.59l2.083-3.868 12.903-23.107.488-.836M372.773 351.416l-.703.124M372.773 351.416l.187.706M372.96 352.122l-.705.139M372.96 352.122l1.457 6.522M372.255 352.26l1.445 6.53M372.255 352.26l-6.849 1.451M372.255 352.26l-.185-.72M365.221 352.868l-.883.175M365.221 352.868l.185.843M365.221 352.868l6.85-1.328M364.338 353.043l.186.84M364.338 353.043l-6.958 1.382M365.406 353.711l-.882.173M365.406 353.711l1.405 6.4M364.524 353.884l1.415 6.397M364.524 353.884l-6.952 1.357M357.38 354.425l-.792.15M357.38 354.425l.192.816M356.588 354.576l.17.814M356.588 354.576l-7.11 1.416M357.572 355.24l-.814.15M357.572 355.24l1.407 6.274M356.758 355.39l1.38 6.28M349.477 355.992l-.708.14M349.477 355.992l1.596 7.417M348.77 356.132l1.577 7.42M348.77 356.132l-6.921 1.373M348.77 356.132l-1.399-6.413M341.849 357.505l-.837.166M341.849 357.505l-.639-.615M341.849 357.505l1.655 7.604M341.012 357.671l1.649 7.611M341.012 357.671l.198-.78M374.417 358.644l-.717.146M374.417 358.644l.24.9M373.7 358.79l.188.873M373.7 358.79l-6.889 1.321M374.657 359.545l-.769.118M374.657 359.545l1.28 6.126M373.888 359.663l1.239 6.183M373.888 359.663l-6.907 1.224M366.811 360.111l-.872.17M366.811 360.111l.17.776M365.939 360.28l.17.77M365.939 360.28l-6.96 1.234M412.994 366.89l32.687-6.275 2.159-.266 2.03.078" clip-path="url(#pe6eb6b46b2)" style="fill:none;stroke:#000"/><path d="m474.736 371.465-19.513-9.618-2.159-.706-1.558-.518-1.636-.196M366.981 360.887l-.872.164M366.981 360.887l1.374 6.355M366.109 361.05l1.345 6.348M366.109 361.05l-7.006 1.19M358.98 361.514l-.842.156M358.98 361.514l.123.727M358.138 361.67l.145.705M359.103 362.24l-.82.135M359.103 362.24l1.43 6.324M358.283 362.375l-6.74 1.26M358.283 362.375l1.078 5.459.19.892M351.201 363.991l-.128-.582M351.201 363.991l.343-.355M351.201 363.991l-.718.13M351.201 363.991l.405 1.43M350.483 364.12l.12.572 1.124 5.613M350.483 364.12l-.136-.569M350.483 364.12l-.44-.192M343.504 365.109l6.538-1.181M343.504 365.109l-.843.173M343.504 365.109l1.441 6.41M342.661 365.282l1.412 6.435M342.661 365.282l-6.839 1.474M375.937 365.67l-.81.176M375.937 365.67l.222.84M376.159 366.51l-.84.167M376.159 366.51l1.469 6.365M335.822 366.756l-4.864-22.034M337.22 373.076l-.127-.606-.39-1.574-.881-4.14M412.994 366.89l-12.079 2.358M417.235 370.546l-4.147-2.324-.094-1.332M368.355 367.242l-.901.156M368.355 367.242l.168.708M368.355 367.242l6.772-1.396M367.454 367.398l.15.735M367.454 367.398l-6.92 1.166M368.523 367.95l6.795-1.273M368.523 367.95l-.92.183M368.523 367.95l1.42 6.433M367.604 368.133l1.487 6.425M367.604 368.133l-6.841 1.363M360.534 368.564l-.984.162M360.534 368.564l.229.932M359.55 368.726l-6.966 1.404M359.55 368.726l.19.987M400.915 369.248l-13.275 2.424M360.763 369.496l-1.024.217M360.763 369.496l1.329 6.315M359.74 369.713l1.36 6.308M359.74 369.713l-6.983 1.261M352.584 370.13l-.24-1.444M352.584 370.13l-.857.175M352.584 370.13l.173.844M351.727 370.305l.17.827M351.727 370.305l-4.636.8M352.757 370.974l-.86.158M352.757 370.974l1.368 6.328M351.898 371.132l1.282 6.366M351.898 371.132l-4.573.893M344.945 371.518l-.872.199M344.945 371.518l.187.872M344.945 371.518l2.146-.412M387.64 371.672l-5.46.872M382.18 372.544l-2.467-14.017.06-.33.172-.138.435-.157 3.92-.774.384-.03.36.06.314.33 2.282 14.184M344.073 371.717l.19.864M344.073 371.717l-2.415.479M345.132 372.39l2.193-.365M345.132 372.39l-.869.191M345.132 372.39l1.419 6.413M344.263 372.581l1.403 6.376M344.263 372.581l-2.426.486M382.18 372.544l-2.254.354M379.926 372.898l-2.298-.023M379.926 372.898l-2.075.87M336.259 373.263l.203.85M336.259 373.263l-.258.043-6.447 1.114M337.22 373.076l-.337.068-.624.119M377.851 373.769l-.223-.894M337.393 373.925l-.174-.85M337.393 373.925l.43-.055 4.014-.803M337.393 373.925l-.93.187M337.393 373.925l1.395 6.357M336.462 374.112l1.462 6.388M336.462 374.112l-6.731 1.351M329.554 374.42l-.567.104M329.554 374.42l.177 1.043M328.987 374.524l.157 1.047M328.987 374.524l-6.251 1.086-.347.08-.452.116-.297.119M369.942 374.383l-.85.175M369.942 374.383l.164.819M369.942 374.383l3.313-.647M369.091 374.558l.212.798M369.091 374.558l-4.947.886M329.731 375.463l-.587.108M329.731 375.463l1.172 6.725M329.144 375.571l1.147 6.734M329.144 375.571l-7.36 1.101M370.106 375.202l3.322-.611M370.106 375.202l-.803.154M370.106 375.202l1.453 6.54M369.303 375.356l1.416 6.543M369.303 375.356l-4.956.924M321.64 375.925l-.894.522M321.64 375.925l.144.747M320.746 376.447l.1.459M320.746 376.447l-.51.344M362.092 375.811l-.992.21M362.092 375.811l.19.854M362.092 375.811l2.052-.367M361.1 376.02l-6.975 1.282M361.1 376.02l.23.85M321.784 376.672l-.938.234M321.784 376.672l1.432 7.02M320.846 376.906l1.587 6.989M320.846 376.906l-.61-.115M362.283 376.665l2.064-.385M362.283 376.665l-.954.205M362.283 376.665l1.316 6.544M361.33 376.87l1.51 6.486M361.33 376.87l-6.97 1.277M354.125 377.302l-.945.196M354.125 377.302l.234.845M314.987 377.738l1.646 7.318M314.987 377.738l5.25-.947M314.987 377.738l-7.154 1.344M353.18 377.498l.205.847M353.18 377.498l-6.63 1.305M354.36 378.147l-.975.198M354.36 378.147l1.512 6.387M353.385 378.345l1.57 6.385M353.385 378.345l-6.63 1.274M346.55 378.803l-.884.154M346.55 378.803l.205.816M307.833 379.082l1.536 7.43M303.111 380.093l.258-.1.516-.14 3.948-.771M345.666 378.957l.184.884M345.666 378.957l-6.878 1.325M346.755 379.62l-.905.22M346.755 379.62l1.31 6.402M345.85 379.84l1.41 6.353M345.85 379.84l-6.931 1.221M378.501 380.398l-.186-.82M378.501 380.398l.132.693M378.501 380.398l-6.942 1.344M302.01 380.384l1.101-.291M302.01 380.384l-7.255 1.648M294.755 382.032l-.7-2.997.054-.206.142-.157.238-.104 4.209-.823.364.03.389.138.243.13 1.133 1.039 1.183 1.302M338.788 380.282l-.864.218M338.788 380.282l.13.78M380.154 387.852l-.163-.843-.397-1.793-.42-1.928-.541-2.197M378.633 381.091l-6.928 1.254M338.087 381.18l.4-.046.432-.073M338.919 381.061l1.402 6.386M338.087 381.18l1.335 6.433M338.087 381.18l-1.835.048M338.087 381.18l-.163-.68M330.903 382.188l5.349-.96M330.903 382.188l-.612.117M330.903 382.188l1.548 6.805M371.559 381.742l-.84.157M371.559 381.742l.146.603M370.719 381.9l.121.608M370.719 381.9l-7.12 1.31M294.755 382.032l-4.903 1.03M337.924 380.5l-.527.223-1.145.505M371.705 382.345l-.865.163M371.705 382.345l1.456 6.754M370.84 382.508l1.362 6.761M370.84 382.508l-7.059 1.494M330.291 382.305l1.444 6.848M330.291 382.305l-7.075 1.386M289.852 383.062l.834 3.452M287.58 387.127l-.705-3.042.026-.245.096-.188.154-.113 2.701-.477M363.6 383.21l-.76.146M363.6 383.21l.181.792M362.84 383.356l-6.968 1.178M362.84 383.356l.156.792M322.433 383.895l.783-.204M322.433 383.895l-5.8 1.16M322.433 383.895l1.39 6.778M303.24 383.76l-12.554 2.754M303.24 383.76l.222 3.693M303.111 380.093l.098 1.364.031 2.303M363.781 384.002l-.785.146M363.781 384.002l1.6 6.593M323.216 383.691l1.508 6.805M362.996 384.148l1.462 6.614M362.996 384.148l-6.97 1.149M355.872 384.534l-.917.196M355.872 384.534l.154.763M354.955 384.73l.208.75M354.955 384.73l-6.89 1.292M316.633 385.056l1.491 6.631M316.633 385.056l-7.264 1.456M356.026 385.297l-.863.184M356.026 385.297l1.445 6.761M355.163 385.48l1.381 6.75M355.163 385.48l-6.928 1.307M348.065 386.022l-.805.171M348.065 386.022l.17.765M347.26 386.193l.182.784M347.26 386.193l-6.939 1.254M290.686 386.514l-3.105.613M290.686 386.514l.834 3.454M309.369 386.512l1.496 6.453M309.369 386.512l-5.907.94M348.235 386.787l-.793.19M348.235 386.787l1.5 6.771M347.442 386.977l1.454 6.738M347.442 386.977l-6.927 1.271M291.52 389.968l-2.703.596-.168.004-.205-.027-.18-.092-.136-.132-.547-3.19M340.321 387.447l-.899.166M340.321 387.447l.194.801M303.687 394.431l-.186-4.062-.04-2.916" clip-path="url(#pe6eb6b46b2)" style="fill:none;stroke:#000"/><path d="m291.52 389.968 11.44-2.412.502-.103M339.422 387.613l.211.765M339.422 387.613l-6.97 1.38M380.154 387.852l.146.682M380.154 387.852l-6.993 1.247M380.154 387.852l4.618-.887M340.515 388.248l-.882.13M340.515 388.248l1.488 6.838M339.633 388.378l1.493 6.853M339.633 388.378l-6.966 1.438M380.3 388.534l4.648-.779M381.614 394.974l-.318-1.632-.577-2.656-.419-2.152M380.3 388.534l-6.974 1.376M332.451 388.993l-.716.16M332.451 388.993l.216.823M331.735 389.153l-7.01 1.343M331.735 389.153l.085.47.081.358M373.161 389.099l-.959.17M373.161 389.099l.165.811M372.202 389.269l.175.78M372.202 389.269l-6.82 1.326M332.667 389.816l1.326 6.628M332.667 389.816l-.766.165M373.326 389.91l-.949.14M373.326 389.91l1.336 6.373M372.377 390.05l1.459 6.407M372.377 390.05l-6.814 1.303M324.724 390.496l-.902.177M324.724 390.496l.192.746M365.381 390.595l-.923.167M365.381 390.595l.182.758M323.822 390.673l-5.698 1.014M323.822 390.673l.171.758M364.458 390.762l-6.987 1.296M364.458 390.762l.19.765M324.916 391.242l6.985-1.261M324.916 391.242l-.923.189M326.277 397.944l-.391-1.598-.397-1.713-.272-1.567-.301-1.824M323.993 391.43l1.39 6.709M323.993 391.43l-5.757.928M365.563 391.353l-.916.174M365.563 391.353l1.35 6.42M364.647 391.527l1.532 6.422M364.647 391.527l-7.02 1.264M318.124 391.687l.112.67M318.124 391.687l-7.26 1.278M357.47 392.058l-.926.171M357.47 392.058l.157.733M356.544 392.23l.164.755M356.544 392.23l-3.464.676M319.74 399.198l-1.229-5.627-.275-1.213M318.236 392.358l-7.205 1.287M357.627 392.791l-.92.194M357.627 392.791l1.425 6.4M356.708 392.985l1.474 6.423M356.708 392.985l-3.5.559M310.865 392.965l-7.178 1.466M310.865 392.965l.166.68M292.026 393.463l-6.683 1.255M292.026 393.463l.54 2.907M299.385 395.128l-.6-2.56-.166-.215-.126-.069-.289-.018-6.178 1.197M349.735 393.558l-.839.157M349.735 393.558l.14.6M349.735 393.558l3.345-.652M348.896 393.715l.128.603M348.896 393.715l-6.893 1.371M311.03 393.645l1.444 6.903M311.03 393.645l-7.16 1.5M349.876 394.158l3.333-.614M349.876 394.158l-.852.16M349.876 394.158l1.426 6.55M349.024 394.318l1.367 6.546M349.024 394.318l-6.88 1.264M285.343 394.718l-6.701 1.276M285.343 394.718l.652 2.95M342.003 395.086l-.877.145M342.003 395.086l.14.496M299.898 395.041l-.513.087M299.898 395.041l.255.824M303.687 394.431l-3.1.506-.69.104M299.385 395.128l-6.819 1.242M341.126 395.23l.138.55M341.126 395.23l-7.133 1.214M300.153 395.865l.529 1.914M300.153 395.865l.631-.117 3.086-.603M381.614 394.974l.134.732M381.614 394.974l-6.952 1.309M342.144 395.582l-.88.198M342.144 395.582l1.292 6.598M383.036 402.706l.142-.211.076-.265.012-.268-.447-1.939-.527-2.122-.544-2.195M381.748 395.706l-6.9 1.353M341.264 395.78l.297 1.289 1.046 5.282M341.264 395.78l-7.13 1.298M278.642 395.994l.52 2.848M271.652 400.357l-1.376-1.123-.481-.49-.189-.295-.088-.403.042-.126.117-.123.153-.086 8.812-1.717M292.566 396.37l.62 2.819M292.566 396.37l-6.571 1.299M333.993 396.444l-.72.168M333.993 396.444l.141.634M374.662 396.283l-.826.174M374.662 396.283l.187.776M333.272 396.612l.124.623M333.272 396.612l-6.995 1.332M333.272 396.612l-1.37-6.631M373.836 396.457l.163.793M373.836 396.457l-3.731.735M374.849 397.059l-.85.19M374.849 397.059l1.453 6.773M334.134 397.078l-.738.157M335.637 403.648l-.144-.559-1.359-6.011M333.396 397.235l1.464 6.574M333.396 397.235l-6.989 1.281M374 397.25l1.52 6.74M374 397.25l-3.699.695M285.995 397.669l.604 2.728M285.995 397.669l-6.832 1.173M300.682 397.78l.758 2.977M293.186 399.189l7.26-1.367.236-.043M326.277 397.944l-.893.195M326.277 397.944l.13.572M366.914 397.773l-.735.176M366.914 397.773l.216.814M366.914 397.773l3.19-.581M325.384 398.139l-5.643 1.06M325.384 398.139l.144.575M366.18 397.95l-7.128 1.24M366.18 397.95l.153.785M367.13 398.587l3.171-.642M367.13 398.587l-.797.148M367.13 398.587l1.476 6.67M326.407 398.516l-.88.198M326.407 398.516l1.347 6.572M366.333 398.735l1.448 6.7M366.333 398.735l-7.082 1.26M325.528 398.714l1.411 6.55M325.528 398.714l-5.659 1.03M279.163 398.842l.61 2.875M279.163 398.842l-7.511 1.515M319.74 399.198l-7.266 1.35M319.87 399.745l-.028-.077-.101-.47M293.186 399.189l.692 2.853M293.186 399.189l-6.587 1.208M359.052 399.19l-.87.218M359.052 399.19l.199.804M358.182 399.408l.165.806M358.182 399.408l-6.88 1.3M319.87 399.745l1.416 6.586M319.87 399.745l-7.296 1.39M359.25 399.994l-.903.22M359.25 399.994l1.413 6.577M358.347 400.214l1.222 6.576M358.347 400.214l-6.873 1.295" clip-path="url(#pe6eb6b46b2)" style="fill:none;stroke:#000"/><path d="m273.112 402.996-1.205-2.206-.255-.433M286.599 400.397l.653 2.96M286.599 400.397l-6.827 1.32M312.474 400.548l.1.588M312.474 400.548l-7.178 1.29M293.878 402.042l7.279-1.225.283-.06" clip-path="url(#pe6eb6b46b2)" style="fill:none;stroke:#000"/><path d="m301.767 402.47-.168-.967-.16-.746M351.302 400.708l-.91.156M351.302 400.708l.172.8M350.391 400.864l.173.806M350.391 400.864l-6.955 1.316M312.574 401.136l1.558 6.639M312.574 401.136l-7.131 1.257M351.474 401.509l-.91.16M351.474 401.509l1.479 6.693M350.564 401.67l1.532 6.686M350.564 401.67l-6.935 1.138M305.296 401.837l.147.556M305.296 401.837l-1.426-6.692M305.296 401.837l-3.529.633M293.878 402.042l-6.626 1.315M293.878 402.042l.226.962M343.436 402.18l-.829.171M343.436 402.18l.193.628M342.607 402.351l.155.615M342.607 402.351l-6.97 1.297M305.443 402.393l1.426 6.762M305.443 402.393l-3.547.678M383.036 402.706l-5.869 1.133-.318.05-.243.008-.304-.065M343.63 402.808l-.868.158M343.63 402.808l1.696 6.803M342.762 402.966l1.542 6.862M342.762 402.966l-6.97 1.234M287.252 403.357l-6.868 1.255M294.104 403.004l-5.37 1.529-.54.084-.323-.042-.236-.128-.383-1.09M301.982 403.7l-.086-.63M303.23 409.696l-1.18-5.665-.068-.331M294.104 403.004l.327 1.45.126.179.171.126.3.088.566-.042 6.388-1.105M335.637 403.648l-.777.16M335.637 403.648l.155.552M334.86 403.809l.106.577M334.86 403.809l-7.106 1.279M376.302 403.832l-.782.158M376.302 403.832l-.003.652M375.52 403.99l.145.639M375.52 403.99l-6.914 1.267M335.792 404.2l-.826.186M335.792 404.2l1.396 6.963M279.772 401.717l.111.562.452 2.145.05.188M273.112 402.996l.368.95.427 1.15.35.314.485.227 5.642-1.025M334.966 404.386l1.512 6.907M334.966 404.386l-7.073 1.317M376.299 404.484l-.634.145M376.299 404.484l-.323.749M327.754 405.088l-.815.177M327.754 405.088l.139.615M326.94 405.265l.134.585M326.94 405.265l-5.654 1.066M368.606 405.257l-.825.177M368.606 405.257l.194.782M367.78 405.434l-7.117 1.137M367.78 405.434l.141.753M327.893 405.703l-.82.147M327.893 405.703l1.607 6.758M368.8 406.039l6.865-1.41M368.8 406.039l-.879.148M368.8 406.039l1.692 8.037M327.074 405.85l1.588 6.817M327.074 405.85l-5.662 1.02M367.921 406.187l1.65 8.077M367.921 406.187l-7.007 1.401M321.286 406.33l.126.54M321.286 406.33l-7.154 1.445M360.663 406.571l-1.094.22M360.663 406.571l.251 1.017M359.57 406.79l.255 1.018M359.57 406.79l-3.79.809M322.853 413.806l-.017-.285-1.111-5.232-.313-1.418M321.412 406.87l-7.186 1.326M360.914 407.588l-1.09.22M360.914 407.588l1.79 7.973M359.825 407.808l1.883 7.926M359.825 407.808l-3.861.636M314.132 407.775l.094.42M314.132 407.775l-7.263 1.38M352.953 408.202l-.857.154M352.953 408.202l.165.711M352.953 408.202l2.827-.603M352.096 408.356l.157.74M352.096 408.356l-6.77 1.255M314.226 408.196l1.523 6.913M314.226 408.196l-7.232 1.441M353.118 408.913l2.846-.469M353.118 408.913l-.865.182M353.118 408.913l1.766 8.145M306.87 409.155l.124.482M306.87 409.155l-3.64.54M352.253 409.095l1.78 8.089M352.253 409.095l-6.737 1.332M345.326 409.611l-1.022.217M345.326 409.611l.19.816M303.23 409.696l.133.585M344.304 409.828l.187.775M344.304 409.828l-2.984.56M306.994 409.637l1.696 6.826M306.994 409.637l-3.631.644M345.516 410.427l-1.025.176M345.516 410.427l.89 4.391M344.491 410.603l1.008 4.4M344.491 410.603l-2.974.566M303.363 410.281l.912 5.163M337.188 411.163l-.71.13M337.188 411.163l.163.8M337.188 411.163l4.132-.776M336.478 411.293l.176.784M336.478 411.293l-6.978 1.168M337.351 411.963l4.166-.794M337.351 411.963l-.697.114M339.245 419.912l-1.805-7.524-.089-.425M336.654 412.077l1.807 8.008M336.654 412.077l-6.924 1.263M329.5 412.46l-.838.207M329.5 412.46l.23.88M328.662 412.667l-5.809 1.14M328.662 412.667l.272.835M377.941 412.807l-1.965-7.574M377.941 412.807l.182.778M377.941 412.807l-7.45 1.269M328.934 413.502l.481-.096.315-.066M329.73 413.34l-.2.589M328.934 413.502l.597.427M328.934 413.502l-6.034 1.11M379.96 419.93l-.241-.98-.305-1.062-.306-.973-.376-1.207-.609-2.123M378.123 413.585l-7.436 1.409M322.853 413.806l.047.805M322.853 413.806l-5.409.992M370.492 414.076l-.922.188M370.492 414.076l.195.918M369.57 414.264l-6.866 1.297M369.57 414.264l.215.9M324.052 422.049l-1.01-5.862-.068-.51-.066-.478-.008-.588M322.9 414.611l-5.304.907M317.444 414.798l-1.695.31M317.444 414.798l.152.72M370.687 414.994l-.902.17M370.687 414.994l1.4 6.307M315.749 415.109l-4.607.845M315.749 415.109l.133.66M369.785 415.164l1.37 6.335M369.785 415.164l-6.87 1.232M317.596 415.518l1.504 7.448M317.596 415.518l-1.714.25M362.704 415.561l-.996.173M362.704 415.561l.212.835M361.708 415.734l.14.842M361.708 415.734l-6.824 1.324M315.882 415.768l-4.623.83M311.142 415.954l.117.645M311.142 415.954l-2.452.51M308.69 416.463l-3.783.572M308.69 416.463l.075.572M362.916 416.396l-1.068.18M364.365 422.826l-.17-.775-1.28-5.655M361.848 416.576l.433 1.596 1.18 4.822M361.848 416.576l-6.824 1.173M311.26 416.599l1.42 7.534M311.26 416.599l-2.495.436M354.884 417.058l-.852.126M354.884 417.058l.14.691M304.907 417.035l.192.803M304.907 417.035l-.632-1.591M308.765 417.035l-3.666.803M354.032 417.184l.165.747M354.032 417.184l-6.834 1.134M355.024 417.75l-.827.18M355.024 417.75l1.435 6.546M306.69 425.287l-.16-.928-.452-2.107-.98-4.414M354.197 417.93l1.423 6.522M354.197 417.93l-6.821 1.29M347.198 418.318l-.792-3.5M347.198 418.318l-1.027.18M347.198 418.318l.178.901M346.17 418.498l.174.908M346.17 418.498l-6.925 1.414M346.17 418.498l-.671-3.495M347.376 419.22l-1.032.186M347.376 419.22l1.402 6.317M346.344 419.406l1.197 4.988.237 1.315M346.344 419.406l-6.934 1.281M379.96 419.93l.16.696M379.96 419.93l-7.872 1.371M339.245 419.912l-.784.173M339.245 419.912l.165.775M338.461 420.085l.205.774M338.461 420.085l-5.294 1M339.41 420.687l-.744.172M340.92 427.126l-1.378-5.905-.132-.534M330.835 420.88l-6.783 1.169M330.835 420.88l.499.279M330.835 420.88l-1.304-6.951M380.97 427.049l.058-1.387-.016-.698-.143-.796-.284-.943-.465-2.6M380.12 420.626l-7.875 1.381M338.666 420.86l1.433 6.408M333.777 421.824l.382-.08 4.507-.885M331.334 421.159l.603.76M331.334 421.159l.978.047M372.088 421.301l-.932.198M372.088 421.301l.157.706M371.156 421.5l-6.79 1.326M371.156 421.5l.152.708M324.052 422.049l1.682 7.495M324.052 422.049l-4.952.917M372.245 422.007l-.937.201M372.245 422.007l1.399 6.371M332.312 421.206l-.208.195-.13.247-.037.27M333.167 421.086l-.294-.046-.295.04-.266.126M371.308 422.208l1.494 6.36M371.308 422.208l-6.788 1.293M333.588 422.42l.143-.228.06-.257-.014-.111M332.224 422.511l.273.158.292.067.3-.023.275-.109.224-.184M333.588 422.42l.483 1.554M332.224 422.511l1.147 1.632.018.038M331.937 421.919l.058.268.102.18.127.144M364.365 422.826l-.903.168M364.365 422.826l.155.675M319.1 422.966l-6.42 1.167M319.1 422.966l1.47 7.411M363.462 422.994l.13.655M363.462 422.994l-7.003 1.302M364.52 423.501l-.927.148M364.52 423.501l1.254 6.412M363.593 423.649l1.411 6.402M363.593 423.649l-6.963 1.315M334.07 423.974l-.68.207M335.106 428.045l-.904-3.619-.131-.452M312.68 424.133l1.624 7.472M312.68 424.133l-5.99 1.154M333.39 424.181l.19.527.163.601.297 1.433.225 1.399M356.459 424.296l-.839.156M356.459 424.296l.171.668M355.62 424.452l.15.725M355.62 424.452l-6.842 1.085M356.63 424.964l-.86.213M356.63 424.964l1.37 6.378M355.77 425.177l1.39 6.32M355.77 425.177l-6.784 1.27M308.345 432.672l-.586-2.566-.636-2.958-.434-1.861M348.778 425.537l-1 .172M348.778 425.537l.208.91M347.778 425.71l.18.924M347.778 425.71l-6.859 1.416M348.986 426.447l-1.028.187M348.986 426.447l1.178 6.361M347.958 426.634l1.463 6.297M347.958 426.634l-6.882 1.24M380.97 427.049v.796M380.97 427.049l-7.326 1.33M340.92 427.126l-.821.142M340.92 427.126l.156.748M340.099 427.268l.178.796M340.099 427.268l-4.993.777M341.076 427.874l-.799.19M341.076 427.874l1.31 6.41M382.98 434.553l-.588-1.283-.377-1.05-.577-1.547-.226-1.004-.125-.79-.117-1.034M380.97 427.845l-7.11 1.256M334.265 428.14l.234.98M334.265 428.14l-5.003.845M334.265 428.14l.841-.095M340.277 428.064l1.335 6.343M340.277 428.064l-4.988.906M335.106 428.045l.183.925M373.644 428.378l-.842.19M373.644 428.378l.215.723M372.802 428.567l-7.028 1.346M372.802 428.567l.178.747M329.262 428.985l-3.528.56M330.508 435.731l-1.127-6.155-.12-.591M335.29 428.97l1.094 5.669M335.29 428.97l-.791.15M373.86 429.1l-.88.214M373.86 429.1l1.638 6.845M372.98 429.314l1.225 5.791.216 1.032M372.98 429.314l-7.05 1.369M325.734 429.544l-1.894.352M365.774 429.913l-.77.138M365.774 429.913l.155.77M323.84 429.896l-3.27.481M323.84 429.896l1.241 6.757M365.004 430.05l.186.79M365.004 430.05 358 431.343M320.57 430.377l-6.266 1.228M320.57 430.377l1.266 6.879M365.93 430.683l-.74.158M365.93 430.683l1.611 6.898M365.19 430.84l1.505 6.951M358.2 432.256l6.425-1.309.565-.106M358 431.342l-.84.154M358 431.342l.2.914M357.16 431.496l.2.916M357.16 431.496l-6.996 1.312M314.304 431.605l-5.959 1.067M314.304 431.605l1.39 6.682M358.2 432.256l-.84.156M358.2 432.256l1.494 6.685M357.36 432.412l1.47 6.707M357.36 432.412l-7.035 1.178M350.164 432.808l-.743.123M350.164 432.808l.161.782M349.42 432.93l.196.796M349.42 432.93l-7.035 1.354M309.353 439.28l-.088-.991-.142-1.012-.21-1.156-.568-3.449M350.325 433.59l-.709.136M350.325 433.59l1.508 6.81M349.616 433.726l1.5 6.814M349.616 433.726l-7.095 1.2M342.385 434.284l-.773.123M342.385 434.284l.136.641M341.612 434.407l.171.664M341.612 434.407l-5.104.913M382.98 434.553l-7.482 1.392M376.13 443.076l7.56-1.74.493-.473.192-.413.042-.41-.075-.399-1.362-5.088M336.384 434.639l-.66.104M336.384 434.639l.124.68M335.724 434.743l1.294 6.724M335.724 434.743l-5.216.988M335.724 434.743l-1.225-5.624M342.52 434.925l-.737.146M344.147 441.951l-.077-.344-1.55-6.682M341.783 435.07l1.567 6.707.069.309M341.783 435.07l-5.12.975M336.508 435.32l.155.725M330.508 435.731l1.31 6.703M330.508 435.731l-5.427.922M336.663 436.045l1.12 5.344M375.498 435.945l-1.077.192M375.498 435.945l-.356 1.512M374.42 436.137l-6.879 1.444M374.42 436.137l.722 1.32M325.081 436.653l1.306 6.73M325.081 436.653l-3.245.603M321.836 437.256l-6.141 1.03M321.836 437.256l1.379 6.704M375.142 437.457l.988 5.619M367.541 437.581l-.846.21M367.541 437.581l1.588 6.86M366.695 437.791l1.49 6.825M366.695 437.791l-7.001 1.15M315.695 438.287l1.308 6.761M315.695 438.287l-6.342.992M359.694 438.941l-.865.178M359.694 438.941l1.494 6.83M358.83 439.119l1.494 6.808M358.83 439.119l-6.997 1.281M309.353 439.28l1.35 6.88M351.833 440.4l-.717.14M351.833 440.4l1.533 6.846M351.116 440.54l1.346 6.84M351.116 440.54l-6.969 1.411M337.782 441.389l-.764.078M337.782 441.389l.35 1.62M337.018 441.467l-5.2.967M337.018 441.467l.422 1.702 1.015 4.933M344.147 441.951l-.728.135M344.147 441.951l1.515 6.728M343.419 442.086l1.517 6.742M338.132 443.008l1.322-.26 3.965-.662M331.818 442.434l1.42 6.601M331.818 442.434l-5.431.95M338.132 443.008l1.328 6.749M376.13 443.076l-7.001 1.365M376.13 443.076l.18.566M326.387 443.384l1.506 6.6M326.387 443.384l-3.172.576M376.31 443.642l1.561 6.382M376.31 443.642l-7.02 1.417M323.215 443.96l-6.212 1.088M323.215 443.96l1.478 6.594M369.129 444.44l-.943.176M369.129 444.44l.161.619M368.186 444.616l.123.598M368.186 444.616l-6.998 1.155M317.003 445.048l1.42 6.622M317.003 445.048l-6.3 1.112M369.29 445.059l-.981.155M369.29 445.059l-.31.897M368.309 445.214l.672.742M368.309 445.214l-6.98 1.302M368.98 445.956l.996 5.73M361.188 445.771l-.864.156M361.188 445.771l.14.745M360.324 445.927l.14.7M360.324 445.927l-6.958 1.319M310.703 446.16l1.365 6.643M361.328 446.516l-.864.11M361.328 446.516l1.358 6.522M360.464 446.626l1.442 6.563M360.464 446.626l-6.937 1.327M353.366 447.246l-.904.134M353.366 447.246l.161.707M352.462 447.38l.163.731M352.462 447.38l-6.8 1.299M353.527 447.953l-.902.158M353.527 447.953l1.482 6.427M338.455 448.102l.351 1.753M338.455 448.102l-5.217.933M352.625 448.111l1.083 4.267.482 2.196M352.625 448.111l-6.775 1.233M345.662 448.679l-.726.149M345.662 448.679l.188.665M344.936 448.828l.127.665M344.936 448.828l-5.476.929M333.238 449.035l1.394 6.56M333.238 449.035l-5.345.948M345.85 449.344l-.787.149M347.238 455.786l-.201-.833-1.187-5.61M345.063 449.493l.138.573 1.2 5.877M345.063 449.493l-5.458.931M339.46 449.757l-.654.098M339.46 449.757l.145.667M327.893 449.983l-3.2.57M327.893 449.983l1.319 6.577M377.871 450.024l-7.895 1.663M377.871 450.024l.172.616M324.693 450.554l-6.27 1.116M324.693 450.554l1.333 6.573M339.605 450.424l-.673.15M339.605 450.424l.801 4.08M338.932 450.574l.814 4.053M338.932 450.574l-.126-.72M378.043 450.64l1.652 6.585M378.043 450.64l-7.924 1.498M318.423 451.67l1.34 6.572M318.423 451.67l-6.355 1.133M369.976 451.687l-7.29 1.35M369.976 451.687l.143.451M370.119 452.138l1.392 6.68M370.119 452.138l-7.305 1.407M312.068 452.803l1.35 6.57M362.686 453.038l-.78.15M362.686 453.038l.128.507M361.906 453.189l.1.561M361.906 453.189l-6.897 1.191M362.814 453.545l-.807.205M362.814 453.545l1.431 6.661M362.007 453.75l1.472 6.63M362.007 453.75l-6.844 1.355M355.01 454.38l-.82.194M355.01 454.38l.153.725M340.406 454.505l-.66.122M340.406 454.505l.62 2.456M354.19 454.574l.191.667M354.19 454.574l-3.475.65M339.746 454.627l.584 2.47M339.746 454.627l-5.114.968M355.163 455.105l-.782.136M355.163 455.105l1.255 6.523M354.381 455.241l1.38 6.531M354.381 455.241l-3.489.626M334.632 455.595l1.352 6.7M334.632 455.595l-5.42.965M347.238 455.786l-.837.157M347.238 455.786l.131.714M347.238 455.786l3.477-.561M346.4 455.943l.175.713M346.4 455.943l-5.375 1.018M329.212 456.56l-3.186.567M329.212 456.56l1.349 6.726M347.37 456.5l3.522-.633M347.37 456.5l-.795.156M347.37 456.5l1.495 6.724M346.575 456.656l1.332 6.698M346.575 456.656l-5.424 1.012M326.026 457.127l-6.263 1.115M326.026 457.127l1.365 6.737M341.025 456.96l-.695.136M341.025 456.96l.126.708M379.695 457.225l-8.184 1.592M379.695 457.225l.139.61M341.15 457.668l.669 3.579M341.15 457.668l-.666.143M379.834 457.834l1.507 6.623M379.834 457.834l-8.173 1.618M319.763 458.242l1.378 6.763M319.763 458.242l-6.346 1.13M371.511 458.817l-7.266 1.39M371.511 458.817l.15.635M313.417 459.372l1.395 6.789M371.66 459.452l1.54 6.533M371.66 459.452l-7.292 1.24M364.245 460.206l-.766.174M364.245 460.206l.123.487M363.48 460.38l.094.494M363.48 460.38l-7.062 1.248M363.574 460.874l1.537 6.604M363.574 460.874l.794-.181M363.574 460.874l-7.019 1.342M341.819 461.247l-.636.1M341.819 461.247l.616 3.227M341.183 461.347l.563 3.245M341.183 461.347l-5.199.949M341.183 461.347l-.7-3.536M356.418 461.628l-.657.144M356.418 461.628l.137.588M355.76 461.772l.112.598M355.76 461.772l-6.895 1.452M335.984 462.296l1.2 6.7M335.984 462.296l-5.423.99M356.555 462.216l-.683.154M356.555 462.216l1.634 6.55M355.872 462.37l1.544 6.576M355.872 462.37l-6.888 1.356M348.865 463.224l-.958.13M348.865 463.224l.119.502M330.56 463.286l1.351 6.735M330.56 463.286l-3.169.578M347.907 463.354l.126.576M347.907 463.354l-5.472 1.12M327.391 463.864l-6.25 1.141M327.391 463.864l1.199 6.719M348.984 463.726l-.951.204M348.984 463.726l1.436 6.533M348.033 463.93l1.38 6.518M348.033 463.93l-5.524.98M342.435 464.474l-.69.118M342.435 464.474l.074.437M381.341 464.457l-8.142 1.528M381.341 464.457l.147.644M341.746 464.592l.096.447M321.141 465.005l1.231 6.514M321.141 465.005l-6.329 1.156M375.46 475.576l7.359-1.656.28-.455.113-.544.017-.809-.067-.65-1.088-3.973-.586-2.388M381.488 465.101l-8.139 1.517M342.509 464.91l-.667.129M342.509 464.91l.649 3.024M341.842 465.039l.625 3.004M373.2 465.985l-7.496 1.387M373.2 465.985l.15.633M314.812 466.16l1.262 6.701M373.35 466.618l2.109 8.958M373.35 466.618l-7.539 1.414M365.704 467.372l-.593.106M365.704 467.372l-1.176-5.812-.16-.867M365.704 467.372l.107.66M365.111 467.478l.163.675M365.111 467.478l-6.922 1.289M343.158 467.934l-.691.109M343.158 467.934l.713 3.433M365.274 468.153l.537-.12M365.274 468.153l.349.483M365.274 468.153l-6.95 1.261M342.467 468.043l1.286 6.571M342.467 468.043l-5.283.952M358.189 468.767l-.773.18M358.189 468.767l.136.647M357.416 468.946l.137.616M357.416 468.946l-6.996 1.313M337.184 468.995l1.344 6.672M337.184 468.995l-5.273 1.026M358.325 469.414l-.772.148M358.325 469.414l1.977 8.96M357.553 469.562l2.141 8.93M357.553 469.562l-7 1.305M331.911 470.02l1.312 6.54M331.911 470.02l-3.321.563M350.42 470.26l-1.007.188M350.42 470.26l.134.607M349.413 470.448l.125.608M349.413 470.448l-4.6.77-.942.149M328.59 470.583l-6.218.936M329.9 477.247l-1.119-5.621-.191-1.043M350.554 470.867l-1.016.189M350.554 470.867l1.982 8.968M349.538 471.056l.113.545 1.822 8.432M343.948 471.846l.824-.14 4.766-.65M343.87 471.367l.078.479M322.372 471.52l1.355 6.65M322.372 471.52l-6.298 1.341M316.074 472.861l1.274 6.364M344.443 474.48l-.495-2.634M344.443 474.48l-.69.134M344.443 474.48l.05 1.94M343.753 474.614l.74 1.806M343.753 474.614l-5.225 1.053M375.46 475.576l-8.08 1.474M338.528 475.667l-5.305.893M333.223 476.56l1.168 6.636M329.9 477.247l1.317 6.546M323.727 478.17l2.843-.518 3.33-.405M367.38 477.05l-1.757-8.414M367.38 477.05l-7.078 1.324M323.727 478.17l.655 3.35M323.727 478.17l-6.379 1.055M344.494 476.42l.661 4.789M360.302 478.374l-.608.118M359.694 478.492l-7.158 1.343M317.348 479.225l.812 3.389M352.536 479.835l-1.063.198M351.473 480.033l-6.318 1.176M345.155 481.209l-.756.172M345.155 481.209l1.512 6.872M344.4 481.38l1.443 6.848M344.4 481.38l-3.362.592M324.382 481.52l-6.222 1.094M324.382 481.52l.617 3.418M341.038 481.972l-3.048.566M341.038 481.972l1.396 6.862M337.99 482.538l-3.599.658M337.99 482.538l1.384 6.841M318.16 482.614l.614 3.416M334.391 483.196l1.397 6.649M334.391 483.196l-3.174.597M331.217 483.793 325 484.938M331.217 483.793l1.366 6.62M325 484.938l1.307 6.696M325 484.938l-6.226 1.092M346.667 488.081l-.824.147M346.667 488.081l1.335 6.602M345.843 488.228l1.339 6.602M345.843 488.228l-3.409.606M342.434 488.834l-3.06.545M342.434 488.834l1.345 6.605M339.374 489.379l-3.586.466M339.374 489.379l1.336 6.609M335.788 489.845l-3.205.568M335.788 489.845l1.456 6.764M332.583 490.413l-6.276 1.22M334.005 497.188l-1.027-5.214-.395-1.561M326.307 491.634l1.4 6.275M318.774 486.03l.911 5.56.164.278.343.26.536.209 5.58-.703M348.002 494.683l-.82.147M348.002 494.683l1.356 6.7M347.182 494.83l1.359 6.7M347.182 494.83l-3.403.609M343.779 495.439l-3.069.549M343.779 495.439l1.364 6.701M340.71 495.988l-3.466.62M340.71 495.988l1.356 6.706M337.244 496.609l-3.239.58M337.244 496.609l1.346 6.71M334.005 497.188l-6.298.72M334.005 497.188l1.324 6.717M327.707 497.909l-9.242 1.997M329.29 504.99l-.097-.489-1.486-6.592M349.358 501.383l-.817.147M349.358 501.383l1.342 6.638M348.541 501.53l1.343 6.624M348.541 501.53l-3.398.61M345.143 502.14l-3.077.554M345.143 502.14l1.338 6.57M342.066 502.694l-3.476.624M342.066 502.694l1.319 6.52M338.59 503.318l-3.26.587M338.59 503.318l1.297 6.468M335.33 503.905l-6.04 1.085M335.33 503.905l.447 2.273M329.29 504.99l.633 3.178M323.966 509.146l-.471-3.114 5.796-1.042M333.856 510.77l-.85-4.1 2.771-.492M336.636 510.316l-.714-3.404-.145-.734M350.7 508.02l-.816.134M350.7 508.02l1.342 6.632M349.884 508.154l1.347 6.64M349.884 508.154l-3.403.555M329.923 508.168l-5.957.978M329.923 508.168l.625 3.142M346.481 508.71l-3.096.505M346.481 508.71l1.359 6.675M323.966 509.146l.478 3.16M343.385 509.215l-3.498.57M343.385 509.215l1.357 6.71M339.887 509.786l-3.251.53M339.887 509.786l1.355 6.75M336.636 510.316l-2.78.454M336.636 510.316l1.42 6.776M333.856 510.77l-3.308.54M330.548 511.31l-6.104.996M330.548 511.31l1.365 6.854M324.444 512.306l1.054 6.977M352.042 514.652l1.043 4.008M352.042 514.652l-.81.142M351.231 514.794l-3.391.591M347.84 515.385l-3.098.54M347.84 515.385l1.32 6.482M344.742 515.926l-3.5.61M344.742 515.926l1.315 6.505M341.242 516.537l-3.186.555M341.242 516.537l1.31 6.532M338.056 517.092l-6.143 1.072M338.056 517.092l1.373 6.546M331.913 518.164l-6.415 1.119M331.913 518.164l1.314 6.602M325.498 519.283l1.014 6.705M353.705 521.04l-4.546.827M353.705 521.04l-.62-2.38M353.705 521.04l.142.606M349.16 521.867l-3.103.564M346.057 522.431l-3.505.638M342.552 523.07l-3.123.568M342.552 523.07l1.272 6.345M339.429 523.638l-6.202 1.128M339.429 523.638l1.347 6.428M333.227 524.766l-6.715 1.222M333.227 524.766l1.32 6.631M321.906 533.703l-1.345-6.632 5.951-1.083M327.81 532.655l-1.19-5.957-.108-.71M343.824 529.415l-3.048.651M343.824 529.415l1.389 6.922M340.776 530.066l-6.229 1.331M342.376 536.826l-1.285-5.259-.315-1.501M334.547 531.397l1.305 6.553M327.81 532.655l5.043-.895 1.694-.363M347.016 545.462l3.565-3.946 2.095-2.233 1.453-2.164.803-1.91.392-1.469M353.847 521.646l1.773 7.592-.296 4.502" clip-path="url(#pe6eb6b46b2)" style="fill:none;stroke:#000"/><path d="m361.522 557.745-4.482-22.643-.878-1.093-.838-.269M327.81 532.655l1.293 6.458M327.81 532.655l-5.904 1.048M321.906 533.703l1.304 6.425M345.213 536.337l-2.837.49M345.213 536.337l1.803 9.125M342.376 536.826l-6.524 1.124M342.376 536.826l.47 2.135M342.846 538.961l1.927 8.983M342.846 538.961l-6.587 1.402M335.852 537.95l-6.75 1.163M335.852 537.95l.407 2.413M329.103 539.113l.628 3.139M329.103 539.113l-5.893 1.015M323.21 540.128l1.022 4.599M336.26 540.363l-6.529 1.889M324.232 544.727l.947-.616 1.288-.874 3.264-.985M347.016 545.462l-2.243 2.482M137.138 597.258l1.032-.042 6.427-2.076 9.11-3.639 6.025-1.532 7.89-1.95 1.577-.658.945-.606.473-.283.937-.284 3.247-.034 8.383.421 4.175-.169 3.448-.773 1.761-.23 8.885.552 5.267.705 6.05.612 3.434-.076 22.867-4.126 13.098-2.785 8.447-4.263 3.334-2.171 27.009-19.735 30.924-8.304 1.405-.49.944-.595M290.314 610.997l1.582-3.593 21.452-23.748 31.425-35.712M333.777 421.824l-.019-.161-.124-.248-.205-.2-.262-.13M385.21 293.664l.325 2.14.106.51M385.21 293.664l-1.025-3.717M354.088 200.487l17.642 2.888 17.759 4.081 38.034 16.304" clip-path="url(#pe6eb6b46b2)" style="fill:none;stroke:#000"/><path d="m338.105 220.313 6.163-12.13.427-.56.733-.223 2.074-.018.87-.521.938-1.38 1.793-2.441 2.985-2.553M335.136 167.91l-1.03 1.985-.108.782.276 1.157 2.234 3.78 4.987 7.388 3.69 5.457 6.885 10.11 2.018 1.918M570.13 105.029l1.37 2.36-.644 11.066.08 4.648 2.98 43.965.402 1.18 11.221 11.793M620.013 469.906l-44.247-21.723M351.606 365.422l.738 3.264M352.344 368.686l1.086-.642.058-.146.022-.268-.293-1.54-.122-.273-.167-.115-.213-.084-1.109-.196M375.127 365.846l.191.831M375.318 366.677l1.498 6.364M337.22 373.076l4.438-.88M377.628 372.875l-.812.166M376.816 373.04l-3.56.696M303.87 395.145l-.03-.131-.153-.583M340.33 457.096l.154.715M387.19 387.064l-1.07-.307-1.348.208M402.52 390.908l-2.13-.186-10.045-3.391-3.156-.267M384.948 387.755l1.183-.245 1.058-.446M588.13 427.353l3.023 1.772 15.044 7.133 3.856 1.22 4.697.45 4.206-.386 8.832-2.697 6.88-2.268 2.601-.857M365.824 581.728l-.305 5.777 16.377 26.196 1.356 3.282.561 1.355.767.281 1.94-.047 3.062.374.409.327.408 1.262.306 1.636M361.522 557.745l4.348 23.13-.046.853" clip-path="url(#pe6eb6b46b2)" style="fill:none;stroke:#000"/><path d="m361.522 557.745 1.069.263.475.355.791.772 1.455.888 1.405.537 1.148.14 11.103-1.799.664.093.613.468.178.794-.036 4.28.383.444 4.823 2.023 2.732.935 1.224.724 1.66 1.075 2.731.912 1.152.354.304.251v.849l-.805.42-.396.608-.127.911.204.655.403.605.23 8.422-29.08-1.996M462.428 392.393l-8.452-4.158-4.844-1.951-31.897-15.738M437.717 462.127l-17.433-8.468-2.247-55.815-.802-27.298M482.096 483.623l-44.38-21.496M482.096 483.623l36.974-63.368M477.914 495.836l-1.768-1.05 5.95-11.163M519.07 420.255l-44.57-21.713M519.07 420.255l21.373 10.54M596.132 509.092l-3.813-4.74M573.227 526.051l19.74 2.875.642-.679 2.84-17.786-.317-1.37" clip-path="url(#pe6eb6b46b2)" style="fill:none;stroke:#000"/><path d="m573.227 526.051.728-1.065.309-.77.124-1.112.154-7.088.2-1.35.916-1.643.637-.656.758.073.956.656 1.063.327 17.06-4.331M477.914 495.836l67.696 40.242.937.058.727-.461 10.663-12.488 15.29 2.864M355.111 275.147l-2.764-1.334M355.111 275.147l-3.686 6.636M356.1 266.918l2.511 1.312-.024.71-3.476 6.207M351.425 281.783l-2.835-1.25M347.241 283.318l3.735-.59.45-.945M350.391 264.323l2.952 1.324M350.391 264.323l-3.732 6.93M346.66 271.252l2.98 1.36M346.66 271.252l-3.876 6.688M342.784 277.94l2.998 1.317M342.784 277.94l-2.578 4.908M339.232 284.701l-.656.559M339.232 284.701l.974-1.853M343.164 284.084l-2.874.51-1.058.107M349.64 272.612l2.707 1.201M349.64 272.612l3.703-6.965M349.64 272.612l-3.858 6.645M353.343 265.647l2.758 1.27M356.1 266.918l-3.753 6.895M352.347 273.813l-3.757 6.72M348.59 280.533l-2.808-1.276M348.59 280.533l-1.349 2.785M347.241 283.318l-4.077.766M367.562 299.042l-2.646.477M367.562 299.042l-1.296-5.472M366.266 293.57l-2.754.5M386.486 340.067l-.27.456-.226.337-.21.321-.593.694-.624.598-.606.272-.498.16-1.33.265-1.557.287-2.012.341-1.87.345-1.619.318-1.497.326-2.712.515M487.062 377.59l-12.326-6.125M487.062 377.59l101.068 49.763M575.766 448.183l11.39-18.986.974-1.844M575.766 448.183l-35.323-17.388M462.428 392.393l12.072 6.15M462.428 392.393l12.308-20.928M474.5 398.542l-36.783 63.585M318.774 486.03l-.694.191-.807.161-1.16.169-1.46.203-.748.119-.92.11-1.197.15-.485.115-.343.119-.682.345-1.172.498-1.07.337-1.842.479-1.853.39-1.983.368-.732.088-.657.077-1.338.192-.862.122-1.213.345-1.2.536-.904.578-1.008.675-.77.697-1.038.885-.878.766-.758.682-.677.613-.72.738M268.217 422.559l6.627-1.372 7.413-1.655 11.53-2.238 10.488-1.85M268.217 422.559l-15.378 2.85M261.503 430.829l.749-1.199.334-.582.41-.56 1.197-1.394 3.325-3.672.7-.863M344.04 297.946l-6.82 1.335M344.04 297.946l.867-.176M344.907 297.77l7.465-1.27M207.904 431.837l-2.163-10.792-.786-3.62-.226-.663-.247-.464-.275-.287-.331-.153-.39-.077-.915-.054-4.268-.011-10.592-.107-9.028-.046-8.057-.1-8.074-.114-8.083-.07M207.904 431.837l-15.24 1.847M252.839 425.409l-14.466 2.705-3.046.551-2.426.353-1.046.107-1.774.192-6.577.789-15.6 1.731M192.38 454.241l.995 2.145.452.813.32.421.412.272.431.148.686.078 10.714.755 7.058.525M183.025 445.089l.084-2.119.004-4.102v-.35l.046-.271.067-.211.348-.759.083-.367v-.433l-.067-.544.033-.303.189-.425.213-.226.682-.333.498-.15.406-.054 7.053-.758M192.38 454.241l-.503-1.54-.368-.912-.41-1.356-.242-1.095-.042-1.173.059-.965.276-2.199.911-6.69.385-2.91.218-1.717M177.846 463.75l.636-.667.536-.43.627-.306 1.975-.574.552-.238.435-.33.51-.658 3.147-3.747.602-.482.577-.353.879-.444 1.799-.598 2.259-.682M273.112 402.996l6.66-1.28M363.512 294.07l1.404 5.449M343.164 284.084l2.618-4.827M337.22 299.28l-.507.1-.254.05M337.22 299.28l.21 1.04M336.459 299.43l.218 1.032M301.896 403.07l-.072-.32-.057-.28M336.677 300.462l.278-.053.475-.089M353.847 521.646l1.985-.381M358.813 520.693l.633-.087.284.063.18.144.52 2.299M358.813 520.693l-2.98.572M358.813 520.693l1.926-3.35M477.914 495.836l-23.232 14.397-.77 1.256.168 1.042 4.518 7.14 1.238 2.79.904 3.278M248.087 409.624l2.752 9.356 1.33 4.528.67 1.9M384.772 386.965l.176.79M375.665 404.629l.31.604M346.406 414.818l-.907.185M365.811 468.032l-.188.604M347.371 349.719l-2.797.512M330.958 344.722l-.514-2.328M334.935 347.733l-1.757-.904-1.038-.812-1.182-1.295M338.073 341.396l-2.636.161-1.623.161-1.891.337-1.479.339M340.457 353.557l-.945-.046-1.063-.337-1.213-.69-.72-.712-.468-.859-.452-.996-.661-2.184M338.073 341.396l-1.063.345-.761.437-.628.59-.477.95-.2 1.402-.135 1.41.126 1.203M341.327 341.833l-.594-.269-.535-.168-1.464-.092-.661.092" clip-path="url(#pe6eb6b46b2)" style="fill:none;stroke:#000"/><path d="m344.574 350.231.025-.735-.076-1.487-.317-1.51-.385-.92-.52-1.256-.41-.75-.51-.882-.468-.536-.586-.322M340.457 353.557l.803-.13.93-.368 1.129-.751.904-1.103.35-.974M340.457 353.557l.753 3.333M341.517 411.17l-.197-.783M353.209 393.544l-.129-.638M373.428 374.59l-.173-.854M364.347 376.28l-.203-.836M341.837 373.067l-.18-.871M347.325 372.025l-.234-.92M350.892 455.867l-.177-.642M370.301 397.945l-.196-.753M351.073 363.41l-.726.141M351.073 363.41l.47.226M350.347 363.551l-.305.377M355.964 408.444l-.184-.845M378.315 379.578l4.721-.58 4.97-.598 2.234-.269M126.51 594.908l-1.957 2.434-4.744 5.977-.956 1.038-.389.698-.014.51.54 1.008 2.204 2.624 5.02 7.34.2.489.022.437M137.138 597.258l-.9-.058-9.728-2.292M314.19 274.383l-3.837-3.451-7.949-6.775-6.96-6.56-13.656-11.511-.702-.736-.82-1.931-4.267-10.898-7.798-18.87-7.28-17.352-1.539-4.2-.485-2.452-.118-4.293.26-1.563.334-.33.662-.183 10.626.046.744-.238.452-.483.703-2.07.2-.29.486-.092 3.204-.085 4.619.582 3.213.483 3.681.437.92.2.62.387.339.74.455 1.486M175.638 281.055l-.385-1.74-.51-3.67-.31-1.97-.067-1.264.2-.851.424-1.006M239.803 315.195l1.004-5.149.419-5.548.067-1.648-.293-1.134-.41-1.288-.059-1.977-.025-.827-.318-.713-.477-1.065-.452-1.877-.26-2.844-.116-2.69.109-.72 1.815-4.483.749-1.919M534.862 443.798l-2.09-1.079-.052-.066.025-.093 2.544-4.24 2.761-4.062 2.393-3.463M356.446 524.338l-.614-3.073M353.085 518.66l7.654-1.317M360.739 517.343l9.095-1.663 1.12-.016 1.272.23.88.422M133.31 611.61l.46-2.697.158-1.846-.209-3.194.1-1.655.41-.973 2.909-3.987M340.206 282.848l-2.237-1M303.726 316.843l2.46 1.196 3.405 1.915 4.628 2.476 4.518 2.398 4.04 2.253 2.544 1.38 1.34.59 1.059.634" clip-path="url(#pe6eb6b46b2)" style="fill:none;stroke:#000"/></g><path id="PatchCollection_1" d="m644.587 406.152-1.338 5.517v.919l.4.858-1.07 2.207-1.974 2.513-1.774 1.134-.77.827-.368.705-1.005.123.268.521-.602.46-.804-.215-.4.43-.436 1.563-.435.398-.77-.245.67 1.165-.302 1.133v1.41l-.402 1.44.068.307 2.309.093.267-.307.503-1.594 1.037-1.349 1.104-.612.034-.43 1.607-.06.937-.644.435-.797.134-.736 1.104-.398.569-.43-.1-1.501 1.171-1.502.57.736.601-.154-.301-.766-.234-.919.736-.062-.2-1.41.4-1.593-.501-2.575 1.439-2.145-.034-1.656-.569-2.451.536-2.023.033-1.716 1.44-1.35-.067-1.041-.068-1.502.838-1.134.133-2.544.201-1.134 2.041-1.624 2.678-2.024.703-1.379.87-2.973 1.44-2.268 1.606-1.747.368-.92.903-.827-.77-.399-.87-.551-.435-.736.837-.52.2-1.288.971-.675.87-1.195-.602-.675-1.138.184-.803.614-.904-.338-.501-.551-.469.214-.97 1.319-1.139.827-.434 1.226.1 1.41-.502 1.655-1.305 2.39-.335 1.962-1.238.767-.57 1.195-.033 1.042-.435.858-2.108.828-.67.98-.034 1.227-.1 1.318-.368.582.134 2.145-.569 2.054-.234 2.36-.268 2.084-.77 2.269z" clip-path="url(#pe6eb6b46b2)" style="fill:#00f;fill-opacity:.8"/><path id="PatchCollection_2" d="m234.464 482.737-1.943-.243-1.855-.647-.971-2.103-.177-1.132.971-1.213 1.237-.89.089-.97-2.032-1.051-2.561-.324-1.237-.647-1.766-21.029 1.502-2.477 2.65-2.587 2.207-1.295 3.003-.647 1.855-1.213 1.413-1.618 1.855-.728 2.03-.323h2.297l1.237 1.132 2.738 1.456 1.325.809 1.59.89 2.737-.243 1.325-.324.795-.161.972 1.375 2.296-.405 3.003-.89 2.473-.89h1.855l4.769.486 3.798 1.051 3.621 1.7.177.484v5.338l-.707.728-17.046 4.368-.353 11.32-1.06 2.023-1.06 1.94-1.766.81-2.473 1.05-1.413 1.619-1.06 1.05-3.621 1.376-3.445.323-4.416.567-1.502.323z" clip-path="url(#pe6eb6b46b2)" style="fill:#006400;fill-opacity:.8"/><path id="PatchCollection_3" d="m338.296 482.892 1.307 6.241 2.703-.475-1.306-6.24z" clip-path="url(#pe6eb6b46b2)" style="fill:green;fill-opacity:.8"/><g id="PatchCollection_4"><path d="m337.058 344.926 1.228 5.642 4.07-.744-1.23-5.641zM376.273 437.056l.73 3.212 2.418-.5-.943-3.052z" clip-path="url(#pe6eb6b46b2)" style="fill:#90ee90;fill-opacity:.8"/></g><path id="PatchCollection_5" d="m588.651 111.004 2.82.59 6.28-.295 5.717-.959 3.543-1.18 7.248-36.813-.08-1.55-22.467-1.401z" clip-path="url(#pe6eb6b46b2)" style="fill:#006400;fill-opacity:.8"/><g id="PatchCollection_6"><path d="m319.078 365.805-.136-.557 2.534-.518.136.557zM327.013 363.418l-.229-.922 3.387-.559.183.867z" clip-path="url(#pe6eb6b46b2)" style="fill:#a9a9a9;fill-opacity:.8"/><path d="m330.793 362.628-.424.091-.067-.298.42-.076-.116-.541.85-.147.75 2.993-4.233.83-.215-.886 3.345-.606zM327.884 360.068l-.103-.532 2.414-.396.103.533zM328.584 353.83l-.093-.559.802-.112.093.558zM328.745 354.69l-.098-.49.83-.14.097.49zM328.988 355.496l-.107-.482.99-.183.106.482zM322.855 373.026l-.475.104-.202-.783.475-.103zM323.295 372.94l.469-.097-.193-.784-.469.097zM324.186 372.782l.441-.076-.155-.763-.441.076zM321.506 373.233l.428-.081-.176-.78-.429.08zM320.537 373.38l.424-.07-.143-.724-.424.07zM321.097 375.529l.476-.1-.194-.773-.476.1zM321.967 375.308l.474-.098-.192-.78-.473.099zM322.865 375.122l.444-.073-.157-.8-.445.073zM323.792 374.991l.458-.088-.196-.849-.458.089zM324.668 374.804l.45-.086-.177-.785-.45.085zM325.67 374.686l1.186-.231-.167-.724-1.186.231zM354.092 365.429l.576 2.645 1.89-.404-.179-.661.354-.076-.06-.315.138-.085.05-.117-.022-.162-.095-.112-.077-.025v-.192l-.105-.116h-.088l-.288.035-.199-.755zM344.595 428.426l.244 1.095.953-.178-.06-.275.24-.045.237 1.063.82-.152-.307-1.373 1.272-.237-.112-.505-2.112.394.1.447-.231.043-.07-.316-.562.105-.03-.137zM333.792 434.319l-.386-1.839 1.29-.227.385 1.839zM331.324 431.346l-.205-1.112 3.21-.498.205 1.113zM328.2 428.11l-1.31.232-.42-1.992 1.311-.231zM348.86 432.624l-1.303.23-.42-2.001 1.301-.23zM356.202 437.673l-.185-.898 2.031-.351.186.897zM349.381 417.23l-1.482.28-.498-2.213 1.483-.28zM349.708 408.39l-.2-.875 1.878-.366.114.43.228.07-.152.203.032.191zM349.833 407.006l-.124-.546 1.35-.258.124.546zM353.722 407.52l-.133-.605 1.19-.22.08.37-.233.043.055.253-.438.08.019.086-.29.054-.023-.103zM355.064 407.468l-.2-.87.485-.094.2.871zM353.366 405.53l-.133-.65.963-.165.09.442-.338.058.042.208zM336.055 297.097l-.257-1.224 3.631-.638.256 1.223zM329.47 297.865l-.18-1.082 1.951-.275.142.843-1.04.146.04.24zM322.86 297.674l-.281-1.515 1.006-.156.28 1.515zM575.37 439.834l-1.116-.507.504-.93 1.116.506zM567.88 446.07l-3.028-1.503.489-.827 3.028 1.503zM573.112 448.37l.289-.497 1.665.809-.287.497zM572.166 437.992l.385-.638-.766-.39-.386.638zM566.684 451.441l-.87-.414 1.58-2.78.87.414zM564.608 450.235l-2.545-1.26-.577.978 2.544 1.26zM563.148 455.327l.81-1.577-2.56-1.1-.808 1.578zM566.156 454.825l-1.056-.484-.841 1.542 1.055.483zM568.585 452.786l-1.964-.933.788-1.39 1.964.933zM344.433 360.513l.485 2.276 3.213-.575-.485-2.276zM381.178 439.598l.15.352.025.306 1.507-.283-.034-.33-.092-.298zM380.617 435.973l.41 1.694 1.423-.269-.452-1.685-.686.076zM349.504 379.475l.134.597.736-.184-.167-.551z" clip-path="url(#pe6eb6b46b2)" style="fill:#a9a9a9;fill-opacity:.8"/></g><g id="PathCollection_1"><defs><path id="mcedf161d78" d="M0 3a3 3 0 1 0 0-6 3 3 0 0 0 0 6z" style="stroke:#a9a9a9;stroke-opacity:.8"/></defs><g clip-path="url(#pe6eb6b46b2)"><use xlink:href="#mcedf161d78" x="344.178" y="428.023" style="fill:#a9a9a9;fill-opacity:.8;stroke:#a9a9a9;stroke-opacity:.8"/></g></g></g></g><defs><clipPath id="pe6eb6b46b2"><path d="M90 94.686h558v537.828H90z"/></clipPath></defs></svg>