<svg xmlns="http://www.w3.org/2000/svg" xmlns:xlink="http://www.w3.org/1999/xlink" width="960" height="960" viewBox="0 0 720 720"><defs><style>*{stroke-linejoin:round;stroke-linecap:butt}</style></defs><g id="figure_1"><path id="patch_1" d="M0 720h720V0H0z" style="fill:#fff"/><g id="axes_1"><path id="patch_2" d="M90 612.296h558V114.904H90z" style="fill:#fff"/><g id="LineCollection_1"><path d="m198.065 356.208-.902-.643-1.391-1.658M187.407 335.436l3.13 6.698 5.235 11.773M194.177 354.377l.536-.048.723-.218.336-.204M314.504 357.268l-4.193.072-2.231-.16-1.144-.27-4.573-2.123-1.378-.261-1.632.14-1.523.78-2.71 2.33-1.63 1.317-1.266.47-1.533-.255-6.99-2.535M267.489 357.305l1.538-.35 3.339-.912 2.22-.667 2.423.004 5.352.977 1.34.416M316.141 265.284l-1.12-.266-6.461-1.053-4.354-.085-3.254-1.231-1.757-.257-1.182-.059-4.346-1.27-1.233-.48-1.838-1.685-4.566-2.073-3.056-1.888-2.173-.994-5.011-.783-.882-.276-4.843-2.784-9.074-4.698-1.429-.54-3.96.237-.679.316-1.006 2.402-.11.914.408 1.264.066.96-.773 1.211-2.458 2.376-1.378 2.369-.044 1.027.94 2.026.752.816 1.46.711.947 1.467.547 2.244.175 1.678-.897 1.698-1.08 2.816-1.13 2.145-.897 1.132-.992.362-1.247.118-.817.342-1.298 1.593-.277 2.165-.176.375-.984 1.099-.452.703.204 2.244 1.152 3 1.926 1.922.962 1.159.453 2.921-.51 1.855-1.883 2.132-2.94 2.165-.321.951.716.727 2.837.993 1.109 1.066.226.73-.438.85-2.509 2.375-2.633 1.632-2.166.822-.175.435.197.572.61.402 3.914.88 3.61-.158 1.776-.316 2.35-.84 2.384-.654 1.366-.966.723-.773.697-.508.777-.008.803.564.509.822.16.966.429 1.257.562 1.014 2.27 2.844.311.611-.01 2.078.108.798 1.366 3.358v1.836l.67 1.402.455 3.116 1.338 3.262-.214 1.063-.696 2.054-1.767 1.546-1.099 1.546-.027.629.322 1.014.482.822.884.459 1.312.314 1.794-.46 2.438-.82.762-.614.925-.402 1.512.03.952.333.857.7.584 1.002.059 1.052-.75 3.19.348 1.352.455 1.015 2.674 1.823.37.336 1.068 1.586 1.137 1.908 1.367 2.368.365 1.96M637.27 357.744l-.398.06-.958.053-2.682.247-1.18.146-.87.329-1.546.554-1.14.274-1.233.015-.81-.062-.698-.25-1.914-.715-4.688-2.075-3.626-1.023-3.215-.764-1.297-.083-1.757.33-1.13.387-1.299.619-3.18 2.14-2.2 1.439-1.06.582-1.218.381-.726.04-3.512-.747-2.355-.302-1.496.138-1.138.178-1.256.317-1.558.813M555.754 379.243l2.618-1.134 3.01-.882 1.924-.51 2.538-.776 2.151-.91 2.544-1.535 2.567-1.986 7.35-5.697 4.014-3.113 2.66-1.935M615.211 334.824l-.1.469-.368.71-.503.575-.252.408-.485.196-1.123.166-1.14.061-.435.514-.37.499-.452.725-.552.62-.503.62-.536.393-.788-.03-1.357-.212-1.424-.242-1.123-.227-1.206-.045-.805.12-1.005-.075-.922.03-.72.227-.52.394-.82.725-.821.877-.872.997-.52 1.164-.569.952-.754.771-.687.605-1.006.862-.787.65-.235.574-.033.544.318.499.888.529 1.123.77.62.847.787 1.451.42.756.56.877.06.56-.353.422-1.055.363-.872-.06-1.005-.348-.855-.197-.485.091-.72.317-.654.378-.67.68-.604.696-.301.59-.537.453-.418.438-.537.318-.234.377.236.517M327.185 376.982l1.388-.194M322.731 370.382l.11 3.404.405 1.129.438.68.13.203 1.162.962.882.17 1.327.052" clip-path="url(#p4320ac0f02)" style="fill:none;stroke:#000"/><path d="m325.768 379.735-.228-.778.068-.5.248-.312.442-.241.887-.922M378.544 378.515l6.167.159M378.544 378.515l.292-5.612M378.544 378.515l-6.05-.272M378.544 378.515l-.302 5.506M377.936 389.593l3.11.086M377.936 389.593l-9.528-.393M377.936 389.593l-.088 4.08M377.936 389.593l.306-5.572M390.439 389.937l-6.063-.152M390.439 389.937l-.1 4.3M390.439 389.937l.318-5.409M390.439 389.937l17.94.581M390.34 394.237l-6.17-.14M390.199 397.982l.097-2.1.043-1.645M409.266 401.677l-1.019.097-2.642.02-1.63-.289-1.323-.452-2.565-1.407-5.602-3.16-1.694-1.143-1.586-.827-.866-.279M423.583 399.188l-2.301.368M433.906 395.714l-1.006.105-3.42.869-1.715.644-2.429 1.099-1.753.757M423.216 390.992l-.075.808.055 2.158.098 2.164.066 1.369.223 1.697M424.447 399.665l-.51-.185-.354-.292M282.87 495.936l-1.511 1.935-1.699 1.17-5.08 3.28-6.99 7.567-14.598 16.888-1.75 2.572-.938 1.854-.215 2.426.4 2.07 1.631 7.966-.216 1.629-.666.813-12.012 8.402-6.893 5.093-4.65 3.792-1.5.945-2.68.467-1.564.716-3.037 2.18-6.94 6.24-1.022 1.13-.77.78-.71 1.108-.073 1.197.755 7.62-.403 1.728-1.253 1.41-1.101.896-1.268.624-3.954.941-4.776.404-1.981.608M285.305 473.697l-.7 2.684.275 12.204-.331 2.713-.48 2.71-1.2 1.928M312.533 462.381l-1.566.903-2.01 1.662-2.346 2.479-2.447 2.538-3.351 4.051-1.944 2.176-1.676 1.995-8.478 10.548-1.743 2.237-2.312 2.992-1.173 1.481-.617.493M298.837 445.345l-1.556 1.748L294 458.489l-2.737 3.527-5.957 11.681M303.904 444.719l-2.5-.014-2.567.64" clip-path="url(#p4320ac0f02)" style="fill:none;stroke:#000"/><path d="m255.419 406.602 2.312 7.25 2.094 1.75 2.771.388 3.195-.467 3.479-1.08 1.77.038.787.474.981.43 1.022.876.914.378.817.106 1.022-.125.685.02.51.236 1.022 1.474.992 1.631.846 1.264.846.92 1.605.974.992 1 1.254 1.447 1.78 1.185 1.721 1.341 1.838.711 1.356.697.803.803.583.947.992 1.395.905 2.21 1.604 3.447.481 1.184 1.59 2.174.134.815-.224 1.13-.06 1.72M313.343 447.717l-.353-3.407M303.904 444.719l1.371.931.368.516.583 1.855.552.303 6.565-.607M319.896 447.93l-.462-.344-.291-.026-5.8.157M313.556 453.25l.204-1.92-.417-3.613M312.533 462.381l.61-.866 1.879-2.377 1.626-5.506M313.556 453.25l1.21.23 1.882.152M319.274 448.62l-.707.986-1.012 1.842-.382 1.383-.525.8M312.99 444.31l-3.136.05M312.99 444.31l10.075-.655M345.628 426.642l.426-.809M345.628 426.642l-.217 1.33M333.117 436.918l5.804-5.73 2.792-1.556 2.138-1.253.805-.771.972-.966M325.347 443.39l-1.598 1.209M325.347 443.39l-2.282.265M333.117 436.918l-1.617 1.548-1.971 1.786-2.677 1.935-1.505 1.203M396.498 602.567l.166-1.598M410.625 588.823l-2.775-.413-.573.49-.858 1.677-1.43.775-2.261 2.606-1.431 1.806-1.745 2.142-1.26 2.012-.228 1.058-.086 1.135-.544.62-.936-.164M363.544 553.452l-.62-2.054-2.167-3.288-3.377-2.131-7.352-4.736-.69-2.177.223-1.611.643-2.21 2.216-4.894 5.194-6.104 1.075-5.737.545-.973.83-.92 1.028-1.144 1.543-1.401 1.667-2.09 1.038-3.302.5-4.745.498-2.133.611-2.235 1.369-2.08 1.14-2.288 1.014-1.659.47-1.323M356.84 468.19l2.582 2.75.657 1.77.95 1.058 1.194.369 3.29.789 1.845 2.171 2.087 6.014-.044 2.466.757 2.413.636 2.41.12 1.466.028.351M374.207 495.633l-1.173-.8-1.173-1.368-.919-1.248M356.84 468.19l-7.05-7.415" clip-path="url(#p4320ac0f02)" style="fill:none;stroke:#000"/><path d="m338.218 486.221.595-1.81.885-1.346 1.373-1.961 2.032-2.09 2.375-2.091 1.259-.826 2.06-.568 1.86-.258 1.431-.722.486-.723.719-.914 1.522-.96.603-.664 1.423-3.098M330.109 434.525l1.434.975.579.567.995.851M372.718 418.958l2.774-2.754M372.718 418.958l-3.061-.776M377.985 418.419l-.986 1.639-4.281-1.1M379.36 412.47l.188-.53M379.36 412.47l-3.868 3.734M377.985 418.419l.696-1.064.655-4.3.024-.585M346.255 405.58l6.116-.37M346.255 405.58l.227-3.866M346.267 409.183l-.1-.906.088-2.697" clip-path="url(#p4320ac0f02)" style="fill:none;stroke:#000"/><path d="m341.833 405.852 1.997-.058 1.043.026 1.382-.24M377.263 406.013l6.707.254M377.263 406.013l-3.664-.093M377.263 406.013l-.313 4.59M377.263 406.013l.203-4.941M380.01 410.631l-.462 1.309M380.01 410.631l3.793.055M380.01 410.631l-1.672-.051M376.95 410.603l1.388-.023M376.95 410.603l-3.645-.247M373.505 414.434l3.145-3.038.192-.353.108-.44M341.833 405.852l-.96-.39M345.965 416.423l-4.307-8.573-.077-1.11.252-.888M369.657 418.182l-2.749-.724M369.657 418.182l3.848-3.748M389.748 406.573l.272-5.764M389.748 406.573l-5.778-.306M389.568 410.96l.087-1.319-.007-1.32.008-.965.092-.783M395.35 411.3l.3-1.342.113-1.21-.045-.453-.06-.438-.09-.38-.546-.626-.45-.119-.743-.034-1.502-.083-1.52-.112-1.059.07M352.371 405.21l.238-5.193M352.371 405.21l-.064 4.143M352.371 405.21l6.042.195M378.836 372.903l.327-6.487M378.836 372.903l6.083.182M378.836 372.903l-5.12-.202M379.163 366.416l-4.92-.21M379.163 366.416l1.173-19.525M379.163 366.416l2.007.098M371.26 372.603l2.457.098M383.97 406.267l.073-5.655M383.803 410.686l.083-2.316.084-2.103M354.303 365.386l6.203.341M354.303 365.386l-.09-.366M354.303 365.386l-.327 6.309M360.506 365.727l.266-4.328M360.506 365.727l-.383 6.323M367.096 365.883l-1.653-.034-4.937-.122M347.741 377.075l.133-5.43M347.741 377.075l5.907.276M347.741 377.075l-.333 5.712M343.946 376.926l1.24.049 1.08.042 1.475.058M347.237 388.347l5.897.22M347.237 388.347l.171-5.56M347.237 388.347l-.24 4.112M384.376 389.785l-.207 4.311M384.376 389.785l.19-5.538M384.376 389.785l-3.33-.106M389.568 410.96l-5.765-.274M389.568 410.96l-.168 4.005M395.35 411.3l-1.13-.126-.959-.094-1.567-.016-2.126-.103M384.17 394.096l-.12 3.632M384.17 394.096l-2.661-.178M409.266 401.677l.064.765.047 1.145-.016.962-.219 1.074-.595.89-.478.68-.368.763-.158 1.017.048.615-.048.615-.329.538-1.066.565-.673.276-.925.304-.807.438-.682.297-.775.233-.73-.106-.376-.198-.486-.424-.43-.438-.306-.212-.556-.155-.731.027-.657.255-.36.127-.486-.042-.58-.092-.365-.042-.367-.105-.505-.15M394.974 412.677l.284-.607.068-.413.025-.358M358.433 409.572l4.616.27M358.433 409.572l-6.126-.22M358.433 409.572l-.02-4.167M353.39 382.963l6.138.304M353.39 382.963l-5.982-.176M353.39 382.963l.258-5.612M353.39 382.963l-.256 5.604M352.307 409.353l-6.04-.17M346.267 409.183l.403.968.938 1.27 1.843 1.632 1.407.846.671.182.486-.374.292-4.354M352.946 392.66l.188-4.093M352.946 392.66l-.165 3.61M352.946 392.66l-5.948-.201M352.946 392.66l6.134.348M346.998 392.459l-.407 7.38M353.134 388.567l6.098.252M359.82 377.64l.303-5.59M359.82 377.64l-.292 5.627M359.82 377.64l4.606.215M359.82 377.64l-6.172-.29M384.92 373.085l-.21 5.589M384.92 373.085l-.044-2.923M353.184 359.786l-.932.497M359.08 393.008l.152-4.189M359.08 393.008l-.23 3.55M359.08 393.008l4.798.19M390.996 378.913l-6.285-.239M390.996 378.913l-.24 5.615M401.713 385.129l-6.892-5.211-.922-.467-2.903-.538M388.307 369.673l1.517 1.89 1.984 2.328.188 1.049-.38.832-.363.987-.257 2.154M386.277 342.521l.674 5.496.603 2.098.771 1.797 5.968 6.973.768.995-.046.748-.633 1.071-.549.53-1.019 1.27-.905 1.303-1.43 2.471-1.111 1.383-1.061 1.017M384.876 370.162l.514-.069 1.423-.266 1.494-.154M353.648 377.35l.328-5.655M358.413 405.405l.253-5.12M358.413 405.405l4.79.155M384.71 378.674l-.145 5.573M359.232 388.82l4.921.283M359.232 388.82l.296-5.553M353.976 371.695l6.147.355M353.976 371.695l-6.102-.05M377.848 393.672l3.661.246M377.848 393.672l-9.526-.316M377.848 393.672l-.144 2.788M383.472 413.718l.184-.988.147-2.044M347.529 368.562v1.191l.117 1.343.228.55M384.876 370.162l-.19-.994M375.598 336.482l4.32-2.69M375.598 336.482l-2.44-3.273M379.33 341.377l-1.366-2.003-2.366-2.892M363.202 405.56l-.153 4.282M363.202 405.56l.371-5.076M363.202 405.56l4.543.165M364.426 377.855l-.244 5.533M364.426 377.855l4.496.21M379.917 333.793l4.622-3.02M379.917 333.793l2.91 3.73M379.917 333.793l-2.516-3.353M352.609 400.017l.172-3.747M352.609 400.017l6.057.268M352.609 400.017l-3.067-.09M364.182 383.388l4.485.202M364.182 383.388l-4.654-.12M364.182 383.388l-.029 5.715M384.565 384.247l6.192.281M384.565 384.247l-3.209-.093M367.444 410.115l5.86.24M367.444 410.115l-4.395-.273M367.444 410.115l-.318 6.481M367.444 410.115l.301-4.39M421.541 226.39l.757.318 1.752.805 1.212.304 1.078.41.606.487.303 1.352.253 1.595.168 1.322.455 1.701.168 1.125.421.79.54.972.635 1.01M420.23 282.127l.278-1.04.3-2.211.153-1.244.313-.684.503-.58.735-.757.76-1.687.66-2.086.434-1.83.27-2.282.19-1.517.365-.474.673-.308 2.48.042.858-.155.664-.48.409-.6.13-.829-.357-3.58.095-.782 1.15-2.957.583-3.082.092-1.842-.279-1.843-.753-2.153-.846-2.111.198-3.315.028-1.343-.427-1.816M421.029 226.176l.193.691 1.08 2.152 1.132 1.15 1.828 2.32 2.614 3.415.706 1.352.937.858.37.467M368.027 400.626l-.094 3.685M368.027 400.626l.295-7.27M368.027 400.626l-4.454-.142M372.506 400.876l-2.114-.1-2.365-.15M377.401 330.44l-4.243 2.769M377.401 330.44l4.602-3.13M377.985 418.419l-2.493-2.215M378.242 384.02l3.114.134M378.242 384.02l-5.937-.266M366.908 417.458l-1.15-.137-3.052-1.394.343-6.085M363.878 393.197l-.305 7.287M363.878 393.197l.275-4.094M363.878 393.197l4.444.159M386.458 342.097l-3.63-4.574M386.458 342.097l-.18.424M390.082 337.963l-.435.874-3.189 3.26M405.383 385.075l-3.67.054M407.665 382.51l-.226.205-.57.514-.603.544-.503.59-.38.712M408.379 390.518l-.073-1.08-.284-.658-.532-.54-.519-.513-.83-1.486-.758-1.166M368.922 378.065l-.255 5.525M368.922 378.065l3.573.178M390.025 337.424l-3.42-4.057M390.025 337.424l.057.539M394.917 332.062l-2.46 1.526-.72.536-.966 1.132-.746 2.168M386.277 342.521l-3.601 3.771M364.153 389.103l4.255.097M377.466 401.072l-3.444-.144M377.466 401.072l.238-4.612M368.667 383.59l2.848.129M368.667 383.59l-.259 5.61M368.667 383.59l.658-.304M382.827 337.523l3.777-4.156M382.827 337.523l-3.497 3.854M382.676 346.292l-2.244-2.612" clip-path="url(#p4320ac0f02)" style="fill:none;stroke:#000"/><path d="m393.288 360.238-.632-.988-1.292-1.697-2.165-2.707-1.273-1.713-1.583-2.011-3.667-4.83M382.003 327.31l2.536 3.463M390.39 326.645l-1.632-2.129-.852-.556-.775-.103-5.128 3.453M420.23 282.127l-.43.927-.512 1.84-.122 1.325-.155.693-.396.657-.427.505-.765 1.004-.237.53-.21.65-.293 1.048-.428.936-.628.868-1.094 1.739-.423.593-.3.786-.096.554-.141.498-1.116 1.71-.89 1.422-.891 1.38-.935 1.416-.47 1.521v1.193l.306 1.576-.188 1.543-.163.667-.133.75-1.007 3.575-.148 1.416-.496 1.648M394.917 332.062l1.392-.947 1.147-1.112.62-.785.221-.315.204-.782.606-3.212.398-.693.583-.61 1.259-.802 1.45-.988 1.523-1.597 2.126-1.89.996-1.232M420.057 328.769l-.486-.152-.687-.136-.724-.066-.45.037-1.054.137-.755-.123-.77-.408-.788-.725-.872-.801-.352-.756-.553-.726-.435-.876-.603-1.089-.855-.846-.452-.605-.654-.892-.369-.831-.687-1.058-.569-.862-.5-.894M384.54 330.773l2.064 2.594M375.492 416.204l-1.987-1.77M346.591 399.84l2.951.086M346.591 399.84l-.11 1.874M379.67 342.534l-.159-.28-.22-.431.039-.446M390.757 384.528l10.956.6M384.043 400.612l.006-2.884M390.02 400.81l-2.8-.057-3.177-.141M367.745 405.725l.188-1.414M367.745 405.725l5.854.195M358.666 400.285l.184-3.727M358.666 400.285l4.907.199M366.908 417.458l.218-.862M390.02 400.81l.179-2.828M390.02 400.81l2.059.12M368.408 389.2l-.086 4.156M367.126 416.596l.63-.324 4.312-3.824.266-.11.662.055.51 2.04M469.814 131.39l-.011.867-.432.731-.735.822-.832.713-.707.503-2 1.76-2.336 1.352-1.01.2-2.923.719-2.41.944-1.616 1.493-1.616 1.241-1.238 1.395-.312.786.013.827.34 1.62-.006.906-.38.927-.643.783-.736.448-1.33-.104-.957.104-2.275.558-1.693.283-.865.69-.416.62-.793 1.09-.763.96-.423.656-.655 1.055-.563.782-.608.53-2.41.914-2.271.348-2.428.254-.542.479-.358.436-.006.8.133.675.123 1.543.03 1.501.308 1.23.216 1.228M428.947 182.196l.764-1.249 1.587-1.404.511-1.5.175-.751.221-.771.222-1.464-.01-1.464-.506-1.835-.69-1.809-.137-.586.048-.614.546-1.69" clip-path="url(#p4320ac0f02)" style="fill:none;stroke:#000"/><path d="m442.383 160.288-.86 1.137-1 1.068-1.245 1.166-1.875.735-1.66.457-.877.334-.953.124-1.215.638-.69.486-.33.626M428.947 182.196l-.053.92.18.92.914 1.798 1.305 1.1.255.61-.274.36-.306.166M421.029 226.176l-.956-.974-.46-1.531-.143-.464-.001-.493-.095-.768-.018-.824.934-1.62 1.613-3.216 1.154-2.3 1.085-1.943.64-2.341.755-1.997.637-2.81.157-1.447.202-2.137.484-3.715.196-2.926.33-1.525.353-1.4.96-1.7.975-1.144 1.137-.83" clip-path="url(#p4320ac0f02)" style="fill:none;stroke:#000"/><path d="m437.449 179.083.046.458.154.694-.139 1.081-.492 1.18-.522.666-.415.61-1.046.915-.922.833-.768.943-.677.763-.63.416-.354.388-.716.04M346.074 141.964l1.768 1.442.845.014 1.092-.5 1.998-2.76.861-.72 1.937-.528 1.322-.694 1.03-.152 1.092.124.353.32.2.513-1.353 1.387-2.89 1.456-.6.57-.538.915-.215.915.046 1.04.323 1.166.661 1.124.846.93 1.537 1.247.815-.041 2.905-.528.815-.027 1.63.68 2.567 1.47 2.844 2.15 1.368.777 1.138.874 1.06.582 1.03.32 1.922.152.907.25.492.443.63 1.707.799 1.054.877.874.676 1.11.984 1.165.492.818.876 2.553.584.43.661.29.845.14.415.443.477.083.6.347 1.184.347 1.475.444.984.832 1.768.833.738.527.307.554.369.32.676.318 1.691-.318 1.292.18.615-.139 1.86-.263.83.208.815.43.338.943-.062.777.246.36.584.43 1.046-.055 1.26-.333.277.055.308.32.876-1.554.338-.61.446-.375 1.46-.79 1.076-.944.63-.18.662.07.906.415 3.075 1.027.477.457.322.86.77 1.624.537.568.477.291.707.18 1.645.111.784.014 2.106-.512 1.152-.333.585.028 1.66.748.615.43.615.125 1.86.68 1.476.998.46.652.032.944-.308 2.067.107.546M415.388 400.661l2.906-.558M415.388 400.661l-.998.159M422.288 409.138l-.32-1.97-.229-.93-.465-.685-.561-.556-.496-.368-.98-.197-1.551-.428-.708-.336-.46-.58-1.13-2.427M384.05 397.728l6.149.254M381.398 396.7l.01.887 2.287.122.354.019M390.199 397.982l3.32.138M390.39 326.645l2.756 3.595 1.771 1.822M370.69 330.527l.508.52.342.297.17.225 1.448 1.64" clip-path="url(#p4320ac0f02)" style="fill:none;stroke:#000"/><path d="m367.096 365.883.199-.44.123-.407 2.242-31.301.2-.29.644-.182 2.13.073.524-.127M380.432 343.68l-.763-1.146M380.336 346.891l.047-.766.12-.94-.053-.45-.018-1.055M367.096 365.883l-.326.686-.276 2.967M374.243 366.206l-7.147-.323M373.717 372.701l.225-1.348.073-1.165.228-3.982M372.495 378.243l-.19 5.511M372.305 383.754l-.79-.035M372.012 383.345l.013.011.28.398M381.356 384.154l-.31 5.525M372.506 400.876l1.516.052M372.575 396.397l-.044 1.152-.025 3.327M374.022 400.928l-.213 3.03M373.6 405.92l-.295 4.436M373.6 405.92l.21-1.963M367.933 404.31l.827.046.307-.06 1.228-.433 3.514.094M346.04 456.58l-2.138-5.27-.65-2.67.417-3.105.86-4.908-.43-6.144.01-2.02.33-1.766.972-2.724M354.214 428.456l.325.38.106 1.114-.033.332-.335.272-.57.03-5.448-1.763-2.848-.848M346.054 425.833l7.452 2.394.708.229M376.496 437.754l1.44-.956.048-.73-.772-1.11-1.202-1.213-.544-1.445-.372-.98-1.917-.956-1.774-.697-1.402-.593-2.576-.878-1.774-.335-2.203-.052-2.003.8-1.431.155-1.46-.516-1-.723-.8-1.006-.482-.275-.693.3-1.116 1.162-.168.368-.081.382M345.965 416.423l1.03 1.943.412 1.427.04 1.699-.208 1.536-.67 1.753-.515 1.052M338.682 417.45l.656.177.992.169 1.124.152.558-.028.683-.133.535-.115.706-.23.5-.19 1.529-.83M352.78 396.27l6.07.288M347.529 368.562l3.739.126M349.679 362.253l-.315.625-.618 1.205-1.008 1.83-.209 2.65M349.679 362.253l4.533 2.767M352.252 360.283l-2.216 1.387-.357.583M354.727 363.32l-.316.64-.199 1.06M354.727 363.32l-2.475-3.037M360.772 361.399l-.75-.264-1.123-.286-1.22-.212-.511.122-1.066 1.061-1.375 1.5M366.505 326.656l-1.578 2.93-10.108 17.287-2.187 2.678-.003.984.422.66 1.186.325 3.134 1.56 1.829 1.667 1.263.641.37.286.125.575.099 2.045-.285 3.105M322.731 370.382l3.072.172M322.867 362.695l.057 1.315-.157 5.236-.036 1.136M328.875 370.793l.212-4.5M331.537 370.931h-.414l-2.248-.138M325.803 370.554l.612.105 2.46.134M328.573 376.788l.056-3.872.246-2.123M344.154 371.251l-5.286-.12M344.154 371.251l.185-6.138M344.154 371.251l-.208 5.675M325.803 370.554l.187-6.114M343.946 376.926l-3.105-.128M341.804 354.068l2.65 2.908.42.749.106.59.06.673-.106.66-.183.202-.255.342-.038.474.055 2.784-.174 1.663" clip-path="url(#p4320ac0f02)" style="fill:none;stroke:#000"/><path d="m334.925 365.52 1.204-.165 3.134-.427h1.843l3.233.185M331.537 370.931l1.47.128M331.537 370.931l.033-.24M337.763 376.672l-5.031-.208-1.162-.015-2.997.339M338.868 371.13l-5.861-.071M336.247 373.517l.496.012.819-.01.78-.008.216-.26.03-.377-.004-.307.03-.338.071-.472.083-.368.1-.259M331.57 370.69l.656-4.764.09-.176.601-.18 1.016-.132.574-.008.418.09M331.57 370.69l2.703-1.016.307-.702.206-2.134.14-1.318M337.763 376.672l-.89 2.93-.138 1.06.75 1.032.978.704.3 1.092-.708 1-.255.724.13.855-.998 1-.416-.006-.744-.54-.547-.099-.875.665-.102.665 1.196 1.657.656 1.073 1.197 1.329 2.727 4.256.414.886-.787 4.721M340.872 405.462l-1.083-.44-.32-.527-.088-1.316.27-1.503M324.178 402.507l.957-.301 3.006-.962 4.18-1.625 1.827-.787 1.265-.205.525.131 3.713 2.918M323.327 402.746l-.244.136-.828.587-4.99 4.348M324.178 402.507l-.85.24M324.178 402.507l.197.451M326.767 410.79l-1.567 1.264M324.375 402.958l.066.826.899 3.228.424 1.285 1.003 2.492M324.375 402.958l5.445 4.556.183.575-.51.487-2.726 2.213M323.327 402.746l-1.025 5.272M325.2 412.054l-2.656-3.37-.242-.666" clip-path="url(#p4320ac0f02)" style="fill:none;stroke:#000"/><path d="m321.555 412.521-2.507-2.328 3.254-2.175M325.2 412.054l-1.09.881M314.504 357.268l1.564-.043M313.712 358.651l.18-.48.612-.903M314.5 366.894l.456-.964.396-.938.66-2.337.061-.743.03-.426M313.712 358.651l-.006.531.153.56.51.679 1.179.65.554.415" clip-path="url(#p4320ac0f02)" style="fill:none;stroke:#000"/><path d="m322.867 362.695-1.638.222-1.131-.066-3.996-1.365M318.847 360.774l-.838-.402-1.053-.487-3.244-1.234M319.774 361.262l-.927-.488M320.431 357.778l-.731 1.104-.853 1.892M322.867 362.695l-.066-1.5-.241-1.07-.758-1.083-1.177-1.152-.194-.112M316.068 357.225l2.24.027 1.193.245.93.281M423.216 390.992l.834-.043M408.379 390.518l7.863.256 6.974.218M424.05 390.949l-.07-2.176M423.98 388.773l3.887.074 3.505.084.314.086.15.18.032 1.007-.237.869-.204.105-3.457-.036-2.69-.121-1.23-.072M423.98 388.773l-.167-1.704-.147-2.44-.175-2.598M371.41 383.15l-1.857-.07-.228.206M371.456 383.399l-2.013-.061-.118-.052M369.343 381.955l-.074 1.237.056.094M369.355 381.336l.244.24M369.355 381.336l-.012.619M372.012 383.345l.056-.046.041-1.875-2.754-.088M325.646 386.904l.758 1.015 1.455 3.395.773 2.196M325.646 386.904l-.748.316-1.576 1.105-.875.316-.963-.263-1.37-.632-.38-.684-.087-.605.233-1.29.759-1.078 3.617-3.422 1.512-.932M325.646 386.904l.881-.624.177-.902-.202-4.56-.364-.809-.37-.274M529.035 379.888l2.517 2.84 1.08.953.955.533 1.35.375 2.501.42 1.62.04 1.16-.125.746-.25 1.637-.601 1.606-.701.824-.296 3.421-.696 2.012-.737 5.29-2.4M596.634 319.097l-.487.439-1.256.861-2.363 1.315-.603.756-.47.998-.384 1.21-.62 1.48-.637 1.134-.901 1.055-.641.472-1.407.695-1.458.544-.855.272-.77.212-.537.272-.536.56-.888.891-.62.831-.57.787-.469.816-.201.574-.402.937-.218.771-.168.983-.133 1.088-.202 1.074-.351 1.571-.453 1.557-.419 1.195-.491.884-.112.551-.436 1.195-.603.861-.687.846-.502.726-.403.378-.904 1.058-.922.907-1.173.998-1.056 1.027-.754.68-.787.636-.587.65-.352.589-.603 1.209-.184 1.103.1.877-.268.861-.435.53-.822.498-.938.5-.703.468-1.274 1.436-.653 1.285-1.073 1.36-.553.469-1.34.816-.297.29-.427.431-.276.386-.584 1.557-.229.756-.228 1.146-.381 2.543-.254.664-.178.962-.482 1.902-.01.761M437.444 395.254l-2.487.361-1.05.099M434.65 390.093l-.32.377-.32.59-.237.485-.17.515.123 1.67.06.895.12 1.089M433.16 413.69l.29.205.486.312.492.171.525.03.536-.142.423-.3.317-.56-.003-1.146-.073-1.402.015-1.322-.12-1.002-.201-1.491-.124-1.23-.223-1.675-.183-1.752-.477-2.04-.182-1.165.024-.938-.185-.99-.497-1.215-.094-.324M443.505 394.793l5.302.842M437.444 395.254l3.173-.454 1.932-.066.956.06M440.237 387.597l.135 1.018.27.82.376.865.171.424.295.644.237.214.31.106.956.335.383.25.252.58.043.463.033.513-.025.497-.168.467M457.228 397.276l-2.797-.16-1.59-.362-2.123-.665-1.91-.454M450.81 392.668l-.037.572-.193.721-.212.506-.244.365-1.317.803M447.268 384.918l.403.487.335.756.268.65.2.862.096.795.072.626-.046.666v.717l.175.688.404.562.733.45.442.25.46.24" clip-path="url(#p4320ac0f02)" style="fill:none;stroke:#000"/><path d="m451.039 391.346.016.392-.016.454-.23.476M484.048 384.213l-1.384.192-1.16.421-.949.675-2.187 2.285-1.043.948-.948.579-1.285.392-2.444.675-1.454.727-1.016.94-.942 1.437-1.043 1.421-.549.632-.784.571-.767.485-1.335.548-1.215.27-2.482.04M457.228 397.276l.919.037 2.914.138M459.295 403.993l1.072-2.789.05-.14.612-1.132.213-.408.091-.436-.189-.84-.055-.426-.028-.371M453.71 399.4l1.28-.456.732-.205 1.07-.326.218-.502.218-.635M438.402 392.246l-.674 1.078-.236 1.018-.048.912M424.447 399.665l1.274-.736M425.57 400.434l-.642-.53-.481-.24M425.57 400.434l.15-.943v-.562M433.16 413.69l.25-.831.125-.897-.088-1.13v-1.25l.037-.77.174-.815.06-.796-.037-.843-.096-1.032-.27-1.204-.444-1.244-.35-.75-.401-.934-.329-.92-.62-1.257-.4-.533-.504-.408-1.065-.204-1.55.293-1.301.513-.63.251M433.16 413.69l-.5-.167-.577-.21-.561-.382-.467-.678-.336-.9-.401-1.679-.27-1.5-.43-1.374-.54-.54-1.065-.698-.882-.829-.737-1.19-.233-.638v-.763l-.058-.954-.27-.51-.263-.244M421.282 399.556l-2.988.547M420.63 395.571l.177 1.465.175.803.14.816.16.901M417.762 397.494l.267 1.258.265 1.351M412.397 401.207l.837-.195 1.156-.192" clip-path="url(#p4320ac0f02)" style="fill:none;stroke:#000"/><path d="m412.397 401.207.02-.744.127-1.071.73-.39.606.377.51 1.441M409.768 401.628l.476-.046 2.153-.375M409.768 401.628l-.502.049M410.209 402.955l-.202-.515-.239-.812M410.209 402.955l.156.576.423 1.4M412.136 404.011l-.518-.396-.642-.254-.767-.406M467.129 430.075l1.042-.849.643-.454.59-.425.883-.451.99-.507.563-.459.385-.777.36-.729.105-.466-.033-.563-.306-1.208-.387-.849-.215-.67-.025-.797.025-.618.07-.642-.095-.417-.307-.25-.532-.125-1.97-.277-1.05-.19-1.035-.119-.825.053-1.298.44-2.421.422-.73-.086-.561-.27-.503-.467-.985-1.02-.744-1.118-.175-.835.023-.67.287-1.252.464-1.83.136-.724.106-1.084-.029-1.13-.213-1.415-.278-1.303.095-1.17.116-.78" clip-path="url(#p4320ac0f02)" style="fill:none;stroke:#000"/><path d="m466.588 405.704-1.122-.015-1.324-.136-1.223-.046-1.538-.076-.81-.22-.532-.343-.445-.506-.299-.369M464.299 443.91l.7-.665.593-.79.588-1.138.183-.987-.032-1.23-.121-1.506-.183-1.152-.025-1.604-.028-.865.046-.627.047-.697.181-1.103.42-.822.46-.65M478.302 432.42l-.546-.102-.62-.138-.68-.224-1.18-.46-1.313-.474-1.05-.362-.643-.112-1.341-.105-1.24-.092-1.452-.125-1.108-.151M460.531 445.511l.584-.45.624-.221 1.582-.365.518-.257.46-.309" clip-path="url(#p4320ac0f02)" style="fill:none;stroke:#000"/><path d="m464.103 448.32.108-.5.4-1.718.246-1.304-.558-.889M460.014 446.543l.12-.496.2-.368.197-.168M459.542 443.017l.48.06.148.61.165 1.148.196.676M450.853 456.522l.595-.575.175-.453.255-1.026.408-.461.832-.395.977.053.722.276.547.724.314.98.467.388.466.086.7-.125.395-.277.882-.841.445-1.356.131-.921-.218-.631-1.088-1.027-.124-.315.073-.435.546-.961.677-1.148.984-1.539M462.928 452.388l-.66-1.028-.611-1.102-.314-.7-.529-1.103-.215-.7-.401-.773-.184-.439M467.639 471.798l-.011-.546-.339-1.004-.644-.907-.968-1.46-.565-1.283-.3-1.264-.513-1.43-.165-1.088-.182-1.326.092-.734.072-.67.15-.786.1-1.236.049-1.013.198-1.311-.04-.552-.124-.506-.397-.626-.463-.73-.66-.938" clip-path="url(#p4320ac0f02)" style="fill:none;stroke:#000"/><path d="m496.565 463.71-.788-.046-.703-.09-.888-.379-.62-.377-.57-.273-.402-.272-.402-.377-.47-.302-.418-.136-.503.196-.302.59-.418.423-.47.423-.77.498-.788.424-.687.226-.938.242-.77.136-.487.227-.168.332.034.363.301.484.034.574-.369.801-.553.786-.586.317-.637.136-.637-.181-.988-.53-.804-.468-.872-.634-.72-.545-.637-.438-1.122-.589-1.392-.574-1.223-.499-1.122-.438-1.14-.5-.87-.589-.956-1.118-.402-.816-.52-1.088-.703-1.179-.67-.892-.705-.952-.519-.513-.737-.877-.369-.363-.553-.287-.854-.574-.989-.756-.795-.848M463.735 474.927l1.322-.582 1.014-.68.615-.749.554-.61.399-.508" clip-path="url(#p4320ac0f02)" style="fill:none;stroke:#000"/><path d="m467.593 478.296.062-.527.092-1.04.077-.832.015-1.012-.092-.915-.035-.832-.088-.79.015-.55M467.023 480.25l.032-.401.169-.763.37-.79" clip-path="url(#p4320ac0f02)" style="fill:none;stroke:#000"/><path d="m485.819 498.218-.5-.316-.425-.417-.494-.483-.554-.566-1.124-.704-.718-.543-.514-.595-.307-.71-.43-.77-.314-.244-.547-.151-.868-.066-.802-.026-.86-.158-.603-.363-.502-.408-.654-.635-.603-.65-.57-.786-.503-.634-.468-.862-.37-.62-.485-.544-.687-.786-.871-.982-.654-.906-.637-.983-.67-1.163-.67-1.119-.503-.997-.211-.8-.108-.935M467.957 503.681l.697-1.261.63-1.04.523-1.11.369-.984.4-1.136.43-1.622.23-1.429.028-1.498-.124-1.293-.27-1.286-.313-1.17-.307-.994-.357-1.27-.474-1.17-.657-1-.62-1.198-.517-1.144-.155-.496-.308-1.04-.091-.762-.048-.527M450.234 483.915l.823-.03h.685l.654.12.609.29.612.274.434.105.486.02.372.022.855-.015h.871l.782-.02.522-.102.609-.273.543-.487.372-.286.587-.227.806-.154.538-.16.6-.182.46-.152.33-.133.661-.163.881-.08.48-.157.371-.24.274-.378.427-.54.526-.437.619-.28M464.733 510.561l-.055-.838.225-.732.383-.888.193-.28.5-.911.891-1.442.751-1.289.222-.365.114-.135M471.935 502.625l-.868 1.145-.54.302-.473.1-.84-.06-.499-.092-.463-.178-.295-.16M458.663 499.994l.452.468.47-.317.62-.393.653-.151.77-.362.67-.348.453-.453.47-.212h.72l.905.151.335.151.653.348.587.604.318.469.268.635.117.574.152.8-.202.56-.033.755.335.242.58.166M464.733 510.561l.16.691M460.673 512.756l1.02.322 1.119-.146.907-.628.518-.497.437-.453.059-.793M461.91 521.237l.292-.661.73-1.109.526-.605.707-1.053 1.076-1.096.584-1.012.093-.845-.354-1.165-.15-.7-.142-.658-.379-1.08" clip-path="url(#p4320ac0f02)" style="fill:none;stroke:#000"/><path d="m466.588 513.126-.419-.121-.301-.348-.201-.241-.268-.333-.506-.83M450.853 521.233l.845-.138.83-.292.753-.062.754.049 1.798.346.938.25 1.49.374.885.125.761-.014 1-.36 1.003-.274M469.313 527.854l-1.182-.34-1.138-.375-1.03-.402-.983-.333-1.015-.416-1.045-.388-.386-.364-.186-.487-.047-.611-.011-.687-.047-.776-.107-.43-.123-.513-.103-.495M469.313 527.854l.632.095 1.077.204 1.207.22.632.233.567.555.097.512" clip-path="url(#p4320ac0f02)" style="fill:none;stroke:#000"/><path d="m463.351 536.378.707-.24 1.269-.572.827-.97.761-1.096.768-.9.722-.651.372-.56.16-.907.022-1.151.146-.859.208-.618" clip-path="url(#p4320ac0f02)" style="fill:none;stroke:#000"/><path d="m468.884 523.976.084.544.703.166.536.046.252.257v.453l-.235.695-.318.695-.302.695-.198.184-.093.143M459.798 536.644l.486-.35.6-.088.624.051.688.022 1.155.1" clip-path="url(#p4320ac0f02)" style="fill:none;stroke:#000"/><path d="m461.845 539.943-.081-1.037.162-.847.42-.731.47-.511.535-.439M421.541 226.39l-.156-.065-.356-.15M473.014 131.06l-1.024.032-1.213.292-.963.007" clip-path="url(#p4320ac0f02)" style="fill:none;stroke:#000"/><path d="m425.563 218.267-.987.89-.8.863-.58 1.033-.438.622-.69.933-.486.665-.36 1.018.047.905.157.566.115.629M427.993 215.58l-.408.976-.423.622-.721.608-.878.48" clip-path="url(#p4320ac0f02)" style="fill:none;stroke:#000"/><path d="m427.209 214.335-.533.977-.58.678-.345.65-.392.764v.481l.204.382M441.19 192.798l-.878.523-.956.75-.847.735-.72.834-1.004 1.443-.478.693-.353.693-.391.622-.784.975-.878 1.33-.815 1.004-.69 1.188-.752 1.272-.658 1.5-.705 1.414-.408 1.173-.517 1.02-.407 1.102-.204.778-.643 1.032-.486.693-.407.763" clip-path="url(#p4320ac0f02)" style="fill:none;stroke:#000"/><path d="m427.993 215.58-.38-.577-.184-.215-.22-.453M444.826 190.478l-.8.283-.752.269-.988.707-.69.467-.406.594M443.982 193.773l-1.014-.444-.738-.333-.63-.125-.41-.073" clip-path="url(#p4320ac0f02)" style="fill:none;stroke:#000"/><path d="m441.66 198.582.564.283.721.268.956-.056.846-.071.376-.07.925-.41.878-.665.423-.467.267-1.711.062-1.09.047-1.031-.164-.488-.103-.573-.093-.636-.596-.623-1.238-.679-.705-.085" clip-path="url(#p4320ac0f02)" style="fill:none;stroke:#000"/><path d="m443.982 193.773-.116-.224-.363-.85.016-.417.413-.7.512-.686.382-.418M436.033 206.685l-.07-.318-.165-.375.016-.848v-.976l-.032-1.414.376-.665.674-.75.925-.607 1.316-.44.925-.494.83-.693.831-.523M443.982 193.773l.138.27.01.595-.138.776-.216.792-.34.713-.832.758-.74.636-.205.269M427.993 215.58l.564-.976.72-1.273.596-1.018.917-.827.76-.742.408-.325.72-.184.753-.644.596-.22.909-.735.784-.89.313-1.06" clip-path="url(#p4320ac0f02)" style="fill:none;stroke:#000"/><path d="m442.459 206.091-1.285-.155-.565.141-.517.537-.203.552-.423.466-.565-.17-.878-.268-.862-.467-.564-.197-.564.155M447.456 157.098l-1.106.499-1.169.319-1.03.624-.937.888-.83.86" clip-path="url(#p4320ac0f02)" style="fill:none;stroke:#000"/><path d="m468.064 159.651-1.249-.563-2.275-.106-2.48.448-1.343.658-1.283 1-1.108.527-1.635.21-2.975-.605-3.56-1.422-1.254.764-.642.684-1.108.237-2.48-1-2.289-.195M478.302 432.42l.606.155 1.17.41 1.004.408.788.317.67.71.419.831.303.731.24.915.066.71.049.689M496.18 439.695l-1.416.471-.941.046-1.028-.2-.955-.151-.686.01-.795.058-1.183.144-1.268.08-1.849-.096-.637-.196-.804-.363-.627-.503-.374-.7" clip-path="url(#p4320ac0f02)" style="fill:none;stroke:#000"/><path d="m480.899 443.975-.27-.816-.073-.723.358-.665.758-1.197.547-.704.556-.674.368-.317.474-.583M483.847 399.945l-1.34.136-1.509-.015-1.692.197-1.324.136-1.005.166-.768.307-.992.579-1.109.618-1.119.582-.802.54-.514.589-.54.552-.638.375-.974.336-1.408.283-.905.227-.62.151" clip-path="url(#p4320ac0f02)" style="fill:none;stroke:#000"/><path d="m483.54 407.563-.23-.045-.694-.172-.714-.224-1.557-.31-1.424-.156-1.72-.126-1.605-.323-2.005-.355-1.247-.033h-2.042l-1.552.021-2.162-.136M492.332 405.316l.284-.678-.025-.454-.081-.417-.007-.665.088-.536.15-.52-.045-.608-.317-.441-.405-.365-.318-.475-.203-.953-.143-.092-.911.048-1.609.272-1.692.271-1.437.182-1.243.072-.57-.012M484.065 399.1l.05.24-.117.394-.15.211M483.54 407.563l.346-.043.397-.017 1.076-.184 1.685-.365 2.133-.589 2.043-.495.813-.337.299-.217M512.692 415.733l-1.423-.013-1.597-.105-1.306-.08-.875-.012-.766-.145-.824-.217-.723-.344-.611-.524-.416-.632-.582-.672-.687-.572-.774-.664-.656-.717-.532-.54-.618-.832-1.056-.696-.704-.304-.503-.19-.591-.267-.565-.204-.77-.243-.667-.24-.7-.395-.376-.303-.529-.533-.616-.473-.893-.5M484.316 416.087l-.2-.65-.52-1.194-.017-1.632-.201-.877.335-.816-.167-1.617-.007-1.738M505.55 377.416l5.209-2.208 2.946-.869 3.29-.698 1.903-.006 1.86.303 1.955.75 3.303 2.177 3.019 3.023" clip-path="url(#p4320ac0f02)" style="fill:none;stroke:#000"/><path d="m518.85 381.286.693-.605.313-.112.587-.106.703.212.947.315.88.123.904.046.905-.091.771-.046.922-.15.279-.083.592-.175.854-.227.835-.5M530.526 396.593l-.574-.326-3.246-1.59-.405-.318-.842-.902-.127-.26-.157-1.058-.272-.828-.097-.187-.166-.213-.983-.624-.18-.187-1.038-2.547-.041-.262.055-1.05-.014-.211-.11-.2-1.464-1.357-.208-.275-.333-1.369-.153-.368-.234-.352-.57-.59-.516-.233M496.792 387.46l.075.44.251.422.821.605.805.695.485.424.637.302.553.15.536.41.924.477 1.332.67 1.829.649.724.227.813.226.806.236.976.018.817-.256.831-.46.533-.594.385-.529.67-.65.47-.363.62-.62.268-.377.536-.604.452-.363.526-.47.263-.385.222-.92.248-.843.233-.722.305-.817.216-.456.35-.602.766-.766.708-.594 1.073-.734" clip-path="url(#p4320ac0f02)" style="fill:none;stroke:#000"/><path d="m496.792 387.46 1.717-.604 2.195-.513 1.726-.787 2.882-.921 1.525-.605 1.19-.257 1.474-.635 1.776-.438 1.223-.529 1.257-.408 1.592-.348h1.273l1.471-.075.758-.054M505.55 377.416l-2.126.925-1.11.589-1.262.497-2.232.388-2.933.36-1.43.348-1.415.573-3.184 2.202-1.52.785-1.502.27-1.547-.007-1.24-.133M482.708 385.995l.452-.287.352-.56.168-.423.368-.512M496.792 387.46l-.478.167-3.368 1.134-2.045.68-1.876.574-1.14.318-.938.423-.603.468-.034.53.135.468M484.802 506.175l-.234-.136-.57-.363-.77-.665-.67-.665-.286-.498-.234-.484-.068-.423.118-.695.452-.831.503-.666.771-.74.82-.605.738-.498.268-.302.179-.386M510.802 502.408l-.346.548-.486.62-.435.604-.637.635-.67.468-.577.332-.466.099-.565-.004-.697-.21-.55-.22-1.15-.51-1.538-.573-.817-.187-.744-.03-.65.122-1.385.434-.697.056-.503-.064-1.4-.225-1.255-.198-.824-.273-.65-.329-.429-.35-.875-.847-1.251-1.39-1.251-1.392-.594-.52-.555-.233-1.036-.151-.919-.119-.724-.184-.307-.099M513.506 500.46l-.775.19-.609.452-1.32 1.306" clip-path="url(#p4320ac0f02)" style="fill:none;stroke:#000"/><path d="m504.206 485.29.229.618.29.636.338 1.143.276.79.321.86.44.865.428 1.34-.01.488-.234.647-.212.477.04.355.263.355.51.335.457.204.379.253.252.267.353.48.394.707.168.605.095.513.182.56.142.338.208.352.266.434.658.644.378.452.135.45-.077.7-.043.566-.03.684M502.88 431.467l-1.063 1.844-.92 1.224-.597.677-.685.795-.738.952-.553.605-.89 1.2-.73.633-.524.298M497.839 441.266l-.62-.196-.319-.74-.301-.53-.42-.105M480.43 431.095l-.722.045-.77.424-.369.362-.267.494M513.489 413.956l-.268.257-.185.741-.344.78" clip-path="url(#p4320ac0f02)" style="fill:none;stroke:#000"/><path d="m522.545 422.957.875-.086.387-.217.19-.388-.015-.46-.356-.777-.335-.74-.374-.47-.256-.237-.627-.32-1.444-.457-.568-.308-.533-.435-.538-.57-.787-.694-.695-.433-.963-.382-.73-.177-.78-.112-1.203.046-1.101-.007M454.74 341.11l.722.462.888.574.955.409.52.301.62.56.905.499.905.362 1.055.424 1.24.71 1.09 1.073 1.256.968.821.483 1.156.772 1.34.77 1.157.756 1.407.892 1.475 1.013.989.543 1.675 1.044 1.073.785 1.641 1.21.99.59.234.65.57.725.686.302.755.56.737.166.921-.393.838-.106 1.207.076.938-.106 1.692.166 1.995 1.345.385.318.687.287.754.09h.637l.92.242.52.182 1.274.242.754.196.838.483.62.363.52.484.602.59.487.65.351.514.47.68.536.816.385.665.452.8.37.65.469.575.485.786.62.877.453.816.485.801.587.862.603.982.436.801.285 1.27.184.982.188.717M439.902 376.26l.284.283.361.276.595.401.614.447.691.659.364.369.403.786.318.861.243 1.07.423.907.627.803.598.553.583.473.7.54.562.23M452.162 384.161l-1.254.527-.927.375-.707.046-1.305-.092-.7-.1" clip-path="url(#p4320ac0f02)" style="fill:none;stroke:#000"/><path d="m430.68 372.615.914.76.7.464.606.438.846.559.754.473 1.156.529.91.317 1.118.223 1.033.126 1.185-.244" clip-path="url(#p4320ac0f02)" style="fill:none;stroke:#000"/><path d="m436.109 367.328-.67.333-.628.138-1.087.04-.342.164-.176.434.131.52.789 1.27.441.804.386.423.835.997.823.848.772.634.636.696.804.664 1.079.967M424.849 371.939l.586-.349.687-.271 1.29-.091.771-.09.538.046.752.346.663.562.543.523" clip-path="url(#p4320ac0f02)" style="fill:none;stroke:#000"/><path d="m431.183 374.266-.151-.514-.151-.333-.168-.498-.034-.306M420.443 377.032l.678.077.532.026.833.123.838.106.586-.15.319-.273.184-.468.1-.65-.1-.817-.1-.786-.114-.766.046-.473.269-.514.335-.528" clip-path="url(#p4320ac0f02)" style="fill:none;stroke:#000"/><path d="m422.62 368.84-.234 1.088.218.514.418.559.788.59.452.438.587-.09M407.665 382.51l.293-.263.637-.545.855-.65.754-.317.603-.197.386-.211.351-.272.57-.726.52-.68.419-.635.553-.438.586-.257.888-.106h.603M420.443 377.032l-.621.015-1.1.09-.736.027-.69.066-1.077.028-.536-.045" clip-path="url(#p4320ac0f02)" style="fill:none;stroke:#000"/><path d="m404.31 376.95.116-.611.635-.619 1.94-.611 3.18-.48.554.157.737.408.945.192 1.223.228 1.29.496.552.499.201.604M404.557 378.18l.218.847.368.514.554.65.452.559.603.71.52.65.393.4M420.224 377.621l.218-.241v-.348M390.082 337.963l.45-.472.335-.227.52-.076.921.227.553.226.67.303.973.227.938.181 1.072.393.587-.045 1.038.302 1.375.212 1.256.015.821.105 1.072.303.889.09 1.039.076 1.223-.256.938-.258.72-.106.67-.211.52-.287.688-.454.636-.393.687-.468.687-.408.637-.423.77-.318.922-.272.889-.469 1.005-.529.955-.408.971-.302.755-.59.77-.347.62-.348.872-.514.67-.439.636-.59.085-.86-.537-.515-.77-.65-.553-.62" clip-path="url(#p4320ac0f02)" style="fill:none;stroke:#000"/><path d="m450.208 337.923-.591-.435-.656-.572-1.146-.888-.773-.652-1.021-.737-1.02-.796-.92-.599-.962-.605-.928-.666-.737-.468-.988-.817-.82-.602-.626-.434-.9-.475-.898-.331-.81-.105-.817-.02-.827.063-1.038.136-1.18.005-1.266-.062-.605-.175-.583-.207-.544-.132-.613-.036-.706.153-.883.35-.854.178-1.027.077-.855.03-1.247-.1-1.082-.202-.792-.042-.737-.053-.7.065M450.208 337.923l.587.355.662.452.764.633 1.05.796.966.652.504.3" clip-path="url(#p4320ac0f02)" style="fill:none;stroke:#000"/><path d="M450.905 350.445v-.65l.134-.514.2-.665.168-.575.134-.65-.1-.56-.067-.649.2-.665.151-.454.37-.514.2-.423.235-.393.235-.393.335-.393.47-.363.635-.543.32-.182.284-.242v-.332l-.068-.175M455.177 327.408l.403.514.184.5-.503.634.184.68.268.574-.217.756-.319.545-.1.453.385.453.755.06.77-.362 1.14-.12.57.331.586.68.52.56.585.71.268.484.084.756-.134.574-.301.756-.285.65-.067.409.15.982.068.847-.285.725-.67.272-.42-.106-1.306-.317-.62-.166-.503-.167-.754-.015-.352.106-.218.378-.302.566M450.905 350.445l-1.006-.832.118-.74.25-.666.252-1.088v-2.01l.017-.62-.017-.665-.034-.862-.116-.756.016-.619-.067-1.028-.033-1.073-.068-.907-.01-.656M454.205 361.796l.218-.74.386-.56.335-.468.168-.756-.219-.907.37-.635.452-.468.302-.68-.084-.757-.135-.453-.15-.65-.135-.831-.368-.635-.637-.136-.787-.348-.838-.317-.586-.212-.604-.317-.52-.59-.234-.377-.234-.514M435.539 365.288v.514l.386.377.268.348.1.439-.184.362" clip-path="url(#p4320ac0f02)" style="fill:none;stroke:#000"/><path d="m448.953 367.72-1.108.586-.693.375-1.73.94-.356.07h-.285l-.405-.102-.784-.356-1.306-.598-1.284-.596-.536-.106-.838-.032-.73-.17-.494-.191-.553-.196-.785-.192-.453.055-.504.121M399.697 268.94l2.127-1.259 1.157-.86.766-.66.816-.23.851.031.885.184.153.415.034.552-.408.308-.443.353-.017.306.238.277.63.552-.102.43-.493.092-.494.2-.596.26-.629-.014-.323.183-.324.553-.391.476-.528.522-.56.614-.477.414-.17.645-.273.777-.476.297-.877.28-.841.28-.914.314-1.243.264-.97-.05-.804-.032-.658.082-.457.214-.237.479-.44.313-.383.429-.128.396.238.495 1.023.396.64-.38.768-.858 1.042-.577.64-.099 1.407.215.823.263 1.17.545.786.346 1.024.412.933.495.785.38.457.709.567.99.476 1.055.457.594.548.346.658.478.805.33.676.132 1.188.05.75.016.676.116 1.335-.083 1.353-.33.457-.511.31-.66.432-.45.512-.16h.478l.7.2.701.311.4.21.457-.19.346-.12.72-.04.794.174M374.466 344.843l.911-.224 1.306-.878 1.865-.786 1.121-.421M331.515 373.667l1.422-.422.27-.265.046-.97-.246-.951M431.131 432.864l-.467-.286-.601-.523-.61-.477-1.068-.802-.663-.575-.637-.603-.37-.556-.186-.609M423.871 415.462l.426 2.337.69 3.507.284 1.184.306.881.08 1.092.066 1 .066.796.22.793.232.641.234.417.054.323M404.783 436.502l-.678.48-.062.161.164.122 1.962.197 2.276.29 1.006-.184.956-.79.926-.309 1.327.302 1.875.935 1.568 2.078.23.1.237.029.275-.074.586-.423.736-1.066.365-.881.583-1.401.503-.941.591-.421 1.933-.914.831-.718.374-.474.51-.654.419-.517.545-.588.359-.346.484-.755.322-.49.543-.817M429.786 435.743l.264-.974.353-.835.44-.636.288-.434M430.095 442.463l.727-.994.64-.597.572-.457 1.014-.935.838-.894.353-.815.154-.875-.551-1.053-.595-.736-.816-1.014-.66-.775-.64-.454M336.997 416.394l.583.385 1.102.671M335.167 418.602l2.378-.52 1.137-.632M336.997 416.394l-1.83 2.208M335.167 418.602l-.715-.066-.197-.31.095-.67.474-.639.64-.582.81-.046.723.105M323.481 339.882l-.636.726-.635 1.088-.466.975-.317 1.05.063.975.254 1.146v2.54l-.656.918-.868 1.356-.466.975-.678.936-.72.65-.784.801-.571.803-.488.668-.36.764-.085.972M323.481 339.882l.614-.917M318.737 339.977l.784-.21 1.504-.172 1.503.21.953.077M326.24 333.889l-.472 1.026-.466 1.05-.55 1.013-.297.974-.36 1.013M335.024 341.112l-2.688-.786-2.03-.018-1.644-.54-1.688-.717-1.462-.365-1.417.279M329.114 312.448l-.02.936-.15.86-.063.688-.233 1.184-.317.745-.34.764-.232 1.204-.106.84.148.88.381.649.234.898.74.458.975.363.868.076.953.039 1.1.019.827.152.614.42.593.727.36.669-.063.65-.382.534-.55.554-.678.917-.783.879-.848.42-.783.153-.657-.115-.889-.229-.932-.038-.678.497-.486.783-.34.955-.444 1.051-.381 1.242-.312.617" clip-path="url(#p4320ac0f02)" style="fill:none;stroke:#000"/><path d="m330.914 332.909-2.042-.298-1.818.734-.814.544M318.596 267.696l1.882 1.362 1.918.994 1.7 1.658 1.327 1.158.641 1.828.706 1.954.851 1.546.307.512.152 1.578.493 1.389.59 1.587.374 2.495-.167 1.156.213.921.867.868.805.579 1.188.951.99.761.573.344.805.785.703.877.462.821.02.688-.232.994-.296 1.184-.297 1.204-.268.527-.405.714-.251.476-.597.387-.597.475-.72.974-.657 1.013-.571.955-.741 1.28-.403 1.032.085 1.089.148.879v1.07l-.042 1.031-.339 1.204-.466.955-.233.497M307.422 298.201l1.255-.066 1.174.665.408.75.27.572 1.007.401 1.969.705.875.717.8 1.867.105.535.508.497.551.191 1.207.057 1.631.593 1.101.535.91.44 1.017.037 1.165-.172.89.02 1.588.248 1.313.114.466.268.423 1.376.064 1.203.254 1.7.318.516.423.478M340.84 376.798l-.03.82-.133 1.088.027 1.256.321.773.857.7 1.071.653 1.232.797.723 1.014-.08.846-.16 1.764-.081 2.536-.134 2.368-.08 1.908-.108 1.812-.16 1.691-.054 1.087.027 1.788-.054 1.208-.481.797-.858 1.111-1.07 1.474-.743 1.173M340.84 376.798l-3.077-.126M247.697 359.685l16.307-1.827 1.763-.161 1.722-.392M266.436 358.823l.322-.315.348-.7.383-.503M212.73 356.623l.419.622.335 1.402M247.697 359.685l-7.446.834-1.003-.082-.895-.178-1.9-.964-1.757-1.263-1.65-1.068-1.522-.591-1.418-.327" clip-path="url(#p4320ac0f02)" style="fill:none;stroke:#000"/><path d="m212.73 356.623 2.186-.334 2.138-.327 6.376-1.001 2.443.11 4.233.975" clip-path="url(#p4320ac0f02)" style="fill:none;stroke:#000"/><path d="m227.146 359.402.723-.072 1.206-1.546.481-.725.55-1.013M230.601 347.105l1.205-.12 2.01.53 1.954.073 1.58.556 1.26.942 1.633.773 1.178.846.536 1.498.455.893.67 1.86.428 1.668.804 1.015 1.607 1.014 1.776 1.032M212.73 356.623l-7.333 1.122-3.398.16-.695-.131M198.065 356.208l1.346.96 1.535.538.358.068M194.173 388.333l.537-.776.687-.684.71-.256.54-.163.476-.066 1.125-.821.804-1.184.913-.993.507-.424.425-.614.462-.45.426-.934.164-.912.268-1.369-.01-1.123-.068-1.63.448-1.432.75-1.401.16-1.716-.187-1.788-.563-.942-1.098-.58-.776-.53v-2.996l-.054-1.91.188-2.005.428-1.11.053-.895-.184-.855M194.177 354.377l1.339.773 1.473.725 1.076.333M157.255 371.388l1.495-.742 1.746-1.192 1.545-1.44 1.77-1.28 2.019-2.047 1.296-1.461.847-.787 1.396-.518 1.795-.809.947-1.237.324-1.394.424-.742.423-.675.22-1.02v-.87l.16-.676.348-.41.29-.348.326-.16 2.116-.604 1.392.097 1.688.676 1.152-.145 1.231-.17 2.33-.338 2.223.049 2.116.145 1.74.145 1.474.217 1.312.266.777.46M167.554 399.786l-2.648-.5-1.597-.414-.244-.257.018-.92.313-1.75-.423-2.58.139-.532 1.027-.966.257-.615.038-2.776-.371-1.16-.402-.729-.748-1.057-.25-.674-.423-1.507-.897-1.371-.947-1.304-1.222-2.406-.847-2.428-.424-1.125-.698-1.528-.05-.608.025-.45.075-.741M151.522 372.647l.797-.18 1.646-.405 1.545-.314 1.745-.36M121.968 370.51l4.453 1.462 1.445 1.709.998 1.08 1.445 1.056 2.02.427 2.094.562 2.342.36 1.371-.337 1.496-.45 1.595-.225 1.994-.382 1.67-.405 2.318-.786 1.346-.563 1.222-.652.872-.427.873-.292M137.893 365.655l.119.09 1.745 1.393 1.37.45 1.57.18 1.496.404.599.135 1.37.81 2.469 1.146 1.096 1.17 1.221.831.574.383M111.552 368.584l1.309-.412 2.094-.36 1.271.045 1.546.405 1.62.675.693.29.7.4.85.614.333.27M119.624 338.117l.79 1.341.765 1.244.606.915.502.708M137.893 365.655l-1.003-.743-1.271-.495-2.692-.54-.947-.944-.25-1.82.05-1.418.495-1.447.935-1.15.209-.522-.03-.634-.238-.946-.175-1.619-.15-1.124-.522-.765-.873-.607-.723-.877-.623-1.102-.299-.54-1.496-1.461-.997-.922-1.944-1.956-1.645-1.102-1.417-.596" clip-path="url(#p4320ac0f02)" style="fill:none;stroke:#000"/><path d="m118.32 342.584.423-.135 1.447-.158h1.42l.677.034M113.384 311.193l.873 1.08.2.87.323 2.277.125.855.027.7.023 1.143.698 1.934.573 1.282.563 2.199-.314 1.376-.299 1.687-.25 1.35.15 1.124.4 2.248.971 1.125 1.222 1.079.324.854.548 1.417v.854l.083 1.47M116.924 339.503l1.62-.944.703-.294.377-.148M134.311 361.858l1.458.58.523.698.997 1.394.604 1.125M122.94 285.627l-.248 1.363-.316 1.635-.157.664-.131.687-.526 1.493-.236 1.753-.605 1.185-.866.996-.5.782-.184 1.28-.157 1.184.079.972-.473.9-.972 1.399-.736 1.256-.22.75-.305 1.62-.394 1.683-.814 1.634-1.156 1.517-.639.813M113.41 364.462l-1.072 1.17-.773 1.619-.013 1.333M183.425 326.694l.465.75 1.531 3.372 1.986 4.62M162.505 338.92l1.503.368 1.462.976 1.02.213 2.217-.406 1.471-.75 3.639-3.39.775-2.226.745-.686 1.626-.529h2.259l1.655.568 1.681.498 1.34 1.043 1.576 1.185.815.19 1.118-.538" clip-path="url(#p4320ac0f02)" style="fill:none;stroke:#000"/><path d="m180.45 323.189.503-1.174.946-1.09 1.08-1.373 1.284-1.233 1.022-1.122 1.554-1.742 2.063-2.305.365-1.15.055-2.357.434-.75 2.07-1.928.592-1.053 1.677-1.184 2.392-1.052h.847l.845 1.131.394 1.395.19 2.855 1.021 2.02.533.435 1.035.125.912-.007 1.43.441 2.349.058.657-.011.59.007 2.678.163.879.888.657.782.263 1.232.21 1.233.651 3.919.336 1.56 1.079 1.329.437 1.94.307 1.362-.16.474-1.736.777-1.59.302-1.08.138-1.597 1.31-3.02 3.342-1.196 1.131-1.145.277-4.704-.368-4.508-.277-1.342.119-1.043-.224-1.247-.349-.94.33-2.072 1.921M145.855 284.59l-1.652-.227-11.214-.754-1.366-.089-1.104-.326-2.43-.912-4.114-2.198M101.275 267.971l6.188 3.286 16.512 8.827M122.94 285.627l.198-1.078.473-1.754.158-1.09.236-1.019-.03-.602M122.94 285.627l-.626-.032-.9-.04-1.01.077-.337-.351.219-1.43M180.45 323.189l-1.08-.95-5.605-4.299-4.372-3.563-5.464-5.392-3.66-4.21-2.71-3.495-.475-1.712-.036-1.353 1.253-3.804.345-1.225v-1.36l-.503-1.325-1.166-1.617-.584-.496-1.264-1.073-1.335-.85-3.42-1.015-3.238-.639-1.281-.222M155.454 272.697l-1.109-.079-4.244-1.606-2.393-.565-1.298-.04-.948.96-.394 1.751-.685 1.395.058 1.83.802 2.329.977 3.435-.365 2.482M100.92 267.768l.355.203M114.706 236.06l.342.473.078.83-.341.971-.788 1.351-.814.759-.395.545-.262.758.184.758.115.077.279.184.682.237 1.13.261.578.664.105 2.085-.236.925-.263.924-.499.403-.604.094-.762.427-.237.593-.367.497-.368.45-.604.048-.578.19-.368.379-.052.427.157.26.42.474.605.664.21.426-.368.853-.447.356-.42.545-.131.64-.315 1.067-.368.592-.814.19-.736.047-.394.474-.84.142-.972-.166-.788-.19-.361.098-.218.306.158.426.788.214.677.32.873.651.814.711 1.183 1.043.462.54.078.577-.174.705-.391.868-1.193.821-.806.755-.661.882-1.098.54-1.582.11-1.563-.176-.874.137-.651.496M119.355 226.46l-.919 2.039-1.024 2.915-.605 1.54-.683.711-.867.806-.367.9-.184.688M146.833 200.223l-4.86 2.56-1.576.971-1.602.972-1.262 1.754-.972 1.73-1.339.569-1.55 2.086-1.103 1.137-1.156 1.185-1.708 1.28-.788.806-1.208 1.802-1.419 1.564-.919 1.35-1.182 1.755-.946.758-1.26.593-1.051.782-.92 1.114-.657 1.47" clip-path="url(#p4320ac0f02)" style="fill:none;stroke:#000"/><path d="m120.748 227.527-.29-.45-.525-.617h-.578M100.73 268.48l.185-.165.36-.344M180.45 323.189l.817.95 1.178 1.359.98 1.196M188.48 317.963l-.196 1.022-.947.992-1.1.476-.87 1.705-.841 1.587-.84 2.133-.261.816M155.454 272.697l.708.756.634.71.66.767.84 1.13.75 1.075.626 1.16.562.786.75.67.526-.07.84-.544.745-.371 1.046-.077.605.066.362.303.586.525M313.744 455.14l-.143-.696-.045-1.194M309.854 444.36l-.218-3.036M303.904 444.719l2.449-.2 3.5-.16M316.02 486.9l1.526-.791.437-1.165.482-.426.916-.248.687-.224 1.116-1.471.306-1.838-.416-1.316-1.206-2.317-2.133-1.678-.345-1.377.483-1.768-.288-.974-1.077-1.046-1.11-.77-1.302-.266-1.934.151-1.05.037-.945-.568-.273-.814.482-1.32.45-1.143.657-1.162 1.05-2.025M349.79 460.775l-3.496-3.57-.254-.625M344.905 460.38l-.286-.645-.572-1.032.315-1.059.83-.49.848-.574M337.573 472.4l3.693-2.358.606-.603.23-.955.169-1.511.46-.624 3.147-2.098 2.7-2.212 1.213-1.264M319.896 447.93l-.622.69M319.274 448.62l1.087 2.216.219.803-.788 1.236-.613 1.026.38 1.158 2.407 2.856 2.581 2.696 1.204.691.999-.23.919-.77.24-1.69-.945-2.413-3.004-3.536-1.403-1.29-.824-1.033-.482-.747-.81-1.075-.545-.588M323.75 444.599l-2.916 2.418-.938.913M396.664 600.969l2.378-8.137.345-2.182.202-.79-.27-1.13-1.185-1.078-1.135-2.105-2.626-2.105-2.334-.368-5.718-.158-1.925-1.21-3.294-4.9-4.409-5.729-1.692-1.052-4.026-1.894-2.625-4.367-2.218-1.947-1.925-3.578-.663-4.787M373.57 556.052l-3.892-1.136-3.777-.902-2.357-.562" clip-path="url(#p4320ac0f02)" style="fill:none;stroke:#000"/><path d="m391.911 601.776 1.46-.284 2.375.13.918-.653M369.841 381.814l-.242-.238M370.592 382.29l-.299-.068-.452-.408M369.343 381.955l.257-.029.241-.112M370.592 382.29l.034-.66M370.592 382.29l1.357-.016M371.525 382.95l-.25-.182-.606-.026-.077-.451M371.41 383.15l.046.249M371.41 383.15l.115-.2M371.525 382.95l.487.395M371.949 382.274l-.01.477-.193.052-.22.148M370.626 381.63l-1.027-.054M371.949 382.274l.029-.695-1.28.05-.072.002M381.509 393.918l-.111 2.782M381.398 396.7l-3.694-.24M323.75 444.599l-.685-.944M346.482 401.714l1.331.158.985-.053.38-.355.364-1.538M378.338 410.58l.757.857.453.503M155.454 272.697l.642-.375.911-.908 1.102-.244 2.903-.112 1.196-.48 1.094-1.29.576-2.349-.182-.763-1.247-1.698-1.277-2.243-1.415-2.014-2.385-1.836-2.005-1.869-1.488-1.342-1.182-1.593M316.141 265.284l1.28 1.076 1.175 1.336" clip-path="url(#p4320ac0f02)" style="fill:none;stroke:#000"/><path d="m317.633 263.901.65 1.09.342 1.218-.03 1.487M317.633 263.901l-.839.686-.653.697M382.21 362.082l1.473.868 3.939 3.402 1.364 1.632M384.66 359.608l2.181.586.803.408 1.903 2.42 1.211 1.382.16 1.093-1.181 2.006-.751.48M384.685 369.168l2.003-.5 2.298-.684M384.685 369.168l-.222 2.376M381.17 366.514l1.04-4.432M382.866 366.707l-1.235 2.778.127-2.943-.588-.028M384.66 359.608l-1.53.356-.614.44-.306 1.678M380.336 346.891l1.757 1.776.876.599 1.604 2.328.678 1.784.117 1.835.197 2.25-.197 1.513-.707.632M384.463 371.544l.183-3.804-.277-.678-.606-.46-.897.105" clip-path="url(#p4320ac0f02)" style="fill:none;stroke:#000"/><path d="m384.463 371.544-.97-4.14-.627-.697M331.534 226.134l.044.56.46.75 1.284.697.947.573 1.299 1.96.744 2.179.623 1.105.518.626.737.273.912-.073.915-.092.259.263-.022.418-.565.85-.453.736.088 1.546.015.711-.453.74-.959 1.04-.102.438.762.77.186.293-.237.766-.933.797-.263 1.474.139 1.684.736.941.372 1.402.117 1.027-.175.236-1.298-.23-1.685-1.191-2.78-2.152-.663-1.168-1.003-.875-.864-.865-.831-1.336-1.13-.59-2.109-.256-3.45.625-1.932 1.07-1.05.572-.57.671.453.81 1.436.697 1.736.428 1.036.315 2.028 1.462.182.829-.343.546-1.269.046-.663.046-.19.744 1.08 3.322-.11.488-.707.098-1.095-.111-2.217.15-.875.455-.167.684 1.079 2.053 1.335 1.606 1.232 1.31.095.657-.67.586-2.379.355-1.641.494-.897.732M371.515 383.719l-.059-.32M422.288 409.138l1.03 3.924M422.288 409.138l4.134.169M423.871 415.462l-.553-2.4M423.871 415.462l2.813.235M421.977 417.734l.066-2.647.042-.278 1.233-1.747M389.4 414.965l-.012.285.467.237 1.904.149M389.4 414.965l-1.988-1.98M390.39 326.645l-2.646 2.384M599.31 188.499l1.02.928 1.182.381 1.298.013 1.415.132M593.915 194.013l.216-.309 1.284-.658.73-.474.626-1.316.846-1.171 1.371-1.04.322-.546M602.767 183.596l-1.459 1.58-.86.986-.861 1.87-.277.467M593.721 195.53l1.183.056 1.605.342" clip-path="url(#p4320ac0f02)" style="fill:none;stroke:#000"/><path d="m592.118 201.088.89-1.21.35-1.08.19-1.119.422-1.027-.204-.947-.045-.175M593.915 194.013l-.426.612.232.905M593.256 204.708l-1.138-3.62M574.897 126.552l-1.772-.24-.962-1.027-.671-.631-1.634-.185-2.246.474-1.897.658-2.071.316-2.072-.5-2.158.079-2.45.448-.876.131M572.892 130.577l.292-1.198-.16-.658-.103-1.053 1.109-.856.867-.26M572.892 130.577l-.787 1.013-1.226 1.383-.962.96-1.882.106-1.853.276-2.1.158-2.48-.474-2.393-.315-1.137-.422-.759-1.58 1.255-2.184M598.157 155.376l-1.867 1.632-2.947 2.027-2.538 1.5-3.063 2.186-3.093 2.158-2.187.764-1.839 1.131-1.896 1.422-1.663 1.448-.905 1.105-.116 2.054.116 1.263 2.335 3.607 2.771 2.185 1.284 1.632.292.684-.73.79-.145.71 1.37 1.37.788 1.342 1.517 1.974.905 1.159.466 1.474.438 1.158.613 1.053.904.658.992.053 1.08-.632 1.02-.5.73.21.905.843.221.177M577.37 138.567l.161.303.496.54.744.065.86-.013 1.095.79 1.18.816 1.474 1.408 2.072 2.146.452 1.448-.277 1.184.365 1.317 2.596 1.171 2.1.658 1.663 1.211.817.83 1.59.54 1.736 1.197 1.663 1.198M602.62 152.348l-2.596 1.988-1.867 1.04M577.37 138.567l-.525.184-.291.58-.19 1.04M572.892 130.577l-.029.908.758 1.027 1.051 1.04.598 1.777.219 1.21-.175.475.437.368.759.277.67.473.19.435M602.767 183.596l-.176-1.633.321-1.632 1.722-1.026 1.546-1.448 2.217-2.37.204-1.29-.788-.842-1.429-1-1.75-.92-.788-.764v-1.132l.146-4.502.263-1.21.67-1.923.963-1.5 1.284-2.37v-1.974l-1.138-1.053-1.021-.684-1.342-1.159-1.05-.816M569.216 209.936l.336 1.34.379 1.605.234.987-.19.816" clip-path="url(#p4320ac0f02)" style="fill:none;stroke:#000"/><path d="m468.064 159.651.677.305 2.07 1.422 1.897 1.58.73 1.79 1.487 1.394 1.546 2.028 2.218 1.237 1.254-.105 1.692-.21 1.43-.185 1.517-.21 1.605-.185 2.567.158 1.43.5.846.921.845 1.685.759 1.237 1.313 1.027 1.4.527 1.75-.053 2.13-.29 2.072.369 1.08.842.67 2.449.671 1.763.555 1.316 1.283 1.843 1.955 2.738.817 1.843-.117 1.579.438.947.67.817 1.4.71 2.072 1.106 1.197 1.264.408 1.724.467 1.158.496.842 1.21.75.292.58.059 2.053-.205.842-.569 1.408-.583 1.212-.67.776-.424.368-.015.461.496.54 1.021.71 1.08.869.641 1.632 1.313 1.606 3.326 1.764 2.772 1.157 2.188.817 1.517.263.933-.526.788-1.053.788-1 1.05-.475 1.517-.052 1.867.527h.876l.991-.527 1.576-.132 1.255.29 1.356.632 1.532-.224 1.502-.737 2.728-.75 1.575.29 1.474.447 1.269-.093 1.356-.75 1.649-.316 1.517-.355 1.823-.447 2.174-.856 1.604-.027 1.824.238 1.502.434 3.02.04.86.016M584.544 207.556l-.683.258-1.75.065-2.086-.092-.992.21-1.181.606-1.357 1.093-1.604.223-1.707-.079-2.757.119-1.21-.023M576.16 212.578l.904-.974 1.284.184.817.421 1.137-.815 1.109-.553 1.182-1.264 1.95-2.02M588.807 205.142l-.86.763-.862.21-.962.567-.934.631-.645.243M592.118 201.088l-1.124 1.277-1.414 1.671-.773 1.106M592.527 217.685l-1.78-.132-2.071-.526-.847-1.054-.554-2.053-1.284-1.763.205-.763 1.43-.738.816-2.237.365-3.277M622.604 177.495l-1.224.652-4.172 1.263-1.729.316-2.115.29-.992.138-1.947.362-2.378 1.171-3.807 1.04-1.473.869M622.604 177.495l-.057 1.336.992 1.711 1.692 1.185 3.15 1.316M624.03 176.67l-.23.187-1.196.638M624.03 176.67l-.666.108-1.022-.58-.612-.947M637.176 171.413l-1.18-.48-.47-.03-1.864-.127-1.882.079-1.867.355-1.225.71-.628 1.015-1.458 1.29-.992 1.157-1.58 1.287M468.064 159.651l1.873-.195 1.575-.447 2.276.42 2.1-.631 3.18 2.185 3.121-.184 2.218.526 4.055.816 2.13-.737 2.888-.105 1.371-3.738 1.371-2.449 2.801-2.184.846-1.106 2.334-.21-.467-4.37-.233-1.87M372.012 383.345l-.084.068-.472-.014" clip-path="url(#p4320ac0f02)" style="fill:none;stroke:#000"/></g><g id="PatchCollection_1"><path d="m384.463 371.544 3.324-3.757 2.322-2.36 4.677-5.295-14.283-14.946-1.138 22.508 2.266 1.791zM369.355 381.336l-.012.619-.074 1.237.056.094.118.052 2.485.075.097-.057.043-.057.041-1.875zM381.301 394.133l2.686.143-.05 4.226-.165.121-.216.087-5.64-.338.143-2.032 3.122.146z" clip-path="url(#p4320ac0f02)" style="fill:green;fill-opacity:.8"/><path d="m384.463 371.544 3.324-3.757 2.322-2.36 4.677-5.295-14.283-14.946-1.138 22.508 2.266 1.791z" clip-path="url(#p4320ac0f02)" style="fill:green;fill-opacity:.8"/></g><g id="PatchCollection_2"><path d="m369.532 361.696 5.949.238-.175 3.555-5.948-.238zM381.742 394.729l1.674.104.02 2.691-1.79-.052zM370.816 381.084l1.073.04.077-1.726h-1.116zM378.71 396.633l1.978.09-.088 1.157-1.957-.07z" clip-path="url(#p4320ac0f02)" style="fill:#90ee90;fill-opacity:.8"/></g><g id="PathCollection_1"><defs><path id="m98cf2ae4b1" d="M0 3a3 3 0 1 0 0-6 3 3 0 0 0 0 6z" style="stroke:#90ee90;stroke-opacity:.8"/></defs><g clip-path="url(#p4320ac0f02)"><use xlink:href="#m98cf2ae4b1" x="374.821" y="382.396" style="fill:#90ee90;fill-opacity:.8;stroke:#90ee90;stroke-opacity:.8"/></g></g><path id="PatchCollection_3" d="m85.16 546.093 5.904-2.992 4.83-3.256 1.074-.572 3.415-1.056 2.098-.308 2.245.176 1.22.528 1.122 1.496v1.584l-2.195 1.012-.781 1.012-.244 1.364-1.073.924-3.904.66-.488.749-.342 1.76-1.951.967-1.708.748-1.171.44-.878 1.937-.342 1.936.927 1.276 1.122.308 1.367-1.188.927-2.068 1.561-1.232 2.294-.572 1.95-.265 1.27-1.187 1.415-1.189 1.561-.484 2.147-.088 1.171 1.54.439 1.804.244 2.025-.049 2.728-.341.836-1.122 1.276-3.123.528-4.636.484h-3.171l-4.49 1.808-1.902.704-18.688 3.828-13.188 2.376-.146-.836 1.756-2.112 1.415-1.76.83-1.496-.098-1.672 5.025-1.276.635.484-.341.792.194 1.452.83.396.878-.089 2.733-.484 1.317-.791.39-.308.44-1.452-.537-1.585.39-2.816 1.074-2.068.927-1.584.292-1.012 2.343-1.716z" clip-path="url(#p4320ac0f02)" style="fill:#006400;fill-opacity:.8"/><path id="PatchCollection_4" d="m384.726 390.146-.146 3.605 5.42.193.172-3.777z" clip-path="url(#p4320ac0f02)" style="fill:#d3d3d3;fill-opacity:.8"/><g id="PatchCollection_5"><path d="m345.669 390.194-.05 1.198-.478-.016.052-1.198zM380.894 413.812l.116-2 1.7.079-.116 2zM373.115 412.186l.054-1.47-1.255-.037-.053 1.47zM374.043 413.39l-.549-.438 1.004-.99.17.15.238-.235-.27-.028.021-.468h.108l.011-.156.561.01v.136l.249.02-.033.458zM386.087 412.725l-.583-.398.87-1.036.583.397zM386.597 413.412l-.334-.327.464-.385.334.327zM388.877 413.01l-.748-.02.006-.212-.111-.003.01-.31.577.014.003-.094.283.007zM345.407 398.168l-.03 1.263-.32-.006.03-1.263zM393.38 396.309l.835.568-.454.878-.458.02z" clip-path="url(#p4320ac0f02)" style="fill:#a9a9a9;fill-opacity:.8"/></g></g></g><defs><clipPath id="p4320ac0f02"><path d="M90 114.904h558v497.392H90z"/></clipPath></defs></svg>