<svg xmlns="http://www.w3.org/2000/svg" xmlns:xlink="http://www.w3.org/1999/xlink" width="960" height="960" viewBox="0 0 720 720"><defs><style>*{stroke-linejoin:round;stroke-linecap:butt}</style></defs><g id="figure_1"><path id="patch_1" d="M0 720h720V0H0z" style="fill:#fff"/><g id="axes_1"><path id="patch_2" d="M90 618.25h558v-509.3H90z" style="fill:#fff"/><g id="LineCollection_1"><path d="m490.857 565.377.476-4.853.132-6.396-.491-10.216M489.122 525.973l.594 2.533 1.258 15.406" clip-path="url(#p2275a4c0b6)" style="fill:none;stroke:#000"/><path d="m549.55 535.914-.605.188-.606.038h-1.52l-2.971-.176-1.535-.076-.634.063-.647.076-.606.075-.605.076-1.86.113-3.026.126-.592.076-.59.075-.578.126-4.45.956-1.591.39-.577.177-.606.163-1.788.164-.633.1-1.803.378-3.252 1.157-.873.202-.606.013-.577-.152-.578-.163-.577-.214-.577-.214-.606-.1-.59-.038-3.957.54-.578.139-.563.214-.521.29-1.591 1.17-1.789 1.598-1.985 2.013-.394.415-.48.365-.576.201-.916.19-1.295.125h-.605l-1.24-.088-1.154-.29-1.493-.59-2.337-1.448-1.043-.445M399.507 399.204l-5.54 2.804M399.507 399.204l3.002 4.882M399.507 399.204l-3.031-4.879M405.33 353.515l-1.676 1.127-1.148.844-.817.677-2.07 1.764-2.018 1.5-3.98 3.145-5.166 4.26M388.066 372.419l.419-4.772-.03-.814M384.153 361.145l1.583 1.315.94 1.047.873 1.069.558 1.138.348 1.119M388.066 372.419l-5.23 2.796M387.438 379.125l.043-1.48.585-5.226M369.744 373.896l-4.304 4.207M369.744 373.896l4.474-4.54M369.744 373.896l1.656 2.611M366.925 365.65l-.753.66-.286.258-.207.343-.2 1.256-.114.944.046.582.218.488.405.49 1.48 1.203 1.389 1.094.84.928M379.925 402.516l-2.936-4.834M385.286 399.674l-2.696 1.367-1.534.616-.553.3-.578.559M374.202 408.359l1.813-1.876.977-.842.905-.57.987-.782.793-1.047.248-.726M382.813 407.785l-1.132-2.123-1.756-3.146M384.953 393.452l2.93-1.406M384.953 393.452l-2.628 1.224M384.953 393.452l-2.801-4.792M376.147 384.668l.211.331M376.147 384.668l-2.79 1.327M373.14 379.638l.88 1.451.795 1.272 1.332 2.307M376.147 384.668l2.801-1.382M388.393 404.824l5.574-2.816M388.393 404.824l-3.107-5.15M382.813 407.785l1.23-.752 4.35-2.209M401.886 391.54l-2.882-4.963M396.476 394.325l3.031-1.564 1.285-.645 1.094-.576M416.82 391.748l-1.352-.403-.212.026-.137.056-6.941 5.805-.293.174-.193-.029-.145-.097-.176-.296-.9-2.033-.29-.453-.633-.478-.401-.24-1.514-.824-.416-.176-.31-.183-1.021-1.057M378.876 377.056l3.96-1.841M378.876 377.056l-5.735 2.582M378.876 377.056l2.75 4.862M378.876 377.056l-2.02-3.193M345.82 405.293l2.946-3.031M345.82 405.293l3.763 2.996M342.18 402.382l1.86 1.599 1.78 1.312M387.438 379.125l-2.681 1.264M387.438 379.125l.077.332" clip-path="url(#p2275a4c0b6)" style="fill:none;stroke:#000"/><path d="m390.9 377.434-.511.25-2.951 1.441M370.65 387.256l.127.386M370.65 387.256l-2.227 1.327M370.65 387.256l-2.82-4.911M370.65 387.256l2.707-1.26M390.648 333.277l.568 3.033M390.648 333.277l-3.429.502M389.646 327.335l.174 1.12.225 1.435.603 3.387M381.902 382.28l3.095-1.585M381.902 382.28l2.922 4.516M381.902 382.28l-.275-.362M381.902 382.28l-2.717 1.332M387.22 333.779l-.401-2.835M387.22 333.779l-5.779 1.053M387.22 333.779l.486 2.935M387.484 356.094l2.598-2.813M387.484 356.094l-4.308 4.32M387.484 356.094l-2.568-3.652M357.288 451.886l1.477-1.822 2.077-2.19 1.183-1.61 1.21-1.561 1.711-1.819 1.338-1.44 1.88-2.342.52-1.02.306-.662.603-.847 1.33-1.504.96-.986 1.476-1.352.919-.665 3.532-3.042 6.362-6.445 3.483-3.539M398.01 408.383l-3.548 3.575-1.457 1.513-2.974 3.134-.908 1.051-1.468 1.384M378.323 412.509l1.52.943 7.812 5.588M388.925 342.752l3.54-.826M388.925 342.752l-4.775 1.735M388.925 342.752l-.754-3.12M389.841 347.79l-.056-.524-.86-4.514M345.29 399.355l.312-.327 2.687-3.17M351.57 392.937l-1.176 1.095-.697.73-.634.491-.774.604M351.963 399.012l-2.301-1.895-1.373-1.26M379.238 389.511l-2.838 1.44M379.238 389.511l-2.88-4.512M379.521 390.014l.064-.18.002-.074-.027-.082-.075-.092-.103-.04-.144-.035M379.238 389.511l2.716-1.295M381.627 381.918l-2.679 1.368M381.627 381.918l3.13-1.53M383.176 360.415l-8.958 8.942M383.176 360.415l.977.73M383.176 360.415l-3.138-2.68M373.476 409.069l.726-.71M389.646 327.335l-3.188.753M389.228 324.402l.225 1.334.193 1.599M351.57 392.937l3.752 2.795M351.57 392.937l3.282-3.417M380.705 331.893l.736 2.939M380.705 331.893l6.114-.95M386.458 328.088l-6.314.999.561 2.806M384.824 386.796l-2.87 1.42M385.065 387.238l.082-.186-.024-.111-.04-.05-.057-.04-.095-.037-.107-.018M384.824 386.796l5.448-2.58M396.777 341.614l-4.311.312M358.323 392.556l3.414 2.742M358.323 392.556l-3.47-3.036M358.323 392.556l3.22-3.37M358.323 392.556l-3 3.176M330.527 420.629l1.947-.735.566-.353 1.483-1.233 2.236-2.22 2.1-2.032 1.584-1.094 1.972-.965 2.345-.874 2.519-1.081 1.31-.81.994-.943M352.56 405.07l-.526.574-2.45 2.645M358.863 398.752l-.39-.29M358.863 398.752l3.18-3.2M355.763 401.822l.826-.798 2.274-2.272M358.473 398.462l-3.15-2.73M358.473 398.462l-2.052 2.25-.813 1.02M358.473 398.462l3.264-3.164M373.938 392.629l-.24-.33M373.938 392.629l3.05 5.053M373.938 392.629l1.155-.57 1.54-.729M376.358 385l2.827-1.388M376.358 385l-2.781 1.327M361.737 395.298l.305.254M361.737 395.298l2.946-3.087M361.256 382.767l-3.32 3.483M361.256 382.767l3.213-3.58M361.256 382.767l3.646 2.918M381.441 334.832l.552 2.866M384.916 352.442l-4.878 5.293M384.916 352.442l-3.883-5.409M389.841 347.79l-.596.665-4.329 3.987M379.521 390.014l2.63-1.354M379.521 390.014l2.804 4.662M379.521 390.014l-2.889 1.316M361.543 389.186l3.359-3.5M361.543 389.186l3.42 2.732M361.543 389.186l-3.607-2.936M357.936 386.25l-3.084 3.27M421.191 378.245l2.395-.365M399.004 386.577l5.152-2.593 2.016-1.265 2.41-1.495 2.187-1.115 1.833-.666 2.123-.464 2.36-.258 4.106-.476M416.82 391.748l3.055-6.866 1.57-2.719.106-.717-.014-.61-.07-.655-.127-1.145-.149-.79M382.835 375.215l.27-3.285M362.042 395.552l2.97-3.112M398.01 408.383l2.64-2.583 1.86-1.714" clip-path="url(#p2275a4c0b6)" style="fill:none;stroke:#000"/><path d="m430.351 445.05-5.764-6.315-3.278-4.356-9.39-15.168-9.41-15.125M390.52 384.632l2.803 4.753M390.52 384.632l-.248-.416M390.52 384.632l3.161-1.6.513-.269M390.52 384.632l-5.455 2.606M382.325 394.676l-5.336 3.006M382.325 394.676l2.96 4.998M351.963 399.012l3.36-3.28M351.963 399.012l-3.197 3.25M351.963 399.012l3.645 2.72M378.323 412.509l-1.112 1.215-1.845 2.151M393.323 389.385l-5.44 2.66M393.323 389.385l3.153 4.94M393.323 389.385l5.681-2.808M387.884 392.046l3.04 4.955M387.884 392.046l-2.819-4.808M447.291 370.726l-11.426 4.309-2.807.87-2.59.664-2.476.585-2.365.402-2.04.324M405.33 353.515l.932 1.382 1.2 1.618 1.085 1.671 1.284 1.963 1.61 2.08 1.583 1.589.866.84 1.148.838 2.094 1.412.51.34.571.5.67.653.798.865.894.877.567.742.958 1.496.355.859 1.131 4.64M364.902 385.685l2.928-3.34M364.902 385.685l3.521 2.898M365.012 392.44l.234-.235M365.012 392.44l2.617 2.051M365.012 392.44l-.329-.229M386.458 328.088l.36 2.856M390.925 397.001l5.55-2.676M390.925 397.001l-5.64 2.673M390.925 397.001l3.042 5.007M390.9 377.434l.185.31M391.999 377.214l-.51.006-.589.214M385.065 387.238l-2.913 1.422M394.194 382.763l-.224-.346M394.194 382.763l.375-.238.264-.306M380.038 357.735l-2.44 3.188M359.814 342.103l10.332 7.615 7.428 6.141 2.464 1.876M393.967 402.008l.872 1.427 1.075 1.796 1.249 1.844.848 1.308M381.954 388.216l.198.444M364.962 391.918l.284.287M364.962 391.918l-.279.293M364.962 391.918l3.461-3.335M367.83 382.345l5.31-2.707M367.83 382.345l-2.39-4.242M395.978 381.605l.522.879 2.504 4.093M378.323 412.509l1.112-1.14 2.098-1.99 1.28-1.594M367.04 390.414l.525.484 1.613 1.51M365.246 392.205l1.794-1.791M387.515 379.457l.326.68 2.43 4.08M393.97 382.417l-.542.23-3.156 1.57M355.763 401.822l-.155-.09M355.763 401.822l-.31.247M384.153 361.145l-1.048 10.785M436.977 321.887l-2.212 4.59-2.337 3.752-2.563 3.864-1.295 2.694-1.985 2.152-3.549 2.782-2.717 1.863-6.153 3.94-8.836 5.991M370.777 387.642l2.8-1.315M370.777 387.642l2.92 4.657M370.777 387.642l-2.17 1.203M387.515 379.457l3.072-1.491.498-.222M387.515 379.457l-2.518 1.238M357.181 424.717l-1.016 1.238-.957 1.328M367.04 390.414l1.567-1.569M392.466 341.926l-1.25-5.616M391.974 345.982l.648-1.441-.014-1.133-.14-1.1-.002-.382M371.4 376.507l1.21 2.36.53.771M369.434 405.256l.53-.602 1.115-1.43 1.758-1.767.917-.864 1.886-1.907 1.349-1.004M368.607 388.845l-.184-.262M467.463 363.334l11.75-3.245M447.291 370.726l1.164-.438 13.465-5.305 1.951-.653 3.592-.996M467.981 369.212l-.214-2.137-.304-3.74M459.87 353.186l1.964 2.556 2.007 2.939 1.664 2.327 1.153 1.412.805.914M490.53 356.813l-11.317 3.276M594 365.128l-8.185-3.57-1.362-.464-1.203-.278-4.619-.743-2.516-.4-13.487-2.274-11.265-2.058-5.616-.832-4.725-.749-9.946-1.591-9.862-2.072-1.849-.16-.95-.033-2.32.05-.8.066-1.684.294-1.76.434-14.828 4.29-6.494 1.775" clip-path="url(#p2275a4c0b6)" style="fill:none;stroke:#000"/><path d="m518.615 407.28 2.436-3.858 1.155-1.656 1.817-2.599.436-.704.746-1.976 1.584-7.892.254-3.172-.064-1.252-.387-3.197.056-.485.152-.387.39-.82.317-.464.222-.195 1.623-1.13.302-.282.12-.309.057-.428-.057-1.422-.176-1.536-.147-.868-.163-.51-.26-.497-.507-.447-.493-.24-.634-.238-1.76-.693-4.11-1.472-4.591-1.624-2.577-.497-.986-.057-.542.032-.471.157-.331.183-.43.327-.626.46-.627.377-.908.277h-.824l-.57-.107-.67-.296-15.523-9.931-1.319-1.04M208.695 251.437l-15.587-12.8-1.447-1.355-.536-.705M183.672 181.566l.008.941.225 3.122-.183.769-1.45 2.694-.902 3.69-1.323 4.242-1.14 7.076-.184 4.633.226 1.385 3.717 9.165 2.513 8.02.4 2.067-.298.635-.322.557-.108.452-.064.425.06.585.173.573.39.565 4.791 3.19.924.225" clip-path="url(#p2275a4c0b6)" style="fill:none;stroke:#000"/><path d="m213.685 181.627-.875 2.502-11.71 22.785-2.625 5.382-1.36 3.145-1.393 3.151-1.567 4.217-.492 1.435-.345 1.122-2.471 6.344-.24.818-.084.63-.085 1.22.171 1.117.516 1.082M214.805 256.454l-6.11-5.017M248.193 279.853l-8.072-3.732-4.816-2.745-4.599-3.82-15.901-13.102M193.114 267.066l1.478-1.082 1.049-.32 3.598-.31 2.041-.396 2.07-.29 2.549-.301 2.837-1.196 1.05-.819.897-1.193.792-1.992.683-.963 1.133-.906 1.514-.844M133.778 317.836l1.832.057 2.209-.013 1.768-.119 2.203-.674 1.929-.768 1.464-1.271.611-1.18 2.357-6.452 1.496-2.665 7.547-7.49 1.563-1.183L160.67 295l3.466-2.07 1.436-.54 2.535-.592 2.492-1.045 2.577-1.725 1.013-1.07.83-.97 4.915-6.91 2.24-3.098 4.73-4.733 6.21-5.181M213.397 314.053l-8.596-8.182-5.119-4.739-2.26-2.033-2.337-2.971-.592-.92-.88-1.812-.725-2.329-.358-2.561.26-3.708-.212-3.424-.154-3.19.95-8.423-.014-1.567-.246-1.128" clip-path="url(#p2275a4c0b6)" style="fill:none;stroke:#000"/><path d="m125.689 385.933-.145-.094-3.523-3.354-3.872-3.632-2.162-1.768-.901-.466-1.105-.164-2.845.107-1.654-.378-1.352-.994-2.126-1.932-.598-.988-.86-2.605-.056-1.259.423-1.196.788-2.316-.099-1.611-.647-3.41-1.126-2.002-2.366-3.235-.676-1.46-.056-1.41.415-.642.76-.585 2.07-.522 2.598-.133 3.492-.088 1.978-.358 1.07-.448 1.38-1.403 1.232-2.159 2.676-7.433 2.056-6.11 2.056-5.344.76-1.473 1.26-1.995 2.239-2.122 1.957-1.485 1.746-1.214 1.359-.34 1.943-.076M317.642 423.081l.379-.162 1.694-.615 2.84-.633 2.46-.245 2.936-.205 2.576-.592" clip-path="url(#p2275a4c0b6)" style="fill:none;stroke:#000"/><path d="m316.614 447.838-.617-2.842-.095-.737.118-.599.778-1.172.836-1.108 2.427-2.205 2.159-1.517 1.37-1.124 2.2-2.025 1.193-1.585.172-.541.018-.822.006-2.041.308-.764.664-1.114 1.37-2.857.262-.642.296-1.57.448-1.944M254.952 473.072l.046-.919.451-1.458.957-1.473 1.444-1.27 1.741-.938 3.842-2.033 3.627-2.276 3.713-2.431 4.576-3.628 3.49-3.297 2.75-2.903 1.892-1.936 1.673-1.56" clip-path="url(#p2275a4c0b6)" style="fill:none;stroke:#000"/><path d="m317.642 423.081-1.722.738-2.485.66-2.884.335-3.569.214-1.353.193-1.51.476-1.325.785-.92.814-.776 1.099-.658 1.676-.447 2.625-.72 1.889-1.021 1.947-1.757 2.173-1.827 2.24-1.88 1.952-1.78 1.35-2.216 1.067-1.75.716-1.888.92" clip-path="url(#p2275a4c0b6)" style="fill:none;stroke:#000"/><path d="m260.841 429.084 1.268 2.945.985 2.593.648.654 8.336 5.337 3.45 2.126 6.223 2.908 3.403 1.303M221.172 498.75l6.729-2.508 5.4-2.017 1.777-.992 1.2-.847 1.538-.947 1.506-.529 3.125-.842 3.702-1.098 3.853-1.324M254.952 473.072l-.039.812.132 2.094-.046 1.964-.374 1.955-.915 2.642-.79 2.215-.793 1.273-.917.86-1.208.76" clip-path="url(#p2275a4c0b6)" style="fill:none;stroke:#000"/><path d="m246.88 512.383.719-2.083.134-1.101-.127-.85-.29-.654-.682-.912-3.252-4.065-1.824-3.404-.275-1.277.092-.843.514-.932 3.527-3.567 3.636-3.514.95-1.535M134.95 524.106l5.947-2.134 4.247-1.07 4.84-1.205 4.06-1.17 4.086-1.891 3.224-1.415 7.967-2.908 5.504-2.147 5.382-1.8 3.945-1.355M221.172 498.75l-2.759 1.03-9.227 3.697-3.687 1.308-2.858.444-2.87-.1-2.808-.153-1.515-.096-2.72.013-3.238.116-2.418.604-2.92 1.398M227.273 563.395l-.662-.553-6.899-3.51-2.816-1.209-1.352-.667-6.266-5.763-2.703-2.353-1.789-1.862-1.675-2.29-2.352-3.436-1.253-1.837-1.21-1.233-2.704-1.875-1.774-1.233-1.394-1.334-4.267-6.09-.464-1.322-.76-4.567-.803-2.391-1.606-4.493-.253-1.573-.112-4.819-.007-1.974M116.684 529.503l3.064-.932 6.203-1.749 5.251-1.66 3.749-1.056M173.4 603.533l-2.027-2.837-2.59-3.165-.782-1.296-1.12-3.227-1.07-2.976-.33-.654-.437-.623-3.95-4.586-2.175-2.976-.57-.654-1.366-1.359-.422-.654-1.38-3.202-2.05-5.046-.386-1.334-.697-2.535-1.507-4.215-1.345-2.756-1.541-1.818-1.662-2.095-.852-1.208-.866-1.397-.626-1.995-.74-2.158-.556-4.058-.964-3.347-.704-2.78-.296-1.687-.085-.9-.31-.78-1.696-3.328-1.127-2.567-1.506-3.17-.714-2.044M395.978 381.605l-1.145.614M401.953 378.747l-3.236 1.541-2.739 1.317M394.833 382.219l-.454.026-.409.172M389.841 347.79l1.488-1.21.645-.598" clip-path="url(#p2275a4c0b6)" style="fill:none;stroke:#000"/><path d="m390.082 353.28 2.652-2.745.06-.316-.091-.558-.246-.812-.298-1.205-.15-.932-.035-.73M390.082 353.28l.38-1.969.301-2.258-.102-.376-.408-.474-.412-.413M342.18 402.382l3.11-3.027M323.894 398.438l.26-.743.05-.32-.183-.788-.338-.85-.014-.616.113-.403 2.78-3.07.459-.29.429-.044.908.226 1.683 1.202 2.224 2.027 1.88 1.447 4.717 3.53 3.318 2.636M352.56 405.07l-3.794-2.808M355.453 402.069l-1.752 1.905-1.142 1.096M348.766 402.262l-3.476-2.907M365.44 378.103l-.971 1.083M374.218 369.357l1.938 3.31M391.216 336.31l-3.51.404M387.706 336.714l.465 2.919M387.706 336.714l-5.713.984M388.171 339.633l-5.598.953-.58-2.888M371.4 376.507l5.457-2.644M376.857 373.863l-.701-1.197M408.604 377.846l-1.434-2.404M374.202 408.359l-4.768-3.103M369.434 405.256l-9.184 9.54M287.876 590.208l-.43.201-1.682.498-3.33.792-1.33.025-2.415-.421-6.147-1.824-1.88-.623-.78-.1-1.008.106-2.288.365-1.253-.063-1.246-.138-1.084.069-1.007.17-3.816 1.296-.975.27-.584.016-.99-.123-1.576-.409-1.585-.616-1.619-.49-1.267-.158-.993.012-1.52.453-1.993 1.032M234.138 587.044l2.506.063.753.157 1.767.585 2.746 1.233 3.168 1.466M292.776 586.069l-1.485 1.258-1.964 1.63-1.45 1.251M305.906 603.042l-.76-.648-3.154-2-1.767-1.491-1.781-1.705-3.69-2.781-3.153-2.686-.852-.566-2.07-.655-.803-.302M320.374 549.403l-.619.22-.76.604-.395.434M292.776 586.069l.704-.328.592-.112 3.168-.076 1.872-.013 3.971.246.768-.195.591-.334L305.59 584l2.93-2.586 2.323-1.736 1.246-1.17.549-.63.281-.86.233-1.423.697-2.227.162-.95.232-2.454.395-3.164.88-4.26 1.33-5.133.817-2.492.5-1.894.436-2.359M301.619 554.273l4.21-1.12 2.548-.516 5.098-.894 1.788-.578 1.803-.39 1.534-.114M341.177 540.607l-1.097.044-3.809.158-1.351-.095-1.162-.056-.64.037-.88.24-1.458.855-1.95 2.039-3.598 3.687-1.478 1.51-1.183.453-.732.056-1.465-.132" clip-path="url(#p2275a4c0b6)" style="fill:none;stroke:#000"/><path d="m301.619 554.273 2.126-2.391 1.76-2.542 1.387-1.919 2.147-2.668.514-.475.233-.128.894-.306.95-.578.352-.136.387-.034 1.324.242 1.947.23.302.1.542.397 1.102 1.513.95 1.635 1.148 1.448.69.742M376.27 554.048l3.405.853 2.429.152 2.108.43 1.82.403.965.19.979.103 1.788.132 2.256.047 1.07-.06 1.415-.232 1.479-.52 1.598-.629 1.317-.657.63-.374.313-.174.324-.11.545-.037 1.26.022.76-.076 1.388-.478 4.998-1.969M428.526 484.571l-.224.535-.422 1.467-.219 1.214-.091.799-.077.579.02 1.447.085.843.465 1.548.183 1.007.563 3.46-.126.913-.141.623-.803 3.447-.228 1.08-.064.969.035 1.535.187 1.39.457 2.552.127 2.083-.095.88-.207.881-.113.453-1.032 3.43-.503 2.478-.909 3.16-.112.757-.042.676.014.447.472 4.85-.071 4.965-.166 2.265-.179.563-.31.67-.355.479-.56.512-1.69.869-.753.418-.401.28-.38.33-.764.77-1.486 1.52-1.035.812-.397.226-3.028 1.152-.598.29-.634.5-2.387 3.186-.724.723-.69.46M401.678 569.457l-.505-.016-.448-.066-.359-.16-.26-.277-.155-.333-.02-.435.111-.384.916-1.578 1.253-2.341.408-1.378.88-5.637.141-.453.45-.825.543-.93.732-1.02.803-.918.563-.453 2.386-1.189M441.03 457.004l12.498 13.39M441.03 457.004l-10.679-11.955M428.526 484.571l.332-.792 1.211-2.354 1.395-2.397 3.35-9.187 1.296-4.644.873-3.209.578-1.655.429-.912.444-.598.45-.484.57-.435 1.576-.9M414.42 592.944l1.311 2.31.69 1.415.043.239-.158 4.127.06.749.143.384.17.301.344.29.264.05.332-.056.366-.233 1.197-1.218.929-.72.57-.295.612-.17.5-.1.497-.042.63-.022.609-.05.398-.126.528-.255.7-.6.557-.523.471-.588.14-.336.145-.504.134-.204.134-.151.63-.632.732-.755.88-1.045 2.084-2.9.993-2.428 1.358-3.781.043-.453-.162-.315-.257-.267-.36-.135-.362-.101-.514-.189-.387-.276-.204-.25-.233-.436-.133-.598-.141-1.18-.042-.648.025-.446.098-.346.166-.324.26-.717.021-.485-.035-.62-.12-.367-.194-.589-.063-.267.007-.488.064-.393.214-.642.789-1.6.306-.78.37-1.546.183-.414.355-.583.232-.264.722-.475.634-.34.296-.399.18-.368.126-.453.01-.633-.091-1.374-.014-1.048.084-.698.127-.484.613-1.419.429-1.07.792-2.566" clip-path="url(#p2275a4c0b6)" style="fill:none;stroke:#000"/><path d="m428.084 556.933.37-.015.806.031.654.067.894.226.817.233.834.21.983.148.932.067 1.567.05 1.306.079M445.658 550.915l-.258.407-.486 1.362-.546 1.9-1.091 2.325-.542 1.082-.486.827-.355.33-.423.139-.37.035-.44-.107-.513-.193-.592-.28-.63-.349-.764-.267-.915-.097M404.07 597.116l1.125 1.12.91.648.731.27 1.24.082 1.062-.138 1.43-.554.957-.56.965-.994.584-.93.542-1.36.48-1.088.324-.668M401.678 569.457l.642.377 1.148.582 1.108.67 1.789 1.199 2.228 1.324.989.667 1.197.997 2.161 2.331.394.535 1.106 2.35.183.73.042.823v.623l.387 5.618-.028 1.31-.415 2.597-.189.754" clip-path="url(#p2275a4c0b6)" style="fill:none;stroke:#000"/><path d="m428.084 556.933-.363.014-.608.084-.891.264-.743.293-1.577.913-2.232 1.521-.626.394-1.65.749-.776.349-.647.428-2.556 1.868-.722.44-.964.466-1.211.44-5.618 1.41-.577.201-.472.252-.634.44-.753.522-.781.479-2.005.997M484.724 516.427l2.299 4.289 1.292 2.938.807 2.32" clip-path="url(#p2275a4c0b6)" style="fill:none;stroke:#000"/><path d="m445.658 550.915.073-.115.397-.485 2.109-2.079 3.076-3.844 1.215-1.429.714-.707.553-.428.722-.428 1.39-.591.719-.428.573-.437 2.2-2.45 1.574-1.62.464-.37.574-.374 2.066-1.075 2.025-.903 1.116-.45.957-.33 1.116-.287.841-.132 2.5-.27 5.002-.554 1.08-.1 1.099-.243.852-.327.679-.45.482-.447 1.341-1.444.363-.28.55-.308.65-.261.56-.17.613-.148.88-.233 2.339-.745M532.86 217.484l.188.125.422.177 2.648.893 4.055 1.007 2.45.592 1.675.693 1.676.894 4.463 1.863M586.482 237.996l-.393 2.514-.957 1.674-2.647 1.625-5.872 1.75-2.421.087-4.365-1.787-1.31-.692-1.338-1.222-2.217-2.625-1.88-1.939-.71-1.026-.945-2.688-.816-1.133-2.345-1.548-1.238-1.718-2.676-3.035-1.352-1.158-2.563-1.347M555.323 195.55l-.21.568-.155.541-.113.529-.564 4.029-1.07 7.49-.718 4.017-.591 3.374-.07.542-.31 1.271-.24 1.171-.084.554-.324 3.085-.183.516-.254.49M466.855 180.26l.232-.303.578-.056 6.378.088 3.563-.05.584.283 1.344 1.284 1.76 1.895 3.155 1.284M532.86 217.484l-.319-.215-2.563-6.37-.774-1.713-2.62-3.009-2.076-2.87-1.415-1.329-1.57-.944-3.154-.78-4.604-1.694-2.803-1.75-1.21-.862-1.225-.523-3.478-1.618-3.126-2.404-3.873-2.764-6.667-2.45-6.934-1.504" clip-path="url(#p2275a4c0b6)" style="fill:none;stroke:#000"/><path d="m583.519 186.843-1.013-1.103-.912-2.318-.934-1.216-.96-.797-.229-.516.039-.816-.247-.908-1.007-.694-.259-.669-.201-.9-.403-1.286v-1.183l.46-3.06.03-.289-.678-1.312.353-1.114.47-.34-.519-1.465-.064-.983.147-.877.693-1.131.747-2.29-.431-1.208-1.438-4.707-1.582-2.418-2.088-1.811-3.027-1.171-1.507-.363-2.145-.035-.829-2.602-1.104-.345-1.783-.772-3.394-1.775-3.28-1.569-2.3-1.595-2.215-2.571-2.2-2.817-3.32-2.908-.635-2.52-.432-.642-.474-1.556-.705-1.66-1.706-1.572-4.076-2.299-2.545-1.132-2.157-1.286-1.31-.44-2-.08-2.025-.427-4.295-.55-3.332.27-3.703-.05-2.391.314-2.1.552h-2.617l-1.417.621-.97.203-.817.666-.75.966-1.44.695-.876.026-.403-.18-.273-.785-.403-.219-2.733-.553-.761-.386-.788-.132-1.164.294-1.795 1.168-.666.663-1.676 1.174-1.544.936-1.352 1.525-.439.788-.42 3.6.09 1.082.286 1.027-.16 1.036-.972 2.18-.431 2.934-.179 4.743-.586 4.509.125 1.013-.24.964-.536 1.013-.678.73-1.258.932-.35.402.16.411.365.407.765.614 2.458 2.494.657 1.011-.184 1.774-1.86 9.322-.175 3.759.259.98.505 1.093.33 1.09-.135.81-1.62 3.078-.823 2.308-.563 2.068M442.247 299.393l-1.624-4.618-.909-5.634-.31-5.306.402-5.545.866-5.3 4.57-10.109 3.435-8.321.324-1.146.296-5.136v-2.015l-.444-1.523-1.514-2.543-1.14-2.443-1.225-1.938-1.472-2.613-1.14-2.058-1.915-5.086-.43-2.254.465-1.347 2.133-3.185.746-1.039 1.556-1.196 1.838-1.184 2.506-2.694 1.964-3.38 3.035-3.6 2.358-2.412 4.337-3.594 2.718-2.519 2.309-3.764 1.95-5.25.12-2.097-.345-2.713-.852-5.571M424.92 166.72l.446.155.82.052.814-.047 2.551-.147 1.755.105 5.383 2.516 4.93 2.159 1.355.92 2.605 1.678 2.547 1.138 2.477.983 3.933 1.335 1.71.638 1.477.041 1.374.103.977.252 1.2.56 1.027.386 1.47.212 2.588.202.496.299M442.247 299.393l.171.486-.064 1.989-1.548 5.212-.507 7.452-.901 2.757-2.421 4.598" clip-path="url(#p2275a4c0b6)" style="fill:none;stroke:#000"/><path d="m424.92 166.72-.748.541-.92.849-1.554 1.8-4.372 3.087-3.077 4.938-1.841 2.83-2.128 3.909-2.675 4.038-.777.874-2.992 2.083-1.035 1.054-1.467 2.187-1.755 3.009-.345 1.157-.143 1.157-.317 1.08-.834.927-4.717 3.754-2.56 2.29-2.301 1.826-1.035.668-3.366 1.698-5.235 3.523-2.691 1.472-1.704.692-1.013.793-.69 1.184-1.268 2.983-1.239 1.536-3.993 3.839-1.15.849-2.503.591-3.854 3.112-5.868 2.906-1.035.669-1.056 1.16-.754.579-.887.37-1.534.297-1.177.345-1.122.566-1.064.9-.883 1.027-.435 1.368.038.956-.112 1.397.067 2.471.611 1.123.958.63 1.633-.202.93.038 3.83 1.22 4.383.925 2.549.87 1.827.882 1.13.995 3.003 3.478.945 1.414.218.842 1.394 8.094-.172 1.409-.401.64-1.17 1.265-.334.761-.099 1.758.297.863 1.708 2.2 1.049 1.303 1.023.86.963.433 1.281.392 2.562.442 3.415.912 2.83.95 3.353 1.453 2.114 1.46 1.69 1.638 11.382 9.3 3.704 3.179 3.923 4.36 2.17 2.218 1.82 1.365 1.922 1.037 2.154.99 2.72 1.523 3.396 2.306 7.155 5.51 1.48.979 1.713.72 7.119 1.291M583.519 186.843l.155.648.765 1.302.808 1.769 1.206 3.02 1 2.134.234 1.087.247 2.726.541 2.476.558 1.385.55 1.055.695.707.953.733.664.746.194 1.03.03 1.298.707 3.81.781 2.569-.019 2.286-.777 2.919-.518 2.413-.754 2.921-1.932 3.708-1.665 2.682-.785 1.643-1.272 2.309.178 1.492.42.285M483.473 353.365l.655-.432.595-.333 5.125-2.017 5.872-2.98 9.998-4.447 6.857-3.185M479.213 360.089l.118-.733.197-.522 2.059-3.304.623-.856.591-.68.672-.63" clip-path="url(#p2275a4c0b6)" style="fill:none;stroke:#000"/><path d="m479.144 350.41 1.617.202 1.424.116.485.492.803 2.145M442.247 299.393l2.375-3.983 4.35-3.625 1.733-.755 2.055-.227 1.394-.327 1.24-.844 2.59-3.55 2.732-3.764.915-.705 2.042-.705 3.267-.528 4.055-.44 2.647.2 1.605-.289 1.873-.793 4.717-3.827 2.647-2.48 2.351-.554 2.69.667 4.04 1.637 2.507-.554 6.224-2.216 1.042-.982-.17-1.284-.196-4.507.253-3.046 1.155-2.115 2.562-4.098.247-.907-.247-2.045.127-1.8-.493-1.398-2.253-6.093-.295-2.959.788-3.953 2.746-5.237.31-.957.24-2.92.718-1.5 1.365-.59 2.83-.416 1.62-.667 4.914-.819 3.294-1.36 5.013-1.41 1.507-.188 1.816-1.524 1.672-1.472M203.003 395.047l-.498.2-2.196 1.378-3.69 3.273-3.533 2.277-.824.397-.542.145-.817-.02-2.126-.112-4.985.144-2.506.227-1.239-.29-2.549-1.057-2.351-1.271-.93-.34-3.435-.591-4.943-1.385-3.35-.742-1.155-.453-2.83-1.863-2.317-1.945-.852-.472-1.95-.403-5.583-1.371-3.478-1.209-2.415-1.076-1.577-.497-2.182-.333-1.661-.429-1.88-.667-1.915-.308-2.542-.504-1.116-.154-1.44.104-1.721.224-.186.009M373.577 386.327l-.22-.332M379.185 383.612l-.237-.326M384.997 380.695l-.24-.306M252.628 422.339l.948.49 6.069 5.01 1.196 1.245" clip-path="url(#p2275a4c0b6)" style="fill:none;stroke:#000"/><path d="m265.652 423.632-1.023 1.286-3.788 4.166M295.81 555.518l-.802.869-.268.396-.161.629-.177.547-.443.692-.296.604-.33 1.542-.247.9-.662 1.277-1.478 2.51-.408.906-.163.855.085.85.563 1.824.655 1.806.472 4.825.316 3.775.36 2.384.014 1.34-.064 2.02M159.954 456.325l2.942-.371 3.605-1.372M201.95 480.497l-.217-.327-.95-.767-2.045-1.568-1.444-1.66-1.605-2.228-.796-.411-1.57-.034-3.398.107-1.584-.035-3.202-.646-2.277-1.067-2.469-1.632-2.58-1.397-1.436-.553-.783.015-2.179.196-2.597.009-.978-.235-.685-.281-.463-.294-1.148-1.227-.369-.334-1.948-.524-.436-.525-.556-1.384-2.849-5.093-1.045-1.362-.387-.915M295.81 555.518l1.683-.15 4.126-1.095" clip-path="url(#p2275a4c0b6)" style="fill:none;stroke:#000"/><path d="m281.511 500.692.388.41.62.937 1.394 2.044 2.386 2.719 3.19 3.724.295.453.092.422-.029.547-.197.453-2.111 2.429-1.296 2.322-1.218 3.064-.542 1.812-.232 1.422.084 1.007.317 1.227 1.034 2.201 1.648 2.04.718.949.599 1.246.302 1.655.36 1.811.126 2.744-.088 2.048.07.878.258 1.12 1.196 3.529 2.352 4.744.45.723.226.705.52 1.642.451.944.514.553.423.302M246.88 512.383l.923-.026 2.02-.497 1.528-.276 1.387.012.626-.145 1-.453 2.14-1.315 1.423-.49 2.886-.705 1.803-.982 1.534-.767 2.725-1.454 2.183-1.604 2.703-1.473 1.408-.641 2.07-.894 2.203-1.215.219-.05.553.057 3.297 1.227M293.424 497.288l-2.155-.635-.37-.18-.545-.45-.443-.286-.732-.211-.564.031-.654.183-1.648.818-3.013 2.284-1.789 1.85M232.131 572.373l3.246-3.353 1.52-1.699.902-1.372.978-3.22.05-.995-.353-1.572-1.203-3.366-1.042-2.675-.894-3.39-.332-2.643-.267-.938-1.563-2.705-1.64-1.862-1.507-1.818-.76-1.56-.226-.995-.035-1.107.584-1.372.993-1.088 4.563-3.819.865-.692 2.007-1.31 2.224-1.414 1.458-1.215.908-1.24.486-1.85-.057-1.207.106-1.85.26-1.422.41-.761 1.217-1.775 1.852-3.705" clip-path="url(#p2275a4c0b6)" style="fill:none;stroke:#000"/><path d="m231.589 577.394.091-1.7.451-3.321" clip-path="url(#p2275a4c0b6)" style="fill:none;stroke:#000"/><path d="m227.273 563.395.733 1.145.38 2.743.394 1.397 1.788 2.39 1.563 1.303M231.589 577.394l-.88 2.421M234.138 587.044l.422-3.831-.148-3.549-.225-.78-.507-.616-.394-.27-1.697-.604" clip-path="url(#p2275a4c0b6)" style="fill:none;stroke:#000"/><path d="m228.56 588.02 3.522.836.669-.038.52-.214.303-.44.564-1.12M188.594 589.395l-2.161-1.257-.951-.182-.52.05-1.325.573-5.308 3.227-.732.604-1.028 1.183-.486.78-.197.66-.14 2.435-.254 3.825-.24.61-.57.66-1.281.97M188.594 589.395l.225-.313.542-.535 5.252-2.793 3.288-2.189 1.246-1.743 1.035-2.18.144-.327.025-.358-.204-4.023.268-.963.21-.277.444-.251 6.76-2.498 9.278-3.712 10.166-3.838" clip-path="url(#p2275a4c0b6)" style="fill:none;stroke:#000"/><path d="m230.709 579.815-.268 1.057-1.577 5.788-.304 1.36M217.502 579.45l3.097-.515 2.605-.038 3.83.176 3.675.742M367.079 550.575l-.556-.537-1.506-1.27-2.992-2.687-2.985-2.265-1.915-1.661-.535-.252-1.662-.402-2.696-.447-4.295-.522-1.38-.057-1.936-.006-3.444.138M348.162 529.358l-.675 1.088-1.612 1.265-1.564 1.17-.76.63-.31.433-.105.309v.83l-.035 1.07-.155.554-.317.528-.747.843-.203.428-.502 2.101M203.003 395.047l1.868-.75 1.239-.164 1.746.088 3.351 1.032 1.93.768 3.477 2.341 3.365 3.084 3.788 3.587 2.591 1.686 4.041 1.951 2.183.541 3.365 1.284 2.802 1.649 1.112 1.535.606 1.724.957 1.939 1.493 1.61 1.52.92 1.55.667 6.251 1.598.39.202M265.652 423.632l-6.014-1.816-2.243-.862-.102-.025-.116.006-.454.217-.183.044h-.173l-.595-.21-1.355-.856-.197-.038-.134.034-.45.479-.644 1.035-.364.699M273.965 413.956l-3.006 3.587-3.577 3.914-1.73 2.175M345.4 331.329l14.414 10.774M345.4 331.329l-7.655-5.576M290.516 362.069l1.17.63 3.801 1.34 1.57.861.873.404.795.107 2.62-.278 1.196-.54L304 363.27l1.429-1.422.57-.27 2.69-.78.345-.221.76-.85.12-.478.154-1.466-.169-1.246-1.19-3.286-.042-.629.324-.9 1.035-2.316 1.873-2.55.485-.484 1.162-.918 2.485-1.486 1.092-.384.936-.176h1.669l3.597-.12.81.1 2.598.492 1.204-.164 2.612-1.019 1.063-.309.725-.535 5.259-4.31 2.16-1.72 2.202-1.753 2.128-1.695 1.315-1.046M376.156 372.666l2.688-1.327.704-.139.655.063 2.902.667M376.632 391.33l-.232-.378M376.4 390.952l-2.002.97-.7.377M357.181 424.717l.556-.865.682-1.754.675-5.57.317-.874.84-.859" clip-path="url(#p2275a4c0b6)" style="fill:none;stroke:#000"/><path d="m357.181 424.717.475.097.232-.04.458-.296 2.77-2.747 1.666-1.712 1.323-1.23.06-.104.01-.189-.077-.15-3.848-3.55M201.95 480.497l.147-.006.539.251 5.452 3.534.867.359.633.1.915-.031 1.31.2 2.478.743 2.302.36 1.458.578 1.717 1.208 2.62 2.19.724 1.29.677 1.39.077.384-.106.68-.274.578-1.078 1.259-1.327 1.4-.21.365-.022.274.07.424.253.724M196.627 481.312l2.112 1.208.556.132.634-.15.507-.485 1.323-1.46.19-.06M212.974 352.597l-1.003-.047-.18.031-.27.135-.708.774-1.063.718-.324.094-1.165.013-.905-.06-.426.041-.401.173-.253.261-.433.856-.409 1.416-.352.51-2.07 1.944-.591.888-.36 1.051-.231.8-.159.22-.373.261-1.51.689-.507.478-1.845 2.285-2.71 3.253-3.738 3.896-3.492 4.305-.282.598-.07.44.197.428.324.327 2.168 1.234 2.626 1.888 2.154 1.435 2.62 1.403.26.227.296.428.443 1.145.817 1.177 1.415 1.277.443.529.127.447-.042.818-.317.793-.014.535.098.642.366.604.599.553.437.29.842.247M355.453 402.069l.155-.338M254.952 473.072l6.044.055 3.322-.084.226.01 4.294.997.291.112.629.476 1.512 1.65.689.699.248.138.689.35M484.724 516.427l-4.415-8.235-6.678-12.475-2.398-4.048-2.513-3.82-3.51-4.273-6.036-6.568-5.646-6.613" clip-path="url(#p2275a4c0b6)" style="fill:none;stroke:#000"/><path d="m554.376 486.507-.25-.158-.555-.651-.514-.579-.522-.812-.813-1.183-.791-.843-1.648-1.542-3.027-2.485-3.556-3.159-1.33-.824-4.496-1.7-2.221-1.015-6.062-2.306-15.26-6.356-.57-.1-.433.04-.443.18-.352.302-.95 1.246-3.176 4.474-1.992 2.775-.17.182-2.689 1.372-1.52 1.18-.567.352-.518.139-.528-.041-.764-.236-.566-.158-.416-.006-.32.085-1.668.523-.504.044-.482-.092-.341-.195-.356-.34-1.373-2.498-.31-.44-.43-.337-.457-.255-.457-.166-1.2-.234-.796-.27-.522-.336-.404-.5-.51-.78-.54-.744-.633-.49-.718-.35-.479-.126-.376-.05-.416.01-.62.12-.95.185-.616.019-.485-.063-.831-.151-.887-.085-.873-.007-.416.029-.37.047-3.755.639-1.08.116-1.582-.078-2.108-.431-1.482-.363-.778-.355-.637-.368-.472-.456-.605-.67-.31-.198-.338-.057-.317.006-.33.06-.374.107-.299.003-.75-.104-.852-.173-2.756-.308-.764.04-.436.102-.666.273-.535.318-.598.453-.324.302-.232.277-.388.654-.229.498-.084.251-.531 1.517-.247.45-.387.396-.563.346M417.489 459.175l.182-.276.986-1.183.76-1.297.225-.566.536-1.472.155-.529.704-1.535.338-.541.323-.517.747-.918.478-.365 2.07-1.372 1.338-.931 1.76-1.032.493-.315.845-.667.922-.61M391.085 377.744l2.885 4.673M391.085 377.744l.537-.274.377-.256M407.17 375.442l-2.708-4.544-10.995 5.61-1.468.706M618.256 442.919l-.14-.11-.345-.17-3.14-1.303-1.387-.447-.796-.207-.598-.12-.577-.082-.387.026-.36.056-1.95.516-1.83.258-2.197.107-.408.025M518.615 407.28l-.563 1.145-.183.579-.133.648.035.73.26.673.43.674 1.428 1.352.86.542.872.402.902.164 2.9-.12 5.288-.069 1.154-.176.648-.132.563-.088.437.006.542.057.486.157.506.321.627.453 2.168 2.221.409.491.633 1.202.838 1.397.345.478.416.435.577.547.514.371 2.372 1.102 1.394.818 1.627 1.057 1.985 1.573 3.14 2.045 5.54 3.285.965.428.444.113.627.082 1.034-.025.67-.019.577.019.563.094 1.19.422 2.823 1.517 3.055 1.736 1.14.516 1.86.51.851.145.507.132.45.182.571.322.704.402 1.711 1.107 2.675 1.536 4.02 1.624 2.274.647 1.127.227 1.478.063 1.162-.126 1.936-.226 7.364-.825 4.73-.755M606.526 447.424l.598-.573.427-.438.043-.592-.129-.476-.554-.44-.577-.304-.448-.363-.32-.553-.192-.496-.427-.706-.49-.477-.316-.538M416.82 391.748l-.17.554-.126.472-.07.981-.029 1.517.078.522.225.334.458.233 23.986 7.174 3.703 1.051 2.436.516 4.731.516 1.633.252 1.796.144.64.145 1.388.378 1.541.308 3 .384 3.864.428.62.076 1.577.03 1.38-.112 1.324-.227 1.767-.56.464-.138.486-.07.592-.031.443.025.61.11.858.236.71.123 3.486.173 2.253.066.616-.085.55-.167.756-.255.229-.07.362-.024.56.025.563.082.581.138.627.114.693.006.525-.053.676-.202 1.267-.472.257-.07.43-.06.527-.012.405.05.683.13 1.457-.01.778-.085 2.838-.598 1.277-.418.61-.255.64-.402.87-.771.975-1.051.19-.183.278-.21.359-.262 1.848-1.29.278-.18.25-.128.584-.274.641-.233 1.351-.512.476-.215.725-.44 1.725-1.338 1.454-1.434 1.26-1.618 1.133-1.736.45-.746.153-.186.2-.198.254-.155.207-.088.194-.072.169-.04.25.006.267.053.366.173.338.217.215.195.197.306.155.361.05.353-.1 2.02-.133.724-.092.37-.014.29.078.428.33.862.613 1.75.148.73.45 2.114.085 1.07-.099.819-.894 3.133M618.256 442.919l.571-1.13.556-1.073.807-1.035 1.562-1.46 1.06-.783.341-.195.472-.16.63-.17 1.285-.444.993-.564.549-.528.088-.286-.007-.532-.109-.41-.067-.235-.134-.28-.704-1.599-.254-.673-.105-.61-.162-6.47-.12-.956-.12-.384-.316-.686-.62-1.038-.338-.705-.105-.409-.021-.383.02-.397.114-.315.28-.276.417-.265 3.843-1 6.534-.988M635.794 414.705l.141.422.014.453-.12.327-.26.34-.373.233" clip-path="url(#p2275a4c0b6)" style="fill:none;stroke:#000"/><path d="m637.27 416.238-.892.071-1.182.17M635.794 414.705l1.475 1.533M629.48 408.947l.872.78 3.506 2.99 1.253 1.113.528.592.155.283M630.475 396.87l.057.211-.014.227-.511 1.897-.373 2.637-1.289 4.714.008.365.126.597.212.472.788.957M621.91 407.009l1.592.742.535.277 1.183.516 1.816.39.648.025.591.026h.634l.57-.038" clip-path="url(#p2275a4c0b6)" style="fill:none;stroke:#000"/><path d="m614.169 366.978-1.418.736-.901.434-.55.346-.217.327-.113.403.05.365.183.39 2.83 2.776.788.617.472.453.303.453.218.465.126.51.07.522.022.41-.225.774-.078.314-.154 2.946.14 3.096.134.755.267.61.198.466.246.315.416.27.704.284.493.295.387.435.387.648.317.579 1.527 2.8.346.466.915.856 3.027 1.813.816.528.923.548 3.421 1.573.134.12.102.195M594 365.128l.444.193 3.09 1.43 2.014.723 1.407.385 1.943.34 1.424.144 1.774.006 1.727-.163 3.476-.599 2.87-.61M636.096 491.131l-1.316-.557-3.787-2.655-.95-1.095-.698-.868-2.105-1.693-5.217-3.85-2.034-.92-3.541-1.063-3.359-.714-.623-.082-.535-.01-.415.023-.468.047-1.599.202-.81.056-4.343.126-.754.12-.661.132-.55.213-.964.485-.767.51-.986.88-1.964 2.247-.648.516-.971.421M562.744 505.461l.394-.239.528-.34.507-.27.62-.195.528-.114.718-.031.704-.082.598-.144.43-.177.366-.276.521-.56 1.887-3.933.26-.34.43-.566.443-.415.465-.384.627-.422.964-.51 2.19-1.132.922-.673 2.351-2.41 2.324-2.234.64-.484.669-.472.753-.428 2.908-1.309.768-.296.9-.264.817-.17 1.31-.176.88-.126 1.007-.358.704-.359 2.323-1.504.83-.466" clip-path="url(#p2275a4c0b6)" style="fill:none;stroke:#000"/><path d="M594.073 465.644v1.6989999999999998l-.042.567.056.54.24.504.282.49.253.492.197.528.043.58-.1.578-.844 4.858v.59l.028.542.24.516.323.491.69.818.62.969.169.83v1.133l-.07.579-.127.654M554.376 486.507l1.835.887.32.23 1.75 1.767.182.243.152.32.419 1.253 1.098 2.73.236.589.105.682.022.727.348 3.307.204.786.673 1.954.327 1.198.697 2.281M534.076 520.669l2.372.163 1.627.057 1.422-.057.655-.207.978-.762 3.746-3.668.591-.516 2.746-1.9 4.773-2.957 1.268-.68.556-.176.852-.22.852-.371 1.393-.856 4.08-2.533.356-.267.4-.258" clip-path="url(#p2275a4c0b6)" style="fill:none;stroke:#000"/><path d="m484.724 516.427 1.083.253 4.302 1.252.514.1 8.829 1.385.352.056.464-.006 1.676-.189 2.098-.182 2.999-.277.782-.038h.675l.824.12.887.27 2.725 1.397 3.999 2.209 1.197.49 1.19.36 1.203.093 1.035-.1 5.175-1.315 3.689-1.215.591-.132 1.043-.176 1.471-.1.55-.013" clip-path="url(#p2275a4c0b6)" style="fill:none;stroke:#000"/><path d="m549.55 535.914-1.802-3.31-.493-.893-.028-.541.014-.554.113-.554.169-.528.056-.566-.042-.542-.253-.478-.465-.377-.563-.214-3.38-.68-.577-.15-.634-.202-2.689-1.346-2.563-1.724-.394-.428-1.943-2.158M561.23 598.5l.852-.484 1.303-.724.799-.313.172-.048.218-.015.324.011M563.616 593.793l.73 1.889.302.685.25.56M543.313 598.819l2.172-.363 1.679-.45 4.231-1.538 1.908-.723 1.155-.384.802-.202.852-.131.507-.048.397-.006.434.079.665.302 3.115 3.145M484.343 584.169l-3.76.088-1.625.025-.514.082-.67.182-1.231.447" clip-path="url(#p2275a4c0b6)" style="fill:none;stroke:#000"/><path d="m480.707 587.038-.715-.145-.81-.27-.88-.441-.795-.44-.964-.75M486.216 584.088l-1.873.08M485.304 589.117l.734-4.318.178-.711M490.415 569.888l-.309 3.151-.191 1.048-.538 2.218-.817 2.158-1.591 3.29-.457 1.152-.296 1.183M543.313 598.819l-1.106-2.02-.43-.564-.54-.588-3.486-2.985-1.493-1.045-1.827-1.15-.471-.224-6.734-2.302-.697-.19-4.404-1.069-1.735-.387-1.17-.32-.64-.265-.648-.327-.478-.365-.528-.566-.62-.61M493.886 569.167l3.362 2.583.845.428 4.407 2.284 4.605 2.139 2.07 1.132 2.034 1.296 2.802 2.246 2.295 2.567M490.857 565.377l.52.988.419.84.214.276.539.563 1.337 1.123" clip-path="url(#p2275a4c0b6)" style="fill:none;stroke:#000"/><path d="m490.415 569.888.63-.672.275-.243.238-.12.25-.04.404.002.457.076.51.102.707.174M490.857 565.377l-.442 4.511M567.123 480.456l-.436.378-.479.365-2.21 1.133-.564.226-7.9 3.499-.647.226-.51.224M419.452 494.47l-4.407 4.888-.281.453-.38.755-.24.957-.302 1.037-.48.831-1.492 2.34-.218.517-.31.774-.556 1.868-.493 2.033-.936 2.397-1.035 2.271M428.526 484.571l-1.512 1.391-3.978 4.26-3.584 4.247M417.489 459.175l-.029.428.366.453 2 2.077.788 1.208.14.541-.055.554-.282.503-5.407 6.003-5.97 6.746-2.366 2.655-.366.453-1.478 2.24-.423.403-.591.226-.62.152-.59.163-.55.252-.563.428-.437.39-1.197.855-.281.328.14.717.409.981.31.491.83 1.095.465.378.493.302.535.34.493.302.647.34.733.566.408.402.409.39.563.215.59.087.607.013.97.075.607.063.535.277.422.403.45.378.592.188.591.013.564-.214.605-.176.605-.076 1-.05.634-.05.591-.025.592-.038.633.05.591.189 1.704.503.556.107M482.425 606.244l-.616-.056-.444.038-.704.283-.613.39-.612.283-.55.163-.421.063-.416-.031-.866-.258-.27-.151-.262-.126-.359-.104-.443-.07-3.277-.185-2.482.016-.49-.038-.27-.104-.462-.191-.51-.16-.518-.17-.63-.145-.443-.035-.51.079-.493.154-.345.248-.12.198-.14.466-.043.223-.222.346-.345.202-.922.232-.13.082-.039.088-.197.482M485.304 589.117l-.637 3.746-1.332 8.223-.91 5.158M563.616 593.793l-.192-.499-.427-1.277-.161-.255-.553-.67-1.707-2.192-1.954-2.177-.458-.571-.142-.337-.004-.15.04-.172.046-.154-.024-.107-.169-.204-1.207-1.435-.81-1.393M601.022 569.881l2.514-.163 1.14-.139.686-.047.708-.01 1.014.202" clip-path="url(#p2275a4c0b6)" style="fill:none;stroke:#000"/><path d="m563.616 593.793 1.212-1.386.345-.45.187-.374.087-.437v-.365l.113-.233.437-.233.873-.32 1.344-.384.268-.214.823-1.025.338-.29 1.38-.774.514-.176 2.697-.956 1.408-.746 3.731-2.274.542-.283.36-.183.295-.107.324-.006.295.05.458.044.493-.05.493-.157 1.978-.982.36-.106.57-.063.957-.076.859-.012 1.556.107.633-.02.648-.113.599-.289.76-.573 1.316-1.233.817-1.138.211-.466.817-2.145.24-.283.302-.24 1.64-.975.374-.346.802-.88.493-.667 1.289-1.743.169-.144.351-.126.648-.07" clip-path="url(#p2275a4c0b6)" style="fill:none;stroke:#000"/><path d="m549.55 535.914.888 1.132.436.39.493.327 3.013 2.266.535.251.535.239 1.83.755.522.252 2.45 1.258 2.013 1.17.536.302.576.19.606.037.591-.05.606-.139.845-.038.633.101.578.126.535.239.479.327 3.562 2.982 2.62 2.441.562.428 2.577 2.089 1.31.83.506.53 1.127 1.157 1.45 1.195 1.183.906 1.76 1.309 2.126 1.648.394.465.338.44 2.69 3.272.774 1.208.352.44.507.34.606.05.633-.138.605-.188 1.042-.05.578.163.535.214.549.252 1.239.905.493.378 2.464 1.41.19.156M480.707 587.038l1.242.236.652.047.464.085.5.21.732.585 1.007.916M484.343 584.169l-1.154.554-.715.54-.944.85-.823.925M595.777 144.998l-.338 2.191v.39l.127.403.394.34.38.428.423.454.253.554.113.579-.014.541-.07.567-.155.554-.437 1.687-.155.53-.281.944-.198.616-.479.768-.337.453-.198.517.015.554.098.542.211.591.367.491 1.098.78.52.316.508.365.394.453.085.554-.212.53-.45.427-.535.265-.606.126-.605.1-1.943.189h-.676l-.676.063-1.9.479-1.62 1.006-1.972 2.255-1.535 2.278-.225.53-.169.516-.24.528-.21.516-.085 2.733v.566l.085.555.183.566.295.516 3.619 4.017 1.211 1.095.281.491.367.454.267.503.028.617-.042.554-.183.541-.338.453-.45.366-.592.063-.577-.139-.38-.428-.437-.352-.591-.177-.606.013-2.548 1.196-.38.44-.135.232M183.672 181.566l-.006-.721.844-2.354 1.45-4.357.93-2.216 1.014-1.322" clip-path="url(#p2275a4c0b6)" style="fill:none;stroke:#000"/><path d="m187.904 170.596.815.357.923.1.922.016.371-.044.227-.607.145-1.65.033-1.691-.113-.593-.178-.319-.502-.115-.712-.015-.954.102-1.035.115-1.23.16-.387.086-.291.767-.13 1.186v.94l.243.26.63.318.583.333.64.294" clip-path="url(#p2275a4c0b6)" style="fill:none;stroke:#000"/><path d="m187.904 170.596-.64-.294-.583-.333-.63-.318-.243-.26v-.94l.13-1.186.291-.767.388-.086 1.23-.16 1.034-.115.954-.102.712.015.502.115.178.319.113.593-.033 1.692-.145 1.649-.227.607-.371.044-.922-.015-.923-.1-.815-.358M413.757 372.258l-6.587 3.184M345.757 360.93l3.242 2.64M345.757 360.93l-3.211-2.615M345.757 360.93l1.765-1.788M345.757 360.93l-3.277 3.32M349 363.57l3.311 2.697M349 363.57l-3.279 3.282M355.684 362.85l-3.319-2.65-3.366 3.37M352.311 366.267l3.373-3.417M352.311 366.267l-3.235 3.278M352.311 366.267l3.192 2.599M355.684 362.85l3.262 2.606M349.076 369.545l3.171 2.545M349.076 369.545l-3.355-2.693M355.503 368.866l3.443-3.41M355.503 368.866l-3.256 3.224M342.546 358.315l2.272-2.194M342.48 364.25l-3.322-2.666 3.388-3.27M342.48 364.25l3.241 2.602M358.946 365.456l3.22 2.573M364.469 379.186l-3.937-3.203-.297-.171-.322-.131-.32-.083-.328-.042-1.267.15-.225.082-.237.043-.242.001-.209-.032-.2-.062-.185-.091-.167-.117-4.286-3.44M417.489 459.175l-.226.089-.31.377-.465.365-.915.856-.464.352-2.844 2.177-.564.34-1.725.8M208.695 251.437l7.477-4.747-.016-.68-2.799-3.282-.921-.55-1.44.275-2.604 1.157-2.491.361-.777-.173M361.488 336.36l.706.603.662.164.675.075.606.303M333.3 322.515l-.338.361-.409.315-.818.682-.743.714-.687.482-.93.747-1.225 1.047-.632.53-.873.599-.818.482M333.3 322.515l4.445 3.238M300.94 304.246l7.335 3.391 14.158 7.245 4.084 2.693 6.783 4.94M359.814 342.103l.027-.608-.747-1.309.085-.655.253-.73.366-.805.536-.554.59-.604.564-.478M363.729 327.183l.563 1.447-.55.46-.564.598-.17.579-.084.73.057.453-.17.932-.112.931-.479 1.385-.338.957-.394.705M299.711 289.026l-.308-.372-.637-.482-.76-.68M300.94 304.246l.081-.644-.049-1.513.05-2.235.097-2.564.147-2.017.245-1.797.393-1.052.294-.57M301.466 290.811l.144.101.49.438.098.504M302.95 290.853l-.256.38-.496.621M300.94 304.246l-52.747-24.393M301.466 290.811l.076-.502.064-.43M299.711 289.026l.183.22.294.614.858.657.42.294M299.711 289.026l-.015-.397-.064-.658M180.195 174.811l-1-1.836-.42-.694-.583-.26-.776.26-1.876 1.186-1.52 1.417-.81.926-.71 1.214-.39-.086-1.228-.724M181.684 177.566l1.102 2.264.886 1.736M180.195 174.811l-5.297 3.647M181.684 177.566l-.095-.194-1.394-2.561M177.186 180.459l4.498-2.893M337.745 325.753l1.276-.28M428.084 556.933l-.18-.596-.306-.578-.582-.737-.729-.68-.565-.62M445.658 550.915l-.742-.155-.38-.164-.126-.402.281-.642.268-.365.056-.604-.268-.403-.69-.528-1.408-.994-1.337-1.158M376.27 554.048l.584-.358.576-.172.939-.267.106-.21.022-.324.32-.286 1.58-.63.512-.419.618-.362.598-.019.897.172.747.095 1.43-.19 1.152-.173.47-.228.704-.592.896-1.087.918-1.201.832-1.088.427-.019.534.077.149-.115M369.58 552.47l.57.312 1.956.597 3.38.472.784.197M369.58 552.47l.217-.295.92-.942.539-.613.551-.702.38-.602M367.079 550.575l1.254 1.212 1.246.682M367.079 550.575l.53-.487.32-.44v-.457l-.085-.515-.213-.706-.32-.84-.15-.82.192-.647.534-.592.854-.591.427-.706M203.738 180.266l2.398-1.409.788-.868M214.854 174.008l.014 2.205-.357 3.05-.826 2.364M203.738 180.266l.018 1.4 1.45 3.185.915 1.271 1.437 1.134.788-.378 3.816-3.311.915-1.474.608-.466M203.738 180.266l-.91.188-.646.412M317.642 423.081l.196-.593 1.863-.526 1.57-.394 1.298-.307.883-.482 1.226-1.117 1.912-2.367" clip-path="url(#p2275a4c0b6)" style="fill:none;stroke:#000"/><path d="m305.446 419.752.323.78v.84l.68.26h1.229l2.361-.232h1.327l4.107.81 1.91.491.259.38M447.291 370.726l.33.47 1.707 2.556 1.494 2.29 1.963 1.87.427.877.085 1.335M594 365.128l1.524.107 3.43-.03 4.883-.288 1.23-.463.84-.925.551-2.343 1.003-3.961.809-2.43-.389-1.272-1.067-3.007-.356-2.227-.13-1.937.13-2.083.582-2.776.518-1.503.938-1.128 1.715-.896 1.326-.724.42-.78v-1.244l-.905-3.788-.454-2.372-.226-3.036M636.096 491.131l-1.978.462-1.773 1.033-2.507.93-2.788 1.158-.478.705.422 2.769-.028 3.599-.029 1.283.338 1.36-.14.377-1.098 1.812-.986 1.46-.62.478-.676.378-.084.628v.655l-.817 1.032-.901.83-.76.504-1.324.503M249.092 278.275l-2.642-1.653-1.307-.837-1.344-1.508M248.193 279.853l.65-1.133.249-.445M244.282 269.263l2.329 2.69 1.843 2.342 1.197 1.562.227 1.012-.786 1.406M260.814 164.675l-1.296 2.593-2.225 2.745-2.746 2.195-2.252.97-.507 1.267-1.31 1.31-4.597 1.687-4.076 2.593-3.267 1.763-2.31 2.348-2.512.56-1.662.788-1.253-.07-8.034-10.459-1.295-.655-3.858.126-2.76-.428" clip-path="url(#p2275a4c0b6)" style="fill:none;stroke:#000"/></g><g id="PatchCollection_1"><path d="m151.325 95.012.774-2.807.73-.094.148-.438.863-2.21-.446-1.29-.224-.852.342-2.807-1.16-4.63-1.145-1.877-1.22-.652-1.176-1.13.104-1.012 1.77-1.317.834-2.954 2.261-4.618 4.166-1.516 2.068-.48 1.041.027 2.679 1.184 1.413.147 1.265-.134 1.77.919 2.678.705 3.125 1.038 1.309.2 4.508.478 6.174.879 3.78.28 4.448-.732 2.231 1.024 1.161 1.503.52 1.079 2.44 1.623 3.408 2.022 2.112.892 3.269.36 2.945-.978 4.503-3.463 4.46-2.86.55-1.64.09-1.024.431-.28-.044-.81-.12-1.132.06-.479-.342-.758.268-.214.372.094.565-.04.788-.12.596.586.416 1.21.462 1.145-.417 1.011-.253 1.238.491.838.357.851-.104 1.012-.447 1.503-.728 1.251-.878.865-.997.652.164 1.397.43 2.116 1.638 2.435 1.487 1.37 3.735.998 2.752-.053 5.832-.266 3.11.545 6.01.067 7.752-1.078 2.068-1.862.818-2.143-.744-2.289-.64-3.166-2.573-4.737-1.146-3.473-1.19-1.85-.328-3.14-.951-4.897-1.072-3.325-.169-3.05 1.263-2.634 1.304-3.199.547-2.522-1.683-3.124-1.6-2.182.674-.264 1.936.376 3.492-1.769 1.6-2.07 4.081-1.882 1.431.226 3.283-1.731 3.366-.64 2.315-1.468 1.935-1.355 4.924-2.936 1.599.452 3.872-3.086 1.178 1.204-.42 1.13 2.524 1.09 3.366.227 3.005-.786.952-1.384 1.875-.48 2.708-.584 2.053-.107 1.19.532 1.101 1.277 1.577.453 1.756 1.224 1.994 1.597 1.368.612 1.964-.266.685-.532 1.1-.905 1.34-.372 1.458 1.304 1.785.905 1.726 1.117 2.172.56 4.314.93 1.036.096.907.447 3.711 1.96 2.41 1.57 1.101.931.982-.292 1.548-1.065 1.517-2.954-.06-3.274-.951-6.494-.685-5.056-1.012-2.263 1.518-4.179.803-.718-.178-1.943-.179-3.034-1.428-2.076-.327-1.996 3.51-6.787 2.131-3.425-.178-2.875-.447-2.688-2.35-4.1-.626-1.836-.386-4.098-1.012-3.035-1.458-2.395 1.845-1.252 2.857 4.1 1.993 1.863 1.905.399.713-.532.953.772-1.19 1.038.714 1.33.536 1.863.297 2.156-.268 1.119 1.845 5.11.357 3.7-1.488 3.832-.952 1.757-.952 3.939.958 1.317-.565 1.065.09 1.144.326.958-.58.799.937 3.474.298 1.916-.49.918-.269 1.85.074.904.849.187 1.145.865.357 1.104 1.592 1.69-.714 1.132.7 1.903.193 3.22.714 3.074.967 1.836.402 1.504.416 2.688.521.32 1.086 1.476.789 1.225 1.637.811 2.26 1.398.432 1.01.64.68 1.666-.107 1.399-.013 2.283-.776 2.82-2.257 2.65.451 3.072-.376 3.072-2.297.547-2.634-.084-2.296-1.052-2.296-1.725-3.237.168-2.107-.042-2.748-.067-1.035 1.07-1.703-.118-3.141 1.012-2.13 2.142-.372 2.44-2.821 3.511-1.065 1.726-.266 2.261 2.236 4.107 1.012 2.142 1.49 1.25 2.555.952 2.448 3.392 1.97 5.475.745 2.679-.426-.239-2.608-.118-2.289 2.677-1.384 1.726.48 2.134-2.255.88-4.013.494-1.91 1.58-.212.625.245.179 2.023.773 1.118.179 2.129-.892 1.437-.953 1.224v1.118l1.488 1.171-2.32.852-3.036.479-1.786-.479-1.725.426 1.011 2.129-.416 2.182-2.559.64-4.166.85-4.999.214-4.225-.905-2.262-.852-3.987-2.82-1.548.744-1.309.107-.357 1.011-.297 2.608 1.012 2.396 3.094 2.341.714 1.597-1.25 1.225v2.714l.834 1.224-.477 1.119-1.487 1.596-1.667 5.11-1.785 3.513-1.666 2.342-2.381 2.289-1.726 1.597-.773-1.225-1.964.214-3.333.531-2.44 1.65-2.202 2.609-2.38 4.63-.833 3.354.773 3.14.834 2.342.951 1.278.477 1.277 1.309 1.117.714 2.608 2.559 3.407 1.488-.48.774.48-.06 1.17.357 1.225 1.488 1.277 1.19 1.33.536 1.704 2.559 2.555 1.845.16 2.618-.746.417 1.33-1.31 1.544.239 1.278.178 1.384-1.726 1.223 1.548 1.065-1.488 1.33-.536 1.863-1.13 2.342-.417 3.672-.952 2.555-.833 2.342-3.154 2.075-.239 2.875 1.607 3.193 1.19 1.703 3.928-.16 2.321.16 3.63-.905 2.976.053 28.683 3.07 15.822.602 2.147 3.213 3.078-.992.716-.8 2.9-.224 3.507 5.249 1.656.29.735-.1.662-.272.394-.129.912-.72.215-.287.573-.545.143-.32.072-.32.143-.352.143-.32.215-.288.322-.16.286-.224.269-.24.214-.304.036-.32.287-.24h.393l.358.16.304.208.376.112.358.128h.394l.322-.16.268-.24.322-.32.752-.369.394-.128.376-.208.304-.207.68-.353.286-.256.215-.255.286-.225.358-.128.304-.208 2.273-1.872.34-.177.34-.207.322-.225.233-.32.268-.272.269-.304.232-.336.161-.304.376-.608.519-.512.233-.288.16-.32.073-.384 1.145-1.216.143-.32.268-.289.394-.384.287-.256.25-.256.287-.24.393-.096.376-.176.25-.24.322-.176.305-.224.59-.464.322-.225.34-.271.269-.272.232-.273.412-.576.322-.208.394-.032.501-.096.322-.176.34-.288-.09-.848.072-.32v-.32l.054-.337.394-.032.358-.24.286-.24.358-.192.358-.112.483-.08.358-.096.197.304.214.288.305.225.357.24.251.271.286.257.305.224.34.16.322.176.394.048.286-.224.196-.305.502-.511.179-.272.268-.257.107-.32.197-.304-.036-.32-.089-.304.34.208.304.208.394.064 1.288.048.233-.656.394-.096.268.24.036.352.197.304.268.288.448.272h.447l.805.064.376-.08.233-.256.34-.224.447-.544.197-.288.18-.288.035-.32v-.672l.09-.657.34-.207.948.656-.143.288v.368l.232.304.949.16.358.128.358.144.375.048h.376l.412-.08.483-.112.358-.224.322-.176.376-.032h.43l.805-.048 2.29-.048.895-.816.358-.176.286-.24.108-.337-.144-.304.036-.352.197-.288.25.272.466.576.573.513.34.192.25-.256.215-.289.412-.047.393.095.394.032.412.017.34-.144.393-.113.501-.176h.93l2.506.465.376.032h.412l.411.032.483.015.484.064h.43l.321-.16.358-.24.376-.032h1.27l.394.032h.394l.376-.047.107-.353.197-.304.43-.384.429.08.358.224 2.237.032h.913l.483-.08.393-.032h.394l.376-.08.197-.288.286-.288.322-.272.322.192v.352l.269.24.84.112.466.032.358-.176.233-.288.358-.16.322.224.375.08h.394l.394-.032h.787l.68-.064.376-.144.466-.224.411-.144.465-.288.269.24 2.165.272h.394l.34-.192.537-.176.483-.032.519.528.268.256.25.272.287.256.394.128.358.144.358.176.393-.096.376.144.305.224.357.144.394.064.466.032.393-.064 1.432.88.358.129.394.08h.429l.394.128.393.048.77.144.358.224.358.144.286.24.411.144.358.144.412.128.448-.112.321-.192.25-.272.18-.288.537-.128-.072.784.072.32v.32l-.072.352.161.32 1.271.24.77.368.321.209.394.144.394.111.608.369.305.224.34.16.357.24.627.464.09.336.107.336 2.094 1.745.376.143.357.177.287.336-.215.256-.072.32.501.576.304.256.931.657.34.303.573.465.43.032.303.207.09.336.286.257.144.336.089.32v.352l.913.992.232.272.197.288.18.368.16.368.25.273.269.256.644.432.394.128.394-.096.34-.176-.036.32v.32l-.232.256-.162.32-.465.512-.107.32-.036.32.465.96.358.193.268.24.34.224.394.112.376.032.394-.032.394-.065.393.033.25.256-.053.336.125.32.716.336.286.24.34.192.305.208.357.16.394.208.358.144.394.113.43.095.5.096.394.048.43.016 1.145.096h.393l.394-.064.394-.096.34-.24.233-.304.322-.24.322-.208.393-.304.323-.208 1.127.24.394-.096.394-.064h.823l.394-.128.715-.256.376-.208.358-.144.43-.064.787-.048.34-.144.286-.224.412-.24.322-.257.573-.543.34-.193.393-.111.358-.128.34-.209.269-.256.25-.288.18-.304-.019-.32v-.64l.59-.256.09-.32.143-.288.126-.32.268-.256.197-.304.161-.32.018-.369-.411-.56.303-.208h.466l.34.208.179.288.125.337.305.223.43.096h.393l.34.177.375.047.412-.032.358-.143.322-.225.286-.224.34-.208.34-.256.716-.416.305-.256.393-.256.358-.256.59-.448.251-.304.304-.272.627-.48.232-.273.108-.32v-.672l-.108-.32-.197-.272 1.683-1.152.233-.272.321-.16.216-.257.303-.303.323-.208.304-.32.322-.208 1.074-.449.376-.208.268-.256.286-.24.322-.192.323-.24.322-.288.16-.304.072-.384.537-.528.358.128 1.575-.017.018-.336-.09-.303-.054-.32.09-.32.68-.289.322-.16.501-.512.215-.288-.107-.32-.287-.576-.036-.32-.107-.288-.072-.32-.196-.272-.233-.24-.215-.257.197-.272v.32l.358.112.304.208.412.176.68-.415.268-.24.323-.225.286-.224.035.32.323.176.268.288.34.192.394-.016.358-.112.304-.208.143-.288.376-.56.268-.24.215-.272.143-.288.108-.64.036-.32.018-.336.518-.624-.018-.32.126-.385.179-.304.68-.304.322-.624.233-.305.375-.191.358-.24.376-.193.322-.191.305-.224.179-.32.035-.897.072-.32.34-.176.394-.032.465-.064.34-.176-.036-.32-.072-.32-.035-.32-.144-.64-.197-.257-.25-.224-.25-.272.035-.352.376-.112.734-.304.215-.288.035-.352-.107-.32-.25-.225-.34-.08h-.716l-.144-.303.287-.24.304-.209.644-.592.072-.32-.072-.32-.322-.128.09-.304.465-.048.036-.32.143-.336.197-.304.232-.288.197-.32.108-.352.25-.705.25-.256.376.08.376.048.376.032h.877l.376-.272.09-.32.07-.336.502-.512.554-.849.305-.208.34-.208.304-.272.197-.288.09-.32v-.32l.34-.576.125-1.92-.072-.321.197-.32.072-.32.053-.32v-.353l-.214-.271-.162-.272.323-.609.411.016.412.08h.394l1.18.096.359-.144.232-.288.107-.32-.142-.64.017-.336.215-.256.268-.24.197-.304.34-.625.466-1.6.232-.656.161-.304-.035-.32v-.32l.34-.145.357.144-.089.32.143.353.34-.145.501-.528.286-.256-.07-.304-.323-.176-.215-.288-.09-.32.555-.512-.018-.32-.035-.32.053-.337.215-.271.34-.145.358-.128.233-.272.107-.32.09-.32.268-.272.393-.208.162.304.16.688.34-.176.287-.24.376-.208.322-.224.788-1.12.34-.144.322-.209.322-.255.125-.32.071-.673-.035-.32-.107-.32-.25-.256v-.32l.285-.257.376-.064.394.08.394-.063.375-.177.358-.592.287-.24.358-.112.429.032.376.08.34.176h.393l.358-.192.34-.144.376-.08.43-.128.358-.128.322-.16.429-.128 1.27-.288v-.336l.287-.257.233-.256.286-.287.18-.289-.037-.32.179-.288.376-.08.394-.128.322-.224.322-.192.376-.176.68-.4.197-.288.125-.32.269-.24.142.32.287.223.394.16.053.336-.071.32.178.289.287.224.394.192.393.064.322-.192.161-.304-.089-.32-.304-.192.125-.336.358-.224.376-.049.877-1.104.322-.192.358-.128.34-.176.393-.064.287-.224.34-.624-.09-.305-.196-.272-.34-.111-.18-.257.287-.256.179.32.393.033.358-.129.323-.192.214-.288.269-.288.196-.304.09-.336.072-.337.232-.304.502-.528.286-.256.787-.832.394-.08-.072.704-.16.657-.126.352-.126.672v.384l.019.352.178.32.143.32.287.24.322.224.287.273.321.208.34.192.394.128.823.08h.412l.34-.193-.054-.32-.036-.304.34-.592h.376l.304.273.43.207.394.112 2.487.128.072-.32.232-.272.34-.272h.394l.823-.064.358-.16.18-.288.143-.304.197-.32.393.016.269.256.035.32-.107.352.036.32.09.32.393.048.376-.08h.43l.41-.095.394-.113.323-.208.34-.16h.43l.339.144-.071.32-.18.288.215.289.34.16.322.176.215.288.322.224.323-.176.393-.064.394.032 1.056.384.34-.144-.036-.32.197-.304.429.032.787.191.394.049.197.288v.64l-.143.32.125.32.322.208.322.224.358.128.394.16h.394l.393-.095.77-.145.34-.16.269-.224.268-.256.214-.288.27-.288.339-.144.376.08.286.224.269.288.268.32 2.756 1.793.25.272.287.272.322.224.752.224.375.224.394.144h.788l.322.192.215.304.286.257.197.288.501.512.304.208.286.224.394.08.358.208 1.092 1.12.34.193.357.112.376.143.358.273.322.224.34.208.34.176.68.384.465.208.412.08.412.128.358.16.322.208.143.32.376.16.465-.08.412-.032.358.24.876 1.6.358.241.322.304.323.224.34.193.697.304.305.207.304.289.25.272.233.288.322.224.394.192.394-.064.393.08.323.192.321.272.27.304.196.288.161.32 1.915 2.193.501.544.179.304.25.272.197.305.072.32.125.32.215.32.268.288.305.24.393.032.787-.032.448.08.394.048.357.128.734.304.305.208 1.27 1.12.161.305.25.288.341.192.519.608.286.304.215.304.161.304.34.176 1.414.8.268.24.483.545.573.512.304.256v.352l.054.32.215.288.304.225.214.288.162.304.268.272.304.256.108.336.053.336 1.164 2.032.125.337.035.32v.352l.197.288.358.24.34.176.323.224.393.144.322.224.269.272.286.257.286.287.34.273.144.304.197.336 1.341.8.323.24.322.208.644.464.269.24.232.288.663.496.268.32.662 1.041.269.32.321.304.323.208.268.304.43.128.357.192.287.224.286.272 2.38 1.265.34.144.394.096.358.144.68.4.286.24.25.304.126.336.18.32.375.112.394.032.393-.032.304.24-.393.577.125.336.268.304.18.32.285.272.394-.064.43-.128h.393l.358.144.376.128.197.304.913.448.233.288.16.32.287.256.161.32.215.272.34-.175.322-.209.376-.191.876-.289.376-.048h.43l.787.032.466.096.358.177v.656l.16.336.197.336.34.192h.394l.788-.064.358-.144.447-.096.322-.176.304-.193.108-.32.071-.32.197-.288.197-.32.143-.304.268-.288.287-.256.304-.24.358-.096.322-.16 2.845-.4.412-.016.787.096h.824l.733-.24.77-.208.734-.336.268-.24.358-.16.268-.24.108-.32.197-.305.25-.256.107-.32.072-.32v-.992l.412-1.44.071-.353.161-.32.197-.288.143-.32v-.72l.108-.368.071-.368.161-.4.197-.289.269-.288.286-.24.268-.272.215-.288.179-.32.036-.352v-.672l.09-.32.053-.32-.072-.673-.179-.672-.572-2-.072-.304-.107-.305v-.368l-.143-.704.107-.752v-.64l.036-.369.017-.368.037-.335.304-1.025.143-.32v-.32l-.161-1.745v-.992l.036-.32-.072-.64-.107-.32-.161-.288-.18-.289-.41-.608-.234-.224-.232-.288.268-.272.466-.016.34.16.232.336.269.24.393.176.394.112.215-1.296-.25-.272-.215-.336-.305-1.089-.358.032-.34-.096-.232-.24-.161-.32.035-.352.144-.32.286-.224.304-.208.197-.272-.143-.32-.143-.289-.036-.32.161-.288.197-.288.143-.288.072-.32.143-.288.125-.352.197-.384.197-.288.286-.288.125-.304.072-.32v-.32l-.68-.817-.215-.304-.054-.304v-.32l-.125-.32-.161-.272-.859-.737-.197-.272-.161-.336-.143-.352-.161-.304-.25-.352-.287-.24-.286-.177-.233-.272-.233-.303-.197-.337.197-.992.126-.32.035-.32-.035-.609-.09-.32-.25-.272-.358-.176-.34-.192-.734-.352-.394-.112-.376-.144.144-.288.035-.353-.125-.287-.107-.288-.036-.32.233-.385.358-.128.608-.464.34-.192-.107-.32.805-1.249.09-.32.197-.272.071-.352-.09-.304-.143-.304-.214-.288-.161-.289v-.64l-.072-.352-.143-.32-.036-.384V44l.072-2.001-.287-.208-.233-.256-.142-.32-.34-.304-.215-.273-.18-.255-.5-.465-.484-.512-.053-.336.089-.32.287-.224.268-.288-.071-.32v-.353l-.018-.32-.126-.32-.161-.288-.233-.272-.125-.352v-.32l.233-.272.5-.128.341-.144.09-.337-.412-1.392-.25-.288-.287-.224-.572-.4-.305-.193-.304-.16-.573-.368-.304-.144-.34-.208-.34-.256-.322-.16-.304-.256-.609-.416-.233-.24-.143-.305-.071-.32-.161-.304-.215-.32-.286-.272-.322-.096h-.358l-.34-.112-.25-.224-.126-.288-.286-.256-.126-.32-.143-.641v-.64l-.09-.336-.286-.192-.196-.272-.037-.32-.59-1.425-.143-.288-.251-.609v-.32l-.215-.287-.465-.48-.179-.289-.232-.24-.25-.224-.144-.288-.071-.353-.036-.32.036-.32-.072-.352-.197-.288-.304-.192-.215-.256-.287-.224-.07-.32-.109-.32-.178-.289-.215-.256v-.384l.054-.32.483-.736-.072-.32.036-.32.143-.337.18-.32.572-.496.215-.64.196-.288.322-.209.359-.128.358-.16.232-.272.09-.32v-.64l.071-.32.18-.288.035-.32-.072-.641-.125-.304-.232-.224-.09-.32.071-1.072.036-.32.358-.577.108-.32-.072-.32-.054-.336-.125-.304-.25-.224.268-.24.161-.305.107-.96v-.32l.036-.32 9.623.345-.394.544-.501.448-.537.513-.358.544-.25.608-.287.576-.393.545-.573.448-.215.64.358.576.43.577v1.28l-.323 1.312-.071.64v.64l.179.673.644.353.537.512.215.64.071.704v.704l.644 1.217.537.48.788.192.751.224.537.48.573.449.537.48.5.576.359 1.217.286.64.143.64.287.64.214.64.072.64.215.705v.704l.214.64.43.577.572.576.215.64.25.673.43.576.466.544.286.64.035.673 1.612 2.88.536.481.716.224.788.064.715.256.072.64-.716.128-.644.257-.609.352-.286.576-.107.64.107.64.358.576.286.641v.64l-.644.256-.286 2.625.071.64.18.64.178.705.465.544.68.352.18.96-.645.32-.644.256-.25.609.536.512.609.448.322.608.286.64.43.545.537.512.465.576.358.576.179.64.215.64.357.577-.107.672-.608-.352-.502-.448-.286.64.215.705.43.575.322.64.286.705.537.48.715 2.913.215.64.645.449-.072.64-.286.64.071.64.143.64.394.609.5.544.466.576.466.544.644.384.572.448.717.353.644.447.68.32.143.64.752.097.787-.128h.787l.788.064.572.448-.715.192-.645.224-.644.256-.644.224-.68.16-.716.064-1.897.64-.608.321-.537.448-.895 1.056-.358.576-.215.64-.107.673-.072.64-.179.64-.25.64-.143.705-.215.64v.64l-.072.64-.43 1.28-.142.64.536 1.377.18.672-.072.64-.036.673-.644.256.053 3.265-.1.453v.498l.151.452.303.408.43.317.38.362.355.407.253.408.101.452-.101.453-.43.86-.43.272-.38.294-.33.34.305 1.402v.453l-.076.453-.405.317-.355.317-.253.384-.126.476.1.498.254.407.304.906.151.497.102 1.064v.95l-.05.996-.102.906v.905l.152.453.329.407.303.43.253.43.28.408.379.43.734.747.329.384.506.272h.556l.557-.045.33-.385.303-.407.279.43.91.634 1.57.565.43.34.38.362.48.316.43.318.406.317.607.837.228.475.404.317.532.113 1.62.476.556.045.608.136.506.18.506.227.557.158.506.181.683.159.557.045.355.385.202.475.253.408.455.294.557.068.557.135.532.069.455.271-.76.588-.48.068-1.265.521-.481.158-.456-.135-.354-.318-.38-.294-.531-.158-.405-.271-.38-.295-.405-.271-.354-.363-.38-.294h-.505l-.532-.023-1.215.657-.506.135-.456.182-.506.09-.506.046-.405.271-.455.227-.406.294-.455.203-.785 1.223-.227.43-.355.317-.328.34-.406.61-.38.362-.81.543-.43.25-.303.384-.354.317-.33.362-.404.294-.38.34-.405.294-.278.385-.43.203-.481.023-.355.317-.278.43-1.493 2.06-.836.543-.404.316-.355.317-.253.453-.303.407-.203.408-.151.453-.203.407-.33.34-.277.384-.481.113h-.506l-.38.294-.38.883.05.453.254.43.48.452-.1.453-.152.453-.178.43-.1.475-.026.452-.05.453-.102.498-.05.498.253.407-.406.272-.48.113h-1.013l-.506-.068-.455-.158-.481.068-.076.475.354.362.532.113.531.068.557.136.456.272.405.882-.33.362v.95l.051.454.202.452.33.408.253.43.278.43v.904l.026.499.278.407.329.385.228.43.202.452.126.453.608.702.304.407.38.34.404.905.228.452.253.408.228.452.253.453.126.453.203.43-.48-.159.05-.452-.48-.114-.482-.022-.202.452-.203.408-.177.43-.177.475-.05.453.05.452-.177.43-.355-.294-.025-.452.101-.453.177-.453.077-.453.1-.452.203-.453.101-.453-.126-.52-.481.023-.203.452-.05.453-.228.453-.228.407-.101.453-.278.385-.33-.34.557-.815-.126-.452-.456.203-.48-.022-1.468-2.105-.304-.408-.38-.294-.506-.045-.506.045-.33-.34.254-.452.177-.475.127-.43v-.453l-.152-.407-.05-.453-.203-.407-.456-.815-.152-.407.203-.498-.05-.453v-.453l.05-.452.101-.453.152-.452.101-.453.101-.634v-.905l-.025-.475-.177-.43-.278-.385-.026-.43.076-.453.177-.452.152-.453.253-2.06v-.452l.152-1.313-.101-.905-.279-.408-.455-.158-.506-.09-.481.022.05-.452v-.453l.051-.452v-.906l.025-.475.684-.407.43-.34.202-.453.33-.384.506-.295.278-.407.228-.43.304-.385.404-.34.076-.43.102-.452.43-.34.38-.339.126-.452.43-.906-.05-.452v-.453l-.076-.476-.304-.384-.025-.453.53-.204v-.43l-.682-.678-.304-.34-.455-.362-.355-.362-.48-.317-.456-.181-1.114-.476-1.645-.452-1.468-.52-.506-.159-.506-.136-.936-.362-.481-.226-.43-.227-.633-.18-1.696.113-.506-.091-.456-.181h-1.012l-.506.136-.506.045-.405-.272-.506-.09-1.013-.25-.455-.18-.987-.317-.481-.113-.43-.204-.456-.181-.91-.317-.507-.09h-.506l-.962-.046-.557-.09-.961-.294-.507-.023-1.999-.385h-.506l-1.013-.181-.506-.136-.455-.181-.456-.135-.506-.046-.962-.045h-.506l-.506-.045-.506.09-.506.046-.481-.114.101-.452-.101-.453-.126-.453-.355-.34-.76-.158-.43-.271-.556-.272-.43-.317-.456-.18-2.581-2.038-.481-.113-.43-.226-.43-.317-.532-.272-.355-.317-.38-.362-.43-.249h-.506l-.278.385-.531.159-.557.112-.43-.203-.127-.43-.202-.408-.076-.475-.05-.453-.178-.452-.304-.385-.658-.724-.329-.385-.329-.34-.405-.27-.354-.34-.354-.318-.406-.27-.455-.386-.481-.34-2.936-2.602-.38-.294-.404-.295-.405-.316-.38-.317-.43-.272-.405-.294-.607-.747-.253-.408-.405-.294-.33-.34-.227-.452-.228-.385-.228-.475-.38-.385-1.543-2.173-.253-.407-.177-.407-.278-.385-.43-.385-.43-.272-.786-.814-.404-.317-.33-.34-.278-.385-.506.046-.506.135-.279-.384v-.905l-.025-.454-.203-.384-.303-.43-.43-.227-.43-.18-.33-.363-.076-.475-.303-.362-1.063-.95-.481.112-.506-.135-.279-.385-.328-.34-.304-.362-.33-.362-.404-.294-.456-.136-.76.113-.379.295-.91-.363-.456-.226-.228-.385-.05-.453v-.452l-.051-.453-.228-.407-.456-.204-.506.023-.405.271-.455.204-.33-.34-.05-.452-.253-.408-.101-.452.303-.906-.43-.249-.38-.34-.404-.27-.507-.046-.784-.611-.405-.363-.456-.18-.405-.272-.455-.272-.38-.34-.303-.361-.253-.408-.33-.34-.404-.248-.026-.453v-.453l-.025-.452-.886-.408-.405-.317-.227-.43-.254-.385-.354-.34-.405-.293-.456-.159-2.05-.588-.48-.068-.279-.385-.253-.43-.455-.204h-.506l-1.012-.09h-.507l-.506.022-.455.204-.456.226-.405.25-.506.067-.43-.203-.102-.453-.151-.408-.253-.362-.304-.362-.76-.588-.354-.317-.48-.136-.456-.226-.43-.272-.482-.068-1.77-.77-.482-.067-.455-.136-.506-.045h-.506l-.481.113-.203.407-.405.272-.48.203-.481.159-.481.068h-.506l-.406-.227-.329-.34-.48-.022-.481.068-.48.113-.507-.045-.507-.09-.455-.136-1.012-.181-.481.113-.456.18-.48.114-.507.09-1.138.25-.406.271-.1.453-.38.294-.481-.158-.43.203-.406.317-.91.453-.507.113-.48.045-.481.159-.506.045-.33.385-.177.452-.278.408-.43-.204-.456-.18-.506-.046-.253.407-.506.091h-1.519l-.506.09h-1.012l-.456.181-.253.408-.455.181-.304.385-.33.362-.303.362-.405.317-.354.363-.279.384-.227.43-.05.498v.453l.05.452.278.43.38.34-.178.52.026 1.29-.405.318-1.012.09-.506.136-.38.294-.177.43-.026.476.05.498.153.452.1.453.153.453.05.452.456.317.05.453-.1.452-.456-.18-.43-.204-1.367.09-.405.317-.329.34-.126.452-.254.408-.227.407-.101.453-.304.905-.177.43-.253.408-.406.249-.455.158-.354.362-.405.294-.405.25.203.724.328.95.178.453-.228.43-.43.204-.304.362-.203.407-.303 1.494v.453l.126.475-.455-.18-.33-.34-.43-.25-.506-.09h-1.012l-.405.272-.354.339-.506.068-.178.43-.101.453-.405.272-.455.226-.152.452-.178.43-.455.227-.43.294-.228.408-.38.362-.227.43-.304.384-.228.408-.202.452-.177.453-.608.747-.253.408-.202.407-.253.385-.228.453.405.362-.152.452-.203.408-.278.384-.33.385-.43.249-.505 1.29-.152.453v.498l-.43.203-1.013-.18-.962.316-.405.25-.455.248-.405.294-.025.453.152.453.202.452.05.453-.227.43-.709.724-.38.295-.379.316-.203.43-.253.408-.38.34-.784.61-.38.34.228.43-1.164 1.471-.227.43-.608.747-.405.34-.127.475.051.498.253.407.152.498.203.453.05.453-.354.316-.481-.113h-.506l-.481.068-.48.158-.43.204-.406.272-.633.928-.278.385-.48.067-.279-.385-.228-.407-.405-.249-.481.159-.025.452.253.476.05.452-.556.793-.456.248-.278.385-1.165 2.015-.176.43-.077.498-.151.475-.355.34-.329.361-.303.476-.279.384-.43.838-.329.385-.405.316-2.075 2.784h-1.013l-.506.045h-.506l-.455.25-.228.407-.405.294-.506.09-.33.34.203.452-.48-.067h-1.52l-.455-.204-.506-.045-.228.407-.101.498-.05.453.227.43.532.113.405.362-.481.068h-1.013l-.961-.227-1.012-.18-.507.09-.38.294-.151 1.403-.279.385-.404.249-1.393 1.675-.253.385-.303.362-.101.453-.203.407-.177.43-.253.407-.228.43-.354.317-.354.362-.608.724-.228.43-.227.974-.077.497-.025.453.025.52-.404 2.852.05.453.203.452.43.34.481.204.38.362.278.407.177.475.228.43-.253.408-.355-.317-.38-.317-.455-.249-.38.294v.453l.304 1.358.05.498-.303.905-.177.453-.253.43-.127.475-.253.407-.151.453-.304.407-.253.408.607.996.33.407.202.452.202.544.354.361.102.906.658.815.455.271.48.249.558.136.556.09.532.023.481.25.43.338-.455-.045-.43.226-.482.068-.48.136-.506.023-.507.136-.48.203-.506.046-.481-.023-.557-.045-.506-.136h-.506l-.507.113-.48.045-.38.363-1.164.52-.76.77-.405.27-.455.25-.355.362-.278.407-.228.408-.303.384-.456.25-.405.248-.405.272-.734.656-.455.86-.177.43-.734.883.05.453v.497l.101.453.405.905.253.407-.05.498-.101.498v.453l.303 1.539-.303.407.38.837.632.928.329.385.785.837.91.725.507.633.86 1.403.152.498-.329-.317-.278-.407-.355-.317-.354-.362-.126-.43-1.367-1.335-.354-.317-.33-.34-.404-.249-.355-.316-.405-.317-.43-.226-.38-.294-.328-.363-.38-.271-.405-.25-.481.16-.48.135-.43-.204-.026-.452-.987.045.152-.453-.102-.905-.101-.453.177-.588.05-.453v-1.357l.051-.453v-2.716l-.05-.452.05-.453.026-.498-.633-1.04-.329-.34-.354-.317.354-.362.455-.272.406-.339.177-.453.202-.453.253-.407.152-.452.101-.453.051-.453.101-.453-.05-.452.05-.453-.1-.497-.178-.43.138-1.76-.197-.271-.054-.304v-.32l-.16-.289-.233-.256-.18-.288-.286-.288-.143-.336-.107-.32-.107-.656-.126-.32-.215-.288-.035-.32-.09-.336-.304-.144-.322-.096-.734-.928-.716-.256-.322-.225-.268-.255-.197-.256-.304-.177-.305-.144-.34-.08-.357-.064-.27-.208-.142-.32-.036-.32-.233-.24-.286-.176-.322-.112-.68-.304-.358-.112h-.358l-.34.016-.25-.224-.126-.304-.214-.272-.305-.144-.322-.112-.233-.256-.196-.272-.108-.304-.196-.257-.18-.271-.25-.225-.34.113-.071.32.053.352.25.288.323.208.215.272.196.32-.304.192-.394.048-.322-.096-.196-.272-.18-.288-.071-.64-.143-.288-.09-.304-.823-1.153-.25-.608-.68-1.12-.645-.256-.68.224-.68.096h-.716l-1.431-.256-.716-.192-.537-.48-.501-.512-.644-.48-.644-.192-.645-.32-.68-.225-.465-.48-.537-.416-.93-.96-.931-.896-.608-.352-.502-.448-.894-1.12-.394-.513-.358-.576-.18-.64-.214-.576-1.145-1.408-.573-.384-.608-.288-.25-.608-.323-.545-.751-1.152-.609-1.216-.215-1.28-.143-.705-.358-.576-.751-1.056-1.002-.96-2.291-1.537-.644-.32-.573-.384-.644-.384-.644-.32-.68-.16-.573-.448-1.003-.832-.715.064-.644.32-.716-.128-.537-.416-.286-.577-.502-.447-.608-.289-.68-.032-3.544.032-.644-.32-.715-.128-.645-.256h-.715l-.68.129h-3.222l-1.431.255h-1.54l-1.503.128-3.4.032-.715.064h-.716l-.716.096-.716.225-1.396.383h-.787l-.716.064h-.788l-.715.032-.465.577-.216.64-.68.096-.715-.064-.215.608.393.576.037.736-.716-.191-.645-.257-.572-.384-.644-.256h-.716l-.716-.096-.716-.16-.573-.32h-1.503l-.68.224-.68.096-.68.224-.608.448-1.718 1.088-.537.417-.537.448-.645.288-.68.096-.608.288.107.672-.143.64-.465.48-.537.417-.572.511-.43.513-.358.576-1.073.96-.537.448-.466.512-.358.576.036 1.92v.705l-.215.64.215.96.573.448.68.416.608.417-.215.64-.429.575v.64l-.071.64-.25.641-.717.16-.93.96-.322.608-.537.416-.573.384-.394.545-.286.576-.072.64-.43.576-.357 1.728-.215-.64-.072-.64-.143-.64.323-.608-.18-1.312.466-.545.322-.608-.071-.64-.108-.64-.573-.352-.536-.416-.86-1.024-.68-.16-.644-.32-.572-.384-1.29-.513-.715-.128-.644-.255-.716-.064-.68.16-.68.095-.644.32-.286.577-.645.287-.715.033-.717-.097-.787.032-.787.129-.645.32-.536.416-.68.224-.645.32-.572.448-1.647.832-.537.416-.5.48-1.146.832-.644.417h-.716l-.716-.032-.716.223-.715.257-.68.288-.609.384-.43.512-.715.096-.645-.288-.715-.16-.716.192-.716.096-.755-.012-.76 1.617-9.313-.18-5.222 1.556-1.763 5.685-.86-.933-4.762-8.941-11.902-4.47-6.428.212-3.094-2.767-9.522.639-5.713-1.277-5.475 1.49-4.285-2.13-8.332 2.98-6.427-3.192-5.951 1.064-5.951-3.406-.953-4.47-3.808-3.193-.12-8.463 2.024-5.481.536-2.13 2.202-3.086 1.666-1.49 1.369-1.703 1.725-2.981-.119-1.97-2.499-2.287-1.964-2.662-1.31-.638-1.487 1.81-3.017 1.612-1.347.94-2.567.753-1.894.49-1.935 1.543-1.263 1.618-1.472 2.258-.842 1.769-.168 2.484-1.22 1.392-1.6.49-.968-.039-.505-.338-.378.64-1.263-.038-.63.602-1.768.038-2.82-.339-2.188-.565-2.862-.188-2.02-.489-1.094-.15-1.893-.189-.716-.903-.505-.188-1.599-2.258-2.524-1.882-3.199-4.855-1.557-1.844-.926-4.93-.926-.94 1.137-5.157 1.683-6.172 1.01-12.457 1.305.263.673-2.597.295-4.44 3.66-2.71-.294-2.484-.884-2.748-2.65-.79-3.493-2.221-3.451-1.505-3.577-1.656-4.587.376-1.6.602-1.556-.94-3.282-.34-2.147-.903-2.693-.452-1.052 1.092-1.852 1.618-1.64.565-3.956.49-1.347-.076-3.114 2.597.716 2.296-1.6 1.844-1.178 2.56.169 3.913 1.052 3.087 1.81 2.484 2.271.978.926 2.296-.589 1.92.126 2.559 3.703 3.35-1.052 4.214.253 3.087.715 1.58-.126 2.634-.084.791-.926 1.505-.21 1.355-1.347.414-.968 2.107-1.304 1.807-3.198 1.58-2.904 2.259-2.946 1.317-4.04 1.204-2.482 1.656-3.156.49-3.198.413-3.367-.263-4.545-.828-2.525-.414-2.188.828-3.703.075-4.418-.602-4.209-.226-1.347.828-2.146.113-3.282-.715-2.946.113-7.617-1.882-2.735.113-2.104-.828-1.515.15-.967 1.13-1.137 1.242-.841.263-.154.207-.41-.254.19-.282.378-.424.126-.113.021-.611.368-.546.505-1.148.19-.46-1.22-.678-.968-.132-1.116-.075-.568-.527-1.693-.047-.79-.15-.115-.781-.705-.8-2.483-1.666-1.64-.385-1.095-.866-.8-.696-1.125-.612-.747.235-.305.377-.684.282-.652.217-.105.084-.579.292h-.547l-.536-.103-.527.385-.379-.179-.084-.648-.947-.584-1.02-.226-1.547.085-.641.131-.653-.244-1.367.273-.789.29-.64-.153-1.07-.24-.744.094-.253.2-2.039-.52-.032.102-2.46-.622-.915-.208-.8-.14-.83-.066-.821.037-.447.047-.72.104-1.095.244-1.183.311-.055-.128-1.235.373-.253-.173-.461-.08-.937.147-1.637.518-6.8 1.996zm179.852-13.964.417.376 1.197.31 1.253-.373 1.217-.69 1.768-2.836 1.169-1.944 1.253-.827 4.731-2.015 3.492-1.561.563-.705.1-1.038-.719-1.23-1.591-1.238-1.957-.77-2.38-.087-1.971-.1-1.789.332-1.886.715-.958 1.152-.873 1.357-.676 1.159-1.197.725-.788.756-.845 2.418-.507 2.266.099 2.204.464 1.272z" clip-path="url(#p2275a4c0b6)" style="fill:#00f;fill-opacity:.8"/><path d="m185.461 152.363.609.288.715.063h.716l.716.064h.716l1.432-.127.644.255 1.217.705.644.32.644.256.716.128.68.224.609.352.644.224.644.288.573.448.465.48.43.576.43.513.357.575.751 1.089.43.544.466.48v.64l.5 2.304v.64l.358.577.144 1.28v1.28l.071.64v.64l-.071.64.02.811.329.317.152.453-.38.34-.43.271-.405.34-.202.452-.152.453.48.566.43.203.482.113h.506l.278-.385.152-.452.05.633-.05.453-.101.453.329.362.33.317-.204.452.355 2.015-.506-.181v-.453l-.406-.86-.05.453v.905l-.48.203-.558.159-.962.498-.303.384-.279.43-.43.838-.329.882-.38.362-.986 2.286-.102.452-.253.408-.151.452-.203.453-.101.453-.355.362-.202.407v.453l.05.453-.05.452-.152.453-.202.407-.152.453-.532.158h-.557l-.253.407-1.19 1.72-.328.385-.582.815-.203.452v.498l.051.452v.906l.177.43.228.385-.127.452-.227.408.101.905.405.271.329.362.354.34.278 1.425-.075.476-.127.475-.202.452-1.418 2.354-.43.317-.278.407-.43.475-.253.453-.684.815-.835.678-.38.363-.329.407-.101.453.76 1.312.885.701.177.43.43.86.077.43.708 1.426.38.294.253.362.405.272.329.34.101.452v.497l-.101.453-.203.453v.452l.076 1.584-.101.453-.177.475-.203.43-.076.95-.253.408-.354.362-.203.453-.48.203-.33-.384v-.906l-.1-.453-1.646-3.1-.278.43.127.906.227.407.405.86.456 1.357v.453l.202.407.329.34.38.294-.152.453v.452l-.076 1.222.101.453.38.294.42.516.09.624.232.24.304.144.537.416.305.144.572.384.269.208.179.288.09.32.142.304.645.272.286.176.286.192.501.448.287.16 2.888 3.674.43.226.355.294.354.362.405.272.33.34.885.43.506.044.506-.045h.507l.455-.181.455-.226.912-.362.455-.226.48-.159.836-.61.76-.657.708-.701.405-.317.354-.317.228-.43.202-.452 2.784-3.236.203-.453.835-.588.531-.25.38-.339.405-.316.304-.363.405-.317.455-.18.405-.317.43-.25.481-.203 1.063-.18.506-.136.507-.091.987-.09h1.037l1.013-.091 2.809.022.557.046 1.012-.09.48-.114.482-.068.404-.271.43-.25.355-.316.253-.407.43-.204.354-.385.38-.317.304-.361.101-.453v-.905l.405-.86.228-.43.253-.408.126-.475.178-.43.303-1.357.203-.453.152-.453v-.905l.177-.43.025-.452-.253-.928v-.498l.102-.453v-.95l.202-.905.151-.453.203-.407.05-.453.102-.498.152-.497.177-.453.506-.792.38-.294 2.404-4.526.633-.724.556-.77.304-.905.608-.814.202-.453.228-.407.076-.453.202-.407.152-.453.203-.407.253-.407.38-.295.227-.43 4.53-5.354.966-.993.537-.416.5-.448.43-.512.394-.608.286-.608.394-.544.357-.576.287-.672.465-.513 1.933-.992.43-.512.536-.512-.322-.64.322-.576 1.176-.855.658-.045.33-.34.176-.452.507-.114.43-.203.202-.407.304-.362.228-.43.253-.385.329-.407.354-.363.203-.407.253-.407.43-.227.354-.339.405-.34.911-.384.506-.272.912-.34 3.011-1.38.304-.52.354-.362.355-.34.455-.272.987-.112.481-.159.557-.045.48-.068.482-.113.936-.476.961-.316.33-.34.404-.271.507-.136.506-.09.456-.182.278-.385 1.923-2.127.43-.203.456-.182.456-.27.38-.318.43-.249 1.442-.747.961-.068.507.09.455.227.507.136h1.012l.506-.045.506-.09.507-.136.556.09 3.493.905.48-.113.405-.271.481-.114 1.013-.09h1.012l.506-.09.43-.205.355-.316.329-.34.81-.588.506-.136.354-.34.785-.588.177-.43.076-.475.253-.407-.05-.453v-.996l-.431-1.448-.304-.407-.38-.34-.38-.385-.303-.407-1.012-1.177-.278-.408-.38-.361-1.392-.883-.405-.317-.506-.203-.557-.159-1.67-.271-1.013-.408-1.113-.18h-.557l-1.67-.137-.532-.113-3.29.023-.278.43-.532.022-.557-.09-.506-.158-.455-.25-2.329-.316h-.556l-.557.09-.557.046h-1.113l-1.089.158-.202.453-.532.112-.556-.135-.507-.227-.556-.09-.582-.045h-.557l-.532-.045h-.557l-.455.226-.455-.25-.506-.203-.583-.113-.961-.498-2.101-.498-.582.068-.633.022-.709-.09-.556-.113-1.291-.543-.506-.181-.608-.091-.556-.113-1.215-.294-.582-.045H252.8l-.557-.09-.456-.25-.886-.588-.48-.272-.507-.226-.53-.159-.558-.045-2.43-1.267-.354-.362-.43-.363-.354-.361-.81-.657-.557-.384-.962-.589-.405-.34-.455-.294-.405-.317-.506-.226-.532-.068-.531-.158-.481-.249-.531-.227-.43-.316-.305-.385-.48-.249-.43-.317-.937-.566-.456-.339-.961-.498-.38-.34-.43-.294-2.506-1.335-.53-.158-.533-.046-.53-.135-.558-.25-.556-.158-.507-.181-.962-.475-.506-.181-1.923-1.087-.911-.565h-1.113l-2.127-.974-1.113-.022-.532-.136-.43-.317-.455-.272-.43-.34-.962-.43-.48-.248-.431-.294-.481-.204-.608-.18-.557-.092-.43-.34-.784-.814-.405-.34-.481-.203-.531.023-.582-.023-2.303-.77h-.557l-.557-.18-.507-.227-.506-.158-.86-.113-.557-.046-1.012-.407-.481-.249-1.468-.611-3.948-1.403-.531-.136-1.468-.656-.506-.182-.557-.09-1.114.09-.557-.09-.556-.181-1.519-.656-1.113-.159-.684.023-.557-.045-.556-.136-.557-.045-.456-.272-1.113-.272-.481-.203-1.088-.25h-.557l-1.34.537-.376.112-.358.16-.358.112-.394.048h-.43l-.357-.128-.376-.08-.376-.112-.322-.192-.304-.24-.662-.4-.305-.272-.608-.449-.465-.576-.305-.24-.089-.336-.43-.576-.626-1.184-.16-.64-.054-.32.035-.353-.035-.351-.072-.32-.269-.673-.09-.32-.035-.32-.197-.304-.322-.208-.59-1.233-.18-.32-.214-.272-.232-.272-.27-.256-.214-.304-.537-.56-.286-.256-.34-.256-.448-.56-.286-.24-.179-.288-.16-.32-.287-.673-.358-.48-.376.08-.358-.688.18-.608v-.32l-.108-.32-.179-.288-.269-.257-.214-.272-.358-.656-.143-.32-.251-.256-.16-.32-1.128-1.824 2.219-.993-.018 1.537.071.304.126.32.465.544.197.272.179.304.286.945.197.271.143.289.197.272.107.304.143.304.484.496.25.224.215.288.25.224.645.736.25.224.304.192.645.272.286.209.322.144.609.464.232.24 1.002.672.358.336.627.384.286.224.322.16.304.208.233.224.572.416.52.593.303.224.251.224.215.256.394.576.25.288.144.272.447.512 1.073.96.627.448.286.24 2.022 1.361.287.24.25.256.573.416.322.128.322.16.358.064.645.32.59.336.662.272.34.113.286.224 1.861.32 1.074.128.394.08.322.144.376.096.698.08h.358l1.074.256.125-.352.143-2.209.071-.736 1.504.048.197.192.017.32-.035.977-.072.32v.64l-.036.32v.32l.143.288.269.208.322.096.716.128 1.074.096h.358l3.274.608.752.192.394.208.751.304.752.112.322.128.322.24.304.145.322.111.358.032h1.074l.358-.032.358-.064.322-.16 1.217-.176h.43l.393-.032.376-.032.358-.064.716-.16.34-.112.304-.16.627-.384.375-.08.322-.112.752-.096h.787l1.772-.128.34.048.197.288.537 1.328.089.32.287.337.16.303.09.304 1.074 1.761.358.176.286.288.304.144.358.064h.376l.358.064.322.128.913.8.232.24.162.305.196.272.573.48.948.656.34.112.304.144.645.24.537.448 2.648 1.696 1.217.513.43.207.357.209.931.384.52.288.321.112.358.192.34.128.895.528.286.192.412.128.304.192.966.448.34.272.305.176.286.24.501.528.25.225 2.023.544.895.176.393.176.662.4.287.224.948.656.43.192.412.128.321.24.376.144.394.208.358.144.644.336.752.288.376.08.357.112.34.032.358.096.358.049.698.16.68-.32.483.095.34.129.322.16.394.336.322.191.25.224.341.193.358.143.304.193.394.08.823.112h.787l.841.096h2.398l.34.048.359-.097.196-.303.125-.32.287-.192h.358l.447.48 2.577.896 4.492.064.358.048.358-.064.34-.032.751-.064h.358l.698-.144.34-.032 1.038-.352.322-.144.18-.288.25-.257.161-.303.25-.257.144-.288v-.32l.447-.592.59-.368.359-.096.232.24.18.288.142.288.09.32.053.32.233.24.68.225 1.074.096.697.143.734.113.358.095.358.064h1.074l.304.209 3.15 1.712h.358l.358-.032.179-.272-.108-.32.788-.16.34-.016.286.576.197.288.232.256.287.208.215.24.16.288.233.272.286.24.627.353.322.143.358.096.716.064.358.065.358.032h.77l.339-.032.34.047.322.24.43.513.25.24.233.271.304.513.34-.112.376-.208.233.24.268.208.358.08.16.288-.07.32-.162.304-.018.352.108.304.733 1.089.27.191.303.144.716-.128.322-.144.358-.08.34.017.036.32v.64l-.107.64.662.24.358.064 1.45.143.34.113.16.304v.32l-.036.32.072.32.16.288.216.256.465.272.215.256.125.304.072.32.143.96.036 1.665.036.32-.18.64-.196.288-.108.32-.178.304-.305.272-.161.304-.25.256-.305.208-.268.256-.09.32.125.304.287.176.358.016.018.657-.072.32.179.287.608.385.25.224.073.32.035.608-.375-.048-.376-.112-.43.176-.393.608-.304.208h-.824l-.393.048-.394-.016-.412.048-.304.24-.322.192-.394.192-.412.112-.823.336-.715.416-.573.528-.77.208-.322.224-.322.16-.805.048-.949.736-.393.16-.394.064-.394-.096-.358.16-.93.689-.394.064-.394-.032h-.393l-.412.111-.394.064-.375.032-.412.129-.716.272-.394.064h-.393l-.394-.032-.465.032-.734.207-.286.225-.323.207-2.47 1.12-.715.289-.393.096-.394.16-1.2.272-.375.064-.394.016-.393-.032h-.43l-.394.032-.393.096-1.074.384-.322.192-.34.144-.555.48-.25.272-.573.48-.555.56-.59.448-1.002.673-.144.32-.053.656-.09.32-.286.256-.323.208-.286-.24-.375-.128-.215-.288-.269-.24-.322-.192-.286-.24-.358-.128h-.787l-.788-.064-.394.047-.698.289-.34.175-.357.113-.376.048-1.074.4-.358.16-.376.112-.393.16-.394.096-.358.176-.68.416-.322.24-.25.24-2.506 2.16-.304.208-.269.304-.429.576-.233.64-.483.56-.18.273-.285.272-.197.304-.036.32-.179.352-.197.688-.196.304-.215.288-.376.048-.358.176-.126.32-.411.576-.268.256-.215.256-.126.336-.035.32-.734 1.344v.32l.107.32.18.288.107.288.196.272.448.88.179.288.214.64.627.865.25.256.162.288.214.48.036.32-.34.24-.358.128-.178-.32-.055-.336-.393.016-.304.192-.376.032-.788.16-1.968.128-.34.144-.376.08-1.18-.224-.359-.128-.376-.016-.376.08-.286.208-.269.256-.68.352-1.574 1.76-.161.336-.18.288-.214.304-.322.336-.304.257-1.324.864-.27.255.037.449v.64l-.161.368-.215.304-.322.256-.286.272-.126.64-1.825 3.136-.108.32-.483.976-.107.384-.072.672-.322.624-.268.256-.233.272-.304.672-.179 2.128-.268.993v.32l-.838 4.781.05.86.203 1.81v.905l.152.86.507.815 1.113 1.584.607.724.557.77.455.814.406.815.354.86.607.724.81.543.81.634.86.407.81.543.76.77.708.633.911.452.962.317.962.046.961.135 1.013.272.91.453 1.013-.091 1.012-.181.962-.227.962.046.81.77 1.164.904.911.453.76.588.202.905v.905l.455.815.658.724.86.588 1.013.272h1.013l1.012-.181 1.012.09.81.589.05.905-.1.905v.905l-.102.996-.303.905-.456.86-.203.905.05.95-.303.905-.354.95-.607.725-.81.679-1.67 3.348-.304 1.177-.203.905-.455.86-.354.95-.304.905.101.905.658.68.253.95.304.814v.905l.151.86-.961-.407-.253-.996-.81-.633-.911-.498-.355.86.304.905.608.724.607 2.715 1.114.317.91.362.912.317 1.012.045 2.025.543 1.012.181h1.013l-.102.905-1.012-.453-1.114.091-1.113-.18h-1.114l-1.012-.363-.962-.407-.961-.588-1.013-.363-.709-.724-.405-.905-.202-.95-.506-.86-.456-.86-.1-.905.505-.814.253-.95.152-.951.456-.814.253-.905.506-.906.506-.814.506-.77.557-.769.152-.905.202-1.81.304-.906.101-.995.304-1.81.203-.906.303-.905.578-1.434.202-.996-.759-.769-.81-.678-.962-.454-.86-.587-1.113-.363-.86-.588-.507-.905-.405-.905-.102-.905-.759-.68-1.012-.361-1.012-.453-1.114-.18h-3.34l-1.114-.136-1.114-.046h-2.227l-1.063-.045-.961-.498-1.469-2.037-.657-.86-.76-.724-.86-.633-.911-.634-.962-.407-1.063-.226-1.063-.317-1.114-.181-3.036-1.086-1.013-.317-1.113-.226-1.114-.09-1.063-.317-.961-.544-.81-.679-1.418-1.448-.607-.815-.557-.86-1.063-.316-1.063.226-4.251 1.222-1.114.272-.911.588-.709.77-.658.769-.354.905-.405.86-1.012 1.674-.608.77-.506.814-.455.86-.355.905-1.316 1.358h-1.113l-1.114.317-1.113.136-1.114-.091h-1.114l-1.113.181-1.114-.09-1.113-.181-1.114-.272-1.822-1.086-1.062-1.344-.573-.528-.5-.592-.269-.272-.394-.576-.143-.32-.09-.32-.214-.304-.322-.224-.573-.48-.716-.352-.322-.192-.25-.8-.34-.176-.287-.224-.375-.048-1.128-.016-.179-.288-.268-.272-.323-.192-.518-.672-.197-.336-.305-.208-.089-.336v-.352l-.107-.32-.215-.288-.126-.32-.554-.896-.287-.64-.035-.32-.18-.288-.536-1.009-.072-.64-.143-.704-.036-1.024-.071-.32-.144-.32-.07-.32-.109-.32-.035-.32-.09-.32-.34-.607-.107-.32v-.673l-.107-.976v-.32l-.108-.992-.143-.64-.036-.32-.107-.352-.161-.32-.09-.32-.071-.64-.107-.32-.18-.32-.071-.352-.984-2.352-.072-.513-.18-.287-.106-.32-.144-.32-.035-.352v-.32l.053-.337.018-.336-.107-.672-.143-.672-.036-.352.805-2.336v-.992l-.035-.368v-.352l.053-.32v-.672l.036-.32.143-.416.161-.336.107-.368.072-.352.09-1.04.125-.384.233-.272.142-.513.27-.752.661-.896.59-1.904v-2.896l.054-.32v-.337l.072-.672.215-.303.322-.272.197-.289 2.076-4.048.232-.288.841-.768.18-.289.268-.32.125-.367.161-.336.215-.688.179-.289.125-.304.197-.272.555-.976.358-.256.232-.256.25-.224.144-.32.376-.576.107-.304.161-.304.268-.64.126-.656.107-.304.072-.337.161-.32.197-.671.143-.305.215-.704.036-.32.948-3.712v-.72l.054-.32v-.32l.089-.352-.036-1.057.144-.992v-.512l-.072-.672-.107-.352-.18-.352-.429-.56-.269-.272-.465-.577-.518-.543-.251-.304-.43-.609-.25-.272-.609-.464-3.579-1.184-.537-.048-.787-.128-.394-.032-.43.032-4.307 2.004 2.738-2.82-2.044-4.573zm37.38-24.672-1.645-1.47-.253-.408-.76-.724-.405-.363-.506-.248.025-.951.152-.498-.05-.452-.43-.34h-.557l-1.594.407-1.165.09-.531.114-.481.204-.43.34.05.452.33.34.505.09.076.882.304.363.785.588.455.159.506.09h1.519l1.189.883 1.392 1.29.81.543.506-.045.355-.34-.026-.498zm-45.592-15.547h-.38l.557 2.761-.152 1.449 1.544 1.47 1.013.453.91.68 1.114.135 2.126-.498.228-.43-.456-1.81-1.442-1.268-1.67-1.086-2.329-.838z" clip-path="url(#p2275a4c0b6)" style="fill:#00f;fill-opacity:.8"/><path d="m-48.403 280.544-.211-.59.682-1.12 1.482-1.393.407-1.133.187-1.203-.978.096-.565-1.018-.791-1.012-2.207-2.546-1.342-1.779-1.133-1.965-3.967-3.476-4.84-.997-4.923-.884-2.693-1.524-2.083-.376-3.788.376-1.935.979-.253.921-2.083 1.26-1.283.02-.8.77-1.977.377-2-2.916.19-2.446-3.83-4.308-4.902-4.025-6.354-2.333-1.389-.64-.631.565-3.598-1.75-.463-.809-2.777-1.053-.61-.056-.8-1.102.417-.625-.09-.798-.49-.585-.67-.6-.714-.424-.55-.174-.506.027-.655-1.663-1.168-4.392-1.399-.745-.644-.432-.714-1.77-1.696-1.037-2.202-.838-1.384-.732-1.101-.612-.476-1.383-.402-1.038-1.16-.599-2.5-1.21-1.026-.599-1.206-.172-.594.026-.833-.386-1.473-1.024-.7-.426-.089-.372 1.71-.027 1.4-.306 1.71.146.655-1.117.178-1.157-.178-2.075-1.31-3.845-.877-1.238-.893-.69-.55-.6.208-.292.73.452.564-.066.476-.4.105-.718.044-.599v-.372l.982.053.328 1.064 1.056.718 1.22 1.198 1.502.652 3.348.332 3.66 1.65 1.592.745 2.083.771 4.27.785 2.32 1.118 1.176 1.383 1.8 1.996 5.127 1.354 5.237 2.82 3.214.959 3.51-.586 3.81-1.17 2.32.319 3.215.478 2.201 1.171 2.321 1.011 4.166.32 3.309-.562 3.57-4.789 1.905-.958 1.547-1.809 2.856-.212 2.262-2.767-.476-7.344-1.072-7.556-10.711-7.024-5.064-2.218-5.513-1.43-3.787-.413-4.46-2.898 1.724-1.58 5.135-1.806 4.839-1.505 1.767-1.807 1.052-5.757-3.83-9.859-3.029-3.838-2.945.339-.295-2.522-.337-5.155-4.419-3.575-10.183-5.043-2.567.076-2.188-.602-.716-1.317.084-1.242 3.199-.113 5.723 1.242 1.767-.49.968-3.085 2.23-1.167 1.978-1.505 3.282.263 1.557 3.237 1.221 3.5 4.755 3.048 4.755 3.499 2.188 2.973 2.988 4.78 2.02 4.364 4.25 2.71 3.62 1.806.967 1.881-.252 5.456 2.398 4.027 5.429 6.773 6.354 8.467 5.976 3.198.63 2.596-2.356 1.392-.294 3.575 6.017.677 5.892-1.505 7.364-1.242 5.344 2.22 2.315-.112 2.693-1.882 5.176 1.354 3.198-1.316 4.84.677 2.945 2.07 4.881 5.568 2.441 3.086 5.64 2.972 5.301 1.92 7.154 2.407 5.134.075 3.62-.94 2.44 1.693 1.935 4.139-.42 3.273-.21 2.596 3.197 2.785 3.745.79 5.598-2.032 4.544-1.919 2.736-2.107 5.596-1.016 5.85-.94 2.609-1.58.126-3.086-2.44-7.187-1.305-3.236-.59-3.047.506-4.628.547-3.951 1.978-2.521.378-2.145-1.725-4.478-3.072-4.704-4.46-3.198-5.303-1.542-3.072-.264-6.985 2.672-3.283.978-3.66 3.349-1.474 2.183-2.777.978-4.25-.978-3.703.375-1.431-.715-2.946-2.22-2.483-.037-1.851-2.408-1.389-.376-.042-.979.842-1.543-1.557-2.333-2.23-3.95-2.778-1.995-4.797-1.204-1.052-.677 5.008-2.823-1.473-3.612-2.61-4.215-1.767-1.241-3.03-.189-2.23.527-1.894-.715-.8-1.053-1.22-3.086.548-1.806 1.388-1.355 1.6-.602 1.135-.49 1.39-.752 2.355 1.28-.589 2.634.926 1.618 2.23.903 2.02 1.769 3.41 2.37 1.598 3.876 2.23 3.575 1.39-.376 2.608-1.957 3.156-3.161 1.6.113-.295 2.898-1.137 2.972-1.472 3.65 1.683 2.409 4.377 5.493 1.767.753 1.852-.602 3.03-.376 1.977-.415 2.357-.978 4.502-1.43 4.082-1.467 1.481-1.614 3.956-2.333 4.208.527 5.976 4.14 4.797.45 3.283 1.58 2.528 4.145 5.534 3.086 7.915 5.428 2.381 4.257-.714 5.854-1.607 3.99 4.106-1.968 6.25-4.683 1.725-3.991 5.237-.639 1.19-2.607 9.423-7.813 14.813-5.568 6.228-7.075 7.406-1.204 5.387.15 3.64-1.428 7.44-4.843 5.416-5.056 3.57-5.055 3.928-2.235 2.044 4.573-2.738 2.82-4.225 4.95-4.047 4.576-3.452 3.885-3.273 1.49-3.154 1.277-2.44 1.224-4.523 2.022-4.403 1.384-4.107 4.47-1.796 2.37-.379-.074-.526.17-.462.432.02.508.253.526.274.509-.484 1.053-.38.677-.567.075.294.49-1.03 2.276-3.472 5.174.484.301-1.747 1.43-1.262 1.693-.842 1.148.21 1.543-1.661 1.147-2.336.226-1.977.884-1.515 1.091-.99 1.449-.567 1.486-.695 1.468.21.771-1.052.771-1.283.094-3.724-.113-4.103.96-2.062.771-3.766 1.957-2.167 2.784-.842 1.825-1.536.94-2.23 1.393v1.58l.504 2.183 1.431 1.034 2.252 1.223 2.462 1.411.8.771-1.874.565-1.514.564-1.684.546-1.094 1.617-.21.922.041 1.373.99 4.045.315 1.505-.253 2.39v1.56l-.547 1.656v.81l.274 1.053.21 1.279 1.01.753.316 1.241-.673 1.223-.295.922.8 1.806.252.902.548 1.073.42.865-.147.414-.716-.489-1.052-.564-1.304-.96-.295-.696.274-.733-1.578-.452.357-.696.358-.339.147-.846.695-1.374.147-.64-.989-.864-1.494-2.089-2.062-2.784-3.114-2.84-2.23-2.164-1.01.395-1.283 1.336-1.242 1.335-.904.302-1.684 1.185-2.546 1.336-1.557 1.241-2.567.94-1.115.283-1.984.327h-2.113l-2.38-.026-2.113 1.383-2.678.904-1.755 1.943-.209 2.341-.12 2.368-.654 2.101.15 2.58.535 1.384.595 1.703-.654.452-2.024-3.379-4.493-4.15-2.113-1.755-2.142-1.091-2.59-.266-1.07 1.436-.953 2.5-1.22.693-1.398.319-1.756-.372-1.844-.825-.774-1.384-.179-1.915-2.618-2.58-2.648-2.74-3.214-2.05-3.898-1.862-1.786.719-3.51-1.011-3.244-2.208-1.904-2.581-.03-1.304-.655-1.916-1.041-2.287-4.731-3.991-5.357-.08-2.261.16-1.488.532-1.398.984-1.816.4.239-2.448.505-1.517-.625-1.73-1.785-1.276-4.255-2.714-1.488.559-2.023.532-.923 1.703-.833 1.676-1.16.24.149.611.863.425-.566 2.076-.803 2.42-.774.56-.833.505-.684 1.33-.239 1.623.447 1.33.06 1.171.505.985-.254 1.517-2.795 1.308-1.726.851-1.755.799-2.812 1.622-1.146.599-1.011.625-.744.665-.715.346-.357.266-.282.705-.194.945.15.186-.205.19.126.08-5.609 7.387-.308-.198-4.494 3.592-3.005 4.416-2.5 4.018-.825 1.503-.923 1.546-.626-.21-.25-1.297-.863.196-.75-.502-.811 1.55-1.02 2.11-.791.014.384-.982-.9-.314-.489.862z" clip-path="url(#p2275a4c0b6)" style="fill:#00f;fill-opacity:.8"/></g><g id="PatchCollection_2"><path d="m179.016 137.958-2.083 2.652 4.139 2.6 2.083-2.651zM181.402 136.837l-1 1.364 2.53 1.481.999-1.364zM395.745 379.029l.827 1.38 2.435-1.167-.828-1.38zM396.236 377.552l.385.644 1.418-.68-.385-.642zM394.81 378.021l1.057-.524.594.957-1.058.524z" clip-path="url(#p2275a4c0b6)" style="fill:#90ee90;fill-opacity:.8"/></g><g id="PatchCollection_3"><path d="m297.872 279.755.919.039-.383 7.2-.92-.039zM299.249 281.717l.59-.003.047 6.05-.616.005-.01-1.344-.282.002-.003-.38.308-.003zM301.228 283.569l.65-.003.02 4.147.172-.001.001.401h-.11l.006 1.355-.712.002zM302.846 284.368l.735.01-.093 6.046-.765-.01.022-1.454-.169-.002.006-.409.2.003zM385.922 369.34l1.845.149-.19 1.89-1.845-.148zM316.076 449.172l.734-.706 5.875 4.882-.734.705zM317.406 448.135l.722-.69 5.797 4.847-.722.69zM321.146 394.744l.937.18-1.423 5.925-.936-.18zM319.84 393.488l.737.267-1.998 4.408-.737-.268zM374.577 435.662l.497-.14 1.088 3.056-.497.141zM463.52 355l.038.813 7.816-.285-.037-.814zM463.207 353.44l.04.921 8.123-.284-.04-.92zM460.373 352.046l.018.634 4.878-.105-.017-.634zM387.258 383.29l1.44-.713.951 1.534-1.44.713zM341.741 532.798l5.507-3.06-.365-.526-5.507 3.061zM308.73 556.155l6.225-1.706-.237-.691-6.225 1.704zM308.274 554.78l6.306-1.602-.193-.607-6.306 1.601zM625.501 495.797l-.246-.36.507-.277.246.36zM628.768 486.233l.24.05-.15.57-.24-.05zM628.458 484.855l.54-.49.411.362-.539.49zM630.204 484.635l.592.49-.45.433-.592-.49zM630.369 483.475l.675-.558 2.02 1.952-.435.36-1.647-1.592-.24.199zM239.326 269.342l2.163-1.165 3.015 4.473-2.163 1.165zM246.175 275.98l.34.368-.632.5-.364-.363zM214.65 180.203l.227.027-.042.283-.227-.027zM203.452 185.762l.342.108-.137.346-.342-.108zM203.625 185.492l.508-.324.346.434-.509.324zM193.118 208.013l-.253.01.016.319.253-.01zM215.935 178.464l.053-.435-.244-.024-.054.436zM207.25 177.904l.08.257.444-.11-.08-.257zM207.888 176.93l-.027-.768-.436.013.027.767zM252.08 175.026l.523.15.311-.868-.524-.15zM199.308 202.77l-.197-.046-.142.483.197.047zM254.325 174.196l-.331-.087-.11.337.331.086zM258.848 170.158l.768.5.335-.41-.767-.501zM249.041 177.91l.267.209.3-.306-.266-.21zM176.89 141.467l.204-.285-.319-.183-.204.285zM212.382 177.621l.344-.015-.027-.484-.345.015zM193.8 207.912l-.043-.181-.404.077.043.18zM200.563 185.28l.257.082.167-.417-.256-.082zM254.577 175.332l.112-.43-.44-.091-.113.43zM253.689 176.45l.458-.454-.313-.253-.459.453zM193.172 208.878l.018.423.324-.012-.019-.423zM254.352 174.509l.377.085.06-.209-.378-.085zM196.012 207.876l-.011.29.478.015.032-.805-.669-.021-.02.515zM253.803 175.501l.367.157.131-.246-.367-.157zM195.68 206.248l1.06.179.257-1.216-1.06-.178zM216.929 179.147l.28-.304-.402-.296-.28.303zM216.261 179.824l.62.271.275-.503-.62-.27zM201.938 181.057l-.092.12-.411-.253-.214.278.23.142-.214.277.431.264.519-.676zM197.625 203.784l.148-.419-.582-.163-.203.58.35.098.057-.16zM250.214 176.822l-.487-.18-.254.548.487.18zM258.743 169.38l-.377-.246-.476.585.378.246zM203.683 187.53l.149-.515-.595-.137-.148.515zM607.563 166.813v-.309h.365v.309zM607.5 167.6l-.01-.525.4-.006.01.524zM606.14 167.398l.053-.485.803.07-.053.484z" clip-path="url(#p2275a4c0b6)" style="fill:#a9a9a9;fill-opacity:.8"/></g><g id="PathCollection_1"><defs><path id="m68fbc0fb63" d="M0 3a3 3 0 1 0 0-6 3 3 0 0 0 0 6z" style="stroke:#a9a9a9;stroke-opacity:.8"/></defs><g clip-path="url(#p2275a4c0b6)"><use xlink:href="#m68fbc0fb63" x="229.516" y="589.669" style="fill:#a9a9a9;fill-opacity:.8;stroke:#a9a9a9;stroke-opacity:.8"/><use xlink:href="#m68fbc0fb63" x="216.214" y="399.97" style="fill:#a9a9a9;fill-opacity:.8;stroke:#a9a9a9;stroke-opacity:.8"/><use xlink:href="#m68fbc0fb63" x="382.678" y="391.915" style="fill:#a9a9a9;fill-opacity:.8;stroke:#a9a9a9;stroke-opacity:.8"/></g></g></g></g><defs><clipPath id="p2275a4c0b6"><path d="M90 108.95h558v509.3H90z"/></clipPath></defs></svg>