<svg xmlns="http://www.w3.org/2000/svg" xmlns:xlink="http://www.w3.org/1999/xlink" width="960" height="960" viewBox="0 0 720 720"><defs><style>*{stroke-linejoin:round;stroke-linecap:butt}</style></defs><g id="figure_1"><path id="patch_1" d="M0 720h720V0H0z" style="fill:#fff"/><g id="axes_1"><path id="patch_2" d="M95.902 640.8h546.196V86.4H95.902z" style="fill:#fff"/><g id="LineCollection_1"><path d="m465.522 504.288-3.784.055M465.522 504.288l2.144-.565M463.37 499.615l1.26 2.857.892 1.816M468.012 506.678l-.723-.334-.751-.353-.2-.055-.145-.082-.131-.11-.056-.152.023-.74-.04-.156-.047-.122-.136-.11-.284-.176M463.45 496.514l.032.4-.112 2.7M461.738 504.343l.688-1.722.944-3.006M419.239 411.359l-2.984-7.728M416.486 413.015l1.737-.72.348-.224.228-.2.224-.214.216-.298" clip-path="url(#p303e3f7570)" style="fill:none;stroke:#000"/><path d="m431.437 436.749-.351-.697-.345-.97-.343-1.966-.896-4.087-1.144-4.439-.572-1.886-.34-.897-.424-.865-.6-1.065-2.716-4.42-1.18-1.585-1.163-1.71-.188-.286-.192-.196-.22-.122-.344-.129-.4-.039-.78-.031M412.24 391.19l2.135-.297M412.24 391.19l1.052 3.336M412.24 391.19l-.16-.493M567.534 308.386l1.984-1.464M480.712 341.231l.904-.187 2.983-.713 2.44-.908 1.256-.627 1.536-.799 1-.477.968-.43 1.775-.627 4.512-1.714 1.576-.658 2.328-1.182 4.91-2.874 2.248-1.175 2.248-1.017 2.496-1.057 2.08-.681 10.655-3.774 15.534-6.013 2.24-.94 2.455-1.182 2.048-1.128 3.967-2.098 1.736-.76 1.904-.665 1.808-.61 2.103-.596 1.464-.297 1.712-.07 1.576.078 2.36.336M571.805 311.229l-1.084-.999-.712-.536-1.156-.627-1.319-.681M469.76 339.619l2.145.203M469.76 339.619l3.347-.949M464.545 340.543l2.945-.54 2.27-.384M420.825 357.159l.078.383M420.825 357.159l-.706-.038-.26-.02-1.764-.39M420.825 357.159l.665-.16M427.956 389.351l-1.1-5.12M427.956 389.351l.146.602M427.956 389.351l-.7.131M382.573 322.787l-.146-.07-15.742-7.041-10.935-4.859M242.557 259.01l4.506 3.42 2.952 1.701 3.38 1.701 40.074 17.538 6.008 2.686 8.743 3.813 16.622 7.336 7.215 3.21 7.127 3.125 4.307 1.895 12.26 5.382" clip-path="url(#p303e3f7570)" style="fill:none;stroke:#000"/><path d="m373.273 347.518-.085-.227-1.768-6.13-1.864-5.41-1.083-3.37-.508-1.234-.584-1.276-1.72-3.806-.444-.864-4.343-7.048-1.384-1.812-1.504-1.906-2.236-3.618M333.153 283.096l.976.729.72.555.695.587 3.256 2.984 1.832 1.832.904.923.688.729.592.642.511.602.497.666 1.68 2.404 1.335 2.067.76 1.104.736 1.073 3.096 4.173.44.587 1.103 1.613 1.232 2.044 1.544 2.407M133.73 318.467l-3.104 3.971-2.158 2.524M416.94 338.358l.371 3.625M416.94 338.358l.567.415.672.63.56.709.548.842.514 1.064.438.916.215.544M413.35 336.802l1.334.514 1.515.686.74.356M424.442 353.727l-1.271-3.276M424.442 353.727l.066.419.022.243.026.305-.008.409M425.158 354.657l-.208-.19-.108-.108-.152-.246-.248-.386M406.132 333.63l-.104.233M406.132 333.63l.26-.475M406.132 333.63l4.22 1.88M406.132 333.63l-.766-.612M235.156 211.019l.313 1.235M235.156 211.019l1.147.285M228.59 206.696l2.018 2.68.5.453.621.25 3.427.94M236.444 219.745l.058.444M236.444 219.745l-3.476.81M235.469 212.254l.185 2.164.125.69.116.51.328 1.281.052.684.169 2.162M236.444 219.745l5.392-1.295M207.135 188.446l-12.637-6.123-14.398-8.77-4.394-2.998-2.559-3.006-.726-1.388-1.025-11.088.151-2.057-.832-1.504-3.35-1.513-5.48-3.499-11.967-7.078-18.773-17.863-7.077-9.012-11.647-5.512-6.015-4.26M228.817 221.538l.734 2.663M228.817 221.538l4.151-.984M222.872 225.894l-.279-2.881 6.224-1.475M233.51 223.259l3.338-.43M233.51 223.259l-3.959.942M233.51 223.259l.756 3.763M233.51 223.259l-.455-2.273M241.836 218.45l.11.431M241.836 218.45l1.084-.253M241.836 218.45l-1.1-4.27M230.228 227.932l-.677-3.73M230.228 227.932l3.74-.842M230.228 227.932l-.93.19M243.51 224.952l1.59 7.097M243.51 224.952l1.036-.268M243.51 224.952l-6.211 1.362M243.51 224.952l-.565-2.2M240.035 211.457l.701 2.723M236.303 211.304l1.908.42.579.04 1.245-.307M243.467 211.46l-.199-.705-.233-.29-.337-.062-2.217.517-.295.207-.15.33M236.848 222.828l-.346-2.639M236.848 222.828l.141 1.092M236.848 222.828l3.478-.54M413.912 376.761l-3.944-.258M413.912 376.761l2.54.098M413.912 376.761l.015-3.805M413.912 376.761l.071 3.758M419.975 386.544l-.392-2.478M419.975 386.544l.969 3.783M419.975 386.544l-5.772.881M429.034 394.12l-.452-2.358M429.034 394.12l-.769.141M428.265 394.261l.259 1.555.054.245.078.143.092.087.14.045.14.002.136-.028.109-.048.062-.078.04-.128-.001-.182-.024-.16-.316-1.595M429.034 394.12l3.308-.565M409.888 347.322l-.632-.023M409.888 347.322v-7.93M409.808 352.804l.012-1.197.068-4.285M406.119 391.963l-8.418 1.706M406.119 391.963l3.079-.61M406.119 391.963l.578 2.563M405.245 389.736l.3.374.127.211.079.197.368 1.445M416.671 372.98l-.22 3.88M416.671 372.98l1.784.023M416.671 372.98l-.791-.04M411.256 387.856l2.947-.43M411.256 387.856l-6.364 1.157M411.256 387.856l.824 2.841M411.256 387.856l-.504-4.91M397.949 396.553l8.748-2.027M397.949 396.553l-.203-2.508M397.179 399.449l.027-.781-.04-1.609.003-.114.022-.098.076-.098.11-.068.113-.05.136-.034.323-.044M400.985 351.793l-.84-.54M400.985 351.793l.798-4.939M401.785 354.385l-.192-.806-.136-.47-.176-.494-.296-.822M416.255 403.631l-2.591.916M416.255 403.631l-1.24-3.68M422.214 398.77l.373 1.867-.015.217-.03.184-.06.147-.132.168-6.095 2.278M418.067 376.926l.388-3.923M418.067 376.926l-1.615-.067M418.067 376.926l6.515.525M378.812 358.871l2.871-3.875M378.812 358.871l3.623 3.891M378.507 349.429l.305.29.154.09.106.05.093.026.383.062.053.027.043.043.03.048.014.048.005.071.01.564-.004.18.02.108.023.096.078.144.164.345.075.258.02.231-.015.25-.197 1.054-.272 1.237-.136.583-.235.76-.524 1.421-.068.364-.057.356.026.586.017.061.031.047.04.036.042.02.034.004.047-.018M415.015 399.952l-.783-2.576M415.015 399.952l7.2-1.182M389.83 325.952l8.643 3.922M389.83 325.952l-3.023-1.347M389.83 325.952l.044.462M389.83 325.952l-.036-.485M410.967 335.275l-.447-.213M410.967 335.275l-.175.448M410.967 335.275l1.832.754M408.58 358.726l-.072 2.24.036.16.056.086.074.073.35.178M408.728 363.287l.1-1.591.026-.084.03-.06.052-.044.039-.022.048-.023" clip-path="url(#p303e3f7570)" style="fill:none;stroke:#000"/><path d="m409.706 361.5-.515-.052h-.089l-.079.015M397.577 342.077l4.54 2.773M397.577 342.077l-2.647-1.206M397.577 342.077l8.159-7.907M404.685 337.99l4.62 1.3M404.685 337.99l-.716 1.942M404.685 337.99l1.319-4.038M435.585 393.191l-.244-1.804M435.585 393.191l-3.243.364M438.181 392.389l.074 2.781-.014.135-.054.098-.082.06-.106.016-1.878-.033-.126-.025-.106-.043-.076-.063-.036-.082-.192-2.042M418.975 380.457l.608 3.609M418.975 380.457l6.363-.092M418.975 380.457l-4.992.062M390.706 345.827l1.38-.932M390.706 345.827l.251-1.176M390.706 345.827l-5.471 4.244M390.706 345.827l-2.683-1.887M398.325 349.84l-.54-.42-.572-.406-.611-.348-.96-.368-1.74-.69-.872-.422-.832-.42-1.492-.939M385.235 350.07l-3.552 4.926M378.507 349.429l3.232.313 3.496.329M414.203 387.425l-.091-3.406M414.203 387.425l.172 3.468M415.983 370.6l-.103 2.34M415.983 370.6l-2.087-.016M415.983 370.6l.376-3.664M413.896 370.584l-1.505-.047M413.896 370.584l.031 2.372M407.312 397.14l-2.815.768M407.312 397.14l-.615-2.614M409.531 406.056l-1.083-4.163-1.136-4.752M412.504 340.08l2.047.799M412.504 340.08l-2.616-.689M412.504 340.08l.847-3.278M411.544 348.763l.104-3.57.112-1.19.2-1.174.544-2.749M417.6 349.014l-2.792-.212M417.6 349.014l-.159-4.442M422.617 349.568l-.536-.05-4.482-.504M408.128 370.325l4.263.212M408.128 370.325l-4.401-.478M408.128 370.325l-.024.2M408.128 370.325l.312-4.016M416.36 366.936l2.567.266M416.36 366.936l-3.69-.285M409.808 352.804l-.918-.188M409.808 352.804l1.213.354M397.179 399.449l1.918-.374M395.879 404.73l1.1-4.266.2-1.015M406.753 350.094l-.482 1.65M406.753 350.094l-2.784-10.162M409.256 347.3l-.688.011-.22.047-.224.117-.164.177-1.207 2.442M397.701 393.669l-.244-1.28M397.701 393.669l.045.376M409.968 376.503l-.128-1.378M410.752 382.946l-.28-2.536-.504-3.907M409.888 339.391l-.584-.102M409.888 339.391l.904-3.668M420.944 390.327l.319 2.9M420.944 390.327l3.555-.474M420.944 390.327l-6.569.566M418.927 367.202l-.472 5.801M418.927 367.202l3.746.625M417.311 341.983l-2.76-1.104M417.311 341.983l.042.846M411.02 353.158l-.348 2.339M411.02 353.158l.524-4.395M403.969 339.932l-1.852 4.918M422.214 398.77l-.391-2.631M406.426 406.946l-2.233.647M406.426 406.946l3.105-.89M406.426 406.946l-1.93-9.038M406.426 406.946l2.062 10.715M434.197 368.58l2.576-.298M434.197 368.58l-2.743.407M434.197 368.58l1.696 9.645M434.197 368.58l-2.664-15.393M389.25 358.573l-3.555-1.569-4.012-2.008M402.117 344.85l-.334 2.004M429.646 377.717l1.94 11.97M429.646 377.717l-1.448-8.182M429.646 377.717l-4.32-.25M429.646 377.717l3.343.258M391.56 339.177l-1.686-12.763M391.56 339.177l-.232 2.302M391.56 339.177l3.37 1.694M421.999 362.34l-.528-.04M421.999 362.34l-.448-.737M421.999 362.34l.216.779M431.533 353.187l-.175-.584M431.533 353.187l2.512-.767M431.533 353.187l-2.687.97M432.99 377.975l2.903.25M432.99 377.975l2.351 13.412M432.99 377.975l-1.536-8.988M423.743 370.318l4.455-.783M423.743 370.318l-.513-2.407M423.743 370.318l.802 3.412M411.544 348.763l3.264.04M404.497 397.908l-2.824.666M428.198 369.535l3.256-.548M425.863 355.962l.351 1.633 1.984 11.94M425.326 377.466l-.744-.015M425.326 377.466l-.78-3.736M425.326 377.466l.658 2.898M229.297 228.122l-.758 2.952M221.869 229.347l3.832-.646 3.596-.579M224.332 244.964l2.021-5.826 1.447-5.127.739-2.937M233.876 231.798l-1.172.26-.52.043-.403-.08-3.242-.947M254.046 231.86l-1.866-.165M254.046 231.86l4.99-9.834M254.046 231.86l-1.75 3.36M260.683 234.307l-3.721-1.934-2.916-.512M246.331 231.808l-1.23.241M246.331 231.808l-1.785-7.124M248.858 232.066l-1.007.112-.451.023-.42-.114-.649-.28M235.469 212.254l.834-.95M237.299 226.314l-.31-2.394M237.299 226.314l-3.033.708M224.332 244.964l3.717 2.88M224.332 244.964l-.278-.208M259.036 222.026l-.458-.169M260.683 234.307l1.429-3.152.232-.785.127-.723.042-4.092-.105-.806-.296-.496-1.372-1.198-1.704-1.03M222.872 225.894l6.68-1.693M222.872 225.894l-1.35.602M252.18 231.695l-3.322.371M258.578 221.857l-1.821-.67-4.577 10.508M244.546 224.684l-.537-2.142M242.92 218.197l1.695-.402M242.92 218.197l-1.096-4.328M242.92 218.197l.108.431M224.054 244.756l-1.887-1.411-1.825-1.117M216.414 240.58l2.682.886 1.246.762M220.922 229.52l.4 2.685-.091 2.192-.89 7.83M248.883 234.291l-3.225-.423-.352-.438-.206-1.38M210.55 230.44l-4.344-2.11M221.522 226.496l-1.776.792-4.092 1.02-5.104 2.132" clip-path="url(#p303e3f7570)" style="fill:none;stroke:#000"/><path d="m212.407 231.285-.96-.399-.897-.446M220.922 229.52l.947-.173M220.922 229.52l-4.7.94M197.278 223.994l8.928 4.336M207.883 239.089l-2.895.32-2.872.63-2.682 1.035-3.58 1.97-2.613 1.944-2.27 2.225-13.466 16.398M133.73 318.467l14.034-17.969 29.74-36.887M216.222 230.46l-2.95.615M216.414 240.58l.276-2.015.04-.55-.12-5.465-.388-2.09M216.414 240.58l-2.395-.79M403.193 375.783l-4.922.936M403.193 375.783l.478-.044M403.193 375.783l.534-5.936M402.725 379.513l-.068-1.765.08-.697.176-.564.28-.704M405.816 354.899l.455-3.154M405.816 354.899l1.7.375M405.816 354.899l-4.031-.514M405.816 354.899l-.38 1.208M408.44 366.31l2.816.218M408.44 366.31l.248-2.412M435.341 391.387l2.84 1.002M435.341 391.387l-3.62-.96M435.655 351.428l.756-.227M435.655 351.428l-2.03.416M435.655 351.428l-1.61.992M440.872 393.496l-2.691-1.107M439.802 384.891l.81 4.671.26 3.934M471.994 454.45l.327-.916.624-3.187.52-4.133.44-3.938.055-1.073.017-.931-.113-.963-.671-5.05-.14-.983-.092-.461-.088-.176-.136-.142-.224-.16-1.924-.795-.304-.156-.144-.114-.116-.152-.12-.231-.14-.443-.724-3.492-.136-.598-.184-.588-.404-1.096-.244-.614-.14-.56-.34-1.476-.128-.68-.08-.6-.031-1.676-.129-1.874-.504-3.261-.343-1.613-.152-.681-.48-1.437-1.009-2.082-1.863-3.257-.292-.549-.224-.277-.296-.282-.396-.247-3.648-2.082-.752-.377-2.391-.923-3.256-1.308-5.399-2.528-5.348-2.792M435.893 378.225l1.044 6.51M438.477 377.873l-.624.11-1.96.242M436.937 384.734l.756 4.71.488 2.945M438.477 377.873l-1.034-5.817M439.802 384.891l-.39-2.242-.935-4.776M428.102 389.953l3.483-.266M428.102 389.953l.48 1.81M432.891 396.158l-.55-2.603M431.454 368.987l-2.608-14.83M436.773 368.282l.67 3.774M436.773 368.282l-1.748-10.096M428.846 354.157l-.2-.68M428.846 354.157l-.823.242M418.095 356.71l-7.423-1.213M418.095 356.71l-.128.564M417.527 361.971l-.092.609M417.527 361.971l.224-2.541M417.527 361.971l-3.42-.39-.467-.036-.452.023-.37.073M417.527 361.971l3.944.33M417.75 359.43l.217-2.156M417.75 359.43l-4.75-.45M404.849 358.347l-3.672-.439M404.849 358.347l-.436 4.53M404.849 358.347l.192-.987M407.133 358.585l-1.116-.137-1.168-.101M401.177 357.908l-.352 4.588M401.177 357.908l.2-1.166M407.516 355.274l.198.148M407.516 355.274l.248-.05M407.133 358.585l1.447.141M407.133 358.585l.581-3.163M412.2 361.79l.512.213M411.934 361.77l.114.007.152.013M412.817 361.64l-.05.01-.198.05-.369.09M412.271 366.616l.4.035M412.271 366.616l-1.015-.088M412.271 366.616l.44-4.613M411.934 361.77l-.338 2.373M411.934 361.77l-2.228-.27M411.256 366.528l.34-2.385M411.596 364.143l-2.908-.245M408.688 363.898l.04-.61M423.23 367.911l-.557-.084M423.23 367.911l-1.015-4.792M413.927 372.956l1.953-.015M418.455 373.003l5.462.678M424.545 373.73l-.628-.049M409.84 375.125l-1.978.14M408.104 370.525l.416 1.092.184.294.272.34.228.38.144.318.148.387.344 1.789M407.862 375.265l-4.191.474M408.104 370.525l-.157 2.177-.085 2.563M413.983 380.52l.129 3.5M425.984 380.364h-.646M425.984 380.364l.872 3.868M403.67 375.74l.539 8.733M404.892 389.013l.353.723M404.892 389.013l-.683-4.54M403.338 390.179l1.907-.443M403.338 390.179l-.103-2.838M397.457 392.389l5.376-1.44.214-.08.116-.08.068-.086.058-.19.05-.334M403.009 384.677l1.2-.204M403.009 384.677l.226 2.664M403.009 384.677l-.176-2.928M404.209 384.473l6.543-1.527M414.112 384.02l5.47.046M419.583 384.066l3.873.093M409.198 391.353l4.466 13.194M409.198 391.353l2.882-.656M413.664 404.547l-4.133 1.509M413.664 404.547l2.822 8.468M413.292 394.526l7.97-1.3M413.292 394.526l.94 2.85M421.263 393.226l.56 2.913M421.263 393.226l4.439-.83M428.582 391.762l-.812.165M425.39 389.735l.312 2.662M425.39 389.735l1.866-.253M425.39 389.735l-.891.118M425.702 392.397l2.068-.47M425.702 392.397l.364 3.115M426.375 397.892l-.309-2.38M414.232 397.376l7.59-1.237M421.823 396.139l4.243-.627M409.531 406.056l2.209 8.802M408.488 417.661l-2.998.223M411.74 414.858l.498 1.678.012.152-.018.14-.084.14-.118.126-.17.078-3.372.49M417.53 415.355l-1.044-2.34M411.74 414.858l4.746-1.843M402.56 407.961l1.633-.368M404.073 414.076l-.076-1.257-.06-.481-.176-.776-.185-.641-.591-1.825-.424-1.135M399.097 399.075l.464 2.936.208.736.232.68.32.658 2.24 3.876M403.235 387.341l-2.973.28M394.222 387.954l6.04-.332M393.018 380.1l-.224.928-.216.81-.236.827-.176.724-.012.532.08.705.208.614.358.642.334.533.543.844.545.695M397.457 392.389l-.804-1.272-.708-.987-.743-.979-.98-1.197" clip-path="url(#p303e3f7570)" style="fill:none;stroke:#000"/><path d="m402.725 379.513-4.196.196-5.511.392M391.17 361.854l.488 2.584.224.908.28.87.704 2.027.328 2.13.14.5.072.326.048.344-.036.474-.068.458-.204.646-.54 1.225-.096.403-.012.36.06.392.2.689.372 1.68.052.665-.028.56-.136 1.006M402.725 379.513l.108 2.236M399.108 354.306l-1.028-.604M399.108 354.306l2.677.08M399.108 354.306l-.499 1.927M395.917 352.71l2.163.992M395.917 352.71l2.408-2.87M395.917 352.71l-2.783 2.806M401.785 354.385l-.14.81M400.825 362.496l3.588.38M400.825 362.496l-3.32-.313M397.505 362.183l-6.335-.33M398.61 356.233l-.289 1.566-.816 4.384M404.413 362.876l4.315.411M404.413 362.876l-.686 6.971M386.393 363.99l2.857-5.417M393.134 355.516l-.644-.02-.656.016-.236.04-.268.078-.276.153-.256.187-1.548 2.603" clip-path="url(#p303e3f7570)" style="fill:none;stroke:#000"/><path d="m391.17 361.854-.416-1.809-.236-.704-.1-.196-.172-.184-.244-.148-.752-.24M398.61 356.233l-5.476-.717M398.325 349.84l1.82 1.413M393.758 343.83l.772-1.925M392.085 344.895l.433-.18.416-.258.38-.29.444-.336M401.783 346.854l-1.303-.599-2.07-.682-4.652-1.742M406.27 351.745l-1.878-2.105-1.455-1.82-.408-.52-.308-.302-.438-.144M406.27 351.745l2.62.871M428.023 354.399l-.209-.687M426.078 355.512l.396-.38.4-.25.46-.215.69-.268M423.757 340.627l1.401 4.55M434.045 352.42l.98 5.766M434.045 352.42l-.42-.576M430.454 342.852l-2.528 1.198M430.454 342.852l2.6-1.295M433.625 351.844l-.604-1.342-1.08-3.023-1.487-4.627M431.016 336.98l-.096-.041-.1-.026-.104.006-1.49.542-.192.13-.128.117-.06.168.032.2 1.576 4.776M427.926 344.05l2.576 8.831M427.926 344.05l-2.768 1.128M421.982 330.99l3.584 7.094.834.608 1.526 5.358M425.158 345.178l2.656 8.534M422.479 348.047l.36-1.323.187-.345.304-.262.42-.255 1.408-.684M414.551 340.879l.257 7.923M423.17 350.45l-.187-.877M422.617 349.568l.05.096.504.787M413.488 336.322l-.137.48M413.488 336.322l-.689-.293M422.479 348.047l-1.152-3.41-.693-1.879-.731-1.586-.488-.888-.424-.568-.602-.728-.292-.307-.602-.47-.38-.245-.53-.287-3.097-1.357M398.473 329.874l2.396 1.128M398.473 329.874l-.184.392M398.473 329.874l.22-.461M394.93 340.871l-.4 1.034M394.93 340.871l2.143-6.588M392.085 344.895l-1.128-.244M388.023 343.94l-.572-.352M388.023 343.94l2.934.71M387.45 343.588l-2.755-2.122M387.45 343.588l-.632-18.552M386.807 324.605l-2.774-1.206M386.807 324.605l.011.43M384.033 323.4l-.022.473M382.573 322.787l1.228.514.232.098M391.328 341.479l-.37 3.172M394.53 341.905l-2.008-.96-.13-.034-.156-.017-.132.017-.146.052-.63.516M449.9 344.99l-1.464.696M458.57 341.965l-.558.168-3.53 1.197-4.583 1.66M454.601 339.957l-4.957 1.775-.265.122-.22.133-.103.172-.008.15.027.19.824 2.49M472.598 336.097l1.211-.217M472.598 336.097l-1.557.249M472.598 336.097l.509 2.573M459.474 341.693l-.904.272M459.474 341.693l-.192-3.366M464.545 340.543l-1.911.399-3.16.751M459.282 338.327l2.608-.486M459.282 338.327l-.216-2.698M454.601 339.957l2.041-.73 2.64-.9M464.545 340.543l-.367-3.101M464.178 337.442l.562-.09M464.178 337.442l-2.288.4M461.28 331.451l.275 2.213.335 4.177M433.054 341.557l3.357 9.644M431.016 336.98l.068.086 1.97 4.49M444.62 347.519l-1.888.986-2.876 1.433-.755.336-.828.306-1.862.62M417.967 357.274l1.746.33.38.044.338-.01.472-.096M417.967 357.274l-4.775-.865M233.055 220.986l3.447-.797M233.055 220.986l-.087-.432M236.502 220.19l5.445-1.309M241.947 218.881l1.08-.253M241.947 218.881l.998 3.87M243.028 218.628l.98 3.914M234.266 227.022l-.298.068M241.824 213.869l-1.088.31M243.467 211.46l.392 1.382-.021.268-.148.248-1.866.51M251.16 204.187l-.605.405M365.78 168.355l-.895.767-1.288 1.041-1.336 1.041-1.304.948-1.375.9-1.704 1.104-1.168.729-1.104.689-.967.65-1.353.97-1.855 1.316-.656.384-.496.22-.512.171-.56.125-1.096.173-9.255 1.308-3.983.594-1.304.212-1.48.313-1.792.4-1.423.391-3.056.799-18.198 4.682-5.351 1.48-4.96 1.355-8.983 2.31-1.68.391-1.688.345-1.224.14-1 .079-.967-.008-.768-.062-.824-.102h-.552l-.744.086-.736.149-3.4 1.033-3.943 1.261-1.328.477-.896.33-.896.399-1.048.548-2.24 1.206-.439.313-.392.313-.416.478-.76.885-.856.947-.76.76-.696.524-.428.259-.428.2-.52.175-.528.055-.631.016-.8-.149-2.48-.485-.952-.126-.68.008-.728.118-.738.197M258.578 221.857l.127-1.285-.383-1.567-.384-1.284-1.088-4.886-.48-.846-.832-.658-.8-.626-.384-.47-.736-1.88-1.12-1.722-1.338-2.446M250.555 204.592l-.26.174-.296.371-.464.6-3.083 3.41-.57.516-1.667 1.116-.748.68M240.326 222.287l.092.96M240.326 222.287l-.151-1.471M236.99 223.92l3.428-.673M242.945 222.751l1.064-.209M242.945 222.751l-2.527.496M333.153 283.096l-1.904-1.394-5.543-4.228-2.312-1.714-1.912-1.37-2.752-1.887-2.119-1.527-1.408-1.018-3.384-2.608-4.895-3.766-2.288-1.73-1.335-1.034-.673-.54-.727-.595-.736-.619-.985-.83-.504-.391-.495-.368-.76-.509-.712-.446-.864-.502-1.024-.547-1.743-.901-6.104-3.273-3.192-1.777-2.087-1.214-3.464-2.153-2.256-1.464-2.495-1.535-2.432-1.379-2.112-1.346-9.253-6.124M251.803 236.167l.494-.948M233.876 231.798l.844-.188-.752-4.52M221.522 226.496l.347 2.851M213.272 231.075l-.865.21M213.272 231.075l.747 8.714M210.2 239.09l3.152.544.667.155M209.624 232.4l2.783-1.115M209.624 232.4l.577 6.69M210.2 239.09l-.865-.044M209.335 239.046l-.67-.008-.782.05M186.552 255.677l.389-.38.897-.736 1.697-1.163 1.794-1.376 5.044-4.154 6.402-4.676 2.837-1.923 1.31-.854.533-.475.428-.851M209.904 248.84l.363-2.23v-1.543l-.169-1.02-.316-1.093-.824-1.234-.12-.546.072-.57.425-1.558M389.803 324.993l-.173-2.048M389.803 324.993l-.009.474M397.666 309.96l1.515 1.738.12.215.06.177-.012.238-.076.24-9.47 12.425M393.858 305.889l1.48.736 2.063 1.139.213.164.22.227.135.294.004.391-.072.529-.235.591M389.63 322.945l.128-1.808.052-.353.108-.3.168-.271 7.58-10.253" clip-path="url(#p303e3f7570)" style="fill:none;stroke:#000"/><path d="m386.523 321.603.023-2.721-.003-.376.043-.348.153-.416 7.119-11.853" clip-path="url(#p303e3f7570)" style="fill:none;stroke:#000"/><path d="m382.915 262.895.176 1.464.064 1.332.008 2.646-.032 1.057-.056 1.722.008.69-.008.665.088.908.072.642.12.713.208 1.018 1.08 5.199.136.72.144.893.096 1.026.064.954.303 4.683.089 1.292.072.728.12.728.12.588.24.673.368.72.4.603.511.666 2.152 2.74 1.88 2.513.596.877.32.54.308.596.36.826.3.708.268.646.224.474.2.371.168.25-.224.123M386.523 321.603l.115 2.411M386.523 321.603l3.107 1.342M242.557 259.01l-4.712-3.576-9.796-7.59" clip-path="url(#p303e3f7570)" style="fill:none;stroke:#000"/><path d="m233.876 231.798-4.477 13.186-1.35 2.86M398.08 353.702l2.065-2.449M413.192 356.409 413 358.98M413.192 356.409l-2.612-.509M409.706 361.5l.382-2.73M410.58 355.9l-.492 2.87M410.58 355.9l.092-.403M407.714 355.422l.26.083.258.056.304.053 2.044.286M410.088 358.77l-1.508-.044M410.088 358.77l2.912.21M412.67 366.65l-.279 3.887M402.833 381.749l-2.955.296M398.306 382.166l1.572-.12M399.878 382.045l.384 5.577M391.25 395.89l6.496-1.845M401.673 398.574l-2.576.501M401.673 398.574l2.52 9.019M431.585 389.687l.136.74M432.342 393.555l-.62-3.127M426.856 384.232l-.698-.008M401.377 356.742l.268-1.548M401.377 356.742l3.664.618M405.04 357.36l.396-1.253M410.672 355.497l-1.856-.243-.344-.024-.384-.03-.244.009-.08.016M410.52 335.062l-.168.448M410.52 335.062l-4.128-1.907M409.304 339.29l-.048 8.01M409.304 339.29l1.048-3.78M409.256 347.3l.032 2.188-.012.567.004.274-.016.439-.374 1.848M427.256 389.482l.514 2.445M427.256 389.482l-1.098-5.258M427.77 391.927l.495 2.334M422.215 363.119l-.556-.064M421.47 362.3l.19.755M421.47 362.3l.08-.697M421.66 363.055l1.013 4.772M421.66 363.055l-4.225-.475M425.338 380.365l.82 3.859M425.338 380.365l-.756-2.914M422.673 367.827l1.244 5.854M424.582 377.45l-.665-3.769M426.158 384.224l-2.702-.065M422.983 349.573l-.232-.708-.272-.818M433.625 351.844l-2.267.76M430.502 352.881l-1.856.596M430.502 352.881l.856-.278M427.814 353.712l-1.24.406-1.236.53M427.814 353.712l.832-.235M423.71 356.457l-2.22.542M423.71 356.457l1.419-.269M424.58 355.827l-.065.055-.378.254-.428.32M425.863 355.962l.145-.207.07-.243M425.129 356.188l.266.009.254-.079.214-.156M424.58 355.827l.097.098.203.17.249.093M424.548 355.103l-.026.188-.015.336.073.2M426.078 355.512l-.013-.25-.094-.235-.165-.192-.219-.131-.25-.056M425.338 354.648l-.18.01M425.158 354.657l-.31.118-.195.18-.105.148M384.17 328.65l.483 12.082.042.734" clip-path="url(#p303e3f7570)" style="fill:none;stroke:#000"/><path d="m381.515 328.806.504 10.773.048.349.084.301.168.204.32.16 1.432.603.624.27M381.515 328.806l2.656-.157" clip-path="url(#p303e3f7570)" style="fill:none;stroke:#000"/><path d="m382.143 323.035-.356.22-.196.168-.132.188-.044.27.1 4.925M384.17 328.65l-.159-4.777M405.366 333.018l-4.497-2.016M406.392 333.155l-.625-.027-.4-.11M406.392 333.155l.108-.239M413.35 336.802l-2.558-1.079M410.352 335.51l.44.213M417.441 344.572l3.134-.788M417.441 344.572l-.088-1.743M420.575 343.784l1.064 3.25.472 1.314.204.596.207.442.095.182M420.575 343.784l-.121-.306M382.573 322.787l-.43.248M386.638 324.014l-2.671-1.23-.268-.054-.304-.014-.822.07M389.794 325.467l-3.156-1.453M389.794 325.467l8.9 3.946M406.5 332.916l-5.18-2.313M416.688 320.24l-4.328 5.058-.728.815-.68.759-1.936 1.961-.556.474-.332.38-.264.403-1.364 2.826" clip-path="url(#p303e3f7570)" style="fill:none;stroke:#000"/><path d="m412.8 336.029-.197-.404-.09-.091-.095-.068-.166-.08-5.752-2.47M400.87 331.002l.45-.4M405.107 326.383l-3.786 4.22M398.693 329.413l2.628 1.19M382.143 323.035l1.868.838M389.874 326.414l8.415 3.852M389.874 326.414l-3.056-1.378M384.011 323.873l2.807 1.163M398.29 330.266l-1.217 4.017M398.29 330.266l5.762 2.632M413 358.98l-.183 2.66M382.915 262.895l.108-.501.116-.415.144-.446.16-.392.868-1.938.176-.337.152-.254.168-.239.204-.262.252-.274.404-.41 1.095-.929 1.128-1.002.58-.501.449-.403.362-.343.293-.3.556-.599.368-.446.256-.36.376-.603.648-1.167.316-.736.212-.567.32-1.21.296-1.331.528-3.03.232-1.167.208-.924.456-1.629.228-.978.116-.557.052-.156.087-.13.113-.085.176-.063.867-.098 8.344-.688 1.88-.08 1.911-.038 1.336.031 1.784.102 1.624.094.575.04.232-.016.216-.075.24-.16.217-.251.403-.744.14-.22.196-.222.216-.176.32-.208.692-.345.464-.278.652-.442.648-.4.6-.328.34-.074.504-.052.356.024.328.07.416.067.17-.01.13-.062.072-.094.076-.163.132-.489.228-.591.192-.392.128-.117.136-.024.16.024.192.062.355.216.276.254.408.494.237.235.303.235.468.246.376.188.332.184.304.211.288.185.524.261.616.325.392.122.36.074.376.04.592-.004.572-.009.412.04.644.157 1 .297.8.274.68.282.376.121.607.184.412.157.372.22.288.273.32.349.32.403.36.462.24.219.276.172.62.4.911.614.813.392.496.188.384.14.48.138.404.168.356.192.467.329.48.36.448.274.496.25.504.212" clip-path="url(#p303e3f7570)" style="fill:none;stroke:#000"/><path d="m439.669 224.254.935 3.711 1.088 3.751.352 1.245.248 1.167.184.861.224 1.355.248 1.808.096 1.292.008 1.113-.072 1.855M442.116 250.187l.088-1.51.112-2.013.08-.885.584-3.367M375.132 255.754l-.04-.751-.032-.976.028-.469.116-.466.152-.368.192-.407.928-1.511 2.6-3.954M333.153 283.096l3.464-3.21 5.479-4.816.888-.763.263-.246.329-.231.243-.142.289-.113.236-.047.523-.043.532-.098.549-.117.423-.11.624-.196 3.86-1.307M369.757 248.758l-.396-.086-.924-.208-1.332-.348-1.052-.333-1.824-.696-7.291-2.679-.484-.156-.392-.07h-.443l-.565.008-.455.078-.368.117-.232.153-.253.23-.708.886-.312.324-.363.357-.5.372-.464.384-.336.328-.456.482-.58.58-.724.66-.772.643-.772.607-.544.532-.672.697-.447.47-.408.54-.389.623M370.269 166.2l2.047-.57 3.232-.83 2.432-.565 2.464-.555 5.59-1.355 1.992-.517 5.568-1.488 2.311-.595 1.696-.509 1.088-.368 1.256-.454 7.48-2.811 7.99-3.18.856-.336.648-.29.676-.328.5-.29.68-.443.776-.536 1.256-1.003 7.863-6.295 2.327-1.809 1.64-1.15.896-.596.536-.305.456-.18.464-.126.56-.094 1.92-.243M438.389 133.195l-.24.956-.144.626-.128.666-.136.97-.272 1.966" clip-path="url(#p303e3f7570)" style="fill:none;stroke:#000"/><path d="m439.669 224.254-.296-1.519-.136-.767-.216-.79-.248-.714-.305-.704-.527-1.167-1.368-2.827-1.952-4.032-.384-.673-.464-.791-.48-.745-.592-.9-1.048-1.55-.4-.658-.407-.76-.337-.689-.335-.728-.336-.83-.408-1.112-.248-.767-.176-.697-.08-.474-.052-.403-.008-.325.024-.43.084-.494.32-1.687.832-3.75.152-.87.104-.642.863-7.016 1.28-11.464.089-.775.511-3.422.104-.712.216-1.378.16-.955 2.048-10.062.32-1.582.184-1.081.136-.924.184-1.88.08-1.322.224-3.164.584-6.703.104-.94M370.269 166.2l-1.032.385-.888.376-1.048.461-.744.392-.776.54M370.468 248.167l-.991-3.696-.232-.83-.289-.806-.655-1.77-.328-.876-.256-.862-.192-.963-.112-.626-.064-.799-.024-.807.04-2.31.224-8.816.056-10.124.264-8.363.008-.862.032-.736.072-.532.128-.673.232-.9.184-.729.176-.783.088-.697.056-.751.008-.98-.033-1.808-.047-.791-.104-.955-.184-1.073-.528-2.756-.392-1.903-.184-.979-.048-.65.032-.563.112-.611.16-.595.24-.666.52-1.33.791-2.209.192-.9.105-.596.064-.728v-.493l-.096-.611-.184-.861-.304-1.05-.432-1.33-.248-.659-.48-1.088-.488-1.057-.216-.532-.392-1.034-.968-2.693M370.933 249.76l.22.454.204.4.303.47 1.176 1.836.44.638.496.638.72.87.64.688M382.915 262.895l-1.6-1.23-.96-.704-.887-.736-.96-.9-.992-.987-1.232-1.3-.488-.532-.664-.752M603.302 194.934l1.18.278.336.083.32.07.18.063.167.07.365.2.16.055.171.035.236.011 2.444-.16 2.02-.231.616-.055.564-.064.67-.09.534-.073.847-.07.74-.055.512-.008.676.047 1.448.113.808.07.508.063.257.076.262.107.219.111.242.153M615.972 227.868l-6.831 3.704-3.084 1.683-.784.427-.496.243-.467.199-1.156.442-.328.098-.236.04-.316.03-.292-.01-.408-.04-.304-.016h-.456l-.496.051-.4.086-.272.074-1.592.42-.64.144-.432.07-.292.024-.724.012-.767.074-.228.043-.257.06-.223.074-.328.12-.764.318-.5.22-.508.199-.72.211-.448.134-.344.12-1.344.541-.764.31-.971.36-.405.14-.5.122-.515.074-.672.043-.684-.004-.548.051-.572.106-.708.18-.78.263-.608.27-.708.34-.464.254-5.095 2.804-3.912 2.102M622.983 255.183l-.848.387-.483.227-.32.11-.352.078-.38.051-.688.04-1.016.054-1.528.078-1.124.099-1.24.125-1.084.129-1.168.149-2.207.336-3.248.583-.508.122-.496.137-.335.13-.544.254-.5.243-1.277.614-.531.27-.64.368-.552.333-1.068.712-.332.259-.348.223-.372.23-.388.244-.328.215-.368.274-.656.501-.208.137-.292.157-.392.133-.344.082-.188.035-.303.012-.305-.035-.347-.094-.389-.16-.363-.189-.656-.47-.329-.25-.211-.121-.244-.075-.32-.015-.384.043-.464.152-.396.106-.472.078-.776.079-.316.008-.368-.047-.34-.126-.407-.25-.4-.368-.364-.403-.352-.435-.253-.364-1.315-2.416-3.248-4.862-.18-.293-.2-.322-.548-1.006-.684-1.249-.412-.708-.316-.49-.22-.297-.3-.24-.372-.187-.34-.102-.36-.039-.472.043-.46.118-.288.093-3.135 1.281-.384.082-.296.004-.196-.035-.168-.078-.18-.138-.084-.121-.164-.404-.912-2.524-.2-.45-.148-.267-.144-.204-.195-.219-.32-.27M554.511 233.815l.784.333.248.152.22.15.196.157.204.175.26.25.732.78.7.712.144.086.204.055.204.043.4.023 1.327-.05.218.023.178.066.16.098.145.126.12.203.26.67.875 3.276.084.235.124.251.208.31.224.234.309.294 1.543 1.245.488.243.336.102.44.085.6.024 1.184.024 1.112.03.64.087.44.101.84.275.503.176.464.22M603.302 194.934l-.589 1.088-.303.745-.204.556-.184.551-.108.533-.04.415.004.36.06.384.096.407.264.83.504 1.511.052.2.04.239v.305l-.02.368-.08.814-.128 1.206-.056.666-.064.673.031.517.089.587.144.595.144.47.2.571.352.748.22.506.331.83.204.526.197.44.196.4.22.387.296.423.408.501.415.455.448.414.592.408.468.325.308.219.316.282.316.32.356.38 2.14 2.373.992 1.135.511.627.377.548.26.407.2.353.268.544.223.513.649 1.495.187.466.348.7.284.506.284.458.452.654M622.983 255.183l1.296-.607 1.964-.92.4-.2.376-.208.464-.308 2.012-1.367.887-.599.24-.188.149-.145.272-.36.18-.278.151-.328.14-.423.057-.384.023-.321-.016-.337-.06-.352-.12-.36-.14-.36-1.443-2.929-.345-.705-.351-.685-.496-.916-1.276-2.282-.3-.513-1.136-1.872-.472-.704-.416-.58-.584-.665-.864-.987-.944-1.088-.3-.333-.224-.22-.256-.238-.392-.31-3.075-2.211-1.136-.854-.536-.43-.74-.748M546.348 193.971l.84.262 1.284.18 3.264.157 1.888-.172 1.387-.372 4.036-1.452 4.423-1.802 1.264-.814 1.952-1.323.956-.72.772-.846.532-.983.856-2.204 1.112-2.102.175-1.214-.168-2.956.228-1.488.448-1.535.696-1.73.436-.466.448-.165.812-.058 1.948.176 2.152.278.596-.294 6.929-4.775.576-.209.374.069.371.272 2.042 1.997 3.17 2.999 1.816 2.227.728 1.01 1.108 1.061 11.31 9.78.106.39-.014.632-.308 1.566-.372.991-.576 1.033-2.224 2.788-.42.775" clip-path="url(#p303e3f7570)" style="fill:none;stroke:#000"/><path d="m538.25 182.774.72.552 1.007.712 1.844 1.245.632.423.323.24.28.23.196.188.244.27.253.29.183.254.213.305.244.377.207.395.177.368.148.36.263.775.1.306.168.575.896 3.332M554.511 233.815l-.744-1.214-.668-1.179-.312-.52-.167-.36-.228-.549-.592-1.703-.329-.904-.11-.274-.122-.262-.272-.545-.219-.426-.26-.509-.22-.544-.22-.591-.224-.678-.268-.955-.192-.634-.176-.533-.136-.403-.188-.52-.188-.459-.164-.391-.156-.411-.116-.353-.096-.36-.392-1.617-.236-1.163-.076-.536-.064-.525-.112-.857-.104-.65-.128-.477-.792-2.568-.204-.67-.172-.642-.192-.744-.144-.67-.112-.696-.072-.572-.088-.658-.152-2.06-.192-2.85-.127-1.878.015-.423.048-.337.085-.345.16-.415 1.255-3.214M549.336 239.828l1.208-.157.48-.085.576-.18.528-.267.44-.368.303-.392.328-.532.24-.572.216-.634.856-2.826M528.714 271.665l1.144-.952.344-.3.292-.342.32-.446.3-.567.288-.666.288-.971.24-.971.16-.572.184-.595.248-.704.32-.72.352-.682.44-.822.224-.54.168-.486.16-.634.176-.862.224-1.417.207-1.636.077-.58.132-.548.168-.579.247-.556.32-.666M541.167 268.978l-.662-1.612-.4-.9-.344-.658-.456-.885-.52-.994-.544-1.112-.392-.947-.224-.619-.264-.807-.223-.869-.569-2.192-.224-.838-.168-.775-.247-1.002-.192-.917" clip-path="url(#p303e3f7570)" style="fill:none;stroke:#000"/><path d="m535.998 246.777-.117.364-.087.372-.037.255-.044.415-.048.658-.051 1.04.011.8v.618l.04.87.073 1.682M482.016 295.154l.776-.274 1-.298 3.967-1.057 1.136-.344.768-.243.752-.29.903-.383.896-.455.84-.422 1.136-.65 2.032-1.174 1.888-1.104 1.496-.956 2.776-1.879 2.415-1.691.864-.587.808-.462 1.632-.932 1.736-.979 2.007-1.198.92-.58 1.112-.743 1.064-.65.696-.337.592-.281 1.136-.43 4.343-1.418 1.488-.54 1.032-.416.912-.406 1.055-.557.68-.438.825-.587 1.015-.728M534.266 273.252l-3.12.315-.356.016-.164-.02-.14-.046-.172-.118-.416-.403-1.184-1.331M461.28 331.451l.326-.468.308-.416.368-.61.24-.439 1.092-2.098.732-1.73.232-1.026.328-2.279.392-2.411.147-.529.169-.395.291-.564 1.752-2.85 2-3.883 1.64-2.89.264-.586.216-.576.268-.9.276-1.14.4-1.597.256-.869.272-.736.423-.767.424-.666.4-.532.529-.564.823-.799.689-.61.68-.51 1.071-.704 1.616-.995.912-.54.623-.312.577-.306M487.889 258.025l-2.722 9.239-1.2 3.978-.416 1.417-.12.548-.072.43-.04.424-.032.704-.071 1.316-.16 4.98-.088 1.714-.113 1.856-.408 5.606-.431 4.917M475.317 128.743l1.131-.426 1.008-.36 1.808-.58.572-.097.42-.024.44.098.376.211.408.314 2.608 2.262.615.533.516.411.684.502.55.379.226.188.152.145.138.147.142.17.126.186.098.233.016.163-.004.154-.024.173-.072.461-.032.251-.004.317.048.22.112.266.244.36.22.266.316.345.408.407.508.458.384.294.492.403.408.352.556.533.84.861 1.655 1.723M514.132 121.986l-.156.501-.116.298-.124.41-.148.549-.156.458-.132.224-.224.258-.268.254-.32.196-.448.188-.508.176-.84.223-1.664.423-.804.227-.511.18-.324.153-.356.22-.472.356-.632.52-3.708 3.031-2.151 1.59-.4.242-.44.173-.513.109-.551.016-.48.008-.456.093-.312.157-.376.306-.352.548-1.048 1.95-.92 1.777-.264.516-.131.33-.089.344-.047.384-.065.486-.1.559-.12.623M487.251 166.925l.164-.943.032-.592-.004-.426-.172-1.496-.152-1.19-.056-.439-.032-.415-.012-.442.02-1.492.048-1.347.012-.438.032-.36.072-.392.084-.333.112-.274.164-.29.668-1.08.304-.564.388-.78.948-1.894.288-.58.232-.57.16-.463.144-.438 1-3.555.151-.52.148-.47.16-.467.245-.755.692-1.88.136-.388.18-.61M475.317 128.743l-.54.252-.488.274-.408.27-.64.446-.808.681-.4.36-5.828 6.104-.624.623-.316.266-.232.157-.295.149M463.11 138.308l.448.063.328.028.364.008.248-.031.24-.051" clip-path="url(#p303e3f7570)" style="fill:none;stroke:#000"/><path d="m487.251 166.925-.178-.117-.236-.145-.226-.15-.336-.222-.328-.231-4.1-2.521-1.863-1.167-1.768-1.12-1.448-1.065-.616-.5-.4-.314-.216-.243-.24-.384-.271-.556-.448-1.08-.2-.529-.224-.446-.209-.356-.247-.407-.32-.486-.496-.83-1.744-2.623-.448-.8-.176-.422-.088-.36-.104-.454-.208-2.005-.456-3.226-.12-.971-.088-.462-.2-.5-.24-.377-.344-.36-.616-.697-.616-.54-.567-.47-.584-.478-1.544-.986M463.11 138.308l-8.787-2.45-2.44-.693-.408-.153-.368-.16-.258-.145" clip-path="url(#p303e3f7570)" style="fill:none;stroke:#000"/><path d="m463.11 138.308-.958 5.378-.034.142-.036.123-.062.123-.078.118-.168.125-.204.135-.256.123-1.13.552-.3.124-.172.033-.118.002-.128-.07-.12-.165-.152-.313-.887-1.692-.816-1.433-.776-1.307-1.252-1.95-.284-.446-.4-.635-.144-.219-.156-.169-.22-.191-.256-.18-.648-.408-.592-.258-.34-.13-.3-.09-.316-.066-.28-.02-.22-.077-.208-.165-.088-.148-.162-.447M446.332 130.369l.536.368.347.305.629.61 1.6 1.79.44.466.271.258.252.24.217.158.225.143M446.332 130.369l-.632.027M438.549 125.694l4.327 2.623 3.456 2.052M438.389 133.195l.215-1.017M438.389 133.195l.827-.388M509.742 115.78l.543.33.295.238.408.392.452.54.376.497.352.529.384.654.356.642.536 1.002.688 1.382M521.15 173.348l-1.063-2.574-.172-.494-.1-.383-.06-.47-.015-.384.011-.395.072-.474.084-.387.296-1.038 1.464-4.088.472-1.19.32-.728.208-.571.248-.705.2-.713.264-1.127.08-.34.088-.295.152-.372.248-.372.288-.32.72-.533.74-.474.276-.211.248-.235.116-.22.08-.305-.005-.356-.068-.423-.115-.446-.296-.822-.256-.705-.377-.9-.363-.737-.324-.626-.292-.532-.396-.65-.384-.615-.48-.71-.448-.653-.436-.658-.324-.528-.472-.909-2.104-4.126-2.208-4.182-1.163-2.188-1.04-1.867-.372-.67-.164-.349-.184-.41-.252-.78-.092-.348-.06-.286-.012-.223.028-.22.048-.188.08-.21.168-.322.332-.622.388-.83.26-.694.14-.461.056-.325.016-.193-.06-.285-.072-.208-.128-.266-.852-1.44M453.507 208.355l.26-.303.348-.41.392-.375.376-.318.484-.368 1.812-1.26 4.92-3.469.519-.399.416-.43.368-.4.44-.642.564-.932 1.187-2.24.432-.931.32-.65.336-.58.376-.54.456-.595 5.343-6.585.577-.697.6-.634.544-.49.415-.356.497-.415.431-.4.504-.556 1.56-1.887 2.696-3.218.8-1.026 2.463-3.218 1.4-1.761.456-.658.248-.4.184-.336.232-.548.192-.603.136-.51.46-2.29" clip-path="url(#p303e3f7570)" style="fill:none;stroke:#000"/><path d="m517.46 177.007-1.272-.697-.468-.227-.624-.29-1.076-.43-1.72-.713-1.912-.737-1.168-.446-1.231-.43-.832-.282-1.044-.278-.484-.106-.352-.008h-.464l-.58.075-3.18.364-.575.031-2.52.024-1.088-.016-.632-.063-.704-.125-.896-.195-3.623-1.175-.353-.196-.32-.219-.264-.321-.351-.502-1.032-2.043-.164-.29-.128-.192-.18-.176-.148-.102-.356-.172-.468-.145M453.507 208.355l-.568.733-4.172 5.25-.891 1.037-.825.947-.405.47-.458.564-.644.842-.692.814-.468.52-.444.455-.608.587-1.304 1.268-2.36 2.412M440.325 273.864l6.31 1.606 1.525.391.907.286.96.372.912.329 1.82.798.828.349.404.16h.16l.172-.066.108-.11.1-.164.128-.278.576-1.574.196-.438.228-.435.228-.333.364-.423.883-.904 2.748-2.642.296-.25.284-.185.324-.176.36-.172.644-.255.528-.184.636-.274.88-.411.8-.474.76-.454 1.56-1.12.871-.743.832-.736.712-.556.544-.36.672-.36.944-.478 1.144-.47.28-.133.124-.113.08-.138.052-.25.1-.243.124-.188.128-.114.272-.156 2.364-1.108 2.023-.951.324-.16.344-.204.26-.208.44-.348 1.316-1.12 1.188-.994.3-.212.228-.102.183-.027.296.043.389.106 1.048.38 3.353 1.135" clip-path="url(#p303e3f7570)" style="fill:none;stroke:#000"/><path d="m517.46 177.007-.212.302-.188.258-.216.274-.565.587-2.099 2.259-.488.575-.352.443-.268.368-.188.293-.188.33-.248.47-.272.555-.316.728-.268.63-.252.616-2.16 5.46-2.031 5.192-.588 1.555-.312.814-.212.6-.464 1.401-.56 1.707-2.072 6.757-4.36 14.196-3.447 11.213-4 13.092-3.245 10.343M442.116 250.187l-.2 1.402-.288 1.667-1.024 6.06-.671 3.43-.257 1.582-.087.705-.049.743-.007.643.04.72.08.885.12.955.367 2.701.136.979.056.38.024.328.004.255-.035.242M420.16 315.378l.479-1.66.856-1.832 1.112-1.33 1.263-1.128 2.208-2.443.632-.823.448-1.033.184-1.05-.268-1.1.06-1.362.136-1.914.072-.665.128-.681.232-.776.344-.861.592-1.417 1.448-3.077 2.432-4.855 1.495-3.155.432-.838.464-.916.472-.877.368-.677.572-.963.54-.85 1.84-2.623.672-.955.392-.587.22-.376.18-.317.16-.373M504.9 114.582l-.595-.137-.604-.086-.722-.047-1.03-.055-1.28-.007-.94.011-.435.008-.364-.047-.336-.055-.344-.093-.408-.165-.432-.258-.316-.243-.356-.317-.336-.349-.376-.411-.384-.38-.372-.297-.992-.768-1.612-1.347-.38-.305-.384-.223-.363-.118-.368-.07-.464-.04-.744.005-.984.07" clip-path="url(#p303e3f7570)" style="fill:none;stroke:#000"/><path d="m475.317 128.743.371-1.718.88-4.51 1.4-6.468.192-.822.148-.431.176-.341.176-.239.232-.195.376-.235.548-.298 5.511-3.07.752-.434.66-.372.584-.263.64-.242.572-.157.444-.09M504.9 114.582l4.842 1.199M508.18 111.137l-.895 1.268-.368.478-.4.47-.4.4-.488.391-.728.438M511.604 103.33l-1.4 1.981-.336.564-.303.525-.209.516-.16.564-.16.705-.224 1.041-.183.65-.208.642-.24.619M509.742 115.78l-.257-.348-.12-.207-.14-.306-.293-.83-.14-.485-.18-.635-.191-.704-.136-.54-.104-.588M521.15 173.348l.133 1.607M521.15 173.348l1.88 1.498M569.518 306.922l2.287 4.307M542.792 272.995l.737 1.567.48 1.096.647 1.323.736 1.386.416.681.656.982.292.478.34.596.304.567.552 1.143.344.61.408.627.72.956.604.751.7.838 1.64 1.934 1.368 1.527 2.143 2.141.324.325.26.306.24.293.284.419.404.646.184.259.164.215.252.25.268.2.284.176.392.247.564.368.48.364.528.474.74.716.815.814.448.384.3.207.348.215.436.22.532.29.38.254.372.294.312.293.528.56 1.352 1.402.232.227.212.223.228.286.184.254.235.364.533.87.187.367.14.298.185.446.151.501.16.697M604.078 336.354l-.509-.22-3.175-1.088-4.22-1.456-.672-.294-.683-.364-1.256-.963-.508-.473-.52-.49-.5-.572-2.768-4.141-.871-1.355-.736-.908-1.048-.9-9.231-6.577-1.408-1.12-1.248-1.026-1.56-1.668-1.36-1.51M538.25 182.774l-.433-.333-.815-.678-1.768-1.35-.296-.227-.393-.255-.603-.376-.412-.242-.46-.243-.388-.204-.256-.16-.32-.212-.64-.434-.356-.23-.384-.232-1.012-.646-1.108-.728-.32-.173-.3-.129-.38-.117-.484-.13-.872-.164-2.16-.485-.535-.114-.524-.066M521.283 174.955l.304-.066.304-.035.344-.016.408-.008.388.016" clip-path="url(#p303e3f7570)" style="fill:none;stroke:#000"/><path d="m517.46 177.007.38-.396.44-.293.595-.306.828-.391.708-.306.532-.234.34-.126M369.757 248.758l1.176 1.002M369.757 248.758l.711-.59M370.933 249.76l-.237-.743-.228-.85M451.723 195.8l.528.994.116.188.144.18.172.207.496.49.18.207.168.255.148.332.156.408.116.364.092.352.056.352.028.275.008.41-.016.502-.032.333-.112.65-.228 1.002-.088.505-.052.528-.016.466-.012.552.008.744-.032.525-.068.47-.056.387-.008.282.016.192.072.403M541.167 268.978l.49 1.191.592 1.488.543 1.338M534.266 273.252l1.303-.13h.272l.26.03.252.06.552.222.184.051.213.04.255.003.284-.023.324-.04 2.576-.21.544-.052.508-.059 1-.149M444.336 100.362l-.332 5.192-.096.924-.128.924-.188 1.128-.148.673-.232.806-.288.854-.248.638-.264.642-1.2 2.612-.751 1.613-.748 1.507-.24.584-.184.52-.18.513-.144.447M438.549 125.694l-.064-2.436.008-.485.043-.512.049-.373.064-.473.128-.658.188-.818" clip-path="url(#p303e3f7570)" style="fill:none;stroke:#000"/><path d="m437.253 124.766-.184-.673-.044-.18-.02-.255.02-.208.052-.23.1-.302.24-.517.556-1.166.164-.306.184-.29.168-.254.17-.188.306-.258M438.604 132.178l.105-.666.056-.736.031-.838.009-.744-.048-.893-.208-2.607M437.253 124.766l.456.349.84.579M438.604 132.178l-.948-.597M455.073 236.617l-1.91 1.684-.528.517-.656.861-.864 1.284-1.084 1.829-.296.54-.187.337-.185.415-.171.454-.305.748-.195.442-.269.528-.247.423-.328.548-.276.368-.292.345-.4.423-.277.235-.335.243-.312.18-.496.195-.84.29-1.096.344-1.408.337M540.657 241.856l1.08-.297.784-.212 4.495-1.112.744-.148.728-.13.848-.129" clip-path="url(#p303e3f7570)" style="fill:none;stroke:#000"/><path d="m540.657 241.856 1.263 2.349.209.298.192.219.136.07.164.02.228-.055.192-.102.332-.207.7-.572 2.895-2.145 1.448-.987.504-.356.186-.17.094-.118.056-.104.08-.168M535.998 246.777l1.243-3.01.16-.298.184-.258.2-.18.296-.173.324-.172 2.252-.83M538.25 182.774l-.14.438-.075.168-.096.163-.138.115-.176.083-.295.039-.809.02-.536-.02-.503-.043-.5-.063-.716-.11-.289-.023h-.263l-.244.043-.24.106-.208.18-.14.203-.048.29.044.302.156.509.504 1.777.464 2.161.06.282.04.262.002.212-.03.2-.068.176-.156.278-1.084 1.844-.168.329-.108.238-.072.26-.024.312.018.21.038.193.072.235.172.396.192.43.2.353.172.309.18.41.6 1.48.154.356.15.28.16.258.312.49.223.379.136.28.105.213.09.253.101.336.118.355.398 1.296.424 1.15.6 1.512.464 1.175.096.336.04.329v.313l-.08.423-.612 2.51-.103.407-.18.528-.105.337.008.33.088.367.352 1.072.332.948.144.474.092.438.06.403.048.463.024.786.004 1.297.008 3.844.112 2.592.048.407.08.337.096.469.54 1.813.072.305.092.435.048.473-.004.506-.072.7-.14 1.116-.176.948-.108.74-.016.387.02.43.064.388.092.368 1.004 3.348 1.216 4.635" clip-path="url(#p303e3f7570)" style="fill:none;stroke:#000"/><path d="m527.474 244.628 4.176-.196.4-.016.296.016.28.055.696.184.26.063.38.031.44-.004.363.012.169.05.152.095.084.113.121.249.707 1.497M454.115 225.444l-.252.572-.092.317-.04.223-.03.286-.014.262-.004.619-.02 1.496-.032.458-.048.242-.068.278-.144.407-.204.502-.188.442-.064.215-.028.188.056.176.1.192.236.267.652.696.768.78.588.567.312.266.224.233.07.137.007.114-.05.146-.092.127-.403.406-.124.172-.092.164-.066.223" clip-path="url(#p303e3f7570)" style="fill:none;stroke:#000"/><path d="m461.586 222.974-.716.603-.172.188-.12.187-.068.2-.008.22.092.281.18.275.528.614.504.474.372.329.396.328.332.235.428.326.116.117.08.106.048.115.034.115.004.1-.036.124-.086.137-.184.215-2.928 2.744-.572.533-.291.313-.285.313-.24.306-.248.329-.423.638-.373.486-.347.387-.44.434-.849.776-1.24 1.095M534.266 273.252l-.096-1.979.011-.106.073-.093.16-.095.3-.109.632-.176.563-.121.348-.063 3.216-.45.408-.126.344-.164.36-.259.582-.533M420.16 315.378l-3.472 4.861M420.16 315.378l6.728 13.445M444.336 100.362l-1.096-.47-.632-.325-.404-.215-.44-.322-.304-.23-.272-.31-.164-.266-.06-.23-.027-.322-.005-.61M439.216 132.807l.377.158.23.045.157.01.4-.051.449-.067.371.008.292.031.425.11.551.239.352.125.392.047.464-.055.408-.212.376-.289.264-.321.328-.69.216-.54.432-.959M439.216 132.807l2.404-1.272.648-.336.648-.259.688-.211.704-.149.688-.11.704-.074M513.815 100.64l1.725-.795M513.815 100.64l-.227-.032M515.57 101.926l-.398-.366-.38-.274-.977-.647M515.696 98.17l-2.108 2.438M515.696 98.17l-.156 1.675M515.57 101.926l.072-.468.03-.2.012-.223-.02-.246-.048-.38-.076-.564M511.604 103.33l3.732.998.124.026.076-.026.06-.07.052-.112.012-.127-.002-.225-.03-.605-.032-.709-.027-.554M511.604 103.33l.952-1.332 1.032-1.39M437.656 131.58l-.283-.178-.448-.36-.496-.54-.744-1.03-.108-.211-.074-.196-.056-.192-.026-.22.048-.281.116-.384.132-.317.456-1.045.144-.196.216-.114.162-.011.148.027.178.09.144.147.098.18.074.268.052.294.024.356.16 2.24.083 1.674" clip-path="url(#p303e3f7570)" style="fill:none;stroke:#000"/><path d="m437.656 131.58-.083-1.674-.16-2.239-.024-.356-.052-.294-.074-.268-.098-.18-.144-.147-.178-.09-.148-.027-.162.011-.216.114-.144.196-.456 1.045-.132.317-.116.384-.048.282.026.22.056.19.074.197.108.211.744 1.03.496.54.448.36.283.179M422.983 349.573l-.366-.005M480.064 341.357l.648-.126M477.64 341.247l1.152.11.96.03.312-.03" clip-path="url(#p303e3f7570)" style="fill:none;stroke:#000"/><path d="m477.64 341.247.824 9.685.04.196.084.14.088.075.124.04.116.013 1.512.045.134-.017.106-.05.06-.072.036-.092.018-.154-.718-9.7M477.64 341.247l-1.456-.313M471.905 339.822l1.264.266M451.851 360.546l5.832 1.903 4.23 1.503 4.369 1.417 1.767.345 3.288.239.328-.028.276-.109.264-.224.203-.281.109-.325.04-.501.028-.548-.032-1.465-.304-2.474.2-2.779-.048-6.24-.076-4.095-.42-7.062M449.452 348.14l7.823-2.665.9-.329.136-.075.095-.109.059-.106.041-.105.049-.262.015-2.524M449.452 348.14l-1.016-2.454M451.851 360.546l-.24-5.488-.016-.97-.024-.294-.148-.357-.22-.305-.196-.391-.152-.376-.18-.52-.344-1.602-.567-1.327-.312-.776M444.62 347.519l.928-.486 2.888-1.347M451.851 360.546l-3.189-.464M438.329 358.636l.434 5.937.521 5.18.016 1.778-.023.225-.015.086-.04.09-.052.065-.121.07-.124.01-1.482-.021M448.662 360.082l-.73-.107-3.68-.423-3.435-.544-2.488-.372M435.025 358.186l1.9-.098.38.028.288.074.228.133.232.141.276.172M464.74 337.352l2.397-.383M464.74 337.352l-.442-3.402M459.194 333.84l.164-.34.308-.42 1.614-1.629M459.194 333.84l-1.307 1.348M459.194 333.84l-.128 1.789M478.072 325.369l1.048 9.513M476.57 335.412l-.93-6.535M476.57 335.412l2.55-.53M476.57 335.412l-1.573.256M479.12 334.882l.464-.048.212.016.12.063.112.125.06.141.624 6.052M473.809 335.88l1.188-.212M473.809 335.88l-.888-5.563M471.041 336.346l-3.904.623M471.041 336.346l-.936-7.924M467.137 336.97l-.407-9.644M475.552 338.063l-2.445.607M475.552 338.063l.632 2.87M474.997 335.668l.112.47.443 1.925M473.107 338.67l.062 1.418M476.184 340.934l-1.847-.556-1.168-.29M431.016 336.98l-4.128-8.157M406.028 333.863l-.024.09M404.052 332.898l1.05.48.926.485M406.004 333.952l-.268.218M373.273 347.518l.063.169.236.317.268.262.32.15.396.112 3.951.9M405.736 334.17l-2.337-.542M403.399 333.628l.653-.73M397.073 334.283l1.616-.286.504.008.672.086 1.984.403.232.059.154.015h.108l.11-.033.104-.08.548-.497.294-.33M407.714 355.422l.05-.197M485.669 523.342l.394.291 1.736.666 2.548.861.464.223.392.243.448.372.947.626.648.21.808.142 2.18.494.712.109.46.09.432.168.324.235.22.235.307.395 1.589 2.196 4.335 6.35.344.555.248.587.152.478.112 1.096 1.096 13.762.096.635.216.696.287.525.745 1.01 2.76 3.092 1.615 1.55 1.896 1.41 1.4.884.976.39 1.06.42.551.235.393.242.275.29.537.622 1.263 1.91.336.572.168.517.168.634 2.456 7.773 1.392 5.355 1.995 6.768.085.497.063.618.005.498-.253 3.62-.015.552.083.63.152.615.228.5.384.58.42.635.084.214.036.23.014.262-.03.522M555.155 607.378l-1.26-2.082-.904-1.82-1.327-2.936-.4-.814-.38-.567-.364-.439-.344-.313-1-.49-1.496-.524-1.128-.336-1.288-.126-1.888.047-1.28.071-6.815 1.088-6.874 1.092M435.183 448.026l-.682-2.54-.528-2.317-.304-1.12-.288-.83-1.271-3.21-.673-1.26" clip-path="url(#p303e3f7570)" style="fill:none;stroke:#000"/><path d="m429.033 449.515-.187-.82-2.28-9.421-.068-.286-.016-.168.024-.169.064-.129.136-.086.332-.133 3.236-.932.316-.121.268-.118.58-.383M420.903 357.542l.041.21.607 3.851M412.712 362.003l.105-.362M412.712 362.003l.136.04.507.077 4.08.46M451.563 541.107l-.092-1.48M451.563 541.107l1.2-.861M426.45 630.138l1.88-3.39.108-.316.024-.305-.044-.266-.088-.282-.392-1.03-.34-.888-.188-.72-.132-.73.008-.21.05-.174.086-.18.136-.157.224-.125.244-.04 1.688-.013.38-.101.363-.192.42-.317.844-.666.497-.466.391-.469.493-.795.36-.567.331-.364.28-.247.384-.313.372-.372.276-.372.3-.591.784-1.788.212-.525.168-.529.204-1.095.112-.795.24-1.542.264-1.112.724-2.571.108-.517.076-.575.052-1.198.08-1.05.192-1.119.456-1.534.592-1.378 1.228-2.285.195-.45.157-.549.084-.724.251-1.734.084-.325.14-.375.24-.474.984-2.149.14-.403.18-.375.188-.318.464-.76.172-.39.128-.345.116-.485.664-2.951.584-3.289.216-1.201.148-.716.044-.443.008-.68.032-.702 1.071-5.91 2.089-14.02.895-5.238.504-3.53.184-1.37.077-1.167v-.724l-.068-.599-.045-.454.04-.482.124-.387.576-1.041M452.763 540.246l-1.292-.619M485.669 523.342l.058 2.385-.06.6-.116.508-.152.485-.211.443-.397.544-.416.438-1.98 1.429-.205.1-.213.066-.374.053-.491.048-.496-.017-.252-.04-1.424-.75-.28-.114-.356-.062h-.308l-.68.22-.416.109-.492.046-.832-.054-.812-.137-.987-.223-1.14-.2-2.196-.165-.628-.026-.56.07-.783.196-1.013.32-.7.259-.691.356-1.256.85-2.26 1.553-1.428 1.01-.604.482-.956.962-1.443 1.496-.58.49-.696.441-.909.486-.939.548-.976.65-1.256 1.049M461.738 504.343l-1.512 3.015-.448 1.103-.208.752-.304 1.057-.424 1.714-.368 1.574-.088.419-.004.293.06.305.144.784.152.912-.063.974-.44 1.95-.289.766-.296.564-.783 1.198-.444.79-.084.31-.032.274.007.337-.392 2.963.025.97.004.454-.012.294-.14.349-.332.544-.26.371-.328.42-.3.457-.272.513-.368.69-.808 1.365-1.928 2.615-.335.736-.164 1.022.028.747.087.438.18.533.472.712M435.183 448.026l-6.15 1.49M437.056 452.724l-.435-.803-.608-1.393-.544-1.433-.286-1.069M429.033 449.515l.957 4.195M427.284 454.323l2.706-.613M428.186 457.132l.208-1.05-.028-.203-.048-.176-.068-.165-.152-.22-.814-.995M428.186 457.132l-2.306.72-.2.078-.184.022-.132-.04-.118-.109-.088-.125-.078-.177-.15-.44-.288-1.39.028-.262.08-.2.104-.156.096-.106.132-.09.188-.078 2.014-.456M428.186 457.132l2.532-.827M430.718 456.305l-.592-2.004-.136-.59M460.402 488.456l-1.504-4.475-.416-.846-.316-.395-.443-.313-.657-.302-1.183-.368-3.468-.622-1.275-.27-.8-.227-.628-.231-1.165-.626-.936-.697-.38-.274-.316-.392-.16-.418-.951-5.402-.376-2.122-.232-1.05-.472-1.04-.688-1.23-.712-1.04-.472-.8-1.152-2.512-2.351-5.34-1.968-4.141-.325-.6M430.718 456.305l1.823-.939 4.515-2.642M368.857 347.761l.376.1.282.026.337-.022.48-.028 2.941-.32M467.666 503.723l.615-.162 1.016-.168 1.772-.345 1.06-.192 1.956-.435 1.908-.528 3.257-1.065.156-.074.108-.115.074-.142.04-.22.156-1.257.576-4.269.002-.121-.02-.118-.042-.091-.076-.087-1.176-.896-.13-.088-.104-.045-.13.007M463.45 496.514l6.055-1.51 2.14-.7.396-.123.292-.027h.46l2.776-.106 1.023-.05.316-.04.312-.058.252-.09 1.032-.446.18-.052" clip-path="url(#p303e3f7570)" style="fill:none;stroke:#000"/><path d="m471.994 454.45.345 1.343.048.27.054.192.136.352.284.485.176.302.447.493.228.227.189.239.132.239 1.327 3.93.888 3.01.536 1.374.312.67.36.583.416.704.632.767.472.744.216.517.144.853.128.908.112.587 1.408 3.594.216.728.048.486-.064.86-.024.627.104.712.304.674.52 1.307.608 1.582.14.438.06.454.072.247.1.223.22.23.414.263.185.101.145.095.331.344.084.137.028.188-.04.239-.563 2.395-.093.278-.127.231-.148.145-2.636 1.656-2.184 1.84M460.402 488.456l.816 2.43.392 1.19.568 1.174.752 1.23.332.981.156.646.032.407M468.012 506.678l2.413 1.118 3.64 1.581.967.556 1.208.783 4.688 3.398.632.594.44.486.351.595.345 1.018 1.191 4.454.288.54.472.674.473.462.549.405M471.994 454.45l-.641 1.793-.6 1.762-.176.52-.144.56-.128.65-.156 2.94.032 2.184-.084 1.002-.184 1.037-.26 1.359-.244.923-.4.983-1.372 2.094-.224.368-.14.29-.327 1.139-.44 2.227-.132.552-.197.658-.736 2.152-.287 1.292-.468 2.897-.116.505-.216.732-.924 2.56-.136.223-.192.16-.2.102-.228.055-2.272.287M424.499 389.853l-1.043-5.694M420.454 343.478l-3.1-.649M468.012 506.678l-.346-2.955M436.937 384.734l1.732.1 1.133.057M459.066 335.629l-1.18-.44M454.601 339.957l.306-1.098.296-.532.487-.705 1.697-1.918.5-.516M421.49 356.999l-.587.543M227.018 204.719l-8.301-17.96-.544-1.158-9.023-12.466-1.217-1.347M195.615 112.902l1.727 9.366 1.632 7.329 1.44 7.611-1.856 3.007-3.52 8.896-.095.94.032 1.002 1.152 3.696.736 2.036v.25l2.88 5.826 8.19 8.927" clip-path="url(#p303e3f7570)" style="fill:none;stroke:#000"/><path d="m211.186 189.817.373-1.08-.448-1.066-8.815-10.476-1.28-.72-.224-.737 5.312-2.869 1.83-1.08M206.11 202.766l-.64 1.347-.448 2.662-.512 5.951v2.162l1.696 13.442M206.11 202.766l.255-.345.033-1.222-.608-5.324-.128-2.944 1.473-4.485M211.186 189.817l-3.74-1.22-.31-.151M248.858 232.066l.095 1.802-.07.423" clip-path="url(#p303e3f7570)" style="fill:none;stroke:#000"/><path d="m252.297 235.22-.95-.24-1.242-.36-1.222-.329M242.557 259.01l2.045-6.035 1.088-4.134.128-.22 1.824-9.49 1.241-4.84M183.648 323.983l5.568-8.739.735-1.535.448-2.85.544-1.379 1.792-3.006.704-1.379.384-.5.064-.251 2.432-4.135 1.344-2.318 2.047-2.913 1.536-1.503 1.024-1.19 1.984-1.848.832-.815 1.92-2.318 5.92-12.435 4.542-11.276 1.249-3.915 2.815-5.324.352-1.284.992-2.193.448-3.603.73-2.518M250.555 204.592l-.577-2.234v-2.004l.447-4.448v-1.065l-.87-6.971M262.36 117.444l-.775 2.673-.352 2.099-.888 4.374-.16 2.443.544 5.012.223 3.696.025 6.746-.096 4.26.256 1.942.192.658-.064.375.224 1.88.007 3.433-.294 2.424-.769 3.446-1.528 4.623-.832 4.166-1.28 5.482-1.031 3.239-1.024 1.848-5.183 5.607M152.227 177.363l.768 1.347 2.272 2.913.288.22 2.047 1.002 1.472.5 1.728.753 8.64 4.416 1.119.783 1.6.846.48.376 1.12.658 3.68 2.098 1.312 1.034 2.527 1.44 2.08.91 2.72.97 1.471.313 6.816 1.88 8.831 1.879 2.912 1.065M228.59 206.696l-.467.518-2.815-.721-.736-.156-.224-.157-2.24-.658-4.48-1.002-2.719-.125-2.976.03-1.92-.25-3.903-1.41M183.648 323.983l-1.28 3.665-.416 3.695.032 1.254.288 2.505.032 4.699-.064.751-.672 2.882-.16 2.725-.32 2.725.064 2.506.16 1.503.896 2.757.8 4.009.032 1.252-.096 1.128.16 3.32-.032 2.005-.576 2.757-.352 1.221-.224.344-.608 3.133-1.216 3.978M227.018 204.719l.394.412 1.178 1.565M133.73 318.467l5.245 1.42 13.31 1.441 7.232.752h6.847l14.334.94 2.95.963M405.436 356.107l-3.791-.913M421.982 330.99l4.906-2.167M421.982 330.99l-5.294-10.75M211.186 189.817l1.06.346 1.728.94 13.044 13.616M444.62 347.519l1.933 2.963M446.553 350.482l.482.737 1.254.276.435.626 1.382 3.407M448.662 360.082l-1.269-3.551-.794-3.709-.046-2.34" clip-path="url(#p303e3f7570)" style="fill:none;stroke:#000"/></g><path id="PatchCollection_1" d="m545.392 501.337 3.072-33.82 8.447-26.306-15.614-16.034-19.198 15.282 21.245-51.61 12.287-56.872 7.423-11.024 20.733 76.916 34.3 51.359 19.71 33.32-4.095 3.257-44.027-23.8-8.959-2.506-2.048 13.028 3.584 35.073-14.079 40.834-9.47-6.013z" clip-path="url(#p303e3f7570)" style="fill:#006400;fill-opacity:.8"/><g id="PathCollection_1"><defs><path id="mfde0320f5f" d="M0 3a3 3 0 1 0 0-6 3 3 0 0 0 0 6z" style="stroke:#006400;stroke-opacity:.8"/></defs><g clip-path="url(#p303e3f7570)"><use xlink:href="#mfde0320f5f" x="302.825" y="285.761" style="fill:#006400;fill-opacity:.8;stroke:#006400;stroke-opacity:.8"/></g></g><g id="PatchCollection_2"><path d="m418.265 360.71 2.757.108.33 1.26-3.233-.289zM408.305 374.812l.993-.143-.625-2.195-.221.575zM415.867 371.026l-.272 1.88-1.232-.048.048-1.863zM400.711 344.3l.95.606.239.19.056.129-.016.169-.193 1.019-.111.163-.123.04-.174.002-.38-.134-1.162-.555.265-.497z" clip-path="url(#p303e3f7570)" style="fill:green;fill-opacity:.8"/></g><g id="PatchCollection_3"><path d="m414.497 331.576 4.081-.43-.588-5.341-4.081.43zM412.165 331.891l-.371.248-.335-.115-.715 1.64.407.14.073.328.416.15.271-.08.308-.566.452-.089.318-.194.135-.372-.063-.328-.226.062-.209-.629-.19-.124z" clip-path="url(#p303e3f7570)" style="fill:#90ee90;fill-opacity:.8"/></g><g id="PatchCollection_4"><path d="m373.163 357.886 8.588 8.004 13.681-10.26 1.28 23.551-8.702 9.27 2.047 18.54 20.734 15.283 19.85-9.032-2.815-10.272 17.406-6.765-8.588-60.117-13.822 1.253-12.287-15.033-8.959 4.26-14.59-10.273-6.656 9.27 1.024 16.035-5.63 1.253zM206.877 243.161l-2.56-11.526 19.332-12.803 9.343-3.007 1.401-6.114 11.142-2.405 2.944 11.776 9.214-3.507 6.4 2.38-1.287 20.822-26.998-4.16-6.662 18.817-12.542-3.508.255-6.89z" clip-path="url(#p303e3f7570)" style="fill:#d3d3d3;fill-opacity:.8"/><path d="m221.161 245.252-.215.457.294.12.251-.401z" clip-path="url(#p303e3f7570)" style="fill:#d3d3d3;fill-opacity:.8"/></g><g id="PatchCollection_5"><path d="m241.307 215.429.719-.168.665 2.73-.72.168zM415.38 325.838l-.062-.46.956-.121.061.46zM220.644 244.999l-.23.45.388.183.222-.443zM222.844 246.011l-.402.95.373.175.453-.914zM221.892 245.618l.365.181-.237.599-.419-.185zM223.902 242.594l-2.507-.942.23-.577.999.394.2-.464.978.471-.137.535.323.147zM220.82 240.543l-.115.896.263.104.102-.129.141.072.326-.93zM211.358 238.428l-.646.028-.065-1.09.646-.034.036.576.905-.014-.136-1.216-1.509.077.043-.71 1.387-.113.87-.126-.066-.084-.309.034-.014-.38.302-.027-.022-.809.539-.042.237 3.537-.546-.015-.761.05-.855.007zM226.847 239.032l-.145.426-.34.869.71.281.187-.47.223.027.33-.808zM226.347 240.588l-.144.4-.065.225-.15-.035-.302.963.136.028-.366.837.1.063-.171.549 1.005.33.603-1.73-.302-.147.23-.542.482.176.036-.253-.33-.084.134-.504zM225.117 244.002l.907.379-.174.312.186.11-.238.423-1.008-.45.198-.347-.1-.052zM407.586 332.538l.432.233-.182.355-.443-.213zM224.458 241.097l-.32 1.591.511.163.576-1.566z" clip-path="url(#p303e3f7570)" style="fill:#a9a9a9;fill-opacity:.8"/></g></g></g><defs><clipPath id="p303e3f7570"><path d="M95.902 86.4h546.196v554.4H95.902z"/></clipPath></defs></svg>