<svg xmlns="http://www.w3.org/2000/svg" width="960" height="960" viewBox="0 0 720 720"><defs><style>*{stroke-linejoin:round;stroke-linecap:butt}</style></defs><g id="figure_1"><path id="patch_1" d="M0 720h720V0H0z" style="fill:#fff"/><g id="axes_1"><path id="patch_2" d="M90 638.77h558V88.43H90z" style="fill:#fff"/><g id="LineCollection_1"><path d="m408.952 310.611-1.696-.838M411.719 312.757l-.335-.212-1.25-.951-1.182-.983M407.864 309.031l.317.4.771 1.18M185.85 222.542l-1.453-1.522-1.53-2.454-1.907-1.637M181.906 202.253l-.264 4.934-.353 5.676-.33 4.066M359.092 268.485l-.7-.402-1.32-.732-.538-.642-.507-1.734-.437-1.81-1.826-6.754-1.781-6.576-2.012-7.71-.721-2.526-.384-1.256-.583-1.075-.83-.793-1.289-.672-4.176-1.12-4.537-1.188-6.716-1.457-4.43-1.05-3.005-.846-1.636-.294-3.793-.068-2.633.034-2.215-.124-1.624.215-1.369.53-1.079.61-1.229.745-1.891.767-1.96.351-2.818.418-1.95.17-2.482.056-1.98-.283-3.48-.78-4.002-1.185-1.948-.632-3.956-1.524-4.825-1.773-5.161-1.908-4.276-2.013-3.41-1.546-2.25-1.107-1.798-.497-2.447-.316-2.657-.407-3.955-.304-2.68-.215-2.122-.372-3.561-1.22-2.954-.86-5.974-1.864-8.689-2.91-4.671-1.438-1.542-.415-1.1.063-.72.176-1.149.735-1.723 1.022-1.672.814-2.166.639-2.28.83-3.776 1.277-1.73.76-2.675 1.38-2.903 1.677-2.141.99-2.235 1.193-1.212.908-.678.35-.806.21-.519.059-2.033-.209-.423-.164-.492-.15" clip-path="url(#p6d8f67b26f)" style="fill:none;stroke:#000"/><path d="m210.802 385.538-2.03-6.102.036-2.982-.142-1.109-1.995-4.854-.606-.832-5.45-5.408-2.779-3.259-.676-1.63-2.743-8.042-1.105-1.872-3.206-4.265-2.85-2.808-1.71-1.422-3.81-1.63-1.426-.796-3.17-2.08-1.033-.867-.464-.59-.57-1.109-.712-2.08-.356-3.78.534-2.6.107-2.773-.249-2.184-1.781-4.819-1.603-1.664-.748-.382-.89-.277-3.528-.416-.89-.208-4.203-1.422-1.746-.866-5.165-3.224-.57-.624-.25-.832-.07-1.04.32-2.566 1.745-4.923 1.603-3.952-.712-4.577 2.351-3.596 5.593-4.37 8.264-1.456.142-1.074-3.49-7.906-.321-12.17 3.17-8.01 1.07-3.988 3.062-5.167 4.631-7.732 4.667-7.352.802-3.309M363.61 242.018l-.093-.472-.055-1.682.691-2.451.445-1.764M369.1 238.122l-1.098-1.24-3.404-1.233M369.1 238.122l4.014.951M363.61 242.018l2.877-2.319 2.613-1.577M373.114 239.073l-8.856 5.325M365.286 247.362l8.587-5.351-.76-2.938M364.258 244.398l-.418-1.203-.23-1.177M364.258 244.398l1.028 2.964M372.983 246.132l-6.59 4.027M366.394 250.16l-.588-1.302-.52-1.496M370.63 257.743l-.111-.172-2.441-4.17-1.428-2.675-.256-.567M378.366 253.373l-7.736 4.37M373.267 262.413l-.83-1.853-1.807-2.817M378.845 268.765l-3.877-6.837-1.7.485M377.859 271.311l-1.153-1.92-1.704-2.958-1.735-4.02M380.846 267.39l-2 1.375M380.846 267.39l1.58 2.568M396.995 240.626v7.767l-2.4 7.117-1.152 1.973-1.427 1.928-.768.597-1.689 1.032-.98.696-3.564 2.591-4.17 3.063M377.859 271.311l1.017-2.323-.03-.223M382.427 269.958l-1.205.766M390.36 287.067l-.272-4.071-5.237-10.09-.935-.885-1.49-2.063M381.222 270.724l-2.702 1.72M387.272 283.825l.178-.908-.901-1.574-1.314-2.452-2.084-4.142-1.929-4.025M378.52 272.443l-.667-1.121.006-.011M379.48 274.291l-.625-1.283-.335-.565M373.435 278.742l2.146-4.054.77-1.87M382.256 279.99l-.668-1.363-2.109-4.336" clip-path="url(#p6d8f67b26f)" style="fill:none;stroke:#000"/><path d="m377.04 277.09 1.94-2.468.5-.33M377.04 277.09l-2.196 2.794M382.256 279.99l-.731-.174-4.485-2.725M372.847 278.161l-2.004-2.056M372.847 278.161l-1.454 3.065M373.435 278.742l-.26-.243-.328-.338M374.844 279.884l-.486-.28-.923-.862M381.569 283.375l-2.007-.96-4.718-2.531M382.256 279.99l.601 1.224M382.857 281.214l-1.288 2.16M383.977 283.462l-.577-1.144-.543-1.104M329.174 295.616l8.05-3.605 3.92-2.08 2.28-.903 2.066.07 1.567.278 6.412.9 14.035-1.455 1.424-.833.856-1.802.355-1.388.56-2.125.694-1.447M374.734 285.47l-.703-.831-1.118-1.533-.141-.475-.065-.529-.413-.348-.9-.528M381.569 283.375l.697.333M383.977 283.462l-.85.672M383.977 283.462l.49 1.03M382.266 283.708l.862.426M378.699 290.006l1.618-2.768 1.949-3.53M390.36 287.067l-1.378-1.373-1.313-1.554-.397-.315M384.468 284.493l.996-.462 1.059-.343.63.043.119.094M383.128 284.134l1.018.478M384.468 284.493l-.322.119M384.614 284.832l-.094-.228-.052-.111M384.146 284.612l.468.22M384.614 284.832l.32.773M384.934 285.605l-.214 1.022M384.934 285.605l.146.993M384.72 286.627l.137-.095.11.005.113.061M385.997 291.561l-.587-2.713-.33-2.25M384.136 290.2l-.044-.507.456-2.25.172-.816M398.833 291.548l-2.244 1.607-.82.208-1.317.936-.908.017-.909-.503-.142-1.439-.481-1.126-.695-2.6-.956-1.58" clip-path="url(#p6d8f67b26f)" style="fill:none;stroke:#000"/><path d="m388.328 290.48.774-.887 1.324-2.24-.065-.286M374.734 285.47l2.304 2.73 1.661 1.806M380.922 291.965l-1.8-1.44-.423-.519M398.482 290.62l.35.928M386.332 293.391l-.514-.633-1.042-1.67-.64-.888M380.922 291.965l1.336-2.198 1.878.433M386.332 293.391l-.292-1.629-.043-.201" clip-path="url(#p6d8f67b26f)" style="fill:none;stroke:#000"/><path d="m388.328 290.48-.257.296-.912.54-1.162.245M383.517 295.748l-2.378-3.255-.217-.528M386.332 293.391l.024.444M399.758 293.875l.03.539M399.758 293.875l-.299-1.198M399.758 293.875l2.834 1.57M383.517 295.748l.836-.644 2.003-1.27M385.007 300.977l.238-.939.485-1.627.586-2.659.093-.971-.053-.946" clip-path="url(#p6d8f67b26f)" style="fill:none;stroke:#000"/><path d="m389.25 291.372-2.172 1.973-.722.49M397.726 297.89l1.54-2.6.522-.876" clip-path="url(#p6d8f67b26f)" style="fill:none;stroke:#000"/><path d="m398.275 298.1.362-.791 1.15-2.895M383.517 295.748l.749.972M397.726 297.89l.549.21M395.53 301.858l.111-.35.369-.927 1.02-1.592.696-1.1M398.275 298.1l2.2.844M396.052 302.131l.157-.174.522-.852.897-1.83.647-1.175M406.775 298.634l-1.82 2.13M408.915 305.791l-.14-1.13-.522-1.898-.998-3.557-.48-.572M614.222 147.926l-.544.607-1.47 1.76-.97 1.265-1.45 1.595-.972.859-.56.33-1.239.476-.819.26-.97.364-.98.572-3.634 2.185-7.267 3.918-8.121 3.329-3.955 1.128-6.804 1.7-1.21.555-.855.658-7.232 6.935-5.165 6.658-1.852.936-18.025 4.265-13.145 3.156-1.282.208-1.567.416-1.07.416-2.101 1.249-3.206 2.115-10.259 7.038-5.059 3.33-3.455 4.299-.783 1.422-2.992 2.67-3.171 1.595-10.722 3.918-1.568.694-2.956 2.289-4.845 4.854-5.77 6.222-2.529 2.913-1.782 2.357-.605 1.249-1.71 2.912-3.312 4.957-2.459 3.016-2.671 1.907-5.059 3.19-1.21.659-2.637 1.005-1.389.381-1.995.936-2.066 1.907-2.994 3.106-4.314 3.81-2.226 2.033-1.09 1.046-1.229 1.629-4.283 5.992-5.42 6.977-1.105 1.755-1.77 3.028-1.813 2.81-1.875 2.72-.716.827-1.143 1.34" clip-path="url(#p6d8f67b26f)" style="fill:none;stroke:#000"/><path d="m402.592 295.445.765.576 3.418 2.613M404.956 300.765l-2.26 2.534M401.399 299.3l2.676 1.026.88.439M406.847 308.49l.423-1.805.043-.74-.097-.961-.782-1.807-1.053-1.965-.425-.447M388.332 304.595l-1.418-1.244-1.167-1.51-.74-.864M384.852 301.46l.114-.328.041-.155M390.474 303.772l-.16-.18-.89-1.194-.706-.677-.88-.74M395.53 301.858l.522.273M395.242 303.032l.107-.613.18-.56M396.052 302.131l-.81.901M402.696 303.3l-.88-.378-2.042-.186-2.502-.076-1.22-.529M395.242 303.032l-.195.596" clip-path="url(#p6d8f67b26f)" style="fill:none;stroke:#000"/><path d="m401.65 304.367.484-.303.426-.613.136-.152M390.474 303.772l2.27-.285 2.303.141M394.437 306.134l.054-.809.556-1.697M390.474 303.772l-.253.756M401.65 304.367l.576 2.809" clip-path="url(#p6d8f67b26f)" style="fill:none;stroke:#000"/><path d="m399.081 305.758.925-.362 1.644-1.029M390.22 304.528l.26 1.943M390.22 304.528l-.232.69M388.332 304.595l-4.442 3.68M388.332 304.595l1.656.623M389.988 305.218l-.447 1.333M399.081 305.758l.054 1.4M397.88 306.013l.726-.068.475-.187M397.88 306.013l.038 1.09M394.437 306.134l2.247-.01 1.197-.111M394.437 306.134l-2.71.231M394.437 306.134l-.055.808M391.726 306.365l-1.246.106M391.726 306.365l-.003.478M390.48 306.47l-.94.081M415.951 306.489l-1.629 7.578M388.727 308.389l.108-.18.706-1.658M391.723 306.843l2.66.1M391.723 306.843l-2.573 2.001M394.382 306.942l3.536.16M397.918 307.103l1.217.055M399.135 307.158l2.14.097M402.226 307.176l-.064.435M402.226 307.176l-.95.079M406.847 308.49l-1.327-.442-3.294-.872M401.276 307.255l.886.356M407.256 309.773l-3.005-1.324-2.09-.838M383.89 308.275l-1.407-.141M384.852 301.46l-.301.867-.737 1.674-.399 1.136-.031 1.12.107.987.4 1.031M386.304 310.628l-.51-.724-1.074-.867-.83-.762M388.727 308.389l.423.455M388.727 308.389l-.793 1.311M407.864 309.031l-.759-.455-.258-.087M389.15 308.844l-1.216.856M407.864 309.031l-.608.742M408.915 305.791l.074.603-.447 1.811-.678.826M387.934 309.7l-1.63.928" clip-path="url(#p6d8f67b26f)" style="fill:none;stroke:#000"/><path d="m405.937 310.919.779-.487.54-.659M386.304 310.628l.445 2.197M378.809 315.946l.689-.45 3.9-2.615 2.239-1.585.667-.668M389.32 314.175l-.44-.625-1.428-1.599-1.148-1.323M381.151 313.6l1.338-.856 3.017-1.891.798-.225M402.785 316.805l.461-1.368.813-2.3 1.582-2.033.296-.185" clip-path="url(#p6d8f67b26f)" style="fill:none;stroke:#000"/><path d="m389.32 314.175 2.7-2.179 1.119-1.056.575-.338 3.409-1.004 1.129-.085 3.473.909 3.42.475.792.022M414.322 314.067l-1.666-.717-.937-.593M410.786 318.176l-.22-3.055 1.153-2.364M384.815 320.71l1.987-3.508.662-1.797-.054-.654-.66-1.926M380.288 320.62l1.779-2.34 4.682-5.455M417.965 316.346l-.516-.474-1.461-.988-1.4-.703-.266-.114M390.747 320.838l.114-2.193-.415-2.151-.46-1.375-.666-.944M371.106 319.742l1.698-1.032 3.838-1.779 1.688-.642.479-.343M381.151 313.6l-1.963 1.258-.38 1.088M417.965 316.346l-.81 5.317M422.785 320.769l-1.545-1.42-3.275-3.003M399.062 316.572l.093.725M402.785 316.805l-3.63.492M403.372 323.118l-.663-5.38.076-.933M399.155 317.297l.797 6.182M410.786 318.176l.34 4.123" clip-path="url(#p6d8f67b26f)" style="fill:none;stroke:#000"/><path d="m413.606 322.037.285-3.987-3.105.126M232.782 397.221l1.816-.45 1.283-1.422.676-1.629.463-3.71.464-1.733.89-1.491 2.209-2.74 1.531-.97 3.883-1.733 1.319-.173 1.389.277 1.852.693 2.315.243 5.77.173 2.138-.277h1.14l6.626 1.733 1.71.347 2.707.07 1.888-.243 3.883-1.942 4.168-2.253.89-.347 1.425-.035 3.883.416 2.743-.173 2.209-.347 3.205-.312 1.532-.38 3.527-1.18 1.887-.867 2.209-1.56 2.636-1.56 2.85-1.352 3.776-1.594 1.211-.66 5.878-4.437 3.455-1.074 2.137-.417 1.14-.52 3.42-2.322 1.39-1.11 2.849-3.397 1.603-1.387.82-.867 1.566-2.219 2.78-4.437 1.424-1.7 6.555-6.655 3.633-4.473 2.03-2.947 1.39-1.144 1.745-1.04 2.316-1.63.723-.357 2.182-2.504 1.357-1.374 2.057-2.72 1.77-1.567M378.974 322.553l-7.177-2.317-.691-.494M380.288 320.62l4.313 2.935M378.974 322.553l.866-1.344.448-.589M384.696 323.003l-.25-.476-.25-.729.13-.56.489-.528M384.696 323.003l.13-.497.098-.845.043-.38-.152-.571" clip-path="url(#p6d8f67b26f)" style="fill:none;stroke:#000"/><path d="m390.747 320.838-2.252-.054-3.68-.074M426.23 324.303l-.162-.221-.885-1.025-1.676-1.625-.722-.663M420.285 321.263l1.872-.24.628-.254M390.629 324.735l-.014-1.352.132-2.545M420.285 321.263l-.008 3.049M417.156 321.663l1.378-.146 1.75-.254M417.156 321.663l-3.55.374M417.156 321.663l-.726 4.593M413.606 322.037l-2.48.262M413.118 326.9l-.03-.82-.022-1.173.54-2.87M405.646 322.877l.524-.056 4.957-.522M384.529 324.13l-1.095-.113-.737-.15-3.723-1.314M384.601 323.555l.019-.15.076-.402M403.372 323.118l2.274-.24M403.372 323.118l-.937.099M402.435 323.217l-2.483.262M401.32 328.077l.37-.777.322-1.06.423-3.023M399.952 323.479l-9.323 1.256M384.601 323.555l-.072.575M390.629 324.735l-5.752-.569-.348-.036M430.805 329.713l-1.1-.774-.57-.569-.476-.583-.539-.757-.879-1.344-1.011-1.383" clip-path="url(#p6d8f67b26f)" style="fill:none;stroke:#000"/><path d="m420.277 324.312 4.598.317 1.355-.326M420.277 324.312l-.008 2.674M391.026 328.362l-.38-1.841-.017-1.786M406.28 326.357l-.634-3.48M406.28 326.357l.074 5.459M406.28 326.357l2.665.193M408.945 326.55l-.413 5.343M408.945 326.55l2.335.127M411.28 326.677l-.42 5.335M411.28 326.677l1.838.222M413.118 326.9l-.642 5.209M391.026 328.362l8.667.178 1.029-.074.599-.389M402.34 331.621l.483-3.255-1.502-.289M391.026 328.362l.558 3.437M400.766 331.5l1.575.121M400.766 331.5l-.514 4.946M395.537 331.538l1.09-.073 3.57-.01.57.044M395.537 331.538l-3.953.26M395.537 331.538l.57 5.228M404.568 331.754l1.786.062M404.568 331.754l-.35 4.57M402.34 331.621l1.255.098.973.035M392.635 337.034l-.208-1.219-.843-4.016M406.354 331.816l2.178.077M406.354 331.816l-.312 5.354M408.532 331.893l-.447 5.367M410.86 332.012l-1.555-.092-.773-.027M410.86 332.012l1.616.097M410.86 332.012l-.406 5.353M412.476 332.109l-.714 5.314M404.218 336.325l-.36 3.621M404.218 336.325l1.824.845M400.252 336.446l1.838-.142 2.127.02M400.252 336.446l-.365 3.7M400.252 336.446l-4.145.32M396.107 336.766l-3.472.268M392.635 337.034l.587 3.448M406.042 337.17l-.42 5.733M406.042 337.17l2.043.09M408.085 337.26l-.467 5.89M408.085 337.26l2.37.105M410.454 337.365l-.483 6.187M410.454 337.365l1.308.058M409.971 343.552l.564.097.434-.138.532-3.72.261-2.368M389.475 338.578l.586 4.895M403.858 339.946l-3.971.2M403.858 339.946l-.28 2.81M399.887 340.146l-6.665.336M393.663 343.342l-.147-1.131-.294-1.73M403.579 342.757l2.044.146M393.663 343.342l7.355-.211 2.56-.374M407.618 343.15l-1.035-.178-.96-.069M407.618 343.15l1.167.199M393.663 343.342l-3.602.131M392.898 348.384l.204-.57.614-1.568.169-1.196-.222-1.708M390.061 343.473l-2.587.095M409.971 343.552l-1.186-.203M386.146 343.617l1.328-.049M386.146 343.617l.023-3.792M383.367 347.805l-1.408-.549-.999-1.69-.882-1.13.321-.831 5.747.012M390.295 352.678l.888-1.366 1.32-1.824.395-1.104M386.518 348.44l1.932.423 1.933-.106 2.515-.373M383.367 347.805l.328.128 2.823.507" clip-path="url(#p6d8f67b26f)" style="fill:none;stroke:#000"/><path d="m387.474 343.568-.164 1.909-.792 2.963M364.204 271.315l-2.772-1.503M364.204 271.315l-3.855 6.504M370.843 276.105l-.2-.206-1.858-1.719-2.303-1.629-2.278-1.236M359.265 279.647l1.084-1.828M359.265 279.647l-2.521-1.385M359.265 279.647l1.506.574M354.518 277.04l1.001-1.874M354.518 277.04l2.226 1.222M355.646 280.242l-2.303-1.144 1.175-2.059M361.432 269.812l-3.658 6.593M359.092 268.485l1.91 1.093.43.234M355.646 280.242l1.098-1.98M355.646 280.242l2.397 1.372M356.744 278.262l1.03-1.857M359.092 268.485l-3.573 6.681M355.52 275.166l2.254 1.239M360.349 277.819l-2.575-1.414M613.242 115.39l-2.835 2.368M609.101 113.63l.294.304.196.355.169.494.143.737.347 1.43.157.808M608.291 131.498l.614-.607.499-.407.232-.252.204-.312.125-.564.134-1.136.115-1.89-.097-1.681.07-.858.09-.712.231-1.569.116-.9.018-1.353-.143-1.024-.092-.475M607.46 130.777l.831.72M609.101 113.63l-2.912 1.396-4.56 2.098-1.066.514-.242.182-.074.101-.007.09.036.134.086.11.907.936 1.75 1.609 1.21.85.428.311.321.235.267.286.258.398.299.837.796 3.125.446 2.376.151.597.265.962M605.851 129.553l.98.679.629.545M606.99 133.273l-.409-.76-.223-.374-.24-.676-.08-.633-.187-1.277M603.072 127.943l2.458 1.387.321.223M608.291 131.498l-1.078 1.43-.223.345M604.634 137.783l-.012-.148.205-.39 1.433-2.722.455-.824.275-.426M600.4 141.814l1.96-2.306 2.274-1.725M613.198 145.784l-.606-.303-.543-.347-1.728-1.152-2.529-1.916-1.015-1.12-.855-1.126-1.176-1.517-.098-.356-.014-.164M613.198 145.784l-.597-1.213-.632-2.167-.677-2.038-.116-.624-.196-1.898-.231-.902-.214-.832-.41-.728-1.202-2.393-.632-1.491M596.794 99.013l.65.46.436.425.517.684.48.668.17.685.311 1.092.099 1.032.196 1.508.097.954.116.858.187.625.268.59.41.415.65.555 1.406 1.187.81.599.802.347 1.086.347 1.14.216.677.252.998.58.801.538M613.198 145.784l1.3 1.813M614.498 147.597l-.276.329M613.59 152.226l-1.15 1.265-.819 1.206-.338.45-.4.373-1.132.772M616.857 163.19l-2.582 1.528M619.982 170.906l-.203-.666-.722-1.543-.516-.97-.534-1.206-.846-1.942-.25-.884-.054-.505M613.59 152.226l.053.407.24.417.32.502.82 1.457.553.945.632 1.282.07.287.01.416-.098.85-.125.849.054.59.125.39.347 1.144.151.468.08.642.035.318M619.982 170.906l1.774-1.004.405-.19.272-.092.343-.026.24.022.298.017.9.122.89.017.98.078 3.74.33M624.463 182.23l-.97-.859-.57-.58-.384-.599-.07-.52.026-.563.24-1.335.027-.685-.009-.381-.115-.374-.214-.277-.383-.442-.565-.629-.2-.277-.255-.516-.138-.528-.534-1.552-.367-1.207M624.463 182.23l.721 1.07 1.328 1.678M614.222 147.926l.24.988-.035.382-.072.407-.632 1.855-.134.668M637.27 186.27l-4.935-1.492-5.752-2.046-2.12-.502M390.295 352.678l-2.336 3.595-2.044 2.502-1.91 1.712-2.129 1.712-2.909 2.853-21.58 21.684-.285 3.19 1.425 4.508-.356 7.836.427 7.974.5 3.814-.357 15.255 9.19 19.901-.106 2.715M399.459 292.677l1.244.27M398.833 291.548l.558.854.068.275M403.286 297.385l-1.887 1.914M401.399 299.3l-.923-.356M402.592 295.445l-2.116 3.5M381.151 313.6l-.645-1.687 1.977-3.78" clip-path="url(#p6d8f67b26f)" style="fill:none;stroke:#000"/><path d="m384.852 301.46-.944.433-.945 1.456-.57 1.474-.195.883.089 1.145.196 1.283M368.894 275.676l1.192.991.757-.562M368.894 275.676l-.713-.57M368.894 275.676l-1.301 2.881M377.264 287.052l-2.028-2.061M375.236 284.991l.675-.643M375.236 284.991l-.502.48M388.328 290.48l.922.892M389.25 291.372l.5-.454M410.66 306.66l-1.745-.869M430.805 329.713l-4.098 8.24-2.671 3.224-2.28 1.387-8.478 2.566-1.923.902-2.57-2.683M380.702 353.087l2.665-5.282M390.295 352.678l-5.123-1.099-.57 2.67M163.532 427.14l-1.638-3.362-.749-3.26-.32-4.333-1.71-13.798M232.782 397.221l-7.268-2.322-4.63-.937-6.555-2.981-2.101-1.283-3.1-.347-2.85-1.282M163.532 427.14l.997-.693.713-.173h2.066l1.639-.173.962-.208 1.21-.59 3.135-2.253 2.209-1.317 5.7-3.745 2.742-2.115 2.672-2.288 3.384-3.952.784-1.144.713-2.6.89-2.6 2.992-6.726.57-1.006 2.707-3.259 1.781-1.976 4.88-2.253M210.802 385.538l-.462.346-1.532.694-2.53 1.491M248.384 358.15l-3.028 1.871-1.888.902-1.318.797-2.35 2.011-3.314.936-4.916 3.051-1.745 1.594-3.42.694-3.028 1.006-.819 1.109-.535 3.328-.284 1.144-.463.693-1.318 1.526-4.204 4.09-4.952 2.636M163.532 427.14l-.178 3.086.32 4.022.357.693 1.923 1.907.713.936.285 1.005-.035 1.283-.25 1.283-5.165 14.076-.677 2.496-.82 3.883-1.175 3.71-.962 2.426-1.14 2.427-3.241 5.72-.677 1.595-1.283 6.622v.832l.535 2.635.32 2.288-.142 4.854-.142.866-.32.902-1.176 1.594-.428.832.142 1.388-.32 2.184-1.96.866-3.134 2.289-3.527 2.115-.997.207-12.29.59-3.42.45-.142.243-1.78 1.491-1.462 1.075-1.14 1.005-.463.797-.213.625-.285 1.906-.32 6.483-1.248 1.249-1.638 1.04-8.799-.728-1.923.207-1.532.833-1.282 2.634-1.496 5.547-.143 1.387-.071 3.57.356 2.428 2.386 9.672 1.888 9.812 2.138 8.009.89 1.94 3.135 5.305 1.282 1.942 2.565 2.912 3.064 3.016 1.14 1.664.962 1.872 3.383 8.425.285 1.317v1.803l-.534 1.075-2.244 2.808-.855 1.214-.498.97-.179.798-.249 3.883-.463 2.981-1.318 5.825-1.318 6.552-.32.659-3.42 2.739M232.782 397.221l-1.425 1.283-.535 1.941-.356 3.849-.463 1.768.071.936.499 1.733-.143 2.843-.32 2.08-.427.971-3.064 5.062-2.316 5.72-2.102 3.017-.284.38-1.39 2.982-2.671 6.795-1.247 1.664-.499 1.491-.178 8.53" clip-path="url(#p6d8f67b26f)" style="fill:none;stroke:#000"/></g><g id="PatchCollection_1"><path d="m186.234 220.232 1.122 3.803.56-.335 1.572-1.676 2.87-4.118 1.124-2.089 1.57-1.097 3.318-.71 1.444-.556.27-2.704-.382-1.962.635-1.452 2.587-1.344 2.206-1.004 1.333-1.591.301-2.394-.46-2.04-4.026-4.146-6.189.74-7.617 5.037-.492 1.329.032 1.946-.096 1.02-.714 1.22-.713 1.514-.048 2.07.285 1.205-.301 1.143-.175 1.25.064 1.901.206 1.143-.349.803-.381 1.39zM592.822 364.209l1.47.624 1.014-.772.749-.546.614-.07.543.157.383.546.009.086.695.945.9.46 1.13.347.614-.278 1.684-.616h.054l1.63.313 1.548.676 1.488 1.23 2.173 1.968.873 1.829.204 1.353.099 1.88.436 1.257.935 1.595.899 1.578.623 1.343.553.815.677.13.739-.113.854.07 1.007.823.882.754.801.659.82-.009.828.235 1.13.485 1.283.59.962.52 1.451.355.81.685 1.239.988.783.39 1.38.182 2.191.919 2.013.78.09.85-.766 1.542-.393.919-.516 2.15.445 3.467.178 1.473.677 1.89 1.39 2.236.89.763 1.496-.312 3.1-.173 1.14-.382 1.602.659 1.638-.486.606.382.25.693.463.555.142.485-1.069 1.283h-.463l-1.567.902-1.176 1.941-.178 1.04-.196.85-.231.884-.802.728-.961.59-1.692.97-.695.433-.766-.312-.231-1.3.587-1.855-.427-1.542-.481-.07-1.674.711-2.761.26-.713-.572-.64-1.144-.232-1.595-.16-1.82.035-2.497-.784-2.028-.89-.832-2.262-.676-2.53-.85-1.388-.537-1.835-.52-1.23-.087-1.353-.554-1.46-.763-.855-1.18-.588-1.82-.125-1.577-.41-1.751-.426-2.219-.339-1.439-.624-1.646-1.603-1.596-1.193-.919-1.407-1.646-1.62-2.236-2.03-2.6-1.444-1.266-.178-1.006-.018-.538-.641-.936-1.763-1.057-1.746-.468-3.295 1.56-3.063 1.145-1.265-.365-.498-1.265.053-1.665.339-1.369-.196-1.474-1.746-1.49-.82-1.093-1.264-.953-2.244-.78-1.781.676-1.105-.66-.747-1.507-1.3-.832-.606-1.214.035-1.075.303-1.664.285-1.768-.659-1.04-1.318-.208-1.977.433-1.888.433.053.017-1.175-.294-1.318-.989-2.547-1.837-1.033-1.422-.944-2.496-.606-1.439-1.727-.936-1.372-1.56-.463-1.491.499-.815 1.015-1.49-7.088-3.763-13.323-3.12 18.736-3.121 8.122 1.248 5.201 4.092 1.942 3.536.659 1.162.196 1.785-.303 1.058-.302.381-.375.676-.926.486-.178.641-.427 1.405-.321.676.249.849 1.051 1.023.837-.017.356-.104 2.227-.382.908.676.374 1.682.16 1.11.428.78 1.817.727.089.018 1.175.78.42.685-.081.52-.472.381-1.416.2-.632.407-.054 1.179-.17.902-.008 1.1.062.841.508.633 1.318.165.961-.035 1.541.841 2.084.867 1.763.329z" clip-path="url(#p6d8f67b26f)" style="fill:#00f;fill-opacity:.8"/></g><path id="PatchCollection_2" d="m405.477 331.582.41-3.702-.446-4.533-1.122.199.09 1.473-1.096.174-.232 1.23-.187 1.553-.365 3.536z" clip-path="url(#p6d8f67b26f)" style="fill:green;fill-opacity:.8"/><g id="PatchCollection_3"><path d="m375.482 259.513 2.96 5.613 3.865-1.955-3.007-5.58zM383.315 322.183l-1.704-.925.6-1.047 1.704.925zM430.296 335.04l.85-1.91 3.194 1.347-.85 1.91z" clip-path="url(#p6d8f67b26f)" style="fill:#90ee90;fill-opacity:.8"/></g></g></g><defs><clipPath id="p6d8f67b26f"><path d="M90 88.43h558v550.341H90z"/></clipPath></defs></svg>