<svg xmlns="http://www.w3.org/2000/svg" width="960" height="960" viewBox="0 0 720 720"><defs><style>*{stroke-linejoin:round;stroke-linecap:butt}</style></defs><g id="figure_1"><path id="patch_1" d="M0 720h720V0H0z" style="fill:#fff"/><g id="axes_1"><path id="patch_2" d="M90 630.748h558V96.452H90z" style="fill:#fff"/><g id="LineCollection_1"><path d="m498.66 219.326-2.228 11.479M498.66 219.326l.393-.356.196-.28.29-.294" clip-path="url(#p1ca0710586)" style="fill:none;stroke:#000"/><path d="m498.093 218.092.177.272.153.265.111.258.127.439M309.777 155.066l5.179-11.904 4.892-11.572 3.997-9.089M423.743 159.963l-.203-.368-.69-.34-1.84-.359-2.396-.462-2.59-.643-5.433-1.096-1.016-.397-.965-.274-6.79-5.046M283.098 217.352l.536-1.266 10.295-23.733 11.021-25.874 4.827-11.413M222.408 123.345l10.536 3.83 13.442 4.888 27.129 9.509 3.966 1.476 18.907 7.036 13.389 4.982" clip-path="url(#p1ca0710586)" style="fill:none;stroke:#000"/><path d="m322.9 160.24-9.372-3.73-3.751-1.444M422.002 163.87l.814-1.321.927-2.586" clip-path="url(#p1ca0710586)" style="fill:none;stroke:#000"/><path d="m433.283 173.683 2.7-11.502-.168-.634-.56-.16-10.37-2.071-.704.267-.438.38M328.902 162.591l-3.186-1.192-2.324-.913-.491-.246M335.104 160.581l-1.429.312-1.776.44-1.592.344-.858.109-1.021.032-1.287-.261-3.062-1.068-1.178-.25M335.156 177.657l4.399-10.287.706-1.651.202-1.146-.162-1.202-.253-.607-.44-.676-.668-.643-.715-.454-.679-.255-.715-.188-.905-.022-.822.055M334.878 164.88l-.912-.806-.364-.401-.286-.466-.13-.487.047-.576.215-.499.404-.432.465-.256.787-.376M328.902 162.591l5.976 2.29" clip-path="url(#p1ca0710586)" style="fill:none;stroke:#000"/><path d="m328.902 162.591 1.837.874 1.837.838.887.47.383.33.321.416.42.809 1.775 4.338.238.854.024.82-.072.632-.226.853-1.17 3.832M420.05 166.006l.207-.026.52-.358.589-.869.503-.668.133-.216M420.05 166.006l.006-.405.17-.528.366-.416.579-.34.83-.448M420.05 166.006l-.708.087-.893-.076-1.483-.415-1.645.624-1.646.34-1.807.056-.914.132-10.543-2.531M352.015 171.56l-9.26-3.716-2.392-.9-.841-.316-4.644-1.748M352.015 171.56l19.28 7.42" clip-path="url(#p1ca0710586)" style="fill:none;stroke:#000"/><path d="m335.156 177.657 1.914-3.6.595-.82.477-.52.595-.499.656-.388 3.896-1.928.704-.187.596-.104.73.036.889.132 3.605 1.174 1.169.367 1.033.24M433.283 173.683l-1.666-.208-.816-.006-2.02-.58-1.048-.281-.272-.287M429.322 191.105l1.274-5.145 2.687-12.277M335.156 177.657l-4.347 10.169M429.322 191.105l-.002.139M417.75 197.196l1.481-2.434 2.616-4.329.307-.307.485-.166.512-.025 6.17 1.17M435.734 192.345l-.565-.368-.662-.43-.48-.307-.66-.41-.989-.606-.638-.381-.847-.544h-.072l-.042.022-.031.037-.021.088-.158 1.6-.098.292-.138.15-.19.066-.201-.029-.622-.281M430.191 192.836l-.464-.346-.249-.24-.085-.235-.073-.771M417.75 197.196l-46.455-18.216M417.75 197.196l6.131 2.386M424.947 271.674l.74-3.426 2.33-9.59.454-1.964.369-1.759.49-2.354.653-3.15.175-.975-.014-.91-.134-1.006-.32-1.291-.404-1.248-.984-2.079-2.228-3.74-1.581-2.412-.606-1.101-.24-.66-.111-.777.02-1 .515-2.073.59-3.085.307-2.912.264-3.159.322-7.293.26-3.491.148-4.484-.097-1.101-.256-.997-.439-.852-1.168-1.905-.119-.332-.035-.326.033-.64" clip-path="url(#p1ca0710586)" style="fill:none;stroke:#000"/><path d="m495.132 216.764-7.04-1.334-3.374-.64-5.247-.993-6.107-1.155-1.4-.265-12.706-2.49-6.276-1.193-6.265-1.204-2.407-.487-2.348-.608-4.122-1.314-4.905-1.932-9.054-3.567M319.335 214.729l-3.038 7.118M330.809 187.826l-1.106 2.584-9.79 22.963-.578 1.356M322.968 217.845l-.787-.563-1.626-1.925-.464-.385-.756-.243M499.816 215.199l-.318.57-.342.403-.538.369M503.303 198.622l-.376 1.617-.462 2.455-.707 3.947-.97 4.434-.972 4.124M500.103 216.865l-.177-.424-.117-.361-.026-.411.033-.47M498.618 216.541l-.408.131M500.103 216.865l-.266-.141-.41-.108-.417-.063-.392-.012" clip-path="url(#p1ca0710586)" style="fill:none;stroke:#000"/><path d="m498.21 216.672-.446.06-.889.014-.619.002-1.124.016M498.21 216.672l-.162.176-.155.178-.066.232M495.132 216.764l2.695.494M495.132 216.764l1.145.477.68.267.688.337.292.132M500.439 217.155l-.124-.149-.212-.14M497.827 217.258l2.643.504M497.827 217.258l-.025.229.037.249.098.241M500.47 217.762l.03-.244-.012-.168-.05-.195M502.996 218.272l-1.548-.58-.532-.263-.477-.274M500.47 217.762l2.526.51M500 218.295l.216-.209.152-.164.102-.16M497.937 217.977l.156.115M498.093 218.092l.5.187.317.078.334.028.295.01M535.951 224.63l-2.334-.467-15.936-2.91-2.114-.416-4.504-.884-4.504-.973-3.563-.708" clip-path="url(#p1ca0710586)" style="fill:none;stroke:#000"/><path d="m500 218.295.654.028.911-.037 1.431-.014M499.539 218.396l.262-.034.199-.067M313.723 220.353l-.528-.288-1.03-.78M316.297 221.847l-2.365-1.379-.21-.115" clip-path="url(#p1ca0710586)" style="fill:none;stroke:#000"/><path d="m311.65 221.66.283-.075.454-.554.333-.422.444-.206.559-.05M311.267 221.388l.383.272M311.65 221.66l-.676.085M316.297 221.847l-3.751 8.79M184.84 148.36l4.06 4.225 4.53 6.695 3.168 5.22 2 5.145 1.303 4.104 22.301 46.063 2.001 4.691M254.46 266.224l-9.572-13.179-7.945-10.597-2.697-4.209-10.043-13.736M203.677 239.857l3.835-2.907 1.73-1.61 6.67-14.566.99-1.897.248-.39.05-.408-.073-.372-.364-.625-2.209-3.217-.104-.342.16-.326.274-.212.31-.118.632.093.563.36.922 1.271 1.769 2.413 5.123 7.5M201.655 242.552l.668-1.657.27-.35 1.084-.688" clip-path="url(#p1ca0710586)" style="fill:none;stroke:#000"/><path d="m197.883 247.354 2.824-5.946.407-.911.614-.388.74-.106 1.21-.146M312.546 230.636l-1.656 3.879-2.806 6.91-.424 1.67-.06 1.296.057 1.03M325.82 277.319l-1.123-3.207-1.877-4.713-1.11-2.572-.787-1.408-1.151-1.708-1.292-1.86-6.177-7.04-1.715-2.028-1.11-1.69-.788-1.502-.666-1.69-.323-1.689-.044-.791M283.997 297.668l16.948-40.008 4.356-10.274.548-.62.665-.545 1.143-.8M253.273 267.039l-.334.046-.303-.014-.266-.112-.571-.715-2.712-3.784-4.775-5.112-2.034-1.947-7.074-9.088M254.46 266.224l4.789 6.451M253.273 267.039l.259-.337.928-.478" clip-path="url(#p1ca0710586)" style="fill:none;stroke:#000"/><path d="m250.51 284.981 5.152-11.608.265-.898-.089-.617-2.46-3.278-.195-.549-.015-.555.105-.437M283.997 297.668l-3.06-3.104-10.744-10.595-10.944-11.294M283.098 217.352l-8.104 19.162-8.6 19.526-7.145 16.635M250.51 284.981l-5.22 11.76M268.529 292.189l-7.9-3.17-5.825-2.306-2.834-.96-1.46-.772M242.916 302.09l-1.813-.674-8.514-3.314-9.295-3.567-7.504-2.985-.561-.237-.598-.234-.768-.3-2.888-1.195-1.227-.484-2.353-.981M242.916 302.09l.815-1.838 1.558-3.51M247.554 296.783l-.468.697-1.797-.738M302.983 317.49l-4.361-4.64-12.04-12.488-2.585-2.694M234.257 321.722l2.106-4.857 6.553-14.774M245.96 303.19l-1.189-.32-1.855-.78M345.12 304.498l7.363 3.448M345.12 304.498l.547-2.542M345.12 304.498l-.633 2.498M344.487 306.996l-6.599-2.92-.278-.257-.15-.328-.12-.676.016-.336.175-.454.24-.316.151-.107.143-.055.223-.03.206.022 6.625 2.959M350.049 309.624l-2.628-1.251-2.934-1.377M342.406 315.8l.37-1.628.53-2.043.645-2.64.536-2.493M350.049 309.624l-.386.781M365.142 316.134l-7.755-3.205-7.338-3.305M514.098 304.835l-2.343-.077-2.424.133-2.6.202-1.728.231-1.66.39-1.612.48-4.961 1.61-5.475 2.024-1.682.572-1.754.405-1.46.144-1.165.029-1.475.072-1.304-.077-2.78-.082-1.101-.015-.816.047M440.887 344.384l1.947-1.554 2.951-2.351 2.981-1.943 8.194-5.158 1.658-1.127.702-.809.501-.985.287-1.177.517-4.981.12-.223.251-.24 4.648-2.386 3.683-2.112.662-.573.378-.586.443-1.227.28-1.51.256-.72.353-.557 1.452-1.252 2.492-1.39 2.115-.6M490.161 258.32l-6.033 27.213-3.42 13.808-.415 1.961-.423 2.535-.567 2.642-.986 2.86-.56 1.584M349.663 310.405l-1.22 2.448M343.532 316.313l3.282-6.475.247-.247.213-.052.366-.01 2.023.876M355.607 315.473l.816-1.467-.043-.267-.07-.23-.134-.207-.272-.17-6.241-2.727M348.444 312.853l6.992 2.993M348.444 312.853l-1.16 2.227M365.142 316.134l-.952 2.753M378.373 321.952l-7.724-3.487-5.507-2.331M347.284 315.08l6.984 3.17M347.284 315.08l-1.263 2.353M342.406 315.8l1.126.513M342.406 315.8l-.496 2.7M355.436 315.846l-.982 2.07M355.436 315.846l.171-.373M388.077 325.21l.192-.666.709-3.235.155-.95.155-1.086.546-2.305-.064-.305-.253-.303-.312-.157-.98-.248M343.532 316.313l2.489 1.12M346.02 317.433l2.542 1.256M354.268 318.25l.186-.333M353.118 320.52l.716-1.41.434-.86M234.257 321.722l-7.722-1.648-8.567-1.686M341.91 318.5l5.466 2.485M341.91 318.5l-.366 1.604M348.562 318.689l-1.186 2.296M348.562 318.689l4.556 1.832M302.983 317.49l5.558 6.291M309.972 320.537l-6.429-2.859-.56-.188M341.544 320.104l-.28 1.12M337.258 321.183l-2.435-1.161-.157-.177-.062-.13.022-.153.555-1.55.176-.179.212-.114.25-.027 5.725 2.412M354.19 321.044l-.477-.233-.595-.29M354.19 321.044l-1.283 2.303M357.47 325.335l.855-1.51.097-.355-.049-.428-.285-.236-3.897-1.762M347.376 320.985l5.53 2.362M341.265 321.225l2.589 1.175M341.265 321.225l-.44 1.497M337.258 321.183l3.567 1.539M337.258 321.183l-1.004 3.117M325.82 277.319l2.147 6.03 4.644 12.766 2.26 6.271.118.371.548 1.62.364 1.557.201 2.046v2.328l-.221 2.234-.303 1.371-.606 2.29-1.635 5.116M333.337 321.319l-.752 1.513-1.038 1.853-.156.732-.077.442" clip-path="url(#p1ca0710586)" style="fill:none;stroke:#000"/><path d="m333.038 323.501.121-.838.178-1.344M237.828 341.323l-5.155-2.065-3.37-1.245-.924-.556-.24-.423-.094-.512.406-1.282 5.806-13.518M387.021 325.717l-6.529-2.859-2.119-.906" clip-path="url(#p1ca0710586)" style="fill:none;stroke:#000"/><path d="m388.318 301.851-.509 1.455-2.503 5.05-1.916 3.595-.348.733-.201.486-.121.285-4.347 8.497M311.858 329.132l-1.446-1.973-1.871-3.378" clip-path="url(#p1ca0710586)" style="fill:none;stroke:#000"/><path d="m309.972 320.537-1.165 2.585-.266.66M343.854 322.4l5.178 2.227M343.854 322.4l-.798 2.758M340.825 322.722l-.778 2.654M352.907 323.347l-1.286 2.424M352.907 323.347l4.563 1.988M333.038 323.501l3.216.8M332.864 326.002l.159-2.18.015-.32M336.254 324.3l1.235.347M349.032 324.627l2.59 1.144M349.032 324.627l-.746 2.756M337.489 324.647l2.558.729M337.489 324.647l-.748 2.46M388.077 325.21l-.186.899M387.021 325.717l.484-.227.572-.28M343.056 325.158l2.675 1.128M343.056 325.158l-1.426 4.895M340.047 325.376l-1.42 4.875M387.021 325.717l.87.392M351.621 325.771l-.721 2.74M357.843 329.01l-.974-.79-1.169-.698-4.079-1.75M331.314 325.859l-.027 1.998M332.864 326.002l-.172-.336-.31-.168-.37-.016-.31.088-.214.144-.174.145M410.214 335.984l-8.012-3.583-9.102-4.074-5.21-2.218M345.73 326.286l-1.445 4.572M345.73 326.286l2.556 1.097M332.864 326.002l3.877 1.104M332.864 326.002l.109 2.87M309.438 327.75l-6.419-4.026-.186-.018-.194.033-.536.574-.108.4-.004.228.116.184 2.019 1.142M309.438 327.75l-.44.67-.292.312-.202.064-.268-.032-.299-.126-3.811-2.371" clip-path="url(#p1ca0710586)" style="fill:none;stroke:#000"/><path d="m302.58 328.224.344-.645 1.202-1.312M336.74 327.106l-.77 2.64M348.286 327.383l-1.564 5.03M309.438 327.75l2.42 1.382M301.269 332.05l.513-3.456.272-.286.269-.089.257.005" clip-path="url(#p1ca0710586)" style="fill:none;stroke:#000"/><path d="m304.518 332.565.333-2.386-.05-.375-.132-.235-2.089-1.345M350.9 328.51l-.835 2.556M357.075 332.868l-.338-.79-.635-.891-.891-.722-1.049-.574-3.262-1.38M331.287 327.857l.108 1.292M331.287 327.857l-2.145 5.611M332.973 328.873l2.998.872M332.973 328.873l.01.28M359.85 331.898l-.276-.64-.6-.98-1.13-1.269" clip-path="url(#p1ca0710586)" style="fill:none;stroke:#000"/><path d="m363.182 321.196.584 1.398.102.488-.12.408-.28.682-.862 1.39-.683 1.478-.346.82-.147.487-.189.652-.265.215-.29.07-2.843-.275M329.142 333.468l-5.215-3.513-1.607-.713-.854-.233-.882.181-1.467.629-2.186.657-1.524.012-1.181-.27-1.146-.442-1.222-.644M331.395 329.149l.265.237.37.112.421-.024.353-.128.18-.192M332.984 329.154l.048 2.43M331.395 329.149l.21.656.529 1.05.188.378.164.454.09 2.75M335.97 329.745l2.657.506M341.63 330.053l-3.003.198M344.285 330.858l-1.2-.524-1.455-.28M338.627 330.251l-.993 2.483M344.285 330.858l2.437 1.556M350.065 331.066l-.958 2.779M354.518 333.822l-.21-.394-.031-.104-.473-.575-.82-.534-2.92-1.15M359.85 331.898l-2.775.97M355.526 339.341l2.054.532.252-.02.304-.073.216-.148.164-.157 1.187-2.35.442-1.538.054-1.502-.1-1.21-.175-.598-.074-.379M333.032 331.585l4.602 1.149M333.032 331.585l.13 3.056M301.269 332.05l-1.41 6.57M301.269 332.05l3.25.515M346.722 332.414l2.385 1.43M304.518 332.565l1.578.3M337.634 332.734l-.102.345M306.096 332.865l-1.249 6.631M309.153 340.123l1.421-6.404-4.478-.854M329.142 333.468l3.433.969M327.217 338.83l.359-1.308 1.566-4.054M349.859 334.832l-.272-.525-.48-.462M332.575 334.437l.038 1.21-.04.612-.854 3.207-.145.887.161.83.486 1.021.411.95.107.492-.077.33-.224.34-.384.545-1.502 1.657M333.163 334.641l3.695 1.046" clip-path="url(#p1ca0710586)" style="fill:none;stroke:#000"/><path d="m332.382 341.218-.155-.385-.1-.687.1-.684.82-2.6.098-.645.008-.867.01-.709M352.704 338.605l-1.228-.432-.53-.359-.318-.345-.345-.747-.424-1.89M348.38 340.678l-.175-.95.144-1.618.45-1.378 1.06-1.9M336.858 335.687l.674-2.608M341.259 337.255l-.55-.294-.99-.414-2.861-.86M440.887 344.384l-1-.754-1.205-.697-.753-.686-.483-.702-.596-.818-1.553-2.168-.139-.116-.21-.085-.221-.03-2.143.122-.46.086-.615.188-1.091.404-.953.363-.788.336-1.209.49-.632.191-.537.106-.921.067-.627.039-1.506.3-.626.061-.647-.09-1.41-.585-3.206-1.393-.37-.202-.915-.755-.357-.238-.419-.134-.788-.133-.73-.257-3.563-1.31" clip-path="url(#p1ca0710586)" style="fill:none;stroke:#000"/><path d="m393.334 355.38.697-.69.587-.704.753-1.15 1.704-2.004 2.554-2.184 4.405-3.932 2.848-2.796 1.12-1.07.74-.884.763-1.255.71-2.727M424.947 271.674l-.371 1.587-.807 3.301-2.032 8.77-1.287 5.382-1.048 5.16-.978 4.268-2.092 9.359-2.326 9.715-1.14 5.212-1.639 7.18-1.013 4.376M340.21 344.1l.465-.838.246-.744.12-.61.034-.82-.175-1.36-.039-.616.059-.51.093-.42.246-.927M348.38 340.678l-4.204-1.456-1.083-.433-.483-.321-1.351-1.213" clip-path="url(#p1ca0710586)" style="fill:none;stroke:#000"/><path d="m337.532 333.08.571.55.355.322.885.686.338.339.905 1.052.324.5.349.726M352.704 338.605l2.822.736M354.518 333.822l-.013.393-.077.719-1.724 3.67M299.859 338.62l4.988.876M298.204 347.255l-.18-.365-.055-.596 1.099-5.69.198-1.042.264-.499.329-.443M316.249 339.127l3.049 3.054M316.249 339.127l-.482.491M318.969 338.032l-.99.168-.921.372-.81.555M322.504 339.419l-1.1.883M322.504 339.419l4.713-.59M318.969 338.032l1.043.049 1.002.275.904.487.586.576M323.661 342.616l.014-.83-.165-.816-.338-.768-.668-.783M357.075 332.868l.034.145.129.61.073.618-.089 1.068-.407 1.18-1.289 2.852M304.847 339.496l-1.855 8.686M304.847 339.496l4.306.627M310.86 342.65l.59.065.691-.141.728-.28.627-.466.718-.67 1.553-1.54" clip-path="url(#p1ca0710586)" style="fill:none;stroke:#000"/><path d="m314.89 341.531.306-1.008.57-.905M310.86 342.65l-.485-.323-.25-.228-.433-.53-.384-.737-.155-.709M340.21 344.1l-5.21-1.542-1.304-.563-1.314-.777M338.13 346.507l-3.883-2.79-.435-.408-.562-.74-.424-.55-.444-.8M319.298 342.181l2.968 2.982M319.298 342.181l2.107-1.879M319.298 342.181l-2.04 1.734M310.86 342.65l-1.406 6.604M340.21 344.1l-2.08 2.407M340.21 344.1l6.158 1.459M430.138 353.878l.426-.38 1.323-1.075 5.666-5.115 3.334-2.924M316.026 344.973l1.232-1.058M314.89 341.531l-.032.967.212.947.444.875.512.653M317.76 346.007l-.852-.386-.882-.648M322.266 345.163l2.152 2.102M319.624 346.24l.96-.174.894-.364.788-.539M323.661 342.616l-.242.944-.474.865-.679.738M346.368 345.559l-3.546 4.401M346.368 345.559l6.047 1.684M317.76 346.007l-2.84 5.468M319.624 346.24l-.632.005-.626-.078-.607-.16M338.13 346.507l-3.217 3.677M338.13 346.507l4.692 3.453M330.552 346.518l4.361 3.666M330.552 346.518l-3.644 3.205M356.502 348.643l.433-.46.505-.36 1.545-.73.314-.124.38-.022 7.057 1.964M352.415 347.243l.21.069M352.415 347.243l-.462.68-4.564 5.483M352.415 347.243l.33-.396M324.418 347.265l-1.92 6.195M324.418 347.265l2.8-8.435M326.908 349.723l-.294-.29-2.196-2.168M298.204 347.255l4.788.927M296.777 352.747l.746-4.64.115-.283.222-.242.344-.327M302.992 348.182l-1.075 5.927M302.992 348.182l6.462 1.072M356.502 348.643l-3.877-1.331M356.502 348.643l1.856.904M309.454 349.254l-1.21 6.086M309.454 349.254l5.465 2.22M358.358 349.547l-6.142 7.407M366.288 353.538l-4.133-2.033-3.797-1.958M342.822 349.96l-3.432 3.914M342.822 349.96l4.567 3.446M326.908 349.723l3.877 3.984" clip-path="url(#p1ca0710586)" style="fill:none;stroke:#000"/><path d="m322.497 353.46 4.087-3.47.324-.267M334.913 350.184l-4.128 3.523M334.913 350.184l4.477 3.69M296.777 352.747l.013.36M237.828 341.323l8.768 3.343 1.017.274.687.127 1.25-.105 1.34-.231 1.374-.026 2.422.217 14.008 2.314 18.469 3.083 8.346 1.343.384.157.35.291.534.637M314.92 351.475l-2.997 6.081M314.92 351.475l6.682 2.826M330.785 353.707l-4.25 3.8M330.785 353.707l4.13 4.167M296.79 353.107l5.127 1.002M296.79 353.107l-1.596 7.84M347.389 353.406l.272.213M347.389 353.406l-2.477 2.925-1.455 1.618M322.497 353.46l4.038 4.047M322.497 353.46l-.895.841M366.288 353.538l-4.789 4.145M366.288 353.538l1.125.46M339.39 353.874l-4.476 4M339.39 353.874l4.067 4.075M301.917 354.109l-.647 2.823M301.917 354.109l3.367.662M418.385 354.77l6.49-.448 5.263-.444M510.812 382.816l-.425-2.398-.481-3.589-.163-1.126-.606-3.09-1.156-6.945-.653-4.346-.52-2.917-.76-4.08-.676-4.8-.58-4.377-.118-.448-.197-.329-.33-.292-.401-.211-.445-.215-.74-.06-3.838.546-6.518 1.018-9.494 1.415-12.786 1.776-10.232 1.646-9.984 1.451-12.149 1.574-7.422.86M367.413 353.999l7.187 1.778M367.413 353.999l-.224 12.139M321.602 354.301l-6.496 5.68M418.385 354.77l-8.827 1.166-2.034.166-1.592-.083-1.315-.12-2.38-.599-.786-.184-.622-.03-2.093.168-1.068-.007-2.518-.217-.728.027-1.088.323M387.575 360.999l4.141-4.206.532-.534 1.086-.88" clip-path="url(#p1ca0710586)" style="fill:none;stroke:#000"/><path d="m381.129 355.9 2.356-.145 4.751-.274 2.803-.206.998.025 1.297.08M305.284 354.77l2.96.57M305.284 354.77l-.497 2.712M418.752 357.964l-.251-2.62-.116-.574M308.243 355.34l3.68 2.216M308.243 355.34l-1.48 7.553M374.6 355.777l-.623 8.898M378.884 356.03l-.567-.008-.643-.01-3.074-.235M352.216 356.954l-4.555-3.335M352.216 356.954l5.384 4.104M347.567 362.207l1.765-1.754 1.342-1.478 1.542-2.02M301.27 356.932l-.465 2.167M301.27 356.932l3.517.55M326.535 357.507l-4.37 3.755M326.535 357.507l3.999 4.134M334.914 357.874l-4.38 3.767M334.914 357.874l4.366 3.93M304.787 357.482l-.428 2.21M311.923 357.556l3.183 2.425M361.499 357.683l-3.9 3.375M361.499 357.683l-.09 8.565M343.457 357.95l.184.183M343.457 357.95l-.01.369M300.805 359.099l-.506 2.733M300.805 359.099l3.554.593M304.359 359.692l-.515 2.667M315.106 359.98l4.052 3.707M315.106 359.98l-5.544 4.855M387.575 360.999l5 1.767M387.575 360.999l-.324.283M357.6 361.058l-6.033 5.141M322.165 361.262l-3.007 2.425M322.165 361.262l3.925 4.1M295.194 360.946l5.105.886M295.194 360.946l-1.119 5.883M330.534 361.641l4 3.99M330.534 361.641l-4.444 3.721M386.365 367.859l.175-1.548.322-1.567.231-1.455.158-2.007M376.77 367.423l3.21-.557 1.044-.303.901-.465 1.254-.867 1.991-1.754 2.08-2.195M347.567 362.207l-4.427 3.863M347.567 362.207l4 3.992M347.567 362.207l-3.926-4.074M300.299 361.832l-1.358 5.982M300.299 361.832l3.545.527M339.28 361.805l3.86 4.265M339.28 361.805l-4.087 3.435M339.28 361.805l4.167-3.486M303.844 362.359l2.918.534M306.762 362.893l2.8 1.942M306.762 362.893l-1.166 5.497M319.158 363.687l-.186.173M309.562 364.835l4.85 3.243M309.562 364.835l-3.966 3.555M326.09 365.362l4.034 3.927M320.59 372.225l3.984-5.373.815-.78.701-.71M343.14 366.07l-4.3 3.696M343.14 366.07l2.362 2.341M334.803 365.89l-.268-.259M334.803 365.89l4.037 3.876M334.803 365.89l.39-.65M334.803 365.89l-4.356 3.732M351.567 366.2l-2.174 1.874M351.567 366.2l1.204 1.33M367.189 366.138l-.246 6.524M367.189 366.138l6.768 1.077M361.409 366.248l3.046-.338.954.003 1.78.225M361.409 366.248l-.147 6.258M361.409 366.248l-6.783 1.003M294.075 366.83l-1.083 6.208M294.075 366.83l4.866.984M373.957 367.215l-.118 5.61M373.957 367.215l.02-2.54M373.957 367.215l2.813.208" clip-path="url(#p1ca0710586)" style="fill:none;stroke:#000"/><path d="m386.365 367.859-7.293-.41-2.302-.026M354.626 367.25l-1.855.28M355.53 372.378l-.664-3.86-.24-1.267M352.771 367.53l-3.378.544M298.94 367.814l-1.158 6.084M298.94 367.814l6.538 1.077M384.879 373.18l.444-.323.165-.276.105-.499.64-3.068.132-1.155M349.393 368.074l-2.202 2.088M349.393 368.074l-3.891.337M305.596 368.39l-.118.501M345.502 368.411l1.689 1.751M305.478 368.891l4.49 3.04M305.478 368.891l-1.18 5.89M330.124 369.289l-.47.683M330.124 369.289l.323.333M330.124 369.289l4.41-3.658M338.84 369.766l-4.458 3.944M338.84 369.766l3.911 4.205M347.19 370.162l-4.439 3.81M347.19 370.162l2.24 2.204M329.655 369.972l-4.295 5.492M329.655 369.972l.792-.35M309.969 371.93l4.444-3.852M309.969 371.93l-4.41 3.932M309.969 371.93l7.077 4.752M320.59 372.225l4.77 3.239M320.59 372.225l-4.596-3.153M320.59 372.225l-3.544 4.457M349.43 372.366l6.1.012M349.43 372.366l1.678 1.745M355.53 372.378l5.732.128M366.943 372.662l6.896.163M366.943 372.662l-.106 5.3M361.262 372.506l2.996.046 2.685.11M373.839 372.825l-.15 3.18M373.839 372.825l11.04.355M292.992 373.038l4.79.86M292.992 373.038l-2.375 11.014M384.879 373.18l-.633 3.014" clip-path="url(#p1ca0710586)" style="fill:none;stroke:#000"/><path d="m403.06 376.72-.884-2.447-.146-.237-.184-.131-.237-.047-4.468-.335-2.939-.05-7.757-.098-.254-.028-.171-.044-.322-.183-.225-.077-.594.137M334.382 373.71l-4.066 5.003M334.382 373.71l4.068 3.909M334.382 373.71l-3.935-4.088M297.782 373.898l6.517.883M297.333 383.078l-.594-.177-.315-.17-.28-.332-.092-.386.1-.596.614-1.858 1.016-5.66M342.751 373.971l-4.3 3.648M342.751 373.971l3.9 4.03M351.108 374.11l-4.456 3.89M351.108 374.11l3.816 3.73M304.299 374.781l-.614 2.563M325.36 375.464l4.956 3.249M325.36 375.464l-3.302 4.521M305.56 375.862l-1.875 1.482M313.706 381.264l-1.46-1.077-2.74-1.863-2.47-1.5-1.477-.962M373.69 376.005l-.11 2.181M373.69 376.005l10.556.19M384.246 376.194l-.57 2.708M317.046 376.682l-3.34 4.582M317.046 376.682l5.012 3.303M303.685 377.344l-6.352 5.734M338.45 377.619l-3.24 4.115M342.897 381.248l-1.356-.773-.657-.516-.504-.447-1.93-1.893M346.652 378l-3.755 3.248M346.652 378l4.116 3.947M354.924 377.84l6.14.121M354.924 377.84l.267.28M373.58 378.186l-.126 5.617M373.58 378.186l-6.743-.225M330.316 378.713l-3.358 4.53M330.316 378.713l4.894 3.02M383.675 378.902l-.574 2.786M383.101 381.688l-1.96-.164-.117-.107-.033-.128.032-2.355.034-.101.093-.056 2.525.125M322.058 379.985l4.9 3.257M322.058 379.985l-3.451 4.504M313.706 381.264l4.9 3.225M313.706 381.264l-4.612 6.113M383.101 381.688l-.586 2.541M335.21 381.734l-3.403 4.511M342.756 386.685l-1.251-.691-1.38-.734-1.686-1.17-1.374-1.117-1.855-1.24M343.589 382.346l5.737.789M343.589 382.346l-.833 4.339M342.897 381.248l.368.501.324.597M349.326 383.135l-1.102 5.25M349.326 383.135l3.12.465M326.958 383.242l-4.682 6.19M326.958 383.242l4.85 3.003M360.441 383.502l-4.403 3.68M360.441 383.502l.433-.282M360.441 383.502l-5.25-5.383M366.136 389.104l-.194-.213-5.5-5.389M352.446 383.6l1.772 1.737M352.446 383.6l-1.678-1.653M366.778 383.586l6.676.217M366.778 383.586l-5.904-.366M366.778 383.586l-.337 5.497M366.778 383.586l.059-5.625M373.454 383.803l-.1 2.947M373.454 383.803l2.86.265M376.313 384.068l-.082 2.746M376.313 384.068l2.818.098M295.64 384.72l-2.406-.31-2.617-.358M229.148 386.438l.947.044 1.825-.054 14.486-1.087 16.535-1.047 11.622-.47 5.745-.476 3.51-.227.757-.035 1.004-.048.61.026.415.05 4.013.938M379.13 384.166l3.385.063M376.23 386.814l2.353.067.196-.02.138-.07.075-.12.139-2.505M382.515 384.23l-.94 4.96M318.607 384.489l-2.975 4.03M295.64 384.72l1.693-1.642M309.094 387.377l-12.655-2.463-.798-.194M354.218 385.337l-2.222 3.574M356.038 387.181l-.118-.117-1.702-1.727M331.807 386.245l.806.644M342.756 386.685l-.11.714M373.354 386.75l-.138 2.399M373.354 386.75l2.877.064M356.038 387.181l5.542 5.556M352.739 389.164l.9-.812.878-.657.788-.354.733-.16M309.094 387.377l6.538 1.142M302.13 400.307l-.015-.805.062-.296.625-1.263 1.518-2.935 1.141-2.808.462-.715.411-.545 2.76-3.563M342.645 387.4l5.579.985M342.645 387.4l-.88 4.471M348.224 388.385l3.772.526M348.224 388.385l-1.137 5.452M302.13 400.307l1.56-2.75.893-1.3 1.033-1.09 1.134-.737 1.513-.772 1.522-.57 1.584-.744 1.382-.873 1.358-1.084 1.523-1.868M322.276 389.431l-2.197-.083-1.747-.26-2.7-.569M351.996 388.91l.743.254M423.77 389.054l-.261.742M350.827 394.839l.31-1.762.243-.925.455-1.277.904-1.711M366.136 389.104l-4.556 3.633M366.136 389.104l.305-.02M366.136 389.104l6.71 6.796M373.216 389.149l-.275 5.459M373.216 389.149l8.36.04M373.216 389.149l-6.775-.066M409.395 389.488l-6.257.11-4.654-.037-2.978-.09-3.897-.094-8.93-.257-1.104.07M380.74 394.84l.451-2.12.237-1.502.147-2.029M412.532 400.617l-1.84-6.44-.987-3.985-.104-.313-.206-.39M423.509 389.796l-3.148-.037-4.588-.097-6.378-.174M327.178 390.702l-1.696-.235-1.296-.267-1.25-.318-.21-.083-.244-.151-.206-.217" clip-path="url(#p1ca0710586)" style="fill:none;stroke:#000"/><path d="m437.972 424.838-1.993-10.718-1.703-10.135-.47-2.877-.698-3.49-.388-2.23-.528-3.203-.167-.942-.221-.706-.119-.33-.192-.265-.225-.107-.458-.087-3.354.138-3.947-.09M341.765 391.871l5.322 1.966M340.694 394.048l.431-.455.218-.382.162-.374.26-.966M361.58 392.737l4.391 4.234M350.827 394.839l-1.904-.427-1.836-.575M336.499 398.717l-.354-.555-.82-1.419-.006-.125.023-.14.15-.176.828-.464 1.808-.794 1.363-.585 1.203-.41" clip-path="url(#p1ca0710586)" style="fill:none;stroke:#000"/><path d="m341.005 396.535-.233-.665-.242-.955-.013-.154.017-.184.16-.529M372.94 394.608l-.093 1.292M372.94 394.608l7.8.232M329.962 425.993l5.535.714 7.817 1.055 1.953.215.233.01.17-.058.15-.189.066-.135.037-.194 1.126-8.673.753-4.591.815-4.924.415-2.408.57-3.902.676-4.855.549-3.22M365.971 396.971l-.796.176-.46-.03-5.14-.969-1.072-.155-1.328-.068-1.961-.167-.649-.125-1.391-.412-1.41-.383-.36-.045-.577.046M379.992 399.34l.446-2.347.303-2.153M373.928 398.022l-.36-.75-.721-1.372M341.005 396.535l-.505.265M342.171 399.482l-.035-.399-.05-.368-.109-.308-.46-.787-.512-1.085M373.928 398.022l-1.323-.112-1.626-.166-3.995-.715-1.013-.058M340.125 397.766l.13-.495.245-.471M339.451 397.117l.55-.178.499-.14M340.125 397.766l-.674-.649" clip-path="url(#p1ca0710586)" style="fill:none;stroke:#000"/><path d="m336.499 398.717.57.611.082.055.1.005.315-.137.87-.377 1.038-.366.257-.14.214-.189.18-.413M373.928 398.022l6.064 1.318M381.325 477.491l.286-3.088.271-1.234.5-1.026.49-.834 1.425-1.663 2.714-2.977.965-1.077.688-.87.908-1.483 2.546-4.23.652-1.17.375-.876.196-.74.128-1.076-.093-.722-.354-1.126-.792-1.828-1.96-4.24-1.441-2.749-6.081-12.327-2.807-5.606-.574-1.596-.322-1.325-.148-1.227-.05-1.776.124-2.533.027-1.397-.077-1.256-.323-1.896-.986-5.143-.45-1.686-.757-2.119-1.304-3.61-.636-1.638-.537-1.325M434.816 458.124l-.792-.877-2.5-3.342-1.568-2.04-1.18-1.262-.897-.824-2.484-2.107-3.759-2.572-.437-.383-.405-.51-1.105-1.686-.668-1.21-1.226-2.594-1.32-2.224-1.28-1.83-1.584-1.769-1.74-1.797-.523-.755-.532-.978-.877-1.888-.645-1.144-1.005-1.332-.808-.884-1.176-1.137-4.11-3.859-4.77-4.454-3.17-2.676-.554-.515-.391-.588-.342-.646-.287-.885-.24-1.646-.117-2.45-.23-.954-.222-.497-.418-.553-.726-.487-1.354-.636-3.52-1.216-3.234-.964-2.628-.613M280.79 419.233l10.138-5.058 2.003-1.285 1.754-1.378 1.868-1.83.896-.976.858-1.172.605-.906 1.938-3.809 1-1.897.28-.615M434.816 458.124l.668.755.438.69.272.656 1.386 3.942 1.86 5.756 1.322 3.703.532 1.354 1.048 1.754 1.817 2.574 2.507 3.63 1.099 1.17 1.207.99 1.328 1.27.95 1.176.73 1.296.365.859.388 1.108.329 1.07.703 1.304.363.563.12.2.087.264.001.288-.093.832-.01.925.18 1.397.482 3.534 1.3 5.733M457.724 525.985l.15-.715.055-5.685-.723-3.1-.889-5.48-.121-4.088M490.606 483.065l-2.416-1.14-.353-.062-.255.027-.358.181-.899.951-3.715 5.45-3.37 4.786-.768 1.227-.822 1.487-.396.577-1.724 2.022-.718.978-1.188 2.198-1.925 2.663-1.09 1.82-.606.859-1.06 1.476-.369.205-.382.07-.347.004-5.326-.84-6.323-1.087M130.516 115.384l-11.433-8.657M184.84 148.36l-.635-.66-5.78-5.092-1.562-1.117-6.913-4.776-1.658-1.095-2.065-1.055-3.334-1.236-15.589-5.17-1.393-.592-.969-.571-14.426-11.612M216.824 385.713l-9.968-.44-8.318-.798-5.03-.881-11.203-2.177-1.933-.31-2.418-.177-.7.067-.428.1-.421.207-.408.359-.547.697-5.132 12.612-18.768 46.56-1.043 3.064M109.658 570.006l-8.927-3.363 2.334-6.087 5.86-15.068 7.05-17.622 7.737-18.687 9.02-21.71 6.683-17.325 8.15-19.54 1.19-2.852 1.752-3.156" clip-path="url(#p1ca0710586)" style="fill:none;stroke:#000"/><path d="m218.733 468.425-.69-.555-.703-.411-1.009-.47-8.342-2.862-26.654-8.955-20.915-7.176-9.913-3.4M218.733 468.425l4.547 2.033M224.432 446.022l-1.021 7.327-.415 2.235-.396 1.122-.676.927-2.775 3-.559.657-.353.671-.202.744-.03.725.728 4.995M211.145 602.449l-.458-1.96-.24-.512-.59-.88-1.32-2.397-1.452-3.912-1.28-3.234-1.166-1.688-.776-.809-.762-.696-3.57-3-2.22-2.237-3.586-7.838-1.103-2.671-.14-.866-.17-1.603.201-2.555.38-3.62.288-3.294-.155-2.079-.591-3.012-.32-2.17-.78-4.598-.188-7.399-.559-2.397-.31-2.815.062-2.007.14-1.602.357-1.111 1.643-3.398 2.3-5.438.746-2.194.341-1.083.139-1.118.063-1.509-.341-3.09-.272-4.17.21-1.706.34-1.356.653-1.993.73-1.631 1.32-2.426.667-.851.823-.592 1.957-1.025 1.35-.621.9-.592 1.655-1.465 2.414-2.418 2.018-1.776 1.165-1.068.853-1.076.389-.816 1.086-2.555 2.633-7.825 1.87-6.093.244-1.177M264.324 427.415l-14.16 7.06-9.239 4.606-2.275 1.328-2.313 1.56-2.173 1.819-2.64 2.635-1.568 1.978-1.452 2.057-1.941 3.544-.706 1.805-.412 1.191-.714 2.404-.412 1.783-.815 7.551-.224 1.722" clip-path="url(#p1ca0710586)" style="fill:none;stroke:#000"/><path d="m211.145 602.449.058-1.398 1-11.114.959-10.288 1.109-12.232 1.027-11.356.93-9.968 1.424-15.748 1.329-13.56.89-9.764 1.35-13.301.831-9.002.528-5.471.7-8.79M366.846 240.436l.344-.875 1.433-3.983 1.645-4.899 1.336-3.787.446-1.416.214-.998.1-.911-.097-2.918-.077-3.61.143-1.852.326-3.022.245-3.488.091-1.415.177-.982.83-2.9.674-2.47.353-1.602.033-1.513-.229-1.369-.302-1.093-.546-1.443-.924-2.246-.419-1.294-.367-1.304-.37-1.745-.231-1.518-.42-2.768.055-2.852-.014-1.183M352.805 282.346l.135-.713M345.667 301.956l.26-.996 1.046-2.643.607-1.146.78-1.558.659-1.236.97-1.459.615-1.061.355-.773.414-1.86.648-2.398.353-2.554.431-1.926M348.554 280.797l.998 1.08.617.328.613.152 2.023-.011M345.667 301.956l7.98 3.708M345.667 301.956l-6.234-2.783M573.657 332.479l-2.453.411-2.096.217M514.098 304.835l.094.003 6.303.811 6.474.867 1.002.216.776.246.9.462.451.455.31.49.386 1.082.593 2.363.576 2.54.534 2.268.567 1.928.325 1.061.194.867.04.65.046.83.03 1.877.148.483.311.477.536.498.698.397 1.39.643 8.306 2.75 4.115 1.17 5.077 1.184 3.618.622 2.702.592 2.173.375 2.733.13 3.602-.065" clip-path="url(#p1ca0710586)" style="fill:none;stroke:#000"/><path d="m590.638 240.6-.817 3.503-.854 3.812-1.475 5.95-1.615 7.163-.792 3.436-.792 3.61-1.056 4.795-.699 2.931-.636 2.6-.42 1.69-.698 2.888-.62 2.917-.886 4.101-.42 1.776-.387 1.502-.42 1.762-.667 2.397-.622 3.638-.201 1.112-.792 3.336-1.18 4.823-1.227 5.01-3.446 14.6-.528 2.108-.28 1.047M229.274 356.527l-.552.25-.432.166-.489.036-.683-.123-7.34-3.722-6.73-3.674-18.22-9.249-6.199-2.494-6.068-2.177-3.478-.96-2.78-1.076-1.78-.941-4.64-3.425-1.264-.654-3.644-1.937-.663-.44-2.714-2.876-3.702-6.295-6.121-8.628-.41-.382-3.4-1.781-7.163-2.58M357.075 332.868l-2.557.954M318.969 338.032l2.436 2.27M321.405 340.302l2.256 2.314M229.274 356.527l4.113-8.858 2.562-5.602.341-.336.45-.227.45-.143.638-.038M314.89 341.531l2.368 2.384M317.258 343.915l2.366 2.324" clip-path="url(#p1ca0710586)" style="fill:none;stroke:#000"/><path d="m216.824 385.713-.318-.337-.157-.336-.088-.338-.124-7.374.093-.622.187-.468.318-.495 3.71-4.71 3.68-4.318.94-1.278 1.358-2.754 2.85-6.156M380.441 359.891l.37.355.32.477.136.604-.046.59-.108.497-.255.57-.395.569-.514.425-.741.365-.668.199-.881.097-3.682.036M355.191 378.12l-4.423 3.827M216.824 385.713l9.312.538 3.012.187" clip-path="url(#p1ca0710586)" style="fill:none;stroke:#000"/><path d="m225.702 438.005-3.347-1.563-.442-.35-.237-.319-.143-.3-1.095-3.582-.182-.48-.146-.235-.297-.17h-.268l-.566.087-.339.006-.277-.034-.284-.13-.677-.401-3.109-2.062-1.094-.988-.198-.302-.058-.247-.206-1.985-.249-1.01-.394-.725-.223-.34-.533-.407-1.043-.478-1.657-.646-.608-.381-.485-.467-.603-.863-.622-1.52-.248-1.001.008-.361.035-.39 1.436-4.496.819-1.465 1.238-1.92 1.487-3.026.559-.704.928-.913 3.345-2.721 5.16-4.188.6-.541.435-.585 3.89-5.313 1.906-2.783.365-.451.303-.304.562-.513M280.79 419.233l-13.377 6.673-3.09 1.509M225.702 438.005l1.241-7.42.544-3.394.198-.69.454-.638.652-.466.912-.26 1.173-.075 6.424.635 6.792.382 17.454.977 1.147.132 1.63.227M225.702 438.005l-1.27 8.017M360.874 383.22l.19-5.259M211.145 602.449l-.158.882M211.145 602.449l.468.724M211.613 603.173l-.626.158M210.987 603.33l-.933-.167-18.129-5.874-14.054-4.597-16.298-5.448-18.45-6.086-15.794-5.278-17.67-5.874M588.034 549.323l4.404 3.09 6.9 6.726.993 4.735-1.683 6.785 7.273 5.11 3.23 11.087 5.465 9.7M588.034 549.323l15.946-21.307M381.325 477.491l-.087.947-.303 2.252-.179 1.935.047 2.057.167 1.238.384 1.704 1.582 4.629 1.908 4.877.249.91.096 1.13-.109 1.39-.496 1.782-.64 2.851-.687 1.874-1.42 1.873-3.387 3.448-7.783 6.086-4.257 2.767-13.46 9.876-2.93 2.767-.87 1.404-1.602 3.831-1.373 4.683-1.42 5.448-.045 2.98.092 8.087.686 19.239.32 9.534.047 2.98-.688 2.894-3.25 13.875" clip-path="url(#p1ca0710586)" style="fill:none;stroke:#000"/><path d="m483.37 620.473-19.998-1.5-25.463-2.195-22.483-1.501-17.887-1.732-28.32-2.31-13.166-1.039-14.136-1.357M457.724 525.985l-.684 3.265-1.446 6.357-2.279 7.597-3.613 7.96-.445 3.204-.166 3.67-1.5 4.65-1.113 3.929.5 2.17 1.78 1.344 3.001.258 4.67-.724 2.723.414 3.947 1.292 1.167.982 1 3.101 7.393 17.881 10.711 27.138M569.473 503.551l-.256-.159-.295-.108-.458-.083-2.217-.39-.644-.108-.512.015-.38.082-.315.213-.435.502-2.181 2.866-11.996 14.944-11.34 14.833-1.779 2.378-.833.258-1.835-.258-10.172-1.551-11.284-1.81-13.285-2.17-6.06-1.137-11.895-1.964-6.336-1.085-7.505-1.24-9.736-1.594M603.98 528.016l-12.506-8.087-1.501-1.809-.667-1.809-.612-2.377-1.111-1.758-1.78-1.137-10.007-2.283-3.361-1.134-.687-.35-.404-.306-.354-.394-.271-.47-.9-2.02-.167-.3-.179-.23M532.28 445.397l2.514 2.26 3.65 3.335 3.865 3.227 4.573 3.732 3.827 3.526 4.466 4.23.615.743.357.673.167.541.163 1.202.132 1.889.078 1.829-.054 1.407-.171 1.365-.272 1.378-.03.426.022.477.094.693.116.483.21.448.768 1.256.735 1.116 2.076 3.597 2.158 4.014.396.686.535.736 1.084 1.406 2.396 3.371.6 1.041.16.423.441 2.775.125.592.217.7.318.75.862 1.827M626.265 498.788l-2.317 2.886-5.14 6.909-12.018 15.678-2.81 3.755M510.812 382.816l.32 1.81.645 4.159.558 3.638.264 1.798.226 1.877.163 1.162.76 4.852.202 1.133.148.448.17.339.443.592 7.62 8.606 1.137 1.4.454.61.377.667.264.55.458 1.573 1.886 7.277M615.952 319.293l-5.077 2.01-3.68 1.458-4.565 1.762-8.369 3.09-3.54 1.227-2.33.765-2.67.462-3.245.434-3.524.765-3.54.809-1.755.404M554.482 376.433l-.12-.414-1.867-6.763-.357-1.74-.078-.765.015-.318.164-.476.931-1.877.132-.527.078-.809-.054-1.761-.04-1.127.055-.91.17-.859.273-.7 1.164-2.671.388-.722.637-.867 1.227-.895.806-.52.84-.346 1.397-.434.683-.36.73-.491.792-.723.853-1.154.73-1.213.73-1.112.978-1.329 5.077-6.793.784-1.149.536-.888.57-1.109.346-.74.28-.713.325-.68M311.153 318.145l1.203-2.434M311.153 318.145l-1.181 2.392M311.153 318.145l-6.026-2.734M312.356 315.711l4.646-9.401M312.356 315.711l-6.306-2.64M318.216 303.852l1.028-1.864-.034-.216-.119-.165-5.44-2.6M318.216 303.852l-1.214 2.458M318.216 303.852l-3.649-1.452M317.002 306.31l-5.777-2.427M355.607 315.473l8.583 3.414M363.182 321.196l.212-.105.131-.156.665-2.048M354.454 317.917l8.193 3.314.277.012.166-.027.092-.02M357.47 325.335l2.978 1.49M352.744 346.847l.008-.456-.162-.556-.408-.689-.285-.249-1.567-.487-.208-.145-.15-.21-.293-.632-.775-1.266-.291-.704-.232-.775M622.04 249.76l-1.058-1.527-1.196-2.109-.178-.455-.039-.288.062-.556.544-2.831 1.366-6.08.24-1.018M591.03 238.992l.437.152 30.572 10.617M634.683 254.219l-11.022-3.887-1.622-.571M634.683 254.219l-.464.577-.117.224-.085.455-.024.7-.155.687-.318.78-.389.44-1.56 1.306-.42.304-.24.288-.14.347-.038.491.023.405.14.281.24.361.311.253.295.166.504.267.132.072.233.18M537.66 269.042l-1.43-.476-.131-.007-.086.065-.093.166-.28.744-.248.54-.264.348-.318.339-.667.52-.622.411-2.402 1.43-.474.252-.155.145-.109.245-.073.26-.56 2.499-1.21 5.79-.707 2.91-.179.368-.28.34-.364.26-.295.151-.334.072-.504.022-.49-.05-4.984-1.098-.683-.166-.326.043-.302.137-.311.231-.256.347-.155.296-.9 3.827-.536 2.607-.575 2.563-.792 3.769-.676 3.032-.791 2.86M634.865 311.836l-.452-1.205-.125-.433-.062-.42.031-.519.062-.549.31-1.631.342-.91.156-.412.062-.26.031-.36-.039-.723-.015-.628.062-.346.155-.404.256-.657.388-1.04.101-.455.085-.614.04-.997-.032-1.22.07-.52.233-.678.295-1.069.45-2.108M615.952 319.293l1.49-.59 3.478-1.632 1.63-.65 1.32-.505 3.758-1.487 7.237-2.593M590.638 240.6l.391-1.608M578.43 236.561l.444.147.28.037.302.036.56.079 2.693.874 4.309 1.48 1.855.7.816.304.949.381M573.89 237.662l2.29.411.459-.021.318-.073.271-.115.49-.412.364-.447.348-.444" clip-path="url(#p1ca0710586)" style="fill:none;stroke:#000"/><path d="m579.47 235.067-.782 1.165-.258.33M579.47 235.067l-6.596-1.9M591.03 238.992l-4.966-1.676-.812-.274-5.781-1.975" clip-path="url(#p1ca0710586)" style="fill:none;stroke:#000"/><path d="m593.888 226.917-.132.13-.14.231-.31 1.343-.38 1.56-1.025 5.155-.872 3.656M509.265 198.428l-.54.01-2.942-.014-2.48.198M509.265 198.428l.587-.012h.977l.544.008.326-.066.947-.541M545.601 220.563l5.248 1.01 1.925-1.039-5.372-7.596-1.8-1.445-1.709-.375-1.056.173-.186.925 1.708 1.56-.807 1.068-.7.202-.131.419-.497 1.625-.24.65-.179.26-.21.144-.264.08-.279.05-.21.065-.202.152-.396.368-1.009 1.06-.42.377-1.606 1.87-.636.96-.187.368-.435 1.136" clip-path="url(#p1ca0710586)" style="fill:none;stroke:#000"/><path d="m556.942 229.142-.858-.206-3.283-.88-10.047-2.042-6.803-1.384M593.888 226.917l.295-.145 3.276-.692 5.023-1.149.264-.086.28-.195.357-.354 1.413-1.357.737-.68 1.273-1.053 1.359-.817 1.576-.946.396-.115.357-.122.481-.11.551-.266.66-.534" clip-path="url(#p1ca0710586)" style="fill:none;stroke:#000"/><path d="m591.389 212.505.528-1.127-3.199-1.098 2.764-11.12 8.136 1.704-1.274 7.106-1.304 3.928-.03 1.82-3.122 13.2M361.262 372.506l-.198 5.455M361.064 377.961h5.773M378.884 356.03l.863-.049 1.382-.081M380.441 359.891l.577-.101.148-.107.1-.15.381-1.33.039-.71-.122-.659-.435-.934M336.499 398.717l1.381-.89 1.16-.556.411-.154M381.325 477.491l-2.086-.183-.769-.148-1.048-.23-2.418-.888-1.37-.553-2.248-1.206-.815-.342M434.816 458.124l.706.114.361-.054.482-.211 2.197-1.725 1.58-1.105.83-.415 1.763-.599.962-.39 2.135-.989 2.108-1.21.689-.603.444-.616.495-.826.788-1.477.343-.581.633-.935 1.499-2.166 1.416-2.14.222-.282.613-.559M343.64 358.133l1.553-1.563 2.468-2.95M343.64 358.133l-.193.186M352.744 346.847l-.119.465M347.661 353.62l4.518-5.538.446-.77M380.441 359.891l-.667-.353-.553-.447-.306-.523-.072-.415.04-2.124M208.304 440.648l8.497 2.826 7.631 2.548M318.972 363.86l-4.56 4.218M315.994 369.072l2.633-3.73.326-.634.019-.848M314.413 368.078l1.581.994M334.535 365.631l.658-.39M280.745 424.153l-.041-2.527.086-2.393M280.745 424.153l.252.208.237.154.184.048.225.026 3.335.173 8.349.69 2.818.13 1.638.216" clip-path="url(#p1ca0710586)" style="fill:none;stroke:#000"/><path d="m280.732 434.2.127-3.074-.114-6.973M280.732 434.2l5.157.369 3.54.101 3.603.224 3.653.303 2.744.044M260.317 522.29l1.204-1.58.749-.755.668-.588.435-.49.419-.629.912-1.318 1.343-1.685 1.195-1.924.428-.977.298-1.08.44-1.469.24-1.003.023-.679-.008-2.274-.178-3.392.124-1.935.299-1.23.388-1.004 1.184-2.017 1.11-2.224 1.63-3.854 1.506-3.263.388-1.177.233-1.66.24-1.82.327-1.342.57-1.296.878-1.245 1.374-1.768 1.433-1.321 1.568-1.697 1.575-2.079.606-1.508.403-1.22.73-2.549.233-2.064.528-11.427-.155-1.127-.644-1.71-.877-1.971-1.103-2.419-1.81-3.717-.48-1.35-.18-1.17.009-1.177.16-3.905M161.414 159.256l6.226-7.496 2.43-2.398.931-.578.932-.296 1.11-.173.83-.036.831.1.878.319 2.632.967 3.361 1.365.497.188.45.032.431-.09.303-.152.248-.252.217-.416.18-.516.228-.516.096-.162.083-.127.531-.659M558.151 388.565l.399.956.26.52 3.203 4.728 1.956 3.076 1.739 2.476.694.924.16.29.054.245-.066.187-.093.16-.179.137-.298.082-.385.065-1.289.112-.496.08-.97.281-3.114.82-.283.111-.272.21-.186.31-.132.455-.249 1.769-.45 2.7-.341 1.415-.233 1.126-.175 1.44-.058.166-.12.16-.164.111-1.311.523-.195.087-.213.188-.144.27-.027.275-.093.874-.124.75-.357 1.71M613.452 475.825l.753.93.256.492.062.318-.086.274-.155.281-.504.664-2.236 2.614-.745.982-.295.49-.125.318-.023.26.055.267.147.267.31.368 3.385 3.097 4.464 4.194 4.51 4.186 1.456 1.408.5.534.257.304.249.241.578.474M558.151 388.565l.461.242.458.122.458.015.94-.116 1.824-.325.8-.08 1.373-.144 4.278-.642 1.359-.191.376.003.303.037 1.514.472 2.682 1.036.648.192.482.111.22.073.148.137.148.209.416 1.25.127.252.218.217.275.162.827.49.128.047.148.011.186-.04 2.628-.721" clip-path="url(#p1ca0710586)" style="fill:none;stroke:#000"/><path d="m554.482 376.433.979 3.24 1.195 3.928.683 2.433.388 1.466.156.487.268.578M510.812 382.816l5.079-.716 4.588-.73 7.841-1.343 6.676-1.082 11.66-1.733 3.2-.534.543-.072.636-.058 3.447-.115M496.432 230.805l-.556.412-.232.242-.224.368-.311 1.018-.685 2.945-.642 3.256-.152.226-.23.189-.242.096-.365.04-.55-.116-4.181-1.242-6.601-1.92-9.944-2.96-.303-.144-.208-.18-.359-.514-.087-.068-.131-.01-.086.045-.053.069-.31.714-.168.25-.184.113-.266.062-.908.04-1.483.048-1.995.184-2.112.12-1.028.079-.354.094-.128.195-.008.245.132.29.647.6.172.256.024.194-.038.182-.14.242-.526.937" clip-path="url(#p1ca0710586)" style="fill:none;stroke:#000"/><path d="m490.161 258.32.48-2.163 1.24-5.596.798-3.657 1.211-5.123 2.227-9.703.315-1.273M500.412 231.381l-2.147-.377-1.833-.2M490.161 258.32l-2.559-.57-1.436-.325-1.103-.44-1.133-.506-1.502-.412-3.575-1.04-1.933-.693-1.227-.282-1.58-.415-3.722-1.057-1.28-.452-.246-.155-.163-.263-.039-.181.105-1.036M424.947 271.674l-3.24-.906-2.336-.758-.303-.152-.17-.267-.063-.332.559-3.12M352.94 281.633l2.031-1.662 1.797-1.196.423-.404.878-1.177.613-.614 1.21-.837 1.263-.708.473-.278.372-.404.23-.585.683-2.14.059-.09.097-.082.17-.042 4.654 1.217.47.063.844.016.17-.051.17-.122.403-.6" clip-path="url(#p1ca0710586)" style="fill:none;stroke:#000"/><path d="m366.846 240.436-.655 1.666-1.049 2.703-1.608 4.266-.808 2.5-.632 1.597-.862 1.722-2.568 4.212-1.508 2.211-1.056 1.859-1.234 2.35-1.098 2.336-1.099 2.065-.252.646-.186.762-.082.968.237 1.303.303 1.252.093.875.162 1.884.125 2.076-.037 1.458-.092.486M366.846 240.436l4.626 1.219 1.448.426M348.554 280.797l-.554-.953-.18-.448-.203-1.054-.165-1.675-.194-.772-.293-.66-.367-.662-1.358-2.007-.49-.845-.295-.895-.38-1.329" clip-path="url(#p1ca0710586)" style="fill:none;stroke:#000"/><path d="m325.82 277.319 1.009.268.415.134 3.079 1.242.997.484 2.461 1.314 3.385 1.762.796.361.642.244 1.093.355.537.076.449-.05 1.156-.546.406-.095.557-.1 1.917-.18 1.11-.333 2.725-1.458M509.265 198.428l-.237 2.205-.077 1.112.039 1.148M500.916 229.445l-.504 1.936M500.412 231.381l.939.204M501.35 231.585l-.422 2.022-.078.083-.099.035-.123-.01-.5-.119-.085-.083-.04-.072-.01-.09.42-1.97M501.855 229.553l-.504 2.032M330.809 187.826l3.733 1.94 4.93 2.339M283.098 217.352l4.22 1.91 7.561 3.453 10.248 4.577 7.419 3.344M563.744 230.564l.782.208.482.132M572.874 233.168l-3.142-.989-2.971-.873-1.753-.402M563.744 230.564l-1.204-.295-.836-.234-1.682-.372-3.08-.521M556.942 229.142l2.295.921 2.703 1.03 1.614.424.663.18.58.157 2.396.524 2.427.333 3.254.457M222.408 123.345l-3.09-1.124-4.023-1.67-3.197-1.448-3.085-1.6-9.843-5.23-3.346-1.861" clip-path="url(#p1ca0710586)" style="fill:none;stroke:#000"/><path d="m222.408 123.345-2.165-.421-4.475-1.738-1.148-.499-1.788-.837-1.206-.575-.418-.207-.4-.12-.57-.094-.354-.104-1.924-1.018-.482-.257-.418-.345-.194-.192-.259-.24-.318-.22-.494-.273-.622-.324-1.466-.828-1.843-1.01-1.67-.915-1.157-.62-1.066-.628-1.26-.763-.584-.394-.303-.311" clip-path="url(#p1ca0710586)" style="fill:none;stroke:#000"/></g><g id="PatchCollection_1"><path d="m391.521 141.817.051.453.508.822.538.766.366.047.243-.321.102-.567.061-1.257-.274-.302-.64-.047-.71.056-.204.199zM399.362 145.766l-1.422 2.985.203.256.67-.066 2.946-.18.335-.822-1.696-1.766-.467-.332zM149.492 438.693l.11.352-.047.235-.143.205-.552-.161-.568-.147-.126-.294.347-.47.3-.028.142.146.316.044zM284.586 377.205l.267.997.313 1.079-.045.643-.245.332-.357.166-.491-.083-.201-.187-.357-.706.09-.373.2-1.805.134-.332.268-.104z" clip-path="url(#p1ca0710586)" style="fill:#00f;fill-opacity:.8"/></g><g id="PatchCollection_2"><path d="m347.35 369.566-1.074-.864 2.06-.119zM351.412 366.707l.2-.03.205.076.296.577-.931.178-.417.057-.11-.115zM380.864 356.113l.411.746.136.584.072.907-.486.81-.146.121-.367.235-.291-.015-.344-.085-.626-.517-.207-.42-.081-.472.1-1.729.403-.13zM355.37 387.113l-1.199.609-.702.462-.565.559-.387.1-.19.001-.073-.066-.023-.094 1.966-2.72.197.033.993.948zM318.492 365.008l-2.57 3.682-1.09-.74zM315.67 359.89l3.451 3.398 6.747-5.843-3.447-3.448zM301.639 357.226l2.86.542-.284 1.604-3.005-.502zM361.518 372.841l4.883.15-.11 4.57-4.825.134zM343.64 331.068l-3.564 3.97-2.003-1.776 1-2.677 2.291-.232zM350.41 344.072l1.476.476.45.447.745 1.805 3.059 1.502.776-.678 1.6-.939.325-.505-8.787-2.455z" clip-path="url(#p1ca0710586)" style="fill:green;fill-opacity:.8"/></g><g id="PatchCollection_3"><path d="m355.398 394.877-3.79-2.033.602-1.76.842-1.712 1.44-1.148 1.324-.759 2.763 2.972zM344.019 331.38l2.376 1.328-4.138 4.361-2.181-2.03z" clip-path="url(#p1ca0710586)" style="fill:#90ee90;fill-opacity:.8"/></g><path id="PatchCollection_4" d="m339.554 330.713-.345 1.134 1.028.27-.06.198.5.132.406-1.332z" clip-path="url(#p1ca0710586)" style="fill:#006400;fill-opacity:.8"/><g id="PatchCollection_5"><path d="m331.577 326.075.085-.26.179-.123.326-.072.187.043.202.145.117 3.13-.148.239-.163.109-.288-.022-.218-.087-.117-.152-.038-.13zM332.77 322.829l-1.068 1.816-.107.667.305-.128.443-.028.382.17zM331.911 329.712l.957-.045-.08 1.749z" clip-path="url(#p1ca0710586)" style="fill:#90ee90;fill-opacity:.8"/></g><g id="PatchCollection_6"><path d="m430.724 192.828.263.147-.201.31-.263-.147zM404.404 375.264l.524-.041.079.854-.523.042zM322.978 218.22l.757.214-.242.743-.758-.215zM421.11 166.003l1.153.237-.126.532-1.153-.238zM340.35 399.3l-.013-.723 1.203-.02.014.722zM335.133 397.52l-.667.579-.358-.357.667-.58zM423.82 388.562l.588-.118.08.342-.59.118zM424.423 189.51l-.495-.24.395-.705.495.24zM201.268 243.017l.46.168-.406.96-.46-.169zM423.938 189.14l-.426-.209.334-.59.426.207zM404.49 378.17l-1.307.127-.073-.657 1.307-.127zM336.249 398.872l-.602.6-.384-.333.602-.6zM397.709 373.887l.517-.022.03.613-.517.023zM202.866 243.538l.534.223-.405.837-.534-.224zM329.502 216.173l-.285.644-.362-.14.285-.643zM431.275 194.176l-.344-.21.327-.462.344.211zM417.049 359.116l.187-.827 1.33.259-.187.828zM340.46 397.488l.024-.354.525.03-.024.355zM426.473 171.255l.588.053-.082.801-.589-.052zM327.568 215.243l-.327-.117.193-.465.327.118zM335.976 398.363l-.526.448-.321-.327.525-.447zM428.139 171.503l.889.076-.076.761-.888-.076zM435.488 192.945l.101-.295.538.16-.1.295zM332.125 399.807l.431.212-.306.54-.431-.212zM403.069 375.05l.592-.054.165 1.563-.592.055zM421.581 165.739l.055-.233.52.107-.055.232zM201.496 244.312l.28.124-.111.218-.28-.124zM424.074 340.344l-.066-.4.731-.105.066.401zM339.554 330.713l-.345 1.134 1.028.27-.06.198.5.132.406-1.332zM353.718 345.01l-.093.462.994.245.062-.476zM564.282 230.2l.764.202-.55 1.796-.762-.201zM208.082 117.961l1.83.942-.348.481-1.817-.969zM560.961 232.145l-.256 1.01 3.011.6.072-.733-1.465-.296-.092.314-.184-.009-.543-.143.061-.562z" clip-path="url(#p1ca0710586)" style="fill:#a9a9a9;fill-opacity:.8"/></g></g></g><defs><clipPath id="p1ca0710586"><path d="M90 96.452h558v534.297H90z"/></clipPath></defs></svg>