<svg xmlns="http://www.w3.org/2000/svg" width="960" height="960" viewBox="0 0 720 720"><defs><style>*{stroke-linejoin:round;stroke-linecap:butt}</style></defs><g id="figure_1"><path id="patch_1" d="M0 720h720V0H0z" style="fill:#fff"/><g id="axes_1"><path id="patch_2" d="M102.627 640.8h532.746V86.4H102.627z" style="fill:#fff"/><g id="LineCollection_1"><path d="m536.293 148.839-1.916-.118-1.493.073-1.225.416-1.744 2.4-1.743 2.356-1.241 1.304-3.99 2.015-2.624 1.808-3.864 2.416-4.445.652-2.294 1.14-4.351 3.142-3.027 4.301-6.031 7.765-4.65 12.15v6.817l-3.016 6.816-3.267 3.26-5.655-1.008-3.33.83-2.702 2.608-1.446 1.185-3.581-.355-9.74 6.045-4.649 2.786-3.456 4.09-2.136 4.148M402.232 326.954l.82-1.145-.28-5.99.912-1.722.083-1.566-.746-1.67-.609-.678-.664-1.643.222-2.306 1.078-3.799.418-2.027-.271-4.186.046-1.927.668-1.44 1.984-1.16 2.195-.576 3.95.15 2.35-.678 1.3-.078 3.24-1.3 8.161-.908 5.545-.882 4.408-2.022.952-1.199.421-1.801-.377-2.052.742-.976.849-.374.85-.634.85-.987-.695-6.439-.502-1.837-1.383-1.363-1.885-4.09 1.068-9.66.126-3.556.943-6.341 1.36-3.893.336-4.642 3.582-5.75 4.398-5.926M368.626 359.07l1.325 3.547M368.626 359.07l.158-.007.147-.056.118-.099.077-.13.027-.147-.026-.147-.076-.13" clip-path="url(#p17edc29141)" style="fill:none;stroke:#000"/><path d="m368.234 358.518-.015.175.045.136.088.115.122.083.152.043M305.955 111.33l3.737-.36 2.849-.785 3.716-1.145" clip-path="url(#p17edc29141)" style="fill:none;stroke:#000"/><path d="m320.984 115.751-4.682-4.438-.045-2.273" clip-path="url(#p17edc29141)" style="fill:none;stroke:#000"/><path d="m305.955 111.33.32.095 8.719 2.852 3.813.951 2.177.523M357.966 306.34l-.497-.35-1.064-1.308 1.292-6.066.75-3.105-.31-2.769-1.255-2.544-2.42-3.565-1.362-1.475.215-3.047-.129-5.513-1.844-6.69-2.838-9.5-3.12-8.296-4.114-4.015-2.554-6.021.94-3.5-.798-3.993-1.844-1.606-2.695-3.88-1.561-2.41-.851-4.014-.142-5.754 1.135-5.888-.204-1.177-1.494-.535-1.609-.21-1.871-.17-.973-.696-.516-1.092-2.554-.669-4.823.936h-2.128l-1.418-1.471.283-2.41 1.844-3.746 3.689-4.148 1.418-4.416-.283-8.698-.142-2.543-.984-1.7-2.563-.709-.567-2.14 1.418-1.34 3.689-3.344 3.972-3.747 2.411-3.48 3.83-6.423 2.98-4.952 1.56-4.95.142-4.818-2.128-8.566-1.029-3.807-.163-2.365.625-1.456 1.275-2.384-.39-2.136-1.908-1.512-1.906-.064-1.834.256-3.323-.985-3.121-2.409-3.12-1.204M368.374 309.495l.107.66M402.232 326.954l-.088-.822-.61-2.204-.134-2.25.04-3.039.134-2.264-.752-1.578-1.842-2.715-2.385-1.106-4.085-1.102-6.158-2.035-4.936.069-4.134-.646-1.898-.572-1.365.286-5.645 2.52M357.966 306.34l1.462 1.033 2.266 1.752 3.271.915 3.41-.545M349.175 374.292l-3.085.04-2.737.132-1.633-.418-1.038-.222-1.125-.383-1.364-.778-1.492-.659-1.853-1.714-2.707-1.38-2.561-1.726-3.09-1.56M293.979 337.873l.56.224L299.44 341l1.885 1.955 1.445.652h2.89l2.514 1.719 3.204.948 4.462 2.074 1.696 1.482.629 2.607-.126 2.904.377 2.548-.032 1.357-.366 3.52 1.464 1.311 1.902.553 3.503.37 1.603.622M275.546 369.3l.363.65 1.445 1.836 1.571 1.482 1.194.652 2.513.414 3.582.653 2.136.177 2.388.237 1.822 1.067 3.896-.356 2.45-.178 1.194-.473 1.508-.297 2.827-1.185 2.703-.889 4.774-1.66 5.216-3.021 3.581-1.72 2.89-.473 2.89-.593M369.97 366.78l-3.838.603M370.04 371.266l-.194-2.556.124-1.93M369.951 362.617l.273 1.105.148.86-.402 2.198M366.132 367.383l-1.256 3.74M369.951 362.617l-1.553.687-.964.462-.71.59-.486.894-.106 2.133M364.876 371.123l5.163.143M357.947 374.319l1.226-.287 1.968-.25 1.947-.43 1.166-.899.622-1.33M369.974 374.152l-.932.565M369.974 374.152l1.688 1.557M369.974 374.152l.065-2.886M357.947 374.319l-3.967 5.197M359.414 376.978l-.52-1.498-.426-.69-.521-.471M349.175 374.292l1.068-.605 1.474-.268 1.22-.037 2.37.89 2.64.047M353.98 379.516l-.415-.888-.653-.81-1.296-.988-.332-.277-.196-.572-.11-.502-.333-.63-.566-.321-.904-.236M371.662 375.71l-1.703 2.375M379.382 381.112l-3.739-1.733-3.98-3.67M379.382 381.112l-1.473 2.981M383.109 382.839l-.782-.59-2.945-1.137M384.918 389.276l.251-.624-.751-3.005-.56-2.069M384.131 393.422l.094-1.317.693-2.829M383.762 385.16l.562 1.916.594 2.2M387.108 382.313l-3.23.663M388.957 379.577l-.874 2.373-.975.363M362.611 348.93l1.365 1.123 1.39.719.899.074.45-.35-.118-.72-.47-.646-.312-.94-.118-1.126.196-1.77-.176-.978-.176-2.066.137-1.2-.287-2.065-.548-1.015.196-.849.156-1.863.215-2.232.493-1.914.49-1.642.743-1.992 1.466-2.38.861-1.513.43-2.195.157-3.247-.137-1.31-.41-1.18-.236-1.2.117-1.918-.293-1.088-.61-1.292" clip-path="url(#p17edc29141)" style="fill:none;stroke:#000"/><path d="m381.986 320.925-2.89-3.526-1.98-1.837-.88-1.364-1.507-1.482-2.043-1.096-2.796-1.007-1.41-.458M401.516 360.019l.985-.643.838-1.286.23-2.072.132-1.743.144-3.365.38-3.407-.18-1.86-.098-1.362-.696-1.572-1.115-1.698-.543-1.386-4.326-2.158-1.504-1.958-.335-.862.21-.797 1.061-.881 1.59-.368 2.028-1.92 1.649-3.023.266-.704" clip-path="url(#p17edc29141)" style="fill:none;stroke:#000"/><path d="m401.516 360.019 1.262-.128.815-.326 1.328-1.487 2.061-3.43 1.77-2.335 1.91-2.113 1.41-1.683.594-.496.844-.143.954-.261.968-.796.691-1.043.236-.496 1.19-.86 1.77-1.044M358.492 343.593l2.512 2.16M361.004 345.752l-3.17 1.976M362.611 348.93l-.025-.511-.194-.861-.774-1.278-.614-.528M365.187 352.406l-.64-.076-1.297-1.563-.609-1.252-.03-.585M351.4 360.438l1.017-1.254.313-.111.47.369.274.627.801-.129.254-.7.392-1.292.743-.94 1.388-1.2 1.35-.793 2.276-.857 3.18-1.017 1.329-.735M371.965 355.13l-3.116-1.693-1.115-.646-1.955-.314-.592-.07M374.605 355.807l-2.64-.678M374.605 355.807l-2.262 1.036M382.899 358.249l-.668-.202-2.486-.532-.888-.398-.856-.42-1.649-.884-1.747-.006M368.234 358.518l-.606-1.236.57-.693v-.7l-.587-.554-1.936-.295-1.095.24-1.252.258-2.093 1.66M369.05 358.354l-.118-.1-.146-.056-.15-.008-.146.037-.125.078-.093.113-.038.1M382.899 358.249l.637.283.41.252 2.38 1.631.712.283.72.132 1.055.125 1.152-.12 5.491-.566 3.134-.245 2.803.002.123-.007M366.4 373.804l2.642.913M362.54 377.137l2.053.091.816-.208 3.633-2.303M359.414 376.978l-1.477 4.664M362.54 377.137l-2.635-.117-.49-.042M362.54 377.137l-1.041 2.76M369.959 378.085l1.237 1.69M369.959 378.085l-1.075 1.465M347.834 393.435l-.345-1.237.231-2.555.666-2.43.555-2.657.688-.818 2.603-.946 1.264-.882.512-.902.033-.881-.061-.611M377.909 384.093l-3.274-1.636-2.265-1.375-1.174-1.307M370.667 383.266l-.083-1.11.387-1.03.225-1.35M377.909 384.093l3.333 1.659M383.356 383.779l.406 1.38M383.356 383.779l.189-.01.174-.07.138-.12M383.109 382.839l-.135.124-.082.16-.019.178.046.172.105.149.151.106.181.05M381.242 385.752l-4.932 1.627M381.242 385.752l2.52-.592M382.71 393.513l-.384-1.202.052-1.173-1.136-5.386M347.834 393.435l-1.73 2.484M353.705 399.904l.436-1.21.31-3.282-5.066-.85-1.55-1.127M346.104 395.92l-1.888 2.1M346.104 395.92l7.6 3.984M382.71 393.513l.626 1.953.88.731.483.392" clip-path="url(#p17edc29141)" style="fill:none;stroke:#000"/><path d="m384.131 393.422-.082 1.162.65 2.005M384.925 404.699l.225-2.618.113-2.157.04-2.032-.604-1.303M352.415 402.17l-4.042-2.128-4.157-2.023M351.138 404.478l-4.016-2.086-2.888-1.685-.558-.647.54-2.04M353.705 399.904l-1.29 2.266M359.706 404.458l-2.965-2.675-3.036-1.879M379.38 403.44l-.049-1.13-1.385-2.613M352.415 402.17l5.142 3.959M352.415 402.17l-1.277 2.308M377.473 403.133l1.907.307M379.38 403.44l.317.426M367.103 412.765l2.373-2.002 3.246-1.14 1.468-.25 1.575-1.48 1.3-1.785.988-1.58 1.644-.662M384.925 404.699l-2.513-.379-2.715-.454M355.69 408.102l-2.19-1.884-2.362-1.74M384.925 404.699l-.177 1.648M380.78 409.212l.52-.536 1.215-1.088 1.103-.956 1.13-.285M384.642 410.968l-.083-1.05-.147-.842-.016-1.224.352-1.505M361.78 410.9l3.715 4.058M361.78 410.9l-2.074 1.947M361.78 410.9l1.87-1.753M357.557 406.129l1.305 1.218 2.918 3.554M367.103 412.765l-3.453-3.618M367.103 412.765l-1.608 2.193M363.355 417.07l-.834-1.064-1.498-1.696-1.317-1.463M355.69 408.102l2.25 2.039 1.766 2.706M365.495 414.958l2.297 2.437M365.495 414.958l-2.14 2.111" clip-path="url(#p17edc29141)" style="fill:none;stroke:#000"/><path d="m383.657 420.19-2.062 1.067.565 2.207-.534 3.126-.471 1.362.063.771-.236.563-1.634 1.007-2.545 2.311-1.9 1.422-.583.366-1.083-1.153-1.194-1.78-.542-.433-1.013-.261-.75-.157-.666-.563-.028-.996.847-.89 1.624-.85.552-.237 1.133-.058 1.473-.597.293-1.332-1.267-1.309-1.837-.993-2.33-.838-1.569-1.102-1.769-1.217-2.84-2.557M382.899 358.249l3.557.44M155.747 460.035l.736-.628.457-.49.582-.712 1.563-1.474 1.617-1.592.637-.585.483-.404.53-.315.671-.395.319-.252.557-.842.55-1.296.581-1.837.271-.64.28-.445.384-.456.895-.866 1.084-.763.515-.492.389-.5.384-.652.833-1.556.997-1.978.409-1.74.133-1.218-.102-.679-.09-.277-.64-1.248-1.049-1.956-.412-.61-.295-.316-1.264-1.025-.546-.575-.377-.496-1.241-2.355-.92-1.6-.203-.537-.061-.35-.018-.361.07-.404.614-2.133.392-1.444.4-.963 1.597-3.459.691-2.311 1.633-3.14 2.137-3.615 1.57-1.778 1.886-.533 2.45.889 1.131-.119 1.508-1.007 1.131-1.956 1.131-1.422 3.142-2.133 2.513-.948 2.136-1.66 2.577-2.015 5.277-1.421h4.65l3.017.829 1.444-.118 4.525.118 4.838-.356 6.534-1.718 6.472-1.778 2.64-1.185 1.696-1.244M275.546 369.3l-.265-.477-1.822-1.066-1.257.177-1.948.83-1.633.06-1.257-1.067-2.325-.06-3.204 1.186-3.016 1.54-3.645 3.082-2.136 2.37-2.137.77-8.105 2.075-3.456 2.667-2.073 1.422-.315 1.126-1.696 1.54-.691 1.304-.377 1.719" clip-path="url(#p17edc29141)" style="fill:none;stroke:#000"/><path d="m230.012 419.484 2.416-2.34 2.136-.83 1.76-1.303 1.13-1.422 1.885-1.067 1.634-.948 2.137-.237 1.884-1.896.377-1.66-1.634-2.37-1.633-1.185-2.262-.83h-2.387l-1.634-.948-1.005-1.54-2.388-.712-2.136-.474-3.017-1.422.126-1.422 1.76-.948 2.387-1.304 2.136-2.252.88-2.133-.376-1.743M179.918 519.628l-.703-1.852-.118-.468-.051-.417-.078-.602-.06-1.12-.043-.563-.082-.422-.161-.378-.24-.359-.278-.309-.515-.306-1.115-.403-.617-.252-.406-.28-.244-.21-.241-.288-.212-.381-.1-.367-.032-.664.042-.335.097-.306.362-.628.8-1.089.229-.507.086-.419.004-.197-.045-.232-.135-.26-.164-.121-.143-.057-.177-.05-.565-.021-.597.044-2.466.51-1.092.081-.723.015-.746-.063-1.579-.248-.832-.233-.31-.186-.116-.115-.089-.118-.117-.24-.051-.299.007-.472.283-2.703.232-1.719.161-.907.02-.67-.079-.697-.923-3.966-.196-1.877-.118-.426-.147-.291-.204-.23-.635-.453-.255-.26-.12-.205-.485-1.172-.353-.526-.597-.544-.35-.467-.294-.592-.785-1.719-.079-.237-.043-.26-.083-1.97-.117-.61-.228-.552-.958-1.63-.77-2.184-.7-1.407-.84-1.282-1.287-1.43-.88-.851-1.324-.874-.573-.463-.216-.27-.157-.334-.094-.503.039-.711.102-1.282-.079-.904-.231-.836-.6-1.148-.386-.83-.137-.47-.012-.348.082-.33.271-.452.582-.704.761-.733 2.247-1.377M181.461 450.39l-1.516 2.408-.785.985-.66.615-1.194.844-2.348 1.511-.986.704-.553.34-.864.334-.92.2-1.712.07-2.227-.1-.896-.005-.983-.04-.17.013-.191.03-.253.084-.57.307-.376.193-.177.072-.159.041-.222.016-.506-.055-.652-.23-1.02-.426-.426-.135-1.076-.135-.57.03-.351.057-.304.11-.848.503-2.2 1.304M293.979 337.873l-3.147-1.258-2.702-1.6-2.765-.533-1.508.474-3.267-.415-3.205 1.837-2.01.178-1.57.178-1.258.889-1.13.118-1.131-1.007-5.342-1.66-2.01.83-2.073-.296-2.388-2.548-3.33-2.371-1.383-.652-3.895.889-4.461 2.548-3.394 2.37-1.696.356-1.508 1.482-1.194.89-1.005.117-2.074-1.422-1.696-.415-1.382.12-1.508-.238-2.263-1.007-3.141-1.541-1.885-.297-2.953-1.896-3.582-1.244-3.204-.593-2.074.652-1.508.237-1.633-.534-.378-1.303v-1.482l-1.319-1.482-2.325-.414-1.57-.356-2.137-2.904-1.697-1.66h-2.575l-2.326.89-2.638 1.54-2.2 2.549-1.822 1.007-2.513.89-3.205 1.303-5.34 2.726-7.73-.71-1.256-2.194-1.005-1.008-.377-1.421-3.016-1.72-1.822-1.6-2.45-.77-2.326-1.6-1.759.119-2.074.177-1.947 1.364-1.32 1.6-.251 1.955-1.068 2.667-1.822.77-2.828.89-2.89.177-2.514-1.363-2.45-.474-5.341-1.363-2.136-2.904M369.05 358.354l1.103-.485 1.665-.752.525-.274" clip-path="url(#p17edc29141)" style="fill:none;stroke:#000"/><path d="m371.965 355.13.33 1.043.048.67M383.878 382.976l-.11-.113-.141-.079-.16-.036-.187.016-.171.075M383.857 383.578l.087-.157.026-.153-.023-.152-.07-.14M394.95 459.234l.836-.233.773-.31M394.95 459.234l-.856.237M394.45 460.201l.119-.4.076-.268.304-.299M394.094 459.471l-.122-.199M394.45 460.201l-.231-.49-.125-.24M394.094 459.471l-.505.143M360.497 576.107l-.188-.141-.95-.948-1.187-1.436-.25-.408-.098-.206-.064-.185-.063-.275-.055-.804-.039-.496-.104-.302-.134-.193-.21-.21-.24-.12-.844-.145-1.936-.211-2.136-.47-.605-.016-.766.104-2.391.517-.66.039-.455-.086-.309-.13-.224-.144-.178-.157-.146-.213-.137-.351-.067-.42.032-1.05.04-1.148-.06-.5-.153-.775-.33-1.4-.354-1.14-.754-1.607-.314-.83-.695-3.143-.208-.796-.911-2.689-.59-2.385-.243-.68-.267-.519-.719-1.007-1.307-1.593-.817-1.392-1.213-2.137-.381-.56-.218-.24-.725-.64-1.091-.9-.923-.94-.713-.947-.607-.79M352.438 495.12l-.388.24-.38.36-.355.422-.502.8-.762 1.637-.554.644-.522.403-.872.493-1.677.826-1.614.922-.9.778-1.778 2.118-.738.785-1.179 1-1.272 1.008-.923.859-.923.988-.538.87-.325.69-.2.751-.09.7-.025 3.74-.067.83-.137.777-.503 1.415-.6 1.526-.495 1.285-.134.737-.059 1.614.118 3.422-.043 1.752-.318 3.344.008 2.65-.052 1.09-.102.718-.133.43-.295.525-.267.33-.302.292M452.426 569.86l-.114-.152-1.304-1.703-2.002-2.822M437.246 551.12l.19.702.273.791.45.89.534.767.95 1.056 1.603 2.192.715.652 3.903 2.28.416.267.322.297.542.807 1.862 3.362" clip-path="url(#p17edc29141)" style="fill:none;stroke:#000"/><path d="m423.558 547.534.644.57.393.386.542.678.19.175.228.15.461.256 1.76.859.487.267.444.318.44.474.38.559.482.689.343.404 1.045.888.332.302.28.328.742.988.45.445.47.37 1.156.972.343.32.26.312.856 1.229.16.29.087.288.024.201v.243l-.034.148-.363 1.143-.027.146-.03.477.055.51.128.486.196.486.107.155.152.167.29.207.496.193.679.214.297.06.167.01.365-.032.852-.208.522-.077.845.022.363.022.422.066.939.23.296.043.405.025.466-.003.439-.024 1.205-.158.545-.024.7.041 1.213.198.759.165M410.222 457.435l-.872.88-.59.386-.592.204-.891.196-.91.252-1.4.518-1.63.497-.53.128-.563.048-.465.02-.66.011M413.508 523.416l.13-.411.715-1.563.033-.513-.088-.53-.392-1.26-.079-.563.02-.63.302-2.025-.142-.911-.84-2.522-.157-.844-.047-1.193.157-1.592.565-3.318-.015-2.133.149-1.793.557-2.814.24-.74.287-.579 1.861-2.918 3.103-5.573.176-.456.063-.425-.02-.633-.082-1.216.161-2.343-.028-.51-.07-.48-.727-2.644-.714-3.251-.275-1.607-.016-1.104.16-1.255-.05-.645-.22-.544-.267-.308-.424-.359-1.312-.896-1.846-1.659-3.102-2.681-1.06-.511-2.062-.767-.54-.274-.556-.344-1.94-1.511-1.288-.875-1.453-.607-1.256-.51M394.617 460.58l.283.171.209.115.264.094.271.034.29-.006.276-.05 1.35-.448.417-.1.672-.066.813.022 1.657.23M334.805 332.887l.523-.135.69-.36.477-.83.37-1.37.083-1.213.025-.843-.145-.831-.476-.763-.394-1.172-.384-.45-.528-.46-.632-.342-.83-.205-.684.03-1.119-.157-.984-.312-.622-.49-.228-.42-.892-.742-1.368-.812-.777-.244-1.13-.391-.528-.49-1.046-.497-.736-.411-.508-.596-.674-.948-.176-.636-.446-.81-.538-1.272-.405-.479-.134-.342-.498-.89-.487-.644-.29-.509-.508-.86-.757-.714-.393-1.134-.995-2.511-.053-.717-.179-1.785.203-.91.62-.841.701-.46 1.084-.024 1.845-.033 1.25.37.702.281.858.124 2.297.954 1.655.405 1.06.1 1.761.36 2.024.516.5-.067 1.417-.135 1.476-.011.905-.045.88-.101.489.045 2.714.999.369.404 1.167.337 1.833.382.774-.034.964.124 1.084.247.714-.012 1.059.102 2.31.471 1.69-.1 2.667-.64 1.25-.124.69-.18.525-.294M383.657 420.19l-.472-1.183-.095-1.19.23-1.498.388-2.498.56-1.263.246-.727.128-.863" clip-path="url(#p17edc29141)" style="fill:none;stroke:#000"/><path d="m390.613 410.333-.374-.371-1.43-.665-.6.059-1.1.625-.766 1.036-.54.391-.662-.254-.499-.186M512.465 563.564l-1.09 1.275-.255.259-.288.25-.277.21-.353.243-.39.267-.321.233-.344.29-.564.518-.27.244-.33.274-.381.263-.361.218-.444.249-.527.274-2.906 1.385-1.147.566-2.468 1.237-.972.303-1.288.245-3.848.467-1.296.259-1.661.492-.51.12-.568.05-1.502-.04-1.237.048-.925.183-.499.163-.824.45-1.919 1.185-.24.107-.34.086-1.73.118-4.72.674-3 .689-4.971 1.103-.36.046-.289-.007-.341-.055-1.257-.265-3.212-.526-.55-.056-.793.012-1.288.162-.88.245" clip-path="url(#p17edc29141)" style="fill:none;stroke:#000"/><path d="m465.283 605.408-.149-.235-.263-.293-.263-.222-2.808-1.535-1.084-.992-.346-.445-.312-.577-.084-.263-.051-.307-.055-.675.078-2.854-.157-2.403.032-.997.141-.78 1.194-2.845.24-1.185.102-1.225-.028-1.24-.322-2.167-.133-.574-.464-1.288-1.288-3.103-.534-1.126M453.645 571.2l.318.299 1.514 1.393.283.293.244.3.24.36 1.142 2.095.77 1.245.573.892M513.304 562.761l-.205.155-.176.15-.25.264-.208.234M520.887 572.9l-.48-.452-.4-.444-.212-.289-.11-.288-.078-.327.015-.266.11-.704.055-.785-.007-.674-.118-.673-.204-.49-.338-.429-.629-.548-1.248-.874-1.995-1.474-.346-.2-.322-.125-.463-.112-1.652-.182M625.128 603.529l-4.075-1.873-.604-.11-.638.314-3.76 2.15-2.464.994-.626.07-1.806-.083-1.98-.294-.789-.352-1.288-.772-.559-.526-1.231-1.231-1.709-1.233-1.798-1.033-1.993-1.031-1.71-1.317-.83-.925-.537-.974-.939-1.981-.593-.76-.89-.754-1.679-1.226-4.466-3.746-1.129-1.201-1.917-2.54-3.408-5.024-.515-.355-1.084-.328-.494.081-1.242.692-3.561 1.852-1.049.156-.832-.015-.735-.211-.363-.182-3.08-1.862-.748-.137-.51.126-1.897.755-2.978-.14-4.17-.213-.484.228-.366.284-3.248 3.145-.611.073-.383-.116-.352-.423-1.415-1.938-.38-.11-.445.01-1.095.352-.527-.007-.426-.199-4.707-3.508-1.11-1.922-3.63-6.48-.518-1.419-.377-1.077-1.252-2.438-1.195-1.528-.975-.922-3.39-2.926-3.068-3.44-.803-.365-.517.047-.36.22-.305.367-1.587 2.272-.591.472-1.182.49-2.765.997-1.119.763-.881.835-.793.852" clip-path="url(#p17edc29141)" style="fill:none;stroke:#000"/><path d="m513.304 562.761.385-.215.318-.123.305-.108.924-.25.51-.14.583-.179.281-.147.303-.182.33-.248.352-.29M509.294 550.023l.14.233.096.241.086.207.067.16.574 1.166.145.285.164.244.166.197.22.218.298.278.24.196.294.167.302.137 2.608 1.104 1.121.496.662.285.178.094.156.12.078.113.06.202.019 2.374.021.354.054.364.05.28.071.268.18.526.25.547M396.56 458.69l1.496-.515 1.036-.473.888-.6.683-.808.377-.733.244-1.007.086-1.8-.102-2.422-.086-2.926-.33-1.86-.597-1.903-.738-1.733-.589-1.073-2.05-3.357-3.495-5.436-1.47-2.007-1.468-1.578-4.013-4.422-1.202-1.415-1.251-1.867-.322-.564" clip-path="url(#p17edc29141)" style="fill:none;stroke:#000"/><path d="m394.056 417.125-2.146.632-1.067.413-.657.27-.547.852-.642.62-.91.79-.861-.13-1.643-.449-.988-.078-.938.146M359.706 404.458l3.464 4.007.48.682M359.706 404.458l-2.15 1.67M355.69 408.102l1.867-1.973M154.902 548.842l.711-.456 1.13-.781.775-.39.805-.27.884-.403.321-.205.538-.488 1.013-.985 1.037-.929 1.65-1.71 1.517-1.117.242-.224.173-.219.133-.328.087-.42.049-.183.096-.165.094-.096.224-.134.384-.285.504-.444.416-.57.825-1.4 1.229-1.537 1.335-1.948.746-1.114.409-.486.274-.257.342-.259.605-.411 1.064-.513 1.35-.7 1.032-.681 1.298-.64.53-.256.19-.12.189-.198.248-.384.909-1.494.304-.645.034-.184.015-.193-.016-.645-.165-2.081-.208-1.181-.306-1.085" clip-path="url(#p17edc29141)" style="fill:none;stroke:#000"/><path d="m182.903 561.28-.044-.304.015-.271.05-.27 1.16-4.71.181-1.421.16-.596.174-.393.664-.933.314-1.085.114-.3.113-.23.161-.215.193-.18.836-.516.766-.433.27-.087.222-.04.236-.006.67.089.9.04.679-.015.676-.121.502-.156.528-.308.183-.183.061-.096.045-.11.022-.175-.004-.276-.034-.272-.11-.28-.208-.414-1.072-1.741-1.257-1.567-.31-.496-.126-.414-.033-.196.006-.26.023-.224.064-.198.376-.626.825-1.266.361-.682.158-.618v-.374l-.046-.356-.308-.933-.145-.5-.032-.544.045-.543-.032-.263-.064-.223-.161-.325-.069-.24-.043-.402.01-.426.153-1.296v-.63l-.134-.926-.2-.53-.699-.977-.875-.951-.336-.278-1.99-1.404-.386-.303-.343-.344-.507-.634-.4-.37-.559-.407-.848-.564-.652-.625-1.22-1.64-1.654-2.09M152.141 520.146l-.314 6.932 2.953 2.667 1.32 3.318 2.576 2.785.503 6.458-3.016 4.147-1.26 2.389M134.01 600.546l2.274-4.021.24-.711.062-.493-.011-.662-.181-.638-.448-.958-.117-.404-.181-1.214-.008-1.178.102-.741.204-.64.236-.486 3.322-5.873 1.697-2.88 1.515-2.007 1.304-1.963.503-.396.339-.17.376-.108.687-.077.915.003 2.034.378 1.013.319 1.697.325 1.155.008 1.044-.248.652-.267.77-.53.55-.533.597-.622.408-.593.283-.766.04-.435-.05-.342-.12-.215-.471-.756-.236-.566-.063-.367.008-.374.145-.818.39-1.1 1.256-1.959.322-.689.086-.425-.078-.537-.377-.734-.154-.288-.066-.337.018-.408.3-.762.18-.52.04-.428-.032-.823.189-2.029-.377-1.77-.589-1.785-.236-.444-1.744-1.992-.258-.426-.205-.508-.118-.647.06-1.074M134.01 600.546l-.192 1.904" clip-path="url(#p17edc29141)" style="fill:none;stroke:#000"/><path d="m132.577 601.28.848-.364.585-.37M133.818 602.45l.102.34.347.827.611 1.165 2.215 2.829 1.304 1.562.919.763.651.334.582.177 1.056.297 1.36.173 4.433.034 1.08.115 1.048.315 1.304.392.76.144.496-.04.338-.119.585-.385 3.028-2.355.97-.463.77-.278.762-.174.844-.17.457-.028.222.036.197.062.318.202.432.39 1.021 1.156.418.385.784.49 1.464.569.97.548 1.72 1.682 1.02.679.771.38 1.049.197 1.763.217 1.41.065.785-.05.413.007.194.03.167.066.282.19.61.603 1.541 1.914 2.554 3.24 1.233 1.852.358.402.852.753.4.422.244.439.416 1.153.872 2.23.35 1.362.304.562M132.577 601.28l1.24 1.17M384.131 393.422l-1.42.091M452.426 569.86l.47 2.088M452.426 569.86l1.22 1.34M366.022 624.44l-.653.365M366.168 625.562l-.097-.583-.049-.539M360.837 614.596l.128.228.192.293.73.81 1.783 2.185 1.587 2.34.622.985.092.208.075.303.043.386-.067 2.106M366.168 625.562l-.8-.757M394.617 460.58l-.166-.379M394.617 460.58l-.532-.288M392.593 459.931l.996-.317M392.593 459.931l.558.046.471.15.463.165M391.28 460.318l.677-.147.636-.24" clip-path="url(#p17edc29141)" style="fill:none;stroke:#000"/><path d="m393.59 459.614.126.254.369.424M118.392 175.26l1.013.192 3.173 1.008 1.886.889 2.261.119 2.64.563 3.236 1.245.973.325 1.162 1.156 1.54 1.156 2.325.77 2.702 1.75 1.79.858 1.79.149 1.446-.445 1.729-.593 1.476-.237 3.864.356 3.205-.06 2.607-.8 4.587-1.54 2.702-.327 1.665.03 1.257.681 1.414 1.482 2.67 1.334 2.545.474 2.89.207 1.476.12.692-.653 2.01-3.467 1.068-.83 1.854-.74 2.89-.267 2.451.088.88-.444 1.445-3.586.88-.86 1.35-1.245 1.57-.77 3.017-2.134.88-1.007.25-2.49 1.258-2.904.628-3.26 1.822-1.423 1.445-3.141 3.205-2.608 2.388-2.253.817-1.363 2.953-2.667.628-4.15 1.633-1.6 1.257-1.778 4.901-2.845 2.577-.119 1.633-1.422 3.016-1.068 2.765-1.6 4.021-1.007 3.456-2.905 1.32-1.245 3.77-.889 1.633-.889.314-1.6.566-1.482 1.445-.652 2.827-1.127 5.593.356 2.387-.474 1.822-1.541 1.069-2.075.503-1.719-.252-1.66-1.634-2.252-.817-.949-1.633.06-2.765-.652-3.33-1.245-.188-1.008 2.01-1.422 1.508-2.016 1.508-1.304 2.577-1.126 1.947.118.943-.474 3.518-4.86.755-.415 1.32.059 1.758 1.363 2.702 1.66 3.818 1.432 10.968 4.269 6.617 2.728 9.32 2.758M591.756 540.304l.3-.064.61-.425 1.288-1.16.759-.197.852.063 1.209.278 1.206.581.208.345.112.903-.195 2.11-.15.588-.749 1.435-1.43 1.707-.561.726-1.186 1.963-.184.846.123.283.945 1.533.078.48-.175.712-1.812 4.296-.014 1.07.27.83.354.334.189.099 1.958.888.24.548.101 3.278.158 1.251-.122.452-.406 1.388.05.417.1.295 1.142 2.618.268.687.912 1.483 1.924 2.71 1.32 2.34.557.689 2.643 2.437 2.215 2.666 1.66 2.503.821.781.762.186.916.207.38.302 1.255 1.47 1.017.798 1.652 2.929 3.122 4.958.993.789.633.322 1.804.57.866 1.203.671.719 1.57 1.628.143.377M591.756 540.304l-.408-.144-.229-.273-.05-.34.018-.152.189-.593 1.084-2.747.183-.83.001-1.2-.284-1.338-.38-1.031-1.444-3.703-.102-.926.1-.467.286-.39 1.113-1.222.105-.625.265-2.821.436-1.704 1.543-4.062.88-1.448.243-1.674.006-.737-.064-.226-1.042-2.919-.093-2.517-1.022-1.455-.38-.17-.973-.312-.873-.559-1.367-.983-.777-.107-.633.11-.318.317-.15.433-.392 1.515-.435.803-.613.63-.354.207-.832.14-.37-.073-3.102-1.192-3.966-.615-1.94-.274-.864-.578-1.217-1.267-1.674-1.97-1.02-1.91-.81-.696-.188-.327-.495-1.4-.671-2.988-.385-3.162-.028-.474-.38-.29-1.112-.303-.424-.326-1.013-1.348-.291-.06-2.548-.088-.684-.396-1.418-.596-2.607-3.09-.833-.55-.282-.108-1.155-.223-.451-.277-1.387-1.385-.915-.67-1.3-.534-5.682-1.659-.103 1.733-.101.445-.303.788" clip-path="url(#p17edc29141)" style="fill:none;stroke:#000"/><path d="m586.037 526.02-.062.444-.236.696-.204.504-.094.407-.056.363.008 1.325.063.667.086.393.252.544.137.239.156.194.156.172.18.177.36.466.197.27.172.256.185.496.193.578.227.992.134.808.094.614.118.415.15.437.243.555.424.793.314.474.314.385.4.37.488.26.342.144.188.05.216.039.082.006.08.001.055-.005.06-.01.1-.03.078-.042.047-.044.036-.053.036-.066M509.318 562.184l1.594.118.48.03.071-.004.043-.007.046-.008.03-.01.027-.013.057-.036.12-.078.058-.037.062-.03.056-.01h.07l.05.006.051.009.051.012.048.017 1.072.618M509.993 548.912l-.699 1.11M481.396 605.693l-.26.407-.164.19-.172.117-.17.071-.328.042-.418-.02-.42-.096-3.668-.852-.895-.163-.26-.015-.258.015-.645.141-.91.285-.299.034-.342-.045-.475-.163-3.165-1.426-.656-.166-.197-.026-.268-.002-.246.02-.236.075-.38.222-.797.603-.484.467M208.287 597.535l.507.841 1.154 1.644.672 1.037.534 1.24.663 2.552.377 1.066.566 1.133.935 1.326 2.482 3.577M222.26 604.393l-.444.348-.432.145-.338.018-.385-.06-.542-.17-.294-.144-.167-.048-.077-.004-.087.013-.129.06-.153.15-.07.11-.05.121-.024.129-.001.143.074 1.152-.035.607-.055.259-.12.315-.46.815-1.218 2.214-.511.737-.565.648M182.903 561.28l-.276-.146-.2-.161-.192-.233-.31-.504-.84-1.644-.669-.897-.722-.68-.95-.69-1.218-.592-1.068-.207-1.233.007M189.052 565.07l.405.661.387.688.158.206.197.198.326.276 1.327.947.46.333.333.325 1.367 1.433.79.541.804.433.66.215.526.085.429-.01.522-.078.386-.108" clip-path="url(#p17edc29141)" style="fill:none;stroke:#000"/><path d="m189.052 565.07.008.35.067.478.049.402.004.331-.069.788-.244 1.497-.054.814.002.216.037.225.036.098.065.096.074.07.104.06.593.176 2.16.466 1.63.393 1.346.148 1.54.052.785-.09.47-.132.198-.1.276-.193M208.287 597.535l-.114-.188-.338-.519-.345-.392-.825-.578-1.03-.59-.498-.349-.69-.653-.865-.567-.722-.581-.283-.348-.342-.607-.534-.867-.99-1.392-.258-.544-.064-.434-.019-.403.063-.585-.051-.463-.099-.581-.207-.849-.542-1.018-.754-.803-.613-.545-.267-.4-.084-.185-.046-.222-.015-.433.176-.733.44-1.926.083-.681.054-1.337.142-.818.169-.704.098-2.281.051-1.088.154-.752.113-.49.012-.262-.01-.104-.032-.123-.047-.077-.074-.055-.074-.029-.147.001-.194.037-.54.198M182.903 561.28l.149.185.231.145.251.068.254.024.83-.074 1.587-.244.974-.282.522-.026.362.082.283.159.207.196.197.315.208.707.073.784-.097.821.004.317.04.304.074.309M215.674 599.783l-.265.25-.3.228-.429.285-.814.338M216.156 601.693l-.254-.043-1.72-.593-.316-.173M208.287 597.535l1.551.82 2.557 1.72 1.47.809M217.15 591.844l.291.089.12.062.116.08.075.103.027.067.016.062.017.185-.015.262-.177 1.034-.462 1.61-.808 2.704-.676 1.681M216.156 601.693l-.243-.347-.168-.318-.071-.319-.025-.227-.003-.188.028-.51M216.156 601.693l2.172.379 1.28.133 1.862-.074 1.524-.185 1.872-.238" clip-path="url(#p17edc29141)" style="fill:none;stroke:#000"/><path d="m231.568 601.214-.229-.36-.255-.34-.228-.238-.872-.56-.367-.201-.363-.117-.362-.031-.258.031-.303.089-.519.237-1.166.703-1.198.815-.582.466M222.26 604.393l.345-.437.703-.862.825-.8.733-.586M231.568 601.214l.615-.213.257-.134.277-.184 1.12-.985.169-.092.158-.055.154-.036.707-.082.196-.05.162-.087.41-.364" clip-path="url(#p17edc29141)" style="fill:none;stroke:#000"/><path d="m233.503 609.884.172-.955.17-.481.184-.319.832-.925.476-.726.122-.385.016-.2-.016-.167-.13-.433-.169-.272-.247-.235-.923-.552-.518-.49-.472-.591-.966-1.207-.466-.732M227.895 602.756l-.872-.577-.316-.162-.297-.112-.124-.027-.139-.01-.117.015-.12.037-.095.058-.551.39-1.492.97-1.513 1.055M452.897 571.948l.155-.266.124-.167.108-.11.128-.09.233-.115M360.837 614.596l-.41-.35-.15-.153-.157-.236-.64-1.147-.42-.548-.57-.53-.347-.248-.391-.226-.652-.292-.864-.293-1.343-.222-1.551-.363-2.91-.88-1.037-.383-1.064-.514-3.29-1.793-.453-.186-.585-.184-.498-.13-.507-.055-1.28.037-.739-.067-.647-.17-1.328-.48-.938-.086-.94-.03-1.04.055-.772.054-.502-.025-.497-.104-.828-.32-1.642-.6-.733-.182-.512-.078-1.689-.251-.683-.123-.927-.289-.781-.355-.778-.422-.612-.511-.425-.589-.306-.533-.361-.77M360.637 620.41l.783.357.247.16.212.2 1.343 1.643 2.147 2.035" clip-path="url(#p17edc29141)" style="fill:none;stroke:#000"/><path d="m364.95 577.314.495.363.142.154.101.181.071.231.02.352-.075.537-.223.733-.06.545.099.61.228.741.934 2.018.189.33.298.36.57.51.215.307.216.393.378.944.605 2.081.22 1.03.074.57.012.637-.13.403-.108.219-.187.263-.624.625-.734.989-.29.57-.252.786-.087.481-.027.431.037.518.24.836.027.168-.007.184-.073.392-.177.303-.224.263-.62.596-.857.604-.8.844-.322.504-.342.66-.523 1.313-.376 1.333-.17.77-.113 1.434-.283 2.003-.342.992-.561 1.27-.534 1.456-.193.94-.078.789.017.302.09.414M364.95 577.314l-.345-.14-1.866-.563-1.602-.267-.387-.113-.253-.124M356.978 580.402l.419-.027.257-.062.624-.225.31-.185.285-.221.571-.59.574-.77.4-.667.048-.164.019-.185-.012-.655.024-.544M360.637 620.41l-.792.953M359.28 619.832l.392.135.965.442M359.845 621.363l-.565-1.53" clip-path="url(#p17edc29141)" style="fill:none;stroke:#000"/><path d="m372.349 571.523-.911.01-.668.138-.2.076-.251.131-.153.115-.209.226-.587 1.007-.39.46-.774.695-.786.537-.698.663-1.222 1.215-.55.518M437.246 551.12l.664.408.393.339.414.422 1.496 1.64.68.63.455.289.179.086.155.062.18.043.206.022.5.018.602-.038 2.906-.426 1.438-.141 1.31-.078.336-.074.23-.115.17-.13.129-.173.141-.393.047-.644-.03-1.03-.105-.753-.13-.504-.241-.55-.295-.514-.443-.585-.811-1.108-.187-.427-.38-1.054-.409-1.829-.213-.785-.22-.645-.266-.74-.056-.29-.034-.283-.005-.253.126-1.426.346-.792.212-.556.058-.359-.039-.566-.176-.722-.067-.515.028-.387.033-.14.06-.136.15-.165.133-.094.183-.067.128-.018.123.003.38.048.588.099.527.005.546-.13.78-.281 1.462-.763.997-.522.283-.082.275.004.29.126.24.2.184.296.433.974.746 1.267.844 1.7.652.93.84 1.013.334.528.381.661.108.109.106.073.102.05.108.031.104.013.112-.005.097-.025.088-.048.067-.051.059-.062.101-.207.102-.369.052-.525-.043-1.032-.075-.633-.157-.518-.108-.23-.132-.167-.215-.2-.598-.444-.286-.234-.135-.182-.058-.108-.049-.13-.03-.143-.01-.154.11-1.048.14-.837.128-.469.226-.472.55-.881.42-.552.475-.418.573-.541.283-.355.101-.18.076-.191.07-.367.032-.507-.067-1.23-.216-.745-.163-.34-.351-.477" clip-path="url(#p17edc29141)" style="fill:none;stroke:#000"/><path d="m413.508 523.416-.042.348-.008.937.055.493.157.529.487.97 2.073 3.393.801 1.584.534 1.704.299 1.11.432.727.373.446.499.342.62.226.38.058.39.024.75-.075 1.331-.347 3.708-1.207 1.115-.274.557-.03.558.052 1.029.366.493.281.402.33.958 1.081.77 1.267 2.38 4.896.69 1.732 1.226 3.866.721 2.875M507.834 548.942l1.46 1.08M503.522 492.12l-6.064 1.852-.538.311-.471.411-.33.411-.128.265-.08.268-.197.875-.117 2.814-.346 3.281.05.657.168.472.151.28.123.153.203.197 1.088.833.489.439.265.317.629.881 1.106 1.23.963 1.007.198.339.077.21.04.195v.22l-.064.202-.176.219-.417.355-.361.384-.114.192-.059.213-.013.287.048.32.161.602.065.385.085 1.831.039.388.104.548.328 1.112.357 1.535.876 3.506.844 2.155.295 1.088.067.778.031 1.092-.145 1.337-.087 1.75.014.301.051.336.098.383.171.381.365.649 1.445 1.792 1.367 1.53.793.996.216.347.041.13.03.137.006.18-.026.18-.196.41-.049.196-.006.193.009.15.035.135.172.437.196.486.09.316.048.269-.004.336-.07.338-.496.84-.467.548-.294.222-.319.137-.369.067-.502.011-.664-.052-.79-.244-.64-.14-.102-.002-.143.016-.08.023-.059.036-.058.063-.017.027-.012.047-.006.055.005.061.045.132.126.166.137.116.548.318 1.757.615.718.31.656.357.755.544.13.167.072.155.065.33.066 1.555.118.762.193.775M485.088 535.825l.541-.518.212-.283.189-.31.322-.814.179-.332.22-.32.638-.637.448-.322.298-.112.283-.035.175.01.174.04.373.115.166.08.145.102.143.155.116.172.098.217.051.261.142.957.215.782.731 1.71.416.693.88 1.107 1.139 1.526.903 1.511.283.36.283.27 1.476 1.148 2.286 1.562 1.46.748 1.398.533 1.186.364 1.135.132.95.008.222.026.175.048.176.078.146.089.28.23.56.607.543.425.99.734M400.899 521.264l.62-.192.684-.378.342-.182.157-.043.145-.008.232.04.278.15.204.202.428.745.629 1.415.084.318.057.363-.02.45-.137.554-.059.425.016.407.114.567.16.322.291.445.503.555.526.333.475.115.46-.033.385-.13.424-.263 1.01-.829 1.574-1.444 1.084-1.06.561-.377.44-.189.4-.092.542-.034M393.59 459.614l-.078-.188M275.546 369.3l.974-.966.503-.89-.283-1.54-.063-1.156.126-.651 2.89-4.445.911-2.578.566-1.51.88-1.72 3.14-3.614.315-.8.817-4.149 1.508-2.963 1.477-1.363 1.225-.978 1.476-.592 1.352-.593.619-.919M121.369 145.371l-.355.045-.345.09-.329.134-.306.176-.283.218-.248.254-.208.284-.44.933-.518 1.32-.314 1.17-.081.226-.122.21-.158.186-.178.149-.2.12-.219.086-.348.04-.344.065-.47.126-.456.17-.362.18-.342.213-.318.244-.52.433-.5.456-.133.216-.103.229-.091.32-.035.331-.065.396-.092.39-.014.2.024.2.064.192.1.179.146.171.18.14.207.103.387.19.363.228.334.264.304.298.325.277.345.255.424.266.447.233.464.197 1.068.83.135.163.096.186.056.2.012.207-.013.117-.027.114-.085.22-.126.2-.176.186-.21.15-.239.108-.255.06-.36.19-.342.217-.32.244-.298.268-.33.362-.29.39-.243.42-.414.718-.377.737-.34.752-.231.572-.21.58-.121 1.374.004 1.063.03.66.052.66.13 1.307.091.352.133.34.173.323.181.266.21.248.233.227.244.22.266.197.283.172.266.132.277.11.286.088 1.084.44.887.4.088.072.07.088.036.076.022.08M393.512 459.426l-1.016.303-.649.251-.567.338M393.512 459.426l.46-.154M396.56 458.69l-.393.019-.409.081-.952.245-.834.237M352.438 495.12l1.265-.785 1.327-.622 1.87-.874 1.217-.415.833-.178.907-.037 1.323.104 4.587.281 2.074-.022 1.28-.126 1.657-.415 1.438-.518 1.806-.963 3.4-1.992 1.933-1.134 2.073-1.725 1.485-1.326 1.194-1.437.628-.933.447-1.244.032-.978-.306-2.674-.047-2.126.298-1.688.456-1.4.706-1.356.401-.57 1.249-1.63.538-.951.341-.863.244-.948.365-2.696.228-.912.306-.61.491-.534.589-.406.207-.099M352.438 495.12l-.8-.378-1.147.104-.864-.252-.817-.445" clip-path="url(#p17edc29141)" style="fill:none;stroke:#000"/></g><g id="PatchCollection_1"><path d="m372.258 355.298.069.283.125.63.031.307 1.487-.654-.604-.214zM382.962 404.826l.676.727-.135.808.938-.204.145-1.038-.185-.234-.285-.157-.984-.174z" clip-path="url(#p17edc29141)" style="fill:green;fill-opacity:.8"/></g><path id="PatchCollection_2" d="m373.862 360.717 2.615-1.71 3.089 4.2-2.615 1.71z" clip-path="url(#p17edc29141)" style="fill:#90ee90;fill-opacity:.8"/><g id="PatchCollection_3"><path d="m194.613 413.607.302.185-.264.385-.303-.185zM350.655 399.815l.369-.675.399.192-.369.676zM619.48 171.765l-.41-.203.208-.376.41.203zM363.393 350.828l.421.282.304-.402-.42-.283zM365.919 364.363l.517.305.245-.368-.518-.306zM369.027 381.786l.465-.052-.1-.797-.465.052zM354.227 381.503l.584.175.144-.43-.584-.175zM351.882 396.448l.522.133.188-.654-.521-.133zM353.033 398.685l.746.281.165-.39-.746-.281zM183.26 424.382l.783.472.15-.221-.783-.472zM392.035 383.31l.732.43-.386.586-.732-.429zM363.155 359.115l-.184-.345.238-.113.184.345zM363.13 350.227l.312.15.125-.232-.313-.15zM354.138 401.57l.384-.533.326.21-.384.533zM369.518 359.317l-.221-.508.34-.131.221.506zM369.243 360.25l-.09-.207.18-.07-.139-.318.742-.289.23.526zM374.441 354.944l.594-1.708.718.222-.2.575-.24-.075-.394 1.134z" clip-path="url(#p17edc29141)" style="fill:#a9a9a9;fill-opacity:.8"/></g></g></g><defs><clipPath id="p17edc29141"><path d="M102.627 86.4h532.747v554.4H102.627z"/></clipPath></defs></svg>