<svg xmlns="http://www.w3.org/2000/svg" width="960" height="960" viewBox="0 0 720 720"><defs><style>*{stroke-linejoin:round;stroke-linecap:butt}</style></defs><g id="figure_1"><path id="patch_1" d="M0 720h720V0H0z" style="fill:#fff"/><g id="axes_1"><path id="patch_2" d="M90 618.365h558v-509.53H90z" style="fill:#fff"/><g id="LineCollection_1"><path d="m359.441 467.952-2.004-7.374-2.205-6.248-.271-1.256-.086-.71.115-1.609M374.517 425.698l-1.986 8.272-.34 1.719-.406.861-.446.911-.55.856-.608.7-.742.506-.87.444-6.04 2.776-3.527 1.927-1.243.938-1.356 1.787-.885 1.712-.528 1.648M346.694 460.503l1.042-.52.628-.481.7-.66.814-1.128 1.257-1.876.8-1.686.342-1.166.37-.621.529-.533.543-.392 1.27-.685M365.426 468.02l-4.098-.022M361.66 476.914l3.345-.363.236-.076.179-.114.07-.204-.064-8.136" clip-path="url(#pc2a5493fac)" style="fill:none;stroke:#000"/><path d="m369.054 474.537.306-.512.067-1.06-.11-4.622-.057-.253-.22-.128-3.614.059M359.441 467.952l1.887.046M361.01 473.97l-.899-3.722-.67-2.296M359.274 550.549l.967-2.155 1.202-2.621M372.68 507.073l.957 4.373 3.04 13.449.33 2.75-.029 1.242-.3.925-.314.47-.757 1-1.228.888-4.169 1.94-2.113 1.228-1.556.977-1.2.95-.7.926-.77 1.622-2.428 5.96M358.711 547.7l1.618-1.208 1.114-.719M361.66 476.914l-.65-2.943M365.933 490.756l-.89-1.701-.78-1.586-.684-1.9-.578-1.795-.395-1.622-.945-5.238M374.517 425.698l-7.305-.79-3.083-.43-3.956-.33-.842.025-2.542.279M360.26 568.665l.42-1.275 1.32-2.875.6-1.47.428-1.521-.057-.634-.086-.482-.428-.62-1.456-2.75-.871-2.434-.357-1.217-.284-1.011-.215-1.827M371.67 409.987l2.841 3.871.976 1.829.33.872.364 1.356-.02.913-.078.923-1.566 5.947M305.087 323l.043 2.17.486 1.076" clip-path="url(#pc2a5493fac)" style="fill:none;stroke:#000"/><path d="m344.859 343.788-2.598-3.088-1.428-1.8-.571-.539-.7-.462-4.39-2.39-1.021-.837-.557-.723-1.078-1.934-.757-.887-5.576-3.715-1.028-.482-1.385-.349-1.413-.17-.929.082-2.07.38-3.692.007-1.94.05-1.942.33-2.285.457-2.199-.482-1.684-.99" clip-path="url(#pc2a5493fac)" style="fill:none;stroke:#000"/><path d="m288.853 333.955-1.2-.228-.642-.291-.414-.432-.014-.798.7-1.18.413-1.584.314-.66.5-.342.7-.228 2.084-.102 2.328-.14 4.383-.671 4.655-.57 2.956-.483M196.887 133.302l1.057 1.193 1.4 1.002M206.296 138.82l-2.898-1.395-2.142-1.003-1.913-.925M169.588 177.274l1.256-.374.293-.197.57-.805.836-.831 1.97-1.129.457-.482 1.085-1.395 1.67-1.37 1.729-1.027.485-.647 3.798-3.906 2.042-1.661.6-1.573 1.899-2.904.285-.926-.071-3.982.2-.85 2.156-3.323.67-1.484.586-2.777.386-1.7 1.028-2.46 1.056-1.675 1.714-1.7 1.5-.697 1.555-1.902M274.362 187.844l.912 2.315.515 2.498.37.964 1.357 1.382 1.899 2.854 1.3 1.394.299.952-.028 1.027-2.313 14.051M305.087 323l.414-.912 1.885-1.775 1.713-3.652.957-.976 4.27-3.31.283-.684.123-7.589-.178-.539-.571-1.11-.243-.564-.557-1.28-1.585-2.65-6.525-7.62-1.085-1.953-1.342-2.752-.429-1.928-.27-2.46-.187-1.128-.5-.799-.599-1.04-13.164-13.466-1.442-1.813-.943-1.332-3.555-6.518-1.513-3.41-.772-2.144-.7-2.878-.313-2.118-.172-3.918-.142-2.448.2-1.737.813-4.578.186-2.118v-1.8l-.171-2.511-.614-8.383.314-1.826M344.859 343.788l.407-1.364M347.847 345.059l-1.396-.327-.792-.402-.8-.542M359.283 399.43l-.195.364M359.283 399.43l-1.017-.74-.521-.5-.318-.389-.217-.396M359.283 399.43l1.995.851M117.006 148.083l.995-.22 6.096.126 3.084-.152 1.628-.24 2.827-.838 5.712-1.737 4.582-.888 2.628-.102 1-.507 1.013-.19 2.613-.025 1.685-.33 2.456-.673 2.27-.558 1.813.076 2.313.432 2.527.089 2-.419 3.626.38 1.8.47 5.724-.026.657-.14 1.557-.988 1.97-1.472 2.656-3.678 1.014-.926 2.07-.684 2.284-.09 1.385-.354 1.814-.254 3.74-.178 1.114-.165 1.228-.52M352.274 381.564l3.37.565M352.274 381.564l-5.446-.91M352.274 381.564l-3.04-6.626M352.544 390.367l-.454-5.289.184-3.514M273.154 184.782l1.208 3.062M253.101 171.235l1.755 1.676 2.37 1.382 7.84 2.435 4.568 1.636 1.114.913.885 1.281.829 1.674.692 2.55" clip-path="url(#pc2a5493fac)" style="fill:none;stroke:#000"/><path d="m203.198 193.837.771.71 9.353 6.468 1.613.076.514.152 1.27.76 5.255-.24.557-.203 1.056-.863.843-.114 5.426.672 1.542-.482 3.912.33 1.499-.165 2.57.368 1.856-.456 4.155-.546 1.428-.279 1.043-.38.613-.622 1.285-2.18 2.014-1.624.385-.71.571-.609 2.627-.964 3.67-2.333 1.428-.406 2.684-.089 1.5-.964.956-.583.428-.685 1.014-1.09 3.455-1.884 2.663-.12M347.847 345.059l.437.191M347.847 345.059l.514-.079M241.6 266.201l.249.825.564.71.907.4 1.242.234 1.157.298.792.47.8 1.26.55.476 1.827.76.171.191.557 1.116.229.254 3.79 2.32 1.992 3.196.429.551 1.413.907.514.596 1.1 2.117.214 1.687-.628 4.096-.172.722.071.406.258.228 1.927.343 2.984 1.331 1.328 1.154 1.343 2.865.485.533 1.527.368.571.279 2.057 1.952.885 1.979.828 3.639-.143 3.88.186 1.508 2.427 3.867 1.128.546 2.37 1.66 1.157.406 2.441.14 1.114.38 3.684 1.877 1.756.545.557.368 1.756 1.762 1.67 1.154 1.058.494 1.684.127 2.899.888 1.756.253.643-.114 2.127-1.103.414-.089.842-.012M353.519 346.263l-.15.447M353.519 346.263l-.543-.377-.414-.222-.507-.14-3.694-.544M361.112 347.82l-6.936-1.449-.657-.108M355.146 349.115l-1.161-1.967-.466-.885M355.644 382.129l.286.167.2.129.43.278M356.55 381.913l-.181.043-.13.032-.595.14M562.565 183.342l1.178-.075M562.565 183.342l.221-.909M559.888 195.714l-.35-.749-.25-1.04.044-.85.385-.78.65-1.42.785-1.997.285-1.408 1.128-4.128M559.888 195.714l-.32 1.344-1.557 3.538-2.114 4.629-1.399 3.081-1.299 1.662-2.07 2.574-3.127 2.84-4.24 3.78-.372.532-.243.71-.407 1.744-1.535 2.543-1.177 1.141-3.206 2.245-.293.355-.15.31.036.26.65.406M492.516 240.751l.058-2.174.079-.545.464-.939.642-.627.393-.248 2.184-.691 2.106-.507.65-.172.978-.532 1.43-.93.533-.218 1.706-.513.986-.457 2.748-1.832.5-.16.542-.062 4.091.032.635-.064.628-.127 3.699-1.356.878-.121.814.101 1.042.317 4.676 2.556 1.193.425 4.318.606.95-.036 1.806-.52.429-.038 1.37.21.365-.128.392-.272.636-.64.456-.704.172-.977M601.502 299.6l-1.815-2.506-.527-.6-2.784-2.415-1.685-1.769-1.634-1.09-1.371-.761-1.138-.28-.81-.024-1.771.335-4.17 1.636-2.584.742-.464.196-.978.691-1.314.52-4.162 1.668h-.293l-.506-.197-.479-.444-.207-.545-.057-1.16.235-1.198.964-1.965.779-.958.863-.552 1.114-.729.593-.71.728-.944 2.255-3.988 2.45-3.975.4-1.129.02-.672-.735-3.392-.32-.533-.857-.665-.979-.419-3.062-.545-1.328-.507-.514-.419-.95-1.249-.507-.88-.185-.635-.236-1.3-.4-.78-1.05-1.09-1.37-.938-.678-.704-2.52-3.64-2.87-3.48-2.099-1.84-1.463-1.426-1.243-1.82-.75-1.635-.235-.996.072-2.377-.3-1.554-.8-1.762-1.585-2.302-.635-.71-3.576-2.627-.329-.448-.964-2.112-.536-.741-1.449-1.25-.956-.405-3.213-.863-.82-.488-1.079-1.027-1.4-.907-.784-.031-.628.063-2.756 1.065M583.405 492.695l1.466 3.581M586.229 481.587l-.54 1.334-1.778 3.136-.43.922-.37 1.056-.085 1.47.379 3.19" clip-path="url(#pc2a5493fac)" style="fill:none;stroke:#000"/><path d="m575.308 494.532 2.907-.653 5.19-1.184M577.759 502.196l.523-2.22M577.759 502.196l-3.55-1.353M576.5 505.12l.573-1.238.627-1.212.054-.21.005-.264M576.5 505.12l-1.078-.32M584.642 507.782l-2.229-.813-5.913-1.849" clip-path="url(#pc2a5493fac)" style="fill:none;stroke:#000"/><path d="m574.772 506.226.715-.128.607-.31.264-.286.142-.382M586.997 510.18l-.87-1.17-.47-.552-1.015-.676M585.963 506.197l-.141.159-.123.152-.138.138-.135.152-.194.223-.17.188-.42.573M589.076 512.467l-2.079-2.288M589.076 512.467l1.64 1.832M573.42 509.198l7.774 2.816 1.882.599 1.37.348 1.543.152 1.32-.082.993-.26.774-.304M590.715 514.3l3.316 3.443 1.144.92 7.606 5.52M606.507 554.046l-.075-.966-.04-3.05-.252-2.665.03-.895.192-.724.292-.877.252-.975.181-1.225.162-1.538.685-2.084.413-1.673.08-.734-.07-.58-.202-.85-.564-2.03-.575-1.62-.11-.662-.01-.84-.051-.958-.211-.715-.323-.68-.47-.562-1.034-1.078-2.026-1.883M578.284 498.948l-.002 1.027M578.284 498.948l6.587-2.672M578.284 498.948l-4.076 1.895M577.968 487.94l-7.943-2.137M577.968 487.94l1.528-3.823M577.968 487.94l-1.549 3.838M589.649 509.245l-.505.133-1.467.592-.68.21M584.87 496.276l5.121 4.95M560.16 504l-.627-.263-.856-.635-1.422-1.36-.654-.277-.807-.162-.756.01-.987.196-.414-.05-.523-.291-2.26-1.62-2.55-1.172-.967-.17-2.479.018-6.63.358-5.46.545-6.993 1.243-1.613.143-1.27-.035-1.621-.349-6.953-1.986-5.968-3.51-3.833-1.439-.718-.516-3.218-3.201-3.603-2.238-2.782-1.583-.695-.564-2.71-3.005-3.003-2.129-1.37-.715-.665-.188-1.37-.072-2.147.161-.886.304-5.16 2.523-.825.563-5.734 4.813-1.098 1.046-.766 1.163-.483 1.592-.363 1.664.101 1.727.403 1.475 1.25 3.265 2.911 8.426.121.957-.192 1.118-.503 1.324-.625 1.163-.715.975-.514 1.065-.222.769-.564 7.299.192 1.082 1.198 3.756.252 2.692-.03.841-.342 2.326.332 5.652.131 1.494.322 1.073.656 1.163 2.428 3.346 3.96 3.362 2.136 1.584 1.36 1.198 1.138 1.243 3.396 4.294 1.028 1.046 2.126 3.229 1.48 2.379.646 1.279.473.643 1.34 1.27.373.69.182.769.312 4.283 1.3 3.739 1.37 3.408.111.805-.1 1.618-.746 1.986-1.33 4.686-1.976 3.97-.262 1.584-.413 3.157-.292 1.261-1.45 3.04-1.613 4.169-.133.754-.078 1.32M592.952 513.521l5.553-2.276M598.505 511.245l1.388 2.91.01.14-.082.092-.165.089-3.485 1.231-.737.017-.57-.24-1.912-1.963M592.952 513.521l-3.303-4.276M587.268 502.226l-8.986-2.25M587.268 502.226l-.648 2.825M587.268 502.226l2.723-1M575.308 494.532l1.111-2.754M563.78 491.141l3.694 1.366 2.216.459 1.128.24 4.49 1.326M574.208 500.843l-3.904-2.908-.733-.633-3.316-3.444-2.475-2.717" clip-path="url(#pc2a5493fac)" style="fill:none;stroke:#000"/><path d="m445.015 504.888-.198-1.92-.218-.99-1.022-2.914-.32-.863-1.987-2.844-4.87-5.31-.396-.681-.143-.634.1-1.103.314-1.23.443-2.027.242-.976-.014-.799-.7-4.196-.128-1.939.015-1.724.1-1.305.228-.787.685-1.115 3.17-4.614 2.056-3.84.514-1.307.171-.963.186-2.535.186-.697.485-.71.714-.634 2.598-2.218.929-.748.7-.14 1.141-.025 1.443.114 4.426.723 1.085.316 1.083.443 4.514 2.524 1.656.824 4.883 1.584 1.57.406 3.542.57 1.37.102h1.842l1.628-.229 1.899-.57 1.856-.938 3.855-2.637.529-.266.685-.05 1.142.392 1.5.545 1.142.19 5.454.597 1.614.037 1.087.146 4.867 1.56 1.256.551 2.758 1.692 3.539 4.076 1.513 1.66 1.285 1.115 1.314 1.357.853.682 1.174.789.657.773 1.656 2.04 2.342 2.637 1.47 1.255 1.814.926 2.042.81 2.713 1.154 2.227.697 1.956.28 2.1.455 1.698.431 2.056.812 1.085.354 1.143.19 2.241.19 2 .54 2.527.868 4.983 1.381 4.155 1.547 1.713.596 1.542.823 1.3.977M560.16 504l-.207-6.256M565.785 503.923l-3.29.515-1.007-.07-1.328-.367M375.193 405.35l3.955 1.1 5.212 1.064 16.326 3.227 4.22 1.11 9.652 4.322 5.397 2.18 4.012 1.61 1.043.357.885.074 1.37-.025 1.671-.444 1.185-.101 2.128.139 2.227.089 1.5.076.913.127.885.418 1.52.97 2.264 1.033 1.1.382 1.613.188 2.142.026 5.297.278 2.713.039 2.17-.277 1.585-.598 1.67-1.154 1.542-1.128 1.828-.887.671-.28 1.157-.263 1.085-.066.714.254 1 .443 1.655.989 1.242.697 2.413.761 2.114.368 2.713.317 1.914.09 3.712-.507 5.64-1.814 2.07-.951 2.356-1.674 4.854-3.752 6.568-5.147 6.297-4.906 2.712-2.029 1.428-.824 1.1-.215.957.217.8.609M575.665 474.116l-.391-.301-.715-.674-4.155-5.121-1.684-2.396-.8-1.534-.714-2.154-.386-1.598-.314-1.433-1.87-3.802-1.47-2.776-.929-.812-1.47-.517h-1.827l-3.884.456-1.9.01-1.485-.253-2.841-.595-1.256-.126-1.343-.559-1.956-1.293-3.04-2.204-1.414-1.27-3.428-4.069-.685-1-.257-.66-.071-.533.428-.659.828-.494 1.357-.736 1.913-.9 1.442-.71.742-.215 1.071-.266 1.185-.368.6-.368.729-.633 1.199-1.471.942-1.09 1.157-1.37.428-.848.071-1.09-.285-1.053-.528-.824-1.542-1.382-1.271-.887-2.899-1.293-4.597-1.04-5.483-1.153-2.598-.746-1.999-.254-1.172-.053-3.212.305-1.128-.026-.914-.443-1.242-.76-1.156-.28-.943.114-1.399.317-1.057.267-.97.05-.529-.405-.171-.698-.015-1.217.015-1.534.185-.811.187-.708.414-.685.956-2.345.506-1.25 1.607-5.47.143-.696.015-.862M520.623 344.999l1.428 3.613 1.792 4.19 1.342 3.683 1.735 4.597 2.527 6.174.857 2.814.057.66-.157.335-.328.197-3.805 1.388-.943.52-.6.71-1.056 2.56-1.285 1.877-.2.596.1.609.428 1.813.186.634.285.304.8.475.436.431.35.926.157.355.328.196.4.064 1.035-.267 1.218-.632.586-.33.92-.818.886-.912 1.177-.704.707-.247.781-.115 1.043.133 1.191.684 1.835 1.217 1.631.685 1.328.265 2.249 1.248 2.121 1.664.2.563-.088.578-.254.507-2.042 2.194-1.343 1.233-2.484 3.584-.556.444-.343.165-.486.126-3.683.761-4.812.875-.914.266-1.548.716-7.422 3.259M575.665 474.116l.479.369 1.357.8 2.398.746 2.856.913 1.1.633.856.786.97 1.37.3.9.248.954" clip-path="url(#pc2a5493fac)" style="fill:none;stroke:#000"/><path d="m587.538 351.027.87 4.938.522 2.27.043.716-.4.882-1.613 1.629-1.107.773-.942.406-2.834.708-.786.306-.97.773-.293.666.021.906.3.679.271.228.472.241 2.185.512 1.87.635 4.147.926 1.05.025 4.412-.24 3.19-.273 1.515-.286 1.427-.107.921.272.707.235.543.596.164.36v.571l-.243 1.02-2.177 4.988-2.091 5.495-.874 2.863.07.643.686 2.615 1.174 2.716 1.03 1.632 3.995 4.447.455.828.874 3.311.057.977-.332.783-.57.938-.586.722-2.085 1.737-1.67 1.737-1.514 1.813-.4.76-.57 1.623-.472 1.623-.6 1.762-.571 3.195-.371 1.635-.928 1.788-1.542 2.32-1.9 2.535-.713.646-.928.951-2.085 2.941-1.67 1.927-2.285 1.331-.692.426-1.335.423-2.099.431-3.784.748-2.056.672-1.457.772-1.327.787-.297.383-.028.57.314.457 4.587 2.055 1.02.896.204.44.114.71-.228.736-.49.738-1.012 1.667-.597 1.714-.212 1.386.051 3.764.134 1.191.397 2.675.93 3.166 1.01 2.783 2.544 3.999.597.663 2.388 2.062.932.96 2.97 4.57.25.694.135.714-.056 1.004-.208.948-.857 1.707M598.505 511.245l-2.214-5.333M596.29 505.912l2.244-4.222M589.649 509.245l5.336-2.304.592-.349.714-.68M425.322 148.498l1.001-3.134 1.371-2.613 1.372-2.058 1.598-1.24" clip-path="url(#pc2a5493fac)" style="fill:none;stroke:#000"/><path d="m406.976 133.854.443-.926.857-1.255.185-.527-.007-.843-.15-.907-.492-1.586-1-1.82-.157-.399-.043-.4.8-1.984 1.228-2.854.264-.844.214-.222.3-.089.285.039 1.436 1.274 1.513.951.693.229 1.334.513 1.77.895.615-.02.471-.278 2.092-2.937.964-1.141.364-.089.492.07.207.089 1.328 1.572 1.914 1.471 3.583 2.41 1.028 1.066.357 1.636.3 1.547.443 5.43.057 5.529M437.96 209.41l.371-4.654-1.313-11.716-.657-5.507-1.314-5.529-.956-3.018-1.328-4.3-2.128-6.011-4.075-11.57-.794-3.624-.2-1.712-.244-3.271M406.976 133.854l3.327 3.031 3.684 3.342 1.868 1.538 3.434 2.803.702.473 2.827 1.54 1.39 1.01 1.114.907M366.37 403.526l-2.603-.135M366.37 403.526l5.3 6.46M366.37 403.526l-.671-.776M344.068 355.845l2.58 2.786M344.068 355.845l-3.101 6.799M344.068 355.845l.429-1.11M345.445 352.321l5.174 1.453M345.445 352.321l-.948 2.413M345.445 352.321l.905-2.347M346.35 349.974l5.136 1.53M346.35 349.974l1.934-4.724M349.594 356.184l-1.717-.498M349.594 356.184l1.025-2.41M349.594 356.184l-1.717 3.996M347.877 360.18l-1.23-1.55M347.877 360.18l-2.624 6.204M349.235 374.938l-6.27-1.054M345.253 366.384l.239.714 3.743 7.84M346.828 380.654l-1.818-3.123-2.045-3.647M340.055 364.758l-.228.843-.086.736.086.634 3.138 6.913M350.62 353.774l.866-2.27M348.36 344.98l-.076.27M351.486 351.503l.565-1.478M344.497 354.734l3.38.952M349.662 389.462l-.597-1.877-2.237-6.93M340.055 364.758l.911-2.114M340.055 364.758l5.198 1.626M365.699 402.75l.016-.405M365.699 402.75l5.972 2.515M365.699 402.75l-.018.004.016.009.002-.013" clip-path="url(#pc2a5493fac)" style="fill:none;stroke:#000"/><path d="m365.699 402.75-.002.013-.016-.01.018-.003" clip-path="url(#pc2a5493fac)" style="fill:none;stroke:#000"/><path d="m361.062 400.664 2.418 1.067 2.219 1.02M350.863 326.094l.092-3.345-.113-3.848M346.46 337.023l.72-3.55.542-1.534.671-1.126 1.328-1.803.742-1.407.4-1.509M330.203 306.974l1.47 1.445.357.254 3.277 1.426.928.444 4.312 2.276 1.171.875 1.263 1.953 1.557 2.751 1.185 1.56 4.526 4.868.457.761.157.507M346.46 337.023l-1.194 5.401" clip-path="url(#pc2a5493fac)" style="fill:none;stroke:#000"/><path d="m351.412 333.508-.605 1-.304.286-1.394.57-1.771 1.003-.879.656M346.812 341.464l-1.546.96M365.706 348.98l-4.594-1.16M365.706 348.98l2.805.707M366.1 353.01l.04-2.832-.15-.697-.284-.502M362.176 382.438l-1.412-.216M363.858 377.434l-.5 2.307-.357 1.037-.825 1.66M365.04 383l-1.584-.247-1.28-.315M426.024 255.76l-.386-4.908-.043-3.602.186-5.313.457-1.813.592-1.493 1.706-1.97M437.96 209.41l-.1 2.308.029 2.701.214 1.103.578 2.537.164 2.143.143 3.513-.014 3.296-.771 3.437-1.314 1.89-1.713 1.369-1.2.685-3.472 1.38-1.968.89M485.738 213.836l-3.294 2.168-4.555 2.39-1.685 1.123-1.513.977-2.656 1.058-3.07 1.478-2.12.735-2.435.83-.564.343-1.927 1.496-.4.489-1.485 2.447-.914.786-.414.21-.543.038-1.072-.384-2.897-1.189-.935-.196-2.142-.045-.57.133-1.779 1.218-1.484.786-1.364.45-1.156.159-.793.216-1.135.62-3.199 2.88-1.127.71-.736.26-4.026.62-2.206.134-3.006-.114M382.63 367.465l.566-.488.362-.529.602-1.22 1.113-1.585 1.371-1.719.347-.775.394-2.098.473-3.237.314-.977.689-1.524 1.381-1.975.457-1.065.195-2.174.726-2.968.293-2.554.185-1.889.122-.551.25-.533 1.438-1.962 1.924-2.64.657-1.39.721-2.82.135-2.935-.096-1.348-.168-1.093-1.099-4.045-.214-1.578.122-.856 1.32-2.346.885-1.768.9-3.411 1.213-3.322 1.193-2.156.578-2.237-.064-.958-.114-.545-1.614-2.492-.143-.355-.128-.805.093-1.097.164-.773 1.074-1.227 1.053-.516 1.021-.267 2.413-.323.657-.254.478-.31.957-2.55.228-1.235.036-1.877.05-.564.788-4.353.269-5.22.253-1.26M426.024 255.76l-.186 1.724-.272 1.331-.899 1.211-1.278 1.02-.964.546-1.014.374-4.319.463-.92.21-.807.525-.754.834-1.399 1.852-.932 1.765-.328 1.008-.421 3.424-.228.812-1.06 2.222-.793 1.635" clip-path="url(#pc2a5493fac)" style="fill:none;stroke:#000"/><path d="m332.616 171.636 1.563 2.638.886 2.093.578.881 2.22 3.285 1.242 1.516.907.786 1.627 1.28.757.717 1.699 1.655 2.313 2.834 1.25 1.573.806.672 1.036.463 1.342.267 3.926-.463 1.92.076 1.757.469 1.635.349 1.063-.02 1.921-.024.964.215.935.539.492.628 1.057 2.523 1.242 3.031.671 2.765-.043 2.08.457 2.562.343 3.335.343.983.842.85 1.042.323 3.934.513 4.134.273 7.824.888 4.89.538.686.096.614.253.535.317 1.963 1.586 2.342 1.287 2.306 1.426 5.211 5.542 1.243 1.395.243.977-.386 1.166-1.57 1.953-3.056 2.777-3.656 3.196-1.384 1.002-.986.62-3.398 2.157-.628.837-.157.811.1.685.5.431 2.084.596 6.011 1.433 2.199.926 5.183 3.246.6.76.07.597-.327 1.129-1.086 2.916-1.584 3.246-1.271 2.016-1.185 1.332-1.007 1.363-.185.717.207.735 2.826 4.35 1.757 3.17 2.445 4.941M357.348 383.056l.412-.16.182-.075.163-.053.188-.098M356.803 382.954l.447.117.098-.015" clip-path="url(#pc2a5493fac)" style="fill:none;stroke:#000"/><path d="m357.332 387.033.03-2.588-.014-1.39M358.293 382.67l.766.186.945.127M358.293 382.67l.158-.214.09-.249.08-.258.026-.173.003-.293-.023-.222M358.627 381.261l-.492-.258M358.627 381.261l1.45.867M358.135 381.003l.014-.308.014-.394.055-1.113.03-.422.138-1.603M358.135 381.003l-.203-.018-.315-.012M357.617 380.973l-.26.14-.228.165-.154.136-.425.499M357.925 377.165l-.188 2.969-.12.839" clip-path="url(#pc2a5493fac)" style="fill:none;stroke:#000"/><path d="m356.55 381.913-.108.248.007.198.038.167.073.177M356.56 382.703l.108.133.135.118M356.803 382.954l.023.83.028 1.18v2.072M358.386 377.163l-.46.002M358.386 377.163l.22-2.247.185-2.106M357.925 377.165l.268-4.24M366.882 384.137l-1.005-.148-5.214-.912M360.663 383.077l.195-.215.064-.298-.043-.174-.115-.168M360.663 383.077l-.659-.094M366.882 384.137l1.984.408.966.428M375.427 372.249l-1.343 4.88M375.427 372.249l6.025-1.218M382.63 367.465l-2.353 1.705-1.983 1.144-2.867 1.935M364.844 377.408l1.084-1.516 2.312-2.95.565-.405.68-.259.765-.127 5.177.098M374.084 377.13l-1.464.076M374.876 382.055l4.763-3.847.27-.52-.111-.372-.374-.212-5.34.026M363.858 377.434l.986-.026M364.54 369.637l-.026 1.094-.656 6.703M374.876 382.055l-.191.631M374.876 382.055l-8.773.382M365.04 383l1.063-.563M365.04 383l1.555.152 8.09-.466M360.077 382.128l-.154.227-.05.203.04.206.091.22M360.077 382.128l.687.094M366.103 382.437l6.517-5.23M372.62 377.206l-7.776.202M370.717 396.496l-2.287-2.139M372.482 389.192l-1.754 6.601-.011.703M375.193 405.35l-.112-.668-.209-.634-3.94-7.1-.215-.452" clip-path="url(#pc2a5493fac)" style="fill:none;stroke:#000"/><path d="m372.213 405.074 1.063-.035.59.022 1.327.289M371.67 405.265l-.032 1.453.032 3.269M371.656 404.858l-5.941-2.513M371.656 404.858l.015.407M372.213 405.074l-.236-.13-.32-.086M372.132 388.157l-1.558-1.296-2.804-2.061-.888-.663M372.132 388.157l.17.386.18.65M373.004 387.914l-.36.133-.512.11M373.004 387.914l-.196.52-.326.758M373.004 387.914l1.68-5.228M364.54 369.637l.994-9.433M364.54 369.637l-5.749 3.173M368.04 366.823l-.301.736-.49.653-.886.652-1.822.773M359.335 363.524l-.343 3.435M359.335 363.524l.475-.148M359.52 356.49l.24.555.079.815-.05.64-.454 5.024M359.81 363.376l5.724-3.172M359.81 363.376l.32-4.716.05-.856-.038-.853-.263-.65M359.81 363.376l-.399 3.603M365.534 360.204l.108-1.375M368.697 358.704l-.771.349-.943.336-.542.247-.907.568M358.791 372.81l.14-2.223M358.791 372.81l-.598.115M358.193 372.925l.202-2.48M358.93 370.587l.481-3.608M358.93 370.587l-.535-.142M358.395 370.445l-2.67-3.43M358.395 370.445l.597-3.486M365.642 358.829l.246-3.125M361.992 357.857l1.93.528 1.72.444M363.944 352.47l-.218-.118-1.45-2.241-1.164-2.292M363.944 352.47l-2.517 2.466M366.1 353.01l-1.94-.507-.216-.033M366.1 353.01l-.212 2.694M359.88 356.301l-.36.19M361.427 354.936l-1.054.997-.494.368" clip-path="url(#pc2a5493fac)" style="fill:none;stroke:#000"/><path d="m359.88 356.301-1.052-1.773-2.6-3.681-1.082-1.732M342.438 401.536l-4.195-.294M342.438 401.536l4.002.31M261.46 375.28l.2-.31.15-.234.136-.495-.022-1.07.143-.483 1.328-1.686 1.37-.71 1.957-.773 4.026-.444 1.814-.368 1.785-.05 2.012-.203 2.885.025 1.156.292 1.357.583 3.584 2.04.607.489 1.377 1.756 1.057 1.458.428.28.429.15 3.27.495.784.457 1 1.686 1.085 2.232.985 1.28.728.551.729.311 1.842.456.735.235.6.374 4.09 3.873.536.305 2.32.234 3.47-.089 3.612.19.728.203 1.403 1.2.425.22 1.3.063 3.611.013.729.127.603.35 1.467 1.792.67.786.79.807 1.753 1.4 1.399.633.375.375.81 1.502.49.578 1.352.892 1.456.52 1.142.139 5.27.558.67.304.547.427.423.53M337.118 401.205l1.125.037M337.118 401.205l-.227.217M210.537 397.207l.871.495 4.855 2.776.7.513.956 1.655.336.298 2.363 1.832.628.538 2.063 3.1.714.824.885.704 2.292.944 1.356.095 1.264-.14 1.863-.608 1.5-.938 1.955-1.812 3.05-2.587 1.62-1.344 1.556-.678 3.377-1.166 1.256-.127 6.725-.165 1.927.032 1.671.374 1.62.773 2.214 1.509.942.234 3.263.64 1.306.305 2.592 1.312 1.028.24 5.775.932 2.4.203 2.534-.031 1.327-.235 2.906-1.204 3.113-1.319 6.396-3.372 6.397-3.448 1.713-1.065.785-.304.914-.064 2.106.298 1.135.089 5.074-.26 4.699.31.907.146 7.72 1.708 5.096 1.147 6.836.84M334.234 403.39l1.12-.11.386-.27 1.151-1.588M329.411 403.611l1.715-1.258.504-.196 2.698-.434 2.563-.301M338.237 408.445l.343-4.065-.057-.592-.339-.673-.165-.605.224-1.268M346.44 401.845l3.332.202M349.662 389.462l-.08 1.205-.166 2.81-.11 1.176-.228.59-1.509 1.662-.402.67-.172.494-.555 3.776M363.767 403.39l-5.667-.552-8.328-.791" clip-path="url(#pc2a5493fac)" style="fill:none;stroke:#000"/><path d="m353.112 394.324-.969 2.634-2.371 5.089M363.767 403.39l-1.685 5.3M353.112 394.324l-.568-3.957" clip-path="url(#pc2a5493fac)" style="fill:none;stroke:#000"/><path d="m356.852 397.444-.879-.66-.661-.525-2.2-1.935M352.544 390.367l-2.882-.905M356.852 397.444l.358-.039M356.852 397.444l.088.442.191.316 1.548 1.367.409.225M356.852 397.444v-5.38M357.21 397.405l.063-5.332M340.967 362.644l-.626.05M340.341 362.693l-1.036.125-1.135.146-.907.272-.852.626M346.648 358.63l1.23-2.944M601.502 299.6l1.485 2.53.543.64 1.785 1.668M587.538 351.027l-.128-2.022.157-2.308.513-4.564.086-1.61.329-.837 1.4-2.79.313-1.039.343-2.08.257-1.229.95-2.168.392-.875.507-1.363.457-.551 2.448-2.118 2.1-2.047 1.977-1.96 1.949-1.217 5.061-2.327 1.343-.513.406-.266.429-.412.257-.583-.02-.801-.187-.702-.756-1.276-1.336-3.58-.814-1.94-.264-1.199-.392-2.212M612.182 302.6l1.25 1.99.435 1.027.114.843.093.939-.186 1.027-.27.463-.33.221-.328-.012-3.112-1.826-1.207-.73-2.113-1.496-1.213-.608M574.709 228.299l.65-3.836.186-1.567.242-.836.257-.533.614-1.046.7-1.154.114-.558-.171-.736-.786-2.32-.257-.584-.528-.799-.585-.926-.5-1.483-.271-2.879-.186-1.395-.643-1.154-.742-1.255-1.235-3.044-.7-1.123-.75-.792-.927-.749-.943-.557-1.613-.419-1.542-.431-1.385-.723-1.585-.85-2.235-.836M589.991 501.225l2.642-.744M576.763 479.112l3.979.57.2.215.12.299-1.566 3.921M576.763 479.112l-3.631-.52-.5.05-.354.291-.379 1.061-.532 1.157.022.457.425.325 7.682 2.184M576.42 491.778l-7.454-2.187M575.422 504.8l-.65 1.426M565.785 503.923l3.427-.709.992-.007.85.249 4.368 1.343M573.42 509.198l1.352-2.972M573.42 509.198l-1.633-.88M365.933 490.756l.987.505 1.12.513.771.228 1.056.051 2.042-.266.928-.203.814.063 1.47.178h.6l.914-.19 2.899-1.103 2.484-1.128.743-.19.885-.038 2.541.279.685.14 1.329.823.999.355.728.025 1.228-.215 2.042-.875 4.94-2.51.814-.253 1.656-.114 2.042-.05.607.208.371.368.7.539.685.38 1.57.665 1.272.57.214.324.35.741.37.805.094.856-.465 2.104-.271.938-.264.52-.743.716-1.798 1.128-.871.577-.836.355-.72.247-.593.234-1.678.926-1.67.804-.886.305-.835.234-1.3.222-.77.152-1.093.38-.9.31-.45.216-.534.292-.75.78-.371.468-.2.38.064.292.643.938.506.894.372.786.357 1.581.085.51-.021.697-.514 1.642-.187.706.108.485.329.444.585.19 2.676.081.737.185 2.056 1.014.8.163 1.313.027 1.028-.14.402-.374.612-.969.557-.43.685-.28 1.256-.291 2.813-.532 2.57-.343 2.427-.33 1.528-.506 1.228-.393 1.114-.19 1.97-.393 1.3-.026 1.656-.038 1.142-.304 1.242-.33 1.214-.633 1.156-.342 2.513-.406 3.97-.76 1.1-.14 1.584.013 1.042.089.9-.19 1.956-.787 1.728-.38 1.656-.355 1.872-.512M611.433 485.717l-.708 1.264M601.115 453.556l.178.185.999 1.129 3.284 3.84.743 1.205 2.241 3.321 4.17 5.476.885 1.572.342.95.186 1.37-.143 2.598-.885 4.918-.357 2.244-.276 1.12-1.049 2.233" clip-path="url(#pc2a5493fac)" style="fill:none;stroke:#000"/><path d="m637.27 462.277-.572-.608-1.456-1.115-.857-.419-1-.05-2.898.532-1.185.38-.628.495-3.113 3.93-.528.734-.472.482-.414.14-.9-.216-1.127-.469-.828-.177-.757.203-.743.747-.47.812-.1.697-.015.494-.043.685-.228.532-.543.685-.357.824-1.228 2.712-.985 1.648-.357.963.272 2.206-.015.874-.129.913-.549 4.31-.336 1.001-.25.387-.335.108-.607-.114-.628-.272-1.456-.614M598.534 501.69l-1.327-2.959-.38-1.05-.18-.95-.178-.622-1.15-1.939-2.39-3.93M610.725 486.98l-.78.708-3.241 3.955-.426.43-2.734 2.059-.852.73-.428.61-1.434 2.293-2.296 3.925M563.68 510.851l1.934-1.54.228-.317.079-.454-.136-4.617M100.73 283.7l.75.089 3.931.196.367-.063 1.114-.583.929-.67 1.313-1.055 1.299-1.381 1.742-2.194.192-.181.308-.11 3.112-.153" clip-path="url(#pc2a5493fac)" style="fill:none;stroke:#000"/><path d="m135.406 254.973-3.056-.672-1.67-.228-1.8-.102-4.169.621-4.983.584-.67.304-.8.05-2.157-.24-.47.127-6.397 3.056-.6 1.129v1.47l4.569 7.532 1.656 5.072.928 3.919M100.73 283.7l1.75-1.718.573-.908 1.097-4.291-.07-.482-.2-.443-1.468-1.337M167.66 452.977l-.436.624M174.04 462.643l.43-.853.186-1.268-.093-2.162-.292-1.996-.286-.925-.428-.52-1.128-1.071-.557-.14-1.07-.012-1.671.025-.686-.253-.785-.49M132.55 425.516l.414 1.749.097 1.105-.411 2.952-.029 1.368.711 2.207.518 1.76.62 1.06.214.298 1.062.685.98.215.614-.102 3.413-.798 1.206-.114 4.228.048.77.357 2.926 2.206 5.469 4.374 7.91 5.286 2.142 1.495 1.82 1.934" clip-path="url(#pc2a5493fac)" style="fill:none;stroke:#000"/><path d="m152.468 460.211.756-3.684-.228-2.565.1-1.204.515-.697 1.598-1.344.95-.273.706-.025 1.136.234 2.427.755 3 .911 1.07.407 1.3.838.573.217.568.013.285-.193M174.04 462.643l-.526-.733-1.67-3.308-2.128-2.802-2.492-2.2M253.101 171.235l-5.897-5.63-.943-1.204-1.485-2.752-1.442-2.562-1.742-2.537-1.185-1.331-1.57-1.332-1.028-.697-7.825-3.603-12.822-5.846-9.837-4.427-1.029-.495M346.694 460.503l-1.457.57-2.484 1.37-2.556 1.14-1.17.8-.515.582-.271.418-.6.406-.456.165-1.1.139-1.942.203-.685.14-2.685.646-3.84.393-.557.101-.9.013-1.042-.266-.928-.09-.914.09-1.956.393-.67.063-.872-.076-.956-.215-1.514-.723-1.528-1.014-.657-.24-1.156-.09-3.07.254M361.328 467.998l.179 3.296-.163 1.657-.335 1.02M361.385 463.038l-.057 4.96M361.427 354.936l1.544 1.105 1.285.14 1.632-.477M340.341 362.693l-.53-.68-.135-.406.071-.824.561-1.065.036-.196-.004-.159-.507-.218-.203.095-.15.114-.532 1.328M261.46 375.28l-.592-3.378-.286-1.395-.671-3.22-.614-2.32-.485-1.319-.786-1.622-1.956-2.384-.8-.43-2.155-.343-1.085-.57-.671-.679-.258-.539-.014-.52-.3-.583-1.07-.887-.743-.735-1.97-3.107-1.785-2.561-.771-1.496-1.628-2.168-.314-.545-.057-1.699M135.406 254.973l-.871.457-.086.646.957 1.775 1.442 1.433.642 1.129.386.989.314 3.5-.643 3.69-.2 1.687.2 1.407.843 1.813 2.713 3.779.942 2.219 2.07 2.46 2.47 2.637 5.397 5.643 1.885 1.902 2.342 4.945.357.444.585.19 2.142-.102 3.498 1.623 3.298 2.105 1.742 1.522 1.97 1.99 1.329 1.661 1.656 2.447 1.213 1.104.943.456 2.856 2.27 3.512 2.587.942 1.584 1.37 1.192 2.228 1.8 6.825 8.217 5.597 7.125 1.77 2.637.286.723.407.552.621.222 7.368 1.597.757.254.6.462 1.256 1.414.157.21.314.107 5.168.114 3.028.913 1.013.38 2.014 1.522 1.97 2.041 1.756 2.238 1.142 1.325 1.714 1.99 1.085.99.535.735.722.52 2.727 2.713 1.913 2.738 1.2 2.041.97 3.36.557 1.002.557.266h.664l2.02-.33 6.083.127 2.898.355 1.4.621 3.24 2.333 2.885 2.523 1.242 1.394.421.222.293-.031.203-.06.232-.238M445.087 390.034l-1.211-.477-1.214-.29-1.827-.14-1.157.126-1.256.228-1.105.474-4.07 2.486-.513.253-.495.071-.328-.24-.733-1.898-.838-1.26-1.242-1.267-.957-.697-1.056-.318-.986-.14-3.346.297-1.484.19-2.656.42-1.623.222-.961-.084-.914-.075-2.97.71-4.05 1.643-.648.36-1.456 1.369-2.756 2.662-.695.578-.97.216-.915.088-1.056-.037-1.542.063-1.442.418-1.357.735-1.417 1.172-1.41.35-.904-.11-1.884-.494-.842-.33-.453-.36-.39-1.756-.357-.622-.6-.418-.7-.343-2.294-1.057-.49-.527-.252-.525.153-1.275.756-2.13.319-.563 1.013-.837.443-.722 1.295-2.645.632-.905.21-.794.543-4.894-.086-.836-2.027-4.127-.457-1.198-.093-.615-.122-1.04.065-1.204.35-.773 1.895-2.283.079-.196-.032-.168-.35-.307-.14.015-.196.045-1.813 1.087-.343.323-1.313 1.8-.272.178-.235.032-.91-.203M352.051 350.025l.997 1.598.157.4.192 1.185.157.444 1.021 1.565.093.495-.021.666-.243.938-.478.88-1.142 1.23-.193.4.057.64-.064.54-.258.658-.563 1.478M352.051 350.025l1.318-3.315M372.68 507.073l-1.245-4.083-.568-1.671-1.28-2.881-3.654-7.682M520.623 344.999l-3.976-.248-2.534.305-1.271.107-.657-.088-.85-.418-1.52-1.307-.757-.393-.606-.158-.565-.019-.856.222-2.55 1.718-1.248.855-1.35.476-.435.089-.671-.051-2.178-.818-.535-.082-.578.05-1.078.273M445.087 390.034l.812-.028.542-.266.671-.596 1.47-1.521.89-.702 4.294-2.354 1.685-.735 4.023-1.831 4.765-2.64 7.57-4.102 2.536-.8.37-.273.201-.488.481-5.257.343-2.104.728-1.852 2.37-3.854 1.014-1.261 1.185-1.09 2.006-2.536 1.357-1.224 2.263-1.47 1.113-.926 3.113-3.474 1.057-.913 4.462-2.225" clip-path="url(#pc2a5493fac)" style="fill:none;stroke:#000"/><path d="m477.875 313.422.085.475-.092.57-1.478 2.454-.807 1.566-.371 1.306-.2 2.257.328 1.357.821 2.65 2.37 5.42 1.378 3.214 1.37 2.314.272.43.343.343.6.045.678-.178.757-.685 1.306-1.737.507-.158.764-.038 2.163.748.61.495.24.798.463 2.808.443 3.589.15.399.314.235 1.85.234 1.013.12 1.092.394 1.564.665M563.33 340.067l2.441-.691 2.648-1.148 1.85-1.059 1.656-1.14.592-.28 1.143-.26 2.213.153.414-.045.592-.215 2.164-1.604.485-.254.75-.17.478.018.464.171.293.362 1.827 9.54.7 4.235.1.406.285.4 1.6 1.457 1.513 1.084M477.875 313.422l-.365-.654-1.513-1.438-4.032-2.726-6.098-4.35-2.256-1.635-1.007-.317-.8-.045-2.962.127-1.25-.064-1.713-.266-.514-.209-2.613-1.528-.393-.209-1.684-.647-.893-.475-2.905-2.429-.664-.754-.336-.539-.992-2.307-.743-1.49-1.657-2.373-.956-1.19-5.809-4.653-5.337-5.07-2.582-2.9-1.142-1.289-.971-.442-5.361-1.306-.215-.33-.064-.59.207-3.398.207-.59.357-.386 2.263-.78 2.07-1.027 1.956-1.44.871-.278 2.064-.19.828-.426 1.313-.906.222-.387.071-.476-.043-.513-1.985-3.107-.52-.596-.736-.532-1.685-.387-1.484-.146M562.786 182.433l.957.834M530.175 193.31l1.214-1.192 2.12-1.414 4.205-1.173 1.236-.596 2.84-2.042.836-.869.628-1.274 1.064-1.477.735-.717 1.635-2.378.436-.355.585-.165 1.064.063 1.25.298 3.69 1.541 1.407.368 1.613.07 1.792-.381 1.185-.24 1.014-.045 1.17.298.56.301.332.502M486.37 213.442l-.55-.444-.57-.145-1.714-.07-1.442-.064-1.478-.253-.707-.196-.78-.357-3.41-2.32-.479-.348-2.152-1.065-.132-.19.025-.169 1.195-1.518.279-.647.607-1.738.842-1.496.729-.945 3.355-2.872 1.713-1.77 1.828-2.428 1.635-1.566 3.32-2.296 5.404-2.948 6.867-3.538 2.185-.838 1.835-.62 1.2-.724 1.048-.646.9-.375 1.071-.38 1.264-.33.442-.209.668-.54M530.175 193.31l.293-1.515.329-1.028.742-.976 1.6-.976 2.755-1.485.885-.963.714-1.725.685-1.737.586-2.27.728-3.514.457-1.077.571-.876 1.578-2.118.385-1.011.018-.957-.021-.162-.072-.121-.11-.076-.16-.006-.226.057-.4.26-.792.647-3.441 1.572-1.3.089-1.17-.05-2.527-.901-.914-.127-1.285.102-2.713.57-1.9.343-1.57.456-2.827 1.116-2.242 1.104-3.783 1.534-2.97 1.395-.71.514M485.738 213.836l.372-.245.26-.149" clip-path="url(#pc2a5493fac)" style="fill:none;stroke:#000"/><path d="m530.175 193.31-.72 1.097-.379 1.078-.293 1.49.029.685.271.755 1.935 3.646.521 1.56.293 2.93-.207 1.666-.807.895-1.4.684-1.27.4-4.155.653-1.478.101-2.634-.177-2.634-.514-2.12-.221-1.821-.185-5.419-.608-2.27-.463-1.092-.038-.978.026-2.299-.235-1.142-.222-1.17-.007-2.97.038-1.179.159-.771.279-1.928 1.129-3.212 2.472-.786.406-1.72.653M492.516 240.751l-2.72 1.44-.413.387-.8.944-.928.609-1.763.939-2.336 1.454-1.448 1.24-1.32 1.813-.55.412-.986.71-.678.628-1.32 1.402-.779.545-2.3 1.02-1.098.292-3.084.546-1.028.1-3.548-.088-.628-.089-.593-.221-2.163-1.427-.55-.273-.492-.108-2.399.051-1.05-.05-.777-.184-6.683-3.893-.55-.545-.1-.324.008-.253.292-.33 2.485-1.256 1.834-1.16.757-1.033.293-1.04-.25-1.788.214-.33.478-.197 2.42.127.586-.006 2.413-.742 1.756-.653 3.149-2.143 2.42-1.826.92-1.065.807-1.148 1.906-2.942 2.421-2.98 4.704-6.144 1.678-1.947 1.2-.95 1.22-1.212 1.475-1.709.695-.817.425-.701" clip-path="url(#pc2a5493fac)" style="fill:none;stroke:#000"/><path d="m516.49 243.04-3.113-1.597-.457-.267-1.642-1.813-.728-.266h-.528l-1.728.127-1.927.304-.771.228-1.242.938-1.486.939-1.07.228-.828-.05-2.985-.888-1.485-.419-.913-.076-.672.076-1.156.343h-.543l-.7-.096M169.588 177.274l-2.828 5.555-2.398 5.615-.015 1.829.272 1.268.728.621 1.242.09 1.07-.14 3.927-1.522 7.796-3.158 2.256-1.053 3.555-2.485 2.685-1.065 1.642-1.332.485-.203 1.785-.342.914-.571.714-.837.714-.406 3.512-.33.857-.33.642-.9.55-.336.443-.05.335.29.157.629.043 1.635v2.093l.271.723.586.774 2.17 1.306 2.042.964 1.784 1.154 1.371 1.496 1.193.71.406.318.1.469-.128.387-.328.272-3.66 1.821-1.378.682-1.902.922" clip-path="url(#pc2a5493fac)" style="fill:none;stroke:#000"/><path d="m166.875 222.294.185-.95.485-.724 1.128-1.078 3.706-3.557.507-.272 1.056-.267.486-.374.97-1.135.479-.349 1.849-.894 1.242-1.61.7-1.586.271-.38 1.014-.913 1.47-3.26.9-2.878.357-1.51.642-1.027 1.471-.989 3.827-4.464 2.513-1.813.928-.507 1.513-.394 1.592-.773.479-.045 1.785.248 3.02 1.258 1.748 1.786M119.671 178.428l1.185-.749 1.256-.786.971-.266 1-.038 6.71 3.196 4.398 1.648 2.542.584.8-.203 3.64-1.713 4.262-1.172 1.65-1.008.764-.248.992-.17 1.056-.394.964-.66.457-.152 1.164-.063 1-.457 2.355-2.372 2.342-2.74 1.013-1.267.743-.33 1.913.051 2.356 1.027 2.328 1.256 1.127 1.02.336.685.593 4.167M173.742 241.24l2.742-5.96-.057-1.471-1.057-.66-1.442-.266-1.285-.57-.7-1.193-.357-2.181-.271-.875-.757-.76-.87-.521-1.371-.976-.586-.837-.856-2.676M132.262 500.853l.552-.326.129-.412-.015-.425-1.72-4.126-.857-2.04-1.875-2.693-.067-.312.115-.18.331-.216.368-.006 1.313.516 1.471 1.065 1.313 1.305.936 1.281.57.598.986.327 1.057.039 1.182-.13.732-.41.513-.468.157-.577-.064-.488-1.285-2.402-.174-.819.074-3.01-.314-.963-1.428-1.888-.32-.817.013-.588.621-2.068 1.028-1.851 1.385-1.787 1.842-2.117 1.097-1.03 2.187-2.925 1.756-2.966 1.228-1.585 3.884-3.27.8-.926.685-1.952" clip-path="url(#pc2a5493fac)" style="fill:none;stroke:#000"/><path d="m195.581 542.57-.736-3.97 2.166-4.553-.38-.87-1.358-2.17-3.842-2.712-.14-4.48-3.01-1.932-8.149-6.125-13.15-7.522-2.686-3.905-4.723-2.631-4.908-6.7-1.343-9.784-2.361-9.454 3.056-12.086-1.55-3.465M195.581 542.57l-12.215-4.557-.386-.317-2.57-2.053-2.184-1.001-3.17-1.217-3.498-.622-1.921-.743-3.973-3.078-1.088-.741-4.812-1.28-.961-.48-2.237-2.904-1.57-1.7-3.1-2.128-.856-.47-3.071-.684-.656-.253-1.927-2.523-1.97-2.813-.229-.583-.428-1.173-.343-.64-3.184-3.917-.842-.697-2.849-1.508-2.663-1.92-.293-.514-.323-1.201M147.114 245.665l.685 1.763.207 1.383-.307 1.457-.6.939-.557 1.534-1.456 3.221-1.613 4.666-.258.299-.342.031-.507-.17-.978-2.924-2.07-1.826-3.912-1.065M147.114 245.665l-.7-.723-.629-1.179-1.113-3.195-1.485-3.741-.975-3.901M460.212 362.412l-.92.996-.164.374.264 1.603-.03.73-.52.988-.521.673-1.071 1.115-4.54 2.745-1.072.443-.905.31-1.265.109-.857.215-1.028.444-4.226 2.18-2.87 1.396-.371.392.014.368.157.456 1.17.9.486.685.186.685.072.888.043 1.318 2.843 7.609M349.42 519.393l.08-.434.306-.364 3.956-.912 5.568-1.052 2.099-.153 1.613-.228.885-.228.657-.38.243-.558.471-1.267.357-1.23.229-.659.414-.507.214-.19 1.356-1.128 2.642-1.876 2.17-1.154M349.42 519.393l.9 3.689.302 1.747 1.14 3.868.307.812 2.485 3.786 3.422 5.62.24 1.113.217 4.457.278 3.215" clip-path="url(#pc2a5493fac)" style="fill:none;stroke:#000"/><path d="m338.47 567.227 1 .38 1.084.063.97-.202 3.185-1.331 1.785-.773 1.842-.836 1.214-.786 1.113-1.167.871-1.368.729-1.711.999-3.257.614-1.952.6-1.331.785-1.128 2.827-3.283.623-.845M173.742 241.24l-1.028.482-10.251.735-1.828-.203-1.899-.127-5.597.127-1.613.647-3.213 1.826-1.2.938M253.101 171.235l-.643.217-1.371-.101-.5.228-.5 1.18-.742.291-3.712-.126-2.456-.482-2.227-.482-1.942.139-1.328.647M173.742 241.24l-.3 1.116.043.735 2.913 2.561 1.5.368 3.869.495 2.684.964.914.025 1.656-.127.685.203 2.313 1.522 3.656.913.9.076 4.14-.241 2.456.254 3.94.215 3.742-.076 4.668.127.9.241 3.027 1.166 1.442.064 1.97.254 2.07.773 1.386 1.103 1.599 1.826M179.168 346.305l.985 1.648 1.985 2.079 2.099 1.85 1.1.901.956.228.885.482 3.712 3.069 1.628 1.47 1.7 1.217 1.17 1.04 1.285 1.432 2.028 1.573 1.684 1.42.829.874.9 1.776.499 2.738.179.596.278.418.842.71 4.933 3.683.393.602.343 1.319.256.33 1.222 1.438.32.488.871 2.796.415 1.623.707 3.987.15 2.307-.037 1.674-.207 1.033-.663.957-1.443 1.077-.342.514-.293 1.553" clip-path="url(#pc2a5493fac)" style="fill:none;stroke:#000"/><path d="m207.282 395.825 1.77.57 1.485.812M242.506 213.138l1.806-.577.907-1.071.382-.644.16-.143 1.343-.532 2.513-1.7 2.97-.99.856-.81 1.628-.584 2.741-1.42 3.256-2.917 5.425-7.913.457-.914.229-1.116.856-.76 1.857-1.003 4.47-2.2M157.68 388.016l1.841-.24.7.088 1.17.444.715.1 3.013.166 2.712.076 2.585.266 2.755.342 1.27.114.686-.203 1.2-.469.77.013 4.356.203 1.47-.14.629.039.67.14 1.77.937 3.585 1.927 2.313.938 3.313.964 4.24 1.04 4.14.583 3.699.481" clip-path="url(#pc2a5493fac)" style="fill:none;stroke:#000"/><path d="m218.205 413.434.878 1.883-.115.292-.178.227-.336.02-.335-.178-3.056-5.87-.257-.71-.37-1.66-.172-.533-.828-1.28-.714-.799-.843-.773-.67-.71-1.6-2.548-1.07-2.434-1.257-2.536M217.334 501.877l1.37-.013 1.942.19 3.97.38.528-.139.457-.457 1.156-1.381.671-.292 1-.063 2.399.583 1.128.621 1.327 1.027 1.128.57 4.926 1.065 3.699 1.128 8.238 2.358 1.157.177 1.413-.025 7.182-1.141 2.113-.025 2.841.266 1.242.469.857.621.9 1.14.885 1.725.786 1.242.728.874 3.44 2.51 3.627 2.586 3.684 2.522 1.528.913 3.912 1.926.77.621.7 1.103 1.429 2.852.942 2.357.685 1.255.328 1.242.314 1.838.044 2.167.128.672.357.76 2.156 3.778.643.912 1.156.976 1.314 1.002 2.098 1.597 1.3 1.14 1.2.507.542.025 1.67-.152 1.157.215 3.284 1.66 1.856.863 3.17 1.774 6.397 4.335 5.568 4.106 2.427 1.356 1.8 1.166 3.083 1.965 4.384 1.9" clip-path="url(#pc2a5493fac)" style="fill:none;stroke:#000"/><path d="m230.462 468.723 5.076.83 2.799.825 5.74 1.939 2.727 1.052 2.47 1.534 3.855 2.598 2.242 1.99 2.813 1.61 2.612 1.128 9.91 3.651 9.908 3.6 4.755 1.737 3.241 1.064 3.356 1.484 1.085 1.241 1.442 1.61.957.95 1.528 1.04.856 1.052 1.128 3.03 1.114 1.635 2.156 2.624.985 1.33.228.85.214 2.51.2.9 1.171 1.634.957 1.8.457 1.522-.058 1.749-.057 1.571 2.17 4.918.658 1.699.085.646-.043.85-1.3 4.65-.127.787.028.583.257.62.557.356.842.481 1.757.621 1.399.127.913-.216h.814l2.428.09 1.37.164 1.771.494 1.528.71 1.913 1.521 1.485 1.825 1.056 2.053.5 1.85.571 2.32.129 1.04-.214 1.077-.086 1.09.257 1.064.443.799 1.285 1.876 1.313 1.42.543.849.271 1.178.643 1.42.885 1.242 3.97 3.65 2.07 2.56M230.462 468.723l-3.776-.336-3.798-.342-1.942-.354-3.098-.761-3.227-.811-2.399-1.18-.871-.279-5.454-.671-3.784.038-2.898-.228-1.67-.444-1.7-.583-1.87-1.078-.757-.215-1.4.025-2.613.355-5.168.812-3.37 1.217-2.77 1.61-.7.272-.749-.197-.607-.424-1.8-2.506M346.694 460.503l-5.197.482-3.541-.229-1.656-.443-2.956-1.319-2.37-1.267-1.885-.685-2.356-.824-6.168-3.055-2.456-1.178-2.085-1.458-2.127-1.94-2.013-1.813-1.842-1.356-1.985-.989-2.013-.444-6.111-.988-1.142.063-1.014.19-1.328.456-.971.013-.828-.215-.943-.52-1.07-.228-1.228-.165-2.485-.076-5.097.24-2.498-.024-4.527.684-1.785.178-5.496.076-2.328.392-2.927 1.243-4.94 2.218-4.34 2.028-1.514.318-1.271-.064-.871-.114-.386.114-.442.38-.95.983-1.185.925-1.22.526-1.814.735-.485.476-.293.71-.229 1.26-.364.78-.542.59-.9.767-1.113.742-1.014.36-1.45.013-1.391-.323-.757-.33-.271-.05-.529.038-.7.583-.97 1.027-1.085.976-.229.266v.342l.4 1.167.143.798-.057.672-1.2 2.979-.342.469-1.172.551-.192.19-.129.317M630.275 201.856l-2.194-.461-1.235-.089-.735-.013-4.091-.875-5.497-1.382-1.457-.24-1.099.024-4.483.508-1.914.367-.642.28-1.785 1.103-1.1.558-3.64 1.395-4.726 1.63-1.714.266-1.106.254-.893.361-.7.583-2.64 2.397-2.985 1.928-.428.469-.143.482v.76l.7 8.345-.222 1.534-.235.717-.628.647-1.835 1.046-4.855 2.365-3.284 1.484M563.33 340.067l-1.243-1.059-.807-.85-2.62-3.27-.028-.317.136-.425 1.698-1.87 1.257-1.795.985-1.572.686-1.357.707-2.016.485-.678 1.485-1.236 1.242-.837 1.642-1.033 1.085-.799.5-.723.95-1.338 2.298-3.923 1.214-1.744.928-1.128 1.078-1.122.35-.45.563-.755.707-.539 2.17-.888 3.213-2.092 3.227-2.447.814-.976.314-1.002.407-1.845.707-1.357 1.114-1.344.578-.336.485-.088 2.27.26 3.948 1.103 1.6.437.963.742.493.159.571.044M482.372 314.468l-1.163-.99-.664-.329-.736-.127-.578-.025-.528.07-.828.355M520.623 344.999l8.24.215 9.001.14 5.833-.032 3.39.006.786-.095 1.32-.292 5.812-2.06 4.662-1.426 3.662-1.388M355.146 349.115l-.354.192M354.792 349.307l1.141 1.683 2.423 3.612 1.164 1.889M353.37 346.71l.302.64 1.12 1.957M348.284 345.25l3.5.586.632.193.457.276.496.405" clip-path="url(#pc2a5493fac)" style="fill:none;stroke:#000"/><path d="m605.357 139.175-.657 7.255.186.85.657 1.027 1.156 1.28.914 1.408.528 1.497.4 1.763.657 1.217 1.414 2.613.985 1.167 1.5 1.18 1.255 1.217 2.128 1.535 4.855 2.637 7.438 5.758 1.078 3.152-.1.818-.214.735-1.3 1.408-.213.584-.129.856-.142.85-.836 1.699-.478 1.23-.992 1.357-.157.5.014 2.98.085.534.25.513 1.342 1.675.85 1.141.314.323 1.935.786.742.305.785.551.479.705.193.843.035 1.09-.164.787-1.213 2.403-.465 1.116-.197 1.336M359.411 366.98l-.419-.021M344.024 510.128l-.3.9-.157.85-.157.557-.486.596-.356.545-.058.38.343.47 1.114.557 1.442.532.985.52.67.76 2.357 2.598M601.115 453.556l-.493-.511-.757-1.357-.4-1.014-.086-1.09-.014-1.23.357-1.585 1.442-3.625.928-2.637 1.4-5.21 1.984-6.338M631.729 433.78l.9.153.656-.013.214-.253-.042-.431-.3-.71-.529-.964-.713-.773-1.071-.507-.885-.14-2.628.19-1.599-.088-1.328-.393-1.413-.722-1.956-1.23-2.3-.811-2.412-.736-.6-.076-.828.051-1.6.482-1.655.469-.843.152-2.513.038-.728.14-.685.367-1.395.984M359.088 399.794l1.974.87M590.715 514.3l-1.242-.458-.921-.152-.65.07-.707.17-.385.166-.093.177.164.26.436.183 1.078.248.407.266.328.279.514.9.686 1.42-.015.196-.214.133-.464.044-.728-.038-.643.089-.814.146-.485.202-.157.229v.26l.2.272.364.279.15.234.357.774 2.384 4.15M606.507 554.046l.906.659.357.596.471 1.229.257.469.829.913.17.481.058.596-.385 2.547-.414 1.318-.1.52.142.646.343 1.433v.735l-.214.874-1.585 3.739-1.485 3.751-.586 1.711-.37 1.8-.664 2.845M608.356 587.049l-.7-.216-.593-.044-.85.05-.485.146-.45.133-.292-.07-.25-.259-.086-.253.029-.28.2-.614.143-.564-.05-.621-.464-1.964-.271-1.585M371.67 405.265l.3-.068.243-.123M365.715 402.345l-1.978-1.014-2.46-1.05M361.062 400.664l.216-.383M357.322 387.851l.01-.818M357.322 387.851h-.468M357.322 387.851l-.023 1.99M356.854 387.851v2.016M356.854 387.851v-.815M357.273 392.073l.026-2.231M357.273 392.073l-.42-.01M356.853 392.063v-2.196M357.299 389.842l-.446.025M357.332 387.033l-.478.003M576.763 479.112l-.433-1.54-.343-1.579-.178-1.11-.144-.767" clip-path="url(#pc2a5493fac)" style="fill:none;stroke:#000"/></g><g id="PatchCollection_1"><path d="M364.07 352.251v-.466l-.377-.247.575-.947.573-.306.197-.306.722-.174.18.407.033.83-.147 1.5-1.067-.29zM575.441 501.007l2.523-1.154-.2 2.147z" clip-path="url(#pc2a5493fac)" style="fill:green;fill-opacity:.8"/></g><g id="PatchCollection_2"><path d="m587.076 502.427-.888 2.496-5.054-1.418.89-2.496zM579.185 502.884l-.955-.263.392-1.122.956.264zM376.75 374.767l2.12 2.071 3.76-3.035-2.12-2.07z" clip-path="url(#pc2a5493fac)" style="fill:#90ee90;fill-opacity:.8"/></g><path id="PatchCollection_3" d="m371.19 383.35.113 1.188 2.412-.267-.057-1.255z" clip-path="url(#pc2a5493fac)" style="fill:#006400;fill-opacity:.8"/><g id="PatchCollection_4"><path d="m370.23 385.676 2.223 1.94.527-.434.245-.62-2.11-1.706zM371.19 383.35l.113 1.188 2.412-.267-.057-1.255zM361.9 357.05l-.076 1.197-1.384-.1.037-1.155zM584.676 480.48l.012-.366.612.017-.018.515-.43-.012.004-.148zM585.214 481.61l.029-.315.49.035-.039.439-.299-.022.012-.123zM585.532 482.476l-.304-.08.115-.336.303.08zM584.79 483.586l-.425-.243.271-.374.425.243zM583.797 484.74l-.404-.236.3-.406.404.236zM582.277 486.616l.481-.663.377.215-.418.576-.169-.096-.063.087zM582.287 492.291l-.521-.276.345-.514.521.276zM580.196 492.487l-.14-.342.38-.123.141.342zM580.774 492.703l-.364-.808.393-.14.364.808zM579.064 493.051l-.161-.452.82-.231.162.452zM578.115 493.34l-.21-.595.8-.221.21.594zM577.408 493.562l-.24-.584.66-.213.24.583zM576.615 493.85l-.218-.564.638-.194.218.564zM577.557 492.104l-.542-.158.165-.445.542.159zM578.429 489.765l.304.096-.15.374-.304-.096zM578.164 490.602l-.52-.159.154-.4.521.158zM579.043 490.234l.078-.228.204.056-.078.227zM578.83 488.835l.17-.413.336.109-.169.413z" clip-path="url(#pc2a5493fac)" style="fill:#a9a9a9;fill-opacity:.8"/><path d="m578.779 488.96-.543-.175.222-.54.542.177zM579.057 488.212l-.454-.156.215-.488.453.157zM580.756 488.574l.178-.286.236.116-.18.286zM580.403 488.173l-.121.21-.318-.145.12-.21z" clip-path="url(#pc2a5493fac)" style="fill:#a9a9a9;fill-opacity:.8"/><path d="m580.627 488.276-.542-.247.333-.576.543.247zM579.656 486.926l-.513-.19.212-.452.514.19zM579.778 486.381l-.428-.146.136-.316.429.146zM580.649 485.88l-.3-.165.135-.193.3.165zM581.406 484.454l-.2-.17.155-.143.2.17zM580.648 485.376l-.617-.392.32-.398.425.268.234-.29.192.122zM581.69 483.947l-.2-.154.392-.406.202.155zM582.484 483.516l-.193-.134.236-.266.192.134zM581.52 483.218l-.857-.26.185-.479.856.26zM581.063 482.236l.186-.453.47.152-.185.453zM582.19 480.904l.207-.497.56.184-.284.683-.561-.184z" clip-path="url(#pc2a5493fac)" style="fill:#a9a9a9;fill-opacity:.8"/><path d="m582.19 480.904-.814-.267.208-.497.813.267zM583.205 480.57l.102-.459.542.096-.102.457zM585.76 479.054l-.178-.52.545-.147.178.52zM575.087 479.897l-.396-.108.178-.514.397.109zM579.185 482.059l.143-.425.42.111-.143.425zM579.007 482.14l-.421-.107.139-.428.42.107zM579.078 481.228l-.229-.063.13-.367.228.062zM576.226 482.651l.179-.482.402.118-.178.482zM573.153 481.776l.232-.472.468.182-.232.472zM572.781 481.767l-.62-.301.255-.415.62.3zM578.2 484.67l.134-.437.46.11-.133.437z" clip-path="url(#pc2a5493fac)" style="fill:#a9a9a9;fill-opacity:.8"/><path d="m577.686 484.546.133-.436.515.123-.134.437zM578.446 485.212l-.453-.156.14-.32.452.156zM577.657 486.935l-.412-.181.157-.282-.189-.083.148-.267.602.265zM575.832 486.497l.291-.798.479.138-.067.184.263.076-.104.287-.271-.078-.12.326zM574.968 486.322l.256-.55-.354-.13-.106.228-.345-.127-.194.416.403.148.044-.094zM573.154 485.45l.377-.652.641.293-.328.567-.314-.142-.049.083zM573.224 484.816l-.257-.105.115-.222.257.105zM576.858 488.83l.182-.047.148-.106.092-.148.02-.168-.053-.161-.119-.132-.167-.081-.189-.018-.182.047-.148.106-.092.148-.02.167.053.162.12.132.166.081zM573.927 489.835l.6.155-.207.632-.6-.155zM573.97 489.775l.429-1.48.642.146-.429 1.48zM574.591 488.032l.077-.394.968.149-.078.394zM573.128 487.389l.126-.381.607.158-.126.38zM572.246 487.35l.187-.493.69.206-.188.493zM571.918 488.06l-.157-.19.228-.148.157.19zM572.346 490.288l-.386-.27.159-.178.386.27zM573.506 492.05l.122-.583.445.073-.121.583zM573.86 492.332l-.493-.095.028-.116.493.095zM574.495 492.468l-.425-.11.047-.143.425.112zM574.188 492.177l.193-.637.492.117-.192.637zM574.652 492.97l.614.145-.066.219-.614-.146zM574.538 493.71l.122-.42.639.145-.122.421zM573.053 493.32l.144-.546.703.146-.144.546zM572.15 495.64l.133-.293.443.158-.134.294zM573.153 496.4l-.335-.106.157-.39.335.107zM574.152 496.062l.043-.18.418.08-.043.179zM573.52 495.691l.129-.404.796.2-.128.404zM577.847 494.626l.578-.158.162.467-.578.158zM579.214 495.837l-.093-.396.467-.086.092.396zM582.24 493.964l-.293-.422.504-.276.293.422zM581.356 494.461l-.485-.164.2-.465.485.164zM580.444 495.367l.006-.38.5.007-.006.38z" clip-path="url(#pc2a5493fac)" style="fill:#a9a9a9;fill-opacity:.8"/><path d="m580.438 495.735.006-.368.5.006-.006.369zM581.441 495.266l.025-.294.435.03-.024.293zM583.101 494.104l.218.469-.513.187-.218-.469zM582.894 495.669l-.385-.488.47-.293.386.488zM581.463 496.882l-.171-.383.549-.194.171.384zM576.958 499.028l-.186-.473.467-.144.185.472zM575.625 499.018l-.039-.15-.157.032-.061-.233.588-.12.1.383zM575.462 499.617l-.154-.433.782-.22.154.435zM574.584 500.121l-.232-.46.585-.232.232.46zM573.342 499.297l.707-.304.229.42-.707.303zM573.649 499.079l-.126-.256.4-.156.126.256zM572.396 498.914l.185-.377.72.28-.184.376zM571.379 498.185l.216-.442.525.203-.216.442zM571.168 494.341l.357.19-.417.617-.357-.19zM570.704 494.17l.386-.431.348.246-.385.431zM570.49 494.018l-.343-.33.153-.124.342.33zM569.919 492.605l.108-.336.628.158-.108.336zM568.463 493.765l.056-.482.427.04-.057.481zM568.434 495.095l-.443-.279.232-.29.443.28zM567.749 491.958l.692-.203.156.419-.693.203zM568.598 491.876l-.26-.365.485-.272.26.364zM566.3 491.603l-.45-.171.157-.326.45.171zM567.156 487.477l.076-.217.507.14-.076.217zM565.336 490.874l-.622-.703.274-.19.621.703zM560.439 490.135l.036-.365.485.038-.036.365zM584.725 493.974l-.107-.419.297-.06.107.419zM584.218 493.473l-.192-.533.451-.128.193.532zM584.932 494.893l-.125-.452.493-.108.125.452zM585.54 494.785l.406-.14.12.277-.407.14zM585.29 495.799l-.23-.425.682-.289.229.425zM587.124 495.596l-.15-.215.266-.147.15.216zM587.766 495.957l-.356-.437.241-.155.357.437zM586.87 496.602l-.79-.774.21-.168.423.415.302-.242.365.358zM586.382 496.994l.487-.392.254.248-.488.392z" clip-path="url(#pc2a5493fac)" style="fill:#a9a9a9;fill-opacity:.8"/><path d="m586.382 496.994-.79-.774.488-.392.79.774zM587.285 497.067l-.176-.178.303-.237.176.177z" clip-path="url(#pc2a5493fac)" style="fill:#a9a9a9;fill-opacity:.8"/><path d="m587.312 497.809-.537-.548.37-.286.25.254.113-.088.288.293zM588.88 497.713l-.128-.19.205-.11.128.19zM588.452 497.44l-.286-.298.192-.145.286.298zM587.83 498.55l-.335-.412.383-.246.336.412zM591.307 499.969l-.135-.64.418-.07.136.64zM589.673 499.817l-.129-1.02.593-.06.129 1.021zM591.029 499.152l-.478-1.186.653-.207.478 1.185zM581.791 498.543l-.108-.309.507-.139.108.309zM582.212 497.643l.893-.349.343.692-.893.35zM584.004 497.523l-.171-.476.467-.133.171.476zM584.532 497.18l-.12-.355.43-.116.121.355zM585.882 498.46l-.529-.304.255-.348.528.304zM586.456 500.023l-.232-.225.29-.236.233.225zM587.37 500.042l-.705-.64.282-.244.21.192.17-.147.28.256-.165.144.019.017.259-.225.193.175zM587.652 500.374l.522-.43.3.286-.522.43zM580.501 499.076l.107-.282.256.077-.152.398-.256-.076z" clip-path="url(#pc2a5493fac)" style="fill:#a9a9a9;fill-opacity:.8"/><path d="m580.039 498.623.57.171-.108.282-.57-.17zM579.121 499.81l.112-.467.671.127-.111.467zM581.341 499.792l-.514-.127.14-.445.514.127zM582.031 499.796l.186-.495.753.222-.184.49-.186-.055-.032.086-.393-.116.03-.08zM583.897 499.813l.073-.21 1.243.338-.073.21z" clip-path="url(#pc2a5493fac)" style="fill:#a9a9a9;fill-opacity:.8"/><path d="m583.471 499.85.12-.35.38.103-.121.35zM583.005 500.02l.214-.621.372.1-.214.622zM583.369 500.767l-.343-.088.092-.277.342.088zM583.79 500.596l.159-.48 1.192.31-.159.48zM585.11 501.065l.243-.842.6.135-.242.844zM586.738 501.37l-.627-.131.193-.729.627.13zM587.117 501.566l-.186-.558.473-.124.186.558zM588.623 501.243l-.383-.347.385-.336.384.347zM580.056 501.566l.153-.485.714.178-.153.485zM579.714 502.415l.949.197-.18.687-.95-.197zM584.497 504.576l.55.12-.084.299-.55-.12zM578.414 505.204l-.8-.228.175-.482.8.227zM579.585 505.844l-.592-.196.17-.407.593.196zM580.392 505.73l-.571-.19.193-.458.571.19zM582.048 506.515l-.585-.196.178-.417.585.196zM582.505 506.648l.2-.563.449.125-.2.564zM583.143 506.554l.18-.412.643.222-.18.412zM583.619 507.156l-.643-.222.167-.38.642.222zM586.103 507.986l-.433-.264.393-.507.433.264zM586.76 508.195l-.473-.275.314-.425.473.276zM570.897 499.798l.32-.66.55.211-.322.66zM570.583 499.19l-.693-.248.204-.45.693.247zM569.605 498.942l-.359-.137.186-.381.358.138zM568.934 498.581l-.264-.114.116-.213.264.114zM564.03 494.962l-.615-.152.13-.414.614.152zM562.366 494.088l-.529-.21.189-.374.528.209zM561.495 493.62l-.5-.088.088-.39.5.089zM563.793 492.459l-.342-.393.383-.264.343.393zM557.132 489.88l.021-.353 1.385.063-.02.353zM574.273 459.362l-.378-2.396.72-.09.378 2.397zM572.717 459.584l-.692-4.71.742-.086.693 4.71zM574.96 462.67l-.194-.817.613-.114.192.818zM577.315 461.91l-.114-.507.36-.064.115.507zM577.504 462.262l-.068-.323.241-.04.068.323zM588.302 475.397l.257.45-.25.113-.257-.45zM587.01 472.856l-.422-.197.115-.194.422.196zM584.233 471.138l-.571-.298.28-.424.571.298zM586.096 472.925l-1.65-1.103.339-.398 1.649 1.103zM588.338 473.965l-1.278-.621.268-.435 1.277.622zM588.794 474.675l-.27-.685.48-.15.271.685zM590.33 477.964l-.679-3.124.696-.12.678 3.125zM601.321 504.967l.148.265-.442.194-.068-.123-1.468.643-.468-.843 1.482-.648-.095-.17.4-.175.2.357.168-.074.284.512zM599.196 507.32l-1.135-.443.269-.542 1.135.444zM601.923 507.264l.579-.133.076.263-.578.133zM601.288 509.165l-.114-.513.522-.092.114.513zM606.121 510.331l-.203-.262.482-.295.203.262zM598.811 511.12l-.31-.62 1.339-.527-.21-.419.386-.15.519 1.038zM600.817 513.145l-1.029-1.825 1.348-.599 1.029 1.826zM597.513 513.472l-.695.273-.47-.942.695-.273z" clip-path="url(#pc2a5493fac)" style="fill:#a9a9a9;fill-opacity:.8"/><path d="m598.657 513.493-.429.168-.664-1.335-.52.204.682 1.371-.434.17-.103-.205-.263.103.102.204-.535.21.193.389 2.182-.856zM599.29 514.46l-.193-.381.493-.197.193.38zM598.726 513.521l.592-.24.225.436-.592.24zM598.726 513.521l-.192-.372.592-.24.192.371zM598.461 512.944l-.235-.608.552-.168.235.608zM596.197 508.922l-.562.238-.553-1.027.562-.238zM595.743 507.533l-.33.14-.126-.236.33-.14z" clip-path="url(#pc2a5493fac)" style="fill:#a9a9a9;fill-opacity:.8"/><path d="m595.743 507.533-.127-.236.386-.163.127.236z" clip-path="url(#pc2a5493fac)" style="fill:#a9a9a9;fill-opacity:.8"/><path d="m596.345 507.278.848 1.574-.84.356-.849-1.573zM597.054 510.42l-.301-.522.528-.24.302.52zM596.58 510.947l-.173-.286.321-.153.173.286z" clip-path="url(#pc2a5493fac)" style="fill:#a9a9a9;fill-opacity:.8"/><path d="m596.783 511.503-.307-.506.508-.243.306.508zM596.112 511.744l-.378-.747.49-.196.379.748zM595.291 512.08l-.257-.551.569-.209.257.551zM594.392 512.353l-.343-.647.52-.217.342.647zM593.628 512.631l-.336-.71.487-.18.336.71zM593.033 511.846l.503.879-.467.21-.338-.589.14-.063-.166-.289zM592.621 511.878l-.171-.286.318-.15.171.285zM594.62 509.59l.348-.168.13.211-.347.168z" clip-path="url(#pc2a5493fac)" style="fill:#a9a9a9;fill-opacity:.8"/><path d="m594.486 509.655-.268-.436.38-.183.267.436zM594.406 507.714l.321.576-.53.233-.321-.577zM594.285 509.533l-.196.082-.15-.279.196-.082zM593.59 509.061l-.131-.229.313-.143.178.308-.314.143z" clip-path="url(#pc2a5493fac)" style="fill:#a9a9a9;fill-opacity:.8"/><path d="m592.952 509.24-.342-.592.588-.267.393.68-.317.144-.05-.089zM591.415 509.398l.615-.24.302.614-.324.126-.077-.155-.29.113zM590.68 510.249l-.407-.799.496-.199.406.799zM589.568 508.819l-.405-.768.683-.284.404.767-.11.046.08.15-.44.184-.08-.15zM590.704 507.355l-.094-.26.242-.07.095.26zM590.44 507.545l-.178-.253.184-.103.178.254zM591.29 507.982l-.272-.488.5-.218.271.487zM592.875 507.292l-.393-.837.568-.21.393.836zM593.96 507.234l-.221-.526.445-.147.22.526zM594.788 506.646l-.451-1.109.38-.122.155.38.317-.102.297.73zM596.044 504.092l.246-.538.563.203-.246.539zM596.607 504.296l-.593 1.293-.563-.204.593-1.293zM595.476 503.655l-.335-.133.094-.187.335.133zM595.955 503.928l-.346-.145.357-.671.345.144zM597.7 503.013l-.528-.273.334-.51.528.272zM597.7 502.138l.128-.263.364.14-.128.263zM596.09 499.547l-.07-.297.26-.05.072.298zM598.49 500.467l-.108-.508.522-.087.108.507zM598.111 498.077l-.221-.372.54-.254.222.373zM598.51 498.749l-.399-.672.541-.253.4.671zM599.956 496.788l-.452-.165.164-.354-.437-.16.312-.674.329.12-.131.283.387.142-.057.122.174.064zM601.438 495.466l-.51-.246.313-.513.51.246zM602.316 492.747l.269-.36.442.26-.269.36zM602.195 493.134l-1.2-.083.03-.337 1.199.083zM600.866 499.674l.308-.551.517.227-.307.551zM600.431 500.796l.188-.41.579.21-.188.41zM600.596 501.994l-.665-.28.2-.376.665.28zM599.812 501.89l.599.291-.306.497-.468-.228.186-.3-.13-.064zM603.13 503.078l-.257-.412.355-.175.257.412zM608.848 492.522l-.176-.115.357-.431.176.115zM612.275 491.958l-.807-.272.128-.299.807.273zM614.48 485.779l-.587-.113.164-.677.588.112zM614.46 484.29l.114-.546.495.082-.114.545zM616.037 485.468l.022-.33.208.011-.022.33zM616.08 481.6l-.018-.312.287-.012.018.31zM615.816 482.138l-.032-.504.377-.02.032.505zM611.749 472.41l.721.158-.165.592-.484-.106.096-.346-.237-.052zM633.468 518.893l-.175-.497.55-.153-.043-.118.517-.144.045.126.778-.216.173.488zM623.12 525.23l-.38-.323.183-.168.378.323zM622.07 524.654l.464-.355.175.18-.464.355zM621.513 525.148l-.484-.272.357-.5.484.272zM618.593 525.82l-.254-.393.62-.317.255.393zM619.393 527.449l-.428-.133.117-.299.428.133zM613.314 527.979l.591.228-.292.597-.447-.173.116-.236-.145-.056zM612.618 530.268l.414-.74.328.144-.414.741zM611.522 526.508l-.548-.252.268-.46.547.252zM610.544 527.658l.018-.431.446.014-.017.431zM610.75 528.43l-.274-.075.17-.491.276.075zM606.146 526.593l-.178-.545.521-.135.179.546zM608.655 539.66l-.157-.393.417-.13.157.392zM609.227 540.94l-.13-.506.548-.11.128.507zM583.976 512.714l-.248-.035.092-.515.248.036z" clip-path="url(#pc2a5493fac)" style="fill:#a9a9a9;fill-opacity:.8"/><path d="m585.275 512.897-1.3-.183.093-.514 1.3.183zM585.49 512.137l.941.032-.02.485-.943-.032zM586.617 512.72l-.006-.496 1.414-.012.005.495zM584.911 509.127l.22-.483.65.234-.22.483zM583.904 509.095l.364-.982.724.211-.364.982zM581.955 507.353l2.149.702-.285.687-1.879-.615.078-.189-.27-.088zM581.353 507.794l-.13.315-.368-.12.129-.315z" clip-path="url(#pc2a5493fac)" style="fill:#a9a9a9;fill-opacity:.8"/><path d="m581.213 507.118.607.196-.23.557-.606-.197zM580.092 507.745l.278-.653.658.221-.278.654zM580.634 508.519l.593.196-.174.414-.593-.196zM580.042 510.8l.236-.475.46.18-.236.474zM577.762 510.131l.414-.936.777.272-.285.643-.232-.081-.13.293zM577.657 510.179l-.713-.266.182-.387.715.266zM579.384 506.554l.793.233-.28.752-.403-.118.058-.155-.39-.114zM578.414 506.966l.224-.544.664.215-.224.544zM577.808 506.782l.306-.647.481.18-.306.647zM576.743 507.441l.63-1.509.583.192-.63 1.509zM576.045 507.433l.103-.246.39.13-.104.244z" clip-path="url(#pc2a5493fac)" style="fill:#a9a9a9;fill-opacity:.8"/><path d="m576.253 506.939-.24.569-.415-.138.239-.57zM575.837 506.8l.28-.666.536.178-.28.667zM575.351 508.772l.094-.185.39.155-.094.185z" clip-path="url(#pc2a5493fac)" style="fill:#a9a9a9;fill-opacity:.8"/><path d="m575.102 509.266.25-.494.39.155-.251.494zM574.96 509.095l-.45-.164.174-.377.45.164zM575.445 504.19l.32-.748.591.2-.321.748zM574.588 503.93l.2-.517.52.158-.2.517zM573.845 503.765l.315-.773.481.154-.314.774zM573.174 503.493l.2-.482.368.12-.2.482zM571.297 502.941l.235-.481.43.166-.235.481zM570.34 502.682l.293-.786.394.115-.293.786zM566.963 502.948v-.52h.35v.52zM566.528 502.326l-.014-.329.29-.01.015.33zM566.15 503.24l-.03-.552.656-.027.028.551zM565.307 503.264l-.021-.754.57-.013.003.115.155.089.028.31-.168.109.004.132zM562.034 503.892l-.022-.612.466-.012.02.611zM561.196 503.387l.757-.014.01.397-.157.003.002.064-.396.008-.003-.136-.205.004zM560.549 503.59l-.004-.601.52-.002.004.602zM560.585 502.244l.713.013-.01.455-.714-.013zM560.627 502.19l-.005-.462.7-.007.005.463zM559.218 502.12l.003-.407.414.003-.004.408zM552.157 497.46l-1.078-.983.346-.3 1.078.983zM555.926 497.776l.079-.21.25.026.071-.361-.964-.273-.043.114-1.499-.513-.164.241-.25-.14.128-.265-.628-.266-.778-.577-.357.456.957.716.514.197zM553.906 497.928l.021-.589.564.016-.022.59zM554.206 498.638l.04-.547.757.044-.04.548zM552.999 499.405l-.028-.57.418-.017.029.57zM552.239 500.162l-.002-.212.439-.004.002.213zM538.814 498.118l-.049-.297.585-.076.049.297zM536.186 496.711l.006-.145.635.02-.005.145zM536.208 498.239l.021-.397.443.018-.021.398zM534.216 498.214l-.107-.66.546-.07.107.66zM533.23 498.118l-.027-.367.274-.017.029.367zM532.253 498.391l-.05-.427.764-.07.05.427zM531.64 498.816l-.03-.306.592-.044.03.305zM521.416 504.85l-1.35-.622.193-.33 1.35.621zM544.104 501.059l.06-.24.73.146-.062.24zM546.531 501.306l.172-.52.585.153-.171.52zM548.609 502.754l.003-.304.283.003-.004.304zM547.509 502.558l-.05-.33.356-.042.05.33zM547.134 503.965l-.298-.263.464-.415.298.263zM546.199 504.177l.072-.23.46.114-.072.23zM555.426 503.787l-.016-.138.2-.019.016.139zM555.712 503.784l-.193-.475.162-.051.192.475zM554.45 503.625l-.079-.232.322-.086.08.232z" clip-path="url(#pc2a5493fac)" style="fill:#a9a9a9;fill-opacity:.8"/><path d="m553.635 504.304-.265-.773.96-.259.264.773zM552.992 504.38l-.15-.45.374-.098.15.45zM555.54 504.874l-.22-.124.3-.419.22.125zM559.225 505.147l-.4-.24.226-.298.4.241zM560.488 505.286l.18-.502.585.165-.18.502zM561.866 505.578l-.621-.165.147-.438.621.165zM562.766 505.597l-.037-.47.72-.045.037.47zM563.78 504.804l.899.032-.019.415-.9-.032zM564.886 505.413l.012-.525.678.012-.012.526zM564.514 506.478l-.42-.077.068-.3.421.075zM565.5 506.586l-.629-.144.15-.52.629.144zM564.907 507.948l.006-.43.62.006-.005.43zM566.685 504.488l.436-.28.408.503-.436.28zM566.885 505.666l-.593-.183.231-.587.593.184zM566.414 506.098l.167-.42.543.171-.168.42zM571.054 505.065l.209-.521.314.099.07-.177.374.119-.07.176.533.169-.208.521-.366-.115-.09.228-.516-.162.092-.23z" clip-path="url(#pc2a5493fac)" style="fill:#a9a9a9;fill-opacity:.8"/><path d="m571.054 505.065-1.423-.448.295-.738.68.214-.087.216.744.235zM570.883 505.882l-.252-.092.256-.557.253.092zM572.453 506.06l.346-.99 1.15.317-.346.99zM570.247 506.82l.203-.34.433.202-.204.34zM569.32 506.63l1.298.443-.24.553-1.298-.443zM562.937 510.166l-.014-.494.485-.011.014.494zM564.222 512.562l-.04-.338.415-.038.039.338zM573.474 510.573l.218-.554.553.17-.09.23.282.087-.127.325zM576.322 511.357l-.5-.202.292-.57.501.202zM577.015 511.599l-.528-.153.163-.447.528.152zM577.165 511.826l.271-.532.462.185-.272.533zM578.672 512.099l.192-.427.5.177-.193.428zM580 512.372l-.515-.165.141-.347.514.165zM584.261 513.465l.06-.345.328.044-.06.345zM588.93 516.447l-.635-.267.19-.358.636.266zM590.8 517.06l-.191-.216.155-.108.191.215zM591.23 518.145l-.95-1.07.329-.23.95 1.07zM591.686 519.482l-.514-.412.278-.273.513.412zM588.245 519.09l-.165-.178.407-.298.165.177zM588.502 520.661l.121-.26.415.151-.122.261zM588.68 520.192l-.556-.317.21-.291.557.316zM586.41 519.951l.148-.47.743.183-.148.471zM591.05 525.795l-.764-1.775.49-.166.763 1.775zM598.115 522.632l-.571-.51.172-.152.57.51zM598.604 523.088l-.34-.3.322-.286.34.301zM606.685 534.451l-.7.102-.065-.289.121-.022-.141-.386.457-.058.148.44zM606.273 536.259l-.168-.406.126-.04-.071-.173.258-.084.072.174.12-.04.167.404zM605.443 536.878l-.685-.494.287-.313.685.494zM582.47 512.967l.37.088-.128.43-.371-.087zM580.27 512.169l.514.089-.093.427-.514-.089z" clip-path="url(#pc2a5493fac)" style="fill:#a9a9a9;fill-opacity:.8"/></g></g></g><defs><clipPath id="pc2a5493fac"><path d="M90 108.835h558v509.529H90z"/></clipPath></defs></svg>