<svg xmlns="http://www.w3.org/2000/svg" xmlns:xlink="http://www.w3.org/1999/xlink" width="960" height="960" viewBox="0 0 720 720"><defs><style>*{stroke-linejoin:round;stroke-linecap:butt}</style></defs><g id="figure_1"><path id="patch_1" d="M0 720h720V0H0z" style="fill:#fff"/><g id="axes_1"><path id="patch_2" d="M104.466 640.8h529.068V86.4H104.466z" style="fill:#fff"/><g id="LineCollection_1"><path d="m507.575 331.297 6.416-8.69 3.58-4.074 3.122-2.247 4.542-1.988 25.117-5.844 3.526-1.244 11.592-5.552 2.957-1.089 3.291-.274 7.486.184 3.823-.408 3.662-1.068 3.212-1.592 9.23-6.97 2.866-1.428 2.858-.629 3.226-.033 3.693.59 3.3 1.233 5.757 1.786 2.412.517M576.227 194.552l-1.066 8.855 5.094 11.808 1.896 3.634 4.383 1.135 2.962.681 1.895 4.996 6.16 11.808 3.791 5.336 2.015 2.158 4.738 4.087 2.606 3.86 3.91 5.109.948 5.223 6.497 15.76 1.014 3.261.29 1.886-.117 8.328M439.907 411.096l3.42-1.563 1.425-.715 2.18-1.253 1.827-1.125 2.641-1.985 1.585-1.26M480.248 368.32l-7.712 10.346-10.203 13.658-5.743 7.31-1.434 1.52-2.171 2.04M498.056 469.024l1.342-1.285 2.147-3.76.301-1.157.805-2.185-.033-1.67 1.106-1.865.604-.578.503-.257 1.476-.322.402-.257 1.61-2.12 3.857-4.114 1.509-2.057.536-.418 2.449-1.285.972-.675 1.04-.996.301-.418.101-.803-.369-.707-.47-.321-1.743-.675-1.51-.257-8.35-.9h-3.152l-2.817-.643-4.092-1.286-.268-.192-.436-.675-.134-1.092.1-.74.202-.546.637-1.221v-1.736l-.805-1.574-2.046-1.864-1.945-.546-15.863-2.346-3.689-.707-3.857-.9-3.152-.996-1.006-.482-.973-.643-2.917-1.607-.94-.867-.401-.772-.403-1.735-.403-.964-3.118-5.913-1.241-5.27-.37-.836-.568-.595M387.803 352.929l-6.613 4.697M387.803 352.929l7.932-5.652M387.803 352.929l1.09 1.387M387.803 352.929l-2.535-3.272M333.18 312.871l3.465-1.909M333.18 312.871l-4.965 2.919M333.18 312.871l2.782 3.738M333.18 312.871l-1.682-2.444M384.719 362.11l1.378 2.052M384.719 362.11l-2.287-3.021M384.719 362.11l-4.186 3.17M384.719 362.11l4.425-3.15M400.71 333.876l-1.917 1.182M404.09 338.544l-2.499-3.64-.88-1.028" clip-path="url(#p800d05fcae)" style="fill:none;stroke:#000"/><path d="m396.351 331.85.998-.04.629.13.737.288 1.996 1.648M366.777 354.228l1.92 2.426M366.777 354.228l-.452-.41M364.718 359.529l.336-1.743.428-1.262 1.295-2.296M339.26 309.693l3.317-1.718M339.26 309.693l-2.615 1.27M344.873 318.064l-1.23-2.017-1.494-2.394-2.888-3.96M335.316 308.555l-3.818 1.872M335.316 308.555l1.33 2.407M335.316 308.555l-1.28-2.582M387.473 332.775l-9.561 6.879M387.473 332.775l3.563.193M376.372 337.105l3.865-2.161 4.343-2.177.503-.105.512-.032 1.878.145M364.718 359.529l3.979-2.875M365.165 364.032l-.97-1.336.523-3.167M367.557 367.163l-2.392-3.131M367.557 367.163l-2.362 1.3M373.759 362.92l-3.54 2.618-2.662 1.625M408.407 398.751l-4.834 3.106M408.407 398.751l-.436-2.361M408.73 401.327l-.012-.856-.085-.651-.226-1.069M439.907 411.096l-.365-.36M418.912 420.451l2.163-.965 6.57-2.992 12.262-5.398M411.065 413.405l9.11-6.313M411.065 413.405l1.543 2.426M411.065 413.405l-1.744-2.69M386.097 364.162l1.568 1.795M383.655 366.695l.439-.513.83-.884 1.173-1.136M432.595 410.521l1.015 1.408M432.595 410.521l-1.19-1.261M432.595 410.521l4.192-2.756M382.868 346.291l-6.685 5.03M382.868 346.291l7.66-5.624M382.868 346.291l2.4 3.366M382.868 346.291l-1.701-2.207M358.88 339.18l7.047 8.47M358.88 339.18l-4.444-5.801M358.88 339.18l3.538-2.668M358.88 339.18l-3.198 2.47M376.372 337.105l1.54 2.549M376.372 337.105l-1.358 1.462M373.983 330.654l.352 1.43.587 1.51 1.45 3.511M377.592 367.377l2.941-2.098M377.592 367.377l1.777 1.65M374.776 364.199l1.496 1.798 1.32 1.38M339.819 335.555l3.034 1.285M339.819 335.555l-2.232 2.097M349.912 329.095l-6.153 3.776-3.94 2.684" clip-path="url(#p800d05fcae)" style="fill:none;stroke:#000"/><path d="m337.48 333.739.276.41.855.795.319.177.889.434M396.917 348.732l-1.182-1.455M396.917 348.732l-8.023 5.584M396.917 348.732l3.718-2.708M396.917 348.732l2.4 2.798M307.037 373.275l1.182-.53.906-.53 2.624-1.944 1.484-1.181.645-.298.873-.144 2.657-.129 2.146.201 4.427.514 5.684.683 2.478.177.347.048.349.104.427.274 3.14 2.233 1.073.63 1.652.772.926.33.944.229 1.03.196 2 .266 2.264.345M359.93 371.717l-2.22 1.341-3.547 1.937-1.199.538-.494.12-.73.073-5.445-.205" clip-path="url(#p800d05fcae)" style="fill:none;stroke:#000"/><path d="m373.035 380.37-4.334 1.401-3.865 1.238-1.488.462-.336.088-.536.012-.805-.048-2.528-.221-2.028-.053-.764.03-.574.083-.839.18-.15-.024-.15-.088-.144-.156-.754-1.422-.826-1.378-.336-.29-.418-.264-3.262-1.72-2.07-.968-.24-.165-.113-.273-.18-1.273M349.912 329.095l5.463-3.124M349.912 329.095l1.543 2.459M349.912 329.095l-1.676-2.442M348.236 326.653l4.062-2.398M348.236 326.653l-1.727-2.411M337.48 333.739l1.039-1.085.83-.65 8.887-5.351M338.594 289.019l1.358 2.844.73 1.583M338.137 294.43l.94-.378 1.605-.606M357.827 289.685l-.327-.152-.554-.024-.78.105-5.7 1.301-9.784 2.53M371.122 359.707l-5.957 4.325M371.122 359.707l7.602-5.293M371.122 359.707l2.637 3.214M371.122 359.707l-2.425-3.053M396.351 331.85l-2.884.684M396.351 331.85l2.442 3.208M385.268 349.657l-6.544 4.757M393.17 343.944l-.705.546-7.197 5.167M387.49 367.628l-1.233 1.301M388.441 368.218l-.302.092-.65-.682M387.665 365.957l-.754.727-.03.148.013.173.596.623M380.737 343.59l-6.7 4.684M380.737 343.59l.43.494M380.737 343.59l-1.27-1.67M344.873 318.064l2.102 2.363M344.873 318.064l-2.493 1.624M342.577 307.975l4.329 7.723.047.253-.072.26-.113.178-1.895 1.675M352.298 324.255l3.077 1.716M352.298 324.255l-2.646-1.683M358.892 350.475l-6.18-6.821M358.892 350.475l-8.996-.587M363.943 352.308l-4.222-1.633-.83-.2M369.477 345.117l.695-1.693M369.477 345.117l-1.939 4.234M369.477 345.117l-.223-.271M407.971 396.39l.914.265M407.971 396.39l-1.651-.74M421.39 409.888l4.221-1.793M421.39 409.888l.122.32M421.39 409.888l-1.216-2.796M408.483 409.453l.838 1.262M408.483 409.453l-4.91-7.596M408.483 409.453l.067-2.378M333.144 329.023l-.955-2.836M333.144 329.023l7.73-4.877M335.157 331.754l-.797-.658-.536-.57-.436-.724-.244-.78M338.594 289.019l-2.574 1.325M319.335 265.55l5.392-1.118.772-.192.628-.354 2.03-1.318.402-.088.427.064 1.157.844.21.313.092.314-.008 3.012-.428 2.443-.226.884-.453.868-2.91 4.066-1.643 1.887-2.045 2.202-.813 1.093-.864.908-2.511 1.916.009.177.07.14.143.161.201.093 3.33.542 5.13.498.42.02.443-.036 6.13-2.885.284-.048.235.056 2.398 4.452 1.257 2.555M346.71 338.142l6.003 5.512M346.71 338.142l-3.857-1.302M346.71 338.142l4.01-2.519M344.267 339.469l.867-.62 1.576-.707M387.665 365.957l2.214-1.663M379.37 369.027l1.282 1.068M379.37 369.027l2.513-2.615M375.92 375.525v-1.036l.251-1.455.185-.74.36-.537.973-1.012 1.68-1.718M370.832 331.688l.93 2.035.62 1.373.57 1.093.47.691 1.592 1.687M370.172 343.424l3.165-3.17 1.677-1.687M353.149 334.173l1.287-.794M353.149 334.173l-2.428 1.45M353.149 334.173l-1.694-2.62M373.759 362.92l7.43-5.294M373.759 362.92l1.017 1.279M393.17 343.944l2.565 3.333M393.17 343.944l-2.643-3.277M378.724 354.414l2.466 3.212M378.724 354.414l-2.541-3.092M354.436 333.379l4.21-2.66M388.894 354.316l-6.462 4.773M388.894 354.316l2.318 3.17M337.48 333.739l-2.323-1.985M342.38 319.688l-3.215 1.935M336.645 310.962l2.997 4.25 2.738 4.476M342.619 326.62l3.89-2.378M342.619 326.62l-1.745-2.474M335.157 331.754l1.14-1.261.989-.755 5.333-3.117M377.912 339.654l.42.768M380.652 370.095l2.406-2.696M380.652 370.095l2.168 1.944M380.652 370.095l-2.41 2.723M374.037 348.274l2.146 3.048M374.037 348.274l-2.525-3.057M374.037 348.274l-7.583 5.058M363.943 352.308l-1.251-2.107M366.325 353.819l-.826-.147-1.556-1.364M332.19 326.187l6.975-4.564M332.19 326.187l-.647-2.925M436.787 407.765l2.755 2.971M426.71 397.385l6.38 6.508 3.697 3.872M376.183 351.322l-7.486 5.332M346.509 324.242l3.143-1.67M355.375 325.971l1.727 2.314M420.174 407.092l-1.415-3.022M362.418 336.512l3.624 4.24M362.418 336.512l-1.53-2.515M331.498 310.427l-1.354-2.372M328.215 315.79l-.99-2.45.005-.185.05-.133 4.218-2.595M382.156 377.022l2.403-1.815M382.156 377.022l-1.873-1.653M396.955 389.938l-1.44-1.153-.527-.467-1.054-.933-2.197-1.946-4.218-3.756-3.643-3.085-1.72-1.576M376.343 379.462l2.293-.43.574-.16.801-.402 2.145-1.448M351.455 331.554l5.647-3.269M351.455 331.554l-8.602 5.286M370.172 343.424l1.34 1.793M368.215 343.292l1.486.099.471.033M381.19 357.626l1.242 1.463M396.955 389.938l.666.442M398.086 388.082l-.603.924-.528.932M394.113 392.677l1.66-1.365 1.182-1.374M339.165 321.623l1.71 2.523M339.165 321.623l-1.393-2.298M337.587 337.652l-4.103-3.31-.088-.226v-.192l.033-.205 1.728-1.965M346.975 320.427l2.677 2.145M346.975 320.427l-6.1 3.719M340.12 298.708l-5.238 2.377M340.12 298.708l1.14 2.523M338.137 294.43l.369.796 1.614 3.482M391.212 357.486l-2.068 1.473M391.212 357.486l8.105-5.956M357.102 328.285l1.544 2.434M408.55 407.075l.18-5.748M418.518 403.557l-1.383.473-1.727.578-1.157.257-2.197.554-1.249.49-2.255 1.166M400.244 392.747l-.367-.19M400.244 392.747l1.519-1.56M406.32 395.65l-3.597-1.623-2.479-1.28M416.334 389.212l-5.635 5.487M416.334 389.212l2.062 1.446M416.334 389.212l-3.383-2.327M387.343 336.017l1.927-1.31M387.343 336.017l-7.875 5.904M387.343 336.017l1.6 2.274M412.608 415.831l3.085 4.443M412.608 415.831l8.904-5.623M390.527 340.667l2.098-1.49M390.527 340.667l-1.583-2.376M407.56 393.883l.859-1.153M407.56 393.883l-1.24 1.767M405.342 389.975l-.699.686-.054.217.033.217.105.273 2.834 2.515M412.951 386.885l1.2-1.63.905-.933 1.257-.964M388.944 338.291l-7.777 5.793M388.944 338.291l1.934-1.461M331.543 323.262l-1.182-2.218M331.543 323.262l6.23-3.937M380.283 375.37l-.388-.338M380.283 375.37l2.044-2.144M378.569 377.352l.67-.87 1.044-1.113M332.255 302.472l-2.783 1.395M332.255 302.472l2.627-1.387M332.255 302.472l1.034 2.086M327.343 299.793l2.33-1.281.202-.016.176.036.143.14 2.061 3.8M394.113 363.216l.817.651M394.113 363.216l-1.54-1.393M394.113 363.216l-2.437 2.352M418.518 403.557l.241.513M426.71 397.385l-4.159 3.728-1.04.804-2.993 1.64M417.427 400.78l.157.48.522 1.107.412 1.19M400.957 398.418l2.616 3.439M330.361 321.044l-2.146-5.254M330.361 321.044l5.6-4.435M370.83 377.975l2.205 2.394M375.92 375.525l-1.024 1.121-.464.458-.613.33-.557.156-1.539.25-.893.135M368.425 375.525l.846 1.06.646.587.913.803M375.92 375.525l2.322-2.707M403.939 339.074l.15-.53M400.778 343.734l1.324-1.198.428-.594.663-1.117.746-1.751M398.793 335.058l2.312 2.69.385.434.327.273.504.217 1.618.402M399.361 352.756l-.36 1.591-.52 1.197M392.573 361.823l3.116-3.098 2.791-3.181M394.93 363.867l2.905-6.21.645-2.113M368.425 375.525l-4.973.803-1.526.025-.36-.675-1.635-3.96M365.195 368.463l-1.268.619-1.137.626-2.86 2.01M433.61 411.929l5.932-1.193M424.178 416.522l9.33-4.185.077-.103.046-.134-.021-.171M390.655 370.53l-2.214-2.312M384.767 375.056l2.714-1.968 3.174-2.557M391.9 369.17l-.646.804-.599.557M408.419 392.73l4.532-5.845M408.419 392.73l2.28 1.969M408.419 392.73l-3.077-2.755M334.035 305.973l-3.891 2.082M334.035 305.973l-.48-.956M408.73 401.327l8.697-.547M352.713 343.654l-2.183 1.732M360.888 333.997l-2.242-3.278M360.888 333.997l3.65-2.138M362.692 350.201l-7.01-8.551M362.692 350.201l3.235-2.55M408.885 396.655l4.98.827M408.885 396.655l1.814-1.956M429.702 410.095l-2.363-2.675M429.702 410.095l1.703-.835M429.702 410.095l-1.777.747M355.682 341.65l-4.961-6.027M412.951 386.885l-4.066-3.045M405.342 389.975l-1.268-1.165M408.885 383.84l-1.56 1.334M408.885 383.84l-1.614-1.385M413.865 397.482l4.1.956M413.865 397.482l4.53-6.824M389.27 334.708l1.608 2.122M389.27 334.708l1.556-1.026M407.12 591.466l-1.764-2.51-1.049-1.205-1.718-1.59-.47-.595-.712-1.165-2.448-4.554-1.023-1.374-3.438-3.84-1.844-2.056-4.318-4.137-.545-.82-.377-.987-.679-2.756-1.727-10.924-.11-1.012.328-4.563-.11-1.47-.075-1.004-1.04-4.282-.444-1.679-.57-4.418-.444-2.41-.117-1.052-.009-1.262.612-5.35 1.752-4.506.73-1.381 1.115-1.6 2.23-2.875 2.9-3.78.822-1.297.512-1.18 1.752-3.817 1.668-2.94.244-.426.192-.69.143-1.254.092-3.574.562-5.544.075-3.526-.15-2.241-.437-2.756-.335-1.092-.377-.772-.503-.53-2.239-2.12-.528-1.197-.025-.418.042-.434 1.794-2.49 1.794-1.76.529-.65.393-.53.294-.844.486-3.005.537-7.6.226-9.792-.017-.7-.117-.666-1.584-4.322-.412-1.374-.695-3.655-.126-2.274.05-.819.277-.61.746-.868 2.574-2.073 2.968-1.67.377-.395 1.354-1.719M384.296 435.76l3.361-1.52 11.365-4.992 5.692-2.563M412.15 423.417l-.787.36-2.428 1.048-.666.297-3.555 1.563M418.396 390.658l2.696 2.02M416.477 421.487l-1.913.833M416.477 421.487l.328.593M416.477 421.487l1.92-.817M416.477 421.487l-.714-1.105M517.786 158.307l-1.62 4.096-2.012 10.285-2.549 6.107-4.024 5.207-2.079 3.6-1.073 2.25-4.427 3.921-9.994 12.406-4.36 5.593-7.511 10.928-9.739 14.145-9.243 13.753-2.36 1.674-10.665 7.97-5.285 3.34-2.482 1.542-2.63 2.896-.992 3.79-.47 5.335-1.488 5.466-2.536 4.047-6.854 8.23-3.42 4.629-2.617 4.499-2.95 9.448-1.879 7.778-4.212 9.185-4.225 8.117M415.693 420.274l8.485-3.752M415.693 420.274l.07.108M399.654 351.278l-.337.252M399.654 351.278l-.293 1.478M399.654 351.278l.157-.42M324.09 306.373l2.607-1.156M324.719 301.159l-2.302 1.016-.092.113-.02.197 1.785 3.888" clip-path="url(#p800d05fcae)" style="fill:none;stroke:#000"/><path d="m329.179 306.518-3.308 1.84-.26.036-.36-.044-.226-.12-.935-1.857M341.26 301.231l2.394 5.331.025.314-.105.39-.146.192-.851.517M365.927 347.65l1.611 1.701M365.927 347.65l3.327-2.804M389.67 367.009l1.495-1.385M389.67 367.009l-1.229 1.209M389.67 367.009l2.23 2.161M382.432 359.089l-7.656 5.11M400.778 343.734l-.143 2.29M395.735 347.277l3.981-2.832 1.062-.711M405.666 384.491l1.66.683M405.666 384.491l1.605-2.036M398.086 388.082l.336-.378.46-.321 5.182-2.627.487-.144 1.115-.121M407.326 385.174l-3.252 3.636M335.962 316.61l1.81 2.715M348.655 346.872l1.875-1.486M348.655 346.872l-6.573-5.42M349.896 349.888l.314-.932.034-.253-.017-.197-.092-.185-1.48-1.449M421.092 392.677l4.095 3.363M417.965 398.438l1.3-2.161 1.827-3.6M365.195 368.463l-1.37-3.45M368.425 375.525l-1.065-1.743-.587-1.487-1.578-3.832M425.187 396.04l-2.972 2.993-1.391.972-.536.33-.479.167-2.382.278M417.965 398.438l-.302.827-.16.515-.076 1M389.879 364.294l2.504-2.292M389.879 364.294l1.286 1.33M391.9 369.17l1.332-2.145M390.878 336.83l1.747 2.347M390.878 336.83l1.382-.988M422.803 413.067l.62 1.527.755 1.928M425.187 396.04l1.523 1.345M376.343 379.462l-3.308.907M376.343 379.462l2.226-2.11M391.165 365.624l.511-.056M398.086 388.082l3.677 3.104M427.339 407.42l-1.728.675M431.405 409.26l-2.24-2.484-.122-.044-.12-.004-.145.043-1.44.649M418.759 404.07l-4.363 3.073-5.075 3.572M393.232 367.025l-1.556-1.457M393.232 367.025l1.698-3.158M364.538 331.859l5.13-2.938M366.042 340.752l3.22-3.189.051-.25-.025-.264-.092-.257-1.067-1.243-3.278-3.652-.065-.044-.118-.016-.13.022M367.538 349.351l-1.084 3.981M379.468 341.92l-1.136-1.498M399.26 404.246l1.697-.863 2.616-1.526M398.793 335.058l-2.68 1.698M383.191 372.342l-.37-.303M383.191 372.342l2.63-2.75M383.191 372.342l-.864.884M392.573 361.823l-.19.18M330.144 308.055l-.965-1.537M326.203 310.327l1.81-.868.788-.498 1.343-.906M404.074 388.81l-2.311 2.376M218.331 117.508l11.473 3.462 5.098.16 4.658 2.389 6.61-3.224 4.86-.794 9.524 4.66" clip-path="url(#p800d05fcae)" style="fill:none;stroke:#000"/><path d="m317.966 193.428-3.886-3.127-3.29-4.716-5.03-3.857-2.254-13.757-4.83-5.656-3.446-1.93-8.787-2.763-10.933-8.615-4.091-13.5-10.865-11.346" clip-path="url(#p800d05fcae)" style="fill:none;stroke:#000"/><path d="m317.966 193.428 2.82-10.649-1.14-11.763 1.342-5.657-1.744-4.95-4.092-8.164-1.676-5.143-7.915-6.364-2.213-1.993-2.28-.772-3.421 1.286-1.811.386-4.292-2.186-4.226-3.278-7.58-5.272-6.572-.964-12.612-3.784M368.458 317.598l.419.386.638.449 1.005.603.344.257 4.477 4.973M373.983 330.654l.034-.748.091-.82.101-1.035 1.132-3.785M385.612 287.685l-1.393 5.8-1.14 5.047-4.225 14.205-2.146 7.279-1.367 4.25M162.331 153.98l3.186.674.96.063 6.819-.35 5.299 2.378 2.884-3.022 4.963-5.078 3.152-.9 4.561-2.057 2.817-4.5.806-2.958 2.615-1.992 2.482-3.73 3.018-4.563 2.079-2.765 1.945-3.214 3.354-2.635 5.06-1.823M391.086 237.395l-4.304-5.771-4.024-1.543-5.095-4.87-6.978-2.856-4.963-1.029-5.232-2.957-15.628-8.806-7.71-.556-3.96-1.759-8.985-7.176-6.24-6.644" clip-path="url(#p800d05fcae)" style="fill:none;stroke:#000"/><path d="m391.04 245.76.331-7.007-.025-.78-.1-.28-.16-.298M380.078 204.887l3.152 9.066 1.778 3.214.737 1.608 1.576 5.015 3.656 7.33.47 1.928-.067 2.7-.294 1.647M368.458 317.598l-2.08-2.772-.796-1.197-.486-.844-3.597-10.782-3.504-11.98-.168-.338M391.04 245.76l-2.193 2.78-1.006 2.715-1.927 3.905-.99 1.559-.42 2.282-1.224 2.603-2.515 2.748-8.87 11.73-4.845 6.862-.084.692 1.173 2.635.201.996-.167.74-.436.433-2.834.321-7.076.924M422.803 413.067l5.122-2.225M422.803 413.067l-1.291-2.86M425.611 408.095l2.314 2.747M378.332 340.422l-6.82 4.795M392.625 339.177l1.236-.923M393.861 338.254l2.252-1.498M393.861 338.254l-1.601-2.412M390.826 333.682l.21-.714M390.826 333.682l1.434 2.16M393.467 332.534l-.93.209-1.501.225M393.467 332.534l2.646 4.222M370.832 331.688l1.675-.584.88-.265.596-.185M329.472 303.867l-1.28.623M329.472 303.867l-2.129-4.074M327.343 299.793l-2.624 1.366M326.697 305.217l1.495-.727M326.697 305.217l-1.978-4.058M336.02 290.344l-13.556 6.223-.06.125v.128l2.315 4.339M333.556 305.017l7.704-3.786M333.556 305.017l-.267-.459M333.289 304.558l-4.11 1.96M329.179 306.518l-.987-2.028M334.882 301.085l-2.058-4.027M516.937 123.96l1.51 2.41 4.661 2.667 2.985 2.444 1.408 3.665-3.488 1.928-1.878 2.187-.818 2.381-2.213 3.407-1.677 4.565.537 2.378.134 5.529-.312.786M527.304 153.45l-2.967 1.398-1.543.948-2.431 1.318-1.325.675-1.252.518M553.299 97.062l-2.96 2.533-10.832 8.39-2.532 1.992-3.806 3.214-1.778 2.186-4.795 2.057-5.668 2.796-3.99 3.73M508.055 108.745l3.92 6.375 4.962 8.84M368.215 343.292l-2.173-2.54M368.215 343.292l1.04 1.554M366.454 353.332l-.129.487M338.137 294.43l-2.117-4.086M383.188 367.242l.467-.547M383.188 367.242l-.13.157M383.188 367.242l2.285 2.088M385.473 369.33l-2.653 2.71M385.473 369.33l.348.262M385.473 369.33l.784-.4M385.821 369.592l.436-.663M382.82 372.04l-1.291 1.372-1.34 1.328M386.257 368.93l-2.602-2.235M379.895 375.032l-1.242 1.36-.097.286-.029.28.042.394M379.895 375.032l.294-.292M382.327 373.226l2.232 1.98M399.81 350.858l.766-3.83.06-1.004M369.669 328.921l.533 1.387.63 1.38M407.27 382.455l1.632-2.07M397.621 390.38l.34-.2.151-.045.163.024 1.811 1.583.034.188-.017.257-.226.37" clip-path="url(#p800d05fcae)" style="fill:none;stroke:#000"/><path d="m397.621 390.38-.28.233v.136l.058.137 1.945 1.751.16.025.201-.025.172-.08M418.398 420.67l-2.635-.288M418.398 420.67l.514-.219M415.763 420.382l-1.2 1.938M414.564 422.32l-.393.172M279.697 482.197l-1.266.568M314.189 599.704l.235-.201.502-.233 1.719-.948.813-.78 1.904-2.481.586-.579.554-.514 1.618-1.518 2.054-2.699.738-1.14.344-.748.695-2.434.285-1.67.637-2.394.202-1.43.1-2.104.092-3.15-.175-1.63-.856-3.856-.276-1.14-.344-.731-.37-.724-2.531-3.413-.805-1.414-.52-1.156-.872-2.772-.192-.868-.16-1.084-.017-.86.177-.819.897-2 .435-1.029.185-.995.017-2.756.084-.795.343-1.286.076-.65-.218-2.667-.805-3.085-.553-1.96-.554-1.204-5.416-7.23-1.936-2.723-.327-.37-.529-.314-1.224-.441-1.442-.659-1.333-.908-5.021-4.948-.981-1.117-1.736-2.53-5.022-6.764-.579-.964-.963-1.864-2.784-4.98-2.851-5.479-1.542-2.667-1.057-1.68-2.255-2.9-2.675-3.365-.31-.522-.553-1.165M384.296 435.76l-7.377 3.337-10.167 4.503-12.304 5.45-74.751 33.147M416.805 422.08l1.583-.83.164-.153.092-.15.268-.496M414.171 422.492l1.262.056.373-.069.537-.156.462-.243M414.171 422.492l-2.022.925M314.189 599.704l-.143.293-.034 1.112.05.836-.058.706-.403 1.19-.494 1.18-.73 1.462-.041.273.041.297.42 1.069.21.192.326.113 5.073.441 2.364.386 2.247.498 1.14.209 2.046.129 1.425.305 1.442.305 2.18.144 2.716.194 1.945.337 6.758 1.654 1.09.547 1.86 1.012 1.074.337 7.78 1.8 1.543.192 1.426.048 7.578-.217.822.033.37.128.217.2 2.079 2.137 2.071 1.832.603.667.344.715 1.61 2.297.403.401.972.603 2.348 1.205.444.24.377.282.562.594.813 1.238.31.272.294.177 2.456.37 1.35-.049 3.278-.924.822-.393.47-.482 2.758-2.667.352-.514.218-.964.436-4.064.452-1.398.152-2.184.184-.916.553-2.795.604-5.334.486-1.574.503-.884 2.767-3.342.402-.77.235-1.221.62-1.672.604-.82.788-.85.688-.908.243-.579.235-.377.318-.265 1.987-1.253.981-.506 2.52-.968M369.669 328.921l-.926-2.413-2.147-5.89-.511-1.51.042-.169.092-.184 2.239-1.157M385.612 287.685l-3.958-.787-.721-.169-.645-.233-2.298-1.595-.243-.209-.109-.21-.017-.184.042-.124 3.815-4.845 3.555-4.957 1.333-1.776.243-.579.302-2.772.176-.128.251-.073 2.248.225M385.612 287.685l1.299-4.886.36-1.044.403-1.382 1.425-5.769.202-1.8.285-3.535M391.04 245.76l-.097 2.04-.855 10.3-.502 11.17M307.037 373.275l1.208-2.595.46-1.655.479-2.394.234-.659.294-.674 2.75-3.93.477-.521.512-.378 7.822-4.242 5.013-2.402.956-.571 3.606-2.442 1.492-.868 1.693-.635 1.987-.41 1.946-.112 11.93 1.1M284.468 385.026l3.546-1.113.738-.265 1.073-.507 9.717-5.327 6.556-3.574.554-.547.385-.418M404.576 352.571l-4.765-1.713M344.267 339.469l4.622 4.185 1.641 1.732M342.082 341.452l1.928-1.8.257-.183M337.587 337.652l4.495 3.8M508.055 108.745l-7.148 5.989-5.667 6.204-3.253 5.142-2.85 1.897-1.744.643-2.918-.096-2.884-.386-3.723-.997-.603-1.736-1.174-4.789-1.71-1.093-1.04-.546-10.53 1.318-10.732 2.603M412.15 423.417l-.113.802-.586.546-.336.37.05.562 1.526 2.731 1.526 1.286 3.84 2.94 1.24 1.205M139.997 411.848l-.69.007-2.028-.234-1.308-.28-4.225-1.466" clip-path="url(#p800d05fcae)" style="fill:none;stroke:#000"/><path d="m139.997 411.848-.806 1.62-2.246 6.267-.604 2.99-.034.578-.536 1.671-1.342 2.474-.503 1.383-.57.803-1.14 1.06-.772.483-3.69 1.157-2.448.546-1.945-.032-3.522-.45-3.354-.097-.771-.225-1.074-.964 1.108-2.667 1.106-1.736 1.275-1.735 1.274-1.125 3.656-2.218.436-.096.47-.096.268-.354.134-.45.1-.385-.066-.29-.068-.29.101-2.827.705-1.896.503-.772.637-.707 3.354-1.928 2.113-1.665M259.247 389.998l-.393.053-3.16.69-2.038.587-2.39.988-5.44 2.579-4.116 2.048-1.753.611-2.297.731-4.989 1.398-2.523.651-3.136.619-6.757 1.092-11.553 2.338-10.79 2.306-7.429 1.598-3.102.62-1.986.248-5.542.538-7.705.691-1.073-.024-2.298-.265-3.571-.145-1.694.097-1.66.21-2.9.561-1.375.33-1.568.442-1.14.128-14.872.13M380.533 365.28l1.35 1.132M383.058 367.4l-1.175-.988M389.144 358.96l3.24 3.042M226.786 505.577l-6.405 2.886M257.807 491.916l-19.15 8.404-10.136 4.475-1.735.782M216.423 451.447l-1.073 3.728-.336 5.59-.201 1.768-.603 2.09-.336 3.213-.603 1.8-.202 1.092-.2 3.374-.269 1.8.436 3.952 2.548 5.592 1.376 3.888.905 1.414 2.381 2.925 4.058 6.588 2.482 5.316M382.543 432.076l3.185-1.495-1.391-2.892M382.543 432.076l-3.17 1.269-1.34-2.587M381.134 429.087l1.409 2.989M382.543 432.076l1.753 3.684M403.15 354.034l-3.789-1.278M386.315 377.622l-1.548-2.566M384.767 375.056l-.208.15M380.189 374.74l-1.947-1.922M208.475 480.208l.167 1.157 5.635 13.368 6.104 13.73M190.163 487.085l2.784-.932 6.506-3.535.838-.546 2.147-.996 3.32-1.157 2.717.29M202.572 450.579l2.348 8.998 6.607 18.253-.436.643-2.616 1.735M257.807 491.916l-1.409-.782-.402-.546v-.579l.402-1.157.1-.77-.167-.611-.671-1.06-.872-1.608-.47-1.092-.067-3.664-.2-1.928-.336-1.092-1.006-1.864-.638-3.246.236-2.475-.269-2.892-.872-1.928-.201-.193-.201-.642v-.772l.537-1.317.133-.61-.033-.483-1.845-3.47-.972-.996" clip-path="url(#p800d05fcae)" style="fill:none;stroke:#000"/><path d="m278.431 482.765-6.831 3.167-1.375.628-9.183 3.936-3.235 1.42M273.434 474.616l.268 1.061.067 1.51.637 2.41.47 1.254.235.225 2.683.546.637 1.143M480.248 368.32l-4.089-2.636-4.896-3.73-.235-.256-1.945-1.19-.704-.674-.403-.772-1.442-4.789-.503-1.093-2.213-3.278-.302-.61-.503-.612-1.98-1.51-.435-.45-.302-.45-1.342-2.957-3.42-5.047-.704-1.253-2.046-2.604-2.046-3.921" clip-path="url(#p800d05fcae)" style="fill:none;stroke:#000"/><path d="m507.575 331.297-16.158 21.885-10.874 14.742-.295.396M507.575 331.297l2.59.996 2.448 1.833.168.417v.644l-.268 1.22M468.177 299.477l1.509 1.575.47.61 1.173 1.287 3.589 3.824.804 1.061 1.476 1.607 4.83 4.66 4.963 5.882 3.756 3.472 1.308.996.973.547 6.875 3.181 6.07 2.25 1.602.868M259.247 389.998l-2.448-4.719-1.308-.803-5.768-1.478-.302-.772M284.468 385.026l-14.723 4.623-1.325.297-1.022.113-5.341-.201-2.239.064-.571.076M270.147 422.66l-1.945-5.079-.235-.965-4.83-14.334-3.554-11.234-.336-1.05M273.367 414.495l1.743-2.828.772-2.475.201-.45 1.912-4.853 1.442-2.7 2.045-3.407.806-1.736.536-1.446.067-.804-.268-1.028-.269-3.825.269-.771.402-.643.235-.321 1.208-2.182M154.416 163.624l.369-1.222.838-1.029 6.708-7.394" clip-path="url(#p800d05fcae)" style="fill:none;stroke:#000"/></g><g id="PatchCollection_1"><path d="m317.165 398.75-3.622 2.635-2.294 2.513 6.587 1.15-.416-1.087 1.475-2.249 2.227-.584.134-.772.94-1.606-1.02-1.858zM414.352 343.86l-3.837 8.105 1.018 1.692 1.544-3.562 1.744-1.736 1.006-8.098-1.207 1.542z" clip-path="url(#p800d05fcae)" style="fill:#00f;fill-opacity:.8"/><path d="m321.176 396.892 14.89-5.978 6.438-3.277 12.342-2.828 8.45.707 19.317-4.435 7.244-4.242 6.305-5.592 6.774-8.74 4.426-8.292 3.153-2.25 1.891 3.143 1.462-3.336.953-3.413 1.006-8.098 4.883-1.6 1.165-1.299 2.527-2.94 1.016-1.167 2.469-5.457 2.897 1.15.604 3.535-2.884 8.356-4.36 9.32-1.811 2.892-4.36 12.662-3.689 6.556-4.44 5.213-3.22 1.928-1.273 1.606-3.018 2.572-2.348 1.092-6.036 4.692-3.22.9-3.957 1.606-1.61-.064-2.08.965-3.823.707-2.011-.45-2.415.45-1.81 1.027-4.427 1.093-7.043 1.093-2.415 1.928-.268 2.186 3.353.192-2.615.9-9.712 1.729-9.256 1.414-11.483 3.091-5.03 2.7-6.037 4.884-1.529 3.207-4.36 4.756-5.097 3.792-3.47 2.467-5.042 4.489-6.095 4.25-2.545 2.547-2.752 2.882-1.74 1.342-3.653 1.37-2.886.901-3.08-.07-2.547.388-2.001.368-1.01-9.19.338.2 1.344.152 2.117-.056 2.115-.183 2.183-1.336 2.462-2.41-1.458-.077-2.313.198-1.573.18-1.187.67-.275.272-.916.484-1.033.347-.754.536-.993.881-1.476-5.023 1.942-.265 1.847-.11 1.996.103 1.289-.11 2.114-.932 2.212-.379 2.012-.58 2.918-1.884 4.022-4.339 2.85-1.671 3.613-2.48 2.134-2.272.687-1.526 7.665-8.58 5.084-5.134 6.587 1.15 6.64-1.992.389-4.686-2.67.38z" clip-path="url(#p800d05fcae)" style="fill:#00f;fill-opacity:.8"/><path d="m366.315 398.434-3.488 1.543-.604 1.028-1.745-.1.673-1.25 1.61-1.414.67-1.156-.322-.627 1.002-.156.527.59.805-.257.147-.562 3.006-.467-.202.964.134.9zM416.9 319.246l-1.341 2.442-.872 10.989.47 1.477-.805 2.829 1.475 3.278 4.883-1.6 1.165-1.299-1.554-.7-.215-4.494.604-1.799 1.489 3.015.922 2.528 1.281-1.49-.794-.525-.47-4.306.134-1.286-.617-1.857 1.757-.52.067 3.084.738 1.865.201 2.378 2.469-5.457.47-3.921.616-3.28 3.743-7.133 4.44-7.266 9.726-5.528 7.43-3.725.605-1.543 1.69-1.224.188-1.668 1.02-.967 15.492-3.857 4.025-1.928 4.627-4.05 2.281-4.242-14.42-4.05-8.599 8.36-4.024 2.378-5.017 2.247-5.366 1.478-2.481-.193-3.354 1.029-6.707 1.928-1.341 1.157-.537 1.221-1.208 1.093-4.024 3.085-2.28 2.443-3.018 7.391-2.147 3.214-2.884 7.328z" clip-path="url(#p800d05fcae)" style="fill:#00f;fill-opacity:.8"/><path d="m591.914 163.6-1.234 5.027-13.415 15.428-4.828 1.543-2.684 3.857-5.902 4.371-19.316 7.2-9.659 3.342-9.927 7.457-7.512 14.914-1.341 4.628-2.146 6.428-15.56 20.827-8.586 11.055-5.564 7.79-14.42-4.05 8.18-8.11 10.731-5.143 5.258-8.112 3.864-5 .966-4.256 5.205-6.544 1.77-12.74 7.78-17.228 8.425-7.83h6.17l9.283-3.226 14.219-5.657 5.741-4.487 5.634-1.286 6.332-9.655 8.585-15.685 10.034-6.287 1.878-8.486 25.755-13.114 26.024-5.143 19.854 2.057 23.072 9.771 25.219 18.257 21.194 22.628 17.707 12.6 9.927 7.971-2.951 14.142 5.366 13.885-6.171-2.829-12.878-14.142-24.414-23.913-18.243-16.456-7.78-9.772-13.683-8.485-38.633-10.285-19.049 2.314-6.975.514-4.293 2.829-4.024 6.171-5.902 5.4z" clip-path="url(#p800d05fcae)" style="fill:#00f;fill-opacity:.8"/></g><g id="PatchCollection_2"><path d="m387.191 366.892 1.107 1.06 2.544-2.322-1.05-1.039zM381.69 357.595l6.13-4.268.697.917-6.13 4.269z" clip-path="url(#p800d05fcae)" style="fill:green;fill-opacity:.8"/></g><path id="PatchCollection_3" d="m378.994 442.963 67.34-30.079-13.146-17.482-20.122-16.453-5.526-6.363 5.098-21.339-3.757-15.169-9.39-6.942-21.463 1.543-14.058-9.063-11.429-37.473-27.74 3.021-.269 27.254 4.668 16.261 32.892 24.617-.805 10.027-8.853 6.941-13.039-1.22 2.844 10.99 10.463.771 2.951 14.911z" clip-path="url(#p800d05fcae)" style="fill:#d3d3d3;fill-opacity:.8"/><g id="PathCollection_1"><defs><path id="m88738f551f" d="M0 3a3 3 0 1 0 0-6 3 3 0 0 0 0 6z" style="stroke:#a9a9a9;stroke-opacity:.8"/></defs><g clip-path="url(#p800d05fcae)"><use xlink:href="#m88738f551f" x="414.637" y="396.827" style="fill:#a9a9a9;fill-opacity:.8;stroke:#a9a9a9;stroke-opacity:.8"/><use xlink:href="#m88738f551f" x="388.864" y="364.365" style="fill:#a9a9a9;fill-opacity:.8;stroke:#a9a9a9;stroke-opacity:.8"/></g></g></g></g><defs><clipPath id="p800d05fcae"><path d="M104.466 86.4h529.068v554.4H104.466z"/></clipPath></defs></svg>