<svg xmlns="http://www.w3.org/2000/svg" width="960" height="960" viewBox="0 0 720 720"><defs><style>*{stroke-linejoin:round;stroke-linecap:butt}</style></defs><g id="figure_1"><path id="patch_1" d="M0 720h720V0H0z" style="fill:#fff"/><g id="axes_1"><path id="patch_2" d="M105.81 640.8h526.38V86.4H105.81z" style="fill:#fff"/><g id="LineCollection_1"><path d="m172.28 243.581.554 2.721.458 1.91.483 2.108 1.478 7.71.74 3.93 1.173 6.16.133.83.204.86.125.748.217 1.309.39 1.75.333 1.615.278 1.233.796 4.202.329 1.535.683 3.453.539 2.67.249 1.396.357 2.224.213 1.09.667 3.648.434 2.093.683 3.676 1.141 5.521 2.988 15.303 1.31 6.471 1.77 9.4M192.953 349.416l-.645-3.997-1.302-6.272M375.202 275.86l-4.553 2.59-8.888 5.762-2.225 1.603-.6.18-8.31 1.013-1.897-.12-2.383.032-4.376.414-2.809.545-.43.33-1.945 1.922-.414.784-.37 1.189-.401 2.017-.422.653-2.857 3.314-2.15 3.314-.282.568-1.816 4.806-.57.724-.913.422-20.875 4.87-.647-.06-2.986-1.162-.563-.43-.803-1.01-.676-.901-1.14-.938-2.179-1.547-1.302-.617-1.937-.366-3.93-.254-17.299-.08-2.19.156-.771.139-.732-.203-1.278-.434-.502-.06-1.085.283-1.19.426-.936-.036-1.27-.386-2.86-1.082-2.842-.6-2.849-.422-1.953-.176-2.608-.748-2.106.056-.626.207-.185.21.056.459.619 1.499.53 2.204 3.207 14.004-.052.676-.482.935-.86.939-.466.366-4.51 1.861-.506.323-1.205 1.006-1.036.314-2.448.557-8.37 2.05-11.405 2.609-5.312 1.197-1.784.315-6.82 1.734-9.873 2.276-4.548 1.066M148.176 345.058l6.417.557M162.389 346.292l-1.131 2.6M162.389 346.292l1.178.098M162.389 346.292l-7.796-.677M162.389 346.292l3.92 1.883M180.02 347.837l-2.699 5.493M180.02 347.837l4.113.344M180.02 347.837l-4.391-.457M184.133 348.18l-3.115 6.963M188.588 349.008l-1.249-.491-.955-.22-1.012-.048-1.239-.068M166.31 348.175l-3.957 7.676M169.931 349.705l-2.513-1.091-1.108-.439M188.588 349.008l-3.827 7.723M188.588 349.008l3.365.766M192.953 349.416l-.284-.058-.286.046-.25.145-.18.225M193.32 350.534l.075-.121.048-.295-.066-.292-.171-.245-.253-.165M191.953 349.774l-.087.273.019.286.15.3.265.21M169.931 349.705l3.686 1.808M169.931 349.705l1.304-2.686M165.932 357.688l1.736-3.45 2.263-4.533M193.32 350.534l2.65 2.064M192.3 350.843l.33.082.332-.063.276-.194.083-.134M188.417 358.573l2.98-5.943.903-1.787M173.617 351.513l-3.978 8.077M173.617 351.513l3.704 1.817M173.617 351.513l2.012-4.133M195.97 352.598l-3.846 7.736M195.97 352.598l3.496 1.69M177.321 353.33l-3.998 8.151M177.321 353.33l3.697 1.813M199.466 354.287l-3.963 7.701M199.466 354.287l.486.235M158.94 354.45l3.413 1.4M158.94 354.45l-1.387 2.924M158.94 354.45l1.007-2.543M158.94 354.45l-5.266-.345M199.952 354.522l3.608 1.743M199.952 354.522l-3.897 7.74M181.018 355.143l-4.057 8.105M181.018 355.143l2.978 1.493M203.56 356.265l-3.89 7.704M203.355 365.805l1.676-3.6 1.413-2.817.201-.486.16-.513-.102-.339-.259-.31-.406-.262-2.478-1.213M183.996 356.636l.548.477M183.996 356.636l.765.095M184.76 356.73l-.216.383M184.76 356.73l3.657 1.843M184.544 357.113l3.69 1.825M184.544 357.113l-3.996 7.988M165.932 357.688l3.707 1.902M165.932 357.688l-3.58-1.837M188.417 358.573l-.182.365M188.417 358.573l3.707 1.761M188.235 358.938l3.69 1.813M188.235 358.938l-2.578 5.086M169.639 359.59l3.684 1.891M192.124 360.334l-.2.417M192.124 360.334l3.379 1.654M191.924 360.751l3.33 1.72M189.347 365.851l2.241-4.437.336-.663M173.323 361.481l3.638 1.767M173.323 361.481l-4.025 7.944M195.503 361.988l-.25.484M195.503 361.988l.552.274M196.055 362.262l-.238.473M196.055 362.262l3.616 1.707M195.254 362.472l.563.263M195.254 362.472l-3.9 7.96M155.228 362.69l2.325-5.316M155.228 362.69l14.07 6.735M115.933 362.1l1.543.582 1.777.756 1.559.477 2.17.501.916.151.835-.015 1.279-.152 2.137-.501 1.953-.525 1.294-.315 2.395-.553 3.838-.682 4.987-.281 5.735-.424 2.957.6 3.92.97M195.817 362.735l3.614 1.708M195.817 362.735l-3.95 7.933M176.96 363.248l3.588 1.853M176.96 363.248l-4.025 7.97M199.67 363.97l-.239.473M199.67 363.97l3.685 1.835M185.657 364.024l3.69 1.827M185.657 364.024l-1.46 2.878M199.431 364.443l3.698 1.805M199.431 364.443l-4.037 7.997M180.548 365.1l3.65 1.802M180.548 365.1l-3.962 7.918M203.355 365.805l-.226.443M203.355 365.805l3.492 1.822M189.347 365.851l-1.464 2.898M203.129 366.248l-4.105 8.063M203.129 366.248l3.164 1.582.367.173M184.198 366.902l3.685 1.847M184.198 366.902l-3.949 7.922M206.847 367.627l-.187.376M206.847 367.627l.41.48M206.66 368.003l-1.8 3.667M206.66 368.003l.596.105M187.883 368.749l3.47 1.684M187.883 368.749l-3.97 7.881M209.457 369.129l-2.2-1.021M169.298 369.425l3.637 1.793M191.353 370.433l.514.235M191.353 370.433l-4.05 7.982M191.867 370.668l3.527 1.772M191.867 370.668l-4.099 8.008M172.935 371.218l3.651 1.8M204.86 371.67l4.278 1.756M204.86 371.67l-2.237 4.463M195.394 372.44l3.63 1.871M195.394 372.44l-4.023 8.034M176.586 373.018l3.663 1.806M199.024 374.311l3.599 1.822M199.024 374.311l-4.077 7.983M180.25 374.824l3.662 1.806M202.623 376.133l-4.002 7.98M183.912 376.63l3.391 1.785M184.446 384.335l-2.98-.57-.406-.107-.185-.147-.14-.25.048-.37.135-.407 2.994-5.854M187.303 378.415l.465.26M187.303 378.415l-2.857 5.92M187.768 378.676l3.603 1.798M187.768 378.676l-2.868 5.681M191.371 380.474l-2.178 4.496M191.371 380.474l3.576 1.82M194.947 382.294l-1.78 3.444M194.947 382.294l3.674 1.818M198.621 384.112l3.349 1.904M198.621 384.112l-1.763 3.516M184.446 384.335l.454.022M184.446 384.335l-1.883 3.96-.165.35-.379.803M184.9 384.357l4.293.613M182.412 389.544l.344-.757.19-.41 1.954-4.02M189.193 384.97l3.112.59M192.305 385.56l-.114.176-.034.207.053.203.116.155.165.102.084.015M193.167 385.738l-.107-.17-.165-.118-.207-.046-.208.038-.175.118" clip-path="url(#p75f9fca55d)" style="fill:none;stroke:#000"/><path d="m192.575 386.418.107.02.192-.038.164-.104.117-.163.046-.196-.034-.199M201.97 386.016l-1.653 3.336M494.388 491.332l-.353-.112-1.366.382-3.344.382-1.655-1.639-2.781-4.949-4.758-10.23-2.106-6.78-.738-4.82.16-6.238-.804-2.514-.08-3.007.562-3.851-1.478-6.492-1.511-2.069-3.633-5.808-2.523-2.29-3.376-2.276-1.929-.733-1.06.223-1.768.923-2.363-.541-2.219-1.83-2.443-1.845-2.732-1.02-1.238-.254-1.608-1.67-3.81-4.185-1.108-1.894-1.463-3.437-2.973-5.442-1.865-2.323-1.125-2.705-.82-5.904-.466-1.05-.675-.159-1.56.334-44.025 9.07-.667-.048-.74-.421-.522-1.154-8.678-20.958-.255-.536-.189-.282-.522-.179-.868-.084-3.73-.15-5.713-.343-8.628-.497-2.355-.111-.751-.116-.708-.147-.755-.187-.655-.096-.707.04-.763.191-.515.299-.482.373-.88.887-1.921 1.942-4.083 4.153-4.107 4.098-2.314 2.347-2.166 1.863-.473.297-.212.101-.246.077-.309.01-.745-.069-2.998-.342-4.039-.35-3.07-.203-4.074-.342-3.118-.227-1.68-.219-5.594-.549-5.192-.596-5.746-.581-5.236-.569-3.496-.473-3.721-.354-4.203-.442-3.388-.362-4.557-.537-3.532-.279-.446-.055-.362.004-.265.04-.334.162-.373.216-1.76 1.16-1.15.717-.82.446-.546.262-.586.16-.643.11-.58.064-12.473 1.226-7.964 1.018-11.593 1.424-.659.1-.494.04-.479-.08-.647-.195-3.21-1.174-2.83-1.082-4.033-1.46-2.556-.93-1.395-.541-1.595-.68-1.322-.808-1.54-1.153-2.746-1.172-2.68-1.257" clip-path="url(#p75f9fca55d)" style="fill:none;stroke:#000"/><path d="m191.77 391.479.673-4.139.132-.922M196.858 387.628l3.459 1.724M196.858 387.628l-2.169 4.325M179.502 388.908l2.517.54M194.69 391.953l2.335.517.562.087.475.024.321-.103.402-.278.37-.454 1.162-2.394M182.019 389.448l.393.096M191.77 391.479l2.92.474M192.561 422.178l-.326-2.165-1.607-17.408.047-3.362.21-2.334.884-5.43M182.412 389.544l4.085.917 5.272 1.018M494.388 491.332l-9.727 12.485-6.894 6.455-5.986 3.439-11.33 10.845-2.993 3.28-15.82 5.291-4.168 4.074-1.55 4.18-.641 7.3-1.603 2.592-4.49 5.079-9.246 7.989M456.618 576.162l-5.589-2.656-7.308-1.303-8.381-1.109-4.24-2.894-5.262-1.785-5.898-2.074M573.25 456.267l-17.507 17.395-17.316 4.443-14.644 4.233-29.395 8.994M573.25 456.267l11.566-11.493 6.787-4.973 6.2-2.857 5.932-3.65 3.474-2.698 7.161-5.82 3.154-2.328 4.543-3.757M588.44 344.392l1.76 3.952-1.496 1.905-2.512 2.064-2.19 3.968-2.085 7.46.48 4.391.375 15.926-4.062 4.391-4.008 15.344-.588 5.925.106 7.354-1.977 11.904-1.229 8.518-.534 13.069.106 2.222 2.513 1.851.15 1.63M532.802 561.54l1.988.149 5.117-.628 7.747.531 3.557-1.158L565 555.37l7.065-2.557 25.386-2.508 5.604-.964" clip-path="url(#p75f9fca55d)" style="fill:none;stroke:#000"/><path d="m456.618 576.162 1.818.865 5.604 2.604 2.728.869 2.388.096 13.79-7.959 5.895-2.46L500 566.318l15.398-6.51 14.228 1.495 3.177.237" clip-path="url(#p75f9fca55d)" style="fill:none;stroke:#000"/><path d="m585.282 600.01-27.725-12.155-9.94-4.197-5.75-1.688-3.508-2.025-1.754-2.22-.926-5.064 1.023-4.63-3.9-6.491M513.642 629.334l-1.772.804-1.995-.73-1.218-1.719-2.917-1.389-3.878-2.12-2.437-1.938-1.699-1.498-1.661-.877-6.943-4.68-6.093-3.984-4.394-2.887-2.66-1.864-4.283-3.729-2.954-2.705-2.622-.877-2.88-4.058.147-3.472-.516-2.486-1.108-3.948-1.847-3.912-.886-2.01-2.408-3.093M171.564 239.785l.716 3.796M378.53 98.28l-1.793-.192-3.416-1.002-.562-.024-1.101.286-2.845 1.106-4.702 1.528-.184.207-.17.637-1.092 4.98-.876 4.417-1.262 4.854-.65 2.267-6.11 27.644-3.652 17.656-1.097 14.999-.373 5.092.176 1.35.519 2.517.594 2.069 2.219 6.457.007.275-.277.815-.783 2.188-.47 1.102-.435.601-.309.25-1.338.387-4.312.851-12.035 3.016-1.499.139-1.844.15-2.544.486-5.409 1.202-8.462 1.814-18.486 4.074-3.833.987-7.048 1.535-11.22 2.49-1.977.502-7.932 1.591-11.742 2.77-10.303 2.195-23.629 5.1-4.01.86-5.513 1.305-1.753.374-7.305 1.686-3.922.788-20.835 4.695-1.37.43M159.947 351.907l1.31-3.016M159.947 351.907l-5.981-.565M153.674 354.105l.292-2.763M157.553 357.374l-3.211-.095-.435-.016-.297-.155-.153-.214-.04-.33.257-2.46M153.966 351.342l-7.15-.675M153.966 351.342l.34-3.106M154.306 348.236l.287-2.62M154.306 348.236l6.952.655M154.306 348.236l-8.09-.764M175.629 347.38l-4.394-.361M171.235 347.019l-7.668-.63" clip-path="url(#p75f9fca55d)" style="fill:none;stroke:#000"/></g><path id="PatchCollection_1" d="m124.803 353.154 7.06 4.869 2.025-2.521 1.475-2.148.522-1.89.578-5.271-2.778 1.518-3.76.745-2.691 1.146-2.547 2.377z" clip-path="url(#p75f9fca55d)" style="fill:#00f;fill-opacity:.8"/><g id="PatchCollection_2"><path d="m190.128 384.571 3.15.542 1.142-2.578-.322-.414-2.652-1.273-1.56 3.182zM184.59 366.673l1.156-2.263 3.228 1.616-1.156 2.263z" clip-path="url(#p75f9fca55d)" style="fill:green;fill-opacity:.8"/></g><g id="PatchCollection_3"><path d="m194.32 384.456 2.9 1.456.86-1.678-2.901-1.457zM148.128 354.498l.394 5.034 3.98-.305-.393-5.034zM165.772 350.952l-1.088 2.301 1.463.678 1.088-2.302z" clip-path="url(#p75f9fca55d)" style="fill:#90ee90;fill-opacity:.8"/></g></g></g><defs><clipPath id="p75f9fca55d"><path d="M105.81 86.4h526.379v554.4H105.81z"/></clipPath></defs></svg>