<svg xmlns="http://www.w3.org/2000/svg" width="960" height="960" viewBox="0 0 720 720"><defs><style>*{stroke-linejoin:round;stroke-linecap:butt}</style></defs><g id="figure_1"><path id="patch_1" d="M0 720h720V0H0z" style="fill:#fff"/><g id="axes_1"><path id="patch_2" d="M90 611.287h558V115.913H90z" style="fill:#fff"/><g id="LineCollection_1"><path d="m466.082 371.095-.658-.47M466.082 371.095l.325.516.07.275.035.436M467.542 371.876l-.668-.302-.792-.479M398.284 422.615l-.015.338M398.801 421.804l-.254.21-.097.114-.077.127-.065.176-.024.184" clip-path="url(#p8f8fcf3225)" style="fill:none;stroke:#000"/><path d="m397.475 421.112.332.455.237.483.24.565M522.01 167.052l-1.794.748M525.921 159.104l-.12.653-1.442 4.515-.695 1.204-.785.908-.868.668M520.03 167.055l.732-.048.766.004.483.04M525.921 159.104l.159-.881.053-1.232-.332-1.762-1.246-2.918-.672-.963-.8-.754-1.574-.89-.747-.548-.54-.65-.302-.606-.174-.88-.007-1.115.125-2.095.505-8.493M512.318 126.226l4.144 1.394 2.224.76.887.475.4.382.358.596.221.62.085.993-.268 3.87M545.515 132.29l-1.82-.249-1.28-.216-.882-.041-.581.082-.763.2-1.63.26-.99-.027-1.2-.206-1.042-.33-.943-.51-.981-.763-.997-.517-1.502-.51-.982-.143-.958.007-.914.144-1.615.358-1.087.255-.778.399-.589.578-.264.495-.158.592-.03.771v.406l-.16.482-.524.602-.589.357-.622.259-1.265.292M422.417 483.193l.989.062.528.041.7.07M412.532 484.579l1.056-.134 1.582-.268 6.59-.915.657-.069M424.127 482.258l-.397.31-.43.281-.883.344M424.217 481.828l-.063.212-.027.218" clip-path="url(#p8f8fcf3225)" style="fill:none;stroke:#000"/><path d="M406.579 481.907h2.067l3.519-.463 8.56-.858 1.17-.038.545.052.49.137.528.262.412.358.347.471M427.054 481.583l-.325-.356-.408-.145-.456-.016-.505.044-.426.16-.396.23-.32.328M411.342 476.112l11.198-1.776M411.342 476.112l-.9-.11-.33-.046-.328-.063-.366-.092-.358-.114" clip-path="url(#p8f8fcf3225)" style="fill:none;stroke:#000"/><path d="m409.467 476.666.494-.218.25-.099.256-.082.433-.1.442-.055M422.54 474.336l.458.115.343.144.38.27.257.29.177.393M426.301 473.257l-.559.354-.366.183-.42.134-2.416.408M406.579 481.907l28.03-4.623 9.292-1.424M395.408 483.542l1.339-.2 9.832-1.435M405.203 413.88l-3.797-2.22M399.566 421.181l1.658-2.16 3.979-5.141M409.334 408.689l-1.013 1.396-3.118 3.795M405.203 413.88l3.9 2.255" clip-path="url(#p8f8fcf3225)" style="fill:none;stroke:#000"/><path d="m413.426 479.483-18.072 2.864-4.062.66-1.208.296-1.585.46-1.51.572-1.774.86-1.066.64-1.22.852-1.457 1.182-1.005.923-1.495 1.699-15.532 23.264M413.426 479.483l19.485-3M424.198 476.109l-.046.37-.059.204-.078.194-.232.325-.256.244-.567.268-.65.11-7.289 1.11-1.595.549M469.382 370.922l.612-1.17M469.382 370.922l-.607.519-.885.443M469.382 370.922l-.434 2.276M414.826 402.698l5.762-5.259.328-.3M429.85 389.417l-4.885 4.03-2.314 2.024-1.735 1.669" clip-path="url(#p8f8fcf3225)" style="fill:none;stroke:#000"/><path d="m414.86 391.67 1.903 1.925 4.153 3.545M431.48 452.166l.081 1.401M431.48 452.166l.05-.393.029-.393.008-.391-.012-.391M430.83 450.87l.246.537.194.383.21.376M414.592 415.005l-1.925.39M417.684 414.171l-.348.166-.31.096-2.434.572M416.106 420.61l-.68-2.49-.407-1.623-.427-1.492M409.033 424.092l.905 2.682M409.033 424.092l-.467-2.288M409.033 424.092l3.676-.606.853-.317 1.807-1.066M407.635 425.705l.069-.534.034-.251.11-.237.162-.183.403-.244.62-.164M417.155 424.47l-.4-1.53-.65-2.33M416.106 420.61l-.314.88M412.667 415.396l-1.167 1.235M412.667 415.396l-2.432.506-1.132.233M408.18 426.774l-.22-.553-.143-.266-.182-.25M412.32 433.79l-.407-.871-3.314-5.61-.418-.535M407.311 426.244l.308.152.291.177.27.201M412.362 421.264l.248.984.121.11.186.079.365-.018 2.039-.79.471-.138M415.369 422.103l.154-.185.27-.427M409.103 416.135l-.23.575-.709 3.845-.03.406.038.262.106.31M413.526 425.658l-.164-.727.022-.148.072-.155.6-.768 1.117-1.474.196-.283M467.89 371.884l-.348-.008M468.948 373.198l-.045-.394-.178-.362-.292-.294-.378-.195-.165-.07M376.833 405.735l1.655.772M357.284 399.093l9.111 3.081 5.315 1.782 5.123 1.78M376.833 405.735l1.59.082M503.655 243.973l.307-.837.082-1.01-.249-1.405-.483-1.293-.687-1.487-.393-1.183-.135-1.026-.127-2.33.289-1.784M515.723 189.134l1.018 1.948.816 1.637.52 1.156.144.874-.09 1.046-.22 1.046-.475 1.06-1.706 2.746-1.146 1.618-1.873 1.926-1.684 1.547-.702 1.033-.581.99-.657 1.494-2.257 7.3-1.321 4.054-3.02 9.715-.23 1.294" clip-path="url(#p8f8fcf3225)" style="fill:none;stroke:#000"/><path d="m504.565 243.66.31-.29.196-.44.257-1.335.317-1.582.015-.049.325-.887.626-.95v-.007l.52-.42.892-.268.943-.337.657-.406.642-.75.155-.337.075-.272.019-.248-.034-.175-.181-.303-1.756-1.603-1.978-1.5-.81-.272-.48-.017-1.302.189-1.714.217M469.994 369.753l.435-.903.353-.744.246-.769.112-.81.046-.85-.109-1.125-.212-1.947.156-.94.25-.472.298-.368.4-.409.539-.365.593-.289.774-.213 1.09-.11 1.55-.054.74-.125.798-.447.491-.475.241-.453.106-.654.106-.812-.174-.833-.378-1.162-.475-1.562-.12-.894v-.908l.18-1.7.318-1.485.339-1.253.34-.887.528-.86.695-.888 6.018-6.458.806-.985.468-.799.317-.695.204-.763.01-.698-.138-.905-.416-1.128-.536-1.349-.287-1.087-.377-1.452-.354-.967-.394-.708-1.082-1.294-.478-.59-.367-.643-.3-1.013-1.23-4.561-.702-3.27-1.706-5.069-.619-1.795-.15-1.246-.06-.997.218-1.487.408-1.912.414-1.7.318-.75.355-.667.74-1.218.4-.777.226-.764.053-1.163-.159-3.701.114-1.074.271-1.073 1.442-3.42.763-2.029.098-1.04-.182-1.692-.037-.846.106-.874.407-1.176.627-1.232.754-1.273.355-1.087.19-.867.165-1.438-1.047-7.837.156-1.892.484-1.761.385-1.053.611-.922.777-.709.733-.626 2.076-.62 2.34-.037 1.163.014.819-.13.724-.325.687-.467.472-.602 2.076-3.792 4.276-7.523M504.565 243.66l-.404.199-.506.114M412.32 433.79l.555.778.581.756.83.998.952.901 2.49 1.967 5.2 4.33 4.554 3.787 2.084 1.968M429.566 449.275l.137.23.153.22.22.276.245.259.266.24M431.002 450.04l-.285-.205-.301-.183-.316-.163-.263-.115-.271-.1M430.83 450.87l.215.06.221-.033.183-.118.106-.181" clip-path="url(#p8f8fcf3225)" style="fill:none;stroke:#000"/><path d="m430.587 450.5.07.213.173.157M432.789 465.103l-.113.956-.204.777-.272.797M432.344 460.556l.233 2.38.212 2.167M433.332 467.903l-.073-.71-.115-.703-.157-.698-.198-.69M432.2 467.633l-.294.482-2.031 2.586-.415.489-.453.44-.355.234-.467.186-.585.17M433.332 467.903l-.188-.145-.219-.103-.238-.056-.245-.008-.242.042M433.332 467.903l.02.341M427.6 472.22l-.423.106-.382.226-.13.123-.117.134-.142.215-.105.233M428.237 472.821l-.079-.208-.141-.179-.09-.073-.101-.061-.11-.047-.116-.033M428.237 472.821l.46-.514.242-.23.287-.2.389-.258M426.633 475.052l.361-.53 1.243-1.7M426.301 473.257l-.31.46-.355.372-1.019.76-.207.207-.148.237-.107.255M424.155 475.548l.043.561M443.901 475.86l11.03-1.691M429.521 479.163l.83-.255 1.012-.248 7.07-1.425 2.679-.608 2.79-.767" clip-path="url(#p8f8fcf3225)" style="fill:none;stroke:#000"/><path d="m432.91 476.483-1.783.032-2.6.263-.602-.057-.428-.172-.373-.245-.272-.25-.151-.3-.045-.282-.023-.42M432.91 476.483l1.558-.24M427.054 481.583l.247-.828.159-.344.283-.338.502-.34.566-.285.71-.285M426.607 483.482l.25-.201.199-.245.138-.277.07-.298v-.304l-.072-.297-.138-.277M424.127 482.258l.023.308.097.297.163.27.224.233M424.634 483.366l.35.222.402.128.425.025.417-.08.379-.18M426.607 483.482l.014.626M400.414 423.185l-.604-.507-.199-.274-.097-.255M399.303 424.283l.38-.024.342-.15.257-.255.085-.156.051-.167.016-.173-.02-.173M400.414 423.185l.79.534M431.561 453.567l-.03 1.034.013.727.008.936.066.935.123.929.18.921.192.758.23.749M399.566 421.181l-.765.623" clip-path="url(#p8f8fcf3225)" style="fill:none;stroke:#000"/><path d="m399.514 422.15-.007-.346.059-.623M399.303 424.283l.861.382.953.224M398.27 422.953l.126.395.238.406.378.359.291.17M401.117 424.889l.05-.426.031-.38.007-.364M401.205 423.719l2.809 1.755M466.196 373.015l-.779 1.932M466.196 373.015l.024.376.146.353.253.297.339.216.394.115M466.512 372.322l-.218.328-.098.365M457.25 360.25l.465.812 2.393 4.054.091.117.224.287M456.49 368.657l3.116-2.562.359-.26.458-.315M461.973 367.819l-.427-.605-.442-.748-.336-.462-.345-.484M398.801 421.804l-1.326-.692M398.801 421.804l.713.345" clip-path="url(#p8f8fcf3225)" style="fill:none;stroke:#000"/><path d="m467.352 374.372.46-.004.433-.141.358-.264.243-.356.102-.409M467.352 374.372l-1.935.575M411.5 416.631l-3.222 4.901M412.362 421.264l-.431-2.325-.43-2.308M465.417 374.947l-.721 2.002M455.285 392.736l.204-.277M455.228 394.671l-.026-.38.019-.967.064-.588M442.916 399.154l.774.361 1.041.372.537.045.407-.045.363-.09.381-.14.49-.248.612-.303.396-.083.446.018 1.418.06.664.027 1.3-.18 1.14-.62.52-.474.325-.702.159-.846-.008-1.575.158-.626.325-.523.404-.51.517-.336M421.206 407.93l1.713 1.251M421.206 407.93l-.782-.76M415.681 403.46l.778 1.826 2.416 3.247.363.259.34.103.359-.014.328-.14.94-.811M413.526 425.658l.34 1.132M413.526 425.658l-3.588 1.116M413.526 425.658l3.63-1.188M421.53 401.538l-3.346 3.862M421.53 401.538l2.173 1.833M432.693 392.371l-7.114 5.392-2.157 1.707-1.893 2.068M422.92 409.181l3.525-3.948M417.684 414.171l.452-.24 3.505-3.289 1.278-1.46M435.074 395.305l4.656-3.514M435.074 395.305l-2.381-2.934M429.075 399.67l.658-.227.655-.403 4.686-3.735M454.967 397.774l.606.444M455.228 394.671l-.017 1.752-.244 1.351" clip-path="url(#p8f8fcf3225)" style="fill:none;stroke:#000"/><path d="m434.013 400.541.55.058 1.065.124 3.065 1.004 1.215.351 1.064.268 1.216.124 1.237.09.982.006h.974l1.171-.151.535-.101.936-.33.815-.33 1.79-.863 1.91-.908 1.268-.79.71-.688.45-.63M423.703 403.371l-3.279 3.8M423.703 403.371l2.742 1.862M408.278 421.532l.288.272M408.278 421.532l-1.367 2.538-.219.564-.087.344-.054.476M419.098 377.92l6.438-5.257M419.098 377.92l2.495 2.69M419.098 377.92l-.453.325M419.327 373.985l-1.776 1.545-.079.269.064.323 1.562 1.798M418.184 405.4l2.24 1.77M418.184 405.4l-2.503-1.94M439.56 381.906l-2.684-3.08M439.56 381.906l2.673 2.881M429.85 389.417l3.165-2.431 3.218-2.473 3.327-2.607M448.973 374.536l-4.186 3.246-1.64 1.256-3.587 2.868M444.948 387.75l-2.08 1.589M450.421 383.455l-.85.65-4.623 3.644" clip-path="url(#p8f8fcf3225)" style="fill:none;stroke:#000"/><path d="m442.233 384.787 2.362 2.507.175.214.178.241M448.99 379.548l-6.757 5.24M451.496 422.193l-1.925.976-3.148 1.104-1.208.417-.868.33-8.575 3.013-6.1 1.939-.878.083-.867-.1-1.038-.32-3.702-1.217-4.808-1.755-.53-.267-.226-.33-.16-.412-.308-1.184" clip-path="url(#p8f8fcf3225)" style="fill:none;stroke:#000"/><path d="m417.684 414.171 2.12 5.869.076.632-.445 1.397-.582 1.018-.564.735-1.134.648M432.693 392.371l9.54-7.584M432.693 392.371l-2.843-2.954M434.013 400.541l-.394.012-.845.138-1.178.385-.755.468-1.57.908-1.842 1.788-.984.993M396.134 408.457l2.66 1.628M396.134 408.457l-2.635-1.676M396.134 408.457l4.455-6.95M396.134 408.457l-2.192 2.97M406.9 428.797l.936.502M401.196 425.34l.31.402.46.447.718.448 2.438 1.272 1.778.888M408.451 427.892l-.4.292-.559.372-.592.24M392.304 405.978l1.195.803M392.364 403.66l.106.28.124.308.023.344-.313 1.386M393.942 411.427l-1.087-1.218-.853-1.224-.106-.592-.015-.488.423-1.927M434.263 375.888l-2.8-2.731M434.263 375.888l2.613 2.937M434.263 375.888l-3.128 2.49M434.263 375.888l9.751-7.43M421.593 380.61l9.87-7.453M421.593 380.61l2.726 2.964M412.197 387.986l1.47-.981 1.261-1.121 2.452-2.138 4.213-3.136M401.117 424.889l.079.451M401.117 424.889l2.897.585M414.826 402.698l.855.762M411.668 405.6l1.456-1.307 1.702-1.595M428.646 370.343l2.817 2.814M428.646 370.343l-3.11 2.32M428.646 370.343l3.822-3.023M406.55 425.454l.055.56M406.55 425.454l-.398.06-.394.087-.385.113M407.635 425.705l-.105-.08-.185-.1-.198-.068-.289-.031-.307.028M411.668 405.6l-2.334 3.089M415.555 410.822l-2.204-3-1.683-2.222M408.925 401.808l1.467 2.087 1.276 1.705M417.684 414.171l-2.13-3.35M398.795 410.085l1.097.59M398.795 410.085l-3.027 3.536M429.85 389.417l-2.868-2.946M393.5 406.781l7.16-6.65M401.406 411.66l-1.514-.985M401.406 411.66l6.204-8.183M395.768 413.621l.748.379.677.218.754.077.877-.083.832-.378.484-.468 1.266-1.705M458.281 395.8l-.83.687-1.878 1.731M456.89 399.913l-.344-.477-.973-1.218M455.489 392.46l2.42-2.128M455.489 392.46l-1.602-1.697M435.508 399.684l-1.495.857M435.508 399.684l6.757-5.091M442.916 399.154l-1.195.812-1.417.915-.366.083-.464-.042-1.484-.475-1.592-.453-.89-.31M442.265 394.593l-2.535-2.802M445.534 392.158l-.251.185-1.238.826-1.78 1.424M447.729 395.263l-2.195-3.105M447.729 395.263l6.158-4.5M447.729 395.263l-4.813 3.891M439.73 391.791l3.138-2.452M520.216 167.8l-.045-.165M515.723 189.134l-1.042-1.989-.37-1.327-.272-1.521-.211-2.987-.355-2.745.068-1.02.174-.983 1.257-3.826.615-1.765.332-.62.4-.506.86-.543 3.037-1.502M456.538 379.802l4.809 4.314M456.538 379.802l.776-.699M460.72 385.355l-1.778-1.122-.824-.584-.515-.4-.49-.323-1.026-.442-.51-.251-.578-.427-.178-.155-.062-.127.006-.135.044-.145.178-.158 1.038-.836.513-.448M455.893 385.564l-.548-.904M448.973 374.536l.902 1.92 2.637 6.36.38.502.363.413.232.396.273.828.212.396.245.271.29.135.314.028 1.072-.22M457.91 390.332l-1.153-2.99-.864-1.778M392.123 360.244l-2.657-.904M393.305 368.306l-.231-1.237.015-1.067.242-.812.414-1.17.106-.783-.135-.599-.356-.53-.61-.977-.627-.887M395.037 350.984l-.846 1.293-.966 1.672-.476.812-.355.998-.173 1.981-.098 2.504M393.957 374.89l.287-.079.28-.101M396.803 374.068l-1.93.517-.35.125" clip-path="url(#p8f8fcf3225)" style="fill:none;stroke:#000"/><path d="m394.459 379.578.019-.567.211-2.82-.166-1.481M408.925 401.808l-1.315 1.67M408.925 401.808l-.517-.844M425.536 372.663l-1.682-2.01M406.175 391.285l.563.075.268.065M410.294 393.95l-.462-.836-.445-.695-.423-.454-.553-.271-.534-.153-.871-.116M407.006 391.425l-3.364 5.844M407.677 388.12l-.011-.62M406.175 391.285l.298-.412.535-.999.67-1.754" clip-path="url(#p8f8fcf3225)" style="fill:none;stroke:#000"/><path d="m407.677 388.12.48.082.384.12M405.532 387.963l1.248.026.603.08.294.051M381.796 403.158l-1.455 1.848M380.858 401.205l.498.977.44.976M383.168 401.81l-.302.262-1.07 1.086M426.982 386.471l6.713-5.215M426.982 386.471l-2.663-2.897M442.014 364.93l-10.551 8.227M442.014 364.93l-1.963-3.578M442.014 364.93l2 3.529M459.34 371.36l-2.85-2.703M459.34 371.36l2.755 3.045M459.34 371.36l-2.46 2.239M459.34 371.36l3.204-2.825M383.267 379.25l.114.67M384.445 375.104l-.272.578-.55 1.039-.302.86-.138.867.084.802M388.39 383.885l-.79-.34-.784-.488-1.533-1.679-2.016-2.128M377.455 390.3l-4.22-2.854M379.048 397.38l-1.118-2.34-.415-1.375-.098-1.542.015-1.54.023-.283" clip-path="url(#p8f8fcf3225)" style="fill:none;stroke:#000"/><path d="m378.15 381.667-.914 2.772-.098.578.287 1.184.158 1.334.046.942.015.874-.189.95M386.885 367.117l.285-.093.348-.09.74.107 1.947.516 1.163.282 1.937.467" clip-path="url(#p8f8fcf3225)" style="fill:none;stroke:#000"/><path d="m396.803 374.068-.989-3.181-.687-1.204-.355-.55-.558-.434-.909-.393M378.423 405.817l-.071.171-.013.183.046.178.103.158M379.217 405.534l-.227-.03-.225.043-.196.108-.146.162M423.854 370.654l-4.527 3.331M423.854 370.654l3.448-2.794M384.445 375.104l1.495-2.725M384.445 375.104l3.233 2.594M465.372 364.342l4.534 2.725M460.984 359.126l-.054.625.168.927.32.444 3.954 3.22M461.973 367.819l1.175-1.056.411-.37.928-.962.885-1.089M462.095 374.405l-2.344 2.481M462.095 374.405l3.329-3.78M464.696 376.95l-1.373-1.253-1.228-1.292M403.227 396.306l-.892-3.995M403.227 396.306l.415.963M403.227 396.306l2.948-5.021M403.227 396.306l-1.074 2.275M365.188 380.766l-.476-.66-.234-.49-.211-.832-.189-.798-.083-.77-.09-.557-.197-.44-.528-.847M465.424 370.624l-2.88-2.089M378.15 381.667l.149-.43M376.273 380.362l.485.14.444.24.57.43.377.495M454.946 354.837l1.434 3.625M454.946 354.837l-2.084.247M456.664 353.981l-1.056.678-.662.178M450.582 359.9l-1.735.385M450.582 359.9l1.636-.386M453.971 365.466l-1.335-1.383-.416-.482-.52-.805-.499-1.052-.347-.984-.272-.86M403.229 402.648l-1.346 2.587-.611 1.266-1.38 4.174M456.38 358.462l.064.152M452.218 359.514l.734-.123.99-.137 1.5-.488.938-.304M400.524 393.403l.731-.403.695-.435.385-.254M406.175 391.285l-.28-.097-.32-.11-.336-.096-.302-.028-.472.021-.404.168-.41.238-.523.345-.793.585M390.92 396.9l1.782-7.896M390.92 396.9l2.551 1.657M390.92 396.9l-.696-.207M390.92 396.9l-1.055 4.638M448.973 374.536l1.605-1.345M380.858 401.205l1.451.426.86.18" clip-path="url(#p8f8fcf3225)" style="fill:none;stroke:#000"/><path d="m384.551 401.3-.506.124-.877.387M384.551 401.3l.016-3.712M389.3 401.1l-.725-.047-1.102-.027-1.42.061-1.502.214M417.865 372.16l-3.669 1.187M417.865 372.16l7.843-6.248M417.865 372.16l1.462 1.825M384.667 386.105l-4.238-.905M384.667 386.105l3.228.774M382.79 394.119l1.329-5.024.493-2.333.055-.657M383.38 379.92l.454 2.64.481 1.75.352 1.795M464.742 356.727l.719-2.486.38-1.219-.049-.448-1.523-3.595M425.708 365.912l1.594 1.948M432.659 360.499l-.163.086-.111.079-6.677 5.248M365.593 396.038l-5.336-4.017M365.593 396.038l3.017-3.347M374.367 397.129l-2.567 2.52-.362.345-.271.185-.363.044-5.211-4.185M357.262 394.957l.912 2.299.235.288.445.234 3.646.901.378-.027.347-.179 2.368-2.435M424.32 383.574l6.815-5.195M414.86 391.67l2.975-2.739 2.806-2.379 3.678-2.978M393.216 382.56l-1.436-1.283M393.216 382.56l-.49 3.098M393.957 374.89l.135.786.024 1.808-.9 5.075M396.093 400.293l-2.622-1.736M392.364 403.66l.511-.228 3.218-3.14M400.321 392.892l-.415.614-.408.716-.332.853-.166.874-.22 1.052-.166.688-.286.523-.687.777-1.548 1.304M394.459 379.578l4.365-.376M394.459 379.578l-1.104 6.158M393.355 385.736l-.628-.078M393.355 385.736l3.13-.478M393.355 385.736l-.653 3.268M409.656 385.058l-1.046.866M409.656 385.058l2.441-1.99M409.016 379.688l-.814.603-.272.33-.062.373-.028.941.135.668.212.557.415.73 1.054 1.168M372.589 386.92l1.06-1.66.178-.6.095-.613.068-1.445M396.486 385.258l3.928-.716M396.45 390.936l.055-1.548-.064-1.722.045-2.408M468.65 363.115l-1.124-3.989-.08-.193-.096-.124-2.608-2.082M468.65 363.115l-1.74-1.199-1.113-.994-1.502-1.445-.158-.206-.023-.2.05-.38.578-1.964" clip-path="url(#p8f8fcf3225)" style="fill:none;stroke:#000"/><path d="m462.51 352.12.815 2.6.415.936.347.488.655.583M389.614 373.83l-3.674-1.45M389.614 373.83l-.556 5.092M393.957 374.89l-.48.014-.509-.068-3.354-1.006M462.544 368.535l-.287-.289-.284-.427M447.507 360.648l-1.642.409M447.507 360.648l1.34-.363M453.828 370.742l-2.204-2.531-1.08-1.349-1.328-1.747-.265-.51-.098-.384-.083-.42-.173-.42-.423-.997-.667-1.736M440.323 357.712l-1.517 1.122M443.301 361.981l-.555-.409-.558-.77-1.865-3.09M445.083 357.298l-2.012.03-1.087.04-.77.103-.89.241M396.45 390.936l-1.466 3.717-1.513 3.904M463.162 380.302l1.534-3.353M463.162 380.302l-1.815 3.814M463.162 380.302l-3.41-3.416M453.971 365.466l2.52 3.19M453.971 365.466l.013-.052M408.408 400.964l-2.245.763M410.294 393.95l-.363.464-1.035 1.486-.505.75-.363.86-.219.647-.068.53.061.55.37 1.12.236.607M436.876 378.825l8.195-6.46.264-.398.076-.581-.094-.42-1.303-2.507M405.352 388l.18-.037M401.708 375.091l1.059 2.627.483 1.596 2.102 8.686M401.833 389.642l1.417-.876 2.102-.766M406.163 401.727l.582.75.865 1M377.16 408.627l.438-.385.483-.557.766-.97" clip-path="url(#p8f8fcf3225)" style="fill:none;stroke:#000"/><path d="m378.847 406.715.208.018.204-.042" clip-path="url(#p8f8fcf3225)" style="fill:none;stroke:#000"/><path d="m378.488 406.507.16.13.199.078M416.439 379.821l-4.304-4.848M416.439 379.821l-2.07 1.606M416.439 379.821l2.206-1.576M409.016 379.688l3.081 3.38M409.424 376.18l-1.668.655-.397.31-.069.471 1.726 2.072M457.314 379.103l2.437-2.217M457.314 379.103l-2.966-3.393M387.895 386.879l.494-2.994M387.895 386.879l4.328 1.85M386.41 391.04l.787-2.172.698-1.99M453.828 370.742l3.053 2.857M453.828 370.742l-3.25 2.45M453.828 370.742l2.663-2.085M379.667 405.976l.674-.97M379.667 405.976l-.09-.192-.157-.153-.203-.097M379.645 406.328l.04-.175-.018-.177M436.876 378.825l-3.181 2.431M384.791 394.768l1.62-3.728M384.791 394.768l5.433 1.925M384.791 394.768l-2.002-.65M384.567 397.588l.094-1.248.13-1.572M379.048 397.38l1.81 3.825M379.048 397.38l-2.824-2.223M380.34 405.006l-1.123.528M390.224 396.693l-.925 4.408M390.224 396.693l1.104-3.962M392.727 385.658l-2.33-.873M392.727 385.658l-.504 3.072M414.86 391.67l-3.242-.406M412.197 387.986l.383.407 1.298 1.664.983 1.612M356.253 392.223l1.009 2.734M396.45 390.936l-3.748-1.932M400.321 392.892l-.34-.308-.512-.337-3.02-1.31M360.257 392.02l-2.995 2.937M360.257 392.02l3.322-3.392M363.579 388.628l-2.122-1.69-.206-.108-.26-.024-.23.103-.19.113-2.298 2.405-.124.248-.016.182.095.285 2.03 1.879M365.132 386.79l-1.553 1.838M365.132 386.79l5.205 3.808M370.006 384.904l-.572.161-.872.313-.649.135-.472.037-.494-.127-.42-.22-.384-.275-.367-.454-.286-.475-.39-.3-.407-.11-.471.008-.359.103-.359.313-.158.299-.012.372.274.5 1.524 1.606M427.302 367.86l4.874-3.611M372.589 386.92l.646.526M372.589 386.92l-2.583-2.016M449.888 389.323l.513.217.597.176.596.083.626.075.491.096.529.228.647.565M460.72 385.355l.357-.661.27-.578M445.534 392.158l-2.666-2.82M449.888 389.323l-.578.207-.385.193-2.887 2.042-.504.393M412.097 383.069l2.271-1.642M469.906 367.067l-.256-.966-1-2.986M403.642 397.27l.484 1.237.693 1.295.544.728.8 1.197M403.229 402.648l.39-.099 2.544-.822M432.468 367.32l7.583-5.968M432.468 367.32l-.292-3.071M386.778 412.592l-.459-.372M386.778 412.592l10.697 8.52M386.778 412.592l3.087-11.054M386.778 412.592l-2.594 3.427M396.803 374.068l2.021 5.134M393.942 411.427l1.45 1.809.376.385M438.806 358.834l1.245 2.518M432.176 364.249l2.468-2.066 4.162-3.35M380.429 385.2l.011 7.459.072.42.2.206.25.134 1.827.7M398.824 379.202l1.59 5.34M400.414 384.542l1.419 5.1M363.579 388.628l5.03 4.063M412.135 374.973l-2.711 1.207M411.252 373.236l.506.943.377.794M400.589 401.507l.174-.277M403.229 402.648l-.3-.03-2.34-1.111M367.67 383.112l-1.108-1.032-1.374-1.314M367.18 377.91l-.634 1.39-.332.454-1.026 1.012M367.67 383.112l2.336 1.792M367.67 383.112l2.848-3.694M389.058 378.922l-.669 4.963M389.058 378.922l-1.38-1.224M389.058 378.922l2.722 2.355M407.16 386.892l-.183.105-1.445.966M411.618 391.264l-.15.719-.416.818-.758 1.149M381.708 373.954l-.516.6-1.389 1.458M374.367 397.129l1.857-1.972M374.367 397.129l-5.757-4.438" clip-path="url(#p8f8fcf3225)" style="fill:none;stroke:#000"/><path d="m402.153 398.58.523-.045.377-.316.59-.95M388.39 383.885l2.007.9M380.235 407.217l5.513 4.522.571.48M386.32 412.22l2.98-11.12M414.368 381.427l-4.944-5.247M400.321 392.892l1.328-3 .184-.25M376.224 395.157l-5.887-4.559M389.3 401.1l.565.438M386.885 367.117l-.945 5.262M381.708 373.954l.956-1.141 3.057-4.782.4-.508.332-.206.432-.2M373.235 387.446l-2.898 3.152M400.66 400.13l.103 1.1M400.524 393.403l.16 6.136-.025.592M443.301 361.981l.668.918.536.957.408.888.242.508.422.743 4.318 6.626.683.57M454.348 375.71l-1.124-1.08-.26-.204-.257-.079-.167-.039-.193.05-1.03-.856-.739-.31M470 368.631l.061-.665-.048-.402-.107-.497M408.61 385.924l-.573.39M412.197 387.986l-.2-.212-1.574-.963-.954-.479-.86-.408M459.751 376.886l-2.87-3.287M368.61 392.691l1.727-2.093M380.429 385.2l-.098-4.799M380.331 380.401l-.517.093M380.331 380.401l3.05-.482M392.364 403.66l-.317-.316-1.004-.73-1.178-1.076M392.702 389.004l-.48-.274M443.301 361.981l2.564-.924M392.223 388.73l-.895 4M386.41 391.04l4.918 1.69M379.814 380.494l-1.19-1.889M378.299 381.237l.372-.23.511-.316.632-.197M441.803 436.384l1.351 1.726M441.803 436.384l12.176-8.186M430.313 438.118l2.083.359 1.94.258 2.058.167.547-.059.8-.272.868-.358 2.024-1.183 1.17-.646M437.426 474.57l.121-1.953M437.426 474.57l.859.052M429.612 475.542l1.675-.25 2.881-.45 3.258-.273M381.863 424.73l-.589-2.27-.77-2.352-.158-1.135.076-.956.256-1.018.514-.833.589-.832.059-.412-.303-.99-.422-1.046-1.057-1.348-1.01-1.192-1.087-.945-.8-.774M367.49 409.246l1.155-.31 2.174-.226 1.54-.104 4.017.055.784-.034M378.497 426.705l1.313 6.349M381.863 424.73l-1.019.55-2.347 1.425M376.255 434.024l-.29-2.119-.005-1.67.144-.84.37-.757.619-.867.815-.701.589-.365M455.29 429.966l-1.31-1.768M455.29 429.966l3.997-2.695M455.29 429.966l-12.136 8.144M462.504 439.215l-3.749-4.444-3.464-4.805M365.497 414.68l-1.419-.97-.808-.474-.807-.296-1.646-.385-.378-.186-.158-.178-.151-1.204-.317-1.425-.544-.96-.25-.35-.157-.303-.144-.41-.23-.553-.359-.763-.296-.602-.478-.757M353.317 405.91l.838-.038 1.015-.138.717-.213.616-.248.852-.41M358.884 403.234l-.89 1.014-.639.616M462.504 439.215l3.992-2.907M454.417 443.634l1.886-1.03 5.172-2.657 1.03-.732M394.65 425.39l2.991-2.097.628-.34M383.2 432.511l.188 1.3M381.863 424.73l.574 1.989.86 2.703.046.372-.143 2.421v.296M382.003 432.69l.087-.014 1.11-.165M353.276 406.604l.04-.694M353.608 415.705l.237-.787.233-.676.106-.257.047-.278.016-.22-.044-.344-.07-.19-.269-.233-.732-.296-.891-.488-.43-.372-.785-.592-.838-.687-.393-.413-.03-.193.038-.192.335-.403.284-.195.27-.128 1.036-.87 1.548-1.287" clip-path="url(#p8f8fcf3225)" style="fill:none;stroke:#000"/><path d="m359.171 417.631-.234-1.066-1.057-3.77-.589-2.242-.226-.805-.8-1.114-2.374-1.655-.615-.375M379.81 433.054l2.193-.363M376.255 434.024l1.208-.324 2.347-.646M371.62 437.46l1.192-.36 2.416-.895.544-.386.362-.522.12-1.273M431.808 449.49l.167-.54M431.808 449.49l-.57.569M431.808 449.49l-.251.886M481.148 466.822l-.238.996M483.073 461.085l-.249.33-.188.296-.423.413-.513.468-.514.275-.393.22-.657.33-.264.31-.053.35.295.647 1.034 2.098M481.148 466.822l.85.781M442.278 438.73l.876-.62M445.724 444.057l-.532-.45-.475-.544-2.439-4.334M433.937 445.203l1.411-1.514 1.75-1.526 5.18-3.434M459.996 424.305l-1.702.79-4.315 3.103M445.724 444.057l.638.176 1.133.247 1.08.048 1.479-.103 2.521-.42 1.842-.371M456.53 445.856l-.452-.34-1.66-1.882M346.376 395.095l1.913.63M346.376 395.095l1.143 2.02M341.348 393.438l.566.206 4.462 1.451M355.668 399.47l.875 1.21M347.52 397.115l3.147 5.317.336.726.46.977.25.444.551.877.437.296.333.096.283.062M365.497 414.68l2.122-.997M359.171 417.631l2.499-1.1 3.827-1.85M357.19 401.082l.052.334.255.473.84.853.547.492M367.49 409.246l-.959.11-1.14.027-.762-.24-.71-.523-.868-1.018-1.812-2.38-.875-.956-1.48-1.032M369.211 416.332l-.035.698-.168.436-.982 1.101-.49.427-.537.288-.875.18-1.555.357-1.163.433-.506.358-.588.812-.786.99-1.215 1.17-1.056 1.038-.839.922-1.041.475-.604.028-.559-.159-.581-.344M476.203 415.53l.182-.622.203-.258.363-.217.551-.103.724.02 1.982.561 3.726 1.874 2.869 1.534 5.465 2.676 4.71 2.429 2.809 1.217 1.245.668 1.034.825.56.99.157.806.114 1.017.045.407.144.192.596.599.272.323.188.516.03 1.273-.007.866.121.99.332.716 2.446 3.976M438.666 465.254l-.785.176-.343.178-1.736 1.441-.944.757-.425.273-.489.133-.593.032M429.615 471.62l3.204-2.397.264-.296.144-.303.124-.38M471.138 432.972l-4.642 3.336M472.165 434.478l-.627-.976-.4-.53M461.278 426.005l.658.157.972.43 3.485 1.634 1.354.843 1.149 1.027 1.804 2.277.438.6" clip-path="url(#p8f8fcf3225)" style="fill:none;stroke:#000"/><path d="m429.612 475.542.26-3.24-.034-.228-.076-.21-.147-.245M438.666 465.254l.775 2.744M438.666 465.254l6.669-1.534M439.441 467.998l3.607-.755M437.547 472.617l.388-.824 1.506-3.795M369.211 416.332l.43.186.476.164.882.304.877.034" clip-path="url(#p8f8fcf3225)" style="fill:none;stroke:#000"/><path d="m371.876 417.02-.152-1.767-.297-1.594.143-.234.257-.155.857-.072 1.204-.013.324.075.276.168.193.479.131 1.33-.03.221-.253.268-.512.406-.88.51-1.261.378" clip-path="url(#p8f8fcf3225)" style="fill:none;stroke:#000"/><path d="m371.876 417.02 1.26-.379.88-.51.513-.405.254-.268.03-.22-.132-1.331-.193-.479-.276-.168-.324-.075-1.204.013-.857.072-.257.155-.143.234.297 1.594.152 1.767M348.29 395.725l-.386.45-.166.23-.115.278-.104.432M445.724 444.057l-3.98 2.32M482.258 429.216l-2.884-5.64-.106-.764.023-1.232-.113-.577-2.439-4.348-.536-1.125M480.702 415.94l-1.208-.384-.603-.07-1.147-.166-.485-.012-1.056.222" clip-path="url(#p8f8fcf3225)" style="fill:none;stroke:#000"/><path d="m471.436 417.599.687-.452.91-.617.95-.467 1.111-.323 1.11-.21M150.901 253.984l2.091-.354 1.768-.044 1.89.285 1.928.68 1.609.812 1.184.73 1.369 1.082.723.652.853.977.793 1.093 1.72 2.367.914 1.088 2.71 2.649 4.353 3.914 6.057 5.43.99.908 1.071 1.376.868 1.424.908 2.117.346 1.165.15 1.004.284 2.203.19 2.193.184 1.563.37 1.362.792 2.003.423 1.32.286 1.321.174 1.562.219 3.468.211 1.431.37 2.03.544 2.016.453 1.582.505 1.362 1.186 2.979.611 1.363.583 1.132 1.017 1.723 1.578 2.353.929 1.3.702.925 1.125 1.397 2.974 3.85.966 1.21.959.998.974.832.936.668 1.125.66 1.48.647 3.713 1.341M238.798 334.418l-.693.309-2.352.779-1.844.447-1.104.212-1.114.186-1.587.2-2.099.025-2.176-.146-1.121-.137-2.076-.348-1.174-.276-1.268-.371-2.903-.99-6.228-2.175" clip-path="url(#p8f8fcf3225)" style="fill:none;stroke:#000"/><path d="m173.862 340.65 3.295 1.205 1.555.475 1.774.31 1.374.178 1.476.268.626.172.978.317.713.23.627.065 1.407-.158 1.416-.299 1.016-.351.992-.574 1.688-1.125 1.173-.884 2.518-1.48.943-.42 1.329-.398 1.336-.358.327-.101.308-.14.762-.55.906-.695.328-.201 1-.487 1.722-.894 2.581-1.06 1.42-.581.649-.327.958-.654M431.975 448.95l-.56-.852-.482-.949-.688-2.497-.37-2.448.167-2.587.27-1.5M412.32 433.79l1.181-.392 1.345-.012.83.033 2.234.688 12.403 4.01M485.368 456.731v1.025l-.045 1.121-.272.716-.332.412-.959.53-.687.55M483.013 464.648l.317-.371.049-.224-.004-.26-.083-1.215-.219-1.493M348.29 395.725l4.178 1.647 4.816 1.72M357.19 401.082l.079-.456.023-.99-.008-.543M482.258 429.216l-10.093 5.262M488.765 425.28l-.634.524-1.51 1.43-.898 1.273-.272.207-.46.04-.86-.075-.71.097-1.163.44M469.387 418.876l-.925.486-.389.069-.51.075M459.996 424.305l1.804-1.143 5.568-3.57.196-.086" clip-path="url(#p8f8fcf3225)" style="fill:none;stroke:#000"/><path d="m464.684 412.868 3.638 5.479-.758 1.16M387.85 430.495l-1.329-2.38-.792-1.045-.77-.791-1.737-.977-1.359-.571M488.743 466.63l-1.065.103-1.194.154M485.368 456.731l1.744 2.738.589 1.341 1.042 5.82" clip-path="url(#p8f8fcf3225)" style="fill:none;stroke:#000"/><path d="m501.534 467.102-1.723-.381-2.681-.125-2.461-.132-1.764.017-1.083.01-3.08.139M456.53 445.856l6.503-3.112M459.731 450.073l-.113-.874-.21-.805-.484-.571-.71-.654-1.684-1.313M472.165 434.478l6.965 11.657M367.619 413.683l.596.867.453.75.338.53.205.502M461.278 426.005l-1.99 1.266M461.278 426.005l-1.282-1.7M501.534 467.102l-7.145-.053-3.639.344-30.322 4.707M520.324 470.789l-7.666-1.78-3.518-.797-4.295-.791-3.31-.319M387.85 430.495l2.99-2.187M383.388 433.81l.703-.419.407-.24 3.352-2.656M485.202 456.443l.166.288M474.543 464.67l-.166-1.845-.302-3.143.15-.295.325-.22 1.034-.214 1.616-.324 2.053-.48 1.676-.469 2.688-.77 1.585-.467M479.13 446.135l.176.292 5.232 8.873.664 1.143M429.612 475.542l-.521.127M354.84 419.913l4.331-2.282M357.19 401.082l-.647-.402M481.997 467.603l-1.087.215M486.484 466.887l-1.7.233-2.787.483M367.49 409.246l.09 3.137.039 1.3M382.003 432.69l.29 1.368.212 1.57.095 1.045.015.148.053.079.12.051.725-.068.036-.014.03-.031.015-.074-.206-2.953M433.937 445.203l-.423-3.708M431.975 448.95l.4-1.013.278-.636.332-.6.952-1.498M408.451 427.892l-.615 1.407M409.938 426.774l-.453.296-1.034.822M402.42 439.431l.143.537.18.585.295 1.045.099.488-.038.785.045.963.053 2.098-.015 1.348-.034 3.529-.038.237-.102.268-1.041 2.184-1.79 2.91-2.559 3.405-.801.84-.777.77M402.42 439.431l.875-1.5 1.291-2.434 3.25-6.198M390.84 428.308l2.911-2.287M390.84 428.308l2.466 2.79" clip-path="url(#p8f8fcf3225)" style="fill:none;stroke:#000"/><path d="m393.306 431.099 5.603 6.337.59.612.897.537 1.487.667.537.18M320.269 416.928l1.297 2.548.257.88.082.67-.004.394-.082.468-.189.449-.153.26-.256.283-.31.26-.35.153M302.693 430.709l2.139-.676 1.018-.385.924-.432.569-.342.491-.334.719-.586.453-.486.468-.288.564-.243.929-.28 1.698-.42 1.069-.323 1.147-.495.957-.474 1.5-.634 1.37-.488.88-.245.974-.285M332.802 438.964l-1.613 1.294-.78.563-.437.206-.85.143-.764.03-.791-.116-.405-.127-.491-.322-.563-.532-.277-.402-.134-.383-.062-.456-.004-.363.13-1.322.036-.69-.045-.564-.084-.52-.26-.691-.374-.832-.686-1.245-.435-.88-.434-1.105-.21-.77-.209-.829-.06-.575.019-.464.162-.743.053-.676-.05-.478-.163-.481-.147-.277-.255-.251-.634-.521-1.423-1.292M306.52 376.312l.887 1.458.62.794 1.6 1.693 2.438 2.057 1.752 1.3 1.094.69.985.486.718.306.403.172M318.256 385.705l-.518-.172-.72-.265M320.17 400.771l-1.035-.719-.563-.53-.592-.657-.782-.956-.18-.433-.042-.337.011-.344.125-.337.834-2.388.362-1.313.045-.63-.026-.633-.604-2.425-.23-.674-.57-1.204-.215-.492-.03-.21.022-.247.317-.974M324.178 389.874l.275-2.064M324.114 392.509l-.016-1.108.023-.894.057-.633" clip-path="url(#p8f8fcf3225)" style="fill:none;stroke:#000"/><path d="m329.624 391.18-.872-.233-2.185-.588-2.39-.485M323.31 402.45l.879.034.932-.02M330.017 399.653l-1.59.98-1.51.967-1.052.636-.348.144-.396.083" clip-path="url(#p8f8fcf3225)" style="fill:none;stroke:#000"/><path d="m326.997 412.008-.524-2.493-.413-1.954-.469-2.39-.47-2.708M320.17 400.771l2.547 1.396.593.283M323.313 397.302l-.028.228-.02.396.04 1.07.091 1.789-.015.852-.071.813" clip-path="url(#p8f8fcf3225)" style="fill:none;stroke:#000"/><path d="m318.843 414.006.071-.392.187-.266.719-.451 1.338-.72 1.015-.685.56-.525.347-.386.361-.654.292-.853.064-.63-.03-1.396-.121-1.144-.348-2.058-.045-.44.007-.478.05-.478M327.313 414.162l-.316-2.154M339.917 392.925l.68.24.75.273M339.264 394.16l1.216-.42.868-.302M339.917 392.925l-.049.33-.101.327-.17.255-.333.322M330.017 399.653l3.533-1.69 1.472-.814.52-.368.65-.55.997-.867 1.162-.82.913-.385M320.269 416.928l-1.306-2.566-.12-.356M302.693 430.709l.436-.938.262-.502.138-.287.106-.318.051-.287-.01-.327-.126-.387-.2-.339-.604-1.21-.457-1.084-.3-1.084-.023-.237.033-.289.132-.505.828-2.571.659-1.667.12-.187.191-.138.366-.146.481-.055 1.733-.141.582-.14.267-.1.166-.101.151-.158.287-.746.098-.162.16-.208.465-.57 1.189-1.158.84-.613.447-.202.45-.149.443-.063.54-.01 1.924.19 1.144.094 1.216.058 1.965.034M330.889 389.864l4.892 1.606 4.136 1.455M324.114 392.509l.203 3.605M324.114 392.509l1.479.323" clip-path="url(#p8f8fcf3225)" style="fill:none;stroke:#000"/><path d="m326.997 412.008.293-.223.317-.306.26-.375.265-.465.386-.796.197-.507.268-.857.21-.987.152-.526.226-.393.559-.656 1.155-1.4.234-.351.092-.298-.018-.186-.085-.184-.217-.49-.783-1.997-.491-1.358M257.818 439.906l.427.027.604.038 1.03.004.941-.09.799-.115.338-.045.602-.01.589.093 1.279.494 1.204.416 1.237.304.415.07.562.047.672-.005.723-.087.402-.077.382-.138.269-.135.57-.3.581-.285.634-.275 2.114-.753 4.491-1.82 1.076-.536.763-.403 1.193-.69 1.022-.641.491-.265.542-.187.84-.207.973-.011 1.48.03.596.042.612.051.827.155.747.175 1.125.238 1.049.065.977-.003.816-.072.619-.142.371-.11.255-.122.78-.435.81-.492 2.32-1.466 1.106-.576 1.492-.585 1.128-.368M404.014 425.474l1.359.24M405.373 425.714l1.232.3M424.198 476.109l.224.298.253.158.33.052.403-.042.331-.191.246-.236.192-.352.456-.744M427.904 476.04l1.187-.37M342.988 474.034l1.039-.644.44-.352.81-.713M348.248 503.106l-.68-1.403-1.92-4.358-2.885-5.89-4.397-9.481-1.393-2.936" clip-path="url(#p8f8fcf3225)" style="fill:none;stroke:#000"/><path d="m342.988 474.034-1.03.485-.468.286-.365.237-.449.406-2.93 2.865-.773.725M314.396 479.503l2.672.15 3.58.168 1.197-.004 1.653-.062 1.104-.078.98-.186 1.33-.321 5.626-1.48.555-.053.693.16.89.279 1.178.412.485.198.386.185.248.167M314.396 479.503l-3.016-.172-8.663-.632-.27.026-.282.12-.185.126-.169.207-.164.28-.158.372-.172.918-.266 2.08-.2 2.133-.026 1.083.049.726.123.614.135.324.204.354.372.799.226.789.332 1.343.008.736-.033.44-.08.491-.134.357-.196.549-.304.609-.949 1.728-.658 1.019-1.315 2.28-.785 1.648-.8 1.296-2.332 2.669-1.005 1.31-.24.359-.14.254-.132.478-.047.202-.113.324-.315.454-2.402 2.746M354.713 512.374l.668.616.657.674M360.9 516.03l-1.706-.667-1.14-.468-.68-.316-.634-.386-.702-.53" clip-path="url(#p8f8fcf3225)" style="fill:none;stroke:#000"/><path d="m349.482 517.808.977 1.524.343.423.187.177.113.042.147-.006.2-.094.173-.178 1.297-1.847 2.127-2.826.992-1.36M352.826 535.897l.344.169 2.038 1.06.241.068.182-.028.657-.646.128-.062.12-.014.16.034 4.31 2.07.196.049.136.007.158-.042 1.155-1.485.095-.258.022-.158-.049-2.019M350.78 536.01l.967-1.483M350.78 536.01l.62-.022.73-.025.696-.066M345.992 541.947l1.747-1.554 1.756-2.488 1.285-1.894M316.615 578.625l-.668-.432M319.58 577.617l-1.01.198-1.006.36-.949.45M320.262 590.22l-.417-.092-1.407-1.339-1.281-1.822-.382-.871-.267-.87-.209-1.652.082-3.947.234-1.002M315.947 578.193l5.367-3.397 2.596-1.907 2.238-2.103 1.983-2.117 1.53-1.979 2.805-4.383 13.526-20.36M351.639 586.51l-1.236-.521-1.877-.813-2.54-1.355-.778-.792-1.213-1.314-.778-.354-1.327-.521-1.03-.188M337.838 573.98l.951.537.801.92.399 1.162-.04 2.106.319 1.38.592.567" clip-path="url(#p8f8fcf3225)" style="fill:none;stroke:#000"/><path d="m333.952 587.446.21-.109 2.439-1.652 2.417-3.304.869-1.236.973-.493M326.25 589.512l-5.478.821M333.952 587.446l-2.533 1.315-1.416.339-3.753.412M327.472 585.09l-1.574.037-.558.381-.24.363v.58l.1.509 1.05 2.552M323.141 593.962l1.36-1.1 1.237-1.362.468-.78.183-.844-.14-.364M320.981 592.19l.276.516M317.178 597.412l.36-.474 1.244-.886 1.05-1.16.775-1.282.374-1.42M320.772 590.333l.346.97-.137.887M317.178 597.412l-.584.771-.413 1.44-.368.643-.995.684M303.377 256.705l2.566 2.917M307.817 374.375l1.266-2.133 3.39-3.756 2.963-2.116.29-.492.166-.69.25-2.739.23-.544.385-.567 1.793-2.146.325-.661.143-5.407-.174-.792-.347-.632-.793-.688-3.2-2.147-2.076-1.076-.23-.32-.035-.262.117-.382 2.197-2.593.242-.657.11-.678-.107-1.414-.124-.932-.045-1.317-.178-.881-.55-1.614-1.556-1.327-.26-.61.2-.632 1.219-1.507 1.876-2.202 1.03-1.788.12-.592-.026-2.16-.082-1.507.158-.495.453-.358.996-.578.423-.406.65-.894.377-1.053.944-4.967.219-.84-.076-.846-.377-.647-.529-.598-.68-.468-.705-.182-.465.013-1.875.383-.374-.08-.28-.254-.075-.265.298-.841 2.808-4.766.178-.492-.106-.75-.868-1.256-2.646-3.423-1.366-2.387-.906-1.528-.366-.974-.2-1.864.177-.956.242-.471 1.245-1.906.144-.747-.057-.767-.238-.925-.241-.475-1.246-1.108-1.268-.84-.385-.598-.257-.832-.038-1.35-.128-.522-.222-.35-.34-.324-1.268-.785-.808-.68-1.03-.507-2.33-.33-.483-.255-.411-.398-1.09-1.913-.043-.337.118-.32 1.264-1.548.26-.489.79-2.401 1.233-2.625.299-1.559.208-.285.35-.285.525-.279.566-.633.132-.485.008-1.906-.619-1.851-1.072-1.934" clip-path="url(#p8f8fcf3225)" style="fill:none;stroke:#000"/><path d="m311.333 251.806-.657.654-.657.557-.784.571-.4.379-.348.57-.566 1.425-.536 1.286-.627 1.15-.815 1.224M289.581 338.288l.69.454 3.891 2.435 1.937 1.2 1.178.785.943.936.733.862.927 1.156 1.715 2.522 2.506 3.536.581 1.139.536 1.331.234.998.083 1.348-.226 1.53-.992 3.94-.39 2.036-.165 1.5-.02.938.084 1.118.143 1.239.29 1.317.287.895.612 1.884.502 1.25.347.784.513.89M307.817 374.375l-.478 1.066-.415.592-.404.279M241.559 443.564l-1.442 1.523-2.734 2.355M236.495 448.073l.253-.131.3-.229.335-.27" clip-path="url(#p8f8fcf3225)" style="fill:none;stroke:#000"/><path d="m246.352 455.359-1.635.285-1.488.269-2.211.378-.455-.032-.279-.095-.174-.177-.113-.23-.44-1.134-.74-1.964-.207-.702-.116-.548-.154-.912-.129-.577-.187-.676-.247-.685-.177-.502-.217-.615M236.495 448.073l-.162.084-.743.351-1.023.35-1.627.348-1.906.334-1.072.196-.413.148-.47.23-.543.44-.793.657-.544.382-.73.457-.923.42M214.487 450.411l.524-.005 1.05.285.566.163.649.336 1.26.77.832.42.605.324.532.2.7.156.865.086 1.185-.097.621-.09.932-.207.738-.282" clip-path="url(#p8f8fcf3225)" style="fill:none;stroke:#000"/><path d="m224.976 453.478.29-.392.184-.243.096-.373M226.535 457.804l-.362-.75-.35-.813-.286-.706-.155-.513-.168-.614-.238-.93" clip-path="url(#p8f8fcf3225)" style="fill:none;stroke:#000"/><path d="m216.991 463.936.58-.531.92-.574.777-.44.374-.155.714-.204.915-.176.517-.122.293-.222.174-.282.071-.24.006-.278-.025-.308-.035-.268-.123-1.011-.102-.996-.022-.323.006-.294.016-.445.011-.425.023-.468.106-.549.113-.328.211-.326.279-.29.325-.213.902-.427.96-.563M197.587 449.683l-.32.063-.199.052-.367.21-.315.283-.336.452-.489.874-.94 1.64-.566.943M168.585 457.97l.611.144.616.334 1.057 1.007 2.74 2.978.452.455.642.364.83.371 1.101.345 1.655.454.389.075.389.028.51-.052.671-.265.66-.36.755-.513 1.684-1.259 1.393-1.066.6-.475.65-.492.799-.753.5-.526.548-.5.872-.611.713-.52.306-.185.368-.151.98-.356.564-.17.577-.195.438-.273.377-.288.26-.268.763-1.047" clip-path="url(#p8f8fcf3225)" style="fill:none;stroke:#000"/><path d="m191.719 484.981 1.117-1.571 1.185-1.793.805-1.148 1.205-1.647.658-.987.246-.456.078-.34.031-.281.008-.385-.057-.705-.262-1.393-.179-1.169-.163-1.077-.122-1.487-.1-1.515-.083-1.073-.11-.719-.543-3.17-.295-1.927-.266-1.966-.455-3.42-.362-2.552M217.678 475.582l-.9-1.033-.63-.81-.578-.822-.428-.898-.25-.779-.165-.59-.108-.536.004-.351.086-.984.287-1.259.64-1.508.636-1.11.72-.966" clip-path="url(#p8f8fcf3225)" style="fill:none;stroke:#000"/><path d="m229.789 474.32-.348-1.74-.717-3.53-.634-3.404-.413-2.196-.063-.2-.076-.103-.185-.06-.188-.007-3.046.225-3.593.34-2.186.172-1.349.12M489.874 469.118l-5.538 1.015-.048-.22 2.83-.518-.363-1.87-2.413.37-.047-.254 2.264-.348-.075-.406M489.603 468.673l.271.445M489.603 468.673l2.227-.207 4.688-.248 3.782.076 3.812.296 4.703.77 3.609.743 4.227.86 9.976 2.37 28.705 6.276 24.074 5.49M489.603 468.673l-17.765 2.816M461.127 451.733l.36.214.48.56.626 1.328.219 1.706.264 1.252.166.4 2.367 3.444.887 1.26.392 1.452v1.306l-.264 1.349-.196.956-.452 2.097-.155 1.081M465.821 470.138l-6.92 1.129-8.832 1.34M465.821 470.138l3.834-.532M450.069 472.607l-6.058.894-5.062.874-.664.247M460.428 472.1l-1.155-.062-3.953.538-.816.066h-1.8679999999999999l-1.23-.028-1.337-.007M454.93 474.169l16.908-2.68M472.826 543.109l-.261-.468-.095-.279-.124-.615-.28-.585-.362-.433-.377-.255-1.011-.268-.77-.048-1.367.193-1.714.151-.588.062-.635.158-.747.337-1.148.564-1.14.371-.95.324-.665.433-1.367.911-.947.419-.652.204-.537.027-.55-.048-.703-.426-1.978-1.163-.777-.447-2.386-.921-1.102-.536-.649-.358-.808-.51-.34-.419-.354-.743-.808-1.987-.823-2.29-.332-1.315-.166-1.155-.007-.846.045-.646.143-.592.212-.502.423-.846.437-1.293.12-.88.137-1.658.083-.62.249-2.551v-2.455l.438-2.528.132-.502.294-.654.42-.853.074-.509-.124-.368-.196-.182-.434-.137-.774-.22-.532-.324-.287-.368-.034-.244.03-.227.11-.223.238-.227.97-.41.863-.445.594-.602.362-.803.461-1.185.23-.933.057-1.309.079-.449.102-.388.184-.592.123-.454.03-.715.044-.609.173-.87.208-.774.15-.223.318-.19.415-.075 1.011-.048 1.009-.124 1.14-.275 1.15-.196.34-.128.167-.116.101-.135.038-.161-.094-.244-.366-.716-.469-1.131-.414-1.341-.54-1.135-.125-.413-.034-.516.053-.62.128-.363.328-.785.227-.757.05-.522.082-.327.268-.312.412-.289.545-.4.266-.32.173-.32.069-.333-.012-.241-.084-.312-.252-.489-.15-.433-.08-.447-.098-.461-.253-.392-.381-.358-.415-.523-.136-.522v-.66l.143-.812.226-1.184.25-1.527.053-1.141-.189-.901-.536-1.156-.475-2.057-.069-.701M230.285 490.103l.13-.264.105-.095.263-.073.3-.072.457-.12.202-.094.134-.22.111-.421.106-.777.036-1.087-.102-1.95-.182-.915-.283-1.073-.547-2.187-.2-1.015-.096-.5-.068-.282" clip-path="url(#p8f8fcf3225)" style="fill:none;stroke:#000"/><path d="m217.678 475.582.892.898.821.706.531.394.997.544 1.63.75.736.306.65.13.68.03.793-.152.678-.212 1.278-.378.452-.088.79-.056.703.069.44.134.454.146.448.155M229.789 474.32l.58 2.916.282 1.722M522.126 491.125l.782-2.137.555-1.413.038-.994.134-1.674.306-1.064.383-.89 1.11-.82 1.187-.436 2.221-.07 3.177-.209 1.053-.14 1.13-.052 1.071-.627M520.347 601.76l-1.154-.483-1.455-1.57-2.315-4.08-1.092-3.801-.42-1.29-.594-.42-1.359-.557-2.89-.593-.823-.296-.44-.524-.422-4.725-.038-.942.65-.924 1.034-.366 1.876-.838 1.34-1.08 1.665-.977 1.187-.942.708-.82-.057-1.22-.21-1.151.076-1.204.421-1.378.957-2.458 1.072-3.087.861-4.08.517-1.17.574-1.028.02-.732-.383-1.238-.594-1.605-.019-1.552.23-.994.44-.872.785-1.046 1.856-1.814.824-1.517 1.588-3.07.555-1.116.517-2.127.115-.924-.287-.628-.555-1.1-1.32-2.126-.786-1.291-1.167-3.052-.173-1.326-.287-1.01v-.995l.21-1.15 1.494-4.187.727-.714 1.206-.088.938-.296.88-.576.977-.733 1.608-.505 1.148-.558.67-1.78.364-.854.555-.61.268-.872v-1.988l-.613-1.43-.689-1.134-1.8-.976-1.913-1.448-3.56-2.703-.996-1.03-.727-.819-.192-.61.192-.907.134-.942-.23-.698-1.148-2.127-1.436-2.093-1.57-1.884-.689-1.308-.403-1.476-.499-1.182-.271-.55-.265-.723M522.126 491.125l-1.402-.096-4.979-.359" clip-path="url(#p8f8fcf3225)" style="fill:none;stroke:#000"/><path d="m489.874 469.118 2.197 3.744.446.474 5.194 4.024 2.332 1.761 1.942 2.577 2.422 3.456 1.706 1.767 3.148 1.995 2.09.894 4.394.86M583.43 504.179l-.919.523-.918.192-3.484.07-3.388-.576-2.833-.663-4.077-.784-2.373-.68-1.206-.925-1.053-1.133-1.512-2.6-1.32-1.604-1.915-1.412-3.311-2.338-5.016-3.139-1.703-.715-2.03-.401-1.32.297-5.359 2.668-2.66.994-1.092.174-8.096-.61-5.72-.392M248.57 504.557l-.328-1.74-.359-1.64-.027-.549.088-.308.098-.238.166-.177.214-.132.262-.096 4.961-.879 1.963-.34 4.252-.837M263.762 536.412l-1.594-2.033-2.61-3.465-.13-.227-.104-.237-.138-.734-.136-.962-.274-2.23.01-1.071.125-1.46.094-1.344.198-.841.42-.778.694-.942.94-1 .419-.324.547-.359 1.374-.819.207-.271.084-.15.035-.196.002-.277-.747-3.86-.562-2.618-1.292-6.104-1.094-4.684-.37-1.805M252.75 481.892l.127.03.306.01.188-.032.776-.223.757-.164.448-.023.295.117.295.193.172.154.19.242.336.863.34 1.07.449 1.406.43 1.702.34 1.61.653 3.789.125.65.534 2.685.35 1.65M618.683 516.996l.869 1.068.61.709.435.477.383.792.9 1.924.887 1.937.683.93.596.92.284.838.088 1.116.068 2.072.094.5.495.437 1.326.906.826.186.67-.031 1.976-.814 1.617-1.048 1.184-.79.25-.425.258-.666.42-.61.71-.74.657-.487.866-1.129 1.32-1.948.114-.241-.013-.284v-.758l-.196-.783-.623-.77-.9-.624-.961-.814-1.496-2.194-1.84-2.553-.71-.98-.55-.944-.107-.333.101-1.252.109-1.517.006-2.528.129-1.338.116-2.102M586.71 501.71l.798-.6 6.086-4.256 4.9-3.837 1.704-1.168 1.493-.35 1.359-.048.613-.021.937.174 2.01 1.152 2.355 1.726 2.43 1.343 2.45 1.395 4.824 2.215 5.82 2.913 2.105.959h.785l2.955-.202M583.43 504.179l3.28-2.47M472.826 543.109l.037.227-.064.674-.117.58.004.252.067.626.227.633.158.584.053.516-.135 1.382.022.317.227.825.392.825.25.324M411.35 497.727l.196 1.073.317 1.28.551 1.258.355.654.204.481.12.502.068.64.023.942M426.62 484.108l-.334.08-.22.047-.4.076-.652.044-.702.018-.529.051-.362.1-.246.141-.21.186-.265.327-.317.471-.374.553-.147.276-.343 1.056-.6 1.19-1.001 1.595-1.072 1.17-1.004 1.437-.506.62-.581.508-.468.35-.415.413-.234.434-.272.647-.34.673-.279.51-.423.433-.52.2-.65.082-.808.02-.996-.089M408.851 497.755l1.88-.083.619.055M461.127 451.733l-.407-.202-.807-.372-.264-.233-.129-.296.211-.557" clip-path="url(#p8f8fcf3225)" style="fill:none;stroke:#000"/><path d="m455.976 452.398.94-.808 1.14-.654.872-.51.256-.13.547-.223M360.9 516.03l-.717.901M406.398 478.017l-.412.478-.555.522-.732.441-.845.4-.921.295-1.706.323-4.688.764-3.427.557-1.865.378-1.782.379-1.781.577-2.597 1.19-2.892 1.796-1.765 1.544-1.624 1.84-.996 1.348-1.525 2.31-2.356 3.564-2.853 4.375-3.654 5.502-4.114 6.177-2.408 3.253M346.16 534.71l-.1.352.016.474.13.83.092.687.036.441-.011.503-.03.341-.06.282-.143.415-2.732 4.245-.323 1.002" clip-path="url(#p8f8fcf3225)" style="fill:none;stroke:#000"/><path d="m360.183 516.931-.325.413-1.29 1.891-1.261 1.775-1.465 2.641-3.434 5.004-1.612 2.311-.706.99-.623.578-.363.24-.507.252-.817.302-.708.294-.51.362-.231.318-.172.409" clip-path="url(#p8f8fcf3225)" style="fill:none;stroke:#000"/><path d="m351.87 531.008-.837.75-2.48 3.697-.21.225-.278.158-.354.076-.263-.003-.335-.09-.37-.158-.168-.182-.136-.186-.142-.225-.138-.36M351.87 531.008l-3.385 5.094-5.45 8.18M360.274 518.563l-6.276 9.2-1.408 2.13-.72 1.115M343.035 544.282l-11.563 17.561-2.66 3.991-2.23 2.777-1.933 1.995-1.98 1.829-3.077 2.201-4.289 2.629M406.398 478.017l.627-.391.176-.105.186-.09.28-.102.291-.068M407.481 476.2l-.32.369-.296.443-.26.492-.207.513M409.467 476.666l.027-.22-.03-.22-.086-.207-.137-.183-.18-.149M409.272 477.032l.12-.173.075-.193M408.373 477.381l.254-.007.244-.064.22-.116.18-.162M409.142 478.554l.032-.477.022-.397.076-.648" clip-path="url(#p8f8fcf3225)" style="fill:none;stroke:#000"/><path d="m408.373 477.381.362.41.177.279.125.238.105.246M407.958 477.26l.132.059.14.04.143.022M407.481 476.2l-.037.244.033.244.103.228.164.196.214.149M409.06 475.687l-.248-.117-.274-.051-.278.017-.264.086-.228.147-.176.198-.11.233M412.532 484.579l-.948-.014-.55-.21-.461-.405-.159-.266-.128-.278-.088-.253-.063-.26-.039-.264-.868-3.639-.086-.436M369.294 514.682l-.483.357-.256.262-.19.234-1.131 1.94-1.148 1.712M373.137 520.72l-3.405-.742-2.197-.364-1.071-.214-.378-.213M363.663 517.028l.611.515.8.77.604.606.408.268M373.688 501.936l.332.276.136.31-.023 1.691-.271 2.566-.501 2.898-.345 4.84-.31 1.877-.073 1.184.187 1.692.317 1.45M337.838 573.98l4.629-1.69 2.5-2.364 5.127-7.718 2.32-3.597 2.807-4.919 8.932-13.926 3.194-4.595 3.191-4.092 2.108-3.122.959-2.16.324-1.41-.09-.963-.702-2.703M425.831 507.908l.906-.944 1.75-1.114 1.071-.846 3.48-3.363.815-1.238.257-.833.038-.77-.083-.337-.559-.88-.71-.874-1.154-.915-.551-.942-.476-1.465-.393-1.328-.423-.474-.686-.44-1.51-.682-.83-.669-.144-.438.008-.474.279-1.314-.113-1.259-.083-1.345-.1-.856M424.825 515.624l-.808-.756-.34-.413-.12-.385-.046-.379.068-.502.257-.646.755-1.204.664-1.1.228-1.06.348-1.27" clip-path="url(#p8f8fcf3225)" style="fill:none;stroke:#000"/><path d="m419.722 532.682-1.48-3.432-.257-.447-.49-.31-.966-.22-2.076.069-.325-.076-.423-.234-.264-.344-.287-1.244-.098-1.438.189-.77.288-.526.451-.898.265-1.465.286-.399.363-.165 2.438-.454.997-.468.74-.557.483-.612.642-1.046.752-.997.56-.865.344-.834.238-.97.311-1.136.538-.959.755-.918.606-.562.425-.675.422-.943.682-.879M319.58 577.617l8.757-1.596 8.686-1.795.815-.245M320.772 590.333l-.51-.113M321.257 592.706l.194.363.694.536.498.302.498.055M324.773 596.824l-.158-.31-.83-1.265-.644-1.287M324.705 598.137l.106-.467-.038-.846" clip-path="url(#p8f8fcf3225)" style="fill:none;stroke:#000"/><path d="m329.054 595.854-1.616.165-1.419.22-.92.33-.326.255M320.262 590.22l-1.016.988-.676.474-1.162.11-1.613.411-.607.427-.538 1.106-.364.316-1.04 1.153M317.178 597.412l.177.338M317.355 597.75l.31.59.618.683 2.156.875" clip-path="url(#p8f8fcf3225)" style="fill:none;stroke:#000"/><path d="m321.257 592.706.05.642-.25.622-.973 1.234-.473.778-1.446 1.041-.81.727M344.73 477.543l-.838-1.631-.204-.4-.402-.831-.298-.647M409.742 484.94l-.37.337-.589.317-.755.165-1.328-.035-3.088-.35-3.163-.22-1.178-.145-1.985-.516-.883-.33-.995-.62M379.156 492.59l.93-1.308 1.439-1.942 1.76-1.62 1.554-1.113 1.754-.952 1.388-.607 1.637-.56 1.407-.314 4.383-.632M412.532 484.579l.047.463-.135.304-.332.158-.452.028-1.148-.344-.43-.165-.34-.083M408.934 483.255l.378.977.43.708M436.555 471.48l.992 1.137M429.521 479.163l-.031-.176-2.43.36-.02-.11 2.981-.443-.465-2.418 3.139-.443-.07-.242-2.533.38-.909.076-.078-.08-.014-.398M460.428 472.1l-11.578 1.697-10.12 1.816-4.262.63M438.285 474.622l-.552.344-.694.386-.721.275-1.85.616M448.598 350.907l.778 3.691.32 2.2M452.218 359.514l-.622-2.142-.229-.333-.457-.181-.528-.076-.686.016M447.758 357.126l.656-.123 1.282-.205M445.083 357.298l.782 3.759M447.758 357.126l-.625.038-2.05.134M447.758 357.126l1.089 3.159M460.72 385.355l-.578 1.354M460.142 386.709l-1.52 2.92-.406.435-.306.268M457.157 392.033l.63-.67.133-.2.049-.171-.06-.66M449.888 389.323l.55-.14.45-.231.589-.378.275-.242.147-.25.063-.214.005-.312-.103-.242-.474-.453M468.325 390.781l-.71-.396-.915-.355-1.552-.631-1.431-.703-1.045-.5-2.53-1.487M457.157 392.033l-.68.64-.692.904-.557 1.094" clip-path="url(#p8f8fcf3225)" style="fill:none;stroke:#000"/><path d="m460.421 393.623-1.98-.994-1.284-.596M460.421 393.623l-2.14 2.178M466.471 401.96l-.534-2.283-.295-.633-.438-.57-2.053-2.27-1.638-1.88-.4-.37-.692-.331" clip-path="url(#p8f8fcf3225)" style="fill:none;stroke:#000"/><path d="m470.155 399.227-4.543-5.638-1.306-1.534-.421-.231-.55-.063-.594.147-1.235.787-1.085.928M458.281 395.8l2.088 2.516M464.684 412.868l-.144.395-.305.53-1.558 1.39-2.536 1.87-2.295 1.57-2.395 1.437-3.337 1.795-.618.338M447.208 411.75l2.642 3.9.438.922.06.495-.097.618-.288.862-.015.282.196.701 1.352 2.663M415.555 410.822l-4.22.887h-.336l-.204-.169-1.46-2.851M371 369.662l.363.44.18.516.28 1.322.16 1.014.188.303 3.072 4.024 3.056 3.956M418.645 378.245l-4.449-4.898M409.697 365.311l2.678 4.862M411.252 373.236l-1.112-2.008M411.252 373.236l-2.232.978M407.915 367.127l.265.93M412.375 370.173l-2.235 1.055M414.196 373.347l-.785-1.294-1.036-1.88M410.14 371.228l-1.96-3.171M406.677 370.454l2.343 3.76M409.02 374.214l-1.854.837-.247.003-.153-.038-.225-.125-1.932-3.075.03-.303.302-.303 1.736-.756M408.18 368.057l-1.635.966-.219.271-.049.29.4.87M352.826 535.897l-.174-.21-.247-.267-.183-.238-.23-.301-.245-.354" clip-path="url(#p8f8fcf3225)" style="fill:none;stroke:#000"/><path d="m351.747 534.527 4.825-7.154 1.457-2.18 1.006-1.344 1.283-1.548.399-.554 1.752-2.528.537-.995.17-.304M345.992 541.947l5.254-8 6.706-10.007 1.156-1.716M363.663 517.028l1.373-2.027 1.7-2.64 2.046-3.128 3.07-4.82 1.836-2.477M363.663 517.028l-.488.892M373.688 501.936l.513-.763 1.215-1.754.688-1.396 2.667-4.372.385-1.062M379.156 492.59l-14.909 22.008M363.175 517.92l-.309-.123-1.197 1.94-1.282 1.947-.19-.057 1.275-2.051-1.923-1.08-1.26 1.922-.174-.08 1.285-2.024 1.046-1.297-.263-.086M315.303 577.265l-.354-.532-1.854 1.096.11.189 2.478-1.503 1.314 1.709.984-.595.275-.145 1.166-.178.158.31M333.952 587.446l1.688 2.98M260.735 555.18l-10.557-4.206-6.252-2.4-1.078-.357-.911-.263-1.361-.334-1.68-.44M262.465 564.038l-.495-1.58-.287-.92-.07-.279-.055-.353-.094-.647-.143-.894-.157-.936-.207-1.027-.214-.952-.037-.437-.008-.353.011-.279.026-.201" clip-path="url(#p8f8fcf3225)" style="fill:none;stroke:#000"/><path d="m272.71 556.668-.832.083-1.766.173-2.952.167-.523.005-.666-.08-1.155-.308-.789-.212-.723-.289-2.569-1.027M272.71 556.668l1.254 4.787M284.59 551.562l-1.605.613-.76.318-.605.302-.876.476-2.245 1.145-1.193.534-1.223.487-2.342.805-1.031.426M282.89 585.605l.003.193-.006.688-.244.677-.936.963-.936 1.238-.211 1.348.483 1.485 2.693 4.032M315.303 577.265l-9.871 6.211-4.193 2.455-6.51 3.756-10.993 6.542M273.964 561.455l1.787 6.541.21.75.214.459.517.806M284.173 580.461l-3.47-4.637-1.792-2.853-1.096-1.634-1.123-1.326" clip-path="url(#p8f8fcf3225)" style="fill:none;stroke:#000"/><path d="m284.819 564.969-1.13.168-1.289.31-.972.959-.447.838-.947 1.604-.42.504-2.922.66M273.964 561.455l-6.11 1.425M282.89 585.605l.066-.258.092-.204.638-.871 1.012-1.046.378-.825-.151-.935-.752-1.005M269.638 592.218l.035-.98-.105-.948-.208-1.232-.693-1.928-.764-1.959-.346-1.517 1.248-1.106 1.63-1.042 1.457-.57 1.457-.158 8.013.253 2.011-.221.8-.349M263.325 590.999l.528 1.1.544.564.574.014.815-.44 1.087-.372 1.042.22 1.042.248.68-.115" clip-path="url(#p8f8fcf3225)" style="fill:none;stroke:#000"/><path d="m282.89 585.605-.63.004-.66.176-.61.496-1.027.852-5.028 2.641-5.297 2.444M353.26 402.924l3.283-2.244M318.256 385.705l1.237-.84.725-.38.838-.29.823-.12.85.01.743-.09.796-.278 1.34-.84.827-.38.947-.287.77-.113.835.003.732-.04.562-.132.585-.289.49-.378.446-.495.299-.502.248-.688.363-.743M318.256 385.705l5.641 1.917M326.11 388.34l-1.657-.53M326.11 388.34l.589-2.346M330.889 389.864l-.49-.138-4.289-1.386M324.453 387.81l-.556-.188M402.153 398.58l-1.39 2.65M459.287 427.271l1.985 3.245.649 1.053.86 1.128 1.458 1.417 2.257 2.194M408.566 421.804l3.796-.54M431.135 378.379l2.56 2.877M480.91 467.818l-3.019.58M333.066 382.65l-.679.434-.68.516-.777.688-.627.567-.754.547-.714.34-.532.228-.332.103-.407.025-.865-.104M327.084 384.962l-.155.282-.117.262-.113.488M326.046 394.49l-.518-.41M326.046 394.49l1.363-1.245M326.046 394.49l-1.729 1.624M325.528 394.08l.06-.121.013-.14-.03-.117-.083-.119-.152-.099" clip-path="url(#p8f8fcf3225)" style="fill:none;stroke:#000"/><path d="m325.011 394.234-.126-.064-.102-.105-.061-.161.007-.14.095-.171.152-.105.21-.036.15.032" clip-path="url(#p8f8fcf3225)" style="fill:none;stroke:#000"/><path d="m325.593 392.832-.085.218-.172.434M323.313 397.302l-1.281.162M324.317 396.114l-.672.69-.233.317-.099.181M329.624 391.18l.317-.327.948-.99M323.897 387.622l.36-2.27M325.011 394.234l.152.024.22-.054.145-.125M325.011 394.234l-.694 1.88M456.89 399.913l-1.107.686-.362.399-.702 1.19-1.201 1.918" clip-path="url(#p8f8fcf3225)" style="fill:none;stroke:#000"/><path d="m464.684 412.868-.253-.286-1.212-1.61-3.26-3.783-1.043-.867-.513-.908-.181-.77.007-1.34-.173-1.185-.189-.585-.393-.805-.585-.816M325.593 392.832l1.816.413M327.409 393.245l2.215-2.065M393.751 426.02l.9-.63M393.751 426.02l-2.956-3.737M461.283 357.427l-.03-.746-.104-1.062-.18-.576-.271-.563-.653-.936-.363-.376-.388-.196-.51-.082-.555.079-.415.203-1.15.809" clip-path="url(#p8f8fcf3225)" style="fill:none;stroke:#000"/><path d="m461.283 357.427-.986-.172-.638-.036-.319-.272-.916-.255-.637-.417-.02-.708-.28-.363-.823-1.223M460.984 359.126l.116-.56.172-.743.01-.396M457.25 360.25l.816-.197 1.234-.565.658-.29 1.026-.072M457.25 360.25l-.806-1.636M470 368.631l-.655-.125-.513-.103-.234.017-.2.052-.815.45-.242.073-.344-.052-1.225-.753M469.994 369.753l-.085-.387.022-.35.07-.385M379.87 370.323l1.307 1.1.06.159-.068.179-.706.897-.036.12.04.106 1.24 1.07M387.678 377.698l-1.905 1.905M453.984 365.414l.997-.363 1.191-.57.637-.417M452.143 376.709l1.183-.408 1.022-.59M320.17 400.771l1.095-1.697M354.713 512.374l.302-.375.03-.096.004-.096-.04-.186-1.145-4.534M381.838 396.809l2.73.779M408.54 388.322l.968.378.723.44.635.6.447.547.226.546.079.43M379.259 406.691l.165-.086.133-.124.088-.153M379.645 406.328l.59.89M379.259 406.691l.976.526M406.605 426.014l.36.099.346.131M390.397 384.785l.26-1.904.177-.513.486-.655.46-.436M407.954 387.363l-.08-.212.053-.373.11-.464M408.037 386.314l-.56.389-.317.189M407.666 387.5l.288-.137" clip-path="url(#p8f8fcf3225)" style="fill:none;stroke:#000"/><path d="m407.16 386.892.325.308.089.115.092.186M407.954 387.363l.263.383.324.576M467.542 371.876l-.33.04-.385.154-.315.252M523.128 398.893l-3.926 1.155-1.253 3.784-.256.647-.423.688-1.45 1.3-.452.2-.49.15-.431-.068-.816-.296-.671-.11-.703.048-1.003.083-.883.247-4.281 1.858-.823.193-.996.075-1.367.041-1.08-.103-3.313-.543-1.895-.275-4.069-.455-1.713-.426-1.261-.255-.967-.406-3.585-1.974-.4-.371-.317-.35-.355-.331-.816-.214-2.71.021-.679.22-.4.44-.376 1.096-.734 1.128-1.855 1.848-4.894 3.99-.706.382-.562.093-5.533.465M128.481 264.343l1.513.306 2.254.065 1.887-.234 1.812-.585 1.14-.495.989-.592 10.19-7.733 1.076-.606.939-.325.62-.16M158.88 248.789l-2.524.46-.499.114-.532.214-.687.399-.638.505-.494.575-.8.867-.348.31-.217.193-.179.114-.29.116-.78.096-.27.096-.128.11-.053.185.034.132.426.709M132.995 273.329l-1.63.99-1.08.33-1.895.131-.404-.003-.332-.117-.196-.148-.215-.272-.374-.79-.385-1.305-.079-.63.068-.732.328-.94.185-.691.332-.943.37-1.015.283-.777.253-.929.257-1.145M158.68 471.78l1.74-.98 1.57-1.082.4-.406.227-.43.106-.856-.211-.88-.77-.853-1.933-1.713-.887-.74-.393-.423-.2-.443-.015-.286.053-.306.246-.416.505-.444 1-.382 1.933-.578.566-.199.627-.433.921-.936.589-.584.26-.186.25-.114.569-.11.442-.061 1.71-.059.6.09" clip-path="url(#p8f8fcf3225)" style="fill:none;stroke:#000"/><path d="m158.88 416.562.204.33.095.379.079 1.042.185.584.74 1.603.653 1.63.588 1.404.604 1.307.688 1.462.207.595.767 2.002 1.841 4.512.83 2.05 1.344 2.972.597 1.314.596 1.644.529 2.118.558 2.16.778 4.313.264 1.988.045 1.005-.075.502-.257.395-.324.33-.518.44-.626.493-.417.381-.455.556-.085.196-.013.24.053.2.156.394.108.385-.034.482M170.015 484.693l-.86-1.885-.899-2.325-.589-2.18-.297-.427-.276-.124-.419-.024-.317.134-.434.358-5.919 6.04-3.246 3.562M178.281 504.392l-.456.138-.343.041-.314-.027-.355-.145-.683-.674-.555-1.052-1.076-3.247-1.396-3.927-.506-1.72-.702-2.455-1.23-4.017-.65-2.614M191.719 484.981l-.868-.144-.785-.108-1.616-.093-1.483-.033-1.516.049-3.738.061-5.111.203-4.182-.03-.83-.025-.635-.051-.94-.117M178.281 504.392l1.201-1.864 1.42-1.916 2.709-3.913 2.546-3.8.625-1.022 1.806-2.658 1.459-1.95 1.672-2.288M179.225 512.061l1.736-5.956.144-.757.03-.24-.09-.207-.325-.158-1.072-.096-1.367-.255M158.68 471.78l-.879-.384-.472-.298-.615-.513-.838-.664-.875-.74-.525-.598-.483-.612-.453-.526-.657-.544-1.438-.959-1.85-1.163-3.887-2.297-1.337-.77-1.419-.689-.219-.175-.094-.151-.02-.157.031-.127.162-.186.665-.383 2.638-.96 1.14-.438.485-.277.146-.21.102-.299-.061-.653-.295-.365-1.713-.915-1.57-.873-2.257-1.273-.929-.605-.672-.626-.71-1.025-.2-.276-.268-.21-.479-.24-.358-.086-.336-.169-.257-.378-.336-1.104-.257-.894-.354-.963-.189-1.025-.25-1.307-.497-2.25" clip-path="url(#p8f8fcf3225)" style="fill:none;stroke:#000"/><path d="m101.913 505.002.463-.142 1.737-.674.724-.434.195-.2.19-.288.226-.777.303-1.156.256-.468.21-.206.319-.144.773-.193.79-.254.985-.496.653-.254.66-.107.785.028.434.082 1.008.485.857.723 1.344 1.595 1.102 1.135.506.344.626.193.747.116.936-.068.65-.454.724-1.328.857-1.792.193-.667.015-.54-.053-.79-.076-1.019.091-.743.219-.756.702-1.898.46-.633.604-.503.635-.282.91-.144.8.038 1.256.12.891-.061.778-.186.68-.392.483-.416.351-.616.163-.937-.266-1.154-.8-1.541-.28-.866-.067-.578.174-.922.271-.433.59-.365 2.083-.839 1.026-.502.982-.709.619-.914.392-.991.43-1.259.386-.984.405-.806.317-.409.58-.68.54-.766.34-.88.513-1.349.438-.915.64-.736 2.056-1.751 1.825-1.791.604-.95.44-.885.198-.397.23-.293.306-.12.51-.066.59-.03.638.008.572.13 1.193.46.868.416 1.212.736 1.35.99 2.205 2.016 1.616 1.445.913.626.419.206.362.076.397.003.483-.124.304-.17M115.655 413.456l2.287.44 1.8.258 1.178.062 2.752-.244 2.22-.289 1.426-.193.457-.185.4-.303.743-.86 1.057-.929.839-.653 1.573-1.19.786-.695.441-.33.574-.193 1.385-.13 1.642-.049 1.26.035.642.117 1.336.44.703.244.58.258.854.378.687.19.8.044.959-.079 1.664-.447 1.363-.388.687-.09.46.097.491.254.891.681 2.536 2.215 1.378 1.242 2.714 2.135 1.268.912.393.351M158.02 401.112l-.815 1.234-.294.688-.016.702.37 2.057 1.065 4.43.505 1.733.166 1.418-.014 1.307-.106 1.881M173.862 340.65l-.63 1.046-.231.64-.019.286.053.275.26.3.59.347.494.36.377.434.227.413.407 1.06 1.337 4.382 1.857 4.864.196.77.007.77-.113 1.39-.075 2.1-.114 2.448-.196 1.335-.242 1.21-.233.745-.378.8-.634.98-.808 1.583-.408 1.1-.21 1.246-.56 3.384M158.02 401.112l1.834-.29 1.869-.189 1.763-.182 1.377-.152 1.299-.158 1.58-.072 1.809.062.767.052.702.168.819.355 1.219.966M158.02 401.112l1.359-2 .124-.312.068-.327-.06-.306-.185-.206-.408-.186-.823-.333-1.087-.348-2.102-.354-1.608-.33-2.476-.709-1.355-.399-4.152-1.04-2.891-.804" clip-path="url(#p8f8fcf3225)" style="fill:none;stroke:#000"/><path d="m108.96 524.435-.695-.547-.257-.323-.174-.485-.381-1.396-.2-.557-.272-.434-.755-.777-.641-.605-.355-.708-.151-.812-.227-1.445-.325-.956-.913-2.001-1.041-2.125-.506-1.3-1.106-2.064-.193-.674-.037-.385.071-.382 1.111-1.457M214.487 450.411l-.253.002-.6.122-.512.2-.595.314-.653.595-.25.28-.336.47-.297.585-.75 1.864-.391.851-.395.731-.215.292-.198.21-.33.259-.438.195-.468.13-.56.035-.72-.03-2.914-.191-.361-.105-.359-.15-.37-.275-.34-.494-.43-1.062-.427-1.31-.434-1.04-.537-1.064-.516-.93-.308-.396-.432-.406-.511-.227-.342-.14-.247-.052-.41.01M187.869 437.863l2.174 2.688 2.668 3.22.51.713.842 1.162 1.359 1.803 1.071 1.102.636.622.14.152.318.358M229.789 474.32l-.918.148-1.151.172-1.25.165-1.675.165-2.922.282-1.164.105-1.791.167-1.24.058M257.818 439.906l-.529.044-.962.138-1.219.327-1.19.35-1.252.362-.663.179-.579.12-.804.066-.846-.086-1.426-.382-.868-.269-.82-.228-.415-.093-.379-.005-.456.065-.474.12-.559.275-.626.393-.74.56-.136.165M241.559 443.564l.304-.322.94-1.146.072-.09M243.155 443.71l-.046-.213-.121-.87-.113-.62" clip-path="url(#p8f8fcf3225)" style="fill:none;stroke:#000"/><path d="m239.323 427.757 2.96-.646.87-.113.424-.012.576.044.377.101.36.341.227.523.453 1.469.143.588.015.397-.067.425-.476 1.75-.823 3.038-.46 1.694-.337 1.098-.528 1.789-.176.585-.107.426-.033.208.004.175.058.176.092.194M248.654 466.133l.373 1.37.655 2.24 1.248 4.735.89 4.093.332 1.67.267 1.217.094.284.151.129.087.02M243.475 484.583l3.918-.808 2.77-.564 1.26-.203.535-.185.393-.278.4-.653M312.227 482.99l.98-.635.16-.13.15-.175.07-.204.065-.22.103-.34.116-.395.327-.865.198-.523M214.487 450.411l-.164-.988-.191-1.503-.077-.673-.07-.772-.07-1.438.033-.096.055-.087.079-.057.137-.028 1.46-.067 1.13-.086 1.777-.177M314.364 417.673l.811-.05.93.045.58.09.48.092.373.136.514.137.392.054h.51l.532-.16.319-.24.114-.175.078-.153.148-.263.124-.258M239.323 427.757l-.122-.479-.288-1.051-.11-.43-.184-1.061-.081-.583-.062-.473-.064-.78-.02-.237-.045-.364-.145-.916-.146-.563-.224-.308-.243-.143-.829-.357-.604-.182M248.654 466.133l-.699-2.571-.554-2.659-.288-1.357-.14-.668-.144-1.075-.27-1.47-.148-.76-.06-.214M243.155 443.71l.339 1.582.41 1.953 1.054 4.035.842 2.35.359 1.038.193.691M236.495 448.073l-.375-1.222-.356-1.294-.204-.895-.212-1.162-.23-1.428-.247-1.434-.183-.931-.668-1.995-.4-1.38-.31-1.032-.294-1.396-.144-1.276-.022-.42.154-.478.574-.939.672-.832.68-.605.74-.406 1.577-.62 2.076-.57M214.487 450.411l.188 2.014.147 1.465.212 2.329.172 2.252-.01.062-.031.076-.092.089-.173.063-.566.106-1.625.23-.945.114-.891.078-.64.016-1.181-.008M345.809 503.876l.255.671.132.313.196.173.253.031.48-.063.36-.139.152-.107.096-.186.024-.2-.106-.37M350.75 514.802l.102.88.08.5.094.262.226.193.298.057.382-.087.236-.221.156-.408.151-.701.132-1.264" clip-path="url(#p8f8fcf3225)" style="fill:none;stroke:#000"/><path d="m350.75 514.802.832-.206.738-.378.287-.205M354.713 512.374l-1.105.877-.486.396-.515.366M352.165 509.324l1.148 1.362 1.4 1.688M350.75 514.802l-1.143.28M341.733 500.953l-.81.352-.226.191-.136.203-.085.277.026.346.272.75.58.819.473.752.405.385.333.225.314.105.352-.025.472-.138.478-.273.452-.291.55-.383.626-.372M348.248 503.106l-.667.028-1.447.605-.325.137M349.833 506.105l-.83-1.403-.755-1.596M349.833 506.105l.559.935 1.26 1.651.513.633" clip-path="url(#p8f8fcf3225)" style="fill:none;stroke:#000"/><path d="m345.249 507.479 1.277 3.025.27.491.132.107.246.01.288-.065.752-.279 2.846-1.028 1.105-.416M345.249 507.479l2.889-1.037 1.695-.337M345.249 507.479l-3.66 1.219M248.654 466.133l-.246.471-.28.332-.403.306-.252.143-.411.158-1.602.426-2.295.673-.17.104-.075.096-.038.133.257 1.555.128 1.004.19 1.06.233.986.4 1.407.314 1.053.309 1.107.687 3.081M257.818 439.906l.424-1.022.365-.911.245-.492.272-.439.576-.686.27-.311.335-.473.227-.358M241.559 443.564l.368-.07.29-.023h.3l.317.052.32.187M541.736 187.18l-.898.433-.627.076-.437-.048-.68-.124-.589.014-.935.158-2.167.53-1.85.316-2.106.228-2.468.075-1.616.166-1.32.206h-.982l-1.668-.248-1.533-.447-1.261-.227-.71.014-.739.096-1.193.358-.898.206-1.336.172M511.313 126.757l-.32.983-.328.76-.415.662-.823.722-1.276.771-.913.316-1.609.207-2.189-.048-1.532-.11-.581-.145-.4-.268-.521-.785-.559-.613-.589-.426-.974-.289-1.193-.11-1.026.09-.989.302-2.121 1.363-2.907 1.458-2.189.964-3.321 1.129-3.27.894-1.252.104-.732-.104-1.087-.406-1.292-.578-.777-.13-1.027.061-1.555.317-.592.24-.227.159-.328.447-.936 1.782-.563.834-.366.31-.196.095-.298.035-.314-.038-1.011-.337-.619-.148-.506-.004-1.99.28-.927.171-.846.22-2.008.71-1.129.375-1.283.23-.966.082-.525.035-.943.165-.854.162-.475.044-.857-.017-.43.035h-.008l-.487.134-1.302.66-.929.396-.868.128-1.234.051-1.26-.113-.502-.042M345.87 142.12l.725.33 1.305 1.032 1.435 1.074.943.895.808.378 1.314.069 1.713.255 1.706.674 2.25.757.65.048.588-.096.845-.448 1.465-.812.846-.255 1.17-.096 2.438-.007 2.823-.185 1.842-.365 1.17-.296.46-.227.59-.523 1.396-1.52.925-.93.457-.454.966-.551.536-.178 1.004-.07 2.272.097 2.574.09 1.02-.097 1.268-.117.898.076 1.011.296 1.45.943.725.35.808.303 1.857.33 1.547.248.778.138.694.275.845.578.525.272.446.11.996-.03 3.054-.125.785.076.981.303 2.476 1.011.929.248 1.011.145.77-.097.907-.268 2.415-1.362 1.442-1.067.936-.503.65-.117 1.185.049.702.11.588.316 1.382 1.088 1.042.626.475.09.498-.022.793-.206 1.102-.599 1.789-1.424 1.276-.764.755-.269.74-.13.687.02 2.023.372 2.159.35.906.098.898-.056.966-.172 1.774-.137 1.136-.003 3.198-.052 1.366-.069.905-.028.725-.103 3.548-.805.839-.076M445.819 133.16l.09 1.81.174 2.12.294 1.403.253.936.25.503.528.609.359.388M525.921 159.104l-.502.062-.294.106-.702.43-.491.42-.71.867-.309.303-.483.313-.544.113-1.06.152-.914.02-.898.159-1.721.537M520.03 167.055l.14.58M517.15 167.258l1.755-.13 1.124-.073" clip-path="url(#p8f8fcf3225)" style="fill:none;stroke:#000"/><path d="m508.55 164.03 2.22 1.205 1.88 1.025.54.38.271.45.257.52.434.463.604.38.883.306.57.013.457-.1 1.283-.605h.004l.521-.158.823-.107.874-.167M345.87 142.12l-.657 1.638-.234.84-.204 1.382-.075 2.354v1.57l.226.797.687 1.294.68 1.205.302.894.12 1.032-.128 2.16M333.935 145.733l1.706-1.652 1.147-.784 1.118-.49 1.087-.157 2.226-.255 1.994-.364 1.517-.145 1.14.233M535.086 251.483l-1.08-.13-.875-.111-.733.09-1.245.384-1.39.303-.973.055-1.208-.006-.566.096-1.684.846-2.46 1.266-.937.317-1.66.192-1.865-.288-1.985-.909-1.012-.784-1.004-1.893-.732-.942-1.329-1.1-1.774-1.102-1.464-1.06-1.155-1.252-.453-.537-.521-.453-.702-.38-1.714-.426M512.318 126.226l-.89-.35-.427-.214" clip-path="url(#p8f8fcf3225)" style="fill:none;stroke:#000"/><path d="m512.318 126.226.012-.148-.044-.19-.1-.171-.149-.14-.186-.094-.208-.044-.212.012-.2.066-.23.145M511 125.662l-.072.125-.076.18-.018.194.044.19.1.172.15.139.185.095M511.313 126.757l.208.043.212-.012.2-.065.173-.115.13-.154.082-.228M307.817 374.375l.987-.887 1.102-.799 1.178-.736.853-.337.815-.144h1.608l1.427.068 1.125.193.95.207 2.024.399 1.872.447 2.242.48 1.216.29M242.041 357.032l.422.433.317.303.212.385.241.537.204.199.317.11 1.495.282.43.055M242.901 362.521l-.355-.289-.286-.433-.197-.654-.068-.757.046-1.561.03-1.294-.03-.501M238.798 334.418l-.154.942-.212 1.204-.18 1.114-.257.51-.537.536-.407.358-.287.248-.128.302.052.372.476 1.266.634 1.74.408 1.438.174.874.037.626.015.736.151.688.544 1.755.287.798.324.42.83.75.378.508.498.908.333 1.335.18 1.782.084 1.404M289.581 338.288l-7.025-4.62-6.594-4.376-3.31-2.167-1.88-1.173-.924-.468-.79-.303-.77-.196-.856-.114-2.054-.137-2.468-.09-1.553-.008-1.278.054-1.393.13-1.143.196-1.084.234-1.62.458-1.105.367-.815.314-.876.395-1.227.65-1.528.901-6.213 3.77-2.156 1.242-1.456.774-.665.297M289.581 338.288l.717-.7.219-.088.389-.042.328.066.55.292 1.303.819.4.144.876.193.86.083.83-.035 1.413-.193.777-.22.604-.137 2.627-.406M586.71 501.71l1.28-6.9 1.449-2.75.045-3.743-.466-1.027M589.018 487.29l-9.612-2.192M479.321 535.735l-1.328.682-.302.295-.189.413-.272.715-.513 1.21-.468 1.562-.234.842-.434.654-.536.334-.82.32-1.4.347M477.891 468.398l-8.236 1.208M474.543 464.67l1.826 2.366 1.224 1.128.298.234M469.655 469.606l.6-1.07.785-1.46.966-1.031 1.283-.798.74-.413.514-.165M407.311 426.244l.125-.103.086-.127.057-.103.036-.102.02-.104M479.13 446.135l-1.152.471-2.1.722-14.75 4.405M401.196 425.34l-4.132 3.016M393.306 431.099l3.758-2.743M431.555 450.598l.002-.222M431.002 450.04l-.217.084-.15.165-.048.21M431.002 450.04l.237.019M520.324 470.789l-.253-.383-.257-.2-1.094-.495-2.477-.585-.98-.316-.816-.33-.552-.516-.43-.646-.528-1.067-1.072-2.848-.181-2.132.392-3.136.68-1.995.815-2.105.348-.413M469.387 418.876l.536-.281 1.513-.996" clip-path="url(#p8f8fcf3225)" style="fill:none;stroke:#000"/><path d="m469.387 418.876.022-.398.174-.371.317-.303.416-.248.46-.117.211.028.449.132M394.65 425.39l.507.737.385.77.136.283.325.406.762.495.3.275M400.321 392.892l.203.511M453.984 365.414l.44-2.473.212-.503.363-.522.384-.544.582-1.259.234-.701.245-.798M364.247 514.598l-5.139 7.626M359.108 522.224l1.802-1.975 1.878-2.835 1.46-2.816M431.557 450.376l-.114-.196-.204-.121M363.44 513.755l-1.446 2.165-1.72 2.643" clip-path="url(#p8f8fcf3225)" style="fill:none;stroke:#000"/><path d="m363.44 513.755-1.141 1.051-1.79 2.669-.235 1.088M579.406 485.098l-.295.936-1.177 3.054-1.66 1.788M488.025 505.228l-2.577-1.582-2.575-5.94-3.891-3.4-2.997-6.85-3.575-9.582-.263-2.395-.052-3.593-.257-.397" clip-path="url(#p8f8fcf3225)" style="fill:none;stroke:#000"/></g><path id="PatchCollection_1" d="m405.33 438.059.03-.729.241-.44.635-.55.422-.4.408-.867 1.6-4.677-.06-.317-.106-.206-.015-.165.257-.152.362.166.212.041 1.615-.977 1.087-.316 1.404-.083 2.069.11 2.43.358 3.14.66 7.339 2.614 2.249.578 1.69-.069 1.526-.206 1.464-.426 1.118-.344 1.479-.592 1.299-.62 2.174-1.444 1.207-.839 1.103-.358 1.389-.495 1.238-.784.966-.633 4.061-2.422 2.235-1.155 2.899-1.981 9.068-5.836 1.925 3.128-6.63 3.644-.936 1.072-.921.427-.951.578-.8.55-1.465.73-1.857 1.141-5.888 3.894-3.73 2.174-3.789 2.173-2.612 1.115-2.083.564-1.616.33-.936.028-.921-.07-.951-.22-2.023-.632-1.087-.372-.876-.069-.785-.179-9.195-2.338-1.389-.124-1.525-.193-.845-.068-.8.178-1.767.84-.815 1.114-1.39 2.283-.467 1.858-.514 2.779-.543 4.155-.151 1.706.498 1.83.015.949.015 2.476.091 2.27-.181 2.724-.242 1.183-.362.88-3.246-1.045.483-1.678.105-1.445V453.4l-.105-1.541.03-1.018.151-.66v-.84l-.151-.646-.15-1.514.165-3.136.755-1.912.075-.675-.15-.564.105-.935z" clip-path="url(#p8f8fcf3225)" style="fill:#00f;fill-opacity:.8"/><g id="PatchCollection_2"><path d="m323.539 568.824-14.145-5.445-10.16 9.402.757 1.162 9.603 1.923 6.972-.217 5.18-3.594zM312.542 577.137l-4.662-.327-9.682-2.468-8.128 7.695-6.574 5.191-2.271 2.723 2.31 5.335.4-.036zM345.054 539.384 331.15 559.75l-5.897-2.541-4.662 5.59-7.889-2.396 27.054-23.886zM351.071 544.067l-6.813 3.122-8.088 12.052 12.87-2.614 3.147-2.759 3.386-1.343z" clip-path="url(#p8f8fcf3225)" style="fill:#006400;fill-opacity:.8"/></g><g id="PatchCollection_3"><path d="m427.862 472.833-1.175 1.661-.419-.1-.01-.49.349-.69.358-.417.509-.209.278.027zM437.942 475.195l.74-.591 4.907-.77.846.343zM324.28 392.87l2.64.573-2.441 2.26zM414.932 422.513l-1.266 1.588-.52.585-.037-.891.262-.16z" clip-path="url(#p8f8fcf3225)" style="fill:green;fill-opacity:.8"/></g><g id="PatchCollection_4"><path d="m372.185 401.105 2.907 2.16 3.36-3.755-2.907-2.16zM403.885 427.492l-2.917 5.02 3.73 1.8 2.916-5.02zM379.126 402.087l1.008-.334.663 1.523-1.052.354z" clip-path="url(#p8f8fcf3225)" style="fill:#90ee90;fill-opacity:.8"/></g><g id="PatchCollection_5"><path d="m460.381 450.393.75-.255.202.493-.751.255zM455.323 452.962l.85-.275.163.42-.849.276zM426.595 435.72l-.408-.139.211-.516.409.14zM428.61 436.209l.36.095-.242.756-.359-.095zM429.78 436.484l.377.12-.271.708-.377-.12zM429.071 436.45l.405.123-.234.634-.405-.125zM427.974 438.362l.755.116-.34 1.824-.754-.118zM363.935 523.768l.437-.658 1.932 1.066-.437.658zM354.253 538.06l.214-.334.906.482-.214.334zM358.239 538.914l.62-.965 2.061 1.1-.62.965zM355.445 538.66l1.163-1.858 1.544.802-1.162 1.858zM357.123 532.08l.594-.915 4.921 2.654-.594.915z" clip-path="url(#p8f8fcf3225)" style="fill:#a9a9a9;fill-opacity:.8"/><path d="m356.511 533.021.612-.942 4.921 2.655-.612.941z" clip-path="url(#p8f8fcf3225)" style="fill:#a9a9a9;fill-opacity:.8"/><path d="m355.948 533.89.563-.869 3.397 1.832-.563.868z" clip-path="url(#p8f8fcf3225)" style="fill:#a9a9a9;fill-opacity:.8"/><path d="m355.332 534.836 3.397 1.833.616-.948-3.397-1.832zM377.204 402.963l1.602-.542.87 2.022-1.625.522zM466.031 371.307l.258.292-.486.475-.35-.277zM464.315 372.152l1.116.902-.91 1.262-1.247-.96zM465.753 369.067l.634.495-.597.799-.898-.455zM464.175 369.219l.792-1.025.446.213-.747 1.141zM462.469 368.764l.287.324-.56.42-.278-.324zM462.582 367.41l.151.336-.256.262-.212-.228zM461.616 366.577l.845-.454.129-.014.354.158.204.496-.913.729v-.056zM459.313 364.224l-1.275.55.876 1.15 1.285-.691-.1-.012z" clip-path="url(#p8f8fcf3225)" style="fill:#a9a9a9;fill-opacity:.8"/></g></g></g><defs><clipPath id="p8f8fcf3225"><path d="M90 115.913h558v495.374H90z"/></clipPath></defs></svg>