<svg xmlns="http://www.w3.org/2000/svg" width="960" height="960" viewBox="0 0 720 720"><defs><style>*{stroke-linejoin:round;stroke-linecap:butt}</style></defs><g id="figure_1"><path id="patch_1" d="M0 720h720V0H0z" style="fill:#fff"/><g id="axes_1"><path id="patch_2" d="M90 631.702h558V95.498H90z" style="fill:#fff"/><g id="LineCollection_1"><path d="m348.704 403.763-.81-.291M348.704 403.763l1.693.472M348.704 403.763l1.437-5.074M348.704 403.763l-.803 2.677M374.938 416.05l-1.426-1.256M381.282 421.563l-5.095-4.335-1.249-1.178M382.632 412.318l-.641 1.15-.368.373-6.685 2.209M358.363 362.358l.112-2.845M358.363 362.358l-4.34-.25M358.737 372.356l.071-.486-.572-5.552.127-3.96M353.865 387.29l1.445.438M353.865 387.29l-.38-.102M353.865 387.29l.86-2.82M355.926 405.972l-.878-.317M355.926 405.972l2.244 1.014M353.728 399.822l3.72 1.044-1.522 5.106M347.901 406.44l1.631.963M347.901 406.44l-.747-.44M347.901 406.44l-3.093 5.192M336.017 426.22l1.879 1.061M336.017 426.22l-1.299 2.103M336.017 426.22l1.741-2.966M334.718 428.323l-.872 1.277M334.718 428.323l2.837 1.573M333.846 429.6l3.97 2.248M331.436 432.374l1.119-1.145 1.291-1.63" clip-path="url(#p64000c91a9)" style="fill:none;stroke:#000"/><path d="m326.14 423.976 1.647 1.799 6.059 3.825M450.274 435.522l1.583-.488 1.807-.64M516.3 383.335l-1.16-.053-3.727.01-1.324.167-1.316.308-1.308.458-1.547.65-1.372.766-.766.514-.63.53-.949.877-3.366 3.448-1.77 1.708-2.035 2.024-1.547 1.558-2.457 2.657-3.007 3.005-3.238 3.242-1.253 1.328-1.164 1.218-6.476 6.594-2.49 2.491-2.839 2.886-4.115 4.199-5.018 5.147-1.045 1.013-1.363 1.186-1.165.885-1.531.917-1.085.617-1.573.71M453.163 435.796l.191-.585.136-.403.174-.413M437.02 436.453l1.666-.198 3.183-.063 2.4-.055 1.803-.096 1.101-.086 3.1-.433M453.163 435.796l-.67-.047-2.22-.227M309.811 445.823l-1.894 2.56M315.306 441.88l-2.083 1.12-1.966 1.466-1.446 1.357M313.779 452.663l-3.115-4.626-.853-2.214M437.02 436.453l-1.676.3-.805.23-2.002.914-1.696 1.003-2.104 1.49-2.39 2.254-2.32 2.418-1.284 1.454M381.282 421.563l13.182 11.22.987.633 1.125.36 1.196-.101 1.175-.543 2.03-1.293.984-.238 1.116.233 4.405 2.073.883.612.625.85.338 1.056.031 1.248-.16 2.516.037 1.136.419 1.166.87.975 6.215 3.703 1.489.55 1.262.133 1.2-.331.949-.427 1.103-.578M419.966 450.402l1.07-.784 1.15-1.4.269-.766.288-.936" clip-path="url(#p64000c91a9)" style="fill:none;stroke:#000"/><path d="m416.31 450.97 1.283-.46 1.135-.54.995-.593.877-.614 1.034-.987 1.11-1.26M352.921 402.508l.807-2.686M352.764 386.965l.722.223M352.764 386.965l-.434-.127M352.764 386.965l-3.446 11.446M346.595 412.676l3.055 1.721M346.595 412.676l-1.787-1.044M346.595 412.676l1.678-2.777M346.595 412.676l-.776 1.468M344.214 411.295l.594.337M344.214 411.295l-2.458 4.193M344.214 411.295l-1.783-1.012M344.214 411.295l1.16-1.986M339.375 420.375l-1.617 2.879M339.375 420.375l.548-.353M339.375 420.375l.08-.626M350.153 379.203l-.524 1.814M350.153 379.203l-1.75-.517M350.153 379.203l3.369 1.042M347.885 424.682l-3.259-1.918M347.885 424.682l-.824 1.11M347.885 424.682l.841-1.478M341.756 415.488l-1.858-1.072M341.756 415.488l.719.411M341.756 415.488l-1.963 3.514-.337.747M357.974 386.256l-.677 2.066M315.306 441.88l1.823-1.03M321.99 448.312l-4.302-4.22-2.382-2.211M343.475 426.51l-.742-.426M340.967 409.37l.615.39M340.967 409.37l-2.957-1.799M340.967 409.37l.76-2.17M353.98 413.278l-2.758-1.578M344.808 411.632l-2.333 4.267M350.375 420.522l-3.222-1.917M350.375 420.522l-.892 1.409M350.375 420.522l.913-1.54M349.345 428.269l2.045-7.22-1.015-.527M352.938 416.151l-3.288-1.754M352.938 416.151l-.942 1.64M354.867 432.977l-.26-14.14-.07-.74-.299-.77-.555-.627-.745-.549M360.499 415.294l-.642-.106-4.04-1.398-.568-.008-.634.206-.491.277-.376.419-.81 1.467M344.644 396.903l2.767.86M344.644 396.903l.087-.305M344.644 396.903l-.907 2.964M348.273 409.899l2.95 1.8M349.532 407.403l-1.226 2.041-.033.455M353.486 387.188l-3.345 11.501M338.447 400.81l2.628 1.529M337.58 418.641l-4.388-2.579M337.58 418.641l1.876 1.108M337.58 418.641l2.318-4.225M337.758 423.254l1.905 1.113M341.785 429.525l-.83-.41M378.853 324.051l-.443.877M381.036 315.19l-.984 3.066-1.2 5.795" clip-path="url(#p64000c91a9)" style="fill:none;stroke:#000"/><path d="m392.545 318.222-2.697.214-1.212.126-2.233.506-1.468.823-1.34.822-2.233 1.645-2.51 1.693M342.116 381.923l2.99.904M342.116 381.923l-.515 1.697M342.116 381.923l1.564-4.919M342.35 404.363l-2.062-.51M342.35 404.363l-.622 2.837M342.35 404.363l.356-1.063M351.996 417.79l-3.183-1.934M351.996 417.79l-.708 1.192M335.704 406.06l2.306 1.511M348.647 393.353l-2.545-.84M348.647 393.353l-1.236 4.41M348.647 393.353l2.18-6.977M351.288 418.982l-3.175-1.954M348.726 423.204l-3.216-1.872M348.726 423.204l.757-1.273M353.213 384.027l-.75-.211M353.213 384.027l1.512.444M353.213 384.027l-.883 2.811M341.728 407.2l1.97 1.127M361.62 415.291l.3.754M361.62 415.291l.944-2.232M361.62 415.291l-1.121.003M345.374 409.31l-1.675-.983M347.154 406l-.158.497-1.622 2.812M345.182 415.283l2.931 1.745M345.182 415.283l.637-1.139M345.182 415.283l-.907 1.598M354.725 384.47l1.102-3.472M355.048 405.655l-4.462-1.368M355.048 405.655l-2.328 3.641M349.483 421.931l-3.162-1.884M325.414 436.16l-2.21 1.228M325.414 436.16l.188-.11M322.877 440.84l3.902-2.302-1.365-2.379M344.212 391.871l-4.717-1.495M344.212 391.871l1.89.642M344.212 391.871l-1.304 4.226M344.212 391.871l1.055-3.293M337.896 427.281l3.058 1.835M337.896 427.281l1.767-2.914M323.204 437.388l-2.408 1.33M323.204 437.388l-2.961-3.148M347.068 389.152l-.966 3.361M347.068 389.152l1.163-3.577M347.068 389.152l-1.801-.574M342.908 396.097l-4.732-1.402M342.908 396.097l1.823.5M342.908 396.097l-.942 3.272M341.6 383.62l3.007.884M341.6 383.62l-3.444-1.043M341.6 383.62l-1.073 3.448M337.037 385.966l-1.07 3.335M337.037 385.966l1.12-3.389M337.037 385.966l-1.123-.368M337.037 385.966l3.49 1.102M318.87 428.486l1.063-.68M318.87 428.486l-2.178 1.462M318.87 428.486l3.402 3.881M312.652 423.076l2.638 1.603 1.809 1.064 1.45 1.14.2.509.12 1.094M358.475 359.513l2.76.03M358.475 359.513l-4.807-.278M357.784 352.28l.32 1.043.159.57.095.886.128 1.897-.01 2.837M326.14 423.976l-.376.221M333.192 416.062l-1.064 1.816-.56 1.327-.06.448-.137.622-.379.655-.707.658-1.38.738-2.765 1.65M343.737 399.867l-1.77-.498M343.737 399.867l-1.031 3.433M339.663 424.367l3.07 1.717M339.663 424.367l1.117-1.845M345.267 388.578l1.175-3.539M345.267 388.578l-4.74-1.51M344.607 384.504l1.835.535M344.607 384.504l.499-1.677M344.188 416.833l-1.713-.934M344.188 416.833l.087.048M344.188 416.833l-.95 1.554M361.235 359.543l.296-.474M361.235 359.543l-.005 6.084M360.248 411.722l.251 3.572M318.395 436.079l1.848-1.839M318.395 436.079l-2.337 2.244M318.395 436.079l2.401 2.638M346.442 385.04l1.789.535M346.442 385.04l.547-1.668M368.798 411.877l-2.64-1.25M368.798 411.877l-.199.43M373.512 414.794l-1.199-1-1.813-1.115-1.702-.802M322.272 432.367l3.33 3.684M322.272 432.367l1.054-.896M322.272 432.367l-1.65 1.545M368.869 419.161l-2.877-1.23M341.075 402.339l1.63.961M341.075 402.339l-.787 1.515M341.075 402.339l.891-2.97M338.268 403.267l2.02.587M348.113 417.028l.7-1.172M348.113 417.028l-.96 1.577M339.495 390.376l-3.528-1.075M339.495 390.376l-1.319 4.32M339.495 390.376l1.032-3.308M325.018 383.53l1.276.126 1.148-.506.766-.823 1.212-.252 1.15-.696.956-.506 1.404-.063 1.404.252.894.57.973.313 1.955.632M345.106 382.827l.716-2.68M345.106 382.827l1.883.545M353.056 381.935l-3.427-.918M353.056 381.935l.466-1.69M353.056 381.935l-.594 1.881M364.028 409.673l2.13.955M364.028 409.673l-.183.43M364.028 409.673l.87-1.84M358.17 406.986l2.654 1.215 3.204 1.472M344.731 396.598l1.37-4.085M327.02 435.226l-1.418.825M327.02 435.226l-3.694-3.755M331.436 432.374l-.847.694-1.052.71-2.516 1.448M342.733 426.084l.976-1.803M342.733 426.084l-1.779 3.032M345.82 414.144l2.993 1.712M324.168 443.703l-4.318-4.44M333.25 396.94l-.384-1.454v-1.266l.575-.886 3.043.803 1.692.558M349.532 407.403l3.188 1.893M349.532 407.403l.865-3.168M343.238 418.387l-.727 1.238M343.238 418.387l3.083 1.66M352.72 409.296l2.916 1.71 2.534-4.02M340.78 422.522l.901-1.527M340.78 422.522l2.93 1.759M348.813 415.856l.837-1.459M343.71 424.28l.916-1.516M337.815 431.848l-.59 1.603M340.954 429.116l-.53 1.026-.747.436-1.137.622-.725.648M342.511 419.625l2.999 1.707M342.511 419.625l-.83 1.37M352.134 399.33l-1.993-.64M352.134 399.33l1.594.492M352.134 399.33l-1.548 4.957M352.134 399.33l3.176-11.602M351.222 411.7l1.498-2.404M351.222 411.7l-1.572 2.697M348.403 378.686l-1.414 4.686M348.403 378.686l-4.723-1.682M341.966 399.369l-2.742-.741M346.321 420.047l.832-1.442M346.321 420.047l-.811 1.285M320.796 438.717l-.946.547M323.326 431.471l-3.393-3.666M331.436 432.374l-4.943-3.576-3.167 2.673M350.828 386.376l1.502.462M350.828 386.376l-2.597-.801M362.564 413.06l1.281-2.957M362.564 413.06l4.783 2.008M371.326 416.86l-3.979-1.792M353.522 380.245l2.305.753M350.397 404.235l.19.052M347.153 418.605l-2.878-1.724M361.92 416.045l4.072 1.886M365.992 417.93l-.54 1.066-.455.534-.553.405-.37.082-2.97-1.26-.222-.326.12-.446.918-1.94M344.626 422.764l-2.945-1.769M344.626 422.764l.884-1.432M352.462 383.816l-3.374-.935M349.629 381.017l-.541 1.864M358.737 372.356l-1.127 2.652-.882 2.949-.901 3.041M338.01 407.571l2.278-3.717M338.01 407.571l-2.276 4.256M347.411 397.763l1.907.648M347.411 397.763l-2.416 6.874M320.243 434.24l.38-.328M344.995 404.637l2.16 1.364M344.995 404.637l-2.29-1.337M367.347 415.068l-1.355 2.863M367.347 415.068l1.252-2.76M320.622 433.912l-.905-1.246-3.025-2.718M313.645 431.913l.88-.839.59-.432.807-.439.77-.255M341.681 420.995l-1.758-.973M319.85 439.264l-2.72 1.586M335.763 390.07l.204-.769M349.088 382.88l-.857 2.695M343.68 377.004l-2.03-.512M343.68 377.004l.642-3.048M355.31 387.728l1.987.594M319.933 427.805l5.831-3.608M415.991 211.451l-.145-1.456 1.484-3.55.037-1.793-1.19-3.768-.92-2.287-.198-1.9-.578-3.216.216-1.82 1.204-2.908.425-1.22.146-1.061-.347-2.646" clip-path="url(#p64000c91a9)" style="fill:none;stroke:#000"/><path d="m415.1 179.27.257 1.477.768 3.08" clip-path="url(#p64000c91a9)" style="fill:none;stroke:#000"/><path d="m414.085 179.677-1.09 1.867.179.828 1.81.671 1.141.783M394.877 289.248l-.36 1.36M406.24 266.512l-2.192 3.391-1.513 2.71-.498 3.028-.316 4.897-.417 2.824-1.442 2.122-1.503 1.184-3.482 2.58M388.764 284.879l.351.158 1.66 1.581 1.052.854 3.05 1.776M408.251 246.384l.268-1.004.032-.951.085-1.997.084-3.306.932-4.66-.236-1.301-.045-1.123.816-3.05.62-2.754.956-2.41 3.297-5.614.57-1.506M415.991 211.451l.16 1.602-.203 1.625-.318 2.03" clip-path="url(#p64000c91a9)" style="fill:none;stroke:#000"/><path d="m420.714 210.818-.565.649-2.065 3.758-1.248.437-1.206 1.046M415.24 178.426l-.14.843M405.528 156.992l2.808 2.006 5.273 5.31.772 3.097-.11 2.088.97 8.933" clip-path="url(#p64000c91a9)" style="fill:none;stroke:#000"/><path d="m459.313 171.241-.47-.356-.48-.308-1.65-.965-2.258-1.241-.558-.238-.383-.126-.534-.11-.933-.128-1.42-.07-.542-.048-.367-.15-.727-.443-1.324-1.06-.638-.49-.302-.143-.264-.039-1.603-.095-1.157-.174-.694-.008-.9.071-.655.143-.725.277-.543.403-.862.506-1.22.57-1.555.632-.375.04-.36-.048-.51.016-.334-.008-.272.095-.263.205-.255.166-.662.182-1.755.546-1.348.45-2.456 1.045-1.285.632-5.718 3.456-.838.767-4.877 3.231M406.874 265.532l-.634.98M406.874 265.532l.855-1.188M406.874 265.532l1.285-.593M382.226 312.014l.936-2.278 1.353-3.619 1.707-2.644 1.149-1.636 1.232-1.499.982-1.645.964-.591 1.44-1.708 1.383-2.91 1.145-2.876M408.329 292.401l-5.24-2.053-5.743 1.708-2.829-1.448M403.17 151.992l.51 1.872 1.848 3.128M395.924 167.008l.754-.807 1.26-.743.972-.573 3.107-2.064 1.448-1.017 2.063-4.812M406.67 254.01l-.064-2.485.219-1.393.229-.92.671-1.776.526-1.052" clip-path="url(#p64000c91a9)" style="fill:none;stroke:#000"/><path d="m377.597 246.35 5.04-.063 7.084-4.998 3.7.443 10.53 3.732 4.3.92M347.894 403.472l-.74 2.529M347.894 403.472l1.424-5.06M353.728 399.822l3.57-11.5M339.923 420.022l.675-.921 1.877-3.202M339.456 419.749l.467.273M304.172 453.802l-.96 1.362M304.172 453.802l3.745-5.419M304.172 453.802l-.419.38-.266.23-.33.225-.672.307" clip-path="url(#p64000c91a9)" style="fill:none;stroke:#000"/><path d="m303.75 455.81.039-.482.066-.479.1-.434.217-.613M302.485 454.944l-.41.044-.38.16-.316.262-.226.342-.116.392.003.409.094.37M303.212 455.164l-.38-.163-.347-.057M303.212 455.164l-1.585 2.317M303.75 455.81l-.262-.39-.276-.256M303.831 456.432l-.002-.22-.037-.217-.041-.185M303.059 457.581l.301-.201.239-.272.16-.323.072-.353M304.86 457.853l-.427-.423-.334-.484-.268-.514M301.134 456.924l.227.318.266.239M301.134 456.924l-.009.478-.063.41-.148.5-.238.577M370.05 457.602l-13.446.198M375.515 474.312l-.479-.664-.622-1.194-.83-1.36-1.427-2.167-.12-.434-.087-2.041.008-1.652-.072-.562-.327-1.051-.99-2.958-.52-2.627M416.31 450.97l-1.815.321-7.834 1.208-9.563 1.576-18.3 2.944-2.555.308-2.984.192-3.21.083M301.627 457.48l-.95 1.409M301.627 457.48l.34.172.375.074M303.059 457.581l.605-.028.575.072.62.228M302.342 457.726l.368-.025.349-.12M300.676 458.889l.54-.45.297-.227.375-.236.454-.25M334.073 459.404l-2.076.904-3.9 1.67-4.61 1.96-1.819.577-1.595.309-1.057.035-.925-.075-.913-.103-1.117-.253-1.013-.364-1.069-.474-1.213-.72-7.906-5.017M300.676 458.889l-3.384 4.945M293.017 474.065l.204-1.018.542-2.187.664-2.141.705-1.409M297.292 463.834l-1.491 2.21-.67 1.266" clip-path="url(#p64000c91a9)" style="fill:none;stroke:#000"/><path d="m283.91 467.76 3.907.028.766-.252.702-1.202h1.02l2.298.38 2.529.596M349.318 398.411l.823.278M549.866 523.738l1.667 1.107 1.285.664.678.158h.662l1.818-.094.742-.024.774.087 2.329.703.79.214.446.221.543.42 1.89 2.221.638.783.566.617.575.442.797.523 1.332.656.646.387.327.261.351.34.583.593.446.388.503.34.63.332 4.339 2.024.973.458 1.116.672.806.617 3.501 2.981.48.435.35.332 1.276 1.439.527.585.542.506.526.427 1.444.949 1.531 1.036 1.716.98 3.589 2.009.407.237.398.213.519.166.781.072h3.877l.79.063.638.071.502.142.83.364.638.403.87.728 1.427 1.565 6.732 6.776 5.185 5.527 1.26 1.439.957 1.154.686.87.941 1.36 2.233 3.566M627.235 547.68v1.771l-.12 1.36-.04.633.033.569.055.625.016 1.099-.327 1.304-.358 1.068-.248.514-.279.498-.287.553-.136.578-.016.458-.183 2.783-.16 1.408-.111 1.897-.463 2.712-.231 1.155-.439 1.304-.311.76-.2.585-.063.45.008.435.04.538.04.925-.04.703-.144.878M485.801 445.945l1.56.501M486.783 447.372l-.295-.498-.687-.929M453.163 435.796l.558.333 1.022.608 1.212.648 1.978.76.694.166.774.087 2.336-.119 2.122-.023 1.404-.063 1.037-.206.925-.11.742.03.638.174 1.117.467 2.21 1.25 2.87 2.34.55.443.719.45.662.38.694.292 1.754.499 4.547.759.422.11.383.166 1.268.708M355.432 457.001l-.087.806M355.432 457.001l-.279.411-.51.41M355.432 457.001l.207-.68M355.345 457.807l-.702.015M355.345 457.807l.597-.004M355.844 456.985l-.205-.665M356.604 457.8l-.409-.344-.351-.471M355.844 456.985l.098.818M356.604 457.8l-.662.003M355.639 456.32l-.03-.645M337.548 458.308l.57-.099 1.768-.075 14.757-.312M508.925 297.26l.83-.23.733-.308.662-.348.638-.396.678-.482.838-.593 1.268-1.107M525.874 296.034l-.997-.578-2.369-1.217-1.085-.672-1.164-.64-.599-.27-.678-.15-.613-.016-.511.032-.462.102-1.157.285-.44.127-.302.134-.28.127-.645.498M514.46 287.027l.2.554.733 2.498.152.499.08.648v.498l-.16.451-.893 1.62M506.976 297.604l-.739.13-2.473.403-2.273.459-.83.229-.542.103-.534.079-.75.11-.407.183-.375.197M466.523 301.118l.534-.047 1.667-.119.703-.087.773-.158.997-.23.83-.197 1.507-.245 1.436-.166.918-.04.646-.023.749.095 2.385.53 1.731.56 1.324.657.854.57.933.782.335.222.422.015.351-.26.766-.863.478-.434.415-.317.515-.213.422-.095.371-.024.344.008 1.523-.031 3.374-.056.526-.007.526-.064.52-.087.533-.127.918-.427 1.204-.743" clip-path="url(#p64000c91a9)" style="fill:none;stroke:#000"/><path d="m492.199 306.86.701-1.456.894-.949.701-.443 1.468-.38 1.021-1.201.639-.886.43-2.048M427.676 316.046l-1.664.61-1.34.19-1.276.317-6.19 2.609-1.563.918-1.946 1.328-1.052.411-.862.158-.861-.063M405.53 321.211l4.403 1.123.989.19M413.968 389.096h1.531l1.979-.19 1.467-.252.51-1.266 1.085-1.201 1.66.885 1.02-.126 1.213-.633 1.149-.822.765-1.14 1.34-6.008.383-6.137 1.213-5.124.063-1.518-.318-1.582-1.915-.885-4.403-.632-4.403-.633-2.233-.127-2.297-.38-.766-1.264.191-1.771.256-1.456 1.084-1.075-.063-1.328-.447-1.645-1.723-2.34-1.148-1.266-.511-2.278.128-1.708-.383-2.024-.128-1.202.766-1.77.255-1.962-.127-2.593.319-1.519.319-2.024-.575-1.139v-1.012l.064-1.518-.447-1.835-.255-1.707.336-2.365M405.53 321.211l-.465-.072M409.119 312.3l-.256 2.214v1.708l-.382 2.024-.383.633-1.34 1.139-1.228 1.193M405.065 321.14l-.557-.087-1.723-.063-.67-.063-.829-.19-1.276-.538-1.053-.348-3.701-.838-2.711-.791M381.036 315.19l4.457-.036.703.126 2.01.412.51.348.989.885.606.444 2.234.853M382.226 312.014l-.78 1.897-.41 1.279M373.804 310.854l1.75.385 1.166.901.97 1.425.543.537 1.117.696 1.686.392M333.192 416.062l-1.29-.723M333.192 416.062l2.542-4.235M403.17 151.992l-.367-1.348 2.176-4.812 1.835-2.037 3.487-6.585.53-3.423.631-1.66.304-2.18-.913-1.936-.999-1.247-.574-1.515.763-7.557.38-1.658M432.38 111.352l-1.562.69-9.7 1.203h-1.595l-1.658.19-4.786 2.467-2.655.132M616.523 306.377l1.77 1.004 3.024 1.131 1.125.498 1.507.838 1.946 1.052.894.562.996.418.655.238.805.174M630.792 299.774l-1.148 1.138-.893 1.14-.766 1.897.319 1.329.957 1.707.893 1.519.256 1.328-.447 1.392-.717 1.068M525.874 296.034l2.098.91 1.14.229 1.66.157 2.504.38 1.81-.268 1.249-.262.327-.308 1.695-2.87.383-.297 1.084-.403.65.07.97.555.837.502.858.142 1.168-.205 2.588-.787 1.504-.922 2.795-1.921 2.816-2.59 2.006-1.388 1.204-.521 1.62-.467 5.982-.688 1.029-.348 1.475-.056 2.648 1.187.965.521 1.189.198.59.38 1.46 1.581.207.973 1.963.81.924.218.715.751.777.577 1.176.542 1.349.917.849.186 2.624 1.218 1.428.233.638.186.543.15.745.27 2.533.458 1.268.42 1.452.624 1.587.419.814.055 1.53.483.423.023 2.361 1.076 2.066.442.642.384.57.502 2.737 1.368 4.506 2.182 2.05 1.068 2.895.767.973.53M626.859 320.524l-1.634-1.914-2.377-2.879-3.365-4.27-1.277-1.708-1.005-1.724-.678-1.652M525.06 291.487l.256 1.708.447 1.138.111 1.7M525.922 384.59l-.064.647-.112.554-.23.577-1.093 2.57-1.245 2.586-.614 1.289-1.005 1.375-.494.582-.148.241-.048.146-.044.214-.136.763-.043.415-.052.692-.124 1.407-.064.384-.068.217-.055.23-.164.585-.052.545-.028.826.004.625.02.764.013.786-.049 1.055-.003.87-.053.981-.095.538-.108.466-.06.265-.071.344-.116.819-.032.249-.056.197-.123.226-.714.648-.255.241-.24.309-.187.3-.164.368-.036.213.036.257.14.265.474.53.52.407.346.225.122.054.137.055.152.026.143-.024.67-.391.16-.071.175.015.14.067.103.111 4.12 6.207.084.129.028.134-.04.16-.746.85-1.348 1.547-1.803 2.213-.374.333-.44.497-.43.673-.183.466-.184.435-.087.427v.411l.031.333.152.308.495.743.622.712.398.229.463.174.566.095.615-.04.275-.023.283-.055.283.027.26.099.486.213.59.071.271.04.264.111.323.293.275.331.518.736.232.19.263.099.263.067.523-.009.498-.063.53.008.351.076.331.138.615.3.645.49 1.596 1.463 2.281 2.072 1.663 1.25.212.217.207.3.219.356.307.368.399.387.447.277.494.245" clip-path="url(#p64000c91a9)" style="fill:none;stroke:#000"/><path d="m487.36 446.446 4.009 1.29 2.592 1.067 1.197.475.415.23.31.268.312.23.31.11.455.15.91.372.837.27.694.173.742.063 1.77.08 2.633-.301 3.142-.435 2.377-.245.774-.095.71-.111 2.178-.72 2.982-1.177 1.468-.451 1.492-.38 5.136-1.344.766-.3 4.642-1.93 4.188-1.415 1.451-.601 3.023-1.384M569.427 452.71l-1.167-.633-4.763-2.68-1.044-.649-1.164-.98-.583-.585-.59-.72-.487-.751-.463-.91-.661-1.747-1.923-4.91-.22-.36-.219-.285-.27-.225-.327-.198-1.23-.371-1.626-.483-1.444-.68-1.698-.885-.404-.091-.386-.028-.702.119-.742.229-.614.237-.407.27-.51.387-.67.648-.606.459-1.444.893-4.188 2.554M532.826 384.297l-.314-.019M538.014 384.593l-.87-.051-4.318-.245" clip-path="url(#p64000c91a9)" style="fill:none;stroke:#000"/><path d="m525.922 384.59.463.023 2.097.024 1.42-.088.821.009.966.039.334-.024.264-.055.54-.221M516.3 383.335l.569.329.606.435.272.142.246.072.423.055 1.165.031h3.597l2.13.127.614.063M516.3 383.335l16.212.943M313.779 452.663l-1.734 1.624-.078.085-.046.105-.02.158.046.196 1.114 1.8.206.114.261.007.188-.041 1.742-1.115.12-.134.036-.125-.018-.107-.05-.097-1.767-2.47" clip-path="url(#p64000c91a9)" style="fill:none;stroke:#000"/><path d="m313.779 452.663 1.767 2.47.05.097.018.107-.036.125-.12.134-1.742 1.115-.188.041-.26-.007-.207-.113-1.114-1.801-.046-.196.02-.158.046-.105.078-.085 1.734-1.624M365.213 240.035l-1.91.748-5.487-.38-9.316-4.049-9.571-7.718-11.997-1.897-6.763-4.682-4.722-5.82-6.254-3.543-14.293 1.393-18.377-6.707-6.764 2.658-6.891.885-3.701-3.037-4.467-1.391-7.02.253-5.104 1.644-6.253 4.176-6.636 2.657-3.318 2.91-.51 2.151 1.658 6.58-.255 3.795M365.213 240.035l.834-.327 2.872 4.808 4.084.19 4.594 1.644" clip-path="url(#p64000c91a9)" style="fill:none;stroke:#000"/><path d="m384.36 260.932-5.553-4.744-.064-.633.192-1.013-.447-2.467-.255-4.08-.574-.854-.096-.443.034-.348M609.931 195.997l-1.24 1.42-1.189 1.423-.383.49-.653.862-1.19 2-.462.68-.406.412-1.548 1.55-1.252 1.408-.415.332-.263.126-.558.119-.654.055-.846.008-.259.056-.228.11-.39.277-.2.174-.399.585-.319.586-.973 1.984-.646 1.59-.215.64-.096.46-.055.608-.072.743-.024.412-.104.49-.566 1.81-.583 1.645-.367.942-.247.948-.766 3.069-.199.498-.223.458-.941 1.487-.224.467-.08.276-.023.38.047.562.224 2.411.024.775-.064.253-.12.301-.223.324-.901 1.344-.535 1.123-.12.506-.063.388.064.419.215.443.35.506.527.498.327.308.248.332.207.293.104.269.072.316.079.791.032.356-.036.36-.103.364-.196.316-.208.253-.207.221-.116.158-.163.226-.422.814M562.987 261.786l.407-.451.287-.38.662-1.067 1.324-2.198.51-.76.327-.332.814-.513 1.109-.507 1.683-1.028 2.457-1.17 1.148-.546.798-.34.43-.166.351-.055 1.253-.016.335-.024.35-.087.767-.41.693-.42.67-.443.606-.474.559-.482.574-.372.447-.206.526-.229.479-.3 2.05-1.63.901-.759 1.244-1.083.822-.822.454-.404 1.005-.74.687-.565" clip-path="url(#p64000c91a9)" style="fill:none;stroke:#000"/><path d="m613.24 231.35-.358-.088-.251-.138-.263-.21-.211-.217-.523-.581-.24-.234-.187-.083-.347-.035-.363.023-.41.099-1.723.502-.275.076-.44.058-1.495.15-1.559.29-1.097.189-1.388.305-.526.158-.323.134-1.276.716-.559.26-.406.155-.343.095-.411.139-.383.22-.299.265-.2.218-.163.257-.172.324-.243.61-.355.937-.1.24-.135.278-.216.32-.29.387-.32.4-1.355 1.6-1.085 1.246-.236.289-.327.344-.435.391-.51.376-.467.257-1.26.735M622.41 179.418l.048-.201.04-.257.047-.179.144-.217.255-.257.227-.21.32-.233.35-.233.778-.36.837-.297.336-.047.31-.004 2.892.075.714.115.455.06.279-.017.33-.047.232-.056.248-.098.258-.166.208-.15.41-.301.858-.787.965-.806.124-.159.084-.142.023-.135-.023-.521-.009-.412.013-.68.096-.285.15-.229.208-.233.227-.158.335-.15M636.184 155.916l-.287 1.265.032 1.486.224 1.298.51 1.138.606 1.107-.191 2.025-.67 2.372-1.244 2.531-.447 1.36.462 1.143M609.931 195.997l.77-.834.383-.506.606-.933.606-.854.263-.285.343-.348.479-.372.59-.38.63-.387 1.005-.632.79-.436.837-.276.822-.182.702-.056.542-.126.463-.253.358-.324 1.197-1.487.375-.514.415-.609.478-.846.263-.767.272-.925.159-1.02.032-.918-.12-.727-.782-1.582" clip-path="url(#p64000c91a9)" style="fill:none;stroke:#000"/><path d="m628.384 105.81-.064.522-.335.759-3.43 5.63-.909 1.519-.08.3.08.364.239.459.878 1.408.223.632.16.649.16.728-.065.838-.048 1.106-.319 1.598.032.854.096.712 1.005 2.815.519 1.898.223.585.271.554.096.474.032.791.047 1.423.064.934-.04 1.13-.087.625-.112.357-.16.442-.375.672-.286.506-.2.396-.16.458-.35 1.376-.168.538-.223.435-.208.309-.358.403-.894.862-.215.213-.184.246-.112.229-.94 1.827-.391.838-.096.308v.253l.087.364.351.83.511 1.037.543.767.414.458 1.228 1.06.894.83.415.483.694 1.02.957 1.795.63 1.669.072.379.023.277-.023.308-.16.435-.407.87-.347.7-.283.625-.263.632-.28.712-.29.668-.355.653-.328.498-.41.514-.47.526-.4.439-.294.41-.276.436-.227.482-.184.577-.179.66-.191.558-.14.388-.124.336-.112.233-.227.376-.73 1.15-.422.827-.57 1.233-.303.728-.168.498-.08.356-.075.467-.053 1.047.037.47.059.226.06.162.155.289.511.846.403.732.582.969.454.628M580.132 189.303l.455.047 1.85-.023.459-.06.227-.036.215-.082.798-.447.18-.095.171-.08 1.384-.434.658-.21 1.04-.233.304-.04.383-.02 1.24-.019 1.188.048.838.07.558.084.527.182.41.186.4.269 1.176 1.024.61.38.223.102.232.07.57.04.79-.027.267.047.295.17.387.265.706.629.466.289.467.264.415.214.482.099 1.113.067.387.055.498.123.391.126 1.14.507 1.5.794.427.167.399.134.267.114.355.21.793.577.699.455.65.384.414.166.395.142M408.329 292.401l2.672 1.047 3.51 3.1 1.212.316M426.89 288.767l-7.657 5.503-2.234 2.404-1.276.19M427.676 316.046l1.224-3.114.383-1.898-.83-1.645-1.021-1.454-1.723-1.835-1.084-1.582-.703-1.518-.893-1.202-1.787-.063-1.212-.696-1.148-1.012-.83-.949-.638-.885-1.691-1.329" clip-path="url(#p64000c91a9)" style="fill:none;stroke:#000"/><path d="m459.106 283.216-.854-.198-1.755-.483-1.037-.213-.526-.063-.502-.095-1.022-.332-.87-.143-.757.008-.574.08-.566.237-2.138 1.004-.869.482-.694.3-.519.143-.502.103-.534.15-1.412.57-.559.236-.646.19-.59.064-.766-.024-.446.04-.344.166-.422.26-.367.301-1.946 1.55-1.037.973-.24.158-.358.063-.43-.056-.6-.205-.55-.213-.39-.024-.822.095-5.424 1.502-1.149-1.075M428.836 271.876l-.575.885-.893 1.076-.128 1.076.192.948.128 1.519-.383 2.024-.128 1.835-.51 1.96.255 1.455.319 1.709-.224 2.404M463.309 286.32l-.363.798M462.252 286.197l.144.055.135.06.18.043.327-.004.27-.032M504.873 280.978l-1.372-.538-.813-.316-.511-.142-1.715-.103-.39-.009-.607.072-.686.134-2.32.704-.44.047-.367-.103-.494-.252-.902-.475-.845-.403-1.26-.403-.415-.262-.726-.553-.813-.411-.36-.103-.382.008-.782.126-1.109.277-2.536.736-.31.174-.248.19-.543.537-.359.308-.286.111-.416.016-.502-.07-1.444-.278-.462-.261-.47-.356-.487-.364-.638-.34-.416-.165-.446-.08-.447.032-.43.19-2.433 1.004-1.1.561-.28.333-.104.387-.111.506-.128.482-.343.744-.766 1.4-.59.751-.415.324-.374.158-.934.126-1.276.182-.606-.007-.981-.04-.574.008-.687.024-.71.11-.414.119-.47.23-.52.264M504.873 280.978l.47.245.303.269.295.292.798.933.67 1.092.24.521.19.404.296.427.925.806.43.23.368.103 1.196.197 3.406.53M562.987 261.786l-.55.213-.67.159-.806.134-.638.206-.63.3-.574.269-.63.316-3.845 1.566-1.778.917-.551.19-.566.087-1.683.253-.479.134-1.3.483-.399.11h-.335l-.51-.142-.981-.522-1.372-.854-.71-.387-.822-.293-.98-.142-.806.055-.83.253-.765.309-.83.379-.861.45-.622.412-.543.38-2.081 1.44-3.016 1.778-.43.324-.407.356-.223.285-.312.467-.454.98-.304.846-.215.585-.279.506-.43.554-.583.474-.694.364-1.571.538-.543.26-.327.262-.358.363-.766.878-.59.728-.391.648-.415.688-.415.443-.981.625-.63.466-.574.577-.192.293-.303.356-.27.3-.894.601-1.97 1.503-1.843 1.518M586.54 260.647l-1.116.696-1.212 1.424-.862 1.676-1.053 1.17-1.307.475-2.362 1.676-.765.57-1.053.094-2.585-1.644-.765-.602-1.436-.158-1.117-.253-.574-.348-.51-1.075-.925-1.139-.926-.538-4.985-.885M586.638 387.198l-.2.333-.244.351-.335.277-.387.297-1.148.854-.814.609-.726.672-.805 1.028-.591.814-.335.419-.885 1.028-.487.483-.422.49-.336.514-.374.616-.758 1.408-.319.625-.271.419-.4.356-1.14.735-1.069.822-.239.198-.231.222-.224.34-.494.996-.279.324-.91.996-1.013.981-1.052.94M586.345 387.175l.738-.704.304-.324.326-.237.686-.372 1.045-.585.702-.467.543-.419.678-.664.39-.498.328-.459.454-.364.941-.584.32-.277.23-.293.455-.608.399-.34.47-.31.495-.213 1.651-.545.478-.214.87-.537.989-.712.479-.245 1.372-.19.375-.071.327-.15.191-.254v-.26l-.359-.688-.208-.253-.19-.253-.112-.238-.048-.237.032-.269-.02-.3-.06-.38-.24-.601-1.738-3.202M586.345 387.175l.293.023M551.19 385.333l6.342.348 8.303.363 5.894.364 6.597.34 8.019.427M599.673 472.163l1.034.852.438.356.343.237.47.245.503.134 1.46.167.566.07.47.19 2.442 1.25 1.954 1.1 2.632 1.557 1.81 1.154M616.89 470.485l-.128.664-.478 2.135-.415 1.534-.215.656-.455 1.115-1.403 2.886M569.427 452.71l.595.324 2.058 1.115.99.6.502.31.422.37.838.792.375.419.383.442.335.285.486.324.798.459 1.228.87M599.673 472.163l-.123-.081-.997-.917-.535-.364-.526-.268-.646-.206-2.943-1.107-2.305-.83-1.085-.427-.534-.34-.288-.246-.279-.324-.47-.537-2.314-2.31-.685-.584-1.373-.941-.805-.459-.75-.435-.702-.38-1.635-.663-.486-.262-.566-.395-.527-.435-.351-.308-.311-.325" clip-path="url(#p64000c91a9)" style="fill:none;stroke:#000"/><path d="M581.276 456.469 580 457.86l-1.563 1.16M335.734 411.827l2.262 1.253M314.13 408.706l1.189-.442 1.148-.823 1.468-.759 1.34-.316 1.85.253 1.404.19 2.042-.316 1.404.442 1.723 1.139 1.532.57 1.977.379 1.787.948 2.74 1.856M279.872 553.175l2.573-3.803 1.225-1.91.638-1.253.506-1.17.45-1.423.663-3.194M287.63 524.762l.076.562.163 1.747-.012 1.809-.032.662-.36 2.522-.68 3.669-.858 4.689M302.432 546.466l-4.342-1.063-12.163-4.981M287.63 524.762l-.28-1.66-.654-2.495-1.196-4.764-.26-1.206-.123-1.53.024-1.612M286.8 503.143l-.107.67-.802 3.763-.575 2.724-.175 1.195" clip-path="url(#p64000c91a9)" style="fill:none;stroke:#000"/><path d="m278.31 508.873.286.474.543.633.67.411.766.475.989.221 1.755-.031.765.126 1.057.313M118.403 464.673l.39-.048.56-.023.626.071.705.218.65.276 1.002.625 1.15.692.317.146.19.024.153-.014.136-.05.27-.114.974-.534.87-.376" clip-path="url(#p64000c91a9)" style="fill:none;stroke:#000"/><path d="m180.477 476.735-.61.131-.374.146-.395.071-.754-.075-.965-.427-.658-.296-.666-.242-.742-.173-2.114-.21-1.42-.43-.81-.088-.673.063-.506.174-1.093.613-1.26.731-.673.352-.532.182-.355.06-.761-.04-1.293-.197-.318-.009-.32.083-1.565.477-.349.134-.305.085-.285.038-.194-.02-.512-.136-.957-.091-1.256-.055-.42-.028-.329-.07-.23-.134-.417-.362-.566-.395-.762-.415-.973-.328-1.121-.285-.623-.004-.67.123-1.766.502-.586.144-.547.091-.634.002-.87-.004-.848-.016-.706-.087-.674-.205-.75-.305-.718-.304-.79-.403-.454-.317-.395-.383-.495-.404-.638-.434-.754-.384-1.324-.68-1.092-.609-1.488-.91-.73-.509-.43-.384-.296-.39-.538-.625-.28-.352-.362-.293-.459-.245-.439-.133-.229-.108-.528-.384-.746-.6-.798-.594-.618-.442-.841-.404-.534-.186-.38-.05-.562.026-.957.257M127.91 480.44l-.51-1.582-1.212-.885-.255-1.202.446-2.277.51-2.404v-1.076l-.382-1.77-.064-.886-.048-2.792M106.896 471.947l.803-.118 1.468-.427 1.188-.475.781-.442 1.245-.933 1.396-1.234.406-.292.838-.49.742-.483.893-.83.981-.933.495-.451.271-.166" clip-path="url(#p64000c91a9)" style="fill:none;stroke:#000"/><path d="m104.493 461.906 1.148.569 2.871.633 1.787.19h2.233l2.234.126 3.637 1.25M105.274 472.311l1.515 7.968M106.896 471.947l-.808.12-.814.244M227.655 480.869h.165l.395-.057 1.124-.376.918-.372.905-.454.798-.507.458-.24.244-.076.307-.059.805-.107 1.177-.324 1.228-.454 1.312-.495 1.276-.577 1.073-.506.627-.435.498-.403.897-.917.73-.87.746-1.012.666-.767.295-.42.275-.525.216-.53.358-.49 1.045-.562 2.589-.932.753-.325.23-.164.265-.223.885-.874.61-.53 2.13-1.332.638-.332.81-.368 1.2-.664.79-.283.698-.31.764-.518 1.37-.953 1.38-.975 1.57-1.254 1.324-1.088.882-.775.989-.75.606-.432.343-.146.323-.024.343.055.905.404 1.711.873 1.624.787.661.356 1.07 1.012 1.475 1.218 1.272.972 1.029.85.532.386.17.109 1.065.486.961.435M274.425 470.145l.822-.901 1.288-1.372.737-.803.24-.371.219-.278.57-.565 1.416-1.41.443-.42M283.91 467.76l-.348-.707-1.404-2.574-.726-1.253-.102-.057-.086-.009-.09.023-.157.083-.466.407-.371.352M293.017 474.065l-.694 3.473M289.444 476.77l.997-.9 1.245-1.02.662-.42.67-.365M289.444 476.77l2.88.768M283.91 467.76l.98 1.982.534 1.146.678 1.637.67 1.826.355 1.064.495 1.317.167.26.263.143.36.067.209.015.277-.035.2-.087.346-.324M289.502 489.974l.851-3.327 1.328-5.9.642-3.209M227.655 480.869l-.192-.038-.329-.127-1.619-1.027-.37-.198-1.161-.494-1.169-.498-1.906-.894-.575-.146-.63-.071-1.224-.08-1.34-.237-.67-.21-.542-.26-2.637-1.577-.478-.162-.403-.012-.366.083-1.544.546-1.041.331-1.328.332-1.268.431-.315.1-.216.019-.239-.047-.594-.206-.897-.095-1.68.028-.977.047-1.44.325-.797.047-.963-.085-.692-.081-1.36-.02-.965.024-.454.122-.52.202-.47.055-.546-.071-.403-.047-.498-.004-.862.142-.869.095-.706-.043-1.196-.135h-.587l-1.064-.047-1.017.063-1.077.198-.993.138-.335-.002-.78-.145-1.362-.282-.853-.129-.659.008M183.297 451.658l-.383.57-1.404.948.639 2.214v2.024l-.575 2.467-1.34 1.645-.957 1.582-.383 1.454-1.914.886-1.85 1.075-.702 2.215.128 1.897 1.148 2.467 1.787 1.392 1.276.885 1.71 1.356M264.84 575.143l3.005-4.375 9.02-13.15 3.007-4.443M281.975 572.23l-.65-3.21-.152-1.04-.04-.889.128-1.028.773-3.107.152-.736.064-.719-.008-1.755.167-1.708-.104-.806-.23-.76-1.181-1.77-1.022-1.527M273.508 546.288l.694-.055.423.048.213.065.17.085.267.292 1.543 2.052.526.783.605 1.164.233.639.191.486.2.293 1.3 1.035M287.63 524.762l-.838-.122-.57-.123M278.947 523.18l.252.064.606.142 1.392.178 1.027.23 2.024.399 1.252.229.722.095" clip-path="url(#p64000c91a9)" style="fill:none;stroke:#000"/><path d="m273.508 546.288.231-.798.136-.558.151-1.015.068-.451.164-.455.634-.937 1.013-1.26.881-.946 1.061-1.233.367-.598.63-1.094 1.443-2.254 1.83-3.154.475-1.131.228-.613.251-.462.534-.83.918-1.369 1.244-1.826.455-.787M287.63 524.762l1.168-.146.814-.095 1.46-.158 2.033-.348.742-.158.63-.198 1.883-.767 1.707-.79.422-.206.295-.237.192-.478.052-.672.087-.926.172-.806.311-.834.39-.981M301.016 444.828l-1.063.853-1.017.763-.97.571-.982.231h-1.26M281.835 460.237l1.108-1.075 1.34-1.115 1.62-1.423 2.48-2.309.93-.917.973-1.04 1.316-1.415 1.14-1.176 1.174-1.39.63-.548.693-.435.484-.148" clip-path="url(#p64000c91a9)" style="fill:none;stroke:#000"/><path d="m282.98 425.473.294.737.042 1.19-.92 6.928-.234 2.43.075 1.338.403 1.084.603.825.917.661 2.329 1.159 2.465 1.438 2.381 1.595 1.975.69.859.454.796.739.758.505M302.796 445.134l-.872-.282-.908-.024M302.972 443.265l-.552.61-1.404.953M307.917 448.383l-3.446-2.133-1.675-1.116M302.972 443.265l.033.921-.209.948M226.783 487.62l-.287-.285-.35-.696-.032-.728.159-1.075-.096-1.075.064-.854.32-.665.286-.664.808-.71M238.78 580.928l-.204.553-.375.514-.697.839-1.054 1.613-.91 1.47-.182.76.007.529" clip-path="url(#p64000c91a9)" style="fill:none;stroke:#000"/><path d="m236.356 588.829-.735-1.054-.256-.57M228.032 590.345l.43-.08.905-.402 1.051-.447.904-.324.518-.218.539-.34.59-.501.51-.51.361-.28.275-.128.293-.004.957.095M240.981 576.425l-.558.787-.718 1.083-.375.862-.335.854-.216.917M220.865 568.538l2.297 1.281 2.241 1.297 1.333.585 1.85 1.312.871.372.445.166.45.19.559.308 1.392.973 1.715 1.32 1.483 1.676.69.68 2.588 2.23M246.748 581.311l-2.19-1.87-1.045-.877-.402-.391-1.097-1.087-.447-.336-.586-.325M245.97 564.774l.195.392.623.649.1.185-.005.202-.1.245-.362.759-.655 1.043-1.324 2.108-.454.498-.315.253-.866.522-.617.348-.34.316-.378.55-.89 1.257-.3.486-.043.3.064.44.192.466.486.632" clip-path="url(#p64000c91a9)" style="fill:none;stroke:#000"/><path d="m244.95 586.728-.048-.501.115-.587.438-1.32.615-1.613.678-1.396M273.508 546.288l-.678 1.226-1.667 3.353-.407.66-.742.866-.622.735-.327.514-.247.64-.686 1.606-1.053 1.85-1.316 1.929-.51.743-.288.316-.399.364-.9.57-.69.438-.763.601-.322.411-.36.621-.386.605-.251.214-.28.169-1.08.503-.491.39-.45.396-1.033.83-.866.597-1.047.732-1.127.723-.865.506-.495.391-.41.459-.315.411-.248.395-.155.325-.196.861-.395 1.368-.8 2.483-.276.866-.423.76-.49.608-1.07 1.067-1.228 1.404-.406.517M236.356 588.829l.613.805 1.029 1.304 1.124 1.138.447.317.375.095.28.015.274-.035.284-.083.885-.435 1.268-.624.934-.775.17-.266.092-.257v-.845l.04-.364.176-.767.603-1.324M254.717 589.88l-4.324-2.204-.858-.474-.937-.443-.399-.087-.402-.031-.878.043-1.396.186-.294.005-.279-.147M254.717 589.88l.682-.995M258.826 583.898l-3.427 4.987M264.84 575.143l-5.598 8.15-.416.605" clip-path="url(#p64000c91a9)" style="fill:none;stroke:#000"/><path d="m254.86 576.05.223 1.28.087.273.428.973.218.613.056.41-.071.317-.192.664-.051.233-.013.159.013.138.04.114.19.19 1.101 1.087.882.752.622.407.433.238M257.97 573.899l.902.031.41.131.586.273.483.205.425.075.261.006.267-.08.416-.319.206-.061.158-.008.736-.012.708-.033.25-.006.138.05.128.096.796.896M220.865 568.538l.519-.806.733-1.21.91-1.787.765-1.486.606-.854M214.46 566.83l1.727.795 1.137.49.482.091 1.376.048 1.06.118.623.166M209.14 561.952l1.22 1.17 1.58 1.764.654.64 1.132.854.734.45M221.2 555.619l-1.818 4.08-.192 1.328-.606 1.233-.574.854-.384.822-.733.38-.83-.032-.383.506-.542 1.044-.678.996M208.163 559.947l.235.649.403.704.34.652M207.461 561.383l.21-.018.269.022.447.142.753.423M177.802 619.224l-.363-.11-.347-.25-.224-.292-.642-1.088-.973-1.628-.271-.585-.136-.392-.259-1.115-.087-.288-.383-.716" clip-path="url(#p64000c91a9)" style="fill:none;stroke:#000"/><path d="m193.475 578.941-.616.588-.932.818-.642.49-.69.421-.494.338-.335.435-.251.49-.22.771-.139 1.143-.136.638-.319 1.093-.718 2.088-.275.735-.656 1.285-.251.62-.11.542-.175 1.083-.188.716-.323.597-.335.486-.778.862-.737.984-1.567 1.941-.332.494-.295.566-.35.977-.934 2.68-.349.758-.676.985-.921 1.222-1.12 1.34-.41.589-.191.376-.134.513-.131.625-.208.684-.314.759-.32.553-.145.147-.341.269-.686.596-.614.522M421.334 516.464l-1.75-1.29-.634-.537-.866-1.241-1.204-1.522-.563-.712-.606-.834-.335-.628-.315-.72-.247-.818-.248-.8-.342-.782-.519-.846-.53-.589-.574-.403M393.97 494.468l.361.435.48.359.55.296 1.415.609 1.188.371 1.575.538 1.18.636 3.088 2.187 1.639 1.162 3.262 1.941 2.848 1.329 1.045.41M445.977 504.137l.191 2.68.001.048-.012.054-.037.049-2.816.885-.342.111-.184-.016-.43-.15-.32-.024-.27.024-.272.079-3.493 1.534-.226.059-.213.012-.248-.047-.406-.15-1.747-1.282-.638-.537-.878-.807-2.552-3.826-.43-.333-.431-.094-.447.063-5.75 1.36-1.15.166-1.228-.064-1.013-.063-.622.063-.598.127-.447.126-.422.024-2.29-.134-1.794-.135-.447.08-.542.158-.527.253-.346.312M427.046 519.572l-.607-.313-1.56-.989-1.136-.612-2.409-1.194M417.287 523.58l-.607-1.265-.192-.696-.159-.474.032-.412.223-.348.543-.284.542-.41.958-.602 1.403-1.17 1.304-1.455M427.046 519.572l.382.197 1.236 1.028.483.478.335.518 1.26 2.53.44.886.418.672.482.696.128.332.147.62.02 1.032-.056.625-.163.479-.056.66v1.123l.112.446.466.898.284.427.25.19.487.193.411.043h.59l.718.115 2.46.47.352.024.39.016.334.038.34.093.758.3.826.613 1.156.83.351.253.343.158.495.103 2.385.49" clip-path="url(#p64000c91a9)" style="fill:none;stroke:#000"/><path d="m451.52 581.102-.774-1.344-.032-.129-.007-.128.004-.186-.022-.188-.025-.095-.049-.1-.235-.329-.63-.9-1.082-1.764-.143-.344-.143-.388-.172-.54-.084-.357-.052-.371-.135-1.305-.2-1.328-.47-1.756-.208-.656-.327-.617-.358-.609-1.205-2.047-1.084-2.009-1.03-1.85-.821-1.376-.91-1.075-.765-.996-.114-.158-.026-.115.012-.107.112-.268.797-1.131.75-1.218.543-.735.127-.285.056-.19-.016-.284-.16-.862.072-.925.008-.18.06-.176.188-.245.462-.388.232-.213.151-.23.036-.232-.004-.25-.096-.798-.103-1.076-.016-1.296.159-1.392.176-.775.08-.735.015-.545-.047-1.036.08-1.93.071-.98.112-.53.207-.435.287-.419.36-.458.478-.57M460.748 531.78l-1.73 1.138-2.37 1.305-3.963 1.77-1.38.578-.479.26-1.539.784-.36.095-.302-.009-.287-.039-.392-.087-1.371-.268-.965-.159M189.965 612.958l-.734.126-2.233-.79-.766.063-.925.158-1.02.063-.798.063-1.213.696-.606.791-.574.696-1.244 1.391-1.309 1.771-.741 1.238M278.947 523.18l-.075-2.174-.06-1.419-.074-.943-.08-.456-.153-.327-.479-.776-.746-1.01-.56-.659-.54-.696-1.069-1.581-.35-.668-.045-.316.052-.281.142-.186.145-.142.678-.451M252.02 512.827l.447-.981.829-.632 1.468-.412.925-.38 1.532-.379.957-.126 2.041.158 1.436.664.83.475 1.085.41 2.073 1.487 3.35 2.025.607.474.446.632.383.823.446.727.543.38.35.506.217.442.476.386.803.571 1.32.842 1.24.843.759.525.586.356.734.309 1.044.229M323.802 446.529l-1.392-1.236-3.342-2.8-1.939-1.643M337.548 458.308l-.688-.554M334.073 459.404l.493-.214 1.12-.423 1.061-.32.8-.139" clip-path="url(#p64000c91a9)" style="fill:none;stroke:#000"/><path d="m321.99 448.312.188.183 4.1 3.685 2.688 2.34 2.728 2.546 2.38 2.338M393.97 494.468l-.301-.365-.75-1.083-1.052-1.882-1.094-1.7-.685-1.66-.495-1.993-.335-1.898-.423-3.51-.064-.451-.183-.348-.407-.38-1.308-.885-.917-.482-.782-.12-.75.104-3.54.506-.444.095-.335-.004-.287-.075-.442-.309-1.46-1.107-1.468-1.502-.933-1.107M347.096 480.377v1.138l.702 1.075.702.444.829.442 1.276 1.581 1.085.823 1.468.696 1.148.759 1.34 7.59 3.127 1.076 4.467.316 3.956.949 1.85-.063 1.66-.317 2.041-.316.958-.443 1.148-1.645.894-1.391 1.276-1.898.829-1.897.383-1.772v-1.391l.574-2.34-.191-2.025-1.149-1.645-1.85-2.91-.32-1.011.216-1.89M195.006 533.764l-3.956 2.412-.495.254-.153.127-.062.097-.052.241-.056.42-.055 1.648-.036 2.435.047.668-.055.578-.132.537-.263.601-.462.502-.483.32-.196.333-.14.561.033.37.12.362.648 1.025.422.473.908.873.949 1.206 2.145 2.799 1.4 2.038.897 1.192.41.316.38.127.79.031 1.156-.193 1.093-.261 1.368-.06 1.017-.154.458-.126.89-.396 1.065-.324.785-.079.901.11.762.21.57.285.491.443.327.57" clip-path="url(#p64000c91a9)" style="fill:none;stroke:#000"/><path d="m208.163 559.947.18-.936.239-.72.12-.51-.048-.75-.212-.697" clip-path="url(#p64000c91a9)" style="fill:none;stroke:#000"/><path d="m207.864 548.313.191.759.319.664.064.854.064 1.297.479 1.17.542 1.17-.128 1.075-.223.538-.73.494M207.461 561.383l.447-.708.255-.728M207.461 561.383l-1.647.395-1.189.3M207.461 561.383l-.203.296-.898 1.538-.383.356-.85.541-1.315.846-.51.423-.579.581-.941 1.135-.243.194-.543.324-.582.356-.271.25-.204.26-.187.49-.04.455-.016 1.305.084 1.07.211 1.234.026.425-.038.634-.096.475-.274.443-.451.308-.734.265-1.815.664-.825.348-.43.293-.653.715-1.226 1.334M178.225 570.831l.989.095.893.032 1.053.38 1.148.19.99.062.956.443 2.042 1.834 7.179 5.074M380.161 599.098l-.275-.312-1.2-1.89-.794-1.348-1.112-1.97-.503-1.008-.355-.972-.208-.7-.318-1.518-.12-.605-.084-.264-.163-.254-.938-.845-1.12-1.242-.702-.585-.635-.364-.522-.363-.287-.427-.754-1.973-.849-1.565-.323-.894-.168-.787-.167-1.945-.232-1.597-.083-.822-.24-.585-.302-.47-.371-.416-.451-.467-1.06-1.383-.407-.743-.52-.593-.585-.502-.683-.478-.406-.266-.184-.05-.16-.005-1.455-.071-.319-.079-1.049-.392-1.025-.276-.59-.217-1.77-.736-.615-.166-.403-.214-.73-.565-.634-.534-.534-.399-.945-.913-1.252-.854-.391-.269-.263-.158-.22-.073-.221.03-.48.225-.362.122-.285-.01-.367-.152-.35-.095-.384-.075-.478-.015-.447-.009-.147-.043-.459-.225-.347-.075-.399-.04-.57.052M426.914 599.307l1.316 2.424 1.376 2.81.993 1.945.31.49.615.653 1.252 1.771 1.101 2.127.366 1.202.551 1.494.291 1.103.102.385M426.914 599.307l-1.026-1.407-.534-.95-.402-.54-.778-.74-.75-.775-.543-.672-.546-.91-.2-.39-.035-.356.096-.253.243-.261.742-.49 1.281-1.036M428.202 594.587l-.858-1.103-.741-.886-1.22-1.233-.92-.838M415.62 583.545l.945.688.993.814 2.425 1.787 2.073 1.74 1.85 1.447.556.506M428.202 594.587l.125.247.05.245-.02.279-.49 1.435-.953 2.514M380.161 599.098l.294.093.299.023.265-.01.933-.158.801-.027.262-.042.153-.08.439-.48.459-.893.73-1.328.235-.459.111-.146.18-.087.562-.044 1.587.012 1.073-.008.427-.059.925-.351.475-.108.818-.134 1.22-.293 2.193-.36 1.356-.007.598.087.45.138.452.261.817.692.658.625.463.55.415.814.25.383.196.143.22.023.199-.102.32-.305 2.643-2.74.49-.462.304-.336.065-.135.322-.85.243-.43.28-.309.352-.289.253-.132.316-.132.255-.139.259-.213.506-.57 1.74-1.929 1.188-1.411.53-.62.287-.258.53-.237 1.05-.376.909-.3.33-.146.404-.383 1.368-1.519M389.535 560.688l.401.272.929.757 1.153 1.081 1.495 1.241.89.803 1.096 1.182.982 1.114 1.559 1.325 2.034 1.538 2.66 2.088 1.376 1.094 1.694 1.218 1.596 1.198 2.066 1.688 1.288 1.316 1.3 1.392.977 1.044 1.296 1.186.694.735.599.585M377.243 555.85l.637.367 1.236.042.738.075.69.178 1.193.466 2.42 1.048 2.03.973 1.572.763 1.776.926M386.398 550.727l2.348 6.024.753 2.134.036 1.803M451.52 581.102l.336-.262M428.202 594.587l1.184-1.04 1.643-1.431 1.093-1.068 1.46-1.248 1.34-1.155 1.236-.917 1.759-1.198 1.356-.81.542-.49.59-.859.355-.502.311-.355.336-.309.43-.277.478-.324.392-.237.31-.174.415-.134 1.284-.095 1.468-.08 1.986-.142 2.473-.276.259-.06.243-.098.375-.206M391.922 618.208l-.447-.411-.382-.538-.256-.6-.223-.634-.479-.663-.765-.506-.638-.317-.639-.19-.638-.031-.765-.285-.543-.316-.701-.158-.67-.506-1.022-.854-.16-.823-.222-.822-.224-.6-.191-.696-.415-.664-.606-.538-.638-.38-.415-.664-.415-.822-.191-.664-.192-1.329-.031-.727v-3.51l.107-.862M323.223 606.328l-.275-.506-.87-1.269-.92-1.463-1.273-1.945-2.17-3.396-.602-.956-.308-.84-.11-.224-.427-.435-.299-.355-.098-.216-.034-.225.1-.33.35-.74.113-.162.16-.146.358-.126 1.572-.348.618-.261.478-.198.558-.49.44-.747.542-1.372.287-.739.163-.573.32-.534.25-.293.479-.462.072-.163.032-.3.048-.194.143-.272.26-.317.514-.28" clip-path="url(#p64000c91a9)" style="fill:none;stroke:#000"/><path d="m343.642 599.516-.586 1.064-.662 1.15-.403.455-.165.081-.194.054-.766.031h-1.315l-1.185-.075-2.15-.348-.781-.004-.583.123-.985.43-2.265.997-.733.075-1.34-.138-1.185.055-1.085.198-.953.41-1.073.736-2.01 1.518M301.885 616.907l1.382-.7 1.268-.64.917-.312.914-.226.937-.193 1.224-.194.722-.087.782-.194 1.124-.498 1.635-.704 1.707-.628 3.35-1.763 1.289-.917 1.491-1.38.873-.704 1.723-1.439M283.27 581.853l-.406-3.147-.128-1.47.052-.764.068-.838-.048-.39-.12-.527-.713-2.486" clip-path="url(#p64000c91a9)" style="fill:none;stroke:#000"/><path d="m323.04 573.361-2.425.063-2.297.064-.51-.38-1.724-.316-7.082.696h-.83l-1.085-.38-1.53.064h-2.553l-21.03-.941M294.33 621.39l-.283-.027-.232-.182-.387-.494-1.04-1.412-.754-.929-.742-.628-.459-.334-.46-.277-.77-.352-2.678-1.117-3.187-1.617-1.06-.687-.287-.072-.391.02-.287-.051-.236-.123-.319-.458-.156-.76.164-1.89.072-2.15.12-.874.23-.747M283.27 581.853l.124 1.396-.024 1.427.076 1.427.164.7.626 2.08.08.462-.005.589-.123 1.455-.399 2.988-.766 4.278-.095.94-.271 1.448-.814 2.601-.307 1.609-.347.976" clip-path="url(#p64000c91a9)" style="fill:none;stroke:#000"/><path d="m255.4 588.885 1.63.796 1.211.095.958.252.989.38 1.371.822 1.564 1.424.925.664 1.531.316 1.915 1.012 2.488 1.582.415.885.351.443 1.436.664 2.84.854 1.467.126 1.18 1.075.32 1.266.765 1.36.256.948.86 1.012 1.317 1.368M315.766 580.636l-1.978.759-1.468.885-2.17 1.328-1.787-.063-2.296-.506-3.765-.253-5.36-.316-2.553.063-2.36-.063-4.786-.76-2.298-.063-1.674.206M298.036 619.49l-.544.386-2.728 1.415-.434.1M298.036 619.49l.134-.096 1.14-1.02 1.444-.894 1.131-.573M298.036 619.49l.908.513.47.284.304.119h.223l.263-.119.734-.957.518-1.36.43-1.063M364.365 453.614l-.57-2.66M364.365 453.614l.665 3.099M368.815 452.733l-.762.153-3.688.728M363.962 453.695l.095-.02.101-.02.069-.014.046-.009.092-.018M363.962 453.695l-1.551.257M363.962 453.695l.557 3.036M363.962 453.695l-.562-2.66M362.41 453.952l-1.122-5.208M355.609 455.675l.947.126 1.124-.015 1.077-.238 1.18-.387 1.731-1.043.743-.166M368.815 452.733l-.757-2.64M365.03 456.713l4.798-.168-1.013-3.812M355.609 455.675l-.046-1.47M613.878 388.745l-6.687-.329-3.709-.276-16.844-.942M459.106 283.216l.31.11.287.143.432.331.573.523.511.482.423.427.172.21.163.256.275.499M462.946 287.118l-.271-.15-.152-.174-.136-.238-.135-.36M444.13 264.91l.65.845.423.61.901 1.589.519.711.247.159.203.035.316.012.327-.063.422-.23.726-.498.423-.118.327-.016.287.103.215.174 2.026 2.024.208.253.095.269.104.475.112.545.207.467.168.276.167.245.24.206.294.245 1.013 1.044.606.609.95.79.327.427.263.507.59 1.874.375 1.423.223.901.128.586.144.435.151.363.344.514.143.214.112.3M576.204 433.132l-.28.134-.82 2.097M578.485 435.03l-1.587-1.535-.391-.332-.303-.031M563.883 418.28l.878.643 1.697 1.243 5.547 7.95 3.75 4.47.449.546M578.485 435.03l.231-.04 2.457.838.27.127.157.13.155.13.598.839.212.249.143.106.164.088.167.047.26.04.925-.024.706-.08.423-.078.358-.206.886-.459M569.427 452.71l1.529-1.352 1.235-1.14 1.085-1.209.758-.988.439-.665.31-.474.185-.364.103-.371.056-.317.064-.284.374-.894.783-2.214.334-1.004.622-2.522 1.077-3.63.104-.252M487.36 446.446l-.577.926M485.288 480.346l-.762-.713-1.133-1.28-.99-1.376-.59-1.519-.35-1.407-.192-1.914.016-1.565.303-.996.702-1.218 2.696-3.93 1.571-2.728.36-.807.215-.854.08-.719-.017-.482-.526-2.475-.183-1.526.016-.854.096-1.218.143-.775.55-2.546-.012-.411-.035-.42-.056-.347-.136-.332-.271-.562M444.13 264.91l-1.105.75-.753.522-.39.242-2.071.952-2.832.997-2.09.64-.853.127-.79.04-1.18-.048" clip-path="url(#p64000c91a9)" style="fill:none;stroke:#000"/><path d="m435.376 264.38.128.379.263.459.168.316.087.269-.032.3-.199.325-.263.284-.32.245-.621.396-.559.26-.973.562-.558.443-.43.514M427.56 270.168l1.723.38.957-.127 1.826-1.289M491.47 228.974l-.037.176-.28.91-.406 1.439-.152.561-.135.926-.295 1.621-.527 2.009-1.196 3.685-.734 1.929-.502 1.218-.112.38-.056.41-.016.696-.071.483-.168.443-.2.41-.294.444-.95 1.075-1.308 1.313-.901 1.036-.248.237-.223.103-.343.024-3.326.047-.638.024-.423.11-.43.158-1.11.736-.342.214-.32.039-.398-.024-.981.04-.43.047-.352.103-.414.182-.638.316-.814.514-.455.23-.51.134-.638.103-.503.079-.646.15-.997.348-.582.126-.662.096-1.26.22-1.89.412-.958.34-.758.34-.75.451-.478.348-.271.332-.263.498-.44.925-.27.443-.303.293-.75.458-.973.475-.83.356-.63.166-.455.063-.678.024-.741.079-1.061.205-.885.15-.782.032-1.196.04-.67.08-1.046.197-.765.205-.403.214-.455.308-.31.273-.268.293-.347.41-.55.756-.483.605-.315.355-.343.29M427.676 316.046l.665-.243 1.245-.127 1.531.158 2.624.482.702-.086.51-.008.91.047.606.079 2.425.388 1.755.26 2.145.254 2.161.26.79.08.455.031.455-.031.383-.087 1.499-.601 5.535-2.847 1.014-.554.805-.506.535-.308.486-.182.47-.087.806-.087.87-.008.267-.063.2-.079.362-.26.264-.38.382-1.527.439-1.502.398-1.06.48-1.13.598-1.297 1.116-2.151.256-.585.239-.396.199-.221.263-.15.623-.19 1.38-.214M462.946 287.118l.335.178.865.537.487.357.455.43.414.463.383.554.327.53.156.37.115.5.088.47v.324l-.024.68-.108 1.241.017.222.047.19.06.213.048.376v.336l-.088.921-.035.376-.02.47-.008.421-.096 1.58.008.632.032.324.052.31.067.995M504.259 277.19l-.383 1.835.997 1.953M435.376 264.38l-.023-.38.103-.316.104-.57.02-1.269M436.018 245.437l.108.415.151 1.36.024 1.186-.007 1.02.032.562.11.743.105.656.096.325.183.26.2.23.518.443.199.217.144.225.407.941.27.91.025.482-.024.403-.112.625-.135.396-.216.332-1.5 1.32-.358.364-.223.356-.208.546-.16.561-.055.593-.012.937" clip-path="url(#p64000c91a9)" style="fill:none;stroke:#000"/><path d="m433.115 261.577.894.094.494.075 1.077.1M432.079 263.532l1.16.436.765.19 1.372.222M459.839 171.78l-.35.497-.376.435-.439.316-2.17 1.43M441.765 185.705l-.016-.443.008-.593.048-.72.208-.901.175-.49.263-.467.296-.49.406-.546.79-1.06.455-.506.367-.293 1.26-.775.877-.466.566-.403.47-.3.4-.182.694-.238.637-.15 1.094-.126 1.212-.04.542-.072.51-.158.527-.229 2.95-1.6" clip-path="url(#p64000c91a9)" style="fill:none;stroke:#000"/><path d="m469.124 199.401.454-.118.184-.075.175-.1.16-.18.088-.207.015-.308-.311-1.922-.136-.45-.143-.356-.758-1.487-.12-.292-.063-.261-.072-.8-.104-.402-.111-.301.016-.372.151-1.684.104-2.08v-.483l-.072-.403-.295-.996-1.252-3.361-.343-.791-.263-.332-.335-.34-.455-.474-.503-.388-1.029-.688-.75-.514-.47-.435-.502-.482-.511-.435-.861-.601-.782-.546-.989-.656-2.737-1.624M476.501 199.955l-.797-.19-1.133-.103-1.38.04-.614-.1-.22-.034-.21-.005-.44.02-.318.004-.296.004-.47-.016-.654-.063-.845-.11M441.765 185.705l1.316-.633 1.03-.538.82-.403.407-.087.344.04.334.087.678.593 3.279 2.926.279.356.247.49.247.672.192.459.24.292.318.3 1.3.728 1.683.815 2.744 1.7 1.795 1.202 1.005.57.263.237.327.427.67.822.231.348.207.245.248.182.47.285.4.19 2.01.83 1.132.403.367.087.235.032.251.016 1.883.008.407.015" clip-path="url(#p64000c91a9)" style="fill:none;stroke:#000"/><path d="m420.714 210.818 1.09-.846 10.765-5.755.877-2.245.607-1.369.597-1.13.607-1.02.853-1.029.806-.846.618-.593.311-.32.251-.289.894-1.629.606-1.043.163-.337.148-.32.235-.676.276-1.214.055-.45.024-.412.12-.514.223-.672.151-.577.208-.578.327-.703.24-.546M480.713 204.842l-.263-.656-.264-.293-.566-.364-.702-.6-.614-.618-.558-.696-.256-.616-.287-.55-.135-.162-.148-.142-.223-.127-.196-.063M485.722 188.022l-2.138 4.017-1.148 1.93-1.18 1.202-4.755 4.784M491.47 228.974l.074-.345.065-.989.167-1.708.064-.624.015-.42-.239-1.288-.335-2.19-.111-.737-.12-.3-.224-.38-.127-.38-.032-.41.016-.625-.04-.246-.223-.458-.822-1.1-.701-.719-.639-.878-.741-.735-.942-.76-2.544-2.095-1.196-1.107-.216-.293-.207-.418-1.133-2.958-.566-1.97" clip-path="url(#p64000c91a9)" style="fill:none;stroke:#000"/><path d="m490.603 205.008-2.329-3.005-.861-1.329-.766-1.012-.83-.38-.542.095-.702.728-.734.854-.638.854-.925.126-.797.665-.351.949-.415 1.289M508.925 297.26l-1.949.344M514.532 310.908l-.51-1.961-1.34-.76-1.468-.379-.957-1.138-.256-2.847-.255-1.392-.574-1.645-.247-3.526M408.159 264.939l1.279-.591 1.786-.95 1.468-.568 1.149-.38 1.658.57 1.15.062 2.36-.885 2.808-1.265 2.68-1.14 1.595-.189 1.468.443.937.178.865.048.28.059.315.079.366.11.543.15.315.108 1.416.644.215.087.303.068" clip-path="url(#p64000c91a9)" style="fill:none;stroke:#000"/><path d="m432.079 263.532.585-.766.451-1.19M436.018 245.437l-.686-.186-.857-.3-.347-.183-2.876-1.47M436.018 245.437l-.25-1.103-.304-1.029-.231-.38-.367-.537-.798-1.123-.39-.712-1.03-1.977-.542-1.676-.574-1.62-.208-1.21-.247-.989-.111-.736.055-.664.264-.6.502-1.662M519.753 156.66l.323-.298.358-.454.606-.846.67-.775.335-.388.376-.459.406-.593.822-1.384 1.5-2.554.86-1.66.814-1.653 1.013-2.539 1.165-2.499.167-.372.112-.363.16-.91.063-.696-.008-.505-.031-.61.047-1.06.232-2.364.27-2.15.256-2.136.207-1.494.088-.688M564.43 131.938l-2.87-1.834-1.66-1.835-2.233-2.657-2.106-1.392-1.148-.38-3.318-.506-3.829-1.012-2.744-.696-3.828.633-3 .949-2.935.759-1.85 1.139-2.345 2.104M580.132 189.303l-.267-.087-.18-.17-.203-.242-.53-.929-.06-.292.012-.28.035-.218.124-.475-.004-.273-.02-.185-.08-.155-.299-.38-.207-.34-.12-.118-.143-.063-.327-.071-.519-.095-.9-.214-.767-.079-.774-.094-.86-.103-1.285.094-.686.12-.399.165-.375.142-.71.103-.965.048-.502-.04-.494-.166-.559-.293-.367-.3-.112-.237-.071-.348-.076-.238-.22-.233-.318-.138-.503-.04-.678.08-.35.118-.176.134-.152.127-.526.775-.172.139-.387.161-.438.016-.375-.11-.224-.135-.327-.142-.399-.063-.526-.127-1.444-.775-.941-.474-.869-.601-2.84-2.444-2.281-1.858-.941-.783-1.053-.775-.71-.388-.75-.364-.785-.348-.283-.063-.287-.016h-.774l-.435-.012-.41-.027-2.194-.601-1.556-.293-.494-.126-.59-.055-.59.031-2.218.063-.502-.043-.471-.075-.542-.293-.678-.45-1.133-.878-.63-.49-.255-.127-.271-.11-.343-.175-1.556-1.158-.885-.803-.447-.498-.327-.53-.136-.42-.135-.513-.247-.76-.599-1.13-.259-.352-.41-.435-.328-.372-.374-.344-.67-.585-2.609-1.96-1.758-1.266-.335-.289-.287-.324-.555-.688-.538-.803-.622-.846-.431-.415-.235-.182-.224-.075-.681-.093M487.445 149.763l.59.182.766.38.757.395.312.087.359.023 2.313-.102 1.156.11.925.15 2.01.602 2.114.727.622.175.63.22 2.593.555 1.124.15 3.845.102.83.087.414.111.39.159 1.233.438.93.395.366.202.435.234.486.236.48.147.454.1.554.058.762.016 1.025.067.43.06.499.13.642.257.42.218.218.102.24.056.31.003 1.074.066M459.839 171.78l.742-.926 3.015-3.923.343-.45.303-.3.335-.278.503-.38 1.85-1.415 2.584-2.356.327-.285.335-.214.447-.245.47-.237.344-.237.598-.593 2.225-2.317.654-.728.726-.696.566-.534.67-.525 1.085-.728.55-.57 1.125-1.415.574-.743.575-.53.654-.49.526-.277.662-.222 2.656-.458.55-.04.503.016 1.109.079M470.83 141.879l.16.38.12.174.303.252.43.23.288.15 2.879.862 2.768.838 1.643.443.566.214.694.308 2.17.91 2.177 1.06.614.395 1.253.885.35.261.108.13.06.14.032.252M434.579 113.465l1.34 1.266 1.085.758 6.7 3.606 1.467.317 2.489.063 1.658.443 1.66 1.518.893 1.519 1.085.949 1.85.632 1.85.127 3.287.64 1.97-.166 1.62-.031.98.087 1.516.427.79.435.35.284.216.254.24.466.222.522.687 1.368.295.411.542.372.59.34.263.237.223.42.463 1.265.933 2.665.088.782-.032.697-.215 1.273-.184 1.289-.127 1.202-.2 1.052-.175.522-.168.403" clip-path="url(#p64000c91a9)" style="fill:none;stroke:#000"/><path d="m459.313 171.241.008-.64.064-2.286.207-3.029-.04-1.715-.08-1.646-.04-2.846.025-.783.08-.799.111-.933.055-.632.049-.34.151-.491.216-.45.51-.815 1.013-1.4.925-1.1.526-.553.567-.514.574-.363.678-.436.782-.593.813-.798.606-.768.647-1.059.67-1.115.59-.91 1.005-1.28.606-.752.2-.316M459.313 171.241l.526.538M539.208 384.663l2.1.124 9.882.546" clip-path="url(#p64000c91a9)" style="fill:none;stroke:#000"/><path d="m535.605 403.535 1.436-.135.383-.07.35-.19.208-.135.2-.181.227-.27.091-.154.064-.17.072-.292.046-.204.045-.103.084-.08.25-.105.247-.125.19-.158.12-.174.119-.198.1-.075.115-.044.495-.363.26-.241.242-.273.14-.16.116-.18.04-.237v-.206l.03-.123.073-.114.152-.119.47-.127.343-.102.056-.052.04-.067.031-.237v-.229l-.255-2.61.009-1.114.087-.459.12-.348.127-.23.16-.165.239-.142.495-.199.398-.268.304-.27.223-.134.295.008.686.127h.535l.342-.048.303-.134.176-.166.16-.166.095-.166.072-.245.143-.625.08-.348.088-.19.127-.221.376-.3.933-.633 1.212-.585.383-.206.168-.19.15-.371.113-.293.167-.387.136-.348.08-.427.023-.656M435.982 412.628l1.787 2.91 1.149 3.29.383 4.427-.639 2.91-.638 2.278-.893 2.783.255 3.29-.367 1.937M504.413 234.075l.962-.108 1.707.316.877-.127.59-.063.527-.142 1.452-1.107 7.53-5.536.27-.221.32-.127.43-.063h.431l.479.127.43.031.463-.048.686-.237.51-.253.686-.174.67-.363 1.165-.807 1.165-.87 2.392-1.06 2.058-.98.718-.253.606-.348 1.452-.98 2.504-1.804.224-.347.031-.348.224-.523.239-.458.24-.443.526-.664.494-.348.383-.237 2.25-1.25 3.238-2.815.67-.411 1.786-.775 1.101-.427.335-.253.287-.285.24-.269.702-.648.877-.854.43-.316.224-.27.478-.695.288-.254.35-.252.32-.175h.447l.446.143 1.691.743 1.388.08 1.292.885.319.269.399.269.925.3.734-.016.367-.031.462-.142.4-.096.478-.205.319-.222.99-.98.286-.411.255-.411.351-.427.367-.206.622-.285.431-.174 2.393-.57.558-.284.973-.57.686-.521.83-1.313.287-.38 2.68-2.356.877-2.673-.016-1.502 1.324-2.294.112-.364.351-.727.127-.364.288-.284.35-.254.431-.079.383.016.255.206.75.522.639.285.478-.08.175-.158.802-1.597M629.517 229.997l-1.692.474-1.5.19-1.115.031-3.383-.252-3.828-.254-.99-.22-1.371.062-1.563.506-.834.815M496.29 224.477l.4-.3.382-.206.782-.3.59-.253.503-.34.566-.507.327-.221.335-.143.35-.055.36.079 1.898 1.028M491.47 228.974l.378-.306 1.036-1.028 1.747-1.566 1.66-1.597" clip-path="url(#p64000c91a9)" style="fill:none;stroke:#000"/><path d="m504.413 234.075-1.558-2.307-1.404-2.088-1.595-.948-1.915-2.531-1.65-1.724M549.23 375.616l.533-.27.239-.127.271-.087.28-.024.31.056.487.118.965.372 3.51 1.526.167.04.183.007.264.032.398.166M549.23 375.616l1.112-1.79M539.208 384.663l.042-.5.088-.167.28-.237 1.642-1.368 1.787-1.518 2.033-1.692 3.606-2.942.544-.623M539.208 384.663l-1.194-.07M524.582 503.022l.447.316.327.333.781 1.051.846.989 1.579 1.502 1.962 1.842.264.372.199.371.279.49.622.823.925.751.726.403.567.166.853.016.742.024 1.707.205 1.994.372.478.15.407.3 1.148 1.274 1.444 1.55 2.752 2.324.726.688.502.585.99 1.558.446.624.343.483.455.522.773.632M537.33 540.086l1.947-1.55 1.276-.663.637-3.29-.031-.696-.32-.6-3.125-2.341-.287-.538.128-.284.892-.538 2.52-.95.798-.505 1.212-1.139.478-.19 1.818-.316.861-.316 1.021-.316 2.711-2.116M491.102 499.745l.523-.051 4.929-.657 8.072-.269 1.076.103.782.237.734.253.797.087 1.819.182 1.244.158.43.095.296.126.31.182.958.443.487.159.662.094 3.103.285 4.075.91 2.585.71.598.23M537.308 491.103l-1.505 2.527-.602 1.026-.964.645-2.934 1.55-1.276.98-5.445 5.191M599.673 472.163l.739-.65.342-.27.32-.205.773-.395 1.532-.633.279-.11.239-.142.327-.293 1.747-1.542.367-.324.303-.222.303-.15.415-.126 2.592-.633.287-.031.311-.024.28.031.334.11.47.254 1.453 1.155.255.19.247.126.295.055.582-.016 1.333.182.534.135.184.103.143.166.143.252.104.317.052.3.004.309-.072.403M485.288 480.346l.61.568.988 1.28.44.879.374 1.273.24 2.135.063 1.644.112 1.756v.885l-.335 6.183.064.965.143.688.215.522.423.38.47.253.591.094.646-.031.77-.075" clip-path="url(#p64000c91a9)" style="fill:none;stroke:#000"/><path d="m460.748 531.78.256-.238.16-.245.167-.182 1.188-.782 1.587-.823 4.196-2.016 1.667-.941.853-.57 2.106-1.446 2.433-1.676 3.397-2.104.998-.783.39-.3.695-.42.646-.513.383-.356.83-1.075 1.315-1.898.878-1.233.693-.838 1.819-1.954.191-.252.144-.3.191-.538.112-.53.032-.902-.112-.783-.144-.609-.095-.403v-.34l.072-.308.462-.949.917-1.921 1.927-3.807M451.856 580.84l.486-.379.883-.533.16-.073.153-.057.152-.036.152-.048.566-.308.558-.352 3.222-2.277 3.287-2.182.215-.142.183-.19.104-.253.064-.459.047-1.534.032-2.561.049-.261.135-.19.622-.269.216-.142.103-.254.024-.687-.016-.522-.072-.38-.303-1.036-.143-.332-.144-.205-.215-.213-.686-.673-.36-.387-.222-.348-.168-.356-.79-1.93-1.029-1.912-.151-.459-.04-.316.032-.245.128-.206.295-.348.494-.514.431-.727.367-.752.686-1.517.199-.325.822-1.162.965-1.241.343-.475.35-.632.647-1.637.088-.42v-.276l-.104-.292-.104-.325-.064-.83v-1.202l.072-.45.232-.688.574-1.257.159-.49.032-.31-.04-.307-.095-.332-1.037-2.689-.893-2.11-.79-1.48-.351-.45-.774-.799-.224-.245-.159-.293-.112-.466-.35-1.312M446.958 480.25l2.169 1.044.958.031.989-.063.957.506 6.54 3.796 9.667 5.661 3.573-3.922 3.191-2.783.821-.902-.957-1.099.136-.387.343-.996.255-.404.263-.23.351-.213.95-.38.406-.086.495-.063.63.063.586.048.411-.04.43-.087 1.101-.087.63.024.559.118 1.603.348 1.273.199M365.765 352.194l-3.546-1.275-.638.159-2.904.98-.893.222M352.456 346.396l.447 1.14 1.276 1.328 1.723.949 1.882 2.467" clip-path="url(#p64000c91a9)" style="fill:none;stroke:#000"/><path d="m361.53 359.07 2.554-4.1 1.681-2.776M378.41 324.928l-2.376 4.696-1.442 4.637-.544 1.101-1.402 1.442-.565.723-.359 1.278-.386.987-.478 1.222-.139 1.166-.49 1.417-.936 1.705-1.787 2.796-.455 1.891-1.075 1.857-.21.348M361.53 359.07l3.241.01M354.022 362.108l.412 2.476M354.022 362.108l-.354-2.873M350.475 363.175l-.288-3.355M350.475 363.175l2.114.753M350.475 363.175l-4.025-1.431M351.977 359.65l-.925.126-.865.044M346.745 361.326l.893-.823 2.17-.664.379-.02" clip-path="url(#p64000c91a9)" style="fill:none;stroke:#000"/><path d="m349.01 357.815.734.917.255.38.188.708M352.59 363.928l-.613-4.278M352.59 363.928l1.844.656M352.535 365.877l.24-.534-.186-1.415M351.594 367.968l.403-.895M351.997 367.073l.538-1.196M351.997 367.073l-5.444-1.92M352.535 365.877l-6.939-2.812M354.434 364.584l.287.98.734.411M346.45 361.744l.295-.418M346.45 361.744l-.3.465M351.977 359.65l1.213-.443.478.028M345.278 359.428l.701 1.233.766.665M345.596 363.065l.554-.856M343.076 371.416l-1.467-1.772-1.117-1.486-.16-.696.574-.98.703-.95 1.116-.79 1.244-.664.702-.475.925-.538M344.322 373.956l-1.46-.328M344.322 373.956l.408-2.14M343.076 371.416l.064.758-.279 1.454M341.647 373.678l.563-.073.651.023M338.404 375.49l-.54.17-.504.403-.585 1.098-.6.34-2.32.335M338.404 375.49l1.825.587M340.292 374.123l-.824.536-1.064.83M343.076 371.416l1.654.4M344.73 371.816l7.343 1.402M344.73 371.816l.26-1.507M339.898 414.416l2.533-4.133M337.996 413.08l1.474.903.428.433M342.43 410.283l-.848-.523M342.43 410.283l1.269-1.956M341.582 409.76l-.706 1.212-1.317-.696-1.563 2.804M376.671 430.593l-6.7-3.479-.924-.822-.415-.411-1.245-.696M376.671 430.593l1.277-1.233.574-.917 1.02-2.657.703-1.835 1.037-2.388" clip-path="url(#p64000c91a9)" style="fill:none;stroke:#000"/><path d="m367.02 443.087.655-1.803 1.116-1.898 2.138-4.08.798-1.487.51-.854 1.18-.853 1.117-.475 1.563-.569.574-.475M361.288 448.744l-2.323-10.781M361.288 448.744l1.563-.308M354.973 438.164l-.04-2.526M354.973 438.164l.383 10.73M354.973 438.164l3.992-.201M358.965 437.963l1.6-.346M354.932 435.638l-.065-2.66M360.008 434.985l-2.942.574-2.134.08M359.455 432.365l-2.88.56-1.708.052M367.02 443.087l.096 1.755M367.02 443.087l-.414-1.186M362.35 429.032l.815 2.466M362.35 429.032l-3.023.617M358.79 427.02l2.727-.506.833 2.518M359.327 429.649l-.427.087M359.327 429.649l-.538-2.63M359.327 429.649l.537 2.621M358.9 429.736l.555 2.63M358.79 427.02l-.448.079.558 2.637M363.165 431.498l.86 2.6M363.165 431.498l-3.301.772M359.864 432.27l-.409.095M359.864 432.27l.536 2.629M359.455 432.365l.553 2.62M364.025 434.098l.855 2.585M364.025 434.098l-3.625.8M360.4 434.899l-.392.086M360.4 434.899l.54 2.638M360.008 434.985l.557 2.632M364.88 436.683l.866 2.618M364.88 436.683l-3.94.854M360.94 437.537l-.375.08M360.94 437.537l.535 2.621M360.565 437.617l.552 2.614M365.746 439.301l.86 2.6M365.746 439.301l-4.271.857M361.117 440.23l.358-.072M361.117 440.23l.551 2.611M366.606 441.9l-4.57.872M362.036 442.772l-.368.07M362.036 442.772l-.561-2.614M362.036 442.772l.615 2.864M361.668 442.841l.605 2.863M367.116 444.842l-4.465.794M367.292 447.625l-.08-.569-.096-2.214M362.651 445.636l-.378.068M362.651 445.636l.586 2.73M362.273 445.704l.578 2.732M367.292 447.625l.766 2.467M367.292 447.625l-4.055.74M363.237 448.366l-.386.07M363.237 448.366l.557 2.589M362.85 448.436l.55 2.599M368.058 450.092l-4.264.863M363.794 450.955l-.394.08M359.905 456.893l4.614-.162M365.03 456.713l-.511.018M336.207 457.23l.653.524M336.207 457.23l.76.015M323.802 446.529l6.608 5.864 5.28 4.42.517.416M351.818 456.909l-14.85.336M336.968 457.245l-.108.51M337.747 454.722l-.35.51-.43 2.013M355.356 448.894l.207 5.312M355.356 448.894l-14.64.341M340.715 449.235l-1.478 2.732M340.715 449.235l1.085-2.005M348.947 451.721l-9.71.246M339.237 451.967l-1.49 2.755M355.563 454.206l-17.816.516M419.966 450.402l-.717 4.751-.543 1.85-1.068 1.582-.208 1.644.271 1.012.941.523" clip-path="url(#p64000c91a9)" style="fill:none;stroke:#000"/><path d="m416.31 450.97 1.088-.008 1.09-.128 1.478-.432M289.502 489.974l.931 2.231.542.886.67.79.735 1.329.542.728.542.695.83.538 1.308.253 1.69-.127 1.277-.38 3.67-1.739.669-.6 1.978-1.645 1.18-.696 1.117-.253 2.361-.063 1.978.284 2.202.317 1.18.316.702.38.478.474.096.41M286.8 503.143l.427-2.659.83-4.16.63-3.162.24-.94.575-2.248M427.046 519.572l.673-1.242.542-1.075.415-.791.192-.411M391.189 514.756l.701 1.676 4.147 7.022.894 1.581 2.042 2.214.957.885-.255 1.139.191 1.645M391.444 508.684l1.531 1.422 1.085 1.14.702 1.012 9.06 8.602 3.319 2.91.446 1.328M391.444 508.684l-.096-1.392-.415-3.732-.191-1.297.35-1.012 1.18-2.593.543-1.74 1.156-2.45" clip-path="url(#p64000c91a9)" style="fill:none;stroke:#000"/><path d="m391.189 514.756.159-.696-.415-.98-.255-.98.032-.823.446-1.265.288-1.328M361.995 536.516l1.787-4.207.606-.949.575-.79.574-.538 1.34-.727 3.828-2.12 3.702-1.834 1.084-.759 1.245-.822 1.563-.95 1.882-1.043.989-.41.575-.57.255-.823 1.084-2.561.351-.412 1.085-.537 6.094-1.328.575-.38M302.432 546.466l.444-3.15.32-1.835-1.596-1.075-.32-1.012 1.532-11.64-.255-1.39-2.425-4.05v-1.454l1.149-1.012 2.17-1.708 3.126-3.922.32-1.77v-1.33l-.32-.632-.383-1.075-.127-.822M306.067 551.222l-.575-2.34-.957-1.518-1.021-.632-1.082-.266M306.067 551.222l.318 1.835v1.77l-.382 1.835M320.743 545.15l.255 1.834-.638 1.582-1.213 2.467-.701 1.011-1.405.95-1.275.126-3.191-.126-5.168-1.265-1.34-.507M433.963 110.652l-1.583.7M433.963 110.652l.616 2.813M434.579 113.465l-2.199-2.113M517.978 242.775l-.511-2.087.383-2.088-.192-1.328-1.722-.316-2.617.759-1.786 1.202-1.276.38-1.851-.507-1.467-.632-.383-1.266.383-1.138-.958-.95-1.568-.73M506.976 297.604l.09 2.487.702.569.574 1.075.192 1.581.383 2.404-.192 1.645-.766.696-1.148.76-.064 1.075.319.632-.127 1.455-.064 1.012.701 2.278M432.079 263.532l-.69-.26M408.893 266.99l-1.306-.302-1.347-.176M427.56 270.168l1.276 1.708M408.893 266.99l.608.141 2.49.19 1.211-.19 1.213-.19 1.787-.316 3.382-.253 1.34.316 1.595 1.202 3.19 1.708 1.85.57M428.836 271.876l1.148 1.708.51 1.581M408.329 292.401l-1.7 5.096M405.065 321.14l-.764 1.28-.447.76-.414 1.328-.48 1.076-.51.822-.86 1.14-.543 1.17-.383.854-.128.885-.414 1.328-.51 1.044-2.776 6.548-.862 1.044-1.149.885-2.073 1.74-1.213 1.265-.51.728-.574 1.075-.065.917.096.917.766 1.297.383 1.17.798 1.266.989 1.55.574.917.702 1.613-.096 1.075-.255.823-1.5 3.194-.223.886.766.98.989.95 1.18.917.606 1.012 1.34.79.99.38 1.148.57 1.213.38 2.105.758 1.276.664.957.823.734.569.67.886.543 1.423.446.917.798.696M407.36 325.903l-.35-1.234-1.945-3.53M382.632 412.318l.31-.342 1.674-1.435.765-.696.447-1.329 1.085-1.328 1.148-2.087 1.34-6.959.256-1.645.319-1.265.83-1.898 1.276-.822 1.53-.443.958-1.138.51-1.581.064-1.646-.255-1.328-.255-1.708.702-1.645 1.468-.822M537.15 368.923l-.923 1.322-.574.76-.51.758-.384 1.392v.886l.192 1.139.957 1.96.51 2.278.384 1.96.51 1.203.702 2.012M540.344 364.353l-3.193 4.57M626.859 320.524l.87 3.984-.956.95-1.468.822-.957.822-1.277 1.519-1.148 1.328-1.914 1.582-2.17 1.138-3.318 1.266-1.404.569h-1.276l-1.02-.443-.639-1.076-.319-1.518M613.878 388.745l1.026-.914 2.36-.885 1.788-.696 1.85-.823 1.723-.063.702-.443 1.02-.949.639-1.708.638-1.075 1.532-.57 1.212-.885.383-.633M116.233 496.127l.51-2.34.32-1.772.192-1.897-.894-1.265-1.531-1.266-1.34-2.213-1.15-2.088-2.806-1.834-1.723-.822-1.022-.351M137.075 397.92l-4.193 1.77-2.689 1.279-2.636 2.585-1.297 1.138-1.03 1.133-1.157 1.91-.502 1.287-.777.865-1.326.613-1.212.328-1.242-.254-4.521-.03-4.633-.096-2.198.026-1.555.121-2 .67-1.691.256-.865.23-.82.68M314.266 148.036l-1.085 1.17-.287.57-.191.823.063.347-1.116 1.487-2.425.538-1.212.727-.99.854-1.914 2.183-1.5 2.467-.765.854-.734.221-1.595.064-1.468.443-1.244.506-1.978 1.17-3.35 1.582-.478.158-.99.031-1.563-.38-.925-.379-.766-.537-1.436-1.297-2.647-1.803-4.085-1.202-2.137-.918-5.073-1.644-.894-.127-.733.127-1.627.759-1.691.22-.447-.125-1.084-.854-.575-.254-5.2-1.328-2.074-.696-1.404-.632-2.361-1.393-2.138-.505-2.743-1.012h-1.18l-.926.41-.893-.095-3.414-1.865-1.117-.443-1.659-.096M316.117 148.606l2.967 1.708 2.265.854 1.212.633 1.723.474 2.234 1.423 1.212 1.139 4.498 5.377 1.628 2.246 1.882 2.088 1.914 1.803 2.36 1.36.288.348.096.632v5.378l1.053 4.555 1.149 3.353.35.727.447.601 2.042 1.645.861.918.511.727 1.531 3.226 1.149 1.835 1.308 3.069.797 1.265 1.213 1.486 1.532 1.107 2.68 3.923.542.632 2.01 1.519.446.538.288 1.012-.064 2.277.191 1.898.32.917 1.052 2.278.925 2.752.543 3.384.542 1.709 2.744 6.99 1.276 4.998-.032 2.372-.032.76-.223.6-2.334 2.893M350.478 293.005l.957-2.53 1.276-4.049 1.404-3.416 1.468-2.72 1.659-2.784 1.467-1.391 1.468-1.519.638-2.087-.064-1.961 1.149-1.835 1.084-1.202.256-2.784v-2.277l.893-2.214 1.213-2.151v-3.543l-.32-2.404-.446-1.708-1.021-2.593-.958-1.392-.318-1.266.83-1.77 1.02-1.52 1.08-1.854M314.266 148.036l1.85.57" clip-path="url(#p64000c91a9)" style="fill:none;stroke:#000"/><path d="m403.17 151.992-2.729.346-3.925-.57-5.519 1.076-1.085-.222-2.297-1.043-1.755-.601-3.956-.633h-.542l-.607.285-1.818 1.392-.734.285-1.149-.032-.286-.127-2.872-2.309-1.435-1.265-.99-1.139-1.404-.696-3.51.254-2.615.284-3.446.601-3.669.253-1.404-.032-2.424-.537-2.49-.665-2.52-1.106-5.232-3.322-3.03-1.17-.863-1.013-.765-.6-3.51-2.12-.574-.158-.638.032-.447.158-10.497 8.508-2.807.602-3.51 1.898M257.458 415.044l7.073.087 1.991.132 2.242.612 2.019.713 1.544.256.614.314M282.98 425.473l-2.318-2.26-.93-.671-1.19-.55-3.206-1.531-.691-.51-.396-.545-.803-1.567-.505-.681M264.476 381.337l.816.675 1.213 1.77.446 3.1.064 3.796-.893 1.77v1.52l-.192 1.77.32 2.278v1.897l-.51 4.998v1.961l.382 1.771 1.276 1.961.728 2.766.302.568.407.447.643.385.689.192.661-.032.445-.376.153-.555.29-.152.486.305.239.404.5 2.602M314.13 408.706l-.853.317-2.17.885-2.169 1.961-3.893 1.581-1.85 1.013-3.254 1.328-2.68.633-1.659.443-1.531.569-1.277.885-1.468.76-1.786 1.201-1.468 1.455-5.092 3.736M156.145 396.746l.68.398 1.86 1.402 2.076.968 1.308.42.989-.017 2.468-.549.685.017.74.159.454-.116.398-.42.612-.86 1.131-1.081.76-.448.902-.14 1.025.129 1.404.658 1.316.256 1.285-.143 1.634-.316 1.669.04 1.42.493 1.426.572.85.116.852-.179 1.433-.379 1.096-.12 3.144.124 2.487-.153 2.432.534 1.781.61.949.679 1.546 1.777 1.087 1.414 1.123 2.853.494.94.715.612 2.666 1.427 1.067.818.882 1.481.598.495.638.072.91-.414 3.467-1.636 1.596-.855 1.252-.339 1.447.168 1.604.876 1.256 1.406.974 1.536 1.28.897 2.237.529 2.043.285 1.717-.259 1.955-.342 1.433-.096 1.19-.39 2.402-.888 2.438-.665 2.797-.442 1.661-.082 1.462.168 1.302.362 1.39.647 1.577 1.144 1.323.575 1.254.213 1.389.73 1.852.575 1.775.196 2.248-.144M233.643 393.461l.702 1.265 1.148 1.582 1.021 1.961 1.404 1.771-.191 2.024-.383 2.783 1.02.95 2.553.316 3.063-.064 2.297.38 2.17 1.202 3.892 3.352 1.66 2.151 3.459 1.91M286.8 503.143l-1.312.005-.798.127-1.308.285-1.02.348-.383.41M354.562 320.65l1.85.285 6.222.031 1.882-.127.893.696.575.886.51.57 1.34.41 10.576 1.527M354.562 320.65l.957 2.404.127 1.645-.146.872M351.69 335.39l.83-2.341 1.34-2.783 1.403-3.29.237-1.405" clip-path="url(#p64000c91a9)" style="fill:none;stroke:#000"/><path d="m346.409 328.245.272-.162 2.106-.158 1.053-.222 1.436-.664.924-.759.511-.411.67-.159 1.755-.19.364.05M343.778 357.214l-.638.98-.32.823-.063.885.255 1.013.99.41.701.159.67.063.777.662M333.951 339.944l-2.616-1.138-1.531-1.645-.51-1.139-1.724-.506-1.276.316-2.489-.949-1.467-1.202-1.595-1.075-1.149-.127-5.36 1.14-1.531.062-2.553-.632-1.787.19-1.723.822-2.169.76-1.595.189-1.149-.633-1.276-.253-1.53-.506h-1.469l-1.276.19-1.532-.38-1.403-.569-1.723-.57-1.787-.758-1.34-.506M352.535 303.665l-.717-1.424-.638-2.277-1.021-2.91-.192-1.961.511-2.088M261.464 248.169l.654.19.734.505.318.38.798.617 2.154.506 1.531.649 1.165.331 1.212.096 1.02-.016 1.389-.206 1.244-.427.67-.095 1.34.063 1.213.333 1.994 1.17.398.585.336.364.558.158.478.443.638.711.67.965 1.516 3.574.303.855.35.49.416.395.59.095.973.016 1.596.901 1.084.854 1.563 1.376.304.475.51.885.606.965.686.87 2.218 2.72.701 1.028.606.902.942 2.198.271.57.351.537.447.395.813.523 1.595 1.502 2.01 2.23.542.585.416.712.59.553 1.675.665 4.02.521.861.142.734.27.463.363.813.696.622.269.846.127.766-.016 2.95-.522.894-.221.91-.095h1.212l.909.19.781.332.862.142h.75l.989.063.973.095 1.149-.031.94-.27.974-.38.957-.363 1.053-.063.51.19 6.493 2.072.606.22 1.005.554.43.443.288.38.255.38.4.426.51.411.685.523.814.537.526.348.99.585 1.02.427 4.866 1.898M354.434 319.574l.383-1.96.255-2.278.064-3.67.127-2.53-.446-1.138-1.085-2.72-.718-.933-.479-.68" clip-path="url(#p64000c91a9)" style="fill:none;stroke:#000"/><path d="m344.419 302.067.172.016 1.165-.063.446.11 1.596 1.25.494.49.32.253.51.032.702-.111.846-.126 1.865-.253M354.434 319.574l.128 1.076M336.695 326.249l2.808-2.373 2.488-.949 2.871.57 6.318-1.076 1.595-2.214 1.659-.633M351.69 335.39l-6.7-2.53-2.478-1.086" clip-path="url(#p64000c91a9)" style="fill:none;stroke:#000"/><path d="m346.409 328.245-.525.313-2.042 2.087-1.33 1.13M337.971 336.528l2.616-2.72 1.021-1.265.904-.769M352.456 346.396l.957-2.15.574-1.455.192-1.835-.128-1.834-.893-1.455-.638-1.392-.83-.886M337.971 336.528l.702 1.898.638 1.455 1.213 1.202 2.169.316 2.871 1.455 2.298.57.893 1.075 1.659 1.391 2.042.506" clip-path="url(#p64000c91a9)" style="fill:none;stroke:#000"/><path d="m333.951 339.944 2.552-3.036 1.468-.38M323.87 356.581l1.595-1.897 2.36-2.91.958-1.709.382-1.391.192-2.53.128-1.265.829-1.709 2.425-1.96 1.212-1.266M311.682 366.07l-2.17-.063M311.682 366.07l-1.447.786M323.87 356.581l-3.638 2.151-1.148.886-2.808 2.53-2.616 1.455-1.02 1.139-.958 1.328M310.235 366.856l-.723-.85M315.047 383.83l.144-.743 1.723-2.657.957-2.34.32-1.899-.32-1.517-.255-1.013.574-1.834.128-1.329-1.149-1.075-.83-.38-1.467-.19-1.34.633-1.34-.506-.957-.949-1-1.175" clip-path="url(#p64000c91a9)" style="fill:none;stroke:#000"/><path d="m340.292 374.123-.193-.278-2.048-1.274-1.35-.9-.753-1.086-.613-1.13-.326-.823-.22-1.083-.264-1.669-.319-1.138-.068-.308-.11-.296-.148-.279-.184-.256-.241-.251-.276-.214-.305-.17-.326-.124-6.637-4.87-2.042-1.393M340.292 374.123l-.063 1.954M341.647 373.678l-.74.173-.615.272M340.23 376.077l1.42.415M292.028 461.147l2.808 1.581 2.456 1.106M313.645 431.913l-2.75 3.506-.468.579-.537.493-3.38 2.648-1.85 1.915-.766.899-.922 1.312M320.487 417.942l4.773 5.308.504.947M315.047 383.83l-2.153-.3-1.85-.064h-1.66l-1.914-.252-1.659-.317-1.531-.57-1.595-1.454-1.213-1.328-1.34-1.013-.893-1.455-.766-.443-1.85.696-1.66 1.076-.829 1.012-1.085 1.202-1.02 1.138-1.404 1.519-2.234 1.391-1.212.76-2.297.442-1.277-.38-.701-1.011-1.723-2.531-1.213-.886-1.595-.316-2.36-.506-1.66-.316-3.446.506-1.595.443-1.723.253-1.34.126-1.773.085" clip-path="url(#p64000c91a9)" style="fill:none;stroke:#000"/><path d="m221.455 347.156.83 1.645.957 1.771 1.308 1.802 1.596 1.329 1.084.885 1.021 1.234.925 1.012 1.66.886 2.616.76 2.105.505 1.276.76 1.404.695 1.213.633 3.381-.443 2.68.19 1.149.822 2.424.696 1.468.822 1.212 1.582 1.66 2.087 2.552 3.606 1.66 1.835 3.636 5.377.83 1.644 1.659 1.455.715.591M309.13 406.24v-1.899l.191-3.732.447-1.012 3.318-4.301 1.084-1.835-.382-1.581-.383-1.392.255-1.202.446-2.024.51-1.581.256-.95.175-.9M221.455 347.156l4.659-.127 3.828-.19 4.083.253 1.915-.696 1.404.064 1.659.57 2.105-.444 1.34.064 1.404.885 4.977 1.771H251l1.595-.126 1.085-.886 1.468-1.138 1.723-.823 1.786-.822 2.17-.886.765.064 1.532 2.024 1.276 2.024 1.914 2.404 1.276 1.961 1.212 1.645 1.277.885 2.042.506 3.956.254 2.552.506 1.404.063 1.468-.317 1.659-1.012 1.786-.569 2.17-.949 1.468.126 1.276.823 3.445 1.581 2.042.95 1.915 1.707 2.552 1.076 1.085 1.645.574 1.645 2.17 1.201 2.616.19 1.404.57 1.85.379M309.13 406.24l-1.66.568-2.425.633-1.148.063M309.13 406.24l-1.149-1.266-.894-1.708-2.169-1.328-1.787-.38" clip-path="url(#p64000c91a9)" style="fill:none;stroke:#000"/><path d="m314.13 408.706-2.32-1.328-2.68-1.139M120.905 306.176l.625 1.142 1.403 2.104.271.22 1.644.697 3.573.6.271.222.112.332-.096 1.297-.207 1.376-.016.316.542 1.961.208.285 1.627 1.376.925 1.091.638.806.606.332.623.285 1.387.475 1.372.521 1.388.554 1.324.712 1.372.538 1.882.031.336.127.27.237.878 1.06 1.834 2.989.287.205 1.006-.063.797-.032.718.222.59.411 1.452 1.534.654.3 1.021.254h.367l1.276.284L156.88 333l.367.554.91 2.135.366.601.622.854.527.49.43.538.527.443.734.237 1.595.411 1.387.095 1.309.538.797.158.415.126.702-.063 1.356-.458.574-.427.351-.744.255-1.344.623-2.34 1.1-1.804.655-.648 1.228-.854 1.292-1.329.399-.347 2.393-1.914.447-.538.733-.87.846-1.075.574-.395 1.516-1.044 1.084-1.044 1.292-.585 3.223-.317 2.6-.41 1.563.079 1.117.173 2.36 1.234 1.388.474 1.022-.031 4.084.047.574.08 1.531.49.718.063.447.538.845 1.201.287.206.654.316.846.57.686.205.318.111h.352l.638-.348.957-.617.559-.427.334.032.288.19.175.316-.016.98-.271.586-.766 1.06.032 1.011.43.49 1.389 1.076.462.886.128.632.032 2.088-.224.617-.398.474-.83.57-.575.79-.095.649.144.664.207.617.558.427 2.026 1.107.367.6 1.595 1.946 1.707.538.574.395 2.345 2.04.782.38M338.8 305.816l.894-.064.383-.284.255-.317.447-.712.271-.6.16-.3.255-.175.239-.08 1.66-.015h.318l.367-.158.255-.364.115-.68" clip-path="url(#p64000c91a9)" style="fill:none;stroke:#000"/><path d="m333.345 301.024 2.281-.317.559-.095.973.016 6.077 1.17.32.19.864.08M336.695 326.249l-.622-.095-.973-.206-.83-.3-.718-.048h-.702l-.542.316-.798.49-.733.238-.686.126-.99.095-.733-.142-.973-.27-1.117-.015h-1.212l-.686-.221-.335-.411-1.979-2.831-.86-.443-1.165-.364-1.26-.142-1.388-.048-.974-.237-2.392-1.075-1.18-.459-.958-.458-1.005-.491-.845-.237-.926-.11-2.823-.428-1.324-.269-.383-.348-.542-.553-.607-.585-.558-.3-1.946-.68-2.68-1.013-.638-.538-1.037-.948-.51-.333-.83-.221-.83-.063-1.292.142-.893-.127-.639-.126-.43-.205M346.409 328.245l-.302-.194-.527-.11-.558-.032-4.307-.237-1.053-.237-.574-.238-1.93-.759-.463-.19M120.905 306.176l.753-.645.51-.506.734-.601.478-.696.574-1.139.48-1.012.797-1.012.67-.76.67-.98.734-.98 1.02-.696 1.564-.823.319-.537.606-1.076.83-.79.797-.475.574-.348.734-.127.83-.41.733-.159.32.127.16.316 1.69 2.688.638.507.128.79.255.633.447.411.382.19M156.145 396.746l.193-1.065-.078-1.877-.424-2.887-.435-1.708-.142-1.019.04-1.089.244-.998-.163-3.364-.16-1.329" clip-path="url(#p64000c91a9)" style="fill:none;stroke:#000"/><path d="m137.075 397.92 1.564-.757 1.264-.829 1.07-1.301 1.055-1.49.458-.467 1.496-.702.963-.255 1.624-.012 1.659.326 2.36.753.425.446.763 1.547.516.477 1.296.465 1.955.374.602.25M137.075 397.92l-.327-.537-.223-.443-.479-.252-1.02-.665-.352-.569-.031-1.076-.16-3.226-.128-.6-.159-.444-.415-.695-.478-.79M362.713 409.622l1.132.48M368.6 412.307l1.727.836 1.557.968 3.081 2.732M368.6 412.307l-4.755-2.204M323.802 446.529l-1.811 1.783M313.645 431.913l4.143 1.897.05.51-1.73 1.757M341.65 376.492l-.003-2.814M358.737 372.356l6.355-.596M366.158 410.628l.758-1.581M373.512 414.794l7.044-2.434.907-.12 1.17.078M537.33 540.086l-3.348.696M533.228 552.459l-.064-1.107 1.596-5.536.16-.917.446-.6 2.297-2.089-.332-2.124M377.243 555.85l-2.201.405M375.042 556.255l.203-.187.467-.731.163-.162.199.04 1.17.635M373.667 556.485l.162-.04 1.213-.19M550.342 373.827l6.869 1.129 3.04 1.872 3.22-.479.384-.158.255.063 1.116-.19.575-.19.414.032 6.254-1.17 2.01-.254 1.947-.316 9.317-1.645 8.295-1.36 1.18-.127M537.15 368.923l-.205-2.642-.228-1.834-.102-.819-.403-1.744.293-1.707.806-.655 1.173-.217 1.246.876 7.312-12.519 1.979-2.436.734-.19 3.127-.095 1.532.127 2.872.79 1.627.57 2.65.633 1.914.76 1.053.6.224.222.127.284-.319 1.203-4.305 8.182-9.915 15.515" clip-path="url(#p64000c91a9)" style="fill:none;stroke:#000"/><path d="m543.578 346.043-4.654 8.247-.916 1.527v1.67l-1.43 1.381-.44 1.636-.77.617-1.538.836-1.393-.11-1.686 2.217.073 2.18.66 1.236v1.38l1.1 1.998.146 1.635-1.246 2.507.146.741.11.567.294 1.381.478 6.59M382.226 312.014l-2.142-.633-.702-2.372.064-4.43-.063-1.278-2.62-5.672M384.232 284.879l3.638.126.894-.126M384.36 260.932l3.51 3.512.606.411.64.76.893.759.67.759.606 1.423.064 1.36.606 2.405v.38l-.16.315-.446.411-1.277.823-1.117 1.202-.287.601-.319 2.151-.256 4.904.67 1.77M385.57 258.524l-.382.601-.447.854-.287.633-.094.32M408.159 264.939l.51 1.367.224.684M408.159 264.939l-.43-.595M406.67 254.01l.484 1.227.566 1.052.937 1.163.444.6.21.413.2.677.034.565-.012.651-.176.643-1.628 3.343M402.402 255.156l.618-.025.377-.042.505-.234.494-.506.462-.309 1.812-.03M415.991 211.451l.855-.804.887-.358.99-.096 1.991.625M414.085 179.677l-8.475 3.41-1.276 2.847-.192.602-.957 1.455-3.019 4.96-1.606 4.927-1.523 5.823M415.1 179.27l-1.015.407" clip-path="url(#p64000c91a9)" style="fill:none;stroke:#000"/></g><g id="PatchCollection_1"><path d="m321.86 504.904-14.73 3.734.787 1.393.225 1.895-.113 1.45-1.011 3.343-1.238 2.007-2.586 1.226-1.237 1.672 1.575 2.787.337 2.006-.787 1.784-.787 11.036 2.136-1.227 2.136 1.896.617 1.959 1.012 3.455 2.024-.557 4.274 3.121 2.585 3.121-.899-2.898.337-2.675-.899-2.453.337-2.34 1.575-2.453 2.586-.891 3.71-.335 4.049.335 3.823 2.118 1.35 1.226v1.672l-1.125 3.121-1.462 1.56-2.361.892-1.8 1.895-2.81 1.45-1.125.89h2.249l.337 1.785 2.136-1.672 2.362.891.112 2.006-.9 1.673-1.461 1.672 1.462 3.328-.225 3.01-.787 1.449-1.012 2.229-1.35 2.006-2.024 1.004 2.137 1.783 2.249-.223.787-.892 1.462 2.341 1.799-.223.562 1.784-1.574 1.337-3.373 1.115h-4.049l-2.024-1.003-3.485.111 3.823 1.784-.338 2.23-1.237 2.229 2.812.222 1.574.78 1.799-.668 1.574 1.895.338 2.118 3.712.454 4.498 2.341 1.687 3.456 1.124 4.68 4.61-.78 4.274 1.227-.45 2.898v3.12l-1.8 3.01-2.586.892-4.048-2.564-4.498 1.227-3.148 2.229.112 2.453-.76 4.221-2.924 1.895-4.385 2.23-3.711 2.451-2.474 2.007-3.26 4.904 9.557-6.577 6.072-.222 4.274-1.003 1.911-2.564 1.35-2.898 2.586-1.672 2.923 1.003 2.812.669 3.035-.446 1.237 1.226.113 2.453-2.474 1.894 3.823-.223 1.8 2.564 6.521 9.475-3.26-9.363 1.012-1.45-2.812-2.006-2.699-5.462v-2.563l3.936-6.577 1.912-4.236-1.462-1.784 2.136-1.783-2.473-1.56 4.835.446 2.136 1.337 2.474-2.898.113-4.013-2.362-4.124-5.847.223-6.297 1.226-7.084-.892-1.912-3.901-3.036-1.338-.773-2.35-.08-1.97 1.352-3.311-.398-1.734-2.226-1.261-1.272-1.34.875-2.05 1.988-1.733.397-2.287 1.59.789h1.352l.795-1.655.477-.946-1.113-2.207.795-2.05 1.51-1.26 1.194-2.523 2.385.316 4.691.866 2.386.237 1.908.394 1.431 1.024.397 1.892-1.35 1.813-1.194 2.05 3.101-.868 1.51-1.024h1.432l.716.788v1.97l2.465-1.103 1.908.788.795 1.183v1.182l.478 2.19 1.113 1.34.08 1.104.477 1.497v1.34l1.272 2.286.954 1.97.875 1.577-.239 2.128 2.703-1.025 2.227 1.813 1.351 2.365-.238 4.256 1.67 1.655.954 1.577.08 1.655 1.272-2.995-.636-2.602 1.272-4.019 1.272-2.05 2.465-.551 3.737 1.34 3.022 1.182 3.578 1.025 1.43 2.364-1.907-3.468-1.909-1.103-1.192-2.208-5.487-1.655-1.033-1.418h-2.147l-1.988-.315-1.431-1.577-1.75-.63-1.908-.473-1.431-3.468-.556-2.287.715-2.048.239-2.05 1.113-1.26h1.75l1.51-.79 1.908-.55-4.055-1.105-2.863-1.34-1.67-2.443-1.43-1.734-.398-1.419.636-1.103 1.78-.971 3.599-1.06 1.124.28 2.08-1.17 1.968.166 2.756-1.449 1.911-.167 2.698-.279 2.98-1.504h2.025l2.754.501 3.46-1.046 4.77.158 2.942 1.024 1.114 1.34.795 1.183.08 3.073 1.51.316.795 1.813.556 1.891v2.602l1.432.945.318 1.735 5.486 3.152 2.544 1.813-3.975-4.177-1.192-3.232.556-3.941-1.352-2.917-1.193-3.546-.954-2.68.319-1.734 1.43-1.892 1.511-.788.637-2.05 2.067-.866 3.578 1.497 3.1.079 1.591 1.734 2.703 1.576 2.306 1.623 3.181.079 2.306 1.103 2.146-1.261 1.988-.315-5.725-1.34-1.828-1.42-1.988-.314-1.909-2.523-1.033-.866-.716-2.287-2.703-.708-2.306-1.577.875-1.34 2.942-.394 1.749.157 2.544-1.26 5.01-1.498 1.59-.552 2.659-4.074 2.545-5.044-.796-2.995 2.863-1.261 4.293 1.576 2.386-4.729 3.498-1.892 3.658-1.577 3.18-.472 1.75-.788 3.498.945 5.089-1.576-6.997-1.419-2.704-2.207-8.269.946-2.226 1.103-2.227-5.044-.317-4.572-2.068 4.414 1.75 4.887-2.704 1.419-4.135.63-3.498 1.262-4.77 4.729-3.023 2.365-1.112-3.153-2.227-6.464-.477 7.567-1.59 2.365h-2.227l1.114 2.207-.318 2.207-6.361 1.103-3.022-.472-1.908 1.89-4.771-1.102-.477 2.68-5.089 4.571-1.749-1.261-2.067-3.31-1.358 2.753-1.011 2.34-.337 1.784-3.6-.446-2.922-1.56h-2.812l-1.799-2.453-1.911 1.004-.9 1.783-1.8-1.226-2.136-3.01-1.237 3.679-2.811-.335.225 2.452-4.723 4.571-1.686 1.115-6.972.669-5.398-1.004-4.385-2.675-1.911-3.567 1.124-4.125 2.024-3.12 3.936-4.014 3.935-2.675 3.71-2.898.676-1.672 2.136-.335 2.136-2.675.9-3.678-4.16 3.455-3.711-1.449-2.249-.558-3.486 2.453-2.699 1.449-2.811-.669v2.23l-5.801-.773-2.307 2.365-2.703 1.655h-2.465l-1.75-1.025-.953-1.576-3.34 2.68-2.862-.316-1.113 1.577-2.783.079-3.18-.789-1.034-1.576-2.147-3.784.875-2.68-.398-1.97 1.113-2.128-1.034-.867zM533.739 398.49l-2.489 3.1-6.317 4.428-3.701 5.946-.128.949 4.53 6.516 1.213-.317.128 2.34.574 1.14 6.7.19 5.488-3.1 2.297-3.353 5.615-6.2.574-1.201.255-2.847.83-1.012 2.425-.885 5.04 3.32-.574 1.645 2.49.823 2.87 2.783 3.319 2.15.319 1.266-.436 2.752 2.797.6 1.403 2.278 2.425 1.708.51 1.392 1.15-.696.573-1.14 2.745-1.39-2.234-3.67-.766-2.783 1.723-2.34 13.081-3.575 1.404.317 3.19 2.593 1.66 3.796.446-1.202-.638-2.72-.192-4.429-2.743.127-4.212-.822-5.615 1.139-11.805 5.123-1.34-.19-4.466-3.036-1.022-2.404-.956-1.012 2.424-5.187-3.892 1.708-1.404-.316-1.212-2.467-1.021-.886-2.489-.822-.83-1.202-5.423.475-4.148 1.77-1.531 2.214-1.787 6.516-1.467 2.53-.83 1.076-2.744-.063-1.276-.76-1.723-3.922.128-4.3 2.233-4.746zM355.933 414.08l-.717.078-.399.296-.378.513-.04.533.08.553.458.868.338.612.14.81.159 1.125-.259 1.125.12.968v.612l.239.632.239.493.298.572.637.751.14.67.02.89.12.256.617-.06-.02-.71.02-.908.458-.415 1.015-.355.737.257 1.095-.138.518-.316.896.099.797.414.617.572-.1-.77.458-.493 1.355-.197 1.075-.217 1.335-.04 1.99-.652.578-.493-.657-.632-1.016.099-2.21-.04-1.952-.098-1.035-.356-.936-.039-1.055-.06-.658-.414-.716-.237.02-.572.259-.77.039-.691-.518-.375.1-.612.577-.355-.398-.336-.1-.395-.199-.632-.438-.197-3.286-1.145zM488.561 492.517l-.27 4.46.047.98.24.744.302.41.367.19.559.048.686-.047.59-.159.383-.284 1.1-.918.639-.727.781-.6.83-.333.829-.221.702-.016.574.047.766.143 1.053-.143.765-.442.958-.411.447.348.223.236.622.523.734.142h.478l.495.047.797-.079.703-.221 1.196-.712.638-.427.877-.063.846.442.845-.11.925-.317.702-.078 1.978-.143 1.117.127.766-.063.574-.285-.255-.348-.702-.221-.957-.38-1.02-.633-.767-.031-.957.158-.957-.348-.383-.822-1.148.664-1.532-.158-1.404.38-1.308.505-.893-.19-.32-1.138.224-.538-.063-1.107-.639-.094-3.063.569-1.084.094-.894-.6-.479-1.455-.031-.95-.16-.758-.765.474-.415 1.107.127 1.519-.031.727-.638.38-1.117-.411-1.02.315-.863-.031-.734-.253-1.275-.277-.543.064-.479.379-.207.364-.096.506z" clip-path="url(#p64000c91a9)" style="fill:#00f;fill-opacity:.8"/></g><g id="PatchCollection_2"><path d="m351.306 392.781.006.049.022.041.275.087.044.004.036-.01.032-.02.018-.035 1.471-5.08.002-.041-.012-.04-.031-.04-.284-.088-.042.002-.045.034-.033.045-1.451 5.042zM349.798 397.667l.006.048.022.041.276.087.044.004.035-.01.032-.02.018-.035 1.224-4.241.003-.042-.012-.04-.032-.039-.283-.089-.043.002-.045.034-.032.045zM348.218 402.923l.006.049.022.041.275.087.044.004.035-.01.033-.02.017-.035 1.01-3.514.002-.042-.012-.039-.033-.04-.283-.088-.041.002-.046.033-.032.046-.99 3.476zM346.953 407.325l.084.036.075-.014.078-.043.082-.075.271-.506.026-.108-.008-.093-.036-.063-.041-.036-.055-.012-.073.002-.054.028-.088.11-.26.43-.025.081-.014.091.004.097zM345.157 410.378l.084.035.076-.014.077-.045.081-.075 1.349-2.464.025-.109-.009-.092-.036-.063-.042-.035-.055-.012-.073.003-.054.028-.087.112-1.337 2.386-.025.083-.013.09.004.098zM342.335 415.13l.084.035.075-.014.078-.043.082-.075 1.372-2.451.026-.108-.008-.093-.036-.063-.042-.036-.054-.011-.074.001-.053.028-.088.11-1.36 2.375-.026.082-.014.09.004.098zM341.68 416.049l-1.712 2.978-.032.084-.037.196.005.042.025.032.041.024.041.009.053-.011.136-.104.077-.081 1.831-3.11-.005-.141-.087-.078-.134-.007-.112.053z" clip-path="url(#p64000c91a9)" style="fill:green;fill-opacity:.8"/></g><g id="PatchCollection_3"><path d="m332.167 420.648-1.938 3.262 4.51 2.633 1.938-3.262zM426.698 200.279l-.195.512-.236-.085-2.568 5.457 1.08.36.037 1.253h.877l1.26-5.393.51-1.076.08-.68zM365.464 240.91l.583-.127-.399-.475-.526-.142-.447.744-.191 7.56 2.281-.57-.08-.506zM357.4 373.424h.416l.638-1.233.016-.918-.542-3.78-2.76-.932-.048.996.941 5.598.447.238.303.047z" clip-path="url(#p64000c91a9)" style="fill:#90ee90;fill-opacity:.8"/></g><g id="PatchCollection_4"><path d="m336.024 424.636.379-.694.323.174-.38.694z" clip-path="url(#p64000c91a9)" style="fill:#a9a9a9;fill-opacity:.8"/><path d="m336 425.4-.306-.175.33-.589.322.174z" clip-path="url(#p64000c91a9)" style="fill:#a9a9a9;fill-opacity:.8"/><path d="m335.335 425.879.359-.654.307.175-.377.64z" clip-path="url(#p64000c91a9)" style="fill:#a9a9a9;fill-opacity:.8"/><path d="m335.33 426.524-.279-.17.284-.475.289.16zM334.69 426.966l.361-.611.279.17-.35.605zM353.699 386.325l.319-1.061.284.084.17-.561-1.218-.36-.17.56.314.093-.32 1.062z" clip-path="url(#p64000c91a9)" style="fill:#a9a9a9;fill-opacity:.8"/></g></g></g><defs><clipPath id="p64000c91a9"><path d="M90 95.498h558v536.203H90z"/></clipPath></defs></svg>