<svg xmlns="http://www.w3.org/2000/svg" width="960" height="960" viewBox="0 0 720 720"><defs><style>*{stroke-linejoin:round;stroke-linecap:butt}</style></defs><g id="figure_1"><path id="patch_1" d="M0 720h720V0H0z" style="fill:#fff"/><g id="axes_1"><path id="patch_2" d="M99.57 640.8h538.86V86.4H99.57z" style="fill:#fff"/><g id="LineCollection_1"><path d="m418.946 390.293.748-1.064.483-.57M420.177 388.658l.714-.38.34-.083M421.002 387.563l-.509.481-.316.614M360.649 602.347l.128 2.492.626 2.543 1.087 3.077 1.127 2.439 10.467 17.24M195.494 597.212l13.04.391 1.09-.174 2.835-1.13 2.878-.304 1.962.13 3.01 1.044 1.133.217 21.632-.696 8.766 3.956.915.87.873 3.826.392 1.825.908.502 1.193-.052 2.54-.517 5.758-1.758 2.437-.672 10.165 1.655 8.039 1.24 12.55 2.12 5.187 1.24 13.329 3.464 6.69 2.792 4.564 1.654 8.505 1.19 7.21 1.395 1.4.104 3.734-.104 7.78.724 5.445 1.396 7.002 2.947 5.628 3.651M421.356 387.328l-.142.038-.123.081-.089.116M421.704 383.556l-.198 3.16-.15.612M421.807 387.576l-.112-.143-.159-.087-.18-.018M423.597 359.829l.049-3.912M423.597 359.829l-.421.153M423.597 359.829v2.077M423.788 352.069l2.57-.086M423.788 352.069l-1.827.055M423.788 352.069l-.272 1.149-.266 2.65M426.531 350.858l-2.652.333-.091.878" clip-path="url(#p7dc36f1ee8)" style="fill:none;stroke:#000"/><path d="m423.646 355.917.113-2.489.029-1.36M423.25 355.868l-.074 4.114M423.25 355.868l.396.049M423.203 362.102l.394-.196M423.203 362.102l-.008 1.128-.101 1.31-2.945 1.047M423.203 362.102l-.027-2.12M423.597 361.906l1.405-.592M423.61 370.941l.022-1.625-.101-4.845.066-1.188v-1.377M434.491 355.765l1.423-.414M434.491 355.765l.059-.814M430.872 358.544l.658-.654 1.69-1.346 1.271-.779M435.914 355.35l-1.364-.4M435.914 355.35l2.39.398M428.24 359.866l2.044-.933.588-.389" clip-path="url(#p7dc36f1ee8)" style="fill:none;stroke:#000"/><path d="m445.732 358.86-8.208-.186-4.815-.113-.927.102-.91-.119M445.732 358.86l7.294.2M445.732 358.86l-.028-5.124M465.442 359.494l7.631.118M465.442 359.494l-.043-4.512M453.026 359.06l4.691.177 7.725.257M466.143 366.491l-.505-3.498-.243-1.907.047-1.592M478.484 359.36l4.592-.105M478.484 359.36l-5.411.252M478.484 359.36l-.488-5.832M478.484 359.36l.285 4.714M490.719 359.293l-1.87-.094M494.884 349.332l-.64 1.882-1.783 4.314-1.742 3.765M479.201 368.402l5.897.5 1.561.101 1.491-3.457 2.569-6.253M452.978 369.032l.14-5.09M453.026 359.06l-.784-5.642M453.026 359.06l.092 4.881M450.839 348.633l-5.067 1.727M452.242 353.418l-.133-.81-.222-1.103-.326-.925-.722-1.947" clip-path="url(#p7dc36f1ee8)" style="fill:none;stroke:#000"/><path d="m458.076 345.971-.745.203-6.492 2.46M454.187 320.826l-1.77 1.339M454.187 320.826l5.965-2.884M444.545 293.712l-.01.925.069.527.2.939.297.794.655 1.783 8.43 22.146M452.417 322.165l-.908.998M460.63 318.497l-5.315 2.6-2.898 1.068M445.603 353.149l.1.587M438.303 355.748l1.202.064 1.445-.326 3.198-1.186.813-.426.642-.725M445.772 350.36l.016 1.536-.028.676-.157.577M430.359 353.789l1.889.52M426.358 351.983l2.262.658 1.739 1.148" clip-path="url(#p7dc36f1ee8)" style="fill:none;stroke:#000"/><path d="m427.542 356.417.405-.097 2.412-2.531M426.358 351.983l.173-1.125M423.646 355.917l3.896.5M428.24 359.866l-.633-2.237-.065-1.212M428.24 359.866l-3.238 1.448M432.248 354.31l2.302.64M432.248 354.31l.07-3.387M437.76 333.28l2.15-.218 1.548-.21.801-.21.99-.153 1.223-.017 1.726-.072 1.917-.017M446.928 337.786l.985-4.711.202-.692M451.51 323.163l-.586.827-.65 1.247-.403 1.058-1.756 6.088M432.65 329.018l-.213.902v1.098l.346 2.194M432.675 338.002l.216-4.107-.108-.683M426.472 334.703l.681-.873.908-.388 4.722-.23M437.76 333.28l-1.077.065-3.9-.133M426.472 334.703l.024 3.133M424.829 334.056l1.41.226.233.42M426.213 341.456l-1.2-.194M426.531 350.858l-.027-4.2-.29-4.039v-1.163M426.496 337.836l.009 1.229-.292 2.39M432.532 340.752l-3.66.542-2.659.162M445.726 349.3l.046 1.06M438.422 350.177l3.74-.603 3.564-.275M445.627 344.246l-.015 1.52.114 3.533M432.317 350.923l6.105-.746M432.324 343.05l-.212 2.057v2.488l.205 3.328M426.531 350.858l3.928.163 1.858-.098M438.303 355.748l.119-5.571M438.163 343.65l.011.359.248 6.168M437.76 333.28l.229 4.719M426.496 337.836l6.18.166M432.675 338.002l-.143 2.75M432.675 338.002l5.314-.003M437.989 337.999l.174 5.65M437.989 337.999l8.94-.213M446.928 337.786l5.466.114M445.627 344.246l.06-.52 1.241-5.94" clip-path="url(#p7dc36f1ee8)" style="fill:none;stroke:#000"/><path d="m432.324 343.05.177-1.723.03-.575M419.633 345.334l2.366-.938 1.135-1.066 1.134-1.648.746-.42M418.027 343.107l.465-.456 2.074-.872-.194-1.971 4.052-.194.26.97.33.678M419.633 345.334l-1.606-2.227M419.633 345.334l2.328 6.79M432.324 343.05l5.839.6M438.163 343.65l7.464.596M452.394 337.9l-.928 6.458-.126.248-.142.138-.178.032-.496-.024-4.897-.506M452.76 334.703l-.366 3.197M457.669 338.597l-3.677-.696h-1.598M457.669 338.597l4.57.323M457.669 338.597l.177-4.122M458.076 345.971l-.492-2.48-.13-2.39.215-2.504M490.803 338.595l-1.385.082M464.592 344.202l-4.335 1.083M464.592 344.202l.064.841M464.592 344.202l-.57-5.19M445.704 353.736l6.538-.318M452.242 353.418l4.278-.992M456.52 352.426l2.1-.862M456.52 352.426l8.646-.635M470.64 348.39l-5.645 1.043M472.225 348.566l-1.092-.107-.493-.068M464.656 345.043l4.833 2.723 1.151.625M427.445 371.152l.13-2.714-.39-1.39-1.799-3.457-.384-2.277M427.445 371.152l-3.835-.211M428.374 394.91l.944-5.55.081-.646-.016-.759-1.215-5.396-.957-4.896-.178-1.26v-.598l.412-4.653M423.012 375.776l.276-2.245.322-2.59M464.995 349.433l.171 2.358M464.995 349.433l-.339-4.39M458.62 351.564l2.633-1.157 2.431-.776 1.31-.198M437.351 401.017l1.287 2.392M437.351 401.017l-1.414-2.319M431.817 404.474l3.004-1.863 2.53-1.594M450.016 397.305l-1.614.61-1.523.493-3.274 1.083-1.505.613-4.749.913M430.868 404.948l.949-.474M453.656 473.46l.65-1.413.395-2.193-.003-1.875-.276-1.841-1.09-6.806-.891-7.771-1.005-9.468-.745-2.956-.78-2.37-1.339-3.007-5.24-9.229-8.006-12.877-1.02-1.454-3.438-5.252M424.542 395.3l1.481 2.84 1.945 2.964 2.9 3.844M466.835 374.966l6.991 1.518M463.774 387.132l.396-.437 2.983-4.46.226-1.486-.544-5.783M466.196 367.378l.114 1.932.525 5.656M466.196 367.378l-.053-.887M466.196 367.378l6.965.548M479.201 368.402l-6.04-.476M479.201 368.402l-.432-4.328M479.201 368.402l.172 4.044M479.518 377.419l-5.692-.935M479.518 377.419l-.131-4.642M479.518 377.419l.217 2.494M488.356 378.123l-1.617.474h-.88l-1.155-.056-5.186-1.122M464.023 339.013l-1.784-.093M470.962 339.13l-3.5-.074-2.059-.08-1.38.037" clip-path="url(#p7dc36f1ee8)" style="fill:none;stroke:#000"/><path d="m463.896 333.361.154 4.637-.027 1.015M472.225 348.566l-.695-4.712M472.225 348.566l.147 5.338M478.107 349.629l-.979-.464-1.942-.503-1.697-.162-1.264.066" clip-path="url(#p7dc36f1ee8)" style="fill:none;stroke:#000"/><path d="m478.59 344.319-.197 3.082-.286 2.228" clip-path="url(#p7dc36f1ee8)" style="fill:none;stroke:#000"/><path d="m477.996 353.528.173-2.22-.062-1.68" clip-path="url(#p7dc36f1ee8)" style="fill:none;stroke:#000"/><path d="m482.971 349.635-.897.125-1.501.017-2.466-.148M465.399 354.982l-.233-3.19M465.399 354.982l6.973-1.078M472.372 353.904l5.624-.376M472.372 353.904l.701 5.708M453.118 363.941l9.526 1.865 3.5.685M473.826 376.484l-.386-5.15M473.826 376.484l.121 2.376M473.16 367.926l-.15-3.587M473.44 371.334l-.12-1.628-.16-1.78M473.073 359.612l-.062 4.727M473.01 364.339l5.76-.265M483.758 365.594l-2.884-1.668-2.105.148M410.663 353.66l-5.692-7.044M410.663 353.66l1.798 1.948M404.669 354.227l1.278-.176 2.113.098 2.603-.49M414.13 352.893l-1.294.212-2.173.555M414.13 352.893l.937-.153 3.052-.443 3.842-.173M393.78 355.865l3.617-.422M393.78 355.865l-.419-7.377M395.005 371.206l-.6-4.025-.625-11.316M403.18 346.41l1.489 7.817M403.18 346.41l-.562-2.215M403.18 346.41l.764-1.065M396.774 347.896l2.853-.365 3.553-1.122M391.895 348.81l1.466-.322M405.203 371.32l10.274-3.863M405.203 371.32l.466 2.73M399.07 371.267l5.469.165.664-.113M405.257 364.825l.026.446-.08 6.048M395.005 371.206l4.066.06M395.005 371.206l.285 2.195M420.149 365.587l-4.672 1.87M420.149 365.587l-3.036-4.994M420.149 365.587l1.208 3.96.4 1.252M412.461 355.608l2.688 2.912 1.964 2.073M423.176 359.982l-2.977.097-3.086.514M403.944 345.345l-1.326-1.15M403.944 345.345l1.027 1.271M396.774 347.896l.623 7.547M396.774 347.896l-3.413.592M397.397 355.443l7.272-1.216M399.07 371.267l-.687-4.402-.586-8.392-.4-3.03M399.07 371.267l1.46 5.45M405.257 364.825l-.347-5.839.098-3.021-.34-1.738M406.493 381.416l.162 6.64M406.493 381.416l.038-.554M406.493 381.416l-5.768.557M423.012 375.776l-.463.03M421.807 387.576l.136-.783.746-8.642.323-2.375M422.549 375.806l-5.584.196M422.549 375.806l-.409 2.864-.436 4.886M421.756 370.799l.447 1.565.58 1.85-.234 1.592M416.965 376.002l-.007-.307M415.999 382.173l.999-4.038-.033-2.133M421.704 383.556l-1.583-.295M400.725 381.973l.003-2.631M400.21 387.81l.228-4.846.287-.991M415.477 367.457l-1.74-4.807M416.482 372.034l-.197-1.106-.808-3.471M406.53 380.862l3.19.18 4.069.68 2.21.451M420.121 383.261l-.349-.218-3.773-.87M415.993 387.102l-.195-1.73v-1.356l.2-1.843M416.958 375.695l-.476-3.66M406.097 376.283l6.898-.588h3.963M406.097 376.283l.225 2.607M406.097 376.283l-.428-2.233M406.097 376.283l-5.567.435M400.53 376.718l.198 2.624M406.322 378.89l.209 1.972M406.322 378.89l-5.594.452M416.482 372.034l-4.25.963-6.563 1.053M416.482 372.034l5.274-1.235M406.655 388.055l6.208-.57M406.655 388.055l-6.444-.245M406.66 396.052l-.12-3.94.1-3.478.015-.579M414 387.522l-1.137-.037M414 387.522l1.993-.42M416.22 388.297l-1.832-.371-.389-.404M416.22 388.297l-.227-1.195M416.22 388.297l2.726 1.996M416.07 395.71l1.838-3.457 1.038-1.96M420.121 383.261l-.381.526-1.037 1.502-2.71 1.813M407.089 405.167l-.105-1.232M416.07 395.71l-.463.873-1.167 1.713-1.648 1.905-5.703 4.966M163.511 487.197l8.55-.525 16.353-1.083 8.521.143 9.08.036 7.002-.275 21.183-.76 25.494-1.082 24.954-1.182 21.236-1.031 7.39-.162 7.339-.31 5.315-.21 2.646-1.047 3.647-2.294 10.712-10.712 9.757-9.888 10.275-10.405 16.905-16.56 16.69-15.562 9.946-8.572.583-.55M406.9 402.956l.084.98M406.66 396.052l.192 6.382.049.522" clip-path="url(#p7dc36f1ee8)" style="fill:none;stroke:#000"/><path d="m412.863 387.485-.582 3.478-.761 2.342-.94 2.538-3.68 7.113M445.007 288.283l-.462 5.429M443.944 236.768l1.092 25.99.376 5.894.065 1.826.11 2.468.157 2.032.069 1.821-.114 2.929-.348 4.698-.344 3.857" clip-path="url(#p7dc36f1ee8)" style="fill:none;stroke:#000"/><path d="m434.27 287.281 3.16.226 3.225.17 2.285.235 2.067.371M253.603 262.94l-2.79-4.564-.94-1.034-1.783-1.357-10.567-6.237-2.885-1.067M178.602 98.346l2.251 1.045 1.85 1.353 3.855 3.136 4.44 2.828 1.42 1.906 1.079 2.46.339.553 3.577 2.398.71.984.122 1.906 1.05 2.798 4.902 5.195 4.225 3.997 2.683 1.353 4.379 1.66 5.242 3.136 5.52 2.89 4.503 2.675 4.656 3.72 4.287 1.937.802.215 2.713-.676 2.837-1.046.833.061 1.048 1.26.402 1.046.03.954-.74 1.444-.246 2.275.092 2.583.586 1.537.617 3.074.339 4.98-.37 8.332-.762 7.86-2.2 10.237-.44 1.646-1.872 3.034-2.86 5.484-.44 1.609-.807 9.651-.366 1.975-2.567 6.252-2.568 6.763-.293 3.547.807 15.867.371 2.441M470.979 313.295l16.849-7.689 2.943-1.898 2.428-1.918M496.61 297.767l-1.685 2.036-1.726 1.987M502.927 298.684l-1.303.479-1.825.79-1.139.605-2.18 1.006-.85.295-.555.085-.58-.012-.563-.037-.733-.105M575.788 405.616l1.636.435 2.772.744 3.727.743 2.447.371 2.464-.21 1.701-.113 1.086.113.52-.161 1.972-.764 2.415-.517 2.147-.258 2.148-.348 2.439-.654 1.134-.218 1.475-.38 1.418-.08 2.261-.453 3.096-.178 2.22-.008 3.784-.113 1.905-.08 2.739-.203 2.674-.444 2.099-.162M463.774 387.132l-2.327 2.568-9.39 6.324-2.041 1.28M468.924 406.08l-.817-.287-2.33-1.27-.876-.706-.6-.485-.915-.484-1.15-.703-.548-.534-.604-.581-.927-.6-1.11-.34-1.31-.34-1.226-.485-3.04-1.115-3.455-.845M466.65 315.7l2.181 6.335M466.65 315.7l-6.02 2.797M470.91 313.912l-.447.163-3.813 1.625M470.91 313.912l-.672-.278M473.694 319.692l-1.862-5.63-.124-.057-.3-.032h-.283l-.215-.06M460.63 318.497l-.478-.555M462.45 324.586l-.296-1.177-.09-.558-.072-.84-.138-.525-.292-.865-.931-2.124M476.449 318.642l-2.755 1.05M473.694 319.692l-4.863 2.343M476.56 328.438l-1.76.153-.142-.025-.053-.117-.024-.185.012-.417.09-.844.242-1.518.178-.946-.032-.387-.21-.63-.34-1.1-.827-2.73M468.831 322.035l-6.382 2.55M463.896 333.361l-.186-.92-.049-4.33-1.212-3.525M468.475 304.731l2.504 8.564M470.979 313.295l-.741.339M470.728 331.632l-.05 1.939M470.678 333.57l.284 5.56M470.678 333.57l6.235.265M463.896 333.361l1.79-.138 4.992.348M460.152 317.942l9.058-3.84M460.257 345.285l.422-2.214 1.134-2.908.426-1.243M460.257 345.285l-2.18.686M458.62 351.564l-.544-5.593M470.962 339.13l7.37-.033M470.962 339.13l.568 4.724M402.285 343.685l1.034-1.36 1.726-1.778.803-.841.885-1.181 1.965-.98 2.94-.979 1.376-.265.463.38 1.117 2.138 1.13 1.665 1.966 2.155.337.468M411.577 344.613l.237-.055 3.339-.485 2.874-.966M411.577 344.613l-2.94.688-3.666 1.315M400.876 396.081l-.526-4.614-.14-3.657M399.983 405.582l7.001-1.647M421.231 388.195l.494.754.733 1.168M421.231 388.195l.196.032.19-.054.15-.13" clip-path="url(#p7dc36f1ee8)" style="fill:none;stroke:#000"/><path d="m421.002 387.563-.053.18.026.188.1.16.156.104M421.767 388.042l.07-.146.015-.163-.045-.157M422.458 390.117l-.473-1.475-.218-.6M424.542 395.3l-.02-.04-1.529-3.866-.535-1.277M438.638 403.409l-5.274 3.294M438.638 403.409l1.406 2.547M433.364 406.703l-1.547-2.229M433.364 406.703l1.53 2.223M440.044 405.956l-5.15 2.97M440.044 405.956l1.17 2.12M431.817 404.474l-1.681-2.116M434.894 408.926l1.236 2.032M437.843 413.774l-1.713-2.816M424.542 395.3l-6.594.67h-.831l-1.046-.26M429.061 401.026l1.075 1.332M430.136 402.358l5.801-3.66M428.374 394.91l.438-.044.942-.47.915-.497 1.08-.221h.36l.333.137.804.47 2.691 4.413M400.876 396.081l5.784-.029M394.668 396.91l4.295-.47 1.913-.359M413.737 362.65l-1.36-3.756-.416-1.824.111-.801.389-.661M405.257 364.825l8.48-2.175M402.285 343.685l-4.97-6.882-11.886-15.738-12.123-15.316-2.528-1.81-13.873-5.041-8.169-2.068-16.142-2.52-20.616-4.072-15.429-2.908-13.855-1.434-3.933-.26M253.603 262.94l2.817 5.001 17.634 16.157 1.709.93 2.998.609M266.997 310.742l.77-1.813 1.758-3.32.216-1.015-.123-3.197.092-1.23 1.45-6.087.925-1.814 3.824-5.042 2.852-1.587M432.65 329.018l.597-2.524 1.206-2.4-.214-1.339" clip-path="url(#p7dc36f1ee8)" style="fill:none;stroke:#000"/><path d="m451.51 323.163-2.239-1.478-1.02-.375-.991-.059-1.492.049-5.915.702-2.723.514-2.891.24M411.736 285.185l-1.962 3.58-.802 1.998-.123 1.906.987 1.538 4.903 3.443 1.08.83 2.003 3.627 3.27 7.01.308 1.352 1.172 10.607.445.662 3.973 1.231 1.074.161 1.557-.268h3.221l1.397-.107M469.21 314.103 468 309.98M469.21 314.103l1.028-.47M489.418 338.677l-4.469-.049-6.616.469M478.59 344.319l.074-.563-.157-.963-.17-.962-.098-.726-.012-.732.078-.472.028-.804M478.59 344.319l-2.912-.266-4.148-.2M476.913 333.835l12.643.257M476.56 328.438l.027.359-.075.767.4 4.271M489.678 326.676l-5.654.781-3.588.354-2.927.415-.95.212M489.678 326.676l2.383-.34 5.682-.279 5.923-1.037M489.556 334.092l.033-.537.121-1.05.045-1.05-.033-2.889-.044-1.89M488.849 359.2l-5.773.055M489.034 349.041l.024 5.106-.04 2.641-.17 2.411M489.034 349.041l.093-3.009.097-1.862.052-1.494v-.942l.057-.892.081-1.127.004-1.038M489.556 334.092l.065 2.185-.203 1.927v.473M494.884 349.332l1.298-2.81M575.788 405.616l-2.518-5.899-3.533-11.504-9.27-10.986-.908-3.038-2.27-4.588-.907-3.36-2.463-4.202-.843-3.166-2.14-4.653-3.598-.065-2.333-.485-6.386 2.003-7.228-1.033h-2.852l-6.645-2.65-3.793-.194-2.204-.808-18.053-1.032-2.157-.428-.803-.196M489.034 349.041l1.594-.067 4.256.358M482.971 349.635l.105 9.62M489.034 349.041l-2.27.142-2.11.069-1.338.298-.345.085M483.076 359.255l.244 2.106M473.44 371.334l5.947 1.443M511.476 383.322l-2.653.04-2.034-.185-2.18-.117h-1.216l-1.07.105-1.102-.04-.697-.195-.802-.428-2.042-1.664-1.127-.63-.907-.687-.985-.896-1.192-.57-.874-.166-.827-.145-1.057-.054-.818.13-1.537.303M479.373 372.446l3.095.865 1.626.721 1.364.735 1.728 1.458.73.59.267.42.173.888M468.924 406.08l.126-2.47-.64-12.766-.56-1.316-.52-.479-3.556-1.917" clip-path="url(#p7dc36f1ee8)" style="fill:none;stroke:#000"/><path d="m575.788 405.616-.73-.195-2.999-.517-3.079-.581-2.155-.388-3.356-.825-3.403-1.017-3.906-.986-3.225-.695-3.695-.5-2.593-.711-3.485-1.002-3.581-1.018-2.545-.453-2.367.227-3.614.792-1.41-.017-2.415-.307-2.123.42-2.22.485-2.577.291-2.626.194-2.415-.63-1.167-.323-1.069-.13-1.977.178-1.88.194-2.286.08-3.079.34-2.528.55-2.334.403-2.593.469-2.237.646-2.058.743-2.95.97-2.577.872-3.095 1.422-3.971 1.196-5.061 1.203-1.103.048-1.078-.194-1.652-.266-1.65-.505M442.84 411.02l-1.625-2.943M436.13 410.958l5.085-2.881M360.649 602.347l-.021-.404.22-2.604.302-2.046.774-2.458 6.888-14.573 5.623-12.456 1.675-4.94 5.267-16.755 2.382-6.963.642-1.261.882-1.421 1.443-2.149 10.384-9.18 4.85-4.02 1.285-1.322.725-1.004 1.373-2.847 1.491-3.457.636-1.283.875-1.283.95-1.099 1.19-1.179 3.225-2.003 16.916-9.148 2.704-1.517 1.984-1.517 12.465-10.632 2.148-2.142 1.508-2.222 1.043-2.502 1.178-2.5" clip-path="url(#p7dc36f1ee8)" style="fill:none;stroke:#000"/><path d="m500.497 504.06-2.463-4.728-1.711-2.12-1.297-1.137-1.446-.25-.543-.203-.571-.38-.786-.573-.718-.412-.45-.319-.652-.751-.652-.91-.251-.246-.783-.549-1.037-.832-1.175-1.365-1.499-1.878-2.099-2.431-1.62-1.544-1.605-.945-.98-.638-1.038-1.066-1.629-1.842-.705-.784-.267-.363-1.304-.525-1.313-.517-1.151-.42-.802-.227-.948-.137-.742-.008-.648.029-.531.012-.644-.093-1.572-.405-1.447-.19-.826-.02-2.278-.375-6.658-1.458M424.542 395.3l3.832-.39M479.387 372.777l-.014-.331M570.788 212.695l-1.019-1.628-1.815-1.81-11.734-6.171-5.154-2.909-1.653-2.456-2.788-2.003-2.56-.614M570.788 212.695l-40.279 42.395M570.788 212.695l12.077-12.648M502.927 298.684l.839-.303.956-.295 1.021-.29 1.147-.235 1.612-.258 1.455-.174 1.795-.17 1.576-.258 1.41-.316.867-.153 1.224-.15 2.196-.153 2.038-.315 1.515-.287 1.293-.218 1.758-.287 2.926-.44 2.21-.392 1.357-.303 1.846-.42.632-.073 1.094.114.628.109.466-.008.555-.012 1.098-.162 1.564-.214 1.997-.315 1.342-.198 1.645-.17 2.415-.371 1.823-.267 1.033-.13M546.982 317.899l2.399-6.786-.454-2.585 1.75-3.555-.389-2.585 1.426-3.038.066-5.493-1.52-2.286M496.61 297.767l2.432.42 1.264.291 2.621.206M434.27 287.281l-.34 2.028-.171 2.125-.089.844.004.264.079.307.142.081.486.04 2.445.152 7.72.59M411.736 285.185l.625.02 4.566.33 8.16.566 5.738.728 3.444.452M496.61 297.767l9.044-12.02 15.721-20.843 7.13-7.885 2.004-1.929" clip-path="url(#p7dc36f1ee8)" style="fill:none;stroke:#000"/><path d="m539.98 270.203-.437-1.317-.397-.703-.47-.363-.632-.566-1.256-1.292-1.296-1.252-.511-.582-.316-.622-1.11-2.431-3.046-5.985M500.497 504.06l3.812 7.319 1.556 2.326 1.401.93 12.136 5.377 14.729 6.463 5.147 6.06 4.885 4.52 14.914 12.434 11.208 8.173 11.688 7.956.916 1.391.392 1.957-3.4 8.216-5.234 15.65-3.548 9.421-5.511 14.443-1.39 3.762M513.336 626.422l3.793-1.357 1.49-.969.908-1.26 1.103-.97 1.75-.937 1.588-.678 1.135-.97 3.76-1.712 7.682-3.07 4.408-1.421 2.69-.614 2.626-.744.6-.105.567.009.535.032.535.096 1.49.582 1.135.226.892.033.826-.194.523-.15.409-.068.32-.008.255.065.649.5 1.54 1.81 7.653 5.91M109.933 501.277l1.842-1.491 1.86-1.304 2.09-.888 14.437-3.59 22.528-5.38 2.743-.772 2.504-.313 5.574-.342M175.564 565.148l-.156-3.955-.233-7.471-.311-4.808-.26-1.473-.285-.647-4.123-4.808-3.475-4.265-.752-1.37-1.504-7.368-.441-2.791-.078-1.551-.051-4.886-.26-12.253-.104-10.055-.02-10.25M195.494 597.212l-.698-.696-3.01-5-8.285-11.78-4.71-8.086-3.227-6.502M360.649 602.347l1.304-.222 1.21-.804 1.54-2.961 1.724-2.12 3.667-1.828 6.491-1.865 1.43-.256 1.907.914.99.073 9.866-2.705 1.283-.073 4.84 1.207 11.154 2.716M432.217 603.551l-3.263-2.376-3.521-1.06-4.51-.585-2.971-.988-2.86-2.412-7.037-1.707M206.47 273.94l7.312-.49 10.943-1.06 10.113-.905 1.79-.104.751-.516 4.046-5.507.804-.62 11.374-1.798M154.003 97.062l2.229.565 4.84.695 4.449 1.087 3.663.261 6.716-.478 2.702-.846M582.865 200.047l8.978-9.403 28.853-30.213M610.85 134.475l2.857 13.346.57 1.757 2.72 4.26 2.629 3.451.645 1.008.425 2.134M411.736 285.185l.264-.82.074-1.608.586-.658 3.264-4.606.44-2.45-1.687-2.778-4.84-4.79M500.497 504.06l-.645 4.681-.713 2.262 2.43 6.14v1.195l.778 1.939.13 2.294-1.329 4.233-.745 2.585-1.394 2.004.39 4.426-2.01 5.3M432.65 329.018l-2.392-.23-1.264.033-1.507-.21M616.158 98.627l.039 1.108.466 3.31-.155 2.585-.675 2.791-1.296 5.688-1.092 4.653M610.85 134.475l-.099-.46-.188-2.265.379-4.828.743-2.627 1.351-3.345.41-2.188M601.829 126.41l1.83-.751 2.981-1.81 1.297-.55 1.864-1.244 1.378-1.712 1.799-1.213.467-.368M597.89 116.384l.518.743 1.02 3.7 1.184 4.492.356.614.68.42.18.057M610.85 134.475l-.579-.318-.892-.34-1.36-1.922-.6-.727-.989-1.55-.86-1.051-1.474-1.212-1.232-.614-1.035-.33M571.955 172.176l.78-6.188.422-4.395-.146-.436-.567-.63-1.07-.501M557.598 160.898l.616-.145.55-.243.746-.533 1.686-1.438.924-1.082.421-.097 3.241 1.05.487.242.097.388.016 12.102.113.501.373.307 5.087.226M582.865 200.047l-1.346-1.372-2.204-2.892-1.296-1.536-.08-.403.047-.453.357-.517.567-.694.13-.486-.097-.516-.551-.614-5.008-4.654-.924-.727-.114-.226v-.404l2.415-5.64 2.48-5.816-.081-.274-.243-.291-.584-.162-4.378-.194M414.13 352.893l-.873-3.165-.843-1.858-.794-2.682-.043-.575M402.285 343.685l.333.51" clip-path="url(#p7dc36f1ee8)" style="fill:none;stroke:#000"/></g><path id="PatchCollection_1" d="m429.432 392.608-.211-.42.584-3.57-.147-1.067-.615-2.908-.649-2.424-.26-1.825-.598-3.248.664-.598.988-.29.52-.873.907-2.714-.324-2.424-2.237-2.779-1.88-3.263-.55-1.73.096-.468 5.51-2.682 1.897-.404 12.01.469 1.458 1.777.162 3.135-2.172.549-3.241.388v2.39l3.825 4.913 2.625 2.132 4.376.42 1.297 1.486-.325 2.941-2.01 1.94-.194 4.442-.13 1.648.552 1.26 1.28.84.632.712-.113.936-.357.89-.664.694-1.475-.065-1.605-.695-1.15-1.55-1.038-1.164-2.074-.727-2.804.032-3.112.501-3.386.323-1.379.437-3.97 2.601z" clip-path="url(#p7dc36f1ee8)" style="fill:#00f;fill-opacity:.8"/></g></g><defs><clipPath id="p7dc36f1ee8"><path d="M99.57 86.4h538.859v554.4H99.57z"/></clipPath></defs></svg>