<svg xmlns="http://www.w3.org/2000/svg" width="960" height="960" viewBox="0 0 720 720"><defs><style>*{stroke-linejoin:round;stroke-linecap:butt}</style></defs><g id="figure_1"><path id="patch_1" d="M0 720h720V0H0z" style="fill:#fff"/><g id="axes_1"><path id="patch_2" d="M90 616.678h558V110.522H90z" style="fill:#fff"/><g id="LineCollection_1"><path d="m332.818 369.642-1.385 3.962M332.818 369.642l2.378-7.927M332.818 369.642l-7.104-4.306M346.32 377.732l-10.631-6.164-2.87-1.926M331.433 373.604l-1.224 4.439M331.433 373.604l12.624 7.913M331.433 373.604l-4.03-2.588M347.86 375.226l-1.54 2.506M359.214 375.677l-2.166 3.649M359.214 375.677l4.12 2.6M355.465 373.656l2.062.99 1.687 1.031M346.32 377.732l-2.263 3.785M346.32 377.732l8.543 5.17M330.209 378.043l-1.065 4.252M330.209 378.043l11.597 7.237M344.057 381.517l-2.251 3.763M344.057 381.517l8.601 4.977M329.144 382.295l-1.167 4.518M329.144 382.295l-8.585-4.974M329.144 382.295l10.524 6.56M354.863 382.902l-2.205 3.592M354.863 382.902l2.185-3.576M270.79 384.146l-1.13.47M277.84 384.859l-.206-.105-2.197-1.111-.692-.21-.49-.1-.43-.009-.505.034-.683.168-1.847.62" clip-path="url(#p649cfa369d)" style="fill:none;stroke:#000"/><path d="m269.483 377.765.228 1.77.11.821.118.612.202.822.27 1.006.379 1.35M341.806 385.28l-2.138 3.575M341.806 385.28l8.58 4.966M327.977 386.813l9.45 5.788M327.977 386.813l-1.126 3.947M319.509 381.536l1.944 1.234 6.524 4.043M352.658 386.494l-.512.93M339.668 388.855l-2.241 3.746M339.668 388.855l8.71 5M350.387 390.246l-2.01 3.61M350.387 390.246l1.759-2.823M350.387 390.246l9.086 5.426M326.85 390.76l-1.214 3.613M326.85 390.76l-3.59-2.092M326.85 390.76l8.49 5.33M337.427 392.601l-2.087 3.49M337.427 392.601l8.673 5.066M348.377 393.856l-2.277 3.811M348.377 393.856l8.868 5.717M367.634 393.67l-4.318 1.238M367.634 393.67l.366-.093M370.564 403.733l-1.02-3.32-.464-1.468-.49-1.81-.956-3.465M363.316 394.908l2.604 9.862M359.473 395.672l.272.037.472-.013 3.099-.788M361.044 381.647l-.287.504-.085.377.068.536 2.576 11.844M359.473 395.672l-2.228 3.901M359.473 395.672l-1.979-8.423M335.34 396.09l-3.718 6.226M335.34 396.09l8.637 5.094M311.301 396.012l-.164-.682M324.025 400.195l-.31-.093-3.063-.914-1.998-.678-7.353-2.498M305.66 394.334l3.01.78 2.631.898M346.1 397.667l8.95 5.457M346.1 397.667l-2.123 3.517M357.245 399.573l-2.194 3.551M357.245 399.573l8.675 5.197M324.025 400.195l-.335 1.133M324.025 400.195l1.611-5.822M331.622 402.316l-.72-.201-6.877-1.92M343.977 401.184l-2.109 3.909M343.977 401.184l8.787 5.64M229.994 400.53l4.823-1.836M223.905 402.425l1.383-.285 1.298-.344 3.408-1.266" clip-path="url(#p649cfa369d)" style="fill:none;stroke:#000"/><path d="m223.905 402.425 1.223.73.413.117.498.059.615-.009 1.855-.142.514-.075.447-.135.262-.142.173-.138.16-.18.105-.169.089-.268.021-.302-.008-.264-.047-.277-.101-.344-.13-.356" clip-path="url(#p649cfa369d)" style="fill:none;stroke:#000"/><path d="m187.112 393.063 2.844.86 27.085 7.948 1.787.403 1.156.16.96.108.971.017 1.155-.033.835-.101M331.622 402.316l-1.856 3.092M340.946 406.64l-2.94-1.75-1.628-.964-1.4-.579-3.356-1.031M355.05 403.124l-2.286 3.7M355.05 403.124l8.747 5.524M365.92 404.77l-2.123 3.878M370.564 403.733l-.944.185-1.771.436-1.93.416M341.868 405.093l-.922 1.547M341.868 405.093l8.597 5.325M329.766 405.408l-2.062 3.42M329.766 405.408l8.742 5.276M329.766 405.408l-6.076-4.08M322.23 405.613l-.998 2.76M322.23 405.613l1.46-4.285M322.23 405.613l5.474 3.216M340.946 406.64l8.58 5.423M340.946 406.64l-2.438 4.044M352.764 406.824l-2.3 3.594M352.764 406.824l8.806 5.453M363.797 408.648l8.266 4.967M363.797 408.648l-2.227 3.63M321.232 408.372l-1.07 2.855M321.232 408.372l8.507 5.273M311.212 406.145l1.15-2.16.279-.302.405-.143.421.093 7.765 4.74M327.704 408.829l3.538 2.224M350.465 410.418l-.94 1.645M350.465 410.418l2.977 1.787M338.508 410.684l8.6 5.291M338.508 410.684l-2.157 3.578M331.242 411.053l-1.503 2.592M331.242 411.053l5.109 3.21M320.163 411.227l-1.104 2.487M320.163 411.227l8.222 4.754M320.163 411.227l-4.868-2.581M349.525 412.063l-2.417 3.912M349.525 412.063l2.965 1.788M361.57 412.277l-2.247 3.384M361.57 412.277l8.893 5.216M329.74 413.645l-.694 1.196M372.46 413.852l-.397-.237M372.46 413.852l-1.997 3.64M376.826 414.507l-1.523.051-.953-.092-1.89-.614M319.06 413.714l-1.957 3.605M319.06 413.714l-5.086-2.86M319.06 413.714l7.87 4.775M336.35 414.262l8.542 5.298M336.35 414.262l-2.249 3.732M376.826 414.507l1.84 7.936M380.715 411.86l-1.5.426-.488.15-.565.496-1.336 1.575M329.046 414.84l5.055 3.154M329.046 414.84l-.661 1.14M359.323 415.66l-1.087 1.8M359.323 415.66l-5.881-3.455M359.323 415.66l8.905 5.463M328.385 415.98l-1.455 2.509M347.108 415.975l-2.216 3.585M347.108 415.975l8.857 5.436M317.103 417.32l-2.23 3.722M324.988 421.838l-4.227-2.348-3.658-2.17M308.087 411.45l.498.79.308.343.299.256 7.911 4.48M358.236 417.46l-2.27 3.951M358.236 417.46l8.727 5.609M358.236 417.46l-5.746-3.609M370.463 417.493l8.204 4.95M368.228 421.123l1.872-2.968.363-.662M334.101 417.994l8.532 5.22M334.101 417.994l-2.262 3.752M326.93 418.489l-1.942 3.349M326.93 418.489l4.91 3.257M344.892 419.56l-2.26 3.655M344.892 419.56l8.87 5.442M385.466 421.067l-2.363.635M355.965 421.411l8.778 5.23M355.965 421.411l-2.203 3.591M368.228 421.123l-1.265 1.946M368.228 421.123l8.455 5.407M331.84 421.746l-2.021 3.595M331.84 421.746l8.646 4.943M379 422.705l4.103-1.003M379 422.705l-2.317 3.825M379 422.705l-.333-.262M366.963 423.069l-2.22 3.571M366.963 423.069l8.505 5.245M342.633 423.215l-2.147 3.474M342.633 423.215l8.844 5.195M353.762 425.002l8.374 5.328M353.762 425.002l-2.285 3.408M329.819 425.34l3.99 2.362M329.819 425.34l-5.056-3.114M329.819 425.34l-1.869 2.94M364.743 426.64l-2.607 3.69M375.468 428.314l-2.037 3.215-.181.134-.282.034-.405-.162-7.82-4.895M376.683 426.53l-1.215 1.784M376.683 426.53l8.669 5.327M340.486 426.69l5.422 3.238M340.486 426.69l-1.115 1.788M375.468 428.314l13.79 8.45M351.477 428.41l.981 4.037M345.908 429.928l3.263-.94 2.306-.578M320.676 429.275l2.315-3.928M362.136 430.33l-.693 1.93M355.58 462.603l.396-1.3 1.492-4.737.33-.93.244-.646.733-1.82.312-.821.22-.873.514-2.045 1.147-4.503.27-1.266.7-1.945.135-.688.05-.452.042-.881-.19-2.327-.532-5.11M352.458 432.447l.431.252.435.105.577-.021.46-.047 7.082-.477M390.276 429.92l.582.413M399.193 435.543l-2.04 3.787M399.193 435.543l-5.856-3.578M399.193 435.543l8.91 5.593M399.193 435.543l.216-3.518M409.11 439.452l-1.007 1.684M397.153 439.33l-.942 1.696M397.153 439.33l-2.042-1.21-4.08-2.618M397.153 439.33l8.617 5.43M408.103 441.136l8.375 5.251M408.103 441.136l-2.333 3.624M396.211 441.026l-2.071 3.776M396.211 441.026l8.492 5.46M396.211 441.026l-6.954-4.261M392.623 443.656l1.517 1.146M405.77 444.76l-1.067 1.725M405.77 444.76l8.377 5.449M394.14 444.802l8.256 5.362M416.478 446.387l-.887 1.65M418.478 442.799l-.059.343-.16.36-1.78 2.885M417.295 448.999l.858-1.359.009-.154-.069-.154-1.615-.945M404.703 446.485l-2.307 3.68M404.703 446.485l8.592 5.113M414.147 450.209l1.444-2.173M413.295 451.598l.514-.83.338-.56M414.147 450.209l.874 1.393M402.396 450.164l-1.351 1.954M402.396 450.164l5.222 3.323M413.295 451.598l1.726.004M410.908 455.455l.85-1.203 1.537-2.654M410.908 455.455l-3.29-1.968M410.908 455.455l2.05 1.252M588.276 446.697l-1.813 5.232M599.29 416.31l-1.603 4.579-9.41 25.808" clip-path="url(#p649cfa369d)" style="fill:none;stroke:#000"/><path d="m610.737 445.824-.132.27-1.23.486-3.999 1.251-1.584-.027-.962-.034-1.247.302-.827.084-2.597-.167h-1.872l-1.518-.219-6.493-1.073M577.651 461.639l-4.25 1.442M586.463 451.93l-1.172 3.454-.961 2.012-1.502 1.426-2.276 1.274-2.9 1.543M546.09 464.994l-.175-.023M573.401 463.081l-2.934.822-3.441.553-20.936.538" clip-path="url(#p649cfa369d)" style="fill:none;stroke:#000"/><path d="m540.777 473.26 1.458.05h1.99l.798-.384 1.13-1.096-.063-6.836M603.185 405.242l1.653-4.31M603.185 405.242l-3.596 10.217M589.44 406.408l5.034-.663 2.133-.251 1.03-.025 1.054.075 1.424-.126 2.344-.234.726.058M523.59 462.008l-2.589-.184-2.327.234M502.365 466.888l12.852-3.89 3.457-.94M523.109 474.87l-.944-1.358-.27-.587-.32-.956-.422-1.224-.203-.57-1.062-1.04-.472-.553-.202-.537-.085-.688-.455-5.299M345.072 482.639l-.927 1.622-.338.646-.278.645-.227.713-1.644 5.835M338.04 513.859l.439-3.496.075-.99.017-.99-.135-2.037-.008-.846.084-.856.16-.72.894-3.363 1.18-4.595.912-3.866M324.358 481.356l1.754.687.286.138.275.164.493.344.287.143.324.113 6.443 1.391.227.1.148.135.072.185.025.243-.03.205-.277.839-.119.436-.093.537-.274 1.949-.008.26.042.348.123.272.16.155.227.114.316.067.363.038 1.729.13.514.075.439.134 2.091.772 1.763.77M617.69 364.475l-.667 1.965M617.69 364.475l-9.268 3.027M631.046 326.725l-7.218 20.661-6.139 17.089M523.59 462.008l14.816 1.928" clip-path="url(#p649cfa369d)" style="fill:none;stroke:#000"/><path d="m521.018 437.432-.473.176-.354.37-.042.527.237.855.421 1.174.911 1.359.345.67.136.772.285 3.744.12 2.805.126.561.346.654.295.906.219 10.003M347.695 448.575l.945-3.706.607-1.459.139-.432.08-.406.071-.717.199-.885.708-2.029.843-1.56 1.033-1.462.258-.44.193-.307.093-.184.047-.136-.003-.17-.063-.118-.086-.104-.437-.346-.082-.166-.01-.306.228-1.195M582.129 420.453l.7 4.326.446 4.143.987 7.42 1.628 12.519.573 3.068M634.132 317.888l-1.67 5.08M631.046 326.725l1.417-3.756M613.488 333.071l2.43-1.75.894-.562 1.113-.336 13.121-3.698M573.393 348.654l8.693-.463M561.174 299.289l.13.876 1.734 6.906 1.197 5.048 1.155 4.586.759 3.22.615 1.836.355 1.434.834 3.64.38 1.525.776 3.262.421 1.928.633 2.801.65 2.306.598 2.54.683 2.5.413 1.786.186.913.278.83.287.671.135.757M579.49 372.49l-.709-2.96-1.434-5.055-.244-.998-.253-1.4-2.024-7.933-1.256-4.402-.102-.503-.075-.585" clip-path="url(#p649cfa369d)" style="fill:none;stroke:#000"/><path d="m532.908 349.784 5.54-.083 7.37-.126 5.186-.269 3.053-.025 11.232.377 1.51-.075 6.594-.93M532.908 349.784l-2.868-12.778M532.908 349.784l-13.155.252M540.025 379.5l-3.5-14.346-2.69-10.49-.927-4.88M512.122 261.203l-.532-2.038M486.195 262.824l.274-.17.49-.126 5.026-.193 20.137-1.132M523.135 308.462l-4.343-18.548-3.348-14.581-3.322-14.13M463.356 279.282l.628-1.929.181-.666.026-.768-.127-.888-.227-1.031-1.071-4.655M467.92 267.646l-.946.332-4.208 1.367M455.21 235.896l.261 1.4.304 1.427.97 4.695.945 4.578.48 2.23.64 2.701.684 2.658 1.636 6.473.657 2.667.448 2.122.311 1.433.22 1.065M455.396 312.817l.7-2.015.303-1.14.144-1.535-.186-3.773V302.4l.211-2.013.59-1.978.869-2.692.994-3.203 1.94-6.105 2.395-7.127" clip-path="url(#p649cfa369d)" style="fill:none;stroke:#000"/><path d="m456.564 276.473.063.373.093.306.206.352.32.352.355.227.409.146 3.803.747 1.543.306M451.816 318.86l1.623-3.27.911-1.41.725-.913.32-.45M464.891 314.952l-.59.017-1.181-.109-1.096-.31-1.231-.553-2.26-.89-1.383-.369-.928-.05-.826.13M433.384 353.588l1.034-2.185M428.226 353.264l1.374.059 3.784.265M440.402 352.93l-.674.032-3.862.52-1.425.147-1.057-.041M408.412 354.577l7.123-.164 2.437-.05 2.673-.135 5.852-.78 1.729-.184" clip-path="url(#p649cfa369d)" style="fill:none;stroke:#000"/><path d="m429.12 376.918.034-7.496-.026-2.428.026-.608.101-.473.038-.336-.224-2.98-.219-2.264-.624-7.07M405.745 355.36l.76-.331 1.907-.452M406.474 338.73l.316 2.1.608 2.363.219 2.248-.118 2.113-.22 2.381.034.587.068.436 1.031 3.619M412.862 372.75l-.22-1.877-.227-.948-.565-1.66-.717-2.055-.261-.943-1.265-5.27-1.195-5.42M384.89 391.438l-.714.117M403.036 358.358l-2.603 3.4-.262.445-.296.679-1.804 8.62-.96 4.527-1.207 4.302-.253.57-.27.394-10.49 10.143M409.606 391.446l-4.013.213-3.272.134-4.182-.05-4.655-.084-8.594-.221M372.011 392.72l-4.011.857M372.011 392.72l3.849-.281M372.011 392.72l2.383 10.137M378.179 392.12l2.428-.419 3.57-.146" clip-path="url(#p649cfa369d)" style="fill:none;stroke:#000"/><path d="m378.44 401.973 2.049-.655 1.012-.427.582-.378.426-.331.32-.343.253-.667 1.094-7.617M385.352 431.857l-.621-2.902-1.628-7.253M380.715 411.86l.364.2.27.31.329 1.04.371 1.542 1.054 6.75M385.352 431.857l5.678 3.645M409.606 391.446l7.793-.374M401.271 414.567l7.307-7.648.43-.478.102-.444.295-10.238.201-4.313M459.456 388.984l-11.16.763-8.77.42-12.278.603-5.751.302h-4.098M412.862 372.75l.135.906.725 2.994 2.656 10.74 1.02 3.682M488.333 387.961l-5.244.201-4.95-.017-7.564.437-6.08.268-2.547.1-2.492.034M456.343 376.54l.368 1.393.675 2.255.287 1.727.193 1.418.195.905.834 2.99.56 1.756M490.197 387.718l-1.864.243M489.472 389.068l.134-.486.17-.403.42-.461M499.068 385.957l-1.543.26-7.328 1.5M508.723 350.388l-.185 6.607-.607 5.685-1.282 5.518-.793 2.096-1.855 4.511-.793 1.182-1.037 1.334-.312 1.047-.286 2.348M517.051 383.18l-1.329.178-2.133-.118-1.375-.142-10.641-2.382M499.068 385.957l.86-.369.498-.712 1.147-4.16M608.422 367.502l-6.207 1.928-1.18.327-.894.118-11.257 1.668-3.664.348-3.774.6-1.046.067-.91-.067M555.54 376.65l7.05-.973 13.054-2.784 2.26-.604.65-.058.472.058.464.202M610.648 384.05l-.076.197-5.734 16.686M606.982 417.32l-.576-3.76-.708-6.07-.86-6.557M450.699 352.861l5.784-.684M440.402 352.93l2.109-.127 3.195.067 4.993-.009M456.343 376.54l-.509-1.92-1.433-5.936-1.03-4.696-2.672-11.127M508.723 350.388l11.03-.352M482.357 351.716l.833-.137 1.905-.286 2.631-.016 3.71.553 1.417.05 1.72-.486 1.636-.218 12.514-.788" clip-path="url(#p649cfa369d)" style="fill:none;stroke:#000"/><path d="m493.739 293.49.147.533 1.337 5.35.261 1.057.371 2.18 1.004 3.664 1.298 5.064.178.99.447 2.549.455 1.308.177.696.683 2.6 1.02 3.605.211 1.099.076 1.274.127 1.14.185.89 1.062 3.73.92 4.512.337.888.236.83.363 2.449 1.914 7.161.472 1.912.287.494.624.546.792.377M506.59 195.773l3.112-1.242 6.636-2.725 1.788-.67M523.97 205.373l-.565.05-.583.043-.455.017-.27-.038-.151-.11-.089-.17-.114-.336-.126-.52-.304-1.14-.22-.873-.269-1.04-.607-2.431-.439-1.669-.362-1.493-.397-1.534-.277-1.09-.313-.973-.303-.93M517.784 189.53l.122.633.22.972M131.88 158.407l-1.441-5.04M101.898 167.813l17.763-5.34 6.005-1.979 6.214-2.087M134.444 157.656l-.4.151-.78.214-1.384.386M127.268 140.922l10.883-3.47M128.693 146.994l-.869-3.254-.556-2.818M150.036 133.552l-11.885 3.9M150.036 133.552l1.863 6.096M137.292 134.308l.86 3.144M138.151 137.452l1.816 6.272M141.991 149.93l-2.024-6.206M142.868 155.128l-.169-1.954-.134-.78-.574-2.465" clip-path="url(#p649cfa369d)" style="fill:none;stroke:#000"/><path d="m150.896 146.8-2.935 1.083-5.97 2.046M130.439 153.367l4.435-1.19 7.117-2.248M146.064 165.132l-.945-1.484-.362-.914-.498-1.652-.708-2.18-.295-1.133-.186-1.367-.202-1.274M134.444 157.656l.49-.193.83-.31 3.276-.994 3.828-1.031M161.72 171.45l-1.118-.465-1.299-.545-1.34-.704-1.047-.495-1.837-.629-1.274-.47-1.821-.78-2.185-.813-3.735-1.417" clip-path="url(#p649cfa369d)" style="fill:none;stroke:#000"/><path d="m134.444 157.656 2.18 2.7.636.91.684.688.315.155.435.105 1.307.545 3.323 1.358 2.74 1.015M151.9 139.648l-11.933 4.076M151.9 139.648l1.745 5.459M128.693 146.994l.708-.033.928-.185 9.638-3.052M128.693 146.994l1.746 6.373M150.896 146.8l1.13-.469.826-.494.793-.73" clip-path="url(#p649cfa369d)" style="fill:none;stroke:#000"/><path d="m154.372 147.265-.078-.254-.65-1.904M244.11 593.294l-4.664 2.356-5.118 2.574-3.491 1.643-3.02 1.35-2.512 1.124-2.75 1.124-2.158.913-1.906.93-.818.538-1.045.628-.692.36-.303.068-.405.042-.287-.025-.329-.092-.54-.285-.556-.26-.48-.193-.608-.1-.624.008-.548.025-.337-.068-1.223-.352M543.93 148.604l.1.425M541.722 139.218l.343 1.512 1.864 7.874M536.249 149.725l1.077-.198 1.502-.235 2.141-.31 2.96-.378M557.944 198.036l-.523-.913-.354-.638-.328-.545-.245-.428-.464-.561-.337-.269-.692-.427M554.293 193.315l.422.596.286.344" clip-path="url(#p649cfa369d)" style="fill:none;stroke:#000"/><path d="m553.745 194.296.691-.016.565-.025M567.97 198.523l-2.976.226-2.395.235-1.459.16-.734.008-.615-.126-.59-.193-.768-.394-.49-.403M548.069 206.874l1.257-1.165 2.269-2.138 1.02-1.006.792-.864.776-.939.494-.617.485-.583.522-.536.371-.277.38-.176.708-.285.8-.252M577.178 198.323l-.564-.043-1.503-.038-1.845.012-1.627.026-.91.025-.962.05-1.797.168" clip-path="url(#p649cfa369d)" style="fill:none;stroke:#000"/><path d="m570.82 210.53-1.045-4.008-.725-3.085-1.08-4.914M600.993 200.091l-3.264-.226-4.9-.244-2.824-.176-2.656-.185-5.693-.503M577.178 198.323l1.283.1 3.195.334M582.765 203.127l-.35-1.401-.759-2.969" clip-path="url(#p649cfa369d)" style="fill:none;stroke:#000"/><path d="m573.026 162.43.738 3.314.505 2.139.937 4.209 1.298 5.232.987 3.824.286 1.132.549 2.407.919 3.832.784 3.38.759 3.244.868 3.614M616.912 202.059l-.64-.132-4.283-.696-2.21-.343-1.467-.218-1.164-.135-2.454-.192-3.701-.252M604.854 216.32l-.413-1.58-.894-3.53-.826-3.329-.7-2.943-1.028-4.847M596.287 180.712l.388 1.727.472 2.248.388 1.492.464 1.879 1.273 5.416.97 3.489.32 1.25.228.871.203 1.007M621.138 202.875l2.875.503M616.912 202.059l1.688.346 2.538.47M618.642 192.729l1.61 6.624.886 3.522M621.813 205.919l-.371-1.635-.304-1.41M627.445 203.965l-3.432-.587M628.432 199.37l-.127.243-.176.285-.228.31-.194.252-.11.184-.068.235-.042.285-.067.587-.008.646.033 1.568M602.687 127.749l-.32-1.149-.43-1.736-.32-1.551-.177-.721M611.196 121.217l-1.223.167-1.037.16-1.13.167-3.98.554-2.386.327M301.965 356.567l2.797 12.092M314.572 356.63l-4.106.42-8.5-.483M291.013 310.872l.706 3.007 3.938 16.192 2.412 10.288 1.451 6.306 2.445 9.902M291.459 357.08l1.373-.186 4.909-.435 2.942.058 1.282.05M350.618 355.713l-3.614.004M369.569 354.782l-4.047.402-10.72.38-4.184.149M355.465 373.656l-2.301-1.123-.228-.227-.152-.352-.11-.578-2.056-15.663M357.048 379.326l3.996 2.321M357.048 379.326l-2.74-1.612M365.936 384.28l-2.517-1.096M365.936 384.28l1.534-3.715M368 393.577l-1.247-5.775-.817-3.522M338.247 430.283l.182.126M338.247 430.283l-4.437-2.581M338.247 430.283l1.124-1.805M332.052 430.32l2.075.471 1.569.403.552.029.375-.038.852-.352.772-.55M169.97 198.85l1.72 5.233 2.227 7.312 2.968 9.894 2.075 6.641.792 2.868.961 3.086 1.535 4.495 1.518 5.332 1.046 3.623.877 2.717.65 1.937M209.94 328.293l-.379-1.392-.143-.368-.169-.328-.27-.428-.303-.494-.27-.637-.464-1.375-2.454-7.95-5.464-18.33-3.07-10.313-1.737-5.619-1.518-5.366-1.45-4.243-1.332-4.73-1.839-5.819-2.74-8.913M227.16 372.558l.405 1.04 1.214 4.293.413 1.19.253.68.169.477.16.512.16.528.473 1.82.547 2.499.2.654.185.557.215.592.176.435.262.638.261.796.439 1.392.843 3.094.75 3.362.532 1.577M239.759 396.782l-.698.27-4.244 1.642" clip-path="url(#p649cfa369d)" style="fill:none;stroke:#000"/><path d="m239.13 411.854-.333-.243-.19-.202-.168-.327-.393-1.119-1.433-5.09-1.796-6.18M161.72 171.45l.61 2.11 2.85 9.408 2.294 7.295 2.497 8.587M100.73 218.06l.7 1.258.266.248.224.092.315.03.397-.08 1.594-.49 4.229-1.317 6.282-1.962 5.068-1.66 2.058-.655 3.449-1.073 3.558-1.056 3.947-1.191 5.127-1.526 4.882-1.485 1.4-.343 2.243-.57 5.009-1.426 2.437-.973 2.167-.62 3.365-1.191 1.964-.646 2.884-.889 5.676-1.685M415.59 448.036l1.705.963M418.534 449.7l-1.24-.701M473.441 475.406l28.924-8.518M473.441 475.406l.52 2.724M417.956 453.37l8.096 4.876 29.495 18.452 1.13.57 1.316.37 2.024.284 1.787.084 1.771-.067 1.316-.15 1.788-.538 6.762-1.845" clip-path="url(#p649cfa369d)" style="fill:none;stroke:#000"/><path d="m470.979 442.94.49 6.004.117 2.734.354 3.404.287 5.433.59 8.536.624 6.355M473.962 478.13l2.172-.629M473.962 478.13l-.964.264M482.398 475.69l-6.264 1.811M465.45 480.468l7.548-2.074M472.998 478.394l.836 4.895M473.834 483.29l-.678.195M473.834 483.29l2.06-.525M466.267 485.475l6.89-1.99M473.156 483.485l.985 4.888M474.141 488.373l-6.979 2.034M474.141 488.373l2.607-.814M476.134 477.501l.896 4.975M477.03 482.476l6.339-1.729M477.03 482.476l-1.136.289M475.894 482.765l.854 4.794M476.748 487.56l7.465-2.085M353.442 412.205l-.952 1.646M538.406 463.936l7.51 1.035M537.09 438.74l.211 4.62.122 4.698.157 2.546.27 1.828.59 3.388.084 1.434-.076 1.937-.034 2.884-.008 1.861M544.57 431.118l-1.214 1.316-1.543 1.35-.532.344-.455.63-.304.662-.27.57-3.162 2.75" clip-path="url(#p649cfa369d)" style="fill:none;stroke:#000"/><path d="m521.018 437.432 3.423-.033 3.738.125.825-.008 4.79.838 3.296.386M544.57 431.118l-.11-8.3M545.295 448.827l-.565-8.2-.26-2.826-.161-1.065-.009-.738.203-.83.067-.964v-3.086M554.172 420.053l-1.78.35-6.422 1.207-.826.226-.405.369-.279.612M543.701 406.467l.085 6.137.674 10.213M369.569 354.782l-7.509-32.218M369.569 354.782l.23-.04M218.301 355.875l-3.25-10.787-1.518-4.997-1.88-6.029-1.712-5.769M223.955 327.178l-7.462.373-.531.034-.355.067-.232.058-.27.1-.446.207-.304.108-.295.05-.434.043-.709.05-.767.042h-.691l-1.518-.017M175.283 150.407l1.046 3.648 2.31 8.184 1.535 5.4.995 3.623 2.394 8.486 2.58 9.576 2.312 8.486 4.047 14.372 1.518 5.753 2.21 8.184 2.31 8.452 2.36 8.42 1.957 7.378 1.265 4.58 2.462 9.022 2.227 7.865 2.31 8.52 2.968 10.749 1.602 5.82.785 3.203 3.128 11.093 4.351 15.957M246.698 337.559l-7.497-1.476-2.141-.402-1.299-.135-1.248.05-3.6.252-2.016-.042-.708-.117-.734-.184-.497-.227-.506-.302-.456-.662-.37-.814-.397-1.115-1.274-5.207M365.643 379.641l-2.31-1.364M365.643 379.641l1.827.924M365.643 379.641l-2.224 3.543M365.643 379.641l.655-1.264M363.333 378.277l-2.289 3.37M363.333 378.277l.84-1.309M370.767 372.558l-.085.352-.067.327-.135.839-.11.734-.042.418-.084.327-.181.366-.452.754-.666 1.224-.742 1.275-.733 1.391M363.419 383.184l-2.375-1.537M354.13 388.54l-1.984-1.117M341.548 432.56l1.23-.998 1.274-.921.422-.21 1.434-.503M341.548 432.56l-1.083-.746M335.019 445.873l1.022-1.934 1.316-2.625 2.428-4.771 1.763-3.982M324.763 422.226l-1.772 3.12M324.763 422.226l.225-.388M313.974 410.854l-4.227-2.212M313.974 410.854l1.321-2.208M321.95 393.285l-7.994-2.146M321.95 393.285l3.686 1.088M321.95 393.285l1.31-4.617M370.564 403.733l3.83-.876M372.063 413.615l-.251-2.143-1.248-7.739M228.189 188.67l.59 2.046.818 3.17 1.037 4.293.49 1.778.775 2.817 1.096 4.176.48 2.147.423 1.87.573 2.004.826 2.994M259.364 312.755l-.388-1.601-1.501-5.677-.56-2.28-.254-.986-.105-.461-.072-.385-.084-.39-.156-.596-.203-.78-.759-2.809-.733-2.968-.776-3.153-.869-3.68-.564-2.324-1.088-4.318-.658-2.524-.691-3.027-.895-3.573-1.011-3.957-.532-2.264-.564-2.524-.675-2.55-.92-3.312-.362-1.316-.346-1.56-.48-2.146-.599-2.197-.65-2.642-.53-2.616-1.257-4.73-.548-2.12-.624-2.65-1.332-4.595-1.012-4.746-1.737-6.793-.532-2.54" clip-path="url(#p649cfa369d)" style="fill:none;stroke:#000"/><path d="m245.704 215.397-2.185.098-4.444.243-3.778.227M284.248 388.313l-3.76-2.029-2.648-1.425" clip-path="url(#p649cfa369d)" style="fill:none;stroke:#000"/><path d="m274.694 372.91.54 2.172.295 1.132.312 1.132.388 1.065.287 1.03.8 3.095.524 2.323M278.835 357.666l.852.168.994.033 1.392-.033 3.617-.025 1.577.008 2.1-.134.666-.1.574-.152.438-.142.414-.21M300.274 380.957l-.337-.22-.438-.172-.764-.125-.581-.084-.683-.235-.329-.343-.228-.83-5.152-20.393-.303-1.476M280.515 312.015l2.418 9.712 1.417 5.644.961 4.117 1.484 6.289 1.417 6.08 2.395 9.5.852 3.722M262.843 327.149l.256 1.152.515 1.837.886 2.667.329 1.458.446 2.348.211 1.14.717 2.76 1.425 5.215 1.315 5.215 1.097 4.084M273.626 368.808l-2.414-8.978-1.172-4.805" clip-path="url(#p649cfa369d)" style="fill:none;stroke:#000"/><path d="m278.835 357.666-1.434-.318-1.231-.437-.978-.352-2.243-.805-2.91-.729" clip-path="url(#p649cfa369d)" style="fill:none;stroke:#000"/><path d="m256.364 348.235.28.996.258.998.252.897.127.394.186.36.48.579.312.36.262.32.168.335.4.871.174.32.261.25.329.169.396.042h.43l.523-.101 1.872-.553.797-.21.257-.055.372-.05.32-.008.405.037.674.201.65.151.885.135 2.606.352M256.364 348.235l-.356-.04-.312-.033-.388.02-2.234.286-3.551.394" clip-path="url(#p649cfa369d)" style="fill:none;stroke:#000"/><path d="m246.698 337.559 1.383 6.087 1.442 5.216M254.608 366.143l-.675-2.574-1.442-4.436-1.214-4.351-1.07-3.832-.684-2.088M254.608 366.143l-7.328.763M256.177 371.527l-.667-2.114-.902-3.27M258.538 381.43l-.363-1.888-.472-2.095-.354-1.426-.608-2.365-.564-2.13" clip-path="url(#p649cfa369d)" style="fill:none;stroke:#000"/><path d="m273.626 368.808-1.892-.124-.573.042-.658.117-.497.143-.624.276-.531.378-1.48 1.161-.232.126-.181.067-.253.05-.258.017-.337-.012-.902-.118-.666-.126-.574-.092-.742-.1-.599-.05-1.113.066-1.13.143-4.207.755M258.538 381.43l-5.22 1.207M259.988 388.64l-.54-2.473-.21-1.283-.228-1.367-.472-2.088M259.988 388.64l.919-.369M250.122 392.732l5.54-2.322 1.2-.49 3.126-1.28M243.705 324.302l2.302 10.221.691 3.036M369.799 354.743l1.191-.016 1.177.08 2.655.302.873-.013.304-.058.748-.246.257-.059.247-.019.768-.066.35-.1.868-.42.342-.277.236-.52.1-.595.077-1.564.11-.47.312-.398.43-.155.762-.038 1.236-.05 1.24-.134 1.61-.26 2.041-.185 1.012-.042.978.218.683.395.616.528M395.878 354.31l-2.386-.031-.702-.028-.246-.132-.211-.239-.103-.283-.525-1.641-.683-1.375" clip-path="url(#p649cfa369d)" style="fill:none;stroke:#000"/><path d="m378.255 297.813.712 1.312.266.659.202.595 1.13 4.612.894 3.471.894 4.276 1.18 4.227 1.13 4.679.624 3.437.59 1.93.27.888.945 3.707 3.17 12.678 1.257 5.115.017.385-.139.344-.224.293-.151.16M405.745 355.36l-.654.428-2.055 2.57M395.878 354.31l5.043.07.506.125.346.218.194.268.211.352.194 1.45.168.79.173.394.323.38M498.7 202.96l.621 2.976 1.34 6.306.633 2.85.54 2.13.582 2.214.868 3.614.616 2.826M505.384 232.005l-.674-2.456-.43-1.938-.38-1.735" clip-path="url(#p649cfa369d)" style="fill:none;stroke:#000"/><path d="m478.373 224.73 6.284.4 1.298.033 1.502-.067 2.69-.125 9.292-.487 1.467-.033.894.1.725.302.793.495.582.528M478.373 224.73l-1.88-1.085M476.958 226.035l.21-.595.17-.302.26-.193.775-.216M476.494 223.645l-4.444-18.221M476.958 226.035l-.194-1.081-.27-1.309M469.908 196.125l1.155 5.24.447 1.904.54 2.155" clip-path="url(#p649cfa369d)" style="fill:none;stroke:#000"/><path d="m498.7 202.96-.652-.026-.784.016-1.206.025-1.468.118-2.858.285-2.378.226-2.092.177-1.467.142-2.462.268-2.184.285-2.235.252-2.926.31-2.605.269-1.333.117M461.025 180.3l.198 1.192.312.654.548.813.818.739 1.146.662 1.324.738 1.527.98M469.908 196.125l-.7-2.7-.742-3.17-.514-2.13-.514-1.207-.54-.84M460.14 184.957l2.465.4 3.55.563.743.159M462.791 165.719l-.784-1.216M461.025 180.3l.114-1.299.202-1.064.396-1.628 1.02-3.982.38-1.644.202-1.123.05-.94-.042-.788-.201-1.032-.355-1.081M488.423 161.335l-2.543.409-2.775.461-2.58.453-2.96.545-5.667 1.04-5.236.855-3.871.621M498.7 202.96l-.088-.42-.202-.982-.169-.905.017-.604.22-.487.362-.385.995-.562 2.243-1.014 2.682-1.141 1.83-.687M501.109 172.712l1.855 8.143L504 185.5l.396 1.535.413 1.643 1.122 4.705.354 1.257.304 1.133M511.042 170.196l-.927.168-.801.176-.996.244-1.72.452-5.49 1.476" clip-path="url(#p649cfa369d)" style="fill:none;stroke:#000"/><path d="m488.423 161.335.703 2.32.228.538.193.234.27.101h.389l.666-.092 5.236-1.258.599-.168.59-.134h.413l.38.126.253.302.21.663.22.896.363 1.284.472 1.509.295.83.211.528.194.436.118.437.16.679.118.62.101.486.169.52.135.52M517.704 189.115l-.101-.588-.21-1.056-.203-1.023-.27-1.216-.329-1.383-.388-1.61-.65-3.087-.455-2.188-.32-1.426-.261-1.45-.195-.923-.193-.478-.245-.176-.287-.05-.48.025h-.405l-.388-.033-.498-.236-.362-.486-.245-.763-.177-.772" clip-path="url(#p649cfa369d)" style="fill:none;stroke:#000"/><path d="m511.21 161.24.701 3.456.261 1.468.135 1.199.06.696-.06.687-.244.528-.27.394-.312.269-.439.26M481.834 132.694l.79 3.34.641 2.81.515 2.246.936 3.967.835 3.63 1.113 4.94.615 2.717.507 2.189.637 2.802M540.025 379.5l2.816-.502M517.051 383.18l1.757-.233 2.396-.36 1.028-.31 1.105-.261 4.241-.587 3.491-.771 4.335-.629 2.159-.16 2.462-.368M555.54 376.65l-9.663 1.542-2.007.47-1.029.336M543.701 406.467l-.252-10.75-.27-6.406-.439-6.742.051-1.743.05-1.828M545.295 448.827l.62 16.144M557.78 447.07l-3.56.419-8.925 1.338M262.8 457.455l-1.496-.31-2.842-.671-.903-.294-.295-.176-.22-.171-.134-.185-.068-.227.017-.268.068-.356.716-3.555 1.755-9.626.657-3.38.708-4.3.726-3.975.928-5.467 1.112-6.238.937-4.872.623-3.136" clip-path="url(#p649cfa369d)" style="fill:none;stroke:#000"/><path d="m245.028 411.523 1.35-.084 18.711-1.19M260.907 388.271l3.348 11.823 2.209 7.203.426 1.639.038.31-.013.235-.063.23-.101.169-.14.171-.227.105-.278.046-1.017.046M260.907 388.271l6.548-2.729M304.762 368.659l10.787 5.89M304.762 368.659l1.405 5.424M306.167 374.083l6.819 3.743M306.167 374.083l.952 4.712M307.12 378.795l4.769 2.822M307.12 378.795l.431 1.712M313.956 391.139l-4.069-.815M311.137 395.33l1.985-3.06.834-1.131M309.887 390.324l-1.097-4.242M309.887 390.324l1.25 5.006M309.887 390.324l-4.003-.582M300.194 389.06l5.69.682M300.194 389.06l.161-4.065M286.02 389.21l.1-1.232.127-.36.312-.328.43-.126h.59l4.857.797 7.758 1.099M300.47 393.027l-.284-1.77-.06-.923.068-1.274M300.56 393.577l-.09-.55M305.66 394.334l-3.22-.471-1.88-.286M286.02 389.21l1.652.671.473.166 1.972.69 3.053.964 4.444 1.3 2.945.576M301.617 399.934l.037-.2-.034-.705-.211-1.45-.85-4.002M307.551 380.507l-.51.226-.615.134-.894.122-2.31.155-1.56-.042-1.388-.145" clip-path="url(#p649cfa369d)" style="fill:none;stroke:#000"/><path d="m300.355 384.995.042-2.208.059-1.023-.182-.807M308.79 386.082l-.286-1.285M308.79 386.082l-8.435-1.087M300.355 384.995l-5.509-.766M327.14 429.923l.81-1.643M333.81 427.702l-1.758 2.619M332.052 430.32l-4.102-2.04M327.95 428.28l-4.959-2.933M322.991 425.347l-4.026-2.145M314.872 421.042l-2.28 3.516M314.872 421.042l-9.2-5.421M314.872 421.042l4.093 2.16M305.671 415.621l2.416-4.17M312.592 424.558l-8.325-5.07-.16-.637.06-.46.59-1.183.914-1.587M308.087 411.45l1.66-2.808M304.2 405.426l1.602 2.7 1.889 2.692.396.632M309.747 408.642l-5.548-3.216M309.747 408.642l1.465-2.497M301.215 403.582l1.74 1.123M300.371 403.649l.287-.067h.557M301.617 399.934l-.116.638-.312 1.476-.017.771.043.763M311.212 406.145l1.345.75 2.738 1.75M311.212 406.145l-7.393-4.197M303.819 401.948l1.241-4.973.6-2.64M303.819 401.948l-.863 2.757M301.617 399.934l.374.789.38.428.488.318.96.479M302.956 404.705l1.243.721M375.86 392.439l2.319-.32M375.86 392.439l2.58 9.534M378.44 401.973l-4.046.884M378.44 401.973l2.275 9.887M336.27 355.979l10.734-.262M336.27 355.979l-13.37.555M335.196 361.715l1.081-3.605.068-.645.008-.378-.082-1.108M378.179 392.12l-1.324-8.293-.936-4.075-.785-3.303-.792-3.874-.346-1.233-.767-2.65-.658-2.75-.869-3.95-.716-2.842-1.187-4.407M415.992 452.188l1.964 1.182M415.992 452.188l-.971-.586M415.992 452.188l-3.035 4.52M412.957 456.707l2.037 1.253M408.426 506.698l1.746-2.213 1.332-1.543.254-.444.117-.512.076-.553.337-4.679.017-2.565.135-6.238.085-8.033.202-12.342.126-8.553.026-1.56.078-.756M417.956 453.37l-2.962 4.59M414.994 457.96l1.674 1.072M418.284 456.759l-1.616 2.273M416.668 459.032l1.54 1.064M418.478 442.799l-3.992-2.78M413.983 434.455l-.16 2.365.17.268.15.151 4.459 2.682.09.108.039.162-.253 2.608M521.018 437.432l-.582-.218-.37-.277-.338-.478-.278-.746-.397-.654-.498-.662-.581-.436-.236-.327-.118-.495-.084-2.163M523.126 407.461l.582.037.742.092.59-.058.607-.21 4.883-2.515.64-.26.717-.084.709.125 1.484.31 2.496.638 2.859.46 2.951.387 1.315.084M523.126 407.461l-.885-.055-2.589-.268-1.358.075-1.02.058-.624.32-.397.376-.472.654-.607 1.208-.986 3.094-.388 1.233-.616.93-1.602 1.937-2.184 2.415-.97 1.35-.48.428-1.139.67-.573.168-1.333.11-.986.167-.76.377-.337.353-.402.561" clip-path="url(#p649cfa369d)" style="fill:none;stroke:#000"/><path d="m502.365 466.888-.784-16.242.48-1.182.06-.637-.06-.788-.337-3.086.068-3.94.202-2.633.354-5.082.135-5.416-.065-4.26" clip-path="url(#p649cfa369d)" style="fill:none;stroke:#000"/><path d="m502.467 417.215-.085 4.009.036 2.398" clip-path="url(#p649cfa369d)" style="fill:none;stroke:#000"/><path d="m489.472 389.068-.042 5.391.134 3.992.102 3.304.168 1.492.372 1.375.168.62-.034.739-.27 4.058-.252 1.375-.203.52-.118.62.05.755.405.922.54.721.725.235 3.627.604 1.466.218 2.885.754 1.872.386 1.4.066" clip-path="url(#p649cfa369d)" style="fill:none;stroke:#000"/><path d="m499.068 385.957.928.813.16.336 1.029 6.112.505 2.264.44 2.734.193 2.901.025 3.069-.118 3.12-.135 2.7.093.955.312 2.012.034 1.057-.067 3.185M488.333 387.961l.506.193.38.344.253.57M523.135 308.462l2.268 8.771 1.653 6.289 2.984 13.484M519.753 350.036l-.017-.89-.227-1.3.084-.552.227-.612.354-.503 1.645-1.443 7.353-5.425.574-.763.244-.662.05-.88M478.931 337.466l5.186-.377h4.402l1.585.05.742-.117 1.299-.503M474.714 319.622l4.217 17.844M467.404 317.049l.388 1.576.303.503.371.336.624.084 5.624.074M474.268 297.15l-3.28.864-.65.277-.295.445-.025.654.05.57 4.646 19.662M464.891 314.952l1.746-.105.274.06.11.138.062.167.32 1.837" clip-path="url(#p649cfa369d)" style="fill:none;stroke:#000"/><path d="m464.891 314.952.557.168 1.956 1.929M474.74 296.966l.472-.243.97-.268 3.415-.705 2.05-.318 2.065-.15 1.155-.21 1.915-.47 3.145-.62 2.243-.429.793-.058.451-.021.325.016M486.195 262.824l.131.534.372 1.325.219.906.362 1.576.869 3.79.852 3.74 1.003 4.193.582 2.364.32 1.284 1.391 5.248 1.013 4.042.303 1.224.127.44M474.74 296.966l-.472.184M474.74 296.966l-.388-.436M474.268 297.15l.084-.62M482.357 351.716l-2.043-8.22-1.383-6.03M456.483 352.177l6.207-.735 3.634-.115 5.616.386 4.976.57 2.209-.033 3.232-.534M578.174 330.834l.38-.084.91-.16.877-.05 2.252-.209 2.36-.235.895-.168.354-.075h.337l.227.184.186.738.211.36.304.193.455.06 1.492-.345" clip-path="url(#p649cfa369d)" style="fill:none;stroke:#000"/><path d="m582.086 348.19-.26-1.701-.726-3.832-.91-3.74-.566-2.423-.564-1.895-.608-2.29-.278-1.475M569.8 297.444l.152.553.169.563 1.08 4.243.893 3.546.48 2.248.979 3.32.759 2.6.48 2.305.582 2.113 1.409 5.811.396 1.812.995 4.276M560.027 294.895l-.422.017-.337-.004-.4-.11-.485-.238-.224-.189-.409-.398-.312-.327-.514-.269-.43-.1-.548-.042-.456.008-.548.034-.7.075-.506.067-.413.034-.472.025-.515-.017-.413.009-.252.1-.22.269-.042.251.101.62.135.52.202.747.017.252-.05.31-.304.234-5.321 1.35-1.576.303h-.371l-.507-.168-.38-.143-.345.033-5.498 1.225-2.395.461-1.678.36-.59.227-.43.31-.228.37-.262.603M523.135 308.462l8.98-1.777.54-.244.261-.276.043-.336-.118-.486-.532-2.046-.38-1.593M539.08 284.8l-.64.008-.49.059-.446.134-.337.142-.422.243-.304.243-.21.168-.085.176-.017.277.034.587-.017.595-.11.286-.286.226-.582.193-.945.1-1.78.126-1.382.076-.708.066-.54.227-.278.193-.22.411-.05.587.093.545.986 4.293 1.585 6.943M561.174 299.289l-.126-.277-.136-.486-.776-3.262-.109-.369" clip-path="url(#p649cfa369d)" style="fill:none;stroke:#000"/><path d="m556.274 279.005 1.628 6.423 1.703 7.723.422 1.744M569.8 297.444l-.86.1-.91.186-4.748 1.358-1.906.377-.202-.176M590.427 293.696l-.692.11-.607.092-.835.159-2.968.838-3.256.805-2.782.922-1.543.688-1.484.553-.691.068-.87-.168-1.787-.143-2.235-.017-.877-.159M562.306 267.674l3.944 16.01 1.485 5.602 2.065 8.158M607.536 308.471l-.405.041-.363.16-.598.285-2.833 1.342-5.33 2.6-1.332.762-1.004.394-.329.176M601.948 341.24l-.433-1.468-.843-3.018-3.643-15.429-1.687-7.094" clip-path="url(#p649cfa369d)" style="fill:none;stroke:#000"/><path d="m590.427 293.696.176.67.81 3.498.557 2.934.489 2.432.522 2.264 1.265 4.126.59 1.894.506 2.717M564.134 418.096l1.02.395.658.586.59 1.292 2.665 8.821.489 1.157.91 1.61 1.366 3.454 1.822 4.159.573 1.962.27 1.946.034 2.8-.253 2.532-1.012 4.343-.81 3.086-.269 1.376-.051 1.509.355 2.029.91 1.928M523.126 407.461l.405-.71.59-.972.152-.637-.05-.772.067-.989.253-1.174.303-1.258.178-.796-.422-1.015-.405-.595-.472-.227-.422-.05-2.37-.033-.792-.135-.54-.293-.329-.377-.244-.579-.101-2.742.05-1.601-.143-3.975-.076-2.44-.177-1.476-.244-.545-.574-.486-.712-.404M582.086 348.19l8.635-.284 1.35-.176 1.298-.654 6.57-4.453 2.009-1.384M613.488 333.071l-6.88 4.958-4.66 3.21" clip-path="url(#p649cfa369d)" style="fill:none;stroke:#000"/><path d="m608.422 367.502-3.441-14.356-2.732-11.051-.169-.494-.132-.362M613.741 375.884l-3.893.756-.069-.36-.944-7.21-.413-1.568M554.172 420.053l-1.245-.506-.574-.637-.37-1.107-.388-3.253-.338-3.757.304-2.968.489-2.918.37-1.576.641-1.258.929-1.023 1.315-1.208 3.812-3.79 2.074-2.582.32-1.057.068-.838-.135-5.316-.186-4.293-.658-1.895-.86-1.274-1.366-1.242-1.281-.62-1.552-.285M599.29 416.31l.3-.851M582.129 420.453l-.169-1.225-.008-.377.236-.277.531-.134 1.982-.26 3.879-.478 7.083-.972 1.391-.218 1.037-.1 1.198-.101M564.134 418.096l3.423-.595 2.42.075 1.13.11 1.501.335 2.252.755 1.037.285 2.698.486.92.319.7.42.733.234.624.025.557-.092M564.134 418.096l-9.962 1.957M624.15 377.529l.487 3.565.237 3.974.32 3.17.118.955-.084.605-.32.368-.507.218-1.011.335-.44.286-.218.754-.304 1.393-.152.804-.27 2.801-.067 1.593v.972l.54 2.416.185.939.287.167 1.028-.217 5.01-.152M635.499 382.586l-1.46-.335-.556-.11-.194-.15-.16-.293-.641-5.862-.185-.318-.194-.11-4.857 1.192-2.412.754-.69.175M613.312 377.017l1.206.488 1.248.687.574.269.91.017 3.626-.503 2.378-.218.896-.228M617.023 366.44l2.538 4.005 4.081 4.93.508 2.154M613.312 377.017l.429-1.133M613.312 377.017l-2.664 7.032M590.427 293.696l-4.301-18.095M633.197 294.098l-.237-1.056M633.197 294.098l.767 2.776M633.964 296.874l-2.024.486-.278-.008-.135-.075-.05-.16.033-.176.362-.604 1.325-2.239M610.37 318.877l3.693-.151 1.897-.168 1.518-.252 2.85-.872 3.534-.989 4.418-1.174M610.37 318.877l1.804 8.46 1.314 5.734M607.536 308.471l.32.15.22.378.666 3.48.498 2.18.665 2.44.464 1.778" clip-path="url(#p649cfa369d)" style="fill:none;stroke:#000"/><path d="m600.757 277.814.893 3.698 1.51 5.912.826 3.37.48 2.114.22.822.177.67.152.57.101.487.38 2.105.1.637.16.461.684 3.396.472 2.213.75 2.91.102.621-.051.344-.177.327M606.982 417.32l6.853-.733.91-.167.22-.26.008-.377-1.163-8.336-.565-5.039-.692-5.634-.826-5.182-1.079-7.543M606.982 417.32l1.346 8.784.49 3.036.657 5.215 1.03 8 .32 2.363.034.855-.122.25M606.982 417.32l-2.82-.59-3.523-.922-1.05-.35M286.02 389.21l-1.772-.897M285.505 397.193l.228-3.186.287-4.797M285.505 397.193l-1.619-.034M285.505 397.193l-.177 3.94M283.886 397.16l-.009 1.827M284.248 388.313l-.556 1.375-.21.671-.153.822-.092.738-.051.511-.008.662.118 1.032.59 3.035M243.848 178.65l-.607-2.617-.506-1.954-.785-2.775-.438-1.577-.396-1.878-.658-2.575M232.826 131.818l.304 1.398.886 3.413.69 2.918.305 1.67.497 2.716.565 2.81.506 2.682.253 1.032.33 1.099.572 2.046.304 1.526.371 2.088.633 2.65.657 2.81.76 2.598M223.783 166.318l1.809-.02 3.052.083 2.656-.109.81-.05 1.62.017 1.635-.118.716-.092 1.325-.319 1.02-.243 2.032-.193M355.465 373.656l-1.158 4.058M354.307 377.714l-4.167-2.607M283.262 431.068l1.07-6.322M295.886 432.458l-2.092-.208-5.776-.679-4.756-.503M278.025 462.427l2.016-12.736 3.22-18.623M278.025 462.427l-6.29-2.264M322.781 474.241l-.272.061-.283.025-.263.002-6.725-.65-6.038-.595-2.302-.268-1.661-.243-4.68-.788-.822-.176-.48-.168-.44-.247-.35-.256-.324-.37-.581-.783-.507-.532-.484-.382-.427-.281-.446-.256-.531-.235-.734-.264-7.695-2.465-8.71-2.943M315.896 426.08l-3.304-1.522M295.886 432.458l18.154 1.67.488-.146.324-.233.142-.317.902-7.353M318.965 423.202l-1.054.856-.893.742-.405.315-.346.318-.371.646M476.958 226.035l.05.789M475.124 230.652l.59-.44.498-.58.434-.775.245-.893.117-1.14" clip-path="url(#p649cfa369d)" style="fill:none;stroke:#000"/><path d="m478.222 230.119-.286-1.14-.286-.89-.338-.82-.304-.445M455.21 235.896l2.72-.792 6.354-1.589 4.216-.968 3.529-.814.856-.214.813-.247.785-.302.64-.318M478.222 230.119l-.893.184-.852.193-.683.109-.67.047M449.409 212.87l1.256 5.149 1.029 4.184.211.755.177.46.362.882.371 1.098.456 1.954.691 3.186.43 1.937.818 3.421M454.291 184.04l.472 2.79.43 2.46.397 2.23.497 2.894.295 2.08.32 2.96M469.908 196.125l-9.006 2.305-4.2 1.024M446.904 201.625l8.981-1.97.818-.201" clip-path="url(#p649cfa369d)" style="fill:none;stroke:#000"/><path d="m442.248 181.985.003.255.045.283.687 3.447.219 1.107.658 2.935.371 1.652.515 2.046.337 1.131.38 1.35.547 1.87.455 1.854.44 1.71M449.409 212.87l-1.097-4.243-.295-1.4-.143-.78-.135-.73-.127-.796-.151-.813-.32-1.577-.237-.906M460.14 184.957l-.275-.59-.068-.342.026-.462.177-.897.523-1.518.194-.394.308-.453M454.291 184.04l2.21.345 2.133.327 1.506.245M442.248 181.985l.187-.066.333-.05.742-.008.814.092 1.382.185.92.2 1.198.303 1.13.301.96.227 1.535.352 1.417.302 1.425.218M441.697 179.521l.063.147.089.28.399 2.037M417.175 208.505l.856.214.48.06 1.814-.018 3.912.361 3.078.227 3.702.418 2.842.386 4.562.621 2.926.453 2.277.46 4.642.772.544.13.599.281M445.64 159.12l1.104.276 3.297.344 3.12.218 1.164-.075.76-.017.598.083.977.361 1.308.654 1.408.864 1.088.889.893.972.65.814M459.502 152.94l1.535 6.305.784 3.606.093.52.043.478.05.654M507.012 238.286l.379 1.727.565 2.55.574 2.826.328 1.82.304 1.928.194.964.261 1.124.33 1.283.42 1.794 1.223 4.863M533.431 257.363l-.472.142-.43.151-.667.176-.64.185-.532.059-.59-.076-.48-.084-.414-.075-.7-.059h-1.029l-1.652.109-1.788.15-1.248.043-.506-.05-.405-.21-.194-.218-.236-.31-.278-.185-.262-.042-.396.051-.717.167-.978.218-2.58.587-4.647 1.073M507.012 238.286l-.566-2.348-.606-2.297-.456-1.636" clip-path="url(#p649cfa369d)" style="fill:none;stroke:#000"/><path d="m529.94 240.542-.844-4.033-1.147-4.495-.396-1.518-.22-.905-.126-.361-.202-.268-.346-.135-.632-.016-.928.109-1.062.176-3.036.822-2.546.679-1.712.478-.97.218-1.248.176-1.518.1-2.15.11-2.201.16-1.999.075-1.273.091M497.896 237.65l.312.1.548.066 1.796.143 3.887.269.827.033h.885l.86.025M517.704 189.115l.875-.244M517.704 189.115l.08.415M536.249 149.725l-3.46.648-2.605.479-2.606.452-.42.143-.28.15-.084.26.06.403.135.646.48 2.197.337 1.492-.025.31-.152.236-.32.15-.549.143-2.554.554-5.161 1.216-4.621 1.064-1.535.403-.818.251-.86.319M622.487 200.485l.515.302.37.268.27.327.152.36.093.47.126 1.166M544.03 149.029l3.34 14.216 2.808 12.41 1.374 6.307.371 1.392.599 2.297.338 1.501.227 1.04.203.998.615 2.818.228.838.16.47" clip-path="url(#p649cfa369d)" style="fill:none;stroke:#000"/><path d="m553.745 194.296.245-.41.134-.252.169-.319M583.824 207.424l.396 1.614 1.762 7.245 1.653 7.052.784 3.757.557 2.356.304 1.157.379 1.35.506 1.954.49 1.912.8 3.597.886 3.774.27 1.09.134.562.169.72.202.68.178.721.472 1.887.53 2.205.81 3.564.304 1.224.22.771.193.655.312 1.107.253.99.202.779.245 1.115.506 2.055.532 2.163.286 1.199.599 2.558M600.613 277.219l-.228-.846-.16-.655-.987-4.41-.286-1.233-.194-.838" clip-path="url(#p649cfa369d)" style="fill:none;stroke:#000"/><path d="m593.125 272.07 2.175-1.098.684-.386.413-.218.522-.302.422-.268.363-.21.404-.175.296-.093.354-.083M619.072 274.091l.303 1.166.312 1.191.413 1.836.43 1.677.456 1.97.91 4.277.161.78.287 1.434.287 1.023.278.889.388 1.45.16.654.177.864.194.47.244.268.439.092.447-.017.885-.209 1.493-.445 2.783-.788.944-.252.599.017.489.168.362.185.447.251M619.072 274.091l-.22-.662M619.072 274.091l-.578.229M636.922 268.75l-.96.168-1.146.268-1.51.352-1.602.378-1.746.41-1.155.303-.658.184-.64.234-.565.26-.667.286-.573.184-.582.126-.422.117-.463.16-.582.21-.632.259-1.055.411-.717.277-2.175.754M600.613 277.219l.144.595M600.613 277.219l.531.185M618.494 274.32l-2.648 1.042-2.163.85-2.31.881-2.442.881-.446.13-.375.062h-.224l-.278-.088-.177-.121-.105-.138-.195-.31-.173-.193-.164-.097-.224-.038h-.337l-3.196.13-1.716.05-.177.043" clip-path="url(#p649cfa369d)" style="fill:none;stroke:#000"/><path d="m600.757 277.814.168-.23.105-.113.114-.067M518.579 188.871l2.835-.771 2.142-.554 1.038-.243.986-.21.734-.175.717-.193 3.22-.88 3.939-1.133.759-.084.413.076.295.209.253.352.253.847.312 1.451.405 2.021.43 2.147.303 1.098.245.612.253.201.624.151 1.088.076 1.08-.034 1.095-.025.953-.042 1.442-.084M553.745 194.296l-.75-.016-1.021-.067-.919-.126-1.156-.151-1.838-.21-1.366-.117-1.054-.008-1.248.083" clip-path="url(#p649cfa369d)" style="fill:none;stroke:#000"/><path d="m546.603 203.73-.464-1.97-.784-3.556-.962-4.52M517.784 189.53l1.075-.139M518.86 189.391l.32.168.464.21.455.176.86.26M518.579 188.871l.137.319.143.201M618.852 273.43l-.358.89M610.505 238.84l.666 2.993.514 2.063.388 1.543.27.981.506 2.088.624 2.532.362 1.728.295 1.341.32 1.451.245 1.09.363 1.635.152.746.32 1.317.498 2.113.404 1.669.186.704.135.57.177.864.186.721.252.981.7 2.49.784 2.97M635.385 261.374l.215 1.187.379 2.089.472 2.23.313 1.3.158.57M618.642 192.729l-.784-2.935M617.858 189.794l-.11.335-.017.319.093.452.278.973.22.42.16.234.16.202M616.83 185.608l.176.78.371 1.485.48 1.92M614.392 175.253l.174.692M614.392 175.253l-.5.403M614.148 174.163l.05.21.194.88M613.076 169.324l.256 1.098M613.076 169.324l.886.487M610.977 161.057l.463 1.769.16.662.253.99.33 1.3.598 2.381.295 1.165M610.977 161.057l6.527.344M609.67 155.455l.463 1.945.624 2.776.22.88M607.84 147.715l.253 1.04.126.545.203.822.168.805.245 1.2.354 1.5.194.788.287 1.04M591.48 160.72l11.41-3.32 1.83-.52 1.256-.327 1.029-.251.92-.235.682-.218.514-.201.549-.193M607.84 147.715l7.118.21M605.029 136.45l.399 1.403.38 1.653.193 1.073.102.445.084.486.16.763.135.553.16.637.355 1.334.303 1.04.236.763.304 1.115M604.104 133.124l-.43-1.71-.312-1.191-.675-2.474M611.264 126.76l-1.502.243-.775.16-.43.108-.515.151-.278.058-.228.026-.253.008-.303-.059-.32-.083-.296-.084-.354-.092-.405-.009H604.4l-.615.084-.396.109-.405.185-.296.184M626.408 224.437l-1.265-5.11-.497-2.063M623.847 214.284l.175.683.624 2.297M617.124 225.13l.683-.99.413-.889.27-1.098.219-.94.05-.377v-.369l-.016-.561-.008-.437.067-.268.337-.252.43-.176 1.088-.327 2.631-.787 1.358-.395M607.546 227.135l.15.67.422 1.82.784 3.06.936 3.614.667 2.54M616.543 238.565l-1.182-.002-3.179.009-.598.058-.54.093-.54.117M623.847 214.284l-.61-2.378-.438-1.853-.304-1.325-.354-1.45-.328-1.36M616.912 202.059l-.269 3.172-.008.268.068.201.117.093.203.017 3.786.1 1.004.009M586.126 275.601l6.383-3.22M583.216 262.964l2.682 11.589.228 1.048M555.832 241.328l-6.979.97M558.224 251.3l-.195-.763-.616-2.566-.582-2.557-.801-3.28-.198-.806M552.53 228.406l.186.732 1.113 4.15.354 1.158.296.997.379 1.535.253 1.165.261 1.418.127.553.135.529.198.685M552.843 257.33l-.169-.705-.152-.629-.396-1.417-.279-.88-.244-.613-.211-.578-.278-1.14-.456-2.122-.54-2.012-.353-1.342-.912-3.595M545.793 236.542l.565-.016.54.075.387.167.33.336.21.62 1.028 4.573M551.164 223.025l1.366 5.381M547.412 207.512l.497 2.29.675 2.842.776 3.153.784 3.077 1.02 4.151" clip-path="url(#p649cfa369d)" style="fill:none;stroke:#000"/><path d="m545.793 236.542-2.226-9.911-.101-.562-.085-.487.068-.335.185-.251.363-.227.75-.185 4.486-1.073 1.931-.486M529.94 240.542l6.265-1.56 3.584-.955 2.159-.579 1.374-.378 1.231-.343.54-.118.7-.067M583.006 261.79l.21 1.174M583.006 261.79l-.582.67M580.748 252.282l.622 2.674.978 4.075.658 2.76M582.424 262.46l.438.169.354.335M572.103 265.212l3.018-.83 2.8-.738 2.142-.563 1.821-.503.54-.117M562.306 267.674l9.797-2.462M560.744 261.103l.894 3.807.668 2.764M569.699 260.675l.228.093.236.209.084.277.06.36.024.411.017.352.068.428.118.444.338 1.031.252.42.245.235.312.176.422.1M561.579 260.44l.675-.1 1.002-.06.279.009.438.034.388.067.338.042.514.05h.447l.422-.084.286-.059.312-.033.388.042.371.05.599.068.683.091.565.05.413.068" clip-path="url(#p649cfa369d)" style="fill:none;stroke:#000"/><path d="m580.748 252.282-.989.008h-.388l-.328-.017-.465-.117-.505-.176-.818-.244-.768-.2-.48-.076-.498-.06-.396-.008-.742.059-.472.168-.312.16-.447.293-.38.2-.447.135-.826.126-1.332.15-.751.085-.337.084-.16.066-.16.194-.051.293.016.343.093.537.119.596.059.453.033.444.009.445.016.427.093.486.574 2.097.168.654v.369l-.177.42M561.579 260.44l-1.03-.084M560.744 261.103l.312-.31.22-.176.303-.176M560.744 261.103l-.194-.747M553.77 260.6l.692.301M553.77 260.6l.177.628M553.77 260.6l-.927-3.27M558.224 251.3l.488 1.904 1.838 7.152M554.462 260.901l.564-.1 1.384-.126 1.855-.15 1.248-.101 1.037-.068M553.947 261.228l.295-.226.22-.1M546.603 203.73l.617 2.886M544.427 204.083l.834-.093.625-.1.717-.16M548.069 206.874l-.657.638M547.22 206.616l.301.175.279.075.269.008M547.22 206.616l.192.896M556.274 279.005l-.379-1.551-.042-.436v-.336l.084-.167.261-.076h.675l.304-.1.21-.185.178-.318-.034-.453-.152-.663-.472-1.878-.497-1.912-2.463-9.702M534.105 257.48l.92 4.033.126.37.118.285.084.197.098.121.257.1.438-.066 16.697-5.19M533.835 256.533l-.868-4.06-.725-2.724-.414-1.644-1.889-7.563M533.835 256.533l.27.947M533.835 256.533l-.404.83M534.105 257.48l-.674-.117M496.727 238.04l-.025-1.614M497.392 237.83l-.382.137-.283.072M492.34 238.379l2.149-.026 1.08-.059.691-.117.467-.138M496.702 236.426l.874.955M479.522 234.035l.244-.034.919.034 6.071.385 5.322.302 2.799.201.43.118.37.277.794.855.23.253M497.392 237.83l.184-.45M497.392 237.83l.504-.18M497.896 237.65l-.32-.27M478.934 233.587l.587.448M478.934 233.587l.225.943M478.934 233.587l-.712-3.468M479.159 234.53l.168-.226.195-.269M471.822 284.825l.405-.043h.228l.286.068.447.159.582.243.548.252.49.235.53.226M474.352 296.53v-.477l-.126-.789-.355-1.433-.362-1.51-.827-3.606-.86-3.89M467.92 267.646l.268 1.012.54 2.39.902 4.05.75 3.404.751 3.404.287 1.216.404 1.703M486.195 262.824l-.105.065-.21.201-.262.285-.447.269-.421.091-4.259.872-2.462.537-2.235.512-2.218.537-2.175.51-.869.21-.944.235-1.231.344-.436.154M479.159 234.53l.261.855.27.905.135.529.186.755.556 2.314 1.163 4.285.684 2.868.168.729.236 1.258.304 1.476.27 1.09.362 1.668.793 3.296.953 3.748.695 2.518M634.944 259.322l.441 2.052M634.944 259.322l-1.943-7.506M636.612 259.895l-.86-.034-.32-.083-.488-.456M635.385 261.374l.704-.925.219-.294.304-.26M633.001 251.816l-1.027-4.214-.844-3.547-.708-2.985-1.931-7.53-.936-4.059-1.147-5.044M604.854 216.32l4.233-1.194 1.476-.403 1.147-.301 1.223-.327.801-.176.767-.193.59-.168.836-.26 2.023-.537.346-.067.261-.034.237.06.185.159.186.386.185.654.118.352.177.2.262.144.421.091.65.076.65-.042 1.778-.352.441-.104M604.854 216.32l.105.402M604.96 216.722l-3.26.693M607.546 227.135l-.103-.454-.185-.906-.27-1.131-.363-1.51-.244-.973-1.422-5.439M624.106 254.101l-.143-.554-.27-1.3-.32-1.366-.195-1.023-.202-1.325-.1-.587-.136-.453-.151-.26-.186-.126-.49-.058-.421.025-1.138.084-.472-.009-.473-.15-.261-.16-.177-.26-.245-.754-.278-1.09-.126-.57-.87-2.634-.345-1.048-.38-1.157-.184-.761M614.274 227.654l-.017.452.068.57.117.646.582 2.44.388 1.544.565 2.272.152.763.177.94.237 1.284M624.106 254.101l.616-.126.506-.1 2.656-.63 2.757-.687 1.088-.31.667-.235.605-.197M614.485 227.025l-.574.009M614.274 227.654l.084-.294.127-.335M615.437 226.849l-.514.134-.438.042M607.546 227.135l6.365-.101M577.178 198.323l.393 1.977M578.65 201.542l-.16-.022-.253.013-.248.034-.203.038-.181.003-.152-.02-.097-.076-.055-.163v-.193l.034-.189.067-.218.101-.193.047-.13.021-.126" clip-path="url(#p649cfa369d)" style="fill:none;stroke:#000"/><path d="m578.65 201.542-.114-.462-.071-.13-.127-.092-.173-.08-.202-.117-.215-.176-.177-.185M582.765 203.127l.392 1.576.667 2.72M579.987 210.506l.776-.395.952-.545.785-.595.54-.52.37-.436.414-.591M570.82 210.53l1.451-.117.683-.067.835-.084M577.265 237.438l-.955-4.242-.927-3.823-.607-2.39-.363-1.484-.75-3.355-.515-2.197-.396-1.492-.405-1.879-.354-1.593-.767-2.85-.405-1.602M481.834 132.694l.445-.073.657-.05.54-.059.725-.05 1.451-.084.683-.042.986-.033.793-.043 1.518-.075M583.84 129.015l1.485 6.558.666 2.499M589.8 154.297l-.208-.888-1.577-6.331-2.024-9.006" clip-path="url(#p649cfa369d)" style="fill:none;stroke:#000"/><path d="m598.59 134.625-.473-.008-.346.025-.674.126-.784.201-1.206.36-3.652 1.099-5.464 1.644M567.903 140.914l-2.428-10.012M554.344 141.77l7.842-.478 1.467-.092 1.653-.084 1.534-.11 1.063-.092M573.026 162.43l-1.59-6.59-2.007-8.46-.995-4.285-.53-2.18M552.345 133.51l.186.788.75 3.203 1.063 4.268" clip-path="url(#p649cfa369d)" style="fill:none;stroke:#000"/><path d="m544.03 149.029 10.373-2.656.48-.15.236-.126.11-.143.025-.226-.05-.378-.86-3.58M583.84 129.015l-1.161-4.83M575.266 129.791l.606-.038 2.58-.218 3.44-.335 1.055-.092.894-.093M571.015 130.013l-.886.093-.801.1-1.197.184-1.35.269-1.306.243M552.345 133.51l.43-.218.607-.218.717-.16.97-.226.843-.15.961-.169 4.68-.78 3.922-.687M589.8 154.297l.584 2.558.32 1.133.313 1.014.219.805.244.914M596.287 180.712l-1.24-5.165-.185-.847-.135-.68-.202-.897-.17-.637-.176-.687-.338-1.276-.328-1.09-.38-1.274-.168-.662-.186-.873-.388-1.853-.607-2.8-.304-1.25M541.722 139.218l-.255-1.004M541.722 139.218l-1.09-.358M541.467 138.214l-.835.646M526.895 137.803l.312-.486.203-.235.37-.226.305-.117.472-.01.809.152 2.791.57 2.404.52 1.315.336 1.35.335.598.117.515.067.69.025h.777l.826.01M623.347 161.635l2.909.116M623.347 161.635l-5.843-.234M627.125 163.941l-1.307.05-.742-.041-.658-.085-.489-.108-.202-.193-.076-.302-.304-1.627M569.775 162.557l.38-.042.708-.016 2.163-.07M567.802 162.214l.101.31.186.167.286.06h.405l.38-.076.615-.118M567.802 162.214l.531.033.455.034.405.042.27.067.312.167M567.802 162.214l-.127-.453-.11-.428-.117-.562-.118-.679M571.445 130.495l.186.776.252 1.006.354 1.283.549 1.829.244.737.203.62.295.931.185.806.135.629.093.301.11.277.26.327.406.11.497.058.793.05.556.1.354.144.413.368.2.26.168.281M571.445 130.495l-.43-.482M571.445 130.495l.12-.53M571.015 130.013l.55-.048M575.266 129.791l-1.266.08-1.493.059-.943.035M585.51 153.275l.667.276.674.227.674.15.911.185.658.1.706.084M614.148 174.163l-1.842 1.924M613.332 170.422l.25 1.074.43 2.088.136.58M613.892 175.656l-.807.21-.779.22M596.287 180.712l4.621-1.283 3.508-.99 1.214-.427 1.03-.386 1.01-.327.701-.201.742-.176.886-.226.868-.219.675-.193.764-.197M627.1 172.134l.075.99.06 1.005.034.73.042.981M626.256 161.75l.87 2.191M629.891 163.782l-.354-.637-.261-.47-.212-.402-.185-.236-.312-.142-.304-.042-.522-.05-1.485-.052M616.753 157.786l.152.763.152.721.252 1.158.195.973M614.274 138.373l2.319.01.404.028.321.105.287.143 1.189.797 1.315.771" clip-path="url(#p649cfa369d)" style="fill:none;stroke:#000"/><path d="m615.37 147.916-.329-1.333-.32-1.325-.279-1.216-.219-.956-.084-.612-.05-.486-.026-.964.067-1.133.076-.83.068-.688M611.264 126.76l.396 1.031.759 1.954.27.839.472 1.3.716 2.481.144.403.151.595.076.461.026.688-.026.956.026.905M613.727 120.941l-.583-.685M613.727 120.941l-.707.04M613.144 120.256l-.124.725M611.196 121.217l.683-.084 1.14-.152M611.264 126.76l-.043-3.581-.016-.956-.01-1.006M635.321 181.475l-.581.545M635.321 181.475l-1.054-.025M634.74 182.02l-.473-.57M637.27 192.87l-.448-1.643-.354-1.199-.573-2.197-.312-1.073-.262-.981-.168-.68-.144-.695-.109-.495-.101-.629-.06-.763v-.495M617.318 185.014l6.527.109 1.493-.067 1.028-.068.675-.125.64-.126.498-.243.388-.277.59-.73.624-.872.439-.452.43-.302.523-.201.632-.1.987-.076.776-.01.7-.024M617.318 185.014l-.817-.806M617.318 185.014l-.488.594M616.501 184.208l.329 1.4M614.566 175.945l.222.851.624 2.541 1.09 4.871M632.243 149.392l-.413-1.878M635.819 163.195l-.691-2.817-1.476-5.418-.894-3.48-.515-2.088M628.536 148.792l.553.147 1.173.26.792.118.574.075h.615M628.854 147.698l.362-.041 1.232-.102.818-.025.564-.016M628.536 148.792l-.896-.238-1.063-.328" clip-path="url(#p649cfa369d)" style="fill:none;stroke:#000"/><path d="m628.854 147.698-1.147.126-.354.075-.32.085-.161.091-.295.151" clip-path="url(#p649cfa369d)" style="fill:none;stroke:#000"/><path d="m615.37 147.916 6.754.219 1.324.058.844.059.683.042h.666l.388-.009.548-.059M614.566 175.945l-.674-.289M626.948 170.037l-.017-2.557.017-.428.034-.402.151-.52.152-.47.059-.587-.042-.587-.177-.545M629.891 163.782l-.75.008-.574.017-.725.05-.717.084M627.1 172.134l-.152-2.097M613.962 169.811l1.754-.1 1.315-.05 1.577-.035.742.093.54.125.59.076 1.004.042 2.68.008 2.784.067M613.962 169.811l-.63.61M629.891 163.782l1.467.008 1.08-.059.935-.1 1.13-.193.886-.151.43-.092M615.37 147.916l-.412.01M582.679 124.184l-.44-1.668M604.104 133.124l.127.428.531 1.962.267.937M598.59 134.625l.286.193.337.26.304.394.287.47.177.36.185.31.22.177.37.176.43.092.548.009.802-.085.7-.159 1.793-.371M598.59 134.625l.775-.193 2.589-.737 2.15-.57M577.265 237.438l-2.784-.1M580.748 252.282l-.382-1.644-2.563-10.809-.538-2.391M582.765 203.127l-.645.41-.396.21-.253.084-.32.025-.237-.017-.235-.075-.279-.252-.37-.62-.41-.898-.143-.18-.074-.06-.07-.02-.164-.03-.128-.035-.163-.054-.228-.073M615.437 226.849l.439-.302.523-.545.725-.872" clip-path="url(#p649cfa369d)" style="fill:none;stroke:#000"/><path d="m615.437 226.849.574.058.405-.083.32-.16.135-.243.253-1.291M624.106 254.101l-.328.084-.414.143-.826.234-2.792.805M613.91 227.034l.364.62M592.51 272.38l.615-.31M592.51 272.38l.092-.712M592.602 271.668l.11.11.413.292M592.324 269.17l-.093.419.017.301.042.486.068.387.109.46.135.445M556.274 279.005l-5.792 1.534M575.266 129.791l-.22-1.32-.093-.848-.043-.73v-.695l.017-.437.042-.335.042-.251.077-.294.084-.294.084-.326.06-.31.083-.269.17-.277.227-.318.27-.134.514-.1 2.277-.152 3.382-.185M614.958 147.926l.386 2.204.119.889.126.864.076.839.076.653.084.529.203.477.194.613M628.854 147.698l-.042.244-.068.293-.208.557M558.224 251.3l-1.36-.109M552.53 228.406l4.765-.258.497-.008.439.059.253.083.194.185.076.318-.034.42-.16.67-.244.714-.346.93M536.897 152.637l-.506-2.264-.142-.648M280.302 311.162l.213.853M259.364 312.755l.249-.238.227-.16.25-.075.37-.03 3.635-.117 4.907-.285 5.093-.26 3.045-.193 3.162-.235M268.8 266.41l.295 1.158.489 1.719.666 2.448.675 2.516.65 2.75.48 1.551.38 1.333.607 2.692 1.206 4.788 1.147 4.545 1.189 4.67 1.555 6.432 2.163 8.15M244.757 411.52l-3.228.162-1.935.164-.464.008M238.654 422.029l.278-2.054.071-.621.026-.352.038-.508.008-.875.055-5.765M278.35 353.017l.797.473.303.361.177.318.136.32.008.385-.034.403-.186.536-.716 1.853M263.108 347.83l-.983-.092-.408.017-.33.046-.471.063-.342.1-.367.114-.645.134-.404.042-.549.025-1.353-.038-.892-.006M274.694 372.91l-1.068-4.102M271.675 371.283l.472.529.228.222.207.155.228.15.252.143.262.093 1.37.335M218.301 355.875l3.614 11.987.278.981.228.462.253.335.287.21 2.858 1.215.438.201.304.286.296.402.303.604M230.685 371.342l-1.965.44-.312.118-1.248.658M218.301 355.875l2.071-.607.404-.235.195-.327.134-.31.068-.461.345-1.308.237-.62.21-.353.338-.268.472-.168 1.02-.227M230.685 371.342l.56.612.35.407.338.285.366.29.4.276.616.39.76.348M235.753 370.294l-3.483.604-1.585.444M267.455 385.542l2.205-.927M263.158 377.664l.641.478.237.105.282.096.599.063.303.038.308.088.164.126.165.222.11.244.708 3.093.78 3.325M269.66 384.615l.852 3.145.105.704v.382l-.06.272-.138.193-.139.113-.932.508-.506.293-.126.155-.097.243.017.285.042.31.763 3.258.7 3.254M262.843 327.149l-.637-2.872-.928-4.05-.582-1.996-1.332-5.476M244.757 411.52l.271.003M241.866 442.505l.877-2.34.245-.771.135-.511.186-.78.185-.696.059-.503.067-1.283.177-3.245.447-9.525.195-5.325.318-6.006M322.781 474.241l.017-.402.042-.386.05-.47.106-.687.278-1.115M335.019 445.873l-3.261 6.174-2.48 4.678-1.256 2.457-1.686 3.22-1.063 2.247-.717 1.728-.346 1.215-.936 3.589" clip-path="url(#p649cfa369d)" style="fill:none;stroke:#000"/><path d="m325.407 474.417-1.496-1.266-.19-.226-.143-.302-.097-.33-.207-1.112M324.358 481.356l-.316-.189-.232-.2-.198-.307-.136-.407-.117-.47-.093-.427-.16-1.409-.173-2.943-.021-.201-.047-.205-.084-.357M325.407 474.417l-1.69-.289-.278-.004-.274.037-.384.08M262.8 457.455l2.306.478.768.176.784.218.987.31 4.09 1.526M268.766 478.475l1.619-9.458 1.35-8.854M262.8 457.455l.772-4.184 1.012-6.91M201.689 155.907l.83 3.145 1.165 4.21.843 3.17 1.096 3.89 1.18 4.646.524 2.75.404 2.198.523 2.079.995 4.31 1.063 4.193.708 3.22.776 3.622.877 3.64.978 3.757.843 3.186 1.518 5.5 1.063 3.925.927 3.455 1.248 5.148.979 4.143.674 2.381.708 2.725.801 3.103.97 3.597.843 3.54.928 3.252.801 3.279.666 2.893.338 1.308.607 1.962.607 2.315.801 3.345.97 3.698.37 1.384.423 1.417.876 2.667.27.813.278.964.498 2.105.624 2.457.835 2.968.565 2.373.691 2.943.304 1.51.287 1.24.287 1.09 1.854 7.162 1.822 7.614.826 3.856.658 3.807 1.35 6.272.944 4.168M262.843 327.149l-2.91.054-.527-.02-.24-.039-.169-.096-.168-.155-.157-.256-.362-1.136-.519-.88-.236-.202-.274-.113-.312-.088-.869.025-4.675.403-.355-.08-.27-.1-.354-.172-.636-.495-.253-.105-.3-.059-.223-.004-.308.042-5.021.629M282.393 275.441l.43 1.677.397 1.384.48 1.845.97 4.142 1.012 4.167.784 3.02.658 2.774 2.083 8.738 1.806 7.684M280.515 312.015l4.425-.484 6.073-.659M251.227 396.489l-1.105-3.757M250.122 392.732l-7.294 2.918M245.028 411.523l.911-1.686.228-.477.126-.47v-.403l-.084-.444-.11-.52-.632-2.449-1.139-4.267M242.828 395.65l-3.07 1.132M239.759 396.782l.404.545.232.134.38.076.459-.034 1.062-.352.338-.226.194-.294.034-.36-.034-.62M320.559 377.32l-2.525-1.401M320.559 377.32l-1.836 3.734M318.723 381.054l-5.737-3.228M318.723 381.054l.786.482M317.338 384.842l-5.45-3.225M317.338 384.842l2.17-3.306M323.26 388.668l-1.513-.857-4.41-2.97M406.474 338.73l-.206-1.372-.473-2.063-.59-1.56-.354-2.23-.624-2.323M402.445 323.997l.433.85.337.956 1.012 3.38" clip-path="url(#p649cfa369d)" style="fill:none;stroke:#000"/><path d="m398.847 329.593.363.038.341-.055 3.302-.36 1.374-.034M402.445 323.997l-.293-.576-1.028-1.157M383.795 252.39l.683 2.725.759 3.129.784 3.613.523 2.139.683 3.085.767 3.07.557 2.515.657 2.834.675 2.801.548 1.92.81 2.55.53 2.347.794 2.918.598 1.862.287 1.257.068.445.042.679.152 1.048 1.323 5.71 2.834 11.152.674 2.969 1.265 5.887.59 2.146.27.52.456.553M398.847 329.593l-.611-.499-1.362-.617-.734-.352-.392-.104-.341-.004-.747-.063-.37-.076-.502-.18-.991-.684-.321-.251-.312-.415-.274-1.044-.194-.625.009-.252.017-.251.151-.235.211-.155.413-.184.283-.281.738-.78.236-.251.312-.219.38-.125 2.491.168 2.214.125 1.973.025M327.727 287.65l1.543 6.44 1.593 6.39 2.395 11.873 1.004 4.31.497 1.945 2.378 8.805.262.536.236.176.346.034 2.563-.021.165.059.067.1.11.26 3.368 13.11.388 1.124.27.872.59 2.516 1.502 9.538M327.642 287.407l.085.243M320.888 259.954l.354 1.056.65 1.829.944 3.253.581 2.306.557 2.7.886 3.908.54 3.035.522 2.381.776 3.27.498 2.013.446 1.702M306.806 288.405l4.916-.235 2.488-.092 1.812-.117 1.94-.076 3.39-.201 6.29-.277M310.937 213.063l-.48-1.551-.65-2.038-.294-.83-.195-.62-.16-.747-.362-1.652-.59-2.306-.406-1.467-.438-1.2-.674-2.196-.557-2.315-.616-2.238-.38-1.644-.328-1.686" clip-path="url(#p649cfa369d)" style="fill:none;stroke:#000"/><path d="m322.754 189.488-7.027.398-5.49.318-3.444.201-1.986.168M284.03 191.169l.088-.147.152-.13.219-.088 6.725-.071 4.03-.05h5.27l2.26-.017 2.033-.093M301.417 176.704l.481 1.425.75 2.423.396 1.661.355 1.77.59 2.817.607 2.465.21 1.308M327.384 175.397l.19 1.047.726 3.404 1.13 4.663 1.096 4.629M335.628 210.43l-.261-1.132-.574-2.683-1.113-4.462-1.568-6.355-1.586-6.658M322.754 189.488l2.755-.156 5.017-.192M322.9 356.534l-8.328.095M316.887 330.407l.417 1.702 2.294 10.783 3.302 13.642M298.517 416.579l.37-2.49 1.484-10.44" clip-path="url(#p649cfa369d)" style="fill:none;stroke:#000"/><path d="m298.517 416.579-2.674-.562-.506-.084-.345-.251-.076-.243-.009-.302.228-1.183.21-1.467.203-2.247.135-.352.342-.613.442-1.006.169-.822.236-1.34.345-.546.583-.545 1.332-.772 1.24-.595M295.886 432.458l1.348-8.484 1.283-7.395M307.551 380.507l.953 4.29M400.893 415.464l.214-.583.164-.314M403.759 408.366l-.738.373-.51.314-.147.164-.153.302-.54 2.758-.4 2.29M406.453 352.803l-.151.662-.153.462-.168.486-.236.947M351.827 469.37l.877-1.258.531-.822.877-1.71 1.467-2.977M369.535 471.013l-4.199-.98-.75-.143-1.126-.172-.426-.076-.215-.084-.19-.134-.11-.193-.029-.243.3-3.63-.026-.223-.067-.184-.11-.143-.202-.155-6.806-2.05M456.349 337.542l.852 2.767.34 1.497.566 2.154.059.429-.089.431-.143.36-.196.207-.268.18-.691.058-1.13.11-.21.142-.094.201-.004.36.932 4.704.21 1.035M438.27 379.652l1.003-.478.81-.185 1.079-.226 1.273-.335 2.116-.697.886-.251.894-.143 3.516-.276 3.373-.177 3.123-.343M338.429 430.409l2.036 1.405M332.196 436.954l.91-1.182.414-.15h.48l1.574.053.315-.13.165-.138.565-1.136.14-.327.037-.285.072-.742.139-.423.29-.437.717-1.106.415-.542M389.257 436.765l-.141 2.092-.203 1.443-.185 1.542-.11 2.08-.042.864-.143 1.911-1.273 11.99-.574 5.518-.86 7.495-.27 4.11-.759 8.97-.877 7.279M393.863 496.268h-1.644l-.624-.05-.64-.05-2.008-.302-.556-.11-.405-.15-.396-.286-1.097-1.04-.447-.36-1.079-.788-.43-.36-.717-.713M360.766 489.241l5.388 1.116 1.88.453.54.091.616.076.488.034 4.192.05.666.017.674.067 8.61.914M394.686 495.715l1.083-2.994.194-.679.084-.587.05-.545-.041-2.876-.06-4.025.068-1.391.354-5.593.186-3.513.092-.763.144-.327.236-.202.371-.108.396-.01.422.043 3.255.721.363.008.261-.058.19-.1.152-.19.172-.289.498-1.24.337-.898.49-1.45 1.458-4.486 1.274-3.723.417-1.174.177-.738.13-.528.077-.797.033-1.04.017-2.104.052-.572M434.418 351.403l11.194-20.029M400.584 212.484l.675 2.617.978 3.823 1.197 4.612.692 2.675.817 3.313.87 3.253.539 2.247.801 3.128 1.223 4.788.64 2.616.582 2.616.557 2.508.38 1.576.632 2.465.531 2.525.473 2.18.489 2.423.75 3.547.632 3.329.354 1.467.751 3.38.869 4.226.767 3.488.624 2.658.455 2.407.532 2.239.725 2.976 1.821 7.74.254.775.362 1.262.32 1.937.346 1.61 3.019 11.538 2.513 10.297 2.749 10.13 1.315 5.651 1.164 4.21 1.231 4.058.205.629M422.045 370.076l-.19.314-.122.222-.173.18-.51.131-1.042-.135-.97-.003-.1.05-.135.138-.043.126.026.293.08.923-.038.205-.038.1-.101.133-.133.094-.158.088-.439.046-5.097-.23M318.034 375.919l.231-1.038.11-.588.008-.435-.961-3.799-1.417-5.634-1.4-7.06-.033-.736M318.034 375.919l-2.485-1.37M316.16 326.572l.727 3.835M306.806 288.405l.893 3.748 1.544 6.163.834 3.606.953 3.522 2.935 11.873 2.196 9.255M313.021 327.798l.952-.193.987-.176.59-.23.207-.172.404-.455" clip-path="url(#p649cfa369d)" style="fill:none;stroke:#000"/><path d="m316.887 330.407-.464-.374-.25-.126-.412-.163-.633-.235-.767-.486-1.029-.906-.31-.32M309.496 326.314l.347.309.466.125.713.112.776.184 1.003.528.22.226M354.905 292.887l.65 2.847 4.62 18.615 1.885 8.215M342.788 320.47l2.698.495 5.439.737 1.358.214.522.135.413.104.76.084 4.317.293 3.765.032M398.847 329.593l-.152.46-.194.194-.666.251-.683.286-.329.242-.16.294-.059.226.253 1.09.927 3.867.203.594.413.47.169.118.902.2 3.93.479 3.073.366M393.467 330.398l-1.872.452-.776.302-.22.47-.033.537.894 4.176 1.973 7.512 2.445 10.464M450.146 322.22l-1.429 2.878-3.105 6.276M441.92 315.07l.27 2.33.793 3.824 1.838 6.34.355 1.618.436 2.192M416.5 209.08l.068.57.409 1.728.59 1.534.169.529.228 1.257.37 1.543.692 2.348.472 2.004.641 2.633.742 3.07.422 1.81.801 3.614.329 1.569.27 1.442.447 2.28.413 2.08.59 2.801.228 1.283.379 1.509.633 2.6.354 1.668.135 1.048.143 1.065.169.772.59 2.49.683 2.784.363 1.216.447 1.56.54 1.987.269 1.073.675 2.734.236 1.115.118.755.127.746.27 1.158.792 3.345.7 3.078.674 2.532.43 1.375.397 1.166.21.771.136.704.32 1.694.514 2.314.44 1.795.927 3.161.139.734.177 1.224.19.868.354 1.166.624 2.565 1.096 4.83 1.889 7.497.54 1.945.573 1.811.287 1.04M449.02 320.234l-.185-.011-.514-.122-.177-.143-.05-.167-.01-.352-.172-.738-.443-.956-.43-.948-.202-.62-.089-.587-.113-.68-.026-.113-.021-.054-.089-.063h-.177l-.455.071-1.425.184-2.521.135M416.5 209.08l.043-.168.084-.138.143-.126.176-.1.23-.043M416.123 207.753l.411.312.641.44M312.986 377.826l1-1.386.835-1.492.236-.198.492-.2M400.893 415.464l3.064.243 4.545.629.616.352.658.62.345.42M399.409 432.025l.804-11.12.607-5.19.073-.251M440.402 352.93l1.063 6.27.312 1.669.32.587.296.285.396.176.27.06 1.475.024.447-.008M393.337 431.965l-2.307 3.537M390.858 430.333l1.175.844 1.304.788M390.858 430.333l1.15-2.065.253-.143.43.092 6.519 3.697.199.111M402.445 323.997l3.519-.249 3.997-.083 1.139.066M330.383 360.475l4.022.99.79.25M308.504 384.797l.553-1.565.32-.394.574-.47.329-.167.784-.286.825-.298M300.47 393.027l1.504-.807.894-.435 1.441-.99 1.147-.763.428-.29M339.371 428.478l.55 1.726.544 1.61M451.816 318.86l-1.67 3.36M449.02 320.234l.84-.502 1.644-.704.312-.168" clip-path="url(#p649cfa369d)" style="fill:none;stroke:#000"/><path d="m450.146 322.22-.61-1.31-.216-.407-.3-.27M335.019 445.873l5.154 1.553.865.416.383.36.181.273.064.222.017 1.06M350.549 273.841l.35 1.5 1.164 5.333.818 3.48M354.905 292.887l-.253-1.111-1.02-4.662-.75-2.96" clip-path="url(#p649cfa369d)" style="fill:none;stroke:#000"/><path d="m342.526 285.461 2.521-.301 6.333-.847 1.501-.16M335.628 210.43l.7 2.76 1.19 4.745.496 2.415.76 3.32M341.249 234.379l-.579-2.122-.809-3.455-1.088-5.131M327.254 231.078l-.1-1.99-.085-2.591.025-1.057.093-.411.135-.206.203-.154.21-.063.869-.034 1.977-.147 1.86-.16 2.217-.209 2.05-.2 2.065-.185" clip-path="url(#p649cfa369d)" style="fill:none;stroke:#000"/><path d="m313.109 212.434.544.243.607.49.257.106.346.02 1.943-.146 3.416-.302 2.462-.193 1.788-.07.944-.14.33-.104.437-.218 1.172-.952.84-.658.316-.189.232-.05.577-.03 1.898.114 4.41.075M416.5 209.08l-.377-1.327M431.043 136.043l.362 1.543.607 2.28.447 1.853.76 3.237.227.512.362.52.582.511.59.37.785.284 1.029.126 1.412-.067.556.076.152.075.11.121.126.298.296.83.72 2.097.119.612.135.67.329 1.36.573 1.978.565 1.92.181.55.198.436.258.377.35.243.564.223.692.025 1.51.016M222.84 167.283l.39 1.538.32 1.443.38 1.551.928 3.405.548 2.675.447 1.794.885 3.162.515 2.07.936 3.749M239.252 188.54l-1.315.038-4.031.193-3.28.05-1.56-.008-.877-.143M218.036 148.567l.388 1.521.557 2.449.648 2.364.717 2.851" clip-path="url(#p649cfa369d)" style="fill:none;stroke:#000"/><path d="m218.036 148.567 3.28-.09 2.83-.032.17.017.11.037.073.055.156.385.574 1.77.16.578.245 1.736.118.94.118.528.244.67.397.931.307 1.179-.03.138-.084.109-.155.063-.915.012-2.724-.017-2.564.176M222.345 165.492l-.27-.922-.354-1.283-.405-1.45-.38-1.678-.59-2.407M268.8 266.41l1.965.118 2.487.034 3.719.142 2.61.046.41.025.263.08.164.113.105.191.276 1.046.515 2.239.607 2.658.472 2.34M279.349 244.039l1.02 4.36.557 2.415.49 1.853 1.129 5.031 1.07 5.006 1.232 5.098.911 3.958.447 1.933.097.57.004.399-.11.251-.19.206-.37.134-.814.088-2.429.1M251.994 215l.759 2.85.151.47.203.302.32.227.448.176.623.034 2.075-.135.425.16.22.176.185.285.312.7.83 3.895.692 3.338.742 3.404.81 3.304.624 2.222.852 2.725.877 3.145.582 2.524.497 2.322.683 2.76.742 2.85.743 3.211.59 2.458.64 2.767.405 1.911.32 1.418.456 1.912M246.171 188.435l.274 1.77.253 1.375.371 1.618.346 1.845.413 2.197.169.922.354 1.275.464 1.82.329 1.643.362 1.71.49 2.198.244 1.316.244 1.14.388 1.702.32 1.477.347 1.14.455 1.417" clip-path="url(#p649cfa369d)" style="fill:none;stroke:#000"/><path d="m245.704 215.397 1.55-.07 4.74-.327M243.848 178.65l.421 1.718.313 1.116.27 1.056.42 1.945.347 1.661.337 1.426.215.863" clip-path="url(#p649cfa369d)" style="fill:none;stroke:#000"/><path d="m239.252 188.54 1.535-.046 3.196-.076 1.02.017h1.168M263.791 178.733l-4.284-.034-5.456-.008-6.433-.075-3.77.033M334.026 286.678l-3.44.52-2.859.452M318.089 246.27l.96 4.158.667 2.851.37 1.61.296 1.988.169 1.274.168.973.169.83" clip-path="url(#p649cfa369d)" style="fill:none;stroke:#000"/><path d="m299.748 258.847 1.416-.059 2.361.11 4.216.234 2.927.185 3.474.109 2.47.159 1.788.117 2.488.252M314.719 232.134l.418 1.993 1.189 5.45.447 1.686.658 2.373.658 2.633" clip-path="url(#p649cfa369d)" style="fill:none;stroke:#000"/><path d="m323.646 245.95-2.16.034-.935.034-2.462.251M314.719 232.134l-.274-1.303-.742-3.144-.725-3.362-.852-3.84-.472-2.383M310.937 213.063l.195.813.126 1.183.304 2.415.092.628" clip-path="url(#p649cfa369d)" style="fill:none;stroke:#000"/><path d="m290.117 217.78 1.147-.008 2.67.025 3.3.117 5.094.08 9.326.108M313.109 212.434l-.38-.054-.375.033-.695.247-.722.403M299.748 258.847l.581 2.08.48 1.685.49 2.18.472 2.248.447 1.895 1.358 5.517 1.416 6.222 1.172 4.762.321 1.493.32 1.476M296.357 244.852l.92 3.958.573 2.449.531 2.154.616 2.365.75 3.07M290.117 217.78l.447 2.268.582 2.759.844 3.497 1.037 4.368.961 3.808.497 2.414.422 1.795.515 2.188.935 3.975M279.349 244.039l2.943-.11 1.906-.033.645.063.498.067.792.034 3.403.012 1.99.017.936.076 1.273.117.97.184 1.652.386" clip-path="url(#p649cfa369d)" style="fill:none;stroke:#000"/><path d="m289.075 213.207.343 1.433.7 3.14M284.03 191.169l-.014.193.232 1.157.456 2.163.792 3.413.869 4.193.717 2.972M289.075 213.207l-.273-1.141-.49-2.357-.758-2.667-.472-1.782M276.84 204.242l.093.176.084.285.089.511.11.382.16.264.165.121.29.101.35.063h.599l.637-.088.952-.067 2.143-.176 1.91-.235 1.096-.118 1.564-.2M282.832 187.026l.472 1.594.43 1.425.296 1.124M154.372 147.265l-.618-.288-.48-.142-.869-.067-1.51.033M201.689 155.907h-.35l-1.256-.104-.7-.105-1.067-.18-1.315-.264-1.425-.357-1.337-.348-.4-.092-.574-.013-1.391.088-2.475.101-2.015.11-1.278.062-.308-.03-.177-.037-.156-.1-.329-.32-.661-.704-.304-.196-.464-.198-1.294-.322-.557-.164-.236-.147-.25-.256-.383-.536-.29-.252-.49-.256-1.07-.478-1.164-.251-1.366-.151h-1.324M282.777 163.14l1.26-.088 1.122-.067 2.783-.067 3.01-.067 4.445-.025 3.33-.075M324.062 160.987l-4.447.38-8.66.587-4.487.293-4.418.336-3.323.168" clip-path="url(#p649cfa369d)" style="fill:none;stroke:#000"/><path d="m288.81 121.09.743 2.961.564 2.273.523 2.213.574 2.524.556 2.356.734 3.137.515 2.583.472 2.146.472 1.82.565 2.34.405 1.81.404 1.418.532 1.912.227 1.023.683 3.32.49 2.5.657 2.423.418 1.342.218.755.165.805M301.417 176.704l-.54-1.828-.1-.57-.043-.596-.084-1.383-.05-.528-.17-.99-.463-2.164-.641-2.9-.599-2.994M277.292 163.601l.455-.285.329-.113.4-.05 2.273.042 2.028-.055M292.23 176.679l-.877-.587-.485-.465-.338-.353-.206-.323-.24-.578-.637-1.967-.257-.616-.177-.277-.33-.251-.944-.486-1.247-.739-.667-.545-.759-.712-.447-.587-.32-.671-.312-.965-.557-1.92-.303-.797-.35-.7M265.562 186.506l-.658-2.607-.421-1.703-.304-1.383-.118-.822-.27-1.258" clip-path="url(#p649cfa369d)" style="fill:none;stroke:#000"/><path d="m267.292 164.397-1.03-.058-.624.026-1.274.12-2.175.261-.616.16-.29.192-.3.352-.186.478-.042.286.894 3.765 1.198 4.763.506 1.962.438 2.03M279.349 244.039l-.38-1.41-.185-1.005-.168-.906-.346-1.543-.843-3.388-.658-2.884-.607-2.415-.608-2.717-1.07-4.125-.953-3.85-.49-2.507-.724-2.96-.709-2.758-.21-1.007-.127-.813-.313-1.124-.42-1.702-.76-2.927-.607-2.582-.658-2.885-.624-2.44-.244-.948-.32-1.14-.195-.93-.852-3.565-.716-3.002M282.832 187.026l-1.299.294-2.496.445-1.383.301-.489.05-.476-.046-.41-.138-.53-.41-1.097-.898-1.012-.663-.995-.402-.868-.05-1.855.31-2.075.36-2.285.327M267.292 164.397l.467.026 1.147.084.564.092 1.134.277 1.084.21 1.062.054.895-.02 1.298-.08.514-.16.468-.23 1.367-1.049" clip-path="url(#p649cfa369d)" style="fill:none;stroke:#000"/><path d="m280.355 176.955-.34-1.358-.75-3.287-.523-2.415-.523-2.28-.49-1.804-.252-.78-.11-.52-.075-.91M316.716 130.22l.664 2.795.472 2.24.818 3.437.784 3.539.717 2.684.768 2.792.902 3.798 1.5 6.39.72 3.092M327.384 175.397l-.416-2.29-.945-3.858-1.518-6.356-.443-1.906M154.372 147.265l1.55 5.079 1.585 4.864.843 2.85 1.737 5.753 1.633 5.64M222.345 165.492l.303 1.04.191.751M223.783 166.318l-.376.264-.278.286-.29.415M223.783 166.318l-.447-.066-.278-.151-.713-.609M328.081 241.079l.27-.646.506-1.099.556-.955.144-.395.059-.427-.06-.797-.11-.562-.412-1.425-.371-1.308-.06-.462.026-.511.065-.952-.078-.211-.124-.13-.169-.09-.314-.05-.755.019M314.719 232.134l2.518-.27 2.074-.202 2.665-.235 4.123-.318 1.155-.031M313.109 212.434l.48-.272.119-.198.016-.146v-.285l-.1-1.036-.072-.972.046-.684.038-.134.088-.114.173-.113.194-.063.915-.117 2.154-.16 3.5-.259 1.914-.135 1.265-.192M288.81 121.09l-2.1.16-2.563.143-1.518.16-2.26.083-2.45.13-.758.122-.346.108-.4.223-.464.272M334.026 286.678l3.921-.554 4.579-.663M350.549 273.841l-1.454.125-1.548.188-.274-.008-.46-.096-1.066-.215-.658-.046-1.277.076-.704.075-.232.074-.124.082-.072.132-.026.19.125.982.194 2.087-.042.764-.051 1.073-.135 2.6-.135 2.213-.084 1.324" clip-path="url(#p649cfa369d)" style="fill:none;stroke:#000"/><path d="m348.65 265.208-1.069.246-.847.198-.7.117-1.332.071-1.367.143-1.045.235-.325.18-.16.172-.118.264-.055.575-.067.918-.11.347-.16.29-.22.213-.19.08-.294.042-1.59-.03-1.822.051-1.142.113-.287.118-.244.15-.152.177-.253.47-.679 1.572-.236.272-.173.139-.27.075-1.657.092-.78.067-.21.086-.083.084-.036.14.02.162.347 1.373.439 2.113.666 2.817.666 2.885.556 2.574.355 1.879M301.417 176.704l-.578-.151-.53-.042h-.739l-3.828.134-3.512.034M280.355 176.955l2.165-.092 2.715-.117 2.749-.025 2.058.008 2.188-.05" clip-path="url(#p649cfa369d)" style="fill:none;stroke:#000"/><path d="m282.832 187.026-.675-2.532-.691-2.75-.7-3.145-.411-1.644M239.252 188.54l-.244.444-.173.415-.106.688-.025 1.048.009.436.046.319.177.319.839.52.439.268.168.243.228.528.37 1.702.498 2.474.574 2.382.514 2.272.565 2.298.49 2.188.716 2.927.59 2.44.777 2.946M368.92 275.617l-2.32.269-3.566.352-3.651.344-.447.159-.198.168-.114.23-.038.27.13 1.101.481 2.29.632 2.808.684 2.75.564 2.173.801 3.069.25 1.019-.01.272-.121.16-.181.134-.275.046-.582.004-2.411-.118-3.643-.23M374.174 253.053l.59.08.29.004.468-.03 1.455-.117.995-.072 2.011-.217 3.812-.31M366.618 180.62l.21.822.574 2.322.54 2.49.64 3.33.186.78.573 2.096.742 3.077.92 3.9.91 4.041.962 3.908 1.012 4.293.927 3.992.894 3.64 1.012 4.024.64 3.052.81 3.287.464 2.365.329 1.124.371 1.166.22.805.37 1.777.624 2.39.726 2.843.497 2.146.531 2.214.675 2.7.818 3.186M374.174 253.053l.438.721.944 3.673.81 3.32M355.028 235.135l.855-.152 2.454-.269.624-.008.198.033.11.088.075.11.262.833.51 2.021.249.659.173.188.185.122.178.042.324.004 2.39-.427.57-.072.135.038.114.08.088.16.333 1.068.641 2.55 1.223 5.122.598 2.491.65 2.13.265.54.19.215.228.146.227.088.308.03 1.143-.13 2.108-.269.776.059.413.101.549.327M355.028 235.135l-.275.049-.59.088-.903.063M341.249 234.379l1.572.084 3.305.369 2.59.276 1.703.067 2.841.16M353.379 238.102l.135-1.354.004-.63-.08-.373-.178-.41M348.65 265.208l-.534-2.344-.935-3.84-.852-3.246-.438-1.585-.692-2.968-1.316-5.987-1.028-4.428-1.071-4.47-.535-1.961M348.65 265.208l.394 1.731 1.113 5.232.392 1.67M316.716 130.22l-.204-.86-.405-1.783M307.084 128.428l5.11-.486 3.913-.365M441.697 179.521l-.4-2.012-.17-.931-.075-.478-.009-.721.119-1.241M406.757 170.314l1.21-.322 1.214-.252.535-.055.418.017.405.113.375.218.7.755.135.34.236 1.19.282.994.203.302.232.163.316.105.413.034 1.328-.193 3.618-.55.59-.05.49.059.378.15.502.37.823.973.53.545.431.343 1.231.58 2.235.754 1.442.352 1.062.201 2.05.361 2.706.402 3.28.47 4.36.629 1.029.167.181.042M409.489 182.004l-.523-2.323-1.029-4.31-.775-3.438-.405-1.619M405.473 165.416l.187.697.54 1.996.354 1.391.203.814M393.265 184.008l.387.088.312-.005.481-.096 2.893-.449 2.69-.436 3.28-.452 3.027-.395 1.889-.142 1.265-.117M413.983 199.286l-.65-2.432-.741-3.086-1.13-3.957-.877-3.305-.76-3.035-.336-1.467M400.584 212.484l-.553-2.316M400.584 212.484l-6.122.822M399.39 207.899l-.324-1.091-.464-1.82-.792-3.086-.768-2.884-.843-3.396-.776-2.986-.876-3.312-.886-3.74-.396-1.576M366.618 180.62l1.336-.076 3.293-.335 2.927-.251 4.772-.429 4.284-.443 3.98-.412 4.094-.423.213.004.11.034.073.063.057.109.285 1.068.565 2.206.658 2.273M416.123 207.753l-.322-1.118M413.983 199.286l.616 2.532.556 2.18.646 2.637" clip-path="url(#p649cfa369d)" style="fill:none;stroke:#000"/><path d="m400.69 208.585.737-.083 3.264-.327 2.968-.223 1.333-.168.813-.201 1.194-.47.463-.13.236-.007.65.033.683.075.717-.046.564-.08.907-.18.582-.143M435.47 199.78l-1.69.206-.688.017-.232-.059-.203-.113-.506-.436-.252-.185-.207-.092-.232-.037-2.45.054-2.808.009-3.685.1-4.022-.034-3.845.05-.667.026M355.765 173.576l2.167-.15 1.501-.11 2.614-.16 1.577.018.721.079.48.18.258.24.19.285.135.415.105 1.14.085 1.97.126.756.329.855.282.608.283.918" clip-path="url(#p649cfa369d)" style="fill:none;stroke:#000"/><path d="m346.599 133.87.75 2.633.523 2.357.287 1.534.127 1.14.1.722.254 1.006.42 1.535.355 1.375.607 2.935.574 2.717.439 1.778.48 2.306.38 1.517.404 1.36.422 1.676.346 1.727.455 2.172.329 1.619.354 1.148.49 1.77.547 2.13.236 1.124.287 1.425M341.244 178.327l.156.146.085.055.206.075.92.03 2.6.058.338-.054.186-.105.092-.11.068-.163v-.213l-.464-1.694-.135-.667.021-.365.114-.226.185-.15.258-.064 3.39.147 3.271.268 2.125.063.338-.072.193-.113.212-.239.21-.545.152-.813M316.716 130.22l1.511-.064 1.738-.118 1.488-.142.961-.076.22.009.13.075.097.147.768 1.463.556.763.438.37.254.066.244.034.342-.03 2.525-.448.99-.054.36.033.353.155.376.323.236.348.27.591.257 1.094.194.361.177.172.43.218.418.1.754-.008 2.395-.096h1.459l.767-.026.793-.083 1.77-.327 1.62-.377 1.172-.21 1.602-.219 2.218-.393M296.581 213.117l-.417.089-.608.025-1.998-.042-4.483.018M320.576 185.315l.91 1.829 1.268 2.344M405.473 165.416l-.52-1.936-.86-3.622-.711-3.044M398.714 137.625l.538 2.241.978 4.16 1.062 4.444 1.046 4.478.523 1.56.354 1.593.167.713M395.019 157.66l.346-.386.201-.146.25-.105.421-.063 2.517-.331 2.268-.235h.19l.203.059.704.23.54.11.274.029.449-.008M341.244 178.327l.055.759.359 1.76.809 3.245.868 3.497.852 3.33.826 3.84.878 3.79 1.045 4.21 1.147 4.377.38 1.417.43 1.803.927 4.008.784 3.505.49 1.878.657 2.398.405 1.518.354 1.602.489 2.314.607 2.524.784 2.767.638 2.266M341.244 178.327l-.32-1.355-.177-.6-.16-.234-.27-.134-.359-.047-3.293-.066-3.162-.126-4.764-.286-1.355-.082M399.39 207.899l.401 1.349.24.92M400.69 208.585l-.25.386-.185.41-.224.787M400.69 208.585l-.308-.08-.334-.154-.657-.452M431.043 136.043l-3.28-.126-3.273-.1-2.571.024-1.72.017-1.383.1-.87.143-.902.143-1.55.134-2.598.142-3.34.219-2.98.184-2.231.168-2.167.197-2.108.088-.599.071-.757.178M267.292 164.397l-.136 1.221.017.512.076.687.193 1.006.076.654v.864M414.034 165.056l-2.605.143-2.539.218-1.863.042-1.554-.043M338.04 513.859l-.599 3.295-.455 2.926-.118.889-.127 1.878-.126 1.325M244.11 593.294l1.306-.654.44-.143.425-.05.485.009.708.075 5.684 1.015 1.13.16.362-.01.244-.075.388-.201.304-.31.262-.411.227-.654.675-2.985.362-1.308.287-.612.48-.68.464-.46.515-.403 1.206-.704 3.07-1.619 2.824-1.492 3.381-1.844 4.36-2.533 4.31-2.624 2.175-1.324 4.773-2.7 2.563-1.45 3.07-1.736.64-.319.667-.21 5.548-1.266 8.695-2.046.564-.251.363-.302.32-.352.33-.528 2.942-5.341 5.22-8.989 2.462-4.133.734-1.14.404-.545.524-.57 1.51-1.25 2.925-2.725 2.783-2.557 2.184-2.03 2.412-2.481 1.349-1.476 1.4-1.626.691-.864.422-.738.522-.863.414-.797" clip-path="url(#p649cfa369d)" style="fill:none;stroke:#000"/><path d="m345.764 529.462-1.07.168-.44.034-.43-.034-.877-.159-.37-.084-.439-.134-1.324-.604-.447-.251-1.336-1.044-.215-.26-.194-.306-.557-1.19-.169-.26-.21-.236-1.071-.93M356.347 514.354l-2.353.218-.624-.008-.7-.043-1.315-.218-.658-.134-.624-.142-2.214-.785-.227-.028-.228.033-.173.1-.134.185-1.105 2.52-.118.138-.165.075-.215.017-.261-.033-4.25-1.434-2.943-.956M351.827 469.37l-1.324 1.417-1.012 1.207-.716 1.023-.481.922-.371.931-.337.956-.59 2.717-.28.98-.378.789-1.266 2.327M337.078 477.99l3.221 2.003 2.602 1.627.306.157.305.161 1.56.7M360.766 489.241l-2.193-.847-3.938-1.383-.38-.176-.236-.226-.151-.235-.084-.411.185-4.418.084-1.023.169-1.107.75-3.262.16-.654.085-.68.219-2.817-.025-.377-.093-.302-.144-.251-.303-.243-3.044-1.46M358.914 513.385l-.042-.39-.017-.318.325-5.19.287-3.505.253-3.455.506-6.389.54-4.897M393.863 496.268l.823-.553M393.863 496.268l.472.46M325.407 474.417l1.03.788.198.265.134.305.064.395-.034.402-.143.486-1.215 2.382-1.083 1.916M356.347 514.354l-.185.394-.464 1.132-.152.537-.127.536-.228 1.048-.105.26-.156.21-.202.154-.772.298-.16.095-.12.107-.097.142-.057.188-.042.298-.237 3.991-.143 6.339M358.914 513.385l-1.538-.042-.22.05-.177.105-.139.134-.493.722M377.26 516.559v.939l.03.31.075.285 1.227 3.245 1.729 4.264.02.251-.046.222-.084.189-.16.18-1.299 1.015-.362.251-1.24.638" clip-path="url(#p649cfa369d)" style="fill:none;stroke:#000"/><path d="m394.335 496.729-.32.872-2.504 6.029-.211.696-.253.998-.186.896-.303 1.074-1.307 3.899-1.645 5.156-.11.24-.13.15-.177.084-.22.034-1.386-.097-6.755-.222-.767-.005-.801.026" clip-path="url(#p649cfa369d)" style="fill:none;stroke:#000"/><path d="m373.136 516.91.557-.024 3.567-.327M358.914 513.385l4.946 1.363 1.855.478.498.184.422.226.835.579.447.202.522.116.953.135 3.12.235.624.008" clip-path="url(#p649cfa369d)" style="fill:none;stroke:#000"/><path d="m358.914 513.385.072 1.958-.017.67-.033.596-.481 2.549-.666 3.145-.186.704-.185.612-.911 3.018-.11.512-.034.427.051.47.169.561.556.847.38.394.362.252.6.243.42.084.414.025.456-.058 1.264-.236.44-.008.454.076 3.55 1.081 1.173.26 4.08.922.25-.003.223-.034.194-.126.135-.134.135-.176.464-.994.227-.687.726-2.222.143-.512.05-.36.026-.42-.076-5.038-.093-4.872M394.335 496.729l.35-1.014M244.11 593.294l-.852-.679-1.872-1.409-2.108-1.458-2.606-1.66-1.29-.839-.928-.46-1.24-.596-1.67-1.006-1.112-.83-1.248-.873M613.741 375.884l.777-2.052 2.505-7.392M187.112 393.063l-14.443-43.447" clip-path="url(#p649cfa369d)" style="fill:none;stroke:#000"/></g><g id="PatchCollection_1"><path d="m376.242 437.802-5.131-.776-4.183 2.828-1.618 6.1.446 2.219 1.785-.11.223 1.274-.836 1.387.056 2.717-3.124 1.442-.557 2.052 1.394 1.775 2.063 1.774 2.398-.11 1.562-.888 2.343-.832 4.74-2.107 1.395.055 1.394-1.719-.893-1.054-1.394-2.773 2.9-7.153-2.286-1.72-.502-1.663-1.283-.832zM438.05 634.333l5.158-1.465-1.842-1.588 1.596-2.685.123-3.297-2.21 2.442-.369 1.099-2.21-2.564-3.806-5.617-.491-4.639.245-2.564-1.473-4.273-.983 5.006-2.333-2.564-2.456-8.546-.86 10.133 2.334 3.907 3.07 4.396-.983 1.22 1.597.855.245 3.174-1.842 1.587.86 2.198.368 1.71 2.21-.367 2.457 1.465zM531.227 650.54l4.405 1.897 2.643-4.307 1.395-1.387.808-1.679 3.157-.875 1.615-.877.22-6.35 1.616-4.454.293-1.824-2.349 3.066-1.469 4.671.22 4.088-1.614.584-1.836-.657-2.496.438-2.57 2.336-.734-2.19-.073-3.139 1.174-5.328 1.836-2.118-2.644.439-2.129-2.92.22 4.453-.073 4.16-1.982 2.702-2.35-2.993.808-2.92-1.395 2.847.588 2.336 2.643 2.92.808 2.189-.441 1.46-1.175.803.147 1.825zM331.564 684.822l2.828-.308 3.216-2.388-1.937-.925-4.417.693-1.86 1.04-1.511.348zM100.982 516.728l4.345-2.49 1.994-1.322 5.317-.305 1.841-3-6.698-2.999-6.39 5.897-4.908-1.22-4.5 2.846-3.425-1.22.205 2.44 1.431 3.05 4.09-2.44.614 1.83 4.345-1.83zM112.063 504.999l2.557 1.926 3.177.616.62-3.775-5.812-1.31zM537.657 619.557l2.643-.35-1.762-4.672.646-2.277-.998.584-5.227-7.007 2.231 5.372-.94.409 1.645.526.587 1.868-.704.234 1.174 1.109.235 1.694-.47.759.411.934zM76.42 678.217l-.562 1.22-1.534.508-.869-.66 1.38-.865.972-.483z" clip-path="url(#p649cfa369d)" style="fill:#00f;fill-opacity:.8"/></g><g id="PatchCollection_2"><path d="m-962.715 683.465 52.35-3.22 26.444 17.17-9.715 8.587-22.667-4.293 3.778 15.56 21.048-4.292 19.43 11.805-.541 20.39-18.89 20.926-6.475 14.488 14.571 16.097 3.239 11.805 57.206-4.829 22.667-12.878 19.428-15.024 23.207 17.707-3.778 24.682-2.698 29.511 16.73 28.975-7.016 36.153-4.857 27.9 15.11 21.999 28.064 2.682 26.985 12.039 12.413 12.098 25.904 3.755 10.254 33.802 42.096 32.48 6.476 18.511-9.715 25.217 28.604-3.22 16.19 7.512 41.016-34.874 23.196-19.315 21.588-9.658 28.603-13.95 43.45 33.802 1.62-68.14 9.714-18.78 27.524 20.39 22.127 6.438-15.984-50.972-1.079-29.51-19.969-52.046-16.73-35.412-7.015-42.926v-48.829l-17.81-11.805 30.222-33.546 14.572-31.885 16.73-2.683v33.268l10.794 17.707-14.571 19.318-14.572 31.12 10.793 1.61 11.873-28.438 21.048-11.804 14.303-21.464 14.032-13.952 42.616-22.536 23.207-6.976 22.126-13.415 17.726 17.945 19.968 16.634 30.223 18.245 27.524 6.438 32.92-25.22 23.207-19.317 34.924 20.391 13.492 16.097-6.476 15.025 12.953 2.147 5.936-22H11.9l-1.079-28.44 11.333-13.952 22.667-48.83 29.683-44.538 8.635-16.937-22.667-14.215-42.095-24.685L29.17 488.06l18.35.952 2.698-13.952-9.175-28.44-25.905 11.268 20.509 1.61 1.619 13.415-18.89 3.757-29.143 2.146 3.779 30.051-18.35-13.415-15.111 24.147 32.381 6.977-14.571 19.318-12.413-5.366-5.397 21.464-27.524 7.512-42.635 29.514-34.54 9.122-5.396-27.367 7.015-18.781-41.556-14.489-15.11 12.879-18.35-8.585-27.523 5.902 17.269 5.366 5.937 7.513 16.19.537 2.159 18.244-15.11 10.732-20.51-7.513-28.063-2.146-26.984-14.488-24.286 15.025-36.159 15.024-49.111 1.61-8.635-16.634-36.159-24.148-43.175-4.83-26.984 18.246-32.38 53.66 21.03 22.537-18.349 19.317-16.19 1.074 6.476 30.585 12.413 20.927-6.476 24.146-17.27 32.73-10.794 12.879 1.08 13.95-3.779 32.516 17.81 17.707 12.953 62.24-8.635 24.145-24.286 1.61-19.969-20.39-30.762-20.925-15.65-12.34-9.628-39.706 15.651-18.78-20.508-62.778 16.73-34.341 19.428-2.683 7.557-22-5.397-15.561-17.81-17.17-8.635-32.733 24.285-30.586-12.952-16.635-23.33-13.835-15.651-17.707-11.333-6.977-19.43 18.782-31.3 58.49-8.096 20.39-17.27 25.757-22.667 16.097-15.65-19.853-7.557-42.391-12.952-16.098-15.65-24.684-11.334 20.391-17.81 23.074-19.428 12.878-35.08 8.049-29.664 10.732zM142.841 265.956l9.006 29.629-24.745 2.643 11.862 39.145-28.145 7.69 11.584 42.927-11.86-2.237-49.412-16.94-21.184-71.138z" clip-path="url(#p649cfa369d)" style="fill:#006400;fill-opacity:.8"/></g><g id="PatchCollection_3"><path d="m350.786 410.883 2.462 1.576-.606.956-2.48-1.492zM397.274 439.824l7.855 4.906-.705.992-7.855-4.89zM376.764 427.02l-.735 1.11 19.87 12.336.66-1.051zM356.39 414.434l-.563 1.002 2.325 1.502.698-1.078zM343.755 406.685l3.982 2.449-.503.846-3.997-2.414zM353.023 413.574l.476-.755 1.01.648-.522.739z" clip-path="url(#p649cfa369d)" style="fill:green;fill-opacity:.8"/></g><g id="PatchCollection_4"><path d="m349.173 431.469 1.892-.458.397 1.386-2.008.495zM373.52 406.499l4.139.313-.42 5.475-4.138-.314zM475.128 478.082l.837-.175.19 1.489-.792.19zM407.816 446.642l.719.394-.484.817-.675-.452zM397.758 440.233l1.586.949-.646.876-1.468-.964zM239.712 389.117l1.67-.335.658 2.515-1.552.436z" clip-path="url(#p649cfa369d)" style="fill:#90ee90;fill-opacity:.8"/><path d="m239.712 389.117-1.551.436.759 2.6 1.568-.42zM630.556 320.373l1.569.465-.234 1.006-1.625-.43z" clip-path="url(#p649cfa369d)" style="fill:#90ee90;fill-opacity:.8"/></g><g id="PatchCollection_5"><path d="m325.453 364.76-19.429 47.492 6.341 21.197 23.881-.268 16.73 5.366 18.485-3.22 18.214 8.05 30.897 20.257 7.96-21.33-33.46-16.636-14.976-31.527-9.31.537-3.103-21.466-22.666-7.513-6.611 2.415zM125.322 137.258l4.933 20.557 26.134-7.3-6.167-20.79zM464.453 478.359l18.2-5.211 2.096 12.404-18.2 5.49z" clip-path="url(#p649cfa369d)" style="fill:#d3d3d3;fill-opacity:.8"/></g><g id="PatchCollection_6"><path d="m372.849 425.028-.323.566-.569-.32-.107.19-.428-.241.129-.226-.839-.473.334-.586.817.46.098-.173.46.259-.13.23zM545.307 454.954l.407 9.593-7.149-.982.232-4.412.155-1.85-.33-2.773zM335.084 402.578l.68-1.625-.612-.237 1.032-1.963 1.18-1.173 1.463.936-1.089 2.2 1.725.79-1.248 2.572zM332.334 403.596l-.305 1.1.634.192.305-1.197zM333.289 403.946l-.506 1.357.618.215.433-1.444zM334.155 404.202l-.545 1.452.666.247.48-1.5zM347.234 409.98l.503-.846 2.119 1.348-.522.814zM322.345 398.938l1.645.455.465-2.122-1.685-.44zM336.945 405.233l-.634 1.536.574.262.586-1.63zM358.557 414.682l.76.468.516-.846-.687-.513zM358.301 418.089l-.623 1.224.828.474.652-1.218z" clip-path="url(#p649cfa369d)" style="fill:#a9a9a9;fill-opacity:.8"/></g></g></g><defs><clipPath id="p649cfa369d"><path d="M90 110.522h558v506.156H90z"/></clipPath></defs></svg>