<svg xmlns="http://www.w3.org/2000/svg" xmlns:xlink="http://www.w3.org/1999/xlink" width="960" height="960" viewBox="0 0 720 720"><defs><style>*{stroke-linejoin:round;stroke-linecap:butt}</style></defs><g id="figure_1"><path id="patch_1" d="M0 720h720V0H0z" style="fill:#fff"/><g id="axes_1"><path id="patch_2" d="M90 614.095h558v-500.99H90z" style="fill:#fff"/><g id="LineCollection_1"><path d="m356.16 392.577 5.957 1.298M356.16 392.577l.16-.804-.138-.808-.423-.722-.66-.556-.825-.328M353.095 394.154l.764.035.744-.16.665-.342.533-.497.359-.613M620.753 333.682l2.685-4.182 2.615-2.224 3.046-1.695M630.285 311.37l-3.233 12.08 2.047 2.131M403.052 375.03l-1.877 6.783M424.72 392.504l-6.022-4.394-7.413-5.507-2.953-4.677-.67-.666-4.61-2.23M396.48 371.902l.623.219 5.95 2.909M374.108 372.65l5.857-.722M374.108 372.65l-.798 2.395M367.552 374.45l1.407-.28 5.149-1.52M377.386 381.248 371.798 380M377.386 381.248l1.391-5.028M377.386 381.248l-1.576 5.29M385.488 383.77l-1.412-1.008-6.69-1.514M338.564 372.544l5.325 1.203M338.564 372.544l-2.728-.613M338.564 372.544l1.634-6.777M356.497 372.495l-1.172 3.834M361.138 374.068l-2.963-.835-1.678-.738M350.967 369.463l3.239 2.022 2.291 1.01M353.095 394.154l-.759 2.755M350.944 391.314l-.016.76.24.73.475.626.664.465.788.259M533.453 358.427l-9.058 9.035-6.596 8.418-4.143 7.094M502.321 393.615l6.373-5.135 4.962-5.506M522.147 383.065l-4.651.082-3.84-.173M349.712 368.68l1.255.783M349.712 368.68l-3.856-2.086M360.632 340.879l1.3 5.556.085 1.035-.079.731-1.968 6.505-.364.859-.35.566-3.131 4.191-6.413 8.358M610.917 340.42l-2.187.251-3.327.689-5.72 1.535-4.084.053M577.764 345.554l3.36-1.865 7.704-1.959 1.693-.106 5.078 1.324" clip-path="url(#pdc6aa0974b)" style="fill:none;stroke:#000"/><path d="m596.354 353.06-1.4-7.624.645-2.488M355.325 376.33l-5.774-1.305M355.325 376.33l2.447.552M357.772 376.882l2.445.544M357.772 376.882l-1.403 4.996M502.321 393.615l-1.211 1.909M518.417 418.072l-1.07-1.506-1.153-2.871-.715-1.423-1.27-1.648-4.516-4.103-.386-.536-1.897-3.606-5.089-8.764M345.856 366.594l-1.455-.403-4.203-.424M333.136 365.768l3.24-.16 3.822.159M333.136 365.768l2.7 6.163M308.857 373.762l.248.1.291.093.303.076.276.017.26-.012.226-.031.413-.087.77-.21 1.21-.408 1.07-.425 3.418-1.456 13.737-5.096.532-.184.496-.14.544-.138.485-.093M354.274 389.359l.73-2.61M354.274 389.359l-.884-.066-.859.196-.743.437-.55.63-.294.758M610.917 340.42l1.957-.225 2.802-1.165 1.283-1.535 3.794-3.813" clip-path="url(#pdc6aa0974b)" style="fill:none;stroke:#000"/><path d="m624.198 351.12-.76-1.553-2.16-2.912.35-2.012 3.677-1.324 4.435-1.164 3.56-.689.292-1.747-1.342-1.006-3.327-2.118-3.676-.688-4.494-2.225M379.965 371.928l-1.188 4.292M396.48 371.902l-1.191-.198-3.964-.271-9.922.317-1.438.178M360.217 377.426l6.12 1.364M360.217 377.426l.921-3.358M367.552 374.45h-4.359l-2.055-.382M308.857 373.762l-4.61-4.606M268.2 381.408l1.625-2.224.906-1.068.914-.388 1.362.018 2.16.582 2.684.794 2.568.212 10.389-1.747 9.63-1.694 7.879-1.218.54-.913M296.629 360.317l.57 1.216.652 1.256.354.557.401.615.237.305.28.298.249.228.289.23.933.538.285.172.251.175.606.51.5.515 2.01 2.224M308.156 354.173l-.088.98.205 3.785-1.138 3.971-1.343 4.05-1.546 2.197M345.856 366.594l-1.967 7.153M350.967 369.463l-1.416 5.562M335.836 371.931l2.546 5.635M335.836 371.931l-2.19-.466M343.89 373.747l5.66 1.278M343.89 373.747l-1.254 4.839M367.552 374.45l-1.214 4.34M349.55 375.025l-1.343 4.896M373.31 375.045l5.467 1.175M373.31 375.045 371.798 380M378.777 376.22l22.398 5.593M338.382 377.566l4.254 1.02M341.322 383.651l-.606-.835-2.334-5.25M401.175 381.813l-5.71 19.743M342.636 378.586l5.571 1.335M342.636 378.586l-1.314 5.065M366.338 378.79l5.46 1.21M366.338 378.79l-1.438 5.133M348.207 379.921l-1.367 4.98M348.207 379.921l8.162 1.957M371.798 380l-1.46 5.226M356.37 381.878l-1.365 4.872M356.37 381.878l8.53 2.045M341.322 383.651l-1.52 4.903M341.322 383.651l5.518 1.25M364.9 383.923l-1.332 4.766M364.9 383.923l2.77.663M367.67 384.586l-1.363 4.723M367.67 384.586l2.668.64M346.84 384.9l-1.387 5.054M346.84 384.9l8.165 1.85M370.338 385.226l-1.137 4.75M370.338 385.226l5.472 1.312M375.81 386.538l1.524.365M355.005 386.75l8.563 1.94M339.802 388.554l5.651 1.4M339.802 388.554l-1.275 5.196M363.568 388.69l-1.45 5.185M363.568 388.69l2.739.619M366.307 389.309l2.894.667M345.453 389.954l-1.405 5.059M345.453 389.954l5.491 1.36M369.2 389.976l3.195.677M338.527 393.75l5.521 1.263M338.527 393.75l-1.417 4.814M362.117 393.875l-1.387 4.955M362.117 393.875l5.726 1.246M344.048 395.013l-1.525 4.805M344.048 395.013l8.288 1.896M352.336 396.91l8.394 1.92M352.336 396.91l-1.34 4.87M337.11 398.564l5.413 1.254M337.11 398.564l-1.641 5.066M360.73 398.83l-1.542 5.128M360.73 398.83l5.48 1.254M342.523 399.818l-1.423 5.131M342.523 399.818l8.473 1.963M350.996 401.78l8.192 2.178M350.996 401.78l-1.524 5.18M334.838 405.656l.631-2.026M359.188 403.958l-1.283 4.977M359.188 403.958l4.449 1.005M341.1 404.95l-1.373 5.343M341.1 404.95l8.372 2.01M341.1 404.95l-5.631-1.32M349.472 406.96l8.433 1.975M349.472 406.96l-1.26 4.93M357.905 408.935l-1.548 4.829M357.905 408.935l3.635.82M336.969 409.629l2.758.664M339.727 410.293l-.514 2.302M339.727 410.293l8.484 1.598M333.758 411.738l-.575 2.498M333.758 411.738l5.455.857M333.758 411.738l-4.204-1.031M348.211 411.89l8.146 1.874M348.211 411.89l-.897 2.455M339.213 412.595l-.604 2.479M339.213 412.595l8.101 1.75M356.357 413.764l-.495 2.47M332.069 419.188l1.114-4.952M332.069 419.188l5.194 1.093M330.552 413.757l-.917 4.52.123.315.248.172 2.063.424M347.314 414.345l8.548 1.89M347.314 414.345l-.46 2.483M338.61 415.074l-.597 2.307M338.61 415.074l8.244 1.754M338.61 415.074l-5.427-.838M355.862 416.235l-.685 2.444M346.854 416.828l8.323 1.851M346.854 416.828l-.546 2.295M612.685 347.278l-16.33 5.782M612.685 347.278l-1.768-6.858M614.688 356.287l-.241-.686-1.39-4.552-.372-3.77M395.583 346.071l1.84.24 1.678.357 2.785.925.863.571.654.74 1.751 3.203.542.716 1.664.755.435-.055.834-.461.362-.266M453.787 405.2l.22 2.279.304 7.233-.03.3-2.113 8.066-.109.506-.8 3.803-.462 1.164-.474.682-3.862 4.537-3.521 4.64-.285.43-1.884 4.486M402.776 479.866l2.536-1.123 6.367-3.587 4.258-3.43 2.014-2.381 2.803-6.325.38-1.138.642-2.686.464-1.008 2.57-3.24 4.227-3.838 1.026-.583 3.152-1.337 3.325-1.709 2.147-1.771 1.138-1.245.946-1.14M460.135 526.17l-4.902-6.351-4.32-5.294-2.45-8.257-.7-13.657-1.285-13.128-.817-9.317 4.086-4.658 3.852-2.435 2.45-6.246-1.517-4.235-2.801-2.965-7.587-.106-3.502-.53.129-5.665M428.267 407.486l-18.735-3.107M628.688 431.203l1.419 2.23M630.089 393.192v7.412l.933 4.976 2.101 1.694 3.035 4.976v3.6l-8.404 5.93.934 9.423" clip-path="url(#pdc6aa0974b)" style="fill:none;stroke:#000"/><path d="m569.366 400.805 1.894.541 2.743 1.588 6.011 3.6 3.678 1.694 1.984 3.547 3.151 4.183 1.868 2.011 2.86 1.165 2.16 1.27 3.385-.529 2.042-1.376 3.327-1.8 3.385-.424 2.86-.847 3.969-.476 4.143.635 1.285 2.488-.292 3.706 1.517 2.594 4.845 3.547 2.507 3.281M409.532 404.379l-4.339-.816-.32-.106-.905-.417-.329-.099-8.173-1.385M392.375 412.516l1.693-6.511 1.398-4.449M630.089 393.192l-1.715-3.137M617.756 365.003l-6.928 3.028-1.092.168-13.382-15.14M395.583 346.071l-1.34-.051-.76.172-.279.382-.087.543 1.649 3.507-1.868 7.307 1.985 2.224.583 6.247.817 2.33.197 3.17M462.076 404.639l-5.033.412-3.256.149M432.448 398.143l2.066 1.508 4.504 3.362 2.776 1.147 6.81 1.132 1.2.05 3.983-.142M405.678 302.166l1.2 1.443 4.64 4.447.905.953.38 1.271-.35.794-1.11.583-3.794 1.27-2.626 3.019-.905 1.085-1.604 1.191-.292.715v1.297l1.196 2.78.146 2.41.467 1.482 2.422 3.203.38 1.139-.993 2.382-.175 3.283.102 2.039.54 2.197-.233.74-.467.358-.474.1-.613-.066-3.057-1.132-1.123-.358-.905-.172-.555.093-.306.185-.788 1.84-2.103 3.334M379.84 472.245l3.138 1.323.599.49.642.82.567.303 16.066 4.038 1.153.317.77.33M335.607 568.597l-1.027-3.1-.452-7.25.306-1.297 1.912-4.3 3.72-4.658 2.54-1.615 2.728-.609 6.23-.158.598.04 2.656.621 1.663.014 8.944-2.475 9.5-3.97 2.523-1.005 1.313-1.257.45-1.314-.128-4.747.291-1.734 1.562-5.61.627-1.231 5.049-9.515 2.51-3.44 2.509-4.83 2.7-6.975 1.035-1.945 1.926-2.7 1.4-2.805.57-1.72 1.736-6.948.73-1.39 1.048-.808M198.27 444.37l-.053-.17-.187-1.19.843-1.528 3.895-.765 1.872-1.529 1.873-.934 6.648.34 2.247.34 3.278 3.312 1.498 1.104h1.872l3.559-2.888 3.745-.934 7.632-3.482 3.513-1.38 3.538-1.656.445-.324 2.51-2.075 2.262-2.02 5.04-4.1.19-.268.453-1.045.076-.484-.088-2.888.084-.89.803-2.945.088-.602.11-2.429.161-.48 1.48-1.87.188-.403 1.285-3.732.044-.768-.598-2.8.182-.947.314-.855 1.472-2.194 1.413-5.188.552-.733 3.474-2.004.602-1.163 1.615-8.395" clip-path="url(#pdc6aa0974b)" style="fill:none;stroke:#000"/><path d="m246.757 385.013.03-1.244 1.487-.291 3.035-.424 2.306-.45 1.255-.768 1.838-1.587 1.05-1.139 1.664-.238 2.773 1.164 3.239 1.086 2.766.286M173.295 244.67l-.328-.122-.28-.12-.27-.155-.21-.147-.283-.25-.237-.255-.43-.489-2.172-2.714-.287-.351-.35-.305-.394-.308-.423-.288-.47-.288-.5-.275-1.05-.501-6.198-2.707-.358-.174-.39-.218-.362-.278-.317-.259-.598-.49-.27-.244-.229-.238-1.182-1.34-3.36-3.667-.365-.292-.42-.285-.909-.541-.907-.488-.51-.199-.584-.17-.27-.053-.3-.032-.613-.013" clip-path="url(#pdc6aa0974b)" style="fill:none;stroke:#000"/><path d="m132.28 225.488.34-.025.16-.002.168.01 3.938.543 3.138.37 1.59.16.782.072.816.036.927.023.97-.04.935-.085.849-.095.576-.041M142.788 196.925l-.59 1.039-.612 1.528.306 4.86.459 1.945 1.939 2.546 3.01 2.87 1.735 2.824.204 1.065-1.072 1.435-.714 1.157.016 8.22M152.926 127.562l.504 1.254.852 1.926.333 1.103-.172.795-.204 1.851 1.275 5.232-.102 1.25-.306 7.778-.306 1.111-2.602 7.269.153 1.389 3.061 6.528.358 1.204-.066.919-.505.86-1.82 1.197-1.028.959-.493.995-.229 1.056-.087 2.235-.263.826-1.428 3.221-.766 2.778M143.661 195.385l1.19-2.097 1.48-2.176 1.377-3.101 1.377-6.713" clip-path="url(#pdc6aa0974b)" style="fill:none;stroke:#000"/><path d="m129.971 177.79 11.556 2.117 5.253.742 2.305.649M296.629 360.317l-1.167-1.988-.832-1.151-.945-1.086-1.054-.952-1.196-.795-1.197-.688-1.32-.65-6.573-2.488-1.97-.767-1.765-.781-.391-.202-.354-.208-.292-.215-.24-.209-.245-.257-.2-.252-.343-.477-.722-1.314M217.086 293.866l1.645 2.911.77 1.153.876 1.31.89 1.244 1.007 1.23 4.99 4.965 5.592 5.983 2.944 2.86.83.649 1.008.661 2.145 1.364.656.463.278.245.234.257 4.129 5.03 1.006 1.074 1.21 1.085 1.168 1.033.744.549.383.251.45.238.37.161.366.118.81.231.89.225.803.25 5.093 1.973 11.759 5.23 1.467.766.75.451.643.47.401.464.317.561.143.497.08.556.03 1.053.021.562.095.476.138.431.16.404 1.446 2.537" clip-path="url(#pdc6aa0974b)" style="fill:none;stroke:#000"/><path d="m233.54 366.146.478.136 1.405-.17 1.78-1.359 11.33-10.788 2.247.17 1.966 1.359 2.34 1.444 3.653-.425 2.247-1.444 1.779-3.143 4.775-4.672 3.559-.084 4.724-1.333M341.772 319.453l-2.06 1.869-.75 1.784-.842 1.869-1.498.764-11.417.703-1.592.34-5.899 3.229-11.33 7.474-3.277 3.823v2.803l-.094 3.313-1.966 5.012-3.745 7.05-.673.831M135.478 579.335l.482-.718 2.34-1.953 3.466-1.274 4.12-.254 7.023 1.358 2.153-.51 4.588-1.867M192.585 529.488l-.724 1.15-2.621.68-4.776.254-2.06.68-13.39 14.521-4.214 6.454-2.715 7.558-.468 2.122 1.123 5.52-1.123 2.378-1.967 3.312M176.624 585.406l-.657-1.44-1.675-1.762-9.335-8.08-1.336-.457-3.97.45M333.646 371.465l-2.48-.528-.36-.083-.382.018-.281.237-6.024 7.3-.422.511-2.272 1.258-.723.183-2.027-.453-.563.182-1.95 1.97-.764.437-.522.11-3.91-.31-.724.164-.503.237-.502.492-3.512 6.476-.483 1.35-.14.965.08 4.645.02 2.362-.18.383-3.307 3.56-.564.258-.76.171-2.252-.212-.729-.077-.47.053-.463.314-.718.634-.472.742-4.08 7.823M337.263 420.281l.75-2.9M337.263 420.281l8.333 1.755M345.596 422.036l.712-2.913M354.6 420.863l-.873 2.579-.142.136-.19.033-7.799-1.575M355.177 418.68l-.576 2.183M360.547 415.577l-.09 4.007-.124.284-.256.08-4.9-1.269M354.6 420.863l-8.292-1.74M338.013 417.381l8.295 1.742M328.404 413.164l2.148.593M333.183 414.236l-2.631-.48M408.738 414.826l.095-.31.86-9.22-.02-.469-.141-.448M408.738 414.826l-.102.335-1.385 2.475-.07.201.12.822.198.33 1.334 1.177M408.738 414.826l1.73 1.088M536.183 542.818l-.233-3.468.16-1.15.949-3.64.175-.754.175-3.176-.306-3.004-.146-.476-.248-.516-2.014-2.064-1.196-1.734-.16-.49-.556-1.945-.276-.595-2.685-3.573-3.444-2.832-.846-1.112-1.24-2.104-.321-.992.029-.642.467-1.323.51-1.582 2.714-6.458 2.167-5.67.095-.576-.102-.51-4.21-6.432M522.8 421.9l2.214 1.999.328.933-.05.847-1.27 3.044-.22 1.25-.021 1.787.38 2.588 1.042 3.653.697 1.482 1.303 2.117.16.331 2.575 5.87.993 2.157-.103.933-.357.78-1.35 1.212-1.167 1.614-.153.728-.562 3.852-.452 1.35-1.445 3.004-1.838 2.223-2.13 1.694-2.583 2.091-.467.78-.233 1.006.73 4.037.408.9L525.64 486M558.443 485.695l-2.664-.998-2.713-.706-3.268-.5-.595-.186-2.03-.976-1.848-.247-1.258.205-3.62 1.361-.985.178-2.015-.04-2.227.178-2.712.563-.908.083-2.455-.151-.787.137L525.64 486M518.417 418.072l.943 1.327.759.747 2.681 1.753" clip-path="url(#pdc6aa0974b)" style="fill:none;stroke:#000"/><path d="m572.668 419.96-.47.207-2.53-.454-.575-.11-4.363-1.291-.954-.083-6.03-1.745-.908-.041-1.773.213-.507.055-1.288-.145-1.242.276-1.265.556-.54.049-.499-.073-5.629-2.203-1.028-.04-.47.165-1.552 2.088-.909.783-3.196 1.677-.5.02-1.038-.288-.44-.069-3.545.042-1.257.192-3.863-.165-.681.096-2.03 1.25-.786.977M430.492 396.716l-1.61 2.01-.322.78-.204 1.112.204 2.197 1.285 3.587.11.152.386.231.16.226 1.16 2.865.066.51-.022.992-.146.596-2.137 3.196-.169.57-.007.813.781 3.164.226.456.445.424 1.13.609.41.35 1.028 1.45.38.747.233.298 1.16.695 1.065 1.151M430.492 396.716l1.14.83M430.492 396.716l-1.986-1.45M335.607 568.597l.199 2.607-1.44 8.607-.408.762-.712.646-2.629 1.422-.446.392-1.41 1.648-4.832 4.15-1.5 1.689-1.151.865-1.349.467-3.469.742-2.363 1.072-.636.632M273.721 559.384l-.387 1.965.066 1.542.81 2.329.38.781 1.378 1.792 2.043 3.25 1.116.952.387.284.905 1.085 3.852 2.091 2.203.807.488.285.61.678.325.271 1.422.83 3.29 2.534 3.152 2.839.445.37 1.649.8 1.116.543.905.145 2.714-.37 1.229-.39.208-.023.157.06 6.795 5.546.321.385.92 2.01 1.24 1.523M207.211 587.396l1.2-4.908M176.624 585.406l1.53 3.359 2.123 2.93 3.397 1.498 8.132 1.398h2.154l5.435-2.532 7.816-4.663M536.183 542.818l-.029 5.24-.627 3.202-1.153 3.374-1.532 3.242-.307 1.284.015 1.31 2.19 6.867.99 3.467 1.577 3.533.233.662.059.833-.117 2.792.379 4.803-.19 7.317-.364 1.813-1.372 4.38-.35 2.302-.057 4.09.234 1.132M585.242 534.223l-.197.576-.515.4-1.56.37-.803-.069-.485-.385-1.03-1.882M581.9 526.399l.282.309 1.939 3.929.606 1.47.515 2.116M610.043 530.326l-2.247 1.614-1.81 1.509-.758 1.985-.7 1.826-3.094 2.144-1.722 3.625-1.43 2.197-1.896.9-2.744.423-2.83.053-1.05-1.588 1.313-2.567-.817-1.509.204-1.35 1.167-1.322v-1.535l-.263-1.668-2.247-1.032-2.071.317-1.806-.125M565.317 507.143l-.738-1.457-1.379-3.421-.197-1.47.743-3.023-.197-.92-1.09-1.951M558.443 485.695l.334.302.303.619.136 1.69.182.494 1.242 2.089.333.77.97 2.459.515.783" clip-path="url(#pdc6aa0974b)" style="fill:none;stroke:#000"/><path d="m572.369 502.827-.584-2.09-2.538-2.62-3.356-2.462-2.248-.688-1.185-.066M567.379 482.29l-2.101.925-3.677 1.403-3.158 1.077M522.147 383.065l3.998 7.904M569.366 400.805l-.394-.618-6.196-4.48-3.09-2.089-1-1.14-3.333-6.775-1.515-2.226-1.394-.825-3.802-.604-3.454.687-.712.04-6.71-.618-4.561-.893-1.5.124-3.68 1.168-.743.138-5.135.37M572.668 419.96l.364-.494-.046-3.793-1.363-4.878-.303-1.346-1.53-2.158-.273-.59-.151-5.896M576.104 431.099l-1.167-1.483-2.568-6.776.3-2.88M536.183 542.818l5.333 3.103.226.02.212-.047.941-.251.438.052 1.175.45M377.04 471.331l1.007.159 1.793.755" clip-path="url(#pdc6aa0974b)" style="fill:none;stroke:#000"/><path d="m377.04 471.331-.664.39-.11.358.14.33.744.331.54.073 2.15-.568M377.04 471.331l.569-1.588 1.466-2.441 1.795-1.966 1.787-3.361.73-2.277.291-2.342-.262-1.297-.335-.556-.876-.503M135.478 579.335l-2.888 4.292-3.84 2.293-4.42 2.875-2.154 2.462-4.775 3.227-1.008.53M470.356 150.839l.518-1.543.409-3.23.875-2.807.084-1.425.273-.859-.256-2.8-.047-.502-.637-6.966-.35-5.138.541-1.66.976-1.17 1.271.045.42.44-.063 1.574.59.983 1.459 1.854M470.356 150.839l4.02 1.953 5.953 2.807 2.264.601.679.26.624-.114.325.116 1.992 1.029 4.096-.727 3.736 1.271M460.538 187.343l.24-.763 1.517-5.03-1.226-2.384 1.284-2.277 2.393-2.754.175-3.23 1.576-2.225 2.043-1.642 1.225-2.7h1.985l.992-.53-.467-2.807-1.284-1.536-.408-2.754-1.927-2.172 1.168-2.118.532-1.582M628.281 304.35l-7.47-6.46-10.272-9.001-7.996-7.149-6.362-2.541-3.093-1.589-2.802-4.5-.35-2.966-4.26-6.831.35-4.236-.175-8.155-1.75-5.349-6.48-7.625-3.968-5.72-2.568-7.413-3.619-5.666-5.661-6.831-4.494-3.813-3.327-4.343-6.711-6.249-5.837-8.261-2.918-4.66-.292-4.237.584-4.66 1.4-4.45v-3.707l-4.085-2.33-2.685-4.448 2.101-3.707M460.538 187.343l-.052 3.58v3.601l.7 4.925 2.86-.185 2.334-.503M466.03 225.716l2.451 2.012 3.327 1.747 2.451 1.695.642 2.065 2.276.848 2.568-.53 1.635-.583 2.1-2.33 4.728-.052 1.75 1.535 2.57 2.595 2.042 2.965.175 2.754M347.843 132.455l3.852-.053M354.905 143.947l-5.544-.158-11.906 1.059M150.852 123.203l-.71.062M152.926 127.562l-.878-2.204-1.196-2.155M630.285 311.37l-4.922-.242M630.39 305.831l.24 3.994-.345 1.545M628.281 304.35l-3.56.9-1.926-.106M630.39 305.831l-2.109-1.481M504.862 310.232l1.676 2.204M500.348 312.027l2.977-1.217 1.537-.578M484.76 294.511l1.347.625 1.11 1.218.816 2.33 2.86 1.96 6.595 4.5 6.887 4.448.487.64M508.986 301.014l.992 3.389-1.401 2.382-2.039 5.65M541.514 336.55l-3.113-2.178-6.187-4.025-5.135-4.447-7.413-2.383-5.136.37-2.042-1.694-1.868-4.818-2.218-2.488-1.864-2.451M478.694 270.608l-5.544.595M459.844 228.47l.175 4.341-.934 5.243.058 5.984-1.342 2.807 3.093 4.765 2.451 5.137 4.086 2.648 5.136 3.918 5.836 6.248.291 1.047M479.979 287.46l-.058-5.561.291-5.825-1.518-5.466M477.47 285.976l-2.452-1.377-2.042.212-1.985-.794-.934-1.642-1.75-2.223-1.168-1.642M477.47 285.976l2.509 1.483M465.68 288.253l2.568.424 3.21-1.112 3.268-.424 2.743-1.165" clip-path="url(#pdc6aa0974b)" style="fill:none;stroke:#000"/><path d="m460.952 312.292 3.152-4.077 3.093-2.594 2.685-3.336 2.626-2.86 2.802-1.588 1.926-1.748 7.525-1.578" clip-path="url(#pdc6aa0974b)" style="fill:none;stroke:#000"/><path d="m479.979 287.46 1.05 4.606 2.568 1.906 1.164.54M415.684 297.023l-.233-.093-.278-.106-.32-.052-.307.02-.212.013-.773.172-1.109.192-.817.099-.372-.066-.343-.186-.496-.556-.46-.542-.554-.334M405.678 302.166l3.097-5.44.635-1.142M390.128 259.13l1.021-.291.964.211.67.953 1.139 1.007 1.517.397 1.05.423 1 .59.817.476.84.231 1.867.107.693.086.562.178.656.384.657.583 1.517 1.31.7.344.76.16 1.78.21.787.266.642.715 1.78 1.297 1.11.794 1.167 1.007 1.313 1.8 1.021 1.774 1.022 1.96.029 1.508-.321 1.615-.613 1.906-.875 2.065-.818 1.986-2.655 5.878-2.517 4.524M403.318 288.57l.875 1.166 1.372 1.588-.554 1.774-2.256 1.893M405.678 302.166l-.55-1.02-.088-2.382-.233-1.854-1.168-1.509-.884-.41" clip-path="url(#pdc6aa0974b)" style="fill:none;stroke:#000"/><path d="m380.294 279.146 5.136 2.33 1.721 1.297 1.138 1.774 3.093 3.23 7.588 5.268 3.785 1.946M182.091 246.174l.225.204.205.192.142.182.132.228.182.477.15.473.714 2.277.27.98.211.98.22 1.349.233 1.39.554 4.475.131.795.147.607.146.432.16.337 1.605 3.111.832 2.065.474 1.02.504.9.634.827.817.795.868.728 1.051.68.817.399.92.436.947.351 1.117.344 1.24.199 1.218.152 2.467.304.721.1.635.139.412.116.383.135.6.317.568.431.496.45.956.947 1.693 1.905 4.8 5.575.656.873.583.834.584.98.47.925.289.795.543 1.72.832 2.754.441 1.007M238.528 251.399l3.56 4.394.992 2.807-.992 5.137-.467 4.13-1.868 2.595-4.26 5.083-3.852 3.177-1.168 2.86-1.634 2.806-4.201 1.27-3.503 3.019-4.049 5.19M243.372 247.85l-2.802 1.642-2.042 1.907M223.952 242.873l2.305.106 2.48.966 2.495 1.086 2.379.98 1.56.993.993 1.601.817 1.443 1.547 1.35M321.58 236.148l-8.171-3.337-6.946-5.19-10.914-3.441-6.595 1.853-3.677 2.225-2.86 6.195-5.777-.953-3.444 3.813-5.603.423-6.011-.211-2.16 4.66-1.75 4.236-3.269 2.224-2.743.582-5.195-.953-3.093-.423" clip-path="url(#pdc6aa0974b)" style="fill:none;stroke:#000"/><path d="m247.21 245.15-1.722.609-1.678 1.258-.438.834M457.994 224.778l-5.446.302-3.327-1.059-3.21-.741-3.852-2.384-.992-4.077-.117-2.224-3.793-1.536" clip-path="url(#pdc6aa0974b)" style="fill:none;stroke:#000"/><path d="m453.657 221.055 1.05 2.013 2.51 1.165.777.545M459.844 228.47l-.817-2.966-1.033-.726M397.686 209.14l-1.926-2.912-1.985-6.196.11-6.34.009-.188M384.653 183.92l1.127 3.03 3.137 4.013 2.466 1.47 2.51 1.07M344.458 186.74l6.653 1.588.35-2.86 2.569.106 7.354 1.165 4.144 1.007 2.042 1.112 2.335 1.165 12.14 2.025 11.849 1.456" clip-path="url(#pdc6aa0974b)" style="fill:none;stroke:#000"/><path d="m448.637 206.28-3.093-2.753-3.618-.424h-4.377l-4.144-.159-8.755.371-4.436-.741-5.66-2.754-6.129-4.395-5.661-1.166-6.829-.53-.724-.077-1.317-.148M420.156 142.888l-3.618.795-5.486-.9-2.796-2.637M384.653 183.92l1.827-1.417 4.202-4.502 2.977-3.442 3.035-3.655 3.56-4.819 3.677-2.277 4.202-2.648.117-3.019-.117-5.402-.817-5.084-1.634-2.119-.292-3.019 1.693-1.27 1.173-1.101M410.41 136.533l-1.576 3.072-.578.541M374.782 165.722l3.878 1.422 3.618.9M378.484 157.453l-.817 2.807-.525 3.76-2.36 1.702" clip-path="url(#pdc6aa0974b)" style="fill:none;stroke:#000"/><path d="m354.905 143.947 3.269 4.238 2.51 1.747 4.785 2.807 3.91 3.23 3.56 4.238 1.843 5.515M384.653 183.92l-.507-1.365-3.502-5.401-2.918-6.302-2.452-3.655-.492-1.475M354.905 143.947l-1.167-2.595-.058-3.548.058-2.225-2.043-3.177M448.637 206.28l.468-3.918.408-3.125 2.451-2.965 4.144-1.324 2.977-2.966 1.453-4.639M453.657 221.055l-3.852-9.638-1.168-5.136" clip-path="url(#pdc6aa0974b)" style="fill:none;stroke:#000"/><path d="m466.03 225.716-.175-2.225-2.627-1.377-2.8-1.27-2.92.159-3.851.052M459.844 228.47l1.283-1.219 3.386-.37 1.517-1.165M566.827 348.797l-10.74-.714-.47.166M547.928 350.633l3.944-1.067 3.745-1.317M541.514 336.55l6.342 4.44 7.76 7.259M501.11 395.524l-4.79-1.802M471.932 404.861l2.59.363.964.25 4.377 1.694.744.173.978.118 8.886-.847.823-.256 1.044-.511 3.079-2.104.422-.502 1.416-2.476 2.276-2.753 1.579-2.486M617.756 365.003l-2.434-5.068-.634-3.648" clip-path="url(#pdc6aa0974b)" style="fill:none;stroke:#000"/><path d="m619.006 354.213-1.756.49-2.562 1.584M628.374 390.055l-2.486 2.661M622.826 379.406l.492 1.397 5.056 9.252M622.826 379.406l-5.07-14.403M619.643 387.21l1.985-1.005.233-3.442.965-3.357M629.894 438.366l-.27-2.874.483-2.058M629.894 438.366l.372 3.956 1.4 9.74.934.424 2.451 3.123 2.218 1.8M122.122 570.87l-2.248-2.038M100.73 527.07l3.094 3.388 1.926 4.34.817 3.918-1.05 3.28-1.576 2.595 3.502 4.022.642 3.547 2.86 3.176 2.801 2.117 2.685 2.435 1.751 4.022 1.984 2.858 1.956 4.102M135.478 579.335l-7.783-3.41-5.573-5.055M146.737 128.284l2.815-2.74M149.494 128.112l.058-2.569M149.552 125.543l.59-2.278M152.926 127.562l-.382.563-.248 1.734.32 1.669-.67 1.27-2.219 1.51-.525.53M208.31 222.287l2.816-2.198 2.35-1.324M208.31 222.287l1.94.198 1.65.53.466.304M194.01 228.377l5.619-2.688 3.574-2.092 2.744-.953 2.363-.357M194.01 228.377l-2.363.847M194.01 228.377l-.408 1.655M114.22 225.415l.597.582.819.725.452.374.26.175.308.175.585.292.693.274 1.45.53.943.417.51.172.586.153.786.04.868-.014 1.362-.104.797-.088.701-.106.634-.129.293-.09.246-.085.33-.166.277-.159.554-.357 1.131-.775 1.974-1.477.05-.034.052-.026.053-.025.053-.02.218-.072.479-.11M173.295 244.67l-1.36 1.566-.321 1.456-.817 1.588M182.091 246.174l-.435-.33-.499-.34-.23-.119-.241-.09-.288-.089-.398-.086-.354-.056-.386-.05-.77-.067-4.643-.145-.126-.017-.137-.032-.289-.083M182.091 246.174l1.312-1.434M210.557 243.958l-1.284.543-1.357.543-.583 1.099-.424.635-.977.45-4.538 1.351-3.151.9-2.496 1.02-1.532-.225-1.182-.319-1.707.24-1.459-.345-1.648-1.205-2.248-1.787-1.576-2-.992-.118M187.59 231.409l-.028 1.244-.554 1.456-.599 1.192-1.298 1.27-.744 1.668.028 1.139-.13 1.39-.234 1.284-.628 2.688M191.647 229.224l-1.225.318-1.868 1.098-.963.769M173.277 228.787l8.93 1.906 3.56.212 1.824.504M193.602 230.032l-.773-.65-1.182-.158" clip-path="url(#pdc6aa0974b)" style="fill:none;stroke:#000"/><path d="m210.338 239.073-2.51.12-2.874.277-2.116-.357-3.064-1.482-1.984-.61-1.532-1.337-1.08-2.038-.86-1.536-.716-2.078M210.338 239.073l2.393-.463 1.664-.397M210.557 243.958l-.321-3.772.102-1.113" clip-path="url(#pdc6aa0974b)" style="fill:none;stroke:#000"/><path d="m223.952 242.873-1.78-.516-1.299-.212-1.561.119-3.998.795-3.108.529-1.65.37M221.719 243.072l2.233-.199M333.646 371.465l.19 1.212.058 2.145.526 2.435 1.196 1.932M233.54 366.146l-3.241 3.17-1.11 1.35-1.415 1.27-1.823 1.284-2.029.807-2.772.212-1.692-.318-1.095.398-.846.555.277.874-.043 1.363-.22 2.092-.262 1.284-1.736 1.734-.89.846-1.59 1.55-1.606 1.574-1.648 2.502-1.255.926-4.028 1.403-3.064 1.443-1.649.702M246.757 385.013l1.839.582 1.4.08" clip-path="url(#pdc6aa0974b)" style="fill:none;stroke:#000"/><path d="m235.901 397.852-3.443-3.6-.934-4.13.35-2.17 9.689-.848 4.085-1.111 1.11-.98M214.38 452.512l4.523 2.25-.306.714 1.255 1.827 1.37 1.985 1.869.582 2.188.794 3.677 2.7 2.744.715 3.063-2.064M175.458 463.845l1.133-.459 8.517-6.022 1.873-.51 7.116 1.02 4.214-.51 1.123-2.378v-6.88l-1.164-3.736M214.38 452.512l-8.55-3.851-4.67-3.123-2.89-1.168" clip-path="url(#pdc6aa0974b)" style="fill:none;stroke:#000"/><path d="m222.536 451.599-1.546-.582-2.408.172-1.795.49-2.407.833M173.408 460.043l2.05 3.802M159.689 471.712l.301-.507 1.053-1.058.853-1.805.803-.703 1.023-.529 2.42-1.112 1.753-.834 1.924-.741 2.058-.437 1.342-.013 1.311.04.928-.168M159.689 471.712l-1.426-.248-1.108-.239-1.153-.357-.511-.225-.132-.37v-.768l.672-1.694.277-.992M192.585 529.488l.184-.293-1.127-2.718-2.528-3.482-2.996-3.311-7.96-5.396-9.55-4.841-.75-1.274.563-1.529v-1.273l-1.499-3.142.656-2.039 2.715-2.293 1.219-2.92-.095-5.653-1.03-3.143-2.435-3.906-3.932-3.143-2.154-1.359-2.144-5.283-.033-.778M198.753 535.645l1.795 1.588.146.662-.292 1.059-.307.516.278.608M194.157 533.92l4.596 1.725M193.665 530.002l-.12 1.594.29 1.442.322.883M194.682 535.725l-.423-1.522-.102-.282M198.753 535.645l-5.088-5.643M193.665 530.002l-1.08-.514M198.344 529.89l.103.939-.438.317-.934.146-1.532-.397-1.878-.893M576.104 431.099l-.233 2.223-.35 1.165-1.503.688.715 2.104.262 2.052.745 1.839.32 2.157-.364 4.235-.117 1.747-3.677 1.641-2.218.318-3.093.106-1.926.953-2.218 2.753-3.618 2.435-2.16 3.017M624.137 508.809l1.78-1.906 1.434-2.004 1.434-2.395M637.153 509.391l-3.064-1.694-3.327-3.467-1.977-1.726M618.885 494.721l2.043 1.622 2.947 2.488 4.91 3.673M599.975 461.83l-3.239 2.328-1.08 2.012-.467 3.308 1.255 2.78.846 2.779-.262 2.223-.117 1.773 1.05 2.885 2.54 2.594 1.08 3.282v2.991l-.497 1.985-.992 2.382-.263 2.752 1.372 2.25 1.021 2.964 1.955 2.038.934 1.826.438 1.906.846 2.25-.292 3.15-.963 1.297-.263 1.455 2.19 1.72 1.108 1.641.613 1.244M618.885 494.721l2.013 3.95M599.975 461.83l1.138 2.143 1.518 2.726 1.576 1.482 1.138 1.8 2.86 1.774 1.925 2.09 1.926 2.727.38 3.043.7 3.177 1.021 4.181 1.11 3.309 1.662 1.826 1.43 2.197.526.416M595.831 451.215l1.547 2.144 2.188 1.826 2.014 1.086.992 1.058-.642 1.96-1.955 2.54M595.831 451.215l2.918-1.112 2.393-1.429 4.319-.741 4.67-1.006 3.735-1.217 1.284-.689 2.509-.529 2.948.159 2.305-.133 2.772-2.117 2.13-1.72 2.08-2.315M576.104 431.099l4.786 1.905 1.226 2.436 3.852 1.535 3.093 2.54 3.443 3.495 2.919 6.511.408 1.694M565.317 507.143l3.9.925 3.473 1.376 3.006 1.35 2.305.873 2.685.106 1.78 1.244.467 1.932 1.546.636 1.547-.795 1.284-1.72-.904-1.88-1.139-1.243-.467-2.17-1.371-1.615-1.488-2.09" clip-path="url(#pdc6aa0974b)" style="fill:none;stroke:#000"/><path d="m581.9 526.399-.218-.241-3.076-1.828-3.302-1.112-.954-.797-.47-.783-1.03-2.886-.56-.852-2.09-1.58-.653-.838-4.23-8.34M589.06 522.227l1.694 1.059-.526 3.547-.379 1.35-3.122-.027-4.827-1.757M208.41 582.488l6.335.582 2.363-.185 4.816-3.44 2.83-2.7 2.247-3.625 1.489-3.547 3.326-6.96.35-3.017-.029-2.46.817-2.303-2.364-1.932-2.509-1.773-3.531-1.297-2.772.026-3.853-.238-2.684-1.323-1.605-.847" clip-path="url(#pdc6aa0974b)" style="fill:none;stroke:#000"/><path d="m211.155 566.556-1.4 5.928.233 3.547-1.578 6.457M176.624 585.406l-1.48 4.862M114.22 225.415l-1.174 5.173M143.661 195.385l-.873 1.54M157.752 199.661l-4.143-3.707-2.919-.741-5.02 1.376-2.009-1.204M130.263 197.648l3.268.848 4.203-1.694 3.852-.213 1.202.336M619.006 354.213l3.556-.993 2.043-1.27-.407-.83M636.248 351.976l-5.02-.265-3.764-.132-2.714-.45-.552-.01" clip-path="url(#pdc6aa0974b)" style="fill:none;stroke:#000"/><path d="m632.075 356.238-2.101-.714-2.101.608-2.16.08-5.544-1.562-1.163-.437M566.827 348.797l-.178-2.83.117-4.262.408-4.475-.116-5.533.321-6.406M554.889 329.315l-2.305 3.15-1.927 1.245-2.422.98-2.48.952-2.276.794-1.965.114M572.63 347.962l1.245-.249 3.889-2.159M578.614 335.192l-.117 6.116-.35 2.885-.383 1.361M572.63 347.962l.235.6 1.868.37 2.889.212M572.63 347.962l-.524-2.101" clip-path="url(#pdc6aa0974b)" style="fill:none;stroke:#000"/><path d="m566.827 348.797 1.224.08 4.58-.915M562.3 343.981l1.636 2.145 1.78 1.747 1.11.924M533.453 358.427l.338-.337 6.187-3.759 4.844-2.859 3.106-.84M561.484 357.906l-2.801-1.033-1.897.027-1.722 1.006-1.576-.212-1.897-1.614-1.809-2.198-1.313-2.25-.54-1M551.066 371.804l.934-1.88-1.43-1.641-9.28-5.215-6.712-3.865-1.125-.776M523.343 414.634l-.175 1.43-.281 1.067M518.417 418.072l.724.136 1.955-.45 1.79-.627" clip-path="url(#pdc6aa0974b)" style="fill:none;stroke:#000"/><path d="m526.786 415.005-3.121 1.852-.778.274M471.932 404.861l1.131.932 1.838 1.906-1.05.688M462.076 404.639l4.655-.382.992.014 4.21.59M462.076 404.639l-1.503-2.79M385.488 383.77l-.117.793-1.576 1.27-1.575 1.483M386.889 388.164l.758-1.96-1.459-1.747-.7-.688M431.631 397.547l.817.596M431.631 397.547l.723-1.39M436.906 398.805l-1.459.158-3-.82M424.72 392.504l3.786 2.762M423.891 396.899l.409-2.965.42-1.43M424.592 389.646l1.4 2.17 2.568 2.33-.054 1.12" clip-path="url(#pdc6aa0974b)" style="fill:none;stroke:#000"/></g><g id="PatchCollection_1"><path d="m-12.758 95.922-.32-.364-2.123 1.073.343.444 1.181.98.102.661 1.197.08 3.18 2.94.497.635.496.37 1.196.822.672.688 2.247 3.628.905.477.904.847.525.345.554.317.555.371.35.504.321.503.934 1.165.584.265.554.29.38.477-.059.636-.73 2.172-.612 1.165-.38.609-.875.583-.03.582.351.503-.058.61-.088.582-.059.583-.174 1.403v.583l-.059.609-.233.609-.234.556-.145.583-.789 2.118-.437 1.31-.438 1.497 4.29.583.584-.344.612-.133.642-.053.613-.185.321-.742.248-1.8-.16-1.086v-.583l-.292-1.191-.117-.583-.204-.582-.321-.53-.409-.583-.992-1.297-.262-1.06-.088-.582.029-.636.263-.556.438-1.51.642-1.535.35-1.192.525-.318.613.212.263.582.612.345.554.265.614.211.641.027.642-.132.438-.45.263-.557.058-.582-.058-.636-.292-.556-.409-.477-.612-.291-2.685-1.007-1.576-.556-.467-.45-.584-.318-.612-.264-.526-.344-.671-.239-.613-.291-.583-.318-.526-.397-.408-.503-.438-.477-.38-.53-.378-.556.029-.635.554-.37h.7l.643.105.67.132.643.16.642.185.584.211.583.292.583.211.643.292.554.318.496.344.525.344.526.318.612.212.672.159 1.342.158.642.027 1.313.159.7.027h1.343l.788-.398h2.043l.67.106.614.186.642.079 1.955.635.671.106 1.343.265.496.37.525.319.35.503.233.556.205.583.233.556.263.582.467 1.086.525.345.642.026h.642l.642-.238.584-.265.73.053 1.43.265.612.08-.029.582-.234.582.35.477h1.401l2.16.291.904.106 1.197.08 1.4.185.614.133 1.312.238.643.132.612.106.613.132.584.239.554.265.555.291.583.238.526.318.583.371.584.318.555.344.466.37 1.576 1.06.525.37.438.45.496.345.613.133.525.344.263.582.409.45.496.345.612-.027.613-.238.555-.265.613-.212.612.053.526.292.496.424.291.555.059.583.234 1.218.291 1.827-.087.98.466.45.555.239.496.397.292.503.117.583-.088.635-.292.53-.38.556-.145.582.233.556.467.398.584.185 1.343.583.496.37.642.16.641.132.672.132.642.106.67.133.613.106.614.264.583.292.467.423 1.08.663.583.29.671.054.555-.265.584-.265.67-.132.643-.08.613-.026.583.238.526.37 1.371.478.642-.186.584-.265.612-.29.526-.319.496-.344.671-.159.613.053.671.159.613.291.496.424.583.291.526.345.584.211h1.4l.613-.211.555-.345 3.356-1.933.583-.291.555-.318.583-.238.584-.344 1.167-.61 1.225-.662.555-.265.613-.265 1.225-.37.642-.265.613-.185.584-.239.496-.397.788-.927 1.371-1.244.584-.265.643-.133.641-.079.613-.053h1.867l.643-.053.612-.185.614-.212.612-.265.554-.265.584-.318.73-.424.554-.343.934-.371.584-.212 1.488-.398.03-.9-.672-.211h-.7l-.671.132-.643.317-1.4 1.086-.496.398-.613.344-1.517.741-.643.239-.67.08-.643-.054-.642-.291-.32-.557.233-.555.35-.583.291-.53.205-.582.496-1.483.146-.636.7-1.615.205-.583.087-.582-.642-.265-1.518-.106-.7-.08-.73-.132-.875-.053-.7-.08-1.343-.211-.7-.133-.7-.105-.671-.133-.613-.185-.7-.133-.672-.106-.642-.053-.642-.132-.67-.159-.643.185-.438.477-.262.662-.409.556-.175.556 1.138.16.642.132.555.29.116.584-.671.053-.73.026-.612.238-.438.424.321.53 1.343.476.408.477.175.556-.525.477-.555.344-.554.45-.642.106-.671-.132-.467.45-.263.556-.438 1.748-.379.45-.613.265-.583.344-.7.16-.643-.16-.262-.556-.409-.503-1.372.106-.7.106-.35.53-.058.582-.409.477-.146.29-.32.504-.322.53-.613.318-.613.185-.583.265-.234.582-.174.557-.35.556-.643.185-1.225.53-.672.053h-2.684l-.964.45-.35.53-.525.344-.642.211-.642.027h-.67l-.672-.027-.672-.185-1.225-.583-.584-.37-.584-.292-.583-.424-.555-.343-.525-.398-.525-.37-.554-.318-.613-.318-.497-.37-.116-.583.35-.556.059-.636-.438-.477-.584-.265-1.109-.185-.583-.344-.234-.556-.38-.477-.262-.583-.234-1.165-.028-.583-.06-.635-.145-.61-.088-.608.03-.636.263-.556.466-.503.526-.318.612-.317.496-.345 1.226-.9.38-.503.116-.583.38-.476.583-.292.671-.106.642-.132.584-.265.554-.37.38-.504.116-.662-.437-.45-2.043.741-.67.106-.672.16-.613.264-.642.291-.525.344-.467.424-.525 1.139-.234.556-.35.53-.467.45-.496.45-.613.344-.642.159-.642-.185-.642-.265-.671-.185-.642.291-.613.239-.613-.186-.613-.318-.204-.609-.234-.556-.758-.45-.642-.026-.7.026-.555-.397-.817-.954-.525-.344-.642-.238-.613-.212-.583-.318-.176-.583-.38-.503-.641-.211-.7-.16-1.314-.37-.641-.08-.672-.158-1.313-.265-.642-.239-.555-.344-.466-.45-.73-.16-1.284.292-.642-.159-1.897-.344-.7-.185-.613-.265-.555-.345-.554-.423-.642-.239-.496-.37.03-.583.291-.556.584-.291.671-.16.642-.105.642.053.613-.08v-.609l-.555-.37-.409-.477.205-.61.642-.158.642.106h.642l.642-.08.583-.317-.408-.504-.67.107h-.702l-.7-.027.03-.61.437-.476-.32-.53-.555.371-.205.583-.263.556-.35.477-.495.423-.643.16-.525.37-.03.583-.408.45-.379.503-.408.45-.672.027-.671-.133-.584-.264-1.196-.662-.525-.424-.409-.503-.905-.795-.554-.37-.584-.345-.612-.344-.496-.397-.38-.504-.38-.556-.29-.582-.205-.636.175-.61.408-.555.438-.477 1.576-1.88.117-.583-.496-.45-.614-.185-.641-.265-.759-.16-.671-.185-.496-.397.175-.582.38-.53.32-.53 1.255-2.41.38-.53.758-1.323.467-.53.496-.45.467-.45.496-.371.496-.424.438-.45.408-.45.35-.477.41-.45.7-.636-1.11-.635-1.312-.557-1.956-.211-1.575.582-.672-.053-1.196-.053-3.59-1.033-.787-.53-.117-.529.321-.106.817.45.758.371.614.239 1.37.238 1.314.08h2.043l.613-.027.642-.08.671.106.613.132.642.186.613.238.583.186.584.291.67.318 4.758-3.92 3.268-3.045-.292-.397-.642-.292-.554-.37-.205-.61-.145-.609-.03-.662.088-.61.234-.582.437-.45 1.167-.662.642-.212.613-.265.613-.211.233-.557-.291-1.403-.35-.53-.613-.265h-.7l-.613.265-1.022.821-.642.265-.613.238-1.342.424-1.284.37-.613.265-.613.345-.612.291-.672.239-1.313.529-.671.239-.613.317-.613.239-.612.37-.613.345-.526.37-.583.398-.526.344-2.947 1.827-2.13.768-.555.345-.583.317-.526.397-.466.478-.38.476-.408.45-.496.477-.496.371-.555.397-.584.318-2.976 1.721-12.227 8.395-.847.37-.525.399-.555.344-.67.053-.672-.106-.7-.186-.642-.08-.642-.052-.671.132-.088.557.263.556.087.609-.671.053-1.08-.769-.379-.503-.438-.476-.525-.37zM99.272 133.09l.087.556-.116.583.38.503.641.239.584.184.379.478.525 1.19.205.557.175.556.117.583.379.503.642.185.642-.185.525-.318.38-.53.35-.555.146-.61.32-.556.671-.264.701-.133.671-.08.642-.052h1.43l.613-.027.613-.08.613-.184.554-.318.32-.53.235-.556.291-.53.059-.582-.497-.398-.7.107-.7.185-.613.238-.671.239-.642.185-.642-.185-.263-.61-.058-.609-.292-.556h-.73l-.641.027-.672.132-.612.265-.555.318-.613.238-.642.159-.67.053h-.672l-.671-.133-.642-.08-.672-.052-.423.093zM105.079 146.119l-.7-.583-.584-.344-.642.053-.642.106-.438.503-.116.583-.234.582-.32.504-.438.45-.35.503-.41.53-.262.555-.233.583-.146.583-.088.608.467.345.7.185.613.238 1.168.583.583.238.584.265 1.196.424.642.238.613.212.262-.556-.028-.61.32-.581.234-.583.175-.636.234-.556.262-.53 1.05-1.43.322-.53.671-.052-.058.556-.584.318.409.45.612-.212.496-.397.234-.583.029-.608-.292-.557-.525-.344-.642-.133-1.343.054-.641.08-.672-.027-.7-.186zM151.537 164.708l.248.172.233.199.278.132.291.106.19.239.044.29.131.266.292.132.32.08.22.238.102.304.19.252.277.145.262-.172-.029-.595.175-.252.307-.132.014-.292v-.622l-.072-.291-.278-.199-.336-.04-.291.16-.073.277-.22.252-.32-.013-.234-.239-.291-.172-.307-.093.015-.29.131-.279.015-.291-.059-.291-.291-.133-.321.093-.044.291-.16.265-.307.132-.117.133zM124.543 162.404l.19.199.234.212.291.145.278.16.291.132.307.092.306.014h.336l.32-.04.307-.066.307-.106.292-.159.248-.185.277-.16.306-.131.307-.014.306.027h.35l.321-.08.336-.066.335.026.307.12h.656l1.138-.027 1.168-.185.38-.08.306-.026 1.283.198.321.067h.672l.32-.027 1.008-.198.306-.027h.32l.643.08 1.211.225.583.079.322.066.32.053.336.04.482.092.627.106.336.08.306.133.277.132.321.08.321.026h.336l.32.026.278.159.204.212.19.225.452.212.321.08h.686l.35-.014.628-.146.598-.211.365-.014.306.014.642.172 1.226-.98-.03-.173-.233-.224-.32-.053-.322-.08-.35-.026h-.336l-.364.053-.7.08h-.351l-.335-.093-.132-.278.292-.173.292-.159.087-.29-.335-.094h-.336l-.32.014-.292.145-.132.265-.116.278-.293.173-.32.026-.686-.026-.336.013-.335-.08-.307-.146-.321-.079-.365-.013-.656.053h-1.05l-.95-.133-.364-.079-.35-.053-.35-.066-.978-.199-.336-.04h-.364l-.657.133-.335.053-.336.079-.336.027-.306-.093-.146-.582-.234-.239-.35-.066-.335.066-.32.12-.293.132-.292.159-.32.106-.468.198-.32.067-.307.079h-2.306l-.335.026-.321.014h-1.678l-.365-.014h-.671l-.35.027-.248.185-.292.33-.336-.012.03-.305.014-.304-.321-.093-.321.08-.044.278-.204.238-.336.08h-.335l-.248-.212-.22-.252-.335-.026-.306.211zM85.615 166.403l-.088-.927.35-.662.38-.477-.03-.582-.233-.582-.408-.477-.525-.45-.468-.45-.496-.504-.379-.53-.38-.555-.262-.557-.233-.582-.322-.582-.233-.583-.146-.662.03-.61.496-.423.554-.318.612-.29.555-.32.525-.343.468-.424.554-.344.584-.185.204.555.029.583.35.503.584.292.583.211.643.08.641-.053.788-1.483.321-.503.321-.689.438-.82.526-.344 1.634-.292.642-.053.612.026h.643l.641-.238v-.582h-.788l-.642.026-.642.08H92.59l-.641.052-.526.371-.263.556-.642.212-1.342-.106-.73.053-.671.159-.613.186-.641.106-.642.238-.613.211-.526-.37h-.73l-.35.503-.583.318-.642-.053-.555-.37-.175-1.166-.058-.662-.204-.609-.292-1.245-.204-.556-.35-.583-.672-1.059-.408-.476-.496-.37-.672-.134-.642-.185-.612-.212-.73-.158-.642-.213-.583-.317-1.518-1.51-.525-.45-.555-.317-1.225-.556-.847-.45-.612-.477-.467-.45-.496-.425-.292-.582-.292-.609-.175-.212-1.43.398.32.317.439.477.233.53-.116.582-1.051 1.589-.525.424-.672.158h-.642l-.67.027h-2.102l-.671-.053-.613-.239-.642-1.853.146-.53 1.75-1.218-1.43-.265-1.268.278-.89.173-.672.463-.452.026-.423.146-1.022.146-.656.198-.234.172-.043.2.409.29 1.006.888.175.265.233.211.278.16.569.304.219.225.072.291.293.848.145.264-.19.384-.203.239-.35.437-.19.265-.526.82-.145.278-.117.278-.03.291-.014.398.437.847.249.186.306.158.321.053h.336l.335-.066.307-.106.291-.119.293-.146.262-.211.19-.278.073-.305v-.318l.058-.33.131-.279.307-.132.35.04.248.185.306.013.336-.066.277-.159.876-.45.306-.066.306-.027h.322l.262.146.19.238-.146.305-.205.265-.16.304-.102.278-.248.543-.059.291-.073.305-.496 1.191-.204.556-.234.53-.291 1.218-.204.636-.263.582-.7 1.006-.497.398-.583.344-.584.318-.496.423-1.897 2.093-1.167.714-.525.689-.409.477-.496.423-.525.345-.642.238-.671.132-.76.132-.553-1.218-.73.239-.554.318-.643.185-.7.159-.671.106-.992.344.438 1.88 4.202-1.271 9.134 6.196.788.69.904-.054 1.693-1.139 12.49-12.525 1.02-.45.497-.053.613.344 1.371 2.013-.058.582.934.953 2.51 4.079.408 1.138.088.583v.582l-.088.61-.117.582.117.556.234.556.291.53-.116.582-.496.371-.263.556-1.547.636-1.196.29-.336.345-.292.49-.291.622-.54.477-.176.609-.116.582-.146.557-.204.556-.38.317-.437.106-.365.463.014.332-.262.927-.146.953-.467 1.138-.554 1.086-.409 1.218-.087 1.086-.438 1.377-1.109 1.112-.759 1.138-.817.795-.905.768-.73.953-1.079.556-.875.662-.205 1.085.321.9.788-.582 1.197-.741.408-.477.35-.503.292-.582.38-.503.467-.397.612-.292.584-.238.554-.291.832-.106h.598l.307.158.335.742.263.503.088 1.27.175 1.14.204.582.233.53.322.53.262.555.03.583-.176.61-.233.555-.263.953.263.556.291.557.322.555.291.53.76 1.694.174.557.262.556.176.635.262.556.613.08.613-.106-.088-.689-.32-.53-.292-.661.029-.61.087-.582v-1.8l-.029-.61-.262-.608-.409-.504-.263-.582-.087-.609-.292-1.218-.175-.635-.263-.583-.7-1.668-.204-.636-.234-.556-.262-.556-.234-.582-.175-.583v-2.463l-.058-.608-.175-.636-.03-.636.175-1.191 1.11-1.589.233-.556.262-.583.468-.423.554-.318.408-.41.234-.53-.16-.702-.074-.701.088-.517.525-.344.38-.477.145-.582.321-.61.468-.45 2.159-1.614.438-.424.408-.477.525-.37.613-.212.672-.027.612.238.584.212.671.16.584.264.554.291.496.345.613.132h1.313l.671-.053.613-.08h.642l.496.344.38.503.583.186.613.238 1.021 1.06.496.37.38.504.38.529.554.927.38.82.35.477.35.556.408.45.38.583.35.609.35.53.379.53.35.688.672.105 1.313.08.613.133.554.29.496.451.321.503.292.503.233.556.496.37.613.266.234.529.087 1.112.117.636.059.582v2.436l-.205.795v.609l.117.556.263.741.233.556.204.61.117.582.03.583-.176.582-.32.689-.176.608.146.557.554.344.613.212.613.238 1.546.953 1.606 1.06.466.396.409.45.409.477.35.53.408.45.526.794.233.53.292.503.204.53.292 1.297.117.715.058 1.218.263.556.467.424.787.132.73-.106h.642l.525.318.292.556.35.556.38.503.467.371.67.37.497.37.642.875.175.556-.058.635-.263.662-.233.556-.205.556-.263.9.205.583.175.609.204.557.321.502-.058.795-.263.556-.32.53-.205.555-.525 1.165-.176.583-.116.583-.233.556-.205.556-.087.556.583.211.555-.264.408-.45.496-.45.526-.345.583-.212 1.226-.423.613-.186.613-.238.612-.159.613-.265.613-.211.584-.239.467-.476-.175-.61-.35-.529-.088-.61.175-.582.525-.37.642-.027.584.238.321.53-.234 1.218.467.424.467.37 1.05 1.112.35.53.322.556.788.212.408-.477-.408-.767-.409-.503-.262-.69.262-.555.905-.053.554.318.525.344.614.212.612.053.613-.133.584-.265.146-.132.583-.29.35-.478-.262-.582-.146-.583.204-.582.263-.583-.117-.608-.613-.213-.7.08-.234.582-.642.186-.437-.477-.613-.317-.642-.186-.555-.318h-.7l-.642.186h-.671l-.671-.159-.613-.318-.876-.9-.787-1.297-.263-.557-.7-1.72-.175-.583-.526-1.165-.204-.583-.175-1.059-.467-1.139-.117-.608-.087-.583-.293-1.218-.233-.61-.408-.502-.672-.106-.67-.08-.642.16-.934.529-.584.344-1.08.848-.584.264-.642.186-.641.053-.614-.212-.612-.265-.554-.37-.438-.477-.321-.53-.234-.556-.204-.635-.175-1.218-.059-.636-.029-.662v-1.297l-.32-.556-.322-.53-.32-.583-.322-.529-.379-.503-.32-.556-.322-.53-.234-.556-.525-1.165-.233-.609-.146-.662-.321-1.986.38-1.245.32-.556.438-.503.467-.397.38-.503.145-.582-.029-.61-.117-.609v-.582l.292-.53.525-.344.642-.159.643.08.612.106.642-.106.584-.291 1.517-1.192-1.109-.45-.671.424-.817-.054-.613-.264-.642-.027-.7.106-.642.185-.554.345-.642.238-.672.133h-.642l-1.371.29-.672.08-.642-.159-1.108-.688-.584-.291-.613-.292-.583-.344-.526-.397-.496-.424-.496-.397-.554-.424-.555-.344-.583-.318-1.606-1.483-.933-.714-.38-.477-.408-.477-1.05-1.642-.351-.529-.292-.583-.058-.635-.204-.556-.555-.371-.642-.291-.204-.583.146-.582.758-.715.03-.61.525-.29.963-.768.204-.583.175-.583.438-.476.584-.318.612-.106h.642l.672.08.554.238.525.344.642.053.613-.08.525-.343.584-.24.584.186h.846l.204-.556-.03-.582.351-.53v-.582l-.642-.345-.671-.026-.671.132-.496.371-.292.53v.582l-.263.556-.642.16-.67-.134-.585-.343-.67-.133-.672-.027h-.7l-.672.186-.612.344-.934 1.007-.292.529-.262.556-.497.424-.612.264-.643.213-.379.502-.233.53-.526.424-.642-.027-.496-.424-.642-.105-.7.026-1.021.133-1.343-.265-.612.185-.613-.318-.234-.609-.233-.556-.38-.556-.525-.37-.613-.265-.7-.133h-.671l-.642-.08-.613-.264-.409-.45z" clip-path="url(#pdc6aa0974b)" style="fill:#006400;fill-opacity:.8"/></g><g id="PathCollection_1"><defs><path id="m978bc267f2" d="M0 3a3 3 0 1 0 0-6 3 3 0 0 0 0 6z" style="stroke:green;stroke-opacity:.8"/></defs><g clip-path="url(#pdc6aa0974b)"><use xlink:href="#m978bc267f2" x="112.856" y="163.967" style="fill:green;fill-opacity:.8;stroke:green;stroke-opacity:.8"/><use xlink:href="#m978bc267f2" x="113.513" y="163.596" style="fill:green;fill-opacity:.8;stroke:green;stroke-opacity:.8"/><use xlink:href="#m978bc267f2" x="114.125" y="163.583" style="fill:green;fill-opacity:.8;stroke:green;stroke-opacity:.8"/><use xlink:href="#m978bc267f2" x="114.49" y="163.609" style="fill:green;fill-opacity:.8;stroke:green;stroke-opacity:.8"/><use xlink:href="#m978bc267f2" x="114.782" y="163.649" style="fill:green;fill-opacity:.8;stroke:green;stroke-opacity:.8"/><use xlink:href="#m978bc267f2" x="115.818" y="164.099" style="fill:green;fill-opacity:.8;stroke:green;stroke-opacity:.8"/><use xlink:href="#m978bc267f2" x="120.108" y="163.119" style="fill:green;fill-opacity:.8;stroke:green;stroke-opacity:.8"/><use xlink:href="#m978bc267f2" x="119.67" y="163.331" style="fill:green;fill-opacity:.8;stroke:green;stroke-opacity:.8"/><use xlink:href="#m978bc267f2" x="119.422" y="163.397" style="fill:green;fill-opacity:.8;stroke:green;stroke-opacity:.8"/><use xlink:href="#m978bc267f2" x="119.014" y="163.53" style="fill:green;fill-opacity:.8;stroke:green;stroke-opacity:.8"/><use xlink:href="#m978bc267f2" x="117.934" y="163.821" style="fill:green;fill-opacity:.8;stroke:green;stroke-opacity:.8"/><use xlink:href="#m978bc267f2" x="118.298" y="163.834" style="fill:green;fill-opacity:.8;stroke:green;stroke-opacity:.8"/><use xlink:href="#m978bc267f2" x="118.123" y="163" style="fill:green;fill-opacity:.8;stroke:green;stroke-opacity:.8"/><use xlink:href="#m978bc267f2" x="118.386" y="163.173" style="fill:green;fill-opacity:.8;stroke:green;stroke-opacity:.8"/><use xlink:href="#m978bc267f2" x="118.255" y="163.411" style="fill:green;fill-opacity:.8;stroke:green;stroke-opacity:.8"/><use xlink:href="#m978bc267f2" x="117.963" y="163.477" style="fill:green;fill-opacity:.8;stroke:green;stroke-opacity:.8"/><use xlink:href="#m978bc267f2" x="117.511" y="163.225" style="fill:green;fill-opacity:.8;stroke:green;stroke-opacity:.8"/><use xlink:href="#m978bc267f2" x="117.496" y="163.49" style="fill:green;fill-opacity:.8;stroke:green;stroke-opacity:.8"/></g></g><g id="PatchCollection_2"><path d="m175.276 462.676-.2.057-.146-.424.2-.057zM173.744 459.685l-.132-.289.35-.132.132.289zM171.103 460.003l-.233-.344.276-.154.233.344zM172.65 460.836l-.218-.5.482-.173.217.501zM173.963 463.774l-.583-.158.177-.538.584.158zM154.426 469.439l-.428-.156.146-.33.428.155zM156.323 468.221l-.143-.211.263-.146.142.212zM154.572 467.427l-.171-.351.496-.199.17.352zM156.95 467.202l-.336-.198.161-.224.336.199zM157.373 466.408l-.38-.212.155-.227.38.211zM156.41 466.17l-.474-.263.32-.476.475.263zM155.345 465.125l-.435-.192.233-.437.436.192zM154.134 465.985l-.3-.368.393-.265.301.368zM414.166 297.09l.072-.219.343.093-.071.218zM413.532 297.36l.01-.21.336.014-.01.21zM415.896 297.083l.087-.173.307.13-.087.171zM404.617 293.998l.176-.41.598.212-.176.41zM404.31 291.284l-.32-.29.437-.398.321.291zM404.179 292.251l-.293-.19.467-.595.293.19zM392.857 259.851l-.185-.1.139-.209.184.1zM393.178 260.192l-.128-.08.117-.152.127.08zM393.546 260.437l-.23-.152.157-.196.23.153zM393.163 263.22l-.554-.132.114-.396.555.133zM389.559 258.931l-.366-.159.176-.331.365.16zM475.939 128.204l-.492-.432.234-.219.492.432zM474.665 129.81l.152-.743-.503-.085-.153.743zM628.778 242.357l-.438-.516.5-.35.438.516zM627.26 242l-.583-.795.74-.448.584.794zM148.298 134.97l-.132-.225.303-.145.132.225zM149.086 134.533l-.424-.08.07-.302.423.08zM148.487 136.625l-.263-.516.365-.153.263.517zM148.837 129.131l.03-.45.496.025-.03.451zM145.715 129.012v-.424h.51v.424zM103.372 131.356l-.057-.097.124-.06.057.097zM104.204 131.183l-.04-.125.175-.047.04.126zM104.773 130.886l-.088-.257.306-.086.088.257zM105.451 131.375l-.082-.272.321-.08.082.273zM104.561 131.673l-.065-.324.258-.043.066.324zM104.043 131.686l-.052-.18.248-.059.052.18zM103.03 132.316l-.13-.288.568-.212.13.288z" clip-path="url(#pdc6aa0974b)" style="fill:#a9a9a9;fill-opacity:.8"/></g></g></g><defs><clipPath id="pdc6aa0974b"><path d="M90 113.105h558v500.99H90z"/></clipPath></defs></svg>