<svg xmlns="http://www.w3.org/2000/svg" xmlns:xlink="http://www.w3.org/1999/xlink" width="960" height="960" viewBox="0 0 720 720"><defs><style>*{stroke-linejoin:round;stroke-linecap:butt}</style></defs><g id="figure_1"><path id="patch_1" d="M0 720h720V0H0z" style="fill:#fff"/><g id="axes_1"><path id="patch_2" d="M111.42 640.8h515.16V86.4H111.42z" style="fill:#fff"/><g id="LineCollection_1"><path d="m403.277 324.33.908-.117 1.508.177 1.415.615M410.478 327.63l-.882-.688-1.443-1.067-1.045-.87M412.458 312.1l-.25.917-.28.972-.306.753-.257.863-.393 1.85.715 1.16-.094 1.149-.185 1.376-.505 2.385-.566 1.402-.687.747-.875.29-1.29-.976-.377.017M375.143 358.202l.86-.063M375.143 358.202l-.115-.295M372.175 359.502l1.589-.707.535-.214.844-.38M368.156 360.32l.8.267M365.327 359.217l1.653.691 1.176.412M368.156 360.32l.63-.098M353.078 363.447l1.092.627M354.17 364.074l-.62 1.33M354.17 364.074l1.204-2.118M353.55 365.404l2.628-.514M353.325 366.737l.016-.525.08-.4.129-.408M353.325 366.737l-2.21.789M353.325 366.737l.47 1.618M356.372 365.932l-2.256.523-.37.105-.42.177M354.77 371.178l-.497.298M354.77 371.178l-.975-2.823M354.77 371.178l1.668-1.125M351.055 375.984l1.884-1.456M350.586 378.418l.064-.596-.028-.348-.112-.345-.105-.294-.014-.118.054-.122.61-.611M351.804 372.977l-1.87 1.315-.065.077-.012.082.03.094 1.168 1.439M350.586 378.418l-.524.663" clip-path="url(#pd19b53bbef)" style="fill:none;stroke:#000"/><path d="m358.34 374.28-.798.152-.358.13-.369.207-2.068 1.422-1.647 1.004-1.157.62-1.357.603M341.036 383.075l2.281-.055M332.152 386.015l1.952-.643 2.562-.972 1.719-.69 1.245-.44.554-.125.852-.07M324.534 378.113l-.08.476.056.147.356.921.475.736.297.205.361.063.571-.079 2.409-.648 1.117-.3.811-.173 1.052-.118 1.535-.094 1.526-.204 1.132-.203.57.004.506.148.454.2.607.486 1.855 2.22.892 1.175M294.732 372.165l-1.735 1.066M294.732 372.165l-.802-.22M313.93 379.658l-.504-.096-1.74 1.005-.067.888-.338.414-.582 1.675-.427.11-.795-.039-1.314-.859-1.415.07-3.084-1.63-.9-1.066-1.606-2.76-1.671-1.63-2.378-2.76-2.377-.815M264.146 364.592l2.167.433 2.98 1.377 1.911-.77 1.654-1.067.402.189 1.8-.597 1.005.316.202.307.33.118.406.754.728.264.3.22.51.036.112.073.3.622.81.125.519-.225h.212l.018-.074 1.11-.051 1.177.269h.785l.293.637.993.425M276.413 358.67l.524.871.407.892.253 1.125.181.42 1.113.31.378.268 1.086 1.292.71.543 2.807 1.627.762 1.017.236.938M292.36 371.677l-.682-.77-.613-.105-.775-.39-.97-1.055-.414-.28-.729-.299-1.53-.446-.242.169-.736-.074-.8-.454M358.085 364.488l.124-2.096M358.085 364.488l-1.907.402M358.085 364.488l.76 1.454M359.854 367.24l.916 1.205M359.854 367.24l-1.01-1.298M357.036 369.653l1.06-.807 1.758-1.607M362.43 364.689l-.485.461-2.091 2.09M356.438 370.053l.94 1.097M356.438 370.053l.598-.4M365.7 379.21l.079.372M366.541 377.207l-.08.341-.124.349-.636 1.314M365.7 379.21l-2.84-2.728M366.541 377.207l-2.244-2.082M366.553 375.879l.041.657-.024.353-.029.318M362.697 370.765l-1.927-2.32M362.697 370.765l1.403 1.753M362.697 370.765l-1.497 1.503M364.315 366.207l-.123.375-.158.48-1.337 3.703M365.54 363.236l2.595 1.42M365.54 363.236l-1.25-.526M365.54 363.236l-.55 1.32M364.29 362.71l-.562-.073M365.225 359.731l-.04.146-.36 1.173-.219.713-.315.947M362.385 394.372l.908-3.479M359.863 392.412l.024.62.11.472.3.507.209.161.256.094 1.623.106M364.988 403.897l-.475-.815-.98-1.78-.264-.682-.21-.737-.481-2.979-.193-2.532M361.627 383.725l1.189.025M361.56 380.384l.086 1.327-.02 2.014M361.25 386.757l.123-.985.254-2.047M361.56 380.384l1.288-.106M360.75 378.346l.499.868.104.204.064.203.143.763M355.445 422.462l2.675-.753M349.228 499.98l.386-1.944-.13-1.944-.454-1.027.579-1.128-.386-4.202.707-.941.794-2.564.041-.133.579-.69.707-2.947 1.542-2.383.835-3.889.321-2.195 1.607-2.258.385-1.818 1.157-1.819.193-1.129.9-2.132.127-1.191 1.543-3.324.321-2.258-1.028-1.38-.321-2.257.964-2.07-.514-2.07-.065-2.571-1.157-2.383-.064-1.694-1.349-3.512-1.478-3.387-1.157-.69-.041-.292-.216-1.526v-4.767l.227-3.855.31-3.04.352-.108" clip-path="url(#pd19b53bbef)" style="fill:none;stroke:#000"/><path d="m355.009 427.124.073-1.713.154-2.23.21-.72M361.454 420.682l-3.334 1.027M361.767 414.183l-.21 2.305-.063 1.12-.04 3.074M373.148 417.201l-4.161 1.394-7.533 2.087M365.571 492.245l-.864-.996-.19-.557-.113-.758-.285-.321-.294-.895-.354-.295-1.132-.506-.116-.321-.091-.252 1.002-.878.484-.54.069-1.788.96-2.134-.026-1.106.31-.337.813-.531 2.559-.355.579-.194.977-.506.25-.97.969-1.611.414-.346 1.012-1.207.69-.396.805-1.485.518-.337.58-.093.561-.346.614-.632.726-1.654 1.322-2.295.39-1.586-.182-1.257.095-.489.035-1.097-.182-2.328-.406-.87-1.089-3.365-1.737-1.822-.778-2.337.276-1.772.475-.953 2.092-3.383-1.028-3.459.25-.447.527-.531-.397-.987-.95-1.384-.822-1.038-1.02-1.08-3.163-1.898-2.3-1.037-1.149-.903-.916-.556-.787-.929-.847-.472-.519-.624-1.192-.068-.277-.22-.192-.33-.69-1.188-.881-2.041-.778-1.08 2.178-2.784v-1.738l-.902-.868M364.554 406.578l-.402.902-.209.603-.12.542-.016.572.31 3.426-.029.395-.08.267-.137.2-.173.118-1.931.58M358.12 421.709l.126-2.503.236-2.475.184-1.364.049-.177.124-.153.23-.121 2.698-.733M364.554 406.578l.22.077M364.988 403.897l.112.534.016.47-.08.47-.482 1.207M366.25 511.33l1.608 2.236-1.478.752.117.656.34.424M374.315 516.57l-.95-.314-.656.076-.928.975-1.417-.042-.9-.689-1.335-.386-.9-.413-.393-.379M363.252 514.052l.554-.132.489.062.802.508.512.895 1.227.013M363.252 514.052l-.435-.249-.705-.049-.644-.514-.26-.35-.469-1.135-.461-.042-.355-.405-1.18-1.327-1.748-.337-.738.06-.694-.08-1.06-.2-.787-.392-1.207-.166-.502-.36-.498-.26-.75.021-.836-.108-.616.067-.797-.18-.351.207-.658-.124-.799-.267M349.228 499.98l-1.542 3.073-.772 3.575-.212 1.234M343.078 509.155l.522.144.252-.241.713-.081.167-.187-.06-.213.235-.276.42-.243.907.085.468-.28M365.327 359.217l-.102.514M365.327 359.217l-2.367-1.25M366.598 354.706l-.443.98-.156.436-.622 2.344-.053.36.003.39M371.296 366.137l.64-1.323M371.296 366.137l-1.867 4.035M371.296 366.137l-3.16-1.48M371.296 366.137l2.64 1.438M387.42 355.21l2.178 3.983M376.003 358.139l.142-.01 1.32-.142 1.282-.223 1.96-.294 1.702-.431 5.01-1.829M392.815 352.245l-.47.537-.94.69-1.638.807-2.348.931M271.222 359.65l-.897-.189-.52-.051-.59-.185-.298-.064-.167-.326.483-.791.195-.262M265.356 360.419l1.143-1.523 1.128-.025.926-.824.875-.265" clip-path="url(#pd19b53bbef)" style="fill:none;stroke:#000"/><path d="m276.413 358.67-.835-.52-.211-.385-.592-.49-1.213-.845-1.004-.18-.352.14-.649-.241-.434.028-.785.465-.112.314-.798.826M400.767 357.763l2.397-1.223M400.767 357.763l-1.763 1.097M404.387 364.42l.05-.231.02-.223-.06-.275-.16-.349-1.98-3.332-1.49-2.247M400.096 351.269l-1.305.639-.438.23-.426.303-.1.133-.008.149.052.153 2.896 4.887M280.288 356.132l-2.078.483-1.797 2.054M346.184 358.44l-1.21.48-2.434 1.122M335.796 366.446l2.434-1.981 3.002-3.29 1.308-1.133M338.3 358.262l.72-.046.34-.186h1.167l.457.124.499.352.763.922.294.614" clip-path="url(#pd19b53bbef)" style="fill:none;stroke:#000"/><path d="m346.4 358.975-3.414 1.195-.446-.128M354.762 361.487l.612.47M346.4 358.975l.103.258 1.215.165.116.026.181.019.661.285.744-.364 1.064.005 4.278 2.118M354.762 361.487l.874-.06M368.787 360.222l.169.365M371.638 359.193l-1.393.747-.495.176-.963.106M396.256 360.503l3.805 6.543M396.256 360.503l2.385-1.417M396.256 360.503l-2.156 1.24M363.728 362.637l-.864-.112M363.728 362.637l-.27.586M391.824 362.982l3.854 6.177M391.824 362.982l-1.471-2.504M391.824 362.982l2.276-1.239M391.824 362.982l-2.243 1.393M363.165 363.72l1.825.836M363.165 363.72l.293-.497M362.43 364.689l.437-.555.298-.414M362.43 364.689l-.358-.308M363.691 365.759l-.067-.062-1.194-1.008M404.387 364.42l-2.034 1.11M405.618 360.858l1.054 1.637.094.181.077.179.058.128.03.174-.082.12-.161.103-.333.162-1.968.878M364.315 366.207l.034-.083.641-1.568M364.315 366.207l-.624-.448M366.24 367.403l-1.82-1.13-.105-.066M400.061 367.046l2.292-1.517M397.75 368.117l1.302-.51.634-.298.375-.263M367.458 368.25l-1.217-.847M366.7 375.6l.32-5.625.056-.565.104-.407.278-.753M368.823 368.101l-.723.321-.124.018-.132-.017-.386-.173M360.77 368.445l-3.393 2.705M301.618 372.714l-.386-.282-.526-.586-.405-.227-.69-.608-.548-.49M280.288 356.132l1.737.813.617.282 2.073 1.788.77.426.923.218.539-.12.903.63.477.01.337-.226.593.783.45.286.262.036.376-.227.368-.029.69.315 1.148 1.42.592.448.616.784 1.163 1.706.517.908.66.542.285.52.459.27.922 1.34.638.448.66 1.017M293.93 371.946l.739-.392.722-.407.868-.063.642.25.338-.03.192-.267.143-.077.801-.432.688-.008M335.3 366.85l-.298.244-1.644.82-3.896 2.076-3.175.613M330.6 367.07l-.418.468-.446.113-1.613 1.16-.499.622-1.125.797-.212.373M315.474 373.635l.796-.393.478-.56.86-.424 1.549-.549.466-.31.839-.125h.52l.541.124 1.867-.051 1.348-.352.722-.021.827-.371M307 375.764l-.387-1.756-.044-.908-.18-.454.165-.395-.436-.571-.085-.497" clip-path="url(#pd19b53bbef)" style="fill:none;stroke:#000"/><path d="m312.188 374.973.075-.572-.41-1.034-1.135-1.053-.511.334-1.434-.89-.494-.256-.469-.304-.236-.44-.707.361-.834.064M301.618 372.714l.858.192.255-.387.19-.283.522.233.655-.154.675-.635.474-.188.23.145.556-.454M357.377 371.15l.84.867M355.258 372.775l.818-.582 1.301-1.043M292.36 371.677l1.57.269M290.615 374.501l.11-.184.346-1.07.165-.951.195-.25h.51l.27-.146.15-.223M351.804 372.977l1.135 1.55M351.804 372.977l2.469-1.5M359.606 373.428l-1.266.851M359.606 373.428l.177.18M359.606 373.428l-1.39-1.411M312.188 374.973l.539-.007 1.08-.813.72-.132.428-.307.52-.079" clip-path="url(#pd19b53bbef)" style="fill:none;stroke:#000"/><path d="m312.864 378.307.517-1.058.336-.89.226-.598 1.531-2.126M358.34 374.28l.663.602M352.94 374.528l2.318-1.753M312.188 374.973l.125 1.449M312.313 376.422l-.64-.225-.651-.402-.551-.151-2.028.727-.623-.387-.82-.22M301.618 372.714l.296.253.863.432.39.351 1.238 1.494 1.719.637.876-.117M366.553 375.879l.147-.278M366.553 375.879l-1.231-1.662M312.864 378.307l-.12-.14-.18-.168-.132-.289.204-.342-.323-.946M319.46 379.278l1.941-.187 1.71-.54.763-.658.22-.049.316.099.124.17M339.824 366.11l-4.975 4.111-2.363 1.977-2.986 2.194-3.286 2.69-.89.783-.79.248M313.93 379.658l-.143-.304-.855-.212-.33-.198.262-.637M313.93 379.658l.899.103.683-.175 1.793.005.736-.195 1.42-.118" clip-path="url(#pd19b53bbef)" style="fill:none;stroke:#000"/><path d="m320.751 375.62-2.89 2.676 1.6.982M288.576 376.905l-.236.254-.84 1.113-.09 1.537-.376 1.158-1.425 1.288M367.278 509.814l.727-.909-.066-1.775-1.73-2.88 1.179-4.32.374-.492.243-.272.185-.248.554-.355.337-.675.26-1.003-.243-1.764-.44-1.029-.64-.894-.467.017-1.98-.97M349.228 499.98l1.06.115 1.863-2.154 1.897-2.518 1.96-.188 2.28-.941 1.414.314 2.313-1.098 2.121.565 1.435-1.83M362.654 360.71l-.099 1.767M362.864 362.525l-.309-.048M362.864 362.525l-.199.598M410.478 327.63l.871.361.715.157.972-.023 1.368-.221 1.783-.56 1.813-.771.723-.612.61-.753.603-1.254.273-.949.056-.917-.538-7.715.128-1.026.45-.918.811-.745 1.286-.486 3.893-.61 1.255-.386.691-.352.875-.73 1.422-1.685.458-.792.289-1.02.105-1.332-.33-3.152-.69-3.465-.892-3.865-.113-1.796.217-1.23.723-1.553 2-3.34.964-.996 1.189-.674 1.558-.376 1.309-.079 1.406.26 5.726 1.653 1.181.031.836-.234.723-.612.506-.854.12-.612-.12-.785-.313-.791-.996-1.13-5.455-4.515-1.14-1.152-.674-.989-.475-1.293-.104-1.254.193-1.773.441-1.991 1.23-3.81.891-1.584.886-1.172 7.34-8.197 1.55-1.467.77-.439.82-.195 1.068-.024 1.14.227 1.06.627 3.697 3.68 3.3 2.385 1.658.822 2.426.671 9.176 2.013 1.652.26 1.873-.174 2.122-.544 1.531-.525M487.109 255.033l-.24.902-.9 1.955-1.363 1.574-1.236.814" clip-path="url(#pd19b53bbef)" style="fill:none;stroke:#000"/><path d="m490.423 258.28-3.645 1.49-3.408.508M258.497 541.873l.063-.723M251.51 545.648l.882-.201.592-.602.654-.118.4.208.463-.08.315-.395.305-.304.58-.369.459-.213.466-.185.146-.28.443-.03.375-.142.222.126.312-.234-.097-.147.149-.27.108-.063.213-.476M343.078 509.155l-.766-.077-2.246-.971-.417-.096-.527.003-.29.118-.353-.094-.228.417-.286.154-.398.065-.455.373-.451.575-.519-.1-.288.176-.38.016-.491.213-1.046.225.064.43-.15.111-1.2.103-.083.205-.398.233-.23.004-.438.208.005.296-.23.182-.017.294-.995.516-.73.028-1.387.644-.826.011-.198.232-2.012-.174-.712.393-.885.043-.316.407-.06.87-.594.972-.662.333-.65.152-.166.2-.272.053.029.406-.36.147-.365-.096-.595.046-.616.966-.224.606-.393.173.127.778-.062.61-.193.267-.388.208-1.82.719-1.356.129-.925.649-.46.08-.434.23-.392.04-1.131-.003-1.006.109-.29.204-.513.05-.27-.133-.417.015-.706.327-.287.037-.288.268-.943.047-.479-.287-.707.338-1.965.152-1.756.789-.575-.003-.357-.105-.136.178-.435-.15-.281-.271-.635-.251-.768.05-.117.226-.199.127-.066.51-1.25.63-.85.158-.207.325-.739-.077-.076.38.082.3-3.1.792-.492.323-.84.322-.368.553-1.316 1.085-.128.36-.266.212-.554.844-.978.153-.677.44-.378.11-.535.48-.085.146-.454.132-.659.075.052.33-.22.23-.395.141-.33-.102-.254.049-.105.212-.416-.167-.384-.007-.458.278-1.175.273-.302-.158-.238.144-.72.268-2.275-.285-1.23-.06-.182.203-.275.012-.409.537-.226.047-1.625.846-.3.26-.651-.029-.623.083-.457-.493.066-.151-.192-.246.048-.279-.15-.229-.379.01-.453.235-.928.006-.026-.083-.132-.006-.376.312-.428-.073-.56.274-.194.266-.076.445-.292.225-.568.115.026-.117-.135-.098-.195.123-.857.159-1.365 1.404-.044.179-.304.116-.192.34-.266.044-.105.172-.197.011-.413.257.061.312-.318.267.054.178-.37.459.232.331-.074.26-.23.19-.022.217-.18.01-.488.346-.082.216-.46-.03-.207.283-.216.144-.29.09-.307-.08-.524-.03-.368-.136M355.636 361.427l-.262.53M358.28 361.86l-2.031-.316-.613-.117M358.28 361.86l-.07.532M358.28 361.86l1.121.184M360.95 363.88l1.122.5M368.135 364.657l-.208.312M356.178 364.89l.194 1.042M362.348 367.26l.974-1.09.37-.411M356.692 367.492l.802-.27.454-.371.36-.283.537-.626M360.202 364.064l-.187.286-.706 1.002-.464.59M356.372 365.932l.32 1.56M356.692 367.492l-.219.06M373.936 367.575l-4.217 8.319M378.289 369.92l-.699-.44-3.654-1.905M356.473 367.551l.563 2.102M356.473 367.551l-2.678.804M366.24 367.403l1.687-2.434M364.1 372.518l.366-1.328.224-.804.31-.701 1.24-2.282M368.823 368.101l.606 2.071M367.927 364.969l.342 1.03.554 2.102M378.289 369.92l-1.117 3.089M378.289 369.92l3.373 2.328M367.349 374.592l1.405-2.892.675-1.528M361.2 372.268l-.797-.888-.118-.104-.115-.041-.11-.008-.66.092-.268.065-.184.088-.732.545M364.297 375.125l-1.39-1.348-1.707-1.51M359.783 373.608l.988-.909.43-.431M364.1 372.518l1.222 1.7M365.322 374.217l-1.025.908M367.349 374.592l-.65 1.009M367.349 374.592l2.37 1.302M364.297 375.125l-1.438 1.357M369.719 375.894l5.227 3.05M362.86 376.482l-1.073 1.086M362.86 376.482l-3.077-2.874M361.787 377.568l-2.784-2.686M361.787 377.568l-1.037.778M362.848 380.278l.051-1.08-.02-.243-.052-.204-.085-.165-.955-1.018M374.946 378.943l1.568-4.17M374.946 378.943l2.74 1.827M363.293 390.893l1.639-6.446.758-3.76.069-.493.02-.612" clip-path="url(#pd19b53bbef)" style="fill:none;stroke:#000"/><path d="m362.848 380.278 1.453-.162.502-.126.418-.153.558-.255M362.848 380.278l-.032 3.472M362.214 390.704l.324-2.165.08-.87.016-.666.182-3.253M362.214 390.704l1.08.19M360.843 392.985l.281-1.028.25-.439.344-.337.496-.477M359.212 386.18l2.038.577M359.212 386.18l-.527-.103M358.32 379.033l.186 1.243.369 2.18.25 1.74.063 1.066.024.918M387.618 375.364l.815-.784M384.827 377.783l.33-.596.369-.768.385-.867.145-.16.156-.07.16-.024 1.246.066M387.493 378.787l.49-1.568.218-1.1-.01-.105-.043-.097-.1-.125-.43-.428M360.008 378.365l.128.102.108.027.117.004.139-.03.25-.122M356.144 385.246l.763.361.41.126 1.368.344M357.541 388.845l.63-1.45.514-1.318M395.879 383.831l.699.545M395.42 382.582l.232.632.227.617M393.49 384.478l.514-.22.417-.133 1.458-.294M352.176 386.72l3.23 1.333M352.514 389.895l-.514-1.309-.073-.34.009-.416.24-1.11M352.923 384.823l-.236.15-.145.175-.085.236-.28 1.336M348.867 384.549l2.692-.714M351.56 383.835l-2.044 1.074-.152.043-.146-.018-.35-.385M346.57 381.946l.755.964.811.863.731.776M343.317 383.02l1.534-.09.22-.043.21-.09 1.289-.851M350.062 379.081l-.737.873-.466.44-.537.426-1.752 1.126M358.32 379.033l-.577.31M360.008 378.365l-.587.233-.574.22-.526.215M355.405 388.053l2.136.792M355.405 388.053l-.923 2.752M356.144 385.246l-.353 1.427-.386 1.38M361.25 386.757l-.383 1.21-.289.972-.523 2.15-.192 1.323M354.482 390.805l1.977.73 2.665.673.739.204M351.56 383.835l1.02-.432M354.806 382.134l-1.265.823-.962.446M352.923 384.823l.065-.34-.016-.209-.04-.207-.353-.664M350.902 367.602l.213-.076M356.144 385.246l-.488-1.208M356.795 390.719l.746-1.874M352.923 384.823l2.733-.785M354.806 382.134l.85 1.904M357.743 379.343l-.747.862-.675.62-1.515 1.31M352.514 389.895l-1.84 1.968M354.482 390.805l-.584 1.134-.049.075-.064.042-.072.013-.065-.02-.062-.068-1.072-2.086M390.048 375.043l-.43-.2-.35-.098-.4-.082-.435-.083M381.662 372.248l.615.345.226.041.075-.013.177-.071.779-.533.267-.098.21-.008.214.047 4.208 2.622M390.048 375.043l1.213.725.908.58M395.317 375.024l-.148.568-.069.227-.128.149-.185.09-2.618.29M394.61 381.107l-.336-.454-1.246-1.521-.161-.263-.165-.396-.341-1.293-.192-.832M395.678 369.16l2.073-1.043M397.023 374.142l-.32-.62-.16-.22-.222-.227-.383-.323-.087-.116-.04-.108-.004-.101.034-.14.19-.349.053-.164.006-.145-.047-.313-.365-2.157M367.598 351.66l-.482 1.733-.233.698-.285.615" clip-path="url(#pd19b53bbef)" style="fill:none;stroke:#000"/><path d="m364.633 354.086.435.066.221.06 1.31.494M371.839 359.651l.336-.15M371.839 359.651l-.2-.458M368.956 360.587l.373.03.27-.035.296-.063 1.944-.868M367.598 351.66l.491-.176M367.598 351.66l-.146-.45M371.638 359.193l.337-.155M371.638 359.193l-.41-.818M366.818 349.24l-.536-1.736M366.818 349.24l.634 1.97M364.116 347.138l-1.843.681-.073.075-.026.092.016.102.396.813.366.592.309.4.24.243.155.086.175.024.179-.016.223-.063 2.585-.928M371.975 359.038l-.53-1.278-.718-1.564M371.975 359.038l.2.464M375.028 357.907l-1.337.473-.47.176-1.246.482M368.442 351.349l-.353.135M371.297 353.53l-.727-1.242-.675-1.192-.484-.995-.13-.088-.156-.044-.217.022-.607.27-.117.1-.05.142.025.144.283.702M368.442 351.349l1.384 2.927M368.956 360.587l.317.397M354.43 378.787l.275-.227M354.43 378.787l-2.68 2.822M350.062 379.081l.8.458.238.098.29.04.316-.048.334-.105.827-.46.29-.125.34-.074.932-.078M354.705 378.56l1.894-1.584M357.743 379.343l-.892.334-.24.03-.204-.034-.15-.08-1.552-1.033M354.273 371.476l.985 1.3M361.373 353.62l-.281-.407M361.373 353.62l.999 1.502M361.373 353.62l.918-.582M358.176 354.708l1.52 1.653M361.092 353.213l-.908.286-.755.404-1.253.805M348.528 345.003l-.069.158.002.14.077.14.147.118 5.722 3.534.133.116.09.131.06.145.04.388.057.196.104.2.566.968.53 1.008.35.545.482.603 1.357 1.315M351.02 356.306l1.567-.74 1.686-.832M359.696 356.36l-.938-.238-.473-.177-1.482-.815-.574-.257-.468-.11-.54-.052-.948.023" clip-path="url(#pd19b53bbef)" style="fill:none;stroke:#000"/><path d="m353.462 354.116.064.03.228.149.519.439M362.372 355.122l1.24 1.52M363.402 353.752l-.235.598-.311.365-.484.407M362.96 357.966l-1.426-.684-1.838-.921M363.613 356.643l-.653 1.323M364.633 354.086l-.18.413.069.215-.91 1.929M369.273 360.984l.225.155.112.045.094.008.105-.02.95-.405.634-.22 1.186-.3M362.555 362.477l-1.46-.2M357.777 375.858l.35-.286.876-.69M357.777 375.858l-1.178 1.118M357.777 375.858l.933 1.052M360.008 378.365l-.256-.291-.5-.585-.542-.579M356.6 376.976l.592.105.494.012.446-.04.578-.143M370.727 356.196l-.901-1.92M370.727 356.196l2.501-1.118M373.935 329.066l.34 1.715M384.473 331.355l.303-1.941M380.99 339.055l1.673.556.12-.002.11-.045.085-.098.07-.138.273-1.763.462-2.47.69-3.74M380.385 331.395l1.544-.14 1.13.006 1.414.094M391.646 328.83l-.209 1.757-.285 1.148-.112.18-.157.102-.2.036-1.527-.212-1.486-.212-3.197-.274M377.172 373.009l-.658 1.764M381.662 372.248l-1.052 2.007-.064.055-.078.03-.09-.002-3.206-1.33M375.624 331.533l-2.146.526M375.624 331.533l.183.786M375.624 331.533l-.162-1.127M391.646 328.83l.354-2.108" clip-path="url(#pd19b53bbef)" style="fill:none;stroke:#000"/><path d="m385.164 327.56 2.57.518 1.904.415 2.008.338M362.86 337.211l1.395 4.118M361.308 333.52l.338.54.233.533.98 2.618M368.956 337.462l-4.413-.13-1.684-.12M372.458 328.148l2.514-.43M372.458 328.148l.71 2.848M370.618 328.305l.771-.04 1.069-.117M380.385 331.395l-.594-1.843M380.385 331.395l-4.578.924M380.99 339.055l.118-.3.056-.32v-.997l-.267-3.116-.19-1.352-.177-.948-.145-.627M374.538 337.165l.289.862M374.538 337.165l-.798-3.925M374.538 337.165l1.016-.044M372.924 337.737l.461-.33.297-.144.334-.06.522-.038M389.581 364.375l1.89 3.297M389.598 359.193l-2.173 1.26-.048.069-.014.078.027.095 2.191 3.68M393.125 340.308l-.684 2.524-2.144 6.108-.828 1.811-.563.861-.617.747-1.537 1.442" clip-path="url(#pd19b53bbef)" style="fill:none;stroke:#000"/><path d="m375.028 357.907.415-.156.794-.293.82-.274 1.742-.439 4.35-1.274 2.288-.855.61-.313.705-.502" clip-path="url(#pd19b53bbef)" style="fill:none;stroke:#000"/><path d="m377.662 343.154.747.831 1.282 1.16.305.216.303.14.492.15.47.11.209.07.144.099.165.203 1.49 2.72.723 1.099 2.085 2.9.675.95M323.939 307.547l.61.741.672.95.674 1.497M330.353 332.692l-.213-.145-.152-.212-.093-.306-.024-.439.048-.446.964-3.36.265-1.094.104-.596.065-.721-.072-.815-.554-4.148-.266-.996-.41-1.105-.971-1.968-1.67-2.689-1.479-2.917" clip-path="url(#pd19b53bbef)" style="fill:none;stroke:#000"/><path d="m314.361 316.027.153.157.144.185.313.239.458.243.147.03.133-.016.101-.054.113-.113 2.205-3.007 1.077-1.239.77-.76.66-.423.963-.384 1.125-.353.883-.133.811-.009.579.095.9.25M373.478 332.059l.262 1.18M373.478 332.059l-.31-1.063M372.924 337.737l1.903.29M372.924 337.737l-1.428-.114M373.148 417.201l1.59 1.645.684.91.345.722.185.667.08.822M374.972 327.717l.49 2.69M379.16 327.411l-2.124.11-1.18.094-.884.102M361.308 333.52l-.786-3.082M359.18 333.182l.843.086 1.285.252M364.774 406.655l-.14.778-.008.345.08.416.201.407.546.902 1.422 2.963.675 1.317.29.384.408.322 2.207.896 1.07.491.748.502.875.823M359.18 333.182l-2.309-.11-1.073.083M354.154 333.305l.87-.084.774-.066" clip-path="url(#pd19b53bbef)" style="fill:none;stroke:#000"/><path d="m351.794 335.608.776-.552.892-.58.715-.455.674-.396.947-.47M375.682 337.748l-.277.157-.293.102-.285.02M375.63 340.316l-.217-.764-.24-.67-.346-.855M384.776 329.414l.113-.723.275-1.13M379.16 327.411l2.43-.188h1.221l1.462.165.891.172M376.817 337.485l-1.135.263M379.22 337.365l-.558-.051-.433-.008-.47.043-.942.136M375.807 332.32l.11.653.9 4.512M380.99 339.055l-.806 1.418-.578.776-.53.604-1.414 1.301M375.63 340.316l.265.753.177.286.2.247 1.39 1.552M369.826 354.276l-.41.2M369.826 354.276l1.47-.745M379.79 329.552l-4.328.854M379.79 329.552l-.63-2.14M384.776 329.414l-1.475-.003-1.47.008-2.04.133M364.116 347.138l.454 1.166M364.116 347.138l1.837-.657M385.896 388.939l.505.07M383.081 398.86l1.248-3.728.755-2.548.458-1.928.354-1.717M381.476 382.71l2.428 1.51.618.509.41.431.24.479.522 1.818.161.824.04.658M365.953 346.48l-1.698-5.151M365.953 346.48l.33 1.024M375.682 337.748l-.128-.627M383.081 398.86l-.085 3.015M380.843 401.263l1.004-1.035 1.234-1.369M371.229 358.375l-1.14.428-.17.004-.112-.071-.064-.118-.322-1.141-.482-1.787M393.125 340.308l-4.09-.878M394.104 328.133l.032 1.027.169 3.834-.016 1.215-.137 1.02-1.027 5.08M394.104 328.133l-.096-.659-.108-.27-.198-.325-.477-.593-.315-.33-.161-.116-.165-.045-.173.01-.146.078-.096.168-.17.67M385.041 325.477l.32.238.567.209.947-.09 1.85.254 3.275.634M369.416 354.476l1.39 2.963.423.936M389.598 359.193l.755 1.285M375.462 330.406l-1.187.375M372.136 353.15l-.84.38M352 339.4l-.635-.738-.63-.764-.398-.404M351.794 335.608l-.115.083-.74.733-.353.52-.249.55M349.919 341.069l.105-1.552.12-1.122.193-.901M371.496 337.623l-2.54-.16M372.337 332.25l-1.066.148-.077.025-.04.045-.006.071.348 5.084M359.205 343.013l1.335-.444 1.138-.402.918-.303 1.659-.535M357.204 337.753l1.607-2.321.137-.298.068-.284.164-1.668M349.919 341.069l-.072 1.082-.145.666-.297.706-.877 1.48M330.353 332.692l.383 2.421 1.108.239 3.825.564.132 2.64 1.277.84 5.368 2.845 6.082 2.762M281.394 397.696l2.522-2.51M202.11 408.197l.937.8 1.72.661 1.075.171 1.06.91.434-.095.338-.203.594-.063.275-.469.062-.848.307-.28 1.285-.22.657-.739.643-.33.819-.156.948-.047.45-.722.497-.188.756.455.723.565.481.548.532.254.866.154 1.076-.047 1.03.16.721-.097.82-.424.45-.94 1.493-.455 1.077-.737 1.03-.938 1.204-1.835 1.43-1.144 2.361-.55 1.332.202.74-.03 2.023.5.95-.028 1.813-.27.87-.656 1.349-.533.721-2.088.387-.295.352.343.69-.094.966-.97.514-.266.93.28.659-.126.45-.377.915-.078.547.11 1.156 1.756 1.576 1.382 4.24 1.192 1.254.58 1.88.407 1.237.8 3.516.782 4.885.473.32.358.562.219 1.03-.876.497.155 2.377-.345 1.044.032 2.554.767 1.88-.8 1.446-1.253.787-1.474 1.415-1.22.078-.975 1.191-1.236M285.714 397.646l-.595.298-1.462-.345-2.263.097M285.714 397.646l.016-.392-.45-1.082-.932-.47-.432-.515M303.338 392.286l-.74.437-1.316.284-1.719.675-1.014.28-.24.36-2.618.144-2.315-.223-.82.251-1.879.048-.513.14-1.091-.185-.723-.784-.307-1.132-.512-.922-.66.376-.049.421-.305.706-.996 1.175-1.605.85M289.836 401.327l-1.38-1.583-1.746-.695-.996-1.403M196.361 410.408l-.602.148-1.564-1.166-1.62-.076-1.624.343-.963.033-1.078.28-3.679-.047-2.906.442-2.266-.097-1.028.376-.224 1.053-.053 1.318.228.451-.337.533-.61.314-.482-.282-.384.065-1.06 1.395-.146.641-.37.47-.45.298-.851.235-.804.408-.544.645-.082.64-.964 1.35-.418 1.943-.594 1.27-.546.486-1.187.332-.596-.096-3.47 1.129-1.123.472-.178 1.033-1.125.611-3.647 1.098-5.542 1.442-1.478-.047-1.46.332-3.085 1.19-1.832 1.3-.82 1.05-.562 1.679.275.739.354 4.453-.049 1.16-.789.468-.497 3.544-.384.457-1.559.219-1.044.33-1.27-.191-1.414-.487-1.155-.875-4.034-1.586-2.393-1.27-2.73-2.271-1.768-1.633-1.832-.47-2.618-1.13M196.361 410.408l.87.586 1.495-.718 1.226-.588 2.158-1.49M196.361 410.408l1.811-.712.96-1.255 1.98-.944.746.523.252.177M332.152 386.015l-.924.353-.883.43-.9.377-1.333.502-1.723.577-5.463 1.913-1.462.298-.963.376-1.109.126-.594.282-1.22-.013-4.146-1.9-1.363-.374-.805.06-.964.58-.882 1.038-1.046.405-.77.518-.643.705-.754.143-.867-.125M292.831 376.861l.204.234.401.24 1.066.34.54.384.598 1.371-.036.491-.245.635-.18 1.144.12.51 1.221 1.18 1.803 2.143.222.396.311 1.066-.012 1.287.21.773.233.341.51.492.449.245.772.126.264.144 1.162.91.894.973M402.988 467.62l.044.27-.036 2.58.08.8.217.76 1.245 2.352.735 1.533.18.545.057.478-.076.506" clip-path="url(#pd19b53bbef)" style="fill:none;stroke:#000"/><path d="m402.988 467.62 1.618.919 1.5 2.59.424 2.092.574 1.688-.008 1.21-1.662 1.325M408.429 501.502l.096-.79-.096-1.827-.749-2.641-.383-.946-1.185-2.745-.905-2.04-1.216-2.942-.563-2.246-.222-1.33-.042-1.227.354-1.461 1.527-2.857.39-1.006M434.218 623.604l-.437-3.132-.503-2.558-.234-.419-1.737-2.294-.94-1.036-.191-.7-.09-1.713-.515-2.282-.947-2.612-.131-3.138-.271-.542-.185-.368-.718-1.012-.324-.72-.263-2.982.09-.784.257-1.084-.018-.312-.353-1.353-.03-1.21-.18-1.156-.072-1.54-.323-.778-1.066-1.216-.485-.838-.485-1.492-.288-.628-.521-.755-.767-.605" clip-path="url(#pd19b53bbef)" style="fill:none;stroke:#000"/><path d="m434.218 623.604-2.401-.952-3.48-.527-.797-.365-1.94-1.126-1.312-.983-1.425-1.425L420 614.74l-.467-.365-1.3-.689-.27-.311-.107-.503.084-.977-.066-.748-.342-1.414-.012-.479.647-3.108.042-1.45-.64-2.276-1.803-3.012-.138-.737-.024-3.006.227-.82.515-.69 1.671-1.719 3.684-5.366.407-.88.383-1.845M409.297 510.347l.03.81.114.521.3.689 1.18 1.85.107.354.084.79.713 3.115.077.958.462 2.138v4.786l.778 3.647.06 4.03.413 1.432.641 1.408.413 1.485.018 2.581.072.575 1.03 2.288 1.426 5.84.048 4.57.066.688.443 2.03.024 2.96.174.885.233.707.341.671 1.648 2.701.143.563.06 1.234.294 1.138 1.156 2.048.425.869.126.515.035 1.293-.161.833-.647 1.36-.258.868-.221 1.27-.006.592.455 2.36.371 2.755.318 1.282.21.509M408.429 501.502l-.533 1.581-1.054 2.312-.114.63.006 1.568.203.414M409.297 510.347l-.03-.795-.245-.635-.3-.294-.533-.251-.802-.132-.45-.233" clip-path="url(#pd19b53bbef)" style="fill:none;stroke:#000"/><path d="m374.315 516.57.848.326.952.25.9.327.77.188.399-.451.604-.853.86-.364.643-.226.694.05.977-.275h.27l.18-.139.5-.175.078.15.347.189.553-.076.36-.037.488-.251.591-.326.334-.188.142.112.295-.1.385-.088.232.063.116.226.308-.113.437-.176.527-.012.501.314.527.25.463-.225.398-.202.45-.225.501.113.463-.327.373-.288.218.264.72-.276.385-.063.373-.326.552.025.373-.276.398-.527.591-.489 2.352-.54 2.795-1.235 3.855-.565.772-1.63 1.772-.366M409.297 510.347l2.39-1.692 2.088-.627 1.156-1.16-.707-1.756-1.22-1.505-1.639-2.101-2.936-.004M280.639 627.503l-.165-.344-1.021-.187-2.386.028-.783.763-1.847 1.362-.662 1.013.27-.1M194.638 112.258l-3.21-2.516-4.33-3.12-.947-.461M194.638 112.258l.337 2.19M209.473 194.524l-.639-1.756-.066-.212-.038-.239-.088-1.117-.077-.392-.108-.36-.82-1.953-.44-1.113-1.206-4.023-2.008-7.496-.361-1.634-.025-.44.065-.34 1.032-3.551.912-2.98.168-1.06.008-.72-.088-.77-.249-1.136-.353-1.286-.428-1.296-.032-.192.028-.174.09-.165.482-.529.217-.357.133-.333.401-1.415.578-1.977.714-2.511.451-1.433.305-1.05.161-1.035.048-.745-.056-.674-.2-.972M194.975 114.449l1.233 8.002.185 2.492.128.558.23.6.252.49.988 1.443.932 1.05 1.454 1.522 2.433 2.885 2.458 2.98 1.438 1.411.23.263.216.294.807 1.47.076.231.028.24-.056.262-.618.949-.498.894-.16.459-.017.391.088.49.434 1.389.747 1.874" clip-path="url(#pd19b53bbef)" style="fill:none;stroke:#000"/><path d="m209.34 142.995-.257.595-.104.478-.056.51-.089 1.38-.092.295-.132.23-.627.605M208.798 195.67l.864 1.16.514.69.466.502.605.58" clip-path="url(#pd19b53bbef)" style="fill:none;stroke:#000"/><path d="m209.473 194.524.582 1.373 1.192 2.706M323.939 307.547l-1.61-1.633-1.936-1.537-1.164-.968-1.398-1.05-.667-.392-.679-.306-1.799-.51-.461-.16-.374-.232-.318-.317-1.357-2.102-2.425-3.85-.378-.532-.402-.353-.513-.337-1.503-1.05-2-1.593-.626-.43-.482-.197-.788-.133-2.36-.513-2.482-.734-4.563-1.427-4.723-1.254-1.47-.423-1.462-.298-1.068-.094-3.276.038-2.017.142-1.494.141-1.623.368-1.855.69-2.032.894-2.056.831-1.526.808-1.968 1.458-.828.557-.57.274-.586.157-2.956.455-1.39.133-1.237.008-1.068-.126-3.502-1.034-4.618-1.655-5.454-1.858-1.767-.525-1.044-.353-.876-.541-.787-.792-.683-1.05-1.189-2.666-1.124-2.603-1.67-4.547-1.206-3.011-1.88-4.673-.738-1.944-.727-1.931-.606-1.582-.478-.984-.173-.525-.117-.623-.028-.545.168-4.132.13-1.533.088-1.897-.08-2.933-.057-.395-.12-.451-.699-1.879-.168-.411-.089-.38-.024-.498.04-3.427-.12-1.536-.033-.475-.092-.407-.229-.722-.144-.32-.19-.225-.766-.603-.502-.432-.392-.466-.14-.204-.077-.233-.022-.223.028-.277.306-1.827.036-.384-.048-.325-.137-.482-.333-1.04-.112-.391-.057-.56.112-1.46-.06-.387-.145-.357-.9-1.804-.722-1.2-.915-1.885-.478-.917-.334-.569-1.393-2.552-.297-.596-.743-1.87-.129-.627-.089-.525-.152-.627-.216-.635-.965-2.259-.276-.482-.334-.427-.871-.968-.254-.373-.345-.69-.362-.556-.345-.44-.554-.49-.321-.34-.306-.471-.425-.917-1.43-3.474-.401-.925-.418-.8-.632-1.214" clip-path="url(#pd19b53bbef)" style="fill:none;stroke:#000"/><path d="m324.743 303.241-.723 1.066.566.637.504.859-.342.927-.809.817M367.278 509.814l-.5.626-1.04.178.511.713" clip-path="url(#pd19b53bbef)" style="fill:none;stroke:#000"/><path d="m363.252 514.052 1.187-1.737.497-.33.713-.275.6-.38" clip-path="url(#pd19b53bbef)" style="fill:none;stroke:#000"/><path d="m280.639 627.503-.063-2.796.398-1.365.859-1.9 1.75-2.189 1.218-1.352 1.453-.627.042-.349.365-.495.302-3.073.388-1.798.367-3.147.869-5.674 1.375-2.043.095-1.823.41-3.349.975-4.757 1.42-6.239.533-1.655 1.22-3.148 2.864-.93 1.48-.674 1.55-1.488 1.321-1.843 1.894-.373 1.048-.58 1.713-1.7 1.623-2.68.936-1.316.828-2.505.128-.626.53-1.244 1.523-2.336.255-.784.683-.044 1.898-1.247 1.428-.261 1.184-.54.346.025 1.032-.55.757-.277 1.983-1.202 1.046-1.048.815-1.124.627-1.414.915-1.19 4.03-3.865.692-1.078 1.17-.734 1.641-1.654 1.39-3.244 1.071-1.07.865-1.272.049-.686.232-.04.859.156 2.313.573.658-.48.67-.298 1.569-1.446 1-.33 1.756-1.334 1.509-.75.357-.41 2.055-.58 1.328.008 1.425-1.616.697-.184.904-.969.44-.669 1.092-.727 1.365.272 1.9-1.045 1.683-1.188.556-.232.818-.851.388-.89-.11-.481-.275-.388.518-.326.304-.378.493-1.01-.024-.5-.328-1.03.116-1.497.482-1.488-1.071-1.099.046-.322.154-.968 1.095-.197-.124-.226.472-1.178M358.55 347.267l.022.477.02.173.058.15 1.354 2.574.078.2.03.163.002.178-.022.153.012.126.048.143.94 1.61M363.402 353.752l-.567-.32-.544-.394M358.55 347.267l1.942 3.411.665 1.014.53.705.604.641M349.919 341.069l3.7.443 4.255 4.378.676 1.377M363.402 353.752l.13-.053.116-.01.12.03.865.367M383.594 379.715l-1.313 1.768-.805 1.228M377.686 380.77l.643.376 3.147 1.565M382.996 401.875l5.295.219M382.996 401.875l-2.153-.612M384.393 412.623l-.024-.808.008-1.05-.056-1.905-.089-.518-.16-.611-.401-.949-.55-1.215-.125-.392-.048-.51.048-2.79M364.774 406.655l1.246-1.386.614-.517.623-.345.63-.157.711-.027 3.57.074 2.25.172 2.49.196.441-.039.374-.106.345-.2.325-.333 1.117-1.415.45-.478.883-.831M389.012 406.657l.18-4.053-.036-.212-.096-.164-.189-.083-.58-.051M384.692 397.061l3.488.24.153.05.109.098.06.18-.21 4.465M389.012 406.657l-.03 1.846.036.108.062.059.117.045 1.988.13.164-.036.12-.082.069-.173.172-2.054M389.012 406.657l-3.904-.24M346.184 358.44l.216.535M351.02 356.306l-1.55.733-3.286 1.4M377.686 380.77l1.77-4.665.011-.088-.028-.063-.066-.052-2.859-1.129M397.035 375.16l-.457.032-.313-.036-.948-.132M397.023 374.142l-.62-.367-.118-.027-.09-.006-.113.021-.09.065-.35.435-.148.239-.1.224-.077.298M514.504 264.405l-6.614-1.82-7.546-2.07-5.087-1.324-4.834-.91M487.109 255.033l.596.446 1.05.955 1.668 1.847M529.087 276.737l-10.175-9.352-4.408-2.98M529.087 276.737l16.881 15.609" clip-path="url(#pd19b53bbef)" style="fill:none;stroke:#000"/><path d="m471.134 356.604 3.543-3.098 5.979-3.962 6.347-5.692 5.463-3.962 6.569-3.963 7.16-3.747 5.462-2.45 2.436-2.737 1.697-1.8 4.355-5.405 3.838-1.585 2.136-2.816 4.918-15.724 2.374-6.29.024-.076 2.18-6.794-2.628-4.634-3.9-5.132M489.61 411.695l-7.463-6.905.653-10.656-1.8-9.658-5.012-10.663-2.615-5.196-1.67-6.585-.57-5.428M409.453 334.462l.181.057.225-.005.205-.084.189-.18.158-.282.187-.583.337-.646 1.064-1.674.43-.588.191-.139.18-.02.13.04.114.105.06.151.01.233-.045.288-.145.894.036.333.132.342.273.47.579.838.746.84.74.603.57.228.868.11 1.116-.103.988-.383.45-.259.369-.094.414.011.454.128.401.174 1.43.667.73.266.724.133.642.032.538.149.542.224.454.36.301.384.097.274.02.4.028.89.14.792.281.69.395.698 2.047 3.238 1.446 2.493.298.25.288.055.314-.039 3.462-1.113 1.044-.11.972.07 1.325.322 5.293 1.302.37.149.27.184.16.247 1.895 4.143.281.376.386.318 2.518 1.011 1.068.338 1.06.203.964.016 1.703-.306 2.763-.878 3.534-2.007 2.892-.125 7.399 5.241" clip-path="url(#pd19b53bbef)" style="fill:none;stroke:#000"/><path d="m437.903 398.966 1.575 1.505.77.55.989.454 4.096 1.568.386.219.297.259 1.807 2.007.603.47.819.478 2.08.87.498.118.345.047 8.868-.015 10.667 1.003 17.908 3.196M545.968 292.346l.827 6.885 13.29-.095 9.147-2.228 25.632-7.382 15.973-.995 1.394 5.226 3.514 15.595-.286 6.051 1.213 3.633-6.274 8.587-3.72 18.549 1.398 2.013.783 10.078 3 13.807-1.101 3.367-9.42 6.314-9.992 12.408-10.11-.653-9.288 1.364-13.645 1.455-7.035 2.56-6.387 7.067-4.29.349-8.763 3.44-9.543-.565-5.942 1.172-5.448-2.022-3.692.222-5.97-1.716-3.69.584-7.932 4.279M377.14 397.453l-3.35 2.391-.256.161-.27.094-.232.031-1.719-.172-.277-.016-.321.063-.25.121-5.477 3.771M393.49 384.478l-1.185-2.266M392.134 389.402l.171-.15.522-.69.402-.736.12-.408.056-.408-.06-1.88.008-.205.04-.216.097-.23M394.766 393.54l-.3-1.167-.065-.635-.024-.69.072-1.67-.064-2.642-.084-.435-.173-.474-.638-1.349M345.83 390.311l-1.292-3.7-1.22-3.59M343.558 398.253l-2.195-2.306M334.49 394.027l.377.557.31.33.333.226 2.667 1.2 4.023 1.717.586.14.772.056M347.069 393.517l.57 1.882.075.404.005.372-.105.384-.233.377-.385.36-.675.345-1.301.416-.852.148-.61.048M334.49 394.027l-.31-.294-.325-.137-.378-.047-.41.07-2.152.737-2.811.925-.907.338-3.364 1.698M332.152 386.015l2.59 2.919M337.25 391.593l-1.94-2.052-.569-.607" clip-path="url(#pd19b53bbef)" style="fill:none;stroke:#000"/><path d="m319.786 394.783 2.468-.965 4.916-1.923 5.35-2.092 2.221-.869M334.49 394.027l2.76-2.434M337.25 391.593l1.62 1.717M341.363 395.947l-2.492-2.637M341.363 395.947l5.706-2.43M345.83 390.311l.49 1.239.749 1.967M338.87 393.31l6.96-2.999M391.639 380.867l.666 1.345M391.309 359.939l-.02.004-.428.243-.508.292M391.309 359.939l.133-.031.14.008.743.257.135.025.146-.006.203-.058.1-.061.079-.073.819-1.264 1.4-2.54M402.353 365.53l-3.712-6.444M398.641 359.086l.363-.226M403.164 356.54l2.408-1.186M403.164 356.54l2.454 4.318M403.164 356.54l-3.068-5.271M400.096 351.269l2.498-1.349M405.572 355.354l-2.978-5.434M405.618 360.858l.356-.18.166-.114.167-.258.064-.26 1.23-5.624-2.029.932M402.594 349.92l-1.58-2.74M401.871 343.335l2.611 5.359.016.128-.036.105-1.868.993M360.522 330.438l-.458-1.772M370.618 328.305l-2.642.024-.772.086-.795.212-1.22.431-.876.321-3.791 1.06M394.104 328.133l1.769-1.992M397.835 327.043l-1.466-.949-.152-.039-.17.012-.174.074" clip-path="url(#pd19b53bbef)" style="fill:none;stroke:#000"/><path d="m398.835 314.483.867.753.097 2.728-1.703 3.575-.964.66-1.414.093-1.285.69-.064.91 1.504 2.249M398.723 327.043l-.197.06-.169.03-.188-.004-.334-.086M397.871 330.226l-.369-.917-.209-.753-.064-.33-.004-.344.08-.235.132-.173.398-.431M402.02 325.084l1.257-.754M398.723 327.043l.47-.329.32-.286 1.346-1.565.44-.271.722.492" clip-path="url(#pd19b53bbef)" style="fill:none;stroke:#000"/><path d="m400.55 332.256.189-3.684.209-1.756.32-.87.612-.777.14-.085M401.466 318.639l-.321.587-.238.505-.182.573-.056.887v.697l.084.655.154.423 1.33.455 1.04.91M400.55 332.256l-.414-.419-.9-1.074-.104-.192-.076-.25-.197-1.404-.136-1.874M409.453 334.462l-.164-.163-.086-.216-.087-.54.033-1.553.048-1.09.136-.878.217-.674.417-.659.51-1.058M251.51 545.648l-4.45 1.01-.491 1.22-.602 1.666-4.82 1.003-1.284-1.317-10.41 4.139-3.149 3.637-2.634-.125-2.378-3.136-2.441-.313M403.847 423.499l-.395 1.342-.354.604-.94 1.126-.407.635-.156.563-.078.624-.369 2.95-.038.846.09.85.958 2.798.473 2.042.294 2.348.886 5.198.072.857.006 2.21-.315 4.504-.194 2.503-.304 1.778-.265 1.828-.6 2.79-.681 3.82-.012.4.088.33.217.318.82.528.22.138.125.192" clip-path="url(#pd19b53bbef)" style="fill:none;stroke:#000"/><path d="m399.289 399.199.336 1.451.06.958-.186 2.139-.45 2.76-.12 1.39.127 1.713 1.006 5.456.173.73.462 1.15.533.941 2.228 3.264.263.653.138.629-.012 1.066" clip-path="url(#pd19b53bbef)" style="fill:none;stroke:#000"/><path d="m400.233 399.437 1.43.485.409.275.249.36.193.51.153.933.843 8.945.417 2.446 1.181 5.44.249 1.49.089 1.976-.073.353-.177.243-.297.219-1.052.387M399.289 399.199l-.563-2.43-.479-3.192-.024-2.905-.102-1.066-.362-2.384-.298-1.23-.23-.593-.26-.474-.393-.549M404.827 385.748l-4.056-1.662-.699-.157-.94-.023-2.554.47M404.827 385.748l2.249.816.964.407 3.196 2.086 2.137 1.936.522.596.418.604.566 1.274.213.89.078.117.129.09.14.053 2.65.437 2.425.502.932.235 1.052.44 1.598.532 13.807 2.203" clip-path="url(#pd19b53bbef)" style="fill:none;stroke:#000"/><path d="m409.453 334.462 1.103 1.993-.66 6.667 2.781 4.204.596 1.93 3.227 4.878.673 2.687-.541 3.157-2.027 4.086 3.383 3.829 5.362 12.91.957 3.143-.49 1.587-3.913 1.115-.514.76 6.594 4.58 2.12.644 6.298 1.285 2.056.298.433.157.338.298.16.533.514 3.763M397.303 374.346l3.179 1.312.43.248.333.329.297.58.193.53.136.43.153.35.277.293 1.321.972.225.267.145.392.634 2.783.17 1.364.03 1.552M400.233 399.437l1.301-3.497.377-.847 2.273-3.56.273-.689.113-.698.257-4.398M366.282 347.504l1.167-2.167.093-.336.016-.318-.056-.333-.406-1.235-.016-.227.056-.173.12-.141 1.129-.588.113-.145.06-.208.04-.22.213-2.618.145-1.333M330.6 367.07l.441-.495.096-.612.605-1.895 2.41-2.03.139-.279.127-1.066.22-1.182.477-.362.967-.466.763.01.51-.084.53-.32.416-.027M353.462 354.116l-.33-.15-1.686-.612-2.073-.753-1.414-.47-.763-.204-.947-.101-2.707-.173-1.357-.008-1.125.102-1.317.643-.555 1.042-.177 3.073-.71 1.757M275.228 352.4l.666.858 4.394 2.874M263.488 363.19l-.521.102-.473-.373-1.016.304-.6.405.31.542 1.188.639 1.199.368.433-.279.138-.306" clip-path="url(#pd19b53bbef)" style="fill:none;stroke:#000"/><path d="m263.488 363.19.061.42.597.982M399.289 399.199l.944.238M354.613 329.046l.55-2.306M351.613 326.977l.282.552 2.718 1.517M354.154 333.305l.215-3.236.244-1.023M351.613 326.977l-.842-1.643-1.286-.032-5.237-4.704-.803-1.505-.61-2.603-1.382-.815-.77-1.882-2.764-1.254-1.896.126-6.071-3.262-3.977-4.187-.45-1.145-.782-.83M273.978 235.94l-.145 1.287-.236 1.48.106.558-.289 1.404.327 2.184.349 5.796-.619.882-.11.497.07.396.223.435.048.62-.523 2.013-.866 4.165 1.163 4.438.14 1.722.48 1.192.787.676 1.928-.125 1.4 1.07 2.73 1.185 2.336.85 1.825 1.367 2.137.922 1.825 1.61.82 1.22 3.03 1.084 2.606 1.08 4.145 2.13 2.445.995 1.198 1.115.722.32 2.046-.518 1.512 1.136 1.93.718 2.025 1.73 2.381 1.119 1.485.739 1.8 2.444 1.899 4.638 2.14 4.232 1.04 3.104.746 1.784.69.818 1.019.79M358.53 325.993l-.064-3.011M360.064 328.666l-.956-1.137-.578-1.536M355.163 326.74l.828-.708.499.094 1.02.22 1.02-.353M367.566 324.393l-2.827.376-2.49.377-1.245-.024-1.526.369-.948.502M358.466 322.982l-.965.031M358.932 319.124l.064 1.177-.53 2.68M355.163 326.74l.491-2.065 1.847-1.662M358.932 319.124l-.643.753-.482.831-.306 2.305" clip-path="url(#pd19b53bbef)" style="fill:none;stroke:#000"/><path d="m330.353 332.692.253.07.285-.023.23-.098 1.53-1.098 1.67-1.034 3.036-1.694.884-.627.675-.596 1.831-1.976.365-.243.305-.07.293.023.261.11.221.184 1.205 1.439.815.82 2.43 2.182 2.377 2.243.953.929.309.204.337.13.37.05.43.004 2.736-.316M399.004 358.86l-2.514-4.173M217.999 97.36l-.522-.236-.522-.062-.386.203-.224.353.008.502-.153.353-.723.564-.915.675-.611.893-.16.565.16.737.402.518-.515.643-2.49.455-2.072-.361-3.855.25-4.434 2.51-1.35.25-.578 2.134-1.027.439-3.057 5.704M280.25 235.582l-.234.028-.178.211-.508-.264-.302-.022-.368.368-.59-.043-.298-.079-.415.427-.407.273-.332-.158-.714-.324-.778-.226-.554.154-.594.013M217.02 160.966l1.14.596.883.91.675 1.3 1.173 1.46 1.012.062.353.486 1.173-.392 1.108.236 1.575 2.305 2.634 4.046 1.96 3.826 1.124.22.9 1.285.707 1.255 2.73 3.575 1.06 2.29-.706.878.643 1.725 2.602-.032 1.253.283 2.603 1.568 2.28 1.568 3.857 3.575 1.349 1.694.61 2.415 1.093 1.63.9 2.134.963 3.48.964 1.192 1.703 2.259.996 1.286.16 1.16 2.217 1.38 1.028 1.756 2.185 2.98 1.35 3.01 2.57 3.419.867 3.544 2.474 2.571.771 2.792 1.726 2.39.293.857M398.835 314.483l-.84-5.876-1.216-2.225 1.23-5-.52-3.316-4.992-9.483-6.397-2.645-.036-3.019 3.173-1.726 2.481-6.779-1.756-3.339-3.657-1.193-2.52-2.863-1.331-5.508-.048-10.52.838-10.498-1.373-2.79-5.034.199-4.283.06-1.928 2.697.113.392-.354 1.239-1.044 1.96.466.768-.209 1.13-.916 2.054-1.783 2.179-1.028 1.098-.723 2.367-.305 5.19.546 1.255.546 1.913-1.638 3.011 1.172 3.465.9 1.302.161 1.866-3.1 12.152.128 5.897-.257 6.397-1.414 1.63-1.028 7.151-1.8 10.475-.127 3.574M412.458 312.1l2.827-8.89.16-1.067-.056-.635-.216-.659-.282-.564-.152-.518-.056-.588.08-.642.265-.628.434-.737 5.164-7.448.378-.847.249-1.004.12-.94-.072-1.513-2.386-10.577-.064-.957.177-.752 1.125-4.015.224-1.803.049-2.744.674-5.864.145-.722.385-.658 1.824-1.537.248-.33.121-.329.048-.423.105-5.3.01-.376.15-5.254 1.157-10.663.337-1.27.563-1.349 2.232-4.327.257-1.083.065-1.081-.354-6.116.145-1.067.37-1.238 4.176-13 .739-4.61.595-9.77.193-.8.577-.784 1.816-2.133.16-.415.057-.455-.956-9.135.072-.815.281-.8 1.671-3.434.45-3.419 2.249-6.711.835-9.41.771-2.697 2.12-3.826.772-5.458-1.542-7.276v-2.698l1.285-2.414.32-.66-.834-3.449.642-3.325-.964-3.513-2.185-1.819-2.762.69-3.663-1.694-.129-2.446.129-6.022M290.615 374.501l1.078.485.455.354.33.52.353 1.001M288.576 376.905l.21.104.487.184.553.25.496-.129.724.067.671.024.543-.228.571-.316M288.576 376.905l.514-.552.796-1.143.585-.468.144-.24M265.16 355.702l1.877-1.105 2.11-1.212.826-2.358 1.632-.842" clip-path="url(#pd19b53bbef)" style="fill:none;stroke:#000"/><path d="m265.16 355.702.444-.324.27-.336.437-1.227.21-.324.754-.347.264-.288.395-.754 1.647-1.893.51-.216 1.514.192M275.228 352.4l-.681-.88-1.3-.799-1.642-.536M265.16 355.702l-.867 3.172M204.51 195.364l-.23.537-.2.278-.281.275-.297.172-.45.133-.732.086-.843.008M209.473 194.524l-.675 1.146" clip-path="url(#pd19b53bbef)" style="fill:none;stroke:#000"/><path d="m204.51 195.364-.366-.024-.342-.075-.333-.133-1.082-.686-.137-.047-.152-.01-.195.063-.133.123-.353.58-.16.189-.234.153-.626.259-.35.215-.333.298-1.795 1.972-.169.145-.196.09-.527.086-.754.087-.523.127-.351.159-.261.21-.263.366-.603.925-.57.651-1.068 1.028-.643.744-.747 1.075-1 1.724-.185.393-.108.478-.056 1.09-.076.537-.181.588-.23.415-.306.385-.472.38-.346.256-.064.072-.031.074-.003.089.034.105.325.607.073.27-.012.232-.285.89-.105.682.08.58.338.659.763 1.176.28.643.218.839" clip-path="url(#pd19b53bbef)" style="fill:none;stroke:#000"/><path d="m208.798 195.67-.855.094-.908.084-.242-.004-.191-.031-.19-.07-1.144-.583-.164-.028-.185.036-.41.196M355.163 326.74l-.834.554-1.333-.031-1.383-.286M367.566 324.393l.482-.172.433-.635M370.618 328.305l-.635-.423-.506-.604-.65-.063-.594-.744-.499-1.247-.168-.83M363.076 327.953l-3.012.713M392.134 389.402l-.488.423-.498.282-.53.165-1.052.11-1.811.039-.35-.051-.341-.13-.269-.215-.217-.31-.112-.353-.065-.353" clip-path="url(#pd19b53bbef)" style="fill:none;stroke:#000"/><path d="m392.134 389.402-.17-.596-.192-.476-.424-1.138-.445-.786-.524-.933-.805-3.994-.032-.154-.057-.112-.096-.094-.912-.549-.273-.078-.212.007-.21.063-.192.169-.269.455-.209.548-.277 1.313-.14.388-.318.565-.265.557-.157.6.005.548.096.615.208.957.093.623.06.56-.016.55M386.08 382.166l-2.486-2.451M384.827 377.783l-.506.784-.727 1.148M263.488 363.19l.985-.61.466-.75.484-.7-.067-.711" clip-path="url(#pd19b53bbef)" style="fill:none;stroke:#000"/><path d="m264.067 361.267.62-.467.669-.381M362.072 364.38l.593-1.257M355.374 361.956l2.835.436M358.21 362.392l1.11.157M362.665 363.123l.793.1M362.665 363.123l-1.637-.31M365.225 359.731l-6.26-3.2-2.328-1.223-.667-.217-.78-.025-.498.111-2.882 1.419-1.52.802-2.249.998-1.641.58M369.273 360.984l-.392.02-.781-.177-2.875-1.096" clip-path="url(#pd19b53bbef)" style="fill:none;stroke:#000"/><path d="m376.003 358.139-.717.302-2.021.9-3.073 1.342-.92.301M368.089 351.484l.537 1.27.79 1.722M373.168 330.996l1.107-.215M375.554 337.121l-.737-3.957-.048-.084-.07-.04-.093-.007-.866.207M395.044 314.327l3.791.156M395.42 382.582l1.061-.22.772-.15M394.61 381.107l.277.404.354.69.179.381M388.803 376.678l.321-.53.273-.36.651-.745M382.24 377.125l2.587.658M377.55 339.391l-1.92.925M397.75 368.117l-3.65-6.374M394.61 381.107l-2.305 1.105M397.035 375.16l.203.22.039.077.016.1-.084.595-.23 1.274.017.1.052.088.277.232M397.035 375.16l.268-.814M397.303 374.346l-.28-.204M313.871 309.89l-.378 1.308-.024.392.057.392.305.792.24.706.302.956.076.44v.403l-.016.45-.072.298M290.273 316.584l5.044-4.923 3.18-.282 2.12.69 1.993-.283 1.767.69.74.032 1.605.94.578 1.882 1.222 1.129 2.931.063.948-.15.474-.548.434-.353.514.094.538.462M392.815 352.245l.51-.592 1.601-2.702 2.942-4.713 1.505-2.683.296-.657.22-.538.21-1.038.102-1.303.176-2.47.173-3.293M411.156 309.74l.153 1.012.24.477.314.393.595.478M361.028 362.812l.067-.536M361.028 362.812l-1.709-.263M361.095 362.276l-1.694-.232M359.32 362.55l.081-.506M274.782 321.164l2.675-2.214 1.33-.137 3.138.428 3.706-1.85 4.642-.807M294.985 332.916l-1.724-1.817.047-1.347-1.41-2.946-1.42-1.073.02-1.077-1.674-2.917 1.063-1.837.386-3.318M367.278 509.814l3.807 3.906 3.23 2.85M392.427 358.696l-.752.379.04.567-.406.296M351.02 356.306l.13-.513.433-1.072 1.033-.486.846-.119M365.228 351.48l.73-.454.292-.047 1.202.23M352.11 336.12l-.207-.341-.109-.171M288.102 233.17l-.87.905-1.15 1.035-1.893.848-.824.463-.282.702-.392.082-.724.1-.27-.402-.484-.158-.163-.111-.331-.302-.395-.157.02-.163-.023-.16-.071-.27" clip-path="url(#pd19b53bbef)" style="fill:none;stroke:#000"/><path d="m292.25 232.533-.133-.225-.145-.138-.088-.173-.201-.105-.44-.854-2.11-.102-2.05-.03-.915.728-1.269.918-.924.776-.064.745-.209.698-.9.65-.706.15-.466.062-.929-.078-.451.027M245.637 544.576l.569-.065.348.115.329.543.285.061h.307l.022-.236.31-.19.135.089.083.263.186-.04.22-.212.202.247.14.206.36-.038.004-.413.07-.1.101.008.07.093.057-.113-.005-.144.14-.109.26-.146.173.015.217.127.15.084.19.447.379.196.57.384M343.078 509.155l-.041.37-.273.133M258.45 540.694l.11.456M258.56 541.15l.518.107.39-.098M392.815 352.245l-1.145-.242-1.004-.334M335.3 366.85l.496-.404M330.6 367.07l1.492.068 1.923-.92 1.286.633M339.824 366.11l4.068.827 2.511-1.118 1.01.16 1.261.86 2.441.687M335.796 366.446l2.104-.22 1.924-.117M297.05 343.989l-2.976-2.185-3.028-.238-3.848-.689-4.296-1.944-1.855-3.087-1.115-4.171-2.473-7.75-2.677-2.761" clip-path="url(#pd19b53bbef)" style="fill:none;stroke:#000"/><path d="m275.228 352.4-.184-.941-.28-1.59-.213-2.039-1.384-1.328-2.746-1.12-3.063-.708-1.179-1.315-1.773.08-2.011-.392-.1-1.144-.778-.12-.401-1.127-.534.664-.601.117-2.867-.965-1.484.354-1.112-.453-5.166-1.379-2.083-1.142-.04-.634-.715-.885-.868-.372-2.167.458-.77-.527-1.288.289-1.158-.584.68.005.635-.574.948-1.223 1.504.292.985-.964 1.258-.2 2.346-.987 2.322-1.21 1.17-1.941 2.966-6.007 2.194-2.163 1.248-.365.925.06 2.3-.007 1.777.748 4.139.17 1.645.994 2.785-.959 1.672.502 1.02-.604" clip-path="url(#pd19b53bbef)" style="fill:none;stroke:#000"/></g><g id="PatchCollection_1"><path d="m561.22 628.045-.51-1.899 1.616-.414.511 1.899zM470.209 577.983l.257-.808.972-.603.883.298.892.65.193-.352.417-.478.434-.236.69-.462.362-.282.948-.04.74.15.57.438-.161.518-.097.76.587 1.144-.016.683-.434.478-.41.298-1.125.29-2.666-.847-1.446-.91zM420.232 540.38l-2.421-8.258 4.253-1.188 2.422 8.258zM425.984 562.008l1.22.705 1.061-.11.723-.612-.772-.878-.465-1.16-.514-1.645-.434-.675-.16-.454h-.274l-1.236-.047-1.768-.22-.273.188-.128.204.337.91.401 1.003.82 1.363 1.044 1.035zM455.157 562.039l.996-.721.626-.753.016-.878-.45-.674-.658-.627-.193-.674-.402-.36-.192-.55.144-.517.466-.125-.306-.596-.9-.424-.834.189-.016.517.224.643.258.22-.29.156-.369.126.273.235.723.11.257.188.386.454-.129.376-.401.283-.884-.095-.578-.11-.595.205-.257.501.016.863.048.893.627 1.192.851.455.803-.063zM435.398 583l-.21-1.192.547-.862.321-1.02-.209-.281-.723-.549-.851.298-.434-.141-.787-1.16-.225-.863-.225-.345-.241.204-.208.282.047.298.13 1.02.4 1.191.402 1.505.627 1.442.353.408.273.188zM418.851 498.825l.964-.361.532-.359.657-.111.53-1.114.675-.83.192-.622-.321-.914-.658-.675-1.109-.502-2.008-.329-.836.141-1.445.91-.594 1.034.353.972.417.815.868.69.771.738zM410.578 499.499l.851-.643.434-.141 1.125-1.27.466-.25.594-.392-.61-.456-.916-.485-.418-.455-1.285.062-.803.345-.113.644-.08.658.594 1.944zM408.361 488.493l1.189-1.05.883-.863 1.125-.627.851-.847.21-.878-.933-.282-1.734-.015-.98.297-.771-.439-.563-.454-.835-.36-1.173-.095-.867-.298 1.189 1.207.466.502.208.612.145 1.144.113 1.207.754.847zM405.052 454.91l.948-.173.289.297.53.22.787-.25.482-.22.562-.58.257-.502-.24-.753-.707-.439-1.43.078-.675.22-.61.627-.353.549.096.706zM415.3 431.422l.612 1.16.224.549.755.768.691-.11.9-.532.273-.706v-.721l-.386-.55-.738-.705-.483-.705-1.06.031-.53.502-.402.721zM407.542 432.253l.626-.36.627-.455.016-1.223-.177-.878-.433-.173-.804.047-.915-.14-1.029-.142-.514.141-.787.518-.739.22-1.028.752.049.611.37 1.113.61.55.626.14 1.14-.454.53-.141.964-.095zM404.157 369.429l1.098-1.078.912-.166.553.839.11.881-.547.55-.588.104-.292-.52-.346-.165-.336.305-.408-.088zM369.341 517.84l.256-.19-.22-.207-.225-.4-.747-.015-.663-.178-.004 1.546.31.203.725.255.522-.43-.101-.207.065-.216zM360.484 358.08l.843.51.402.336.723.267.626.275.378.094 1.382.768-.09.36-1.565-.948-.876-.298-.667-.275-.594-.368-.385-.274-.554-.337-.483-.541-.65-.565-.546-.274-.827-.447-1.446-.855-.788.055-.658.141-1.365.698-2.45 1.294-.25.29-.293.2-1.215 1.043-.402.224-.298.014-.434.117-.785.349-.621.334-1.183.442-.814.085-.84.105-.587.275-.977.559-.26.265-.212-.195 1.586-1.006.637-.184.637-.035.742-.115.575-.175.596-.29 1.087-.493.732-.304.471-.101.891-.864.473-.27.776-.608 1.245-.666 1.518-.73 1.004-.595.466-.008.514-.148.41.015.553.243 1.92.98.659.431.715.612zM365.16 360.767l.678.245 1.336 1.04.377.387.751.377.679.214 1.159.04 1.608.113 1.806.234 1.556.092 1.733.04 1.67-.173 1.765.051.667.358.535.875.363-.337-.74-.998-.807-.264-.566-.107-1.977.132-1.28.069-1.948.007-2.13-.213-2.11-.235-1.262-.061-.877-.275-.637-.337-1.18-1.213-1.117-.458zM381.843 364.323l.827.67.893 1.107.293.544 1.392.654 1.23.559 1.302.863.549.48-.271.672-.462-.469-.788-.582-1.34-.61-.767-.417-.8.077-.433-.607-.45-.878-.746-.995-.792-.731z" clip-path="url(#pd19b53bbef)" style="fill:#00f;fill-opacity:.8"/></g><g id="PatchCollection_2"><path d="m400.68 315.733-1.79 3.449-1.435 1.388.097.321.317 1.795.147 2.413-.338 1.45-1.692-1.011-.629.566-1.008 1.225-1.076-1.412-.706-.518-.532.024-.393 1.08-3.027-.707-2.844-.34-.832-.15.2.724 2.78.24 3.65.672-.264 1.527-2.226-.287-2.653-.702-.08-.698-1.19-.088-.382.492-.882-.296-3.57.017-3.34.254-3.773.57-3.963.388-1.662.059-1.552.357-1.065.269-.524-.73-1.826-.26-.518-.335-1.555.698-.114-.864 3.128-2.92 2.184-4.39 1.157-5.018-2.956-6.021-2.57-3.513.129-3.763 2.056-6.9 3.084-9.533 1.671-5.645.642-4.39-4.24-10.413 8.996-16.559 1.027-11.415 2.587.492 4.176-.068 5.897-.658 6.793-.678 1.335-1.036 1.774-1.533 2.172.413 2.234.542 2.505.377 2.407 2.79-.144 3.633.74 3.243-1.27 2.674.308 2.435 1.85 1.779 2.814-.71 4.57.13 3.29.948 3.212-.129 1.192.614 1.072 1.041.397.48.21 2.32.225 1.85-1.125 1.882-1.413 4.641-.964 3.482-1.156 3.105-.965 3.45.836 3.668.675 2.415-.065 2.51.579 2.069.514 2.101.16 1.63.546 1.663-.031.847.377 1.066.193.933.29 1.717.264 2.211.16 2.258-.128 1.459-.595 1.724-.4 1.286-.74 1.317-.883 1.317-.563.675-.803.454-1.156.69-1.237.658-1.157 1.052-1.077.767-1.188 1.035-1.012 1.522-.45 1.536-.45 1.74.032 1.27-.16 1.898-.885.328-3.354-2.94-3.115-1.318-1.582.644-1.175-.556zm5.867-4.887 2.698-2.133.9-3.074-.385-3.7.321-1.63.129-1.506.514-.628.642-.94-.642-5.018-2.763-.627-2.25.439-2.634 1.63-2.891 6.837-.579.376-.128 6.21 1.028 2.635 1.349 1.129 1.992.313zm-4.163-54.05-5.027 4.523 1.98 5.522 5.853 1.571 6.44-.68 4.917-5.733.935-4.884-3.067-2.952-3.003-.127-.522 1.996-3.024-.467-1.958-.935zM414.875 379.892l-3.156-.752-1.055-.627-1.406-1.297-3.3-.368-1.373-.259-2.11-.92.405-.704 1.017-.31.887-1.754-.228-1.458-1.055-1.21-3.047.415-1.796.18-2.421.173-2.569.053.117-.654 1.395-.421.77-.709 1.97-.978 2.706-1.326 1.758-1.127 4.784-2.528-.052-.541-1.115-1.895.311-.178.313-.498.99.186 2.5.415.92-5.285-3.28-.652.199-.747-.466-.107-.395.357-1.362.693-2.346-4.22.325-1.104 1.633-.807-.256-.518-1.354.648-.958-.694-.575-.222-1.28-1.534.21-1.11-1.598-.902.115-.882.614.137.3-.57-.35-.308 1.22-1.049.045-.834-.854-.378.01-.75-.296-.262.325-2.63.237-3.687.213-5.131.38-1.896.579-.847 1.18-.752 1.525-.268 1.91.873 1.492 1.211-.79 1.03-.54 1.005-.64 3.207-.181 2.824-.218 1.578-.043 2.37.41 1.715.838 2.177 1.872 3.438 2.793 3.875 2.222 2.705 1.004 1.68.45 1.723v1.605l-.409.97-.427.438-.027.504-.871 1.434-.88 1.566-.437 2.097-.167 2.249.335 2.237.993 1.215.861.14 1.833-.285.652-.007.808 1.337.92 1.039 2.061 4.751-.023 1.464-1.397.234-.536 1.014-1.376.593zm-10.562-9.801.408.088.336-.305.346.165.292.52.588-.105.548-.549-.111-.881-.553-.839-.912.166-1.098 1.078zM386.774 424.028l-.95-3.837 2.046-1.012.891-2.069.351-4.264-.076-3.556 2.984.015.082-2.86-.956-.117-.114-.38 1.233-.613.277-.855-.927-.492-.962-.246-.05-.464 1.181-.033-.068-.69-.446-.364-.747-.11-.17 1.831-.994.45.159-2.448-.642-.354.076-.244.816-.378 1.377.294 1.306.11.188-1.978-.062-2.048.546-3.518 2.027.365-.242-1.495.561-.805 1.392-.422.497.428.433-.237.554-.7-.69-1.316-2.332-.235-.278-2.136 2.256-.384-.314-.94.96-.889-.043-.542 1.646-.207 1.74.393 2.122.897 3.063 1.122 1.773-3.292-.617-2.36-3.029-1.96.858-.952.835.161 1.259.145.54.678.583.108.1.797.324.511.302-.377.323-.14.577.332.345-.17 1.535.49 1.651.117 1.127.146.606 1.013.587.706.555 1.315.713.914.18.982-.586 1.14.164.439-.759 1.685-.273 1.594-.59 1.075-1.737 1.705-1.349 1.048.08.955-.346.722-.462 1.281-.35 1.333-.18 1.324.005 1.657-.06 1.797-.64 1.46-1.013 2.785-.064 2.379.5 1.479.619 1.661.114 2.247-.114 3.675-.731 2.388-.692 2.569.47 1.699.558 2.104.224 2.067-1.58.088-.176-.878-.433-.173-.804.047-.746-1.732-.489.309.32 1.282-1.029-.14-.514.14-.787.518-.739.22-1.028.752.049.611-5.96.59-1.013-.913-.806-.013-.155.643.447.861-1.037.789-.968-.654-2.8.11-.367 1.08-1.578-.997-2.335-5.91zm13.356-13.702 2.852.365 1.353-.601.95-3.443-1.89-.142-.06-1.134.54-.355.056-1.146-.148-.359-.63-.033-.458-3.415-.832-.948-1.71-.42-1.076 1.162.106 2.878-.145 2.293 1.772.675-.137.864-.898-.037z" clip-path="url(#pd19b53bbef)" style="fill:#006400;fill-opacity:.8"/><path d="m401.046 318.86 1.498-.88.512-1.436 1.582-.644 3.115 1.318 3.354 2.94-.209 2.203-.398.834-.42 1.15-.546.91-.797.161-.832-.534-.42.106-.377.017-5.542-.91-.868.157-1.172.705-1.51.142-.147-2.413-.317-1.795-.097-.32 1.434-1.389 1.171.77zM441.823 184.419l31.1-2.157L494 180.003l2.571 1.757-2.827 8.029-15.165 4.767-15.422-1.505-5.397 3.01 5.397 3.764 8.996 7.777-4.884 6.775-10.28.502-8.226 5.018-14.907 8.656 8.546-.314-13.558 2.885 6.683 1.067 14.233 2.352 4.594 1.286 2.313 1.662 4.467 4.077 3.148 2.196 1.992 2.038 2.795 2.007 2.538 2.102 2.185 1.85 6.618-2.697 2.507-1.255 2.249-1.913 1.96-1.317 1.573-4.265.868-2.823 4.338-5.802 1.895-3.073 1.67-3.419 1.832-5.143 1.575-6.9-2.057 2.164-4.69 5.081-3.856 2.666-4.177 1.348-1.799-.564 2.635-5.144 2.506-4.328 4.37-1.881 2.184-2.133.964-3.137.32-3.888-.224-2.196 1.189-1.035 2.345-.094 1.35-.753-1.029 13.549 3.214-8.813.963-3.67 2.313-5.708 2.442-6.397 2.715-7.37 3.149-8.437 1.188-3.105 1.768-4.971 2.554-8.735.321-5.49.321-6.93.033-7.998.642-6.932 1.382-13.267.803-8.406 2.763-24.15 1.413-6.556 2.764-16.561 1.35-9.849.577-4.454.193-1.945-.45-1.882-3.02-7.025-1.285-4.455-1.67-7.904-3.15-10.1-3.983-13.11-3.084-9.662-.354-2.886.514-3.796 2.474-10.257 5.96-24.827 3.1-13.19 1.19-4.047 1.349-3.513.963-2.854.161-2.479-.482-2.29-1.478-3.01-3.695-6.023-2.473-4.58-.418-2.636-.707-6.336-.675-7.34.9-3.67-.225-1.13-.9-.282-.32-1.192.48-.22.836-.125.579 1.286.546-1.412.289-.407.675-1.632 1.67-2.697 3.31-3.514 5.75-5.427 4.788-4.11 1.028-1.85.225-1.443.032-.596h.931l-.192-.91.128-.816 7.645 6.938 4.815-8.263-36.364-37.229-45.75-33.63-62.716 9.537-29.815 24.595-65.992-22.775-7.775-3.262 51.662 69.704 19.792 30.24.77 15.434 16.45 25.597 27.503 36.637 25.188 14.304-25.51 8.594-2.634 32.56 5.397 1.254 9.639 10.539 4.113 14.052-2.57 25.343-8.74 37.638 2.16 4.567 12.08 3.211-2.127 5.019-.097 5.896-1.766 6.9 1.542 3.764-.163 2.349-1.518 5.842z" clip-path="url(#pd19b53bbef)" style="fill:#006400;fill-opacity:.8"/><path d="m379.108 86.413 1.285 9.785 2.313 2.51-.771 5.018 19.02 12.044 27.245.753 8.74-37.638 2.57-25.343-4.113-14.052-9.639-10.54-5.397-1.254-.99 1.117-1.323.012 2.62-4.91 1.677-20.73.412-7.205-22.83 7.877-22.619 2.51-61.687 32.62 1.03 1.757 10.28 21.83 31.1 11.042 10.796 3.01zM604.522 200.828l-26.474 66.237-28.787 20.573-17.221-20.573.771-12.042 3.213-4.077-1.542-1.945-3.406-.815-2.249-5.708-2.955-5.771-2.314-3.136-4.176-1.004-1.671-2.195.064-2.822-4.241-3.074-5.526-6.524-1.092-4.453-2.314-7.527 2.41-7.84 4.916-13.55 7.068-18.786 2.763-8.28.45-2.635.321-3.888.16-6.117.45-5.112.161-6.618.29-3.042 1.381-9.943 1.06-9.346.354-7.089 1.285-11.291.996-8.437 1.51-10.069 1.06-6.775 2.12-11.919 1.414-9.033.322-2.321-.483-2.259-1.606-4.641-2.602-7.183-1.157-5.897-1.414-5.552-1.96-5.834-3.084-9.034-2.634-16.499-.45-4.83 6.586-30.678 1.896-9.755 1.702-8.47 1.029-3.732 1.799-4.674.417-3.043v-2.603l-1.22-3.138-3.695-5.709L526-93.853l-.996-2.416-.45-5.678-.964-8.469.418-2.101 2.056-4.518 3.213-4.736 1.671-3.106 2.217-2.353 2.763-1.067 1.478-1.442.642-1.883.771-1.035 1.189-1.16 4.787 5.05 5.59-4.925 3.535 3.357 6.169 6.336 5.976 4.611 16.134 4.527 13.616 4.037 4.08.879 5.994 1.73 14.184 3.979-12.21 12.986-.385 1.38.514 3.263-2.313 3.638-1.157 10.791-.128 8.156-3.342 5.646-1.928 2.385 4.241 1.756 5.398.753 3.084 5.646 5.27 5.02 5.526 12.672.514 5.269 7.839 2.384 5.398.627 9.51 2.259 8.996-4.642 5.783-8.407-4.434-15.872 6.233-14.492 11.598 8.971 8.515 6.839 6.426 5.3 5.719 5.365 3.18 3.638 1.574 3.796-.385 2.101 1.381 1.569-.064 4.83-2.056 2.008-4.659 3.984-1.028 8.688 12.788 39.052.739 8.94.353 1.473-.515.659-.224 1.411-.386 1.13-.9 1.222-3.148 1.475-7.743 3.67-4.787 1.6-67.053 28.761-2.891 2.322h4.69l1.158 1.192.128 2.822.193 2.259v1.944l-.771 1.443-.964 1.254-.193.628-3.535 1.63-.45 2.887-2.312 3.261 1.413 7.026-.128 5.897 6.168-.126-.578-7.151.707-2.007 1.028-2.07-.385-1.506-2.121-1.318-1.606-2.32v-.502l.835-1.506.321-.752 1.157-.565.835-.816 1.992-.25h3.727l10.153.69 7.004-.251h9.895l18.121-2.698 10.217-2.572.128-9.91-.257-6.776-2.249-3.324.514-3.137-.257-3.638-.514-6.901 24.29-11.104-.643-17.25-.257-2.886 4.819-10.854 2.956-4.14 10.666-4.642 7.712 7.779v30.237l-15.55 55.454-1.928 11.04-11.438 15.682-3.856 14.428 3.727 17.94 1.285 13.047-4.755 8.406-24.675 11.541-15.678 8.657-13.109-4.266-16.964-5.394zM365.165 223.159l-1.96-.533.867 3.638v1.819l.74 2.007 1.734 2.509-.578.564-2.089.784-1.606-6.21-2.635-3.731-1.735 3.042v1.85l-.064 2.132.353 2.07 2.217-.47.546.063.803.627.611.596-.385 1.192-.257.439-3.63.721h-2.443l-1.446-2.478-1.028-1.317-.193-4.077-1.188-2.132-2.024-1.882-2.442-.69-3.02-.91-3.084-.439-1.768-1.129 1.639-.94 2.088-.314 1.125-.408 3.598-.502 3.053.502 3.47-.094 2.12.376.803-.659-.096-.72-.9-1.098-1.863-1.945-.643-1.003-1.35-2.29-2.698-3.7-.964-3.012 2.377 3.262 3.278 1.568-.515-2.634-.77-1.945-1.543-1.568-1.028-1.568-1.157-2.885.193-1.694 1.478 2.007 1.864 2.196 1.285 1.38 1.927 1.505 1.928 2.823 1.028 2.383 1.093 2.76 1.285 2.07 3.277 2.51.129-1.882.064-3.137-.579-2.948-1.156-2.572-.9-2.822-3.341-6.524-.514-5.018.257-7.025 1.67-4.14v-5.77l3.085-.754 5.912 2.384 6.81 1.63 3.47-.25 2.185-1.757-3.598-3.512-6.297-3.89-3.856-4.139-5.783-6.022-1.156-5.27 1.285-7.903 1.799-4.892 5.654-4.517 4.755-.502 12.466-4.14 6.94-3.042.514.407.064.299.097.172.096.753.257 1.6-.481.815-2.153 1.756.385.784.225 1.976 1.96 1.255 2.217.627.289-3.826-.835-1.976-.9-1.537-.434-1.458-.048-1.24.065-1.035.417-.454.402-.659 1.494-1.411 4.337-1.333 5.912-3.011 3.855.376 6.297 3.388 6.233 1.474 2.089-.66.867-.846 2.313-1.725 2.539-.753 1.638.032 1.96.47 2.249.847 2.314 1.6.353 1.317.16.878-.578 1.255-1.446.91-2.57-.095-3.663-.376-2.827-.408-1.895.69-1.928 1.192-2.12.188-.996.628-2.892 1.662-2.7 1.066-1.124 1.82.804.407 2.762-.628 2.507-1.473 2.827-2.258 1.414-.66.257 1.036-.579 1.725-1.028 2.383.61 1.255 2.378.376 5.784-1.63 6.328-1.914-.738 3.168-.643 1.85-.385 1.883.675 1.41.867 2.353-.29 4.172-1.413 3.198.097 3.67-.547 4.36-1.478 4.704-.546 2.823-.964 2.227-1.767 3.763.065 1.694.031 2.885 3.053.063.128 2.697-.032 1.286-1.863-.094-3.566.564-1.19.157-1.574.533-.803 1.788-1.574 3.325 1.735-.91 1.414-1.474.77-1.004 2.764-2.258.738-.376.965 1.066-.033 1.13-.9.846-2.345.502-1.189 1.506.804 1.819-.032 2.697-.193 4.704-.514 3.889-.257 4.077-3.277 5.583-3.406 3.638-3.598 4.014-3.213 2.446-7.326 9.095-.578 2.698 1.703 4.108.225.784.224 1.255-.031 1.819-.707 1.756-.193.44-.032-2.51-.225-1.474-.932-2.258-1.285-1.85-1.06-1.349-1.768-.878-2.152-.25-1.992-.472-2.28-.47-1.896.91-1.607 1.474-2.056.533-3.278.533-1.734-.972-2.12.439-3.15.408-3.148-.377-2.763-.439-.096-2.039.32-1.724-.096-1.349-.996-1.474-1.445-.345-.707.408 1.092 3.2-.064 1.128-.835.313-2.892-.345-2.538-.533-1.8-3.293.387-2.853zM518.16 507.15l44.723 108.866h64.257l4.113-34.616 13.365-9.532-28.273-41.138-12.851-27.093-13.88-3.512-23.646-65.223 9.767-7.526 13.365-50.174 20.049-55.193v-20.07l-17.993-8.03-38.554 7.026-19.167-7.638-3.452 30.218-51.405 35.123 23.646 55.693zM192.826 286.635l5.206-9.471-.13-2.697.322-1.631-.385-5.018.642-3.826.964-6.21-.16-1.191-.515-2.101-.257-1.13-.835-4.045.739-1.474.9-1.475.899-.564v-3.199l-5.269 1.505-1.028-1.254-.643-1.756-.386-3.513-7.325.126-3.598.627-4.241 7.401-1.928 4.265 2.185 3.011 2.442 2.259 1.67 3.01.386 6.021 3.984 6.022 1.414 9.408zM373.775 397.68l2.924-1.787 2.538-1.725 1.22-1.536.257-.878-.417-.502-1.35.345-1.028-.721-.224-1.694.417-1.191-.353-1.82.289-1.693 1.767-.878.642-.282-.353-.47-.836-.596-2.345-.784-.931-.596-.996.847-1.446.815-1.06.69-1.125.972.77.376 1.277-.105.845-.146.385.095-.032 1.003-.77.565-1.061.407-1.157-.596-.835-.501-1.125-1.317-.932-1.192-1.252-1.223-.386-.847-.707.565-.16.407.932 1.537 2.184 2.038.61.972-1.317.314-2.41-.44-.995.189.45.972.289 1.129.32 1.505.386 1.662.29 1.506-.29.72-1.96.879-.578 1.035-.642 1.474-.257.846 1.06 1.474.353.91.675-.377.803-.658 1.606-1.411.547-1.192.61-1.035 1.092.91.932 1.034.61.596 1.415.032zM391.911 352.664l1.012-3.23-1.895-.972 1.462-1.129-.113-.91-.401-.485.803-2.101.916-4.125.85-3.684.322-2.51 1.125.816 1.012-.031.289.517.674.816 1.51.595.563.487-.209 1.662-.176.674-.226 1.254-.835 2.023-3.855 6.037-.836 1.458-.562.91-.498 1.081zM411.96 324.346l-.827 1.11-1.533 1.173 1.196.851 1.253.304 1.645-.088 2.525-.653 2.263-1.279.933-1.733.367-2.381-.418-4.032-.367-3.69.51-1.214.712-.974 1.698-.857 3.539-.618 2.087-.524 1.525-1.146 1.372-1.735.54-3.164-.568-4.056-1.373-5.206-.471-2.177.254-1.087 2.244-4.297 1.899-2.237 1.893-.898 2.208-.401 3.15.633 4.525 1.064 1.404-.2.92-.655.217-.933-.333-.909-1.372-1.688-4.815-4.003-2.044-2.089-.575-1.842-.17-2.343.515-2.173 1.488-4.341 1.277-2.208 2.386-2.902 2.892-3.17 2.885-3.129 2.317-1.883 2.087-.095 1.312.29 1.252.567 4.169 4.053 3.411 2.281 5.782 1.591 5.56 1.173 3.357.497 3.858-.908 1.963-1.18 1.88-2.785.594-3.718.413-5.589.552-1.952-.799-.212-1.96 1.317-2.248 1.913-2.507 1.255-6.618 2.697-2.185-1.85-2.538-2.102-2.795-2.007-1.992-2.038-3.148-2.196-4.467-4.077-2.313-1.662-4.594-1.286-14.233-2.352-6.683-1.067-1.303 2.558-.36 2.687-.107 1.823-.341 1.968-.458.693.312 1.502-.62.217.092 1.068.796 1.754-1.278.986-.429 1.974.676 1.023 1.832 3.262.578 1.474-.675 1.443-.514 1.223-.032.313.032 2.73-.324 1.59.238 3.859-1.092 3.717-.209 3.754-1.986 3.261-.097 1.16.354 1.38.32 1.569.937.799.984.214-1.438 1.088-.45 3.073.113 1.318 1.054.748.915 3.954-.042 1.742.08 2.007 1.288 2.24-.206 1.147-.857.69-.08 1.067-.225 1.16-.321 1.098-.402 1.113-.738.91-1.527 1.614-1.735 1.992-.16.8-.563.72-1.783.596-1.285.784-.53 1.114.969-.398-.445 1.703-.47-.189.003-.625-.327.035-.325.634-1.638 3.575-1.157 1.976-.883 1.396zM326.792 369.301l1.984-.023 2.373-.375 1.368-1.07-.16-1.203 1.492.652 1.833-1.27 1.437-.477 1.282-2.17.34-1.578.979-.858 2.603-.332-.698-1.28-.868-.909-.805-.981-.427-1.172-3.506.265-2.312 1.266-1.916-.625-1.46-.793-1.309.51.753 1.99 2.779-.156 2.616.908-.744 2.89-6.635 1.058-5.052-.237.61 4.362z" clip-path="url(#pd19b53bbef)" style="fill:#006400;fill-opacity:.8"/><path d="m316.481 396.185-3.23-3.5-3.549-2.808-.627-4.385 1.197-4.233 2.768-.376 1.856-2.057 2.483-1.007 4.02-1.297 1.88-1.07-.638-.505 1.242-.975.1-.809 2.972-.942 3.47-1.481 2.393-1.128 1.365-1.228 1.988-1.025 2.006-.904.528.493 1.68-.674.78-.84-.64-.881.33-.833 1.101-1.294 1.777-1.26 3.456-.672 2.716-.424.882-.163 3.81 1.878-1.395 2.401-1.87 2.86-1.95 1.141-.828-.936-1.875 1.717 2.307.14 1.666-.987.283.547-1.178.603.817 1.356 1.042-.507.655 1.335-1.367.96-.6.13-1.553-2.26-2.948 1.471-.6-.572-3.248 1.518-.98-.546-1.673.638-.326.833.794.686 1.496 1.322-2.488 2.33-.913.798-1.293-.266-3.546 1.783-1.376-.385-.769.122-.635.675-.118.558.441.877-.199.837.454 3.12.05.953 2.069 2.319-2.531 1.086-3.053 1.094-2.811 1.05-1.822.543-.243-.774-.532.16.243.773-1.643.852-1.3.538z" clip-path="url(#pd19b53bbef)" style="fill:#006400;fill-opacity:.8"/><path d="m331.11 393.924 2.204-.649.868.088.414.143 1.005-.838-.968-1.374-1.196-1.477-4.268 1.61-3.852 1.486-3.503 1.422-2.205.82-.357-.477-2.77 1.507 3.766 3.596 3.295-2.252-.137-.195 1.693-1.019 2.613-1.14 2.566-.86z" clip-path="url(#pd19b53bbef)" style="fill:#006400;fill-opacity:.8"/><path d="m369.213 476.295 5.41 5.699 6.875-6.311-2.427-4.391 1.807-5.637.78-7.798 4.074.087.762-1.349-2.303-2.42 6.006-3.63 4.945-5.542-.531-6.595-3.55-2.814-7.628.259-.323-2.501 5.087-.685-2.335-5.91-3.834-1.11-3.53.333-2.982.376-2.32-.203-2.707-6.32-3.581.698.237 1.995-3.853 1.265-1.383 2.39-3.642.613-.992-4.149-2.093-2.532 2.138-9.496 2.04-4.014 3.166-1.005 1.98-1.395-1.717-3.383-3.612 2.308-1.255-4.967.285-4.485 1.31-.49.026-.533-2.862-.82-.221.79-2.089.99 1.298.636-1.437 2.418-1.097-.365-1.234 1.792-1.502-1.036-.345-1.82-1.916 1.31-.497.716-.574.494-1.994.689-2.031.304-2.261-.79-5.38-2.392-1.054-.8-.509-.742-.33-.158-.332-.027-.927.288-4.934 1.604-2.948 1.593-.715.346-.11-.144-3.294 2.252 4.755 3.638-1.927 6.397 1.413 11.164 7.712 8.027 6.554 8.906 4.626 1.38 2.699 6.146 2.827 4.39 1.8 2.132 2.441-2.383 4.37-5.143 1.81 3.231-2.713 8.699-.474 7.91zM285.391 234.862l.085.574.69.83 1.033.348 1.008 2.03.581 1.587 1.934 1.068 1.678 1.171 1.564-.897 1.953 1.03 2.1 1.392 2.825 1.8 1.748 1.646 3.22 1.111 1.29.547 2.785-.018 2.325.201.138-.835-2.028-.205-2.2-.683-2.622-1.892-3.382-1.979 1.447-2.276.034-3.811-.423-.065-.491-.677-.21-2.46-1.738.564-3.364.485-.894.436-.841.05-1.366-.96-.037-.34-.447.065-.93-.708.14-.594-.304-.265-.398-.168-.118-.258-.776-.07-1.304-.472-1.347.091-.71.306-.837.788-.314.58zM372.453 364.713l2.957-.552.697-.001.266-.621.47.01 1.67-.173 1.765.051.667.358.535.875.792.731.746.995.45.878.434.607.799-.077.767.417 1.34.61.788.582-.05.584.605.718 1.161.518 1.261-.494.782.296.94.894 2.101.377.636.008.332.272-1.064.986.232 1.187-1.836.676-.297-.098.626-1.183-1.338-.542-1.255.132-1.09-.667-.812 1.192-2.597-1.538.95-1.404-1.806-1.093-1.112 1.295-.817.46-.54.491-.303-.014-.334-.199.493-1.309-.14-.48 1.197-1.77-1.657-.292-1.931-1.353-2.112-1.092.361-.79-.574-.342-.499-.193-1.088 1.986-1.169-.292-2.485-.702z" clip-path="url(#pd19b53bbef)" style="fill:#006400;fill-opacity:.8"/><path d="m373.676 413.536-2.722 1.11-1.597.023-1.092-.508-.696-.857-1.513-3.293-.745-1.686.12-.914.622-1.465.666-.876 1.089-.474 1.078.117 1.837.004 1.767.045 2.31.202 2.054.428 1.08.82-.81.455-.137.46.595.21 1.046-.465.313.264.565-.635.56.004.707 1.635.392.548.66-.223 1.14.68.423.076-.019-1.014.369-.085.28 2.152-.244.697-.418-.037-.379-1.102-1.049-.554-.92.103-.143.806-.312.38-1.033.032-.004-.616-.748-.8-.42 1.064-.583-.03-.687-.244-.73.701-.887.145-.483.929-1.072.524zM393.785 370.4l-.992-.466-.293-.647-1.394-.504-1.547-.446-1.982-5.871-.488-1.503-2.295 1.548-2.038.646-1.268-1.718-1.074-.372.039-.203-1.366-.673-1.784-.244-.161 1.013.81.078.124.781-1.374.812-.228.524 1.279-.069 1.977-.132.566.107.807.264.74.998.827.67.893 1.107.293.544 1.392.654 1.23.559 1.461.968.571-.157.483.401.906.4 2.309.749.98.473.156.329.324.034z" clip-path="url(#pd19b53bbef)" style="fill:#006400;fill-opacity:.8"/></g><g id="PathCollection_1"><defs><path id="m7036952b42" d="M0 3a3 3 0 1 0 0-6 3 3 0 0 0 0 6z" style="stroke:green;stroke-opacity:.8"/></defs><g clip-path="url(#pd19b53bbef)"><use xlink:href="#m7036952b42" x="360.356" y="364.801" style="fill:green;fill-opacity:.8;stroke:green;stroke-opacity:.8"/><use xlink:href="#m7036952b42" x="361.012" y="365.047" style="fill:green;fill-opacity:.8;stroke:green;stroke-opacity:.8"/><use xlink:href="#m7036952b42" x="375.225" y="337.539" style="fill:green;fill-opacity:.8;stroke:green;stroke-opacity:.8"/><use xlink:href="#m7036952b42" x="374.155" y="337.677" style="fill:green;fill-opacity:.8;stroke:green;stroke-opacity:.8"/></g></g><g id="PatchCollection_3"><path d="m365.294 374.6-.715.637 1.457 1.298.09-.587zM362.018 362.867l-.867-.157.072-.314.883.15zM359.496 362.146l1.47.235-.024.322-1.51-.251zM359.287 362.099l-.868-.118-.056.29.892.157zM358.066 361.965l-2.337-.384-.161.29 2.466.384z" clip-path="url(#pd19b53bbef)" style="fill:green;fill-opacity:.8"/></g><g id="PatchCollection_4"><path d="m366.285 330.417 4.215-.094.136 5.834-4.214.094zM400.606 410.261l.024-1.724 2.63.034-.023 1.725zM406.625 360.199l.99.186 2.5.415.92-5.285-3.28-.652zM374.568 376.079l-.976 1.71-.997-.542.977-1.71zM372.385 377.08l.815-1.423-.792-.432-.815 1.422z" clip-path="url(#pd19b53bbef)" style="fill:#90ee90;fill-opacity:.8"/></g><path id="PatchCollection_5" d="m365.67 337.078-2.02-.106.072-3.767 1.784-.22.22-3.559 5.382.063.113 2.305-.37.063.37 5.315z" clip-path="url(#pd19b53bbef)" style="fill:#006400;fill-opacity:.8"/><g id="PatchCollection_6"><path d="m354.492 371.522 1.9-1.36.781 1.04-1.9 1.36zM352.013 373.145l2.216-1.544.766 1.048-2.215 1.544z" clip-path="url(#pd19b53bbef)" style="fill:#9acd32;fill-opacity:.8"/></g><path id="PatchCollection_7" d="m390.806 359.785.683-.453-1.533-2.887 1.223-.668 1.348 2.416.436-.096 2.172-2.875.945.405-.784 3.734-.351.61-1.474 1.057-.602.323-.251.164-.555.276z" clip-path="url(#pd19b53bbef)" style="fill:#d3d3d3;fill-opacity:.8"/><g id="PathCollection_2"><defs><path id="mc87821b245" d="M0 3a3 3 0 1 0 0-6 3 3 0 0 0 0 6z" style="stroke:#d3d3d3;stroke-opacity:.8"/></defs><g clip-path="url(#pd19b53bbef)"><use xlink:href="#mc87821b245" x="392.865" y="359.23" style="fill:#d3d3d3;fill-opacity:.8;stroke:#d3d3d3;stroke-opacity:.8"/></g></g><g id="PatchCollection_8"><path d="m365.72 363.168.428-1.328 2.022 1.013-.699 1.267zM366.823 376.568l.702-.738 1.3 1.18-.704.737zM351.975 355.456l1.14-.628-.32-.549-1.158.596zM364.257 364.137l.275-.664-.735-.29-.275.664zM360.546 362.96l-.22.572 1.128.413.22-.573zM398.709 321.13l-.28.487.34.332.366-.368.036-.31-.28-.035zM357.286 369.993l.483.6.513-.393-.484-.6zM355.71 371.174l-.005.085.025.082.052.069.073.047.086.02.086-.01.079-.039.055-.055.035-.069.012-.076-.014-.075-.037-.069-.056-.053-.07-.035-.078-.011-.078.013-.07.036-.06.062zM351.801 374.638l-.324-.435.063-.044-.38-.508-1.038.74.36.48.398-.283.345.46zM341.634 382.736l-.307-.516-.3.17.307.517zM346.863 383.514l-.267-.36-.393.279.474.637.778-.552-.206-.277zM348.188 380.006l.61-.619-.239-.224-.61.618zM365.553 335.63l-1.598.023-.035-2.354 1.598-.023zM361.15 329.447l.123.451-.328.082-.123-.451zM364.083 328.649l.123.451-.328.082-.122-.451zM359.765 331.099l.466-.12.086.32-.465.12zM362.233 330.184l.123.451-.328.082-.122-.451zM364.386 329.616l.123.452-.329.082-.122-.452zM359.528 330.271l.465-.12.087.32-.465.121zM361.012 330.523l.122.452-.328.082-.122-.452zM361.82 330.293l.124.451-.329.082-.122-.451zM360.922 328.74l.123.451-.328.082-.122-.451zM361.762 328.496l.123.451-.328.082-.123-.451zM360.722 329.573l.123.452-.328.082-.122-.452zM363.951 329.728l.123.451-.328.082-.123-.451zM359.163 329.041l.466-.12.086.321-.465.12zM361.97 329.217l.122.452-.328.082-.122-.451zM363.064 329.968l.123.452-.328.082-.123-.452zM361.348 328.61l.123.451-.328.082-.122-.451zM359.403 329.86l.466-.12.086.32-.465.12zM362.81 328.986l.124.451-.329.082-.122-.451zM361.585 329.321l.123.452-.329.082-.122-.452zM361.412 330.41l.123.45-.328.083-.122-.452zM353.127 336.994l.535.356.191-.274-.055-.037.103-.146-.56-.373-.167.24.08.052zM353.926 337.479l.406.276.302-.423-.246-.167-.12.168-.16-.11zM360.503 328.844l.122.451-.328.082-.122-.451zM362.389 329.097l.122.452-.328.082-.122-.452zM359.28 329.43l.465-.12.086.32-.465.121zM362.13 334.363l.847-.263-.187-.574-.846.263zM362.197 328.38l.123.452-.328.082-.122-.451zM363.497 329.844l.123.452-.328.082-.122-.452zM362.649 330.075l.123.452-.328.082-.123-.452zM364.5 328.545l.123.451-.328.083-.122-.452zM359.656 330.688l.466-.12.086.32-.465.12zM363.235 328.876l.123.452-.329.082-.122-.452zM363.659 328.762l.123.452-.329.082-.122-.452zM341.39 345.384l.572.234.282-.656-.572-.234zM364.764 346.023l-.174-.548-.625.189.17.553zM353.287 348.22l.357.24.3-.42-.359-.242zM355.094 334.224l.904.2-.232 1-.366-.081-.364-.9zM350.095 340.043l1.133.162.1-.67-.695-.1-.03.195-.436-.063zM353.381 346.602l-.47-.35.3-.385.472.35zM351.162 348.2l.341.276.363-.428-.34-.275zM363.287 344.189l.684-.255.18.463-.683.254zM355.676 336.715l.71-.22.23.705-.711.22zM351.008 344.551l.31.244.382-.46-.31-.245zM357.983 338.988l.66.23.161-.44.156.055.113-.307-.647-.225-.067.183-.17-.06zM359.591 335.41l.507.1-.069.33-.506-.1zM349.287 345.621l-.556-.371.287-.408.555.371zM361.35 339.517l.885 1.927-.349.153-.885-1.928zM346.396 355.572l1.829-1.223-.61-.867-1.828 1.222zM348.555 340.848l.665.374.217-.368-.233-.131.16-.272-.43-.242zM352.554 360.09l.399.189.173-.35-.397-.188zM359.793 344.13l-.747.312.361.826.748-.311zM360.67 343.542l.487-.155-.098-.291-.487.155zM351.996 340.644l.506-.612.388.305-.505.612zM357.176 339.84l.152-.155.172.004.137.139-.03.219-.117.086-.199-.015-.105-.113zM343.005 351.312l.552.055.08-.764-.552-.055zM356.117 336.216l.687.048.038-.518-.686-.048zM363.662 345.468l.908-.273-.182-.575-.907.273zM357.43 341.885l.416.655.609-.368-.416-.655zM347.113 340.732l.217.23.175-.157-.218-.23zM344.354 351.512l1.564.142.541-.784-.361-.59-2.02-.803zM353.217 338.108l.315-.485-.196-.121-.315.485zM353.652 344.153l-.38-.432.328-.276.38.432zM355.567 333.856l.512.144.098-.333-.511-.143zM350.849 348.21l.66.395-.374.595-.66-.395zM353.085 340.188l-.537-1.066-.465-.335.247-.294.526.293.745-.434.316.44-.798.533.334.708zM346.323 342.602l.413.636.442-.273-.413-.637zM342.08 357.588l.717-.316-.16-.345-.717.316zM347.992 341.89l.355-.265-.339-.432-.355.266zM341.967 351.507l-.341.01-.012-.36-.814.025-.009-.282 1.156-.035zM344.132 347.608l.261.25.199-.196.357.342.298-.295-.618-.593zM362.536 343.368l.508-.213-.202-.456.115-.048-.149-.337-.743.313.099.223.12-.05zM357.081 335.713l.548.029.024-.436-.548-.029zM348.175 339.045l.827.529.29-.432-.827-.529zM342.232 349.275l.441.043-.057.558-.441-.043zM361.746 340.04l.206.463.616-.26-.205-.463zM350.923 345.625l.505-.593.503.407-.354.418-.14-.114-.15.177zM340.357 342.295l.225.342.276-.174-.225-.341zM353.659 360.673l.63.31.417-.81-.631-.31zM354.032 363.677l.466-.812-.584-.318-.465.811zM358.39 341.081l.206.705.554-.152-.205-.706z" clip-path="url(#pd19b53bbef)" style="fill:#a9a9a9;fill-opacity:.8"/><path d="m364.136 346.217.628-.194.14.43-.628.194zM361.203 339.001l1.454-.543-.46-1.171-.639.239.073.185-.291.109.15.382-.524.196zM353.833 348.522l.322.225.3-.412-.32-.225zM362.363 343.607l1.25-.483.222.547-1.25.482zM351.733 342.623l.567.381.37-.526-.567-.38zM348.62 347.603l.374-.587-.445-.27-.373.587zM354.228 339.395l.244.319.317-.232-.244-.319zM358.959 336.603l.343-.545-.349-.21-.342.546zM349.953 345.733l.446.284.241-.36-.447-.284zM362.4 334.547l.395 1.105.421-.144-.041-.116.33-.112-.231-.648-.353.12-.123-.34zM324.803 380.588l.359-.1.113.39-.359.1zM308.596 282.433l-.114.31.445.156.114-.309zM313.69 309.078l.745-.206-.148-.51-.746.206zM316.136 310.728l.542-.545.335.317-.543.545zM316.942 311.069l.568-.469.34.392-.347.286-.14-.161-.22.183zM363.081 415.035l.71-.083-.044-.354-.709.082zM363.426 416.06l.174.768.8-.172-.174-.768zM358.936 426.558l-.47-.304.26-.382.47.304zM374.174 414.422l.27.364-.224.159.317.427 1.049-.736-.577-.793zM360.384 424.398l.628.168.167-.592-.628-.168zM373.012 418.812l.488-.1.064.292.518-.107.093.43-1.007.207zM358.808 436.679l-.115-.272.274-.112.117.272zM386.608 405.616l.959-.025-.033-1.185-.959.025zM358.293 424.208l-.034.19.267.047.035-.19zM384.937 407.64l-.005.395.403.006.005-.396zM360.942 411.403l.843-1.082 1.055.784-.844 1.082zM365.273 419.15l.58-.197-.273-.769-.58.197zM366.046 415.086l.122.423.772-.211-.122-.424zM356.077 429.566l.476.013.013-.487-.475-.014zM387.627 396.364l-.025.457.466.024.057-1.063-.697-.036-.033.606zM386.021 401.356l.674-.01-.008-.592-.673.008zM359.712 441.043l.634-.303-.184-.367-.633.302zM365.676 420.58l.082.343.531-.121.152.637-.655.15-.466-.35-.114-.57zM373.217 420.03l.023.385.406-.023-.022-.384zM376.422 400l.91-.636.41.557-.91.637zM371.517 399.325l.806-.545.56.788-.304.205-.127-.178-.29.198-.07-.097-.132.09-.072-.103-.078.053zM377.28 398.529l.49.82.622-.354-.49-.82zM355.463 419.714l.381-.025-.018-.256-.38.025zM359.301 415.715l.753-.252-.163-.464-.753.252zM359.38 423.634l.442.03.02-.296-.441-.03zM372.101 418.96l.127.438-.414.114-.127-.438zM356.936 428.554l.467-.055-.053-.422-.467.056zM361.802 413.843l.615-.112-.189-.982-.615.113zM369.308 399.162l.67-.394.497.805-.67.393zM356.928 413.711l-.02.823.795.02.02-.823zM364.862 410.186l.449-.181.5 1.174-.45.181zM384.846 399.668l-.105 1.34.584.044.105-1.34zM362.533 415.535l.75-.156.113.518-.75.155zM356.627 419.36l.669-.07.061.564-.668.069zM364.088 414.975l.117.398 1.066-.296-.116-.398zM370.388 418.708l.169.585-.241.066.09.312.63-.172-.258-.897zM360.637 414.991l.576-.161.084.287-.575.162zM356.184 418.237l1.161-.059-.032-.6-1.161.06zM372.592 418.696l.743-.169-.123-.517-.742.169zM357.747 411.255l.77.3.281-.68-.77-.302zM357.057 429.585l.525-.281-.217-.387-.525.28zM362.023 416.402l.063.51.519-.06-.063-.51zM366.652 403.997l.507-.397-.244-.297-.507.397zM372.098 418.348l.192-.05.145.517-.192.051zM365.233 420.373l.3-.097-.168-.497-.3.096z" clip-path="url(#pd19b53bbef)" style="fill:#a9a9a9;fill-opacity:.8"/><path d="m365.155 414.679.575-.124.06.23-.57.117zM356.267 432.248l.39.326.234-.266-.39-.326zM358.69 423.666l.473.052.04-.347-.474-.051zM358.842 423.87l-.056.324.414.068.056-.325zM364.565 422.533l.049.374.633-.078-.049-.374zM370.469 416.882l.361.037-.068.645.595.06.117-1.116-.956-.096zM368.711 419.674l.721-.163-.116-.493-.444.1.03.126-.278.062zM359.531 407.911l-.751.95.981.74.751-.95zM372.668 422.252l1.181-.212.082.433-.546.098.037.197-.634.114zM361.919 444.218l.19-.448.467.188-.19.449zM357.21 412.155l-.198.556.674.23.2-.556zM363.452 424.67l.114.723.53-.079-.114-.723zM372.256 403.797l.871-.04-.046-.953-.87.04zM359.14 422.48l.661.161.173-.678-.66-.161zM359.4 437.187l.13.39.363-.114-.129-.391zM355.718 433.478l.345-.197-.124-.208-.345.198zM359.62 412.81l-.239.374.73.441.238-.375zM375.846 397.747l.742-.466-.377-.571-.741.466zM377.88 466.424l.254.079-.09.282-.255-.078zM368.394 357.96l-.127 1.089.61.067.127-1.088zM368.523 357.706l-.027.24.425.047.026-.24zM352.129 337.4l-.112.222.283.137.112-.222zM352.392 337.003l.234.124-.11.197-.233-.124zM391.168 351.434l.695.218.666-2.018-.695-.218zM354.214 359.518l.686.335.223-.435-.37-.186-.323-.146z" clip-path="url(#pd19b53bbef)" style="fill:#a9a9a9;fill-opacity:.8"/><path d="m354.43 359.086.323.146.226-.475-.323-.147zM354.85 360.943l.299.111.322-.822-.299-.111z" clip-path="url(#pd19b53bbef)" style="fill:#a9a9a9;fill-opacity:.8"/><path d="m355.383 360.456-.256.694.57.062.208-.627zM355.954 361.236l.587.115.09-.439-.586-.115zM356.579 361.327l.586.115.091-.438-.587-.116zM357.217 361.424l.362.042.05-.416-.361-.042zM357.63 361.467l.392.065.15-.853-.393-.066zM358.085 361.493l.16-.719.403.086-.16.718zM321.95 392.515l.533-.16.243.774-.532.16zM322.171 392.268l.276-.089-.09-.26-.275.09zM322.111 392.337l-.234.082-.092-.25.234-.082zM373.306 385.618l.757-.466-.366-.567-.15.093-.135-.21-.278.17.046.218-.262.162z" clip-path="url(#pd19b53bbef)" style="fill:#a9a9a9;fill-opacity:.8"/></g><g id="PathCollection_3"><defs><path id="m7160b7a1bc" d="M0 3a3 3 0 1 0 0-6 3 3 0 0 0 0 6z" style="stroke:#a9a9a9;stroke-opacity:.8"/></defs><g clip-path="url(#pd19b53bbef)"><use xlink:href="#m7160b7a1bc" x="274.045" y="630.037" style="fill:#a9a9a9;fill-opacity:.8;stroke:#a9a9a9;stroke-opacity:.8"/></g></g></g></g><defs><clipPath id="pd19b53bbef"><path d="M111.421 86.4h515.158v554.4H111.421z"/></clipPath></defs></svg>