<svg xmlns="http://www.w3.org/2000/svg" width="960" height="960" viewBox="0 0 720 720"><defs><style>*{stroke-linejoin:round;stroke-linecap:butt}</style></defs><g id="figure_1"><path id="patch_1" d="M0 720h720V0H0z" style="fill:#fff"/><g id="axes_1"><path id="patch_2" d="M90 572.863h558V154.337H90z" style="fill:#fff"/><g id="LineCollection_1"><path d="m356.912 289.092-2.531 4.52M356.912 289.092l.77-.987M357.96 277.165l-.255 2.312-.097 1.108-.696 8.507M349.033 306.326l.634.129M349.033 306.326l-1.175 4.383-.063.265-.049.186-.08.176M337.259 303.29l9.372 2.373 2.402.663" clip-path="url(#p055b24b3c0)" style="fill:none;stroke:#000"/><path d="m350.59 301.4-.237.492-1.32 4.434M347.666 311.336l-4.518-1.018M347.666 311.336l.14.573M347.666 311.336l-.023.055-.031-.027.054-.028" clip-path="url(#p055b24b3c0)" style="fill:none;stroke:#000"/><path d="m347.666 311.336-.054.028.03.027.024-.055M347.666 311.336l.558.145M304.432 305.192l6.738.848M183.13 307.367l4.954-1.75 3.606-.345 3.322-.04 8.934.398 9.173.663 10.34.636 7.348.385 11.133.624 4.1.344 2.14.504 1.737.504 4.519 1.565 7.9 2.4 3.517 1.114 4.52 1.22 2.768.306 2.44.012 3.232-.94 7.108-3.436 7.676-3.368 2.56-1.075 4.324-1.471 2.005-.332.898-.013 1.048-.08M293.451 284.897l.207.495.156.756.24.77.112.948.135.298.36.318 2.004.703 2.44 1.1 2.528 1.791 3.098 1.565 1.796.862.568.358.151.383-1.969 7.432-.845 2.516M165.62 310.366l-5.266.158-3.142.503-3.173 1.406-1.915 2.281-3.633 3.325M412.314 326.386l5.091 2.756M412.314 326.386l-.44-.374M412.314 326.386l-.52.011M380.785 318.653l-6.957-1.533M380.785 318.653l.38-1.386M380.785 318.653l-.23.524M380.785 318.653l6.303 1.492M381.733 314.468l-12.584-3.02M381.733 314.468l1.448-.574M381.733 314.468l.656-1.683M381.733 314.468l-.568 2.799M523.773 398.077l-2.634-6.312-1.602-2.36-.853-1.094-1.35-1.396-3.042-2.847-2.311-2.407-2.298-2.3-1.336-1.138-1.238-1.018-1.803-1.313-3.367-2.559-2.746-2.008-1.908-1.545-.419-.305-.636-.633-.808-.7M491.835 360.73l.557 1.147 1.19 3.156.807 1.398.756 1.287.277.424" clip-path="url(#p055b24b3c0)" style="fill:none;stroke:#000"/><path d="m514.28 352.308-1.47.505-1.9.968-2.215 1.313-2.873 2.506-2.334 1.591-1.915 1.366-1.42.894-.838.69-.659.954-.838 1.3-1.017 1.644-1.379 2.103M545.314 400.112l-1.183-1.14-1.152-.849-1.257-.69-.89-.238-.712-.08-1.249-.033-1.34.259-1.413.616-3.524 1.89-2.185.961-1.616.245-1.429-.086-.965-.385-.689-.35-.644-.545-.546-.49-.747-1.12" clip-path="url(#p055b24b3c0)" style="fill:none;stroke:#000"/><path d="m534.943 393.363-1.003.013-.778.106-1.122.53-1.078 1.008-.748 1.087-.898 1.167-1.182.398-.808.199-.718.411-.479.464-.225.173-.358.053-.562-.253-1.21-.642M380.555 319.177l6.188 1.376M380.555 319.177l-1.277 5.449M380.555 319.177l-6.838-1.519M399.89 322.91l-6.732-1.498M399.89 322.91l1.66-5.525M399.89 322.91l-.183.486M399.89 322.91l4.127.863M399.707 323.396l4.186.84M399.707 323.396l-1.582 5.526M399.707 323.396l-6.671-1.474M411.794 326.397l.08-.385M409.828 331.439l.312-.904 1.257-2.885.397-1.253M408.449 325.43l3.205.944.14.023M350.797 301.005l-.208.395M354.38 293.613l-.738 1.122-1.003 1.585-.62 1.412-.518 1.009-.246.47-.329 1.041-.129.753M350.797 301.005l.006.444M349.667 306.455l6.473 1.459M349.667 306.455l1.125-4.413.014-.337-.003-.256M349.667 306.455l-1.443 5.026M330.073 308.62l-7.643-1.098M330.073 308.62l.546.207M330.073 308.62l.584-.02M341.439 310.484l1.613.36M341.439 310.484l-1.119 5.085M341.439 310.484l.09-.53M336.11 309.746l2.69.372 2.639.366M348.224 311.481l-.418.428M348.224 311.481l6.594 1.466M347.806 311.91l14.448 3.156M347.806 311.91l-1.2 4.693M347.806 311.91l-4.754-1.065M346.606 316.603l-6.286-1.034M346.606 316.603l4.936.95M594.8 564.814l-.575-1.73-1.033-1.856-1.1-1.2-1.466-.994-1.13-.483-3.405-.856-4.205-.676-6.839-.703-2.274-.37-1.601-.504-1.152-.464-3.539-1.253-2.133-.59-2.745-.205-2.394.053-1.864-.007-1.108-.146-1.676-.702-1.51-.809-7.765-6.309" clip-path="url(#p055b24b3c0)" style="fill:none;stroke:#000"/><path d="m548.493 514.93-1.444 5.56-.853 3.746-.995 2.704-1.182 1.525-1.4 1.193-2.11 2.015-1.076 1.843-.42 1.431-.24 1.657.345 1.71.614 1.353 1.122 1.524 4.432 3.82" clip-path="url(#p055b24b3c0)" style="fill:none;stroke:#000"/><path d="m534.542 537.168 8.913 7.394.9.407.931.041M548.493 514.93l.681-1.698M534.225 526.264l3.546-2.16 7.049-4.203.942-.796.689-.888.748-1.498.404-1.007.89-.783M534.225 526.264l-2.724 1.776-.568 1.154.209 1.405 2.649 5.29.75 1.28M518.486 560.389l.04-.154 3.039-3.666 1.752-1.742 1.3-1.201 1.706-1.445 1.318-1.22 1.665-1.131 1.222-.942 4.205-5.457.524-.94.18-.902-.599-2.97-.296-1.45M374.67 276.706l-2.716 1.213M371.954 277.92l-1.188-1.457M371.954 277.92l1 1.16M419.586 255.633l-1.766.954-2.38 1.207-1.046.504-1.452.836-2.41 1.233-2.229 1.234-.958.424-.733.16-.943.158-1.332-.053-1.93-.066-.972.013-2.006.04-1.736.252-.987.2-.554.158-.778.345-5.791 3.077-5.627 2.851-6.39 3.6-2.97 1.744-3.83 1.959M357.681 288.105l2.358-4.145 1.616-2.666 1.467-1.803 2.207-2.282.393-.218.24-.1.276-.046.3.053.246.106.741.405.337.126.345.054.029.005.36-.02.41-.12.495-.251 1.265-.74M381.165 317.267l2.016-3.373M401.55 317.385l12.825 2.66M401.55 317.385l-6.49-1.205M401.55 317.385l1.06-4.163M388.38 314.861l-4.43-.908-.77-.06M414.674 334.182l2.731-5.04M414.674 334.182l-3.618 6.377M414.674 334.182l3.047 1.367M409.828 331.439l1.15.647 2.185 1.287 1.511.809M414.775 341.535l2.946-5.986M418.888 333.45l-1.167 2.1M409.828 331.439l-1.466 2.955M409.828 331.439l-11.703-2.517M405.36 338.395l-6.207-.92M399.153 337.475l-.812 3.317M399.153 337.475l.872-2.572M396.763 334.24l-.764 2.56 3.154.675M400.025 334.903l-3.262-.664M400.025 334.903l.53-2.196M396.763 334.24l.497-2.262M400.555 332.707l7.807 1.687M400.555 332.707l-3.295-.73M397.26 331.978l.865-3.056M414.375 320.045l-2.501 5.967M422.53 316.677l-.658.557-.711.238-.998-.18-3.466.135-.776.202-.581.215-.546.954-.42 1.247M408.362 334.394l-1.53 3.978M398.125 328.922l-6.858-1.52M395.06 316.18l-6.68-1.319M395.06 316.18l-1.902 5.232M393.158 321.412l-6.07-1.267M393.158 321.412l-.122.51M393.036 321.922l-1.769 5.48M393.036 321.922l-6.293-1.37M391.267 327.402l-6.158-1.5M390.675 310.358l-1.806 1.444M388.869 311.802l-.884.154-.83.132-.763-.006-.77-.186-2.971-.776" clip-path="url(#p055b24b3c0)" style="fill:none;stroke:#000"/><path d="m388.38 314.861.359-1.963.114-.793.016-.303M388.38 314.861l-1.292 5.284M386.743 320.553l-1.634 5.35M385.11 325.902l-5.832-1.276M377.907 329.898l-3.83-.835M377.907 329.898l1.37-5.272M382.667 331.104l-2.68-.715-2.08-.49M383.713 331.383l-1.046-.279M373.828 317.12l-5.866-1.284M373.828 317.12l-.111.538M373.717 317.658l-1.547 5.268M373.717 317.658l-5.949-1.333M372.17 322.926l7.108 1.7M372.17 322.926l-5.93-1.515M362.412 314.62l-2.832-.642M362.412 314.62l-.158.446M362.412 314.62l5.55 1.216M362.254 315.066l5.514 1.26M362.254 315.066l-1.534 4.834M366.24 321.411l1.528-5.086M366.24 321.411l-5.52-1.511M367.768 316.325l.194-.489M367.962 315.836l1.187-4.388M369.15 311.448l-8.132-2.314M362.48 304.082l8.058 1.82-.914 3.803-.168.666-.307 1.077M362.48 304.082l1.283-5.846M361.018 309.134l.578-2.284.232-.643.652-2.125M359.58 313.978l-4.762-1.031M359.58 313.978l1.438-4.844M361.018 309.134l-4.878-1.22M357.681 288.105l3.464.71M361.145 288.815l-2.042 7.117M363.763 298.236l1.802-7.843-.12-.623-.582-.237-3.718-.718M359.103 295.932l-.696 3.454M359.103 295.932l4.66 2.304M359.103 295.932l-4.722-2.32M347.097 289.212l3.38 2.142.704.497.777.398 1.28.756 1.143.608M293.451 284.897l1.149.376 1.168.69.807.663 1.033.41.883.08 4.115.81 7.886 1.352 1.541.279 1.542.172 1.272.186 1.003.398 1.526.291.853-.013 1.122.45.943.624 1.422.73 1.645.398 1.871.08 1.691.225 2.858-.292 1.347.172 1.422.318 1.75.106 1.407.04 3.382-.305 2.514-.729 1.886-.65 1.87-.928 1.317-.862.337-.491.084-.265M357.96 277.165l-1.07.336-.914.57-1.908.995-1.615 1.088-.958 1.432-.644 1.963-1.002 2.28-1.916 2.242-.836 1.14M357.262 303.029l-1.122 4.885M357.262 303.029l.25-1.603M357.262 303.029l-6.46-1.58M356.14 307.914l-1.322 5.033M360.72 319.9l-9.178-2.347M381.186 362.225l-.122-.726-.224-.517-1.302-1.14-1.078-.916-.628-1.047-.36-1.18-.359-1.473-.373-4.09-.375-.856-.583-.809-2.215-2.499-.598-.869-3.592-6.895-1.893-2.97-.516-1.049-.718-1.465-.719-.888-.815-.657-.973-.603-2.641-1.067-.92-.418-.704-.398-.367-.425-.276-.278-.412-.676-.546-1.188-.606-1.451-.277-.57-.452-.531-.749-.965-.666-.978-.509-.994-.344-.833-.46-.633-.584-.702-.912-.925-.427-.461-.349-.53M336.687 315.052l3.633.517M341.528 309.953l-2.681-.364-2.682-.364M341.528 309.953l1.62.365M318.087 308.402l-1.356-.345M316.731 308.057l-.596 2.286M316.731 308.057l.286-1.28M322.43 307.522l-1.358 3.4-.284.53-.5.098-4.153-1.207" clip-path="url(#p055b24b3c0)" style="fill:none;stroke:#000"/><path d="m311.17 306.04-.214 1.606.224.901.584.385.808.358.988.53.958.26.628.291.502.126.487-.154M317.523 304.722l-.506 2.055M331.053 306.226l-.396 2.373M331.053 306.226l.943-4.27M323.616 305.113l4.13.557 3.307.556M323.616 305.113l-.498.013-.437-.146-.352-.12-.254-.105-.247-.252-.442-.385-.524-.331-.695-.339-.472-.272-.456-.43M332.55 297.978l-.554 3.978" clip-path="url(#p055b24b3c0)" style="fill:none;stroke:#000"/><path d="m317.615 298.8 1.332.849.509.278.561.28.472.158 3.112.543.554.2.134.41-.673 3.595M317.017 306.777l-5.847-.737M317.017 306.777l5.413.745M491.835 360.73l-.82-1.69-.62-.863-.6-.604-.837-.862-.697-.497-.897-.603-1.265-.71-1.975-.61-3.995-.948-2.963-.696-2.762-.835-3.516-1.067-6.143-2.315-2.297-.882-5.97-2.128-5.717-1.99-4.213-1.65-6.067-2.175-1.34-.53-1.1-.544-1.571-.908-1.541-.988-1.482-.955-1.429-.743-1.152-.41-1.302-.412-4.819-1.512-1.942-.702-1.26-.451-.958-.438-3.18-1.87M404.017 323.773l-.124.463M408.787 324.925l-.674-.234-4.096-.918M408.449 325.43l-1.616.662-1.16-.238-1.28-.637-.5-.981" clip-path="url(#p055b24b3c0)" style="fill:none;stroke:#000"/><path d="m403.893 324.236.5.981 1.28.637 1.16.238 1.616-.662M485.679 225.887h-1.557l-.808.093-2.215.397-1.496.584-3.547 1.817-3.75 2.133-3.801 1.882-2.155 1.062-1.557 1.353-.987.822-1.137.557-2.395.292-1.137.398-1.826.928-3.531 1.804-5.238 3.077-1.496.902-1.437.504-1.257.822-2.963 1.432-2.394 1.194-.614.504-.957 1.618-1.197 1.936-.42.531-.628.372-.898.106-1.915-.08-2.454-.053-1.946-.186H426.2l-1.766.53-2.244.69-1.437.77-1.167.955" clip-path="url(#p055b24b3c0)" style="fill:none;stroke:#000"/><path d="m486.726 225.426 2.873-1.114.18-.279v-.53l-.479-1.154-2.185-4.046-.24-.822-.044-.637.105-1.525-.15-.756-.314-.902-.255-1.684.045-.916.18-.557 1.346-2.274.165-.69v-.73l-.464-1.499-.314-.37-2.364-1.898-.404-.12-.51.067-1.241.597-3.083 1.021-.688.624-1.616 1.843-1.616 1.208-3.023 2.453-1.392.982-1.407.783-2.723 1.233-6.136 3.302-.06 2.706-.164.372-.958.636-.928.438-.942.199-.778.04-1.527-.106-5.357-.663-1.886-.61-.882-.531-1.063-1.83-1.362-1.698-1.87-3.077-1.197-2.162-.45-.411-1.002-.226-.434.026-.449.16-.524.557-1.466 2.122-1.631 2.069-.599.53-.434.61-.404 1.035.27.969 2.065 3.86.478.516 2.858 2.481.554.623.165.703-.165.53-.539.77-1.825 1.976-1.212.942-6.81 4.55-1.585 1.22-1.975 1.18-1.228.557-1.107.809-1.676 1.419-5.162 3.488-.195.345-.045.385.41 1.75.328 1.22 1.318 2.839.388 1.459.27 1.591-.24 1.274-.359.955M486.561 226.086l-.882-.2M545.312 247.227l-4.76-3.183-1.076-.743-10.416-5.199-10.774-4.801-1.886-.531-3.77-.875-8.904-1.91-10.715-2.348-6.45-1.551" clip-path="url(#p055b24b3c0)" style="fill:none;stroke:#000"/><path d="m486.726 225.426-.195.238.03.422M485.679 225.887l1.047-.461M567.998 227.995l-.33.77M567.998 227.995l.901.539M567.669 228.765l1.23-.231M545.312 247.227l4.34 2.785.867.398.778.16h.988l.838-.24.599-.37.658-.77v-.981l-.39-1.3-.09-.982.031-1.06.21-.982.478-.929.689-.848 3.621-3.687 1.766-1.884 6.974-7.772M501.78 282.37l.436.012 4.415-.597 2.439-.318 2.918-.942 1.211-.438 1.138-.968.988-1.114.808-.663.09-.358.044-.942.15-1.3.763-.927.883-.319.74.159.944.902.89.81 1.78 1.073 1.954 1.546 1.175 1.16 1.45 1.074 1.243.796 1.047.344 1.691.28 2.125-.293 1.482-.796.853-.888-.03-.928-.27-1.075-.747-1.233-.869-2.838-.568-2.52-.48-1.645-.643-2.32-.344-1.154-.134-1.71.254-.704.359-.981-.045-.717-.808-2.93-.973-3.064-.359-1.817.464-1.486.36-.557.628-.915.943-.584 1.915-.98 1.93-.93 1.108-.994 1.452-.517h.912l1.093.251 1.331.133 2.125-.026 1.27-.195M402.604 193.004l5.404.28 14.025-1.111 1.567-.296 1.14-.534 4.715-2.919 4.399-2.871M482.209 515.314l.344.04 1.356-.572 1.202-.621.863-.493 1.038-.17.868-.133 1.032-.239 1.647-.504 2.409-1.086 2.14-1.088 1.272-.49 1.51-.61.84-.61.994-.683.442-.139h.277l.546.279 1.1.338.688.159.546.12 1.326.137 1.856.663 2.993 1.22 1.347.503 1.107.132 1.407-.053 1.606-.369.928-1.113.698-1.858.808-1.856.808-1.087.54-.557.598-.292.479.053.598.398.539.849.903 2.043.539 2.001.658 2.029.719 1.843.733 1.193 1.092 1.26 1.018 1.14.823 1.007.897 1.1.809 1.564 1.272 1.631 1.055 1.213.89.855.95.868.457.378.449.557M599.453 437.468l-.672-.456-1.048-.397-.815-.24-1.055-.105-16.775-.557-1.691-.126-3.471-1.028-3.099-1.18-3.853-1.617-.95-.557-.927-.683-1.07-1.246-.427-1.067-.202-.71-.053-.736.367-1.995.965-3.574.03-1.538-.419-1.326-.748-1.02-.576-.61-.815-.663-1.759-1.127-1.43-.982-1.615-1.26-1.422-1.49-.958-1.095-4.728-4.753-1.34-1.247-1.63-1.81-1.953-2.161" clip-path="url(#p055b24b3c0)" style="fill:none;stroke:#000"/><path d="m579.337 409.657-1.691 1.247-1.497.318h-2.095l-2.215-.371-8.918-1.326-1.796-.451-1.137-.584-.479-.477-.389-1.246-.539-1.273-1.227-.955-1.107-.318-1.377-.637-1.167-1.06-1.137-.663-2.215-.796-2.275-.53-1.945-.319-.817-.104M591.756 402.596l-2.558.51-1.885.372-1.826.477-1.257.584-1.257.955-1.167 1.299-1.371 1.712-1.098 1.152" clip-path="url(#p055b24b3c0)" style="fill:none;stroke:#000"/><path d="m579.252 405.92-.628-.146-.913.477-.194.676.419.968.404.424.539.663.458.675M165.62 310.366l.93-.028 5.926-.212 2.723-.398 3.352-.637 2.323-.623 2.257-1.1M169.09 298.547l.55.373 2.237 1.405 3.277 1.883 4.61 3.018 3.367 2.141M169.09 298.547l-1.583-1.073-2.476-1.253-.644-.206-.673-.08-1.01.047-1.758-.106-1.497-.279-1.429-.577-2.012-1.63-2.537-2.07-2.31-1.95-2.569-2.506-1.292-1.738-1.162-.861-1.945-.902-2.993-1.538-1.945-2.122-2.155-3.236-2.424-4.138-2.071-4.524-1.197-1.671-.988-1.644-2.813-3.873-1.467-2.308-.957-1.883-2.125-3.342-.509-.929-1.526-2.997-1.137-2.202-2.036-3.687-1.137-2.149-.988-1.644-1.466-2.282-2.454-3.21-2.155-3.368-.629-1.433-1.167-1.883-1.167-2.255-1.526-2.042-2.006-2.016-1.586-1.778-.838-1.326.06-1.3.838-1.724 1.795-1.884 1.557-1.114 2.095-1.485 1.766-1.592 1.227-.796 1.526-1.061 1.706-.61 1.676-.345 1.796-.106 2.214-.053 1.676-.132 1.946-.08 2.544-.16 2.873.213 1.496.239 1.916.61 3.173 1.193 1.106.319 1.228-.08 1.825-.636.928-.584 1.197-1.061.958-.372 1.826-.318 4.22-.61 4.789-.637 3.262-.45.958-.133 3.95-.372 3.172-.663 3.232-.424 2.066-.398 2.663-.822 4.4-.93 4.819-1.113 2.274-.053 2.454.398 2.125 1.246 2.185 1.83 2.574 2.017 2.424 1.804 2.035.61 1.646-.292.928-.875.689-1.486-.06-2.255-.3-2.759.09-1.75.718-1.592 1.197-1.353 2.126-1.247 2.992-1.114 3.772-1.3 5.536-1.75 5.417-1.009 3.263-.584.957-.45.958-.955.689-1.3.269-1.247v-1.406l-.03-1.194.299-.69.748-1.14.958-.955 1.736-1.035 2.215-1.22 1.436-.744 2.784-1.458 3.022-1.512 2.305-1.3 1.526-.584 1.586-.319 1.317-.238 3.023-.133 2.215-.212 1.616.106 1.377.398M402.604 193.004l-.97-.906-2.364-1.035-2.364-.663-1.706-.16-1.466.187-1.736-.24-1.168-.238-2.095-1.353-1.646-1.061-1.466-1.087-1.766-1.061-2.095-1.009-1.945-.902-1.437-.61-2.214-2.096-4.85-5.305-2.753-3.449-2.364-2.229-1.287-1.06-2.514-1.778-3.142-1.486-3.801-1.485-2.574-1.088-2.813-.451-1.736-.053-1.766.292-2.125.981-1.107.85-1.108.9-2.244 1.062-4.52 2.202-2.214.796-1.707.69-1.196.08-1.946.026-1.826.424-2.543.77-4.46 1.247-4.43.69-3.8.105-3.771-.026h-3.8609999999999998l-3.113.053-3.68.53-3.054.584-3.442.717-2.723.663-2.813.239-1.377.079-1.526-.132-2.634-.478-1.467-.239-1.286.053-2.036.08-1.676-.16-1.676-.795-2.693-1.406-2.066-.982-1.705-.716-2.454-.796-5.986-1.46" clip-path="url(#p055b24b3c0)" style="fill:none;stroke:#000"/><path d="m357.96 277.165.194-1.76.518-3.63 1.657-8.638.148-4.338-.988-4.642-2.782-9.01.184-1.194.916-.868 1.721-.583 1.908.01 1.693.866 8.01 5.9 3.315 1.149 1.658.076 1.55-.447 9.022-4.02 1.444-1.78.615-2.196-.068-.837-.604-.837-1.128-1.497-.487-1.593-1.677-3.764-1.322-2.258-1-2.352-.071-2.235-.303-2.049-.258-2.647.6-3.075 1.744-3.15.364-1.479-.44-1.527-1.255-2.076.059-1.768 1.67-3.012 1.648-1.924.976-2.325.655-3.086 2.252-2.411 1.916-1.245 1.735-.455 1.574-.741 1.353-.912 2.264-.484 3.664.683M618.654 335.534l.808-.636.795-.77.058-.424-.238-.77-.6-1.14-1.182-1.776-1.063-1.353-1.541-1.843-.554-1.273-.09-1.114.614-1.22 1.706-2.082.913-.703 1.63-1.194 1.707-1.22 2.888-2.228 1.66-1.458 1.168-1.3 1.033-1.001.995-.915 1.953-1.094 1.96-.796M618.654 335.534l-.748.318-1.362.889-1.197.782-2.35 1.22-1.579.862-1.31.113-1.106-.02-6.044.012-2.573.053-2.335.053-2.501-.105-2.378-.134-1.915-.053-2.636.161-2.96.555-2.591.532-2.53.796-3.05 1.351-1.543.757-.612.649-.69 1.062-.808 1.154-1.407.623-2.215.345-2.215.61-3.352.796-2.828.715-1.3.264-1.259.095-2.14.026-2.484-.291-1.778-.413-1.527-.398-1.377-.106-1.077.106-2.395.345-3.621.928-3.62.928-2.276.716-1.932.678-1.736.743-2.048.25-1.616-.424-2.125-.902-2.424-1.008-1.377-.424-1.646-.08-2.604.372-2.305.503-2.873.77M525.096 338.955l-2.125 3.462-.972 1.79-1.048 2.135-1.406 2.612-2.41 1.591-2.856 1.763M602.719 246.293l-1.586-1.061-1.257-.982-.928-.954-.748-.982-.39-1.06-.389-.478-1.107-.637-1.676-.292-1.825-.61-1.557-.584-1.077-.742-.63-.717-.807-1.525-.868-1.75-1.287-1.672-1.466-1.485-1.796-1.22-2.424-.876-2.455-.159-2.214-.159-3.86.08-3.473.106M611.024 278.884l.522-.308.568-.664 1.529-1.898 1.706-1.883 1.017-1.114 1.078-.557.928-.212.508-.478.449-.901-.12-1.114-.299-.849-2.125-7.056-.658-2.334-.868-1.592-1.287-1.22-2.694-2.149-1.975-1.193-3.592-2.228-2.394-2.069-.808-.955-.12-.557.15-.716.18-.544M560.122 300.168l-.396.395-1.244.85-1.72 1.074-2.8 1.18-1.69.995-1.257.835-2.858 1.817-2.53 2.162-2.843 2.48-2.648 1.71-2.484 1.711-1.84 1.26-2.994 1.923-1.913 1.404-1.918 1.978-.644 1.193-.119 1.34.195.782.448 1.26.42 1.034.045 1.008-.12.941-.973 1.79-1.242 2.268-.569 1.273-.494 1.393-.493 1.551-.345 1.18" clip-path="url(#p055b24b3c0)" style="fill:none;stroke:#000"/><path d="m562.472 282.962-.114.136-.644.41-.988.439-1.63.676-2.874 1.79-2.274 1.844-3.382 1.897-3.008 1.485-2.738 1.472-2.23.955-1.916.597-1.855.809-1.212 1.166-1.541 1.645-2.47 2.93-1.601 1.54-2.02 2.36-2.933 2.97-1.766.995-1.122.04-2.29-.412-.718.08-.853.226-1.137.65-.809 1.047-.943 1.074-.792 1.698v1.1l.359 1.128.419 1.154.284 1.26.105 1.63-.33 3.077-.104 2.162.164 1.02.345.65.853 1.061.703.995.404.716.374 1.048.569.889.269.45.135.73-.045 1.18v.69l.539.782.583.477 1.317.889.569.662.972 1.724M418.146 417.641l4.34-5.476 1.885-2.85 1.212-2.56.21-1.657-.21-1.724-.733-1.99-.554-1.312-2.738-4.442-.658-.636-1.377-1.525-2.544-3.023-4.968-6.657-2.2-2.466-1.706-1.817-1.631-1.604-2.125-1.406-5.133-3.103-4.549-2.89-3.202-2.148-3.832-2.361-2.558-1.432-3.889-2.337" clip-path="url(#p055b24b3c0)" style="fill:none;stroke:#000"/><path d="m365.875 375.382.869-.278.673.16 4.669 1.763 1.541.159 1.525-.31 6.391-4.093.359-.49-.045-.53-.03-.359-.419-.424-1.735-1.074-1.467-1.42-.194-.423-.075-.623.194-.903 1.04-2.598.876-.895 1.14-.82M380.002 469.244l15.593-17.342 14.306-16.03.583-.928.584-1.3 2.05-6.934 1.197-3.275 1.392-2.44 2.44-3.354M393.962 410.858l.855.22 3.217 1.325 1.571.385.973.106.988.066 2.26.464 2.558 1.22 2.454 1.087 1.706.57.674.16 2.618.172 2.455.411 1.855.597M308.996 503.037l.95-.106 3.285-.357 2.23.04 4.31-.173 6.883-.331 3.621-.106 3.472.238.898-.146 1.317-.358 6.375-2.002 1.63-.822 2.53-1.763 1.42-.69 1.917-.105 2.035-.16.838-.172 1.466-.371 3.502-1.697 3.232-1.697 1.452-1.564 2.888-4.057 3.382-3.632.912-1.18.66-1.22 1.75-4.84.628-1.431.748-1.034 2.156-2.086 1.454-.644 1.284-.69 1.78-.637" clip-path="url(#p055b24b3c0)" style="fill:none;stroke:#000"/><path d="m404.918 510.402-.6-1.942-.613-2.28-.643-2.413-.584-1.843-.554-1.047-1.466-1.578-1.204-1.087-1.84-.902-1.475-.841-.606-.564-.396-.908-.734-2.128-1.706-3.394-2.14-4.136-1.302-2.4-1.332-1.538-1.167-1.418-1.646-2.334-2.544-3.805-.778-1.286-1.302-2.373-.284-.941M308.173 506.286l.329-1.89.284-.96.21-.399M311.233 489.528l.098 4.375.112 1.399-.03 1.04-.262.557-.15.299-.045.39-.329 1.188-1.085 1.286-.569 1.086-.15 1.293.173.596M331.996 301.956l5.263 1.333M276.867 407.407l-1.357 4.276M289.73 397.885l-.15.026-2.253.875-1.93.73-1.272.675-1.107 1.326-1.377 2.228-.958 1.485-1.541.928-2.275 1.25M271.055 410.916l1.563-1.184 2.46-1.45 1.79-.875M534.406 477.3l.919 1.284 3.337 5.462 1.938 2.499 2.11 2.002 2.858 2.705 1.84 1.71 1.003 1.577.763 1.42.494 1.59.524 2.002.15 1.79-.315 6.482-.322 3.17-.53 2.24" clip-path="url(#p055b24b3c0)" style="fill:none;stroke:#000"/><path d="m575.825 498.992-2.753 1.248-10.056 4.401-2.813.955-2.649.981-1.466.902-1.751 1.604-4.55 3.778-.613.371M575.825 498.992l1.662-.754 2.364-.822 1.077-.238 2.634-1.22 4.43-1.75 3.681-1.127 1.99-.583 1.123-.425.867-.622 1.228-.504.748-.213.718.047.748.219.33.146.508.092.92-.066 2.163-.185 1.72-.093 1.752-.478 1.765-.795 2.44-1.91 1.6-1.219.853-.483 1.812-.525 3.172-.689 1.092-.265 2.395-.663 3.517-1.445 2.11-.756 2.603-.557 1.332-.304 1.122-.226 1.96.014 1.722-.16.718-.013.509.173.06.503-.255.77-.928.834-1.586 1.83-.269.477-.127.636-.247 2.069-.404 2.651M308.173 506.286l.24 1.63.313 3.116-.179 1.988-.583 1.392M328.523 562.567l-.104-.179-.134-.888-.15-3.46.255-3.858.448-3.088.524-2.612.689-1.537 1.242-2.678.524-2.294-.075-2.863-.763-2.745-1.093-2.478-.3-1.114.33-1.737.12-.742-.27-.57-1.062-.808-.719-1.684-1.48-3.036-1.213-3.38-.613-1.246-2.156-2.069-.508-.424-1.407-.756-3.113-2.041-1.556-1.38-1.466-.781-1.856-.093-1.077.278-2.17 1.42-1.406.688M296.313 525.376l.487-.04 1.107-.53 1.093-.942.793-1.286 1.451-3.102 1.197-1.59 1.228-.57 2.23-1.326 2.065-1.578M265.39 456.529l.344.623.419.795.33 1.286-.15 2.003.358.65 1.407 1.524.913 1.538 1.945 4.19.195.994.075 1.207.015 4.534.18.98.628 1.313 1.107 1.618 2.275 2.611 1.75 1.618 3.562 3.367 2.125 1.79 1.78 1.339 2.425 1.817 1.496 1.51 2.23 2.255 1.392.967 2.768 2.135 3.248 2.333 1.047.69 1.257.715 2.993 1.592 2.873.967 1.796.796" clip-path="url(#p055b24b3c0)" style="fill:none;stroke:#000"/><path d="m275.142 412.846-2.675 8.428-1.167 3.898-2.244 9.281-2.125 8.54.18 1.298.718.77 1.766 1.285.509.81.15 1.299-.225 5.555-.322.643-.337.43-.292.206-.5.126-.487-.08-1.003-.715-.434-.067-.516.319-.314.37-.39.757-.044.53M230.088 442.037l2.874-.424 2.095.172 1.915 1.14 1.541 1.088.584.928.629 1.286 1.885 2.625 1.003 1.114.748.557.688.517 2.066 2.705.463.265 2.02.875 1.976.636 1.825.226h2.859l2.08.212 2.274-.186 1.766.014.853.159 1.452.437.613.16.913.052.18-.066M393.962 410.858l-1.884-.483-3.157-.703-2.71-.45-2.947-.359-1.197-.279-2.125-1.153-1.557-.782-.733-.65-.807-1.1-.704-1.512-.464-1.38-.194-1.444.359-.73.21-.53-.045-.478.104-.45.404-.636 1.048-.677.434-.65-.06-1.193-.075-.53.135-.862.329-.915.938-.535M358.887 393.734l1.062-.411 2.814-.915 2.334-.504 2.245-.384 3.412.225 2.05.212 2.544-.013 3.916.433" clip-path="url(#p055b24b3c0)" style="fill:none;stroke:#000"/><path d="m365.875 375.382-.224.491-.105.809.21.902.418 1.127.51.914.418.597.54.49 2.214 1.672 2.245 1.127 2.154.954 1.811 1.061 1.272.955 2.679 1.764.928.702.366.431.083.47-.39.836-1.74 1.693M395.31 396.611l-2.963-.304-1.795-.465-2.919-.742-2.154-.597-1.796-.723-1.018-.49-1.376-.458-2.025-.455M341.409 379.267l.958.266 1.586-.014 2.529-.397 3.621-1.114 1.556-.743 1.646-1.18 1.452-1.1 2.305-1.658 2.064-1.698 1.07-.868.89-.683.495-.04.359.067 1.242.37.793.505.688 1.114.673 1.763.255.889.284.636M534.406 477.3l-.264-.367-1.369-2.042-1.197-2.154-1.34-2.287-.426-1.027-.254-1.187.195-1.419.246-1.08 1.175-1.333.928-.663.718-.358 1.557-.49 1.51-.08 1.377.292.614.292 2.47 1.736 3.576 2.586 1.182.623 1.99.743 3.885 1.226 2.445.258 2.005-.278 1.587-1.02 1.002-1.141.613-1.339.33-1.63.06-1.247.224-2.162.42-1.802.822-1.432 1.018-.889 1.317-.69 2.095-.41 1.766.093 1.93.106 2.26-.12 1.72-.238 1.706-.226 2.036-.132 2.244.477 2.484 1.38 2.567 1.385 1.084.324 1.078.08 1.451-.186.907-.218 1.607-1.174 1.063-.901.404-1.114.314-1.26.293-2.287.276-1.81.748-1.22.763-.848 5.747-3.566 1.197-1.486.614-1.657M599.453 437.468l.54.366.764 1.06.493 1.247.015.81-.09.98" clip-path="url(#p055b24b3c0)" style="fill:none;stroke:#000"/><path d="m611.127 458.995-1.257.066h-.89l-.457.027-.584.212-.838.557-1.72.12-1.737.026-2.035.013-1.96.252-.658.08-.704-.226-.471-.484-.516-1.491-.464-1.34-.105-1.14v-.968l.419-1.286.344-1.59.27-.85 1.197-.715 1.182-.676 1.092-.929.703-.994.345-.703.015-1.525.015-1.047-.42-1.114-.313-.822-.404-.517M582.937 295.234l-.587.914-.569 1.392-.523.783-.734.53-1.062.305-1.436-.159-1.572-.504-1.676-.743-1.287-.41-2.274-.187-1.976.08-2.334.279-1.826.385-2.065.57-1.736.875-1.158.824" clip-path="url(#p055b24b3c0)" style="fill:none;stroke:#000"/><path d="m562.472 282.962.484.215.172.173.352.504-.052.676.052.842-.135 1.267-.344 1.273-.21 1.406.285 1.074.494.716.382.345.523.623.337.83-.105.636-.449.656-.703.796-1.048 1.074-1.196 1.539-.614 1.06-.575 1.501M563.974 268.88l-.913 1.513-.509 1.034-.12 1.008-.344 1.433-.27 1.153-.508.783-2.125 1.724-1.032.782-.24.451.082.445.113.179.569.39 1.331.87 1.92 1.498.44.466.102.09.056.107-.005.08-.049.076M602.941 420.982l-.33 1.591.45 1.38.629.742.777 1.246.719 2.015v1.91l-.285 1.896-.882 1.564-1.242 1.578-1.018.995-2.306 1.57M602.402 388.364l-1.436.424-1.025.299-.412.404-.928 1.114-1.017.795-1.093.398-2.26.265-1.002.16-.434.821-.075 1.247-.074 1.87-.464 3.924-.426 2.51M482.209 515.314l-.434-.212-.345-.557-.389-.835-.673-2.082-.464-1.074-.659-1.047-.688-1.034-.613-.981-.584-.703-1.182-.305-1.158-.028-1.885.372-1.766.318-1.287.185-.838.266-1.287.503-1.616.451-1.386.492-.928.332-1.152.583-1.796.61-1.766.53-1.437.146-1.112-.2-1.616-.16-1.437-.477-2.783-.875-1.168-.557-1.017-1.14-.629-.663-1.466-.37-1.317-.107-1.227-.106-1.018-.398-.922-.197-1.711-.227-1.527-.106-1.197-.132-1.162-.132-1.9-.185-2.559-.49-2.29-.213-1.287.212-1.601.332-1.287.41-.613.485-1.601 1.743-.846 1.24-.39.457-.321.132-.599-.096-.513-.422-.683-1.072-.48-.982-.613-.808-.449-1.127-.3-1.167-.448-1.206-.778-1.432-.45-.53M405.578 510.487l.32-1.119 1.968-6.437.217-.914.202-.345.388-.285.42-.192.576-.564 1.174-1.173 1.197-.776.442-.251.756-.219.793-.007.464.166.561.378 1.1 1.292.404.636M426.392 479.254l1.032-1.512 1.482-2.069.594-.056.483.242.8 1.32.337.854.225 1.207.194 1.153 1.422 4.555.336 1.398-.112.803-.456.702-.726.63-1.317.967-1.481 1.3-1.063 1.166-1.017.796-2.485 1.962-1.45 1.432-1.468 1.06-.897.53-1.572.624-1.376.914-.816.909-.501.536M405.287 511.396l-.37-.994M405.578 510.487l-.05.482-.24.427M390.721 519.138l.759-.35 2.439-.743 1.571-.04 1.616.16 1.093-.12 1.122-.252 1.407-.822 1.69-1.1 1.452-1.366.658-.703.448-.732.311-1.674M405.578 510.487l-.66-.085M493.028 275.3l2.11.371 2.978.57 1.19.265 1.975.59 1.444.73.509.438.097.75-.187.53-.651 1.551-.713 1.276" clip-path="url(#p055b24b3c0)" style="fill:none;stroke:#000"/><path d="m481.021 284.808.679-.052 1.676-.69 1.182-.517 1.84-.252 1.796.027 1.617.424.718.344.972.106.883-.132 1.213-.305 1.705-.663 2.125-.451 3.218-.305 1.135.029M456.874 296.718l.778-.69 1.362-.941 1.167-.465 2.17-.092 2.529.225 1.766.637 1.257.716 1.152.451 1.72.159 1.467-.318.853-.61.673-1.26.734-1.34 1.182-2.227 1.482-2.415 1.234-1.306.77-.55 1.332-1.233.52-.65" clip-path="url(#p055b24b3c0)" style="fill:none;stroke:#000"/><path d="m457.607 290.537.164-.118 2.799-1.327 2.275-.729 1.795-.636 2.215-1.3.808-.425.569-.013 3.531-.849 1.99-.703 2.23-.676 1.437-.04 1.519.644.815.417.748.066.52-.04M457.607 290.537l-1.332.956-.524.358-.613.65-.105.901.344.69.644.65.763.915.09 1.061M448.73 311.195l.467-.38.673-1.1 2.799-4.788 3.337-5.875.584-1.153.284-1.181M448.73 311.195l-1.508 1.225-2.485 1.498-2.027 1.174-.576.564-.086-.034-.093-.099-.076-.716.18-1.061.958-1.658 1.092-1.525.539-1.087.823-1.26M510.656 539.136l.21.849-.135.795-.45.332-.553.251-.688.451-.15.702.3.796.493.596.883 1.273 1.093 1.511 1.122 1.459 1.72 2.055 1.183 1.113.314.65.688 1.564.869 2.744.448 2.558.483 1.554M575.736 490.072l.419.795.27.345.373.57.09.305-.24 1.843-.823 5.062M300.145 397.514l.77-.054 3.427.318 6.884.69 3.77.424 3.547.65 2.974.818 1.5.369 1.018.238.598.073 1.048-.04 4.684-.464 4.474-.265 6.675-.504 2.633-.557 2.385-.51 4.708-1.996 2.335-.915 5.312-2.055" clip-path="url(#p055b24b3c0)" style="fill:none;stroke:#000"/><path d="m275.142 412.846 2.369 1.732 1.676 1.512 1.705 2.174 1.856 2.506 1.542 1.922 1.706 2.427 1.017 1.313.42.968.09 1.18.223 1.166.42.491.703.398 1.436 1.445.494.822.135 1.074-.075 2.055-.554 5.542.27.743.778.73 1.766.582 2.17.28 1.825-.054 1.497-.57 4.22-1.419 1.167-.2 2.26-.052 1.316.2 1.691.662 3.382 1.591 2.514.822 1.93.742 4.714 2.162 2.38 1.431 2.992 1.605 2.44 1.074 1.466.61h1.063l.823-.332.254-.344 1.452-1.233.792-.504.809-.292 1.706-.027 1.107-.159 3.577-1.206 2.23-.332 2.918-.132.777-.106 1.392-.252 1.437-.067 1.63.464.42-.026 1.152-.172.793-.558 1.048-1.18.509-1.617.508-1.047 1.257-1.008 1.497-1.365.614-.372.688-1.193.12-.862.03-1.326-.51-1.67-.628-1.34-.464-2.081-.09-2.069.06-1.471.105-1.75-.299-1.12-.673-1.068-1.407-1.34-1.212-1.153-1.093-1.313-.875-1.26-.629-.649-1.092-.782-.382-.372-.112-.662.03-.69.262-.716.614-1.936.538-2.068.21-.942.568-1.154.39-.649.209-.796.389-1.856.658-1.989.135-1.405-.3-1.737-.082-.584.098-.437 2.095-5.132.688-1.339M367.14 520.424h.703l.77-.126 1.093-.265 1.347-.603.598-.404.652-.332.942-.258 1.744-.458 1.376-.318 2.08-.503 1.153-.146 1.324.086.613.086 1.662.252 1.204.331 1.198.518.867.523 1.108.1 1.444-.093 1.01.046.693.278M611.024 278.884l1.15.673 1.033.08 1.407-.133 2.125-.53.598-.16.569-.12 1.137.372 1.048.836 1.436 1.273 1.047.995 1.152.795 1.033.836M582.937 295.234l.266-.412 1.197-.876 1.571-.477 2.185-.464 3.023-1.18 2.335-1.128 1.272-1.06.224-.465-.292-.803-.074-.61.082-.39.419-.359 1.032-.503 1.422-.77.853-.703.568-.809 1.108-1.1.524-.418.598-.405 1.304-.452 1.975-.212 1.929-.317.853-.371.763-.491 1.332-.823 1.376-.61.242-.142M449.137 288.164l.823-.623 1.138-.252 1.466.159 1.302.199 1.287.517 1.272.491.808.809.374 1.073M582.937 295.234l-.377-1.315-.105-.994v-.318l.27-.345.807-.49.898-.862.614-.69M499.148 472.001l2.873-1.883 1.205-.675.65-.054.443.14.568.212 2.058 1.027 2.11.663 1.481.796.733 1.027.696 1.34.21.795-.023.55.09.928-.314.769-.898.862-.823.676-.733.437-.472.464-.291.624.044.344.344.438.674.477 1.99.795 2.05.783 1.527.08 2.005-.345 2.305-.902.508-.186.913.04.943.61.957.875 1.138 1.18 1.033 1.246.972.265 1.212-.715.734-.955 1.301-1.352 1.84-2.042 1.976-1.512.689-.848.54-1.674M381.678 333.81l.989-2.706M382.667 331.104l.672-1.895M491.835 360.73l-.663 1.074-.673 1.697-.688 1.14-1.153 2.016-.673 1.79v1.008l.419 1.06.628 1.167.614.956.853 1.086.763 1.174.636.842.546 1.194.584 3.341.479 5.636.09.941-.21.65-.255.318-.598.2-.853.33-1.152.624-1.542.809-1.316.477-1.527.464-1.69.504-1.692.437-2.304.597-.719.464-.419.836-.299 1.724.224 1.63.18.358.554.65.793.504.838.875.36.61.732 1.18M448.73 311.195l.871 1.358 1.661 1.564.793.438.36.61.478 1.286.195 1.274-.284 1.113-.307 1.061-.285 1.101.03.352.486.841.3 1.14-.09 1.035-.36 1.141.046 1.008 1.302 1.22.778.769.898.57h.943l.958-.146h2.738M408.787 324.925l-.338.505M411.874 326.012l-.51-.233-.19-.08-2.387-.774M350.59 301.4l.213.05M337.259 303.29l.543-3.137.404-.902.868-.225 2.41.57 4.878 1.034 1.631.174 2.596.596M275.142 412.846l.368-1.163M262.965 393.177l1.182 2.56.973.9.779.584.852.451.48.292.059.45-.254 1.088-1.661 6.603-1.317 5.53-.105.98-.159 1.947M271.055 410.916l-.712.54-2.7 1.567-1.131.421-2.718 1.118M218.79 403.771l.711.047 2.507.676 3.868 1.2 3.075 1.2 5.567 2.234 2.267.816 2.656 1.233 1.953 1.173 1.87 1.645 2.59 2.287.808.636 1.579.683 2.648 1.008 1.018.225 1.406.013 2.402-.53 2.185-.908 5.066-2.506.828-.341M291.622 533.357l.457.165.658.047 1.197-.285 1.527-.518.748-.06.957.207M296.313 525.376l-.635.424-1.318.597-.718.768-.449 1.18-1.346 4.004-.165.69-.06.318" clip-path="url(#p055b24b3c0)" style="fill:none;stroke:#000"/><path d="m287.567 533.528 2.23-.304 1.466.08.36.053M218.11 403.91l-2.208.286-6.704.53-7.654.445-1.968.099-1.452.65-2.274 2.16-5.432 5.61-1.332 1.167-.733 1.246-1.122 1.233-1.303.73-1.795.65-3.696 1.404-3.367 1.657-5.537 2.838-4.28 1.883-3.532 1.193-5.327 1.366-1.661.53-1.272.65-10.535 4.76-2.738 1.114-1.183.424-.957.106-2.32.027-4.234-.359-1.647.2-1.316.583-1.288 1.75-4.608 8.552-1.242 2.4-.06.662.568.915 1.886 1.631 1.631.835 1.96.716 2.29.77 4.145 1.763 2.11.623 6.914 1.63 5.207 1.366 4.265.876 2.005.224.973.173 1.152.544.719.198 2.08.451 2.304.252 1.766-.159 1.167-.385 1.362-.927.883-.637.958-.212.957.133 2.724.994 3.74.796 2.11.556 3.577 1.074 1.571.16 5.103-.186 3.786-.186.913.16.778.556 1.182 1.618 1.751 2.015 2.275 1.962 2.304 2.068 3.218 2.678 1.646 1.008 2.873 1.922 1.81 1.552 1.086.928 1.25.94 1.39.995 3.442 1.95 1.108.185 3.068.132 3.935.014 2.08-.358 1.347-.053 1.152.358.748.57.57 1.498-.24 2.306-.838 1.631-1.168 1.843-.972 2.797-.314 1.565.434 1.471.718 1.724.913 1.06 1.6 1.313 1.512.782 3.786 1.419 2.814.874 3.232 1.074 6.809 2.32 2.454 1.088 1.227.596 2.41 1.776 3.007 2.48 3.262 3.182 1.87 1.352 1.812.663 1.945.344 5.447-.185 2.544.172 4.265.769 1.72.676 2.83 1.193 2.857.835 4.16.941 2.56.212.485-.04M218.11 403.91l.68-.139" clip-path="url(#p055b24b3c0)" style="fill:none;stroke:#000"/><path d="m214.144 422.964.142-.304.142-.856.097-.848.434-2.029.442-1.644.905-3.043.143-.69.052-1.385.105-1.963.172-1.107.935-1.591.284-.59.202-1.737.038-.795-.127-.471M165.62 310.366l-.417 3.711-.598 4.589.329 2.812.778 2.651 1.556 2.202 1.265 1.28 1.922.921 3.18.902 5.223 1.021 3.689.916 4.384 1.325 5.103 1.552 8.874 3.21 3.337 1.736 3.232 1.71 1.751 1.115 1.107 1.127 1.737 2.692 1.152 1.153 3.053 3.117 1.436 1.405.823 1.074.404 1.154.39.902.837.676 3.711 2.188 2.5 2.387 1.032 1.459.644 1.153-.046.995-.388 1.843-.704 4.96-2.29 9.136-4.549 18.378-1.167 4.362-.12 1.591M293.451 284.897l-.258-.619-.538-.49h-.689l-.853.278-1.331 1.591-1.886 1.698-2.724 2.202-2.813 1.856-1.167.478-1.377-.054-1.526-.69-1.796-.914-3.89-1.95-.958-.597-2.455-2.466-2.11-1.18-1.421-.504-.703-.292-.883-.093-1.137-.358-1.886-.65-2.709-.928-1.526-.332-1.377-.65-.958-.703-.823-1.034-.613-.875-.15-1.539-.583-1.432-.898-.663-1.676-.557-1.601-.624-1.093-.822-.554-.305-.568-.066-1.257.292-2.305.318-2.843.265-1.885.398-2.29.451-1.392 1.061-2.289 1.857-3.472 2.188-3.068 2.294-1.122.623-.658.253-.599-.12-.718-.53-1.183-.358-.822-.107-1.138.2-1.885.676-3.008.809-2.47.716-1.032.186-.868.318-1.346.398-1.167.08-1.707.305-1.062.344-1.212.783-.988.53-1.212.292-1.422.172-.613.08-.674.252-3.636.093-2.769.186-.882.053-.988.556-1.436.756-3.352.955-1.167.398-.914.106-1.646-.132-2.08-.398-.957.053-.749.53-.568.915-.45 1.38-1.166 2.32-.644 1.3-1.062 1.406-1.183.716-2.064.49-1.41.225M343.052 310.845l.096-.527M336.11 309.746l.055-.52M330.619 308.827l.337.128.748.146.726.136 1.428.197 2.252.312M336.165 309.225l-2.22-.301-1.11-.151-.835-.11-.685-.086-.658.022M330.657 308.6l-.038.227M300.145 397.514l.74-4.43.374-1.87.285-1.392.426-.686.43-.245.505-.08.842.04 1.133.302 1.123.311 1.092.319" clip-path="url(#p055b24b3c0)" style="fill:none;stroke:#000"/><path d="m289.73 397.885 1.189-.206 1.077-.053 1.511.139 1.041.053 1.174.013 2.56-.185 1.863-.132M289.73 397.885l.47-2.779 1.273-5.966.56-1.916.068-.803.097-3.315v-.597l-.254-.311-.598-.12-2.193-.125-1.115.132-1.57.889-.727.696-.973.384-.912-.02-.95-.358-.839-.722-.232-.716.008-.663M271.055 410.916l.702.261 1.107.258 1.138.173 1.508.075M397.63 410.581l-.674-.862-2.065.623-.93.516" clip-path="url(#p055b24b3c0)" style="fill:none;stroke:#000"/></g><path id="PatchCollection_1" d="m388.87 315.124 5.92 1.153-1.578 4.74-5.447-1.18z" clip-path="url(#p055b24b3c0)" style="fill:green;fill-opacity:.8"/><path id="PatchCollection_2" d="m327.809 297.559 4.02.516-.783 4.783-4.02-.517z" clip-path="url(#p055b24b3c0)" style="fill:#90ee90;fill-opacity:.8"/><g id="PatchCollection_3"><path d="m375.725 270.699-.319.188-.268-.36.32-.187zM376.34 272.264l-.348-.465.543-.319.347.465zM374.154 270.487l-.774-.37.725-1.19.773.369zM383.193 270.699l-.155-.206.233-.136.154.205zM380.47 267.145l.794-.33.219.414-.795.33zM381.292 268.073l-.28-.532.335-.14.281.533zM379.706 268.47l-.136-.256.406-.169.136.257zM380.514 269.65l-.397-.61.556-.285.398.612zM395.838 261.548l.464-.146.098.246-.464.146zM395.942 262.012l-.045-.133.494-.132.045.132zM396.212 263.855l-.135-.318.36-.12.134.319zM415.86 256.415l-.326-.422.523-.318.327.422zM413.406 257.184l-.129-.129.255-.199.128.13zM413.151 257.012l-.31-.32.434-.331.31.32zM414.453 257.198l-.337-.4.599-.397.337.399zM417.312 261.375l.254-1.047.559.106-.254 1.048zM412.134 258.616l-.306-.411.614-.358.305.411zM407.555 261.044l-.237-.333.568-.318.237.332zM406.028 260.155l-.176-.34.554-.226.176.34zM406.073 261.097l-.194-.544.402-.113.194.544zM439.638 239.863l-.072-.308.359-.067.072.308zM439.683 239.439l-.15-.452.446-.116.15.451zM438.516 240.3l-.08-.253.27-.066.08.253zM438.576 238.53l-.248-.608 1.078-.344.247.607zM436.54 239.167l-.168-.399.48-.159.168.399zM434.954 240.175l-.329-.53.492-.24.33.53zM412.508 240.572l.227-.427 1.018.424-.227.428zM411.61 241.978l-.336-.347.42-.318.335.347zM426.455 239.352l.046.426-.927.08-.047-.426zM425.766 238.769l-.085-.32 1.018-.212.085.32zM423.342 239.3l-.509.105-.1-.381.508-.106zM423.791 240.466l-.162-.39.568-.186.163.39zM439.803 248.292l-.194-.438.258-.09.194.437zM434.057 248.305l-.225-.341.539-.28.224.342zM434.101 248.995l-.204-.254.314-.199.205.254zM436.855 248.822l-.515-.144.18-.504.514.144zM434.97 249.406l-.302-.292.359-.292.302.292zM435.164 250.957l.524.226-.217.396-.524-.226zM432.066 250.666l-.16-.607.898-.186.16.607zM433.593 251.753l-.31.079-.27-.836.31-.078zM431.513 251.408l.748-.026.025.558-.748.027zM430.69 253.239h.284v.517h-.284zM458.443 233.181l-.423.072-.134-.623.423-.072zM459.506 231.789l.464-.027.02.269-.464.026zM459.326 232.836l-.194-.623.319-.078.194.623zM458.997 234.03l-.287-.567.733-.292.287.568zM460.688 234.747l.231-.512.674.238-.231.513zM482.267 223.26l-.21-.41.313-.126.21.411zM482.521 223.526l.374-.08.094.347-.374.08zM482.67 224.48l-.078-.525.673-.08.079.526zM480.62 223.619l-1.212-.226.105-.443 1.213.226zM477.763 224.919l-.39.132-.121-.28.388-.134zM478.211 225.33l-.131-.435.838-.2.131.436zM474.56 226.404l-.104-.185.329-.146.104.185zM475.997 226.046l-.734.424-.338-.46.733-.424zM476.76 226.523l-.21-.331.367-.182.209.331zM476.28 227.28l-.239-.372.436-.22.239.37zM526.28 230.455l-.572.087-.12-.627.572-.087zM525.589 231.285l-.176-.644.868-.186.176.644zM528.342 231.444l-.062-.438.958-.106.062.438zM528.492 232.346l-.15-.451 1.438-.372.149.451zM519.333 230.357l-.081-.417.688-.106.082.417zM518.944 231.046l-.067-.334.838-.133.067.334zM517.448 230.781l-.195-.96 1.497-.239.194.96zM509.427 228.659l-.898-.372.378-.718.899.37zM510.564 230.913l.026-.586.778.027-.026.586zM501.062 227.69l.063-.24 1.093.225-.063.241zM499.52 226.43l2.335.412-.094.42-2.335-.41zM498.04 226.603l-.251-.114.284-.49.25.113zM499.251 227.73l-.597-.186.194-.49.598.185zM575.69 246.113l-.394-.272.327-.372.394.271zM574.582 246.882l-.37-.184.237-.373.37.185zM571.589 247.386l-.109-.424 1.048-.211.109.424zM570.99 254.39l-.35-.133.334-.702.351.131zM563.718 257.97l-.155-.348 1.137-.398.155.347zM559.259 233.062l-.353-1.54.298-.053.352 1.54zM551.926 250.012l-.164-.452.477-.135.164.451zM542.498 248.315l.15-.58.928.19-.151.58zM541.63 247.015l.126-.556.897.159-.125.556zM531.185 231.497l.066-.545.72.068-.066.546zM554.71 166.202l.239.438-.361.155-.24-.438zM554.185 167.104l-.15-.252.333-.156.15.253zM552.106 168.43l-.09-.477.548-.081.09.478zM551.432 170.195l-.511.046-.046-.385.512-.046zM550.938 170.964l.023-.297.448.027-.022.296zM545.61 167.17l-.232.02-.044-.397.232-.02zM546.344 167.17l-.045-.57.615-.038.045.57zM545.087 169.73l-.18-1.538.61-.056.18 1.538zM546.164 171.256l-.57.016-.045-1.207.57-.017zM565.753 162.07l-.177-.186.882-.663.178.186zM563.359 159.828l-.275-.114.224-.424.275.113zM562.43 164.75l-.22-.179 1.197-1.167.221.178zM561.788 162.56l-.603-.21.254-.571.603.211zM560.037 163.065l.269-.942.742.166-.27.943zM549.876 162.15l-.596.21-.24-.53.596-.211zM549.89 160.544l-.149-.556.453-.096.15.557zM550.22 161.685l-.449-.888.457-.182.448.889zM561.338 160.823l-.234-.067.18-.491.234.067zM562.61 161.38l-.651-.41.33-.41.65.409zM561.084 158.7l.013-.437 1.137.027-.012.437zM559.483 157.944l-.2.223-1.151-.809.199-.223zM559.932 156.883l.928.584-.547.683-.928-.584zM557.837 157.72l-.3-.611.27-.104.3.61zM557.418 155.597l.715-.234.314.756-.715.234zM557.179 155.795l-.36.057-.074-.371.358-.057zM550.01 156.585l-.702-.008.015-1.048.703.008zM550.52 154.569l-.105-.253.284-.092.104.252zM548.424 155.47l-.104-.557.618-.091.105.557zM548.484 152.26l-.18-.41.285-.098.18.41zM549.098 150.616l-.195-.558.32-.087.195.557zM547.676 150.814l-.18-.623.623-.141.18.624zM535.286 141.509l.478-.093.075.304-.479.092zM534.373 141.562l-.054-.263.329-.053.054.263zM537.41 141.628l1.296.064-.105 1.684-1.295-.063zM539.58 137.596l.12-.265.364.129-.12.265zM538.892 138.392l-.33-.08.083-.266.329.08zM538.937 140.58l-.838-.092.078-.552.838.093zM542.035 140.978l-.326.24-.523-.557.325-.24zM542.633 141.788l-.378.307-.494-.478.378-.307zM543.142 143.286l-.27-.477.252-.111.27.477zM542.843 146.179l-.375-.597.603-.297.374.597zM546.569 145.41l-.481.187-.224-.451.48-.188zM548.424 145.21l-.67.273-.509-.981.67-.273zM555.846 140.82l-.344-.956.59-.167.345.955zM554.14 135.082l-.553-1.552.992-.278.554 1.552zM550.654 135.812l-.479-.226.18-.299.478.225zM550.01 136.767l-.194-.677.672-.151.194.676zM548.2 135.36l-.177-.64.614-.133.176.64zM532.038 134.28l-.261.015-.045-.597.261-.015zM532.607 135.394l-.35-.04.045-.306.35.041zM531.544 134.956l-.6.009-.015-.81.6-.008zM531.544 136.535l-.505-.018.03-.676.505.017zM538.173 136.468l.035-.521.763.04-.034.521zM540.598 135.845l-.432-.027.045-.57.432.026zM533.88 135.115l-.406-.078.105-.424.404.078zM539.58 132.887l.255-.266.407.307-.255.265zM538.742 132.953l.36-.49.452.26-.36.49zM540.179 132.263l.374-.464.558.353-.375.464zM538.817 132.011l-.173-.187.748-.544.173.187zM540.448 131.388l-.519-.293.524-.73.519.293zM529.42 124.39l-.63-.225.147-.32.628.225zM537.44 123.415l-.105-.279.31-.091.105.279zM540.224 122.699l.194.623-.623.153-.195-.623zM539.864 122.354l-.506.246-.255-.411.507-.247zM540.149 120.642l-.588-.192.404-.969.588.193zM552.6 119.436l.192-.467 1.063.345-.193.466zM552.584 118.64l.074-.385.703.106-.073.385zM528.731 113.937l-.793.809-.387-.298.794-.809zM535.15 111.92l-.239-.517.54-.197.24.518zM548.14 117.157l-.42-.282.33-.385.42.282zM545.865 117.621l.54-.318.319.425-.538.319zM541.121 116.998l-.524-.088.105-.491.524.088zM541.48 116.202l-.605-.25.494-.941.605.25zM543.576 112.646l-.462-.151.195-.465.461.152zM543.5 111.068l.48-.889.465.197-.479.889zM543.381 104.694l.105.37-.43.096-.104-.371zM548.544 105.583l-.39-.079.075-.292.39.079zM549.472 105.503l-.603-.128.18-.664.602.129zM549.681 104.628l-.503-.144.15-.412.503.144zM543.531 103.513l-.688.16-.205-.696.688-.16zM544.22 103.725l-.203-.228.419-.292.202.229zM549.457 102.2l.075-.345.464.08-.075.344zM548.679 102.956l-.68-.18.45-1.339.678.179zM552.3 103.606l-.912-.4.793-1.42.912.4zM548.873 101.205l-.278-.103.15-.318.278.102zM548.739 99.162l-.442-.084.284-1.18.442.083zM540.568 93.331l-.255-.318.263-.165.255.318zM541.885 95.653l-.538-.011.015-.584.538.011zM543.157 94.353l.117.32-.554.158-.117-.319zM542.378 94.074l-.31-.24.42-.425.31.24zM539.146 93.371l.417-.327.584.583-.417.328zM554.949 89.995l-.718.332-.23-.39.72-.33zM554.245 88.47l.48-.28.204.277-.48.278zM555.173 89.305l-.194-.279.779-.424.193.278zM556.939 89.318l-.222-.398 1.242-.544.222.398zM570.9 88.688l.198-.423.688.252-.197.423zM566.396 86.49l1.556-.784.262.408-1.557.783zM559.333 85.693l-1.077.28-.148-.45 1.077-.278zM559.693 86.834l-.212-.416.463-.186.212.416zM562.251 84.327l.24.374-.659.331-.24-.374zM563.15 84.22l-.346.16-.194-.332.345-.16zM564.945 83.544l-.4-.387.358-.293.401.388zM566.86 81.408l-.265-.178.509-.597.265.178zM566.307 82.8l-.48-.324.388-.452.48.326zM562.057 80.347l-.509-.212.145-.273.509.212zM563.03 78.994l-.48-.2.183-.343.478.198zM564.75 81.289l-.578-.304.583-.875.58.303zM565.528 76.38l-.341-.195.269-.371.342.195zM567.31 76.526l-.153.278-.494-.212.152-.278zM567.952 74.735l-.47-.235.525-.823.47.236zM563.883 72.705l-.322-.242.344-.358.322.242zM524.556 229.81l-.079-.447.48-.067.078.447zM557.388 196.736l-.24-.411.28-.128.24.411zM556.415 196.285l-.284-.636.486-.171.284.637zM553.692 193.765l.044-.703.584.03-.045.702zM554.036 190.674l-.254-.703.631-.18.254.704zM556.176 190.556l-.618.33-.614-.902.618-.33zM558.436 189.985l-.522.119-.3-1.035.522-.119zM561.443 189.15l-.697.184-.344-1.021.697-.185zM560.276 179.619l-.032-.556.599-.027.032.557zM559.528 179.672l-.045-.464.433-.033.045.464zM559.737 180.216v-.438h.434v.438zM560.8 182.166l-.15-1.128.468-.048.149 1.127zM555.413 181.038l-.704-1.22.25-.114.704 1.22zM554.41 183.001l-.898-.212.184-.61.897.213zM552.27 182.298l.187-.562 1.018.265-.187.562zM552.63 180.163l-.339-.283.255-.239.338.283zM551.881 181.144l-.216-.519.569-.185.216.518zM546.808 179.997l-.22-.303.42-.239.22.303zM549.771 177.98l-.3-.265.42-.37.3.264zM548.364 176.734l-.149-.51.808-.186.15.51zM560.007 173.51l-.398-.158.554-1.088.397.159zM559.079 172.728l-.547-.261.523-.862.548.261zM559.513 170.645l-.143-.547.584-.12.143.548zM559.274 167.847l.31-.022.046.504-.312.022zM559.259 168.908l-.011-.411.658-.014.01.412zM521.114 354.352l-.32-.142-.144-.291.103-.305.299-.175.356.036.247.23.02.318-.212.255zM521.13 352.032l1.376-.167.18 1.167-1.377.167zM518.017 352.376l1.137-.053.037.62-1.138.053zM508.395 351.024l-.12-.496 1.273-.239.118.496zM504.773 352.788l-.105-.5 3.606-.597.106.5zM506.554 353.769l-.181-.209.583-.397.181.208zM505.461 354.352l-.506-.096.164-.677.507.097zM528.028 336.894l-.4-.024.03-.385.4.025zM525.663 334.952l.06-.782.364.021-.06.783zM527.878 335.747l-.537-.01.014-.584.538.01zM524.96 334.713l.075-.835.632.044-.075.836zM519.214 331.968l-.296.18-.36-.465.297-.18zM526.337 332.446l.419-.823.371.149-.419.822zM527.639 331.331l-.4-.157.18-.358.4.157zM528.521 329.58l-.493-.185.208-.436.494.186zM528.222 328.428l-.118.3-.6-.186.12-.3zM519.244 330.038l-.57-.04.068-.756.569.04zM520.142 329.654l-.046-.823.804-.034.045.822zM519.573 327.559l.194.345-.335.148-.194-.345zM519.184 327.346l-.296.066-.12-.424.296-.066zM520.246 320.225l-.429-.182.165-.304.43.18zM520.576 319.536l-.24-.132.194-.279.24.132zM519.767 318.979l-.303-.164.21-.305.303.164zM520.216 318.488l-.329-.212.273-.333.33.212zM518.047 310.352l-.323-.05.075-.384.322.05zM524.99 310.643l-.569-.118.143-.532.568.12zM526.067 310.843l-.164-.171.509-.384.164.17zM525.918 310.007l-.196-.19.344-.279.196.19zM523.12 308.455l.128-.583 1.077.186-.128.583zM533.026 302.68l-.198-.186.254-.212.198.186zM533.849 302.282l-.229-.277.614-.397.229.276zM541.182 296.626l-.1-.113.135-.092.1.112zM541.406 297.05l-.091-.127.33-.185.09.127zM540.448 295.658l-.358.129-.195-.424.359-.13zM540.792 296.44l-.231-.234.359-.279.231.235zM545.057 293.782l-.172-.25.344-.187.173.25zM547.497 292.535l-.177-.377.434-.16.176.378zM550.026 291.647l-.243-.376.419-.212.243.375zM550.878 291.103l-.198-.293.45-.239.197.293zM560.575 290.088l-.613-.557.554-.48.613.558zM560.68 290.367l.684-.478.389.438-.684.477zM560.186 291.68l.51-.398.526.53-.508.397zM561.01 292.794l-.24-.332.27-.153.239.332zM562.326 292.953l-.484-.63 1.556-.94.485.628zM561.1 282.204l-.767.61-.779-.77.767-.61zM561.443 283.172l-.322-.337.39-.292.321.337zM563.912 284.59l.09-.437.336.054-.09.438zM565.02 283.158l-.105-.251.195-.064.105.252zM564.855 283.583l-.05-.304.403-.054.05.305zM564.024 282.71l-.297.194-.32-.388.296-.193zM564.302 283.026l-.48.332-.278-.316.48-.332zM566.142 281.965l-.557.032-.06-.809.557-.032zM564.107 270.805h.24v.252h-.24zM562.88 271.534l-.015-.305.298-.012.015.306zM565.379 269.372l.583-.04.022.253-.583.04zM568.147 266.84l-.128-.14.404-.292.128.14zM570.766 266.216l-.107-.498.628-.106.108.498zM569.015 266.455l-.344-.306.374-.331.344.305zM564.885 270.082l-.494-.186.207-.431.494.185zM561.817 269.764l-.045-.889.706-.028.045.889zM478.78 203.76l-.248-.044.144-.638.248.044zM478.197 203.468l-.596-.208.656-1.48.596.207zM478.974 206.293l-.405-.211.283-.426.405.211zM477.433 209.039l-.243-.06.078-.251.243.06zM477.044 210.245l-.27-.048.105-.466.27.048zM476.131 209.383l-.466-.068.1-.532.466.07zM473.902 211.187l.103-.651 1.873.233-.103.651zM472.166 210.245l-.195-.156.15-.146.194.157zM468.888 213.813l-.23-.421.464-.2.23.423zM466.48 215.273l-.13-.123.464-.384.129.122zM465.536 215.949l-.329-.275.24-.225.329.275zM464.1 216.32l-.308-.336.554-.398.308.336zM461.287 216.44l-.131-.201.39-.2.13.202zM461.526 217.315l-.211-.403 1.062-.438.211.403zM443.674 207.752l-.04-.2.345-.053.039.2zM445.454 207.633l-.016-.223.224-.013.017.222zM444.377 208.07l-.034-.45.673-.04.034.45zM443.24 210.06l-.118-.5.718-.132.118.5zM442.417 209.649l-.09-1.512.402-.019.09 1.512zM436.82 214.968l-.173-.134.236-.24.173.132zM436.76 223.947l-.4-.118.13-.343.399.119zM566.77 254.95l-.19-.087.808-1.406.19.086zM588.948 269.499l.013-.276.344.013-.013.276zM588.304 269.286v-.265h.33v.265zM586.957 269.405l.015-.394.464.013-.015.395zM586.06 269.405l-.012-.372.523-.013.012.373zM580.837 271.103l-.268-.13.18-.291.268.13zM582.618 269.578l.36.292-.278.267-.359-.29zM576.048 262.602l.098-.423.658.12-.097.422zM547.601 314.702l-.613-.292.242-.4.614.292zM548.619 306.552l-.429-.354.42-.398.428.355zM547.407 306.672l-.294-.188.195-.239.293.188zM546 308.13l-.332-.152.21-.358.332.152zM545.012 308.316l-.378-.22.344-.464.378.22zM544.28 310.518l-.529-.213.375-.73.527.213zM543.65 316.432l-.169-.09.18-.265.169.09zM539.43 313.064l-.218-.088.15-.292.218.088zM538.518 313.78l.24-.504.427.16-.24.504zM536.423 315.026l.404-.49.432.28-.403.49zM535.42 316.22l-.396-.297.33-.345.395.298zM535.166 320.013l.254-.57.68.238-.255.57zM534.642 321.26l-.135-.451.467-.11.135.451zM473.628 70.736l.33-.982.819.216-.33.982zM475.035 69.277l-.242-.086.12-.266.242.087zM474.107 68.374l.27-.557.671.256-.269.557zM464.276 143.314l-.09-.204 1.542-.531.09.204zM462.989 144.68l-.174-.3 1.167-.531.174.3zM485.24 125.519l-.216-.475 1.257-.452.217.476zM466.236 113.175l-.347-.37 1.167-.862.347.37zM469.812 111.464l-.565-.348.404-.517.566.347zM468.092 113.334l-.074-.222 1.212-.318.074.222zM468.42 112.605l1.602-.452.082.228-1.602.451zM470.142 112.074l1.451-.743.147.225-1.452.743zM472.072 112.63l-.355-.386.404-.292.355.387zM470.905 109.978l.495.341-.314.359-.495-.342zM471.489 109.01l.294.425-.658.358-.295-.425zM480.393 109.221l.25-.11.824 1.458-.252.112zM480.063 107.868l-.194-.172.194-.172.195.172zM479.72 108.266l.574-.254.329.583-.575.255zM477.61 105.52l.351-.225.39.477-.353.226zM476.382 106.569l.065-.238.553.12-.064.237zM424.904 83.505l-.322-.429.539-.318.322.429zM437.938 72.507l-.147-.465.374-.093.148.465zM436.652 76.54l-.135-1.658.488-.031.135 1.658zM448.743 71.466l-.302-.327.33-.239.3.327zM447.755 71.917l-.14-.192.42-.239.14.192zM446.229 71.73l-.043-.476 1.137-.08.043.478zM470.187 91.074l-.203-.11.942-1.367.204.11zM467.957 96.022l-.258-.457.869-.384.257.456zM466.28 98.211l-.364-.541.928-.491.365.541zM465.338 98.397l-.455-.172.254-.53.456.17zM484.852 101.919l-.744.515-5.386-6.102.743-.516zM482.098 95.776l-.222-.241.405-.292.222.241zM478.881 94.476l.304-.602 1.137.451-.304.603zM477.34 93.508l-.674-.252.293-.614.673.253zM478.103 89.74l-.788-.202.194-.597.789.202zM484.792 79.373l-.567.048-.089-.822.566-.049zM456.464 159.882l-.463.491-.475-.353.464-.49zM456.764 159.935l-.139-.116.254-.239.14.116zM457.183 159.63l-.204-.19.673-.57.204.19zM457.931 158.874l-.278-.41 1.616-.862.278.41zM492.888 153.628l.066-.412 1.153.145-.067.413zM422.989 140.74l-.346.368-.628-.464.346-.368zM422.69 138.936l.672.453-.568.664-.673-.453zM423.692 140.25l-.55-.4.42-.452.55.4zM424.456 141.364l-.614-.544.367-.325.613.544zM425.713 142.664l-.764-.358.35-.585.763.358zM427.478 140.01l-.309-.332.42-.305.308.333zM428.227 140.276l-.295-.427.539-.292.294.428zM429.08 140.714l-.159-.22.33-.186.158.22zM429.678 140.727l.18-.106.122.163-.18.106zM429.768 141.47l-.214-.285.494-.291.214.284zM440.438 144.037l.214-.28.464.278-.215.28zM439.135 145.669l.043-.462.553.04-.042.461zM444.119 146.53l.083-.42.599.092-.084.422zM443.34 147.088l.287-.088.598 1.54-.286.087zM443.266 148.932l-.374-1.075.55-.15.373 1.074zM442.847 149.184l-.125-.195.209-.106.125.195zM444.209 149.953l-.315-.53.599-.28.314.532zM444.972 150.63l-.114-.263.389-.132.114.262zM368.429 101.501l-.158-.16.239-.186.158.16zM368.578 102.947v-.226h.435v.226zM376.929 110.515l-.438.18-.27-.518.438-.18zM377.602 112.531l-.444.17-.33-.676.445-.17zM380.37 115.94l.24-.118.1.157-.24.12zM380.834 116.233l-.075-.146.154-.062.075.146zM380.49 116.392l.494-.08.073.356-.494.08zM380.505 116.79l.377.014-.03.61-.377-.014zM379.772 116.843l-.36-.531.417-.221.359.53zM395.006 126.242l-.22-.126.164-.226.22.126zM395.814 126.507l-.428-.23.254-.372.428.23zM396.143 127.555l-.321-.149.18-.305.32.149zM406.318 128.57l-.358-.173.237-.39.36.173zM405.107 127.084l-.148.288-.33-.133.149-.288zM406.873 127.986l-1.587-.902.27-.374 1.587.902zM404.792 128.477l-.823-.438.385-.568.822.438zM404.717 129.724l-.598-.279.285-.481.598.278zM405.855 130.175l-.599-.239.256-.504.598.24zM410.928 135.534l-.655-.247.299-.624.655.247zM412.23 137.033l-.659-.305.223-.378.658.305zM379.555 88.055l-.434.226-.163-.245.435-.226zM380.348 90.948l-.329-.518.525-.262.33.517zM393.42 107.318l-.231-.368.673-.332.231.368zM394.557 107.477l-.225-.477.489-.181.224.478zM395.769 107.384l-.539-1.114.26-.099.539 1.114zM393.6 105.686l-.096-.496.793-.12.095.497zM393.6 108.844l-.465-1.168.824-.257.464 1.167zM350.883 84.394l-.42-.211.315-.491.42.211zM353.322 83.97l.173-.362.599.226-.173.361zM353.083 86.026l-.703-.438.283-.357.703.437zM349.431 87.923l-2.244-.836.32-.676 2.245.836zM349.102 88.586l-1.556-.57.2-.428 1.556.57zM351.242 89.634l-1.451-.477.468-1.118 1.451.477zM352.17 90.483l-.601-.249.434-.822.6.248zM360.655 73.217l-.306-.053.105-.478.305.053zM361.792 72.62l-.6-.186.209-.531.6.186zM363.378 73.39l-.404.013-.016-.383.405-.014zM364.141 73.654l-.192-.324.63-.292.191.325zM364.022 72.116l-.176-.488 1.122-.319.176.488zM364.156 71.2l-.071-.239.898-.212.071.24zM377.43 68.76l-.267-.41.957-.492.268.41zM377.04 73.681l-.18-.208.329-.225.181.208zM377.026 74.836l-.434-.094.088-.323.434.094zM376.457 76.374l.12-.464.592.12-.12.464zM325.967 67.744l-.673-.305.235-.407.673.305zM324.83 68.355l-.17-.364.51-.186.17.364zM317.273 85.343l-.176-.48.688-.199.176.48zM319.787 84.347l-.35-.245.285-.318.35.245zM319.503 82.398l-.227.213-.254-.212.226-.214zM321.957 81.588l-.333-.076.12-.412.332.077zM321.583 82.583l-.528-.143.225-.65.528.143zM327.703 82.65l-.404-.173.25-.46.403.174zM327.254 84.003l-.845-.205.358-1.167.847.204zM328.571 82.822l-.445-.358.434-.425.445.359zM336.068 82.046l-.126-.397.584-.146.126.397zM337.595 82.139l.018-.254.464.027-.019.253zM337.4 81.714l-.016-.464 1.9-.053.017.464zM337.685 71.306l-.838-.278.198-.468.838.278zM340.587 70.537l-.912-.226.147-.468.913.225zM344.553 75.459l.12.464-.368.075-.119-.464zM343.67 76.348l-.15-.544.533-.115.15.544zM343.281 77.33l-.16-.572.658-.145.16.57zM314.13 72.46l-.344-.305.285-.252.344.305zM315.028 70.948l.17-.122.195.212-.17.123zM314.624 71.174l.214-.152.24.266-.214.151zM313.248 70.245l.413-.33.419.41-.413.331zM312.305 69.767l-.225-.212.217-.18.225.212zM554.002 398.944l.18-.33.988.425-.18.329zM545.712 396.185l2.005.849-.64 1.187-2.005-.848z" clip-path="url(#p055b24b3c0)" style="fill:#a9a9a9;fill-opacity:.8"/></g></g></g><defs><clipPath id="p055b24b3c0"><path d="M90 154.337h558v418.525H90z"/></clipPath></defs></svg>