<svg xmlns="http://www.w3.org/2000/svg" width="960" height="960" viewBox="0 0 720 720"><defs><style>*{stroke-linejoin:round;stroke-linecap:butt}</style></defs><g id="figure_1"><path id="patch_1" d="M0 720h720V0H0z" style="fill:#fff"/><g id="axes_1"><path id="patch_2" d="M91.752 640.8h554.496V86.4H91.752z" style="fill:#fff"/><g id="LineCollection_1"><path d="m506.557 273.392.632.274M506.557 273.392l-16.523 21.857M535.497 235.6l-2.76 3.583-4.035 5.257-9.117 11.926-13.028 17.026M390.752 336.023l3.007-6.268M390.752 336.023l-.229.483M390.752 336.023l-1.744.34-6.87 1.24M390.752 336.023l4.925-.93M387.47 382.933l-11.25-3.61M387.47 382.933l3.95 1.233M387.47 382.933l.339-3.893M387.47 382.933l-.427 3.864M302.89 336.238v-1.433l-.324-10.335M374.908 347.05l-.557 10.485M372.295 347.422l1.35-.258 1.263-.114M382.015 350.675l-.549-.97-.32-.392-1.179-1.135-.987-.552-.761-.255-.773-.188-1.627-.156-.91.023M382.015 350.675l.109.767.2.75M382.776 352.089l-.227-.642-.19-.325-.344-.447M382.776 352.089l-.452.103M382.776 352.089l.926 5.267M374.29 385.062l.704-2.134M374.29 385.062l-.369-.423M375.717 387.267l-.962-1.461-.466-.744M351.771 355.788l-.295-1.902M351.771 355.788l.556-.08M351.771 355.788l-4.616.65M350.984 351.353l.492 2.533M350.984 351.353l.698-.137M350.255 348.894l.214.7.32 1.099.195.66M347.159 352.089l2.201-.408 1.624-.328M354.638 152.637l.352 5.748.267 3.492-.036 1.355-.28 2.873-1.1 12.467-.535 4.432-.574 3.962-.591 2.983-.802 2.968-5.222 18.38-7.04 24.828-3.367 11.807-2.088 6.813-.64 2.545-.388 2.098-.25 2.255-.084 2.773.136.95.4 2.056 1.288 6.052 1.02 5.184 1.173 5.105.842 3.257.793 4.15 2.72 11.525 1.436 7.255M362.962 304.954l-1.752.372-5.666 1.335-9.785 2.38-3.69.909M344.124 319.675l-1.307-6.284-.749-3.441M468.897 321.604l-.222.948M490.034 295.25l-4.492 5.903-1.61 2.106-4.71 6.248-6.223 8.223-1.447 1.725-.607.58-2.048 1.57" clip-path="url(#pbf755ea293)" style="fill:none;stroke:#000"/><path d="m460.755 324.513 3.553-.724 1.218-.403.927-.416.785-.368 1.66-.998M428.704 348.898l2.254 10.362M428.704 348.898l-3.84.447M428.704 348.898l3.917-.239M412.779 351.168l3.237-.739M412.779 351.168l-.48-.031M412.779 351.168l-.419.277M390.388 356.21l-5.625 1.06M390.388 356.21l.647-5.816M390.388 356.21l-.049.63M390.388 356.21l5.135-1.1M384.512 357.31l-.81.046M384.512 357.31l-.017.737M384.512 357.31l.251-.04M383.703 352.193l-.023.142-.002.082-.008.169.842 4.724M374.35 357.535l-.002.246M374.35 357.535l-1.821.417M379.994 357.432l-1.904-.027-1.421.039-2.318.091M372.529 357.952l-.136-.012-.135.025-.12.06-.1.091-.07.114M372.904 358.372l-.036-.144-.08-.125-.117-.095-.142-.056M360.285 354.821l.187-2.24M352.327 355.709l.505-.07 2.545-.344 2.692-.345 2.216-.129M365.512 356.41l-1.368-.426-1.555-.462-2.304-.701M347.155 356.438l.057 3.386M347.155 356.438l-.005-1.845M398.17 394.124l-7.002-2.058M386.434 401.277l.697.923.282.273.21.252.907 1.245.442.575.546.384 2.4.947 2.424.98.372.077.311-.066.276-.216.226-.352.288-1.178.639-2.083.251-.955.583-.87.356-.626.186-.563.08-1.136.26-4.764M398.945 390.729l-.41 1.56-.365 1.835M386.804 390.672l-7.07-2.177M386.804 390.672l3.889 1.271M386.804 390.672l.24-3.875M386.804 390.672l-.072 4.06M375.717 387.267l4.017 1.228M375.717 387.267l1.846 4.513M369.993 357.71l-4.481-1.3M369.993 357.71l1.974.52M371.65 350.546l-.635 2.924-1.022 4.24M372.295 347.422l-.644 3.124M366.232 348.608l3.172-.558 2.89-.628M371.65 350.546l-4.823.944M357.535 352.942l2.937-.362M357.535 352.942l-.49-2.717M357.535 352.942l-5.483.843M351.476 353.886l.576-.1M351.682 351.216l3.048-.544 2.316-.447M366.232 348.608l-1.647.302-3.27.642-4.27.673M366.827 351.49l.093.912.002.147-.016.111-1.394 3.75M366.827 351.49l-6.355 1.09M366.827 351.49l-.595-2.882M400.525 386.994l-8.62-2.664M400.525 386.994l1.95-2.694M398.945 390.729l.516-1.302.236-.646.828-1.787M375.742 379.253l.478.07M375.742 379.253l-1.173 3.515M375.742 379.253l1.064-3.696M395.61 355.586l-.087-.475M395.61 355.586l5.446-1.309.226-.064M395.61 355.586l-3.343.83M390.34 356.84l1.927-.423M390.34 356.84l-.616 4.55M390.34 356.84l-5.432 1.164M383.057 357.902l.493.029.225.023M383.057 357.902l-.071.231-.056.263-.02.25.013.21.015.111.045.237M383.057 357.902l-3.16-.106M383.057 357.902l.234-.514M372.904 358.372l.572-.316.26-.101.612-.174M372.263 358.858l.158.025.157-.026.14-.075.109-.114.064-.141.013-.155M371.967 358.23l-.036.15.016.154.066.14.109.112.14.072M372.263 358.858l-.408.862M374.348 357.78l1.61-.103 2.006.037 1.932.082M358.336 374.547l.154-.423M358.336 374.547l4.546 1.935M358.336 374.547l-1.386-.613M405 380.975l-11.16-3.575M405 380.975l-2.111 2.756M405 380.975l2.607-3.288M388.247 375.612l5.108 1.627M388.247 375.612l.365-3.948M388.247 375.612l-.438 3.428M378.53 372.363l7.022 2.364 2.695.885M369.302 364.909l-1.152 2.185-.631 1.48M366.212 370.23l.51-.415.408-.505.389-.736" clip-path="url(#pbf755ea293)" style="fill:none;stroke:#000"/><path d="m371.092 369.775-.811-.242-2.762-.96M368.664 376.227l1.117-.877M368.664 376.227l-1.898 1.3M366.025 370.327l1.64 3.758.999 2.142M371.092 369.775l3.987 1.343M371.092 369.775l1.378-3.657M369.153 374.892l.405-1.002 1.534-4.115M374.646 360.88l-2.79-1.16M374.646 360.88l-2.176 5.238M374.646 360.88l3.573 1.256M389.137 366.017l7.12 2.441M389.137 366.017l-3.79-1.378M389.137 366.017l.587-4.627M389.137 366.017l-.525 5.647M411.039 373.467l-8.6-2.902M411.039 373.467l-2.95 3.593M411.614 367.43l.48 2.504.231 1.577-.01.24-.048.24-.109.204-.144.2-.975 1.072M407.607 377.687l-12.6-3.993M407.607 377.687l.482-.627M388.612 371.664l-5.192-1.71M388.612 371.664l5.936 1.873M372.47 366.118l3.92 1.434M372.47 366.118l-3.168-1.21M369.302 364.909l2.553-5.19M340.672 356.168l.912 3.382.106.237.145.14.21.052.286.012 4.88-.167M347.318 367.996l-.054-.288-.06-2.032.008-5.852M340.004 353.298l.308 1.343M333.163 351.31l.524.15.281.174.318.35.172.267.17.39.14.532.01.396.034.268.083.12.143.052.288.018 1.449-.165 3.23-.564" clip-path="url(#pbf755ea293)" style="fill:none;stroke:#000"/><path d="m342.173 352.903-.712.137-1.457.258M347.15 354.593l-4.268 1.03M347.15 354.593l.009-2.504M340.672 356.168l-.36-1.527M340.312 354.641l-.488.51-.306.424-.145.311-.057.223.033.198.088.076.195.031 1.04-.246M340.672 356.168l2.21-.544M342.882 355.624l-.709-2.721M342.173 352.903l4.986-.814M366.363 377.992l.294-.36M366.363 377.992l.966.454M362.882 376.482l3.164 1.348.317.162M377.563 391.78l1.053.313M377.563 391.78l1.196 3.01M377.563 391.78l-11 1.644M386.499 398.803l.233-4.072M386.499 398.803v1.158M379.739 396.534l1.023.356 5.737 1.913M379.739 396.534l.65 1.205M379.739 396.534l-.98-1.743M383.702 357.356l-.41.032M383.702 357.356l.073.598M383.775 357.954l.72.093M382.983 359.204l.185-.172.199-.316.208-.32.083-.173.117-.269M381.715 363.289l1.065-3.218M381.715 363.289l3.631 1.35M381.715 363.289l-.461-.157M381.715 363.289l-1.978 5.394M379.737 368.683l-.41-.149M379.737 368.683l3.683 1.272M379.737 368.683l-1.206 3.68M378.53 372.363l-.521-.149M378.53 372.363l-1.116 3.382M376.22 379.323l1.194-3.578M376.22 379.323l-1.226 3.605M369.336 380.596l.587.462 1.679 1.146.826.623 1.275 1.496.218.316M373.921 384.64l.648-1.872M378.009 372.214l-2.93-1.096M378.009 372.214l-1.203 3.343M378.009 372.214l1.318-3.68M379.327 368.534l-2.936-.982M379.327 368.534l1.927-5.402M381.254 363.132l-3.035-.996M382.78 360.07l-.393.326-.178.258-.23.434-.725 2.044M382.983 359.204l-.02.21-.044.191-.139.466M375.079 371.118l1.312-3.566M375.079 371.118l-3.023 2.415M376.39 367.552l1.83-5.416M378.22 362.136l1.676-4.34M379.896 357.796l.098-.364M383.291 357.388l-1.46-.005-1.837.05M369.78 375.35l2.276-1.817M369.78 375.35l-.627-.458M369.153 374.892l-.51-.415-.533-.501-.72-1.316-1.178-2.43M366.212 370.23l-.187.097M366.025 370.327l-2.221.995M402.889 383.731l-10.114-3.159M402.889 383.731l-.413.57M387.809 379.04l-10.395-3.295M387.809 379.04l4.493 1.36M377.414 375.745l-.608-.188M374.629 376.602l.664-.504.445-.357.202-.113.17-.098.32-.024.376.051M369.336 380.596l-2.007-2.15M374.629 376.602l-3.363 2.557-1.93 1.437M328.37 349.948l.193-1.398.072-.321.057-.135.12-.1.215-.069 2.928-.291.273.036.168.112.172.249.595 3.279M328.37 349.948l.55.258.919.313 1.137.356 1.181.262 1.006.173M326.022 348.374l1.032.657.664.466.652.45M318.779 344.424l1.383 1.045.903.595 1.056.532 3.9 1.778M329.118 353.333l-.733-.05-1.234-.27-1.809-.634-.384-.24-.168-.225-.055-.172.042-.239.509-1.376.736-1.753M399.785 359.155l-.53.09M399.785 359.155l.804-2.71M399.785 359.155l-1.154 3.558M389.724 361.39l3.561-.841M392.267 356.417l1.018 4.132M393.285 360.549l5.97-1.304M418.617 349.995l-.55-2.766M418.617 349.995l-2.601.434M420.93 349.76l-1.356.128-.957.107M418.068 347.23l-.51-2.237M418.068 347.23l-2.573.468M416.634 340.62l.46 2.175M414.135 341.116l1.41-.272.736-.144.353-.08M429.97 338.509l-2.339-.11-1.497.172-1.562.36-3.837.87-4.101.819M401.69 343.507l.413 2.134M401.69 343.507l4.902-.924M398.728 342.688l2.19-.48.336.05.133.099.304 1.15M417.559 344.993l-.04-.193M417.559 344.993l-2.505.5M395.037 349.595l-.894.192-3.108.607M390.894 344.033l.178 4.893-.037 1.468M383.808 352.174l.716-.16 6.51-1.62M384.495 358.047l.187-.002.226-.041M384.908 358.004l-.145-.735M384.763 357.27l-.955-5.096M383.76 351.917l-.057.276M390.894 344.033l-1.87.25-1.065.38-1.128.633-.272.275-.712.657-.898 1.175-.514.994-.344.932-.255 1.002-.113.615.037.97M383.76 351.917l.048.257M395.523 355.11l-.486-5.515M395.523 355.11l5.85-1.375M395.037 349.595l4.775-1.04M395.037 349.595l-.428-6.225M394.609 343.37l4.119-.682M394.609 343.37l-3.715.663M390.83 342.454l.072.94-.008.639M402.603 347.862l1.748-.354M402.603 347.862l-.5-2.221M399.812 348.556l1.506-.39 1.285-.304M402.103 345.64l4.905-.993M402.103 345.64l-2.732.528M417.094 342.795l.424 2.005M417.094 342.795l-2.498.411M414.135 341.116l-4.354.837M414.135 341.116l.461 2.09M414.596 343.206l-4.265.834M414.596 343.206l.458 2.286M415.054 345.492l-4.1.803M415.054 345.492l.44 2.206M416.016 350.43l2.306 11.452M416.016 350.43l-.521-2.732M406.592 342.583l.416 2.064M406.592 342.583l3.189-.63M407.008 344.647l3.323-.607M407.008 344.647l.462 2.294M407.47 346.94l-3.119.568M407.47 346.94l3.484-.645M407.47 346.94l.364 2.154M408.765 352.308l3.595-.863M408.765 352.308l-.134-.35M410.956 363.453l-1.953-10.166-.238-.98M408.765 352.308l-.345.074M411.614 367.43l-.08-.746M411.614 367.43l-.348-.722M398.945 390.729l-7.468-2.52M387.043 386.797l-12.05-3.869M387.043 386.797l4.037 1.303M374.994 382.928l-.425-.16M391.168 392.066l-.475-.123M391.168 392.066l.082-.99.227-2.866M391.477 388.21l-.397-.11M391.477 388.21l.27-2.044.158-1.836M391.905 384.33l-.486-.164M391.905 384.33l.081-.755.203-.893.586-2.11M392.775 380.572l-.473-.172M392.775 380.572l1.064-3.172M393.84 377.4l-.485-.161M393.84 377.4l1.167-3.706M395.007 373.694l-.459-.157M395.007 373.694l1.707-5.077M396.714 368.617l5.725 1.948M396.714 368.617l-.457-.159M396.714 368.617l.756-2.298M401.282 354.213l.091-.478M401.282 354.213l-.693 2.233M401.282 354.213l3.011-.792 1.698-.408M391.08 388.1l-.101.76-.102 1.8-.07.554-.114.73M391.42 384.166l-.045 1.718-.295 2.216M392.302 380.4l-.672 2.328-.21 1.438M392.302 380.4l1.053-3.161M394.548 373.537l-.348 1.038-.845 2.664M396.257 368.458l-.891 2.672-.818 2.407M397.024 366.175l-.129.371-.638 1.912M399.255 359.245l-.522 1.73-.466 1.613M400.59 356.446l-.334.129-.052.039-.093.131-.124.288-.732 2.212M398.631 362.713l-.364-.125M398.631 362.713l5.762 1.84M398.631 362.713l-1.161 3.606M398.267 362.588l-1.243 3.587M402.439 370.565l1.954-6.012M411.266 366.708l-.284-.03-6.589-2.125M383.42 369.955l1.926-5.316M436.581 348.564l.474 1.732M432.621 348.66l2.089-.087 1.871-.009M445.085 345.555l-3.294 2.052-2.16.657-.426.094-.623.074-2.001.132M438.493 356.712l-1.438-6.416M434.843 358.419l.857-.274.58-.239 2.213-1.194M440.885 355.295l-.416.33-1.976 1.087M437.055 350.296l1.547.266M440.355 351.557l.983-1.289M440.885 355.295l.032-.196-.004-.16-.558-3.382" clip-path="url(#pbf755ea293)" style="fill:none;stroke:#000"/><path d="m438.602 350.562.543.255.36.207.85.533M434.843 358.419l-3.885.841M434.843 358.419l-2.222-9.76M418.408 362.276l4.996-1.031M418.408 362.276l.877 3.709M418.408 362.276l-.086-.394M418.408 362.276l-2.124.439M411.019 363.828l3.722-.758M411.019 363.828l-.063-.375M411.019 363.828l.515 2.856M411.019 363.828l-.331.065M409.78 341.953l.551 2.087M410.331 344.04l.623 2.255M410.954 346.295l.555 2.13M412.36 351.445l2.297 11.233M412.36 351.445l-.06-.308M414.741 363.07l-.084-.392M414.741 363.07l1.543-.355M420.119 369.742l4.874-1.035M420.119 369.742l-.834-3.757M419.845 374.79l.518-.211.26-.227.096-.29.057-.462-.032-.525-.089-.53-.536-2.803M424.993 368.707l-.758-3.707M425.717 371.772l-.097-.192-.627-2.873M423.404 361.245l-.109-.42M423.404 361.245l.83 3.755M423.404 361.245l3.594-.755M420.93 349.76l2.365 11.065M424.863 349.345l-1.756.164-2.178.25M426.998 360.49l-.093-.43M426.998 360.49l.43-.326M429.238 370.91l-.166-.09-.077-.093-.048-.243-.352-2.153-.349-1.824-1.248-6.017M424.863 349.345l2.042 10.716M430.958 359.26l-.472.14M432.621 348.66l-1.558-5.853M405.991 353.013l-.099-.401M405.991 353.013l2.429-.631M404.351 347.508l1.541 5.104M408.912 339.56l-4.259.867-13.824 2.027M390.523 336.506l-.026 1.18.332 4.768M346.945 344.466l1.464-.336M349.174 343.942l-.328.085M349.174 343.942l-.165-.971-.794-4.173-.518-2.6-1.183-5.576M349.174 343.942l.053.258M353.836 342.99l-3.29.643-1.372.309M390.523 336.506l2.936-.558 2.33-.44M390.523 336.506l-8.322 1.462M349.227 344.2l4.003-.693.703-.137M349.227 344.2l.926 3.994M349.227 344.2l-.352.016M401.359 334.249l7.22-1.23M401.359 334.249l-1.417.074-1.764.26-.98.183-1.52.328" clip-path="url(#pbf755ea293)" style="fill:none;stroke:#000"/><path d="m395.79 335.508 2.396-.453 1.837-.422 1.336-.384M398.563 321.722l-3.42 6.702-.259.329-.45.434-.675.568M382.29 324.681l1.542.298.643.227 1.514.924.826.603 2.387 1.648.595.27.465.145 1.405.348 1.19.32.902.29M382.29 324.681l-5.528 1.018M382.29 324.681l16.273-2.96M356.186 328.277l-3.001.534M356.186 328.277l.103.333M356.756 328.441l-.295-.138-.275-.026M346.406 330.335l-.121-.26M346.406 330.335l-.224.048M346.406 330.335l.108.287M346.406 330.335l4.549-1.077M356.756 328.441l4.065.046M356.289 328.61l.247-.079.22-.09M346.514 330.622l2.231-.513 2.3-.468M346.514 330.622l-.359.082M363.702 341.526l4.584-.88M363.702 341.526l-.1-.363M363.702 341.526l-.268.067M363.602 341.163l-.245.04M363.602 341.163l-.559-3.602-.599-2.591M363.602 341.163l4.548-.932M361.092 328.47l-.534-2.892M361.092 328.47l4.318-.66M360.821 328.487h.149l.122-.016M361.092 328.47l.478 2.365M359.98 322.615l4.03-.753M359.98 322.615l-.496.092M359.98 322.615l.578 2.963M359.484 322.707l.726 2.933M351.384 324.192l4.577-.87 3.523-.615M360.821 328.487l.506 2.442M360.821 328.487l-.61-2.847M363.357 341.204l-4.842.89M363.357 341.204l.077.39M363.357 341.204l-1.229-6.192M363.434 341.593l-4.827.877M379.234 338.573l2.967-.605M379.234 338.573l-.097-.39M379.234 338.573l-6.004 1.155M379.137 338.183l-6.005 1.195M379.137 338.183l-1.566-8.154M379.137 338.183l3-.58M376.762 325.699l-.373-2.948M376.762 325.699l-5.9 1.127M376.762 325.699l.81 4.33M377.571 330.03l-5.86 1.894M366.677 333.967l-4.233 1.003M366.677 333.967l1.473 6.264M366.677 333.967l-1.028-4.616M371.712 331.924l-2.141.814-2.894 1.23M362.444 334.97l-.874-4.135M362.444 334.97l-.316.042M362.128 335.012l-.801-4.083M364.01 321.862l.688 3.026M364.01 321.862l5.694-1.04M365.41 327.81l.24 1.541M365.41 327.81l-.712-2.922M370.862 326.826l-.592.13-4.86.853M368.15 340.231l.136.415M368.15 340.231l4.982-.853M368.286 340.646l4.944-.918M373.23 339.728l-.098-.35M373.132 339.378l-1.42-7.454M371.712 331.924l-.778-4.354M370.862 326.826l-.535-2.975M370.862 326.826l.072.744M369.704 320.821l.623 3.03M369.704 320.821l6.12-1.127M367.486 315.09l1.137 2.654.458 1.14.623 1.937M355.055 343.14l3.552-.67M355.055 343.14l-.102-.374M355.055 343.14l-1.122.23M354.953 342.766l-1.117.225M354.953 342.766l-.554-4.186M354.953 342.766l3.562-.672M353.242 329.219l-.057-.408M353.242 329.219l1.485-.294 1.562-.315M354.4 338.58l-.446-3.86-.712-5.501M353.242 329.219l-2.198.422M353.185 328.811l-2.23.447M358.515 342.094l.092.376" clip-path="url(#pbf755ea293)" style="fill:none;stroke:#000"/><path d="m356.289 328.61.79 4.77 1.436 8.714M354.618 347.176l.728-.118 1.602-.736 1.684-1.393-.025-2.459M353.933 343.37l-.097-.38M354.618 347.176l-.025-.474.016-.337.012-.427-.198-.892-.49-1.676M353.836 342.99l-.93-4.162M351.044 329.641l-.09-.383M352.906 338.828l-1.251-6.02-.61-3.167M351.384 324.192l-.848.159-.255.074-.158.121-.073.164-.006.253.91 4.295M360.21 325.64l.348-.062M360.558 325.578l4.14-.69M364.698 324.888l5.63-1.037M370.327 323.851l6.062-1.1M370.934 327.57l-5.285 1.781M365.65 329.351l-4.08 1.484M361.57 330.835l-.243.094M358.49 374.124l.085-.227.203-.25.242-.18.733-.305 2.056-.928 1.995-.912M366.766 377.527l-.412-.435-.41-.575-.416-.858-.235-.69-.923-2.504-.566-1.143M346.171 329.485l.114.59M344.124 319.675l.247 1.186 1.327 6.607.473 2.017M324.436 334.108l11.015-2.27 6.387-1.437 4.333-.916M468.675 322.552l-.482 1.162M473.628 318.37l-.711.798-.756.757-.799.716-.64.519-.662.492-.682.464-.703.436M438.705 328.183l7.963-1.333 13.707-2.255.38-.082M468.193 323.714l-1.186.286-3.059.67-.992.16-.87.023-1.331-.34M459.566 335.869l.194-.246 5.07-6.984 3.363-4.925M352.052 353.785l.275 1.924M352.052 353.785l-.37-2.57M352.327 355.709l.121.615.179 1.134M353.845 356.853l-.634.244-.584.36M349.55 361.417l.693-1.9.154-.386.26-.285.549-.42 1.42-.968M352.033 127.895l.18 2.01.73 6.374.161 3.163.397 3.986.63 5.035.507 4.174" clip-path="url(#pbf755ea293)" style="fill:none;stroke:#000"/><path d="m334.527 149.56.641.117 1.295.164.988.012 1.384-.106 1.036-.09.736.07 1.68.333.667.227.624.33.505.39 1.044.89 1.053.705.7.32.684.173.696.055 1.17-.122 2.431-.227 1.26-.11 1.517-.054M438.672 316.753l-5.565.987M438.672 316.753l.644 3.87M438.672 316.753l-.581-3.895M413.625 318.895l6.892-1.112M413.625 318.895l-6.26 1.097M413.625 318.895l.528 3.309M413.625 318.895l-.514-3.234M402.718 313.547l-1.768 3.364-2.387 4.81M401.99 306.212l.912 1.284.699 1.763.078.618.06.754-.11.754-.91 2.162M406.563 316.601l-.44-1.812-.07-.122-.214-.172-.36-.127-1.407-.386-1.354-.435M446.88 290.434l-2.398.922M406.563 316.601l.801 3.39M406.563 316.601l2.22-.319M420.867 299.689l.335 2.113M420.867 299.689l5.422-1.852M410.312 303.383l4.345-1.423 6.21-2.271M401.99 306.212l-.249-.365M394.171 305.518l.486.086 2.432.712 1.846.411.603-.007.31-.035.297-.071 1.844-.402M426.15 330.178l6.208-.932M426.15 330.178l-.174-.834M415.774 331.79l5.172-.751 5.204-.861M394.028 296.134l-3.331 1.796M394.028 296.134l3.527-2.06M391.412 305.284l2.638-8.821-.022-.329M421.616 303.91l6.029-1.127M421.616 303.91l1.99 11.416M421.616 303.91l-.414-2.108M420.517 317.783l-.336-1.967M420.517 317.783l.558 3.21M413.11 315.661l6.832-1.245M413.11 315.661l-4.328.621M410.312 303.383l1.354 3.897.251.818.393 2.083.234 1.464.567 4.016M401.741 305.847l-1.688-2.485-.16-.73-.38-1.643-.137-1.363v-1.033l.219-1.488.566-1.895.202-.427.198-.34.316-.455.61-.8.034-.152.004-.2-.067-.253M397.555 294.075l3.037-1.8.265-.028.232.01.13.07.116.111.123.145M402.966 290.86l-.539.678-.969 1.045M415.774 331.79l-7.195 1.23M415.774 331.79l-.143-.697M435.178 313.32l-2.718.488M435.178 313.32l-2.08-11.352M435.178 313.32l2.913-.462M424.291 319.2l6.076-.967M424.291 319.2l.665 3.896M424.291 319.2l-.685-3.874M440.12 324.525l-8.474 1.44M440.12 324.525l3.925-.652M440.12 324.525l.494 2.422M440.12 324.525l-.804-3.903M407.364 319.992l.77 3.327M433.098 301.968l2.983-.35M433.098 301.968l-5.453.815M433.098 301.968l-1.182-6.053M430.367 318.233l.599 3.794M430.367 318.233l-.006-.034M430.367 318.233l2.74-.493M440.028 300.833l-2.807.54M440.028 300.833l1.844 11.5M444.482 291.356l.207 1.63-.06.752-.195.798-1.635 5.208-.142.415-.078.114-.084.088-.133.08-2.334.392M431.646 325.965l.5 2.421M431.646 325.965l-.68-3.938M431.646 325.965l-6.047.924M424.956 323.096l.643 3.793M424.956 323.096l6.01-1.069M425.6 326.89l.376 2.454M425.6 326.89l-3.435.647M419.942 314.416l.24 1.4M421.202 301.802l-3.101.502-.097.059-.057.086-.004.156.227 1.65 1.772 10.161M423.606 315.326l-3.425.49M423.606 315.326l5.926-1.04M427.645 302.783l-1.356-4.946M427.645 302.783l1.938 11.496M431.916 295.915l3.926-1.438M431.916 295.915l-5.627 1.922M429.583 314.279l-.051.007M429.583 314.279l2.877-.471M430.36 318.2l.262-1.223.02-.274-.134-.8-.376-.743-.55-.881M432.358 329.246l6.347-1.063M432.358 329.246l-.213-.86M443.33 320.09l-.758-4.033M443.33 320.09l-4.014.532M443.33 320.09l.715 3.783M430.966 322.027l8.35-1.405M379.734 388.495l-1.118 3.598M378.616 392.093l8.116 2.638M455.41 346.713l1.104 1.234 1.825 2.415 1.926 3.195M466.728 368.581l-.635-1.19-.74-1.965-3.712-8.996-1.376-2.873M441.285 355.275l.413.071.834.152.502.016.914-.035 3.995-.325 6.43-.924 5.892-.673M449.67 342.67l-4.585 2.885M459.566 335.869l-.499.635-.408.372-.935.732-4.703 2.686-2.422 1.43-.447.39-.297.332-.184.224M455.41 346.713l-.167-.187-1.04-1.018-1.772-1.39-.437-.337-.609-.366-.302-.158-.445-.182-.447-.198-.52-.207M429.97 338.509l4.436-.071 3.035-.04 2.274.283 1.74.32 2.186.486 1.659.571 1.53.784 2.84 1.828M473.005 400.094l-.753-1.926-.89-2.082-1.1-4.072-.81-3.6-.923-4.996-.744-4.823-.583-4.572-.454-3.007-.032-1.362.012-1.073M535.076 449.144l-.89-.9-1.077-.878-.874-.63-1.724-1.084-3.275-2.015-1.865-1.078-2.824-1.604-3.415-2.286-3.449-2.302-3.06-1.973-3.253-2.09-3.238-2.161-4.443-3.038-2.412-1.637-2.97-1.933-5.714-4.4-4.403-3.445-2.542-2.067-2.606-2.254-1.861-1.786-.947-1.025-1.32-1.574-2.056-3.272-1.853-3.618" clip-path="url(#pbf755ea293)" style="fill:none;stroke:#000"/><path d="m535.076 449.144-3.659-.228-3.69-.046-2.59.203-2.752.657-2.51 1.206-3.382 2.083-2.331 1.644-1.506.673-2.007.204-3.319-.235-3.77.25-4.226-.14-3.19-.064-1.084.079-1.829.392-1.764.25-1.992.125-1.828.078-3.464-.093-2.283.172-3.108.61-3.982.736-4.168.814-.53.09-.454-.019-.222-.102-.166-.18-.077-.309-.032-.45-.147-1.519-.088-.736-.09-.595-.194-.505-.242-.47-.713-1.31-1.7-3.101-1.505-3.226-1.133-2.285-.332-.932-.227-.971-.105-.87-.016-.907-.08-1.12-.243-1.378-.308-1.456-.389-2.388-.34-2.083-.21-1.377-.219-1.175-.173-.512-.142-.302-.413-.626-.348-.525-1.27-1.973-.397-.696-.38-.8-.154-.484-.033-.392.178-.83.259-.642.453-1.049.498-.505.62-.418 1.214-.658 1.424-.924.494-.43.332-.353.263-.36.222-.403.093-.42.077-.497.251-2.5.178-2.929.053-.434.125-.34.3-.557.566-.65.591-.54.688-.563.939-.674 1.473-1.503 4.144-4.557M545.5 462.58l-4.175-5.428-4.177-5.55-2.072-2.458M545.5 462.58l.535.694 4.597 6.42 4.209 5.637 3.885 5.449 3.917 5.449 3.48 5.12 1.716 2.02 1.62 1.205 1.61 1.386.899 1.01.582 1.236.437 1.66.357 1.723.056.884-.194.9-.267.752-.486.931-1.052 1.684-.583 1.048-.275 1.316.097 1.409.372 1.362.858 1.785 2.17 4.556.436 1.206.078.626.036.814-.033 1.237-.696 3.977-1.1 4.553-.3 1.201-.413.908-.502.822-.485.987-.47 1.268-.178 1.315-.158 1.738-.246 2.23-.09.862-.089.978-.194.815-.242.837-.308 1.59-.227 1.839-.137 1.088-.033.587M542.9 551.917l.34-.017.242.066.252.165.407.188.38.146.294.054.212.017.482-.03.433-.072.7-.188 1.615-.555 1.283-.427.728-.243.98-.32.66-.177.954-.211 1.125-.211 1.202-.208 1.137-.2.534-.086.583-.062.514-.142.574-.144.515-.067.51-.003.595.019.841-.079.776-.115.653-.069.429-.03.409.023.663.035.7.086 1.081.212.805.195.878.169.411.037.557.049.335-.028M415.218 328.911l.413 2.182M415.218 328.911l-.485-3.376M415.218 328.911l6.947-1.374M408.595 326.56l.384 2.553.08.295.103.175.363.144.219.047 5.474-.863M354.4 338.58l-1.494.248M381.627 400.945l-9.948 1.56M381.627 400.945l4.872-.984M381.829 413.184l.226-1.612.373-3.053.105-2.279-.473-3.298-.433-1.997M380.389 397.739l.466 1.226.772 1.98M359.568 472.632l2.585-3.776 3.091-4.407 1.166-1.965 1.676-3.546.566-1.786.656-2.661.857-3.625 1.684-6.154 1.15-3.398 1.036-3.084 2.064-6.96 1.415-3.993 2-6.506 1.214-4.259.72-2.333.38-.995M386.434 401.277l-.162 1.487-.34 1.863-.874 2.255-1.384 2.506-.753 1.557-1.092 2.24M386.499 399.961l-.065 1.316M407.834 349.094l.562 2.63M407.834 349.094l3.675-.67M411.509 348.424l.79 2.713M411.509 348.424l3.986-.726M419.285 365.985l4.95-.985M356.95 373.934l.141-.233M309.487 428.89l1.91-.345 3.043-.375 2.04-.69 2.201-.344 1.651-.22 1.587-.813 2.04-1.472 2.719-1.597 2.04-1.41.97-1.471 1.295-1.786.907-1.096 1.198-1.315 1.78-.97 4.08-1.347 2.914-1.065 2.525-3.382 2.978-7.328 1.619-5.512 1.1-5.199-.064-2.568.13-2.568.712-3.069.842-2.693 2.824-3.39 1.894-2.192.528-.74M356.95 373.934l-1.127-.64" clip-path="url(#pbf755ea293)" style="fill:none;stroke:#000"/><path d="m258.237 467.189.81-.752 1.845-.657 2.46-.626 2.234-.032 2.007-.438 1.684.062 1.521-.25.648-.439.55-.97.162-1.033-.097-2.255.94-1.973 1.877-3.1 1.554-2.162 1.165-.75.81-.283.809.25 1.036.314 1.619.282 1.521-.188 1.425-.72.777-1.629 1.1-2.16.81-1.472 1.716-1.315 1.65-2.255 1.522-2.224 1.814-1.284 2.428-1.283 1.521-.909 1.101-.94 1.004-.814 1.392-.595 2.946-.563 2.04-.72 1.424-1.003.486-1.096.356-1.346.583-.971" clip-path="url(#pbf755ea293)" style="fill:none;stroke:#000"/><path d="m269.762 422.477 4.112 1.127 2.72.25 5.18.502h1.618l2.85.407 3.755-.031 4.338.344 2.558.72 1.877 1.88 1.101.72.745.281 4.435-.125 4.436.338M278.6 507.053l-.161-.971-.259-1.096.324-1.159.615-1.378 1.36-1.252.323-.846-.388-1.127v-1.378l.161-1.315-.161-1.221-.389-1.034-.712-1.472.259-2.473.486-2.317.583-2.13 1.521-2.004 1.36-1.378 1.974-1.472.26-1.158-.454-.814-.793-.36-1.182-.11-.841.22-1.004.374-.485.095-.389-.032-.583.188-.647.501-.227.376-.486.313-.906.282-1.068.94-.518.093-.842-.564-1.068-1.252-1.198-.94-1.49-.907-1.23-.752-.453-.877-.194-.97-.356-.69-.713-.783-2.46-.595-2.073-.625-2.136-.533-1.165-.908-1.166-1.44-1.069-1.285-.323-.783v-.845M248.298 438.385l.55 6.82-.648 3.077-.097 2.568 2.202 2.13 1.684 1.158.323.407.486 2.036 2.136 2.317 1.846 5.48 1.457 2.81" clip-path="url(#pbf755ea293)" style="fill:none;stroke:#000"/><path d="m271.51 501.573.648 1.44.097 1.284.061.12.749 1.477 1.748.814 1.683.532 1.619.157.486-.344M359.568 472.632l-2.23.515-9.195 4.573-1.943 1.19-.777.595-5.957 6.67-.745.626-2.849 1.566-4.338 1.691-5.892 3.07-6.313 1.722-8.256.062-3.529.564-.81.313-3.43 2.13-.746.845-.453.72-.971.909-.486.22-.324.28-2.104 1.316-1.133.595-.486.376-.647.313-4.08 2.631-1.748.94-.81.312-1.78.314-1.262.438h-1.684l-5.212-.25-.777-.825" clip-path="url(#pbf755ea293)" style="fill:none;stroke:#000"/><path d="m165.33 455.84.185.827 1.132 1.66 2.008 1.91 2.137 1.221 2.622 1.065 3.238 1.222 1.489.594 1.328.658 1.391 1.221 1.07 1.785 1.294 1.91.518 1.566.42 1.128 1.296 1.158 1.198 1.253.518 1.534.939 1.66.712.689 1.618.157 1.133.563.13.313.42 1.002 2.138 5.919 1.716 4.415.841 1.629 1.036.563 1.036-.094.874-.595.648-.814.647-.47.712.094.616.783 1.327 1.816.389 1.691.291 2.036.55 1.44.875.439 1.683-.157 1.425-.031 1.165.47 1.587 1.377 7.608 6.858 1.974 1.91 1.23.47 1.07.032 1.423-.345 1.36-.532.777.031 1.004 1.127 1.36 1.472.777 1.221.874 1.065 1.1.657h1.166l.842-.657.453-1.253.615-1.471.486-1.91.712-.909.907-.94 1.1-.938 1.36-.627.842-.5 1.327-.158 1.36.22.874.344v2.161l.356 3.664.389 2.004.68 1.096.874.125 1.165-.188.778 1.002.938.97 1.36.408 1.586.313.745.752 1.004.72 1.133.564 1.165-.188.777-.877.42-1.315.098-2.474v-1.785l.81-2.223 1.36-2.004 1.521-1.598 1.068-2.192.81-1.22 1.91-1.16 1.943-1.22 1.1-.908 1.036-.533 1.165.376 1.037.689" clip-path="url(#pbf755ea293)" style="fill:none;stroke:#000"/><path d="m280.77 590.366-.842-1.127-.194-.47-.13-.72-.776-2.505.064-1.128-.097-.439-.323-.407-.616-.25-1.489-1.16-.356-.437-.065-.25.324-.815 1.068-.877.55-.752.454-.97.68-1.065.68-.596.809-.532.615-.657.713-2.255-.39-1.472-1.23-4.04-1.715-3.038-.195-.72.13-1.002.68-1.065.324-.814.129-.814-.065-2.067.195-.908-.033-1.91-.356-1.253.065-.25-.194-1.849-.356-1.534-.55-1.096-.875-.752-.454-.751-.226-2.537-.906-1.754-1.295-1.566-.324-.25-.421-.438-1.036-1.316-.615-.564-.518-.47-.842-2.536-.68-.47-2.946-.532-1.004-.094-1.068.156-1.813-1.033-2.978-4.698 1.974-6.764.55-4.353-.16-2.568.064-1.88.42-2.504.519-1.504 1.262-2.818.68-.94 3.95-3.32 1.295-.782.68-.511M152.21 325.756l-.6.773-.891 1.237-.834 1.276-.396 1.026-.38 1.918-.502 1.613-.575 1.26-.68 1.613-.372 1.238-.097.86.218 1.622.081.681.04.76-.323 2.043-.016 3.257.21 2.505.457 1.374.093.517v.411l-.226.705-.972 2.818-1.747 3.383-1.749 3.257-3.043 4.26-1.878 2.63-1.23 1.378h-1.49l-2.071-.814-1.23 1.127-1.684 1.253-1.23-.126-.907-.877-1.683 1.065h-1.101l-2.137.25-2.072.69-.906 1.88-.26 1.126-2.33 2.443-1.943 1.19-1.878 1.065-1.748 1.566-2.331 1.503-1.36.501-2.072.25-1.165 1.128-.777 1.315-1.23 1.88-.778 2.317.519 1.69 1.165.94 1.749.501 1.36-.688 1.747-.313 1.295.313 1.23 1.502 2.396-.375 2.46.125 2.073-.5 1.166-.627 1.683-.314 1.813-.313 1.425.189 1.813-.502 1.683-.25 1.554.313.647.031.227.345-.356.626-.194.752-.097 1.002.064.657.712.552.745.513.81.69.161.563.292.814.55.94.356 1.064.745.658.777.313.842-.031 1.003-.407 1.263-.72 1.522-.564 1.36-.282.97-.156 1.457.657.874.47.94 1.096.064.94M148.29 421.92l-1.618-.42-1.49-.314-1.682-.282-1.619-.282-1.198-.407-1.684-.626-1.618.156-1.938.639-2.206.238.259-.313.827-.49.358-.346.369-.291.518-1.096.906-.72.712-.877.778-.595.84-.282-.258-.908.162-.846.583-1.002.518-1.221.324-1.128.226-1.096.713-1.66.97-1.127 1.102-.94.712-.814.842-.97.582-.783" clip-path="url(#pbf755ea293)" style="fill:none;stroke:#000"/><path d="m168.118 410.044-5.31-2.63-1.457-1.191-.745-.97-.152-.057-1.045-.382-1.684-1.597-.81-1.535-.841-1.722-1.716-2.13-.81-.563h-.42l-4.643 2.029-3.205 3.82M157.98 308.83l-.72-1.17-1.62-.314-2.266 1.19-1.554 1.88-1.036 2.13.13 2.38.064 1.19-.841 1.941-.583 2.067-.389 1.63-.388 1.502 1.877.188 1.101.689.455 1.623M157.98 308.83l-.43 1.758-.566 2.458-.761 2.819-.583 2.005-.647 2.568-1.1 2.63-1.231 2.193-.452.495" clip-path="url(#pbf755ea293)" style="fill:none;stroke:#000"/><path d="m158.627 308.396-.38.21-.268.224M302.89 336.637v-.4M318.779 344.424l-1.611-1.218-1.117-.877-1.215-.924-1.343-.806-1.23-.65-1.206-.532-1.477-.502-1.688-.446-2.08-.438-1.945-.568-.535-.2-.26-.185-.138-.206-.044-.235" clip-path="url(#pbf755ea293)" style="fill:none;stroke:#000"/><path d="m253.437 324.082.895.286 4.584.955 4.975 1.05 2.59.547 3.593.713 3.257.728 2.975.642 3.274.622 2.485.6 2.149.571 1 .34.776.4 1.008.685 1.246.948.891.524 1.044.47 1.716.61 2.351.862 1.728.52 1.085.232.963.12h1.68l2.136.09 1.052.04M318.779 344.424l1.553-2.752.547-.827.776-1.143.862-1.288.753-1.495 1.166-2.81M302.89 336.238l1.121-.255 1.1-.313.535-.09.368-.031.522.07.887.188.61.055.859-.086.845-.102 1.21-.016 2.91-.011 1.344-.063 1.83-.172 4.207-.662 3.198-.642M359.568 472.632l-3.186 4.656-3.869 5.637-4.306 6.936-1.068 2.16-.882 2.18-.915 3.129-.615 3.475-.632 6.796-.582 8.267-.227 2.708-.062 2.81.208 2.09.534 2.334 1.813 4.509 3.702 9.252.572 1.88" clip-path="url(#pbf755ea293)" style="fill:none;stroke:#000"/><path d="m317.192 587.56.243-1.11.809-1.505.955-1.206 1.068-.846 1.23-.532 5.24-1.08 4.15-.799 2.023-.594 1.797-.82 3.14-2.139 2.635-2.672 1.768-2.792 4.92-10.334 4.035-8.755.45-2.533-.324-3.758-.825-2.833-.453-1.801M419.044 620.65l.324-1.034 2.04-3.1 1.36-1.441 1.165-1.503.55-1.253 1.586-5.418-.226-1.033-2.428-2.13-2.364-2.411-.68-.877-1.845-2.88-1.684-1.974-1.586-1.065-4.015-1.691-.323-.063-1.457-.72-3.4-1.19-3.399-.783-2.266-.72-3.01-1.504-2.267-1.346-2.17-1.691-1.586-1.41-.97-1.314-1.685-3.445-1.262-1.817-3.497-2.944-7.835-7.547-1.65-3.288-1.49-4.072-.227-.25-.194-1.002-1.36-2.819-.323-1.252-.389-2.223-.582-1.848-1.425-2.192-1.068-1.097-.583-.22-2.363.032-1.07-.219-3.204-1.19-2.59-1.44-.194-.188-.94-.376-3.431-.532-2.978-.72M280.77 590.366l2.493-4.134 1.725 1.02.185.703.356.344 2.72 1.472 1.683.345h1.942l.778.125 2.72 1.66 3.01 1.44.874.125 3.01 3.038.746.345.517-.063.486-.25.68-.846 1.166-3.382.841-1.159.519-.407 4.176-1.816 5.795-1.367M123.771 236.92l-.3.994-.137 2.232-.095 1.215.17.388.18.123 1.024.233 1.228-.106.943-.125.232.106.84.619.958.894.378.214 1.51.488.218.273.158.374.143 1.364-.003 4.804.675 4.193.806 1.824.7 1.096.987 1.195 4.019 4.126 1.614 1.68 1.287.982.53.529 1.057 1.284.578.352.55.161.656.03.802-.097.671-.317.474-.384 2.282-2.819.664-.61.692-1.002.483-.175 1.229.104 1.833-.215 1.732.223 1.627.141.538-.145.45-.305.525-.63.802-1.496.53-3.673.534-1.049.461-.618.39-.25.347-.063.25.097.426.713.327.76.211.826.251 1.605.336 1.374.315.622.453.498 2.51 1.963.538.875.154.548-.028.38-.284.85-.838 1.268-.688 1.398-1.254 4.482-1.174 3.625-.542.956-1.254 3.233-1.166 2.005-.234.846-.041.642.227 1.746 1.659 3.876-.025 2.012-.283.775-1.902 2.866-.752 1.002-1.352 4.126-.154 1.034.218 4.228.22 1.025.472.839.288.219" clip-path="url(#pbf755ea293)" style="fill:none;stroke:#000"/><path d="m253.437 324.082-.542-.258-1.315-.858-2.501-1.847-2.83-2.173-1.694-1.303-2.793-2.052-1.574-1.104-2.347-1.633-1.574-.94-.883-.473-.352-.356-.182-.482-.097-.72-.016-.795-.053-.528-.235-.607-.542-1.14-1.498-2.372-3.164-4.991-.433-.572-.332-.274-.692-.266-.805-.29-.802-.371-.716-.631-.26-.243-.21-.422-.068-.6-.004-1.354.186-1.402.09-.782-.013-.646-.158-.58-.267-.705-.854-1.166-.793-.834-.806-.943-.44-.791-.22-.913-.072-.59-.206-.557-.17-.29-.296-.36-.778-1.029-.25-.235-.24-.053-.375.05-.825.163-.79.052-1.088-.044-1.044-.113-1.012-.254-.833-.145-1.186-.063-.725-.036-.837-.132-.624-.227-1.19-.635-1.586-.708-.724-.259-.62-.13-1.124-.018-1.202-.032-1.162-.074-.76-.02-1.773.102-3.035.384-2.477.454-1.627.203-2.322.047-2.858.204-1.412.207-1.129.263-2.25.97-2.125.933-1.457.767-.558.371-.462.45-.773 1.199-1.294 1.973-1.134 1.44-2.403 2.53-2.704 2.78-1.886 2.207-1.396 1.355-.64.403-.659.165-.635.019-.304.106-.323.252-.713.918-.922 1.754-1.004 2.459-.567 1.253-.526.876-.91 1.222-.348.223-.36.066-.316-.085M519.953 311.071l9.23.848 6.087 1.628 6.216-1.127 4.338-1.566 16.577 6.39.582 1.816-.906 4.76 1.23 1.942 3.043 1.315 4.921.313 3.82 1.378 49.437 29.377h.907M519.953 311.071l-.78-.303M519.953 311.071l16.45-21.827M519.953 311.071l-4.397 5.834M512.41 306.516l7.894-10.394M512.41 306.516l-.711-.489-.139-.322-.19-.297-.239-.261-.28-.22-.313-.173-.339-.12-.354-.065-.361-.008-.582-.389M515.962 308.563l-2.707-1.86-.844-.187M510.36 309.114l.265-.336.204-.259.214-.27.218-.277.217-.274.213-.271.204-.257.187-.237.329-.417M490.034 295.25l.666.41M421.73 324.258l-6.997 1.277M421.73 324.258l-.655-3.265M422.165 327.537l-.216-1.047-.088-.815-.13-1.417M414.733 325.535l-.58-3.331M414.733 325.535l-6.138 1.025M408.595 326.56l-.462-3.241M421.075 320.993l-6.922 1.211M414.153 322.204l-6.02 1.115M430.486 359.4l-3.057.764M432.771 368.793l-1.214-5.732-.09-.393-.08-.315-.296-.685-.605-2.269M432.771 368.793l3.755-.642M432.961 370.12l.004-.31-.194-1.017M354.618 347.176l-4.465 1.018M350.153 348.194l-.248.06M350.153 348.194l.102.7M376.39 322.751l.004-.22M441.872 312.332l.7 3.725M441.872 312.332l-3.781.526M436.081 301.619l1.14-.246M436.081 301.619l2.01 11.239M438.497 327.31l-6.352 1.076M438.497 327.31l2.117-.363M438.497 327.31l.208.873M415.631 331.093l-6.223 1-.47.298-.36.629M432.145 328.386l-6.169.958M415.631 331.093l5.063-.85 5.282-.9M433.107 317.74l-.647-3.932M444.482 291.356l-8.64 3.121M382.347 312.459l-1.6-.469M382.347 312.459l1.587-.984M382.347 312.459l-2.044 2.147M365.602 310.863l-1.56-3.527M365.602 310.863l1.884 4.227M366.596 308.04l-.745 2.61-.25.213M362.962 304.954l1.08 2.382M362.962 304.954l1.649-.39M431.063 342.807l-13.545 1.993M429.97 338.509l.29.862.803 3.436M441.338 350.268l-2.736.294M444.223 349.642l-1.89.184-.348.125-.647.317M455.41 346.713l-1.58 1.563-.149.148-.413.243-.417.231-.3.079-3.949.266-4.379.4M445.085 345.555l.21 1.151.041.29-.008.31-.076.32-.227.681-.802 1.335M441.285 355.275l1.19-1.914.332-.853.595-1.801.08-.15.15-.242.591-.673M416.284 362.715l.956 3.98M416.284 362.715l-.098-.358M436.025 365.731l.501 2.42M439.942 367.634l-3.416.517M425.717 371.772l1.226 7.821M429.108 371.275l-.133.176-.4.184-1.356.282-.818.094-.482-.055-.202-.184M429.108 371.275l.13-.364M429.108 371.275l1.407 7.814M432.961 370.12l-.064.106-.134.074-.49.157-2.711.434-.15.028-.174-.008" clip-path="url(#pbf755ea293)" style="fill:none;stroke:#000"/><path d="m430.515 379.089 3.162-.447.227-.102.186-.242.097-.266.016-.353-.17-.83-.453-2.145-.332-2.192-.287-2.392M531.936 556.075l1.108-.157.85-.177 1.085-.219.53-.121.389-.17.606-.252.51-.259.89-.61.657-.482.922-.52 1-.482.98-.274 1.12-.356.317-.079M537.343 537.253l.388 2.662.421 2.693.388.72.389.345 1.36.564 1.877.688.939.376.065.094-.065.626-.291 1.66-.26 1.597.162 1.285.184 1.354M397.47 366.319l-.446-.144M378.76 394.79l-6.83 1.084M367.053 396.495l-.49-3.071M367.053 396.495l2.161-.28M363.067 400.47l-.542-2.31-.077-.563.077-.333.146-.122.198-.074.3-.07 3.884-.503M362.355 394.081l4.209-.657M371.06 399.261l.619 3.245M371.06 399.261l-1.275.194M371.06 399.261l1.343-.202M369.785 399.455l-.57-3.24M369.785 399.455l-6.718 1.015M369.214 396.215l2.716-.34M363.067 400.47l.668 2.365.073.336.182.247.235.094.384-.036 7.07-.97M371.93 395.874l.473 3.185M372.403 399.059l7.986-1.32M363.067 375.976l-4.577-1.852M363.067 375.976l-.185.506M366.657 377.632l-.393-.313-3.197-1.343M366.657 377.632l.11-.105M366.657 377.632l.672.814M358.49 374.124l-1.399-.423M355.823 373.295l-3.089-1.197M357.091 373.7l-.15-.045-1.118-.36M348.846 344.027l.03.189M348.846 344.027l-.437.103M346.155 330.704l1.073 5.502.518 2.506.469 2.286.436 2.04.064.33.13.659M348.41 344.13l.465.086M349.905 348.254l.35.64M348.875 344.216l.356 1.558.522 2.094.152.386M346.182 330.383l-.027.32M346.182 330.383l.103-.307M352.033 127.895l-.24-2.666-.316-3.673-.178-2.294-.154-1.613-.121-1.723-.04-2.075.153-1.766.534-2.596M344.241 120.292l.915-1.32.356-.618.312-.846.497-1.457.607-1.605.368-1.057.312-.885.239-.427.643-.873.98-.897.712-.415.538-.184.951-.219M411.233 376.514l-3.144.546M411.233 376.514l3.25-.565M411.233 376.514l.696 5.346M414.483 375.949l.74 5.378M417.617 375.313l-2.685.557-.449.079M417.617 375.313l.998 5.443M419.845 374.79l-1.368.345-.86.178M430.515 379.089l-3.572.504M415.224 381.327l3.391-.571M415.224 381.327l-3.295.533M418.615 380.756l3.22-.497M421.836 380.26l5.107-.667M419.845 374.79l.696.063.454.188.17.123.153.19.13.548.113 1.55.275 2.807M402.476 384.3l.684-.213.813-.324.963-.482 1.04-.384.753-.238 5.2-.799M353.37 371.564l-.636.534M353.37 371.564l.798-.426 1.036-.36.373-.079.327.055.227.11 1.202.782.599.274.623.118.47-.004.473-.196.785-.305 1.392-.96.822-.68.927-.928.208-.483.008-.378-.02-.433-.067-.491-.138-.76-.4-1.01-.563-1.683-.388-.603-.51-.516-.38-.235-.56-.204-.566-.117-1.707-.024-1.506.032-.615.054-.461.149-.446.18-.614.51-1.247 1.26-.793.994-.486.83-.356.814-.186 1.566-.105 1.159.024.568.154.438.485.477.53.212.652.293" clip-path="url(#pbf755ea293)" style="fill:none;stroke:#000"/><path d="m353.37 371.564-.65-.293-.53-.212-.486-.477-.154-.438-.024-.568.105-1.159.186-1.566.356-.814.486-.83.793-.994 1.247-1.26.614-.51.446-.18.461-.149.615-.054 1.506-.032 1.707.024.567.117.559.204.38.235.51.516.388.603.563 1.683.4 1.01.138.76.067.491.02.433-.008.378-.208.483-.927.928-.822.68-1.392.96-.785.305-.473.196-.47.004-.623-.118-.6-.274-1.201-.782-.227-.11-.327-.055-.373.078-1.036.36-.797.427M347.318 367.996l.06.323.17.333.21.188 4.442 3.051.534.207M123.771 236.92l.336-.466.166-.306.113-.728-.068-3.46-.017-2.311.033-3.1-.09-2.326-.016-2.052.202-1.644.187-1.354.413-2.843.429-1.95M225.38 324.031l.676.043.473.067.907.336.975.526.413.32.696.658.47.36.416.18.793.208.968.047.923.113.695.2.7.45.401.58.543.54.87.403 1.25.403.975.137.55.04.369-.065.225-.098.259-.26.305-.568.336-.391.704-.373 2.444-.92 3.651-1.385 2.978-1.128.773-.23 1.073-.15 1.246.008M331.38 137.555l-.81-1.774-.809-1.664-.425-.814-.424-.525-.72-.728-1.154-.913-.822-.583-1.007-.528-1.34-.474-.85-.31-1.044-.348-1.159-.296-.666-.217-.465-.211-.858-.576-1.117-.783-.717-.618-.983-.987-.83-.823-.546-.782-.562-.827-.324-.391-.369-.337-.926-.576-1.198-.675-.477-.224-.454-.11-1.097-.193-1.173-.215M294.109 125.914l1.06-.418 1.028-.31 1.177-.24 2.06-.355.902-.13.668-.12.539-.153 1.27-.607.907-.396.93-.481.486-.259.296-.234.449-.525.481-.513.636-.525.56-.348.496-.247M344.241 120.292l-.974-.063-1.405-.051-.75-.078-1.169-.247-1.327-.329-.562-.094-.612-.029-1.088.092-.678.035-.603-.023-.961-.153-1.056-.172-.899-.227-1.238-.337-.955-.264-.69-.11-.545-.01-.97.059-2.777.145M334.527 149.56l-.302-.087-.534-.2-1.368-.736-1.153-.512-1.481-.521-1.081-.525-.85-.61-.797-.991-.975-1.449-.271-.654-.07-.595.207-.893.385-.68.4-.459.421-.387.907-.608 2.254-1.252 1.161-.846M344.241 120.292l-.878 1.496-.348.356-.462.305-.59.36-.445.376-.575.842-.676 1.539-.348.994-.174.975-.052 1.195-.118.998-.166.853-.178 1.187-.02 1.006-.11.364-.165.286-.4.349-.64.356-.801.247-1.267.371-.887.416-1.153.716-1.214.822-1.194.854M336.504 155.315l-.368-1.331-.398-1.324-.517-1.339-.694-1.762M286.112 133.616l1.052-.697.64-.49.518-.454.578-.638.757-.924.72-1.045.603-.885.583-.78.623-.598.85-.638 1.073-.553" clip-path="url(#pbf755ea293)" style="fill:none;stroke:#000"/><path d="m291.207 136.603.866-1.04.47-.56.299-.263.404-.416.247-.399.215-.305.23-.196.814-.525.688-.548.461-.485.263-.51.195-.638.032-.735-.154-.89-.312-.641-.49-.713-1.326-1.825M351.384 324.192l-1.368-1.386-1.691-1.343-1.065-.834-.975-.673-.643-.274-.624-.09-.894.083M594.173 97.062l.554.007.506.153.49.317 1.513.924 3.561 2.02 2.59 1.935.385.207 1.064.294 1 .11.635.054 4.549.588.538.227.146.137.275.348.239.404.55 1.182.295.262.284.126.66.172.999.38.417.22.704.528 2.707 2.208 7.37 5.865 2.865 2.537 2.412 2.467M597.157 160.571l5.413-9.187 9.154-15.63 1.343-2.036.964-1.284 1.181-1.285 1.425-1.245 2.218-1.566 2.574-1.59 10.052-6.014M635.585 196.99l-.972-.89-.449-.529-.328-.489-.562-1.014-.587-1.006-.72-1.022-.786-.924-.336-.36-.618-.486-.668-.375-1.737-.634-3.059-.905-2.412-.693-.291-.121-.344-.189-1.372-1.017-.441-.259-.498-.274-1.918-.536-1.32-.525-1.91-.916-2.23-1.738-1.663-1.159-3.027-1.566-1.732-.901-1.833-.771-4.225-2.052-3.634-1.738-2.813-1.547-2.258-1.237M597.157 160.571l-5.49 9.317-.825 1.229" clip-path="url(#pbf755ea293)" style="fill:none;stroke:#000"/><path d="m535.497 235.6 8.296-10.762 26.54-34.215 3.423-3.915 2.696-2.78 1.472-1.531 1.62-1.43 7.91-6.488 1.288-1.083.894-.83 1.206-1.449M383.703 352.193l.105-.019M382.324 352.192l.42 2.089.351 1.742.196 1.365M405.892 352.612l-1.668.397-2.85.726M405.892 352.612l2.46-.595M408.631 351.957l-.28.06M408.631 351.957l-.235-.233M408.631 351.957l3.669-.82M377.7 317.926l.75-1.098 1.043-1.37.81-.852M380.746 311.99l-.463 1.831-.027.159-.002.147.05.48M380.746 311.99l2.54-8.974M380.746 311.99l-2.997-.877M384.24 299.904l-3.428.813M384.24 299.904l-.954 3.112M387.448 299.086l-.785.242-2.424.576M387.38 309.34l1.366-4.836M387.38 309.34l.95-.608M387.38 309.34l-3.446 2.135M388.746 304.504l2.666.78M388.746 304.504l-2.66-.72M388.746 304.504l1.951-6.574M387.448 299.086l1.033-.32 1.376-.467.84-.369M387.448 299.086l-1.362 4.698M383.934 311.475l2.152-7.691M372.88 316.331l1.796-6.065M376.02 316.851l-1.019-.203-1.011-.153-1.11-.164M370.303 315.763l2.153.505.424.063M374.676 310.266l1.377-4.718M374.676 310.266l-2.664-.734M374.676 310.266l3.073.847M377.213 301.572l-3.074.73M377.213 301.572l.586-.14M377.213 301.572l-1.16 3.976M367.535 315.101l1.857-6.29M367.535 315.101l2.768.662M367.535 315.101l-.049-.011M369.392 308.81l1.601-5.762M369.392 308.81l-2.796-.77M369.392 308.81l2.62.722M370.993 303.048l-3.294.782M370.993 303.048l3.146-.747M374.139 302.301l-.745 2.53M372.012 309.532l1.382-4.7M372.012 309.532l-1.709 6.231M376.02 316.851l1.73-5.738M376.02 316.851l-.153.51M364.042 307.336l2.554.704M364.042 307.336l.569-2.773M394.171 305.518l-1.173.231M397.555 294.075l-.024.368-3.36 11.075M383.286 303.016l2.8.768M383.286 303.016l-2.89-.887M377.8 301.432l3.012-.715M377.8 301.432l2.596.697M380.396 302.13l.416-1.413M380.396 302.13l-1.253 4.25M392.998 305.75l-1.586-.466M392.998 305.75l-1.926 1.23M392.998 305.75l-.15 3.54M377.7 317.926l-1.833-.566M376.394 322.531l.749-2.93.226-.692.33-.983M375.823 319.694l-.089-.838-.02-.607.077-.52.076-.369M377.75 311.113l1.393-4.733M376.394 322.531l-.57-2.837M399.371 346.168l.441 2.388M399.371 346.168l-.643-3.48M441.285 355.275l-.4.02M408.396 351.724l-.044.293M410.613 363.532l.075.361M410.613 363.532l.343-.079M408.42 352.382l1.243 6.444.95 4.706M414.657 362.678l-1.841.395-1.86.38M414.657 362.678l1.53-.32M416.186 362.357l2.136-.475M418.322 361.882l4.973-1.057M423.295 360.825l3.61-.764M426.905 360.06l.524.104M411.534 366.684l-.268.024M410.688 363.893l.478 2.337.1.478M408.42 352.382l-.068-.365M410.312 303.383l-3.512 1.15M447.225 323.373l-3.18.5M447.225 323.373l3.352-.528M447.225 323.373l-1.31-7.854M445.915 315.52l-3.343.537M450.577 322.845l-1.204-7.612-.077-.12-.111-.068-.22-.026-3.05.5M450.577 322.845l4.549-.716M444.543 326.238l-3.93.709M444.543 326.238l-.498-2.365M455.126 322.129l-.915 1.965-.259.29-.648.282-8.76 1.572M458.007 315.098l-2.881 7.03M429.532 314.286l-.593.604-.114.282-.09.274-.052.454.078.34.331.753.206.32 1.063.886M437.221 301.373l-1.196-6.163-.183-.733M406.8 304.534l-2.694.849-.66.18-.723.147-.982.137M406.8 304.534l.504 2.714.797 4.663.681 4.371M573.351 99.904l.778-.321.295-.06.23-.003 1.105.259 1.372.317.77.11.849.011 1.841-.062 1.32-.02 2.553.039.251-.024.27-.046 1.308-.423.494-.106.275-.031 1.959-.012.377-.098.351-.121.527-.208.542-.27.635-.462.805-.705 1.166-.47.749-.136M558.873 106.386l.047.198.389.94 1.327 3.03.769 1.676.769 1.394.988 1.59.853 1.28.417.638 1.562 2.717.797 1.199 1.841 2.607 1.668 2.005.522.473 1.125 1.003.413.368.182.22.502.833.696 1.05 1.497 2.607 1.077 1.5.838 1.237.554.65.287.274 1 .787 3.788 2.639 1.942 1.394 1.214.971 1.271 1.01.413.43.477.753.543.877 1.133 1.723 1.214 1.628 2.096 3.328.656 1.308.275.587.219.83.574 2.506.409 1.23.481.822 1.459 1.873M503.43 186.543l1.015-.344.93-.063 1.162.004 1.87.137.992.015.437-.097.214-.09.453-.282.697-.568.76-.842.858-.689.995-.68 1.397-.82.61-.446.41-.395.27-.537.77-2.407.538-1.457.926-1.523.709-.92 1.02-1.24.461-.597.377-.626.465-1.069.651-1.464.231-.568.15-.41.145-.612.045-1.859.04-.642.086-.443.226-.799 1.392-3.35.275-.455.39-.54 1.606-1.68.327-.447.437-.677 1.101-2.318.712-1.433.332-.892.591-2.123.445-.924.417-.509 1.599-1.135.602-.466.547-.505.939-1.175 1.918-2.678.939-1.558.295-.69.142-.563.76-5.568.146-4.471.227-3.085v-.745l.065-2.443.101-.45.15-.34 1.023-1.653.122-.217.077-.167.59-1.62 1.199-3.352.404-1.276.19-.459.243-.34 1.47-1.793.995-1.207 2.622-2.685 1.98-2.084.643-.548 1.036-.665.756-.513.697-.47.313-.188.28-.096.204-.01.21.04.437.183.725.603.27.24.422.563.445.6.315.21.405.161.62.156.385-.017M402.966 290.86l.44-1.87.324-2.017.6-5.387.63-4.494.086-2.639.23-.473.842-.764 3.416-1.358 1.432-.936 1.141-.96.437-.52.583-1.245.235-.689.712-2.991 1.287-3.61.996-2.482.89-3.046.324-3.14-.049-4.776.272-1.296.489-.615 7.341-5.708 6.863-5.309 3.044-2.6.242-.336.47-1.37 1.991-14.995.59-3.29.438-3.938-.275-.924-1.603-3.077-.631-1.856-.28-2.811-.182-.203-2.055-1.187-.518-.606-1.343-2.209-.877-1.973-.45-.186-.94-.065-3.052.18-1.343-.32-.178-.392.25-.447 2.51-2.286 3.731-2.976 1.935-1.096.57-.172 5.88-1.175 3.893-1.174 9.899-2.408 1.376-.2 2.914-.118 1.877-.164 1.676-.407 1.206-.493 3.7-1.073 1.237-.074 1.587.168 4.208.211 1.959.255 1.793-.184.951-.22 2.646-1.104.219-.027 2.46.043 1.012.102 2.327.619 1.331.579 1.53.807.664.72 2.436 4.111 1.651 1.7.761.403 2.428.697.785.093 1.421-.078 3.071-.466M535.497 235.6l-1.004-1.77-.481-.923-.458-.861-1.861-3.775-.632-1.088-.97-1.488-.746-1.088-1.23-1.567-.882-1.111-.611-.815-.983-1.605-1.91-4.001-2.202-4.221-2.347-4.612-.882-1.683-1.368-2.271-1.344-1.77-1.036-1.331-.42-.474-.365-.337-.825-.669-3.99-3.367-1.692-1.715-1.457-1.7-.898-1.307-.179-.285-.68-1.445-.615-1.778M402.966 290.86l-1.858-12.774-1.012-7.18-1.004-6.307-.23-1.35-.06-1.171-.066-.317-.074-.16-.189-.234-.413-.19-.333-.035-.312.032-.321.093-.28.165-.36.288-1.074.877-.276.115-.2.049-1.149-.076-.75-.112-.593-.059-.215-.004-.261.035-1.075.32-.528-.006-.295-.102-.25-.15-.565-.701-.693-1.735-.623-1.629-.275-.504-.065-.169-.097-.814-.067-.226-.14-.181-.254-.204-.563-.254-.466-.102-.546-.008-1.412.387M544.805 278.204l14.204 1.605 1.4.047 2.008-.055 4.524-.486 2.19-.337.562-.156.55-.242.272-.18.323-.27 3.614-4.726 1.943-2.396.631-.564.607-.4 1.942-.83 3.036-1.315 1.837-.665 1.044-.51.373-.305.582-.477 2.024-2.051 3.108-2.914 1.728-1.863 1.695-1.734 1.627-2.487 1.157-1.87 1.085-2.585.356-1.268.308-.932.42-.854.43-.65.558-.634 1.182-1.346.68-1.018 2.193-3.766 1.012-2.538.202-.642.348-1.675.25-1.48.163-.525.518-1.127.785-1.645 2.55-3.883 1.109-1.59.947-1.339.979-1.104 1.999-1.782.599-.422.575-.25.841-.427.674-.37.42-.312.65-.61.385-.533 1.606-2.38 1.55-2.036 1.441-1.676 1.02-1.151.963-1.128 1.757-2.732 1.278-2.115 2.376-3.093 3.59-4.416M544.805 278.204l-1.012-.102M544.805 278.204l-8.401 11.04M543.793 278.102l-9.13-1.057M543.793 278.102l-10.453 13.87M520.798 275.353l9.082 1.175M520.798 275.353l-12.504-1.487M520.798 275.353l-3.757 4.991M508.294 273.866l-1.105-.2M517.041 280.344l-8.642-6.165-.105-.313M507.189 273.666l-1.81 2.398M534.663 277.045l-4.783-.517M526.928 287.397l7.517-9.898.218-.454M529.88 276.528l-6.388 8.418M508.902 304.172l7.964-10.494M506.92 306.975l.19-.27.213-.3.228-.323.239-.338.242-.341.238-.338.229-.323.212-.3.191-.27M459.566 335.869l.885.682.405.297.55.33 6.467 3.327 3.505 1.496 1.59.406.992.114 1.157.059.21.008.171.02.318.07.374.105.16.02.227-.023.092-.038.565-.19.971-.203.798-.098 1.125-.04M395.79 335.508l-.113-.414M382.2 337.968l-.063-.366M114.718 450.452l-1.716 3.287-.097 1.222.582 1.315v.814l-.582.783M161.111 452.738l-3.594 2.285-1.278.391-1.117-.235-3.302-2.065-1.813-.502-.907-1.471-.323-.783-.583-2.098-.26-.438-.452-.157-1.069.157-.42.282-.778.876-1.295 1.096-2.04 1.503-1.36 1.284-.744.344-1.489.47-.842.47-1.392 1.69-3.237 3.413-.648.47-3.529 1.566-.906.062-1.101-.375-.777.093-.939.69-.486.563-1.942 1.065-1.327-.658-3.238-.72-.939.031-1.618.689-.583.125-.421-.062-1.425-.658-.68-.657-.226-.564.615-1.252.26-1.785M162.148 451.736l-1.037 1.002M165.33 455.84l-.528-.128-.615-.532-1.424-1.66-.356-.062-1.296-.72M163.98 438.352l.142 1.467.227 1.848.162 2.286.389 2.536.226 3.664-.065 2.224.098 2.693.171.77M183.14 419.032l-.583-.908-1.521-1.504-2.59-2.85-.227-.375-2.655-1.816-2.946-1.19-1.198-.251-3.302-.094M148.29 421.92l1.34-.94 1.197-.667 1.27-.351 1.775-.179 4.89-.282.193-.657.162-1.002v-1.065l.195-.72 1.748-2.631.518-.626.938-.564 1.62-.595 1.586-.344 1.813-.47.583-.783M183.14 419.032l.939.939 2.557 1.065 2.59.783 4.857 1.817.81.219 1.295.5 1.489.846.13 1.127 1.424-.406.647-.189 2.202-1.878.6-.947.422-1.753 2.17-1.66 2.557-.345 7.914.57 1.813-1.22 1.942-.846 1.555-.313 3.108.188 1.424 1.033" clip-path="url(#pbf755ea293)" style="fill:none;stroke:#000"/><path d="m248.298 438.385-1.393-2.95-4.305-6.2-1.392-2.38-3.335.406-1.619-.087-.744-.282-2.576-1.565-1.984-2.092-.541-.57-2.055-1.566-.956-.313-1.05-.189-.648-.25-.615-.376-.26-.5.76-.91M227.901 414.866l-2.233.94-.778.72.954 1.598-.26.438M245.158 417.028l2.427.47h1.425l.647-.064 1.295-.219 1.069-.438.486-.094.615.031 1.068.314 1.554-.501.615-.063.777.282.648.5.485.408 3.4 2.13.809.218h.518l1.425-.031 3.334 1.253.259.094.421.156 1.327 1.003" clip-path="url(#pbf755ea293)" style="fill:none;stroke:#000"/><path d="m248.298 438.385-.098-4.635.325-1.816.55-1.315 1.36-1.252.938-.47 1.91-.47 1.328-.908 1.133-.595 2.234-.72 2.946-1.253 8.838-2.474M537.343 537.253l-.357.157-3.982 2.818-3.852 2.724-3.011 2.537-3.173 3.163-1.295 1.566-.194 5.668-1.295 7.36-.098 5.73-.97 3.039-1.879 8.33.097 1.22.94 1.911.194 2.443-.097.845-2.364 3.759-1.198 2.662-1.457 6.513-.55 4.635-.453 1.504-.777 4.102-1.1 2.944.128 1.628.389 1.88.971 2.442.13 1.253.227.407 1.942 1.973.615.908.453 1.158.421.564.777.658.648.5 1.586 2.976M537.343 537.253l.032-16.974 1.133-4.823.841-2.944.81-1.722 1.1-2.035.325-.627.194-.188 2.914-5.637.356-1.064v-.376l-.13-.188-1.651-1.003-1.748-1.377-.55-.658-.195-.564.097-1.785 3.076-19.26.518-1.252-.162-.627.227-1.033.096-1.253-.064-.25.647-3.602.291-5.432M163.98 438.352l.74-1.268.548-1.767 1.457-4.228v-2.85l.195-.595.453-.752.874-.72.81-.376 2.266-.783 2.525-.689.583-.313.583-.501 1.392-2.474 1.619-.877.42-.125 4.695-1.002M204.411 614.793l2.687-.689 1.054-.031 1.263.156 1.814.47 1.956.909 1.119.344 2.96.22 1.12.187 1.359.5 1.748.815 3.09 1.127 4.389.94 2.072.627 1.212.47 1.766.47 1.31.218 1.118.063 3.09-.188 1.458.344 1.604.627 1.392.97 1.1 1.16.857 1.409.356.375 1.781.376 1.004.47.923.282 1.408.094 3.561-.063 1.328.5 2.38 2.193M280.77 590.366l.227 1.033-.033 2.6.453 1.879.195 1.315-.227 1.065-.194.439-.292.344-2.266.407-3.69 1.691-2.299.94-1.263.25-1.198-.094-1.812.814-1.328 1.097-1.78 2.004-.486.72-.292.783-.194 1.19-.227 3.007-.032 3.632.162 1.253-.065 1.252-.453 1.63-1.133 2.16-1.004 3.82-.744 1.598-1.716 2.63-.389.313M374.629 376.602l-2.573-3.069M376.053 305.548l-2.659-.716M376.053 305.548l3.09.832M364.61 304.563l3.089-.733M366.596 308.04l1.103-4.21M391.072 306.98l-2.741 1.752M391.412 305.284l-.39 1.326.05.37M389.797 310.996l-1.466-2.264M389.797 310.996l1.906 2.943M389.797 310.996l-2.61 1.58M392.847 309.29l-.335.06-2.715 1.646M392.847 309.29l-.205 4.82M488.865 304.61l3.195 2.281M488.865 304.61l-3.16-2.26M488.865 304.61l5.073-6.69M488.865 304.61l-5.307 6.996M492.06 306.891l3.246 2.319M492.06 306.891l5.083-6.736M492.06 306.891l-5.286 7.006M495.306 309.21l3.098 2.213M495.306 309.21l-5.275 7.007M495.306 309.21l5.103-6.777M498.404 311.423l3.317 2.37M498.404 311.423l5.132-6.808M498.404 311.423l-5.28 7.002M501.72 313.792l3.326 2.376M501.72 313.792l5.2-6.817M501.72 313.792l-5.317 6.973M505.046 316.168l3.405 2.431M505.046 316.168l5.314-7.054M505.046 316.168l-5.274 7.001M508.45 318.6l3.134 2.238M508.45 318.6l7.512-10.037M508.45 318.6l-5.25 7.015M511.584 320.838l-5.274 6.997M511.584 320.838l7.59-10.07M483.558 311.606l-3.348 4.415M483.558 311.606l3.216 2.291M483.558 311.606l-3.142-2.24M493.938 297.92l10.123-13.348M493.938 297.92l3.205 2.235M493.938 297.92l-3.238-2.26M504.061 284.572l4.667-6.152M504.061 284.572l-3.319-2.36M504.061 284.572l3.148 2.239M508.728 278.42l-3.348-2.356M508.728 278.42l3.143 2.212M480.21 316.021l-3.14-2.217M480.21 316.021l3.237 2.286M486.774 313.897l-3.327 4.41M486.774 313.897l3.257 2.32M497.143 300.155l10.066-13.344M497.143 300.155l3.266 2.278M507.21 286.81l4.661-6.178M507.21 286.81l3.231 2.3M511.871 280.632l3.238 2.278M483.447 318.307l3.27 2.31M493.125 318.425l-5.97 7.92M493.125 318.425l3.278 2.34M493.125 318.425l-3.094-2.208M503.536 304.615l10.02-13.291M503.536 304.615l3.383 2.36M503.536 304.615l-3.127-2.182M513.556 291.324l6.601-8.757M513.556 291.324l-3.115-2.215M513.556 291.324l3.31 2.354M520.157 282.567l-3.116-2.223M520.157 282.567l3.335 2.379M487.154 326.345l-3.075-2.224M487.154 326.345l3.22 2.326M484.079 324.121l-.778 1.033M484.079 324.121l2.638-3.504M490.373 328.671l6.03-7.906M490.373 328.671l-1.626 2.133M523.663 298.51l6.658-8.692M523.663 298.51l-7.701 10.053M523.663 298.51l-3.36-2.388M523.663 298.51l3.092 2.2M530.321 289.818l-3.393-2.42M530.321 289.818l3.02 2.154M515.962 308.563l3.211 2.205M503.2 325.615l3.11 2.22M503.2 325.615l-3.428-2.446M496.403 320.765l3.369 2.404M499.772 323.169l-6.978 9.263M506.31 327.835l-5.908 7.839M490.03 316.217l-3.313 4.4M480.416 309.367l5.288-7.016M480.416 309.367l-3.346 4.437M477.07 313.804l-3.442 4.566M483.3 325.154l-9.672-6.784M488.747 330.804l-7.931-2.349 2.485-3.301M505.38 276.064l-4.638 6.149M515.109 282.91l-4.668 6.2M515.109 282.91l1.932-2.566M526.928 287.397l-3.436-2.451M526.928 287.397l-6.624 8.725M523.492 284.946l-6.626 8.732M533.34 291.972l-6.585 8.737M520.304 296.122l-3.438-2.444M510.441 289.11l-10.032 13.323M526.755 300.71l-7.582 10.058M490.7 295.66l10.042-13.447M490.7 295.66l-4.996 6.69M488.747 330.804l4.047 1.628M492.794 332.432l7.608 3.242M512.09 340.826l-10.976-4.76M512.09 340.826l10.554 4.98M512.09 340.826l15.345-20.796M522.644 345.806l14.925 7.015M527.435 320.03l12.044 3.759-16.835 22.017M500.402 335.674l.712.392M536.404 289.244l18.777 13.467M501.114 336.066l14.442-19.16M506.92 306.975l.617.34.137.322.192.296.238.262.28.22.314.172.339.12.354.066.36.007.609.334M302.493 378.595l17.515-5.23 3.562.908 2.233-.752 5.828-1.784 11.688-3.633 1.424-.345 1.457.376 1.118-.139M527.435 320.03l-11.88-3.125M570.85 282.009l-15.67 20.702M551.296 307.753l3.885-5.042M148.29 421.92l.551.143 1.554.595 1.749.439.939.594.388 1.065v1.002l-.097.94.162 1.127.226 1.065.615.72 1.166.47h1.586l2.105.031 1.424.125 1.101.439 1.1.595.907.595v1.033l-.064.971.064 1.503.065 1.44.149 1.54" clip-path="url(#pbf755ea293)" style="fill:none;stroke:#000"/></g><path id="PatchCollection_1" d="m353.695 370.985-.712.04-.688-.393-.3-.532-.016-1.12.153-1.745.316-1.096 1.482-2.099 1.715-1.503 1.927-.149 3.197.172.607.478.995 1.715.915 2.56.032.783-.291.76-.801.493-1.11.407-.857.799-.89.72-.842.219-1.118-.462-1.132-.509-.875-.023-1.125.274z" clip-path="url(#pbf755ea293)" style="fill:#00f;fill-opacity:.8"/><path id="PatchCollection_2" d="m21.09 246.586.777-31.321-15.022-22.3-16.965-8.646-6.734-9.396-4.533-28.316-8.935-2.631-14.763-20.172-17.742-5.513-11.525.376-7.123 32.952-21.109 15.911-21.367 2.256-37.166.376-19.685 9.02-11.655 19.295-1.554 14.032 2.072 5.262 12.82 8.644-.128 13.782-.648 10.649-1.683 8.518-.648 14.658 2.849 7.893 20.85 7.892 8.158 13.029-16.058 18.666-25.512-4.259-18 .627-8.547 10.272-.13 12.778 4.921 16.16-7.38 7.266-13.987 4.384-18.26-6.89-9.971 3.883 2.33 6.515 24.735 18.54 16.835 7.64 31.469 12.527 23.18-3.632 5.44 6.388-1.684 20.419-1.424 21.17 5.31 15.531 8.546 3.633 7.381 6.013-1.683 6.763-16.317.752.13 14.154-2.072 24.676-.26 16.91 6.994 5.51-1.554 18.663-10.231 18.16-2.202 21.67 1.295 6.512 16.188 13.151 6.605 13.276-.648 21.918-2.331 11.897 8.418 22.294 1.942 9.643-2.46 18.41 9.065 6.637 7.77-2.755 6.604-11.272 4.921-18.91.13-12.775 8.676-8.892 2.978 2.255 5.958 8.766 1.554 7.515.388 11.271 8.806 7.89 46.49 25.047 13.857-17.658 3.627-17.784 6.604-17.533 27.066-5.636 13.079 4.76 9.195 7.764 5.05 2.13 7.77-5.136-.259-11.02-16.317-14.028-12.173-18.41 5.957-13.903 16.964-5.886 18.778-34.318.777-10.396-.13-9.77 6.087-6.011 16.576-9.645 1.166-13.652 1.294-24.3 37.037-37.326 14.505-8.518 10.619-17.787-6.217-3.382-25.382 20.417-20.072 16.41-30.044 13.652-53.225 41.46-63.196 52.355-6.475 1.628 1.036-17.41 3.626-25.801 13.857-58.745 2.849-37.704-2.072-18.914 9.582-31.818 17.872-17.286-3.367-39.085-36.52-6.514-4.92-23.3 15.28-37.333 7.512 1.002 1.554 45.35 14.503 7.016 9.325-8.018 2.072-27.31 16.576-30.317 3.626-10.775z" clip-path="url(#pbf755ea293)" style="fill:#006400;fill-opacity:.8"/><g id="PatchCollection_3"><path d="m390.617 356.95 1.464-.276.816 3.64-2.752.695zM357.154 352.678l.112-.095.011-.218-.382-1.878-4.857.91.306 1.467.225.364.282.25zM366.044 328.04l4.71-.831-4.465 1.732zM365.284 328.19l.171.846-1.392.521-.248-1.118zM347.409 352.34l2.102-.376.621 3.786-2.537.382zM374.822 361.521l2.978 1.05-1.668 4.337-3.059-1.08zM376.519 321.004l-.17-.003-.421-2.56.213-.806 1.133.328zM372.433 358.188l-.091-.007-.09.022-.076.048-.055.071-.03.083v.089l.03.083.057.07.076.048.089.022.091-.008.083-.035.068-.06.043-.078.015-.087-.015-.088-.044-.078-.067-.06zM389.667 383.391l1.396.439.15-.115.39-1.706.471-1.455-1.525-.472zM353.176 339.088l.806 3.318.653-.084-.425-3.434z" clip-path="url(#pbf755ea293)" style="fill:green;fill-opacity:.8"/></g><g id="PatchCollection_4"><path d="m335.55 324.254 1.303 5.995 3.858-.785-1.304-5.995zM415.509 369.4l2.35-.465.734 3.472-2.351.464zM413.557 372.136l2.244-.456.247 1.135-2.244.457zM415.601 368.044l1.757-.348.215 1.02-1.757.347zM423.097 343.307l-.47-2.268-2.942.571.47 2.267zM307.148 329.808l2.615.868.544-1.534-2.615-.868zM315.02 338.738l1.154-2.32-3.94-1.835-1.155 2.32zM399.147 331.016l-.368-2.31 1.583-.236.367 2.31z" clip-path="url(#pbf755ea293)" style="fill:#90ee90;fill-opacity:.8"/></g><path id="PatchCollection_5" d="m412.316 368.463.893 5.05 5.53-.953-1.094-5.184z" clip-path="url(#pbf755ea293)" style="fill:#006400;fill-opacity:.8"/><g id="PatchCollection_6"><path d="m471.491 322.004 7.9 7.14 22.727 8.832 44.224-60.509-41.245-4.572-34.448 46.352zM346.459 377.812l7.964 2.63 9.713 3.007 5.31 1.817 5.114 5.323-13.144 2.882 2.072 12.526 16.705-2.63 1.166 4.009 5.957-1.566 2.072-3.759 9.972-.939.97-9.708 7.382-7.641 30.757-4.823 3.172-11.024-1.36-9.646 19.555-3.132-3.431-5.136-5.569-5.45-7.576-4.008-6.863-6.013 1.619-5.074 17.223-2.944 4.274-11.713-16.447-1.065 4.468-24.366-44.807 15.346-1.878-3.883 1.942-8.268-2.849-1.253-11.007 6.326-17.547 4.072-9.843 2.568 6.022 14.03-15.28 3.508-6.605-4.071-10.036.439-2.85 1.628 2.202 13.906 6.41.125 2.008 6.389.647 7.516-5.504 1.754-2.655-.94-5.956-3.194-5.18-1.566-6.41-5.01-4.598.563-5.44-2.067-3.301 1.628 2.201 3.132 6.087 2.193 3.95 5.198 5.568 4.385 6.151 1.69 7.058 1.066 7.51 6.2.325 7.204-.259 3.069-.842 1.253z" clip-path="url(#pbf755ea293)" style="fill:#d3d3d3;fill-opacity:.8"/></g><g id="PatchCollection_7"><path d="m373.606 344.394-.304-1.66 2.828-.485.304 1.66zM375.864 364.682l.542.192.262-.694.295.105.265-.704-.347-.123.245-.648-.524-.186-.264.7-.5-.178-.25.66.536.188zM398.569 366.192l-.309.824.201.07-.204.546.484.169.04-.109 2.087.731.352-.943-.214-.075.197-.525.354.124.134-.358-.447-.157-.062.168-2.249-.787-.149.398z" clip-path="url(#pbf755ea293)" style="fill:#a9a9a9;fill-opacity:.8"/></g></g></g><defs><clipPath id="pbf755ea293"><path d="M91.752 86.4h554.496v554.4H91.752z"/></clipPath></defs></svg>