<svg xmlns="http://www.w3.org/2000/svg" width="960" height="960" viewBox="0 0 720 720"><defs><style>*{stroke-linejoin:round;stroke-linecap:butt}</style></defs><g id="figure_1"><path id="patch_1" d="M0 720h720V0H0z" style="fill:#fff"/><g id="axes_1"><path id="patch_2" d="M90 619.04h558V108.16H90z" style="fill:#fff"/><g id="LineCollection_1"><path d="m388.561 369.692 1.815 7.331M388.561 369.692l2.74-.34M388.561 369.692l-2.79.517M393.23 260.33l-15.848 71.522M452.415 260.456l-.562-.015-28.61-.16-10.591-.036-19.422.086M393.826 377.674l-.349-1.325M379.749 363.131l-1.753-7.788M379.749 363.131l2.042 7.735M379.749 363.131l-5.226.992M379.749 363.131l4.31-.915M370.911 364.84l-.58-3.355.958-4.572M374.523 364.123l-.662.159-2.95.558M370.911 364.84l-1.134 2.89M367.491 365.58l2.286 2.15M367.491 365.58l-3.611.894M366.328 362.038l.266.412.897 3.13M383.31 358.247l.75 3.969M383.31 358.247l-.7-2.483M391.731 357.392l-.045.536-.086.214-.255.15-8.035-.045M357.664 351.76l-2.565.646M357.664 351.76l7.716-1.791M357.664 351.76l5.613 6.641M357.664 351.76l-3.98-4.504M363.277 358.401l4.12-.727M363.277 358.401l-1.348.278M363.277 358.401l2.16 2.499.891 1.138M389.637 346.836l.62 3.154M389.637 346.836l-3.518-.235M396.304 346.967l-2.123.003-4.544-.134M588.373 423.657l-.124-49.704M588.373 423.657l-.055 41.348M451.218 332.05l40.27 55.817.574.563.86.464 66.587 24.88 28.864 9.883M385.489 386.095l-1.875-7.677M385.489 386.095l2.49-.414M385.489 386.095l-5.34 1.117M478.232 260.93l19.9.374 53.114.774 8.29.05 14.06.16 12.807.104.798-.278.496-.5.41-.463M588.17 201.904l-.054 41.1-.008 18.147M588.249 373.953l-.126-49.752-.139-50.768.124-12.282M372.937 380.762l-5.404.993M372.937 380.762l-1.788-7.786M378.338 379.633l-.517.133-4.884.996M374.819 388.483l-.083-.436-1.799-7.285M378.23 343.701l7.773.101M378.23 343.701l.763 3.46M378.23 343.701l.041-2.877M387.965 379.062l-.4-1.47M350.086 377.379l3.593-.68M350.086 377.379l1.947 7.925M350.086 377.379l-1.174-5.586M391.3 369.353l2.177 6.996M391.3 369.353l-.203-1.103M383.614 378.418l-1.823-7.552M383.614 378.418l-5.276 1.215M383.614 378.418l3.951-.826M390.376 377.023l-2.81.57M390.376 377.023l3.101-.674M390.376 377.023l.978 4.024M376.08 337.692l2.272.048M376.08 337.692l.652-2.773M376.08 337.692l-1.192 4.763M384.295 363.182l-.235-.966M381.791 370.866l3.98-.657M381.791 370.866l-5.356 1.075M386.003 343.802l.116 2.8M386.003 343.802l.008-3.029M369.777 367.73l1.372 5.246M387.565 377.592l-1.793-7.383M393.477 376.349l1.084-.337M376.082 347.65l-2.578.484M376.082 347.65l-1.194-5.195M376.082 347.65l1.914 7.693M378.993 347.16l-.664.105-2.247.385M382.152 354.323l.459 1.44M382.152 354.323l-.96-4.258M382.152 354.323l-4.156 1.02M390.831 353l-6.538.172-.982.159-.737.332-.422.66M385.772 370.209l-.347-1.537M451.218 332.05l-65.028-.14M459.99 289.158l.255.286.472.515.725.813.073.146.004.136-1.596 2.928-1.286 2.054-.108.27-.028.265.052 5.802.26 21.026.118 7.527-.089.41-.372.414-.38.179-6.872.12M374.888 342.455l-2.54.665M374.888 342.455l-1.384 5.679M377.382 331.852l8.808.057M377.382 331.852l-.65 3.067M368.79 361.46l-2.462.578M386.19 331.91l.04 3.027M386.23 334.937l-.206 2.852M386.23 334.937l-9.498-.018M371.149 372.976l-5.384 1.195M376.435 371.94l-.567.104-4.72.932M380.33 346.934l-1.337.226M380.33 346.934l.863 3.13M386.119 346.601l-4.656.164-1.134.169M384.06 362.216l5.568.3M386.024 337.79l-.013 2.983M386.024 337.79l-7.672-.05M353.683 347.256l2.392-.702M353.683 347.256l1.416 5.15M278.705 259.758l17.973 21.078 4.17 4.637 6.414 7.631 5.548 6.377 8.756 10.127 13.156 15.35 8.538 9.998 3.98 4.63 3.486 4.175 2.957 3.495M377.996 355.343l-5.266 1.214M352.033 385.304l2.453-.568M352.033 385.304l1.823 7.568M588.004 134.735l.05 6.235.14 27.82-.07 9.788.045 23.326M373.504 348.134l-8.124 1.835M373.504 348.134l-2.215 8.779M371.29 356.913l-3.894.761M372.73 356.557l-.51.12-.93.236M430.414 542.853l-.04-1.248M430.414 542.853l-1.444-6.548M588.227 532.903l.09-67.898M588.227 532.903l-61.349-1.255M348.912 371.793l3.67.129M297.066 371.981l7.732.046 32.917-.062 11.197-.172M355.632 400.247l2.111-.491M355.632 400.247l.723 2.873M355.632 400.247l-1.776-7.375M376.225 396.286l6.022-1.195M376.225 396.286l-4.82.927M376.225 396.286l.923 5.171M374.819 388.483l.662 3.507.744 4.296M354.486 384.736l3.308-.791M354.486 384.736l1.596 7.591M357.743 399.756l3.883-.802M357.743 399.756l-1.661-7.429M356.082 392.327l3.697-.8M356.082 392.327l-2.226.545M374.819 388.483l-5.206 1.074" clip-path="url(#p6f32080958)" style="fill:none;stroke:#000"/><path d="m380.149 387.212-.723.124-4.607 1.147M357.794 383.945l4.613-1.04M357.794 383.945l1.985 7.582M359.779 391.527l4.528-.915M359.779 391.527l1.847 7.427M361.626 398.954l4.693-.762M361.626 398.954l.857 2.955M356.695 359.782l-3.77.66-10.378 1.694-.774.235-.45.072-.418-.35-.233-.735-.712-2.531-.776-.71M361.929 358.68l1.95 7.794M361.929 358.68l-5.234 1.102M365.765 374.171l-5.143 1.166M365.765 374.171l1.768 7.584M365.765 374.171l-1.885-7.697M363.88 366.474l-5.22 1.015M355.49 368.065l3.17-.576M356.695 359.782l1.964 7.707M356.695 359.782l-1.596-7.376M358.66 367.49l.94 4.1M360.622 375.337l-3.864.762M360.622 375.337l1.785 7.568M360.622 375.337l-1.022-3.746M359.6 371.59l-3.748.399M352.582 371.922l3.27.067M352.582 371.922l1.097 4.777M353.68 376.699l3.078-.6M355.852 371.989l.906 4.11M362.407 382.905l5.126-1.15M362.407 382.905l1.9 7.707M364.307 390.612l5.306-1.055M364.307 390.612l2.012 7.58M367.533 381.755l2.08 7.802M369.613 389.557l1.792 7.656M371.405 397.213l-5.086.979M366.319 398.192l.589 2.857M377.148 401.457l.446 2.4M377.148 401.457l-9.758 1.832M367.508 403.84l-4.393.85M368.242 407.074l-.304-1.343-.43-1.891M367.39 403.289l.094.44.024.11M363.815 407.927l-.7-3.236M363.815 407.927l4.427-.853M363.815 407.927l-5.933 1.25M366.908 401.049l-4.425.86M366.908 401.049l.482 2.24M362.483 401.909l.632 2.782M362.483 401.909l-6.128 1.21M356.355 403.12l.671 2.668M363.115 404.69l-6.089 1.098M357.882 409.177l-.356-1.403-.5-1.986M381.252 391.422l6.657-1.197M381.252 391.422l-1.103-4.21M381.252 391.422l.995 3.67M377.594 403.857l.647 4.024M382.207 402.486l-2.116.792-2.497.579M387.909 390.225l.52 3.78M392.356 393.227l-.819-3.745-3.628.743M390.35 402.58l-1.003-5.113M390.35 402.58l4.038-.522M390.35 402.58l-7.84 1.309M382.247 395.091l6.182-1.086M382.247 395.091l.82 3.456M388.43 394.005l3.926-.778M388.43 394.005l.917 3.462M395.259 392.908l-2.903.32M378.24 407.88l4.906-.823M378.24 407.88l.584 3.01M398.482 404.804l-3.528.403M398.482 404.804l.571 2.972M398.482 404.804l-.696-4.025M382.207 402.486l.304 1.403M383.067 398.547l.699 2.717-.053.41-.365.213-1.141.599M383.146 407.057l11.808-1.85M383.146 407.057l.603 3.219M383.146 407.057l-.635-3.168M385.219 417.81l-.848-4.249M385.219 417.81l.23 1.366M385.219 417.81l.907.932M383.75 410.276l.621 3.285M383.75 410.276l7.846-1.158M395.586 408.415l-.632-3.208M391.596 409.118l.25-.044 3.74-.659M397.064 411.398l-1.105-1.319-.373-1.664M392.197 412.347l-.601-3.23M392.197 412.347l1.5 1.83M392.197 412.347l-5.588.85M384.371 413.561l2.238-.365M392.356 393.227l.804 3.263M394.388 402.058l.566 3.15M394.388 402.058l-1.228-5.568M397.786 400.779l-1.75 1.011-1.648.268M389.347 397.467l2.294-.568 1.519-.41M389.347 397.467l-6.28 1.08M356.075 346.554l8.012-1.692M363.09 340.196l-.689.044-7.193 1.505-.194.119-.086.221 1.147 4.469M364.087 344.862l8.26-1.742M364.087 344.862l1.293 5.107M364.087 344.862l-.996-4.666M365.38 349.969l2.016 7.705M363.09 340.196l3.06-.542M390.256 349.99l.335 1.536M390.256 349.99l-9.063.075M390.591 351.526l.24 1.475M390.591 351.526l5.764-.068M391.731 357.392l-.374-1.628M391.731 357.392l4.841.016M400.424 351.467l-4.069-.009M400.424 351.467l-.033 2.948M421.826 351.602l-13.203-.1-6.031-.002-2.168-.033M382.61 355.764h8.747M391.357 355.764l-.256-1.369M391.101 354.395l-.27-1.394M391.101 354.395l5.226-.013M400.39 354.415l-4.063-.033M396.572 357.408l3.769-.03.05-2.963M396.355 351.458l-.05-4.491M396.355 351.458l-.028 2.924M396.327 354.382l.245 3.026M397.786 400.779l-1.206-5.816-.214-.4-.388-1.44M407.414 395.212l-3.317 1.918M397.786 400.779l3.144-1.818M399.653 392.591l1.277 6.37M400.93 398.96l3.167-1.83M403.145 406.309l-.333-.553-.287-.331-.318-.396-.193-.482-.21-.991-.874-4.595M403.145 406.309l-6.081 5.089" clip-path="url(#p6f32080958)" style="fill:none;stroke:#000"/><path d="m399.086 413.442 4.803-4.124-.427-2.289-.317-.72M404.097 397.13l1.252 6.012M421.717 386.19l-1.58.943-.573.199h-.597l-4.207-2.197-1.047-.056-.79.22-2.61 1.427-2.48 1.626-3.13 1.562-1.543.77-.205.225-.043.26 1.185 5.96M393.767 426.708l-.753-.815M387.994 430.98l-.148-.732M388.746 418.183l3.306-2.598M388.746 418.183l-1.75 1.455M386.609 413.196l.398 2.545 1.74 2.442M386.996 419.638l2.057 2.112M386.996 419.638l-.87-.896M393.697 414.177l3.367-2.78M393.697 414.177l-1.645 1.408M397.064 411.398l2.022 2.044M392.052 415.585l2.03 2.013M398.89 422.506l-.903-.899M403.826 418.285l-.886-.853M386.29 423.84l.937 3.336M386.29 423.84l-3.663.651M386.29 423.84l2.763-2.09M385.45 419.176l.285 1.688.556 2.977M404.006 413.028l-2.935 2.474M387.227 427.176l.62 3.072M387.227 427.176l3.838-3.4M405.215 415.64l-2.275 1.792M387.846 430.248l5.168-4.355M382.627 424.491l-.31-1.872-.384-1.826M382.627 424.491l.073.35 1.86 9.421M371.42 421.389l.422 1.37M371.42 421.389l-.067-.491M371.42 421.389l2.945-.63M371.42 421.389l-10.12 2.144M380.328 419.584l.867 4.885M380.328 419.584l-.097-.524M380.328 419.584l-5.963 1.175M361.475 424.672l-.175-1.139M378.824 410.89l-6.562 1.13M378.824 410.89l1.407 8.17M359.258 414.71l.675 2.693M359.258 414.71l-.675-2.768M359.258 414.71l7.065-1.467M369.378 412.58l-3.055.663M369.378 412.58l2.884-.56M369.378 412.58l1.27 5.5M369.378 412.58l-.567-2.77M366.323 413.243l.685 2.678M367.786 418.67l-.778-2.75M367.786 418.67l-7.253 1.538M367.786 418.67l2.862-.59M370.648 418.08l.705 2.818M360.533 420.208l.632 2.71M360.533 420.208l-.6-2.805M367.008 415.92l-7.075 1.483M396.304 346.967l.027-1.528M366.15 339.654l4.979-1.105.357.03.177.322.685 4.22M333.52 146.391l-9.894 10.044-.402.914-.372 1.512-.775 5.107.062 1.741.96 3.396.698 1.997.899 1.855.728 1.084.573.357.868.114 14.032-.378.65.164.35.428v1.099l-.295 1.183-3.347 14.838-2.588 12.54-.202 1.527-.093 2.311.047 3.88.294 6.021-.263 1.156-2.433 11.141-.76 3.738-2.448 15.807-.356 3.252.031 1.27.558 1.611.712 1.512 33.163 76.838 2.233 5.204M386.011 340.773l-7.74.051M378.352 337.74l-.077 2.857-.004.227M357.882 409.177l.701 2.765M368.242 407.074l.569 2.735M358.583 411.942l10.228-2.133M372.262 412.02l2.006 8.286M374.365 420.76l.304 1.361M374.365 420.76l-.097-.454M380.149 387.212l-1.81-7.579M378.338 379.633l-1.903-7.692M376.435 371.94l-1.912-7.817M374.523 364.123l-1.793-7.566M401.071 415.502l1.869 1.93M401.071 415.502l-1.985-2.06M401.071 415.502l-5.066 4.081M396.005 419.583l1.982 2.024M396.005 419.583l-1.923-1.985M396.005 419.583l-4.94 4.192M399.086 413.442l-5.004 4.156M394.082 417.598l-5.029 4.152M391.065 423.775l1.95 2.118M391.065 423.775l-2.012-2.025M402.94 417.432l-4.953 4.175M397.987 421.607l-4.973 4.286M217.236 499.212l35.666-6.654 114.671-38.763 3.75-1.882 8.833-7.103 1.89-1.583 1.21-1.326 1.13-1.426.373-.443M409.208 481.31l-4.568-7.163-13.698-23.333-4.641-7.851-1.542-2.93M381.302 425.047l1.334 6.742.992 4.3.317 1.305.28 1.198.534 1.44M128.267 508.966l5.67-1.605 3.379-.756 3.47-.285 28.157.94M217.236 499.212l-23.297 4.113-20.719 3.366-4.277.57" clip-path="url(#p6f32080958)" style="fill:none;stroke:#000"/><path d="m172.941 547.661-1.363-3.536 12.644-1.255-15.279-35.61M107.237 514.919l21.03-5.953M427.854 531.804l.571 3.285M409.208 481.31l10.944 18.863.914 1.811.732 1.781 6.056 28.039M429.682 534.542l-.496-.4-.681-.927-.651-1.411M433.664 533.357l-.743.714-.511.628-.496.741M430.969 537.508l.395-1.027.55-1.04M431.914 535.44l-1.142-.49-.121-.052-.534-.11" clip-path="url(#p6f32080958)" style="fill:none;stroke:#000"/><path d="m432.564 536.424-.061-.428-.248-.342-.341-.214M430.374 541.605l-.04-1.231.231-1.582.404-1.284M430.969 537.508l.332.07.357-.042.326-.142.266-.16M428.97 536.305l.782.604.581.342.636.257M428.425 535.089l.545 1.216M302.407 609.216l23.916-14.47 70.306-41.41 30.574-17.511 1.222-.736M429.682 534.542l-.842.367-.415.18M432.25 537.234l.144-.283.17-.527M430.374 541.605l.331-1.06.217-.756.248-.698.728-1.17.352-.687" clip-path="url(#p6f32080958)" style="fill:none;stroke:#000"/><path d="m430.117 534.788-.373.125-.302.263-.24.392-.232.737M432.564 536.424l.636-1.469.77-1.893M429.682 534.542l.435.246M433.664 533.357l-1.735 1.042-.558.214-1.254.175M433.664 533.357l.307-.295M361.3 423.533l-.135-.615M381.302 425.047l-.107-.578M381.302 425.047l1.051-.23.274-.326M452.415 260.456l1.6.042 6.574.086 7.272.028 3.196.004 4.23.1 2.945.213M490.62 227.987l-.254.411-1.159 3.49-.849 2.422-1.028 1.97-1.466 2.595-1.65 2.61-.063.421.218.842.03.67-.495 1.27-1.38 2.568-1.999 2.183-.554.902-.127.488.038.436.457 1.569-.124.956-1.983 7.14M588.004 134.735l-3.12-.007-4.718.056-7.214-.128-3.27-.136-3.912-.01-4.905.04-2.2.092-2.62-.342-2.765-.05-4.122-.054-2.923.034-2.013.123-3.897-.146-3.719-.143-1.774.018-4.827.032-1.592.121-.427.154-.422.474-.48 1.142-.26 1.44-.22.521-.11.414.079 1.263.24 1.287-.031.496-.07.685-.364.67-.442.578-.558.425-.128.136-.077.206-.09.988M588.004 134.735l-.132-16.75M452.415 260.456l.194.82-.023.295-.376.97-1.441 3.549-.38 1.166-.467 1.126-.92 2.016-1.615 4.212-1.496 3.491-2.03 6.11-.092.605.108.243.442.214.372.25M490.62 227.987l.198-.329.702-1.316.333-.25.325-.513 1.945-4.453.115-.116.176-.066 10.983.12 2.611.05.48.235.252.385.035.657-.21 1.626.016.37.163.265.45.214.34.164.07.1-.012.131-.213.393-.012.25.059.228-.14 1.251-.07.322-.178.167-1.627.246-1.333.036-10.281-.079-3.06-.003-2.117-.085" clip-path="url(#p6f32080958)" style="fill:none;stroke:#000"/><path d="m490.62 227.987 2.117.085 3.06.003 10.281.08 1.333-.037 1.627-.246.179-.167.07-.322.139-1.251-.059-.228.012-.25.213-.393.012-.131-.07-.1-.34-.164-.45-.214-.163-.264-.015-.371.209-1.626-.035-.657-.252-.385-.48-.235-2.611-.05-10.983-.12-.176.066-.115.116-1.945 4.453-.325.514-.333.25-.702 1.315-.198.329M409.208 481.31l3.258-2.728.635-.1 1.38-.057 1.41-.442 2.696-2.239 3.425-3.08.092-.4-.433-.613-3.208-3.38M501.836 531.137l-58.329-1.193-2.466.134-2.712.57-2.185.913-1.844 1.184-.33.317M239.048 145.278l27.622.222 2.014-.193 1.326-.228.952.014.954.15 3.905.285 4.307-.079 3.44.258 6.517.028 7.124.11 11.464.204 7.383-.007 17.465.35M217.747 188.962l1.28-1.781 5.207-10.814 3.75-7.876 4.835-10.514 2.975-6.093 3.254-6.606M252.947 229.668l-2.928-3.44-6.756-7.79-18.037-20.871-6.447-7.39-1.032-1.215M147.62 126.73l7.284 6.72 5.392 4.338 1.938 1.384 4.896 3.21 6.54 4.78 7.144 5.735 22.376 19.36 5.579 6.136 8.978 10.57M159.453 230.39l2.068.596 3.13.52M242.876 259.88l-22.888-.399-6.385-.128-6.167-.428-2.185-.328-2.231-.585-3.843-1.712-1.581-.956-1.844-1.298-5.548-4.336-6.26-4.58-6.106-4.579-4.881-3.666-5.935-4.708-2.371-.67M182.115 210.079l-3.347 13.239-1.302 3.31-6.942 3.252-5.873 1.627M278.705 259.758l-13.128.123h-22.701M230.634 281.621l2.603-4.636 6.354-11.227 3.285-5.877M278.705 259.758l-7.56-8.868M361.165 422.918l10.188-2.02M380.231 419.06l-5.963 1.246M374.268 420.306l-2.915.592M186.02 439.861l-25.569-9.998-37.307-15.296-.507-.321-.136-.47-.108-6.618 1.441-68.55-.186-3.88.07-1.191.286-.57.11-2.561-.257-6.947-.286-.691-.745-.564M186.02 439.861l2.231-.128M186.02 439.861l.868.813M297.066 371.981l-18.689-.11-2.851.142-2.231 1.084-2.418 1.37-19.277 15.86-19.835 34.944-1.054.998-1.301.457-41.159 13.007M186.888 440.674l.557-.385.806-.556M217.236 499.212l-19.547-37.416-10.801-21.122M382.627 424.491l-.347-.161-1.085.139M297.066 371.981l.589 4.24.588 3.409.884 5.548.697 5.15 1.054 6.503.96 5.848.341 1.512.574 2.446.287.378.658.192 1.108-.142 1.085-.314h.279l.72.193M385.45 419.176l.26-.229.178-.117.238-.088M526.01 514.804l-18.346-4.61M507.664 510.193l5.698-12.045 3.037-10.154 8.492 1.37 1.301 1.882-.182 23.558M501.647 530.035l17.108.058 7.19-6.846.065-8.443" clip-path="url(#p6f32080958)" style="fill:none;stroke:#000"/><path d="m501.647 530.035.867-2.795 4.588-15.858.562-1.189M501.836 531.137l25.042.511M501.836 531.137l-.19-1.102M628.023 466.61l.444-11.303M628.023 466.61l-39.705-1.605M637.27 461.982l-.993 4.962-8.254-.334M526.838 563.803l-4.984-1.198M526.838 563.803l.037 8.385M526.878 531.648l-.128 12.306.088 19.85M588.249 373.953l26.892 2.568M271.144 250.89l4.258-3.035M252.947 229.668l10.368 12.181 5.765 6.62 2.064 2.42" clip-path="url(#p6f32080958)" style="fill:none;stroke:#000"/><path d="m182.115 210.079 28.513 7.76 42.32 11.83M172.402 206.805l9.713 3.274M182.115 210.079l1.426-12.783-.62-3.595-1.922-3.139-6.384 12.213-2.213 4.03M172.402 206.805l-12.95 23.585M100.73 134.827l1.495-.749M138.23 135.89l-35.518-.684-1.981-.379M138.23 135.89l-5.083-17.007M147.62 126.73l-7.097 8.533-2.293.627M133.147 118.883l-20.64 10.045-10.282 5.15M302.407 609.216l-30.29-44.1M151.122 565.914l-22.855-56.948" clip-path="url(#p6f32080958)" style="fill:none;stroke:#000"/></g><g id="PatchCollection_1"><path d="m355.312 351.996 2.01-.405-3.1-3.823zM373.955 347.61l1.435-.318-.631-3.26zM364.288 359.02l.047-.3 6.245-1.227.14.157-.838 3.766.744 3.394-.945 2.453-1.922-1.825-.852-3.323zM366.745 413.422l1.22 4.947 2.343-.49-1.22-4.946z" clip-path="url(#p6f32080958)" style="fill:green;fill-opacity:.8"/></g><g id="PatchCollection_2"><path d="m399.59 346.807.044 3.16 2.03-.024-.044-3.16zM353.714 378.383l1.233 4.925 3.63-.77-1.234-4.924z" clip-path="url(#p6f32080958)" style="fill:#90ee90;fill-opacity:.8"/></g><path id="PatchCollection_3" d="m366.21 358.905 1.954-.384.519 2.238-1.954.384z" clip-path="url(#p6f32080958)" style="fill:#a9a9a9;fill-opacity:.8"/></g></g><defs><clipPath id="p6f32080958"><path d="M90 108.16h558v510.881H90z"/></clipPath></defs></svg>