<svg xmlns="http://www.w3.org/2000/svg" width="960" height="960" viewBox="0 0 720 720"><defs><style>*{stroke-linejoin:round;stroke-linecap:butt}</style></defs><g id="figure_1"><path id="patch_1" d="M0 720h720V0H0z" style="fill:#fff"/><g id="axes_1"><path id="patch_2" d="M90 621.747h558V105.453H90z" style="fill:#fff"/><g id="LineCollection_1"><path d="m587.645 428.536-4.376-1.236M587.645 428.536l-1.47 6.71M586.176 435.246l1.115-2.852.68-1.412.495-.874.135-.34.008-.35-.106-.31-.21-.203-.648-.37M589.688 420.72l-1.004 3.644-1.04 4.172" clip-path="url(#p0be94e4d8f)" style="fill:none;stroke:#000"/><path d="m587.645 428.536 1.039-4.172 1.004-3.644M610.15 368.06l-3.078 7.995-1.608 3.689-1.394 3.43-2.357 6.014-1.035 2.486-1.55 3.593-3.683 9.24-1.708 4.29-1.393 3.818-1.908 5.7-.748 2.405" clip-path="url(#p0be94e4d8f)" style="fill:none;stroke:#000"/><path d="m589.688 420.72-1.123 2.78-.852 2.837-.398.701-.406.332-.395.181-.67.063-.383-.02-2.192-.294M580.279 462.328l1.979-8.993 3.918-18.09" clip-path="url(#p0be94e4d8f)" style="fill:none;stroke:#000"/><path d="m583.27 427.3 1.998.893.697.295.426.365.326.565.096.641-.637 5.187M394.701 361.509l2.574 1.089 3.217 1.498 12.932 5.717 21.39 9.62 29.203 13.133 6.299 2.693 3.05 1.118 4.913 1.531 7.278 2.147 24.6 6.964 22.687 6.288 21.402 5.915 6.614 1.888 10.838 2.937 5.87 1.63 5.701 1.623M567.617 522.161l-.366 1.943M567.617 522.161l1.788-8.443M568.026 524.426l-.05-.469-.132-.623-.123-.686-.104-.487M567.25 524.104l-.723 3.136M567.25 524.104l-.282-.058-.176-.013-.122.038-.152.093-.153.13-.245.254-.167.228-.12.21-.071.251M568.026 524.426l-.13-.113-.145-.069-.163-.052-.337-.088M566.527 527.24l.22.015.177.009.142-.018.127-.033.073-.047.291-.332.143-.254.2-.76.111-.638.062-.447-.005-.214-.042-.095M131.45 604.455l-1.174-.234-.754-.135-1.099-.206-.86-.207-.998-.234-.61-.15-.728-.248-.642-.239-.494-.176-.536-.22-.813-.339-2.468-1.07-2.605-1.127-5.311-2.125-2.123-.888-2.329-.948-1.48-.62M100.73 590.324l.655.658 1.205 1.14.331.328.462.479.486.524.438.427.47.399.366.28.553.322.73.408M266.678 607.644l-.533.792-.594.764-.27.295-.291.262-.363.291-.422.295-.549.34-.566.28-.525.229-.622.199-.549.17-.74.14-.685.088-1.035.03-18.842-.59-18.316-.517-3.265-.103-2.341-.06-5.288-.146-2.07-.075-4.324-.199-4.34-.11-2.366-.06-4.021-.14-4.898-.073-3.743-.104-3.846-.184-3.814-.11-3.422-.128-2.56-.057-3.476-.12-2.488-.064-2.23-.066-2.46-.09-2.43-.073-.745-.032-.863-.049-.708-.074-.677-.066-.78-.133-1.75-.253-2.145-.382-1.917-.341-2.701-.455-3.733-.666-3.201-.56-3.14-.507-2.095-.354-2.49-.423M372.803 346.374l4.942 2.126M372.803 346.374l2.373-4.472M372.803 346.374l-2.286 4.537M382.634 350.705l4.83 2.124M382.634 350.705l-4.89-2.205M382.634 350.705l2.4-4.508M382.634 350.705l-2.398 4.613M387.997 353.058l4.87 2.154M387.997 353.058l-.533-.229M387.997 353.058l1.158-2.249M387.997 353.058l-1.105 2.074M390.323 348.543l-.446-.222M390.323 348.543l.075-.745M395.049 350.605l-.076-.111-.171-.132-.143-.082-4.336-1.737M390.323 348.543l-1.168 2.266M375.176 341.902l4.874 2.118M390.06 304.253l-.78 1.518-3.918 7.098-2.979 5.4-1.401 2.524-2.007 4.058-.224.856-.19.679-.096.59-.072.775-.215 2-.31 1.807-.247 2.103-.16 1.047-.318 1.063-.59 1.653-.875 2.789-.502 1.69M367.742 392.183l2.532-5.07M367.364 392.049l.217.075.161.06M367.742 392.183l-.275.201M343.33 381.861l.812-2.006M338.186 380.047l3.488 1.327 1.656.487M347.63 382.186l-2.62-.11-1.68-.215M365.572 360.218l2.376-4.505M365.572 360.218l-4.149-1.855M365.572 360.218l4.145 1.819M360.332 394.603l2.183-4.739M360.332 394.603l-3.705-1.131M366.05 396.336l-1.154-.362-4.564-1.37M380.004 382.775l-1.583 3.11M373.97 379.873l4.503 2.073 1.531.83M386.962 376.867l-3.42 7.045-.174.399-3.364-1.536M397.021 357.294l-4.154-2.082M397.021 357.294l-2.32 4.215M395.049 350.605l3.77 1.649.224.14.166.17.072.074.048.177-.04.213-2.268 4.266M368.083 379.165l2.259-4.452M368.083 379.165l-3.548 6.817M368.083 379.165l4.768 2.177M368.083 379.165l-5.02-2.224M338.186 380.047l1.21-2.39M334.817 380.474l1.896.665.393.055.36-.067.27-.188.45-.892M377.997 359.627l2.24-4.309M377.997 359.627l-.226.447M377.997 359.627l-4.934-2.222M377.997 359.627l4.886 2.198M347.63 382.186l-3.488-2.331M348.808 382.568l-.612-.175-.566-.207M364.535 385.982l-5.573-1.2M364.535 385.982l-2.02 3.882M369.931 387.039l-1.834-.345-3.562-.712M336.47 370.82l-.315-.136M336.47 370.82l2.536 1.059M334.586 375.583l.407-1.255 1.477-3.508M385.035 346.197l4.842 2.124M385.035 346.197l-4.985-2.177M344.142 379.855l-4.746-2.199M344.142 379.855l2.434-4.541M334.586 375.583l2.11.856M334.817 380.474l-.828-.217-.155-.17-.06-.225.04-.339.502-2.553.27-1.387M372.781 369.97l2.547-5.082M372.781 369.97l-.379.634M372.781 369.97l-5.067-2.252M372.781 369.97l4.762 2.077M389.765 371.304l-2.803 5.563M389.765 371.304l2.514-5.052M389.765 371.304l-4.202-1.967M385.212 357.475l-2.329 4.35M385.212 357.475l.35.152M385.212 357.475l-4.976-2.157M385.212 357.475l1.234-2.546M377.209 372.72l.356.128M377.209 372.72l-1.263 2.499M377.209 372.72l-4.807-2.116M377.209 372.72l.334-.673M389.877 348.321l-1.222 2.282M389.877 348.321l.521-.523M372.402 370.604l-2.06 4.11M372.402 370.604l-4.984-2.342M377.897 372.202l2.743-5.216M377.897 372.202l-.354-.155M377.565 372.848l.182-.354.15-.292M377.897 372.202l.351.491M367.364 392.049l-4.85-2.185M367.364 392.049l.103.335M367.364 392.049l2.567-5.01M377.543 372.047l2.68-5.253M380.222 366.794l-4.258-1.932M380.222 366.794l.418.192M380.222 366.794l2.4-4.483M370.517 350.91l-2.291 4.312M370.517 350.91l4.805 2.222M164.803 245.184l.705.361 25.393 11.812 8.305 3.864 16.028 5.161 3.179.919 17.463 1.235.855.317.581.823.478 3.008 2.94 9.469 1.742 3.071 12.44 11.716 5.195 6.08 3.93 5.162 2.222 1.393 2.597 1.013 5.57.349 7.451 2.407 25.65 10.386 8.058 2.98 2.533 1.21 4.093 1.793 4.38 1.94 3.496 1.491 1.298.583 1.792.967.534.266.708.295 2.525.985 13.737 5.906 11.635 5.076 8.201 3.689M380.64 366.986l2.384-4.516M380.64 366.986l4.561 2.18M377.565 372.848l.683-.155M377.565 372.848l-1.286 2.513M380.236 355.318l-4.914-2.186M385.562 357.627l4.912 2.197M385.562 357.627l1.33-2.495M385.562 357.627l-2.31 4.388M358.895 363.856l.084-.586M358.895 363.856l-.148-.064-.207-.089M358.895 363.856l-.233.444M358.895 363.856l8.82 3.862M386.962 376.867l-4.302-2.03M378.64 393.57l-3.393-1.485M394.701 361.509l-2.422 4.743M394.701 361.509l-4.227-1.685M387.464 352.83l-1.018 2.1M387.464 352.83l1.191-2.227M375.247 392.085l-1.218 2.492-.016.321.064.254.366.355 2.48 1.12M375.247 392.085l1.57-3.065M346.576 375.314l2.503-4.745M346.576 375.314l-4.99-2.284M346.576 375.314l4.885 2.157M357.49 387.638l5.025 2.226M357.49 387.638l1.472-2.855M357.49 387.638l-1.538 2.9M370.342 374.713l-5.08-2.177M370.342 374.713l4.872 1.954M360.565 370.43l-3.685-1.828M360.565 370.43l4.696 2.106M360.565 370.43l-2.173 4.38M353.794 383.75l-4.986-1.182M353.794 383.75l5.168 1.033M353.794 383.75l2.119-4.22M353.794 383.75l-2.445 5.276M348.808 382.568l-2.252 4.532-.136.59.136.332.381.243 2.477.502.9.14 1.035.119M355.952 390.538l-1.067-.417-.51-.255-.931-.553-.454-.147-.542-.118-1.099-.022M351.36 366.286l-2.28 4.283M351.36 366.286l4.623 2.08M351.611 365.812l-.141.272-.11.202M351.36 366.286l-.51-.524M375.214 376.667l-1.546 3.06M375.214 376.667l.33.13M375.214 376.667l.732-1.448M348.808 382.568l2.653-5.097M336.155 370.684l1.067-2.213M318.063 361.507l5.685 2.928 6.508 3.296 5.9 2.953M356.216 367.942l-.233.425M356.216 367.942l-4.605-2.13M356.216 367.942l.397.213M356.216 367.942l.15-.272M349.08 370.57l4.802 2.162M349.08 370.57l-4.922-2.158M358.662 364.3l8.756 3.962M358.302 364.137l.112.05.248.113M358.662 364.3l-2.049 3.855M343.72 362.613l2.676 1.25M343.72 362.613l-2.842-1.329M343.72 362.613l-2.395 4.533M356.39 368.55l.49.052M356.39 368.55l.092-.162.131-.233M355.983 368.367l.233.105.174.078M356.39 368.55l-.378.253M372.85 381.342l-.88 1.719M372.85 381.342l.293.146M373.668 379.728l-.745 1.473-.072.141M353.882 372.732l4.51 2.078M353.882 372.732l2.13-3.93M353.882 372.732l-2.421 4.74M336.051 364.67l2.425 1.14M340.878 361.284l-2.234-.818-.215-.052-.215.026-.175.15-1.398 2.73-.59 1.35M337.222 368.47l-1.648-.42-.27-.155-.129-.221.04-.517.836-2.486M338.476 365.81l2.85 1.336M338.476 365.81l-1.254 2.66M338.476 365.81l2.402-4.526M341.325 367.146l2.833 1.266M341.325 367.146l-.928 1.874M358.302 364.137l-.437.798M358.302 364.137l.238-.434M336.697 376.439l2.31-4.56M336.697 376.439l-1.88 4.035M339.396 377.656l-2.124-.95-.575-.267M343.37 369.806l.788-1.394M343.37 369.806l-1.784 3.224M343.37 369.806l-2.973-.786M337.222 368.47l3.175.55M339.396 377.656l2.19-4.626M346.396 363.863l-2.238 4.549M346.396 363.863l4.455 1.9M351.611 365.812l1.888-3.716.096-.443-.167-.354-.382-.213-2.556-.782-1.251-.237-.526.044-.43.236-1.887 3.516M351.611 365.812l-.76-.05M358.392 374.81l-2.48 4.72M358.392 374.81l4.672 2.13M355.983 368.367l.029.436M358.54 363.703l.44-.433M340.397 369.02l-1.39 2.859M356.627 393.472l-.635-.765-.203-.314-.107-.317-.068-.432.052-.409.286-.697M351.461 377.471l4.452 2.06M360.699 381.706l-4.786-2.176M360.699 381.706l2.365-4.765M360.699 381.706l-1.737 3.077M341.586 373.03l-2.58-1.151M369.931 387.039l.343.073M369.931 387.039l.426-.832M381.831 374.441l-3.583-1.748M381.831 374.441l.396.189M376.279 375.361l3.4 1.524.359.085.298-.07.215-.173 1.28-2.286M382.227 374.63l.433.206M382.227 374.63l2.974-5.465M363.064 376.94l2.197-4.404M385.201 369.165l.362.172M385.201 369.165l2.65-4.867M377.745 348.5l2.305-4.48M377.745 348.5l-2.423 4.632M370.653 386.352l1.613-3.152M370.653 386.352l-.296-.145M370.653 386.352l6.163 2.668M370.653 386.352l-.38.76" clip-path="url(#p0be94e4d8f)" style="fill:none;stroke:#000"/><path d="m392.867 355.212 2.158-4.194.032-.089.024-.177-.032-.147M372.813 357.877l.25-.472M372.813 357.877l-2.23 4.218M372.813 357.877l4.958 2.197M372.813 357.877l-4.865-2.164M375.644 364.266l2.127-4.192M375.644 364.266l-5.06-2.171M375.328 364.888l.143-.281.173-.341M375.644 364.266l.32.596M366.05 396.336l1.417-3.952M348.315 434.965l4.026-8.606 10.38-22.748 1.891-4.025.968-2.15.47-1.1M367.418 368.262l.296-.544M367.418 368.262l-2.157 4.274M368.226 355.222l-.79-.076M367.948 355.713l.16-.292.118-.2M368.226 355.222l4.837 2.183M378.421 385.885l-1.605 3.135M378.421 385.885l-6.155-2.685M378.421 385.885l3.358 1.543M144.435 426.51l1.33.827 1.107.723 1.027.575 1.378.635 3.105 1.608 2.979 1.594 3.105 1.888 1.888.974.916.332 2.047.782 1.894.819.972.406.685.184.757.059.58-.103.542-.295.573-.473.383-.479.239-.45 1.664-3.386 1.003-2.088.343-.62.7-1.018.685-.98.558-1.188.908-1.97.7-1.335 2.19-4.206.415-.804.302-.767.367-.664.342-.384.605-.494 2.358-2.14 5.78-5.392 4.986-4.87 1.123-1.003 1.107-1.01 1.13-.909 1.275-.855 1.067-.826 1.011-.583.924-.391 1.139-.458 2.453-.966 2.213-.856 5.87-2.317 4.658-1.748 4.818-1.874 4.42-1.756 8.553-3.276 9.544-3.56.581-.199.534-.088.366-.026.386-.037.35.077.307.13.237.275.76 1.9 1.962 5.365 1.847 4.847.434.977.355.66.259.406.553.709.581.553.701.723 1.354 1.76 1.254 1.726.417.469.387.365.482.284.601.276.673.222.622.195.477.015.398-.11.43-.274.988-.745 1.72-.989.995-.523 2.248-1.298 3.383-1.838 1.146-.575.725-.214.84-.066 2.29.192 1.545.095 2.181-.059h1.011l2.581.259 2.716.095 4.223-.15 3.939-.24 2.564-.215 1.354-.11 2.38-.317 4.086-.493 7.82-.61 3.31-.107 2.803-.085 1.233-.082.973-.154 1.293-.263.936-.143.96-.114 3.23-.111 4.39-.325 2.167-.236 5.978-.775 5.1-.553 1.25-.184 1.393-.126 1.33.073 1.21.119 1.213.206 1.463.501 1.912.62 1.287.39M373.97 379.873l-.302-.145M373.97 379.873l1.574-3.076M373.97 379.873l-.827 1.615M377.771 360.074l4.852 2.237M380.201 390.515l-3.385-1.495M367.948 355.713l-.513-.567M392.28 366.252l-4.13-1.82M376.279 375.361l-.333-.142M376.279 375.361l-.735 1.436M367.714 367.718l2.558-5.034M388.15 364.433l-.026-.418M387.85 364.298l.137.061.164.074M388.15 364.433l-2.587 4.904M367.435 355.146l-2.906-1.158-.335-.067-.286-.022-.223.044-.144.104-2.118 4.316M358.98 363.27l.532-1.085.716-1.446 1.195-2.376M375.328 364.888l.636-.026M375.328 364.888l-5.056-2.204M392.867 355.212l-2.393 4.612M370.583 362.095l-.161.306-.15.283M370.272 362.684l-.555-.647M382.66 374.836l2.903-5.499M370.583 362.095l-.866-.058M382.623 362.31l.401.16M382.883 361.825l-.105.197-.155.289M372.266 383.2l.877-1.712M372.266 383.2l-.296-.14M382.883 361.825l.37.19M375.322 353.132l-2.26 4.273M383.566 362.417l.414.19 3.87 1.691M387.85 364.298l.274-.283M390.474 359.824l-2.35 4.191M340.67 452.007l-2.114 4.555-6.383 13.8-8.664 18.936-3.006 6.358-.24.528-8.11 17.358-14.951 30.97-19.148 39.624-10.994 22.844-.382.664M264.787 611.56l.462-.789.628-1.261.8-1.866M357.865 364.935l-1.5 2.735M357.865 364.935l-.654.197-.2.089-.099.11-.303.48-.167.32-.398.724-.108.255.018.217.088.118.323.225M100.73 590.324l.4-.603.159-.347.008-.354.04-4.087.103-9.441.04-.494.096-.332.19-.377.32-.479.716-.737.574-.635.381-.656 1.243-2.383 2.046-3.732 3.409-6.307 4.204-7.538 5.209-9.722 4.244-8.335 3.759-8.16 4.38-9.293 4.587-9.605 3.217-7.038.573-1.43 2.023-4.058 2.787-6.122 2.93-6.02 3.01-6.05 1.148-2.316.302-.339.35-.221.972-.266 5.288-1.623.94-.295.605-.31.446-.59M418.229 249.858l2.187 2.697.51.842 1.673 3.364 2.93 5.49 4.396 8.324 1.05 1.977.463.827.653.973 4.093 5.903 4.014 5.387 5.049 7.201 5.558 7.94 4.73 6.877 3.568 5.518.358.524.438.488.542.53 1.911 1.764 3.536 3.291.342.362.319.413.2.369.174.457.096.347.278 1.107.056.523.087.428.12.399.27.391.47.428.526.288M390.06 304.253l1.767-3.441 3.825-7.64 1.25-2.396 3.667-7.137 2.869-5.413 1.818-3.807 3.28-6.456 2.405-4.361 4.277-8.227 2.89-5.314.12-.203M446.9 151.443l-.276.568-3.296 6.656-2.78 5.543-1.067 2.288-.59 1.328-.915 2.317-.398 1.173-.239.702-.327 1.269-.135 1.121-.183 1.882-.048.834-.088.664-.167.583-.279.569-.31.553-.534.73-.43.473-1.011.827-2.835 2.42-1.593 1.542-.39.355-.398.435-1.004 1.27-.318.428-.287.45-1.935 3.888-.645 1.499-.151.538-.136.605-.135.878-.064.694-.032 1.048.072.672.653 2.804.836 3.232 1.294 4.48.936 4.301.367 1.992.278 2.207.12 1.616.135 2.42-.04 2.2-.239 5.372-.303 2.065-.278 1.012-.343.833-.573 1.152-2.126 4.162-2.588 5.113-3.876 6.652M390.06 304.253l-.486-.157-.255-.037-.255.03-.629.162-2.74.782-.748.206-.796.133-.566.066-.891-.014-.534.044-.358.133-.621.457-1.784 1.506-.733.538-1.433.738-1.06.39-2.444.51-2.262.037-1.051.052-.621-.074-1.155-.25-1.664-.598-.972-.569-.98-.818-.405-.458-.303-.457-1.49-2.221-.931-1.262-.406-.377-.566-.206-.533-.133-.653-.192-1.1-.347-1.234-.479M446.9 151.443l-.499-.635-.143-.122-.168-.107-.294-.088-.852-.14-4.356-.79-4.555-.885-2.087-.399M393.309 331.226l.127 1.785.191.827.35.531.606.516.637.37.414.31.223.368.064.59-.207.532-1.466 2.907-2.34 4.656-1.51 3.18M386.446 354.93l.446.202M388.655 350.603l.5.206M634.944 307.338l2.325.514M610.15 368.06l4.48-10.914 5.813-14.425 2.437-5.6 2.763-7.01 1.684-4.216 4.619-11.44 2.998-7.117M625.3 360.4l-.135.45-.43.62-1.123 1.04-2.938 2.043-2.166 1.527-.582.318-3.464 1.405-1.688.716-.617.114-.351-.015-.597-.191-1.06-.366M625.3 360.4l-2.576-.912-.426-.1-.247.004-.23.048-.287.133-1.1.465-1.425.509-1.123.332-.74.22-.287.156-.287.258M625.3 360.4l-.031-.591-.2-.502-.724-1.623-.916-2.162-.812-2.567-.303-.613-.454-.583-.502-.605-.86-.855-.406-.48-.2-.413-.055-.42.048-.503.334-.9 1.163-2.877 1.704-4.021 1.753-4.353.525-.827.39-.737.35-.76.439-.974.206-.694.104-.708.24-.73.74-1.823 1.393-3.335 1.076-2.833 1.497-3.72 1.266-3.15.9-2.287.485-1.092 1.275-2.907.437-.96.28-.442.294-.273.533-.228M580.036 463.478l.243-1.15M550.22 479.789l.463-1.276.589-2.11.573-2.9.829-3.747.238-.793.283-.45.334-.277.506-.236.713-.187 2.608-.469 4.58-.782 4.307-.812 3.512-.634 4.786-.76 2.35-.324.931-.126 2.214-.428" clip-path="url(#p0be94e4d8f)" style="fill:none;stroke:#000"/><path d="m571.204 505.044 4.324-20.18 3.17-14.938 1.338-6.448M542.731 514.597l.263-1.225 1.144-5.164 1.217-5.592 1.53-7.015 1.218-5.662 1.234-5.577.884-4.573M348.315 434.965l1.991 1.218 1.585.922 5.129 2.825 6.028 3.172 2.779 1.454 1.107.531.956.354 1.282.376 2.914.694 4.316.907 2.54.473.869.11 2.564.243 1.465.126.78.118.654.17 1.09.479 2.788 1.49 1.123.576 1.115.361 1.497.428.59.185.86.361 1.106.398 2.31.575 5.08.93 1.657.414 1.76.265 6.649.93.936.154 1.461.317 4.133.76 6.578 1.158 10.114 1.793 6.123 1.055 3.178.598.967.228.438.145.984.32.844.166 1.04.008 1.01.058 3.07.528 6.514 1.195 6.57 1.129 4.141.705 4.078.689 3.886.775 1.895.501.988.333 1.202.479.76.243 1.008.082 1.282-.111 1.06-.015 1.122.14 3.719.68 3.4.744 4.022.738 6.745 1.386 7.263 1.49 3.686.768 1.601.354 2.039.347 3.552.53 1.33.31.796.16.784.084.697-.103.872-.332.474-.133.458-.044 1.362.151 9.735 1.531 5.885 1.1 3.52.545M348.315 434.965l-7.645 17.042M293.065 465.492l-1.107 1.786-.757 1.128-.35.679-.223.738-.199 1.077-.024.634.104.657.206.457.311.317 1.02.664.334.325.358.45M293.065 465.492l.366-.214.478-.502 1.011-1.106.55-.487 1.72-1.424.621-.354 3.241-1.527 4.922-2.59 4.005-2.19 1.035-.502.829-.31.908-.206 1.935-.266 5.702-.583 3.018-.265.963-.074 1.003-.022 1.434-.088 2.23-.273 2.644-.2 4.921-.236 4.07-.066M256.122 472.375l.804-.406.502-.14.67-.015 1.226-.095.613-.14.462-.23 1.84-1.755 4.077-4.094 3.081-3.18 1.123-1.143.446-.561.51-.863.541-.782.884-.87.614-.259.676-.162.884.037 1.1.228 1.568.746 3.019 2.301 1.33.907 1.019.642 1.25.59 3.44 1.107 1.466.443 1.83.664.893.191.59.045.485-.089M580.279 462.328l.203.98.191.487.279 1.225.295 1.107.11.339.2.251.418.173.561.085 2.31.206.553.004h.574l.613-.147.908-.21.541-.041.773.04 2.878.229M569.405 513.718l.573.395.418.233.37.17 1.458.534.454.192.573.291 2.003 1.184 3.145 1.77 2.66 1.546 2.378 1.427 2.237 1.269 1.043.598.65.435.246.173.217.241.066.135.014.155.022.334M569.405 513.718l1.8-8.674M571.204 505.044l.793.35.577.214.916.258 1.752.372 2.851.484 2.963.45 1.298.199.8.114 1.059.206 3.818.72 2.086.354 1.418.243.797.067.923.08.689.104.578.118.521.166.446.214.765.443M519.036 514.578l.14-.893.097-.186.14-.13.173-.049 1.007.033 6.916.354 5.487.31 5.4.266 4.335.314M559.444 559.968l-.854 3.98-1.811 8.733" clip-path="url(#p0be94e4d8f)" style="fill:none;stroke:#000"/><path d="m559.444 559.968-1.291 1.244-.702.642-1.935 1.608-.581.545-.247.472-.175.531-.31 2.339.063.553.2.457.796 1.18.47.723.358.745.689 1.674M559.444 559.968l6.41-29.892.673-2.836M565.762 525.237l.003.192.004.335.072.325.07.284.083.357.067.218.069.159.082.055.093.033.222.045M557.707 523.976l4.085.634 3.97.627M383.252 362.015l.314.402M383.024 362.47l.004-.007.132-.27.092-.178M383.566 362.417l-.542.053M356.613 368.155l.267.447M370.357 386.207l1.613-3.146M108.08 120.347l2.064.277 4.46.074 5.542.044 1.64.163 2.82.192 4.348.295 4.141.797 4.395.915 2.43.526 1.28.195 1.345.093 1.71-.05 1.903-.467 1.656-1.034 1.793-1.721 1.546-2 1.427-1.569 1.198-.84 1.107-.618.943-.187 1.38-.05 1.922.126 3.137.11 1.053.128.95.737.833.908 1.162 1.797 1.445 2.552 1.354 1.89 1.628 2.594 1.19 2.433 2.332 4.374 1.354 1.849 1.326 1.483 1.171.848 1.921 1.373 2.058 1.026 2.04.983 2.132.916 1.271.678.567.526.723 1.144.805 1.857 1.363 2.958.714 1.297.768.941.723.865.86.881.54.738.594 1.399.63 1.382.092 1.636.595 1.763 1.08 1.789.759 1.136.684 1.387 1.879 2.723 1.965.998 1.418.222 1.675.238 1.401 2.549.342 1.615-.239.887-1.777 1.6-3.059.68-1.025 1.124 1.76 9.343-.359 1.536-1.709.887-9.313-1.22-.991.254-.752.586-.325 1.79-.324 5.589.564 2.55.53 2.295-.017 1.648-1.056 1.438-2.708 2.834-.226.107-.792.203-.665.152-1.775-.029-.69.282-.614.643-.207.28-.255.443-1.959 4.442-3.488 7.66-2.771 6.243-2.883 5.947-3.297 7.512-2.44 5.247" clip-path="url(#p0be94e4d8f)" style="fill:none;stroke:#000"/></g><path id="PatchCollection_1" d="m375.648 365.22 4.23 1.815-2.025 4.047-2.267-.973.284-.568-1.962-.842z" clip-path="url(#p0be94e4d8f)" style="fill:green;fill-opacity:.8"/><path id="PatchCollection_2" d="m381.972 376.705-2.744 5.057 3.603 1.678 2.744-5.056z" clip-path="url(#p0be94e4d8f)" style="fill:#90ee90;fill-opacity:.8"/><path id="PatchCollection_3" d="m703.779 639.223-10.561-.738-4.229-.278-1.47-.341.735-.925-1.02-.311-.325.652-2.585-1.129-4.582-.847-1.954-1.274-6-4.54.445-.811-8.314-6.919-4.174-3.674-8.86-12.276 6.591-15.495 6.374-17.08 1.003.054 1.11-1.498-2.535-2.683 1.956-3.354h3.62l.194-.357-4.321-1.946.652-1.409 6.614 1.543 3.597.09 8.28-1.432 4.49-.805 10.767.917 8.088.94 6.087 3.094 10.954-.231 1.885 1.618 2.774-.231 2.135-1.978v.72l-2.383 4.986-2.562 7.693 1.318 2.576-3.037 6.1-.116 3.022-2.436 4.81-2.469 1.43-.195.985 1.256 3.242.265 1.163-.387 1.476-.723 2.347-1.787 1.23-1.931 1.945-2.68 6.91-2.173 1.967-2.124 2.057-.314 2.46-1.52 4.047-2.173 2.101-.145 1.074 1.158.402.339 1.252-.387 1.163-.603 1.118-1.16 1.789z" clip-path="url(#p0be94e4d8f)" style="fill:#006400;fill-opacity:.8"/><g id="PatchCollection_4"><path d="m354.11 365.464.115-.224-.178-.079.05-.098-.143-.064.149-.29 1.145.505.093-.18-.886-.392.311-.605 1.936.854-.31.605-.773-.34-.093.18.976.43-.314.614-.977-.43-.085.165.182.08-.28.546-.663-.291.28-.547.234.103.085-.165zM354.535 366.525l.33.145-.066.128-.33-.144z" clip-path="url(#p0be94e4d8f)" style="fill:#a9a9a9;fill-opacity:.8"/><path d="m354.11 365.464.854.377-.085.165-.855-.376zM356.339 366.085l.163-.319.202.089-.164.318zM362.984 377.425l-1.311 2.514 4.453 1.994 1.312-2.515zM376.922 370.379l.549.246.815-1.556-.548-.246z" clip-path="url(#p0be94e4d8f)" style="fill:#a9a9a9;fill-opacity:.8"/></g></g></g><defs><clipPath id="p0be94e4d8f"><path d="M90 105.453h558v516.295H90z"/></clipPath></defs></svg>