<svg xmlns="http://www.w3.org/2000/svg" width="960" height="960" viewBox="0 0 720 720"><defs><style>*{stroke-linejoin:round;stroke-linecap:butt}</style></defs><g id="figure_1"><path id="patch_1" d="M0 720h720V0H0z" style="fill:#fff"/><g id="axes_1"><path id="patch_2" d="M90 620.54h558V106.66H90z" style="fill:#fff"/><g id="LineCollection_1"><path d="m356.622 367.463.859-.209M357.564 368.487l-.686-.746-.256-.278M351.46 368.68l.721-.1 4.441-1.117M217.486 338.19l-3.241.156M217.486 338.19l3.29-.024M217.486 338.19l-.168-.582-.4-.475M216.34 339.732l.484-.225.377-.36.229-.456.056-.5M318.8 357.105l-.206.356M318.8 357.105l.104-.237M318.8 357.105l2.77 1.025 6.915 2.693M318.8 357.105l-.457-.317M214.245 338.346l-1.496.092M214.245 338.346l.174.625.439.5.622.284M214.245 338.346l.097-.58M364.913 369.25l5.267 2.038M367.037 364.525l-.192.426-1.761 3.92-.17.379M362.873 373.724l1.9-4.165.14-.31" clip-path="url(#p3c27e89425)" style="fill:none;stroke:#000"/><path d="m358.923 367.033.308.063 5.682 2.154M212.75 338.438l-2.41.213M214.342 337.766l-.717.355-.876.317M210.34 338.651l.976.314.917.227M119.718 329.722l1.58.834 4.176 2.414 3.151 1.799 2.74 1.347 2.282.809 2.964.781 2.725.404 3.84.524 4.041.6 2.964.349 2.964.488 6.713.941 4.978.649 4.02.502 3.375.3 4.057.202 4.513-.174 2.74-.23 5.766-.66 5.393-.728 7.402-1.235 8.237-.987M318.343 356.788l-4.651-1.846-4.271-1.677-3.154-1.447-4.27-1.845-3.294-1.507-4.132-1.953-3.394-1.531-1.006-.45-1.838-.806-2.163-.942-1.504-.586-1.258-.4-1.407-.416-.68-.168M221.96 338.166l11.002.39 6.527.238 14.145.642 8.96.41 7.323.333 4.722.209 1.27.079 1.115.089 1.16.122 1.706.257 1.43.28M275.265 333.73l3.952 4.645 2.103 2.84M370.18 371.288l-2.006 4.63M370.18 371.288l4.93 1.92M372.28 366.442l-1.935 4.465-.165.381M382.845 375.33l-.917-16.287M391.215 374.315l-3.097.347-5.273.668M378.4 374.46l1.757.743.462.132.514.078.522.016 1.19-.1" clip-path="url(#p3c27e89425)" style="fill:none;stroke:#000"/><path d="m374.433 377.414.266-.098.262-.15 3.158-2.485.281-.221M375.11 373.208l.9.34 2.39.912M328.485 360.823l.158-.287M328.485 360.823l.659.275M347.71 367.833l-.79-.307M349.855 363.751l-.407.534-1.739 3.548M350.845 368.719l-.318-.042-.868-.22-1.95-.624M221.96 338.166h-1.183M216.34 339.732l.698-.017.565-.098 1.104-.341 1.464-.545.864-.275.924-.29M389.665 377.87l1.673-.219.15-.15.078-.17.011-.231-.362-2.785" clip-path="url(#p3c27e89425)" style="fill:none;stroke:#000"/><path d="m425.236 370.407-1.744.558-5.838 1.549-5.57 1.562-2.035.51-.763.132-.651.083-.696.035-1.378-.049-1.496-.111-3.9-.363-2.713-.234-2.645-.023-1.989.07-2.603.19M350.845 368.719l.614-.038M355.368 359.91l-.138.27-4.206 8.19-.179.349M350.486 369.647l.23-.594.13-.334M220.777 338.166l-2.29-.62-1.57-.413M357.48 367.254l.366-.808M358.923 367.033l-.35.011-.294.034-.798.176M430.744 366.473l-1.212 1.256-.763.739-.644.53-.726.47M425.236 370.407l1.01-.349.644-.286.509-.303M428.502 370.142l-.15-.255-.156-.181-.199-.15-.246-.084-.352-.003M452.889 352.809l-.861.247-1.138.388-1.197.46-4.833 2.287-3.353 1.437-1.167.6-1.205.607-.801.474-.876.614-1.07.81-.988.878-.92.948-3.736 3.914M428.502 370.142l.76-1.354 1.482-2.315M425.236 370.407l.434.017.322.056.359.09.28.06.348.115.255.14.262.188.24.3.232.426M594.035 477.961l-.184-.294-1.03-1.699-1.92-2.988-1.122-1.71-1.235-1.903-1.452-2.337M530.425 418.472l1.954 1.64 2.605 2.148 2.245 1.925 1.721 1.325 2.11 1.716 2.067 1.827 2.44 1.995 3.473 2.93 3.712 3.055 3.533 2.97 4.221 3.46 3.668 2.957 2.934 2.149 2.934 1.967 2.934 1.66 2.74 1.52 2.664 1.563 1.614 1.265 1.724 1.984 1.882 2.99 1.546 2.367 1.946 3.145" clip-path="url(#p3c27e89425)" style="fill:none;stroke:#000"/><path d="m566.33 472.324.808-.307 1.287-.467 1.026-.411.942-.287 1.176-.32 1.167-.349 1.235-.551 1.4-.6 1.168-.502.913-.3 1.085-.272.89-.118.899-.036.86-.09.95-.125 1.049-.112 1.235-.133 1.25-.118.808-.112.614-.084M611.892 523.857l-1.422-1.214-.658-.687-.543-.757-.453-.833-.348-1.011-.19-1.032-.02-1.011.188-.97.378-1.077.46-.827.846-1.37.718-1.315.536-1.258.258-.824M594.035 477.961l1.283 2.05 1.362 2.175.692 1.092 1.524 2.276.86 1.34.584.9 1.01 1.583.868 1.492.524.938.973 1.702.913 1.5.943 1.447.917 1.467.929 1.49.935 1.408.778 1.22.81 1.302.523.854.513.934.501 1.148.24 1.137.033 1.154-.108 1.101M620.535 547.447l-.383-2.146-.734-4.211-.35-2.044-.35-1.925-.411-1.73-.535-1.91-.876-2.696-.588-1.743-.535-1.311-.65-.966-.828-.917-.823-.718-1.58-1.273" clip-path="url(#p3c27e89425)" style="fill:none;stroke:#000"/><path d="m635.81 525.21-3.66-.28-3.698-.31-2.881-.244-3.26-.314-2.04-.178-2.372-.111-4.742-.404-.45-.007-.315.064-.236.128-.264.303M620.863 549.284l-.328-1.837M623.483 568.65l-.386-1.015-.247-1.245-.116-1.077-.094-1.471-.24-4.185-.359-3.235-.474-3.254-.704-3.884M562.28 542.791l5.06.251 4.88.244 3.611.073 2.033-.094.568-.042.468-.143.513-.26.456-.423 1.205-1.224.962-.959.322-.14.393-.02.452.073 3.586 1.12 2.005.484 2.115.505 1.179.356 1.224.422.988.29.677.167.531.227.536.45.374.25.359.095.397.031.308-.07.401-.056.458.033.543.177.786.352.913.44.718.24.876.212 1.905.321 2.687.534 3.72.687 6.332 1.147 4.042.743M199.778 528.871l-.795.185-2.075.52-3.129.906-1.998.733-6.276 2.935-1.64.631-1.694.558-1.879.562-1.055.341-.842.356-.773.365-.788.52-.793.583-1.262 1.043-2.698 2.134-.901.78-.936.878-.42.358-.491.287-.496.239-.547.187-3.704 1.13-7.096 2.372-4.15 1.412-3.234 1.14-.419.225-.167.127-.151.163-.165.28-.156.274-1.42 3.255-.856 2.085-1.366 3.613-.95 2.674-.14.575-.276 1.092-.167.587-.241.706-.327.726-.403.774-.52.913-.614 1.001-.599 1.04-.493.83-.468.665-.513.605-.458.528-.575.53-.8.67-1.18.878-.797.568-.494.38-.322.367-.31.481-.378.778-1.018 2.161-.634 1.44-.375.977-.347 1.005-1.015 2.837-.986 2.633-.627 1.82-.393 1.117-.17.588-.101.603-.12.97-.306 2.481M131.514 595.588l-.853.489-.16.088-.132.051-.21.026-.202-.005-.516-.02-.412-.022-.74-.147M402.33 151.36l-1.756-3.877-.662-1.556-.249-.915-.107-.937.048-1.015.195-.91.354-.846.477-.773.565-.632.427-.4.509-.367.696-.339M414.281 134.587l-.239.415-.426.545-.502.46-.475.35-.475.336-.717.355-.765.293-.947.252-1.134.171-2.358.248-1.534.216-.94.227-.942.338" clip-path="url(#p3c27e89425)" style="fill:none;stroke:#000"/><path d="m386.24 137.895 5.494.363 1.344.087 4.296.382 1.407.066 1.41.007 2.636-.007M407.843 164.59l-.155-.497-.51-1.55M402.33 151.36l1.352 2.964 2.45 5.597.598 1.447.449 1.176M416.493 163.465l-.98.23-.576.063-.606-.014-.794-.098-1.235-.216-1.646-.314-1.864-.3-1.613-.272M408.238 166.716l-.523.09M409.173 180.904l-.442-8.928-.145-2.842-.348-2.418M407.843 164.59l.301 1.15.094.976M182.57 183.077l-.38 1.894-.625 2.885-1.358 9.12-.447 4.206-.463 2.26-.6 1.996-1.103 2.712-2.282 5.273-3.35 7.266-1.543 3.488-1.75 3.74M162.77 241.325l2.92-6.558 2.978-6.85M146.147 221.68l1.744 1.172 1.811 1.06 1.782.851 2.604.698 3.788.725 3.248.224 3.263.432 4.281 1.075M162.77 241.325l-1.478 3.05M163.132 244.316l-.362-.674-.12-.642v-.761l.12-.914M163.132 244.316l-.316-.275-.404-.142-.432.014-.394.167-.294.294M163.132 244.316l.179.366" clip-path="url(#p3c27e89425)" style="fill:none;stroke:#000"/><path d="m161.292 244.374-.152.377.015.402.179.367.315.275.405.14M162.054 245.936l.431-.014.394-.166.295-.295.151-.376-.014-.403M166.168 246.77l-1.4-.61-.602-.446-.528-.51-.327-.522M162.054 245.936l1.222.287 1.98.408.912.14M207.477 291.784l.082-1.395-.068-1.41-.127-.934-.255-1.019-1.953-6.361-3.443-11.323-1.332-4.311-1.393-4.633-.628-1.59-.733-1.381-1.063-1.514-1.16-1.11-1.333-1.088-1.676-1.039-1.587-.677-2.245-.614-8.077-1.639-5.478-1.13-8.84-1.846M209.7 329.14l-3.504-5.295-3.847-5.678-1.048-1.758-.65-1.765-.367-1.43-.188-1.186.038-2.253.217-1.179.441-1.34.958-2.022 1.018-2.274 3.54-7.52.652-1.563.517-2.093" clip-path="url(#p3c27e89425)" style="fill:none;stroke:#000"/><path d="m375.156 162.374-1.741.01-49.276 4.636-7.262.711-1.36 1.329-21.388 13.57 1.227 1.206-.763.865-3.979 3.678-1.591 3.74-1.062 3.153.299 2.658.53 3.648-.232 2.225-.365 1.082-.862 1.082-2.155 1.886.232 1.112-.398.68-1.525 1.33-4.742.34-4.676-.711-6.433-2.411-3.449 4.636-2.785 1.607-10.28 2.411-1.525 1.391-2.951 5.842-.73 1.855-6.466 5.872-4.808 3.71-4.975.803-1.525 1.205-.994 6.213-2.852 14.001-1.095 2.813-14.524 30.227-1.198 1.005M359.288 311.017l1.984-3.453 1.579-2.435M373.928 306.97l-1.468 2.613M373.928 306.97l5.314 2.463M367.454 307.117l1.138-1.863.5-.257.533-.035 4.303 2.009M379.242 309.433l-1.422 2.686M390.848 314.55l-.94-.254-.595-.216-10.071-4.647M369.803 308.326l-1.803-.853-.546-.356M364.625 312.698l1.646-3.55.876-1.5.307-.53M351.392 318.642l3.772-6.363 1.01-1.471.78-.384 1.099.014 1.235.579" clip-path="url(#p3c27e89425)" style="fill:none;stroke:#000"/><path d="m364.625 312.698-.711.174-4.626-1.855M378.975 312.614l11.22 5.334M378.975 312.614l-2.708 5.075M378.975 312.614l-1.155-.495M391.516 312.483l-.668 2.067M411.546 240.3l.827 18.969.257 8.237-.018.985-.135.998-.316.96-.485.898-.643.807-.78.694-.896.56-.984.41-.776.2-1.143.166-1.647.175-1.11.182-1.062.357-.979.523-.867.673-.73.801-.571.907-.396.985-.29 1.081-6.388 28.414-.898 4.201M391.516 312.483l-.253 2.177M391.263 314.66l-.415-.11M391.263 314.66l-.73 3.377M390.848 314.55l-.653 3.398M376.267 317.69l-1.193-.507M376.267 317.69l12.66 6.102M390.195 317.948l.338.09M390.195 317.948l-1.268 5.844M390.533 318.037l-.96 4.503M372.274 315.76l2.8 1.423M372.274 315.76l-2.642-1.143M372.274 315.76l2.627-5.022M375.074 317.183l2.746-5.064M351.392 318.642l-6.58 12.521M321.578 286.16l2.71 4.582 1.09 1.54.67.756.777.592 1.272.686.876.57.793.67 2.983 2.972 12.592 13.285 3.818 4.32 2.233 2.509M388.927 323.792l.35.17M388.927 323.792l-.449 1.923M389.277 323.961l.296-1.421M389.277 323.961l-.392 1.875M388.885 325.836l-.407-.121M388.885 325.836l-.676 3.185M388.478 325.715l-.673 3.226M380.707 328.585l.863-1.656.546-.58.764-.348.988-.216 2.956-.175 1.654.105M367.1 323.062l1.9.837M367.1 323.062l-4.1 7.605M367.1 323.062l.87-1.623M375.702 326.692l-3.95 7.417M375.702 326.692l2.206 1.05M375.702 326.692l-2.133-.817M375.328 322.673l-1.76 3.202M377.908 327.742l2.596 1.233M373.711 334.944l.25-.08.162-.147.019-.036 3.766-6.939M380.504 328.975l.203-.39M380.504 328.975l-5.075 9.383M363 330.667l-3.566 6.837M363 330.667l1.82.838M367.421 332.117l2.205 1.033M367.421 332.117l3.89-7.2M365.564 331.881l.95.529.163.094.096.041.098.016.096-.002.081-.014.067-.026.056-.032.062-.057.053-.065.04-.072.095-.176M344.813 331.163l-3.197 5.628M345.988 333.458l.056-.255-.049-.237-.093-.234-1.09-1.569M365.564 331.881l-3.56 6.781M365.564 331.881l-.744-.376M369.626 333.15l3.943-7.275M369.626 333.15l1.41.643M365.667 339.575l.222-.55 2.111-3.813.363-.377.348-.26.202-.266.713-1.16M209.7 329.14l3.776 5.497M253.036 288.178l-3.698 1.925-1.946.53-1.736.293-1.774.063-.592.07-.47.265-.323.384-1.003 1.367-.778.655-1.138.754-.853.697-.509.95-.262 1.109-.007 1.513.18 1.214.47 1.73.18 1.074-.202.858-.51 1.068-4.67 7.296-2.753 4.144-.816 1.235-.981.676-1.953.95-7.133 2.322-3.271 1.325-1.662.963-2.402 2.016-1.475 1.598-1.25 1.918M371.036 333.793l-3.689 6.598M371.036 333.793l.717.316M373.711 334.944l-.27-.06-1.688-.775M373.711 334.944l-3.756 6.705M213.476 334.637l.355.558.205.31.24.346.202.331.124.345.044.335.022.403M216.399 336.856l-1.326-.957-1.597-1.262M341.616 336.791l-1.19 2.21M343.637 337.685l-.722-.32-1.3-.574M216.399 336.856l-.62-.081-.608.143-.503.347M216.399 336.856l.518.277M385.918 337.655l.48.087M385.918 337.655l-.505 2.325M385.918 337.655l1.887-8.714M359.434 337.504l2.57 1.158M359.434 337.504l-.752 1.531M214.668 337.265l-.326.5M386.398 337.742l1.81-8.72M385.888 340.072l.392-1.764.118-.566M375.429 338.358l-2.578 4.677M376.346 341.633l1.055-1.974.038-.164-.015-.213-.143-.146-.21-.105-1.642-.673M362.003 338.662l.553.247M362.556 338.91l-1.979 3.856M362.556 338.91l2.91 1.29M340.425 339.001l7.053 3.164M334.176 350.602l3.182-5.858 3.067-5.743M212.233 339.192l.823.233 1.003.29.988.1.433-.06M182.65 443.24l.688.237h.719l.898-.335.718-.92 1.303-4.367 1.347-4.63 1.527-5.79.509-1.311.464-.935.763-1.255 2.785-4.018 2.26-2.901 3.428-4.604 4.101-5.636 1.153-1.743.435-1.158.703-3.348.688-4.702.42-3.208.464-2.148.853-2.818.853-3.237.255-1.911-.045-1.813-.434-2.107-2.096-6.013-3.428-9.305-2.006-5.65-.33-1.102-.104-.754.225-1.38.524-3.6.553-2.316 1.422-2.623 2.815-4.603.434-.523.659-.65.606-.313 1.205-.223 2.249-.335M365.667 339.575l1.68.816M365.667 339.575l-.201.625M385.413 339.98l.475.092M385.413 339.98l-.702 3.237M215.48 339.755l.86-.023M385.888 340.072l-.716 3.23M363.563 344.1l1.794-3.562.109-.338M367.347 340.391l2.063.995M369.41 341.386l.545.263M369.41 341.386l-2.047 4.415M357.548 341.312l3.03 1.454M357.548 341.312l-1.089 2.128M357.548 341.312l1.134-2.277M352.331 338.961l4.345 1.93.872.421M376.346 341.633l8.365 1.584M376.346 341.633l-1.914 3.518M369.955 341.649l2.896 1.386M347.478 342.165l1.167-2.185M347.478 342.165l2.595 1.163M341.317 353.776l.139-.262 6.022-11.35M360.577 342.766l2.986 1.335M358.377 347.053l.142-.275 2.058-4.012M372.85 343.035l-.8 1.604M384.71 343.217l.462.084M384.71 343.217l-.797 3.677M385.172 343.301l-.714 3.22M350.073 343.328l2.572 1.154M351.205 341.11l-.138.269-.85 1.67-.144.28M343.882 354.916l.134-.25 5.948-11.132.11-.206M363.563 344.1l3.8 1.7M361.343 348.383l.143-.277 2.077-4.005M348.77 351.732l2.06-3.856 1.815-3.394M355.313 345.679l-.286-.129-2.382-1.068M372.05 344.64l2.382.51M367.363 345.8l1.75.783.455.076.513-.021.528-.129.37-.213 1.07-1.657M374.432 345.15l9.48 1.744M355.313 345.679l1.146-2.239M351.581 352.966l.173-.337 1.981-3.869 1.578-3.081M358.377 347.053l-2.762-1.239-.302-.135M367.363 345.8l-2.027 4.375M383.913 346.894l.444.082M383.913 346.894l-.902 4.155M384.357 346.976l.101-.455M384.357 346.976l-.882 4.17M358.377 347.053l2.966 1.33M354.651 354.313l.152-.296 3.437-6.697.137-.267M357.658 355.493l.084-.162 3.436-6.63.165-.318M365.336 350.175l-.289-.13-3.704-1.662M376.731 349.85l6.28 1.199M376.731 349.85l.483-2.364M382.261 354.506l-5.833-1.126-.243-.077-.124-.15-.037-.23.015-.213.692-2.86M362.069 357.224l.089-.193 3.178-6.856M366.968 350.906l-1.348-.604-.284-.127M334.176 350.602l5.402 2.402M328.643 360.536l2.484-4.515 3.048-5.42M383.475 351.147l-.464-.098M383.475 351.147l-.76 3.454M383.011 351.049l-.5 2.309-.25 1.148M369.082 359.976l1.046-2.328.26-.773.18-.773.232-1.243.284-1.207.187-.75.082-.509.038-.7M348.77 351.732l2.811 1.234M346.434 356.102l.146-.273 2.19-4.097M351.581 352.966l3.07 1.347M349.34 357.343l2.109-4.117.132-.26M339.578 353.004l1.739.772M340.755 360.662l-3.321-1.207-.195-.118-.131-.158-.032-.233.044-.234 2.324-5.396.134-.312M341.317 353.776l2.565 1.14M481.448 357.015l-.406-1.008-.333-.648-.277-.452-.376-.433-.444-.421" clip-path="url(#p3c27e89425)" style="fill:none;stroke:#000"/><path d="m452.889 352.809.375-.108 1.11-.23 1.062-.191 1.05-.126 1.097-.077h1.521l2.013.026 2.701.075 2.815.016 2.14.056 2.179.055 2.274.068 1.643.045.915.05.666.1.646.156.605.199.656.292.627.366.628.472M478.832 338.31l-.96 4.246-.362 2.036-.111 1.122.03 1.128.174 1.115.514 1.634.737 1.274.207.578.11.6.012.61.153.716.276.684M354.651 354.313l3.007 1.18M352.42 358.689l2.109-4.136.122-.24M382.261 354.506l.454.095M382.261 354.506l-.448 2.069-.052.363.007.432M382.715 354.6l-.34 1.515M343.882 354.916l2.552 1.186M341.08 360.738l2.627-5.457.175-.365M357.658 355.493l4.41 1.731M355.368 359.91l.078-.149 2.043-3.941.169-.327M346.434 356.102l2.907 1.24M343.749 361.368l2.52-4.943.165-.323M388.269 347.217l-2.204 9.853-.116.181-.158.087h-.2l-2.891-1.101-.325-.122" clip-path="url(#p3c27e89425)" style="fill:none;stroke:#000"/><path d="m381.768 357.37.31-.436.136-.29.16-.53M381.768 357.37l.16 1.673M380.09 359.181l.709-.674.509-.586.46-.551M362.069 357.224l7.013 2.752M359.96 361.775l1.974-4.26.135-.291M349.34 357.343l1.138.51M350.478 357.852l.962.432M350.478 357.852l-.42.82M351.44 358.284l-.694 1.365M352.42 358.689l-.273-.113-.707-.292M352.42 358.689l-.42.823M355.368 359.91l-2.718-1.126-.23-.095M350.058 358.673l.36.827M350.058 358.673l-.987 1.932M380.09 359.181l1.473-.11.365-.028M380.09 359.181l-.8.495M352 359.512l-.99 1.93M352 359.512l-.961.27M350.417 359.5l.329.149M350.427 360.277l-.183-.426.173-.35M350.746 359.649l.293.132M350.746 359.649l-.32.628M374.37 361.96l.503-.44.486-.335.605-.321.653-.254.99-.279 1.1-.365.583-.29M378.491 365.954l.885-2.15.073-.421.008-.426-.167-3.281M350.427 360.277l.427-.134.185-.362M369.082 359.976l5.288 1.983M367.037 364.525l.123-.274 1.922-4.275M355.368 359.91l4.592 1.865M350.427 360.277l-.162.318M350.265 360.595l.746.847M350.265 360.595l-1.194.01M350.265 360.595l-.503.991M349.071 360.605l-.072.141M349 360.746l.762.84M349 360.746l-1.087 2.125M341.08 360.738l-.325-.076M341.08 360.738l2.669.63M340.755 360.662l-1.41 3.879M346.807 362.43l-1.459-.649-1.6-.413M351.01 361.442l-.072.14M350.938 361.583l-1.083 2.168M350.938 361.583l-1.176.003M349.762 361.586l-.45.886M359.96 361.775l-2.114 4.671M367.037 364.525l-3.564-1.385-3.513-1.365M372.28 366.442l1.558-3.478.24-.537.292-.468M378.491 365.954l-.294-.105-1.91-.684-.162-.114-.075-.16.019-.21.645-1.312.038-.187-.04-.162-.164-.13-2.178-.93M346.807 362.43l1.106.441M346.807 362.43l-1.641 3.157M349.312 362.472l.543 1.279M349.312 362.472l-1.4.4M349.312 362.472l-.427.84M347.913 362.871l.972.44M348.885 363.312l.97.439M335.614 363.606l3.514 1.308M335.614 363.606l-.314.614M329.144 361.098l3.79 1.461 2.68 1.047M378.491 365.954l-1.128 2.344M367.037 364.525l5.244 1.917M339.128 364.914l.217-.373M339.128 364.914l-.3.59M339.128 364.914l3.783 1.304 1.64.596M345.166 365.587l-.488.973M346.92 367.526l.395-.827-.017-.111-.128-.12-2.004-.881M372.28 366.442l5.083 1.856M344.55 366.814l.128-.254M344.55 366.814l.397.105.404.08M358.923 367.033l-.814-.444-.263-.143M320.532 372.64l3.309 1.226" clip-path="url(#p3c27e89425)" style="fill:none;stroke:#000"/><path d="m345.351 367 .785.263.784.263M375.11 373.208l.122-.268 2.13-4.642M357.564 368.487l-1.69 2.415M357.564 368.487l4.883 5.066M355.875 370.902l1.239.53M351.46 368.68l.124.398 4.29 1.824M348.802 373.58l1.684-3.933M349.446 374.132l-.273-.182-.202-.226-.169-.143M347.155 373.068l1.347.37.3.143M326.056 360.68l.584.24M362.447 373.553l-5.333-2.12M362.447 373.553l.426.17M362.873 373.724l5.3 2.195M368.174 375.919l-1.59 3.666M374.433 377.414l-.224-.018-6.035-1.477" clip-path="url(#p3c27e89425)" style="fill:none;stroke:#000"/><path d="m379.409 383.131-.454-.86-3.535-4.12-.987-.737M364.165 379.234l-4.675-1.67M359.64 382.286l1.796.498.183-.006.158-.05.15-.163.085-.195.856-2.105.176-.283.225-.252.266-.212.302-.167.328-.117M366.584 379.585l-1.376-.377-.347-.047-.351.009-.345.064M367.581 381.895l-.554-.47-.449-.44-.116-.324-.033-.395.04-.359.115-.322M385.273 396.951l-1.946-4.671-2.887-7.413-.439-.863-.433-.65-.16-.223M386.637 402.702l-.471-2.615-.463-1.721-.43-1.415M303.12 375.58l3.252 1.244 1.541.432 1.984.524 2.582 1.206 2.8 1.689 3.258 2.51 3.013 3.307 2.246 1.87 4.094 2.322.307.265.3.39.291.622.292.655.36.565.396.272 3.585 1.298 2.523.913 3.495 1.095 3.368 1.326 1.616.572 2.897.816 1.954.439 1.077.307 1.116.258 1.526.119 5.135.258 2.59-.349 3.442-.418 4.476-.656 3.51-.453 3.197-.384 3.93-.796 6-.847M394.077 466.159l-1.018-8.147-.692-3.51-.554-3.42-.333-3.351-.185-3.214-.246-7.208-.197-4.005-.198-2.686-.32-2.777-.59-4.006-1.33-8.195-.864-5.76-.349-2.383-.564-4.795" clip-path="url(#p3c27e89425)" style="fill:none;stroke:#000"/><path d="m401.532 402.214-1.422.251-.614-.014-.816-.286-.472-.098-.494.05-1.579.264-.973.084-3.615.146-3.705.238-.696-.014-.509-.133M220.5 472.945l14.423-12.185 8.107-7.125 11.592-10.2M276.672 416.113l-.388 1.702-.616 1.939-.591 1.503-.628 1.24-1.06 1.561-3.049 4.48-4.476 4.812-2.215 2.204-7.5 6.347-1.527 1.534M394.998 472.645l-4.274-.712-17.305-2.998-14.43-2.428-4.177-.627-2.11.083-.719.238-.569.641-1.721 3.236-.494.851-.614.405-.913.278-3.114-.041-1.542.125-1.512.293-.913.112-.943-.196-1.826-.64-1.018-.099-5.494.335-1.617.223-.867.419-.764.725-1.886 3.013-2.575 3.92-.314.488-.434.334-.54.056-.478-.14-5.24-2.3-4.07-1.396-1.424-.293-8.143-3.263-12.38-4.687-11.9-4.715-3.847-1.478-2.05-1.089-5.66-3.152-1.556-.977-.57-.6-1.36-2.399-2.486-3.668-3.952-4.506-2.575-2.58M394.077 466.159l.17 1.721M395.409 466.856l-.644-.23-.322-.168-.366-.3" clip-path="url(#p3c27e89425)" style="fill:none;stroke:#000"/><path d="m363.48 494.96 1.796-6.902.449-1.144.195-.32.355-.23.472-.168.513-.007 4.962 1.59 3.054 1.018 3.353 1.298.778.279.524-.014.374-.195.434-.196 1.602-1.757 8.188-10.058 4.469-5.51M426.089 487.34l-4.461-2.357-4.199-2.532-1.7-1.165-1.907-.816-3.174-.97-3.069-1.352-10.852-4.952-.959-.342-.77-.21" clip-path="url(#p3c27e89425)" style="fill:none;stroke:#000"/><path d="m394.247 467.88.103 1.038.345 2.065.303 1.662M627.996 294.896l.673-.44.315-.244 1.437-.76 1.137-.614 1.31-.691 1.243-.76.868-.544.8-.447.442-.307.165-.363-.15-.495-.584-.488-.928-.768-.463-.327-.884-.726-1.16-.851-.771-.607-1.175-.851-1.115-.92-1.662-1.312-1.661-1.36-1.55-1.159-1.197-.997-.501-.65-.704-1.241-.285-.6-.194-.46-.18-.545-.15-.697-.15-1.186-.134-1.13-.367-2.845M407.184 343.123l-5.388-9.102-3.453-3.25-2.694-2.657-2.941-2.626-3.135-2.948M478.832 338.31l.298-4.127.167-1.611.247-2.323.143-1.395.139-1.575M501.901 334.637l-.883.028-.681-.154-.988-.279-.486-.174-1.318-.3-1.332-.154-.913-.048-1.123.048-1.272.063-1.123-.007-1.1-.007-1.116-.028-.86.063-1.085.077-1.07.084-1.43.055-1.085.077-1.243.098-1.258.02-1.025-.062-.599.14-.195.264-.119.391-.045.81-.105.655-.194.851-.42 1.162M407.184 343.123l7.533 12.737M388.269 347.217l1.227.164.326.601-.113 1.83.357.439.632-.076 4.446-2.011 11.049-4.93.99-.111" clip-path="url(#p3c27e89425)" style="fill:none;stroke:#000"/><path d="m430.286 331.954.13 1.966-.52 1.029-7.333 1.995-14.23 5.867-1.15.312M532.932 362.721l.53.12 2.164.67 1.24.216 1.52.123 1.876.008 2.321-.208 2.215-.377 2.256-.432 1.974-.477 8.077-2.19 3.916-.832 4.594-1.032 4.445-.74 5.635-.892 12.015-2.188 5.25-.87 1.138-.372 1.064-.528 6.462-3.759.756-.362.81-.243.84-.12.85.011.838.138 4.211 1M637.27 359.01l-.525-.754-.793-1.242-.494-.488-1.108-.837-.883-.419-1.288-.153-1.96.041-1.452-.027-1.842-.196-1.75.112-1.303.014-1.153-.098-1.272-.474-1.842-.934-1.557-.907-1.347-.67-1.377-.642-1.661-.712-1.617-.572-.883-.348-1.234-.318M530.425 418.472l-.456-.383-1.916-1.604-3.084-2.54-2.35-1.966-2.89-2.288-2.574-2.134-3.937-3.167-4.341-3.334-2.096-1.73-2.724-2.218-2.35-1.953-2.56-2.12-1.691-1.353-1.697-1.531-1.376-1.842-.72-1.116-.818-1.566-.622-1.534-.673-1.66-.854-2.233-.486-1.109-.509-1.492-.74-1.57-.66-1.786-.299-.879-.337-.885-.546-1.333-.86-2.197-.57-1.367-.561-1.442-.517-1.272-1.025-2.552-.606-1.5-.71-1.82-.822-1.981" clip-path="url(#p3c27e89425)" style="fill:none;stroke:#000"/><path d="m513.84 364.47-.52-.066-.5-.143-.47-.219-1.974-1.178-2.496-1.448-1.198-.608-1.09-.377-1.372-.262-13.163-1.994-4.966-.816-1.826-.224-2.817-.12M318.343 356.788l.561.08M318.594 357.46l-.614.056-.599.077-1.077.258-1.543.489-6.75 2.301-3.735 1.388-1.64.58-.748.18-.838-.048-.809-.154M532.932 362.721l-2.8-.634-2.132-.339-1.992-.074-1.983.19-2.33.546-4.776 1.24-2.04.716-.515.092-.524.013" clip-path="url(#p3c27e89425)" style="fill:none;stroke:#000"/><path d="m516.9 358.214-.231.216-.315.23-.367.203-.426.14-.472.188-.299.293-.21.397-.202.62-.21.74-.194.88-.12.787-.044.851.03.712M427.968 371.799l.269-1.001.265-.656M452.379 418.294l-1.306-3.397-.426-.556-.275-.227-1.193-.693-2.33-.901-1.57-.655-.445-.24-.394-.307-.334-.365-.262-.412-.185-.447-.719-2.964-.108-.59-.299-.532-.213-.226-1.04-.785-.744-.524-.72-.536-.786-.698-.966-.858-.636-.663-.71-.997-.577-1.13-1.849-4.799-.441-1.374-1.489-5.27-1.648-6.162-1.242-3.927-.883-3.146-.472-2.016-.15-1.098M223.355 494.377l.64-1.43.273-1.182.146-.764.165-1.115.374-3.578.546-4.809.105-1.259-.06-.879-.123-.378-.153-.368-.266-.475-.378-.55-3.136-3.515-.988-1.13" clip-path="url(#p3c27e89425)" style="fill:none;stroke:#000"/><path d="m121.13 505.949 4.651 1.707 4.012 1.646 5.074 2.65 6.018 3.306 2.305 1.185 1.512.517.827.15.771.08 1.213-.011 1.1-.06.7-.09 2.163-.523 1.624-.544 3.121-1.27 10.116-4.56 7.586-3.439 5.358-2.531 8.294-3.972 1.934-1.01 1.342-.895 1.084-.762.595-.475 1.897-1.635 8.349-6.985 6.858-5.992 10.02-8.745.846-.746M356.886 381.665l2.754.621M357.002 374.474l-.259.732-.122.353-.075.365-.027.37.367 5.37M353.772 375.018l-.022.355.254 5.065.038.226.074.22.18.132.262.14 2.328.509M359.49 377.563l.15 4.723M357.002 374.474l1.553.59.165.145.156.185.068.119.052.195-.043.187-.048.102-.036.076-.382.73-.031.135.007.111.073.103.954.411M354.49 373.392l-.606 1.27-.112.356" clip-path="url(#p3c27e89425)" style="fill:none;stroke:#000"/><path d="m349.446 374.132.442.15 1.818.6.726.146.79.004.55-.014M354.49 373.392l1.359.516M354.49 373.392l-1.092-.474M357.114 371.432l-1.265 2.476M347.155 373.068l-2.073 5.842M348.458 369.075l-.082.251-1.22 3.742M345.082 378.91l-2.844-.175M349.446 374.132l-1.538 4.373-.117.314-.168.192-.19.07-.3.034-2.05-.205M342.238 378.735l-3.623-.32M345.838 368.14l-.084.246-2.253 6.63-1.263 3.72M328.852 361.726l1.99.806M328.852 361.726l-2.212-.806M328.852 361.726l-3.417 8.346M328.852 361.726l.292-.628M338.829 365.503l3.724 1.507M338.829 365.503l-3.53-1.283M338.829 365.503l-4.263 12.298M355.849 373.908l1.153.566M345.838 368.14l2.62.935M345.838 368.14l-3.285-1.13M342.553 367.01l-3.938 11.404M335.3 364.22l-2.22-.83M335.3 364.22l-5.03 12.109M328.062 375.478l2.208.85M328.062 375.478l-2.185-.858M333.08 363.39l-3.66 8.818-1.358 3.27M333.08 363.39l-2.237-.858M325.877 374.62l4.966-12.088M323.84 373.866l.468.174 1.569.58M323.235 369.298l3.405-8.378M323.235 369.298l2.2.774M323.235 369.298l-1.086-.426M325.435 370.072l-1.594 3.794M329.144 361.098l.168-.293M371.312 324.917l2.257.958M371.312 324.917l-2.313-1.018M371.312 324.917l1.329-2.46M364.82 331.505l4.18-7.606M387.805 328.941l.404.08M380.707 328.585l.99-.317.749-.14.68-.034 4.679.847M350.486 369.647l-2.028-.572M334.566 377.8l2.051.385 1.998.23M330.27 376.329l2.507.907 1.79.565M352.331 338.961l-7.548-3.341M353.394 336.677l-.966 2.077-.097.207M351.205 341.11l.095-.182.905-1.727.126-.24M344.783 335.62l1.205-2.162M344.783 335.62l-1.146 2.065M345.988 333.458l7.406 3.22M343.637 337.685l5.008 2.295M358.682 339.035l-5.288-2.358M356.46 343.44l-5.255-2.33M351.205 341.11l-2.56-1.13M384.458 346.521l1.416.25 2.395.446M440.392 471.166l-.09-1.095-.164-1.625-.39-3.208-.127-1.904-.247-2.267-.142-1.897-.157-1.841-.172-2.183-.262-2.909-.247-2.845-.172-2.134-.217-2.358-.123-1.666-.057-1.145-.052-.872-.021-1.198.148-.545.232-.314.397-.202.508-.196.607-.056 1.909-.32 1.639-.307 1.773-.349 1.969-.39 2.507-.53 2.066-.496 4.094-.788 1.138-.216.666-.293.494-.44.157-.6" clip-path="url(#p3c27e89425)" style="fill:none;stroke:#000"/><path d="m452.379 418.294.655 1.796.651 1.821.599 1.597.726 1.898.591 1.527.786 2.037.62 1.57.667 1.603.315 1.04.067.795M468.235 456.004l-.134-1.046-.24-1.089-.097-.704-.172-.732-.322-.718-.33-.817-.53-1.074-.63-1.046-.763-1.416-.734-1.36-.793-1.493-.771-1.45-.651-1.2-.696-1.304-.749-1.437-.83-1.507-.651-1.276-.442-1.032-.337-.725-.307-.6M623.483 568.65l-1.31.328M510.935 543.119l-4.977-2.887-1.879-.977-2.425-.886-5.815-1.764-3.57-1.123-1.655-.307-1.946-.07-4.955-.3-1.07-.236-.988-.412-1.062-.62-4.514-3.188-1.314-1.126-1.964-1.754-2.313-2.308-3.069-3.41-4.453-5.28-3.723-4.812-2.355-2.831-2.544-3-2.418-2.628-1.063-1.11-1.108-1.06-1.474-1.325-1.444-1.29-1.475-1.283-.988-.712-1.875-1.347M426.089 487.34l2.26.907 4.446 2.239 1.355.725 1.415.711 1.31.586 1.391.62 1.13.496 1.648.774 1.455.675M441.526 485.65l.109.832.12 1.513.18 1.521.119 1.12.172 1.865.112 1.13.161 1.442M281.066 400.952l1.256-4.148.906-2.743.273-.666.385-.616.486-.55.576-.47.649-.377 9.231-4.756 1.725-1.087 1.1-.904.958-1.034.798-1.146 1.455-2.444 2.257-4.43M318.594 357.46l-7.777 8.092-2.193 2.518-2.126 2.711-.92 1.244-.659.837-1.287 1.73-.511.988M215.193 156.585l-1.721 1.602-2.804 2.7-5.246 4.957-4.496 4.28-1.432 1.5-.83.862-.75.88-.77.948-.985 1.246-.654.795-.554.533-.244.137-.292.129-.853.258-2.466.544-2.66.663-3.459.914-.72.337-.533.298-.405.355M182.57 183.077l.24-1.497.177-.582.332-.475" clip-path="url(#p3c27e89425)" style="fill:none;stroke:#000"/><path d="m179.963 178.367 1.474 1.138.532.279 1.35.74M296.638 116.542l-2.905 1.774-3.482 2.217-5.316 3.605-3.577 2.257-3.073 1.755-3.254 1.946-.746.412-.79.36-1.104.258-8.245 1.249-3.491.568-2.387.49-6.396 1.603-4.529 1.385-1.897.698-1.669.753-3.031 1.396-4.222 1.981-5.134 2.434-2.283 1.12-1.763 1.076-1.328.96-1.41 1.088-2.018 1.625-2.096 1.891-1.306 1.298-1.557 1.584-2.436 2.26M199.877 126.529l.278.516.09.208.044.136.023.155-.006.163-.067.18-.12.132-.202.164-.225.124-.992.495-2.398 1.025-.32.182-.369.23-.314.244-.19.23-.08.202-.044.269.014.297.038.212.052.2.106.27.152.302 1.947 3.147 1.391 2.16 1.426 2.159.936 1.493 1.104 1.912 1.328 2.016 2.003 3.24 1.141 2.014.621 1.158.193.337.19.28.366.457.486.447.374.28.884.516.815.383 1.094.377.823.307.613.23.472.21.48.258 1.159.74M329.559 120.813l.213 3.06.116 1.803-.041.2-.04.08-.041.054-.05.03-.077.03-.102.005-.113-.008-.868-.168-4.753-.83-2.762-.37-1.137-.127-.164-.02-.11-.033-.098-.044-.066-.055-.077-.065-.047-.08-.04-.226.001-.332.04-.211.085-.237.635-1.982.04-.243.016-.177-.006-.238-.042-.21-.1-.151-.132-.104-.34-.157-.905-.21-6.205-.889-5.842-.796-3.888-.53-3.877-.474-1.093-.265-1.051-.3M423.596 180.63l8.548-.113 6.87-.056 3.055-.042 5.06-.446 4.131-.503 2.59-.237 2.455-.042 1.767.305M469.502 173.858l2.865.547.36.084.092.104.012.16-.21 1.02-.763 2.846-.255.572-.344.237-.748.084-1.063.265-2.92 1.34-1.047.46-.734-.014-.793-.223-3.099-1.102-2.783-.742" clip-path="url(#p3c27e89425)" style="fill:none;stroke:#000"/><path d="m627.996 294.896-1.396-.2-15.446-1.422-8.631.726-.65-1.21-.129-2.147-.39-.423-1.233-.121-10.513.181-46.856.575-1.07-.151 2.888-6.321-.617-7.622-1.33-16.15-.584-1.845-2.661-2.026-4.868-2.51-2.401-2.269-1.492-2.298-2.077-2.057-2.012-1.24-13.369-5.943-2.239-.801-2.093-.152-5.24.998-1.655-.136-1.67-1.134-3.765-5.278-1.542-1.21-10.691-5.02-8.68-2.511-1.687-.605-1.363-1.059-7.123-10.556-3.894-6.23-.843-1.285-.503-1.18-.877-.741-1.395-.59-1.72-.968-5.207-3.81-2.272-1.59.179-.982.681-1.21.762-.378 3.91-.453 1.071-.44.439-.907.145-2.117 2.185-10.582M411.546 240.3l-.665-19.941-.427-10.337-.315-6.416-.062-1.936-.467-10.616-.437-10.15M423.596 180.63l-.928.012-7.23.28-6.265-.018M469.502 173.858l1.615-1.19 3.75-2.317 1.848-1.081.696-.51.51-.376.119-.056.127-.039.188.014 1.163.538M423.596 180.63l-.15-4.627-.164-3.357-.03-2.1.038-.7.134-.402.233-.223.351-.154.253-.038.286.004.532.09.62.133.384.028h.356l.45-.002.335-.023.46-.066.418-.084 2.403-.725 6.4-2.045 4.4-1.395 3.885-1.242 4.064-1.263.756-.083.397.097.284.14.337.293 2.485 2.002 2.096 1.835 2.23 1.842 2.14 1.758.554.537 1.34 1.277.427.244.397.168 3.458.67 3.347.639M412.01 166.36l-2.822-1.326-1.345-.444M416.493 163.465l.233.712.164.641.107.926.035.296.074.248.087.177.356.46.136.213.042.092.047.128.011.07.004.09-.07.246-.165.445-.544 1.675M412.736 152.947l1.213 2.431 1.085 2.156.658 1.395.289 1.145.348 2.156.164 1.235M402.33 151.36l2.723.435 4.787.674 2.896.478M414.281 134.587l.64 1.674.323 1.04.202.76.082.774.18 2.303.404 3.174.15.908.112.341.157.189.254.21.397.16 1.452.446.27.175.172.167.082.23.015.342-.39 1.507-.19 1.134-.303 2.055-.154.769-.113.312-.127.203-.096.1-.137.076-.211.05-.846-.031-1.838-.269-2.032-.44M415.124 129.04l.022 1.342-.017 1.137-.086.969-.207.874-.367.9-.188.325M415.124 129.04l1.762-.161 1.501-.084 3.01-.035.882-.042.898-.115.97-.152 1.081-.194.63-.209.904-.377.89-.4.64-.254.783-.204 1.381-.314.865-.125.928-.077h1.13l1.158.037 1.147.023 1.012.041.886.115 1.582.265M182.57 183.077l1.157 1.27.711.858.779.782.498.422 1.523.987M385.543 137.577l.11.119.131.079.175.069.281.051M375.156 162.374l1.005-2.453 2.888-7.259 5.906-13.067 1.285-1.7" clip-path="url(#p3c27e89425)" style="fill:none;stroke:#000"/><path d="m360.486 151.15 4.738-1.214 3.225-.774.218-.105.142-.16.08-.179.079-.282.022-.338.11-5.223.047-.727.083-.208.09-.14.117-.099.49-.28.535-.22 5.723-1.427 4.54-1.057 4.818-1.14M199.877 126.529l.519-.172.142-.04.16-.044.213-.075 1.67-.829M199.877 126.529l-.12-.222M195.493 128.4l4.265-2.093M446.006 470.064l-5.614 1.102M449.643 485.603l-8.117.048M440.392 471.166l.143 2.016.082 2.309.232 1.771.142 1.632.15 1.52.112 1.695.097 1.625.113 1.43.063.487M452.379 418.294l.924-.414.801-.3.86-.405.63-.3.314-.146.494-.272.292-.147M510.935 543.119l-.329-.607-.46-.75-.696-.756-.555-.61-.53-.502-.27-.374-.124-.484.011-.492.184-.607.236-.516.21-.464.216-.523.24-.613.235-.694.338-.851.351-.84.24-.65.157-.515.026-.464-.052-.505-.248-.51-.31-.481-.288-.498-.412-.618-.61-.91-.333-.62-.307-.597-.258-.568-.109-.576.03-.467.259-.669.284-.482.337-.408.457-.52.516-.487.55-.401.614-.307.823-.328.868-.327.752-.335.61-.384.58-.467.476-.551.284-.44.423-.56.247-.493.408-.651.37-.555.97-1.308.688-.948.876-.997.79-1.04.666-1.007.498-.656.475-.76.39-.562.418-.48.49-.398.513-.36.61-.372.614-.45.64-.447.614-.488.625-.485.486-.397.464-.36.528-.452.599-.454.61-.481.688-.513.678-.52.868-.948.558-.61.722-.565 1.987-1.447 1.583-1.207.992-.823.961-.659 1.617-1.098 1.497-.795 1.512-.862.767-.526.591-.544.562-.718.452-.698.289-.69" clip-path="url(#p3c27e89425)" style="fill:none;stroke:#000"/><path d="m622.173 568.978-2.59.585-1.183.133-.898-.021-2.762-.37-2.575-.25-2.507-.07-2.724.18-2.912.384-2.38.098-2.125-.154-2.313-.411-3.122-.809-2.133-.44-3.188-.515-2.964-.642-2.118-.537-1.123-.14-1.22.015-2.71.307-5.755.397-2.987.056-2.896.376-2.275.649-3.323 1.22-1.587.39-1.408.084-1.668-.181-1.475-.411-1.07-.753-1.572-1.332-3.323-2.748-3.593-2.985-1.504-1.01-1.864-.936-5.022-2.105-4.431-1.723-5.262-2.176-2.455-1.276-3.069-1.827-8.75-5.328-2.402-1.583M532.932 362.721l-.014-1.09.254-.976.465-1.478.613-1.228.434-1.186.375-1.465M594.035 477.961l-.566.291-.809.356-1.28.565-1.601.586-1.22.46-1.108.426-.943.279-.913.188M411.546 240.3l2.537-.175 2.792-.02 1.841.007 1.932.034 1.706.126 2.103.181 1.894.237 1.19.084 1.781-.007 2.994-.23 1.415-.035 1.272-.021 1.078.014.996-.167 1.885-.551 1.198-.433 3.398-1.11 1.332-.474 1.1-.39.921-.44 1.348-.69.74-.537.704-.475.614-.44.599-.718.494-.656.509-.893.389-.768.329-.655.494-1.117M199.778 528.871l.466-.155.425-.178.53-.255.496-.34.254-.24.222-.254.205-.33.258-.55.303-.738.337-.63.718-1.09.345-.557.335-.71.214-.58.208-.775.102-.566.063-.444.064-.803.08-1.018.097-.78.221-.932.258-.82.177-.492.284-.798.411-.81.49-.83.498-.648.61-.655 1.176-1.172 1.186-1.137 1.95-1.503 3.713-2.617 1.844-1.504.432-.505.372-.496.524-.92.824-1.807.973-2.176 1.912-3.679M268.892 523.264l-1.486-.15-.314-.045-.43-.102-.506-.226-.685-.31-.546-.21-.58-.115-1.497-.307-1.25-.32-.791-.25-.483-.199-.513-.23-.649-.403-.925-.648-2.133-1.339-2.02-1.395-2.994-1.897-1.527-1.13-1.093-.836-.838-.935-.704-.948-.524-.977-.434-1.171-.688-2.567-1.108-3.417-.764-1.995-.643-1.004-.974-1.005-.913-.739-.613-.376-5.823-1.242-11.089-2.399M349.453 591.164l-2.951-1.253-2.012-.574-3.732.271-3.082-1.24-4.478-3.688-2.628-3.143-2.077-.605-2.141.967-2.304 2.993-4.219 1.573-8.112 1.42-21.189 4.505-5.354 1.632-5.581.544-13.174 2.298-2.207.242-10.773-1.935-2.173-1.904-6.555-12.154-2.531-4.293-3.148-4.535-9.28-9.705-2.466-1.723-4.478-6.863-2.434-1.784-4.088-3.96-8.112-4.929-2.758-1.995-2.11-2.812-2.758-6.772-.77-2.87M530.425 418.472l1.086-.69 1.362-.586 1.541-.404 1.992-.573 2.05-.418 2.261-.516 2.14-.307 2.156-.335 2.08-.181 2.186.014 1.587.042 1.527.265 1.976.516 1.916.614 1.886.67M452.889 352.809l-4.144-9.941-1.287-3.237-1.258-3.474-.404-1.325" clip-path="url(#p3c27e89425)" style="fill:none;stroke:#000"/><path d="m363.48 494.96-1.587 6.098-1.531 5.531-.928 3.034-2.182 7.364-1.422 5.548-.719 2.981-.67 2.082-1.11 4.188-3.855 13.557-1.58 5.698-.679 2.29-1.053 3.86-.98 3.418-.663 2.284-.382 1.408-.127.607-.049.569.09.638.146.505.199.453.34.46 2.212 2.581.4.474.199.379.156.395.117.426.086 1.087.217 3.739.348 3.487 1.044 8.503.178 1.226.04.378-.015.237-.042.224-.079.23-.146.265M390.38 599.41l-3.84-.683-1.44-.262-.922-.24-1.683-.492-.82-.185-2.934-.467-1.684-.328-1.325-.3-2.32-.635-1.22-.289-2.624-.397-1.13-.182-.902-.156-.936-.259-2.222-.767-2.276-.627-1.92-.54-1.462-.5-1.573-.599-1.018-.32-1.376-.308-1.28-.132-1.385-.014-.92.09-1.715.346M390.38 599.41l-.251 1.248-.038.146-.077.174-.083.14-.195.166-.084.054-.132.065-.183.055-.44.037h-1.75l-.525.031-.366.066-.307.103-.277.149-.674.439-.57.516-.298.377-.195.432-.067.46.011.368.026.371-.007.217-.041.117-.05.081-.106.082-.207.054-.494.112-.472.09-.718.077-1.744.084M423.649 599.2l1.789-.194 2.522-.192 2.011-.03 1.07.071.803.098 1.176.23 1.586.415 4.577 1.562 4.884 1.757 1.826.614 3.616 1.189 7.402 2.158 5.411 1.695 2.579.812 4.547 1.273M474.058 589.982l-.79.603-.594.554-.58.74-.768 1.401-.617 1.081-.337.914-.12.85-.217 1.786-.258 2.13-.164 1.987-.08 2.396-.007 2.548-.048 2.682-.03 1.004M390.38 599.41l3.61.718 1.859.3 2.876.418 1.493.115 2.13.08 1.466.011h1.003l1.569-.09 1.347-.098 3.184-.262 3.63-.355 4.588-.523 4.514-.524M363.48 494.96l-2.74-.68-3.001-.81-4.626-1.339-1.336-.418-1.768-.68-.338-.084-.454-.016-.41.056-.352.136-.296.197-.227.264-.2.35-.494 1.098-.921 2.64-.868 2.42-.607 1.646-.733 1.807-.845 2.573-1.767 5.203-.266.723-.988 2.687-1.162 3.393-.121.22-.191.226-.168.164-.135.112-.15.084-.17.043-.173.009-.25-.06-.26-.076-3.503-1.925-1.445-.746-3.577-2.009-2.612-1.68M426.089 487.34l-1.078 2.35-3.151 8.467-1.55 4.261-1.608 4.366-1.617 4.63-1.34 3.795-1.28 3.347-1.235 3.282-2.286 6.646-.786 1.97-1.317 2.943-.723 1.457-1.547 2.49-.1.217-.104.418v.474l.194.963 1.901 8.16 1.977 8.465 1.466 5.858M100.73 328.28l.11-.512.335-1.579.221-1.548-.03-1.73-.082-4.311.164-1.263.3-1.154.509-1.145 1.055-1.328 8.12-6.656 2.097-1.876.473-.469.941-.933 4.809-3.659.572-.527.386-.477.85-1.239.823-1.367.584-1.2.86-2.058 1.265-3.104 1.797-4.437 1.871-5.637 1.078-3.613 1.617-4.94 1.451-4.353.075-.488-.104-.502-.315-.475-3.503-3.167-6.601-6-.704-.662-.307-.21-.21-.16-.231-.3-.068-.425.637-7.856.134-1.004.599-1.382 1.602-2.497 2.425-3.544.329-.502.24-.768.928-4.353.135-.628.808-1.563 1.019-1.43.283-.398.404-.544.54-.349.688-.153 2.5-.349 1.422-.293 2.5-.795 3.368-1.73 3.495-2.205 1.153-.754M119.718 329.722l-.643.743-.644.719-1.666 2.089-3.113 3.502-.122.075-.106.035-.122.005-.298-.105-2.85-1.681M100.73 328.28l5.044-.737 2.703-.259 1.227-.062 1.242.097 1.452.21 1.774.306 1.954.51 2.144.711 1.448.666M277.024 414.574l-.352 1.54M281.066 400.952l-1.949 6.16-1.654 5.502-.439 1.96" clip-path="url(#p3c27e89425)" style="fill:none;stroke:#000"/><path d="m257.511 398.433 1.542 1.13 1.505 1.305 4.259 3.55 3.33 2.937 5.689 4.645 3.188 2.574M369.632 314.617l-2.567-1.27M369.632 314.617l2.828-5.034M367.065 313.347l-2.44-.65M367.065 313.347l2.738-5.02M344.678 366.56l-1.635-.628-3.698-1.391M345.351 367l-.351-.248-.322-.192M339.345 364.54l-2.451-.885-3.72-1.375-3.862-1.475M329.312 360.805l-.669-.27M328.643 360.536l-6.696-2.573-3.043-1.095M395.409 466.856l4.753-.488 11.018-1.472 1.107-.083.352-.09.292-.266.561-.307 3.174-.46 2.2-.056.988.056.554.25.18.294.074.46.18 6.765M394.247 467.88l.421-.494.382-.314.359-.216M407.715 166.806l-1.917.329-1.467.502-1.706 1.089-7.006 4.548-3.024 1.703-2.02 1.507-4.492 4.102-5.973 5.75-1.242 1.241-1.751 2.428-1.977 1.842-2.2 1.898-4.176 4.033-5.688 5.539-3.07 2.916-.388.67-.18.865-.045.795-.254 6.028-.195 3.307-.09.88-.187.418-.532.76-.523.53-.434.21-.6-.028-1.316-.356-2.096-1.033-1.842-1.29M266.56 276.918l.838 1.319M271.245 312.67l.113-10.066v-11.608l-.045-5.134-.15-.83-.307-.984-.405-.894-.208-.46-.666-1.192-1.04-1.403-.48-.76-.659-1.102M263.903 266.105l.27 3.014.449 1.87 1.047 1.925 1.917 4.688-.188.635M271.245 312.67l-.036 3.327-.15 6.167.434 4.227.449 1.66.868 2.094 1.153 1.938 1.302 1.647" clip-path="url(#p3c27e89425)" style="fill:none;stroke:#000"/><path d="m271.245 312.67 2.606-.88 1.407-.327.823-.341.554-.377.479-.446 2.253-3.58 2.35-3.738 1.833-2.93 1.333-1.66.83-1.633.45-1.953.164-.489.083-.09.194.007.21.118.457.384 7.095 6.32 6.9 6.543 2.666 2.26.269.6-.09.656-.374.46-.734.378-2.066.376-2.215.782-2.59 1.562-3.697 2.441-1.677 1.438-2.754 2.888-8.114 7.617-4.625 4.674M296.866 458.09l.666-3.467.06-.614-.075-.495-.3-.579-2.806-4.31-3.398-5.315-.943-1.995-.853-2.58-.285-1.075-.045-.823.18-2.776.12-2.12-.225-.684-.569-.683-3.981-4.77-4.446-5.734-2.38-2.902-.914-1.055M309.23 449.357l-.486-1.43-1.018-3.927-.748-3.452-1.243-4.855-.097-.275-.13-.115-.23-.024-2.39.498-.648.147-.21.01-.142-.024-.146-.115-1.516-2.501-2.934-5.217-3.023-5.092-5.681-9.416-4.132-6.905-3.39-5.712M369.803 308.326l2.657 1.257M374.901 310.738l2.92 1.381M374.901 310.738l-2.441-1.155M375.156 162.374l27.092-.145h2.885l1.227.448 1.355 4.129" clip-path="url(#p3c27e89425)" style="fill:none;stroke:#000"/></g><g id="PatchCollection_1"><path d="m479.209 339.2 5.068.324.096.105.044.244v.195l.148.162.33.024.323-.09.392-.153.252-.154.297-.325.234-.447.218-.568.836.082.096.73.192.422.33.47.28.041.034.195.21.106.217-.065.087-.049.575.13.235-.024-.026-.146.183-.098.191-.016.393.097.191.024-.096-.34.122-.065.445.016 1.27.511.68.601.932.39.95.17.487.008.557.04.453.171.314.374.41.308.678.219.427.057.305-.073.148.008.009.235.226.276.41.065.252.187v.381l-.174.114-.044.26.2.203-.017.325-.174.284-.348.292-.418.113-.436.228-.322-.017-.27.017-.296.162-.28-.065-.234.073-.583-.049-1.098.065h-.95l-2.063.04-.932-.056-1.497-.11-1.229-.264-.915.009-.365-.098-1.106-.072-1.342-.163-1.019.016-.592-.057-.575-.13-.226-.138-.14-.243-.13-.178-.14-.017-.113.04-.087.13.018.26-.07.17-.235.123-.357.073-.714.089-.427-.016-.383.057-.705.138-.68-.106-.157-.098-.218-.024.08-.267.12-.13.088-.3-.017-.26.096-.35.217-1.014.305-1.526zM279.072 346.882l-.025-.15.283-.183-.098-.195-.284-.069-.049-.138.11-.08.752-.023.714-.24h.32l.555.217 2.5 1.114.751.63 1.195.322.505-.057.443-.207.345-.344.9-1.39.443-.997.185-.127.726.138.542.218.185-.046.308-.333.431-1.01-.111-.413.123-.333-.11-.264-.21-.138-.074-.31-.209-.252-.16-.287.148-.31.69-.505.27-.276.444-.78.185-.127.307-.057.222-.16.234-.276.21-.379.418-.551.172-.677.136-.218.21-.196.074-.32.209-.242.332-.183.456-.391.283-.333-.049-.436.135-.126h.21l.431-.356.222-.034.628.217.283-.068.345-.219.505-.619.985-1.378-.468.907-.406.689-.468.574-.259.16-.542.46-.259-.012-.357-.172-.234-.046-.147.138-.111.218-.173.15-.012.275-.9.964-.32.54-.061.263.074.184.222.057.172.138-.123.46.024.229-.049.206-.32.219-.382.688v.712l-.086.241-.554.723-.185.436-.098.873-.124.23-.64.504-.69.38-.123.16-.64 1.136.049.219.59.287.26.332.197.414.061.585v.528l.062.54-.062.401-.542 1.412-.357 1.377-.271 1.7-.32 1.044-.123.184-.271.138-.874.332-1.06.23-1.823.344-.837.23-.69.287-1.183.115-.147.14-.234.06-.06-.234-.236-.196-.135-.333-.185-2.881v-.77l-.899-1.928-.653-1.033-.985-1.262zM307.986 319.155l3.967 2.146.59.23.407.057.357-.057.234-.218.32-1.309-.024-.448-.246-.206.012-.356.418-1.492.481-.896v-.55l.37-.976.147-.7.358-.873 1.046-1.952.628-1.641.32-.333.235-.103.394-.85.27-.068.161-.127.135-.459.234-.46.48-.47.469-.206.574-.403.468-.975.345-.38.16-.343.21-.046.234-.345.48-.551.394-.413.395-.734.381-.598.05-.505.196-.758h-.418l-.074-.332.234-.367.172-.471.037-.31.579-.322.037-.493.332-.253.136-.08.222.183.184-.194.05-.253-.21-.195.074-.265.21-.137.037-.23-.05-.264.259-.24h.332l.37-.437.542-.677.677-.643.32-.08.025-.195-.566-.368-.21.23-.172.378.012.265-.222.183-.197.39-.43.483-.173.287-.36.174-.21.183-.109.19-.048.305-.134.094-.173.012-.172-.08-.209.13-.2.251-.384.26-.348.064-.322.26-.174.26-.436.503-.68.95-.774.942-.636.811-.68.893-.112.398-.227.43-.514.374-.34.227-1.197 1.413-1.45 1.769-1.132 1.355-.375.284-.4.204-.67.803.008.455-.105.259-.348.528-.305.357-.27.39-.06.405-.158.56-.26.585-.402.544-.487.6-.174.65-.192.479-.296.203-.2.048-.627 1.137-.01.56-.269.47-.392.447-.47.284-.27.203zM382.444 396.75l.536-.068.498-.012.235-.034.197-.155.098-.195-.043-.465-.37-.798-.209-.298-.227-.184-.179-.063h-.222l-.21.08-.233.321-.179.357-.086.39-.056.568.007.27.068.206.172.098zM252.233 306.05l1.855-2.37 1.742-2.525-.265-.184-.295-.14-.315-.092-.328-.04-.33.01-.732.065-.95.243-1.097.025-1.184.495-.923.527-.07.512.157.43.418.503.653.666.261.511.323.512.235.349-.018.357.166.268.279.09.244-.05zM343.127 217.882l1.698-.511 1.925-.78.111-.127.063-.153.006-.163-.05-.157-1.184-1.575-.296-.074-.14-.121-.043-.268-.235-.195-.645-.65-.548-.121-.148-.203.008-.211-.174-.22-.409-.08-.488.008-.409.08-.897.496-.087.146.017.268.453 1.632.505 1.445.096.576-.061.48.061.308.218.138.383.081zM230.638 402.46l2.783-1.92.662-.51.34-.195.348-.09.14.025.026-.081-.027-.3-.14-.26-.33-.13-.68-.163-1.28-.398-.966-.51-1.08-.894-.566-.608-.227-.155-.653-.105-.549-.487-.766-.803-.533-.893-.993-1.85.75 1.964.417.99.697.812.923.86.54.747.488 1.169.296.876-.035.746-.226 1.823.043.281.166.2.203.006zM221.076 389.56l1.896-.792 2.64-1.315.131-.115.086-.147.033-.165-.024-.165-.033-.078-2.315-2.101-.604-.597-1.145-.493-2.377-2.239-1.306-1.653-2.352-3.34-.173-.574-.271-.562-.517-.712.419.942.061.402-.037.367.358.918.369 1.32.246.643.456.7.813 1.607.098.585.469 1.228.517 1.045.53 1.125.11.356.012.597.42 2.042.277.996.138.173.19.121.224.056.23-.015zM337.428 133.934l1.227 2.565.288.74-.035.235.113.35-.165.226-.488.179-.479.049-.105-.049-.008-.187-.218-.08-.14.088-.304-.105-.113-.179-.34-.065-.183.016-.157-.072-.07-.106-.33.049-.227-.025-.261-.235-.209-.292-.226-.407-.044-.259-.148-.276-.079-.187.01-.244.234-.446.645-.771.139-.35.175-.186.313-.155-.035-.25.053-.27.174-.105.278-.073.366.05zM524.23 342.168l-.07 1.048.104 1.185.593 3.027.174.227.252.098.47.016 2.317-.162 3.11-.82 1.898-.398 1.202-.398 1.088-.511.828-.576.357-.528.174-.43.052-.495-.2-.365-.14-.333.149-.398-.114-.292-.26-.17-.175-.228.07-.284.209-.422-.166-.154-.33.016-.349.252-.253.203-.427.056-.295-.195-.61.017-.74.251-.706-.04-1.123.17-2.726.374-1.463.146-.706-.016-.522.089-.28-.065-.974.049zM255.303 269.592l3.632-1.104.183.016.148-.065.07-.146-.027-.381-.513-.958.07-.155-.149-.38-.644-.22-.444-.236-.21-.186-.086-.236-.01-.43-.339-.114-.209-.641-.34-.065-.243-.114-.087-.121-.13.008-.036.113.218.707.113.073v.203l-.122.243-.192.138-.235.025-.322.503-.2.446-.017.284-.105.309-.174.22-.122.088-.07.22.183.552-.035.349-.034.243-.105.033-.052.138-.035.275-.009.244.165.154.314.049zM509.214 346.575l.326-.063.425-.207.382-.137.32-.023.185.092.21-.046.221-.224.326-.287.247-.304.123-.34.234-.223.259-.149.264-.028.185-.058-.086-.178-.123-.184-.234-.097-.08-.144.117-.115.326-.068.32-.035.222-.04-.314-.126-.339-.058-.332-.086-.191-.074-.056-.322.056-.235-.105-.207-.277-.046-.16.086-.167.173-.4-.006-.363-.127-.197-.137-.406-.006-.376.07-.314-.076-.228-.183-.37.046-.412-.075-.283.029-.475.126-.424.086-.376.006-.376.051-.406-.068-.936-.063-.407-.167-.505-.052-.499-.068-.258.005-.265 1.923-.283 2.652.006.424.08.19.154.143.246.057 2.562-.344 1.965-.47zM439.45 416.98l-.008-.35.012-.436.199-.436.07-.304.28-.25.094-.24-.175-.12-.456-.044-.538.066-.443.108-.187.11-.012.25.304.272.327.5.222.621.07.25.13.073zM631.822 335.683l-4.19 8.776-.11.351.05.239.352.17.84.159 4.459.307 1.194.034.487-.068.476-.205.767-.011.706-.057.33-.17.072-.273-.11-.291 2.29.45-2.66-1.165.275-.056.508.169.207.04.077-.29-.009-.288-.284-.2.026-.202.103-.096-.094-.313-.5-.482-.698-1.043-.568-.682-.706-.579-.724-.947-.75-1.02-.8-.826-.345-.626-.276-.715-.154-.233-.173.073zM479.248 524.434l-1.902 3.153-.047 2.184.945 1.1 2.775.33 1.594-2.476 3.72-1.87 2.363-.991-.532-1.87-4.96 1.264-2.775-.385zM584.93 486.353l1.983-1.092 3.13.504.155.576-.117.72-1.854.54-2.664 1.368zM598.356 595.61l-2.028 1.599-.468.63 3.9.726 1.145-.097-.416-1.308-.937-1.26z" clip-path="url(#p3c27e89425)" style="fill:#00f;fill-opacity:.8"/></g><g id="PatchCollection_2"><path d="m183.38 407.319 11.948 11.005 9.44-12.71.35-.633.243-.876.587-3.348-.203.167-.485.223-.537.057-.526-.115-.453-.274-.21-.46-.356-1.101-.136-1.09-.31-1.077-.232-.391-.346-.31-.43-.197-4.766-.758-3.424-.171h-1.602l-.627-.127-.95-.057-.491.128-.431.256-.333.362-.924 1.515-2.673 5.417zM277.451 264.898l5.722 4.076-1.08 1.306-5.164-4.61zM289.283 377.54l7.193-2.29 1.742 3.994.226 1.85.54 1.331-.94 1.324-1.149 1.173-1.328.996-1.477.793zM70.088 323.591l5.294-5.375 7.032 1.325.869-3.608 7.031.221 4.978.442 2.37 1.178 2.529 2.43.553 2.799-.396 4.565-27.1 2.65-1.58-1.988-1.422-3.166zM103.825 293.916l-3.634 7.731-1.58 3.83 4.74 2.21 1.739-.738 2.053.295 1.502 1.473 5.357-4.008-.301-2.104-.553-2.651-.87-.81-1.737-.884-2.212-.81-.79.368-1.027-.073zM104.862 214.982l-2.138-.68-.625-1.166-2.033-.875-1.199-.097-.834 1.118-.365 1.165-1.25.244-3.128-.972-.939-.389-1.25.049-.783.631-2.032 5.102.104.777 4.326 1.75 1.929.825.313.875-.73 1.166-1.929 5.296 5.89 1.7zM226.881 542.496l2.252-2.834 3.437.184 1.382-.147 1.106-1.694 1.146-1.214.83.074 1.58 1.325 2.291 2.797 3.476 4.565.119.515-.395.552-9.916 11.926-1.659-.332-2.173-.7h-2.489l-.355-.257.355-2.061v-1.657l-.592-1.693-.514-2.098-1.066-3.607-.356-1.656.356-1.252zM189.801 522.224l-.31-1.474.723-.801.31-.705.206-.962-.31-1.025 1.479-.32 1.17-.673.412.609 1.307.896 1.41.353 1.1-.128.723-.77 1.753.193 1.858.385.86-1.667 2.854-4.005 2.476-3.012 1.96 2.243-1.204 1.41-.79 1.25-.241.672 1.066.224 2.58 1.539 2.166.865 2.166 1.25 2.717.993 2.339 1.218 3.439 1.826 3.301 1.506 2.27 1.282 2.717 1.25 1.96.673-.206 1.185-1.1 1.218-1.892-.288-1.547-1.154-.964.16-.825.48-3.37-1.794-4.334-2.243-3.68-1.089-1.615-.384-1.72-1.058-4.987-2.147-1.788-.32-1.341.096-.826 2.531-.79 1.698-.757 1.763-.894 1.378-1.101.705-3.68 1.025zM176.181 546.571l.42-2.008.478-1.897 2.935.78 1.975-.557 14.37 13.501-1.257.893 1.138 2.51 1.497 3.515.898 3.18 1.258 2.845 2.575 2.734 2.814 2.064 1.317 1.897-.958 1.116-1.916.614-1.976-1.395-1.736-.446-1.677-.893-1.497-2.064-1.677-3.738-.778-1.897-.3-2.287-.358-1.451-.839-1.562-.778-1.785-2.335-3.515-2.216-2.343-1.557-1.841-1.377-1.45-2.216-1.451-3.113-1.842zM779.152 257.725l-10.625-3.708-8.503-3.348-9.52-3.907-4.551-1.451.718-1.508 23.293-3.348-4.491-18.474-1.617-4.855-2.515-9.88-1.617-7.59-1.556-2.847-3.174-11.888-1.197-4.912-1.258-2.958-2.036-.95-5.389.727-2.455 1.227-2.335 2.568-4.072 4.744-1.317 2.066-.12 5.469-.12 2.791-1.017 3.963-2.874 6.586-1.497 4.074-.659.95-4.85.167-1.018-1.117-1.677.837-3.712-1.116-6.467-2.4-3.891-3.181-2.276-1.954-1.593-1.873-15.327-6.48-1.822-.13-4.011-1.898-4.072-1.786-3.892-1.284-4.191-1.842-5.988-2.902-4.371-2.177-3.174-1.117-3.233-1.172-2.455.391-1.617.614-3.114-.502-4.131-1.117-2.994-1.45.12-3.406-.24-3.013-2.814-1.73-2.395.725-3.593.279-2.275-.056-3.054-1.284-2.515-1.897-2.514-3.405-.417-2.237.06-4.074.195-1.324-7.563-4.422-2.994.168-2.035-.447-3.653 1.396-3.473 1.283-2.096.168-1.856-.67-2.155-2.456-16.466 6.14-2.276 4.074-2.395 3.963-1.976 3.126 4.311 2.4 2.336-.223 6.406 1.396 2.994 1.004.839 2.959 11.316.893-.958-1.954.24-1.395 1.736-3.015 1.257-2.846.899-2.233 2.035-2.177 1.617-.893 1.976.838.719 1.004 4.072 3.35 1.556 2.455 1.437 3.74 1.677 4.019 1.617 3.907-.18 2.232.658 4.577-.718 1.172-4.072 4.298-.718 5.302.24 1.34 10.957 2.344 1.856.614.659-4.8 1.617.949 1.437 2.735 2.275 3.125 1.258 2.847 1.257 1.34 3.472.67 1.617.39 3.054 1.172 6.527-6.14 4.012-3.293 2.634-5.749.958-2.623 2.754.447 1.977 1.34.479 1.395-.12 2.12-.839 1.731 6.707 2.511 2.155-2.344 2.096-.893 2.874.559 1.677 1.283 2.455 1.34 1.796.948 4.371.391 2.934.28 3.533 1.283 3.413 1.842 4.191 2.679 1.976.949.36.781 2.335.223 3.413 1.842-3.593 8.149 2.455 1.395 2.515 1.284 2.216 1.395 1.018.67 4.31-1.842 4.97-3.795 2.036-1.451 1.916-.558 1.677 1.004.659 1.842.06 2.232-.06 2.065-.36 2.066.24 1.34.479 2.567 1.257 2.902 1.497 3.795.719 3.348.479 3.07.18 4.912-.3 1.227 4.191.838 1.078.67 1.258 2.901-.42 2.344-2.455.224.659 5.246 3.533-.335 2.694-.558 3.952.446 4.67.391 5.09 1.005.899 2.288 2.036 3.014.03 2.26 9.618-7.264zM503.779 666.457l2.704 3.384-2.139 2.164 2.54 4.072 2.884-.585 3.516-1.403 1.507 1.151-.619 8.001-12.972-4.767-8.2-2.117-2.258-1.942-8.767-2.58-2.46-1.767-.41-3.772-5.999-6.162-8.869-11.367-5.23-10.316-2.46-7.022.461-3.439-4.152-12.226-1.59-7.165-.256-3.964.103-3.392-1.795-3.534-7.638-5.78-5.998-4.394-6.255-6.257-3.794-1.003-2.768-2.675 7.769-2.176 3.384 4.777 6.357 6.544 1.589 1.337 3.691 2.77 4.255 2.627 2.205 1.768 2.666 3.39 1.538 6.975-.565 2.34.848 5.23 2.01 3.96 1.313 8.1 1.893 3.456 2.125 5.76 2.125 8.207 4.907 6.263 3.284 5.76 7.303 6.334.425 1.908 1.584 2.34 4.212 3.203 7.07 2.844 2.666-.576 3.44-2.591zM573.647 583.97l6.435-.736 1.063-.056-.76 14.662h-5.642zM364.816 579.8l-1.156 1.965 2.04 1.458 5.578.633 4.762.444 4.694 1.014 5.033 1.458 4.082.506 3.673-1.457 5.85-2.852 5.646-3.486-.749-1.268-7.142 4.057-3.605 1.014-1.429 2.091-4.081 1.014-6.87-2.282-1.089-2.281 3.538-.57 2.108-1.204-.272-2.599-3.81-1.71-4.352-.445-1.7 2.345-.273 3.676-4.218 1.14-5.373-2.027z" clip-path="url(#p3c27e89425)" style="fill:#006400;fill-opacity:.8"/><path d="m365.769 588.419 12.652.634 11.564 2.091 3.877-1.267 2.789-2.915 10.34-4.183.53.571-7.264 2.227-2.923 1.91-.41 2.054 1.641 3.582 4.204 7.022-2-.144-4.716-3.964-4.05-1.72-6.05-2.388-4.306-.143-4.306-1.433-5.23-1.48-3.947.429-1.18 1.29-.05 2.149-2.458-1.343zM442.373 567.14l-4.584 2.612-3.823 3.14 4.05 5.971 5.281-1.241 2-2.437-.564-2.722 3.331-2.34-.439-3.025zM447.625 567.098l.44 3.024 1.799.935-.503-2.922 3.605-.664 3.516.664 3.316.43-.94-1.679-1.725-2.409-.868-1.477-.754-1.204 1.156-2.789 6.394-9 3.537-4.817 3.333 2.79 3.945-1.776 4.014-2.535 4.693-6.211 2.51-1.569-4.577-1.55-6.187 1.575-6.631 5.018-5.03 5.266-7.52 8.584.4 2.82-2.003 4.644 1.736 2.613-4.451.373-2.954.746z" clip-path="url(#p3c27e89425)" style="fill:#006400;fill-opacity:.8"/><path d="m458.936 558.2 2.507-3.433 4.153-3.43 4.085.96-9.126 8.86zM484.994 566.155l3.246-.29 10.657-4.235 3.526 1.241 2.272 2.482 1.489-.949 1.018.22.313 1.24 3.996-1.314 4.31-.073 1.097 1.241-9.167 2.19-.706 1.023.444.661-13.861 14.622 3.207 1.183 4.316.123.922.948 3.7-2.846 6.757-6.515 2.742 3.87 5.407 1.167 1.88 2.117.47 1.68-4.074.803-3.29-4.088-1.49.291-2.193 2.41-5.798 2.117-2.194 2.773-.79 4.533-1.64 1.05-.256 1.481 4.204 1.815 6.049 3.296 5.844 4.776-.256 2.15-11.791-7.213-3.985.39-6.319-3.467-4.251-4.897-1.24-.33 4.31 12.71h-1.417l-1.3-2.861-3.779-3.521-3.54-.99.056-2.697-3.07-1.595.03-2.438 3.383-3.344-2.717-3.439-6.13-3.324 2.748-3.035 6.581-2.336zM361.56 590.65l-.945 3.027-3.07.825 1.24 6.657 7.499 13.15-3.484 1.32-1.89 1.045.178.716 2.42-.055 2.067 1.155 1.595 2.2.472 2.036-1.948.99-2.658.55.473.991 5.02-1.816 4.192-.495 2.776 8.913 3.306 2.531 7.382 8.417 2.244 5.557.59 4.621 4.016 4.347 3.425 5.116 4.783 3.576 5.316 5.831 2.772-1.214-3.179-4.967-6.613-4.06-2.05-3.534-4-3.486-2.358-2.913-1.538-8.024-3.332-5.015-4.46-3.44-2.461-4.393-1.128-5.636 2.666-2.818-2-2.818-1.492-1.047-1.535 1.32-.945-4.18-2.894-4.457-4.9-6.218-3.722-6.327-.295-3.796z" clip-path="url(#p3c27e89425)" style="fill:#006400;fill-opacity:.8"/><path d="m364.476 591.398 2.694 7.065 3.957 5.997 1.535 2.917 1.358 3.796 3.366 7.317 1.493 1.047-2.051-5.063-1.948-3.63 1.435-3.917-.717-2.054-3.18-1.576-2.46-3.535-.77-1.624-2.254-5.397zM415.07 574.346l-1.08-1.988-1.366-1.555-1.239-1.084-2.35-.26-1.846 1.108-.051 1.696 1.138 2.238.884 1.036 2.478.212.23.098zM415.388 573.35l2.514-1.933 4.659-2.252 3.29-1.059 1.224-1.084 1.602.949 3.115-.895 1.835-1.302 2.038-1.845 1.456-2.578.117-3.229-.291-1.682 1.95-1.357 3.233-1.22 6.436-3.718 5.357-3.147 1.485-1.167-2.067-5.263-1.31-2.144-.38-3.772-.494-2.089-1.495-3.123-1.063-3.026-.06-2.916-.117-2.861-.886-2.971-1.063-2.477-1.535-2.366-.473-2.531 1.181-1.98 2.067.164 1.595 1.596.531 1.376.118 1.925v2.201l.59 3.192 2.186 4.677.413 1.815.059 1.761.65 3.467.768 2.036.59 2.806 2.303 4.072 1.713 1.54 1.653-.385 2.893-1.43 2.48-1.926 3.13-2.751 2.54-2.201 3.189-3.357.59-4.952.355-3.851-4.252-5.283-2.54-5.337-2.007-3.302.295-4.127 1.122-4.127-.59-1.045-1.89-2.916.177-2.477 2.008-.88 2.952.44.65 1.486.354 3.081-.118 1.981-.531 3.027 1.358 4.622 1.595 3.246 2.598 4.897 1.948 4.457 1.123 3.522-1.063 3.082-2.953 4.896-2.776 3.577-6.436 5.667-5.67 4.567-1.417 2.752-1.53 5.101-3.319 3.788-3.071 2.861-1.024.291-3.96 2.405-4.273 1.659-1.47-1.161-1.334-1.991-1.602-.373-.98 4.934-1.29 2.364-6.41 2.571-8.144 3.484-5.673 2.16z" clip-path="url(#p3c27e89425)" style="fill:#006400;fill-opacity:.8"/><path d="m480.31 521.352 1.123 1.706 4.015-.496 3.839-.77-.827 1.651-.296.55-4.96 1.265-2.775-.385-1.181-.44zM494.932 521.777l1.086-3.231.06-2.916-.177-6.383-.355-6.603-.885-4.678-.473-4.677 2.953-6.328 1.653-3.136 1.122-2.532 1.712-1.87h1.95l.472 1.98-.06 1.706-1.712 1.541-2.007 6.273.413 2.09-.177 5.338.118 4.678-.65 4.512-.354 6.603 2.007 3.356 4.017 1.651 2.361.88-1.535 1.1-3.898-.274-3.07.99-2.48-.385z" clip-path="url(#p3c27e89425)" style="fill:#006400;fill-opacity:.8"/><path d="m508.006 520.031 3.722.121 1.409-1.28 1.107-.97 1.308-.25.436 1.438 3.086-.969 3.455-1.626 1.274-.937 4.227-2.032 2.784-2.844 2.08-1.813 3.387-2.25 4.63-2.813 4.796-4.344 3.086-2.563 1.14-1.282-.167 3.344 3.488-.187 2.046-2.157 2.416-5.22 1.375-5.532.94-2.281 7.78-4.908 18.114-10.315.906-.062-3.93 3.01-5.831 3.648-2.248 1.719 1.376.5 2.817-.656 2.147-.844.537 1.125 1.04.375 1.476-.594 1.308.313 1.073 2 .336.844-3.657-.563-1.576.5h-2.046l-.135.75 3.288 1.032 1.677 1.157-.134 1.344-2.248.75-3.187.594-2.783-.344-.806 1.125-2.314.219.335-1.125 1.711-.688.839-1.031-.839-1.657-.738-.72-.067 1.439-.57-.5-.1-2.282-.94-1.563-5.937 3.282-6.406 4.5-1.108 3.846-.335 4.125-.838 2.75-.604 1.157.738.844-3.187 1.25-2.08 2.75-3.924 3.127-2.248 1.375-1.744 2.719 2.986 2.781 1.04.907.77 1.719 1.678.906.671.187.536 4.814-3.152-1.438-2.281-2.094-1.476-.844-1.242-2.594-4.058-2.5-2.65.156-7.178 4.188-3.187 2.22-3.623-.564-4.93 2.001-3.22 1.282-4.495 1.531-2.415 2.063-1.543 1.812-1.879-2.062-1.341-.47-1.812.845-1.31-.14 5.613-3.475z" clip-path="url(#p3c27e89425)" style="fill:#006400;fill-opacity:.8"/><path d="m527.426 518.308-2.885 1.813-6.675 2.72-2.012 1.406 2.415 2.469 2.818 2.594 1.744 2.125 2.18 2.031 4.14 3.384 1.63 1.805 2.582 3.375 1.98 2.157 3.488 1.031 1.24.688-1.643 1.031.57 1.438 6.676 2.156 2.716.97 2.348-4.845-8.687-3.188-4.93-2.563-4.563-3.563-2.683-1.907-7.413-7.313-2.75-3.031.637-1.782 2.784-1.469zM578.629 495.51l-.232-3.384 4.714-.72 1.12 1.62.426 1.549 17.811-2.017.016.875-44.332 5.247z" clip-path="url(#p3c27e89425)" style="fill:#006400;fill-opacity:.8"/><path d="m598.273 481.12 1.623-1.944 2.975-1.692 2.24-.864h1.933l.27.828v1.908l-1.12 2.304.309 1.656 3.13 4.61.038 1.007-3.98 2.88-2.009.18-1.214.565-2.782-4.572-2.995.132-.389-1.67 2.705-1.331-2.396-3.709zM552.948 540.28l-2.21 6.376-2.348 4.844-.165.789 6.734 1.838 3.061 3.866 5.714-2.218.817-1.711-.705-1.34-7.195-.904.091-3.395 3.734 1.188 3.127.368 3.187-2.8 1.362-4.246-3.807-.206-4.264-1.12zM593.96 550.716l1.64.482 1.207-.386 1.103.53 1.276 1.028 1.018.61.775-.047 2.415 1.189 1.103.53.138.69-.517.756-.949.498-2.983-.193-1.983.16-3.345-1.702-1.758-2.233.252-1.29zM515.213 535.17l2.418 1.64.973-.625 1.04-1.343-.972-1.157-.57-1.812-1.812-1.22-.638 2.595zM545.91 557.776l-.814 1.928-10.271-3.105-10.748-4.373 6.272.914 2.578-3.734 2.918 1.22-.939 1.406-2.381-.532-1.04 1.875 4.427 1.907.906-1.438zM546.591 588.947l7.089.338 1.45.676v2.026l-1.571 4.804-2.739 6.341-.282 3.003 1.813 2.551 3.464 3.79-1.37-.375-1.128-.413-2.779 1.389-1.007.338-.12-2.515-.162-2.777-.644-2.551 1.249-5.592 1.41-5.028-.525-3.228-3.665-1.426zM569.024 605.578l-1.2 16.022 1.64 1.404 2.302-.158.443-1.724.95-.813 1.333.168.513.692 1.693.216-.052.454-1.59.358-2.154.571 5.976-.783-1.746-7.597-1.683-.415-2.037-.365-2.743-2.263.392-2.263z" clip-path="url(#p3c27e89425)" style="fill:#006400;fill-opacity:.8"/></g><g id="PatchCollection_3"><path d="m611.767 151.933 1.39-.655 1.408-.923.99-1.07 2.398-1.506 1.094-1.02 3.597-4.082 2.293-2.332 1.304-1.507 1.928-1.215 2.555-.777-.678 2.527-1.25 1.36-1.148 1.41-.834 1.214-.625 1.41-.782 1.7-.782 1.604-1.251 1.798-1.095 1.457-2.949 5.029zM635.838 169.627l.24-.762 2.395-.67 2.994-5.219 1.616-2.442 1.258-1.102 2.635.446-4.91 6.53-2.156 4.243-1.258.707zM363.66 581.765l2.04 1.458 5.578.633 4.762.444 4.694 1.014 5.033 1.458 4.082.506 3.673-1.457 5.85-2.852 5.646-3.486 1.973 3.296-10.34 4.183-2.79 2.915-3.876 1.267-11.564-2.091-12.652-.634-1.293 2.98-1.904-1.079zM436.143 565.771l1.29-2.364.98-4.934 1.602.373 1.335 1.99 1.469 1.162 4.272-1.66 3.961-2.404 1.024-.29-3.249 4.976-4.228 1.45-5.163-.538z" clip-path="url(#p3c27e89425)" style="fill:#90ee90;fill-opacity:.8"/><path d="m406.775 582.42.216.359.53.571.374-.114 6.46-2.818 6.408-3.248 2.102.43 7.769-2.176 3.332-2.531 3.823-3.14 4.584-2.613 5.252-.042.251-1.12-2.298.58-8.056.25-6.008 4.561-6.631 3.65-3.872.497zM449.361 568.135l3.605-.664 3.516.664 3.316.43 8.149 6.863 10.186 3.869-2.747 3.035-7.205-3.796-2.648 8.263-4.139-3.159-9.177-4.872.36-1.72 4.408-.382 3.178-3.773-4.972-2.962-4.46 1.577-.867-.45zM475.386 582.332l-.656 2.63.513 3.069 1.162 1.578.026 1.649-1.037 2.19 2.236 1.318 3.189.11.03-2.437 3.383-3.344-2.717-3.439zM405.018 579.483l-.749-1.268-2.642-12.406 6.067-2.284.936-1.979 2.325-1.414 1.669 6.125 1.314 4.334.43 1.531 1.548 1.864-.424.162-.423.198-1.08-1.988-1.365-1.555-1.239-1.084-2.35-.26-1.846 1.108-.051 1.696 1.138 2.238.884 1.036 2.478.212.23.098zM496.07 516.019l-1.823 1.922-2.657 1.21-2.008.66-.414 1.211.119.77-.827 1.651-.296.55 5.197-1.981 1.57-.235 1.087-3.231zM486.334 526.855l-3.72 1.87-1.595 2.476-.503 3.137 4.578 1.551 1.658-.155 4.538.33-.472-1.621-6.84-.32-1.696-.408-.4-.71.229-.852 1.676-1.687 3.715-2.041 6.498-2.22 4.916-1.384 1.943-.213 5.612-3.476-3.248.55-4.606 1.43-6.2 2.752-3.426 1.1-1.653.276zM503.898 518.433l3.57.563 3.69-.25 2.213-.438.873-.406-1.107.97-1.41 1.28-3.72-.12zM507.2 526.434l2.415 2.876 1.342 2.25-1.275 3.438 3.555.844 1.946-.938.47-1.656.637-2.594 1.811 1.219.57 1.812.973 1.157-1.04 1.343-.973.626 5.267.5 1.979 3.5.37 1.782 3.689-3.438 1.14.218 5.065 5.126-2.214 4.907 2.918 1.22-.939 1.406-2.381-.532-1.04 1.875 4.427 1.907.906-1.438 9.092 3.932 2.315-5.487.165-.789-2.716-.969-6.675-2.156-.57-1.438 1.643-1.031-1.241-.688-3.489-1.031-1.979-2.157-2.583-3.375-1.628-1.805-.25 1.086-9.526-6.782-3.79-2.844-2.986-2.376-1.442-.593zM572.642 478.176l-5.937 3.282-6.406 4.5-.39 1.355 4.115-1.991 5.989-1.512 3.669-1.79-.1-2.281zM558.018 496.68l-.604 1.156.738.844 20.477-3.17-.232-3.384 4.714-.72 1.12 1.62.426 1.549 17.811-2.017-2.782-4.572-7.34.324-3.71.288-2.936.936-1.351-5.575-2.248.75-3.187.594-2.783-.344 6.632 4-3.632.719-3.94-.288-6.801.396-5.564 3.097z" clip-path="url(#p3c27e89425)" style="fill:#90ee90;fill-opacity:.8"/><path d="m584.434 483.103-.085.856.58 2.394 1.984-1.092 3.13.504.155.576-.117.72-1.854.54-2.664 1.368.137.565 2.936-.936 3.71-.288 4.345-.192-.389-1.67 2.705-1.331-2.396-3.709-2.124-.792-3.053.72zM580.684 472.696l-3.614 2.261-2.248 1.719 1.376.5 2.817-.656 2.147-.844.537 1.125 1.04.375zM568.152 542.935l-1.362 4.246-3.187 2.8 3.976-.792 5.556-.594 5.798-.311 4.068.056 6.739.99 4.22 1.386 1.64.482 1.207-.386 1.103.53 1.276 1.028 1.018.61.775-.047 2.415 1.189 1.103.53.138.69-.517.756-.949.498-2.983-.193-1.983.16-3.345-1.702-1.758-2.233.252-1.29-7.589-1.753-4.401.113-6.861.962-1.132 2.172 9.343-1.304 2.11-.824 6.938 1.902.476 4.436 11.291 1.268 3.198-1.901-3.878-5.514-1.678-.782-.457-2.572 1.268-.937-1.119-.652-3.146.88-2.938-1.01-2.623-2.02-1.613-1.785-8.196-2.308-1.582 1.473-2.345 2.013zM501.369 602.524l15.38 9.594-2.425 13.822 6.975 1.994.666 7.308 1.23 4.585 5.588 5.302 4.322-4.222 1.51 1.718.436 2.375 3.253 1.25 1.963.502-2.102-7.068-2.82-.621-1.794-4.299 1.282-4.776 10.1 1.385 12.927 10.394-6.44-9.37 9.88.539 14.955 2.405 2.963.588-2.311-7.646 4.629-.29-.089-6.344-8.545 1.12-4.851.331-4.985-.166-6.498.747-.937-.037-.995-.759-2.557.434-.62.586-2.992.107.134-1.616 2.848.04.668-1.7 2.549.105 1.007.153.023-1.463 2.607.252 3.25.912h2.937l-.873-3.948-23.35-.365-.548 1.606-6.19-1.606-1.489-1.46-13.242-11.534-1.096-.146-11.718-9.875-1.994-3.12-.79 4.533-1.64 1.05-.256 1.481 4.204 1.815 6.049 3.296 5.844 4.776-.256 2.15-11.791-7.213z" clip-path="url(#p3c27e89425)" style="fill:#90ee90;fill-opacity:.8"/><path d="m564.596 606.957 4.428-1.38-1.2 16.023-3.032-12.153zM577.132 614.388l.98.242 2.116-.438.208 3.428 2.421-.66-.177 1.43 3.307-2.255-.806 3.247-.784.33-1.137.182-.431.474v1.315l.196.438.627-.036.314-.694 1.136-.475-.901 2.41-2.732-.108-.022-1.57-2.57.337z" clip-path="url(#p3c27e89425)" style="fill:#90ee90;fill-opacity:.8"/><path d="m602.106 582.27 1.743 1.241-.461 15.094-5.793 7.976-4.05 5.35-1.795 3.248-1.56 5.542-.26 1.682 1.688 4.07 20.377 16.19-28.252-16.916.458-2.421.901-2.41.079-1.534.806-3.247 2.072-6.783 1.743-1.386 3.845-3.773 1.025-6.161-2.512-1.004z" clip-path="url(#p3c27e89425)" style="fill:#90ee90;fill-opacity:.8"/></g><g id="PatchCollection_4"><path d="m350.363 358.571.113-.13.152-.09.174-.042.18.012.665.31.149.136.092.175.026.194-.046.19-1.898 3.729-.062.077-.162.12-.195.064-.208.001-.72-.306-.137-.154-.075-.188-.002-.2.026-.098zM369.959 370.875l1.88-4.225-4.705-1.817-1.88 4.224z" clip-path="url(#p3c27e89425)" style="fill:green;fill-opacity:.8"/></g><g id="PatchCollection_5"><path d="m335.76 348.816 2.19 1.014-.639 1.197-2.19-1.014z" clip-path="url(#p3c27e89425)" style="fill:#90ee90;fill-opacity:.8"/><path d="m335.76 348.816.867-1.628 2.974 1.377-.868 1.628zM359.474 376.682l5.118 1.883 1.339-2.814-4.888-1.995zM390.834 328.307l.523-2.432-1.69-.315-.522 2.432zM389.695 331.032l-.41 2.115-1.113-.189.41-2.113zM173.574 218.986l3.682 1.137-1.626 3.938-3.867-.792zM385.835 321.9l1.01-1.838-1.12-.534-1.01 1.838zM337.872 347.511l.994-1.865-1.029-.476-.994 1.865zM373.877 349.26l-3.296-.095.053-1.563 3.295.095z" clip-path="url(#p3c27e89425)" style="fill:#90ee90;fill-opacity:.8"/></g><g id="PatchCollection_6"><path d="m389.254 351.54 17.77-7.64 7.524 12.732-10.23 12.3-1.278.854-1.4 1.596-.916 2.159-4.536-.225-5.235.202-1.761-11.624-2.172-1.395zM390.12 350.344l-.598-.62 3.941-18.396 2.069-2.5 6.073 5.67 4.974 8.563zM421.921 359.655l3.805 9.333-.239.715-16.31 4.404-1.603.19-2.15-.126 1.928-1.415 7.114-7.028 5.767-4.944zM564.792 609.447l3.032 12.153-1.769.55-1.565-1.455-2.126-9.204z" clip-path="url(#p3c27e89425)" style="fill:#006400;fill-opacity:.8"/></g><g id="PatchCollection_7"><path d="M457.133 564.477 472.1 549.95l10.656 12.484 2.273 2.41-.314 12.118-6.581 2.336-10.186-3.869-8.15-6.862-.94-1.68zM586.831 468.299l6.342 9.725-5.835 2.34-.406-.625-.336-.844-1.073-2-2.623-5.587zM622.234 568.767l14.915 10.503-6.47 14.394-10.21-11.702z" clip-path="url(#p3c27e89425)" style="fill:#90ee90;fill-opacity:.8"/><path d="m620.674 582.196-2.094 15.832 13.888 12.376 2.082 1.786 3.57 2.61-2.866 4.033-6.147 8.34 13.197 8.317 1.991-2.573 2.548-.34.833-1.647-.884-.532 1.196-6.638-1.665-1.648.729-2.568 2.652.34-1.144 2.18 3.64 2.18 1.768-1.163 5.564 4.119 2.601-2.035-2.029-1.55-.155-2.86 5.044-.242-9.62-8.285 7.488-10.417-2.028-5.863-14.113 15.346-8.25-9.628 10.35-15.07-11.671-7.326-6.47 14.394z" clip-path="url(#p3c27e89425)" style="fill:#90ee90;fill-opacity:.8"/></g><g id="PatchCollection_8"><path d="m368.276 367.291.382-.881.948.357-.382.882-.163.072-.148.34-.174-.066-.075.173-.34-.129.075-.172-.202-.077.148-.34zM358.13 367.57l-.382 1.011-.733-.858.868-.349z" clip-path="url(#p3c27e89425)" style="fill:#a9a9a9;fill-opacity:.8"/></g></g></g><defs><clipPath id="p3c27e89425"><path d="M90 106.66h558v513.88H90z"/></clipPath></defs></svg>