<svg xmlns="http://www.w3.org/2000/svg" width="960" height="960" viewBox="0 0 720 720"><defs><style>*{stroke-linejoin:round;stroke-linecap:butt}</style></defs><g id="figure_1"><path id="patch_1" d="M0 720h720V0H0z" style="fill:#fff"/><g id="axes_1"><path id="patch_2" d="M90 573.059h558V154.14H90z" style="fill:#fff"/><g id="LineCollection_1"><path d="m325.359 471.292-5.258-1.096M325.359 471.292l15.901 2.95M325.359 471.292l-.227-3.456M326.252 479.716l-.275-.582-.128-.27-.072-.324-.088-.847-.199-3.491-.131-2.91M304.287 467.087l-4.33-.8M304.287 467.087l.49.14M304.287 467.087l.05-.43M267.784 471.827l.414-.175 1.44-.633 1.937-.89 3.712-1.774.928-.376 1.954-.708 1.813-.527M287.843 465.058l-1.276.166-.884.135-2.113.45-3.588.935" clip-path="url(#p1a5c052a13)" style="fill:none;stroke:#000"/><path d="m273.572 454.33 1.946 3.99.295.499 1.052 1.552.925 1.22.151.205.12.213.35.847.263.966.072.278.152.38 1.084 2.264M267.784 471.827l-2.375.88M263.858 464.202l1.16 1.972.621 1.092.514 1.089.316.867.378.887.168.403.335.598.434.717M255.701 475.278l1.28-.316 8.428-2.255M274.726 504.154l-8.513-20.856-2.36-6.104-.262-.601-.108-.19-.14-.206-.279-.61-.1-.308-.027-.162.004-.14.028-.174.035-.118.096-.183.115-.138.132-.115.164-.11 1.212-.5.614-.438.051-.08.028-.107-.007-.307M214.626 478.933l2.787-.883 1.793-.412 1.037-.214 1.196-.198 2.344-.269 2.615-.095 4.464-.167 3.98.009" clip-path="url(#p1a5c052a13)" style="fill:none;stroke:#000"/><path d="m255.701 475.278-5.784 1.426-3.217.534-.905.091-.418.024-.498.004-3.38-.107-6.658-.546M231.58 463.387l1.212 4.228 1.172 3.579.869 3.079.128.554.015.42-.135 1.457M619.554 253.87l.08-.397.004-.284-.052-.353-.16-.328-.286-.452-.718-.807-.686-.594-1.044-.8-1.331-.902-.778-.523-.39-.309-.248-.217-.27-.301-.228-.293-.239-.333-.227-.316-.41-.475-.443-.468-.483-.46-.657-.593-.642-.59-.359-.396-.247-.368-.168-.34-.095-.337-.036-.408.051-.459.152-1.41.076-.573.18-.677.186-.542.308-.78 1.411-3.124.098-.475.022-.495-.012-.439-.084-.51-.124-.377-.231-.396-.283-.408-.55-.601-.399-.412-.25-.329-.2-.352-.256-.542-.183-.61-.08-.388-.02-.4.052-.285.148-.301.127-.162.212-.182.303-.182.41-.329.594-.582 1.583-1.607.143-.15.084-.195.004-.205-.052-.17-.111-.258-.276-.317-.366-.403-.167-.195-.156-.21-.323-.565-.47-.903-.184-.412-.171-.415-.168-.59-.087-.463-.016-.302.016-.387.083-.388.284-1.053.015-.444-.031-.34-.076-.282-.151-.292-.168-.242-.427-.526-.227-.31-.092-.236-.047-.313-.02-.274-.056-.316-.024-.226-.072-.32-.16-.476-.19-.83-.08-.674-.152-.99-.582-2.834-.247-1.275-.136-.74-.147-.594-.235-.733-.375-1.33-.215-1.187-.232-1.425-.095-1.038-.487-4.703-.08-.91-.007-.515.008-.745-.008-.736-.056-.483v-.388l.112-.451.199-.562 1.1-2.273 1.627-3.143.59-1.037.51-.677.47-.582.45-.444.527-.455.33-.416.798-1.053 1.18-1.576.526-.443.4-.261 3.682-1.655M535.838 206.379l4.221-2.977 5.98-3.453 1.737-1.931 6.107-2.075 5.916-1.188 2.966 1.204 2.456 1.108.988-.253 2.743-5.004 1.498-1.299.989-3.166 2.679-2.756 4.114-.538 2.679-2.946 1.02-12.035 3.062-5.1 2.423-1.171 4.88-.602 12.186.89 1.32.187 4.942 2.217 1.978 1.077 1.227 1.03.798.87.972 1.267 1.372 2.582 1.307 2.644M563.503 357.095l1.602-.61.853-.373M573.165 352.997l-.784.415-6.423 2.7M529.957 303.861l11.202 16.24 8.467 11.725 7.048 10.3 8.064 12.082 1.22 1.904M567.034 357.158l-.245-.143-.297-.236-.27-.293-.264-.374" clip-path="url(#p1a5c052a13)" style="fill:none;stroke:#000"/><path d="m493.251 277.559 6.266-.727 1.069-.063.47-.01.895.02 1.194.052 1.89.205 1.578.349 1.702.388.997.305 1.547.693 1.427.866 1.16.868.742.7.63.67 1.116 1.464 1.722 2.557 2.032 2.898.582.831.44.72.51.975.581 1.124.83 1.592.733 1.132 1.172 1.702.534.68.478.563.734.745.678.783.446.673.299.523.239.356.267.325.38.455.517.685.347.486.502.717" clip-path="url(#p1a5c052a13)" style="fill:none;stroke:#000"/><path d="m573.165 352.997-9.124-15.4-17.357-28.629-3.165-4.956-2.832-4.802-.214-.273-.232-.179-.27-.107-.232-.04-.384.02-.396.096-.355.172-3.25 1.922-5.397 3.04M433.496 189.356l1.132 1.14 7.678 4.481.685.491.311.261.287.27 1.412 1.639.167.277.247.395.104.349.088.333.08.34.04 3.246.047.507.143.467.152.372 2.24 2.574.606.926.32.578.135.467.159.966.032.412.024.396-.152 1.465-.606 2.415-.215.696-.128.745-.047 1.575.087.76M465.477 241.948l-.437-.675-.674-.8-3.141-3.484-3.955-4.07-.526-.427-.414-.285-.845-.777-2.982-3.309-.558-.76-.446-.792-.958-1.758-.59-1.33-1.004-2.533-.112-.476-.31-2.573" clip-path="url(#p1a5c052a13)" style="fill:none;stroke:#000"/><path d="m465.477 241.948-.09-.644-.096-.887-.247-1.108-.247-.824-1.045-3.919-1.052-4.014-.71-1.869-.135-.198-.128-.142-.143-.15-.208-.167-3.798-2.292-1.256-.546-.43-.29-1.328-1.207-6.04-5.792M433.496 189.356l-.303-.428-.35-.617-2.185-4.783-.271-.744-.192-.792-.98-5.32M473.027 241.783l4.024-.49.733-.345.55-.452 1.52-2.007.278-1.085.534-.945 1.073-2.427.287-.428 1.515-1.56.944-1.805.465-1.595.267-.222.161-.06.993-.043.375-.285.08-.443-.136-.317-.128-.158-1.029-.856-.613-1.021-1.117-3.198-.765-3.192-.008-.284.024-5.543-.055-3.048.542-2.123.135-1.923.98-1.9.2-1.33-.144-2.788.056-.293.55-2.145-.056-.539-.43-.697-.989-1.132-.047-.404.127-.396.782-1.243 1.267-3.246 2.256-6.48h-.16l-1.219.494-.924-.048-2.344-.664-17.118-4.53-16.743-4.14-.598.182-.582.475-.167.284-2.28 5.25-.622.562-.813.443-4.864 1.917-.558.023-.805-.26-1.451-1.37-3.396-3.81-.921-.462-2.452-.412-.996-.598M493.251 277.559l-9.018-7.08M475.608 269.103l.167.539.152.657.247.831.131.265.18.325.25.34.332.345.12.166.119.21.095.162.134.257.161.218.276.29.322.17.348.181.848.523 1.874.76.387.146.59.286.98.617.192.13.179.088.33.162.798.281 1.395.515 1.702.582.933.099.363-.016.267-.04.203-.047.957-.226.273-.061.228-.05 2.11-.25M579.472 348.165l-.734.925-.707.777-.85.795-.913.692-.747.463-2.356 1.18M325.367 423.354l-.12-.3-.1-.222-.123-.246-.096-.17-1.853-2.77-.128-.302-.064-.333-.048-.475-.095-1.551-.223-1.821-.096-.523-.112-.649-.319-1.785M327.14 411.003l-1.004.4-1.204.309-.43.063-.622.103-1.89.329" clip-path="url(#p1a5c052a13)" style="fill:none;stroke:#000"/><path d="m318.123 413.153.893-.313.4-.119 2.574-.514M321.105 364.699l.47.712.144.317.096.665.064.602-.415 3.594-.191 1.172.031.697.033.49.382 1.853.148.638.084.57-.096.677-.152.578-.319.808-.602 1.365-.187.48-.319 1.068-.103.428-.049.372.016.213.065.246.103.237.231.42.559 1.077.135.427.087.507.009.586-.048 1.757-.08 1.338.087.745.049.332.143.396.542.72.622.768.08.214.055.261.025.309-.025.325-.135 1.29-.016.578.064.452.024.237.135.823.111.515 1.372 4.212.088.309 1.292 5.051 1.427 4.873" clip-path="url(#p1a5c052a13)" style="fill:none;stroke:#000"/><path d="m329.213 420.658-.047-.427v-.57l-.056-1.766.016-.514v-.388l.032-1.513-.016-.831-.104-.499-.096-.3-.143-.23-.271-.467-.207-.468-.255-.34-.32-.396-.605-.946" clip-path="url(#p1a5c052a13)" style="fill:none;stroke:#000"/><path d="m337.92 408.545-3.772 1.045-.422.095-3.898.752-2.01.285-.307.08-.37.201M325.367 423.354l.65 3.353M329.213 420.658l-.23.57-.096.246-.088.284-.13.806-.038.103-.053.089-.106.081-.223.07-2.882.447M330.286 425.982l-4.27.725M330.286 425.982l.27 1.225M329.213 420.658l.288 1.9.785 3.424M326.016 426.707l.583 2.439M330.768 428.172l-4.17.974M330.768 428.172l-.212-.965M330.943 433.143l.088-2.533-.095-1.02-.04-.571-.128-.847M325.355 431.695l.542-.46.239-.206.151-.181.112-.159.143-.285.08-.475-.023-.783M320.762 437.617l.08-.348-.064-.444-.334-2.011-.144-1.298.004-.487.076-.384.064-.328.151-.393.227-.423.276-.17.406-.143.299-.047.2-.016.23.02 3.122.55M320.762 437.617l.475-.519.61-.621 1.02-.792.463-.289.143-.071.18-.028.262-.008.415.056.439.106.175.012.13-.051.1-.09.065-.124.116-3.503" clip-path="url(#p1a5c052a13)" style="fill:none;stroke:#000"/><path d="m330.943 433.143-.685-1.408-.136-.167-.159-.166-.231-.071-.208.015-2.567.262-1.602.087M346.753 458.558l-1.49-1.07-.623-.458-1.195-1.188-4.043-4.267-1.283-1.401-1.172-1.271-.231-.17-.263-.091-.327-.06-.742-.04" clip-path="url(#p1a5c052a13)" style="fill:none;stroke:#000"/><path d="m331.349 438.193.209 2.717.143.745.319 1.203.718 1.584.382.79.813 1.473.606.951.845.886M336.529 452.272l-.26-1.374-.247-.863-.084-.257-.131-.321-.423-.915M336.529 452.272l-4.139.664-.65.174-.107-.007-.087-.052-.08-.122-.1-.258-1.035-4.527M326.554 449.746l-4.476.657M320.762 437.617l-.255.823-.27.65-.272 1.282.016.95.08.538.606 1.679.813 3.974.43 2.201.168.69M323.88 455.284l-.933-2.197-.87-2.684M336.652 457.9l-.072-4.22-.051-1.408M341.105 458.192l-4.453-.291M345.254 465.47l1.252-3.611.128-.49.08-.737.04-2.074" clip-path="url(#p1a5c052a13)" style="fill:none;stroke:#000"/><path d="m355.292 466.712-.095-1.828-.08-.737-.224-.65-.63-1.313-.318-.404-.216-.174-.661-.301-3.365-1.48-2.95-1.267M336.78 463.087l-.168-2.985.04-2.201M304.463 461.033l.4.028M304.463 461.033l-4.57-.135M323.88 455.284l-.83.305-.199.158-.151.238-.542 1.069-.527.514-.294.214-.343.15-.2.072-1.554.174-1.97.051-.219.008-.163.023-1.471.314-1.073.05-.625-.062-.187-.036-.352-.087-.494-.182-.175-.111-.148-.107-1.399-.91-1.47-.907-3.445-2.357-.154-.071-.09-.014-.083-.003-.355.044-.107.03-.078.033-.078.062-.045.093-.596 6.994M367.403 462.678l.733 4.533M384.596 453.326l-2.803 2.223-2.782 2.083-1.579 1.14-.645.411-.479.237-.996.412-1.213.491-6.696 2.355M355.292 466.712l3.329-1.025 8.782-3.01M336.78 463.087l1.077.045M326.567 463.427l5.835-.46 1.723.016 2.654.104M337.857 463.132l-.438 4.044M343.899 464.907l-3.181-1.148-.989-.237-1.872-.39M326.567 463.427l-2.113.135M323.88 455.284l1.204 2.617.35 1.013.248.847.885 3.666M304.863 461.061l11.602.806.726.127 2.48.396 4.783 1.172M325.132 467.836l-.415-2.153-.263-2.121M343.899 464.907l1.355.562M343.899 464.907l-1.1 4.41M355.292 466.712l-1.38.158-1.155-.015-3.604-.467-.83-.143-1.028-.166-2.04-.61M354.943 472.115l.166-1.785.183-3.618M368.136 467.211l3.843-3.126M364.911 469.966l2.3-1.963.925-.792M304.777 467.227l-.597 16.963M320.1 470.196l-5.469-.998-9.854-1.97M337.34 467.911l-4.108-.01-8.1-.065M342.799 469.317l-1.037-.344M354.495 472.215l-1.962.134-1.235-.016-2.647-.277-.542-.11-.702-.206-4.608-2.423M337.34 467.911l.08-.735M337.34 467.911l4.422 1.062M320.1 470.196l-.244 9.536M352.518 476.387l2 .332.423.032.423-.016.63-.071.67-.214 1.147-.657.55-.356.67-.507 2.264-1.9 3.616-3.064M354.943 472.115l.915-.138 2.67-.249.69-.095.878-.182 1.917-.567.98-.375.953-.444.323-.087.228-.028h.167l.247.016M354.495 472.215l.448-.1" clip-path="url(#p1a5c052a13)" style="fill:none;stroke:#000"/><path d="m352.518 476.387.606-1.663.278-.673.383-.736.71-1.1M341.26 474.241l.493 4.929M352.518 476.387l-1.013-.19-10.245-1.956M352.518 476.387l-.074.502M319.856 479.732l3.631-.309M319.856 479.732l-.016 1.476M341.753 479.17l-15.5.546M341.753 479.17l.732 6.183M319.84 481.208l-.644 18.163M304.18 484.19l10.08-1.546 5.58-1.436M304.18 484.19l-.343 1.914M323.487 479.423l2.765.293M323.487 479.423l.38 7.364M342.485 485.353l-9.23.711M342.485 485.353l.938 7.073M323.867 486.787l9.388-.723M333.255 486.064l-.614 9.963-8.246-.468-.25-1.876.611-.633-.89-6.263M298.207 456.27l-5.748.237M292.46 456.507l.13-1.435.057-.178.04-.069.052-.058.123-.095.13-.075 3.497-1.213.144-.024h.136l.084.024.103.06.087.118 1.164 2.708" clip-path="url(#p1a5c052a13)" style="fill:none;stroke:#000"/><path d="m299.892 460.898-1.16-.034-.084-.032-.065-.04-.04-.057-.042-.083-.042-.169-.036-2.67-.128-1.187-.088-.356M337.92 408.545l.398-.158.383-.277M339.554 386.883l-.032.658v.197l.28 2.09.079.634.04.3.048.602v.349l-.064 1.14-.271 2.47-.422 2.692-.798 3.04-.16.76-.047.404-.025.396v.372l.256 1.79.263 3.333M354.933 395.406l-3.324 2.609-.614.451-.327.364-.263.341-.327.459-.455 1.156-.725 1.967-.414.978-.794 1.366-.43.518-.323.262-.2.142-.239.135-.147.063-1.978.4-3.169.388-.884.194-.411.143-.243.11-.965.658M587.183 358.69l-1.14.748M610.834 366.284l-.99-.319-4.306-1.559-2.543-.934-1.97-.61-2.917-.796-1.742-.538-5.481-2.063-2.053-.534-1.029-.186-.62-.055M571.423 358.357l1.387.174 2.034.32 1.586.116 3.265.047 6.418-.336 1.07.012M631.856 350.337l-2.655.772-1.555.431-1.24.519-5.429 2.551-1.347.497-.987.24-.769.144-.835.075-1.666-.028-.917.083-1.306.22-1.003.11-4.542.282-.97.133-5.055.696-.91.024-1.067-.071-3.118-.38-1.08.012-3.317.443-2.16.483-1.149.404-.511.224-1.085.489M635.498 367.585l-.409-.355-1.032-.77-.855-.502-1.199-.499-1.171-.238-1.42-.142-1.965-.028-1.327.052-1.176.13-5.497.832-3.134.324-1.566.163-1.495.047-1.044-.079-1.374-.236M611.904 367.521l-.095-.202-.164-.246-.216-.25-.217-.22-.378-.319M115.172 175.169l-.487 1.308-1.472 9.944.54 2.095.54.342 2.11.243 2.258 1.511.049.975-1.276.342h-1.767l-1.62.535-1.668.05-1.62.438-1.129.926-1.522 1.072-1.325.683-1.62.049-1.422-.39-.737.243-.245 1.073.638.731 1.423.292 1.767.292 2.258.147.883.39.442.828-.05 1.317-9.39 22.438M115.158 224.345l-5.246-.995-6.866-.69-2.315.383" clip-path="url(#p1a5c052a13)" style="fill:none;stroke:#000"/><path d="m131.94 196.57.191 9.617-.848 1.149-3.703 2.299-2.392.842-1.235 1.686v2.146l.309 2.451-1.234 2.452-5.17 5.21-2.7-.077" clip-path="url(#p1a5c052a13)" style="fill:none;stroke:#000"/><path d="m106.473 259.08 1.818-4.245 1.786-9.722.988-9.312.287-2.438 3.806-9.018M126.19 180.443l.078 1.608 4.089 9.119 1.583 5.4" clip-path="url(#p1a5c052a13)" style="fill:none;stroke:#000"/><path d="m130.38 179.475 2.222 7.516 2.18 3.923.033 1.947-2.875 3.71M115.172 175.169l4.804 1.805 1.01.162.832-.114.669.08.945.762 1.044 1.344.374.437.718.615.623.183M130.38 179.475l-2.287 1.232-1.902-.264M127.394 367.871l-4.001.964-4.85 3.311" clip-path="url(#p1a5c052a13)" style="fill:none;stroke:#000"/><path d="m121.321 520.454-1.778-.916-.545-.392-.25-.304-.145-.273-.117-.5.321-1.698.709-3.014.033-.903-.08-.803-.133-.358-.388-.75-.695-1.953-.836-3.014-.629-2.456-.254-.525-.789-.903-.515-.697-.348-.836-.1-1.036.428-2.065.535-1.421 1.03-1.673 1.658-1.925 1.51-1.673.777-1.368.588-1.129 1.364-4.9.816-3.04.673-4.085-.363-5.142 1.272-1.081 2.089.54 4.177.452 4.178.54 2.452-1.262 12.442-13.98 2.544-5.41 11.443-1.534.364-2.525.363-1.353 3.814-1.894 4.996-3.698 2.724-3.968 3.676-5.045.853-1.37 1.052-1.782 1.595-3.31.183-.474.152-.514.318-1.18.391-3.54.048-.807-.032-.554-.526-2.058-.335-.729-.35-.435-2.512-2.273-3.15-2.806-10.627-9.74-7.901-7.937-5.268-2.615-6.902-3.608-2.997-3.878-7.085-5.321-9.845-7.682M178.557 281.59l-1.33-4.652-1.354-2.52-7.526-1.847M178.567 257.842l-.432.699-.77 1.152-1.769 2.743-2.32 3.247-2.137 2.905-.199.293-.765 1.157-1.828 2.533M106.473 259.08l10.714 2.658 23.931 5.039 27.229 5.794M229.045 409.97l-.614-.412-.407-.158-.462-.103-.295-.008-.685.087-.662.166-.495.15-.676.332-.783.286-.534.096h-.319l-.638-.112-.287-.11-.327-.174-.837-.626-.406-.277-.24-.119-.334-.11-1.324-.19-.31-.135-.26-.163-.243-.28-.207-.428-.192-.467-.55-1.496-.398-.847-.216-.317-.478-.396-.295-.198-1.961-3.642-.04-.467-.343-.554-.327-.293-.279-.222-.327-.182-2.017-.887-1.69-.895-.606-.451-.343-.332-.303-.317-.215-.317-.096-.332-.008-.297.068-.23.183-.3.208-.246.346-.222.467-.221 1.288-.685 1.475-1.172.39-.428.303-.356.136-.253.096-.34-.025-.444-.087-.689-.072-.388-1.22-8.566-.478-2.748-1.028-6.135-.32-1.68-.35-1.884-.304-1.44-.765-2.581-.462-1.315-.447-1.25-1.148-3.136-2.08-5.13-1.212-2.486-1.005-2.225-4.138-9.224-.334-1.014-.782-2.264-1.228-3.642-.223-.744-.144-.633-.255-1.489-.095-.586-.112-.523-.207-.712-.63-1.631-.702-1.837-2.049-4.925-2.025-6.23-.159-.618-.766-2.842-.868-2.684M178.557 281.59l1.081 4.29 1.478 4.663 1.966 6.311 1.468 4.632 1.706 5.139M207.75 308.976l-.348-.537-1.143-2.044-.152-.262-.199-.15-.454-.332-.51-.325-2.13-.982-.234-.063-.184-.02-.227.02-.279.087-1.515.87-1.786.642-.295.087-.319.048-1.92.04-1.356-.072-.487-.087-1.45-.166-.695-.008-.318.063-.439.103-1.682.436-.335.039-.47.04-1.435.142-1.132.08M230.275 414.122l-.082-.256-1.148-3.896" clip-path="url(#p1a5c052a13)" style="fill:none;stroke:#000"/><path d="m237.575 370.328-.223 1.069-.31.966-.288.934-.056.317-.016.372.056.269.048.27-.02.201-.04.218-1.86 5.32-.774 2.882-.606 1.37-.168.356-.072.483-.016.372.072.586 1.236 4.687.104.357.167.522 1.328 2.441 1.248 2.357.59 1.211.207.531.11.855-.039.285-.12.57-.31.673-.232.293-.374.38-1.363 1.021-1.822 1.1-.746.507-.61.535-.59.602-.605.601-.196.127-1.104.554-.526.333-.228.178-.167.257-.167.344-.124.29-.076.391.152 1.655M255.215 447.806l-.347-.3-.303-.262-.339-.388-.601-.879-.463-.839-.207-.285-.207-.237-.598-.618-1.06-1.124-.312-.499-.151-.34-.136-.356-.247-.721-.072-.364-.071-.349-.112-.673-1.427-3.372-.136-.38-.103-.277-.431-1.283-.143-.261-.367-.602-.821-1.63-.191-.42-.232-.341-1.028-1.077-1.38-1.535-.693-.8-.24-.301-.326-.245-2.161-1.727-2.91-2.121-.733-.689-.287-.412-.383-.522-.2-.388-.19-.34-.144-.294-.965-1.607-.207-.206-.303-.3-.893-.958-.27-.238-.312-.285-1.69-1.591M230.275 414.122l.11.345.438.903" clip-path="url(#p1a5c052a13)" style="fill:none;stroke:#000"/><path d="m220.817 418.164.405-.065.68-.12 1.498-.337 2.567-.855 3.667-1.11 1.189-.307M256.287 448.416l-1.072-.61M256.287 448.416l7.447-1.95M256.287 448.416l-1.389.62M262.94 462.643l-.314-.863-.463-1.568-.095-.594-.112-.886-.032-.467.016-.396-.104-.808-.127-.91-.271-1.1-.136-.46-.191-.475-.303-.435-.223-.277-1.762-2.162-1.14-1.314-1.396-1.512M266.228 445.725l2.537-.856M266.228 445.725l-2.494.74M266.228 445.725l2.346 5.462M231.58 463.387l-.455-1.4M254.898 449.036l-2.175.971-.573.317-2.512 1.44-9.922 5.966-4.492 2.68-2.631 1.608-.295.253-.16.237-.175.285-.383.594M214.626 478.933l-3.231-11.296M166.594 491.315l1.208-.172 7.588-.91 2.995-.525 2.856-.69 3.57-1.05 6.285-2.053 11.672-3.484 9.822-2.913 2.036-.585M220.817 418.164l-2.647.088-.39.047-.391.103-1.515.372-1.084.11h-.574l-.877-.03-.479.07-.486.095-.398.174-2.265.975-.255.063-.31.063-1.866.08-.287.055-2.87.412-.28.007-.55-.031-4.935-.594-2.774-.024-.415.063-.303.174-.263.286-.16.49-.127.586.048.776 1.26 5.954.302 1.504.335 5.067.343 2.328.12.364.127.237.136.143.175.11.287.088h.216l.693-.134 1.722-.515.797-.064.423.127.518.245.264.198.374.507.279.784 1.22 3.832M207.82 455.497l-1.832-5.878-.446-1.235-.575-1.9-1.012-3.135" clip-path="url(#p1a5c052a13)" style="fill:none;stroke:#000"/><path d="m224.548 437.68-5.86 1.33-1.738.538-12.995 3.801M227.706 450.395l-.471-1.485M207.82 455.497l7.576-2.275 4.4-1.188 4.13-.982.272-.087 1.865-.68.327-.1.252-.029.262.021.802.218M231.125 461.987l-1.506-5.107-1.913-6.485M220.817 418.164l.335 3.001.12.586.853 3.34 1.722 6.556.071.499.056.451-.071.966-.009.436v.467l.654 3.214M227.235 448.91l-.534-2.062-2.153-9.168M211.395 467.637l-3.575-12.14M211.395 467.637l19.73-5.65M211.395 467.637l-12.305 3.63M207.82 455.497l-11.578 3.195M196.242 458.692l2.848 12.575M199.09 471.267l-9.474 2.55-.192.017-.075-.024-.064-.06-.08-.095-.71-2.034-2.04-6.207-1.094-3.375-.014-.08-.004-.068.018-.065.065-.067 10.816-3.067M303.837 486.104l-21.072 7.736-8.04 10.314M243.357 565.003l7.919-2.655 8.33-4.902 9.564-7.659 5.245-5.616 3.908-2.145 2.88-.715 1.44-1.43-.618-6.943-.411-4.392-1.029-3.165-2.365-9.804-1.954-3.778-1.54-7.645M302.639 524.086l.799-22.51.4-15.472M216.041 264.345l-.9.435-.678.388-.79.554-.438.293-.566.285-2.264.816-4.672 1.362-3.803.83-2.185.508-.622.245-.334.182-1.005.563-3.715 1.765-2.719 1.56-1.196.926-.247.317-.28.396-.808 1.2-.183.233-.264.245-.912.78-.255.142-.423.207-.523.241-2.013.685-1.143.36-1.746.709-2.8 1.019M233.262 256.863l-.454-.009-.305.014-.183.036-.288.109-1.52.657-.718.206-.271.055-.263.016-.534.016-1.778.04-1.507.205-1.514.301-2.616.784-1.69.744-1.052.634-.28.198-.23.34-.16.373-.128.64-.302.919-.295.467-.327.246-.32.19-.486.3M263.652 299.262l-1.373-2.825-2.593-1.995-2.14-1.449-1.458-1.19-2.853-1.771-3.014-2.125-1.103-1.546-.454-1.577-.13-1.577-1.49-6.886-.357-1.61-1.037-1.127-4.348-3.18-2.431-1.513-2.205-1.095-1.782.129-1.686.257-1.426.13-1.037.643-1.394.064-2.27-.386-2.69-.87-2.302-1.19-1.912-1.095-1.167-.676-1.62-.483-1.339.026M233.262 256.863l.798.15.247.048.518-.009 1.396-.19 2.917-.886.43-.198.487-.12 1.555-.236.725-.08.479-.087.737-.122 1.583-.29.303-.087 1.1-.459M286.022 250.928l-1.802.582-2.58.729-.916.336-3.787 1.468-3.532 1.034-2.408.507-1.742.296-.518.068-.546.028-5.071-.297-4.524-.345-.945-.118-.275-.052-.271-.052-.55-.165-3.234-.927-.259-.067-.255-.04-1.642-.11-1.048-.135-.582-.088-.188.016-.215.032-1.156.27-1.439.4" clip-path="url(#p1a5c052a13)" style="fill:none;stroke:#000"/><path d="m244.663 228.509-3.818 7.657-.12.984.144 1.416.436 1.175 1.114 1.92 1.008 2.908.6 1.573 1.32 2.575.768 2.383.288 1.312.134 1.885M354.463 202.31l-1.615 1.74-.318.44-.243.325-.164.27-.228.59-.107.237-.136.257-.239.3-.538.694-1.921 2.217-.323.23-.259.122-.355.13-.303.088-.319.063-.422.04-.387-.02-.546-.138-3.592-1.355-1.945-.573-1.2-.281-.303-.028-.363-.008-.291.031-.207.052-.231.091-.347.25-.247.213-.215.356-1.627 6.984-1.937 8.108-.208.317-.295.348-.31.237-.487.198-.406.024-.734-.071-.439-.12-.622-.165-3.54-1.101-4.304-1.338-.582-.087-.367-.032-.47.048-.55.182-.408.27-.334.269-.494.609-1.85 2.787-1.706 2.668-.136.436-.143.586-.14 1.163" clip-path="url(#p1a5c052a13)" style="fill:none;stroke:#000"/><path d="m362.698 264.044-2.933-2.233-4.226-3.35-6.96-5.542-1.778-1.33-.478-.198-.24-.04-.318-.023-.439.063-.916.222h-.638l-.479-.032-.287-.04-.725-.126-.303-.08-.399-.046-3.867-.128-2.335-.253-.893-.317-.367-.205-.407-.285-.645-.539-.367-.332-.415-.428-1.356-1.417-3.204-3.31-2.245-2.011-.494-.504-2.312-2.358-4.014-4.038-1.69-1.56-.503-.566-.969-1.176-.155-.249-.331-.65M303.438 245.07l1.579-.812.207-.135.203-.17 1.028-.885.168-.123.171-.115.335-.204.479-.388.757-.736.231-.309.51-.657.192-.372.104-.214.127-.34.271-.673.128-.23.438-.53 1.539-2.004 2.424-3.27.215-.38.111-.277.072-.348.283-.935M330.174 363.111l-2.906.527-3.715.776-2.448.285M263.652 299.262l1.202 2.506 10.863 24.888.168.245.127.167.175.23.4.3.446.166 1.195.333.24.11.773.452 3.556 2.32 1.905 1.22 5.497 3.85 5.342 3.936 1.467.938 3.201 2.312 1.216.823 3.368 2.961.535.65 1.785 1.963 7.256 8.891 1.737 2.328.622.602.59.522 3.787 2.724M403.87 330.321l-1.858.634-1.116.411-.479.048h-.334l-.598-.095-.694-.19-1.108-.016-1.547.12-.375.023-.51.126-.909.412-2.344 1.156-2.288 1.37-1.833 1.013-3.022 2.241-2.097.958-.925.261-.526.127-.263.166-.542.641-.192.12-.23.078-.288.024-1.212-.048-1.77-.19-.47.025-2.488.752-.295.221-.31.261-1.371 1.71-.272.318-.279.229-.956.388-.256.103-.263.166-.367.412-1.124.902-.215.12-.279.126-.327.126-.558.111-.319.064-.159.119-.574.506-.79.562-.9.768-.32.19-.78.428-.982.412-.518.293-.366.277-1.005 1.183-.642.82-.123.106-.192.088-.27.07-.2.068-.183.095-.264.206-.382.222-.726.265-.558.241-.9.349-3.102.974-1.228.412-.32.15-.31.222-1.754.95-1.387.522-.27.135-.384.23-.27.245-.447.198-.949.316h-.486l-.822-.079-.414.032-1.132.222-.407.126-1.092.507-.47.254-.495.356-1.93 1.187-2.008 1.45-.231.094-.2.048-.303.055-.526.206-.406.214-1.746.862-.343.112-.28.023-.462-.016-1.479.091" clip-path="url(#p1a5c052a13)" style="fill:none;stroke:#000"/><path d="m320.945 309.63.702 1.005.136.245.103.178.694 1.54.176.36.08.27.135.372.215.8.175.348.519.966.518 1.076.35.808.535 1.014.853 1.79.79 1.986.581 1.884.686 1.659.37.792 1.09 1.69.246.317.47.855.256.547.207.443.75 1.821.159.269.247.333.75 1.037.924 1.132.303.539.255.466.208.484.135.42.399 1.171.55 1.338.47 1.445.224.713.239.597.183.784.064.428v.791l-.032.404-.12.618-.104.411-.494 1.204-.845 2.027-2.025 4.394-.159.396-.104.435-.502 2.59-.466 4.306-.056.444-.064.15-.056.095-.075.071-.192.13-.215.14-.618.273-.068.047-.06.08-.055.11-.208.443M403.87 330.321l-.135-1.898M413.31 338.975l-.694-.435-1.579-1.243-1.762-1.734L408 334.39l-2.798-2.003-.558-.53-.168-.238-.167-.238-.438-1.06M413.31 338.975l.813.301.274.08 1.017.332.287.083 1.248.127.917-.032.717-.048.327.028.22.028.275.134 1.203.587 1.874.617.378.083 1.324.317.682.305.454.28.335.274.382.296.838.871" clip-path="url(#p1a5c052a13)" style="fill:none;stroke:#000"/><path d="m410.406 403.532-.366-.735-.071-.316-.048-.373v-.38l.112-.388.566-1.631 1.929-4.995 1.284-3.262.877-2.154 1.562-3.935 1.714-4.623 1.443-3.706.367-1.457.184-.815.15-.46.152-.42.526-1.084.255-.42 1.675-2.596 1.276-1.79.16-.229.318-.348 1.921-1.45.14-.17.084-.15.068-.182.035-.182v-.198l-.107-.376-.304-.67-.031-.186-.016-.193.024-.182.083-.186.14-.19 2.65-2.526.543-.657.112-.254.008-.3-.04-.261-.072-.175-.765-1.108-2.297-2.732-1.814-2.213-.825-.99-.127-.21-.14-.304-.087-.254-.1-.4-.04-.593.088-.483.43-1.053.55-1.172.567-.974 1.726-2.803M432.548 336.885l-1.033 1.12-.841 1.01-.132.186-.47.768-.148.178-.837.918-1.43 1.489-.28.384-.175.257-.327.443M419.44 328.975l-.199.238-.231.34-.215.539-.144.396-.08.467-.103 1.52-.072.214-.096.253-.446.349-.335.26-.367.262-1.252 1.006-.263.261-.558.641-.191.317-.375.601-.494.864-.439.768-.27.704M455.086 290.98l-4.616 3.317-1.714 1.544-2.775 2.55-.247.332-.574 1.005-1.626 2.803-1.092 1.314-2.954 2.38-.32.376-.267.293-.342.49-.28.428-.334.523-1.882 1.971-3.532 4.014M419.44 328.975l.192-.134.155-.095.395-.253.577-.36.244-.199.143-.154.148-.182.135-.273.706-1.825.207-.333.256-.34.605-.84.463-.419 1.929-1.75.55-.498 3.03-3.27 3.356-3.73M432.548 336.885l-.276-.42-.107-.253-.04-.27.047-.308.128-.3.989-1.307 3.022-2.59.11-.15.08-.284-.059-.539-.092-.289-.088-.222-.454-.993-1.184-1.908-.809-1.77-.008-.154.012-.218.048-.194.088-.17.183-.238 2.34-1.63.55-.353.187-.262.068-.106.036-.087.048-.167v-.122l-.028-.127-.04-.111-.064-.107-.096-.114-.103-.1-.1-.063-.757-.46-.12-.078-.084-.076-.25-.257-.495-.614-.08-.07-.091-.064-.072-.06-.06-.083-.721-1.37-.144-.395-.837-2.336-.088-.166-.135-.119-.47-.49M475.608 269.103l-.327-1.203-.486-1.988-.543-1.639-.869-2.874M471.71 266.474l.27-.546.303-.602.598-1.567.502-2.36M474.213 258.034l-.519 1.615-.31 1.75M455.086 290.98l.064-.983.606-1.021.486-.65 1.675-2.612.701-.863 3.93-5.534 3.97-5.566 2.903-4.038 1.483-2.011.805-1.228" clip-path="url(#p1a5c052a13)" style="fill:none;stroke:#000"/><path d="m475.608 269.103-.567-.57-.701-.903-.255-.269-.183-.119-.176-.079-1.26-.3-.254-.12-.208-.102-.295-.167M465.477 241.948l.683 1.732.646 1.456.16.46.159.443.406.72.4.531.397.49 1.715 1.474 2.782 2.019M474.213 258.034l.183-.863.263-1.417.024-.34-.04-.183-.088-.245-.223-.475-.144-.222-.279-.467-1.084-2.55" clip-path="url(#p1a5c052a13)" style="fill:none;stroke:#000"/><path d="m473.027 241.783.03.487.127 2.24.04.73-.016.672-.32 4.157-.063 1.204M472.785 237.757l.242 4.026M502.962 383.281l-.582-4.457-.813-5.44-.917-5.772-.87-3.871-.765-4.085-1.642-9.676-.909-6.369-.988-5.127-1.412-7.862-.701-3.032-.183-.522-.152-.325-.271-.578-.39-.642-.312-.459-.343-.435-.51-.578-.446-.578-.303-.388-.79-.84-6.744-7.727-3.652-3.8-5.772-6.239-2.783-3.112-.39-.34-1.108-1.038-3.995-3.016-1.658-1.22-1.46-.91-3.164-1.568-2.95-1.211-.9-1.085M479.75 392.762l15.375-6.48 7.837-3.001M511.496 380.009l-3.966 1.534-4.568 1.738M581.004 426.729l-2.446.971-.769.33-.809.415-.972.617-.798.543-.888.498-1.575.756-.53.353-.347.289-.291.336-1.248 1.912-.618.72-.694.733-.669.495-.825.49-2.356 1.224-.57.356-.542.42-1.83 1.77-1.539 1.286-1.228.83-.498.318-.564.283-.46.18-.58.125-.633.065-1.996.107-.473-.004-.51-.06-.475-.12-.887-.301-1.187-.39-2.305-1.001" clip-path="url(#p1a5c052a13)" style="fill:none;stroke:#000"/><path d="m504.995 451.95.558 1.822.058.392.034.417-.008.368-.052.355-.235.98-.064.407.004.369.09.38.146.35.068.238.02.259-.015.26-.321.998-.04.228-.016.209.023.224.077.18.139.195 2.332 2.192 2.587 2.035.295.268.304.336 1.534 2.005 2.834 3.507.47.491.463.388.979.533 3.177 1.535.287.117.47.15.431.072.429-.01.388-.073.494-.179.553-.287.504-.387.747-.755 1.049-1.488 1.048-1.512.51-.942 2.651-5.709 1.017-2.066.327-.645.354-.51.834-1.097 1.877-2.577 2.902-3.428.833-.88.797-.68.547-.368 1.267-.612.598-.384 1.687-1.284 1.686-1.303 1.379-1.18.865-.819.37-.388.563-.787.387-.81.346-.853.26-.922M536.802 409.63l2.551 7.074.8 2.545.183.47.223.428.289.412.468.453 1.114.749.614.467.401.384.295.332.197.385.211.464.14.458.467 1.922.382 1.622.228 1.11.422 1.16.969 2.275.21.661.218 1.071.22.86.264.796.642 1.441.288.654.117.374.11.552.066.495.057.934-.056 1.097M511.496 380.009l13.574-5.93M536.802 409.63l-.841-2.265-1.085-2.65-.22-.415-.187-.277-.237-.246-1.046-.75-.247-.21-.25-.315-.197-.285-.573-1.003-.409-.612-.319-.433-.25-.268-.501-.421-.969-.598-1.774-1.207-1.762-1.508-1.622-1.43-3.959-3.285-1.57-1.105-2.616-1.793-1.02-.966-.686-.796-.518-.752-.514-.978-.41-1.06-.782-2.265-.522-1.3-.22-.428M579.472 348.165l.676-1.015 3.481-5.617 3.95-6.267 2.58-4.01 1.826-2.756 2.2-2.85 8.754-10.815 7.702-9.588 7.036-8.701M625.031 287.583l-1.754 2.058-5.6 6.905" clip-path="url(#p1a5c052a13)" style="fill:none;stroke:#000"/><path d="m609.182 257.543-.112.602-.048.626-.007.625.143.697 1.818 8.377 1.076 4.505.686 2.85.247 1.211.127 1.441.176 1.046.215.784.295.902.24.8 2.805 12.335.144.618.167.451.523 1.133M629.216 282.394l-.178.228-4.007 4.96M104.667 528.833l4.86-2.576 8.097-4.169 3.697-1.634M156.086 500.7l-3.007 3.887-2.273 2.762-1.544 1.613-1.177.85-1.765.903-3.457 1.387-3.102 1.17-5.303 2.094-2.533.939-7.956 3.034-2.648 1.115M268.765 444.87l-2.998-5.305-.207-.492-.311-.76-.056-.276-.1-.262M257.794 424.205l1.316 2.676 1.491 2.803 1.291 2.288.598 1.171.295.475.367.57.455.666.39.499.108.154.068.115.92 2.153" clip-path="url(#p1a5c052a13)" style="fill:none;stroke:#000"/><path d="m318.123 413.153-.043.214-.303.411-.176.17-.255.206-.362.166-.61.301-.347.159-2.117.664-.323.08-.167.02-.24.028-.374.039-.192.028-.179.043-6.335 1.56-.31.067-.283.044-1.128.19-1.722.313-.276.063-.801.293-.47.158-5.964 1.441-6.712 1.48-.934.317-.518.3-.207.199-.327.333-.973 1.243-1.507 2.224-.47.69-.207.237-.216.205-1.323.713-3.137 1.512-2.75 1.29-3.345 1.608-3.747 1.964-1.42.795-.155.13-.124.132-.135.186-.642 1.017-1.204 1.39M314.121 392.616l.805 1.9.79 2.327.35.935.08.181.128.333.287 1.006.056.277.015.3-.183 1.402-.128.562-.095.3-.064.342v.269l1.961 10.403M273.572 454.33l-2.143-4.018M263.858 464.202l.458-.316.374-.242.415-.265.359-.253.49-.277.323-.234.104-.138.092-.261-.024-1.73-.196-2.439.02-.253.088-.349.184-.261.195-.142.306-.116.686-.24.41-.135.376-.147 3.32-1.437.714-.28 1.02-.357M283.028 454.9l-1.643.055-.422-.079-.478-.174-1.962-.768-1.291-.364-.582-.119-1.627-.143-.398-.006-.363.096-.211.123-.174.186-.125.182-.18.44M262.94 462.643l.918 1.56M255.701 475.278l-.49-2.042-.04-.261-.16-1.259-.047-.254-.096-.292-.622-.926-.63-1.03-.701-1.473-.207-.696.008-.206.063-.206.18-.285.163-.123.148-.067.937-.194 4.891-.914 2.165-.538.237-.034.476-.081.227-.042.134-.06.078-.053.137-.164.164-.251.095-.216.04-.184.058-.309.032-.475M271.429 450.312l-1.496.68-.112.035-.12.013-.131-.023-.181-.07-.118-.021-.12-.003-.127.042-.45.222M263.734 446.465l2.097 5.395.044.083.056.064.091.067.088.023.12-.01.125-.028 2.219-.872M284.805 458.692l-1.777-3.792M292.46 456.507l-2.28-.04-.2-.016-.215-.055-.786-.222-.47-.17-1.65-.384-1.272-.3-.83-.246-.27-.087-.263-.028-1.196-.06M272.05 443.966l-3.285.903M271.429 450.312l-1.34-2.553-1.324-2.89M156.086 500.7l3.07-3.934M159.712 492.782l-1.625 1.222-.234.305-.04.119-.013.134.015.102.045.09.24.26.639.587.216.196.12.17.007.079-.03.099-.088.11-.697.756-1.713 2.226-.275.602-.193.861M159.156 496.766l.403-.507 1.283-1.611 1.083-1.168 1.183-1.003.983-.551 1.15-.418 1.353-.193M159.156 496.766l.602.036.863.03.76.017.424-.053.675-.246 1.215-1.003.786-.679.829-.657.743-.738.317-.513.124-.465.1-1.18M261.366 219.214l-.08-.816.016-.68.223-3.223M258.313 192.016l-.16.428-.08.403-.031.412.11 2.265.049.99-.088.38-.143.435-.104.309-.223.768-.056.403-.064.777.008.363.04.23.072.317.263.713.622 1.259 1.116 1.742.223.34.518 1.235 1.196 2.154.184.459.096.309.103.364.08.337.047.198.016.154.02.202-.023.214-.395 1.353-.135.582-.049.23-.056.333.096.76-.04 1.06M258.16 216.962l1.53-.527.967-.6.532-.743.336-.597M303.438 245.07l-1.77-1.16-.39-.278-.248-.285-.439-.618-.175-.332-.71-.919-.263-.412-.103-.316-.056-.222-.183-.562-.096-.23-.12-.206-1.267-1.868-.566-.475-.455-.246-.287-.134-.31-.08-.471-.102-.407-.071-.502-.056-.59.047-.35.08-.415.15-.558.373-.877.704-1.404.99-.374.213-.4.19-.597.254-.255.159-1.857 1.052-.511.182-.462.08-.367.023-.327-.031-.415-.103-.366-.167-.949-.561M261.366 219.214l.04.356.072.317.103.269.295.554.519.594.916 1.029 4.106 3.598 4.194 4.225.263.34.127.19.096.23.144.404.071.364.08 1.433-.048.443-.023.222-.009.135.032.269.12.38.32.855.15.277.2.254.279.253.287.198.367.206.813.34.335.087 3.173.65 3.922 1.108.251.068.252.13.215.218.518.923M286.022 250.928l-.243-.708-.12-.254-.124-.234-.482-.862-.71-1.255-.1-.23-.111-.293-.171-.554-.104-.337-.064-.241-.215-.994-.052-.293-.004-.205-.071-.871.003-.19-.04-.155-.103-.527-.036-.487.004-.23.04-.415.028-.194.048-.23.151-1.036" clip-path="url(#p1a5c052a13)" style="fill:none;stroke:#000"/><path d="m286.022 250.928 2.754-.621 2.727-.642.598-.119.47-.008 1.515.286.335-.016.287-.072 1.084-.475 1.515-.839 1.95-1.231 1.008-.716.086-.042.117-.036.123-.025.152-.034.12-.045.546-.302 2.029-.922M286.651 258.078l.004-.234.06-.384.088-.586.068-.498.012-.23-.052-.447-.024-.206.032-.305.27-.978.029-.174v-.099l-.012-.127-.04-.115-.594-1.342-.06-.164-.123-.382-.05-.172-.237-.707M287.674 303.155l-.891-.648-.438-.459-.734-.942-.255-.332-.51-.428-.192-.15-1.53-.966-.224-.214-.43-.642-.112-.198-.08-.19-.08-.285-.621-1.567-.279-.341-.255-.206-.296-.174-.653-.356-1.02-.412-.216-.04-1.387-.063-.16-.087-.159-.15-.678-.883M286.651 258.078l-1.171 2.023-.837 1.572-.096.245-.837 2.019-.236.34-.207.194-.18.15-.215.187-.335.253-.203.208-.279.334-1.985 2.265-.247.428-.136.332-.12.427-.725 5.468-.51 3.82-.32 2.676-.78 5.55-.264 3.397-.494 3.456M263.652 299.262l.427.076.428-.033.126-.026.101-.034.132-.033.255-.119 2.97-1.447.187-.09.128-.06.275-.052.22-.027.597-.124.184-.05.135-.052.415-.163.334-.26 1.057-.765.175-.115.152-.063 1.83-.483 1.363-.495.16-.111.184-.112.222-.226.765-.976" clip-path="url(#p1a5c052a13)" style="fill:none;stroke:#000"/><path d="m313.655 295.065.148-.89.23-1.275.013-.147v-.974l-.009-.206-.027-.206-.184-1.092-.051-.257-.088-.389-.482-1.758-.276-.91-.769-1.872-.574-1.315-.124-.245-.124-.146-.45-.468-1.191-1.017-.136-.154-.116-.167-.108-.154-.087-.218-.622-1.762-.223-.475-.108-.181-.103-.107-.24-.274-.945-.91-2.543-2.368-2.44-2.043-.206-.205-.072-.19-.032-.27v-.285l.055-.388.144-1.614v-.262l-.008-.317.462-3.019.049-.476-.005-.495-.036-.202-.06-.186-.123-.237-.147-.207-.112-.142-.167-.142-.212-.155-2.846-1.516-1.085-.53-.206-.048-1.157-.166-.111-.004-.134.016-4.522 1-.63.033-.399-.071-.342-.096-.638-.296-1.129-.737-.175-.13-.163-.151-.861-1.235-.136-.388-.068-.257-.044-.21-.071-.365-.048-.411-.14-.653M313.655 295.065l.16.463.17.574.069.218.063.57.092.843.104 1.01.18.685.243 1.102" clip-path="url(#p1a5c052a13)" style="fill:none;stroke:#000"/><path d="m320.945 309.63-.717-1.026-.498-.67-.55-.846-.192-.21-.187-.15-.494-.436-.323-.297-.255-.297-.726-1.013-.115-.194-.136-.266-.681-1.666-.116-.202-.335-.665-.386-.555-.16-.221-.338-.386" clip-path="url(#p1a5c052a13)" style="fill:none;stroke:#000"/><path d="m312.004 301.249.913-.563.295-.19.24-.095.398-.055.39.032.496.152M312.004 301.249l.511-1.28.092-.387.446-1.936.335-1.71.267-.871M312.004 301.249l-.49.538-.67.586-.334.174-.295.071-1.802.261-1.053.222-1.929.515-.83.26-.334.033-.374-.008-2.13-.024-1.291.08-.247.031-.216.063-.837.246-.542.134-.374.048-.886-.064-1.17-.158-1.763-.174-.98-.222-.296-.119-.295-.118-1.204-.364-.39-.064-.32-.008-1.817.111-1.46-.144M305.963 318.388l-1.488-.845-.392-.167-.526-.166-.645-.11-.28.015-.23.056-.376.15-.326.261-.766.942-.12.246-.087.293-.016 1.282-.048.198-.191.388-.662.634-.334.182-.24.048-.23-.04-.312-.167-2.99-2.3-3.245-1.833-.27-.11-.307-.1-.272-.1-.147-.11-.184-.229-.454-1.148-.303-.91-.486-1.71-.072-.357-.008-.269.032-.245.056-.297.043-.202.028-.19-.016-.238-.08-.285-.342-1.322-.04-.317-.008-.324.008-.246.032-.53-.08-.539-.167-1.987-.104-.467-.087-.221-.128-.23-.191-.23-1.238-1.387M320.945 309.63l-.996-.796-.407-.293-.43-.262-.215-.08-.231-.038-.248.055-.255.119-.223.253-.151.507-.005 1.543-.055.599-.128.455-.072.174-.147.233-.239.278-.135.138-.136.139-.247.178-.43.21-1.914.53-1.503.42-.861.392-.191.107-.124.11-.115.135-.12.182-.224.435-.107.19-.187.21-1.069.71-.191.17-.861.775-.782.503-.334.178-.216.075-.215.06-1.218.164M319.806 337.82l.223-1.125.072-.42.04-.538v-.744l-.112-.911-.111-.261-.12-.27-.072-.269-.096-.561-.151-1.14-.112-.983-.103-1.464-.04-.317-.096-.309-.16-.38-.454-.807-1.06-1.544-.215-.254-.75-.752-1.18-.958-.374-.285-.575-.324-.382-.23-2.058-1.053-3.324-1.544-.319-.158-.223-.166-2.09-1.665M358.497 430l-2.998-3.277-3.26-3.151-.144-.19-.104-.19-.27-.428-.902-1.195-.27-.357-1.93-1.852-.383-.349-2.033-1.725-.318-.246-.392-.332-.916-.693-2.464-2.423-2.1-2.296-1.025-1.397-.163-.257-.905-1.097M378.309 447.755l-5.772-5-4.863-4.3-3.899-3.562-3.627-3.356-1.65-1.537" clip-path="url(#p1a5c052a13)" style="fill:none;stroke:#000"/><path d="m395.395 446.049-.096-.475.008-.182.016-.286.032-.356v-.293l-.989-3.325-1.642-5.463-1.953-6.223-.138-.542-.058-.093-.05-.067-.074-.038-.103-.02-.146.002-2.824.208-5.166.226-12.055.49-1.281.044-.162.012-.175.044-.152.04-.245.068-.241.03h-.158l-3.896.095-3.516-.1-1.834.155" clip-path="url(#p1a5c052a13)" style="fill:none;stroke:#000"/><path d="m344.174 430.697.144-.02 14.18-.677M385.01 453.68l10.385-7.631M385.01 453.68l-.414-.354M371.979 464.085l1.538-1.252 2.727-2.288 2.544-2.066 6.222-4.798M371.178 454.785l-.67-.115-.251-.04-.208-.043-.267-.143-1.398-1.238-3.684-3.365-4.72-4.165-4.832-4.528-4.982-4.655-5.992-5.796" clip-path="url(#p1a5c052a13)" style="fill:none;stroke:#000"/><path d="m334.114 431.46 2.55-.24 5.326-.214 1.726-.129.146-.037.099-.032.102-.045.111-.066M371.178 454.785l-2.053 2.387M378.309 447.755l-.31.012-.148.025-.116-.006-.155.048-.28.113-.593.635-4.373 4.972-1.156 1.231M383.368 452.275l-.983.428-.63.347-1.84 1.09-3.216 2.01-2.79 1.386-.583.135-.31.056h-.479l-3.412-.555M334.114 431.46l1.717 3.188 1.881 3.475.144.27 2.009 4.148 1.858 4.157 1.642 3.515.869 2.027.116.139.18.182.15.126.176.095 7.542 2.165.988.206 6.323.808 9.416 1.211M383.368 452.275l1.228 1.05M383.368 452.275l-5.059-4.52M330.556 427.207l.26.22.176.15 3.122 3.882M348.95 381.891l-.702-1.128-.263-.471-.155-.289-.192-.435-.135-.357-.247-1.1-.359-3.452-.032-.317-.06-1.203-.02-.214-.056-.166-.087-.23-.841-2.296-.072-.087-.092-.044-.127-.027-.343-.02-.212.004-.227.024-.14.036-.76.265-2.99 1.393-1.826.982-.171.13-.137.116-.048.06-.02.067-.008.074.4 2.545.08.618.119 1.472.327 9.042" clip-path="url(#p1a5c052a13)" style="fill:none;stroke:#000"/><path d="m349.104 382.639-1.908.824-4.23 2.066-3.412 1.354M410.406 403.532l-2.43-1.598-6.052-4.354-6.13-4.593-1.563-1.195-6.227-4.481-12.45-9.014M348.95 381.891l-.06-.716-.048-.293-.087-.372-.076-.242-.144-.356-.434-.978-.096-.237-.056-.278-.143-1.377-.056-.57-.072-.435-.478-2.051-.016-.245.055-.301.288-.57.207-.246.295-.15 1.53-.776 2.2-.784 2.27-.847.163-.06.12-.083.107-.11.056-.127v-.127l-.028-.166-.14-.305-.295-.3-.757-.472-.072-.051-.1-.107-.055-.119-.694-1.694-.103-.266-.037-.198-.02-.197.045-.464.096-.201.123-.16.338-.26.232-.091 2.675-.923.135-.039.136-.012.227.04.263.142 1.746 1.683 1.447 1.243 1.396 1.274.653.539.152.09.23.093 1.125.414 9.886 7.213 2.476 2.03" clip-path="url(#p1a5c052a13)" style="fill:none;stroke:#000"/><path d="m354.933 395.406 2.432-1.67 1.208-.836 2.902-2.355 2.08-1.687 3.333-2.92 4.728-4.3.355-.293.235-.15.32-.25.203-.134.408-.296.084-.079.096-.095.105-.112.782-.927.31-.313.164-.158.319-.237.558-.297M427.095 410.75l-.5-.179-.222-.043-.321-.007-.373.02-.435.104-.269.096-.205.064-1.746.82-.183.06-.283.011h-.231l-.292-.004-.21-.036-.328-.102-.406-.206-.662-.396-5.119-3.77-4.904-3.65M479.75 392.762l-1.264-1.508-2.592-2.787-1.73-1.861-4.265-4.956-5.026-5.93-2.297-2.38-2.396-2.545-2.52-2.881-.27-.389-.14-.233-.267-.444-.135-.249-.24-.388-.127-.174-.148-.226-1.447-1.619-4.329-5.162-4.52-5.407-2.336-2.55-2.01-2.153-1.877-2.277-1.614-2.066-1.132-1.596-.754-1.124-1.475-2.19-1.227-1.642-.168-.178-.151-.15-.745-.812" clip-path="url(#p1a5c052a13)" style="fill:none;stroke:#000"/><path d="m427.095 410.75.661-.242 4.018-1.41 7.925-2.706 11.588-3.951 6.71-1.79 5.955-1.44 1.3-.412 1.753-.658 9.145-3.816 3.6-1.563M403.735 328.423l-.176-2.48.016-4.481.056-.435.018-.11.045-.27.454-1.11.487-.95.319-.419 1.603-1.496 1.426-1.275.216-.221.215-.214.08-.23-.024-.57.016-.348.072-.214.111-.166.415-.254 1.522-.835.164-.142.128-.131.087-.131.092-.194.071-.245.112-.333.168-.428.757-1.258.143-.333.04-.237-.056-.293-.239-.491-.12-.373-.23-.823-.423-.898-.1-.19-.139-.246-.662-.756-.534-.633-6.06-9.217-.207-.57-.239-.617-.781-4.735-1.013-3.975-.366-.918-.256-.404-.18-.267-.135-.123-.195-.125-.47-.118-3.66-.634-.454-.15-1.156-.523-.606-.316-.606-.364-1.029-.713-.996-.704-1.347-.959-4.345-3.531-.734-.483-2.073-1.045-.278-.071-.559-.072-.43.072-.28.11-.278.19-.264.278-.844 1.25-.264.207-.207.079-.28.016-.413-.064-.519-.238-3.46-1.741-.614-.38-1.427-.934-10.142-8.377M366.683 224.404l-.548 1.132-.028.127-.02.138-.004.131.012.139.16.415.047.13.132.207.403.356.123.08.088.043.163.035.594-.004.096.028.096.044.1.063 1.215 1.132.746.804.075.146.092.218.08.63-.056.376-.104.34-.446.657-1.204 1.346-.136.238-.183.277-.223.475-.176.396-.111.38-.056.404-.016.372.008.902.135.594.065.356.07.317.04.42.073 1.386-.088 1.148.016.269.032.134.112.285.159.246 1.746 1.52 3.779 3.239 1.1.91.9.861.1.137.032.094.016.082.005.079-.037.1-5.409 5.828-1.451 1.631-1.475 1.71-2.05 2.637-.493.642-.359.514-.263.499-.343.554-.407.507-.909.784M225.07 343.165l.28.548 3.591 7.574 1.388 3.048.199.602.183.443.191.396 2.926 6.342 1.715 3.389.071.158.076.138.167.313.037.25.187.922.04.174.047.178.164.293.359.495.884 1.9M235.263 339.815l.144.49.183.436.327.68 1.451 3.01.702 1.314.223.775.24.887-.447 4.513-.797 4.909-.048.49.032.571.494 2.233.08.554-.08.95-.207 1.362-.048.728v2.518l.191 1.868.064.76-.192 1.465M229.754 327.345l.862 1.71 1.267 2.747 1.643 3.769.893 1.955.446 1.156.398 1.133" clip-path="url(#p1a5c052a13)" style="fill:none;stroke:#000"/><path d="m225.07 343.165.985-.508 2.544-1.932.382-.206.406-.15 1.165-.317 1.866-.396.374-.07.303-.025.303.047 1.865.207M225.09 316.193l.431.914 1.547 3.817 1.291 3.262 1.395 3.159M215.655 324.245l2.962.661 2.124.592 4.665.994 4.348.853M225.09 316.193l-.263-.685-.55-1.346v-.277l.048-.293.056-.396.247-.895.048-.277-.016-.277-.135-.815-.12-.808.048-.285.063-.237.152-1.29.032-.294.175-.689.032-.34-.064-.222-.072-.182-.11-.127-.16-.103-.303-.071-1.85.23-.295-.04-.215-.095-.399-.182M215.655 324.245l-4.043-7.76-3.862-7.51" clip-path="url(#p1a5c052a13)" style="fill:none;stroke:#000"/><path d="m225.09 316.193-.864-.268-.214-.087-.15-.053-.765-.42-1.682-1.029-.247-.095-2.95-1.457-.462-.221-.45-.17-.942-.294-5.537-2.043-.286-.098-.22-.12-.71-.415-.215-.087-.775-.265-.131-.022-.13-.022-.14-.011-.47-.04M225.07 343.165l-4.867-9.803-4.548-9.117M349.104 382.639l1.564 2.122 1.271 1.584.1.139.072.13.088.182.239.55 1.363 5.056.096.226.06.13.626.99.127.214.056.138.072.218.044.213.051.875M349.104 382.639l-.154-.748M415.957 424.283l.306.057.108.012.103-.028.08-.072.981-1.809.131-.158.466-.423.12-.076.176-.02.131.016.152.056.167.127.67.697 7.41 7.544 3.652 3.737 9.177 9.398 3.531 3.515 1.818 1.956 1.22 1.084.454.372 3.158 2.265 4.967 3.246 2.48 1.726.461.364.375.309 1.563 1.37 2.83 2.454 2.05 1.725 1.865 1.647 1.538 1.536 1.898 2.074 1.327 1.572 1.806 2.482 4.074 5.447 15.6 21.252M637.27 245.342l-1.356.673-2.965 1.45-1.874.95-1.89.965-3.348 1.489-4.062 1.928-2.22 1.072M616.672 255.164l.75-.273.578-.23.685-.348.87-.444M581.004 426.729l-1.337-1.835-.717-1.172-.758-1.639-1.387-4.061-2.663-5.408-.822-1.282-5.25-5.543-.82-1.096-.307-.582-2.671-6.674-2.001-5.914-.928-2.008-.787-1.531-1.036-1.584-1.028-1.211-2.56-2.494-1.57-1.813-.383-.487-.311-.637-.2-.602-.085-.576-.281-2.605-.078-.522-.143-.467-.198-.39-.354-.57-.195-.575-.762-2.656M570.287 359.458l-1.894 2.177-2.22 2.233-4.122 4.425-.807.74-.405.295-.358.212-.383.206-1.706.645-.574.175-.458.087-.49.018-.447-.009-.987-.031-1.194.002-2.87.162" clip-path="url(#p1a5c052a13)" style="fill:none;stroke:#000"/><path d="m535.443 369.538.77 1.376.406.793.186.206.234.095.304.018.383-.062.992-.24 8.883-1.83.255-.026.247.009.31.09.264.206.38.378.194.157.219.096.273.047 1.629-.056M570.287 359.458l1.136-1.1M586.043 359.438l-2.274-.032-2.484-.004-3.456.075-2.113-.055-.631.02-.76.075-.972.174-.788.061-.793.006-.786-.098-.699-.202M567.034 357.158l.074.187.118.185.16.16.102.089.238.2 1.923 1.146.638.333M567.034 357.158l.722.261.77.198 2.897.74M579.472 348.165l-.35.85-.292.562-.722 1.27-1.523 2.288-1.618 2.206-.638.748-.622.633-.723.62-.588.39-.685.404-.288.221M616.672 255.164l-2.974.978-4.516 1.401M535.838 206.379l.53.46.462.181 1.267 1.061.694 1.014.566 1.172 1.144 2.133.204 1.33-.056.682-.387 1.195.155.653.898 1.897.063.74.076 2.478.554 1.291 1.232 2.236.586 1.628.626.847.49.843.311.602 1.144 1.56.65.538.562.396.358.497.475.94.917 1.164.39.36 1.503 1.052.315.116 5.756 1.267 1.607.396 1.897.515.834.198 6.25 2.636 1.015.505 3.625.318 2.205-.197 1.59-.357 2.01-.673.896-.04 1.18.206 2.492.602.584-.051 1.341-.404 1.559-.147.514.024.574.158 2.185.875 3.785 1.339 2.042 1.165.597.139 1.723.276 1.59.672.743.499.825 1.037 1.052 2.217 1.746 2.17 3.54 2.953 1.567 1.793.339 1.1-.048.907" clip-path="url(#p1a5c052a13)" style="fill:none;stroke:#000"/><path d="m629.216 282.394-1.047-.884-.367-.444-.227-.316-.256-.543-1.363-3.25-2.352-5.59-1.124-2.739-.502-1.156-.638-1.235-.9-1.718-1.189-2.55-2.08-4.529-.55-1.124-.14-.336-.032-.218v-.187l.067-.193.156-.218M535.838 206.379l-.467.305-.467.071-.342.083-2.121.689-.742.273-.422.11-.335.057-.39.003-1.105.044-.964.053-.26.05-.241.12-.353.282-.964.86-.59.476-.371.257-.315.265-.853.737-.29.218-.264.17-.538.261-.846.499-.797.594-.446.466-.423.65-.407.65-.406.538-.558.443-.638.436-.869.53-.909.476-1.06.45-.93.443-.665.381-.526.364-.773.578-1.738 1.196-1.921 1.227-.997.634-.644.32-.351.228-.313.267-.605.562-1.428 1.283-1.459 1.267-.661.479-1.77 1.112-3.764 2.47-.183.167-.112.245-.111.293-.072.562.144 1.71-.008.428-.112.34-.9 1.71-1.795 4.45-.135.436-.088.404-.614 4.157-.112.308-.143.262-.287.3-1.762.864-.502.348-.478.388-3.413 3.159-.825.713-3.32 3.689-1.16 1.156-.61.542-.519.472-.439.257-.354.135-.518.241-.311.107-.563.139-.542.051h-.805l-2.678-.305M415.957 424.283l-1.436 2.44-3.125 5.463-.359.562-2.511 3.127-.255.317-.43.435-3.422 2.756-9.024 6.666M299.958 466.288l-4.05-.747-.909-.17-1.38-.195-2.067-.162-1.325-.06-1.307.032-1.077.072" clip-path="url(#p1a5c052a13)" style="fill:none;stroke:#000"/><path d="m299.396 464.613-1.619-.054-4.692-.388-1.77-.155-1.212.028-.255.02-.215.043-1.044.31-.144.067-.203.122-.399.452M427.095 410.75l-1.468.534-1.037.38-.502.222-1.235.744-.598.72-.28.404-.382.587-.693 1.143-3.166 5.635-1.777 3.164M240.855 215.679l2.046-6.945.937-3.347.561-2.696.75-1.348.608-1.162.14-2.231-.375-2.046 1.077-1.534 1.498-1.022 1.264-1.441 1.544-.698.843.14 1.17.79 1.638.047 3.757-.17M258.16 216.962l1.024.12 1.023.539.723.598.436.995M221.886 447.418l.837-.284.438-.044.486.016.495.067.666.178.665.25.582.312.45.309.467.396.263.292M366.683 224.404l.082-.202.016-.107v-.186l-.654-2.027-.056-.325-.008-.237.048-.293.088-.65-.016-.308-.08-.158-.08-.112-.997-.855-.135-.158-.095-.142-.567-.966-.095-.135-.136-.182-.111-.12-.87-.727-.143-.182-.12-.174-.183-.286-.223-.308-.128-.12-1.147-1.298-.224-.372-.112-.293-.514-1.255-.071-.115-.088-.134-.522-.7-.072-.092-.303-.356-.247-.254-.247-.221-.73-.606-.135-.123-.168-.178-2.077-2.91-.223-.324-.104-.23-.04-.214-.16-1.235-.04-.15-.055-.127-.43-.934-.064-.198-.016-.198.032-.616M366.683 224.404l.967-1.398.139-.134.175-.099.582-.206.156-.028.168-.012.829.091.972.111.291-.004.244-.023.25-.064 1.392-.87.167-.187.427-.558.414-1.227.064-.15.096-.155.267-.246 1.013-.792.12-.146.43-.507.131-.138.144-.095 1.264-.582.19-.044.232-.004.22.016.426.174.131.076.12.075.57.835.805 1.22.391.506.255.11.263.064.24.024.135-.031.358-.12 1.428-1.29 2.192-1.947 1.994-1.83.749-.66.578-.52.115-.186.06-.182.052-.19.008-1.42.08-.325.104-.262.119-.23.486-.577 1.65-1.536.208-.135.287-.15 1.937-.436.343-.016.295.024.526.15 1.475.959.423.174.399.095.278.063.582.008.44-.127 1.968-.847.686-.222 1.459-.451 2.288-.784.343-.119 1.459-.855.924-.467 1.52-1.168.71-.49 1.175-.784 2.503-1.81 1.81-1.39 1.056-1.005.53-.483.475-.202.215-.067.204-.032.155.008.24.02.546.067.641.072.323-.052.331-.099.526-.324.128-.116.136-.174.127-.178.339-.649 1.108-1.591.41-.464.622-.64.244-.167.558-.396 2.013-.982.239-.198.9-.65.2-.174.343-.296.69-.503.259-.13.243-.08 1.188-.317 1.714-.697.171-.047.251-.063.997.012M217.482 239.642l13.188 11.962.81 2.318.389 1.351 1.393 1.59M412.416 335.096l-.853-.99-.023-.103.007-.075.048-.067 2.093-1.517 1.51-1.16.738-.474.132-.084 1.112-.494.16-.064.1-.063 1.008-.713.319-.202.155-.08.144-.056.11-.022.136.002.128.041M254.898 449.036l.225-.612.044-.245.048-.373M299.958 466.288l-.07-1.61M299.888 464.677l-.492-.064M304.337 466.658l-.995-.714-.542-.332-1.682-.665-.383-.143-.24-.047-.607-.08M299.396 464.613l.496-3.715M304.863 461.061l-.293 3.569-.233 2.028M330.943 433.143l.065.61.34 4.44" clip-path="url(#p1a5c052a13)" style="fill:none;stroke:#000"/><path d="m328.256 438.1.214.028.142.012 2.737.053M371.979 464.085l1.937.759 5.278 2.042 9.137 3.207 6.825 2.731 1.765.542 2.488 1.018 2.806 1.259 4.397 1.923 8.34 3.532 5.82 2.707 8.004 3.151 2.854 1.211 1.316.618.184.135.238.221.128.262.095.34.049.356-.4 5.344-.477 4.03-.112.316-.12.238-.24.135-.206.063-1.898.11-.35.127-.271.167-.184.23-.773 1.424-.175.167-.184.205-1.722 1.148-.303.198-1.284.99-.271.12-.19.023-.248-.048-.502-.135-4.744-1.322-5.063-1.456-1.937-.634-.423-.118-4.464-.515-6.434-.768-3.6-.214-1.535-.384-.203.004-.152-.004-.856.17-.774.238-.646.04-.287.008-.327-.024-1.794-.325-3.045-.333-1.085-.292-.262-.198-.192-.238-.151-.293-.096-.285-1.084-3.634-1.02-2.184-.168-.301-.248-.159-.27-.143-.981-.347-.502-.048-.407.08-.367.118-.223.166-.135.182-1.053 1.94-.454.593-.351.143-.359.11-1.323.064-1.053-.126-4.943-1.505-4.883-1.034" clip-path="url(#p1a5c052a13)" style="fill:none;stroke:#000"/><path d="m352.444 476.89.24.21.097.094.175.222.247.333.232.411.199.38.303.65.096.285.095.316.487 2.597.15.404.192.356.558.641 4.218 3.95 4.194 3.477.685.332.574.237.65.138" clip-path="url(#p1a5c052a13)" style="fill:none;stroke:#000"/><path d="m352.444 476.89.05 2.086.614 4.821.533 3.959 1.053 9.183.064.08.128.023.207-.063 5.126-2.256 4.114-1.79.463-.213 1.04-.797M403.735 328.423l1.044-1.078 1.171-1.315 1.404-1.765.27-.31 1.26-1.131.144-.19.08-.159.135-.412.104-.23.2-.268 1.195-1.552 1.124-1.457M230.275 414.122l1.122-.478.168-.056 1.092-.118 1.283.086.247-.007.2-.056 2.168-.633 1.172-.642 1.937-.771.614-.25.152-.051.104-.012 1.662.052 3.042.098.223-.004 5.696-.178M337.42 467.176l3.15 1.064.475.206.307.186.41.34M525.07 374.079l10.373-4.54M536.802 409.63l.536-.024.516-.052.48-.1.539-.147 1.322-.58 3.275-1.55.174-.096.103-.084.042-.076.02-.1-.011-.097-.047-.16-1.651-3.114-.758-1.279-3.348-6.369-.781-1.43-6.02-9.761-2.77-4.913-3.353-5.619M535.443 369.538l28.06-12.443M563.503 357.095l.882-.056.787-.022.846.04 1.016.1M611.904 367.521l-.458-.075-.446-.138-1.148-.503-2.257-.871-2.981-1.093-1.5-.704-1.291-.424-1.65-.4-2.925-.586-.79-.194-.862-.28-.67-.297-.601-.277-1.278-.695-.602-.254-.805-.235-.83-.204-3.517-.695-.632-.1-.618-.058M635.498 367.585l-.732-.07-.508-.114-.664-.176-1.483-.515-1.032-.441-1.017-.373-.743-.193-.871-.141-1.156-.024-1.06.036-2.32.273-1.336.182-3.253.594-5.553.82-.672.066-.779.034-.415-.022M102.26 173.12l.472 1.198 1.01 1.312.962 1.036.75.08.881-.906 1.01-2.331.653-.34.929-.017 1.467.276 4.778 1.741M189.832 240.74l-.481.299-.584.225-.907-.354-1.557-1.223-12.058-8.89-11.702-8.306-5.937-4.976M178.567 257.842l-3.32-2.206-1.503-.497-1.824-.924-.716-.782-1.36-3.553.43-2.772.072-3.169-10.806-3.802-1.11-.497-.321-.711-.573-8.012-.93-13.402M189.832 240.74l-.292.493-.805 1.37-1.475 2.066-.263.444-.135.269-.16.364-.223.435-.183.309-.271.396-.654.753-.965 1.227-2.886 4.362-1.61 2.439-1.343 2.175M240.855 215.679l.565.923M240.855 215.679l-.406.655M241.42 216.602l-.97-.268M248.973 218.996l-.662.06-3.705-1.196-.904-.39-2.282-.868M229.248 218.883l3.407-6.215.531-.576.797-.12.677.432 1.087 1.032 1.063.96 1.378 1.2 1.618.887.643-.149M258.16 216.962l-1.898.39-1.295.628-1.355.538-1.025-.03-1.445-.419-1.145.15-1.024.777" clip-path="url(#p1a5c052a13)" style="fill:none;stroke:#000"/><path d="m244.663 228.509 2.923-6.287 1.039-2.471.348-.755M217.482 239.642l2.681-5.202 1.208-2.16 7.877-13.397M244.663 228.509l-4.566-2.976-5.896-3.07-1.788-.865-1.908-2.327-1.257-.388M214.39 245.257l1.326-2.409 1.766-3.206" clip-path="url(#p1a5c052a13)" style="fill:none;stroke:#000"/></g><g id="PatchCollection_1"><path d="m154.751 694.818 4.21-4.497 2.487-5.383-.383-3.103.037-2.707 2.227-3.785 2.843-2.074 3.919-1.377 7.191-1.52 17.077-2.977 10.97-2.311 12.247-1.299 7.016-1.71 10.428.032 13.745 4.465 18.943 8.708 3.257-.174 3.057-.744 1.44-1.884.542-.444.702-.475 5.516-3.071 1.18-1.362v-1.266l-.637-1.14-1.34-1.615-1.466-1.33-.32-.57v-1.362l-.223-.76-.35-.57-.26-.712-1.941-.586-4.437.933-5.166-1.963-5.103-2.533-4.337-4.243-1.431-3.024-1.248-4.64.228-8.533 1.366-3.753 2.615-5.257 2.907-3.784 2.169-4.306 4.81-5.463 2.907-2.58 5.23-1.331 4.939-.712 6.059.38 5.203 1.979 6.15 3.467 6.096 4.26 3.663 3.53 2.65 3.69 5.067 3.34 7.845 1.583 3.8-.49 6.405-1.853 12.857-3.974.41-.903 2.651-1.44 3.635.506 2.197-.775 4.437-4.291 4.365-2.233 4.883-2.01 6.342.174 6.57.57 4.656 1.647 5.102 3.8 6.542 4.068 10.232 4.038 6.67 1.03 7.298.047 5.74-1.9 5.232-3.737 2.55-2.343 3.736-6.064.41-5.083-2.678-10.133-3.445-10.64-.893-9.627.383-4.624 2.396-5.304 3.508-5.51 4.592-4.497 5.166-2.026 7.107-1.536 7.017.823 8.124 1.77 16.093 6.335 4.202.714 3.072-.502 2.248-1.372 2.072-4.47 2.325-3.298 2.182-2.424 2.899-2.594 5.98-1.949 10.147-1.563 3.717.146 5.844 1.164 5.005 2.711 4.86 5.839 8.704 17.952 7.413 13.396 8.879 11.723 6.769 3.254 4.8 1.833 3.992.863 3.54.17 3.465-.92 8.88-7.118 24.957-23.653 11.055-8.917 11.736-6.587 19.346-6.648 4.892-2.236 7.208-3.42 3.858-2.122 3.382-2.436 4.65-4.744 3.196-8.899-4.319-10.697-5.191-20.774.012-13.775 3.106-18.33 2.781-9.216 1.87-7.131.782-2.422-.032-.76-.223-.127-.542-.095-.989.064.191-.349.574-.285.734-.031.415-.032.605-.095.766-.412 1.084-.253 1.89-1.12 4.392-4.232.232.395 1.778-1.662 2.598-3.615 3.22-1.678 3.11-1.77 4.015-2.85 1.403-.46.736.27 1.672-1.062.032-1.013-.095-.602-.255-1.362.031-3.863.542-1.52 1.308-4.592 5.325 1.33.256 2.311.19.855 2.106 1.11.765.6.67.982-.064 2.186-2.105.633.096.665.16 1.425 1.087.964 1.466 1.71 3.11 1.396 3.906.757 6.634-.887 3.875.004 10.205 2.153 3.253 2.343 3.507.38 6.203 2.087 9.806 4.817 10.269 9.501 7.989 5.887 2.551.507 3.827-.317 4.273-1.964 4.21-2.596 4.257-1.834 1.276-2.723 1.345-1.904.21-.152.026.355-.057.49-1.842 5.598-1.403 5.494v5.257l.957 7.347 1.818 1.837 2.168 1.267 4.751 1.836 9.95 1.52 12.757-1.52 5.549-.886 6.57-1.773 8.084-4.276 2.206-2.118 2.338-2.98 1.206-3.274 3.522 1.516-1.03.49-.956 1.076-.431 1.454.43 1.207 4.975 3.863 1.483 1.517.83 2.027 1.403 8.36.749 2.22 1.483 1.137 1.004 1.334.192 1.9-1.515 2.593-2.04 2.09-5.438 2.853-3.875 1.707-7.335 4.307-9.52 3.297-13.632 2.15-12.645 1.46-4.066 1.454-1.802 1.966-.494 2.657.303 2.093.195.614-2.747.197-1.148-2.9-.255-3.04-.685-2.158-.973-.947-3.89-1.33-10.27-2.85-9.614-4.5-7.224-4.937-9.695-5.573-1.977-1.33-8.53-3.93-2.95-1.264-2.68-.443-1.658.253-.685 1.264-.128 1.393 2.025 3.993.399 4.43-1.403 5.7-3.636 7.284-1.61 5.704.829 3.61 3.061 3.61 3.588 2.91 4.066.384.83 2.09-4.274.38-2.615-.95-2.854-1.903-3.907-4.114-2.79-4.247-.845-3.037.717-3.93 1.961-4.493 3.572-3.8-.558-8.934-1.291-4.24 2.12-8.11-2.87-3.928-6.57-7.22-9.2-8.484-4.465-3.61-6.505-2.66-6.107-.384-5.04 1.078-5.357 3.483-3.842 5.577-2.153 6.963-.574 11.971.638 8.677 1.211 4.18 1.531 15.898-2.886 16.533-3.508 11.084-3.444 7.284-7.064 7.534-3.19 6.713-3.252 4.623-.127 5.954-.702-.824-2.552 4.117-2.04.76-.319-.57 1.722-.76.765-1.14.622-2.783 1.212-1.837.319-3.8 1.659-2.787-10.27 6.904-49.784 23.609-16.205 14.589-9.308 5.908-7.173 2.84-4.845 1.508-6.095 1.122-5.932.633-3.026-.111-6.888-2.533-6.378-3.04-1.184-.017-7.562-9.17-8.769-9.488-5.268-8.202-2.526-4.678-.861-3.714-3.404-8.103-1.692-4.199-3.185-4.153-2.047-1.178-2.487.17-4.704 3.256-6.166 4.308-7.621 4.603-6.955 4.285-4.147 1.285-10.397.836-5.664-.424-8.084-2.363-6.43-2.844-6.505-3.547-3.025-.997-4.055 1.63-2.87 1.077-3.408 3.31-.738 5.177.51 4.94 1.312 5.336 2.133 7.141.637 4.813.83 6.08-.793 6.476-3.098 9.801-2.898 4.64-2.778 2.707-4.876 2.359-4.245 2.834-5.896 1.916-6.733.617-7.91.697-8.1-1.267-5.485-1.52-6.632-3.166-10.461-8.234-3.572-1.203-2.387.269-3.735 1.884-6.379 4.307-5.676 3.926-3.636 3.294-2.706-.554-6.57 1.963-9.348-.966-6.788 1.473-5.84 1.63-.858 1.22-2.523.46-.06-.935-.86-.728-5.65-1.6-7.08-3.863-3.125-3.357-3.599-3.72-1.722-3.215-.893-1.361-1.02-1.678-1.483-1.932-2.918-2.328-4.465-1.314-3.492-.174-5.087 1.662-4.72 3.167-7.02 6.46-3.663 4.83-1.057 6.19 1.249 4.956 3.408 4.227 2.615 2.502 8.291 3.198 9.567 2.47 5.103 3.357 2.104 1.773 1.149 2.85.829 2.597.382 4.116-1.048 6.223-1.885 3.404-1.85 2.406-2.806 2.724-4.301 3.309-5.841 1.82-8.1.76-5.294-.696-4.72-.887-1.785-.696-3.956-1.267-4.209-.823-3.54-3.167-2.136-2.153-3.19-1.647-5.612-1.583-6.378.316-13.039.84-2.105-.127h-1.052l-.893-3.42-.414-.728-1.185-.681-1.941-.681-1.562-.158-2.68.285-2.806.57-3.093.475-1.563.126-1.403.824-.988.792-1.34 1.583-.861 1.52-6.255 5.557-7.08 4.813-12.056 3.42-5.478 1.798-8.9 7.94zm8.71-6.888.32.76 5.294-.633 3.508-1.266 5.166-1.71 3.38-1.457 3.444-3.23 4.975-4.053 1.276-1.71.574-.95.319-1.14-.112-.76-.653-.364-1.356.348-1.642.143-6.634 1.108-2.423.285-2.169.063-1.722.158-1.403.444-1.18.539-4.433 3.451-.574 1.077-.829 1.266-1.116 1.584-.319 1.013-.542 1.393-.542 1.299-.383 1.171-.16.538zm.663-12.017-.575.594-.414.562-.2.436-.047.253.239.602.51-.024.702-1.116.678-.135.526-.308.557-.484.367-.855-.446-.324-.542-.04-.662.3zm93.495.047.83.08 1.307.047h1.004l.574-.064.096-.538-.781-.902-1.372-.871-7.16-3.958-2.423-1.046-2.169-1.076-1.243-.665-5.134-1.837-4.401-1.203-4.37-1.045-1.562-.127h-1.276l-1.467.063-1.945.19-1.627.254-.893.317-1.116.38-.988.41-.51.571.095.539.24.475.956.601 1.515.032.925.079 3.555.047 3.205.396 3.142.618.86.222 6.618 2.105 1.372.206.813.38 2.471 1.568 2.615 1.06 4.64 1.821 1.914.238.989.38zm18.8-2.755-.224.918 1.659.095 3.822-2.01 3.955-2.217 2.04-3.61.383-4.053-1.148-2.597-1.531-3.23-2.296-2.217-3.349 1.425-.059 1.156.99 2.565v.697l.158.633.447.507 1.116.792 1.913 3.166v.665l-.255 1.362-.255.697-1.116.886-5.58 3.261zM-256.625 891.636l-1.841-4.209 1.258-.515 1.753-.443 4.242-1.235h1.435l1.531.158.797.127.67.19.861.158.67.063h2.997l.67-.158.638-.222 1.499-.475 4.847-.664.734.095.765.063h.86l.83-.063.797-.222.67-.159.702-.19.797-.094.893-.158.702-.222 1.562-.222.638-.222 5.9-2.311.67-.095 1.307-.443.861-.348 1.18-.444.606-.348.638-.317.606-.38.574-.443.638-.253.605-.665 1.021-1.299 1.499-3.198.414-.57.383-.601.32-.665.382-.601.542-.508.574-.506.479-.475.541-.475 1.18-.823 1.244-.76.574-.38.542-.411.638-.412.542-.412.447-.538 2.264-2.501 1.435-1.33.798-.634.382-.538 1.5-.855 1.53-1.203.574-.412 1.69-2.185 4.847-5.92 2.966-2.787 3.763-3.325.957-.824.797-.475.702-.347.35-.095 2.01-.887 2.455-1.393 6.634-3.072 1.084-.697 1.307-.538.83-.031 1.052-.095 1.053-.349 1.625-.696 1.245-.665 8.323-3.167 5.325-1.963 8.26-3.546 1.563-.697 2.392-1.203 9.631-4.75 6.187-2.818 11.353-5.953 2.328-1.266.573-.507.607-.285.67-.222h.733l.733-.158.702-.095.733-.253.606-.349.575-.411.597-.412.583-.372.598-.364.605-.071.606-.119.742-.183.542-.284.67-.254.637-.316.734-.444.605-.316.638-.412.574-.411.798-.253.701-.16 3.827-1.487.606-.317.606-.285.574-.38.702-.19.606-.317 1.403-.633.67-.253.733-.317.67-.253.574-.349.701-.316.542-.475.575-.412.606-.316.669-.285.734-.412.637-.412.51-.411 2.743-1.33.734-.285 1.467-.475 1.818-.792.701-.38 1.276-.57.606-.348 1.467-.602.542-.348 5.74-2.881 2.966-1.046 1.403-.601.574-.412 1.467-.823.638-.253 5.23-2.882 5.772-2.217 5.326-2.5 8.356-4.212 18.273-8.645 6.155-3.072.925-.506 2.36-.855 3.922-1.552 9.694-4.75 5.358-2.754 2.392-1.298.702-.665 1.148-.982.925-1.14.382-.602.415-.76.35-.57.51-.475.958-1.013.446-.538.35-.57.224-.633.287-.697.383-2.311.191-1.014.255-1.045.925-2.375 3.7-5.541 3.444-6.998.574-1.298 1.34-2.502 4.368-7.473 4.975-9.627 2.934-4.686.255-.633-.128-.824.638-.348.638-.728 2.742-5.225.224-.887.064-.697-1.148-.443-1.212-.221-.383-.317.032-.349 1.244-.031.637.095.893.031 1.053-.918.574-.316.574-.349.765-.918.224-.665.318-.57 1.021-.887.638-.253.574-.317 1.403-.475.574-.285 1.308-.475.701-.126.67-.032h.765l2.105.19.67.126.701.254.638.254 1.307.22.607.413.51.696.542.507.446.475 1.053 1.33.383.538.35.57.255.602.575 1.171.893 1.14.478.57.606.507.606.412.605.348.638.127.83.032.701.095.702.22.574.318 1.403.728 1.212.76.606.507.446.506.51.507.51.601.511.444 6.123 3.515.574.348 5.932 3.832 7.653 4.497.862.475.637.253 1.244.633.606.411.638.507 1.084.982.638.506.765.38.638.444.701.317.638.126.766.222.637.095.638.253.67-.063.702-.158.67-.254.414-.538.255-.665.574-1.647.319-.601.35-.602.447-.57.479-.57 1.786-2.565.542-.38.542-.412.574-.348.606-.412.67-.19.765-.126h.702l.637-.032.702-.127.638-.475-.192-.664-.478-.444-.574-.38-1.435-1.203.447-.823.637.253.543.412.637.38.542.38 1.244 1.203.478.57 1.308.57.797.38.67.285.638.031h.797l.701-.031 2.552-.665.733-.254 1.308-.601.542-.538 2.738-1.853-1.113 4.417-2.932 1.678-1.786.254-4.21-.443-2.806.443-1.18.032-.893-.285-1.468.127-1.753 1.297-2.679 1.742-1.659 2.09-1.753 2.913-.702.76-1.754.76-3.508-.348-.478.411-1.435 4.18-1.284 2.932-.28-2.013 1.755-5.162.127-.95-.35-.601-3.731-2.28-20.474-13.015-5.804-4.18-1.531-.823-1.786-.76-2.998-.633-1.403-1.077-1.722-1.52-1.786-3.356-.447-1.14-.892-.824-1.276-1.013-2.551-.76h-2.232l-2.743.696-2.296 1.267-2.169 1.9-8.61 15.263-14.542 27.423-.574 1.71.127 1.393-1.722.506-2.169 3.23-.829 2.28-.446 1.837-.574 4.243-.702 2.153-1.85 2.533-1.977 2.153-2.36 1.647-5.102 2.533-1.34.254-12.82 6.396-6.378 2.977-15.754 7.853-13.139 6.332-22.77 10.513-5.485 2.723-1.53.824-9.631 4.56-5.805 2.216-9.057 4.56-9.184 4.433-1.02.76-1.021.823-1.786.76-1.18.539-1.028.284-.804.154-.759.202-9.687 4.71-3.316 1.647-2.488 1.773-5.55 2.47-1.402.887-5.677 2.786-7.27 3.673-4.784 1.71-1.276.57-5.103 1.9-14.924 5.89-1.659.316-1.276.38-2.614.887-1.149.57-3.635 1.71-1.212.696-3.444 1.393-1.02.824-2.488 1.646-1.148.57-1.084.76-3.317 3.483-1.084.697-1.148 1.14-.83.95-.892.886-1.021.95-.765 1.077-.957 1.14-1.084.76-.957 1.013-.765 1.076-.83.95-10.396 9.753-1.084 1.076-1.02.824-.766 1.076-.702 1.583-.383 1.33-.51 1.457-.638 1.203-.765 1.013-1.02 1.014-1.914 1.203-2.232 1.266-1.148.507-1.148.443-1.276.633-1.276.444-1.211.38-1.212.633-1.212.507-1.212.38-1.212.506-2.933 1.71-1.276.317-1.212.57-2.488.633h-3.763l-1.34.063-1.275.19-1.212.443-1.275.254h-1.34l-1.467.063h-8.355l-1.403.127-1.467.19z" clip-path="url(#p1a5c052a13)" style="fill:#00f;fill-opacity:.8"/><path d="m386.665 609.81.574-.982.19-1.583.224-1.362 1.244-1.235.86-.538.543-.729.574-1.203.414-.317.096.666-.223.696-.51.792-.893.855-.83.886-.286 1.014-.064 1.457-.287 1.583-1.084 1.298-.479 1.535-1.63-.577.164-.388.701-.823zM371.644 607.625l.574-1.33.479-1.52.031-1.425.064-1.298.542-.982.765-1.267.862-.38 1.02-.253.989-.285.797-.633.893-.412.064.348-.191.412-1.18.728-.734.19-1.148.254-.83.411-.86 1.457-.287 1.33.287 1.393-.35 1.393-.48 1.742-.765 1.963.061 1.374-1.56-.043.32-1.236.222-1.234zM345.75 619.247l-2.25-.666-.924-.427-2.472-.602-4.162-2.343-.988-.87-1.085-.84-1.291-.792-.654-1.092-.909-2.154-.223-1.029.24-1.219.398-1.25.765-.73 1.834-1.218 1.69-1.108.893-.333.702-.475.574-.744.159-.855-.303-.728-.542-1.077-2.424-1.98-.605-.886-.415-.57-.367-.776-.255-.617-.287-.76-.829-.792.111-.206.032-.317-.159-1.234-.224-1.172-.159-2.327-.701-2.012-.415-1.029-.494-.87-1.627-1.79-.972-.554-.83-.332-1.116-.19-.59.11-.414.333-.83 1.25-.43.713-.207 1.188-.287 2.264-.479 1.757-.143 1.125-.478 1.662-1.132 3.183-.271.918-.463 1.647-1.212 1.63-.797 1.125-.91.823-1.434.253-1.531-.316-.94-.523-.431-.617-.431-1.22-.239-2.438-.319-.982-.191-3.768.319-.697.016-.981-.271-1.187-.335-.871-.622-1.014-1.276-.253-.893.285-.701.38-1.499 1.044-1.18 1.11-.35.632-1.436.475-1.69-.158-.542-.222-.83-.506-.478-.665-.542-.792-.51-1.235-.255-.728-.32-.475-.542-.412-.605-.443-.383-.697-.415-1.045-.127-.855-.447-1.045-.51-.443-.67-.602-.574-.539.064-.854-.16-.666-.796-.475-.575-.094-.988.38-1.595.823-1.211.095-.32-1.235.16-1.394-.542-1.203-.702-.76-.86-.982-.224-1.456.702-.982 1.626.127 1.977.285 2.169-.222 2.52-.823 1.785-1.045.861-.855.957-.032.67.76v1.109l.064 1.393.35 1.71-.128 2.818-.925 1.235-.733.57-1.084.253-1.148.16-.606.759-.032.887.574.76.51.887.718 2.058.271.586.67.522.893.522.686.618.031 1.156.303 1.06.351.777.877.68 1.34.317 1.275-.142.765-.586 1.643-1.124.494-.586 1.196-.76 1.132-.428.861-.237 1.307.332.479.65.59 1.013.207 1.06.176 1.267-.112 1.093.032 1.14.207 1.6.064 2.422.064.791.16 1.093.286.84.542.854 1.117.554.876-.063.798-.348.765-.428.75-.744.558-.808.446-.523.718-2.216.287-.522.334-.792.08-.887.35-.982 1.006-2.976.048-.776.286-.792.016-1.678.255-.712.208-1.758.096-.712.605-.65.415-.601.287-.634.83-.316.717-.032 1.004.047 1.085.27 1.1.205 1.291 1.346.415.602.717.713.4.601.238 1.077.447 1.171.478.681.59.412.654.11.893-1.076.303-.665.414-.728.75-.475 1.068-.364 1.945.158h.941l1.116-.427.83-.57.909-.333 1.53-.032.798-.475.366-.823.686-.65.909-.253.638-.38.526-.696.175-.934.064-.871.654-.57.35-.554.144-1.79.223-.744v-.823l-.287-.887-.319-1.108.064-1.109.399-2.422.08-.665-.208-1.045-.064-1.568-.032-1.219.064-1.314.191.57.176 1.393.112 2.043.223 1.377-.175.998-.367 1.22.111 1.012.335.856.367.348.67-.412.287-.411.287-.713.335-.27-.096.46v.507l-.287.696-1.085.57-.223 1.805-.095 1.172-.255 1.267-.351.855-.861 1.456-.128 1.203-.829.887-.957.254-.892.633-.288.918-.67.633-.86.096-.958.063-1.403.633-1.498.697-2.583-.063-.67-.127-.622.016-.479.364-.653.871-.35.807-.48.824-.398.332-.606.127-.542.079-.319.254-.08.76.128 1.298.287 1.14.51 1.14.574 1.425.51.95.862.887 1.817 1.488 1.084.918 1.276 1.869-.128 1.456-.541 1.362-.798.981-1.403.76-1.18.697-1.34.823-1.18.95-.51.73-.127.95.064 1.487.67 1.14 2.965 2.312 1.308.76 1.754.823 1.53.634 1.34.728 2.71.855 2.743.95 3.508 1.615-2.651 1.44-.394-.664-.957-.745zM410.072 553.854l.128.887.35 1.045.287 1.013.607.919.19.981v1.299l.798.792 1.212 1.425.542.79 1.34 1.205.478.981v1.489l.478 1.044.479 1.109.701.506 1.499.887 1.435 1.204.989.696.988.254 1.627-.159 1.371-.095 1.818.285 1.371.349 1.85-.412 2.36-.38 2.164.047-.125 1.51-1.784-.195-1.308-.032-1.339.253-1.722.507-1.276.064-1.275-.38-1.212-.223-2.073.159-1.02-.095-3.86-2.597-1.18-.887-.988-.316-.542-.792-.414-1.71-.192-1.488-.733-.95-.798-1.14-2.073-3.484-.67-.982v-1.044l-.063-.76-.51-.729-.255-.76-.383-.507.35-.538-.78-2.232v-.618l.111-.364.287.016zM551.029 563.671l.032-.792-.287-.76-.67-.728-.542-.76-.67-1.33-.159-1.014-.128-2.28.32-.98.701-1.236.255-.222 1.53-.19 1.467.697.703.475 1.02.38.67-.697.191-.918v-.855l.096-1.108.51-1.077.956-.729 1.882-1.393.797-1.488 1.308-1.172 1.435-.475 1.116-.412.861-.443.638-.855.51-.855.16-.444.67.286-.32.76-1.275 1.741-1.531.412-1.53.823-1.18.919-.67 1.615-2.743 1.456-.733.57-.383 1.394v2.597l-1.085 1.013h-.892l-1.371-.475-1.085-.792-.925-.253-1.02.95-.51 1.488.095 1.362.638 1.52 1.116 1.678 1.02 1.616-.286 1.203-.638 1.013-1.63 1.474-.625-1.29 1.043-.31.447-.35zM526.473 543.12l.797-1.521.893-.981.702-1.14.988-1.52.958-.982 1.211-.666 1.404-.823 1.148-.506 1.116-.792 1.02-1.203.702-.856.638-1.994.765-1.458.702-.918.765-1.773.67-.317 2.264-1.457 1.116-.411 1.116-.539.861-.665 1.18-.031 1.116.031 1.659.317.989.253 1.913-.823v.538l-.447.792.064.855-.191.95-.542-.031-.479-1.172-.733-.539-1.276-.348-1.148-.19-2.647.665-1.69.475-2.169 1.837-.988 1.14-.606 1.172-.893 1.235-1.02 1.963-.224 1.615-.542.792-2.902 1.678-2.04 1.109-1.245.854-1.403 1.584-.702 1.425-.956 1.773-.415.855.191.729.56.804-.742-.147-3.717-.146 1.188-.607.447-.284zM641.216 553.696l-.638-.475-.988-.855-.288-.38-.191-.444-.542-.19h-.478l-.734.919-.925 1.077-.86.728-.99.411-1.658.76-1.211.032-1.053-.031-.797-.444-.957-1.013-.16-.919-.031-1.393-.064-.982.16-1.393.286-1.425.096-1.14-.032-1.71-.51-1.33-1.69-1.773-.797-.444-.67-.253-.893-.032-1.18 1.235-.606.19-.734.063-1.02.064-1.18-.064.127-.538h2.265l.701-.158.638-.412.287-.475-.223-.633-.733-.412-.51-.95-1.659-1.742-1.052-1.171-.766-1.14-1.084-.918-.638-.824-.35-1.932.16-.855.51-.918 1.753-1.267 1.371.095.575.412.765.317.925.285 1.148-.064.414-1.045.415-1.14.096-1.362-.192-1.108-.095-.981.031-1.11-.095-1.012-.925-1.71-.255-.254-1.85-.665-1.212-.95-1.212-1.108-.86-1.14-1.021-3.927-.351-1.71-.382-1.045-.607-.887-.478-.221-1.18-.222-.83-.285-2.646-.697-.893.159-.574.348-.925.348-.701-.063-1.069-.206.112-.27.638-.078.781.047.781-.238.383-.19.016-.411-.654-.523-.35-.475-.367-.807-.494-.823-1.005-1.932-1.037-.491-.813.285-.86-.032-.75-.3-.447-.032-.685-.08-.033-.427.607-.048 1.865.396.526-.079.83-.095 1.004.348.527.982.414.887.462.902 1.02 1.584.942.57 1.1.316 1.323.143 1.468.174 1.339.238.701.332.765.808h.351l.495.507-.08.617.127.966.288.855.319 1.742.446 1.757.606 1.393 1.77 1.727.59.427 1.052.333 1.164.554.622.522.957.84.558 1.757v1.742l-.191 1.425-.256 2.185-.032.855-.223.76-.35.665-.798.348-.988.158-1.244-.38-.798-.348-1.211-.316-1.882 1.172-.159.633-.191.633v.601l1.69 2.407.893 1.046 1.052 1.266 2.136 2.47.798.475.67.38 1.243.254 1.148.475 1.117.728.605.76.766 1.013.414.919.383 1.108-.064 1.045-.223 1.045-.733 4.212.191 1.045.414.886.702.475.989.19 1.18-.063.988-.697.862-.696.573-.729.447-.696.638-.887.638-.76-.033-1.235-.223-4.307-.159-9.342.319-1.488.318-1.108.83-1.172.765-.57 1.148-.444 2.01.064 1.34.158 1.657.095 1.914-.126 1.881-.412 2.041.221 1.403.475.574.476.766 1.14.446 1.615-.414 2.533-.606 3.293-.479 1.489-.287.95-.318 1.14-.192.95-.032.919.096.696.223.633.606.666.925.411h1.244l2.04-1.172.67-1.646.83-2.249.127-1.931v-1.837l-.574-1.774-.734-2.185.128-1.647.255-.728 1.69-1.456 1.404-.254.446.063 1.403.697 1.085.982.637 2.628.255 1.616-.446 2.375-.35 2.818.254 1.108.192 1.33.35 1.109.575 1.045.223.633.191 1.014.414.76.415.57.72.557-3.127 1.075.08-1.221-.383-1.457-.16-1.678-.287-1.9-.32-1.488-.126-1.583-.096-1.806.734-2.438.063-3.009-.446-1.108-.606-.95-.638-.443-1.116-.286h-.67l-1.499 1.362-.255 1.077.128 1.33.446 1.204.383 1.203.35 2.565-.637 3.705-.606 1.14-.415.824-.286.506-1.595 1.267-.574.285-.638.221-1.53.159-.83-.38-.797-.412-.702-1.9-.128-1.33.702-2.597.51-2.786.415-1.584.032-1.235.319-1.678.191-1.425-.574-1.046-1.371-.886-1.85-.158-1.945-.222-2.041.127-1.69.031-1.117-.063h-2.36l-1.88 1.932-.416 1.267-.063 2.501v1.267l.287 7.917v1.267l.063 1.203v1.14l.734.791.989.38.893.95 1.594 2.249 1.052 1.171.542.887.638 1.014.479.696.533.28-1.8 1.01-.488-1.986-.924-1.742zM684.747 498.626l-1.085 1.33-.383-2.09-.127-1.394-.765-.38-.638.19-3.253 2.28-1.148.444-1.658.127-.893-.127-2.551-1.077-1.021-1.393-1.659-1.647-.637-1.457-1.371-4.877-.128-1.045v-.728l.255-1.457.32-.981.828-2.027.32-1.014.063-1.013-.67-.76-1.02.19-.798.697-.765.57-.925.57-.733.095-2.073-.063-.861-.476-.447-.791-.605-2.66.605-1.046.288-.791-.511-1.235-1.02-.539-1.053-.126-.797-.032h-1.371l-2.105.285-1.531-1.583-2.12-2.882-.24-.11h-.988l-.542.252-1.021.776-.765-.031-.542-.602-.32-1.077-.159-.887.128-.95.127-2.312-.031-.981-.511-.95-.638-1.267-1.499-.665-.446-.095h-2.807l-1.243.38-.223-.254.35-.348 1.085-.094 2.232-.444 1.372-.031 1.498.538.574.601.734 1.045.35 1.109.032 1.361-.223 3.262.128.919.701.697.766-.349 1.02-.792.925.127.893.602.893.982 2.073 2.754 1.403.349h1.754l3.412.126.99.508.381 1.456-.35.823-.128.95-.223 1.267.128.95.701.982.957.633 1.052-.095.734-.38.701-1.266.67-.697 1.818-.38.542.032 1.116 1.076.415 1.267-.064 1.235-.734 1.045-.223.348-.83 3.294-.19 1.14.127.918.51 1.552.383 1.267 1.085 3.167.637.887 1.212.95 1.914 1.234 1.562.286 1.02.126.861-.475.734-.475 1.34-1.552 1.754-1.741.765-1.077.446-1.14.67-2.787.223-.76 1.247-1.013-.007 7.583 1.049 4.199zM429.498 632.178l1.937-.629.227 1.79-.127.918.032 1.678.893 2.027 1.275 1.045-.319 2.69-.35 2.313-.351 2.406.605 2.755 2.456 4.782-1.499-1.109-1.212-2.817-.86-2.217.063-2.755.16-2.755-.032-2.977-.925-1.266-.83-1.11v-1.456l.224-1.614zM193.407 675.708l.191-.337 1.945.305 1.978-.032 1.786-.126h1.307l4.337.57 1.244.475 1.02-.349 1.213-1.203 1.562-1.172 3.253-2.058.893 3.42-1.02.254-.798.38-.956.57-3.891 4.02-2.902 2.756-1.308 1.805-.701 1.425.51 1.298.797.696 1.244-.063 1.913-.696 3.572-1.108 2.647-.254 1.977.349 1.212.696.83 1.868-.128 1.615-.925 1.837-1.85 1.678-2.009 1.109-2.615 1.298-1.594 1.013-1.659 1.108-1.18 1.077-.127 1.551.128 1.204 1.37 1.425 3.796 1.742 1.849 2.026 1.276 1.773.83 1.615.126 1.584-.382.158-.478.855-1.021.887-1.658.22-2.679-.98-2.296-.665-1.626.094-1.308.507-1.531 1.235-2.073 3.673-1.052 1.71-.575 2.122.224 1.963.606 1.647 1.34 1.267 1.37-.032 1.244-.823 1.467.158 1.371.886.989.222 1.659-.823-.862.887-.893 1.045.415 2.881.032 2.153.064 2.343.765 2.027.861 1.33.733 3.008.288 1.583.701 2.28.893 1.235 1.435.792 1.34-.032 2.009-.887 1.403.412.988.982.447 1.013-.032 1.298.51 1.362 1.021.728.957.918.574 1.172.414 1.203 1.021.317.51-.823.223-1.14.287-.729.862-.443 1.37.602.862.728 1.148 1.045.956-.063.543-.792 1.403-.57.414.918.766 1.14.606-.633.829-.696 1.403-.349v-.38l-1.212-.57-.542-1.076.032-1.077.86-.475.767.253 1.37-.158.32-.665-.32-1.583.607 1.203.67.76-.702.823-1.276.127-1.02-.158-.542.095-.224.475.415 1.013 2.105.887-.415 1.108-1.243.127-1.468 1.108-1.563.95-.478-1.583-.765-.57-.861 1.013-1.499.38-.957-1.203-.414 1.551-.351-1.805-1.467-1.108-.638.538-.096 1.52-.478 1.045-1.02.317-.83-.38-1.116-2.375-.893-1.267-.925-.348-.892 1.203-.16 1.868.67 1.774.797 1.266-.51 1.109-1.69.38-1.403-.697-1.372-.032-1.116.665-1.626.634-.989.348-.096 1.14.798 1.361.063 1.298-.733.666-2.392 1.361-1.308.507-.286.982.255 2.438-.479-1.647-.35-1.298.574-.95 1.052-.38 1.914-1.013.924-.507-.127-.982-.638-1.266.127-1.647.606-.792 1.276-.475 1.275-.57 2.424-.854 1.34.791.924.285.415-.918-.415-1.077-.637-1.266-.224-1.204.224-1.14.86-1.361.16-1.045-.319-2.153-.35-1.172-1.116-.887-2.265.602-1.977.127-1.467-.285-1.053-1.013-1.403-.19.766-.634-.32-.95-.637-3.293-.574-2.755-.765-1.33-.957-2.85-.064-2.184-.606-4.275-.83-1.204-1.243-.348-1.276.602-1.562.348-1.18-.697-1.308-2.28-.606-1.9-.829-.823-1.084-.095-2.264.064-1.946-.444-1.243-.443-1.02.063-.702.887-.351.855-.223 1.108-.064.887-.989 2.185-.957 1.172-.86.917-2.01 2.502-.319 1.869v1.9l-.191 2.628-.83 1.931-2.008 3.072 1.435-2.565.478-1.425.415-2.343-.032-1.964.415-3.198.86-1.361 1.914-1.805 2.073-3.515-.16-1.457-.542-1.266 1.117.094.573-.823.542-1.361.575-.444.956.76.766.507 2.455.127h1.149l1.307-.285.734-.507.733-1.108 2.137-4.497.67-1.33 1.53-1.361 3.604-1.805 1.913.19 2.392.918 1.786-.064 1.243-.538.128-.886-.383-.95-.925-1.552-2.55-1.741-3.286-.95-1.115-.887-.798-1.172-.478-3.04.35-1.298.734-1.33 1.467-1.14 2.105-1.457 6.506-3.831 1.052-.855.127-1.33-.573-1.014-.862-.442-.893-.16-1.275.096-7.048 2.597-1.786-.127-1.594-.697-1.213-1.393-.063-1.33.32-1.52 1.147-2.407 3.38-3.673.893-.981.096-.697-.67-.633-1.371-.412-.861-.19-2.01-.285-1.753.032-2.982-.071-.83-.12-.86-.15zM252.269 682.933l2.074.406-.63.633-.415.95-.255.855-.51 2.914.063 1.52.127 1.931.575 1.488.893 1.172-.064 1.489-.383 1.9.224 2.153.701 2.375-.35 1.836-.511.475.191-2.343-.542-2.09-.319-2.47.478-2.216-.765-2.059-1.02-.886.16-2.629-.288-1.235-1.02.412-1.212.982-1.371 1.14-.99 1.013-2.104 1.551-.925 1.046-1.403 1.551.957-1.647 1.211-1.646 1.468-1.013 2.36-2.217 1.721-1.14 1.659-1.33.255-2.027zM282.047 685.46l1.764-.55.452 2.26.957 1.964.574 2.153-.19 3.104.573 2.66.128 2.596-.383 3.103-1.53 2.407.7-4.244v-2.28l-.51-2.406.064-2.786-.191-2.534-1.085-2.47zM294.05 676.072l1.885-3.404 1.595 1.362 1.626 1.044 2.743.57 4.337 1.995h1.276l.574-1.868.893-1.741 1.69-1.204 2.073-.127 3.38.76 1.595.887 1.594-.443.383-1.204-.893-1.994-1.818-2.344-.127-1.551.797-2.059 1.85-.918 3.858-.38 1.659-.443 1.116-1.52-.192-2.755-1.976-2.027-1.946-2.185-1.499-3.958.893-1.584 1.914-.823 2.073-.063 2.934-.38.701-1.013-.446-1.489-2.105-.792-1.978-.253-2.487-.886-1.34-1.33-.956-1.52.474-2.138 2.523-.46-.127 1.078.127 1.234 1.021.824 3.476 1.045 2.424 1.267 2.136 2.184.128 2.186-1.34 1.9-1.594.728-2.742-.38-2.52.57-.35 1.615 1.052 1.71 2.232 2.311 1.754 2.407.447 2.787-1.85 2.628-1.818 1.71-2.391-.032-2.87.349-.447 1.583.51 2.28 1.276 1.963.83 1.172 1.498 1.203.797 1.583-1.53-1.33-1.882-.095-.861 1.235-1.5.444-2.295-.317-2.583-.95-1.69.127-1.627.855-.83 1.551.415 1.457.957.981 1.627 1.204 2.328 1.235 2.136.855 1.658.19 1.5.253 1.817-.38 1.116-.76.192 1.678.51 1.33 1.754 1.489 1.818.601 1.626.38 1.786-.443 2.647-1.013-.574 1.045-2.775 1.14.096.823 1.244 1.9 2.2 2.818-.446.602-1.212-1.394-1.754-2.945-1.563-1.52-3.093-1.076-2.838.317-2.456.507-.925.981-.159 2.153.989 1.299 1.562 1.868-.447 1.52-1.402.696-2.106 1.109-.892 1.076-.51 1.932.382.57 1.02 2.248 1.213 1.33 3.348 1.204-3.731-.349-.351.792-1.18.443-3.285-.855-1.339-.443-1.404.158-1.626.729-2.679 2.374-1.594 1.235-.606 1.963-1.435-1.076-1.276 1.109-.765 2.12-.479 1.394.575 1.394-.989.981-.287-.222-.128-1.773-.287-1.172.893-1.646.574-2.153.925-1.172 2.265-.665 1.626-.95 2.487-2.311 1.882-1.045 2.36-.127 2.742 1.393 1.818.222.128-1.995-1.148-2.597-.351-1.393.414-2.185 1.148-1.71 2.01-.855 1.052-.475.16-1.077-.766-1.266-1.244-1.267-.35-1.235.095-2.28 1.403-.95 2.807-.411.414-1.108-.638-1.204-2.232-.601-2.296-.127-2.583-.729-7.303-4.053-6.123-2.027-2.87-.886-2.328-.57zM352.127 632.515l2.706.554-.059 1.947-.893 2.312-1.818 3.705-.542 2.533.734 2.28 1.753 1.647 2.137 1.013 2.137.982.893 1.615-.67 2.691-1.244 2.66-1.881 2.692-.415 2.565 1.467.665 1.276-.665 3.19-1.393 1.625-.38 3.062-.032 2.551.032 2.424.792 3.603 1.741-1.148-.095-2.391-1.14-3.923-.728-1.53.538.35 1.805-1.244 3.262-1.53 1.71-.575 1.424.383 1.68 1.499.316 1.946.158 2.04.602 1.403-.823 1.85.063 2.137 1.456-1.212-.696-2.36-.159-.829.887.765.697.128 2.185-2.902 3.134-1.69 1.425-.702 2.027.797 1.615 1.69.032 1.148-1.172-.127-1.71.192-1.235.828-.918 1.5-.539 1.498.064 1.18 1.045 1.244 1.615 1.467.38 1.913-.538 1.882-.349 1.594.633 1.69 2.375-.86 2.312-2.807 1.33-2.424 1.045-.893 1.045.096 1.615 1.627 1.045 1.85.316 2.838.032 3.444.349-3.859.22-2.488.255-2.678-.222-2.296-2.09.127-2.249.702-1.203 2.168-.886 1.914-.602.956-.696.224-1.362-.574-1.774-1.531-.253-3.38 1.267-2.106-.76-.828-1.647-.893-1.076-1.722.506.255 2.09-.575 2.407-2.678.95-2.615-.507-1.595-1.457.064-2.026 1.275-1.837 1.34-.95 1.403-1.583.893-1.583-.063-1.837-1.531-1.013-2.169-.063-2.679-.76-.702-1.774 1.085-2.66 1.977-2.153.32-1.71.318-1.584-1.786-.95-2.296.697-2.36 1.583-2.296.697-1.722-.38-.638-2.026.383-1.837 4.082-6.27-.128-1.963-1.467-1.457-2.742-1.33-2.743-1.963-.383-2.28.32-2.66 1.147-2.534 1.531-2.406.128-1.9zM440.556 626.356l2.778-2.708.51.475.48.475 1.02.507h1.53l.67-.032.734-.127.669-.221.86.032h2.265l.638.094 1.563.349.924.126.638.064 1.467.317.702.19.638.19 1.084.79 4.497 2.915.51.474.574.697.542.475 1.02.665 1.021.823.765.602.447.507.478.57.51.507.51.601.703.792.637.665.638.538.542.444.638.411 1.946 2.375.382.728.35.602.734 1.393.415.919.67 2.311.446 1.394.255.665.415.95.286.633.32.602.255.633.701.032.67-.412.51-.507.319-.633.256-.633.159-.665v-.665l.383-1.932.318-.823.383-.57.447-.57.478-.538.638-.507.733-.317.957-.285.67-.032.67.096.669.38.67.696.287.633.446 1.236-.637 1.773-.16.633-.16.665.033.665.51.412.765-.064.67-.095h1.02l.702.064.765.222.574.38.479.57.19.728.033.633-.064.887-.255.665-.191.633-.255.696.095.697.255.665.574.349.67-.095.638-.127 2.487.57.288.602.35.601.574.412.638.317.67.221.765.063.701.032.702-.221.383-.57.319-.729.255-.728.414-.697.543-.506 1.275-.127.734.095 1.084.475.638-.285.702-.19.318 1.109.542.38.447.537.063.666-.19.76-.702.918-.383.412.287.918-.064 1.108.032.665.255.697.255.601.415.697.319.665.414.57.575.539.478.474.574.444.638.316.67.095.573-.284.479-.475.574-.349-.032.665-.096.697-.414.57-.191.696-.032.665-.415.57-.51.38-.733.348-.511.349-.478.507h-.702l.446-.634.479-.538.988-.601.606-.412-.127-.697-.542-.665-.51-.38-.766-.412-.733-.316-.638-.254-.478-.411-.351-.57-.351-.633-.223-.729-.16-.633-.16-.697-.605-3.04.032-.728.383-.57.446-.507.16-.633-.351-.57-.606-.475-.574-.317-.575-.38-.67-.126-.828.031-.638.19-.383.57-.255.665-.382.697-.479.538-.542.475-.638.222-.702.19-.701.127-.638-.064-.797-.348-.606-.412-.542-.475-1.053-1.045-.606-.317-.67-.284h-.67l-.669.063-.765-.063-.67-.127-.702-.38-.382-.57-.287-.728.031-.665.67-1.615.32-.57.255-.665-.096-.697-.287-.602-.447-.57-.701-.19-.606-.031-1.913.443-1.85-.19-.383-.76-.255-.602-.032-.664.032-.634.255-.633.127-.633.32-.57.223-.697-.16-.697-.51-.411-.765-.064-.638.064-.606.094-.606.19-.51.349-.351.633-.287.602-.383.665-.191.665-.128.76-.286 1.456-.065.634-.095.633-.191.633-.224.634-.191.633-.447.507-.573.38-.607.032-.605-.127-.702-.19-.606-.317-.478-.475-.319-.57-.256-.633-.19-.602-.224-.823-.223-.57-.32-.602-.605-.443-.638-.285-.638-.032-.638.063-.637.032-.702.095-.701.158-.638.57-.383.539-.096.633.096.633.733 1.109.383.538.542.443.638 1.457-.159.633-.128.824v.696l.096.792.223.728.446.57.479.475.701.19.638.285 1.276.19.638.253.67.19.574.317.478.475.382.57.192.634v.728l-.127.633v1.33l-1.18 1.362-.575.285-.606.317-.637-.095-.575-.38-.382-.539-.383-.506-.542-.444-.574-.222-.606-.316-.574-.285h-.638l-.415.538-.318.57-.287.634-.351.665-.255.664-.383.57-.383.539-1.69 1.995-.287.601-.223.602.096.665.51.444.638.475.638.221.797.063h.701l.766-.095 1.307-.823 2.137-1.045.766-.158.765.348.319.665.286.57.415.633.478.507.575.38.574.285.638.095.765.095h.86l.766-.063h.734l.574.316.51.444.447.57.127.633-.223.665-.32.697-.605.411-.606.095-.606.064-.702.19-.35.633v.665l.064.665.255.665.286.633.256.665.223.665.287.633.096.792-.16 2.28-.095.633.382.57.702.127 1.467-.19h.733l.638.412.542.475.67.38.574.506.16.697.35 1.172.383.57.51.601.638.38.255.665-.478.412-.479.506-.414.475-1.02.19-.67.159-.447.443v.697l.606.316.67.095.67.064.733.253-.095.665-.192.633-.096.634-.255.57-.287.601-.223.633-.319.57-.446.54-.702.442-.574.285-2.232 1.932-.447.538-.35.539-.256.601-.35.539-.415.57-.128.664-.255.57-.223.602-.319.538-1.5 3.99-.828.918-.223.634-.351.602-.447.538.033.665.51.443.574.348.701.254.543.38.51.475.287.633.797 1.52.032.697-.096.664-.255.602-.319.602.383.538.574.538.478.602.542.475.925 2.945-.446-.539-.35-.538-.192-.696-.351-.697-.446-.57-.575-.507-.414-.475-.479-.506-.478-.475.032-.792.319-.602.287-.79v-.824l-.287-.57-.415-.665-.51-.412-.638-.317-1.212-1.013-.637-.285-.542-.475.19-.696.447-.539.415-.76-.574-.38-.638.095-.543.285-.701.254-.446.443-.288.602-.446.506-.542.38-.606.475-.478.475-.893.57-.542.38-.574.253-.638.349-.574.348-.51.506-.415.57-.383.634-.35.538-.48.444-.35.664-.223.666-.223.79-.606.73-.224-.697-.063-.634.063-.664.479-.95 1.594-1.742.447-.507.478-.475.606-.475.607-.317.669-.284.701-.38.67-.444.574-.443.574-.411.606-.475.574-.634.351-.633.415-.538 1.53-.602.67-.253.702-.159.765-.095.574-.443.287-.602.287-.665.32-.664 1.594-4.18.446-.539.287-.633.223-.634.383-.696.606-.665.542-.444.638-.475.51-.411.606-.443.574-.444.574-.316.479-.444.446-.601.223-.633.096-.634.063-.697-.031-.633-.32-.538-.637-.032-.638-.19-.67-.285-.287-.602v-.791l.511-.539.637-.284.638-.19.766.158.67-.507.286-.76-.382-.601-.447-.475-.414-.539-.351-.602-.287-.696-.319-.57-.446-.538-.51-.412-.543-.348-.702-.127-.637.032-.606.19-.67.031-.67-.158-.35-.602-.287-.633-.064-.76.096-.633.191-.697v-.728l-.096-.697-1.403-4.971.064-.666.446-.506.638-.348.67-.064.733-.031.67-.38-.16-.634-.255-.601-.478-.412-.574-.222-1.722-.316-1.595.094-1.243-.76-1.244-1.424-.191-.697-.607-.475-.605.064-.543.316-.669.317-.893.38-.83.506-.67.317-.637.158-.637.064h-1.308l-.67-.064-.638-.285-.574-.317-.318-.57-.32-.633.032-.697.255-.633.255-.601.415-.539.383-.538.574-.506.542-.412.447-.507.287-.665 1.69-3.515.606-.285.701-.063.638.19.766.19.765.317.67.506.573.602.351.538.702.317.638-.285.446-.507.32-.601.286-.665.064-.697-.032-.633-.223-.602-.383-.507-.51-.475-.638-.221-.606-.286-.67-.19-.669-.158-.702-.063-.637-.095-.607-.317-.51-.475-.446-.602-.447-1.266-.063-.633.223-.697.159-.791-.096-.73-.16-.76-1.051-1.393-.447-.475-.318-.696-.192-.729.096-.696.127-.633.542-.634.638-.506.574-.348.606-.254.638-.19.67-.158.67-.19.7-.222-.031-.76v-.633l-.67-1.299-.35-.601-.607-.824-.446-.728-.542-.633-3.412-3.389-.51-.38-.447-.443-.542-.348-.638-.032-1.148.507h-.702l-1.34.127-.796-.032-.638-.127-.606-.095-1.34-.063-.606.063-.67.095-.7.159-.575-.222.574-.285.702-.19.67-.095h.701l.733.095h.703l.701.095 1.85.063h.733l.67-.126.702-.254.127-.633-.51-.38-.51-.57-.511-.412-1.977-1.14-.574-.348-2.934-2.312-.383-.475-1.371-1.076-.606-.317-1.53-.475-.606-.317-.607-.285-.701-.222-.67-.19-.701.032-1.117.19-1.435.064H450l-1.53.19-.702.063-1.148-.032-.83.063-.637.286-.638.158-.67-.063-.733-.222-.638-.348zM400.631 632.913l2.165.6.739 2.675-.51 3.04-.702 1.393-.255 1.964.893 1.647-.638 1.71-1.403 1.52-.575 1.71.575 1.9-.128 2.533-1.977 2.913.638-1.647.446-2.913-.702-2.28.447-2.28 1.914-2.153-1.213-1.584.766-2.343 1.084-2.723-.127-2.407zM539.78 577.181l1.892 3.504-1.294.435-.734 1.045-.383 2.185-1.116 1.931-6.537 5.32-.957.697-1.913 1.932.605 1.678.383 2.407-1.467 3.737-1.403 1.234-1.881 1.71-.925 1.172.287 1.204-.447 1.71-1.308 1.076-.637 1.394.064 2.09 1.371 2.28-1.626-1.235-.447-1.869-.064-2.153.415-1.076 1.722-1.11-.32-1.107-1.051-1.014-.989-.158-1.116.031-1.658.602-2.583.095 1.658-.443 2.296-.95 3.061.253 2.041-1.9 2.424-2.153 1.595-2.47-.383-2.977-.765-1.456-2.552-2.407 1.53-.127 2.425-.316 4.91-3.294 2.999-2.534 1.34-2.596.637-2.977zM563.27 607.545l1.185.016-.86 1.236-.543 1.298-.51.886.031 2.692 1.053 1.964.67 2.216-.415 1.869-1.276 1.963-1.722 1.013-1.562.697-.32 1.172.288 2.184-1.212 1.71-3.253 1.9 1.275-.95 2.233-2.723-.128-1.646.192-1.71 1.722-1.14 2.615-1.584.765-1.836-.51-2.47-1.084-2.66-.128-2.027zM577.721 613.135l3.026.11-1.495 1.283.447 1.267 1.212 1.52 1.211 1.773 1.723 2.66 1.53 1.457.064 1.837-.064 1.9-.127 2.343-.957 3.673-.128 3.674.192 4.496.51 3.99.83 3.23 6.122 14.503 1.914 3.61 2.614 3.23 1.66-.507 2.741-1.963 2.743-1.52 2.551-1.583 2.998-.127 2.36 5.067-2.105-3.8-1.148-.253-1.212.19-7.59 4.243-6.123 2.976-10.588 5.32-10.332 6.397 2.806 6.523-3.507-6.27-2.68.696 2.552-1.392 9.312-5.89 13.777-7.284.064-1.267-1.85-1.962-1.595-2.344-5.995-15.263-.957-2.533-.382-2.913-.51-3.23-.065-8.424 1.085-2.66-.192-2.786.575-2.47-1.085-1.964-1.594-2.153-2.36-2.344-1.595-.886-.829-1.52zM607.878 605.184l1.695-1.075.167 2.502.446 2.597.765 2.597 1.723 2.153 2.36.76 3.38 2.724 1.467 3.863 2.679 2.66 3.508 2.786 2.806 3.99 4.465 5.13 5.421 10.007.957.76 8.037-2.597 6.505-2.533 1.467-.19-.319 1.14-15.371 5.383.51 3.23 1.148 5.194.383 2.153 1.212 5.637-1.084.443v-2.787l-2.297-3.293 1.02-1.9-.765-3.294-1.913-5.573-5.23-10.26-4.465-4.56-1.276-3.04-3.316-3.293-2.934-1.647-2.424-3.04-2.168-3.926-3.19-2.027-2.934-2.153-1.275-3.294zM622.206 593.938l.652-.588.116 1.671.032 1.204.957.728 1.116-.601.415-.73.415-.22.765.601.67 1.077 1.084.285 1.467-.285.925.38.701 1.172.925 1.615 1.116.918 1.276.221.765.507.67 1.393.893 1.394 3.22 1.773-2.487-.728-1.945-1.172-.16-1.298-1.34-1.14-1.561-.349-1.021-.95-1.052-2.121-1.308-.729-1.244.127-1.244-.411-.478-.982-.988-.064-.67 1.425-1.276.286-.765-.634zM630.995 430.19l4.369.285.16-.316.653-4.402-5.182-.031-.112.268.048 3.848zM629.799 434.197l4.768.316.175-.364.622-3.31-.192-.063-4.64-.253-.605.348-.224.713-.063 2.344zM632.749 434.703l.526 1.869.622-.396.622-.902.048-.333-.463-.142zM639.51 436.334l.574-3.484.702-6.491-4.146-.428-1.786 9.596.032.348.127.317 3.875.206zM633.435 437.632l.765 3.341-.24 1.441 4.498.887 1.068-6.619-4.625-.205-.494.174-.638.396-.19.158zM626.052 441.56l5.039.237 2.296.08.24-.27-.081-.222-1.116-6.682-7.064-.221-.24.095-.095.237.686 4.798.112 1.852zM624.322 441.385l1.132-.031.16-.087-.208-2.13-.199-1.378-.726.238-.462.103-.136.103-.008.237.399 2.708zM624.402 442.114l.374 1.354 2.918.008.096-.056.072-.752.008-.435-.12-.222-.104-.04-2.63.127-.407-.016zM619.164 442.035l1.419 6.08.239 1.156.287-.032 3.7-.84.557-.062.128-.174-1.547-7.094-.37-2.696-.08-.1-.12-.074-.116-.016-.111.024-4.202 1.136-.183.238zM615.162 448.542l2.247-.443 2.615.048.049-.285-.065-1.362-2.423-7.711-.383-.048h-5.644l-.335.206-.016.427 3.476 8.202zM607.013 443.967l2.551 5.51.32-.016 2.885-.792 1.866-.047-.127-.364-.176-.713-2.232-5.051-4.927 1.124zM602.038 445.392l2.44 5.272.271.08.398-.032 4.003-1.108-.08-.333-2.488-5.194-.59-.016-3.874 1.045zM547.058 453.34l2.552-1.932.845-.839 1.515-.965-.128-.301-1.738-2.297-1.068-.015-1.164 1.22-1.93 1.44-1.147.934-.479.807.255.65.797.586.686.269zM547.394 454.1l.653.65.367-.064 3.604-3.468.239-.285-.016-.506-.399-.032-.43.222-.877.918-1.515 1.188-.813.618-.463.3zM540.218 457.98l1.994 2.311.43-.063 3.572-3.515 1.323-1.916-.526-.586-.479-.158-.877.3-.972.983-1.052.49-1.276.555-1.435.696-.542.38-.192.27zM535.116 463.173l2.52 2.328.414.095.223-.19 3.954-4.164-.239-.46-2.057-2.312-.797.682-1.61 1.773-.67.523-.893.522-.622.475zM531.767 472.199l4.848-6.54.063-.38-2.169-2.106h-.477l-.495.254-3.237 7.094.08.601.973.966zM586.62 437.68l-1.101-2.153-.263-.08-4.824 1.33 1.164 2.313.4.38 4.304-1.679zM591.705 433.484l2.073 3.31 1.93-.65-2.328-3.436-.223-.063-.75.348-.558.348zM588.15 439.137l5.198-2.328-1.898-3.293-4.177 1.362-1.451.538 1.993 3.689zM588.086 439.422l2.153 3.832.255.016 4.257-1.378-.016-.27-1.961-3.99-.351-.063zM582.138 439.691l2.616 4.671.558-.063 4.528-.887.08-.158-2.95-5.257-.303-.095-4.337 1.646zM578.662 445.36l2.551-.729 2.536-.237.175-.443-.255-.349-2.01-3.72-1.434.553-.16.982-.43.443-1.993 1.046-.335.19.94 1.963.192.27zM563.785 450.332l5.262-2.882-3.253-4.212-3.03 2.28-1.02.665 1.212 2.692zM548.701 455.367l4.066 3.42.351.127.255-.253 2.663-2.09.08-.364-2.631-4.371-.526-.554-.336.126-3.619 3.547-.287.206zM542.801 461.257l3.142 3.326.255-.064 6.075-5.415-.064-.38-3.859-3.151-.239-.08-.24.223-.796 1.045-.43.76-3.381 3.198-.208.221zM538.241 466.023l3.572 3.294.303.08 3.556-4.324.08-.174-3.126-3.42-4.29 4.276zM532.15 472.658l5.868 5.479 4.688-7.728-.957-.728-4.529-3.927-4.751 6.175z" clip-path="url(#p1a5c052a13)" style="fill:#00f;fill-opacity:.8"/></g><g id="PatchCollection_2"><path d="m622.88 269.244 6.18 13.332 15.954-21.603-7.682-7.12-8.652 4.438 3.137 5.287zM591.345 242.033l-.285 2.653.91 1.186.057 2.427-3.183 1.355 2.956 9.033-7.277 2.767 1.478 4.234-.625 4.855 1.08 2.089 2.33-1.637.285-1.016 2.16-1.13 2.16-.62 3.298-1.186-4.719-7.452 5.4-3.896 3.753-2.146 1.308-2.427 6.594 6.097-.455-1.92-2.729-2.483-2.558-2.202-1.762-2.202-1.023-2.54-2.615-1.638-1.82-.056-1.933-.96-1.136-.621zM541.057 298.77l2.586 4.056 5.432-2.307 5.807-3.87 6.295 6.475 2.884 3.237 8.468-7.144 2.885 5.172 4.684-4.353-6.07-11.386-1.087-.707-2.36.93-9.367 5.767-.75-1.786-.411-1.711-.412-1.935-3.897.335-.038.93.263.782-1.911.818.037.595.975.447-1.312.558-3.147.149-2.997 1.786-3.147 1.228-2.398.78z" clip-path="url(#p1a5c052a13)" style="fill:#006400;fill-opacity:.8"/></g><g id="PatchCollection_3"><path d="m95.596 644.275 4.5 2.887 1.883-2.895-4.5-2.887zM324.821 478.543l.077-5.6-3.803-.05-.076 5.598zM513.89 403.712l4.47-2.749-2.073-3.325-4.47 2.749zM319.252 428.052l.072 1.536 2.017-.093-.073-1.537zM310.752 417.054l1.446 5.02 3.555-1.01-1.447-5.02zM268.222 456.454l4.814-2.1-1.585-3.581-4.813 2.1z" clip-path="url(#p1a5c052a13)" style="fill:#90ee90;fill-opacity:.8"/></g></g></g><defs><clipPath id="p1a5c052a13"><path d="M90 154.141h558v418.918H90z"/></clipPath></defs></svg>