<svg xmlns="http://www.w3.org/2000/svg" width="960" height="960" viewBox="0 0 720 720"><defs><style>*{stroke-linejoin:round;stroke-linecap:butt}</style></defs><g id="figure_1"><path id="patch_1" d="M0 720h720V0H0z" style="fill:#fff"/><g id="axes_1"><path id="patch_2" d="M90 461.855h558v-196.51H90z" style="fill:#fff"/><g id="LineCollection_1"><path d="m100.73 346.76 6.603-5.647 30.215-24.948 55.25-47.04M100.73 346.76l43.277 30.302 49.792 33.945 34.888 27.368 21.149 18.645 4.58 1.056 5.793-3.966 35.779-26.754 61.61-45.846 32.465-23.448 33.892-25.45 45.662-35.254 9.954-7.154 4.266-.525 15.285-.349 12.086.35 13.866.524 87.824 1.001 24.371.326" clip-path="url(#p2605a07fab)" style="fill:none;stroke:#000"/></g></g></g><defs><clipPath id="p2605a07fab"><path d="M90 265.345h558v196.51H90z"/></clipPath></defs></svg>