<svg xmlns="http://www.w3.org/2000/svg" width="960" height="960" viewBox="0 0 720 720"><defs><style>*{stroke-linejoin:round;stroke-linecap:butt}</style></defs><g id="figure_1"><path id="patch_1" d="M0 720h720V0H0z" style="fill:#fff"/><g id="axes_1"><path id="patch_2" d="M90 631.855h558V95.345H90z" style="fill:#fff"/><g id="LineCollection_1"><path d="m389.306 272.846-1.316.423-.951.352-.994.47-.886.615-.967.902-1.053 1.35-.806 1.386-.58 1.215-.325 1.166-.196 1.65-.137 4.588M377.681 294.364l1.053-1.24.705-1.023.743-1.288.447-1.23.313-1.324.153-1.296" clip-path="url(#p9732101f4e)" style="fill:none;stroke:#000"/><path d="m389.236 267.392-2.855 1.244-1.292.586-.908.52-.71.517-1.475 1.521-1.375 1.448-2.196 1.943-.862.804-.587.823-.2.73.031.79.341 1.438.497 1.742.564 1.442.607 1.07.748 1.021 1.531 1.932M377.681 294.364l-2.033 2.067-2.34 2.106-1.368 1.34M366.627 315.732l1.394-7.891.434-1.7.549-1.546.877-1.696.889-1.462 1.17-1.56" clip-path="url(#p9732101f4e)" style="fill:none;stroke:#000"/><path d="m368.013 315.976.231-1.07.25-1.411.267-1.678.4-1.819.395-1.74.525-2.208.419-1.008.767-1.47.607-1.094.317-.747.11-.582-.016-.49-.14-.415-.205-.368M347.927 335.99l-1.645 1.863M347.927 335.99l.94.713M350.675 333.788l-1.582 1.15-1.166 1.052M346.282 337.853l-1.515 1.826M346.282 337.853l1.006.665M344.767 339.68l1.045.505M328.2 355.327l.916-.157 1.171-.316 1.226-.455.97-.484 1.14-.706 1.375-1.033 1.26-1.244 1.363-1.543 1.37-1.83 4.194-5.744 1.582-2.136M261.628 340.352l-1.099-.14M261.628 340.352l.352-.502M312.32 357.364l-3.087.204-1.777.05-1.379-.057-1.675-.212-2.201-.48-2.193-.691-3.485-1.455-4.745-2.212-13.117-6.425-4.989-2.285-4.033-1.506-4.158-1.164-3.853-.78M237.755 342.542l-13.02 2.343-9.365 1.856-3.21.618-2.506.458M197.851 357.145l.76-1.324 1.144-1.746 1.069-1.342 1.186-1.186 1.778-1.277 1.856-1.026 1.84-.844 2.17-.583M196.001 333.49l1.005 1.696.623 1.095.364 1.011.36 1.037.423.59.638.567 1.277 1.026.414.433.247.43.235.585.216.753.203.728.31.931.329.731.473.615.866.568.834.295 1.386.28 1.468.294 1.982.662M312.32 357.364l-.08-.691" clip-path="url(#p9732101f4e)" style="fill:none;stroke:#000"/><path d="m317.847 356.8-3.03.404-2.498.16M615.33 267.573l-.893.872-1.472 1.42-1.347 1.222-1.676 1.557-2.224 1.929-2.584 2.452-1.801 1.616-1.379.916-1.73.86-1.48.378-1.668.261-1.26.103-2.186.08-4.59-.044" clip-path="url(#p9732101f4e)" style="fill:none;stroke:#000"/><path d="m557.016 279.82 1.971.428 3.262.504 4.186.187 22.606.256" clip-path="url(#p9732101f4e)" style="fill:none;stroke:#000"/><path d="m598.954 301.793-.33-.471-.422-.805-.306-.922-.113-.473-.112-.982-.17-.79-.298-.518-.374-.371-.548-.427-.431-.355-.185-.305-.266-.393-.157-.401-.121-.51-.162-.594-.063-.564.202-.598.126-.355.068-.568-.045-.556-.239-1.02-.211-.418-.292-.209-.918-.334-.852-.205-.681-.066-.791.07-.705.087-.607.127-.337.03-.387-.056-.376-.138-.357-.276-.497-.48-.564-.568-.716-.677-.356-.622-.13-.775.102-.673.255-.612.29-.436.43-.466.918-.933.815-.99M602.481 306.884l.369-.076 1.125-.464.864-.441 1.219-.475" clip-path="url(#p9732101f4e)" style="fill:none;stroke:#000"/><path d="m598.954 301.793.687.437.542.308.357.163.578.278.466.159.465.24.542.408.419.427.61.47.681.38 1.08.336.677.029" clip-path="url(#p9732101f4e)" style="fill:none;stroke:#000"/><path d="m602.481 306.884.03-.528.023-.424-.036-.36-.052-.308-.077-.292-.17-.355-.207-.327-.336-.331-.465-.332-.64-.364-.512-.308-.558-.297-.233-.193-.175-.186-.104-.216-.015-.27M637.27 351.332l-.988-.858-.892-2.096-1.974-5.632-.063-1.339 1.144-2.081 2.161-3.784-.188-.553-2.6-2.473-2.24-1.805-1.863-1.746-1.817-1.005-1.785-2.314-3.963-3.245-2.678-2.518-4.417-1.688-2.287-1.237-2.443-2.532-2.427-.437-3.102-.844-3.477-1.659-.25-.873.266-1.674 1.094-2.055M292.371 340.443l1.122.339M293.493 340.782l6.613 1.837 1.443.401.627.163M300.842 345.114l.807-1.008.233-.38.294-.543M309.564 348.183l-.21-.496-.36-.492-1.045-1.218-.834-.746-.998-.72-1.696-1.281-.896-.378-.465-.097-.397.038-.284.13-.203.26M300.842 345.114l-.798-.367-1.077-.328-2.98-.763-2.982-.697-.207-.231-.033-.284.728-1.662M308.441 349.973l-1.502-.555-1.104-.37-.9-.466-1.485-1.238-2.608-2.23M308.441 349.973l1.123-1.79M315.353 350.488l-5.305 1.619-.34-.024-.238-.133-1.029-1.977M315.858 350.335l1.848 6.007M315.858 350.335l-.505.153M321.661 347.905l-2.369 1.011-3.434 1.42M313.859 347.1l-4.295 1.083M313.859 347.1l-1.077-2.889M313.859 347.1l1.494 3.388M312.38 343.255l-.22-3.992M304.754 335.448l-3.751-.375-3.614-.39-.482.124-.364.332-.677 1.658.03.514.37.312.487.144 6.67 1.151.9.219.947.41.803.532 2.921 1.903.881.454 1.077.405 1.427.414M312.782 344.211l-.195-.441-.208-.515M304.754 335.448l-.23-3.173M312.16 339.263l-2.59-1.454-2.694-1.633-.979-.423-1.143-.305" clip-path="url(#p9732101f4e)" style="fill:none;stroke:#000"/><path d="m312.07 336.322.036 1.111.054 1.83M319.35 339.69l-1.828-.08-1.605-.175-1.234-.178-1.107-.069-1.416.075M304.523 332.275l2.933-.16M301.72 332.268l.751.069 2.052-.062M312.489 334.209l-.058.293M291.167 320.96l1.52.153 1.773-.026 1.891-.109.889.066 1.437.233 4.382.71 3.23.512 2.13.448 1.143.516.705.484.505.655.403.76.951 3.421.498 2.154.055 1.346-.19 1.926" clip-path="url(#p9732101f4e)" style="fill:none;stroke:#000"/><path d="m291.167 320.96 1.065.764.885 1.004.995 1.565.779 1.419.532.687.537.444.92.302 3.935.015 5.07-.139 1.089.103.81.261.682.564 2.255 3.358 1.768 2.902M307.456 332.115l4.975 2.387" clip-path="url(#p9732101f4e)" style="fill:none;stroke:#000"/><path d="m301.72 332.268-.083-1.96.088-.223.254-.2.396-.077 4.352-.258.306.11.191.29.232 2.165M293.32 331.46l-.761-.192-.227-.17-.118-.2-.103-.384-.069-.62.063-.216.233-.144.258.009 8.215 2.445.909.28M312.07 336.322l.36-1.82M323.278 320.804l-.552-.48-.697-.397-1.096-.495-.983-.287-.76-.048-.955.087-.92.31-1.406.837-.56.578-.356.615-.262.692-.102.749.028 1.153.12.76.255.579.654.786.356.48.177.506.015.393-.133.393-.482.64-1.386 2.532-.427.884-.53 1.678-.274.853-.337.724-.595.996M317.847 356.8l2.26-.276M317.847 356.8l-.14-.458M320.643 357.277l-1.848.13-.43-.094-.345-.25-.173-.263M320.467 341.84l.756 1.575.512 1.39.122 1.022-.047.895-.149 1.183M328.2 355.327l-.052-.566-.102-.474-.148-.4-1.025-.827-.916-.662-.815-.764-.564-.728-.458-.815-.477-.979-.427-.429-.533-.356-1.022-.422M317.699 336.7l.94 1.658M318.638 338.358l.712 1.333M320.467 341.84l1.915-1.826 1.715-1.568.818-.972.595-.931.274-.615-.011-.346-.22-.429-.438-.426-.413-.283-.341-.075-.4.106-.39.24-.355.438-.553.902-.669.575-.94.548-2.416 1.18M320.467 341.84l-1.117-2.15M354.622 369.075l-1.687-4.07M354.622 369.075l1.214 4.064M349.914 369.388l1.462.454.549.114.524-.011 2.173-.87M350.448 358.088l.564 1.419.587 1.44.662 1.703.674 2.354M349.47 369.25l2.102-3.58.415-.324.948-.342M359.446 358.161l-1.425-.076-1.656.021-2.135.059-1.761.021-2.02-.098M345.761 357.723l1.919-.108 1.245-.087.635.029.41.115.478.416M366.083 358.325l-3.011.029M366.083 358.325l-.133-2.78M372.837 357.597l-.466.156-.583.095-5.705.477" clip-path="url(#p9732101f4e)" style="fill:none;stroke:#000"/><path d="m363.072 358.354-1.99-.051-1.636-.142M365.95 355.545l-5.758-.162-.393.053-.24.082-.136.116-.061.18.084 2.347M343.756 357.188l-.91-.042M343.756 357.188l-.97-.653M343.756 357.188l.017 1.008M343.756 357.188l2.005.535M342.785 356.535l.062.611M345.812 340.185l-1.307 1.786-1.52 2.023-.897 1.463-.9 1.931-.676 1.646-.119.468-.274 1.379-.07 1.135.149 1.164.375.83.717.89 1.495 1.635M345.812 340.185l1.476-1.667M348.866 336.703l1.124-.924M348.866 336.703l-1.578 1.815M349.99 335.779l.685-1.99M360.084 329.645l-1.719 1.542-1.71 1.347-.894.494-1.002.433-1.727.666-1.002.459-.997.509-1.043.684M356.905 330.376l1.3-.265.936-.202.943-.264M367.844 316.876l-.132.74-.6 2.77-.708 2.273-.302.914-.43.884-1.265 1.826-.599.746-.638.542-1.132.76-1.954 1.314M368.013 315.976l-1.386-.244M368.013 315.976l-.17.9M366.627 315.732l-.18.971" clip-path="url(#p9732101f4e)" style="fill:none;stroke:#000"/><path d="m366.447 316.703-.607 3.253-.478 1.717-.63 1.503-.513.932-.834 1.149-1.257 1.364-1.226 1.07-1.315.946-2.682 1.739M350.675 333.788l2.001-1.13 2.984-1.58 1.245-.702M320.643 357.277l-.536-.753M324.25 358.485l-1.367-.448-1.527-.462-.713-.298M327.871 359.088l-.963-.028-1.124-.194-1.535-.381" clip-path="url(#p9732101f4e)" style="fill:none;stroke:#000"/><path d="m326.414 368.046-1.244-5.603-.92-3.958M336.732 358.354l.76-.073M336.732 358.354l.704 3.146M327.871 359.088l1.14-.036 2.173-.153 2.287-.196 1.695-.2 1.566-.15M337.492 358.28l1.926.07 1.272-.013" clip-path="url(#p9732101f4e)" style="fill:none;stroke:#000"/><path d="m342.847 357.146-.574.036-.964.124-1.82.433-1.997.542M343.773 358.196l1.094-.021M343.773 358.196l-.868.048M335.362 373.903l-.89-1.949M335.362 373.903l-3.845 1.423M339.645 370.923l-.36.371-.501.419-1.112.738-1.461.939-.849.513M339.645 370.923l-1.14-.48-.931-.502-.893-.724-.587-.724-1.085-1.7M338.497 365.661l1.16 4.382.055.494-.067.386M341.45 370.22l.983-2.993M341.45 370.22l-.712 2.373M340.738 372.593l.69.26.225-2.013-.203-.62M345.761 357.723l-.095.402M338.497 365.661l-1.061-4.16M338.497 365.661l3.936 1.566M342.433 367.227l1.809-5.148M349.47 369.25l-2.028-.63-5.009-1.393M344.242 362.08l-3.896-.396M344.242 362.08l.914-2.474M340.346 361.684l-2.91-.184M340.346 361.684l.344-3.347M327.339 355.457l-3.07.43-4.162.637M310.66 344.782l2.122-.571M327.339 355.457l.02.58.512 3.051M372.837 357.597l-.114-2.254-.087-.21-.143-.15-.217-.053-.282-.016-6.044.631" clip-path="url(#p9732101f4e)" style="fill:none;stroke:#000"/><path d="m386.996 350.153-1.151.451-1.316.386-1.582.35-1.668.356-1.754.494-1.206.383-.85.429-.83.615-.865.904-.9.948-1.543 1.793-.494.335" clip-path="url(#p9732101f4e)" style="fill:none;stroke:#000"/><path d="m363.072 358.354 1.218.414 1.139.553.877.608.576.673.505.528.646.432.622.117.678-.01 1.128-.296 1.053-.2.924-.022 1.265.11 1.488.254 1.284.113.955-.08.846-.27 1.018-.643 1.633-1.252.928-.52 1.359-.477 1.648-.363.771-.03.784.15.9.236.65.047.697-.123.767-.339.65-.284.728-.189.89-.105.743-.15.834-.337 1.684-1.052.658-.513M480.42 358.485l-.538-1.083-.667-1.54-.635-1.3-.317-.782-.188-.618-.074-.71.027-.77.137-.867.318-1.371.117-.942v-.957l-.211-1.346-.36-1.128-.384-.877-.823-.99-1.574-1.35-2.263-2.04-2-1.896-1.845-1.7-2.248-2.142-1.237-1.022-.607-.273-.764-.09-.659-.035-.662-.104-.54-.17-.825-.485-.759-.298-.893-.391-.982-.485-.966-.71-1.22-1.003-.624-.595-.746-.626-.767-.367-1.14-.415-.675-.122-1.183-.196-1.098-.148-1.496-.09-1.065.047-.944.214-.86.466-.706.476-.775.357-.78.242-.608.115-.539.034-.518-.05-.433-.008-.344.057-.58.207-3.015 1.222-1.77.844-1.958 1.005-1.593.676-2.005.728-.76.393-.654.458-.669.492-.764.37-1.382.55-1.152.602-1.53 1.002-.78.332-1.905.485-.847.216-.795.263-.665.396-.646.582-1.206 1.077-1.363 1.24-.826.667-.916.509-1.927.804-2.447 1.07-.638.393-.45.534-.372.728-.45.673-.557.436-2.012.972-1.378.68-.878.23-1.022.043-1.84.047-1.206.131-.841.255-.521.284-.584.614-.47.656-.25.727-.098 1.085.024.701-.016.84-.145.714" clip-path="url(#p9732101f4e)" style="fill:none;stroke:#000"/><path d="m412.47 389.037-.313-1.339-.094-1.215.094-1.972.102-1.288-.125-1.28-.415-2.416-.2-.544-.223-.794-.102-.888-.004-.757-.098-.68-.36-.84-.14-.532-.02-.65.042-.867.09-1.637-.105-.943-.306-1.044-1.096-2.564-.282-.637-.18-.717.09-.84.153-.837.11-.633.007-.604-.11-.644-.466-1.044-.356-.811-.113-.63.012-.77.277-.765.549-.855.838-1.073.442-.735.36-.873.243-.957.008-.902-.121-.662-.326-.484-.551-.55-.623-.374-1.12-.44-1.234-.208-1.503.142-1.539.306-1.617.178-1.629.113-1.558.225-1.007.28-.896.524-.505.673-.188.626-.075 1.055-.101.76-.18.36-.388.35M327.339 355.457l.403-.054.458-.076M334.293 413.48l.438-.582.192-.724-.074-.665-.262-.517-.929-1.124-.861-1.346-.133-.717-.031-.804.168-2.146.004-2.394-.251-1.783-.223-1.575.059-1.404.11-1.273.078-.855.258-3.799.031-3.44-.164-2.795.235-2.408.681-3.256.212-1.055.281-.735.408-.502.841-.52.686-.495.583-.607.462-.437.592-.36.638-.259.944-.298.56-.342.461-.462.29-.666.16-.542M342.905 358.244l-.058-1.098M340.69 358.337l.917-.027 1.298-.066M344.867 358.175l.29 1.43M344.867 358.175l.799-.05M345.156 359.606l.51-1.481M553.195 506.42l3.57-.568 5.357-.175 2.224.539 3.775.218 2.647.16 3.65-.364 1.534-.146" clip-path="url(#p9732101f4e)" style="fill:none;stroke:#000"/><path d="m583.798 521.318-.767-2.691.391-3.26-3.476-5.5-1.253-2.036-1.849-.553-.892-1.194M545.584 508.472l.938-.83 1.332-.713 2.286-.495 3.055-.014M536.177 358.583l.26 2.179-.157 1.135-.408 1.455.345 2.474.188 1.543-.345.96-.25 2.009 1.315 3.492-.282 2.357.47 1.048 1.253.204 2.193-.058 5.043.32 2.255.175.815.582.439 1.979 1.346.99 1.347.174 2.036.175 1.191 1.396 2.506 6.083 1.942 2.154 3.32 1.513 2.256 1.805 1.033 4.249 3.477 6.665-.094 2.182.094 1.572 1.003 2.415 2.318 2.416.814.96.063 1.572-1.692 3.492-3.383 7.975-.814 3.695-2.318 2.91-.157.99 1.034.407 1.88.233-1.191 4.744-1.19 1.572-2.13 4.365-.407 5.18.908 1.048.595 1.426.125 1.63-.689.814-1.66.466-.752.378-.25 1.397-.94 4.423.72 4.133.094 3.958-.501 2.124-1.692.727h-1.942l-2.193.524-2.035 2.008-.909 1.862-.376 1.921.407 1.339-.093 1.135-2.412 2.473-.564 1.135-.031 1.863-.596 3.433.063 1.136.658.989 1.629 1.688 2.004 2.182 1.065 1.193 1.973 1.019 1.097.93.376 1.456-.501.844-1.88 1.31-2.098 1.135M545.584 508.472l-1.364 1.206-1.44 1.019-1.536.654-.97.233-1.958-.421-1.551.407-1.989 1.222-1.167 1.244-2.96 3.812-2.98 2.48M450.553 539.483l4.158.808 1.59.073 1.762-.27 1.746-.502 1.91-1.266 1.826-1.832.869-1.528.841-2.117.482-.557.756-.53.803-.24 3.524.017 1.91-.109 2.404-.858 2.056-.863.658-.072.587.072 1.238 1.165 1.124.476 1.225.01 1.445-.214 1.746-.523 1.414-.659.681-.258 2.624-.684.669-.127 4.01-.142 1.205-.255 2.647-1.243 4.425-2.296 1.586-.455 2.063-.247 3.493.146 1.26-.182 5.498-1.68 5.067-1.237.963-.139 2.389.23.72-.019.626-.247 1.116-.8M555.81 582.33l-.994-.662-1.731-1.12-1.269-.64-.329-.67.439-.567.987-.975.219-.77-.376-.7-2.271-1.905-1.018-4.103-.282-2.793.971-1.266.204-1.062-.627-1.004-.83-.916-.94-1.63-1.002-2.56-1.065-2.285-.297-1.15-.721-1.032-.673-2.139-1.817-3.564-2.256-3.71-2.067-2.183-.235-1.266.031-.538 1.128-3.87.846-4.583-.047-2.532-.83-1.891-1.55-1.528-2.554-2.4-2.396-1.63-2.93-1.6-1.859-.757M450.553 539.483l-1.1-.313M450.08 538.65l.138.346.182.306.153.181M414.209 553.036l2.76-1.099 2.917-.77.905-.16 1.53-.033.874-.19 3.136-1.611 1.629-.746 1.57-.327.81-.265.737-.379 1.449-1.185.92-.633 1.566-.597 1.17-.545 1.802-1.136 4.581-1.89 3.007-1.441 2.107-.786.853-.156.92.083M450.08 538.65l-.199.224-.184.157-.244.14M414.209 553.036l-.878.374-3.46.994-1.543.145-3.634-.647M330.969 576.132l.477-.09 2.22-.19 2.478-.24 1.367-.36.866-.414.99-.651.603-.172.924-.08 4.761.437.659.004.579-.099 5.552-1.826 5.325-1.927 3.458-.88.982-.091 1.328-.07 1.687-.298 1.23-.05 2.173.24 1.829.283 1.813.375.5-.004.325-.196 1.168-2.524.763-1.528.877-.84 1.124-.513 1.793-.233 5.724-.458 3.282-.663 1.417-.254 3.242-.087 1.292-.306 2.162-1.055.995-.8 1.487-1.906 1.653-1.716 1.382-1.986.88-.557.968-.414 1.39-.091M382.352 512.108l3.399 2.197 1.879 1.724 1.402 1.754.775 1.193.204.843-.11 1.689-.556 2.982-.008.88.212.88.697 2.75.239.546.27.35 1.096 1.01 1.762 1.885.188.56.235 1.433.235.589.845.968.588.778.321.691.415 4.576.024.91.446 1.301 1.034 1.834.68.989.467.462.99.462 1.089.356 1.21.557.752.454.207.357 1.355 3.834M324.198 576.234l-1.425-.699-3.328-1.76-1.308-.487-2.052-.276-1.534.072-1.622.655-3.406 2.044-1.308 1.215-.728 1.273-.642 1.913-.58 2.328-.282.713M299.045 604.029l.125-3.165.227-1.127.588-1.185 1.3-2.226 1.88-3.36 1.143-2.99.994-3.194.211-1.797.47-1.76M230.17 485.002l.874-.233 1.03-.55 1.394-1.251 1.746-1.393 1.558-.96 2.679-1.063.845-.178.474.007.544.215.548.491 1.183 1.357 1.331 1.266 1.747 1.259 1.879.967 2.005.822 1.887 1.091 2.264 1.812 2.427 2.234 2.576 3.186 1.253 2.015.815 1.564.336.655.592.76 2.862 2.82.642.625.408.709.234.753.118 1.44.22.903.457.847.889 1.259.58 1 1.245 2.306 1.002 2.335.533.823.505.476.661.356.71.502.7.826.501 1.266.235 2.037.423 1.397.971 1.899.877.974 1.308.938 1.723.925 1.135.713 1.473 1.571.923 1.186.877.742 1.101.687.889.68.838 1.004.5 1.099.894 2.415.438.93.56.637 1.045.899.56.742 1.297 2.815.344 1.172.603 2.327 1.59 4.503.258.917.149 1.11.062 3.43.188 1.301.321.925.67.72.787.669.337.556.27.742.082.6-.203 1.048-.674 2.284-1.985 6.194.027.484.228.451.477.407 1.316.59 2.842 1.047 1.94.46.44.235.179.246.097.405.124.578.287.655 1.71 2.6.76 1.492.22 1.033.046 1.433M287.005 609.224l.43-.063 5.791.294 1.778-.21 1.01-.531 1.05-.823.775-1.018.768-1.397.438-1.447" clip-path="url(#p9732101f4e)" style="fill:none;stroke:#000"/><path d="m287.005 609.224.352-1.085.25-.499.47-.476 1.03-.902.145-.072.135-.02.605.07.216.016.143-.057.143-.148.602-.862.097-.102.14-.054.175.004.446.145.104.007.116-.026.081-.061.25-.28 1.716-2.473 1.888-2.435.229-.12.254.016.272.125 2.181 4.094M171.806 160.286l1.026.564 1.773 1 .991.437.67.142.599-.01.634-.175 1.355-.692.567-.222.541-.105 1.61-.12.907-.19.991-.298.446-.087.349.021.524.124 1.673.699 1.265.382 2.486.804M195.15 186.187l-.255-.938-.05-.495.047-.67.117-1.368-.031-.997-.122-.473-.168-.35-.603-.804-.262-.381-.074-.194-.079-.458.008-.826-.047-.866-.227-1.012-.086-.866.07-.433.231-.553.646-1.06.153-.414v-.36l-.04-.19-.332-.665-.196-.557-.101-.717-.06-1.237-.2-.619-.387-.56-.477-.448-.455-.356-.405-.535-.125-.359-.131-.959-.157-.83-.415-1.01-.724-1.067" clip-path="url(#p9732101f4e)" style="fill:none;stroke:#000"/><path d="m207.813 120.072-.697.479-.268.153-.437.211-.368.214-.767.64-.717.568-.27.15-.31.106-.528.076-1.217.029-.71.098-.513.12-.43.2-.325.212-.309.33-.458.798-.643 1.219-.246.389-.22.215-.724.517-1.648 1.015-.678.433-.32.273-.423.51-.337.545-.392.692-.603 1.302-.787 1.463-.474.881-.297.436-.552.641-.917.833-.747.838-.4.407-.466.379-.403.294-.278.302-.505.75-.216.502-.062.299-.02.28.07.764.102 1.455.11.856-.004.426-.058.338-.13.342-.153.382-.16.539-.192 1.23-.094.513-.015.287.07.619.086.804-.004.965-.074.422-.11.309-.52.928-.425.564-.143.12-.126.058-.196.019-.395-.062-.486-.077-.372.018-.219.08-.227.157-.195.288-.466 1.247-.49 1.249-.079.353.016.236.078.24.416.652.528.757.725 1.066.517.615 1.014.928.842.597.36.254.998.346.995.411.564.35.403.36.52.684M195.15 186.187l.184-.404M179.644 266.781l-.845-1.255-.58-1.063-.274-.851-.094-1.012.133-1.375.298-1.347.58-1.586.869-1.688.274-.765.063-.625-.118-.604-.212-.393-.916-1.288-.712-1.121-.11-.393-.07-.698.14-.982.337-.721.369-.386.536-.35.936-.36 2.325-.534 1.12-.371.296-.142.264-.2.27-.346.318-.59.184-.698.149-1.012-.028-.924-.141-.295-.18-.236-.556-.317-1.053-.233-.713-.295-.297-.276-.216-.52-.023-.463.125-.523.481-.783.698-1.259.172-.793.016-.691-.173-.72-.564-1.041-.751-.94-1.19-.989-.964-.858-.36-.539-.251-.596-.36-1.74-.266-1.128-.408-1.208-.219-.968-.031-.699.094-.647 1.065-3.275.955-2.278 1.895-3.828.807-1.863.297-1.026.157-1.048.243-.931.266-.48.65-.64 1.59-1.21 2.052-.96 2.372-.83.372-.21.122-.172.082-.287.067-1.288.18-.88.767-1.871.8-1.667.21-.276.235-.153.38-.124.834-.062.744-.127 1.226-.564.92-.48.238-.371.067-.386-.113-.437-.427-.502-.728-.702-.462-.623-.435-.854-.188-.605-.031-.778-.087-1.605-.254-1.641-.114-1.067.067-.862.313-1.194M189.081 302.616l1.37.975.537.578.286.491.184.528.078.564M196.001 333.49l-.346-.571-.43-.422-.807-.459-1.43-.516-.403-.25-.191-.27-.149-.462-.004-.51.168-.81.58-1.245.219-.8.063-1.493-.086-1.44-.22-1.368.016-.888.164-.72.384-.91.415-.8.165-.51.007-.4-.156-.967-.282-1.332-.14-1.601.038-1.034-.008-.665-.094-.539-.239-.818-1.276-2.525-.4-1.215-.113-.888.09-1.31M222.061 293.61l-1.804-.727-1.626-.742-1.382-.771-.728-.47-.61-.298-.698-.248-2.474-.924-1.574-.575-1.426-.596-2.318-1.019-1.354-.466-1.386-.233-1.379-.13-2.897-.095h-1.41l-1.033.167-1.01.327-1.277.634-1.065.778-.838.742-.446.539-.4.67-.235.669-.438 1.856-.298 1.986-.063 1.157.087 1.834.086 3.012.039 2.242-.09 1.317-.13.579-.348.927M189.081 302.616l-.665-.59-1.543-1.368-.944-.778-.654-.582-.767-.903-1.222-1.986-1.542-2.482-.964-1.753-.525-1.448-.329-1.205-.043-.596.263-1.816.078-1.39-.172-2.306-.447-3.552-.485-2.962-.243-2.037-.03-1.972.187-1.565.9-3.07.086-.604-.058-.284-.318-.586" clip-path="url(#p9732101f4e)" style="fill:none;stroke:#000"/><path d="m152.17 251.139.755.316 2.28.586 1.534.211 1.124.259.485.189 1.414 1.058.947.816.513.283.482.171.9.302.987.539 1.531 1.017.474.42.43.488 1.285 2.04 1.186 1.664.302.425.258.532.125.618-.007 1.536-.126 2.437-.086 1.667.055.746.11.48.196.451.273.408.521.48 1.018.571 1.473.39 1.198.018 1.116-.252 1.002-.44 1.284-.822.862-.771.716-.826.423-.877.434-1.488M278.074 138.408l-.897.426-1.261.76-.826.728-.588.75-.317.651-.419 1.347-.442.582-.588.327-.677.157-.822-.008-1.132-.2-1.162-.182-1.352-.032-2.56.225-1.034.23-.697.345-.74.564-.81.725-1.531 1.331-.658.426-1.378.575-.87.258-.838.037-.85-.211-1.029-.484-.709-.582-.897-1.121-1.006-1.576-.603-.488-.677-.218-.685.044-.69.298-1.092.797-.768.746-.422.64-.165.648.051.652.56 2.343.09.848-.078.677-.29.782-.286.546-.544.368-.705.21-.87.095-.99-.05-.873-.019-.709.19-.595.41-.383.46-.13.538.098.604.728 2.245.294 1.096.126 1.04.023 1.11-.156 1.077-.212.775-.482.775-.485.623-.38.598-.317.53-.347.458-.781.683-.837.762-.51.647-.61 1.021-.377.395-.46.228-.908.303-.448.311-.266.412-.065.416.086.39.619 1.226.16.488.074.394-.074.483-.182.32-.282.215-.378.096-.458-.011-.771-.084-.605.037-.537.128-.853.47-2.209 1.22M195.334 185.783l.341-.749.474-.506.607-.331.595-.073.799.08 2.83.59 1.966.415.423.007.493-.082.486-.173.777-.396.607-.177.912-.138 1.392-.127.866.012h.99l.67-.084.485-.21.462-.39 1.892-1.86.998-.822 1.065-.745.584-.54.457-.61.376-.805.345-.437.497-.258.881-.204 2.025-.149 1.147.004 1.202.004 1.19-.077 1.25-.145 1.425-.077 1.284-.09 1.221-.187" clip-path="url(#p9732101f4e)" style="fill:none;stroke:#000"/><path d="m317.303 237.097-.963-.522-.578-.416-.272-.35-.23-.535-.326-1.2-.599-1.721-.302-1.092-.168-.92-.25-2.03-.15-1.132-.148-.55-.27-.586-1.131-1.58-.76-1.058-.211-.615-.075-.83.063-1.56.184-1.19-.032-.63-.098-.822-.485-1.383-1.417-3.355-.17-.556-.015-.663.231-1.721.404-1.35.466-1.262.352-1.34.156-.83-.066-.64-.254-.553-.54-.651-1.273-1.161-.517-.196-.65-.084-.924-.066-.658-.185-.842-.295-.305-.236-.165-.411-.016-.51.016-.579-.09-.52-.313-.906-.384-.531-.375-.262-.576-.135-.76-.277-.646-.349-.575-.608-1.16-1.801-.532-1.12-.176-.561-.11-.408-.238-.37-.45-.28-1.265-.529-2.1-1-.864-.226-2.225-.677-2.079-.931-1.44-.495-2.084-1.805-2.27-.29-1.865-.045-2.208 1.005-2.255.393-2.914-.393-1.894-.277-2.93-1.557-1.941-.466-1.144-.815-2.49-4.95-.783-2.328-.552-.819-.53-.487-.806-.434-.943-.221-.979-.084-1.284-.31-.736-.36-.486-.56-.27-.666-.106-.506-.258-.436-.568-.32-.787-.172-.93-.076-.836.078-.532.213-.496.397-.851 1.08-1.034 1.336-.838.851-1.183.935-.751.768-.6.895-.305.747-.133.717-.016.691-.09.698-.293.612-.6.775-.395.675-.495 1.155-.247.306-.27.116-.384-.09-.323-.306-1.37-1.689-.893-.92-.873-.746-1.915-1.805-.45-.422-.51-.324-1.01-.422-2.036-.83-.912-.291-.967-.098-.963.101-2.025.484M293.152 124.23l1.124-.058 1.758.04 1.1-.007 1.05-.186 2.051-.815.693-.2.615.029.666.273.552.61.466.933.392.316.461.113.67-.036.78-.212 2.513-1.754.873-.494.807-.237.94-.076 1.088.029.756-.099.857-.287.916-.262.987-.098 1.21.15 1.7.661 2.568 1.66 2.24 1.717 1.37.772 1.363.35 2.341.086M333.87 132.48l-2.048-2.577-.674-.633-.833-.6-1.061-.775-1.195-.747" clip-path="url(#p9732101f4e)" style="fill:none;stroke:#000"/><path d="m287.107 146.918 1.342.129.733.04.599-.038.95-.268.426-.012.341.105.7.484.621.266.827.112.696-.052 1.161-.197.603-.083.547.043.563.137.615.282.507.364 1.007.902.8.619.39.111.353-.02.33-.138.327-.215.294-.082.348-.006.793.039.644.14.584.214.8.477 1.304.82.897.56.638.285.908.291.649.091h.677l.725-.053.585-.182.965-.543.626-.457.57-.617.656-.791.343-.313.5-.36 1.136-.667 1.087-.677.427-.396.342-.432.357-.654.317-.56.503-.69.429-.457.618-.413.681-.302.425-.28.333-.335.372-.542.343-.616.21-.531.068-.53.02-1.058.164-.861.337-1.326.532-1.323 1.096-2.366.474-1.073.282-1.06.372-1.043.767-1.45 1.316-2.212M346.955 191.824l-.626-1.863-.235-1.124-.215-1.482-.102-2.146-.126-2.656.016-2.304-.145-1.223-.234-1.295-.345-1.085-.42-.739-.613-.61-1.038-.787-1.07-1.106-1.225-1.696-.56-1.102-.239-.903-.097-.873.035-1.222.301-2.904.408-3.985-.032-1.427-.172-1.881-.321-2.478-.094-1.569.043-1.987-.098-.64-.294-.739-.481-.79-1.143-1.258-.486-.743-.349-.79-.258-1.153-.227-2.1-.231-2.7-.364-2.46-.29-1.234-.47-1.503-.674-1.451-.614-1.336M357.402 205.164l-.677-1.772-.415-.863-.588-.866-.857-1.302-.47-.943-.438-.556-.654-.34-.873-.22-.654-.183-1.363-.582-.979-.564-.403-.418-.274-.633-.333-1.122-.337-.876-.61-1.037-.522-1.063M287.107 146.918l.066.606.043.735.16 1.044.209.597.363.513.51.415.638.338.677.288.513.291.372.36.564.448.517.222.74.156.873.208.497.222.56.382.783.415.635.396.536.44.513.616.23.59.193.872.254.765.419.655.474.608.944.851.552.648.88 1.153.706.848.555.746.494.393.552.273.65.105.76-.057 1.182-.226 2.859-.82 1.809-.622.896-.192.861-.116 1.512-.103 1.163-.018.614.03.611.2 1.382.691.87.55.736.713.681.607.686.448 1.538.677 1.108.545.807.587.505.636.419.972.31.608.38.473.669.535.986.651.646.557.459.56.461.92.372.568.545.506.834.56.748.75.583.848.259.64.23.885.251.728.302.545.5.543.698.556.423.404.328.597.564 1.328.427.997 1.35 2.165.765 1.405.556.848.661.658.771.492 1.367.491 1.68.386 1.233.418 1.038.564.9.55.881.47M394.548 271.494l.83-1.866M394.548 271.494l-2.665-.7M397.867 270.576l-.16.715-.19.345-.259.213-.34.06-2.37-.415M395.379 269.628l2.488.948M395.379 269.628l-1.95-.7M419.036 278.057l-23.841-5.437-1.707-.196-1.605.036-1.156.117-1.421.27M391.883 270.794l-1.563.15-.576.18-.29.387-.137.484-.011.851M391.883 270.794l1.546-1.866M397.867 270.576l.206-.804-.047-.253-.157-.22-2.408-1.841-.544-.397M393.429 268.928l.775-.95.713-.917M389.236 267.392l.765-1.46.248-.196.376-.02 4.292 1.345M393.429 268.928l-4.193-1.536M346.838 245.36l-.086 1.482-.036 1.266.079.815.274.695.376.564.807.768 1.464.928.501.356.345.386.184.458.227.87.22.84.61 1.35.576 1.572.301 1.19.168 1.12.13 1.332.281.826.353.546.666.531 1.378.772.943.505.635.52.826.896.865.727.423.462.318.626.422 1.292.529 1.052 1.672 2.296.963 1.073.78.597 1.025.523 3.39 1.26.839.407.599.37.415.449.63 1.262.337.95.176 1.022.169 1.605.211.797.83 1.786.255 1.044.047.83-.106.83-.14 1.513.163.84.376.899.552.84.63.655 1.172.75.833.575 1.246 1.084" clip-path="url(#p9732101f4e)" style="fill:none;stroke:#000"/><path d="m355.879 232.09-1.112 2.082-.434.997-.623 2.045-.38.833-.49.702-1.12 1.386-.727 1.14-.721 1.462-.767.92-.952.729-1.715.975M317.303 237.097l.99-.507.786-.404.693-.439.615-.504.54-.378.591-.275.644-.116.905-.037 1.523.131 1.284.219 1.433.469.717.36.333.343.258.425.188.495.32.793.498.935 1.191 1.747.458.786.97 2.336.901 2.197.525 1.136.83 1.157 1.672 1.754.447.236.509.026.544-.291 1.033-1.048 1.888-1.565 1.778-1.106 1.307-.539 1.394-.233 1.77.16" clip-path="url(#p9732101f4e)" style="fill:none;stroke:#000"/><path d="m287.214 258.08.358-.76.372-.57.729-.808.536-.972.411-1.175.36-1.303.514-.88 1.123-1.194 1.39-1.299.862-1.059.536-.451.47-.262.807-.24.56-.2.517-.28.551-.513.87-1.547.607-.596.787-.462.97-.288 1.293-.378 1.014-.52 1.273-1.005 1.006-.917.728-.866.486-.37.65-.314 1.331-.2 1.038.065.853.23.764.218.99.142 1.132.102.626.178.807.397.56.142.529-.008.465-.214.423-.652.486-1.531.305-.623M286.214 258.689l1.038 1.233M287.214 258.08l-.503.303-.497.306" clip-path="url(#p9732101f4e)" style="fill:none;stroke:#000"/><path d="m276.433 225.632-1.825.775-2.49 1.142-1.116.714-.552.625-.924 1.813-.502 1.259-.05.615.144.618.47.95.26 1.018.077 1.267.008.837.211.768 1.5 3.216 1.12 2.438 1.033 1.383 1.434 1.491 1.981 1.958 3.32 3.617 1.614 1.484 1.225 1.42 1.778 2.375 1.065 1.274M287.214 258.08l.038 1.842M284.62 220.356l-.215 1.073-.215.765-.427.87-.282.457-.325.27-.497.17-.717.172-1.104.316-1.715.502-.991.19-.787.203-.912.288M283.187 213.42l-.329 1.496-.266.826-.356.695-.462.451-.412.382-.293.44-.321.805-.317 1.062-.282.604-.429.56-.564.546-.728.532-.777.47-.355.317-.256.328-.196.411-.164.73-.247 1.557M287.545 277.016l.051-1.594.123-.65.265-.601.368-.564 2.15-1.838 1.033-1.077.814-1.215.768-1.849.18-1.113-.149-.968-.54-.938-.838-.786-1.402-.932-1.8-1.375-1.316-1.594M287.545 277.016l-.462 1.111" clip-path="url(#p9732101f4e)" style="fill:none;stroke:#000"/><path d="m315.091 277.009-2.357.602-.613.185-.444.213-.327.29-.36.603-.255.466-.221.246-.274.116-.304.06-.384-.014-.793-.091-.395-.111-.374-.199-.245-.26-.215-.48-.141-.502-.077-.653-.123-1.122-.297-1.168-.45-1.107-.78-1.473-.45-.502-.443-.354-.551-.312-.725-.473-.419-.444-.376-.655-.38-.822-.462-.593-.575-.379-.487-.164-.398-.078-.404.058-.485.184-.861.371-.51.168-.552.094-1.433.026-.536.025-.403.138-.286.263-.29.836-.274 1.175-.286.706-.434.615-.517.463-.62.308-.739.197-.92.116-.96.28-.704.39-.597.578-.375.563-.375.942-.29.686M287.083 278.127l-.305.48-.421.587-.962.962-.904.855-.861 1.07-.662 1.197-.282.99-.004.92.133.837.368 1.514.54 1.786.314 1.022.18.87.207 3.875-.101 1.797M287.682 317.718l.02-.924-.04-1.218-.12-.95-.204-.717-.682-1.2-.36-.706-.293-1.044-.333-1.608-.165-1.867-.438-2.387-.274-1.153-.133-.899-.165-1.82-.207-1.884.007-1.313.028-1.139M281.088 280.858l-.101.98-.118.549-.23.73-.118.572v.71l.11.734.407 1.328.896 2.5.63 1.845.545 1.757.383 1.19.435 1.506.396 1.63M329.55 297.624l.624.63.642.724 1.147 1.63.528.596.702.48 2.208 1.176.69.516 2.141 2.06M329.55 297.624l.944-.099 1.129-.167.657-.149.693-.4.584-.51 1.636-1.28" clip-path="url(#p9732101f4e)" style="fill:none;stroke:#000"/><path d="m321.556 299.287.7-.215.631-.076.818-.051 1.038-.12 1.934-.444 1.457-.437 1.417-.32M321.556 299.287l.708-2.238.141-.917.016-1.026-.172-.928-.588-2.19-.486-1.492-.845-1.924" clip-path="url(#p9732101f4e)" style="fill:none;stroke:#000"/><path d="m287.682 317.718.994.07.87-.062.795-.266.732-.39 1.026-.825.744-.411.74-.142.658.054 1.088.251 1.41.623 1.71.884.808.313.79.11.936-.008 1.148-.026.947.026 1.018.098h.975l1.707-.084 1.058.015.97.029.745-.138.735-.357 1.034-.644 1.085-.517 1.386-.694 1.112-.677.513-.499.493-.739.58-.745.524-.539 1.18-1.062.641-.815.4-.979.309-1.528.294-.793.56-1.11.34-.81.137-.663.04-1.255.038-1.736.122-.99.235-.767.247-.633M287.682 317.718l-.075 1.096M287.607 318.814l-1.112.192-.786.044-1.198-.018-1.68-.022-1.946.047M287.607 318.814l-.109 1.477M291.167 320.96l-2.005-.367-1.664-.302M266.46 340.687l.622-1.255.999-1.554.697-1.433.803-1.82.333-.56.438-.48.678-.56 1.914-1.455.748-.448.732-.397.697-.462.544-.57.948-1.41.607-.668.544-.452.72-.312.874-.331.564-.393.615-.637.61-.76.756-.68 2.772-1.784 1.328-.873.755-.571.74-.531M259.878 338.642l-1.034-.28-.83-.356-.63-.44-.396-.485-.172-.494.015-.397.2-.462.674-.964.113-.32v-.25l-.143-.18-.27-.08-.48.022-.547.231-.427.227-.463.173-.54.104-.54.029-.726-.118-.707-.266-.468-.307-1.956-1.46-1.864-1.484-.422-.221-.564-.117-.723.033-.9.133-1.485.225-.833.08-.55.097-.76.242-.484.062-.432-.033-.492-.11-1.137-.4-.878-.369-.64-.13-.551.003-.505.134-.38.224-.367.457-1.666 2.574-.282.384-.288.245-.317.18-1.014.273-1.672.426-.35.135-.29.176-.256.26M259.878 338.642l.49-.626.696-.527.916-.637.224-.24.086-.24.023-.452M259.878 338.642l-.27.55M259.608 339.192l.458.388M259.608 339.192l-1.348.773M260.066 339.58l.463.633M261.98 339.85l-.708-.142-.65-.087-.556-.04M312.24 356.673h2.232l2.185-.124 1.05-.207M312.24 356.673l-2.482-.087-3.03-.012-1.908-.323-1.21-.531-.79-.571-.682-.732-1.394-1.731-1.104-1.041-2.24-1.579-1.44-.917-1.81-.517-2.536-.429-1.794-.182-1.496-.232-3.72-.91-3.986-1.019-1.401-.364-1.206-.538-3.47-1.82-2.513-.96-2.694-.768-2.874-.723M261.98 339.85l1.488.295 1.32.247 1.672.295M163.505 315.314l.382.005.293-.043.24-.106.255-.238.392-.546 1.077-1.961.388-.491.356-.262.282-.117.235-.033 1.378.19 1.198.072 3.932-.327 1.276-.262 1.347-.415 2.083-.771 1.014-.393.403-.15.744-.203.634-.248 1.559-.832 1.085-.575.959-.663.986-.815 1.113-1.084.759-.99 1.206-1.44M115.756 482.462l-1.36.164-4.612.714M152.17 251.139l-2.248.287-.838.091-.783.044-.411-.084-.447-.207-.72-.495-2.306-1.765-.858-.56-.595-.219-.912-.232-1.363-.172-.857-.141-.658-.179-1.183-.564-1.813-1-1.069-.579-1.41-.462-1.953-.317-.638-.007-.278.044-.357.135-.356.214-1.202.863-1.52 1.098-.947.525-1.417.52-1.022.229-.764.073-1.437-.15-2.36-.672-.725-.375-.568-.434-2.153-2-.83-.64-1.395-.809-3.167-1.611-1.147-.47-.995-.27-.822-.276-1.23-.654-1.21-.73-1.045-.37-1.214-.247-2.216-.073M329.049 576.497l-.794.039-1.492.01-1.355-.086-1.21-.226M327.581 581.232l-1.057-2.852-.505-.745-.822-.735-.999-.666M329.049 576.497l1.92-.365M327.581 581.232l.173-1.63.25-1.345.54-1.16.505-.6M287.005 609.224l-.615.09-1.973.687-2.342 1.542-2.862 2.266-.521.723-1.86 3.645-1.593 1.815M273.696 621.537l.473-.48.637-.645.433-.42M545.584 508.472l.328 1.032 1.535 6.314 1.816 3.216 2.13 2.59 1.254 1.833 1.44.815M555.81 582.33l.69 1.185.642 1.397-.173.706-2.13 2.597-.924 1.477-.517.16-1.153-.153" clip-path="url(#p9732101f4e)" style="fill:none;stroke:#000"/><path d="m556.813 591.78-2.1-.234-.97-.654-1.034-.873-.464-.32M556.813 591.78l-.893-1.266-.126-.619.392-1.033 1.057-2.24.486-1.331-.29-1.004-.916-1.382-.713-.575M565.185 595.707l-1.2-.276M565.185 595.707l-1.638 2.14M563.986 595.431l-.439 2.415M556.813 591.78l3.962.974 1.3.131.595.83 1.316 1.716M561.777 600.988l2.647.612 1.99.261 1.582-.8 1.017-.32 1.3.218 1.535.946 2.57 1.6 1.596 1.018-.03.743-1.41 1.527M561.777 600.988l.314-.538 1.456-2.604M279.382 459.44l-1.352.764-1.656.76-3.074 2.121-1.033.557-1.026.407-.462.338-.482.666-.529 1.077-.278.814-.36 1.743-.798 1.538M298.712 452.848l-1.085-.447-.708-.127-.72.073-1.308.65-2.413.794-5.767 1.753-3.148 1.572-2.326 1.054-1.855 1.27" clip-path="url(#p9732101f4e)" style="fill:none;stroke:#000"/><path d="m230.17 485.002.748-1.263 1.633-2.542 1.398-1.383.372-.51.259-.68.243-1.065.285-.607.47-.459.678-.371.9-.342.572-.28.67-.596.935-.874.552-.302.748-.276 1.629-.47 2.13-.712 1.683-.793.981-.692.711-.501 1.692-.957 1.789-.862 1.077-.644.575-.404.572-.229.905-.098 1.742.007.736-.24.639-.327.567-.313.548-.146.572.048 1.174.382 1.05.08.654-.146.642-.44 2.232-2.368 2.256-1.943.579-.334.61-.131 1.39.232.621.119.462-.078.382-.15 1.073-.593.834-.301 2.247-.433 3.995-.575M325.51 441.379l-1.307.41-3.035.383-3.794.313-1.418-.073-1.01.09-.814.408-1.179 1.204-5.983 6.126-1.746 1.252-1.77.96-1.206.174-1.97.018-1.566.204" clip-path="url(#p9732101f4e)" style="fill:none;stroke:#000"/><path d="m330.455 571.502.925-.105 1.487-.08 1.351-.204 1.187-.273.716-.036.916.103 1.16.119 1.382-.11.924-.207 1.539-.57 2.463-.78 2.247-1.032 1.339-.808 1.363-1.156 2.208-2.176.76-.527 1.91-.833.89-.626.59-.647.564-.902.274-.88.055-2.219.078-.807.33-.859 1.186-3.171.203-1.004-.004-.713-.234-1.262-.004-.924.059-.797-.036-.789-.262-.833-.384-.844-.697-3.768-.2-.51-.45-.498-.43-.309-.901-.596-.885-.815-1.088-2.102-.854-1.863-.301-.8-.67-4.495-.15-.917-.241-.815-.431-.858-1.32-2.292-.47-1.062-.125-.655.09-.589.388-.491.708-.575.27-.31.153-.45.118-1.084-.099-.815-.317-1.397.063-1.076.29-1.012-.047-.538-.215-.567-.33-.513-.84-1.546-.377-1.288-.595-1.273-1.508-3.408-.485-.735-.729-.647-1.405-.71-1.206-.531-1.61-1.138-1.35-.76-.752-.583-.854-1.01-.806-1.448-.744-1.834-1.19-1.957-.627-.996-3.125-4.46-1.018-1.2-1.151-.976-1.464-1.622-3.039-3.725-1.268-2.066-3.062-4.11-1.214-2.27-.713-1.026-2.098-1.818-2.483-1.248-1.096-.579-.948-.698-1.574-1.44-2.287-2.198-.893-1.247-.461-1.328-.313-1.15-.369-.629-.56-.52-1.362-.873-.29-.38-.164-.595-.345-.888-.552-.997-1.026-1.008-2.177-1.2-.384-.425-.27-.39M325.51 441.379l1.554-.815.92-.92.302-.6.036-.994-.317-.851-1.352-2.165-.125-.564.086-.665.247-.451.685-.931.553-1.106.743-.928 1.574-1.248.474-.655.235-.564.278-1.815.11-1.48-.172-.852-.74-1.935-.044-.866.235-.658.76-1.63.478-1.223.246-1.28.321-.811.709-.862.987-1.03M340.475 440.968l-.74-.324-.885-.815-1.719-1.91-.191-.48-.106-1.022-.02-1.273-.4-1.98-.265-1.702-.384-1.258-.564-1.26-.69-1.585-.399-1.346-.234-1.82-.368-2.422-.165-1.819.117-.99.447-1.186.32-1.738.11-1.441-.046-1.117M325.51 441.379l-.905-2.67-.579-1.521-.853-1.484-.639-1.244-.23-1.023-.228-1.99.188-2.94-.054-6.693-.103-2.735.071-1.15.446-1.564.654-3.478.09-.542.231-.52.976-1.36.32-.553.212-.706.031-.797.047-2.092-.015-2.248-.15-1.092-.36-1.193-.36-1.316-.227-1.197-.36-2.58-.376-1.528-2.717-6.657-2.546-4.504M156.112 316.998l1.531.167.388-.014.415-.076 1.562-.463 1.014-.313.604-.189 1.03-.407.849-.39M160.403 130.257l.005.985.02.717.09.623.117.324.297.378 1.328 1.605 1.62 2.038.811 1.092.337.662.153.499.074.589-.063.688-.372 1.423-.403.906-.43.53-1.273 1.11-.438.434-.228.338-.144.463-.228 1.277-.035.837.086.48.192.477.27.324.329.221 1.273.576 1.202.542.238.237.13.272.05.259-.023.579-.07.946.004.778.094.433.239.434 1.965 2.16 2.423 2.49 1.007.844.756.459" clip-path="url(#p9732101f4e)" style="fill:none;stroke:#000"/><path d="m171.845 142.247.211.331.368.412.787.607.212.288.114.266.078.454-.008.211-.07.193-.173.19-.67.352-1.464.728-.697.488-.47.473-.794 1.161-.38.691-.153.397-.141.615-.125.41-.227.398-.282.51-.063.272-.008.244.245 1.137.131.373.169.27.254.225.8.48.52.368.309.364.462.895.243.924.176 1.165.148.564.263.662.125.493.07.428M133.535 130.94l5.27.761.976.077.63-.022.63-.099 2.651-.68 1.053-.218.4-.022.42.054.704.295.661.542.58.644.27.186.282.058.242-.036.322-.215.38-.448 1.06-1.299.47-.585.224-.16.278-.08.191.01.232.106.164.167.466.743.45.658.337.287.611.368 1.073.372.638.072.763-.062.341-.098.267-.186.18-.236.215-.448.192-.312.258-.244.916-.463.958-.395.19-.043.195.024.384.116.344.128M143.206 384.402l.424.113 1.19.185 1.308.117 1.785.203 1.586.452.58.258.32.295.341.502.31.738.293 1.124.25 1.441.087.968-.063.53-.188.539-.352.739-.117.487.011.382.125.455.279.488.423.483 1.307.96 1.652 1.274 2.374 2.08 1.111.874M164.187 394.285l-3.963 3.862-1.057 1.04-.925.902M144.859 413.26l.443-.639 7.795-7.475 5.145-5.057M143.206 384.402l-.364-.098-.712-.364-.85-.546-.947-.487-.65-.204-.846-.113-.99-.072-.584-.033-.356-.073-.278-.182-.459-.41-.579-.547-.427-.323-.493-.244-.533-.13-.806-.157-.983-.03-.392-.021-.372-.099-.732-.444-1.143-.76-1.178-.742-.69-.397-.254-.214-.29-.353-.552-1.008-.521-.85-.2-.35-.086-.317-.05-.637.003-1.026-.027-.553-.137-.381-.286-.393-.513-.47-1.288-1.313-.357-.447-.133-.353-.062-.313.007-.43.024-.796.012-.608-.098-.986M178.89 379.96l4.733-4.507M183.623 375.453l.125.552.086.48.06.769-.052.807-.145.557-.391.49-.498.394-.473.189-.838.076-.764-.061-.697.061-1.147.194M178.89 379.96l-11.638 11.338M186.129 373.11l-2.506 2.343" clip-path="url(#p9732101f4e)" style="fill:none;stroke:#000"/><path d="m186.129 373.11-.72.221-.74.328-.702.404-.266.25-.121.237-.031.223.074.68M197.851 357.145l-3.29 5.997-1.444 2.232-1.956 2.576-1.43 1.573-3.602 3.587M196.001 333.49l-1.039-.527-.572-.244-.606-.167-1.441-.222-1.711-.331-1.778-.255-.556-.003-.278.061-.196.156-.168.292-.211.746.004.272.058.197.106.153 1.12.666 1.93 1.033.807.603.23.346.153.422.06.404-.107 1.492.047.756.11.47.22.37.407.346.426.244.634.157 1.116.062.568.127.247.134.243.28.176.474.121.644.023.57-.015.685-.235.953-.905 2.045-.457 1.106-.138.491-.031.411.079.364.285.71.337.713.137.541v.706l-.106.503-.285.498-.682.706-1.226.927-1.3.913-1.519.808-2.043.899-1.55.68M143.206 384.402l-.371.204-.611.098-2.392.251-2.968.073-.65-.102-1.864-.568-1.3-.327-.54-.102-1.003-.204-.603-.167-3.367-1.404-1.794-.633-.587-.226M144.859 413.26l-1.099 1.584-1.656 2.777-1.204 2.465-15.811 37.345-.466 1.188-.384 1.35-.18 1.404v1.305l.144 1.148.252 1.025 1.824 5.586.377 1.492.108 1.07-.18 1.127-.386 1.294-.692.95-.715.742-1.002.86-.53.456-2.246 1.837-1.111.823-.21.114M115.756 482.462l1.393-.217 1.343-.383 1.2-.66M119.886 482.571l-.078-.56-.115-.809M208.706 427.431l-.329.954-.43.625-2.045 2.088-1.378 1.405-.69.938-.45 1.077-.034 1.506.246.59.474.406 2.6 1.223 2.748.99.78.425 1.993 1.699.172.265.067.393-.13.422-.54 1.808-.262.422-.282.266-.482.07-2.216.08-1.786-.198-4.573-.96-1.057-.167-1.093.105-3.41 1.037-1.206.538-1.848 1.543-1.018 1.15-1.723 1.527-.69.844-.485.99-3.007 6.882-1.715 3.958-1.221 4.067-.431 1.397-.22.946-.156 1.426-.047.982-.117.633-.424 1.163-.657 1.666-.486 1.746-.853 3.325-.54 2.205-.056.589.094.727.197.677.485.938.548.67.65.611.235.422.11.735-.071.509-.345.538-.556.386-.76.124-1.91-.175-.603.022-.415.11-.415.225-1.065 1.52-.11.35-.14 1.418-.094.517-.22.429-.548.458-.407.19-.979.137-.924.102-.737.291-1.934 1.215-1.629 1.288-1.213 1.31-1.246 1.513-1.19 1.39-1.072.915-1.12.67-.83.531-.44.393-1.111 1.237-.47.378-.776.226-.774.014-2.475-.538-.58-.088-.587.044-.517.153-1.3.742-.454.116-.478-.073-1.59-.741-1.19-.502-.838-.408-.556-.502-.79-.727-.36-.226-.447-.131-.774.04" clip-path="url(#p9732101f4e)" style="fill:none;stroke:#000"/><path d="m230.17 485.002-.825.309-1.218.69-2.436 1.521-1.182 1.033-.74.59-1.124.662-1.875.818-1.195.662-.869.626-.947.938-1.559 1.673-1.707 1.39-2.09 1.448-2.025 1.76-1.336 1.219-.7.542-1.022.524-1.148.32-2.25.345-.8.2-.9.485-1.152.97-.743.394-1.199.45-.477.263-.517.632-.705.946-.353.32-2.623 1.186-3.21 1.506-.807.509-.658.648-1.16 2.757-.312.501-.337.306-.485.233-1.206.247-1.74.495-2.975 1.062-.563.35-.784 1.207-.266.262-.25.146-.784.087-2.365-.117-.814.015-.439.102-.799.393-.735.232-2.835.102-1.003-.03-.72-.246-.893-.364-.61-.073-1.912.35-3.586 1.003-.815.102-1.206-.189-1.832-.305-2.083-.655-1.927-.975-.61-.45-.674-.7-1.284-1.862-.564-1.106-.438-1.63-.455-1.221-1.472-2.634-1.19-1.659-1.096-1.658-1.081-1.484-.5-.529M119.886 482.571l.305.073 1.433 1.004 1.762 1.114.729.683.203.495.039.538-.415.997-.673 1.135-.509.975-.768 1.746-.266.924-.023.48.125.393.58.982.563.582.658.437.932.45.681.379.282.407.157.546.227 1.317 1.174 1.71.98 1.388.916.721.689.29.486.06.923-.234 2.702-.85 1.52-.728.555-.102 1.018-.08 2.796.094 1.974.226.657.189.744.342 1.527.96.409.432M115.756 482.462l1.287.342h.626l2.217-.233M164.187 394.285l.727.464.542.428" clip-path="url(#p9732101f4e)" style="fill:none;stroke:#000"/><path d="m146.653 445.474.367-.363.322-.502.148-.582-.031-1.091.149-.946.235-.677.752-1.011 1.08-.975.298-.379.14-.392-.015-1.092-.015-1.134.156-.692.274-.698.729-.852.814-.669 2.474-2.168.439-.233.462-.101.47.072.392.19 1.581 2.007.486.502.407.219.29.087.478-.087.579-.292.54-.574.392-.858.22-.961-.016-.902-.314-2.052-.258-1.077-.298-1.054-.61-1.121-.486-.662-1.418-1.062-.595-.699-.172-.626.047-.538.345-1.091.5-1.601.142-.844.376-.699.704-.756 1.629-1.077.971-.567.58-.742.924-1.252.454-.64.031-.597-.172-.538-.392-.51-.994-.771-.854-.997-.36-1.047v-.459l.877-3.238.752-2.466.533-1.637 1.198-3.085.242-.444.486-.83.338-.364M167.252 391.298l-.004.94-.141.67-.72 1.266-.931 1.003M164.187 394.285l3.065-2.987M147.074 459.887l1.02.102 1.816-.16 2.232-.342.454-.21.956-.648 1.448-.932.83-.305 1.457-.35 1.52.051 1.706.437 1.958.772.971.261" clip-path="url(#p9732101f4e)" style="fill:none;stroke:#000"/><path d="m147.074 459.887-.72-.072-.57-.219-2.6-.989-2.483-.858-.533-.263-.266-.283-.125-.386-.126-2.72.048-1.31v-2.212l.07-.422.274-.51.391-.407 1.504-1.091 1.825-1.273 1.182-.67 1.708-.728" clip-path="url(#p9732101f4e)" style="fill:none;stroke:#000"/><path d="m147.074 459.887.283-.378.8-.597 1.299-1.215.533-.807.383-.931.04-1.026-.408-1.375-.36-1.688-.321-1.019-.22-.436-.587-.619-.306-.421-.156-.466-.446-1.63-.494-1.099-.461-.706M144.859 413.26l-.133-.474-.11-.466-.172-.393-1.026-1.405-.438-.873-1.37-2.372-1.222-1.97-.611-.554-.783-.553-1.238-.553-1.957-.815-2.319-1.004-.94-.291-1.315-.422-1.308-.502-1.127-.524-1.261-.946-1.707-1.506-.486-.524-.61-.902-.369-.742-.172-.531M405.055 413.51l.61.65 5.427 5.712.838 1.295.384 1.04M417.114 497.245l-1.871-2.582-.353-.815.023-.8.251-.837.228-1.04.054-3.492-.212-2.932-.43-.568-.814-.407-.819-.178-.81.062-1.12.633-.666.29-.853-.138-1.034-1.302-.165-.793.235-.865.533-.743 2.451-2.24 1.777-1.42 1.355-1.614.807-1.462.321-1.209.267-1.782.2-2.528-.103-.392-.313-.383-1.088-.8-.6-.698-.352-.793-.979-2.147-.477-.538-.662-.222-.615.12-1.198.539-.799.007-.924-.204-.548-.502-.211-.713-.987-3.696-.204-1.506.078-1.527.838-5.29.157-1.455 1.582-4.03.266-.771-.031-.44-.196-.514-.658-1.12-.286-.815-.52-2.394-.212-1.484.133-1.462.948-4.482.344-2.234.369-1.258 2.137-2.721.619-.932.344-.807-.007-.612" clip-path="url(#p9732101f4e)" style="fill:none;stroke:#000"/><path d="m435.995 440.098-1.989-1.251-1.132-.215-.85.07-1.252.486-.917.153h-.689l-4.385-1.702-.775-.451-.76-.938-3.156-4.38-2.373-2.7-2.318-2.837-1.355-1.375-1.065-1.456-.665-1.295M440.497 519.907l.643.53.619.801.61 3.55.415.895.764 1.015.349.433.164.516.157 2.568.066.411.325.255.744.284 1.727.407.529.338.399.524 1.252 3.347.82 2.87M417.114 497.245l.384.826 1.072 1.757.948 1.52.501 1.295.376 2.147-.016 1.847-.305 1.746-.454 1.528-.36 2.88-.517 2.874.015 1.586.408 2.241.14 1.135-.203 1.113-.83 2.24-.517 1.354-.235 1.55-.015.974.18 1.026 1.26 2.852 1.265 2.262.54.75.51.494.372.658.101.63.09.782-.047.934-.278.735-1.33 1.775-1.684 1.79-2.381 2.291-.712 1.033-.424 1.019-.266 1.31-.493 4.837" clip-path="url(#p9732101f4e)" style="fill:none;stroke:#000"/><path d="m440.497 519.907-2.341-1.004-.673-.531-.446-.698-1.45-3.122-.673-.865-4.26-3.674-1.175-1.222-.595-.88-.47-.422-.744-.331-1.331-.382-1.44-.684-1.136-.938-1.417-1.71-2.992-3.667-2.24-2.532M474.07 488.555l-1.402.732-1.378.756-1.152 1.092-.775 1.273-.415 1.826-.595 2.248-2.256 5.121-.344 1.099.039 1.135.313 1.178.705 1.455.102.793-.188 2.24-.736 3.871-.455 1.55-.9 1.775-2.294 3.179-2.757 2.968-.893.997-.955.77-.885.292-1.08.204-1.77-.052-1.379-.247-1.394-.735-3.641-1.411-1.457-.713-1.3-.836-1.785-.604-2.546-.604M330.455 571.502l.267-.546.45-.778.263-.673.035-1.258.156-.582.286-.422.638-.782.145-.255.094-.462.016-2.131-.032-.866-.203-.814-.548-1.091-.196-.815-.094-1.055-.297-1.317-.878-2.67-.391-1.95-.102-1.432-.04-2.43-.062-.666-.157-.585-1.495-2.576-1.073-2.473-.298-1.09-.125-1.048-.078-2.998-.274-.978-.525-1.153-.533-1.164-1.006-1.571-.42-.91-.72-1.87-.414-.843-.768-1.143-.846-1.418-.438-1.062-1.456-4.62-.353-.502-.43-.338-1.884-1.007-.615-.197-.568-.044-1.102-.047-.282-.078-.23-.173-.261-.67M330.969 576.132l-.82-1.356-.285-.608-.059-.582.118-.756.532-1.328M267.45 382.82l.56.29 1.03.372 1.79.469 1.19.444 2.091 1.338.94.808.927.975.439.372.705.363 1.108.459 1.222.604 1.472.996.556.539.329.582.337.517.72.661 1.143.874.388.44.677 1.24 1.582 2.525.42.607.66.47 2.852.72" clip-path="url(#p9732101f4e)" style="fill:none;stroke:#000"/><path d="m274.088 410.53-.318-.793-.063-.673.075-.331.282-.64.262-.834-.023-.862-.231-1.244-.783-4.278.027-.622.278-1.175.102-.87-.137-.906-.615-1.36-.419-.852-.372-1.207-.532-2.016-1.535-3.834-.768-2.052-1.867-3.161" clip-path="url(#p9732101f4e)" style="fill:none;stroke:#000"/><path d="m253.828 347.083.173 1.018.172 2.165.169 1.113.207.88 2.302 9.391.948 3.602.423 2.088.822 2.153 3.132 5.195 1.942 3.188 1.449 1.797 1.324 2.132.56 1.015M258.26 339.965l-1.432-.028-2.96.11-2.632.385M240.062 342.135l1.605-.24 4.48-.583 2.724-.429 2.365-.451M253.828 347.083l-.305-1.521-.572-1.528-1.112-2.205-.603-1.397M474.07 488.555l.524-.905.078-.24.012-.486-.155-.377-.323-.4-2.016-1.43-1.257-1.48-.394-.189-.408-.047-.478.069-.404.24-1.244 1.026-.842.473-.811.109-.686-.186-.567-.433-.2-.614-.634-3.281-.368-.936-.72-.876-1.692-2.508-.333-.335-.454-.406-.372-.665-.274-.487M474.07 488.555l1.002-.818 1.104-1.375 1.801-2.219 1.3-1.23 1.355-.636 1.707-.44.979-.408.618-.64 4.793-6.206 1.895-2.386 2.185-1.797 1.747-.96 3.398-1.514 1.152-.458.556-.389.328-.556 1.065-2.787.416-.6.563-.237.713-.014 2.255.437.562.045.253-.102.1-.307-.073-.28-.509-.666-.556-.88M427.15 414.306l.912 1.346.423 1.317.501 2.393.58.713.861.517 1.213.073 1.05-.422 1.253-1.048 1.253-.596 1.425-.16 1.504.109 7.737 1.64 2.263.55.944.396.732.16 1.065-.01 1.942-.183 1.723-.349 7.792-2.496 3.641-1.17.72-.171.717.075.956.445.947.57 1.179.626.571.477 1.273 1.906.681.506.897.382 1.653.44 1.503.262.552.211.568.353.43.44.443.35 1.507.497 1.402.608 1.179.266 1.19.196 1.093.313.884.317.8.436.548.487.771 1.201.712.913 1.077.953.682.684.516.611.267.772-.314 2.415.235.953.4.83.76.989 1.41 1.331.939 1.463.313 1.411.11 1.557-.36 1.848-.18 1.04.117 1.194.728 3.011.129.633.392.768.587.637.948.512 2.556.608 1.637.488.607.392.693.84.768 1.38.457 1.175-.003.629-.1.637.021 1.356.247.822M553.727 462.812l-2.522 3.42-1.518 1.949-.627.946-1.52 1.215-1.088.975-.486.593-.29.614-.532 1.783-.415 1.586-.274 1.768-.07 2.517-.122.928-.336 1.036-.137.735v3.663l-.032.782-.281.488-.486.429-.529.178-.685-.163-.947-.546-1.16-1.099-.94-1.186-.199-.549.04-.633.23-.556.728-1.208.337-.8.133-1.128.004-.72-.098-.662-.31-.473-.978-.731-2.087-1.11-7.283-3.71-1.95-1.593-.646-.331-.955-.204-1.085-.39-1.37-.916-.713-.742-.61-1.033-.705-.96-1.833-1.412-1.057-.826-.509-.207-.65-.084-.646.073-2.745.062-.685-.164-.49-.226-.802-.534-.948-.247-1.515-.27-1.324-.393-2.204-1.193-1.026-.422M405.055 413.51l10.039-2.07 4.001-.677.737-.117.522.055.785.397 1.3.872 3.9 1.725.81.611" clip-path="url(#p9732101f4e)" style="fill:none;stroke:#000"/><path d="m456.184 411.301-.243.917-.4.713-.783.888-.49 1.033-.34.8-.494.546-.774.349-.847.066-.822-.27-2.326-.858-4.604-.99-3.532.037-2.279-.131-.92.08-.713.269-1.147.684-1.084.451-1.132.058-1.175-.21-2.341-.532-2.588-.895M355.836 373.139l.701 2.347.415 1.225.568 1.263.861 1.415 1.132 1.59.709 1.473.76 1.906 1.385 2.023 1.582 1.732.775 1.331 1.566 3.442.494.938.97.75 2.13.735 1.92.662 1.55.713 2.27 1.87 1.74 1.317 1.863.698 2.679.706 2.607.407 2.772.168 2.334.065 1.492.157 5.744 2.339 1.739 1.23 2.693 3.26 2.498 3.259 1.27 1.35M340.475 440.968l.838.476.709.386.513.509.81 1.157.439.593.533.535 2.662 1.68 1.057.571 1.355.586 1.527.56.795.517.411.553.208.65.192 2.85.164 1.229.587 1.39 1.402 2.095 1.903 2.542.575.357.909.193 1.038-.11.892-.29.807-.342 1.331-.961.56-.276.85-.15 1.566.062 1.582.244 3.61 1.364.634.284.333.32.255.458.168.593.05.812.119.469.336.39.799.756.834.545.532.146.502-.022.281-.207.208-.426.192-.895.49-.898.551-.651 1.05-.648.76-.451.712-.75.454-.385.45-.265 1.046-.28.411-.026.407.066.65.36.98.64.434.156.564.026 1.06-.4M376.216 455.29l-.943-.422-1.26-.743-1.967-1.404-.728-1.07-1.406-2.72-.387-.542-.564-.422-.799-.433-2.655-1.36-1.143-.401-1.887-.386-2.765-.662-1.965-.225-1.39.127-1.316.219-.717-.085-.469-.338-.294-.49-.105-1.361-.158-.433-.356-.357-.372-.192-3.289-1.063-1.12-.13-4.181-.103-.948.117-1.652.426-.905.13M197.851 357.145l2.225 1.55 3.18 2.591 1.205 1.062 1.504 1.732 1.707 2.634.908 1.353.897 1.023 1.008.642 3.53 1.26 2.232.64 2.013.94 1.644 1.229.407.786.212.778.47 1.106.517.96 1.26 1.194 2.397 1.732.869.662.462.775.282.855.47 1.316.376.59.16.382.192.378.192.324.18.371.105.4M366.447 316.703l1.397.173M237.755 342.542l2.307-.407M237.755 342.542l.964 1.226M281.088 280.858l.511-.351.464-.255.59-.202.589-.245.393-.242.504-.411.4-.268.414-.19.52-.154 1.61-.413M258.26 339.965l1.011.088 1.258.16M264.048 363.25l-.344-3.121-.376-1.95-.161-1.56-.294-1.955-.164-1.451-.07-1.553-.243-1.929-.223-1.692-.012-.81.102-.852.125-.924-.031-.83-.184-.65-.365-.623-.599-.92-.395-.99-.285-1.227M349.914 369.388l3.173 4.1.337.164.482.033 1.93-.546M349.914 369.388l-.444-.138M355.05 227.768l.21-.739.33-.735 1.202-1.615.555-.819.372-.823.169-.99.11-1.08.152-.757.387-.938.815-1.53.211-.756.044-.793-.126-.899-.27-1.491-.066-.71-.008-.768.176-2.605-.074-.63-.236-.531-.896-1.383-.298-.716-.407-1.296" clip-path="url(#p9732101f4e)" style="fill:none;stroke:#000"/><path d="m381.369 206.281-.239.648-.117.913-.2.611-.376.448-.896.651-1.246.546-.783.219-.614.068-.568.204-.975.568-.814.255-.776-.004-1.233-.237-.83-.13-.752-.066-.564-.269-.388-.473-.583-1.383-.439-1.423-.109-.735-.055-.917.02-.695.277-.862.316-.742.29-.8.039-.481-.059-.188-.145-.096-.23.013-.361.15-1.15 1.03-1.843 1.598-1.352 1.183-.814.596-.969.506-1.345.65-.763.167-.635-.035-.509-.198-.392-.359-.36-.64-.399-.614-.486-.47-.54-.324M355.879 232.09l.263-.578.136-.76-.113-.72-.353-.75-.547-.958-.214-.556M347.366 219.512l1.465.782.897.495 1.002.546.509.37.38.445.857 1.47.897 1.495 1.014 1.823.321.49.343.34" clip-path="url(#p9732101f4e)" style="fill:none;stroke:#000"/><path d="m381.369 206.281.583.862.486.66 1.378 1.473.991.891.419.48.25.39.173.56.208.863.853 2.245.536 1.645.133.89-.03.758-.24.677-.462.564-.634.513-.967.55-.975.374-1.19.262-.705.273-.587.353-.459.415-.383.473-.866 1.764-.38.794-.458.677-1.08 1.131-1.132 1.368-.775.83-1.237 1-.964.71-1.018.608-.567.418-.53.477-.716.764-.56.502-.653.437-.81.688-.651.33-.756.193-.799.066-.7.124-.76.156-.572.044-.516-.117-.643-.294-1.006-.532-1.35-.596-2.123-.852-1.86-.611-1.386-.44M278.074 138.408l.673-.422.45-.419 3.035-3.865.736-.982.65-1.183.755-1.543.694-1.019.81-.865 1.136-.936 1.53-1.045 2.06-1.167 1.265-.478 1.284-.254M293.493 123.515l-.14.382-.2.333M287.107 146.918l-.188-.508-.302-.436-.423-.463-.567-.604-.408-.349-.52-.327-.627-.405-.716-.545-1.563-1.307-.81-.684-1.457-1.492-1.452-1.39M536.177 358.583l.4.271.497.167.656.08.644-.034.607.043.454.13.43.31.356.536.174.545.466 1.943M557.016 279.82l-1.989-.43-9.764-2.758-2.594-.923-2.965-1.283-5.061-2.62-1.19-.364-1.097-.32-1.418-.234-1.612.037-1.903.379-3.015 1.113-4.315 1.812-1.77.75-2.052.953-11.01 5.45-2.898 1.36-2.067.947-2.146.64-4.51.925-2.844.37M453.376 286.034l2.886.682 6.742 1.39 3.25.582 2.247.255 1.88.036 2.115-.153 2.404-.356 12.647-2.35 3.25-.496" clip-path="url(#p9732101f4e)" style="fill:none;stroke:#000"/><path d="m536.177 358.583-.214-.502-.016-.63-.118-.778-.18-.546-.83-1.211-.771-1.026-1.089-1.281-.853-1.35-.435-.607-.36-.386-.466-.327-1.848-1.303-1.664-1.539-1.766-2.03-.686-.662-.665-.695-.58-.786-.391-.785-.693-1.834-.43-.717-.397-.524-.673-.658-1.288-.972-2.698-2.12-2.479-1.834-1.534-1.172-.643-.633-.716-1.033-.376-.568-.45-.513-.728-.546-.717-.458-.623-.564-.281-.546-.071-.56.09-.64.204-1.128-.032-.597-.18-.52-.446-.786-.96-1.95-.407-.513-.626-.564-1.766-1.6-1.233-1.209-1.175-1.306-.325-.575-.126-.611-.039-.913-.149-2.22-.27-2.317-.223-.593-.321-.626-.517-.6-.677-.594-.87-.458-2.086-.764-2.044-.884-1.441-1.015-2.62-1.86-2.423-1.822-1.9-1.794-.841-1.066-.232-.698.013-.74.333-.702.567-.556 1.488-1.499 1.14-1.066.724-.91.466-.91.438-1.12.384-1.186.25-1.132.18-1.219M238.719 343.768l.708-.738.635-.895M233.428 347.032l1.633-.819 2.608-1.714 1.05-.73M253.672 269.54l1.408.727 1.646.873 1.829.84.9.52 1.147.689 1.649 1 1.938 1.255 1.844 1.132 2.514 1.448 1.182.717.592.218.657.149 2.553.56 1.355.19.944.101 1.112.03.889-.08.685-.073.572.015.618.203.634.35.748.454M280.979 111.427l-1.253.095-.823.197-.657.276-1.41.645-.978.334-.917.116-1.045-.036-.843-.222-.767-.342-.775-.535-.607-.378-.677-.317-.728-.288-.611-.28-.725-.378-.572-.346-.376-.222-.285-.353-.274-.557-.564-1.066-.337-.458-.411-.36-.975-.59-1.355-.7" clip-path="url(#p9732101f4e)" style="fill:none;stroke:#000"/><path d="m293.493 123.515-.267-.271-.89-.68-.946-.62-.474-.233-.894-.301-1.416-.488-1.045-.502-.717-.56-.771-.717-1.833-1.944-1.03-1.696-1.636-3.18-.595-.896M249.122 366.808l.098-.97v-.572l-.07-.604.054-.462.16-.48.377-.513.38-.484.262-.425.11-.528.12-.848.263-1.04.486-2.293.615-2.913.52-2.278.255-.888.419-1.56.657-2.867M457.6 141.166l.056 1.536-.067.648-.235.346-.52.116-.569-.102-.837-.247-.705-.04-.595.152-.506.364-.5.543-.643 1.262-.497.564-.442.244-.635.116-.728.099-.674.2-.716.127-.642.011-.576-.014-.571.116-.69.262-.96.477-1.37.906-.9.48-.673.317-.635.41-.837.685-1.109.735-1.558.9-.744.523-.427.419-.395.516-.392.416-.67.425-.896.563-.55.432-.272.55-.044.495.09.482.182.424.016.362-.08.282-.278.206-.357.08-.428-.099-.777-.609-.333-.18-.343-.046-.33.091-.267.202-.61.742-.494.761-.552.484-.995.477-.943.553-.607.593-.408.782-.136.75.015 1.372-.148 1.182-.11.79.098.622.258.626.243.615.094.644-.023.728-.298 1.387-.216.767-.32.423-.431.236-.623.058-.787-.218-.87-.284-.884-.022-.963.208-.756.4-.56.513-.427.55-.235.622.005.968.273 1.787.047.71-.191.636-.36.45-.47.343-.991.346-.905.167-1.934.044-.838.018-.677.153-.466.338-.717.855-.505.564-.513.342-.571.317-.698.375-.7.451-.846.331-.67.088-.544-.135-.423-.28-.376-.514-.407-.473-1.183-.964-.747-.6-.732-.411-.733-.255-.7-.066-.666.092-.427.283-.368.47-.317.76-.267 1.867-.125.68-.25.525-.548.596-1.512 1.387-1.163 1.335-.658.899-.403.804-.263.782-.16.637-.262.397-.497.291" clip-path="url(#p9732101f4e)" style="fill:none;stroke:#000"/><path d="m381.369 206.281-.52-.55-.533-.374-.572-.386-.426-.41-.226-.423-.035-.333.155-.291.415-.199.509-.04 1.59-.043.759-.08.462-.188.39-.295.325-.394.276-.55.182-.73.045-.889.047-.586.163-.382.322-.362 1.038-.755.54-.418.435-.568.407-.855.27-.804.189-.801.214-.633.27-.35.404-.309.63-.244 1.336-.538 1.106-.488.781-.27.524-.11.984.031" clip-path="url(#p9732101f4e)" style="fill:none;stroke:#000"/><path d="m438.274 192.308-2.561-1.27-.866-.357-.802-.145-.83.05-.787.245-1.08.375-1.297.309-.842.273-1.598.728-.833.44-1.175.371-1.241.175-1.61-.011-1.8-.19-1.48-.068-1.387.032-1.136.12-1.045.371-.975.372-.904.32-1.007.149-.97.19-.752.36-.548.516-.572.8-.627.86-.689.487-.885.291-1.378.146-1.253.029-1.629-.138-1.092-.142-.74-.233-.83-.36-1.692-.816-1.143-.531-.611-.47-.395-.589-.345-.833-.505-.575-.991-.648-.877-.636-.67-.64M195.334 185.783l-.12-.718.038-.428.174-.628.317-.641.27-.316.314-.217.513-.36.35-.318.466-.613.607-.92.392-.484.448-.46.856-.603.61-.502.466-.615.45-.888.42-.596.826-.838.505-.65.348-.67.192-.827.024-.713-.094-.502-.247-.44-1.457-1.587-.41-.735-.302-.84-.118-.838.063-.807.133-1.008-.063-.644-.133-.717M419.036 278.057h1.293l.94-.073.838-.196.814-.303.888-.53 2.201-1.427 2.095-1.23 1.057-.331 1.199-.175 1.577.087" clip-path="url(#p9732101f4e)" style="fill:none;stroke:#000"/><path d="m453.376 286.034-18.102-4.273-16.238-3.704M567.3 283.741l-2.63-1.276-2.174-.372-3.774-1.01-1.706-1.262M580.682 296.335l-.915-1.966.687-2.231-.515-1.86-1.03-2.233-1.83-2.444-2.23-1.594-2.116-.373-3.374.532-2.059-.425" clip-path="url(#p9732101f4e)" style="fill:none;stroke:#000"/><path d="m557.807 301.703-1.601-4.04-.115-1.38-.229-3.455.172-2.073 1.258-4.463 1.372-.903 3.032-.426 2.687.372 2.574-.797.343-.797M612.25 248.082l-.457 2.498.515 1.382 2.23 5.208.793 10.403M438.358 279.24l1.1.34 6.306 2.522 5.5 2.248 2.112 1.684" clip-path="url(#p9732101f4e)" style="fill:none;stroke:#000"/></g><path id="PatchCollection_1" d="m71.501 101.65 1.352.61 2.215-1.7 2.703 1.223 1.358 1.03 1.354.821 1.564-.228 2.663-1.706 1.337-.435 1.568-.018 1.351.61.02 1.466-.654 1.264-.88 1.057-1.106 1.06-1.107.85-.882 1.056-.877 1.267-1.108.85-1.338.435-1.133-1.033-.689-1.247-1.348-.402-1.134-1.033-.91-1.036-1.13-.824-3.358.04-1.35-.402-1.13-.823-.689-1.248-.02-1.464.204-1.468.146-.28.523.063 1.575.61z" clip-path="url(#p9732101f4e)" style="fill:#006400;fill-opacity:.8"/><path id="PatchCollection_2" d="m340.216 361.335.245-2.643-3.22.052.506 2.274z" clip-path="url(#p9732101f4e)" style="fill:green;fill-opacity:.8"/><path id="PatchCollection_3" d="m342.586 357.395.167.258-.185.258-4.07.206z" clip-path="url(#p9732101f4e)" style="fill:#32cd32;fill-opacity:.8"/><path id="PatchCollection_4" d="m314.647 342.578 3.747-1.104 2.072 5.916-4.021.737z" clip-path="url(#p9732101f4e)" style="fill:#90ee90;fill-opacity:.8"/><path id="PatchCollection_5" d="m331.25 146.174.505-.426-.254-.26-.504.428z" clip-path="url(#p9732101f4e)" style="fill:#a9a9a9;fill-opacity:.8"/></g></g><defs><clipPath id="p9732101f4e"><path d="M90 95.345h558v536.509H90z"/></clipPath></defs></svg>