<svg xmlns="http://www.w3.org/2000/svg" width="960" height="960" viewBox="0 0 720 720"><defs><style>*{stroke-linejoin:round;stroke-linecap:butt}</style></defs><g id="figure_1"><path id="patch_1" d="M0 720h720V0H0z" style="fill:#fff"/><g id="axes_1"><path id="patch_2" d="M90 628.176h558V99.024H90z" style="fill:#fff"/><g id="LineCollection_1"><path d="m224.692 572.495-.257.627M215.305 569.487l5.518 1.711 3.869 1.297M239.69 577.053l-3.298-.937-11.7-3.62M331.955 371.494l-3.427-5.186M333.41 374.782l-.193-.493-1.262-2.795M330.306 372.654l.345-.49.107-.122.185-.114 1.012-.434M332.622 402.938l.243.843M330.542 406.62l.53-.67.222-.368.302-.543 1.026-2.101M331.217 396.664l.072 1.834.263 1.878.358.998.712 1.564M327.167 346.638l3.921-6.07M327.167 346.638l-1.697 1.884-.157.179-.136.172-.175.277-1.534 3.505-.053.384.023.416.189.423.79 1.677" clip-path="url(#pb222846421)" style="fill:none;stroke:#000"/><path d="m325.189 355.55.735-3.723 1.243-5.19M325.72 361.753l-.048-.267M327.318 364.984l-.84-.886-.42-.718-.338-1.627" clip-path="url(#pb222846421)" style="fill:none;stroke:#000"/><path d="m320.308 362.402 1.426-.171.874-.105 3.112-.373M325.037 357.08l.086.797M325.037 357.08l.056-.717.096-.813M325.037 357.08l-.62-1.525M328.528 366.308l-1.21-1.324M332.231 364.55l-.573.36-.21.116-.275.105-.351.12-.527.176-.367.143-.26.123-1.14.615M331.217 396.664l2.307.86M334.442 380.042l.536 3.89.08.97-.038.546-.127.625-2.235 5.222-.665 1.769-.272.74-.272.937-.232 1.923M334.796 408.088l-.303.047-.03.002-.026-.004-.018-.024-.013-.033-.238-1.16-.047-.196-.03-.117-.65-1.938-.12-.28-.171-.258-.285-.346M331.977 414.377l-.103-.8.062-.642.125-.53.117-.404.218-.86.005-.416-.022-.365-.116-.542-.22-1.318.022-.692.049-.51.321-1.251.246-1.25.184-1.016M330.977 412.511l.399 1.598.023.053.044.064.053.04.068.031.413.08M333.267 419.644l.128-1.564-.044-.75-.13-.489-.162-.375-.65-1.136-.432-.953" clip-path="url(#pb222846421)" style="fill:none;stroke:#000"/><path d="m347.534 425.318-.772-.064-6.671.157-.974-.127-1.24-.342-1.073-.516-.844-.519-1.351-1.247-.822-.985-.458-.946-.062-1.085" clip-path="url(#pb222846421)" style="fill:none;stroke:#000"/><path d="m342.578 424.197-1.12.28-.268.043-.245.026-.627.05-.353-.014-.221-.046-1.37-.415-.15-.057-.131-.066-1.308-.762-.287-.201-.261-.222-1.946-1.78-.14-.158-.064-.118-.166-.497-.086-.195-.145-.136-.423-.285M455.203 567.412l.582 1.03.717 1.042.892.831.867.469.954.257.904.047 1.087-.125 1.091-.459 1.076-.423.317-.078M463.69 570.003l.738.066.44.34.175.305M466.463 570.058l-1.495-.293-.59.035-.688.203" clip-path="url(#pb222846421)" style="fill:none;stroke:#000"/><path d="m466.463 570.058-.465-.035-.415.117-.364.292-.176.282M466.463 570.058l3.87.935" clip-path="url(#pb222846421)" style="fill:none;stroke:#000"/><path d="m467.348 571.346-.157-.597-.239-.422-.49-.27M465.043 570.714l.088.891M465.043 570.714l-.188.398-.352.257-1.922.525M470.334 570.993l-2.986.353M491.34 568.887l-1.401-.105-2.01.164-6.546.737-11.05 1.31M470.334 570.993l-3.206 1.652M467.348 571.346l-2.217.26M467.128 572.645l.2-.316.076-.457-.056-.526M465.131 571.605l-2.55.29M465.131 571.605l.138.666.264.374.327.21M462.58 571.894l3.28.962M462.58 571.894l-3.863.44M465.86 572.856l.452.117.465-.07.351-.258M431.893 575.382l5.749-.654M409.862 576.658l.431-.027.907-.153 8.155-2.032 1.795-.307 1.38.1 1.305.448.926.397.956.34.72.175.647.128 1.269.058 3.54-.403M434.957 575.352l-2.178.272-.886-.242M530.58 582.337l-.947 3.183M524.962 583.414l.468-.093 1.18-.258 3.97-.726M573.394 586.317l-.258.21-1.044.715-1.382.714-1.255.574-1.256.399-1.81.41-1.77.257-1.842.047-1.022-.083-1.457-.233-1.922-.492-4.434-1.358-8.893-2.74-7.825-2.306-1.043-.2-1.758-.222-1.771.024-2.072.304M609.335 583.848l-1.207-.309M611.257 583.976h-.817l-1.105-.128M614.672 582.781l-.664.376-.905.468-1.043.257-.803.094M200.77 567.28l.296-.033 2.6-.155 1.86-.036 1.216.092M215.305 569.487l-1.723-.48-5.385-1.556-1.455-.303M203.14 565.651l3.205.93.397.567M126.665 576.031l-.408.025M134.82 574.94l-6.205.887-1.95.204" clip-path="url(#pb222846421)" style="fill:none;stroke:#000"/><path d="m123.324 550.423.446.282.197.077.31.036.211-.113.136-.183.06-.416.038-.641.046-.303.151-.218.461-.5.476-.543.272-.43.204-.127.22-.035.286.098.424.205.333.254.43.507.461.422.703.465.393.31.212.24.159.366v.472l-.166.36-.212.239-.536.28-.976.538-.507.359-.317.331-.219.387-.31.768-.31.634-.317.486-.348.395-.468.324-.696.48-.257.316-.189.331-.098.317v.352l-.06 1.43-.057.508-.125.581-.211.842-.057.3-.027.37.008.513-.083.642-.159.74-.34 1.281-.121.761-.068.846-.037 1.099.082.902.235 1.176.159.662.189.444.181.324 3.129 5.065M249.025 578.821l-1.993-.237-2.992-.446-1.201-.26-3.15-.825" clip-path="url(#pb222846421)" style="fill:none;stroke:#000"/><path d="m241.451 578.586-1.45-.621-.125-.095-.11-.159-.052-.151-.024-.507M157.1 580.505l.7-.296.737-.458.491-.43 1.028-1.162M188.46 573.749l-1.822 1.247-.876.478-1.006.36-.99.172-.915-.003-1.421-.092-5.699-.605-7.376-.909-1.663-.092-1.368.022-.922.155-.816.24-.53.253-.476.316-.468.416-.574.585-1.482 1.867M154.172 569.67l.22.401.18.296.333.36 1.229 1.134.204.275.117.236.06.27.12.674.088.31.117.264.639 1.338.196.373.197.282.446.483.506.44.427.423.404.437.401.493" clip-path="url(#pb222846421)" style="fill:none;stroke:#000"/><path d="m149.653 578.617 1.78 1.022 1.455.741 1.077.322.83.099.93-.014.688-.11.688-.172M156.398 586.282l-.068-.663-.015-.514.053-.627.733-3.973M508.944 130.967l-3.507.677-2.54 2.706h-1.814l-2.66-1.804-3.628-.226-2.298-1.466-.605-2.481-1.45-1.466 3.143-7.33-.846-1.354-5.804 2.594-.726-2.933 1.33-6.09-1.088-2.142-4.233-.452-2.297 2.256-6.537 1.511-3.38 4.467" clip-path="url(#pb222846421)" style="fill:none;stroke:#000"/><path d="m339.12 270.067 4.01-.733.321-.197.53-.67 1.042-4.109.431-.636.483-.287 2.615-.592.923-.564 1.7-2.276 3.084-1.804 1.534-1.304.998-1.078.801-.416 1.08-.296 1.694-.112 2.841-.064 2.79-.43 1.7-.48 1.436-.584 1.897-1.177.809-.818.264-.479.16-.613.052-.924.007-3.706.303-2.742.28-1.156.498-1.1.756-1.056 2.623-2.538 2.97-2.473 2.388-1.445 2.207-1.699 3.492-2.057.439-.522 1.254-1.868.144-.507-.16-1.015-.823-2.248-.015-1.22.37-.577 2.427-1.805.982-.45 1.103-.297 1.097.064.317.26.144.973-.37 1.078-1.339 3.207.016.768.158.627.409.6.596.458.567.162.749-.05.59-.218.49-.409.545-.726 1.98-3.63.196-.866.514-2.982.038-.937-.582-1.198-.642-.507-1.006-.43-6.054-2.234-.445-.452-.106-.514.12-.521.424-.438.612-.19 6.59-.211.953-.226.907-.366 3.862-2.044 2.585-1.128.658-.486.468-.585.378-.74.068-.698.43-5.498.296-.93.823-2.185.582-.648 5.223-3.63 5.419-4.82 1.83-2.714 3.687-2.517 3.242-1.853 1.633-1.135 1.52-1.332 1.458-1.536 1.21-1.558 1.586-2.256 1.028-1.163 4.792-4.116 1.462-3.032-2.448-5.076 3.544-2.18 6.064-9.574 1.716-3.168 4.238-9.845 5.886-5.074 5.737-11.08M334.84 275.997l.584-1.85.117-.294.144-.294.639-.976.748-.93.42-.455.502-.42 1.126-.711" clip-path="url(#pb222846421)" style="fill:none;stroke:#000"/><path d="m330.744 211.439.276.324.075.201.044.361.068 3.25.06.662.084.627.483 1.656.084.335.03.2.015.255-.068.352-.167.458-.28.793.023.224.125.252.27.335.248.144.522.113.891.137 2.256.32.435.068.374.14.37.198.276.257.454.93.555 1.467.768 1.318 1.126 1.064.23.271.153.294.11.284.049.2.002.501-.424 4.172-.831 2.609-.228.671-.173.78-.313 2.054.001.174.022.2.105.36.344.644.176.233.218.215 1.443.993 1.714 1.31.294.259.147.186.127.226.055.169.043.208.337 1.988.121.42.193.397.302.426 2.354 2.964.121.37.072.408.034.325-.012.351-.113.417-1.11 2.217-.598 1.694-.15.386-.182.365-.809 1.128-.264.74-.091.697.438 3.545.034.465-.094.536-.25.867-.563 1.525-.461.593-.181.176-.163.12-.272.162-.63.317-.405.222-.401.236-1.542 1.117M331.883 284.933l.303.254M334.84 275.997l-.27.793-.08.18-.116.144-1.685 1.318-.382.331-.446.458-.73.867-.207.28-.11.252-.151.575-.002.476.02.324.231.95.971 1.988" clip-path="url(#pb222846421)" style="fill:none;stroke:#000"/><path d="m324.216 285.152.841-.326.999-.336 1.576-.427.763-.099.945.028.752.135.722.218 1.07.588M337.148 294.264l-.552-2.33M338.807 298.323l-.506-1.54-.028-.103-.058-.167-.055-.132-1.012-2.117" clip-path="url(#pb222846421)" style="fill:none;stroke:#000"/><path d="m332.106 294.764 2.362.115.185.003.252-.035.297-.058 1.946-.525" clip-path="url(#pb222846421)" style="fill:none;stroke:#000"/><path d="m340.247 294.324-2.302-.05-.797-.01M338.807 298.323l.472 2.21M338.807 298.323l-2.136.289M336.694 312.315l-.466 2.836M336.694 312.315l.552-2.043M339.67 315.075l-.006-1.044-.015-.2-.087-.232-.17-.177-.238-.166-1.186-.553-.146-.069-.169-.06-.273-.078-.686-.181M333.773 330.273l1.364-3.667M333.773 330.273l-.658.627-.131.137-.114.175-.764 2.765" clip-path="url(#pb222846421)" style="fill:none;stroke:#000"/><path d="m332.85 334.133.617-2.784.306-1.076M331.088 340.568l2.405 1.644M331.57 339.22l-.183.665-.299.683M402.917 273.217l-.877.205-.68.288-1.587.93-1.814 1.326-1.171.655-.84.543-.528.38-.59.303-.846.317-.492.416-.415.564-.612.93-.809.973-1.013 1.487-.362.26-.409.106-.521-.042-.673-.197-1.058-.381-.672-.564-.65-.874-.673-.627-.688-.423-.756-.444-.74-.535-.673-.762-.68-.796-.59-.458-.824-.324-1.035-.606-.605-.155-.688-.07-.544.07-.552.246-.347.325-.439.972-.324.374-.379.204-.491.043-.65-.149-1.466-.591-1.375-.579-1.006-.183-1.134.036-1.405.028-1.172-.036-1.148.05-.688.148-.68.254-.84.267-.77.078-.832-.057-1.398.008-.575.14-.43.276-.416.373-.62.599-1.307.817-1.565.684-1.073.346-.764.098-.596-.155-.817-.444-1.179-.606-.854-.226-1.103.057-1.852.126-1.67-.006-1.066-.127-.62-.022-.597-.053-.42-.122-3.548-1.716-.468-.23-.503-.19-1.134-.306-.593-.145-.412-.077-1.684-.244M310.253 271.163l.929.003.737.096.635.253.604.574.439.582.142.319.138.42.215 1.15.06.292.09.3.726 2.068.292 1.064-.002.27-.02.259-.118.278-.155.261-.535.722-.083.178-.076.233" clip-path="url(#pb222846421)" style="fill:none;stroke:#000"/><path d="m324.216 285.152-2.264 1.085-.275.158-.36.141-.974.269-.526.042-.287-.04-.42-.085-1.126-.337-.275-.127-.221-.178-.922-.927-.129-.125-.1-.103-1.523-1.909-.227-.327-.098-.222-.31-.99-.027-.2.016-.223.103-.57" clip-path="url(#pb222846421)" style="fill:none;stroke:#000"/><path d="m306.96 287.135.523-.116.355-.134.434-.204.374-.275.609-.57.926-.99.446-.544 1.179-1.846.096-.153.081-.15.142-.32.146-.27.194-.215.746-.647.195-.169.132-.075.125-.048.168-.007.44.083M338.195 283.51l-1.486-1.307-.325-.217-.25-.138-.176-.064-.245-.064-.678-.148M332.186 285.187l.9-.803.169-.212.086-.116.036-.093.005-.09-.004-.089-.146-.555-.147-.65-.03-.225.008-.131.018-.117.18-.716.04-.076.043-.039.043-.024.056-.01h.048l.231.058 1.313.273" clip-path="url(#pb222846421)" style="fill:none;stroke:#000"/><path d="m339.275 291.346-.876-2.646-.16-.377-.132-.282-.54-1.015-.208-.32-.192-.26-1.847-2.369-.12-.16-.084-.155-.255-.562-.038-.201-.015-.183.008-.22.034-.232.185-.792M342.177 285.29l-.134-.304-.092-.194-.033-.105-.022-.115-.213-1.58-.08-.233-.14-.164-.138-.061-.156-.032-.811.034-.867.123-.09.028-.098.04-1.108.782M342.8 294.283l-.191-1.827-.367-2.184-.163-.677-.164-.486-.717-1.755-.222-.469-.31-.588-.635-1.025-.137-.188-.17-.183-1.53-1.392M332.186 285.187l.225.254M320.67 288.44l.876-.396.085-.05.07-.046.367-.281.086-.061.094-.05 1.163-.526.115-.053.153-.064.327-.142.092-.062.046-.044.03-.04.018-.068.007-.071.017-1.334M345.19 294.317l.033-1.163-.113-1-.242-1.132-.2-.807-.884-2.09-1.607-2.836M347.124 288.327l-3.159-2.347-.766-.469-.097-.051-.134-.048-.15-.035-.64-.088M332.41 285.44l-4.06 4.43M336.596 291.935l-.68-2.03-.295-.634-.378-.634-.544-.656-2.288-2.54M354.802 305.571l-.467-1.078-.31-1.177-.288-1.829-.022-.54.106-1.3.03-.503-.068-.462-.614-1.939-.157-.978-.076-.187-.166-.144-.22-.064-.589.014-.347-.035-.318-.18-.227-.225-.264-.402-.144-.74-.075-1.149-.31-1.677-.136-.486-.22-.331-.43-.324-2.366-1.508" clip-path="url(#pb222846421)" style="fill:none;stroke:#000"/><path d="m348.009 296.107.06-1.776.083-1.015-.008-.944-.181-.91-.748-2.515-.09-.62M328.273 293.783l1.948-2.13.026-.056.014-.069-.02-.061-.058-.07-1.833-1.527M328.273 293.783l-4.454 4.813-.035.02-.037.008-.035-.004-.035-.016-1.736-1.408-.076-.084-.027-.085v-.051l.02-.065.045-.075 6.447-6.966M339.275 291.346l-2.68.589M339.275 291.346l.972 2.978M332.106 294.764l.053-1.522.028-.126.063-.1.094-.061.119-.04 4.133-.98" clip-path="url(#pb222846421)" style="fill:none;stroke:#000"/><path d="m332.106 294.764-2.613-.139-.144-.01-.109-.034-.107-.05-.093-.079-.767-.669M340.247 294.324l2.553-.041M342.8 294.283l2.39.034M345.628 300.134l-.03-.68-.167-2.297-.348-1.597.106-1.243M335.842 300.053l.431-.116.17-.114.114-.106.088-.228.063-.293-.037-.584M328.713 300.134l.028-2.251.016-.088.049-.064.062-.031.087-.008 7.042-.05.155.034.106.052.135.164.082.191.196.529M350.57 299.619l.355 4.024M345.628 300.134l-2.498.194M345.974 308.498l-.505-1.81-.049-.754.004-.786.166-3.2.038-1.814" clip-path="url(#pb222846421)" style="fill:none;stroke:#000"/><path d="m349.318 307.158-.886-2.806-.204-1.029-.16-1.057.039-1.008.053-.838.067-.773-2.309.067-.29.42M335.842 300.053l-7.13.081M328.623 302.25l6.94-.159.073-.006.098-.044.04-.07.024-.112.044-1.806M328.713 300.134l-.09 2.115M343.13 300.328l-3.851.205M343.126 307.904l-.268-1.55-.025-.173-.003-.121.3-5.732M338.13 307.435l1.05-2.92.152-.667.03-.602-.083-2.713M352.466 303.333l-.384-2.166-.295-2.578M328.623 302.25l-1.317.032M352.466 303.333l-1.541.31M352.466 303.333l1.032 2.715M351.836 306.573l-.48-1.366-.43-1.564M335.712 306.999l.77-2.461.076-.161.051-.052.085-.038.12-.009.832.172M357.297 304.627l-2.495.944M330.126 305.987l5.586 1.012M353.498 306.048l1.304-.477M353.498 306.048l-.185.075M351.836 306.573l1.817 3.771M351.836 306.573l1.477-.45M351.836 306.573l-2.374.857M335.712 306.999l2.418.436M349.318 307.158l.144.272M349.318 307.158l-3.344 1.34M347.753 312.072l3.006-1.337.076-.097.038-.129.011-.139-.028-.113-1.394-2.827M354.046 307.87l-.733-1.747M338.13 307.435l-.28.934M343.126 307.904l.823 2.313M337.85 308.369l2.604-.17 2.672-.295M337.85 308.369l-.604 1.902M345.974 308.498l1.78 3.574M343.949 310.217l-2.286.678-.937.237-.31-.006-.311-.05-2.86-.805M343.949 310.217l1.37 2.884M347.753 312.072l-2.433 1.03M339.67 315.075l1.505-.029.18-.025.169-.051.159-.09 1.307-.705 2.33-1.074M339.67 315.075l-3.442.076M336.228 315.15l-.176 3.338M344.524 318.791l-4.081-.21M336.052 318.488l4.39.092M335.51 325.12l.428-1.579.106-1.29.008-3.763M342.578 323.566l-.29 1.31M332.25 324.664l3.26.456M342.287 324.876l1.73.43M335.137 326.606l3.006.918.39.093.532.089 1.006.097.243-.003.236-.031.207-.08.453-.318.174-.183.123-.197.107-.222.673-1.893M335.51 325.12l-.373 1.486M336.708 334.318l1.093-.213.31-.06.439-.067 2.704-.383.275-.061.365-.106 1.329-.547M332.106 333.977l-.658 2.864M332.106 333.977l.745.156M336.708 334.318l-.992.281-.178.018h-.157l-.255-.033-2.275-.451M332.85 334.133l-.705 2.944M359.156 334.182l-.574.028-1.504-.084-1.096-.141-.937-.155-.975-.043-1.852.078-1.481.162-.839-.028-.967-.205-1.338-.14-.628.031-.552.098-1.99.6-.624.12-.67.045-.956.013-.23-.015-.2-.036-.512-.14-.276-.052-.28-.014-3.967.014M331.448 336.84l.121 2.38M331.448 336.84l.24.194.093.036.088.01.276-.003M332.145 337.077l-.576 2.143M347.995 339.363l1.623-.502.817-.162 1.02-.05.914.029M333.493 342.212l.188 9.629M333.493 342.212l.556-.102M335.713 352.096l.006-7.538-.056-.433-.065-.324-.257-.515-.264-.377-.31-.292-.718-.507M347.995 339.363l-.842.254-3.944 1.333-.39.04-.449-.057-.438-.162-1.346-.93-.669-.55-.64-.392-.359-.116-.32-.06-.354-.022-.288.098-1.383.809-.338.222-.311.243-1.15 1.12-.175.186-.195.21-.355.52M266.042 347.98l-.327-1.454-.055-.13-.066-.094-.111-.031-.15.031-2.97 1.288-.072.028-.086.007-.063-.054-.046-.088-.808-1.949M223.144 354.334l.316.181.486.115 2.31-.04 8.828-1.685 1.482-.26 2.04-.339 9.031-1.325 6.603-.665.57-.032.745-.01 2.74.2 1.557-.077.648-.088.645-.145 1.042-.388 3.855-1.796M270.407 346.736l-.239.017-.986.06-1.05.264-.376.11-.354.137-1.36.656M281.782 348.1l1.322 1.469M283.104 349.569l-.174-.857-.106-.235-.113-.233-.255-.534-.036-.054-.053-.046-.064-.002-.057.028-.464.464M279.57 346.73l.22.045.77.331.816.612.406.382M286.298 353.237l-.923-.68-.415-.362-.31-.35-1.546-2.276M295.677 354.762l.85-.233.126-.04.103-.054.063-.077.026-.073.744-2.719M333.681 351.84l2.032.256M334.375 355.274l-.545-1.988-.081-.428-.059-.418-.009-.6M342.268 352.088l-.238.91M335.713 352.096l6.317.901M340.87 356.622l.577-1.625.583-2M304.093 357.095l.268-.73.068-.273.034-.294.155-2.093M286.978 353.69l-.68-.453M286.978 353.69l-.8.962M295.564 356.95l-1.006-.077-2.86-.451-.612-.099-.575-.215-.555-.3-2.978-2.117M285.28 354.075l.898.577M295.677 354.762l-1.156-.12-1.421-.169M286.178 354.652l-.252.317M295.677 354.762l-.113 2.188M333.505 362.235l.65-.75.51-.48.389-.433.195-.36.119-.443-.057-.821-.936-3.674M337.102 355.675l-.758-.187-.336-.048-.215-.028-1.418-.138M325.189 355.55l-.771.005M337.102 355.675l1.871.472M337.102 355.675l-.628 2.803M338.973 356.147l1.897.475M338.973 356.147l-.726 2.913M336.793 363.732l.596-.979.191-.254.252-.266.63-.474.33-.264.287-.254.362-.552.204-.471.155-.42 1.07-3.176M298.368 356.943l-2.804.007M304.093 357.095l-.374-.18-.182-.05-.215-.04h-.305l-4.65.118" clip-path="url(#pb222846421)" style="fill:none;stroke:#000"/><path d="m300.816 359.675-2.128-.837-.377-1 .057-.895M314.088 360.593l-2.524-.155-.824-.225-.952-.331-5.695-2.787M325.672 361.486l1.771-.303.18-.061.156-.108.08-.165.071-.193.394-1.884.023-.119-.005-.082-.037-.065-.078-.053-.118-.036-2.986-.54M325.672 361.486l-.501-2.78-.048-.829M333.505 362.235l1.163-.564.485-.236.476-.232.593-.353.833-.568.331-.293.292-.294.57-.635" clip-path="url(#pb222846421)" style="fill:none;stroke:#000"/><path d="m336.793 363.732-1.263-.635-.114-.07-.03-.083.038-.1.08-.126.805-.86 1.19-1.402.108-.146.09-.16.55-1.09M300.816 359.675l-1.79-.008M308.53 364.42 306 361.808l-.183-.192-.199-.157-.533-.33-.148-.077-.18-.06-.809-.211-.177-.027-.193-.005-.834.01-.205-.01-.151-.028-.718-.252-.084-.046-.07-.056-.7-.693" clip-path="url(#pb222846421)" style="fill:none;stroke:#000"/><path d="m313.476 364.885-1.096-.863-.99-.758-.266-.185-.216-.13-2.844-1.376-.18-.106-.131-.111-.547-.45-.158-.119-.2-.078-.212-.042-1.417-.229-.106-.026-.126-.032-.815-.256-.198-.055-.157-.029-.491-.035-.09-.01-.088-.018-.71-.22-.142-.035-.163-.017-.162-.01-1.155-.02M313.476 364.885l1.437.167.12-.013.094-.05.06-.064.004-.057-.012-.074-.084-.184-.113-.176-.117-.157-.822-.844-.148-.252-.024-.206.002-.17.215-2.212M318.682 362.597l-.384-1.44-.166-.232-.238-.142-.144-.049-.234-.035-3.428-.106M301.459 363.726l-.433-.816-.089-.127-.111-.111-.71-.375-.165-.073-.176-.066-1.929-.564M333.505 362.235l-.612 1.607M320.308 362.402l-1.626.195M320.308 362.402l1.115 4.4M318.682 362.597l.78 4.564M327.318 364.984l1.607-.55.141-.064.137-.098.067-.105.034-.128.512-1.818M301.459 363.726l-.673-.164-.567-.146M332.893 363.842l-.662.708M332.81 365.632l.096-1.29-.013-.5M301.459 363.726l1.315.507M340.155 368.15l-1.51-1.715-.96-1.149-.103-.135-.047-.122-.02-.162.101-.521-.003-.096-.027-.09-.065-.06-.097-.058-.631-.31M303.851 364.089l4.678.33M302.774 364.233l.533-.113.544-.031M304.322 365.455l-.38-.722-.072-.176-.023-.197.004-.271M300.348 366.068l.563-.665.366-.31.4-.261 1.097-.6M308.53 364.42l.71-.01M309.24 364.41l.049.746M313.476 364.885l-2.926-.375-1.31-.1M332.81 365.632l-.232-.624-.038-.077-.036-.059-.053-.054-.22-.268M309.289 365.156l-.354.743M310.759 366.012l-1.272-.748-.198-.108M304.08 366.948l.418-.642.028-.046.009-.061-.015-.081-.198-.663" clip-path="url(#pb222846421)" style="fill:none;stroke:#000"/><path d="m308.935 365.9-.947.062-.51-.003-.903-.046-.261-.023-.292-.06-1.7-.375M334.767 368.711l-.658-.426-.21-.187-.137-.159-.658-.94-.09-.177-.04-.14-.165-1.05" clip-path="url(#pb222846421)" style="fill:none;stroke:#000"/><path d="m309.01 366.569-.119-.227-.023-.091.002-.103.065-.249M300.348 366.068l-1.421 1.702M301.8 368.003l-.332-.234-.145-.143-.16-.236-.09-.188-.211-.538-.053-.106-.053-.069-.408-.42M353.915 377.607l.446.124.386.017.359-.098.28-.138.287-.335 1.934-5.774.197-.74-.099-.81-.468-.684-.567-.67-.99-.676-3.176-1.35M340.155 368.15l.471-.542.265-.195.402-.157.461-.099 10.75-.685M353.14 358.4l4.906 1.228.748.197.56.254.483.338.416.543 1.212 2.89.046.256-.034.24-.106.197-.234.13-.31.064-5.843.74-.76.126-.729.205-.415.187-.576.477M309.01 366.569l1.804.703M309.01 366.569l-.526 1.356M321.423 366.801l-1.961.36M320.218 377.914l1.708-6.462.09-.43.038-.472-.06-.535-.571-3.214M304.08 366.948l.59.79M302.196 368.214l.62-1.132.377-.24.887.106M317.164 376.765l.93-1.677 1.406-3.21.072-.183.071-.224.035-.285-.008-.34-.208-3.685M304.67 367.738l.23.181M304.67 367.738l-.619 1.463M304.9 367.92l1.047.015 1.088-.007.9-.233.55.23" clip-path="url(#pb222846421)" style="fill:none;stroke:#000"/><path d="m307.698 370.43.062-.572.029-.128.049-.138.646-1.667M298.927 367.77l-1.27 1.16M300.82 369.11l-1.636-1.16-.257-.18M304.9 367.92l1.017.804M301.8 368.003l.396.211M301.8 368.003l-.98 1.106M341.092 370.867l-.702-1.297-.242-.63-.038-.469.045-.321M304.051 369.2l-.76-.362-1.095-.624M342.77 374.186l-3.16.672-.261.043-.206.01-.212-.08-.128-.121-2.908-5.129-.077-.135-.087-.118-.132-.135-.137-.102-.695-.38M334.389 365.068l-.325 1.124-.034.167.004.16.102.818.068.194.094.232.47.948M305.917 368.724l.76.395M305.917 368.724l-.505 1.009M294.075 372.128l.467-.472 3.115-2.726M300.82 369.11l-.61.579-.057.044-.038.018-.04.003-.037-.008-.034-.012-1.647-.765-.092-.032-.12-.014-.488.007M304.051 369.2l1.36.533M308.69 370.302l1.457-.185.43-.13.386-.166.782-.412.801-.43M305.412 369.733l-.114.866M308.69 370.302l-.992.128M300.862 381.535l.869-1.57.134-1.505.04-.272.043-.208.066-.165.442-.78.227-.326.257-.303.212-.173 2.32-1.775.359-.224.363-.228 2.83-1.493.382-.307.193-.296.087-.292.022-.284-.015-.188-.111-.187-.121-.137-.77-.52M305.298 370.6l1.028-.036 1.372-.134M341.092 370.867l1.679 3.319M351.757 373.75l1.217-1.354.208-.257.129-.27-.008-.346-.087-.29-.264-.338-.454-.274-.922-.212-1.013-.162-1.383-.014-3.983.232-4.105.402M305.298 370.6l-2.592.007-2.766.105-1.63.226-.645.12-.802.204-1.126.352-1.662.514M226.476 439.886l.498-.585.54-.238.73.01 2.36.263.803-.324.605-.539 1.246-1.883.28-.181.51-.014.42.255 1.22.91.812.13.67-.143 2.215-1.05 1.325-.858 1.131-1.142 2.13-4.144.217-1.493-.08-1.485.362-.91.4-.372 2.285-1.469 1.043-.884 2.316-1.501 1.228-1.48.862-2.283.7-2.618.247-3.026.472-1.26.13-.252 1.371-2.31.077-.272.381-2.18.401-1.227.688-.976.665-.588 1.553-.891 4.068-1.353.68.067 1.364.498 1.544-.008 1.073-.391 1.006-.65.865-.897.612-.842.393-.43 3.805-3.407 2.072-1.127 2.263-.81 1.7-.892.93-.782 1.119-1.438.068-.824-.215-2.065.168-.558.878-.907 4.925-4.207.729-1.325.35-.638 1.524-2.625 1.546-3.658.415-.57.904-.909M351.757 373.75l-8.986.436" clip-path="url(#pb222846421)" style="fill:none;stroke:#000"/><path d="m353.915 377.607-.465-.412-.28-.444-.294-1.318-.31-.577-.363-.522-.446-.585M339.929 378.301l-1.79-.523-.233-.073-.257-.067-.32-.071-.91-.17-.375-.156-.145-.093-.171-.167-1.06-1.386-.1-.121-.113-.125-.325-.248-.11-.07-.12-.065-.49-.184" clip-path="url(#pb222846421)" style="fill:none;stroke:#000"/><path d="m334.36 379.472-.315-2.175-.058-.348-.055-.25-.33-1.285-.192-.632M317.164 376.765l-3.658 4.919M320.218 377.914l-1.42-.361-.233-.086-.184-.078-1.217-.624M320.218 377.914l-.766 2.756M334.442 380.042l-.082-.57M351.402 381.62l-4.286-1.04-.383-.084-.213-.034-.19.006-.258.02-1.083.195-.11.01-.107-.012-.276-.061h-.087l-.111.014-3.413.951-.21.055-.332.035-.226.015-.245-.013-.465-.12-2.226-.962-1.053-.373-.303-.081-.331-.072-.312-.024-.74-.003M300.862 381.535l4.822 3.235M307.4 388.554l-7.504-5.15-.076-.08-.037-.066.023-.097.018-.075 1.038-1.55M305.684 384.77l4.15-5.165.074-.058.086-.039.084.003.085.027 3.343 2.146M311.31 384.57l.632-.815 1.564-2.071M311.31 384.57l-2.342 2.434M311.31 384.57l.5.08M305.684 384.77l3.284 2.234M311.81 384.65l-.434 3.65M311.81 384.65l6.2 1.213M318.01 385.863l1.442-5.193M314.08 399.088l1.707-5.531 2.224-7.694M308.968 387.004l-1.013 1.103M307.955 388.107l-.556.447M307.346 393.992l.564-5.117.045-.768M307.4 388.554l-1.429 1.392M334.298 394.346l.324-1.005.09-.229.096-.17.676-1.398M338.157 393.585l-.722 1.72M306.113 393.767l1.233.225M307.346 393.992l-.105 1.126M334.298 394.346l-.774 3.178M334.298 394.346l3.137.958M335.587 401.931l-.123-.764-.017-.165v-.155l.097-.784.072-.238.097-.27 1.722-4.25M335.587 401.931l-.826-.597-.197-.234-.127-.212-.385-.986-.14-.398-.082-.426-.306-1.554M301.435 398.037l-.893 3.336M312.084 398.874l1.997.214M312.084 398.874l-1.715-.062M312.084 398.874l-.491 2.898M310.369 398.812l-.043.427M311.376 388.3l-.72 6.701-.287 3.811M314.08 399.088l-.158.74M310.326 399.24l-.266 2.787M303.653 399.58l.226-.928-.001-.057-.014-.044-.031-.042-.046-.025-.588-.225-.05-.033-.03-.033-.01-.064.004-.066.42-1.092.087-.11.086-.046.116-.008.093.037 6.41 2.395M303.653 399.58l-.312 1.852" clip-path="url(#pb222846421)" style="fill:none;stroke:#000"/><path d="m310.06 402.027-3.205-1.353-1.708-.744-.42-.172-.366-.092-.708-.087M313.922 399.828l2.691.639M314.058 414.683l-.885-4.074-.498-2.593-.098-.715-.023-.793.113-1.505.091-.739.125-.599.457-1.702.582-2.135M318.615 404.856l.68-3.574-.003-.096-.035-.073-.083-.058-.105-.036-2.456-.552" clip-path="url(#pb222846421)" style="fill:none;stroke:#000"/><path d="m318.615 404.856-2.273-.33-.258-.072-.053-.065-.032-.081-.003-.157.618-3.684M298.05 401.321l2.492.052M300.542 401.373l2.799.059M303.341 401.432l-.425 2.524M337.556 406.522l.281-.871.034-.144.04-.19.015-.278-.053-.421-.117-.271-.136-.228-.578-.782-.506-.602-.23-.235-.203-.167-.516-.402M310.06 402.027l-.272 2.508M334.978 407.935l.265-.372.074-.199.031-.206-.018-.243-.303-2.542M302.916 403.956l3.039.353M298.632 405.103l-.015-.497.011-.494.017-.085.04-.07.075-.034.08-.015 4.076.048M305.955 404.309l-.265 2.496M305.955 404.309l3.833.226M309.788 404.535l-.236 2.423M320.126 404.753l-1.51.103M330.977 412.511l-1.569-3.875-.026-.104.01-.13.04-.077.056-.057.773-.814.103-.135.072-.135.054-.186.052-.377" clip-path="url(#pb222846421)" style="fill:none;stroke:#000"/><path d="m327.152 413.198.112-.55.066-.225.083-.236 1.292-3.199.195-.364.192-.307.135-.174 1.315-1.522M300.332 406.592l5.358.213M305.69 406.805l-.22 2.07M305.69 406.805l3.862.153M309.552 406.958l-.755 7.033M337.734 407.51l-.03.63M334.978 407.935l-.182.153M337.703 408.14l-.729.012-.304-.005-.236-.018-1.456-.194" clip-path="url(#pb222846421)" style="fill:none;stroke:#000"/><path d="m337.579 418.43.014-1.402-.035-.294-.104-.264-.696-1.37-.09-.223-.032-.202-.059-.93.023-.41.102-.433.328-.704.151-.331.069-.264.6-2.223.142-.707.017-.178-.011-.128-.012-.068-.03-.054-.059-.037-.194-.069M337.579 418.43l-.586-1.907-.089-.212-.1-.164-.542-.729-.129-.164-.095-.097-1.044-1.144-.088-.127-.063-.125-.042-.182-.142-1.117v-.176l.027-.17.391-1.186.028-.245-.01-.326-.3-2.27M328.342 413.315l.42.073.15.006.148-.03.114-.046 1.803-.807M327.152 413.198l1.19.117M322.05 417.296l.398-.19.827-.402 3.265-1.765.15-.151.107-.138.22-.592.046-.178.029-.164.06-.518" clip-path="url(#pb222846421)" style="fill:none;stroke:#000"/><path d="m325.871 416.56.607-.29.11-.065.071-.063 1.136-1.033.109-.112.053-.076.037-.088.035-.11.313-1.408M308.797 413.991l1.883 5.433M303.802 418.994l.869-.986.574-.73.408-.49.484-.503.673-.61 1.987-1.684M316.114 420.643l-.953-2.079-.219-.535-.136-.451-.748-2.895M322.05 417.296l-1.224-3.287-.057-.135-.092-.122-.165-.085-.215-.025-.287.036-5.952 1.005M316.114 420.643l1.02-.655.404-.282.507-.324.58-.318.526-.265 2.9-1.503M342.578 424.197l-3.133-2.16-1.098-.903-.144-.162-.087-.162-.307-.921-.094-.29-.042-.207-.094-.962M310.68 419.424l.232.826M307.737 422.145l1.492-1.483.15-.136.182-.15 1.119-.952M305.51 432.235l.196-.31.227-.234.657-.432.161-.153.1-.158.07-.146 1.295-3.832 2.696-6.72" clip-path="url(#pb222846421)" style="fill:none;stroke:#000"/><path d="m316.114 420.643-2.068-.37-.322-.05-.348-.03-.36.004-2.104.053M316.114 420.643l.981 1.467M315.275 428.306l2.579-4.691.024-.048.013-.043-.007-.04-.028-.046-.433-.629-.09-.14-.059-.13-.179-.429M323.504 426.719l-4.413-3.04-1.996-1.569M347.534 425.318l-.63-.6-.65-.34-.358-.106-.367-.057-.46-.01-2.49-.008M376.73 444.891l-2.148-1.475-2.14-1.558-1.607-1.007-1.24-.61-1.349-.472-1.887-.777-1.082-.538-1.265-.885-1.257-.984-1.112-.596-.914-.267-.968-.099-1.292.056-1.384.19-.899.205-.96.091-.876-.028-.613-.134-.634-.33-.703-.445-.53-.521-.362-.43-.4-.761-.182-.698-.106-.746.053-1.015.212-1.423.105-.74.008-.683-.151-.55-.257-.54-.367-.454-.767-.62-.725-.348-.813-.272-.584-.11M315.275 428.306l-.814-.508-.037-.027-.024-.031-.01-.038.01-.05.667-1.305M327.493 437.106l.21-.68.054-.134.01-.129-.008-.151-.188-1.196-.075-.338-.083-.307-.416-1.328-.087-.271-.102-.28-1.111-2.461-.123-.238-.14-.199-1.498-1.603-.097-.119-.071-.131-.264-.822M362.67 463.447l-.4-7.348-.408-7.716-.189-2.403-.28-1.148-.77-1.416-.665-.726-1.187-.818-1.262-.5-1.512-.239-4.164.134-2.275.12-1.625.31-2.222.43-.871-.089-.595-.13-.408-.201-.356-.229-2.766-2.396-.688-.648-.627-.507-7.815-5.51-8.08-5.698M313.368 429.297l.862-.446 1.045-.545M327.493 437.106l-.771-.284-.239-.1-.196-.14-.138-.143-.433-.536-.13-.13-.083-.127-.55-.798-.136-.204-.166-.19-.278-.302-.117-.107-.11-.096-.97-.838M392.326 436.082l6.771 9.658M397.12 434.601l-.725.19-1.315.254-2.754 1.037M387.687 438.463l3.26-1.811 1.38-.57M323.033 443.345l2.547-3.244 1.913-2.995M387.687 438.463l5.956 4.998M376.73 444.891l.914-1.25.99-.95 1.073-.727 1.715-.873 4.259-1.985 2.006-.643M305.408 440.686l.155.146.17.15.159.126.599.314.287.077.195.007h.196l.85-.197.208-.078.178-.085 1.203-.632.156-.108.096-.09.087-.105.736-1.181M380.932 447.803l-1.38-.967-2.821-1.945M436.72 575.133l.922-.405M436.72 575.133l-1.763.22M436.09 575.827l.091-.129.16-.245.184-.192.194-.128M437.642 574.728l5.43-.617M434.957 575.352l1.132.475M440.411 579.368l-.69-.509-2.153-1.206-.574-.332-.331-.309-.23-.352-.229-.438-.115-.395M440.411 579.368l.398.292 4.296 3.599.688.758.446.843 1.627 5.008.195 1.036.424 2.296.435 3.15.756 5.04.252 1.672.257.408.408.296.529.254.695.183 1.754.507.47.197.32.246.368.437.504 1.602.217.427.39.374 1.168.694.413.096.32-.064.23-.203M354.53 567.11l.237-.752M348.696 580.309l.634-1.194 1.874-1.352 1.633-2.874.544-1.353.605-2.761.544-3.664M324.76 564.168l.537.528.393.275.378.183.423.127.529.007 1.542-.247.551-.084.522-.036.635.008.567-.014.483-.078.828-.282.337-.12.226-.01.337.056.347.144.223.188.117.27.121 1.117.045.324.087.261.155.313.68.924.257.288.946.835.302.212.328.161.431.127 1.856.346.899.133.74.05.79.035.5-.032.888-.197.79-.127.65-.078 1.965-.07.687-.05.416-.049 3.441-.533 2.43-2.136 1.39.174M346.497 581.333l.672-.278 1.527-.746M363.68 578.55l-1.347-.357-2.767-.875-.77-.188-1.032-.077-.98.077-.978.24-7.11 2.939M167.146 307.953l-1.818-1.49-.68-.416-.526-.208-.451-.123-.4-.048-.706-.018-2.407.14-.694.009-.602-.016-2.985-.141-.563-.103-.465-.137-3.492-1.198-.578-.212-.707-.316-1.708-1.142-1.908-1.623-.566-.377-.39-.241-.333-.184-1.693-.842-.612-.289-.62-.313-1.372-.758-.164-.21-.11-.17-.07-.166-.092-.282-.61-1.878-.167-.483-.192-.43-.828-1.726-.097-.3-.053-.29-.02-.28-.08-1.907-.11-.426-.132-.292-.234-.462-1.413-2.216-.431-.818-.151-.388-.057-.264-.056-.454.09-1.449.065-.546.071-.4.268-1.136.069-.21.086-.199 1.436-3.175.24-.535.161-.448.695-2.17.095-.374.05-.36M122.342 229.85l.155.162.094.128.102.203.892 1.614.125.2.177.216.458.472.235.199.294.206.275.134.295.096 2.136.49.257.115.294.19.265.23 1.84 1.737.151.153.151.194.114.28.041.333-.278 2.231.014.298.053.962-.085 1.085-.051.55-.118.556-.275 1.033-.046.451.02.487.128.473.181.368.956 1.572.267.365.307.418 1.247 1.151.514.512.51.599 1.116 1.388.359.37.46.258 1.06.53.187.086.224.127.17.174.138.164.115.342-.023.483-.226.944-.038.361-.012.33.076.93.01.181-.022.235-.037.195-.095.227-.51 1.132-.09.266-.076.431-.034.423.022 1.186.059.305.104.257 1.088 2.474.182.306.246.293.576.528.183.224.075.171.076.222.034.243.072 1.494-.006.409-.073.433-.458 1.332-.136.606-.015.593.08.673.196 1.437.034.388" clip-path="url(#pb222846421)" style="fill:none;stroke:#000"/><path d="m179.181 236.173-.48.679-.301.352-.431.388-1.12.958-1.103.75-1.247.78-.763.45-.469.353-1.095 1.001-.273.158-.317.113-1.922.396-.342.052-.27.087-.159.083-.104.079-.094.101-.304.331-.139.088-.127.048-.173.027-.198.012-.306-.039-.238-.112-.321-.212-.892-.805-.257-.214-.2-.128-.414-.268-.448-.203-.423-.156-.536-.12-.462-.065-1.791-.212-2.109-.183-1.285-.113-.544-.024-.42.022-.383.087-.44.17-.329.175-.544.325-.658.52-1.141 1.305-.71 1.12-.125.257-.083.252-.064.376-.002 1.496-.006.119-.015.122-.046.125-.068.127-.381.615-.066.183-.069.267-.056.385-.047.534-.024.096-.052.107-.102.103-.166.104-.314.138-1.938-.074h-.194l-.31.076-.263.142-.204.18-.228.317-.525.895-.064.114-.068.098-.6.588-.197.247-.074.241-.013.211.03.166.06.189.976 2.05.077.284.028.344-.682 2.428-.092.16-.095.171-.112.118-.47.192-1.772.55-.178.038-.158.018-.142-.018-.195-.028-.642-.186-.299-.04-.313.064-.31.134-.2.2-.533.713-.233.364-.142.347-.181.846-.038.243.021.278.16 1.61.006.175v.186l-.077.884-.208 1.956-.043.253-.08.282-.66 1.476-.214.61-.144.793-.087 1.149-.083.703-.05.205-.045.142-.287.645M614.672 582.781l.165-.093 1.08-.878 1.055-1.077.942-.983.59-.632.666-.598.954-.726 1.507-.971.713-.334M637.27 569.644l-.767.74-1.458.897-2.31 1.093-2.8 1.077-6.03 2.306-1.561.732M626.397 588.693l-.798-.41-.797-2.156-.678-2.751 1.037-2.231-2.817-4.656M573.394 586.317l3.786-3.067 3.935-3.35 1.428-1.099 1.319-.714.967-.351.93-.258 1.582-.082 1.021.151M608.128 583.54l-.348-.09-2.452-.727-9.207-2.903-5.602-1.756-1.834-.469-.323-.048" clip-path="url(#pb222846421)" style="fill:none;stroke:#000"/><path d="m582.212 490.93-.917 2.151 3.015 5.623.311 1.709-.156 1.68.342 4.666-.56 2.26-1.18 5.796-.591 3.159-.373 1.738.124 3.796-.87 3.332-.466.783-1.213 1.275-1.46 3.013-.56 2.956-2.985 3.303-1.119.927-1.274 1.681-.808 2.724-.156 1.536 1.182 2.694.683 2.608v.724l.715.464 1.866.406 2.642.637 2.02 1.333 1.026 1.217-.435 1.333-1.026 1.217-.466 1.043v1.45l2.424 4.374 3.855 3.361.715 3.246.466 1.275 1.4 1.246.932 1.68-.953 2.201" clip-path="url(#pb222846421)" style="fill:none;stroke:#000"/><path d="m573.396 397.566.052.455.174.363.197.306.227.233.638.51.367.399.238.401.144.416.215.3.669.552.314.343.2.383.208.701.053.624-.042.962-.159.542-.48 1.167-.083.507.046.536.192.616.318.652.412.451.35.14.398.075.521.127.37.169.295.246.355.578.288.803.106 1.621.242 1.874-.038 2.96-.09 2.713-.205 1.515.038.803.083.591.204.712.083 1.255.023 1.19.136.81.529 1.663.166 1.226-.098 1.057.128.176.174.096.257.038 2.608.021.567.128.559.26.355.388.65 1.303.423 1.69.272 2.368.227 1.34.574 1.042.847.507 1.3.31 1.043-.014 1.413-.443 1.98-1.058 1.014-.302 1.004.007.877.176 1.451.465 2.086.958 1.112.536 1.186.81 2.01 1.74 1.172.677 2.51 1.008 1.617.732 1.345.93 2.418 2.72.545 1.022.325.909.204 1.078v2.881l-.038.338-.099.342-.18.363-1.074 1.148-1.93 2.072-.696.796-.514.796-.56 1.184-.154.585-.163.968-.076.529-.162.507-.79 1.138-1.24 1.674-.385.496-.352.324-.566.31-1.142.684-1.575 1.236-.677.525-.547.29-.53.232-.593.193-1.368.303-1.164.42-1.022.456-3.384 1.654-.276.197-.208.233-.053.313.19 2.327-.435 1.275-1.056 1.217-4.974 2.637-3.202 3.796-.528.782-1.57 2.979M555.06 482.696l.74.366.938.867.74.5 1.497.515 2.131.64 1.278.353.982.578.983.704.438.134.522-.028.514-.183.952-.444.945-.352.937-.304 1.723-.464.688-.19.597-.022 1.043.212 1.398.366.793.282 1.013.725.68.296.983.212 1.255.408.997.367.726.472.696.789.963 1.436M571.28 368.492l-.994-.856-.39-.528-.28-.465-.147-.48-.098-.454.057-.493.298-.767.02-.132-.022-.142-.071-.124-.12-.028-.162.028-.151.087-.186.187-.997 1.765-1.224 1.395-1.111 1.628-.817.68-.937.955-.48.352-.404.144-.518.04-.597-.1-.57-.257-1.474-1.053-1.168-1.036-.745-.444-.294-.148-.155-.162-.155-.232-.492-1.392-.272-.614-.397-.43-1.042-.81-2.559-1.825" clip-path="url(#pb222846421)" style="fill:none;stroke:#000"/><path d="m573.396 397.566.018-.708-.17-1.067-.173-.888.007-.493.076-.6-.06-.352-.099-.247-.242-.235-.159-.211-.14-.406-.188-.49-.288-.376-.51-.498-.204-.355-.105-.451-.136-.775-.152-.769-.234-.648-.718-1.458-.159-.472-.075-.606.12-3.65.122-.628.506-1 .219-.585.144-.662.083-1.114.204-1.05.355-1.458.068-2.896.242-2.051.015-.331-.053-.275-.09-.282-.34-.987M573.6 363.278l-.39.627-.43.736-.174.508-.185.444-.216.394-.268.458-.253.631-.405 1.416M609.781 581.873l1.053.76 1.605.319 2.233-.17M606.307 578.12l1.684.883.137 4.536M570.692 580.575l2.702 5.742M517.111 584.987l.65-.107 1.155-.27 1.223-.24 4.823-.956M534.431 569.488l-2.74 2.824-4.142 3.1-2.751 3.523.272 2.902-.108 1.577M536.226 529.169l-.484 1.211-.756.761-.332.846-2.147 1.521.152 2.706-1.664 5.862.394 1.042 1.27.056.483.31v2.452l-1.179 1.437-.665 2.086.786 3.72.726.281 1.3-.056v3.015l3.99 3.804 2.026.902 1.21 1.973" clip-path="url(#pb222846421)" style="fill:none;stroke:#000"/><path d="m534.431 569.488 2.974-3.065 1.179-.366 2.751-2.96M560.584 543.473l1.105 3.532-1.685 5.348.843 2.993-3.053 1.325-6.054 6.084-3.263 1.815-7.142-1.472" clip-path="url(#pb222846421)" style="fill:none;stroke:#000"/><path d="m540.792 575.462-4.632-6.034-1.729.06M523.37 596.56l4.21-5.005 2.421-1.815-.368-4.22" clip-path="url(#pb222846421)" style="fill:none;stroke:#000"/><path d="m520.421 609.217-4.158-1.275-.737-1.178 3.475-2.944 3.737-1.717 6.948-.294 2.579-.932 5.474-6.869.895-2.306-.369-1.815-8.632-4.367M501.238 574.43l-4.95 6.086M498.913 572.332l.597.477 1.728 1.621M511.389 583.823l-.55-.418-.775-.693-8.826-8.282M491.34 568.887l.633.047 1.244.28 1.058.324 1.441.543 1.495.89 1.702 1.361" clip-path="url(#pb222846421)" style="fill:none;stroke:#000"/><path d="m500.809 569.001-.05.352-1.846 2.98M500.809 569.001l.363-2.617-.527-3.716-.458-.15-1.97.641-.757-.32-.412-.449" clip-path="url(#pb222846421)" style="fill:none;stroke:#000"/><path d="m505.64 564.953-2.635 1.709-.412 1.025-1.784 1.314M462.638 574.575l-3.369-.906-.552-1.336M451.245 573.182l1.153-.13.233-.027 3.654-.415 2.432-.277M449.77 571.848l1.475 1.334M451.245 573.182l-8.174.93M438.285 572.093l.242-.367 6.772-1.127M443.071 574.111l-.795-.61-3.78-1.042-.211-.366" clip-path="url(#pb222846421)" style="fill:none;stroke:#000"/><path d="m428.567 571.424 1.735-.149 2.214-.428 1.636.019 1.336.54 2.797.687M399.073 574.581l.7.174 7.341 1.785 1.084.153 1.01.006.654-.041M398.327 587.014l3.67-2.23 1.196-1.228.559-2.714 1.356-2.194 4.754-1.99M396.458 573.932l-7.951-1.974M396.458 573.932l1.68.417M392.902 571.621l2.353 1.19 1.203 1.121M284.181 581.653l.779-.208.831-.285.695-.3.661-.334.897-.514.68-.486.668-.56.662-.652.616-.726.582-.82.464-.768.488-.913.714-1.577.763-1.769 1.126-2.677.744-1.813.428-.962.378-.691.43-.592.674-.648.733-.5.823-.338.794-.212.975-.12 1.195.078.99.218.838.38.922.586.794.767.297.367 1.623 2.346 2.85 4.086 1.126 1.567 2.012 2.563 1.392 1.505 1.978 1.855 2.145 1.609.86.616M346.497 581.333l-13.967 5.78-.862.246-1.005.134-1.011.017-.588-.056-.748-.197-.801-.33-1.442-.874-2.07-1.318-4.194-3.004" clip-path="url(#pb222846421)" style="fill:none;stroke:#000"/><path d="m320.452 586.127-5.42-2.741-.445-.229-.133-.186-.06-.173.008-.201.079-.18.185-.221.443-.254 1.413-.507.287-.085h.272l.235.078.96.57.593.328.14.042.173-.003.098-.046.095-.078.434-.51M271.004 581.097l-1.247-2.452-1.111-2.053-.057-.152.004-.12.03-.113.042-.056 1.76-.69M250 578.934l5.393.676 2.018.205 9.1.83 4.493.452M284.181 581.653l-.91.194-.904.123-.801.057-1.194.006-.745-.028-3.672-.38-4.951-.528M250 578.934l-.975-.113M250 578.934l-.616 2.191M256.413 561.131l.514 1.727.31 1.162.083.605-.075.656-.152.507-.377.571-1.021 1.5-.264.557-.665 1.416-.288.803-.159.634-.022.535.008.437-.129.388-.204.338-.318.296-.665.472-.37.317-.333.458-.544.894-1.171 2.24-.272.557-.299.733M247.29 580.66l.703-.409.148-.126.147-.194.737-1.11M229.824 578.152l.642-.43.446-.57.31-.635.068-.422-.045-.317-.174-.247-.325-.19-.423-.134-2.366-.683-.937-.346-2.585-1.056M216.877 577.053l1.504-1.24.507-.401.854-.6.665-.436.272-.26.325-.43.378-.606.241-.19.303-.113.544-.022.454.057 1.511.31M215.585 566.74l-.378 1.12-.06.274-.023.26.053.427.128.666M191.27 571.635l-.226-.028-.235.014-.26.07-.314.152-1.205.807-1.32.884-.536.267-.521.198-.212.056-.162.01-.216-.045-.211-.13-.273-.38-.223-.47-.204-.767-.026-.254v-.313l.234-.832M188.46 573.749l1.239-.937 1.572-1.177M200.77 567.28l-1.193.136-1.05.218-.892.225-1.013.352-.801.402-.726.395-2.283 1.57-1.541 1.057M188.652 577.285l-.223-.383-.09-.233-.05-.243-.02-.444.19-2.233M134.82 574.94l1.723-.254 1.535-.17.922-.056.68.008.975.056.922.133.846.17 1.059.345 1.61.711 4.56 2.734M151.515 583.4l-.359-.274-.15-.177-.099-.218-.041-.324-.03-.662-.039-.268-.158-.268-.227-.394-.272-.638-.487-1.56M154.123 540.828l-.023.665-.033.328-.057.176-.174.49-.786 1.715-.121.324-.102.511-.272.969-.095.25-.14.225-.714.867-.34.412-.585.968-.193.385-.178.415-.068.444-.026.437.034.514.12.803.114.557.038.366-.027.504-.105.44-.216.43-.264.377-.299.246-1.126.726-.352.271-.26.233-.246.264-.963 1.385-.34.436-.276.306-.379.328-.366.265-.46.397-.296.342-.211.335-.265.556-.688 1.677-.249.536-.333.51-.294.363-.598.68-.328.42-.239.355-.257.433-.415.8-.254.486-.335.732-.193.529-.216.697-.49 2.078-.315 1.533-.09.27-.106.202-.208.264-.295.236-.521.24-.514.12-1.008.188-.508.134-.377.146-.23.158-.114.176-.05.18-.026.306M126.257 576.056l.665 1.447.249.705.099.599.05.76-.043 1.438-.106 1.148-.219 1.219-.174.676-.264.67-.303.55-.952 1.316M109.603 567.067l-.805.003-1.24.042-2.252.184-4.575.393" clip-path="url(#pb222846421)" style="fill:none;stroke:#000"/><path d="m106.424 585.715.014-.152-.014-.176-.105-.331-.522-1.402-.25-.768-.173-.698-.4-1.873-.182-.529-.204-.436-.847-1.332-.204-.345-.4-.923-.567-1.254-.302-.585-.892-1.387-.121-.332-.084-.401-.44-5.102M116.242 591.368l-1.232.81-.264.113-.325.014-.295-.056-.28-.212-.098-.204-.196-.754-.574-1.79-.19-.267-.272-.211-.71-.346-.809-.331-1.338-.479-.567-.24-.49-.295-.983-.761-.506-.289-.689-.355M109.603 567.067l.061-1.226M126.257 576.056l-.65.018-.907-.064-.937-.26-.718-.29-.74-.422-.674-.458-.725-.563-1.867-1.6-3.75-3.191-.997-.828-.653-.412-.537-.282-.699-.261-.552-.161-.661-.124-.96-.077-.627-.014M109.75 564.132l-.086 1.71M427.427 618l.828-1.091 6.941-6.358 2.633-1.413 2.593-1.71 1.795-2.975.838-2.491.04-1.97-2.912-4.612-.718-2.49.159-2.083 1.516-3.31.559-1.71-1.288-6.42M324.76 564.168l-.824-.564-.355-.19-.506-.17-.696-.231-1.134-.332-1.42-.274M217.497 520.424l1.595-1.718 1.27-.881 1.511-.79 3.19-2.037.158.206.661 1 .64.37 1.598.61.582.475.313.73.02.253-.175 1.173.16.782.695 2.762-.046.38.03 1.543.091.36.567 1.173.544.708 2.729 2.902.415.25 2.853 1.304 1.244.898 2.343 2.466 1.707 1.93 2.302 4.358 3.673 4.952.106.712-.114 1.818.03.626.175 1.149.552 2.177.189.204.702.247 5.465.324 1.096.169.975.444 1.655 1.233 1.164.493 1.897.55 2.207.218.688-.056 1.375-.48 2.427-.74 2.864-.422 1.345.268 5.351 1.768 2.184.113 6.281-1.141.348-.283 1.746-1.775.196-.099.666.078 2.365.599 1.096-.078 1.024-.285.521.155 1.187.785 1.625 1.205 1.141.205 2.37.169 2.57.81 1.02.38 2.743.036 1.64.38 1.724.099.536.26 3.795 2.487.823.211 2.026.338 1.882.473" clip-path="url(#pb222846421)" style="fill:none;stroke:#000"/><path d="m319.927 565.736-.182-.48-.514-.788-.272-.874.242-.62.624-.567M329.208 557.095l.197.126.143.17.072.197-.026.208-.201.352-.25.32-.294.223-.336.119-.953.197-.222.102-.102.127-.03.205.014.267.042.254.007.155-.033.366-.099.303-.162.328-.155.236-.163.127-.223.091-.302.067-.253.053-.136.074-.151.152-.303.485-.25.465-.105.43-.174.874M354.767 566.358l4.74-2.966M362.67 463.447l1.473 31.352.182 2.423-.423 2.03-.968 2.987-.302 1.522.06 2.536 3.084 17.867-.06 2.31-.363 1.804-1.15 7.102-.06 1.578v1.578l-.483 1.41-.726 1.24-1.813 2.254-.424 1.183-1.27 6.707-.544 1.578-1.451 2.48-.907 1.634-.302 2.255-.182 3.043-1.274 4.038" clip-path="url(#pb222846421)" style="fill:none;stroke:#000"/><path d="m305.408 440.686-.979 3.526-.049 2.695.087.469.189.4 1.504 2.869.865 1.043.321.246 1.187.769.45.637.177.447.92 3.395.006.46-.215 1.423-.846 2.12-.454.91-.567.45-1.1.458-1.87.617-1.905.454-2.033.099-.333.176-.283.398-.083.293-.084 3.593-.26.535-1.236 1.875-.567 2.201-.007.941-.34.44-.42.398-3.11 3.432.204.394 2.642 3.05 2.43 3.076.668.427.552.208 3.93.789.613-.096 1.912-1.12 1.432-.99.057-.398-.05-.236-.343-1.096.219-.285 1.047-.493.699-.113 1.517.021.151-.127.546-1.437.239-.26 2.883-1.216 1.33-.243.846-.063.862.194 3.417 1.455.207-.252.091-.265-.064-1.277-.19-1.319.129-.523.266-.405.649-.5 3.121-1.769 3.242-1.275 2.408-1.198 2.637-1.233 1.104-.676.828-.099 1.118.176 2.91.902 1.228-.004.654-.264 2.819-2.74 10.748-5.986.472-.12.54-.017.488.14 5.09 2.255M455.203 567.412l-1.175-2.08-.98-1.468-1.169-.808-1.544-1.007-1.119-.843-.929-.971-.614-1.184-1.433-2.703-1.256-2.682-.651-1.135-.63-.797-.684-.711-1-.564-1.444-.61-2.487-1.065-.952-.46-8.318-6.764-3.354-2.728-2.21-1.686-3.552-2.107-7.376-4.052-3.328-1.908-2.237-1.463-.565-.457-.59-.742-.98-1.998-1.965-5.49-3.247-8.994-2.173-4.999-1.018-2.787-.402-1.546-.105-.86.105-.826.314-.702.32-.668.497-.82.427-.819.276-.82.137-.817-.062-.892-.25-.91-.503-.706-1.068-.89-1.997-1.546-.625-.816-.38-.846-.173-.99.098-.954.351-.936.483-1.113 1.251-3.032.282-1.466-.119-1.919-.58-6.383-.613-7.387-.343-4.588-.165-1.023-.242-.93-.302-.754-.491-.768-.537-.564-.756-.612-1.33-.825-2.69-1.529-2.35-1.461-3.749-2.628M388.436 444.205l-4.353 1.803-3.15 1.795M223.748 462.26l.357-.81.038-.233.013-.176v-.158l-.02-.117-.045-.181-.293-.747-.066-.162-.053-.111-.119-.224-.64-1.132-.132-.459-.053-.514-.03-.741.028-.28.087-.254.123-.187.434-.627.265-.317.343-.38 1.063-1.12.143-.23.094-.243.37-1.032.14-.518.19-.535.676-1.311.09-.254.035-.246.143-1.677-.02-.291-.048-.22-.087-.17-.11-.154-.904-1.094-.15-.223-.066-.244-.077-1.701-.027-1.702.033-.217.085-.156.19-.242.728-.984" clip-path="url(#pb222846421)" style="fill:none;stroke:#000"/><path d="m224.673 441.112.375-.254 1.428-.972M388.225 359.84l.34.112.506.056.43.106.41.275.536.528.808.924.439.774.302.797.333.818.453.725.174.493.015.48-.12.69-.16.641-.007.487.09.401.28.634.015.473-.075.465-.25.591-.597.867-.642.916-.291.779.026 2.15-.106 1.398-.109.349-.17.282-.295.228-1.19.701-1.278.808-.506.377-.246.36-.11.432-.071.497-.038.627-.102.803-.102.226-.189.148-.25.053-.313-.025-.922-.412-2.26-.99-1.005-.529-.242-.204-.12-.25-.065-.388.019-.652.215-1.437.012-.578-.114-.42-.283-.443-.352-.3-.476-.218-.778-.134-1.504-.345-1.595-.43-.812-.106h-.563l-.518.089-1.225.229-.665.049-.605-.063-.718-.29-.876-.55-1.081-.654-.454-.092-.419.053-.344.151-.85.624-.427.196-.24.03-.242-.011-.342-.102-.831-.296-1.202-.247-.627.042-.522.134-.537.247-1.587 1.05-1.368.796-1.428.6-.764.415-.494.345-.636.627-.502.328-.37.127-.465.003-.473-.148-.593-.525M347.995 339.363l1.834 5.574M340.443 318.58l-.227 3.966M286.298 353.237l1.685-6.758M311.376 388.3l2.79.338M305.51 432.235l-.064.203.011.366.11.349.702 1.254.155.398.087.455.11 1.557-.002.335-.044.243-.075.247-.92 2.7-.172.344M301.077 431.5l.253-.174.059-.038.058-.02.116-.007.852.078.29.046.273.06 2.532.79" clip-path="url(#pb222846421)" style="fill:none;stroke:#000"/><path d="m216.038 456.24.817-3.63.204-.852.058-.308.108-.276.18-.307.175-.208.975-.874 1.78-1.48.465-.436.566-.543 1.83-1.797.287-.31.234-.352.612-.923.28-.514.129-.416.136-.817.01-.217-.018-.206-.193-.662M268.249 248.91l2.124-.839.213-.05.23-.036.4.023.476.095.502.187.314.211.272.258 1.164 1.515.108.117.157.126 1.575 1.06.216.168.124.116.47.496.114.086.148.056.13.02.14-.004.22-.074.165-.097.185-.107.722-.497.26-.168.22-.11.71-.314.556-.088.563.024.51.184.647.285.31.18 1.037.155.174.053.172.133.12.161.043.165.01.16-.09.385-.395.967-.044.182-.032.176-.036.37-.023.461.03.55.035.177.04.187.342.938.071.251.044.327.08.513.06.273.141.319.347.662.112.245.097.277.351 1.131.125.482.09.526.3 1.794v.736l-.014.266-.074.326-.3 1.616-.002.281.034.273.115.41.142.274.439.478.757.563 2.06 1.322.32.156.318.112.255.06.292.012 2.087-.029.384.041.506.114.983.413.514.215.52.222.655.31.39.126.23.029.223-.018 1.965-.366.172-.04.176-.08.124-.083.434-.415.195-.142.129-.07.155-.026.181.017.1.044.121.155.291.507.103.12.16.07.141.024.62.06 1.02-.053.306-.044.346-.08 1.527-.413.403-.023.389.007.366.046 1.493.232.232.012.28-.008 2.595-.35" clip-path="url(#pb222846421)" style="fill:none;stroke:#000"/><path d="m328.342 253.921-.4-.08-.114-.04-.084-.05-.649-.38-.975-.613-.362-.19-.238-.123-.915-.437-.892-.29-.404-.079-.293-.056-.278.031-.245.052-.416.165-.816.392-.261.116-.308.08-.679.128-.835-.018-.483-.084-.688-.212-.31-.127-.2-.06-.272-.028-.185.042-.11.067-.132.137-.09.163-.05.148-.083 1.441-.129 1.082-.166 1.212-.025.328-.013.356.099 1.84-.068.457-.04.254-.093.285-.597 1.364-.145.287-.169.326-1.028 1.51-.162.217-.22.215-.211.14-.411.226-.817.427-.317.208-.408.292-.753.909-.563.867-.204.465-.241.642-.155 1.631.045.412.06.236.065.163.344.796M270.407 346.736l.604.017 1.81.14.847.015.771-.006 4.848-.184.284.013M282.745 338.872l.197.345.06.173.05.274-.012.254-.06.617-.473 2.773-.059.36-.085.249-.13.266-.153.28-.348.427-.35.366-1.811 1.475M219.764 356.802l1.474-1.398 1.906-1.07M171.145 315.634l.3.578 1.414 1.938.25.444.226.67.254.961.073.397-.02.407-.32 1.443-.002.35.038.254.083.254.386.563 1.088 1.29 1.482 1.642.695.539.831.483.79.388.586.246.544.067.491.042 1.512-.025.521.018.469.17.261.193.329.296.313.504.26.719.118.567.08.73-.016.965-.287 1.857.015.606.178.705.412.74.434.616.601.482 1.05.691.159.129.195.206.155.276.436 1.686.076.134.115.171.202.178 1.565.976.146.094.181.156.225.23 1.116 1.118.187.143.254.095.332.099 2.842.433 2.502.176.74.007.684-.067.715-.123 1.659-.36.547-.077.605.007.578.053.522.12.306.176.348.222 1.27 1.176.147.272.102.335.015.426-.06.314-1.735 1.828-.181.247-.122.326-.037.159-.015.223.177 1.318.148.36.276.422.51.488.627.271.567.072 1.168-.06 2.366-.313 1.152-.328 1.077-.602 3.25-2.706.56-.402.383-.18.569-.2.676-.039.824.039.74.197.45.254 1.194.732.329.279.214.227.198.238 1.58 3.393.498.676.251.21M175.055 308.51l-1.133-.12-.123-.002-.214.051-.166.067-.152.123-.132.212-.111.193-.093.285-.05.318-.031 1.077-.026.151-.036.136-.435.743-.163.261-.132.197-.344.452-.234.394-.094.335-.083.496-.158 1.755M169.655 310.93l1.309 4.287.181.417M167.878 302.055l1.09 2.29.69 1.158.082.199.111.257.072.51-.011.525-.257 3.936" clip-path="url(#pb222846421)" style="fill:none;stroke:#000"/><path d="m167.146 307.953 1.193 1.067.56.536.374.5.382.874M163.321 318.291l-.138-.59-.037-.134-.03-.107-.398-1.034-.086-.305-.03-.207-.067-.597-.011-.983.034-.422.045-.434.31-1.04.087-.264.114-.236.517-1.011.168-.237.15-.153.137-.107.324-.164 1.394-.611.193-.125.166-.168.567-.79.416-.619M117.706 218.042l.677.424.338.278.356.432.196.556.102.642.021 1.034.027.267.056.237.467.855.09.16.091.189.08.33.037.346.008.363-.39 1.822-.001.373.062.47.117.405.246.52.438.653 1.459 1.307.159.146M219.764 356.802l-1.292 1.247-.306.222-.31.134-2.422.427-.447.105-.638.331-1.606.977-1.364 1.113M213.423 382.536l-1.56-1.345-.25-.282-.094-.173-.084-.222-.015-.416.068-.824-.018-.48-.163-.457-.499-.768-.257-.318-.234-.253-1.3-1.1-.469-.394-.177-.32-.147-.328-.175-.825-.28-3.142.039-.691.181-.423.295-.324 1.776-1.163.722-.733.12-.246.076-.226.042-.331-.015-.38-.114-1.223-.12-1.057.001-.28.036-.305.125-.444.446-1.705" clip-path="url(#pb222846421)" style="fill:none;stroke:#000"/><path d="m212.705 374.13-.76-.48-.185-.126-.15-.155-.122-.254-.106-.43-.09-.57-.004-.247.019-.26.072-.23.321-.944.4-1.06.477-.938.083-.257.064-.25.178-1.346.31-1.219.196-.782.265-.585.642-1.382 1.007-1.85.293-.418.21-.242.202-.178.32-.262.3-.178 1.235-.529.303-.18.276-.221.478-.504.237-.296.207-.28.381-.675M250.676 191.921l-1.318-.551-.235-.112-.217-.147-.947-.804M203.753 203.579l.215-.152.185-.165.548-.532.358-.305.417-.275.533-.231.518-.13.567-.068 2.503-.329.24-.014.153.023.17.037.952.204.155.037.203.027.683.012.284.021.196.026 1.108.2 1.148.02.74-.112.833-.275.952-.521.353-.231.32-.242.816-.803.272-.232.283-.212.374-.176.526-.155.427-.085 1.046-.12.36-.063.276-.12.816-.455.285-.199.278-.167.381-.134.51-.042.571.042.71.106.294.014.376-.014 1.17-.159 1.822-.152.265-.049.208-.077.827-.459.246-.181.215-.202.677-.966.277-.317.27-.25.364-.258.362-.197 1.036-.5.362-.134.496-.159.763-.24.458-.13.423-.159 1.53-.68.646-.359.405-.286.956-.813 1.205-1.37.16-.15.095-.07.149-.062.25-.05.274-.017.295.01.215.096.818.35.476.075.458.01 1.232-.137.374-.035.37.074.34.151.782.37M247.253 184.768l.287 1.825.302 2.27.117 1.444M259.459 199.04l-2.592-.458-.854-.282-.635-.331-.253-.194-.269-.205-.14-.229-.072-.254.03-1.402-.063-.615-.065-.282-.119-.284-.157-.251-.999-1.176-.21-.2-.287-.175-2.098-.78" clip-path="url(#pb222846421)" style="fill:none;stroke:#000"/><path d="m245.37 204.495.146-.97.05-.195.084-.109.092-.077.224-.098 1.302-.44.869-.493.68-.483.288-.377.103-.245.063-.21.026-.36-.043-.442-.15-.28-.5-.611-.08-.12-.077-.123-.423-.88-.783-2.18-.043-.22.002-.186.083-.17.155-.14.263-.1.266-.027.486.016.166-.023.176-.06.306-.148.268-.166.303-.27.347-.484.302-.74.355-1.163M275.291 199.884l-.395.188-.268.257-1.875 2.298-1.375.818-1.428.761-.484.183-.276.074-.325-.017-.355-.043-.348-.144-.427-.247-.3-.331-.203-.42-.124-.584.033-.885-.026-.49-.041-.2-.102-.255-.412-.518-.76-.683-.268-.215-.28-.162-.312-.125-.459-.066-1.553-.01-3.469-.028M255.99 204.164l-.295-1.46-.041-.919.038-.264.134-.254.162-.151.58-.43.12-.092.11-.098.14-.142.39-.528.084-.088.124-.089.17-.072.196-.061 1.557-.476" clip-path="url(#pb222846421)" style="fill:none;stroke:#000"/><path d="m330.744 211.439-.217-.255-.824-.607-.578-.296-.23-.18-.223-.243-.798-.993-.997-1.544-.193-.229-.27-.26-.498-.304-.476-.2-.321-.092-.427-.07-1.912-.134-.223-.04-.27-.093-.27-.17-1.429-1.15-.42-.288-.483-.29-1.009-.5-.62-.514-.43-.5-.356-.558-.185-.303-.102-.338-.163-1.423-.064-.445-.147-.517-.238-.677-.112-.285-.136-.216-.561-.468-.945-.416-3.324-1.306-.372-.118-.612-.056-.537.105-2.048 1.48-.302.14-.219.065-.314.078-2.135.267-.612.184-.352.21-.381.248-.469.422-.877 1.128-.317.335-.495.345-1.977 1.125-1.519.828-.582.208-1.212.243-1.059.123h-.499l-.445-.057-.658-.158-.418-.162-.35-.226-.615-.574-.82-1.23-.507-.486-.392-.292-.475-.21-.508-.094-.938-.155-2.456-.137-.266-.032-.24-.028-1.183-.437-.298-.141-.2-.268-.058-.177v-.19l.14-.405.57-1.314.073-.338-.002-.32-.032-.237-.23-.374-.231-.2-.214-.017-.228.034-.344.155-1.315 1.078-1.795 1.093-.17.155-.087.13-.07.264-.059.6-.15.342-.145.204-.635.486-.25.1-.29.059-.797.058-.37.028-.322.062-1.332.4" clip-path="url(#pb222846421)" style="fill:none;stroke:#000"/><path d="m286.615 154.065.06 2.171-.053.6-.09.605-.227 1.466-.102.554.049.55.144.659.491 2.523.083 3.192-.068 1.206-.347 1.093-.394.768-.687 1.423-.261 1.35-.098.504-.027.673-.008 1.914-.067.67-.068.563-.461 1.847-.197.437-.4.461-.553.413-.634.43-1.61.902-.506.373-.408.346-.303.353-.242.496-.211.525-.09.768-.115 1.389-.124.63-.094.487-.065.476.012.839v.268l-.053.33-.072.198-.095.232-.43.557-1.176 1.364-.25.286-.219.292-.204.455-.064.394.042 1.615-.023.373-.057.374-.166.747-.886 4.678M203.753 203.579l-1.194.796-.42.31-.412.332-1.236 1.05-.45.465-1.084 1.22-.586.567-1.549 1.078-.688.364-.467.19-.41.133-.744.151-.405.078-.324.095-.34.143-1.886.893-.337.117-.313.091-.552.067-1.754-.053-.641.01-.416.109-.34.167-.552.402-.726.768-.665.845-.522.684" clip-path="url(#pb222846421)" style="fill:none;stroke:#000"/><path d="m179.181 236.173.352-.498.132-.217.072-.227-.023-.265-.075-.264-.563-1.16-.193-.46-.068-.42.03-.49.132-.532.276-.511.858-1.109.155-.272.076-.182.068-.248.272-1.678.098-.514.117-.483.495-1.572.084-.454-.012-.275-.072-.261-.393-1.008-.094-.373.094-.543.19-.458.438-.726 1.163-1.53.16-.285.128-.3 1.323-3.438.34-.77M178.641 212.46l.745.884.2.19.317.18.345.098.86.067h.16l.234-.028.986-.176.299.002.391.04.29.134 1.272.8M212.841 217.604l.892-.676.253-.346.053-.172-.009-.293-.116-.461-.377-1.125-.261-.817-.223-.515-.325-.596-.494-.741-.14-.321-.084-.354-.163-1.18-.14-1.322-.23-1.086-.162-.39-.182-.29-.355-.415-.25-.187-.31-.144-.374-.085-.317.028-.756.232-.383.115-.286.021-.172-.033-.19-.081-.568-.642-1.454-1.304-.291-.24-.329-.196-.39-.163-.955-.246M229.53 290.074l.79.032.388.148 1.066.592 1.629 1.226.461.522.907 2.3.736.903.828.676 1.603.465.705.638 1.736.437.37.317 1.16 1.318 1.663 1.025.42.138.566.06 1.784.017 1.258.3 1.44.828.654.926.147.49.035.529-.326.976-.264.472-1.61 1.868-.608 1.342-1.115 1.712-.144.522-.211 1.483-.392.487-1.528 1.138-.19.602.205.86.42.772.612.785.861.86.54 1.008.344 1.254.42 1.966.523 1.825-.01 1.05-.301 1.297-.008 1.321-.216 1.952.118.342.302.392.563.471.801.342 1.308.43.73.567 1.465 1.644.715.301 1.802.472.919.173.62-.014 1.37.282.341.183 2.302 1.455.891.296 2.974.279 2.272-.082.493.291.248.376.343.845 1.497 4.72 1.262 2.724.193.734M117.706 218.042l2.757.175 1.028-.313.898-.604 1.056-.242 2.683-.44 5.729-1.819.276-.43.567-1.297.65-.803.609-.208.309-.035 2.271-.194 3.205-1.202.355-.472.042-.236-.008-2.08.227-1.649.37-.518 3.42-1.462.276-.45.045-.29-.094-1.31.12-1.946-.105-2.51.352-2.894.253-.626.306-.394.54-.254 1.258-.257.887-.679.792-1.13.271-1.42.56-2.882.185-.437.77-.754 1.308-.29 1.27-.64 1.025-.691 1.292-1.29 1.7-.86 1.557-2.53.702-1.198.357-.117 1.39.018 2.528-1.583 1.33-.394 1.34-.062.945-.898.448-1.007 1.71-2.177.162-1.102-.113-.384-.316-.386-.581-.902-.175-.62.106-1.456-.298-.54-.926-.577L166 165.29l-.517-.692-1.219-2.287-.943-.626-1.13-.48-2.486-.33M179.181 236.173l1.166.665.165.06.278.017.266-.007 1.342-.127 1.135-.002.321.032.257.062.191.08.212.138.94.69.303.135.314.077.348-.007 1.564-.352M247.253 184.768l.045-.783.057-.409.102-.387.147-.42.442-.652.182-.306.143-.332.393-.849.166-.229.224-.233.363-.21 1.001-.442.446-.283.25-.189.171-.169.399-.455 1.47-1.723" clip-path="url(#pb222846421)" style="fill:none;stroke:#000"/><path d="m258.605 170.178-1.4.817-.157.081-.238.1-.616.21-.156.038-.134.058-.194.131-.165.152-.621.946-.223.291-.136.162-.155.104-.375.182-.08.054-.065.081-.079.124-.175.426-.052.07-.075.062-.125.047-.145.04-.65.095-.484.078-.484.211-1.874.987-.892.55-.68.718-1.587 2.171-.37.676-.084.5v.487l.272 2.115.288 1.057.196.395.363.374M352.162 198.48l-.416-.19-.314-.279-.786-.959-.14-.112-.219-.078-.234.056-.151.138-.163.292-.328 1.06-.152.343-.23.26-.453.226-.696.187-.446.07-.453-.049-.488-.102-1.319-.543-.37-.12-.374-.063-1.568.056-.53.099-.4.176-.25.303-.74 1.41-.287.416-.492.38-1.821 1.163-.31.268-.378.444-1.247 1.46-.665.73-.246.249-.23.176-.189.127-1.55 1.05-.196.148-.178.194-.648 1.078-.076.138-.04.115-.045.172-.098.77-.043.151-.084.141-.122.11-.446.299-.227.176-.155.166-.425.657M556.36 391.57l2.01.19.605.127.922.31 1.036.578.514.352.302.268.378.521 1.066 1.501.415.522.28.204.332.162.461.162 1.142.366.906.353.552.148 1.081.035.408.064.847.26.355.057.582-.12 1.466-.367.635-.035.234.056.507.282M435.273 396.495l-1.353.043-.703.218-.604.409-.56.704-.256 1.198-.152 1.403.053.901.136.677.287.937.068.585-.052.465-.227.436-.393.34-.484.245-.46.106-1.082-.007-.506.078-.665.169-1.232.38-2.313.719-1.859.43-1.066.408-1.14.473-1.014.57-1.572.959-2.313 1.48L413 412.73l-2.192 1.19-2.389 1.121-2.569 1.318-2.177 1.113-1.874.775-.953.62-.756.817-.506.86-.567 1.297-.392 1.275-.137 1.142-.022 1.233.053.909.272 1.324.143 2.311.136 2.022-.083.74-.234.6-.416.436-.582.437-.634.331M418.54 445.586l-1.565-.388-1.149-.38-1.224-.599-1.769-.733-1.224-.352-.937-.198-1.36-.175-.96-.233-.757-.296-.702-.458-.62-.507-1.277-1.254-1.648-1.727-1.58-1.628-.687-.697-.575-.282-.808-.204-1.255-.233-.846-.282-.476-.359M560.419 233.793l-.734.408-.793.685-.627.598-.847.691-.529.888-.363.86-.272 1.05-.166.86-.265.733-.476.754-.627.55-.831.55-.983.492-.945.734-1.156.76-.71.36-.885.155-1.141.219-.763.36-.658.394-.605.197-.907.085-.839-.092-1.738-.677-1.428-.62-1.202-.493-.71-.606-1.293-1.389-.65-.443-.43-.19-.5-.008-.574.198-1.452.422-1.103.127-.77.007-.938-.282-.907-.26-.53-.078-.989.127-.884.289-1.429.43-1.61.274-.718.191-.559.331-.469.508-.49.775-.318.937-.265 1.008-.128 1.423-.197.903-.536.93-.93 1.086-.922.859-1.073.515-.975.26-1.05.021-1.066-.316-1.383-.86-1.217-.825-1.134-1.043-.778-1.255-.87-1.494-.408-.415-.559-.163-.597.036-.53.169" clip-path="url(#pb222846421)" style="fill:none;stroke:#000"/><path d="m402.917 273.217.348-1.684.023-1.255.181-1.508.28-.909.521-1.1 1.164-1.663 1.663-2.382.657-1.022.605-.577.968-.536 1.058-.543.68-.197.945-.007 1.443.218 1.565.515.59.112.687.008.612-.127 2.079-.782.952-.24 1.126-.07.907.127 1.111.436.816.19.817.015 2.615-.254 2.622-.423.643-.12.816.014.892.254 1.534.529 1.24.183 1.043.105 1.103.254 1.21.212 1.556.07 1.626-.056.96.091.868.296 1.195.339 1.194.183.99.268 1.028.486.438.099.476.014.5-.092 2.055-.535 2.131-.853.733-.233.62-.049h.763l.87.113.937.049 1.224-.148.937-.078.847.106 1.224.5 1.111.283.998.232.34.198.234.373.635 1.353.423.458.401.176.665.12 1.474-.183 1.836-.367 1.814-.64 1.625-.84 1.225-1.035 1.066-1.1 1.655-1.438 1.171-.937.854-.514.93-.353 1.67-.465.945-.042.703.127.922.401.65.416.68.656.438.281.47.05.49-.106.431-.317 1.368-1.396 1.262-1.317 1.232-1.84.749-.683 1.21-.748.936-.352 1.21-.176 1.33-.211 1.73-.07 1.111-.142 1.225-.416 1.217-.521 1.277-.818 1.564-1.134 1.807-1.24 1.3-.79" clip-path="url(#pb222846421)" style="fill:none;stroke:#000"/><path d="m495.397 243.787.25.225.407.458.273.536.128.373.015.325-.037.218-.386.698-.764 1.205-.09.268-.008.176.038.134.068.112.19.155.31.177.385.134 1.647.19 1.194.07h.484l.325-.077.43-.226 2.095-.838 2.018-.698 1.851-.43 1.768-.48M414.164 286.15l-.802-.804-.929-.642-1.119-.528-1.36-.74-.491-.536-.379-.536-.46-.951-.25-.676-.083-.564.121-.684.151-1.494-.106-.627-.166-.613-.393-.494-1.02-.916-.87-.627-1.67-.966-.944-.45-.477-.085M571.446 183.012l-1.247-.296-3.205-.817-4.21-1.044-2.373-.64-1.285-.275-1.141-.043-.975.134-1.217.409-1.527.536-.982.289-1.42.197-1.845.26-1.217.24-1.172.254-1.428.557-2.018.733-1.22.45-.409.093-.438.017-.472-.081-.42-.102-.446-.046-.446.035-.506.102-1.262.339-.688.236-.567.218-.82.332-1.273.334-.836.385-.68.394-.59.656-1.005 1.149-.808.972-.273.324-.34.22-.551.098-.749-.036-1.92-.133-.921.035-.923.31-1.511.69-.537.41-.166.415-.046.564.16.613.483 1.198.128.571-.03.423-.219.303-.347.197-.628.212-1.194.127-2.796.197-1.49-.112-1.148-.19-1.013-.064-.378-.05-.779-.31-.914-.437-.839-.14-.657.12-1.49.605-.937.423-.869.219-.877.063-.74-.056-.786-.261-.726-.395-.544-.091-.544.077-.68.212-.65.006-.771-.204-.952-.218-1.398-.261-1.18-.437-.635-.317-.688-.077-.944-.163-1.05-.275-1.845-.331-1.489-.056-.551-.015-.454.12-.491.163-.4.056-.492.028-.582.05-1.345.423-.892.295h-.31l-.253-.028-.227-.092-.268-.218-.325-.451-.484-.261-.333-.155-.211-.218-.106-.275-.045-.36.196-1.113M594.77 184.669l.509-.062M567.096 230.54l.393-.151.578-.261.854-.38.484-.508.174-.451v-.684l-.25-.972-.052-.529.098-.613.211-.867.62-1.698.317-1.036.447-.754.725-.67.892-.69.839-.804 1.413-1.621 1.119-1.502 1.247-1.888 1.11-1.713.878-1.332 1.239-1.572 1.338-1.663 1.708-1.988 1.376-1.775.846-1.29.4-1.008.401-1.304.59-1.022.68-1.156.884-2.22.892-1.952.65-2.009.96-1.769 1.149-2.086.62-1.227.528-1.268.243-.783.241-.296.325-.219.507-.14M613.34 206.433l-.779-.698-1.338-1.247-.786-.895-.65-.543-.65-.395-.612-.345-.408-.592-.197-.768-.536-1.565-.53-1.797-.158-.782-.068-.628.257-.895.71-1.029 1.406-1.043 1.225-.655 1.89-.705.313-.226.128-.229.05-.204.007-.194-.102-.303-.14-.342-.155-.342-.189-.247-.298-.169-1.08-.331-2.435-.585-3.937-.895-2.857-.684-1.05-.24-1.339-.126-1.171-.374-.665-.366-.574-.57-.522-.332-1.33-.423M560.419 233.793l.672-.324.544-.437.643-.655.44-.39.165-.259.075-.298.066-.384-.006-.375.03-.67.121-.479.273-.384.238-.2.283-.09.26-.02.288.07.337.187.514.388.997.564.737.504" clip-path="url(#pb222846421)" style="fill:none;stroke:#000"/><path d="m523.157 309.186.303-.288.514-.247 1.217-.578.559-.43.642-.79.461-.697.447-.338.642-.218 1.096-.24.718-.226.506-.345.401-.437.59-.93.914-2.27.854-2.367 1.013-2.36.62-1.129.453-.705.385-.76.25-1.213.196-.563.454-.571.733-.627 2.366-1.946 1.27-1.183 1.375-1.466 1.443-1.403 2.003-2.114 1.822-2.502.96-.796 1.058-.514 1.829-1.015.861-.79.953-1.127 1.285-1.565 2.169-2.445.415-.775.159-.627-.015-.882.008-1.05.15-.732.205-.529.393-.57.544-.438.234-.345.076-.452-.068-.408-.28-1.198v-.698l-.015-.902-.189-.683-.28-.663-.113-.493.023-.353.143-.409.492-.718 1.367-1.692 1.437-1.952.295-.486.12-.522-.03-.458-.196-.796-.167-.62-.03-.804v-1.226l-.182-1.086.008-.937.22-.895.634-1.74.492-1.17 1.224-1.804.937-1.1 1.089-1.142.785-.557.945-.444 1.157-.36.634-.253.454-.38.446-.592.612-1.254.06-.565-.067-.493-.242-.648-.809-1.008-1.02-1.05-.719-.916-.347-.684-.28-.557-.132-.334M571.446 183.012l.634 3.856-2.57 5.554-.219 1.22-.128.514-.257.401-.461.324-.937.423-1.043.522-.809.733-.703.853-.634 1.036-.363 1.642-.046.79-.03.613.174.768.4 1.403.099.845-.023 1.156-.143 1.41-.121 1.106.037 1.212-.045.557-.174.535-.476.832-.295.79-.476 1.317-.537 1.692-.234.761-.408.727-.34.542-.68.874-.257.486-.076.55.038.62.211 1.071.197.938.03.726-.038.676.053.628.295.902.242.634v.684l-.196 1.127-.06.818.12 1.043.317 1.226.061.846-.197.775-.408.776-.551 1.247M588.783 179.397l.915.387.968.55.755.606.545.769.347.746.22.48.446.507.581.43.764.275.612.219.343.241" clip-path="url(#pb222846421)" style="fill:none;stroke:#000"/><path d="m571.446 183.012 1.217-2.713.642-1.262.461-.585.582-.48.673-.373.596-.437.56-.458.386-.232.438-.085.453.035 1.451.423 1.194.219.953.063 1.073-.077 1.074-.099.816-.007.793.19.68.303.998.74.612.5.756.445.93.275" clip-path="url(#pb222846421)" style="fill:none;stroke:#000"/><path d="m602.955 156.123-.53.592-.34.571-.316.811-.235 1.388-.446 2.1v.628l.091.458.098.628.106.824-.008.797-.204.754-.295.91-1.043 1.782-1.647 2.129-1.15 1.43-.702 1.22-.9 1.55-.452.522-.454.48-.545.324-1.118.444-.816.45-.62.374-.56.247-.71.374-.62.585-.756.902M520.165 316.698l1.556-2.128.477-.88.567-1.918.12-1.14.061-.924.211-.522M503.749 313.774l.34-.486.416-.388.328-.232.216-.226.12-.307.106-.32.431-1.487.356-.93.249-.444.43-.374.47-.26.513-.268.612-.296.53-.303.876-.606.967-.698.915-.338 1.678-.31.937-.148.635.028.461.133.499.261.536.465.386.41.582.697.59.493.612.261 1.005.148 1.708.162 1.141.338.763.437M495.557 358.833l.762-.08 1.134.036.982-.042.718-.148.87-.395 1.043-.465 1.473-.965 1.24-.937.657-.74.401-.69.144-.81-.114-.833-.408-1.226-.098-.662v-.585l.234-.69.74-1.41.515-1.163.242-.93.045-.86-.09-1.339-.167-2.938.189-2.325.272-.839.333-.528.59-.451 1.087-.452 2.034-1.12 1.232-.803.657-.642.522-.775.748-1.635.211-.902-.045-.605-.212-.614-.362-1.41-.008-.958.189-.98.522-1.056 1.005-1.191 1.542-2.199 1.64-1.938 1.005-1.211.77-1.135.364-.494M609.605 325.31l-1.08.112-1.451.184-.915.106-.702.218-.673.289-1.21.93-2.818 2.121-.666.373-.725.177-.915.056-1.073.014-.733.12-.71.388-.582.613-.71 1.1-1.807 1.98-.567.465-.469.218-.597.099-.612.028-1.247-.1-2.918-.048-2.479.162-.574-.042-.574-.233-.749-.514-.52-.36-.741-.183-1.497-.091-2.336.105-2.16.374-2.526.52h-2.154l-2.313.093-.691.109-.616.324-.597.293-.548.155-1.115.253-2.033.543-2.38.303-1.49.401-4.088 1.995-1.879 1.17-.275.116-.299.074-.25-.011-.249-.08-1.058-.663-.259-.111-.17.005-.194.032-.216.08-1.122.395-.439.015-.468-.057-.446-.176-1.969-1.131-1.429-.793-.441-.366-.337-.486-.249-.596-.216-.412-.28-.19-.453-.088-1.31-.004-2.322-.173-1.379-.236-.669-.33-.31-.213-.184-.285-.02-.313.216-.399 1.128-1.039.281-.308.15-.375.02-.374-.09-.69-.5-1.163-1.715-2.72-1.14-1.523-.96-1.543-.68-.895-.583-.606-.718-.465-.688-.563-.574-.762-1.043-1.72-.703-1.134-.771-.902-.65-.57-.718-.346-1.126-.162-1.602.07-1.686.416-1.035.338M495.557 358.833l-.742.076-1.187.254-1.723.662-1.95.754-1.64.522-1.133.275-1.55.556-1.587.775-1.436.458-.801.254-.582.275-.439.36-.657.915-.733 1.184-.431.754-.642.613-3.16 2.896-2.07 1.938-.42.557-.257.539M448.182 392.253l2.653-.88 2.328-.769 2.094-.52 2.887-.748 2.433-.437 1.414-.472.733-.366.62-.444.748-.67 1.088-.732 1.058-.494.416-.303.234-.366.09-.444-.105-.5-.415-.423-.665-.557-.666-.613-.37-.725-.257-.783-.06-.86.21-.64.28-.395.666-.339 1.088-.408 1.996-.747.718-.212.695-.056.718.035.597-.091.642-.226.484-.38.287-.487.129-.45.007-.54-.075-.517-.22-.603-.245-.641M466.832 330.43l-.601 2.399-1.195 2.805-.12.683.06.747.121.733.325.747.544.641.302.543.106.507-.106.557-.438.74-.355.718-.136.684.106.987-.099 1.29-.28.711-.558.634-.431.529-.348.86-.272 1.106.008.465.158.613.386.387 1.103.874.733.459.9.253 1.262.183 1.458.085.824-.099.477-.211.392-.127.47.02.347.248.249.479.174.726.023.585.068.458.098.507.038.578-.076.676-.234.55-.318.31-.71.43-.847.373-.566.085-.62-.064-.748-.253-.583-.148-.581.05-.62.26-.695.81-.386.86-.574.958-.469.923-.181.74-.046.762-.211.676-.507 1.05-.12.67-.174 1-.242.67-.295.524-.006.088.021.077.066.071.178.065.697.048.707.148.317.155.336.145.333.098.4.025 1.146-.078 1.024.028.57.088.307.141.32.247.243.342.593 1.064.548 1.13.39.663.434.606.43.412.54.441M435.273 396.495l1.383-.211 1.059-.162.838-.254.65-.338 1.164-.754.816-.416 1.21-.507 1.572-.507 2.434-.55 1.783-.543" clip-path="url(#pb222846421)" style="fill:none;stroke:#000"/><path d="m439.226 385.475.106-.733.128-.275.23-.208.277-.127.257-.053.272.043.718.162.862.274 1.11.776 1.573 1.155.914.776 1.043 1.895 1.466 3.093M460.056 436.018l-1.444-.296-1.012-.261-.628-.338-.688-.43-.574-.416-.748-.31-.37-.07-.265-.1-.212-.231-.242-.515-.423-.986-.423-.966-.234-.98-.427-1.225-.654-1.251-.609-1.18-.143-.388-.072-.479.027-.363.166-.504.495-.588.567-.49.245-.306.084-.26-.02-.24-.113-.43-.121-.536.011-.281.035-.328.204-.613.068-.398.015-.38-.05-1.311.065-.818.008-.475-.19-.508-.245-.637-.053-.31.068-.286.19-.236.365-.285.136-.211.046-.205-.011-.24-.129-.264-.185-.172-.355-.092-1.073.021-.78.028-.536-.204-.612-.472-.56-.81-.317-.79-.241-.76-.257-.628-.454-.669-.763-.937-1.247-1.458-1.369-1.22-1.254-.866-1.3-.733-1.126-.67-1.096-.76-1.194-1.192-1.451-1.634-1.126-1.092-.152-.247-.06-.324-.023-.24.03-.613.023-1.064M466.832 330.43l-.578-.473-.358-.264-.327-.172-.313-.124-.892-.267-1.088-.269-.877-.43-.696-.606-1.813-2.071-1.731-2.009-.885-1.092-.324-.232-.197-.07-.174.034-.166.099-.143.24-.069.48-.007 1.803-.076.307-.207.221-.254.124-.393.032-.302-.067-.688-.413-.552-.282-.567-.049-.438.085-.423.296-.612.901-.877 1.572-.333.324-.393.219-.612.155-2.97.634-2.547.627-2.147.521-1.073.141-.695-.056-.567-.19-.491-.345-1.262-1.537-1.708-2.389-.855-1.113-.454-.409-.475-.218-.59-.24-.537-.437-.612-.31-.914-.127-.847.035-.77.156-.409.014-.423-.12-.574-.45-.379-.135-.408.056-.302.134-.604.5-.612.762-.537.577-.824.444-.438.106-.492-.014-.491-.162-1.49-.74-1.132-.902-.485-.373-.476-.19-1.027-.078-.87-.106-.846-.29-1.171-.718-1.172-.655-1.013-.331-1.572-.324-1.685-.31-1.134-.473-1.429-.937-.725-.374-.46-.042-.568.148-.68.318-1.587 1.036-1.096.774-.416.282-.476.142-.748.006-.665-.035-1.02-.127-1.943-.26-3.454-.092-3.749.007-1.708.155-.627.092-.635.246-.537.409-.658.74-1.337 1.283-1.421.965-1.096.613-1.83.698-1.503.543-.643.359-.521.458-.884 1.12-1.255 1.191-1.459 1.079-1.503.958-1.127.521-.612.134-.574.042-.968-.084-.718.05-.634.217-.795.459-1.73 1.029-.726.302-.778.149-1.769.134-1.821.014-1.346.063M371.552 340.235l-1.39-.416-1.263-.218-.756.028-.658.166-.494.066-.609-.077-.733-.243-.382-.243-.314-.36-.28-.67-.475-.724-.71-.783-1.006-.909-.915-.564-1.61-.641-.8-.465M484.219 341.651l.612 1.164.461.859.703 1.804.945 1.832.642 1.34.416.62.498.514.832.782.62.528.627.296.824.141.9.113.838.211 1.406.536 1.784.98.521.45.265.458.098.522.022.578-.075.493-.264.409-.537.592-.37.507-.212.437-.151.507-.067.509M482.496 338.424l.672 1.367 1.051 1.86M484.581 338.34l-.453 1.177-.06.493.03.616.121 1.025M466.832 330.43l.623.33.623.124.522.169.469.292.786.786.778.627.7.37.66.173.806.102.676-.052.412-.085.514.014.374.057.88.366 1.656.585 1.36.437.9.317.627.373.597.599.937 1.24.764 1.17M484.581 338.34l-.506.109-.46.08-.337.043-.454-.046-.328-.102M484.581 338.34l.484-.804.582-1.303.442-.67.375-.289.408-.25.506-.26.461-.075.295-.007.132-.024.106-.043.081-.08.063-.122.188-.516.3-.438.604-1.088M555.06 482.696l-1.33.113-.922.098-.552.127-.9.451-1.519.888-.884.564-.37.15-.348.022-.306-.081-.193-.176-.12-.303-.386-.775-.582-.662-1.406-1.24-2.237-2.206-2.215-2.416-1.277-1.296-.907-.515-.937-.493-.861-.085-1.203.17-1.065.288-1.36.796-.802.564-.544.408-.665.22-.673.267-.612.444-.249.282-.159.31-.075.627.128.74" clip-path="url(#pb222846421)" style="fill:none;stroke:#000"/><path d="m555.06 482.696-.861-.38-.862-.648-1.996-2.227-2.592-2.509-3.023-3.043-1.202-.909-1.035-.472-1.399-.366-1.836-.564-1.897-.641-1.006-.677-.695-.83-.612-.487-.672-.317-.696-.19-.915-.036-1.557-.19-.793-.176-.62-.338-1.481-.987-2.116-1.366-1.769-1.191M229.824 578.152l-1.924 2.773M287.971 587.096l-.998.169-1.118-.45-1.674-5.162M623.097 368.973l-3.235 3.073-.393.169-.181-.564-.03-2.086.12-.817.363-.79 1.753-3.016-.03-.31-.937-2.622-.332-2.226-.363-1.015-.393-.564-.726-.507-3.476-1.917-.726-.31-.846-.113-3.568.197-.816-.14-.544-.283-.423-.422-.423-.62-.394-1.1-.03-.79.363-2.536.453-1.635.787-1.071 2.085-2.284.847-1.127.514-.93.272-1.072.09-1.184-.06-1.07-.574-1.55-.242-.368-.333-.986-.09-.564-.03-1.043-.182-.902v-2.48l-.09-.62v-1.551l-.575-2.48-1.097-1.438M319.452 380.67l5.119 1.134 1.21.028 2.6-.07.71-.353 1.028-1.41.574-.732.68-.226.499.056 2.488.375M109.664 565.841l-2.015-.193-1.875-.873-1.088-2.085.362-1.297 4.172-5.918.333-2.254M200.77 567.28l-.623-.474-2.841-.479M348.344 591.435l-.665-1.465-.06-.986.302-1.38-.03-.762-.635-1.972-1.028-2.198.27-1.34M363.68 578.55l.163-.526M388.507 571.958l-.41-.101-1.826-.352-1.955-.241-3.888-.133-1.885-.063-1.158-.02-1.667.308-1.312.659-1.327 1.281-2.04 2.343-.66.882-.829.747-1.118.89-.649.335-.706.294-.884.086-1.08-.052-.836-.112-.598-.159M363.843 578.024l1.436-.41M363.843 578.024l-.339-.614" clip-path="url(#pb222846421)" style="fill:none;stroke:#000"/><path d="m391.169 568.338-.18.464-.299.41-.439.371-.658.52-1.086 1.855M398.137 574.349l.936.232M398.137 574.349l.631-1.252M399.073 574.581l-.644 1.807M461.065 566.59l.538.89.122.6.052.533-.469.373-.642.323-.817.178-.92-.08-.92-.518-.764-.389-1.025-.583-1.017-.505M491.456 567.294l-.116 1.593M517.111 584.987l-.28.045-1.118.094-1.457-.07-1.106-.235-1.155-.538-.606-.46" clip-path="url(#pb222846421)" style="fill:none;stroke:#000"/><path d="m517.111 584.987-1.236.752-.963.128-1.122.128-.71-.256-1.375-1.239-.316-.677" clip-path="url(#pb222846421)" style="fill:none;stroke:#000"/></g><g id="PatchCollection_1"><path d="m318.957 362.916.877 3.918 1.179-.254-.862-3.847zM324.573 355.198l.332-.014 1.542-7.004-.272-.057-.998 1.086-1.557 3.664z" clip-path="url(#pb222846421)" style="fill:green;fill-opacity:.8"/></g><path id="PatchCollection_2" d="m296.688 349.419-3.115-.808-1.47 4.925 3.115.808z" clip-path="url(#pb222846421)" style="fill:#90ee90;fill-opacity:.8"/><g id="PatchCollection_3"><path d="m349.321 310.819-.917-1.87-.511.219.43.88-.25.106-.433-.882-.527.226.927 1.888.525-.225-.394-.804.258-.11.387.788zM325.297 349.633l-.567 2.174.645.142.551-2.177-.084-.183-.317-.092zM333.752 382.107l-.26-2.021-2.226.249.134 1.038.435-.049-.072-.558 1.253-.14.198 1.542zM333.49 328.886l-.06.237.572.125.059-.238zM414.578 522.319l.418-.472-.316-.244-.3.34.12.091-.119.134zM318.939 566.08l.062-.138.266.104.144-.32-.637-.248-.206.456z" clip-path="url(#pb222846421)" style="fill:#a9a9a9;fill-opacity:.8"/></g></g></g><defs><clipPath id="pb222846421"><path d="M90 99.024h558v529.151H90z"/></clipPath></defs></svg>