<svg xmlns="http://www.w3.org/2000/svg" width="960" height="960" viewBox="0 0 720 720"><defs><style>*{stroke-linejoin:round;stroke-linecap:butt}</style></defs><g id="figure_1"><path id="patch_1" d="M0 720h720V0H0z" style="fill:#fff"/><g id="axes_1"><path id="patch_2" d="M90 588.974h558V138.226H90z" style="fill:#fff"/><g id="LineCollection_1"><path d="m338.225 289.155-2.117-1.52M334.804 296.752l-.175-.557-.17-.464-.192-.617-.15-.63-.148-.606-.081-.601-.029-.594.086-.447.248-.504.505-.703.601-.618.478-.398.534-.33.672-.215 1.242-.313M348.695 295.428l-1.135-.875-1.556-1.065-1.352-.862-1.597-.878-1.877-1.026-2.953-1.567M351.77 290.886l.085-.103.16-.19" clip-path="url(#pb25743f8b8)" style="fill:none;stroke:#000"/><path d="m350.247 287.879.448.154.448.203.537.496.506.61.17.276.042.236-.123.39-.26.35M352.014 290.594l2.882 2.129M459.3 302.73l.415-.524.946-.597.537-.333.343-.399.806-1.373.562-.992.545-.903 1.092-.983.537-.431.237-.293.17-.317.18-.553.212-1.422.081-.667.237-.252.252-.244.823-.675.48-.438.929-.513.562-.268.448-.098.513.017.191.04.18-.008.2-.077.321-.207.729-.326.66-.308.382-.212.391-.085.306-.045.26.02.306.094.627.463.623.415 1.108.447 1.844.594 1.043.247.863.314.453.138.733.093 1.018.139.676.223.598.122 1.08.39.688.102 1.222.524.716.252.505-.025.611-.113.473-.187.31-.236.333-.471.668-.618.83-.732.22-.252.107-.187v-.146l-.033-.204-.138-.284-.416-.667-.489-.634-.313-.3-.224-.334-.196-.191-.354-.122-.485-.093-.66.065M351.77 290.886l-3.075 4.542M351.77 290.886l2.821 2.192M351.77 290.886l-2.925-2.124M357.34 294.76l-2.444-2.037M357.34 294.76l-.243.37M363.169 298.377l-.933-.442-.719-.42-4.177-2.755M357.097 295.13l-2.826 4.553M357.097 295.13l3.942 2.61.929.528.987.47M354.591 293.078l.413.32 2.093 1.732M344.18 302.544l2.4-3.844 2.115-3.272M352.104 298.3l-2.865-2.36-.544-.512M371.701 302.13l1.865-.464.448-.122.245-.138.342-.17.26-.26.31-.229.31-.154.65-.13.889-.106.39-.09.367-.194.245-.285.3-.748.05-.398.146-.56.228-.75.147-.389v-.268l-.049-.245-.146-.219-.424-.235-.554-.058-.472-.17-.163-.195-.293-.204-.49-.024-.821.122-.522.334-.334.47-.423.424-.7.349-.767.313-.83.07-1.279-.021-1.181.089M371.701 302.13l-1.198-2.431-1.058-2.224M365.531 297.528l1.503.025 2.41-.078M334.804 296.752l-.896-.618M340.7 300.186l-3.24-1.934-2.656-1.5M333.62 299.077l.716-1.18.468-1.145M352.104 298.3l2.167 1.383M352.104 298.3l-4.333 6.585M364.566 298.78l-1.397-.403M364.566 298.78l-.17.431M368.174 302.901l-1.377-2.706-.35-.447-.293-.285-.464-.284-1.124-.4M362.955 298.738l.214-.361M362.955 298.738l1.44.473" clip-path="url(#pb25743f8b8)" style="fill:none;stroke:#000"/><path d="m359.508 303.235 2.028-2.298.888-1.36.53-.84M364.395 299.211l.986.285.334.178.464.35.505.903 1.076 2.173M357.594 302.008l-1.246-1-2.077-1.325M371.701 302.13l-3.527.771M470.81 279.627l-.847.032-.71.191-.972.293-1.06.362-1.241.488-.558.288-.505.35-.31.317-.265.41-.15.468-.134.581-.033.597.077 1.118-.093.387-.163.325-.147.179-.22.19-1.947 1.13-.944.537-.815.585-.546.553-.277.504-.602 1.488-.799 1.585-.456.78-.285.635-.472 1.544-.122.79-.033.698.18 1.252.08.732.155.992.18.495.22.472.472.57 1.05.731.783.455" clip-path="url(#pb25743f8b8)" style="fill:none;stroke:#000"/><path d="m424.872 303.987 1.014.33 1.29.068 1.165-.024 1.951-.004 2.081.102 1.548.133 1.612.098 2.147.045.492-.004.506-.102 1.058-.37 1.136-.613 1.447-.944 1.123-.694 1.071-.464.624-.195 1.331-.195 1.422.057.953.178.57.163.301.252.415.443.587.785.615.736.5.39.575.195.31-.004.313-.102 1.311-.796.468-.22.363-.118h.358l.57.17.824.415 1.27.667.456.097.456-.122.302-.26.146-.333v-.333l-.065-.374-.187-.31M344.18 302.544l-1.59 2.471M344.18 302.544l3.59 2.341M344.18 302.544l-3.48-2.358M357.594 302.008l1.914 1.227M352.804 308.088l1.679-2.113 1.286-1.427.741-1.012 1.084-1.528M362.16 305.497l-.55-.45-2.102-1.812M376.376 308.048l1.116-.764 1.36-1.017.953-1.22.627-.552 1.214-.772.798-.212 1.1-.057.888.172.863.43.79.406.497.195.383.057.505-.057.96-.065.775.05.782.202 1.726.708 1.393.634.92.065h.758l.888-.09 1.555-.146.758-.195.603-.35.456-.414.473-.504.895-1.138.636-.854.765-1.244.538-.65.97-1.057 1.017-.74.643-.284 1.084-.244.798-.04.725.138.855.106 2.118.414.806.195.57.203 1.458.626 1.474.797 2.005.846 1.313.51 1.549.282 1.157.187 1.89.447 2.089.935M422.933 313.795l.57-1.495.09-.635.016-.585.016-.43.098-.44.391-1.106.513-1.552.082-.504-.008-.31-.074-.438-.065-.39.025-.423.057-.463.228-1.037M347.77 304.885l5.034 3.203M346.72 316.21l.139-2.277.13-3.682.017-1.293.056-1.504.106-1.138.122-.56.163-.342.318-.529M342.59 305.015l-3.54-2.292M340.864 308.592l.334-1.154.636-1.154.757-1.269M336.904 305.987l2.146-3.264M336.812 318.527l.884-1.78.464-1.13.134-.4.102-.515v-.37l-.175-1.256-.057-.626-.004-.947.02-1.106.098-1.39v-.748l-.037-.236-.077-.297-.114-.231-.249-.354-.897-1.154M332.996 299.894l-.143.548-.04.444.04.358.175.463.355.556.35.444 3.17 3.28M366.797 306.39l1.87 3.6M363.67 307.346l.89-.12.234-.036.297-.04.342-.082.444-.195.464-.236.456-.247M367.76 303.1l-.743.428-.317.268-.175.203-.11.204-.07.337-.016.357.029.362.049.147.39.984M376.376 308.048l-.305.768M371.591 308.682l2.028-.736.383-.07.374-.003 2 .175M352.804 308.088l4.7 3.285M368.667 309.99l2.924-1.308M369.893 312.634l-.547-1.233-.68-1.41M357.504 311.373l2.468 1.3M353.717 316.34l.863-1.065 1.075-1.293 1.369-1.821.48-.788M369.893 312.634l1.279 2.34M373.291 310.945l-1.157.55-2.24 1.139M367.558 313.989l1.586-.823.75-.532M360.273 312.9l1.71 1.188M360.273 312.9l-.3-.226M359.402 316.25l.024-.715.066-.553.154-.585.318-.789.31-.707M367.558 313.989l1.439 2.23M367.558 313.989l-1.414-2.3M371.172 314.974l.264-.053M371.172 314.974l-2.175 1.244M366.74 320.815l.23-.937.095-.988.059-1.144.089-.276.171-.252.416-.3 1.197-.7" clip-path="url(#pb25743f8b8)" style="fill:none;stroke:#000"/><path d="m369.999 321.348.342-.277.22-.26.106-.293.04-.211-.057-.252-.187-.366-.507-.912-.96-2.559M239.41 301.58l.55.09.488.155 2.546 1.309 1.107.544.847.565.51.362.44.224.5.162.689.093.509.122.883.269.586.13 2.391.325.998.146 1.202.204 3.58.824 1.013.302.827.32.509.257.788.428.849.637 4 3.706.614.509.473.39.366.264.473.268.822.354 4.492 1.59 2.755 1.122.87.26.643.117.416-.04.374-.082.367-.187.627-.361 1.328-.96 1.112-.707 1.596-.906.656-.228.883-.215 1.376-.17.595.036.542.154.39.183.427.325 1.036 1.016.586.516.905.732 1.083.855.37.348.689.8.374.322.4.277.651.26.469.069.573-.012 1.344-.09.538-.004.338.024.387.098.53.228.545.288.628.289.468.138.382.061.33.012.403-.098 1.108-.406.607-.28 1.73-.866 1.589-.74.823-.28 1.555-.39 1.593-.436 1.283-.552.476-.236.607-.195.924-.143.534-.024.586.11.68.223.648.317.97.797.345.435.383.601.33.42.379.337.46.264.586.17 2.533.427 1.585.26 1.274.187.802.139.831.243.827.302 1.706.678.721.224.603.138.632.11.708.053.835.028.511-.04.488-.09.565-.227.647-.322.444-.288.525-.39.652-.508.379-.407.248-.345.237-.48.415-.89M332.181 316.722l1.984.374.676.195.338.13.55.248.338.19.745.668M372.5 330.956l-1.133-1.13-2.533-2.61-.578-.544-.48-.65-.44-.854-.31-.788-.163-.976M360.24 323.25l1.467.138 2.818-.081 1.662.081.676.016M366.74 320.815l.127 1.224-.004 1.365M340.7 300.186l-1.65 2.537M333.62 299.077l5.43 3.646M333.62 299.077l-.624.817M340.726 321.165l-.391-1.427-.122-.756.007-1.22.025-.918.098-1.805.147-1.788-.017-1.53V310.3l.146-1 .245-.708M346.72 316.21l-1.385-.098-.733-.105-.244-.155-.203-.309-.196-.415-.179-.772-.253-.731-.114-.252-.04-.456-.041-1.43.016-1.407-.008-.56-.082-.229-.179-.122-.26-.08-.652-.204-1.303-.293M374.3 335.468l1.783-.333 1.849-.48 3.592-.94M368.863 336.984l2.757-.776 2.68-.74M372.5 330.956l.366.554.578 1.186.473 1.48.382 1.292M375.753 339.834l-.313-.626-.35-1.17-.79-2.57M368.67 337.048l.193-.064M368.67 337.048l.276.162M365.731 338.105l1.262-.458 1.678-.599M366.977 334.957l.31.406 1.384 1.685M365.731 338.105l3.774 3.833M365.731 338.105l-1.222-1.206M371.382 339.846l-1.877 2.092M371.382 339.846l2.813 2.713M368.946 337.21l.906 1.022 1.53 1.614M375.753 339.834l.163.422.1.198M375.753 339.834l.554.422M376.132 344.405l-1.69 1.746-.143.101-.15.065-.102-.02-.605-.59-3.937-3.769M378.12 342.4l-1.988 2.005M378.12 342.4l1.054 1.162 1.593 1.613 1.087 1.236.884.874.953.772 1.238.866.549.454.407.542.392.71.358 1.066.501 1.264.7 1.382.628 1.435.509 1.049M376.016 340.454l1.187.998.916.947M374.195 342.56l1.82-2.106M374.195 342.56l1.937 1.845M359.972 312.674l-.415.902-.326.845-.163.61-.057 1.024M359.01 316.055l.392.195M359.01 316.055l.05 1.114.196 1.455M359.613 318.527l-.171-1.284-.04-.993M359.256 318.624l.357-.097M359.256 318.624l.162 1.374.187 1.293.172 1.975M360.24 323.25l-.072-.87-.236-1.69-.319-2.163M360.24 323.25l-.463.016" clip-path="url(#pb25743f8b8)" style="fill:none;stroke:#000"/><path d="m360.418 325.825-.185-.335-.049-.175-.02-.297.077-1.768M351.624 323.323l.52.13.758.155h1.45l1.377-.065 3.29-.253.758-.024M359.777 323.266l-.025 1.715.057.447.123.334.144.223M389.343 357.182l.53 1.293 2.867 5.495.863 1.788 1.613 2.602.92 1.366 1.149.96 2.24 1.78.659 1.032.245.727.537 1.963.521 1.598.542.906.843.927 1.278 1.049.465.463.456.48.35.666.13.667.01.634-.099.529-.155.544-.627 2.244-.22 2.308M406.602 396.52l-.855-2.373-.798-2.147-.317-.927-.131-.918-.04-.952" clip-path="url(#pb25743f8b8)" style="fill:none;stroke:#000"/><path d="m441.878 398.374-.643-.008-.566.032-.342.024-.346-.024-.326-.114-.473-.3-.855-.65-1.808-1.48-.929-.586-2.052-1.52-.823-.691-.928-.626-.603-.309-.7-.138-1.067-.154-.424-.155-.203-.162-.155-.261-.237-.398-.212-.155-.317-.065-.448-.04-.814.024-1.735.146h-.71l-.194-.065-.196-.13-.097-.146-.164-.284-.195-.22-.766-.536-.725-.456-.684-.284-.31-.05-.317.05-.39.13-.457.057-.636-.016-1.327.08-2.069.562-2.574.634-1.661.447-1.434.357-.708.098-.603-.073-.619-.13-.913-.398-1.099-.52-1.564-.668M392.161 462.953l-.658.398M393.159 463.96l-.436-.349-.562-.658M394.662 446.45l.944 3.074.546 1.982.212.78.195.83.172.887.024.78.016.772-.22.837-.57 1.545-.317.788-.57 1.285-.403.687-.77.845-.669.63-1.09.78M387.926 467.473l-.123.495-.35 2.325-.627 1.96M386.093 480.357l-.195-3.348-.008-.74.081-1.041.27-1.22.585-1.756M372.573 472.464l.92.602.245.081.244-.008.268-.155.196-.268.4-.813.276-.455.359-.35.602-.374 1.572-1.097.806-.602.163-.04.22.032.22.154.587.505.48.585.448.374.53.382 1.075.764.301.195.334.106.383.048.546-.056 1.148-.057.733-.098.318.05.375.105.504.178M385.653 497.648l.75-2.28.554-1.743.281-.907.06-.776.017-1.086-.053-.919-.139-1.422-.264-1.476-.363-2.3-.26-2.256-.143-2.126M364.9 484.105l1.727 1.366.619.536.814.545.416.17.505.066.456-.074.399-.162.765-.407.815-.634.782-.731.61-.35 1.01-.365 1.109-.334 1.034-.447.994-.439 1.865-1.09 1.262-.6.71-.464.642-.277.334-.105.644-.017.741.041 1.653.081 1.287-.057M383.67 503.619l.424-1.471 1.559-4.5" clip-path="url(#pb25743f8b8)" style="fill:none;stroke:#000"/><path d="m394.833 494.656-.22 1.626-.139 1.708-.065.154-.106.187-.22.081-.903-.016-1.841-.13-2.33-.179-3.356-.439M512.16 208.285l-1.67.3M470.81 279.627l2.549.203 2.22.399 1.111.48.554.17.424-.033.44-.235.309-.415.122-.325-.008-.44-.106-.463-.244-.471-1.051-1.268-1.637-1.7-1.36-1.26-1.36-1.503-.766-1.09-.326-.544-.09-.2-.08-.296-.015-.26.06-.52.178-.493.09-.418.077-.492.016-.638-.18-.744-.439-1.362-.53-1.658-.513-1.707-.17-.879-.098-1.308.033-.813.089-.342.155-.333.318-.285.399-.227.725-.155.965-.093.965-.04.602-.054.546-.276.75-.675.92-.829.806-.48.66-.268.465-.22.334-.227.187-.317.138-.423-.122-.504-.253-.358-.52-.26-1.051-.227-1.459-.277-1.514-.35-1.027-.406-1.083-.398-.668-.423-.317-.422-.204-.488-.065-.545.114-.723.358-.716.294-.439.464-.309.74-.114 1.304-.13 1.002.098 1.206.357 1.466.504.683.195h.342l.384-.081.456-.227.993-.927.75-.593.423-.44.285-.43.187-.542.542-2.226.599-1.76.552-.841 1.226-1.102 1.426-1.133 1.15-.627 2.806-.857 1.058-.567.536-.918.446-1.27.965-1.377 1.733-2.143.874-1.5.813-.964.996-.78 1.825-.766 1.211-.306 4.232.46 1.334.474 1.625 1.545.874.475 1.641.092 1.058-.689.644-.826.567-1.163.383-3.81.307-2.496-.169-1.699-.797-1.913.077-1.453.107-1.347-.639-3.509-.075-1.125.021-.52" clip-path="url(#pb25743f8b8)" style="fill:none;stroke:#000"/><path d="m546.948 219.386-.603.329-.222.054-.249.012-.199-.064-.216-.147-.156-.168-.134-.247-.7-1.943-.595-.638-1.464-.67-.38-.672-.531-.876-.76-.412-.877.13-.998.53-1.886 1.277-.661.162-.684-.184-2.385-1.244-.878-.368-.715.065-.359.282-.076.476.228.486.478.476.867.314 1.377.412 1.441.649 1.171.303 2.04.227 1.061.39.271.584-.054.66-.4.39-.51.336-.802.065-.684-.26-.78-.736-.727-.379-.64.01-1.626.52-1.746.163-1.116-.011-3.23-.303-2.7-.78-1.01-.097-4.466-.097-1.106-.325-.727-.52-.292-.594-.076-1.18-.347-1.72-.834-3.14-.727-.995-1.388-1.028-.802-.724-.618-.087-.586.206M571.775 214.552l.097-.21.16-.187.257-.198.262-.092.335-.057.343.05 2.051 1.017.482.088.78-.193 2.167-1.107 3.155-1.115 1.691-.238 1.247-.14 1.345-.455 2.722-.883M596.346 210.35l-1.656-.29-.845-.088-.998.174-3.198.584-.78.102" clip-path="url(#pb25743f8b8)" style="fill:none;stroke:#000"/><path d="m573.688 208.308 4.621 1.273.554 1.383.553.277 2.6-.138 2.215.304 2.684-.885 1.079-.166.875.476M596.346 210.35l8.362 1.473.856.292.781.487.727.704.488.422 1.626.465.52.336.38.573.065 1.212.163.67.477.77.943.454 1.583.032.921.076.401.227.554.454 1.127 1.873.672 2.132.748.465 1.02.119.694-.422.119-.476.022-.563-.347-.498-1.624-1.887-.147-.276-.085-.388.032-.283.068-.236.152-.232.252-.218.416-.211.342-.09.283.01.242.103.18.13.176.2.89 2.425.281.65 1.046 1.028.629.563.542 1.093-.162.628-.89 1.071-.357.758-.033.779.27.887 1.157 1.78.637 1.194.007 1.278-.207 1.17-.345.834-1.679 3-.413.596-.637.43-1.786.795-.744.413-.598.658-.744.865-.943.68-1.64.69-1.158.62-.675.45-.214.437.191.689.284.436.958.29.698.031.966-.237.95-.29.575.045 1.864.658" clip-path="url(#pb25743f8b8)" style="fill:none;stroke:#000"/><path d="m596.495 254.45 2.33.13 1.629.244 2.085.504.978.227.358.13.22.147.155.142.122.102.11.032.264.029 1.25-.065.334-.065.196-.118.183-.175.216-.175.188-.081.952-.159.367-.101.875-.456.237-.195.277-.219.81-.448.888-.317.313-.121.46-.211.534-.281.338-.244.415-.399.51-.605.244-.43.578-1.31.302-.601.146-.155.212-.065h.187l.35.155.522.333.195.057.26-.065.131-.179.432-.537.464-.87.48-.886.048-.175.01-.117-.025-.212-.13-.398-.24-.604M371.436 314.921l2.403-1.134.497-.138.175-.02.428.105.667.196.534.052.244.049.302.032.269-.097.415-.358M340.726 321.165l.366 1.11M341.092 322.274l-.277.309-.224.419-.285.59-.187.292-.224.26-.623.439-.542.406-.537.35-.437.244-.268-.004-.155-.11-.09-.211.009-.24.105-.162.16-.204.232-.248.737-.674.554-.61.562-.805.48-.472.644-.678M346.9 318.137l-.766.137-1.442.147-1.124.228-.798.48-.505.446-.668.83-.871.76M365.531 297.528l-.957.39-.693.186-.712.273M354.896 292.723l1.259-1.582M354.896 292.723l-.305.355M357.403 289.798l.272-.27.26-.146.579-.089.62-.138.284-.09.294-.26.765-.837.489-.512M376.026 293.536l-2.725.294-2.3.308-1.532.179-1.849.18-1.287.112-.488.074-.22.13-.294.268-.187.268-.073.497.04.43.107.504.122.366.191.382M368.174 302.901l-.414.199M325.002 296.874l.667.41.416.212.543.184.573.125.619.231.904.472.19.132.175.146.262.315.197.14.212.072 3.236.581M325.002 296.874l-1.495 1.751M327.36 294.854l-.526.264-.313.166-.273.187-.31.265-.936 1.138M333.908 296.134l-.607-.016-.472-.037-.623-.114-1.043-.35-.932-.28-.62-.098-1.266-.158-.985-.227M322.512 290.827l1.325 1.588.696.727.469.387.598.37.733.442 1.027.513M320.648 284.838l-3.608-2.817-.631-.618-.933-.922M283.808 251.54l.766.812 1.719 1.87 1.564 1.52.968.878 1.133.976.554.536.602.814.359.617.651 1.313.4.647.374.427.408.288 1.266.793.545.19.998.26.685.066 1.001-.057 1.17-.179.565.04.533.13.754.216.668.338.598.463 1.153 1.382 2.688 2.991 1.287 1.228.39.545.392.74.757 1.918.994 2.52.204.39.22.383.305.264.387.231.4.147.553.22.615.317.582.365.713.565.647.622 1.1 1.155" clip-path="url(#pb25743f8b8)" style="fill:none;stroke:#000"/><path d="m312.584 284.748 1.328-2.008 1.564-2.26M320.6 266.083l.692.545.394.374.208.37.163.483.228.513.253.304.391.476.786.841 1.148 1.427.436.74 1.037 2.052.502.899 1.238 2.658.257.415.456.618 2.374 3.341.974 1.228.199.362.236.459.411 1.064" clip-path="url(#pb25743f8b8)" style="fill:none;stroke:#000"/><path d="m336.108 287.634-1.094-.717-1.024-.693-.538-.382-.28-.256-.189-.334" clip-path="url(#pb25743f8b8)" style="fill:none;stroke:#000"/><path d="M335.897 280.07 335 281.88l-.432.78-1.585 2.593M339.373 282.472l-1.164 1.83-2.101 3.332M378.112 309.936l-2.041-1.12M373.291 310.945l1.204-.588.66-.382.268-.212.253-.35.395-.597M371.591 308.682l.737 1.032.963 1.23M371.436 314.921l.607 1.175.086.256.252.544.31.42.321.329.436.312.95.464 1.123.272.318.07.342.166.587.374 1.204.805 1.165.768.628.297.211.125.098.098.028.127.017.174-.076.254-.311.376-.375.44-.268.548-.127.288-.008.249.045.373.171.386.265.37.574.61M364.51 336.9l-1.296-1.265-1.515-1.508-1.303-1.317-2.34-2.243M368.717 334.114l2.382-1.116M371.1 332.998l.563 1.183M372.5 330.956l-1.56 1.008-.082.11-.04.126.02.183.261.615M351.624 323.323l-.904 2.963M353.717 316.34l-.424 1.682-.53 1.781-1.14 3.52M349.51 330.335l.257-.915M350.72 326.286l-.766 2.338M355.615 331.391l-.118-.154-.44-.496-.558-.565-.717-.78-.965-.744-.489-.492-.484-.752-.53-.675-.594-.447M356.752 332.317l-1.137-.926M353.135 335.732l.872-1.675.586-1.097 1.022-1.569M349.767 329.42l.187-.796M354.05 348.012l-2.76-.537-1.573-.284-1.192-.036-.151-.029-.114-.13-.105-.406-.425-2.72-.101-.54.06-.48.106-.264.114-.163.147-.118.275-.057.528-.012.17-.037.11-.073.16-.134.089-.183.04-.203.2-1.447.016-2.17-.008-1.025.188-.683.561-1.252.685-1.626.35-1.024.106-.699-.147-.707-.13-.537-.253-.34-.293-.188-.936-.488M354.05 348.012l-1.661 8.625M356.348 337.94l-.416 2-.203 1.211-.66 3.024-.387 1.049-.631 2.788M361.984 314.088l.823.723.798.74 1.629 2.821 1.01 1.561.496.882M361.984 314.088l4.16-2.399M363.67 307.346l.137.513.16.305.819 1.42 1.358 2.105M346.9 318.137l-.18-1.927M342.933 326.242l.61-.358.571-.464.627-.536.554-.65.586-.96.644-1.154.326-.902.155-.911-.107-2.17M353.717 316.34l-.823.577-.928.65-.244.106-.514.097-1.506.098-2.803.269M342.933 326.242l-.693 1.064-.122.561.078.598.052.768M341.757 332.483l.23-1.136.261-2.114" clip-path="url(#pb25743f8b8)" style="fill:none;stroke:#000"/><path d="m349.954 328.624-1.23-1.09-.33-.195-.29-.09h-.382l-.432.033-.684.154-.741.399-1.23.74-.709.438-.553.302-.373.036-.752-.118M320.648 284.838l2.163 1.658.647.537 1.894 1.642.912.748.412.358 1.233 1.3.925.882.949.842 1.405 1.146 1.861 1.476.86.707M362.16 305.497l.565.461.375.297.098.114.244.362.228.615M342.933 326.242l-.196-.253-.757-1.65-.473-1.032-.415-1.033M389.343 357.182l-.077-.52M389.343 357.182l-.37-.357M103.591 287.805l-.227.061M107.941 288.777l-2.36-.758-.387-.102-.426-.077-.372-.02-.805-.015M102.264 287.497l.552.103.775.205M115.669 290.744l-.976-.203-.857-.216-.96-.252-1.79-.487-3.145-.81" clip-path="url(#pb25743f8b8)" style="fill:none;stroke:#000"/><path d="m108.71 288.015-.289.298-.48.464M115.669 290.744l2.09.41.937.086.827.004 1.499.04.566.05.72.158 1.235.337 1.303.366.562.187.892.342M153.177 300.062l-.91-.261-.774-.118-.893.01-.602.095-1.234.285-.819.203-.545.114-.71.077-.476.057-.464.142-.375.236-1.563 1.418-1.08 1.06-.254.127-.236.003-.303-.124-.322-.334-1.814-3.015-.406-.464-.562-.61-.562-.533-1.967-1.601-.44-.22-.411-.105-1.356-.208-.579-.178-.33-.207-.81-.665-.266-.177-.282-.116-.399-.093-1.305-.063-1.389-.062-.379-.14-.2-.15-.207-.234-.444-.65-.3-.346-.6-.333-.31-.158M117.479 286.098l4.887 3.821 3.934 2.805M215.812 310.26l.604-1.01.468-.458.664-.35.697-.077.709.016 1.926.403.867.199.644.101.785.041.636-.009.725-.089 3.193-.349.68-.146.415-.106.3-.043.234-.01.228.08.311.281.642.647.464.398.44.22.668.223.627.064.417-.013.453-.08.362-.127.326-.212.274-.317.176-.388.085-.28.073-.443.025-.553.037-.594.045-.394.126-.382.411-.695 1.902-3.02.326-.419.342-.35.509-.292.334-.11.448-.036M283.808 251.54l-.863-.83-.896-.561-.986-.398-.708-.195-1.45-.26-1.034-.13-1.491-.147-.708.025-1.546.168-.751.072-.941.04-2.407.09-.236.04-.204.114-.28.215-1.89 1.398-1.067.874-.396.22-.289.106-.31.035-1.694.05-.496.073-.485.183-.619.284-1.336.704-.977.545-.855.658-1.531 1.724-.762.67-.349.169-.258.042-.48.041-.544.059-1.46.173-.782.17-.692.212-.628.415-.627.426-.378.322-.917 1.133-.697.78-.537.485-.452.366-.619.382-1.238.666-.643.464-.497.455-.343.48-.333.487-.66 1.505-.269.756-.277.788-.383 1.48-.33 1.093-.292.703-.494.765-.618.74-.872.87-.513.503-.611.813-1.05 1.618-1.109 1.878-.142.272-.057.248.029.337.089.44.11.438.024.468-.093.634-.098.74-.17.658-.07.354-.122.305-.1.205-.181.17-.065.129-.04.203.031.337-.028.28-.061.253-.167.443-.904 1.972-.574 1.45-.098.285-.066.366.005.443.174 2.162.021 3.106.061.435.118.366.212.264 1.531 1.199.273.333.188.435.162.362.103.357.052.41-.122 1.716.032.191.06.125.082.095.144.068.13.002.185-.013.23-.072.538-.323.24-.093.277.004.306.077.513.399M188.626 306.999l1.297-.713 5.365-2.872.468-.102.908-.065.95.012 1.246.025" clip-path="url(#pb25743f8b8)" style="fill:none;stroke:#000"/><path d="m213.877 311.025-2.12-1.888-3.86-3.28-1.89-1.642-.582-.374-.473-.228-.733-.179-.83-.057-1.377-.02-.86-.028-.94-.021-1.352-.024M192.482 257.128l-.203.403-.611 1.95-.26.63-.303.554-.252.366-1.348 1.423-.33.304-.338.26-.602.362-.424.35-.195.244-.176.313-.15.487-.676 3.256-.257 1.211-.069.5-.008.448.065.48.208.524.265.459.488.642 1.609 2.094.375.41.358.325.594.41.508.303.465.291.542.386.676.52.579.432.452.256.448.195.354.187.379.272.965.895.436.357.452.317.407.345.666.78.246.302.244.361.164.444.223 1.46.09.499.155.46.224.426.366.508.688.87.456.532.457.744.358.638.302.675.195.601.159.562.081.605.065.42.05.442v.553l-.046.394-.162.484-.302.662-.183.431-.126.395-.09.459-.15.565-.216.626-.697 1.683-.574 1.138-.167.406-.163.524-.167.488-.077.431-.045.358-.012.37-.057 1.699M213.877 311.025l.308.32.214.127.305.035.29-.075.341-.295.177-.202.3-.674M117.479 286.098l-.798-1.919-.13-.414-.066-.297.033-1.02.07-1.616-.05-.26-.118-.232-.118-.132-.22-.154-.476-.26-1.996-1.11M108.542 281.096l.201-.47.143-.19.232-.15.265-.139 1.784-.658 2.443-.805M107.354 285.911l1.357 2.104M108.71 288.015l2.127-1.82.321-.215.302-.162.203-.145.222-.215.77-.876.228-.187.242-.128.25-.053.271-.018.787.138.297.103.336.17.472.255 1.94 1.236M320.648 284.838l3.022-1.284M323.67 283.554l1.038-.598.285-.049.35.081 3.353 1.533M329.583 286.383l-2.545-1.078-.514-.178-.5-.163-.509-.216-.501-.276-1.344-.918M356.155 291.141l1.248-1.343M356.155 291.141l3.252 2.624M103.364 287.866l.867 1.512.253.508.28.805.061.321.045.337-.008.468-.094.68" clip-path="url(#pb25743f8b8)" style="fill:none;stroke:#000"/><path d="m115.08 293.56-.78.877-.788.722-.389.213-.436.163-.303.044-.28-.103-.481-.305-.62-.344-.317-.087-.526-.053-.566-.057-1.02-.073-.35.012-.344.065-.295.152-.365.186-.537.373-1.08.708-.19.036-.195-.018-.14-.043-.078-.115-.18-.753-.157-.762-.033-.406v-.358l.138-1.138M101.315 281.468l.216.566.114.394.11.516.175 1.187.192 1.268.16 1.11.03.236-.005.29-.043.462M101.315 281.468l-.265-.951-.305-1-.014-.297.028-.195.065-.176.294-.474.105-.108.155-.063.247-.006.722.04.253-.034.244-.092.192-.109.16-.146.52-.581M115.08 293.56l-.116.663-.081.441-.029.445.025.364.323 2.246.082.325.179.472.081.315.041.23-.038.197-.096.351-.388 1.344" clip-path="url(#pb25743f8b8)" style="fill:none;stroke:#000"/><path d="m115.669 290.744-.206.825-.143.667-.132.788-.109.536M368.863 336.984l-1.603-2.243M368.863 336.984l.083.226M360.418 325.825l-.342.16M367.26 334.74l-1.255-1.754-4.355-5.342-.696-.955-.536-.864M360.47 292.265l-3.067-2.467M100.859 578.103l.14.178.239.252.586.407.542.26.696.296 2.24.81M104.977 576.367l.024.297.163 1.166.142 1.32-.004 1.155M449.812 459.685l.122.13.578.768.375.423.656.512.859.577.428.39.13.212.045.179v.248l-.363 1.231-.31.89-.118.488-.073.484v.61l.191 1.044.029.776.033 1.118.081.577.134.378.224.468.155.365.074.317-.017.248-.036.513-.04.39" clip-path="url(#pb25743f8b8)" style="fill:none;stroke:#000"/><path d="m470.997 476.96-2.012.016-1.149-.049-.757-.228-1.001-.365-.554-.399-.718-.667-.447-.317-.432-.113-1.034-.009-.758-.015-.676-.131-2.158-.585-1.246-.545-1.23-.341-1.573-.26-2.284.069M445.063 477.699l.428-.423.155-.142.085-.134.077-.24.367-1.036.191-.42.216-.478.293-.277.628-.528.566-.342.668-.223 1.03-.244.754-.158.843-.025 1.604-.008M504.49 503.583l-.636-1.187-1.352-1.797-.685-.69-.83-.602-.847-.52-1.173-.57-.595-.195-.651-.105-.27-.106-.243-.22-.229-.268-.203-.276-.171-.431-.139-.537-.244-.552-.228-.513-.269-.723-.317-1.423-.188-.52-.18-.203-.251-.138-.408-.155-.863-.146-.44-.04-.383.064-.456.155-.26.162h-.26l-.327-.048-.293-.163-.281-.326-1.258-1.633-.897-1.293-.85-1.134-.445-.646-.28-.585-.412-1.07-.13-.174-.16-.146-.321-.204-.79-.358-.326-.235-.171-.187-.138-.268-.326-.732-.31-.415-.301-.268-.464-.227-.57-.122-.521-.065-.286-.098-.268-.195-.49-.618-.186-.22-.294-.162-.326-.09-.676-.13-.643-.146-.855-.496-1.442-.756-1.336-.601-4.349-1.277M505.344 465.546l-1.482.407-1.254.243-1.32.228-1.32.365-1.23.545-.724.204-.717.256-.892.601-.264.322-.416.69-.382.854-.11.476.02.67-.065.7-.391 1.04-.065.471.048.31.31.658.146.423-.024.357-.065.264-.253.338-2.012 1.577-.708.382-.7.105-.514.008-.57-.089-.635-.138-.725-.309-.562-.138-1.148-.187-1.45.016-.994.05-.538-.066-.447-.155-.473-.487-.358-.285-.652-.09-.676.253-.896.447-.586.065-.742-.081-1.205-.31-1.05-.47-.88-.342-.93-.098-.952.114-.562.252-1.547.577-1.385.39M445.063 477.699l-.627.44-.627.365-.725.285-1.165.487-.448.252-.203.269-.123.406-.252 1.683-.179.894-.155.374-.277.317-.26.236-.416.349-.782.513-.554.56-1.18 1.171-.824.61-.317.26-.44.243-.513.18-.334.235-.269.285-.293.374-.236.382-.285.374-.424.357-.488.325-.709.115-.537.072-.587.18-.603.267-.651.35-.579.13-.546.399-.863.82-1.58 1.423-.888.65-.716.431-.953.317-3.12.806-2.785.674-1.45.13-1.613.464-.88.187-1.214.178-3.429.415-2.085.106-2.166.154-.945.163-.628.227-.292.163-.253.357-.18.634-.292 1.732-.237 1.203-.582 1.528" clip-path="url(#pb25743f8b8)" style="fill:none;stroke:#000"/><path d="m424.766 523.385-1.76-.764-1.693-1.106-1.711-1.87-1.385-2.007-.554-1.162-.652-1.326-.488-.48-1.377-1.121-1.132-1.487-1.148-1.602-.97-1.415-2.875-2.292-1.547-.894-1.197-.52-2.648-.618-1.54-.362-.785-.159M383.67 503.619l.884.093 1.23.163.757-.016.652-.008.464.049.46.162 1.446.667.75.179.618.097.412.045.472-.094.574-.288.644-.354.656-.329.28-.077.51-.02 1.376.044.489-.04.72-.155.4-.069.379.012.554.102.65.154.55.086.868.093.839.085M383.129 518.296l-.098-.634.008-1.105.081-.268.151-.35.216-.403.395-.467.57-.63.383-.463.297-.57.057-.381-.085-.382-.187-.232-.25-.435-.435-.598-.542-.82-.252-.53-.139-.54-.081-.581.004-.528.061-1.76.06-.894.075-1.106.068-.39.184-.61M416.1 469.358l.447.578 1.393 2.179.31.414.301.26 1.06.659.911.39 1.247.837.382.236.432.122 1.092-.024.309-.025.289.037.469.125.138.017.236-.053.147-.073.456-.374.63-.67.18-.135.183-.085.29-.013 1.022-.15.317-.032.465.016.985.284.546.13.709-.016.88-.122.464-.007.781.105 1.63.382 2.141.659.75.21.774.326 1.352.553.651.21.546.18.896.187 1.28.146.61.106.586.284.676.488" clip-path="url(#pb25743f8b8)" style="fill:none;stroke:#000"/><path d="m416.1 469.358.344-.052.197.012.218.045 1.66.837.285.126.342.086.424-.037 1.8-.248.622-.073.383-.098.216-.175.623-.573.648-.361 1.034-.395.391-.069.415-.012.583.073.354-.037.399-.085.538-.102.28.009.375.085.224.053.188.024.26-.049.224-.077.245-.191.22-.142.224-.073.228-.016.973.101 1.027.13.581.073.485-.012M393.159 463.96l1.454.103 1.8.507.733.224.542.013.68-.127.533-.134.774-.094 1.218.118.766.057 1.054-.11.522-.052.435.06.709.282 1.112.462.309.098.346.016.363-.048.484-.102.367-.04.31.052 2.02.805.659.427.497.516.432.492.423.35.387.247.648.297 1.132.394 2.231.585M391.503 463.35l.699.456.245.139.309.04.403-.025M443.039 455.787l.574-1.837.175-.301.223-.204.734-.076.852-.021.33-.04.199-.127.18-.203.183-.618.63-2.84.933-3.252.228-.76.017-.216-.065-.146-.216-.29-.306-.32-.314-.273-.268-.32-.257-.517-.277-.223-.256-.114-.721-.175-.497-.195M448.52 457.742l-.24-.081-.354-.236-.22-.077-.415-.029-.375-.061-.191-.044-.139-.106-.435-.289-.725-.227-.894-.336-.202-.093-.254-.053-.283-.051-.754-.272" clip-path="url(#pb25743f8b8)" style="fill:none;stroke:#000"/><path d="m443.109 456.701-.098-.227-.033-.22.017-.215.044-.252M389.498 558.031l-.024-.593-.098-.837-.057-.48-.318-1.13-.342-.926-.114-.846.008-.772.073-.48.187-.447.604-1.162.928-1.797.236-.853-.025-.423v-.366l-.13-1.39-.3-2.804-.563-7.365.008-.635.31-1.154.969-2.658.432-1.415.17-.805.096-.772-.12-.569-.293-.596-.415-.582-.519-.487-4.523-2.432-.684-.48-.35-.414-.285-.43-.327-.651-.293-.756-.61-2.228" clip-path="url(#pb25743f8b8)" style="fill:none;stroke:#000"/><path d="m356.762 527.344 1.06.22 3.209.577 3.535.642 1.027.114 1.132-.008.855.008.724-.114.88-.285.546-.34.39-.35.758-1.44.75-1.86.317-.928.13-.56.025-.732-.048-.78-.196-1.147-.188-1.016-.162-.943-.033-.52.179-.472.61-.625.294-.147.294-.032 8.552 1.739.798.033.929-.082M383.698 557.113l-.382-.447-.725-.699-.815-.675-.643-.796-1.075-1.91-.163-.407-.073-.439.065-1.106.203-1.187.18-1.049.114-2.121M373.925 564.519l.016-2.341M369.698 562.503l.236-3.48.269-1.658.121-1.374-.089-.455-.236-.439-.497-.537-.954-.967M373.941 562.178l-4.243.325M383.698 557.113l-2.312-.772-1.654-.268-1.84-.025-3.002-.122h-.26l-.13.049-.103.126-.033.122-.024.321-.138.691-.196 1.512-.065 3.43M362.79 562.486l3.454.098 3.454-.08M383.698 557.113l5.8.918M388.736 567.867l.24-.641.22-.805.163-1.114.008-2.065.017-1.576.057-1.472.057-2.163M330.3 545.237l4.757.471M333.688 526.54l3.709.122M337.397 526.662l-.276 2.06M338.323 518.975l-.4 3.63-.526 4.057M352.943 521.532l1.01-.065 3.315.203.774.024.31-.024.228-.057.195-.138.09-.277-.025-2.088-.138-1.724-.192-1.894-.305-1.667-.31-1.674M352.943 521.532l-.17-3.3-.107-1.61-.473-3.991-.846-6.414M352.943 521.532l-.077 2.577M342.346 520.333l.513-4.134.51-4.267.639-4.707.31-3.171M342.346 520.333l-.95 7.473M349.71 522.743l-2.135-.659-3.363-.926-1.01-.407-.856-.418M338.323 518.975l1.967.545 2.056.813M338.649 551.235l.602-5.592.635-5.479.375-2.748.301-2.585.834-7.025M337.121 528.722l1.38-.313 1.638-.374 1.257-.23M349.524 526.092l-3.732.862-3.64.756-.756.096M356.762 527.344l-.529 3.504-.708 4.349-1.157 8.145-.52 3.471-.547 3.406" clip-path="url(#pb25743f8b8)" style="fill:none;stroke:#000"/><path d="m352.866 524.109 1.103.854 1.825 1.633.968.748M349.71 522.743l.558.171.924.28.827.398.847.517M315.33 516.102l-.4-.073-.782-.115-1.498-.122-.465-.145-.415-.18-.7-.621-.937-.968-.106-.223-.053-.238v-.19l.03-.23.642-1.692M315.989 516.231l-.66-.13M338.323 518.975l-.925-.297-2.504-.69-.766-.09-.537.049-.506.13-.415.227-1.393 1.203-.399.249-.366.056-.326-.048-.44-.11-2.435-.968-1.597-.503-2.109-.618-2.981-.724-1.458-.26-3.177-.35M279.557 537.615l.089-.302.061-.376.09-.529.122-.406.195-.435.229-.423.26-.405.318-.355.265-.252.17-.195.133-.187.145-.268.199-.37.26-.358 1.504-1.751.61-.513.582-.435.95-.524.63-.313.966-.443.656-.134.582-.069.839-.05.908-.072 1.25.028.782-.028.746-.07.557-.093.436-.142.436-.211.436-.301.378-.26.206-.117.204-.109.188-.104.144-.113.637-.848.281-.317.348-.362.458-.386.69-.477.437-.334.94-.853.86-.712 1.405-1.15 1.82-1.305.456-.264.587-.219.74-.114 1.158-.138.74-.098.762-.158.986-.378 1.726-.545 2.688-.943.648-.268.641-.315.898-.515M335.057 545.708l1.661-12.925.403-4.061M333.484 529.47l.848-.033.366-.077.562-.101 1.861-.537M335.057 545.708l-.196 3.203M349.71 522.743l-.106 1.829-.08 1.52M345.824 557.235l1.173-10.942.977-7.852.701-5.56.749-5.545.1-1.244M615.937 560.153l-1.522-.057-.766.041-.432.146-.88.39-2.875 1.26-.953.472-.7.48-3.128 2.6-.359.131-.399.025-.53-.057-.415.057-.61.284-1.401.895-1.206.634-1.14.251-.586.22-.79.471-.92.92-.946.503-1.833.731-.733.22h-.879l-.953-.105-1.547.089-1.621.195-1.751.43-2.338.554-1.564.016M585.157 564.69l.342.544.147.504.139.748.032.594-.09.544-.35.935-.342.666-.432.464-.618.666-.562.65-.456.383-.473.26-.334.3" clip-path="url(#pb25743f8b8)" style="fill:none;stroke:#000"/><path d="m622.918 559.527-1.116.033-3.877.049-.465.114-.513.203-.594.179-.416.048M619.806 557.382l-1.32.934-1.441 1-1.108.837M622.918 559.527l.35-.097.334-.163.293-.268.546-.658.122-.26.073-.326-.032-1.463.081-.528.432-.96.578-1.105 1.027-1.236.586-.723.342-.578.301-.634.163-.512.212-.934.016-.92.09-1.162.358-.983.318-.691M628.139 536.913l-.48 2.438-.151.63-.127.451v.35l.062.231.134.257.272.47.595.85.363.68.122.373.04.451.082.764.057.468M124.097 551.5l-2.383.41-1.629.18-1.18.089h-.644M114.555 555.292l.464-.667.285-.43.607-.711.729-.622.562-.354.546-.203.513-.126M108.584 570.745l.119-.308.122-.48.244-2.292.13-.736.285-1.386.119-.736.179-1.532.15-.89.225-.748.619-1.33.276-.442.408-.508 1.083-1.081.46-.565.42-.598 1.132-1.82M104.977 576.367l.06-.244.131-.313.513-.833.248-.496.33-.922.29-.692.166-.3.204-.232 1.413-1.273.252-.317M129.248 550.91l1.067-.101.819-.134.448-.167.395-.223.285-.256.62-.602.305-.146.305-.057.42.016 1.115.057 2.53.362.676.195.635.297.786.564.395.322.377.252.327.19.517.192.71.187 1.026.215 1.058.187.66.2.757.32.632.183 1.185.102.505.065.529.17.537.31 1.247 1.097.668.524.517.317.676.293 1.902.573.851.256 1.006.435 2.232.926.745.297.729.415.81.52.473.22.55.174.85.159 2.432.207.766.123.802.264 1.169.54 1.315.565.737.244.693.114.74.06.722.017 1.918-.065.594.081.432.195.611.366.912.732.464.394.701.817M180.13 552.573l-.146.22-.962 2.199-.154.43-.106.427-.04.695-.062.456-.175.755-.11.646-.053.574.04.508.078.512.057.406.029.382-.045.354-.118.443-1.23 2.89M463.34 276.546l2.134-.91.93-.098.602.146 1.059.634 1.457 1.415.742 1 .545.894M388.736 567.867l-.158.424-1.157 2.34-1.042 1.944-.237.544-.212.74-.09.56-.064.578M398.848 577.013l-1.523-.243-1.97-.367-1.833-.414-1.736-.268-1.808-.334-2.549-.341-1.653-.049M391.503 463.35l-1.117.676-.611.471-.59.598-.652 1.008-.453.882-.154.488" clip-path="url(#pb25743f8b8)" style="fill:none;stroke:#000"/><path d="m384.823 464.668.431.52.448.342.652.293.358.195.358.26.277.325.58.87M393.815 443.865l.244 1 .603 1.585M386.793 448.353l1.092-.553.636-.31.651-.227.815-.146.814-.211 1.124-.114 1.678-.147 1.06-.195M405.878 420.16l-1.491 1.187-1.14 1.032-.31.431-.268.423-.123.358-.073.455-.058 2.643v1.251l.017.536-.081.716-.147.472-.684 1.097-.676.845-.334.439-2.354 3.122-2.126 2.537-.578.74-.542.946-.696 1.532-.31.732-.179.537-.057.552.05.578.097.544" clip-path="url(#pb25743f8b8)" style="fill:none;stroke:#000"/><path d="m399.752 446.117-.74.057-.758-.016-.831-.163-.684-.227-.522-.269-.334-.292-.366-.456-.367-.423-.3-.17-.351-.13-.684-.163M406.602 396.52l.538 1.48.424.975.513.707.822 1.374 1.23 1.594.88 1.374.301.593.35.691.286.796.089.326.05.341.016 1.26.003 1.764-.07 1.358-.113.642-.228.618-.44.83-.525.893-1.088 1.643-1.311 2.032-1.083 1.227-1.368 1.122M350.1 406.243l-.505.455-.227.187-.31.155-.586.097-.58.17-.487.342-.204.317-.472.529-.375.308-.415.195-.579.237-.594.26-.277.146-.139.122-.065.186.057.196.155.138.643.537.57.422.554.195.692.098.628.049.708.187.497.178.4.212.341.341.27.277.512.366.782.43.725.302 1.165.317.814.194 1.116.05.831.227.195.243.579.65.48.497.334.236.97.471.7.268.896.171 1.01-.065.961-.106.831-.048.586-.147.4-.26.252-.284.317-.18.375-.08.554.008.733.048.497-.032.244-.122.318-.341.317-.447.229-.187.277-.098.374-.017.359.115 1.222 1.073 1.091 1.333.228.423.016.439-.13.877-.065.358v.455l.154.61.4.846.17.243.31.163.456.138 3.454.236.798.04.464.082.644.195 1.132.512.733.496.44.333.358.139.245.024.358-.098.733-.358.301-.211.228-.252.228-.366.334-.544.473-.472.333-.268 1.043-.399.986-.373 1.156-.269h.603l.798.098.359-.016.464-.122.676-.252 2.142-.716.753-.402.359-.167.578-.118.428.009.684.118 2.118.455 2.85.357 3.568.326 2.672.227" clip-path="url(#pb25743f8b8)" style="fill:none;stroke:#000"/><path d="m401.61 398.357 1.172-.569 1.23-.455 1.377-.422 1.213-.39M376.016 340.454l.29-.198M389.266 356.662l-.301-1.041-.436-.95-.497-1.074-.578-1.293-.559-1.516-.484-1.064-.44-.65-.525-.541-.831-.545-1.186-.858-1.307-1.248-1.156-1.264-1.308-1.378-1.209-1.268-1.11-1.048-1.032-.668M574.17 450.987l.18.812-.14.716-2.76 4.252-.734.812-1.319 2.853-1.05 1.496-2.118 1.683-.245.407-.22 1.13.065.812.44 1.732-.065.415-.22.43-.79.586-1.246.382-.293.423.195 1.154.155.634.985 1.902 1.01 1.528.139.342.008.357-.978 3.74-.586.935-4.647 3.365-.366.826-.2 1.32-.028 1.102.362 4.362-.39.837-.7 1.154-3.251 4.788-.913 1.244-.65 1.106-1.06 3.365-.61 2.804-.294.887-.83 1.236-.726.706-.92 1.066-1.018.934-.366.748-.098.634.057.448 1.116 3.357.252 1.593.252.57 1.28.78.912.39 1.596.983.472.545 1.662 1.122.448.983.253.821.073 1.635.147.634.244.545.871 1.174.46.918.457 1.691.37.59v.37l-.098.121-.42.062-1.714.097-.582.366-.159.41.127.268.859 1.11.138.383.058.536-.09 1.032.517 1.955-.07 2.83-.419 1.349-.053.373.342 2.68.391 1.186.929 1.724.896.991 2.158 1.334 1.262.666 1.165.967 2.395 1.715 1.605.65 1.881.586 3.3.626.911.317 4.235 2.211 1.206.96 2.183 2.056 1.67 1.17 1.734 1.806" clip-path="url(#pb25743f8b8)" style="fill:none;stroke:#000"/><path d="m581.37 549.602-1.686 1.268-.236.22-.114.243.008.26.236.594.269.39.489.48 1.091.862.489.479.276.309.229.463.52 1.008.702 1.3.83 1.359.693 1.064.122.245.049.324.016.496-.09 1.399-.106 2.325M562.857 440.89l.561.82.75.936.855.788.96.976.392.585.774.78 1.172 1.025 1.89.846.53.422 1.05 1.081 1.01.675.758.44.44.39.171.333M580.08 453.148l-.899.07-.706-.291-1.383-.54-2.255-1.3-.667-.1M637.27 453.198l-.832-.35-.871-.658-.798-.773-1.1-.942-.473-.749-.618-1.008-.424-.82-.415-.545-.09-.26-.163-.407-.863-1.39-.277-.488-.228-.634-.456-1.861-.122-.732-.05-.57.155-.861.116-.28.116-.24.029-.173-.002-.148-.022-.102-.13-.235-.27-.554-.252-.625-.334-1.691-.053-.468-.086-.223-.11-.204-.085-.292-.028-.26.065-1.07-.033-.483-.09-.345-.13-.338-.069-.22-.024-.405.024-.838.102-.65.02-.322-.036-.255-.106-.326-.11-.236-.253-.394-.379-.662-.207-.606-.118-.768-.082-.403-.15-.378-.155-.272-.497-.662-.79-.968-1.055-1.02-.986-.736-.415-.22-.293-.077-.53.017-.46.158-1.201.455-.884.139-.83.195-.827.126-.97.179-.61.126-.375.195-.249.211-.142.257-.195.37-.334.381-.249.386-.15.317.016.537-.07.415-.142.378-.387.524-.37.407-1.112.658-.204.162-.236.252-.314.72-.338.91-.362.951-.281.561-.558.78-.465.424-.57.37-.867.548-.737.191-1.14.167-.68.187-.92.288-.514.236-.489.293-.362.337-.277.467-.237.39-.146.171-.289.147-.31.142-.289.297-.183.243-1.849.622-2.15.553-.97.118" clip-path="url(#pb25743f8b8)" style="fill:none;stroke:#000"/><path d="m574.194 434.468.416-.114.504-.033 1.198.187 1.27.277 1.116.472.685.284 1.123.252 1.027.17 1.507.334 2.158.545 1.971.829.464.178 1.043.098 1.523.187.7.187.424.252.415.399.27.235.24.114.411.085.729.033 1.096.069.537-.073.949-.2.99-.276M599.257 433.76l-1.58.813-1.312.903-.578.626-.334.341-.204.44v.47l.123.334.203.268 1.385 1.004M562.857 440.89l1.205-.285.749-.398.978-.528 1.262-.496.562-.155.326-.195.326-.398.651-1.382.4-.715.456-.504.325-.163.668-.106.823-.024 1.002-.17.676-.342.928-.561M577.15 426.314l-.594.26-.546.09-1.302.073-.693.073-.48.203-.652.48-.342.44-.4.641-.293.715-.118.69-.004.126.074.142.07.077.11.069.26.083.48.13.334.293.22.276.285.504.44.91.415.944.049.203-.049.171-.22.56M505.344 465.546l.375-.244.48-.447.546-.748.432-.707.493-.862.448-.553.378-.272.738-.289.786-.219.952-.374 1.736-.48 1.01-.251 1.848-.456 1.735-.723 1.564-.667 1.947-.496 2.802-.699 1.767-.732 1.49-.699.758-.414.855-.692 1.263-.91.96-.878.979-1.138.838-.772 1.043-.634 1.19-.504 4.43-1 1.226-.313.912-.244.293-.13.281-.203.375-.387.399-.332.912-.513.905-.463.513-.293.765-.236 1.499-.276.733-.138.709-.203.496-.212 1.467-.747 1.409-.586 1.433-.26 1.205-.211 2.542-.943 1.49-.447 1.25-.33.872-.195.798-.094.648-.015.538-.025M619.806 557.382l.13.267.416.375.489.39 1.115.675.962.438M616.67 548.513l-.5-.062-.42.005-.44.04-.57.029-.668.028-.684.097-.774.18-.663.284-1.239.475-1.132.415-.733.244-.847.26-.33.175-.66.447-.484.423-.745.975-.554.83-.501.816-.395.744-.236.289-.758.667-.415.459-.2.333-.248.723-.204.362-.22.2-.48.243-.961.204M616.67 548.513v-.35l.057-.342.27-.658.447-.537.562-.52 1.075-1.186.416-.586.203-.341.147-.512.073-.61.009-.691-.229-1.285-.122-.845-.158-1.626.008-.536.085-.427.159-.358.293-.747.391-.94.375-.825.048-.52-.052-.28-.155-.366-.302-.342-.244-.17-.399-.179-.326-.155-.268-.162-.22-.268-.155-.431-.228-.691-.444-1.24-.265-.768-.163-1.033-.163-.34-.407-.359-.668-.569-.733-.455-.521-.26-.31-.358-.276-.927-.408-.78" clip-path="url(#pb25743f8b8)" style="fill:none;stroke:#000"/><path d="m619.806 557.382-.073-.383-.187-1.048-.383-.789-.929-2.422-.366-1.05-.074-.34-.032-.366-.171-.61-.277-.455-.375-.65-.269-.756M505.344 465.546l.84.951.977 1.098.66 1.04.586 1.024.643.886.603.886.237.269.529.35.496.317.432.382.48.52.726.991.66.951.782 1.602M389.266 356.662l-.293.163M548.163 370.673l-3.478-1.695-1.014-.862-1.454-.95-.904-.326-1.014.073-.314.07-.362.194-1.055.923-1.014.305-.672.113-3.539.895-1.926 1.142-.383.016-.546-.228-.635-.617-.449-.504-.333-.122-.595.024-1.344.48-.765.504-1.589.447-3.591.61-1.752.878-1.254.17-2.452.561-2.435.26-2.305.716-1.059.495-1.018.22-1.694-.317-1.344-.732-3.38-2.21-.84-.667-.724-.805-.277-.528-.138-.854-.277-.797-.302-.463-.39-.179-.816-.22-1.775-.17-2.158-.935-.391-.252-.782-.642-1.597-1.618-.936-.708-1.336-.495-4.732-1.39-1.564-1.024-1.124-.407-4.35-.862-2.508.057-2.403.39-1.63.585-4.072 2.683-1.348.667-5.933 1.78-1.145.236-2.671.227-2.558.744-2.073.407-1.026.203-2.688-.008-1.437-.093-2.664-.7-5.55-2.276-.742-.081-2.326.142-.7.057-1.657.56-2.668.891-1.022-.146-1.116.138-.595.366-.211.48-.546 1.658-1.14 1.625-.84.424-1.93.373-.52.244-.962.659-1.393.382-.505-.025-2.59-1.585-3.16-2.113-1.18-1.529-.539-.942-.781-.65-.652-.334-2.232-.879-.236-.227-.318-.634-.17-.862-.53-1.553-.008-1.08-.098-.269-.338-.204-.566.078-2.354 1.468-.37.072-1.092-.268-.57-.358-.391-.5-2.456-1.45-.729-.208-.676-.467-.493-.139-.627.065-.953.31-.994-.058-3.282-1.26-.448.009-.57.422-.375.663-.362.305M548.863 369.351l.961.115 3.258.593 1.043.13 1.002-.04 1.197-.277.823-.341.513-.342.733-.772 1.727-1.472.358-.121.505.073 2.362.715 1.303.732 1.01.528.823.09 1.507-.285.904-.337 2.138-1.581 1.861-1.667.864-.529 2.366-2.426.806-1.37 1.356-1.358.888-1.272.766-1.874.085-.679.285-.5.387-.235 1.356-.31.603-.158.093-.284-.309-1.784.11-.452.187-.26.513-.179 1.006.272 1.36.444 1.858-.037.765-.337.517-.447 3.043-3.813.505-1.18.407-.438 1.01-.736.99-.955 2.488-2.902.04-.37-.321-.756-.795-.662-1.836-1.114-.88-.992-.155-.443.11-.691.428-.711.623-.74 1.874-3.394 1.07-3.41.127-1 .826-3.061.232-.41.803-.647 1.116-.548 1.08-.318.528-.483.44-.675.098-.773-.171-1.6-.098-.521-.676-1.756-2.182-1.594-1.605-1.22-.685-.715-1.547-1.203-.814-.325-.53-.065-.635.098-1.442.731-1.311.334-.456.178h-.741l-1.377-.39h-.269l-1.955.7-.44.007-1.205-.47-.602-.31-.604-.471-1.498-.984M548.163 370.673l.489-.777.21-.545M538.454 350.849l-.082.919-.114.439-.016.293.004.26.053.231.078.321.003.228-.053.346-.126.394-.17.358-.09.276-.057.228-.05.178-.032.175.004.586.204.914v.256l-.008.386.02.581.008.09.058.077.11.102.158.045.143-.04.138-.123.53-.61.834-.845.294-.39.489-1.155.224-.74.117-.223.123-.163.13-.093.321-.159.147-.004.122.04.074.086.049.13.093.72.359 1.545.244.845.11.378.07 1.183.158.784.151.415.191.463.102.325.13.59.127.305.309.524.334.475.688.732.233.337.22.415.17.366.2.264.301.382.253.317.495.488.158.106.259.11.218.117.167.146.122.155.116.244.086.288.107.373.129.489.134.374.196.41.142.443M577.15 426.314l.457-.341.163-.382.025-.358-.188-.724-.04-.398-.009-.796-.008-.724-.049-.634v-.333l.122-.407.44-.87.13-.439.016-.455-.097-1.536-.065-1.382-.115-.911-.04-.382.057-.342.285-.634.994-1.3.709-.529.944-.463.945-.203 1.043-.293 1.091-.048 1.336.13.806-.058.652-.137.635-.31.35-.097.522-.114.236-.154.244-.293.163-.341.171-.578.074-.569-.114-1.309v-.812l.195-.83.228-.496.391-.39.22-.309.09-.357-.042-.561-.21-.675-.815-1.406-.318-.765-.155-.642.008-.617-.081-1.228-.269-1.065.049-1.09.04-.528-.17-.48-.579-1.21-.757-.846-.709-.61-.301-.39-.758-1.171-.839-.902-.944-1.382-.917-.788-.766-.622-.667-.423-.884-.2-.713-.198-.362-.147-.92-.472-.335-.17-.334-.313-.688-.639-.766-.853-.72-.78-.636-.63-.814-.635-.79-.406-.961-.43-1.344-1.066-1.572-1.26-1.861-1.293-.798-.426-.546-.2-.632-.073-1.702.208-.908.11-.855.06-.432-.044-.338-.086-.582-.195-.436-.065h-.464l-.44.053-.302.098-.358.22-.362.097-.37.036-.408-.045-.448-.13-.31-.17-.48-.284-.603-.358-.814-.602-.807-.593-1.596-.976-1.646-.91-.513-.39-.252-.318-.204-.43-.366-.52-.301-.31-.823-.597M591.034 424.912l-1.108 1.114-1.376 1.698-.367.435-.305.163-.285.09-.339.004-.199-.025-.224-.061-.143-.114-.284-.365-.53-.561-.472-.325-.497-.115h-.554l-.293.106-.35.31-.449.528-.3.227-.367.098h-.334l-.603-.147-.97-.178-.798-.106-.708-.146-.627-.325-1.401-.903M448.52 457.742l.208-.004.342-.025.212.013.265.085.24.17.118.114.037.236-.053.236-.04.195-.02.293-.026.366.009.264" clip-path="url(#pb25743f8b8)" style="fill:none;stroke:#000"/><path d="m448.52 457.742.192.5.175.358.29.483.293.33.342.272M350.1 406.243l1.23.52.717.277 1.002.252.627.121.587.017.561-.13 1.459-.423.626-.098.57.009.897.065 1.107-.009M317.252 412.56l2.247-1.228 1.923-1.146.297-.24.22-.252.122-.3.119-.716.21-1.805.038-.322.101-.195.2-.158.407-.118 2.888.147 1.67.048.822-.024.88-.13.798-.04 1.857-.107h1.084l.936.025.693.114.724.13.55.09.497.064.578.057.424.017.338.006.2-.086.187-.12.387-.167 1.12-.463 1.307-.642.716-.406.253-.163.122-.057.334.008.505.138.514.236.798.52.431.293.293.163.204.049.31-.115.455-.145.913-.172.366-.065.35.05.88.26 1.58.65M377.256 566.965l1.98-.438 1.042-.139.953.041 1.197.204 2.737.504 3.571.73M360.076 325.985l1.102 1.549 4.153 5.268 1.646 2.155M367.26 334.74l-.283.217M364.51 336.9l.435-.383.782-.634.863-.63.387-.296M360.273 308.576l1.886-3.08M157.94 302.283l-.657-.28-3.734-1.804-.372-.137M151.712 273.188l.566 1.325.33.65.204.334.273.37.33.289.277.264.238.307.179.32.214.531.037.204-.02.276-.066.338-.102.337-.212.439-.541.959-.326.727-.281.785-.192.797-.101.78-.061.642.02.61.3 1.756.124.404.165.362.166.317.224.32.503.52.212.26.167.244.102.235.055.245.018.2-.07.864-.158 3 .012.427.074.594.236.865.191.646.008.622-.077.663-.228.675-.354.674-.971 1.697M157.94 302.283l.394.167.855.326.693.2.619.12.696.058.77-.017.7.106.803.28 1.454.578 1.262.386 2.387.585 4.17.74 8.584 1.43 2.37.245 1.418.146h1.19l.969-.114 1.352-.52" clip-path="url(#pb25743f8b8)" style="fill:none;stroke:#000"/><path d="m184.606 313.998.118-.804.395-2.415.135-.532.195-.394.354-.509.306-.288 2.517-2.057M126.642 551.155l2.606-.246M126.642 551.155l.505-5.756M124.097 551.5l1.303-.223 1.242-.122M104.977 576.367l-4.118 1.736M192.482 257.128l-.489-.71-.244-.33-.24-.228-.411-.195-.355-.105-.586-.041-.643-.012-.75-.11-2.073-.273-.59-.053-.64.078-.423.09-.387.134-.322.199-.35.394-1.43 1.54-.26.237-.306.125-.325.017-.339-.07-.264-.093-.391-.232-.709-.594-.448-.276-.643-.373-.302-.245-.676-.564-.334-.24-.29-.153-.284-.095-1.494-.24M188.833 209.9l-.663-.11-.404-.15-.33-.216-.358-.353-.961-1.106-1.226-1.333-.594-.642-1.17-1.314-.476-.504-.403-.366-.676-.544-.627-.553-1.206-1.142-1.901-1.793-.253-.158-.29-.135-.353-.113-1.123-.252-.337-.047-.249.024-.316.083-1.132.399-.448.114-.375.044-.981.062-.5.02-.432.077-1.05.2-.364.02-.31-.09-.341-.167-.387-.3-1.222-1.045-.37-.183-.342-.093-.339-.013-.35.037-.314.094-.337.215-.346.321-.9 1.191M188.833 209.9l3.938.382 4.423.227 2.24.09.863.04.892-.004.742-.11.598-.048.472.028.493.114.587.203 2.272.915 2.64 1.004 1.744.67.585.23.627.194.57.105.737.057 1.792-.126.766-.036.7-.017 1.295.073.794.086 1.1.195 1.242.272.741.171.872.252.753.333.583.309.54.305.363.317.453.573.749 1.175.383.537.533.682.485.606.346.341.31.273.309.435 1.27 2.134.656 1.227.367.879.13.377.171.496.24.93.167.66.029.536-.037.366-.203.46-.277.463-.305.488-1.548 1.979-1.23 1.427-.249.337-.337.512-.514.844-.193.223-.249.173-.274.221-.249.263-1.059 1.28-.325.3-.412.302-.48.337-.359.33-.468.487-.416.504-.537.435-1.059.695-.574.516-.64.765-.321.406-.338.504-.192.403-.146.463-.098.418-.26 2.005-.583 2.975-.094.353-.085.289-.192.354-.248.35-1.035 1.048-.578.577-.981.895-.462.392-.363.288-.438.3-.362.23-.522.233-.68.223-.806.159-.806.154-1.556.366-2.606.756-.79.195-.66.106-.68.08-.493-.02-.574-.048-1.576-.093-5.991-.151-.57.061-.61.195-.555.305-.427.309-.24.35M248.878 539.457l-.048 1.17.024.448.134.56.204.63.257.752.114.431.056.305-.065.488-.016.252.033.219.097.183.45.482.115.192.104.222.058.18.013.152-.027.178-.071.181-.796 1.482-.153.304-.165.389-.122.278-.24.425-.08.173-.06.158-.109.433M269.098 538.075l-1.282-.655-.6-.207-.647-.122-.383-.02-.33.028-.37.098-.648.309-.476.337-1.248.904-.398.269-.657.449-.273.242-.296.329-.288.331-.163.207-.259.401-.266.366-.176.164-.277.163-.277.093-.407.106-.924.224-2.48.548-.408.155-.232.158-.15.215-.094.338-.037.337.025.358.277 1.126.126 1.024-.035.32-.067.292-.137.304-.189.36-.248.346-.314.32-.533.346-.558.322-.55.24-.631.194-2.146.444-1.487.286M191.147 546.626l.619-.016.598.02 1.41.195.623.05.586.02.684-.053.774-.082.782-.027.615-.017 5.335.082 6.825.068 1.038.045.864.094.986.15 2.121.382.737.102.908.122.994.15 4.313.967 1.542.248.47.128 1.14.474.538.203.554.158.7.18.533.1.758.05.664.122.774.182.916.204.704.093.636.037 3.922-.025.725.065 1.397.155 1.677.236.937.056.815.005.647-.041.717-.065.7-.138 1.047-.374.472-.146.513-.127.88-.158.867-.102.59-.069.791-.205M128.613 558.552l.635-7.643M124.097 551.5l1.022-5.418M266.427 545.984l-.053-.349-.077-.262-.119-.242-.207-.398-.25-.51-.567-.911-.206-.45-.087-.314-.033-.165-.014-.164.01-.11.033-.1.08-.114.793-.652.157-.159.136-.178.139-.222.224-.33.196-.184.227-.169.497-.28.332-.2.29-.178.231-.191.94-1.077" clip-path="url(#pb25743f8b8)" style="fill:none;stroke:#000"/><path d="m279.557 537.615-.233.252-.366.252-.513.305-.42.2-.733.24-3.09.898-.665.105-.578-.048-.509-.147-.558-.15-.892-.358-.509-.252-1.393-.837M268.92 549.52l-1.5-.06-.403-.053-.252-.126-.183-.232-.11-.313-.037-.447-.008-2.305" clip-path="url(#pb25743f8b8)" style="fill:none;stroke:#000"/><path d="m279.557 537.615-.204 1.866-.033.18-.122.202-.138.163-.208.138-.33.146-.192.126-.134.183-.085.26-.013.196-.032.434-.02.882-.005.394-.028.317-.063.413-.085.27-.11.238-.125.205-.263.266-.523.438-.928.617-.257.204-.342.178-.379.106-1.323.159-.469-.008-2.113-.374-.766-.07-.676-.02-.51.008-2.654.252M180.13 552.573l.216-.155.293-.125.436-.074.326-.11.44-.19 1.238-.57.387-.154.3-.156.333-.232 2.23-1.815.444-.342.541-.37 1.246-.885.395-.253.33-.198.37-.15.428-.094.432-.049.632-.025M243.446 491.84l-.685-.33-.957-.784-.395-.776-.908-2.447-.928-1.488-1.116-1.857-.42-.264-1.584-.31-.839.082-.513.317-.236.594-.041 2.267-.326.33-.57.085-1.311-.06-1.515.21-.472-.085-2.11-.545-3.18-.312-2.208.182-1.124-.296-2.9-1-.847.061-1.187.148-.503.46-.297.477-.066.437.025 1.014-.155.122-1.588.947-.469.586-1.099 2.261-.7.555-1.78 3.154-.448 1.02-.098 1.017.025.593.215 2.76-.248.614-.2.28-5.546 5.861-2.094 1.585-3.127 3.13-.379.89-.012.773.139.63-.155.662-.216 1.09-.086 1.475.073 2.398-.097.789-.245.837-.757 1.284-1.93 2.471-1.23 2.236-.326.943-.611 2.203-1.16 3.658-.037.48.146 2.248.318 1.768-.049 2.26-.342 2.8-.163.622-.655 1.674M168.36 538.522l1.69.915.44.414.253.439.18.471.122.464.016.402-.053.246-.072.22-.117.158-.334.246-.26.189-.176.193-.175.228-.055.189-.06.315.005.28.046.258.15.28.17.22.312.262.647.431 1.597.834.684.353 2.06.76.697.321.558.341.534.447.313.367 1.21 1.588.374.582 1.014 1.638M289.216 224.81l-.065-2.862-1.824-2.602-2.02-4.488-1.043-4.877 1.695-5.203-.848-2.341-2.867-1.887h-4.952l-4.235-1.69-3.128.26-2.15-1.43-4.497-1.887-4.104.065-3.519-1.04-2.671-2.472-6.06-2.211-1.825-1.366-6.647-1.691-7.102.585-7.037-2.731-3.063-.326-9.187.52-1.955 1.562-3.063-.39-2.215.65-2.932-.26-4.561-1.366-5.018 2.471-.456 1.106.13 2.081-2.932 2.276-.26.976.13 3.252.195 3.447 1.564 2.927-1.499 3.251-.362 2.78M286.007 470.513l1.27 2.3.246.708.195.789.211.771.277.92.701 1.966.098.342.069.398.025.44-.062 2.397-.268 1.817-.025.407.037.362.101.487.217.574 1.429 3.036 1.148 2.267 1.809 3.593 1.197 2.31M315.33 516.102l-.4-5.325-1.254-9.487-.138-.699-.277-.642-.367-.504-.872-.821-1.461-1.658-.53-.55-.599-.47-1.478-.968-.44-.224-.464-.15-.395-.065-.326.061-.436.166-.419.289-1.336 1.016-.64.362-.561.175-.595.065-.48-.024-.534-.11-1.16-.52-.624-.35-.676-.423-.814-.402-.717-.073-.578.065-.48.211-1.597 1.35" clip-path="url(#pb25743f8b8)" style="fill:none;stroke:#000"/><path d="m250.25 492.763 3.52.471 2.141.43 1.475.4.378.183.396.251.317.366.631.866.444.414.387.411.31.211.44.179.488.11.302.077.297.13.342.223.798.684.469.248.382.158.408.13.421.13.334.217.348.358.35.417.359.703.31.557.44.447.39.313.334.33.212.276.183.475.187.407.811 1.37.13.21.229.204.305.207.273.045.44.029 1.58-.167.635-.045.652.025 1.132.146 1.115.211 1.85.28h.912l.96-.13 1.589-.438.92-.382.742-.407 2.492-1.593 1.498-.87 2.07-1.248.903-.63 1.915-1.406.855-.634.757-.553.864-.586 1.01-.576M243.446 491.84l.158-5.182M250.25 492.763l-1.856-.17-1.28-.224-.834-.172-.672-.073-1.43-.1-.732-.184M250.593 503.217l-.326-3.602M250.267 499.615l-1.116-.008-1.751-.154-2.142-.35-1.674-.32-.676-.107-.338.005-.285.118-.175.13-.37.374-.55.622-.233.333-.216.37-.268.288-.35.252-.74.484-.193.199-.165.191-.13.183-.114.187M250.267 499.615l-.016-6.852M289.216 224.81l-.195 7.869-.912 1.235-2.41 1.757-2.216 1.885-2.086 3.708-.521 2.73.782 3.188 2.15 4.357M176.815 316.567l.118-1.004.094-.207.138-.179 1.027-.675.269-.146.26-.073.273-.045h.367l.285.033.21.087.313.197.187.055.238.02.29-.012 3.722-.62M510.49 208.585l-1.72.17-5.112-2.221-5.408 1.04-8.894-4.13-2.737-.617-.228-1.626-.163-2.602-3.095-3.089-9.774-3.35-.391-1.69 4.105-.65-.456-.781-3.78-.846-3.258.195-4.56-1.43-2.868-1.04-1.433-2.277-.456-4.618-6.125-6.373-3.845-.65-5.8-2.992-3.388-4.943-2.671-2.082-.586-3.187-5.93-7.544-4.105-2.992h-2.867l-4.17-1.365-9.71 4.617-2.932-.715-2.41.65-1.564-.065-.522.78h-1.89l-2.475.456-1.369.975-1.889.391-3.78 1.3-5.799 1.041-2.932.065-2.215-.91-3.193-.586-2.411 2.342-6.125-1.301-5.995-.13-8.601 1.106-4.496 6.373-7.298-1.951-2.737 1.496-4.43.26-5.474 5.528-1.629 3.902 1.759 1.822-1.629 2.081-.782 3.772 2.15 5.983-2.15 7.74 2.085 5.658-7.819 4.812-5.669.131-1.694 1.496-4.3.13-5.18 6.015.911 2.96-2.052 6.438 1.01 2.862.13 1.724-1.173 1.105-1.726 1.756-2.64.553-1.79-6.081-1.272-1.886-1.075.13-.554 1.431-2.834 1.886-3.389-.228M546.948 219.386l2.094 1.489 2.542 2.86 10.165 3.09 3.225 1.691.065 3.772-.39 1.984.618 1.496 1.238.975 1.14 1.594 3.454 1.3 1.434.52h1.857l1.792.456M571.775 214.552l-.027.183.023.241.096.26.21.237.284.23.716.387 2.84.536 3.041-.111 1.653.005 1.741.016 1.182-.368.9-.617.482-.191.379.007.338.133.304.305.165.444-.054.446-.164.361-.213.237-.35.2-1.055.09-1.432.079-2.987.178-1.41.216-2.623.855-1.062-.01-1.345-.38-1.29-.043-2.288.465-.932-.119-.998-.238-1.04-.735-.846-.087-1.886.476-.9.011-.792-.14-2.992-.65-1.267.104-.85.147-.459.229-.27.308-.096.416.092.436.173.295.275.23.373.09.531-.04.52-.174 1.693-.626.418.04.46.142 1.255.843.981.518.998.221.607-.01.395.07.224.164.08.279-.051.22-.146.205-.289.186-.353.058-.586-.06-1.562-.454-1.016-.492-1-.469-1.608.046-1.03.411-1.127.725-.63.173-.899.054-1.94-.162-1.063-.508-.325-.736-.9-1.364-.716-.422-.856-.195-.954.076-.857.39-.72.561M563.81 209.276l-.028 2.518.139 1.135.885.609 2.629-.056 1.466.416 2.874.654" clip-path="url(#pb25743f8b8)" style="fill:none;stroke:#000"/><path d="m531.394 183.336-.774-.042-.816.512-.872-.028-3.003-.83-.843.401-.886 1.01-1.84.9-1.55-.332-2.352-.083-3.126-.222-1.744-.332-1.66-.276-1.411.193-3.016 1.135-1.162.968-1.467 1.743-.802 1.052-.526 1.384-.747.774.665.554 1.936.387 1.08.941-.028.968-.886.996-2.324 1.771-.11 1.992.332 1.854 1.217 2.408 3.154 3.79.816.872 1.84.789M531.394 183.336v-2.463l.485-1.314" clip-path="url(#pb25743f8b8)" style="fill:none;stroke:#000"/><path d="m540.877 178.475-1.292.297-.221.164-.39.76-.182 2.134.05.164.422.498.036.308-.2.263-5.989.939-1.094-.113-.623-.553M563.81 209.276l.11-3.099.388-1.577.028-1.3-.526-.775-2.74-2.103-1.327-2.463-1.771-1.383-1.771-.553-1.55-1.743-2.075-2.187-2.297-1.55-5.454-2.226-.246-.493.12-.484 1.78-1.05.15-.383-.259-.967.032-.366.391-1.142-.065-.472-1.25-1.368-1.946-1.137-2.262-1.945-.393-.035M538.8 175.67l.164 1.577.123.328.277.308 1.513.592M563.81 209.276l.498-.36 1.66-2.933.636-1.078.5-1.577v-1.771l.22-1.965.609-.692 1.715-.36 1.771.056 2.546.553M596.346 210.35l2.107-1.157 1.633.028 1.328-.249 1.051-.332.61-.775 2.96-5.561 2.158-.028" clip-path="url(#pb25743f8b8)" style="fill:none;stroke:#000"/></g><g id="PatchCollection_1"><path d="m399.28 444.58.872 1.984.977 1.333.578 2.032.79.83 1.059.341 3.454-.536 4.105.975 2.134.472 1.27 1.203 1.776 1.203 1.385.488 1.726.049 1.645-1.073.93.39 1.384-.423 1.01-1.17.88.146 1.238-.098.765.618.212.943-.39.585-2.184.017-.945.617.513.797-.904.342-.065.747.44.96.505.552 2.41-.244v-1.105l.799.13 2.134 1.35 2.313.455 1.646-.31 1.319.26.757 1.025.628 1.48.993.244 1.06-.293.52-.748.766-.276.521-2.878.554-2.862.953-1.675.676-.78 3.136-.048 1.923-7.105-2.778-1.561-2.558-.878-1.237-1.43-2.135-.977-2.175-2.699-.089-2.064.945-1.74.798-.553-.114-1.658-.448-2.114.252-2.276.807-2.731-.807-1.431-2.125-.52-2.24.439-2.232-.7-1.336-1.463-2.37-.211-3.918.65-.96 1.447-1.19.618-1.116 1.04-.236 1.691-2.044 1.756-1.312.78-.773 1.512.252.635.766.667.757 2.113-.644 1.252-1.107.83-1.173.032-1.474-1.025-.48.358-.408 1.106-1.613.553-1.238-.017-.798-.634-.757.162-.742 1.09-1.612.05-1.841.096-1.898.715-3.6 2.017-.61 1.561.243 1.544zM326.556 325.761l.702-1.829.489-.076.503-.869-.793-.518-.993-.335-1.115-.137-.977-.077-.962.305-1.267.031-2.687-.244-.413-.29-1.374-.305-.947-.198-.931.214-.23.244-.076.625.275.198.168.732.473.624.627.046.457.564 1.42-.198.596.228.672-.152.641.259 1.74-.168.948.442.35.594 1.208.062.534-.137z" clip-path="url(#pb25743f8b8)" style="fill:#00f;fill-opacity:.8"/></g><g id="PatchCollection_2"><path d="m361.18 307.391 1.733.759-.568.837-.975-.098-.803-.012-.264-.094zM358.299 311.111l.306.193.778.123.542-.234 1.519-1.134.827-.949-2.53-.074zM368.106 314.043l1.025 1.872 1.797-.98-1.025-1.872zM359.675 311.6l1.684 1.14.505-.458-.309-2.083zM363.7 306.444l.543.16.765-.037 1.087-.27.345-.186-.357-1.133-1.321-.308z" clip-path="url(#pb25743f8b8)" style="fill:green;fill-opacity:.8"/></g><path id="PatchCollection_3" d="m338.07 290.538-2.424 3.827 3.172 2.003 2.425-3.828z" clip-path="url(#pb25743f8b8)" style="fill:#90ee90;fill-opacity:.8"/><g id="PatchCollection_4"><path d="m346.503 299.742.702-1.142.843.516-.702 1.142zM337.566 301.349l.407-.575.546.385-.407.575zM339.24 287.951l.185-.333.389.215-.186.333zM364.088 313.065l.962-.604.368.584-.961.604zM353.894 307.707l.558-.883.976.614-.558.883zM348.862 297.393l.51-.72.37.262-.509.72zM356.195 305.164l.908-1.426.46.292-.91 1.426zM344.618 294.407l.365-.515.67.472-.366.516zM350.126 295.97l.453-.64.535.378-.453.64zM376.96 318.874l.483-.681.338.238-.483.681zM371.553 315.197l.453.927-.468.228-.453-.927zM369.985 327.95l.37-.524.294.207-.37.523zM348.819 300.357l-.896-.571.442-.692.896.571zM341.325 300.023l.39-.552.357.251-.39.552zM338.495 301.823l.416-.587.318.224-.416.587zM370.125 321.741l1.382-.841.423.693-1.382.841zM349.769 297.846l-.337-.238.511-.721.337.237zM343.873 310.198l-.013-.4.975-.031.013.399zM355.05 308.43l.494-.783 1.946 1.225-.494.782zM350.654 296.595l.644-.908.574.405-.644.908zM346.627 293.54l.363-.514.358.253-.364.513zM371.831 318.83l.81-.333.274.66-.81.334zM367.458 322.873l-.029-.396.756-.054.028.396zM339.708 289.815l-.293-.155.403-.76.294.154zM358.408 303.644l.355-.5.31.218-.355.501zM341.054 303.73l.43-.607.506.356-.43.608zM351.67 300.27l.843-1.19.9.634-.843 1.192zM344.262 293.836l.25-.451.383.212-.25.45zM370.05 316.029l.407-.18.626 1.423-.408.179zM375.136 319.197l.648-.398.364.59-.648.398zM339.564 300.907l.577-.815.406.287-.577.814zM349.286 295.504l.446-.63.694.49-.446.63z" clip-path="url(#pb25743f8b8)" style="fill:#a9a9a9;fill-opacity:.8"/><path d="m357.571 308.563.84-1.098 1.501 1.056-1.852 2.557-1.13-.991.962-1.235zM368.517 308.717l.863-.45.396.757-.863.449zM363.527 300.042l.212-.588.977.35-.211.589zM363.973 319.376l1.314-.167.072.566-1.313.167zM367.996 306.097l.439-.205.443.945-.439.205zM371.79 307.602l.336-.869.433.167-.336.869zM374.713 334.076l.237.892 1.692-.448-.236-.891zM361.758 307.152l.758.386.508-1.291-.27-.185-.434-.128z" clip-path="url(#pb25743f8b8)" style="fill:#a9a9a9;fill-opacity:.8"/></g></g></g><defs><clipPath id="pb25743f8b8"><path d="M90 138.226h558v450.747H90z"/></clipPath></defs></svg>