<svg xmlns="http://www.w3.org/2000/svg" width="960" height="960" viewBox="0 0 720 720"><defs><style>*{stroke-linejoin:round;stroke-linecap:butt}</style></defs><g id="figure_1"><path id="patch_1" d="M0 720h720V0H0z" style="fill:#fff"/><g id="axes_1"><path id="patch_2" d="M90 634.307h558V92.893H90z" style="fill:#fff"/><g id="LineCollection_1"><path d="m424.028 369.612 2.044 9.36M424.028 369.612l-.015-.86.011-.39.061-.278.158-.371.25-.508.28-.565" clip-path="url(#pcf38824693)" style="fill:none;stroke:#000"/><path d="m422.848 366.714.436.665.335.757.41 1.476M428.433 390.612l-.275-1.157-.516-2.315-1.57-8.168M434.098 374.729l-.706.548-.491.346-.69.36-.584.26-.798.354-1.749.944-3.008 1.43M431.234 397.49l6.063 9.52M428.433 390.612l.199.834.688 1.981.946 2.214.968 1.85" clip-path="url(#pcf38824693)" style="fill:none;stroke:#000"/><path d="m403.543 400.907 5.91-.839 13.295-1.573 8.486-1.004M440.304 397.392l-.153-.296-.2-.252-.184-.16-.368-.136-.414-.058-.86.072-2.4.36-4.49.569M437.297 407.01l1.184 2.023M465.492 399.865l-3.437 1.182-1.704.591-2.854.938-3.176 1.168-1.688.527-2.064.598-1.097.375-.898.223-.905.224-.859.122-.936.152-2.14.346-1.972.202-1.182.137-.605.015h-.507l-.414-.036-.261-.011-.223.047-.26.072-.33.115-.683.159M438.48 409.033l5.295 8.695 2.151 3.416.85 1.76.634 1.617M449.218 441.493l-.291-1.264-.236-2.113-.69-10.684-.225-1.435-.366-1.476M468.269 436.262l-.568-1.643-.384-1.529-.552-1.485-.598-1.485-.568-1.169-.445-.865-.4-.692-.659-.85-.966-.88-1.504-1.067-1.12-.722-1.412-.533-1.212-.202-1.427.13-9.044 1.25M449.218 441.493l.107.464.72 2.032 1.657 4.528 3.442 9.39.387 1.193.387 1.435.215 1.618.13 1.698.01 1.607-.108 1.334-.269 1.658-.397 1.64M447.77 489.302l.391-.976 6.122-15.075.818-2.143.398-1.018M427.116 473.178l4.65-.649 4.234-.505 1.933-.259 5.985-.678 6.091-.49 5.49-.507M409.378 585.487l1.332-3.52M400.146 608.125l.156-.305.2-.382.897-1.748.422-.948.913-2.177 1.841-4.477.69-1.816 1.106-2.913 1.411-3.85 1.596-4.022M444.977 592.895l-8.578-2.045-6.429-1.513-5.171-1.082-12.26-2.061-3.161-.707M125.34 103.305l3.01.088M130.084 108.355l2.378 6.636 1.274 3.217.353 1.208.107.17.185.072.195-.015 3.03-.331 11.505-.981 3.406-.321M136.014 105.655l.499.318 3.061 1.995 2.323 1.49 3.746 2.598 3.463 2.84 2.414 2.1.997 1.014" clip-path="url(#pcf38824693)" style="fill:none;stroke:#000"/><path d="m174.753 152.009-.095-.169-6.666-11.244-.927-1.603-4.582-7.922-1.327-2.138-2.005-3.088-1.693-2.364-1.803-2.294-3.138-3.177M597.312 256.814l.156.844M597.312 256.814l-51.747 25.076M592.764 236.487l2.002 8.454 2.01 9 .536 2.873M592.764 236.487l-2.402.954-1.473.591-1.596.837-1.933 1.068-1.166.663-.645.462-.613.692-.415.765-.66 1.024-.598.59-.698.55-.591.41-.682.288-.5.253-.843.519-.921.707-1.366 1.024-1.948 1.616-1.596 1.24-1.964 1.63-4.097 3.072-3.069 2.365-2.424 1.73-1.903 1.27-4.833 2.394-3.56 1.688-2.555 1.298-.782.382-.745.346-.866.39-.553.238-1.235.483-.53.245-.49.231-.123.144-.038.152.045.122.154.31.26.75.077.592.108.822-.031.822-.077 1.14-.015.98.123.707.292 1.024.322.62.46.98.414.895.369.721.306.98.2.737.207.89M445.226 329.617l25.527-12.253 24.29-11.636 10.082-4.8 19.629-9.29 20.81-9.748M242.25 291.535l3.537-.13 6.452-.237 6.92-.419.514.015.851.158.952.188.836.05 1.427-.173 2.939-.576M174.753 152.009l3.374 6.042 11.48 19.175 15.326 25.785 3.66 6.375 4.146 7.007 15.667 26.428 8.532 14.514 12.988 21.964 1.975 3.407 1.773 2.233 2.063 1.97 2.755 1.804 2.8 1.1 2.754.535 2.632.063M317.994 311.743l-2.445-1.746-2.627-1.84-7.349-3.729-11.962-5.893-15.97-7.873-1.461-.43-2.041-.115-7.461.294M311.743 316.926l1.765-2.668.66-.83.498-.403.668-.31 2.66-.972M345.43 327.326l-5.09-4.012-1.782-1.097-3.383-1.653-15.48-7.813-1.701-1.008M345.43 327.326l14.645 11.998M319.615 350.01l1.826-1.745 2.562-2.336 4.174-3.346 8.055-6.663 2.655-2.394 1.642-1.514 2.792-2.438 2.11-2.248M445.226 329.617l2.783 5.27M445.226 329.617l-4.393 2.209M440.833 331.826l2.719 5.183M440.833 331.826l-3.799 1.851M437.034 333.677l2.39 5.239M437.034 333.677l-5.2 2.526M436.121 322.653l.186.46.89 1.89.338 1.196.184 1.342.107 1.269-.061 1.24-.246 1.515-.169.951-.316 1.161M426.97 338.48l2.715 5.107M426.97 338.48l-4.157 1.967M426.97 338.48l4.25-1.968M422.813 340.447l-.485-.042M422.813 340.447l-.279.364M341.189 355.909l6.567-5.683 7.027-6.143 5.292-4.759M387.482 356.886l-2.598.01-2.543-.513-2.13-.86-4.212-3.255-15.924-12.944M401.963 350.506l.74-.092M401.963 350.506l-5.306 2.655M401.963 350.506l.564-.41M402.704 350.414l-.177-.317M402.704 350.414l2.068 3.741M402.704 350.414l.828-.339 1.135-.52 5.08-2.357M387.482 356.886l-6.383 3.196M396.657 353.16l-4.301 2.185-2.186.965-2.688.576M436.121 322.653l-.152-.376-.153-.635-.23-.822-.184-1.255-.66-4.6-.153-1.731-.07-2.077-.053-1.327-.123-1.01-.123-.922-.214-.707-.343-1.223-2.246-7.08-.68-2.182-.752-2.726-.291-1.154-.092-.865-.047-.938-.122-2.985-.153-2.236-.078-4.168.108-4.976.015-1.399-.123-2.394-.168-1.039-.307-1.89-.322-2.076-.184-1.428-.2-1.125-.307-1.414-.307-1.268-.241-.895M448.01 334.886l2.76 5.247M448.01 334.886l-4.458 2.123M485.562 316.018l-11.156 5.12-10.817 5.191-8.348 3.952-2.807 1.298-.671.328-.13.123-.097.155-.03.148.007.198.004.126.015.22.004.173-.038.144-.096.116-.303.202-.76.353-2.33 1.021M443.552 337.009l2.697 5.144M443.552 337.009l-4.128 1.907M439.424 338.916l1.527 3.505M439.424 338.916l-4.843 2.364M450.77 340.133l-4.521 2.02M450.77 340.133l2.68 5.09M434.581 341.28l2.7 5.23M434.581 341.28l-1.483.68M433.098 341.96l-1.265-5.757M432.264 342.374l.318-.153.298-.14.218-.12M433.098 341.96l1.13 5.958M446.249 342.153l-2.684 1.31M446.249 342.153l2.734 5.216M432.264 342.374l-2.58 1.213M432.264 342.374l.844 4.94.223 1.014" clip-path="url(#pcf38824693)" style="fill:none;stroke:#000"/><path d="m431.22 336.512.607 3.086.437 2.776M439.793 345.346l-.74-1.407-.099-.238.007-.137.07-.145.161-.136 1.76-.862" clip-path="url(#pcf38824693)" style="fill:none;stroke:#000"/><path d="m443.565 343.463-.767-1.385-.112-.133-.13-.105-.127-.029-.176.036-1.302.574M416.59 343.288l-7.073 3.47M416.59 343.288l.18.41M416.59 343.288l5.738-2.883" clip-path="url(#pcf38824693)" style="fill:none;stroke:#000"/><path d="m442.66 346.178 1.434-.639.192-.108.069-.115.03-.108-.022-.166-.798-1.58M429.685 343.587l2.692 5.196M429.685 343.587l-4.438 2.091M453.45 345.223l2.712 5.249M453.45 345.223l-4.467 2.146M439.793 345.346l-2.512 1.164M442.66 346.178l-1.58.688-.216-.014-.176-.058-.192-.122-.107-.152-.596-1.174M425.247 345.678l1.69 3.253M425.247 345.678l-2.713-4.867M442.66 346.178l1.691 3.243M437.28 346.51l2.664 5.16M437.28 346.51l-3.051 1.408M409.517 346.758l-6.99 3.339M409.517 346.758l.23.44M448.983 347.369l2.708 5.165M448.983 347.369l-4.632 2.052M418.85 347.7l-2.08-4.003M418.85 347.7l2.047 4.039M418.85 347.7l-7.096 3.254M433.33 348.328l.334-.142.221-.103.344-.165M434.229 347.918l1.366 5.832M433.33 348.328l-.953.455M433.33 348.328l.368 1.437 1.042 4.367M432.377 348.783l-4.445 2.059M426.938 348.93l-4.274 1.987M426.938 348.93l.994 1.912M444.351 349.42l-4.407 2.25M444.351 349.42l2.738 5.25M456.162 350.472l-4.471 2.062M456.162 350.472l.905 1.579M427.932 350.842l.553 1.064M422.664 350.917l1.563 2.986M422.664 350.917l-1.767.822M411.754 350.954l-6.982 3.201M411.754 350.954l-2.008-3.756M411.754 350.954l2.151 4.035M439.944 351.67l2.614 5.105M439.944 351.67l-4.35 2.08M420.897 351.739l-2.833 1.317M428.485 351.906l-2.657 1.246M428.485 351.906l2.175 4.182M451.69 352.534l-4.6 2.137M451.69 352.534l1.18 2.517M418.064 353.056l1.566 3.004M418.064 353.056l-4.159 1.933M425.828 353.152l-1.6.751M425.828 353.152l1.443 2.819M434.74 354.132l.2-.09.285-.127.37-.165M435.595 353.75l1.171 5.715M424.227 353.903l-.99.465M434.74 354.132l1.034 5.115M434.74 354.132l-4.08 1.956M404.772 354.155l2.071 4.118M423.237 354.368l-2.672 1.254M423.237 354.368l1.32 2.564M447.09 354.67l-4.532 2.105M452.87 355.05l-3.912 1.908-.153.029h-.196l-.157-.054-.161-.108-.12-.199-.167-.289-.915-1.666M413.905 354.99l1.602 3.004M413.905 354.99l-7.062 3.283M420.565 355.622l-.935.438M420.565 355.622l2.406 4.57M419.63 356.06l-1.738.815M430.66 356.088l.205.395M430.865 356.483l-7.894 3.71M430.865 356.483l2.135 4.135M442.558 356.775l-5.792 2.69M453.922 368.225l-.544-.101-.338-.015-.514.029-.591.13-.698.274-.33.21-.56.432-.399.288-.284.08-.23.014-.2-.043-.199-.072-.245-.21-.33-.612-.599-1.198-2.301-4.095-.63-1.298-.2-.469-.321-.887-.283-.843-1.568-3.064M417.892 356.875l-2.385 1.119M417.892 356.875l2.392 4.58M415.507 357.994l-1.86.872M406.843 358.273l1.591 3.026M413.648 358.866l-5.214 2.433M414.035 361.908l.525-.343.173-.169.038-.13-.005-.203-.03-.141-.098-.207-.99-1.849M435.774 359.247l-2.774 1.37M435.774 359.247l.14.586M435.915 359.833l.297-.129.239-.102.315-.137M435.915 359.833l-2.662 1.241M381.099 360.082l-8.145 3.881M399.41 393.452l-3.473-6.378-5.248-9.562-9.59-17.43M422.97 360.192l-2.686 1.263M433 360.618l.253.456M433 360.618l-6.935 3.129-.806.411-.936.526-.462.326M424.928 365.978l.166-.216.265-.292.36-.41.25-.278.38-.321.675-.44.644-.317 5.585-2.63M408.434 361.299l1.401 2.646M420.284 361.455l-.947.453M419.337 361.908l2.4 4.495M419.337 361.908l-2.623 1.225M414.035 361.908l1.028 2.001M414.035 361.908l-2.609 1.29M416.714 363.133l2.312 4.605M416.714 363.133l-1.651.776M411.426 363.199l-1.591.746M414.163 364.332l-1.225.475-.23.043-.238-.036-.215-.094-.115-.18-.714-1.341M415.063 363.91l-.9.422M409.835 363.945l1.712 3.362M414.163 364.332l2.35 4.634M423.861 365.01l-.48.066-.407.246-.264.382M424.928 365.978l-.11-.362-.236-.305-.332-.21-.389-.09M422.71 365.704l-.973.7M422.71 365.704l-.075.37.065.371M422.7 366.445l.148.27M419.272 368.226l2.726-1.36.407-.243.295-.178M424.772 366.64l.135-.32.02-.342M422.848 366.714l.33.292.426.149.453-.018.411-.18.304-.317M419.026 367.738l.246.488M419.026 367.738l-2.512 1.228M421.737 366.403l-.237.184-2.453 1.14-.02.011M419.272 368.226l-2.526 1.196M416.514 368.966l.232.456M416.514 368.966l-2.172.975-.414.195-.38.169-.335.16" clip-path="url(#pcf38824693)" style="fill:none;stroke:#000"/><path d="m413.213 370.465.147.136.165.097.165.022.21-.025.2-.073.357-.176 2.289-1.024M413.213 370.465l-1.666-3.158M264.284 379.04l-1.013 9.274M288.907 381.258l-3.824-1.15-1.074-.296-1.205-.202-1.419-.079-6.992-.415-6.212-.364-1.38.058-2.517.23M258.653 366.227l.376.332.314.339.46.721.875 2.055 2.44 6.295 1.166 3.071M332.85 381.167l-.592-5.126M288.907 381.258l4.393 1.287 2.746.707 3.238.331 5.685.462 1.005.144 1.289.26 6.874 1.72.867.075 1.043-.036 4.973-.865 3.75-.836 1.305-.433 5.6-2.394 1.174-.513M372.954 363.963l-5.281 2.517-4.869 2.518-3.312 1.769-5.471 2.287-5.866 2.28-3.59 1.702-3.476 2.185-.62.296-.638.165-5.156 1.104-1.826.381M403.543 400.907l-8.067 1.013M399.41 393.452l1.865 3.424 2.268 4.031M287.093 416.067l2.187-.368 11.032-1.363 6.314-.822 13.836-1.767 9.771-1.182 7.15-1.023 13.612-1.755 19.654-2.6M392.975 402.158l-9.176 1.21-5.608.715-7.542 1.103" clip-path="url(#pcf38824693)" style="fill:none;stroke:#000"/><path d="m374.075 414.386-.345-.342-.165-.292-2.762-7.08-.192-.635-.015-.418.053-.433M287.093 416.067l-2.064.382M286.41 459.681l-.982-3.576-.69-1.788-.123-.534-.108-.735.077-1.442.69-10.642.922-12.806.383-6.82.514-5.271M174.728 453.102l.403-.241 1.92-1.893.592-.754 1.12-1.485.806-.793 1.06-.739 1.226-.681 15.401-8.867 1.7-1.03.59-.472 7.822-8.638.672-.454.882-.28 5.746-.73 8.547-1.23 18.006-2.53 10.373-1.392 5.125-.767 5.394-.719M285.03 416.449l-5.003.692-5.531.62-8.493.98-3.89.666" clip-path="url(#pcf38824693)" style="fill:none;stroke:#000"/><path d="m263.271 388.314-.629 5.97-.767 6.85-.721 5.754-.169 2.422.122 2.827 1.006 7.27M174.728 453.102l-.4-.014-1.009-.293-2.759-.858-3.75-.944-1.327-.339-.3-.252-.33-.418-.705-1.998-.123-.937-.043-1.088.32-2.798.168-.757.261-.859 1.846-3.88.895-2.37 2.093-5.552.736-2.019.975-2.362.107-.497-.062-.631-.145-.278-.23-.126-.258-.041-.621.138-1.638.768-3.337.988-12.82 3.346-3.218 1.01-5.16 1.304-6.852 1.86-6.095 1.782-1.944.612-.285.018-.326-.04-.318-.118-.664-.352-.397-.366-.289-.584-.085-.562.146-.952-.008-.288-.107-.223-.547-.34M142.773 405.561l-.245.75-.276.577-.43.75-1.135 1.702-2.057 3.215-1.457 2.365-3.683 5.668-2.286 3.633-1.542 2.243-1.772 2.632-1.767 2.695M100.73 467.9l3.008-1.24 1.289-.779 2.793-2.047 1.166-1.125.89-1.283.292-.75.352-1.73.2-.808.368-.707 3.698-6.82 1.412-2.884.567-1.081 1.228-1.868.629-.916.384-.836.525-1.435.288-.613.399-.605 2.793-3.88 3.112-4.702" clip-path="url(#pcf38824693)" style="fill:none;stroke:#000"/><path d="m152.977 464.246 1.994-1.403 3.927-1.644 4.358-2.047 4.695-2.163 2.977-1.327 2.333-1.414 1.467-1.146M416.77 343.697l5.764-2.886M416.77 343.697l-7.024 3.5M457.067 352.05l.116.326.061.266-.008.245-.107.21-.2.122-4.058 1.832M457.067 352.05l5.054-2.398M462.71 350.713l-.589-1.06M462.121 349.652l2.04-.936.203-.094.23-.206.023-.216v-.187l-.054-.21-.798-1.528-.168-.137-.215-.043-.23.036-1.75.88-.26.18-.07.23v.195l.146.296.903 1.74" clip-path="url(#pcf38824693)" style="fill:none;stroke:#000"/><path d="m462.121 349.652-.903-1.74-.145-.296v-.194l.069-.231.26-.18 1.75-.88.23-.036.215.043.168.137.798 1.529.054.21v.186l-.023.216-.23.206-.203.094-2.04.936M392.975 402.158l-3.022-5.639-4.819-9.316-4.726-8.71-4.127-7.73-1.826-3.52-1.5-3.28M392.975 402.158l2.501-.238M285.03 416.449l.827-8.148 1.811-16.194 1.24-10.85M258.653 366.227l-.96-.57-.705-.237-1.327-.281-2.279-.116-1.937.188-.538-.058-.678-.17-2.425-.825-1.457-.281-.438-.173-.23-.224-.207-.504-1.15-5.322.03-.397.169-.44 5.508-8.883.162-.412.03-.31-.077-.382M263.271 388.314l-14.454-.577-8.578-.39-5.868-.216-1.09-.202-.238-.202-.168-.252-.062-.764.967-7.535 1.411-10.817.215-1.009.246-.382.406-.368.584-.187 1.557-.267 1.412-.137 1.511-.05 3.874.18 2.64.244.03.015 2.654.115 2.272.29 3.153.128 1.297.123 1.61.173M399.41 393.452l-.788 1.957-.722 1.658-.767 1.788-.421.945-.407.735-.33.541-.499.844M242.035 298.235l.215-6.7M242.25 291.535l-1.435.05M240.815 291.586l-.951.065-.215.093-.192.202-2.255 2.971-2.44 2.683M225.885 288.853l4.273-.224 7.09-.49.514.043.498.166.361.288 1.626 2.156.568.794M506.882 158.505l-.682.058-.492.122-7.717 2.661-4.78 1.523-1.45.518-1.535.563-.867.39-.928.418-1.19.49-.981.462-1.197.541-1.112.411-1.696.592-2.685.771-1.895.49-1.094.166-.632.008-.648-.058-.66-.108-.61-.177-.583-.202-.407-.177-.445-.169-.46-.144-.35-.08-.452-.06-5.106-.123-7.542-.137-8.538-.138-10.327-.295-7.412-.253-.905.08-.959.223-.936.289-.774.317-1.228.599-8.048 3.822-7.48 3.671-4.65 2.272-6.781 3.217-2.655 1.226-4.328 2.164-.92.461-.46.606-1.29 2.02-1.44 2.544-.144.255-1.975 3.49-1.135 1.903-1.597 4.616-1.656 5.164-1.167 5.192-.306 3.203-.185 6.635-.215 2.51-.951 8.712-1.074 13.932-.123 4.905.277 2.913 1.411 8.538.829 6.26.245.952.369.721 4.311 4.104.721.973.522 1.27.123 1.21-.184 3.924.399 2.135 1.32 4.269 3.575 9.562.89 1.86.52.851.876 1.356 4.818 6.974.606 1.132.315.7.222.728.13.865.292 2.927.123 2.568-.061 1.413-.231 1.529-.383 1.327-.415 1.557-.215 1.024-.13.865-.138 1.032-.192.663-.245.685-.46.779-2.809 4.716-2.9 6.374-.874 1.904-.599 1.615-.2 1.126-.015.894.154.62.368.807 4.265 6.843M410.71 581.968l.218-.576 3.56-9.025 2.562-6.417 3.56-8.391 1.703-4.34 3.744-9.387 6.72-16.725 3.561-9.33 11.433-28.475M530.965 479.566l-.568-.187-1.135-.101-1.105.173-12.337 1.355-46.124 5.717-21.925 2.779" clip-path="url(#pcf38824693)" style="fill:none;stroke:#000"/><path d="m402.183 495.38 3.467-.515 4.557-.576 4.112-.534 6.26-.664 9.1-1.21 10.25-1.544 5.999-.822.936-.1.907-.113M570.875 513.336l-.598-.807-2.455-3.245-.829-.692-1.166-.72-1.473-.75-1.443-.375-2.086-.404-12.644-1.672-5.524-.736-1.043-.317-.66-.433-.537-.663-.752-1.255-5.846-15.89-2.01-4.975-.4-.49-.444-.346" clip-path="url(#pcf38824693)" style="fill:none;stroke:#000"/><path d="m621.322 488.411-.778-1.952-.798-2.033-.782-2.063-.323-1.24-.368-1.427-.66-2.524-.521-2.365-.66-3.33-.806-3.627-.514-1.78-.269-1.14-.137-.88-.077-.79-.046-.475-.02-.209-.06-.086-.075-.049-.183-.026-.21.02-.415.05-.365.052-.356.032-.31.021-.235-.007-.165-.072-.176-.155-.135-.234-.096-.314-.084-.454-.046-.418-.088-.545-.088-.136-.108-.149-.165-.14-.21-.08h-.223l-.35.073-.54.255-.637.448-.997.778-1.312 1.175-1.558 1.363-.46.39-.437.49-.491.692-.307.418-.292.455-.345.31-.468.288-.483.245-1.036.49-4.143 2.134-.445.238-.537.404-.307.353-.153.31-.2.483-.2.62-.245.65-.253.497-.338.418-.352.31-.391.274-.353.173-.614.13-.675.159-.476.043-1.266.115-.744.116-.269.036-.82.238-6.338 2.307-2.593.85-1.212.462-2.447 1.074-.676.252-.483.108-.414.058-.46.008-.484-.05-.337-.016-.307.044-.53.13-4.45 1.088-6.843 1.961-7.411 1.99-.69.13-.814.137-.522-.021-.537-.13-.76-.253-.736-.288-1.696-.728-12.597-4.37-1.58-.46-.952-.174-.675-.043-.767.043M620.475 488.823l-.514.26-.437.231-28.302 14.679-18.153 9.459-.675.158-.736-.086-.783-.188" clip-path="url(#pcf38824693)" style="fill:none;stroke:#000"/><path d="m619.884 598.06-.169-1.471.016-.577.154-.706 2.132-5.595 1.473-4.613.261-1.442.046-.995-.108-1.24-.153-1.355-.567-2.177-2.149-7.96-1.043-3.496-.414-1.91-.476-1.961-.522-1.63-1.242-4.397-.522-2.206-.276-.88-.507-.893-.644-.996-.829-.807-5.017-4.44-.844-.563-.906-.303-1.181-.1-1.734.244-4.296.073-.936-.202-.921-.52-1.78-.807-1.181-.317-2.594-.52-1.196-.403-.875-.548-.798-1.009-2.624-3.878-4.65-6.72-4.986-7.512-6.95-9.892M620.475 488.823l.847-.412M618.342 606.303l.2-.054.43-.26.36-.54.276-.772.169-.62.077-4.96.03-1.037M444.977 592.895l1.181-2.65 2.286-4.614 2.287-4.195 2.101-4.571 2.548-5.277 1.75-3.518.198-.606.031-.793-.03-.62-.2-.72-.337-.808-.753-1.687-.168-.577-.016-.346.277-.735.337-.663.476-.563.383-.49.798-.807.752-1.11 1.266-2.473.292-.728.222-.909.338-1.47M453.562 594.985l-7.849-1.914-.736-.176M377.48 571.013l-2.407-.42-2.889-.562-2.685-.556-2.394-.389-4.051-.822M377.48 571.013l2.714.503 4.184.703.68.128.46.12.553.166 1.863.765 1.504.62.898.302 3.844 1.031 5.163 1.197 1.258.295.514.188.568.245.675.367 1.297.923 1.534.952 3.069 1.514 2.452.936M487.788 597.232l-.523-.095-3.652-.721-.905-.116-.86-.028-1.58.216-1.841.36-1.259.058-.89-.058-4.879-1.038-2.194-.404-.905-.129-.983.057-1.956.296-3.828.67h-1.396l-1.014-.115-3.835-.779-1.726-.42M618.342 606.303l-.99.27-6.613 2.012-15.114 4.642-8.025 2.552-9.037 2.782-10.91 3.417-4.695 1.5-.845.273-.89.144-.844-.1-.398-.044-.553-.259-7.411-3.777-7.979-4.11-1.55-.735-1.887-.634-13.272-4.6-8.348-2.739-4.833-1.492-3.967-1.312-4.76-1.615-.428-.173-6.542-2.602-1.765-.606-1.197-.389-.935-.202-3.714-.72-3.052-.554M508.135 156.246l-.125.485-.084.28-.108.282-.153.31-.36.484-.423.418" clip-path="url(#pcf38824693)" style="fill:none;stroke:#000"/><path d="m510.88 159.233-.445-.252-.276-.12-.388-.122-.441-.076-.913-.072-.66-.043-.875-.043M510.88 159.233l-2.745-2.987M586.795 211.136l-.376-1.893-.368-1.897-.407-1.94-.967-4.486-.598-2.654-.453-2.034-.292-1.399-.29-1.19-.3-1.385-.46-1.983-.484-1.63-.399-.908-.172-.336-.223-.23-.307-.134-.441-.076-.399-.004-.353.044-.387.105-1.4.703-2.064.973-1.907.902-2.428 1.218-1.772.899-1.964.944-1.941.898-3.272 1.493-2.659 1.284-2.236 1.15-2.69 1.327-2.259 1.05-.372.122-.318.05-.342.033-.403-.004-.287-.021-.33-.069-.376-.137-.222-.14-.484-.379-1.519-1.554-2.954-3.253-1.442-1.587-1.312-1.399-3.529-3.592-4.672-4.738-2.8-3.007-3.4-3.433-1.549-1.623-1.684-1.821-.706-.765-.782-.843-.741-.776-.667-.714-.967-1.042-.89-.92-2.976-3.05-3.43-3.513-2.494-2.539M571.029 213.772l.843 1.439.779 1.06.269.34.134.161.146.108.207.127.652.284.832.274.357.109.25.036h.226l.184-.004.165-.047.31-.17.699-.454 3.445-2.225 1.56-.995 3.921-2.369.238-.105.211-.075.338-.13M590.131 224.712l-.866-3.533-.383-1.406-.353-1.414-.484-1.933-.43-1.976-.452-1.875-.215-.894-.153-.545M411.547 367.307l-6.726 3.269M431.22 336.512l.032-.028.439-.214.142-.067M422.328 340.405l.206.406M436.121 322.653l5.418-2.54 6.03-2.913 5.018-2.308 4.423-2.008 13.116-6.342 5.999-2.899 10.25-4.976 1.036-.483.43-.216.222-.188.169-.202.13-.23.192-.426M406.018 464.065l-2.286 2.048-1.412 1.247-.43.382-.322.332-.215.418-.092.519-.176 2.855.015 1.262.122 1.305.05.487.04.284.056.231.1.122.1.087.176.05.4-.046.536-.101.867-.13 1.826-.22 8.393-.692 6.951-.534 6.4-.793" clip-path="url(#pcf38824693)" style="fill:none;stroke:#000"/><path d="m402.183 495.38.064-.468.038-.223.088-.191.2-.224.242-.198.433-.285.537-.324.43-.188.583-.202.79-.173.53-.13.92-.331 1.228-.461.698-.289.437-.23.253-.217.269-.252.314-.426.576-.577.944-1.038.859-1.197.537-.8.383-.54.322-.563.185-.425.115-.512.1-.606.16-.555.323-.685.575-.937.26-.386.128-.13.15-.083.168-.05.245.011.323.079 1.488.623.483.177.292.127.276.05h.468l.687-.072.407-.05.214.01.177.04.188.09.284.256.115.152.069.104.127.08.11.021.097-.04.16-.176.189-.296 1.488-2.729 1.427-3.043 1.78-3.72M621.322 488.411l6.587-3.207 9.36-4.902M402.183 495.38l-1.006.148-.369.066-.299.122-.207.152-.2.346-.153.511-.153.563-.092.403-.092.39-.085.331-.568 1.428-.813 2.018M590.131 224.712l.645 2.633 1.627 7.615.361 1.527M579.99 228.11h.598l.621-.008.89.015.53-.051.59-.08.56-.172.806-.36 1.673-.75 1.073-.52 1.06-.628.567-.353.4-.21.337-.137.436-.144M438.48 409.033l-1.099.45-1.166.455-.453.14-.092.033-.18.022-.242.003-.196-.021-.31-.019-.376.022-.576.137-.238.065-.28.144-.218.123-.253.137-.253.104-.368.123-.315.148-.188.13-.134.194-.277.375-.226.145-.288.097-.302.105-.135.136-.088.134-.015.216.08.27.545 1.37.015.202-.053.159-.115.086-.154.058-.514.072-5.739.764-.72.102-.3.007-.215-.043-.176-.066-.154-.208-.215-.426-1.12-2.192-.318-.682-.1-.194-.111-.119-.1-.029-.138.036-.1.094-.05.093-.08.102-.115.079-.376.144-3.694 1.262-.184.09-.093.115-.065.155-.011.246.034.223.112.378.241.553.415 1.074.191.814.054.411-.015.354-.07.534-.069.18-.091.202-.154.122-.291.058-2.249-.116-.751.05-.315.08-.46.195-.215.238-.1.194-.038.26.039.728.06.534.093.202.13.194.23.072.76.094.943.08.285.122.26.188.208.331.092.188M428.433 390.612l6.201-1.707 2.67-.721M444.332 442.06l1.964-.202 1.504-.159 1.418-.206M136.014 105.655l-5.93 2.7M128.35 103.393l3.453.1.567.037.522.13.468.231 2.654 1.764M128.35 103.393l1.036 3.073.698 1.89M174.753 152.009l-.8.304-.322.159-.196.162-.134.267-.223.988-.733 2.055-.38 1.025-.264.53-.33.54-.341.48-.798.729-.13.14-.058.195.038.343 1.001 1.644 2.855 5.525.39.447 1.965 1.45.36.353.123.397.054.606-.034 1.58-.02.118-.046.112-.138.115-1.841 1.01M245.43 587.825l.21.266.145.397.466 1.75.336.722" clip-path="url(#pcf38824693)" style="fill:none;stroke:#000"/><path d="m246.93 588.142-.146.818-.088.703-.11 1.297M196.806 580.9l.493.759 2.513 3.255.421.627.526.775.292.402.368.254.437.212.71.305 2.444.99 1.793.753 1.076.503.603.322.622.368 1.245.8.374.314.474.45 2.083 2.04 2.482 2.107.47.478.623.739 1.257 2.01.326.412.43.434.381.258.276.085.372.016.722-.086 1.288-.23.501-.15.264-.133.28-.18.285-.269.203-.273.52-.86.236-.365.262-.312.403-.364.537-.4.505-.29 1.074-.54 3.385-1.872 1.937-1.128.713-.507 1.004-.76.907-.568.545-.306 1.043-.478 1.71-.748 1.36-.544 3.948-1.33.794-.213.422-.072.262.012.184.057.15.074.089.092" clip-path="url(#pcf38824693)" style="fill:none;stroke:#000"/><path d="m246.93 588.142-.32.02-.202-.035-.257-.086-.292-.094-.43-.122M377.48 571.013l-1.69 4.266-.108.387v.167l.043.178.057.162.068.08.153.123.57.273M179.348 534.963l1.583 4.13 2.731 7.367 2.417 6.278 1.605 4.402.83 2.2.518 1.257.764 1.767.85 2.084 1.43 3.885 1.395 3.486 2.4 6.574.768 2.152.167.355" clip-path="url(#pcf38824693)" style="fill:none;stroke:#000"/><path d="m179.348 534.963 24.451-14.424 3.076-1.93 3.596-1.863.554-.017.388.15 1.27 2.351.423.597.484.43.758.274.688-.174.537-.307.361-.372.582-.262.517-.095 1.275.162 1.265.542 1.509.846 1.6.086 1.153-.457 1.377-.875 1.448-1.96.537-2.977.708-.4.567-.019.8.257.719.714.65 1.19.419 1.826.36 1.869.338.851.372.503.604.197.629-.23.465-.426.523-1.278.546-1.956.256-.678.489-.47.58-.929-.15-.579-.395-.797-1.76-2.626-1.67-3.027-.023-.853.28-.83.511-.961 1.547-1.694 1.128-.908 4.756-4.086.581-.885.675-.82.802-.765 2.14-1.606 1.237-1.79 2.685-3.841 2.35-2.172 1.15-.702.534-.29 1.095.201.36.29.522.627.414.866.721 2.812.16 1.217v1.532l-.52 2.058-1.35 1.82-.107.967 1.109 5.348.654 1.205.455 1.456.08 2.096-.2 2.235-.468 1.38-.908 1.431-1.336 1.582-2.044 1.783-2.324 1.77-3.42 2.297-.774 1.117-.561 1.343-.174 1.543.107 1.42 1.255 3.35.642 2.398.12 2.36-.107 4.117.334.967.588.966 1.803 2.184.655 1.117.828 2.31.112.723-.235.572-52.909 32.272-.37.691M140.457 467.785l1.363 2.19M247.283 586.936l-.353 1.206" clip-path="url(#pcf38824693)" style="fill:none;stroke:#000"/><path d="m156.207 493.09.207.333 11.294 16.727 2.572 4.064 1.408 2.25.51.88.848 1.555.55 1.167.495 1.192.71 1.865.997 2.588.848 2.201 2.702 7.051M156.207 493.09l-14.387-23.114M152.977 464.246l1.356 2.226.77 1.637 1.295 2.416.567 1.332 1.863 2.112 1.782.933 2.025.609 2.004 1.122 1.68 1.085 1.6 1.218 1.478 1.483.77 1.484.93 1.18.841.927-15.731 9.08M152.977 464.246l-11.157 5.73M621.723 424.659l1.276-.956.768-.808.337-.548.123-.635-.062-5.335.077-2.812-.03-.692-.108-.563-.322-1.081-.292-1.024.092-1.529.062-3.72-.23-1.428-.74-3.099" clip-path="url(#pcf38824693)" style="fill:none;stroke:#000"/><path d="m609.644 405.913 1.018-.568 3.944-1.831 3.514-1.472 4.235-1.5.319-.113M612.274 425.63l.475-.01 2.363-.46 2.025-.29 2.947-.259 1.64.048M612.274 425.63l-.722-.774-.43-.735-.276-1.154-.383-7.21-.353-5.927-.466-3.917M608.294 406.664l.558-.31.792-.441" clip-path="url(#pcf38824693)" style="fill:none;stroke:#000"/><path d="m609.496 425.447 1.842.202.936-.02M608.294 406.664l-.47-3.713-.706-3.865-.936-4.485-1.78-5.163-1.78-3.879-2.608-4.139-4.738-7.37M608.115 370.36l-3.314 1.038-9.525 2.652" clip-path="url(#pcf38824693)" style="fill:none;stroke:#000"/><path d="m576.916 379.413 2.306-.56 2.624-.764 12.183-3.692 1.247-.347M600.444 410.21l6.306-2.688 1.544-.858M539.742 310.594l3.345 2.597 18.106 12.95 7.181 5.135 1.135 1.138M588.928 357.577l-.254-.586-.475-.75-2.624-3.49-4.143-5.365-5.923-7.442-6-7.53" clip-path="url(#pcf38824693)" style="fill:none;stroke:#000"/><path d="m550.527 345.513.017-.363.491-.577 14.24-9.317 4.234-2.842M587.54 320.604l-6.37 3.98-11.661 7.83M617.613 365.067l-.076.634-.154.288-.246.144-.582.087-.476-.13-.813-.36-1.09-.678-1.304-.52-1.412-.432-2.04-.303-1.627-.75-.936-.663-.936-.865-.629-1.039-.414-.432-.737-.433-.644-.13-1.642.217-2.01.086-1.197-.029-.782-.375-1.474-.706-1.688-.635-1.181-.274-1.672-.187-1.704.086-1.22-.091" clip-path="url(#pcf38824693)" style="fill:none;stroke:#000"/><path d="m578.179 359.99-.169-.736.169-.72.583-.332 1.182-.173 2.654-.16 1.611-.244 2.087-.202 2.117.116.515.038M578.179 359.99l-3.606 2.35-5.4 3.289-1.566.905M576.916 379.413l-5.013-6.66-3.499-4.442-.613-.952-.184-.825M550.527 345.513l-.013.3.398.26 3.192 1.154 2.363.75.736.49 1.81 2.135 3.04 4.297 3.222 6.26 1.964 3.806.276 1.154.092.415M578.179 359.99l.522.447 1.18.39 1.904.389 2.347.606 2.072.793 1.488.303 1.872.274.906.274.936.605 1.15.462 1.075.144 2.04.144 1.826-.058 1.259-.057.813.13 1.258.706 1.519.534 1.35.49 1.197.967 2.01 2.033 1.212.794M600.444 410.21l-.615-1.058-13.103-16.873-8.44-11.046-1.37-1.82M609.496 425.447l-6.966-11.651-2.086-3.587M606.694 253.173l.378-.183.798-.346.767.014.368.274.4.707.905.909.874.576.798.332.537-.029.583-.158.49-.347.677-1.197 1.672-2.798.874-2.019.538-.894.874-.577 3.008-1.442 8.253-3.883M618.685 272.291l-20.727 8.535M606.694 253.173l5.718 9.134 6.273 9.984M597.958 280.826l-22.602 9.563-3.273 1.307" clip-path="url(#pcf38824693)" style="fill:none;stroke:#000"/><path d="m587.54 320.604-1.428-2.12-2.67-4.096-3.637-7.067-3.1-6.26-4.158-8.437-.464-.928M565.523 278.257l2.314 4.949 4.246 8.49M597.958 280.826l.828 1.702 4.42 7.27 7.242 11.768 9.36 15.276M592.898 328.587l5.95-2.676 20.96-9.069M616.631 363.768l-3.421-5.033-4.803-7.023-4.496-6.764-5.017-7.485-4.85-7.153-1.146-1.723M587.54 320.604l2.04 3 2.44 3.663.878 1.32M606.694 253.173l-9.226 4.485M617.613 365.067l-.982-1.299M563.696 274.093l1.072 2.55M564.768 276.644l-4.695 2.38-2.332.98-.261-.1v-.578l.184-1.702.245-.606.92-.432 4.867-2.493M597.468 257.658l-16.727 7.938-14.761 7.326-2.284 1.17M564.768 276.644l.755 1.613M597.958 280.826l-.308-1.298-.092-2.134.092-1.962-.06-3.952-.154-3.98-.062-3.405.154-4.557v-1.558l-.06-.322M526.254 340.39l1.151.924 3.406 1.701 4.88 2.078 3.713.922 4.695.779 2.333.635 7.856 2.336M515.718 328.648l-.634 1.301M515.718 328.648l.473-.97M526.254 340.39l-.936-.893-9.6-10.849M514.443 325.731l-.295.872.153.578 1.417 1.467M516.191 327.678l-.724-.815-1.024-1.132" clip-path="url(#pcf38824693)" style="fill:none;stroke:#000"/><path d="m521.022 299.893-.169-.923-.537-1.096-.292-.418-.444-.072-.445.057-.4.145-.812.591-1.888.995-1.442.462-1.213.187-1.703.36-1.534.664-1.212.779-1.166.779-.798.403-.921.26-.89.072-1.457.52-1.136.605-.46.375-.123.303.2 1.385v1.543l.076.966.184.49.737 1.01 2.946 3.087 2.685 3.057 2.93 3.23.4.563.092.591-.169 1.053.03 1.053.569.793 1.783 1.97M525.267 341.06l-10.183-11.11M515.084 329.95l-2.808-2.28-1.719-.547-1.412.058-1.626.374-1.105.779-1.227 1.702-1.013 1.875-.184 2.22-.491 2.597-.583 3.778-.154 2.163.031 1.99.153.895.308.375.368.389.66.361 1.18-.058 2.625-.332 3.912-.202 3.423-.288 2.033-.23 1.45-.592 2.393-1.558 3.192-1.83.777-.528M525.267 341.06l.987-.67M521.452 302.893l.061 2.235-.03 4.154-.246 3.014-.844 4.27-.982 3.836-.967 2.783-1.304 2.625-.949 1.868M550.527 345.513l-.443-.046-1.381-.36-.875-.245-.337.072-.322.39-.246.62-.276.331h-.921l-4.65-.923-3.713-.692-4.004-1.457-3.591-1.73-2.102-1.544-1.673-1.47-4.05-4.299-3.928-4.427-1.824-2.055M521.452 302.893l.475.85.66.693.875.404 1.534.303 1.29-.13 1.165.058.844.187.66.448 1.028.331.89.13 1.442.072.79-.099M533.585 303.851l-.334.369-.215.88-.015.808.084.232M539.742 310.594l-1.396 1.53-2.578 2.985-1.842 2.524-1.289 1.788-1.12 2.221-1.227 2.553-1.765 3.778-1.35 1.818-.675.432-1.15.289-1.413.043-.828-.173-.63-.49-.49-.779.077-1.601.245-1.283.552-.952 1.734-1.37 1.458-1.328.859-1.557 1.074-2.134 1.949-3.173.476-1.067.798-1.876 1.734-3.576.46-1.76-.123-.808-.177-.488M521.022 299.893l.153 1.486.277 1.514M521.022 299.893l1.431-.698M527.123 296.835l-1.16.866-1.918.85-1.592.644M526.899 302.182l-2.317-.024-.86-.433-.43-.678-.72-1.514-.119-.338M527.282 291.34l-.628.505-.338.635-.768.332-.828.158-1.12.044-1.074.39-.798.374-.415.476-.092.577.737 2.134.2 1.385.295.845M527.282 291.34l-.092 2.726-.067 2.769" clip-path="url(#pcf38824693)" style="fill:none;stroke:#000"/><path d="m526.899 302.182.184-3.73.04-1.617M533.585 303.851l-2.497-1.477-.783-.188-1.074-.043-1.918.043-.414-.004" clip-path="url(#pcf38824693)" style="fill:none;stroke:#000"/><path d="m527.282 291.34.936-.418 1.335-.447 1.55-.865.798-.505.706-.245h.521l1.167-.015.475-.13.292-.302.49-.78.63-.605.675-.418 1.013-.245 1.458-.318 1.09-.1.306.144.046.432-.476.995-.675.938-.767.447-.706.346-.368.779.03 1.01.216 1.846-.17.98-1.825 5.366-.875 2.408-1.289 1.904-.28.31M539.742 310.594l2.348-3.144.368-.922.015-.78-.26-.792.046-.78.582-1.023 1.028-1.803 1.213-2.97 1.196-3.088.768-1.889.2-1.038.46-1.111 1.181-1.875 1.381-1.832 2.225-3 .844-1.269 1.734-1.34 2.393-1.372 3.806-1.788 2.179-1.038.506-.159.368-.043.507.173.693.546" clip-path="url(#pcf38824693)" style="fill:none;stroke:#000"/></g><g id="PatchCollection_1"><path d="m-1584.123 672.3 2.192 1.51.877.847.755 1.007.439.71h.438l.17-.412.05-.458.024-.641-.098-1.167.146-.55.512-1.075.633-3.09.073-2.677.049-.663.78-1.213.34-.779.268-.389.585-.663.73-.572 1.73-.87.463-.16.95-.183h1.023l1.218.091 2.703 1.327.78.71.56.64.268.39.438 1.373.098.87.219.366.414.091.463-.045.755-.412.39-.275.39-.229 1.704-.778.804-.251.877-.023.317.274.39.206h.876l.609-.114 1.17-.138 3.142-.068 1.096-.412 1.704-.526.877-.23.975-.16 2.533-.206h.95l.9.092h1.17l3.142-.435 1.462-.595.365-.275.268-.389.463-1.235.268-.39.9-.938 2.631-1.236 3.142-1.853 1.437-1.373.366-.23.487-.136.828-.412 3.288-2.243.488-.458 1.096-1.213.828-1.052.243-.39.195-.39.146-.892.269-.915.608-1.19.17-.412.951-2.014.852-1.075 1.048-.847.39-.206.876-.252 1.851-.206.463.069.901-.458.756-.526.462-.206.73-.23 3.874-.365 1.534-.87 1.243-.847.34-.274.487-.71 1.365-2.334.316-.847.073-.435-.024-.457-.073-.412.049-.939-.22-.87-.828-2.47-.097-.413-.292-.87-.195-.824-.39-1.235-.292-1.282-.049-.458-.073-.458-.025-.892.44-1.442.413-.733.268-.343 1.9-.549.463.023.9.229 2.363.755.414.23.61.228.438.229 1.071.412 1.462.618.463.16.706.068 3.167 1.282 2.508.71 4.117 1.647 1.9.55.39.251 1.412-.183 1.291-.412.39-.16.438-.16.415-.183.73-.572 2.899-1.9.316-.32 2.07-2.632.658-1.42 1.145-3.066.049-1.854-.074-.434-.39-1.534-.17-.892-.146-.481-.268-1.282-.413-2.632-.074-.87-.048-1.396-.317-2.403-.024-1.51.17-.275.024-.434.17-.39.22-.824.365-.915.341-1.327.293-1.854-.024-.87.194-2.998.073-.435.146-.412.195-.367 1.048-.892.244-.343.438-.458.34-.252.293-.343.658-.641.9-1.396.342-.8.658-1.123.365-.778 1.023-2.472.804-1.556.9-1.51.317-.344 1-1.785.876-1.419 2.095-2.724 1.145-1.35.852-1.076 1.29-1.35 1.024-.847.097-.892.195-.367.706-.48.926-.985.366-.915 1.242-1.282 3.458-1.99 1.194-.62 1.267-.342.877-.115 1.875-.068.463-.07 1.218-.411.608-.389.22-.389.584-.71.902-1.693.877-1.488.804-1.099.316-.343.536-.687.585-.686.95-.916.681-.572.244-.344.146-.32 2.12-2.014.34-.275.414-.068.439.274.097.412.024.481-.097 1.99.024 2.198.098 1.442.78 2.518.657 2.45.024 1.303-.39 2.175-.121 1.625-.22 1.327-.121 1.763.048 1.213.122.504.292.892.196.893-.098 2.952-.22.847-.292.801-.682 1.099-.584.64-.414.23-.439.068-.438-.114-.487-.069-.682.984.146.984.195.755.097.527.097.961-.73 1.419-.658 2.495.073.435v.504l-.17.389-.341.343-.293.389-.097.64v.435l.097.413.293.778.048.389-.243.366-.39.252-.438.16-2.12.16-.438.114-.487.183-.34.344-.171.435.048.412.244.366.121.412-.73.503-.487-.137-.926-.297-.243-.206h-.463l-.39.595.024.434.512.71.122.435v.435l-.098.412-.024.435.17.411.536.206.39.206.22.412.194.206.877.023.95-.114.95-.183 1.023-.275 3.313-.114 2.46-.39.34-.274 1.17-.32.95-.756.633-.617.439-.276 1.096-.87 1.29-1.395.804-1.053.78-.847 1.632-1.304.438-.298.463-.39 1.997-1.029 3.435-1.923 2.338-.595 1.875-.366 1.827-.686 2.168-.572.39-.16.974-.275 1.753-.573.95-.228.853-.275.487-.114 2.143-.756 2.266-1.305.999-.526.365-.32 1.437-.984 3.19-1.923.39-.16 1.145-.252 3.97-.046.999-.091.414-.114 1.462-.206.657.503.366-.252.316-.297.463-.046.487.137.414.206.78.115 3.556-.046.755-.069.56-.023 2.095-.228 2.143-.115 2.558-.32 1.583-.252 1.413-.046.414-.115.585-.274.754-1.099.147-.412.292-1.304.122-1.305.194-1.35.561-1.945.633-1.832.195-.984.244-1.83.292-2.839.122-.412v-1.282l.267-.984.463-.847.293-.389.267-.435 2.436-2.815.269-.343 1.071-1.168.926-.824.584-.64 1.29-1.694.659-.64 1.071-.871 1.389-.87 1.194-1.235.876-1.19 1.657-1.603.974-1.19 1.12-1.877.147-.389.243-.87.268-1.625.316-.984.147-.618.584-1.969.61-2.54v-.48l.146-.39.316-.32 1.266-2.06.585-1.122.268-.595.414-.755.292-.39.317-.389.243-.411.463-.87.098-.618.024-.733-.463-3.73-.122-.413-.462-1.075-.877-.847-.365-.298-.56-.297-.415-.366-1.705-2.13-.243-.412-.317-.32-.804-.664-1.17-1.304-.462-.435-2.022-1.374-1.096-1.03-1.047-.915-.853-.55-.438-.206-.39-.297-.34-.435-.195-.457-.098-.344-.365-.732-.707-.641-1.607-1.145-.633-.664-.293-.366-.438-1.213-.22-.389-.413-.252-.512-.045-.34-.276 1.217-1.144.122-.412-.073-.458-.341-.297-.511-.115-.39-.366v-.435h.51l.83.527.292.32.584 1.122.292.32h.463l.999-.206.512.046 3.044 2.495.926.87.487.32.681.435 2.34 1.236 1.728.71.463.137.877.183 1.218.114 2.021-.183 1.024.046.438.069 1.462.366.438.046h.974l.95-.115 1.461-.297 7.21-.023.61-.092 1.29-.366.999-.503 1.047-.779 2.436-3.158.365-.366.268-.39.098-.458.073-1.327-.17-.87-.05-3.822-.438-1.466-.244-.983-.414-1.397-.316-1.259-.025-.435.098-.824.097-3.937.049-.778-.73-1.1-.366-.274v-.457l.268-.344.487-.045.438.091.39.275.317.32.584.412.293.32.828 1.443.268.938.17 1.42.195.412.584.755.634 1.282 1.583 2.105.244.55 1.875 1.762 3.07 2.083 1.558 1.282 1.754 1.008.877.297 1.997.252 1.583.16 2.874-.32.853-.298.341-.023 2.265-.824 2.947-.915 1.778-.71.536-.183 2.144-.939.706-.251 1.17-.573 2.703-1.671 1.144-.892 3.143-3.617.34-.504.853-2.014 1.145-3.182.414-.938.658-1.969.194-.526.342-1.214-.05-.8.025-2.358.22-1.305.243-.984.292-1.832.366-1.304.195-.39.316-.32.61-.229.51-.045h.56l1.95.205 1.73.252h.51l2.68-.549.487-.137.633-.252.293-.344.974-1.464.316-.321.536-.344.22-.434.243-.87 1.145-1.03.268-.39.78-1.258 1.168-1.626 1.12-1.876.269-.619 1.242-2.7.56-1.42.317-.526.511-.664.268-1.213.17-1.328.147-.733.73-5.036V430.9l-.365-2.884-.39-.275-1.631-2.45-.634-1.19-.316-1.144-.293-1.671-.463-1.946-.414-1.26-.219-.434-.268-.366-.658-1.648-.243-.435-.682-.687-.536-.275-.853-1.396-.072-.435-.122-.412-.877-1.236-.682-.801-.536-.848-.414-.823-.17-.39-.05-1.007.342-.893.317-.343.608-.275 1.17.115.438.16 1.023.87.438.412 1.145.939.56.549.804.916 1.462 1.465 2.192 1.831 1.851 1.648 1.534.962 1.145.48 1.267.412.901.115 1.535-.138.414-.16.658-.183 1.266-.595.609-.504 1.875-1.991.975-1.557.974-1.442.463-.366.682-.344.536-.366.39-.595.267-.481.317-.412.56-.824 1.023-1.282 1.072-1.145.974-.893.682-1.121 1.608-1.946.292-.297 1.559-1.969.828-.939 1.559-.916.56-.434 4.092-1.328.877-.412.365-.32.268-.367.463-.32.584-.23 1.754-.984.39-.412.195-.412.243-.824.414-.984 1.437-2.198 1.462-2.45 1.34-1.99.9-1.283.56-.618 1.438-1.854 1.023-1.42.195-.366.999-1.327.438-.321.366-.206 2.192-1.076 1.559-1.099.414-.252.39-.275 1.68-1.282 1.072-.686 1.34-.756.681-.458.341-.297.61-.801.39-.206.365-.298 2.703-1.58 3.215-2.77.317-.343.609-.435 2.8-1.855.488-.48.828-.87 1.291-1.763.366-.297.925-.916 1.194-1.053.681-.458 1.535-1.236 2.265-1.74 2.899-2.472.438-.459 1.559-1.282.39-.389.39-.183 1.68-1.007.877-.412 1.096-.618.512-.39 3.75-1.648.683-.275 2.606-1.831.39-.367.34-.343.293-.366 1.193-1.053.268-.366.585-1.1.365-1.052.074-.573v-.55l-.147-.571-1.34-3.229-.413-.915-.488-.824-1.34-1.695-.34-.297-.536-.366-.755-.733-.731-.87-.244-.435-.39-.824-.243-.756-.243-1.007-.147-1.26-.755-1.58-.365-.114-2.095-1.236-.755-.503-.34-.32-.171-.39-.073-.48.048-.55.293-.504.34-.274 6.285-1.603 1.754-1.03.852-.664 1.584-1.695 1.729-1.144.39-.16.584-.024.414.07.609.366.22.366.048.412v.527l-.146 1.099v1.305l.048 2.358v2.7l.122 1.008 1.316 3.229.78.823 2.46 1.878.9.801.755.527.78.434 1.29.573 1.073.755.779.481 2.63 1.1 1.34.526 1.12.32.683.115 1.096.023.658-.069.803-.252 1.12-.458 1.852-.412 2.728-1.122.706-.205.853-.321 2.484-1.1 1.388-.64 1.048-.55.853-.526.705-.596 1.243-.8 3.556-1.97 3.873-1.67.974-.276 1.12-.595 2.095-.733 1.315-.617.415-.252.828-.458 2.8-1.786 1.56-1.305 2.801-1.969.877-.504 4.652-2.312.633-.71.901-.87 6.09-4.235 1.754-.915 2.484-1.03 1.753-.482.707-.114.39-.275 1.729-.939.828-.549.317-.32.877-.664 2.338-.367 1.218.778.438.367.585.298 1.193.228.56-.16 1.048-.71 1.218-1.076.9-.938.391-.298.828-.32h.463l.438.114.512.252.316.274 2.485 1.855.39.16.462.069.926.069.609-.16.414-.16 3.702-2.267.828-.527.975-.778.877-1.122.073-.481v-.664l-.05-.572-.364-1.145-.634-.664-1.826-2.541-2.388-3.87-.39-1.098-.291-1.328-.196-.55.415-.756.39-.251.438-.046.39.137.511.206.585.458 1.29 1.9.293.344.438.412.73.573.366.228.39.184 1.851.504 1 .709 3.14 1.282 2.071.664.755.137 3.094-.755 1.413-.664 1.778-.664 1.778-.412 1.388-.435 1.803-.916 1.437-.572 2.314-1.008 1.096-.412.39-.251 1.314-.687 5.968-2.885 2.923-1.19 2.192-1.077 4.53-1.855 3.143-1.602 2.46-1.168 1.559-.893 2.387-1.259 2.703-1.603 2.996-1.74.39-.182 1.072-.321 3.044-.115 5.36-.045 1.777-.458 3.483-1.122 1.023-.39.706-.183v-.297l1.9-.916 1.267-.527 6.845-2.564 2.752-1.213 1.826-.573 1.73-.801.633-.344 1.803-.64.852.206.78.71.584.182 1.242.046.536-.092 2.436-.663 1.876-.664 1.022-.435 2.07-.641 2.534-.87.439-.275.487-.183.95-.504 2.606-1.214 1.51-.64 1.072-.321 1.826-.298 2.07-.435 4.117-1.26.877-.045 1.778-.046 2.217-.343 2.46-.16 1.85-.069 3.094-.48h1.12l.853-.459 1.9-.412 2.168-.206.438.206 1.145.687.414.183.414.092h.463l.438-.07.39-.205.706-.504 1.194-.755.438-.367.756-.572.486-.481.634-.778.828-.916 1.267-1.122.706-.847.365-.344.731-1.03.244-.779.609-5.426.267-1.58.074-1.03.195-1.122.243-2.495-.024-.733-.22-1.855-.146-.756-.219-.71-.244-.572-.755-1.442-1.12-1.603-.195-.435-.292-.962-.293-.755-.316-1.763-.292-1.305-.122-.893-.049-.825-.34-1.694-.244-.64-.415-.688-.779-1.855-1.656-3.228-.755-1.626-.463-2.564-.292-2.107-.512-2.243-.438-1.489-.56-1.465-.293-.55-.414-.664-.049-.55.268-.389.39-.297.39-.183.463-.07.487-.022.584.138.39.228.292.298.488.893.292.367.34.595.634.824.56 1.007.195.573 1.851 2.656 1.705 2.267 2.07 2.358.512.687 1.023 1.626 1.12 1.992.196.595.365.939.121.962.366 1.282 1.364 3.228.877 1.786.999 1.488.852 1.053.658.779.73.527.682.618 1.121.916 2.143 1.236 1.12.573.61.411 1.534 1.397.487.527.39.618 1.997 2.656 1.17 1.305 1.242 1.076.95.596.95.503 2.387.527 3.215.229.56-.092 1.315.046 4.36-.069.536-.205 2.777-.504 1.9-.39 4.043-.618 1.413-.046 3.142.023.999-.114 1.266-.023 1.973-.114 1.29-.184 1.9-.39 2.704-.64 1.145-.367 2.29-1.213.682-.412 1.583-1.626.95-.778.268-.343.22-1.145.072-1.832 1.803-4.121.39-1.283.852-3.297.268-1.488.34-1.626.025-1.465-.536-2.976-.121-4.878.316-1.282.122-.824.56-1.786 1.51-4.099.195-.778.146-1.053.05-.825v-2.267l-.074-.8-.097-.505.024-.916-.341-2.175.024-1.03.098-1.237-.025-1.259-.097-1.557-.414-2.427-.268-1.008-.366-1.809-.194-4.488.048-3.48-.073-1.008-.34-1.282.073-.412.219-.367.316-.32.463-.114.511.022-.511.71-.22.366.098.436 1.34 1.076.34.297.829.596.95 1.122.268.595 3.02 7.671.34 1.19.171 1.466.025 2.885.146.435-.024 1.26.048.434.877 1.924.901 1.511.853.939.61.504 2.094 2.518 2.313 3.572 1.048 2.473.439 1.351.219.893.316 1.946.317 1.237.244.71.852 1.946.536.939 1.73 2.358.584.595.462.39 1.073.664.974.343 1.12.252 4.043.206 2.29-.664 1.656-.618 1.34-.435 1.656-.687 2.996-1.03 1.705-.733.804-.275.658-.275 1.096-.412h.608l1.803-.458 1.218-.458 1.437-.389 1.9-.664.78-.206.657-.252 2.022-.48 1.266-.276 6.918-1.991 1.023-.16 1.656.09.755-.022 1.023-.137 2.485-.664 2.484-.482 5.919-1.854.877-.458.438-.298.633-.595.17-.595.098-.802v-.71l.488-1.602.438-3.023.34-.847.659-2.748.073-1.099-.073-.641-.56-1.694-.39-1.695-.073-1.877.243-1.008.244-.64.17-.573 1.632-3.778.438-1.237.05-1.442.267-.344.39.275.146.618.243 2.977.975 1.923.804 1.855.243 1.007.025.458-.195.412-.268.344-.39.298-.048.961.413.848.39.366.78 1.03.365.87-.39.779.366.343 1.266.55 1.949.48.487.024 1.267-.16 3.897-.07.974-.045h1.827l.682.046.974.297.877.366 1.29.482 2.047.572 1.096.229.926.023.779-.046.925-.16 1.073-.321 1.412-.55.926-.274.828-.183 1.267-.665.827-.572.317-.343.609-.94 2.533-2.449 2.436-1.671.56-.436 1.047-1.007.488-.366 1.071-.596 1.389-.664 1.071-.435.585-.16.487-.092.585-.046 1.948-.595.61-.091 1.168-.046.829-.138h.633l2.63.641 1.51.023 3.8.71 1.121.046.998-.114 1.048-.23.73-.32 1.316-.893.39-.55.535-1.305.22-.641.56-.687.39-.343.487-.32.438-.253.95-.366.39-.092 1.437-.114 1.071-.343.707-.482.633-.732 1.754-2.313 1.705-2.885.463-.642 2.777-3.273.39-.413.487-1.053.194-.527.341-1.35.487-.733.731-.825 1.803-2.564-.17-.39-.44-.069-.072-.412.024-.435-.317-.343-.219-.366-.122-.436v-.48l.463-1.741.097-.71-.195-.55-.9-.8-.317-.688-.633-2.564-.707-1.649-3.921-5.542-.585-.663-.536-.458-.316-.344-.17-.87-.025-.527.195-.412.56-.48.462-.024.975.16 1.607-.045 1.778-1.443.975-1.236.535-.458.658-.275.22.39.243.823.268 1.787.292.779.609 1.053.439.939 1.412 2.083.902.94.243.343 2.046 3.183.78.595 1.095.664.074.412-.317.298-.317.733.049.64 1.34 1.168h.463l.292.344v1.168l.17.893.512.687.925.778.415.092.974.71 1.73 1.832 2.508 3.022.901 1.008.658.664.657.893.61 1.008.462.549.853.618.852.55.634.32.438.16 2.217.413 1.802.778.925.092.488-.023 1.583-.344 1.12-1.854.293-.619.438-.778.268-.412.39-.413.365-.274 1.583-.916.585-.504.584-.572 2.314-1.374.56-.023.975.114 1.437.367 1.218.137h1.754l.998-.16.731-.183 1.315-.092 2.923-.046 1.291.252h.487l.439-.091.779-.367.365-.297.634-1.329.267-.778.537-1.855.267-.573.78-1.03.633-.618.244-.664-.073-.458-.269-1.1-.072-.503-.439-1.374-.682-2.725-.268-.801-.998-.893-.293.366-.95-.39-1.461-.87-.341-.32-.122-.458.22-.71.292-.595.56-.916 1.437-.23.584-.182 1.998-.527.706-.366.439-.183.779-.459.39-.366 1.047-.527 1.437-1.076.22-.412.072-.435-.146-.55-.633-1.007-.195-.435.025-.756.17-1.1-.463-.915-.9-1.283-.318-.411-.486-.802-.098-.412.024-.48.146-.46.17-.938-.51-.664-.61-2.336-.048-.435v-.732l.146-.504.633-.687.877-.481 3.995-1.878.56-.366.34-.458.196-.435.194-.71.682-1.329.561-1.167.268-.458.146-.412.414-.39.487-.824.39-.985-.073-1.97-.22-.617-.828-1.603-.292-.344-.658-.435-2.192-1.122-.974-.092-.122-.412.073-.504.901-.938.341-.298.658-.344.804-.274.536-.092 2.338.069 2.022-.87.34-.275.56-.298 1.316-.985.341-.343.39-.825.244-.71.463-2.312v-1.832l-.074-.641-.073-1.42-.34-.94-.293-.457-1.12-2.267-.366-.344-.463-.068.098-.481.39-.275.34-.412.195-.71-.024-.985-.22-1.901.122-1.282-.462-.916-.487-.115-.244-.389-.073-.481-.244-.962-.17-.412-.634-.939-1.023-1.626-.267-.366-.317-.344-.39-.297-.463-.16-4.335-.298-1.096-.275-1.242.229-1.096.023-.415.229-.657.71-.828-.275-.098-.412.025-.825.243-.687.682-1.236.56-1.237.17-.435 1.56-1.878.633-.618.39-.436.243-1.42-.049-2.381-.17-1.649-.146-.733-.853-2.908-.048-.55-1.072-2.748-1.973-3.274-.999-.985-1.34-.825-.9-.503-1.048-.459-1.51-.411-.34-.39-.05-.824.683-2.405.413-.23.512-.137.998-.504 1.657-.595.584-.16.463-.183.39-.252.292-.32.39-.23h.487l.706-1.008.366-.824.049-1.236v-1.031l-.44-2.359-.73-2.61-.365-1.764.024-.664-.852-1.947-.097-.504-.074-.733.05-3.068-.22-1.077-.366-.893-.9-1.077-.463-.847-.341-.87-.122-.504-.049-.527-.22-.733-.34-.595-.61-1.717-.072-.413-.323-.304-.275-.323-.755-.689-.412-.215-.847-.301-1.075-.71-.481-.044h-.893l-.435-.107-.709-.495.16-.366.32-.28.595-.043 1.466.646.389-.172.251-.323-.046-.409-.687-.774-.389-.28-.823-.28-.824-.387-.229-.345-.092-.409.138-.817.435-1.14.228-.84.046-.387.023-.883-.092-1.571-.137-.58-.091-1.356-.595-1.658-.344-1.162-.366-.774-.55-.646-.732-.58-.412-.238-.8-.344-1.305-.258-.32-.28-.23-.344.893-2.11.275-.322.526-.904v-1.721l-.023-.43-.16-.818-.343-1.184-.252-1.227-.115-.818-.068-.387-.183-1.226-.23-1.249-.182-.624-.092-.99-.114-.43-.137-.43-.344-.41-.755-.408-1.968-.775-.778-.387-.298-.28-.183-.366-.091-.387.091-.969.206-.344.252-.323.183-.366.091-.387.046-.452-.046-.817-.526-1.98-.389-.818-.686-.797-.298-.43-.984-1.937-.16-.387-.367-1.205-.48-1.184-.595-1.635-.138-.474-.183-.43-1.259-2.002-1.007-1.807-1.441-2.174-.298-.323-1.602-1.399-.664-.56-.366-.236-.64-.56-1.969-1.872-1.465-1.27-.526-.58-.23-.366-.342-.302-.481-.344-2.586-1.485-.39-.172-.434-.043-.435.022-1.67.56-1.763.451-2.289.323-1.647-.754-.092-.408v-.818l.183-.345.572-.796.527-.645.297-.28.343-.237.39-.194.434.022.664.517.206.796.16.387.23.323.297.301.389.194.549.086.412-.065.343-.194.298-1.528-.069-1.247.046-.388.458.065.96-.301.115-.41-.251-.775-.023-.408v-.818l.137-.366.16-.387.595-.99.526-.624.32-.237.39-.065.275.302.252.344.229.366.183.387.274.797.16.99.367.818 2.082 2.367.206.344.16.387.504.646.297.28.481.258.755.323.687.452.71.387.709.43.183.345.229 1.14.343.818.55 1.12.435.796.251.322.412.366 1.099.624 2.86 1.055.824.237.39.15.32.259.458.667.412 1.204.091.388.801 1.464.229.344.503.602.595.582.367.236.343.28 1.259 1.14 2.289 2.755.686.99.138.366.526.603.206.322.274.28.847.603.779.301.434.065h.435l.412-.065.755-.301.801-.409 2.632-1.635.32-.26 1.534-1.678.366-.322 1.694-1.12 1.488-1.226.343-.345.8-1.032 2.839-2.69 1.075-.668.32-.28 2.404-1.14h1.923l.8-.473.321-.302.343-.237 1.122-.645.801-.194.412-.043.252.323-.138.409-.229.344-.434.258-.985.345-2.631 1.377-.092.388-.114.817-.138.41-.206.386-.298.388-1.235 1.355-.824 1.055-1.168 1.162-1.12 1.507-.596.624-.618.58-1.122.775-.778.388-.32.28-.137.387-.046.409-1.854 3.4-1.304 1.055-.641.538-.847.925-.251.538-.436.71-.755 1.528-.503 1.571-.16.818-.07.882v1.657l.184 1.636.16.366.389 1.29.023.41.252.817.572 1.658.183.387.939 1.635.755 1.033.206.366.617 1.873.412.882 1.626 3.077.091.409.526.947.39.86.274.345.206.344 1.213 2.798.252.753.366.71.229.323.366.215.778.172.366.172.23.366.16.775v.43l-.138.818-.069.796.046.43.092.388.48 1.334.985 1.808.229.344.251.301.298.28.274.344.366.258.94.582.823.344.412.13h.412l1.213-.173 1.785-.495.412-.13 2.174-.042 1.991-.904.458.129-.229 1.335-.732.559-.412.387-.298.388-.183.43-.457 2.108-.435.151-.435.043-1.35.022-.71.538-.572.774-.229.388-.16.387-.114.818-.023.84.274 2.065.206.925.252.904.297.818.023.43.252.517.435.043.343.215.229.387-.275 2.26.115.365.549 1.012.274.323.367.3.366.195 1.259.15 1.281.022.39-.108 1.419-.903.343-.237.32-.28.39-.237.617-.15.458-.022 1.945-.043 3.616-.86.39-.13 1.304-.818.527-.215.617-.28 1.511-.882 1.556-1.033 1.419-1.011.985-.818.8-.71 1.465-1.42 1.099-1.42.526-1.184 2.495-1.915.503-.495.687-1.12.274-.279.367-.193.412-.087h.434l.367.172.343.237.183.388.183.796v.452l-.366.86-.457.517-1.374 3.636.275.41.297.28.183.365v.409l-.343.818-.526.473-.39.237-.663.624-.64 1.097-.092.41-.069.86-2.975 3.27-1.145.604-.366.236-1.51 1.14-.39.216-.365.28-.802.516-.343.258-.32.323-.596.495-.297.301-.892.775-3.273 2.044-.275.28-.412.237-1.282.473-1.35.344-.504.194-.457.129-.39.172-.892.495-.778.538-.458.258-1.282.667-.526.237-.48.366-.32.258-.847.925-.802 1.012-.183.409-.297.882-.32 1.14-.092.452v8.823l1.74 2.087.548.344 1.717 1.399.251.302.618 1.054.321.408.366.71.275.431.87 1.57.709 1.464 1.648 3.787.297.237.687.667 1.053.882.48.495.55.388.549.322.343.301 1.259.538 2.632-.172.412-.107.48-.237.366-.258.276-.323.274-.43.687-1.442.389-.732 1.144-1.57.458-.13.458-.064h.457l.298.28.55.71.297.28.389.257.366.151.434-.021.39-.237.32-.323.664-.775.664-.86.412-.452.251-.43 1.9-2.54.435-.172.71-.409.388-.085.412-.043.779-.431.32-.258 1.35-.754.572-.258.778-.28.71-.387 1.419-.494.503.021.275.258.114.41-.87 3.915-.48.667-.229.387-.274.41-.985 1.204-.251.366-.16.388-.618 1.032-.298.754-.069 1.032-.137.388-.114.86-.023 2.626-.092.56-.274.989-.138.667-.343.796-.206.345-.274.343-.687.603-1.602.99-1.969 1.506-.732.775-.686.947-.962 1.549-.458 1.162-.114.387-.092.84-.457 2.15-.183 1.185-.367 1.226-.045 1.248-.16 1.033-.023 1.248-.069.43v.473l-.069.431-.023 2.065-.022.431-.092.56-.046 1.119v1.161l-.251 1.57-.092.926.069 1.528-.16 1.484-.138.603-.252.775-.205.387-.23.344-.458.56-.778.774-.617.732-.367.28-.526.236-.984.538-.16.366v.904l.091.409-.092 2.302-.091.387-.39.774-1.006 2.368-.55 1.14-.503.904-.503.688-.687.603-.55.387-.388.215-1.488.667-.274.495-.115.452.206 1.033-.183.365-.87.366-.87.237-.274.301-.091.387.32.237.412.194.778.215.366.172.274.366.138.387-.091.56-.367.516-.572 1.033-.137.882.389.753-.16.43-.275.344-.572.474-.618 1.312.206.366.572.732.16.947-.389.236-1.808.194-.114.387.16.366.298.28.343.236 2.7 1.463.916.603 1.99 1.097 4.35 2.754 1.304.925 1.304.818 1.214.667 1.647.731 1.603.302 2.585-.581.527-.667 1.396-2.28.343-.26.527-.666.87-.904.686-.516.344-.215 2.197-1.248 1.464-.732.367-.15.8-.237 1.511-.13.733.022.457.13.435.236.686.56 3.96 1.914 1.099.366.343-.194.526-.645.458-.689.275-.495 1.098-1.592.71-.452.824-.3 1.419-.194.366.194.114.387v.84l.07.386.388.775.343.323.504.344.435.236.343.215 1.122.646 1.212 1.355.092.797v.882l.114.387.458.688.389.28.39.13h.434l.412-.022.39-.172.64-.56.343-.215 1.58-.839.915-.839.892-.387.412-.366.985-.388 1.144-.279.572-.022 1.488.065 1.259-.151.755-.193 1.19-.41 1.373-.645 2.861-2.28.618-.732.778-1.097.183-.366.664-2.388 1.236-2.776 2.174-5.293.961-1.958.733-1.743.228-.882.16-.904.252-.903.275-1.183.229-.539.229-.387.297-.28.321-.236 2.197-.883.572-.451 1.42-.883.48-.365.778-.667.915-.947 1.122-.688.458-.259.343-.236.343-.28.732-.495.481-.258.916-.452.549-.15 1.9-.259.892-.258 1.327-.56.664-.602.962-1.098.778-1.097.755-1.119.366-.452.48-.387.94-.517 1.258-.387.435-.021.594.15.367.15 1.076.603.457.216 2.129-.086.32-.237.778-.366 1.9-1.076.572-.215.755-.172h2.495l2.426-.129h1.762l.55.064.755.323-.138.409-.411.215-.87.323-.618.323-1.076.774-5.538 3.357-1.122.796-.87.689-1.968 1.205-1.327.56-.778.472-.71.667-.984.818-1.03 1.033-.55.602-.571.495-.618.667-.39.215-.595.84-.48.796-.137.408-1.488.366-.961.043-.39.194-.297.301.092.775-.32.28-.413.215-.8.344-.092 1.915.137.387-.091 1.033-.206.345-.596 1.42-.206 1.333-.068.883v.56l.16.687.183.41.55.924 1.098 2.496.412 1.033 3.135 4.368.962.904 1.053.645 1.83.99.527.323.961.667.32.236.344.194.938.301.961.344.596.474 1.03.645.572.108 2.265-.904.504-.043.435.086.755.108.755.021.618-.043.48-.15.779-.56.8-.516.413-.388.595-.645 1.076-1.399.549-.215.961-.731 1.145-.796 3.341-1.829h.824l.686.15 1.442.667.87.603.732.968.664 1.055.55.774.297.301.366.28 1.694 1.657.412.301.823.301.413.108.366.172.412.129.412.021.846-.021.847-.194 1.648-.602.527-.237 2.22-1.398.389-.194 2.15-.775.367-.193 2.86-1.162 2.13-.99.388-.107 1.351-.237.412-.108 1.716-.215.435-.064.435-.108 1.373-.194.412-.15 1.442-.603.572-.15.778-.345.618-.537 1.167-.797.893-.516.847-.344.618-.194.389-.193 2.678-.216.846.43 1.351.904.32.302.572.43 1.099 1.7 1.465.946.412.215.595.13.755.042.755.108h.481l4.76.237.755.13 1.03.107h.802l1.968-.323 2.86.021.664-.064 2.403-.796.984-.215 2.015-.646 1.098-.215.435-.129 1.648-.603.938-.28 1.923-.365 1.693-.603.687-.796.641-.408.389-.323.412-.237.412-.323.48-.301.71-.495.893-.473 1.098-.538 1.396-.473 1.58-.624.846-.173.412-.128.755-.108.458-.108.733-.086.846-.215 2.037-.301.778-.15.48-.108.39-.173.847-.452.32-.3.252-.388.39-.774.114-.41 1.235-2.237.595-.56.48-.365.757-.753.846-.71 1.373-1.506.664-.56.572-.645 3.456-1.679.39-.237 1.372-.903.985-.818 1.167-.86.71-.41.365-.257.664-.667.847-.646.412-.388.48-.365.641-.602 1.007-1.12 1.282-1.226.595-.71.755-1.054.275-.302 1.076-.903.503-.301.572-.258 3.25-1.12.824-.322.801-.237.779-.107.755-.152.732-.193 1.259-.538 4.051-2.238.732-.473 1.213-.86 1.488-.97 1.442-.881 1.167-.516.435-.087 1.945-.602.824-.13.87-.28 2.22-.559h1.144l1.236-.172.915-.064h1.305l.48.043.596.086 1.052.258 1.9.28 6.202.688.55.151.434.043.481.301.664.044.457.193.825.237.343.215 1.03.796.366.194.549.602.527.344.366.216.412.172.412.064 3.227-1.635 1.441-1.119 1.557-1.312.686-.495.458-.215 1.534-1.42 1.167-1.141 1.716-1.55 1.213-.838.618-.41.778-.451 2.404-.99.389-.237 1.212-.451 1.717-.496 2.129-.86 3.524-.495 1.419-.258 1.946-.258 3.364-.022 2.426-.064.618-.065.686-.13 2.037-1.01 1.099-.194 1.487-.065h.893l1.488.194.48.129 3.342 2.088.389.387.274.387.298 1.312v.71l-1.213 2.238-.664.732-.687 1.334-.251.645-.183.646-.069.409v.86l.092.41.274.28.824.343.39.108.503.064 1.35-.064.962-.344.755-1.098-.092-.408-.229-.388-.549-.667-.183-.43-.114-.388-.023-.839.137-.495.48-1.205.298-.494.732-.818.595-.387 1.786-1.054.824-.431 2.334-1.377.527-.345.366-.408 1.716-2.173.801-2.604.961-2.561.32-1.01.321-1.357.183-1.27.526-2.452.16-.969.046-1.183v-2.754l-.045-.41-.115-.451-.412-1.055-.823-1.613-.32-.538-.527-.818-1.923-2.798-.48-.752-.618-1.184-.572-.796-.756-.882-1.03-1.012-.572-.71-1.007-1.42-.48-.86-.321-.947-.183-1.227-.206-2.324-.137-.86v-.862l.617-2.582.733-2.28.275-1.163.252-1.786.068-.925-.091-.689.023-.86-.092-.84v-1.14l.252-1.399V23.3l-.55-2.647-.434-1.464-.481-2.022.023-.732.458-1.764.068-.388.32-1.032.802-1.98.48-1.055.824-1.377.458-.688 1.419-1.83.343-.56.252-.58.618-1.205.16-.646.114-.903-.297-2.195-.435-2.282-.091-.904v-1.98l.091-1.14v-.56l.092-.774v-.452l.091-.56.39-1.678.342-1.162 1.443-3.142 1.51-5.487.893-1.658.297-.387.206-.387.16-.387.55-1.636.389-1.42.549-4.218-.206-1.14-.16-.431-.504-1.055-.64-1.183-.367-.882-.435-1.378-2.883-5.294-.298-.43-.366-.28-.984-.603-1.076-.968-.71-.688-.526-.69-.343-.3-1.694-1.572-1.579-1.7-1.167-1.119-.366-.495-2.22-2.346-.664-.839-.275-.323-.32-.43-.48-.818-.16-.774.549-.388 1.647-.516.504-.065 3.914.15h.892l1.556.108h1.282l.824-.086.618-.15.778-.13.938-.064 1.305-.323h1.808l.412.043.389-.15.069-.41-.023-.559-.32-2.518v-2.152l.183-1.42.32-1.872.069-1.507.183-1.313.045-.84-.023-3.292-.549-4.842-.137-.43-.206-.431-.732-1.012-.504-.968-.138-.409-.732-1.313-.595-1.98-.068-.645v-1.313l1.212-3.25.275-.323.229-.344.32-.344 1.076-.99.801-.452.229-.345.366-.344 1.946-1.463.229-.345.297-.71.229-.388.252-.322.663-.646.687-1.033.435-.775.252-.84.137-.817.023-1.463-.778-2.67-.16-1.075-.161-.624-.664-2.088-.251-.538-.298-.452-.71-.925-1.052-1.291-.641-.69-.458-.602-1.808-2.625-.366-.818-.527-.69-.343-.795-.274-.43-.275-1.12v-1.485l.023-.753-.275-1.098-.32-.71-.572-2.733.572-1.615.046-.409-.115-.43-.64-1.7-.069-.43.595-2.734.71-1.248.137-.43.068-.926-.023-.539-.114-.387-.229-.43-.206-.926v-1.033l.115-.86.183-1.55v-2.69l.297-2.002v-.883l-.091-.581-.138-.452-.068-.56.228-.624.504-.818.504-.624v-.43l-.069-.409-.138-.387-.595-.646-.206-.366-.114-.43-.229-1.4-.938-2.54-.046-.408v-.517l.183-1.894-.045-.473-.618-1.033-.138-.41-.183-.365-.023-.452 1.305.344.412.022.412-.108.343-.215.183-.409-.023-.818.275-.646.435-.645.297-.259 2.312-1.635.297-.259.275-.322.32-.667.046-.646-.091-.474-.39-1.55-.206-.58-.206-.818-.137-1.507v-2.217l.137-.646.23-.646.572-1.011.32-.28.412-.107.39.172.297.71.068 1.097-.824 4.693.023.731.23.84.068.689.297 1.119.344.753.617.581.756.323.847.15 3.684.496.481-.043.8-.194.436-.15.366-.194.252-.323.046-1.012.412-1.097.343.236.206.56.137.538-.046.409-.183.43-.228.388-.39.99-.022.43-.183.538-.504 2.196-.046.883-.206 1.119.229 2.087.755.99.046 3.057.023.43.114.667.046.603.755 2.84.16.754 1.717 3.271.252.345.16.388.115.58v2.067l-.138.839-.114 1.377.046 1.141v2.433l-.023.494-.252 1.744v.99l.115.56.411.925.07.409-.436 1.808-.068.43.023.409.183.452.114.474.023.473.229.603.251.301.481.495.572.365.755.603.412.775.23.581.732 2.39.274.774.275 1.033.206.99.137.926-.366 1.356-.435.107-.389.172-.297.323.023.43.549.646.389.237.229.344.16.43.137.883v1.313l-1.075 4.52-.23.387-.365.43-.275.452-.184.538-.022.539.114 1.054.046 2.002-.092 1.764-.114.388-.206 1.033-.092.774v.431l.138.818.16.516 1.648 4.627.252.947v.474l-.046.43-.183.473-.023.539-.39 1.506-.32 2.69-.022 2.432.183 1.851.229.517.411 1.334.32.646.161.688.48.861.092.409.938 1.442.207.495.274.603-.893.495v.409l.115.387.458.667.023.775-.092.602-.938 2.97-.504.624-.32.539-.64 1.506-.161.882-.046.452-.206.344-.251.646-.321 1.033-.115.473-.229 2.325v2.474l.16 1.034.184 1.549v3.185l-.16.538-.184.538v.43l-.228 1.098-.412 2.69.045.926.664 3.873.367.28.366.193.366.151-.252.345-.687.02-.435.152-.228.323-.115.516-.023.882.023 1.464-.389 1.398v6.629l.069.602.114.797.115 1.42-.069.516v.43l-.137.431v1.765l-.092.84-.297 1.527-.893 4.132-.274.968-.069.473-.023 1.98.115.84-.023.925-.069.904-.046 2.56-.091 1.98.068.84.16.452.16.731.16 1.571.321 1.356.916 2.152.503.387.206.344.641 1.313.138.667-.07 1.399-.228.817-.07.474.024.409.252.387.389.71.137.517.046.43v.904l-.091 1.42v1.42l-.618 2.841-.756 1.42-.252.344-.457 1.162-.298.969-.023.409v1.27l.138.43.274.451.938 1.7.206.538.436.215.64.431.87.495.71.366 4.096 1.915 3.822 1.958.778.452 1.007.926.824.667 1.26 1.119 1.898 2.151 1.077.861.32.301.755.969.664.752.686.517.71.732 1.922 2.56.71 1.012 2.975 3.314.458.365.64.345.802.537.274.302.847.689.252.3 1.213 1.034.64.796 1.442 2.625.115 1.248v.602l-.069.388-.16.603-.091.408-.184.387-.48.646-.412.516-.206.366-.618.624-1.556 1.377-.527.41-1.12 1.247-.574.84-.411.645-1.213 4.282v3.68l.137 1.162 1.625 3.313.412.259 1.144.753 1.465.387 1.19.107.939-.129 1.922-.688.71-.215.8-.323.39-.172.389-.237.251-.301.458-.732.756-.344.045.387.527-.021.343-.237.252-.366.091-.43.023-1.657-.458-.71.069-.818.595-.904.55-.752.388-1.034.183-1.958.87-1.807 1.51-2.733.55-1.613.504-1.12.755-1.377 1.121-1.312.275-.43.503-.539 1.374-1.312.389-.387 2.449-2.153.686-.71 2.77-3.356.595-1.227.228-.516.344-.71.572-1.614.16-1.14.206-1.098.091-.409.527-1.14.458-.69.755-.73.435-.28 1.51-.56 2.564-1.033 2.906-1.313.916-.473.549-.344.893-.71 3.501-1.184 1.282-.107.961-.15 1.213-.26.801-.214.48-.194 1.168-.775.458-.344.526-.56.801-1.119 1.144-1.462.802-.776.618-.688 1.968-.904.389.13 1.213.172.892.086h.435l1.305-.41 1.304-.58 1.213-.344.847-.28.572-.15.595-.065h.504l1.052.215 2.198.645 1.007.172 1.465.495.732.172.755.13h1.808l.893-.065 1.167-.193 1.076-.237 1.236-.388.823-.344.893-.538.344-.15 2.494-.797 1.854-.516.915-.56 1.008-.538 2.517-1.829.32-.366 1.488-1.506 3.364-2.539 1.488-1.27.87-.58 2.769-1.356 1.236-.818.458-.344 2.517-1.636 3.159-2.367.96-.947.459-.624.549-.904.87-1.076.343-.516.915-.71.504-.667 2.037-3.81.206-.602.16-.624.092-.624v-.86l-.07-1.098-.228-1.248-.137-.43v-.797l-.137-1.14-.482-1.055-1.51-2.238-.915-.926-.847-.667-.687-.667-.412-.452-.824-1.076-.228-.516v-1.635l-.275-.969-.252-1.678.023-3.228-.137-3.293-.206-.99-.87-2.711-.39-.86-1.601-3.186-.183-.603-.343-2.496-.115-1.334v-4.412l-.55-1.205-.388-.968-.184-.732-.205-1.313-.206-.409-.412-.56-.458-.731-.229-.538-.206-.775-.137-.86v-1.206l-.069-.409-.274-.452-.55-.71-.229-.882.046-.409-.023-.904-.229-1.055-1.487-4.217-.092-.388.115-.495.16-.43.206-.388.252-.322.297-.28.664-.194.549.215.435.539 3.914 6.047.251.56 1.122 2.13.572 1.14.137.646.023.56.458 1.226.069.452.435.882.503.797.252.344.32.645.847 1.464.48 1.205.527 1.14.298.668.732 1.205.48.624.367.366.983.602 1.649 2.045.663.624.252.301 1.968 1.313 1.51 1.463.527.624.595.797 1.717 2.625.206.474.503 1.097.48.818.458.732.733 1.033.687 1.054 2.86 2.84 1.51 1.055 1.077.56 1.167.516.755.215.48.086.733.022 1.373.172 1.625.13.664.215.595.322 3.113 1.14 1.876.453 4.761 1.291 1.464.3 1.236.195.916.215 1.304.215h1.099l.87-.3.366-.195.526-.43.366-.43.55-.99.8-.861.642-.84 3.593-3.292.595-.452 2.724-1.808.48-.301.847-.688 1.052-.474 2.472-.99.801.258.436.215h.503l.595-.365.663-.56 2.404-.753.8.387.87.087.412-.13h.413l.823.452.755.538 2.266 1.033.39.28 3.272.882 1.83.151.894.021.824-.064.984-.15 2.06-.238 1.487-.322 1.236-.172 3.273-.71h.801l.984-.173.503-.15.39-.194.549-.194 1.007-.452.778-.43 2.426-1.012 1.19-.322 2.7-.603 1.122-.108 1.122-.28.526-.236.32-.301.275-.302.504-.839.457-.56.87-3.916-.206-1.12-.55-2.302-.457-1.248-.297-2.13-1.58-4.305-1.007-1.011-.64-.775-.641-.904-.206-.43-.092-.581.023-.43.252-.388.297-.301.39-.215.892-.215.71-.022.64.086 1.831.667 1.213.56 1.51.947 1.282.968 2.953 4.068.824.968 1.007.818 1.075.796.55.473.687.517.297.366 2.06 1.377 2.883.775.527-.13.663-.28 1.076-.516.87-.688.64-.753.71-.926 1.122-1.205.595-.84.595-.99.412-.58.847-1.076 1.19-2.712.389-.538.251-.516.527-1.464.87-2.195.48-.818 3.182-2.475 1.327-.817.435-.172.8-.108 1.1-.086 3.776.043.778-.194.846-.323.893-.43.801-.41.412-.279.916-.732.64-.731.71-.926.778-.904.618-.645 1.465-1.399 1.121-.43 2.151-1.4.596-.559.503-.624.504-.71 1.19-1.292.961-1.161.778-1.034.23-.322.205-.388.046-.775.114-.516.206-.409.755-.516 2.38-.646 1.923-.603 1.74-.602 1.327-.366.572-.258 1.03-.344 3.342-1.658 1.99-.925 1.1-.625 1.098-.537 1.968-.818 1.533-.904 2.793-2.604.755-.969.229-.365.87-1.615.824-1.786 1.35-2.41.32-.69.206-.365.527-.689.343-.387.503-.452 1.648-.904 2.884-2.54 1.213-1.98.595-.817.504-.732.228-.452.138-.43.503-.818 1.007-1.076.687-.71 1.396-.41 1.533.237.71-.495.48-.451.527-.69.297-.516.527-1.356.343-.688.252-1.055.205-1.464v-1.226l-.045-.775-.252-.947-.275-.602-.389-.603-2.746-2.583-.778-.56-.64-.623-.138-1.163-.39-1.011-.274-1.313-.046-1.098.275-.517.755-.903.778-.603 1.35-.71.687-.474.572-.817.115-.904v-.646l-.16-1.68-.206-.989-.069-1.162-.526-1.937-.183-.474-1.374-2.13-.71-1.507-.274-.861-.114-.538.71-1.872.09-.41-.068-.559-.595-1.033-.023-1.463-.229-.646-.503-1.335-.71-1.098-.114-.387-.458-1.119-.092-.452.115-1.808.206-.43.252-.345.145-.093.877-.137.876.137.78.367 1.364 2.107.34.824.537.734.877 1.465 1.023 1.375.584.641 1.072 1.329.39.733.243.825.098.961-.244 2.062v.87l.78 1.512 1.071 1.375.585.687 1.461 1.054 4.384 3.114 3.362 2.658.877-.138 1.705-.458.925-.138h.975l1.656.367.974.413 1.17 1.42.438.732.584.734.731.503 1.56.688.875.228.877.184.877.091 1.852.275.925.046.78-.367.584-.641.926-.641 1.51-.825h.926l.779.367.487.687.292.779.098 5.13-.39 1.696-.244 1.74-.243.916v.917l-.634 3.94-.048.87.146.824.341.825.341.733.585 1.603.682 1.512.438.733.585.779.633.595.73.458.78.367 3.41.916 1.705.366.926.092 2.046.275.828.229 2.777.274h1.754l.876-.091 1.559-.824.682-.504 1.218-1.237 2.387-4.719 2.144-3.39.584-.733.39-.778.536-.825 1.559-2.107 2.192-1.604.779-.458.828-.412 1.754-.55.78-.32.535-.779.292-.779.341-1.695.634-1.649 2.435-4.718.585-.596.73-.504.926-.274 1.803-.093.877-.137.633-.595 1.023-1.466.828-.321 3.703.137.925-.045 1.023.137 2.338 1.283 1.706.641.876.23.877.045.974-.092.731-.458 3.02-4.49.536-.687 1.316-1.145 1.656-.687h2.728l.974-.091 1.754-.23 1.705-.412 2.728-.045 1.802-.138 2.972-.366-1.12-4.123-.683-.596-.584-.688.34-.778.83-.137.437-.779v-.87l-.633-1.192-.633-1.603-.243-1.741.145-.87.439-.734.633-.64.585-.688.78-.504.827-.137 2.046.091 2.972.504.584-.595.536-.642.488-.687.39-.779.486-.733.877-.779.877-.32 1.705-.413h2.728l1.705.55 2.825 2.245 1.608.916.78-.366 1.12-1.42.73-.688.78-.458.78-.366.877-.23.925-.137 1.949-.183.925-.275.78-.458.682-.55.925-1.237.195-.824v-.917l-.097-.87.438-.733.829-.32.876-.138.926-.092 1.85.138.926-.321 1.51-.87 5.749-4.994 1.17-1.237.681-.504 1.997-1.695.439-.733.536-.687.438-.733.195-.825-.243-.825-.975-.366h-5.456l-.73-.504-1.755-1.833-.486-.733-.585-1.695-.049-.87.341-1.65.926-2.473.438-.825.292-.824-.682-1.88-.925-.32-.78-.504-.925-.229-.926-.32-.633-.642-.487-.733-.438-.779-.195-.824-.731-1.924-.78-.413-4.579-3.298-2.874-.871-7.064-1.924-1.85-.688-.829-.411-.682-.596-1.266-1.283-.828-.55-4.336-1.924-.585-.642-.73-1.649-.098-.87v-.87l.439-4.216-.682-.641.292-.962.146-1.008 1.607-4.902.195-.825.585-1.65.341-.87.828-1.512.244-.87.974-1.42.828.136.829.321.73.504 3.118-1.053.73.412.147.824v.871l-.195.87-.682 1.559-1.413 2.336-.341.825-.39 1.74v1.97l.682 2.612.098.916.243.871 3.8 3.848.78.367.828.275 1.656.366.926.092.877.23 1.704.595.829.137 2.533.367 1.851.366.925.046h2.777l1.803.183 1.071.046.926-.275 2.777-1.787.877-.091.779.458.536 1.558.146.824.39.78.877.274h.925l.828-.183.828-.275 1.852-.138 1.85-.274 1.657-.596 1.656-.458 1.072.366.78 2.108.048 2.611.147.87v1.742l.486.732 1.9 1.696.536.641 1.364 1.191.828.321 3.654.642.877-.184.73-.458.731-.55.78-.503.682-.596 1.266-1.329 1.023-1.374.439-.733.34-.779.39-1.833 2.339-3.069.877-.184.925-.045.877.091 1.705.321.682-.641.73-1.558.293-.78.974-1.373.633-.596.78-.458.828-.321.439-.824.243-.871-.536-3.024-.877-.275-.974.046-.828-.32-1.266-.642-1.072-.825-.487-.733-.585-.641-.73-1.237-.683-.596.39-.779.828-.32 1.023-.138.877.092 3.41 2.153.78.32.876.276 4.774-.32.829-.276 1.656-.779.584-.641.147-.825v-.916l-.147-.87-.292-.825-.438-1.695v-1.008l.194-.825 2.242-.917.584-.641.682-.55.828-.32 2.728-.596.438-.733.05-.87-.39-.825-1.705-.87-.244-1.467.682-.55.828-.32 2.436-1.146.828-.275.877-.183 1.023.138.78.412.73.504.828.275.877.091.877-.046.877-.183.779-.366 1.9-1.054.828-.55 1.364-1.329.487-.733 1.121-1.374.536-.733.438-.87 1.17-2.475 3.41-5.498 1.412-1.008 1.608-.779 1.704.642.634.595.828.413.828.183.828-.183.682-.55 1.657-2.383.633-.641 1.851-.596 2.436-.32.877.045 1.704.504 1.706.367.925.046h1.56l1.022-.046.829-.275.681-.55.828-2.382.634-.55.876-.138.634 1.054 1.607-.733 1.413-1.191.975-.642 1.363-1.145.195-.824v-.871l-.633-1.65-1.023-1.466-.195-.87.195-.825 1.413-2.795-.293-1.008v-1.787l.244-.87.78-1.65 1.071-1.512 3.556-3.436.44-.733 1.655-.688.828-.183.926-.046.925.275 1.024.55.682.504.486.733 1.17 1.283.828.458.877.275.876.046h.877l.926-.137 1.023-.092.828.229.877.458 1.12-.137.926-.321 2.874-.78 1.559-1.19 3.361-3.07.731-2.245-1.071-1.42-.293-.825.926-1.42.828-.276.78.321.876.092 2.68.045 1.85-.091.926-.137.877-.23 2.095-1.145 1.169-2.291.292-1.008-.146-.917-.682-1.558-.438-.732-.78-.459-.925-.275-.877-.366-.78-.55-.828-.458-1.364-1.146-1.169-1.374-.536-.78-2.192-3.71-.73-1.65-.537-.917-.39-.962-.584-.733-.828-1.603-.293-.825-.681-2.475-.341-.825.34-.779.634-.55.877-.182.877.091.779.458 1.413 1.008.585.688.682 1.65 2.435 1.648 2.728 1.192.877.413 1.705.595 2.923.458 4.97 2.841h1.801l.877-.137.828.183 4.093.687.974-.183.779-.413.926-.412.974-.092 1.12.184.828.504 2.534.092.633-.55 1.072-1.466.34-.78.147-.824-.195-.871h-3.654l-.877.367-.828-.55-.292-.87-.097-.917 1.169-3.162.633-.596.78-.504 1.704-.504h3.654l1.12-.183 2.388-2.337.438-.732v-.917l.146-1.741.39-1.696v-2.932l.536-.733.828.274.828.138.877-.138.73-.504.634-.595.487-.734.828-.412.828-.32 2.972-2.016 1.705-.917 1.412-2.703-.048-.871-.585-1.65-.097-.87v-1.787l.438-.688.195-.916.73-1.512 1.219-1.191 1.607-.642.877-.275.829-.23.877-.09.827.274.731.412.925 1.696.78.458.877.321.828.137 1.52-.22 49.91 103.285-46.319 40.726-3.736 3.042-5.34 4.964-5.77-1.328-1.289 2.77-2.455 2.253-5.953 2.135-2.21.923-1.534 2.829 2.577 8.254 1.719.462 2.271 3.06.92 4.617-1.227 4.098-3.56 2.482-2.455 2.251 1.044 2.482L504.728-163l3.742 4.284-1.411 2.654-1.78 1.069-2.148 4.357-6.245 2.381-3.023 1.775-4.619.996-2.9 1.082-2.163 1.212-2.192 2.228-2.67 2.223-.678 1.754v1.846l.062 3.348.829 2.857 1.043 2.338 3.56 1.905 1.534.028 1.688-.606 2.24 1.155 1.044 2.048 1.411 1.184 3.314 2.193 3.622 1.328 1.987.591.138.433-.652.606-1.719.188-.951-.548-1.75-.722-2.823-.548-1.657-.116-2.27-1.962-2.762-1.53-2.61-.721-3.099-.693-2.485-1.039-1.75-1.471-2.209-1.386-.767-2.885-.537-2.742.168-4.3-.184-2.54 2.701-5.772 3.682-4.213 2.947-2.193 1.964-2.079-.614-1.846-2.333-1.905-3.437.115-4.48-1.905-5.707-5.138-1.321-5.857-1.442-4.964-2.271-3.03 1.718-3.117.86-5.31-4.542-4.965-43.24 23.849-43.634 50.672-52.08 68.97L279.6 6.054l-56.302 22.52 28.62 28.285.695 2.94 2.466 2.481 1.487 3.16 2.924.237 2.57.914 3.717 5.78 1.39 2.875-.764.914.605 3.574-.293 1.487-1.91-1.763-.938-1.274-2.813-.979-1.37-2.542-6.435-1.847-1.62-1.478-1.278-2.448-3.34-2.355-2.121-2.755-7.763-1.512-1.702 1.012-5.835-.36-6.218.589-2.362-.98-1.667-1.24-2.014-.254-3.648 2.082-3.369 2.417-.59 1.339-2.814.685-6.131 4.65-.4 1.555-3.16-.065-3.512-1.11-1.629-2.188-.903-2.907-2.292-2.416-1.599-2.81-.624-2.448 1.562-2.972 1.042-3.201-.56-.696-6.595-4.072-.625 3.233-3.057 7.642-1.91 1.437-2.64-.261-2.745-1.045-2.361-1.731-1.112-2.025-4.228-.453-2.893 1.466-1.215 5.061 4.828 6.793.417 3.43.798 3.134 2.015 1.993-.556 3.46-5.488-1.142-.243-1.339-1.285-1.012-10.351-2.645-1.39-1.11-.173-1.7-1.147-.978-3.612-1.405-1.98-1.567-3.265-.556-2.974 1.13-.882 2.267-4.584 3.657-4.58 2.507-4.237 19.691 8.191 24.37 4.804 33.417 6.59 9.296 19.002 3.212-1.357 11.286 6.178 23.622 14.126 19.164 12.501 13.553 10.128 4.59-5.96 5.27-7.24 7.725 1.154 8.724 3.57 6.948 3.35 1.875 7.765-2.005 3.89 13.125 5.99 2.92 2.417 7.985-4.977 4.45 2.005 2.387 3.18 9.552-16.797 4.421-7.384 6.814-9.844 6.377-10.212 3.46 3.543-10.708 8.128-8.685.262-18.068-2.972-3.415-18.077-24.795 2.71-10.317-2.384-5.193-11.4-23.942-5.584-5.168-9.378-.98 5.905-9.077-1.112-13.649-2.182-5.692-5.042-6.585-8.545-6.662-7.711-1.24-6.253-14.041-7.364-7.184.903-3.658-.833-20.441-14.797-19.92.277-5.487-1.869-6.207-2.924-3.524-4.794-1.502-16.524 1.058L6.472 114.37-53.71 156.29l-3.678 1.71-3.401-.403-.065 2.332-2.288 1.267-2.31.383-5.733-.262-3.829-.463-5.134 2.433-1.86 1.83-.77 1.71.042 2.956.363 2.493-.705 1.589-.856 3.7-.171 2.453.642 1.89.663 3.78.984 3.901 1.475 2.112.236 2.03.727 1.63.642 2.171-.3 3.077-.834 4.283.45 2.453 1.882 2.272.213 1.99 1.69 1.247-.577 2.634 1.048 1.81 2.353 2.513.792 1.569-.321 2.413-.77 1.85-.131 2.05 1.347 3.096 1.156 1.226-.385 2.856-.364 3.378-1.54 2.473.128 1.307-.556.402-1.112-.985-1.049-1.81-.15-2.352-.192-2.614-3.7-2.534-1.519-1.508-.578-4.242-1.775-1.549-3.487-4.765-4.962-6.254-1.326-1.97-3.038-1.69-4.856-4.906-.984-4.082-1.71-2.593-2.033-3.801-.513-2.212-1.819-2.212-2.438-1.186-3.893-.12-1.583.703-1.497 2.855-1.754 3.76-2.931.926-.748 1.125-3.615 2.956-1.99.443-4.62-1.046-.856-.321-.706.261-1.134-.443-1.475.383-2.31 1.729-.107 2.332-2.032 2.072-.193 1.87-1.09 2.01-10.59 1.589-2.587.724-.984-.584-1.968.725-1.412 2.171-1.647 1.568-.022 1.991.385 1.227 1.968 3.136.621 2.514-.32 2.815-1.114 2.373-1.497 4.001.235 3.257 1.733 5.51.513 3.378-1.197 2.955-1.583.764-1.22.885.236 1.106 1.048.724-.107 2.794 1.326 1.408 1.669.503.235.522-1.925.885.064 1.066.855 1.347 1.476 1.026-.02 2.392-.578 2.01.3.966 1.432 1.347 3.145 1.267.94.18 1.413.805 1.155 1.327-1.241.06-2.481.08.62 1.167-.3 1.287-.913.918-1.029.683-1.3-.2-2.209.456-.726 1.137-1.936.341-1.785 3.015-2.147 1.847-1.664 3.129.242 3.61 1.422 3.413 2.45 3.469 1.059 5.43.484 3.953 1.088 3.213-1.451 5.573-1.392 1.393-2.813.91-1.906 2.872-4.454 3.07-2.927 2.36-2.723 1.906-.363 1.79.06 2.759-.695 1.592-1.634-1.365-2.51-2.388-2.118-2.133-1.27-2.587 4.446-2.787 3.6-2.758 4.538-5.06 2.329-5.574.545-2.786-2.3-5.886-2.843-6.057-1.392-7.648.545-6.853.847-5.516-.363-3.27-1.391-2.502-.945-3.132-2.507-4.614-3.33-2.753-3.18-1.664-1.18-1.98-.548-2.971-2.465-1.604-2.192-.297-1.6-.733-.296-2.654-1.6-3.565-2.487-1.03-1.517-3.169-.105-3.248 1.327-1.228-1.749-1.445-.716-1.96-1.98-.734-3.51-.81-3.404 1.826-5.45 6.726-13.192-4.21-8.484 3.702 1.983 8.475-2.134 3.582-3.59 2.54-2.979.76-3.296.49-2.833-2.042-5.113-4.478-2.808-.768-3.421 2.373-3.573 2.661-2.593.431-1.978-.956-.736-2.995-4.638-4.032-2.642-.368 2.32 2.862-.824 1.596-2.573.612-2.471-.802-.494-1.556-2.628-3.644-3.59-.5-3.95.324-2.477 2.979-.216 3.653 3.04 15.614-.1 7.424-4.078 3.203-11.1-13.093-3.873-4.96-15.029-7.51-8.324 5-2.618 2.74-.408 5.594.177 3.429-1.983 1.14-.86-2.574-5.412-1.194-1.095-2.231-7.112-7.479-21.17-3.147-6.458 3.856-.834 2.34-3.117 12.438-1.33 17.395-1.34 7.269-2.353 7.943.422 4.022 1.031 5.297 3.22 2.278 6.35 4.314-.793 1.899-5.684 1.312-2.383 10.606-3-.312-2.602-12.783-5.418-3.301-1.808-14.447-.407-6.463 2.87-.55-.151-.638-2.082-.707-1.022-12.505-1.997-1.203-2.093-8.46-5.05-9.805-11.193-4.374-17.498.704-8.044 1.448-15.835 6.213-9.75 4.85-4.367 4.297-8.817 16.513-1.324 1.292-5.59-5.292-5.029-2.598-4.867 1.475-4.099 3.403-1.313 11.49 7.73 23.65 7.42 15.92 3.388 6.174 4.753 1.648 9.216 8.855 16.627 25.405-1.438 4.333-1.377 23.818 1.776 5.036 1.673 5.842-.964 4.002-1.699 4.014.788 5.03-3.903-2.19-.334-1.604 1.122-3.29 1.68-3.935-.717-2.896-4.06-6.209-3.022-4.79-.879-8.022 1.833-7.701-2.27-6.54-2.825-5.628-4.91-3.78-4.263-1.611-3.045 1.53-2.415.873-1.622-2.674.878-3.723-1.153-8.027-12.666-9.592-5.84-1.24-11.53 3.265-.825-1.386 4.472-4.904 2.059-11.637-6.118-15.09-6.908-3.64-7.441-.84-5.591-2.77-3.016-6.484-3.297-3.316-6.308-.226-15.712 1.702-25.337 9.657-10.474 9.338-1.262 7.74-10.53-2.019-6.722 3.261-5.554 7.517-3.778 2.377-4.529 7.252-16.623 10.134-7.317 8.851-2.05 8.644-1.604.27-4.492-2.745-9.845-1.294-11.174 3.41-4.595 6.491-.845 12.924-1.976 11.24.43 8.884 2.24 5.994 11.573 4.908 7.978 1.81 5.583-.566 4.088-3.926 4.474-2.675 3.422.842-.598 4.019 3.586 11.274 5.928 11.715 7.503 15.24 3.858 2.688 7.274 1.21 5.074-2.784 2.508-2.25 6.395-10.61 7.006-7.353 5.073-2.905 1.88.73-8.082 17.384.107 12.868-7.207 2.4-9.113 5.088-3.76 3.565.271 6.929 2.597 5.745 5.56 5.122 5.207 1.324 9.74.68 8.183-4.57 2.113 1.96-.656 7.817 1.132 6.456 4.688 3.28 14.284 1.122 11.825-3.528 5.736-1.7 1.152 2.606-2.767 1.064-14.7 8.414-5.938 3.824-1.198 5.164 2.333 5.406 1.049 6.629 9.904 11.048 23.179 14.524 5.52 1.788 5.204 2.744 4.061.536 5.394 1.7.253 1.251 1.524.984 1.999 1.163 1.554 2.027 2.475 3.28-1.11 2.176-3.332-1.61-2.257-1.386-4.246-.732h-1.728l-1.211-.76-1.526-.23-1.593-.823-2.154-.253-2.983-1.328-10.029-3.204-.785-.57-4.215-1.016-2.408-.234-1.66.106-1.627-.337-2.961.253-3.04 1.012-2.507 1.349-2.467 1.744-2.266 2.572-1.772 2.973.36.674-.809 1.118-.493 2.466-.765 3.038.75 2.94 1.47 2.602 1.004 1.213 2.522.984 1.507 1.55 1.206.924 1.856 2.132 2.02 2.81 3.2 6.64.126 1.416.65 1.447.223 1.415.782 2.699 5.135 5.658-5.726.89-2.08 1.233-.421 6.872 1.948 5.336 7.581 3.197 1.377 10.65-.568 4.722.533 5.869 2.545 3.465 10.925 8.256-2.199 11.102 16.88 8.926 5.222 13.732-10.308-.715-2.95-8.608-13.508-5.265-6.5 2.268-3.163-2.91 2.294-6.954-1.3-10.636-6.304-3.86-5.506-5.849-.906-13.002-4.84-8.018-5.86 1.258-8.725 7.986-14.905 4.83-4.026-3.834 13.24-8.869 8.973-10.001 8.258-18.263-3.67-7.652-12.964-13.748-3.338-9.118-2.01-1.112-16.09-.942.08-2.552-.45-2.659 18.27-2.318 2.685-1.885 3.485-7.947 1.183-8.957-2.185-3.734-9.793-11.734-7.263-15.912-6.87-5.332-6.962-5.353-10.8-3.04-7.543-5.04-3.951-1.193-4.722 1.514-7.738 13.108-6.077-1.345 1.927-7.82 1.793-6.959 6.995-24.804-3.588-5.444-5.568-3.352-8.146-17.455-5.95-2.754-6.898.789-5.408 8.532-16.69 27.49-2.452.554-1.02 1.492-2.789-2.256-3.106-.046-5.51 2.455-4.016-2.857 2.497-4.506 10.42-7.759 9.83-26.622-4.872-7.754-6.601-2.588-15.448-1.035-4.38-1.165-.427-2.724 3.011-5.457-4.099-6.429-5.79-2.875-15.354 5.446-3.342-4.62 6.82-6.695 10.447-8.037 3.06-2.137.943-9.616-20.586-.798-4.705-3.697-13.998-6.914-9.336-1.328-5.056 2.497-3.48-.628-9.744 19.236-2.24-.473-4.478-7.82-3.32-2.57-10.582-7.769-12.415 1.034-4.011 2.224-1.7.812-.733.129-1.408-.092-3.392-.522-5.095-1.713-2.679-.733-1.159.403-.2 4.601 6.007 11.905 10.077 18.808 5.268 9.369.171 11.265-2.251-.803-4.21-5.495-4.807-4.431-4.35-1.57-2.03-1.544-.473-5.63-15.61-11.608-3.776-1.145-4.865 3.335-9.372 8.752-5.079 1.85-6.695 4.318 6.166 13.832 1.557 7.946-3.466 3.143-7.15-1.918-5.137 3.016-5.734 5.083 1.07 6.716 3.975 11.306 6.107 9.513-1.493 3.074-16.393-6.341-10.053.208-4.238.068-1.57 6.069-1.914 13.644-3.495 2.856-4.18.361-17.942-4.253-12.051 8.097-9.505 1.31.353 1.18-2.684 2.268 5.562 7.382 12.122 10 4.558 6.183 5.426 2.544 2.258 1.965 5.762.304 8.646-2.993 9.277-3.316 3.23-.503.023 1.284-5.482 7.26-.693 9.756 2.314 10.172 11.1 13.88 8.944 2.489 9.384-1.653 19.653-6.19 4.275 1.156-12.347 9.043-6.447 5.375-.685 5.488 7.914 4.306 8.003 3.372 3.347 8.78 4.689 4.89 3.704.305 2.853-1.395 3.078 2.78-1.802 4.36 3.65 5.253 13.399 10.972 6.58.688 5.415-2.906 4.116 2.37-9.22 10.123 2.19 4.996 5.937 4.687 7.04 2.456 15.911 16.168-4.056 6.805-4.936-4.735-5.203-1.282-4.298-7.831-2.306-1.924-16.868-5.537-5.237 3.6-2.89-2.26 1.237-10.202 1.655-4.111-2.239-3.539-11.428-7.799-10.47-9.164-5.02 1.686-6.779 4.73-1.6-1.914-.033-1.389 3.616-9.567-1.097-5.583-2.821-3.112-22.739-11.3-9.241-6.153-4.056-.695-6.786-4.092-8.215-7.902-3.473-.725-2.232 3.496 5.089 27.793.973 14.601.422 6.98-5.075 1.36-8.615-35.721-6.926-12.378-7.076-1.69-6.754 3.559-11.506 10.799 1.93-4.455-2.897-2.128 5.866-10.852 7.945-7.57 4.116-7.26.5-3.715-3.703-7.228-9.456-7.192-9.058-5.181-9.629 1.932-26.433 46.611-5.423-5.267 5.342-23.069 5.727-18.548-2.29-5.623-2.425-2.71-1.436-2.24.056-3.81-1.15 2.771-2.138.445-3.101-.788-13.046-4.838-4.178-4.223-11.327 2.286-7.963 3.629-.017 7.805-1.677 5.077-2.257-.139-2.956-2.255-5.882-4.94-6.85-2.419-13.624-2.39-29.345 1.895-6.988.149-5.471 2.293-9.103 10.266-.097 8.859-.75 6.064-1.17 4.345-2.125 2.738-9.163-1.526-1.799.594-.506.975 3.01 6.21 2.44 4.413-.508.602-7.57.603-6.6 3.247-3.988 3.137-.972 3.197 2.076 1.957 1.535.69.861 1.906.441 2.107-1.072 1.985-4.312 2.173-10.687 3.737-1.15 1.209-.98 4.386.56 7.004 4.938 1.925 6.642 7.94 7.089 8.74 2.049 3.185 1.064 3.758 1.465.8 3.396-.154 2.088-.415.443 1.983-1.841.985-2.375 3.131.573 9.332 4.968 4.45 4.477 2.328 6.116.781 2.698 1.899-2.42.648-9.58-.026-6.052-.126-4.352-4.9-1.678-.387-.496-.414-1.444-.155-.62-1.06-.66-.388-.495-1.615-.371-.66-.743-.814.042-.866-1.404-1.408-.495.064-.275-.892-1.073-.568.887-.447.039-.95-.775-1.615h-.537l.125-.84-.759-1.64-1.638-2.186-3.191-1.935-1.673-1.737-1.596-2.12-2.373-2.104-5.236-1.35-6.398-.441-5.525 1.28-8.677 3.838-4.514.548-5.992.44-2.256.218-1.885 1.283-.727 8.774 3.228 7.796 2.239 5.762-1.772 2.398-2.912.613-8.834-1.11-2.768-.324-6.848-3.426-6.025-1.575-2.665.22-1.66.805-2.209 1.207-4.466 1.314-11.816.834-3.493.62-.506.9.68 3.817 1.27.8 3.513 1.801 3.905 3.25 9.12 10.872 4.272 3.71 5.942 4.993 6.465 6.633 2.499 2.166-3.1-1.713 1.325 1.669-5.446-2.752-1.484-.453-3.83-3.148-4.555-2.962-2.4-1.05-4.205-2.29-4.813-1.534-9.414-1.91-7.328-2.3-6.808-1.48-8.261-1.411-4.485-.603-2.294.81-1.206 1.706-.736 3.172.578 4.94.395 1.997-.935 1.431-3.265 1.723-4.006.676-1.676.8-.441 1.269.116 1.185 1.613 1.066 1.676.998.378 1.329-.658 1.6-1.33 1.095-4.692.478-1.79-.13-4.18-2.116-2.55-1.75-4.163.851-5.68 1.965-3.316 1.054-3.432 2.458-4.114 2.285-1.835 1.433-4.047 1.13-.05.816 2.89 4.122 5.706 5.624 3.16 1.803 2.997-.15 8.55-2.08 4.557 3.367 4.825 9.341 1.93 5.918 10.16 5.884 2.73 2.573 28.234 11.64 9.796 2.465.78 10.731 6.3 12.728 5.936 12.32 2.758 2.208 4.97 2.655 4.438 1.492 2.643 8.053.606 5.137 1.31 5.245 3.998 7.713 5.022 6.356 4.042 3.16 9.184 7.99 5.53 5.407 3.387 1.24 7.043-2.354 3.78 4.777-3.359 2.66-2.461 4.407.86 4.489 14.306 15.741 12.303 7.076 15.956-.823 3.012 2.224 4.92-2.186-2.294 17.367-3.246 8.244 1.666 5.587 24.953 6.879 5.875-.865 8.419 1.977 4.647 2.841.965 1.689 3.157 3.047-1.186 2.385-2.19 1.034-3.376.659-2.63 2.017-1.053 2.553-.132 2.472 3.113 6.877-1.613.947 1.864.989 1.907 1.935 1.052 1.565-.36.494-4.66 2.306-1.272-.206-2.236-3.047-1.907-3.027-.614-3.562-1.193-.948-1.24-1.07-1.272-1.544.219-1.627-.373-1.606 1.623-.927-.636-3.809-1.958-3.345-15.129-5.427-12.703 2.721-10.35 8.03-1.811-14.064-5.515-15.667-16.13-8.911-4.412-3.15-6.108-3.378-2.232-.583-1.674-1.514-1.24-3.028-.62-2.825-1.706-2.54-4.597-1.734-8.352-8.982-14.761-22.396-9.354-5.551-2.45-.816-1.581.903-2.76 2.825-2.79 1.777-.34 1.426-1.179-.35-1.953 1.166-2.79.379 1.333-1.544 2.17-4.164.992-3.903.403-3.815-.671-2.821-6.45-9.67-2.572-6.057-2.645-3.108-2.277-.534-.789-1.05-2.083-.907-1.578-.082-.221-1.35-1.555-.503-1.184.432-1.534-.494-2.829-.37-.525-.783-.858-.582-.877.14-1.14 1.297-1.403.33-1.03.823-1.988-1.43 1.669-5.333-.496-4.485-1.302-1.98.527-1.34.62-3.437.837-.728.155-1.194-1.116-2.883.279-2.534-.765-3.09-4.32-1.89-2.728-3.408-1.457-.35-.713-.96-2.108-.758-1.815-1.557-2.542-.117-5.209-2.505-2.852.233-3.103 1.214-1.361 1.757-2.999 2.123-3.332-1.668-1.644-1.997-.22-1.69.79-.679-.222-.749-1.488.626-9.301-1.674-1.003.562-.219 1.359-1.535 1.112-.592.927-.833.597-1.402-.37-.79-.66-.724-.988-.438-4.305-.745-1.709.034-2.642-1.67-.697-.438-.927-1.468-1.174.087-.721-1.447-2.224-1.096-1.236.57-1.05.263-.845-.872-1.056-1.78-.591-2.982-.165-2.894.288-1.008-.803-.482.865-1.185.124-1.337.906-1.315.062-1.316.432h-1.688l-.68-1.36-1.14-1.73-.306-1.647-1.118-1.42-1.272-.619-1.979-2.202-7.712-.316-8.553 12.87-11.992-.073-27.895 4.05-13.947 3.261-13.335 11.951-12.506 16.335-2.48 10.55 3.305 16.014 6.673 7.006 14.988 18.032 10.87 5.615 1.939 3.285-8.062 1.538-21.775-2.509-19.51-8.79-18.707-1.413-3.679 1.438-2.503 5.71-4.317 6.892-5.738 6.266-3.86 3.535-6.515-1.262-8.18 4.121-4.692 4.061-.734 8.627-1.513 1.291-13.001 7.161-4.382 3.349-1.835 4.373.87 3.719 5.655 3.024 6.44 1.317 42.444 30.963 7.597 19.201 7.751 4.053.337.26.511.686.268.32.438 1.213.122.412.22.824.072.434.098.412.049.434.122.412.072.412.122.412.39.732.56.71.268.32.585.594.267.343.244.39.658.823.17.389.073.411-.049.435-.56.366h-.462l-.463-.046-1.267-.709-.414-.183-.438-.16-.463-.068h-.487l-.439.182-.292.343-.024.435.316.298.341.274.39.23.317.25.292.298.195.366.048.412-.413.229h-.512l-.853-.32-.462.16-.341.32-.975.023-.486-.115-.39-.229-.439-.137-.39-.206-.803-.503-.439-.183-.926-.343-.414-.206-.365-.252-.438-.114-.706-.39-.39-.274-.39-.229-.341-.32-.39-.274-.438-.16-.463-.092h-.487l-.463.069-.487.023-.487-.046-.877-.297-.438-.183-.341-.275-.44-.206-.632-.595-.293-.343-.365-.251-.487-.023-.438-.206-.366-.252-.608-.686-1.828-1.83-1.826-.846-.829-.664-.487-.366-.974-.915-1.144-.892-.415-.23-.39-.297-1.047-.938-.268-.343-.22-.366-.584-.686-.267-.366-.341-.32-.366-.252-.34-.274-.415-.275-.39-.206-.39-.252-.413-.183-1.292-.663-3.653-1.03-.828-.251-.658-.115-.974-.068-.95-.115-.414-.228-.78-.527-1.315-1.67-.195-.389-.243-.366-.829-1.098-.633-.709-.609-.732-.317-.32-.779-.55-.999-.548-1.534-.298-.925-.206-1.048-.183-3.07.069h-2.922l-.511.023-.974.068-.975-.023-1.072-.64-.194-.412-.414-.228-.488-.023-.438.091-.438-.137-.707-.595-.682-.755-.365-.274-1.218-.618-.365-.297-.292-.32-.78-1.419-.536-.778-.584-.664-.342-.274-.413-.16-.488.023-.852.343-1.145.87-.39.251-1.12.824-.707.983-.17.16-.585.733-.34.32-.39.297-2.266 1.396-.414.229-.828.411-1.315.526-.853.32-.682.23-.438.205-.463.115-1.291.48-.95.298-.414.206-.365.229-1.656.891-.366.252-.536.893-.024.41-.244.367-.365.275-.439.16-.34.343-.244.366-.317.823-.34.778-.293.39-.682.594-.39.298-.9 1.006-.342.298-.438.778-1.535 1.647-2.363 1.692-.39.206-1.193.824-.706.572-.341.32-.366.297-1.29 1.282-.682.594-.414.275-.39.297-.341.32-.268.367-.56.731-.341.275-.268.366-.901 1.076-.39.525-1.462 3.592-.316.343-.56.458-.999.732-1.194.55-1.023.41-1.412.504-4.287 1.99-.61.458-.364.297-.463.298-.658.64-1.461 4.049-.073.458-.22.846-.292.87-.146.48-.17.457-.464.87-.316.846-.17.39-.463.914-.22.389-.146.435-.584 1.12-.415.893-1.631 2.562-.61.526-.486.32-.755.366-.78.527-2.29 1.372-.779.526-.438.23-.804.456-.365.275-.317.343-.366.298-.95.983-.584.71-.17.388-.122.138-.146.434-.658 3.5-.025 1.35-.024.435-.39 1.67-.413 1.349-.17.435-.171 1.555-.341 1.327-.317.938-.268.732-1.9 2.86-.901 1.486-.195.389-.098.412v2.653l.025.184.487 1.074.122.412.195.366.438.732.146.824.097.8v.435l-.072.869-.195.938-.293.846-.121.435-1.194 2.288-.56.686-.317.32-.365.32-.293.298-.34.297-1.583 1.487-.415.457-.243.366-.22.39-.17.388-.122.389-.097.412-.22 1.35v.548l.255.72-77.964-131.239.331-.57.044-.497.098-.434.17-.435.22-.366.535-.709.877-.983.463-.183 1.729-.412.366-.206.755-.39.219-.365.097-.412.025-.435v-.435l-.195-.846-.024-.458 1.923-3.363.147-.412.194-.366.902-1.212.438-1.259.097-.892-.17-2.54.512-.686.657-.571 1.389-1.076 1.12-.732 2.143-1.762.244-.366.682-.778.39-1.35.122-.983-.05-.458-.194-.824-.073-.412-.025-1.326.122-.847.341-.8.731-1.121 1.242-1.648.755-.55.415-.754.633-1.51.511-.892.877-1.19.999-1.121.39-.16.292-.32.852-2.06.293-.411.316-.275.463-.206.731-.503.121-.412.098-.71-.098-.48-.219-.618-.414-.777-.78-1.099-1.388-1.876-.633-.686-.536-.732-.34-.298-.293-.343-.877-1.442v-.434l.244-.961.22-.366.267-.32.366-.252 1.315.274.414-.091.633-.55.195-.365.292-.298.804-1.007.146-.389.243-.388v-.504l-.194-1.35-.049-.503.195-.39 1.778-1.349.365-.755.195-.686.439-.916.584-1.35 1.632-2.608.78-1.052.584-.664.341-.275.78-.388 2.679-.8 2.68-.321.827-.435.585-.572.219-.824.025-.435-.61-1.006-.462-.092-2.339-.137-1.388-.206-.511-.045-.439-.07-.487-.022-.487-.092-.901-.228-.512-.206-.414-.23-.341-.297-.316-.32-1.072-2.014-.17-.412-.074-.457-.097-.434-.73-1.099-.561-.32-.122-.435-.682-1.144-.317-.824.024-.457.244-.344 1.413-.023 1.413-.366.39-.25 1.778-1.763.706-.572.365-.229 1.681-1.99.22-.367.754-.571.39-.206.439-.16.413-.069.439.023.877.206.463.046.828.137.462-.069.658-.572.244-.366.219-.824-.073-.412-.146-1.327.56-1.51.049-.48.097-.435.073-1.098.244-.847.073-.412-.268-.343-.439-.183-.39-.252-.316-.366-.463-.984v-1.098l.901-2.31.366-.779.219-.846-.049-.435-.925-1.076-.244-.366-.146-.847.073-.411.536-.663 1.096-.618.268-.344.828-.549.901-.435.439-.114 3.532-1.236.462-.045.999.023 1.876.434.438.138.365.228.414.183.415.092.438.023.877-.023.414-.16.292-.298.634-1.144.291-.32.683-.55.755-.48.39-.183 2.996-.435.877-.183.852-.412 1.047-1.189.17-.412.073-.8-.145-1.488-.074-.435-.024-2.06.073-.411.317-.824.244-.343.34-.275.05-.412-.731-.617-.658-.664-.438-.16-.95.046-.902.206-1.85.572-.44-.229-.267-.366-.317-.32-.487-.069-.463-.023-.365-.343-.171-.412.39-.847.56-.64.853-.847.438-.778.633-3.455.025-1.328-.073-.411-.195-.412-.926-1.052-.365-.275-1.218-.732-.682-.23-.22-.365-.072-.435v-.892l-.122-.435-.926-1.51-.146-.87-.024-1.373 1.485-.87h.463l.902.16.414.16 1.388.39.439.206.877.48.755.55.34.343.536.755.341.32.39.229.414.114.463.023.438-.16 1.56-.892.827-.275h.487l.439.092.828.297.755 1.099.341.8.244.367 1.534 1.99.95.893.39.229.414.091.487-.046 1.949-1.945.34-.274.829-.48.439-.115.486-.023.415-.16.365-.206.292-.32.17-.39.317-.297.39-.16.39-.206.292-.32.098-.412.097-2.723.487-2.312.195-.389.511-.708.073-.412-.073-2.906.025-.87.463-1.67.438-.733.292-.32.39-.252.39-.183 1.705-.458 1.193-.549.585-.595.536-.709.633-.595 1.096-.71.633-.64.438-.206.39-.229.683-.503.657-.55.584-.663.561-.892.146-.412.097-.412.122-1.282v-3.615l.658-1.83.049-.962.17-.824.025-1.303-.025-.435-.414-1.282-.463-1.006-1.145-2.266-.048-.503.219-.458.39-.229.901-.297.39-.23.852-1.12-.195-1.465-.121-.412-.17-.412-.27-.343-.681-.618-.39-.846-.243-.824.414-.252 1.826-.114.926.045 1.023.206 1.486.183.73.641.415.115.877-.32.438-.047.414.07.414.16.293.343.39.16.462-.046.438-.16.756-.435.755-.503.73-.435.682-.526.244-.344.95-.8.877-.07 1.461.115.56-.091.098-1.076v-.686l.365-2.22.073-.687-.073-.435-1.802-1.739-.317-.686-.049-.481.049-.915.414-.916 3.167-1.418.877.091.462-.068.415-.206.73-.412.438-.115.926.023.365.206.634.618.706.458.414-.115.244-.343.39-.8.584-1.832-.146-.457-.78-1.67-.316-1.35-.025-.87.098-.412.804-1.58.779-1.052.292-.32.39-.229.828-.343.488-.137.438-.092h.463l3.604-.686 1.413-.23 1.754-.022.73-1.076-.194-.892-.024-.87.316-.801.097-.412.05-2.197.243-.846.243-.39 1.096-1.327.244-.343.585-.618.998-1.212-.146-.435-.268-.366-1.145-.984-2.143-1.625-.292-.343-.147-.435-.072-.412v-.435l.048-.412.146-.435.073-.412-.316-.32-.365-.252-.536-.16h-.488l-.463-.069-.463-.206-1.607-1.327-.22-.389-.121-.435-.049-.434.244-.824.292-.298.39-.229.39-.183 1.413-.434.827-.367 1.657-.64.78-.366.754-.458.341-.275.293-.32.317-.275.438-.893-1.048-.892-.95-.732-.925-1.213-.073-.526v-.961l.195-1.717-.05-.503-.535-1.327-.414-.413-.61-.412-.267-.366-.34-.824-.123-.411-.462-2.93-.025-.869.487-1.808 1.218-2.632 1.267-1.762.438-.778.195-.435.317-.846.024-1.74.56-.64.244-.367.536-.526.244-.343.39-2.197.121-.412.438-.733.293-.32.852-.504.463-.091 1.047-.023.244.39.244.823.194.367.366.228.462.092.926-.115 1.096-.687.901-.48.39-.183.56-.115h1.852l1.096.252.755.275 1.656 1.9zM271.68-148.919l.291-.692.23-.938-.015-.275-.86-.461-.766-.289-.722-.375-.706-.462-.306-.461-.553-1.631-.445-.693-.276-.1-.2.201-.137 1.285.03.274.445 1.024v.549l-.169.245-.291.087-.552.476.06.288.308.448 1.058.937.798.867.507.331.552.202.292-.057 1.09-.55zM436.087 372.866l.143.854.679.659 1.544 1.728.602.844.711-.278-.076-2.758.57-2.068-1.161.031-1.413.298zM440.459 383.973l2.415-.655.48-.917-.216-2.78-3.16 1.18-.387.64-.433.539-.108.626.263.145.573.975zM441.635 387.48l1.286 1.79 2.307.073.573-.262-.155-3.23zM440.303 384.468l3.206-.96.232 1.95-.48.815-.325.276-.836-.175-1.192-.974zM423.724 248.23l-.199.058-.138.115-.107.173-.016.448.077.202.153.144.23.043h.384l.153-.058.17-.115.061-.16v-.475l-.03-.144-.2-.187-.246-.044zM421.255 248.107l-.085.014-.061.058-.046.08v.122l.475 3.072.039.101.054.08.092.029h.107l.176-.036.17-.073.053-.079.015-.094-.49-3.13-.031-.072-.084-.064-.078-.036-.107-.008zM421.66 252.42l-.106.022-.07.065-.038.094-.007.1v3.44l.023.102.054.072.076.05.107.05.276.015.115-.043.078-.072.053-.094.015-.101-.007-3.426-.016-.086-.045-.072-.07-.065-.13-.03zM422.942 250.422l.047 5.654.023.13.068.087.123.057.153.015h.162l.107-.03.084-.064.062-.087.03-.108-.03-5.66-.046-.11-.115-.071-.161-.036-.208-.007-.107.022-.084.057-.077.065z" clip-path="url(#pcf38824693)" style="fill:#00f;fill-opacity:.8"/></g><g id="PatchCollection_2"><path d="m498.123 357.687-.555.291-.39.382-.162.34-.023.468.208.663.406.635.076.404-.06.418-.37.995-.076.894.184 1.24.592 1.142.007.272.107.274.215.151.43.05.429-.071.507-.246 1.718-.908 4.86-2.016.48-.162.552.073.353.46.338.837.934 1.818.002.352-.222.304-.407.23-.821.303-.387.336-.074.457.146.534.56.959 1.051 1.168.69.836.561.468.2.095.314-.057.322-.145.23-.202.46-.007 1.013-.274.755-.511 1.624 1.528.383.274.445.014 1.132-.926 1.045-.627 1.46-.61 1.61-.404 3.33-.62 3.422-.505 3.381-.213 5.933-.306 5.754-.49 7.12-.347 4.735-.267.544-.165.475-.476.092-.736-.706-7.34-.214-4.34-.092-2.179-.093-1.226-.215-.504-.388-.4-2.48-.855-2.61-.765-2.73-.706-2.358-.678-4.103-.649-2.025-.39-1.806-.476-2.26-.85-2.025-.938-4.118-1.926-.67-.424-.721-.289-.522.145-1.688.937-2.04 1.183-1.81 1.11-1.198.764-1.21.4-1.69.25-5.892.605-3.575.346-1.565.101-1.12-.13-.724-.578-4.964-6.035-4.949 2.47 3.753 3.582 1.689 5.248 3.217-1.223.328.005.3.209.531 3.958-.179.542-.583.519-1.488.85zM609.98 405.989l6.882-3.067 5.167-2.01.48.395.275.721.592 2.356-.04 1.307-.094 5.085.555 2.01v1.5l-.061 2.422.253 5.278-.59.952-.89.721-.915.405-3.168.316-2.762.231-3.177.397-.781-.483-.485-.728-.512-9.569-.292-4.268zM419.905 247.624l-.062-2.264 5.079-.173.076 2.25z" clip-path="url(#pcf38824693)" style="fill:#006400;fill-opacity:.8"/></g><g id="PatchCollection_3"><path d="m439.227 343.482 1.709 3.274 3.357-1.548-1.709-3.274zM426.44 353.14l-.152.403 1.241 2.476 2.179-.99-1.367-2.778z" clip-path="url(#pcf38824693)" style="fill:green;fill-opacity:.8"/></g><g id="PatchCollection_4"><path d="m419.476 347.075 4.493-2.104-1.708-3.223-4.493 2.103zM388.827 355.93l3.123-1.584-2.559-4.454-3.122 1.585z" clip-path="url(#pcf38824693)" style="fill:#90ee90;fill-opacity:.8"/></g><g id="PatchCollection_5"><path d="m139.342 586.928 10.996 21.831 24.046-14.674-11.125-20.746zM581.848 495.374l10.646 7.771 34.497-18.01-.355-15.742-8.66-.4-1.738 3.502-8.376-.3-3.691 1.4 1.065 2.902-6.353 2.168 5.075 7.804-9.227 3.736-4.437 1.3-4.365.867zM463.937 487.538l36.697-4.636-2.342 6.037-11.18-.6-5.571 2.768-4.827.1-1.1.8-1.349 3.835-1.526 1.301-2.307-.8-1.668-1.1-1.49 2.934-3.195-.667-1.384.534-2.022-1.801zM498.123 357.687l-.555.291-.39.382-.162.34-.023.468.208.663.406.635.076.404-.06.418-.37.995-.076.894.184 1.24.592 1.142.007.272.107.274.215.151.43.05.429-.071.507-.246 1.718-.908 4.86-2.016.48-.162.552.073.353.46.338.837.934 1.818.002.352-.222.304-.407.23-.821.303-.387.336-.074.457.146.534.56.959 1.051 1.168.69.836.561.468.2.095.314-.057.322-.145.23-.202.46-.007 1.013-.274.755-.511 1.624 1.528.383.274.445.014 1.132-.926 1.045-.627 1.46-.61 1.61-.404 3.33-.62 3.422-.505 3.381-.213 5.933-.306 5.754-.49 7.12-.347 4.735-.267.544-.165.475-.476.092-.736-.706-7.34-.214-4.34-.092-2.179-.093-1.226-.215-.504-.388-.4-2.48-.855-2.61-.765-2.73-.706-2.358-.678-4.103-.649-2.025-.39-1.806-.476-2.26-.85-2.025-.938-4.118-1.926-.67-.424-.721-.289-.522.145-1.688.937-2.04 1.183-1.81 1.11-1.198.764-1.21.4-1.69.25-5.892.605-3.575.346-1.565.101-1.12-.13-.724-.578-4.964-6.035-4.949 2.47 3.753 3.582 1.689 5.248 3.217-1.223.328.005.3.209.531 3.958-.179.542-.583.519-1.488.85zM330.8 406.764l-.34 3.524-9.855 1.174.66-3.792zM483.586 329.432l2.081 4.2 4.883-2.327-.438-5.269zM454.015 306.569l3.125 6.294 7.895-3.801-3.852-6.074zM417.028 418.393l6.55-1.084 4.818 9.245-8.431-.26-2.836-2.24zM386.315 350.993l6.098-3.137-1.28-2.807.853-3.538-8.758 6.039zM330.621 410.875l-.5 3.708 1.233.806 5.767.033.143-5.487zM517.043 382.118l4.211 7.888 5.76-2.183.775-3.842-4.862-4.511zM238.642 415.173l8.812.632-.491-6.485-4.11-.631-2.764.389-1.266 3.108zM516.38 480.592l14.63-1.721-.452-1.816-4.542-6.485-5.396 1.32-1.58 1.109zM514.949 407.939l2.452 8.191.657 7.368 6.657-8.273-2.145-3.664 1.707-9.014-6.963.452zM345.099 324.034l4.442 3.986 3.513-3.113 2.435 2.995 4.743-3.774-2.41-3.066 3.438-2.996-5.395-3.326zM276.788 417.218l4.446-.57.893-8.592-.571-.739-7.554 1.091L273.2 412l.679 1.964 3.91-.387zM197.512 427.93l3.49-.103-1.005 4.378.895-.154-1.827 4.138-2.083 1.237.859-2.525-.895-3.846z" clip-path="url(#pcf38824693)" style="fill:#006400;fill-opacity:.8"/></g><path id="PatchCollection_6" d="m441.637 344.562.366.742-.12.05.288.178.41-.178.06-.341-.104.05-.357-.754z" clip-path="url(#pcf38824693)" style="fill:#a9a9a9;fill-opacity:.8"/></g></g><defs><clipPath id="pcf38824693"><path d="M90 92.893h558v541.414H90z"/></clipPath></defs></svg>