<svg xmlns="http://www.w3.org/2000/svg" width="960" height="960" viewBox="0 0 720 720"><defs><style>*{stroke-linejoin:round;stroke-linecap:butt}</style></defs><g id="figure_1"><path id="patch_1" d="M0 720h720V0H0z" style="fill:#fff"/><g id="axes_1"><path id="patch_2" d="M90 626.237h558V100.963H90z" style="fill:#fff"/><g id="LineCollection_1"><path d="m409.078 376.052-5.462 3.024M409.078 376.052l.44-.227M409.078 376.052l1.125 1.459.208.397M409.078 376.052l-4.173-4.564M375.635 207.437l-.417-3.405-5.385-23.151-.618-1.868M359.95 169.32l1.164.529 3.126 1.99 2.499 2.534 1.517 2.323.96 2.317" clip-path="url(#p27c3e0814d)" style="fill:none;stroke:#000"/><path d="m394.304 202.58.52-.713 1.384-1.438 1.487-.792 2.261-.818 1.265-.674 1.056-.778.818-1.188 1.086-2.653.112-.78-.29-.679-.529-.343-1.517-.924-1.584-1.148-1.042-1.063-.706-.838-.573-.449-.855-.409-1.376-.442-1.815-.475-1.093-.416-.967-.614-1.19-.983-1.495-.885-1.466-.726-1.011-.244-1.838-.343-2.022-.429-1.897-.343-1.094-.317-1.241-.455-1.034-.673-.603-.258-.922-.046-.893.053-.93.257-1.398.337-1.034.139-.513-.027-.52-.165-.462-.528-.245-.27-.297-.093-.626.066M394.601 286.89l.647-.166M394.601 286.89l.26.712M390.855 252.275l.533 2.967 1.68 20.707.685 6.322.268 2.573.58 2.045M403.988 323.365l.855-.35M402.991 326.42l.149-.363.297-.633.55-2.059M403.616 309.792l.126 2.053.216 4.552.216 4.936-.186 2.032M392.6 351.832l.474-.149M392.6 351.832l-2.58 1.522M392.6 351.832l.873 5.237.081.78M392.891 348.998l-.295 2.092.005.742M411.797 381.826l-6.057 1.765M411.797 381.826l.494-.144M411.797 381.826l1.053 3.158M410.41 377.908l.318.607 1.069 3.311M418.596 404.896l2.04 4.146M418.596 404.896l.425-.14M418.596 404.896l-1.767-2.98M432.526 427.511l-.52-.893-.49-.666-.222-.305-2.539-3.46M435.392 432.487l-.94-2.03-.77-1.267-.59-.883-.566-.796M428.317 422.402l2.731 3.808.437.428 1.04.873M145.669 352.607l-1.382.436-1.711.7-1.25.5-.877.753-.387.7-.417 1.029-.282.844-.55.62-1.057.713-3.392 2.045-1.859 1.267-1.532 1.346-2.708 2.52-2.022 2.178-.953 1.2-1.011 1.729-3.169 6.472-1.963 3.86-1.138 1.63-.867 1.173" clip-path="url(#p27c3e0814d)" style="fill:none;stroke:#000"/><path d="m169.546 402.815-.93-.692-1.947-1.227-1.668-1.063-.907-.429-.99-.244-2.692-.098-2.023-.185-5.467-1.043-1.25-.323-1.323-.402-2.812-1.419-7.096-3.846-1.547-.838-1.39-.796-4.344-3.519-1.92-1.16-1.316-.595-5.006-1.3-.914-.105-1.57.08-3.905.679-1.387.032M205.583 328.774l-1.492.963M232.812 314.682l-.505.317-.774.514-.997.476-1.77.699-3.421 1.175-3.943 1.068-3.339 1.016-1.116.515-1.227.72-2.47 1.86-2.885 2.257-2.5 1.761-1.383.964-.899.75" clip-path="url(#p27c3e0814d)" style="fill:none;stroke:#000"/><path d="m205.207 330.382.055-.293.321-1.315M382.246 346.59l-1.392-.33-4.792-1.167M351.293 341.248l1.392.236 8.676 1.616 2.254.139 3.682.013 1.979.057 6.786 1.784" clip-path="url(#p27c3e0814d)" style="fill:none;stroke:#000"/><path d="m384.233 340.745-2.343-.192-1.369.066-1.079.442-1.07.786-2.31 3.246M386.009 347.422l6.882 1.576M386.009 347.422l-1.437-.343M386.009 347.422l2.87-5.276M392.891 348.998l.496.385M393.8 344.546l-.15.569-.759 3.883M398.175 346.938l2.346-3.41 2.54-4.387.086-.191.026-.155-.06-.129-.17-.092-7.16-1.676M394.296 343.773l.992-5.394.495-1.48M400.098 330.788l-1.853 2.151-1.093 1.293-.55 1.062-.819 1.604M394.3 344.794l-.5-.248M394.3 344.794l3.875 2.144M394.3 344.794l-.004-1.02M393.387 349.383l.795-4.094.118-.495M393.387 349.383l9.138 9.29M393.074 351.683l.04-.696.273-1.604M394.192 357.625l-.776-4.216-.342-1.726M393.554 357.85l.638-.225M393.554 357.85l-5.43 3.455M393.554 357.85l1.054 1.6 2.834 3.254M397.84 362.392l-3.195-3.853-.453-.914M402.525 358.673l-4.685 3.72M402.525 358.673l4.389-3.65M409.61 365.616l-.203-.197-1.023-1.074-5.859-5.672M397.84 362.392l-.398.312M401.755 366.949l-3.407-3.976-.508-.58M397.442 362.704l-4.704 3.704M397.442 362.704l3.852 4.515M409.61 365.616l1.197 2.185M409.61 365.616l.194-.334M414.378 394.064l-5.897 1.611M414.378 394.064l.496-.074M414.378 394.064l.257 1.75M414.378 394.064l-.73-5.374M425.811 399.473l-8.414 2.239M425.811 399.473l.293.709M422.524 391.982l1.993 4.416 1.294 3.075M417.397 401.712l-.568.204M417.397 401.712l-1.63-3.136-.393-1.077-.198-.712-.11-1.024M419.021 404.755l-.073-.142-1.551-2.901M416.83 401.916l-6.213 1.817M414.635 395.813l.138.933.223.97.208.873 1.625 3.327M433.327 413.855l-2.304 1.137M435.884 416.558l-.406-.708-.84-1.044-.516-.694-.362-.188-.433-.069M429.253 406.481l.552 1.084 1.25 2.395.55.812.647.741.46.696.369 1.038.246.608M437.176 419.073l-.603-1.373-.69-1.142" clip-path="url(#p27c3e0814d)" style="fill:none;stroke:#000"/><path d="m449.646 407.294-2.955 1.441-2.51 2.795-.395 2.14-1.723 1.747-6.18 1.141M425.41 417.193l-4.275-8.34M431.023 414.992l-2.818 1.077-2.794 1.124M428.755 422.187l-1.487-2.166-1.223-1.797-.634-1.03M437.176 419.073l-3.46 1.023M438.623 424.158l-.176-.663-.654-2.253-.617-2.169M441.59 438.727l.427.903M441.59 438.727l-.263-1.011M441.59 438.727l-.634.636M442.017 439.63l2.92.29M440.956 439.363l.265.046.796.221M452.672 477.575l-.245-.643-1.228-3.385-.732-2.565-.554-2.279-.51-2.062-.252-.97-.057-.737.222-3.498-.112-.995-.216-.644-.293-.586-.376-.643-.288-.46-.465-.854-.651-1.464-.587-1.549-.704-2.535-.55-2.17-.737-2.272-.824-2.729-.94-3.116-.556-1.789M410.807 367.801l-5.412 3.423M410.807 367.801l1.644 3.587M405.395 371.224l-3.64-4.275M405.395 371.224l-.49.264M405.395 371.224l4.122 4.6M404.905 371.488l-4.73 3.183M404.905 371.488l-3.611-4.269M413.486 373.58l-3.969 2.245M413.486 373.58l1.715 3.623M413.486 373.58l-1.035-2.192M410.79 377.725l-.187-.352-.512-.79-.574-.758M412.29 381.682l4.541-1.156M412.29 381.682l-1.157-3.308-.343-.649M413.356 384.85l-.335-.997-.73-2.17M413.356 384.85l-.506.134M414.141 388.596l-.392-2.153-.393-1.593M412.85 384.984l.4 1.562.398 2.144M420.06 387.466l2.464 4.516M420.06 387.466l-3.229-6.94M420.06 387.466l-5.919 1.13M414.141 388.596l-.493.094M414.141 388.596l.733 5.394M413.648 388.69l-6.16 1.208M422.524 391.982l-7.65 2.008M414.874 393.99l.191 1.773M406.914 355.024l-.762-3.417M407.643 358.226l-.405-2.049-.324-1.153M375.33 390.59l-.38 1.577-.595 1.9-2.454 7.759-1.339 3.681M379.808 376.836l-1.248 1.032-.322.655-.172.647-.275 2.448-1.36 5.806-1.102 3.167M354.768 414.422l1.26-3.228 2.827-8.51 2.291-6.289 1.056-1.681.78-.614 1.094-.508 8.45-2.256 2.803-.745M416.831 380.526l-1.63-3.323M405.74 383.59l-11.065 3.332-.275.145-.171.191-.193.436.074.792-.052.825-.223.646-.937.766-2.24.963M403.616 379.076l-3.442-4.405M403.616 379.076l2.124 4.515M400.174 374.67l-7.436-8.262M378.72 367.525l5.616 5.579M378.72 367.525l4.234-2.767M378.72 367.525l-4.886-5.865M378.72 367.525l-3.026 2.62M407.487 389.898l-1.747-6.307M407.487 389.898l.994 5.777M407.487 389.898l-5.845 1.487M408.481 395.675l-11.135 2.49-4.789 1.308M410.617 403.733l-2.136-8.058M410.617 403.733l2.837 8.024M420.635 409.042l-7.18 2.715M420.635 409.042l.5-.189M420.635 409.042l2.27 4.515M413.454 411.757l1.196 4.085M435.392 432.487l2.064 6.906M417.993 435.992l1.756.066 2.767-.184 1.829-.393 5.103-1.151 1.613-.422 1.6-.548 2.731-.873M428.755 422.187l4.96-2.09M428.755 422.187l-.438.215M440.956 439.363l-.565-.1-1.493-.008-1.442.138M443.138 465.61l-1.738-11.368-.844-3.903-.876-3.942-.6-2.205-.447-1.424-1.177-3.375M457.544 440.894l-1.793.074-1.282-.127-2.619-.409-3.637-.469-1.913-.139-1.363.095" clip-path="url(#p27c3e0814d)" style="fill:none;stroke:#000"/><path d="m459.236 440.957-1.9.448-1.642.097-1.3-.107-2.648-.416-3.57-.474-1.912-.288-1.327-.298M392.54 421.228l-1.009-.04M417.993 435.992l-.848-.296-4.135-2.032-5.534-2.771-4.604-2.072-1.815-.963-.412-.33-1.552-1.906-.602-.627-1.585-1.399-1.643-1.035-2.722-1.333" clip-path="url(#p27c3e0814d)" style="fill:none;stroke:#000"/><path d="m414.65 415.842-10.053 2.43-7.303 1.657-2.708.593-2.045.706M295.164 398.87l2.417.693 10.376 2.507 8.018 2.025 3.444 1.062 17.613 4.619 17.736 4.646M391.531 421.188l-.307-.012-.982-.166-2.885-.738-7.505-2.151-1.495-.29-4.396-.62-6.39-.74-4.395-.29-1.515-.227-6.893-1.532M422.905 413.557l-8.255 2.285M422.905 413.557l1.882 3.684.787 1.216 2.743 3.945M392.738 366.408l-3.238 2.557M392.738 366.408l-4.614-5.103M388.124 361.305l-3.623-4.084M388.124 361.305l-5.17 3.453M380.74 352.749l3.761 4.472M380.74 352.749l4.8-3.654M380.74 352.749l-5.119 3.413M384.336 373.104l-.284.22M384.336 373.104l3.496-2.783M389.407 379.052l-5.355-5.728M382.954 364.758l4.878 5.563M382.954 364.758l-3.622-3.96M387.832 370.32l1.668-1.355M387.832 370.32l6.009 6.285M371.992 351.889l3.63 4.273M379.332 360.798l-3.71-4.636M379.332 360.798l5.169-3.577M384.501 357.22l5.014-3.516M368.97 361.252l6.651-5.09M386.057 348.756l-.518.34M386.057 348.756l-1.485-1.677M386.057 348.756l3.963 4.598M389.515 353.704l.505-.35M389.515 353.704l-3.976-4.609M385.54 349.095l-1.98-2.198M383.56 346.897l1.012.182M383.56 346.897l-1.314-.308M406.152 351.607l-.12-2.05M398.175 346.938l6.236 3.383 1.741 1.286M390.855 252.275l-.684-1.766-1.625-2.487-6.069-7.245-4.747-5.308-1.411-2.295-.67-2.296-.223-2.824.209-10.915.089-7.233-.09-2.469M391.79 203.94l-.819.007-.818.178-3.734 1.438-2.618 1.142-.877.211-.804-.073-2.9-.706-1.414-.184-.788.02-.55.283-.35.495-.483.686M390.855 252.275l.6-.096M470.39 546.089l-.542-.541-1.404-1.606-1.443-1.959M456.26 516.579l1.47 4.354 1.13 3.156 2.37 6.252 1.249 3.536 1.586 3.575 1.104 1.949 1 1.408.832 1.174M328.953 495.958l-.333.974-.104.594-.015 1.57v1.952l-.201 1.966-.26 2.058-.06 3.397-.186 2.051-.543 4.202-.46 2.045-.172 3.443-.335 3.35-.513 9.842-.142.765-.557.943-.737.858-.431.705-.022.522v.455l.09.85.348 1.102.201.244.476.218.647.402.752.752.944.95.484.54 1.235 1.109 4.008 3.865 2.976 2.935.75.27.574.034 2.484-.462 1.83-.185 3.153.178 1.012-.198.892-.5.73-.72 2.223-2.52.714-.771.55-.337.87-.323 1.355-.277 5.318-.771 1.13-.027.67.37.2.296.134.297.41.897.989.495 1.1.171.432-.072 1.487-.541 1.89-.792 1.941-.462 2.841-.237 2.32-.145 1.898-.39 1.138-.124 2.476-.146 4.158.053 3.563.614 2.819-.132 3.235-.205 7.051-.382 4.292-.132 2.239-.56 2.826-.93.952-.31 1.28-.68 1.502-.89 2.261-.99 2.58-1.082 1.875-1.233 3.467-2.138.922-.184.75.092.73.298 2.224 1.1 4.068 2.33 1.86 1.028 1.197.508 2.172.488 2.157.336 2.432.245 2.975.111 3.37.159 3.079.105 2.745.33 2.73.27 1.993.185 1.331.257 1.688.62.774.172.952-.007 1.13-.197 2.068-.89M483 557.127l1.651-4.703M486.355 563.815l-1.465-2.983-1.89-3.705M477.087 551.49l.435.407 2.347 1.615 1.822 1.722 1.309 1.893M153.041 226.444l-.989-.192-.565-.257M139.904 221.218l1.11.236 5.273.251 1.614.132 1.086.687.551.587.873 1.192 1.076 1.692M151.943 228.717l.183-1.073-.215-.738-.424-.911M177.132 221.27l-1.718.567-2.64 1.089-3.546 1.961-1.044.223-1.494.14-4.88-.364-2.03.026-1.324.238M153.041 226.444l.826-.12 4.589-1.174" clip-path="url(#p27c3e0814d)" style="fill:none;stroke:#000"/><path d="m145.046 161.134.743 1.122 1.904 1.663 1.74 1.188 1.637.911.506.713.06 1.096.059 3.352.476 1.162 1.266 1.42 1.129.758 4.85 2.758 2.224 1.472 1.494 1.089 2.566 3.095 2.157 2.16 2.723 2.348.802.901 1.235 2.062 1.764 3.128.698.984 1.288 1.392.17.93-.26.832-.788 1.545-3.57 5.418-5.036 7.398-4.017 5.74-3.005 4.502-1.405 2.877M227.823 221.58l-1.34.086-6.256.336-1.562.277-1.093.37-1.183.7-1.91 1.82-2.842 2.785-1.287 1.083-1.621.838-1.74.429-1.95.02-2.172-.37-2.417-.732-2.03-1.023-2.388-1.637-3.82-3.115-1.245-.732-1.666-.706-4.493-1.036-2.677-.482-1.644.033-3.355.746M184.704 205.867l-2.261 1.57-.833.832-1.353 2.218-2.292 5.173-.773 1.822-.164 1.504.104 2.284M230.008 221.177l-2.185.402M243.372 216.68l-1.463.683-6.166 2.362-3.288.957-2.447.495M223.852 306.075l2.906-3.943.298-1.24-.833-4.567-.045-.462.282-2.019-.126-.495-.23-.31-1.942-.97-.372-.409-.156-.415.052-1.386-.163-.39-.692-.712-.774-.944-.878-1.814-.795-1.848-.171-1.056-.819-4.744-.602-2.06-1.8-4.414-.126-.857-.067-1.129.617-4.91.49-2.593v-.818l-.185-.666-1.079-2.184-.253-.779-.096-.693.2-1.076.849-2.989.974-2.837.662-1.439 2.402-4.197 1.956-3.722 1.577-2.574 1.517-2.322 1.533-2.456.357-.996-.09-.634-1.338-1.979-.454-1.036v-.693l.23-.673.61-.581 2.299-1.604.528-.653.216-1.036-.313-2.574M342.112 144.839l-2.938-3.017M337.15 148.11l2.989-1.822 1.028-.697.945-.752M350.74 154.092l-.662-.264-.915-.548-1.19-1.162-5.861-7.28" clip-path="url(#p27c3e0814d)" style="fill:none;stroke:#000"/><path d="m357.441 143.895-1.264 1.676-1.324.746-1.324.317-.818-.225-2.254-.448-1.123-.08-1.309-.019-1.19-.245-2.916-.924-.766-.125-.61.013-.431.258M327.69 154.234l9.46-6.124M304.03 169.304l8.576-5.332 7.676-4.95 7.408-4.788M346.374 162.995l-15.202-6.907-2.336-1.152-1.146-.702M325.495 152.175l.916.93 1.279 1.129M269.586 192.166l1.294-1.03 4.224-2.956 8.955-5.94 9.446-6.045M304.03 169.304l-.821.575-9.704 6.316" clip-path="url(#p27c3e0814d)" style="fill:none;stroke:#000"/><path d="m342.179 201.419-1.131 1.953-1.547 1.175-2.752 1.888-1.324 1.108-1.28 2.548-.341.448-.655.066-.625-.158-.446-.066-1.026.343-.7-.185-.966-.871-.923-.924-1.026-.818-3.674-1.848-8.985-4.237-2.708-1.122-.937-.092-1.874.409-.907-.105-.536-.45-.104-.765-.06-1.465-.58-1.214-1.011-1.056-.923-1.136-2.826-4.46-3.154-4.633-2.201-3.947-3.452-5.61M256.97 206.124l1.436-.851 1.384-1.01 1.093-.99M269.586 192.166l-.581.462-2.045 2.29-2.38 2.97-2.023 3.419-1.674 1.966M203.842 165.22l1.369-.271 1.554-.25 1.48-.113.997.099 1.547.402 2.015.43 2.174.293 1.761.551.878.667.735.827 2.277 2.057 3.592 2.937 2.515 1.828 2.47 1.38 2.045 1.022.595.647.148.62-.372 1.4-.476 1.333-.699 1.452-1.577 3.326-.67 2.151-.118 1.994.223 1.518.432 1.029.713.713 1.562.435 1.934.423 3.764.303 3.644.422 1.19.317.967.198 1.34.132 2.9.145 3.332.7 1.577.581 1.235.739 6.069 4.33 1.919 1.286M184.175 318.422l2.344-.547 4.433-1.563 3.392-1.53 2.038-.905.922-.693.52-1.056.209-1.636.334-.858 1.02-1.735.78-.64.476-.297 3.31-.99 2.03-.778 2.15-.99 1.138-.099h.663l2.767.863 1.807.476 4.254.561 2.388.231 1.45.007 1.252-.168M232.812 314.682l-2.037-1.567-2.478-1.976-.951-1.168-1.324-1.577-2.17-2.32M302.221 328.23l-1.322-.246-5.385-.858-9.06-1.847-1.933-.449-3.407-.871-1.74-.634-.699-.652-.48-.975-1.335-4.136-.908-1.422-1.116-1.01-.64-.415-3.666-.884-4.044-1.145-2.355-.557-1.627-.47-3.377-.963-1.798-.37-2.412-.012-1.933.106-2.916.712-3.004.198-2.232.066-2.187-.132-1.22.145-1.026.211-1.696.475-1.264.436-1.86.713-1.74.805-1.027.633M157.853 326.737l2.15-1.05 1.287-.435 3.972-1.128 4.7-1.511 1.139-.258.639-.065 1.837.02.491-.14.55-.23 2.306-1.24 7.251-2.278" clip-path="url(#p27c3e0814d)" style="fill:none;stroke:#000"/><path d="m184.143 336.941.15-1.265.337-1.457 1.83-5.933.409-1.635.282-1.458.343-2.239-.283-.855-2.046-1.498-.565-.634-.425-1.545M153.041 226.444l-1.098 2.273M130.862 273.013l2.171-2.066 4.165-2.91 2.388-2.026 2.663-2.455 1.234-1.584 1.131-2.48.432-2.528.386-2.448.58-3.972.618-1.888.87-3.51.758-2.944.06-2.613-.104-4.844.208-1.253.982-1.426 1.74-2.059.799-1.29M120.322 284.243l.766-.594 9.774-10.636" clip-path="url(#p27c3e0814d)" style="fill:none;stroke:#000"/><path d="m100.73 269.746 6.01-.673 2.432-.297.521-.053.565.053 2.589.264 4.522.106 1.272-.132 1.659-.258 1.97.297 1.741.502.937.613 1.77 1.188 1.139 1.003.9.317.61.139 1.495.198M120.322 284.243l-.566.257M157.853 326.737l-2.715-3.708-.936-1.406-.328-.976-.044-1.406-.023-1.576-.208-.951-.58-2.085-.923-2.296-.892-2.481-.84-2.329-.558-1.637-.603-1.418-.275-.68-.387-.6-1.242-1.148-2.543-2.198-1.198-.765-1.011-.23-1.566-.212-1.287-.482-3.172-1.715-1.957-1.142-.513-.449-1.011-2.52-.343-1.136-.698-4.539-.76-1.828-.55-.547-.565-.159-5.898.264-1.979.053-1.926-.192M416.249 487.888l2.83.429 4.183.468 3.04.277 2.61.45 1.48.454 5.288 2.731 1.433.606 1.297.192 1.651.165 1.188.573 1.46 1.525.751.792 1.448 1.055 1.505.752 2.093.747 1.467.19M456.26 516.579l-.356-1.052-2.016-5.534-3.915-10.7M443.138 465.61l.479 3.129 1.28 7.236.669 3.72.54 3.68.507 3.396.21 1.718.226 1.828.986 3.844.877 2.507 1.061 2.625M291.155 492.07l3.598 1.49 1.482 1.063 1.198 1.197 1.443 1.488 1.965 1.33 1.917.636 3.08.495 1.405-.172 1.607-.7 5.481-2.776 2.722-1.794 1.756-.779 1.83-.37 2.633.172 2.47.647 3.211 1.96M350.285 486.081l-.557-.178-1.48-.37-1.666-.217-1.16.33-.633.468-.988.976-.826 1.445-.982 2.777-.977 1.507-1.373 1.395-1.786 1.366-1.443.739-2.312.587h-2.552l-1.782-.457-.815-.491M283.42 492.123l2.618-.409 1.68-.151 1.45.204 1.987.304" clip-path="url(#p27c3e0814d)" style="fill:none;stroke:#000"/><path d="m248.447 429.402 6.426 1.794.945.086.952-.132 1.301-.633.402-.158 3.28-.904 1.778-.456.647.02 2.864.7 1.703.132 1.517-.205 1.198-.284 1.398-.415 3.421-1.392 2.418-.554 1.747-.218 1.31.053.624.21.253.33-.044.324-.41.39-1.57 1.114-.534.55-.146.261.056.261.231.205.297.138 1.295.32.312.244.23.501-.037.462-.2.72-1.079 2.282-.104.68.149 1.213.052 1.287-.067 2.117.119.468 2.7 5.437.223.745.052 1.498.149.435.238.224 2.752 1.74.524.117h.19l.71-.168.428.04.45.122 3.112 1.764 2.395 1.577 2.59 1.627 2.022 1.163.856.805.133.284.097.547-.112.475-1.264 3.424-1.547 5.33-1.25 3.655-3.704 12.216-.312 1.227-1.458 6.874M282.27 492.35l1.15-.227M262.885 483.058l.467.371.691.74.946 1.846 1.443 3.206 1.353 2.744.707.62.848.409 3.042.825 1.74.198 1.979-.185 1.576-.363 4.594-1.119" clip-path="url(#p27c3e0814d)" style="fill:none;stroke:#000"/><path d="m282.118 491.563.138.25.048.188-.033.35M157.3 447.045l1.305.914 1.086.56 6.038 2.809 3.787 2.614 3.183 1.992 1.435 1.176 3.764 2.229M262.33 482.616l-.603-.472-3.588-2.983-1.69-1.128-1.572-.555-5.464-1.516-1.94-.89-1.109-.91-4.686-5.047-.647-.963-.736-1.095-.922-.66-1.458-.495-2.693-.68-1.51-.27-2.447-.171-2.238.151-1.98.258-1.405.343-1.807.924-1.295.949-2.856 1.775-1.167.376-.997.105-1.955-.137-1.444-.18-2.76-.672-2.216-.66-1.116-.106-4.388.172-1.28-.046-2.052-.422-4.582-1.656-2.834-.884-2.328-.725-2.698-1.337-2.278-1.203-2.253-1.016-2.924-.904-2.514-.547" clip-path="url(#p27c3e0814d)" style="fill:none;stroke:#000"/><path d="m187.973 422.132-.338.976-.923 2.93-.676 2.883-.803 2.315-.826 1.893-.172.555-.051 1.61-.819 2.987-.632 1.762-3.169 12.64-.825 2.645-.394.877-.127.31-.163.482-.157 2.342M152.558 485.982l1.472.007 1.718.145 1.882.29.357-.06.201-.23.253-.653.2-.706.373-.666 2.618-4.505.826-.898.364-.23.513-.192.41.046.87.257 2.454 1.214 1.555.106 1.138-.33.847-.805 1.027-1.313.26-.718.082-4.803.164-1.774.416-1.425 1.48-3.86.313-.718.357-.667 2.224-3.12.966-1.035M157.3 447.045l-.71-.498-2.51-3.173-1.024-1.88-.29-.957-.015-1.51.283-2.645-.164-.924-.647-1.498-1.034-2.915-.111-.825.059-.495.193-.422.566-1.022.78-1.676.833-2.527 1.228-2.091 1.257-2.329.93-1.623.52-1.458.068-.936-.239-.832-.364-.706-.134-.567.082-.224.089-.11.13-.012.134.022.257.176.632.405.364-.007.521-.349 1.673-2.335L161.67 410l.484-.594.432-1.008.155-1.34.178-.522.216-.587.462-.805.49-.39.44-.223 2.498-.666 1.48-.502 1.042-.548" clip-path="url(#p27c3e0814d)" style="fill:none;stroke:#000"/><path d="m187.973 422.132-2.168-1.53-2.606-2.275-3.306-4.235-2.218-2.206-5.34-5.56-1.183-1.294-1.606-2.217M248.447 429.402l-.447 1.557-.193.759-.498.54-.893.376-.729.073-.654.013-1.763-.29-1.458-.198-1.026-.02M187.973 422.132l2.258 1.498 2.26 1.2.945.41 3.34 1.503 3.198.805 4.046.713 2.09-.033 2.894-.489 4.031-.547 2.18-.29 2.937-.818 2.373-.482h.863l.692.073 1.673.455 6.023 2.199 4.97 1.508 2.96.898 3.08 1.477M264.833 477.624l-4.606-8.05-.609-1.171-.862-2.31-.462-2.177-.743-3.06-.336-.795-.72-.822-1.443-.996-4.36-2.341-2.119-1.564-1.978-1.88-.826-1.095-.424-1.32-.178-1.391.104-1.247.357-1.722.35-.996 1.174-2.203.707-1.3.171-.904-.06-.719-.379-1.132-2.167-1.825-2.34-2.34-2.298-2.052M241.571 407.342l.189 2.308.335.752.341.48.782.681.484.1.475-.133 2.135-1.576.499-.238 1.792-.6.52-.383.893-1.016.64-.343 1.688-.501 1.079-.02.766.191.253.225.104.376-.104.37-.343.474-1.078 1.128-.714 1.577-.208 1.075-.38 4.744.18.64 1.077 1.385.075.402-.141.357-1.51 2.038-1.265 1.676-.535.666-.432.818-.32.91-.357 2.178-.044 1.319M262.33 482.616l-2.607 1.611-1.525 1.3-.826.758-1.845 2.296-1.078 1.84-5.11 8.681-3.273 6.234-.818 1.536-.75 1.465-1.169 1.405-.773.646-.818.27-.803.153-1.042-.238-1.272-1.002-.498-.264-.721-.225-1.868-.178-.951-.27-1.786-1.089-1.264-1.26-1.376-1.556-1.897-2.77-.64-.542-.825-.257-.87-.04-1.026.304-1.116.957-1.636 2.585-2.366 4.241-.245.588-.134.613.104 2.724-.149.561-.416.805-1.22 2.216-2.797 4.69-.624.963-.61.646M188.705 513.752l1.6.462 1.287.68 1.561 1.134.878.495 1.183.237 1.718-.053.803-.132 1.384-.138 1.39.218.76.323 1.965 1.274 1.002.454 2.61.712.945.383 5.898 3.212M274.42 591.621l-.7-2.856-.193-2.097.253-3.113.03-1.965-.49-1.57-2.931-6.054-1.652-2.93-1.83-2.624-.408-1.22-.655-3.093-.636-1.34-1.186-2.005-1.934-1.807-2.737-1.9-1.25-.316-1.785-.23-2.544.217-5.385.91-1.584-.21-1.993-.548-.491-.475-.2-.614.192-1.45 1.577-4.19.402-1.239.342-2.651.469-1.438.468-1.26.082-.633-.12-.541-1.718-3.404-1.108-2.493-.535-1.048-.416-.278-.678-.198-2.052.034-1.012-.126-5.549-1.748-1.948-.316-2.589-.515-1.34-.499-1.002-.424-2.931-1.22-1.374-.845-4.913-3.384-4.677-2.902M262.33 482.616l.555.442M282.118 491.563l-1.517-.66-1.852-1.108-1.086-.765-2.128-1.603-.305-.363-.848-2.217-.408-.534-2.477-1.359-2.16-1.652-1.834-1.31-2.67-2.368M262.885 483.058l.586-.34.268-.384.275-.996.819-3.714M283.42 492.123l-1.302-.56M152.558 485.982l-.253 1.115-.157.41-.44.812-6.082 9.12-.64.95-1.789 2.31M120.389 491.068l.982.27 1.8.185 3.436.132 2.663.402 1.785.436 1.933.6 3.162 2.144 2.037 2.01 2.53 1.65 2.48 1.802" clip-path="url(#p27c3e0814d)" style="fill:none;stroke:#000"/><path d="m188.705 513.752-1.145-.218-9.817-1.114-.93-.211-1.726-.673-1.83-.402-4.128-.343-3.95-.146-1.45-.079-4.284-.626-.952-.31-2.588-1.28-4.91-2.585-5.183-3.325-1.503-1.187-1.112-.554M110.281 457.907l5.102 3.556 2.507 1.649 2.767 1.61 3.302 1.728.655.435.43.37.388.442 2.038 3.113 1.041 1.405 1.064.811 1.405.581 3.392.877.811.231.46.25 1.972 1.59.892.443 1.607.673 2.893.857 3.005.897 1.22.58 3.606 2.812.44.414.246.488 1.034 2.263M257.201 595.737l2.842-.356 2.781-.72 4.3-1.483 3.124-1.032 2.104-.366 2.068-.159M283.204 594.886l-2.782-.716-4.314-2.054-1.688-.495" clip-path="url(#p27c3e0814d)" style="fill:none;stroke:#000"/><path d="m177.75 557.516-1.228-12.927-.394-3.45-.223-2.098.074-.989.462-1.867.61-1.325 1.212-3.562.9-2.863.55-1.319.774-1.359 2.589-3.264 1.859-2.494 3.77-6.247M183.373 594.813l5.277-1.959M177.75 557.516l.29 2.48.386 2.276.93 3.832.96 4.748.64 4.287.61 3.127.595 4.761.252 3.034-.691 3.588.096 1.3.253 1.39.565 1.55.737.924M167.061 599.496l4.94-.435 2.402-.633 5.05-2.25 3.92-1.365M482.701 571.297l1.46-.867M482.701 571.297l-3.272-4.564M477.287 574.668l3.134-1.801 2.28-1.57M488.775 567.69l-4.614 2.74M488.775 567.69l2.957-1.692M496.464 574.108l-1.4-.928-4.893-4.023-1.396-1.466M486.355 563.815l.825 1.464 1.132 1.852.463.56M463.766 580.543l-.44.295M473.813 569.625l-.423.232-3.769 2.506-5.442 2.44-.406.429-.134.448-.044.515.171 4.348M475.838 575.501l-3.012 1.732-1.41.696-7.65 2.614M385.05 607.289l4.136-1.009 6.754-1.739 3.005-1.246 4.812-3.014 6.151-3.496 7.684-3.812 10.197-6.028 4.641-1.89 9.736-1.962 5.996-1.375 3.964-.392 6.91-.257 4.29-.231M316.273 608.327l2.774-.132 3.54-.62 3.511-.475 2.157.053 2.559.719 2.625 1.194 2.202.646 4.879.39 3.645-.166 3.734-.765 2.15-.91 1.561-1.273 2.298-2.255 1.518-.865 1.785-.488 1.971-.039 2.663.495 5.75 1.615 10.003 1.966 4.924.145 2.528-.273M316.273 608.327l-7.87-1.992M308.403 606.335l-.187-.052M217.743 589.596l2.912.908 3.009.9 2.239.474 2.141.106 3.504-.541 4.53-.495 2.923.205 4.796.877 3.31 1.392 2.85.97 4.336 1.173 2.908.172" clip-path="url(#p27c3e0814d)" style="fill:none;stroke:#000"/><path d="m189.825 592.148 2.463-1.614 2.011-1.423 5.17-2.581 2.893-.976 3.399-.488 2.949.56 3.514 1.392 5.52 2.578" clip-path="url(#p27c3e0814d)" style="fill:none;stroke:#000"/><path d="m218.442 613.24-1.484-.874-.472-.491-1.785-3.297-1.145-1.874-.022-.573.877-3.41 3.332-13.125M189.825 592.148l-1.175.706M189.542 593.468l.13-.666.153-.654M189.542 593.468l-.397-.399-.495-.215M146.305 601.048l3.586-.691 6.423-.722 4.797-.383 5.95.244M141.817 601.19l1.79.107M141.817 601.19l.281 1.32M252.009 393.247l2.433-3.396.602-.342.84-.132.603.052 1.733.488 2.41 1.238.621.178 2.577.082 2.79.495 5.928 1.313 8.761 2.282 3.957 1.188 9.9 2.177" clip-path="url(#p27c3e0814d)" style="fill:none;stroke:#000"/><path d="m256.613 360.505 2.549.501 2.524.522 2.707.185 4.389.191.476-.105 2.298-.654 1.183-.224 1.45-.013.625.23.558.304 1.39 1.22.551.29 1.197.166 1.101.139.804.217 10.175 4.506 1.692 1.175.469.67.948 1.913.71.755 2.485 1.982 3.536 3.587.588.811.461 1.247.164 1.405-.164 1.479-.335 1.438-1.004 2.342-.982 1.359-.454.772-1.049 2.494-1.725 5.231-.766 2.23M196.069 610.437l-2.58.996-1.243.106-.46-.271-.336-1.12-.513-4.248-.536-4.511-.468-4.432-.39-3.49M146.305 601.048l-1.514.181-1.183.068M142.098 602.51l.643-.62.867-.593M479.429 566.733l1.459-.706 3.572-1.566 1.895-.646M477.287 574.668l-1.449.833M477.287 574.668l-3.474-5.043M479.429 566.733l-2.86 1.383-2.756 1.509M512.038 574.256l.044.963M525.969 578.688l-2.61-1.405-4.843-1.807-3.875-.924-1.86-.19-.743-.106M508.74 574.345l1.654-.083 1.644-.006M510.368 578.573l.08-.156 1.38-2.596.254-.602M547.286 614.104l-.908-1.78-.9-.785-3.51-3.423-2.105-2.546-2.078-3.334-1.5-2.08-2.73-3.153-1.591-2.467-6.804-7.937-1.333-.887-1.384-1.03-1.019-1.008-1.495-2.341-.892-.95-5.281-3.16-1.674-2.004M498.266 574.892l3.113 5.026M505.21 574.579l-3.73.51-2.03.04-1.184-.237" clip-path="url(#p27c3e0814d)" style="fill:none;stroke:#000"/><path d="m496.464 574.108 1.183.66.619.124M501.379 579.918l4.341-.65M510.368 578.573l-1.524 2.989-2.533 4.243-.31.4-.366.05-.394-.1-3.862-6.237M505.72 579.268l4.648-.695M505.72 579.268l-.51-4.689M508.74 574.345l-1.984.023-1.547.211M491.732 565.998l3.22-2.13M499.403 571.674l-3.684-2.51-3.987-3.166M496.054 562.95l-1.101.918M503.856 567.429l-1.227-.554-1.183-1.002-2.93-1.313-2.462-1.61M489.39 553.117l1.602 1.47 1.034 2.039.755 3.12.684 1.174 1.503 1.28 1.086.75M499.403 571.674l-2.94 2.434M499.403 571.674l3.208-3.139M489.977 576.854l1.317-.477 3.63-1.498 1.071-.47.469-.301M481.887 579.385l-2.471.71-.679.117-.333-.052-.376-.282-.347-.539-1.843-3.838M218.442 613.24l1.228.422 3.086.89 7.892 1.583.655-.006.661-.396 1.48-1.187 2.953-.936M161.654 564.97l3.675-.634 2.268-1.121 4.835-2.764 5.318-2.935" clip-path="url(#p27c3e0814d)" style="fill:none;stroke:#000"/><path d="m146.305 601.048.057-.853-.848-5.302.089-4.4-.245-4.656.2-3.225-.357-2.157.03-3.317.305-1.016.55-.475 2.894-1.213 1.145-.805 1.443-1.128 3.965-1.59 2.492-.444 1.71-.716.974-.726.506-.963.44-3.093M146.753 540.568l.237.551.078.198.19.653.331 1.111.104.27.61 2.372.476 1.57.565 2.849.551 1.926.952 1.425 1.175 1.49 2.165 2.124 2.573 2.454 1.674 2.11 1.736 2.384.543.466.941.448M334.064 136.245l.282.29M334.064 136.245l-3.324 2.1M331.037 123.045l.186.482.2.745.923 1.934.618.984.081.501-.238.462-.848 1.116-.223.87-.247 1.984.321 1.106.566 1.017 1.688 1.999M337.15 148.11l-2.72-2.543M330.16 140.53l-10.002 5.533M334.43 145.567l-2.54-3.15-1.73-1.887M330.74 138.346l-.655.414-.476.376-.099.363.65 1.03M320.158 146.063l-4.223-5.098M325.495 152.175l-1.56-1.646-3.777-4.466M325.495 152.175l8.935-6.608M334.43 145.567l4.744-3.745M334.346 136.535l2.27 2.33 2.558 2.957M360.232 168.872l-.277-.247-.253-.62-.617-1.928-.803-1.702-2.21-4.29M350.74 154.092l4.954-.72.543.132.528.41.126.752-.268 1.142-.46 2.31-.09 1.967" clip-path="url(#p27c3e0814d)" style="fill:none;stroke:#000"/><path d="m350.74 154.092 2.075 1.828 1.666 1.98 1.592 2.185M360.232 168.872l-.282.449M357.441 143.895l1.287-1.149.87-.455 1.16-.145 2.641.317 2.038.316.64.218.557.442.581.977.632.845.677.746 1.056.878.163.297.425.904.126.37-.074.277-.335.165-.87.178-.64.317-.283.436-.535 1.814-.566 3.195-.505 3.26-.03.964-.06.964-.386.712-.625 1.188-.164 1.175.253.99-.022.534-.342.608-.707.633-1.919 1.247-1.83 1.459-.422.3M510.297 568.155l-.818 4.84-.74 1.35M510.297 568.155l.261-.282" clip-path="url(#p27c3e0814d)" style="fill:none;stroke:#000"/><path d="m503.856 567.429 3.28.027 1.927.086.788.171.446.442M594.256 498.554l-1.471.76-1.192.665-1.436 1.076-1.026 1.082-1.495 1.787-1.611 1.59-1.847 1.92-1.845 1.873-4.01 3.423-2.967 2.414-3.421 2.592-1.137.725-1.005.515-1.904.542-2.47.474-.998.279-.965.348-.678.44M534.677 549.753l1.04-1.517 2.256-2.817 1.54-1.59 1.287-1.246 1.892-2.206 1.12-1.256 1.705-1.438 2.022-1.59 2.06-1.3 1.915-.916 1.864-.805 2.097-.897 1.118-.666.592-.534 1.525-2.184 1.027-1.734.528-1.023.93-2.183.788-1.834.795-.959" clip-path="url(#p27c3e0814d)" style="fill:none;stroke:#000"/><path d="m574.374 497.796-.468.673-1.45 3.186-1.206 2.843-1.123 1.96-1.256 2.67-1.198 2.666-.446 1.266-.663 2.097-.483.904-.855 1.227-.58 1.088-.819 1.313-1.05 1.37M620.034 469.067l.396-.196 1.616-1.002 1.054-.951 1.22-1.148.962-.592 1.016-.51 1.83-.784.631-.434.722-.747.856-1.161 1.785-3.641.187-.867-.016-.638-.647-2.948-.424-1.504-.119-.598" clip-path="url(#p27c3e0814d)" style="fill:none;stroke:#000"/><path d="m614.427 458.112.305-.12 1.272-.494 1.45-.956.774-1.082.833-1.98.744-1.108.915-.633 2.142-.64 1.443-.125 1.048.25 1.4.456 1.3.21 1.414-.223 1.636-.321M484.651 552.424l1.287-.382M490.85 539.079l-.07.132-2.8 4.044-.36.714-1.429 3.917-1.54 4.538M506.835 512.946l.086-.083.935-1.04M507.865 509.761l.067 1.228-.076.834M508.311 512.895l-.305-.521-.15-.55M490.85 539.079l.44-.183M501.62 521.56l-1.215 1.665-.41.837-1.516 3.555-.512.894-1.675 2.596-1.845 2.579-3.597 5.393M506.835 512.946l-.606.582-1.05 1.431-1.167 1.841-2.06 3.964-.333.797" clip-path="url(#p27c3e0814d)" style="fill:none;stroke:#000"/><path d="m505.11 520.582-.48-.042-.945.27-2.066.75M499.967 426.601l.631-1.059M499.967 426.601l-1.685 2.408M500.821 427.034l-.275-.264-.579-.169M470.39 546.089l1.736 1.731 2.131 1.808 1.239.983 1.591.88M472.728 545.85l.212.38.175.344.642 1.013 1.642 1.968.677.88 1.011 1.056M503.856 567.429l-1.245 1.106M472.728 545.85l-.355-.448-.872-1.17-.803-1.609-1.326-2.839-1.196-2.965-.956-3.122-.524-1.779-.55-2.11-.967-3.318-1.175-3.681-.856-3.47-1.502-4.755-.755-3.434M452.672 477.575l.54 2.22.304 1.121.566 1.636.677 3.107.729 3.2.892 4.643 2.15 8.291.989 4.123.654 2.098.718 3.136" clip-path="url(#p27c3e0814d)" style="fill:none;stroke:#000"/><path d="m461.993 510.028-.607.433-.495.69M507.682 508.026l.183 1.735M480.134 500.374l.537.326.403.302 1.25 2.87.841 1.636.467.678.454.422.528.31.618.12 1.428.02 1.086-.027.876.095 1.102.314 2.142.739.786.124.806-.098 6.077-1.286 3.294-.792 2.172-.488.55.053.544.237.513.482.513.673.561.942M510.317 490.388l.174.445.267 1.158.03 1.096-.14.977-.745 3.238-1.034 2.354-.12.68-.118 1.003.142 1.952.2 1.84-.038.65-.378.98-.875 1.265M477.247 482.536l-.911-.063-1.033-.18-1.124-.473-2.358-1.023-2.752-1.28-1.596-.965-.829-.407-1.22-.23-1.592-.107-2.796-.17-2.06.013-4.448.105-1.856-.181M427.068 374.12l-1.436.089-1.88.152-8.55 2.842M428.693 374.02l.269-.016 2.01-.31.848-.178 1.168-.007 1.227.086 1.094.033.994-.159 1.346-.432M402.991 326.42l.221 1.166M400.098 330.788l1.115-1.432.87-1.18.908-1.756M404.843 323.015l3.585-2.25 2.708-1.51 3.302-2.554.743-.277.685-.132 2.662-.105 3.244-.766 2.975-1.597 1.703-1.003 1.029-.546.898-.496 2.454-1.907 1.48-1.01 1.004-.732 1.066-.963.422-.529.334-.838.528-1.385.469-.713.41-.62.564-1.207.523-.488 1.077-.793 2.172-1.497.982-.351 1.003-.184 2.343-.257 1.257-.29 1.168-.185 1.265-.017M404.5 246.01l-1.242-.382M404.5 246.01l-.092.489M410.47 248.907l-.361-.28-.725-.74-.584-.29-4.3-1.587M393.567 268.756l-.23-1.174M395.181 286.19l-.045-.6-.635-6.122-.934-10.712M411.35 252.28l-.237.48-3.183 5.51-1.198 1.716-.729.502-2.655 1.201-1.664.718-5.886 3.44-.647.52-.981 1.201-.35.548-.253.64M395.248 286.724l-.067-.534M395.248 286.724l1.108-.25M357.441 143.895l.714-1.57.395-1.097-.015-.653-.142-.733v-.56l.253-.8.67-1.517M557.488 608.365l-.54.074-.358-.244-.914-2.539-.29-.33-.38-.185-.64.178-4.826 4.703-.737.93-1.517 3.152M283.204 594.886l-1.986-1.313-.372-.52-.007-.614.476-1.8.26-2.454.432-3.39.476-3.93.483-7.797.312-.699.826-.574 1.346-.316 3.496-.33M308.216 606.283l-7.48-2.105-1.972-1.094-6.492-4.746-3.11-1.618-2.76-1.05-1.926-.441-1.272-.343M120.389 491.068l-1.056-.528-2.375-2.007-1.724-1.687-2.417-2.79-2.369-3.374-.777-1.184-1.19-1.65-1.48-1.685-5.885-6.928M104.353 466.39l-1.168.91-.67.489-1.4 1.446M106.892 462.41l3.39-4.503M184.143 336.941l-.979.36-1.673.58-1.718.89-1.622 1.004-1.889 1.438-3.682 3.081-3.63 2.89-4.016 2.659-1.919 1.175-1.026.488-1.383.25-1.198.047-2.837-.005-2.749-.035-3.176.02-1.562.093-1.376.237-1.175.244-.864.25" clip-path="url(#p27c3e0814d)" style="fill:none;stroke:#000"/><path d="m223.126 403.369-4.401-1.636-.818-.224-.803-.033-1.726.35-1.28.125-.654-.026-.424-.106-1.182-.785-2.901-2.758-.313-.316-.327-.158-.67-.106-1.175.106-1.204.178-1.317-.066-.922-.06-.9.158-1.406.298-1.647.092h-.837l-.666-.195-.651-.405-1.086-1.168-2.305-1.795-1.48-1.003-3.266-1.675-1.435-.601-3.582-.923-1.022-.422-1.994-1.208-2.144-1.642-1.998-1.98-1.778-1.933-1.517-1.154-3.823-2.547-2.767-1.465-3.279-1.82-2.047-1.228-3.808-1.96-1.6-1.134-1.204-1.148-2.998-4.56-1.264-2.612-1.074-2.69-.607-.932-1.168-1.57-.974-1.194-.245-.562-.216-.983-.552-3.286M252.009 393.247l-1.212 1.691-2.514 3.193-1.294 1.913-.58.766-.528.548-.818.514-.171.218-.134.316-.35 1.425-.193.396-1.719 1.67-.704.937-.22.508M223.126 403.369l3.855 1.432.548.261 1.892 1.243 1.279.41 1.428.336 1.042.04 2.387-.218.84.072 1.912.587.81.139.722.013.766-.099.964-.243M201.097 331.098l-3.674 1.419-5.088 1.656-6.56 2.27-1.632.498M194.884 326.724l6.213 4.374M204.091 329.737l-.443.286-1.22.607-1.33.468M319.412 332.042l.35-2.376.311-1.167.026-.646-.055-1.373.126-3.49.454-3.867.126-1.954-.111-.725-.566-1.109-1.889-2.916-.952-1.498-.29-.779-.305-2.283M342.085 339.585l-2.767-.36-4.016-.68-1.215-.515-1.325-1.158-1.249-1.089-.937-.587-1.175-.488-1.086-.304-1.711-.073-2.023-.257-1.719-.495-2.364-1.109-1.086-.428" clip-path="url(#p27c3e0814d)" style="fill:none;stroke:#000"/><path d="m302.221 328.23 1.385.256.73.132 1.466.61 1.413.915.982.487 1.226.343 1.569.066 2.06-.191 1.443-.178 1.8.052.872.178 2.245 1.142M349.176 330.437l-.647 1.192M345.28 337.393l2.03-3.398M347.31 333.995l1.219-2.366M347.31 333.995l2.526 1.014M347.31 333.995l-2.357-1.102M349.836 335.01l-2.965 5.448M366.97 317.262l1.279 2.428.17.68-.067.495-.49.719-1.986 1.405-.878.554-2.038.456-.498-.027-3.474-1.471-.632-.146-.587-.006-.692.376-4.977 8.413-2.264 3.871M346.87 340.458l.638.112M346.87 340.458l-2.087-.366M342.085 339.585l-1.506 4.2M344.783 340.092l-.293-.051-2.405-.456M344.783 340.092l-1.543 4.63M347.508 340.57l-1.62 4.882M350.498 341.11l-1.999-.367-.99-.173M350.498 341.11l.795.138M343.676 358.635l4.942-12.294 1.88-5.23M352.97 336.979l-1.677 4.27M388.879 342.146l4.921 2.4M384.233 340.745l2.239.438 1.108.334 1.299.629M400.098 330.788l-4.463-.376-.439.139-.253.21-5.192 8.453-.193.567-.275 1.333-.404 1.032M403.616 309.792l-9.952 2.725M394.861 287.602l5.836 13.54 1.773 4.025.938 3.22.208 1.405M406.033 349.558l-.178-1.292-.246-2.111-.23-2.224-1.376-5.258-.231-1.386-.149-1.742-.355-4.425-.01-.624M403.212 327.586l.054 1.196-.009 1.714" clip-path="url(#p27c3e0814d)" style="fill:none;stroke:#000"/><path d="m412.46 335.552.03-.97-.038-.376-.342-.528-.737-.646-1.554-1.168-1.13-1.135-.648-.455-2.387-.832-.729-.052-.413-.01-.253.036-.417.326-.585.754M421.258 348.187l-1.435.72-1.309.771-1.22.594h-.892l-1.347-.356-2.511-1.471-1.35-.363-1.613-.113-1.012.172-2.536 1.417M412.451 371.388l4.198-1.866M421.135 408.853l-2.114-4.098M421.135 408.853l8.118-2.372M426.104 400.182l1.499 3.128 1.65 3.171M438.278 399.494l-2.124.33-3.241 1.451-1.578.382-4.103-1.375-1.128-.1M431.023 414.992l2.692 5.104M441.327 437.716l-.085-.242-.265-1.356-.164-2.027-.237-1.903-.25-1.56-.31-1.468-.299-1.141-.326-1.028-.284-.776-.243-.99-.241-1.067" clip-path="url(#p27c3e0814d)" style="fill:none;stroke:#000"/><path d="m447.833 422.454-1.353-.797-.449-.018-.644.223-1.99 1.402-2.636 1.337-.61.09-.685-.21-.843-.323M449.157 434.712l-1.576.132-1.22.231-1.026.521-1.123.713-1.16.397-.796.355-.929.655M510.317 490.388l-.407-1.035-.855-1.583-.774-.93-.855-.88-1.339-.803-1.636-.758-.957-.353-1.378-.28-1.986-.119-.87-.01-.93.122-2.5 1.025-1.212.525-.84.521-3.154 2.646-.613.356-.756.066-.64-.325-.631-.619-1.376-2.19-.505-.65-.73-.451-1.436-.587-.721-.231-.997-.026-1.747.006-.7-.191-1.495-.554-1.03-.544M475.743 486.716l1.06-1.67.444-2.51M480.134 500.374l-1.433-.388-.907-.138-.625.02-.61.23-1.11.804-.898.793-.499.732-.915 2.084-.468.7-.61.507-5.807 3.172-1.028.403-2.128.416-1.103.32M475.743 486.716l-1.94 3.058-8.788 7.942-1.666 6.317-.542 3.472-.814 2.523M480.134 500.374l-.457-.663-4.957-6.317 1.375-3.62-.352-3.058M505.11 520.582l.202.019.679.157.431.31.413.457.227.624-.075.818-.173 1.443-.012 1.46.14 1.114.581 1.346.074.534-.21.49-.679.589-.71.444-1.346 1.102-1.079.726-1.527.621-.92.355-.78.56-1.882 1.55-.9.64-2.187 1.108-2.336 1.003-.656.362M491.29 538.896l.569-.26.526-.222M503.249 550.544l-.888-.689-.625-.57-.834-1.239-1.241-1.76-1.067-1.753-1.008-1.9-.524-.762-.464-.617-.507-.452-1.544-1.055-1.737-1.187-.425-.146M503.249 550.544l1.924 1.102M490.736 546.967l1.807.003 1.145.039.789.152.758.52.848 1.023 1.19.976 1.131.74 1.138.157 1.778.034 1.929-.067M534.465 550.07l-.407.613-1.32 1.814-.953.91-3.104 1.324-4.951 2.429-.856.693M510.885 567.522l.36-.542 3.09-2.822 3.274-1.896 5.265-4.41" clip-path="url(#p27c3e0814d)" style="fill:none;stroke:#000"/><path d="m509.338 552.893 2.037.63 1.269.095 1.093.3.763.442.784.36.997-.066 2.728-.556.49-.01.575.137.416.288.584 1.539.492.521 1.308 1.28M505.173 551.646l.199.11 3.966 1.137M510.558 567.873l.16-.76.75-1.19.823-1.732 1.17-1.35 1.86-1.486.376-.538.034-.429-.29-.554-2.261-3.1-2.634-2.536-1.208-1.305M489.39 553.117l-1.131-.416-1.354-.435-.967-.224M490.736 546.967l-.261.63-.387.673-.825.948-1.071 1.227-.484.515-1.77 1.082" clip-path="url(#p27c3e0814d)" style="fill:none;stroke:#000"/><path d="m505.173 551.646-.975.23-.803.097-.73.122-.46.256-.268.17-.77.111-7.077-.38-.967-.197-.51.062-.665.142-2.559.858M510.885 567.522l-.327.35M524.363 574.26l-.447-.954-.751-1.05-.752-.527-1.034-.5-10.494-3.707M525.969 578.688l1.901 1.036M530.156 578.653l-1.874.048-2.313-.013M312.48 232.297l.371 1.36.29 1.577.082 1.332-.215 1.624-1.265 4.817-.49 3.023-.395 1.716-.09 1.128.21 1.55.802 3.749.357.56.685.317 2.982.654 2.73.416 2.343.462.78-.152.41-.324.58-.956 1.331-1.413.484-.21.96-.08 1.167.151 1.056.436 1.436.72.944.23 2.358.574.781.337.826.93.387.727.155 1.01.216 3.47-.03 1.802.075.923.52 2.033v.633l-.208 1.22-.349.628-.922 1.208-1.644 1.61-.41.752-.096.898-.06 2.204.157 1.359.379.996 1.28 3.042.684 1.3.699.93 1.353 2.191.484.713.729.587 1.011.251 1.733.138 6.122-.066 4.061-.185 8.197-.125 3.146-.356 15.396-3.392 1.532-.217 7.089-1.142 2.394-.29.9-.046.908.296.55.416.782 2.112.498.772 1.1 1.009 1.012.878 1.041.488M256.97 206.124l-.327 1.34.328.422M312.48 232.297l-.343-.607-1.294-1.182-1.852-1.45-1.465-.833-1.042-.673-3.25-2.686-2.387-2.085-1.808-1.643-1.354-1.109-2.774-1.88-2.67-1.46-1.852-.58-3.183-.455-2.06-.495-2.723-.515-5.906-1.835-3.049-1.17-3.6-.822-3.247-.513-4.117-.847-2.499-.343-1.934-.779-1.1-.449M288.924 276.173l-.997.542-4.136 2.573-.52.086-.595-.086-.491-.396-.476-.937-.707-3.042-.223-1.254-.603-1.907-1.04-4.302-.358-1.102-.55-.878-.171-.548-.141-.706.483-1.84.026-.616-2.949-14.549-.246-.819-.349-.976-.833-1.234-.855-.825-.558-.31-.863-.093-1.064.324-3.044 1.083-3.94.633-.476.003-.283-.068-.273-.162-.21-.4-.09-1.215-.498-2.072-.684-4.58-.543-5.305-.186-1.149-.453-1.53-2.314-8.632-.966-4.5-.819-2.509-.014-1.174.267-1.465.789-2.35" clip-path="url(#p27c3e0814d)" style="fill:none;stroke:#000"/><path d="m243.372 216.68 1.676-.782 2.194-1.393 1.896-1.762 1.421-2.375.997-1.65 1.049-.871 1.899-.8 2.467-.923M212.7 126.866l-.803-6.547-.417-1.835-.743-1.373-1.19-1.61-2.009-1.545-2.41-1.822-1.314-.722-1.2-.347-1.1.106-1.979.87-1.65.278-3.214-.066-.997.344-1.472 1.254-2.455 1.372-1.919 1.479-1.369 1.32-1.993 1.056-5.46 1.59-.75.654-.536.838-.52.442-2.314.885-4.596.666-1.503.357-4.165 2.046-.61.482-.602.937-.558.938-.543.264-1.674.475-1.733.745-1.874 1.129-.99.911-.595.95-.535.852-.751.475-2.076.594-1.115.046-.707-.243-.862-1.288-.499-.244-.424.171-1.197.951-1.064.89-.238.529.037 1.927-.141.95-.55 1.07-1.443 2.871-.134.515.074.402.409.383.87.957.9 1.703.863 1.083.614 1.007 2.213 1.415 1.18.993.499.697-.281.857-.625.845-1.785 1.98-3.63 5.36M233.147 127.639l-1.844-.218-2.09-.693-1.979-1.169-3.95-2.884-1.145-.396-3.622-.567-.952.059-.588.244-.974 1.01-1.428 1.954-1.875 1.887" clip-path="url(#p27c3e0814d)" style="fill:none;stroke:#000"/><path d="m179.962 146.184.443-.719 3.764-6.045 3.703-5.954 1.637-2.85.55-.45.491-.131.967.145 4.568 1.477 2.17 1.044.61.633.165.528.372.357.58.04.61-.192 1.078-.416 5.269-2.936 5.761-3.849M257.4 151.326l-.504.106-1.472.607-4.24 1.492-1.056.277-.462-.106-.282-.488-.283-1.333-.55-3.841-1.16-2.627-1.28-2.918-1.368-2.573-.997-1.241-2.201-2.416-.833-1.333-.372-.885-.766-1.043-.715-.613-1.078-.568-.789-.7-.773-.95-1.138-1.307-1.041-.785-.893-.442M179.962 146.184l2.459.86 2.06.976 2.335 1.109 1.183.429 3.72.97.825.185.223.224-.022.23-.32.826-.008 1.109.305 1.076 1.22 2.085 2.276 3.44 1.621 1.721 2.477 2.304 1.503.877 2.023.614M192.172 188.655l1.346-1.287.662-.521.632-.277.923-.212 2.29-.6 1.109-.72.877-.897 1.027-1.445.483-1.116.35-2.25.7-3.34 1.077-5.253v-.634l-.371-.402-1.332-.693-.334-.383.044-.488 2.187-2.918M346.374 162.995l13.576 6.326M342.774 171.087l1.755-4.488.878-1.862.967-1.742M126.749 342.904l1.093-.2.855-.501 3.183-2.468 1.042-.633.58-.178h.632l2.626.382 1.904.093 1.376-.205 1.926-.693 1.592-1.01 2.804-2.566 6.464-5.219 1.747-1.188 2.946-1.61.334-.171M481.887 579.385l3.209 5.49M485.756 578.144l-.599.182-3.27 1.06M485.096 584.875l-6.093 2.575M485.756 578.144l3.198 5.32-3.858 1.411M485.756 578.144l4.221-1.29M484.16 570.43l5.817 6.424M502.611 568.535l-4.52-2.55-3.138-2.117M382.246 346.59l1.987-5.845M389.5 368.965l5.83 6.119M327.66 134.444l-10.68 5.867-1.045.654M527.87 579.724l4.996 2.722 2.988 1.557 2.789 2.203 5.481 4.71 6.92 7.38 2.445 2.532 1.919 3.16.848 1.345.55 1.114.682 1.918M534.677 549.753l-.212.318M530.156 578.653l2.224-.057 1.369-.271 6.262-1.853 1.533-.073 4.388.323 2.678-.02 6.992-1.45 1.435-.172 2.58.343h1.035l1.324-.363 1.301-1.042.644-1.098-.015-.35-.238-.316-1.086-.686-.874-.6-1.272-.442-1.908-.69-2.655-1.008-1.105-.594-1.019-.848-2.949-2.83-.963-.949-.792-1.091-.584-1.771-.532-1.234-1.242-1.622-1.647-1.151-1.247-1.158-.966-1.138-1.194-.873-1.052-.541-1.488-.132-1.819-.01-.788-.205-.565-.626-1.244-2.302M530.156 578.653l-2.286 1.07M391.79 203.94l.922.25 1.035.43" clip-path="url(#p27c3e0814d)" style="fill:none;stroke:#000"/><path d="m394.304 202.58-.521 1.4-.036.64M389.684 236.019l-.037-.799.179-.87.759-1.974.855-2.006.967-2.706.483-1.96.55-3.088.269-1.769.044-3.22.104-2.257.313-2.217-.238-6.376-.208-1.742.023-.415M394.304 202.58l-.767.581-.75.356-.997.423M388.956 241.542l.294-.2.275-.044.535.073 3.106.779 1.866.398 1.54.177M389.684 236.019l.187.64.661.943 2.388 2.258 2.075 1.94 1.324.838.253.087M403.258 245.628l-1.212-.964-.67-.396-1.903-.74-2.35-.613-.551-.19M389.684 236.019l-.49 1.405-.201.772-.045 1.202.008 2.144M391.455 252.18l-.885-2.32-1.436-2.029-.483-.745-.12-.508.127-2.508.298-2.528M403.258 245.628l-.795-.16-1.748-.138-.774.126-.483.323-.506.587-.275.93-.156 1.618-.327.719-.566.429-2.164.99-2.217.745-1.792.382M393.336 267.582l-.089-.977-.104-2.35-.417-4.21-.148-2.943-.35-1.979-.558-2.303-.215-.64M413.136 251.242l.826-.138.78-.165.849-.217.513-.304.29-.277.856-1.043.825-.726.29-.31.208-.91.134-1.024.283-.81.312-.502.602-.271 1.63-.205 1.904-.086 1.22.073 1.167.528 1.904.99 1.518.41M413.136 251.242l-1.786 1.038M411.875 251.147l.436.05.825.045M411.35 252.28l.403-.82.122-.313" clip-path="url(#p27c3e0814d)" style="fill:none;stroke:#000"/><path d="m410.47 248.907.61.475.39.392.305.74.1.633M327.66 134.444l1.858-.988M327.66 134.444l3.08 3.902M337.456 136.014l.61-1.254.558-1.122.981-.884.751-.93.238-.529-.044-.627-.238-1.247-.32-.76-.632-.56-.573-.376-.669-.324-.937-.634M337.456 136.014l-.55-.04-1.08.265-1.48.296M350.16 135.43l-.893.551-.848.528-.699.27-.937.054h-1.19l-.632-.027-.982-.152-.536-.006-.461.112-.87.482-.9.462-.603.06h-.49l-.343-.146-1.04-.898-.722-.468-.558-.238M257.4 151.326l.94-.197 1.1-.16 1.13-.632 1.16-.885 1.429-.633 1.844-.76 1.488-.792.997-.455 1.77-.449 2.878-.56 3.377-.529 4.203-.68 2.268-.145.833.126.819.435 1.666 1.485 1.003 1.149.818.865.663.646 1.376.674 2.313.983.684.402 1.874 1.77 1.592 2.025 1.577 2.27.618 1.077.661 1.65 1.064 3.398.625 1.413 2.171 2.653 1.69 1.834M170.423 159.114l.893.252.535-.12.67-.765 1.651-2.746.744-1.188.193-.66-.03-2.165.075-.524.279-.34.688-.139.833-.158.55-.396 2.458-3.98M215.958 212.651l1.235 1.993.565.74.937.58 3.481 2.165 3.72 2.006 1.07.646.857.798M113.757 207.365l.6-1.182 2.343-3.478 2-3.662.774-1.888.223-1.372-.074-1.822-.595-1.69-1.042-1.596M139.904 221.218l-.72-.153-3.064-1.465-1.673-.468-3.191.052-1.272-.066-.977-.38-2.177-2.1-1.815-1.941-1.934-3.03-.915-1.148-.736-.587-1.153-.501-6.52-2.066M290.404 240.928l-.268-.81-1.145-1.816-.417-.68-.075-.442.305-.501.484-.284.907-.211 4.255-.528 2.901-.482 4.752-.825 2.678-.752 1.012-.132 2.952-.39 3.735-.778M250.128 265.272l-.967.37-1.175.712-.632.37-.7.185-2.12-.04-1.357-.115-.576-.156-1.008-.782-1.09-1.507-.733-1.178-.22-.531-1.055-4.336-1.175-4.698-1.16-4.936-.566-2.172-.097-.877.09-.373.278-.297.458-.201 1.086-.409 1.725-1.188.64-.277h.685l.936.158 1.83.277.595-.079.342-.488.238-.99.015-1.36-.268-1.464.135-1.334.446-1.57.163-2.178-.03-1.042-.535-1.347-.104-.779.342-1.174 1.012-2.706 1.25-2.996.088-.818-.356-1.109-1.473-1.973-1.713-3.184M269.586 192.166l-.224-.356-.096-.343.23-.37.416-.745.067-.634-.342-1.77-1.034-2.546-.974-1.65-.863-1.004-1.287-1.022-.394-.357-.052-.29.127-.495.342-2.06.03-.514-.097-.469-.729-.74-.974-1.061-.573-1.023-.595-1.234-.447-.667-1.464-1.92-.588-.977-.365-1.004-.193-1.676-.253-2.89-.03-1.697.193-1.043.618-1.326.506-.97.126-.673-.06-.76-.49-1.544-.647-1.353-1.42-2.29-.65-1.367M308.216 606.283l.389-1.016 1.13-2.533 1.153-3.106 1.948-5.77.484-1.67.06-.95-.105-2.849-.468-2.347-.224-2.203-.092-2.137.141-.215.2-.079 1.593.3 1.543.199M502.294 508.753l.87-.238.76-.145.847.02.803.224 1.086.237.855.337.35.573M457.544 440.894l1.692.063M475.592 436.725l-10.153 2.355-2.633.435-2.573.646-2.689.733M459.236 440.957l1.692-.437M512.656 463.22l-.507-.596-1.004-.871-1.197-.62-.737-.205-.684-.046-.9.191-.945.35-.67.1-.87-.12-2.431-1.029-3.355-1.867-2.135-1.22-.87-.356-.684-.224-.766-.152-1.926.046-1.816.21-1.62-.177-2.828-.178-3.83-.343-2.522-.1-.81.185-1.1.093-.715-.185-2.313-.976-1.16-.35-2.18-.482-.96-.329-1.167-.667-1.13-1.068-.774-1.115-1.145-1.445-.908-1.497-.796-1.287-.795-.804-.968-.858-1.54-1.273-1.427-1.412-.788-.897-.447-.69M484.955 435.068l3.415-.817 3.325-.785 3.287-.732.68-.287.57-.333.662-.713.625-.838.539-.972.224-.582" clip-path="url(#p27c3e0814d)" style="fill:none;stroke:#000"/><path d="m484.865 434.618 3.32-.737 6.433-1.55.573-.27.516-.39.77-.686 1.805-1.976M490.736 546.967l.654-1.58.275-.779.335-.646.424-.785.135-.52.021-.463-.342-.475-.67-.666-.416-.54-.171-.528.015-.396.138-.383.156-.31M456.26 516.579l-3.257.557-1.235.225-2.2.685-1.176.213-.357.064-1.205-.277-1.71-.646-1.585-.85-1.22-.905-.394-.745-.045-1.148.32-.857M610.59 486.941l.087 1.107-.184 1.628M594.256 498.554l1.382-.376 1.489-.244 1.336-.37 2.19-1.008 3.547-1.702 2.856-1.504 2.338-1.957 1.099-1.717" clip-path="url(#p27c3e0814d)" style="fill:none;stroke:#000"/><path d="m608.567 532.28 1.074-1.42 1.915-2.366 1.294-1.444 1.287-.97 1.198-.785.937-.771.483-.7.253-.95.052-.903-.327-1.537-.245-1.49-.44-1.419-.438-1.108-.484-.89-.639-1.023-.833-1.306-.67-1.47-.557-1.07-.484-1.536-.275-1.583-.565-1.333-.804-2.222-.446-2.257-.275-1.226-.052-1.089.037-1.642.26-2.184.343-2.038.148-1.47.246-1.67-.067-.732M574.374 497.796l1.324.185 1.458.31 2.336.383 2.015.256 2.157.166 3.184.02 1.591.02 2.083-.186 2.44-.323 1.294-.073M501.176 424.573l-.578.969M507.238 414.083l-1.723 3.022-2.693 4.704-1.646 2.764M500.003 423.65l.461.29.712.633M500.003 423.65l-.091-.105M497.73 423.065l.086.057.73.217.966.218.491.092M470.792 408.549l.019.348M496.248 422.053l-.782-.72-.662-.487-2.09-.95-1.153-.482-1.473-.825-.721-.336-.677-.099-1.16.033-2.068.138-.773-.158-.752-.402-.736-.436-.513-.508-.469-.923-.498-.884-.7-1.472-.386-1.517-.186-.488-.335-.37-.58-.29-.99-.303-3.398-.66-2.172-.448-1.198-.502-.984-.415" clip-path="url(#p27c3e0814d)" style="fill:none;stroke:#000"/><path d="m481.178 387.285-.655-.237-2.172-.806-2.737-.857-1.264-.119-1.651.066-1.756.145-1.13.132-.997.449-.49.673-.313 1.359.044 2.296.283 1.22.186.785.357.528.111.422.298 2.02.535 2.585.194 1.373.387 4.526.312 3.37.072 1.334M475.592 436.725l-.134-2.243-.149-2.791-.223-.963-.506-1.227-.929-1.247-1.25-2.718-.602-1.464-.186-.878.17-1.036.283-1.292.268-.885.037-1.095-.111-1.946-.045-1.597-.186-1.444-.498-1.287-.446-1.781-.26-1.679-.014-.255M428.693 374.02l.807.314.803.416 1.22.85 1.019.535 1.271.66 1.25.488 1.949.6 1.986.436 2.558.402 2.69.485 2.364.218.785.105.54.218.308.327.141.39-.06 1.226-.304 1.868-.156.85-.045.581.045.56.193.95.387 1.28.49 1.156.745 1.365.543.752.52.423.268.574.163 1.082.26.97.812 2.262.706 1.01 1.227 1.029.335.264.238.494-.022.766.007.963v.277l.276.376.951.66 1.614.6 1.563.633 1.323.29 1.064.218 1.406.674.855.718 1.116.95.967 1.062.409.396.505.218 1.555.449 2.47.487M475.592 436.725l.139.53M484.865 434.618l-4.297.952-4.976 1.155M484.955 435.068l-3.695.885-5.53 1.302M460.928 440.52l.42-.108 2.09-.442 3.28-.593 9.013-2.122M428.693 374.02l-1.625.1M427.068 374.12l.237-.36.327-.244.425-.158 1.123-.218 1.086-.31.93-.35.691-.35.387-.178.46-.092.752-.079 2.008.013M614.427 458.112l-.602.244M620.034 469.067l-.988-2.274-1.42-3.002-2.589-4.565-.297-.508-.141-.237-.172-.37" clip-path="url(#p27c3e0814d)" style="fill:none;stroke:#000"/><path d="m609.914 482.871-.1-.81.062-1.212.282-1.773.662-2.6.526-1.192.56-.71 1.056-1.086 1.041-.923 1.711-1.209 3.288-1.78 1.032-.51M610.59 486.941l.788-1.48.476-.521.357-.25.7-.093 1.755.086 2.357.198 1.815.303 2.045.495 1.555.428 1.242.337 1.272.495.61.33.484.138.55-.132.647-.383 1.16-.89.454-.225.907-.032.938.032 1.524-.263 1.473-.172 2.64-.336.93.079M534.465 550.07l-1.178-2.395-.81-2.203-1.689-4.214-1.13-3.1-.476-1.702-.201-1.207-.007-1.563-.149-1.102-.454-.937-1.004-1.233-.766-1.412-.305-.837-.022-1.359.126-1.49-.067-.476-.357-.534-.617-.475-1.443-.758-1.8-1.3-1.443-1.207-2.038-1.9-1.979-1.919-.788-.99-.283-.554-.617-.804-1.056-1.194-.453-.515-.268-.204M574.374 497.796l-.662.06-1.22.112-1.985.204-2.068.172-1.042.237-1.093.574-1.666.858-.818.896-.692 1.274-.944 1.035-1.414.56-.892.106-1.034-.244-1.02-.68-.772-.777-.655-.422-1.145-.647-1.242-.62-1.228-.336-2.216-.238-1.897.046-1.413-.138-.818-.29-.803-.522-.707-.336-.73-.086-.765.126-1.093.37-1.421.896-2.224 1.92-2.075 1.84-2.261 1.708-1.242.812-.796.336-1.049.218-1.755.204-2.879.29-2.097.31-2.589.397-1.8.362-1.167.376-1.071.495-1.745.801-.926.45-.613.487-.852.84-.587.654M511.488 514.135l.148.046.424-.125.394-.304.38-.732.357-.534M506.058 520.138l1.487.029 1.436.195.699.105.572-.085.305-.244.164-.574-.044-1.373-.238-1.055-.283-.653-.097-.633.087-.55" clip-path="url(#p27c3e0814d)" style="fill:none;stroke:#000"/><path d="m506.058 520.138.409-.852.981-1.735.625-.81 1.034-.825 1.04-.616M511.488 514.135l-1.169 1.062-.173.103M508.311 512.895l.923.303 1.242.495.714.35.298.092M506.058 520.138l-.949.444M508.311 512.895l-1.476.051M474.202 540.771l.736.203.654.409.759.468 1.004.627.543.283.699.073.558-.158.699-.568 1.071-.58.342-.178.394-.02.655.224 1.956.436M478.553 536.703l-.373.28-1.584 1.392-2.394 2.396M472.728 545.85l.328-.2.327-.692.097-1.214-.194-1.339.075-.54.178-.363.573-.64.09-.09M478.553 536.703l1.494-1.125.58-.567.32-.52.038-.799-.083-.501M470.39 546.089l.754-.03 1.064-.145.52-.064M416.249 487.888l.443-1.286.49-1.022.878-1.682 1.183-2.54 1.949-3.687 2.052-3.76 1.354-2.296 1.688-3.371 1.681-3.107.402-.495.476-.336.796-.08 1.933.64.618.12.446-.08.312-.376.529-1.234.454-.138.543.026 2.625.759 4.403 1.359 1.634.308" clip-path="url(#p27c3e0814d)" style="fill:none;stroke:#000"/><path d="m350.285 486.081 2.389.765 1.354.574 3.395 2.306 3.96 2.965.946.564 1.576.504 1.896.172 3.467-.534 7.02-.39 4.583-.184 7.894-.148 2.266-.446.922-.713 2.574-2.836 2.454-2.513 2.164-2.606.93-.996.58-.31.937-.112 1.161.185 2.083.791 9.22 4.044 1.646.6.547.125M484.955 435.068l-.09-.45M496.248 422.053l-.782-.073-1.317-.046-1.123.06-1.33.283-1.466.31-1.042.25-1.286.173-.848.118-.528.244-.298.462-.186.726-.58 1.524-.557 1.365-.135.706-.03 1.372.105 1.63.097.963.044 1.385-.104.68-.017.433M497.73 423.065l-.501-.326-.766-.488-.215-.198M497.73 423.065l-1.193.663-1.071.673-.766.72-.751.771-.134.416M609.914 482.871l.073.591.529 2.529.074.95M611.768 442.113l.562-.309.714-.66.513-.719.26-1.128.276-1.345.684-1.214.96-.87 1.108-.648 1.331-.64.937-.692.61-.396.617-.172.588.04 1.093.27 1.168.403.893.574 1.644 1.451M585.11 479.296l-.151.248-1.235 1.926-1.592 2.375-1.45 2.48-1.324 1.807-.818 1.24-1.681 3.325-1.74 3.325-.745 1.774M521.646 390.627l-.31.228M523.968 438.539l1.149-.015.815-.09.848-.14.981-.31.648-.507.55-.686.223-.489.186-.838.06-1.042-.32-1.233-.142-.713.134-.673.439-1.603.38-.402.81-.31.692-.165 1.108-.146 1.354-.52 1.346-.74.945-.705 1.293-.726 1.072-.455 1.547-.865.625-.652.275-.588.037-.857-.134-1.2-.32-.99-.409-.733-.736-.719-1.399-.83-1.182-.45-1.74-.488-1.63-.58-1.442-.65-1.005-.7-.64-.36-.58-.17-.483-.185-.539-.512-.323-.435-.135-.567-.104-1.584-.304-1.771-.276-1.115-.398-.802-.65-1.17-.123-.895.078-.544-.179-1.108-.327-1.148-.32-.864-.104-.779.178-1.088.187-1.458.312-.911.015-.897-.283-1.036-.572-1.135-.625-.95-.357-.455-.73-.97-.282-.481-.431-.607-.684-.455-.7-.65M507.238 414.083l-.734-.25M520.67 391.45l-.287.289-2.306 3.536-2.395 4.136-4.732 8.16-3.712 6.512M499.912 423.545l-.128-.958.212-1.19.513-1.218.744-1.385.96-1.59 1.055-1.399 1.198-.791 1.279-.95.253-.139.506-.092M506.377 407.163l-1.279 1.993-.595.652-.387.865-.49 1.379.074.382.186.27.364.291.736.27.648.192.87.376" clip-path="url(#p27c3e0814d)" style="fill:none;stroke:#000"/><path d="m520.67 391.45-1.47-.503-1.68-.64-1.48-.383-1.25-.085-.975.244-.862.435-.997.811-.424.554-1.577 1.511-1.644 1.148-2.067 1.564-2.656 1.18-2.023.984-.93.758-1.376 1.254-.751 1.036-1.182 1.214-1.63 1.313-.81.494-.409.825-.104.501.104.828.245 1.35.157.712-.023.97-.439 1.484-.119.759.164 1.128.565 1.913.67 1.814.52 1.208.483.811.616.77.686 1.4 1.027 1.729.883 1.004M500.695 426.473l-.037-.165-.03-.442-.03-.324M500.821 427.034l-.126-.561M503.187 432.33l-.328-1.206-.818-1.834-1.22-2.256M502.91 436.367l.336-.929.134-.917-.104-1.26-.09-.93M507.527 434.35l-.971-.241-1.257-.488-.933-.353-.566-.317-.613-.62M502.91 436.367l-.096.265-.93 2.032-.371.554M460.928 440.52l2.198.572 1.354.435 1.614.713 1.123.494 1.384.317.713.112.618.198.64.376.974.745.803.574 2.566 1.722 1.02.489 1.397.567.916.39.81.164.848-.066.67-.218.654-.033 1.443.066 2.008-.132 2.663-.171 3.19-.053 1.25-.033.967-.165.982-.31.803-.416.67-.54 1.056-1.307.974-1.61.082-.382.758-1.055.558-.607.7-.561 1.25-.772.929-.805M509.77 455.12l-.224-.148-1.101-1.069-.997-1.115-.572-.943-.99-1.102-1.153-1.286-.795-.634-.76-.587-.787-.818-.551-.963-.647-1.161-.342-1.504-.12-1.234.157-1.405.432-1.062.193-.871M512.656 463.22l.267.314.431.844.625 1.57.134.95-.112 2.27-.17 1.8-.09 1.584-.09.725-.252.693-.818 1.28-.625 1.24-1.094 1.438-.238.442-.089.54.335 1.696.104 2.045-.179 3.338-.364 3.186-.114 1.213M521.336 390.855l-.28.205-.386.39M509.77 455.12l-.24 1.171.105 1.359.595 1.042.766 1.042.789 1.003.364.772.327.91.18.801" clip-path="url(#p27c3e0814d)" style="fill:none;stroke:#000"/><path d="m523.968 438.539.498.416.781.554.543.501.097.402-.298.469-.297.527-.06.436.305.25.945.25 1.02.483 1.39.791.55.812.313 1.471-.506 2.424-.142.98-.059 1.688-.513 2.507-.2 1.069-.909 1.016-1.532.838-2.253 1.18-2.916 1.096-1.837.178-1.458-.33-2.224-.798-1.897-.878-2.03-.923-.975-.468-.535-.36M508.185 434.3l.58-.003 2.09.343 1.651.323 2.269.323 1.235.304 1.867.745 1.666.647 1.22.62.699.356 1.65.442.856.139M508.185 434.3l.803-.472.684-.692.595-.924.502-1.151.28-.976-.038-.598-.149-.507-.394-.535-.431-.408-1.146-.76-.49-.23-1.324-.066-1.726-.35-1.733-.178-1.86-.02-1.063.04M507.527 434.35l.33-.046.328-.003M502.91 436.367l.812-.619 1.912-.956 1.331-.363.562-.08M521.336 390.855l.52-1.314.565-2.276.342-2.27.2-1.688.03-1.643-.081-1.122-.32-1.233-.52-1.069-.79-1.089-.587-.428-1.063-.212-1.049-.06-.736-.17-.64-.232-.64-.481-3.05-2.58M607.74 443.288l.41-.012 1.22-.271 1.904-.62.494-.272" clip-path="url(#p27c3e0814d)" style="fill:none;stroke:#000"/><path d="m609.555 445.01.335-.778.588-.759 1.29-1.36M596.205 460.594l1.137-2.153.722-1.47.565-2.033.276-1.332.267-.746.632-1.081 1.258-1.795.654-.93.729-1.286.58-1.122.632-1.622.335-.93.29-.271.67-.337 1.457-.158 1.33-.04M609.555 445.01l-.297-.54-.625-.647-.893-.535M613.825 458.356l-1.123-.033-.833-.337-.447-.422-.23-.646-.06-1.32-.483-2.975-.781-5.053-.313-2.56M596.205 460.594l2.268.836 1.13.224 1.57.053 1.16-.119 1.793-.647 2.03-1.306 1.138-.844.767-.304.773-.125 1.488.106 2.678-.027.825-.085M585.11 479.296l.317-.517.84-1.03.752-.844.759-1.01.312-.368.327-.35.536-.58.394-.66.937-2.302.469-.917.773-1.2.893-1.643 1.004-1.788 1.115-2.401 1.012-1.854.655-1.238M585.11 479.296l2.065.545 2.358.508 1.763.395.743.093 2.157.283 1.027.047 1.16-.152 2.403-.567 1.271-.172.878-.006.96.21 1.346.449 1.286.376 1.064.165.87.244 1.845.6 1.608.557M478.553 536.703l.75-.214.692.013.9.171 1.726.31.84.185.588-.046.416-.191.811-.607.394-.58M393.8 344.546l.496-.773M410.79 377.725l-.38.183M384.052 373.324l-2.716 2.247M395.181 286.19l.265-.29M348.529 331.629l-2.55-1.032M409.804 365.282l-.007-.475-.097-.554-.32-.792-.87-2.072-.61-1.86-.257-1.303" clip-path="url(#p27c3e0814d)" style="fill:none;stroke:#000"/><path d="m409.804 365.282 3.325-.264.885-.244.558-.35.431-.165.145-.036.093-.06.022-.078-.026-.169-.145-.317-.55-.765-1.986-1.98-3.273-2.52-.498-.111-1.142.003M401.755 366.949l-.461.27M357.798 461.918l.502-.155.424-.01 2.488.976 1.466.423 3.696.349.565.033.491-.092 5.646-1.504 3.652-1.089 1.093-.132 3.228.033 5.92.977 7.022.897 4.001-.132.886-.132 1.443-.653.595-.587.23-.489.112-.699.126-1.372.26-.495.841-1.273 2.99-3.668 12.518-17.132M143.692 448.032l1.1-.574.73-.04.818.172.498.455.58 1.392.432 2.533.446.436 1.376.646.848.02.848-.224 1.175-.713 1.354-1.57 1.115-2.177.625-.647.61-.33 1.053-.366M404.843 323.015l-.751 2.7-.64 1.398-.24.473M223.126 403.369l2.092-2.658 1.101-1.115.915-.627.417-.129.36.017.547.215 1.789.986 1.376.478.636-.01.279-.122.487-.412 1.904-2.33 3.808-4.717 2.113-2.532.379-.218.43.02 2.113.896 1.845.364 1.317.468 2.499 1.016 1.376.211 1.1.077M256.613 360.505l.402-.666.536-1.518 1.368-5.08.44-1.055.542-.726.357-.462.193-1.162.105-2.731-.253-1.874-.55-1.042-1.25-1.478-1.8-1.478-1.436-1.082-.35-.456-.215-.606.06-.476.416-.593.684-.376 2.113-.377.409-.303.364-.6.796-1.122.7-.56 1.888-1.195 1.243-.396.647.026 1.07.245 2.463 1.114.885.185 1.383.007.41-.132.394-.363 1.584-2.455.93-.626.572-.172 1.718.073 4.843.31 2.96.119 3.08.145 1.62-.132 3.742-.72 1.271-.111 1.711-.192 3.801-1.115 2.343-.58 1.419-.488M205.207 330.382l-.086.452-1.011 3.636-.804 2.6-.282.705-.09 1.043.276 1.043.32.435 1.256.6 5.822 1.545 4.16 1.286.662.284.714.653.662.7 1.316.679 7.966 2.718 1.696.673 2.306 1.089 1.979.713 3.302 2.025 1.153.666 1.666.587 5.274 1.73 1.956.388.558.225 2.662 1.504.893.376 5.4 1.438 1.68.33M370.056 363.665l5.638 6.48M375.694 370.144l5.642 5.427M381.336 375.571l-.475.393M379.808 376.836l1.053-.872M365.616 370.66l.9-.542.892-.165.967.191 1.294 1.26 1.607 2.132 1.123 1.28 2.105 1.636.982.264.334-.053.246-.092 1.383-.977.283-.06.275.073 1.801 1.229M357.798 461.918l1.473-4.994 1.16-3.866.18-1.266-.224-1.379-.119-.739.022-.31.164-.283.357-.126.982.178 1.881.72 1.488.303 5.75.87 1.747-.118.766-.475.402-.475 2.313-4.077 1.845-2.863.922-2.309.335-1.636.23-.673.358-.395.498-.41 1.763-1.121.728-.878.96-2.295.193-1.01.201-.771.618-.944 1.866-2.401 1.25-1.728 1.986-3.312.759-.943.88-1.004M350.285 486.081l1.534-4.103 1.442-4.407.536-2.044 2.595-8.912 1.406-4.697M119.756 284.5l.73 6.691.989 7.59.342 1.969.394 4.193.788 7.581.246 3.59.35 2.5.387 3.438-.06.917-.067.522-.223.6-.76.765-1.754.607-.394.205-1.436 2.659-.974 1.26-.238.68-.082.845.164 2.256.081.72.93 1.286 1.331 1.003 1.622.501 1.748.574 1.011.746.424.58 1.444 4.126M422.972 274.569l-4.555-3.22-2.038-2.355-.335-.91-.156-1.255" clip-path="url(#p27c3e0814d)" style="fill:none;stroke:#000"/><path d="m422.972 274.569 1.262-.982 1.376-.885 1.77-1.544 3.786-4.012 4.358-4.17-2.856-1.076-.99-.23-1.702-.06-1.763.237-2.165.165-1.703-.184-2.038-.482-1.123-.066-.67.132-1.22.494-1.539.924-.647.674-1.22 3.325" clip-path="url(#p27c3e0814d)" style="fill:none;stroke:#000"/><path d="m395.446 285.9.627-.687 2.41-3.695 1.325-2.64.937-1.557.446-.396 3.392-2.705 1.07-1.425.878-.825 1.905-1.392 1.264-.647 1.562-.416 2.283-.317.975-.376.721-.653.647-1.34M404.408 246.499l-.897 4.717-1.271 5.451-.432 1.637-.223.666-.498.548-2.715 1.98-4.202 4.408-.38.534-.454 1.142M415.065 395.763l-.43.05M380.861 375.964l4.577 4.763M204.091 329.737l.747.28.186.128.183.237M404.408 246.499l.821.389.745.653.424 1.24.23.702.13.154.302.13 2.335.48.35-.093.252-.224.472-1.023M395.446 285.9l.91.574M396.356 286.474l.878-.073 1.8-.323 5.43-2.099.55-.145 1.748-.112.684-.343 1.703-1.096.47-.224 2.26-.673.848-.508 2.09-1.405 3.258-1.656 2.343-1.228 2.477-1.96.077-.06" clip-path="url(#p27c3e0814d)" style="fill:none;stroke:#000"/></g><path id="PatchCollection_1" d="m196.476 329.212 1.276.523.441.505.236.53-.295.532-.402.348-.255-.009-.334.052-.108.192-.304.244-.776.235-.951.357-.354.008-.167-.243.187-.566.353-1.289.422-.679.216-.305.383-.287z" clip-path="url(#p27c3e0814d)" style="fill:#00f;fill-opacity:.8"/><path id="PatchCollection_2" d="m390.364 353.42 1.886-1.226.98 4.29z" clip-path="url(#p27c3e0814d)" style="fill:green;fill-opacity:.8"/></g></g><defs><clipPath id="p27c3e0814d"><path d="M90 100.963h558v525.273H90z"/></clipPath></defs></svg>