<svg xmlns="http://www.w3.org/2000/svg" xmlns:xlink="http://www.w3.org/1999/xlink" width="960" height="960" viewBox="0 0 720 720"><defs><style>*{stroke-linejoin:round;stroke-linecap:butt}</style></defs><g id="figure_1"><path id="patch_1" d="M0 720h720V0H0z" style="fill:#fff"/><g id="axes_1"><path id="patch_2" d="M90.16 640.8h557.68V86.4H90.16z" style="fill:#fff"/><g id="LineCollection_1"><path d="m338.823 180.118 1.169.043.872.161 1.085.389 1.36.82.84.924.652 1.128 1.422 3.832.503.704.606.623.597.644.707.403.692.279 1.25.205 3.22.198.928.14.605.19.668.322.786.69.519.74.259.827.031.806-.393 2.594-.063 1.56.008 2.162.425 3.254.133 1.854.087 2.975-.118 1.927-.62 4.14-.661 3.275-.464 1.129-.573.974-.692.872-2.79 2.572-.62.762-.448.843-.236.703-.079.593.048.821.392.99.794.835.896.535 1.037.344 1.415.22 4.125.373 1.51.264.919.279.927.446.935.77.95 1.077.512.93.259 1.268.008 1.59-.158 1.004-.848 3.077-.18.821-.025.814.126.769.44.908 1.517 1.869.573 1.15.755 2.389.283 1.956.44 1.443M371.466 258.942l-.701-.957-.582-1.283-.338-.79-.204-.536-.44-.622-.574-.784-.487-.653M346.488 238.011l.293 2.462.252.792.4.586.543.593.448.286.566.124 1.013.14 1.242.44 1.32.46 1.014.235 2.302.257.346.088 2.907 1.428.818.58.683.79.378.242 2.663 1.187.496.323.479.557 1.418 2.335.617.727.472.315.982.36M372.902 260.234l-1.752 1.7M372.902 260.234l-1.436-1.292M372.501 266.982l1.316-4.475.04-.901-.206-.476-.749-.896M384.124 256.673l-1.014 1.136-1.234 1.011-4.7 2.872-.636.601-2.216 2.784-1.823 1.905M369.743 276.66l-.126-1.706.095-.909.42-1.625 2.37-5.438M368.14 268.25l-.519 3.971.047.828.126.41 1.949 3.202M369.196 282.245l.185-1.525.472-2.315.063-.689-.173-1.055M355.82 286.28l.592-.187 7.211-1.89 5.573-1.958M372.384 288.325l-1.667-2.432-.895-1.773-.626-1.875M352.038 286.061l-.982-.22-10.396-2.498M336.448 283.035l2.192.037 2.02.271" clip-path="url(#p16239e104e)" style="fill:none;stroke:#000"/><path d="m341.218 278.925-.161 2.334-.397 2.084M322.626 284.86l-.527.645-.707.886M320.535 294.883l.087-3.62.11-2.9.15-.829.51-1.143M290.242 271.576l.66.418.495.08.708-.007.455-.146.794-.594 1.485-1.78 1.14-1.04 1.438-.997.409-.176h.369l.801.198.92.249.884.497 1.952 1.547 1.863 1.466.884.52 1.477.696 1.234.586.499.344.62.564.88 1.085.401.395 1.965 1.503 1.32.725.597.322.33.344.614.887.597.513.746.63.668.828.354.586.338.82.723 1.671.495.828.314.381.463.315 1.258.557M381.593 301.213l2.837-.6M372.384 288.325l3.888 6.202 2.683 3.858.964 1.04 1.182 1.19.492.598M381.947 306.273l-.122-1.393-.004-1.168-.228-2.499M320.148 304.496l.909.5M320.148 304.496l.073-2.103M320.148 304.496l-.027 1.556M381.947 306.273l-1.52.552M382.24 312.92l-.042-2.134-.25-4.513M376.925 308.086l1.452-.511 2.05-.75M376.468 307.794l.721-.899.343-.319.228-.085.342-.015 1.305.205 1.02.144M376.24 308.333l.685-.247M374.05 312.81l.33-.797.502-1.231.715-1.837.295-.42.348-.192M376.24 308.333l.913.947.912.996.346.498.259.762.275.667.402.626M376.24 308.333l-.096-.137M382.471 314.421l-.035-.44-.063-.404-.05-.344-.083-.313M382.471 314.421l-1.206.172M382.492 315.592l-.009-.548-.012-.623M339.254 316.1l-.787-.659-1.194-.557-1.328-.344M321.057 304.997l2.004.894 1.152.627.446.29.388.345.525.593.503.688 2.696 4.443.88 1.07.676.498.92.249.713.095 1.308-.139 1.552-.198 1.125.088" clip-path="url(#p16239e104e)" style="fill:none;stroke:#000"/><path d="m332.672 320.021 1.368-1.597.943-1.7.962-2.184M341.338 318.612l-.309-.387-.455-.366-.535-.63-.785-1.128M335.784 320.71l1.434-2.016 2.036-2.593M381.772 317.463l.497-.886.079-.213.027-.179.117-.593M376.227 322.78l2.917-2.356 2.628-2.96M381.772 317.463l-2.07-1.338M341.433 318.791l1.238-.133.826-.059M350.97 320.973l-4.613-1.18-1.139-.373-1.72-.82M369.057 318.927l-2.072-2.01-.185-.12-.196-.03-.28-.007-.843.042-1.09.104-.726-.04-1.12-.201-3.969-1.004-1.626-.41-1.218-.19-1.603.021-1.973.213-1.8.322-1.35.315-1 .365-1.263.645-1.25.631-1.996 1.026M341.433 318.791l-.095-.179M339.132 321.577l1.788-2.564.513-.222M341.902 321.515l-.275-.952-.291-1.162.097-.61M369.057 318.927l-1.051.858M371.56 316.591l-.359.506-2.144 1.83M368.006 319.785l-2.92 2.422M368.006 319.785l4.481 5.706M365.086 322.207l3.89 5.715M365.086 322.207l-1.244 1.083" clip-path="url(#p16239e104e)" style="fill:none;stroke:#000"/><path d="m348.086 318.306 3.63-.344 3.175-.176 1.36-.14.518.008.51.124.535.25.613.41.303.183.224.084.228.048 2.373.12.507.03.212.066.2.088.212.154 2.4 2.996M376.227 322.78l-3.942-5.547M376.227 322.78l-3.74 2.711M362.097 324.508l-.894-1.027M362.097 324.508l5.721 9.32M362.097 324.508l1.745-1.218M372.487 325.491l-3.511 2.431M372.487 325.491l3.73 4.624M368.976 327.922l3.09 4.657M379.897 334.828l-2.229 1.44M379.897 334.828l-3.68-4.713M379.897 334.828l3.055 4.227M571.99 339.527l-4.21-2.59-5.401-1.079M532.51 340.39l1.978-.545 5.986-1.374 5.662-.628 9.559-1.31 6.684-.675M572.787 331.276l-.32.12-1.301.692-3.709 2.207-1.437.58-1.441.512-2.2.471M518.528 337.464l-.094.96-.157.667-.417.758-.176.195-.334.186-.425.084-.44.008-.534-.052-1.242-.212-.589-.066-.652.022-.668.117-.708.227-.707.447-.895.982M474.02 357.567l1.886.184 1.171-.132 1.572-.535 3.976-2.014 2.829-1.458 1.343-.887.731-.674.527-.66.7-1.208.997-2.99.448-1.296.613-.916.668-.659.746-.47.77-.285.755-.124.809.014 2.381.506 1.187.205 1.17.03 1.148-.118 2.02-.476 3.418-.923 2.365-.615 2.24-.28M532.51 340.39l-1.05.288-7.753 2.42-1.336.367-1.328.11-1.296-.066-1.407-.286-2.656-.784-1.194-.315-1.682-.256-2.318-.081M426.164 344.469l-2.114.768M429.048 342.292l-1.163.975-1.72 1.202" clip-path="url(#p16239e104e)" style="fill:none;stroke:#000"/><path d="m438.32 346.197-2.081-.578-4.495-1.187-2.13-.316-1.234.008-2.216.345M393.372 351.949l.963.975 1.67 1.933 1.225 1.45.283.176.307.074.873-.066-.048-1.971.173-2.476.16-.674.182-.231.161-.08.566-.078 1.17-.04.574-.062.252-.12.251-.24.413-.556.263-.623.114-.461-.02-.681" clip-path="url(#p16239e104e)" style="fill:none;stroke:#000"/><path d="m395.046 350.666 4.211-.105.92-.125.64-.147.578-.26.488-.41 1.021-1.421" clip-path="url(#p16239e104e)" style="fill:none;stroke:#000"/><path d="m424.05 345.237-3.221 1.077-1.297.074-1.344-.227-1.084-.594-2.955-2.557-1.32-.805-.92-.433-.99-.3-1.06-.14-1.03.074-.927.249-1.415.792-1.06.974-1.053 1.634-1.47 3.143M392.704 350.828l.668 1.12M392.704 350.828l-.574-.682-1.563-1.875M394.025 350.688l-.614.059-.707.08M392.704 350.828l-.795.084M490.82 360.311l-1.57.759-1.913.78-.752.07-1.03-.022-.919-.103-2.852-.857-4.07-1.451-3.694-1.92M438.32 346.197l5.745 1.693 3.237.96 2.515.512 4.448.433 7.002.227 1.445.198 1.085.337.99.586 4.605 3.816 2.168 1.495 1.502.755.958.358M332.354 338.212l-.637 1.663-.691 1.539-.71 1.085-1.993 2.307-.762.93-.622 1.216-.274.784-.401 1.729-.857 5.465.15 4.198-.11 1.275-.456 1.546-.653 1.208-2.804 3.693-2.083 3.062-.739 1.648-.793 1.832" clip-path="url(#p16239e104e)" style="fill:none;stroke:#000"/><path d="m318.822 353.436-.283 10.007-.126 5.758-.494 4.191M311.294 392.293l1.51-1.868 1.263-1.977.691-1.613.488-1.634 2.673-11.809M300.409 402.627l1.175-1.365 1.9-1.874 7.81-7.095M348.894 421.179l-1.618-4.486-1.493-1.005-1.493-.27-2.406.347-1.078-.039-2.364-3.286-4.148-1.237-3.815-.85-2.24-.736-3.94-3.325-1.203-1.585-3.318-2.088-2.572-2.088-3.244-5.297-.173-.377-.067-.33-.007-.497.102-.583.31-1.597.061-.619-.037-.271-.055-.096-.108-.044h-.155l-.182.044-.455.345-.542.505-.354.22-1.006.359M286.433 419.311l-1.115.447-8.477 2.308-2.531 1.08-1.315.628-1.377.927M256.529 445.815l.472-2.043.842-1.85 1.013-1.83 8.775-11.426 2.122-2.423 1.865-1.542M233.126 394.147l.715 2.943 8.087 6.998 2.53 1.199.664 2.823 2.696 1.662 3.899 2.9 8.917 4.833 1.949.155 3.691-.348 5.344 7.389M244.173 497.583l2.406-3.69 2.19-4.424 1.532-4.054 1.246-4.839 4.982-34.76M208.687 425.884l-.494-1.177.275-1.227 1.098-.819.877-.921.44-1.637v-1.893l.767-1.125 1.427-.87 2.086-.511 1.536.102 1.866.154 2.03-.41 2.25.359 1.591.971 1.647 2.558v1.125l-.494 1.28.274.87.659.562 1.7.256 1.702.41 1.317.766 2.579 3.018.933.819 1.097.562 1.482.768 1.81 2.404.769 1.79.165 1.893.383 1.28.933.767 1.153.051 1.756-.102.933.409.713 1.074.658.767 1.208.256 1.098-.307.877-.614 3.457-.05 2.69.357.877.614.275.972-.768 1.688-.44 2.2.65.492M212.51 140.283l-.456-1.715-.472-1.165-.628-1.084-1.053-1.21-1.092-1.01-2.318-1.76-6.523-4.616" clip-path="url(#p16239e104e)" style="fill:none;stroke:#000"/><path d="m100.885 155.972 3.395-.175 4.275.996 4.275-.235 3.08-1.7 5.532-1.29 9.556-.116 3.835 2.403 6.16-.661 4.48-3.2 2.286-1.154 2.715-.755 5.86 1.466 4.67 3.198 2.286.934 2.43.222 1.62-.8 1.572-3.776 2.24-5.598 3.348-5.609.94-1.944.663-.635.51-.353.528-.16 2.05-.206.951-.33.425-.344.228-.381.023-.571-.173-.616-.346-.748-.07-.388.047-.396.385-.732.448-.494 1.202-.914 2.947-1.7.99-.509 4.243-1.323 1.698-.498 2.986-.359 1.328.03.73.16.692.242 2.043.77M217.162 158.207l-.102-1.146-.308-1.234-.391-.807-.391-.556-3.075-4.083-.621-1.407-.267-1.026-.133-1.136.188-1.993.393-2.44.055-2.096M209.076 125.664l-.707 1.553-.126 1.07.173 1.026.314.997 3.662 7.05.141.762-.023 2.161" clip-path="url(#p16239e104e)" style="fill:none;stroke:#000"/><path d="m242.874 99.45.416 1.935.424 2.55-.094.777-.385.594-1.03.645-.864.205-1.988.073-.463.11-.401.242-.4.484-.692 1.582-.472.872-.943.946-1.305 1.194-.864.88-.691.725-.205.389-.118.557-.204 2.213-.424 1.788-.283 1.656-.314.909-.63.989-.644.478-.825.512-.487.417-.227.359-.417 1.034-.322 2.198-.684 1.766-.377 1.1-.087 1.223.134 2.257.008 1.246-.18.615-.575.93-.801 1.159-.59 1.268-.188.85-.008 1.12-.016 1.48-.44 1.261-.204.836-.252.344-1.013.667-1.077.638-1.233.351-.409.213-.15.3-.125.455.086.696.307.66.322.673.189 1.202-.29 1.363-.33.755-.158.542.024.462.094.403v.828l-.205.63-.417.544-1.045.988-.534.645-.636.974M217.288 163.71l-.276-.667-.157-.637-.094-.974.11-1.415.29-1.81" clip-path="url(#p16239e104e)" style="fill:none;stroke:#000"/><path d="m338.823 180.118-2.021.146-10.727 1.384-1.36.081-1.673-.03-1.548-.292-1.336-.44-1.752-.887-3.717-2.491-.904-.527-1.178-.381-1.274-.257-3.363-.33-1.178-.286-.85-.468-.573-.455-.597-.622-.582-1.151-.998-2.228-.479-.696-.73-.689-.63-.344-1-.39-5.466-1.889-4.52-1.392-1.688-.389-2.617-.33-5.297-.322-1.445-.125-1.391-.315-1.375-.608-2.986-1.788-1.18-.417-1.43-.257-1.398-.051-1.124.095-1.164.253-1.13.362-6.124 2.836-1.342.425-1.485.323-1.297.168-1.312.052-3.277.144-1.115.073-1.076.196-1.282.437-1.205.638-1.998 1.104-1.267.563-1.282.428-1.8.433-1.626.153-2.051-.183-1.367-.344-3.733-1.466-4.377-1.868-1.124-.345-.989-.09-1.232.022-2.43.308h-.811l-.868-.09-1.076-.441-.727-.574-.581-.784" clip-path="url(#p16239e104e)" style="fill:none;stroke:#000"/><path d="m163 228.954-.124-6.923v-2.9l.954-1.006 3.07-1.508 4.188-1.044 2.613.502 1.41-.116.581-.85-.041-1.818-.166-2.668-.913-5.26.777-1.6 1.807-.403 3.591-.036.645-.074.7-.227.282-.168.203-.238.434-1.39.298-.702.306-.535.802-1.048.762-.894.912-.88 2.357-1.428.676-.535.448-.506 1.32-1.986.723-.967.739-.696 2.994-2.755 1.076-1.121.66-.85 1.517-2.126.92-.966.88-.682.612-.271.794-.184.873-.073.51-.11.558-.204 3.56-1.598.982-.586.527-.47.22-.41.26-1.158.392-1.084.354-.645 1.249-1.29.597-.776.33-.572.425-1.89.157-1.583.062-1.26.3-.939.596-.85 1.022-.82 2.507-2.067M322.65 107.233l.573 2.455.244.755.298.49.338.36.55.33.37.263.188.382.173.446.063.609-.07.674.109.418.228.704.613 1.436.322.454 1.626 1.393.394.424.597.858.408.403.629.52.644.3.794.206.778.03 1.116.058.362.11.345.19.243.36.126.395.047.47-.173 2.249.025.535.101.41.315.77 1.893 3.194.37.638.055.337.04.381-.048.293-.872 1.671-.52 1.158-.093.484-.189 1.597-.526 3.606-.142 1.003-.149 1.825-.181.69-.298.607-1.329 1.913-.33.462-.125.315-.008.256.063.506.275.85.016.55-.252.988-.173 1.202.024.682.11.85.361 1.21.472 1.128.684 1.054 1.241 1.107 2.53 2.06.346.453.283.52.134.573.094.769-.047.777-.307 1.604-.054.719-.071 1.326-.15.689-.581 1.326-.59.865-.51.542-1.493.85-.92.447-1.32.44-.228.153-.094.235-.024.41.134.55.754 2.022.519 1.012.228.344.298.3.598.396.377.433.204.41.26.865.212.337.463.432.527.344 1.856.668M384.124 256.673l1.233-1.399 2.137-1.971 3.371-2.08.7-.287 3.505-1.128.298-.256.367-.58.168-.915-.048-.748-.91-2.784-.174-.755.04-.747.144-.752 2.34-4.635.904-1.685.289-.255.267-.103.464-.051 1.972-.037.849-.088 1.242-.264 5.704-1.758 1.29-.733.549-.571.755-1.971M419.336 114.687l-.637 3.062-.613 4.133-.629 3.21-.778 3.88-.095.475-.132.658-.676 4.015-.079 1.26.251 2.448.315 2.58.189 1.744.581 2.183.456 1.54.235 1.641-.062.996-.22.938-2.106 5.584-.605 1.033-.417.315-.377.228-.613.197-1.949.3-1.069.419-.644.322-.581.462-.354.41-.967 1.634-.486.836-.755.864-3.053 2.375-.24.201-.275.29-.298.637-.071.528.04.417.628 1.32.51.483.621.337.818.212.77.052.613-.073 1.791-.528h.606l.707.271.597.572.306.667.134.96-.118 1.714.008.916.22.952.55 1.026.55.535.519.293.668.074.778-.14.691-.208 1.493-.396.456-.003.476.186 1.095.627.417.527.306.682.032.88-.157 2.38.07.982.496 2.016.063.886-.087 1.07-.542 1.129-1.061 1.473-.526.879-.283.857-.3 1.722-.557 1.737-.37.864-1.948 2.28-.625.61-.483.474-1.702 1.26-.977.689-1.046.88-1.076.842-.566.263-1.556.338-1.108.366-.794.425-2.137 1.832-.982 1.165-.291.506-.267 1.37-.29 1.692-.685 2.213-.122.36-.035.402.157.623 1.281 1.473 4.739 4.257 1.108 1.194.424.704.098.784.114 3.246.18.916.292.366.487.341 2.946 1.99.456.608.378 1.216M440.76 248.812l-.16-.118-.955-.432-.319-.161-.267-.231-.196-.224-.488-.67-.25-.286-.983-.799-.31-.296-.52-.656-.29-.275-.412-.256-.935-.41-2.06-.719-.683-.285-.566-.44-.683-.616-.323-.41-.502-1.084-.275-.52-.338-.352-.495-.3-.339-.213-.22-.206-.172-.22-.739-1.025-.739-.784-3.214-3.1-.628-.688-.456-.286-.345-.16-1.352-.345-.66-.228-.346-.241-1.053-1.173-.873-.93-.526-.337-.542-.22-.432-.088-.409.007-1.218.25-2.907.835M351.795 297.784l1.132-.088.706-.078 4.896-1.167M373.295 306.173l-3.049-1.81-1.187-1.077-.62-.82-1.4-2.432-.919-1.238-1.084-.74-2.255-1.277-.978-.303-1.113-.135-2.16.11M357.468 292.86l.37 1.334.691 2.257" clip-path="url(#p16239e104e)" style="fill:none;stroke:#000"/><path d="m359.048 299.865-1.823-.627-.124-.06-.091-.089-.049-.164.009-.383.094-.63.118-.242.151-.097.462-.144.55-.12.078-.046.047-.084.032-.278.027-.45M331.183 291.175l-.786.403-5.775 4.382-1.752 1.59-1.14 1.575-1.509 3.268" clip-path="url(#p16239e104e)" style="fill:none;stroke:#000"/><path d="m320.535 294.883-.063 1.37-.29 5.107.04 1.033M356.384 322.182l-5.414-1.21M363.842 323.29l-.931-.91-.637-.569-.248-.091-.251-.022-.668.088-2.845.337-1.878.059" clip-path="url(#p16239e104e)" style="fill:none;stroke:#000"/><path d="m361.203 323.48-.5-.532-.166-.173-.196-.073-.374-.037-1.422-.066-1.053-.073-1.108-.344M376.216 330.115l3.42-2.256 1.36-1.018M357.61 327.28l-.354-.717M353.911 330.953l.332-.507.436-.528.55-.38 2.248-1.32.22-.296.047-.275-.134-.366M356.156 327.032l.81.124.644.125M366.88 339.301l-12.98-5.023-.33-.323-.227-.395-.055-.557.157-.762.466-1.288" clip-path="url(#p16239e104e)" style="fill:none;stroke:#000"/><path d="m364.28 333.171-9.06-1.945-1.309-.273M364.28 333.171l3.538.657M366.88 339.301l-.736-.92-1.03-1.217-1.155-.88-.126-.175-.055-.227.501-2.71M369.62 334.01l-.379.094-1.423-.276M369.62 334.01l1.16 1.66M369.62 334.01l2.446-1.43M377.668 336.267l-2.253 1.31M382.952 339.055l-2.145-.587-.699-.264-.598-.322-1.842-1.615M375.415 337.578l3.255 5.586.33.374.605.469 1.823 1.157M375.415 337.578l-2.23-3.408M372.375 338.023l-3.642 1.938M372.375 338.023l-1.595-2.353M372.375 338.023l5.365 8.154M382.952 339.055l.9 1.064M368.733 339.961l7.854 7.386M366.88 339.301l1.155.412.698.248M378.34 347.04l-.6-.863M376.587 347.347l.684.484.157.03h.22l.179-.096.513-.725M381.428 345.164l-1.611.286-.432.22-.315.227-.73 1.143M355.82 286.28l1.648 6.58M352.038 286.061l1.18.184 1.368.15 1.234-.114M347.504 310.73l1.053-1.113M363.3 311.741l-.684-.322-1.038-.337-2.577-.667-1.116-.16-.59.05-1.327.337-1.926.308-1.854.11-1.949-.022-2.735-.308M343.434 313.925l1.006-.777 1.5-1.135 1.564-1.283M371.842 349.212l.815.84 1.416.812 2.073 1.02M371.842 349.212l-1.258 2.129M362.57 346.015l2.487.803 2.782.974 2.375.827 1.628.593M369.287 346.425l.752.479.883 1.284.92 1.024M362.57 346.015l.897-1.674M357.963 343.157l1.103.846 1.389.97 1.227.654.888.388M357.359 342.22l.604.937M348.168 336.347l.924 1.264.668.703 1.398 1.048 2.028 1.077 1.8.857 2.373.923M363.467 344.34l-.238-.084-5.87-2.037M374.764 349.047l1.823-1.7M378.026 350.71l-1.863-.79-.825-.463-.574-.41M369.562 345.179l1.957 1.128.715.513 2.53 2.227M376.587 347.347l1.153-1.17M368.14 268.25l.314-3.348M360.502 265.605l-.487 1.377-.378 1.308.032.223.11.118.228.07.562-.008 3.092-.194 4.48-.25M371.466 258.942l-2.108 1.27M368.454 264.902l2.696-2.968M368.454 264.902l-7.952.703M369.358 260.212l-3.088.594-2.814.65-1.06.346-.48.298-.472.645-.942 2.86M361.203 323.48l-3.947 3.083M339.132 321.577l-.684 1.271-.695 1.964-2.283 5.789-1.371 3.215M332.652 337.567l.582-1.531.865-2.22" clip-path="url(#p16239e104e)" style="fill:none;stroke:#000"/><path d="m334.2 324.081-.652 1.97-.644 1.801-.079 1.29.3 1.494.974 3.18M321.518 308.327l-.228-.506-.104-.466-.13-2.358M321.518 308.327l-.532.117" clip-path="url(#p16239e104e)" style="fill:none;stroke:#000"/><path d="m328.46 319.07-.067-2.105-.349-1.515-.326-.983-.456-.755-.975-1.194-2.396-2.081-2.373-2.11M332.354 338.212l.298-.645M328.46 319.07l-.176 2.32-.024 1.297.157 1.23 1.71 5.98 1.709 5.406.518 2.909M339.132 321.577l-3.348-.867M335.784 320.71l-3.112-.689M334.2 324.081l.668-1.445.916-1.926M332.672 320.021l-4.211-.952M334.2 324.081l-2.192-.368-.338-.154-.196-.286-.04-.293.095-.49 1.143-2.469M445.116 344.179l-2.827-3.681M431.578 340.073l7.542 2.49 5.996 1.616" clip-path="url(#p16239e104e)" style="fill:none;stroke:#000"/><path d="m429.048 342.292 1.784.433 3.497 1.15 10.64 2.974 1.127.3.22-.065.228-.15.177-.238-.012-.378-.141-.38-.35-.48-1.102-1.28M398.582 338.534l.15-.832.479-2.26.448-.813.628-.564.338-.132.362.044.59.235 1.335.608 1.478.578 2.726.953 1.077.366 1.084.044.865-.183 1.35-.762 1.837-1.235.883-.56.644-.249 1.281-.154M434.51 331.962l-3.042-1.926-1.367-1.187-.683-.389-.747-.124-.849.03-.793.19-.804.5-.901 1.082-1.014 1.377-.912.726-1.218.6-1.123.271-2.374.272-2.546.234M421.054 339.418l-.5-.781-.677-.506-1.642-.886-.974-.638-.73-.74-.282-.623-.112-1.626M390.567 348.27l-.84-.988-3.993-4.938-1.881-2.225M398.582 338.534l-.393.864-.463 1.107-1.58 3.788-.22.358-.306.228-.77.278-.786.454-3.497 2.66M595.758 340.74l-2.767-2.343-2.483-2.814-2.02-4.327M572.787 331.276l1.176-.44 1.067-.316 1.263-.25 3.854-.14 6.31 1.33 2.03-.204" clip-path="url(#p16239e104e)" style="fill:none;stroke:#000"/><path d="m637.115 320.903-.941 1.297-1.866 1.024-2.579.87-2.03.204-3.307.168-2.894.242-3.622 1.125-1.92.41-1.866.05-4.17-1.432-1.921-.256-1.976.41-2.085.562-2.47.768-2.524.255-2.36-.665-2.085-.102-2.084.87-2.03 1.74-1.757 1.841-2.14.972M431.578 340.073l-1.61 1.194-.92 1.025M435.343 338.263l6.946 2.235M431.578 340.073l3.05-1.51.715-.3M434.51 331.962l.69 1.634.355 1.802.188 1.641-.149.689-.251.535" clip-path="url(#p16239e104e)" style="fill:none;stroke:#000"/><path d="m442.289 340.498-4.98-6.172-1.362-1.39-1.438-.974M212.423 408.981l-1.555 1.231-.157 4.366-1.95 2.49.943 3.4-2.262 2.96.03 1.171 1.215 1.285M207.905 428.819l.892.441.823-.409.275-.972-.11-.972-1.098-1.023M181.808 436.775l2.696-2.418 1.139-.71 1.179-.608.691-.117 1.222.043.648.08 1.093.015 1.103-.157 4.476-2.025 1.556-1.217.849-.886 1.336-.798 1.15-.469 1.214-.308.767-.037.766.14 3.39 1.281.822.235" clip-path="url(#p16239e104e)" style="fill:none;stroke:#000"/><path d="m170.234 425.124 1.304-.356 7.728-2.234 1.214-.564.325-.293.139-.26.255-1.246.291-1.077.39-.736.765-.736.53-.352.716-.198.609-.036.69.113 2.215.75 1.308.567 1.536.614 2.086 2.2 1.646 1.023 2.14.92 1.811.41 4.006 1.586 2.36 1.33 3.607 2.27M357.256 326.563l-1.241-.88-2.774-1.633-2.055-1.476-.244-.224-.102-.27-.007-.437.137-.67M370.78 335.67l2.405-1.5M373.185 334.17l-1.12-1.59M372.285 317.233l-.726-.642M377.733 314.984l-4.2 2.436-1.248-.187M374.05 312.81l3.683 2.174M371.56 316.591l2.04-3.024.45-.757M366.568 313.119l.943-.14 1.014-.366.833-.564.582-.6.306-.499.228-.696.102-1.597-.087-1.187.008-.366.055-.132.112-.079.173-.026.14.043.106.126.553 1.13.59 1.07.232.44.13.453.216.865.194.928.128.259.155.144.263.196.505.289M377.733 314.984l1.968 1.14M376.05 307.745l-2.755-1.572M376.05 307.745l.094.45M376.05 307.745l.418.05M373.295 306.173l2.035-3.004M354.506 327.874l-1.666.755-2.067 1.018M347.78 332.19l.094-.546.169-.363.27-.308.905-.637 1.555-.689M368.155 344.351l-5.578-3.004-4.08-1.875-4.84-1.95-1.398-.732-.755-.556-.966-1.173-.716-1.208-.117-.916.047-.638.408-1.18.613-1.472" clip-path="url(#p16239e104e)" style="fill:none;stroke:#000"/><path d="m346.68 326.966 2.93 1.597 1.163 1.084M381.265 314.593l-1.564 1.532M381.265 314.593l1.227.999M379.347 312.829l.533.539 1.385 1.225M382.24 312.92l-1.336-1.316M291.397 325.86l.566-1.136.841-1.971.846-1.805M297.881 317.792l-.917.42-.883.534-1.084.761-.649.613-.698.828" clip-path="url(#p16239e104e)" style="fill:none;stroke:#000"/><path d="m290.02 321.128.982.276.815.014.699-.053.528-.168.606-.249M284.062 322.515l-.134-1.414M287.375 320.74l-.97.397-2.343 1.378M217.123 292.696l.526.568.22.395.205 1.194.212 1.1.274.498.378.454 1.506 1.078 1.37 1.581.409.652.73 1.693.401 1.114.37.571.321.396.857.652 1.43 1.077.624.733.469.974.25.447.339.33 1.265.974 1.776 1.751.487.38.409.155.565.059.488-.03.62-.183.857-.388.621-.572 1.147-1.626.801-1.37.283-.755.19-1.245.204-.55.267-.374.487-.344 1.03-.432 1.791-.63 1.375-.198.872.022.653.146.715.396.456.388 1.83 2.536 1.517 2.234 1.996 4.125.416.564.645.638 3.159 2.527 2.585 2.491.904 1.011.322.483.707 1.627.228.36.409.38 2.279 1.612.562.22 1.355.344 2.515.528 2.13.3 1.264-.058 2.067-.301 3.902-.908 1.882-.693 1.548-.355.86-.08.967-.038 1.155-.23 1.485-.579" clip-path="url(#p16239e104e)" style="fill:none;stroke:#000"/><path d="m297.167 316.03-1.024.35-.709.28-.598.303-.75.443-1.08.98-1.42 1.397-.848.743-.717.602M287.375 320.74l.442-.051 1.551.284.653.155M299.206 315.337l-.534.197M299.44 312.452l2.5 2.77M297.881 317.792l-.714-1.762M300.869 316.925l-2.207.636-.78.231M306.255 315.658l-1.777.964-.911.373-1.107.181-.899-.086-.692-.165" clip-path="url(#p16239e104e)" style="fill:none;stroke:#000"/><path d="m301.94 315.221-.938.807-.133.897M306.255 315.658l3.543-2.383M306.255 315.658l-1.888-2.259M320.121 306.052l-.022 2.37M309.798 313.275l3.24-2.406 1.969-1.505.397-.303.212-.163 1.187-.915.73-.52.96-.594.97-.476.658-.34M304.367 313.399l-1.222.921M304.367 313.399l-2.199-2.478M301.94 315.221l1.205-.9M300.83 311.516l2.315 2.804M338.597 342.63l-1.355-.136-.766-.172-.676-.212-.28-.17-.384-.472-.409-.714-.613-1.176-.44-.634-.522-.681-.5-.696M338.597 342.63l.574.01.904.15 1.053.158 1.984.403M342.754 325.105l-.244.436-.27.633-.051.415.09.447.286.7 1.08 1.89.984 1.904.376.967.15 1.217.07 1.853.127.923.102.23.145.129.138.059.223.018.358-.048 1.85-.53M347.78 332.19l.007 1.311.126 1.81.255 1.036M424.05 345.237l-2.144-4.219M399.98 341.882l.583.806.385 1.37.133.718-.063.337-.432.623-.668.828-1.43 1.494-3.442 2.608M394.025 350.688l.581-.029.44.007M390.441 350.586l.196 1.348M390.441 350.586l.762.319.35.045.356-.038M384.045 346.717l5.587 3.275.81.594M390.637 351.934l.645.036M461.033 467.268l-.183-2.525-1.32-3.81-2.766-1.758-1.76-5.098-3.71-1.406-1.949.293-1.76 3.575-2.829.293-.754-1.993 1.132-.88.188-2.46-2.137-.234-1.509-1.876 1.194-2.169-2.2-3.34.189-4.337 3.08-1.406.315-.703-.943-1.113-5.093-.118.44-4.22 2.767-2.402.565-.88-3.52-3.633-3.27.117-1.13-1.523-4.778-5.392-.252-3.282-.935-2.432-1.344-2.446-.864-3.605-.81-1.172-.91-.41-.786-.293-3.356-1.604-.825-.33-.448-.498-1.745-2.638-.204-.095-.346.014-.337.154-2.61 1.92-.565.139-1.258-.132-1.265-.498-2.412-.447-.48-.212-2.137-1.18-1.768-.212-.448-.19-.558-.403-1.06-1.246-1.132-.689-.975-.483-1.021-.938-1.226-1.729-.095-.322.11-.455.3-.395.77-.425 3.033-.937 1.163-.689.927-.791.345-.704.268-1.069.141-1.407.055-2.483.134-2.33-.197-.351-.408-.403-2.177-1.54-.676-.717-3.222-4.469.032-.534.189-.367.376-.33 2.114-1.523.464-.726.102-.476-.079-1.062-.406-.84-1.472-2.354-1.147-2.132-1.398-.491-5.572-1.106-1.116-.051-3.497.256-.526-.19-.315-.271-.125-.726.149-.366.692-.513 2.624-1.37.747-.52.251-.403.252-1.15.039-2.58.573-2.087M394.025 350.688l-.653 1.26M370.584 351.34l-3.277-1.333-3.615-1.245-3.3-1.1M370.584 351.34l1.964 1.078 2.24 1.303M369.955 352.146l.629-.805M369.287 346.425l-5.82-2.084M369.287 346.425l.275-1.246M345.47 328.93l1.327 2.52.236.315.307.256.44.169M368.155 344.351l1.407.828M366.88 339.301l-.202 1.423.024.653.29.813.66.872.268.41.235.88M352.196 324.819l3.96 2.213M354.506 327.874l.888-.425.762-.417M344.115 325.851l-.47-.24-.89-.506M341.902 321.515l.93 2.718.067.345-.145.527M344.896 323.368l-.975-.556-1.022-.85-.997-.447M354.506 327.874l-3.89-1.897-3.372-1.522-2.348-1.087M349.815 324.174l-1.737-.747-.452-.212-.38-.25-.889-.542-.353-.208-.15-.022-.117.025-.126.073-.213.28-.502.797M346.68 326.966l-1.413-.667-1.152-.448M345.47 328.93l-.563-1.038-.792-2.04M345.47 328.93l1.21-1.964M367.472 306.781l.353 1.26M363.3 311.741l1.131.711.88.454.526.125.731.088M367.825 308.042l-.14 1.062-.362 1.824-.307 1.04-.448 1.15M363.3 311.741l1.39-.608.46-.462.491-.886.192-.55.185-.38.268-.227.73-.367.81-.22M333.423 308.54l1.597 1.357 1.94 1.36 2.207 1.18M341.147 315.727l-.126-.491-.306-.938-.51-.733-1.038-1.128M343.434 313.925l-1.925-.535-2.342-.953M341.338 318.612l.045-.504-.193-.443-.153-.304-.062-.25.015-.578.157-.806M342.747 314.598l-.57.447-1.03.682M342.747 314.598l.687-.673M347.159 313.456l-2.703 1.403-.385.124-.323.062-.24-.018-.761-.429M391.282 351.97l.527.103.55.096.534-.074.479-.146M337.344 291.351l.385-2.051M331.183 291.175l.61-.135.79-.015 4.761.326M351.795 297.784l-1.493-.132-1.077-.198-1.587-.6-5.013-2.938-3.419-1.913-1.124-.447-.738-.205" clip-path="url(#p16239e104e)" style="fill:none;stroke:#000"/><path d="m350.726 300.553-.738.03-.676-.051-1.202-.184-1.384-.425-2.27-1.084-1.13-.813-1.72-1.93-.64-.4-.884-.41-2.997-1.082-.09-.05-.056-.074-.016-.135.051-.36.37-2.234M351.795 297.784l-1.069 2.77M350.027 302.158l.7-1.605M384.43 300.613l-.189-.609-.394-1.819M384.43 300.613l1.226 2.967 1.901 3.655M357.468 292.86l8.982-2.593 2.68-.55.817-.278 2.437-1.114M371.15 261.934l-1.792-1.722M168.118 237.537l-.555-1.08-.995-2.128-1.12-3.441-2.447-1.934" clip-path="url(#p16239e104e)" style="fill:none;stroke:#000"/><path d="m100.885 155.972 2.2 2.228 3.584 1.993 1.257 3.342 2.578 2.11 2.074 5.627 3.52 2.052 1.446 2.345 5.155 2.463 2.703 5.92 5.658 4.338 8.676.293 5.406 5.042 2.578 1.29 3.898 2.872 7.166 2.755 2.766 5.334 5.72 2.638-.502 4.865-5.595 4.455 1.828 11.02M168.842 238.948l-.724-1.411M168.842 238.948l-1.729-.102M198.998 264.964l.173-.34.514-.54.397-.238.484-.08.883.032 1.32.13.724-.093.644-.19.456-.264.785-.846.818-1.268.126-.483.003-.389-.125-.319-.48-.633-.455-.854-.287-1.007-.134-.388-.212-.279-.259-.157-1.8-.547-.715-.237-.417-.228-1.103-.963-.539-.33-.342-.106-.322-.004-3.179.118-.321-.023-.232-.065-.197-.125-.793-.649-.232-.083-.326-.008-.425.132-3.025.945-.833.117-.872-.007-.605-.154-.739-.469-3.82-3.715-7.346-6.166-4.728-1.392-2.62-3.851M198.998 264.964l-.711.45-.613.316-1.281.578-4.495 1.436-.51.235-.182.153-.062.125-.024.161.04.198.393 1.224.73 1.524.11.308.063.52.07.44.11.285.15.22.26.212.895.58.338.285.173.234.047.286.157.47.205.277.337.198.574.088.55.183.283.294.141.337.04.322-.063.447-.079.197-.172.14-.228.066-.786.059-.417.124-.283.19-.306.293-.165.323-.11.461v.286l.063.36.126.373.487.88.676.974.251.483.51 1.348.205.36.251.234.118.055.103.018.122-.018.16-.11.236-.403.326-.462.216-.146.322-.096.339.019.27.066.398.183.852.608.656.414.962.557.366.245.4.436.991 1.136.53.707.814 1.187.495.557.92.916.863.732 1.831 1.18 2.075 1.568 1.768 1.4.382.255.388.173.437.073.235-.015.302-.084.484-.223.338-.282.444-.587 1.234-1.864" clip-path="url(#p16239e104e)" style="fill:none;stroke:#000"/><path d="m198.998 264.964.216.388.299.297.84.894 1.328 1.56 1.533 1.942 1.658 3.07.503.77 1.068 1.267 1.156 1.802 1.108 1.143.369.587.668 1.588.314.866.629 1.201.7.887 1.516 1.429.636.644.503.74.322.96.087.674.086 2.118.157.718.26.52.668.572 1.5 1.095M212.423 408.981l-.848-.322-1.698.073-2.027 1.597-1.289.161-2.458.868-1.455.363-6.287.264-2.829.776-2.294 1.553-1.587.337-2.374-1.435-1.418-.477-.71-.042-.392.075-.332.196-.94.42-1.405.355-.841.062-.688-.11-.707-.223-1.038-.681-.342-.458-.353-.634-.366-1.337-.467-.447-.758-.428-1.273-.418-.373-.176-.315-.296-.189-.4.067-.684.503-1.184.165-.428.016-.48-.173-.682-.55-.582-1.136-.384-.204-.19-.072-.222.017-.193.163-.227 1.664-.974.654-.445.305-.246.114-.23.031-.303-.133-.37-.307-.648-.64-.996-.381-.465-.378-.32-.518-.193M212.423 408.981l2.435-1.69 2.268-2.739 1.908-2.63 2.24-1.004 1.576-.85-.374-1.548.996-2.204 4.064-2.087h4.231l1.359-.082M291.397 325.86l-1.249 1.78-.899.64-.806.188-1.47.154-2.624.205-2.923.256-.983.169-.927.286-2.782 1.069-4.73 1.246-1.352.146-5.296.25-.731.138-.747.242-3.15 1.443-1.266.763-1.045.805-.534.63-.252.55-.007.761.235 1.393.424 1.296.3 1.217.534 3.07 1.02 1.763.339.625.691 1.846.982 1.78.11.462-.031.645-.143.79-.25.953-.196.308-.51.425-.441.461-.228.359-.117.51.07.582.157.447 4.26 5.113 2.121 2.69.51.702.252.491.055.707-.118.491-.503.942-1.155 1.802-.99 1.194-.479.352-1.941 1.128-1.666 1.296-2.963 2.55-3.858 2.538-.711.535-.648.773-.763 1.27-.671.884-.468.263-.817.264-.81.073-1.532-.11-.778.052-.66.212-1.25.557-1.15 1.473-3.643 3.743-.204 2.813-.315.491-.4.403-.85.455-2.852.827-2.447.66M300.409 402.627l-.388.45-1.728 2.632-4.084 7.218-1.787 2.297-2.065 2.078-2.53 1.45-1.394.56" clip-path="url(#p16239e104e)" style="fill:none;stroke:#000"/><path d="m286.723 432.583.29-7.886v-3.403l-.58-1.983M334.9 460.172l-2.169-.205-.377.85-3.269 1.464-1.226 1.612-1.729.791-.377.704-1.289 1.464-1.288.82-1.792-.439-1.163-.205-.723.176-.817.615-1.195.792-1.3.09-2.547-1.552-4.645-3.015-1.452-2.397h-2.654l-9.042-1.43-1.949-2.746-1.037-3.286.208-1.199 2.696-7.732-8.628-4.756-1.036-5.22.622-2.745.001-.04" clip-path="url(#p16239e104e)" style="fill:none;stroke:#000"/><path d="m287.176 477.35 1.7-1.213 1.703-.481.871-.735-1.866-2.977-3.153-1.199-1.285-1.662-1.535-2.668-3.899-5.49-.165-1.392.165-5.722 3.07-1.663.456-.618-.29-2.397-2.074-2.59-1.493-2.591.456-1.856 1.493-6.11 1.12-2.087 4.273-1.316M307.916 524.098l-.498-.966-1.825-2.243v-1.585l.29-1.662-1.492-1.894.206-2.165 3.029-6.766.414-2.281 1.867-1.701 1.659-.89.58-.811-.497-1.044-1.452-1.199-2.116-4.485-2.903-1.391-2.903-2.745-1.12-.503-2.944-1.662-6.263-5.9-1.996-1.435-3.38-1.216-.408-.366-.157-.454.16-.623 1.01-.76" clip-path="url(#p16239e104e)" style="fill:none;stroke:#000"/><path d="m336.7 515.786-2.282-3.016-.663-1.507-3.899-2.397-3.857-5.877-1.908-3.518-.705-2.049v-2.513l-.622-2.32-4.916-4.977-2.218-1.324-1.02-.654-1.21-.073-1.839-1.055-.691-.117-1.792.352-.675-.044-1.588-1.45-1.414-2.213-.679-1.86-.871-1.547-2.097-1.633-1.933-.512-3.064.542-8.22 2.534-1.03-.1-.33-1.107M295.473 398.366l4.936 4.261M314.893 332.79l.943.169.519-.022.244-.154.133-.256.15-2.294" clip-path="url(#p16239e104e)" style="fill:none;stroke:#000"/><path d="m317.133 342.029-1.084-.975-2.657-2.857-.26-.484-.07-.512.087-.623 1.744-3.788" clip-path="url(#p16239e104e)" style="fill:none;stroke:#000"/><path d="m309.557 331.442.22 1.18.11.161.181.073.244.022 3.678-.535.353.044.307.213.243.19M317.133 342.029l1.94-.33M317.133 342.029l1.958 1.868M319.074 341.699l.017 2.198M320.073 312.69l-.334 7.2-.665 21.809M320.073 312.69l.026-4.267M320.073 312.69l1.076.039M321.149 312.729l-.163-4.285M322.547 318.343l-.504-1.179-.463-.873-.25-.498-.142-.47-.04-2.594M320.986 308.444l-.887-.021M383.95 264.601l-.251-1.67-.055-.513.086-.506.205-.49 1.862-2.653.07-.462-.11-.425-.306-.425-1.328-.784M384.147 265.803l.903-1.063M384.147 265.803l-.196-1.202M386.394 267.708l-1.524-.565-.4-.439-.323-.901M386.394 267.708l.967.249 1.14-.03 1.154-.205.362-.22 1.021-1.267 1.454-2.066.102-.256-.015-.235-.181-.206-.676-.475-1.257-.69-.338.045-.275.205-3.458 5.15" clip-path="url(#p16239e104e)" style="fill:none;stroke:#000"/><path d="m386.394 267.708 3.458-5.151.275-.205.338-.044 1.257.689.676.475.18.206.016.235-.102.256-1.454 2.066-1.021 1.268-.362.22-1.155.204-1.14.03-.966-.25M383.95 264.601l1.1.14M387.817 260.593l-2.767 4.147M352.716 283.276l-.361 1.48-.317 1.305M328.354 283.416l7.472-.351M328.354 283.416l-.3 2.925M322.626 284.86l1.304-.828 1.368-.41 1.838-.213 1.218.007M322.626 284.86l-2.395-3.697M311.302 299.638l3.482-1.334 3.04-1.266.826-.477.77-.704 1.115-.974M311.302 299.638l-1.32.85-.967.63-1.312.828-3.945 2.007" clip-path="url(#p16239e104e)" style="fill:none;stroke:#000"/><path d="m297.92 292.076 1.634.858.841.374.77.175 1.014.067 4.047-.176 3.01-.264 2.93-.169.559.007.18.052.118.099.086.172.051.282-.066.436-.747 1.744-1.045 3.905M309.798 313.275l.91 1.458M310.707 314.733l-.3.223M310.707 314.733l1.413-.625M310.407 314.956l-.88.654-2.28 1.53-1.186.734-2.174 1.18M291.499 350.268l.653-5.697-.251-6.828 1.84-8.724.061-.83-.11-.468-.362-.528-1.933-1.333M283.928 321.101l.542-.319.629-.26.676-.154.57-.021.361.11.669.283" clip-path="url(#p16239e104e)" style="fill:none;stroke:#000"/><path d="m280.475 321.51.196.65.244.359.26.14.282.032.507-.059.939-.311.251-.169.287-.443.487-.608M316.998 352.444l1.824.992M319.091 343.897l.03 3.634-.299 5.905M339.13 346.427l-.207-.288-.094-.286.024-.395.165-.667.063-.527-.055-.587-.142-.395-.287-.653M356.243 343.399l.96-.089.76-.153M356.243 343.399l-.527-.279-2.99-1.274M356.243 343.399l-1.84 1.477M384.532 349.934l.422-.121.214-.106.212-.264.079-.41-.066-.498-.256-.513-1.092-1.305M381.428 345.164l.95.58 1.667.973M399.98 341.882l-.541-.857-.205-.52-.26-1.282-.392-.689M398.268 344.293l.801-1.539.503-.579.409-.293M421.054 339.418l.37.652.482.948" clip-path="url(#p16239e104e)" style="fill:none;stroke:#000"/><path d="m421.054 339.418.105-.906.102-.542.275-.389 2.251-1.75 1.686-1.187.48-.323.604-.168.503-.022.448-.007.566.139.432.212.173.22-.024.271-.118.25-.377.497-6.254 5.305M532.334 422.724l-1.672.493-1.6 1.609-1.432 2.433-1.978 1.531-2.737.902-3.242.197-3.242-1.963-2.652-1.844-3.116-1.178-1.936-1.491-6.357-3.964-1.516-2.002-1.053-2.394-2.105-1.727-.8-.707.043-.824 1.852-1.138 1.39-.981-.085-1.02-.968-1.845-1.769-1.06-3.073-1.57-.95-1.126-.44-.792-.205-.835-.131-2.075-.309-.738-.275-.564-3.002-3.772-1.532-1.979-2.334-2.117-2.467-2.33-1.376-.967-.817-.556-.691-.674-.417-.629-1.94-3.181-.968-1.209-2.262-2.197-1.022-.836-.597-.44-3.71-1.896-1.815-1.158-1.846-1.436-.92-.784-.762-.784-1.179-1.633-.227-.572-.126-.586-.26-3.861-.117-.586-.252-.498-.385-.44-1.218-.783-1.179-.381-.274-.008-.323.037-.393.117-2.098 1.268-3.74 2.095-.519.197-.762.257-.692.176-1.17-.03-.842-.11-.777-.131-1.038-.3-.81-.279-.761-.242-.55-.058-.488.044-.714.242-3.568 1.967-.275.12-.279.04-.316-.029-.177-.055-.09-.071-.04-.093-.017-.158.047-.355.101-.227.543-.993.495-.52 1.8-1.297 1.02-.747.59-.564.394-.506 1.092-1.765.66-.887 1.477-1.575.77-.879.18-.564.032-.484-.078-.454-.566-2.044-.189-1.077-.259-.908-.18-.535-.268-.308-.487-.396-.88-.498-2.052-.843-2.506-1.296-1.257-.843M526.326 465.408l2.904-.118 2.105-.275 2.695 1.374 2.4 1.138 3.789.746 1.221-.432.337-.785-2.821-2.747-4.631-5.298-.042-.864v-2.825l-1.18-5.22.38-4.593.547-2.669.337-1.412 3.073-1.452 2.526.157 2.316.392 1.347-.981M532.334 422.724l1.527-.45 4-.51 2.231.667 1.095.903.632 1.492-.042 1.374-1.726 3.453-.337 2.905.42 1.412 1.516 1.688 1.895 1.452.421.982-.337 1.452" clip-path="url(#p16239e104e)" style="fill:none;stroke:#000"/><path d="m610.177 484.89-2.349-2.919-4.84-5.508-4.652-1.816-7.418-.762-3.081-3.692-3.017-1.876-3.395-6.036-7.418-4.864-5.092-5.274-6.978-1.29-3.772-3.984-5.595-.762-9.053-5.04.112-1.523M486.907 463.014l2.546-.615 3.08-2.637.567-1.114 3.174-2.168 6.984.505 2.105 2.316 1.18.785 1.515.196 2.737 1.884 1.936 1.373 3.032.825 3.157.157 2.695 1.216 1.22.118 3.49-.447" clip-path="url(#p16239e104e)" style="fill:none;stroke:#000"/><path d="m486.907 463.014 1.918 2.49 2.923 1.348.943.557 1.163.38h.597l2.42-.526.535.087.44.205 1.006.762 1.194.703 5.94 2.784 1.572-.059 4.055.44 3.898 1.348 1.383.732 1.572 1.143 1.226 1.054 1.037 1.465.723 1.7.345.527 2.2 2.461.44.293 1.164.44 1.037-.059.723-.322 1.635-4.19.534-.44 1.54-.527 2.955.03.408-.118 1.415-1.084 1.446-.762.408-.322 2.263-1.318.41-.528.377-1.171-.378-.938-1.54-.44-.911-.615-.723-.703-.724-.352-.314-.058-.754.087-.44.323-1.132 1.933-.345.352-.284.147-.314.03-1.068-.382-1.384-.733-.453-.521-1.6-1.295-.631-1.413-1.6-1.61.169-.941M626.322 455.67l-1.025.499-3.702.307-.953-1.4-2.126-3.076-1.833-1.195-2.308-.274-4.985 1.128-2.31-1.264-1.392-1.572-.256-1.708-.587-.888-1.649-1.094-4.655-2.597-1.649-1.503-1.027-1.367-.073-1.947 1.576-3.28 1.43-1.777-1.1-4.441-.586-.991-.807-.376-2.712.546-2.749.205-5.057-2.562-3.813-1.06-2.858-1.366-2.346-.274-2.345-.41-3.043-1.981-4.361.957-2.566 3.314-4.545.649-3.445 2.255-3.518.444-3.116-.273-1.063-1.948-.55-2.29-3.078-1.707-6.524-.547-6.282 1.918M532.51 340.39l.662-1.452.295-1.02-.926-.982-1.6-.942M244.173 497.583l-8.689 13.327-1.863 2.001-2.02 1.408-2.808 1.09-2.382.397-2.595-.278-3.363-.863-19.69-6.153-2.092-.49-1.76-.112-1.504.154-1.62.622-1.448.878-1.383 1.388-.72 1.565-.762 1.908-.633 1.945-1.328 5.771-1.634 8.57-3.073 12.247-.534 3.34-.778 2.41-1.32 2.64M419.336 114.687l.825-4.295.408-1.32 1.132-1.993 1.98-2.858 2.389-3.796 1.147-2.272.865-1.091M336.448 283.035l-.622.03M336.448 283.035l-.174-3.379M391.909 350.912l-.627 1.058M479.505 285.966l.157-1.89-.007-.938-.103-.454-.275-.381-.29-.205-.684-.25-.511-.117-.668-.33-1.312-.842-.37-.315-.251-.403-.22-.733-.197-.454-.33-.476-.274-.22-.464-.117-.644-.066-3.992-.044-1.289.058-.896.103-1.446.227-.613.044-.636-.014-.48-.132-.495-.294-.73-.607-.527-.455-.385-.234-.825-.36-.88-.344-.582-.168-.37-.059-.518.088-.456.132-1.186.645-.472.146-.534.03-.307-.044-.408-.169-.33-.234-.252-.308-.235-.527-.401-.645-.511-.718-.754-.924-.33-.542-1.258-2.828-.33-1.121-.039-.469.055-.55.142-.446.66-1.121.377-.85.157-.506.11-.784.11-.689.11-.417.51-1.04.37-.535.212-.631.393-1.897.425-1.759.03-.476-.038-.337-.102-.25-.63-1.208-.243-.293-.22-.184-3.213-2.014-1.863-1.04-.637-.235-.95-.161-.794-.081-1.517-.007-.88-.059-.754-.154-.41-.198-.306-.212-.541-.616-.397-.446M498.168 198.29l-.51.512-.496.602-.416.717-.707 1.73-.983 1.868-1.1 1.927-.243.506-.37.938-.927 2.535-.896 1.693-.33.381-.338.234-.432.176-.432.08-.55.023-1.54-.088-.244.022-.251.08-.19.125-1.029.85-1.076 1.062-.251.308-.244.403-.48.96-.746 1.583-.299.425-.424.468-.51.491-1.965 1.268-1.21.645-1.533.557-1.06.44-.983.535-2.523 1.568-1.453.974-.307.117h-.228l-.267-.037-.518-.278-2.97-1.363-.527-.165-.237-.039-.08.005-.084.022-.114.068-.64.897-.813.898-.283.417-.224.71-.173 1.54-.087 1.75-.141.697-.275.843-.22.476-.487 1.07-.071.44.055.446.189.433.369.461.392.286.975.564.291.286.267.381.157.322.095.462-.016.703-.22 1.136-.346.952-.448.88-.857 1.436-.667.82-.542.682-.472.71-.33.602-1.045 1.963-2.044 2.748-.762 1.23-.534.653-.385.322-.637.272-.7.22-.588.05-.48-.058-.534-.22-.959-.703-.856-.535-.66-.293-1.399-.462-.66-.286-.307-.212-.251-.234-.243-.352-.41-1.312-.463-1.245-.22-.154-.243-.103-.362-.022-.503.125-.636.197-1.061.074-.322.051-.417.124-.558.374-.825.872-.503.51-.444.293-.801.407M297.167 316.03l1.505-.496M298.091 314.281l.581 1.253M331.183 291.175l.165-2.55M376.468 307.794l-.324.402M376.468 307.794l.457.292M380.904 311.604l-1.605-1.467-2.374-2.051M383.853 340.12l-2.472 1.718M380.904 311.604l-1.557 1.225M143.205 445.338l.762-1.857.095-.568-.018-.879.116-.34.385-.253.593-.073.97.084 1.502.337.911.604.456.81.467 1.644.222.422.212.157.32.062.264-.07.228-.206.613-1.376.794-1.164 1.65-2.242.581-.634.716-.527 1.398-1.015 2.578-1.868.911-.981.204-.703-.004-.664-.2-1.153.079-.462.357-.624.44-.43 4.196-2.653.704-.637.774-.79.632-.518.936-.523 2.185-1.124M461.033 467.268l.068.932-.754 2.637 5.595 5.626 6.79.82 2.325 1.876-2.451 7.032-4.087 1.523-3.08 2.99 1.886 4.746-2.263 1.816.628 3.927 2.075 2.11 5.218.995 2.2-.468 1.572.527v2.05M466.16 532.144l.41-.07 5.03-3.399.377-5.215 6.727-7.442-1.32-7.207-.63-2.403M573.19 613.58l.188-.318-1.571-4.307-1.666-1.582-1.54-1.67-.346-.674v-1.876l-.157-1.435-.975-3.281-.126-.733.094-1.113-.22-.85-.69-1.553-.095-1.7-.251-.585-.346-.381-.315-.117-1.823-.293-.754-.381-.88-.733-.346-.586-.534-2.461-.346-.557-1.54-1.787-1.666-.937-2.452-.733-1.446-.703-3.3-.85-2.326-1.113-2.672-1.7-.346-.556-1.068-2.49-.723-.967-.818-.792-1.037-.615-2.986-.938-.44-.234-.377-.352-.472-1.142-.22-1.026-.283-.556-2.105-2.462-1.478-1.348-.597-.263-1.95-.235-1.32-.293-1.508-.879-.44-.351-.629-.85-.88-1.875-.629-1.026-.88-.703-1.477-.79-.848-.704-.44-.674-.158-.586-.031-1.347-.189-.791-.848-.997-1.446-2.608-.283-.673-.472-5.07.032-2.665-.157-.909-.503-.937-.755-.703-.691-.82-.346-.85-.346-1.349-.44-.82-.503-.556-.943-.792-.691-1.113-.157-.674-.032-2.55-.157-.585-.817-1.611-.252-.85-.062-.615-.22-.557-1.54-1.787-.41-.85v-.938l.503-1.64-.094-.47-.314-.321-.409-.176-3.332-.615-1.917-.967-1.257-1.875-2.232-1.231-.785-.088-.598.058-1.163.293-1.666.645-.849.03-.502-.235-1.1-1.172-.598-.322-.691-.205-1.572-.03-.88.176-.44.41-.283.674-.126 1.788-.346 1.289-.471.615-.283.117-.22-.058-.408-.352-3.898-4.512-1.886-1.494-1.1-1.436-.723-1.787-.346-.469-1.98-2.08M466.16 532.144l-.312 2.126.597 2.168.943 1.437 1.792 2.05.157.264.628.557 1.887 1.289 2.64 1.377.943.586 1.571 1.201 1.698 1.524 1.854 1.23 1.069.557 1.886.732 2.514.792 3.3.673 1.29.352 3.268 1.172 1.415.645.88.644.786.88 1.477 2.519 2.075 3.047.66 1.29 1.634 4.453.503.85 1.038 1.172.157.351-.095.616-.785 1.67-.346 1.406-.283.586-.755 1.084-.503 1.143-.157 1.172.032.879-.189 3.193.095.703.754 1.847.66 1.113 1.226 1.318 2.514 2.315 2.2 2.256 1.447 1.729.502 1.113.472 2.139.126 1.054v.88l-.158.674-.816 1.875-.44.703-2.358 1.7-1.351.556-.472.088-.818-.059-.408-.205-.377-.352-.032-2.607-.817-1.904-2.043 2.197-1.446.586-1.383.058-.691.352-.566.938-.597 1.552-.44 1.993.03 1.524-.093.527-.315.557-1.352 1.582-.47.263-.472.528.44 2.93 1.352.058 3.897 1.788 1.76.586 1.415.175h1.885l.88.205.63.41.754.674 1.131 1.26 2.672 2.638 1.603.703 1.163 1.113.692.38.691.06 2.484-.44 1.382-.03 4.338.352 3.489.147 1.226.293 1.351 1.26 3.647 4.629.597.41 2.011.908.786.205.66-.058.22-.176.315-.059.597-.644.189-.586-.126-1.553.126-.234.502-.381 1.258-.498 2.797-.557 1.006-.03.912.177 1.603.674 1.917.029 3.929-.967 1.163-.293 1.855-.762 1.854-.85 2.578-2.842 1.068-.673 1.76-.82.912-.557 1.54-1.29 1.29-1.406 2.45-1.582 4.998-.62M244.173 497.583l-1.401-2.367-1.132-5.099.628-2.227-1.068-1.64-1.76-1.172-1.51.41.818 2.988-.565 1.114-3.647 1.348-3.772-.82-2.577-2.755-7.858-4.454M461.033 467.268l5.978 1.284 2.137-.059 1.195-.293 1.257-.82.88-.293 2.012.058 1.509.645.691.03.565-.177.598-.468 1.32-2.022.817-.616 1.038-.351 2.263.088.566-.118 2.2-1.171.848.029M168.118 237.537l-1.005 1.31M123.863 270.704l-.095-2.33.157-.85.818-1.245 1.964-1.935 1.273-1.084 1.289-2.828.817-.85 1.635-.674 2.483-.938 2.498-1.407 1.776-.981 1.18-1.349 1.21-2.33 3.001-6.887.833-.894 1.273-.865.817-.293 1.117.059 2.451 1.01 3.065-.043 1.147-.293 2.059-.63 1.839-.484 2.153-1.304 1.634-1.114.975-.175 1.556-.103 1.194-.499.597-.307.534-.235M124.506 273.518l-.643-2.814M115.847 285.402h1.21l.55-.308.503-.908.645-1.627 2.279-3.239 2.357-3.12 1.037-.938.33-.718-.157-.836-.095-.19M123.061 273.02l.739.03.706.468M123.863 270.704l-.802 2.316M110.55 273.518l.582.278 2.012.235 2.106-.015 3.174.572 1.4-.073 1.194-.309 1.226-.454.817-.732" clip-path="url(#p16239e104e)" style="fill:none;stroke:#000"/><path d="m115.847 285.402-1.477-.44-.911-.894-.834-1.773-.456-1.743.236-1.488v-.593l-1.241-1.788-.189-1.788-.425-1.377M102.441 265.048l2.42 1.45.425.411.11.498-.048.513-.282.44.204.674.173.689 1.084.278 1.572.513.99-.015.55.865.66 1.583.251.57M117.261 301.023l-.093-1.524-.566-.968-.912-.879-.786-.938-.189-.703.378-.938 1.603-1.817.503-2.169.062-1.142-1.54-1.173-.723-.82-.094-.938.943-1.612M311.06 316.714l-.653-1.758M335.826 283.065l-.14-3.379M336.274 279.656l-.588.03M335.686 279.686l-.174-4.221.544-.036.218 4.227" clip-path="url(#p16239e104e)" style="fill:none;stroke:#000"/></g><g id="PatchCollection_1"><path d="m372.208 316.371 1.23.714 3.463-2.09-2.39-1.286zM377.009 307.636l.478-.74.416-.235 1.575.263-2.316.807zM380.146 316.138l1.034-1.124.968.774.062.201.013.179-.111.203-.53.77zM371.766 333.146l-1.722.949.908 1.15 1.583-.88zM382.775 313.941l.113 1.761.657-.92zM377.568 309.34l1.17 1.315.663 1.385.713-.58-1.243-1.192-1.069-1.145z" clip-path="url(#p16239e104e)" style="fill:green;fill-opacity:.8"/></g><g id="PatchCollection_2"><path d="m357.096 343.7-2.327 1.993 3.207 2.813 2.2-2.285-.691-.528zM380.368 334.03l2.377-1.653 3.306 4.08-2.363 1.699zM360.302 285.938l1.069 2.872 5.532-1.583-1.132-3.047zM377.17 287.776l.957 1.453.416-.238.124.189.671-.385-1.081-1.641zM387.183 341.981l.237.333-.318.223.417.514.37-.26.268.33 2.103-1.482-.928-1.144-.096.054z" clip-path="url(#p16239e104e)" style="fill:#90ee90;fill-opacity:.8"/></g><g id="PatchCollection_3"><path d="m311.483 316.596-.198-.597.678-.196.198.598zM633.373 573.689l-.198-.05.072-.248.198.05zM367.449 327.942l.67-.368.292.462-.58.32-.14-.222-.09.05z" clip-path="url(#p16239e104e)" style="fill:#a9a9a9;fill-opacity:.8"/><path d="m367.248 328.053.22.357-.113.061.11.178.14-.076.117.188.641-.343.07.114.217-.115.549.868-1.454.798-1.08-1.71zM380.788 312.116l-.605.55 1.406 1.344.605-.55z" clip-path="url(#p16239e104e)" style="fill:#a9a9a9;fill-opacity:.8"/><path d="m380.183 312.666-.336.296 1.338 1.275.328-.3zM337.066 279.298l-.019.627-.122-.003-.027.89.345.01-.01.29 1.095.029.01-.335-.253-.007.007-.245.257.007.012-.392-.28-.008.009-.287.267.007.017-.549zM373.791 288.672l.286.432 1.767-1.018.126.19.444-.257-.692-1.044-.498.287.28.422zM374.34 289.517l.892 1.366 1.452-.824.033.05 1.2-.678-.995-1.532-.977.552.303.466.518-.293.094.144-.14.08.188.287.141-.08.114.174-.663.376-.06-.09-1.022.58-.206-.316 1.095-.622-.512-.783-.178.101.15.232zM378.603 336.334l.411.522.244-.122.817.5.234-.294-.623-.43.303-.192.889 1.051-.257.169.437.445.641-.437-1.756-2.142zM385.94 341.357l.507.629 1.534-1.075-.508-.629zM385.369 340.792l.27.318 1.462-1.08.116.137.214-.159-.118-.138.664-.491-.365-.43-1.18.871-.119-.139-.5.37.086.1-.198.146.13.153z" clip-path="url(#p16239e104e)" style="fill:#a9a9a9;fill-opacity:.8"/><path d="m386.92 341.654.263.327 2.053-1.432-.264-.329z" clip-path="url(#p16239e104e)" style="fill:#a9a9a9;fill-opacity:.8"/></g><g id="PathCollection_1"><defs><path id="m758763e60f" d="M0 3a3 3 0 1 0 0-6 3 3 0 0 0 0 6z" style="stroke:#a9a9a9;stroke-opacity:.8"/></defs><g clip-path="url(#p16239e104e)"><use xlink:href="#m758763e60f" x="373.319" y="313.086" style="fill:#a9a9a9;fill-opacity:.8;stroke:#a9a9a9;stroke-opacity:.8"/><use xlink:href="#m758763e60f" x="373.961" y="264.485" style="fill:#a9a9a9;fill-opacity:.8;stroke:#a9a9a9;stroke-opacity:.8"/><use xlink:href="#m758763e60f" x="377.777" y="346.519" style="fill:#a9a9a9;fill-opacity:.8;stroke:#a9a9a9;stroke-opacity:.8"/></g></g></g></g><defs><clipPath id="p16239e104e"><path d="M90.161 86.4h557.678v554.4H90.161z"/></clipPath></defs></svg>