<svg xmlns="http://www.w3.org/2000/svg" width="960" height="960" viewBox="0 0 720 720"><defs><style>*{stroke-linejoin:round;stroke-linecap:butt}</style></defs><g id="figure_1"><path id="patch_1" d="M0 720h720V0H0z" style="fill:#fff"/><g id="axes_1"><path id="patch_2" d="M98.156 640.8h541.688V86.4H98.156z" style="fill:#fff"/><g id="LineCollection_1"><path d="m334.744 407.98 4.1-.351M334.744 407.98l-2.556-.077M334.744 407.98l-.52-7.075M335.4 413.001l-.545-4.115-.111-.905M401.84 372.266l-.795 3.145M401.84 372.266l3.367-1.254M394.162 377.868l2.728-2.244 4.95-3.358M390.933 415.774l.13-.541M390.933 415.774l2.962.736M390.933 415.774l-3.679-.81M402.446 418.956l1.354-3.827M402.446 418.956l-2.417-.92M443.893 436.03l-10.775-4.55-14.229-4.86-9.254-4.28-7.189-3.384M409.193 394.01l-.984 3.82M404.955 410.452l2.493-9.668M404.955 410.452l-1.155 4.677M404.955 410.452l-2.882-.718M392.94 407.458l-1.876 7.775M392.94 407.458l2.351-9.297M392.94 407.458l-3.64-.822M392.94 407.458l3.03.755M358.595 399.492l6.542-1.61M348.399 397.607l3.055.564 6.216 1.148.925.173M364.38 401.124l-4.44-1.231-1.345-.4M342.427 396.58l1.767.309M342.427 396.58l2.477-6.786M342.427 396.58l-2.64 2.055M338.32 400.72l.124 1.515M339.296 399.028l-.376.445-.6 1.247" clip-path="url(#p0df3f48ed4)" style="fill:none;stroke:#000"/><path d="m334.225 400.905 2.927-.14.337-.012.831-.033M324.598 400.725l4.03.073M324.598 400.725l-3.533-.592M320.807 401.682l3.612.703.18-1.66M347.51 406.576l-.894.102M347.51 406.576l4.625.669M352.224 406.418l-.381-.096-2.275-.185-2.057.44M335.4 413.001l.008 2.801.101 4.57-.215.687-.643.488-4.026 1.489-.983.788-.493 1.102 1.754 6.8.701 3.85-.345 2.19-.674 2.693-.285 2.76M334.225 400.905l-2.014.001" clip-path="url(#p0df3f48ed4)" style="fill:none;stroke:#000"/><path d="m331.451 412.677 1.839.146 2.11.178M332.188 407.903l-.061.614-.676 4.16M328.46 415.19l2.57-.996.421-1.517M332.21 400.906l-1.814-.071M332.188 407.903l.019-1.031.004-5.966M328.6 408.302l1.578-.531 2.01.132M328.6 408.302l.028-7.504M310.305 410.344l.91.304 2.222.51 1.396.225 1.076-.076 3.474-.778 7.713-1.764 1.505-.463M328.628 400.798l1.768.037M339.492 414.522l-.647-6.893M338.845 407.629l3.104-.375M338.845 407.629l-.18-2.516M360.894 415.995l-3.698-1.607M366.68 421.054l-4.548-3.976-1.238-1.083M361.504 412.676l-.647 2.376.037.943M352.135 407.245l.09-.827M352.135 407.245l10.234 2.25M357.196 414.388l-2.133-.927-1.94-1.448-.663-1.392-.397-1.523.072-1.853M362.369 409.495l.167-.693M362.369 409.495l-.512 1.88M362.369 409.495l3.616.795M364.38 401.124l3.484.738M364.38 401.124l.757-3.242M364.38 401.124l-1.844 7.678M365.137 397.882l3.99-1.825M405.207 371.012l-1.292 4.908M405.207 371.012l1.291-.254M365.985 410.29l.159-.703M365.985 410.29l3.306.726M367.864 401.862l3.585.875M367.864 401.862l1.263-5.805M367.864 401.862l-1.72 7.725M373.598 393.918l-2.516 1.32-1.955.82M369.291 411.016l.187-.72M369.291 411.016l3.68.81M369.291 411.016l-2.611 10.038M371.45 402.737l3.588.675M371.45 402.737l2.148-8.819M371.45 402.737l-1.972 7.559M378.054 390.896l-2.77 2.139-1.686.883M372.97 411.825l.163-.663M372.97 411.825l3.61.793M375.038 403.412l3.621.819M375.038 403.412l2.097-9.074M375.038 403.412l-1.905 7.75M378.054 390.896l-.92 3.442M382.646 387.34l-.204.168-4.388 3.388M376.58 412.618l.148-.6M376.58 412.618l3.57.786M378.66 404.23l3.57.807M378.66 404.23l2.151-9.118M378.66 404.23l-1.932 7.787M382.646 387.34l-1.835 7.772M382.646 387.34l2.173-1.787M380.15 413.404l.166-.666M380.15 413.404l2.189.48M382.23 405.037l3.405.784M382.23 405.037l2.156-9.173M382.23 405.037l-1.914 7.701M384.819 385.553l6.655-5.474M385.525 391.01l1.137-4.838-1.843-.619M383.778 414.2l.154-.635M383.778 414.2l3.476.765M383.778 414.2l-1.44-.316M385.635 405.82l3.664.816M385.635 405.82l2.226-9.224M385.635 405.82l-1.703 7.745M388.927 391.822l-1.066 4.774M388.927 391.822l-1.874-.447M388.927 391.822l.597.135M415.824 399.24l-7.615-1.41M408.209 397.83l-.761 2.954M408.209 397.83l-2.652-.647M396.12 394.882l-.829 3.279M396.12 394.882l.703-2.777M396.12 394.882l-3.745-1.034M396.12 394.882l3.034.74M392.375 393.848l-.845 3.521M389.524 391.957l2.208.499.643 1.392M387.254 414.965l.158-.641M387.254 414.965l-1.346 6.626M389.3 406.636l2.23-9.267M389.3 406.636l-1.888 7.688M385.525 391.01l-1.14 4.854M385.525 391.01l1.528.365M395.291 398.16l-3.76-.79M395.291 398.16l6.504 1.295M391.53 397.37l-3.669-.774M387.861 396.596l-3.475-.732M384.386 395.864l-3.575-.752M380.811 395.112l-3.676-.774M393.895 416.51l.149-.595M393.895 416.51l3.385.842M395.97 408.213l.712-2.798M395.97 408.213l-1.926 7.702M395.97 408.213l3.06.763M397.28 417.352l.13-.623M397.28 417.352l2.749.683M399.031 408.976l2.764-9.52M399.031 408.976l-1.62 7.753M399.031 408.976l3.042.758M401.795 399.455l3.06.7M407.448 400.784l-2.594-.629M409.035 407.144l1.26-4.007-.024-1.752-2.823-.601M400.029 418.035l2.044-8.3M400.029 418.035l-1.338-.932-1.28-.374M402.073 409.734l2.781-9.579M404.854 400.155l.703-2.972M405.557 397.183l-3.53-.86M405.557 397.183l2.234-9M400.275 378.456l-1.88 7.43M400.275 378.456l.431-1.704M400.275 378.456l2.82.585M402.028 396.323l-2.874-.7M402.028 396.323l2.133-8.966M405.996 379.643l-2.901-.602M405.996 379.643l.471-3.189M405.996 379.643l-1.835 7.714M407.79 388.182l.21-.842-.558-7.397-1.446-.3M574.313 169.565l-1.801 3.422-1.483 2.224-.636.582-2.4 1.335-1.837.958-1.412.582-7.344 2.533-2.719 2.121-2.294 3.457-.706 2.259-2.26 5.544-1.66 3.456-1.341 2.02-.318.24-2.048 3.387-5.72 8.18-.989.924-4.201 3.319-4.66 4.107-3.99 3.696-5.05 4.038-2.718 1.746-3.39 1.334-.706.377-2.083 1.472-1.73 1.677-1.554 1.847-1.659 2.772-1.553 2.054-4.873 4.244-1.342 2.258-.212.308-1.129 3.388-.388 2.19-.248 2.225-1.27 4.21-3.214 13.244-.494 1.13-.953 1.368-3.32 3.354-5.507 5.99-1.377 2.326-1.024 1.335-.953.924-5.614 4.757-5.755 6.16-1.66 2.704-2.4 4.586-.636 1.54-.6 2.121-.93 2.847-1.222 2.465-1.373 2.124-2.556 3.66-9.663 10.457-2.447 3.126-1.637 3.372-.657 3.28.36 6.458.048 1.691-.19 1.39-3.6 9.085-2.142 4.84-.992 1.422-2.59 1.53-3.773.497-7.55-1.454-5.23.72-5.547 1.09-.696.136-2.197.432M406.467 376.454l.375-2.536-.344-3.16M399.154 395.622l.715-2.873M403.095 379.04l.82-3.12M401.383 386.66l.1-.4 1.612-7.22M406.467 376.454l-2.552-.534M403.915 375.92l-2.87-.509M401.045 375.411l-.339 1.341M407.79 388.182l-3.63-.825M404.16 387.357l-2.777-.697M401.383 386.66l-1.514 6.089M401.383 386.66l-2.987-.774M398.396 385.886l-.49 1.937M397.906 387.823l-1.083 4.282M397.906 387.823l-4.397-5.295M391.474 380.079l2.035 2.45M391.474 380.079l2.688-2.211M393.509 382.528l7.197-5.776M396.823 392.105l3.046.644M397.41 416.73l-3.366-.815M394.044 415.915l-2.98-.682M391.064 415.233l-3.652-.91M387.412 414.324l-3.48-.76M383.932 413.565l-1.422-.325M380.316 412.738l-3.588-.72M380.316 412.738l2.194.502M376.728 412.017l-3.595-.855M373.133 411.162l-3.655-.866M369.478 410.296l-3.334-.71M366.144 409.587l-3.608-.785M362.536 408.802l-10.312-2.384M346.616 406.678l-4.667.576M346.616 406.678l.42-2.44M348.399 397.607l-4.205-.718M348.399 397.607l-1.363 6.63M341.949 407.254l-.224-2.447M341.427 401.951l.298 2.856M341.427 401.951l-2.983.284M341.427 401.951l2.197-.211M339.296 399.028l1.231 1.567.9 1.356M339.296 399.028l.49-.393M344.018 403.187l.116.14.575.47 2.327.44M343.624 401.74l.57-4.851M344.018 403.187l-.163-.378-.23-1.069M338.444 402.235l.22 2.878M341.725 404.807l-3.06.306M344.904 389.794l.297-.436 1.152-1.16.703-2.926M341.85 387.008l-1.682 1.513-3.613 3.666-.048 1.476 3.28 4.972M341.85 387.008l2.146-1.725 2.3-.7 1.073-.729" clip-path="url(#p0df3f48ed4)" style="fill:none;stroke:#000"/><path d="m341.85 387.008 1.632 1.408 1.422 1.378M361.857 411.375l-.353 1.3M361.857 411.375l3.382.798M382.51 413.24l-.171.644M382.339 413.884l-.44 7.126M381.9 421.01l4.008.58M381.9 421.01l-1.172-.1M385.908 421.59l7.183 1.135M385.908 421.59l-1.36 5.691M409.035 407.144l-2.213 7.045-3.022.94M409.035 407.144l11.16.629M115.529 109.247l1.765.719 1.35 2.359 2.401 8.9 9.604 12.185 8.19 18.483 9.464 10.406 5.084 5.065 1.27 7.53-.281 9.447 2.683 2.19 6.072 2.328 6.78 8.214 5.366 1.644 6.356-.275 6.355 1.096 7.202-1.917 4.379.685 6.92 6.982.283 8.352 3.248 7.94 3.672 3.286 8.615 2.738 5.084 3.286 3.39 6.297.847 6.16-5.367 25.739 1.13 6.16 1.412 12.321 2.825 12.732-.424 5.613-7.061 15.059-3.814 3.97-4.66 5.202-7.847 10.509.115 2.94 17.618 18.995 10.954 5.308M310.305 410.344l-4.082-1.365-1.628-.322-2.78-.689-2.027-1.702-.93-1.842-1.256-1.788-1.15-.689-4.006-.597-4.424-1.303-6.214-2.977-5.344-3.38-4.49-1.909-8.429-4.69-4.943-1.78-10.45-10.13-5.411-4.241-5.887-2.878-.345-.167M115.529 109.247l-5.403-3.423-1.553-2.19.248-1.438 1.164-.89 3.601-3.047.318-1.197M608.529 495.706l-.794-.61M629.427 498.515h-17.246l-3.652-2.81M443.893 436.03l50.08 22.378 3.405.894 2.718-.411 11.036-3.905 8.474 4.38 11.51 1.643 12.499.274 4.59-1.916 9.745 1.095 25.847 13.609 5.011 7.129 12.429 8.897 6.498 4.999M599.134 509.343l2.943-4.617 1.574-2.99 1.352-3.603 1.121-1.06 1.61-1.977M366.68 421.054l.772.675 4.572 7.837 1.784 4.419.912 1.806 1.395 1.712 2.527 2.361 3.942 3.107 3.348 3.468 2.41 1.548 5.352 3.15.981.653 1.906 1.874 4.652 3.965 8.715 7.986.897.95M455.291 500.84l-11.322-5.267-2.382-1.114-3.335-2.39-6.614-5.404-1.737-1.82-1.233-1.14-5.69-4.265-2.269-1.386-1.26-.706-1.206-1.032-4.96-5.948-1.43-2.01-1.008-1.793M443.893 436.03l-7.81 6.811 1.449 1.506-26.687 22.218M455.291 500.84l1.933.899 1.232.19 1.178-.218 1.036-.461 1.682-1.685.7-.651.842-.109 2.914 1.792 8.35 5.107 2.466 2.227 3.364 3.721 5.128 7.279.476 1.032.196 1.14.505 3.885.42.896.645.652M498.81 531.737l-5.044-4.223-1.092-.3-3.335-.325-.981-.353M450.807 516.997l4.166 19.574-.176 2.02 11.404-1.644 2.966.685.459-3.833 1.024-.751 6.709-2.19 3.424-1.506 4.908-1.882 2.667-.934M508.887 615.717l.456-1.263.379-4.117-.512-4.354-1.846-3.427-2.78-9.097-1.713-2.932-1.757-4.117-.445-2.522.178-2.888 1.223-8.386-.156-1.897-.582-1.81-1.271-4.688-.088-2.395-.938-12.935-.309-4.319.42-4.182.45-5.08.027-1.873-.812-1.698M599.134 509.343l-1.709.49-3.727-.463-4.12.218-3.166.244-5.185-.271-1.317-.054-2.97-.842-2.074-.517-2.41-.923-2.242-.272-10.2.326-3.503-.081-5.97 1.06-4.203.65-7.398.354-2.186.815-3.895.543-4.203.95-1.29.652-3.572 2.254-4.358 1.861-2.649 4.93-2.48 4.576-.812 1.06-5.409 2.892-3.264 1.154-6.011.788" clip-path="url(#p0df3f48ed4)" style="fill:none;stroke:#000"/><path d="m508.887 615.717 4.802-3.079 3.955-2.874.777-1.437.811-1.06 2.473-.822 2.365-1.3 15.374-10.738 5.073-3.666 3.923-3.938 5.184-3.938 2.55-1.195 3.336-.897 2.578-1.33 2.802-2.58 3.475-6.057 1.188-1.296 2.558-1.81 3.159-3.062.978-1.272 1.824-5.453 2.78-9.442 1.29-5.023 2.536-8.515.756-2.867 1.757-1.79 5.917-11.425 6.026-9.508M485.373 630.138l.389-.22 5.543-2.703 7.696-4.688 1.66-1.06 1.942-2.806 2.507-.685 2.013-1.129 1.764-1.13M375.99 307.382l4.415-1.199 1.094.48 2.824 1.3 2.118 1.472 1.554 2.772 7.556 12.8-.706 2.503-2.613 1.883-2.118 4.586-.565 5.886-2.26 4.518-5.437 4.928-.565 1.848 4.237 3.49 4.943 9.652 3.695 13.567M375.99 307.382l-4.942 2.874-1.942.376-4.202-1.882-1.942-1.3-5.26-4.21-5.438-5.202-6.496-7.73-6.073-5.407 1.765-9.378-.776-7.187 1.341-2.465-1.341-4.86-3.884-4.244-4.026-10.199.318-1.267M394.35 223.672l-.6-.822-.812-.513-1.835-.24-.848.035-.847.24-4.131 2.497-1.236.445-1.73.274-6.356.48-1.517-.035-3.672-.41-6.92-1.61-1.59.07-3.389 1.163-3.566 2.293-5.861 3.491-2.119 1.095-.53.205-1.553.308-4.484.65-1.165.377-.953.684-.918 1.335-3.284 5.647-1.024 2.19v1.335l-.318.445M455.291 500.84l.142 3.323-1.06 2.157-1.695 1.78-.494.958-.07.924.67 2.018-.635 2.19-1.342 2.807M410.627 558.373l.46-.514.529-2.498 1.342-2.601 1.023-3.182 4.979-9.549 1.236-3.182 2.436-4.792 1.765-2.908 1.413-1.814.67-.445.812-.308 1.519-.206 9.603-.17 1.483-.24 1.553-.616 1.766-1.027 5.755-4.175 1.836-3.149M579.432 161.83l1.341-.958 2.578-1.574.318-.308M578.55 157.697l2.117.822 2.295.137.707.334" clip-path="url(#p0df3f48ed4)" style="fill:none;stroke:#000"/><path d="m375.99 279.147 2.366 3.526 1.271 3.833 1.801 3.832.176.856-.317 3.286-.424 1.197-.706.959-2.365 2.463-5.614 4.415-.636.822 2.613 1.54 1.836 1.506M410.627 558.373l-1.483 2.943-3.99 6.879.107 2.6-.318 2.67 1.236 4.518.635.89 1.518 1.232 2.225 1.369.53.444.459.617.317 1.334.106 1.163.6 1.712 2.472 4.688 1.589 3.867.847 1.438 1.8 1.403 2.684.856.635 1.232.071 2.464.283.821 3.672 4.38 1.624.445 6.779.411 3.495.719 4.237 1.163 7.309 3.457 2.754 1.061 6.25 3.114 3.636 1.3 4.66 2.465 9.64 4.004 8.367 4.106M394.633 559.365l3.107-.41 2.19-1.096.494-.102 10.203.616M574.313 169.565l1.623-2.156 3.496-5.579M578.55 157.697l.423 1.609.282 2.122.177.402M578.55 157.697l-.495.514-1.448 3.148-2.966 3.765-.353.856-.07.821 1.095 2.764M357.196 414.388l2.746-.91 1.562-.802M321.065 400.133l-.258 1.55M320.807 401.682l-3.963-.783.338-1.514 3.883.748M344.018 403.187l-1.493-.02M310.305 410.344l-.64-2.51M330.396 400.835l-.03-1.726M389.524 391.957l1.893-1.397-2.783-3.61-.6-.041-.98 4.466" clip-path="url(#p0df3f48ed4)" style="fill:none;stroke:#000"/></g><g id="PatchCollection_1"><path d="m354.914 399.075-1.154.153-1.248 1.424-.505 1.624.505 1.378.917.98.82.444.68-.26.712.352.774.138.442-.889.49-1.255.616-1.256-.71-1.134-.949-1.439zM348.29 392.098l-.505.873.015.352 3.808 2.16.554.06.363-.657.016-.506-3.777-2.297zM286.645 456.068l.566-3.491-.177-1.437-.83-1.01-.46-.992-1.217-1.677-1.783-2.84-.635-.377-1.695.428-1.89-.29-1.94-.189-1.255-.992-1.818-2.088-.847-2.07-.918-1.54-1.306-.582-3.143.77-1.854 1.283-1.818 1.42-1.624.753-1.96.975-2.912.326-.3-.48-.37-1.197-.93-.478.275 1.812.266 2.14 2.153 1.454 1.924-.633 5.367-1.044 2.013.085.812 1.233 1.094 1.744.636.582 2.472 2.31 1.059 2.036 1.27 1.455-1.64.53-.248.36 1.765.12 1.483-.72.406-1.505 1.006-1.06 1.977-1.01h1.677l1.307 1.01 1.412 2.685.67 1.335 1.007.616.795.103z" clip-path="url(#p0df3f48ed4)" style="fill:#00f;fill-opacity:.8"/></g><path id="PatchCollection_2" d="m339.307 399.499 1.827 2.293-2.472.197-.062-1.292.424-.839z" clip-path="url(#p0df3f48ed4)" style="fill:green;fill-opacity:.8"/><g id="PatchCollection_3"><path d="m396.485 386.975-4.473-5.586-4.581 3.446 4.473 5.587zM425.118 452.076l-2.345-2.183 2.823-2.85 2.346 2.182zM385.401 359.309l-.822-1.858 2.612-1.086.822 1.858zM385.097 380.097l-1.109-1.306 1.931-1.54 1.11 1.307zM367.917 377.715l-1.844-2.91 4.73-2.816 1.844 2.911zM404.501 556.755l-5.155-.76.53-3.38 5.156.761z" clip-path="url(#p0df3f48ed4)" style="fill:#90ee90;fill-opacity:.8"/></g><path id="PatchCollection_4" d="m402.907 420.41 2.825-10.883 5.578 1.574.212-3.833 10.38 1.164.918-4.791-11.58-.753-2.26-13.826-1.765-19.165-7.344 2.396-17.019 13.894-1.623-2.053-1.978 1.437 1.483 2.122-6.426 4.654-9.321 4.244-7.274 1.37-12.589-2.913 1.63-5.235 1.028-5.527-3.558-1.953-6.688 6.233 4.459 3.781-1.544 3.034-4.63 2.742-5.102.457-.085-2.077-4.673.415.129 2.244h-2.53l.086.956-7.288-1.33-.214 2.576 11.49 2.245-.944 4.03-7.288.997.686 3.324 2.315.125 3.001 3.781 8.66-.748 7.288-.166 1.5-5.485 6.259.167.815 3.531 8.53-.124.858-1.911 4.158 1.08-.728 2.119 2.615.582.514-2.41 13.676 3.49-.257 5.568 14.447 2.452 1.629-6.192z" clip-path="url(#p0df3f48ed4)" style="fill:#d3d3d3;fill-opacity:.8"/></g></g><defs><clipPath id="p0df3f48ed4"><path d="M98.156 86.4h541.688v554.4H98.156z"/></clipPath></defs></svg>