<svg xmlns="http://www.w3.org/2000/svg" xmlns:xlink="http://www.w3.org/1999/xlink" width="960" height="960" viewBox="0 0 720 720"><defs><style>*{stroke-linejoin:round;stroke-linecap:butt}</style></defs><g id="figure_1"><path id="patch_1" d="M0 720h720V0H0z" style="fill:#fff"/><g id="axes_1"><path id="patch_2" d="M117.246 640.8h503.508V86.4H117.246z" style="fill:#fff"/><g id="LineCollection_1"><path d="m315.991 367.067 1.732-.192 3.915-.435.34-.252M318.447 355.586l1.66 4.435 1.27 3.225.763 2.489-.161.453M325.98 365.69l-.7.098-3.301.4M308.14 372.353l2.037-2.235 1.643-1.598.98-.655.748-.327" clip-path="url(#pa1a22f8b12)" style="fill:none;stroke:#000"/><path d="m304.503 370.964 2.031-2.044 1.308-.587 3.55-.67 2.156-.125M315.991 367.067l-1.904.287-.539.184M289.148 610.942l-.324-4.072-.567-3.943-1.78-4.173-7.852-18.146-1.052-2.26-1.473-1.943-2.053-1.589M253.306 531.821l1.506 7.513 1.295 6.419.26 4.13.12 7.6.397 2.028.664 1.568.922 1.454.94.95 8.499 6.447 6.138 4.886M314.548 298.743l.671-1.03.64-1.655.178-1.21.157-4.647-.108-2.983-.248-1.25-.663-1.511-4.177-5.428-5.792-7.662-27.88-36.884-1.101-2.39-.303-1.011-.118-.948.053-1.154.141-.919.893-2.932 12.026-39.458M334.006 106.454l-2.449 4.28-9.195 11.866-2.678 3.44-2.449 3.103-4.003 3.537-9.616 6.509-1.651 1.93-1.328 2.304-7.621 27.472-4.1 14.776" clip-path="url(#pa1a22f8b12)" style="fill:none;stroke:#000"/><path d="m282.019 188.919-.114-.403-.282-1.056.339-.955.452-.428 1.357-.78.764-.578.933-.327.961-.1.452.25.792.78 1.244.35M320.986 338.707l-.7.163-.777.276-3.444 2.155-.657.411M316.086 344.415l-.199-.976-.232-1.15-.247-.577M310.457 336.433l3.573 3.592.939.95.439.737M301.75 383.466l1.88-4.429.363-.836M308.14 372.353l-2.156 2.494-1.117 1.64-.874 1.714M313.078 376.891l-3.035.438-3.638.525-2.412.347M364.983 367.073l-5.18.64M364.983 367.073l.09 2.375M364.983 367.073l-.599-3.116M364.983 367.073l1.352-.46M525.997 572.635l-1.802-1.028-1.351-.958-1.059-.877-.657-.675-.712-.913-.456-.693-.475-.913-.474-1.113-1.077-2.4-.128-.439-.073-.62v-.658l.073-.583.2-.767.365-1.205.128-.566.201-1.131-.237-1.032-.566-3.888.073-7.798.128-.913.273-.821.42-1.059.074-.657-.092-.292-.182-.274-1.406-.748-2.355-.858-.63-.393-.42-.347-.62-.73-.2-.401-.165-.493-.09-.62.054-.42.146-.567.255-.42.402-.364.402-.274.894-.383.93-.457.54-.21.291-.273.22-.511.054-.31.018-.859-.11-1.752-.036-1.24-.073-1.288v-.53l.037-.42.073-.364.256-.676 1.24-2.71.146-.584.02-.366-.02-.383-.109-.401-.146-.274-.255-.292-2.355-1.935-.383-.383-.822-.702" clip-path="url(#pa1a22f8b12)" style="fill:none;stroke:#000"/><path d="m488.648 456.757.646.897 1.823 2.623 1.465 1.935.695 1.108-.007 1.282-.219 2.605-1.149 2.267-2.113 2.569-3.1 3.382-3.132 2.843-1.92 1.345-.355.454-.073.597.429.907.818.575 1.182.245 2.727-.395 2.598-1.109 3.675-.23 4.388-.49 3.618.454 2.954.13 4.484.698 2.12-.373 5.938-1.784 2.926-.15 1.171.819 2.76 4.833.836 2.305-.669 2.305-3.93 5.8-2.844 5.204-1.087 6.543-1.17 2.9-1.088 3.717.25 1.784 1.079 1.072M314.548 298.743l-.955 1.083M320.2 300.89l-.66-.244-3.177-1.176-1.815-.727M359.455 299.787l.732 3.455M356.104 300.017l.579-.01 2.141-.17.631-.05M362.685 298.843l-.744.218-2 .603-.486.123M357.001 303.831l-.613-3.27-.284-.544" clip-path="url(#pa1a22f8b12)" style="fill:none;stroke:#000"/><path d="m342.408 300.449 1.714-.14 6.437-.53 4.177.13.8.064.568.044M356.358 295.96l-.407 3.317.153.74M342.408 300.449l-2.968.212M343.602 302.767l-1.122.055-.072-2.373M320.752 304.612l-.409-2.997-.142-.724M325.2 301.656l-.632-.065-1.602-.163-1.814-.353-.951-.184M321.123 295.229l-.948 5 .026.662" clip-path="url(#pa1a22f8b12)" style="fill:none;stroke:#000"/><path d="m330.452 289.398-6.33 3.927.427 3.32.65 5.011M327.046 309.618l-.608-3.64-.904-2.266-.334-2.056M328.57 301.474l-2.142.251-1.228-.069M308.29 303.476l-2.708 1.816M313.593 299.826l-.607.5-4.695 3.15M309.796 308.26l-.738-3.491-.767-1.293M303.474 306.638l-5.073 3.08M303.474 306.638l.583 2.679M305.582 305.292l-1.221.769-.887.577M315.17 307.27l-.31-1.678M315.17 307.27l-5.374.99M315.918 311.318l-.099-.534-.65-3.513M309.796 308.26l.532 3.912M309.796 308.26l-5.739 1.057M304.057 309.317l.668 3.712M328.26 309.432l-1.214.186M331.543 309.178l-1.567.24-1.029.065-.687-.05M332.185 302.68l-1.513.663-.688.785-.583 1.403-.583 3.081-.558.82M327.046 309.618l-5.349.82M327.046 309.618l1.33 7.234M298.4 309.718l.817 4.152M299.962 321.47l-2.89-2.381-.805-.947-.422-.789-.487-1.476-.128-1.548.218-.972.289-.807.529-.984 1.198-1.239.937-.609M321.697 310.438l-.705-4.343M321.697 310.438l1.185 7.293M321.697 310.438l-5.779.88M315.918 311.318l-5.59.854M316.276 313.248l-.07-.374-.288-1.556M310.328 312.172l1.212 7.114M310.328 312.172l-2.866.439M307.462 312.61l1.112 7.065M307.462 312.61l-2.737.419M304.725 313.029l1.243 7.064M304.725 313.029l-5.508.841M299.217 313.87l1.356 7.16M334.275 315.838l-1.537.289M328.375 316.852l.954 5.373M328.375 316.852l4.363-.725M322.882 317.73l.487-.077 4.396-.703.61-.098M322.882 317.73l.9 5.349M317.238 318.447l.538-.068.44-.056 4.28-.544.386-.048M316.276 313.248l.219 1.184.146.79.373 2.015.159.86.065.35M317.648 320.666l-.336-1.815-.074-.404" clip-path="url(#pa1a22f8b12)" style="fill:none;stroke:#000"/><path d="m311.54 319.286 5.252-.773.446-.066M311.54 319.286l.382 2.23M311.54 319.286l-2.966.39M308.574 319.675l1.117 5.571M308.574 319.675l-2.606.418M305.968 320.093l1.055 5.563M305.968 320.093l-5.395.937M300.573 321.03l-.61.44M303.885 326.14l-2.947-3.692-.976-.978M329.329 322.225l.47 2.25M329.329 322.225l-5.548.854M332.738 316.127l.819 4.828-.086.457-.304.223-3.838.59M323.781 323.079l-5.53.85M329.799 324.476l-1.685.532-1.4.238-1.8-.094-.793-.059-.34-2.014M317.648 320.666l.205 1.11.3 1.621.099.532M319.245 329.295l-.095-.511-.788-4.258-.11-.597M312.488 324.816l.724-.111 4.513-.695.527-.081M345.723 328.403l-.55.054-.935.08-.753.071-1.66-.19-.882-.256-1.15-.389-1.262-.442-.66-.065-.837-.025-1.668.143-2.877.126-.978-.185-.564-.69-.589-.852-.417-.873-.142-.434" clip-path="url(#pa1a22f8b12)" style="fill:none;stroke:#000"/><path d="m311.922 321.516.485 2.83.081.47M313.519 330.276l-.97-5.101-.06-.36M309.691 325.246l.505-.077 1.25-.193.662-.102.38-.058M307.023 325.656l.44-.067 1.847-.284.381-.059M307.023 325.656l1.033 5.562M303.885 326.14l.77-.12 2.368-.364M303.885 326.14l2.789 5.45M320.202 334.466l-.39-2.101-.486-2.63-.081-.44M313.519 330.276l.71-.123 1.817-.313 2.73-.47.469-.075M313.519 330.276l1.029 5.415M308.056 331.218l.441-.077 4.594-.791.428-.074M308.056 331.218l-1.382.371M308.868 334.836l-.727-.828-.727-.994-.74-1.425M320.202 334.466l.322 1.743" clip-path="url(#pa1a22f8b12)" style="fill:none;stroke:#000"/><path d="m314.548 335.691 5.08-1.1.574-.125M322.456 333.848l-.761.108-.645.188-.848.322M315.177 337.998l-.443-.628-.186-1.679M310.457 336.433l.52-.094 3.57-.648M310.457 336.433l-1.8.236M308.868 334.836l.572.574 1.017 1.023M320.524 336.209l.097.527.365 1.971M321.881 343.535l-.086-.457-.421-2.275-.3-1.627-.088-.469M327.642 339.28l.026-.634-.19-.421-.283-.31-.498-.072-.392.03-.52.091-4.799.743M285.51 339.562l-.584.897-.06 1.026.134.656 3.025.94 1.374.716 1.066 1.692 1.36 3.183.276.798-.1.65-.599.496-1.016.086-1.02.299-1.249.895-1.224.912-3.468 1.187-2.865 1.166-1.465.986-.802 1.195.017 2.16-.13.877-.453.908-1.206 1.85-.915 1.115-1.465.85-1.457.251-2.509-.259-1.902-.943-.433-.788-1.1-3.01-.823-.94-.516-.289-1.402-.63-2.056-.68-3.303-.515-1.606-.334-1.744-.763-.316-.598.162-1.127 2.173-5.581.077-.864-.203-1.929.802-1.454 1.894-1.81.486-1.145-.385-1.069-1.373-1.111-.978-.35-.992-.072-.97.389-1.02.644-.92.385-3.104.695-3.687 1.393-1.437.021-1.056-.684-1.97-2.678-1.236-.737-2.31-.157M126.93 321.448l4.094 1.928 6.763 2.12 5.82 1.183 2.107.937 5.765 2.514 1.718.394 2.051-.148 2.606-1.232 11.142-5.866 2.937-.937 2.329-.049 2.66.296 2.55 1.084 1.165.345 2.716-.049 6.128-1.05 15.237 1.333 2.47.111 12.553 2.51 5.128.058 8.124-.449 6.112-.869 3.26-.362 2.746.18 3.597 1.102 2.162 1.28 5.777 1.218 7.804.715 7.896-.667 2.636.756 2.337 1.282 8.19 8.446" clip-path="url(#pa1a22f8b12)" style="fill:none;stroke:#000"/><path d="m303.345 337.383-4.304.638-4.673.693-1.011.317-.736.338-.873.735-.775.315-.879.078-4.585-.935M322.805 348.533l-.063-.34-.699-3.775-.106-.573-.056-.31M337.045 341.233l-4.782.727-2.637.4-1.084.165-6.165.935-.496.075M316.086 344.415l.508-.077 4.622-.702.255-.038.41-.063M316.086 344.415l.255 1.469M330.413 347.481l-7.608 1.052M323.961 354.784l-.078-.424-.429-2.316-.565-3.055-.084-.456M322.805 348.533l-.436.06-4.701.65-.724.101M316.944 349.344l-1.57.217M316.944 349.344l-.603-3.46M317.668 353.187l-.063-.318-.454-2.417-.093-.497-.114-.61M325.98 365.69l-.099-.531-.117-.633-1.313-7.097-.402-2.173-.088-.472M330.154 358.256l-.49-2.307-.368-1.939-4.385.637-.455.066-.495.071M318.447 355.586l.659-.096 3.919-.57.453-.065.483-.07M318.447 355.586l-.779-2.399M330.66 360.733l-.506-2.477M330.66 360.733l.821 4.153M330.66 360.733l-2.95.395M337.083 363.993l-.891-3.98-.352-.083-.494-.015-4.686.818M352.43 361.805l-.584-4.117M352.43 361.805l-8.306 1.137M353.036 365.72l-.395-2.206-.212-1.709M364.384 363.957l-.736-3.721-11.219 1.569M345.715 366.793l-.134-.322-1.218-2.95-.239-.579" clip-path="url(#pa1a22f8b12)" style="fill:none;stroke:#000"/><path d="m337.083 363.993.477-.071 3.05-.455 3.002-.448.512-.077M364.384 363.957l-5.35.784M337.083 363.993l.84 4.045M337.083 363.993l-5.602.893M331.481 364.886l.72 4.052M325.98 365.69l.48-.07.376-.054 4.645-.68M359.034 364.741l.769 2.973M359.034 364.741l-5.998.98M326.736 369.778l-.071-.386-.527-2.841-.058-.318-.1-.542M353.036 365.72l-5.633.792M291.706 366.512l3.27 1.146M288.923 384.22l-2.381-.714-.707-.582-.006-.347.065-.662 5.812-15.403M262.275 367.628l1.174.051 1.156.276 1.141.539 2.128 1.541 3.44 2.331.887.376.662.126.578.037.55-.063.662-.163.714-.342.752-.583 5.02-5.598.905-.64 1.26-.714.826-.205 1.446-.023.724.176 5.406 1.762M347.403 366.512l-1.688.28M347.403 366.512l2.46 1.087M337.924 368.038l.529-.085 7.262-1.16M315.991 367.067l1.798 4.03M359.803 367.714l-3.165.324M294.976 367.658l-1.295 3.964M298.797 369.118l-.788-.3-3.033-1.16M337.924 368.038l.648 5.083M332.202 368.938l.603-.095 4.467-.702.652-.103M356.638 368.038l.38 2.389M349.863 367.6l2.202.891 1.352.087 3.221-.54M332.202 368.938l1.052 4.939M326.736 369.778l.568-.088 4.524-.695.374-.057" clip-path="url(#pa1a22f8b12)" style="fill:none;stroke:#000"/><path d="m317.789 371.096.465-.069 8.016-1.18.466-.069M327.663 374.789l-.767-4.145-.09-.488-.07-.378M298.797 369.118l-1.425 3.57M304.503 370.964l-1.87-.392-3.836-1.454M365.072 369.448l-8.054.979M370.714 367.534l-1.61.986-.762.295-3.27.633M357.018 370.427l-5.934.905M317.789 371.096l1.969 4.833M312.03 371.85l.629-.082 1.556-.204 2.795-.366.779-.102M297.598 384.11l4.27-9.81.895-1.282 1.74-2.054M312.03 371.85l1.048 5.041M308.14 372.353l1.3-.168 2.242-.29.348-.045M338.572 373.121l.376 2.961M338.572 373.121l12.512-1.789M338.572 373.121l-5.318.756M333.254 373.877l-5.591.912M327.663 374.789l-7.905 1.14M328.565 379.662l-.107-.577-.32-1.734-.475-2.562M319.758 375.929l1.816 4.863M319.758 375.929l-6.68.962M313.078 376.891l1.065 5.125M328.565 379.662l-6.991 1.13M328.565 379.662l1.504 8.128M321.574 380.792l.825 3.901M321.574 380.792l-7.43 1.224M314.143 382.016l.664 3.757M301.75 383.466l.64.018 11.753-1.468M301.565 384.034l.186-.568M300.676 399.608l-.245-5.098-.016-4.678.049-1.512.242-1.266.859-3.02" clip-path="url(#pa1a22f8b12)" style="fill:none;stroke:#000"/><path d="m297.598 384.11 1.846-.23 1.226-.022.895.176M292.143 385.24l1.295-.216 4.16-.914M288.923 384.22l1.245-3.37M288.923 384.22l3.22 1.02M284.643 396.035l3.958-10.943.19-.514.132-.359M325.524 384.24l.68 3.785M325.524 384.24l-3.125.453M325.524 384.24l.93-.108M322.4 384.693l.663 3.68M322.4 384.693l-3.87.518M292.143 385.24l1.408-3.34M292.143 385.24l-4.566 11.665M318.53 385.211l.696 4.758M318.53 385.211l-3.723.562M314.807 385.773l1.068 4.793M335.427 387.22l-.148-.865M335.427 387.22l.668 3.634M335.427 387.22l-5.358.57M330.069 387.79l.71 3.834M326.204 388.025l.752 4.052M326.204 388.025l-3.14.348M323.063 388.373l.222 1.229M323.285 389.602l.508 2.814M323.285 389.602l-4.059.367M319.226 389.969l-3.35.597M319.226 389.969l1.15 6.938M315.875 390.566l.11 1.07M336.095 390.854l.874 3.829M336.095 390.854l-5.317.77M330.778 391.624l.705 3.805M326.956 392.077l.713 3.787M326.956 392.077l-3.163.34M323.793 392.416l.705 3.914M331.483 395.429l-3.814.435M331.483 395.429l5.486-.746M332.159 399.083l-.075-.404-.601-3.25M327.669 395.864l.72 3.742M327.669 395.864l-3.17.466M284.643 396.035l2.934.87M278.884 411.417l4.306-11.365 1.453-4.017M324.498 396.33l.663 3.667M324.498 396.33l-4.122.577M281.932 412.093l1.6-3.8.148-.8 2.1-6.16 1.797-4.428M320.376 396.907l.737 3.591M320.376 396.907l-3.513.561M316.863 397.468l-.878-5.833M316.863 397.468l.61 3.552M316.863 397.468l-4.97.77M311.893 398.239l.728 3.527M311.893 398.239l-5.682.719M337.454 398.202l-.485-3.519M337.454 398.202l1.108 5.166M337.454 398.202l-5.295.88M306.21 398.958l.608 3.682M306.21 398.958l-5.534.65M315.985 391.635l-1.74.338-1.976.368-1.853.323-5.132.846.825 4.534.102.914M332.159 399.083l-3.77.523M333.118 404.269l-.1-.54-.27-1.458-.22-1.192-.282-1.526-.087-.47M301.184 403.438l-.254-1.915-.254-1.915M328.389 399.606l1.233 5.235M328.389 399.606l-3.228.391M325.16 399.997l.937 5.19M325.16 399.997l-4.047.501M321.113 400.498l1.046 4.935M321.113 400.498l-3.64.522M317.473 401.02l1.086 4.896M317.473 401.02l-4.852.746M350.089 401.664l1.074 4.924M350.089 401.664l-5.994.885M356.476 401.535l-2.088-.159-1.78-.071-2.52.359M356.476 401.535l.843 4.145M363.502 404.811l-.543-2.52-3.043-.332-3.44-.424M312.62 401.766l.999 4.888M312.62 401.766l-5.802.874M344.095 402.55l-.388-2.14M344.095 402.55l1.03 4.94M344.095 402.55l-5.533.818M306.818 402.64l.98 4.87M306.818 402.64l-5.634.798M338.562 403.368l1.072 4.998M338.562 403.368l-5.444.9M302.113 408.436l-.488-2.314-.44-2.684M333.118 404.269l-3.496.572M334.042 409.259l-.659-3.558-.192-1.037-.073-.395M329.622 404.841l.871 4.984M329.622 404.841l-3.525.346M363.502 404.811l.715 4.787M363.502 404.811l-6.183.87M370.696 403.307l-2.007.513-1.269.388-3.918.603M326.097 405.187l.928 5.146M326.097 405.187l-3.938.246M322.16 405.433l1.368 5.375M322.16 405.433l-3.601.483M357.32 405.68l-6.157.908M357.32 405.68l.89 4.846M318.559 405.916l1.38 5.485M318.559 405.916l-4.94.738M351.163 406.588l-6.037.902M351.163 406.588l.947 4.872M313.619 406.654l1.346 5.443M313.619 406.654l-5.82.856M345.126 407.49l-5.492.876M345.126 407.49l1.024 4.961M307.799 407.51l1.211 5.264M307.799 407.51l-5.686.926M339.634 408.366l-5.592.893M339.634 408.366l.814 4.93M302.113 408.436l1.117 5.136M334.042 409.259l-3.549.566M334.042 409.259l.909 4.912M365.916 409.387l-1.699.211M364.217 409.598l-6.006.928M365.736 414.474l-.346-.436-.608-1.717-.565-2.723M330.493 409.825l1.018 4.82M330.493 409.825l-3.468.508M297.7 409.899l.859 4.366M327.025 410.333l.861 4.773M327.025 410.333l-3.497.475M358.21 410.526l-6.1.934M358.21 410.526l.32 2.62M323.528 410.808l-3.59.593M323.528 410.808l1.106 4.98M319.939 411.401l1.11 4.72M319.939 411.401l-4.974.696M352.11 411.46l-5.96.991M352.11 411.46l.184 2.346M293.464 410.439l.811 4.416M278.884 411.417l-.994-.352M278.884 411.417l1.988.868M314.965 412.097l-5.955.677M314.965 412.097l1.095 4.752M281.932 412.093l-.37.896M280.872 412.285l.53-.026.53-.166M346.15 412.451l-5.702.844M346.15 412.451l.422 2.195M280.872 412.285l.352.348.338.356" clip-path="url(#pa1a22f8b12)" style="fill:none;stroke:#000"/><path d="m284.269 416.426-2.392.298-.56-.232-.247-.286-.116-.458.608-2.76M309.01 412.774l-5.78.798M309.01 412.774l1.054 4.765M340.448 413.295l-5.497.876M340.448 413.295l.333 1.409M303.23 413.572l.974 4.71M303.23 413.572l-4.671.693M334.95 414.17l-3.439.476M365.736 414.474l-.9.386-1.258.347-.91.743-2.436 4.117-.284.433-3.127 2.889-.772.614-.65.289-11.086 2.058-.569.145-.61.216-.446.397-.04 1.408.202 1.048-.487 3.574-.284.614-.61.29-.365-.037-5.807-8.955-.278-1.615.303-1.514.84-2.758-.093-.643-1.118-4.35M298.559 414.265l.902 4.722M298.559 414.265l-4.284.59M331.511 414.646l-3.625.46M327.886 415.106l-3.252.682M294.275 414.855l-4.366.678M324.634 415.788l-3.585.332M289.91 415.533l.996 4.713M289.91 415.533l-4.404.68M290.637 410.618l-1.613.158.885 4.757M321.05 416.12l-4.99.729M316.06 416.849l-5.996.69M310.064 417.539l-5.86.743M304.204 418.282l-4.743.705M300.787 438.298l-.21-1.425-.032-1.512.097-1.094.227-1.194.55-1.656.712-1.597.842-1.656.599-1.554.631-1.872.308-1.64.13-2.433-.437-2.383M299.461 418.987l-4.542.669M290.906 420.246l-4.848.637M290.906 420.246l4.013-.59M356.358 295.96l.499-3.735.109-.263.267-.208.474-.335 1.881-.983.741-.85.36-.932.183-.713-.555-2.159-.359-1.409M335.885 286.784l.248 1.956M341.619 288.113l-1.129.135M341.619 288.113l-.147-.975M341.619 288.113l.609 4.035M336.133 288.74l-5.681.658M336.133 288.74l4.357-.492M336.133 288.74l.498 3.92M330.452 289.398l.467 3.805M343.474 292.034l-1.246.114M336.631 292.66l-5.712.543M336.631 292.66l5.597-.512M336.631 292.66l.488 3.842M330.92 293.203l.225 1.844M361.584 294.563l-5.226 1.398M361.584 294.563l1.1 4.28M363.518 288.816l-.235.429-.63 1.266-1.025 1.642-.186.482-.012.45.154 1.478M366.715 293.35l-4.036.884-1.095.33M331.145 295.047l-3.587.391M331.145 295.047l.23 1.871M341.702 296.172l-4.583.33M337.119 296.502l-5.744.416M337.119 296.502l.546 4.3M331.375 296.918l.51 4.154M362.685 298.843l.231 1.194M371.832 297.44l-3.627-.065-2.3.41-2.646.87-.574.188M336.62 300.858l.42-.023.625-.034M339.44 300.66l-1.147.083-.628.058M328.57 301.474l.463-.056 2.173-.264.678-.082M334.038 300.986l-1.596.063-.558.023M336.62 300.858l-2.7 1.11M334.038 300.986l.98-.04 1.603-.088M344.885 302.418l.522 3.12M332.185 302.68l1.735-.713M333.03 306.52l-.132-.39-.264-.713-.449-2.737M363.423 302.648l-3.236.594M363.423 302.648l-.507-2.611M363.423 302.648l.469 2.413M366.605 304.613l-.256-2.51-2.926.545M360.187 303.242l-3.186.59M360.187 303.242l1 4.722M357.001 303.831l.884 4.709M357.001 303.831l-4.1.758M352.902 304.589l-3.777.44M349.125 305.029l-.152-2.586 1.653-.143 1.463.107.303.282.51 1.9" clip-path="url(#pa1a22f8b12)" style="fill:none;stroke:#000"/><path d="m357.885 308.54-4.267.4-.716-4.351M349.125 305.029l-3.718.51M314.86 305.592l5.892-.98M313.593 299.826l.204.328.124.367.938 5.071M331.543 309.178l3.059-.699 6.877-1.927 3.928-1.013M364.348 307.41l-.456-2.349M364.348 307.41l-3.16.554M366.605 304.613l.104 1.67.008.286-.113.313-.275.233-1.98.295M361.187 307.964l-3.302.576M541.123 578.402l8.442-1.021 11.482.376 7.898.172 7.083 1.19 8.599-1.293 7.089-3.323 5.454-2.746 8.802-4.035 5.099-2.235M605.618 550.315l.697 1.367.42.503 1.247 1.555.647 1.194.146.648.146.619.145 3.324.13.604.114.62.129.59 1.052 2.215.26.576.161.604.159.753M519.543 585.291l6.057-4.622 4.47-1.405 3.89-.685 7.163-.177M525.997 572.635l2.03 1.016 2.027.858 6.297 2.058 4.503 1.429.269.406M514.427 591.15l2.08-3.597 3.036-2.262" clip-path="url(#pa1a22f8b12)" style="fill:none;stroke:#000"/><path d="m510.964 580.003.485-.547.616-.302.712-.014.712.028.696.26.615.402.55.433.406.517.259.605.194.647.372.547 2.962 2.712M508.827 595.674l.777-.057 1.862-.85 1.15-1.015 1.81-2.603M530.439 594.164l-.616-.058-.631-.23-5.893-2.49-1.7-.734-.696-.072-.696.072-.663.202-.664.244-.713.187-1.278.087-1.846-.072-.616-.15M425.407 630.138l9.73-3.022 5.05-.661 2.51-.835 1.914-1.215 3.696-2.761 3.714-2.974 4.662-3.137 6.46-2.936 4.03-2.273 3.093-1.396 4.387-1.583 3.248-1.4 2.87-1.794 1.814-1.454 3.642-3.641 2.396-2.115 2.672-1.655 1.392-.576 1.344-.144 4.225.432 3.885.245 6.686.431M339.361 97.062l-4.203 7.283M344.48 100.27l-.479-.634-.47-.51-2.394-1.082-1.776-.982" clip-path="url(#pa1a22f8b12)" style="fill:none;stroke:#000"/><path d="m341.85 105.08 2.234-3.918.396-.893" clip-path="url(#pa1a22f8b12)" style="fill:none;stroke:#000"/><path d="m341.85 105.08.926.014 1.11.057.667.162.89.32.535.152.506.018.619-.32.413-.613.081-.623-.408-.806-.38-.797-.688-.993-.527-.567-.612-.47-.502-.345M335.158 104.345l-.568 1.088M334.59 105.433l-.584 1.021M334.59 105.433l.567.355M339.505 108.563l.936-1.05M342.45 110.071l-.442-.28-1.227-.602-1.276-.626M335.157 105.788l.887.557.468.69 1.646 1.005.89.338.457.185M303.345 337.383l-1.242-5.98M303.345 337.383l5.312-.714M380.33 298.368l1.166.138 2.096.417 4.918 1.878 1.388.404 2.857.266 3.852-.173 2.477-.187 2.558.13 1.797.28 3.586 1.044M414.375 303.738l-1.304.008-3.448-.446-2.598-.735" clip-path="url(#pa1a22f8b12)" style="fill:none;stroke:#000"/><path d="m552.358 403.694-2.785-18.77-.323-2.217-.712-2.88-.842-1.87-.907-.778-7.026-3.83-14.731-7.946-1.36-.748-.583-.576-1.975-2.62-.777-1.065-3.238-3.57-.486-.864-.453-2.332-.356-1.727-.744-1.238-.713-.548-1.845-.834-1.166-.576-.68-.806-1.327-2.217-1.295-1.353-3.562-3.858-1.49-1.066-1.456-.288-10.782.49-4.014-.115-2.364-.375-1.91-.806-2.752-1.497-2.331-.835-2.753-.806-4.727-1.728-1.295-.95-.68-.979-.162-1.267.097-1.813.648-3.715.162-2.533-.907-3.916-1.035-3.139-1.134-4.98-.194-2.074-.388-1.584-1.004-1.842-1.425-1.728-2.105-1.008-3.27-.46-2.363.115h-2.558l-2.072.547-3.788 2.966-3.335 2.563-2.687 1.093-4.241 1.411-4.226.72-3.027.432-2.428.288-2.04.446-1.473.518-13.744 5.485-1.198.087-1.522-.49-.906-.806-.486-1.094-.486-5.183-.097-.806.259-.95 1.068-2.044.81-1.382.275-1.296.048-.835.04-.677M276.326 612.238l1.538.892 2.72.575 1.7-.086 1.683-.547 1.538-.777 1.7-.791.68-.216.68-.087.583-.259M302.642 487.067l-7.958 4.054-25.221 12.283-4.517 2.41-2.202 1.7-2.137 2.238-1.584 2.639-1.168 3.038-4.233 13.802-.316 2.59" clip-path="url(#pa1a22f8b12)" style="fill:none;stroke:#000"/><path d="m199.577 518.35 2.12.418 2.056.216 1.457-.087 3.643-.532 5.1-.806 3.82-.748 1.618-.374.874.014.842.173 5.715 2.864 5.844 3.555 2.671 1.655 2.946 2.403 3.32 2.605 1.213 1.223.728.69 6.703.059 3.06.143M302.642 487.067l3.916-1.927 5.44-2.792 4.606-2.986 4.362-3.225 2.453-2.158.76-.943.373-.684.219-.756.065-.438.057-.663-.114-.733-.146-.835-1.052-2.476-2.671-5.325-.842-.936-1.052-.892-1.959-1.41-3.756-2.98-7.527-5.758-.907-.734-1.36-1.468-.728-1.065-.55-1.21-.794-2.791-.648-3.584M303.308 439.167l-.758-.27-1.763-.6M332.738 316.127l-1.195-6.949M337.045 341.233l10.527-1.597M337.045 341.233l.555 2.832M337.045 341.233l-.523-2.663M336.522 338.57l10.549-1.713M336.522 338.57l-.188-.964M337.6 344.065l10.782-1.694M337.6 344.065l.425 2.456M340.012 352.484l-.377-.489M335.196 354.089l-1.74.201M335.196 354.089l.559 2.375M333.294 352.318l.664-.093.736.172.502 1.692M335.755 356.464l-5.601 1.792M335.755 356.464l1.983-.533M351.084 371.332l-1.22-3.733M284.269 416.426l1.722-2.483M284.269 416.426l1.237-.214M297.372 372.687l-3.691-1.065M297.372 372.687l-1.133 3.088M293.681 371.622l-1.162 2.928M296.239 375.775l-3.72-1.225M294.911 378.979l.664-1.556.664-1.648M292.52 374.55l-1.128 3.157M294.911 378.979l-3.52-1.272M294.911 378.979l-1.36 2.921M291.392 377.707l-1.224 3.143M293.551 381.9l-3.383-1.05M286.058 420.883l-2.786.343M286.058 420.883l.583 4.247M286.058 420.883l-.552-4.67M370.714 367.534l1.141-.187.688.043 1.514.216.71.122" clip-path="url(#pa1a22f8b12)" style="fill:none;stroke:#000"/><path d="m366.335 366.613 2.485-.857 1.311-.252 1.125.044.713.237 1.698.838 1.1 1.105M488.648 456.757l-.486-1.252-.457-3.204-1.275-1.423-1.716-1.059-1.878-.748-2.08-.475-1.473-.381-1.029-.6-.695-.48-.437-.467-.478-.641-.923-1.583-1.063-2.405-.256-1.496-.17-2.857-.373-1.087-.703-1.065-1.126-.914-1.966-1.252-1.401-.857-1.117-.964-.25-.317-.9-1.374-1.319-1.62-.372-.302-1.457-.814-3.027-1.093-3.975-2.066-7.341-3.814-1.91-.871-.615-.1-2.89-.26-.534-.115-.486-.346-.356-.446-.219-.525.016-1.116.575-1.475 1.146-2.598.214-1.116-.081-1.123-.745-1.381-1.02-.879-1.463-.631-6.485-3.356-.89-.763-.794-.964-.453-1.137-.081-.98-.162-2.17-.92-1.413-1.889-1.49-.42-1.216.712-1.836.461-2.396-.113-1.181-.841-1.102-1.684-1.928-.624-1.41v-2.657l-.283-2.13-1.59-1.989-8.03-4.834-3.177-.222-3.213 1.157-2.842 1H401.9l-1.682.656-4.538 3.786-.966.568-3.287.871-3.911 1.554-.963.32-1.088-.082-.96-.684-1.673-2.751-2.688-2.553-.834-.986-3.168-4.939-1.375-2.18M366.335 366.613l.251.115.826.518.745.267 1.149.129 1.408-.108M322.456 333.848l1.036-.079.874.008.72.042.583.116.527.122.444.274 1.073 2.076M322.456 333.848l.117.484M322.573 334.332l-1.534.25-.515 1.627" clip-path="url(#pa1a22f8b12)" style="fill:none;stroke:#000"/><path d="m322.573 334.332.36 1.489-2.409.388M345.723 328.403l1.959-.172h1.606l.951-.08 1.138-.298.429-.407.49-.623.121-.453-.052-.84-.015-.404.05-.16.19-.094.272-.125.567-.004.813.058 2.088.374" clip-path="url(#pa1a22f8b12)" style="fill:none;stroke:#000"/><path d="m357.903 351.085-.188-.114-.324-.207-.284-.18-.793-.469-.898-.367-1.133-.338-1.967-.144-1.554-.28-.468-.422-.188-.33-.145-.544-2.417-12.107-.255-.415-.437-.755-1.129-6.01M380.33 298.368l-1.587-.115-6.911-.813M371.515 294.143l.162 1.987.155 1.31M363.518 288.816l.195-.698.364-3.498.243-3.653.384-4.18.022-.722.17-1.937.31-.698.206-.522.51-.418.838-.511M363.518 288.816l2.85-.18 1.4-.129M414.375 303.738l1.173-.197M419.337 305.617l-2.542-1.08-1.182-.172-1.238-.627M482.972 250.667l-.59.443-.922.51-1.44.764-2 .684-2.736.612-1.477.335-2.396 1.166-1.105.31-1.477-.03-3.792-.896-.72-.007-.89.417-.446.54-.162 1.426.292 2.858-.009 2.7-.315 2.655-.284 1.93-.915 2.022-.898.8-3.392 2.498-3.464 3.455-.955 1.613-1.186 2.555-1.064.86-2.384.972-2.57 1.803-4.241 5.946-1.132 2.14-1.08 1.074-3.65 2.289-10.392 3.923-1.266.627-1.243.759-7.123 3.121" clip-path="url(#pa1a22f8b12)" style="fill:none;stroke:#000"/><path d="m433.76 302.522-5.633 2.102-5.488 2.246-.437.014-.47-.273-1.424-1.18-1.652-.692-3.108-1.198M366.605 304.613l-2.713.448M383.248 271.754l-.358 2.993-.405 3.253-.793 5.788-.68 7.198-.421 2.491-.292 2.765.031 2.126M414.395 234.35l-1.906 1.57-1.619 1.296-1.603 1.195-1.15.777-1.084.317-.989.028-1.24-.228-1.174-.132-1.046.36-.876.741-.62.78-.299.873.064.76 1.026 2.09.363 1.216-.128.93-.277.997-1.037.987-1.748 1.382-1.44 1.231-1.085 1.267-1.198 2.196-.632.964-.534.324-.615-.072-.726-.48-.727-.474-1.26-.4-1.666-.17-1.645.019-.876.342-1.09.912-.363.978-.767 3.164-.486 3.455-.275 4.709-.42 3.5" clip-path="url(#pa1a22f8b12)" style="fill:none;stroke:#000"/><path d="m373.57 269.13.19.398.367.536.556.399.64.322 1.304.19 2.755.247 2.243.267 1.623.265" clip-path="url(#pa1a22f8b12)" style="fill:none;stroke:#000"/><path d="m382.779 233.74.705 1.843.18.88-.116 2.406-.32.874-.663.57-1.111.76-.406.55-.662.932-.726.57-1.11.494-1.261.608-.662.437-.385.798-.128.988.278 1.31.811 1.425.45 1.064.084.608-.448 1.596-.064 1.425.085 1.064.47 1.899.342 1.216-.085.988-.354 1.035-2.226 2.915-.923 1.649-.534 1.525-.214 1.577-.158.997-.058.388M363.254 267.214h.834l2.968-.238 2.169-.18 1.157-.022.939.08.559.165.966 1.03.724 1.082M332.161 240.657l1.449-.454 1.036-.374 1.327-.223 1.935-.159 1.465-.252 1.36-.172 1.198.043.963.072 1.57-.223 1.247-.086 1.797-.008 1.262-.079 1.441-.497.907-.51 1.02-.433 1.457-.288 2.315-.41 2.193-.26 1.64-.318 2.6-.437 2.503-.632 1.497-1.048 2.159-.873 1.129-.196 1.84.109 2.116.552 1.514.475 1.765.396h1.173l1.036-.274.762-.41.639-.547.566-.151.648.086.578.156.51.507M385.146 228.26l.13 1.324-.21.786-.284.647-.534 1.023-.591.49-.696.496-.182.713M338.272 303.723l.833-.627.257-.133.117-.21.096-.284-.01-.39-.097-1.006-.028-.412M303.413 300.27l-.283.645-.198.372-.122.43.043.357.265.695.3.558.385.53.459.582.267.152.384.095.67.606M303.413 300.27l.209-.475.179-.585.195-.863" clip-path="url(#pa1a22f8b12)" style="fill:none;stroke:#000"/><path d="m277.25 293.884-.105.532.127.527.422.577 1.508 1.378 1.818 1.805 1.635 1.529.437.326.81.46.802.093.672.029.478.209.097.35.21.791.566.735.68.777.858.907.721.546.413.116.586.003.915-.31.413-.036 1.056.281.777-.266 2.81-1.468 1.812-.835.956-.432.688-.46 1.165-1.03.85-.418.761-.288.485-.057.74.015M277.25 293.884l-.738-.05" clip-path="url(#pa1a22f8b12)" style="fill:none;stroke:#000"/><path d="m313.593 299.826-.91-.848-6.559-6.973-1.188-.67-1.032-.481-1.125-.148-1.392.111-5.456.836-4.37.69-1.15.144-1.376.072-2.332.187-4.856.821-2.85.389-1.748-.072M232.228 377.403l.146-.037 2.016-.238 2.226-.013 2.311.113 2.425-.113 1.17-.15.69-.238.972-.551 1.663-1.203 1.113-.74 2.17-1.015 2.707-1.316 2.663-1.152 1.72-.778 1.522-.827 1.888-1.015 1.353-.463 1.292-.04M249.197 401.39l-4.736-3.839-.663-1.091.054-.892.187-.518.874-.979 3.092-3.908 2.938-4.937 6.872-10.638 3.319-5.082 1.141-1.878" clip-path="url(#pa1a22f8b12)" style="fill:none;stroke:#000"/><path d="m235.16 390.634.897-4.671.037-.298-.13-.471-.298-.413-1.042-1.266-1.515-1.728-1.05-1.016-.595-.331-.484-.314-.121-.273.056-.248.158-.256.39-.257.345-.388.306-.48.102-.447.012-.374M235.16 390.634l-6.775-1.715-2.668-.62-.388.018-.255.097-.199.19-.214.465-.51 2.246-.061.385-.004 1.46.158 1.365.117.756.078.598.417.94.523 1.034.598.96.46.423.288.039.534-.137.728-.489.968-.846.902-.709.575-.698.526-.611.59-.48.466-.349.822-.205.676-.244.502-.26.453-.391.239-.673.113-.8.34-1.749" clip-path="url(#pa1a22f8b12)" style="fill:none;stroke:#000"/><path d="m235.16 390.634-.341 1.75-.113.799-.24.673-.452.392-.502.259-.676.244-.822.205-.465.35-.591.479-.526.61-.575.7-.902.708-.968.846-.728.49-.534.136-.288-.04-.46-.422-.598-.96-.523-1.035-.417-.94-.078-.597-.117-.756-.158-1.364.004-1.461.061-.385.51-2.246.214-.464.199-.191.255-.097.388-.018 2.668.62 6.774 1.715M426.682 230.125l-1.117-.018-1.19.295-5.166 1.97-3.3 1.27-.515.216-1 .493" clip-path="url(#pa1a22f8b12)" style="fill:none;stroke:#000"/><path d="m415.743 233.224-.53.252-.353.248-.465.627M423.756 224.373l-.372.09M432.767 224.946l-.512-.228-.972-.259-1.788-.461-1.433-.13-1.821-.129-1.028.022-.696.223-.761.389" clip-path="url(#pa1a22f8b12)" style="fill:none;stroke:#000"/><path d="m426.856 224.938-.672-.191-.85-.173-.801-.093-.777-.108M433.404 226.54l-.125-.894-.512-.7M434.173 223.577l-.95 1.09-.456.279M435.464 225.672l-.46.195-.195.104-.235.133-.538.227-.632.209" clip-path="url(#pa1a22f8b12)" style="fill:none;stroke:#000"/><path d="m430.304 227.605 1.012-.266 2.088-.8M423.384 224.463l-.762.09-.752.1-2.056.151-3.813.612-1.626.332-.438.223-.129.446.235 1.397 1.7 5.41" clip-path="url(#pa1a22f8b12)" style="fill:none;stroke:#000"/><path d="m424.8 229.671-3.052 1.317-6.005 2.236M426.856 224.938l.142.313.04.55-.194.63-.74 1.048-.996 1.37-.308.822M430.304 227.605l-2.816 1.123-2.688.943M423.384 224.463l.647-1.149.57-.363.567-.123.648-.238.603-.277.6-.071.557.064 1.09.278 1.567.322 1.553.33.8.132.938.083.65.126" clip-path="url(#pa1a22f8b12)" style="fill:none;stroke:#000"/><path d="m435.464 225.672-.445-.597-.032-.53-.124-.466-.112-.33-.578-.172M430.304 227.605l-1.295-.512-.772-.306-.553-.392-.196-.47-.147-.567-.234-.284-.251-.136M558.976 239.896l-2.73.71-3.071.613-1.322.012-2.238-.023-2.174.104-2.209.513-2.31.508-1.152-.18-1.62-.41-1.653.062-2.26.502-1.625.035-1.66-.58-1.372-.597-.998-.783-.699-.779-1.453-1.401-.63-.337-.99-.205-4.894-.276-3.741 2.038-1.096.821-1.492.499-.597.095-1.166.019-2.04-.092-1.622.134-1.855.473-2.328 1.127-4.696 3.81-2.356 2.83-.728.543-1.044.155-7.932-1.091-1.23.032-1.713.335-3.308 1.555M458.646 234.61l.537.372.725 1.059.65.529 1.07.48 1.417-.014.972-.288 1.198-.533.85-.684.469-.9.365-.655.38-.432.59-.46.657-.281.598-.08.542.08.507.327.539.777 1.134 2.646 1.488 3.242.65.992.71.547 1.084.323 1.78.677 1.43.835 1.71 1.488 1.078 1.19.558 1.109.298 1.174.167 1.638.173.9" clip-path="url(#pa1a22f8b12)" style="fill:none;stroke:#000"/><path d="m441.73 223.597.516.501 1.62.59 1.84.524 1.423.982 2.968 2.335 1.718 1.244.933.458.883.262.736.436 1.153 1.2 1.644 1.616.677.483.805.382M420.846 147.41l1.056-.088 1.417.051 1.165.151 1.166.144 1.165.634 1.077.662 1.19.89 1.239.939.65.85.233.667.11.906.087.927.43 1.157.514 1.2.184.873.246.491.442.447 1.435.874.638.469 1.374 1.266.846.786 1.055.774.601.448.48.61.38 1.114.6 1.266.155 1.54.168 1.158.613.96 1.135.96 1.06.892.278.48-.037.662-.298.43-.11.446.334.546.706.463.484.645.316.794.521 1.125.539 1.01.465.925.94 1.725.085.602-.022.737-.883 1.246-.574.986-.226.713.08 1.462.065 1.331.094.82.677 1.079.845 1.83.225 1.453.48 2.708.648 3.059.649 2.356 1.916 7.245 2.496 7.305.407 1.37.197 1.253.059 1.156-.219.692-.262.985.093.44.413.497 1.495.466 1.945.552 2.144.911.56.554.177.778-.04 1.224-.162.713-.083.945.414 1.765-.068.8-.547.824-.97.87-.733.584-.458.623-.166.997M429.412 213.907l4.899 1.43 2.307.468 2.21.577 1.38.864.443.938.22 1.528.148 1.288.368 1.418.343 1.179" clip-path="url(#pa1a22f8b12)" style="fill:none;stroke:#000"/><path d="m435.464 225.672 1.537-.479 1.963-.447 1.129-.251.834-.458.803-.44M573.897 205.539l.429.432.264.46.411 1.059.118.9.057 1.256.39 1.147.962 1.815.085 1.838.262 1.629.561 1.922.182 1.28-.398 1.143-.88 1.467-.75.567-1.454 2.515-.189.753-.569 4.492-.627 2.09-.786 2.3-.921.664-1.11.28-1.335-.085-1.525-.526-.99.138-1.13.66-1.165 1.774-1.16.904-1.545.694-2.108.79M562.805 257.304l-2.684-.929-1.662-.877-.619-.434-.392-.33-.372-.496-.66-1.155-.661-1.61-.144-.62-.083-.434.083-.743.31-.558.433-.475.934-.943 1.197-1.074.454-.558.269-.454.124-.33.123-.495.184-1.16.163-.982-.037-1.41-.124-.495-.31-.475-.355-.37" clip-path="url(#pa1a22f8b12)" style="fill:none;stroke:#000"/><path d="m542.22 105.981.743.104.62.269 3.037 2.665.806.507 2.252 1.26 1.426 1.012 1.57 1.447.31.682-.02.516-3.596 7.025.042.393.268.434.661.558 2.418 1.59 2.046 1.943.434.765.165.764v.35l-.178 2.208.105.908.517 1.033.475.6 1.22.62.681.206 1.674.392.495.27 2.211 1.631.977.945.351.62 1.343 3.761.496 1.405-.042.703-.206.557-.66.62-.58.269-2.65.981-.66.476-.207.289-.827 1.86-.454.64-1.116.868-1.302.805-.764.58-.352.516-.516 1.255-.31 1.364-.083 2.045.413 1.524.765 1.84 1.425 2.706 1.716 2.789.31.888v.373l-.352 1.157-4.566 6.105-1.033 1.07-.496.33-.765.703-.392.599-.083.785.496 2.562 1.136 2.128 1.282 1.437 2.644 1.839 1.007.871.655.758.9 1.49 1.736 2.098 1.24 2.108.475 1.735-.165 1.524-1.033 2.645-.31 1.425.103 1.157.186.351.558.807 1.797 1.838 1.54 1.292 1.322.537 1.177.027 5.17-.651M420.846 147.41l-.688.013-1.3-.222-1.25-.771-.982-1.026-.932-1.113-1.23-1.21-.947-.597-1.595-.928-1.012-.41-1.667-.21-1.052-.093-1.79-.634-1.136-.37-1.08.065-.693-.267-.627-.645-.324-.468" clip-path="url(#pa1a22f8b12)" style="fill:none;stroke:#000"/><path d="m397.591 141.797.878-1.088 1.198-1.356 1.085-1.106.72-.212.702.057.367.432M397.591 141.797l.705-.212 2.533-.57.83-.374.517-.626.197-.625.168-.866M342.45 110.071l.167.12 1.067.991 1.522 1.28.846.89.479.555.441.721.76 1.331.688 1.157 1.08 1.2 1.472 1.878.932 1.353.663 1.42.417 1.92.564 2.553.49 2.598.074 2.16-.318 1.572-.025 1.113.147.96.59 1.398 1.153 1.331.735.917.81 1.331 1.08 1.702.736.852.884.786 1.186.859 2.088.835 1.919.28 3.577.62 3.14.814 5.578 1.843 1.36.15 1.197-.215 6.598-1.974 4.922-1.728 2.59-1.382 3.532-2.465M420.846 147.41l.516.133.76.502.712.524.663.96.662.895.859.633 1.595.83 1.3.152 1.767.022M336.516 111.803l.287.183.506.351.686.141.76.062.566-.187.574-.495.251-.556.002-.6-.086-.563-.292-.459-.377-.234-.696-.313-1.01-.54" clip-path="url(#pa1a22f8b12)" style="fill:none;stroke:#000"/><path d="m336.516 111.803.097-.296.083-.311.123-.48.399-1.056.323-.536.146-.532" clip-path="url(#pa1a22f8b12)" style="fill:none;stroke:#000"/><path d="m334.601 106.778 1.55.843 1.084.664.452.307M334.601 106.778l-1.34 2.523-.451.752-.324.64-.226.952-.098.564.169.74.282.276.958.238.945.271 1.012-.115.988-1.816M334.006 106.454l.595.324M335.157 105.788l-.556.99M341.85 105.08l-1.409 2.433M342.45 110.071l.639-.772-.316-.335-.43-.342-.704-.447-1.198-.662M340.49 288.248l-.332-3.132M320.992 306.095l-.24-1.483M320.992 306.095l2.887-.458M320.752 304.612l2.707-.323M378.497 413.916l-12.315.497-.446.061M302.103 331.403l-.814-4.424M291.43 331.358l5.019-1.152 3.675-.752.351.025 1.628 1.924M313.72 353.477l3.948-.29M316.341 345.884l-2.627.363M276.512 293.835l-2.047-.138-10.071-.692-8.756-.863-6.476-.705-5.625-.576-2.898.032-1.4.076-.931-.05-2.171-1.24-6.587-3.855-3.619-2.349-7.908-4.866-3.472-2.282-.275-.512.218-.762.624-.525 2.748-1.214 1.715-1.256 4.036-3.714 3.553-3.045 4.509-3.852 3.245-2.613 2.161-1.857.22-.562-.316-.54-1.01-.633.072-.203.468-.128h1.845l1.11.15 3.787 1.203 5.327 2.333 1.19.748 1.78 1.397 5.763 4.175 8.305 4.938 4.662 2.736.6 1.08.533 2.677.017 1.426-.26 1.698.065.994.745 2.822 1.651 4.65 1.514 3.16 1.36 2.737" clip-path="url(#pa1a22f8b12)" style="fill:none;stroke:#000"/><path d="m276.512 293.835-1.359-2.737-1.514-3.16-1.65-4.65-.746-2.822-.064-.994.259-1.698-.017-1.426-.534-2.678-.599-1.08-4.662-2.735-8.305-4.938-5.763-4.175-1.78-1.397-1.19-.748-5.327-2.333-3.788-1.202-1.109-.151h-1.845l-.468.128-.072.203 1.01.633.315.54-.219.562-2.16 1.857-3.246 2.613-4.509 3.852-3.553 3.045-4.036 3.714-1.715 1.256-2.748 1.214-.624.525-.218.762.275.512 3.472 2.282 7.908 4.866 3.62 2.35 6.586 3.854 2.17 1.24.932.05 1.4-.076 2.898-.032 5.625.576 6.476.705 8.756.863 10.071.692 2.047.138M308.868 334.836l-.055 1.359-.156.474M295.219 471.633l-1.36.228-.734.508-.06.834.264.453.653.472 1.448.834 2.896 1.596.632.561.286.6-.02 1.85-.122 6.056.489.544.652.217 1.51.218.889.463M465.45 464.162l1.821 1.67 1.076.784 1.66 1.217.453.18.542.043.94-.23 2.614-.857 2.573-.907 1.231-.604 1.91-1.195.802-.525.817-.44 1.263-.834 1.716-1.648.955-.95 2.056-2.043.559-.519.21-.547M199.577 518.35l-.891.159-1.214-.302-6.2-2.116-2.736-1.108-4.128-2.634-1.992-2.59M199.577 518.35l-1.894-1.496-.81-.518-1.878-.965-.68-.719-.485-1.152M529.92 566.476l-.388 1.31-.21.59-.227.604-.858 1.353-.987.791-.583.33-.437.534-.233.647M307.44 441.737l.185-3.8M344.83 457.698l-1.265-.308-1.346.38-3.1.943-2.101.29-1.285-.47-1.51-1.016-1.08-.78-2.366-.417-3.386-.907-3.304-.38-2.346-.237-3.916-1.976-2.876-1.886-.53-.907-.836-1.922-1.428-2.412-3.202-2.81-1.512-1.146M303.308 439.167l2.83 1.63 1.303.94M304.975 435.7l1.545-2.663M305.35 431.929l1.17 1.108M306.52 433.037l.527.514M303.308 439.167l1.17-.179.988-.532.842-1.152.696-2.49.043-1.263M307.625 437.938l.244-1.85-.244-1.897-.578-.64" clip-path="url(#pa1a22f8b12)" style="fill:none;stroke:#000"/><path d="m303.308 439.167 1.122.224 1.499-.162 1.169-.526.527-.765M294.919 419.656l.478 2.362M316.276 313.248l2.902-.404M334.038 300.986l.228.305-.009.295-.337.381M328.57 301.474l-.23-2.695M362.916 300.037l2.869-.51M317.648 320.666l-5.726.85M530.439 594.164l6.588 1.036 1.36.144.68.187.615.345.534.46.373.533.356.532 2.105 3.282.842 1.885 3.043 4.647.291.562.162.618v1.252l-.34 1.022-1.246 2.03-.275.575-.227.604-.081.619v.633l.291 2.892.275.504.421.49.648.258.68.101.728.158.632.331.567.418.323.547.194.618M523.882 608.9l.113-.62.098-.633.065-.633v-1.266l-.632-2.576-.194-1.065-.194-.633-.405-1.224-.065-.676v-.633l.13-.619.259-.748.307-.547.453-.489.519-.432.598-.36.616-.287.712-.173.68-.029h1.36l.68-.1.663-.23.534-.404.26-.36M338.025 346.52l-2.982.472M338.025 346.52l.512 2.953M346.08 348.17l-.563-2.834-7.492 1.185M346.08 348.17l.549 2.753M346.08 348.17l3.322-.574M346.08 348.17l-7.543 1.303M346.629 350.923l2.919-.447M346.629 350.923l-6.994 1.072M339.635 351.995l-.853-1.102-.245-1.42" clip-path="url(#pa1a22f8b12)" style="fill:none;stroke:#000"/></g><g id="PatchCollection_1"><path d="m275.923 361.275-1.21.222h-2.094l-1.66-.56-1.629-1.16-1.552-1.508-.422-.65-.253-.595.407-1.215 1.574-2.46 1.077-.478 1.459-1.81.922-2.152-.173-1.315-2.441-.715-.758-.542-4.484-.093-3.112.479-.345-.41-.596.153-1 1.367-.786-.274-1.229-.46-.077-1.248.557-1.076 2.228-1.93.346-1.059.129-.849-2.319-1.986-1.748-.495-.749.102-1.94 1.298-2.785.707-2.324.01-1.344.616-2.111.376-.924-2.56-2.445-1.933-3.205-.097-1.086.145-.761.725-1.087-.048-.488-.822.018-.965.905-.725-.109-.918-.316-.458-1.172-.205-.288 1.417-.45.019-1.033-.145-1.09-.882-.846-.751-.4-1.12-1.467-1.45.489-2.947 5.054-.218 3.65-.854 3.41-.28 2.5 1.014.755-.307.998.136 1.172.41-.21.92-.868.628.387.622.864.529 1.556-.188 1.325.034 2.42.598 2.4-.222 2.037.786 3.136-1.048.878-.045 1.295.722 1.087.798.173.512-.365.479-.569.047-1.89 1.66-.057.394.48 2.439 1.133 1.113 1.153.786.322 1.386 1.041 2.08 1.25.735.979-.41 5.205.348 4.4.58 1.42-.91 1.075.888-.46 3.16 1.036.392 3.829-.921 1.14.29.813-.376.134-1.503.23-.65.725-.322 1.619.066 1.364 1.008 1.69 3.929-.269.41-1.44.17-1.153 1.264-1.44 1.128-3.208 1.178-4.725 1.828-1.421 1.674-.058 2.954-.5 1.23zm-26.444-23.868.774-.483.598-.544.652-.145.322-.224.23-.7-.009-.392-.299-.278-1.562-.423-2.183-.308-1.44-.786-.56.188-.535.478-.327.171.265.729.081.467.192 1.298.384.564.634.324.768.17zm-5.146-4.368.515-.294-.109-.604-.49-.374-.665-.333-.848.202-.874.054.029.418.282.311.01.415.056.359.531.35.855-.121zM250.924 355.976l-.597-1.474-1.06-.459-.272-.459-.081-2.1-.19-.484-1.196-1.208-1.113-.193-.516.193-.163.483.054 1.86 1.575 2.947.354.338 1.929.846 1.059-.073z" clip-path="url(#pa1a22f8b12)" style="fill:#00f;fill-opacity:.8"/><path d="m264.35 332.07-.733-.688-.91-.652-.584-.386.027-.17.408-.085.706-.036.61.133.558.037h.516l.42.096.3.181.054.242-.123.253-.366.145-.244.194-.109.181-.177.241-.081.157zM228.807 330.86l.463-2.922-2.364.41-2.2.146h-.598l-1.71-.507-2.798.483-1.115-.049-1.086-.386-.733.797-.136.459-.027.483.597.749-.38.362-.109.46.87.458 2.146-.314.815-.725 1.059.145.869.532h1.113l1.468-.7 1.059.216zM276.22 361.718l-1.843.222-2.362-.12-2.843-1.366-1.402-1.606-1.038-1.383-.48-.017-.076.358v.598l.096.683.23.274.269.358.192.325.211.444.154.564.154.632.326.922.269.375.25.24.364-.086.25-.222.23-.41.635-.256.307-.205.404.085.48.171.21.41.404.154 1.133.102 1.038-.102.806-.12.826-.085.48-.137.135-.375zM668.257 502.89l-.079-.256-1.194-1.61-1.695-2.637-1.908-2.254-1.483-2.508-1.886-.031-2.044.58-1.926-1.234.732-1.61 2.582-2.192 2.02 1.377 2.93.685 2.927-.96 2.14-.109 3.237-2.671 1.078-1.782.385-2.5-3.005-2.536-3.545.789-1.464-.343-1.27-1.027-7.514 1.267-4.624 1.267-4.354-.582-2.234.65-3.198-.342-7.072-3.041-3.139.335-2.563 1.172-1.233 2.466 1.292 2.185 2.561.281 2.101-.11 1.04.72.309.925-1.272.65-1.716.419-2.137.78-2.966 3.29-5.549 3.493-2.774 1.302-3.622 1.233-1.291 1.685-2.312 1.918-2.176 1.74-3.005 1.063-1.292 3.226-1.636.713-1.6-.576-2.754-3.74-1.562-.918-2.06-.898.462-3.7-.577-2.637.326-1.26-.83-.96-2.928 1.097-1.31 6.576 2.081 1.85.077 1.302-.616 1.233.154 1.302 4.854 2.74 1.387 2.26 1.85 2.056.617 1.165-.232 1.301.462.448 3.733-1.986 2.833-3.222 4.332-3.076 1.444-1.55 7.655-2.155 5.122-2.955 3.27-1.284 1.634-1.43 14.222-4.626 4.767-.048 2.016.557 6.076 4.505 1.172 2.083 4.325 2.694 1.111.583 1.389-1.357zM444.25 469.065l-1.857-.921-1.303-.327-.68-2.337-1.49-3.31-5.24-2.056-10.615-.479-3.12-.89-1.715.102-2.08.377-2.274-1.61-9.19-1.484-6.865.387-4.359-1.453-4.686-.775-1.635-1.55 1.09-1.744-.327-2.036-1.198-1.84 1.743-1.26 1.769-1.299 3.353.233 3.428 1.909 2.348-.068 2.14-1.44 3.68-.103 1.59 1.834h3.476l3.737 1.346 2.928.137 4.085 1.508 7.32-1.508 1.464.137 2.123.309 3.194.514 2.774.822 2.928.137 2.929-.685 4.392.205 1.049-.702 1.58-1.028 2.37-.525 3.43-.788 5.047-1.541 2.389.445 2.167.097-.703 2.678-6.387 7.325-4.161 2.124-.703 2.37.732 3.082 3.237 1.13 1.695-.547 1.079-.89 2.35 1.712.24 1.844-.924 1.096-1.435.554h-1.657l-1.079 1.987-.684 2.186-1.772 2.261-.703.76-7.157.748-1.618-.137-.925-1.234-.101-3.754zM466.902 415.232l-.081 1.308-1.145 2.108-1.743.945-1.226 1.502-5.96-.534-6.166-2.535-.847-1.302-.308-3.015 1.772-4.11-1.079-2.741-3.776-3.015-3.005-3.631-2.928 1.096-1.618-.137-1.465-.754-.847-1.302-.462-1.439 1.002-4.248-1.388-.89-.385-1.44.689-2.529 4.011-.143 3.835 1.693 1.868 3.72 2.922 2.129.599-2.083.98-.776 2.344-.194 4.468-1.162 2.506.63 3.057 2.415 5.77 2.575 2.234 1.599 2.78.34 2.085 1.927 4.344-1.056 3.923-.145-.87 1.818-4.854 2.877-2.858.953-1.766 1.24.295.94 3.327-.871 1.002.959v1.302l1.233 2.398.076 1.37-.847 1.165-6.01 2.261-1.619-.25-1.825-1.234zM401.021 440.714l-.457.122-1.623-.895-.069-.407.754-1.037.572-1.138.229-.345.823-.407 1.349-.02.87.243-.458.733.091.813-.251 1.2-.47.253zM21.332 240.902l.176.667.177.176.595-.059.927-.372-.089-.314-.375-.745-.772.235zM154.433 206.606l.449.74.608.257.864 1.139.8.911.577.74.64.03.705-.599.16-.313-.48-.684-.385-.455-.832-.883-.769-.968-.576-.484-1.152.17zM264.779 201.683l-.527.469-.684.046-.737-.795-.684-1.311-.684-.983-.685-.375-3.578.375-1.053-.094-1-.889-.21-.655-.527-.61-.368-.982-.421-.796-.632-.702-.21-.749v-1.077l.21-1.591.316-.844-.263-1.17-.158-.749.052-.936-.579-.702.159-.842 1-.469.315-.702 1.105-.655 1-.094 1.211.327 1.21.188 1.264.14.684.562h1.42l1.58.047 1.421.421-.474.75-1.79.093-.947.468.158.983 1 1.404.58 1.03.736.843.42.796-.315.936-.526 1.451.106 1.03.63 1.639.264 1.404.263.796.579.562-.158 1.076zM266.592 185.037l-.507.839v1l.108.29 1.704-.613.109-.774-.4-.483zM268.296 185.037l-.218.678.29.741.436.097.688-.129.326-.097-.036-.644-.253-.484-.653-.387zM270 184.683l-.109.741.399.484.326.226.616.032.761-.226.617-.257.29-.098.217-.45-.036-.323-.761-.129-1.16.032zM273.734 184.065l-.255.93.085.604.905.201.99-.201.367-.528-.453-.503-.735-.403zM358.342 207.948l.87-.094.453-.201.199-.476.064-.587.012-.921.46-1.25 1.108-1.24.967-1.164.76-1.45.008-.785-.313-.598-.472-.295-.583-.223-.992.012-.958.118-.915.064-.866.166-.793.353-.875.029-.85.071-.85.317-1.174-.106-.825-.304-1.044-.194-.634-.236-.796-.075-.654-.026-.83.221-.507.462-.408.56-.645.477-.967 1.568.09 1.591-.118.636-.256 1.897.039.53.245.457 1.138.53.995.153 1.081.025 1.256-.563 1.39-.196.779-.272 1.295.043.672-.216.518.151.66.825 1.299.187z" clip-path="url(#pa1a22f8b12)" style="fill:#00f;fill-opacity:.8"/></g><g id="PatchCollection_2"><path d="m314.68 353.184 2.228-.293-.432-2.594-1.012.133-.109-.654-1.215.16zM321.204 337.248l.221 1.144 2-.307-.222-1.143z" clip-path="url(#pa1a22f8b12)" style="fill:green;fill-opacity:.8"/></g><path id="PatchCollection_3" d="m312.881 396.32-5.75 1.026-.838-3.715 5.75-1.025z" clip-path="url(#pa1a22f8b12)" style="fill:#90ee90;fill-opacity:.8"/><g id="PathCollection_1"><defs><path id="m76e06468b9" d="M0 3a3 3 0 1 0 0-6 3 3 0 0 0 0 6z" style="stroke:#90ee90;stroke-opacity:.8"/></defs><g clip-path="url(#pa1a22f8b12)"><use xlink:href="#m76e06468b9" x="305.677" y="382.072" style="fill:#90ee90;fill-opacity:.8;stroke:#90ee90;stroke-opacity:.8"/></g></g><g id="PatchCollection_4"><path d="m164.337 190.897-13.077 15.35-2.507-1.06-12.003-9.333-13.888 14.694 3.1 2.95 36.666 18.86 39.54 20.64-11.506 30.778 2.939-1.012 4.802-1.21 3.01-.186-2.083 2.222-1.374 3.83-1.36 4.77 1.063 2.223 9.665 13.134 4.594 1.611-2.685 3.096-1.67 1.768.955.689.318.626.13 1.172.419.794 3.339 3.777-1.069 2.978.015.793 1.54.34 1.681.244 1.667.296 2.44.498 1.512.115 2.324-.015 3.668-.11 5.234-.11 1.725-.156 5.211-.676 4.13-.417 1.781-.002 1.541.202 1.325.444 1.868 1.051 1.644.864 1.229.397 1.631.315 3.838.473 3.204.433 2.607.159 2.706.107 1.286.024 1.377-.208 2.253-.484 1.54-.076 1.258.317 2.022.746 1.17.721 1.252.987 1.165 1.2 1.77 1.95 2.385 2.537.244.234-.164-2.273 1.033-2.74 1.828-1.187-.716-.744-1.603-4.368 1.166-3.501.38-.24-1.546-6.635 10.161-2.647.31-.866.363-.667.476-.652.535-.588.635-.54 1.214-.821 6.294-4.054-1.226-1.544-.519-.993.053-.42.255-.79.575-1.222.593-1.789 2.701-1.494 2.72.863 2.771 2.143 1.429-1.566.44-1.792-.073-2.54-.974-2.474-2.813-2.762-.467-.703-.377-1.518-1.104-5.417-.72-1.448-1.732-1.938-2.68-1.703-.638-.555-1.772-4.037-1.568-1.655-3.952-2.415-1.057-.8-1.68-3.346-2.25-2.652-2.851-2.334-3.324-1.84-2.813-1.223-8.49-1.647-2.494-.856-2.483-2.282-3.58-.405-1.247-1.618-.373.489-.96.99-.127.511.017.553-2.158 1.99-.758.443.306.214-.546.51-.153.254.323.306-.509 1.16-1.153 1.135-.959.394-.5.592-.329.51-.374-.092-.007-.937-.177-.356-2.482-.814-1.499.01-1.403-.481-.818-.437-.39-.162-1.31.108-.496-.292.274-1.003-.306-1.578.378-.6-1.75-.682-.676-.89-.124-.38.94-.993-1.202-1.041-.532.028-1.015-.256-.556-.25.204-.871-.136-.694.282-.102 18.677-14.332 2.005-2.314-2.766-.898-2.775-1.968-1.647-1.737-3.514-2.318-2.478-1.57-2.174-1.035-3.985-.138-1.224-.8-2.264-2.384-2.34-2.8-.945-.67-1.825-.607-3.013-.864-3.607-.737-1.36-.786-.961-1.124-1.202-2.149-1.675-3.193-1.233-1.22-1.4-1.145-11.316-8.965-1.556-1.145-5.659-5.641-7.99-14.747-2.974-2.61-3.579-1.975zM209.687 517.827l3.053-.518 5.744-1.16 2.646-.144 2.055 1.152 3.376 1.774 5.433 3.168 5.936-27.73-17.91-2.097-14.159-1.786zM112.102 419.085l-.044 32.086-5.432.69-1.524 6.336-.082 1.036 2.905-.7.85-.271 1.303-.717 1.012-.913.44-.877.176-.962.025-1.634.19-1.234.56-1.416.57-.803 1.126-.849 2.017-1.247 1.19-.636 2.285-1.142 1.233-.829.735-.731.466-.82.105-.609.014-1 .203-1.726.378-1.233.622-1.354 1.002-1.249 1.514-1.629.967-1.265.877-1.414 1.772-2.684.555-.908.337-.805.507-1.924.652-4.145 2.292-11.747.32-1.228.725-1.463 1.33-2.265.802-1.073 1.525-1.718 1.431-1.448 3.941-3.255 4.035-2.997 3.52-2.73.963-.786 1.493-1.364.923-.668 1.255-.532 1.532-.564 1.13-.484 2.233-1.065 1.331-.456.715-.165.842-.071 2.844-.178 1.614.1 1.333.298.551.49 3.415 2.669 2.291 1.384 1.293.3 1.408-.104 1.732-.382 5.073-1.485 2.498-.756 1.333-.262 1.6.095 1.387.43 1.369 1.032 1.225 1.193 1.024.477.872-.05 1.275-.715 1.672-.996 2.249-1.56 1.178-.606 4.58-2.072 1.272-.47 1.157-.294.901-.079 2.73-.064 2.75-.411 2.884-.91 1.313-.302 2.172-.371 1.436-.469 1.728-.775 9.309-9.505 1.814-3.783.564-.495 3.647-2.198-5.325-8.58-.675-.612-1.693-.783-16.182-4.583-17.73 35.68-62.301-1.255-25.23-.143z" clip-path="url(#pa1a22f8b12)" style="fill:#006400;fill-opacity:.8"/><path d="m203.613 455.741 4.327-.237 7.799-2.544 2.34-1.033 23.815-16.332-.792-1.94-1.62-2.206-2.048-1.753-2.802-.829 4.196-15.406 16.69 12.05 18.532.98 1.11-2.09 1.04-1.735 2.07-4.123.33-.562 1.223-1.084 1.467-4.117-4.199-1.633 9.871-27.03-2.04-.892 4.54-11.712-3.382-1.3 1.731-4.317-2.352-.534-1.34.059-1.211.495-1.242.998-1.27 1.297-3.423 3.89-1.3.978-1.88.575-1.468-.136-1.82-.766-1.543-1.02-3.41-2.61-1.545-.602-1.195-.173-1.52-.057-13.1 20.03-2.138-.925-8.363 16.34-4.915 5.642-8.446-5.982.881-4.822-1.979-4.957 2.946-12.332-1.51.677-1.531.5-2.208.377-1.264.29-2.908.919-2.865.429-2.754.065-.81.07-1.054.269-1.208.446-4.535 2.05-1.119.577-2.229 1.545-1.702 1.015-1.44.808-1.262.073-1.318-.615-1.281-1.247-1.23-.927-1.166-.36-1.398-.084-1.191.234-4.27 1.28-3.297.96-1.815.4-1.59.115-1.534-.353-2.434-1.472-3.465-2.707-.426-.38-1.081-.241-1.493-.091-2.754.171-1.452.22-1.222.419-2.207 1.053-1.163.498-1.533.564-1.158.49-.822.596-1.479 1.35-.985.805-3.532 2.74-4.026 2.99-3.901 3.22-1.393 1.41-1.494 1.684-.764 1.023-1.303 2.214-.686 1.387-.299 1.15-2.286 11.718-.655 4.165-.526 1.993-.371.888-.587.959-1.773 2.685-.888 1.433-1.005 1.315-1.52 1.635-.936 1.168-.574 1.247-.35 1.143-.193 1.641-.014 1.018-.131.757-.563.989-.846.844-1.33.893-2.319 1.159-1.16.62-1.968 1.217-1.013.764-.467.656-.507 1.283-.173 1.128-.025 1.642-.2 1.096-.533 1.062-1.168 1.053-1.444.794-.949.301-3.07.647.506 15.648 45.167 29.858 9.876-12.268 8.886-11.99 10.949.527 4.624 1.567 20.78 7.34-1.081-7.209zM-6.995 399.817l-27.222 7.736-14.305-29.818-13.098 6.123-1.465.619-6.476 6.743-.583.562-.286.833-1.24 7.111-4.075-3.447-1.05.15-1.377.564-1.367.746-3.169 2.813-1.602 6.193-3.61 2.392-.342 2.184.595 1.374.594 1.15 13.231 5.336 2.183 7.865.745 2.89-1.938.376-3.24-1.21-6.118-.07-2.028-1.02-3.86-1.77-10.026-3.018-8.964-8.284-1.789-1.027-3.701-1.094-1.576.058-1.577 1.068 16.405 38.34.311.795 1.267-.06 1.653.172 4.45 1.226 2.677.644 2.696.696 2.912.765 2.72.762 3.426.8 3.29.834 4.909 1.204 9.147 2.411 2.407.23 2.572-.217 1.927-.607 3.651-1.82 4.574-2.457 3.526-2.05 3.798-2.099 4.308-2.253 3.283-1.792 3.785-2.297 2.365-1.234 5.177-2.425 3.012-.862 1.933-.305 2.103-.024 7.223.137 3.545.167 10.556.364 4.339.062 5.415.306 5.4.119 4.147.16 2.933.087 2.77-.02 1.504.138 1.3.192 1.205.412.999.624.324.256 5.042-20.084-15.623-22.864-8.128-7.237-7.038-1.424z" clip-path="url(#pa1a22f8b12)" style="fill:#006400;fill-opacity:.8"/><path d="m-149.848 589.499 7.937-6.114 19.801 20.377-6.883 5.372-.925.759 1.382-.18.41 1.369 1.324-.481.409 1.576.603.062.293 1.348.878-.244-.4 1.226 1.563 1.115.027 1.564 1.54.428.522-1.286 1.442-.544.515.805 1.113-1.094-.223 1.319 1.326-1.086.436 1.269 1.79-.428.643.874-.312 1.441 1.614-.851 1.958.875 2.105 2.793 2.726 1.677 1.89-.451-.071 1.393.782.034.002.558.65.266-.304.68 1.998-.695-.377 1.157 1.085-.808.271 1.121-1.213.112 1.17.884-.096.43 1.578.263.918 1.12-.72.952 1.244.248-.36.619.804.183 1.733 1.05.507-.643.135.436.569-.36.278 1.052 1.708.168-.724.375 1.118.285-.429.827 1.658.372.836-.65.086.48-.44.54.318.954 1.333 2.262 3.583.879-.319.347 1.266.233.952-.557 1.442.99 1.48 1.612 1.486.743.1.667.852.138.129.997-.754.297.756.213-.811.186-.118 1.084-.977 1.067 1.731.26-.087 1.728-1.606.453.289.548 1.373.109-.646.588 1.295.37 1.14.615 1.064.342-.15 2.392 1.401-1.58.06.537.483.84-.065.415.83-.071.232.543-.697.263-.075.92 1.242.344-.335.688 1.854-1.519.451-.883.446.4.166.859-.976.36.272.667 1.403-.659.715.64-1.74.617.691.81-.955.61 1.916-.105-.444 1.016.06.339-.18.374.432.405 1.195.012-.823-.293 1.209-1.003-.076.867.293.312 1.074-.486-.893.977 1.024.883-.683.718.667.19.664-1.03.768-.045.285-.362.637.159.47-.436.546.17.699.529-.88.805.08.913.757.364 1.752-.73-.354-.953.043-.748.533-.673.948.9.434.618.726-.88.835-.07.636-.172 1.482 1.02 2.07.245 87.428-52.662-22.552-64.543 1.709-.232.377-2.072 24.59-98.022-.594-.47-.891-.557-1.053-.36-1.204-.178-1.442-.131-2.745.018-2.95-.088-4.147-.16-5.406-.118-5.411-.304-4.326-.064-10.57-.364-3.541-.166-7.2-.137-2.031.023-1.827.289-2.904.83-5.106 2.392-2.329 1.216-3.78 2.293-3.3 1.802-4.313 2.255-3.783 2.09-3.526 2.052-4.595 2.468-3.717 1.852-2.07.653-2.735.23-2.546-.243-9.205-2.426-4.902-1.203-3.292-.835-3.431-.8-2.733-.766-2.902-.762-2.69-.695-2.682-.645-4.396-1.212-1.529-.158-.993.04 8.838 20.016-8.495 12.282-8.744 15.918 17.505 37.039-36.591 2.924-4.59-10.145-12.218.85-29.563 2.349-.112-.058-.026-.34.383-1.538-.034-.3.156-.493-.057-1.213.107-.37.208-.175-.077-.51.175-.372.044-.855.101-.222.193-.19.436-.253-.574.053-.023-.424.22-.179-.137-.231.143-.759.536-.09.456-.63-.098-.233-.373-.503-.167-.293.8-.763-.334-.055-.348-.246-.119-.265.702-1.114.307-.7-.504-.572.13-.58.014-.49.349-.258.018-.32.162-.422-.148-.752.176-.327.072-.383.671-.335.494-.534.45-.912.195-1.25-.393-.638-.06-1.212.6-.966-.106-.488.023-.651.205-.538.294-.258.03-.64.289-.9-.298-.55.328-.276-.394-.807.026-.847-.256-.966.176-1.103.19-.698.186-.902-.163-.26-.127-.403-.171-1.494.015-.938.274-1.082.165-.813.447-.305-.368-.446.416-.373.018-.287-.011-1.18.603-1.265.244-.965-.067-1.016-.357-1.714.18-1.169.268-.561-.767.66-.84.59-1.878 1.425-.502.434-.24.38-.046.553-.03.938-.2 1.248-.05 1.79.127 1.634.195 1.356.015 1.572-.28 1.254-.54 1.1-.93 1.115-1.682 1.558-1.288.924-.699.695-.787 1.383-.908 1.868-1.14 1.905-1.4 2.26-.843 1.288-.48.83-.63 1.62-.625 1.149-1.276 1.707-.59 1.19-.534.766-.736.408-.82.13-.87.02-.885-.148-2.531-.714-1.57-.251-1.13-.057-.71-.244-.592-.424-.75-.684-.836-.985-1.208-1.239-1.794-1.508-.339-.581-.311-1.183-.054-.738.086-1.064-.137-3.047-.023-1.307.249-1.333.33-1.325.173-1.15-.11-.936-.223-.92-.137-1.26.05-1.084.233-1.314.006-.67-.157-.72-.21-.52-.466-.456-.414-.172-.935-.112-.802-.15-.75-.39-.697-.629-.553-.762-.433-.735-.516-.576-1.586-1.187-.61-.512-.337-.503-.234-.844-.174-1.06-.183-.466-.377-.414-.46-.27-.4-.103-1.19-.027 1.631 49.348-6.705.555-2.206.217 12.51 19.357 27.257 42.504 4.733-.142 9.68-.248zM597.234 177.855l3.248-5.109-1.844-1.796-1.447.834-3.402 1.4-3.085 1.907-1.5.412-1.765.216-3.198.452-1.95 1.118-1.184 1.941-.937 1.831-1.7 1.685-1.658 2.405-1.495 4.006-1.046 1.544-1.078.986-2.477 1.167-.78.608-1.989 3.467-1.443 2.162-.262 1.713 1.303 2.736 1.133.869 4.965.497 1.644 1.582.155 2.66.769 1.918 11.368-17.414z" clip-path="url(#pa1a22f8b12)" style="fill:#006400;fill-opacity:.8"/><path d="m575.72 211.817-.174 1.92-.632 1.727 1.009.767-1.31.694.771 3.18-1.103.708-2.248-.178-.175 3.376 1.421 3.125-1.373 6.278-.698 1.192-1.277.514-3.075-.477-1.782.54-1.877 2.504-2.329 1.216-1.358.362.344-2.668-3.817.395.355 3.102-1.999.532-5.889.078-5.217 1.119-3.009-.591-4.343.586-2.282-.155-3.105-1.79 18.525-22.141-7.879-5.411-5.077 6.313-6.583-4.372-14.79-9.733-15.834 11.436-8.707-9.142-14.818-15.705-13.112 6.805-12.392.635 5.248 18.387.21 1.366-.096 1.152-.195 1.555.178.446.199.35 4.782 1.337.303.175 5.39-1.277 1.544 3.123 1.584 2.148.518.62-1.151 1.448-.804.82-2.257 1.679-2.596 1.997-.71.69-.624 1.008-.222.669-.536.83-.841.252-2.488.567-.909-.296-1.165-.849-.629-.798.014-.685-.154-.833-1.255-1.528-1.573-.745-.807-.22-1.213-.029-1.441.389-1.16.529-1.02.017-1.017-.285-1.446-.776-.715-.46-.51-.478-.388-1.838-.104-1.791-.572-1.977-3.652-22.11-1.055-11.241 21.466-.48.714-.423-.152-4.113-.237-2.112-1.71-.057-.81-1.502 1.497-1.38-.405-2.005-1.581-.05.28-1.469-2.132-.097.723-1.317-2.235.478.12-1.352-1.64-2.492.775-.35.19-2.678-1.606.185-2.404-4.557-1.834-4.284-.573-3.235-5.48.532-3.487-3.126-.874-3.49-1.144-1.251.557-2.076-2.098-.76-2.726-2.259-2.343-1.356.47-2.185-2.936-.065-3.95.51 1.282-3.167-1.643-1.254-4.656-.926.746-2.592 1.147-1.902-3.27-2.461-.75.195-2.554-1.676-2.304.507-13.495 20.842-13.728 17.66-7.764 12.204-6.246-8.26 31.949-50.485.05-.432-2.779.193-.247 1.72-2.01.67-2.6-1.821-1.469-2.247-1.322-.08-1.08-.663-1.552.934-1.535-.084-1.444 1.91-1.776 1.262-1.992 1.945-2.952.583-3.158-1.41 1.347-3.25 1.389-.925 1.198-1.598.801-.649-.326-1.036-.315-1.896 1.01-.815-.397-.489 1.372-1.342.982-1.145-1.799-.174 1.248-1.885.77-.164.025-.894-.42-.832-1.205-.696-.537-.177-27.918 1.398-.23-5.622 6.527-1.572-.273-6.659-12.554-3.647 37.561-69.934 1.379-2.033 2.049-2.38 2.71-2.33 2.953-1.864 27.877-14.217 3.115-1.944 2.465-1.932 8.144-7.61 1.285-1.062 2.251-1.484 2.262-1.118 39.708-15.917 12.757 88.316 63.164-7.407 2.745-.286 1.145 1.538.522 2.246 3.984 1.554 1.392.896.171 2.717 1.54 1.21 3.052.559.64 1.292-.154 2.486.922-.063 48.767-19.95 3.001-1.15 18.274-.584-1.297-17.16 10.735 1.034 26.812-.324 5.307 1.043 6.91-.084-2.69 5.998-3.332 7.71-1.481 2.888-1.285 3.255-7.07 15.965-5.271 10.986-1.705 5.991-9.424 16.29-.663.42.038.95 1.243.87-.35 1.923 4.23 1.585 2.67-1.733 1.93-.491 2.066 1.24-5.413 1.686-1.854 1.12-1.05 3.006-.34 3.2.853 2.89-63.994 29.863-5.805 20.422 1.251 1.884 1.788 2.407 3.988 4.293 1.227 1.42-1.414.948-3.389 1.394-3.009 1.86-6.45 1.077-1.482.528-.747.75-2.167 3.541-1.457 1.641-2.095 2.84-.819 1.768-.55 2.26-.925 1.367-1.277.923-1.246.677-1.824 1.169-.75.717-.437.835-.745 1.844-1.263 1.296-.693 1.178-.376 1.11.02 1.144.612 1.722.986 1.53.65.558.961.434 1.305.243 2.492.057 1.004.159.634.223.483.338.196.441.389 2.852.435 1.243zM128.812 157.19l48.574-.998 5.272 5.601 4.555 3.49 3.522 1.975 3.185 2.675 7.933 14.711 5.788 5.699 6.056-14.47 3.957-13.009.332-1.388 19.78-32.11-.169-10.849 76.16-21.536 11.781-3.464 10.578.586-.756-1.296-2.51-1.61-6.383-1.478-3.695.218-3.345.527-3.778 1.114-3.485.694-1.89.055-4.5-.893-3.108-.691-2.923-.928-7.798-6.486-7.988-6.801-2.266-.286-4.392 1.52-2.478-.585-2.09-1.362-4.967-7.892-1.3-1.01-2.088-.595-12.41.771-4.091-.76-9.379-2.52-9.524-3.005-2.08-1.225-2.46-3.734-2.84-3.95-1.522-.63-1.82-.27-12.555 1.09-12.133 1.162-11.305 2.387-11.872 2.249-34.909 22.354.101-6.024-25.073-11.551-2.79-1.365-16.8-.21-10.496.454 2.522 5.38 11.223 24.153-6.688.681-3.202.986-2.504-.07-6.64.842-10.055.72-.063.592 1.006 1.316.853 1.18 2.838 4.361 1.03 1.499.402.962-.17.342.263.477.323 1.08.237.497 1.852 2.515.854.788 1.572 1.889 1.973 2.445-4.638 16.232-6.841-1.11-2.018.43-9.243.296-4.776 21.486 55.984 14.852 1.14.655.239.642.555.743 1.318 1.493 18.437-12.692zM33.188 474.59l-17.602 69.487-.378 2.043 75.486-14.609-1.713 10.733-6.253 35.85 10.72 10.12 20.037 12.457 50.992-50.513 16.76-16.982-30.783-27.636-45.167-29.801-.425-15.792-.019-1.808 1.297-6.278-20.468-.856-11.275-2.021-29.045-23.713z" clip-path="url(#pa1a22f8b12)" style="fill:#006400;fill-opacity:.8"/><path d="m384.071 262.994-.223 1.808-.683 6.701-2.999 26.392 2.443.34 1.164.29 4.386 1.67 2 .562 1.182.197 1.479.103 2.027-.043 5.073-.237 2.484.181 2.47.574 5.085 1.384 3.193.464 1.007.022 1.727-.45 5.983-2.744 3.666-1.844 6.46-2.316 2.272-.741 4.385-2.48 1.066-.963 1.884-3.332 4.177-5.532.481-.469 1.817-1.127 2.634-1.142.84-.896 1.465-3.095 3.746-3.756 3.693-2.692 1.55-1.61.852-6.629-.256-5.881.668-1.107 1.224-.478 1.768.212 3.273.854 1.428-.14 3.273-1.628 5.018-1.027 3.228-2.518-.024-2.106-.575-1.362-1.431-1.596-2.727-2.373-3.273-1.171-2.357-4.732-.941-2.646-1.088-1.092-.007-.654-.233-1.498-2.209 1.361-4.166 2.746.067 1.713.093.417 2.796 3.268-1.095 2.54-1.297-.077-1.906-2.255-1.154-2.013-3.103 1.028-3.22.015-1.21-3.735-1.97-3.023-1.619-.222-2.11.762-.94 1.99-1.761-.919-2.191-1.524-.489-.69-1.125.644-.388 1.79 1.09 1.413-9.006 5.432-1.482-3.38-13.629 5.15-2.488-9.457-4.057-15.132-2.65-2.883-1.57-.435-3.538-.412-3.512-1.574-2.61.03 1.875 2.413 2.502.995-1.266 2.317-1.972-.122-.724 3.092-.278 2.818-5.44 2.452-2.662-1.497-2.267 1.263 2.29 2.725 1.509-.862-.192 2.522-1.408 1.32-2.106 1.289zM464.837 427.755l-.877-.56-2.043-.814-2.263-.861-1.967-.998-2.149-1.193-2.955-1.35-4.245-2.328-1.914-.695-1.657-.125-1.887-.3-1.312-1.176h-2.97l-.43 12.624-10.774-4.736-12.525 5.816-7.405 3.832-1.905 3.297-2.05 3.706-.451 2.003 2.588 1.386.664.707.641.593 3.21.087 3.785 1.387 2.881.115 4.177 1.352 7.187-1.467 1.54.206 5.648.83 2.469.57 2.97.322 2.753-.633 4.3.147 2.79-1.76 2.656-.575 3.193-.637 5.03-1.58 4.786.828 2.352.873 3.715.73 2.373.133 1.457-.188 1.1-.369-1.42-2.484-1.121-2.323-.338-2.25-.005-1.792-.311-1.29-.432-.82-.714-.692-1.128-.945-1.51-1.03-1.976-1.27-1.09-1.05-1.533-2.276z" clip-path="url(#pa1a22f8b12)" style="fill:#006400;fill-opacity:.8"/><path d="m670.362 201.47-20.896 11.262-16.161 7.834-1.003-.763-.185-1.58-.873-.649-1.105-1.729-.63-1.038-2.276-.55-1.446-4.097.893-1.706-1.316-1.476-1.681-.11-1.343-1.543-2.036-.89-2.168 2.016-21.462 20.502-12.624-9.775-8.8 9.789-1.242.358-1.42 6.305-.849 1.48-1.713.689-3.113-.484-1.369.416-1.832 2.444-2.551 1.333-.65.173-.677 5.688-1.279 1.631-2.601 2.677.086 1.58 1.965 3.5 8.113 2.766 1.506-1.016 2.252-2.022 5.115-1.292 3.102-.135 2.993-1.934 2.423-.2 2.358 2.636 1.418.77 1.206-.318 2.89-2.126 3.616-1.686 2.005-.127 2.7 1.017 4.03 3.839-.406-1.207.715-.318 1.654-1.116-.115-3.688-.841-1.788-.928-3.124.17-.97 2.278-1.485.835-3.779.659-3.921.403-.762 1.502-1.306 2.347-1.166 2.665-.016 3.588 1.445 1.246.368 4.479-1.31 1.651-2.45 1.848-1.239 1.194.165.834 1.232 3.12-2.732.429-.707.77-1.065 2.895.83 2.051-1.123 1.6-.172 3.647 1.507.509 1.842-.055 2.494.346 1.807 2.703 2.945 1.063 2.274.61 1.491-.63 3.985.119.766 4.33 1.99.616.012 1.302 2.188-1.255 2.943 6.621 3.935.578 1.83-.826.299-12.089 3.53-.457.695-1.838-3.909-3.413-1.561-2.342-3.108-1.617-1.2-3.974-1.43-6.175-.27-7.998.708-2.242 3.18-3.75 3.915-3.277.043-6.214-.391-1.333-.532-3.917-3.81-2.538-.958-1.678.107-3.414 1.592-2.946 2.167-1.66.438-1.804-.98-2.194-2.451-1.83.15-3.007 1.944-3.236.141-4.851 1.225-2.153 1.933-1.87 1.262-8.757-2.985-2.162-3.85-.108-1.982 2.77-2.85 1.147-1.464.626-5.25-5.358 1.426-5.8.05-5.3 1.136-3.041-.598-4.291.58-2.546-.173-3.353-1.882-4.74 5.895.554 1.29.763 1.315 1.372 1.953-25.3 38.646-8.056-4.132-8.884 3.884-.696.023-2.297-.968-1.213.072-54.848 22.545-2.557 1.54-4.339 1.7-9.924 3.944-1.262.26-1.036-.116-.713-.216.227-1.713.405-.806.971-2.78.437-.59 1.263-.777 2.46-.705.956-.23 1.1-5.759-.111-.422-1.51-.24-3.291-.48-5.118-1.393-2.395-.556-2.371-.172-5.035.235-2.075.044-1.555-.11-1.264-.208-2.076-.586-4.375-1.664-1.118-.28-2.308-.314-.54 3.054-12.969-2.487.67 9.288 3.883 49.663 1.693.664 2.967 1.389 1.536-1.381.597-1.253.992.659 1.2 1.806-.069 1.55-.916 1.435-2.438 1.156-1.855 3.287 1.78 1.654 2.153 3.72.936 1.386 1.927 1.883 2.113 2.258 1.267 1.703 1.639 1.214 1.366-.657.945-.374 2.874-1.225 2.546-.677 1.44-.838 2.758-2.233 2.606-1.966.57-.02 1.519.09 3.593-.095 2.853-.864 1.243-.54 1.666-.628 1.366-.03 3.02.287 5.904 3.828 1.216.82 2.4 2.365.563 1.278-.099 3.544.383 1.16 2.097 2.336.848 1.222-.591 2.608-.81 2.577 6.127-2.768-.795-5.791-.388-1.958-1.1-1.266.323-.634 1.165-.835 1.457-.864.778-1.67 2.266-.748 1.424-.432 1.49 1.008 2.817 3.685 1.943 5.268 1.424 3.57 1.619 2.735.615.346 1.748-.26 1.587-.187 2.12-.49 1.02-.388.793-.072 1.62.576.809.374 1.36.965 1.505 1.122 2.85 1.239 2.541 1.266 1.295.75.664.632 1.15.375 1.57.201.728.245 1.425 1.324.42.417h.519l.938-.23 2.736-.705 1.182-.1 2.007-.116.89-.03.179.16.081.834.016.763-.971.965-2.655 1.597-1.57 1.095-1.539.546-2.2.691-.406.245-.259.49.13.302.68-.158.793-.245.825-.188.55.015.584.302.323.648.227 1.18 1.247 3.023.016 1.195-.745 1.022-1.877.993-2.866 1.382-1.344.36-1.554-.23-1.343-.821-.972-.503-.729-.015-.776.417-.243.893-1.053 1.842-.55.69-.793.894-1.052.978-.664.39-.858-.059-.583-.143-.583-.13-.68-.015-.663.116-1.15.23-1.894-.374-2.363-.605-1.182-.676-1.927-1.137-1.133-.864-.55-1.007-.194-1.267-.146-.807-.016-.964.113-.705-.307-.13-.713.173-1.246.576-1.279.762-1.085.735-.696.633-.486.59-.712.49-.181.428.708.636 1.556.221 1.73.13 1.127.293 1.016.482 4.24 2.325 2.958 1.35 2.162 1.2 1.918.974 2.23.849 2.116.842 1.015.648 1.003 1.08 1.522 2.261.99.952 1.924 1.238 1.55 1.056 1.173.983.808.784.516.979.345 1.43.003 1.817.319 2.119 1.073 2.22 1.297 2.51 2.347 1.147 4.597 1.428 3.043 2.472.917 4.253 5.303 7.47.73 3.348 1.098 1.766.75.981 1.84.194 3.257-1.002 5.38-2.094 2.216-2.404 2.593-1.89.134-.272 2.055-2.29.469-.847 1.218.89 1.53.947.998.206.72-.174.788-.96 1.247-.661 1.336-.205 1.009-.344 1.088-.27 1.384.288.85.414.946.748 1.319.259 2.046.513 2.543.961 1.476.878 1.425 1.36.573.73 6.014 4.493 1.245.338.643.105.888-.267.497-1.202 3.14-3.016 3.721-2.595 1.984-.806 1.987-.416 1.917 1.568.864.362 1.384 1.202.457.558.455.712.248 1.047.34 1.026.222 1.177 1.091 1.403 4.14-3.045.802-.692 1.013-.514.943-.401.734.196.271.652.737-.163.663-1.018 1.459-1.98.732-.586 1.162-1.891.677-1.19.691-.327.805-.145.764.335.499.08.393.176 1.288-.384 1.122-.755 1.81-.785.725-.145 1.84-.277 1.262.079 1.471.668.788.175 1.356-.129.652-.005.811.038.674.835.16.558-.58.886-.457 1.005-.776 2.011-.42.64-1.826 2.165.233.722-.226 1.275-.323 1.374-.414 1.128 3.178 2.41 1.6 1.587-.228.33 1.516.792.218.627 2.983 1.19.697 1.393 1.755.471 1.524-.243 10.847-17.291 19.507-33.2 1.591-2.901 17.41-29.814-.303-.353-2.001-1.742-.666-2.303-1.57-1.938.036-3.503-2.791-1.688-2.511-1.179-.668-2.57-1.173-1.027-.82-1.505-2.362-1.874-1.416-1.916-.728-1.961-.976-1.674-1.184-1.937.152-1.307.522-2.146-.432-1.695.757-2.348.493-2.54.39-2.352 1.87-4.827 9.424 1.148 2.349.145 26.164-2.915 23.392-9.897.058.482 4.372 1.275 3.191-.834 3.82-1.06 3.25-.726 2.456-.27 2.603-.186 2.004-.202 1.646-1.642 1.105.25 2.51-.615 1.894-.098 4.415-5.586 1.673-2.62 1.79-2.213 1.816-.819 2.523.426 3.315 1.767 1.656.183 4.733-1 3.739.84 4.925.492 1.811-.205 1.978-.6 6.801-4.93 5.553-2.182 11.416-26.64 10.314-1.65.481 2.113 3.835-1.437 7.107-3.897 3.953-2.958 1.718-.818 4.562-1.1 3.049.029.786-.285.887-1.902.354-.344 1.285-.625 2.887.38.079-.18 4.742 1.346 2.87 1.87 1.239-.86 1.344-3.568-.889-3.462-4.235-1.041-2.73-5.645-28.537 6.353-3.432-5.715-2.408 1.82-3.056.193-3.163-2.076-4.771-1.786-2.878-1.387-4.39-2.173-3.56-2.794-2.975-.805-4.37 1.37-4.687 3.564-3.501 2.406-4.233 1.185-3.918 2.121-2.153 3.314-.534 3.68-3.864 4.744-1.545 1.714-3.803-.777-1.366-2.297-.483-2.915.74-2.497-.547-2.04-.818-2.748-.581-2.374-.694-1.685-2.802-1.073-2.254-1.343-.397-1.076-.237-1.677.893-3.011-1.676-4.641 1.582-3.05.265-2.994.095-2.474-.74-4.66 3.039-2.065 2.655-2.186-.99-1.808-.757-2.633-.685-2.171-1.09-2.172-1.108-1.217 1.131-1.13.378-1.048-.06-2.36.34-2.09-2.273-2.692-2.676-4.285-2.638-1.202-2.672-.982-2.797-1.93.175-1.819 2.754-1.37 2.192-1.928-2.581-3.215-2.53-.774-2.716-1.146-2.256-2.784-1.509-.748-.615-.23-.682-.02-.791.293-.923.749-.638.292-3.943.658-.914.224-1.644-.987-1.282-1.099-.272-1.464.19-1.338.475-2.14-11.851 6.246-3.09 1.239-8.583 3.533-2.848-2.005z" clip-path="url(#pa1a22f8b12)" style="fill:#006400;fill-opacity:.8"/><path d="m416.205 303.62 1.237.385 3.675 1.713 1.085.922h.42l4.598-1.858 36.044-13.655.192-.13-3.512-2.892-1.24-3.068-1.658-1.584-2.232-1.158-2.883-.787-2.417.079-1.256.5-1.514.94-.39.379-4.12 5.458-1.915 3.387-1.206 1.088-4.511 2.553-2.44.875-6.268 2.166-3.679 1.85z" clip-path="url(#pa1a22f8b12)" style="fill:#006400;fill-opacity:.8"/><path d="m497.15 250.101-8.246-1.01-5.685 1.072-3.625 2.827-5.094 1.043-3.305 1.644-1.661.187-3.425-.892-1.51-.182-.806.315-.454.752.251 5.752-.885 6.878-1.738 1.806-3.698 2.696-3.626 3.637-1.46 3.084-1.043 1.113 1.018.52 2.85.593 2.322 1.093 1.828 1.763 1.143 3.083 3.739 2.776 3.07-1.686 19.14-8.514 10.086-3.177-7.785-4.256 9.766-22.714zM576.298 462.993l-1.722 1.697-2.04 2.262-3.259.73-4.64 3.086-1.57-.755-4.162 6.834-2.656 1.228-.389-.946-1 .758-4.659.959-1.19.507-1.723.92-1.368 2.173-1.907 1.502-1.268.018-.446 1.589-1.252.16.279.586-1.132 1.16 8.438 7.701 3.136 3.87 5.18-.786 4.224-1.015 3.86-1.056 6.077-2.308 2.369.485-.796-10.68 12.948.638.385-3.232-9.25-17.59zM14.466 393.616l-8.635-7.292.022.095.125.356-.166.493-.307.527-.256.562-.54 1.122-.1.135-.452.447-.523.133-.045.026-.424-.056.764.424.413.453.663.751.107.247.098 3.785-.068.232-.034.008.05.2z" clip-path="url(#pa1a22f8b12)" style="fill:#006400;fill-opacity:.8"/><path d="m-145.426 274.454-4.777-.716-11.393 1.254-6.763 1.693-6.137 2.032 1.032 1.42-1.507-.235-.001 1.011 1.426 1.042-.556 2.068 1.04 2.145-.102 1.028 1.54 2.017-.825.194-1.123 1.734-1.054.419-.1.292 1.733.614-.46 2.093-1.337.075.89 1.51-1.294-.463-.852 1.208-.17 2.136-.332 2.362.775.757-3.172 2.265 1.617.853-1.116 2.383-.933 4.838-.629-.582-.58 2.813-.698.012.089 1.503 1.02.625-.574.676-1.584-.268-1.855 3.19-.191 2.213 1.577.816-1.328 4.005-.977.582-1.116 3.534-1.17 2.64 1.129 2.34-2.477 4.612-.987 4.57-.912.646.402 2.227-2.939 4.915-1.907 3.585.365 2.246-1.642 2.324-.149 1.253-1.596.347-1.641.755-.23 2.546.352 2.213-1.548.955.153 3.308-.021 2.749-.64 2.638.168 1.33 26.903 4.067.86 23.42 33.88-26.761 14.712 19.882 9.427 13.536 1.577-1.068 1.576-.058 3.701 1.094 1.79 1.027 8.963 8.284 10.026 3.018 3.86 1.77 2.028 1.02 6.118.07 3.24 1.21 1.938-.375-.745-2.891-2.183-7.865-13.23-5.336-.595-1.15-.595-1.374.342-2.184 3.61-2.392 1.602-6.193 3.169-2.813 1.367-.746 1.377-.563 1.05-.15 4.075 3.446 1.24-7.11.286-.834.583-.562 6.476-6.743 1.465-.619 13.098-6.123 5.342 10.914.391.154.303.09.195.54.431.714.977 1.028.906.654.862.378.524.039.233.03 1.036-.423 1.845-.812 1.827-.873 1.247-.21.93-.01 1.496.482 1.443.871 1.135.944.718 1.065.513.543.844-.029.547-.446.857-1.575 1.144-1.466.46-.442.376-.21 1.02-.66.375-.167.879-.268.438-.095-.004.005 1.911-.225.313-.109.394-.006.026-.027.345.027 3.44.001 1.693-.043h1.288l1.625-.597 1.885-.605.433-.217.93-.309.213.073.98.409.804.737.633.968.236.249.078.12.124.103.212.123 1.475.483 2.513.264.85.114.044-.026.524-.133.451-.447.1-.136.54-1.122.26-.571.304-.517.166-.493-.126-.356-.022-.095-7.096-5.94-10.641-14.514-18.333-19.16-3.5-3.364-83.89 48.867-3.944-5.471 45.436-20.917 31.82-32.64-3.191-3.865 3.132-18.443.005-.22-4.39-2.64-.17.733-5.582.79.692-4.177-13.433-8.327-4.3-2.364-6.026-4.398-3.277-2.683-3.003-1.334-2.071-.028-5.917-.793-1.722.362-9.322 4.158-3.3.77-.786 1.525-1.196 1.214-.698.516-1.418.292-1.439 1.072.207 1.375-.48 2.089.262.591.787.422-.04 2.987.71 1.525 1.53 2.096 1.087.455 1.58-.098-.168 1.376-3.014.926-1.667.689-.671 1.651 1.869 2.364-.551 2.512-1.525.775 1.428 1.24.138 1.49-.225 3.063-.982.476-2.536.667 2.101 1.217-1.989.509-.682.528-2.062 2.615-.096 4.249.645 2.031.285 1.335-1.833 2.783.503 1.325 1.335.709-.627 1.987-.09 1.793-.894.581-.61 2.075-2.134 3.109-21.273-9.804-15.237-9.076 3.993-4.346 6.18-3.83 6.32-2.894 2.32-3.303-3.35-13.379.174-1.844 2.297-2.6-1.996-2.995 1.924-6.775 25.443-5.062-2.747-2.324-2.863-2.069-4.437-2.386-3.137-1.577-1.885-.013-3.748.454-2.669-.159-2.153.305-3.213-.343z" clip-path="url(#pa1a22f8b12)" style="fill:#006400;fill-opacity:.8"/><path d="m-.21 389.713-.765-.234-.712-.289-.212-.123-.125-.103-.077-.12-.25-.248-.63-.955-.779-.72-.988-.411-.212-.073-.367.122-.54.161-.47.236-1.843.606-1.342.486-.324.107-2.024.012-.913.023-2.603.014-.84-.004-.354-.02-.026.027-.28-.015-.09.007-.353.123-1.915.214-.426.086-.859.276-.345.14-1.046.652-.39.217-.466.455-1.128 1.441-.852 1.59-.548.455-.876.019-.521-.548-.719-1.062-1.142-.934-1.424-.85-1.49-.475h-.907l-1.248.224-1.834.863-1.865.811-1.028.405-.782-.061-.853-.382-.915-.647-.992-1.038-.431-.706-.188-.552-.407-.128-.206-.03 8.98 18.717 39.066-11.103-.162-.573.034-.008.068-.232-.01-.443-.088-3.342-.107-.247-.663-.752-.711-.395-.53-.099.032-.195z" clip-path="url(#pa1a22f8b12)" style="fill:#006400;fill-opacity:.8"/></g><g id="PatchCollection_5"><path d="m243.677 332.944.007-.311.227.004.013-.543-.235-.005.008-.317-1.229-.025-.021.858.55.011-.007.314zM245.706 334.908l.008.767.753-.005-.007-.767zM237.992 338.097l.297.624-.93.351-.297-.623zM248.401 337.051l.01-.837-.816-.008.005-.444-.918-.01-.015 1.283zM250.858 335.56l-.191-.488.136-.042-.169-.434-.985.304.36.923zM315.608 349.828l.926-.122.086.517-.926.122zM310.65 299.841l.712-.734.717.55-.713.734zM415.767 304.811l-.029.554-.71-.028.028-.555zM416.074 305.3l1.229-.457.793 1.684-1.228.458zM322.206 336.29l.112.568-.87.136-.056-.285-.14.022-.022-.081.007-.084.037-.078.062-.062z" clip-path="url(#pa1a22f8b12)" style="fill:#a9a9a9;fill-opacity:.8"/></g><g id="PathCollection_2"><defs><path id="mbc7efe694f" d="M0 3a3 3 0 1 0 0-6 3 3 0 0 0 0 6z" style="stroke:#a9a9a9;stroke-opacity:.8"/></defs><g clip-path="url(#pa1a22f8b12)"><use xlink:href="#mbc7efe694f" x="313.609" y="354.166" style="fill:#a9a9a9;fill-opacity:.8;stroke:#a9a9a9;stroke-opacity:.8"/><use xlink:href="#mbc7efe694f" x="311.579" y="325.227" style="fill:#a9a9a9;fill-opacity:.8;stroke:#a9a9a9;stroke-opacity:.8"/><use xlink:href="#mbc7efe694f" x="288.781" y="370.265" style="fill:#a9a9a9;fill-opacity:.8;stroke:#a9a9a9;stroke-opacity:.8"/><use xlink:href="#mbc7efe694f" x="331.905" y="316.94" style="fill:#a9a9a9;fill-opacity:.8;stroke:#a9a9a9;stroke-opacity:.8"/><use xlink:href="#mbc7efe694f" x="359.721" y="298.568" style="fill:#a9a9a9;fill-opacity:.8;stroke:#a9a9a9;stroke-opacity:.8"/><use xlink:href="#mbc7efe694f" x="355.58" y="301.216" style="fill:#a9a9a9;fill-opacity:.8;stroke:#a9a9a9;stroke-opacity:.8"/></g></g></g></g><defs><clipPath id="pa1a22f8b12"><path d="M117.246 86.4h503.507v554.4H117.246z"/></clipPath></defs></svg>