<svg xmlns="http://www.w3.org/2000/svg" width="960" height="960" viewBox="0 0 720 720"><defs><style>*{stroke-linejoin:round;stroke-linecap:butt}</style></defs><g id="figure_1"><path id="patch_1" d="M0 720h720V0H0z" style="fill:#fff"/><g id="axes_1"><path id="patch_2" d="M90 620.795h558v-514.39H90z" style="fill:#fff"/><g id="LineCollection_1"><path d="m352.703 405.918.829.374M348.297 415.5l.822-2.283 1.261-2.569 2.323-4.73M353.659 404.135l-.305.56-.65 1.223M334.174 439.506l.043-.638M334.174 439.506l4.608.455M333.39 448.087l.162-3.657.35-2.586.272-2.338M338.782 439.96l-.395 4.55M338.782 439.96l.42-4.112M338.782 439.96l2.272.225M345.3 440.574l-4.246-.389M345.3 440.574l.428-4.037M349.988 436.81l-.422 3.669-.063.253-.2.17-.24.074-3.763-.402M337.574 452.688l-.418 2.866-.366 2.738-.656 7.077-.571 5.927-.57 6.03" clip-path="url(#p4d2832ef4a)" style="fill:none;stroke:#000"/><path d="m325.807 460.895 6.816 2.236.776.29.8.442.162.383.035.671-.052 3.581-.016 3.479.05 3.223.069.901.136.528.41.697M328.293 528.7l1.152-2.174.656-1.684.52-2.016.332-1.956 1.44-15.189.145-1.803 1.023-11.55 1.431-15.002M328.293 528.7l-.1.19-5.829 9.678-2.57 3.204-2.647 2.404-7.065 5.706-1.906 1.955-1.138 1.849-.9 2.007-16.867 44.036-1.006 3.354-.264 3.25.688 4.57M298.916 430.099l-.306-.132M298.916 430.099l.354.43.195.127.26.12.35.055h1.201l1.568-.01 3.336-.012 5.09-.361M311.233 428.822l-10.093 1.175-2.224.102M311.27 430.448l-.037-1.626M311.27 430.448l6.783-.434 8.078-.506M326.13 429.508l-.732-2.288M327.882 431.447l-.507-.251-.366-.382-.465-.588-.413-.718M325.398 427.22l.205-.008M325.398 427.22l-2.675.276-2.655.34M298.396 432.871l-3.24-.56M298.396 432.871l.214-2.904M292.295 446.25l-.281-.876-.093-.817-.01-1.31.043-.493.222-.51 1.32-2.101 2.216-3.045 1.517-1.904.485-.698.205-.536.477-1.089M316.588 435.687l-4.72-.817-4.993-.97-4.45-.534-4.029-.495M288.879 432.183l-.4 2.695-.273 1.039-.708 2.083-.579 1.326-.708 1.591-.161.596-.069.476-.06 1.25M283 444.251l.843-.23.954-.314 1.125-.468M292.295 446.25l-2.087.05-.477-.017-.443-.118-.265-.256-.834-1.114-.691-.612-1.576-.944M288.879 432.183l-1.355-.103M288.879 432.183l-.767-1.684M295.156 432.31l-2.885-.054-3.392-.073M300.484 450.493l.045-1.822M308.578 443.851l1.619-.272 2.522-.51 2.948-.443 3.841-.212M317.942 435.202l.648 3.393.918 3.819M319.248 449.583l.285-3.711-.025-3.458M309.217 438.978l1.569-.568M308.578 443.851l-.213-1.122-.025-.655.093-.962.102-.569.29-.748.392-.817" clip-path="url(#p4d2832ef4a)" style="fill:none;stroke:#000"/><path d="m302.01 442.074.638-.34.903-.409 1.551-.586 1.159-.554 1.636-.816 1.32-.39M319.248 449.583l.078 2.922M327.281 447.56l-1.419.165-.822.234-.563.353-.66.515-1.146.57-1.184.382-.605.068-1.006-.034-.628-.23M308.027 447.94l.91.119 1.703.291 3.69.783 2.488.306 2.43.144M317.942 435.202l-1.354.485M324.997 432.82l-1.35.498-5.705 1.884M327.281 447.56l6.109.527M326.991 439.14l.264.782.162 1.259-.025 2.398-.11 3.98M326.991 439.14l-.809-2.739-1.185-3.58M327.882 431.447l-1.662.808-1.223.566M337.966 448.401l.421-3.891M337.966 448.401l-4.576-.314M337.966 448.401l-.392 4.287M337.966 448.401l2.198.153M337.574 452.688l.153.025M337.574 452.688l-.563-.068M329.532 451.903l3.637.385M332.922 456.353l.247-4.065M332.922 456.353l-1.028 1.578M337.011 452.62l-.658 3.314-.09.422-.084.15-.203.064-3.054-.217M333.39 448.087l-.119 2.466-.102 1.735M337.011 452.62l-1.985-.149-1.857-.183M334.72 433.51l-.214 1.832M334.72 433.51l-1.517-1.03M337.233 435.513l-.967-.826-.741-.582-.806-.596M339.491 457.093l-2.02-.314M372.058 476.025l-.374-.168-.226-.153-.347-.255-.435-.36-.364-.176-.432-.147-.248-.07-.274.002-.562-.038-.58-.109-.392-.163-.437-.237-.349-.26-.324-.358-.277-.413-.307-.88-.268-1.786-.439-1.165-.481-.795-.588-.6-.605-.314-.937-.239-.946-.153-1.534-.578-1.806-.867-3.306-2.348-4.904-3.274-1.563-1.259-.273-.212-4.303-.834-4.686-.723" clip-path="url(#p4d2832ef4a)" style="fill:none;stroke:#000"/><path d="m339.896 452.934-.167 2.203-.238 1.956M338.264 460.674l.456-.902.469-1.458.302-1.22M341.054 440.185l-.49 4.678M341.054 440.185l.422-4.115M348.027 382.172l-8.996-.882M348.027 382.172l5.48 2.005M348.027 382.172l.47-4.258M347.19 388.801l.438-3.862.399-2.767M353.532 406.292l-1.209 9.86M358.304 402.144l-1.691 1.713-1.956 1.893-1.125.542M357.827 437.864l8.215-.224M357.827 437.864l.517-5.12M349.988 436.81l3.323.288 4.516.766M349.988 436.81l.486-4.053M345.728 436.537l1.807.138 2.453.134M345.728 436.537l.505-4.187M345.728 436.537l-4.252-.467M341.476 436.07l.46-4.236M341.476 436.07l-2.275-.222M339.201 435.848l-1.968-.335M339.5 431.57l-.196 2.365-.103 1.913M333.475 430.915l.563-4.592M333.475 430.915l-.272 1.566M339.5 431.57l-3.349-.374-2.676-.28M341.937 431.834l-2.438-.264M341.937 431.834l.468-3.93M346.233 432.35l-2.269-.252-2.027-.264M346.233 432.35l.424-4.122M346.233 432.35l4.241.407M350.474 432.757l.464-4.314M327.882 431.447l.647.132 1.675.204 1.299.153.81.23.89.315M338.435 387.099l-4.107-.894M338.435 387.099l8.755 1.702M338.435 387.099l.596-5.81M336.577 402.832l.758-6.897 1.1-8.836M350.938 428.443l.426-4.106M346.657 428.228l2.5.153 1.781.062M346.657 428.228l.52-4.278M346.657 428.228l-4.252-.323M342.405 427.905l.606-4.372M334.515 423.015l-.477 3.308M334.515 423.015l8.496.518M335.76 409.747l-.504 6.183-.74 7.085M343.011 423.533l.527-4.252M343.011 423.533l4.165.417M347.762 419.834l-.364 2.644-.222 1.472M351.364 424.337l-2.138-.166-2.05-.221M351.364 424.337l.473-3.946M351.364 424.337l7.603.818M351.837 420.39l.486-4.239M351.837 420.39l-4.075-.556M348.297 415.5l-.311 2.241-.224 2.093M343.538 419.28l2.181.273 2.043.281M343.538 419.28l.52-4.405M348.297 415.5l2.215.477 1.811.174M348.297 415.5l-4.239-.625M345.37 403.53l-.503 4.456-.045.32-.4 2.985-.364 3.584M336.577 402.832l-.818 6.915M336.577 402.832l8.793.698M345.37 403.53l3.565.257M347.19 388.801l-.61 4.787-1.21 9.942M353.659 404.135l-4.724-.348M360.307 392.244l-1.764 2.892-2.318 4.065-2.566 4.934M360.307 392.244l1.943-3.206M351.99 390.007l5.155 1.276 3.162.96M347.19 388.801l4.8 1.206M305.12 379.452l1.54.381M305.12 379.452l-.867.035M298.17 387.516l3.022-.551 1.223-.694.792-.647.551-1.675.696-3.854.665-.643M365.12 384.81l-1.268 1.89-1.602 2.338M353.507 384.177l4.15 2.08 4.593 2.78M351.99 390.007l-.758 3.47-2.297 10.31M351.99 390.007l1.517-5.83M353.507 384.177l1.372-3.874M354.88 380.303l-6.383-2.39M354.88 380.303l1.567-5.051M365.12 384.81l-5.52-2.568-4.72-1.939M367.31 381.026l-2.19 3.785M373.215 370.659l-4.49 8.003-1.414 2.364M376.01 385.623l-1.295-1.025-3.067-1.641-1.781-.834-2.556-1.097M356.447 375.252l6.237 3.35 4.627 2.424M376.01 385.623l-4.359 3.341M376.01 385.623l4.022-2.626M376.01 385.623l3.486 3.41M316.145 368.447l3.033.63M316.145 368.447l-.388 2.032M318.743 356.099l-.639 2.21-.664 2.637-.512 3.385-.783 4.116M365.12 384.81l6.531 4.154M371.651 388.964l-4.28 3.841M371.651 388.964l3.141 3.722M373.215 370.659l2.812 1.497M378.473 359.577l-1.647 3.91-3.61 7.172M385.06 338.635l-.528 2.198M385.06 338.635l1.226-2.957M406.93 358.712l-5.98-6.586-5.632-5.502-3.187-3.147-1.329-1.276-.732-.57-1.943-1.326-3.068-1.67M403.132 361.72l.566-.719.78-.85 1.04-.664 1.412-.775M594.93 269.305l-.72 1.531-.728 1.335-.486.477-.882.714-.912.587-1.516.71-1.47.477-1.585.522-1.137.6-3.2 2.164-1.389.987-2.262 1.335-.473.379-2.871 2.955-2.531 2.968-2.053 2.174-2.689 3.406-.754.914-1.81 1.57-.66.475-.857.58-.895.432-.911.196-2.638.047-1.465.008-.886-.025-1.389-.404-1.772-.57-2.028-.365-3.69-.68-1.593-.264-.937-.086-1.12.14-.832.277-1.077.54-2.953 2.16-1.133 1.213-1.512 1.7-1.372 1.183-1.304.646-2.543.91-5.807 2.343-1.61.566-1.495.42-1.198.17-1.227.103-1.218-.077-1.283-.263-1.444-.468-2.833-1.195-.75-.247-.635-.102-.77.077-1.138.357-1.27.515-1.397.74-1.576 1.058-2.714 2.114-2.075 1.777-3.025 2.365-3.123 2.798-3.808 3.291-3.307 2.769-1.363 1.28-1.772 1.216-2.27.965-2.787.987-2.092.867-.869.205-1.18.136-2.735.19-1.96.21-2.978.284-3.565.719-3.469.45-.754.132-.617.213-.852.49-1.939 1.5-1.887 1.663-2.62 2.44-1.807 1.8-.907.667-1.21.612-2.023.66-1.995.408-1.61.442-.554.175-.805.34-2.94 1.726-8.294 5.728-3.464 2.02-2.475.71-3.43.34-3.438.4-.97.115-.977.225-1.044.417-.554.273-.566.395-2.547 2.385-1.896 1.774-.367.204-1.68.615M398.42 368.699l-.58.83M398.42 368.699l3.236 2.058M400.67 365.235l-.672 1.047-1.579 2.417M363.74 396.105l-3.82 4.247-1.616 1.792M371.665 405.494l-6.067-1.658-7.294-1.692M373.957 411.686l.826-1.794M369.742 409.335l1.923-3.84M371.665 405.494l.991-1.935M374.783 409.892l.972-2.629-.035-.263-.298-.195-1.695-.58-2.062-.73M372.656 403.559l1.028-1.645M367.14 398.86l2.693 2.408 2.823 2.29M367.37 392.805l-1.576 1.361-2.054 1.94" clip-path="url(#p4d2832ef4a)" style="fill:none;stroke:#000"/><path d="m367.14 398.86-1.61-1.377-1.79-1.378M367.14 398.86l2.897-2.27M382.784 386.401l-3.288 2.632M382.784 386.401l-2.752-3.404M382.784 386.401l1.968 2.254M384.752 388.655l-2.814 2.793M384.752 388.655l2.602 2.64M377.997 395.403l-2.068 2.637M377.997 395.403l2.112 1.74M381.938 391.448l-1.965 1.825-1.976 2.13M374.792 392.686l1.81 1.493 1.395 1.224M380.032 382.997l3.697-2.254M391.599 401.23l.204 1.33.103.97-.115 1.267M389.166 394.694l-2.377 1.54M390.218 396.382l-.532-.838-.52-.85" clip-path="url(#p4d2832ef4a)" style="fill:none;stroke:#000"/><path d="m389.869 394.111-.264.29-.439.293M388.842 402.16l2.757-.93M388.842 402.16l.221 1.28M386.789 396.233l.793 1.318.51 1.684.75 2.926M390.218 396.382l.184.276.383.723.299 1.02.225 1.076.29 1.752M386.789 396.233l-1.932-2.005M381.938 391.448l-2.442-2.415M381.938 391.448l2.919 2.78M374.792 392.686l2.607-2.118 2.097-1.535M381.452 398.14l-1.343-.997M374.792 392.686l-2.77 2.28M378.584 399.941l1.61.85 1.168.579M378.584 399.941l-1.382 3.593M378.584 399.941l-2.655-1.901M380.109 397.143l-.877 1.524-.648 1.274M373.684 401.914l-3.647-5.324M375.93 398.04l-1.147 1.926-1.099 1.948M370.037 396.59l1.986-1.624M367.37 392.805l1.705 2.322.962 1.463M318.743 356.099l2.45 1.14M297.016 348.826l4.217.392 3.792.57 1.58.34 1.7.434 2.326.952 2.03 1.105 2.776 1.66 1.764 1.029 1.542.79M323.233 358.19l4.448 2.433M323.233 358.19l-2.04-.95M323.233 358.19l-2.242 6.21M319.178 369.077l4.703 1.395M319.178 369.077l1.813-4.677M319.178 369.077l-1.108 3.997M327.681 360.623l4.278 2.11M325.594 365.48l.98-2.22 1.107-2.637M324.512 379.223l-4.056-.519M324.512 379.223l3.067-7.357M330.885 380.15l-3.783-.604-2.59-.323M331.959 362.732l1.977 1.123M327.58 371.866l2.521-5.256 1.858-3.878M333.936 363.855l2.726 1.344M331.6 373.176l1.552-6.838.784-2.483M331.6 373.176l4.108 1.055M331.6 373.176l-4.02-1.31M331.6 373.176l-.715 6.974M327.58 371.866l-3.699-1.394M330.519 385.372l-10.319-2.075M330.519 385.372l3.809.833M330.885 380.15l-.238 2.722-.128 2.5M330.885 380.15l4.056.663M334.328 386.205l.613-5.392M334.94 380.813l4.09.477M335.708 374.23l-.41 3.845-.357 2.738M335.708 374.23l3.97.92M335.708 374.23l.954-9.031M336.662 365.199l3.327 1.59M339.03 381.29l.649-6.14M339.679 375.15l.988-8.03M348.497 377.914l-4.405-1.489-4.413-1.276M340.667 367.12l-.678-.331M349.273 371.458l-4.158-2.007-4.448-2.33M348.497 377.914l.776-6.456M356.447 375.252l-3.17-1.736-4.004-2.058M361.878 359.303l-2.5 7.732-2.93 8.217M325.603 427.212l4.302-.387 4.133-.502M334.506 435.342l1.53.094 1.197.077M394.906 373.035l1.443-1.628 1.49-1.878M394.355 367.504l1.858.97 1.626 1.055M378.473 359.577l4.065 1.926M381.802 351.592l-.44 1.13-1.943 4.38-.946 2.475M398.888 356.66l-.912 2.79M400.67 365.235l2.462-3.515M400.67 365.235l-4.202-2.247M400.67 365.235l3.453 1.884M396.468 362.988l-2.113 4.516M397.976 359.45l-.685 1.628-.823 1.91M394.072 361.704l1.033.599 1.363.685M387.163 358.19l-2.554-.943M387.163 358.19l3.137 1.634M387.163 358.19l-1.816 4.667M388.425 354.823l-.605 1.675-.657 1.693M384.609 357.247l1.478-3.147M382.538 361.503l.903-1.836 1.168-2.42M381.107 365.866l1.431-4.363M382.538 361.503l2.809 1.354M387.088 351.485l-1.001 2.615M388.425 354.823l-1.432-.477-.906-.246M403.132 361.72l-5.156-2.27M397.976 359.45l-2.169-1.3M389.848 350.902l-1.423 3.92M388.425 354.823l3.263 1.267M385.347 362.857l3.3 1.72M386.755 369l-2.593-1.824-.166-.149-.143-.138-.055-.196.032-.223.151-.476 1.366-3.137M393.174 352.377l-1.486 3.713M391.688 356.09l-1.388 3.734M395.807 358.15l-2.42-1.259-1.699-.801M390.3 359.824l3.772 1.88M390.3 359.824l-1.654 4.754M388.646 364.578l3.472 1.805M386.755 369l.92-2.058.971-2.364M386.755 369l1.95 2.248M389.446 372.22l1.002-2.19M389.446 372.22l2.523 3.346M389.446 372.22l-.742-.972M392.118 366.383l2.237 1.12M392.118 366.383l1.954-4.68M392.118 366.383l-1.67 3.647M394.072 361.704l1.735-3.555M395.807 358.15l1.417-2.959M391.97 375.566l-5.037 3.223M394.657 373.316l-1.2 1.085-1.488 1.165M400.256 375.574l2.778.303M399.476 378.857l.362-1.611.418-1.672M397.384 374.499l1.338.625.57.238.964.212M394.657 373.316l.25-.28M394.657 373.316l.354.209M408.004 379.812l-2.461-.19M408.118 383.019l-2.797-.292M405.32 382.727l-3.117-.45M405.32 382.727l-.254 2.594M405.543 379.623l-.103 1.607-.12 1.497M405.066 385.321l-3.128-1.378M405.066 385.321l2.718.893M405.543 379.623l-2.923-.324M405.543 379.623l.324-3.504M405.867 376.119l2.356.161M403.034 375.877l1.559.14 1.274.102M401.938 383.943l.265-1.666M401.938 383.943l-2.948-1.76M402.62 379.3l-3.144-.443M402.62 379.3l.414-3.423M402.203 382.277l.155-1.11.262-1.868M398.99 382.182l.486-3.325M393.478 386.172l2.88-2.127 1.329-.884.741-.553.562-.426" clip-path="url(#p4d2832ef4a)" style="fill:none;stroke:#000"/><path d="m396.119 377.581.98.528 1.022.4 1.355.348M395.011 373.525l-.614 2.007-.072.591.116.425.225.234.524.336.929.463M397.384 374.499l-.524 1.339-.741 1.743M397.384 374.499l-2.373-.974M334.217 438.868l-1.675-.213-.984-.175-.852-.097-.737.03-.8.152-.763.188-1.415.387M334.217 438.868l.29-3.526M355.696 471.086l-1.138-.717-.525-.355-.225-.344-.38-.413-.837-.364-1.248-.43-1.116-.475-1.704-.816-.677-.306-.66-.069-.99-.366-2.672-1.942-1.676-1.145-2.186-1.609-1.398-1.061M337.471 456.779l-.247 1.683-.055.515.124.572.255.36.716.765M369.727 480.783l1.256.817.935.423.424.249.399.26.43.335 1.035.693.667.338 1.314.88.558.3.399.128.355.057.292.05.743.27.362.129.296.053.25.055.37.143.306.09.268.075.375.185.845.287.507.228.688.213.603.101.281.088.628.278.507.251.299.187.283.107.194.033.358.139.285.079 1.182.061 1.016.026 1.258.119 1.384-.039.635-.025.699-.166 1.073-.098M372.058 476.025l.137.062.384.255.387.325.47.427.665.443 1.145.586 1.14.515.242.055.334.088.328.11.335.043.416.004.274.008.255.05.215.083.319.16 1.316.8.677.438 1.095.825 1.483 1.02.945.592.776.544.784.578.515.324.44.203.595.226.48.123.415.13.31.117.542.227.488.213.741.414.984.617.399.279.997.916.4.357M404.04 497.495l-1.299-.423-1.014-.287-.691-.226-.435-.183-.243-.14-.385-.372-.375-.495-.493-.568-.396-.444-.428-.613-.226-.314-.337-.561-.466-.885-.637-.78-.737-.779-1.046-1.02-1.346-1.223M337.727 452.713l2.169.221M337.471 456.779l.128-2.016.128-2.05M304.463 445.158l1.337-.541 2.778-.766M310.786 438.41l1.507-.546 1.653-.749 2.642-1.428M288.112 430.499l1.436.291 2.815.78 2.793.74M288.112 430.499l1.04-3.734M278.04 429.503l1.287.068 4.039.384 2.462.22 2.284.324M278.281 427.08l3.223-.213.43-.06.49-.093 2.25-.416.528-.026.647.008 2.11.247 1.192.238M294.647 428.458l-1.747-.626-2.126-.658-1.623-.409M311.233 428.822l8.835-.985M302.01 442.074l-.836.552-.716.655-1.15 1.438M358.967 425.155l.247-1.68M377.945 428.202l-6.467-1.377-7.499-1.395-1.49-.153-3.522-.122M358.344 432.744l.233-2.84.39-4.75M375.505 431.542l-1.742-.34-5.472.037-2.957.153-1.67.127-2.07.221-3.25 1.004M378.822 426.782l-.877 1.42M389.537 429.19l-6.795-.409-4.797-.579" clip-path="url(#p4d2832ef4a)" style="fill:none;stroke:#000"/><path d="m375.505 431.542 1.358-1.783 1.082-1.557M320.068 427.837l-.387-4.967M319.68 422.87l-.69.025M320.407 419.239l.177 2.5-.077.4-.12.246-.208.234-.498.25M317.405 412.511l.359 3.708M317.405 412.511l-7.75.431M317.405 412.511l2.514-.178M312.66 405.52l3.386-.127.452.016.247.056.166.144.047.272.184 1.952.263 4.678M319.92 412.333l.242 3.432M319.92 412.333l6.906-.363M327.39 418.893l.104 1.621.085 1.489-.064.144-.128.09-.225.055-.614.089-.396.212-.605.375-.158.174-.059.255-.013.409.174 2.092.112 1.314M326.826 411.97l.306 3.33M335.76 409.747l-1.641-.038-3.63.017-2.905.234-.486.174-.222.157-.128.302-.03.37.108 1.007M327.132 415.3l-6.97.465M327.132 415.3l.257 3.593M320.162 415.765l.245 3.474M320.407 419.239l3.696-.196 3.286-.15M318.01 419.791l.529 1.625.452 1.48" clip-path="url(#p4d2832ef4a)" style="fill:none;stroke:#000"/><path d="m307.084 423.762.89-.039 1.074-.104 9.943-.724M307.445 420.165l-9.1.332M307.445 420.165l1.38-.05M307.084 423.762l.091-.775.27-2.822M318.01 419.791l-9.185.323M317.764 416.22l.085 1.164.161 2.407M317.764 416.22l-7.724.085M294.647 428.458l1.133-4.542M298.61 429.967l-2.259-.914-1.704-.595M293.55 422.22l-.04.9.09.222.246.17.618.166.673.149.643.09M298.345 420.497l-.094 2.662-.076.366-.175.187-.239.102-.285.068-1.696.034M293.703 418.733l4.64.216M293.703 418.733l.152-3.429M293.703 418.733l-.153 3.486M379.172 412.451l-1.347-.671-1.107-.706-1.935-1.182M372.023 394.966l.805.778 1.06.897 1.1.85.941.549M314.44 377.395l6.016 1.309M314.44 377.395l-.528 4.252M314.44 377.395l1.317-6.916M306.363 376.238l.716-.204 2.198.255 5.164 1.106M313.912 381.647l-7.252-1.814M313.912 381.647l6.288 1.65M320.456 378.704l-.256 4.593M389.869 394.111l-.004-.123-.081-.209-.136-.217-2.294-2.266" clip-path="url(#p4d2832ef4a)" style="fill:none;stroke:#000"/><path d="m384.857 394.228 1.5-1.642.997-1.29M325.594 365.48l-2.411-.452-2.192-.628" clip-path="url(#p4d2832ef4a)" style="fill:none;stroke:#000"/><path d="m323.881 370.472.86-2.646.853-2.347M339.896 452.934l.268-4.38M350.363 450.486l-1.17.718-1.331 1.167-.961 1.274-4.104-.337-2.901-.374M359.11 186.976l-1.202-2.827M362.678 194.94l-.948-1.746-2.62-6.218M365.512 184.29l-3.716 1.48-2.686 1.206M389.047 329.767l-2.76 5.911M389.047 329.767l2.707-5.343M389.047 329.767l-15.92-5.242M386.286 335.678l-15.37-5.221M371.421 206.349l5.615-3.245M380.147 236.207l-.494-.952-1.053-1.9-.647-1.26-1.005-1.956-2.275-4.457-1.091-2.364-.153-.884-.035-.843.12-1.028.034-.868.17-.714.205-.69.247-.654.613-1.097.384-.8.102-.501.017-.545-.179-.748-.324-.749-.247-.484-.315-.596-.877-1.812-1.923-3.956M367.464 201.137l1.261 1.259.256.34.494.638.46.63.46.773 1.026 1.572M382.08 200.522l-5.044 2.582M382.08 200.522l-7.504-13.174M429.827 247.923l-.056-.14.017-.2.384-1.242.072-.272.03-.263.03-.264.02-.297.065-.74.055-.724-.017-.633-.064-.362-.102-.39-.588-1.506-.12-.43-.05-.37-.026-.586.026-.622.068-.467.124-.779.162-.671.042-.34-.004-.303-.06-.63-.145-.773-.511-2.832-.017-.523.008-.315.051-.446.094-.315.303-.783.145-.378.064-.293.033-.315.035-.32.063-.208.116-.22.149-.196.179-.2.242-.255.307-.408.209-.404.132-.286.09-.319.08-.42.005-.404-.018-.417-.097-.506-.29-.944-.102-.485-.021-.28-.005-.404.017-.307.056-.514.272-1.331.107-.638.063-.528.303-3.742.154-1.811.954-6.617.025-.451-.008-.35-.043-.39-.162-.579-1.55-3.52-.358-.613-.503-.63-.358-.535-.23-.493-.17-.468-.145-.579-.034-.34.021-.565.055-.455.23-1.132v-.544l-.102-.221-.247-.23-.485-.366-4.206-2.62-.566-.284-.562-.26-.593-.242-.443-.19-.728-.341-.938-.485-6.5-4.176-.691-.239-.494-.11-.511-.076-2.437.22-4.627 1.055-.452.179-.408.272-.299.298-.307.391-.442.85-.682 1.523-.597 1.02-.255.299-.324.306-.426.17-.52.153-.784.127-.604.213-.478.28-.451.281-1.879 1.463-.273.383-.273.404-.161.221-.128.136-.196.221-.2.175-.324.22-.333.162-.464.191-.66.166-3.34 1.038-2 .587-1.008.374-1.116.247-1.296.468-.62.246-2.12 1.112M362.678 194.94l6.805-4.384M362.678 194.94l1.103 2.11M365.512 184.29l-1.523-2.9M369.483 190.556l-1.316-2.054-2.655-4.213M369.483 190.556l5.093-3.208M373.957 197.607l-1.705-2.765-2.769-4.286M377.036 203.104l-3.08-5.497M373.957 197.607l-1.883.749-.818.374-.784.442-.698.383-.53.383-.945.603-.835.596M363.781 197.05l.517.683.798.833 2.368 2.57M379.161 183.991l-2.273 1.958-2.312 1.399M277.845 431.307l5.98.442 3.699.331" clip-path="url(#p4d2832ef4a)" style="fill:none;stroke:#000"/><path d="m283.46 437.056 1.457.017.596-.068.4-.213.24-.26.242-.522 1.129-3.93M278.432 443.673l.787-3.172M283 444.251l-1.168.272-.597.102-.536-.034-1.023-.433-1.244-.485M275.39 441.81l.823.698.647.523.682.378.89.264M275.39 441.81l-1.227-.255-1.499-.127-1.236-.052M279.319 440.101l-.1.4M283.46 437.056l-2.573-.127-.418.068-.248.28-.144.349-.758 2.475M275.39 441.81l.58-2.16.136-.256.232-.216.247-.094.31.034 2.424.983" clip-path="url(#p4d2832ef4a)" style="fill:none;stroke:#000"/><path d="m281.879 441.402.107-.502.298-.842 1.176-3.002M281.879 441.402l-.017.51.038.825.094.553.196.408.358.315.451.238M262.139 424.65l-2.716-.496-4.814-.519-1.551-.136-1.022.094-1.551.306-.614.187-.507.196-1.312.625-.745.259-2.693.77-.316.132-.357.204-2.429 1.88-.792.714-1.022.986-.597.468-1.934 1.31M223.687 443.056l1.014-1.82.712-1.263.192-.34.362-.493.66-.698 1.146-1.02 1.709-1.616.383-.323.357-.234.507-.256 2.736-1.16.579-.285 1.206-.787 1.917-1.131M257.082 430.792l-.445.217-2.352 1.225-1.73.697-2.402.74-5.023 1.646-.465.093-.405-.03-.404-.085-.34-.187-.333-.289-.52-.578-.614-.8-.528-1.063-.115-.344-.209-.196-.272-.06-.972-.03-.183-.046-.162-.106-.18-.108-.146-.022-2.115.164M265.933 430.422l11.912.885M258.345 430.298l.098-.029.75-.05 4.056.178 2.684.025" clip-path="url(#p4d2832ef4a)" style="fill:none;stroke:#000"/><path d="m272.093 429.472-3.045.097-.83.089-.98.237-1.305.527M278.04 429.503l-.195 1.804M272.093 429.472l.886-.028 2.463.06h2.598M278.281 427.08l-.05 1.178-.19 1.245M293.55 422.22l-3.764-.207M294.268 405.928l-.413 9.376M289.786 422.013l.544-6.864M286.595 415.003l-.384 4.04-.16 2.126-.012.368.021.134.07.093.146.062.338.04 3.172.147M291.09 405.403l-.76 9.746M286.92 404.457l-.325 10.546M286.595 415.003l3.735.146M290.33 415.149l3.525.155M298.336 410.657l.008 8.292M338.387 444.51l2.177.353M340.564 444.863l-.4 3.691M309.387 415.318l-.465 3.526-.097 1.27M298.345 420.497l-.001-1.548M386.933 378.79l-3.204 1.953M386.933 378.79l5.09 5.652M388.704 371.248l-1.823 2.109-2.08 2.597-.063.31.128.322 2.067 2.203M410.297 396.93l3.834 1.778 1.747.723.86.28.947.187 2.88.12M395.36 388.153l-1.882-1.981M406.796 395.535l-2.957-1.522-2.54-1.378-1.124-.893-1.713-1.156-2.02-1.379-1.081-1.054" clip-path="url(#p4d2832ef4a)" style="fill:none;stroke:#000"/><path d="m393.367 392.601-.771-.684-.64-.796-.11-.335.038-.29.239-.221 3.238-2.122" clip-path="url(#p4d2832ef4a)" style="fill:none;stroke:#000"/><path d="m408.022 391.563-4.48-2.517-.802-.48-1.652-1.404-1.484-1.471-.247-.162-.213.021-.179.082-.247.187-3.357 2.334M393.367 392.601l1.721 1.285 2.948 2.278 2.616 2.348M411.46 393.36l9.36 1.963M411.46 393.36l-3.438-1.797M411.46 393.36l-1.163 3.57M392.353 394.293l.115-.595.426-.603.473-.494M396.86 401.719l-2.091-3.56-1.858-2.645-.439-.65-.119-.57M390.922 395.149l.798-.526.633-.33M408.022 391.563l-1.226 3.972M406.796 395.535l-1.027 3.302M410.297 396.93l-1.593-.553-.963-.434-.945-.408M410.297 396.93l-1.052 4.526M393.478 386.172l-1.455-1.73M396.488 381.176l-1.662 1.284-2.803 1.982M357.721 183.678l.187.47M598.083 280.209l.383 2.713.068 1.556-.17.612-1.107 1.905-2.66 3.377M594.93 269.305l1.219 3.682 1.235 4.185.699 3.037M603.255 281.68l-.92.034-1.261.017-.92-.077-.683-.264-.502-.297-.426-.4-.46-.484M637.27 162.268l-.853 1.361-1.38 1.871-1.023 1.437-1.141 1.472-1.713 1.88-.35.467-.28.545-.248.476-.298.69-.554 1.632-.664 1.667-.477 1.14-.742 1.445-2.053 3.53-.495.817-.724 1.19-3.74 6.03-.64 1.123-1.55 3.062-.801 1.65-.946 1.99-1.423 3.436-.35 1.038-.425 1.327-.434 1.055-.717 1.335-.52.867-.758 1.131-1.465 1.982-1.628 2.008-3.612 3.333-.571.426-.826.859-.725.918-.503.833-.545.962-.64 1.208-.502 1.071-1.167 2.45-.316.808-.22.824-.12.8-.247 2.033-.375 1.803-.46 1.42-.571 1.642-2.037 4.286-.417 1.2-.137.892-.025.97.162 1.735.273 5.078.11 1.403.597 3.087.681 3.198.17 1.77-.178 4.745-.469 3.334-.443 1.947-.835 2.348M382.816 181.871l-3.655 2.12M637.27 162.268l-1.901-4.218-.298-.536-.87-1.557-3.629-6.514-2.147-3.998-1.61-2.594-5.258-8.786-2.965-4.423-1.9-2.56-.8-.868-.657-.62-4.056-3.164-1.785-1.39-.256-.345-.132-.353-.046-.366-.133-3.679M500.812 158.73l25.434 10.342 7.72 3.198 8.094 3.318M468.527 210.986l24.948-40.774 7.337-11.482" clip-path="url(#p4d2832ef4a)" style="fill:none;stroke:#000"/><path d="m514.945 135.165-1.378 2.094-1.85 2.334-.195.324-.187.476-.247.557-.315.536-.248.348-.306.354-.35.446-.225.353-.478.74-.703 1.17-1.943 3.495-1.115 2.186-.512.876-.358.506-.503.808-.358.774-.315.748-.417.919-.315.51-.853 1.217-.358.57-.604 1.224M429.827 247.923l.127.102.209.092.311.164.903.65 1.61 1.365.508.374.404.251.328.133.362.114.384.08.647.103.482.077.337.016.378.005.363-.056.29-.072.536-.183.588-.238.481-.165.457-.133.357-.06.354-.02.29.004.417.055 1.232.336.276.051.234-.021.214-.068 1.022-.643.737-.36.217-.167.213-.23.878-1.356 2.152-3.593 2.67-4.278 4.909-8.352 3.527-5.596 9.296-15.318M441.006 193.788l21.54 13.558 5.981 3.64" clip-path="url(#p4d2832ef4a)" style="fill:none;stroke:#000"/><path d="m395.224 306.37.976-1.178 1.193-1.433.6-.995 1.684-3.151 1.636-2.624.468-.485.298-.208.69-.417 1.295-.927 1.59-1.246.609-.396.494-.267.516-.234.468-.162.38-.102.387-.145.409-.195.468-.31.376-.286.353-.314.72-.71.767-.809.328-.446.294-.54.12-.68-.018-.876-.392-2.254.017-.902.128-.612.366-1.149.687-1.93.315-.982.123-.566.17-1.088.111-.932.145-.46.54-1.793.308-1.366 1.3-5.068.331-1.132.337-.859.984-2.135 1.104-1.905.758-1.386.997-2.548.273-.667.277-.391 1.257-1.37.223-.312.13-.321.072-.51.158-.422.209-.348.307-.46.43-.357 1.006-.62.758-.464.69-.553 1.747-1.799 1.214-1.173.422-.477M300.62 447.22l-.047.182-.044 1.27" clip-path="url(#p4d2832ef4a)" style="fill:none;stroke:#000"/><path d="m308.027 447.94-1.289.07-1.76.077-1.542.36-1.703.157-1.204.067M300.62 447.22l-3.97 1.259M304.463 445.158l-1.355.547-2.007 1.025-.298.161-.106.163-.077.165M307.084 423.762l-1.371.056M281.879 441.402l-1.078-.306-1.582-.595M257.082 430.792l1.813 5.414 2.547 7.067M258.345 430.298l-.626.184-.637.31M374.085 176.808l-3 1.588-4.299 2.001-2.797.992M357.908 184.149l2.018-1.318 4.063-1.442M272.11 426.681l-.017 2.791M278.281 427.08l-.594.038-1.875.03-.78-.013-.75-.08-1.448-.235-.724-.139M262.139 424.65l.735.133 8.435 1.744.801.154M262.139 424.65l-3.7-3.753-1.172-.953-3.817-2.517-.72-.26-1.764-.276-.29-.132-3.199-1.982-.26-.271-4.699-5.66-2.804-3.598-2.146-2.203-2.77-2.654-4.141-3.325-4.37-2.798-2.442-1.16-.972-.741-5.716-5.309-.631-.082-3.012-.192-1.977-.357-2.49-.817-1.63-.144-.596-.323-.17-.204-1.014-1.612-.397-.213-5.398-.519-.54-.2-1.44-.935-.705-.22-1.332.033-8.802.914-.569-.2-1.22-.855-4.354-3.644-2.906-2.653-.29-.52-.246-.748-.307-1.318-.383-3.053-.162-3.632-.298-1.352-.214-.714-.69-1.838-.068-.646.017-1.582-.213-5.162.068-1.123.988-6.004-.08-1.574-.17-.46-.67-.985-1.193-1.263-2.752-2.497-6.859-9.024-2.147-2.827-1.743-2.854-.958-1.187-.941-.914-5.313-4.588-1.964-2.679-.946-.774-2.658-1.565-.66-.74-.222-.532-.861-2.798-.247-.552-.75-.91-.58-.562-.749-.57-2.795-1.76-2.479-1.6-4.013-1.64-2.152-1.506-.66-.63-3.996-4.694-2.43-3.623-.774-1.404-1.615-2.453-.941-2.08-1.244-2.373-1.709-2.636-2.615-3.47-2.093-3.895-1.959-2.73-1.687-1.906-.903-.493-2.31-.944-3.016-1.506-1.333-1.11-2.258-2.13M390.922 395.149l-.003.43-.049.244-.17.259-.202.164-.28.136M413.113 380.648l-.119-.239-.132-.22-.46-.49-2.556-2.075-1.623-1.344M423.521 373.644l-1.1-.664-.587-.161h-.596l-.588.085-.529.204-.852.4-.75.408-1.448.867-1.295.58-2.002.688-.946.255-.98.179-3.625-.205M389.869 394.111l1.053 1.038M371.256 437.498l-5.214.142M375.505 431.542l-.798 1.05-1.014 1.683-1.406 2.62-.196.45-.205.145-.63.008M373.232 444.379l.41-1.701-.068-.698-.29-.868-.622-1.836-.435-.851-.417-.493-.554-.434M395.013 318.208l.416-.926.204-.825.017-1.165-.281-5.47-.145-3.452M380.147 236.207l.584 1.574.2.549.217.74.49 1.773.439 2.25.337 2.13.443 2.322.75 3.462.14 1.135.11 3.236-.101 1.068-.213.957-.503 1.539-.346 1.415-.072.83-.068.91.013.936.145.684.396.8.75 1.216.852 1.48 1.176 2.177.792 2.067.972 2.67.69 3.453.4 1.786.997 4.84.681 2.007 1.816 3.784 2.07 4.236.52 1.174.307 1.122.12.995-.043 1.557.016 7.289M366.042 437.64l.042 1.176.264 1.557.221 1.326.818 3.062M328.568 266.924l-2.156-11.967-.017-.28.136-.23.443-.349 3.213-.952 12.15-3.496 6.765-2.212 25.306-8.98 3.238-1.226 2.5-1.025M328.568 266.924l.98-.085 1.081.136 1.082.4.98.774 1.083 1.088 1.192 1.259.887 1.267.486.91.28.978.154 2.16.068 1.319.418 1.88.179 1.3.127 1.889-.11 1.343.136.86.366.986.511 2.024.392.766.793.578 1.474.834 1.278.28 1.61-.212 1.304.05.937.375.674.34.45.46.393.663.29.995.409 1.165.451.961.179.604-.008.876-.375 1.973-.205 1.523-.434.841-.69.698-1.977 1.48-1.534 1.063-.58.561-.425.74-.435 1.063-.102.842.12 2.399-.137.833-.077.825.316 1.216.81 1.642.587 1.369.051.97-.06 2.202-.034 1.047-.35 1.029-.604 1.377-1.082 1.617-.954 1.683-.537 1.183-.324 1.114-.545 1.114-.98.995-.44.484-.378.809-.188.782-.255.902-.137 1.412-.856 2.776-.58 2.212-.532 1.939-.166.978-.051.978.106 1.055.337 1.751.379 1.685.929 3.835.554 2.454.826 2.08.81 2.002.515 1.548.477 1.676.226 1.275.06 1.965-.184 2.645M328.568 266.924l-.776.068-1.082.195-.971.324-.955.459-.451.179-.563.084-1.235.085-.963-.059-.64-.29-1.047-.756-.656-.485-.597-.314-.562-.137-.562-.05-.622.144-.673.34-.46.323M406.59 368.446l-2.467-1.327M376.901 175.148l-2.816 1.66M355.696 471.086l1.746-4.095M369.727 480.783l-.43-.28-2.365-1.633-.716-.48-.652-.388-.618-.527-1.823-1.45-1.027-.846-.622-.52-.618-.293-.686-.204-.57-.127-.563-.309-.85-.696-.605-.452-.524-.612-1.127-.733-.235-.147M363.781 197.05l-1.745 1.763M374.085 176.808l5.076 7.183M369.727 480.783l2.331-4.758M308.027 447.94l-.79-2.963M304.463 445.158l-1.094-1.03-.595-.797-.764-1.257M258.345 430.298l-.622-.144M254.381 429.383l3.342.771M257.584 426.402l-.186.3.325 3.452M310.786 438.41l-.601-2.129M328.293 528.7l2.149.42 1.619.05 2.215-.629M371.064 348.227l10.738 3.365M382.898 347.655l-14.437-5.458M384.532 340.833l-.82 3.41-.814 3.412M381.802 351.592l.403-1.03.693-2.907M384.532 340.833l-14.671-4.616M380.297 320.53l11.457 3.894M395.013 318.208l-.172.384-2.83 5.324-.257.508M382.335 314.795l12.678 3.413M301.672 379.592l2.581-.105M304.91 385.84l1.75-6.007M306.363 376.238l1.568-3.793.136-.579.8-.425 1.603.017 2.693-.255 2.594-.724M304.253 379.487l2.11-3.25M319.16 362.324l2.033-5.084M387.014 385.009l-3.285-4.266M401.656 370.757l2.276 1.436.73.386 1.418.171M401.656 370.757l2.467-3.638M404.123 367.119l1.247-2.384M394.906 373.035l-4.458-3.005" clip-path="url(#p4d2832ef4a)" style="fill:none;stroke:#000"/></g><g id="PatchCollection_1"><path d="m443.326 573.055 1.03 3.688 8.385 8.228 3.944.071 5.578-1.1 1.706.745-1.315 1.596-1.776 2.128.106 2.837-.32 2.411-2.025.852-2.558-.177-3.872 1.311-1.28 1.951 1.919 3.724 2.452 2.41 4.334-.602 8.847-2.554 3.304-2.269 5.152-1.596 3.02 2.625 2.594 2.73-.675 2.873-4.619 1.773-6.573.673-1.066 2.022 1.35 1.809 2.913 1.49 3.412-.072 1.598.497-.355 1.844-2.345 2.27-1.848 2.907 1.28 3.475 6.075 2.59 6.217 2.907-.141 3.298-2.736 2.234-1.03 3.688-1.35 3.157-3.092-.674-2.949-3.83-4.37-3.653-6.111.249-2.843-2.695.605-4.114-1.386-3.83-3.66-1.49-2.202 2.128-2.061 4.043-1.173-1.206-.675-5.284-.994-4.646-5.685-5.993-5.97-2.34-4.69 1.524-5.507-.531-2.274.39-3.624 1.986-2.167 1.809-1.101 2.482-.142 2.057 1.67 2.766 1.066.603 3.34-.887 3.446-1.348 4.05.284 2.7.71 3.589 3.369 1.99 4.397-.889 2.41-1.634.108-4.228-2.731-2.63-.461-.994.887-1.315 1.312-1.315 1.064-.959 1.95-2.487.638-1.279 1.383.817 2.34 1.741 1.526 1.528.106 3.375-1.064 3.162-.39 1.564.639 1.066 2.446.675 3.511-.888 1.525-2.132-.354-1.67-1.56-1.706-.142-2.522 1.205-1.102 2.305 1.102 4.042 1.03 2.98 4.442 2.127 6.324-1.808 7.141-1.1 2.807 2.59-3.162 3.05-5.116 1.453-4.62 1.241-1.776 2.057-2.948 8.653-3.092 1.88-2.665-2.518-2.629-7.518-2.771-6.065-1.421-2.446-1.457-2.305-.994-.107-.57.78.782 2.235 1.777 3.155.39 1.525-.532 2.163.355 2.448.675 5.78.96 3.404.248 1.312.036 2.164-.25 1.737-.994 3.83-1.705 3.475-1.493 4.185.605 4.645.923 2.838 1.422.425 1.066-.674 5.08-.78 3.304 2.908 3.909-.177 1.99-.355 1.634.425.817.426 2.274.816 1.776-1.276 1.138-2.412 1.385-3.653 2.06-3.688 1.92-1.419 1.314-.07 1.386 1.418-.072 4.752.498 4.256.604 1.312 4.903.709 2.096 1.773.25 1.632-4.016 1.808-4.903 1.1-3.837 3.687-.569 1.525-1.99 3.83.285 2.766 2.31 2.412 1.74-.178 2.7-1.914 3.802-4.043 6.396-4.008 3.517-1.347 2.06-.035.995.531.356 2.766 1.847.958 2.95.284 2.131 1.312-2.7 3.369-2.132 2.092-.995 1.985.569 2.27.568 2.908-1.208 2.908-2.203 3.262-1.101-.07-1.706-3.44-3.695-2.27-4.725-.602-4.441 1.099-1.066 1.489.32 2.802 2.096 3.971 1.208 3.547-2.025 3.05-2.239-.036-1.954-2.944-2.629-4.751-1.919-6.384-.96-1.489-3.303-1.1-3.482.674-2.096-.496-1.102-2.447-2.06-1.702-4.3-.142-2.131 1.029.177 1.56 2.097 1.808 2.593 2.376.39 2.553-.14 2.66 1.562 4.788 1.386 4.007-.249 4.007-1.812 1.312-1.208-.532-2.345-2.943-2.416-4.54-1.74-1.914-1.351.46-.497 1.313.675 2.624 1.99 4.007 1.67 5.071 1.527 2.234 5.507 4.22.746 1.702-1.136 3.653-.533 1.383.923 1.064 2.096-1.525 2.096-2.234 1.564-.567 2.203.531 1.314 1.348-.96 3.794 1.138 2.766 3.908.072 2.985-2.483 3.02-4.964 1.42-3.192 1.706-3.05 1.919-.354.675 1.773-.71 3.297-.32 2.483.96 1.596 2.309.815 2.842-.319 2.984-1.028 3.802.071 1.777-1.454 1.492-.249.462 1.348-.391 5.816.923 2.943-1.491 1.277-2.985.887-2.665 1.95-1.634 1.064-1.244-.816-1.527-2.128-3.838-1.454-3.588.994-3.908 2.127-.853 1.312.249 2.411 1.172 2.483-.106 1.524-1.28.639-3.126.142-2.203-.07-1.35-2.022-1.777-.994-1.066 1.596-.568 1.774.355 1.56.746.78 1.066.07 1.706-.992 1.101-.036 2.665 3.937 3.588 2.518 3.802 1.312 1.634.993 2.168 2.127.923 3.476-.604 5.212-1.492 2.59.64 2.127.923-.249 1.955-1.879 1.99-1.773 3.09-1.064 3.056-3.369 2.664-3.44 2.133.568 1.207 2.73-.71 2.802-3.553 4.29-1.777 3.015 2.061 2.056 3.873 1.348h5.436l1.35 3.937-1.812 5.354-4.192.568-5.65-2.27-3.517-2.305-3.056-2.908-1.99-2.27-4.192-.496-1.173 1.703.995 3.581 1.6 2.411 2.912 4.468 1.28 5.142-.818 4.716-2.024 5.888-3.874 9.751-4.263 2.27-1.528-1.1.924-5.496.426-5.532-.07-3.156-1.742-2.092-4.085.567-2.381-3.83.142-3.44 1.528-1.808.035-2.34-1.386-2.376.143-4.646-.462-2.447-.71-3.227.39-3.085-.746-2.446-1.385-.178-1.315 1.631-.853 3.404 1.457 6.987-2.594 4.113-2.735 1.596-2.274-.355.497-2.057 1.528-5.212-.498-3.795-1.918-4.042-5.934-6.845-1.42-1.276-1.707.461-1.847 2.943-1.03 3.475-.782 4.894.106 3.652-2.664 2.802-2.238.886-3.127.178-2.097-.922-2.735-1.383-3.873-1.028-1.812.319-2.913-.355-1.173-2.518.036-3.05 2.025-1.914 3.98-1.596 3.765-.425 2.203-.39 2.31-1.915 1.065-2.518-.39-2.376-1.066-1.241-3.375-1.81-.462-2.375.426-6.17-.675-4.54-.107-2.872.25-3.085 1.1-4.256.689-2.255-.815-4.14-.89-2.736-1.258-1.184-1.926.222-3.927 2.588-1.481 5.175-1.852 4.141-1.852 3.992-.888.37-3.26-2.81-1.778-3.4-1.704-6.877-.889-2.587-2-1.035-2.222-.074h-1.556l-4.445-1.479-2.888-2.44-1.778-2.883-1.186-2.957.445-3.032 4.519-1.552 1.63.148 1.407 1.108 1.63.814.592-.518.297-3.327-.297-2.588 2.445-.296 2.593 1.48 1.925 3.104 3.779 2.958 2.073.296 1.63-.813 2.148-2.071 1.482-3.18.445-4.213-1.482-3.032-4.074-3.992-3.408-.296-3.926-.665-3.704-2.07-4.593-4.363-3.407-7.171-.74-6.803-1.557-3.401-4.814-1.109-9.112-2.07-8.667-1.109-4.296 1.479 2.889-6.876 2.963-8.06 4.518-1.034 3.63-3.032.223-5.841-2-3.697-3.112-2.958-9.038-11.164.445-8.133 6.964-6.654 5.481-5.398 1.185-3.549-1.333-5.1-1.778-2.737-5.926 1.257-3.408.37-.962-1.035 2.37-5.693 3.111-4.437 3.778-1.7 2.222-2.44 1.333-3.993-1.851-3.253-2.445-2.884-3.63-2.957-2.74-.222-2.148 1.7-1.334 2.662.593 3.18-1.63 2.292-2.222.518-2.37-1.11-1.778-.665-3.112 1.33-2.519 3.402-3.555 4.51-5.927 5.841-3.259 2.366-1.852.222-2.37-1.923.074-5.767 3.852-8.354 4.148-3.106 5.037-2.07 6.815-9.316 6.223-8.355.296-6.137.074-4.436 2.741-2.884 5.26-4.436 4.444-.814 5.63 1.627 4.37 2.662-.534 3.166-3.257 1.664-4.847 3.174-3.03 4.687-2.272 5.443 1.59 2.797 3.56.53 2.803-2.722 1.97-5.82 3.938-1.815 3.71-1.134 3.333-.907 2.803-2.57 2.196-2.117 1.439.529.833 3.629 2.802.983 8.407-3.025 2.65.378 4.091 1.437 1.363 4.233 5.756-1.21 6.363-5.745 2.347-3.628 6.21-4.158 5.378-4.007 8.862-2.192 4.923-1.588 3.03-.528zM22.48 541.869l4.249-3.77 5.287-4.806 5.287-4.712 5.665-1.602 5.57-.094 12.558 10.272 5.665 7.54 2.455 7.067-3.21 6.502-4.344 6.22v4.147l5.382 3.58-.472 4.43-3.304 7.445-3.966 4.523-3.4 7.068 2.267 6.408 2.455 5.843-.19 4.146-2.076 14.136-5.381 9.8-7.27 8.011-8.404 9.612-3.493 10.932-3.777 7.067-3.21 4.053-7.647 9.14L7.94 696.136l-8.025 6.88-10.386 2.826-8.215 1.979-4.532 2.45-2.171 2.45 3.494-.66 1.793-.282 2.172 3.298.094 4.241-.566 4.806-2.172.189-3.493-3.676-3.588-2.733-4.91 1.697-2.36 4.617.378 7.916-2.833 2.827-6.514-.377-6.043-3.11-7.459-4.617-4.626-4.806-5.382 1.037-5.57-.472-8.592-.565-5.854 4.335-3.871-.283-3.588-4.523 5.099-4.241 6.986-4.335 8.12-9.706 1.416-4.335-5.476-2.45-9.536 2.261-9.253 2.734-13.595 4.711-5.665 7.54.472-5.373 4.815-7.067 5.665-4.052-.472-4.995-8.215.472-11.707 5.465-11.613 6.503-3.682-1.225-1.228-7.257 7.743-6.973 6.231-7.351 2.172-9.517-4.532-8.388 3.115-3.864 5.76-1.036 2.265 6.785 1.511 6.785 3.588 3.204 6.043-5.372 2.832-1.224.566 8.104 1.606 1.79 4.91-1.225 4.248-2.92 1.322 5.464 2.549 3.582 6.987-.848 6.42-4.241 8.12 2.92 13.218 3.96 2.833.093 4.909-1.884 3.776-4.241.567-7.822-1.888-9.706-4.343-.565-8.592.376-10.575 1.603 7.176-13.477 4.438-3.957 1.699 6.03 6.231 7.069 3.871-1.508 2.927-8.293 1.133-10.932-3.682-4.335-8.403-3.77-3.87-4.334 3.115-5.277 6.326-1.037 6.797.943 4.06 9.423 4.06 2.639 8.403 1.413 10.386 1.226 6.609-1.037 7.554-4.429 3.681-5.183-.944-6.22-3.965-4.146-7.175-6.597-8.97-4.712-6.137-4.052-.472-2.168 3.116-2.356 4.343 2.168 3.116.942 1.416-2.262.094-6.314-1.133-10.743-.85-10.083 2.077-7.445 1.323-7.633-5.288-4.806-.755-5.466 2.171-2.45 4.721-.754 2.455 3.58 6.987.943 9.913-.188 5.948-1.037zM62.254 306.636l12.679 21.365 2.863-4.762 5.726-3.403 9.815-.544-12.951-4.763-2.863-5.307 3.545-8.029 5.862-3.265h7.498l6.271 1.905-1.636-4.082-7.225-1.225-5.453-.272v-.136l5.59-8.438 8.315-3.401.273-2.858-7.09-1.089-7.225 2.313-8.043 5.988-4.363 2.993-4.908-3.265-5.453-6.396.273-5.171 2.59-8.165 8.316-3.81 6.953-9.117 7.225-1.361 14.043.68 14.45-.272 7.226 3.266 3.953 3.13 13.634-.408 15.268-1.225 4.772-.409 1.363-3.401 1.773-4.764 15.405 2.042 5.59 5.17 1.908-4.218-9.543-6.26-7.225-2.177-3.136-7.076-3.136-4.355 1.227-4.49 3.545-5.716 6.816-3.13 6.953.41 10.36 4.762 5.59-6.532 8.18-2.45 9.816-1.769-1.909-5.715 6-5.308 9.815-3.674 12.133-.952 11.315.544 16.769 6.804 4.09-6.26-12.951-5.443-11.86-2.993-10.09-1.906-5.59-3.946v-.136l-2.044-11.431 4.908-4.083 10.225-4.354 5.453-15.106-11.452 10.751-15.405 2.994-10.497 3.402-16.633 6.123-7.089-2.313-2.59 5.852-8.861 10.614-16.496 7.213h-14.042l-6.953-8.71v-.68l10.224-17.01 10.089-15.514 1.363-13.2-4.09-7.757-7.089 7.621-5.317-5.443-3.544-16.602 2.18-5.444 11.998-9.662-.818-6.804-1.772-5.852-4.772-2.177-4.771 3.13-5.453.136-2.863 2.314-2.59 5.987-3.682 2.586-5.18-2.586-3.136-5.171-6.271-3.947h-3.271l3.68 5.852 5.453 7.62 3.954 8.982-.545 7.349-5.18 9.118-3.955 3.538-8.043-3.402-7.907-3.403.136-11.703-4.362-5.443-11.043 4.082-4.499 3.81-3.681 12.793 2.863 8.301 1.908 8.165 4.363 7.348 5.317.953 2.454-2.994 5.59-9.526 4.907-1.497 5.453 4.9 4.227 2.857h5.317l6.543.68 2.59 4.763-2.18 4.491-5.317 2.586-6.953-4.22 1.908 5.173 6.68 3.674 4.5 5.851v3.538l-5.317 4.218-12.543-.407-6.407 3.402-17.996 12.927-8.043-1.224-9.407 2.858-6.816 5.851-11.043 7.076-13.36 4.763-8.589.272-7.635 3.402-9.815 2.45-5.045 2.857-3.953 8.438-.546 9.39-4.226 8.845-10.36 11.839-5.454 6.803-.273 14.289-3.953 11.839-6.407 5.58-14.179 7.62-5.044 5.987-6.271 10.887-6.953 10.205-21.95 2.041-9.951 3.539-5.726 10.614 1.5 12.11 10.906 20.548 14.314 6.94 16.633 4.355 8.452 7.212 9.27 1.633 12.27-.272 12.816-2.041 17.995-4.49 16.769-7.077 4.907-.68 3.409 6.26 4.498 5.034 4.636 1.77 4.226-1.906 4.908-2.586L54.893 394l9.406-1.088 11.452-4.49 5.726-3.539 4.226-7.893-3-7.483-7.361-1.77-5.59.68-10.088-3.538-8.59-.952-4.634-4.082.136-7.621 3.954-2.177 5.59-6.26-6.135-9.661 2.18-12.247 3.136-10.887z" clip-path="url(#p4d2832ef4a)" style="fill:#00f;fill-opacity:.8"/></g><g id="PatchCollection_2"><path d="m341.353 436.298-.327 3.614-1.84-.148.327-3.614zM340.848 440.622l-.148 1.57-1.662-.118.149-1.63z" clip-path="url(#p4d2832ef4a)" style="fill:green;fill-opacity:.8"/></g><g id="PatchCollection_3"><path d="m353.689 413.519.53-6.09 4.204.365-.53 6.089zM263.61 417.599l-.559 6.364-.838.038-.775-6.858z" clip-path="url(#p4d2832ef4a)" style="fill:#90ee90;fill-opacity:.8"/></g><g id="PatchCollection_4"><path d="m290.659 428.202-.522 2.048-1.537-.39.521-2.048zM290.77 429.974l.667.66.234-.235 1.013.378.033.162.986-.2-.179-.88-.891.18.021.105-.4-.15.029-.076-.737-.728z" clip-path="url(#p4d2832ef4a)" style="fill:#a9a9a9;fill-opacity:.8"/></g></g></g><defs><clipPath id="p4d2832ef4a"><path d="M90 106.405h558v514.389H90z"/></clipPath></defs></svg>