<svg xmlns="http://www.w3.org/2000/svg" width="960" height="960" viewBox="0 0 720 720"><defs><style>*{stroke-linejoin:round;stroke-linecap:butt}</style></defs><g id="figure_1"><path id="patch_1" d="M0 720h720V0H0z" style="fill:#fff"/><g id="axes_1"><path id="patch_2" d="M128.284 640.8h481.432V86.4H128.284z" style="fill:#fff"/><g id="LineCollection_1"><path d="m323.161 371.755-.385-1.29M323.161 371.755l.287.963M323.161 371.755l-3.442 1.372M302.449 379.977l.33.838M302.449 379.977l-7.629 2.999M303.303 379.674l-.41.144-.444.16M302.449 379.977l.004-1.018M206.397 410.1l-5.925-.273M206.397 410.1l.924-.113M190.05 431.39l3.119-.374 1.19.338 1.281.474 1.167-.293 2.013-1.128 2.105-5.231.477-1.642.713-2.463 2.86-2.074-.183-2.12v-2.142l.343-3.157 1.262-1.477M183.023 412.128l-2.862 3.292M200.472 409.827l-7.514.617-8.776 1.213-1.159.471" clip-path="url(#p788f4c544b)" style="fill:none;stroke:#000"/><path d="m200.472 409.827-1.207-1.813-2.264-3.874-2.12-3.548-1.662-1.757-1.097-.488-1.638-.417-.818.132-.893 1.015-4.543 6.61-.634 2.47-.573 3.971M325.532 436.555l-.113 1.81M325.532 436.555l-.346-.807-.166-.398-.26-.593-3.447-9.06-6.35-16.046M327.465 413.354l-.147 2.486-.902 10.801-.468 6.691-.416 3.223M357.111 369.443l3.3-1.276M357.111 369.443l-1.11.25M357.358 365.482l-.208 1.942-.039 2.02M306.185 389.437l.289.727M306.185 389.437l-7.47 2.95M306.185 389.437l.683-.258M306.185 389.437l-1.46-3.66M344.637 369.647l-1.533.372-1.276.549-.713.28M345.982 369.391l-.58.11-.765.146M341.261 371.79l2.048-1.354 1.328-.789M306.474 390.164l1.502 3.805M306.474 390.164l.675-.256M306.474 390.164l-7.494 2.902M341.115 370.847l.146.943M341.115 370.847l-13.91 10.235-1.105.618" clip-path="url(#p788f4c544b)" style="fill:none;stroke:#000"/><path d="m339.248 363.51.866 3.418 1 3.92M346.99 390.196l-1.53-4.043-1.778-6.08-1.971-6.644-.45-1.639M326.29 382.55l.868-.387 3.011-2.013 10.094-7.745.998-.615M346.99 390.196l4.845-7.596M346.99 390.196l-.556.96M307.149 389.908l-.281-.73M307.149 389.908l7.952-3.019M307.149 389.908l1.498 3.785M306.868 389.179l-1.34-3.762M306.868 389.179l7.9-3.045M303.303 379.674l-.85-.715M303.303 379.674l.349.809M303.303 379.674l7.617-3.054M357.189 371.526l.531.914.044.218-.013.222-.063.264-.168.369" clip-path="url(#p788f4c544b)" style="fill:none;stroke:#000"/><path d="m351.835 382.6 1.108-1.479 3.744-5.383.45-1.166.383-1.06" clip-path="url(#p788f4c544b)" style="fill:none;stroke:#000"/><path d="m354.854 372.322.934.751.575.22 1.157.22M361.497 375.231l-.485-.37-.723-.499-.766-.377-2.003-.472M357.189 371.526l-.57.22M360.877 369.15l-.528.33-.958.567-2.202 1.48M348.017 369.27l5.954.418M348.017 369.27l.264-5.82M345.982 369.391l1.053-.094.982-.028" clip-path="url(#p788f4c544b)" style="fill:none;stroke:#000"/><path d="m351.835 382.6-2.323-3.273-.72-1.273-.216-.445-.303-.786-.122-1.333.018-1.265-.152-4.956M354.384 389.712l.07-2.575-.086-.93-.27-.744-.875-1.479-.698-.73-.69-.654M368.298 387.178l-1.662.87-1.67.586-5.4 1.553-.569.146-.67.02-3.943-.641M346.434 391.155l1.283-.258.434.004.486.141.466.17.236.031.2-.068.364-.338.468-.26.48-.188 1.73-.492.928-.18.46-.042.415.037M331.254 405.808l1.82-1.575 6.168-4.196 1.86-1.518 1.267-1.264 1.118-1.299.903-1.277 2.044-3.524M368.298 387.178l1.122 1.36M364.277 379.381l.671 1.431 1.437 2.989 1.913 3.377M355.34 369.772l-.526-.01-.843-.074M354.854 372.322l-.406-.413-.256-.566-.221-1.655M354.854 372.322l1.766-.576M364.417 366.521l1.542-.721M364.417 366.521l-4.007 1.646M360.877 369.15l1.674-1.053 1.021-.692.845-.884M356.62 371.746l-.62-2.052M356 369.694l-.66.078M364.277 379.381l-.819-1.406-.845-1.19-1.116-1.554M362.957 372.922l-.184.39-.104.495-.142.649-.106.265-.251.23-.673.28M362.957 372.922l-2.08-3.773M373.853 367.32l-1.602.483-2.65 1.073-2.428 1.093-2.194 1.249-2.022 1.704M373.853 367.32l-.553-2.706" clip-path="url(#p788f4c544b)" style="fill:none;stroke:#000"/><path d="m378.159 378.573-2.593-6.163-1.713-5.09M360.877 369.15l-.467-.983M357.358 365.482l1.751.694.512.393.373.64.416.958M357.056 361.133l.26 2.055.042 2.294M373.3 364.614l-.838-.027M395.48 365.851l-1.544-.777-1.075-.308-1.31-.171-11.998.376-3.945-.18-2.308-.177" clip-path="url(#p788f4c544b)" style="fill:none;stroke:#000"/><path d="m393.966 378.8-.948.64-.923.48-1.233.195-1.596-.095-3.16-1.07-1.761-.587-.505-.168-1.61-.24-2.092.114-1.98.504" clip-path="url(#p788f4c544b)" style="fill:none;stroke:#000"/><path d="m369.42 388.539 3.12-3.102 1.022-.795.373-.453.26-.632.416-1.683.512-.932.72-.683 2.316-1.686M491.4 353.204l-3.996 1.145-3.589.906-2.635.368-1.657.093-9.389.436-2.722.368-2.453.504-1.604.41-10.768 2.7-2.636.581-1.343.394-1.431.623-2.852 1.445-4.145 2.717-2.193 1.453-1.526 1.085-.85.88-1.421 1.556-1.223 1.144-1.56 1.273-2.081 1.154-1.968.94-1.596.812-.763.53-.797.675-1.135.983-1.147.749-.665.353-.824.256-1.102.069-1.265-.12-1.448-.274-2.095-.694-4.114-1.324-.735-.289-1.11-.59-2.016-1.302-.81-.56M399.214 367.785l1.58.818 1.283.735.642.743.91 1.65 1.057 1.683 1.05 1.239M393.966 378.8l3.75-2.541 2.135-1.256 1.799-.488 1.436-.032 2.65.17M395.48 365.851l3.734 1.934M393.966 378.8l-.238-2.507.382-3.093.832-4.734.537-2.615M326.29 382.55l-.19-.85M323.463 383.768l1.463-.609 1.364-.609M326.1 381.7l-1.269-4.341M326.1 381.7l-1.642.706-1.346.496M322.776 370.465l-1.431-3.693M323.665 365.79l-.518 1.318-.216.64-.155.766-.01.824.01 1.127M323.665 365.79l-2.32.982M323.665 365.79l.737-1.306M344.05 360.152l-.445-1.927M344.05 360.152l.532 2.273M346.287 362.289l-.875-.608-.598-.538-.434-.53-.33-.461M340.603 358.868l1.323.275 1.231.393.893.616M348.281 363.45l.685.692.69.65.485.354.473.12.494-.005.528-.136.627-.303" clip-path="url(#p788f4c544b)" style="fill:none;stroke:#000"/><path d="m351.08 361.357.606 2.213.22.598.357.654M355.34 369.772l-.59-1.298-1.19-1.965-1.297-1.687M353.568 349.118l-5.185.778M322.471 252.53l-.173 3.281-.087.719-.143.658-3.047 5.888-1.821 4.016-.252.675-.13.88.087.88.777 2.449.064.474-.1.534-.216.401-.568.603-.958 1.124-.68.8-1.691 2.904-.165.577.026.406.122.35.164.342 3.104 3.572 1.968 1.795.859.966.572.795 2.315 3.23 2.202 2.837.658 1.05.625 1.146 1.543 3.315 2.141 3.436.72 1.333.901 1.948 2.584 5.64 1.63 4.068.753 1.513 5.54 8.553 3.296 5.589 2.652 4.666 1.527 2.29 1.387 2.29.691 1.54 1.684 5.755.536 1.3M355.88 355.665l-.693-2.3-1.619-4.247M360.91 354.168l-1.716-5.316-.284-.236-.373-.129-.494-.085h-.65l-3.825.716M348.383 349.896l1.638 6.936M342.177 352.777l2.431-1.44.899-.5.988-.418 1.888-.523M337.357 355.204l4.82-2.427M337.357 355.204l.694 3.367M294.806 353.94l1.518-.411 4.248-1.342 6.233-1.615 7.595-1.863 8.53-2.238 3.122-.752.624-.146.225-.03.226.056.971.504 1.335.675.676.521.529.624.798 1.222.485.897.278.855.164.555.191.231.3.12.312.021 1.109-.235.56-.017.337.06.698.346.404.372.52.888.563 1.966M338.05 358.57l1.198 4.94M340.603 358.868l-1.065-.178-1.487-.12M324.402 364.484l.436-.615.469-.555 2.033-1.941 1.764-1.23 1.843-.91 1.436-.566 1.047-.25 1.274-.035 1.786.044 1.56.145M335.185 364.45l4.063-.94M339.248 363.51l5.334-1.085M346.287 362.289l-1.705.136M348.281 363.45l-.884-.606-1.11-.555M344.582 362.425l.844 3.185.556 3.781M342.177 352.777l-2.13-6.374M342.177 352.777l1.428 5.448M340.603 358.868l3.002-.643M343.605 358.225l6.416-1.393M355.88 355.665l5.03-1.497M355.88 355.665l-5.86 1.167M357.056 361.133l-.263-1.863-.913-3.605M360.91 354.168l2.173 5.508" clip-path="url(#p788f4c544b)" style="fill:none;stroke:#000"/><path d="m368.586 343.83-2.03 1.41-.415.445-.208.375-.182.453-.243.804-1.032 2.853-.815 1.804-.476.64-.59.54-1.686 1.014M365.959 365.8l-2.876-6.124M372.462 364.587l-1.847-.009-1.613.18-1.422.35-1.621.692M350.02 356.832l1.06 4.525M351.08 361.357l5.976-.224M357.056 361.133l6.027-1.457M287.25 386.031l-1.97.784M287.25 386.031l1.236-.107.668-.086.459-.077 4.548-1.763" clip-path="url(#p788f4c544b)" style="fill:none;stroke:#000"/><path d="m293.867 383.327-5.286 1.964-.667.325-.663.415M294.161 383.998l.948-.366M294.161 383.998l1.807 4.053M294.161 383.998l-.294-.67M302.78 380.815l1.635 4.14M302.78 380.815l.872-.332M302.78 380.815l-7.671 2.817M303.652 380.483l7.617-3.02M303.652 380.483l1.565 4.115M323.448 372.718l1.383 4.64M323.448 372.718l-3.417 1.34M324.831 377.359l-3.178 1.258M323.463 383.768l-.35-.866M322.24 388.525l2.494-1.131.113-.18.008-.136-.034-.223-1.358-3.087M323.463 383.768l-2.54.91M323.112 382.902l-2.448.963M323.112 382.902l-1.46-4.285M321.653 378.617l-2.037.934M321.653 378.617l-1.622-4.56M320.03 374.058l-.311-.931M320.03 374.058l-7.836 3.079M319.719 373.127l-1.926-3.898M319.719 373.127l-7.878 3.14M317.793 369.23l-.422-1.008M317.793 369.23l-8.163 2.78M315.522 363.39l-2.83-7.4-.217-.436-.156-.273-.269-.102-.39.025-3.3.773M319.044 359.048l1.253 4.116M324.402 364.484l-3.37 1.094M321.345 366.772l-.313-1.194M321.345 366.772l-3.974 1.45M317.37 368.222l-1.848-4.832M310.92 376.62l.349.843M311.84 376.267l-.425.17-.495.183M310.92 376.62l.081-1.215M311.269 377.463l1.75 4.204M311.269 377.463l.925-.326M314.767 386.134l.334.755M314.767 386.134l.908-.349M314.767 386.134l-1.459-3.73M315.1 386.89l1.478 3.722M315.1 386.89l.917-.348M318.115 395.111l-7.644 3.192M318.115 395.111l-.17 1.046-.15.508M318.115 395.111l.982-.36M316.86 391.302l1.225 3.075.03.734M313.419 405.75l-2.515-6.353M313.419 405.75l-.686.273M313.419 405.75l.443 1.121M317.795 396.665 315.5 404.4l-.172.34-.327.317-1.582.693M312.733 406.023l.467 1.185M312.733 406.023l-7.6 2.9M312.733 406.023l-2.516-6.372M285.434 410.602l.581.282.945.308 6.682 1.807M295.29 413.486l-.84-.235-.808-.252" clip-path="url(#p788f4c544b)" style="fill:none;stroke:#000"/><path d="m295.887 412.432-.762.165-1.483.402M296.014 413.6l-.328-.016-.396-.098M285.434 410.602l-1.551 3.307-.027.41.052.282.243.256.798.291 7.413 2.034.745.008.494-.137.364-.307.832-1.889.274-.722.219-.65M296.014 413.6l-.127-1.168M297.89 418.341l-1.246-2.39-.399-.794-.121-.47-.095-.42-.015-.666" clip-path="url(#p788f4c544b)" style="fill:none;stroke:#000"/><path d="m304.783 410.177-6.023 2.493-1.327.487-.702.274-.717.17M313.2 407.208l.662-.337M313.2 407.208l10.918 28.05.406.993.895 2.114M313.2 407.208l-7.65 2.655M313.862 406.871l1.186-.646.866-.864.448-.796 2.502-8.302M318.488 409.282l-.811-.368-.936-.303-.603-.333-.685-.496-.594-.427-.472-.27-.525-.214M313.862 406.871l1.1 2.78M319.097 394.75l-.198-.975-1.044-2.82M319.097 394.75l-.038.406M316.017 386.542l-.342-.757M316.017 386.542l4.907-1.863M316.017 386.542l1.527 3.668M315.675 385.785l-1.555-3.698M315.675 385.785l4.99-1.92M312.194 377.137l-.353-.87M312.194 377.137l1.628 4.281M311.84 376.267l-.839-.862M299.176 370.056l3.277 8.903M309.63 372.01l-1.98-3.796-.325-.346-.247-.056h-.199l-.377.043-1.284.401-3.164.757-2.878 1.043M294.806 353.94l1.665 5.708 2.705 10.408M313.822 381.418l-.802.249M314.12 382.087l-.176-.417-.122-.252M313.822 381.418l1.172-.126M313.02 381.667l.288.737M313.02 381.667l-7.803 2.93M305.217 384.598l-.802.357M305.217 384.598l.312.82M304.415 384.955l.31.821M304.415 384.955l-7.527 2.759M295.968 388.051l.082.201.108.287.167.428M295.968 388.051l-3.299 1.496-.238.162-.191.176-.16.226M295.968 388.051l.92-.337M293.867 383.327l.953-.351M304.262 409.296l.521.881M295.887 412.432l.914-.254 7.46-2.882M304.262 409.296l.87-.374M304.262 409.296l-2.59-6.553M304.783 410.177l.768-.314M304.783 410.177l.8.515M305.55 409.863l-.418-.94M305.55 409.863l.033.829M305.132 408.922l-2.507-6.53M296.888 387.714l-1.779-4.082M296.888 387.714l.361.925M295.109 383.632l-.289-.656M296.325 388.967l1.428 3.794M296.325 388.967l.924-.328" clip-path="url(#p788f4c544b)" style="fill:none;stroke:#000"/><path d="m292.08 390.11.364.005.225-.021.212-.064 3.444-1.063M297.25 388.64l7.476-2.864M297.25 388.64l1.465 3.748M304.726 385.776l.803-.359M305.529 385.417l7.78-3.013M313.308 382.404l.812-.317M314.12 382.087l.874-.795M298.715 392.388l-.962.373M298.715 392.388l.265.678M297.753 392.76l.266.672M297.753 392.76l-3.124 1.393-.356.209-.38.293M293.893 394.655l.545-.05.385-.08 3.196-1.093M289.595 396.104l2.19-.69 2.108-.76M298.019 393.432l1.546 3.834M298.019 393.432l.961-.366M298.98 393.066l1.52 3.89M293.934 399.467l-2.8 1.18M293.934 399.467l.942.155h.33l.31-.043 4.324-1.608M293.934 399.467l5.631-2.2M299.84 397.971l1.472 3.772M299.84 397.971l.929-.328M299.84 397.971l-.275-.705M300.769 397.643l-.268-.687M300.769 397.643l7.51-2.905M300.769 397.643l1.476 3.777M308.279 394.738l1.498 3.796M308.279 394.738l.655-.32M308.279 394.738l-.303-.77M308.934 394.418l-.287-.725M308.934 394.418l7.925-3.116M308.934 394.418l1.537 3.885M316.86 391.302l.995-.346M316.86 391.302l-.282-.69M317.855 390.956l-.31-.746M317.855 390.956l4.157-1.887.228-.544M322.24 388.525l-1.316-3.846M322.24 388.525l-.55.056-4.146 1.629M320.924 384.679l-.26-.814M320.664 383.865l-1.048-4.314M319.616 379.55l-4.622 1.742M317.544 390.21l-.966.402M316.578 390.612l-7.93 3.081M308.647 393.693l-.671.276M307.976 393.969l-7.475 2.987M300.5 396.956l-.935.31M283.073 403.684l8.062-3.037M283.073 403.684l-5.803-13.803M283.073 403.684l1.928 4.645M285 408.33l1.57-.727M285.434 410.602l-.104-.607-.33-1.666M277.27 389.881l8.01-3.066M294.806 353.94l-18.093 4.632-8.194 2.306-.59.222-.31.325-.122.427.05.643 2.1 6.023 2.306 6.158 5.317 15.205M228.274 405.433l15.502-4.632 19.177-5.23 5.185-1.658 3.659-1.47 3.242-1.529 2.23-1.033M288.122 392.02l-.476-.846-2.365-4.359M291.135 400.647l-1.54-4.543M291.135 400.647l2.007 4.442M288.122 392.02l.685 1.723.788 2.361M288.122 392.02l3.958-1.91M293.142 405.09l.53.696M293.142 405.09l-6.572 2.513M293.142 405.09l8.17-3.347M293.672 405.786l1.117 3.099 1.098 3.547M297.89 418.341l.696 1.336.39.931.243.812.32.538.374.18.666.179M293.672 405.786l8-3.043M286.57 407.603l1.23.342 5.872-2.159M301.672 402.743l.953-.351M301.672 402.743l-.36-1M302.625 402.392l-.38-.972M302.625 402.392l7.592-2.741M310.217 399.65l.687-.253M310.217 399.65l-.44-1.116M310.904 399.397l-.433-1.094M310.904 399.397l6.891-2.732M317.795 396.665l1.069-.402M318.864 396.263l.138-.516.057-.591M310.47 398.303l-.693.23M309.777 398.534l-7.532 2.886M302.245 401.42l-.933.323M331.254 405.808l-1.83.393-1.62.513-2.81 1.094-3.71 1.06-2.796.414M314.963 409.65l2.246-.287 1.279-.081M323.017 418.831l-.398-1.624-.347-1.247-.282-1.67-1.184-4.093-2.318-.915" clip-path="url(#p788f4c544b)" style="fill:none;stroke:#000"/><path d="m327.465 413.354.477-3.24.225-.708.338-.701.599-.658 2.15-2.239M327.465 413.354l-2.844-1.294M309.63 372.01l1.371 3.395M378.732 358.176l-.185.471-.381.607-.503.598-.579.414-3.244.92-1.362.64-.269.206-.071.212.324 2.343M589.24 330.191l-1.9.676-3.216 1.188-6.918 2.384-5.878 1.512-6.529 1.368-2.662.803-2.583.982-3.45 1.645-1.77.662-1.603.394-1.327.096-.199.015-1.847-.222-2.323-.48-2.688-.93-1.552-.743-1.378-.488-1.647-.247-4.578-.488-5.514-.46-1.213-.053-1.353.163-1.682.427-2.818.838-2.41.461-4.777.445-1.83.418-1.247.581-2.783 1.513-2.264.88-2.357.64-1.83.625-1.153.632-.798.7-1.213 1.342-1.015 1.06-1.465 1.282-3.182 1.956-2.887 1.436M476.55 303.376l.043 1.778.2 1.564.095.606.147.496.322.632.75 1.29.237.518.053.32.008.83.094 3.509.253 3.574.471 3.17.327 1.154.329.624.702.914.998.914.476.624.251.658.157.727.026 1.196.086.906.183.82.459 1.18 3.832 9.964 4.352 11.86M190.05 431.39l-1.525-2.155M162.83 427.683l2.655 1.01 8.443 4.781 3.82-.428 2.22-.293 5.056-1.895 3.089.632 1.937-.1M162.83 427.683l2.472-1.73M137.542 428.987l1.603.978 1.692.59 1.996.342 2.328.229 3.947.091 2.59-.018 3.356-.391 3.497-.777 4.278-2.348M175.55 419.084l1.817-1.15 2.794-2.514M171.842 414.01l.687.677 1.51-.18 2.402.067 3.72.846M168.592 412.268l.344.48.984.608 1.922.655M168.592 412.268l2.38-.828.87 2.57M175.55 419.084l-.585-.913-1.374-.785-.936-1.237-.813-2.138M168.592 412.268l-1.532-2.136-2.265-2.435-4.164-4.375-.777-.542-2.357-.406-3.684-2.142-2.585-.519-2.609-.157M175.55 419.084l-6.053 3.548M228.274 405.433l-8.414 3.009-12.54 1.545" clip-path="url(#p788f4c544b)" style="fill:none;stroke:#000"/><path d="m228.274 405.433-2.74 4.393-5.645 7.17-2.928 2.5-1.208.03-1.872-2.946-3.592-1.607-2.968-4.986M169.497 422.632l-3.837 1.346M165.302 425.954l2.389-1.893 1.806-1.43M165.66 423.978l-.358 1.976M137.542 428.987l5.511-.672 13.154-1.602 3.626-.64 1.758-.686 3.686-1.963.383.554M367.623 378.789l-3.346.592M451.92 503.05l-.85-1.59-.504-1.087-.329-.707-2.843-7.298-.555-1.094-1.075-1.623-1.492-2.136-1.022-1.35-.711-1.214-.313-.957-.346-1.982-.365-2.598-.503-2.631-.329-1.146-.71-1.418-1.388-2.256-4.213-5.623-1.977-2.58-2.731-3.042-.936-1.273-.763-1.265-1.18-2.632-.398-1.017-.295-1.119-.109-.854-.29-1.282-.407-.931-.642-1.316-2.133-3.555-5.678-9.117-.832-1.145-.746-.846-.746-.59-.615-.401-2.307-1.248-2.028-.906-1.023-.58-1.231-1.077-1.838-1.914-2.471-2.129-1.69-1.084-3.295-1.479-2.107-1.017-1.656-1.11-.59-.53-.572-.76-2.167-4.06-1.734-2.785-1.907-2.871-2.064-2.709-1.647-2.35-.33-.47-.485-.538-.858-.675-4.049-2.24-1.11-.863-.641-.538-.425-.427-.347-.496-1.083-1.94-2.168-4.28-.434-.736-.655-.974-1.562-2.05M396.022 563.817l-4.93-5.57-9.606-11.074-13.473-15.312-12.727-14.936-10.472-12.492-8.67-10.527-5.81-6.784-5.132-6.033-1.7-2.29-.762-1.18-.33-.973-.069-.616.018-1.589.728-9.775 1.543-15.945.789-10.356M402.18 363.22l-2.966 4.565M305.583 410.692l.125.525.135.599.104.973.043.583-.086.486-.234.538-.443.53-.598.59-.928.777-.901.487-4.91 1.561M320.297 363.164l.735 2.414M315.522 363.39l2.207-.222 1.448-.026 1.12.022M322.471 252.53l.287-7.725-.114-5.777.07-.838.208-.598.217-.324.919-1.094.382-.632.311-.693.408-1.282.52-2.845-.052-.804-.095-.718-.772-2.187-.902-3.017-.433-1.427-.09-.301-.3-1.007-.173-1.205.06-1.196.217-1.128.33-.983 3.562-5.99.755-.83.676-.623 3.208-2.521.65-.36 4.353-1.537.537-.398.26-.423.165-.769-.009-1.444-.147-4.094-.234-4.178-.234-1.334-.217-.696-.408-.97-.607-2.069-.572-4.204-.078-2.948.355-5.188.304-4.7.156-.513.407-.513 2.133-1.435 1.387-.787 2.94-1.213.65-.401.278-.368.19-.598.044-.376-.096-.547-.659-1.36-.33-1.008-.069-1.145.113-1.068.33-1.461.615-1.308 1.318-2.299.346-.812.321-.905.113-.573.052-.727-.113-3.504.148-2.06.338-2.161.555-3.368.208-.824.333-.808.335-.581 2.236-3.299 1.023-1.367.373-.735.182-.65.087-.452-.005-2.496.057-.448.108-.385.23-.398.373-.41 5.583-5.375 1.864-1.47.356-.453.216-.496.13-.906M449.102 201.965l-1.119 1.213-1.37 1.24-1.352.956-1.248.582-1.787.58-1.803.616-4.395 1.898-1.006.537-.59.496-.563.676-.703 1.299-.554.803-1.214 1.23-1.222 1.035-1.916 1.598-.937.649-.98.556-4.49 2.29-2.68 1.18-1.291.427-1.11.367-.875.453-2.619 1.829-1.925 1.315-1.595.898-1.526.777-1.439.428-.758.17-.989.304-1.174.483-1.05.65-1.17.871-1.508 1.436-3.399 3.179-.668.487-.546.235-1.23.278-2.645.496-1.847.281h-2.332l-1.196.051-2.619.556-1.387.154-2.8-.145-2.965-.599-1.196-.256-3.165-1.103-2.696-1.444-2.42-1-1.352-.649-1.24-.794-3.433-2.222-2.887-1.394-1.915-.811-.98-.171-.703-.018-.693.137-.98.641-1.881 1.65-1.076.64-1.976 1.017-1.37.906-2.375 1.966-1.44 1.162-1.69.88-1.578.624-1.552.906-2.133 1.7-4.43 4.581-2.375 2.735-1.786 2.17-1.51 2.025-.849.735-.745.462-1.613.675M571.478 125.434l5.459-2.024 6.294-1.863 1.804-.633.958-.452.576-.403.598-.7 1.327-1.957 5.175-8.247 2.055-2.607.399-.71.486-1.059.554-1.564.685-1.982.694-1.513 1.179-1.966.33-.453.407-.24M571.478 125.434l-1.823.676-9.538 4.188-4.507 2.051-3.018 1.59-8.964 4.99-2.046 1.325-1.786 1.051-4.162 2.103-5.6 2.615-4.405 1.743-8.652 2.82-9.363 3.898-2.047.683-2.219.615-8.01 1.744-5.306 1.265-3.642.991-1.942.65-5.045 1.811-2.602.923-2.809.701-3.537.632-3.693 1.111-2.116 1.026-1.855 1.162-.936.855-.85 1.504-1.092 3.419-1.43 7.084-1.96 6.529-1.37 4.948-.65 1.778-.806 1.358-2.532 3.76-2.063 2.932" clip-path="url(#p788f4c544b)" style="fill:none;stroke:#000"/><path d="m589.095 156.907 2.29 3.452.207.615-.173.855-.555 1.504-1.075 2.153-.382.377-.832.205-1.214.58-2.74 1.574-1.803.649-2.011.479-1.006.683-1.977 2.017-5.445 7.384-1.768 1.812-5.41 5.195-1.284 1.368-2.08 2.017-10.44 12.716-2.392 1.607-2.81 3.18-6.069 3.828-6.797 5.435-3.642 2.633-1.872 1.777-2.636 1.368-5.618 1.538-1.075-.103-2.185 1.744-.313.376-28.922 4.034-9.294 1.675-.415-.103-2.88.308-1.456.307-8.52.723-.947.08-6.758-13.93-7.694-17.054M542.47 618.59l-1.686-2.19-4.3-6.546-2.93-5.16-2.133-3.93-.486-1.333-.26-1.06-.07-.854.053-1.64-.156-1.607-.59-2.085-.242-.803-.33-.906-.26-.324-.338-.29-.581-.3-.885-.35-1.543-.402-1.144-.41-.65-.36-.694-.64-1.014-1.162-1.084-1.52-5.566-8.297-2.427-3.657-4.803-7.297-1.422-2.281-.98-1.24-.694-.743-.72-.743-2.002-1.59-1.864-1.529-1.161-.811-1.067-.607-1.3-.923-1.11-.923-3.416-3.576-1.058-.974-1.214-.97-.918-.598-3.78-2.46-6.078-4.162-1.3-.99-.92-.813-.737-.845-.736-.932-1.344-2.563-1.628-3.238-.28-.556-1.594-2.717-1.336-2.068-3.398-4.973-3.745-5.041-4.127-5.23-3.278-4.46-2.323-2.7-.902-1.162M396.022 563.817l2.04-2.357 4.388-4.974 5.323-5.553 9.172-9.673 6.156-6.46 3.555-3.417 1.63-1.384 1.248-1.197 2.792-3.092 2.913-3.657 7.716-9.075 7.577-8.733 1.387-1.196M580.422 630.138h-2.878l-8.948-.034-8.305-.085-1.717-.325-3.156-.632-4.282-1.435-2.705-.957-1.058-.89-.59-.836-1.96-2.957-2.353-3.397M592.144 155.573l1.907-1.06M589.095 156.907l1.592-1.197 1.457-.137M589.095 156.907l-.486-1.13-2.15-3.69-4.23-6.12-.278-.24-1.04-1.811-4.648-9.948-4.785-8.534M323.729 393.264l-4.67 1.892" clip-path="url(#p788f4c544b)" style="fill:none;stroke:#000"/></g><path id="PatchCollection_1" d="m366.817 379.951-.104 1.35 1.023 1.743 1.474 1.368 1.3.46.902-.12.676-.392.035-.735-.624-.41-.382-1.128.26-.632 1.231-.735.434-.615-.226-1.077-.85-.223-1.89.53-1.594-.153-1.318.239z" clip-path="url(#p788f4c544b)" style="fill:#00f;fill-opacity:.8"/><g id="PatchCollection_2"><path d="m292.66 413.298.345.07-.104.5-.345-.07zM291.308 412.888l.445.152-.139.393-.445-.152zM291.923 413.089l.337.11-.16.475-.337-.11zM290.597 412.657l.39.112-.152.513-.39-.112zM289.882 412.516l.463.139-.147.478-.464-.138zM289.249 412.23l.32.1-.182.568-.32-.1zM288.494 412.072l.38.111-.157.517-.378-.111zM287.81 411.87l.47.142-.144.462-.47-.142zM287.203 411.649l.386.123-.17.513-.385-.123zM285.378 411.15l.592.211-.156.423-.592-.212zM285.148 411.79l.51.206-.169.406-.51-.206zM284.61 413.174l.457.19-.156.364-.456-.19zM284.897 412.507l.45.204-.148.316-.45-.203zM284.385 413.904l.428.174-.16.384-.428-.173zM285.88 414.255l.478.177-.19.5-.478-.177zM286.657 414.426l.457.151-.17.496-.456-.152zM287.264 414.644l.392.143-.178.474-.392-.143zM287.975 414.844l.351.134-.177.457-.352-.133zM288.712 414.952l.42.139-.204.598-.42-.14zM290.805 415.66l.35.114-.172.521-.351-.113zM290.038 415.468l.388.129-.169.496-.388-.129zM289.392 415.02l.397.143-.252.679-.396-.143zM315.9 392.038l.609-.238.182.453-.61.238zM319.363 393.738l.159.39-.134.053-.158-.39zM319.363 393.738l.42-.166.24.585-.421.167zM319.073 393.328l.655-.226.117.331-.654.227zM318.47 391.816l.529-.18.143.41-.529.18zM320.823 393.054l.218.486-.215.095-.219-.487z" clip-path="url(#p788f4c544b)" style="fill:#a9a9a9;fill-opacity:.8"/><path d="m320.746 392.884.444-.194.3.667-.445.194zM321.145 392.516l.618-.284.407.858-.617.285zM324.145 391.607l.54-.234.355.799-.54.233zM322.666 392.153l.54-.22.222.525-.54.22zM322.277 389.504l.555-.276.343.671-.556.276zM321.596 389.795l.436-.201.316.666-.436.201zM320.902 389.97l.422-.208.35.693-.42.207zM320.274 390.209l.424-.207.23.457-.425.208zM319.624 390.384l.421-.194.347.73-.422.195z" clip-path="url(#p788f4c544b)" style="fill:#a9a9a9;fill-opacity:.8"/></g></g></g><defs><clipPath id="p788f4c544b"><path d="M128.284 86.4h481.432v554.4H128.284z"/></clipPath></defs></svg>