<svg xmlns="http://www.w3.org/2000/svg" xmlns:xlink="http://www.w3.org/1999/xlink" width="960" height="960" viewBox="0 0 720 720"><defs><style>*{stroke-linejoin:round;stroke-linecap:butt}</style></defs><g id="figure_1"><path id="patch_1" d="M0 720h720V0H0z" style="fill:#fff"/><g id="axes_1"><path id="patch_2" d="M90 638.117h558V89.083H90z" style="fill:#fff"/><g id="LineCollection_1"><path d="m550.953 260.88-2.049 1.06-3.829 1.968-1.51.7-.967.229-1 .086-1.196-.099-1.116-.319-1.335-.76-1.545-1.317-7.505-7.704-1.816-1.448-.83-.45" clip-path="url(#pc915db87a1)" style="fill:none;stroke:#000"/><path d="m519.734 253.202 1.34-.605 1.72-.389 1.374-.004 1.037.209 1.05.413" clip-path="url(#pc915db87a1)" style="fill:none;stroke:#000"/><path d="m521.978 244.428.939 1.002.432.639.382 1.014 1.784 3.487.294.708.182.976.264.572M510.364 264.131l.949-1.352 1.541-1.845 1.279-1.756.04-.05 1.256-1.495 2.584-3.15.97-.819.751-.462M518.922 249.819l.132.632.27.614.41 2.137M498.685 272.908l1.368.556.798.287.873.213 1.772.425 2.032.458 1.091.196.512.033.571-.008.462-.082.403-.172.378-.18.487-.45.336-.425.16-.336.117-.434.1-.54.068-.679.025-.499-.059-.662-.075-.557-.194-1.824-.05-.884-.025-.654-.008-.54.042-.475.058-.384.067-.311.101-.336.269-.513" clip-path="url(#pc915db87a1)" style="fill:none;stroke:#000"/><path d="m498.685 272.908.59.039.395-.207 2.242-1.434.47-.394 3.105-3.5.262-.357.276-.926.37-.338.72-.414.388-.457.47-.375.963-.426 1.428.012M497.996 272.589l.689.319M492.781 288.237l.477-.12.116-.201.147-.85-.32-.954.427-1.338.37-.377.461-.698-.05-.288.157-.545-.189-1.187.263-.56-.074-.265-.526-.69-.354-.825-.132-1.29.14-.241.477-.353.321-.481.519-1.37.51-1.019.271.129.938-.225.691-.577.575-1.323M483.948 263.344l.244.212.706.687 1.36 1.923.58.745.553.655.562.515.429.294.621.36.655.336 2.972 1.227 5.366 2.29M299.796 292.065l.697.446.797.507.458.29.852.643" clip-path="url(#pc915db87a1)" style="fill:none;stroke:#000"/><path d="m331.467 331.715-1.872-2.87-5.617-8.125-4.115-5.956-4.038-6.038-2.083-3.076-4.676-6.946-1.16-1.587-.654-.835-.63-.646-.949-.67-.923-.492-1.033-.368-1.117-.155M295.874 297.501l.84-1.12.58-.581.486-.459.647-.384.924-.475.949-.286 1.108-.196 1.192-.05M295.874 297.501l.021-.782M295.874 297.501l-.285.716M419.022 325.273l1-.95.7-.543.756-.491 2.398-1.366.835-.548 1.255-.921 1.486-1.137.32-.315.205-.315.408-.634.289-.294.437-.226.722-.225.873-.184M434.3 313.987l-2.956 2.569-.638.568" clip-path="url(#pc915db87a1)" style="fill:none;stroke:#000"/><path d="m418.985 327.78.587-.646 3.72-3.338 1.478-1.284 2.611-2.283 3.325-3.105M408.987 336.426l1.483-1.282 1.68-1.53 1.821-1.62 1.508-1.354 1.029-.904.658-.577.584-.511.37-.295.407-.266.458-.307" clip-path="url(#pc915db87a1)" style="fill:none;stroke:#000"/><path d="m408.187 354.222.159-.605.1-.442.564-1.701 3.702-10.178 1.436-3.91.244-.72.293-.794.428-1.21.488-1.318.344-.892.269-.58.705-1.35.344-.557.772-1.039.95-1.146M408.187 354.222l-4.308-4.475M408.187 354.222l-.085.63M404.801 362.694l.632-.587 1.763-1.75.344-.49.206-.302.138-.275.11-.363.046-.328.03-.704-.034-1.48.066-1.563M410.014 364.725l.063-.425-.014-.253-.043-.78.27-.376.72-.476.256-.338.144-.413.025-.658-.163-.394-1.27-1.22-.802-1.529-.27-1.444-.828-1.567M398.757 370.609l.622-.916M394.81 386.235l.69-3.093 1.158-5.252.924-4.173.37-1.489.42-.916.385-.703M401.8 374.366l-.138-.35-.526-1.49-.394-.576-.808-.644-1.177-.697M352.69 357.986l-.158-.209M372.169 397.286l-3.985-6.639-.525-.968-.616-1.088-.512-.853-.718-1.216-1.104-1.53-1.242-1.376-.976-1.022-2.491-2.213-1.185-1.452-.89-1.48-.361-.737-.214-.683-.107-.473-.143-.528-2.234-11.848-.54-1.897-.403-1.07-.653-1.264-.58-.963M347.563 362.52l.226-.924.928-1.005 1.693-1.02 1.89-1.42.39-.165M345.348 360.561l.793 1.06M347.563 362.52v.441l.588.66-.068.55-.362.42h-.429l-1.017-1.608-.134-1.362" clip-path="url(#pc915db87a1)" style="fill:none;stroke:#000"/><path d="m347.563 362.52-.294-.043-.451-.22-.677-.636M336.572 339.184l2.478 1.757M336.572 339.184l1.795 2.374M333.122 334.203l2.463 3.71.987 1.271M350.99 343.3l5.29.172M350.99 343.3l-.589-.057M355.306 335.896l-1.94 3.38-1.73 2.756-.219.4-.428.869M356.28 343.472l1.174.12M355.112 347.39l.328-.547.176-.446.663-2.925M363.702 345.108l.806-1.464M363.702 345.108l-2.04-.646M366.23 345.836l-1.227-.327-1.301-.4M377.22 348.57l-5.202-5.474M371.452 347.485l.915.25.882.196 1.864.335 2.107.303M380.285 351.203l-1.537-1.317-1.528-1.317M386.666 356.7l-.811-.739M386.666 356.7l.815.864M390.697 357.364l-.613-.09-.714-.082-.739-.131-.814-.131-1.15-.23M389.097 359.102l1.6-1.738M392.368 362.592l-1.008-1.26-.237-.272-2.026-1.958M389.097 359.102l-1.616-1.538M395.042 366.125l-.194-.131M395.92 361.798l-.379 2.25-.176.834-.323 1.243M399.379 369.693l-1.738-1.686-.463-.442-.52-.36-1.616-1.08M399.379 369.693l2.326-3.132M331.467 331.715l1.655 2.488M333.122 334.203l.714-.696 1.246-1.084.063-.167.011-.144-.04-.187-.768-.99-.14-.079-.188-.052-.147.014-1.55.527-.856.37M369.47 342.94l-.965.957M372.018 343.096l-.805.192-.29.065-.227.02-.243.013-.257-.037-.201-.077-.525-.331M372.018 343.096l-.873-.838-.241-.185-.135-.062-.19-.044-.164.024-.145.068-.128.09-.145.14-.527.652M368.505 343.897l1.897 3.195M366.863 341.656l.739.96.903 1.281M353.39 347.145l-9.857-1.718-2.3-.433M351.08 356.112l-.752-.794-9.095-10.324" clip-path="url(#pc915db87a1)" style="fill:none;stroke:#000"/><path d="m338.367 341.558.682.8 2.184 2.636M370.402 347.092l1.05.393M366.23 345.836l1.292.344 1.948.582.378.134.554.196M355.112 347.39l-1.721-.245M353.39 347.145l-.218.978-.025.229.038.172.118.115.184.085.193-.008.202-.074.226-.184 1.004-1.068M388.694 352.846l-.787-.722-.772-.562.182-.616-.182-.985M391.553 350.483l4.492-4.865M398.178 343.17l-2.02-1.952-.128-.102-.126-.025-.125.027-.118.071-.336.367-4.616 4.657-.583.601-.151.184-.097.205v.159l.055.18.087.193 1.181 2.146.352.602" clip-path="url(#pc915db87a1)" style="fill:none;stroke:#000"/><path d="m392.754 354.46-.437-.851-.16-.647-.268-1.145-.336-1.334M388.694 352.846l2.756-1.836.103-.527M385.855 355.961l1.441-1.473 1.398-1.642M392.754 354.46l1.23-1.625" clip-path="url(#pc915db87a1)" style="fill:none;stroke:#000"/><path d="m390.697 357.364.462-.63.386-.532.352-.524.857-1.219" clip-path="url(#pc915db87a1)" style="fill:none;stroke:#000"/><path d="m396.167 357.7-.075-.594-.055-.282-.08-.242-.1-.306-.274-.516-.722-1.215-.059-.055-.085-.035-.091-.012-.682.049-.504.004-.686-.037M380.285 351.203l2.493 2.16 3.077 2.598M396.184 353.15l.109.206M395.357 350.851l.722.528.15.16.093.166.059.263v.307l-.016.356-.056.31-.125.21" clip-path="url(#pc915db87a1)" style="fill:none;stroke:#000"/><path d="m393.984 352.835.76.307.453.09.327.025.4-.012.26-.095M396.167 357.7l1.986-.75M395.92 361.798l.1-1.26.092-1.71.055-1.129M399.877 360.95l-3.958.848M399.877 360.95l1.828 5.611M399.877 360.95l-1.724-4M404.801 362.694l-.312.29-.812.94-1.186 1.54-.786 1.097M563.191 263.443l-.653-.789-.258-.217-.227-.087-.265-.009-.195.099-.174.237-.26.965-.235.618-.88 1.567-.281.27-.25.139-.307.028-.192-.026-.141-.062-.13-.192-.156-.567-.107-.45-.14-.282-.161-.15-.199-.079-.612-.07-.831-.007-.467-.05-.424-.094-.738-.319-.584-.34-1.306-1.059-.972-.822-1.093-.814M545.498 220.494l.557 3.98.998 5.834 1.53 6.72.532 1.75.599 1.447 2.255 4.48 1.358 2.715.799 1.793.257 1.04.247 1.464.118 2.349-.109 1.587-.395 1.293-.924 1.603-.983 1.197-.415.403-.97.732M566.099 265.713l-.33.843M565.769 266.556l-2.578-3.113M567.64 267.413l-1.025-.563-.846-.294M567.64 267.413l.357.14M568.993 268.565l-1.118-.579-.235-.573M569.102 268.283l-.109.282M569.745 269.282l-.159-.346-.593-.37M581.374 333.146l-.251-.921.067-1.211-.559-1.636.087-.282-.142-1.229-.173-.554-.319-.47-.877-2.189-.386-.375-.24-1.119-.223-.15-.395-1.7-.386-2.274.164-.217-.096-.657.038-1.475-.299-1.57-.501-.366-.145-.404.164-.272-.216-1.435-.214-1.289-1.003-3.18.49-1.518-.02-2.495-.15-1.08-.896-1.622-.768-.936-.81-1.497-.513-1.226-.405-1.393-.235-2.079.533-1.788-.362-.582.021-.54-.33-.696M570.392 292.858l.369-1.158 1.263-.981" clip-path="url(#pc915db87a1)" style="fill:none;stroke:#000"/><path d="m569.745 269.282.33.718-.392 1.397.148.656.376.442.2.511.106.656-.603.494-.202.434-.375 1.396.131.648 1.11 2.98.21 1.575.557 2.212.495 1.414.734 1.297.58.283.29.432.035.932-.384.817-.125.677-.617.318-.24.583-.085.565M566.505 300.517l2.086-1.798.678-.916.906-.873.437-.713.59-1.32-.098-.585-.426-1.16-.286-.294M536.819 312.247l.337-.539.181-1.451.424-.937.334-.569.677-.744.941-.623 1.607-.394.576-.298.681-.11.652-.496 2.036-.955 1.112.08.745.435.562 1.305 1.775 1.464 1.093.399 1.31.217.492-.28.752-.883.803-.43 1.78-.62.836-.499 1.179-.432 1.177-.616.99-.682.751-.864.444-.765.734-.965.324-.732 1.11-1.646.939-.55.614-.648.836-.631.803-.45.802-.815.221-1.397.223-.731.836-1.031.41-.383.477.15.997-.273M527.834 312.256l1.242.734M521.139 307.184l.268-.544.162.024.323-.25.009-.187.386-.452.165-.29.06.021.86.692.14.272.515.348.359.25.477.714.99 2.346 1.98 2.128" clip-path="url(#pc915db87a1)" style="fill:none;stroke:#000"/><path d="m521.139 307.184-.1.305-.106.235.03.788-.348.179-.019.245.135.253-.328.16-.116.432.27.893.02.479-.174.423.386.648 1.176.131.636.235.203.16 1.514.085.666.45.337.02.895-1.044 1.618-.005M533.205 316.18l-2.643-2.357-1.486-.833" clip-path="url(#pc915db87a1)" style="fill:none;stroke:#000"/><path d="m530.109 312.413-.567.347-.466.23M530.109 312.413l.578-.322.954.266M534.917 313.554l-1.348-.433-.752-.15-1.176-.614" clip-path="url(#pc915db87a1)" style="fill:none;stroke:#000"/><path d="m569.745 269.282-.974.68-.219.655-1.041.982 1.31 1.096-5.273-.262-1.546.556v1.931l-1.444.688-.856 1.145-1.159 2.389.303 2.226-1.243 2.028v1.343l-.739 3.468-.907 2.586-1.578.36-.907 1.832-3.124 2.095-.1 1.21-.908.295-.805 1.669-.168 1.637-1.982.817-2.82 4.026-5.778 1.8-2.35 1.57-2.52 1.833-1.276 2.42M533.205 316.18l.784-1.184.536-.934.392-.508" clip-path="url(#pc915db87a1)" style="fill:none;stroke:#000"/><path d="m536.819 312.247-.98.907-.427.283-.495.117M533.74 320.239l.298-1.175.048-.789.338-.855-.058-.348-.405-.281-.396-.113-.36-.497M607.653 132.812l-1.83.373-2.126.36-16.338 2.565-5.494 1.043-1.58.405-1.151.509-1.14.948-1.632 1.999-5.87 9.128-2.755 3.997-1.108 1.08-1.351.966-5.014 3.24-1.183 1.148-.54.948-.415 1-.187 1.34.117 1.995.744 5.02 1.013 6.057.645 4.7.06 1.596-.09 1.16-.269.896-.6 1.06-.969 1.114-5.636 5.202-2.79 2.422-.836.466-.902.23-.899.024-2.498-.347-1.092-.079-1.192.14-1.119.482-.878.803-.652 1.059-.239.867v.97" clip-path="url(#pc915db87a1)" style="fill:none;stroke:#000"/><path d="m545.498 220.494-.24-1.723-.844-5.077-.421-1.859-.824-2.59-2.236-5.771-.753-2.418-.323-1.359M532.153 180.756l.394.68.269.818.74 1.358.805 1.063.504.835-.017.998-.117.77-.32.785.101 1.407.202 1.57-.336 1.155-.605 1.26.664 1.235 1.25 1.342 1.05 1.113.827.613.962.48.548 1.038.26.29.277.152.246-.02M398.178 343.17l2.413-2.584M398.178 343.17l-2.133 2.448M398.519 338.711l-1.415.17-.388.143-.176.332.032.382.332.858 1.214 1.953.06.62M358.034 343.676l-.58-.085M361.662 344.462l-1.268-.31-.958-.222-1.402-.254M359.65 340.963l-.927 1.233-.253.45-.436 1.03M396.977 348.733l-.68.916-.94 1.202M393.984 352.835l.407-.609.966-1.375M358.914 353.18l-1.795-1.944-.193-.327-.067-.32.042-.433.184-.392.277-.402 4.3-4.9M370.603 348.606l.278-.295.222-.307.349-.52M366.011 349.616l1.226-.405.411-.082.474-.065.395-.037.37-.037.415-.04.382-.054.387-.094.532-.196M369.982 353.285l.861-.707.424-.397.34-.344.235-.25.055-.167-.038-.16-.058-.171-.114-.3-1.084-2.183M369.982 353.285l-1.545-1.207-.545-.499-.546-.564-.664-.695-.671-.704M359.47 353.515l.617-.385.588-.41.844-.654.566-.408.441-.295.546-.336.76-.421 1.003-.5 1.176-.49M380.285 351.203l-7.02 5.924M369.982 353.285l3.284 3.842M367.17 358.656l-1.272-1.88-.025-.088.005-.054.035-.048.526-.41.16-.197.104-.18.412-.818.158-.221.199-.178.315-.176.462-.205.566-.286.6-.315.567-.315M359.47 353.515l-.556-.335M359.046 353.768l.264-.16.16-.093M359.47 353.515l2.863 3.974M359.046 353.768l.76 1.043 2.192 2.951M352.532 357.777l1.69-1.068 2.217-1.374 1.406-.867.768-.446.433-.254M359.046 353.768l-.132-.588M373.266 357.127l2.04 2.568M379.395 365.038l2.894-2.56.205-.194 4.987-4.72M375.306 359.695l4.089 5.343M367.17 358.656l.717 1.019.133.085.11.036.125.022.13.026.12.07.113.114.092.103.227.304 1.385 1.899.103.13.116.074.155.01.168-.055.183-.106.497-.376.206-.14.28-.175 1.265-.733 2.011-1.268M364.353 360.223l2.816-1.567M364.353 360.223l-.466.376M364.353 360.223l-.801-1.15M364.353 360.223l2.352 3.172M363.887 360.6l2.297 3.169M364.046 370.085l-2.441-3.889-.051-3.745 2.333-1.852M363.887 360.6l-.81-1.213M379.395 365.038l1.466 1.975M380.861 367.013l.222.611M380.861 367.013l.562.318M364.046 370.085l10.26 16.403M364.046 370.085l-2.192 1.39" clip-path="url(#pc915db87a1)" style="fill:none;stroke:#000"/><path d="m372.569 377.767-1.27-1.818-4.524-6.604-.21-.27-.164-.184-.185-.082-.18.008-.185.045-.386.245-1.42.978M384.803 371.746l-1.405-1.907M390.822 368.302l-1.746.76-1.26.655-.965.572-.554.328-.52.368-.974.76M384.803 371.746l.621.774M361.854 371.476l9.857 15.827M369.464 388.66l-.943-1.485-1.083-1.66-2.494-3.943-2.577-4.124-2.15-3.256-.26-.466-.16-.368.009-.344.134-.253.294-.254 1.62-1.031M379.546 372.695l4.954 7.028M379.546 372.695l1.091-.803M379.546 372.695l-2.074 1.587M377.472 374.282l4.954 6.872M377.472 374.282l-2.04 1.505M375.432 375.787l-.772-1.076M375.432 375.787l-.563.41M375.432 375.787l1.237 1.812M374.869 376.197l1.297 1.772M374.869 376.197l-2.3 1.57M374.869 376.197l-.731-1.12M388.765 376.893l-.377.275M388.765 376.893l-.319-.435-1.377-1.783M388.765 376.893l.058.406M372.569 377.767l4.735 6.66M384.5 379.723l1.138-.745M384.5 379.723l-2.074 1.431M382.426 381.154l-2.258 1.416M380.168 382.57l-1.33-1.832M380.168 382.57l-.58.392M381.257 384.445l-.233-.444-.856-1.431M379.588 382.962l-2.284 1.465M379.588 382.962l1.116 1.362.286.28M379.588 382.962l-1.25-1.894M377.304 384.427l-2.997 2.061M394.81 386.235l-.137.528M393.746 384.57l.31.455.755 1.21M374.307 386.488l-2.192 1.465M382.478 399.462l-.254-.62-7.917-12.354M372.115 387.953l-.404-.65M379.46 399.994l-1.57-2.696-5.775-9.345M382.478 399.462l-1.697.32M385.002 398.632l-.99.425-1.534.405M379.46 399.994l-1.724.156-1.221-.094-.706-.164-.141-.015M372.169 397.286l.848.91.932.76 1.719.921M369.464 388.66l2.365 3.727 1.789 2.871 1.319 1.988.81 1.276.06.241.015.303-.154.811M364.244 338.359l-4.728-5.204-1.15-1.39-1.247-1.58M366.04 336.686l-1.796 1.673M366.863 341.656l-.462-.556-.243-.344-.269-.376-.185-.242-.226-.318-.353-.43-.881-1.031M368.38 340.255l-1.517 1.4M399.27 345.673l3.156-3.804M399.27 345.673l-1.369 1.734M403.879 349.747l-.974-1.039-.42-.392-.529-.442-.411-.336-.73-.556-1.545-1.31M396.977 348.733l.924-1.326M399.937 352.344l-.878-1.173-.453-.565-.621-.679-1.008-1.194M403.879 349.747l-3.554 3.093M403.273 341.042l1.438 1.822-.053.318-.01.229.016.32-.019.179-.035.216.004.312.15.797.286.986.425.863.467.818.011.08-.014.065-.03.057-.54.437-1.49 1.206M399.937 352.344l.388.496M396.293 353.356l.882-.238 1.187-.315 1.575-.459M400.325 352.84l.865 1.376M398.153 356.95l-1.86-3.594M401.19 354.216l-.897.463.353 1.489-2.493.783M383.018 370.142l-2.38 1.75M383.018 370.142l2.016 2.64M383.018 370.142l.38-.303M383.018 370.142l-1.935-2.518M352.45 327.159l-.516-1.571-.164-.413-.264-.536-.202-.335-.222-.34-.256-.41-.78-1.242M359.65 340.963l-.47-.293-.365-.274-.172-.164-.143-.176-2.473-3.325-.721-.835M352.45 327.159l.353 1.129.235.748.042.266-.042.188-.126.197-.071.151-.03.2.034.197.067.229.412.962-.043.216-.087.241-.202.54-.004.246.034.208.075.23.198.298 2.01 2.491M359.65 340.963l2.146 1.135 2.712 1.546M366.23 345.836l.07-.654-.03-.147-.083-.147-1.68-1.244M401.19 354.216l.296.57.294.565 2.028 4.979.712 1.671.281.693M381.083 367.624l.34-.293M376.405 371.484l1.546-1.203 1.528-1.219.68-.596.924-.842M391.47 371.558l-.152-1.326-.496-1.93M394.848 365.994l-.394.455-.147.118-.143.097-.155.075-.161.037-.147.024-.126.01-.154.056-.16.088-.131.082-.183.119-.16.112-.365.25-.433.253-.369.2-.798.332M392.04 375.293l-3.045 2.23M391.47 371.558l.167 2.11.16.806.243.819M392.04 375.293l2.372-1.544.174-.103.158-.073.128-.023.136.008.105.037.103.073.98 1.494.055.2.025.233-.779 3.166-.077.155-.1.111-.131.068-.157.012-.19-.043-.157-.106-2.223-3.11-.422-.555" clip-path="url(#pc915db87a1)" style="fill:none;stroke:#000"/><path d="m392.04 375.293.422.555 2.223 3.11.158.106.189.043.157-.012.132-.068.099-.11.077-.156.78-3.166-.026-.233-.055-.2-.98-1.494-.103-.073-.105-.037-.136-.008-.128.023-.158.073-.174.103-2.372 1.544M388.823 377.3l.172.223M388.823 377.3l-.435-.132M389.781 378.715l-.786-1.192M389.781 378.715l1.403 2.07M389.781 378.715l-8.524 5.73M391.184 380.786l1.323 1.937M391.184 380.786l-6.83 4.313M392.507 382.723l1.239 1.847M392.507 382.723l-6.812 4.403M393.746 384.57l-6.694 4.456M382.334 386.406l-3.645 2.422M382.334 386.406l2.02-1.307M382.334 386.406l-.963-1.59M383.706 388.363l-.466-.664-.906-1.293M394.358 387.838l.315-1.075M394.358 387.838l1.51-.335M389.828 395.192l1.07-1.17.689-.834 1.142-1.702.722-1.39.907-2.258M385.695 387.126l-1.99 1.237M385.695 387.126l1.357 1.9M385.695 387.126l-1.341-2.027M383.706 388.363l1.432 1.97M379.983 390.791l2.485-1.627 1.238-.8M378.69 388.828l1.293 1.963M380.99 384.604l-2.762 1.676-.366.233-.27.228-.067.158-.004.164.073.182.126.196.164.238.805 1.149M385.138 390.333l-3.938 2.397M385.138 390.333l1.914-1.307M385.138 390.333l1.3 1.877M379.983 390.791l1.217 1.94M386.437 392.21l-3.96 2.484M394.673 386.763l-2.23 1.476-2.3 1.489-3.706 2.482M389.828 395.192l-.92-.441-.529-.328-.428-.318-.403-.377-1.11-1.518M381.2 392.73l1.277 1.964M385.002 398.632l-.506-.756-.11-.151-1.91-3.031M385.002 398.632l.706-.303 1.092-.723 1.12-.721 1.908-1.693M400.591 340.586l.378-.406M400.591 340.586l1.835 1.283M403.273 341.042l-.091.094-.756.733M396.045 345.618l1.856 1.79M389.553 363.244l.944-.027.459.005.147-.01.129-.039.384-.236.752-.345" clip-path="url(#pc915db87a1)" style="fill:none;stroke:#000"/><path d="m393.9 364.931-.39-.544-.408-.613-.39-.634-.344-.548M389.293 362.927l.26.317M389.553 363.244l-.422.287M390.835 365.463l-.584-.822-.309-.568-.39-.829M383.398 369.84l-1.975-2.51M390.835 365.463l-.424.794-.173.314-.228.22-6.612 3.048M362.333 357.489l-.335.273M362.333 357.489l1.219 1.584M361.998 357.762l1.08 1.625M363.552 359.073l-.474.314M366.705 363.395l-.521.374M366.705 363.395l3.433 4.898M366.184 363.769l3.404 4.855M370.138 368.293l-.55.331M370.138 368.293l2.477 3.5M369.588 368.624l2.481 3.504M372.615 371.793l-.546.335M374.66 374.71l-1.838-2.622-.207-.295M372.07 372.128l2.068 2.949M374.66 374.71l-.522.367M376.669 377.6l-.503.37M376.669 377.6l2.168 3.138M376.166 377.97l2.172 3.098M378.837 380.738l-.499.33M500.502 306.69l-.264-.631.033-.802-1.007-.687.06-1.74.186-.985-.267-.363-.477-.08-1.07-.441-.908-.749.082-.136.954-.6.128-.545-.245-.646.14-.363-.221-.386-.559-.305-.244-.443-.268-1.847-.558-.556-.872-.397-.28-.397-.21-.646-.046-.635-.174-.43-.105-1.395-1.338-1.043-.163-.238.105-.362-.035-.397-.098-.208M465.097 316.504l.387-.556.404-.185.724-.753.173-.36.255-1.203.222-.313.279-.24.173.032 1.218-.433.378-.874.23-.144-.016-.441.263-.264.297-1.179.328-.352.19-.53.617-.216.699.096.584-.08.485-1.194.675-.546.09-.176-.008-.368.206-.313 1.028-1.098.173-.994.551-1.179 1.226-1.346 1.645-1.098 1.72-1.467.609-.305 1.127-.4.28-.009 2.188-.61.946-.448 1.908-.289.51-.152.84-.777.255-.626.05-1.226-.116-1.42-.165-.52-.074-.24.058-.177.378-.152.543-.626.09-.384.223-.233.477-.264 1.711-1.988.32-.008.33.36M437.398 311.23l1.023.61M437.398 311.23l-3.098 2.757M443.67 305.765l-2.913 2.634-3.36 2.83M465.097 316.504l-.52.682-.431.25-.489.007-.413-.163-1.772-1.058-1.02-.826-1.346-1.39-2.154-2.56-1.002-.965-.388-.225-.557.05-1.234.713-.67.526-1.558 1.51-.708.462-1.296.639-.707.188-1.077-.138-2.129-.044-.563.094-2.355 1.29-.801.313-.858.088-.782-.15-.363-.32-.458-.776-.563-.714-.119-.45.125-.696-.112-.582-.356-.42M434.3 313.987l1.525-.369 1.48-1.122 1.116-.656M500.502 306.69l-.576.457-.523.51-1.344.51-.759.696-.693.083-.448.437-.747 1.175-.811.073-.139.166-1.142.405-1.44 1.02-1.09.478-.991.302-.16.27-.769.155-.555-.01-4.78 1.747-1.665.894-.747.634-.95.427-.331.218-.395.738-.33 1.134-.246.51-.235.218-1.323.332-.406-.01-.277-.79-.683-.021-1.1-.728-1.024.395-1.238-.478-1.611.25-.662-.157-.576-.26-1.302-1.133-.81-.072-.492-.198-.31.062-.447-.072-.363-.26-.363-.063-.552-.23M405.072 339.455l.68-.523 1.931-1.391 1.304-1.115M409.236 334.812l-.164.364-.054.381-.031.87M520.813 305.773l.133-.128.238-.366" clip-path="url(#pc915db87a1)" style="fill:none;stroke:#000"/><path d="m521.139 307.184-.21-.023-.15-.295.034-1.093" clip-path="url(#pc915db87a1)" style="fill:none;stroke:#000"/><path d="m500.502 306.69.406-.073.982-.666.444-.33.776-.334.794-.368.472-1.234.882-1.172.721-.668.396-.908v-.328l1.117-1.1.116-.272.536-.238.267-.385.198-.023.093.125.326-.113.593.271.186-.124.268-.023.186.114.267-.046.245.09V299l.256.068.337.318.21.42.372.362.081.238.256.08.256-.103.536-.022.116.204.407.34.594-.034-.047.26.268.273-.035.249.85.816 1.477.227.302.238.651-.068.908.691.593-.022.256.51.768.43.384.613.244.686M575.588 336.012l.327-.113.136-.188.636-.131 1.1.272 1.186-.883.26-.385.511-.442.405.01.463-.245-.058-.254.366-.094.454-.413M554.862 361.593l.803-.119.79-.451.522-.15.444.037.559-.432.02-.432.578-.038.385.188.695-.225 1.678-.902.327-.376.328-.188.83-1.278.057-.658.56-.563.135-.977-.136-.62.425-.583.212-1.522.463-.583.135-1.014-.386-.508-.019-.45.579-.771-.116-.489.154-.376-.617-1.202v-.432l.309-.884.096-.714-.173-.413.096-.338-.29-.733.29-.602.482-.319.906-.3.29-.32.038-.508.29-.3.173-.338.675-.64.02-.338.211-.075-.057-.47.173-.545.637-.582-.039-.601.791-.583-.096-.545-.213-.244.733-.808.52-.301.58-.582.655-.188 1.1.094.617.15.366-.019.193 1.297.386.338 1.273-.207.289.15M536.819 312.247l.567.447.351.643.585.432.531.2.825.052.032.315.014.363.091.182.309.17.144.553-.03.64 1.08.807.069.761.24.395-.076.394.26.78.02 1.006.163.282-.097.272.801.536.463.423.685 1.221.434.564.25.545.107.789.202.573.01.507.192.207.116.46-.067.283.202.328-.02.385.31.555.414.244.154.573.791 1.006.309.977.366.6.405.273.54.78.54 1.166.038 1.127.454.892.029 1.363-.126.31.068.76.212 1.044.231.563v.64l.628 2-.01.931.26.432v1.222l.164.262-.087.33.337 1.193-.038.93.434 1.297.338.319-.155.216v.874l.241 1.259-.183.329.097.46-.059 1.87.184.113-.048.216.135.404.202.16.048.432.482 1.278-.096 1.259.28.685.896 1.485.805 1.002M555.319 372.654l.554-.85-.202-.786.337-2.143-.94-1.604-.27-.933-.856-.654-.007-1.513.981-.797.273-.506-.136-.876-.191-.399M330.644 99.642l.82.867.401.482.507 1.04.257.319.708.438.313.32.37.563.631 1.314 1.033 1.403.1.426-.093 1.396.106 1.214-.094.827.05.382.476 1.127.232 1.521 1.402 2.035.182.47.019.538-.3 1.008-.42.732-.62.802-.464.776-.513.589-.983.845-.864.426-.739.52-.926.926-.658 1.233-1.27 1.979-.708 1.39-.589.889-1.377 1.408-.789 1.178-.307.594-1.12 3.513-.558.6-1.552.94-1.515 1.521-1.034.589-.745.6-1.152 1.165-.926.752-1.866.876-.32.232-1.176 1.615-1.647 1.396-.714.877-1.177.901-2.51.84-2.686 1.114-.896.15-1.327.025-.426.132-.801.532-1.327 1.133-1.465 1.728-1.065 1.66-.426 1.038-.901 1.365-.463.288-.558.138-2.485.376-.532.194-1.465.895-2.536 2.01-1.897 1.71-1.84 2.222-.477.958-.206 2.266-1.033 1.728-.489 1.716-1.008 2.291-.119 1.277-.613 3.644-.232 3.074.125.532.67 1.077.057.42-.076.432-.8 1.146-.364 1.29-.031.55.137.532.758 1.434.1.658.075 1.79.482 4.959.044 2.586.27 1.703-.038.563-.2.5-.89.909-.256.663-.138.827-.294.714-.739.92-.789 1.365-.4 2.598.089 1.399M295.043 285.737l-1.091-3.158-.554-1.514-.412-1.211-1.184-3.502-.554-1.677-.11-.63.026-.72.336-3.02.017-.744-.11-.547-.234-1.359-.244-1.195-.462-1.57-.503-1.26-.362-.912-.189-.512-.197-.286-.18-.254-.269-.253-.34-.307-.39-.377-.265-.273-.201-.41-.219-.54-.697-1.759-.688-1.685-.294-.679-.269-.81-.16-.777-.26-1.015-.16-1.252.043-.932.016-.393-.067-.254-.214-.601-.18-.634-.105-.2-.088-.113-.18-.196-.19-.17-.285-.376-.345-.72-.953-2.115-.167-.25-.256-.385-.412-.613-.454-.77-.394-.826-.78-2.078-.463-1.293-.109-.425-.059-.376-.16-.385-.344-.442-.276-.4-.21-.365-.14-.433-.07-.586-.009-.58.025-.884.202-3.837.05-.286.034-.336-.059-.376-.067-.279-.009-.351.085-.5.21-.662.104-.413.088-.286.072-.385.008-.307-.11-.847-.054-.384.055-.413.068-.377.205-.663.273-.573.185-.42.331-1.057.06-.351-.022-.425-.155-1.035-.042-.9.025-.95-.042-1.775.076-.892.16-.532.058-.294v-.287l-.084-.4-.185-.45-.143-.557-.185-.585-.146-.282M278.668 274.407l.837.12.605.103.58.16.55.212.428.221.5.328 2.615 2.102 7.943 6.038.965.728.664.59.688.728" clip-path="url(#pc915db87a1)" style="fill:none;stroke:#000"/><path d="m299.796 292.065-.357-.434-.466-.593-.882-1.244-1.192-1.435-.739-.864-.374-.527-.327-.511-.416-.72M295.967 304.865l.025-3.077-.025-1.276-.017-.77-.1-.53-.097-.385-.164-.61" clip-path="url(#pc915db87a1)" style="fill:none;stroke:#000"/><path d="m289.87 324.761 3.545-16.853 1.729-8.288.084-.351.172-.553.189-.499M294.77 315.17l.118-.7.768-5.482.143-2.258.168-1.865M300.014 329.93l.218.146.181.077.205.025.253-.041.256-.14.205-.171.588-.311.403-.22.219-.254.075-.377-.05-.72-.126-.548-.219-.548-.42-.516-.47-.433-.365-.34-.105-.188-.096-.274-.034-.405-.021-.626-.009-.507-.087-.36-.146-.335-.136-.32-.126-.433-.042-.524-.017-.744-.15-1.375-.093-1.39-.126-.467-.185-.433-.227-.401-.125-.639-.055-.544.013-.945.075-1.317.185-.924.252-.655.126-.327.058-.401-.02-.25-.076-.225-.168-.253-.214-.303-.198-.388-.314-.667-.487-.802-1.033-1.423-1.419-1.85M238.195 320.839l.172-.618.168-.781.071-.45.004-.463-.02-.47.037-.417.075-.495.185-.933.042-.425-.01-.168-.059-.135-.118-.166-.19-.227-.807-.597-.915-.843-1.226-.9M257.133 317.538l.193-1.032.16-1.26.025-.662-.05-.613-.06-.377-.058-.385M276.556 320.221l-.486-.851-.63-.833-.163-1.01M253.59 330.12l.848-1.468.478-.925.231-.478.101-.299.038-.245.071-.544.076-.856.08-1.361.024-1.375.043-.802.075-.482.252-.63.294-.532.32-.59.226-.474.227-.711.16-.81" clip-path="url(#pc915db87a1)" style="fill:none;stroke:#000"/><path d="m295.895 296.72-1.91.945-5.676 1.375-3.46 1.767-2.552.36-2.686-.622-3.527 1.963.034 2.193-2.073.802-.547.213-.873.948-.37 1.244-1.663 1.75-1.108.598-1.007.45-.363.147-.118.088-.09.115-.089.161-.083.416-.064.307-.048.173-.096.237-.191.349-.248.371-.155.221-.092.233-.022.197.068.25.34.838.059.348-.013.233-.055.221-.14.28-.212.19-.206.11-.407.173-.139.073-.105.11-.059.16-.062.383-.054.347-.017.05-.02.034-.072.062-.144.085-.395.221-.373.148-.798.204-.483.062-.437.02-.26-.037-.243-.09-.294-.155-.298-.09-.307-.029-.58-.065-.587-.172-.882-.205-.755-.123-.504-.008-.445.074-.806.115M177.24 265.267l1.981.13.874.753 4.5 1.832 2.956.655 5.071 3.96 2.318.426.906 3.632 1.277 2.258.033 1.964 2.251 3.567 2.183 4.32 1.881 2.977 2.384 1.179-.033 1.44 2.35 1.145.236 1.767 4.77 2.455 1.477 2.65 8.195 1.653 5.642 2.307 8.497.23 1.142 2.879 1.075 2.16 1.613 1.407 6.784.687 4.03-.785 1.277 2.193 2.787 2.061 1.436.369M276.556 320.221l.205-.237.509-1.11M282.363 337.657l-.204-.184-.966-.99-.173-.823-.874-1.337-2.226-2.748-.488-.892-.285-.357-.914-.693-.997-2.576.183-1.882-.102-.97-.487-1.19-.265-.93.102-.932.508-.377 1.26-.415.12-.14M222.287 322.64l.605-.643.454-.45.596-.483.42-.197.923-.188 1.385-.36 1.008-.22.604-.279.74-.516.554-.343.486-.188.613-.172.706-.098 1.293-.172 1.108.025.588.078.353.13.314.164.256.266.143.278.1.22.144.23.168.205.252.2.407.221.382.11.642.18.336.098.155.045.173.058M253.59 330.12l-.336-.392-.37-.475-.302-.441-.558-.97-.571-.908-.74-1.064-.348-.503-.277-.31-.189-.132-.26-.106-.42-.115-.298-.04-.432-.025-.34-.037-.416-.11-.298-.11-.428-.103-.66-.025-.726.013-.399.008-.436-.02-.198-.041-.126-.09-.123-.103-.288-.384-.604-.683-.24-.193-.228-.106-.194-.051-.278-.004-.278.038h-.424l-.315-.02-.378-.098-.638-.23-.692-.248-.554-.27-.206-.132-.236-.213-.256-.249-.335-.34M289.87 324.761l-.822 3.694M294.77 315.17l-.18.936-.218.859-.277.867-.463 1.007-.503.973-2.146 4.348-.28.323-.185.123-.647.155M282.363 337.657l5.615-8.42.222-.275.172-.171.298-.172.378-.164M274.526 348.66l1.81-.296 1.47-.351 1.116-.344.957-.417.982-.491.95-.59.68-.474.982-.85.915-.974.537-.72.379-.569.432-.74.516-1.047.302-.875.286-1.121.277-1.096.772-3.552 1.16-5.698M252.393 336.547l-.323-1.109-.277-.998-.151-.63-.017-.31.03-.185.079-.208.185-.275.319-.315.57-.589.21-.302.148-.266.189-.454.235-.786M294.77 315.17l.668 1.271.655 1.555.36.736.572 1.014.327.573.194.348.218.544.092.49.017.622-.042 1.101-.059.344-.025.347-.004.209.063.36.13.327.277.663.168.421.218.786.11.437.18.708.122.426.13.343.16.286.184.238.24.306.29.305M406.807 454.427l-.778 1.132-.202 2.42-1.646 1.31 2.183 3.076 4.232 5.464.605 1.538 1.88 1.898 1.445 6.937-.235 3.338.436 2.061-1.31 2.65-2.552 2.716-6.75 6.185-.773 1.538-1.847-.36-3.796 2.781-10.613 6.84-3.526 2.977-3.93 2.127-3.426 2.06-2.317 1.54-4.064.948-1.41-2.389.033-1.145-.605-.85-1.78-.36-1.981-1.833-1.948 1.309-.605-.524 1.444-3.043-1.41-2.552-4.098-1.048-2.183-1.766 1.444-2.52.034-3.567-3.493-2.945-.57-2.388-2.218-.655-2.284-7.33-3.761-5.235.537-3.403-5.374-4.581-1.074-3.795-9.136-14.006-5.911-3.403-.806-8.639-5.374-12.958-11.957-19.11-5.642-11.78-4.03-9.687-3.628-9.686.807-8.64 2.686-1.44-1.343-5.236 3.426-16.59 1.746-3.502-.235-2.062-.067-1.832.537-1.718.84-.982.755-1.21-.033-1.065-1.142-1.507M282.363 337.657l-7.837 11.002M255.554 351.048l-.537-2.332-.504-2.266-.285-1.636-.336-1.39-.344-1.605-.462-1.955-.218-1.39-.194-.892-.28-1.035" clip-path="url(#pc915db87a1)" style="fill:none;stroke:#000"/><path d="m197.912 337.66.017-.267.042-.282.097-.519.247-.524.303-.36.562-.597.592-.598.138-.114.236-.16.382-.2.667-.241.509-.131.788-.213.546-.204.576-.184.27-.064.139-.065.117-.115.154-.174.12-.12.15-.125.214-.102.24-.053.552-.099.36-.061.463-.037.294.066.428.18.42.172.36.122.438.115.688.163.755.147.546.05.445.032.571-.065.403-.204.47-.23.412-.164.428-.065.37.017.529-.057.512-.115.478-.05.815.066.663.033h.806l.47-.066.429-.13.37-.115.293-.017.353.066.394.131.345.098.31-.008.345-.164.436-.278.31-.139.354-.05.402.115.395.058.504-.008.823-.147 1.1-.312.587-.22.37-.172.302-.033.244.041.218.139.36.311.337.254.336.147.479.098.537.049.697.13 1.242.304.874.139 1.654.139 1.163.004.89-.094.835-.16.424-.053.218.012.362.099 1.65.723.961.471.768.38.701.221.282.05.251.07.337.114.524.24.445.303.6.41.63.318.403.148.31.053.513.037.516.004.794-.078.802-.164.646-.167.443-.05.304.005.234.03.224.062.462.227.31.172.194.155.218.278.128.158.095.07.071.034.14.025.137.006.288-.051.421-.074.605-.065M255.554 351.048l5.475-.688 8.808-1.079 2.09-.282 2.599-.34M238.971 353.06l5.29-.63 5.307-.605 5.986-.777M403.224 390.816l-.269-1.137M406.774 397.534l-.712-6.166-.092-.585-.096-.2-.198-.152-.206-.057-.28.02-1.966.422M401.4 395.53l-.107-.804v-.25l.013-.22.063-.245.092-.234 1.763-2.961M395.869 387.503l.944 1.09 1.772 2.185M351.08 356.112l-.864 1.05-.776 1.29-.3.213-.445.113-.983.043-1.19-.194-.783-.338-.832-.494-.946-.72-.394-.126-1.578.426-.407.45-.313 1.817-.532.776-1.014 2.035-.176 1.164-.231.733-.89.857-.438.583-.62 1.559-1.277 1.96-.306 1.52-.414.602-.57.463-.575.194-1.465.22-.87.532-.476.125-1.991-.125-.87.212-1.366.677-.939.857-.82.213-.983.676-.52.57-.194.457-.023.811.086.855.2.55 1.071 1.146.394.74.426 2.14.564 1.152.231.795.063 1.403.257.914 1.966 3.155.7 1.716.408.532 1.033.983 1.446 1.19.52.588.933.79.52.732.45.319 1.046.413.313.3.219.508.307 1.308.52 1.058.469 1.296-.019 1.265.288 1.127.845 1.822.67 1.997.845 1.71.232 2.491.914 1.522.432 2.247 1.772 4.633.106 1.941-.187.507-.451.558-.683 1.934.138.407 1.064 1.803.69 1.534.318.388.495.357 1.146.62.388.532.338.983.77 1.09 1.327.682.188.37.132 1.02.444.376.658.281.2.22.326.839.263.319.388.125.663-.188.952-.52 1.19-.882 1.152-.582.463-.508.526-1.202 1.477-1.408.382-.814.17-1.428.406-1.014.075-.77.213-.32.445-.269.269-.294-.1-.651-.739-1.271-.288-.776.013-.495.25-.55.651-.62 1.64-1.103.326-.444.551-1.997.038-.97.319-.495.776-.758.576-.833 1.497-1.703.632-.92.789-.726.977-1.478.212-.789-.006-1.76.57-1.308.175-.801-.15-1.19.275-.845.044-.651-.407-1.578-.112-.939.043-1.565.32-1.083.269-.226 1.202-.119.57-.2.951-.676.034-.591" clip-path="url(#pc915db87a1)" style="fill:none;stroke:#000"/><path d="m377.27 408.732-1.49-2.405-.503-.916-.219-.575-.078-.252-.049-.086-.075-.06-.28-.124-.303-.184-.222-.261-.231-.459-.122-.458.02-.564.286-.933v-.317l-.082-.274-.4-.46-.901-.988-.292-.562-.1-.47-.06-1.098M373.748 412.29l.208-.273.115-.099.124-.076.849-.43.08-.065.063-.075.304-.499.109-.118.598-.47.128-.117.103-.136.113-.186.729-1.014M379.61 414.11l-.328-1.623-.4-1.092-.486-1.014-1.125-1.649M382.327 412.948l-1.253.897M381.074 413.845l-1.464.265M386.314 417.706l-.443.033-.241-.016-.21-.045-1.014-.309-.2-.11-.147-.158-.373-.99-.202-.36-.315-.311-2.095-1.595M385.233 425.779l-.231-.288-.263-.23-.558-.372-1.205-.523-.355-.248-.279-.362-1.184-2.74-.176-.397-.046-.266.033-.27.326-.847.041-.344-.056-.343-.139-.29-.657-.929-.268-.532-.1-.35.005-.306.15-.666.022-.08.002-.1-.033-.162-.065-.134-.177-.21-.197-.25-.108-.196-.105-.234M385.233 425.779l.546-.137.144-.054.128-.094.653-1.014.202-.27.772-.834M406.807 454.427l-.45-.922-2.341-4.126-.476-.482-1.208-.77-.601-.15-1.728.025-.445-.094-.457-.22-2.197-1.984-.338-.576-.464-1.271-1.008-1.766-.47-1.083-1.84-4.965-1.365-1.803-.62-1.133-.532-.739-.22-.507-.018-.495.094-.438.432-.976.138-.595-.17-.814-.262-.363-.376-.238-.482-.044-1.697.689-.45.062-.539-.219-.263-.344-.833-1.32-.206-.507-.182-.48M397.425 427.161l-.815-.043-.892-.082-.737-.114-.29-.078-.277-.122-.19-.14" clip-path="url(#pc915db87a1)" style="fill:none;stroke:#000"/><path d="m393.199 415.555.084 2.683.176 1.366.496 1.628.68 1.403.411.552.567.471 1.297.99.349.54.18.589-.014 1.384M398.75 430.83l-.443-.864-.595-.97-.168-.45-.13-.56.01-.825M405.56 438.914l-.76-1.111-1.046-1.234-.728-1.142-1.362-1.45-1.14-1.42-1.773-1.727M398.434 434.1l.538-1.141-.032-.926-.19-1.203M405.56 438.914l-1.458 1.172M408.061 443.635l-1.52-2.592-.982-2.129M407.354 446.879l.604-.753.388-1.041-.285-1.45" clip-path="url(#pc915db87a1)" style="fill:none;stroke:#000"/><path d="m408.697 451.689.571-.23.706-.49.503-.294.355.374.756-.552v-1.427l-.614-1.61-1.04-1.243-.85-1.381-1.023-1.201M427.081 465.388l-.627-1.695-1.778-2.915-.56-1.714-1.757-3.275-.305-1.965" clip-path="url(#pc915db87a1)" style="fill:none;stroke:#000"/><path d="m433.298 463.04-.814-.707-1.283-1.277-5.779-5.072-.97-.707-2.398-1.453M409.272 424.338l-.082.163-.023.15.019.167.11.597.113.33.163.285.443.544.132.32.063.363.021.548-.012.65.105 2.869.282 1.14.52 1.247.586 2.007-.043.782 1.517 3.296.586 1.014 1.995 2.26.673 1.12 1.062 2.725 2.516 3.93 2.036 2.98M483.504 450.65l-1.615 1.434-.701.37-3.544.832-1.765.639-1.647.438-1.39.488-.438.107-.77-.038-.952-.513-1.978-.163-2.36-.808-.733-.42-.413-.118-.42.087-.927.82-.5.27-2.48.645-2.379 1.064-1.584.45-2.04.921-3.5 1.196-1.535.751-2.404.858-1.803 1.096-1.54 1.997-.395.394-.638.351-.445.088-2.072.031-1.371.545-1.69.213-1.384-.301-.79-.313-1.183-.32-.82-.7" clip-path="url(#pc915db87a1)" style="fill:none;stroke:#000"/><path d="m526.047 603.316-.989-1.008-1.327-2.041-1.56-2.022-.995-.84-1.609-.556-1.433-1.284-.752-.99-.814-1.67-.363-1.003-.313-1.246-.82-3.543-.2-1.39.075-1.615-.082-.407-.2-.238-.826-.608-.238-.375-.99-2.642-.726-1.465-.6-1.979-.552-1.346-1.008-1.947-2.498-5.566-1.077-2.041-.757-1.127-1.384-1.722-3.074-5.146-4.683-7.006-.714-.877-.538-.5-1.678-.827-.288-.27-.288-.538-.633-3.068-.682-2.253-1.252-2.643-8.259-13.648-6.755-10.713-8.058-12.403-.438-.782-1.966-4.74-.676-1.233-2.123-3.243-.47-.626-2.41-2.248-.945-.526-2.31-.97-1.929-1.321-2.573-2.567-3.675-4.151-.582-.439-1.522-.751-.864-.814-3.312-4.458-1.208-2.335-.607-.94-3.112-3.83-1.603-2.261-1.484-1.478M424.221 471.553l.325-.887.803-.803 1.431-3.423.301-1.052" clip-path="url(#pc915db87a1)" style="fill:none;stroke:#000"/><path d="m406.807 454.427.415.85 2.09 3.105.94 1.209 1.571 2.68 1.991 2.535.883 1.515.933 1.928 2.191 3.957.445.658 1.571 1.634.482.388 2.06 1.02 1.133-.15.695.063 2.371.675.992.283.419-.075.263-.194.244-.376.783-3.012.094-.663-.12-1.065-2.172-6.004M430.311 209.27l8.027-6.283 3.158 1.767 1.242.458 2.418 3.273 3.863 2.913 1.176-.851 1.78-.688 2.418 7.757 2.049-.033 1.611-.72 2.99 2.586.806 1.472.806.458-.168-2.814 1.21-.327 3.29 7.232 1.726 7.372.071.667.223 1.35.117.389.273.585.193.298.273.258.836.544.18.217.147.282.118.327.13.336.453.834.09.29.05.324.11 1.027.042.18.094.188.878 1.074.151.248.152.318.142.303.132.189.256.35.09.122.09.172.207.39.149.21.374.441.444.614.332.536.294.715.626 2.185.012.172-.021.217-.1.527-.05.428.026.186.071.194 1.258 1.974.247.27.4.323.726.511 1.17 1.126.643.83.441.826 1.61 4.204" clip-path="url(#pc915db87a1)" style="fill:none;stroke:#000"/><path d="m476.787 264.358 1.083-1.57.5-.619.629-.58 1.108-.941.525-.27.476-.105.517.013.73.143.508.164M483.948 263.344l-.092-.749-.145-.495-.203-.422-.645-1.085" clip-path="url(#pc915db87a1)" style="fill:none;stroke:#000"/><path d="m476.787 264.358.973-.49 1.184-.59.554-.245.622-.213.579-.107.63-.073.663.024.538.057.747.255.671.368M443.67 305.765l1.176-.974 1.385-1.145.831-.655.428-.344.588-.4.714-.459.664-.376 2.83-1.521 3.971-2.03.957-.482.94-.45.504-.23.53-.18.452-.13.395-.066.555-.032.948.065 1.2.008.471.017.621-.05.387-.09.41-.171.463-.254.529-.417.344-.368.353-.524.335-.532.883-2.405 1.561-4.852.294-1.186.008-.442.009-.442-.092-.572-.152-.606-.109-.4-.848-1.99-.882-2.224-.201-.532-.16-.49-.142-.5-.11-.54-.092-.49-.336-2.873-.042-.695-.008-.598.033-.531.059-.548.093-.45.15-.384.143-.32.387-.474.294-.336.57-.523.403-.295.345-.22.596-.304 2.099-.949 2.528-1.161 2.855-1.285M439.317 301.796l.21-.605.067-.47-.009-1.771.06-.324.184-.303.309-.237 1.488-1.03 1.792-1.158 1.125-.63.76-.369.105-.09.045-.097.029-.152.033-.888.112-.402.224-.391.378-.32.384-.175.894-.331.093-.084.046-.09.02-.113-.19-.93-.216-.804-.349-.851-.432-.822-.08-.59.076-.514.244-.63.035-.202-.01-.192-.166-.79M416.751 293.564l.018-.152.343-.599.754-1.412M425.16 294.642l-.917-.749-.204-.213-.11-.23-.106-.367-.138-.351-.133-.215-.237-.207-.277-.128-.363-.125-1.078-.288M432.14 297.915l-.197-.162-.311-.313-.164-.282-.111-.254-.055-.421.023-.331.122-.352.43-.718.122-.352.028-.217-.015-.315-.147-.7-.093-.46-.12-.204-.188-.152-.166-.04-.176.02-.315.147-.516.32-.546.236-1.37.5-1.254.454-1.177.212-.784.111M416.751 293.564l.038.18.34.679.06.243.02.209-.026.187-.062.47.012.271.08.263.342.513 1.17.84.667.352.713.213 1.18.274 1.272.332.273.012.24-.025.625-.352.302-.323.135-.274.059-.29v-.516l-.051-.675.084-.355.176-.324.412-.527.348-.299M413.346 301.232l1.327-.847.224-.071.162.016.149.074 1.086 1.032.251.312.45.597.162.197.173.13.628.35.23.172.182.178.24.186.135.055.16.022.395-.055.293-.074.269-.114.479-.348.636-.491.159-.071.185-.029.873.088.325-.014.311-.066.968-.296.296-.135.272-.164 1.373-1.14.48-.325.515-.261.244-.131.136-.107.742-1.145.382-.405.306-.155.44-.045 1.468.149.403.012.38-.063.905-.335M439.317 301.796l-1.676-.998-2.898-1.693-.33-.131-.493-.115-.28-.077-.218-.062-.394-.2-.888-.605M416.751 293.564l-1.89 2.4-.2 1.014-1.21 1.276-2.135 2.11M409.438 306.6l1.158-2.913.47-1.8.25-1.524" clip-path="url(#pc915db87a1)" style="fill:none;stroke:#000"/><path d="m352.45 327.159.934-.462.119-.288-.213-1.91-.833-2.761-.951-1.966.056-2.38-.545-2.203-.983-1.684-.037-.476.689-3.105.206-.507.07-.483-.051-2.498.131-1.853-.488-1.822.019-1.277-.194-1.521.444-1.165.063-.77-.407-2.548-.019-.977-1.12-5.14-.245-.363-.976-1.102-.92-1.966-.921-2.392-1.797-2.586-.914-.876-1.409-2.022-.626-1.428-.225-1.265-.326-.763-.807-.927-.458-.695-.97-1.878-.595-2.442.1-1.715-.444-3.55.125-.727.445-.826.788.603.476 1.338.656.734 1.924 1.44.617.179.286-.154.052-.357-.052-.194-.46-1.417.185-.684.298-.412.445-.306.689-.263 1.507-.247 1.524-.09 1.242.102 3.14.648.534-.018 2.401-.188.27.112.213.234.162.35.323 1.003.285.123 2.116.199.876-.203.32.219 1.897 4.148.777 1.121 1.458 1.676.084.251.292 1.681 1.318 1.952.726.667 1.268.965 1.167 1.37 4.53 3.927.594.184.335-.048.093-.101.441-2.143-.029-1.226.086-.247.48-.926.03-.252-.477-2.884.127-3.369-.214-3.6.162-.463 2.075-2.642.643-.528.5-.572.94-1.547 1.303-.05.936-.265 1.033-.685.439-.02.33.213.224.374.957 2.197.985 3.102.343.528.473.243.924.23.105.319-.05.168-1.042.714.005.15.199.176.309.156.117.135.676 1.231.422.297.451-.03.185-.074.717-.433.345.11.642 1 1.277 1.297.877.686 1.62 1.02.387.417.214.499.082.916-.246.544-.4.637.232.091.241.216.404.817.604.724.398.751-.083.235-.524.46.077.148 1.405 1.19.551.683.593 1.685.182.856.233 1.617 1.604 3.021.142 1.851.42.145 1.174.084.283.203.787 1.012.787.941.674.32 2.694.603.902 1.055 2.977 2.696.944 1.073.28.1" clip-path="url(#pc915db87a1)" style="fill:none;stroke:#000"/><path d="m413.346 301.232-.153-.192-.195-.195-.286-.15-1.396-.332M409.438 306.6l1.584-1.71 1.083-1.521.657-1.196.584-.94M435.312 308.919l.644-.045.451.008.86.11.954-.049.79-.156.335-.155.204-.233.077-.192.011-.26-.12-.468-.151-.32-.875-1.254-.321-.709-.13-.696.024-.445.156-.454.357-.663.42-.618.319-.524" clip-path="url(#pc915db87a1)" style="fill:none;stroke:#000"/><path d="m443.67 305.765-1.17-.601-.212-.116-.142-.138-.728-.894-.187-.223-1.914-1.997M426.588 311.643l.714-.037.28-.055.221-.094.3-.21.418-.375.18-.115.227-.061.452-.07.335-.096.288-.13.674-.38 1.175-.526.689-.203.747-.152 2.024-.22M431.168 311.324l.738-.32.987-.298 2.022-.493.121-.096.072-.137.204-1.061M295.895 296.72l.026-.982.046-.295.155-.457.24-.455.256-.368.235-.22.49-.332.576-.307.466-.274.34-.209.626-.421.445-.335M121.462 389.392l-.714.671-.923.737-1.201 1.071-.916 1.04-.898.924-1.57 1.603-1.293 1.105-.756.588-.672.45-2.829 1.563-1.016.663-.991.654-.378.393-.479.581-1.024 1.284-.789 1.096-.504.868-.68 1.44-1.326 2.772-.504 1.4-.638 1.963-.63 2.299M105.42 413.548l-1.14.744-.436.547-1.59-.09-1.523-.192M609.107 132.342l-1.454.47M629.31 148.347l-.84-.393-1.445.082-1.612-1.21-2.183-2.423-1.646-2.062-1.125-2.168-.79-.753-1.376-.458-1.209-.671-2.343-1.358-.613-.868-1.629-1.824-1.696-1.056-1.696-.843M338.367 341.558l.161-.277.082-.08.11-.069.33-.191M350.401 343.243l-5.054-.31-.865-.074-1.067-.18-.94-.205-.697-.205-.948-.376-.68-.302-1.1-.65M121.462 389.392l.121-.331.055-.27.004-.29-.012-.3-.025-.38" clip-path="url(#pc915db87a1)" style="fill:none;stroke:#000"/><path d="m207.291 357.045-1.352.22-9.043 1.146-5.793.712-3.174.4-1.839.205-2.192.155-2.67.042-3.913-.025-3.266.094-.801.029-.639.057-.83.11-1 .18-.777.176-.907.31-1.242.533-3.41 1.865-8.413 4.639-7.162 3.86-4.307 2.185-3.88 1.85-2.325 1.177-2.666 1.334-1 .507-1.523.957-3.292 2.3-5.105 3.525-3.165 2.234M379.46 399.994l.632-.105.689-.107" clip-path="url(#pc915db87a1)" style="fill:none;stroke:#000"/><path d="m384.012 410.262-.403-.819-.62-1.299-.002-.044.01-.033 1.4-1.088.02-.083-.006-.07-.034-.06-.091-.071-.175-.093-.17-.033-.85.033-.344-.069-.31-.192-.322-.378-.357-.896-.256-.957-.088-.503-.017-.385-.054-.4-.122-.994-.075-.577-.148-.65-.217-.819M550.186 424.228l-1.211-.494-.514-.05-.425.107-.42.413-.463.933-.952.952-.732.3-1.353.395-4.376 2.278-.413.439-.946 1.853-.857 1.196-.658.526-2.548 1.509-2.43.526-2.529.688-1.94.388-1.904-.175-1.853.282-.476.163-.726.444-2.655 1.014-2.185.414-1.64-.1-.445.056-2.548.839-1.333.294-1.822.626-1.296.22-2.461.888-2.16.182-1.847.332-2.774.357-.676.256-1.509 1.171-.638.363-1.046.257-1.37.119-.696.257-1.672.995-.532.188h-.839l-1.07-.257-.432.182-1.428 1.145-.494.67-.514 1.46-.332.575-.338.363-.538.313-1.666.57" clip-path="url(#pc915db87a1)" style="fill:none;stroke:#000"/><path d="m560.376 492.536-.733.03-.958.464-.594-.194-1.052-.682-.395-.439-.482-1.051-.319-.307-.438-.232-.701-.2-1.19-.651-1.027-.27-.338-.263-.657-1.158-.77-2.78-.245-1.195-.964-3.05-.256-1.083-.958-1.99-.395-1.904-.244-.563-.445-.495-.826-.513-.927-.858-.644-.432-1.203-1.171-.4-.532-.232-1.115-.726-1.94-.501-1.002-.808-2.43-.482-.945-2.035-2.867-.52-.564-1.151-.99-.676-.406-.852-.814-2.523-1.89-.682-.007-1.935.758-.307-.032-.35-.238-1.071-1.634-.695-.557-.958-.357-1.415-.232-1.878.044-2.204-.513-.745-.088-.845.032-1.265.457-1.077.068-2.867.476-2.499.057-2.16.526-.851.087-2.742-.15-.846.1-1.045.726-.526.188-.5.044-.74-.069-1.922-.532-2.623-.22-1.202.076-1.096.244-.57-.031-.444-.107-1.133-.52-1.221-.882-1.309-.664-1.784-1.565-.52-.288-.901-.094-1.215-.263-1.246-.119-.876-.325-.94.2M555.653 627.332l-.874.045-1.227.181-.489-.087-1.697-.996-1.515-.444-.357-.182-.237-.32-.702-1.54-.306-1.308-.595-1.446-1.309-2.104-.294-.858-.232-.331-.976-.564-.983-.739-1.528-.576-1.208-.739-1.196-.939-.94-.6-1.277-1.071-2.717-3.4-.37-.313-1.314-.557-1.17-.795-1.816-2.067-.551-.35-1.008-.226-.733-.432-.438-.118-.658.043-.457-.231-.432-.952M207.291 357.045l3.938-.5 19.749-2.413 7.993-1.071M222.719 412.552l-.438-.532-1.02-.632-.283-.32-.5-.87-.489-.538-.344-.595-.207-.745-.62-1.503-.043-.438.118-.65.401-.928.432-.613 1.415-1.208 1.584-2.85.22-.513.594-4.2.395-1.635.776-1.127 1.434-3.305.65-1.159.708-.933 1.171-2.78.357-.538.839-.889.62-1.346.507-.864.231-1.12.195-.502.525-.857.314-.313 3.092-2.323.382-.557.295-1.015.244-.425 2.179-1.772.463-.564.795-1.471.307-.89.488-.988.52-1.847.814-1.778.908-1.046.3-.526.088-.413-.15-.808-.927-2.04-2.686-5.185-.402-1.34M352.532 357.777l-.982-1.087-.47-.578M408.618 377.698l-.482-.294-.683-1.033-.538-.401-.489-.088-.738.038-.495-.094-.495-.275-.813-1.015-.483-.35-.375-.038-.236.064-.597.161-.393-.007M405.844 381.637l-.866-.536-.88-1.378-.924-1.375-.672-1.538-.218-.752-.483-1.692M408.618 377.698l.42-.131.212-.257.163-.432.37-2.204-.527-1.014-.037-.57.895-1.428.107-.475-.332-1.515.019-1.121-.12-.94-.507-1.239.032-.582.701-1.065" clip-path="url(#pc915db87a1)" style="fill:none;stroke:#000"/><path d="m555.319 372.654-1.83-.573-.672 1.424-.27.966-.402-.017-.57-.082-1.344-5.972-1.562.163-1.394 1.244-2.334.31-4.601 1.146-2.553 2.29-2.586.557-.705 1.244-14.073 12.402-26.87 20.289-4.903 3.076-10.881 8.377-3.426 4.32-8.195 6.217-4.703 4.515-2.552-1.832-2.217.327-2.82-1.473-.907.197.604-2.094-1.377-2.978-2.62-2.094-2.183-.95.403-1.57-1.007-.654-.236-1.735-2.586-3.86.067-1.08-5.306-9.524-1.175-.752-.706-1.604-1.746-2.78-1.949-3.7-5.407-6.674-.067-2.16-4.299-5.76-1.747-1.44v-1.505l-2.081-1.898.067-1.505-2.42-1.767-1.477-2.815-1.007-.392-.135-1.113-1.679-1.57-1.747-2.226-1.119-.844M405.844 381.637l.857-.77.755-.506-.017-.819-.033-.736.554-.392.658-.716M405.46 320.977l-.28-.404-.25-.563-1.14-3.306-.012-.494.1-.432.714-1.96.275-.551.652-.995.976-1.973 1.472-2.285 1.47-1.415M404.918 330.747l-.172 1.208M398.519 338.711l-.194-.332-.463-1.089-.17-.77.063-.532.213-.614-.031-.238-.852-1.102-.087-.407-.076-1.37.094-.827.282-.67.32-.394.525-.326 1.515-.288.526.088.677.513.394.188.476-.031.745-.27.851-.162.764.037.827.632M405.46 320.977l.397.573.7 1.647.026.55-.27 1.065.113 1.158-.313 1.02-.895 1.303-.288.714-.012 1.74M407.19 335.593l-1.258-.432-1.296-1.026M400.97 340.18l.628-.6.884-.831.448-.467.297-.31.77-1.177.413-1.227.226-1.433M404.746 331.955l-.104.733-.006 1.447M409.236 334.812l-.924.087M411.319 331.928l-1.13 1.518-.953 1.366M408.312 334.9l-1.122.693M408.312 334.9l.243-3.551" clip-path="url(#pc915db87a1)" style="fill:none;stroke:#000"/><path d="m405.072 339.455.44-1.283.338-.777 1.34-1.802M405.072 339.455l-1.8 1.587M400.97 340.18l-2.025-1.03-.426-.439M518.922 249.819l.107-.538.257-.495.494-.395.645-.144.413-.219.163-.269.22-.876.6-1.622.157-.833M412.744 323.46l-1.785-1.033-.388-.332-.494-.814-.382-.244-2.837.244-1.398-.304M419.022 325.273l-.58-.13-.614.007-.89.163-.882-.119-.808-.507-.645-.557-.55-.282-1.31-.388" clip-path="url(#pc915db87a1)" style="fill:none;stroke:#000"/><path d="m408.555 331.349.276-.47.112-.964.207-.639.526-1.246.851-1.39.764-1.81.257-.431 1.196-.94M411.319 331.928l.655-.585 2.779-2.139.776-.655 3.493-3.276M408.555 331.349l2.764.58M404.746 331.955l.006.003 1.217.474.564.012.513-.206.626-.489.883-.4M404.853 411.464l.672 1.8.78 2.405.63 2.267.53 1.603 1.807 4.799" clip-path="url(#pc915db87a1)" style="fill:none;stroke:#000"/><path d="m408.75 419.555 1.338 3.37.164.438.042.221.004.217-.037.311-.078.213-.124.118-.206.063-.26-.018-.189-.061-.132-.089M404.853 411.464l-2.124-5.971M393.199 415.555l3.93-1.735.713-.294.495-.18.731-.213 1.024-.204.966-.246.68-.213.705-.212 2.41-.794M400.624 395.683l.82 6.193.093.557.084.588.1.386.235.572.236.499.537 1.015M393.199 415.555l-2.032.74-.374.16-.231.045-.197-.041-.156-.14-.15-.282-1.835-4.227-.1-.264-.039-.208.03-.237.138-.2.26-.19.26-.15.584-.254 2.885-1.174 2.897-1.072 5.247-1.75 2.343-.818M590.184 613.052l-1.371.05-1.615-.12-2.298-.306-.902-.432-1.026-.131-.589.075-1.208.482-.445.075-1.202.081-1.09-.094-.513.188-.82.633-.207.338-.106.538-.025 1.797.263 1.572-.326 1.47-.432.333-.544.031-.432.156-.42.426-.638 1.052-.32.32-1.728.87-.657 1.026-.52.37-1.02.069-1.666 1.164-1.433.063-.827.332-.495.043-.907-.08-1.553-.784-.89-.181-.87-.294-1.007.331-1.14-.112-.983.106-.532.37-.426.563-.607.476-1.004 1.414M505.712 236.746l.67.25.532-.037.47-.363.507-.175.407.112 2.204 2.192.638 1.314.244.796 2.167 3.919.607 2.185.3.776.677.745.394.651.282.958.225.3 1.077.633.526.138.513-.138.22-.181.344-.464.206-.538M385.638 378.978l2.75-1.81M380.637 371.892l2.422 3.465 2.579 3.62M387.069 374.675l-.255-.317M391.47 371.558l-2.369 1.628-2.032 1.489M381.257 384.445l-.267.159M381.257 384.445l.114.371M385.034 372.783l1.365 1.87M385.034 372.783l.39-.263M385.424 372.52l1.39 1.838M386.4 374.654l.414-.296M386.4 374.654l1.701 2.127.287.387M350.401 343.243l-.228-.393-.137-.167-.21-.203-4.236-3.336M121.462 389.392l.546.778-1.814 2.577-4.366 4.156-3.543 2.797-1.243 2.357-3.057.163-.57 1.505-.202 4.516-.924 1.162.202.77-.571.735.285 1.604-.785 1.036M413.619 417.763l-4.87 1.792M404.34 407.93l1.634 4.328 2.775 7.297M410.563 414.327l-3.11-7.537M407.453 406.79l3.429-1.248M407.453 406.79l-3.112 1.14M403.4 405.198l.244.687.697 2.045M404.752 406.163l-.338-1.404M401.906 399.946l-.078-1.216M404.414 404.759l-1.01-4.181-.06-.24-.061-.1-.111-.112-.16-.078-.182-.045-.924-.057M403.4 405.198l-.192-.459-.303-.54-.277-.466-.235-.515-.126-.466-.11-.564-.108-.868-.067-.663-.076-.711M408.296 404.936l-2.158-7.249M406.138 397.687l.636-.153M406.138 397.687l-4.31 1.043M403.4 405.198l1.014-.44M395.869 387.503l.68-.221.479-.188.462-.279.579-.515.411-.548.336-.327.378-.303.361-.14.428-.073.361.074 1.436.924.286.275.184.29.156.474.109.516.44 2.217M400.624 395.683l-.112-.846-.008-.287-.005-.286.038-.241.08-.23.139-.27 2.2-3.844M410.79 401.54l-1.18-4.18-.118-.208-.18-.131-.277-.053-.303.024-.319.07-1.64.472M401.828 398.73l-.427-3.2M197.912 337.66l.038.2.055.147.092.151.235.278.202.168.268.233.26.27.219.356.134.311.11.34.13.237.302.393.44.417.404.348.276.249.194.242.214.396.244.618.369.724.163.307.097.225.06.278.02.421-.042.7v.192l.008.213.026.129.08.151.306.431.179.258.121.2.057.162.031.154.032.16.037.22.068.213.071.114.126.15.256.247.38.302.292.242.14.145.065.092.062.131.042.182.016.262-.019.268-.05.581-.076.343-.235.606-.688 1.677-.337.982-.46.891-.16.581.024.41.16.31.16.123.302.049.823-.14.982-.245.584-.07.277.005.264.07.269.106.285.147.395.332M189.13 315.697l.2 1.832 1.411 1.833.74 1.636-.605.982.336 3.73.671 1.571 3.192 7.298.738 1.276 2.099 1.804M277.914 274.298l.754.109M393.9 364.931l.948 1.063M390.835 365.463l.327.135.337.07.323.008.44-.103 1.638-.642M356.514 340.527l1.478 1.603.036.097v.086l-.574 1.278M400.624 395.683l.777-.152M426.65 229.43l-2.149 8.444 2.821 10.734-1.276 9.818 2.821 5.629 1.545 1.244-.134 3.665.873 3.208-.806 3.272-1.075.785-3.594 6.644-1.645.392-2.855 3.355-2.082 2.995.033 1.701-2.376 2.248M623.927 157.52l-3.728 4.716-.033.078.003.08.044.098.07.077 7.632 6.193M623.927 157.52l1.864 1.496 5.105 4.173M623.927 157.52l-.513-.649M613.759 152.503l1.167 2.488.281.43.408.462.579.523" clip-path="url(#pc915db87a1)" style="fill:none;stroke:#000"/><path d="m623.414 156.871-.81-1.02-.713-1.24-.498-1.115-.069-.09-.098-.06-.122-.022-.179.01-.554.152-.411.106-.517.057-2.942-.016-.504-.054-.391-.135-1.847-.94M607.653 132.812l.976 3.663 1.956 6.537.814 2.455 1.369 4.655.487 1.293.504 1.088M371.711 387.303l-2.247 1.357M380.99 384.604l.38.212M563.191 263.443l-.013-1.384-1.209-1.898-.336-1.407 1.747.72.235-1.898 1.31.163.772-.556 2.25-1.244-1.544-3.698 3.257.589 1.512-1.211-1.109-2.356.605-2.553-1.411-1.473-1.68-3.894-4.567-2.618-5.642-8.444-3.124-2.945-7.053-6.578-1.693-.264M530.109 312.413l-2.163-2.64-.235-1.014-1.276-2.095-.303-1.767-.805-.752.302-1.866.604-.916-.302-.229-1.041.294-.873-.72-.1-.457M554.782 415.146l.973-2.52 1.747-1.701.806-2.259 3.157-1.046 1.175-3.142 1.512-4.287.84-.425.033-1.996.47-1.571-2.048-2.553-.974-3.5-1.075-.72.302-1.833-1.142-.884.571-1.113-.402-.916-.874-.294.135-1.178-1.31-.982-1.377-3.011-.94-1.243-1.042-5.318M426.65 229.43l-1.343-.425-.235-2.356-2.653-15.153-1.277-2.52-1.544 1.374-1.713-.163.201 1.342-.974 1.145-.302 1.44-2.015.753-1.915 1.243-.168 2.357-2.485 2.062.336-2.75.806-1.08-2.15-8.083.94-.13 1.008-1.867 4.736-2.454 4.5 1.473 1.11-1.473.369-3.142.906-.425 1.21-5.662 1.98-2.062 1.143 1.505 3.829-.327.906 1.964-.805.949-.437 3.076-1.075 1.08.873 2.847-.739 3.928.638 1.374M426.65 229.43l.874-1.309 1.007-6.087 1.21-3.142-.135-3.273 1.21-1.898-.505-4.45M278.668 274.407l-.905-1.058-2.821-1.046-3.728-1.833-.773-1.735-1.343-3.043-3.392-4.059M405.844 381.637l.269 1.587-.202 1.227.185 1.162-.067.605v.916M637.27 160.31l-9.676-8.103M627.594 152.207l-4.18 4.664M629.31 148.347l.117.475-.185 1.063-.168.671-1.48 1.651" clip-path="url(#pc915db87a1)" style="fill:none;stroke:#000"/></g><g id="PatchCollection_1"><path d="m529.932 292.553-.225-.007-.143-.08v.32l-.198.371-.375.332-.791.392-.034.34.157.212.477-.02.382-.226.539-.944zM515.053 259.2l.743.46.8.357 1.09.084 2.334.363.048.642-2.817-.526-.79-.235.222.357-.28.236-.145.366-.8-.122-1.013-.47-.395-.31.068-.216.829-1.08zM535.421 286.69l-.01-.588-.052-.465-.29-.357-.308-.649-.56-.69-.048-.277-.772-.616-.12-.258h-.439l.015.296.26.183.232.503-.068.066-.221-.07-.223.173.487.888.203.718.767.475.689.264.11.178zM539.153 322.25l.077-1.1-.791-1.512-.212-.911-.377-.95-1.031-1.86-.472-.497-.242-.602-.453-.48-.52-.243-.44.04-.932 1.644.338.212.184-.053.76.568 1.004 1.051 1.234 1.714.661 1.137.471 1.089.477.611zM529.761 294.466l-.436.166-.157-.146-.19.153.157.133-.014.192-.848.503-.089.273.69-.195-.189.298.08.129.299.073.771-.543.114-.333-.307.15.044.123-.092.075-.154-.017.06-.268-.13-.211zM544.112 355.195l-.335-.146-.023.229-.355-.223-.088-.375.123.043-.13-.202-.245.026-.117.183.014.29.576.956.232.654.365.27.092.378.13-.014.136.22-.055.08.093.232.184-.176-.11-.379-.596-1.12.014-.188.296-.044-.003-.289-.225-.1zM545.447 340.884l.062-1.109.225-1.98.307-.81.314-.42.006-.617-.266-1.813-.259-.585-.531-.438-.417-1.044-1.152-2.126-1.268-2.737.184-1.429 1.282 2.465.204.89.853 1.655.109.69.566.672.79 1.475.294 1.78-.075 1.416-.355.863-.007.691-.613 1.581.204.711-.075.313-.286.352zM531.127 292.52l.313-.1.246-.153.232-.618-.205-.166.041-.246.246.16.184-.053.177-.246-.04-.213.271-.418.423-.087.32-.677.26-.127.205-.213.054-.259.273-.205-.389-.12-1.172 1.263-.321-.014.054.345-.088.153-.198-.08-.348.333-.204.817-.293.519-.314.292.109.133zM531.536 292.746l-.048.345-.273.093.15.32.362.145.872-1.136.253-.479 1.316-.484.436-.26.15-.604.348-.777.627-.3.409.034-.184-1.621-.218.392-.136-.425-.266.046.13.399-.178.604.089.073.13-.272.115.126.11.492-.676.385-.184-.24-.559.931-.28.631.17.06-.15.22-1.083.431-.376-.007-.156.42-.327.325-.369.026zM542.835 348.907l.054-.447-.04-.22.145-.31-.038-.555.386-.681.178-.019.15.164.019.306-.217.15-.01.103.16.151.081.32-.202.741.193.17.217-.029-.096.705-.15.3-.4.175-.068.615.333.794-.309.447.319.103-.04.244-.54.075-.076-.258.096-.15-.063-1.198-.105-.339.11-.296-.033-.24.15-.305-.261-.45zM548.34 359.124l-.304-.197-.665-.375-.145.041v.466l.217.319-.193.395.574.418.39.474.594.499.351.492-.023-.342.216.075.536.592.005.263.308.098.603.573.424-.432-.448-.441-.145.042-.25-.148.072-.05-.105-.129.034-.213-.328-.492-.01-.165-.183.08-.593-.596-.072-.315-.26-.169-.145-.005-.018.11-.147-.093.062-.086-.12-.325zM525.044 307.14l.372-.122-.58-1.232-.927-1.053-.205-.834.273-1.192-.3-.518-.28-.83.02-.24.314-.425-.28-.345-.627.425.11.086-.314.173.58.133-.457.445-.362.93.068.465.15.26-.231.332.238.305-.041 1.03.846.478.136-.239.111.095-.043.255.384.802.635.578.214-.037z" clip-path="url(#pc915db87a1)" style="fill:#00f;fill-opacity:.8"/><path d="m530.317 273.505.055-.665-.11-.69-1.09-3.163-.491-.532-.86-1.289-.327-.943-.504-.97-.11-1.063-.327-.678-1.24-1.834-.642-.518-1.268-.624-1.323-.346-.572.04-1.488.234.048.642 1.883.42.123-.26.273-.132.401.338.116.32.457.225v-.265l.286.192.069.305.402.087.211.618.71.937 1.398 3.15.477.783.723 1.555.32.445.504 1.727.287.193.089-1.375.743 1.554.095.432.43.984zM525.413 297.49l-.347.093-.521.518.52.244.13-.214.75-.648zM337.312 90.858l1.679.752-.185.328-.722 1.44-2.52-.196-.268.687-.335 1.538-.169 1.67-1.443.883-1.546-.066-1.78 2.684-.403-2.912-.873-.197.067 1.408-.336.785-.84-.098-.537-.131 1.344-5.27v-1.898l.705-1.309 1.88-.72 3.46-.327z" clip-path="url(#pc915db87a1)" style="fill:#00f;fill-opacity:.8"/></g><path id="PatchCollection_2" d="m580.485 334.798-1.013-.08-.608.632-2.352 1.66-1.419-.356-1.522-.049-.917-.168v-.614l-.889-.503-1.003.42-.315 2.178-.717 1.536-.373.42v1.675l-.545 1.928-.602.474-.545.867-.802.53.488.782 1.375.168 1.893-.615 1.347-1.033 2.494-.447 2.953.055.774-2.094 1.634-1.956 1.004-.335.86-.978-.918-.698.058-.81.143-.838.917-.28-.401-1.032z" clip-path="url(#pc915db87a1)" style="fill:#006400;fill-opacity:.8"/><g id="PathCollection_1"><defs><path id="mdd5c159f5a" d="M0 3a3 3 0 1 0 0-6 3 3 0 0 0 0 6z" style="stroke:green;stroke-opacity:.8"/></defs><g clip-path="url(#pc915db87a1)"><use xlink:href="#mdd5c159f5a" x="385.34" y="371.278" style="fill:green;fill-opacity:.8;stroke:green;stroke-opacity:.8"/></g></g><g id="PatchCollection_3"><path d="m389.385 358.865 1.144-1.19-.114-.126-2.236-.247-.275.347zM406.026 339.972l-1.359 1.21.515.552 1.452-1.106zM392.468 366.497l-.132-.527-.224-.045-.238.232.665 1.1.11.012.032-.077zM392.71 363.131l-.598-.045-.177.263.205.71.522 1.1.682-.437.028-.236zM395.662 351.32l-.977 1.306.114.433 1.234.141.34-.345.056-.976z" clip-path="url(#pc915db87a1)" style="fill:green;fill-opacity:.8"/></g><g id="PatchCollection_4"><path d="m354.356 358.81 3.43 5.148 3.33-2.107-3.43-5.146zM358.364 351.901l.821.967 1.773-1.43-.822-.967z" clip-path="url(#pc915db87a1)" style="fill:#90ee90;fill-opacity:.8"/></g><g id="PatchCollection_5"><path d="m393.33 343.615 2.818-2.737 2.202 2.34 4.095-4.475.76.167 1.333-2.165 2.867 2.193 2.48 2.92-3.254 3.086-1.706 1.033.99 2.402-.617.336 1.29 1.229-1.176 1.2 1.133 1.551-4.401 2.57 1.147 3.087 1.118-.587.244.433-1.133.489.272.544 1.965-.502.415 2.178-1.52 1.299-2.207 1.285-1.605.573.229.922.143 1.438-1.777.726-1.72.405-1.19-.181-2.206 1.017-.747-1.185 1.696-.95 1.228 1.09 1.218.2-1.041-2.951-1.162-.685h-.516l.187-.726-.932-.825.244-.222.774.544.788.182.186-3.66-1.332-1.06-.846.892-1.047-.95-1.319 1.174 1.362 1.48-1.09 1.104.36.516-1.205.81-.459-.46-.616.573-.473-.49-.387.475 1.032 3.031-1.505.531-.688-1.243-.86.405-1.333-2.29 1.075-.88.43.377 1.376-.852-.588-.754-1.261-1.104-1.347.81-.717-.768-2.208 1.97-2.236-2.123-1.147 1.229 1.95 2.36-1.118 1.047 3.528 4.394 6.819-2.885.576 1.606-3.846 2.207.688.642 3.842 4.302.573-.587.373.28 2.695-1.9 1.576 2.346-2.58 9.358-.917-.084-.516 3.408-.43.614-1.52 1.145.975 1.09.029.67-6.02 3.827.315.558-1.577 1.174v.474l-1.032.67-2.093.922-2.093.224-13.904-22.066-.716.419-.918-1.313-1.175.558-.717-.921-1.003-1.564-1.176-1.118 7.74-4.86-.573-1.285-.43.224-.287-.364 1.204-.865-1.376-2.068-1.863 1.062-.344-.363-4.73-6.536 1.92-1.23-3.497-4.86-.774.447-.86-.503-.487.391-2.609-1.871 4.558-4.945 3.555.196 3.039 2.235.401-.433.96-1.927 1.735.544.444-.684.1-.433-2.278-1.369-6.26-3.194-2.007 1.402-.122.405-.303.336-1.723-.257-.285.544-2.23-.08-.253 1.749 3.426.543-.334 2.212-1.855-.297-.487 2.873-4.767-.978-2.36-.378-1.136-.848-1.033-.85-.808-.911-1.55-.58-3.084 2.482-4.29-3.812 8.58-6.533 2.237-2.428 3.639 3.243 2.02 1.817.33-.461 1.562-.042.588-1.369.86.49.344-.546-1.175-.559.243-.405-.172-.083.401-.908-.372-.922-.63-.866.228-1.159-.272-.684.344-.238-.143-.475.444-.153.115-.433-.459-.573-.344-.014-.387-.754.602-.363-.717-1.188-.114-1.103-.66-.852-1.203-2.989-.087-1.396.775-1.062.659.629.573 1.508 1.118 1.313.918 2.11 1.204-.532.587 1.243-1.505.796.158.685-.616 1.424.946.224.931 1.857.56.839 1.074 3.044-.645.531 2.638 3.52 1.232.614.488-.852 1.319.782 1.935-2.835-4.085-4.483-1.09.726-.788-.81 1.075-.824-2.293-2.975.845-.754 1.075 1.215 1.434 1.033 3.01 3.953 1.82 1.62 1.147-1.145.602.6-.215.461 1.06 1.257-.372.67.66 1.132 1.605-1.257 1.834 1.955 1.262 1.062 1.347-.49 1.691.545-.028.923 1.032 1.256-.344.447.889 1.215-.66.936.875.433 1.247-.824 2.537 1.48 2.437 1.788.1.908 1.233 1.508.401-.768-.888-1.606.73-.894h1.076l.1 1.048.459 1.354.659.63.846-1.482-.316-.977-.917-.53.029-1.09.946-2.067.745-1.173.876-1.226 1.456-1.431 1.345 1.284.394.31zM375.1 358.503l1.174 1.668 2.263-1.669.888.996-2.164 1.81.861 1.195 5.322-5.55-2.849-2.805-2.832 2.622-.246-.223-.324.238zm-3.387-5.037-.547.523 1.723 1.976 2.696-1.847-.77-1.097 1.642-2.212-2.342-.918-1.105 1.422-1.926 1.58zm24.716-1.587-.767-.558-.977 1.305.114.433 1.234.141.34-.345zM332.875 324.125l-2.758 1.916.752 1.04 1.518-1.259.422.617 1.056-.784zM329.998 335.296l2.557-1.564.522.818-1.567 1.019.243.455-.953.49zM611.643 152.814l-5.475-18.851 3.729-.426 5.172 18 6.784.852 6.919-6.284 15.147 8.968-16.558 18.982-8.363-5.466-5.407-4.941.907-2.979-1.41-4.909z" clip-path="url(#pc915db87a1)" style="fill:#d3d3d3;fill-opacity:.8"/></g><g id="PatchCollection_6"><path d="m395.006 351.157-.903-.663.502-.643.89.596zM393.873 352.939l-.705-.355.277-.355-.245-.208.209-.255.806.559zM568.178 267.284l-.18.269-.076.279.638.408.542.043.175-.17-.035-.383-.367-.307zM565.8 265.755l-.249-.787.509-.058.296.766zM407.27 335.815l.812.66-1.424 1.663-.811-.658zM390.695 363.544l-.303.155-.092.301.191.496.801-.694-.055-.123zM391.894 343.898l.547.512.27-.245-.509-.55zM392.057 342.981l.847.939.328-.282-.847-.938zM391.629 343.816l.186-.174-.182-.18-.186.165zM391.346 343.56l.396-.393-.458-.47-.215.218-.538-.554-.21.192zM395.528 352.193l-.103.145.052.168.168.066.157-.087.028-.174-.122-.13zM360.48 343.26l.563-1.165 2.608 1.196-.563 1.163zM332.056 333.927l-.163-.263-.394.23.163.265zM333.292 331.747l.533.822-.26.16-.533-.822zM334.094 331.292l.532.822-.26.16-.532-.822zM336.974 332.002l.162.361-.306.131-.163-.361zM335.71 332.258l1.085-.632-.27-.44-.405.235-.223-.363-.68.396zM335.716 330.712l.153.24-.622.375-.153-.24zM334.583 329.793l.365-.288-.267-.32-.365.287zM334.02 325l.345-.228-.234-.337-.345.228zM331.426 325.883l.381-.224-.324-.522-.54.319.174.281.16-.094zM327.014 329.66l.325.531.323-.186-.487-.798-.646.373.163.266zM344.334 339.448l-.39-.403-1.092 1.001.389.403zM345.768 338.258l-.44-.408-.31.317.44.408zM346.922 338.715l-.43-.388-.318.333.43.389zM343.887 343.964l-.46-.068-.15.96.46.068zM344.971 346.226l-.626-.021-.034.898.627.022zM344.776 340.802l-.393-.1-.318 1.189.393.1z" clip-path="url(#pc915db87a1)" style="fill:#a9a9a9;fill-opacity:.8"/></g></g></g><defs><clipPath id="pc915db87a1"><path d="M90 89.083h558v549.033H90z"/></clipPath></defs></svg>