<svg xmlns="http://www.w3.org/2000/svg" width="960" height="960" viewBox="0 0 720 720"><defs><style>*{stroke-linejoin:round;stroke-linecap:butt}</style></defs><g id="figure_1"><path id="patch_1" d="M0 720h720V0H0z" style="fill:#fff"/><g id="axes_1"><path id="patch_2" d="M90 620.751h558V106.45H90z" style="fill:#fff"/><g id="LineCollection_1"><path d="m326.222 130.67 1.194-.151M326.222 130.67l-1.156-6.503M329.18 149.368l-.703-3.444-2.255-15.254M333.111 170.859l-.195 3.558M333.111 170.859l.303-5.071M333.111 170.859l4.397-1.034M333.111 170.859l-4.897.842M328.9 201.402l.33.063M328.9 201.402l-5.593-1.102M328.9 201.402l-.057.482M328.9 201.402l.806-5.458M322.343 222.972l3.208.367M322.343 222.972l-2.358-.29M322.343 222.972l-1.528 5.46M322.343 222.972l1.655-5.48M319.985 222.683l.874-5.662M317.839 227.978l.91-2.22.93-2.016.306-1.06M317.839 227.978l2.976.454M312.108 219.97l.858 4.667.316.83 1.309 1.002 1.987 1.047 1.26.462M314.894 233.877l1.17-1.667 1.775-4.232M314.894 233.877l-.897.705-1.13.693" clip-path="url(#p2f117990a0)" style="fill:none;stroke:#000"/><path d="m314.957 235.99-.093-.656-.073-.616.103-.841M105.02 556.91l9.837-8.31 5.013-4.342 2.592-1.701 2.308-1.143 4.392-1.9 1.878-1.162 1.858-1.625 2.72-3.133 1.712-1.625 2.547-2.029 3.41-2.406 5.81-3.804 1.595-1.417 1.132-1.854M193.591 373.8l-.149.556-.176 2.948.666 2.836 1.486 2.985 3.797 6.182 2.158 3.254 1.058 2.132.955 2.653.525 1.864.277 1.877 1.413 25.5.138 2.15-.124 1.35-.498 1.75-.789 1.525-2.185 2.605-6.197 6.655-2.02 1.965-4.122 2.472-2.933 1.39-1.937.628-2.392.44-2.947.108-3.154.467-2.172.789-3.002 1.51-1.798.962-1.77 1.47-2.366 2.499-10.264 13.804-1.715 2.578-1.176 2.099-.774 2.324-.014 2.606.525 2.419 1.187 3.955.705 2.565.332 1.938-.11 1.63-.983 2.004-1.674 2.258-1.01 1.123-1.012 2.11-.388 2.575.596 3.007 2.034 7.114.46 1.87.176 1.286.023 1.957-.427 1.915M285.698 481.888l-3.664.92-3.247 2.62-3.038 2.647-1.877.46-2.353-2.071-.327-1.065-.269-1.87-.952-.605-1.46-.575-2.532.834-1.579-.46-2.115-1.612-1.4-.547-1.578-.23-1.996.49-1.46.978-1.25 2.1-2.145.835-5.481.863-1.906.95-2.979.978-1.28.777-.894 1.726-2.175 2.273-2.323 1.353-3.843 1.064-2.68 1.123-4.23 1.064-6.732 3.31-3.366 1.783-2.68 1.813-2.592 2.417-3.664 3.856-3.068.69-2.234.978-1.162.26-.863-.404-1.34-1.755-1.162-.46-.715-.72-1.192-.028-1.43.431-2.263 2.043-1.757 1.583-3.932 2.043-4.915 1.899-1.698.805-5.094-.345-3.634.72-4.08-.432-3.486.057h-2.174l-2.65 1.21-1.878.603-2.546 1.08-.534.114M394.725 131.063l-8.34 2.072-11.319 2.648M357.285 139.942l5.866-1.28 11.915-2.879" clip-path="url(#p2f117990a0)" style="fill:none;stroke:#000"/><path d="m372.833 126.895.179.834 1.191 1.871.864 1.324.15.749-.269 2.216-.209 1.065.327.83M398.122 142.84l-.507-.662-.297-.95-.775-.95-.596-.748-.178-.69.06-.662.684-2.505.21-1.266-.12-.979-.447-.777-.983-.95-.448-.638M329.18 149.368l5.269-.853M330.149 154.748l-.362-2.312-.607-3.068M334.449 148.515l-.347 5.795M334.449 148.515l4.6-.35M339.061 143.92l-4.463 1.015-.125 3.185-.024.395M346.692 147.61l-2.87.192M346.692 147.61l2.167 4.478M345.641 142.484l1.226 4.437-.175.688M330.149 154.748l3.953-.438M329.98 160.329l.288-2.475-.014-2.098-.105-1.008M334.102 154.31l-.327 5.456M334.102 154.31l4.93-.775M348.86 152.088l4.447-.647M348.86 152.088l-4.031.599M348.86 152.088l2.22 4.59M329.98 160.329l3.795-.563M329.98 160.329l-.11.939M333.775 159.766l-.331 5.536M333.775 159.766l5.242-.986M359.754 155.095l-4.345.774M356.953 159.119l4.653-.956-1.852-3.068M353.307 151.441l3.897-.57 2.55 4.224M352.708 160.043l4.245-.924M352.708 160.043l-1.628-3.365M346.882 162.724l6.352-1.384-.526-1.297M353.307 151.441l2.102 4.428M355.41 155.869l-4.33.809M355.41 155.869l1.543 3.25M351.08 156.678l-5.236.933M345.641 142.484l4.366-.953M345.641 142.484l-2.79.608M342.852 143.092l.97 4.71M342.852 143.092l-3.79.828M343.822 147.802l-4.773.364M343.822 147.802l1.007 4.885M344.829 152.687l-5.797.848M344.829 152.687l1.015 4.924M345.844 157.61l-4.459.797M345.844 157.61l1.038 5.114M341.385 158.407l-2.368.373M341.385 158.407l1.189 5.223M343.65 168.361l-1.076-4.731M343.65 168.361l-3.798.914M346.882 162.724l.96 4.73-4.191.907M339.061 143.92l-.012 4.246M339.049 148.166l-.017 5.369M339.032 153.535l-.015 5.245M339.017 158.78l-.016 5.478M339 164.258l.852 5.017M339 164.258l3.574-.628M339 164.258l-5.556 1.044M339.852 169.275l-2.344.55M319.048 233.321l4.203.826M317.386 236.251l.455-.765 1.207-2.165M320.815 228.432l-.4 1.364-.919 2.722-.448.803M335.078 236.525l-5.358-1.07M335.078 236.525l.562-6.376M359.046 254.396l-1.734.199-.893.172-1.244-.196-1.266-.257-1.094.157-1.23-.106-1.035-.191-2.143-.755-6.95-2.632-1.845-.646-.626-.302-.459-.305-.971-.961-.737-.937-.8-1.306-.577-1.932-.187-1.308-.091-1.255-.086-5.31M320.815 228.432l3.703.593M324.518 229.025l5.195.765M324.518 229.025l1.033-5.686M324.518 229.025l-1.267 5.122M335.64 230.149l-5.927-.36M335.64 230.149l.684-5.457M323.251 234.147l5.594 1.132M322.588 239.5l.192-2.587.471-2.766M336.324 224.692l4.77.587M336.324 224.692l-5.586-.687M336.324 224.692l.958-5.208M325.551 223.34l5.187.665M325.551 223.34l.798-5.514M328.711 202.305l-1.242 3.937M328.711 202.305l.132-.42M328.25 206.898l.597-3.967-.136-.626M325.62 212.104l1.68.285M325.62 212.104l-1.622 5.387M327.47 206.242l-1.46 4.558-.39 1.304M327.3 212.389l5.414.778M327.3 212.389l.95-5.49M327.3 212.389l-.95 5.437M318.1 216.606l2.76.415M320.86 217.02l3.138.471M321.536 212.094l-.405 2.915-.272 2.012M323.998 217.491l2.351.335M326.35 217.826l5.38.825M337.282 219.484l-5.553-.833M337.282 219.484l1.028-5.509M313.274 193.236l5.444.892M313.274 193.236l.596-5.583M313.7 199.167l-.459-4.386.033-1.545M342.18 197.781l-6.612-.98M342.91 203.596l-.303-4.043-.428-1.772M340.976 190.128l.843 6.126.36 1.527M324.21 195.027l5.496.917M324.21 195.027l-5.492-.9M324.21 195.027l-.903 5.273M324.21 195.027l.938-5.481M329.706 195.944l.403.06M329.706 195.944l.926-5.69M313.87 187.653l5.637.946M313.87 187.653l.828-6.32M325.148 189.546l5.484.708M325.148 189.546l-5.64-.947M325.148 189.546l.958-5.604M335.733 190.991l5.243-.863M335.733 190.991l-4.689-.678M335.733 190.991l-.888-5.635M335.568 196.8l.262-2.651.052-1.654-.149-1.504M340.976 190.128l-.772-5.328M330.632 190.254l.412.059M330.632 190.254l.818-5.337M331.45 184.917l.368.048M331.45 184.917l-5.344-.975M331.45 184.917l.26-.467M321.162 176.91l5.938 1.248M321.162 176.91l-.912 5.706M321.162 176.91l-.014-.987M327.1 178.158l5.319 1.14M327.1 178.158l1.114-6.457M326.106 183.942l.15-.877.844-4.907M332.419 179.297l-.708 5.153M332.419 179.297l1.559.334M332.916 174.417l-.09 1.652-.407 3.228M333.978 179.63l.051.365M333.978 179.63l-1.062-5.213M334.029 179.995l5.213-.695M334.029 179.995l.816 5.36M339.242 179.3l2.802-.524M339.242 179.3l.962 5.5M339.242 179.3l-1.097-5.682M358.165 174.804l-3.807.897M358.165 174.804l.643 2.208M358.165 174.804l-.686-2.192M358.808 177.012l-11.308 3.035M358.808 177.012l.532 1.658M346.228 174.987l.59 2.485M346.818 177.472l2.541-.596M346.818 177.472l-2.32.783M346.818 177.472l.682 2.575M347.5 180.047l.585 2.16M344.498 178.255l.58 2.37 2.422-.578M351.237 174.003l.665 2.276M351.902 176.28l2.456-.58M351.902 176.28l-2.543.596M353.754 173.33l.604 2.37M348.712 174.527l.647 2.35M343.903 175.595l.595 2.66M344.498 178.255l-2.454.521M332.916 174.417l5.229-.8M338.145 173.618l-.637-3.793M328.214 171.701l-6.173.464M328.214 171.701l.904-5.242M322.041 172.165l-.893 3.758M322.041 172.165l1.193-5.162M313.07 167.303l1.4-.04M323.234 167.003l-5.317.157M323.234 167.003l.13-.25M323.364 166.753l5.754-.294M323.364 166.753l1.167-4.711M329.118 166.46l.027-.188M324.53 162.042l5.34-.774M318.72 161.87l3.06-.067 2.75.239M329.145 166.272l.43-2.47.296-2.534M329.145 166.272l4.27-.484M333.414 165.788l.03-.486M342.574 163.63l4.308-.906M357.285 139.942l-7.278 1.589M357.285 139.942l.616 2.33M327.133 127.493l4.931-.738M327.133 127.493l.283 3.026M331.66 124.161l-4.718.86.19 2.472M336.223 126.161l-4.159.594M331.66 124.161l3.89-.53.673 2.53" clip-path="url(#p2f117990a0)" style="fill:none;stroke:#000"/><path d="m336.926 129.397-.029-1.056.26-1.203-.182-.801-.752-.176M336.926 129.397l-4.377.471M333.083 133.27l3.763-.744.08-3.129M327.416 130.519l5.133-.65M333.083 133.27l-5.1.567-.567-3.318M331.66 124.161l.404 2.594M332.064 126.755l.485 3.113M332.55 129.868l.533 3.402M314.934 161.954l3.785-.084M314.934 161.954l-.465 5.308M308.63 161.547l.864.33.954.176 4.486-.099M314.47 167.262l3.447-.102M318.72 161.87l-.803 5.29M320.25 182.616l-.743 5.983M320.25 182.616l5.856 1.326M320.25 182.616l-5.552-1.284M319.507 188.599l-.79 5.529M318.718 194.128l-.833 5.18M317.009 204.767l.794-4.947M317.009 204.767l5.409.978M317.009 204.767l-2.27-.33M321.536 212.094l-4.994-.656.13-2.257-.13-1.178.467-3.236M314.74 204.438l-1.04-5.27M291.715 200.848l1.995-2.432.76-1.05.744-.548 2.92-1.827 4.586-2.677.343.029.268.216.745 1.986 2.174 6.173 1.102 3.116.112.216.201.1 1.646-.043 1.765.05 3.664.28M322.418 205.745l-.882 6.35M322.418 205.745l.1-.716M322.517 205.03l4.952 1.212M323.307 200.3l-.709 4.143-.08.586M328.25 206.898l5.354.957M333.604 207.855l5.161.766M333.604 207.855l-.89 5.312M333.604 207.855l1.06-5.543M343.74 209.359l-4.975-.738M343.74 209.359l-.83-5.763M344.146 214.117l-.034-1.488-.373-3.27M342.91 203.596l-4.942-.77M334.845 185.356l5.359-.556M334.845 185.356l-3.027-.39M335.568 196.8l-5.459-.797M335.568 196.8l-.903 5.512M334.665 202.312l3.303.515M334.665 202.312l-5.436-.847M332.714 213.167l5.596.808M332.714 213.167l-.985 5.484M331.73 218.651l-.992 5.354M330.738 224.005l-1.025 5.785M329.713 229.79l-.868 5.49M328.845 235.28l.875.174M338.765 208.621l-.797-5.794M338.31 213.975l.554-1.492.078-1.002-.233-1.854.056-1.006M344.146 214.117l-1.437-.166-4.116.065-.283-.04M323.307 200.3l-5.422-.991M317.885 199.309l-.082.511M317.803 199.82l-4.102-.653M311.422 180.575l3.276.757M309.63 176.68l.671 3.446.284.244.837.205M306.013 183.544l-.27-.916.315-.786 5.364-1.267M345.275 184.274l-5.071.526M444.096 199.921l-1.556 5.011-5.808 5.412-16.388 7.818-14.576 2.605-1.555-.1-3.216-15.033-5.185-1.336-1.985.364-1.847.694-1.677.694-7.22 1.62-14.198 2.876-17.517 3.7-5.18.915-.651-.293-1.39-.751M314.698 181.332l1.013-6.049M315.71 175.283l5.438.64M315.71 175.283l-6.08 1.398M309.63 176.68l-11.258 2.776-2.055.907-1.542 1.597-1.578 2.91-1.274 2.12-.693.554-2.01.525-1.936 1.05-.32.367-.135.396.239 1.015M100.73 561.776l.35.139.366.088.376.034.377-.02.37-.075.353-.126.33-.177.3-.222M195.064 369.353l5.656-14.331 10.098-25.598 1.024-3.676.373-2.726.153-3.502-.167-3.97.47-3.594.97-3.769 1.48-3.89 8.071-19.87.72-2.486.429-2.138.373-4.464.305-2.165.912-2.152 1.315-1.537 1.798-1.176 2.158-.802 1.87-.635M263.691 254.963l-29.252 11.408-1.368.501M341.305 176.173l.739 2.603M342.044 178.776l.605 2.262M322.588 239.5l1.668-.158 3.426-.72.938-.518 1.1-2.65M323.78 316.124l-1.55-1.08-1.205-1.05-.931-1.575-1.31-2.533-1.356-1.856-2.468-2.752-.721-1.222-.632-2.42-.632-2.334-.361-.895-1.129-1.723-1.264-1.876-1.152-3.096-.654-3.032-.948-6.87-.18-3.294.496-4.165.27-2.225.678-1.636 1.016-1.461 1.286-1.745 1.355-1.286 3.567-3.054 1.038-1.352.497-1.113 1.941-7.612 1.264-4.319.509-1.831 1.384-7.217M328.843 201.884l.386-.419M329.23 201.465l.88-5.462M331.818 184.965l-.107-.515M331.818 184.965l-.774 5.348M330.11 196.003l.934-5.69M323.78 316.124l.812 1.568.03 1.497-1.058 8.374-1.08 5.554-.73 2-.945 1.85-.231 1.186.149 1.44 1.385 5.553 2.122 6.842 1.065 3.316.477 2.454v1.403l.35 1.158.767 1.058 2.01 1.302 4.155 1.791 2.175.633 2.532.216 3.023.23 1.37.446 5.898 3.05 7.894 2.792 5.614 1.568 6.65 1.094 6.166 1.007 2.926.733 1.326.59 2.621 1.929 3.739 3.107 1.831 2.087 1.266 2.043 1.623 2.647 2.041 2.086 2.986 2.785 2.197 1.683 1.347 1.417 1.021 1.655 2.19 4.23 3.127 5.928 1.132 1.453 1.906 1.31 3.008 1.985 1.802 1.439 2.443 2.431 3.232 3.295 2.19 1.986 4.08 3.079 1.534 1.38 6.374 8.273 3.62 4.605 1.31 1.582.834 1.554.551 1.87 1.4 11.036.194 1.15.312.763.775 1.072 2.022 2.083.793.816 1.944 1.741 2.718 1.914 1.828 1.01 1.083.874.752 1.086.477 1.417.774 1.77 1.52 2.863" clip-path="url(#p2f117990a0)" style="fill:none;stroke:#000"/><path d="m586.156 468.983-1.617 2.381-.826 1.266-.767.85-1.176.92-2.57 1.748-2.524 1.899-2.83 2.266-1.579 1.108-1.582.734-3.131.978-2.778.863-1.549.561-.916.26-1.064.042-2.026-.05-.85.137-.81.367-2.13 1.64-1.907 1.525-1.176 1.28-1.609 2.13-1.742 1.41-2.04 1.107-3.56 1.64-7.808 3.766-14.25 7.19-11.05 5.229-6.993 3.467-3.09 1.26-1.66.43-2.741.425-2.673-.014-3.024-.878-3.082-1.216-4.953-2.553-.9-.554-1.065-.532-1.274-.561-1.288-.856-.745-.914-.469-.993-2.278-5.33-.462-1.115-2.182-5.56-.395-1.295-.275-1.389-.358-1.661-1.028-2.439-1.094-3.107-.328-.633-.55-.597-2.8-2.454-1.475-1.424-1.303-.906-1.921-1.173-1.08-.877-1.587-1.54-1.988-2.978M385.14 510.82l2.19-1.855 1.817-1.554 1.117-.676 1.25-.346 5.913-.302 2.16-.086 1.087-.26 1.161-.661 3.56-2.259 8.817-5.438 15.534-9.28 3.425-2.2 4.438-3.008 2.487-1.726 1.49-.806 13.642-6.1M586.156 468.983l-15.207-5.884-2.636-1.195-1.221-.704-1.013-.935-9.16-9.942-3.752-4.245-.969-1.467-.535-2.1-.373-2.878-.074-2.547.476-2.489 1.609-5.79-.03-1.32-.224-.372-3.142-1.597-1.623-.604-1.683-.992-1.594-1.712-1.958-3.741-2.212-4.72-1.445-1.072-3.559-1.496-8.37-4.338-1.281-.892-1.117-1.173-2.651-3.417-1.162-2.093-1.31-1.475-1.81-1.273-1.98-1.007-4.06-1.712-2.873-.583-1.185.072-1.206.295-2.174.633-4.722-.907-.513-.273-.358-.432-.841-1.95-.901-1.69-1.668-3-.12-.582.105-.655.506-.705 2.763-1.85.886-.884.462-.633.968-2.266.44-1.77-.21-.56-1.064-1.555-2.145-2.331-2.27-1.547-1.282-.604-3.477-1.324-.857-.504-2.182-1.95-.841-1.07-.417-.82-.187-1.015.224-.835.551-1.123.261-.985-.082-1.245-.387-.978-.663-.633-1.155-.496-1.869-.367-3.768-.367-3.328-1.339-3.708-2.287-1.892-.893-2.077-.51-2.615-.295-.558.05-.73.324-2.226 1.324-3.455 1-2.13 1.201-1.884.619-1.661.324-9.837.69-1.035-.036-.685-.266-.76-.856-1.064-2.676-1.013-1.763-1.408-1.72-1.236-2.273-2.435-6.144-.543-.748-1.17-.964-.447-.633-.17-.518.156-.978.558-1.612.15-.878-.15-1.338-.09-4.662-1.012-2.51-1.057-2.908-1.013-1.165-.879-.597-1.653-.525-2.979-.195-2.911-.546-2.13-.151-2.033.108-1.444.194-2.264.49h-1.065l-1.08-.188-2.495-.935-5.652-3.202-1.146-.54-1.37-.158-5.288.555-2.092.064-1.333-.209-1.266-.633-8.236-6.568-2.152-1.634-1.63-.898-2.004-.648-1.624-.015-1.943.332-5.526 1.186-3.395 1.18-3.068 1.238-3.232 2.1-2.849 2.59-2.513 2.058-2.1 1.166-1.623.431-1.646.08-1.49-.497-1.697-.935-1.526-.475-1.52-.151-3.656.158-5.175-.13-7.85.152M385.14 510.82l-4.095 3.654-1.906.893-4.111 1.266-3.038.388-1.802.36-1.624.546-7.208 3.827-3.277 2.014-3.41 3.18-1.49 1.683-1.831 3.87-.984 1.352-1.593 1.137-1.698.402-2.1.058-2.726.244-2.248 1.151-2.04 1.712-1.386 2.159-.983 2.23-.119 1.395.47 2.733-.023 1.569-.566 2.416-1.124 2.432-1.02 1.287-2.667 2.18-2.77 2-2.487 1.625-1.563 1.41-2.1 2.2-1.64 2.375-.967.935-2.294 1.165-1.936.432-1.802.028-1.34-.36-1.37-.532-2.04-.532-4.23-.561-1.013.33-1.594 1.713-1.34 1.784-1.847 1.035-1.966.619-1.28.647-.686 1.166.09 2.056.908 4.072.909 3.02 1.832 3.015-.098.546-1.854 1.1-2.665.792-3.5.59-1.147.676-.387.618.044.95.7 1.626.06 1.294-.521 1.173-1.39 1.945.02.382.23.234.402-.03 4.67-2.085 1.98-.526.708.109.432.352.55 1.13 1.162 2.955.216.979.335.683.775.439.856-.108 2.323-1.266.417-.094 3.59.576 2.003.705 1.05.762.692.784.514 1.324.73 1.417.916 1.294 1.817 1.885 1.147.683 1.511.367 2.547-.734 1.877-.23 4.393-.158 1.914-.777 1.058-.618.945-.281 1.087-.036 3.977 1.043 1.14.432 1.31.014 1.199-.237 1.347-.662 4.715-1.575 1.317-.202 2.674-.604 1.485-.924.615-.935.194-.953.022-1.18.193-.906.369-.903.056-.856-.067-1.528.119-.813.55-1.05 1.162-1.791 1.855-4.208.491-1.568.239-2.143.342-1.44.514-1.064.79-.755.788-.302 1.006.043 1.325.194 1.296-.165 1.892-.59.633-.338 1.92-1.582 1.17-.583 4.058-1.043 1.78-1.05 2.138-1.518 1.266-1.295 1.302-2.237 2.212-3.704.7-.619 2.547-1.136 2.055-1.201 1.69-.835 1.49-.935 3.016-2.69 3.976-2.525.961-.842.625-.906.365-.863 1.2-3.374.074-1.215-.41-1.057-2.264-2.67-2.532-5.034-.443-1.313-.405-2.83.149-.576.64-.367 1.884-.266.171-.244-.037-.295-.938-1.713-.067-.935.26-.69 2.287-1.611.64-.828.461-1.193-.007-1.101-.283-.798-.507-.785-1.236-1.518-1.22-1.007-2.041-2.072-1.832-2.46-2.83-3.366-.67-1.453-.73-2.273-1.117-2.633" clip-path="url(#p2f117990a0)" style="fill:none;stroke:#000"/><path d="m385.14 510.82 1.118 2.633.73 2.273.67 1.453 1.116 1.424 1.713 1.943 1.832 2.46 2.04 2.071 1.221 1.007 1.743 2.303.283.798.007 1.1-.461 1.194-.64.828-2.287 1.611-.26.69.067.935.253.612.685 1.1.037.296-.171.244-1.884.266-.64.367-.15.576.097 1.121.31 1.709.442 1.313.619 1.244.841 1.406 1.072 2.385 1.4 1.64.864 1.029.41 1.057-.075 1.215-1.564 4.237-.625.906-.96.842-3.977 2.525-3.016 2.69-1.49.935-1.69.835-2.055 1.2-2.547 1.137-.7.619-3.514 5.941-1.266 1.295-2.138 1.518-1.78 1.05-1.351.388-2.707.655-1.17.583-.863.647-1.057.935-.633.338-1.892.59-1.296.165-2.33-.237-.79.302-.79.755-.513 1.065-.342 1.439-.239 2.143-.491 1.568-1.855 4.208-1.712 2.841-.12.813.012 2.384-.369.903-.193.906-.022 1.18-.194.953-.615.935-1.485.924-5.027 1.086-2.226.828-1.453.467-1.347.662-1.199.237-1.31-.014-2.12-.795-2.997-.68-1.087.036-.945.28-1.058.62-1.914.776-1.154.1-3.24.058-1.876.23-2.547.734-1.511-.367-1.147-.683-1.817-1.885-.916-1.294-.73-1.417-.514-1.324-.692-.784-1.05-.762-2.003-.705-3.59-.576-.417.094-2.323 1.266-.856.108-.775-.439-.335-.683-.216-.979-1.162-2.956-.55-1.129-.432-.352-.708-.109-1.98.526-4.67 2.086-.402.029-.23-.234-.02-.382.109-.284 1.28-1.661.522-1.173-.06-1.294-.7-1.626-.044-.95.387-.618 1.147-.676 3.5-.59 2.665-.791 1.854-1.1.098-.547-.284-.612-1.548-2.402-.91-3.021-.908-4.072-.089-2.056.685-1.166 1.281-.647 1.966-.619 1.847-1.035 1.34-1.784 1.594-1.712 1.012-.331 1.058.086 3.172.475 2.04.532 1.37.533 1.341.359 1.802-.028 1.936-.432 2.294-1.165.968-.935.7-1.108.939-1.266 2.1-2.201 1.563-1.41 2.487-1.626 2.77-2 2.666-2.179 1.02-1.287 1.125-2.432.566-2.416.022-1.57-.469-2.732.12-1.395.982-2.23 1.386-2.159 2.04-1.712 2.248-1.15 2.726-.245 2.1-.058 1.698-.402 1.593-1.137.984-1.352 1.831-3.87 1.49-1.683 3.41-3.18 3.277-2.014 7.208-3.827 1.624-.546 1.802-.36 3.038-.388 4.11-1.266 1.907-.893.76-.59 3.335-3.064M586.156 468.983l13.701 5.28M581.33 301l-.767 1.958-.157.431-.044.519.268 1.208.507 2.043.7 4.518.416 2.878.604 2.061.383.555.596.41 1.065.324.893.165 1.947.003 2.406-.216 2.219-.337 1.579-.022 2.04.187 1.229.273 1.519.202.99-.144 1.363-.561.685-.13.596.188.968.489 1.333.345 2.1.51 2.629.663.677.41.625.942 1.043 1.648 1.155 1.273.751.928.276 1.137.09 1.705-.559 2.432-1.58 3.28-1.57 2.698-.328.857-.044.64.178.856.477 1.31.87 1.438.113.964-.239.878-1.295 2.014-1.944 2.806-.298.734-.208 1.13-.171 1.482-.201 1.05-1.147 2.352-2.592 4.266-.804 1.878-.186 1.03-.082 5.114.104 1.065.492 1.547.975 1.532 1.035.72 1.132.345 2.04.187.917.266 1.37.834 3.09 2.583 1.676 1.777.923.67 1.072.596 1.736 1.094 1.332 1.173 1.095 1.475 1.02 1.582.775 1.698.893 2.777.931 3.086.857 2.13 2.085 5.532 1.645 3.373 2.949 5.655 4.35 6.633.312.633.06 1.007-3.069 8.115-1.593 3.438-1.251 2.59-2.473 4.619-1.385 1.899-5.108 4.92-5.034 4.95-2.644 2.625-1.422 1.619-.82 1.338-12.614 21.408M195.064 369.353l-.878 2.225-.595 2.221M308.63 161.547l-1.013-.446-1.027-.46-.923-.562-.909-.56-1.236-.85-1.773-.878-1.027-.432-1.117-.561-.879-.446-.82-.59-1.205-1.224-.388-.46-.506-.389-.849-.388-14.908-7.354-3.545-1.468-.461-.143-.76.043-.477-.058-.565-.245-.581-.33-1.132-.504-.953-.346-.79-.258-.744-.432-1.296-.735-1.757-.834-1.832-.85-2.636-.92-1.236-.46-.299-.188-.58-.345-1.013-.374-1.46-.317-1.43-.158h-1.578l-1.668.029-1.207-.13-1.89-.317-.478-.043-.67.072-1.504.446-3.396 1.008-4.006.748-10.723 1.597-1.46.331-2.264.864-.491.273-.387.519-.521.963-.432.62-.656.46-1.295.69M290.157 242.042l-.582-1.773-3.08-9.963-.133-2.573.366-2.38 1.132-2.316 1.93-1.994 4.327-4.406 1.066-2.347 1.131-2.637 2.197-9.424 1.797-7.879 3.163-8.748 4.16-11.064 1.198-5.532-.199-7.459M323.6 118.565l.715 1.5.75 4.102M374.433 116.34l-1.808.265-1.218.304-.983.873-1.612 1.026-4.126 1.671-2.201.911-2.398.684-.825.228-1.061.57-1.1.304-6.8.72-.55.19-.433.305-.118.531.196.988.276 1.595.275 2.089.079 2.392-.08 1.9-.235 2.126-.04 2.089.119 2.013.217 1.417M104.238 558.749l.782-1.839M104.238 558.749l-.157-.332-.207-.305-.251-.272-.291-.233-.324-.188M104.384 559.826l.008-.365-.05-.362-.104-.35M103.008 557.419l2.012-.509M103.553 561.417l2.085.029" clip-path="url(#p2f117990a0)" style="fill:none;stroke:#000"/><path d="m103.553 561.417.261-.262.219-.298.17-.325.118-.347.063-.36M105.638 561.446l-1.254-1.62M195.064 369.353l3.895.973 3.932.115 8.727-.259M290.11 242.55l-.262.153-.416.337-.362.363-.753 1.007-.825.895-.578.437-13.61 5.473M290.11 242.55l.047-.508M290.735 242.186l-.429.25-.196.114M290.157 242.042l.578.144M317.386 236.251l-.445.1-.427.032-.833-.003-.528-.131" clip-path="url(#p2f117990a0)" style="fill:none;stroke:#000"/><path d="m315.268 238.378.865-.834 1.253-1.293M312.377 239.343l.313.107.325.06.332.014.329-.035.32-.082.305-.127.281-.17.252-.207.217-.242.217-.283M311.709 235.862l-.217.242-.178.27-.134.293-.086.31-.038.317.01.32.061.316.108.302.154.284.196.258.233.228.266.19.293.151" clip-path="url(#p2f117990a0)" style="fill:none;stroke:#000"/><path d="m294.474 243.367 3.556-1.32 4.277-1.161 2.931-.685.97-.11 1.392-.284 2.53-.281 1.307-.086.94-.097M311.709 235.862l-1.115.898-.767.665-.956.593-.89.525-1.368.609-1.36.477-1.49.504-1.927.375-.94.126-1.506.153-1.62.085-2.273.098-1.577.247-.422.113M312.867 235.275l-.321.083-.304.127-.281.169-.252.208" clip-path="url(#p2f117990a0)" style="fill:none;stroke:#000"/><path d="m314.957 235.99-.233-.227-.266-.191-.293-.15-.312-.107-.325-.061-.332-.013-.33.034M314.957 235.99l.196.259M315.268 238.378l.094-.28.087-.31.039-.318-.012-.32-.06-.315-.109-.303-.154-.283M294.474 243.367l.082-.566-.044-.475-.101-.335-.29-.364-.623-.297M274.164 253.27l5.135-1.994 1.804-1.033 1.598-1.036 3.634-2.444 1.128-.633 2.244-.993 4.767-1.77M293.498 241.33l-1.692.45-1.071.406M273.303 251.215l-.177.279-.043.272.007.308.08.307.123.308.195.238.217.147.459.196M263.691 254.963l3.233-.498h2.504l2.808-.447 1.928-.748M273.303 251.215l-9.612 3.748" clip-path="url(#p2f117990a0)" style="fill:none;stroke:#000"/></g><path id="PatchCollection_1" d="m323.413 200.425-.822 4.549 4.823 1.183 1.27-4.702z" clip-path="url(#p2f117990a0)" style="fill:green;fill-opacity:.8"/><g id="PatchCollection_2"><path d="m350.525 151.336-1.143-5.315 4.418-.887 1.144 5.314zM319.747 181.132l-4.352-.636.763-4.87 4.35.635z" clip-path="url(#p2f117990a0)" style="fill:#90ee90;fill-opacity:.8"/></g><path id="PatchCollection_3" d="m338.876 176.422 18.875-4.34 2.137 6.775-5.67 1.27.3.874-8.875 2.197-.802-2.52-4.677 1.25z" clip-path="url(#p2f117990a0)" style="fill:#d3d3d3;fill-opacity:.8"/><g id="PatchCollection_4"><path d="m331.8 214.266-.468-.086.112-.562.468.088zM330.594 214.835l-.73-.144.131-.621.73.144zM330.757 214.13l.142-.763.445.078-.141.762zM330.6 213.914l-.26-.453.17-.092.262.453zM329.246 214.123l-.412-.096.275-1.102.412.097zM329.179 215.706l-.619-.132.179-.784.619.132zM328.441 215.547l-.417-.057.045-.299.417.057zM328.53 215.173l-1.086-.187.08-.432 1.087.187zM334.838 214.598l.067-.525.254.03-.067.525zM333.691 214.375l-.67-.109.097-.56.67.107zM333.855 215.058l-.864-.165.089-.432.864.165zM334.093 215.871l-1.318-.216.067-.38 1.318.217zM333.207 216.519l-.618-.086.053-.356.618.086zM334.66 217.763l-.284-.051.089-.46.284.051zM333.796 218.318l.104-.497.159.031-.104.497zM334.935 218.39l.119-.648.43.074-.12.647zM334.176 218.368l.111-.597.298.052-.111.597zM333.185 217.656l-.64-.087.045-.312.64.087zM333.051 218.21l-.596-.094.07-.416.596.093zM335.076 220.267l-.295-.047.104-.605.296.048zM334.332 220.001l-.414-.063.074-.46.414.063zM333.55 219.98l-.453-.063.075-.503.452.062zM332.41 219.714l-.374-.048.075-.547.374.048zM332.79 220.742l-.662-.086.056-.405.663.086zM329.76 221.865l-.687-.14.157-.719.686.139zM330.31 223.124l-.684-.108.06-.36.685.108zM333.073 222.706l-.35-.05.04-.252.35.05zM332.552 223.167l-.752-.08.065-.577.752.08zM332.06 223.706l-.52-.086.045-.256.521.087zM333.654 223.844l-.338-.03.052-.547.338.03zM331.547 226.175l-.812-.144.101-.533.812.144zM331.458 226.772l-.693-.13.08-.4.693.13zM331.591 228.232l-1.007-.193.238-1.159 1.008.194zM330.891 229.398l-.597-.112.238-1.187.598.112zM325.06 230.686l-.625-.086.057-.388.626.087zM325.083 231.643l-.827-.115.077-.512.826.115zM327.391 230.672l-.378-.042.06-.51.378.04zM330.288 231.923l-.383-.076.082-.382.383.077zM330.214 232.78l-.514-.05.045-.424.513.05zM330.214 233.211l-.64-.086.041-.291.641.087zM330.028 233.621l-.388-.064.056-.308.387.064zM329.864 234.175l-.454-.107.084-.33.454.108zM330.564 235.233l-.482-.094.104-.497.482.095zM333.297 237.032l.06-.41.364.05-.06.41zM332.865 237.017l.037-.33.263.027-.037.331zM331.978 236.686l-.02-.308.358-.022.02.31zM330.236 237.384l-.083-.461.297-.05.084.461zM329.484 236.816l-.036-.358.305-.028.037.357zM327.779 238.169l-.351-.037.044-.402.351.036zM359.017 254.868l.015-.227.574.036-.015.227zM357.952 255.242l-.071-.562.908-.108.072.562z" clip-path="url(#p2f117990a0)" style="fill:#a9a9a9;fill-opacity:.8"/></g></g></g><defs><clipPath id="p2f117990a0"><path d="M90 106.449h558v514.303H90z"/></clipPath></defs></svg>