<svg xmlns="http://www.w3.org/2000/svg" xmlns:xlink="http://www.w3.org/1999/xlink" width="960" height="960" viewBox="0 0 720 720"><defs><style>*{stroke-linejoin:round;stroke-linecap:butt}</style></defs><g id="figure_1"><path id="patch_1" d="M0 720h720V0H0z" style="fill:#fff"/><g id="axes_1"><path id="patch_2" d="M90 488.684h558V238.516H90z" style="fill:#fff"/><g id="LineCollection_1"><path d="m409.666 265.217 6.305-9.152M329.585 412.18l5.044-15.33 3.363-9.921 3.191-12.424 2.939-11.43.481-1.15.567-.92 5.573-8.273 5.931-8.485 6.196-9.883 16.246-24.075 14.772-21.775 15.778-23.297M631.64 357.08l.473-1.55.51-1.418.49-2.043 1.38-9.33 1.039-7.86.208-1.252.396-1.546.661-2.061.322-2.577.15-8.614-.566-13.4-.888-28.805-.784-19.446-.274-7.068-.085-4.39-.142-.773-.274-.57-.405-.442-.624-.323-1.36-.23-5.157-.055-2.456.13-2.002.35-5.592 1.232-7.291 1.38-7.557 1.418-11.938 1.343-10.333 1.455-5.025.957-3.381.57-9.219.847-12.051.68-10.541.424-8.935.185-5.705.367-6.517 1.4-3.949 1.048-2.134.829-5.932 2.834-2.663.976-1.814.442-2.229.092-3.04.22-4.8.093-6.176.129-43.805 1.62-31.34 1.048-.619-.18M317.628 414.546l-1.464.634-.793.654-.642.644-2.069 2.972-.69.893" clip-path="url(#pa50319abd9)" style="fill:none;stroke:#000"/><path d="m288.49 429.757 10.135-3.81 7.792-3.12 1.19-.505 4.364-1.98M335.59 442.697l-12.748-11.339-8.671-8.144-.821-.892-.7-.967-.68-1.012M486.705 410.782l-8.198-16.51-2.617-5.208-2.021-4.5" clip-path="url(#pa50319abd9)" style="fill:none;stroke:#000"/><path d="m424.093 392.846 30.357-4.684 3.325-.515 5.194-1.05 8.064-1.566 2.836-.467M631.64 357.08l-138.377 24.117-19.394 3.367M329.585 412.18l-6.256 1.305M384.726 399.996l-23.367 5.43-31.774 6.754M320.338 414.049l2.99-.564M320.338 414.049l-2.71.497M322.256 408.242l-1.964 5.153.046.654M363.56 468.102l-5.29 1.206M363.56 468.102l-7.774-6.91M374.979 478.257l-2.58-2.121-8.84-8.034M375.564 465.213l-8.954 1.84-1.095.267-.926.313-1.03.469M398.875 460.18l-10.129 1.909M398.875 460.18l-.774-3.116M400.216 466.832l-.071-.956-.137-1.004-1.133-4.693M354.596 469.98l.624-7.758.566-1.03M335.59 442.697l4.924 4.379 6.895 6.468 8.377 7.648M377.297 481.242l-.052 1.085M377.297 481.242l.682.647M377.297 481.242l.539-.772M377.297 481.242l-.728-.938M400.216 466.832l.284 4.624M400.216 466.832l13.998 4.684M374.979 478.257l1.59 2.047M377.094 479.78l-.864-.667-.458-.364-.793-.492M377.094 479.78l-.525.524" clip-path="url(#pa50319abd9)" style="fill:none;stroke:#000"/><path d="m391.546 483.028-9.852-3.605-.963-.352-.831-.322-.666-.294-.562-.033-.52.097-.288.225-.255.221-.189.318-.326.497M377.094 479.78l.742.69M391.112 483.873l.434-.845M391.546 483.028l.538-1.601.302-1.693.118-3.188M354.596 469.98l3.674-.672M358.27 469.308l-.368 3.184M366.963 480.137l-1.6-1.465M357.902 472.492l-.746 7.122M365.363 478.672l-6.3-5.766-1.161-.414M356.552 483.516l.242-1.564M375.564 465.213l13.182-3.124M375.564 465.213l-1.209-5.015M392.178 430.07l-10.182 2.255M393.387 435.104l-.595-2.641-.614-2.394M384.726 399.996l6.092 25.62 1.36 4.453M369.926 440.468l-.58-2.525M369.926 440.468l1.096 4.908M369.926 440.468l13.327-2.723M393.387 435.104l1.096 4.904M383.253 437.745l2.238-.534 7.896-2.107M422.526 429.628l-22.688 4.095-6.45 1.38M425.204 450.813l1.477-.351.793-.304.709-.34.803-.451 1.105-.617.661-.266.241-.166.25-.3.16-.381.095-.516-.037-.524-.218-.626-3.457-6.433-5.26-9.91M420.986 427.07l.585.92.955 1.638M381.996 432.325l1.257 5.42M369.345 437.943l-.444-1.933-.005-.29.15-.331.327-.194 12.623-2.87M383.253 437.745l1.01 4.821M388.746 462.089l-1.074-4.78M374.355 460.198l-1.204-5.11M374.355 460.198l13.317-2.89M387.672 457.308l-1.048-4.932M387.672 457.308l10.05-2.245M397.722 455.063l.38 2M397.722 455.063l-1.039-4.859M373.151 455.088l-1.062-4.856M373.151 455.088l13.473-2.712M386.624 452.376l-1.123-4.776M386.624 452.376l10.06-2.172M396.683 450.204l-1.17-5.088M372.089 450.232l-1.067-4.856M372.089 450.232 385.5 447.6M385.5 447.6l-1.237-5.034M385.5 447.6l10.012-2.484M395.512 445.116l-.91-4.514M371.022 445.376l13.241-2.81M394.483 440.008l-4.411 1.067-5.809 1.491M394.483 440.008l.12.594M405.445 396.114l-11.652 2.042-9.067 1.84M288.49 429.757l-1.616.607-1.888.534-2.06.24-3.456-.166-22.933-2.448-3.664-.35M116.239 458.872l33.833-7.674 31.716-6.975 29.016-6.92 34.418-8.08 2.909-.607 2.267-.332 2.475-.11M237.562 372.223l.52 1.896.387 1.344 5.128 19.564 9.276 33.147M100.73 403.226l2.893 10.276 2.605 10.163 5.631 20.462 4.38 14.745M424.093 392.846l-18.648 3.268M439.48 422.133l-.194-.451-.525-1.03-3.144-5.94-5.753-10.823-5.77-11.043M405.445 396.114l5.747 11.263 6.1 12.313 3.694 7.38M439.48 422.133l-.553.129-.72.153-1.032.173-1.941.474-1.89.608-6.455 1.578-5.903 1.822M425.204 450.813l-11.491 2.731-3.73.746-4.459 1.132-7.423 1.642M237.562 372.223l-5.912 1.26-5.384 1.234-125.535 28.509M318.74 411.085l-1.169 2.844.057.617M415.97 256.065l-.415-.276-.68-.038-6.65 1.86-16.15 4.27-20.59 5.375-18.4 4.693-14.357 3.369-11.296 2.65-10.938 2.613-7.074 1.648-.888.028-.69-.194-.689-.441-.567-.681-.812-1.841-.434-1.196-.529-.829-.69-.902-.83-1.178-.653-1.362-.784-2.033-1.379-4.5-.396-.6-.642-.45-.86-.276-1.152-.074-1.795.285-1.54.276-1.067.276-1.02.452-2.635 2.08-3.296 2.88-1.937 1.187-.632.24-.614.073-.718-.12-1.001-.515-1.039-.506-.944-.644-1.21-1.51-.708-.726-.831-.488-2.05-.543-3.145-.525-2.116-.073-1.105.12-1.048.33-6.64 2.908-11.127 5.062-6.082 2.762-3.57 1.914-1.946 1.675-1.926 1.895-.936 1.234-.293.616-.075.672.141.736.312.663 9.596 9.276 3.986 3.829 1.303 1.417 1.229 1.914 1.076 2.559 2.04 7.675 2.116 9.092 1.266 7.363 2.607 15.736 2.522 15.663.274 2.062-.03.488-.273.57-.293.368-.576.368-1.69.433-5.394 1.122-8.019 1.758-5.071 1.077-3.94 1.067M439.48 422.133l2.955-.603 11.004-2.641 5.762-1.298 2.606-.625 4.59-1.317 5.677-1.315 5.81-1.28 3.588-.91 5.233-1.362M401.236 481.215l-.416-4.547M357.156 479.614l-.362 2.338M357.156 479.614l5.355 2.153M369.345 437.943l-2.12-.98-.841-.268-.888-.027-.992.018-7.32.672-9.974 1.97-8.566 1.444-.719.11-.925.709-.378.276-1.031.83M449.584 481.147l.594 2.183M425.204 450.813l2.87-.18 1.08-.165 1.014-.098.607-.395.794-.165.574.379.557.822.777.872.557.79.743 1.53.354 1.036.574.542.557 1.02 3.31 6.12 5.926 10.659 4.086 7.567M414.327 481.233l-13.507-4.565M400.82 476.668l-.32-5.212M414.63 476.228l-14.13-4.772M394.602 440.602l15.154-3.133M377.245 482.327l.255-.247.48-.191M318.74 411.085l1.457-3.543" clip-path="url(#pa50319abd9)" style="fill:none;stroke:#000"/><path d="m314.417 411.39 4.065-.383.259.078M323.329 413.485l.023-.79 1.511-4.84M365.363 478.672l-2.852 3.095M365.363 478.672l1.663-1.506M362.511 481.767l-2.077 1.933-3.64-1.748" clip-path="url(#pa50319abd9)" style="fill:none;stroke:#000"/></g><g id="PatchCollection_1"><path d="m366.142 482.882 2.815 2.392-1.134 1.362-3.4-1.105-.038-.79zM666.153 450.56l-2.07-5.699-.605-6.287-8.462-20.024-.545-9.025-10.88-5.89-7.662-35.338 1.556-9.82 11.546-3.137 1.753 15.505 5.5 21.6 3.024 3.534 5.44 1.575-2.222 7.068 1.617 2.944 10.82-6.095 13.3 1.767 1.269 2.164-9.068 4.712h-4.639l1.013 5.3-1.21 5.698-3.43 2.356-.8 4.122v5.89l-3.024 6.67 1.814 4.123-.604 20.612z" clip-path="url(#pa50319abd9)" style="fill:#00f;fill-opacity:.8"/></g><g id="PatchCollection_2"><path d="m139.448 346.108 7.798-4.123 6.65-5.89 41.709-26.504 18.74-17.08 4.291 5.89-32.642 25.326-18.135 10.601-16.32 14.136-6.65 4.712-4.836-1.178zM215.417 290.743l5.97-6.478 7.858-4.123 12.694-17.67-17.47-123.297 1.36-7.466-9.278-30.631L57.238 11.333l9.007-44.565L246.442 76.927l44.264-93.075L79.604-102.35l19.072-85.234 109.08 31.623 16.864-79.933 138.277 79.535 15.46-41.24 11.953-25.525 5.38-59.124 1.814-3.344-.544-29.444-12.15-6.496-18.075-20.416 64.076 8.248 4.836 4.714-3.627 1.576-4.035-2.165-6.241 2.165-6.65 1.179-3.43 4.11 11.289 8.455 1.209 7.659-2.418 10.989 1.813 3.534 4.836.59 5.44 6.687 1.814 8.248-10.88 22.198-5.441 16.305 35.665 11.386 5.44 5.302-45.533 91.304 44.717 25.347-3.023 4.904-25.977-15.317-31.237 67.749-3.627.986.604 4.315-25.993 61.855 154.553 65.181-30.83 48.302-187.406 54.207 16.941 47.902-29.634 10.012 3.022 8.247 1.209 8.246-7.844 2.753-7.253 5.89-5.44-4.52-10.882-.191-28.425 12.943-6.045 7.067-6.65 4.33-5.833 4.122zM668.98 386.158l6.648-2.356 13.239-1.767 15.777 11.78 20.552-1.179 14.448-12.957-1.557-3.533-11.485-2.946 21.565 1.179 38.083-44.173 4.836-2.945 5.44 4.123.605 5.698 48.962 103.26-163.014 32.39 2.418 12.957 6.452 5.89 15.717 26.884 21.701-5.683 15.625 28.646-8.916 3.6-20.96-7.512-10.472-12.367-13.964-8.245-12.03-18.256-12.497-24.146-4.428-19.435-7.858 4.122-24.24-90.698 6.302-.192 7.662 35.338 10.88 5.89.545 9.025 8.462 20.024.605 6.287 6.105 26.488 3.023 4.711-3.023-31.787-1.814-4.123 3.023-6.67v-5.89l.8-4.122 3.431-2.356 1.21-5.698-1.013-5.3h4.639l9.068-4.712 8.462-3.931-9.731 1.767-13.3-1.767zM350.414 356.503 393.47 293.1l35.529 3.533 13.903 90.113-25.389 5.302-6.65-2.563-23.378 1.384-21.353 5.301-13.903.59 2.357-22.97 6.045-7.657-2.766-5.3-10.88 2.149 1.013-3.328 5.984-1.369zM490.051 222.228l-18.74 39.463 31.978-1.575 21.762-7.068 37.539-1.37 62.866-10.204 10.88 1.178.605 17.862 6.65 4.52-3.627 33.573-.605 30.627-6.06 25.841 12.65-5.433 10.275-20.614 2.418-23.56-3.43-16.492 1.012-21.203-.952-7.849 6.453-22.382-10.276-.78-2.418 4.903z" clip-path="url(#pa50319abd9)" style="fill:#006400;fill-opacity:.8"/><path d="m235.758 286.62 6.453-5.3 25.328-12.37 9.068 1.178 6.71 5.11 10.88-7.465h3.627l19.344 41.23 6.649 22.38-6.65 7.657 6.65 3.932.605 8.437-7.859 1.767-2.826 5.89 4.64.588-15.717 38.283 2.418 7.465 1.457 15.883-4.934-.266-3.777-5.016-25.798 6.231-8.718-62.182-6.997-41.817-4.489-15.122zM204.535 440.75l-85.64 20.23 17.53 67.122 9.339-2.783 1.934-4.284 5.652-1.384 4.02 3.74 39.972-11.028-11.546-20.966 29.212-6.876zM400.872 436.833l20.047-3.732 1.39 4.77 3.121-.692 3.045 5.639-5.236.883.28 6.147-17.508 3.866-3.952-6.81 1.934-2.71-3.423-4.027zM483.99 464.712l5.41-1.039 11.485 14.532-8.16 4.418zM281.894 526.438l16.503-36.263 5.161-1.428 2.191-6.522 2.743 1.222 1.186-6.037-2.796-3.872-.098-11.182 8.335-5.16-7.33-21.048-6.347 1.473.68-4.756-1.488-6.243 6.347-3.048-3.143 7.23h6.747l8.16 27.378-3.022 6.184 1.511 2.841.205 15.018-2.902 2.694-.302 4.02 1.11 2.458-5.062 7.318 4.254 8.392-2.818 15.9-16.345 4.668z" clip-path="url(#pa50319abd9)" style="fill:#006400;fill-opacity:.8"/></g><g id="PathCollection_1"><defs><path id="maaa4fa33aa" d="M0 3a3 3 0 1 0 0-6 3 3 0 0 0 0 6z" style="stroke:green;stroke-opacity:.8"/></defs><g clip-path="url(#pa50319abd9)"><use xlink:href="#maaa4fa33aa" x="387.669" y="483.851" style="fill:green;fill-opacity:.8;stroke:green;stroke-opacity:.8"/><use xlink:href="#maaa4fa33aa" x="387.582" y="483.055" style="fill:green;fill-opacity:.8;stroke:green;stroke-opacity:.8"/><use xlink:href="#maaa4fa33aa" x="388.869" y="482.766" style="fill:green;fill-opacity:.8;stroke:green;stroke-opacity:.8"/><use xlink:href="#maaa4fa33aa" x="384.438" y="483.914" style="fill:green;fill-opacity:.8;stroke:green;stroke-opacity:.8"/><use xlink:href="#maaa4fa33aa" x="385.125" y="483.45" style="fill:green;fill-opacity:.8;stroke:green;stroke-opacity:.8"/><use xlink:href="#maaa4fa33aa" x="383.101" y="482.175" style="fill:green;fill-opacity:.8;stroke:green;stroke-opacity:.8"/><use xlink:href="#maaa4fa33aa" x="381.417" y="483.372" style="fill:green;fill-opacity:.8;stroke:green;stroke-opacity:.8"/><use xlink:href="#maaa4fa33aa" x="380.693" y="482.619" style="fill:green;fill-opacity:.8;stroke:green;stroke-opacity:.8"/><use xlink:href="#maaa4fa33aa" x="380.824" y="481.851" style="fill:green;fill-opacity:.8;stroke:green;stroke-opacity:.8"/><use xlink:href="#maaa4fa33aa" x="381.532" y="481.238" style="fill:green;fill-opacity:.8;stroke:green;stroke-opacity:.8"/><use xlink:href="#maaa4fa33aa" x="381.734" y="480.407" style="fill:green;fill-opacity:.8;stroke:green;stroke-opacity:.8"/><use xlink:href="#maaa4fa33aa" x="382.718" y="480.809" style="fill:green;fill-opacity:.8;stroke:green;stroke-opacity:.8"/></g></g><path id="PatchCollection_3" d="m368.181 479.385 1.099 1.104-1.948 1.84-1.099-1.104z" clip-path="url(#pa50319abd9)" style="fill:#90ee90;fill-opacity:.8"/><g id="PatchCollection_4"><path d="m406.366 396.78 8.61-1.177 10.303 19.737 9.245-1.38 3.751 7.516-16.978 4.76zM239.482 485.214l27.3-6.964-1.813 12.073 7.737-1.811-4.435 37.69-18.24-1.472-5.615-22.135-1.609-.2-4.262-10.055z" clip-path="url(#pa50319abd9)" style="fill:#006400;fill-opacity:.8"/></g><g id="PatchCollection_5"><path d="m372.054 546.564 2.902-48.924-3.93-2.356-.754-14.878-14.532-9.57 7.59-2.395 1.658-.32 5.444 4.52 1.738-1.561 1.032.41 3.088-1.715 2.627 1.872-.425 5.973 10.586 3.875.051-3.077 10.33 3.557 10.481 6.191 31.131 10.696-5.47 6.434 9.671 9.128 5.743-5.396 4.564 2.393.8 11.586 8.841-3.084 24.082 17.763.4 4.712-3.423 1.767-2.289-2.702-29.62 11.874 25.66 22.628-2.085 7.303-81.614-28.073zM368.026 433.881l39.474-6.317 1.33 6.125-9.393 3.004 2.04 6.714-5.04 1.766 2.902 13.892-25.366 5.25z" clip-path="url(#pa50319abd9)" style="fill:#d3d3d3;fill-opacity:.8"/></g><g id="PatchCollection_6"><path d="m692.712 322.038-.297-3.62-2.061.161.085 1.048-3.084.24.21 2.572zM378.057 485.148l.846-.869.87.804-1.068 1.096-.51-.47.222-.228zM388.598 484.367l.617.54-.744.807-.618-.54zM389.822 484.236l.544-.617-.551-.461-.544.618zM389.219 483.816l.317.258-.27.316-.317-.257zM387.988 483.665l.455.407.617-.655-.455-.407zM386.777 483.735l.456.383.487-.55-.457-.383zM387.058 484.498l.492.46.6-.608-.491-.461zM384.76 484.186l.716.648.519-.543-.498-.451-.093.097-.218-.197zM382.662 483.567l.663.585.793-.852-.663-.586zM382.072 483.54l1.006-1.056-1.432-1.296-1.007 1.057zM384.72 482.788l.361.362.226-.215-.362-.36z" clip-path="url(#pa50319abd9)" style="fill:#a9a9a9;fill-opacity:.8"/></g></g></g><defs><clipPath id="pa50319abd9"><path d="M90 238.516h558v250.167H90z"/></clipPath></defs></svg>