<svg xmlns="http://www.w3.org/2000/svg" width="960" height="960" viewBox="0 0 720 720"><defs><style>*{stroke-linejoin:round;stroke-linecap:butt}</style></defs><g id="figure_1"><path id="patch_1" d="M0 720h720V0H0z" style="fill:#fff"/><g id="axes_1"><path id="patch_2" d="M90 616.937h558V110.263H90z" style="fill:#fff"/><g id="LineCollection_1"><path d="m400.054 163.737-.129-5.958-.117-2.097-.265-1.749M384.533 130.214l.91 6.4.618 2.34 1.028 1.668 1.35 1.425 2.762 2.044 2.438 2.313 5.11 5.943.794 1.586M384.17 153.954l.662.285h1.753l4.13.108 4.597.356 1.09-.143 1.52-.356 1.621-.27" clip-path="url(#p966db6f895)" style="fill:none;stroke:#000"/><path d="m431.662 155.524-.585.25-1.246.213h-1.091l-1.48-.25-1.286-.642-1.754-.713-1.246-.642-1.403-.356-4.246-2.176-.468-.357-.896-.178-.662.142-.74.357-.351.535-.273 1.248-.662 2.212-.117.713-.35.285h-1.2469999999999999l-2.494-.392-2.182-.321-2.494-.463-2.844-.571-2.002-.485M370.11 370.674l5.377-.061M370.11 370.674l-.084 10.577M365.099 370.605l2.892.045 2.12.024M372.234 368.984l-.793.94-1.33.75" clip-path="url(#p966db6f895)" style="fill:none;stroke:#000"/><path d="m370.448 368.411-.22 1-.009.093-.109 1.17M370.026 381.251l5.313.061M370.026 381.251l-.121 10.822M366.078 380.445l1.052.622.46.134 2.436.05M397.898 210.807l-.356.806M400.06 202.181l-.135.99-.734 3.226-1.293 4.41M386.35 207.807l1.207.375.312.107.662.446.877.481.7.428 1.19.963.603.57.74.5 1.812-.018 2.338-.017.643-.34.464-.495M371.696 366.292l2.137 1.657M371.696 366.292l-4.103-2.902M371.696 366.292l7.072-8.38M372.234 368.984l.163-1.11-.7-1.582M370.448 368.411l.065-.172.162-.424.125-.187.615-.917.281-.419M369.905 392.073l5.167-.052M373.998 396.41l-2.595-1.675-.823-.78-.499-.887-.176-.995M397.094 336.926l-9.16-.27M397.094 336.926l.824-.916M392.628 341.949l.399-.443 4.067-4.58M386.53 230.84l-.437 2.17M397.542 211.613l-1.318 2.985-2.027 3.415-6.433 10.352-1.233 2.474M376.902 229.26l.448-.41.72-.375.799-.124.624.035.72.089.76.286.799.41.818.142 1.675.393 1.578.481.41.25.278.402" clip-path="url(#p966db6f895)" style="fill:none;stroke:#000"/><path d="m383.622 221.182-.117 1.052.195.446.604.535.273.66.604 1.818.33.945.176.892.273.731.33 1.159-.019.678.26.741M384.533 130.214l8.462-.691M382.931 120.584l.339.783.558 2.393.705 6.454M373.998 396.41l1.057-.653M373.998 396.41l1.648 1.064M384.578 376.929l1.65-1.964M384.578 376.929l-6.308-4.418M384.578 376.929l2.649 1.855M385.456 369.941l3.613-4.715M383.587 379.127l2.25 1.512M383.587 379.127l-5.398-1.195M383.587 379.127l-5.362-3.652M391.474 378.658l-5.246-3.693M391.474 378.658l2.211.59M387.227 378.784l2.76 1.933 1.487-2.06M384.328 336.26l4.086 2.8M384.328 336.26l1.978-2.281M384.328 336.26l-2.163 2.494M384.328 336.26l-5.398-3.57M367.593 363.39l-4.214-2.878M367.593 363.39l6.958-8.511M365.667 367.09l.09-.35 1.836-3.35M375.055 395.757l.007-1.625M375.055 395.757l.59 1.717M389.069 365.226l7.541-8.43M382.972 360.896l1.414.963 4.683 3.367M372.234 368.984l-1.786-.573M378.27 372.51l-.045 2.965M378.27 372.51l.024-1.555M365.099 370.605l-2.346.036M365.667 367.09l-.514 1.937-.054 1.578M374.345 422.512l2.051-1.81 1.322-1.666.705-1.99.441-3.924.558-1.613 1.998-4.06.705-1.558.264-1.398-.176-1.56-.705-1.29-1.234-1.182-4.628-2.987M378.768 357.913l4.204 2.983M378.768 357.913l-4.217-3.034M386.23 349.245 381.125 355l-2.358 2.912M386.228 374.965l-7.069-4.988M405.46 360.39l3.032-8.556M408.472 377.926l-.533-1.202-.363-1.061-.413-1.094-.494-.9-.384-.472-.436-.452-.532-.557-2.326-4.219 2.468-7.58M397.635 357.568l.955.72 6.87 2.101M392.628 341.949l-4.214-2.889M392.628 341.949l-2.002 2.282M386.23 349.245l4.37 3M386.23 349.245l-4.387-3M386.23 349.245l4.396-5.014M370.537 351.94l-7.158 8.572M370.537 351.94l-2.542-1.898-.991-.413M374.55 354.879l-.306-.225-3.707-2.715M379.159 369.977l-.865.978M379.159 369.977l.687-.862M378.189 377.932l-.093 3.436M378.189 377.932l.036-2.457M382.972 360.896l7.628-8.65M382.972 360.896l-7.117 8.543M387.227 378.784l-1.39 1.855M396.61 356.796l-6.01-4.55M396.61 356.796l1.025.772M381.843 346.245 378 343.552M381.843 346.245l-7.292 8.634M381.843 346.245l2.328-2.507M378.294 370.955l-2.807-.342M359.766 370.676l2.987-.035M363.379 360.512l-2.208 3.245-.8 1.781-.472 2.077-.133 3.061M350.133 368.618l2.433-.136 1.276.41 1.342.368.985.635.805.41.59.2.775-.118 1.427.29M419.38 363.423l-.1-.104-2.763-2.893-4.409-4.647-2.416-2.74-1.2-1.205M403.685 346.905l1.599 1.711 3.208 3.218M375.487 370.613l.368-1.174M375.487 370.613l-.148 10.7M375.339 381.312l2.757.056M375.339 381.312l-.267 10.71M375.855 369.44l-2.022-1.49M346.758 336.928l9.262.072h1.739M360.945 345.289l-.912-3.575-.334-3.123-.803-1.04-1.137-.551M372.662 339.71l-3.467-2.683-.29-.219-.17-.542-.228-.338-1.163-.175-1.708.248-2.77.085-1.591.346-3.516.568M367.004 349.63l-6.535 8.145-.204.471 3.114 2.266M378.096 381.368l1.16.273M597.688 348.334l.371-.791-.192-6.521-.862-4.327-1.074-4.765M571.06 329.371l1.322.06 5.48-.517 6.08-1.729 7.536.825 1.98.672 1.534 1.375.939 1.873" clip-path="url(#p966db6f895)" style="fill:none;stroke:#000"/><path d="m618.645 314.154-.195.232-.35.196-.897.214-1.13.089-.973.09-1.208.07-2.805.072-2.884.124-.525-.088-.507-.144-.546-.124-.428-.054-.526-.053-.37.053-.35.178-.39.197-.253.32-.234.375-.37.517-.39.642-.429.678-.37.66-.37.66-.506.873-.293.535-.428.695-.253.535-.215.517-.35.874-.214.517-.137.481-.136.642-.078.481v.482l-.02.339-.156.463-.175.517-.35.784-.234.464-.312.428-.234.428-.39.535-.233.392-.331.57-.37.589-.215.321-.272.267-.312.143M394.384 305.282l-5.915-11.015-1.44-3.011-.49-1.687M386.016 287.624l.192.809.33 1.136M392.744 288.037l-1.616.437-4.59 1.095" clip-path="url(#p966db6f895)" style="fill:none;stroke:#000"/><path d="m391.786 283.07-.237.838v1.351l-.206.433-.68.703-1.771 1.568-.768.567-1.586 1.039M600.95 388.57l-.21.149-1.211.403-2.082.247-2.04.016M594.091 362.482l-.696 1.494-1.79 1.871-1.277 5.293-1.047 3.611.088 3.318 3.1 7.343.576 1.613.33.731.478.686.75.562.804.381M595.317 389.655l.055-.09.035-.18M267.3 348.69l.35.205 2.794.66 4.335.442M346.758 336.928l-1.868-.015h-.018l-20.497-.158-4.014.489-5.085 1.102-4.549 1.041-2.711.602h-3.18l-6.117 3.395-4.865 1.984-9.441 2.865-3.516 1.102-6.118.662" clip-path="url(#p966db6f895)" style="fill:none;stroke:#000"/><path d="m266.928 384.448 1.13-.784.506-.571.662-.963.819-1.426 1.13-2.46.233-.928.441-2.199.506-1.329.093-.55-.182-.807.252-1.71.1-.904.05-.809-.104-1.045-.415-2.948-.351-4.172.039-1.355.701-1.854.935-.927 1.013-.321 2.143.035 2.299.107.74-.32.35-.357-.311-.713-.818-.928-1.52-1.426-1.753-1.604-.545-.713-.292-.47M149.62 259.231l21.558-12.703M149.62 259.231l12.01 18.22M125.142 189.597l1.042 1.41 1.689 5.863-.497 7.454-2.036 9.41-.1 4.136 2.037 3.682.05 1.636 3.276 5.318 1.49 4.954 7.597 11 9.93 14.771M192.972 292.117l5.856 2.292 4.474 1.345M210.726 259.962l.818 27.744-.199 1.927-1.251 1.431-5.234 3.593-1.558 1.097" clip-path="url(#p966db6f895)" style="fill:none;stroke:#000"/><path d="m232.175 324.854-1.567-2.324-2.264-3.615-7.623-13.623-.84-.994-.304-.46-4.335-2.117-2.29-2.052-2.334-2.093-2.071-.75-5.245-1.072M239.63 326.166l-.225 1.126-.76 1.618-.582 1.086-.615.779M232.175 324.854l1.227 1.82 4.046 4.1" clip-path="url(#p966db6f895)" style="fill:none;stroke:#000"/><path d="m267.3 348.69-16.245-9.345-5.154-2.148-3.294-2.067-.985-.745-4.174-3.61M186.663 288.546l5.585-5.605M161.63 277.45l.603.916 3.724 3.272 8.987 4.5 5.065 1.68 4.806.526.857.094.99.108M191.648 291.599l-.367-.144-4.618-2.909M392.475 350.246l-.524.467-1.351 1.533M400.717 341.57l-2.367 2.67M400.717 341.57l1.38 3.247M400.717 341.57l-1.734-3.937M397.635 357.568l1.795-2.386M403.685 346.905l-.377 1.054M402.096 344.817l.476.776.887 1.07.226.242M392.475 350.246l2.124-1.894M392.475 350.246l6.955 4.936M401.03 353.09l-1.239 1.71-.361.382M394.6 348.352l6.43 4.738M396.463 346.37l-1.354 1.528-.51.454M396.463 346.37l1.887-2.13M396.463 346.37l6.06 4.172M403.308 347.959l-.114.936-.266.848-.406.799M401.03 353.09l.658-1.09.834-1.458M398.35 344.24l4.958 3.719M372.662 339.71l5.337 3.842M372.662 339.71l2.027-2.304M372.662 339.71l-.453.612M377.999 343.552l2.153-2.48M389.253 330.58l-.829.956M380.152 341.072l2.013-2.318M380.152 341.072l4.02 2.666M380.152 341.072l-5.463-3.666M384.171 343.738l2.05-2.209M382.165 338.754l4.055 2.775M382.165 338.754l-5.31-3.756M386.22 341.53l2.194-2.47M294.108 191.632l-1.004.54-3.72 1.19-2.953.918-2.834.812-2.185 1.189-2.067 1.405-4.134 4.433-2.539 2.92-2.599 1.621-1.121-.108-1.595-1.351-2.598-2.541-3.425-3.622-7.559-4.92-10.866-7.082-5.728-3.73M234.74 173.03l.543 2.04.66 4.459 1.238 3.777" clip-path="url(#p966db6f895)" style="fill:none;stroke:#000"/><path d="m169.653 203.16 1.263-.513 1.82-1.34.975-.945.561-.379 1.033-.486.916-.649 1.063-1.081 1.003-.649 1.852-.941 1.536-.838 1.176-.728.411-.195 1.395-1.834.472-1.27.355-1.487.354-1.217.531-.702.798-.595 1.8-.243h1.388l1.595.432 3.455.568 2.627-.054 1.27-.135 2.45-.27 2.48.702 3.84 1.432 3.425 1.028 2.125.08 3.957-.594 4.547-.892 9.744-1.892 1.624-.675 1.299-.974 1.535-1.27.853-1.248M217.447 120.845l6.343-.838M233.392 165.769l-.255-2.334-1.899-5.743-.66-4.231-1.981-10.655-2.64-13.072-2.167-9.727M221.87 166.163l-.158-.665-.738-1.325-.974-.703M221.87 166.163l.315 1.335.384 2.378-.177 1.136-.591.162M221.87 166.163l-1.25.253-1.151.622" clip-path="url(#p966db6f895)" style="fill:none;stroke:#000"/><path d="m233.392 165.769-9.287.323-2.235.071M234.74 173.03l-.943-3.55-.405-3.711M234.74 173.03l-1.364 1.604-.296.378M611.907 370.092l1.807-1.57M604.624 380.036l.557-1.738 1.217-2.513.711-1.24.814-1.154 3.984-3.299M609.086 377.077l.137-.259.166-.365.243-.74.321-.66.38-.499.302-.348.214-.285.438-1.087.176-.375.365-.748.19-.655-.033-.45-.078-.514M603.244 386.03l.095-.173.527-1.63.391-2.24.33-1.835.037-.116" clip-path="url(#p966db6f895)" style="fill:none;stroke:#000"/><path d="m606.272 382.292-.507-.82-.292-.41-.302-.41-.4-.428-.147-.188M600.95 388.57l.506-.358M603.486 392.257l-.37-.588-.38-.535-.448-.632-.38-.446-.322-.41-.263-.348-.175-.294-.198-.434M595.317 389.655l.202.276.438.597.146.188.146.169.185.24.234.322.127.33.204.41M588.45 396.553l.398-.367 1.285-1.409 1.442-1.408 1.12-1.052 1.412-1.426.925-.95.224-.188.06-.098M588.45 396.553l-2.493-2.48-1.285-1.358-1.598-1.575-1.23-1.253-.648-.411-.941-.25-.95-.092-.606-.023-.683.062-.521.163-.56.263-1.2.644-.687.282-2.333.159-1.085.015-.578.001-.448-.214-1.169-1.301-1.041-1.104-1.071-1.092-.463-.249-.95-.197-2.547-.053-1.71.067-1.47-.005-.521.076-.5.589-.205.223-.219.306-.205.4-.18.353-.077.188M578.113 414.014l.183-.49.458-.905.413-.649.401-.637 1.273-2.035.77-1.235.412-.811.591-1 .322-.541.578-1 .81-1.34.681-1.13.566-.929.39-.667.509-.854.56-.9.356-.636.271-.512.206-.427M588.45 396.553l-.423.392-.116.27-.048.1M589.208 399.098l-.015-.21-.052-.229-.14-.243-.207-.223-.273-.264-.428-.357-.23-.256M574.424 420.324l.205-.154.399-.552.694-.894.334-.412.424-.635.373-.458.27-.389.308-.458.206-.483.142-.352.148-.783.133-.595.053-.145" clip-path="url(#p966db6f895)" style="fill:none;stroke:#000"/><path d="m572.199 408.957.368.46.444.473.324.486.355.5.398.527.325.487.177.35.295.473.326.663.265.216.354.23.517.202.295.068.458-.014.546-.04.467-.024M557.916 427.212l.698-.046 1.085-.14 1.17-.17.967-.404 1.323-.465 1.034-.373.696-.357.763-.481.636-.43.951-.565 2.275-1.34.849-.46.848-.516.783-.318.528-.177.462-.094.682-.164.334-.13.424-.258" clip-path="url(#p966db6f895)" style="fill:none;stroke:#000"/><path d="m561.233 441.712 2.123-1.989 2.34-2.21.719-.848 2.133-2.61.412-.424.334-.494.385-.517.13-.353v-.4l-.053-.776-.05-.4-.104-.541-.05-.894-.104-.824v-.658l.051-.588.18-.588.437-.682.438-.589.334-.423.488-.588.566-.753.617-.8.77-.87.643-.988.452-.581M557.916 427.212l.057.663M544.444 423.988l.26.068 1.376.338 1.108.236.67.133.706.215.492.153.772.256.37.174.435.144.638.205.65.204.682.236.705.225.47.123.715.142.61.14.78.109.747.108 1.052.03.234-.015M527.589 411.967l.138.1.429.34 1.149.962.896.624.565.374.604.321.662.375.76.499.857.517.448.214.72.285.994.357.935.427.702.34.74.391 1.11.696.721.481.507.392.37.357.273.231.487.571M544.444 423.988l-.178-.047-.468-.374-.428-.482-.643-.749-.312-.481-.37-.464-.39-.57M541.252 421.472l.055-.143.168-.246.18-.262M516.602 379.803l-.605.108-.576.149-.458.094-.679.217-.576.189-.398.121-.546.203-.576.108-.354.23-.119.257.188.368.152.334.162.406.236.378.237.365.265.256.443.311.222.176.295.175.222.217.324.445.355.46.325.5.413.5.295.405.162.351.251.149.458.203.517.27.546.256.502.095.65.365.413.31 1.949.92.693.27.562.23.487.175.457.297.266.338.192.31.207.473.133.5.103.541.103.595.133.364.089.176v.27l.014.176.089.426.135.45.187.481.17.435.067.466.017.387.068.575.085.496.153.652.17.666.102.527.06.46.073.5.148.647.133.703.044.446.015.568-.089 1.337-.014.622-.015.432.026.306.067.41.078.623.078.513.034.726-.011.492-.011.717v.675l.06.423.332.624.448.66.154.113" clip-path="url(#p966db6f895)" style="fill:none;stroke:#000"/><path d="m527.087 412.431.246-.235.256-.23M538.329 426.671l2.33-2.014.25-.182.746-.163.355.02 1.724.686.482-.536.134-.215.094-.28M553.635 466.261l-.016-.172-.067-.349-.045-.41-.022-.388.09-.45.112-.41.111-.307.336-.328.492-.307.733-.466M561.233 441.712l-.113.105-1.347 1.214-1.209 1.065-1.655 1.352-1.142.921-.626.45-.627.615-.604.696-.358.512-.18.553-.066.88.067.656.134.532.202.573.268.533.313.532.448.615.447.594.403.41.291.388.448.471.515.41.537.532.425.39.47.43.514.573.18.327-.068.471-.067.492-.201.614-.247.45-.224.328-.2.389-.314.307-.358.328-.47.328-.918.614-.542.312M556.193 462.853l-.292-.02-.268-.02-.274-.139M558.855 466.632l-.38.43-.336.369-.48.226-.407.03-.882.187-.746-.062-.746-.372-.678-.249-.536-.632-.029-.298" clip-path="url(#p966db6f895)" style="fill:none;stroke:#000"/><path d="m554.15 466.242-.185.036-.175.008-.155-.025M560.12 440.804l.374.357.288.217.45.334M616.026 309.806l.023.267.223.491.291.369.313.41.38.573.336.369.493.594.23.473.252.374.078.428" clip-path="url(#p966db6f895)" style="fill:none;stroke:#000"/><path d="m637.27 300.215-.176.339-.448.41-.468.303-.74.303-.701.303-.74.179-.818.25-1.033.267-.604.214-.526.267-.292.268-.838.552-.526.232-.428.392-.312.5-.117.445.02.375-.215.66-.214.516-.214.482-.234.41-.41.553-.798 1.73-.156.552-.273.606-.214.5-.157.227-.272.232-.448.178-.546.036-.487-.036-.623.018h-.428l-.76.285-.74.232-.487.214-.43.124-.33.179-.331.196-.351.143-.35.196-.41.107M609.537 293.073l-2.17 1.556-1.433 1.045-.313.226-.269.245-.112.205v.205l.202.368.09.328.156.492.201.614.38.614.247.492.134.308.56.921.514.86.492 1.025.605 1.085.402.799.246.45.515.86.313.553.314.554.268.389.18.287.268.225.335.204.538.103.47.123.424-.02.761.122.448.226.313.204.604.451.515.348.291.266" clip-path="url(#p966db6f895)" style="fill:none;stroke:#000"/><path d="m621.978 306.16-.179.349-.47.184-.649.02-.537.103-.649.41-.246.307-.358.39-.268.265-.56.205-.402.348-.538.205-.581.369-.38.225-.135.266M635.666 294.657l.107.332.305.993.238.87.068.9.262.894.428.678.176.535.02.356M631.466 285.488l.475.28.576.776.407.528.305.466.238.496.203.652.204.621.305.714.237.714.306.9.339 1.397.44 1.118.165.507" clip-path="url(#p966db6f895)" style="fill:none;stroke:#000"/><path d="m636.69 293.716-.408.34-.373.373-.243.228M616.684 272.05l.35.138.404.164.738.102.605.185.693.143 1.052.512.582.39.537.409.403.43.156.348.036.342.17.59.407.559.271.403.373.528.61.528.713.496.678.466.645.124.712.031.509-.124.509-.093h.474l.238.186.509.341.576.497.61.684.51.589.135.373-.101.745-.102.466v.869l-.068.683.237.62.305.404.306.31M630.278 285.799l.543-.124.34-.187h.305M608.756 236.793l-1.074.287-1.5.287-1.253.348-.985.103-1.14.02-1.007.082-1.813.225-1.23.267-1.231.246-1.209.286-.872.225-.94.267-.671.225-.538.164-.201.246-.224 1.085.067.615.269.697.224.634.156.984.067.532v.492l-.067.389.18.41.2.512.381 1.147.313 1.024.09.942.09.43.044.574-.112.491-.269.185-.402.184-.47.266-.291.553-.156.676-.068.82v.635l.112.798.09.656-.067.614.29.349.538.47.246.185.581.369.605.327.559.246.783.308.895.45.627.41.694.45 1.23.922.694.553 1.007.594.537.307.627.41.514.266.38.062 1.007.389 3.939 1.761 1.387.594.739.328.828.492.425.47.827.41.963.349.649.307.268.307.112.348v.472M616.684 272.05l-.432-.17-.425-.265-.336-.41-.112-.348-.134-.43-.09-.615.045-.491" clip-path="url(#p966db6f895)" style="fill:none;stroke:#000"/><path d="m616.684 272.05-.074-.538-.067-.512-.09-.656-.447-.573-.806-.45M610.188 236.035l-.56.185-.492.287-.38.286M609.315 237.551l-.157-.225-.09-.307-.312-.226M420.184 340.31l-4.966 1.282-8.084 1.865-5.038 1.36M445.183 390.291l-.071.031-.17.264-.304.464-.412.482-.5.494-.335.518-.257.318-.167.493-.437.483-.296.47-.283.436-.603.528-.836.953M489.045 413.656l-1.107 1.31-.945.595-1.55 1.094-3.617 1.81-1.536.433-1.254.594-1.565.298-1.048-.298-.517-.445-.044-.825.147-.919.133-1.337-.384-1.121-.694-.662-.856-.46-.738-.013-1.934-.798-1.255-.54-1.196-.608-.442-.662-.251-.851.059-.932.014-.676-.413-.878-.37-.527-.752-.635-.546-.324.015.31.176.757-.103.621-.088 1.23-.31.148-1.122.095-.709.095-.68.04-1.431-.027-1.506.027-.295-.094-.104-.635-.044-1.027-.088-.662-.202-.917-.186-.988-3.396-3.23-1.974-2.192-1.805-1.753-3.78-3.972-1.84-1.839-1.632-1.882-.097-.093M438.368 383.14l3.995 4.245 2.004 2.118.816.788M434.266 388.6l-.637.906-.882 1.21-1.713 2.546-.695.869-.458.636-.118.528-.17.512.102 1.024-.475.652M431.625 376.098l4.247 4.335 2.352 2.553.144.153M434.266 388.6l.279-.398.73-.978.644-.729.797-1.04.695-1.07.594-.73.363-.516M431.05 387.976l3.216.623M428.526 372.916l1.87 1.922M419.38 363.423l6.801 7.083 2.345 2.41M420.65 383.085l.273-.492.76-.82.292-.678.857-.945 1.208-1.657 1.773-2.247.545-.856 2.168-2.474M420.206 384.145l-.151.612-.067.747.393.79M420.206 384.145l-.436.69-.514.788-.437.6-.412.47M420.65 383.085l-.327.586-.117.474M422.649 384.423l-.103-.294-1.896-1.044M430.396 374.838l.798.82.431.44" clip-path="url(#p966db6f895)" style="fill:none;stroke:#000"/><path d="m428.441 381.013.543-.714.424-.916.254-.341.61-.559.51-.667.543-.978.3-.74M394.384 305.282l.87 1.621 5.787 10.809.94 2.339.323 1.908v1.668l-.293 1.882-.588 2.097-1.88 5.726-.755 1.464-.243.472-.627.742" clip-path="url(#p966db6f895)" style="fill:none;stroke:#000"/><path d="m398.983 337.633-.415-.944-.65-.68" clip-path="url(#p966db6f895)" style="fill:none;stroke:#000"/><path d="m390.626 344.231.882.162.641-.19.415-.553 4.406-4.777.739-1.524.21-1.34M408.472 377.926l1.743-2.32 3.233-4.269 2.111-2.973 2.584-3.188 1.237-1.753M408.472 377.926l-1.121 1.49-1.343 1.757-.281.69.192 1.148M434.195 337.188l5.631-1.343 2.017-.47.898.005.804.389.83.62.705.478 1.062.56 1.321.616 2.281.392 1.868.041.458.187 2.697.652 1.56.248 2.205.59 1.254.496 1.102.947 1.222.683.882.14 1.746.186 1.492.605 1.187.746.204.527.22 1.273-.203 1.599.22.946.238.854.526 1.04 1.186.885 1.307.683.966.76 1.323 1.63 1.187 1.443.865 1.227.627 2.172.187 1.304.084 1.692.475 1.18.594 1.102 1.832 3.554 1.695 2.095 1.933 1.77 1.595 1.008 1.933.87 1.679.294 1.984-.233 1.865-.403 1.578-.434 1.984-.295.916-.342.932-.481.933-.342 1.238-.17 1.645-.093 1.255-.295 2.001-.714 1.933-.636.577.061.797.42 1.187.93 1.153 1.025 1.204.667 1.425.513.407.419.73.574.78.109 1.695.217 1.475-.186 1.153-.373 1.137-.698 2.154-.59.966-.124h2.442l1.9.14 1.017-.078.848.497 1.374 1.49 1.153 1.257.678 1.242M420.184 340.31l1.611-.311 5.766-1.35 6.634-1.46M445.093 366.425l-.488-1.121-.516-.811-.827-1.27-.532-.878-.694-.65-.989-.82-.739-.543-.67-.471-.661-.563-.414-.43-.56-.748-.57-.46-.929-.574-.906-.605-.839-.972-.1-.737.279-.553-.067-.717-.302-1.782-.101-1.3-.022-1.076-.012-.757.08-.84.189-.942.269-1.464.537-1.455 1.152-.83.649-.501.213-.328.004-.664-.364-.417-.814-1.366-1.458-1.91-.696-.682M409.567 337.953l5.225 1.316 4.087.978 1.305.062M435.85 333.455l-1.033-1.622-.77.196-1.996.5-1.705.347-2.834.696-1.198.374-3.692.758-.886.223-1.364.294-1.617.374-1.548.392-1.227.304-1.452.303-2.598.856-2.363.503M398.983 337.633l.927-.323.894-1.34.453-.243 2.037.593 5.46 1.428.813.205M415.876 455.72l-3.11-1.71-2.764-1.567-2.786-1.505-3.592-2.15-2.103-1.024-2.226-1.331-2.976-1.874-2.127-1.187-2.226-1.219-1.51-.88-2.932-1.751-3.256-2.058-2.26-1.239-2.282-1.26-2.372-1.32-1.723-.983-3.238-1.858-3.117-1.854-1.75-.942M343.65 442.627l3.02-1.01 2.761-1.452 17.184-11.452.91-.705M374.345 422.512l-1.973 1.74-4.847 3.756M449.823 449.55l-1.446 1.472-.857.919-1.874 1.702-.872.838-1.004.959-1.092.973-1.152.932-1.448 1.26-.995 1.044-.582.921-.727.666-.907-.04-1.555-.288-1.175-.245-.962.112-.615.614-.929.707-1.432 1.546-.394.258-1.733-.922-1.388-.788-2.104-1.228-1.208-.788-1.723-.984-2.238-1.3-1.935-1.126-1.6-1.044M444.825 501.141l.56-.143.2-.348.09-.574-.604-.757-.805-.45-.694-.164-1.23-.062-1.142.102-1.365.328-1.03.226-1.655.695-1.656.676-.29.307-.247.881-1.074 2.928-1.12 3.952-.491.532-.627.184h-.895l-.694-.368-.738-.717-.18-1.044.068-1.147.067-1.392-.022-.491.246-.471-.112-1.393-.156-.84-.202-1.085.313-1.515-.067-.88-.358-.574-.85-.348-.873-.716-1.32-2.212-.313-.819-.694-1.044-.492-1.249-.962-.942-.762-1.004-.402-.777-1.544-3.01-1.119-2.601-1.03-2.334-1.297-2.294-1.522-2.211-1.365-1.76-2.237-3.318-1.142-2.314-1.096-2.642-.627-1.065-.738-1.228.157-.737.268-.758 3.625-3.399 3.296-3.035M355.23 461.333l-.685-.864-1.298-2.211-.828-1.066-1.186-1.453-.604-1.168-1.007-1.29-.761-.532-1.23-.573-1.567-.86-1.7-.901-1.791-.84-1.32-1.044-.895-.963-1.052-1.249-.604-1.085-.695-.906M321.154 453.71l.666-1.18 2.202-2.393 2.497-1.8 3.672-1.667 7.816-2.342M343.65 442.627l-.27.091-5.373 1.61M382.572 496.825l-.473-.297-.502.108-.664-.919-.783-1.04-2.11-2.297-.975-1.134-.99-1.068-1.195-1.216-1.092-1.296-1.004-1.27-.739-.757M355.23 461.333l.5.631 1.142 1.638 1.611 2.437 1.634 2.436 1.816 2.56 1.594 2.473.841 1.121.517.608.798 1.243 1.49 2.216.768 1.04.945 1.391.738 1.148 1.063 1.392.798 1.432.56.54" clip-path="url(#p966db6f895)" style="fill:none;stroke:#000"/><path d="m362.793 492.356.78.465.882-.403 1.086-1.087 1.83-1.769 1.663-1.644 1.764-1.428 1.247-.851M374.345 422.512l.194-.422.732-.67.335-.364.372-.412.411-.518.437-.623.437-.765.283-.576-.038-.353-.322-.964-.706-1.27-.566-1.247-.476-.777-.385-.412-.514-.458-1.53-.847-1.17-.706-1.631-1.023-1.903-1.164-1.105-.683-2.044-1.176-1.374-.564-1.44-1.035-2.34-1.494-1.824-1.176-.99-.506-.565.141-1.825.67-2.082.8-1.542.506-1.067.082-1.285.024-1.183.047-.951.176-.72.424-.63.765-.732.881-.27.741M375.062 394.132l.01-2.11M510.76 439.145l-2.572.774-5.299.499-5.338-1.07-1.636-.605h-1.948l-2.727-.036-3.74.499-2.844.214-1.325-.071-2.377.641-1.87.963-1.83.535-1.832.285-1.831.107-1.052-.071-1.442-.678-2.649-1.497-2.844-.82-2.376-.713-2.883-.999-4.092-1.176-4.714-1.57-3-1.104-2.766-.642-2.571-.784-2.766-.286-1.754-.142-2.933.301-.925-.635-.822-.506-1.234-.458-1.311-.26-1.581-.117-1.182-.141-1.17-.353-.784-.317-.771-.718-.694-.54-1.195-.73-1.067-.53-1.902-1.222-1.915-1.035-1.003-.67-.745-.471-1.311-1-.81-.647-.604-.658-.54-1.082-.822-1.059-1.092-.835-1.196-.87-1.272-.553-1.645-.894-1.22-.647-.54-.247-.682-.377-.63-.459-.591-.493-.527-.624-.36-.894-.283-.894-.128-.552-.398-.87-.527-1.095-1.414-1.705-1.144-1.07-1.607-1.506-1.298-1.282-.655-.729-1.722-1.835-1.106-1.247-.99-1.047-1.181-1.376-.875-1.011-.462-.353-.617-.094-1.53-.106-2.377-.094-2.558-.047-2.943-.13-1.979-.07-2.056-.259-.694-.153M328.917 430.955l.54 1.2.925 1.27 1.26.588 1.388.611 1.85.894 1.697.73 2.03 1.6 1.877 1.834 2.082 1.764 1.085 1.181M321.154 453.71l-.633 1.123M153.253 426.963l1.821 1.202 6.683 4.128 2.481.977 1.478.576.771.318 8.521 1.422 4.524.506.99-.059 2.082-.529 2.082-.74.784-.33 3.923-.803.537-.389 1.544-1.638.47-.225.806-.184 1.23-.123 1.074.102 2.305.369.895.164.873-.267 1.276-2.109.223-.778.672-.88.648-.615 2.126-1.31.582-.39 1.902-.921 1.24-.49 1.103-.543.373-.574 1.34-3.476.458-.699.27-.947.595-1.287.61-.45.848-.234 4.986-.869 2.086-.372 1.628-.497.729-.59.61-.682 1.442-.59 1.051-.295 2.883-.046 2.307.124 1.475.17 1.034-.03 1.035.17 1.34-.047.576.156.78.42 3.41.65 5.596-.092 1.848-.28 1.018-.326.61-.512.865-.9.356-.854.967-3.026 1.95-2.67 1.153-1.505.899-.977 1.17-.683.576.372.594.605.475.9.712 1.056 1.221 1.443 1.747 1.645 1.662 1.32.899.993.932.714 2.425 1.148 3.68 1.195 1.29.202 1.17-.062 11.82.233.83.372.95.885 2.51 3.305.9 1.413 1.135 1.288 1.866 1.242 2.831 1.024.713.155 2.696.993.831.636 1.035.497 1.068 1.21.17.76-.255 1.165-.17 4.05.849 1.956.508.497.696.977 3.816 4.33.61.838 3.188 3.725 2.392 2.949.966 1.148 1.747 2.25 1.747 1.878 1.125.819M159.74 401.832l.11.08.163.278.34.648.886 1.358.693.973.495.662.369.412.716.858.62.547 1.004.871 1.189 1.02.93.777 1.173.966.827.683M153.253 426.963l1.252-2.58M150.62 409.512l-.264.364-1.245 3.423-.295.729-.219.6-.219 1.21.052.448-.141.459.038.588-.077.6-.013.27-.09.67.026.659-.077.93.051 1.116.18.6.296.6.347.506.488.506 1.067.882.655.53.99.846.463.47.62.445M159.74 401.832l-.11.067-.266.264-.384.452-.576.649-.553.459-.724.345-1.139.563-.396.2-.628.182-1.092.352-.79.23-.524.439-.392.594-.376.756-.657 1.42-.514.708M145.225 403.812l.269.225.649.594.917.47.627.226.671.512.828 1.393.739 1.413.694.867" clip-path="url(#p966db6f895)" style="fill:none;stroke:#000"/><path d="m140.705 413.232 1.275-2.621.963-2.273 1.723-3.502.56-1.024M141.264 396.972l1.075.696 1.342.983 1.141 1.045.739.983.179.573.045.758-.56.819v.983M192.972 292.117l-1.324-.518M191.903 331.672l-.384-.863-.63-1.059-.103-1.14.45-.895.257-.706.064-1.776.039-.564.129-.542-.193-.33-.052-.682-.026-.423.18-1.364.014-.012.166-.577.064-.593.123-.47.09-.553-.034-.727.078-.676-.01-1.137.088-.922.013-1.18-.066-.648.03-1.04-.067-1.54.016-.548v-1.659l-.068-1.352.068-1.781.089-1.783.09-2.477-.045-2.192-.067-1.004-.247-1.556-.179-.943.269-1.536.403-1.372.52-.933M247.132 306.957l.246.758.38.655.292 1.168.67 1.044.47.86.292 1.516.313.901.604 1.332.447.987.428 1.378.236 1.067-.065 1.378-.716 1.27-.806.819-1.343 1.27-1.052.778-1.006.656-1.142.286-1.275.164-1.924.184-1.164.307-1.388.43M232.175 324.854l.92-.06 1.03.184 1.298.061 1.052.43 1.297.574 1.052.205.805-.082M192.248 282.94l.039-.552-.157-1.331-.067-1.168-.067-1.25-.761-1.064-.65-.86-.491-.636-.224-.634.537-.554.873-.696.805-1.065-.111-1.209.022-1.126.335-1.25.269-1.392-.202-2.028.023-2.826-.023-1.537-.067-1.823-.067-1.987M192.248 282.94l-.051.718.09 1.331v2.15l-.09 1.496-.55 2.964M169.653 203.16l-1.472-11.128M210.656 257.607l-.022-.753-.74-2.5-1.848-2.134-23.295-22.261-7.168-7.785-6.514-11.561-.768-2.552-.648-4.9M215.95 259.745l.05.403.17.559-.187.574-.322.497-.152.543-.052.698.052.823.424.776.542.59.73.621.593.358.865.093M276.813 266.792l-1.322.559-1.018.155-2.035-.699-.848-.14-.746.171-1.543.218-1.357.419-1.695.062-2.595.047-1.102-.094-.476-.372-.186-1.226-1.102-.637-4.053.031-.679.186-1.475.388-.797.342-1 .403-1.798-.077-2.714-.062-1.814-.047-1.764-.605-1.187-.45-1.187-.683-1.018-.45-.864.232-1.069.45-2.086-.062-1.645-.077-1.255-.186-1.594-.544-1.289-.574-1.05-.559-1.086-.543-.831-.295-1.323-.373-2.34-.636-1.713-.621-1.815-.745-.695-.45-.712-.357-.594-.032-.509.31-1.051.637-.797-.03-1.034-.031M210.726 259.962l.916-.11 1.967-.077 2.34-.03M210.726 259.962l-.07-2.355M367.004 349.63l-2.69-1.12-3.344-3.122-.025-.1M343.336 350.48l1.445-.42 2.876-.946 2.697-.702 7.145-2.168 3.446-.955M343.336 350.48l-.956.278-.964.317-2.03.718-8.274 2.36-4.613 1.284-2.323.645-15.34 4.516-5.053 1.645M343.336 350.48l.634-1.041-.04-1.248-.35-1.177-.35-1.64-.199-3.047-.033-1.393.324-.716 1.51-1.321 1.5-1.332.426-.637" clip-path="url(#p966db6f895)" style="fill:none;stroke:#000"/><path d="m349.993 361.703-5.192-8.254-1.03-1.863-.245-.553-.19-.553M267.3 348.69l.355-.613 1.657-2.724 1.052-1.27 1.476-1.351 1.052-.84 1.79-1.455 3.871-2.969 1.5-1.167 1.499-1.148.985-.983.894-.655.918-.88.56-.369 1.207-.717.985-.717M260.875 370.503l-.402-.615-1.007-1.147-.403-.532-.045-.717.403-.532.671-.103.783-.655.672-.717-.47-.389-1.253-.696-.895-1.147-.985-1.352-.626-1.618.134-.86 1.521-1.024 2.305-1.167 1.701-.533 1.992-.39 1.834-.122 1.59.102 1.185.082 1.074-.368.694-.717v-.717l-.537-.922-.828-1.187-1.186-1.31-.828-1.086-.67-1.374M507.21 162.67l-1.343.204-2.238.328-1.925.574-1.656.86-2.864 1.639-1.432 1.475-1.387 1.27-.985 1.23-.671 3.276-.448 3.36.224 4.384v1.72l-.895 1.394-1.7 2.007-1.209 1.516-2.372 3.565-1.432 2.048-.895 2.048.313 2.254v2.0069999999999997l.134.942-.447 1.066-.045 1.31-.447 3.319-.85 2.663-.18.82-.895.86-4.565 1.147-1.298.123-.582-.041-1.119-.738-2.058-1.31-1.343-.738-2.461-.41-3.536-.205h-1.656l-1.342.37-1.209.614-.984 1.393-.224.737-.268.697-1.209.368-1.029.041-.895-.368-1.03-.082-1.88.45-1.476-.122-3.178-.738-3.133-.697-3.535-1.023-2.506-.246-2.507-.738-2.282-.656-6.936 1.722-5.237 1.31-4.968 1.106-5.325 1.352-1.433.328-.895-.286-2.998-1.476-3.133-1.433-1.208-.492-1.253.082-1.432.246-1.9.517M390.499 214.03l5.396-1.657.896-.286.751-.474M340.341 302.074l.282-.223.682-.541.45-.224.526-.235.592-.412.32-.576.194-.73.135-.83-.272-15.193.195-1.283M368.128 281.634l-1.619-.022-5.61.143-7.636-.143-5.26.036-2.415.036-2.143.143" clip-path="url(#p966db6f895)" style="fill:none;stroke:#000"/><path d="m338.237 267.89.214.792.059.973-.738 1.08-1.167 1.338-1.284 2.081-1.21 2-.665.946.103.77.783.73 1.077.514-.25.905-.384.838.341.613 2.952.107 2.455.107 2.922.143M384.566 281.517l1.45 6.107M381.111 264.813l-.044.766.617 3.495 1.938 8.47.944 3.973" clip-path="url(#p966db6f895)" style="fill:none;stroke:#000"/><path d="m368.128 281.634 3.797.05 5.688.035 4.831-.107 2.122-.095M384.449 248.683l-1.913 9.098-1.322 5.27-.103 1.762M354.042 267.276l1.831-1.034 1.091-.677 1.987-.571h1.52l2.454.107 4.91-.142 6.428-.179 3.545-.036 3.303.07M384.449 248.683l.201-.958.668-4.93M385.809 235.471l-.042.477-.264 5.485-.185 1.361" clip-path="url(#p966db6f895)" style="fill:none;stroke:#000"/><path d="m369.769 240.451.989-.24 1.17-.342 1.425-.419 1.204.14.407.45.017.994-.085.978-.017.574.458.512.475.016.95-.093.932.077 1.916.124 1.968-.14 2.425.032 1.315-.32M386.093 233.01l-.12.599-.164 1.862" clip-path="url(#p966db6f895)" style="fill:none;stroke:#000"/><path d="m420.245 236.474-.331-.348-1.003-1.133-.809-.829-1.694-.722-1.442-.597-1.441-.197-1.062-.107-1.305-.749-1.744-1.435-2.22-1.694-3.526-3.602-.439-.446-.311-.098-3.098.098-3.506.232-1.919.17-1.14.311-.934.482-.604.588-1.248 2.06-.993 1.943-.925.892-.926 1.355-.525.865-.439.615-.301.58-.551.763M274.39 551.134l4.123-9.52M273.56 553.033l.115-.246.716-1.653M305.592 562.275l-2.206 1.272-4.273 3.041-3.596 2.359-1.967.186-1.967-.558-7.055-2.545-5.155-1.8-5.562-.869-2.103-.186-.678-.993.203-.807 2.035-5.4.95-2.98.173-1.86M348.93 558.496l2.212 1.203 2.17 1.117 1.018.248M347.011 517.908l.17 1.61.05 1.52.018 1.505-.102 2.25.017 2.126.017 1.133.39 1.303.712 1.149.916.341.627.28.849.403.356.838-.136.636 1.678.614 1.947.225.85.307.135 1.413.358.635-.246.798.313.942 1.343.88 1.253.942 2.461 1.536 1.522.225 1.03.655.648 1.168.269 1.535.156 1.331-.425.942-.246.655-.843.819-.455.307-1.79.737-1.365.758-1.97 1.228-.715 1.413-1.052 1.781-.492 1.638-.381 2.006-.548 2.572M348.93 558.496l-.298-.162-3.392-3.724-2.578-1.738-1.22.31-1.154-.062-8.954 1.18-1.832.434-.61.434-.95 1.304-1.289.93-.95-.868-2.509-1.303-2.578.186-2.985.124-2.645.869-3.731 2.234-3.46 2.359-2.203 1.272M234.685 602.158l-.224.295-.617 1.747-.118 1.72.092 1.273M217.856 587.066l-.975-2.431-.207-1.162-.502-1.567-.708-1.999-1.713-1.296-.797-1.351-.59-1.297-1.654-1.378-1.44-2.21M234.685 602.158l-2.598-2.449-10.334-9.077-3.897-3.566" clip-path="url(#p966db6f895)" style="fill:none;stroke:#000"/><path d="m201.304 580.736 1.447 1.513.974.891 1.772 1 1.978.405 1.713.108 1.919-.027 1.683-.648h1.27l.856.54 2.94 2.548M272.344 574.835l4.298 6.44.675 1.425.206 1.317-.117 1.183-.529 1.102-.822 1.155-1.116.833-16.802 9.245-2.38.887-2.85.35-3.436-.162-8.283-.35-2.292.538-2.026 1.102-1.41 1.236-.775 1.022M273.56 553.033l-5.143 11.042-.47 1.962.147 1.747.646 1.72 1.41 2.043 2.194 3.288M281.264 587.18l-.091-.145-2.961-4.313-5.868-7.887M348.93 558.496l1.202 5.067-.128 2.234-1.003 2.164.026 1.717.154 3.363-.026 2.117-.18 1.905-.797 1.622-1.536 1.638-2.864 1.679M313.46 468.8l-2.509-1.679-3.012-1.877-2.893-1.73-1.388-.986-1.683-1.148-.708-1.73-.783-.972" clip-path="url(#p966db6f895)" style="fill:none;stroke:#000"/><path d="m301.612 480.334 8.634-7.86 2.526-2.66.688-1.014" clip-path="url(#p966db6f895)" style="fill:none;stroke:#000"/><path d="m316.757 462.48-2.399 4.995-.898 1.325M316.757 462.48l-1.103-.18-1.909-1.159-1.948-1.302-2.28-1.337-1.5-.944-2.18-1.337-2.046-1.925-1.286-1.908-1.286-1.943-1.266-1.319-1.52-1.337M320.521 454.833l-.61 1.084-3.154 6.564M320.521 454.833l2.42 2.303.644 1.025 1.204.683M286.742 512.522l2.384-4.997 1.792-4.623 1.32-4.288M300.088 481.72l-.799.727-2.085 2.285-1.292 2.339-.882 2.472-2.792 9.071M282.55 508.585l.122-.686.717-1.433 1.924-2.539 1.61-2.825.27-1.004 1.186-1.617.48-.628.375-.114.376.137.84.333 1.788.405" clip-path="url(#p966db6f895)" style="fill:none;stroke:#000"/><path d="m333.258 506.327-.865.233-.95.155-1.424.016-.916-.109-1.085-.28h-.78l-.475.234-.458 1.706-1.204-.139-.763-.357-1.985-.9-1.73-1.21-4.934-2.514-2.696-1.32-1.255-.62-.628-.077-.577.155-2.035-.171-.373.047-.916.295-.729.682-.35.515-1.577 2.335-.8.107-1.285-.749-2.883-1.3-2.766-1.694-1.91-.696-1.909-1.48-.762-.577M278.513 541.613l.597-1.378.822-2.284.47-1.801.115-1.383M283.266 519.807l-.308.647-1.41 5.026-.647 4.677-.384 4.61" clip-path="url(#p966db6f895)" style="fill:none;stroke:#000"/><path d="m282.55 508.585-.258 1.464-2.26 4.362-2.708 3.521-1.03 3.46.605 3.052 1.5 4.832 2.118 5.491" clip-path="url(#p966db6f895)" style="fill:none;stroke:#000"/><path d="m250.321 509.48 3.558-.374 1.034.005 2.777.686 1.071.447 2.115.742 1.573.196 1.213-.256 7.584-3.307 3.363-1.487.83-.189 1.252.064.94.335.584.358 2.785 1.393 1.55.492M211.36 507.873l-1.164.401-1.037.607-.36 1.764.103 2.635.257 6.326.077 1.8 1.542.682 1.35.235.732 1 .094.451M273.56 553.033l-.801.958-.761 1.638-.761 1.064-.828 1.577-1.052 1.597-1.253 1.208-2.126 1.126-.716-.348-1.298-.041-1.812-.266-1.633-.369-1.902-1.72-2.619-2.416-4.14-3.808-2.438-3.276-1.052-1.699.268-2.396-.984-3.501-1.074-3.297-.493-1.924-.67-1.106-2.328-2.252-2.059-1.597-1.902-1.863-1.544-1.68-1.297-2.067-1.008-1.351-.984-1.044-1.03-.881-.676-.33-3-1.275-1.387-.906-1.447-.837-1.757-.797-.91.136-4.016 1.189-2.775 1.026-3.042 1.513-1.299.756" clip-path="url(#p966db6f895)" style="fill:none;stroke:#000"/><path d="m176.433 529.011 2.545-.482 2.287-.083 2.776-.352 1.569.646 1.066.2 1.298-.282.964.165 1.182.059 1.723-.541 1.04-.953 1.157-.729 1.543-.106 2.288-.058 1.632.235 1.079.67.797.93.553.622 3.113-.065 2.417.372 1.329.378.856-.432.797-.73 1.182-2.54 1.062-1.863.266-.298M244.678 507.37l-.282.652-.763.9-1.442.73-1.984 1.101-.61.791-.577.839.22.93M237.425 502.002l.115.211 1.318 1.76.584.626.743.622 1.875.995 2.618 1.154M250.321 509.48l-.394.04-.634-.104-1.293-.405-3.322-1.641M217.984 505.43l-1.468.469-.973.39-.636.48-.995.634-.861.26-.987.151-.705.059M190.015 506.21l2.918.279.92-.172 1.135-.66 1.022-.784 1.139-.493 1.074-.17 3.114.942 1.684.845 2.102.57 1.021.205 2.65.811 2.565.29M186.317 504.95l1.64.565 2.058.694M202.148 492.108l-.253.357-.935.498-1.13.143-1.325.303-.584.41-.117.428.292.784v.678l-.195.909-.175.552-.662.428-.916.036-1.597-.178-1.559.285-1.325.285-1.012.392-.429.784.253.82.877.999.545 1.265-.39.731-.623 1.016-.565.82.098.66-.406.696M158.495 509.563l1.075-1.037 2.35-2.6 2.372-1.946 1.947-1.7 1.79-1.125 1.97-.492 1.565.062 3.312 1.658 2.596.43 2.73.737.511.1M186.317 504.95l-1.36-.47-4.244-.83M170.288 518.863l.206-2.188-.13-.846.746-.636 1.748-.235 1.902-.823 1.954-.964 1.825-1.717.9-1.012-1.337-1.552.925-1.34.745-1.176.103-1.412.838-1.312M416.458 281.696l-11.444 3.048M430.65 278.46l-5.752 1.505-4.793.76-3.647.971M416.278 274.833l.126 1.464.01 2.013.044 3.386M418.335 271.186l-.295.247-.309.224-.385.47-.356.502-.712 2.204M405.014 284.744l.716-1.25 1.288-1.272 2.985-1.645 2.137-1.274.746-1.459 3.392-3.011M405.014 284.744l-4.381 1.167M172.282 189.407l-.668.706-1.362.847-2.07 1.072M139.526 127.358l.142.138 17.976 16.745 1.451 2.37 4.039 14.217 2.873 11.353 1.194 7.577.91 11.743.07.531M119.303 363.674l-3.514-2.567-1.8-.595-2.894-1.189-2.156-.972-1.624-.082-2.008-.324-1.771-.946-1.418-.837-.472-1.244-.473-1.27-.206-2.027-.207-3.566.147-2.73.06-3.891-.06-3.73-.176-4.486.059-4.054.236-1.621.768-1.081 1.77-.973 3.426-.81 4.843-1.73 1.776-.743.312-.488.02-2.306.333-.95 3.346-4.918 4.429-6.648.802-1.245.438-.43.338-.216.516-.167.253-.071.143-.08.303-.182.417-.248.36-.41.918-2.519.767-3.026.886-1.081 2.244-1.46 16.653-9.513 10.334-6 4.21-2.797M283.266 519.807l3.476-7.285M278.513 541.613l1.65.62 2.067.243 2.156.19 1.565.135 1.21-.46-.325-.405.134-.73.236-.864.812-2 .354-1.188.502-2.053.782-2.648.266-.58.517-.284.576-.027.708.324.842.094 1.594 1.486 1.063.878.664.324.59-.202.193-.662-.65-1.54-.738-1.31-.428-1.46.443-1.215.295-.919.255-1.5-1.637.856-2.182-.392-3.39-1.569-3.31-.927-.936-1.212-1.125-2.81M300.088 481.72l1.524-1.386M301.612 480.334l5.437 1.803 1.675.214 4.247.428 1.013.677-1.987 2.567-.974 2.032h-.935l-10-6.334M240.834 247.066l-1.979.871-5.115 2.047-1.542.423-1.877-.188-1.388-.07-.95.164-1.157.447-1.003.094-1.131-.305-.823-.048-.642.306-1.568 1.647-1.876 1.953-1.466 1.647-1.477 1.13-2.147.47-4.037-.047M378.718 312.67l.44-.188 4.206-1.8 2.171-.993 1.119-.621.61-.031.577-.218 1.12-.651 2.272-1.118 3.151-1.768M486.518 264.118l-1.078.318-5.12 1.09M442.159 275.451l3.599-.941 3.521-1.325 2.871-.912 2.492.117 3.003.848 3.93-.146 2.587-.906.963-.798.83-.92 1.658-1.616 8.083-2.34 4.625-.985M481.412 271.24l-.157-.184-.157-.573-.268-.84-.134-.799-.068-.942-.067-1.045-.24-1.33M447.264 371.733l-.701.286-2.221.285-3.545.963-4.13.748-2.689.606-3.582.217M551.596 328.346l-3.057-1.36-2.141-.263-5.048.263-3.674.731-2.843.118-2.844-.293-10.064-1.111-11.66-1.638-3.93-1.228-3.227-2.193-2.716-2.837-4.664-7.31-.827-2.728M502.717 294.744l-1.427 1.816-5.275 5.278-1.501 2.427v2.954l.387 1.278" clip-path="url(#p966db6f895)" style="fill:none;stroke:#000"/><path d="m500.72 302.986-1.298.778-1.029.573-.985.512-.693.307-.716.246-.716.655-.246 1.004-.136 1.436M571.06 329.371l-4.886-.22-6.804-.85-5.911.79-1.863-.745" clip-path="url(#p966db6f895)" style="fill:none;stroke:#000"/><path d="m572.1 317.175-.904.282-1.86.405-1.181.189-1.048.203-1.757.446-2.126.608-1.171.365-.819.428-1.168.32-1.383.66-.838.214-1.539.321-.545.303-.254.321-.467.374-.682.304-.72.517-.546.428-.429.623-.37.482-.214.642-.137.517.06.856-.02.713-.059.517-.327.133M572.1 317.175l.573-.178 1.402-.392 1.639-.567.9-.217.857-.148.62-.135" clip-path="url(#p966db6f895)" style="fill:none;stroke:#000"/><path d="m570.54 302.008-.133 2.202.09 1.07.54 4.188.064 1.212.257 2.423.463 2.635.28 1.437M597.688 348.334l-6.58-.112M594.091 362.482l.614-1.313 1.054-8.714 1.93-4.12M374.156 337.08l.533.326M143.496 125.602l-.547.095-1.565.58-1.048.69-.81.391M374.544 248.393l.994.214 2.883.09 2.825-.09 3.203.076M377.836 235.412l.137-.285v-.429l.253-.142.526.071.74.179.507-.054.72-.214.663-.196.39-.268.76-.481 1.168-.535.857-.054 1.536.006M400.421 192.063l.062 4.143-.088 3.495-.336 2.48M365.227 197.177l-.54 3.389.026 1.011.36.518.334.141 34.652-.055M400.305 184.153l.002.355.114 7.555M393.206 190.374l.615.655.537.307 1.052.093h1.991l1.153.04.929.246.938.348M400.305 184.153l-.072-10.688M348.201 179.976l.543-.434.458-.311.254-.543v-.512l-.034-.575-.237-.497.204-.279.559-.047h.933l1.136-.108.51-.062.558-.078.849-.373.373-.28.372-.17.73-.264 1-.326 1.357-.528.628-.295 1.187-.062 1.136.125 1 .31 1.12.559.661.512 1.425.9.983.544 1.56.776 1.34.404.272.357.05.528-.067.62-.458 2.935.033.373.17.295.441.124 7.902.046 3.443-.046 3.104.155 13.058.047 2 .062 1.035.093.516.202M400.233 173.465l-.01-1.536M411.559 174.428l-9-.75-2.326-.213M400.223 171.93l-8.818.715M400.054 163.737l.165 7.568.004.624M400.054 163.737h-4.733" clip-path="url(#p966db6f895)" style="fill:none;stroke:#000"/><path d="m347.882 176.48-1.477-4.671-.536-2.294v-1.353l13.56.164 9.98-.04 23.406.45.538-1.065.581-1.352 1.03-1.803.357-.779" clip-path="url(#p966db6f895)" style="fill:none;stroke:#000"/><path d="m346.36 138.867 1.075 1.189 1.029.697 3.312.983 2.685.86 2.462 1.311 1.745 1.352 2.596 1.844 3.133 1.926 3.177 2.048 5.147 3.893 1.253.614 1.656.574 3.177 1.393 1.835 1.106 2.417 2.213 2.417 2.171 1.074.574 4.028.04 4.743.082M397.47 129.157l-4.475.366M367.082 121.25h2.103l1.567-.083 1.03-.123 1.52.041 1.791-.164 4.565-.04 3.273-.297M510.76 439.145l.389-.117 4.52-1.426.973-.179 1.715.072M517.884 443.373l1.12-.59.44-1.025-.034-.962-.78-.62-.712-.56-1.29-.62-1.491-.186-1.391.435-1.289.03-1.697-.13M347.011 517.908l1.357.973 1.645 1.118 1.832.496.864-.202.73-.465 1.017.046 1.018.341 2.475.466 3.51 1.35 1.68.683 1.323.776.983 1.133.441.869.577 1.737.27.9.408 1.955.644 1.692.475 1.831.068 1.055.679.792.932 1.179 1.9 2.141 1.085 1.412 1.577 1.754 1.289 1.179 1.407 1.195 1.425.946.983.823 3.02 1.877M337.383 505.125l-.106.426-.661.962-1 .404-1.697-.093-.661-.497" clip-path="url(#p966db6f895)" style="fill:none;stroke:#000"/><path d="m337.383 505.125-.513-.194-1.424-.202-.933-.046-.95.465-.661.264.356.915M339.408 510.063l.057-.4-.034-1.163.136-.87-.56-1.365-1.153-.962-.471-.178M339.408 510.063l-1.164.299-1.408.217-.543.388-1.186.56-1.103.418-.966.419-1.9.372-1.17.435-1.17.465-.373 1.18" clip-path="url(#p966db6f895)" style="fill:none;stroke:#000"/><path d="m347.011 517.908-3.12-2.239-2.307-1.552-1.237-.915-.865-1.133-.153-1.459.079-.547M296.83 524.092l-.033-1.008-.713-.187-2.12-1.117-1.135-.652.237-.838 1-1.567.73-1.241 2.12-2.374-1.985-1.288-1.289-.683-3.205-1.537-.882-.636-.644.078-.899.884-1.27.596M158.495 509.563l-.58.56-3.066 1.126-2.372 1.044-1.857 1.126-1.075 1.065-1.745.39-1.768.245-1.656-.143-1.946-1.188-1.679-.02-2.416.737-2.574 1.925-1.269.953M152.571 530.04l-.858 1.586-.74.945-1.013-.446-1.422-1.158-1.422-1.569-2.026-2.46-1.714-1.871-1.773-1.8-3.72-2.817-2.767-2.477-.624-.59" clip-path="url(#p966db6f895)" style="fill:none;stroke:#000"/><path d="m115.188 456.189-.33.32-.469.357.702.82 1.246 1.676.682 1.087.234.838-.117.767-.428.713.116 1.319-.35 1.675-.293 1.818-1.129 1.124-.487.695-.76 1.07-.876.837-.37.874.253.463.662.357.662 1.033.896 1.391.877 1.087 1.227.393 1.734.642 1.15.677 1.908 1.444.896 1.14.488 1.07.058 1.568-.137.767.312.535.955 1.105 1.286.66.642.766 2.007 1.337 1.11 1.498.663 1.247.7 2.14.721 1.283.721 1.176.604 1.034.059 1.14.136 1.552.506.838-.058 1.158-.117 1.943-.175 1.195.682.748 1.558.357 2.143.784 2.298.356 5.63 1.195 1.461.588 2.533.784 3.058.357 3.195.16 2.632-.584M183.603 496.903l-.448-.392-1.11-.321-.488.446 1.422 2.976.994 1.551 1.266 1.159 1.013 1.087.526.589-.195.249-.266.703M237.425 502.002l-2.48-2.45-2.955-2.908-.958-.581-1.324-.36-2.193-.288-2.864.041-2.148.492-.873.624-.604.727-.469.721-.426 1.081-.493 2.212-.615 2.907-.48.625-.56.585M237.425 502.002l-.13.133-1.389.952-2.878 2.258-1.542.67-.566.8-.103 1.635-2.416.07-.758.118-1.234-.388-1.722-.859-1.504-.447-1.26.013-1.362.164-1.825-1.023-.752-.668M241.24 498.807l-1.144 1.034-.925 1.164-1.015.73-.73.267M251.56 502.394l1.196 1.681.566 1.223-.528.73-.77 1.258-1.363 1.41-.34.784M287.624 583.088l-.463.564-1.902 1.341-2.622 1.529-1.373.658M383.964 446.342l-.232.212-.822.705-1.774 1.67-5.526 4.822-4.781 3.293-1.311.659-1.44.494-.616.611-1.62 1.318-1.31.517-2.031.565-1.286.353-1.285.729-1.054-.024-.77-.212-.464.165-.514.212-.976-.33-.463-.682-.459-.086M575.78 366.332l-.231-.148-.838-.553-.799-.374-.993-.481-.936-.357-.662-.16-.935-.464-.72-.321-.35-.196-1.21-.535-.447-.072-.487.125M575.78 366.332l.548.35 1.071.268.468-.07 1.168-.446 1.052-.446 1.52-.357 1.753-.338.701-.25.858-.107.876.463.799.375 1.149-.214 1.15-.5.857-.588 1.09-.41.8-.427.837-.464.76-.5.854-.189" clip-path="url(#p966db6f895)" style="fill:none;stroke:#000"/><path d="m573.678 369.357.215-.641.37-.464.311-.5.234-.57.565-.481.407-.369M574.146 370.177l-.195-.267-.273-.553" clip-path="url(#p966db6f895)" style="fill:none;stroke:#000"/><path d="m571.087 367.646.527.374.506.392.506.214.663.304.39.427M565.664 330.996l.537-.389.806.04h.671l.582-.081.783-.123.65-.184.67-.205.314-.144.268-.225.115-.314M486.518 264.118l3.683-.87 1.501-.099 5.91 5.966.927 2.106.863 9.68.607 1.55 2.811 2.69.708.718 1.05 1.065 1.15 1.111.525 1.111-.16 1.68-.843 1.079-.896.985-1.637 1.854" clip-path="url(#p966db6f895)" style="fill:none;stroke:#000"/><path d="m520.994 292.912-.633.311-.38.268-.595.223-.564.205-.224.107-.634.152-.555.232-.321.196-.604.285-.331.018-.556.115-.409.027-.38.063-.437.018-.44.035-.466.054-.507.009-.682.017h-.545l-.73-.035-.693-.027-.515.036-.546-.054-.808-.071h-.38l-.439-.107-.545-.01h-1.295l-.77-.017-.38.018h-.39l-.31.018-.293-.045-.341-.008-.351-.063-.228-.138M486.326 266.553l.123-.256.067-.472v-.798l-.011-.41.013-.499M442.159 275.451l-11.509 3.01M439.693 278.383l.443-.675.606-.514.575-.58.517-.5.325-.663M434.836 279.87l.384-.419.93-.108.708-.135.798-.081 1.195-.163.842-.58" clip-path="url(#p966db6f895)" style="fill:none;stroke:#000"/><path d="m441.17 279.721-.237-.04-.457-.122-.414-.081-.103-.297-.074-.257-.192-.54M428.015 280.95l.355-.31.516-.419.783-.46.472-.256.4-.446.11-.599" clip-path="url(#p966db6f895)" style="fill:none;stroke:#000"/><path d="m430.422 283.045.532-.297.176-.23.015-.608.089-.648-.03-.473-.118-.406-.103-.46-.178-.526-.155-.937M392.744 288.037l6.5-1.756 1.389-.37M398.628 280.33l.916-.14.356.497.323.667v.575l.237.854.17 1.412.084 1.009-.081.707M403.885 290.3l-.411.247-.604.083-.617-.083-.502-.07-.578-.094-.617-.177-.912-.176-.682-.2-.565-.141-.566-.094-1.413-.306-.745-.189-.553-.011-.604-.188-.54-.2-.463-.153-.617-.224-.152-.287M396.581 278.724l-.679.257-.87.19-.459.175-.575.027-.783.23-.708.149-.665.121-.576.216-.428.676-.28.54-.413.582-.251.567-.517.96-.532.756-.338.76-.43.678-.837.963-.545.642-.68.411M365.04 289.494l.29.02.374.048.886.117.9.023h1.028l.823-.023.488-.023.887-.142.99-.105 1.375-.189.617-.07.694.011.732-.047.63.083.373-.048.578-.258 1.015-.06.707-.01 1.35-.19 1.208-.211 1.272-.165 1.864-.27 1.156-.118.739-.243M366.148 286.853l.168-.497.156-.517.117-.5.214-.56.35-.731.225-.598.33-.91.176-.392.244-.514M359.911 301.885l1.772-3.816 1.185-3.127.4-1.168.243-.633.204-.393.4-1.043.292-.695.35-.918.283-.598" clip-path="url(#p966db6f895)" style="fill:none;stroke:#000"/><path d="m366.148 286.853-.046.136-.36.696-.39.758-.205.722-.107.33M365.026 285.897l.225-.035.38.059.243.052.045.112-.077.388-.064.336.37.044M191.903 331.672l-1.31.922-.828.389-.76.204-1.701.082-.985-.061-1.298-.471-1.924-.553-.739.02M189.576 344l.182-.205.707-1.165.373-1.117.296-.988.038-.67.152-.657.156-.826.065-.67.026-.365.205-.835.18-.53.244-.27.437-.424.489-.623.218-.741-.167-.564-.63-.836-.553-.635-.091-.207M189.576 344l-1.504-.057-1.425-.187-1.424-.279-1.747-.109-.492.063-.39.232-.017.932M159.74 401.832l.384-1.274.374-1.087.203-1.226.39-2.653.204-1.754.033-1.714.17-.699.475-.869.695-.916 1.897-2.088 1.712-1.676.628-.869.22-.496.119-.736-.034-.559-.068-.48-.271-.404-1.526-1.211-.305-.572-.035-.372.035-.434.254-.621 1.51-1.987.697-.722 8.451-3.646 1.226-1.308.936-1.747.311-1.07-.156-.285.39-.588.136-.874-.18-.8-.367-1.45-.273-1.412-.044-.851-.118-1.02-.074-.723-.103-.433-.074-.58-.103-.27-.303-.312-.096-.378.074-.466-.022-.49-.077-.293-.193-.224-.335-.247-.359-.424-.283-.364-.154-.436-.129-.482-.115-.4.025-.752.103-1.26.437-.846.732-.612.747-.36.791-.351.914-.429.62-.307.617-.117.707-.059.784-.023 1.067-.071.668-.07.849-.024.539-.165.489-.282.385-.494.334-.494.36-.741.36-.588.128-.447.386-.659.668-.506.57-.434.574-.46.255-.288M384.08 326.965l-1.015 1.128M379.384 325.668l3.681 2.425M383.065 328.093l-2.104 2.34M383.065 328.093l5.36 3.443M388.424 331.536l-2.118 2.443M377.553 328.181l3.408 2.252M380.96 330.433l-2.03 2.257M380.96 330.433l5.346 3.546M375.694 330.668l3.236 2.022M378.93 332.69l-2.076 2.308M376.854 334.998l-2.991-2.007M376.854 334.998l-2.165 2.408M388.936 384.179l.265 2.684M383.8 382.708l1.333.313 3.51 1.018.293.14" clip-path="url(#p966db6f895)" style="fill:none;stroke:#000"/><path d="m385.836 380.64.357.24.318.17 1.085.621 1.111.621.15.182.107.182-.028 1.523M379.256 381.64l.098 7.958M381.645 382.202l-.926-.218-1.463-.343M379.363 390.345l-.01-.747M379.354 389.598l2.31.023M384.935 389.655l-1.132-.012M383.8 382.708l.003 6.935M381.645 382.202l1.508.354.647.152M383.804 390.556v-.913M383.803 389.643l-2.139-.022M381.645 382.202l.02 7.42M381.667 390.575l-.003-.954M366.078 380.445l-.516-.311-.541-.199-2.168.483M366 373.843l-.086 1.393M365.914 375.236l.128 4.036.036 1.173M365.914 375.236l-3.14-.01M358.165 375.182l4.609.043M362.753 370.64l.02 4.585M367.823 367.298l-.756-.015-.73-.084-.67-.11M373.833 367.95l-.226.742M622.628 378.447l-.888-2.152-.218-.424-2.339-2.258-4.126-3.999-.81-.741-.533-.35M603.244 386.03l-.537.977-.945.99-.306.215" clip-path="url(#p966db6f895)" style="fill:none;stroke:#000"/><path d="m596.81 381.88 1.128 1.528 1 1.58.908 1.179.288.345.5.652.822 1.048M606.371 385.923l-.117.491-.638-.138-.75-.107-.9-.041-.722-.098" clip-path="url(#p966db6f895)" style="fill:none;stroke:#000"/></g><g id="PatchCollection_1"><path d="m392.3 373.052-.051.963.135.931.475 1.07.509.994.492.621.645.667.474.155 2.188.032.61-.17.509-.156.322-.466.305-.853.662-2.484.593-2.887.085-.667-.254-.823-.492-.931-.95-.931-.61-.45-.136-.31-.068-.28-.203-.108-.271.077-.797.512-1.527 2.188-.848.637-1.407 1.91zM185.527 310.91l-.203-.248-.22-.326-.153-.357-.051-.31.068-.31.101-.187.238-.077.237.015.153.357.186.326.12.28.016.387.06.322-.032.117-.097.065-.199.042zM235.47 517.795l.617.624 1.542.74.591-.047.232-.47.385-.824-.77-.729-1.08-.282-1.26.023-.36.4zM228.128 516.468l-.526.427.175 1.088 1.52-.09 1.032-.32.546-.196-.195-.553-.37-.16-.799-.25zM231.342 513.562l1.072 2.674-.897-.232-1.012-.606.214-.82zM221.66 515.88l.741.98 1.811.142.546-.641.02-.482-.43-.784-1.285.178zM405.293 387.482l1.184-.492-.036.854.61.492-.145.82-1.075.164-1.04.098-.824-.23-.645-.491.107-.69.86-.065.43-.394z" clip-path="url(#p966db6f895)" style="fill:#00f;fill-opacity:.8"/></g><path id="PatchCollection_2" d="m162.237 56.888.159-.48-2.447-.99-.399.388-.531.325-.473.378-.088.514.059.514.088.595.148.621.088.541.03.54.148.568.088.541.443 1.65.236.513.237.486.236.541.265.487.414.405.295.46.118.54v.541l-.088.54-.296 1.325-.384.433-.531.297-.59.163-.591.08-.62.217-.531.298-.502.378-.385.486-.324.622-.178.54-.147.542-.443.432-.62-.216-.236-.514.147-.54.178-.514v-.568l-.06-.594-.354-.487-.531-.298-.591-.027-.531.27-.06.542.237.486.354.487-.147.54-.444.433-.56.243-1.21.433-.591.27-.561.216-.62.109h-.62l-.237-.892.177-.595.207-.54.236-.541.266-.488.355-.46.265-.513.207-.513.118-.595.06-.568-.12-.567-.058-1.136-.266-1.73-.118-.54-.414-1.082-.117-.568-.178-.595-.383-.486-.532-.324-.59.053-.532.325-.59.243-1.211.433-.62.135-.59.108-.65.162-.562.217-.59.189-.59.243-.59.162-.65.108-1.89-.243-.797-.946-.561-.27h-.65l-.65.027-.59.054-1.24-.054-.325-.46.118-.541.62-.189.62-.027h2.54l1.24-.108.59-.136-.443-.378-.62-.054h-1.299l-.65-.027h-1.299l-.62-.054-.679-.081-.62-.162-.62-.19-1.742-.621-1.978-1.433-.236-.54-.443-.488-.532-.405-.561-.243-.56-.217-.621-.297-.502-.379-.354-.54-.207-.54-.148-.569-.177-.54-.147-.541-.236-1.136-.414-1.406-.266-.513-.62-.162-.472-.433-.119-.54.119-.541.295-.46.236-.54v-.568l-.177-.54v-.542l.325-.486.472-.379.177-.514-.236-.513-.62.08-.68.028-.619.162-.62.027h-.679l-.62-.08-.62-.298-.62-.135-.62.135-.65.08-.65-.135-.62-.026-.62-.135.03-.595.354-.433-.443-.406-.502.38-4.576 2.46-.916-.38-.56-.27-.532-.297-.65.162-.679.082h-.62l-.679.134-.59.244-.473.351-.413.433-.473.378-.265.514.029.54.473.974-.237.514-.413.432-8.061 4.542-.443.027-1.122-.162h-.679l-.531.27-.177.541.236.541.56.27.591.19 1.152.215.561.298.472.351 1.093 1.704.266.621.147.541.266.54.472.271.561-.027.532-.216.354-.46.502-.378.473-.379.56-.405.414-.433.088-.594-.62-.136-.62.19-.59.107-.65-.188-.56-.244-.355-.46-.148-.567.03-.568.324-.487.473-.432.472-.379.532-.243.59.027.65-.135.502-.378.413-.38.354-.459.65.027.532.244.384.432.53.325.65.162.65.19.59.108 1.24-.433.355-.487.118-.568.03-.54-.03-.568.384-.433.56-.135.592.027.59-.19.502-.27h.65l.59.028.561-.244.473-.324.531-.298.62.027.561-.027.532-.243.325-.486.059-.568-.03-.541.236-.54.502-.298.768.676.502.324.502.27.502.298.147.568-.236.567.03.541.502.244.53.216.12.54.413 1.028.117.568.355 1.108-.089.54-.62-.08-.443-.487-.531-.378-.679-.027-.59-.108h-.68l-.62.135-.531.351.118.54.384.406.502.298 1.092.568.561.243.59.189.62.108.561.054.414.406.118.622-.118 1.27-.207.568-.354.46-.384.432-.059.568-.207.567-.059.514.266.487.295.486.355.433.472.351.443.406.472.406.089.54-.266.514-.029.568.236.486.207.46-.148.703.03.567.56.216.591-.053 1.152-.217.59-.135.561-.108.443-.433.06-.567.501-.271.531.216.237.487.089.568.472.406.56.08.591-.189.502-.297.59-.216h.62l.503.324.354-.487.177-.54.236-.487.384-.432.06-.54-.591-.244-.56-.298.176-.567 2.51-.054.384.432.502.243.59.162h1.742l.561.217.561.189.443.379.236.513-.354.487-.532.27-.62.19-.56.243-.532.243-.945-.514-.59-.702-.266-.217-.532-.352-.62-.053-.65.486-.708 1v.487l.059.54.266.514.502.27.088.542-5.994 3.487-.383 1.379-.236.54-.591.027-.62-.054.03-.54-.444-.406-.62.027-.56-.216-.443-.379-.443-.405-.561-.298-1.034-.621-.56-.352-.532-.297-.62-.216-.148-.73-.354-.487-.68-.108-.53.352-.532.243-.532.351-.561.298-.413.432-.443.432.265.487h.62l.562.216.531.298 2.628 1 .413.379.502.297.384.433.354.46.266.513.236.513.237.54.295.488.325.46.442.405.325.46.384.432.531.352.562.243.65.162.59.027.56-.081.533-.351.502-.298 1.092-.568 1.063-.595.443-.35.501-.325 1.034-.568.59-.108.59-.027.591-.108.532-.324.443-.352 3.011-1.541.473-.324.531-.325.502-.243.561-.19.562-.135.59.163.59.973.414.432.413.38.532.242.531.27.65.19.59.08.561.109 1.831.325h.59l.532.216.413.405-.295.514-.531.297-.709.379.236.487.384.405.65.054.531-.216.355-.46 1.004-.595.53-.243.591-.162.62-.054h.62l.562.027.472.297.325.487.266.513.236.514.177.595.413 1.081.089.568.059.54.03.568.324.46.502.297.59.081.562-.027.62-.108.56-.135.62-.108.591-.054.532.243.413.406-.088 1.189.442.352.768.324.59.216.769.217.53.243 1.152.406.502.324.118.594-.177.568-.118.54-.295.46-.62 1.325-.237.54-.472.433-.62.19-.62.054h-.62l-1.24.324-.62.216-.59.243-.355.46-.089.541.59.973.444.351.059.54-.531.326-.65-.027-.532.243-.088.594-.148.541.414.405.59.027.59.109.473.351v.541l-.532.378-.502.325-.058.54.088.541.325.514.059 1.351.325.73.531.297.561.217.59.135 1.123.108.59.243.502.271.355.487.206.513.797 1.081.414 1.055v.567l-.295.757-.177.595-.119.514-.236.567-.147.541.354 2.27.265.514.207.541.178.514-.09.54-.472.379-.59.27-.473.378-.53.352-.385.487-.03.567.237.514.531.297 1.3 1.244.59.08.531.19.119.568-.532.351-.65.163-.324.486v.568l-.207.513-.236.514-.148.54.502.298.561.216.413.378.236.542-.088 1.567-.088.973-.148.54-.502.352-.502.379-.266.514v.54l.384.433.59.054.62.027.296.513-.059.54-.561.271-8.917 4.623.266.675 8.799-4.73.767-.216h.62l.62.19.532.323.384.433.413.406.502.378.532.297.59.081 1.004.487.472.405.236.487.207.514.295 1.513.325.514.472.324.385.46.944.54.177.838-.029.893-.531 1.594.324.622.236 1.514.827.432.62.108.502.298.237.486.088.541-.03.568-.472.756.03 1-.177.541v.568l.206.54.473.325.56-.027.473-.351.59-.054.503.297-.089.54-.266.514-.56.324-.267.514-.236.54.089.568.147.568.414.405.266.487.531.27.561.136.472.35v.596l-.708-.163.472 1.541.384.379.443.35.177.541-.56.866.265.513.502 1.19.177.676.236.567.177.54.119.541.236.487.531 1.486.177.541-.03.568v.513l-.206.54-.265.541-.473.406-.709.973-.147.54.088.541.06.541.236.514.265.486.06.568-.208.513-.295.514-2.096 2.649-.65.216-.56-.297-.62-.27-.414-.487-.59-.19-.59.082-.591.108-.591.243-.56.27-.562.325-.266.54.088.541.444 2.379.324.513.236.487.06.54.088 1.163-.118.54-.295.46-.295.487.03.54.413 1.054.295.487.384.405.59.135.502.244.561.216.59.135.532.19.59.161.296.514-.236 1.406-.354 1.108-.119.757.06.567.176.568.207.54.384.406-.177.54-.65-.108-.118.54.325.46.384.487.03.567.324.947-.502.73.354.27 3.1-1.92.916-.432.915-.622.797-1.513.74-1.703.324-1.27.295-.974 1.151-1.297-1.033-.108-.59-.135-.62-.162-.325-.46-.384-.486-.325-.487-.413-.486-.443-.406-.62-.27-1.122-.162-.532.216-.65-.054-.324-.46-.355-.46.089-.81-.384-.46-.502-.351-.502-.406-.413-.432-.472-.46-.266-.486-.236-.595-.236-.54-.355-.46-.207-.54.089-.541.443-.379.502.298.502.27.472.351.56.109.65-.055 2.451-.405.561.054h1.24l.62-.027.503-.297.088-.541-.06-.54-.264-.514-.09-.595v-.622l.237-1.134.531-1-.147-.542-.414-.432-.354-.46-.118-.54.03-.54.265-.541.177-.568v-.54l.089-.54.177-.542.295-.459.177-.568-.177-.567-.236-.541-.089-.568.03-.54-.472-.784-.236-.514-.207-.54-.119-1.19.326-.054.56.054.591-.108.502-.27.62.026.56.055.503-.243.473-.379.088-.54-.06-.622v-.568l-.413-.46-.59-.134-.65-.19-.236-.513-.059-.568v-.568l.03-.54-.325-.487-.414-.406-.236-.54-.502-.406-.59-.135-.561.19-.207.567-.088.568-.06.513.266.487.502.243.236.46v.568l.236.513.444.351.502.298.472.351.325.46-.089.54-.295.487-.532.297-.56.27-.591-.134-.236-.541-.178-.568-.236-1.135-.059-.54-.236-.541-.207-.514-.266-.513-.265-.54-.325-.487-.177-.569-.118-.54-.266-.567-.295-.542-.413-.486-.266-.54v-.568l-.03-.676.089-.54.118-.541.147-.568.178-.568.354-.46.531-.188.59-.108.533.189.56-.108.355-.433.295-.486.65-.974.354-.459.472-.298.59-.243.532-.189.591-.189.56-.162.591-.19-.354-.703-.827.325-.59.243-.59.081-.62.163-.562.297-.472.379-.414.432-.354.46-.325.486-.325.54-.56.298-.62.19-.562.215-.53.298-.562.27-.62.217-.62.107-.03-.54.502-.297.473-.352.266-.487v-.594l.058-.541-.029-.568-.118-.54-.325-.46-.532-.324-.53-.243-.621-.216-.59-.244-.532-.351-.473-.379-.088-.595-.03-.567-.118-.54v-1.136l.119-1.163.206-.702.532-.244.502-.297.266-.486.029-.541-.118-.54-.62-.217-.62-.135-.62-.19-.502-.35-.502-.325-1.654-1.487-.118-.54-.531-.244-.59-.243-.562-.297-.472-.352-1.21-.973-.267-.514-.206-.54v-.568l.088-.568-.059-.567-.501-.379-.562-.297-.236-.514.03-.54.147-.568.236-.54.296-.487.325-.487.56-.649v-.675l-.265-.514-.414-.405-.265-.541-.178-.541-.53-.324-.444-.379.355-.46.147-.567.207-.54.236-.541-.059-.541-.561-.324-.472-.379.088-.594.059-.568.325-1.298.177-.919.118-.54.561-.163.532-.297.354-.487.148-.54-.118-.595-.591-.324-.62-.163-.354-.46-.296-.486-.029-.595.531-.324 2.864-.676-1.801-.486-.62-.135-.531-.244-.354-.46-.473-1.108-.236-.513-.384-.487-.177-.73-.236-1.108-.178-.54-.207-.542-.176-.54.531-.27.56.243.621.027 2.746-.244.561-.107-1.535.81-.65 1.325-.089.757.443-.162.857-1.027.295-.514.295-.487.414-.405.62-.109.59-.054h1.211l.56.027h1.92l.561-.027h2.51l.59-.027h.59l.562.163.413.432-.207.541-.354.487.502.675.62.081 1.713.163.59-.054.59-.136.621-.107.59.026.502.244.562.216.56.108.65-.054.56-.19.562-.107 1.18.108.503.27.768 1.703.059.541v.567l.088.568.384.46.502.27h.62l.561.027h.236L190.7 94.25l-1.358-6.272-.354-2.027-.236-1.163-.118-.54-.089-.541-.03-.568.266-.892.06-.54.147-.541 3.632-12.409-12.43.054-4.194-.027-10.393-.405-.207.54 10.335.352.236.19-.296.486-.53.297-.503.379-.325.513-.118.54v.569l.089.54.266.46.295.486.354.46.472 1.135.266.514.207.513.148.541.059.541-.03.568-.06.54.148.568.296.46.56-.163.208-.513.265-.54v-.569l-.147-.621-.118-.568-.207-.54-.266-.541-.236-.568-.472-1.082-.236-.513-.178-.568-.06-.568.178-.54.443-.406.502-.324.443-.352.62.028.532.188.266.541.176.54.237.514.236.595.265.568.178.541.118.594.147.54.237 1.083.236 1.351.118.514.236.46.236.513.207.514.118.54-.325.487-.502.297-.59.19-.266.216-.354.514-.148.513-.118.541.03.54.147.568.295.487.414 1.054.236.568.089 1.244.295.513.56.135.591-.08.62-.136.591-.189.945-.595.56.19.65.919.296.513.147.54v1.731l-.147.54-.236.514-.236.54-.296.488-.384.459-.502.352-.531.243-.561.243-.59.19-.62.134-.65.109-.62.135-.59.054h-.65l-.591-.054-.62-.108h-1.3l-.62-.054h-2.007l-.62-.054h-.679l-.59-.028-1.33.136-.65-.027-.62-.081h-.678l-.65-.109h-1.92l-.59.027-.62-.027-.59-.135-.65-.189-.56-.27.029-.595.266-.514.383-.432.384-.487.473-.324.472-.298 1.181-.108 1.417-.676.591-.054.531-.216.532-.27.59-.162.591.027.561.162.59.054.62-.027.473-.379.118-.567-.236-.54-1.063-.65-.68-1.298-.383-.46-.177-.54v-.567l-.118-.541-.532-.244-1.21-.432-.502-.297-.561-.27-.532-.244-.59-.216-.62-.27-1.3-.514-.472-.352-.502-.405-.561-.27-.502-.298-.295-.486-.296-.514-.56-.27-.532-.325-.65.027-.62.135-.59.244-.56.297-.621.135-.62.054-.296-.175.591-.447.34-.392.088-.27.044-.27-.088-.338-.797-.92.236-.486.177-.513.266-.514.206-.514.119-.54.207-.514.353-.433.532-.243.561-.162.56-.108.562-.217 2.215-1.595 1.063-1.487.265-.486.236-.514-.118-.54-.236-.542-.325-1.892v-.567l-.354-1.109-.265-.54-.473-1.298-.738-1.812-.443-1.973z" clip-path="url(#p966db6f895)" style="fill:#006400;fill-opacity:.8"/><path id="PatchCollection_3" d="m371.814 366.615 3.634 2.705-.26 1.154-4.89.09.163-1.174.443-1.495z" clip-path="url(#p966db6f895)" style="fill:green;fill-opacity:.8"/><g id="PatchCollection_4"><path d="m371.565 351.777 3.188-3.745 2.865 2.043-3.188 3.745zM377.012 347.427l1.081-1.324-1.045-.716-1.083 1.325zM360.498 369.058l1.658.047-.036 1.055-1.657-.046z" clip-path="url(#p966db6f895)" style="fill:#90ee90;fill-opacity:.8"/></g><path id="PatchCollection_5" d="m309.6 360.809 7.481-2.14 1.675 5.242.545.178.468.999.702.214 1.324-.393.857-.32.078 1.105 1.09.749 1.208.25 1.364.25.974.106 1.13-.25 1.208-.035 1.442.392.934.285v-.606l.156-.82.546-.285.974-.143 1.169.036.935.178 1.052.855-.312.785.974 1.605.195.713-.273.927-.6.534-3.578.141-3.032-.002-3.961.851-2.78-.865-3.22-1.158-3.998-1.302-2.734-1.751-2.578-1.396z" clip-path="url(#p966db6f895)" style="fill:#006400;fill-opacity:.8"/><g id="PatchCollection_6"><path d="m372.504 368.67 1.75.497.468.14.184.083-.204.622-2.419-.681zM367.904 364.32l-1.447 1.73 1.756 1.234.717-1.144.744-.659zM422.946 285.643l-.273-.562 7.37-2.987.272.563zM364.877 286.175l.005-.439-.557-.005-.005.439zM358.759 284.29l-.172-.804 8.149-1.463.172.805zM367.848 290.841l-.068-.697 7.117-.585.068.698zM376.822 291.887l-.263-.752 6.812-1.995.263.752zM392.253 281.256l-.332-1.301 2.116-.453.332 1.301zM390.567 282.27l-.383-.192.19-.318.383.192zM113.337 324.234l.197-.414 1.213.483-.262.55-.486-.193.064-.136zM117.193 323.85l-.618-.044.062-.757.618.043zM116.112 322.991l-1.326-.537.136-.28.258.104.071-.149.464.188-.055.115.603.244zM117.009 325.02l-.392-.022.039-.558.392.023zM120.213 321.886l-.252-.776.48-.13.252.775zM120.748 320.78l-.176-.407.353-.129.054.125.179-.065.122.283zM159.637 393.83l-.505-.083.412-2.118.504.082zM239.347 328.77l-.14-.717 5.906-.969.14.72zM240.002 327.069l-.132-.707 5.236-.816.131.708zM230.01 320.642l.485-.598 4.509 3.068-.487.598zM234.632 326.366l-.01-.624.858-.01.009.624zM236.627 327.594l.005-.335.248.004.002-.116.511.006-.009.584-.531-.006.001-.134zM237.338 328.419l.031-.586.679.03-.031.585zM188.998 325.733l-.788-.118.81-4.535.787.118zM187.415 320.817l-.192-.531.455-.137.19.532zM186.809 318.71l-.09-.455.6-.1.09.455zM179.07 290.624l.181-.564.431.116-.18.564zM191.343 326.516l-.548-.042.066-.702.547.043zM182.33 334.08l-.052-.3.852-.124.092.53-.664.097-.04-.23zM190.96 336.873l-.566.047-.076-.776.565-.047zM190.436 337.009l.036.444.096-.006.028.341.063-.004.016.195.281-.019-.042-.528-.258.017-.036-.453zM146.24 402.8l.147-.731 6.789 1.137-.146.73zM263.918 385.214l-.39-.638 3.854-1.978.392.639zM264.324 386.198l-.15-.666 3.368-.632.15.667zM273.415 374.644l-.21-.222 1.227-.977.211.223zM286.63 360.206l-.079-.358.813-.15.079.357zM286.443 358.989l-.04-.413.781-.064.04.412zM289.954 358.396l-.268-.613.687-.25.197.452-.27.099.07.16zM546.936 425.153l-1.696-.445.124-.369 1.678.45zM543.443 424.424l-.192-.073-.033.075-.105-.039.063-.142-.265-.1-.07.156-.317-.12.224-.499.88.33zM540.48 422.41l.707-1.304-.063-.028.16-.297-.208-.094-.867 1.6zM384.286 342.768l-.365-.27.251-.284.365.27zM384.666 342.28l-.364-.27.25-.283.365.27zM385.103 341.846l-.364-.27.25-.284.365.27zM383.034 344.128l-.365-.27.251-.284.365.27zM383 342.614l.292-.37-.327-.215-.291.37zM384.242 341.297l.29-.37-.327-.215-.29.37zM382.546 342.226l.29-.37-.327-.215-.29.37zM381.993 341.873l.29-.37-.327-.215-.29.37zM383.15 340.58l.29-.37-.327-.216-.291.37zM388.89 343.321l-1.072-.758 1.62-1.918 1.071.757zM386.573 345.665l-1.956-1.407 1.432-1.667 1.955 1.407zM392.524 339.94l-1.172-.854.572-.657 1.17.853zM389.72 339.156l-.527-.404.62-.722.552.372zM389.193 338.752l.62-.722-.54-.39-.621.722zM389.096 336l-.325-.464 4.709-1.734.246.624zM394.07 338.439l-.768-.587.651-.714.768.586zM394.566 343.8l-.878-.63.52-.608.878.63zM395.186 343.164l-.878-.63.52-.607.878.63zM395.066 345.55l-2.093-1.546.544-.615 2.072 1.473zM396.522 342.708l-1.388-1.066.52-.565 1.386 1.066z" clip-path="url(#p966db6f895)" style="fill:#a9a9a9;fill-opacity:.8"/><path d="m395.653 341.077 1.592 1.223.487-.532-1.591-1.223zM398.207 341l-.363.405-1.505-1.132.363-.405 1.347 1.001zM400.3 338.18l-.05-.54.886-.071.051.54zM401.469 338.042l.01-.535.476.008-.01.535zM398.76 339.64l-1.054-.788.565-.624.643.494.064.294-.064.07.18.13z" clip-path="url(#p966db6f895)" style="fill:#a9a9a9;fill-opacity:.8"/><path d="m398.049 340.869-1.347-1 .314-.35 1.343 1z" clip-path="url(#p966db6f895)" style="fill:#a9a9a9;fill-opacity:.8"/><path d="m397.016 339.519 1.538 1.146.432-.486-1.538-1.146zM402.579 334.093l-.184-.669 8.298-1.911.184.669zM403.098 332.167l-.184-.739 5.924-1.237.185.74zM549.808 425.628l-.891-.166-.11.492.705.131.025-.116.188.035zM545.631 423.963l.11-.41.376.083-.11.41zM541.998 422.33l-.803-.425.144-.23.803.425zM541.486 422.943l-.277-.152.133-.203.277.152zM538.49 418.896l-1.462-.8.199-.304 1.462.8zM559.143 428.033l-.834.063-.046-.507.835-.063zM241.49 513.82l.643-.187.36.811-.63.212zM174.698 528.554l.136.59.873-.124-.152-.582zM370.948 357.217l.304-.378.675.419-.24.188-.152.23zM392.065 338.306l1.535 1.174 1.566-1.68-1.188-.775-.568-.016zM360.498 369.058l1.658.047-.036 1.055-1.657-.046zM370.092 365.61l-.206.249.347.249.224-.25zM376.029 367.831l.391.244-.522.568-.348-.28zM374.379 368.819l.385.131-.042.358-.53-.16zM370.507 366.186l-.233.287.313.213.27-.303z" clip-path="url(#p966db6f895)" style="fill:#a9a9a9;fill-opacity:.8"/></g></g></g><defs><clipPath id="p966db6f895"><path d="M90 110.263h558v506.674H90z"/></clipPath></defs></svg>