<svg xmlns="http://www.w3.org/2000/svg" width="960" height="960" viewBox="0 0 720 720"><defs><style>*{stroke-linejoin:round;stroke-linecap:butt}</style></defs><g id="figure_1"><path id="patch_1" d="M0 720h720V0H0z" style="fill:#fff"/><g id="axes_1"><path id="patch_2" d="M90 634.815h558V92.385H90z" style="fill:#fff"/><g id="LineCollection_1"><path d="m315.68 376.644-.022-2.05-.464-3.54M316.802 374.204l-.825-1.448-.783-1.703M313.98 368.502l.575 1.101.64 1.45M390.04 336.731l-.499-.104M391.503 337.064l-.55-.131-.913-.202" clip-path="url(#pe1b41c18ec)" style="fill:none;stroke:#000"/><path d="m390.01 338.085-.036-.337.04-.59.026-.427M284.014 362.352l-4.87-1.845-.935-.238-.984.019-.789.19-.718.334-.815.595-1.517 1.354-1.365.825-1.917.566-1.437.073-1.31-.26-1.165-.416-3.647-1.937M251.778 372.48l1.286-1.84.783-.952 1.07-.933 2.005-1.205 1.772-.96 1.125-.94.96-1.112.598-1.056 1.168-1.87M228.775 334.29l.581 1.147 1.504 3.511 1.624 3.78.926 1.803.643.774 1.047.885 1.012.635 1.279.562 1.576.554 2.812.832 2.727.91 1.914.938 1.635 1.192 2.576 2.043 2.829 2.225 2.559 1.655 2.976 1.735 3.55 2.141M311.792 358.109l1.566-.198M312.017 354.014l.12 1.361.015.922-.36 1.812M307.09 358.536l2.571-.282 2.131-.145M311.937 362.106l-.328-1.548.05-1.258.133-1.191M521.525 102.817l-.89 1.159-1.061 1.1-2.1 1.89-3.913 3.385-2.34 2.046-.846.84-.599.737-.415.655-.543.945-.375 1.197-.208 1.169-.088.952-.008 1.212.136 2.016.16 3.386.04 1.197.135.968.288 1.018.423.878.503.826.799.878.766.58 1.134.662 1.796.945.975.484.59.506.56.699.47.833.344 1.072.175.915-.071.87-.104.84-.352.915-.55.908-.735.796-.958.796-1.11.93-.799.997-.415.863-.327 1.011-.056.826.016.945.168.81.383.893.655 1.02 4.535 5.304.703.937.854 1.399.487.996M514.869 212.185l.52-.773 1.054-1.228 1.462-1.309 1.62-.99 1.773-.9 1.749-.691 1.645-.707.966-.737.743-.818.47-.788.328-.915.104-.833v-.968l-.176-.937-.399-.93-.48-.84-.718-.855-.942-.737-1.278-.81-2.164-1.22-.934-.596-.774-.751-.679-.893-.511-.907-.303-.997-.208-.915-.04-1.212.12-4.985.255-9.708.08-.952.2-.826.287-.855 1.254-3.31.255-.84.224-1.132.08-1.026-.032-1.205-.152-1.116-.24-.982-.27-.968" clip-path="url(#pe1b41c18ec)" style="fill:none;stroke:#000"/><path d="m531.08 165.335-1.246-.193-.631-.067-.55-.015-.663-.104-.5-.264-.463-.354-.383-.357-.495-.595-.471-.465-.252-.186-.323-.141-.351-.063-1.37-.049-1.146-.097-.658-.115-.284-.122-.2-.12-.171-.16-.16-.23-.187-.495-.156-.628-.136-.224-.24-.152-.287-.116M514.869 212.185l-.606.967-.566 1.25-.431 1.443-.4 1.673-.223 1.965-.176 1.175-.224.967-.487 1.153-.655.982-1.972 2.187-6.404 6.888-1.445 1.562-.766.885-.535.892-.311.93-.192.863.047.848.08.796.288.885.487.96.886 1.13 1.485 1.622.855.81.599.752.479.81.295 1.146.272 1.362.327 1.242.2 1.19-.032 1.227-.152 1.094-.208.796-.447.914-.702.945-.847.684-.998.528-1.15.298-1.054.03-1.628-.156-1.613-.268-5.91-.751-4.183-.565-1.014-.127-1.174-.09-1.134.12-.878.275-.958.416-.839.588-.719.692-.478.833-.464 1.301-.08 1.258.256 1.525.527 1.316 2.755 4.061 1.676 2.291.839 1.146.63.803.791.7.966.646 1.27.432 1.773.297 1.389.164 1.597.312 1.277.573 3.09 1.971 2.428 1.719.998.833.663.78.686 1.31.703 1.926.407 1.331.272.915.168.782-.088.795-.128.625-.335.96" clip-path="url(#pe1b41c18ec)" style="fill:none;stroke:#000"/><path d="m474.967 308.944.543-.742.814-.789.986-.691 1.405-.696 1.573-.673.877-.515 1.181-.946.753-.767.719-1.093.65-1.145.867-1.477.706-.959 1.274-1.22 1.341-.956 1.61-1.074 1.44-.893.887-.39.998-.294 1.138-.145 1.385-.045 1.944.1 1.074-.167.887-.283 1.493-.803.862-.64.866-1.03.484-.837M565.758 143.97l.056.52.255.618 2.331 3.192.192.624.344 1.83.207.79.327.632 1.166 1.554.168.454.04.937-.295 4.59-.424 1.384-.215 1.272-.615 1.398.024.529.415 1.74.527.588.974.737.719.99.271.534.104 1.451-.934 2.834-.687.9-.152 1.094.144.499 1.916 2.15.36 1.264-.112.833-.224.707-.143 1.674.152 2.492.255.81.766 1.592.663.818.942.707 3.13 1.779.344.49.59 1.205.68 2.198.04.778-.252 1.439-.695 1.645-.459.691-.315.264-1.613 1.253-.18.291-1.186 2.525-3.597 5.032-.615.942-.69 1.502-1.003 2.391-1.533 2.232-.435 3.314-1.705 4.552-.627 4.088-.574 1.138-1.098 1.693-1.677 2.194-1.829 2-.75 1.243-.695.536-.239.468-.719 2.522-.375.253-.687.115-2.2.097-1.217.476-.28.335-.26 1.911-.011 1.131.176 1.662.438 1.216.136.99.184.506.687 1.342-.088.569-.491.28-1.014.077-.188.138-.443.766-1.282 2.22-.387.339-2.966 1.212-1.909.086-.59.29-.42.714-.115.703.023.353.452 2.068-.18.562-.555.227-1.034.107-.431.145-1.657 1.109-.315.293-.5.986-.06.342.14 1.183.332.863.131 1.751-.255.696-.208.25-.479.24-.93.362-.14.494.036 1.95-.108.72-.587 1.283-.395 1.384-1.329 2.19-.631.34-2.22.546-.315.227-.471.565-1.63 1.655-.458.14-1.122.035-.886-.342-.783-.194-2.328-.123-.962-.264-.34-.018-2.434.294-.511-.146-.615-.632-.998-.948-1.03-1.592-.496-.68.005-.358.123-.338.248-1.138-.231-.29-.368-.149-.455.09-.535.349-.327.491-.376.885-.167.967-.017.84.12.58.351.945-.063.722-.335.35-1.597.974-.424.394-.32.588-.446 1.19-.903 1.584-.55.729-.192.573-.32 1.376-.503 1.443-.974 1.733-.487.23-.67.127-1.334.082-1.421.297-1.214-.074-.886-.38M385.407 335.978l.732.18.602.16.576.129.559.178.599.25.308.217.51.446M389.541 336.627l-.886-.218-1.96-.341-1.288-.09M366.01 348.97l.919-.487.91-.772.858-1.056.786-.949.875-.784.67-.443.859-.387 1.573-.43 1.485-.246 1.363-.577.993-.78 1.333-1.696.882-1.187.55-.766.791-.744.865-.598 1.33-.672.88-.291.69-.105.785-.022M436.563 311.26l-4.913 3.539-1.562 1.33-1.199 1.3-2.498 3.072-2.823 3.056-1.513 1.205-2.714 1.678-2.508 1.29-2.268 1.156-2.211 1.328-3.33 2.324-2.735 2.164-.934.529-.986.368-1.82.472-3.786.84-1.968.354-2.118.074-3.174-.275M390.01 338.085l.21-.331.283-.305.324-.195.676-.19M389.294 337.538l.095.458.278.654.33.402.275.255M389.541 336.627l-.163.44-.084.471M390.272 339.307l-.178-.64-.084-.582M513.062 347.727l-.863.059-2.08.572-1.74.818-1.925.882-1.784.501-1.64.183-2.18-.16-2.62-.208-2.994-.194-1.502.022-2.13.114-3.888.405-1.38-.06-1.438-.224-1.526-.43-1.922-.969-3.022-2.015-6.002-3.739-1.606-.825-1.46-.528-2.031-.483-2.084-.14-2.03.217-3.094.51-2.53.403-1.995.275-2.452.07-3.84-.383-4.672-.617-1.565-.03-2.02.134-1.789.272-8.258 1.85-1.74.216-2.093-.04-3.682-.203-4.959-.187-1.973-.06-2.31-.435-2.07-.618-7.683-2.77-2.022-.661-2.212-.733-1.201-.134-.974.16-.887.394-1.9.882-1.625.42-1.306-.015-1.201-.402-.89-.516M214.785 318.398l-1.643-2.856-2.049-3.715-1.198-1.725-1.678-1.888-4.57-3.81-4.998-3.956-2.356-1.956-1.43-.885-1.565-.633M177.305 302.256l10.077-4.902 1.182-.417 1.325-.26 1.405-.052 2.004.35M251.7 220.989l-.388.613-1.194 1.708-.826 1.576-.59 1.548-.243.606-.165.316-.086.36.11.524.515.875 1.05 1.454.707 1.12.337 1.151-.034.835-.315.785-.875.859-1.345 1.172-1.154.816-.49.445-.482.593-.39.809-.19.407-.203.268-.38.178-.454-.007-.537-.084-1.138-.34-1.104-.24-.613-.067-.338.038-.288.093-.388.315-.237.275-.272.501-.215.364-.39.402-.484.47-.506.722-.325.69-.11.738-.207 1.015-.415 1.023-.732 1.056-.846 1.659-.71 1.488-.28.987-.14.947-.203.546-.447.543-1.126 1.038-1.978 1.209-1.244.8-.427.427-.938 1.317-.663 1.07-.296.648-.559.604-.512.281-.598.234-1.061.577-.915.818-.55.923-.376 1.13-.57 2.306-.484 1.212-.763 1.068-.638.588-3.058 2.063-.863.605-.615.708-.906 1.38-.555.68-.966.871-.667.65-.277.468-.042.52.205.55.226.497.036.46-.084.429-.555.51-.742.527-.783.194-.822-.07-.903-.146-.902.034-.543.152-.357.156-.481.283-.262.339-.225.695-.345.77-.593.73-1.16 1.393-.89 1.369-.474.327-.427.052-1.05-.04-1.353.186-.978.278-.867.351-.443.503-.172.492.028.86.392 1.744-.028 1.2-.2 1.072-.559.64-.918.766-1.446.84-.494.499-.576.996M228.775 334.29l-1.336-1.98-1.285-1.603-2.793-2.635-2.09-2.075-3.443-3.466-1.597-1.986-1.446-2.147" clip-path="url(#pe1b41c18ec)" style="fill:none;stroke:#000"/><path d="m211.68 328.28 1.277-1.22 1.006-1.324.224-.55.032-.58-.287-1.19-.016-.937.143-.893.463-1.577.263-1.611M177.305 302.256l-4.24 2.008-5.134 2.551-5.502 2.698-6.473 3.146-8.25 3.885-4.695 2.357M118.994 341.495l1.025.031 2.446-.237 2.109-.473 1.756-.628 1.9-.908 1.71-1.07 1.428-1.079 2.268-2 2.651-2.448 1.341-1.306.583-.946.223-.922-.043-1.076-.261-1.096-.589-1.848-.24-1.075.014-1.017.182-.628.48-.812.825-.795.994-.64 3.215-1.62M100.73 279.272l1.813 3.206 1.126 2.045.407 1.05.4 1.457.527 4.195.271 1.086.463.714 2.364 2.186 1.022.952.575.967 1.756 4.419.703 1.324 2.236 2.454.655.967.575 1.369.686.714.862.416 1.502.119.862.223.878.521 2.188 2.44.56.49.622.328 1.996.342 1.373.432 2.205.892 1.484.312.64.208.383.447.175.759.096 1.502.351.744.543.595 2.06 1.25 1.087.356h.957l.895-.238 1.549-.759 1.74-.669.624-.149 1.07-.037M244.45 305.253l.925 1.755.99 1.354 1.023.729 2.795.996 1.756.491.639.327.208.521-.145.61-1.82 2.217.32 3.243-.352 2.052.288 1.533.16.728-.144.358-.655.178-1.118.045-.687.089-.926.506-1.437.922-1.086.253-1.134-.03-.814-.015-.72.208-.318.789-.352.833-.974 1.264-.974.446-1.885.908-1.277.937-1.357 1.651-1.47 1.25-1.629.848-1.198.446-2.307.594M368.138 351.55l-.18-.249-.637-.914-.786-.811-.525-.606M361.997 350.136l.95-.373 1.597-.404 1.466-.39M313.98 368.502l-.973-.974-.52-.714-.255-.863-.343-1.234-.096-1.012.144-1.6" clip-path="url(#pe1b41c18ec)" style="fill:none;stroke:#000"/><path d="m313.98 368.502-1.005-2.097-.527-2.082-.511-2.217M313.283 383.319l.602-1.088 1.118-2.558.543-1.592.134-1.437" clip-path="url(#pe1b41c18ec)" style="fill:none;stroke:#000"/><path d="m318.76 379.617-.643.283-.168.03-.175-.041-.1-.172-.156-.46-.208-.335-.415-.588-.487-.721-.728-.969M322.053 370.882l1.039 2.253 1.444 2.741 1.662 2.22M349.398 372.894l-1.07.617-1.146.406-1.63.134-1.756-.015-1.725.208-1.405.431-1.214.67-1.037.966-2.827 3.302-1.035.766-1.021.454-1.42.175-1.65-.115-1.39-.595-1.102-.7-1.772-1.502M316.802 374.204l.774 1.02 1.274.922 1.47.463 3.195.565 1.134.283 1.549.64M312.695 384.38l.588-1.061M303.371 358.94l.413.838.862.997 1.31 1.19.551.647.303.716.148.472.17.495.33.853.381.828.815 2.485 1.462 5.753.216 1.264.024 1.005-.128 3.302.048.944.104.58.383.655 1.31 1.71.622.707" clip-path="url(#pe1b41c18ec)" style="fill:none;stroke:#000"/><path d="m202.61 572.336 1.005-.818 1.022-1.547.431-1.383 1.246-4.952.048-1.1-.335-1.354-.735-1.279-3.019-4.104-.574-1.621-.144-1.963.24-2.41 1.948-8.12.686-1.53 1.63-2.767 1.181-2.23.367-1.533.033-1.323-.416-1.25-1.836-3.405-.351-1.205.047-1.264.351-1.339 1.119-1.516 6.02-4.894 1.517-2.32.703-1.62.399-1.77v-1.8l-.479-1.874-.623-1.532-1.166-1.591-1.645-.966-1.724-.417-2.14-.194-2.284.164-1.996.67-1.453 1.308-.767 1.89-.271 2.84-.432 1.606-1.021 1.264-1.406 1.04-1.932.685-1.82.09-1.694-.269-3.736-2.022-2.045-.818-1.709-.044-1.948.46-1.708 1.146-1.182 1.517-.36 1.936.631 4.607.176 2.9-.272 1.473-.734 1.606-1.565 1.383-1.805.714-1.884.149-1.996-.476-1.82-1.041-1.693-1.8-.528-1.338-.127-1.607.271-2.245 2.475-6.618.783-1.443 1.086-1.25 1.853-1.427 2.06-.743 7.266-1.934 2.427-1.056 2.028-.624 4.04-1.027 1.086-.684.847-.877 2.842-5.176 1.15-1.353 1.917-1.145 2.14-.804 2.155-.535 8.8-.788 1.82.193 1.63.506 3.848 2.067 1.66.446 1.613-.163 1.582-.536 1.357-.937.734-1.011 1.582-3.138.639-.862.941-.789 3.466-1.621.655-.476.638-.892.431-1.176.448-4.283.303-1.442 2.843-7.154.782-1.324.975-.922 1.277-.655 18.876-7.555 3.737-.922 2.747-.327 3.433.282 1.246.239 1.629.594 1.357 1.07 4.52 5.579 2.954 2.974.99.773 1.581.432 1.405.06 1.725-.194 1.198-.536 1.197-1.04.847-1.146.575-1.696.734-1.517.895-1.04 6.212-4.67.67-1.161.336-1.16.032-.997-.192-.847-.782-1.889-.176-1.205-.064-3.138-.383-1.413-.623-1.309-.99-1.056-5.126-3.004-1.805-1.294-1.15-1.264-.734-1.518-.352-2.067.176-1.25.814-1.22 2.124-1.74 8.113-9.37.575-1.041.24-1.026.08-1.13-.624-9.505.096-1.369.368-1.398 1.899-5.903 1.308-3.695 1.547-3.223 1.242-2.135.886-1.182 2.508-3.109.769-1.352 1.57-3.49M285.075 358.722l-.128.524-.199.435-.248.688-.486 1.983" clip-path="url(#pe1b41c18ec)" style="fill:none;stroke:#000"/><path d="m287.91 363.222-.79.03-.806-.18-1.055-.311-1.245-.41M324.002 363.326l.742-.2M324.002 363.326l3.768 3.186M322.317 364.345l.742-.573.456-.268.487-.178M301.031 359.16l-2.437.21-1.022.163-.775.282-1.037.461-2.731 1.25-4.304 1.517-.814.179M285.075 358.722l.967.134.583.2.67.306.64.342.69.345.128.101.032.108-.06.119-.323.405-.296.628-.14.718-.055 1.094M318.687 363.576l-3.047.299M319.522 362.455l-.375.056-.131.09-.1.19-.23.785M319.332 365.569l-.192-.413-.324-.56-.092-.625-.037-.395M301.827 363.597l-.796-4.437M315.64 363.875l-1.676.228M319.873 372.083l-1.908-2.934-1.605-2.833-.368-.964-.352-1.477M313.358 357.911l.254 3.306.352 2.886M317.56 373.68l-1.552-3.182-.869-2.22-1.175-4.175M320.068 365.48l.78-.154.622-.327.847-.654M325.175 370.19l-.758-1.837-.799-1.666-1.301-2.342M303.853 358.903l.299.66.559.721.846.759 1.015.692.451.259.518.281.54.327 1.197.538 2.522.025M320.068 365.48l-.736.089M320.155 362.456l-.008 1.524-.079 1.5M322.053 370.882l-.351-1.085-.407-.848-1.963-3.38M262.335 366.762l-.982.845M261.353 367.607l2.714 1.47M259.101 369.29l1.35-1.011.902-.672M313.454 350.14l-1.046-1.451-.096-.327.016-.439.774-3.857M319.21 356.037l.376-.342.24-.342.231-.796.288-.595.638-.684 1.302-1.004 1.725-1.16 2.827-1.748.247-.171.12-.313-.112-.26-.264-.112-.487-.022-.639.067-2.483.357-1.19.26-.974.298-1.15.193M313.454 350.14l-.13.667M319.937 311.426l.256 1.815.415 1.964.56 2.276.239 1.472.335.937.527.937 1.581 1.964.304.61.087.759-.103.818-1.086 3.213-.872 1.654-3.657 6.486-1.07 2.38-1.996 5.37-2.003 6.058M330.964 352.914l2.323-1.054 3.178-1.323 4.137-1.52 2.219-.83 1.13-.554.946-.726 1.127-.88 1.94-1.202 1.218-.65.83-.209.927-.033.825.118 4.009.803 1.612.491 1.102.625.91.684.623.714.716.875.634.573.4.472.19.556.037.292M358.606 355.134l.261-1.283.304-.837.343-.703.767-1.034.862-.691.854-.45M330.508 360.813l2.684-.983.228-.193.06-.29-.096-.328-2.42-6.105" clip-path="url(#pe1b41c18ec)" style="fill:none;stroke:#000"/><path d="m328.065 354.463 1.319-.784 1.58-.765M313.006 353.192l.319-2.385M313.006 353.192l-.99.822M313.006 353.192l1.071-.505M303.632 358.915l-.582-2.908-.04-.914.175-.729.456-.573 2.906-2.127.719-.313.798-.066.82.263.816.245.975.57 1.342 1.65M307.09 358.536l2.755-2.633 2.172-1.89M328.065 354.463l2.443 6.35M320.177 361.247l.506-.009.556-.113.655-.283.447-.38 3.338-4.001.678-.677 1.708-1.32M368.138 351.55l.321.445.314.465.377.329.369.2.715.43.387.383.51.562.531.59.415.789M319.21 356.037l-3.09 1.227M319.21 356.037l.268 5.162M285.075 358.722l-.048-.584.088-.61M316.12 357.264l-.805.387-.719.149-1.238.111M307.09 358.536l-3.237.367M303.853 358.903l-.22.012M303.632 358.915l-.26.025M301.031 359.16l2.34-.22M324.744 363.125l3.378-1.286 2.386-1.026M320.177 361.247l-.022 1.209M320.177 361.247l-.7-.048M259.101 369.29l2.906 1.603M251.778 372.48l.896.18.75-.06.974-.334 1.588-.852 3.115-2.124M322.053 370.882l-2.18 1.2M319.873 372.083l-2.313 1.597M233.813 426.036l-.724.295-.417.136-.424.023-.423-.194-1.293-1.301-2.827-2.626-1.757-1.8-.686-.9-.503-1.227-.28-.832-.032-.618.08-.438.272-.402.351-.141h.415l.639.111.415-.067.583-.26 2.212-1.227.647-.171.958-.03.455-.044.511-.201.439-.38.623-.803 1.158-2.41.048-.371-.025-.387-.279-1.227-.096-.484.016-.505.256-1.302.064-.796-.112-2.632.024-1.228.439-2.825.08-.729-.096-.662-.495-1.636-.168-.662v-.729l.064-1.42v-.588l-.167-.58-.703-1.317-.224-.725-.012-.531.148-.491.32-.346.45-.205.723-.074.567-.104.566-.19.504-.212.551-.245.44-.074.558-.008.775.015.902.134 1.39.312.415-.022.359-.23.4-.55.366-.73.032-.424-.319-1.137-.296-.938.072-.758.391-.7.998-.97 1.83-1.499.934-.617 1.077-.424.56-.32.439-.49 1.452-2.05 2.355-3.367M415.325 394.904l-.508-.04-.75-.068-.763-.152-.611-.286-1.753-1.186-1.101-.774-.664-.305-.63-.074-.75.111-.951.053-1.03-.187-1.086-.43-1.896-.875-1.92-.654-.66-.264-.722-.461-1.102-1.016-.962-1.011-.603-1.138-.343-1.086-.496-.858-.345-.32-.301-.23-.443-.202-.603-.149-.787-.223-.722-.345-.922-.551-1.018-.457-.543-.391-.414-.457-.465-.394-.715-.37-1.093-.511-1.896-1.088-.827-.53-.571-.532-.355-.587-.232-.822-.192-.826-.478-.881-.336-.904-.308-1-.315-.643-.519-.807-1.293-1.763-.99-1.469-.604-.762-.439-.461-.515-.357-.559-.138-.794.011-1.912.097-1.194-.026-1.21.112-1.864.318-.894.08-.525-.057-.478-.204-.567-.44-.455-.601-.945-.708-.357-.184-.33-.072-.407.002-.268.066-.795.312-1.343.572-.63.391-.73.684-.89.811-.647.46-.722.459-1.573.974-1.142.766-1.014.863-1.193 1.039-.56.627-.599.605-.403.296-.425.134-.413.028-.608-.067-.977-.216-.962-.271M358.606 355.134l-.305 1.498-.687 2.473-.589 1.882-.657 1.57-.785 1.603-2.605 4.986-1.233 1.766-1.006.974-.962.736-.38.272M317.56 373.68l-.758.524M614.97 624.383l.349-.598.894-1.082 1.05-1.178.388-.573.16-.517.055-.598-.61-1.318-.48-.723-.199-.595.008-.667.221-.94.341-.884.592-1.014.241-.47.148-.497.1-1.095.273-1.061.116-.86-.12-.676-.303-.795-.11-.701.058-.46.281-.414.745-.451.423-.42.408-.75-.085-1.567-.075-.74.207-.877 1.965-4.498.37-.558.614-.688.844-.81.619-.573 1.026-1.163.575-.65.59-.418M596.09 588.403l.752.12 1.046.141.687-.149.547-.196.707-.177.87-.088 1.046-.2 1.078-.305.609-.335.45-.397.275-.428.527-1.249.49-.993.531-.61.763-.583 1.058-.513 1.23-.134 2.423.148 2.176.157 1.166-.216.694-.372 2.38-1.881 1.852-1.324 1.693-1.115 1.337-.58 1.33-.803.958-.844.815-1.065.63-.396.887-.387 1.58-.207 3.442-.194 1.381-.015 1.047.082.91.193.774.424.67.543.368.96-.063.631-.288.573-.775.736-1.349.793-2.291 1.252-1.126.936-.687.84-.114.411.062.502.128.44.319.533.296.654.096.643-.088.372-.204.312-.595.576-.922.785-.615.691-.543.67-.4.72-.442.782-.488.858-.443.714-.167.582.024.541.056.542M314.077 352.687l-.752-1.88M314.077 352.687l2.043 4.577M133.594 611.311l.681.06 1.325-.103 1.278-.283.942-.416 1.006-.743 2.62-3.168.782-.625 1.006-.46 2.364-1.101 1.133-.892.99-1.368.799-2.29.415-1.383.559-.848 2.108-2.41 1.756-2.126 1.278-1.234 2.46-1.74 1.325-1.16 2.076-2.305 1.805-1.606 2.283-1.666 2.396-1.383 2.635-1.1 8.72-2.17 1.692-.284 1.597.164 4.663 1.62 1.693.016 1.772-.506 1.342-.848 2.954-3.732 1.326-1.07 1.517-.64 5.717-1.175M235.075 618.517l-.567.342-1.717.96-.926.297-.854.111-.91-.03-.448-.111-.295-.2-1.533-2.18-.934-.906-1.262-1.42-.287-.692-.136-.409-.24-.267-.431-.253-.575-.127-1.11.082-.766-.06-.839-.29-.862-.505-2.371-2.112-1.046-1.03-.248-.371-.267-.655-.14-.13-.22-.026-.235.06-.603.316-.363.04-.34-.07-.307-.186-1.11-1.353-1.47-1.956-1.133-1.45-.24-.453-.2-.49-.334-1.911-.432-2.521-.2-.677-.287-.505-.726-.774-.312-.483-.655-1.465-.319-.543-.886-.75-2.228-1.77-.511-.617-.248-.514-.104-.772-.08-.893-.255-.736-.303-.654-.04-.707.207-.817.68-1.064.534-.944.455-.826.503-.401.527-.149.83-.045.52-.074.423-.193.567-.543 1.277-1.51.4-.758.111-.661-.103-.885-.511-1.309-1.19-2.245-.807-1.056-.71-.588-.743-.305-.854-.06-1.677.068M160.937 271.47l-.32.658-.284 1.182-.111 1.175.063 1.692.384 1.912.162 1.6.057 1.61.16.939.431.81.28.62.084.759-.056.725-.288.75-.535 1.21-.387 1.547-.096 1.36.128 1.206.343 1.488.607.952.823.669 1.253.35 1.717.282 1.213.29 1.142.484 2.164 1.524.775.44 1.373.319.902.208.759.543 1.708 1.823 1.917 1.659M251.7 220.989l.078-.288-.027-.328-.201-.383-.348-.446-.445-.292-.667-.115-.826-.153-.543-.153-.58-.315-.595-.501-1.053-1.13-.687-.765-.606-1.034-.93-1.912-.5-.472-.462-.108-.615.082-1.126.335-1.513.334-1.749.298-1.996.16-.655-.1-.703-.353-.562-.499-.304-.569-.335-1.116-.428-1.413-.028-.715.12-1.037.168-1.603.094-1.06-.112-.629-.409-.657-.679-1.01-.555-.65-.475-.336-1.008-.414-1.583-.535-.853-.383-.59-.342-.46-.476-.409-.84-.491-.963-.558-.814-1.446-1.718-1.014-1.03-1.01-.523-1.264-.837-.47-.517-.348-.61-.094-.424-.052-.597.074-.632.28-.558.624-.558.779-.751.46-.574.51-1.096.096-.64-.02-.722-.32-.662-.51-.576-1.161-1.206-1.243-1.297-1.002-1.198-1.214-1.955-.826-1.183-.405-.972-.422-1.454-.804-2.995-.255-.863-.422-.735-.713-.778-.732-.86-.704-1.213-.79-1.472-.33-.525-.364-.472-2.054-2.02-.72-.818-.38-.718-.112-.621.26-.759 1.102-1.625.922-1.403.663-1.564 1.497-4.45 1.876-4.18.347-1.009.047-.946-.122-.793-.22-.91-.251-1.945.052-.996.239-.867.48-1.265.175-1.02-.183-.862-.448-.976-.637-.553-.65-.23-.737-.05-.804.003-.74-.04-.716-.178-1.153-.12-1.266.155-.779.036-.794-.149-.922-.463-.766-.728-1.398-1.36-1.06-1.115-.697-.511M154.876 169.248l.499-1.127 1.138-2.09.518-.991.302-1.232.355-1.48.202-.65.316-.422.355-.306.736-.322.88-.504.608-.677.175-.573.06-.915-.264-2.095-.479-2.06-.007-.989.247-.576.527-.51 1.276-.721.728-.633.627-.755.75-.387.95-.208 1.13-.019.975-.19.77-.312.711-.305.659-.182.658-.153.69-.145.524-.353.307-.45.571-1.22.372-.971.395-.83.565-.648.774-.594 1.324-.684.64-.367.94-.37.778-.199 1.405-.517 1.565-.718 1.437-.8 1.595-.993.783-.56.678-.676.635-.469.65-.205 1.083-.051 1.11-.005.57-.185.288-.343.222-.546.097-1.008-.003-2.519.139-.498.255-.365.576-.342.826-.632.707-.759.411-.286.51-.082.647.119.46.215.575.402.782.722.787.354 1.134.044 1.313-.134 1.038-.16M442.967 145.934l-.79-1.295-.144-.468.04-.469.543-.982.966-1.585.28-.528.79-1.049.312-.558.087-.468M491.938 110.046l-1.182.952-2.084 1.317-.958.506-1.605.529-.886.2-.87.35-1.055.491-1.053.536-1.837 1.048-1.637.841-1.805 1.228-2.794 1.681-1.174.684-.814.648-.791.58-.207.32.031.424.192.312.799.856.151.297.096.469-.008.856-.216.602-1.085 1.815-.647.983-1.142 1.167-1.286 1.347-.766.759-.208.35-.263.46-.32.373-.447.357-.567.223-1.006.268-2.874.721-2.74.915-1.74.357-.966.112-.95.037-1.285-.044-.87-.171-.592-.343-.527-.49-.503-.29-.503-.135-1.461-.022-1.23.037-.734.141-1.022.447-.695.483-.51.648-.185.584-.064.665.008 1.005" clip-path="url(#pe1b41c18ec)" style="fill:none;stroke:#000"/><path d="m319.937 311.426-.446-2.766.08-1.414.319-2.202.032-1.695-.527-3.66-.631-5.973.16-1.278.479-1.258.822-1.45.807-1.19 1.093-1.205.312-.558.08-.454-.416-2.216.464-3.593.375-.617.655-.417.83-.179 2.22-.014 3.401-.193.63.185.552.469 4.008 5.962.78 1.097.786 1.517.39.238.432.045.487-.216.391-.424.527-.945.44-1.926.335-.446.526-.238.88-.082 2.09-.049 2.169-.327 4.148-.428 3.553-1.137.487-.298 2.148-1.726 2.172-1.681.343-.431.83-2.142 2.548-4.385.351-.163 2.348-.659.57-.405.424-.759.61-1.488.156-.468.116-1.64.032-.941-.471-.57-.51-.639-1.805-3.162-1.334-1.383-1.645-1.941-1.261-1.034-.272-.588-.144-.684.168-1.101.28-.573.495-.654 5.573-4.352 1.197-1.19.671-.483.95-.499 3.394-1.28.731-.03 5.074.06.703-.096 1.597-.685 1.061-.58 2.18-.766 1.885-.215.575-.194 1.465-.695 1.074-.874.272-.387.339-.74.215-.815.312-1.596.24-.479.579-.595.686-.447 1.142-.46.99-.246.766-.074.903.14 1.246.053.79-.134.966-.35.647-.364.559-.171 1.972-.045.914-.431 1.178-2.035 1.162-1.521 1.796-1.77.875-.714.323-.462.747-1.357.59-.814 1.406-1.54.232-.428.096-1.06-.056-1.068.359-1.573.575-2.26.359-.842 1.046-.93 1.525-.476 4.384-2.414 2.076-.46.411-.473.052-.365-.064-.401-.639-2.812.12-.483.575-.93.088-.462-.016-1.383.255-1.421.647-.967.719-2.581.646-.938 1.398-1.814.702-1.417.064-.48-.08-.38-.263-.587-.064-.551.104-.528.335-.55.503-.387.6-.142.91.06 2.051.357 1.446-.075.814-.215.855-.55 1.181-1.065.75-.513 4.52-2.358 1.206-1.079.272-.536 1.237-3.674.296-.64.646-1.049.112-.409v-1.941l.471-1.8-.08-1.459.415-1.205.703-1.562 1.382-3.89.311-.633.75-1.138 2.06-2.187 1.055-.766 2.211-1.302.623-.573.407-.573.272-.944-.064-4.151.695-1.764.503-1.844.071-.849-.087-.565-.567-.9-2.196-2.418-1.47-2.217-.917-1.45-3.178-2.3-.24-.386-.152-.655-.167-1.272-.296-1.056M474.264 118.512l.53-.297 1.877-1.51 1.58-1.332.76-.64 1.397-.81 1.326-.663.91-.372 1.094-.312.846-.171 1.828-.335 1.063-.193.694-.187.974-.446 2.037-.967.758-.23M571.774 125.907l-.371-.368-.52-.29-.502-.171-.491-.049-.691-.06-.291-.14-.232-.224-.116-.279-.056-.338.072-.365.168-.35.407-.788.463-.982.048-.654-.12-.596-.255-.692-.44-1.413-.087-.7.04-.58.151-.513.12-.952-.128-.744-.047-.715.031-.446.12-.357.391-1.108.096-.73-.055-.699-.152-.915-.2-.692-.303-.908-.583-1.309" clip-path="url(#pe1b41c18ec)" style="fill:none;stroke:#000"/><path d="m565.758 143.97.072-.64.12-1.384.127-.43.207-.358.32-.328 1.062-.784 1.497-1.202 1.11-.83.547-.572.244-.33.147-.31.092-.36.016-.317-.028-.446-.052-.42-.268-1.172-.287-.815-.084-.424.024-.301.104-.242.208-.257.43-.431.907-1.068.432-.576.127-.275.04-.264-.012-.387-.152-.778-.38-1.205-.266-.677-.288-.48" clip-path="url(#pe1b41c18ec)" style="fill:none;stroke:#000"/><path d="m578.597 128.31-1.58-.149-1.67-.386-1.796-.752-.767-.402-1.01-.714M567.33 152.146l-.007-1.064-.12-.462-.176-.587-.12-.655-.143-.706-.144-.633-.176-.41-.28-.512-.43-1.31-.168-.751.024-.432.168-.654M474.264 118.512l-3.47 2.001M466.347 112.218l1.094-.46.726-.268.567-.172.687-.015 1.182.12 1.756.38.567.114.272.104.18.168.171.387.068.487.212.506.287.286.854.532.635.317.248.256.08.294-.025.41-.307.535-.363.45-.248.383-.22.54-.506.94M514.869 212.185l-.933.39-.61.395-.747.606-1.062.73-.943.736-.622.632-.647.9-.391.825-.192.61-.192.678-.559 1.026-.263.61-.12.572-.207.477-.575.617-1.214 1.198-1.844 1.116-1.03.386-1.358.268-.942.23-.839.365-1.133.64-.87.417-.791.215-1.198.224-1.022.35-1.405.75-1.174.737-.559.238-1.158.074-1.301.097-.6.194-.454.4-.36.611-.51 1.28-.655 1.018-.272.558-.048.439.136.64.335 1.071.687 1.651.758 1.332 1.142 1.689.216.565.072.744-.168.989-.399 1.458-.36.773-.63.477-.759.23-.798.052-.775-.26-.742-.424-.854-.93M308.825 251.402l-.897.487-1.13.56-.751.505-.626.526-1.274 1.194-.918.867-.59.836-.463.634-.258.437-.062.487.2.895.515 1.642.529 1.164.764 1.155.587.881.244.655.095.735.012 1.06.152.77.325.607.863 1.324.349.742.283 1.03.272.793.175.524v.469l-.08.379-.23.505-.078 2.02.022.655-.102.33-.276.306-.63.374-1.82 1.158-.75.625-.41.583-.428.934-.611 1.849-.687 2.417-.135 1.197.12 1.212.27 1.637-.143 2.707.08.618.208.64.583.996.958 1.175.894.76 1.118.69 1.381.707 1.094.521.934.26 1.014.298.863.543.719.885.494.915.823 2.239.184.684.47.766 1.063 1.197.343.626.351 1.078.296.476.51.327 1.35.417.774.468 1.287 1.473.893 1.398M324.744 363.125l.256-3.711M377.292 483.36l-.567-.32-.722-.527-.703-.331-1.226-.283-1.03-.044h-.918l-.59-.06-.655-.16-.757.058-.755.178-.295.065-.348.025-.397-.063-.399-.146-.777-.23-.724-.028-.703.112-1.457.524-.83.182-1.006-.06-.747-.356-.575-.413-.822-.208-1.348-.19-1.12-.152-1.021-.342-1.53-.305-4.208-.491-.63-.186-.568-.364-1.07-1.227-.806-.7-.95-.4-1.078-.187-1.51-.045-1.34-.118-.64-.231-.942-.506-.694-.334-.767-.164-2.45-.431-1.08-.328-3.241-1.286-.695-.476-1.133-1.175-2.316-2.513-.814-1.413-.208-.328M313.283 383.319l.003.95-.12.714-.654 1.986-.424 1.755-.087 1.012.04 1.234.128 2.536-.056.781-.2.647-2.403 4.834-1.023 2.633-.51 1.234-.48.848-1.58 2.172-.895 1.725-.719 1.845-.16 1.16.177 1.085.622 1.31.144.424.008.297-.543 1.993-.144 1.19-.087 2.015.16.67.606.922 1.421 1.606.144.32v.335l-.216.334-2.547 1.733-.335.402-.104.38.064.46 1.748 5.54.4 1.265.51.922 1.805 2.112.767.624 1.39.685 2.123 1.026 1.118.357 1.006.282.327.209.2.305.056.699-.24 2.164-.207.543-.527.558-.799.483-.758.327-1.374.12-.918.178-.702.356-1.813 1.302-.44.543-.278.729-.208 1.249.096.974.758 2.343 1.365 2.372 1.007 1.026 1.053.729.855.439 1.692.32 1.654.543.351.148.272.268.79.87.958.55 2.052.945.695.253.726.089 1.414-.164.439-.007.272.126.095.238.104 1.316.16.655.311.476 2.252 2.097 1.549.922.51.416" clip-path="url(#pe1b41c18ec)" style="fill:none;stroke:#000"/><path d="m316.64 583.11.726-.342.424-.505.319-.923.367-.439.551-.245 1.246-.26.95-.364 1.7-.491.592-.409.83-.439 1.717-.729.192-.267.83-1.978.535-.729 1.301-2.431.256-.09 1.134-.126.567-.193 1.27-.87.706-.684.627-.134 1.157.082.408-.23.439-.492 1.302-2.03.407-.327.614-.178.927.067.47-.09 1.478-.891.343-.469.95-2.141 3.634-1.049.543-.371.35-.417.265-.655-.04-.646-.32-.61-1.828-2.51-.024-.249.152-.371.447-.565.59-.997.336-1.1.08-1.651-.208-1.993.128-.431.335-.535.734-.908.384-.877.16-1.272-.144-.833-.311-.706-.743-1.316-.327-1.257-1.286-1.546-.894-2.35-1.629-2.55-1.701-1.793-1.206-.877-.55-.67-.192-.617.032-.69.191-.708 1.43-2.297.319-2.157.056-1.457.2-.625.966-1.643.088-.573-.224-.64-.495-.966-.703-2.29-.575-.744-1.182-.773-.958-.803-.407-.87-.136-1.837-.175-.275-.351-.171-.52-.074-1.341.088-.998-.103-1.078-.238-2.204-.84-.798-.424-.384-.365-.143-.476.032-.676.255-.67 1.397-2.535.016-.32-.127-.41-.71-1.516.087-.387.207-.223.983-.52.646-.61.543-.707.232-.543.271-.966.4-.758 1.134-1.689.311-.877.071-.558-.718-3.607-.87-2.163-.168-.826.255-3.436.256-.58.743-1.174-.032-.216-.16-.201-.264-.12-.415.053-.71.41-.591.2-.376.007-.367-.133-.28-.372-1.11-2.491-.854-2.246-1.03-1.919-.582-.833-1.757-1.629-.447-.72-.24-.663.016-2.9.46-1.424-.116-.93.574-.725.4-.2 1.445.096M235.075 618.517l.36-.252 2.155-1.986.423-.245.352-.007.287.104.615.497.64.343.742.052.926-.15 1.461-.557 1.653-1.264 1.054-.922.742-.38 1.03-.222 1.741-.06.311-.048.288-.104.743-.568 1.816-1.067.747-.591 1.142-1.28.463-.357.638-.245.895-.119 3.05-.067.799-.163.974-.268 3.162-1.502 1.644-.654 2.396-.461.846-.313.428-.26.267-.427.28-1.454.806-2.55.287-.453.503-.387 2.915-.952 1.445-.602.822-.26 1.749-.29 1.797-.268 2.267-.186 1.174-.245 2.116-.662 1.158-.283.79-.32 1.358-.795 1.086-.498.902-.49.551-.47.703-.58.686-.304 1.573-.41 1.55-.281.99-.008 1.293.17M118.994 341.495l.845 1.526 2.107 2.53 2.507 3.39 2.62 3.586 1.517 1.889 1.054.818 1.23.982.75.922.75.848.767.475 1.406.551 1.373.848 1.709 1.71M320.155 362.456h-.633M319.478 361.2l.028.545.016.71M501.236 568.797l.643-1.696M494.334 604.16l.004-.394-.268-1.956-.647-2.32-.719-1.784-.47-.736-.216-.41-.124-.408.012-.275.304-.38.75-.632.767-.61.449-.278.523-.09.838.103.737-.013.563-.2.882-.774.762-.64.767-.453.507-.42.3-.182.331-.07.6.036 2.366.201 1.893.063.81-.215.432-.465.267-.532.04-.758-.14-.907-.3-.915-.091-.617.128-.692.33-1.561.149-.852.111-.758-.056-.952-.231-1.033-.184-.736-.007-.833.303-2.112-.008-1.04-.32-.774-.766-.915-.918-.58-1.653-.565-.537-.137-.553-.344-.316-.403-.343-1.413-.096-1.685-.06-.947M500.039 568.012l.647.1.347.246.203.439M500.039 568.012l1.84-.911M497.08 561.94l.029.789-.033.65-.2.518-.694.561-.607.45-.395.635-.388 1.294-.063.903.275.447.575.338.903.045 1.64-.242.942-.2.975-.116" clip-path="url(#pe1b41c18ec)" style="fill:none;stroke:#000"/><path d="m449.377 546.489.513-.048 1.481-.212.883-.104.726.072.695.237 1.158.565.646.498.72.58.865.36 1.366.499 1.4.768.482.34.34.19.355.081.485-.03 1.018-.334 1.106-.446 2.06-.547 2.18-.513 1.058-.184 1.072-.054 1.73-.078 1.925-.156 1.605-.16 1.242-.316.998-.234 1.253-.234 1.194-.179 1.21-.011 1.134.007.862-.16.667-.193.39-.198.288-.259.272-.342.395-.688.343-.294.711-.327 1.11-.115 1.09.092 1.156.36 1.108.626.842.933 1.086 1.342.662.753.743.95 1.042 1.35.939 1.175.586.825.4.885.223.88.02 1.135-.292.691-.167.591.072 1.16.375 1.446v1.525l-.12.952M492.082 564.707l.144-.487.191-.398.296-.338.367-.318.583-.377.798-.246 1.086-.169.785-.175.749-.258M411.642 520.71l.4.798 1.226 1.622.435 1.03.327 1.308.032.996-.12 1.057-.55 2.736.032 1.398.023 2.097.065 1.435.263 1.262M423.227 539.131l-.018-.265-.136-.318-.675-1.36-.522-.34-.695-.152-.6-.044-.518.092-.575.22-.882.164-.967.07-.907.157-.713.213-.655.173-.48.013-.352-.167-.354-.353-.403-.785M410.086 541.998l1.565-1.093 1.022-.699.599-.573.231-.542.16-.974.112-1.668M423.227 539.131l-.062.1-.196.181-.379.372-.6.777-.606.768-.335.598-.24.941.148.989.432.889.456.895.406.739.639.738.658.62.903.48.982.41.507.14.95.168.974.253.663.204.365.197.256.243" clip-path="url(#pe1b41c18ec)" style="fill:none;stroke:#000"/><path d="m414.512 560.97.209-.154.382-.37.275-.47.268-.604.524-1.36.336-.57.67-.49 1.174-.73.79-.505.759-.654.551-.499.368-.185.39-.105 1.047-.104.51.06.783.234.312.019.31-.071.396-.152.607-.175 1.797-.29 1.804-.468.44-.283.301-.375.13-.346.008-.499-.148-1.144-.22-.573-.137-.274" clip-path="url(#pe1b41c18ec)" style="fill:none;stroke:#000"/><path d="m434.009 550.828-1.218-.607-.787-.357-.774-.408-.5-.13-.399.037-.339.142-.423.193-.421.135M494.334 604.16l-.008 1.026-.105 2.539-.075.851-.304.617-.806.881-.635.759M596.09 588.403l-.51-.08-3.905-.951-1.156-.002-1.841.532-.898.368-.62.116-.666-.027-.759-.237-1.341-.748-1.11-.32-.942.03-6.58 1.008-.662.423-1.557 1.287-2.076 1.51-.735.267-.726.007-1.007-.185-8.336-2.44-3.793-1.583-.59-.037-.791.2-.743.424-1.205.84-1.777 1.651-.878 1.179-.388.736-.474 1.256-1.35 2.573-1.976 2.327-.994 2.023-.791.825-1.789 2.245-.472.255-2.418.865-2.084.576-.547.32-6.483 6.249-3.626 2.424-5.749 3.383-1.788.676-1.022.265-1.294.174-1.138-.067-.499-.256-.3-.406-.123-.595.16-.698.499-.673.982-.788 1.23-.67 1.972-.711 2.727-1.281.535-.48.187-.572-.076-.385-.26-.234-.628-.121-2.297.234-5.7-.12-1.786.362-.695.409-1.182 1.09-.994.739-.946.49-2.967.536-1.812.229-1.68.507-2.23 1.184-.545.08-2.226-.132-.855-.087-.925-.664-.346-.522-.14-.525.1-.687.45-1.049.093-.498-.156-.387-.287-.353-.682-.17-.504-.027-1.657-.43-.539-.246M449.377 546.489l-.892.082-1.19.03-1.102-.052-1.15-.03-2.303-.532-1.665-.464-2.575-.707-1.445-.446-1.969-.58-.798-.285-.547-.12-.615-.082-2.16-.005-.938.11-1.09.001-.779-.099-1.237-.49-1.29-1.015-1.165-1.31-1.24-1.364M395.347 492.555l-.247-.131-.409-.352-.758-.505-.52-.506-.479-.744-.533-.62-.265-.488-.048-.453.096-.372.343-.878.088-.765-.044-.7-.211-.32-.447-.256-.743-.033-1.206-.004-1.074-.052-1.373.204-1.418.223-1.545.116-1.46-.078-.959-.164-1.138-.316-1.002-.39-.63-.294-.747-.532-1.326-.784" clip-path="url(#pe1b41c18ec)" style="fill:none;stroke:#000"/><path d="m376.015 480.263 2.172.896.638.209.288.267.104.306-.02.561.014.556-.046.32-.118.174-.208.034-.241-.032-.603-.115-.703-.078M449.377 546.489l.833.536.63.565.497.528.661 1.011.575 1.149.271.81.025.892.003.384.108.509.128.36.064.488-.08.416-.3.517-.55.83-.555.672M523.63 432.27l-.427.35-.573.464-.276.373-.15.493.062.469.202.712.217.348.116.396-.097.531-.198.443-.058.368.054.353.177.339.3.28.357.235.581.303.828.294 1.311.352.832.192.58-.005.665-.209.401-.245.33-.154.331-.055.263.092.264.158.843.992M472.024 446.2l.93-.249 1.817-.527.699-.328.65-.606.87-1.027.695-.622.645-.247.645-.105.407.095.527.432.4.771.746 1.473 1.002 1.744.738.762.859.591.707.249 1.177-.004 1.254-.16 1.417-.067 1.086-.104 1.533-.475 1.222-.373.69-.207.488-.272.231-.312.164-.406.195-.836.44-1.145.367-.86.232-.702.015-.688-.179-.759-.467-1.216-.492-.91-.171-.454.004-.26.108-.304.24-.384.39-.856.292-.736.862-1.13.643-.777.36-.878.076-.468-.084-.395-.196-.438-.607-.718-.232-.294-.243-.46-.136-.983-.251-1.334-.182-.731-.163-.556-.062-.569.123-.394.284-.279.403-.13.413.013.589.069 1.321.175 1.657-.116 1.322-.163.942-.12.333-.159.296-.177.231-.205.272-.234.518-.324.525-.123.536-.02 1.876.176 1.92.126 1.194.301 1.298.561 1.086.648 1.72.914 1.52.644 1.08.439 1.467.362.708.167.727.337.8.384.74.45.833.357.77.397.734.527.489.506.52.776" clip-path="url(#pe1b41c18ec)" style="fill:none;stroke:#000"/><path d="m520.086 351.997.302.162.367.185.69.333 1.061.562 1.008.827.527.52.463.473.587.395.902.487.867.412.397.251.373.458.351.637.783 1.46.595.868.754.71 1.254.915 1.66 1.005 1.047.535 1.744.51 1.617.238.655.137.411.16.24.197.111.298.049.49.012.796-.124 1.156-.244.8-.415 1.045-.615 1.227-.467.963-.111.606.135.689.28.453.728.599.9.68.436.443.361.677.571.905.226.482.427 1.149.722 1.774 1.27 2.376.742 1.443 1.102 1.978.687 1.022.786 1.18 1.246 2.413.3.71.175.543.016.599-.028.818-.335 2.885-.124 1.175-.14.781-.33.777-.184.553-.01.377.057.279.18.87.044.54-.064.925.032.603.148.505.307.729.954 1.949.415.758.372.74.2.807.307 1.532.2 1.175-.077.507-.289.477-.335.283-.653.347-2.371 1.458-1.621 1.065-.685.32-.788.097-.652.015-.393.068-.397.223-.355.338-.743.833-.637.671-.524.534-.188.579-.096.477-.096.881-.335.77-.38 1.183-.139.829-.283 1.205-.586 1.905-.303.896-.287.417-.374.467-.479.345-.546.19-.763.12-.444.14-.958.48-.606.366-.605.493-.4.443-.493.658-.423.357-.615.156-.778.152-.647.264-.375.328-.304.39-.263.439-.392.357-.646.249-.79-.16-1.262-.309-.445-.191-.422-.337-.175-.213M415.325 394.904l-.389.878-.394.762-.352.804-.307.613-.36.461-.75.747-.751.704-.495.613-.152.398-.107.51-.08.4-.144.354-.335.361-.954.632-1.23.762-.79.529-.627.482-.78.815-1.041 1.006-.687.62-.476.317-.605.353-.348.292-.14.333-.067.392.031 1.264" clip-path="url(#pe1b41c18ec)" style="fill:none;stroke:#000"/><path d="m472.024 446.2-.705.008-1.479-.097-1.25-.104-.726-.238-.807-.462-.914-.724-.598-.706-.907-1.164-1.653-1.967-.483-.716-.565-.616-.552-.531-.999-.827-1.281-1.11-.79-.922-.696-.945-.522-1.056-.614-1.205-.634-.961-.365-.348-.388-.216-.599-.208-1.462-.29-.841-.3-.377-.243-.335-.364-.344-.568-.47-1.135-.594-1.049-.986-1.857-.94-1.233-1.096-.792-.974-.54-.51-.361-.335-.346-.306-.465-.333-.694-.38-.732-.855-.937-.264-.435-.135-.562.152-1.025.366-1.972.172-.99.176-.605.104-.465.007-.446-.255-.54-.527-.501-.887-.532-1.061-.368-1.992-.61-1.35-.565-1.174-.629-1.126-.728-.742-.59-1.068-.993-1.535-1.56-.66-.439-.55-.2-.583.04-.615.287-.878.528-.61.164-.612-.041-.63-.316-1.138-.815-.687-.49-.583-.246-.714-.197-.907-.323-.714-.391-.503-.628-.667-1.61-.447-1.927-.316-1.234-.371-.945-.427-.561-.571-.376-.723-.178-1.253-.123-1.736-.138M457.348 465.331l.467-.788.455-1.108.283-.454.356-.335.567-.23.683-.134 1.804-.327.862-.376.555-.695.18-.476.124-.565-.052-.517-.591-1.067-.195-.428-.066-.476.1-.386.229-.303.37-.15.81-.033.916-.188.818-.412.595-.398.606-.324.637-.226.953-.212.627-.157.567-.204.65-.205.747-.096.444-.29.347-.428.223-.483.204-.647-.004-.948-.116-.774-.312-.87-.287-.483-.1-.38-.007-.553.12-.896.107-1.108M513.062 347.727l1.637-.113 3.03.591 2.251.759 2.332 1.1 2.32 1.03 1.385.475 1.297.211M578.881 348.362l-2.033-2.15-1.477-1.443-1.121-.874-1.37-.598-1.769-.286-1.629.066-1.9.636-2.48 1.157-1.94 1.121-1.327 1.168-2.294 2.344-.89.77-1.062.632-1.365.32-1.63-.104-3.361-.64-3.05-.223-3.553.03-3.146.283-3.625.617-3.127.394-4.024.034-2.34.197-1.054-.033" clip-path="url(#pe1b41c18ec)" style="fill:none;stroke:#000"/><path d="m520.086 351.997.006-.212.072-.311.28-.36.32-.097.606.037 1.056.212 1.13.309 1.193.466.63.156 1.041.068.56-.088.201-.143.133-.254M494.334 604.16l1.294-.031 3.396-.133M596.09 588.403l-1.156-1.055-.866-.728-.385-.48-.324-.619-.46-.407-.62-.222-.829-.111-.66-.08M395.347 492.555l.189.1.443.148.477.14.397.208.76.606.468.866.387.933.545.647 1.096 1.078 1.086.81.527.537.263.353.092.39-.02.58-.032.736.024.38.224.408.375.344 1.561.991.923.499.646.572.36.416.555.93.586 1.111.274.515.054.253-.033.266-.129.212-.37.372-.552.45-.13.268-.088.427.076.55.42.86.538.788.79 1.022.516.409.719.353 1.173.42.675.413.363.383.16.487.071.439-.035.543-.22.766-.383.844-.176.866.08.874.352 1.156.218.435" clip-path="url(#pe1b41c18ec)" style="fill:none;stroke:#000"/><path d="m402.412 517.794.288.862.28.982.24.81.444.934.457.658 1.054 1.056.879.52.846.16 1.054-.182 1.385-.532.799-.498.687-.602.427-.513.39-.74M516.3 375.97l-.132-.982.032-1.492.215-1.193.276-.707.415-.584.723-.594.798-.525.484-.46.21-.566-.015-.673-.152-.904v-.826l.092-1.13-.112-.729-.311-.677-.295-.677-.184-.721.016-.833.43-1.257.76-2 .399-1.265.183-1.673.096-1.748-.142-1.757M436.563 311.26l2.731-1.968 2.288-1.64.802-.491.793-.337.98-.173.903-.04.997.166.919.295 1.062.606.906.717.773.837 2.267 2.75 1.471 1.345 1.378.889 1.09.513 1.593.454 4.084.631 2.726.387 2.905.426 1.186-.004 1.675-.466 1.417-.841 1.293-1.224.703-1.264.615-1.83.367-1.14.48-.914" clip-path="url(#pe1b41c18ec)" style="fill:none;stroke:#000"/><path d="m467.816 275.813.383 2.291-.255 1.518-.351.952-.543 1.368.447 2.261-1.15 3.035-1.406 2.41-.383.833.032.803.607-.09.383-.832.927-.476 1.245-.863.958-.03 1.278.477.383.862-.35 1.755.159 1.399.063 1.874-.223 2.737.542 1.458 2.013 2.946 1.405 2.767.987 3.676M513.062 347.727l.148.902.047.7-.063 1.085-.014.399-.073.26-.177.242-.307.293-.483.454M578.881 348.362l.379.401.634 1.13.328.953.12 1.053-.076 1.208-.555 3.473-.355 2.462-.064 2.156.288 1.997.682 2.042 1.034 2.046 1.058 1.528 1.557 1.662 1.988 1.484 2.108 1.276 7.079 4.108 4.184 2.507 2.383 1.2 2.12.466 1.713.16 1.501-.086 1.537-.256 2.24-.782 8.408-4.19 2.28-1.064 1.537-.36 1.489-.06 1.469.286 1.054.35.94.53.799.64.722 1.002.437 1.119.863 3.254.527 1.543.838 1.77 1.462 2.264 1.086 1.522.51.734M628.33 411.303l1.226-.338.695-.331.679-.677.347-.602.235-.755.328-1.841.176-1.272.31-1.22.48-1.658.34-1.633-.1-.732-.316-.39-.543-.51-.794-.606-.623-.539-.838-.389-.664-.208-.474-.275-.318-.405-.17-.475-.05-.384.106-.288.228-.264.315-.09.484.115.568.29.667.294.687-.026.517-.16 1.154-.661.814-.592.655-.814.538-.904.444-.624.036-.324-.008-.383-.139-.45-.097-.381-.068-.407.027-.504M368.138 351.55l1.046.743.547.26.702.164.715.03.639-.16.499-.235.5-.175.69-.132.846-.208.807-.206.742-.086.91.074.879.141.562.242M358.606 355.134l.816-.079.875-.111.702-.033.647.1.878.294.719.424.695.576.634.583.404.577.205.753.05.392.075.267.19.263.183.17.37.227M611.047 300.016l.903 1.48.399.945.223.707-.143.915-.783 1.049-1.046.87-1.337.933-1.601.993-1.892.945-.799.595-.447.439-.332.587-.22.575-.155.905-.128.792-.152.365-.265.178-.273.112-.464.078-.477-.084-.774-.375-.545-.314-.67-.265-.919.019-.822.276-.608.364-.562.554-1.67 2.07-.734.807-.3.384-.13.39-.137.54-.16 1.952-.247 1.313-.307 1.272-.388.87-.766 1.03-.934.804-.61.632-.883 1.257-1.418 2.25-.666.721-.795.562-.663.595-.455.606-.343.699-.096.625.124.621.383.773.365 1.244.202.78.12 1.167-.044.878-.268.833-.63.706-.711.588-2.559 2.13-.767.7-.373.474-.256.467-.578 1.201-.465.954-.24.554-.475.768-.403.491M414.512 560.97l-.466.96-.16.602-.17.956-.113.769-.051.531-.06 1.068M395.347 492.555l.805-.012 1.348.087.773.01.38.052.378.178.411.385.53.756.412.638.276.242.44.087.476-.087.86-.35.783-.394.32-.264.091-.299-.026-.367-.201-.375-.256-.324M308.825 251.402l2.329-1.266 1.17-.777 1.154-.636 1.214-.64.866-.58 1.493-1.052.918-1.079.483-.781.344-1.127.353-.736.527-.614.593-.677.303-.528.06-.368-.043-.41-.352-.546-.858-.565-.575-.435-.224-.424-.06-.502.16-.607.44-.837 1.033-1.454.918-1.822.44-.722.383-.435 1.026-.599 1.473-.773 1.873-.826 1.936-1.012.866-.29.743-.126 1.413.018 1.058.339 1.074.71.878.439 1.046.205 1.226-.179 1.042-.346.42-.368.183-.487.088-1.373.083-.662.168-.54.264-.365 1.303-.68.44-.349.493-.552.297-.424.228-.282.221-.168.874-.37 1.905-.831 1.616-.68.67-.334.422-.374.254-.44.255-.473.312-.253.653-.33 1.351-.35.986-.156 1.322-.25M154.876 169.248l-.293.411-.436.242-.573.208-.397.264-.245.3-.268.506-.191.889-.56 1.13-.231.64.032.595.327.93 1.082 1.603 1.098 1.384 1.23 1.224.451.528.495.955.124.677-.033.621-.055 1.366-.108 1.945-.208.617-.61.584-.515.194-.48-.03-.878-.1-.806.152-.635.324-.308.438-.215.707-.3 1.116.074 1.256.174 1.318v.565l-.136.406-.39.543-.784.606-.383.335-.45.8-.528 1.621-.252.759.005 1.171.223 1.213.076.603-.056.308-.204.42-.602.752-.332.468-.191.648-.2 1.175-.315 1.227-.387.71-.203.271-.223.31-.016.134.05.146.08.125.421.229 1.196.579.836.526.375.17.316.01.557-.203.31-.195.195-.09.176.021.103.12.003.18-.117.257-.39.647-.26.489-.475.73-1.445 1.812-.32.439-.08.346.028.584.124.52.34.64.395.406.758.423 1.222.335.742.167.673.205.467.156.421.09.404.018.659-.074.662-.03.747.056.574.026.56.085.462.135.524.157.485.177M145.286 266.02l.401 1.035.228.359.353.333.74.373.83.454.38.333.16.287.053.335.024.19.052.114.157.15.188.13.419.237.97.48.558.487.392.353.331.283.455.123.631-.134.962-.398.76-.205.607.006.577.102.715.372.423.16.555.018 1.166-.172 1.406-.151 1.158-.205M308.825 251.402l-.413-.494-.63-.673-.74-.716-.34-.461-.103-.42-.032-.502-.036-.971.24-1.414.403-1.037.491-1.29.682-1.626.116-.42.02-.454-.215-.599-.532-1.064-.614-.97-.978-1.165-1.39-.795-2.063-.748-2.643-.814-2.252-.967-1.502-.506-1.42-.279-.658-.033-.868-.023-.892.035-.653.144-.361.132-.565.383-.521.173-.407-.002-.545-.2-.512-.334-.48-.35-.545-.572-.427-.428-.348-.625-.553-1.088-1.218-1.797-.392-.267-.266-.069-.332.023-.367-.013-.285-.118-.482-.503-.349-.35-.553-.339-.391-.321-.466-.55-.466-.417-.527-.235-.432.004-.335.115-.523.398-.806.737-.907.55-.922.201-1.77.208-1.484-.01-.599-.144-.293-.322-.06-.405.092-.954.092-.72.138-.437.117-.437-.01-.377-.104-.512-.245-.569-.423-.454-.79-.561-1.015-.422-.972-.259-1.86-.407-1.613-.45-.932-.32-.586-.426-.91-.532-1.073-.234-1.154.004-3.546.88-.858.219-1.25.236-1.03.1-.83.157-.555.24-.503.236-.794.383M436.563 311.26l.4-.86 3.066-3.54.607-1.414.335-2.053.735-1.725-.176-1.041-.59-.893-2.045-1.458-4.008-3.273-.575-1.13-.08-1.577.463-1.042 1.134-1.561.575-2.262.143-1.725 1.198-3.57 1.262-2.024.67-1.16.128-1.458.735-1.07 2.108-2.054.687-.61 1.261-2.172.256-1.8.623-.892.878-2.5-.096-1.83-.447-1.621-.83-.997 1.117-.654-.639-1.399-1.037-.773" clip-path="url(#pe1b41c18ec)" style="fill:none;stroke:#000"/></g><g id="PatchCollection_1"><path d="m309.133 383.856-2.172 4.507 2.803 1.257 2.268-4.418zM353.043 367.833l-3.321-1.37 2.412-5.072 3.32 1.37zM308.874 350.465l-.3.86 2.355.706.263-.982z" clip-path="url(#pe1b41c18ec)" style="fill:#90ee90;fill-opacity:.8"/></g><g id="PatchCollection_2"><path d="m311.371 356.085.523.025-.11 1.188-.513-.026zM312.945 356.481l.436-.062.066.4.255-.04.127.756-.823.152-.091-.75.103-.067zM313.127 355.72l.062.39.478-.066-.062-.39zM312.713 354.488l.109.55.62-.106-.052-.263-.239.042-.057-.288zM312.532 353.962l.142.443.363-.102-.141-.442zM313.494 353.675l.474-.26.306.495-.516.25zM313.71 354.651l.712-.329.332.687-.733.305zM313.953 355.515l.263.466.906-.358-.3-.52zM314.653 355.902l.133.248.477-.222-.132-.248zM314.195 356.756l.422.972.7-.23-.41-1.022zM315.205 356.614l.343.71.259-.108-.344-.71zM315.828 356.45l.33.66.628-.272-.33-.66zM316.557 356.141l.242.53.439-.174-.242-.53zM316.732 354.939l.758 1.476.556-.248-.764-1.486-.037.029zM317.732 355.424l.42.767.593-.282-.418-.766zM318.573 355.299l.558-.265.316.555-.568.29zM315.233 354.789l.163.314.511-.23-.163-.315zM315.814 354.562l.091.166.478-.227-.091-.167zM315.216 354.179l.13.317.633-.226-.18-.438-.275.098.05.121zM314.635 353.057l.19.394.765-.32-.19-.394zM314.076 352.424l.211.453.835-.338-.212-.454zM313.642 351.074l.21.471 1.144-.441-.253-.471zM313.63 349.899l.304.633.81-.337-.305-.634zM311.818 349.873l-.05.576.596.045-.025.296.437.033.054-.626-.487-.036.021-.248zM313.568 358.283l.077.822.5-.041-.077-.822zM314.375 358.202l.146.78.43-.071-.145-.779zM315.16 358.016l.07.178-.16.042.212.541.59-.186-.306-.717zM315.659 357.903l.312.66.77-.315-.312-.66zM316.52 357.428l.151.312.391-.164-.15-.312zM317.053 357.219l.171.392.581-.221-.171-.391zM317.225 357.668l.085.28.582-.154-.085-.28zM317.337 358.07l.053.206.55-.122-.052-.207zM317.412 358.473l.048.245.3-.05.063.327.296-.05-.11-.572zM317.397 359.307l.063.298.612-.114-.064-.297zM317.031 359.73l.073.406.313-.05.034.191.733-.114-.107-.596zM318.33 360.823l.076.452-.77.113-.076-.453zM317.84 361.847l.032.164-.34.057.088.45.898-.151-.12-.614zM317.366 363.116l.048.425 1.222-.17-.073-.45zM316.848 362.925l.038.503.365-.024-.038-.503zM316.327 362.817l.06.651.42-.034-.061-.651zM315.662 363.218l.067.447.524-.068-.067-.447zM315.277 363.434l.016.25.298-.018-.017-.25zM314.024 363.359l.062.448.382-.045-.062-.45zM314.035 362.618l.05.299.466-.067-.049-.299zM313.865 361.935l.078.45.684-.102-.077-.45zM313.846 361.132l.542-.073.104.67-.542.073zM313.937 359.547l.07.353.846-.144-.07-.353zM313.658 360.18l.04.257.16-.021.088.554 1.54-.21-.099-.632-1.296.177-.029-.18zM314.564 359.08l.057.21.553-.132-.056-.208zM315.778 358.94l.021.397.272-.012-.021-.397zM313.703 359.215l.02.188.403-.04-.02-.188zM312.739 358.301l.064.658.481-.04-.064-.659zM312.281 358.342l.048.418.397-.038-.047-.42zM311.996 358.788l-.069.348.554.04.026-.36zM311.903 359.179l-.083.455.298.047.083-.455zM312.69 359.547l.04.265.486-.064-.04-.265zM312.651 360.17l.043.37.718-.073-.043-.37zM313.417 360.744l-.61.043.043.516.61-.043zM313.036 361.638l.38-.054.074.455-.38.054zM313.031 362.208l.429-.053.057.402-.429.053zM319.16 353.926l.465.527.37-.282-.465-.528zM319.837 353.837l.208.238.223-.208-.2-.209zM320.187 353.419l.193.202.394-.326-.193-.202zM321.156 352.505l.3-.29.28.252-.3.29zM321.78 351.851l.349.346.302-.263-.349-.346zM322.981 351.133l.239.286.416-.303-.238-.285zM323.766 350.708l.173.216.655-.456-.174-.216zM324.526 350.214l.163.234.462-.28-.163-.232zM325.224 349.622l.265.347.474-.315-.265-.346zM319.055 349.207l.025.38.587-.035-.026-.38zM320.135 348.207l.512.099-.122.55-.512-.099zM311.954 349.17l-.027.306.446.034.027-.307zM309.918 347.61l-.054.547.89.076.055-.547zM311.383 346.526l-.078.562.936.112.077-.562zM311.31 347.22l-.043.357.566.06.043-.356zM311.23 345.606l-.022.25.361.03-.026.271.398.033.05-.522zM313.191 344.271l-.091.753.97.103.092-.754zM312.964 345.262l-.038.365.762.068.038-.365zM314.153 345.547l-.06.417.533.066.06-.415zM312.792 345.858l-.09.66.612.072.09-.66zM312.835 346.617l-.09.54.699.102.092-.54zM313.543 347.413l-.11.446.385.083.11-.447zM312.665 348.04l-.136.608 1.149.223.069-.31-.473-.09.067-.299zM313.09 348.964l-.1.393.37.082.1-.392zM311.106 347.1l-.05.276.173.028.05-.275zM308.329 356.13l.46.42.583-.556-.408-.372-.2.113-.677-.618-.305.291.667.608zM308.952 355.335l.556.476.241-.244-.556-.477zM309.1 354.692l.372-.379.855.727-.494.505-.38-.323.123-.125zM309.589 354.029l.434-.437.958.826-.166.168-.21-.182-.27.27zM310.413 353.638l.644.62.44-.396-.644-.62zM309.913 353.289l.328.292.437-.426-.329-.292zM308.196 354.116l.217-.199.607.578-.218.199zM307.036 354.817l.644.62.791-.712-.644-.621zM305.61 352.725l.68.555.282-.3-.678-.555zM305.052 355.132l.836-1.11.569.372-.835 1.11zM308.396 356.884l.306-.304-.747-.652-.307.304zM307.832 356.91l.246.236.24-.22-.246-.235z" clip-path="url(#pe1b41c18ec)" style="fill:#a9a9a9;fill-opacity:.8"/><path d="m308.025 357.165-.243.236-.58-.52.502-.488.278.248-.26.252zM306.936 357.217l.531.487.254-.241-.532-.486zM307.338 357.823l-.514.466-.596-.57.514-.466zM306.723 358.333l-.581.06-.112-.767.63.628zM305.346 357.743l.073.812.58-.045-.074-.812zM304.017 357.895l.01.603.919-.012-.009-.617-.328.004-.001-.136-.377.005.002.15zM303.405 355.88l-.015.368.606.02.015-.368zM303.332 355.11l-.031.72.757.028.025-.56-.354-.014.007-.158zM302.089 357.71l.03.306-.161.014.05.49.754-.066-.081-.796zM301.998 356.548l.677-.085.094.65-.677.085zM300.679 356.94l.023.458.903-.04-.024-.457zM300.723 358.026l.08.74.591-.056-.08-.74zM300.194 358.483l.019.321.4-.02-.019-.32zM299.493 358.123l.019.658.412-.01-.018-.658zM298.732 357.955l.042.93.382-.015-.042-.93zM297.916 358.757l.054.25.718-.138-.055-.25zM297.752 358.481l.056.238.764-.156-.056-.238zM297.74 358.233l.043.167.42-.094-.042-.166zM297.149 358.821l.098.314.371-.101-.098-.314zM299.53 359.944l-.007.367.382.006.006-.367zM301.521 354.669l-.037.384.987.083.038-.384zM304.878 351.81l.322.434.447-.287-.322-.434zM305.401 351.081l.384.638.477-.25-.384-.637zM308.361 351.681l-.165.393.306.111.166-.391zM307.767 351.524l-.08.331.286.06.061-.252.22.046.018-.079zM309.833 357.101l.005.138.106.068.137-.059.008-.117-.104-.089zM310.73 358.424l.095.88.326-.031-.041-.382.381-.035-.054-.498zM310.32 358.456l.02.312.26-.014-.019-.312zM309.801 358.48l.035.484.37-.023-.035-.484zM309.805 359.837l.008.718.415-.004-.008-.718zM309.375 358.72l.05 1.082.335-.013-.049-1.082zM308.803 358.747l.477-.03.056.744-.478.03zM307.868 358.718l.09.769.626-.064-.09-.769zM307.258 358.734l.052.622.571-.04-.052-.623zM307.946 359.593l.008.158.559-.024-.008-.157zM306.42 358.906l.626-.083.072.47-.626.082zM306.447 359.48v.22l.652.384.057-.681zM304.43 359.095l.078.735.6-.054-.078-.736zM305.102 359.029l.036.325.353-.034-.037-.325zM304.817 359.941l.037.258.562-.07-.037-.258zM305.776 360.28l-.4.49.386.274.4-.49zM306.287 360.5l-.388.6.41.229.387-.6zM306.835 360.722l-.426.581.695.443.426-.581zM307.62 361.537l-.289.43.681.397.289-.43zM308.464 361.998l-.268.466.36.179.266-.466zM309.864 360.698l.349-.002.004.56-.349.002zM308.933 359.587l.017.175.376-.034-.018-.175zM308.97 359.843l.003.197.357-.004-.003-.197zM310.386 363.834l.298.358.12-.087.167.2.32-.231-.465-.558zM310.792 364.783l.2.38.679-.312-.201-.38zM311.078 365.195l.165.352.536-.219-.165-.351zM311.333 365.591l.153.5.487-.13-.152-.5zM311.555 366.29l.436-.08.114.549-.435.079zM312.067 367.448l.469-.207.264.516-.469.208zM312.3 368.13l.145.287.534-.233-.144-.287zM313.77 370.762l.606-.264.195.39-.606.262zM314.15 371.207l.506-.246.232.413-.506.246zM313.735 365.996l.469-.132.247.766-.574.16-.128-.395.105-.03zM314.35 368.751l.414-.139.232.602-.414.139zM314.194 364.334l.632-.128.09.385-.356.073.071.303-.276.056zM314.654 365.703l.416-.115.094.293-.416.116zM315.184 365.595l.432-.206.245.448-.433.206zM315.652 366.047l.258-.117.312.596-.258.117zM314.814 366.313l.518-.117.139.533-.519.117zM314.964 367.056l.5-.14.183.571-.5.14zM315.575 366.824l.281-.075.064.208.105-.028.084.274-.386.102zM316.1 366.796l.252-.116.267.5-.252.116zM315.235 367.797l.43-.097.114.44-.43.098zM315.72 367.747l.09.306.372-.096-.09-.305zM315.46 368.602l.224.557.82-.287-.307-.763-.631.22.083.206zM316.312 368.13l.329-.145.366.717-.328.145zM315.735 369.238l.669-.217.144.387-.668.217zM315.87 369.716l.09.222.593-.21-.091-.223zM316.095 369.988l.175.422.759-.272-.118-.283-.175.063-.058-.14zM316.398 370.593l.4-.123.173.493-.4.123zM316.544 371.217l.107.24.57-.22-.108-.24zM317.584 370.425l.719-.334.306.569-.719.335zM317.418 369.623l.268.573.56-.227-.267-.574zM317.409 371.277l.16.38.37-.134-.161-.38zM318.445 371.842l.312-.222.481.588-.312.221zM317.691 372.143l.246.308.35-.24-.246-.31zM317.851 372.62l.214.31.717-.43-.215-.31zM316.294 372.69l.444-.21.394.722-.443.21zM315.946 372.068l.521-.21.212.46-.521.208zM315.75 371.301l.083.215.166-.056.109.276.217-.074-.192-.49zM315.431 370.813l.417-.169.203.436-.417.168zM319.096 362.788l.712-.004.005.816.26-.001.001.335h-.191l.004.698-.765.004-.004-.698-.26.002-.002-.369.245-.001zM317.828 364.016l.647-.072.105.823-.647.071zM316.454 364.076l.471-.082.12.594-.471.083zM315.867 364.114l.438-.096.146.577-.439.096zM316.84 364.961l.387-.109.143.445-.387.108zM317.37 365.355l.101.262.954-.317-.1-.263zM317.565 365.738l.156.36 1.27-.477-.155-.36zM318.439 365.011l.12.267.312-.123-.12-.265zM318.26 366.005l.113.22.743-.335-.115-.22zM318.686 366.292l.244.411.573-.295-.244-.41zM319.116 366.727l.217.349.416-.225-.217-.349zM318.185 367.087l.159.27.595-.304-.159-.27zM316.223 365.685l.084.221.58-.19-.083-.222zM316.37 365.987l.22.432.577-.256-.22-.431zM316.677 366.545l.314-.148.228.42-.314.148zM317.032 367.118l.393-.203.186.314-.393.202zM317.36 367.678l.206.37.534-.259-.207-.37zM317.729 368.122l.647-.293.244.467-.647.293zM317.986 368.831l.21.511 1.278-.455-.087-.212-.288.102-.122-.298zM319.932 368.1l.183.338.397-.185-.183-.34zM319.893 368.74l.382.828.796-.402-.404-.7zM318.455 369.468l.157.45.597-.182-.157-.45zM318.785 369.99l.152.343.541-.209-.152-.342zM320.712 369.626l.47-.16.24.607-.47.16zM321.272 370.388l.091.494.296-.048-.091-.493zM319.58 371.29l.247.446.855-.41-.248-.448zM319.273 370.954l.188.335.963-.472-.19-.335zM319.124 370.63l.121.235.754-.337-.121-.235zM320.037 355.973l.147.351.83-.302-.147-.351zM320.162 356.535l.134.385.86-.26-.133-.385zM320.549 357.262l.088.261.458-.135-.09-.261zM320.84 357.933l.103.339.456-.121-.103-.338zM320.99 359.09l.081.266.458-.121-.081-.266zM321.044 359.512l.155.392.818-.283-.155-.39zM321.24 359.993l.175.407.662-.246-.175-.407zM322.942 358.885l-.176.298.298.153.176-.298zM323.33 357.995l-.273.407.529.309.364-.541zM322.615 357.887l.07.296-.018.13.483-.099-.099-.417zM323.92 357.308l-.238.54.363.14.24-.54zM324.11 356.357l-.163.315.638.286.163-.315zM323.997 355.628l.11.641.636-.094-.11-.642zM324.775 355.664l.015.306.85-.036-.025-.513-.326.014.01.207zM325.852 354.892l.03.678.526-.02-.03-.679zM324.931 354.48l.066.764.467-.035-.066-.764zM327.464 353.699l.47.573.475-.339-.47-.572zM328.148 353.321l.468.585.414-.288-.469-.585zM329.058 353.208l.155.223.364-.22-.155-.222zM329.649 352.889l.212.303.411-.25-.212-.302zM329.551 352.634l.12.117.278-.15-.174-.167zM330.154 352.39l.367.59.568-.305-.367-.591zM331.09 352.08l.205.397.433-.195-.205-.396zM332.251 351.488l.23.448.503-.224-.231-.448zM332.92 351.272l.261.45.472-.237-.262-.451zM334.926 350.51l.141.265.602-.277-.142-.265zM336.246 349.894l.198.415.478-.198-.199-.415zM341.224 348.05l.134.397.526-.154-.134-.398zM343.68 350.162l.592.624.332-.274-.592-.623zM343.357 348.25l.348-.192.235.37-.348.192zM344.36 347.572l.345-.27.31.344-.346.27zM333.666 356.475l.127.275.364-.146-.127-.275zM331.643 357.75l.178.402.669-.257-.178-.402zM331.865 358.357l.176.359.585-.25-.177-.358zM330.573 360.024l.187.39.679-.282-.188-.39zM329.727 357.993l.115.285.6-.209-.116-.285zM329.45 357.35l-.195-.395.72-.306.194.395zM329.56 357.423l.163.278.61-.31-.163-.278zM329.287 360.252l.346-.169.328.586-.346.168zM327.905 361.105l.156.339.428-.171-.156-.338zM328.448 362.06l.308-.204.312.408-.308.203zM327.572 362.352l.558-.27.42.755-.558.27zM326.795 362.738l.376.526.447-.276-.375-.527zM326.124 362.907l.294.618.464-.19-.294-.619zM324.117 362.624l.006.424.319-.004-.006-.424zM324.188 361.694l-.048.59.366.025.048-.59zM323.496 360.314l-.041.58.445.028.041-.58zM325.317 360.435l.153.325.555-.227-.153-.325zM321.998 363.802l.395-.317.285.308-.394.318zM320.377 364.82l.023.445.467-.02-.023-.446zM320.482 363.8l.01.339.534-.014-.01-.338zM320.508 364.505l.006.199.52-.013-.005-.198zM320.551 363.404l-.007.224.694.019.007-.224zM320.524 362.861l.011.465.682-.014-.01-.464zM320.487 361.893l.022.47.45-.019-.01-.204.329-.014-.012-.264zM320.41 361.403l.027.297.716-.056-.027-.297zM306.552 362.345l.448-.184.257.543-.18.073-.057-.12-.267.11zM306.846 362.913l.212.54.207-.07.086.22.848-.29-.299-.759zM307.948 363.501l.982-.34.171.426-.982.341zM307.1 363.877l.478-.144.113.326.157-.047.08.228-.636.191zM307.526 364.75l.336-.121.21.508.132-.048.108.262-.467.168zM307.87 365.878l.403-.17.153.316-.402.17zM308.396 365.591l.128.335.36-.121-.128-.334zM308.019 366.219l.122.307.596-.205-.122-.308zM308.472 366.505l.14.463.763-.199-.14-.464zM308.492 367.366l.102.397.315-.07-.102-.397zM308.622 367.877l.335-.089.176.578-.335.09zM308.852 368.543l.316-.074.166.62-.316.073zM309.048 369.287l.308-.073.132.48-.308.075zM309.208 369.866l.376-.094.099.339-.376.095zM309.37 370.445l.09.35.167-.038-.089-.349zM309.57 371.538l.408-.08.11.483-.408.08zM309.803 372.193l.066.209.63-.17-.065-.21zM309.863 372.478l.369-.093.115.4-.369.092zM310.01 373.17l.129.438.384-.1-.129-.437zM310.125 373.715l.07.267.569-.13-.07-.267zM310.19 374.191l.092.427.55-.102-.092-.427zM310.629 374.677l.299-.07.151.558-.299.07zM310.431 375.492l.065.613.779-.072-.065-.612zM308.687 373.462l.701-.175.14.49-.7.175zM308.516 372.031l.031.207-.135.017.054.357.12-.015.02.134.764-.101-.105-.698zM308.258 371.151l.098.735.824-.095-.098-.735zM309.37 374.4l.09.43.43-.077-.09-.43zM309.514 374.91l.056.362.393-.052-.056-.363zM309.755 375.386l.014.127-.17.016.014.139.165-.016.017.151.208-.02-.045-.416zM308.904 376.33l-.005.48.517.004.005-.479zM308.848 376.064l-.002.18.394.003.002-.18zM308.87 376.96l-.042.49.532.04.04-.49zM307.904 377.854l.652.089-.088.556-.652-.088zM310.531 377.975l-.008.172.551.023.018-.372-.263-.01-.01.2zM310.372 378.298l-.03.659.664.026.03-.659zM307.218 379.802l-.268.451.645.332.268-.451zM311.26 382.294l.308-.204.328.428-.363.131zM311.893 383.02l.234-.13.335.525-.234.13zM312.722 382.315l-.187.352.502.231.187-.351zM313.304 381.11l-.204.45.484.19.204-.451zM315.232 381.175l-.151.545 1.074.26.152-.546zM315.515 380.403l-.181.616.937.24.181-.616zM313.753 379.66l-.167.382.643.242.166-.383zM314.27 379.021l-.202.542.511.165.202-.541zM314.648 378.438l-.118.332.365.113.118-.332zM316.42 379.229l-.247.745.82.236.249-.744z" clip-path="url(#pe1b41c18ec)" style="fill:#a9a9a9;fill-opacity:.8"/><path d="m316.003 379.131-.429 1.194.794.247.159-.44-.503-.157.27-.753zM314.683 376.825l-.026.447.6.03.026-.447zM315.35 375.877l-.618.03.02.364.62-.03zM314.449 375.328l.012.356.936-.028-.013-.356zM316.115 375.205l.393-.246.33.458-.392.246zM316.257 375.995l-.073.338.117.021-.018.086.32.06.09-.424zM316.8 376.13l.267.025-.057.506-.266-.026zM317.185 375.475l-.106.169.137.074.106-.168zM318.28 376.241l-.165.365.417.163.165-.365zM318.1 378.63l-.11.37.427.11.11-.37zM318.705 378.934l-.133.498.357.082.133-.497zM318.967 378.345l-.113.314.357.111.112-.315zM319.755 378.315h.491v.722h-.491zM320.633 378.143l.488.01-.017.862-.489-.009zM323.362 378.02l.369.076.086-.362-.369-.075zM324.307 377.896l-.246.324.476.314.247-.324zM324.987 378.152l-.212.361.3.153.212-.36zM325.38 378.471l-.175.273.566.316.176-.273zM326.19 378.896l-.367.423.388.294.369-.423zM326.654 379.442l-.361.387.255.208.362-.387zM327.105 379.635l-.327.336.253.213.326-.337zM327.484 379.936l-.277.367.428.28.277-.367zM328.198 380.328l-.25.347.423.263.25-.346zM329.095 380.692l-.189-.12-.144.2.19.118zM329.234 380.683l-.193.422.161.063-.063.139.717.284.184-.4-.68-.27.073-.159zM330.173 381.254l-.18.42.382.142.18-.42zM330.69 381.556l-.193.529.473.15.194-.529zM331.6 381.424l-.106.317.248.072-.039.117.341.098.144-.434zM330.776 379.399l-.063.382.616.087.062-.38zM331.225 379.986l-.41-.06-.111.662.41.06zM332.198 380.906l.715-.175-.252-.891-.714.174zM333.257 379.75l.093.368.092-.02.105.412.28-.062-.198-.78zM334.095 379.685l.058.127-.212.084.14.303.59-.236-.197-.429zM327.914 377.715l.144.775.375-.06-.144-.776zM328.374 377.842l.25-.041.148.77-.25.041zM328.366 377.475l.351-.077.072.286-.35.077zM326.656 377.136l.288-.076.077.255-.288.075zM327.533 377.098l-.124-.291-.412.151.124.292zM326.281 375.528l-.175.334.585.265.175-.333zM324.641 375.02l.427-.548.388.262-.426.549zM323.84 375.207l-.597.314.122.2.596-.313zM322.423 375.967l-.214.532.358.125.214-.532zM321.469 375.599l-.23.677.34.1.044-.13.158.047.186-.547zM320.298 375.596l-.124.416.535.139.124-.416zM319.806 375.508l-.156.414.384.125.155-.414zM322.771 373.811l.141.253.29-.14-.142-.253zM321.622 373.6l.199.379.136-.062.1.19.252-.114-.3-.569zM322.27 373.29l.245.49.403-.174-.11-.22-.122.054-.136-.272zM321.185 372.651l.98-.406.22.46-.487.202.057.117-.494.205zM321.388 371.522l.092.235.221-.076.127.321.26-.089-.218-.556zM320.362 373.546l-.425.362.241.246.425-.362zM323.718 373.403l.33-.3.443.423-.33.3zM323.034 371.395l.066.151-.154.058.076.176.452-.17-.142-.327zM322.733 371.223l.475-.226.125.228-.475.226zM322.541 370.652l.483-.185.125.284-.482.185zM322.176 370.249l.342-.151.143.279-.341.152zM321.823 369.533l.526-.182.18.448-.525.183zM321.655 368.993l.571-.248.2.428-.566.27zM321.299 368.237l.312-.105.176.46-.312.103z" clip-path="url(#pe1b41c18ec)" style="fill:#a9a9a9;fill-opacity:.8"/><path d="m321.516 368.747.081.187.652-.247-.165-.379-.304.115.084.193zM321.686 368.162l.075.21.209-.063-.075-.211zM320.9 367.67l.853-.269.106.294-.853.269zM320.833 367.25l.101.314.433-.122-.05-.156-.219.061-.051-.157zM320.333 366.1l.14.36.159-.054.136.35.534-.194-.288-.66zM321.31 365.34l.195.251.348-.235.11.14.26-.176-.206-.265.18-.122-.097-.126zM320.988 365.718l.492.64.358-.24-.492-.64zM322.588 366.767l.581-.106.07.338-.58.106zM322.349 367.391l.126.332.677-.223-.126-.332zM323.196 367.175l.144.315.38-.15-.144-.315zM323.29 366.826l.062.188.24-.068-.063-.188zM323.863 367.716l-.455.178.04.09-.398.156.115.254.243-.095.076.169.61-.24zM324.48 367.701l.302-.106.193.474-.302.106zM324.572 368.403l.087.181.6-.247-.087-.182zM323.968 368.956l.423-.146.301.757-.423.146zM324.675 368.63l.32-.121.214.49-.32.121zM324.89 369.302l.224.474.718-.294-.225-.474zM325.198 369.855l.144.329.554-.211-.144-.329zM324.054 369.97l.201.433.676-.272-.202-.434zM324.428 370.395l.338-.152.179.346-.338.152zM324.706 370.783l.104.213.265-.112-.105-.213zM326.4 370.66l.09.413.285-.054-.091-.413zM323.842 366.676l.325-.102.152.418-.326.102zM323.412 366.13l.681-.384.235.36-.68.386zM324.14 365.245l.426-.232.19.304-.425.232zM322.67 364.546l.205.37.764-.356-.348-.378zM323.33 363.96l.484.69.559-.34-.483-.69zM325.239 364.7l-.208.234.287.22.208-.233zM325.37 365.401l-.208.122.228.336.461-.271-.175-.259-.253.15zM337.71 375.12l.117.217.404-.19-.117-.215zM338.426 374.281l.128.3.533-.196-.128-.3zM338.744 374.64l.15.268.395-.191-.15-.269zM339.35 373.853l.13.346.655-.215-.131-.346zM340.366 373.395l.137.5.47-.112-.137-.5zM341.476 373.107l.618-.13.101.413-.618.13zM342.25 372.94l.598-.11.072.334-.6.11zM344.589 371.97l.208.527.943-.323-.208-.528zM347.435 371.602l.478-.319.39.508-.477.319zM338.367 377.104l.426.504 1.31-.957-.424-.505zM339.402 375.613l.264.461.551-.273-.263-.461zM340.13 375.263l.178.448.371-.13-.178-.447zM340.912 375.116l.056.524.406-.038-.056-.524zM341.467 374.975l-.008.377.468.008.012-.523-.312-.006-.003.147zM342.198 374.684l.038.623.56-.03-.038-.623zM343.035 374.575l.01.682.534-.006-.009-.682zM343.773 374.734v.385h.368v-.385zM344.232 374.74l.027.373.541-.034-.027-.373zM344.888 374.828l.007.347.344-.006-.007-.347zM344.929 375.272l.032.243.583-.067-.032-.243zM345.679 374.72l.495-.11.12.467-.495.11zM349.025 373.597l.066.407.786-.11-.066-.407zM350.953 372.167l-.199.276.405.252.2-.275zM351.385 371.687l-.185.242.299.198.184-.242zM351.858 371.328l-.24.276.275.207.24-.276zM352.463 371.654l-.149.198.223.144.148-.198zM352.225 370.816l-.186.31.541.282.186-.309zM352.57 370.327l-.164.317.462.207.164-.317zM352.89 369.83l-.19.36.635.286.188-.36zM353.198 369.463l-.145.293.585.25.144-.292zM351.765 369.103l-.117.25.302.121.116-.25zM353.405 368.853l-.182.38.557.232.183-.379zM353.645 368.385l-.183.371.535.228.183-.371zM354.428 368.096l-.105.22.063.025-.05.106.29.12.155-.324zM354.179 367.47l-.134.273.487.208.133-.272zM354.448 367.05l-.148.348.428.159.148-.35zM354.684 366.645l-.134.313.51.19.134-.314zM355.018 366.107l-.152.338.564.22.151-.338zM355.181 365.567l-.154.358.709.266.154-.359zM355.474 365.265l-.078.216.347.108.078-.216zM355.577 364.927l-.091.26.523.16.091-.26zM355.911 364.384l-.149.366.298.105.148-.366zM356.236 363.75l-.126.3.292.107.127-.301zM356.432 363.235l-.155.32.615.26.156-.32zM356.872 362.155l-.12.326.469.15.12-.327zM357.03 361.691l-.146.357.615.218.198-.487-.26-.092-.053.13zM357.367 361.05l-.138.357.473.158.138-.358zM357.49 360.598l-.111.328.65.192.112-.329zM357.713 360.118l-.112.356.551.15.112-.355zM358.219 359.172l-.16.392.456.162.16-.393zM358.541 358.58l-.215.444.396.166.215-.443zM358.604 357.934l-.169.382.564.216.168-.382zM358.814 357.069l-.102.328.545.148.103-.327zM357.464 356.768l.351.09-.224.756-.352-.091zM357.117 358.166l-.21.482.348.133.21-.483zM356.841 358.862l-.146.366.312.108.147-.366zM355.483 359.991l-.177.348.567.25.177-.347zM355.9 359.846l-.072.176.268.095.071-.175zM355.466 360.573l-.204.384.275.127.204-.384zM366.438 359.398l.193.4 1.097-.458-.192-.4zM367.149 355.923l.184.851.522-.098-.073-.338-.283.053-.11-.514zM367.767 355.67l.038.265.664-.084-.038-.263zM364.622 356.178l.746.55.535-.628-.423-.313-.38.447-.276-.203zM365.968 355.454l-.205.24.284.21.206-.24zM370.821 356.968l.215.341.585-.319-.215-.341zM371.89 356.963l.034.457.87-.055-.033-.457zM372.517 355.316l-.055.613.496.039.055-.613zM374.982 352.69l-.142.26.92.432.14-.261zM377.789 353.714l.058.237.798-.167-.161-.217zM369.467 351.747l-.214.361.463.237.214-.361zM386.146 356.339l-.035.486.363.023.035-.486zM339.954 380.077l.452.747 1.987-1.044-.453-.747zM339.166 380.407l.337-.202.58.836-.338.202zM338.67 382.346l-.167-.286.612-.31.167.287zM337.696 382.418l.57-.284.566.987-.469.234-.307-.535-.1.05zM334.437 385.101l.375-.193.32.538-.376.194zM314.552 391.44l-.088.502.356.054.105-.604zM313.403 386.628l-.248.503.472.203.303-.614zM313.908 385.634l-.343.63.352.166.344-.628zM314.71 384.298l-.288.454.434.24.289-.454zM296.178 395.33l-.208.414.261.114.209-.414zM305.31 363.69l.443-.237.4.647-.444.238zM304.918 363.167l.156.354.552-.21-.155-.355zM306.344 363.894l.093.216.2-.074-.092-.217zM304.617 362.315l.24.33.339-.215-.241-.33zM304.144 361.855l.324.373.442-.333-.323-.373zM303.696 361.425l.294.37.555-.381-.295-.37zM303.217 360.922l.326.425.653-.432-.325-.426zM302.757 360.46l.264.4.699-.402-.263-.398zM302.383 359.44l.236.968.868-.451-.4-.665zM301.896 363.84l.406.43.353-.291-.406-.429zM294.805 359.346l.434-.206.256.467-.435.207zM294.594 357.448l.173.465.375-.121-.172-.465zM294.823 356.916l.344-.136.346.757-.345.137zM294.146 356.56l.144.239.977-.515-.145-.239zM292.756 360.06l.325-.13.348.75-.325.13zM293.346 360.157l.773-.315.19.404-.773.315zM291.409 360.58l.087.214.375-.133-.087-.214zM292.062 360.404l.302.547.403-.192-.302-.548zM290.866 361.254l.28.518.436-.204-.28-.518zM290.536 361.477l.147.382.291-.097-.147-.383zM290.087 361.196l.269-.084.27.757-.268.083zM288.778 361.775l.085.208.201-.072.212.52.3-.107-.297-.726zM289.603 361.521l.067.2.329-.097-.067-.198zM288.318 362.058l.193.543.387-.119-.193-.542zM292.236 362.47l.149.262.37-.183-.15-.262zM292.314 363.322l.072.33.666-.124-.072-.331zM290.795 364.139l.05.456.601-.057-.05-.455zM289.643 363.835l-.13.25.54.241.129-.25zM289.332 364.438l-.102.248.66.234.1-.248zM288.074 363.638l.054.25.23-.044-.053-.25zM287.172 363.732l-.013.267.449.018.012-.267zM286.36 363.585l-.025.376.468.027.026-.375zM285.368 364.42l.066.46.627-.078-.067-.46zM284.615 364.555l.05.258.35-.059-.05-.258zM284.542 364.236l.055.228.358-.074-.055-.228zM284.512 363.75l.088.301.349-.09-.089-.3zM283.806 363.3l.372-.12.142.383-.372.12zM283.14 363.008l-.074.484.338.044.073-.484zM282.282 363.807l-.137.346.81.28.138-.347zM281.492 362.96l-.116.332.43.13.116-.332zM287.27 362.345l-.117.499.403.082.118-.499zM287.335 362.165l-.03.143.353.065.03-.142zM287.379 361.855l-.052.276.404.066.053-.276zM286.828 361.414l-.006.277.466.01.006-.279zM285.659 361.576l-.072.266.501.117.072-.265zM284.97 361.69l-.263.68.464.155.263-.68zM284.275 361.447l-.18.61.562.145.181-.61zM284.687 360.338l-.09.28.366.1.09-.28zM285.283 360.925l-.125.321.318.107.124-.322zM284.987 359.82l-.094.274.544.16.093-.274zM285.094 359.261l-.093.336.376.092.094-.337zM285.543 359.4l-.074.237.263.071.074-.236zM286.15 359.634l-.109.362.4.105.11-.362zM287.094 359.65l-.11.255.395.146.11-.256zM288.047 359.996l-.11.182.411.217.11-.182zM286.048 362.304l.188.04-.066.269-.477-.102.03-.12.288.061zM283.445 361.384l-.092.302.276.082.068-.292z" clip-path="url(#pe1b41c18ec)" style="fill:#a9a9a9;fill-opacity:.8"/><path d="m283.597 361.1-.076.222.258.077-.098.284.204.06.173-.505zM283.788 360.225l-.147.325.532.209.146-.326zM284.041 359.795l-.124.279.41.16.124-.28zM284.344 359.11l-.177.456.376.127.177-.456zM285.277 358.64l.03-.324.7.057-.03.325zM286.85 358.313l-.075.218.469.14.075-.218zM288.882 358.063l-.46.27.279.412.46-.27zM289.41 358.382l-.06.155.348.115.059-.155zM290.538 360.505l.027.246.348-.033-.028-.246zM285.552 357.059l-.18.668.368.086.18-.669zM281.64 360.354l-.404.437.38.305.404-.436zM280.8 360.135l-.242.582.385.14.243-.583zM279.958 359.819l-.224.603.423.136.224-.603zM280.67 359.344l-.32.327.304.257.319-.326zM279.454 359.75l-.198.468.292.107.198-.467zM278.994 359.665l-.107.357.28.073.108-.358zM277.628 359.579l.006.411.354-.004-.006-.412zM275.423 358.797l.128.583.59-.112-.129-.583zM272.703 358.548l-.523.676.37.248.523-.675zM272.573 359.784l-.044.562.293.02.044-.562zM270.84 360.738l.016.547.787-.02-.016-.548zM269.747 363.048l.05.53.423-.035-.049-.53zM273.896 363.805l.15.25.56-.29-.15-.25zM270.891 364.256l.44-.156.272.668-.439.155zM269.246 363.295l-.007.326.358.006.007-.326zM268.516 363.239l-.093.474.501.086.093-.475zM268.05 363.138l-.036.248-.276-.034-.045.32.646.078.08-.566zM266.525 363.01l-.167.275.682.316.136-.254zM265.975 362.667l.2-.172.275.279-.2.171zM265.633 362.496l-.215.262.433.307.215-.263zM263.384 360.856l-.488.66.422.27.487-.66zM264.123 360.86l-.092.28.637.182.091-.28zM270.938 365.283l-.017.375.402.022.024-.382zM270.252 365.439l-.037.398.482.039.037-.398zM268.777 365.17l-.118.344.512.153.119-.344zM267.35 364.926l-.124.305.488.173.124-.305zM267.239 363.36l-.17.263.2.112.17-.262zM269.62 365.317l-.011.24.306.014.012-.24zM269.383 366.092l-.02.438.257.01.02-.437zM262.131 362.913l-.15.253.414.213.15-.253zM261.78 363.26l-.138.25.392.188.138-.25zM261.774 363.981l-.128.287.296.114.127-.286zM262.227 363.975l-.08.17.199.08.079-.17zM262.318 364.732l-.228.325.203.123.228-.325zM261.23 364.318l-.216.36.346.18.217-.36zM261.682 364.487l-.182.256.14.087.182-.257zM261.668 365.244l-.118.163.302.19.118-.163zM260.414 365.468l-.421.479.347.265.421-.478zM259.659 366.163l.278.25.16-.154-.278-.25zM259.17 366.687l.32-.3.477.439-.32.3zM258.785 366.958l.243-.225.41.384-.242.226zM262.289 367.104l-.181.314.624.313.181-.315zM263.08 367.55l-.2.297.257.15.2-.295zM263.636 367.915l-.177.33.303.142.178-.33zM263.376 369.26l-.197.331.303.157.197-.33zM262.664 368.85l-.197.327.3.156.196-.327zM261.989 368.453l-.215.327.3.17.213-.326zM261.413 368.115l-.228.347.305.174.228-.347zM262.386 370.156l-.234.363.315.176.234-.363zM261.63 369.735l-.243.36.335.196.243-.36zM260.97 369.421l-.205.327.278.15.204-.327zM260.36 369.094l-.223.338.268.152.222-.337zM260.954 371.632l-.209.224.19.152.209-.224zM260.455 370.892l-.277.272.215.19.277-.272zM259.92 370.346l-.33.275.26.27.33-.275zM258.695 369.994l.303-.226.351.409-.303.226zM258.196 370.387l.356-.262.227.265-.356.263zM257.705 370.733l.243-.184.245.28-.242.184zM257.202 371.058l.229-.16.259.323-.229.16zM256.72 371.42l.237-.156.212.282-.237.155zM256.186 371.805l.236-.173.2.238-.236.172zM255.642 372.152l.275-.182.2.26-.275.183zM255.059 372.498l.264-.163.192.27-.265.164zM254.481 372.83l.265-.153.197.294-.265.154zM252.586 372.046l.188.074.239-.277-.153-.114zM252.928 371.54l.34.262.25-.283-.34-.261zM253.445 371.049l.264.23.237-.234-.264-.231zM253.598 370.403l.19-.194.282.24-.19.194zM254.895 369.657l.292.3.237-.2-.293-.3zM255.274 369.324l.118.186.384-.212-.118-.186zM255.805 368.862l.3.367.525-.371-.299-.368zM257.118 368.745l.315.442.597-.37-.316-.441zM256.331 370.56l-.43-.47.44-.348.43.47zM259.403 365.033l.416-.411.332.323-.392.4zM259.89 364.614l.26.223.178-.18-.26-.223zM260.023 364.281l.364.281.166-.186-.364-.28zM259.276 363.59l-.34.611.263.127.34-.611zM258.83 363.504l-.16.33.28.119.162-.33zM261.04 362.681l-.163.392.373.134.162-.393zM260.824 362.464l-.107.23.162.066.107-.23zM261.236 362.001l.255.294.307-.232-.255-.294zM261.058 361.269l-.148.248.444.23.148-.249zM259.618 361.196l.411.297.375-.45-.412-.297zM315.151 341.044l.512.025-.033.582-.511-.025zM362.184 350.832l-.24.379.7.382.239-.38zM362.433 350.278l.128.307.863-.313-.128-.307zM313.075 387.334l-.18.468.468.157.18-.468zM332.38 346.807l.228.323.283-.174-.227-.323z" clip-path="url(#pe1b41c18ec)" style="fill:#a9a9a9;fill-opacity:.8"/></g></g></g><defs><clipPath id="pe1b41c18ec"><path d="M90 92.385h558v542.429H90z"/></clipPath></defs></svg>