<svg xmlns="http://www.w3.org/2000/svg" width="960" height="960" viewBox="0 0 720 720"><defs><style>*{stroke-linejoin:round;stroke-linecap:butt}</style></defs><g id="figure_1"><path id="patch_1" d="M0 720h720V0H0z" style="fill:#fff"/><g id="axes_1"><path id="patch_2" d="M90 619.522h558V107.678H90z" style="fill:#fff"/><g id="LineCollection_1"><path d="m104.075 581.04-1.52 6.262M104.075 581.04l1.377-5.884M105.452 575.156l.386 1.059.135.55.042.38-.223 1.117-.418 1.4-.237.366-.339.352-.723.66M222.456 278.68l-2.358-6.788M228.426 295.156l-1.57-6.074-.633-1.88-.142-.42-.12-.36-.898-2.67-2.607-5.072M342.787 419.72l.375-.579M342.787 419.72l-.5-.233M342.787 419.72l-.798 1.225M346.46 374.74l-1.21 2.573M346.46 374.74l4.822 1.894M334.88 374.236l6.093.2 4 .174.828.042.66.087M294.738 367.291l.162-1.348.497-3.66" clip-path="url(#p7e3f0a397c)" style="fill:none;stroke:#000"/><path d="m297.667 363.606-.994-.6-1.276-.723M262.046 325.18l2.308-.593 1.217-.192 1.013.05 1.21.305 2.188.485 1.483.096 5.356.209 3.652.158.32.065.213.158.184.245 2.404 4.913.428 1.347.729 4.643.573 3.08.054.71-.169.57-.662.925-1.923 2.436-1.367 2.138-.64 1.32-.224.977.068.973.564.867 7.3 8.143 1.148.966.704.452 1.416.486 1.333.459 2.471.712M310.41 372.106l-.757 5.193M310.41 372.106l3.374.685M310.41 372.106l-1.46-.167M300.688 365.483l2.479 1.967 1.854 1.324 1.767 1.122 1.887 1.023.867.543.868.644M215.97 352.846l-3.569 3.865M215.97 352.846l-.512.27-.468.41-.249.223M231.929 329.636l-1.165 2.92-1.665 3.727-2.306 4.012-1.686 2.301-1.89 2.197-3.265 3.703-3.983 4.35" clip-path="url(#p7e3f0a397c)" style="fill:none;stroke:#000"/><path d="m213.637 358.327-.03-1.036.047-.708.346-.832.457-.737.782-1.018.365-.408.193-.262.172-.48M327.896 440.742l.837-.994 1.143-1.605M301.821 477.28l1.8-1.615.618-.645.46-.55.216-.306 3.008-3.948 19.973-29.474M329.399 437.834l-.983 1.428-.308.683-.212.797M354.403 377.752l3.146 1.128M354.403 377.752l-3.12-1.118M352.281 382.383l.464-.959 1.658-3.672M213.637 358.327l-.34-.654-.254-.437-.316-.336-.326-.189M215.256 361.176l-.459-.585-.727-1.183-.258-.62-.175-.46M328.072 396.67l5.836 2.215M328.072 396.67l.446-.38M328.072 396.67l-2.066 1.97M300.688 365.483l-.223 2.362M297.667 363.606l.604.413 2.417 1.464M135.205 546.2l14.62-1.776M148.01 562.332l-.332-.112-1.325-.81-2.524-1.728-6.026-4.06-.504-.479-.234-.303-.158-.339-.173-.775-.34-1.586-1.189-5.94M121.199 547.903l5.426-.704 2.878-.325 5.702-.674M302.842 376.638l-3.496-.356M302.842 376.638l3.54.334M302.842 376.638l.606-5.11M335.365 402.4l-9.36-3.76M335.365 402.4l-1.093 2.228M335.365 402.4l1.052-2.543M155.214 535.47l3.661 7.807M152.367 536.087l1.05-.547.46-.205.46-.112.41.027.27.112.197.109M158.241 524.456l-.079.384-.075.402-1.239 4.734-1.634 5.495M345.25 377.313l-10.417-.437M345.25 377.313l-.763 1.773M325.41 376.624l9.423.252M325.41 376.624l3.291 2.612M325.41 376.624l-1.526-1.22M242.25 423.977l-1.107-.987-1.295-.902M223.503 433.607l10.618-6.893 2.895-2.356 2.832-2.27M233.958 414.249l.278.366.7.902 1.063 1.39 1.833 2.819.374.67.376.6.656.613.61.479M336.96 388.966l1.112.47M336.96 388.966l4.352-3.799M336.96 388.966l-4.454 3.83M359.248 397.395l-5.296-1.908M359.248 397.395l-2.154 4.662M361.956 392.75l-1.54 2.961-1.168 1.684M338.491 395.184l3.124 1.092M338.491 395.184l-2.417-.946M338.491 395.184l-2.074 4.673M328.701 379.236l.96.774M328.701 379.236l6.05.19M336.074 394.238l-3.568-1.442M336.074 394.238l-1.11 2.31M336.074 394.238l1.063-2.278M341.615 396.276l5.139 1.904M341.615 396.276l1.031-2.233M341.615 396.276l-2.132 4.838M337.34 405.781l5.094 2.067M337.34 405.781l-3.068-1.153M337.34 405.781l2.143-4.667M335.073 407.89l.166-.167 2.1-1.942M334.88 374.236l-.047 2.64M334.88 374.236l-13.054-.53M323.823 400.486l6.642 2.652M323.823 400.486l2.183-1.845M323.823 400.486l-.645.4M338.072 389.435l5.602 2.182M338.072 389.435l-.935 2.525M127.383 485.782l2.81.675 2.425.484 9.382 4.948 5.526 3.795 3.658 1.489.476.147.494.152 4.766 1.681.745.233.347.014.437-.078.24-.225.272-.458.851-1.798.934-1.946 1.047-1.713 2.14-3.2.963-1.114.467-.31.483-.084.512.098 1.544.663 6.485 3.123.504.176.332-.099.279-.211 1.19-2.496 1.664-3.01 1.876-3.651.971-2.045.882-1.98.082-.318-.052-.303-.226-.451-.64-.973-.317-.909-.24-1.311-.174-2.256-.158-2.806v-.698l.143-.627.685-.755 5.032-4.412 3.252-2.748 1.719-1.27.874-.565.783-.79 1.506-1.564 11.749-13.4 1.206-1.306.678-.535 1.085-.564 1.612-.705 5.573-2.51 7.246-3.659M242.25 423.977l-1.182.924-1.25 1.086-.724.775-.903 1.269-2.124 3.765-2.17 4.638-3.42 6.105-1.882 3.814-.403.765-.173.197-.113.043-.144-.036-.128-.116-.165-.412-1.149-4.706-.542-1.804-.437-1.679-.241-1.55-.256-1.417-.339-1.332-.166-.297-.24-.197-.28-.134-.316-.07M158.241 524.456l-.267-.462-4.007-6.386M344.447 417.073l-.433-.213M344.447 417.073l.237-.435M344.447 417.073l-.985 1.661M141.472 539.554l-.817.11-5.063.65" clip-path="url(#p7e3f0a397c)" style="fill:none;stroke:#000"/><path d="m134.972 529.33 3.005 4.61 2.719 4.44.776 1.174M152.367 536.087l-2.24 1.286-1.522.81-.746.374-.58.169-.64.113-5.167.715M294.148 372.697l.31-2.787M294.148 372.697l5.594.57M293.77 375.89l.022-.374.03-.36.068-.472.12-.783.138-1.204M353.624 406.554l1.742-2.145M353.624 406.554l-1.565 2.15M353.624 406.554l-3.923-1.511M353.624 406.554l3.932 1.555M356.967 388.49l.335-.756M356.967 388.49l-5.171-1.876M356.967 388.49l-.852 2.069M356.967 388.49l3.389 1.092M360.02 390.388l-.76 1.43M360.02 390.388l2.777 1.128M360.02 390.388l.336-.806M360.651 379.932l-1.322 3.03M360.651 379.932l-3.102-1.052M363.358 384.547l1.77-2.182.124-.37-.003-.177-.087-.193-.18-.18-.555-.248-3.776-1.265M303.448 371.528l3.469.254M303.448 371.528l-3.402-.302M345.838 386.846l5.165 1.993M345.838 386.846l.871-2.08M345.838 386.846l-2.164 4.771M345.838 386.846l-4.042-1.5M339.483 401.114l-3.066-1.257M339.483 401.114l5.088 2.043M349.701 405.043l-5.13-1.886M349.701 405.043l-2.095 4.734M349.701 405.043l2.307-4.99M361.956 392.75l.841-1.234M361.956 392.75l-2.697-.931M338.005 426.572l1.09-1.53M338.005 426.572l-.52-.329M338.005 426.572l-.427.595M330.805 411.797l8.586 3.25M330.805 411.797l2.437-2.08M330.805 411.797l-2.087 1.564M334.833 376.876l-.082 2.55M334.272 404.628l-3.807-1.49M350.332 410.869l1.727-2.165M350.332 410.869l-1.556 2.044M350.332 410.869l-2.726-1.092M350.332 410.869l4.066 1.631M321.826 373.705l2.058 1.7M321.826 373.705l-1.309-.102M334.751 379.426l-.12 1.59M334.751 379.426l9.465.364M347.53 385.061l1.733-3.933M347.53 385.061l-.82-.296M347.53 385.061l4.266 1.553M344.487 379.086l4.776 2.042M344.487 379.086l-.271.704M352.008 400.053l5.086 2.004M352.008 400.053l-5.254-1.873M352.008 400.053l1.944-4.566M152.367 536.087l-9.46-15.075M372.56 395.669l-1.49-.59-8.273-3.563M343.674 391.617l-1.028 2.426M348.905 393.54l-1.675-.598-3.556-1.325M357.094 402.057l3.76 1.695M357.094 402.057l-1.728 2.352M358.48 384.782l-3.04-1.23M358.48 384.782l-.617 1.612M358.48 384.782l.85-1.82M294.459 369.91l5.676.592M294.459 369.91l.28-2.619M339.173 381.945l4.54-1.043M339.173 381.945l3.583 1.307M334.631 381.016l3.393.722 1.149.207M300.135 370.502l.26-1.999M300.046 371.226l.036-.36.053-.364M346.71 384.765l-3.954-1.513M342.756 383.252l.958-2.35M342.756 383.252l-.96 2.095M353.952 395.487l-5.047-1.948M353.952 395.487l2.163-4.928M341.312 385.167l.484.18M306.243 378.258l13.844 1.248 1.333.17 1.032.183 2.252.373 3.268.663 1.914.444 1.461.353 1.529.437 1.574.514 6.862 2.524M333.908 398.885l1.057-2.337M333.908 398.885l2.509.972M349.263 381.128l3.018 1.255M351.282 376.634l-.61 1.257-1.41 3.237M299.742 373.267l.304-2.04M299.742 373.267l-.396 3.015M353.325 382.796l2.116.756M353.325 382.796l-1.044-.413M353.325 382.796l-1.53 3.818M345.538 414.678l-.298-.134M345.538 414.678l.091-.42M345.538 414.678l-.854 1.96M158.875 543.277l-9.05 1.147M158.875 543.277l36.878-4.8M344.216 379.79l-.502 1.112M347.606 409.777l-5.172-1.929M347.606 409.777l-1.977 4.48M332.506 392.796l-2.032 1.913M329.84 391.012l.4.05.316.063.319.127 1.63 1.544M116.363 548.52l4.836-.617M116.363 548.52l-.941-.269-.585-.169-.383-.186-.255-.192M114.067 549.246l.45-.14.837-.296 1.01-.29M148.01 562.332l.376.05.708-.007 2.026-.148 2.418-.29.821-.098.588-.141.512-.174.218-.186.113-.246.045-.318-.038-.274-.15-.529-1.168-2.441-1.28-2.303-.934-1.832-.557-1.156-.497-1.34-.392-1.72-.241-1.367-.753-3.388M578.579 398.961l15.298-3.416 13.964-2.735 1.93-.49 1.557-.631 2.12-1.125 1.384-.863 2.688-2.2 5.11-4.621 8.71-7.98M374.867 396.736l2.774.411M372.56 395.669l.56.222.979.444.768.401M415.932 421.708l-2.704-.17-3.262-.176-2.485-.24-1.672-.275-1.5-.324-1.408-.444-1.31-.444-1.416-.614-1.01-.493-1.8-.973-1.122-.684-1.024-.712-1.266-.973-1.077-.945-.836-.789-.896-.916-1.318-1.397-4.196-4.384-5.174-5.316-2.342-2.263-.671-.649-.527-.444-.678-.486-1.371-.86" clip-path="url(#p7e3f0a397c)" style="fill:none;stroke:#000"/><path d="m604.865 410.815-3.916 2.383-5.092 3.363-1.085.695-.24.077-.226-.021-.554-.312-.343-.184-.274-.023-.373.107-1.868.662-.419-.039-.244-.257-2.026-3.137-6.658-10.519-2.968-4.649" clip-path="url(#p7e3f0a397c)" style="fill:none;stroke:#000"/><path d="m498.701 414.396 17.36-3.6 21.852-4.21 7.163-1.298 18.288-3.581 15.215-2.746M513.397 433.438l-5.514-7.254-4.956-6.317-4.226-5.47M479.052 418.395l3.343-.642 16.306-3.357M479.052 418.395l5.165 21.268M415.932 421.708l7.125.373 5.499.324 7.11.444 9.663.529 3.85.063 2.937-.084 1.544-.113 1.31-.148 2.546-.31 2.87-.472 4.263-.91 3.766-.747 10.637-2.262" clip-path="url(#p7e3f0a397c)" style="fill:none;stroke:#000"/><path d="m354.576 529.81 2.56-.847 1.04-.33.648-.156.7-.112.603-.022.814-.056.79-.063 1.333-.057 2.41-.275.776-.12.972-.035 1.273.014 3.472-.042 1.017.056 1.318.17 1.13.218 1.13.183.926.17.882.21.625.135h.452l.482-.12.565-.268 1.333-.888.73-.818.37-.5.36-.6.332-.76.264-.826.264-1.332.27-1.699.317-2.354.301-1.593.18-1.395.137-.748.06-.945-.21-3.214-.694-5.54-.075-2.623-.166-2.566-.09-2.382-.075-.762.12-.676.391-1.509.468-1.495.225-.775 1.868-6.26 1.99-6.23.36-.917.407-.86.317-.579.376-.465 1.01-1.381.934-1.368 1.28-1.776 1.657-2.369.708-1.043.573-1.185.662-1.65 4.233-9.7 2.652-6.358 3.675-8.431 3.842-9.123 3.48-7.91.496-1.17.151-.874v-.564l-.045-.542M361.506 387.634l-2.69-.909M363.358 384.547l-.356.526-1.496 2.56M360.356 389.582l.339-.558.81-1.39M227.902 534.146l8.357-3.668M215.403 536.099l10.338-1.255 1.046-.218 1.115-.48M220.174 527.883l3.514-1.03 1.338-.442.813.466 1.18 4.148.883 3.121M207.679 537.03l-11.926 1.446M207.679 537.03l2.09-.253M207.679 537.03l.508 7.225M319.978 378.35l.202-1.778M319.978 378.35l-3.349-.379M323.506 378.833l-1.273-.187-2.255-.296M320.517 373.603l-.337 2.97M320.517 373.603l-3.4-.41M316.63 377.971l.487-4.778M316.63 377.971l-3.589-.289M317.117 373.193l-3.333-.402M313.041 377.682l.743-4.891M313.041 377.682l-3.388-.383M309.653 377.299l-3.27-.327M306.382 376.972l.535-5.19M306.382 376.972l-.14 1.286M306.917 371.782l2.032.157M299.14 377.525l-5.57-.494M299.14 377.525l7.103.733M299.14 377.525l.206-1.243M294.738 367.291l2.56.258M300.465 367.845l-.07.658M300.465 367.845l-3.167-.296M226.54 190.868l4.082-.763 1.918-.599-.183-3.548v-1.496l.503-1.112.502-.556 14.887-7.524 3.425-1.497 2.786-.428 2.237-.085 2.832 1.069 3.014.77 2.557.427 2.1-.171 1.279-.556 1.005-.812.958-.855 8.906-8.68 1.095-.769h1.325l1.507-.385.046-.556-.229-2.437.274-1.71 1.05-1.667 1.142-2.566.502-2.223-.274-1.668M221.567 216.172l1.975-9.81 2.233-11.785.765-3.709M224.704 163.37l.468 1.73.784 2.821.662 2.905.392 2.934.301 2.905.151 4.344-.294 4.568-.628 5.291M194.732 142.387l6.277-.276 6.341-.42 5.168-1.301M224.704 163.37l-.165-.61-1.807-4.684-2.29-4.371-3.917-6.601-4.007-6.714M233.687 316.398l-.017-.71-.336-3.699-.457-2.871-1.229-4.317-.933-2.742-.763-2.24-1.526-4.663M239.376 330.078l-4.995-.174-1.736-.134-.716-.134" clip-path="url(#p7e3f0a397c)" style="fill:none;stroke:#000"/><path d="m233.687 316.398-.027 1.173-.072 2.69-.221 2.731-.388 2.428-.63 2.648-.42 1.568M113.771 547.172l-.313-.58-.077-.392-.03-.485-.008-.476.027-.398.017-.363.006-.362-.035-1.132M113.771 547.172l-.335-.211-.38-.13-.403-.043M114.2 547.704l-.184-.287-.245-.245M112.653 546.788l-.762 2.957M112.653 546.788l.705-3.804M112.653 546.788l-.517.081-.466.225-.369.35M111.301 547.443l-.208.361-.101.4.012.41.125.393" clip-path="url(#p7e3f0a397c)" style="fill:none;stroke:#000"/><path d="m113.358 542.984-.392.73-.263.546-.267.627-.207.466-.221.53-.201.48-.181.353-.325.727M111.129 549.007l-.064.51-.015.96-.136 1-.128 1.036-.105.914-.12.912-.05.77M111.129 549.007l.316.443.446.295M111.891 549.745l-1.38 5.365M111.891 549.745l.308.111.306.053.305.007.317-.049.318-.101M113.445 549.766l.238-.14M110.511 555.11l.546-1.476.34-.853.24-.627.28-.528.285-.423.275-.377.338-.423.472-.453.158-.184M114.067 549.246l.193-.36.09-.395-.022-.403-.129-.384M113.683 549.626l.209-.175.175-.205M140.012 438.045l-.459.163M143.598 434.257l-.761.795-.398.614-.378.614-.522.698-.398.365-.303.243-.372.226-.454.233M141.432 438.257l-.448-.187-.484-.072-.488.047M139.553 438.208l-.398.268-.31.354-.204.418-.082.452.046.457M139.553 438.208l-.584.228-.562.13-.485.113-.458.049-.476.032h-.459l-1.11.168M138.605 440.157l.17.43.282.376" clip-path="url(#p7e3f0a397c)" style="fill:none;stroke:#000"/><path d="m135.42 438.928 1.222.075.372.09.311.112.234.122.26.154.259.17.268.226.26.28M139.057 440.963l.376.294.444.194M139.057 440.963l.033.372.035.252-.009.493-.07.397-.05.332-.113.38-.294.827-.537 1.53-.533 1.62-.276.835-.064.836M141.87 440.928l.297-.43.143-.463M137.179 448.837l.221-.222.144-.282.318-.811.908-2.356.26-.527.423-.664.424-.535.346-.436.528-.527.32-.38.381-.527.419-.642M139.877 441.451l.54.082.54-.065.5-.208.414-.332M142.31 440.035l.207-.465.095-.478.078-.729.043-.632.078-.526.207-.777.296-.948.284-1.223" clip-path="url(#p7e3f0a397c)" style="fill:none;stroke:#000"/><path d="m142.31 440.035.004-.538-.16-.488-.302-.426-.42-.326M143.598 434.257l-2.166 4M151.514 422.825l-1.18 1.323-5.604 7.981-1.132 2.128M139.877 441.451l-.39.886-2.308 6.5M127.383 485.782l4.925-19.815 3.173-12.938 1.698-4.192M212.401 356.711l-2.783 3.009M212.401 356.711l-.448-.076-.624.068-.639.251-.566.337M210.124 357.291l-.65.57-.523.69-.368.525-.24.48-.29.582-.155.402-.182.449-.263.47-.24.352-.308.439M210.124 357.291l-.194.331-.24.524-.216.63.023.44.035.147.086.357" clip-path="url(#p7e3f0a397c)" style="fill:none;stroke:#000"/><path d="m214.741 353.75-.32.28-.411.266-.68.461-.6.328-.68.418-.493.295-.528.4-.412.375-.493.718M209.618 359.72l-4.26 4.621M209.618 359.72l.313.358.521.274.479.146.78.042M211.711 360.54l.698.015.489.056.67.135.535.091.437.113.716.226M205.358 364.341l.368-.226.347-.268.512-.536.628-.58.48-.374.502-.416.441-.32.615-.35.741-.305.803-.238.916-.188M225.77 367.084l-1.559-.804-4.866-2.743-4.09-2.361M206.905 362.25l-.457.556-.571.66-.316.41-.203.465M193.224 368.895l1.002-1.057.76-.74.302-.395.264-.473.362-.726.278-.38.512-.36.648-.211.512-.036 1.431-.112 1.634-.254 1.71-.402 1.19-.416.784-.423.768-.374.753-.204.77-.082M186.75 384.346l3.627-3.888 2.004-2.235 12.977-13.882M225.77 367.084l1.537.655 2.779 1.142 3.284 1.121 3.766.994 2.667.543M259.213 373.588l-16.27-1.534-3.14-.515M226.049 392.175l10.243-15.171 2.433-3.512.671-1.071.407-.882M344.014 416.86l-4.623-1.812M344.014 416.86l-1.367 2.05M344.014 416.86l1.226-2.316M342.287 419.487l-4.801 6.756M342.287 419.487l.36-.577M342.287 419.487l-4.12-1.652M337.486 426.243l-3.836-1.526M337.486 426.243l-3.627 5.236M343.162 419.141l.3-.407M343.162 419.141l-.515-.23M342.647 418.91l-4.173-1.62M328.718 413.361l-.613.485M328.718 413.361l9.756 3.93M360.854 403.752l-1.716 2.289M372.56 395.669l-1.632.384-.527.232-.422.395-5.469 7.565-.21.123-.147.02-.136.019-.328-.088-1.875-1.164-.143-.02h-.14l-.109.017-.128.057-.44.543M342.055 429.04l-3.924 5.329M342.055 429.04l1.622-2.121M342.055 429.04l-4.477-1.873M343.677 426.919l1.42-2.025M343.677 426.919l-4.582-1.877M345.098 424.894l1.448-2.01M345.098 424.894l-4.604-1.829M346.546 422.883l1.725-2.116M346.546 422.883l-4.557-1.938M348.271 420.767l1.399-2.008M348.271 420.767l-4.81-2.033M349.67 418.759l1.606-2.139M349.67 418.759l-3.962-1.667M347.232 415.05l1.544-2.137M347.232 415.05l-1.524 2.042M347.232 415.05l4.044 1.57M351.276 416.62l1.516-2.02M348.776 412.913l4.016 1.686M352.792 414.6l1.606-2.1M354.398 412.5l1.604-2.164M352.059 408.704l3.943 1.632M356.002 410.336l1.554-2.227M357.556 408.109l1.582-2.068M355.366 404.41l3.772 1.631M359.33 382.962l4.028 1.585M357.863 386.394l-.56 1.34M357.863 386.394l.954.331M359.26 391.819l-3.145-1.26M357.55 378.88l-2.11 4.672M351.796 386.614l-.793 2.225M351.003 388.839l-2.098 4.7M351.003 388.839l5.112 1.72M348.905 393.54l-2.151 4.64M346.754 398.18l-2.183 4.977M344.571 403.157l-2.137 4.691M339.39 415.048l-.916 2.242M339.39 415.048l1.006-2.328M333.65 424.717l-7.22-2.74M333.65 424.717l-3.957 5.415M333.65 424.717l4.517-6.882M293.77 375.89l.309.035.474.028 4.793.33M203.333 338.456l.193.801.012.553-.193.603-.199.796.12.587.33.463 6.588 5.549 1.085.8.289.334.12.428.079.469.253.67.645.841 1.331 1.659.755.74M507.209 199.564l.803 3.923M507.209 199.564l-.878-3.17M510.852 195.642l-1.994 1.82-1.65 2.102M496.822 202.208l8.436-2.052 1.95-.592M269.318 532.679l-.035-.27M275.332 528.994l-5.423 3.665-.591.02" clip-path="url(#p7e3f0a397c)" style="fill:none;stroke:#000"/><path d="m270.178 549.212-.357-3.968-.229-6.026-.274-6.54M266.515 510.64l-9.507 8.759M266.515 510.64l6.353-6.158M266.515 510.64l1.876 14.824M612.992 609.605l4.055.074.915-.41.437-1.04.08-5.135-.12-.893-.795-.669-.318-.744.874-.186 2.823 1.34.756 1.004 6.548 2.252M615.736 534.736l2.173 1.39 2.73 1.649.771.469 5.834 3.842 1.581 1.165 1.154 1.276.59 1.114.764 2.418 5.727 21.206.21 1.718-.106 1.227-8.917 32.988M513.397 433.438l7.305 9.355 5.83 8.107 3.3 5.047.903 2.172.723 2.82.648 4.3 1.28 6.119 1.507 8.177.964 5.061.482 1.467 2.659 5.886M615.736 534.736l-9.394-5.674-3.073-1.804-1.959-.592-12.825-3.448-8.814-3.615-3.94-1.382-1.43-.592-1.424-.804-3.91-2.608-10.83-8.092-3.164-2.369-2.395-1.776-3.683-2.192-4.632-2.454-1.68-1-1.582-1.298-1.122-1.389-.88-1.698" clip-path="url(#p7e3f0a397c)" style="fill:none;stroke:#000"/><path d="m498.92 500.027 4.745-.796 8.888-1.777 13.106-2.608 7.32-1.565 6.019-1.332M507.363 437.855l.896-.617 3.827-2.918 1.31-.882M615.736 534.736l3.528-6.644" clip-path="url(#p7e3f0a397c)" style="fill:none;stroke:#000"/><path d="m484.217 439.663 3.706 16.016 3.804 15.693 6.364 26.188.83 2.467M500.242 438.594l-4.365.293-11.66.776M231.382 342.88l2.425-1.749 1.883-1.311 4.79-3.511 3.751-2.75 3.736-2.51 1.28-.874.723-1.059M232.143 296.328l.124.2.083.17.086.212.522 1.346 2.016 5.506 2.501 6.561.88 2.998.71 2.336 1.837 5.007.675 1.271 1.459 2.127 1.133 1.483 1.144.976 3.544 2.24.602.225.51.13M262.046 325.18l-.584.15-3.459.909-2.494.688-1.23.485-1.994 1.072-.91.36-.861.215-.544.057M225.77 367.084l5.83-12.303M259.213 373.588l34.357 3.443M236.3 409.497l.249-.388 1.551-1.925 5.197-5.83 3.631-3.75 4.037-4.54 1.928-1.932.648-.889.316-.986.212-.932.752-2.34 2.124-5.598 2.268-6.8M233.005 413.917l-.47.445-2.584 2.608M233.958 413.149l-.953.768M236.3 409.497l-.49 1.057-.158.762-.195.472-.256.325-.633.536-.61.5M233.958 414.249l-.06-.339.018-.448.042-.313M235.84 404.88l-.677 1.268-.414.811-.151.38-.068.36.038.332.158.324.256.331.444.423.422.254.452.134M113.358 542.984l.494-1.678 3.65-14.476.487-1.818 4.299-18.076 5.095-21.154M292.813 485.633l-5.062 4.709M292.813 485.633l9.008-8.354M301.008 493.112l-1.68-1.586-6.515-5.893M286.26 491.702l-9.867 9.425M286.26 491.702l1.491-1.36M296.18 494.444l-2.99 2.573-.257.078-.248-.007-.264-.134-.263-.212-1.858-1.568-4.04-3.472M301.821 477.28l1.085 2.685M326.558 478.909l-3.978-2.18-.994-.521-.543-.254-.407-.099-.482.029-.421.098-.829.198-2.516.93-3.14 1.227-.777.232-1.144.148-5.318.444-.64.092-.512.134-.625.162-1.326.416M318.155 496.055l-1.887-1.343-1.062-.768-1.047-.867-.49-.451-.452-.473-.504-.529-.347-.401-2.569-3.321-1.762-2.009-1.634-1.776-.633-.649-.708-.578-.753-.521-.43-.402-.27-.331-.264-.48-.437-1.191M285.153 485.802l.007.303-.037.233-.106.26-.143.318-.022.24.068.197.233.275 2.598 2.714M276.393 501.127l-2.056 1.966M276.393 501.127l-1.423-1.312M274.337 503.093l-1.469 1.39M274.337 503.093l-1.828-1.71M285.236 511.49l-.264.464-.293.48-.347.655-.271.346-.415.19-.414-.014-.309-.12-1.619-1.46-8.436-7.549M268.391 525.464l.892 6.945M279.28 519.576l-8.557 5.555-.603.084-.994-.028-.735.277M264.108 534.987l.409-.185 4.766-2.393M245.347 526.5l-9.088 3.978M254.3 521.797l-1.316 1.029-1.296.805-1.468.774-4.873 2.095M244.885 543.675l-.689-14.697.603-1.072.548-1.406M240.5 518.826l2.86-.442 1.987 8.116M235.587 556.102l.158-8.631 9.14-3.796M253.73 539.69l-8.255 3.74-.59.245M235.587 556.102l.256 5.464M233.05 556.85l1.574.614.5-.073.209-.246.254-1.043M253.73 539.69l10.378-4.703M253.73 539.69l-.169-6.231M263.187 549.586l1.915-1.08.524-.761-1.518-12.758M270.178 549.212l2.778 2.394M257.008 519.399l-1.689-3.862M254.3 521.797l.77-.654 1.938-1.744" clip-path="url(#p7e3f0a397c)" style="fill:none;stroke:#000"/><path d="m252.775 516.003 1.39 4.467.136 1.327M233.261 521.06l1.26.957 1.738 8.461M215.403 536.099l-5.634.678M215.403 536.099l-3.754-10.204M209.769 536.777l-2.395-10.514M195.753 538.476l-1.781-5.684M102.554 587.302l-1.823 6.608M114.6 592.6l-1.244-.48-10.802-4.818M162.593 577.53l-9.062-2.101-1.04-.205-3.766-.648-.934-.085-.873-.02-2.6.19-.812.056-.89-.021-1.092-.12-3.156-.592-1.1-.057-1.423.085-.881.24-1.032.458-1.25.88-1.1.854-2.049 1.797-1.656 1.656-.806.656-.799.543-2.712 1.466-.978.726-1.296 1.163-1.65 1.691-1.12 1.284-.582.704-.58.902-.565.825-.745 1.22-.52.704-.49.458-.435.36M118.898 593.649l-.896-.106-1.22-.246-1.115-.261-1.068-.437M108.564 562.988l1.947-7.878M108.564 562.988l.4-.289M105.452 575.156l1.053-3.96 2.06-8.208M108.963 562.7l11.652.267.206-.081.122-.117.094-.172.05-.173.432-4.66.06-1.042-.015-1.48-.365-7.339M336.77 510.2l-2.086-1.664-3.669-2.764-4.353-3.221-3.224-2.58-3.69-2.806-1.593-1.11" clip-path="url(#p7e3f0a397c)" style="fill:none;stroke:#000"/><path d="m315.872 500.766.935-1.196.915-1.27.512-.818.09-.465.019-.243.004-.208-.072-.261-.12-.25M193.624 166.593l8.61-2.117.199-.855-4.643-11.814-3.293-7.951.235-1.47M187.653 144.107l1.627-.787 4.545-.894.907-.04M235.483 168.006l-2.469-.184-.982-.972-.842-2.522-.336-2.049-.983-.289-1.6-.263-1.879.578-1.688 1.065M221.567 216.172l-.383 1.948M226.909 219.167l-1.48-1.17-1.467-1.534-.422-.258-.428-.067-1.545.034M221.184 218.12l-.784.035-.43.19-.316.417-1.59 8.074-.338.733-.346.641-1.599 1.696-.449.268-.429.072-.467-.08-2.692-1.001M210.895 241.45l3.967 2.77M216.171 245.187l-.584-.462M216.171 245.187l.268-1.862M219.59 270.507l-.387-1.131-.89-2.479-.423-1.348-.654-2.773-.722-4.097-.392-3.815-.259-4.492.308-5.185M188.585 301.838l.346-.141.361-.289 2.044-2.647.147-.103.194.01.126.084.115.125 2.233 5.668.248.234.4.042.286-.078 4.03-3.56 3.411-3.082.765-.469.29-.137.286-.039.214.072.178.19.135.27.867 1.968.3.395.407.316 3.543 2.347 2.536 1.743.896.846 1.04 1.178 3.707 3.951 1.699 1.662.68.465.678.204 3.178.507.856.173 1.005.335 3.698 1.516.888.247 1.16.05 1.017.14 1.138.367M175.449 396.532l.745-.762M185.888 410.125l.896-.84.535-.627.211-.373.038-.318-.053-.233-.588-.486-1.483-1.374-5.175-4.985-4.82-4.357M151.514 422.825l9.142-10.36 2.485-2.848 7.97-8.53 4.338-4.555M151.514 422.825l5.577 6.328M139.877 441.451l.876-1.934.68-1.26M219.929 271.383l-.934.324M219.929 271.383l.169.51M219.929 271.383l-.339-.876M218.945 271.728l-1.003.35-2.046.748-1.814.938-4.256 2.1-5.898 2.797-11.786 5.243-6.547 2.913-3.941 1.965-2.033.75-2.682.42-3.063.17-2.138-.062-2.224-.125-1.64-.25-2.415-.733-12.283-4.422-6.118-2.368-2.166-.571-2.615-.358-10.02-.857-3.417-.358-1.947-.554-3.53-2.34M215.587 244.725l-.725-.506M323.884 375.404l-.268 1.466M323.506 378.833l.11-1.963M329.66 380.01l-2.618-.5-3.536-.677M320.18 376.572l3.436.298M297.298 367.55l.37-3.944M308.95 371.94l-5.02-3.051-3.534-.386M330.474 394.709l4.49 1.84M330.474 394.709l-1.956 1.58M342.434 407.848l-1.091 2.525M340.396 412.72l4.844 1.824M340.396 412.72l-7.154-3.003M341.343 410.373l-.505 1.198-.241.659-.2.49M338.474 417.29l-.307.545M338.167 417.835l-10.062-3.99M335.073 407.89l-1.707 1.72-.124.107M337.578 427.167l-3.222 4.643M324.139 388.8l-.16 1.623M313.266 387.957l-.116 1.016M311.258 403.758l.489-4.181M302.439 386.634l-.15 1.156M300.286 402.27l.571-4.13M301.957 390.37l-.407 2.524M301.957 390.37l.331-2.58M301.957 390.37l10.796 1.37M312.753 391.74l-.341 2.55M312.753 391.74l.397-2.767M323.566 392.922l-3.118-.352-7.695-.83M323.566 392.922l-.358 2.577M323.566 392.922l.413-2.5M329.84 391.012l-1.868 1.896-.346.23-.207.105-.358.078-.361.02-.618-.045-2.516-.374M329.84 391.012l-5.86-.59M302.288 387.79l10.862 1.183M313.15 388.973l10.83 1.45M301.55 392.894l-.361 2.68M301.55 392.894l10.862 1.397M312.412 394.29l-.323 2.643M312.412 394.29l10.796 1.209M323.208 395.499l-.377 2.663M323.208 395.499l5.31.79M301.189 395.573l-.332 2.566M301.189 395.573l10.9 1.36M312.09 396.933l-.343 2.644M312.09 396.933l10.741 1.229M322.454 400.829l.214-1.169.163-1.498M300.857 398.14l10.89 1.437M311.747 399.577l10.707 1.252M344.684 416.638l1.024.454M334.356 431.81l-.497-.33M334.356 431.81l3.775 2.559M334.356 431.81l-1.48 2.089M332.875 433.899l3.785 2.413M332.875 433.899l-1.295 1.849M338.13 434.369l-1.47 1.943M331.58 435.748l-.464-.344M331.58 435.748l3.547 2.593M331.58 435.748l-1.704 2.395M336.66 436.312l-1.533 2.029M329.876 438.143l3.222 2.084.245.075.233-.026.162-.105.133-.119 1.256-1.711M341.989 420.945l-1.495 2.12M340.494 423.065l-1.399 1.977M176.194 395.77l-1.303-.169-1.566-.408-1.793-.65-5.032-3.369-7.788-5.415-10.213-7.064-8.857-6.316-3.345-1.89-3.253-1.664-4.76-1.438-4.761-1.1-11.51-2.848M186.75 384.346l-4.583 5.094-3.253 3.461-2.72 2.87M400.597 417.714l-2.013-1-2.53-1.509-1.236-.987-1.597-1.466-5.695-5.852-4.413-4.356-2.15-1.892-3.014-3.312-.308-.193M408.164 389.238l-28.768 6.768-1.755 1.141M418.544 419.985l2.267-6.697M415.739 420.484l1.389.093.919-.127.497-.465M444.59 422.146l-25.73-1.438-.316-.723M458.803 298.503l6.047-18.133M458.803 298.503l10.07-2.213M458.803 298.503l-16.859 3.73M448.718 327.587l.667-1.53 9.418-27.554M468.333 269.928l-3.483 10.442M468.333 269.928l-5.483 1.173M468.333 269.928l21.16-4.932M478.194 240.817l-2.226 6.303-7.635 22.808M269.247 174.89l1.23 5.007M329.66 380.01l4.971 1.006M307.996 418.314l.555-.42M308.551 417.894l2.21-1.498M308.551 417.894l-2.214-2.274M310.76 416.396l2.254-1.5M310.76 416.396l-2.394-2.543M313.014 414.897l2.343-1.564M313.014 414.897l-2.526-2.85M315.357 413.333l2.35-1.607M315.357 413.333l-2.889-3.023M317.707 411.726l2.32-1.352M317.707 411.726l-3.208-3.264M320.026 410.374l-3.383-3.678M322.64 409.243l-1.16.451-.693.3-.76.38M322.64 409.243l-3.919-4.358M324.949 407.678l-1.33.941-.569.388-.41.236M324.949 407.678l3.513-2.404M324.949 407.678l-4.143-4.635M328.462 405.274l-6.883-2.902M330.465 403.138l-.67 1.1-.18.24-.294.253-.859.543M306.337 415.62l2.03-1.767M242.25 423.977l1.047-.754 1.228-.832 2.117-1.699 2.101-1.678 2.644-2.002.904-.719.64-.768.987-1.552.421-.457.46-.177.422-.021.534.148.648.493 3.812 2.454 4.097 2.467 3.118 1.707 1.777.45 1.296.24 4.715 1.072.95.127 1.264-.028 1.959-.127 2.56-.184.71.028.797.17 8.353 1.804 2.365.55 1.01.1.437-.064.247-.138 8.714-7.635 1.753-1.332M308.366 413.853l2.122-1.806M310.488 412.047l1.98-1.737M312.468 410.31l2.03-1.848M316.643 406.696l-1.144.89-1 .876M316.643 406.696l2.078-1.811M318.721 404.885l2.085-1.842M320.806 403.043l.773-.67M323.178 400.886l-.68.58-.92.906M358.817 386.725l.016.406-.004.125-.02.072-.062.09-.093.06-.169.067-.247.097-.175.063-.27.092h-.19l-.3-.063M342.646 394.043l-5.509-2.083M341.343 410.373l-6.27-2.483M496.822 202.208l-6.224 2.204M495.801 208.628l-.926-3.434 2.44-.825-.493-2.16M507.506 206.717l.516 1.806.087.536-.026.24-.11.176-.21.148-3.752.98M507.506 206.717l.618-.514" clip-path="url(#p7e3f0a397c)" style="fill:none;stroke:#000"/><path d="m498.604 208.086 1.31-.127.791-.092 1.325-.035 1.01-.078 1.032-.155 1.838-.416 1.227-.353.37-.113M506.422 203.869l1.59-.382M506.422 203.869l-3.91.938-.406-.085-.37-.219-.225-.275-.03-.557.128-.331.27-.282.506-.205.572-.148 2.071-.331.475.042.376.162.324.402.219.889" clip-path="url(#p7e3f0a397c)" style="fill:none;stroke:#000"/><path d="m506.422 203.869-.219-.889-.324-.402-.376-.162-.475-.042-2.07.331-.573.148-.505.205-.271.282-.128.331.03.557.226.275.369.219.407.085 3.909-.938M508.012 203.487l.112 2.716M498.604 208.086l-2.803.542M501.609 214.664l-.407-.923-.433-.737-.889-.254-.689-.384-.587-4.28M502.469 214.918l-1.052.248M502.469 214.918l2.915-.687M502.469 214.918l-.86-.254M501.609 214.664l-.192.502M520.982 210.553l-10.137 2.39M506.331 196.394l4.521-.752M510.845 212.944l-.431-6.212-.113-.41-.249-.21-.467-.184-1.46.275M510.845 212.944l-5.461 1.287M485.283 218.97l4.05-1.027M485.283 218.97l.711-2.04M481.255 231.56l2.544-7.697 1.484-4.893M501.417 215.166l-6.81 1.578M507.363 437.855l-.46.278-.285.07-1.273-.031-.493.021-.795.144-3.815.257M507.363 437.855l-1.95-1.844-.791-.528-.663-.106-.686.19-.768.508-1.33 1.434-.933 1.085M489.333 217.943l5.274-1.199M489.333 217.943l-.883-1.798M488.45 216.145l-1.41-2.217M488.45 216.145l-2.456.785M494.607 216.744l.192-.98-.082-.282-.294-.253-.61-.127-1.024-.035-1.176-.028-3.163 1.106M345.63 414.258l-.39.286M331.116 435.404l-1.717 2.43M331.116 435.404l2.743-3.925M322.454 400.829l.724.057M186.75 384.346l-.452-.783v-.757l.132-.511.769-.889 2.025-1.827.076-.131-.01-.11-.042-.095-.127-.174-1.38-1.664-1.521-1.639-.381-.328-.233-.067-.192.01-.249.096-.327.197-.264.212-.29.155-.275-.014-.207-.134-.17-.155-.218-.342-.418-.451-.527-.41-.814-.676-.617-.607M293.57 377.031l.2-1.142M233.958 414.249l-.21-.113-.197-.085-.275-.07-.271-.064M159.571 520.2l-1.037 3.79-.293.466M146.218 566.237l-.41-.406-.011-.44.626-.812 1.386-1.737.2-.51M113.683 549.626l-.615 1.64-1.039 4.469-.799 3.171-.745 1.728-.58 1-.46.572-.482.493M220.098 271.892l-1.103-.185M218.995 271.707l-.05.021M219.59 270.507l-.645 1.221M216.439 243.325l.346-2.404 1.016-5.313 3.09-16.056.293-1.432M214.862 244.22l.77-.475.807-.42M329.876 438.143l-.477-.309M448.718 327.587l26.315-5.996M448.718 327.587l-27.164 5.764M439.58 356.012l-.241-.14 9.379-28.285M441.944 302.233l6.268 24.97.506.384M429.509 251.596l-26.737 5.92M429.509 251.596l6.168 25.322M456.463 245.629l-25.804 5.713-.527.117-.623.137M440.11 222.365l-1.963.448-5.951 7.232-1.905 2.48-4.534 2.557.34 1.77.34 2.484.796 2.892 2.276 9.368M422.74 216.456l5.349 5.514 2.139.367 3.344-1.185.708-.156 1.973-.436 2.08-.113 1.656.367.633.564-.512.987" clip-path="url(#p7e3f0a397c)" style="fill:none;stroke:#000"/><path d="m447.282 221.02-1.43.755-1.315.616-1.869.195h-1.834l-.724-.221M390.168 206.866l20.217-4.345.776-.257 6.667 9.15 4.913 5.042M232.618 294.641l9.187-2.026M402.772 257.516l2.379 9.492M376.13 262.993l14.115-3.112.45-.583v-9.072l.415-2.397.415-1.426 1.142-.81 3.392-.68 1.038.161 1.869-.356.727-.194 3.08 12.992M478.194 240.817l3.06-9.258M478.194 240.817l-21.731 4.812M487.693 212.055l-11.416 2.547M487.693 212.055l-.652 1.873M487.693 212.055l.9-2.371M450.074 220.447l-2.792.572M450.074 220.447l26.203-5.845M450.074 220.447l6.389 25.182M490.598 204.412l-5.754 1.608-5.995 2.172-3.796 1.071-3.586 1.016-4.88 1.24-4.43 1.778-3.102.818-4.279 1.495-7.494 5.41M476.277 214.602l4.978 16.957M481.255 231.56l2.078 8.197M483.333 239.757l6.16 25.24M483.333 239.757l26.832-5.99M489.493 264.996l6.403 25.076M489.493 264.996l4.99-1.106M495.896 290.072l26.302-5.605M487.102 292.572l.527-.353.467-.282 7.8-1.865M519.852 273.198l.062.254 2.353 10.367-.069.648M521.701 291.892l.33-.544.708-2.064.208-1.183-.194-.447-.36-.832-.519-1.167.324-1.188M516.383 259.034l-21.9 4.856M516.383 259.034l3.469 14.164M516.383 259.034l-6.218-25.268M543.569 252.133l-.63-.025-.892.983-.918.589-24.746 5.354M435.677 276.918l6.267 25.315M435.677 276.918l27.173-5.817M408.89 282.88l6.403-1.425 20.384-4.537M408.89 282.88l-11.465 2.486M408.89 282.88l-3.739-15.872M408.89 282.88l2.167 8.496M441.944 302.233l-26.73 5.755M418.276 334.039l3.278-.688M421.554 333.351l-6.34-25.363M428.668 358.242l-.8-.42-6.314-24.47M475.033 321.591l-6.16-25.301M475.217 348.278l3.75-11.146 1.417-9.108.498-2.627.708-2.652.524-2.48-.603-.048-6.478 1.374M475.217 348.278l-35.638 7.734M451.801 380.043l.263-.217 4.852-3.486 1.443-1.694 14.32-21.727 2.538-4.64M439.58 356.012l-10.912 2.23M433.143 376.707l.944-2.775 5.878-17.697-.386-.223M401.755 364.064l-.685.148-15.116 3.206.18 2.02.843 2.057 1.486 3.629 2.692 1.545.93 1.183.21 1.086-2.168 3.877-1.782 2.222-.7.155-.546.12-.768-.438-1.808-3.031-.934-1.552-.331-1.226-1.371-2.806-.693-.55-.861-.454-2.137-.153-1.672-.366-.768-.874-.739-1.1M408.164 389.238l22.328-4.74M408.164 389.238l-6.41-25.174M408.164 389.238l6.193 25.464M430.492 384.497l2.651-7.79M420.81 413.288l.732-2.158 7.364-21.97 1.586-4.663M420.81 413.288l-6.453 1.414M440.907 409.13l-19.734 4.36-.362-.202M400.597 417.714l13.76-3.012M415.739 420.484l-3.266-.217-5.242-.48-3.782-.817-2.455-1.058-.397-.198M415.739 420.484l-1.382-5.782M428.668 358.242l-.74.151-26.173 5.67M394.874 339.091l5.97 24.766.91.207M394.874 339.091l-2.976-11.808M394.874 339.091l10.002-2.154M394.874 339.091l-13.03 2.964M440.907 409.13l3.08 12.678.602.338M471.439 418.72l-8.86 2.01-3.53.615-2.422.324-2.7.324-1.765.097-2.942.065h-2.976l-1.655-.009M434.737 383.823l-1.594-7.116M434.737 383.823l17.064-3.78M440.907 409.13l-.024-.096-6.146-25.211" clip-path="url(#p7e3f0a397c)" style="fill:none;stroke:#000"/><path d="m428.668 358.242 4.382 17.205.093 1.26M415.214 307.988l-4.157-16.612M415.214 307.988l-22.549 5.164M411.057 291.376l-11.959-.606M405.151 267.008l-4.395.797M468.873 296.29l11.3-2.562M468.873 296.29l-4.023-15.92M487.102 292.572l-.377 1.354-.301.79-.648.563-.693.113-.617.014-1.01-.296-1.506-.733-.919-.663-.859.014" clip-path="url(#p7e3f0a397c)" style="fill:none;stroke:#000"/><path d="m487.102 292.572-.361-.747-.618-1.34-.497-1.17-.227-.523-.587-.606-.783-.084-.392.281-.632.65-.874.69-.829.846-.301.451-.527 1.1-.151.818-.15.79M502.147 315.703l-2.474-9.022-.104-.535.554-.713 1.54-.89 4.17-3.434 2.37-1.96 1.8-1.248 5.434-2.818 2.024-1.183 4.24-2.008" clip-path="url(#p7e3f0a397c)" style="fill:none;stroke:#000"/><path d="m528.782 309.815-.059-.236-3.498-14.235-.437-1.655-.22-.707-.457-.485-.715-.334-.815-.187-.88-.084M502.147 315.703l26.635-5.888M502.147 315.703l-11.974 2.59M509.051 340.875l-1.141-4.503-.745.113-5.018-20.782M509.051 340.875l6.178 25.122M509.051 340.875l26.072-5.75M488.354 371.958l-5.986-24.307.725-1.22 25.958-5.556M515.23 365.997l6.204 25.5M515.23 365.997l-26.876 5.961M515.23 365.997l26.99-5.548M521.434 391.496l3.994 16.308M521.434 391.496l-26.74 5.903M545.452 386.156l-.231.266-23.787 5.074M525.428 407.804l-26.926 5.443M543.735 404.08l-.43.1-17.877 3.624M498.502 413.247l-27.063 5.474M498.502 413.247l-3.809-15.848M471.439 418.72l-3.567-15.407M455.287 405.982l-.122-.03-14.258 3.177M467.872 403.313l26.821-5.914M455.287 405.982l.48.118.407.393.434.723.471.922.158.699.21.466.223.357.34.367.433.21.38.085.473-.024.525-.135.432-.295.394-.503.38-.614.669-.994.616-1.387.735-1.08.603-.688.603-.478.511-.221 3.108-.59M494.693 397.4l-6.339-25.442M542.22 360.449l3.93-1.027M535.123 335.126l1.193 5.321 1.014.354 4.89 19.648M545.621 378.809l-.102-5.336-.676-1.99-.894-3.61-1.73-7.424M535.123 335.126l-6.341-25.311M535.123 335.126l6.77-1.556M528.782 309.815l4.6-.999M539.403 307.407l16.336-3.532M555.739 303.875l15.712-3.52M555.739 303.875l-6.27-25.348M569.193 354.614l-2.465-10.066-1.18-1.326-3.462-13.896-6.347-25.45M587.837 296.684l-5.258 1.178M532.296 282.275l17.174-3.748M574.154 273.14l-8.86 1.933M582.579 297.862l-4.862-19.899-1.232-2.504-2.33-2.32M561.519 260.091l.279.143 2.832 1.154 1.627 1.105 1.678 2.185 2.754 3.388 2.334 3.192 1.131 1.881M456.463 245.629l6.387 25.472M494.482 263.89l25.37 9.308M550.912 257.068l-1.915-1.768-1.414-.825-4.014-2.342M536.832 227.812l6.057 23.582.68.739M549.47 278.527l-4.118-16.45.708-1.007 2.596-1.596 1.732-1.006.524-1.4M561.519 260.091l-3.078-1.576-2.099-.393-2.282-.22-1.415-.123-1.05-.148-.683-.563M549.47 278.527l15.825-3.454M569.193 354.614l6.19 25.336M569.193 354.614l-16.168 3.297M569.193 354.614l25.783-6.138M575.383 379.95l4.223 17.676M575.383 379.95l26.692-6.194M575.383 379.95l-19.464 4.157M579.606 397.626l27.015-5.72M543.735 404.08l.842-.198.954-.037 34.075-6.219M606.62 391.906l-4.545-18.15M630.786 373.704l-10.57 9.918-7.344 6.064-1.941 1.08-4.31 1.14M582.579 297.862l6.18 25.253 2.57 10.581 1.207 5.131.472 1.498 1.968 8.151M602.075 373.756l-.097-.386-5.35-21.825-.84-.22-.812-2.849" clip-path="url(#p7e3f0a397c)" style="fill:none;stroke:#000"/><path d="m621.868 342.475-4.564.982.266.621 1.314.778 1.108.777.45 1.199-.104.907-.969 1.522-1.038.065-1.315-.194-1.938-1.005-2.458-.971-1.418-.583-1.523-.454-1.488-.162-1.973.065-11.242 2.454M582.579 297.862l-11.128 2.493M561.519 260.091l3.776 14.982M565.295 275.073l6.156 25.282M620.815 304.19l-.19 3.93M609.459 291.92l2.013 9.08.54.594 1.56.11 1.987-.15 3.95.6.754.726.552 1.31M579.926 271.914l23.366-5.184M609.459 291.92l-15.27 3.327-2.539-3.965-4.75-9.348-6.974-10.02M570.786 246.729l-.521 1.371 3.488 15.321 6.173 8.493M634.032 276.732l-4.071-15.918M634.032 276.732l2.237 9.348M602.075 373.756l26.976-6.078M629.051 367.678l1.735 6.026M621.868 342.475l2.885 11 .709.466 3.59 13.737M621.868 342.475l-3.677-15.102M615.704 317.162l-2.806-10.925M612.898 306.237l-.866-.417-1.888-.123-2.282-.27-2.124.098-1.731.098-1.6.099-1.128.27-1.69 1.38-1.877 2.621-.341 2.137.446 7.93.262 1.252 17.625-4.15M615.704 317.162l10.802-2.299M615.704 317.162l2.487 10.21" clip-path="url(#p7e3f0a397c)" style="fill:none;stroke:#000"/><path d="m620.625 308.12-.287.323-.588.324-1.696.291-1.003-.486-1.074-.842-1.557-.907-1.522-.586M636.269 286.08l-26.81 5.84M629.96 260.814l-26.668 5.916M629.96 260.814l-2.99-11.505M623.45 235.767l3.52 13.542M623.45 235.767l.145-1.495M596.855 241.312l25.681-5.62.914.075M596.855 241.312l6.437 25.418M596.855 241.312l-6.142-25.233M570.786 246.729l.271.198.256.07h.512l25.03-5.685M570.138 243.076l.452.339.437.465.241.635-.18.649-.317.663-.075.577.09.325M563.917 221.965l5.091 20.407.315.319.815.385" clip-path="url(#p7e3f0a397c)" style="fill:none;stroke:#000"/><path d="m563.917 221.965-7.834 1.72-.873 4.894-.317 1.184-.873 2.187-1.04 5.838-.783 7.39.783 3.638.98 2.059 10.65-2.496 1.265-.24.844-.832.768-1.185.814-1.367.722-1.128.603-.55h.512M563.917 221.965l9.74-2.14M563.917 221.965l-6.248-25.35M623.38 208.904l-1.058-4.04M623.38 208.904l-32.667 7.175M623.595 234.272l-.36-.173-1.898-1.523-.452-1.185-.181-1.607.302-1.72 1.446-8.745 1.024-5.697.301-2.99-.397-1.728M580.575 174.87l2.36-.073 1.89.319 2.15.368 1.626.393 1.259-.074 1.547-.466.84-.639 1.258-.957 1.102-1.425 1.758-2.996 1.52-1.62 2.492-1.94 1.075-.663 1.181-.491 2.045-.81 2.151-1.008 2.072-.859M616.84 183.724l-1.12-5.391-.603-2.48-.603-1.94-1.075-3.61-.918-2.505-.682-1.645-.84-1.13-.524-1.007-1.05-1.301-.524-.786M580.575 174.87l3.75 15.96M557.67 196.615l-.07-.283-.945-3.463.21-1.08 1.354-3.254 11.734-9.343 2.334-1.424 3.2-1.597 1.678-.908 3.41-.393M609.459 291.92l-6.167-25.19M590.713 216.08l-6.389-25.25M590.713 216.08l-17.055 3.745M584.324 190.83l32.515-7.106M584.324 190.83l-17.012 3.693M557.67 196.615l9.642-2.092" clip-path="url(#p7e3f0a397c)" style="fill:none;stroke:#000"/><path d="m529.657 196.387.69.066 2.74.213 2.74-.406 2.124-.299 5.593-.791 3.631-.556.545.075.516.071.492.068 2.01.406 3.652.983 3.28.398M622.322 204.864l-3.506-13.394-.499-2.357-1.364-4.838-.114-.55M567.312 194.523l6.346 25.302M528.885 196.313l-1.894-.181-.675-.132-4.166-.809-4.292-.64-7.006 1.091M528.885 196.313l.772.074M536.832 227.812l-7.147-29.842-.8-1.657M536.832 227.812l-26.667 5.954" clip-path="url(#p7e3f0a397c)" style="fill:none;stroke:#000"/><path d="m529.657 196.387 1.557.756 1.393.214 1.803.234 1.918.108 1.918.15 4.361-.343 1.142-.278.754 2.651 1.164 3.142-.046 1.69.525 1.517.343 1.624.274 2.672.388 2.587 1.119 3.014.114 4.938-.457.79-.707.556-.868.556-.411.663-.265 2.299-8.844 1.885M628.96 243.435l-1.206 5.528M623.595 234.272l.754.363 2.682 1.27 1.115 2.2.422 2.34.391 2.99M627.754 248.963l-.784.346M620.625 308.12l-.023.475.868 1.539 5.036 4.73M545.621 378.809l-.042.487-.199 3.35.477 1.246.06 1.73-.465.534M543.735 404.08l-.391-1.054-.159-.93.477-1.414.318-1.488 1.034-2.27.452-1.424.7-2.558-.635-2.754-.12-1.264.04-2.768M554.733 380.242l-.15-.345-.555-.34-1.295-.173-7.112-.575M554.733 380.242l-.31.894-1.203 2.16-.213.94.376.412 2.536-.541" clip-path="url(#p7e3f0a397c)" style="fill:none;stroke:#000"/><path d="m554.733 380.242.214.488.868 3.206.104.17M488.354 371.958l-18.273 4.082M451.801 380.043l-4.825 3.982-1.522 1.62-.865 1.497.078.761.735.688.603.098 6.573-3.233 1.69-.597 1.31-.049 1.732.663 1.1.614.866 1.472.656 1.768.148 3.412-.804 5.72-.727 4.256-.95 2.618-2.312.649M505.384 214.23l4.78 19.536M490.598 204.412l-2.006 5.272M370.901 242.467l5.229 20.526M376.13 262.993l-27.123 5.982M376.13 262.993l4.635 19.66M241.347 319.416l6.75-1.49M363.64 327.623l-1.943-7.969M371.084 317.62l-9.387 2.034M361.697 319.654l-27.037 5.974M352.422 294.896l.852-.189 2.1-.042.595 1.496 5.728 23.493M316.924 329.546l17.736-3.918M336.606 333.35l-1.946-7.722M334.66 325.628l-6.118-25.461M328.542 300.167l23.88-5.271M328.542 300.167l-26.926 5.944M328.542 300.167l-6.295-25.29M322.247 274.876l26.76-5.9M322.247 274.876l-26.944 5.942M322.247 274.876l-4.866-20.054M349.007 268.975l5.363 21.885-1.948 4.036M349.007 268.975l-6.282-26.08M291.488 264.954l3.815 15.864M295.303 280.818l-26.716 5.891M295.303 280.818l6.313 25.293M301.616 306.111l-26.794 5.915M306.934 332.71l.583-2.565-5.901-24.034M274.822 312.026l-26.725 5.9M274.822 312.026l-6.235-25.317M268.587 286.71l-26.782 5.905M268.587 286.71l-2.397-9.914M248.097 317.926l-6.292-25.31M231.42 268.273l4.097-.894M293.572 254.72l-4.29.936M264.483 270.196l-2.13-8.668M262.353 261.528l26.93-5.872M262.353 261.528l-26.836 5.851M262.353 261.528l-6.174-25.028M242.061 179.263l1.622 6.576M233.521 188.113l10.162-2.274M243.683 185.839l6.247 25.328M243.683 185.839l26.793-5.942M319.875 151.215 324.118 168M324.118 168l9.366-2.077 1.598-1.068.776-1.07 1.28-3.206.045-1.454-1.142-1.582-1.598-1.068-1.553-.77-1.37-.94-1.279-1.326-2.237-1.026-1.599-.556-2.83-.17-3.7-.472M318.003 143.007l.411 2.95-.457.427-2.648.47-1.097.086-1.004.556-.41.727.73 1.197 1.37.812 1.872.385 3.105.598M318.003 143.007l-6.472-25.486M318.003 143.007l37.491-8.38M318.003 143.007l-27.1 5.585M297.27 173.955 324.117 168M297.27 173.955l6.32 25.29M297.27 173.955l-26.794 5.942M297.27 173.955l-6.367-25.363M314.304 242.11l-4.367-17.47M331.885 219.58l-21.948 5.06M292.841 228.429l17.096-3.789M309.937 224.64l-6.347-25.395M235.074 214.32l14.856-3.153M249.93 211.167l6.249 25.333M276.687 205.517l-6.77 1.493-2.146.256-1.247-.988-.534-1.32-1.781-1.326-1.69-.513-8.174.428-1.005.256-.548.599-.32.556.457 1.753.777 2.223.502 1.325-4.278.908M303.59 199.245l26.858-5.874M276.687 205.517l2.729-.602.821-.898.746-1.84.807-.896 1.278-.642.914-.17.835.169 2.41 2.05.363.132 16-3.575M398.329 239.16l-1.765-6.985M422.943 226.462l-26.38 5.713M396.564 232.175l-6.396-25.309M363.577 212.824l6.074 24.24 26.913-4.889M363.577 212.824l-6.26-25.33M363.577 212.824l-18.403 4.147M363.577 212.824l26.59-5.958M357.316 187.494l-26.868 5.877M390.168 206.866l-6.36-25.166-26.492 5.794M335.042 211.1l-4.594-17.73M330.448 193.37l-6.33-25.37M286.996 149.548l3.907-.956M290.903 148.592l-6.296-25.089M344.854 137.277l3.955 17.138 3.26.264 2.01.727 1.096.213 1.735.46.777-.673.365-1.368-.183-1.24v-1.753l.548-3.036-.182-3.89-1.005-3.25-.73-3.463-1.006-2.78M311.53 117.521l-26.923 5.982M284.607 123.503l-1.73.464M276.687 205.517l-6.21-25.62M256.179 236.5l26.794-6.232 6.31 25.388M235.517 267.379l-5.598-23.281.747-2.062 25.513-5.536M235.517 267.379l1.48 6.099M485.994 216.93l1.047-3.002M488.592 209.684l4.505-.534 2.704-.522M262.046 325.18l-1.093 2.57-3.661 10.674-2.44 6.796-2.125 6.008-2.5 7.12-2.455 7.333-1.371 3.934-.211.677.09.507.452.564.542.198 1.733.169 1.581.07 1.16-.155.889-.211.543-.282.617-.043.226.043.467.31.678.423 1.717.31 3.149.508 2.35.225 1.415-.056" clip-path="url(#p7e3f0a397c)" style="fill:none;stroke:#000"/></g><g id="PatchCollection_1"><path d="m159.722 621.983.21-.07 3.375-.776.362.663.06.86.03.606-.18.69-.046.818.165.846.061.705-.437.112-1.145-1.113-.331-.55-1.025-.394-.602-.79-.317-.705zM148.996 574.942l3.405.55v1.142l-.497.437-.874.197-1.371-.282-.467-.648-.226-.676zM302.539 560.549l1.084-.423.603-.31.603-.846.723-.507v1.015l-.151.705-.422 1.691-.24.761-2.743-1.128zM245.467 418.916l-1.025-1.24.603-.424.572-.226.362-.281 1.084-.141.693.028-.722.93-.633.564-.362.62zM412.09 538.367l.407-.17.814-.24.617-.323.332-.451.738-.198.376-.296.678-.423.829.268-.633.494-.15.352-.302.634-.693.677-.572.79-.512 1.24-.513.24-1.672-2.2zM434.656 514.513l.407.268.286.55-.18.606-.271.451-.196.564.24.72.016.38-.03.733.015.606-.272.367-.256.07-3.148-1.72.166-.395.105-.45.271-.255.362-.676.166-.508.27.226.272.014.467-.507.663-.579zM111.917 591.697l2.006 1.007-.192.414-.383.525-.414.456-.22.414-.266.69-.251.331-.162.483-.045.442-.043.718-.562.428-.383.428-.516.539-.516.469-.443.62-.34.608-.206.47-.073.386-.252.373-.412.373-.532.331-.516.124-.28.373-.236.525-.133.483-.266.442-.22.358-.591.677-.104-.18-.102-.345.177-.593.353-.8.06-.484.236-.456.295-.166.059-.455.118-.372.22-.29.237-.014.34-.138.059-.345.029-.373.162-.511.354-.593.266-.566.176-.235.37-.304.162-.456.088-.29.399-.22.324-.331.088-.346.163-.47.354-.606.133-.304.073-.414.296-.263.132-.427.089-.4.162-.456.236-.497.148-.415zM222.566 135.84l-.898 3.036h.464l.463-.082.665-.135.493-.135.376-.326.377-.38-.174-.65-.376-.38-.609-.677zM113.219 379.119l.693 2.002 1.114-.48.934-.592 1.356-.282h1.326v-.959l-.21-.45-.935-.199-1.296-.197-1.295-.14-1.115.507zM139.25 371.56l3.163 2.144.663-.367 1.265-.45.603-.762.391-.903 1.266-.62 1.326-.48-.302-.507-.09-.903-.784-.677-.963.621-1.055 1.015-1.145.254-1.748.733-1.868.113zM175.554 247.68l-.632 2.99.813.197h.994l1.085-.254 1.145-.31.663-.424 1.175-.254 1.265.17.844.197.813.536 1.356.592.753.621.994.734.754.084.09-.762-.482-.367-.513-.732-1.024-.565-.844-.733-.843-.451-.633.112-1.054-.338-.663-.508-.994-.254h-1.386l-.813-.084-1.085-.564-.964.028zM192.607 336.027l3.555 3.356 1.235-.564.994-1.016 2.019-.563.934-.48.21-.705.241-.649.362-.761.874-.536.844-.45.783-.509.452-.761-.814-.564-1.205-.452-.994.028-.15-.338-.272-1.128-.573-.874-.843-.451-1.687 1.777-.361.112-.664-.112-.843-.367-1.115-.057.392.818.09.677-.301.592-.964 1.241-1.055.846-.994.536-.3.367zM116.353 318.224l5.874 2.313.15-.565-.24-.592.512-.93.603-.762.542-.705.331-.62.09-.79-.12-.733-.21-.762.09-.592-.512-.564-1.115-.367-.572.226-.693.056-.934.423-.603.057-.241.705-.603.902-.693 1.1-1.627 1.833zM97.01 476.08l.362.353.768.367.934.141 1.024-.057.738-.169.633-.493.045-.352-.226-.423-.06-.423-.12-.579-.227-.507-.3-.522-.287-.451-.241-.437-.196-.465-.316-.113-.317.183-.527.409-.226.705-.377.592-.602 1.24-.286.424zM97.085 502.783l2.637.395.738.028.392-.07.707-.38-.015-.931.015-.55-.331-.578-.03-.846-.015-1.043-.106-.48-.377-.324-.978.127-.513.733-.256.944-.24.494-.378.606-.497.72-.497.38zM305.892 427.058l3.797 2.425.06-.338v-.93l.421-.508.332-.339-.21-.395.36-.62-.24-.451-.362-.197-.994-.226-.542.14-.482.17-.151.395h-.633l-.874.254zM207.49 408.65l2.05.55-.016-.52-.437-.438-.512-.48-.211-.493-.407-.042-.437-.198-.105-.521-.166-.437-.602-.17-.302.255-.15.422.497.677.15.48.136.55zM210.805 415.814l2.35-.085-.482-.649-.302-.423-.844-.676-.964-.028-.18-.564-.12-.818-.814-.818-.181.592.15.874.543.903.09.535.271.734zM152.875 462.102l-.602-.17-.573-.338-.482-.62-.27-.508-.453.282.211.79.06.564-.3.395.662.31.542.394.06.818.332.226.512.536 2.29-1.552-.543-.422-.421-.367-.482-.535zM153.2 497.257l3.615 1.156-.06-.761v-.93l.33-.678.513-.563.723-.198.06-.733.241-.761.181-.536 1.676-2.77 1.273-1.489.57-.973.023-.863-.137-.532-.874.621-.573 1.044-.873 1.127-1.145.874-1.145-.282-.723.197-.392.734-.15 1.043-.392.648-.542.34-.904 1.324-.633 1.072-.482.874zM190.483 450.618l2.576 2.101.136-.268.165-.268.03-.296.211-.268-.286-.69.045-.367-.075-.564-.256-.409h-.256l-.588.042-.27.31-.438.198-.512.07-.106.141zM204.704 403.286l3.314-.282-.06-.62.03-.65-.573-.366-.633-.282-.18-.366-.452-.423-.332-.48-.572.48.15.507.09.395-.541.31-.392.734zM238.748 387.874l2.802 1.594.166-.31.12-.324-.105-.706.015-.45-.045-.24-.226-.296-.196-.437-.226-.254-.633-.085-.934.62-.497.395zM225.883 615.844l-.316.945.12.14.77.508.587.493.632.677.166.127.165-.014.166-.127.392-.62.015-.24-.286-.31-.678-.634-.482-.494-.739-.564-.256-.028zM225.597 615.66l-.105-.267-.287-.141-.346-.085-.437.071-.376.282-.196.31-.09.31-.151.31-.06.353v.169l.12.113.18-.028 1.206-.381zM129.006 392.006l3.962-1.749.09.748-.12.522-.18.648.12.494.18 1.015-.24.55-.663.578-.95-.437-.527-.536-.467-.62-.406-.48zM195.74 341.681l-1.687 1.184.406.226h.302l.376.085.558.296.678.085.27-.198-.165-.324-.376-.466-.06-.479zM195.605 326.106l-1.417.508-.21.007-.196-.014-.083-.077-.015-.198.075-.522.083-.55.083-.303.135-.246.754-.043.18.12.189.381.188.289.279.507zM220.566 329.54l.572 1.72.587-.098.528-.338.467-.395.27-.381.378-.452.045-.267-.016-.141-.225-.113-.648.155-.482-.014-.693.141zM214.149 335.632l1.295-.67.346.134.227.853.188.395.256.367.022.225.083.29-.384.112-.806-.437-.278-.275-.324-.247-.121-.282-.286-.24zM208.567 334.2l-.24.092-.174.19-.128.191-.06.232.098.262.135.21.309.191.376.057.347-.085.226-.183.09-.296-.03-.331-.15-.22-.196-.182-.272-.106zM191.153 336.027l-.294-.029-.369.05-.256.176-.09.19.09.134.098.12.203.12.392.014.332-.056.27-.113.212-.176.052-.155-.09-.163-.226-.12zM185.918 337.775l2.305-1.325-.316-.212-.407-.352-.798-.31-.256-.155-.437-.198-.181.451.301.127-.316.395zM552.186 541.003l1.22 2.481-.27.056-.332.014-.316-.267-.467.141-.362.084-.18.451-.212.113v.466l-.256.282-.36.197-.302.183-.166.522-.06.394-.316.198-.317.296-.422.24-.376.013-.724-.014-.722-.056.391-.38.543-.184.33-.31.498-.338.648-.733.286-.381.18-.324-1.008.113.09-.466.557-.113.347-.14.27-.649.513-.254.135-.45.166-.635.302-.352.316-.141zM579.964 520.194l6.026 2.623-.512.366-1.024.17-.693-.029-1.085.96-.723.337-.964.31-.753.62-.723.339-.904.564-.994.367-1.085.535-.783.198-.332-.649.813-.423 1.176-.48 1.536-1.099-.09-.649.361-1.099.392-1.381zM547.155 379.09l4.248.339-.12.69-.257.903-.376.423-.588.62-.436.353-.317.451-.407.72-.285.76-.09.65-.77.45-.165-1.127.316-.86-.12-.762v-.663l.18-.48-.466-.394-.302-.466-.346-.437-.105-.591.15-.367zM608.858 338.875l-1.989 2.792.361.226.483.338h.813l.512.17.573.281.331.31.422.424 1.295-.085-.12-.395-.783-.169-.452-.761-.422-.988-.06-.958-.211-.931zM635.37 431.979l-.369.197-.339.36-.429.43-.188.26-.264.276-.309.12-.354.232-.21.24-.204.183-.15.254-.302.254-.392.423.106.14.572-.197.422-.31.452-.296.407-.183.512.127.392-.085.422.043h.572l.452-.24.467-.381zM632.087 414.34l2.229-.677-.271-.394-.452-.17-.813-.14-.573.45zM315.208 424.605l-4.77-5.034 4.389-3.61 3.628-2.255 2.207-1.235 1.167-.546.812.45.609.642-.076 1.234-.584 1.402-.533 1.852-1.142 1.52-1.648 1.804zM632.347 204.405l3.32-.094.298.764-.378 1.506-.04 1.155.16 2.68-1.034 1.153-2.028-4.503-.476-1.135zM498.5 410.13l1.997-.446.616 2.512-2.037.363z" clip-path="url(#p7e3f0a397c)" style="fill:#00f;fill-opacity:.8"/></g><g id="PatchCollection_2"><path d="m129.187 471.883-.357-.05-1.336-.326-.755-.164-.406-.108-.392-.245.057-.217-.101-.612-.276-.244-.13-.34.086-.34.16-.475.073-.558.029-1.196-.116-.38-.567-.435.175-.53 1.684-.136h1.263l1.932.122h.348zM148.996 574.942l-.03.72.226.676.467.648 1.37.282.875-.197.497-.437.843-.225.09.422.513 1.917.391.818.452-.395.211.254.512 2.2.09 3.918.543 4.032-.15 1.607.18 1.41 1.567 3.157-.06 2.03 1.024 2.932 1.054 2.933.453 4.116.753 4.849.482 2.396.662 1.72.15 1.438 1.146 2.974-3.374.775-.211.071-1.115-3.115-.512-.902-1.717.028-.543-1.269-.542-2.565-.723-3.074-.965-3.298-.36-2.03-.965-3.073-.844-3.51-.452-2.425-.18-2.185-.558-1.917-.662-2.058-.347-2.904-.331-3.383-.904-2.185-.814-2.679.483-3.073.406-1.706zM302.539 560.549l-.115-.684-2.983-3.214.904-1.466 13.678-11.278 2.561-.902h.633l.392.394.602.846-.09.593-.512.874-1.055.902-7.382 11.052-1.566-.084-2.476 3.672.271-1.071.15-.705v-1.015l-.722.507-.603.846-.603.31zM247.177 298.91l3.977-11.789 1.687-3.272.603-2.03 6.327-3.215 14.071-5.86 6.485-3.633 8.722-2.95 4.11-3.463 5.434-1.111 4.247-.257 3.516 2.224 1.416 3.248.32 5.6v1.839l1.507.855.959-1.838-1.324-12.697 1.506-2.736 3.654-2.223 4.886-2.522.868-2.437 5.068-.983 6.028-2.01 5.16-2.95 5.8-2.18 3.79-1.154 6.074 1.582 3.79 1.197 3.242-.513 7.444-1.07 6.667-.897 7.26.77 6.257.641 4.338 2.052 1.142.342.32 1.839-.776 2.18.182 10.046-.32 4.019-1.643 6.027-.457 4.917.548 5.942-1.279 3.077-2.375.043-2.283-1.325-19.682 4.018-9.544 4.745 1.873 4.318 4.292-1.283 9.133.727 6.302-1.367 4.019-1.71 2.191 2.735.686 3.42-1.325 7.737-2.511 6.541-7.079 5.258-4.977 7.053-6.439 6.925-5.252 1.326-6.165 1.71-3.744.084-2.649-2.094-6.028 1.282-8.54 2.822-6.027 1.24-2.01-.172-4.292-7.95-3.47-9.49-.868-2.223-1.37.47.639 2.565-3.15 5.173 2.237 4.83.502 2.522-2.83 1.197-.366-2.095-1.781.385-2.786 2.01-.502 1.452 2.694-.598 2.74-.128 2.877 1.282.822 1.154-1.37 3.676-4.795 4.531 1.187 1.625 5.937.427 3.242 4.018 1.644 1.881 1.964-.342 1.69-3.42 2.1-7.566 4.155-2.265 7.079-.727 7.352 1.026 6.941-.256-.365 2.693-2.649 6.155-1.096 7.651-3.196 8.379-1.873 4.616.412 2.565 2.785.94 1.37-1.752 3.06-13.123 1.37-2.65 3.47-5.3 2.055-3.25 2.831-9.232 2.33-1.54 6.119-2.394 6.575-4.616 1.918.898 2.33 7.438 3.333 9.019 2.192 4.189 1.004 8.164-.958 6.284-3.471 5.13-2.557.042-9.545 7.908 1.462 3.035 5.89 3.548-1.415-4.83 5.526-5.9 4.155.77 4.475 8.805 1.645 1.112 4.43-6.54-1.508-2.565-2.512-1.24-2.328-5.685-.366-15.388-8.174-23.98.959-4.702.868-.3 6.028 2.65 2.511-.983 1.553-2.65 1.552-4.445 3.38 2.906 6.986 8.55 5.48 5.557 2.786 7.096 2.512 10.259 3.06 4.916 3.105-.342-1.462-11.157-.73-4.275-3.334-3.804 1.279-3.035 4.338-2.95.137-1.496-3.197-.598-4.064.299-3.15-.043-1.964-.898-3.562-5.6-9.408-10.387-.274-3.035 1.553-7.395-1.004-7.695 2.374-3.847 3.516-2.437-.137-3.334-2.603-2.138-.045-4.788 2.328-6.54 2.466-4.874-3.013-2.18-1.462-4.446.594-8.507.776-8.55.366-.77 7.763-1.71 9.864-3.378 7.9-3.206 6.301-3.804 4.933-6.2 4.657-3.719 4.75-.086 6.073-3.804 7.672-3.036 17.992-2.864 7.764-2.694-3.425-7.14 5.8-3.42 13.744-2.308 8.951-1.753 9.498-1.625 9.316 1.54 7.398 1.88 9.499-.384 1.826 6.84 1.37 8.85 1.279 5.772-.822 4.104-1.964.94-.137 7.311-1.78 5.686.867 6.968-.913 7.14-1.37 3.59-.594 3.207-7.946 9.918-2.283 5.472-3.47 5.215-5.07 4.403-2.146 4.403-6.484 4.532-3.608.855-4.019 3.206-2.83-1.197-4.705-1.752-3.973 3.719 1.508 2.522-.548 2.907-3.882 4.83-3.699 1.539-6.85-5.429-2.923-3.463-1.278-2.992-1.598.599-1.736 3.547-.228 1.71 2.512 2.224 5.114 1.282 2.466 2.864.502 3.163-4.292 15.945-.959 9.02-2.695 8.079-7.397 14.02-11.782 17.569-12.01 9.232-1.461 2.95 2.329.213 7.946-3.804 3.653 2.009 1.278 3.804-.867 9.36-2.01 7.48 1.736 2.694 1.918-1.112 2.283-4.146 1.918-9.532 1.78-7.736-1.46-4.189 1.004-3.248 2.375-2.48 4.338-7.095 4.064-9.532 5.983-15.389 3.15-8.036.046-3.676 1.05-3.377 1.69-9.362 5.115-10.088 6.21-5.771 6.211-4.104 9.59-6.37 6.164-3.163 2.878 1.026 5.342 6.84 1.736 6.241 2.557 4.617 2.694 3.59.96 4.831 2.465 5.771 1.827 6.968-.046 4.659.502 4.36 3.151 6.156.73 8.42-.593 10.088-1.005 5.942-.136 9.874.091 9.745-.365 6.156-1.507 6.41 1.37.899.868-1.282.502-4.959 3.013-6.54 3.334-7.095 1.736-3.59-1.234-1.069-2.785-1.197-.96-9.318 2.147-5.557 4.795-1.924-2.329-2.906-3.881-5.087.958-5.258-2.602-7.737-.503-5.984-.273-8.208-2.74-7.267-2.969-8.635-2.694-2.863-10.412-19.793 2.557-3.976 4.11-5.942 2.603-7.524 8.95-9.918 4.978-3.12 4.978.812 8.585 3.463 7.717 9.02 11.097 16.16 4.795 9.96 2.877 7.181.959 5.344.137 8.122.685 8.335.776 10.131.549 3.548 7.717 5.215 5.754 1.24 9.59 3.505 2.374-.684-.137-2.864-6.256-4.488-7.352-6.455-4.612-5.514-3.973-9.02-.092-11.37 2.557-3.036 11.189-.47 5.297 2.308 1.963 1.283 2.01-2.266-1.005-4.403-4.612-.598-16.394 1.026-3.06-2.693-4.384-10.517-6.758-11.328-7.261-8.978-2.831-3.719-4.704-7.01-6.439-4.276-8.813-2.95-2.557-5.942 1.644-11.03 1.37-5.13 1.506-8.978-3.881-9.363-.913-15.006 3.105-4.617 3.973-3.549 8.904-6.67 11.828-6.84 8.311-.428 6.987-2.394 4.886-5.986 8.86-3.805 3.698 5.345 4.521 15.477 5.526 21.291 1.78 6.242-.593 5.985-2.512 16.417 3.745 2.437 3.745 2.095.822 5.6-1.416 6.926 5.982 6.156 2.01.256-.457-1.71-2.877-5.087v-5.173l9.59-5.344 4.201-1.967 6.713 4.575 1.69.513 2.329-2.821-1.645-3.805.366-2.352-1.507-2.052-3.516-3.078-2.055-5.9-3.79-5.044-2.558-1.967 4.795-2.394 7.58-10.218-3.014-3.89-8.493-8.252-.96-11.63 10.96-6.882 3.517-1.497 13.243 1.41 11.28 5.302 2.237-1.752-4.201-4.447-3.106-2.437 2.603-4.019-13.562-12.912-6.85-5.558-12.97-6.799 8.403-13.254 9.864-16.461 5.89-7.526 7.993-5.003 6.895-2.095 1.827-3.677 6.164-4.361 15.253-10.348L718.901 89.2l7.717 11.331 4.978 6.03 6.119 3.89 2.832 3.977 5.206 12.27 3.79 7.612 3.105 1.753 4.064-2.394 5.435-.086.228-1.668-6.622-11.544-11.507-24.714-12.787-26.938 7.49-9.365 15.297-9.492 16.668 11.203 13.243 14.452 9.042 10.605 3.927 1.197 2.74-2.266 1.188-5.516-1.005-4.447-12.832-14.71-16.668-19.584-1.827-2.522.914-4.918 11.508-4.875 15.16-7.056 15.436-2.693 6.712.17 7.672-2.052 12.33-2.138 5.525 4.918 2.832 3.506 1.37 26.512 1.096 11.887 3.379 9.407-.913 8.809.182 11.288.731 3.25-2.466 4.361.456 2.053 3.106-.856 2.74-7.354 4.201-21.209 4.11-32.583.73-8.98 22.194-23.263 33.884 20.44L943.44-5.684l-21.554-15.823-9.133-8.553-8.677-16.421-3.652-11.29-33.619 6.797-10.605 2.539-11.027.395-2.47 3.555-28.382-1.919-23.68 9.48-10.907-13.994-5.302-14.277-2.47-.677.36-6.377-4.277-2.031-4.58.226-3.314 2.539-.422 4.853 2.53 2.145-.12 1.354-2.952 1.41.783 2.653 6.086 11.286 8.135 11.737 1.085 3.837-1.085 2.2-6.012 3.055-15.528.639-7.081-2.899-5.508-3.537 1.311-3.193-1.049-.884-4.616-2.8-.63-1.13 1.365-3.144.052-1.474-1.52-1.522-3.673-.737-1.364-2.014 1.889-7.762 1.311-10.022-2.623-5.797-4.668-1.719-3.725 1.425-5.258 2.468-1.386 2.99.602 6.83-1.626 6.545-6.388.734-2.711 1.749-1.265 2.652.602 3.216 8.497 2.54 1.204 2.652 2.53-1.072 4.942 1.467 2.29 3.498 1.627 5.305 2.049 3.95-6.026 17.267-3.736 8.915-2.47 8.069-5.785 1.862-2.23-.903.663-4.063-1.808-1.467-4.94 1.355-6.148-6.514-3.148-6.288-4.248.246-1.522-.933-3.724-3.93-4.249-3.046-4.616-2.014-1.626-2.21-4.774 1.277-.157 1.769-.682 6.238-.734 2.21-2.414 1.474-6.504 1.278-1.994 2.259-1.101 1.965.262 2.21 5.56 3.783 1.994-1.327 1.574-.638 1.469.933-.42 3.046 1.206 3.487-1.206 3.782 1.311 2.555 2.465 4.323 2.309.393 12.065-2.506 1.154.983.21 8.89-1.627.983-1.678.491-1.941 1.523-1.574 8.989-4.563 5.109-2.938 3.143-4.144 1.572-11.278-1.67-16.052-2.161-.177-29.01-20.667-3.93-6.085-10.218-6.295-1.964-1.888-3.93-3.148.687-10.176.492-9.233-6.19-3.042 4.618-4.407 2.652h-1.573l-1.783-8.154-.315-8.94-1.679-9.629-.63-5.894 5.036-8.548-1.678-2.947-4.826.295-4.72 5.108-4.827-.786-2.098-.196-6.4-4.618-2.623 1.572 3.882 6.878 2.098 3.536 9.443 5.011 4.405 33.01-15.421 8.842-2.099 11.495-1.513-.997-1.713-2.75-2.202-1.605-5.874-1.45-1.06 1.45 6.036 3.82 8.484 18.181-3.426 5.042-3.753 2.75-10.36 1.452-8.647-1.834-8.485-3.82-14.765-7.639-1.795-2.75-.49-3.284-.408-13.369-.897-3.82-6.281-6.264-1.306.688 1.958 4.278.816 2.139-3.59 3.208-.815.993-1.632 3.896-4.568 4.966-5.221-.535-3.916 1.757-9.871 1.986-5.629-.763-2.284-2.369-1.55-1.986-9.627-3.82-6.036-3.132v2.445l2.529 5.424.244 2.597-9.544 7.715-3.019 5.577 1.795 1.834 2.936.993 3.835-.764 4.487-3.209 6.118-3.667 6.037.306 7.668 3.285 2.04.382 5.548-3.438 7.178 6.264-.734 2.215-7.098 10.695 4.16 1.68 2.204-.534 3.508-3.896 3.997-4.354 4.976-2.063 3.427-2.215 5.71-.382 6.282 1.375 13.215 6.493 4.324 1.604 6.2 1.452 3.263 2.368.734 3.208-2.284 8.555 3.1 1.757 2.447-3.514-.326-5.347 4.732-6.034 8.729-3.667 19.497 2.292 5.466.993 1.632 4.43 3.181 1.299 3.59 1.146 9.626 2.062 4.732 48.657-22.842 1.222-4.65 2.368-1.061 1.833 3.508 6.952 3.916 6.187 3.589 19.247.49 9.242-5.63 3.437-3.752 1.451-3.508-.076-2.855 3.437-3.998 2.139-7.26 2.444-3.019 5.423-.815 2.215 1.631 1.91-.163 1.603-3.426 1.527-3.916-.305-2.447-.916-5.711 1.603-5.466-.458-6.444-1.68-5.955-.23-5.385-4.658-1.06-5.5-4.732-10.54v-2.978l-5.384-7.791 3.916-2.98-3.426-10.845-3.835-2.138-3.1 1.145-5.058-8.63-13.95-14.285-.407-2.138 1.876-2.14-.653-1.68-7.994-6.416-5.956-4.736-.245 1.07 6.363 12.909 12.319 17.339-.98 5.881 5.14 9.93 3.168 5.858 4.58 1.41 6.447 7.842 3.856 12.355-.904 3.44 2.35 3.95-6.628 5.415 2.41 1.806-1.145 1.297-2.65.395-2.05-1.523-1.807.96-2.41-.057-3.074 4.513-3.434 1.749-4.7.846-1.747-1.693-5.002-2.143-10.002-8.857-14.824-16.7.241-1.522.965-2.483-1.748-2.2-11.268-9.421-6.206-6.206-6.688-4.287-1.465 1.014 2.306 5.583 2.385 1.935 1.51 4.392 2.465.373 11.529 11.761 13.755 16.228 4.77 4.764 6.043 3.126 1.511 4.02.477 5.21-2.862 3.35-4.485 2.274-6.984 3.456-3.672-1.08-.734 1.374-7.974 6.384-4.72.884-8.603-6.285-5.77-8.939-2.099-9.33-17.73-18.86 1.573-2.16-2.727-.295-1.784-4.617-8.946-4.32-3.977-.733-7.424-12.514-1.279-4.532 1.644-2.48-5.845-7.696 1.37-7.269 2.283-9.15 1.005-5.986-1.005-1.71-1.461.342-.913 2.822-4.11 7.696-3.288 2.394h-4.11l-5.332-2.858-4.53-4.065-2.894-4.594.567-2.533.126-3.064-3.738-10.85 1.553-3.077 3.654-6.756-1.827-1.454-3.654 2.907-2.191 5.046-4.567-4.79-6.657-8.948-5.823-.22-2.71-2.403L303.677 88l2.53 3.721 3.902 2.944 1.698 1.455.47 2.233 2.312 2.504 7.227 5.819 9.684 5.752 19.536 16.116 5.312 4.718 1.917 5.846 1.315 7.025-.722 9.223-1.195.725h-2.684l-6.463-1.744-2.574-2 .383-1.794-.547-1.333-1.095-.82-1.917.204-6.353-.615-5.642-3.077-3.56-.102-6.08 1.64-7.119 1.026-.384 1.231 2.465 1.18 7.668 1.23 3.45.051 3.56 1.231 6.025 4.102 1.424 1.949-.219 2.82-3.998 5.948-.438 2.872 1.095.308 5.64-1.18 4.656-2.512 3.834-2.872 2.793-.513 3.615 2.41 1.698 2.308.822 2.512-1.37 2.051 1.041 2 1.479.154 2.41-1.282 1.971-4.102 4.436.307 3.177 1.129 3.505 3.281 3.56 4.256 5.452.018 5.479 5.207 10.46 11.037 5.146-1.089 1.412-2.098 2.573 1.943 6.143 12.902 9.297 10.563 4.65 4.513-5.397 6.684-8.135 5.752-17.35 6.527-30.544-4.287-13.37-.22-2.49-1.632-.83-6.217-5.148-12.746.748-8.316-.582-1.166-2.158.078-4.649 5.518-2.573.155-6.392-2.253-.664 2.953 12.037 20.05.249 3.11-23.285 8.08-7.23-1.742-6.681-3.795-11.502-9.024-5.367-6.358-.329-8.409-.328-7.794.657-3.59-2.41-2.05-3.834 1.538.657 3.59.11 7.485-2.081 3.693-3.286-1.334-7.12-4.307-2.739-5.025-2.629-2.46-4.272-.104-5.586.308-.438 2.256 4.49 6.153 1.644 1.436 4.382.41 3.614 3.794 7.997 5.743 6.572 2.667 11.063 8.203 8.982 7.691 2.52 6.973-39.325 20.715-8.54 3.37-7.222 4.43-9.131-2.487-6.642-6.14-3.984-2.487-1.578-4.818-7.594-.893 5.602 4.468 8.634 8.47 12.037 6.45 2.49 1.944-4.483 15.62z" clip-path="url(#p7e3f0a397c)" style="fill:#006400;fill-opacity:.8"/><path d="m434.46 143.489 1.527-3.259.667-2.678-.763-1.786-1.86-1.74-3.337-1.028-1.62 1.295-.62 1.16.38 2.143 1.956 1.562 1.287.625-.429.938-1.43 1.071.715 1.83 1.478.581zM407.95 134.42l-3.985-2.06-1.37-.816-2.947-.155-1.12.505-.208 1.516.955 1.321 2.241-.194 2.615.777 2.2.622 1.494-.428zM419.27 160.485l.084-1.593-.25-2.293-1.078-.777-1.412-.389-2.407.778-3.32.816.29 1.515.913 1.166 2.947.971 3.445.35zM324.607 211.136l.332-1.476-.332-1.904-1.536-.816-1.245.155-.083 1.01-.954 1.788-1.205 1.67-1.286 1.438.415 1.089.955.972 1.66.116 2.573-1.943zM459.985 329.8l1.971-3.999-2.464-.768-2.683-.103-2.575.82-.219 1.538-.548 1.077 1.15 14.508 1.37.462 4.381-.359.274-3.23zM303.717 453.373l.124.318v.634l-.124.491-.123.318-.432.577-.77 1.068-1.697 2.743-.216.894-.34.866-.523.722-.525.865-.4.953-.957 1.068-3.7-1.01.431-1.472 1.203-1.3.37-.605.74-.895v-.375l.71-.751.616-.866.37-.664.34-.634.74-.607.154-.664.37-.404.463-.462.4-.606.525-1.097h.679l.709.116.617.23zM131.657 194.582l-16.329 1.918.482 1.24 1.265 2.088 2.23 3.61 3.675 7.109 2.773.676 2.47 1.129 1.988.338 2.41-.056 2.47-.846 1.929-.847.663-.563.12-.734-1.446-2.03-.3-1.073-1.447-1.523.18-1.748-.843-.903.301-2.144-1.385-1.523zM169.498 182.453l-.964.395-1.024 1.128-1.627 1.015-1.748.96-1.385.62-.603 1.185-.18 1.918.421 2.087 1.145 2.313.663 2.2.542 1.918.12 1.862.121 1.072 1.024 1.58 1.085 1.127 2.41.34 1.567-.452h1.446l1.386-.226 1.687-.959-1.687-2.482-.24-1.241-.483-.733 1.266-.508h2.109l.903-.734-.663-2.03-1.024-2.709-.783-2.256-.663-2.37-.362-1.635-.723-1.185-.602-1.298-.965-.902-.782-.17zM313.368 589.66l-.904-1.044-.693-.479-2.2-.479-.843-.282-.904.17-.421.563.03.959.21 1.015-.24.732-1.326.254-.12.423.994.113-.453.282h-1.446l-2.2-.198-2.5-.14-2.44-.057-1.898-.14-1.566-.283-1.658-.028-1.385.028-1.055.592-.241.846.362.536.391.902.422.846.663.507.904.367 1.205-.113 1.868.423 1.386.197 1.536.17 1.537.422 1.687-.197 1.476.084 1.567.31 1.265-.225 1.296-.508.813-.732.663-.874-.241-.451-.03-.48-1.175-.112.693-.48.874-.14.753.253.753.14.512-.337.784-.254.903-1.579.392-.48zM206.571 586.868l-.723-.197-.994-.085-.15.677-.604 1.156-.27 1.184-.211.733-.422.649.15.62.121.676-.362.931.422.733-.271 1.522.331.705-.331.17-.753-.283-.392.339.271.648 1.055.141.06 1.213v1.07l.482.227 1.205-.226 2.2-1.635 1.597-.79.12-.76-.12-1.523-.242-1.044.271-.93.603-1.015.18-.874.694-.902-.753-.564-1.055-.254-.844-.62-.934-.085zM169.711 538.698l9.52.423-1.385-3.073-.392-.705.964-1.128-2.53-1.156-1.99-.395-1.957-.17-1.326 2.595-.663 2.255zM315.532 559.435l-.422-.225-.392-.014-.075.21-.286.255-.347.282-.03.324-.166.578-.045.465.076.296-.166.338-.09.353.18.24-.18.24-.136.197.256.45.377.325.512.212.662.028.618-.41.347-.38.406-.282.226-.479.046-.508.195-.437-.075-.521-.075-.24.256-.169v-.17l-.09-.31-.182-.253.09-.395-.36-.296-.392-.141-.241.353-.256.338zM230.486 460.967l.813 4.47-.422.225-.196.296-.693.056-.602-.169-.527-.042-.287-.17-.06-.408.21-.86.528-1.382.904-1.833zM136.779 397.096l.452.96.392.93.421.888.151.338.03.423-.256.465-.587.254-.452.043-.392-.438-.587-.564-.136-.676-.437-.41-.406.071h-.92l-.496.41-.754.098-.843-.522.436-.155.347-.31.377-.042.482-.085.466-.169.09.352h.318l.331-.127.226-.112.467.338.391-.451-1.04-.198-.315-.24-.557.03-.332-.114-.557-.352-.467.324-.076.395-.693.451-.497.14-.873-.394.21-.564.483-.169.587-.254.632-.296.422.127-.03-.592.151-.254.21-.254.362.028.407-.042.572-.127.136-.45.09-.748.663.69.287.607.572.437zM564.6 455.003l9.158 11.787 15.667 6.654 4.399-4.342 2.59-.226 2.772-3.609-.964-.508-2.651-.733-19.222-15.001-.633-.395-.753-.282-.783-.113-.663.226-4.971 3.243zM457.945 423.364l2.501-.395h.633l-.03.705.361.282v.705l-.24.564-.573.762-.965.45-1.415.395-.784.48-.873.225-.904-.197-1.748-.451-.06-.874-.392-.818.242-.649.692-.479zM283.533 416.364l1.002-.212.09-.324 1.1-.233.14.162-1.872 4.988-.685.448-.256-.152zM594.32 472.852l.016.663.15.535.618.452.693.606 2.305 2.75.422.676.783 1.621.347.367.285-.254.362-.367.316-.225-.03-.437-.421-.522-.708-.747-.392-.635-.317-.338-.406-.634-.347-.649-.15-.719-.407-.733-.422-.62-.361-.395-.362-.226-.678-.126z" clip-path="url(#p7e3f0a397c)" style="fill:#006400;fill-opacity:.8"/></g><g id="PatchCollection_3"><path d="m346.827 398.598 4.601 1.76-1.883 4.25-4.54-1.722zM326.373 398.918l-.844 1.888-1.232-.484 1.798-1.526zM334.191 391.75l2.826-2.485.145-.043.17.006.203.049.131.11.099.117.052.104-.066.166-1.252 2.866zM324.267 375.942l-.38 2.504 4.628.909zM336.2 429.431l3.362 2.662 2.235-3.063-4.042-1.725zM330.7 403.524l6.106 2.399-1.731 1.61-2.052 1.957-2.498 2.043-2.024 1.51-.727.561-.414.394 6.573 2.718-4.368 6.15-3.181-1.163-.275.466-4.636-1.771-2.272 2.034-2.314 2.185-1.667 2.13-7.622-8.023 1.039-.752 2.2-1.503 2.253-1.458 2.416-1.504 2.408-1.566 2.273-1.299 2.632-1.148 2.354-1.612 3.431-2.441 1.293-.73zM306.597 377.222l-.099.81 15.381 1.538 3.216.564 3.005.655 2.93.712 3.759 1.044 1.484.465.482-1.474-2.086-.387-11.359-2.179-3.179-.472-3.381-.331-3.51-.318zM299.803 376.475l-.113.79 6.485.662.098-.832zM333.853 379.641l-3.625-.229-.135.014-.084.064-.037.113.015.105.053.1 3.765.668z" clip-path="url(#p7e3f0a397c)" style="fill:green;fill-opacity:.8"/></g><g id="PatchCollection_4"><path d="m332.123 401.31-.787 1.755 2.96 1.221.83-1.825zM340.766 374.5l-.081 2.402 4.551.159 1.055-2.285z" clip-path="url(#p7e3f0a397c)" style="fill:#32cd32;fill-opacity:.8"/></g><g id="PatchCollection_5"><path d="m364.144 395.395 3.477 2.026-3.166 4.76-3.476-2.026zM157.458 544.02l2.838-.42 1.039 4.048-3.115.712zM365 394.792l.686-1.47 2.002.817-.686 1.47zM359.47 397.851l-1.384 2.799 1.64.71 1.385-2.798z" clip-path="url(#p7e3f0a397c)" style="fill:#90ee90;fill-opacity:.8"/></g><path id="PatchCollection_6" d="m352.425 383.188-.555 1.287-.266-.1-.104.24-2.035-.769.346-.886.242-.45.178-.438 2.007.759v.357z" clip-path="url(#p7e3f0a397c)" style="fill:#006400;fill-opacity:.8"/><g id="PatchCollection_7"><path d="m285.994 395.768 18.94 20.555-9.222 7.938-1.727-.029-10.764-2.424.093-.578.71-.462 1.942-5.196-.308-.346-.74.058-1.265.058zM315.269 429.701l11.044 12.042-6.847 9.93-.246.375-.155.433-.246.837-.247.375-2.714 3.954-3.238.838-.293.043-.416.13-.324.173-.185.246-.956 1.457-.956-.072-.679-.072-.555-.144-.725-.231-.601-.26-.602-.375-.509-.477-.416-.577-.4-.722-.325-.707-.308-.765-.154-.65-.062-.576.062-2.152.13-1.898.154-2 .152-1.695.305-1.878.24-1.551.284-1.327.523-1.102 2.38-3.868.272.03.229.123.25.306.262.235.272.316.164.174.186.163.174.062.196-.072.131-.255-.065-.235-.077-.224 1.273-1.871.556-1.02.763-1.348.73-1.367.557-1.082.404-.908.218-.572zM162.616 375.33l16.193-3.527-.681.75-.401.939-.32.862.2.788.721.863.922 1.238.481.826.52 1.2.442 1.163.2 1.426.482.976.801.975.521.488 1.002.563-8.818 9.492-.641-1.764-.722-1.275-.425-.902-.595-.743-.482-.902-.482-1.433.283-.53-.028-.69-.255-.478-.538-.185-.71-.266-.452-.265-.199-.371.255-.425.426-.265v-.398l-.397-.345-.454-.026-.652-.266-.907-1.008-1.162-1.46-1.219-1.511-1.332-.929zM257.94 391.724l-.513-.056-.451.112-.995 1.128-.572-4.766-.753-.366 4.338-12.183.241-.254.211-.394.633-.339.843.029 26.091 2.48.933 1.09-3.224 26.057zM283.396 375.02l4.732.489 1.898-14.411-2.11-1.664-7.591-8.799-.301-.959.24-1.297.724-1.805 3.374-4.596.723-.875-1.416-8.686-.452-1.354-2.2-4.88-.158-.253-.625.085-5.772 16.804-5.277.427-.12-.282-1.446.056v-.31l-1.07.014-4.43 12.917 8.153-.624-4.115 11.982zM266.02 367.397l14.546 6.786.429.59-16.91-1.746zM241.202 528.747l-12.15 5.294-.617.437-.407.113-.391.338-.196.38.06.339-1.07 1 1.303 13.74 7.773-2.426.076-.606.829-.409-.151-.324-.633-13.632 6.056-2.905zM226.062 535.443l-8.918 1.128.06 1.015-.602 6.824 1.567 6.541-7.351-.282-4.64.282-4.58-.282-.421 1.635.843 2.932.844 1.467-.844 1.07 1.446 3.835 7.23 2.425 4.038-.338 6.206-.677 2.773-.338 1.747-.226-1.025-6.541-.06-3.778 3.314-.113zM279.852 498.094l-6.8 6.45 7.034 6.14 5.295-7.705zM244.79 459.17l-13.288 5.716 4.64 20.43 12.847-5.614zM258.39 493.2l.077.35-.166.027-1.672-1.085-.738.93 2.651 2.298.844-.24-.618-2.044-8.647-36.064-5.664.169 7.699 37.646.425-.105.813 2.566.293 1.297 2.746-1.054 1.702-1.79-2.756-2.468-.075-1.057-.724.451-.963-.916 1.656-2.087 1.115.55-.331 1.17zM631.725 375.114l6.93-6.402.527.748-1.16 2.072 2.877 2.27-3.645 3.78 2.425 2.65 4.007-3.61-.046-.606-2.109-2.27.151-.423 6.704-6.416 1.823.325.24.55.723-.014.799.197.467-1.156.633-.367.256-.367.542-.21-.602-.776-.573.366-2.2 1.551-2.093-.296-.753-.423 2.485-1.678.618-1.24 1.717-1.594 1.416-.184.587-.662-1.009-.973 1.1-1.142 1.024.423.92.916.481.874.362.494.392.465.587.198.497-.07 9.174-4.26-.03-7.444 14.19-2.003 3.089-.465.662.254.633.338.497.522.603.804.18.507.076.466.166.606.451.804 1.025 1.537-4.097 17.64-23.184-2.99-.542.028-.482.184-.317.31-.09.522-3.224 24.224-19.101-11.717zM631.506 375.304l3.88 4.026-1.175.91-.852.345-.715.444-.716.592-.362.586-.384.775-.331.564-.241.437-.158.607-.03.45-.166.564-.008.339-.165.352-.249.303-.278.17-.543.112-.293.014-.392-.028.301.713.324.599.332.853 1.144 1.727.512.367.076.394-.128.437-.105.318.157.303-.263.353.113.338-.248.451-.227.902.128.24-.09.423-.166.261-.09.444-.233.48-.219.712-.173.88-.15.657-.16.324.046.246.188.268-.527.346-.203-.219-.279-.395-.354-.373-.158-.31-.211-.085-.233.31-.4.458-.308.417-.28.733-.06.36-.007.578-.022.514.112.649.053.486-.188.564.467-.035.158.585.196.55.256.395.46.24.105.564.264.443.135.642.4 1.523.21.641.317.459.323.388.271.67.279.612.467 1.242.542.888.211.902.151 1.354.347.282.662.366.543 1.086.482.761.648 1.086.964 1.917.24 1.142.513.113.617 1.734.603-.112.437 1.692.391-.028.513 2.72-.452-.042-.301-.535-.468-.62-.256-.875-.3.17-.935-.043-6.96-11.392-3.223-5.584-2.621-4.427-2.17-3.384-2.5-3.667-4.188-5.414.09-.705-.09-.874 1.205-1.072 1.898-1.494zM621.481 603.115l6.222 2.143-3.781 11.784-.211-.465-.331-.253-.362.479-.558.38-.075.325.256.366.347.127.15.394.226.113-2.53 7.979-8.798-2.636-.06-.353.301-.972.286-.113.83-2.834.857-2.156 1.567-2.876 1.296-2.51.768-1.761.316-.93.588-1.311 1.22-2.115z" clip-path="url(#p7e3f0a397c)" style="fill:#006400;fill-opacity:.8"/></g><g id="PatchCollection_8"><path d="m106.352 577.372 3.238.888-.346 1.467-3.269-.804zM347.26 402.548l-.463 1.076.75.283.462-1.077zM345.607 402.565l-.134.284.36.139.135-.283zM331.137 438.031l.281.173-.095.136.172.106.587-.837-.37-.226-.334.479-.084-.058.22-.32-.354-.218-.47.673.357.22zM332.498 437.018l-.164.23-.357-.222.323-.455.208.13-.158.227zM364.846 393.266l-.531 1.151-.919-.367.52-1.196zM365 394.792l.686-1.47 2.002.817-.686 1.47zM347.834 410.336l.92.338-.174.412-.919-.339zM226.63 286.286l.21.691-2.515.733-.256-.69zM349.974 401.958l.261.007.19-.168.009-.245-.18-.178-.262-.007-.19.167-.008.245zM359.993 392.804l-.331.98.769.258.182-.37.42.052.227-.513zM362.198 395.114l-.093.019-.096-.009-.087-.037-.07-.061-.046-.08-.017-.088.015-.088.046-.084.073-.065.093-.037.1-.007.097.025.083.053.06.076.027.09-.005.095-.036.083-.061.068zM354.772 394.703l1.163.467.226-.467-1.116-.466zM357.488 389.865l-.162.398.63.255.144-.422zM353.934 390.168l.404.15-.217.51-.404-.151zM293.511 381.317l-.333-.01-.242 2.318.02.17.626.078.04-.148.688.08.101-.293.272.037.01-.198.243.038.152-1.93zM293.414 378.832l-.105.95 2.147.207.051-.46-1.585-.154.011-.1.63.062.043-.39z" clip-path="url(#p7e3f0a397c)" style="fill:#a9a9a9;fill-opacity:.8"/><path d="m293.44 379.794-.11 1.254-.283.047-.233 2.526.122.004.242-2.317.23.006.169-1.507zM294.696 379.916l.126.012-.159 1.493-.122-.01zM346.483 417.712l-.799 1.72 2.336.916.271-.169.678-.972.045-.24-.075-.212-.287-.197zM353.015 387.509l.189.415.133-.01.133.26-.444.145-.234.126-.021-.094-.378.104-.245-.489.556-.218v-.145zM352.581 395.21l.823.333-.278.54-.3-.155.11-.281-.488-.187zM342.754 395.252l.855.25-.166.436-.844-.301zM330.127 400.847l-.235.51.994.401.238-.517-.366-.147.043-.094-.315-.128-.047.101z" clip-path="url(#p7e3f0a397c)" style="fill:#a9a9a9;fill-opacity:.8"/></g></g></g><defs><clipPath id="p7e3f0a397c"><path d="M90 107.678h558v511.844H90z"/></clipPath></defs></svg>