<svg xmlns="http://www.w3.org/2000/svg" width="960" height="960" viewBox="0 0 720 720"><defs><style>*{stroke-linejoin:round;stroke-linecap:butt}</style></defs><g id="figure_1"><path id="patch_1" d="M0 720h720V0H0z" style="fill:#fff"/><g id="axes_1"><path id="patch_2" d="M134.977 640.8h468.046V86.4H134.977z" style="fill:#fff"/><g id="LineCollection_1"><path d="m293.35 400.077-2.109 1.85M290.467 400.456l.403-.022 1.22-.103 1.26-.254M367.475 388.964l-.497.077-2.447.286-4.226.341-2.726.23-2.077.088h-1.622l-15.042-.92-3.035-.347-1.504-.06-1.005.049-.73.194-.596.306-3.756 1.842-1.22.484-1.31.405-7.158 1.683-11.302 2.668-8.682 2.35-5.19 1.437M148.55 260.217l.1.134M434.756 453.222l1.491.865M434.756 453.222l-.807-.556M434.756 453.222l-.189.444-.272.623M563.608 532.526l-2.01 1.124-1.338.638-1.335.54-1.915.576-.972.29-.836.139-1.058.047-.626-.024-.676-.067-.671-.17-1.083-.454-1.393-.702-.988-.651-.593-.508-.317-.484-.223-.469-.128-.698.017-.64.091-.69.218-.718.346-.671.449-.707.692-.853.544-.67.255-.394.136-.29.07-.377.02-.508-.012-.472-.058-.468-.14-.453-.44-1.084-.82-1.98-.824-1.802-.82-1.66-.93-2.11-.803-1.541-.775-1.128-.972-1-1.4-1.12-2.175-1.309-3.904-1.723-4.383-1.905-3.715-1.643-2.916-1.2-2.57-.952-5.066-1.817-4.498-1.549-2.706-1.016-1.248-.508-1.063-.54-.691-.4-.837-.564-.976-.762-.832-.636-.898-.746-.737-.623-1.001-.87-2.047-1.818-5.35-4.672-3.295-2.837-2.538-2.164-.918-.833-.729-.608-.647-.472-.815-.492-1.677-.921-1.178-.647-1.104-.608-.967-.508-.968-.551-1.211-.71-1.182-.826-1.43-1.04-2.561-2.08-2.628-2.43-2.203-2.044-.96-.94-.783-.866-1.186-1.46M436.247 454.087l1.607 1.064 1.894.984 2.167.993 6.878 2.818 1.491.42 1.459.263 13.954 1.397" clip-path="url(#p1c5720a264)" style="fill:none;stroke:#000"/><path d="m569.565 434.184-2.357.595-2.347.723-4.086 1.548-8.13 3.08-1.607.58-1.26.396-1.351.199-1.409-.023-.963-.16-.964-.333-1.038-.603-1.005-.691-2.776-2.16-4.045-3.024-1.491-1.16-1.376-.777-1.466-.477-1.697.016-1.697.564-1.26.945-1.022 1.072-1.293 1.992-.544.651-.717.73-1.062.652-1.21.484-1.6.341-4.398.603-6.788.953-4.728.556-3.674.484-1.096.31-1.005.627-1.004 1.223-1.747 2.715-1.812 2.938-.766 1.135-1.096 1.167-1.886 1.214-4.201 2.636-1.705 1.064-5.668 3.215-3.41 1.969-1.146.46-.938.144-.898.008-6.13-.739M566.524 395.925l.256.88.47 1.517.494 1.382.396 1.476.312 1.191 1.038 4.129 1.4 4.985 2.176 5.828.675 2.032.297 1.81-.083 1.223-.23 1.127-.412 1.493-3.748 9.186M398.046 402.95l.989 5.078M398.046 402.95l-.499-2.508M398.046 402.95l-3.95.763M398.046 402.95l3.467-.729M389.66 409.941l-1.141-5.22M389.66 409.941l1.92 8.015M389.66 409.941l-3.069.6M389.66 409.941l2.702-.444M400.586 416.301l-3.296.515M400.586 416.301l3.38-.68M400.586 416.301l-1.551-8.273M398.67 422.6l2.566-1.9.074-.08.066-.127.028-.151.002-.151-.82-3.89M384.515 392.344l-1.948-4.121M384.515 392.344l1.607 4.223M384.515 392.344l2.695-1.255M384.515 392.344l-3.08 1.222M397.29 416.816l-3.334.688M397.29 416.816l1.38 5.784M397.29 416.816l-1.603-6.735M402.457 396.155l-.61-4.2M402.457 396.155l.46 3.057M402.457 396.155l-1.952.476M402.457 396.155l2.113-.437M405.101 383.702l-1.69-2.15M405.101 383.702l.746.982M407.828 380.72l-1.697 2.216-.556.662-.148.128-.177.043-.149-.067M381.262 378.513l3.567.143M377.473 383.817l.213-4.637.07-.306.103-.218.14-.163.21-.089 3.053.11M345.527 194.324l.054.643.004.583-.7 2.55-.363 1.254-.132.913-.115 1.08-.083.945-.156 2.287-.132 6.83-.23 5.24-.009 1.373.115.922.412.817.553.477.774.572 5.255 3.342 1.104.977.808 1.207.42 1.167.123 1.168-.132 3.882.022 1.335.366 1.318.667 1.175 1.26 1.262 3.575 2.938 1.038 1.008.898 1.049.816 1.278.873 1.596.939 1.73 3.962 6.71.535 1.255.511 1.358 2.307 9.1.61 2.318.428 1.596.478 1.905.469 1.954.437 1.588.411 1.532.14 1.231-.09 1.533-.264 1.683-.304 1.5-.478 1.724-.388 1.921-.003 1.128.201 1.333.256 1.318.403 2.311.247 2.58.972 15.126.396 6.94.211 1.484.563 2.525 1.96 8.94 1.026 5.22.326 1.466.346 1.476.395 2.366 1.318 13.26.659 7.566.305 4.105.099 1.596.098 1.723-.057 1.318-.088.967-.686 7.615" clip-path="url(#p1c5720a264)" style="fill:none;stroke:#000"/><path d="m381.458 382.693-.123-.52-.106-.583-.075-1.028.033-.85.075-1.199M391.58 417.956l-2.793.631M391.58 417.956l2.376-.452M393.643 426.173l-1.03-4.152-1.034-4.065M392.028 394.857l-3.113.853M392.028 394.857l2.932-.798M392.028 394.857l.756 3.683M392.028 394.857l-1.092-5.562M407.221 414.824l-1.208-3.45M403.966 415.621l1.847-.305.458-.1.503-.186.447-.206M410.044 412.994l-2.002 1.302-.82.528M407.828 388.493l2.714 4.323M407.828 388.493l-2.191 1.302M407.828 388.493l2.076-1.278M390.936 389.295l2.106-.945M390.936 389.295l-.878.398M390.936 389.295l-1.488-6.007M400.505 396.631l-.84-3.946M400.505 396.631l.574 2.933M400.505 396.631l-3.285.84M403.411 381.551l-3.928-5.443M403.411 381.551l1.771-3.23M401.917 383.877l.314-.457.353-.524.827-1.345M401.513 402.221l-.434-2.657M401.513 402.221l.936 5.025M401.513 402.221l1.864-.39M407.158 406.167l-1.244-4.927M407.158 406.167l-2.584.618M410.044 412.994l-1.096-2.39-.65-1.405-.618-1.627-.522-1.405M414.209 404.785l-2.048.404-1.96.374-3.043.604M396.938 386.495l-1.928 1.014M399.664 392.685l-.416-1.52-.383-1.084-.358-.865-.325-.647-.614-.985-.63-1.089" clip-path="url(#p1c5720a264)" style="fill:none;stroke:#000"/><path d="m398.26 383.218-.885.744-.22.708.313 1.552-.53.273M381.458 382.693l.823 1.215M379.28 383.416l1.022-.318 1.156-.405M383.568 381.61l-1.005.54-1.105.543M434.377 394.892l-1.56 1.183M393.956 417.504l-1.339-6.896M396.22 424.276l-.448-.739-.465-.794-.297-.71-.247-.695-.296-1.405-.511-2.43M386.591 410.54l-1.776.445M386.591 410.54 385 405.383M386.591 410.54l2.196 8.047M394.928 379.156l-4.003-5.03M394.928 379.156l2.422-1.62M394.928 379.156l-2.117 1.62M398.26 383.218l-.762-.87-.807-.945-.931-1.206-.832-1.04M370.804 396.933l5.222-1.584M370.359 399.898l.157-1.293.12-.938.168-.734M373.576 393.483l-.708.326-.676.377-.45.464-.353.437-.272.595-.21.846-.103.405M389.707 383.089l-2.745-3.595M389.707 383.089l1.118-.773M389.707 383.089l-.259.199M399.035 408.028l-3.676.81M399.035 408.028l3.414-.782M396.22 424.276l2.45-1.676M399.442 428.586l-1.432-1.906-1.79-2.404" clip-path="url(#p1c5720a264)" style="fill:none;stroke:#000"/><path d="m393.643 426.173 1.285-.929 1.293-.968M404.574 406.785l-1.197-4.955M404.574 406.785l1.44 4.59M404.574 406.785l-2.125.461M387.21 391.089l2.848-1.396M384.385 387.011l2.391 3.431.434.647M388.915 395.71l-.762-2.125-.672-1.876-.271-.62M395.36 408.839l-1.264-5.126M395.36 408.839l.327 1.242M395.36 408.839l-2.998.658M401.917 383.877l-4.567-6.34M401.917 383.877l1.603 1.99M400.245 385.774l.98-1.072.38-.448.312-.377M418.949 405.662l-2.427-4.033M418.949 405.662l-2.48 1.895M432.817 396.075l-10.505 7.207-3.363 2.38M414.29 409.497l-2.047 1.814-.989.818-1.21.865M392.362 409.497l-1.018-5.288M392.362 409.497l.255 1.111M401.847 391.954l-2.183.731M401.847 391.954l1.405-.79M400.245 385.774l.23.77.433 1.417.412 1.517.37 1.659.157.817M380.116 388.931l1.318 4.635M376.06 388.16l.389.071 1.386.286 2.281.414M382.567 388.223l-1 .52-.651.212-.371.03-.429-.054M401.42 374.845l3.762 3.475M401.42 374.845l-2.184-2.127M401.42 374.845l2.288-1.5M401.42 374.845l-1.937 1.263M384.385 387.011l2.25-1.551M384.385 387.011l-1.818 1.212M384.385 387.011l-2.104-3.103M381.434 393.566l-5.408 1.783M381.434 393.566l1.006 3.971M377.93 386.85l-.297-1.243-.12-.98-.04-.81M375.899 387.437l-.354.084-.634.047-2.05-.357-.097-.057-.057-.066-.004-.127 1.2-2.64.163-.165.263-.09.344-.037 2.8-.212" clip-path="url(#p1c5720a264)" style="fill:none;stroke:#000"/><path d="m379.28 383.416-.885.242-.922.16M411.496 398.975l-2.94-4.995M411.496 398.975l-2.27 1.184M411.496 398.975l2.535-1.05M414.209 404.785l-.277-1.064-.503-1.246-.519-1.08-.963-1.691-.451-.729M393.042 388.35l1.968-.841M394.96 394.059l-.271-.945-.709-2.16-.938-2.604M390.825 382.316l.486.715.314.488.16.366.099.44.14.766.148.679.45 1.437.42 1.143M386.962 379.494l-3.394 2.115M385.907 378.148l.783.999.272.347M384.815 410.985l2.101 8.094M384.999 405.382l-1.606.393-.088.016-.076.077-.027.1.012.14.062.21 1.54 4.667M383.824 414.71l-.997-3.238 1.988-.487M402.449 407.246l.908 4.841M399.664 392.685l-3.048.85M377.13 398.902l5.31-1.365M377.13 398.902l-1.104-3.553M370.359 399.898l2.554-.333 4.217-.663M392.784 398.54l4.436-1.068M392.784 398.54l-2.696.711M392.784 398.54l.662 2.321M396.616 393.535l-1.656.524M396.616 393.535l.604 3.937M396.616 393.535l-1.606-6.026" clip-path="url(#p1c5720a264)" style="fill:none;stroke:#000"/><path d="m372.53 404.626-.536-.444-.461-.421-.478-.588-.305-.611-.263-.794-.14-.612-.05-.63.062-.628M403.708 373.346l.327-.263 4.81-3.876M380.763 385.5l-1.483-2.084M377.93 386.85l1.054-.468.812-.386.967-.496M382.567 388.223l-.588-.937-.676-.968-.54-.818M384.999 405.382l3.52-.66M384.999 405.382l-2.56-7.845M411.24 386.42l-2.473-4.294-.503-.826-.436-.58M405.182 378.32l1.188.987 1.013.929.445.485M397.35 377.536l-1.575-2.47M397.35 377.536l2.133-1.428M416.47 407.557l-2.18 1.94M416.47 407.557l-.858-1.524M403.252 391.165l1.318 4.553M403.252 391.165l2.385-1.37M391.344 404.21l-2.825.511M391.344 404.21l2.752-.497M391.344 404.21l-.543-2.633M403.966 415.621l-.61-3.534M395.775 375.067l-2.141-2.967M395.775 375.067l3.461-2.35M392.81 380.776l-1.985 1.54M395.01 387.509l-.263-1.151-.24-1.053-.304-1.004-.585-1.564-.807-1.961M406.567 375.845l-2.859-2.5M406.567 375.845l-1.385 2.475M410.085 379.3l-.42-.604-.428-.5-2.67-2.35M414.03 397.926l-3.488-5.11M414.03 397.926l2.492 3.703M414.03 397.926l2.143-1.152M386.916 419.08l.56-.16 1.31-.333M393.643 426.173l-1.55.83-.427.111-.314-.016-.222-.195-2.343-8.316M385.082 374.32l-.237 3.548-.016.788M385.907 378.148l-.271.175-.384.214-.423.12M399.74 370.116l3.968 3.23M397.22 397.472l.327 2.97M403.357 412.087l2.656-.712M414.022 409.088l-.922-1.294-.107-.207-.025-.123.043-.103.093-.09 2.508-1.238M414.209 404.785l.539-.123.127.051.103.107.634 1.213M386.916 419.08l-.42.142-1.005.445-1.251.608-1.199.508M405.637 389.795l2.92 4.185M398.26 383.218l1.277 1.337.333.461.198.318.177.44M394.096 403.713l-.56-2.501M377.93 386.85l-2.031.587M390.925 374.127l2.709-2.027M385.907 378.148l.256-.242.75-.604 4.012-3.175M405.914 401.24l-1.344-5.522M405.914 401.24l-2.537.59M409.226 400.16l-1.2.488-1.096.334-1.016.258M411.24 386.42l-1.336.795M411.24 386.42l1.984-1.166M411.24 386.42l2.64 4.382M406.535 395.09l-.486.223-.75.23-.73.175M417.533 396.122l-3.653-5.32M417.533 396.122l-1.36.652M416.522 401.63l2.966-1.726.087-.081.049-.08.029-.083-.02-.119-2.1-3.419M386.122 396.567l-3.682.97M386.122 396.567l2.793-.857M388.519 404.721l-.326-1.496-.399-1.584-.486-1.572-.634-1.89-.552-1.612M388.915 395.71l1.173 3.541M403.377 401.83l-.46-2.618M390.088 399.251l.713 2.326M409.226 400.16l-2.691-5.07M409.226 400.16l1.444 2.735M406.535 395.09l2.022-1.11M408.557 393.98l1.985-1.164M410.542 392.816l1.99-1.202M413.88 390.802l-1.349.812M413.224 385.254l2.488 4.275.013.068-.006.063-.02.046-.035.05-1.784 1.046M409.904 387.215l2.627 4.399M412.531 391.614l3.642 5.16M414.29 409.497l-.268-.409M410.594 407.736l.418 1.61.099.242.169.182.263.068.366-.036.552-.091.394-.13 1.167-.493M383.568 381.61l.645.896M386.636 385.46l3.422 4.233M386.636 385.46l-2.423-2.954M386.636 385.46l2.812-2.172M375.355 393.034l-1.78.45M375.355 393.034l.671 2.315M372.497 389.307l2.74-.15.168.067.14.147.098.241.767 2.903-.019.138-.05.112-.077.05-.134.047-.775.172M373.576 393.483l-1.08-4.176M372.497 389.307l-.375-1.143M375.899 387.437l.16.723M372.122 388.164l.276-.056 3.371.022.29.03M433.95 452.666l-3.306-2.273-17.4-11.936-2.657-1.836-2.034-1.373-2.332-1.437-2.01-1.31-2.347-1.707-1.087-.778-.734-.683-.601-.747" clip-path="url(#p1c5720a264)" style="fill:none;stroke:#000"/><path d="m399.916 426.276.67.917.059.128-.005.119-.07.118-1.128 1.028M395.687 410.08l-3.07.528M399.236 372.718l-2.601-2.487-.13-.072-.154-.055-.106.011-2.611 1.985M393.536 401.212l4.011-.77M393.536 401.212l-.09-.351M397.547 400.442l3.532-.878M401.079 399.564l1.838-.352M415.06 384.206l-1.836 1.048M415.06 384.206l2.875 3.287M415.06 384.206l-.952-2.162M413.224 385.254l-1.088-2.096M412.136 383.158l-1.524-2.93-.527-.929" clip-path="url(#p1c5720a264)" style="fill:none;stroke:#000"/><path d="m414.108 382.044 1.022-.577.301-.258.116-.191.032-.206-.123-.175-.354-.128-5.017-1.21M393.446 400.861l-2.645.716M437.574 395.139l-1.236.15-.906.175-1.166.278-1.45.333M437.574 395.139l10.341-.053 4.181-.154 2.398-.254 1.252-.222 1.573-.39 1.491-.69 1.873-1.033M453.226 411.095l-.702.077-.501-.075-.34-.118-.78-.39-.85-.548-1.037-.548-1.883-.851-2.582-1.118-.391-.246-.2-.201-.159-.252-.23-.46-5.997-11.226M382.281 383.908l1.932-1.402M412.136 383.158l1.972-1.114M290.467 400.456l-1.178-.11-1.738-.357-1.59-.428-1.285-.421-.882-.294-1.202-.452-6.557-2.7M179.111 326.477l.478 1.048 1.928 5.121 2.15 6.233 1.755 5.51.46 1.374 1.376 3.152.577.785.972 1.223 2.52 2.502 3 2.254 1.243.992.642.628.7.826 3.411 4.446.692.627.774.54 1.005.484 1.047.429 5.856 2.104 9.35 3.462 2.965 1.27 1.212.588 2.043 1.183 3.245 1.873 3.938 2.445.88.493 3.115 1.342 4.869 1.866 1.82.817 4.324 1.89 5.857 2.366 3.378 1.341 3.122 1.437 10.058 4.033 6.162 2.533" clip-path="url(#p1c5720a264)" style="fill:none;stroke:#000"/><path d="m263.67 420.783-.708-1.414-.264-.675-.09-.46.065-.381.14-.39.429-.634 1.565-2.017.75-1.024.494-.62.527-.54.577-.595.42-.516 1.186-1.858.725-1.341 1.507-3.105 1.83-3.46 3.212-6.059M167.891 305.222l2.875 5.43 3.815 7.321 4.044 7.551.486.953" clip-path="url(#p1c5720a264)" style="fill:none;stroke:#000"/><path d="m168.674 321.832.947.167 1.005.293.915.421 1.425.746 4.12 2.232.56.294 1.465.492M182.316 323.928l-.408.12-.445.19-.474.286-.515.416-.563.576-.8.96M167.891 305.222l-3.228-6.098-5.586-11.053" clip-path="url(#p1c5720a264)" style="fill:none;stroke:#000"/><path d="m148.65 260.351 1.415 1.883 1.475 2.144.52.93.255.682.247 1.191.205.969.527 2.795.396 3.001.09 1.39.083.762.206 1.16.33 1.357.436 1.262.528 1.279 3.714 6.915M167.463 291.772l-.7-.676-.519-.73-.84-1.357-.445-.675-.346-.77-.428-.97-.247-.3-.321-.152-.314-.032-.444.04-.478.135-1.203.524-1.071.58-1.03.682M146.223 300.263l-.12-1.02.008-.357.133-.397 1.012-2.176.182-.413.099-.508.205-.858.256-1 .181-.365.222-.532.116-.429.099-.428.016-.421-.065-.39-.256-.325-.239-.238M146.223 300.263l-.317.044" clip-path="url(#p1c5720a264)" style="fill:none;stroke:#000"/><path d="m148.089 301.316-.511-.6-.223-.147-.691-.282-.231-.035-.21.011M145.082 304.11l2.55-2.446.457-.348M168.674 321.832l-1.289-.806-2.026-1.12-2.311-1.187-.358-.198-.215-.186-.152-.175-.214-.361-.395-.858-.145-.464-.156-.342-.198-.293-.326-.362-.254-.353-.161-.345-.14-.44-.132-.398-.149-.381-.259-.532-.148-.385-.128-.635-.148-.576-.202-.449-.18-.373-.14-.262-.211-.282-.634-.727-.301-.348-.424-.652-.235-.242-.21-.123-.276-.084-.47-.122-.362-.167-.235-.195-.264-.274-.395-.536-.321-.432-.292-.488-.837-1.565-1.133-1.969-.152-.186-.214-.167-.284-.107-.412-.12-.392-.233-.449-.255-.345-.115-.33-.028-.46.056-.669.155-.452.17M145.082 304.11l.321-1.747.132-.65.304-1.072.067-.334M144.76 305.126l.165-.627.157-.389M144.76 305.126l-.782-.079M146.299 310.866l-.657-1.206-.173-.42-.14-.54-.107-.739-.461-2.302v-.533M147.032 312.21l.751 1.38 2.72 4.995.386.563.354.326.42.254.462.198.601.128.52.023.6-.063.437.008.486.159.486.277.865.524 1.944 1.382.593.365.536.223.461.127.61.063.815-.008.89-.055.947-.135 2.546-.564 1.927-.5.602-.088.683.04M147.032 312.21l-.068.535.05.393.16.425.317.738.136.37.103.452.066.536.016.444-.032.524-.07.489.024.254.095.25.202.31M147.032 312.21l-.733-1.344M332.82 187.885l-.407-.084-.758-.413-1.252-1.049-3.658-3.525-7.833-7.21-1.03-.993-.774-.841-.644-1.049-.387-1.112-.815-2.485-2.883-8.258-1.021-2.446-2.027-5.75-.626-1.127-.742-.794-.922-.588-1.186-.476-1.532-.334-2.538-.571-1.516-.509-1.12-.556-.938-.619-1.137-1.144-6.195-6.78-2.389-2.717-.922-.841-1.352-1.096-5.42-3.86-2.768-2.207-1.318-1.27-1.285-1.446-1.137-1.589-5.206-7.464-1.054-1.81-.824-1.843-1.993-5.431-.527-1.398-3.477-8.513-.241-.625M332.82 187.885l.515.106 3.658.35 1.696.286 1.302.476 1.187.715 1.73 1.46 1.12 1.049.519.567.481.656.5.774" clip-path="url(#p1c5720a264)" style="fill:none;stroke:#000"/><path d="m319.719 118.334.551 3.129 1.006 6.607 1.03 6.59 1.712 11.078.536 3.184.354 1.954.264 1.755.107 1.405-.008 1.414-.181 1.739-.28 2.342-.14 1.827.024.858.132.73.544 1.35.898 1.81 1.276 1.97 1.565 1.945 3.436 3.383 1.664 1.636 1.985 1.787 2.01 1.762 1.194.81 1.887 1.057 1.738.706 2.224.85 1.392.572.725.468.815.826.594 1.025.172 1.055-.057.687-.144.572-.243.592-.93 1.42-.907 1.375-.585 1.088-.313.944-.165.953-.074.735M148.65 260.351l2.618-1.213.873-.461 1.302-.762.898-.675 1.878-2.072.717-.794 1.268-1.263.775-.842.56-.698 1.285-1.85.709-1.073.732-1.588.478-.786.264-.27.304-.15.437-.024.461.15 1.763.763.552.135.486-.016.47-.198.683-.43.915-.722.61-.278.691-.159 1.137-.23.956-.167 1.796-.515.823-.128.684.04.585.214.618.421.799.73 1.03.834.51.294.708.207.874.134 2.999.509 2.273.5.758.064 1.17-.016.856.071.692.16.634.245.766.469.8.699.255.194.193.06.297-.009.577-.063.663.012.82.088.42-.02.531-.12 2.529-.893.906-.198 1.268-.128.573-.091.56-.139.647-.262 1.22-.393.468-.218.614-.41.692-.36.552-.235.325-.206.207-.195.123-.258.1-.746.468-3.144M291.241 401.927l-.774-1.471M186.652 462.405l2.287-.331.51-.112.478-.222.494-.286 4.968-3.072.65-.342.552-.253.486-.207.734-.159 3.393-.548 12.81-1.857 10.635-1.437 6.771-.921 8.073-1.382.465-.09.482-.187.495-.31 2.05-1.81 2.344-2.29.325-.21.594-.227.613-.155.597-.27.54-.385.313-.365.21-.337 5.865-13.847.478-.952.807-.62 1.038-.301.923.174 1.754.827 1.467.944.898.342.716.095.553.031.831-.103.8-.246.733-.254.675-.19.914-.151.696-.175.47-.182.375-.171.717-.703.955-.92 1.483-1.287 3.146-2.675 1.475-1.422.742-.793.6-.898.602-1.15.503-1.065.543-.976 3.213-5.184.922-1.445.857-1.033 1.895-2 1.977-2.302 1.252-1.747 1.845-2.334M182.316 323.928l.309.012.28.091.26.151.275.298.243.365.24.401.238.524.317.48.227.255.374.305.783.64.96.81.98.718.403.437.231.428.124.429.288 1.04.313.93.239.555.074.381v.405l-.04.42-.124.827-.116.793-.074 1.088M167.891 305.222l-.032-1.636v-1.183l.09-.484.19-.532.33-.532.403-.453.873-.833.601-.421.84-.588.437-.071.38.071.32.27.14.405.338.762.429.62.617.508 1.343.627 1.697.818.51.23.684.167.882.04.42.04.362.214.264.31.198.404.099.469.016.659.05.698.107.366.23.365.429.46 1.186 1.136.461.54.486.81.305.516.264.381.337.302.915.643 1.647 1.143.668.302.502.238.38.278.28.35.222.348.18.453.009.373-.107.357-.313.572-.51.54-.207.318-.197.476-.306.77-.23.405-.403.373-.668.564-1.17 1.255-.724.754-.338.39-.371.515-.51.786-.61 1.048M436.247 454.087l-1.284.778M434.295 454.29l-.551 1.313M434.295 454.29l.668.575M434.295 454.29l-.346-1.624M433.744 455.603l1.22-.738M414.052 474.924l.621-.938.8-.901 5.354-5.37 5.766-5.63 1.17-1.107 3.917-3.309 1.052-.977 1.012-1.089M367.475 388.964l2.073-.324 2.388-.437.186-.039M306.02 307.286l.477 1.128.396.81.354.603.527.754.28.54.247.66.198.809.297.762.312.667.84 1.2.94 1.365.709 1.064.56.873.51.596.618.706.997 1.025.856.714.71.382.642.206.914-.111.667-.135.363-.072.42.024.502.294.815.69.84.604.717.468.89.572.931.469.956.65 1.12.747.602.54.452.524.297.611.346.85.148.675.09.572.165.492.24.349.44.397.59.516.6.516.495.428.543.398.569.294.873.182.799.206.922.279 1.195.476 1.318.571.815.405.57.437.304.326.239.325.115.437.206 1.008.222 1.628.38 1.762.28 1.247.304.977.503 1.032.576.817.66.723.856.397.989.215.642.087.536.119.51.222.585.492 1.021 1.152 1.78 1.85 1.441 1.643 1.335 1.382 1.054 1.032.544.62.535.65.454.532.502.516.848.834 1.104 1.334.865.969.396.555.37.754.173.77.108 1.183.032 1.978-.099 2.048-.008 1.302.066.802.082.627.124.596.289.595.642 1.064 1.186 1.381.552.858.725 1.175.52.952.37.795.37.928.214.898.207.96.329 1.056.585 1.35 1.301 2.525 1.857 3.416M330.42 197.488l2.4-9.603M327.017 104.028l-.531.58-.3.404-.36.644-2.195 4.554-1.235 2.597-1.417 3.097-1.26 2.43M593.173 321.65l-.972-.874-1.244-1.206-1.515-1.525-1.318-1.286-.898-.786-.775-.842-.617-.96-.544-.85-.675-1.493-.231-.89.016-.92.314-1.81.008-.787-.124-.801-.338-.803-.312-.564-.388-.825-.239-.548-.321-1.12-.807-2.937-.84-4.034-.413-2.207-.197-.683-.321-.675-.223-.365-.708-.627-.635-.556-.617-.715-.371-.865-.346-.858-.37-.65-.553-.66-.56-.778-.247-.651-.206-.818-.148-1.35-.099-.817-.206-.818-.23-.858-.149-.643-.082-.516-.165-.993-.404-2.374-.296-1.834-.099-1.143-.09-2.589.05-1.508.14-1.755.123-1.04.164-1.04.083-.961.033-1.675-.157-.914-.149-.627-.098-.675-.156-1.437M566.524 395.925l-.172-.588-.272-1.477-.198-2.445.247-2.287 1.006-3.62 1.054-3.128 1.12-3.78.692-2.429.494-1.604.149-.984.016-.794-.197-.826-1.253-2.112-2.108-3.128-1.022-1.683-.362-1.032-.017-.985.058-.738.379-.754 1.36-1.636 1.523-1.572 2.043-2.032 1.153-1.112 1.285-1.175 1.063-.874 1.202-.88 1.5-1.001 1.796-1.231 1.285-.984 1.26-1.16 2.52-2.683 1.294-1.413 1.433-1.318 1.483-1.096 1.713-.985 1.4-.746 1.039-.651.84-.667.363-.492.23-.77.099-1.096-.428-7.845-.28-4.708-.14-1.755M566.524 395.925l1.187-.763.362-.326.202-.31.177-.46.149-1 .099-.46.164-.254.28-.095 3.543.428M168.684 475.621l1.102 2.235 1.302 2.525.741 1.42.396.58.296.35.42.262.758.317 3.913 1.453M186.652 462.405l-2.162.32-2.075.357-1.788.373-1.623.54-1.136.429-.742.436-.675.5-.717 1.127-3.896 6.002-.882 1.12-.634.651-.618.524-1.02.837M240.11 629.32l-1.425.5-.725.2-.766.118-.609-.04-.65-.166-.631-.17-.72-.14-.684-.119-.581-.115-.713-.127-.676-.162-.889-.27-.873-.382-1.079-.627-.84-.556-1.076-.86-1.037-.767-.557-.444-.683-.635-.643-.794-.601-.865-.865-1.413-.37-.69-.28-.612-.915-2.215-.28-.746-.264-.944-1.071-4.279-.923-3.62-.304-1.127-.181-.278-.33-.365-.618-.357-.832-.5-.494-.524-.494-.754-1.195-2.16-.156-.492-.041-.285.296-1.2.181-1.055.004-.77.054-.397.115-.396.462-1.112.065-.715-.156-.524-.272-.492-.453-.603-.955-1.246-1.434-2.191-1.927-2.326-.568-.913-.577-1.04-.52-1.016-1.482-3.611-.98-2.001-.404-.826-.502-1.373-.52-1.12-.84-1.524-1.532-3.302-.363-.88-.197-.882-.033-.858.074-1.285.016-4.541-.024-.953-.107-.62-.272-.967-.23-.937-.124-.707-.017-.833.008-.659-.057-.564-.14-.595-.19-.651-.18-.62-.347-1.397-.288-2.54-.198-2.024-.124-1.778-.148-.889-.148-1.334-.194-1.004-.072-.256-.15-.209-.424-.408-3.163-2.99-5.054-4.921-3.995-3.934-.59-.615-.164-.194-.078-.227-.05-.34.045-1.112.075-2.898.23-3.04.025-.587v-.516l-.045-.592-.194-.62-.12-.63-.032-.489.029-1.024.04-3.132.067-3.286.329-15.814.214-7.47.075-1.184.11-1.631v-.544l-.004-.396-.053-.417-.136-.44-.024-.513.082-.568.053-.36.05-.255.016-.333-.012-.448.14-7.003.33-6.907.291-5.559M240.11 629.32l-1.515-1.555M413.545 475.753l.296-.509.211-.32M375.042 433.048l1.73-1.58 1.252-.912.643-.255.61-.039.527.08.502.245.47.453.3.6.132.515.124.762.09.676.087.468.115.274.256.365.547.69.564.787.346.448.194.21.19.167.284.143.465.091.42.084.487.162.64.358.87.643.446.337.346.353.292.437.218.528.116.528.197 1.036.034.516.108.57.143.379.131.198.21.235.306.237.407.163.394.137.335.161.577.393 1.111.75.746.509.495.392.778.687 1.013.826.898.675.725.65.79.905.602.85.61.937.37.65.38.81.436 1.033.453 1.104.733 1.254.56 1.064.404.905.412 1.008.28.595.416.779.696.92 1.12 1.334 1.236 1.365.996 1.076.932 1.072.881 1.143 1.17 1.588.555.806.574.802.56.833.481.774.474.794.26.421.358.48.4.442M587.037 538.682l-1.615-.365-.93-.159-2.237-.34-.42-.096-.293-.114-.233-.129-.2-.174-.432-.472-.37-.43-.392-.523-.325-.496-.28-.504-.19-.33-.175-.168-.274-.086-.261.02-.217.071-.782.29-.342.1-.286.016-.258-.05-.247-.117-.387-.278-.322-.274-.625-.6-.433-.393-.638-.404-.614-.294-.51-.139-.482-.051-.408.016-.482.162-.626.326-.577.317-.54.318-.413.214-.503.212-.542.179-.46.157-.334.12-.36.155-.307.183-.343.19-.259.074-.23-.02-.215-.091-.24-.262-.635-.816-.183-.21-.241-.222-.76-.669M451.478 579.946l-.271-2.358.033-1.42.078-.441.536-1.223 1.132-1.821.227-.97-.037-.579-.39-1.895-.842-1.546-.696-1.051-2.109-2.66-.04-.262.197-.881.601-1.691.643-1.006.852-.987.445-.42.29-.536.027-.571-.523-2.39-.379-.933-.918-1.52-.94-1.64-1.45-1.802-2.347-2.532-4.333-3.762-2.8-2.986-1.203-1.11-1.285-1.366-.577-.818-.437-.865-2.183-8.343-.56-1.183-.716-.66-.676-.34-2.34-.287-1.531-.166-1.302-.429-1.277-.73-1.763-1.422-3.402-3.663-.544-.655-.379-.683-.172-1.341.14-3.065-1.17-7.136-.799-4.12.028-.826.17-.707.716-1.31.478-.714.173-.587.057-1.172-.16-.905-.165-.4-1.059-1.779-.172-.889.169-2.124.292-.543.848-1.326.124-.655.144-1.846.358-.54.75-1.02.148-.468-.057-.845-.577-1.009-2.117-2.322-1.274-1.012-1.162-.713-.286-.538-.116-.718-.053-.96" clip-path="url(#p1c5720a264)" style="fill:none;stroke:#000"/></g><g id="PatchCollection_1"><path d="m393.736 372.228 2.554-1.93 2.733 2.422-3.203 2.209zM392.625 409.648l.215.882 2.599-.588-.215-.883zM390.857 399.438l.45 1.54 1.698-.409-.424-1.564zM373.238 389.628l2.043-.261.857 3.191-1.993.595z" clip-path="url(#p1c5720a264)" style="fill:green;fill-opacity:.8"/></g><g id="PatchCollection_2"><path d="m397.303 372.68-.648-.941-1.475.944.649.94zM378.772 413.637l-2.14-5.69 3.503-1.224 2.14 5.69z" clip-path="url(#p1c5720a264)" style="fill:#90ee90;fill-opacity:.8"/></g><path id="PatchCollection_3" d="m377.138 396.032.649 2.305 2.897-.758-.65-2.305z" clip-path="url(#p1c5720a264)" style="fill:#a9a9a9;fill-opacity:.8"/></g></g><defs><clipPath id="p1c5720a264"><path d="M134.977 86.4h468.045v554.4H134.977z"/></clipPath></defs></svg>