<svg xmlns="http://www.w3.org/2000/svg" width="960" height="960" viewBox="0 0 720 720"><defs><style>*{stroke-linejoin:round;stroke-linecap:butt}</style></defs><g id="figure_1"><path id="patch_1" d="M0 720h720V0H0z" style="fill:#fff"/><g id="axes_1"><path id="patch_2" d="M96.84 640.8h544.32V86.4H96.84z" style="fill:#fff"/><g id="LineCollection_1"><path d="m352.551 513.65.482-.847 3.045-2.041 1.292-2.498.11-1.281-1.95-3.867-.35-1.607 1.358-6.646.328-4.105 3.527-4.757 1.117-.912 3.396-9.175.85-1.712M410.768 479.793l-1.352.108-1.436.298-1.54.62-7.107 4.032-5.277 3.078-1.929.947-1.251.418-2.458.624-4.97 1.108-.847-.047-.65-.365-.369-.575-.302-.887-.072-1.022.123-4.498-.19-1.136-.514-.872-.955-1.01-1.27-.866-1.44-.692-5.515-1.772-2.853-.999-1.162-.584-.78-.584-.896-.915M362.69 450.474l-1.33 3.948-.561 1.677-.303 1.152-.087.97.036.885.166.824 3.644 11.201.749 1.82.752 1.25M392.46 626.525l-.678-.934-1.665-3.454.131-2.28.79-1.802-.33-1.152-3.329-3.648-3.417-5.234-1.972-1.39-1.818-2.585-.547-3.323.241-2.736 1.227-2.629.022-1.346.678-5.104-1.555-3.084 1.643-5.039-.635-1.412-3.527-4.387-1.139-3.91.22-5.256-.132-2.758-1.468-3.54-1.686-4.604-2.147-2.39-1.14.152-1.817.565-5.739-1.694-.635-.913.197-1.129.525-4.17-1.072-3.453.656-2.172.11-6.19-.438-1.043-.526-.173-3.176 1.172-1.052.174-.481-.586-.154-1.26.46-3.366.46-2.129-1.117-2.129-.92-2.628-1.774-1.411-.789-2.39-.394-4.105M396.886 628.849l-1.621-1.086-2.804-1.238M394.63 630.138l-.626-1.754-1.543-1.859M309.718 332.485l-3.183-.3-2.109-.46-13.688-5.746-3.08-1.4-2.611-1.769-2.299-1.913-15.092-13.02-2.505-2.019-1.974-1.168-2.174-1.012-18.686-8.697-1.948-.976-1.592-1.12-1.05-1.122-1.092-1.785-3.136-6.156-2.197-4.825M224.21 263.42l3.941 8.659 3.15 6.918M177.005 295.788l5.808-7.692.556-.04 5.093.458 7.877-4.768 4.347-1.033 8.783-.116 21.833-3.6M367.55 334.167l-1.048-1.298-.622-.88M365.577 334.411l-.055-.631-.08-.584.016-.332.183-.465.239-.41M389.843 296.783l-.971 3.472-.797 3.078-.095.537-.032.726.016.915-.08.947-.11.521-.144.347-.366.269-1.385.678-4.878 2.163-5.935 2.503-1.92.756-.243.119-.171.181-.143.205-.068.166-.02.213.187.694.028.332-.024.3-.127.402-1.648 3.836-.334 1.326-.302 1.728-.286 1.112-.359 1.09-.891 1.696-1.472 2.462-1.393 2.431" clip-path="url(#pac1b36583f)" style="fill:none;stroke:#000"/><path d="m349.704 341.78.681-.791.231-.34.147-.37.127-.427.18-.92.167-.488.214-.474.255-.482.47-.433.437-.276.581-.166.438.032.43.118 1.098.394 1.512.758.987.363.605.063.542-.178.73-.485 2.054-1.815.796-.552.796-.411.891-.363.796-.079.708-.047M367.55 334.167l-.222.181-.374.213-.358.047-.438-.055-.58-.142M368.46 372.444l-.294-.674-.457-.697-.493-.466-3.747-3.067-8.27-6.46-3.485-2.717M324.865 340.858l.587.245 1.313.395 3.135.852 4.775 1.31 1.592.387.963.292.883.363.74.434.7.513.566.473 1.767 1.973 3.501 4.498 1.648 1.878.827.845 1.035.892 1.138.915 1.679 1.24M349.704 341.78l-.322.468-.541 1.041-.239.56-.179.794-.012.386.036.293 1.145 4.2 2.122 8.84" clip-path="url(#pac1b36583f)" style="fill:none;stroke:#000"/><path d="m367.291 385.958.506-1.312.407-1.545.203-1.175.076-1.583.03-4.048-.053-3.851M375.325 332.969l.216.136.147.243.046.35.038.72.016.853.151 1.018.47 3.094.183.978.08.695v1.484l.119 2.54.127.735.191.457.263.537.055.363.054 1.044 1.038 5.541.182.786.597 2.951.087.458-.095.355-.151.237-.303.292-.422.465-2.902 4.308-1.443 2.053-2.02 2.425-1.017 1.357-1.021.87-.621.71-.93 1.42M242.32 447.115l-1.114-.81-1.426-2.574-2.15-1.74.135-1.288.362-.832.86-10.523 1.29-3.105.929-5.752-10.662-1.817-.068-.832.295-3.333-.499-.53-1.222.154-4.708.15-8.082-2.652-1.788.683-10.934-3.408-2.445-2.119-1.856.985-6.995 1.058-1.018 1.287-.634 4.09-.996 1.363-2.128.303-1.358-1.211-2.015-1.211-3.214.226-1.789-.53-.136-.757-.498-3.254.204-1.667 5.297-3.86 3.147-3.027 2.286-4.468 3.282-2.346.43-1.667-1.222-6.887-2.83-1.45-1.63-.947-9.688-3.619-1.88-1.811-4.64-.69-1.63-.515-.977.277" clip-path="url(#pac1b36583f)" style="fill:none;stroke:#000"/><path d="m177.005 295.788-2.993 3.157-.581 1.057-1.63 5.917 2.649 4.193.43 2.587-3.69 4.482-.475 3.101 1.788 2.527.656 4.137 2.807 6.95 2.332 3.562-.045 1.378.317.864v1.836l.656.574.317 2.128-.77 2.872-.792 2.125-3.577 5.804-2.988 2.354-4.89 5.86-.317 4.884.589 1.953 1.947 3.904-.14 2.465M367.291 385.958l2.983 1.214M367.291 385.958l-2.556-.976M367.291 385.958l-1.222 3.268M360.207 386.966l2.474.913M360.207 386.966l-.407-.122h-.298l-.21.082-.19.232-.948 2.314" clip-path="url(#pac1b36583f)" style="fill:none;stroke:#000"/><path d="m358.582 389.634.786-2.176.11-.26.127-.154.25-.054.352-.024M370.274 387.172l-1.238 3.226M370.274 387.172l.681.287M372.829 391.872l1.334-3.163-3.208-1.25M370.955 387.459l-1.058 3.25M362.68 387.88l-1.11 2.867M362.68 387.88l.438.159M364.735 384.982l-.32-.093-.225-.016-.264.083-.145.128-.13.21-.97 2.585M354.627 388.127l3.527 1.345M363.118 388.039l2.951 1.187" clip-path="url(#pac1b36583f)" style="fill:none;stroke:#000"/><path d="m363.118 388.039 1.049-2.707.184-.243.384-.107M363.118 388.039l-1.122 2.868M366.07 389.226l2.966 1.172M366.07 389.226l-1.072 2.796M358.154 389.472l-.967 2.488M358.154 389.472l.428.162M358.582 389.634l2.988 1.113M358.582 389.634l-2.078 5.454M369.036 390.398l-1.06 2.817M361.57 390.747l-2.176 5.49M361.57 390.747l.426.16M369.897 390.708l2.932 1.164M369.897 390.708l-.987 2.876M361.996 390.907l3.002 1.115M361.996 390.907l-2.185 5.482M372.829 391.872l-1.167 2.821M372.829 391.872l2.61 1.112M364.998 392.022l2.979 1.193M364.998 392.022l-2.101 5.46M367.977 393.215l-2.08 5.362M367.977 393.215l.933.369M368.91 393.584l2.752 1.11M368.91 393.584l-1.997 5.375M354.614 391.06l-1.512 2.808M354.614 391.06l-2.8-.861M354.614 391.06l2.573.9M344.742 390.891l-1.532 4.04M344.742 390.891l2.7.995M340.57 393.887l1.484-4.035 2.688 1.04M371.662 394.693l-1.978 5.334M371.662 394.693l2.762 1.092M356.043 394.916l-1.439 3.853M356.043 394.916l-2.941-1.048M356.043 394.916l.46.172M356.043 394.916l1.144-2.956M356.504 395.088l2.89 1.148M356.504 395.088l-1.433 3.876M347.442 391.886l2.729.941M347.442 391.886l.489-1.368M347.442 391.886l-1.343 3.792M374.424 395.785l1.016-2.8M374.424 395.785l-1.885 5.322M374.424 395.785l3.273 1.065M359.394 396.236l-1.455 3.762M359.394 396.236l.417.153M345.908 396.233l2.743.964M345.908 396.233l.191-.555M345.908 396.233l-1.291 3.803M345.908 396.233l-.589-.473M359.81 396.39l3.087 1.093M359.81 396.39l-1.386 3.783M348.862 396.612l1.309-3.785M348.862 396.612l-.211.585M348.862 396.612l-2.763-.934M348.862 396.612l2.902 1.045M377.697 396.85l-2.048 5.405M379.656 397.268l-.931-.17-1.028-.248M348.65 397.197l2.928.972M348.65 397.197l-1.252 3.843M362.897 397.483l3 1.094M362.897 397.483l-1.427 3.788M351.764 397.657l1.338-3.789M351.764 397.657l-.186.512M351.764 397.657l2.84 1.112M355.07 398.964l-.466-.195M355.07 398.964l-.195.437M355.07 398.964l2.87 1.034M351.578 398.169l2.86 1.051M351.578 398.169l-1.338 3.88M365.896 398.577l-1.431 3.788M365.896 398.577l1.017.382M354.604 398.77l-.166.45M366.913 398.959l2.771 1.068M366.913 398.959l-1.539 3.754M341.878 399.08l1.332-4.149M341.878 399.08l-1.205 3.65M341.878 399.08l2.739.956M354.438 399.22 353 402.99M354.438 399.22l.437.18M354.875 399.4l2.901 1.016M354.875 399.4l-1.464 3.73M357.94 399.998l-.164.418M357.94 399.998l.484.175M344.617 400.036l-1.28 3.677M344.617 400.036l2.78 1.004M369.684 400.027l-1.414 3.74M369.684 400.027l2.855 1.08M358.424 400.173l-.176.431M358.424 400.173l3.046 1.098M357.776 400.416l-1.45 3.773M357.776 400.416l.472.188M358.248 400.604l3.027 1.139M358.248 400.604l-1.433 3.766M347.398 401.04l-1.3 3.68M347.398 401.04l2.842 1.01M372.539 401.107l3.11 1.148M372.539 401.107l-1.352 3.737M361.47 401.27l-.195.473M361.47 401.27l2.995 1.095M353 402.989l-1.436 3.656M353 402.989l.41.14M353 402.989l-2.76-.94M337.827 401.49l2.846 1.24M337.827 401.49l2.743-7.603M337.827 401.49l-1.51 4.247M333.604 404.812l1.22-3.653.193-.344.283-.119.329-.011.505.098 1.693.707M361.275 401.743l3.008 1.128M361.275 401.743l-1.443 3.765M350.24 402.05l-1.296 3.654M375.649 402.255l-1.544 4.223M375.649 402.255l2.864 1.036M364.465 402.365l-.182.506M364.465 402.365l.91.348M340.673 402.73l-1.468 4.023M340.673 402.73l2.664.983M365.374 402.713l-.203.51M365.374 402.713l2.896 1.055M364.283 402.87l-1.443 3.78M364.283 402.87l.888.352M365.17 403.222l2.885 1.084M365.17 403.222l-1.488 3.762M353.41 403.13l2.916 1.06M353.41 403.13l-1.422 3.678M378.513 403.291l2.682.995M378.513 403.291l-1.552 4.116M379.656 397.268l.068 2.202-.16.766-1.05 3.055M343.337 403.713l-1.443 3.925M343.337 403.713l2.762 1.007M368.27 403.768l-.215.538M368.27 403.768l2.917 1.076M368.055 404.306l-1.474 3.788M368.055 404.306l2.928 1.056M356.326 404.19l-1.465 3.74M356.326 404.19l.489.18M356.815 404.37l3.017 1.138M356.815 404.37l-1.489 3.753M346.099 404.72l-1.342 3.902M346.099 404.72l2.845.984M371.187 404.844l-.204.518M370.983 405.362l3.122 1.116M359.832 405.508l3.008 1.142M359.832 405.508l-1.448 3.755M348.944 405.704l-1.48 3.912M348.944 405.704l2.62.941M374.105 406.478l2.856.929M369.478 409.17l.563-1.246.166-.307.26-.246.418-.144 1.153.437 1.197.503.195-.02.062-.141.613-1.528M339.205 406.753l-1.157 3.177M339.205 406.753l2.689.885M339.205 406.753l-2.887-1.016M362.84 406.65l.842.334M362.84 406.65l-1.346 3.79M351.564 406.645l-1.442 3.897M351.564 406.645l.424.163M351.988 406.808l2.873 1.121M351.988 406.808l-1.485 3.874M363.682 406.984l2.9 1.11M363.682 406.984l-1.581 3.687M341.894 407.638l2.863.984M341.894 407.638l-.981 3.365M354.86 407.93l-1.495 3.797M354.86 407.93l.466.193M355.326 408.123l3.058 1.14M355.326 408.123l-1.549 3.75M344.757 408.622l2.707.994M344.757 408.622l-1.307 3.433M340.913 411.003l2.537 1.052M340.913 411.003l-2.865-1.073M340.913 411.003l-1.597 4.149M358.384 409.263l3.11 1.177M358.384 409.263l-1.478 3.781M347.464 409.617l2.658.925M347.464 409.617l-1.256 3.453M325.284 409.953l2.982 1.16M325.284 409.953l-1.556 4.633M323.865 408.475l.902.33.247.166.214.229.168.402-.112.351M350.122 410.542l-1.398 3.516M350.122 410.542l.38.14M361.494 410.44l.607.231M361.494 410.44l-1.479 3.693M350.503 410.682l2.862 1.045M350.503 410.682l-1.365 3.514M353.365 411.727l-1.271 3.469M353.365 411.727l.412.147M353.777 411.874l3.129 1.17M353.777 411.874l-1.241 3.48M343.45 412.055l2.758 1.015M343.45 412.055l-1.426 4.161M339.316 415.152l2.708 1.064M336.335 414.259l1.956.483 1.025.41M356.906 413.044l-1.334 3.418M356.906 413.044l3.11 1.089M346.208 413.07l2.516.988M346.208 413.07l-1.559 4.136M348.724 414.058l.414.138M348.724 414.058l-1.515 3.988M336.335 414.259l1.713-4.329M336.335 414.259l-2.687-.963M349.138 414.196l2.956 1M349.138 414.196l-1.487 3.995M360.015 414.133l-1.252 3.535M360.015 414.133l.583.215M352.094 415.196l-1.628 4.135M352.094 415.196l.442.159M352.536 415.355l3.036 1.107M352.536 415.355l-1.607 4.168M342.024 416.216l2.625.99M355.572 416.462l3.191 1.206M355.572 416.462l-1.737 4.221M323.728 414.586l2.769 1.028M323.728 414.586l-2.486-.91M242.32 447.115l.38-.962 1.155-1.211 3.848-.832 4.142-1.135.657-1.287-.792-8.175 1.494-.334 11.68-1.998 5.728-.69 12.269-2.153 1.222.846 1.245 4.38 2.604 4.227 1.54 1.845 1.38.461 4.844-2.077 3.645-9.45 5.189-4.376 3.386-.82 10.027-4.154 3.014-.468.725-.258.53-.44.31-.552 1.186-2.916M358.763 417.668l-1.841 4.29M347.209 418.046l-2.56-.84M347.209 418.046l.442.145M350.929 419.523l2.906 1.16M350.929 419.523l-.463-.192M349.07 423.937l.164-.057.152-.16.123-.308.353-1.012 1.067-2.877M353.835 420.683l3.087 1.274M352.071 425.35l.224-.549 1.54-4.118M356.922 421.957l-1.753 4.473M356.922 421.957l.61.25M356.39 430.333l-.704-.88-.32-.475-.107-.452.025-.502.114-.435.353-.915M360.42 435.151l-.684-1.266-.505-.738-.558-.655-.64-.667-.923-.888-.72-.604" clip-path="url(#pac1b36583f)" style="fill:none;stroke:#000"/><path d="m355.17 426.43-.413 1.158-.106.639.103.619.275.422.318.328.358.268.685.469M165.336 530.352l2.39-4.525-.068-3.475-.837-4.861-1.223-1.565-2.377-1.214-.995-.608-1.314-1.91-.973-3.127.498-1.998 2.626-1.91.475-1.39 1.743-1.652 4.256.436 3.124 2.17 4.007-2.43 4.278-2.17 1.947-2.086 1.313-2.69-.226-1.566v-1.91l.226-5.818 2.219-2.258.656-5.905 1.154-1.129.816-1.738.497-1.474-.271-3.398.317-2.034 4.052-1.738 1.448.249 7.177 2.185 4.074-.795.362-.595 1.403-.945 2.016.993 3.395-.249 8.285-4.363 8.625-6.898 3.509.245 2.49-.942 2.422-2.827 2.558-3.027.91-2.295M514.881 475.225l-1.318-.029-2.738.331-1.683.28-1.3.406-1.542.957-4.045 3.37-1.28.643-1.506.367-2.753.371-4.993.544-2.348.308-7.534 1.025-2.356.568-1.592.662-1.273.916-1.114.915-4.298 4.294-1.782 2.462M410.768 479.793l1.477.252 1.512.548 3.06 1.425 6.641 3.232 2.229.978 1.464.631 13.927 5.414 1.576.9.828.868.54 1.01.892 2.225.812 1.2 1.385 1.104 1.32.553 1.13.063 1.37-.206 1.512-.803 1.404-.79 1.556-.71 4.632-1.137 5.762-1.042 1.783-.426 1.034-.615.812-.852M138.456 534.078l10.164 2.691 3.849.26 2.784 1.913 4.346-.26 2.966-1.74 2.771-6.59" clip-path="url(#pac1b36583f)" style="fill:none;stroke:#000"/><path d="m107.307 629.527 3.112-1.746 1.858-2.368 1.471-1.22 6.466-2.942 1.327-5.622.434-1.985.651-.526 1.183.24 2.123.717 1.592 1.1 2.63 1.77 1.061-.31 1.568-1.986 1.713-1.387.99-1.292 1.036-3.181.362-3.445 2.703-.455 1.013-.645 1.857-1.531 1.303-.719 1.134-.047 3.426.91 1.471-.169 3.57-1.746.845-1.148v-4.497l.314-2.2.748-1.005.41-1.436-.434-1.076-1.616-1.962-.628-1.172.459-2.918.53-3.134.941-3.253 1.062-3.565.29-2.104-.7-3.732.12-1.148.507-.814 2.171-1.674 1.423-1.986.748-.406 5.115.621.869-.573 1.254-1.89 1.23-2.823.17-1.22.12-1.962.41-1.148.241-1.578.41-.958 1.472-1.052 1.23-.502 1.665.048 1.954-.36-.518-1.428-1.05-1.833-.924-.75-4.368-1.874-1.722-.083-1.05-.333-.589-.5-.168-2.54-1.05-5.581.084-3.041M396.886 628.849l-2.257 1.29M611.737 502.39l-1.146-1.168-7.002-5.79-10.761-12.079-1.002-.806-1.294-.598-1.676-.429-1.866-.13-2.222.159-23.887 2.7-10.344 1.11-1.121-.027-1.338-.185-1.711-.453-1.556-.68-3.748-2.217-3.345-1.593-1.89-.625-1.64-.363-1.876-.255-4.199-.489-2.124-.4-11.108-2.847M524.148 346.012l-1.76 3.677.223 1.792.12.639 1.305 3.315.557.512.398.143 3.947.497 1.059-.19 2.22-.67.422.07.994.348 2.946.639 1.559.797.875.19 3.399.087.477-.04 2.785-.498 1.743.174 1.799-.07.557.11.748.63.382 1.484-.08.892-.962 2.565-.748 1.145-.478.615-.609 1.354.072.481.163.209.545.422.692.348 2.727 1.218 1.655.19h.89l1.592.442.86.505.16.205v.521l-.383.742-1.13 1.626-.923.978-.86.742-1.67 1.152-1.147 1.074-1.782 2.036-1.369 1.736-.796.362-1.862.332-3.263.632-3.66.915-1.577.52-2.61 1.263-2.435.695-3.518.773-.51.269-.771.788-.669.806-1.934 1.538-2.578 1.792-5.205 4.388-1.774 1.665-.884 1.144-.963 1.641.08.584.199.277.597.473 2.26 1.515 2.761 1.713 3.884 3.93 1.13 1.484 2.387 2.588.223.9.032 1.246-.16.71-.779 2.02-.032.537.255 4.12-.127.52-.685 1.815-1.973 4.767-2.515 5.461-1.974 4.83-1.56 4.45-.287 2.02.51 2.525.318.916.382 1.926.096 1.546-.35 3.283-.605 3.157-.892 3.125-1.05 4.166-.287 4.135-.066 4.117M611.737 502.39l.43.725.143.774-.016.963-1.75 7.26-.128.883.08.71 1.368 3.685.374.663.66.718 1.914.987 1.795 1.078 5.731 3.777M347.918 122.96l.632-.177.45-.18h.462l.573.332.541.284.796.095.97-.063.748-.127.622.016.727.29 1.262.658 1.49.258 3.365.641 4.037.748.547.23.493.664 1.035 1.389.822.78.77.498 2.34 1.105 10.977 4.678.45.168h.398l.664-.452 3.029-2.847 2.372-2.225.373-.237.433-.089 2.822-.314 2.16-.175.642.017.62.19.948.41.925.472 1.59.798.867.427.696.17 1.222.17.875.079h.963l.765-.082 3.755-1.02 1.027-.193.847-.05 1.374.168.924.13.675-.035.817-.302.792-.73.62-.862.462-.808 1.575-3.264 1.481-3M507.631 140.535l-1.613.363-1.337.41-.637.11-.716-.188-.796-.38-1.416-1.594-1.215-1.936-.777-.55-1.718-.22-5.736-2.088-2.938.22-12.332-2.336-3.38-2.694-1.248-2.253-1.108-1.154-1.731-.303-1.64-.205-.772-.207-2.18-.756-2.5-.797-1.176-.25-1.442-.177-2.27-.215-1.144-.242-1.472-.284-.982-.079-.658.007-.708.072-2.093.308-2.284.283-2.27.189-2.187.056-2.3.119-4.52.166-1.997.07-2.61-.079-4.402-.057-.587-.065-.639-.122-.835-.245-2.475-.726-4.05-1.114M333.648 413.296l-2.795-1.127M333.648 413.296l1.67-4.279M329.185 416.368l1.025.029 1.8-.29.699-.45.574-1.317.365-1.044M336.318 405.737l-2.714-.925M336.318 405.737l-1 3.28M340.57 393.887l-2.352-.962M340.57 393.887l2.64 1.044M331.1 403.884l-.929-.279-.748-.363-.653-.552-.605-.837-1.5-1.995M330.853 412.169l-2.587-1.056M330.853 412.169l1.665-4.307M330.853 412.169l-1.668 4.199M333.604 404.812l-2.504-.928M333.604 404.812l-1.086 3.05" clip-path="url(#pac1b36583f)" style="fill:none;stroke:#000"/><path d="m326.497 415.614 1.66.637 1.028.117M326.497 415.614l1.77-4.5M328.266 411.113l2.834-7.229M331.1 403.884l.644-1.676M338.048 409.93l-2.73-.913M335.318 409.017l-2.8-1.155M317.401 412.037l3.841 1.64M343.21 394.931l2.11.829M353.102 393.868l-2.931-1.041M346.1 395.678l-.78.082M363.824 415.593l1.408-3.7M363.824 415.593l-3.212 7.801M363.824 415.593l-3.226-1.245M365.232 411.893l1.35-3.799M365.232 411.893l-3.131-1.222M369.478 409.17l-1.249 3.167-.14.247-.157.156-.208.06-.286-.086-2.206-.821M376.497 408.79l.464-1.383M381.195 404.286l1.164-2.984M381.195 404.286l-.455 1.19M389.478 405.975l-1.982.567-6.3-2.256M357.532 422.206l3.08 1.188M357.532 422.206l1.824-4.288 1.242-3.57M357.532 422.206l-1.781 4.468M355.75 426.674l3.08 1.246M355.75 426.674l-.58-.244M360.598 414.348l1.503-3.677M355.17 426.43l-3.099-1.08M362.69 450.474l1.018-3.052.228-.89.11-.83.043-.809-.095-.962-.233-.916-.742-1.976-2.599-5.888M321.122 462.83l-.852-3.235-.357-1.689-.088-.678.024-.324.032-.347.095-.41.23-.474.463-.797.851-1.31.462-1.042.222-.473.2-.205.23-.08.55.009 3.692.552 3.9.49 3.931.654 2.3.355h.406l.23-.055.176-.126.159-.237.151-.458.334-1.27.168-.75.27-.986.947-2.392.422-.883.454-1.144.182-.624.096-.623-.223-2.375.02-1.043.04-.327.06-.229.095-.26.227-.213.287-.198.465-.307.223-.201.21-.21.128-.11.136-.075.405-.075 1.007-.067.454-.02.406-.008.282.166.37.268.374.21.258.05.26-.011.306-.103 1.142-.465 3.51-1.444 1.877-.837.462-.245.358-.283.533-.277 1.489-.545 2.335-.607.418-.166.151-.008.096.02.091.067.108.198.215.434.086.106.11.081.142.042.121.005.384-.065M444.715 418.133l-.048.41-.12.332-1.368 1.807-1.17 1.381-.127.284-.127.395-.143.726-.088 1.255.008.41.04.386.27 1.026.04.3-.04.269-.071.182-1.067 1.46-1.504 2.232-.493.9-.24.615-.174.9-.112.584-.127.269-.223.22-.525.348-2.355 1.83-1.242 1.232-.16.457-.079.41v.317l.223.583.557 1.31.732 1.5.334.457.51.363.541.285.637.505.43.584.636 1.151.27.569.096.426.127 1.041.128.426.175.253.334.142 1.114.474.247.37.167.371.048.356-.032.276-.35.805-2.165 3.472-1.56 2.478-.86 1.468-1.018.947-1.146 1.041-1.496 1.12-1.448.742-1.02.553-.381.49-.207.441-.239.774-.19.6-.43.74-.924 1.09-.844.884-1.097.931-.876.442-1.321.647-.971.474-1.225.93-.876.869-.525.805-.573 1.5-.796 2.02-.223.394-.302.174-.414.126-.987.3-2.992.978-2.52 1.046M321.306 338.595l-2.793-2.357-2.15-1.752-1.854-1.054-2.34-.694-2.451-.253M311.483 289.501l-.476 1.594-6.705 13.356-1.73 1.676 1.892 3.893.486 1.352-.405 1.757.378 1.217 4.137 8.273.378 3.163.325 3.056-.045 3.647M367.55 334.167l.343-.198.66-.103 1.402.095.946.063.804-.103 1.4-.394 1.949-.572.27.014M372.7 324.83l1.194.758.541.379.414.378.16.41.063.443.206 3.93.047 1.841M350.466 419.331l-2.815-1.14M350.466 419.331l-1.585 4.066-.013.263.072.198.13.08M438.675 407.772l4.25-.915 6.032-1.39 3.104-.694 1.337-.395 1.75-.552 1.48-.521 1.704-.513 1.854-.276.9-.063.397-.071.279-.174.143-.268.088-.671.064-.371.063-.244.191-.269.35-.26.502-.174.907-.134 2.833-.26.398-.048.215-.063.16-.158.07-.173.025-.332-.056-1.152-.199-2.786-.24-2.635-.19-1.468-.525-2.715-.924-4.072-.31-1.484-.015-.434.07-.308.152-.213.557-.213 2.73-.378 2.085-.292.446-.119.366-.181.127-.158.135-.308.032-.67.056-2.913.016-2.328-.16-2.793-.286-3.118.032-.457.143-.648.223-.394.764-.821 1.735-1.578 2.34-1.705 1.496-1.026 1.098-.694 1.465-.553 2.26-1.057 4.043-2.146 2.657-1.232 1.02-.394.508-.174.67-.079.763.063 1.05.3.606.237.7.205h1.719l1.974-.173.716-.064.381-.158.637-.378.573-.363.621-.237 1.114-.395 2.244-.741 1.051-.379.827-.49 1.337-.804.987-.379.797-.221.477-.221.382-.347.605-.884.318-.521.477-.347 1.035-.348 1.496-.646 1.115-.742.827-.584.891-.664.541-.157 1.035-.095 1.608.016 1.735.379.461.063h.956M535.006 327.443l.005.252-.08.395-.175.552-.828 1.831-.279.521-.501.781-1.433 2.336-.644.805-.374.363-.326.395-.318.576-.494 1.018-1.878 2.896-.573.931-.526 1.097-.381.924-.398.733-.526.727-.477.615-.652.82" clip-path="url(#pac1b36583f)" style="fill:none;stroke:#000"/><path d="m438.675 407.772.716-1.374.255-.236.62-.221 1.274-.505.668-.284.382-.426.27-.395.478-.947.16-.537-.033-.678-.286-1.437-.652-2.193-.382-1.752M438.675 407.772l-1.337 2.809M383.11 396.018l-2.204.981-.693.222-.557.047M383.11 396.018l5.825-2.499 3.677-1.578.875-.458.303-.141.175-.38.302-.63.287-.38.907-.378 1.878-.616.493-.078.446.094 3.375 1.641 3.891 2.9.696.561.24.18.208.096.185.026.183-.022.295-.047.413-.11.454-.064.533.063.494.15 3.9 1.176" clip-path="url(#pac1b36583f)" style="fill:none;stroke:#000"/><path d="m437.338 410.58-2.101-3.455-2.857-4.42-.486-.647-.35-.244-.82-.442-5.228-1.981-8.5-3.03-3.852-.837M413.303 409.437l.088-.821.08-.323.254-.292.446-.371.478-.426.167-.292.183-.663.247-1.05.07-.631-.047-.245-.072-.165-.095-.15-.19-.222-1.354-.733-.416-.277-.111-.134-.03-.122-.002-.127.13-.556-.016-1.38.024-1.208.047-1.24-.04-2.485M444.715 418.133l-.08-.489-.262-.67-.255-.474-.573-.805-.485-.49-.867-.394-.772-.221-1.322-.182-2.499.009h-.47l-.317-.119-.31-.26-.12-.221-.104-.241v-.3l1.059-2.695M321.122 462.83l.9-.288.843-.067 1.042.055.709.024.474-.008.544-.086.645-.245.565-.355 1.019-.632.362-.142.426-.078.322-.005.625.099 2.897.458 2.149.536 1.209.285 1.114.197 1.282.181 1.735.04 1.965.142 2.802.015 2.61-.157 1.774-.205 1.37-.356.684-.228.851-.505.844-.616.979-.797.843-.781.74-.955.812-1.073.438-.663.326-.71.271-.948.708-1.199.756-.86.852-.655 1.01-.813.55-.316.66-.339.861-.306M313.41 463.643l.828.473.605.237.669.174.62.08.844-.19 1.941-.727 1.035-.457 1.17-.402M375.44 392.984l1.457-3.699M534.772 287.826l.437-.995.136-.568.072-.584.007-.564-.135-1.133-.374-2.943-.032-1.902.096-.672.1-.327.234-.398.33-.367.35-.293.386-.216 1.297-.679.844-.268.62-.158.733-.205.573-.206.445-.3.51-.473 1.083-.916.556-.505.287-.394.27-.632.128-.773.207-1.168.127-.584.255-.71.334-.9.828-2.857.461-1.736-.016-.553-.072-.45-.19-.694-.31-1.018-.112-.513-.008-.6.104-.86.19-1.168.398-.852.334-.947.287-1.12.207-.758.287-.474.572-.521.67-.521.7-.9.748-1.53.366-.869.159-.71.047-.647.128-2.841v-5.461l.334-1.895.382-1.041.493-.995.51-1.215.334-1.136.255-1.263.318-.695.366-.474.557-.33 1.64-1.09 2.387-1.61 1.241-.742.526-.473 1.385-1.61 1.973-2.036 1.703-2.147 1.72-1.831 1.146-1.215.334-.584.032-.458-.016-.947-.144-.947M566.796 162.97l-.183.295-.287.916.16 1.136.604.726 2.23 2.399 1.224 1.279.255.394.128.49.015.489-.365 1.136-1.178 3.662-3.009 10.103-1.241 3.882-.35 1.373-.08.427.063.442.287.662 1.846 2.984.51 1.01.175.395.063.363.033.552.016 1.421.047.3.191.568.398.49.844.978.159.347.064.332v.884l-.096 2.13-.303 1.658-.27.584-.283.477-.338.533-.159.395-.032.512-.047 1.997-.128 1.2.047.915.096.853" clip-path="url(#pac1b36583f)" style="fill:none;stroke:#000"/><path d="m588.57 234.68-.62-.212-.661-.419-.557-.497-.382-.441-1.624-2.037-1.655-2.115-1.019-.994-.923-.758-.907-.963-.7-1.073-1.178-1.295-1.894-1.767-2.07-1.673-1.019-1.121-3.04-2.84-2.419-1.816M305.626 272.792l.4 3.914.301 3.299.446 3.093.557 2.478.303.742.334.426.764.648 2.752 2.11M349.704 341.78l.586-1.908.334-1.389.413-3.393.08-1.042v-.395l-.175-.363-.732-.931-3.152-2.494-2.403-1.894-.923-.9-.749-.836-.525-.71-.827-1.12-1.003-1.658-.478-.836-.207-.332-.302-.268-.509-.19-1.783-.347-.78-.284-1.066-.395-1.4-.82-1.083-.821-.334-.395-.175-.363-.191-.647-.128-1.61-.303-3.946-.143-2.289-.016-1.041-.159-1.09-.318-1.846-.302-1.5-.143-.394-.319-.473-1.878-1.326-3.136-2.068-3.549-2.02-3.374-1.855-.844-.481-.557-.616-1.305-1.373-1.656-1.53-2.707-2.09M321.306 338.595l1.543-2.913M324.865 340.858l-.32-.134-1.13-.631-1.027-.655-.86-.655-.222-.188M324.865 340.858l1.55-3.109M389.478 405.975l.874 2.191 1.225 2.794.62 1.152.287.505.224.284.35.205.35.048 1.162.11.732.095.318.08.191.172.096.221-.048.521-.271 1.658-.095 1.278v.742l.16.915.317 1.042.255 1.057.223 3.694M383.11 396.018l1.36 1.495 1.544 1.83 1.107 1.35.54.774.232.386 1.283 2.73.302 1.392M463.473 420.619l-1.281-.623-.94-.529-.938-.442-.828-.237-.55-.047-1.058-.071-.43-.103-.326-.078-.35-.009-.445.095-.86.174-1.106.236-1.25.356-.652.292-.621.323-.501.197-.359.032-.47-.102-.898-.285-1.25-.536-.613-.34-.461-.157-1.027-.364-1.544-.268M588.57 234.68l.103 2.14.016 2.099M583.182 287.85l.064-1.153.096-2.51.016-.82-.144-.948-.239-1.01-.095-.805-.032-1.12.064-1.074.191-.789.255-.852.175-.426.159-.727.413-1.167.749-1.658.27-.6.096-.394-.016-.473-.064-.758-.51-3.425-.143-1.074.016-.394.175-.473.574-.947.43-.695.126-.395.08-.457.064-.869-.207-2.194-.128-.741-.175-.505-.445-.884-.462-.805-.16-.332-.079-.49-.016-.788.27-1.358.479-1.578.111-1.247.223-1.942.223-.978.588-1.673.526-.995.398-.852.334-.679.159-.457.191-.695.525-2.052.382-1.673M578.808 293.106l.507-.159.684-.441.78-.837 1.162-1.595.652-1.025.398-.679.191-.52" clip-path="url(#pac1b36583f)" style="fill:none;stroke:#000"/><path d="m586.063 291.195-.82-.797-.923-1.191-1.138-1.358M534.772 287.826l-.239.544-.748 1.579-1.01 2.588-1.847 4.893-.597 1.444-.203.465-.048.297.02.414.087.9.064.702.017.742-.128.75-.103 5.776-.048 5.035.055.995.096.505.128.529.262.639 1.015 2.257 1.102 2.762 1.385 3.488.692 1.516.278.615.004.182M578.808 293.106l-.4.125-1.783.443-2.07.662-1.002.442-.987.553-.812.474-.812.457-.97.553-.797.646-.907.9-1.21 1.342-1.066 1.341-1.114 1.515-.51.49-.429.332-.62.33-.94.364-1.448.426-.669.268-.589.347-.573.364-.716.426-.461.221-.367.094-.54.08-.86.063-1.512.283-1.337.348-1.91.805-1.337.9-1.592 1.278-.51.52-.286.443-.286.631-.398 1.01-.367.632-.525.836-1.05 1.326-1.019 1.42-.843 1.595-.446.93-.286.869-.271.884-.27.884-.335.757-.835 1.737-.924 1.5-.485.583-.279.26-.398.19-.382.126-.62.087-1.107.103-1.54.142M523.805 158.79l-.692.434-.318.347-.462.869-1.353 2.809-1.225 2.604-1.433 2.794-1.321 2.526-1.003 1.784-1.655 2.304M507.631 140.535l.44.363 1.178.884 2.642 1.263 2.468 1.2 1.973 1.089 1.21.978.668.694.414.616.43 1.026.382 1.01.191.9.112.679.111.679.239.615 1.194 2.116 1.893 3.14.63 1.003" clip-path="url(#pac1b36583f)" style="fill:none;stroke:#000"/><path d="m566.796 162.97-1.456-1.078-.383-.38-.286-.457-.875-1.61-.478-.647-.398-.41-.652-.442-2.07-1.137-1.655-1.231-1.814-1.342-.557-.521-.78-.82-1.353-1.484-1.879-1.863-1.4-1.39-.716-.71-.86-.567-1.257-.616-.94-.237-.795.047-1.862.285-4.664.284-2.77.22-.477.064-.637.347-1.543 1.31-1.544 1.768-1.64 1.957-1.416 1.8-1.083 1.815-1.193 1.752-.749.915-.573.458-.43.285-.572.063-.669-.206-.565-.402M571.572 152.659l-.725 1.9-.358.577-.374.457-.62.561-.725.663-.446.655-.255.79-.182 1.838-.04.616-.112.607-.175.379-.438.742-.326.526M578.808 293.106l1 .039.374-.008.398-.016.39-.095.684-.307.772-.506.653-.41.286-.19.359-.188.485-.15.462-.04.883-.008.509-.032M630.693 97.062l-3.708 1.328-.605.252-.445.442-.32 1.042-.317 1.168-.287.82-.397.71-.622.901-1.56 1.105-1.002.757-1.496 1.5-.334.236-.35.111-.494-.016-3.12-.662-2.387-.316-1.4.252-.829.537-.891.852-.35.727-.127 1.167.063.948-.159.852-.414.537-1.591 1.136-1.178.758-1.083.6-.54.631-.51 1.295-.287 1.578-.54 1.074-1.274 1.957-.796 1.452-.986 1.578-1.083 1.074-.987.505-1.178.41-2.674 1.295-1.687.978-1.305.947-1.496 1.358-1.242 1.42-.923.98-1.4 1.451-1.083.569-3.343 1.862-1.814 1.2-1.655 1.231-1.274 1.863-1.973 3.378-1.464 2.967-1.815 3.789-.389 1.01" clip-path="url(#pac1b36583f)" style="fill:none;stroke:#000"/><path d="m606.675 194.108-.652-.3-.605-.253-.653-.458-.748-.631-1.226-1.626-1.193-1.326-.573-.852-.35-.79-.383-.994-.827-1.94-1.194-3.41-.875-2.084-.27-.758-.32-1.184-.222-.663-.286-.426-.318-.347-1.64-1.247-1.767-1.357-1.623-1.168-1.894-1.058-.971-.41-.621-.285-.669-.236-.461-.285-.478-.394-1.194-1.105-.334-.395-.19-.347-.208-.521-.143-.678-.238-1.327-.191-1.026-.415-.678-.334-.568-.382-.442-.541-.521-2.308-2.115-2.165-1.673-.716-.743-.51-.568-.986-1.405-.653-.741-.859-.726-1.917-1.388M606.675 194.108l1.29-.174 1.05-.22 1.226-.443.907-.395.446-.268.318-.253.477-.71 1.05-1.783.877-1.516.684-1.846.143-.38.095-.52-.159-.553-.891-1.436-.318-.884-.175-.505v-.426l.175-.427.556-.615M588.57 234.68l-.063-1.664-.207-2.218-.08-.765-.056-.56.04-.695.23-1.508.16-1.034.159-.465.526-.876.708-1.113.66-1.097.525-.884.534-.647.437-.41.406-.214.279-.15.199-.126.254-.323.963-1.208.295-.434.175-.276.23-.402.247-.68.271-1.073.294-1.586.47-1.878.247-.663.247-.466.342-.442.365-.45.176-.3.055-.181.048-.387.008-1.294.04-.632.08-.386.095-.355.254-.569.43-.86.55-1.247.628-1.397.63-.931.755-1.278.852-1.532.238-.481.223-.758.446-.947.541-.647.653-.789.493-.458.541-.3 1.512-.536M351.308 427.027l.763-1.678M397.18 277.819l.064 1.839.063 1.025.016 1.121M362.818 429.369l-1.17-.468M358.83 427.92l1.782-4.526M358.83 427.92l-1.022 2.527M358.83 427.92l2.818.981M362.17 424.026l-1.558-.632M389.843 296.783l1.32-4.846.542-2.73.636-2.494.987-3.189.573-1.94.525-1.958.287-.505.302-.316 1.083-.544 1.082-.442M406.396 277.921l-2.197.032-1.655.095-.557-.016-.366-.174-1.003-.292-.748-.134-1.09.031-1.6.356" clip-path="url(#pac1b36583f)" style="fill:none;stroke:#000"/><path d="m405.314 285.892.875-2.762.366-1.737.08-.868-.033-1.2-.206-1.404M416.9 263.463l-.588 1.531-.653.947-.764.931-.875 1.548-1.464 2.777-.359.718-.087.15-.128.127-.341.134-.996.252-1.162.182-.405.15-.263.134-.175.205-.151.3-.438.931-.35.316-.493.205-.478.426-.366.474-.096 1.026.128.994M405.314 285.892l-.383.86-1.496 3.765-.573 1.578-.43 1.468-.27.52-.35.411-1.178 1.01-2.897 2.541-.756.719-.255.158-.23.039-.303-.024-.636-.316-1.616-1.088-.486-.403-.302-.19-.334-.102-1.107-.102-1.185-.056-.684.103" clip-path="url(#pac1b36583f)" style="fill:none;stroke:#000"/><path d="m534.772 287.826-5.738-2.818-1.067-.347-2.928-.442-2.563-.9-5.18-.489-.908-.41-.326-.34-.605-.963-.565-.655-1.401-.663-1.695-.45-1.926-.197-3.374-.552-6.08.023-2.436-.11-2.276-.576-1.4-.08-3.622-.828-.875-.047-7.107.513-9.581.773-1.879.213-2.547.624-3.071 1.152-5.245 2.415-2.913 1.144-1.631 1.753-1.512 1.601-1.815 2.21-.565.166-.891-.063-.573-.048-.9.285-1.885 1.404-.972.26-1.352.245-.82.356-1.95.355-.62.45-.677.844-.907 1.397-2.499 2.289-.422.236-.414.087-.5-.126-.996-.766-.915-.631-1.321-.403-4.489-.75-4.36-.441-4.967-.758-.47-.363-.206-.355-.414-1.01-.709-2.88-.286-.584-2.149-.553-2.149-.442-1.703.158-.97-.222-5.141-1.625M352.071 425.35l-2.43-.703-.358-.298-.212-.412M510.316 111.412l-.064.916-.063 1.184-.287 1.041-.303.6-.525.868-.223.773.064.885.175 1.12.414 1.09.414 1.01.573.931.54.82.415.6.143.648.096.757.095 1.026.175 1.058.112.853.127.852-.16.631-.174.332-.255.552-.637 1.01-.907 1.168-.844.9-.731.79-1.418 1.799-1.193 1.689-.43.6-.032.284.127.252.367.537.652.663 1.072.884M369.478 409.17l-2.897-1.076" clip-path="url(#pac1b36583f)" style="fill:none;stroke:#000"/><path d="m508.734 98.903.117.212.605 1.295.382.963.191 1.215.112.9-.016.773-.096.979-.031 1.531.159 1.453.159 3.188M523.94 110.133l-.97.316-1.497.332-1.56.268-2.546-.063-2.388.126-2.372.095-2.291.205M336.44 98.07l-.046.888.028.24.131.288.163.27.33.28.526.24.183.126.104.119.318.473 1.114 2.494.796 1.436.891 1.768 1.083 2.873 1.496 3.441.493 1.2.259.506.262.29.315.218.39.19.425.288.307.34.541.694.255 1.357.318 2.494.414 1.295.382 1.081" clip-path="url(#pac1b36583f)" style="fill:none;stroke:#000"/><path d="m323.406 114.758.303.49.366.237 1.48.173 1.369.205.732.505.86.663.54.427.51.6.334.584.86.852 1.703 1.168 1.098.552.891.41.86.254 1.146.063.986.094.796.253.637.41.223.347.318.411.605.158.764-.032.796-.22.51-.254.509-.252.509-.221h.605l.604.095.797.126 1.718.063 1.083.04M330.967 97.221l1.528.127 3.944.722M323.406 114.758l-.382-1.294-.286-1.405-.27-.82-.24-1.106-.286-.694-.191-.758-.064-.568.239-.695.573-1.215.78-1.263.605-.773 1.082-1.152.493-.648.606-.978.588-1.026.684-.79 1.162-.741 1.449-.868.414-.506.605-.237" clip-path="url(#pac1b36583f)" style="fill:none;stroke:#000"/><path d="m247.993 130.054.35-.41.144-.316.143-.332.127-.3.207-.284.286-.174.334-.157 2.77-1.073.446-.143.366-.094.398-.095.398-.11.334-.064 3.136-.19 8.117-.204 5.794-.174h1.512l.636.048.462.079.446.157.636.205.59.174.318.11.493.158 2.754.269.318.047 1.05.158.43.063h.812l1.019-.016.493-.079.43-.079.334-.11.414-.126.477-.174.399-.158.365-.173.319-.237.27-.205.335-.237.302-.205.366-.253.302-.158.446-.142.446-.063.43-.11.54-.253.43-.41.367-.284.397-.174.494-.221 3.772-1.042 8.165-2.384.303-.11.541-.142.477-.079.43-.063.764-.221.382-.095.398-.142.35-.063.462-.126.51-.347.365-.632.128-.537.127-.363.334-.379.27-.189.367-.095.366-.063.637-.394.255-.206.302-.126.843-.015h.796l1.035-.016 1.448-.063 7.115-.348.334-.016.318-.047.446-.237.191-.237M361.648 428.901l-1.415 3.912M321.242 413.677l.782-2.048M283.565 238.834l2.677 8.422M305.626 272.792l-.433-3.136v-3.786l.596-3.893.432-2.703.108-2.596 1.568-2.055 1.082-8.11M286.242 247.256l2.892 8.557 3.893 6.976 1.947 2.108 6.056 5.515 4.596 2.38M224.21 263.42l3.769-.307 1.784.08 3.163.704 2.434.08.54-.35 1.027-1.677 1.38-.379 1.513-.783 2.893-2.38 3.272-2.92 1.216-.108 1.406.784 6.624 3.975h.622l.568-.703 1.784-2.596.676-.256 12.964-3.312.676-.041 5.42 1.393 1.136.094.621-.149.744-.567 2.947-3.367 2.339-3.122.514-.257M196.423 225.74l1.369 1.2 2.797 2.874 11.81 12.69 1.564 1.64 1.464 1.704 1.365 2.387 7.417 15.185M185.098 257.678l.084.43-.012.447-.143.347-.143.3-.112.3-.159.3-.175.284-.144.347-.159.378-1.735 3.015-.318.6-.191.3-.175.347-.223.3-.239.379-.254.394-.287.395-.414.584-.159.363-1.957 3.03-.351.521-.286.3-.287.332-.382.505-.222.237-.319.315-.207.269-.223.331-.398.41-.445.474-.223.253-.398.426-.239.22-.493.663-1.162 1.026-.239.253-.206.284-.224.269-.27.3-.303.41-.27.316-.223.252-.223.3-.286.379-.27.284-.208.284-.19.268-.192.3-.287.332-.175.268-.159.316-.763 1.152-.112.3-.063.363-.128.757-.08.442-.047.426-.016.348-.064.394-.16.521-.063.363.048.426.048.332.063.426.064.442.446 1.073.111.379.144.379.175.3.238.347.223.284.255.253.35.22.318.142.319.222.381.315.478.348.382.236.366.19.286.22.383.206.43.237.381.22 1.035.521 2.005 1.026.749.363M177.802 195.079l.655 4.111.84 3.347.764 2.24.86 1.927 1.356 2.177 3.482 7.104 1.396 2.307 1.755 1.765 6.335 4.735 1.178.947M185.098 257.678l.502-.276.7-.253.573-.252.668-.253.542-.284.7-.378.669-.411.54-.41.51-.474.446-.473.222-.632.191-.694.35-3.693.065-.663-.096-.79-.287-.63-.223-.822-.159-.852-.254-1.484-.224-.79-.445-.978-.446-.694-.445-.537-.319-.6-.382-.663-.381-.6-.351-.568-.096-.662v-.632l.192-.6.51-.568 4.52-5.934 1.845-2.495 1.02-1.136.668-.758M223.418 131.916l2.387-1.104.669-.253.541-.095 3.056-1.01.827-.316 1.943-1.105.763-.41 3.439-2.557 1.018-.38.7.033.955.284.86.284.54.015M247.993 130.054l-.573-.221-.828-.253-1.432-.568-.605-.347-.541-.284-.541-.348-.541-.41-.446-.473-.414-.505-.477-.474-.383-.505-.095-.364M141.305 140.5l5.096 3.26 2.323 1.673 1.604 1.29 1.496 1.799 6.845 9.439 3.521 4.709 1.783 2.615 2.208 3.946 9.443 18.91.775 1.547.765 2.052.638 3.339M223.418 131.916l.652 3.505 2.833 7.655.318.363.844.237 5.778.837 3.088.031.287.6.08.331.588 1.406.095 1.151-.207.316-.43 3.126-.222.679-.048 1.073.812 6.392-.143 1.105-.956 2.873-.62.363-1.21-.079-.35-.063h-.7l-.653.395-.796 1.8-.127.962.064.726-.048 2.257-.86.932-.477.52-1.337.758-.589.174-1.56.568-1.05.11-3.343.316-1.162.853-.238.426-.271 1.326-.43 6.914-.35 1.23-.239.411-1.225 1.342-2.277 1.626-.747.678-1.624 1.973-.255.726-.668.963-.446.426-2.053 1.026-.287.38-8.642 6.266-.685.141-.557-.078-15.057-3.615-5.54-1.073-2.576-.197M141.305 140.5l.412-.817.239-.206.445-.316.287-.141.398-.174.7-.268.59-.206.397-.11.876-.3.97-.284.653-.174.462-.126 1.034-.269.462-.141.43-.11 2.483-.474.398-.016.748-.142.477-.08.653-.141.685-.08.7-.141h.716l.573.063.286.095.478.189.557.158.605.11.462.064.445.047h1.114l.43-.032 3.454-.347.398-.079.7-.079h2.53l.383-.063.43-.095.477-.094.477-.08.924-.252.573-.158.35-.063.366-.032 1.226-.063.493-.062.828-.048.398-.016.397-.047.382-.016h.335l.652-.047.446-.063.525-.111.637-.11.557-.142.446-.127.541-.079.462-.142.827-.126.62-.158 1.927-.363.413-.079.335-.047.7-.016.542-.063.477-.127.286-.125.334-.143.446-.22.382-.08h.43l.302.016.446.158.35.063 1.353.142 3.183-.063.717-.126.286-.158.366-.158.478-.19.366-.11.35-.142.318-.237.24-.3.19-.252.319-.269.27-.189.302-.158.43-.189.382-.174.35-.19.335-.142.556-.347.351-.189.302-.158.382-.142.478-.142 1.258-.11.509-.063.684-.143 1.019-.268.413-.079.86-.173.477-.064.542.064.748.094 1.671.253.414.047.525.016.35.047.43.08 2.945.488 5.141.79.334.11.668.158.335.11.334.095.382.142.334.158.318.206.255.252.16.268.175.284.159.284M247.993 130.054l.637.315.573.38 1.114.599.54.38.638.157.827.094.828.127.636.221.606.316.604.347 1.178.852.318.537.064.632-.032.63-.254.664-.191.631-.446.568-.382.631-.318.569-.382.568-.319.6-.19.631-.04.257.012.268.04.103.059.075.092.067.11.05.335.108.517.063.275.067.593.09.457.052 1.02.146.29.115.15.079.105.086.08.091.047.098.54.916.172.32.171.359.151.193.092.063.127.06.457.351.231.197.462.272.14.115 1.316.825.522.24 1.409.868 2.574 1.33 1.631.979" clip-path="url(#pac1b36583f)" style="fill:none;stroke:#000"/></g><g id="PatchCollection_1"><path d="m384.883 627.393.317-.067.181-.272.136-.337.068-.404.136-.34.113-.337.25-.203.339-.068h.362l.34-.134.18-.27v-.338l.068-.34v-.336l.069-.404.18-.272.204-.269.317-.068h.385l.317.068.249.2.317.205.135.336.114.34.203 1.013v1.013l-.135.337-.182.271-.316.136-.34.065-.317.136-.317.204-.498.404-.271.405-.114.34-.203.336-.566 1.081-.136.337-.181.272-.136.336-.113.34-.204.269-.113.337-.204.27-.136.338-.248.203-.317.136-.385-.067-.498-.541-.136-.405-.181-.34-.068-.336v-.744l.068-.337.045-.34.068-.336-.181-.337-.317-.068h-.453l-.317.269-.317.204-.203.269-.181.271-.204.269-.113.34-.068.336v1.081l-.068.405-.25.271-.248.205h-.385l-.317.064-.77.272-.317.136-.77.405-.316.135-.272.201-.249.204-.633.269-.318.068-.317-.202-.135-.339-.113-.405-.272-.336-.77-.408-.362-.269-.204-.271-.498-.405-.34-.135-.361.067-.34.34-.249.268-.25.205-.316.472-.204.405-.249.34-.136.336-.18.337-.182.404-.271.34-.567.81-.384.271-.317.2-.317.136-.317.204-.385.136h-.837l-.385-.068-.249-.204-.068-.336.136-.34.249-.337.317-.136.248-.2.386-.136.317-.204.656-.136.317-.133.317-.204.249-.203.25-.27.27-.268.25-.203.18-.337.272-.204.114-.336.203-.34.181-.337.136-.34.181-.336.204-.337.181-.272.249-.269.34-.135.317-.068.43-.068.316-.068 1.087-.201h.385l.317-.068.272.2.248.205.182.272.271.2.317-.067.181-.27.317-.135.317-.204.657-.269.316-.204.317-.133.317-.203.317-.136.25-.201.316-.136.272-.271.747-.606.271-.204.499-.404h.384l.317-.068h.77l.317.068zM104.818 525.309h.475l.43.173.566.088.408.084.498.088.498.172.566.26.407.264.566.345.498.176.498.26.498.345.475.176.498.26.408.172.408.26.407.176.43.085.475.176.408.087.498.173.407.173.59.087.474.173h.498l.408.175.407.085.408.176h.498l.814.172.657.088.498.088h.747l.407.085h1.63l.408-.173.181-.52v-.957l-.09-.433-.159-.436-.09-.433-.25-.435v-.434l.182-.435.226-.346.249-.435.747-1.042.408-.26.248-.348.317-.26.25-.433.339-.436.068-.433v-1.304l.407.26.25.436.407 1.129.09.433v.436l-.158.433-.249.347-.158.434-.182.435-.158.433v.87l.09.435.068.432.499.696.34.346.406.26.317.263.408.26.34.261.158.433v.956l.09.434.25.347.316.26.815.174.34.26.249.348v.435l-.25.346-.248.435-.408.349-.34.26-.316.345-.498.696-.068.433-.09.436v.433l-.16.435-.406.173-.499.173-.498.088-.498-.088-.316-.26-.498-.173-.408-.173-.25-.348-.248-.436v-1.301l.181-.433v-.869l-.43-.175-.407.088h-.476l-.43-.088h-1.064l-1.222.26h-.974l-.43-.085-.407-.175-.408-.26-.407-.174-.498-.172-.408-.263-.407-.085h-.974l-.43.085-.815.348-.316.436-.091.432-.159.437v.432l-.248.433-.25.348h-.497l-.408.176.34-.26.068-.436v-.433l-.069-.436-.248-.348-.34-.433-.226-.348-.25-.348-.498-.345-.339-.436-.317-.26-.408-.173-.497-.087-.408-.173h-.498l-.475-.088-.43-.173-.476-.26-.498-.088-.407-.172-.407-.264-.34-.26-.408-.26-1.222-.521-.408.176-.407.345-.249.436-.498 1.041-.158.436-.182.433-.068.432.159.437.34.26.316.348.34.26.407.26.317.26.408.173.34.26.158.437v.432l-.159.609-.498 1.04-.316.261-.25.436-.248.348-.25.433-.249.348-.317.26-.34.26-.158-.432v-1.304l.159-.434v-.956l-.25-.52-.316-.349-.34-.26-.317-.348-.497-.693-.091-.436v-1.822l.09-.433.159-.957v-.436l.09-.432.499-.694.226-.348.249-.348.181-.433.475-1.304.34-.348.317-.26.249-.345zM497.503 589.318l-1.083.568v1.042l1.592 2.62.923 1.104 1.146 1.231 1.019 1.61 1.114 1.515 4.298 6.47.286.569.955 1.168 1.05.757 1.497.253.7-.064.541-.378.891-1.295.765-.505h.668l1.656.158.763-.031.541-.505.096-.884-.477-1.389-.223-1.357-.318-.568-.096-.663.191-.6.095-1.704.86-1.42 1.305-1.42.637-.411.891-.442 1.496-.568 1.178-.158 1.497-.063 1.941.505.637.253 2.165.599.636-.126.828-.063-.287.725-.318.6-.064.695.319.568.732.158.828-.19 1.432-.883 2.037-.916 1.75-.19 1.593.127.255.6-.032.915-.318.663-.606.6-1.432.631-.51.568-.158.694-.032.695.764.252h.7l1.974-.315 2.896.253 1.688-.19.51.379.286.6.35.946-.096 1.389.764 1.105 1.401 1.105.732 1.168.796.126 1.973-1.168.51-1.389-.255-1.768-.7-1.2-.382-1.325.51-1.2.954-1.01.191-1.325.637-1.325 1.21-.127 1.4-.441 1.274-.064.763 1.2.828.947 1.4-.568.765-1.137.637-1.136 1.146-.694 1.273.126 1.146.757 4.775 2.904 1.719 1.894 1.464-.568.892-1.01 1.082-.695.318-1.262-1.783-.505-1.4-.19-1.974-2.335-1.655-2.4-1.21-.63-2.738-.064-3.437.821-1.401-.19-1.337-1.262-1.592-.19-1.4-.062-1.146-.947-.765-1.2.446-1.262 1.783-1.389 1.528.063 1.019-.947 1.018-1.073 1.082-.631 1.465-.127.955-.883.827-1.073 1.083-.821.891-.947.446-1.2-1.465.19-2.483 1.452-1.337.252-2.291-.126-1.401.063-1.146.631-.764 1.074-.51 1.262-.827 1.136-1.656.758-1.528.379-1.528.694-1.21.631-1.082.821-.764 1.073-1.464.821-1.273.126-1.337-.19-1.465.064-2.8.568-1.306-.063-.987-.221-1.242-.505-1.304-.82-1.401-.159h-3.025l-.795-.189-.7-.252-1.751.158-2.993-1.137-.636-.315-.669-.095-.7.126-1.592.852-.7.284-.796.158-2.61.252-1.592-.315-.86-.284-.54-.442-.096-.694-.191-.726-2.897-.947-.668 1.136-.478.979-.191.663-.414.505-.573.41-.86.442-2.546.568-2.395.726-.216.205zM308.11 481.509l.653.016h1.082l.302.016h.366l.32.015.317.08.27.173.255.19.256.22.238.253.191.347.096.316v.331l-.096.316-.127.284-.192.284-.238.284-.191.269-.223.236-.382.19-.334-.016-.653 1.247-.445.552-.319.174-.35.063-.334.047-.334.032h-.35l-.749-.032-.366-.031-.35.063-.35.252-.303.126-.302.174.207.237.334.126h.382l.366.11.303.143.27.268.143.284.16.284.127.3.128.363.016.316.047.362.08.332-.016.363-.286.252-.335.158-.207.3.27.584.064.332v.378l-.063.316-.35.615-.032.316-.128.3-.381.316-.51.3-.318.173-.35.142-.43.095-.35.126-.319.095-.334.031-.366.016h-.334l-.319.032-.382.079-.302.142-.128.3.271.236.287.127.334.094.27.142.287.206.493.426.255.173.302.142.287.174.175.284.016.347-.128.442-.334.206-.318.11-.382.047-.319.11-.35.143-.286.173-.398.095h-.35l-.366-.063-.318-.127-.175-.315-.24-.3-.317-.205-.685-.3-1.082.032-.35-.032-1.338-.537-.397-.22-.334-.143-.383-.047-.43-.095-.43-.173-.334-.095-.35-.126-.7-.11-.27.267.032.348.27.237.461.252.494.19.493.157.796.222.335.157.493.269.398.252.318.158.319.252.35.174.27.205.207.237.286.3.16.315-.016.3-.319.158h-1.225l-.414-.08-.843-.22-.733-.126-.477-.063-.398-.08-1.066-.189h-.383l-.334.016-.032.363.239.347.462.237.589.158.684.126.669.08.668.094.78.236.62.143.478.063.319.079.684.11.398.047.334.063.318.095 2.929.568.86.048.939-.032h.398l.334.08.334.03 2.515-.394.302.063.223.237.207.316.128.331.047.316v1.057l-.095.379-.175.284-.143.3-.16.3-.62.3-.43.378-.494.19-.27.173-.112.3.112.458v.394l-.239.316-.175.284-.048.347.08.364.987.978-.303.505-.111.347-.525.284-.398.032h-.749l-.365-.048-.335-.078-.334-.016-.334.063-.398.126-.366.158-.335.268-.111.3.335.253.381.031h2.07l.35.063.366.127.302.174.111.347v.378l-.08.347-.27.285-.907.584-.955.741-.302.19-.573.315-.493.364-.447.473-.031.347.318.221.35.047.43-.016.398-.141.35-.158.62-.347 1.402-.821 1.002-.316.844-.142.525-.157.334-.032.303.078.222.237.207.332.32.584.158.347.175.3.143.331.112.379.334.615.318.332.255.173.287.269.302.315.27.222.27.141.94.537.255.253.462.394.382-.11.015-.38-.206-.394-.494-.647-.414-.505-.302-.268-.318-.347-.383-.38-.652-.694-.143-.315-.08-.331-.032-.332.016-.568.175-.3.16-.331.222-.285.08-.315-.032-.379-.207-.395-.35-.426-.302-.174-.255-.3-.207-.283-.16-.284-.079-.41v-.348l.111-.378.24-.269.238-.205.255-.3.223-.284.175-.316.143-.347.223-.3.254-.3.271-.22.27-.174.35-.158h.35l.319.047.303.158.27.205.239.206.19.252.495.584.286.205.493.458.255.189.303.11.27.143.414.063h.844l.159-.379-.032-.347-.271-.363-.255-.316-.509-.663-.254-.363-.144-.362-.302-.695-.478-.82-.175-.443-.143-.3-.27-.252-.733-.19-.54-.11-.383-.142-.382-.19-.255-.236-.222-.268-.16-.285-.063-.347.095-.331.27-.158.303-.11.35-.08h1.433l.366.032.51.127.381.063.7.079-.031-.316-.191-.3-.239-.284-.398-.631-.175-.316-.239-.316-.207-.347-.238-.268-.255-.237-.319-.22-.318-.159-.302-.22-.255-.222-.27-.268-.24-.316-.174-.3-.128-.3-.127-.33-.175-.348-.175-.316-.223-.284-.191-.363v-.347l.446-.363.08-.315.047-.332.064-.331.159-.3.223-.221.159-.3.366-1.026.191-.268.27-.253.335-.19.302-.205.255-.268.255-.237.27-.204.303-.095.637.079.381.11.319.142.318.063.223-.268-.128-.3-.111-.331-.032-.316v-.379l.16-.331.35-.284.795-.552.414-.174.478-.08.445-.015 1.958.616.669.378.254.206.35.047.255-.237.096-.379v-.378l-.08-.348.064-.378.16-.284.063-.316-.08-.316-.175-.363-.128-.331-.047-.395.111-.694.27-.426.287-.284.478-.285.462-.126.588-.015h.382l.35.094.287.19.62.362.24.269.429.741.016.332.032.347.08.316.207.252.636.458.27.221.208.284.27.174.318-.174.478-.394.223-.285.493-.236.78-.237 1.417-.284.955-.49.318-.062.414-.032h.318l.987-.08.716.064h.446l.382-.079h1.099l.334-.047.334-.127.382-.268.318-.315.255-.237.398-.237.366-.19.302-.126.366-.079.335-.189.175-.316.095-.441-.239-.316-.605-.031-.477.158-.732.505-.828.41-.493.158-.51.062h-3.31l-.493.048-.558.095-.684.205-.43.08-2.865.046-.334-.015-.51-.459-.334-.268-.366-1.168-.095-.663-.016-.378.016-.426.414-1.2.063-.394v-.805l.016-.553.064-.362.334-.348.318-.173.59-.3.19-.284.016-.348.128-.315.111-.347.286-.6.24-.269.222-.3.254-.252.256-.3.35-.3.588-.552.208-.237.159-.284v-.332l-.191-.283-.335-.032h-.414l-.43.174-.525.284-.843.663-.35.189-.621.173-.398.143-.685.347-.588.347-.27.268-.256.363-.254.458-.27.457-.446.664-.415.347-.556.284-1.465.142-.477-.268-.08-.316-.112-.3-.365-.268-.335-.095-.302-.142-.254-.22-.191-.269-.096-.347.064-.363.207-.269.238-.236.223-.253.51-.71.175-.363.222-.363.191-.347.27-.253.32-.173.285-.143-.031-.457-.048-.379v-.379l.175-.315.223-.285.318-.141.303-.174.111-.316v-.331l-.048-.332.112-.33.27-.349.542-.52.19-.284.16-.316.111-.347-.302-.442-.7.426-.526.458-.382.094h-.35l-.318-.079-.287-.173-.366.032-.127.315-.16.3-.238.253-.35.126-.382.047-.334-.047-.383-.253-.238-.284-.335-.158-.46-.031-.32.19-.111.315-.064.363-.111.331-.255.221-.334.095-.366.031-.287-.142-.986-.394-.446-.127h-2.483l-.334-.047-.35-.157-.335-.174-.143-.3-.032-.663v-.347l-.206-.316-.335-.016-.318.063h-.366l-.334-.094-.303-.142-.223-.269-.286-.142-.685-.062-.318-.095-.287-.174-.159-.284.08-.347.334-.284.303-.127.366-.079.318-.015.302-.064.239-.252.08-.315.048-.316-.049-.332-.286-.41-.239-.221-.159-.284-.111-.3-.064-.347v-.316l-.016-.331-.111-.316-.446-.536-.302-.174-.319-.08h-.366l-.35.032-.35.064-5.252.836-.558.6-.159.331-.111.316-.08.552-.286.206-.286.157-.303.237-.016.316.334.079.335.094.54.458.271.505.08.395v.347l-.112.347-.19.268-.335.395-.207.268-.286.19-.319.173-.652.316-.796.316-.318.047h-.382l-.717.032-.302-.158-.191-.3-.302-.158-.35.063-.255.221-.764.205-.318.142.175.268h.35l.334.048.286.158.239.22.239.71.048.316-.032.332-.191.678.27.206.24-.221.206-.268.27-.222.399-.22.604-.237.446-.126.509-.063h.335l.35.141.27.143.319.11.334.158.493.584.128-.316.175-.3.206-.268.255-.237.303-.11.334-.063.318-.016h.367l.35.047.35.11.27.127.287.158.318.126.239.3.032.316-.08.315-.159.285-.223.3-.255.236-.366.142-.366.11-.366.064-.286.142-.144.284.32.142.333.047.35.126 1.067.253.318.095.35.157.286.19.224.237.127.3.111.3.016.33.016.79-.127.3-.175.331-.048.316v.316l.032.347.16.284.095.3.015.315-.095.332-.16.284-.222.253-.255.236-.302.158-.589.473-.08.237z" clip-path="url(#pac1b36583f)" style="fill:#00f;fill-opacity:.8"/></g><g id="PatchCollection_2"><path d="m368.262 393.137.525.19 1.19-3.164-.553-.246zM367.065 397.847l1.629-4.165-.48-.184-1.629 4.165zM365.419 402.477l.55-1.38-.04-.174-.494-.205-.191.015-.08.142-.446 1.279.017.118.111.087.421.158zM365.593 403.281l2.085.758.136-.024.072-.126-.08-.118-2.133-.734-.096.055-.031.087zM363.857 404.554l-.669 1.689.024.221.104.07.214.096.112-.048.135-.141.597-1.697zM361.812 410.202l.016.126.08.087.103.008.095-.135 1.162-2.912-.008-.252-.23-.095-.184.166-.334 1.207zM360.337 413.846l.016.126.08.087.103.008.096-.135 1.241-3.014.008-.182-.103-.063h-.104l-.119.126zM357.25 421.688l.016.127.08.086.104.008.095-.134 1.56-3.835 1.241-3.228.009-.181-.104-.063h-.104l-.119.125-1.154 3.252zM355.45 426.118l.015.127.08.086.103.008.096-.134 1.448-3.63.008-.182-.103-.063h-.104l-.119.126zM355.344 429.267l-.2-.458-.064-.385.028-.455.269-.843.017-.245-.13-.06-.08.086-.214.624-.096.505-.023.418.055.292.143.229z" clip-path="url(#pac1b36583f)" style="fill:green;fill-opacity:.8"/></g><g id="PatchCollection_3"><path d="m353.175 356.516 2.833 2.241 3.207-3.985-2.833-2.242zM609.015 490.3l-.987.316 1.56 6.754v2.021l2.197 1.988.445-4.45-1.941-7.418-1.306.284zM474.742 523.98l.111.158-3.645 6.644-.588 1.152 1.83.931 4.647-8.664-.286-.537-1.56-.426z" clip-path="url(#pac1b36583f)" style="fill:#90ee90;fill-opacity:.8"/></g><path id="PatchCollection_4" d="m363.5 379.69 1.679-.37 13.227 4.997.81 1.214.47 8.124.8 1.34 10.72 6.595.41 1.464-2.026 5.98-1.191.623-6.413-1.297-1.474.396-3.303 2.552-1.486.423-3.589-1.256-1.045.617-5.169 13.11.318 3.321-2.662 7.055-1.627.633-12.206-4.754-4.073-3.415-.12-1.116 1.356-3.139-.205-.948-9.532-3.945-13.049 2.73-8.726-3.107-.558-1.351 4.197-9.937 1.971-.825 4.481 1.803 1.007-.47 3.145-7.749 4-.743 3.957-9.468 7.857-2.673 4.833 1.636z" clip-path="url(#pac1b36583f)" style="fill:#d3d3d3;fill-opacity:.8"/></g></g><defs><clipPath id="pac1b36583f"><path d="M96.84 86.4h544.321v554.4H96.84z"/></clipPath></defs></svg>