<svg xmlns="http://www.w3.org/2000/svg" width="960" height="960" viewBox="0 0 720 720"><defs><style>*{stroke-linejoin:round;stroke-linecap:butt}</style></defs><g id="figure_1"><path id="patch_1" d="M0 720h720V0H0z" style="fill:#fff"/><g id="axes_1"><path id="patch_2" d="M103.473 640.8h531.054V86.4H103.473z" style="fill:#fff"/><g id="LineCollection_1"><path d="m377.012 354.55-9.975 4.7M377.012 354.55l1.558.665M367.515 349.25l4.53 2.751 3.311 1.775 1.656.774M384.027 357.274l-1.03-.385M384.027 357.274l1.352.508M384.027 357.274l-.612 1.272M389.347 344.978l-1.32 2.427-.54.99-.754 1.433-.811 1.583-1.108 3.481-.787 2.382M373.33 412.036l1.035.206M373.33 412.036l-1.175 4.309M373.33 412.036l.992-6.137M368.915 417.008l1.786-5.856 2.629.884M374.322 405.899l-.353-5.606M375.467 400.16l-.613 4.938-.532.801M373.969 400.293l1.498-.133M373.969 400.293l-1.196-7.227M369.317 384.423l3.237 7.321M369.317 384.423l-1.877-4.205M369.933 389.21l-1.085-1.54-.629-1.213-.132-.428.01-.402.114-.357.407-.443.699-.404" clip-path="url(#p712aabacf4)" style="fill:none;stroke:#000"/><path d="m366.624 382.143.777 1.718.316.306.506.194 1.094.062M373.087 380.217l-.932 1.482-.94 1.03-1.898 1.694M359.522 362.665l4.028 8.694M359.522 362.665l-1.713-3.74M359.522 362.665l-1.231.493M359.522 362.665l2.12-.973M352.052 346.413l3.886 8.48M352.052 346.413l-.191-1.054-.036-1.132.284-1.308.638-1.343.729-1.256M343.24 334.708l2.504 2.636 2.763 3.333 3.545 5.736M341.275 332.64l1.965 2.068M353.476 340.32l-5.206-3.29-6.995-4.39M336.316 329.55l1.436.87 3.523 2.22M404.328 364.728l.488-1.236M404.328 364.728l1.12.42M403.13 364.334l.675.222.523.172M599.403 145.12l-6.096 5.152M599.403 145.12l24.912-21.054M583.284 106.937l1.456 4.026.298 2.31.33.626 1.787 2.244 2.085 1.881 1.787 3.596 1.589 2.772.727.396 2.45.495 4.036 2.474 1.39.165 1.72.99 1.92 2.013 1.39 2.078 1.058 1.98.198.594-.066.231-2.779 2.409-1.92 1.914-2.517 2.701-.82 2.289M409.212 351.79l3.945-10.465M409.212 351.79l-.798 2.305M409.212 351.79l8.624.751M560.586 177.92 533.5 200.795l-3.147 2.808-1.172 1.14-1.702 2.037-2.309 3.552-3.548 6.05-2.949 5.362M560.586 177.92l.807.71.926 1.848.662 2.343.083.775.025.346-.19.281-.53.247-1.605.347-1.952.627-2.449 2.408-3.953 4.735-1.208 1.353-.778 1.682-1.654 6.335-4.137 5.51-6.716 3.464-5.956 2.31-6.155 3.662-7.132 4.842M453.716 284.964l4.455-6.798 5.656-7.383 1.807-1.975 2.718-2.127 13.627-8.255 16.867-9.909 3.465-2.481 2.704-2.633 2.945-3.18 2.185-3.18 8.53-15.298M607.82 396.715l-12.622 3.741-2.133-.34-1.364 1.19-13.997 16.494M458.553 385.077l10.854 3.85 6.37 2.292 49.77 18.998 7 2.22 7.608 1.086 37.549 4.277M427.688 353.592l.678-5.972M427.688 353.592l-.91 4.257M427.688 353.592l2.264.298M427.688 353.592l-5.774-.616M412.037 362.913l3.086-5.406M412.037 362.913l-5.824-2.963M412.037 362.913l3.54 1.617M432.039 359.73l2.077-5.291M432.039 359.73l-.854 2.217M432.039 359.73l-5.261-1.881M426.778 357.849l-6.155-2.21M430.42 370.977l5.077-4.847M430.42 370.977l-2.104-1.581M426.046 372.878l1.126.001 1.076-.373.842-.444 1.33-1.085M415.577 364.53l2.87 1.192M415.577 364.53l2.664-4.85M446.2 357.897l-.982 3.176M446.2 357.897l1.338-4.359M446.2 357.897l-3.884-1.285M446.2 357.897l5.515 2.137M462.944 364.125l-.36 4.035M462.944 364.125l.374-3.872M462.944 364.125l-5.669-1.988M361.643 361.692l5.394-2.441M364.601 373.825l.318-2.417-3.276-9.716M364.679 352.871l-2.316 3.728-.827 3.267.107 1.826M375.893 371.19l2.718-4.005M375.893 371.19l-.539.095M375.893 371.19l-.52 1.83M440.162 355.869l-6.046-1.43M440.162 355.869l-4.665 10.26M440.162 355.869l2.196-6.12M440.162 355.869l2.154.743M435.497 366.13l2.303.838M367.037 359.25l-2.358-6.379M367.037 359.25l4.96 13.395M406.213 359.95l2.2-5.855M406.213 359.95l-.466 1.181M399.184 350.87l.596 1.634.51 1.045 4.412 5.454 1.511.947M428.316 369.396l2.339-6.073M428.316 369.396l-2.133-1.092M371.497 372.848l1.19 4.295M371.497 372.848l-5.501 1.824M371.497 372.848l.5-.203M420.623 355.638l1.291-2.662M420.623 355.638l-2.382 4.041M374.32 376.357l-1.233 3.86M374.32 376.357l1.054-3.338M374.32 376.357l-1.633.786M364.601 373.825l.497 1.144M364.601 373.825l-1.051-2.466M418.241 359.68l-3.118-2.173M380.446 399.522l-1.539.33-3.44.308M377.087 404.826l-2.722 7.416M376.227 413.511l-1.456-1.188-.406-.08M383.372 421.262l-1.52-.987-2.718-1.151-1.201-.682-.85-.948-.436-.724-.188-.686-.232-2.573M380.446 399.522l.96 3.662.306 1.494-1.39 3.696-2.911 3.959-1.184 1.178M369.672 425.312l-1.054 4.004M369.672 425.312l.23-.704M369.672 425.312l4.32 1.646M377.272 428.262l-3.28-1.304M377.272 428.262l.751-2.777M373.348 430.42l3.243 1.484.681-3.642M368.619 429.316l4.47 1.043M368.619 429.316l-3.867 11.863M373.348 430.42l-.26-.061M364.752 441.179l5.056 1.381 3.54-12.14M364.752 441.179l-8.9 31.563M372.155 416.345l-2.253 8.263M366.764 422.765l4.218-5.84 1.173-.58M360.567 383.718 362 388l7.934 1.21M372.773 393.066l-1.41-2.006-1.43-1.85M372.773 393.066l-.219-1.322" clip-path="url(#p712aabacf4)" style="fill:none;stroke:#000"/><path d="m372.554 391.744-.635-4.252.08-2.443.152-1.14.44-1.634.496-2.058M380.446 399.522l-4.848-14.879-1.108-4.405.463-3.513.42-3.706M466.46 385.938l-7.28-2.496M459.18 383.442l-.627 1.635M461.999 375.776l-.032.416-2.786 7.25M458.553 385.077l-1.782-.669M461.999 375.776l.585-7.616M461.999 375.776l-6.178-2.249M448.025 371.181l3.145.912M448.025 371.181l-2.612-1.027M448.025 371.181l2.276-4.109M444.555 379.812l.715-1.83 2.466-6.123.289-.678M437.8 366.968l3.809 1.626M442.316 356.612l-2.037 6.098-.387.932-2.092 3.326M442.316 356.612l1.908-8.467M429.952 353.89l1.516-5.637M429.952 353.89l4.164.549M436.448 347.757l-2.332 6.682M417.836 352.541l4.078.435M417.836 352.541l-2.713 4.966M415.123 357.507l-4.987-2.657-1.722-.755M384.516 346.265l4.83-1.287M399.184 350.87l-.82-2.543-.32-.79-.624-.744-.869-.897-1.48-.984-2.002-.841-1.042-.254-.91.138-1.77 1.023M378.61 367.185l2.714-4.83M375.354 371.285l-1.874-5.654 4.07-1.666 1.06 3.22M375.354 371.285l-3.358 1.36M357.088 379.098l-7.565 1.236M357.088 379.098l-.33-1.03M357.088 379.098l.742 1.553M346.803 380.779l2.72-.445M356.758 378.069l-.47-1.735M349.75 377.757l1.313.062.839.037 4.856.213M357.83 380.65l-7.978 1.848M360.567 383.718l-.554-1.656-1.455-.075-.728-1.336M365.996 374.672l1.496 3.551.529.858.496.264 1.29-.61 2.88-1.592M365.098 374.97l.898-.298M365.098 374.97l2.342 5.248M363.55 371.359l-1.85.657M358.29 363.158l3.41 8.858M358.29 363.158l-4.35 1.742M356.288 376.334l3.785-.618 1.71-.534.169-.21.09-.372-.341-2.584M353.146 372.822l-1.624-1.142M353.146 372.822l.18-.256M349.75 377.757l.866-1.329 2.53-3.606M347.79 372.178l-2.033-2.764M351.522 371.68l-.707-.498-.482-.047-.35.084-2.192.96" clip-path="url(#p712aabacf4)" style="fill:none;stroke:#000"/><path d="m348.436 374.32-.312-1.575-.333-.567M345.757 369.414l1.82-1.234M345.757 369.414l-1.341.92M353.325 372.566l.613-1.014.291-3.425.046-1.372-.335-1.855M347.577 368.18l5.422-2.903.94-.377M357.81 358.925l-1.872-4.032M365.831 348.157l-3.931 4.352-1.026 2.177-3.065 4.239M365.831 348.157l1.684 1.093M365.831 348.157l-12.355-7.837M367.515 349.25l-2.836 3.621M425.876 369.128l.307-.824M427.979 363.483l-1.495 4.014M427.979 363.483l1-2.386M427.979 363.483l2.676-.16M423.67 362.723l2.322.88 1.987-.12M428.98 361.097l2.205.85M423.67 362.723l1.18-3.22 4.13 1.594M430.655 363.323l.53-1.376M423.67 362.723l-1.235 3.362M418.263 369.957l-1.232-.462M426.046 372.878l-5.719-2.146-2.064-.775M416.532 374.776l.36-.394 1.371-4.425M413.338 378.256l3.194-3.48M413.338 378.256l-1.31-1.276M414.66 379.943l.28-.125-1.602-1.562M406.602 381.5l2.073 1.65M409.109 366.522l-.58 1.46M409.109 366.522l-3.66-1.373M415.72 369.003l-1.107-3.12-2.317-.857-3.187 1.496" clip-path="url(#p712aabacf4)" style="fill:none;stroke:#000"/><path d="m415.72 369.003-3.661-1.387-2.95-1.094M406.933 371.999l1.596-4.016M406.933 371.999l-.596 2.045M406.933 371.999l5.096 4.981M406.337 374.044l1.887 3.596 3.805-.66" clip-path="url(#p712aabacf4)" style="fill:none;stroke:#000"/><path d="m408.529 367.983-5.395-1.987h-.437l-.262.196-.83 1.98 4.732 5.872M417.031 369.495l.193-1.084M417.031 369.495l-1.31-.492M418.448 365.722l-1.224 2.689M418.448 365.722l2.879 1.204M417.224 368.41l4.103-1.484M421.327 366.926l1.108-.841M422.435 366.085l4.049 1.412M457.463 370.277l-3.934-1.915M457.463 370.277l1.684-3.293M457.463 370.277l-1.642 3.25M453.529 368.362l1.736-2.948M453.529 368.362l-2.359 3.73M459.147 366.984l2.498.927.94.25M459.147 366.984l-3.882-1.57M455.821 373.527l-4.651-1.434M453.409 383.147l.198-1.054-.43-1.32.146-.41 2.498-6.836M444.555 379.812l4.455 1.684M444.555 379.812l-2.677-.992M451.994 364l3.271 1.414M451.994 364l-3.211-1.387M450.301 367.072l1.109-2.004.584-1.068M455.265 365.414l2.01-3.277M445.218 361.073l2.14.924M445.218 361.073l-3.61 7.521M441.609 368.594l.36.115M448.376 350.2l-.838 3.338M447.538 353.538l5.799 2.767M463.318 360.253l-4.552-1.608M463.318 360.253l.246-2.268M458.766 358.645l-5.43-2.34M458.766 358.645l-1.49 3.492M457.275 362.137l-5.56-2.103M451.17 372.093l-1.9 5.49M336.316 329.55l-10.352-6.096M325.964 323.454l3.335 1.695 1.489.733 1.472.911 1.685 1.184 2.37 1.573" clip-path="url(#p712aabacf4)" style="fill:none;stroke:#000"/><path d="m325.964 323.454 3.494 2.73 3.33 2.138 3.528 1.228M313.115 315.472l7.019 4.373 3.435 2.173 2.395 1.436M175.256 231.57l-1.124 1.82M175.256 231.57l.855-.423.586-.097.565-.035.634-.013" clip-path="url(#p712aabacf4)" style="fill:none;stroke:#000"/><path d="m174.461 228.845.394.83.364.923.037.972M174.461 228.845l2.794 1.752.641.405M178.905 231.633l-.644-.402-.15-.1-.215-.13" clip-path="url(#p712aabacf4)" style="fill:none;stroke:#000"/><path d="m179.322 230.334-.414.701-.272.081-.74-.114M174.461 228.845l-2.675-1.677M179.612 232.08l2.112 1.33M179.612 232.08l-.707-.447" clip-path="url(#p712aabacf4)" style="fill:none;stroke:#000"/><path d="m179.612 232.08-.229-.595-.094-.408.033-.743M179.322 230.334l.047-.166M179.37 230.168l.481-1.698 2.151-5.542 1.78-5.504M180.258 216.978l.461.108 3.063.338" clip-path="url(#p712aabacf4)" style="fill:none;stroke:#000"/><path d="m188.628 218.636-.563-.329-1.555-.396-2.728-.487M170.316 226.245l5.803 2.605 3.25 1.318M170.316 226.245l1.47.923M170.316 226.245l-4.236-2.7M378.57 355.215l4.426 1.674M381.324 362.356l-2.674-2.86-.655-1.483.575-2.798" clip-path="url(#p712aabacf4)" style="fill:none;stroke:#000"/><path d="m381.324 362.356-1.402-3.425-1.352-3.716M426.046 372.878l8.612 3.189M171.594 252.37l2.58-7.588M168.839 241.97l-1.991 3.228-.056.728.098.586.457.553 1.731 1.694 1.764 3.29.752.322M181.724 233.41l-.899 1.354M181.724 233.41l4.986 3.14M188.628 218.636l-3.674 9.932-.628 1.056-2.602 3.786M174.174 244.782l4.044-6.09M174.174 244.782l-5.335-2.812M166.08 223.544l-4.071-2.508M163.574 226.997l1.838-2.922.668-.53M171.587 214.414l-5.072 8.3-.435.83M152.804 243.873l1.529-2.395M171.786 227.168l-2.23 3.693M167.144 234.857l-2.662 4.476M167.144 234.857l2.412-3.996M167.144 234.857l-6.277-3.62M154.333 241.478l6.534-10.24M147.617 235.128l4.523 4.575 2.193 1.775" clip-path="url(#p712aabacf4)" style="fill:none;stroke:#000"/><path d="m152.95 226.627-3.317 4.768-2.016 3.733M137.481 240.647l1.398.066 1.091-.24 2.705-1.065 3.197-1.2.402-.913.614-1.425.73-.742M162.009 221.036l-4.237.283-3.471 4.423-1.35.885M160.867 231.237l-5.972-3.745-1.945-.865M162.009 221.036l-13.376-8.462M160.867 231.237l2.707-4.24M163.574 226.997l5.982 3.864M169.556 230.861l4.576 2.528M185.042 245.818l.27-5.346 1.398-3.923M236.88 268.025l-15.226-9.478-10.388-6.506-7.751-4.88-9.157-5.794-.149-.097-.115-.074-7.384-4.647M178.218 238.692l2.607-3.928M178.218 238.692l-3.16-2.017M172.938 235.323l1.194-1.934M172.938 235.323l-4.1 6.647M172.938 235.323l2.12 1.352M168.839 241.97l-4.357-2.637M164.482 239.333l-3.89 5.49M381.324 362.356l.806-1.343M382.13 361.013l.334-.586.951-1.88M383.415 358.546l.527-.321.785-.244.652-.2M382.996 356.889l.364.852.055.805M385.38 357.782l3.428 1.288M388.808 359.07l-2.286-.03-1.567.476-1.269.553-1.556.944" clip-path="url(#p712aabacf4)" style="fill:none;stroke:#000"/><path d="m403.13 364.334-2.134-.702-1.612-.6-10.576-3.962M434.658 376.067l7.22 2.753M434.658 376.067l-1.567 4.502M425.113 401.188l7.259 2.798M425.113 401.188l.944-2.562M431.351 406.689l-5.63-2.09-.608-3.411M449.819 413.543l2.913-1.709M449.819 413.543l-3.597 1.854M449.819 413.543l-3.844-1.427M452.935 394.101l-7.531-2.957M452.935 394.101l-1.009 2.61M452.935 394.101l1.096-2.77M454.977 397.904l-.484-3.159-1.558-.644M456.77 384.408l-3.361-1.261M456.77 384.408l-1.72 4.351M441.878 378.82l-1.614 4.414M428.648 413.846l.762-2.018M445.975 412.116l-1.108 2.734M445.975 412.116l.97-2.512M445.975 412.116l-7.386-2.741M444.23 416.423l-1.39.565M444.23 416.423l.637-1.573M444.23 416.423l1.992-1.026M433.018 413.201l-3.608-1.373M433.018 413.201l3.62 1.396M433.018 413.201l2.638 4.02M435.656 417.222l.982-2.625M442.84 416.988l-5.793 2.353-1.39-2.12M449.01 381.496l4.399 1.65M449.01 381.496l-1.642 4.392M440.264 383.234l-1.036 2.601M440.264 383.234l7.104 2.654M440.264 383.234l-7.173-2.665M455.05 388.759l-7.682-2.87M455.05 388.759l-1.02 2.573M438.28 388.346l-.997 2.638M438.28 388.346l.948-2.51M438.28 388.346l7.124 2.798M438.28 388.346l-7.298-2.632M439.228 385.835l7.165 2.661M454.03 391.332l-7.637-2.836M442.84 416.988l-6.202-2.391M429.41 411.828l.984-2.607M422.388 385.545l-.663-.242M422.388 385.545l7.483 2.732M422.388 385.545l-.936 2.66M419.704 393.174l-1.5-.57M419.704 393.174l7.334 2.791M419.704 393.174l.841-2.391M417.944 389.805l-1.718 2.045 1.978.754M426.057 398.626l-1.482-.562-6.37-5.46M455.284 409.712l-7.31-2.773M456.148 407.045l-.02.396-.844 2.27M452.732 411.834l2.083-1.38.47-.742M452.732 411.834l-5.787-2.23M446.222 415.397l-1.355-.547M430.394 409.221l.957-2.532M430.394 409.221l7.205 2.802M444.867 414.85l-7.268-2.827M437.283 390.984l-1.018 2.695M437.283 390.984l7.137 2.79M437.283 390.984l-7.412-2.707M454.977 397.904l.479 3.132M454.977 397.904l-3.05-1.193M436.265 393.68l-.997 2.637M436.265 393.68l7.165 2.746M436.265 393.68l-7.38-2.728M455.456 401.036l.46 3.008M455.456 401.036l-4.53-1.736M435.268 396.317l-.918 2.432M435.268 396.317l7.196 2.693M435.268 396.317l-7.343-2.76M455.916 404.044l-5.961-2.23M456.148 407.045l.056-1.12-.288-1.881M417.944 389.805l2.601.978M417.944 389.805l1.857-2.211M419.8 387.594l1.652.61M419.8 387.594l1.925-2.291M421.725 385.303l1.902-2.264M423.627 383.039l7.355 2.675M423.627 383.039l2.023-2.409M431.935 383.098l-6.285-2.468M431.935 383.098l-.953 2.616M431.935 383.098l1.156-2.53M433.091 380.569l-5.598-2.134-1.843 2.195M456.148 407.045l-7.162-2.726M408.675 383.15l.74-.858 5.244-2.349M408.675 383.15l.52.483 2.42 2.19 4.177-3.734-.03-.718-1.103-1.428" clip-path="url(#p712aabacf4)" style="fill:none;stroke:#000"/><path d="m422.936 378.672-.46-.345-2.767-.316-1.21.23-1.641.775-2.199.927M344.015 370.546l.4-.211M349.126 377.727l-4.565-.215-.546-6.966M353.325 372.566l1.933 1.318 1.03 2.45M349.75 377.757l-.624-.03M349.852 382.498l-.33-2.164M347.99 384.98l-.53-2.075 2.392-.407M354.358 355.746l-1.44-2.551-5.398-10.081-2.014-2.842M345.513 351.92l.461 8.457M332.584 343.956l2.995 2.538 9.733 2.427.201 3M348.103 353.882l-1.602-1.385-.988-.576M346.152 364.022l-.178-3.645M346.152 364.022l4.039-1.813M347.577 368.18l-.247-.508-.684-1.364-.494-2.286M349.126 377.727l-.098-.64-.592-2.766M351.522 371.68l-1.027 1.467-.95.803-1.109.37M423.304 348.623l-1.39 4.353M421.452 388.204l7.433 2.748M421.452 388.204l-.907 2.579M420.545 390.783l7.38 2.774M180.258 216.978l-.531-.123-6.916-2.739h-.794l-.43.298M173.181 209.148l-1.141 2.28-.472 1.84.019 1.146M188.628 218.636l.976-2.481M173.181 209.148l-.649-.702-1.806-1.258-.165-.594.199-1.154M180.258 216.978l2.057-3.13" clip-path="url(#p712aabacf4)" style="fill:none;stroke:#000"/><path d="m182.315 213.848.257-.391.066-.66v-.528l-.198-.429-.96-.858-1.423-.594-2.548-.56-2.916-.474-.733-.14-.679-.066M182.315 213.848l7.289 2.307M231.302 97.062l-1.54 3.438-3.242 2.342-.827.891-.628 1.089-.364 1.782v.923l-.199 1.749-.298 1.122-1.753 4.289-2.185 4.454-.595 1.584-.298 1.122-.628 3.761.132 2.31.53 2.738v1.056l-.166.825-.364.924-2.382 3.926-2.548 9.767-.265 2.31-.86 4.783-1.754 7.919-.496 4.487-.397 1.485-1.456 3.728-.463.891-2.714 6.566-11.422 25.357-4.516 11.475M127.874 199.628l20.76 12.946M113.685 199.73l4.237-.178 9.952.076" clip-path="url(#p712aabacf4)" style="fill:none;stroke:#000"/><path d="m116.456 192.467 8.3 5.205 3.118 1.956M431.351 406.689l1.02-2.703M431.351 406.689l7.238 2.686M427.038 395.965l7.312 2.784M427.038 395.965l-.981 2.66M427.038 395.965l.887-2.408M429.87 388.277l-.985 2.675M429.87 388.277l1.112-2.563M428.885 390.952l-.96 2.605M426.057 398.626l7.294 2.767M438.59 409.375l.977-2.616M438.59 409.375l-.99 2.648M448.986 404.32l-7.448-2.836M448.986 404.32l-1.011 2.619M448.986 404.32l.969-2.507M447.975 406.939l-7.423-2.815M447.975 406.939l-1.03 2.665M449.955 401.813l-7.491-2.803M449.955 401.813l.971-2.513M450.926 399.3l-7.496-2.874M450.926 399.3l1-2.59M451.926 396.71l-7.506-2.935M446.945 409.604l-7.378-2.845M441.538 401.484l.926-2.474M441.538 401.484l-.986 2.64M441.538 401.484l-7.188-2.735M440.552 404.124l-.985 2.635M440.552 404.124l-7.2-2.731M439.567 406.76l-7.195-2.774M437.6 412.023l-.962 2.574M442.464 399.01l.966-2.584M443.43 396.426l.99-2.651M444.42 393.775l.984-2.63M445.404 391.144l.99-2.648M446.393 388.496l.975-2.608M434.35 398.749l-.999 2.644M433.351 401.393l-.98 2.593M445.413 370.154l-3.444-1.445M445.413 370.154l.632-1.366M448.783 362.613l-1.424-.616M448.783 362.613l-1.375 3.103M450.301 367.072l-2.893-1.356M447.408 365.716l-1.363 3.072M447.359 361.997l-2.753 6.299M444.606 368.296l1.44.492M441.969 368.71l.498-.35 2.14-.064M405.747 361.131l-.216-.432-.393-.392-1.18-1.306-4.038-5.203-.328-.653-.408-2.275M405.747 361.131l-.931 2.361M426.484 367.497l-.3.807M417.167 330.684l-3.585 9.513-.425 1.128M411.364 340.398l.611.436 1.182.49M411.364 340.398l-3.93-5.028M411.364 340.398l-4.17 2.538M415.228 333.903l-1.135 2.916-2.51 2.351-.22 1.228M349.126 377.727l.397 2.607M366.624 382.143l-.562.189-5.495 1.386M338.338 534.858l-1.721 6.104-6.067 22.145-19.48 67.031M143.041 219.936l2.416-3.3 3.176-4.062M560.586 177.92l2.173-1.836 30.548-25.812M624.315 124.066l-1.125-2.912-.728-3.068-.497-.496-.793-.33-.795-.494-.43-.495-.331-.693-.463-.594-1.456-1.023-1.158-.66-2.052-1.55-6.948-1.09-2.582-1.286-3.143-.198-1.522-.198h-3.905l-2.382-.528-5.592-.396-2.945-.33-2.184-.788M432.714 309.987l1.404 1.276 2.416 2.837.86 1.782.563 2.078-.266 1.122-.992 1.089M431.811 309.167l.903.82M439.16 302.898l-6.545 5.569-.804.7M427.262 313.132l4.23-3.687.32-.278M425.118 327.759l-2.614 6.797-1.038 2.12.157.449.418.499 2.15.89 2.449 1.056M425.118 327.759l1.29.495 1.853.165 1.754-.495 1.356-1.419.199-.429M425.118 327.759l-5.826-2.456M427.262 313.132l-1.589 1.385-1.753 2.302-.75.986-2.27 3.57-1.608 3.928M417.167 330.684l.896-2.375 1.23-3.006M404.816 363.492l-.525.353-.473.25-.688.239M405.449 365.149l-.344-.675-.157-.459-.132-.523M439.16 302.898l.986 1.099M444.497 297.881l-3.829 3.676-1.508 1.341M440.146 303.997l5.487-4.678M440.146 303.997l-7.432 5.99M461.836 280.187l-5.37 6.837M445.633 299.319l2.533 3.206M445.633 299.319l-1.136-1.438M456.467 287.024l-.248.315-4.868 5.859-5.243 5.715-.475.406M338.338 534.858l13.64-48.374" clip-path="url(#p712aabacf4)" style="fill:none;stroke:#000"/><path d="m296.985 546.442 1.901-4.021 2.017-3.016 1.44-2.93-.864-1.292-2.19-1.35-.547-1.637 4.794-5.493 24.06 6.14 4.675 2.425 2.585-.947 3.482.537M450.96 300.277l2.844-2.288 1.856 1.6M448.166 302.525l2.066 2.615M450.232 305.14l-6.032 4.751v-4.176l3.966-3.19M448.166 302.525l2.794-2.248M451.259 306.44l3.006-2.756-3.305-3.407M450.232 305.14l1.027 1.3M432.714 309.987l-4.162 4.03-1.29-.885M460.381 276.824l-6.665 8.14M453.716 284.964l2.75 2.06M444.497 297.881l1.393-1.61 1.72-1.987 2.564-3.914 2.778-4.24.764-1.166" clip-path="url(#p712aabacf4)" style="fill:none;stroke:#000"/><path d="m464.824 313.334-10.276-2.731-3.29-4.164M417.167 330.684l-3.471-5.932-3.534-1.605-1.597-4.737M243.892 275.004l1.687 1.121-1.538 2.838M243.892 275.004l-2.019-1.287-.843 1.37M243.892 275.004l1.083-1.94M244.975 273.064l-8.095-5.04M313.115 315.472l-52.68-32.785-6.45-4.015-9.01-5.608M236.88 268.025l-2.37 10.776M232.973 285.792l1.537-6.99M336.34 474.542l-1.874-.727-.976-1.57" clip-path="url(#p712aabacf4)" style="fill:none;stroke:#000"/><path d="m345.691 473.49-2.033 2.553-10.168-3.797M340.982 468.259l-5.257 2.26-.409 1.255-1.826.472M344.46 483.333l-.802 2.408 1.164 1.758-.471.88-8.06-3.39-3.462-3.642.661-9.101M353.47 481.188l-.674 2.395M353.47 481.188l1.242-4.404M353.47 481.188l-7.226-2.804M351.56 466.125l-5.869 7.365M335.6 479.621l8.86 3.712M351.978 486.484l.818-2.901M351.978 486.484l-7.07-2.962M346.244 478.384l-9.903-3.842M346.244 478.384l-.66 2.535M344.908 483.522l-.448-.189M344.908 483.522l.677-2.603" clip-path="url(#p712aabacf4)" style="fill:none;stroke:#000"/><path d="m345.585 480.92-10.143-3.747.899-2.631M352.796 483.583l-7.211-2.664M343.658 472.748l2.033.742M354.712 476.784l1.14-4.042M354.712 476.784l-9.02-3.294M355.852 472.742l.24-4.169.472-4.268-1.668-1.099.472-1.977M438.662 568.978l.056-4.693-.787-4.693-.73-4.215-1.069-2.614-.168-2.163-.478-1.8-1.04-1.376-1.742-8.571.253-1.714.028-2.98-.057-5.03-.45-3.372-.448-1.293-.872-1.91.028-1.827-.534-3.822-1.236-5.311-.253-2.867-.393-2.838-.478-1.742-.59-4.806-.872-3.71-.42-4.018-.62-5.368-.674-1.039-1.011-2.586-.787-1.376-1.293-1.153-1.77-2.81-3.12-4.187-2.36-1.714-3.092-1.715-1.49-1.433-2.05-2.557-.563-1.153-.533-1.826-.843-2.642-3.345-7.334-1.573-2.867-2.839-3.625-2.894-2.81-1.18-1.573-1.223-2.418-2.522-6.175-2.1-4.475-.984-3.667-1.763-2.086-2.409-1.762" clip-path="url(#p712aabacf4)" style="fill:none;stroke:#000"/><path d="m378.023 425.485 3.563 1.457 1.786-5.68M374.74 424.143l-2.814-1.151-2.024 1.616M373.089 430.359l.903-3.4M374.74 424.143l3.283 1.342M374.74 424.143l-.748 2.815M319.314 331.807l-5.822-3.64.15-2.613 1.273-4.106-1.572-1.381.299-1.717-.527-2.878M333.07 340.41l-8.185-5.119M333.07 340.41l-.486 3.546M343.24 334.708l-1.071.363-.308.176-2.914 1.923-2.383 1.831-.538.09-.9-.205-.836.107-.57.355-.65 1.062M332.584 343.956l-3.152-2.116M323.712 324.62l-4.398 7.187M317.91 334.102l5.46 3.667M317.91 334.102l-1.467 2.26M317.91 334.102l1.404-2.295M319.314 331.807l5.571 3.484M309.112 339.178l3.938 2.414M345.974 360.377l-1.96-.444M313.05 341.592l5.804 3.559M313.05 341.592l1.51-2.328M324.885 335.291l-1.515 2.478M318.854 345.15l6.217 3.813M318.854 345.15l1.47-2.4M323.37 337.769l6.062 4.07M323.37 337.769l-1.317 2.528M314.56 339.264l1.883-2.902M314.56 339.264l5.763 3.485M344.04 357.095l-.026 2.838M344.04 357.095l-11.62-7.028M333.707 347.789l9.995 5.984.338 3.322M330.994 352.593l11.361 6.965 1.659.375M320.323 342.75l1.73-2.453M320.323 342.75l6.241 3.774M325.071 348.963l5.923 3.63M325.071 348.963l1.493-2.439M329.432 341.84l-1.518 2.48M326.564 346.524l5.857 3.543M326.564 346.524l1.35-2.204M316.443 336.362l5.61 3.935M322.053 340.297l5.86 4.023M327.914 344.32l5.793 3.469M333.707 347.789l-1.286 2.278M330.994 352.593l1.427-2.526M343.439 365.82l.977 4.515M175.637 235.863l-.58.812M174.553 233.619l-.023.234.026.222.07.211.673 1.258.137.16.201.159M176.487 234.676l-.352.489-.498.698M174.553 233.619l1.934 1.057M174.553 233.619l-.42-.23M180.825 234.764l-3.1-1.89M178.905 231.633l-.25.146-.229.174-.207.2-.164.203-.142.219-.188.298M176.487 234.676l.326-.451.695-1.007.217-.345M238.084 280.236l4.41 2.402M239.3 276.257l-.297 1.296-.136.391-.335.475-.364.387-.158.38.013.515.06.535" clip-path="url(#p712aabacf4)" style="fill:none;stroke:#000"/><path d="m234.51 278.801 1.615.488 1.959.947M416.532 374.776l-2.035-.866M451.715 360.034l1.622-3.729M355.938 354.893l-1.58.853M348.103 353.882l1.767 2.052 1.33 2.634.311.274 1.147.183.51-.05 2.119-1.02.114-.235.035-.338-1.078-1.636M367.44 380.218l-.56.837-.221.466-.035.622M348.103 353.882l-.263.72-.033.317.164 2.996M116.456 192.467l-1.841 3.05-.596 1.814-.334 2.398" clip-path="url(#p712aabacf4)" style="fill:none;stroke:#000"/></g><g id="PatchCollection_1"><path d="m437.989 318.632-.121 1.06-.16 1.04-.114.375-.038.235.064.203.216.241.414.33.337.146 1.076.197 1.012-.101 1.483-.299.433-.222.108-.266-.127-.324-.242-.42-.452-.514-.732-.463-.713-.494-1.254-.75-.28-.126-.293-.096-.33-.006zM441.827 316.569l-.68 1.174-.313.641-.006.305.763.704 1.407 1.099.07.025h.083l.178-.083 1.375-1.453.662-.616.064-.197-.051-.209-.197-.184-.16-.082-.248.056-.159.064-.344-.038-.152-.146-.86-.438zM447.162 324.743l-.088.522-.055.467-.064.363-.04.325.112.071.23.04.524-.198.61-.261.722-.356.667-.356.143-.23.103-.284v-.262l-.182-.174-.397-.245-.635-.158-.405.206-.325.055-.69.055zM199.634 229.225l-1.939-.607.304-2.804.457-.341.19-2.426-.608-.758.114-1.327 1.406.607 1.596.568 1.027.834.304 1.289-1.026 1.25-.723 1.327-.38 1.364-.38.683zM199.33 216.225l-.152 3.374.608.644 1.444.682.76.947.913.72.722-.568.684-.834.799-1.591.798-1.44.076-1.44-1.445-.38-1.026-.114-.342.986-.228 1.63-.533 1.819-.462.31.007-.576.646-1.402.152-2.122-.076-.796-1.255-.38-1.406.19zM125.69 273.706l.832-.387 1.357-2.574 1.621-3.497-.496-.528-.1-1.55-.628-.496-.033.298-.198.56-.497.363-.133.264-1.19-.363h-.762l-.529.034-.761-.462-.53.066-.297-.298-.364-.56-.43.264.033.428-.364.528-.695.034-.265-.462-.165-.792-.662.924-.496-.33-.397.264.165.593-.265.33-.595.33-1.224-.363-.133-.56-.695-.066-.695-.528-1.257-.166-1.158-.396-.595-.626-.464.297.166.593-1.721.33-.298-.594-.827.066-.794-.296.43 1.352.397.363-.1 1.386-.496.495-.297 1.484 1.125 1.947-.1 1.056-1.092.99-1.091.495-.364.858-1.092.527h-.53l1.357.858 1.489.165.563-.891.198-.923.364.032.86-.33.397-.956.662-.66 1.026.066 1.29-.462 1.324-.1.926.298 1.754.132 1.258-.43 1.19-.33 2.217.694.53.528 1.621.528z" clip-path="url(#p712aabacf4)" style="fill:#00f;fill-opacity:.8"/></g><g id="PatchCollection_2"><path d="m591.156 230.2-2.051.923-2.25.792-2.449.792-1.588 1.518-.265 2.177 1.125 1.847 2.978 3.366 1.059 1.914.066 2.375-.132 2.243-1.787 4.092-.926 1.979-.728 2.046-.398 2.111-.33 2.112 1.125 1.848 1.654 1.451 1.985.858 2.118.66 2.118.725 2.051.66 1.985.396 1.787 1.518.86 1.98.464 2.111.53 2.112.727 2.045.199 2.178.066 2.243-.53 2.112-.595 2.045-.794 1.98-.265 2.178 1.39 1.781 1.853.99 1.787 1.056 2.051.462 1.986.726 2.183.066.463-2.112-.463-2.112-.066-2.177 1.787-1.254 2.052-.528 2.05-.99 1.523-1.518.728-2.045v-2.177l-.53-2.178-.793-2.112-.994-1.913-1.058-2.177-.662-2.112-.397-2.112-.133-4.486 1.39-1.65.993-1.98.265-2.112v-2.177l-.199-3.035-.728-2.046-.992-1.914-1.324-1.781-.926-1.98-.927-2.177-.86-1.98-1.125-2.111-1.125-1.914-1.589-1.715-1.72-1.584-1.588-1.518-2.052-.792-2.316.264-2.052.924-2.514.99-1.258-.33zM107.799 234.521l-.397 1.056-.199 1.056-.43.957-.992.56-1.06.363-1.059.33-2.117 1.056-.927.66-.827.726-.595.89-.298 1.09.132 1.088.827.858.927.693.926.495.927.693.794.825.761.858.695.824.86.693 1.026.594.86.693.894.792.794.792 1.786 1.715.729.759.827.693.695.857 1.025.924.629.924.53.924.827.66 1.092.033 1.125-.396.96-.396 1.125-.165 3.54-.693 2.746-.693.993-.428 2.184-.694 1.091-.494.265-1.122-.43-1.089-.496-.99-.398-1.121.662-.957.993.099.96.561.53 1.023.23 1.055.828.891h1.125l1.158-.165.728-.792v-1.089l-.1-1.121-.065-1.09.1-1.154.396-.99.662-1.154.96-1.98v-1.187l-.63-.924-.926-.561-1.191-.066-1.158.263-1.06.264-1.058-.264-.86-.725-.927-.561-.993-.528-1.157-.462-1.126-.429-1.059-.363-.628-.924-.033-1.121-.53-1.122-.76-1.122-.96-.791-.96-.594-1.125.462-.694.824-.332 1.122-.694.89-1.092.133-1.059.297-.993.462-1.124.132-1.026-.495-.53-.957-.43-1.056-.463-.99-.463-1.122-.629-.89-1.125-.033-1.06.33-.992.429z" clip-path="url(#p712aabacf4)" style="fill:#006400;fill-opacity:.8"/></g><path id="PatchCollection_3" d="m381.573 360.685 1.242-2.094.065-.693-.181-.528-2.664-1.139-.232.083.943 3.052.48 1.353z" clip-path="url(#p712aabacf4)" style="fill:green;fill-opacity:.8"/><path id="PatchCollection_4" d="m171.45 220 4.652 2.986 1.877-2.909-4.653-2.985z" clip-path="url(#p712aabacf4)" style="fill:#90ee90;fill-opacity:.8"/><g id="PatchCollection_5"><path d="m378.033 361.202.544-.21.706 1.822-.084 1.139-.89-.436-.698.27-.105-.27 1.24-.478zM158.58 246.532l.326.3-.093.227.13-.139.434.062.11.126-.171-.394.513-.222.45 1.03-.52.226-.118-.27-.393.536 1.504.235-.104.669-3.476-.543.112-.714 1.446.226-.189-.485-.164.178-.414-.38z" clip-path="url(#p712aabacf4)" style="fill:#a9a9a9;fill-opacity:.8"/></g></g></g><defs><clipPath id="p712aabacf4"><path d="M103.473 86.4h531.055v554.4H103.473z"/></clipPath></defs></svg>