<svg xmlns="http://www.w3.org/2000/svg" width="960" height="960" viewBox="0 0 720 720"><defs><style>*{stroke-linejoin:round;stroke-linecap:butt}</style></defs><g id="figure_1"><path id="patch_1" d="M0 720h720V0H0z" style="fill:#fff"/><g id="axes_1"><path id="patch_2" d="M121.343 640.8h495.314V86.4H121.343z" style="fill:#fff"/><g id="LineCollection_1"><path d="m317.604 363.43-16.05 6.58M317.604 363.43l.592 1.067M321.497 361.43l-3.215 1.523-.678.476M254.683 173.439l18.262 28.052 6.906 10.425 1.77 3.012.75 1.609.538 1.451.358 2.097-.016 2.887-.587 10.882-.065 6.75.228 3.344.336 3.345 1.288 5.787.953 3.2 1.174 2.998 1.076 2.113 1.533 2.523 1.142 1.864 2.03 2.356 15.387 14.894 2.544 2.618 1.5 2.082 1.554 2.643 1.33 2.666.639 2.868.395 2.59.388 2.433.416 3.309.025 2.277-.38 5.663.003 4.061.152 3.212 1.427 9.64.034 2.015-.288 2.92-.716 3.522-.719 5.055-.342 8.719-.033 3.432.21 2.491.653 3.239 1.066 2.946M351.55 434.873l9.087 11.08M341.175 412.303l.175 7.92.308 2.776.447 1.504.663 1.49 1.709 1.99 7.073 6.89M396.578 434.389l-1.554-.915-5.877-3.938-1.64-.388-7.054-.099-2.48.338-3.912 1.327-9.109 1.391-3.89 3.05-1.835.632-1.19.265-1.932.11-2.694-.555-1.86-.734M172.134 391.76l-.7.033M172.134 391.76l43.634-1.274M389.302 488.995l.506 1.277 1.11 1.782 1.271 1.498 5.349 4.92 2.006 2.27 1.402 2.05 1.053 2.2L403 508.5l.88 4.037.245 1.924.033 1.955-.538 1.814-1.805 3.368-1.016 2.734-.473 3.216-.331 3.615-.436 9.567-.359 4.494.67 9.208-.082 1.42-.538 2.554-1.795 3.153-2.413 2.791-.864 1.624-.23.851-.015 1.514.538 3.028 1.24 3.989 4.012 6.527.407 1.53v.914l-.228.947-.816 1.45-2.169 3.059-1.68 3.363M490.4 609.221l-.999.633-4.729.946-4.207 1.45-3.882.726-3.261.442-3.034.946-3.522.157-5.643-.378-3.718-1.577-5.61-2.144-3.36-1.987-1.598-.19-2.381-1.292-4.794-1.703-4.11-.725-1.467-3.059-2.316-1.009-.98-1.798-1.14-.252-2.544.442-2.218-.252-2.153-1.23-.555-2.27-1.533-1.767-4.272-1.545-4.6-.82-3.946 1.86-4.729.411-6.654.126-1.207-.216M327.872 379.514l3.246 2.78M325.22 383.784l1.745-3.028.907-1.242" clip-path="url(#pbf5e320770)" style="fill:none;stroke:#000"/><path d="m324.596 376.372.659.844 2.617 2.298" clip-path="url(#pbf5e320770)" style="fill:none;stroke:#000"/><path d="m330.637 375.775-.083.338-.22.45-2.462 2.951M336.434 386.162l-3.77 4.265M336.434 386.162l-2.849-2.167M338.532 388.55l-.429-.857-1.67-1.531M338.765 395.535l1.961 5.909M333.723 391.178l3.373 2.73 1.669 1.627M338.062 390.85l.123 1.212.58 3.473M340.726 401.444l.201.767M330.276 395.048l.747.56 4.778 3.415 4.925 2.421M341.269 404.8l.488-.096M341.269 404.8l-.342-2.59M341.269 404.8l-.094 7.503M322.755 360.836l-1.258.593M321.497 361.43l-.913-2.439M321.896 362.94l-.098-.434-.301-1.077M321.896 362.94l-3.7 1.557M327.378 365.381l-1.125-2.701-3.933 1.467-.424-1.207M318.196 364.497l2.196 3.957M327.378 365.381l1.282 2.992M327.378 365.381l-6.986 3.073M328.66 368.373l1.406 2.888M328.66 368.373l-6.688 2.982M320.392 368.454l1.58 2.9M335.802 376.963l1.056-.897 1.651-1.988 1.137-1.572.78-1.104.573-.814 1.563-.396M330.066 371.26l-3.415 1.497M331.897 373.308l-1.427-1.577-.404-.47M321.972 371.355l1.503 2.687M310.966 374.107l4.412-3.01.114-.48-.279-.766-.021-.52.236-.313.84-.187 1.872.708 3.832 1.816M323.475 374.042l3.176-1.285M323.475 374.042l1.121 2.33M323.902 380.09l.087-1.27.607-2.448M335.802 376.963l-.379.496M331.897 373.308l.847.908 3.058 2.747M335.423 377.459l-4.305 4.835M335.423 377.459l2.296 1.932M337.72 379.39l-4.135 4.605M337.72 379.39l5.506 4.616M346.785 381.416l-.6.09-1.985-1.105-1.826-1.662-1.864-.602-1.187.105-1.604 1.149M324.012 381.99l-.046-.635-.064-1.264M319.25 383.068l-.097-.593.036-.373.364-.537.953-1.23.718-.647.995-.094 1.683.497M324.012 381.99l1.208 1.794M324.983 389.81l-.265-.947-.73-5.7.024-1.172M331.118 382.294l-3.445 3.818M331.118 382.294l1.506 1.166M332.624 383.46l-3.155 4.085M332.624 383.46l.961.535M325.22 383.784l2.453 2.328M338.532 388.55l1.607-1.41 3.087-3.134M343.426 396.198l1.459-9.664-.264-.752-.506-.92-.889-.856M327.673 386.112l1.796 1.433M327.673 386.112l-2.69 3.698M329.47 387.545l3.194 2.882M329.47 387.545l-2.683 3.548M338.062 390.85l.401-1.323.069-.977M324.983 389.81l1.804 1.283M315.755 388.07l.718.964.323.342.4.214 6.935.38.38-.055.472-.105M352.51 400.548l.071-1.322.335-2.68 1.757-5.906M333.723 391.178l-.8-.557-.26-.194M330.276 395.048l2.17-2.194-.915-1.106 1.133-1.32M333.723 391.178l1.011-.921.59-.297.422.134.571.59.539.118 1.206.047M328.528 393.368l-.838-.906-.903-1.37M330.276 395.048l-1.748-1.68M343.426 396.198l-1.354 6.921M350.979 404.48l-4.017-2.775-1.75-1.991-1.067-1.92-.72-1.596M352.51 400.548l-1.531 3.932M353.222 406.03l-.43-3.018-.281-2.464M342.072 403.119l-.717-.55-.428-.358M342.072 403.119l5.375 3.853" clip-path="url(#pbf5e320770)" style="fill:none;stroke:#000"/><path d="m341.757 404.704.145-.735.17-.85M341.757 404.704l2.29 4.924M353.222 406.03l-2.243-1.55M353.222 406.03l.212 1.386M350.845 409.407l-1.992 1.683M350.845 409.407l-3.398-2.435M353.434 407.416l.522 3.896-3.111-1.905M353.434 407.416l-.194.118-2.395 1.873M346.317 413.234l-2.27-3.606M346.317 413.234l2.536-2.144M349.173 417.017l-.38-.371-2.476-3.412M404.418 439.249l-7.84-4.86M412.561 444.504l-2.468-1.9-5.675-3.355" clip-path="url(#pbf5e320770)" style="fill:none;stroke:#000"/><path d="m402.737 443.91 1.074-2.793.607-1.868M407.315 434.785l-2.03 3.04-.643.92-.224.504M412.561 444.504l.982.807.893.884 2.985 3.601 2.698 3.793 2.044 2.607 12.032 12.592 2.26 2.227 6.696 6.441 1.59.92 8.629 3.36 1.192.422 1.864.656 4.486 2.556 4.027 1.323 2.822.79 5.035 1.013 4.27.308 4.35-.205 7.763-.622 3.526-.665 3.547-1.604 2.64-1.46 5.53-3.668 1.47-1.228 4.335-4.659 1.339-1.132 1.716-.661 6.762-1.872 2.65-1.185 2.862-1.63 6.476-5.138 9.023-2.37.77-.468 5.456-4.07 9.098-6.499 3.734-2.35 6.441-3.594 15.347-7.853 1.835-1.23 1.71-1.343M607.132 377.903l-.574 13.088-.258 2.767-.41 1.712-.93 2.066-1.729 3.138-6.148 10.187-2.43 4.7-4.684 8.653-1.333 4.12-.995 2.08-2.196 2.884" clip-path="url(#pbf5e320770)" style="fill:none;stroke:#000"/><path d="m592.485 434.72-2.235-.773-4.805-.65M229.404 390.192l12.946-.273 4.371-.253 4.697-.504 3.327-.568 3.098-.915 6.523-2.207L292.69 373.7l8.865-3.691M311.553 376.893l-2.677 1.002-.414-.13-3.92-4.22-.677-.585-1.09-.752-1.22-2.198M346.438 419.257l2.735-2.24M341.175 412.303l2.75 5.173.571.765 1.942 1.016M354.951 421.633l-.098.379-.554.362-1.337.395h-.75l-5.317-3.233-.457-.28M354.951 421.633l-.595-1.269-1.13-1.06-4.053-2.287M322.472 399.98l1.59-1.207 1.109-1.143.114-.323.147-1.025.195-.316 1-1.146 1.9-1.452" clip-path="url(#pbf5e320770)" style="fill:none;stroke:#000"/><path d="m431.051 372.304 1.81 1.404.522.71.114 1.103-1.516 4.432-.359 1.955.163 2.081-.236 1.065-1.835 1.238-1.582.063-.783.094-.815.38-.588.977-.374 1.719-.914 1.687-1.81 2.366-1.158 2.08-.88 2.177-.343 1.561-.114 1.325-.245.789-.734.559-1.68.844-2.764 1.9-.75.512-.546.655-.71 1.467-1.516 2.365-.587 1.104-.26.772-.466.45-.75.237-.62.315-.383.512-.383.954-.465.773-2.528 2.223-3.848 3.123-1.076.197-2.87-.126-5.595-1.278-1.174-.614-2.397-2.98-.644-.316-.66.04-2.21.985-4.38 1.198-2.462.812-1.386.095-.587.268-1.875 1.333-4.942 3.579-2.095.939-2.137.062-6.563-1.632-3.114-1.204M348.853 411.09l3.717 3.131M315.755 388.07l1.103-1.209M265.15 423.823l1.275-4.426 2.092-5.887 1.051-1.049 3.686-1.94 1.386-1.025.824-.228 1.126-.085 2.038.148 1.15.37.628-.102.798-1.198.588-.284 1.019.118 1.182-.134.889-.473 1.729-1.459.187-.812-.081-2.507.17-1.348.376-1.79.106-2.358 1.786-3.35 4.052-5.914 2.357-2.524 1.06-.6 1.378-.417.864.103 1.86 1.3 1.295.056 1.403-.394 2.421-.215 1.73.061 1.793.22 4.436 1.292 1.063.493.888.605M330.637 375.775l.089-.27.52-1.167.65-1.03M543.773 587.511l-.23-1.816-1.532-3.563-1.272-5.835-.098-6.874-.065-1.987-.57.486-2.284 2.033-1.386.473-5.773 3.154-3.507 2.365-3.44 1.75-1.664 1.94-.456 1.86" clip-path="url(#pbf5e320770)" style="fill:none;stroke:#000"/><path d="m543.773 587.511-.612-.314-1.688-.67-2.585-.536-11.269-3.24-4.966-1.498-1.157.244M490.4 609.221l2.035-1.29 3.587-1.073 2.838.284 3.131-1.45 4.844-1.096 2.886-1.719 3.8-3.075 5.708-2.222.652-.458 1.354-.331 1.043-1.577.016-2.838.44-3.8-.578-2.995-.294-1.703-.366-2.38M490.4 609.221l2.181 1.705 1.81 2.019 3.654 2.19 1.908.963 1.206.773 2.496 2.144 2.494.74 4.11 1.577 2.202 1.42 1.011 1.15.75 2.413.962 2.113.19 1.71M592.452 302.497l-1.712-.575-1.41-.796-.71-1.05-.523-1.64-.83-1.277-1.664-1.057-1.59-.607M551.453 323.67l.571-.93.979-.987 1.003-.78 2.69-1.049 1.525-.765 1.354-1.301.636-1.049.432-1.04.701-.79 1.174-.614 1.493-.331 1.557.087 1.231.441.922.094 1.565-.48 1.42-.552 1.288-.332 2.397-.212 1.524-.087 2.023.197 2.878.552 1.484.079.979-.205 1.15-.655 1.72-2.24.994-.93 1.534-.922 2.136-.954 1.745-.86.734-1.025.179-.867-.359-1.222-.66-1.444M550.263 322.376l.717.725.473.568" clip-path="url(#pbf5e320770)" style="fill:none;stroke:#000"/><path d="m607.132 377.903-.509-.348-.505-.662-.815-1.758-1.729-4.692-.864-3.264-1.615-3.233-.848-1.12-1.533-.867-2.462-.749-1.142-.56-1.37-1.427-.611-.899-.563-.938-.456-.773-1.403-1.15-4.232-2.343-2.112-1.57-2.821-1.876-1.028-1.009-1.32-.694-2.61-.237-3.163-.52-1.338-.094-1.158.6-2.316 2.002-1.239.33-1.517-.236-1.989-.362-1.647-.11-1.207-.458-1.256-.9-.864-1.734-.84-2.073-.84-2.17-2.185-6.874-.668-3.123-.36-2.697-.521-1.766-1.37-2.745-.653-1.135M550.263 322.376l-1.093-1.356-.848-1.278-1.304-.851-1.892-1.262-3-2.799-2.512-1.963-3.628-4.897-1.069-3.651.318-3.06M550.263 322.376l-6.034-.946-4.518-.71-2.486-.268-2.194.3-1.418.725-2.471 2.61-.905.876-3.344 1.718-1.32.994-1.011 1.04-.278 2.508-.408 1.025-1.125.647-2.152.174-3.099-.159-2.69-.795-2.61-2.256-3-1.687-3.369-1.262-3.563-.394-5.17.094-2.666.371M265.15 423.823l-.997 2.493-1.447 1.977-3.322 2.471.482.741M235.403 448.138l.645-.74 1.174-4.006.57-.552.62-.141 1.028.07 2.405-.45.383-.409.677-1.467 1.37-3.106.49-.489 4.63-1.83 3.966-3.459 1.416-1.176 1.167-1.199.138-.591-.05-.749.335-.489 1.933-.213.693-.126.636-.796.334-.797.44-.275 4.746-1.325M215.768 390.486l13.636-.294M234.047 444.808l.99-1.313.17-1.08-1.353-5.535-1.223-6.103-.114-3.832-.502-1.766-2.018-1.727-1.745-1.663-1.13-1.282-.394-1.008.778-3.017.922-2.483 2.93-4.487.527-1.04-.065-.702-2.789-8.618-.616-1.435-.484-.237-.307.02-2.1.753-.774-.15-1.998-.93-1.174-.63-1.435-1.515-.978-1.325-2.153-1.576-1.244-1.64M230.612 448.37l-1.287.7-2.145 1.055-3.58 1.105M212.12 439.497l1.797.37.616.387.979 1.703 1.696 2.586 1.712 1.932 1.59 2.428 1.72 1.506 1.37.82M210.338 513.246l.032-1.93.49-1.365 1.712-2.27 4.843-6.371 1.207-2.097.261-1.671-.31-2.24.147-3.232-.065-4.873-.26-.804-1.143-2.49-.913-2.713-.359-3.627-2.674-5.456-.473-1.53-.359-6.859.008-3.524.71-2.216 5.3-3.563 2.528-2.019 2.58-1.166M394.546 439.292l.39-.733.971-1.348.579-1.49.092-1.332M394.546 439.292l8.19 4.619M392.897 442.13l.488-1.034 1.16-1.804M411.406 429.034l-8.492-5.273M411.406 429.034l8.68 5.598M407.315 434.785l1.133-2.147.864-1.42 1.044-1.04.577-.561.473-.583M407.315 434.785l8.5 5.345M401.379 447.151l1.358-3.24M401.379 447.151l-8.482-5.022M392.897 442.13l-.702.858-.317.723-.132.788.107.598.339.588.578.527 7.217 4.149 1.392-3.21M412.561 444.504l3.254-4.374M422.064 431.951l-1.978 2.681M420.086 434.632l-4.271 5.498M330.637 375.775l-.366-.292-.769-.438-1.458-.788-1-.782-.393-.718M235.403 448.138l-.31-.37-1.046-2.96" clip-path="url(#pbf5e320770)" style="fill:none;stroke:#000"/><path d="m230.612 448.37.841-.456 2.047-2.148.547-.958M389.302 488.995l-.56-2.682-.458-1.937-.694-3.062-1.03-4.89-.962-2.93-.962-1.77-1.617-1.605-9.215-8.484-4.215-4.764-8.952-10.917M365.59 460.786l-.44-.647-2.022-4.258-2.25-6.875-.18-1.04-.061-2.012M359.067 484.77l-2.82.977-2.513.063-2.82-.82-4.877-2.68-4.615-2.382-5.268-.962-7.126-1.356-1.892-.993-1.875-2.05-2.283-3.532-2.642-1.956-8.823-4.32-2.952-2.034-1.207-2.476-.62-.74-1.223-.08-1.386.473-2.332.016-3.702-.063-.684.52-.163 1.104.456 1.451-.718 3.564-2.56 5.708-4.892 6.686-1.044 2.05-1.957 9.95-1.99 10.185-1.272 3.47-1.793 3.941-.107 3.446M381.208 500.683l-2.726.753-4.15 1.609-2.21-.11-2.381-.97-1.06-.174-1.321.544-1.672 1.49-.978.418-3.792-.165-.693.086-3.058 1.538-1.361.512-3.425-.315-1.664.366-.92.359-2.051 1.57-1.31.771-4.688.986-3.457.063-2.512-1.34-1.052-.142-.643.165-1.827 2.547-.4.245h-1.476l-3.702-.348-3.13-1.222-2.072.032-1.043.22-.473.616-1.64 2.334-1.361 1.166-1.843 1.254-2.52.851-2.633 1.814-1.33.497-1.426-.403-1.615-2.12-1.484-2.279-1.492-.686-1.916-.252-3.8 1.056-1.133.403-2.634.59-4.086-.528-3.913-1.592-2.52-.402-.717-.331-.53-.229M298.19 532.342l-1.876-1.136-1.338-.3-2.218-.173-2.168-.867-8.073-5.345-1.125-1.34.033-3.327.13-3.714-.269-1.86-.294-.955.139-.914.236-.48" clip-path="url(#pbf5e320770)" style="fill:none;stroke:#000"/><path d="m381.208 500.683 2.297-.634 2.194-1.42.513-.646 1.305-2.262.187-1.412-.081-2.917v-.678l.326-.504.815-1.105.538-.11M344.046 409.628l3.401-2.656M359.067 484.77l-2.804-3.785-.376-1.608.604-2.16 1.892-4.7-.033-.899M365.59 460.786l1.774 2.607M365.59 460.786l-.898 1.04M367.364 463.393l-1.202-.274-.539-.3-.931-.993M355.357 454.296l3.507.442.57.3 2.194 1.979 2.74 4.462.324.347" clip-path="url(#pbf5e320770)" style="fill:none;stroke:#000"/><path d="m359.067 484.77 1.941-.963.49-1.576-.033-1.341-1.795-3.122v-.836l.523-1.151 8.366-5.472 1.239-1.923-.13-1.608-2.304-3.385M230.612 448.37l3.356.604.734-.133.701-.703M210.338 513.246l.766 1.199 1.534 1.671.7 1.246 2.496 3.65.407.347 1.394.292 1.289.024.824.134.66.45.554.338.514 1.608M171.435 391.793l.016.136-.084.281-3.577 1.683-2.349.315-2.348.505-3.13.126-3.719.504-2.283 1.325-3.784 3.596-2.674 2.208-8.285 2.27-2.087 1.261-2.48 3.596-3.783 2.081.523 2.65 2.674 10.03 3.457 9.082-.065 5.488 1.696 2.207 1.761 4.668 2.87 2.965 2.806 4.1 1.63 3.72 5.871 6.687.392 5.424 6.066 11.527M210.338 513.246l-1.68-.788-2.153-.142-1.745.52-3.13 2.476-1.19.205-1.534-.394-1.484-.536-1.093.032-5.055.52-5.48-1.624-4.256-2.177-2.349-1.828-1.394-1.806-3.327-3.556-7.95-12.78-.481-.954-.278-1.49-5.014-7.813-.196-.883M351.076 134.779l.559.197.35.217 3.78 2.515 1.639.741.506.49.252.614.506 5.79.048 3.319.253 1.712.306 1.738 1.7 8.08.237 1.537.807 2.918.392 1.412.175 1.364-.074 1.704-.95 4.44-.465 1.463-.533 1.585-1.007 8.103-.098 4.29.562 6.694.122 2.58-.016 2.57.186 1.893-.022.765-.188.749-.665.958-.75.769-3.184 2.575-3.441 2.66-4.852 3.411-.484.525-.241.552-.05.534.098.976.36 1.36.39 1.258.629 1.1 2.3 2.823 2.706 1.562 3.033.883 3.49-.008 4.224-.717 1.762.725 3.359 3.013.815 1.387.8 1.057 1.793.504 4.175.284 1.55.789 5.023 5.189 1.255 2.097.196 1.2-.49 2.538-.848 5.505-.586 1.703-2.35 2.95-2.364 2.002-.31 1.277.392 1.341 2.022.867 9.915.978M381.208 500.683l-1.56 1.337-.326.772-.163 8.168-.734 1.767-1.484.914-5.333.268-2.364.788-2.088 1.83-1.305 2.475.408 3.437-.538 2.208-.783.993-6.93 3.296-4.649 2.822-6.767 6.844-2.512 5.25-2.984 9.334-.538 4.21.49 4.084 2.983 7.805 3.653 11.779 1.395 2.506 1.483 1.955 1.436 1.593 3.017 1.79 12.565 3.587M602.922 504.527l-1.403-1.892-.57-1.483-.294-1.072.032-1.324.229-1.845-.473-2.318-.359-2.507.082-1.057.603-1.072.49-1.435.325-1.277.604-1.955 1.043-2.618.196-2.318-.505-2.066-1.5-3.248-1.24-2.145-.33-.768.02-.462.473-.614.995-1.23.554-.946-.033-1.262-.831-2.476-.652-1.924v-1.15l1.125-2.256.31-1.166-.196-1.514-.962-2.113-1.908-2.27-2.186-1.972-.831-1.42-.392-1.655.229-1.64.685-.946.75-.804.179-.757-.554-2.728-.946-2.854-1.566-1.813-1.63-1.436M243.713 128.273l3.824-4.827 2.6-3.67 1.958-3.26 1.43-2.766 1.628-3.612 3.701-13.076.592.248.53.331 9.723 9.543.632.154h.477l.469-.071 1.7-.592.958-.189 1.016.11 1.793.427 1.599.133 1.377-.023 11.628-2.524.722-.051.786.04 4.371 1.238 4.942 1.51 3.669 1.238 4.533.927 3.454.248.974.248 1.794.848 2.197 1.262.983.119.795-.064 1.672-.24.68.023.694.182.62.359 3.008 2.858 1.268 1.49.518.699.42.639 1.594 5 .277.619.416.52 1.231.883.514.47.824 1.537.256.801.082.726-.086.725-.632 1.443-.538 1.156-.367 1.628-.159 1.711.155.529.29.296.684.165 2.777-.228 2.911-.332 1.663-.04 2.129-.141 2.152-.434 2.185-.268 2.765-.115.505-.054M254.683 173.439l-6.771 8.597-3.131 4.006-3.165 3.856-3.49 3.344-1.255 1.396-1.24 1.128-1.671 1.021-1.068.422-1.024.477-.9.619-.49.71-.334 1.049-.775 1.83-3.27 5.613-1.5 2.58-1.614 2.263-1.729 1.356-.726.568-.562.118-.546-.126-2.667-1.136-2.744-1.025-.538-.106-.546-.028-1.073.158-1.557.11-1.443-.157-1.696.102-1.655.323-2.414.986-.636.45-.498.568-2.543 3.745M243.713 128.273l-4.368 5.372-1.342 2.076-.937 2.122-.566 2.498-.085 2.358.315 2.495.672 1.843 1.764 2.97 15.517 23.432" clip-path="url(#pbf5e320770)" style="fill:none;stroke:#000"/></g><g id="PatchCollection_1"><path d="m608.042 618.719-2.185 2.68.033.631.424.505 1.109.757 1.206.441 1.534 1.23 1.956.504 1.305-.252.26-.6-.586-1.166-2.903-2.113-1.696-2.144zM575.704 296.757l.717.15 3.245-1.735.237-.592-.905-.914-.604-.663-.407-.07-1.672 2.239zM135.598 309.176l2.446-.473 2.512 2.87.163 2.997-2.838-2.996-1.403-.663z" clip-path="url(#pbf5e320770)" style="fill:#00f;fill-opacity:.8"/></g><path id="PatchCollection_2" d="m328.104 386.179 1.317 1.098 2.896-3.761-1.064-.851z" clip-path="url(#pbf5e320770)" style="fill:green;fill-opacity:.8"/><path id="PatchCollection_3" d="m338.557 375.479 2.414-3.737 3.326 2.191-2.821 4.038z" clip-path="url(#pbf5e320770)" style="fill:#90ee90;fill-opacity:.8"/><g id="PatchCollection_4"><path d="m344.933 420.78 1.3-1.21 2.071 2.08-1.3 1.211zM319.703 365.153l.976-.371.48 1.113-.98.322zM582.292 293.579l.295.052-.053.284-.295-.051zM581.636 293.772l.325.06-.053.267-.325-.06zM581.815 294.549l.134-.598.538.113-.133.597zM333.542 381.465l-.99 1.18.632.496.99-1.18z" clip-path="url(#pbf5e320770)" style="fill:#a9a9a9;fill-opacity:.8"/></g></g></g><defs><clipPath id="pbf5e320770"><path d="M121.343 86.4h495.314v554.4H121.343z"/></clipPath></defs></svg>