<svg xmlns="http://www.w3.org/2000/svg" width="960" height="960" viewBox="0 0 720 720"><defs><style>*{stroke-linejoin:round;stroke-linecap:butt}</style></defs><g id="figure_1"><path id="patch_1" d="M0 720h720V0H0z" style="fill:#fff"/><g id="axes_1"><path id="patch_2" d="M107.2 640.8h523.6V86.4H107.2z" style="fill:#fff"/><g id="LineCollection_1"><path d="m468.647 114.916-.44-5.196-.276-3.628-.089-1.98.073-1.578.194-1.408.324-1.489.526-1.456.478-1.12" clip-path="url(#p49814db7f6)" style="fill:none;stroke:#000"/><path d="m448.015 118.381 1.668-1.722 3.765-4.113 5.562-5.826 4.776-5.03 2.664-2.552 1.028-.905.462-.41.344-.26.396-.207.757-.294M471.323 148.023l.89.17M471.082 143.934l.152 2.173.09 1.916M465.13 164.626l2.364-4.346 1.547-2.833.647-1.296.486-1.207.453-1.521.356-1.626.235-1.633.105-2.141M466.514 146.828l1.49.446.955.257 2.364.492M384.568 372.599l-.486.852M384.568 372.599l.204-1.401M384.568 372.599l-.193.918M384.375 373.517l-.293-.066M384.375 373.517l-1.165 4.712M373.811 399.328l-.464 1.963M373.811 399.328l-.034-.265M373.811 399.328l.613.011 2.244.343M360.054 406.466l2.214-1.2 5.405-2.78 3.758-2.08 1.369-.67.56-.236.451-.172M377.19 399.568l1.47.253M377.19 399.568l.411-.356.078-.28M377.19 399.568l-.522.114M376.668 399.682l-.122-.411M384.082 373.45l-6.452-1.584.691-2.41 6.451 1.742M392.036 345.422l-.629 2.414-3.045 9.837-1.21 4.8-2.38 8.725M384.082 373.45l-.108.19-1.244 4.463M383.21 378.229l-.48-.126M382.56 380.726l.502-1.897.148-.6M382.73 378.103l-.191.683-.474 1.827M378.137 379.504l.703-2.401 3.89 1M379.274 390.419l-1.208 5.18M379.274 390.419l.449.108M379.274 390.419l-2.013-.666M379.274 390.419l.777-2.845M379.723 390.527l.84-2.832M379.723 390.527l1.959.54M379.723 390.527l-1.301 5.176M395.86 394.948l-2.902-.814M381.682 391.068l4.137 1.075M381.682 391.068l1.952-6.173M385.235 393.922l-4.056-1.063.503-1.791M385.719 377.36l-.714 2.579M385.719 377.36l4.234.523M390.504 375.46l-4.207-.614-.578 2.513M395.41 378.559l-2.85-.353M395.41 378.559l-.245 2.784M395.41 378.559l.21-2.354M385.005 379.939l-.444 1.606M385.005 379.939l4.345.6M397.263 381.633l-2.098-.29M397.263 381.633l.667-5.107M397.263 381.633l-.974 6.586M395.62 376.205l2.31.32M395.62 376.205l-2.53-.37M413.742 347.583l-.403.269-3.757 2.189-4.858 5.022-1.683 4.957.259 4.12-1.878 2.962-3.239 2.253-2.267 4.765-.297 2.085M395.165 381.343l-3.015-.416M395.165 381.343l-.457 3.05M396.289 388.219l-2.44-.64M396.289 388.219l-.393 3.387M383.634 384.895l.927-3.35M383.634 384.895l-2.036-.534M383.634 384.895l4.06 1.193M381.598 384.36l.87-3.286M381.598 384.36l-.472-.126M381.598 384.36l-1.036 3.335M381.126 384.234l-1.075 3.34M381.126 384.234l-4.065-1.056M381.126 384.234l.854-3.292M377.061 383.178l-.922 3.15M377.061 383.178l.539-1.838M377.061 383.178l-1.66-.503M377.6 381.34l.537-1.836M377.6 381.34l2.47.63M378.137 379.504l3.928 1.109M382.065 380.613l-.085.329M382.065 380.613l.495.113M382.56 380.726l-.092.348M381.98 380.942l.488.132M382.468 381.074l2.093.47M374.384 385.863l1.755.465M376.14 386.328l1.889.576M377.26 389.753l-1.966-.537.845-2.888M380.051 387.574l.511.12M380.051 387.574l-2.022-.67M378.029 386.904l-.768 2.85M359.095 404.697l12.405-6.729 1.239-.807 1.859-2.166 1.303-.765.384-.53.976-3.947M351.651 408.735l7.444-4.038M351.651 408.735l.714 1.322M351.651 408.735l-.535-.765M346.506 406.84l.299.534M349.277 411.795l-1.298-2.321M349.277 411.795l-2.47-.487M350.385 411.594l-.631.292-.477-.091M349.24 405.287l.453.648M352.365 410.057l.148.457M352.365 410.057l-2.226 1.133M352.365 410.057l7.57-3.8M353.403 413.266l-.183-.564M360.054 406.466l-2.294 2.068-4.357 4.732M344.216 423.415l1.187-1.303 6.375-7.08 1.625-1.766M346.805 407.374l1.174 2.1M346.805 407.374l2.888-1.44M349.693 405.935l1.423 2.035M347.979 409.474l3.137-1.504M361.229 405.608l-1.293.649" clip-path="url(#p49814db7f6)" style="fill:none;stroke:#000"/><path d="m361.229 405.608-.763.49-.412.368M373.777 399.063l-.255.043-.982.297-4.114 2.23-6.325 3.413-.872.562M350.14 411.19l.245.404M350.385 411.594l2.128-1.08M352.513 410.514l.707 2.188M352.513 410.514l7.54-4.048M340.11 410.053l-3.237 4.455M346.807 411.308l-2.33-.459-4.368-.796M304.724 384.499l7.19 4.12 28.195 21.434M353.22 412.702l-3.074 3.344M328.93 435.285l2.796-1.883 4.652-2.89 1.47-1.08 1.468-1.068 1.138-1.007.584-.51.446-.382.64-.755 2.092-2.295M350.146 416.046l-5.467 5.945-.404.934-.059.49M342.282 420.623l5.085-5.52 2.779.943M346.073 409.906l.734 1.402M359.095 404.697l.84 1.56M359.936 406.257l.118.21" clip-path="url(#p49814db7f6)" style="fill:none;stroke:#000"/><path d="m376.546 399.27-.235-.008-.64-.111-1.194-.146h-.35l-.35.058M373.228 401.792l.119-.501M373.228 401.792l3.432.37.995-.074M377.655 402.088l.573.062" clip-path="url(#p49814db7f6)" style="fill:none;stroke:#000"/><path d="m377.655 402.088-1.042-.36-3.266-.437M383.093 400.586l6.715.833M383.093 400.586l.203-.49M378.228 402.15l4.532.493.333-2.057M383.093 400.586l-2.608-.45M391.547 401.636l-1.74-.217M385.82 392.143l7.138 1.991M385.82 392.143l.858-3.03M385.82 392.143l-.585 1.779M387.694 386.088l2.975.655M387.694 386.088l1.656-5.548M387.694 386.088l-1.016 3.026M389.35 380.54l2.8.387M389.35 380.54l.603-2.657M390.504 375.46l-.55 2.423M390.504 375.46l2.586.376M383.296 400.096l-2.7-.559M384.373 397.142l-.458 1.456-.62 1.498M377.679 398.932l.005-.906M377.679 398.932l1.143.237M380.485 400.136l.112-.599M380.485 400.136l-1.825-.315M380.597 399.537l-1.775-.368M378.228 402.15l.432-2.329M378.66 399.821l.162-.652M378.822 399.169l.923-3.085M380.29 394.257l-.545 1.827M378.066 395.599l.356.104M378.066 395.599l-.501 1.824-.148.566M378.422 395.703l1.323.381M378.422 395.703l-.738 2.323M379.745 396.084l4.628 1.058M384.373 397.142l.862-3.22M384.373 397.142l.273.284 5.916 1.421M390.646 398.347l-5.744-1.26-.529.055M377.417 397.99l.267.036M377.417 397.99l-.282 1.08-.397.208-.192-.007M390.562 398.847l.084-.5M390.562 398.847l-.754 2.572M421.923 408.01l-3.756-.58-22.08-6.77-5.525-1.813M390.646 398.347l1.667.293M392.313 398.64l.887.155 5.99 1.255 1.264.274.712-.467.47.048M385.235 393.922l7.465 2.108M395.8 396.854l-3.1-.824M392.313 398.64l.387-2.61M392.7 396.03l.258-1.896M392.958 394.134l.432-3.177M393.85 387.578l-3.18-.835M393.85 387.578l-.46 3.379M396.89 391.863l-.994-.257M393.39 390.957l-6.712-1.843M393.39 390.957l2.506.649M398.107 374.682l-.177 1.844M392.15 380.927l-1.48 5.816M421.923 408.01l2.526 7.66M432.818 407.832l-2.511-.353-.957.126-1.284.207-1.76.52-1.963-.097-2.42-.225M424.45 415.67l5.124.866M459.22 630.138l.097-.482.324-.596 2.089-2.687 1.02-1.69.6-1.915.97-2.076.487-.79.161-.691-.08-.45-.357-.628-.47-.5-.502-.353-1.133-.58-1.7-1.158-1.473-1.77-.794-.355-2.59-.692-.34-.209-2.38-1.867-2.51-1.53-.276-.256-.485-.918-1.02-4.667-.551-3.347-.567-1.578-.453-.998-1.377-2.14-1.1-1.497-1.879-3.878-.874-2.575-.437-2.125.08-.386.616-.965 2.12-2.704.52-2.56.097-.756-.082-.467-.259-.515-.42-.418-5.57-4.024-4.033-1.609-.615-.29-2.38-1.85-2.089-2.012-.534-.966-.178-.531-.324-3.686-1.975-6.373-2.38-6.003-.13-1.014.632-2.752.194-.241 1.295-.966.648-3.01-.049-1.078-1.376-2.51.032-.5.276-.273 4.032-2.285 1.959-2.881.323-.274 1.523-.965 1.586-1.883.178-.338.097-.435-.064-.451-.454-1.11-.097-.451.033-4.845.42-1.85-.21-.853-.388-1.577-.373-.548-1.198-2.43 1.474-8.723 7.448-3.879.47-.692.21-1.19-.179-1.111-1.449-3.267-.283-.395-.526-.499-1.328-.933-.818-.773-1.408-1.062-2.113-.845-.55-.49-2.187-1.063-3.4-.145-1.085-.426-1.311-.145-.34-.379-.09-.458.09-.282 1.387-2.588-1.88-11.722-1.197-11.905 2.478-5.436-.94-3.993-3.846-8.24 1.967-5.777v-7.05l1.281-10.619-.529-3.747M438.037 403.785l-1.5 4.57M432.818 407.832l-1.633 4.367-1.611 4.337M436.538 408.354l-1.467 3.776-1.78 1.545-1.977 3.155-1.74-.294M436.538 408.354l-3.72-.522M595.48 455.688l-.816-.107-.696-.16-.664-.21-1.295-.692-.47-.242-.42-.08-6.04-.611-1.23-.387-1.005-.58-.647-.498-1.717-1.964-.372-.514-.47-.757-.227-.515-.858-1.964-1.7-4.554-1.514-3.774-.405-.628-.202-.234-.34-.2-.316-.154-.472-.062-66.671 17.276-37.893-32.573-28.4-11.464-4.102-1.686M381.406 324.55l-.104 1.85.372.812 1.302.186 3.757.296 2.232.11M396.256 329.173l-1.71-.444h-2.717l-1.488-.444-1.376-.48" clip-path="url(#p49814db7f6)" style="fill:none;stroke:#000"/><path d="m387.663 324.661-.223 1.072.595 1.295.93.776M387.663 324.661l-6.257-.111M398.188 323.854l-2.639-1.115-.855.221-.41.296-1.153 1.22-.967.296-1.6.037-2.9-.148" clip-path="url(#p49814db7f6)" style="fill:none;stroke:#000"/><path d="m381.563 321.777 5.022-.037.706.296.223.813.15 1.812M381.563 321.777l-.157 2.773" clip-path="url(#p49814db7f6)" style="fill:none;stroke:#000"/><path d="m378.326 319.41 3.311 1.516-.074.851M398.188 323.854l-1.932 5.32M420.307 289.843l-.642 11.933-.247 4.927-.11 1.028-.259 1.095-.258.58-.636 1.031-.686.89-.706.848-.81.58-1.372.697-3.716 2.422-7.365 3.18-3.423 2.218-1.889 2.582M392.036 345.422l2.303-8.85 1.917-7.399M322.509 439.653 321 436.924M328.93 435.285l-4.182 2.817-2.24 1.55M328.93 435.285l-1.962-2.511M321.001 436.924l5.967-4.15M326.968 432.774l-1.168-1.495-5.963 3.538 1.164 2.107M310.877 365.3l-3.368 7.481-1.748 2.769-1.166 5.279.13 3.67M118.5 334.673l2.006-1.1 8.03-1.03 3.692-.096 1.263-.13 1.101-.256.777-.419 1.393-1.094.712-.419 2.591-.096.874-.42.778-.675 2.137-2.414 1.068-1.513.454-.225.842.225 5.214 3.605 4.469 2.865 1.942 1.77.519 7.726-.227 1.931-.842 2.543-.162.773-.032 2.64-.26 1.545-.032.868.292.902.907 1.03 1.522.965 3.724 1.835.939.322 2.493.225 1.749-.321.712-.419.842-1.449.745-.772.745-.257.842-.032 1.62.353 5.601.322 1.62.193 3.562.966 4.955 1.578 1.845.74 3.627 2.092 2.073 1.545 1.392.676.745.483.389.418.971 1.546 2.04 2.252 4.016 5.827 1.425.322.777-.097 2.202-1.545 3.368.193 3.336-1.191.97.226.746.708.777 1.963.55 1.094 1.49 2.254.713 1.9.68.868.582.483.616.901 1.651 3.026.972 2.382.939 1.352 6.088 1.256 5.084.321 3.66.515h2.688l.906.097 1.263.322 1.004.418.777.13 2.677.148 29.534 1.867 8.355-3.476.13-2.575 2.267-2.382 2.849-.258 2.202.322 3.433-.902 3.238 1.56M310.877 365.3l25 13.069M295.765 277.211v1.094l.518 2.254-.033 1.062-1.522 3.509-1.683 3.385 1.65 2.538.357 2.8.615 2.543 1.036 1.739 2.138 3.057 2.008 2.383-.033.322.583 1.834.357 2.254.129.29.194 3.412.875 3.96-.422 1.255-2.17 3.701L298 324.37l-1.069 1.738-2.85 6.894.648 1.894.486.901 1.101 1.32.713.644 5.763 3.444 2.656.773 2.43 1.61 1.36 1.608 1.683 1.128.324.321.162.419-.195 1.48.033.548.388 1.255 2.138 5.633.226 1.223-.971 3.38-1.069 1.514-1.079 3.202M486.032 350.432l-2.849 1.03-4.469-.516-1.749.387-4.469-1.545-4.404.129-6.347-.645-2.59.258-3.174-1.545-6.024-1.416-10.557-5.15-1.684-4.121-2.46-1.545-2.656-2.576-3.005-.176M413.742 347.583l3.353-2.242 3.692-7.254.971-2.575 7.837-2.51" clip-path="url(#p49814db7f6)" style="fill:none;stroke:#000"/><path d="m446.265 301.888-9.52 19.654-7.15 11.46M586.372 330.922l-2.72.354-.22.103-2.979.258-3.473.476-8.452 1.352-.421-.096-2.485.553-3.991.702-1.75.162-2.711.456-3.344 1.218-6.5 2.677-2.43 1.094-2.437 2.12-1.684 1.094-2.322.552-2.179.704-.866-.06-1.586-.676-2.373-2.226-1.49-.611-1.675.52-1.855 2.12-2.678 1.388-4.479 1.38-3.099 1.324-2.98.87-9.195-.58-1.555-.097-.787-.326-1.101-1.834-.55-.548-.551-.129-1.933-.06-1.597-.262-2.548.906-1.597.8-4.588 3.32-1.159.512" clip-path="url(#p49814db7f6)" style="fill:none;stroke:#000"/><path d="m496.118 326.576.421 2.125-.12.49-1.24 1.28-.907 1.224-.421 1.577-.216 1.197-.043.8-.226.708-1.782 2.543-.291.74-.281 1.196-.356.805-2.86 4.438-.67 2.644-1.094 2.089M413.742 347.583l-7.438.016-4.663-.065-5.246-.708-4.36-1.404M392.56 378.206l-2.607-.323M392.56 378.206l.53-2.37M595.48 455.688l1.402.183 2.202.757.583.208.567.355 2.671 2.14 2.77 2.334.388.322.26.354 1.31 2.237 1.329 2.655.356.693.501.708.34.386.794.58 3.174 2.06.388.29.356.45.502.724 1.215 1.69M452.622 187.708l3.441-6.326 9.067-16.756M457.192 159.282l.324-.028.326.08.259.163 3.365 2.521 3.664 2.608M420.307 289.843l.103-1.909.81-13.746.711-13.617.195-1.867.207-1.124.162-.773 5.427-16.933 3.66-11.428 1.075-3.243.786-2.1.818-1.956.866-1.811 5.804-10.575 7.927-14.132 3.764-6.921M455.784 159.813l-.264 8.95-.064.973-.097.99-.454 2.245-1.295 6.165-.762 3.952-.145 1.231-.065 1.336-.016 2.053M571.566 129.202l-.42.507-.337.495-.287.583-.32.72-.376.673-.53.825-1.073 1.312-.648.78-.615.584-.651.479-.591.326-.64.197-.83.133-.777.044-.75-.068-.797-.105-.615-.024-.62.048-.785.149-.902.274-1.271.543-.778.35-.76.455-.668.483-.518.55-.798 1.152-.595.933-.207.39-.151.306-.166.198-.221.15-.279.143-.53.237-.777.42-.976.603-.98.736-.59.491-.575.592-1.02 1.327-2.146 3-.178.204-.187.14-.175.091-.2.055-.636.092-.765.109-.503.12-.513.226-1.664.95-.802.49-.465.342-.32.326-.223.374-.162.467-.141.552-.158.547-.235.552-.316.486-.28.302-.331.237-.376.17-.923.322-.672.189-.539.184-.773.443-2.141 1.457-.854.736-.737.789-.6.84-.469.87-.29.724-1.232 4.065-2.17 7.283-.06.322v.33l.065.338.1.314.191.45.138.383.073.362.048.534.006.253-.026.175-.08.149" clip-path="url(#p49814db7f6)" style="fill:none;stroke:#000"/><path d="m478.04 149.54.756.354 4.137 1.871 2.93 1.223.644.374.725.548.635.583 5.518 5.915 4.688 5.046 5.205 5.86 1.077 1.464.854 1.18.578.675.62.528.98.551.93.45.9.266.809.13.854-.021 1.024-.117 1.4-.125 1.36-.024 2.565-.09.358-.002.338.042.445.107 3.678.76.878.193.498.161.385.218.4.35.568.591.147.099.182.016.19-.068.126-.111M548.224 197.222l-3.012-3.702-.94-.676-3.4-1.739-2.687-2.253-.81-.87-.162-.353v-.934l.486-3.348-.097-.515-.195-.226-11.985-4.07M472.214 148.193l4.671.892.596.21.558.245M478.946 139.35l.433 1.096.466 1.553.129.567.064.446.029.761-.089 1.445-.065.551-.101.447-.158.463-.4.86-1.215 2M477.137 128.832l-.029.487-.032.466-.008.407.048.382.093.467.206.72.179.379.295.418.656.801.218.37.187.423.202.567.482 1.42.15.612.093.515.016.314-.061.354-.117.286-.21.298-.26.366-.3.467" clip-path="url(#p49814db7f6)" style="fill:none;stroke:#000"/><path d="m472.409 143.242.59-.342.656-.39.668-.415.603-.31 1.559-.724.769-.41.522-.258.43-.258.347-.293.393-.491M468.647 114.916l.458.009.37.03.284.065.245.118.164.147.164.215.291.379.51.595.207.306.12.342.074.354.012.334-.036.318-.078.314-.02.258.017.317.1.394.183.35.259.347.377.317 2.319 2.198.353.418.335.572.344.809.709 2.064.566 1.449.134.523.029.374" clip-path="url(#p49814db7f6)" style="fill:none;stroke:#000"/><path d="m471.082 143.934-.268-3.396-.272-2.877-1.137-13.775-.758-8.97M472.409 143.242l-1.327.692M472.214 148.193l-.08-2.03-.017-.764.036-.68.061-.555.077-.44.118-.482" clip-path="url(#p49814db7f6)" style="fill:none;stroke:#000"/><path d="m466.514 146.828.71-.64.513-.367.526-.305.862-.483 1.957-1.1M614.934 173.044l5.797-18.64-.162-.289-.745-.322-6.477-1.706-6.315-1.514-2.008-.064-4.209.58-1.49.097-5.764-.355-3.433-.45-3.497-1.127-5.052-.74-1.976-.644-2.396-1.256-3.724-1.03-.68-.483-.745-1.095-.356-.87v-.836l.55-1.545.518-.998.356-.966.357-1.707-.389-3.058-1.528-4.824M384.666 180.255l-2.689 2.712-2.691 2.58-.437.45-.284.383-.202.41-1.114 2.8-.926 2.021-.275.712-.252.523-.327.447-.434.483-1.056.981-2.016 1.57-4.753 3.79-3.173 2.644-2.089 1.795-2.21 1.573-2.238 1.53-2.11 1.4-1.545 1.046-.584.374-.485.278-.672.293-.547.206-.635.165-.553.17-.455.168-.43.205-1.226.692-2.615 1.553-1.477.841-.571.334-.526.374-.486.379-.417.426-.466.552-.311.33-.32.213-.413.213-2.028.833-1.226.568-.733.273-.514.117-.562.036-.645-.068-.647-.181-1.7-.66-2.162-.7-.64-.21-.627-.322-1.323-.736-.603-.225-.628-.137-.623-.053-.794.009-1.396.148-2.101.306-1.725.193-.603.09-.502.111-.587.186-.817.314-.55.193-.62.2-.442.146-.42.205-.729.427-.47.265-.546.25-.777.297-.498.225-.547.287-.992.72-1.626 1.223-1.102.765-1.174.86-3.797 2.995-.907.748-.68.458-.768.387-1.644.676-1.765.78-1.336.633-1.348.808-.49.262-.392.153-.466.144-.47.165-.408.226-.518.47-1.069 1.156-.96 1.11-1.322 1.779-.757.901-.292.314-.356.281-.425.19-.454.12-.72.08-.624.045-.53.1-.494.161-.47.162-.554.12-.781.09-.652.075-.526.153-.546.274-.608.418-9.873 7.44-.206.085" clip-path="url(#p49814db7f6)" style="fill:none;stroke:#000"/><path d="m299.934 137.186-.073.93-.652 2.707-.736 1.59-.446.567-2.538 2.065-1.453.676-1.615.507-.51.257-.457.367-3.016 3.794-.826.733-3.501 2.466-.502.463-.696 1.05-.118.411.093 1.083.462 1.375.141 1.32-.089.765-.55 2.652-.267.603-1.348 2.186-.28.82-1.092 4.145-.98 1.94-.268.757-.68 2.317-1.262 2.829-.235.294-.745.631-1.6 1.69-.472.854-1.09 2.837-.47 1.303-.181 1.143.004 3.22.17 1.207.7 2.317.264 2.39-.163 1.12-.651 1.303-.47.648-.975.857-1.389.853-.194.885-.134 1.067-.158.454-.805 1.843-.312.902-3.55 12.619-.635 2.591.007 1.228.163.623.688 1.94.153.934-.008 1.054-.477 3.058.057 1.396.542 1.646.866 2.358.154.941-.008.942-.332 2.342v.837l.186.805.308.74.388.628 2.194 2.374.43.644.874 1.706" clip-path="url(#p49814db7f6)" style="fill:none;stroke:#000"/><path d="m224.7 245.04.574.146.514.096.57.004.737-.096 1.122-.258.761-.257.732-.347.741-.45 1.203-.865.769-.48.696-.313.894-.257 1.284-.23 3.275-.523 1.809-.185 1.44-.08 1.636.088 4.85.435 1.7.29 1.667.401 12.16 3.791 4.736 1.554.778.261.232.038.189-.018M295.765 277.211l-1.91-1.058-2.818.42-2.72.675h-3.433l-3.141-.901-2.785-4.926-.68-4.635-1.069-2.704-1.522-3.799-.454-5.343-.064-2.318-1.781-1.61-1.198-.418-2.421-2.809M416.337 146.985l.228-.379.192-.227.23-.141.313-.106.425-.1.518-.118.595-.149.587-.261 1.899-1.034 2.602-1.59 1.012-.753 1.126-.91.671-.421 1.215-.693 2.481-1.537 1.498-1.15.875-.701.598-.66.494-.82.988-1.667 1.473-2.181.68-1.143.373-.732.291-.87.47-1.11.36-.503.474-.47.644-.508 1.04-.732 3.534-2.568 1.028-.86.6-.596.484-.616.555-.853.6-.833.525-.612" clip-path="url(#p49814db7f6)" style="fill:none;stroke:#000"/><path d="m382.216 108.671.51-.064.956-.088.57-.093.426-.088.283-.037.269.014.249.08.277.176.755.539.631.47.628.54.806.805.518.414.615.342.879.375 1.242.47.575.162.595.068 1.13.024 1.49.008 1.068.028 1.052.089h.235l.26-.027.258-.076.302-.133 1.932-1.18 2.936-1.683 2.72-1.48 2.056-1.256 1.113-.68.785-.342.915-.335 3.708-1.412 4.825-1.871.332-.083.314-.021.271.044.25.125.343.25 3.064 2.663 3.004 2.631 2.79 2.278 1.897 1.69.58.423.623.29.733.197 1.145.281.76.125.547-.012.454-.093.45-.225 1.274-.785.729-.459.28-.104.248-.024.21.048.203.125 2.613 2.326 2.358 2.06.198.147.164.117.192.094.31.09.237.061.236.12.292.232.51.551.62.79M412.017 151.105l.798-.523 1.683-1.119.507-.406.42-.47.312-.428.304-.575.296-.6" clip-path="url(#p49814db7f6)" style="fill:none;stroke:#000"/><path d="m411.681 142.808.336 1.267.223.712.388.78.474.705.579.571.336.242.372.117.571.016 1.377-.233M384.666 180.255l1.975-2.165.902-.982.64-.583.834-.648.83-.483.898-.358.838-.157.972-.04 1.02-.032.801-.145 1.26-.363 1.201-.478 1.478-.632 1.955-.894.91-.575.976-.788.547-.572.502-.656.919-1.388.413-.7.348-.737.506-1.332.218-.837.247-1.147.105-.953.316-2.29.255-1.155.39-1.24.8-1.814 1.198-2.318.531-.845.3-.39.38-.33.457-.294.834-.439.595-.39M455.784 159.813l-1.705.805-.295.119-.288.034-.305-.064-.375-.19-1.76-1.267-1.685-1.272-.926-.76-.49-.37-.478-.266-.64-.25-2.436-.865-.85-.298-2.202-.587-.806-.177-.644-.04-.554.06-.546.169-2.049.845-3.141 1.183-.858.362-.53.286-.525.366-.738.62-.943.752-.18.1-.207.051-.203-.014-.206-.106-.261-.256-.996-1.376-.28-.451-.173-.418-.09-.395-.356-3.034-.17-1.227-.158-.773-.113-.205-.194-.137-.3-.024-.352.08-2.178.886-4.428 1.51-.828.294-.244.07-.167.009-.135-.055-.098-.13-.191-.41-.147-.258-.186-.198-.226-.145-.29-.054-.445-.024-.355-.042-.307-.1-.534-.238-.526-.277-.51-.198-.575-.116-1.389-.242M360.985 154.171l5.87 6.56 3.74 4.57 3.267 3.928 1.36 1.489.526.535.671.636.398.37.247.322.14.258.177.443.124.308.145.214.162.141.431.236.56.27.327.194.358.27.96.906 1.117 1.118 3.1 3.316" clip-path="url(#p49814db7f6)" style="fill:none;stroke:#000"/><path d="m457.192 159.282-.332.104-.397.145-.68.282M457.192 159.282l3.478-5.159 1.044-1.384 1.773-2.27 1.32-1.803.817-.99.441-.442.45-.406M381.533 108.76h-.519l-.579-.133-.563-.274-1.129-.764-1.008-.901-.408-.39-.373-.29-.47-.339-.295-.197-.2-.073-.207-.02-.213.013-.335.088-.446.157-.506.133-.502.036-.457-.072-.393-.173-.384-.286-.45-.346-.558-.306-.676-.362-.563-.427-.704-.636-.214-.164-.238-.095-.216-.03-.24.01-.197-.015-.168-.051-.132-.093-.127-.201-.067-.25M344.04 124.087l2.801-1.36 1.077-.555.89-.523.665-.539.938-.918.39-.346.267-.149.303-.108.397-.073.28-.129.278-.156.244-.262.129-.358.09-.503.133-.644.21-.644.36-.72.466-.677.882-1.508 1.4-2.785.438-1.087.316-.973.218-1.215.235-1.49.17-.507.336-.446.563-.366.708-.258 3.137-.764 2.316-.5 1.165-.273.806-.258.538-.233.81-.45M291.684 124.386l.931.233 1.004.386.931.547.875.846.655.981.988 1.65 1.7 3.195.397.99.26.99.25 1.392.174.914.085.676M344.04 124.087l-1.44.612-1.207.596-1.141.62-1.07.611-.97.56-.535.241-.389.105-.477.06-.859.024-.866.073-.769.112-.55.113-.538.197-.543.318-.87.62-.45.378-.47.47-.44.335-.478.225-.458.097-.534.007-.802-.104-.85-.072-1.016.004-1.263.104-1.732.266-.514.1-.425.182-.41.265-.477.434-1.048 1.047-.692.769-.563.792-.425.636-.486.616-.85.905-.575.616-.428.479-.345.394-.31.324-.222.137-.233.092-.232.032-.537.003-.419.028-.31.07-.257.115-.36.221-.327.276-.26.265-.277.363-.17.257-.197.191-.23.133-.29.06-.546.045-.704-.012-.466-.04-.453-.105-.324-.045-.482.009-.733.068-.453.077-.35.044-.56.002-.531.02-.417.028-.318-.002-.293-.062-.385-.163-1.08-.608-1.13-.752-2.295-1.78M280.322 122.651l.388-.057.498.005 1.247.152 1.554.25 1.636.41 1.716.451 1.68.254.834.076.842.069.967.125M360.985 154.171l-4.963-5.907-3.254-3.702-.324-.447-.162-.291-.081-.276-.02-.248.022-.257.012-.4-.028-.373-.087-.354-.182-.376-.518-1.055-.203-.486-.195-.572-.8-2.43-.325-.837-.372-.873-.542-1.07-.591-1.124-1.757-3.315-2.575-5.69M403.025 141.584l-.954.531-.441.282-.42.282-.41.338-.473.402-1.061.785-.578.338-.636.257-.612.186-.607.189-1.862.756-.764.302-.71.19h-.8l-.66-.118-.644-.225-1.348-.692-.55-.23-.948-.241-.522-.064-.389.048-.352.137-.38.294-.66.7-1.728 1.92-1.017 1.114-.49.447-.59.39-1.656.885-.991.427-.94.358-.85.217-.745.113-.764.036-.62.008-.749.089-.648.116-3.29.725-2.996.6-.951.16-1.113.145-2.595.201-2.526.19M404.395 142.027l.975.245.81.15 1.304.112 1.764.18 2.433.094" clip-path="url(#p49814db7f6)" style="fill:none;stroke:#000"/><path d="m404.395 142.027 3.072-.737 1.498-.398.749-.149.688-.016.462.113.344.338.206.462.267 1.168M403.025 141.584l.334.19.558.168.478.085M382.184 109.585l.3.547.348.821.474 1.409.105.486.06.418.013.379.007.548.04.364.086.27.152.259.239.261.354.262.467.264.374.275.27.262.253.335.406.624.456.855.567 1.175 1.085 2.133.42.709.632.829.474.671.55.83.389.655.494 1.027.85 1.537.344.454.376.379.51.358.911.644 1.138.82.505.39.288.287.174.301.182.431 1.288 3.119.202.382.27.326.35.261.635.278.781.193 1.425.347.628.205.425.245.29.298.167.41.077.435-.061.434-.101.512-.142.563-.06.45.003.33.055.335.131.354.185.253M382.216 108.671l-.683.09M382.216 108.671l-.032.914M381.533 108.76l.65.825M263.252 135.854l3.327-1.86 3.125-1.69 1.016-.426.858-.265.595-.246.425-.318.842-.857 1.421-1.775 1.753-2.2.396-.44.316-.237.353-.205.53-.294.477-.362.434-.45.311-.391.89-1.187M174.383 207.771l-1.182-.708-.85-.591-.59-.552-.71-.78-.712-.773-.663-.62-.77-.58-.433-.265-.486-.145-.603-.06h-.874l-.79-.08-.926-.287-.87-.43-.826-.583-.696-.729-.49-.68-.365-.583-.234-.616-.134-.74-.364-2.76-.559-6.64-.146-1.578-.17-1.344-.712-3.473-.324-1.436-.21-1.098-.381-3.312-.13-1.208-.064-1.03-.04-2.51-.05-1.104-.137-.973-.34-1.344-.437-1.4-.761-1.851-.947-1.972-.883-2.109-.769-2.044-.623-1.44-3.069-5.643-.623-1.28-.543-1.351-.85-2.036-.68-1.345-1.052-1.713-.583-.83-.619-.728-.927-.937-1.676-1.53-1.806-1.9-1.521-1.882-.98-1.586-.955-2.278-.591-1.77-.272-.788-.255-.56-.311-.499-.458-.53-.672-.737-.327-.536-.219-.527M167.306 266.027l.078-.175.158-.257.41-.567.558-.572.813-.616 2.518-1.657 1.118-.789.833-.684 1.199-1.312.566-.829.389-.917.267-1.062.048-1.312-.048-1.828-.13-2.671.057-1.248.17-1.19.51-2.873.376-3.204.154-1.525.073-.583.045-.563-.04-.588-.13-.652-.243-.664-.247-.511-1.048-1.634-.425-.62-.247-.482-.158-.507-.227-.813-.194-.6-.247-.51-.49-.842-.996-1.839-.311-.62-.24-.68-.113-.635-.125-.793-.19-.784-.21-.58-.268-.575-.328-.58-.227-.684-.331-2.028-.094-.809v-.486l.057-.451.146-.443.312-.773.368-.824 1.307-2.246.68-1.3.693-1.267.611-.902.275-.333.113-.35.037-.407-.045-.434-.13-.636-.38-1.94M224.7 245.04l-1.632-.502-.862-.222-.604-.205-1.12-.559-.422-.19-.42-.095-.438-.065-.668-.028-.563-.064-.586-.133-.745-.278-1.923-.84-.518-.23-.38-.238-.28-.211-.308-.264-.263-.185-.85-.519-1.749-1.175-1.643-1.167-1.263-1.203-1.385-1.272-.813-.74-.615-.489-.456-.374-.358-.316-.378-.362-1.017-.853-.376-.342-.224-.174-.251-.118-.26-.089-.287-.062-1.21-.241-.413-.109-.292-.116-.295-.198-.348-.33-.45-.47-.397-.359-1.015-.637-.427-.244-.166-.137-.126-.219-.034-.256.012-.358.058-.587-.014-.27-.058-.263-.14-.308-.287-.354-.968-.938-.583-.636-.437-.603-.324-.524-.397-.515-.631-.736-.441-.45-.413-.343-.425-.306-.506-.293-.332-.23-.271-.233-.356-.418-.292-.383-.377-.446-1.323-1.284-2.3-2.588-.46-.539-.296-.285-.417-.27-1.595-.873-.976-.487-.483-.263-.263-.202-.198-.293-.302-.562-.24-.434-.335-.379-.518-.378-.895-.543-.619-.39-1.23-.556-1.855-.869M224.7 245.04l-5.482 1.707-10.112 2.8-3.44.87-2.486.724-1.627.612-1.206.668-.842.644-.753.788-1.17 1.356-.575.648-.482.395-.672.434-2.623 1.602-2.015 1.126-1.312.5-1.408.37-1.231.18-1.024.017-.878-.069-.948-.136-1.004-.178-1.044-.128-1.069-.025-1.125.08-1.611.299-1.093.325-.688.278-.591.383-.527.47-.501.459-.486.33-.854.483-.542.382-.701.563-.535.306-.497.181-.648.17-.643.193-.664.225-.92.436-.925.572-.212.122-.141.013-.087-.065v-.123M118.5 334.673l-.132-6.218-1.099-10.201.063-.421.261-.577 1.749-2.157.453-.901.354-1.226.518-3.798.326-.738.614-.936 2.754-2.863 1.07-.74 1.908-.871 1.621-.932.904-.806 1.071-1.576 2.07-1.193.616-.515 2.949-4.184 1.52-1.867 3.335-3.058 1.266-.515 5.664-3.638 1.814-2.414 1.068-1.32 3.209-2.608 1.81-1.77 1.264-.772 2.01-.613 1.358-.835 1.651-2.833 4.767-5.55M589.06 231.991l.744.032M548.224 197.222v.901l3.983 4.765 7.707 8.724 5.926 6.6 1.716 2.64 2.138 1.996 2.364 1.062 5.02 1.61 1.521 1.127.778.354 3.95.87 1.523.579 3.173 2.092 1.037 1.45" clip-path="url(#p49814db7f6)" style="fill:none;stroke:#000"/><path d="m587.901 235.617.381-1.759.778-1.867M589.804 232.023l1.037.387h.647l.972-.419M599.17 432.58l3.044.709 1.975-.032 1.102.45 1.457 1.288h1.101l2.008-.74 1.004-.065 1.197 1.835 2.073 2.285 2.85 3.702" clip-path="url(#p49814db7f6)" style="fill:none;stroke:#000"/><path d="m619.046 189.689-1.845 5.634-.842.418-3.4 2.415-.875.097-1.036-.258-1.198-.065-.26.097-.42.547-.68 2.222-.81 2.157-.162.772.13.87-.033.74-.227.773-.453.933-1.651 2.544-3.012 3.186-2.137 2.705-1.263 2.06-1.296 1.256-1.068 1.835-1.199 1.674-1.943 2.865-3.562 6.857M560.076 270.56l1.198-1.257 2.914-1.577 2.494-1.384.778-.58 3.497-4.281 2.267-2.319.291-.708-.064-2.028.453-2.447 1.975-3.83.907-.998 1.587-1.16 2.04-1.705.453-.194 1.523-1.095 3.14-1.449.745-.578 1.627-7.353M586.372 330.922l-1.425-.74-.648-1.61.097-.515.267-.798 1.069-1.706.122-.458.064-1.191 1.004-1.416 1.594-1.635.576-.909.259-.644.291-1.449.299-.667.479-1.876.039-2.663.097-.772 1.328-2.769.26-1.416.154-3.39.42-3.026-.089-2.79.22-2.168-.382-.922-1.878-2.318-.55-1.062-.454-2.35-.072-1.847-1.166-5.12-.122-3.751-.137-.787-.446-1.757-1.781-4.828-.68-2.189.13-.837.906-2.51 1.781-3.348 1.36-1.9 2.332-2.285.291-.128.81-.837.543-.726 1.425-3.863.007-1.045-.33-.918-2.333-3.477-1.87-3.201-.227-.772.162-.87.097-1.609-.137-2.337-.413-1.461-1.814-1.642M599.17 432.58l1.522 4.83-.032.965-2.332 12.168-2.847 5.145M586.372 330.922l4.897-.917M619.046 189.689l-6.444-3.058-.162-.934 1.976-8.692.518-3.96M548.224 197.222l.582-.58 1.846-3.991 1.36-1.836.616-1.126.065-.29 2.234-3.058 1.749-.322.745.096.81-.193.97-.74.68-.773 1.943-1.77.616-.033 2.493.226 1.199-.323 1.781-1.19 4.404-3.38 3.562-1.675 1.425-.547 1.23-.322 6.283-.58 2.915-.129 2.137.226 7.87.354 2.687.354 1.133.032.356-.096.454-.322 1.554-1.9.422-.386.582-.322 5.473-.418 4.534.836" clip-path="url(#p49814db7f6)" style="fill:none;stroke:#000"/><path d="m591.27 330.005 1.321 3.931-1.327 2.157.356 2.704-1.036 2.253-.875.611-1.78 3.252-1.356 2.85-2.785 8.788-.712 3.219-.518 3.991-.194 2.994.226.772.875 1.48.388.902 1.134 4.346-.519 4.86.616 1.674 2.655 4.153 1.069 2.22.065.387 1.49 3.283.485 1.448.583 2.383 1.004 2.671.55 1.191 2.202 3.991 3.432 5.022.195.515-.13 3.412-1.198 14.517-.032 1.481-.162.773-.389.868-.129.838.68 1.384 1.716 1.255M295.765 277.211l5.116-2.447 5.538-2.317.097.032 1.943.483 10.816 1.416 8.549-.547 4.987-.773 1.49 1.063 1.975 2.478 5.376 6.149 1.392.901 4.016 1.964 1.684.579 3.756.612 1.231.064 3.4-.901 1.457-.194h1.231l2.267.451 1.878-.064.777-.129 1.069-.386 1.943-1.223.939-.74 1.749-1.739.939-.483 1.166-.386.939.161 4.663 1.577 1.554 1.32 2.073 1.159 1.878.386 1.943.161.389.193 4.015-1.255 1.231-.032 2.656.257 2.04-.097.258.13.94.063 1.78-.193 1.329-.289.194-.13 11.658-.224.81.386 2.266 1.384 3.919 3.187 1.226.625" clip-path="url(#p49814db7f6)" style="fill:none;stroke:#000"/></g><g id="PatchCollection_1"><path d="m400.788 403.986 11.14 3.734-3.11 1.673 2.98 3.22-4.663.772-.13 4.378-2.98-1.159-5.698 2.704-3.11 5.15 1.296 6.824-1.295 6.18-3.239 4.765-11.27 6.566-4.792 2.06h-2.72l-2.332 2.962 2.461 3.24.778 3.605-3.887 2.705-5.829 1.673 6.218-3.219 1.037-3.605-3.24-3.605.26-3.734 2.59-2.833 4.534-.773 11.14-6.309 2.59-4.12-3.626-11.717-2.98-4.635 3.369-6.953 5.829-4.506 1.554-2.06 2.85.257zM626.485 580.426l11.917-1.674 3.108 2.189 5.441.515-1.554 3.605-7.125 3.991-2.461 4.12.13 16.867-2.591 5.922 1.036 5.794-4.274 4.892-2.591 16.094.518-14.549 2.98-18.153-4.016-7.854-5.052-.773-10.88 5.408 7.124-7.983 4.015-2.446h2.461l1.684-1.159-.907-2.189-4.404-2.703 3.498-3.606 1.813-2.574zM593.842 539.354l8.161 4.892-1.943 3.863 1.683 3.348-12.435 7.982-3.367 5.279-5.7-3.219 4.663-8.626 4.793-3.476 2.72-8.112zM537.883 506.007l4.793 2.96-1.036 2.705.648 1.802-3.627 1.03v3.991l1.554 1.932-3.108 4.893.776-4.893-3.626-1.416.777-3.863.906-3.605-1.942-1.03 2.849-1.932zM578.687 479.612l5.958 2.961 7.254-1.416 3.238 3.862-9.067 2.447 5.7 6.051 6.476 4.765 1.555 15.45-9.068-3.992.778-8.369-12.176-8.111-5.441 2.961-3.497-1.674 1.943-5.922 4.792-5.022zM507.702 462.23l5.7-1.16.388 5.409-1.165 1.416-2.462.901-1.425 6.052-.648-7.34z" clip-path="url(#p49814db7f6)" style="fill:#00f;fill-opacity:.8"/></g><g id="PatchCollection_2"><path d="m352.666 410.668 5.028-2.728.073.097-4.347 4.852zM379.94 390.76l1.47.498-.8 2.94-.633-.093-.41 1.664-.93-.221z" clip-path="url(#p49814db7f6)" style="fill:green;fill-opacity:.8"/></g><g id="PatchCollection_3"><path d="m336.963 409.924-4.487-3.207-2.371 2.867 4.593 3.292zM345.42 407.029l.948 1.663-1.47.759-.8-1.646zM378.285 374.433l1.134.241-.465 1.738-1.06-.203z" clip-path="url(#p49814db7f6)" style="fill:#90ee90;fill-opacity:.8"/></g><path id="PatchCollection_4" d="m376.435 361.902 31.607 7.598-3.886 28.456 40.802 5.536-7.383 17.769-64.767-12.619-24.223 15.838-23.704-9.657 10.363-14.035 9.844 4.12 20.855-13.777z" clip-path="url(#p49814db7f6)" style="fill:#d3d3d3;fill-opacity:.8"/><g id="PatchCollection_5"><path d="m378.786 395.51.559.13.297-.98-.595-.148zM380.851 374.711l.67.185-.633 1.923-.576-.13zM382.358 375.08l.707.204-.67 2.348-.651-.148zM381.484 375.562l.557.129-.186.703-.576-.093z" clip-path="url(#p49814db7f6)" style="fill:#a9a9a9;fill-opacity:.8"/></g></g></g><defs><clipPath id="p49814db7f6"><path d="M107.2 86.4h523.6v554.4H107.2z"/></clipPath></defs></svg>