<svg xmlns="http://www.w3.org/2000/svg" width="960" height="960" viewBox="0 0 720 720"><defs><style>*{stroke-linejoin:round;stroke-linecap:butt}</style></defs><g id="figure_1"><path id="patch_1" d="M0 720h720V0H0z" style="fill:#fff"/><g id="axes_1"><path id="patch_2" d="M90 624.484h558V102.716H90z" style="fill:#fff"/><g id="LineCollection_1"><path d="m300.99 335.073.51 1.754.208 1.688-.01 1.367-.172 1.375-.405 1.068-4.576 9.854-.68 1.57-.053 1.994.702 2.961.285 2.496-.05 2.345-2.08 5.81-1.984 5.118-1.093 2.508-1.846 2.059-1.925 1.792-2.072 1.283-2.259 1.204-3.81 1.094-2.65.257-4.262-.426-3.703-1.214-3.657-1.77-3.453-1.673-1.914-.74-1.418-.42-1.488-.03-1.423.445-1.38.841-1.026 1.094-.33 1.038-.353 1.44-.023 1.462 6.15 24.21-.043 1.903-.359 1.766-.894 2.18-1.174 1.684-2.331 1.993-10.52 7.563-10.318 7.76-2.673 2.247-2.273 2.705-1.555 2.828-.923 2.768-.78 4.352M220 470.108l.519-1.814.503-1.969.336-1.896.488-2.715.642-2.686 1.373-5.273 1.046-5.079" clip-path="url(#p8f77441424)" style="fill:none;stroke:#000"/><path d="m177.729 448.161.158.041 2.305.942 3.832.962 2.503.345 2.442-.977 1.648-1.38.916-3.102L193 442.75l1.953-1.321 2.344-.296 2.297.41 1.83 1.38 1.528 1.954 1.587 1.321 2.503.977 2.32-.287 2.198-1.207 1.77-.344 11.578 3.34M283.252 465.076l-1.054-.101-3.373-1.077-4.732-1.236-12.409-3.505-12.302-3.419-24.475-7.062M298.775 332.033l-1.393-1.248-1.924-1.062-1.808-.906M224.214 306.556l6.41 2.38 1.97.584 1.475.252 1.562-.03 2.05-.401 1.45-.4 1.844-.429 1.844-.045 1.886.344 1.672.585 20.924 10.661 5.1 2.65 1.422.402 9.553 2.035 2.917.804 2.047.752 5.31 2.117" clip-path="url(#p8f77441424)" style="fill:none;stroke:#000"/><path d="m299.455 330.674-1.244-.265-1.641-.654-2.92-.938M173.325 448.258l-1.312.72-1.112 1.021-.598 1.289-.322 1.634.397 3.42-.458 1.694-.916.978M176.163 470.032l-3.19-5.244-2.076-3.11-1.893-2.664M177.729 448.161l-1.307-.34-1.655.082-1.442.355M174.812 445.048v.589l-.32.933-.458.848-.71.84M200.099 297.604l24.115 8.952M208.701 357.39l-.585-1.144-.45-1.695-.36-2.118-1.395-11.82v-.593l.045-.974-.495-.678-5.362-40.764" clip-path="url(#p8f77441424)" style="fill:none;stroke:#000"/><path d="m160.263 276.845.958 1.29 2.226 2.777 1.959 2.252 2.565 1.95 4.23 2.245 6.406 2.266 21.492 7.979M300.99 335.073l-.656-1.463-.232-1.14.1-.609M298.775 332.033l1.029 1.25 1.185 1.79M298.775 332.033l.398.078.531-.11.497-.14M299.455 330.674l-.331.266-.316.453-.033.64M300.201 331.861l.482-.515.862-.272 1.194-.134" clip-path="url(#p8f77441424)" style="fill:none;stroke:#000"/><path d="m312.544 331.875-.91-.316-.873-.184-1.17-.131-1.88-.2-2.36-.096-2.612-.008M302.74 330.94l-1.576-.203-1.709-.063M339.282 356.416l-.361-3.65M339.282 356.416l-3.614 1.699M340.236 364.53l-.127-.992-.827-7.122" clip-path="url(#p8f77441424)" style="fill:none;stroke:#000"/><path d="m342.673 350.644 1.667 3.009-5.058 2.763M348.942 373.698l2.702-2.475M348.942 373.698l-2.715 2.455M348.942 373.698l3.734 3.676M348.942 373.698l-5.842-5.813M352.676 377.374l-3.5 3.278M352.676 377.374l.925.916M352.676 377.374l2.831-2.439M342.673 350.644l-3.752 2.122M342.673 350.644l-.656-1.055M337.372 348.955l.874 1.313.281.64.394 1.858M326.498 359.414l.956-.669 11.467-5.979M326.498 359.414l-1.666 2.057M333.848 359.13l-5.683-.102-.82.103-.847.283M324.832 361.471l-2.505 3.568M324.832 361.471l1.891.317M321.924 365.82l.35-.471M321.924 365.82l-.21 2.452M323.974 356.878l-3.33 2.994-3.253 5.521-.097.452.243.205.491.18.847.18.602.051 1.611-.36.836-.281M334.54 345.352l.711.86 1.028 1.264 1.093 1.479M323.974 356.878l2.278-1.81 11.12-6.113M333.848 359.13l1.82-1.015M335.913 360.258l-.614-.468-1.45-.66M335.668 358.115l.245 2.143M335.913 360.258l-3.583 2.39M335.392 369.165l.72-3.864.133-.905.033-.718-.365-3.42M335.392 369.165l-.724.668M335.392 369.165l2.106-1.772M332.33 362.647l-2.521-.062M331.533 367.144l.714-2.155.2-.734-.067-.999-.05-.609M326.723 361.788l1.61.375.149.297 1.327.125M327.852 367.406l1.015-.731.574-.643.273-.746.192-1.028-.027-1.03-.07-.643M326.723 361.788l.448 2.28M331.978 372.228l2.69-2.395M331.978 372.228l2.758 2.85M331.978 372.228l-.943-.837M331.533 367.144l-2.404 2.513M331.533 367.144l3.135 2.69M329.129 369.657l1.906 1.734M327.852 367.406l.198.972.15.42.332.329.597.53M327.171 364.068l.681 3.338M327.171 364.068l-4.844.971M340.535 381.229l2.892-2.6M340.535 381.229l-2.437 2.395M340.535 381.229l-5.799-6.151M322.327 365.04l-.053.309M343.1 367.885l.971.014M340.236 364.53l.046.612 2.818 2.743M357.832 366.778l7.128-1.62M357.832 366.778l-3.838 1.316M357.832 366.778l3.141 3.161M357.832 366.778l-2.91 2.34M365.514 365.867l-.14-.527M365.514 365.867l-4.54 4.072M366.329 366.886l-.139-.493-.393-.412-.283-.114M374.496 356.465l2.21-1.85M374.496 356.465l3.169-.894M374.496 356.465l-2.432-2.366M374.496 356.465l-.993.694M391.388 352.287l-.007-1.43M391.388 352.287l-1.087.086M408.442 355.913l-1.124-.626-.897-.342-.898-.198-1.911-.42-2.48-.495-3.57-.976-1.58-.313-1.945-.2-2.65-.056M389.796 343.656l-8.187 6.854M389.796 343.656l.93 4.09M381.864 345.43l6.402-5.194 1.53 3.42M378.977 347.771l2.632 2.74M378.977 347.771l2.887-2.341M377.638 349.803l.437-.926.902-1.106M381.609 350.51l-1.748 1.464M381.609 350.51l2.46 2.68M384.511 353.67l-.442-.48M384.511 353.67l5.79-1.297M383.207 354.007l.77-.217.534-.12M383.207 354.007l.862-.818M383.207 354.007l-.722.204M384.07 353.19l6.655-5.444M390.725 347.746l.656 3.112M377.638 349.803l2.223 2.17M374.703 352.694l.066-.036.902-.463 1.967-2.392M372.064 354.099l2.64-1.405M370.757 359.08l-1.616-2.332 1.147-1.698 1.776-.951M390.3 352.373l1.081-1.515M381.864 345.43l-2.095-1.98M379.86 351.974l-3.154 2.64M469.4 374.085l-7.636 1.694-5.247 3.318-2.513 1.286-1.858.154-9.972-.36-1.558-.411-1.202-.823-.82-1.723-1.12-1.595-1.147-1.363-1.449-1.183-13.224-7.562-5.601-3.806-7.61-5.798" clip-path="url(#p8f77441424)" style="fill:none;stroke:#000"/><path d="m466.498 354.49-.662.171-1.898.588-3.46.86-2.959.584-1.065.182-.97-.007-1.045-.236-4.61-1.667-.814-.5-.54-.63-1.036-1.803-.853-1.224-.7-.879-.959-.881-1.013-.757-.906-.514-.935-.205-1.118-.005-1.262.2-5.346.502-5.346.561-5.224.568-2.505.313-2.506.17-1.206.087-.865.31-.713.409-.788.579-2.65 2.188-1.76 1.33-1.045.564-.747.351-.55.214M522.474 369.71l-15.738 1.929-6.721.823-10.164 1.105-6.858.695-10.246.437-3.348-.614M466.498 354.49l.357.493.203.465-.051.584-1.84 3.984-.173.784.084.658.633.571.534.71.275.705.305.748 1.649 2.96.412.99.305.898.168.855.052.633.112.504.073 1.008.114 1.095-.076.582-.235.368M537.23 368.012l-1.547.199-3.64.412-4.957.55-4.612.537M494.843 334.493l.536-.449.65-.727.416-.45.614-.22.68.064.632.365.743.541.58.291.718.033 1.323-.14.759.034.76.22.699.435.64.613.69.594.664.383 1.306.684 1.014.313.806.421 1.06.513.85.314.896.17.79.066.484.18.361.404.131.594-.067.636-.431 1.7-.157 1.212.165.9.394.785.596.921.78 1.037 1.135 1.062.631.76.429.825.345.883.275 1.424.244 1.214.32.87.414.804.473.818.472.919.472 1.162.427 1.358.38 1.415.308 1.3.581 3.983.643 3.983M589.78 354.586l-.381.022-1.023-.216-.961-.409-1.58-1.085-1.202-1.02-.634-.453-.996-.589-.747-.226-1.325-.41-1.755-.46-.599-.18-.93-.21-.795-.133-.557-.04-1.385-.014-2.316.071-1.382.104-1.182.26-.653.175-.714.227-.832.434-.599.474-.812.708-1.206 1.095-1.61 1.649-.847.787-.931.995-.737.84-.622.69-1.015.887-.592.377-.717.37-.836.507-1.133.71M548.411 365.752l.572-.293 1.616-1.088 1.332-.923 1.163-.787 1.89-1.318.793-.535.397-.284" clip-path="url(#p8f77441424)" style="fill:none;stroke:#000"/><path d="m548.411 365.752.047-1.029.092-.489.168-.362.324-.532.42-.636.466-.578.408-.487.412-.559.206-.427.294-.542.34-.578.21-.424.163-.395.134-.334.13-.315.18-.27.058-.078.09-.065.045-.014.063-.004.083.018.056.02.05.027.203.14.908.889.347.284.21.115.248.072.294-.033.275-.014.18.043.216.104.18.144.145.197.087.237.05.32-.019.327M494.843 334.493l-.495.5-.434.47-.381.625-.61.56-.912.662-.757.604-.711.647-.63.654-.691.54-1.288.75-.699.485-.654.714-.605.568-.826.56-.84.518-.92.574-1.252.766-.84.55-1.986 1.674-.683.42-.867.364-1.091.383-.688.39-.523.533-.461.59-.648.462-1.144.521-.792.238-1.81.233-.802.219-.628.38-.478.514-.477.657-.68.883-.566.503-.476.286M463.75 285.884l-.137.41-.008.337.168.948 2.29 12.156 3.327 2.99 2.015 7.04-.092 2.385-2.137 4.57-.672 4.97 1.893 4.282 1.893 1.926 2.228 1.15 4.58 1.292 4.99 1.695.775.047.76-.183 1.09.093.997-.112 1.011-.3.985-.227.993.037.891.268.907.442 1.049.824.827.979.47.59M337.225 384.278l-1.974 1.833M337.225 384.278l.074.3.201.263.266.168.364.157M337.225 384.278l.873-.654M330.143 391.438l.614-.097M323.244 405.703l-.203-.429-.704-2.322-.154-.804.182-.977.611-.917 6.23-7.697.937-1.12M332.567 388.485l-2.08 1.807-.274.469-.07.677M330.757 391.341l.432-.336 2.163-1.674M323.244 405.703l.846-1.03 2.781-2.432 1.152-.793.87-.582.394-.423.309-.688 1.16-8.414M338.957 384.677l7.868-.8.969-.335M338.957 384.677l-.021-.232-.2-.276-.137-.18-.5-.365M338.957 384.677l-.827.49M347.794 383.542l2.269-2.052M347.794 383.542l-.111.513M328.127 416.034l8.146 16.606M323.721 406.727l1.745 3.476 2.661 5.83M335.13 420.035l-.393-.767-.59-1.057-1.012-.873-1.124-.687-2.05-1.454-1.834.837M331.5 457.067l1.792-1.005 1.205-.876.806-.905.642-.998.332-1.16.12-1.33.272-6.918.533-5.643.106-1.907-.125-1.106-.248-1.193-.662-1.386M339.99 430.506l-.675.82-.842.449-1.686.581-.514.284M321.421 377.57l-2.619 2.506M321.421 377.57l5.071 4.99M323.086 374.053l-2.745 2.414 1.08 1.102M318.802 380.076l2.262 2.483M314.85 390.574l3.42-9.7.532-.798M334.736 375.078l-2.803 2.53M321.064 382.56l2.475 2.49M323.54 385.05l-3.61 3.392-.705.231-.19-.132-.127-.186.308-3.16.72-1.399 1.128-1.237M323.54 385.05l1.35-1.105M333.352 389.331l4.778-4.165M333.352 389.331l-.785-.846M332.567 388.485l-6.075-5.925M332.567 388.485l2.684-2.374M326.492 382.56l-1.602 1.385M326.492 382.56l2.787-2.535M335.25 386.111l-5.971-6.086M329.279 380.025l2.654-2.416M329.279 380.025l-6.193-5.972M323.086 374.053l2.91-2.612M325.996 371.441l2.22 2.352M322.274 365.349l1.09 4.818.298.693.344.28.725.086h.726l.54.215M331.933 377.609l-3.717-3.816M331.933 377.609l6.165 6.015M331.035 371.391l-2.819 2.402M349.176 380.652l-2.253 2.065-.29.206-7.597.72-.938-.02M354.376 368.552l-2.732 2.67M354.376 368.552l-.382-.458M354.376 368.552l.545.566M343.427 378.63l2.056-1.851M343.427 378.63l-8.76-8.797M346.227 376.153l-.744.626M346.227 376.153l-8.73-8.76M340.236 364.53l-.431.677-2.307 2.186M351.644 371.223l3.863 3.712M355.507 374.935l.828.883M355.507 374.935l2.636-2.477M358.143 372.458l-3.222-3.34M360.973 369.94l-.308.3-2.522 2.218M344.071 367.899l9.3.367.623-.172M356.335 375.818l3.658-3.308M356.335 375.818l-.895.81M360.973 369.94l.869.898M361.842 370.838l2.56-2.316M361.842 370.838l-1.85 1.672M364.402 368.522l1.927-1.636M368.489 372.558l-.514.078-.481-.063-.515-.25-2.577-3.8M368.489 372.558l1.581 3.386M366.329 366.886l1.082 1.846 1.244 2.077.315.937-.15.515-.331.297M364.96 365.158l.414.182M370.757 359.08l-.086.06-5.71 6.018M365.374 365.34l3.783-1.88M372.573 361.722l2.255-1.312M372.573 361.722l-3.416 1.738M372.573 361.722l4.18 5.511M374.828 360.41l4.116 5.523M380.137 362.221l-4.114-1.951-.448-.078-.747.218M380.137 362.221l2.355 1.5M380.137 362.221l.812-1.374M382.492 363.72l-2.113 1.319M382.772 368.789l.699-3.117.033-.515-.216-.5-.796-.937M378.162 366.422l.782-.489M378.162 366.422l-1.41.811M382.772 368.789l-.794 3.55-3.816-5.917M372.64 369.279l4.112-2.046M372.64 369.279l1.724 3.03M372.64 369.279l-3.483-5.819M378.944 365.933l1.435-.894M380.379 365.039l2.393 3.75M370.757 359.08l2.746-1.92M373.503 357.16l6.899 3.375M380.402 360.535l.547.312M380.402 360.535l1.086-1.437" clip-path="url(#p8f77441424)" style="fill:none;stroke:#000"/><path d="m385.279 372.98-.083-1.437-.033-.281 1.675-4.45.182-.875.1-.671-.017-.578-.232-.5-.431-.436-5.49-2.905M385.279 372.98l.77 2.512M386.92 371.324l-.215.937-.215 1.03-1.211-.311M386.92 371.324l1.079-2.576M386.92 371.324l2.679.552M387.999 368.748l2.914.597" clip-path="url(#p8f77441424)" style="fill:none;stroke:#000"/><path d="m386.374 361.55 1.509.921.48.484.266.828.249 1.202v1.14l-.232.999-.647 1.624M386.374 361.55l-2.436-1.222M386.374 361.55l1.397-2.493M378.162 357.428l3.326 1.67M381.488 359.098l2.45 1.23M382.485 354.21l.339 1.063-.116.89-.465 1.655-.755 1.28M382.485 354.21l-4.82 1.36M383.938 360.328l1.183-2.402M389.301 386.01l1.42 1.775M389.301 386.01l-.19-.185M395.341 375.257l2.321 2.087-8.36 8.667M389.599 371.876l-3.55 3.616M392.98 373.133l-.81-.728-2.571-.529M385.613 380.764l.273-1.492.11-1.594.054-2.186M392.98 373.133l2.361 2.124M392.98 373.133l-7.367 7.631M385.613 380.764l-.355 1.003M395.341 375.257l-8.28 8.568M387.06 383.825l2.05 2M385.258 381.767l.163.463.274.437 1.366 1.158M385.258 381.767l-2.29-.306M392.256 406.832l.261-4.599-.527-1.135-.039-.788 1.968-4.064 1.01-2.803-.027-.848-.3-.772-1.038-1.466-2.842-2.572M369.735 386.878l2.518 3.646 1.465.563.977-.057 1.068-.546 1.1-.201 2.258.574 2.779.345 4.182.66 1.434.518.825-.258 1.404-1.179.61-1.206.367-1.952M355.44 376.627l6.277 6.096M355.44 376.627l-1.839 1.663M367.754 388.64l-6.037-5.917M367.754 388.64l-2.777 2.418M367.754 388.64l1.981-1.762M363.893 378.546l.81 1.398M364.702 379.944l5.033 6.934M364.702 379.944l-2.985 2.78M364.702 379.944l2.758-1.63M361.717 382.723l-2.756 2.396M350.702 392.65l2.815-2.523M350.702 392.65l-5.095-5.203M350.702 392.65l3.67 3.617M357.933 397.563l1.524-1.517M354.371 396.267l.757.632.655.316 2.15.348M356.368 401.882l.4-.631.911-2.208.315-.923-.061-.557M362.277 393.6l-2.82 2.446M362.277 393.6l2.7-2.542M362.277 393.6l-5.982-5.98M356.295 387.62l-2.778 2.507M356.295 387.62l2.666-2.5M356.295 387.62l-6.232-6.13M350.063 381.49l2.633-2.381M350.063 381.49l-.887-.838M364.977 391.058l-6.016-5.939M358.961 385.12l-6.265-6.011M352.696 379.109l.905-.819M359.457 396.046l-5.94-5.919M353.517 390.127l-5.834-6.072M345.607 387.447l-.687-.865 2.763-2.527M340.979 387.844l.34-.175.927-.116 2.909-.087.452-.019M340.979 387.844l.657.82M340.979 387.844l-1.29-.513M312.544 331.875l2.257 1.051M316.026 339.098l-7.186.27-.449-.293-.06-.315 4.213-6.885M316.026 339.098l3.82-3.648M321.076 342.392l-.652-.958-.966-1.08-.81-.64-.73-.368-.83-.162-1.062-.086M321.076 342.392l5.092-2.842M322.157 346.289l-.194-.874-.626-2.089-.26-.934M326.168 339.55l-5.945-3.94-.378-.16M314.801 332.926l1.773.872 3.271 1.652M314.801 332.926l.66-2.722M315.46 330.204l.02-.332M321.061 331.155l-1.826-.647-2.587-.645-.473.013-.715.328M314.445 314.984l-.087.14-.93 1.164.068.259.271.222.301.252.214.373.074.402.195 2.73-.004.685-.095.657-.13.451-.351.56-.336.627-.182.621-.129.68.007.639.16.71.257.809.296.728.507.867.782 1.016.147.296M319.053 328.256l-.773-.061-.63.278-.672.336-.99.643-.508.42M330.555 342.442l-2.006-1.34-2.38-1.552M322.157 346.289l8.398-3.847M322.84 351.352l-.433-3.382-.25-1.681M334.54 345.352l-1.975-1.45-2.01-1.46M322.84 351.352l11.7-6M323.974 356.878l-.682-.895-.107-.19-.052-.222-.293-4.219M324.89 383.945l4.315 3.986M323.244 405.703l.477 1.024M323.244 405.703l5.537-2.616M290.349 408.04l.122-3.017.152-.61.398-.363.64-.162 3.969-.265 2.473-.134 2.747-.19 3.236-.172 2.198-.087.977.03.916.172.946.287.825.144.64-.115.855-.259 1.19-.374.764-.115 2.595.173.64.086.606.264 1.199.892.659.507.692.448.554.36.586.923.524.576.515.15 1.754-.462M339.99 430.506l-.31-.82-.59-.846-.674-.793-1.994-1.798-.899-.873-.253-.529-.196-.846-.028-1.295.14-1.825-.056-.846" clip-path="url(#p8f77441424)" style="fill:none;stroke:#000"/><path d="m356.368 401.882-1.56 2.467-.876.99-.63.362-1.086.494-.91.198-.701.033-.7-.429-1.506-.988-2.381-1.286-.665-.23-1.016-.198-.805.033-1.05.395-1.016.56-.56.594-.456.79-.28 1.253.07 2.077.595 2.34.42.66 1.121 1.746.49.857.106.89-.07.758-.91 2.835-.351.593-.49.396-.56.263-.666.132-1.26.066h-2.032l-.91-.165-.593-.333M350.608 428.644l-.534.01-1.067.212-4.13 1.005-1.517.185-3.37.45M350.608 428.644l.73-.016 1.377.265 3.426-.45M373.975 424.12l-.452-2.518-1.055-2.625-.076-1.1-.037-1.17-.151-.922-.34-.604-1.846-1.95-1.432-1.739-.792-1.135-.942-1.632-.603-.496-.98-.497-.98-.107-1.168-.78-2.073-1.42-2.864-1.88-1.281-1.028-.535-.635M392.256 406.832l-3.395 1.325-3.278 1.987-1.809 1.17-1.244 1.171-.753.851-1.546 2.306-1.168 1.561-1.018 1.03-.904 1.595-1.507 2.803-1.659 1.49" clip-path="url(#p8f77441424)" style="fill:none;stroke:#000"/><path d="m350.608 428.644 1.358.691.942.674.98.887 1.13.674.678.249.83-.036 2.45-.603 6.859-2.342 4.409-1.95 1.696-.888 2.035-1.88M400.23 461.247l1.588-2.607 1.733-3.003.55-.833.686-.668.916-.56 1.599-.636 1.22-.323 1.348-.406 1.32-.474 3.724-1.509.474-.316.305-.417.076-.495-.053-.804-.214-1.157-.29-.862-.626-1.157-.908-2.06-.527-1.43-.404-1.193-.504-1.013-.557-1.099-.748-1.638-.435-.89-.427-.647-.588-.776-.664-.639-1.671-1.588-.725-.71-.557-.418-.58-.567-.512-.682-.358-.647-1.29-2.19-.55-1.337-.64-1.508-.825-1.502-.557-.818-.626-.661-.9-.79-.763-.64-.428-.467-1.587-2.284-.924-1.653-.313-.725-.175-.733-.13-.99-.358-2.838-.123-.704-.13-.431-.236-.367-1.61-1.553M354.371 396.267l-.17 1.575-.15.766.075.589-.037.46-.288.436-.438.518-.75.636M337.687 394.296l-1.71-.895-.188-.246-.029-.19.218-.601.696-1.433 1.436-1.816M342.414 389.405l-.778-.74M337.687 394.296l2.05 1.254 1.713-2.824.964-3.32M345.721 391.63l-1.522-1.54-1.035-.272-.75-.413M337.687 394.296l3.949-5.632M374.703 352.694l2.003 1.92M376.706 354.615l.959.956M331.5 457.067l-3.34 1.467-2.373 1.514-1.66 1.149-1.175.617-1.465.432-1.756.33-3.525.424-1.23.036-.694-.058-.694-.237-1.977-1.156-1.404-.61-1.809-.496-.885-.094-.802.05-1.022.295-2.106.941-1.481.603-1.77.503-7.083 1.164-7.189.905-1.725.216-1.083.014M274.399 487.142l1.175-.431 2.564-1.035 1.618-.919 1.863-1.407 3.052-2.831 5.373-5.1.656-.862.305-.747.199-1.15.305-3.202-.053-.46-.321-.31-.572-.28-2.93-1.213-3-1.164-.374-.201-1.007-.754M208.774 517.698l-.455-.209M220 470.108l-.656 2.294-1.313 5.374-4.923 21.254-2.633 11.557-1.701 7.11M220.824 592.318l-3.831-10.216-6.09-16.454-5.297-13.834-1.006-3.198-.948-3.912-.206-1.997.092-2.047.328-1.982 1.038-4.245 3.87-16.735" clip-path="url(#p8f77441424)" style="fill:none;stroke:#000"/><path d="m219.954 530.281.473-3.174-.076-1.078-.382-1.048-.61-1.035-.916-.718-1.557-.89-6.167-3.685-1.945-.955M159.144 485.044l.733-1.91.488-.876.779-.82.71-.983.762-1.725.07-.438.03-.423.092-.287.271-.31 1.636-1.177 2.03-1.265 2.9-1.58 2.488-1.307 2.58-1.135 1.45-.776M208.319 517.49l-.568-.734-.49-1.046-1.125-2.325L186.16 484.9l-6.898-10.415-3.099-4.454M224.214 306.556l11.413-17.018M344.071 367.899l-3.188-3.394-.647.025M345.885 462.92l1.992.425 1.854.46.817.272.779.481.927.855.538.755 1.435 3.325M377.74 537.823l.1-.654-.039-.97-.29-1.565-.252-1.358-.084-.97-.182-2.894.076-.962.175-1.617.06-.948-.083-.819-.305-.89-.84-1.803-.16-.747-.03-.74.022-1.573.039-5.063-.245-3.786-.107-.89-.274-.697-.878-1.594-.244-.446-.122-.517.023-.568.152-1.53-.053-.682-.175-.538-.398-.633-1.19-1.616-.298-.517-.152-.51-.68-2.858-.61-1.566-.717-1.114-.642-.553-1.343-.912-1.572-.999-.687-.294-.747-.144-.74-.064-.397-.216-.222-.424-.176-.653-.022-1.94-.122-2.787-.16-.466-.237-.216-.504-.208-1.374-.216-.412-.266-.328-.43-.122-.468-.084-.574-.084-1.573-.115-1.07-.221-.855-.404-1.049-.9-2.5-.276-.639-.381-.546-1.817-2.183-.732-.948-.931-1.502M356.807 455.666l5.555 9.087.046.237-.114.2-3.961 2.142-4.106 2.161M331.5 457.067l-.542.69.809.107.732.28 2.458.984 1.068.683 1.091.919 1.573 1.322.602.337.542.151.68.065 2.633.122 2.74.194" clip-path="url(#p8f77441424)" style="fill:none;stroke:#000"/><path d="m351.243 454.56.656 1.501.282.89.092.74-.107.712-.29.603-.595.532-1.366.732-2.404 1.164-.84.56-.48.503-.306.424M220.824 592.318l-15.607 2.101M203.256 614.45l-.641-1.063-.153-.61.03-.697.245-2.823.45-6.815.115-1.43.297-2.04.374-1.572.535-1.623.327-.776.382-.582M167.097 592.796l1.777-.258h.802l.763.158 1.137.48.916.439.572.15.924.072 3.572-.136 2.495-.402 2.03-.575 2.427-.905.763-.158.824-.014 1.07.115 4.975.948 4.075 1.02 4.32 1.12 1.068.13 1.145-.101 2.465-.46M321.646 370.27l-2.464.257M321.646 370.27l.069-1.998M321.646 370.27l-.022.66M321.715 368.272l-3.922.33M349.176 380.652l-3.693-3.873M359.993 372.51l1.606 1.911-1.679 1.207M372.81 377.004l-3.8 3.475M372.81 377.004l2.39 1.307M370.07 375.944l.931.072 1.808.988M369.01 380.479l1.563 2.18M369.01 380.479l-1.55-2.164M375.2 378.311l-4.627 4.349M375.2 378.311l2.319 1.268M370.573 382.66l1.344 1.876M379.796 384.337l-.522 3.834M379.796 384.337l5.614 5.773M379.796 384.337l1.828-1.658M379.796 384.337l-3.188 2.89M381.624 382.68l7.068 6.554M381.624 382.68l1.344-1.22M389.11 385.825l-.418 3.409M385.41 390.11l1.099.446.671.057.947-.388.565-.991M379.274 388.17l.916.891.732.273 4.488.776M379.274 388.17l-2.666-.943M373.154 386.791l.442.848.351.36.626.143.763-.058.565-.215.707-.642M379.915 380.556l-6.761 6.235M379.915 380.556l3.053.905M379.915 380.556l-2.396-.977M377.519 379.579l-5.602 4.957M373.154 386.791l-1.237-2.255M367.46 378.315l2.61-2.371M620.708 340.66l-.462.507-2.098 1.86-.31.228M589.78 354.586l.382-.021 1.313-.467.877-.251 1.077-.173.583-.05.836-.13.542-.233 1.912-.876.717-.342.912-.474.756-.413.366-.266.637-.56.546-.496.515-.424.42-.204.576-.202.568-.096.435-.036.718-.015 1.091.032 1.427.115 1.095-.028.733-.144 1.11-.395.912-.467.947-.467 1.114-.46 1.565-.94 1.678-1.488.573-.517.595-.453.53-.39M548.411 365.752l-.548.28-.257.115-.436.149-6.431 1.117-3.373.582-.135.017M614.79 409.915l-1.122-1.224-.223-.202-.243-.095-.261-.02-.407.03-.339.085-.366.202-.626.305-.357.084-.399.103-.406-.045-.336-.097-.233-.18-.353-.397-.403-.657-.22-.243-.168-.134-.306-.11-.198-.032-.287-.038-.133.02-.114.061-.296.26-.328.247-.311.115-.208.017-.23-.002-.343-.102-.238-.08-.788-.058-.199-.004-.438-.01-.489.043-.614-.014-.488-.073-.886-.197-1.66-.36-1.495-.287-.394-.057-.553-.054-.297-.061-.287-.09-.274-.104-.588-.398-.351-.144-.263-.054h-.321l-.439-.015-1.045-.107-2.199-.403-1.564-.359-.584-.093-.74-.007-.931.09-.733.018-.618-.073-.336-.125-.393-.345-.32-.344-.47-.823-.343-.546-.267-.273-.324-.194-.42-.173-.302-.1-.332-.054-.236-.014-.237-.026-.313-.14-.263-.14-.408-.15-.29-.061-.416-.069-.553-.032-.68-.09-1.423-.345-.855-.187-.797-.219-.603-.256-1.458-.473-1.244-.344-1.496-.49-.534-.243-.534-.46-.534-.575-1.298-1.063-1.572-1.307-.992-.568-1.06-.46-.65-.373-1.29-.934-1.324-.826-2.58-1.4-2.464-1.46-1.072-.606-.65-.478-.938-.808-1.213-1.092-1.927-1.365-.824-.653-.737-.608-1.19-1.06-.645-.646-1.107-1.084-1.56-1.624-1.302-1.555-1.183-1.283-.64-.682-.523-.553-.657-.797-.351-.543-.748-1.343-.77-1.487-1.22-2.954M591.692 357.485l.092-.365.007-.217-.107-.183-.27-.226-.611-.453-.42-.341-.359-.374-.106-.244-.138-.496M622.047 342.798l-1.339-2.137M627.373 327.535l-.35.226-.626.553-.396.56-1.305 2.292-1.435 3.208-.355.905-.298.826-1.217 3.33-.542 1.071-.14.155M627.373 327.535l-.525 1.052-.267.546-.107.61.092.935.198 1.142.03.898.016.546.023.374.083.262.142.18.278.104.904-.058.493-.01.27.028.268.137.408.38.454.5.466.772.046.12.042.225.08.506-.05.525.046.524.32.992.203.567.248.392.328.441.63.83.633 1.089.74 1.207.328.61.401.687.577 1.332.606 1.498.19.395.42.726.882 1.22M632.479 324.753l-3.19 1.765-1.556.783-.36.234M631.213 317.466l.92 1.117.366.45.504.546.71.71.118.194v.209l-.058.276-.27.662-.527 1.08-.37.784-.103.406-.034.323.01.53M438.92 283.8l1.347.217 2.564.173 6.167-.029 5.8.086 8.952 1.637" clip-path="url(#p8f77441424)" style="fill:none;stroke:#000"/><path d="m529.424 142.84-1.865 1.836-.351.575-.489 1.56-.252 2.09-.19.805-.672 1.703-.152.913-.458 5.094.122 4.584.35 1.222.764 1.682 2.549 4.052.779 1.28 2.441 5.618.993 3.42.198.862-.03.892-.26.876-.717.92-.886.589-1.648.783-.244.287-.069.381.122.403.245.41.374.869.137 1.279-.275 1.365-.687 1.904-.275.683-.397 1.336-1.755 3.046-.183 1.474.03.581.481 1.89.1 1.013.06 3.485-.19 2.055-.45 3.198-.58 1.983-.32 2.155-.55 1.322-1.985 3.478-.29.934-.076 1.135.29 2.816.26 1.581-.245 1.236-1.755 3.046-.427 1.207-.87 4.268-.008 1.473.206 1.078.343 1.042.9 1.94.344.998-.034 1.624-.172.427-.32.482-.588.675-1.19.887-.832.109-.577-.245-.95-.586-2.068-2.05-1.602-1.136-2.168-1.15-1.427-.596-1.9-.416-1.603-.022-2.053.28-1.274.338-1.054.768-.908 1.258-.603 1.1-.39 1.343-.495 4.476-1.358 5.604-.687 1.48-.916 1.207-1.71 1.696-1.13 1.595-.58 1.264-.411 1.523-1.924 3.837-4.22 11.847-.649.862-1.38 1.157-1.367.977-1.251.647-3.038.87-3.182.631-2.916.353-7.586.646-1.19.208-.458.367M124.465 204.911l.077 1.394.29 1.48.733 1.595 1.297 2.76.61 1.81.107 1.293-.03 1.179-.153 2.27-.732 2.198-1.924 2.946-1.602 1.897-1.511 1.064-2.046.963-2.137.84-1.648.956-.931 1.006-.565 1.12-.19.941.076 1.057.725 3.916.121 1.005-.091.92-.298.927-1.119 1.43M135.244 255.296l-.858-3.123-1.773-2.897-1.798-1.347-3.397-.97-5.47-1.02-3.35-.654L116 243.87l-1.617-1.312-.859-.678M532.397 125.39l-.755-.237-.52-.166-.915-.402-1.328-.704-2.854-1.62-1.05-.565-1.457-.64-1.072-.545-1.792-.956-.338-.13-2.644-.85-.912-.356-.656-.414-.634-.456-2.583-2.023-1.32-1.132-.53-.704-.26-.406-.146-.334M124.465 204.911l1.039-4.958" clip-path="url(#p8f77441424)" style="fill:none;stroke:#000"/><path d="m208.514 197.746-.244-.69-1.337-3.844-.82.765-.85.968-.97 1.186-1.308.928-1.124.525-1.64.534-6.268 2.044-10.036 3.456-1.267.301-1.373-.071-1.771-.101-1.649.316-2.358 1.049-1.015.187-.748-.374-.687-.819-.84-.819-1.16-.344-1.503.093-7.212 1.444-1.603.302-1.382.017-1.413-.184-4.718-.139-2.138-.062-1.863.025-3.054-.067-4.892-.323-1.42.158-4.548 1.178-2.076.402-1.914-.004-2.097-.235-2.972-.583-1-.133-.779.08M133.334 178.369l-1.008.489-.725.618-.946.898-.786 1.573-.443 1.71-1.892 7.63-2.03 8.666" clip-path="url(#p8f77441424)" style="fill:none;stroke:#000"/><path d="m109.141 193.946 4.274 2.156 1.373.431 6.38 1.38 4.336 2.04M529.424 142.84l.386-1.577.61-2.335.901-2.393.672-1.602.213-.87.115-1.078.008-1.451.122-1.624.244-1.819-.046-1.415-.183-.798-.069-.488" clip-path="url(#p8f77441424)" style="fill:none;stroke:#000"/><path d="m547.814 128.918-1.878-.388-1.984-.467-1.55-.51-1.71-.36-2.563-.452-2.633-.669-3.099-.682M547.814 128.918l-1.374 1.063-1.633 1.121-2.58 1.725-4.19 3.248-4.556 3.6-1.42 1.114-1.846 1.322-.791.728M207.667 517.367l-.992-.13-.58-.2-.748-.46-7.693-4.77-.626-.086-.595.072-.962.36-5.006 1.738-9.616 4.108-3.618 1.523-.35.287-.092.402.183.431 1.465 3.376.519 1.106.214.991-.015.704-.184.762M207.667 517.367l.652.122" clip-path="url(#p8f77441424)" style="fill:none;stroke:#000"/><path d="m159.419 565.331 1.679 1.013.298.295.175.416.038.532-.145.495-.587.912-.306.482-.13.38v.352l.138.237.175.13h.267l.306-.159 3.007-2.384 3.129-2.284 1.404-1.422.87-1.063 1.984-2.787.58-.574.687-.46 1.343-.474 2.275-.977 1.282-.344 1.862-.389.488-.215.565-.402.672-.862 2.976-3.993 3.022-4.74 7.113-10.66 6.075-8.331 4.9-7.298 2.106-3.39M145.102 588.487l.671-.532.42-.395.763-1.012.558-.948.686-1.207 1.252-1.724 1.297-1.882 1.175-1.335M118.825 578.945l-.45 2.733-.229 1.192M100.73 580.673l.978.423.717.173.786.007 1.244-.259.748-.244.946-.33.573-.015.786.159 1.496.589.923.129.764-.087.705-.29 1.316-1.103.81-.546.961-.258 1.16-.13h2.503l.679.054M128.026 580.92l-5.209-1.21-3.22-.704-.772-.06M128.026 580.92l-.206.636-.1.69-.186 1.651-.382 2.492-.229 1.746.046.754M145.102 588.487l-.458-.647-.283-.467-.183-.552-.183-1.81-.16-.539-.504-.783-.778-.797-.763-.46-1.397-.502-1.427-.36-1.48-.122-2.992-.157-4.152-.13-2.316-.24M148.796 595.152l-.884-.897-.627-.834-.183-.223-.749-1.02-.412-.725-.19-.704-.336-1.53-.313-.732M148.796 595.152l2.037-.575 3.389-.524 2.358-.18 1.206-.237 1.87-.589 2.167-.603.717-.093.893.043 2.236.36.733.064.695-.022" clip-path="url(#p8f77441424)" style="fill:none;stroke:#000"/><path d="m167.616 595.468-.398-.273-.183-.388-.091-.718.153-1.293M122.615 599.425l.256-.122 2.327-1.041 1.137-.288.71-.021.71.2.908.525 1.282 1.07.672.345.671.115 1.267-.043 1.817.115 1.175.043.9-.072 1.664-.46.81-.388.518-.603.794-1.738.564-1.034.565-.517 1.725-.69 1.343-.488.596-.15.496.007.442.215.84.524.74.273.519.072.733-.122M119.635 590.124l.724.898 1.374 1.149.443.496.237.596.053.59-.084 1.105-.19 1.013v.811l.179 1.932.103.43.14.28M377.076 538.865l.382-.503.282-.539M378.396 538.498l-.366-.244-.16-.18-.13-.25M475.663 576.644l.252-.338.572-.323 1.092-.302 1.77-.28 1.313.036 1.633.287 2.007.345 1.145.438 1.519.51.404.014.374-.079.947-.344 1.106-.704 1.465-1.113.672-.245.641.022.946.316 1.832.474h1.084l1.206-.316 1.083-.747.504-.776.183-.99-.122-3.118.061-1.236.244-.99.626-1.164 1.038-2.126.397-1.236.152-1.378v-2.557l.107-1.25.29-.761.351-.345.687-.223.733.008.602.165.764.272.618.094.565.014 1.618-.1.328.065.297.222.184.31 2.854 4.804M378.396 538.498l-1.32.367" clip-path="url(#p8f77441424)" style="fill:none;stroke:#000"/><path d="m475.663 576.644.03.265.26.201.435.014 1.938-.315.428.071.305.202.1.344-.16.338-1.634 1.17-1.176 1.38-.526.23-2.305.552-.381-.1-1.366-.733-.481-.021-1.465.136-.367-.144-1.389-1.02-.831-.46-.695-.236-2.58-.618-.389-.302-.633-.746-.573-.424-3.29-1.731-.984-.294-2.243-.331-3.51-.258-.451-.252-2.213-1.752-.45-.093-2.046-.08-.443-.222-.816-.704-.778-.402-.756-.13-.817.044-1.496.488-4.052.46-1.519-.008-1.656-.18-.412-.214-.954-.647-.366-.036-.42.122-2.808 1.394-.626.042-2.35-.272-.283-.173-1.275-1.45-.984-.582-.42-.086-.45.05-1.42.395-.519-.036-.504-.194-2.877-2.506-.121-.582.091-.352.313-.36 1.251-1.062.352-.805.35-2.334-.183-.388-.396-.395-1.168-.84-2.297-1.336-1.84-.467-2.785-1.674-.405-.847-.465-2.937-.229-.468-.313-.373-.542-.323-1.946-.66-.503-.288-1.054-.804-1.137-.704-1.786-.97-1.549-1.027-1.19-.654-3.885-1.968-6.685-4.597-.351-.474-1.58-2.52-.52-.36-1.29-.524-1.228-.079-.48.158-.565.366-1.405 1.265-.541.286-.687.238-2.855.567M220 470.108l38.449 15.683 1.19.144.977-.287 2.93-3.735.886-.46.915.057 9.052 5.632" clip-path="url(#p8f77441424)" style="fill:none;stroke:#000"/><path d="m269.056 493.42 2.29-3.204 2.259-2.5.794-.574M483.615 517.166l-.915 1.034v1.609l.427 2.93-2.32 2.242.732.92 1.16.343 1.404 1.035.49.919-2.32.632-.917 1.896-1.954.518-1.77 2.183-1.832 2.471-.61 3.62 1.099 2.24-.366 1.208-1.588 2.01-.793 2.126.488 2.874.06.977-2.686 1.206-1.343 3.447.55 2.356-.61 3.563-.123 1.78-.855 1.552.306 1.552.122 3.62-1.343 2.413.977 1.264 2.197 1.839 1.405.574 2.976.525M224.433 243.659l-.205.885-.52.904-5.25 4.254-7.845 5.144-.947.445-1.16-.1-1.13-.338-1.679-1.056-1.403-.79-1.687-.596-2.175-.568-1.786-.618-2.694-1.041-2.236-.783-1.175-.36-1.45.029-1.42.287-1.984.733-1.404.503-1.71.201h-2.32l-1.301-.032-1.545-.32-1.687-.64-2.946-.876-2.015-.2-2.213.114-1.878.46-2.9 1.15-4.277 1.8-3.911 1.339-2.2.622-2.26.508-2.26.555-1.408.362-1.36.532-1.182.187-2.068.043-2.976.029-1.704.048-1.245-.297-1.271-.595-.83-.44-1.572.153M138.413 262.75l-.27-.3-.705-.832-.56-.887-.53-1.145-.509-1.487-.595-2.803M405.01 276.511l-.912.026-.827.012-2.26.271-.937.32-.774.412-2.137 1.753-.977 1.005-.86 1.033-.697 1.094-1.068 2.184-.4.74.532 6.663-.157 1.217-.45.775-.722.593-1.556 1.196-1.293.81-1.275.512-1.403.469-.951.407-.79.612-.573.807-.62 1.17-.157.696-.024 1.08.203 1.413.308 2.297.132 1.333.053 3.15-.07 1.317-.228 1.037-.34 1.31-.77 3.141-.38 1.14-.51 1.161-.593 1.04-1.386 1.9-1.404 1.615-2.313 1.884-2.332 1.715-.995.517-1.121.281-1.186.115-3.66-.003-.889.012-.732.141-1.956.564-.956.19-1.016-.078-2.386-.7M349.512 326.493l.212.11 2.106.805 1.162.226 1.37.233 1.12.269 1.152.42 1.216.213 1.345.092" clip-path="url(#p8f77441424)" style="fill:none;stroke:#000"/><path d="m340.546 284.643-1.943 4.884-.93 3.003-.108 1.595.2 1.538.335 1.523.625 1.465.702 1.035.657.546.748.288 1.083.057.794-.086.733-.345.534-.633.443-1.034.534-.805 1.358-1.566 1.527-1.408 1.465-.977 1.557-.776 2.015-.388 2.075-.244 2.763.028 1.542.073 1.465-.044 1.42-.201 1.358-.158 1.404.086 1.542.244 3.816 1.064 1.083.301.855.474.55.777 1.007 2.112.382.89.488.877.58 1.006.626 1.538.183.718-.015.776-.565 2.672-.167.69-1.024 2.515-.366.876-.458.704-.595.489-3.907 2.126-.946.661-.947.819-2.29 2.428-.366.575-.885 2.156-.55 1.178-.702.89-.9.877-.733.876-.442 1.063-.23 1.165-.045 1.049-.29 1.034-.396 1.142M438.92 283.8l-.537-.313-.343-.389-.238-.548-.103-.699-.277-1.259-.236-1.1-.025-.856.056-.93.463-2.375.238-.678.397-.667 1.874-2.017.81-.713.76-.553.928-.534 1.507-.899.164-.346-.049-.418-.234-.573-1.86-2.908-1.275-2.427-.525-1.153-.363-1.077-.303-1.27-.135-.702-.265-.218M405.01 276.511l1.005-.223 3.79-1.102 1.394-.476 1.388-.3 1.728-.34 1.396-.32.697-.304.542-.408.423-.492.792-1.115.46-.733.46-.839 1.004-2.48.58-1.149.732-.977.672-.604 1.16-.631 1.069-.403 3.751-.741.851-.202.724-.375.596-.435 1.618-1.408.547-.447.643-.386.782-.19 1.828-.06.958-.103.996-.381.739-.426.542-.276.472-.007M430.266 245.935l1.923-1.15 1.557-.66 1.282-.317 1.313-.086 1.343.259 1.16.575.732.948.214 1.15-.122 3.19v1.868l.03 1.293-.03 1.235-.183 2.673-.136 1.265M405.01 276.511l1.158 1.156 2.717 1.896 1.252.345 20.3 3.046 8.482.846M320.387 305.684l.022-.606M349.512 326.493l-.612-.32-1.565-.65-1.082-.467-.922-.534-.923-.702-1.174-.912-1.38-.98-1.381-.918-1.026-.6-.916-.77-.587-.414-.668-.416-.906-.421-.904-.256-.758-.16-.71-.31-.6-.645-2.825-4.936-.427-.64-.652-.52-.828-.5-.668-.441-.883-.7-.45-.234-.386-.173-2.052-.608-1.794-.456-.855-.315-.702-.633-.489-1.178M314.445 314.984l.02-.306-.198-.294-.832-.708-.282-.75v-.891l.183-.647.336-.575 1.587-2.105.458-.553.473-.345 1.26-.79.553-.28.538-.18.725-.165.484-.197.637-.514M121.78 190.181l-9.068-3.362M117.475 177.248l-4.763 9.57M112.712 186.819l-3.571 7.127M138.413 262.75l.28.274.961.683 1.069.526 1.252.403 1.221.244 1.439.043 1.407-.187 1.534-.26 1.512-.027 1.312.21 1.233.402.924.458.832.53.827.696.807.853.64.939.443 1.004.505 1.148 1.01 2.05 1.194 2.05 1.218 1.746.23.31" clip-path="url(#p8f77441424)" style="fill:none;stroke:#000"/><path d="m143.171 393.111-.366-1.925-1.329-4.152-.747-2.543-.657-2.011-1.205-3.277-1.023-2.73-.779-2.5-.87-2.24-1.236-3.65-.779-3.09-.228-1.32-.199-1.466-.748-1.365-1.053-1.035-1.298-.847-1.571-.546-1.573-.23-.977-.014-1.022.23-2.336.818-1.282.245-1.374-.044-1.144-.388-1.038-.631-1.007-.92-.84-.991-1.404-1.495-1.404-1.652-.52-.92-.259-.833-.076-.891.29-.833 1.847-2.787.35-.82.138-.588-.076-.503-.717-1.566-.749-1.984-.076-.79.122-.833.336-.704.687-1.365 1.237-1.681.9-1.48.58-1.538.366-1.436.168-1.365-.168-2.356.107-1.322.305-1.437.443-1.293.687-1.25.93-1.25 1.298-1.236 2.519-1.753 2.06-1.638 1.16-1.164 1.038-1.322.886-1.638.412-.934.335-.862.199-.848.336-3.146v-.777l-.107-.718-.718-2.313-.442-1.954-.03-1.164.152-.949.519-1.005.595-.877 2.122-2.07.702-.717 1.42-1.825.686-.747.9-.676 1.222-.589 1.206-.359 1.068-.1 1.236.086.978.33 1.709 1.193 1.099.704 1.236.43 1.236.202 1.329-.072 1.312-.43 1.114-.69.9-.834.886-1.063.366-.517.138-.503-.015-1.366.091-1.135.32-1.063.611-.905 1.237-1.236 1.037-1.15.779-1.164 1.572-3.046.367-.546.653-.516M174.812 445.048v-.432l-.199-1.465-.457-1.379-.641-1.322-.626-.833-.763-.575-.9-.359-1.893-.646-.962-.604-.779-.876-1.053-1.652-.976-1.926-.352-1.12-.198-1.192-.137-2.17.137-1.868.122-1.508-.061-1.293-.107-1.408-.23-1.882-.06-1.092.015-.732-.06-.892-.306-.876-.61-1.451-.276-1.135-.152-1.106-.06-1.509.167-1.465.26-1.308.411-1.264.199-1.106v-1.063l-.275-1.279-.091-1.207.122-1.135.305-1.106-.015-.89-.184-.906-.442-1.235-.748-1.322-1.557-2.285-.885-.79-1.023-.56-1.267-.474-3.068-.776-.93-.058-4.748.475-4.533.531-.946.158-.809.431M142.545 396.832l.32-.517v-2.428l.306-.776M177.729 448.161l-.765-.456-.794-.704-.732-.876-.626-1.077M314.445 314.984l1.38.497.794.259.366.201.337.36.366.315.977.733 1.465 1.006 2.198 1.408.9.546.779.345.64.287.474.374.473.603.61 1.078.474.977.183.776.046.92.213.704.306.545.504.489.58.374.961.388.534.172.489.1 1.465-.115.886-.115h.793l1.19.101.718.144 1.374.474.595.158.61.043.687-.014.55.043 1.633.546.428.187.305.273.167.273.687 1.968M349.512 326.493l-.092.425.046.489.214.59.29.473.26.388.396 1.997.046.618-.26.848-1.037 2.126-.351.532-.367.503-.824 1.437v.373l.213.273.596.273 2.793.82.473.286.26.288.916 1.868.213.43.23.532.167.877.03.833.062.906.076 1.034M208.514 197.746l1.16 1.552 1.16.805 1.801 1.265 1.008.69 1.282.689 1.008.833.763 1.064.794.66 1.71 1.236 2.136 1.208 1.068.287 1.13-.144 1.007-.488 1.374-.69 2.473-.805 2.442-.89 3.968-1.725 1.801-.489 2.076.058 1.801.517 2.504 1.552 3.54 2.673.733.719.672 1.12.58 1.466.702 3.22.641 5.718.153 2.443-.153.92-.336.718-2.381 2.587-1.19 1.265-.978 1.063-1.922 1.983-.367.574-.092.604.367.69-.672.172-.977-.143-1.678-.201-2.046-.259-1.984.086-1.77.402-1.435.805-1.283 1.236-3.388 3.564-1.16 1.379-1.007 1.667-.802 1.322-.314.935M320.409 305.078l-.021-1.233-.336-2.241-.641-2.53-1.877-4.252-.71-.93-2.503-2.212-.305-.517-.474-.273-3.037-.79-1.343-.518-1.603-.258-1.725-.015-4.03-.373-2.823.287-2.244.618-1.541-.187-1.496-.56-.52-.388-.976-1.667-.458-.36-.564-.732-.275-.69-.168-.948-.03-.82.473-2.227.06-2.385.32-.76.764-1.467.183-.761-.015-.719-.35-1.983-.154-1.882-.335-.963-.657-.704-.854-.546-1.19-.474-1.146-.202-2.183.173-2.151-.403-2.626-.014-.855-.143-.702-.46-.656-.575-.992-1.207-.855-.647-.84-.373-2.136-.374-.779.158-.855.532-.778.172-1.648-.373-.825.1-2.167.518-.717.387-.687.547-1.68 1.752-.717.36-.732.187-.366.56-.23.862.138.891.717 1.638.244 1.12-.244.504-.457.374-.764.387-.702.676-.29.79-.06 1.207-.215.963-.671.575-.931.373-2.107.1-4.151-.416-.611-.301-.473-.59-.885-.89-1.054-.518-1.145-.287-.656-.345-.396-.59-.306-.847-.534-.704-3.556-2.155-.962.086-.947-.058-.961-.23-1.831-.617-1.634-.187-1.603.1-1.297.547-.854.23-.672-.188-.397-.517-.137-.862.03-1.768-.168-1.02-.427-1.049-.092-.732.183-.69 1.573-2.932.915-2.888 1.13-3.362.717-.848.077-.56-.168-.747-1.893-2.113-1.069-2.026-.763-1.049-.9-.963-.9-.589-1.741-.604-.809-.258-.748-.475-.855-1.522-.886-.56M209.736 212.806l-1.069-1.236-.305-.574.091-.518.52-.489.396-.66.244-.776.397-.633.703-.804.244-.633v-.69l-.275-.775-.55-1.208-.305-1.035-.305-1.379-.458-1.092-.336-1.293-.214-1.265M340.546 284.643l-2.41 2.014-3.816 3.45-4.58 4.568-3.693 4.024-2.717 3.046-2.921 3.333M430.266 245.935l-2.84 2.127-2.32 1.551-1.464.834-1.405.546-1.435.345h-1.25l-2.352-.144-.58-.201-.58-.747-.458-1.466-.122-1.609.122-1.523.367-1.667 1.068-2.414.214-.776-.092-.575" clip-path="url(#p8f77441424)" style="fill:none;stroke:#000"/><path d="m430.266 245.935-1.221-.949-.916-.632-1.069-.488-1.312-.46-2.534-1.006-1.16-.373-1.557-.403-1.557-.574-1.8-.834M340.546 284.643l.306-.256 1.496-1.35 3.908-4.225 2.045-2.04 1.19-1.294.977-1.868.794-1.896 2.045-6.38.55-1.38.58-.574.855-.345 3.144-.776 2.228-.546 1.924-.805 1.74-.891 2.625-1.61 9.769-6.265 1.862-.862 1.892-.43 1.893-.116 2.137.201 1.13.087.854-.26.58-.459.977-1.178.672-.489.763-.2h.854l4.976-.058.733-.115.703-.345 1.16-.805 2.228-1.322 1.678-.89 1.863-.805 4.182-1.639 1.19-.517.947-.46.946-.402 4.06-1.207.947-.115.732.115.458.345" clip-path="url(#p8f77441424)" style="fill:none;stroke:#000"/></g><g id="PatchCollection_1"><path d="m154.471 475.52-2.105-.884-2.194-.126-1.886.28-.894.395-1.955.284-2.94.487-1.33-.166-2.683-.658-1.857-.223-2.218.309-1.986 1.707-1.555.998-1.534.257-1.56.24-1.724.206-1.154.991-.324 1.368.237 1.074.395 1.001.137 1.457-.572 1.282-.942.855-1.864.622-3.435.727-1.38.451-1.46.849-2.105.732-1.027.638-1.272.32-1.847 1.165-1.293 1.076-.862.785-1.82 1.023-1.175.415-2.301.631-1.378.747-1.05 2.135-.484 1.991-.184 2.078-.216 2.193-.643 1.479-1.584 1.697-1.615 2.218-1.7 2.528-.297 1.004-.42.945-.675.903-.86.672-1.538.785-1.137 1.248-2.594 1.535-2.558.686-.71.87-.032.96.576 1.495 1.232.8 1.232.366 1.835-.737 2.28-1.789 1.852-2.023 2.15-2.442 1.928-3.14.12-1.257.491-.947.983-.484 1.855-1.285 1.235-.986.279-.927.863-1.13 1.81-3.519 1.445-1.145 1.816-1.088 2.966-.906 2.372-.28 2.816.14 1.292.65.864.915.876 1.385.277 1.004-.693 1.284-.9 1.077-.654.555-.674.285-1.29 1.502-.784 2.463-.471 3.256-.577 1.53-1.007 1.472-.88 1.369-.728 1.728.073 2.178.6 2.38.644 1.408.137 1.284-.231 1.197-.75 1.076-2.754 1.728-1.29 1.432-1.651 3.215-1.008 2.716-.297 2.94-.082 2.541-.254 1.988-.65 1.146-1.618.724-1.876.484-1.737 1.004-1.47.414-1.322.68-.835.989-.8.859-.91.384-.613.596.117 1.065-.023.904.51.375 1.645-.367 1.666-.613 1.666-.807 2.67-1.214 3.183-2.666 1.629-1.268.689-1.223.534-.595.12-.595-.059-1.426.356-2.5.062-1.644.753-1.775 1.153-.568 2.633-.602 1.942-1.22 1.555-1.639-.07-.63-.14-.805.838-.482.733-1.263.068-1.182.481-1.377 1.334-3.209.297-2.512.089-2.349.462-1.667.635-1.635.204-.773.759-.451.828-.323 1.174-1.104 1.439-1.434 1.408-1.98.786-2.307.26-4.529.397-2.186 1.172-2.145 1.724-1.917 1.347-2.044.674-.989.811-.372 1.781-.325 1.78-1.073 2.75-1.89 2.182-1.072.911-1.203 1.518-1.068 1.793-1.458 1.422-.575 1.228-.677.193-.548.813-.193.614-.617 1.305-.552 1.063-.314.993-.835.637-.673.62-1.505 1.224-1.584 1.56-2.292.28-.893-.09-1.24zM269.972 533.77l-2.87 3.332-2.503 2.299-3.053.747-4.03-1.322-3.296-.058-5.74 3.333-4.7 3.678 1.22 3.332 4.885 5.803 4.823 2.989 4.823.746 4.762-.631 2.809-2.529 3.053-3.562 6.41-2.758 2.87-2.356 3.175-2.47.183-1.782.061-2.873-1.099-2.47-1.465-1.725-3.664-1.55-3.113-.518zM98.708 606.842H97.64l-1.13.345-1.862.373-1.282.288-.702.086-.885.316-.733-.029-.733.115-.793-.23-1.435.374-.702.086-.886.029-.64.574.03.632-.275.46.122.546-.396.976-.306 1.236.702.632-.183 1.12.489.345.305.69-.03 1.09-.458.806-.917.43-1.22-.345-1.313-.689-.916-1.408-.275-1.666-.397-1.034-.03-.718.488-.862 1.16-1.006 1.039-1.407.488-.719 1.19-.746.367-.431.763-.374 1.465-1.206.58-.173.55-.43.183-.46.55-.058.732-.115.305-.373.55-.2 1.587-1.208 1.343-1.177.946-.661.947.115.885-.057.947.085 1.13-.23.365.23.672.115.52.201.396.518 1.038.2.946.49.702.545.702.287.427.489.672.172.397.546.641.23.672.804.152.66.55.26.183.947.336.575.55.172.58 1.092.732.69.58 1.953.03 1.551.092.89.305 1.265-.183.632-.427.172-1.038-.517-.824-.23-.977-.028-.366-.69-.55-.316-.336-.747-.824.172-.519-1.063.428-.545.396-.259-.335-.546-.336-.69-.55-.402-.702-1.063-.64.058-.459-.46-.397-.689-.61-.345-.702-.115-.489-.603-.671-.029-.672-.172zM167.718 430.121l.777 1.11.403 1.637 1.118.994 2.236.965 1.894.029 1.335-1.228.341-1.578.59-1.315 1.056-.965.59-1.46.186-2.368-.59-1.023-1.304-.468-.714-.35-.527-1.345-.684-5.026-.31-2.485-.621-2.28-.125-2.045.311-2.573.652-1.87.124-2.075.124-1.052.28-.965-.497-1.402-1.118-.643-1.366.204-1.522.03-.403.847-.341 1.257-1.15.555-.652 1.082-.03 1.987-.59 1.198-.746.73-.093 1.316 1.056 1.461.528 2.982.062 2.893-.342 2.484-.124 1.87.652 2.017.248 2.28-.186 1.578-.497 1.403zM236.21 210.54l-2.809-.229-2.747.69-3.969 1.84-3.907.862h-4.274l-1.618-.834-1.373-.776-1.008-.086-3.053.833-1.984.863-2.32 1.724-.427 1.494.122 1.897.427 2.242-.488 1.84-1.465 2.241-2.199 1.725-2.686.862-3.907.23-4.64.115-2.992-.46-1.465.575-1.343 1.092-.244 1.15-.428 1.379v1.667l.55 1.034.549.288 1.831-.115 3.358.402 3.48.977 3.603 1.15 2.32.23 2.808-.345 2.687-.69 2.686-1.15 3.297-1.781 1.099-.173.855.115.977 1.207 1.953 1.207 1.893.748 1.282-.23.977-.862 1.22-2.414.978-.863.305-1.092.794-2.07 1.22-1.953 1.222-1.897.977-2.587.427-2.472.427-1.379 1.1-1.15.915-.747.55-.632.977-.23.671.115.977-.403 1.832-.345 1.343-.287 1.404-.805.61-.804-.06-1.092-.855-.862-.916-.575zM141.203 145.752l-1.893-.632-1.649.805-3.48 2.472-3.053 1.725-3.113 1.034-3.358.403-2.87-.748-2.564-.804-2.38.172-2.443.747-1.527.518-1.526 1.207-1.16 1.322-.855 1.84-.549 1.667.794 1.207 1.831.574 3.908.575 5.495.173 4.518.172 3.113.402 2.686.863 2.26 1.322 4.823 3.104 2.93 1.207 1.71.632 1.22-.287.856-.92 1.648-1.034 1.588-1.38.06-1.724-.67-2.645-.856-2.874-1.465-3.564-1.404-2.414-1.1-2.99-.427-1.091zM177.652 118.102l2.32-1.035 2.259-.517 2.014.632.855 1.208-.06 2.127-.672 2.644.305 1.552.55 2.07.244 1.609-.61 1.208-.795.69.123.919-.978 1.034-2.503 2.07-.976-.345-1.405-.23-2.503-1.495-1.893-1.666-1.648-1.668-1.832-.862-2.197-.69-1.893-1.092-1.344-1.61-2.014-1.84-2.626-1.666-2.869-1.552-3.663-1.207-2.137-1.208-1.1-1.264-.793-1.61-.061-1.495 1.099-1.092 3.42-2.414.854-1.093.305-1.207-.06-2.3-.367-1.551-1.038-1.38-2.992-2.53-.671-1.092-.184-1.322.489-1.322 1.038-.863 1.282-.287 1.526.057 1.649.92 2.075 1.38 2.565 1.207 2.076.288 1.648-.46 1.404-1.15 1.465-1.035 2.015-1.15 1.404-1.034 1.344-1.84 1.16-1.667 1.465-1.725 1.588-1.955.915-1.61.367-2.241-.367-2.012-.732-1.668-.733-1.494-.244-1.552.55-1.035 1.464-.518 1.16.345 1.893 1.61 1.405 1.897 1.343 2.53.732 1.437.916 1.265.733.92.794 1.264-.061 1.437-.855 1.495-1.893 1.553-2.503 2.299-2.381 1.667-2.503 2.53-2.015 2.242-1.954 2.414-1.343 2.242-1.588 2.242-.671 1.61-.488 2.472-.062 2.184.367 1.897.793 1.897 1.16.862 1.221.863 1.283.862 1.831.288 1.282.172zM154.878 292.73l-.824.057-.55.632.245.804-.55.834-.946.833-.64.23-.673.632-.488 1.063-.305 1.207.336.777.549.402.763-.03h.886l1.373-.114.733-.287.641.144.916.085.885-.258.61.029.611.23.428.373.732.23.397-.086.489-.23.335-.029.275-.402.672-.345.183-.661.336-.69.122-.775.06-1.007-.152-1.005-.397-.719-.61-.948-.764-.604-1.403-.574-.947-.259-.763-.23-.733.431-.427.402-.733.03zM390.173 84.934l-1.923-.172-.947.086-.396.69.244.805.778 1.049.992.647 1.924.43 1.496-.07.763-.303 1.343.172.55 1.265-.306 1.955-.916 3.45-.488 2.069.061 3.736-.61 2.99-.916 2.702-1.466 2.3-3.114 2.241-2.991 2.53-2.687 2.385-.305.518.305.488.58-.201.642-.489.977.058.61 1.38-.61 2.644-.794 1.207-1.16.575-.183 1.265.06 1.983.52.862-.062 1.15.458 1.063-.121 1.61.64.776 1.252.661 1.313-.086 2.167.086 3.297 1.955 1.557 1.408.702 1.15-.214 1.35-.854 1.122-.428 1.034.153 2.012-.061 1.064-.214 1.61.214.776.488.488h1.282l.733-.977.763-1.581.824-1.207 1.252-.805 1.68-.374 1.739-.374 1.435-.488 1.16-.92 1.312-1.552 1.71-1.58 1.435-.575 1.8-.087.367-.575-.122-1.868-.55-.977-.152-1.61.732-2.99.459-1.12-.123-1.523.031-1.006-.458-1.093-.427-.747.335-.776.397-.69.855-.69.397-.977-.397-1.15-.519-.488-.61-1.006.152-1.323.64-.574.611-.518-.213-1.006-.58-.517-1.282-.46-1.496-.144-1.618-.172-1.496.345-1.16.805-1.22 1.408-1.466 1.84-.672.488-.824-.057-1.068-.23-.428-.517-.183-.776.397-.863 1.068-2.616.824-2.787.52-1.61.58-1.035.64-3.248 1.863-4.83 1.282-2.902.428-1.121.365-2.214.062-2.5-.55-1.006-1.099-.977-1.282-.891-1.373-.173-1.405.258-2.228.173-1.924-.288h-1.77l-1.618-.2-1.13-.288z" clip-path="url(#p8f77441424)" style="fill:#00f;fill-opacity:.8"/></g><g id="PatchCollection_2"><path d="m334.403 359.056 1.045-.594.216 1.28-.448-.25zM358.649 367.01l5.656-1.57h.3l.137.232v.309l-3.65 3.482zM366.08 365.389l.438.875 3.114-1.544-.546-.9zM364.796 368.604l2.213 3.446.683.334.793-.05.219-.387-.028-.514-2.459-4.038z" clip-path="url(#p8f77441424)" style="fill:green;fill-opacity:.8"/></g><g id="PatchCollection_3"><path d="m322.685 365.612 4.043-.765 1.085 5.08-4.042.766zM307.243 331.514l3.188 1.593-2.536 4.47-3.311-1.826zM348.961 368.837l-.057 1.404 1.965.07.058-1.402z" clip-path="url(#p8f77441424)" style="fill:#90ee90;fill-opacity:.8"/></g><path id="PatchCollection_4" d="m157.606 476.656 4.78.222 3.174 1.806.822 2.545-3.879 8.26-2.311.553-1.92-1.254-3.996-3.724-.157-1.18 1.528-2.544 1.528-3.061z" clip-path="url(#p8f77441424)" style="fill:#006400;fill-opacity:.8"/><g id="PatchCollection_5"><path d="m576.672 290.724.327.081.118-.426-.327-.08zM316.096 387.665l.108-.358.604.162-.108.358zM384.362 371.915l.002-.345.206.001.001-.193.428.001-.003.539z" clip-path="url(#p8f77441424)" style="fill:#a9a9a9;fill-opacity:.8"/></g></g></g><defs><clipPath id="p8f77441424"><path d="M90 102.716h558v521.768H90z"/></clipPath></defs></svg>