<svg xmlns="http://www.w3.org/2000/svg" width="960" height="960" viewBox="0 0 720 720"><defs><style>*{stroke-linejoin:round;stroke-linecap:butt}</style></defs><g id="figure_1"><path id="patch_1" d="M0 720h720V0H0z" style="fill:#fff"/><g id="axes_1"><path id="patch_2" d="M90 626.108h558V101.092H90z" style="fill:#fff"/><g id="LineCollection_1"><path d="m345.5 361.51-3.377 3.952M345.5 361.51l3.435-3.975M345.5 361.51l-3.48-2.54M345.5 361.51l4.147 3.01M189.176 596.1l-1.946-1.512-2.47-1.026-3.637-.824-3.188-.148-7.365.418-6.6.365-1.9.027-2.037-.135-5.837-.891-2.215-.931-1.632-1.459-9.774-13.77-.419-1.403.105-1.999M145.05 556.315l-1.66 5.698-2.231 5.764-.404 1.647-.494 3.388M310.699 425.1l3.29-4.035M268.669 444.63l11.083-3.407 22.99-6.914 7.957-9.208M331.684 442.118l-.508-1.404-1.258-1.782-1.107-.864-.748-.405-3.532-1.54-1.736-1.08-11.105-8.803-.991-1.14M336.939 255.6l2.874-8.719.688-1.324 2.006-2.377.449-.79.15-.878v-1.344l-.494-5.47-1.88-7.915-.98-6.051M320.549 207.946l.614.642 2.59 2.323 2.756 1.297 5.835 2.033 3.015 1.202 2.253 1.263 1.542 1.817.598 2.209" clip-path="url(#p05bcba0c8e)" style="fill:none;stroke:#000"/><path d="m378.864 206.32-2.545 4.274-.748.797-4.304 3.728-2.5 2.006-.208.378-.046.473.217.837.075.568-.134.486-.375.412-2.095 1.25-5.658 2.998-3.45 1.85-1.115.365-.778-.007-.771-.303-11.331-5.66-.711-.162-.486-.027-2.149.149M363.981 340.566l-3.162 3.696M363.981 340.566l4.106 2.777M357.133 337.622l5.236 2.102 1.612.842M367.353 335.104l-.464 1.46-2.908 4.002M340.927 358.197l1.093.773M339.223 361.783l1.385-2.796.319-.79M342.428 352.922l-.26.644-1.241 4.631M342.02 358.97l3.405-3.959M339.223 361.783l.555-.325 2.242-2.488M339.223 361.783l-.65 1.225M322.255 544.506l-1.377 2.134-.958 1.781M305.371 557.494l3.653-.135 1.197-.243.21-.216.359-.756.419-1.647.33-.756.748-.892 4.19-2.97 3.443-1.458" clip-path="url(#p05bcba0c8e)" style="fill:none;stroke:#000"/><path d="m349.257 608.175-.06-1.404.21-2.916v-2.052L348 593.62l-1.078-3.375-1.287-3.24-.808-2.214-.33-.19-.748-.944-2.036-1.728-2.634-1.863-3.502-2.133-1.228-.973-.39-.323-2.573-3.133-2.874-3.267-.63-.945-1.106-2.133-.66-.918-1.766-2.025-.538-.486-1.527-1.809-1.586-1.566-.15-.243-.48-.46-.329-.188-.299-.54-.18-.648.12-.702.33-.648 1.497-2.16.239-.54.09-2.052-1.617-3.754M334.26 535.758l-1.677 1.458-2.485 1.296-2.784 1.674-3.322 2.565-1.737 1.755" clip-path="url(#p05bcba0c8e)" style="fill:none;stroke:#000"/><path d="m309.413 541.347 4.79 2.133 1.047.324 2.036.379 3.352-.109 1.617.432M360.812 527.47l-.598.458-9.94 3.024-2.992-1.458-.989-.351-1.407-.135-1.347.216-2.035.647-.42.27-.419.514-1.167 1.998-.748.783-3.024 1.35-1.466.972M293.727 513.752l6.136 1.188.57.594.03 2.134.239 1.89.359.918.509.458 1.197.567 5.539 2.16 3.472 1.215 5.059 2.242 3.263 1.134 1.347.378.45.27.927.891 2.515 1.728.419.189.18.216 2.214 1.728 2.096.918 4.012 1.188M331.684 442.118l.87 5.509v2.106l-.18 3.294 1.197 3.375 2.903 4.023 1.198 2.025.599 1.674.658 3.645 2.216 4.996 1.077 2.052.09.35 3.562 7.237.54 2.16.987 6.858.15 2.16.09 5.698 1.377 3.78.718 1.215.778.702 5.09 2.538 2.245 1.215 2.005 1.485 2.036 2.889 1.467 3.861.389 2.538-.03 1-2.904 6.966M396.63 536.23l-3.876-.256-2.695-.27-8.68-1.7-1.018-.352-1.437-.864-1.168-1.026-3.413-3.456-1.347-1.782-.389-.297-.568-.19-.989-.107-8.412 1.404-1.826.135M258.469 451.874l6.608-6.14 3.592-1.105M293.727 513.752l-1.707-5.805-2.245-5.292-1.108-1.998-.838-2.187-2.514-5.239-.838-2.24-1.078-3.862-1.796-4.59-1.647-3.483-2.515-3.753-.808-1.917-.419-.513-3.203-2.457-1.317-1.458-.42-.676-.269-.675-.568-2.375-.24-1.62-.03-1.891.15-2.214-.03-1.35-.27-1.296-1.017-3.267-.27-1.323-.03-1.728.15-3.456-.181-2.458M281.902 531.168l1.317-1.404 1.946-1.053 5.778-1.836 1.796-1.701.599-1.404.06-2.592-.09-2.376.419-5.05M245.8 539.871l3.232.396 5.988.405 1.496.46 2.635 1.322.538.109.809-.109 2.215-1.16 3.562-1.324 4.94-2.592 3.443-1.566 3.263-2.025 2.963-2.268 1.018-.351" clip-path="url(#p05bcba0c8e)" style="fill:none;stroke:#000"/><path d="m309.413 541.347-6.706-2.808-4.73-2.754-4.73-1.97-3.981-1.216-4.73-.648-2.634-.783M278.37 558.88l5.987-4.212 3.592-2.376 2.335-2.376 3.712-1.89 6.047-2.268 5.149-1.998 4.22-2.413M269.106 590.564l1 .609 1.797-.109 1.168.162 2.994.243 1.586.594 1.856 1.188 2.425 1.431 3.023 1.647 2.784.783 1.078-.135.958-1.539 1.168-.837 2.035.081 1.437 1.134.928 1.512 1.197 2.403.21 1.35.988 1.647 2.065.999 2.665.918 3.353.08 2.963-.08 8.861 2.214 5.538 2.267 4.88 2.728 2.006.62 4.61 1.08 1.856.487 3.951 1.97 1.138-.08 7.633-7.756M427.21 562.381l-.719-2.322-3.232-6.588-1.258-1.89-.778-.918-1.138-1.08-3.472-2.808-4.311-3.942-3.892-2.917-2.814-1.836-1.646-.944-1.287-.406-6.033-.5" clip-path="url(#p05bcba0c8e)" style="fill:none;stroke:#000"/><path d="m417.092 517.379-.83.256-1.139-.108-.77-.256-1.856-.344-2.155-.095-.869.088-2.23.04-1.841-.101-.89.108-.772.25-.995.884-.876 1.256-.793 1.653-1.033 2.7-1.467 7.386-.823 2.74-1.123 2.395M492.05 592.684l-6.346 3.098-1.377.405-1.077.027-2.874-.297h-1.257l-3.383.81-5.838.486-2.903-.216-4.79-.594-10.149-1.566-2.723-.648-2.335-.837-.869-.595-.658-.648-2.336-2.646-2.544-4.536-3.203-4.104-2.724-3.726-.42-.405-.059-.27-.928-1.242-1.257-2.295-.21-.432-.988-2.133-3.143-7.426-.449-.513M426.126 583.144l.365-3.906.719-16.857M511.27 569.626l-9.82 1.08-3.592 2.268-4.071 2.052-1.078 1.512 1.198 3.24 1.317 3.564-.479 4.32-.718 2.052-1.976 2.97M346.592 447.546l-.689-1.648-.12-1.08-.688-1.485-2.155-1.268-2.096-1.08-.808-.298-.898-.135-2.095.216-3.473 1.026-1.886.324M346.264 368.436l-3.443 3.97M346.264 368.436l-4.141-2.974M346.264 368.436l3.143 2.27M349.647 364.52l-1.692 1.958-1.691 1.958M349.407 370.705l-3.503 3.89M349.407 370.705l3.383-3.97M350.215 377.674l2.167-2.534 1.035-1.21.031-.2-.168-.138-3.873-2.887M350.215 377.674l-3.412 3.998M350.215 377.674l-4.31-3.08M346.803 381.672l-3.383 3.97M346.803 381.672l2.184 1.754M346.803 381.672l-4.341-3.107M343.42 385.642l-4.37-3.052M340.037 389.397l.809-.784 2.574-2.97M340.037 389.397l-4.25-2.972M332.254 390.396l3.622 2.782.958.163.509-.487 2.694-3.457M332.254 390.396l3.532-3.97M329.769 388.56l.3.35 2.185 1.486M329.769 388.56l-2.058-1.361M332.673 384.184l-2.275 2.728-.319.597-.19.808-.12.242M327.711 387.199l-5.819 8.848M330.367 382.506l-1.498 2.761-1.158 1.932M356.262 362.737l-3.472 3.998M356.262 362.737l2.006 1.641M352.22 361.548l.397.094.912-.086.69.026 2.043 1.155M358.897 359.577l-1.597 1.915-1.038 1.245M352.79 366.735l-3.143-2.215M353.383 371.554l.7-.43 1.687-2.288-2.98-2.101M345.904 374.595l-3.442 3.97M345.904 374.595l-3.083-2.188M342.462 378.565l-3.413 4.025M342.462 378.565l-3.114-2.187M339.05 382.59l-3.264 3.835M339.05 382.59l-3.144-2.242M335.786 386.425l-3.113-2.241M352.22 361.548l-2.573 2.972M348.935 357.535l1.679 1.339.38.432 1.227 2.242M342.821 372.407l-3.473 3.97M342.821 372.407l-3.985-2.837M339.348 376.378l-3.442 3.97M339.348 376.378l-4.15-2.711M335.906 380.348l-3.326-2.428M332.673 384.184l2.95-3.5.283-.336M332.673 384.184l-2.306-1.678M332.58 377.92l-1.385 2.818-.828 1.768M335.197 373.667l-1.102.864M335.197 373.667l3.64-4.097M335.197 373.667l-.58-.498M332.58 377.92l.815-1.744M338.836 369.57l-2.017-1.395M342.123 365.462l-2.685 3.355-.602.753M340.127 346.26l-2.605 2.89-.569-.162-1.663-1.12-1.989-1.338M306.64 363.005l5.185.026h1.093l1.205-.253 7.033-2.427.56-.38.533-.581 1.093-1.593.868-.834.925-.834.532-.582.505-.607.589-.657.433-.455 1.856-2.139 2.575-3.079 1.676-2.08" clip-path="url(#p05bcba0c8e)" style="fill:none;stroke:#000"/><path d="m335.906 343.208-1.976 2.404-.629.918M335.906 343.208l4.22 3.052M342.611 343.478l-3.173-2.182-1.107-.762-2.425 2.674M342.611 343.478l4.331 3.021M342.611 343.478l1.734-1.841M342.611 343.478l-2.484 2.782M347.412 346.827l-.47-.328M347.412 346.827l3.25-3.704M350.575 349.123l-2.074-1.505-1.089-.79" clip-path="url(#p05bcba0c8e)" style="fill:none;stroke:#000"/><path d="m344.226 350.013 1.146-.89 1.61-1.805.43-.49M350.575 349.123l-2.455 2.81M350.575 349.123l3.203-3.752M354.044 351.605l-1.735-1.24-1.734-1.242M354.044 351.605l-2.494 2.826M354.044 351.605l3.516-3.534M350.663 343.123l3.115 2.248M350.217 342.813l.148.1.298.21M350.663 343.123l3.144-3.584 1.131-1.234.168-.182.439-.375.25-.273M357.56 348.071l-.28-.162-3.502-2.538M360.82 344.262l-.247-.135-2.664-1.89-.808-.325-.42.162-2.903 3.297M357.56 348.071l3.26-3.81M357.56 348.071l4 2.781M361.56 350.852l3.024 2.161M361.56 350.852l3.204-3.727M364.584 353.013l1.377 1.053M364.584 353.013l-5.687 6.564M367.818 349.34l-1.182 1.342-2.052 2.331M348.935 357.535l2.615-3.104M348.935 357.535l-3.51-2.524M345.425 355.011l-2.997-2.09M345.425 355.011l1.588-1.917M343.69 350.706l-.686 1.1-.576 1.116M358.897 359.577l-7.347-5.146M393.12 387.33l-2.551-3.632-1.737-3.593-1.946-3.511-.658-.946-1.168-1.107-1.167-.837-1.317-.757-9.969-4.565-3.083-2.08-.898-.513-3.054-1.134-.718-.351-5.061-4.152-.896-.575M367.818 349.34l3.293-3.836M367.818 349.34l-3.054-2.215M373.976 350.132l-1.195 1.607-.256.186-.379.122h-.353l-.623-.277-3.352-2.43M371.11 345.504l-3.023-2.16M393.682 347.044l-2.155-.216-5.569.486-3.293-.081-1.436-.19-.809-.431-1.317-1.324-1.736-1.513-2.784-1.836-.569.324-1.26 1.406-1.643 1.835M372.547 346.477l-.589-.4-.847-.573M393.682 347.044l2.125-.216M393.951 351.095l-.718-1.62.45-2.431M360.82 344.262l3.944 2.863M364.764 347.125l3.323-3.782M357.133 337.622l-.634-.462-.413-.374M355.96 337.345l.434.08.739.197M370.602 340.4l-.575.672-1.94 2.271M348.12 351.933l.539.27 2.891 2.228M348.12 351.933l-1.107 1.161M343.69 350.706l1.833 1.318 1.49 1.07M343.69 350.706l.536-.693M355.96 337.345l.109-.17.044-.193-.027-.196M355.96 337.345l-.165.13M356.086 336.786l-.096-.177-.153-.14M456.906 410.52l-.658-.055-.569-.324-3.023-2.08M393.12 387.33l.502.716.36 1.243.388.945.57.784.838.648 1.167.432 2.964.567 1.167.324.868.433 2.814 1.971 2.814 1.161 5.748 1.567 3.233 1.162 1.946.378 5.957.702 4.101.757 2.814-.109.539-.27.748-.08.689.189 6.226-.622 2.905 1.054 4.37 2.809.33.54 3.352 2.242 2.126 1.188" clip-path="url(#p05bcba0c8e)" style="fill:none;stroke:#000"/><path d="m504.04 438.31-1.511-5.644-.442-2.174.202-2.275.958-2.268.568-1.478.03-1.513-.284-.96-.359-.458-.704-.121-1.017-.109-1.183-.526-1.983-1.512-4.501-3.322-2.512-1.756-1.354-.574-.936-.486-.98-1.485-2.155-2.924-.562-1.58-.733-2.646-1.467-1.729-1.572-.77-4.842-1.896-3.637-1.547-1.16-.189-1.744.014-5.287.439-3.955.324-1.325.35-1.923 1.263-1.048 1.324-3.09 5.138-.876.841M342.123 365.462l-3.55-2.454M336.819 368.175l.962-3.225.298-.993.493-.95M392.994 353.256l.568-1.08.39-1.08M441.819 352.473l-1.706.27-18.65 6.158-3.742.756-.988.027-3.473-.864-8.142-1.08-.659-.486-2.634-2.459-4.191-2.16-1.311-.938-1.716-.46-.656-.142M333.395 376.176l-.463.004-.842.145-1.094.24-3.263.946M315.889 418.733l.797-.979 4.91-21.065.296-.642M279.926 372.596l13.89 8.103 3.563 2.026 1.347.675 8.681 4.808 6.137 3.674 8.348 4.165M305.162 340.102l-4.46 4.133-3.293 2.728-2.036 2.836-2.994 2.998-2.634 2.16-4.88 2.378-1.377 1.107-1.586 1.108-1.018.405-1.168.81-.419 1.054-.21 1.62.131 7.468.046.668.662 1.02M236.43 381.813l7.603-.27 2.14-.244 6.272-1.35 1.317-.202 1.273-.109 5.852-.27 1.213-.161 8.875-1.783.884-.216.748-.297 2.5-2.485.613-.621 1.602-2.12.598-.19.689.095 1.317 1.006M315.889 418.733l.68.243.868-.081 4.49-1.189 10.176-3.375 4.161-.351M315.889 418.733l-1.9 2.332M635.09 203.83l.36-1.405.977-2.49.134-.76-.021-.704-.147-.6-.56-.849-.812-.626-.617-.233-1.54-.405-2.079-.428-1.798-.21-1.973-.043-.987-.195-.765-.3-.643-.433-.76-.79-1.118-1.757-.443-.966-.127-.623.048-1.367.627-2.568" clip-path="url(#p05bcba0c8e)" style="fill:none;stroke:#000"/><path d="m620.961 171.018-1.484 1.578-.99.953-2.539 3.05-.56 1.131-.066.67.263.535.957.7 1.303.655.33.342.412.908.544.967 2.754 2.812.961.76M434.01 309.374l-2.856-.028-4.153.244-5.853.6-6.242.23-8.351.351-4.693-.007-6.152.098-1.803.24-3.764.718-2.654.395-6.365.557-1.96-.18-2.515-.654M372.925 304.637l.76.497.629.756 1.946 3.645.359.945.03 1.458M370.737 309.973l4.172 1.432 1.74.533" clip-path="url(#p05bcba0c8e)" style="fill:none;stroke:#000"/><path d="m484.387 324.506-.396-.45-.592-.453-.995-.765-1.497-.945-3.046-1.675-3.15-1.56-3.615-2.019-3.764-2.397-2.609-2.296-1.912-.871-2.926-.851-2.316-.419-3.372-.054-1.975.264-1.834.263-1.377.176-2.26.418-1.969.109-2.05-.156-4.685-1.006-1.662-.284-1.287-.1-1.089-.061M456.203 290.776l-1.677-.35-1.676-.258-4.924.284-1.108.094-.794.298-1.9 1.296-1.467.581-1.886.31-.419.23-.36.379-1.354 2.511-.15 1.263.18.784 1.048 1.985.307 1.29-.098.85-.456.905-.539.926-.142.762.127.96-.06.729-.546.837-1.078.588-1.875.47-.838.428-.509.446M522.137 358.793l-1.437.54-1.378.617-.943.405-.763.141-.808-.202-.531-.493-.36-.149-.299-.054-.988.44-1.272.154-.726-.026-2.013-.568-1.834-.914-.42-.486-1.167-2.133-.419-.54-.988-.54-1.706-.244-.718-.216-1.138-.648-1.018-.756-.658-.784-1.677-2.917-1.676-2.295-.629-1.054-1.796-3.997-.09-.957-.299-.927-.562-.649-.77-.686-1.767-1.249-.957-.892-.764-1.316-1.983-2.627-1.497-2.863-.785-1.938-.914-3.464" clip-path="url(#p05bcba0c8e)" style="fill:none;stroke:#000"/><path d="m522.936 326.82-5.084.124-1.849.379-1.072.354-1.028.504-2.966 2.294-1.793 1.212-2.982 1.587-1.52.497-1.339.232-1.297.01-.957-.107-1.772-.473-3.637-.75-1.576-.411-1.748-.645-1.242-.787-.939-.814-.778-.675-1.276-1.306-.61-.595-.39-.39-.804-.832-.483-.437-.539-.514-.868-.771M481.993 302.135l2.394 1.093 1.198 1.067 1.152 1.418.704 1.392.434 2.998.12 1.647-.36 1.682-.3 1.506-.388 1.431-1.033 2.607-.479 3.025-.719 1.89-.329.615M370.569 303.118l.646.48 1.22.736.49.303M371.35 305.417l.606-.304.97-.476M370.569 303.118l.78 2.299M366.706 294.24l.954 2.296 2.909 6.582M573.716 347.809l-6.616-.041-4.146-.432-.734-.697-.688-.73-.33-.757-.449-1.647-.778-2.296-.853-.976-.718-.473-.45-.19-.788-.036-.663.091-2.68.999-1.137.176-1.317-.095-1.078-.365-.883-.512-1.093-.81-2.035-1.594-1.995-1.192-1.558-.664-3.152-.952-1.957-.729-2.741-1.322-1.383-.888-3.914-2.752-1.735-.954-1.067-.404-3.842-.746M531.932 315.45l-.382 1.135-.907 1.552-1.496 1.473-1.405 1.438-.59.749-.682 1.582-.489.863-.488.58-2.557 1.999M249.483 313.837l2.986-.83 1.437-.217M350.217 342.813l-3.864-2.627-.447-.083-1.798.11-.539-.135-.838-.621-1.287-1.297-.958-.648-1.167-.297-6.915.135-2.695-.27-1.167-.216-.748-.243-3.429-2.493-5.492-2.97-9.445-4.174-2.59-.918-5.343-.736-3.66-1-1.122-.114-2.53-.068-4.251.014-5.463.202-.996-.216-.464-.327-.27-.27-1.616-3.889-.957-1.323-1.198-.891-2.125-.513-6.615-.539-.914.095-1.39.412-8.562 2.997-.616.102-.627-.081-.554-.237-4.699-3.234-1.167-.81-2.216-1.803M221.447 305.094l.408.293 4.404.531 1.407.518 2.028 1.103 1.534.58 5.957 1.304 3.458.29 1.721.371 2.35 1.054 3.776 2.084.993.615M225.45 294.577l-.718-1.613M221.447 305.094l-.038-.524 1.64-4.065 2.402-5.928M226.184 292.828l-.352.803-.381.946M164.673 321.344l1.61 1.372 1.1.23.988-.378.493-.743.524-.945.704-1.236.262-.506.172-.368.213-.436.895-1.53.366-.563.34-.588.326-.562.423-.657.513-.746.632-.446 3.477-1.647 2.402-1.945 1.137-.526 1.288-.466 2.462-.486 1.28-.095 1.167.175 1.003.372.913.432.838.628.936.896 1.077 1.13 1.557.965 2.822 1.25 1.803.655 7.215 1.362 1.2.228.91.115 2.395-.25 1.362-.25 2.537-.851 1.28-.587.875-.858.532-.838.584-1.35.569-1.338.913-1.485.643-.973.628-.905.659-.841.749-.665M226.184 292.828l-1.452.136M336.939 255.6l-13.733.087-5.322-.304-.898-.014-.673.008-6.399 1.749-5.014.742-5.62.289-8.368-.093-10.043 1.952-.703.28-.726.497-1.598 1.063-1.373.983-1.441 1.02-1.931 1.225-1.235.31-1.22.055-1.493.212-.853.281-.846.641-.887 1.003-6.365 6.267-1.437 1.202-1.182.763-2.342.365-4.116.08-2.171.332-2.5.878-3.7 1.364-1.77 1.32-2.088 2.597-1.09.753-3.831 1.55-1.852 1.005-1.467 1.057-2.941 3.025-.82 1.146-.707 1.538" clip-path="url(#p05bcba0c8e)" style="fill:none;stroke:#000"/><path d="m366.706 294.24-2.155-5.537-.842-1.381-.681-.962-.992-.935-1.433-.902-4.734-2.3-4.071-1.975-3.768-1.327-1.542-.726-2.604-1.681-6.9-5.477-2.202-1.632-.835-.973-.396-1.15.015-.925.24-1.65 3.133-9.108M164.673 321.344l-.74-.91-.771-.614-2.006-1.243-4.947-3.086-1.018-.85-1.594-1.885-3.188-4.207-.112-.487-.008-.554M176.876 282.055l-.67.34-5.654 4.015-4.24 4.473-4.737 5.01-2.178 1.918-2.133 2.066-2.889 3.505-2.245 3.254-.688.508-1.153.364M197.977 281.288l.085-1.042M176.876 282.055l.528-.068 6.163-.02 9.98.186h1.062l1.654.006 1.07-.378.644-.493M224.732 292.964l-.779-1.043-.575-.891-.218-.97-.217-1.418-.21-.527-.777-1.124-.217-.376-.18-.27-1.07-1.042-1.091-.647-4.073-1.571-.524-.095-.965-.007-2.56.493-.86.243-.951-.007-2.448-.408-1.178-.226-4.502-.365-1.639-.425-.845-.446-.876-.554M194.593 176.5l1.438.96.898.344 2.941.095 1.146.371.583.527 1.273 2.411 1.084 1.283.375.46.134.567.158 1.587.172 2.438.127.608.644 1.344.134.73.023.864.135.608.635 1.03.629 1.594.393.817.898 1.054 1.018.908.591.409 3.685 3.566 1.198.811.936.54.29.135.388.114.703.064 1.022.014 4.68-.206.686.115.643.33.404.517.169 1.176-.043 5.144-.539 4.54.3 1.702-.052 1.763-.637 1.452-2.036 5.888-.838 1.702-1.137 1.594-3.712 4.484-.689 1.108-.269.62-.24 1.054-.14 4.148-.248.912-.352.641-1.036.662M201.027 242.998l.647-.341 1.235-.125 5.605.02 4.644-.453M230.158 241.242l-1.04.364-1.879.014-1.684.095-1.908-.02-5.539.607-2.574.027-2.376-.23M320.549 207.946l-4.88-.333-6.226-.81-6.406-.54-7.03-.788-.866-.118-1.138-.146-1.122-.141-.726-.088-2.552-.317-5.155-1.429-2.246-.46-5.298-.783-1.643-.35-1.324-.798-3.679-4.228-3.861-2.316-1.437-.46-1.333-.054-1.548.283-1.763.747-.873.686-.665.817-1.983 2.688-.855 1.682-.088.297-.023.344.869 1.96M337.56 183.258l-18.5 15.996-1.198 1.358-.494 1.175-.022 1.277.254.972.891 1.898 2.058 2.012" clip-path="url(#p05bcba0c8e)" style="fill:none;stroke:#000"/><path d="m362.403 122.838-4.075 3.107-4.252 2.75-5.425 3.329-1.137 1.37-.536 1.639-.16 1.286.666 7.782-.09 1.486-.187.773-.599.919-2.739 2.792-1.797 2.968-1.68 3.604-2.091 7.261-.988 3.485-.142 1.513.359 1.58.763 1.779 1.538 2.213 1.044 2.695-.06 1.857-.643 1.46-1.792 1.911-.82.861M228.316 120.64l-.142 1.833-.293 1.733-1.354 2.864-1.385 3.283-.16.861.027.499.19.285 5.57 5.475 1.498 1.216.778.162.868-.055 1.736-.594 1.48-.022.676.103.988.19.957.243.412.111.457.132 1.077.297.502.186.457.165.538.19 3.532 1.945 2.457 3.134 1.527 1.46.538.215 3.773.351 2.484.406 8.711 2.188 1.766.919 1.318 1.135 1.287.621 3.353.865.55.132 1.246.192.46.144.423.255 1.38 1.569 1.604 1.6 1.098 1.195.63.628.662.364 1.642.068.745.334.531.713 1.022 2.928.608 1.189 2.007 2.2 7.554 8.198.649.529.419.135 1.197.162 2.994.216 1.407.027.868-.135 6.76-2.467.993-.446 2.605-1.816.868-.459.868-.243 1.108.027 3.959 1.233 1.481.405.76.2 7.338 1.644 2.165 1.081.219.203.094.321.022.281-.324 1.927.18.46.36.54 4.469 4.688M198.291 113.077l4.58-1.402 4.55-.217 3.413-.27h1.287l2.814.27 1.804.514 1.58.648.815.545.92.732 3.832 4.127 4.43 2.616" clip-path="url(#p05bcba0c8e)" style="fill:none;stroke:#000"/><path d="m186.852 114.833.82-.412.864-.087 4.011.607 1.733.078 1.538-.44 2.473-1.502M181.123 124.553l2.223-2.29 1.542-2.31.636-1.175.254-1.912 1.074-2.033M194.593 176.5l-.373-.25-5.74-6.55-.285-.886.03-.993.42-.992.62-.622 1.108-.614 2.238-.507.441-.204.345-.377.097-.628-.198-1.165-.184-.436-.36-.432-2.46-2.09-.667-.905-.513-.892-1.44-3.333-1.07-3.533-1.011-3.025-2.5-6.383-.044-1.379.322-1.554.321-2.978-.12-.986-.284-.905-.621-1.222-1.318-2.567-.224-5.539" clip-path="url(#p05bcba0c8e)" style="fill:none;stroke:#000"/><path d="m106.134 167.612-1.13-2.283-.06-.27-.083-2.324-.239-1.965-.411-1.411-.958-2.668-.016-2.128.255-2.148.427-.845 1.212-.452 1.108.026 1.886.27 2.701 1.035.614.047.3-.175.479-.48 1.698-3.971 1.654-4.742.277-.513.397-.494 2.484-1.715.577-.338.531-.263 3.637-1 5.164-1.04 1.84-.027 1.46.067 3.204.196 3.053-.04 3.555-.453 1.55-.251 1.915-.054 7.125.54 1.93.008 1.07-.175 1.58-.648 4.79-2.337 1.46-.581 1.496-.466 4.707-1.34 1.497-.513 1.168-.513 1.167-.73 2.335-2.46 1.587-1.269 2.694-1.702 1.302-.464M355.875 334.262l.414-.908 1.103-1.59 1.736-2.03 1.304-1.587 1.282-2.193.842-1.489 1.975-4.697.877-1.704 1.1-1.585 2.147-2.978 2.082-3.528M371.35 305.417l.253.798v1.29l-.306 1.328-.56 1.14M374.703 287.44l-3.032 3.147-.665.624-2.309 2.006-1.991 1.024M635.601 206.008l-.266-.853-.162-.59-.083-.735M632.726 204.893l.89-.334.654-.263.82-.466M632.726 204.893l1.404.49 1.471.625M618.203 208.224l1.933-.297 5.4-1.218 1.637-.546 2.964-1.102 1.153-.225 1.436.057M567.986 272.297l-.877.682-1.593.633-1.808.22-.986-.232-1.592-.864-1.862-1.352-1.147-.986-.31-.439-.493-1.461-.33-.597-1.472-1.693-1.404-2.423-.31-.268-.661-.11-13.228.899M531.932 315.45l.78-1.855.767-1.228 2.453-2.477.584-.887.377-.712.8-3.997.097-1.219-.043-.887-.961-3.656-.336-2.038.217-1.794.68-1.745 3.112-5.07 1.254-2.847.497-2.28.205-2.39-.443-2.233-.573-1.588-.55-.8-2.054-2.038-1.426-2.087-.173-.78.216-.916 2.501-5.62M521.032 212.867l2.571 4.27.41.976-.086 1.033-.778 1.19-1.49.995-3.35.877-.822.585-.108.936.368 1.033.542.589.776.543 13.01 5.616.734.39.465.42 3.188 5.197 5.424 7.995 7.13 10.959.38 1.19-.044 1.199-.595 1.004-.82.643-3.89 1.18-2.086.79-1.189.722-.626.663-.233.444M530.973 209.046l.853.31 2.182 1.366 1.275.498 1.868.264 7.026.773 2.733.02 2.032-.318 1.558-.554 2.23-1.297.809-.473 1.249-.512.57-.252.924-.389 2.209-.946 2.748-1.094 1.996-1.22 4.735-3.242 1.412-.823 1.924-.756 2.535-.788 1.855-.403 1.905-.295 1.517-.086 1.552.119 2.255.575 3.496.964 2.01.684 5.137 1.169 5.649 1.159 2.76.851 1.817.783 2.394.917 2.228.669 6.406 1.292 2.053.308 1.328-.095M604.811 237.77l1.023-1.04 1.5-.938.808-.596 2.655-2.269.148-.26.042-.38-.388-3.549-.214-.7-.182-2.35.083-3.587.14-.409.56-.513 6.638-.908.56-.223.314-.476.198-.878.181-3.215-.544-3.794-.13-3.46M573.716 347.809l13.516 13.275.524.661-.045.837-1.197 1.513-1.677 2.04-4.22 5.401-3.189 1.783-2.2.391-7.11 1.162-1.108.5-2.035 1.16-.554.662-.779 1.08-.494.676-1.062.783M628.957 423.82l.065-.497.18-5.037v-1.972l.045-.99M519.232 301.865l1.977 1.512 2.17 1.256 1.84.797.6.662.613 1.54.255.715.763 1.053 1.976 2.229 1.571 1.944.935 1.877M117.345 237.662l3.742.581.599-.007 3.607-.796 1.093-.095 2.11.081.733-.04 1.82-.203 1.114.148 4.85 1.716 1.197.135 5.867-.31 3.458-.446 11.623-2.479 2.177-.655 1.512-.108 3.323.767 5.59 1.907 2.036 1.182.637.747.18.513.104 1.002.374 2.023.479 1.482.599.723.898.851 1.32.726.88.598.644.968.434 1.078.127.777-.225 1.026-1.257 2.432-.164 1.1.15 1.162 2.491 6.983.63 1.351.927 1.458 1.497 1.35 3.96 2.702 1.653.763 1.175.554.666.898.74 3.326.652 1.026.689.527 1.938.61 1.26.99.607 1.016.201.444M201.027 242.998l-.289.614-.141.631.269 2.107 2.155 8.238.715 2.246.093.293.45 1.513.838 3.929-.03 1.23-.12 1.133-.367.81-.531.568-1.99 1.074-.577.682-.42.837-1.144 6.618-.135.648-1.74 4.077M189.31 241.353l4.76 1.516 1.292.273 5.665-.144M628.957 423.82l-.19 1.433-.763 3.484-2.365 12.126-2.627 12.976-.441 2.66-.045 1.269.284.675.72.527 4.257 2.262 2.35.587 4.618.783 1.601.094.749.419.164.662-.18.702M523.312 479.567l.845 3.383.277.817.262.546.329.196 1.639-.013 4.012.182.972.324 2.388 1.147 1.474.547 4.798 1.04.583-.034.689-.378.995-.816.965-.547.697-.074 3.015.168 7.26.986 3.12.681 1.385.527.809.527.95.445 1.13.156.808-.129 2.492-.661 4.513-1.486.636-.283.681-.324 1.333-1.208 1.122-.648 1.886-.703 4.7-.905 2.036-.216 3.405.514 1.34.148.56-.034.54-.364 1.885-1.68 3.192-3.542.528-1.739 1.078-4.684.06-1.553-.57-.85-1.256-1.284-.6-1.04-.643-1.58-1.93-1.998-.54-.675-.03-1.026.15-.445.614-.297 2.365-.109.748-.377.39-.73-.09-.756-.809-.324-2.664-1.553-2.56-2.983-2.783-4.335-.495-1.263-.037-1.107.322-.29 7.462-3.403 4.595-2.95 5.875-4.091 3.06-2.303 5.284-4.874 5.913-5.989 1.444-1.627.337-.385.336-.196.404-.006.884.149 2.477.776 4.1 1.208 2.503.653M519.697 470.001l1.347 1.722.965.992.449.824.483 2.22.37 3.808" clip-path="url(#p05bcba0c8e)" style="fill:none;stroke:#000"/><path d="m482.067 501.515-1.115.026-1.092-.256-.27-.31-.082-.365.157-.392.502-.418 2.723-1.607 3.024-1.715 2.83-1.16 3.561-1.918 2.89-2.376 4.49-7.75 2.11-1.39.98-.203.719.02 1.235.479 1.264.318 1.295.924 1.235.905 1.863.263 5.067-.162 2.2.047.502-.188.434-.365.426-.513 1.048-1.155 2.283-1.97.966-.717M417.092 517.379l3.442-2.255 1.187-.557 5.272-3.47 5.358-4.202 6.594-5.033 1.804-1.954 1.107-1.357 3.6-3.436 4.146-4.55 1.699-2.437 1.28-1 1.594-1.127 4.505-2.585 4.573-4.071 1.512-1.108.898-.418 1.377-.405.718-.061.816-.297 2.297-2.046 4.401-4.28 3.753-3.122 1.298-1.3 2.912-2.491 1.736-1.593 1.295-1.715 1.145-.85 1.153-.244 4.086-.094 5.179 1.094 2.813.81 3.862 1.323 3.87 1.31 7.49 4.186 1.782.972 1.317.756.734.23M507.505 452.144l.562 1.074 3.51 5.137.77 1.486.86 2.066 1.415 1.735 3.144 3.443 1.295 1.235.381.77.255.911M442.371 517.831l-.852.223-4.01-.702-3.594-.432-7.184.702-6.586.378-3.053-.621M504.04 438.31l1.31-.742 2.492-1.998 2.26-1.769 3.742-2.174 2.246-1.377 1.601-.514 1.587-.283 1.347-.594 1.556-1.121 1.213-1.283.404-.27 2.394-.864 4.207-1.823 2.746-1.634 2.5-1.424.606-.311.666-.088.576-.101.726-.33M507.505 452.144l1.205-1.1.778-.73.12-.796-.15-1.769-.703-.864-2.799-2.417-.958-1.674-.958-4.483M507.505 452.144l-1.04-.439-1.751-.209-.794.324-.98 1.047-.764.459-1.466.324-1.976-.27-3.02-.929-2.354-.867-1.459-.33-.988.154-2.383.632-3.284 1.28-4.84 2.112-.823.297-.607.081-.74-.128-.344-.297-.195-.425-.307-.183-.404.088-1.033.642-.748.323-.794.115-.674-.344-.673-.409-.483-.226-.916-.577-1.894-2.4-.875-1.715-.809-1.505-1.317-.756-1.93-1.047-.862-.101-1.017.21-.532.505-.292.689-.09.27-.381.081-.374-.121-1.152-.642-1.093-.526-1.138-1.209-.95-1.722-.921-1.168-1.841-1.68-1.766-1.62-.868-.804-1.243-.892-4.25-2.342-.906-.506-1.55-.237-1.825.432-1.243.743-.733 1.012-1.736 4.733-.075.615-.195.5-.389.41-1.227.48-1.736-.06-2.298-.372-.734.095-4.123 1.647-1.58 1.067-.448.23-1.093.033-1.856-1.046-.98-.986-1.797-3.119-5.149-9.87-2.62-7.623-1.967-5.739-1.328-3.106-2.407-5.3-1.452-2.572-.808-.885-2.043-1.262-6.04-3.37-2.275-1.174-1.182-1.323-.569-1.54-.808-4.01.51-2.026 1.711-4.435M482.067 501.515l1.46-.365 3.794-1.161 5.568-1.377 1.691-.73 1.138-.458 1.976-.055 2.769.5 3.562.918M442.371 517.831l1.424-.372 3.293-2.051 2.514-1.999 2.455-1.35 2.754-.81 2.155.486 3.413.216 3.293-.81 4.61-1.188 1.437-1.512 2.634-1.89 4.31-2.16 2.096-1.135 3.308-1.741M334.095 374.53l.522-1.361M333.395 376.176l.385-.824.315-.821M336.819 368.175l-.11.303-1.711 3.697-.381.994M346.942 346.499l-2.13 2.398-.586 1.116M355.837 336.468l-.036-.455-.038-.428-.042-.29-.035-.62M355.837 336.468l-.194-.09-.217-.027-.215.036-.19.096-.15.152M354.77 337.025l.062.195.13.167.183.118.216.057.225-.01.209-.077M354.77 337.025l-.152.448-.207.463-.33.506-.39.462-3.474 3.91M354.87 336.635l-.086.187-.014.203M355.686 334.674l-.364.82-.192.395-.26.746M355.686 334.674l.189-.412M350.217 342.813l-3.275 3.686M111.41 506.058l-.277-2.268-.09-.405-1.227-3.47-.217-.905-.456-3.045-.33-.688-.659-.567-6.645-5.307-.584-.607-.194-.797.299-3.659.284-.715 2.979-3.578.366-.351.936-.716.277-.297.157-.304 1.063-2.531M111.41 506.058l.457-.33.493-.19 1.767-.405.27-.054.209-.108 1.216-.857.195-.088.299-.027 1.792.19.307.033.292-.034 1.67-.507.395-.107.524-.02 1.692.14.426-.04.906-.37.157-.041.195.02 1.062.432.435.04.434-.087 2.253-1.08M124.297 536.705l-12.85-11.185-5.553-5.077-.224-.66.09-.838.778-2.7.434-1.216 2.874-5.495 1.564-3.476M145.05 556.315l-7.304-6.723-9.37-8.937-4.079-3.95M169.255 529.44l-1.798 2.034-2.095 2.713-.973.77-1.033.5-3.458 1.323-7.379 2.484-2.484 1.714-1.392 1.755-.464 1.405-.18 1.964-.09.54-.135.594-2.723 9.079M169.255 529.44l1.824 2.331.06 2.646-1.676 3.834-.599 2.539.958 3.24 2.635 6.156.539 2.646.06 2.862-.66 2.214.36 1.62.958 2.754.479 2.43.598 1.728 2.335 1.242 2.395 1.027 2.515 1.62 2.934 2.808 2.155 3.131 1.976 1.297 2.874 1.404 3.173 1.673 1.976 2.268.479 2.322-.54 2.538-.598 2.269-1.916 2.645-2.574 2.376-2.8 1.04M167.996 395.546l-1.186-.04-.314-.048-.259-.067-4.587-2.91-.988-1.23-.718-1.539-.839-4.361-.254-1.027-.748-2.997-.046-2.256.555-1.742 1.077-1.296 1.242-.716 1.721-.122 2.126.703 1.108.31 1.197.054 5.179-.783 1.123-.04 1.377.459 23.02 9.912 3.623 1.688 1.287.189 1.332-.27 2.305-1.189 1.242-.77 3.114-2.255 1.541-.472 1.272-.216 6.212.202 1.482.176 3.458.985 1.706.19 2.036-.027 6.616-2 1.422-.228M232.029 396.694l-5.867-1.513 10.268-13.368M416.493 178.439l.54-1.494.324-.28.341-.185 1.1-.02.943.216 3.218 1.85.726.176.561-.013 2.306-2.25 2.79-2.856.48-.73.778-2.931.427-1.141.628-.973.053-.56-.195-.42-.666-.546-5.613-2.891-4.31-2.567-9.49-5.282-4.086-1.77-8.315-4.079-2.432-1.337-11.024-5.971-6.736-3.648-1.84-1.297-1.565-1.276-2.02-2.074-5.366-5.268-4.064-3.364-.83-1.027-.753-1.593M574.7 276.79l.587-.705.48-.4 1.18-.42.658-.1 2.358.183.688-.056" clip-path="url(#p05bcba0c8e)" style="fill:none;stroke:#000"/><path d="m574.7 276.79 1.111 2.047 1.273 1.999.643 1.688.285.837-.076 1 .135.594.48.284.942-.014.734-.459.194-.689-.06-1.499.06-2.863.23-4.423M567.986 272.297l.803-.237.938.103 1.255.414.863.73 1.715 3.13.432.342.418.073.29-.063M579.308 262.992l-.974.149-3 .119-2.821.52-.924.357-2.738 1.295-.708.253-.478.417-.908 1.563-.132 1.13.907 2.665.454.837M157.684 273.273l.568-2.473.434-.77.554-.27.823-.026 6.631 1.377.629.379.374.58-.142 3.087.097.283.24.155 3.008.54.396.136.547.324 5.033 5.46M499.335 123.894l3.522-1.131 1.588-.663.627-.098 5.025-.097 3.782.107 1.026.175 3.187 1.785 1.265.536.713.098.94.049.843.204 1.059.625 1.22.604 2.68.868 3.545 1.512 2.766 1.024 1.372.682 1.761 1.268 2.031 1.746 1.902 1.278 2.01 1.13 2.172 1.005.691.449.703.975 1.188 2.564.443.39.638.254 1 .083 1.01-.103.659-.233 1.134-.654.789-.283 1.394-.087M521.032 212.867l3.479-1.346 5.586-2.31.876-.165M576.455 170.118l.03 1.46-.375 1.404-.868 2.242-.703 1.378-1.647 1.526-1.152.554-2.38 1.108-1.272.85-.973 1.068-2.096 2.431-.823.649-4.445 2.728-1.018.676-4.206 3.58-.824.337-1.032.014-1.691-.298-4.311-.527-2.515-.013-2.095.365-1.976.58-4.835 1.04-.913.474-.658.918-.09 1.121 1.796 3.715.434 1.702.045 1.567-.599 1.54-1.976 2.147-1.062.973-1.252 1.619M499.335 123.894l-.216 2.906-1.016 4.038-1.059 5.753-.67 5.695-.108.507-.292.654-1.62 3.969-.324.994-.12 1.434-.043 2.594-.14.965-.27.946-1.48 2.321-2.032 2.857-3.155 5.715-.249.76-.021.751.162 1.258.757 2.818 1.804 4.154.605 1.18.389.459 5.895 4.735 5.623 4.967 1.383 1.385 1.253 1.97 2.496 4.115 1.838 3.257.702.77.745.605 1.319.8.95.896 1.265 1.755 2.172 3.365 3.046 4.475 2.108 3.15" clip-path="url(#p05bcba0c8e)" style="fill:none;stroke:#000"/><path d="m500.694 117.522-1.133 2.598-.42 1.921.107.79.087 1.063M194.593 176.5l-1.42.298-2.934.378-1.64-.088-1.13-.371-1.541-.385-1.744-.318-.442.054-.344.284-.187.385-.36 1.472-.298.527-.779.608-1.803 1.648-.741.385-.577.06-.598-.168-1.684-.702-.808-.244-1.07.048-1.991.222-1.939.595-1.549.743-2.155 1.709-1.998 1.81-1.415 1.398-1.145.959-2.912 1.729-1.16.21-2.604.29-1.07.33-2.245 1.284-.89.824-.959 1.796M345.006 327.984l1.871 1.566 1.317.824 3.084 1.459 4.597 2.429M279.926 408.145l5.269 3.349 1.676 2.484 2.036 3.24 1.437 1.081 2.754-2.377 1.796-1.296 2.395-1.944 1.557-.756 15.142 9.139M213.75 495.406l4.387-2.686 14.969-9.18 5.029-6.806 15.872-20.712 4.462-4.148M204.488 447.574l15.926-2.593 8.022-1.944 12.573-2.485 17.46 11.322M451.817 528.909l-5.628-1.296-1.916-2.538-.478-1.729-1.424-5.515M169.255 529.44l12.121-13.713 6.946-4.753 3.831-1.295 7.185-1.945 2.97-1.593 5.532-5.427 3.592-3.89 2.319-1.418M227.658 515.192l-1.496-3.565-3.114-3.402-2.514-4.375-3.892-3.888-.838-1.35-2.053-3.206M244.722 522.158l-17.064-6.966M249.092 581.21l-3.113-1.35-2.904-1.863-1.976-1.675-2.035-1.053-1.826-.135-2.335.918-2.246 1.08-2.454 1.593M221.132 532.635l.48-1.404 1.855-4.915.539-.918 1.437-2.106 1.138-1.512.898-2.646.18-3.942M213.229 550.51l-1.197-4.374-1.318-4.32.06-2.485 1.318-2.646 3.891-2.376 3.053-1.026 2.096-.648M227.568 542.14l-.598-.487-2.425-3.402-1.557-2.241-.958-1.728-.39-.81-.508-.837M245.8 539.871l.478-.54 1.497-3.294.718-1.296 2.156-2.214 2.035-2.43M227.568 542.14l3.443.647 1.676-.323 1.916-1.242 3.113-.702 2.216-.432 2.394-.433 3.473.216M252.265 576.593l.599-1.999 1.557-2.268.838-.864.988-1.377-.12-1.35-1.078-1.97-.987-2.674-1.048-1.511-1.976-.406-1.497.027-2.395.135-1.796.108-2.275-.81-8.86-6.507-.18-1.512-.15-1.242-.958-2.565-2.365-3.888-1.168-1.458-1.826-2.322M252.265 576.593l5.15 3.185 2.514 1.675 1.257.486 2.934 1.565 5.568 3.132-.539 3.672-.043.256M249.092 581.21l3.173-4.617" clip-path="url(#p05bcba0c8e)" style="fill:none;stroke:#000"/><path d="M236.58 600.244h1.915l1.317.081.749-.135.508-.729-.568-2.214-.659-1.431.18-1.971 1.796-2.727 2.155-2.457 2.066-2.889 1.107-1.43 1.946-3.133M396.077 581.182l3.951-2.808 4.67.216 6.945.648 3.353.432 4.55 1.404 6.58 2.07" clip-path="url(#p05bcba0c8e)" style="fill:none;stroke:#000"/></g><g id="PatchCollection_1"><path d="m343.4 344.852-.256-.141-.235-.02-.207.187-.769.989-.406.456-.014.167.1.128.206.168.292.154.242.186.25.135.27-.013.228-.141.22-.2.228-.25.406-.398.136-.173.035-.225-.164-.219-.15-.077-.092-.103-.014-.115.007-.154-.078-.142-.114-.109zM340.521 348.325l-.185-.108-.18-.135.018-.152.186-.318.132-.097.036-.157.21-.103.005-.173.221-.34.168-.092.096-.038.15.033.167.102.108.12.3.264.077.114.054.118-.036.114-.46.378-.12.081-.288.136-.074.074-.068.222-.125.1-.178-.03zM339.89 348.234l.154.05.284.168.126.095.064.111.03.118-.064.073-.072.05-.105.14-.342.282-.19.209-.067.03-.105.027-.083-.016-.123-.052-.129-.032-.108-.044-.092-.053-.01-.076.06-.06.207-.024.087-.046.02-.149.055-.086.09-.094.03-.17.113-.195v-.105l.066-.1zM339.135 349.682l-.173-.114-.098-.012-.118.1-.12.133-.1.15-.322.328-.178.156-.047.13.004.207.102.122.254.225.123.096.093.046.127-.023.118-.062.144-.053.123-.027.093.004.11-.065.126-.134.09-.11.169-.165.126-.168-.02-.176-.106-.183-.157-.157-.11-.092z" clip-path="url(#p05bcba0c8e)" style="fill:#00f;fill-opacity:.8"/></g><path id="PatchCollection_2" d="m346.056 364.821-.843-.58.97-1.145.842.58z" clip-path="url(#p05bcba0c8e)" style="fill:#90ee90;fill-opacity:.8"/><g id="PatchCollection_3"><path d="m361.058 349.7.642.462.335-.379-.642-.462zM361.56 349.08l.473.346.217-.242-.472-.346zM358.803 347.524l-.187.34.647.291.147-.25.059-.079zM360.419 348.605l-.244-.166.412-.496.553.373-.343.412-.308-.208zM362.228 348.654l.238.154.05-.062.19.122.292-.368-.43-.276zM362.797 348.092l.466.264.188-.272-.466-.263zM364.075 347.389l-.42.509-1.023-.687.42-.509zM361.332 347.082l-.472-.29.55-.728.473.29zM361.368 347.037l.23.143.064-.083.38.236.341-.448-.61-.38zM349.428 346.462l.128.085-.067.081 1.043.698.84-1.022-1.017-.68-.503.61-.154-.102zM350.949 345.072l.415.257.298-.39-.415-.258zM352.243 342.293l-.428.526.728.482.427-.525zM353.812 344.192l-.5-.257.254-.4.5.256zM354.552 343.16l.44.272-.36.475-.44-.271z" clip-path="url(#p05bcba0c8e)" style="fill:#a9a9a9;fill-opacity:.8"/><path d="m360.481 347.608-.379.511-.313-.189-.104.141-.275-.166.26-.351.085.05.223-.3zM356.224 346.53l.336.184.275-.407-.336-.185zM358.475 346.199l.31-.361-.58-.405-.31.36zM356.063 344.377l.456.286.209-.272.126.078.228-.298-.581-.363zM357.798 345.653l-.208-.128.209-.274.207.129zM359.964 344.662l-.349.396-.666-.478.353-.401.155.11.143-.162.362.26-.147.168zM357.506 343.41l-.174-.119.08-.093-.196-.134.306-.362.368.252zM360.809 340.243l-.451.531.436.302.451-.531zM360.295 341.098l-.216.281.433.272.216-.281zM356.526 358.702l-.311.367.431.297.311-.367zM356.716 359.471l.18.133.09-.1.154.113.251-.277-.334-.246zM357.101 359.771l.216.162.091-.1.122.092.243-.263-.337-.253zM357.533 360.091l.206.147.075-.086.15.107.246-.282-.355-.253zM356.282 359.97l-.204.243.333.225.322-.385-.213-.144-.118.142zM356.931 360.483l.193-.211.364.269-.28.307-.26-.193.087-.094zM355.593 361.443l.337.252.342-.373-.183-.136-.133.145-.154-.115zM356.406 362.017l-.326-.26.343-.348.325.261zM348.58 360.534l.629.524 1.531-1.495-1.393-1.16-1.221 1.193.763.635zM349.01 354.092l-.553.623 1.407 1.016.553-.624zM345.869 356.24l.759.514-.333.4-.155-.104-.585.704-.604-.408zM352.684 352.718l-.505.598-1.632-1.124.787-.931-.27-.187.363-.43.096.067.082-.097.506.348-.09.105 1.337.919-.333.393-1.038-.714-.306.363zM356.704 348.03l-.57.674-.443-.304.054-.064-.096-.066.515-.611zM355.065 347.684l-.285.62-.587-.219.106-.231-.377-.141.179-.39zM351.79 345.376l-.157.208.49.3.102-.136.303.185.197-.263-.667-.408-.143.19zM339.395 354.938l.336.37-.584.433-.336-.37zM337.83 355.941l-.44.472.264.2.44-.472zM341.286 353.105l.56.3-.332.504-.56-.301zM342.331 351.939l-1.105-.748 1.563-1.88 1.105.748zM338.533 342.41l-.289-.253.127-.118-.064-.057.173-.162.354.31zM338.088 342.245l-.163.169.118.092-.076.08.325.255.24-.248zM337.833 342.652l-.26.265.36.29.262-.264zM337.568 343.691l.29-.303-.328-.256-.29.303zM335.947 344.867l.297.232.282-.295-.362-.282-.129.134.065.051zM336.145 345.191l-.244.24-.326-.27.244-.24zM335.757 345.46l-.355.41-.299-.21.356-.411zM335.092 346.37l-.381-.29.351-.377.382.29zM334.961 346.385l-.42.423-.297-.24.42-.423zM347.764 348.824l.605.416.549-.65-.606-.416zM348.934 349.305l.246.167-.044.052.305.207.197-.236-.114-.077.155-.186-.438-.297zM345.497 351.364l.386.294.415-.446-.14-.106.054-.059-.245-.186zM348.424 351.25l-.632-.442.394-.458.632.442zM344.376 341.294l-.776-.12.107-.559.367.057-.024.125.41.064zM336.902 345.642l.3-.341-.341-.244-.3.341zM335.203 347.063l.295.21.563-.643-.295-.21zM336.106 350.127l-.387-.277.395-.448.386.277zM335.323 349.53l.273.21.334-.35-.273-.212zM334.846 349.154l.322.25.317-.333-.233-.18-.07.073-.09-.07zM334.178 348.992l.337.216.357-.454-.338-.216zM334.205 348.747l.133-.19-.161-.092.087-.123-.139-.08-.22.313zM337.083 345.739l.265.192.32-.36-.265-.193zM337.77 346.38l-.177-.123.117-.137-.145-.1.267-.314.131.09.137-.16.19.13zM338.382 346.46l-.356-.235.25-.309.357.235zM352.356 362.96l.271.183.064-.078.234.157-.068.082.371.25.46-.558-.355-.238-.073.088-.192-.13.098-.118-.328-.22zM351.53 370.507l.565-.681-.23-.156.279-.336.215.146.588-.71.913.617-.439.527-.331-.224-.178.214.169.114-.073.088.363.245-.167.201-.64-.432-.281.339.315.213-.296.356zM344.853 366.041l-.438-.304.752-.883.027.02.134-.157.582.407-.062.072.313.218 1.319-1.53.463.325-1.268 1.47.3.21 1.237-1.437.48.337-1.267 1.471.09.064-.129.149-.075-.053-1.008 1.18-.508-.353.963-1.127-.265-.183-.638.747.079.054-.273.32-.562-.39.941-1.106-.49-.34z" clip-path="url(#p05bcba0c8e)" style="fill:#a9a9a9;fill-opacity:.8"/><path d="m344.52 366.465-.39-.284.247-.276.39.283zM341.693 370.39l.639.44.11-.13.255.175.15-.175.156.051 1.54-1.826-.142-.097.163-.193-1.163-.8-.126.15-.141-.098-1.774 2.096.428.295zM346.388 351.788l.407.385.49-.422-.408-.385zM345.16 354.114l.396.266.29-.353.122.082.154-.186-.1-.067.465-.563-.418-.281zM333.125 348.204l.332.228.226-.269.099.068.234-.277-.43-.295zM335.751 347.246l.16.122.103-.108.106.082.132-.139-.266-.206zM336.192 347.544l.315.23.42-.47-.315-.23zM337.057 347.356l.313.228-.528.59-.312-.227zM340.667 345.108l.247.185.296-.322-.247-.185zM341.049 344.435l.32.23.22-.247-.08-.057.072-.08-.242-.174zM340.95 341.166l-.253.283.253.184.253-.283zM340.034 341.279l.113.078.062-.072.088.06.058-.067.087.06.271-.32-.642-.443-.237.28.264.182-.08.093.09.061zM341.973 342.412l-.411-.287.423-.494.412.288zM342.635 342.651l-.443-.233.275-.425.443.233zM343.072 341.843l-.203.301-.361-.197.203-.302zM343.09 341.183l.306.18-.236.33-.307-.18zM341.16 343.761l.522.398.308-.33-.614-.467-.091.097.092.07zM343.183 348.413l.128.359 1.192-.344-.127-.36zM357.32 356.17l-1.053-.775 1.341-1.484 1.054.775zM335.297 379.058l.672.483 2.62-2.96-.671-.483zM342.575 354.58l.5.328.41-.508-.5-.329zM339.87 363.11l.441.325.424-.469-.441-.324zM343.648 359.048l.307.201.111-.137.163.107.651-.807-.47-.308zM342.265 355.974l.598.145.156-.523-.598-.145zM343.075 354.908l-.16.238.349.213.407-.545-.349-.212z" clip-path="url(#p05bcba0c8e)" style="fill:#a9a9a9;fill-opacity:.8"/></g></g></g><defs><clipPath id="p05bcba0c8e"><path d="M90 101.092h558v525.016H90z"/></clipPath></defs></svg>