<svg xmlns="http://www.w3.org/2000/svg" width="960" height="960" viewBox="0 0 720 720"><defs><style>*{stroke-linejoin:round;stroke-linecap:butt}</style></defs><g id="figure_1"><path id="patch_1" d="M0 720h720V0H0z" style="fill:#fff"/><g id="axes_1"><path id="patch_2" d="M91.264 640.8h555.472V86.4H91.264z" style="fill:#fff"/><g id="LineCollection_1"><path d="m151.027 278.056 6.166 1.303 18.45 2.874 2.896.544 2.688.668 7.603 2.212 11.918 3.462 1.759.641.573.388" clip-path="url(#p3e2b9f66c6)" style="fill:none;stroke:#000"/><path d="m220.892 340.445-4.971-5.954-3.895-4.592-.486-.636-.631-.975-1.085-1.83-2.672-5.26-2.08-4.117-.616-1.514-.316-1.25-.137-.764-.073-.782.064-1.249.907-7.661.397-3.505.343-4.527-.047-1.6-.425-1.772-.538-.98-1.551-1.329M263.33 306.934l-1.049.157-.413.193-.712.508-1.004.95-.591.468-.397.217-.413.065-.915-.153-3.53-.669-1.773-.427-.623-.266-.656-.523-2.348-2.023-1.288-1.127-.752-.556-.997-.62-1.303-.589-.98-.386-4.412-1.491-8.307-2.811-7.45-2.66-3.221-1.208-1.061-.338-1.433-.427-3.83-.902-3.676-.766-3.23-.95-1.538-.347-.786-.145-1.562.04M228.277 348.968l-3.628-4.238-3.757-4.285" clip-path="url(#p3e2b9f66c6)" style="fill:none;stroke:#000"/><path d="m223.984 346.39-1.125-1.087-1.295-1.281-.737-1.031-.21-.573-.098-.571-.032-.492.09-.37.315-.54M268.564 384.69l-7.692-7.09-4.436-4.157-2.559-2.304-3.093-2.682-5.78-4.778-2.252-1.78-6.088-5.052-2.534-2.15-1.555-1.298-1.562-1.458-1.45-1.466-1.286-1.507M223.984 346.39l.6.58.672.798 1.198.934.506.266.482.137.227.033.222.02.19-.063.196-.127M302.116 414.65l-3.23-2.706-4.43-3.762-4.711-4.141-3.887-3.553-5.125-4.689-5.708-5.293-3.44-3.11-3.021-2.706" clip-path="url(#p3e2b9f66c6)" style="fill:none;stroke:#000"/><path d="m263.33 306.934-.782.689-.299.362-.381.589-.162.54v.595l-.04.508-.138.91-.016.975-.081 1.096.024.644.106 1.152v1.551l.064 2.2.057.399.186.455.085.2.025.311-.028.524.088.725.138.733.024.709.17.959.114.548-.033.395.008.853.187 1.725.218 1.24.024.822.04 1.184.179 1.28.284 1.588.032 1.088.04 1.047.154.87.146.556.032.83.13 1.845.097 1.023.154.91.121 1.177.073 1.546-.008 2.296-.114.508-.105.274-.445.604-.267.62-.267 1.056-.288 1.35.024.237.066.181.087.14.16.17.137.21.097.395.09.54.015.547-.121.83-.251.83-.024.257.162.315.283.491.405.733.461.645.842.878.332.363.203.426.13.492.048 1.055.048 1.104-.065 1.112-.032 1.224.057.693.138.79.3 1.539.088.62.025.652-.066.653v.524l.17.749.146.644.13 1.112.13 1.281.113.814.056.475.308.797.154.573.113 1.41.656 4.656.065 1.506.008 1.032M371.18 430.467l1.995.139M371.18 430.467l-.393-.175-.35-.138-1.11-.349M369.269 430.466l.613-.021 1.298.022M373.235 427.033l-.088 2.151.028 1.422" clip-path="url(#p3e2b9f66c6)" style="fill:none;stroke:#000"/><path d="m378.636 430.771-3.773-.096-1.688-.07M380.709 430.892l-.106 2.57M380.709 430.892l-2.073-.12M380.709 430.892l6.145.21M367.746 430.945l.38-.335.179-.07.093-.024.107-.011.393-.04M364.848 432.052l1.109-.225 1.016-.275.38-.152.211-.202.182-.253M368.735 429.933l-.274-.035-.076.007-.07.012-.16.077-.116.133-.293.818M394.902 431.198l-8.048-.097M394.902 431.198l3.158.016M394.902 431.198v-2.924M394.902 431.198l.154 2.723M398.06 431.214l6.285-.025M398.06 431.214l.307-2.98M386.765 427.645l-.065 1.168.04 1.007.114 1.281M386.983 433.734l.025-1.037-.008-.504-.049-.564-.097-.528M404.345 431.189l.673-.013M404.345 431.189l-.171 3.422M419.5 434.072l.18-2.955M419.5 434.072l-.188 1.921M414.04 433.055l2.224.495 3.236.522M423.226 434.184l-2.286-.11-1.44-.002M423.226 434.184l.037-2.946" clip-path="url(#p3e2b9f66c6)" style="fill:none;stroke:#000"/><path d="m419.312 435.993 2.898.271.422.016.126-.059.093-.113.09-.285.285-1.639M427.156 431.58l-.139 1.504-.101.91-.163.322-.267.145-.461.016-.538-.137-.62-.088-1.64-.068M414.058 435.45l2.62.154 1.275.122.675.109.684.158" clip-path="url(#p3e2b9f66c6)" style="fill:none;stroke:#000"/><path d="m536.947 582.578-4.745-1.684-3.668-2.948-1.15-1.99-1.384-3.488-.42-1.74-.462-3.207-.243-2.44-.162-2.635-.146-.926-1.457-5.647-1.992-3.722-.445-1.241-1.295-2.723-10-17.916-1.384-4.979-.405-.877-.283-.83-.567-2.248-.421-6.018 1.449-11.568.146-.934.04-1.547-.372-1.467-.534-1.482-1.247-2.53-2.26-3.028-1.214-.879-2.429-1.587-3.344-2.263-1.45-.878-.865-.605-1.902-.466-1.725-.492-1.847-.37-6.274-.799-5.222.919-3.814.926-5.36 2.788-9.068 6.863-4.485 1.426-1.563.017-3.887-.33-4.363-.484-1.895-.661-2.761-1.394-4.113-3.915-1.481-2.94-.616-6.525.397-6.155v-6.969l-.065-1.506-.089-1.249-.105-.838-.235-.668-.373-.62-.347-.403-.268-.532-1.044-1.837-1.117-1.49-8.753-7.871-2.34-4.133-.878-3.762.667-7.088M351.35 438.714l-5.61 3.046M351.35 438.714l-.35-.516M362.216 432.946l-3.036 1.378-1.79.902-3.044 1.797-2.995 1.691M341.133 444.322l2.17-1.168M341.133 444.322l.915 3.939M329.029 448.817l.98.185 1.028.073.914-.121 1.296-.363 1.134-.572 4.607-2.53 2.145-1.167M326.774 448.068l1.332.47.923.279M238.866 505.668l.616.153 2.064.302 1.4.048 3.822-.012.7.09.487.177 1.372.958 2.028.923 1.899.552 1.255-.005.635-.274.632-.487 1.457-.395.044-.201-.728-3.412-.004-.39.312-.939.28-.274.85-.473.201-.437-.125-.882-.25-.822.015-2.022-.805-4.75-.021-2.424.673-.73.578-.398.85-.568.612-.012 1.234.165.75-.169 2.153-.942.194-.319.215-.842.134-.088.59-.185 1.988-1.007.437.169.102.177.08 1.228.418.339 1.158.262.262-.073.34-.258 1.53-1.603.608-.499 1.984-2.353.526-.556.42-.87.47-.805.324-.354.275-.564.357-1.378.243-.395.566-.338.462-.064 2.534.2.664-.072 3.668-1.595 1.376-.99.907-.476 2.389-1.644.55-.716 1.19-2.014.632-.645 2.866-1.877 2.749-1.498 2.27-.794 1.697-.1.43-.198.85-.612.639-.217.984-.13 1.813-.922 1.194-.012 1.761.241.604-.258 1.222-.95 1.28-1.353 2.36-1.193 3.19-2.847.898-.73.862-.221 1.83.197 2.401-.543.874-.38.871-.51.846-.637.923-.947.328-.544 1.06-2.594.36-.668.422-.576M456.864 624.806l1.077 2.135 1.053 1.699.55.967.462.394.542.137 1.595-.064 2.178-.088 1.069-.315 1.19-.33.712-.088 1.83-.065 1.32-.105.875.057 1.173.266 2.138.225 1.83.338 2.073.017 3.384-.097 3.222-.048 2.793-.282.94-.048.745.12 1.74.363.729.105.575-.009.478-.153.575-.5 1.44-2.44 1.142-2.223.6-.693.647-.548 1.004-.677.778-.419.777-.112.987.177.916-.008 1.4-.073 2.089-.435.915-.459 1.95-.95.778-.428 1.07-.99.695-.596 1.037-1.386.648-.491 1.668-1.031 2.526-1.249 2.226-1.53 1.142-.903.603-.326.595-.27 1.352-.604 1.927-.846 1.287-.435 1.433-.411.867-.314.98-.443 1.028-.427.615-.137 1.882-.262.798-.068h.745l.562.048.45-.089.287-.193.219-.274.385-.753.178-.544.113-.781.048-1.24-.088-2.555-.17-1.36-.106-.71.025-.636.178-.838.137-.58.324-.548.421-.588.227-.346.21-.629.211-.636.243-.604.267-.435.122-.366.105-.537.088-1.12-.007-1.4-.057-.702-.251-.975-.907-1.49-.526-3.971M369.269 430.466l.109-.084.073-.116.028-.133-.019-.136-.064-.12-.068-.072M368.898 430.466l.067.028.122.016.182-.044M369.328 429.805l-.153-.058-.146-.019-.083.027-.07.037-.066.042M368.81 429.834l-.075.099M368.05 426.5l-.126.952-.028.7.121.589.162.327.63.766M368.735 429.933l-.04.116-.003.123.036.118.07.102.1.074M414.04 433.055l-2.848-.928M414.04 433.055l.636-2.979M413.39 435.36l.288-1.294.162-.572.2-.439M419.968 427.689l-5.14-.395M419.968 427.689l.214-3.801M419.968 427.689l-.287 3.428M420.182 423.888l-4.25-.372M420.182 423.888l2.353.14M420.182 423.888l.552-5.749M424.867 411.22l-.794 5.88-.105.773-.13.588-.161.153-.364.04-.494-.088-2.085-.427M424.867 411.22l-1.368.603-.705.395-.591.709-.478.83-.396.757-.326 1.218-.269 2.407" clip-path="url(#p3e2b9f66c6)" style="fill:none;stroke:#000"/><path d="m406.41 415.526 4.055.748 10.27 1.865M406.41 415.526l.05-3.095M406.41 415.526l-1.514-.085M409.352 426.828l.04-1.878-.119-.398-.259-.323-.413-.314-.509-.509-.421-.547-.39-.603-.299-.637-.17-.978-.308-2.679-.094-2.436M404.896 415.441l.127 8.874M404.896 415.441l-2.996-.005M401.9 415.436l-.062-2.98M394.172 416.43l2.412.028.617-.027.608-.08 1.473-.368 1.138-.396.676-.13.804-.02M394.172 416.43l.114 1.527M394.172 416.43l-.014-1.238M394.152 389.522l.434-1.868M394.586 387.654l3.498.992.688.221.134.125.046.088.014.117-.042.095-.067.079-4.705.15M394.16 392.329l-.201-.685-.061-.695.08-.765.174-.662M394.16 392.329l4.467-.091M394.722 399.756l.25-2.308.216-1.537-.06-.845-.206-.72-.763-2.017" clip-path="url(#p3e2b9f66c6)" style="fill:none;stroke:#000"/><path d="m399.46 362.253-2.501 1.426-.745.443-.753.636-.64.879-1.255 2.167-1.53 2.11-.575.702-.405.636-.397.814-.25.934-.138 1.273.008.652.105.629.283.653.81 1.216 1.646 2.369 1.47 2.38.236.44.195.556.137.91.049.724-.047.605-.577 2.247M394.347 402.634l1.659-.2M394.13 410.582l-.047-5.675.09-1.196.174-1.077M394.722 399.756l-.142 1.096-.233 1.782M396.006 402.434l1.522-.151.264-.091.19-.201.086-.44.016-.934-.057-.58-.065-.33-.258-.194-.506-.091-2.476.334M394.145 412.396l-.016-1.814M394.145 412.396l.013 2.796M385.603 413.172l.053-.616.008-1.24.13-.339.266-.104.462.032 1.093.257 1.26.323 5.27.911M406.46 412.43l.215-2.872M406.46 412.43l-4.622.026M409.352 426.828l3.025.284M405.638 426.542l.85.016 2.864.27M414.676 430.076l5.005 1.041M414.676 430.076l.151-2.782M414.827 427.294l-2.45-.182M404.343 427.081l.352-.245.4-.182.543-.112M405.018 431.176l.199-.912.121-.58.202-.895.098-2.247M398.367 428.233l3.19-.33 1.12-.152 1.078-.352.588-.318M403.897 424.431l.125 1.33.09.479.231.841M398.367 428.233l-3.465.04M419.68 431.117l3.583.12M394.74 424.761l5.716-.326M394.74 424.761l-5.886-.072M394.74 424.761l.162 3.513M394.74 424.761l-.103-2.42M406.557 424.238l-1.534.077M379.308 424.223l-.167 2.364M379.308 424.223l.063-2.27M379.308 424.223l5.983.345M379.308 424.223l-11.405-.211M367.903 424.012l.01-1.043M367.903 424.012l.147 2.489M379.473 419.897l-.102 2.056M379.371 421.953l-5.01-.213-.429-.12-.267-.226-.073-.29.04-.508.21-.66.216-.238.259-.137 5.156.336M379.473 419.897l.068-.517M379.625 416.566l-.023 2.064M379.371 421.953l3.212-.024M378.086 440.503l.153-3.456M378.239 437.047l.09-1.337M392.397 438.292l-4.045-.657-1.595-.137-1.458-.17-1.352-.185-1.7-.12-.89.008-3.118.016M392.397 438.292l3.22.415M394.1 442.02l-.097-.53-.069-.27-.1-.225-.236-.302-.393-.468-.287-.431-.174-.338-.117-.33-.23-.834M378.328 435.71l-4.566-.186M378.328 435.71l.116-2.48M362.961 432.64l-.745.306M364.848 432.052l-1.004.266-.883.322" clip-path="url(#p3e2b9f66c6)" style="fill:none;stroke:#000"/><path d="m378.444 433.23-3.694-.098-6.996-.29-4.793-.202M378.444 433.23l2.16.232M378.444 433.23l.192-2.459M404.174 434.612l-8.34-.643M413.39 435.36l-6.516-.662-2.7-.087M413.39 435.36l.668.09M395.056 433.92l.777.05M386.983 433.734l1.839.082 3.95.105h2.284M395.617 438.707l.127-.975.09-3.763M394.1 442.02l.288-1.051.125-.339.181-.31.923-1.613M404.512 553.424l-.323-3.77-.316-2.65-.04-1.137.088-1.111.437-1.974.349-1.007.445-1.716.77-2.78.375-1.123.256-1.196.186-1.571.008-1.402-.113-.725-.733-2.735-.239-1.083-.291-1.024-.081-.588.032-.604.137-1.04.054-.418.02-.282-.04-.33-.256-.87-.887-3.295-.574-1.942-.284-1.007-.097-.636.008-1.627.276-1.467.024-.378-.105-.524-.826-2.264-.94-1.466-.76-1.208-3.36-4.028-2.17-2.49-.584-.773-.275-.604-.13-.588-.064-.515.113-.718.284-1.53.133-.885.037-.348-.008-.354-.195-1.217-.089-1.33.138-4.776.024-4.778-.024-5.614-.04-4.222-.13-5.768-.08-5.575-.082-5.832-.032-4.745-.098-1.837-.13-1.805-.169-2.175-.041-1.946M386.983 433.734l-4.242-.224-2.138-.048M414.058 435.45l.024 1.67-.024.749-.067.588-.456 1.398M427.156 431.58l-1.332-.114M427.156 431.58l.136-2.508M405.018 431.176l1.774-.029.934.01 1.044.161 2.422.809M412.377 427.112l-.25 1.622-.344 1.632-.59 1.76M403.897 424.431l1.126-.116M403.897 424.431l-3.441.004M379.094 429.036l-.015-1.86M378.636 430.771l.162-.37.145-.54.151-.825M385.105 427.605l-.033.403-.088.427-.146.395-.227.21-.59.104-4.927-.108M379.141 426.587l-.062.59M379.141 426.587l5.992.12M385.133 426.707l-.028.898M385.133 426.707l.158-2.139M388.854 424.689l-3.563-.121M386.765 427.645l1.96-.137.315-.128.105-.194-.032-.604-.26-1.893M364.848 432.052l.283-3.673M365.145 426.182l-.03-1.223.195-2.847M365.145 426.182l-.014 2.197M365.145 426.182l2.905.319M379.079 427.176l-5.844-.143M368.05 426.5l1.623.114 1.166.08 1.15.158 1.246.181M362.216 432.946l1.214-3.71.203-.624.195-.25.291-.105.478.033.534.089M385.291 424.568l.027-1.662M379.541 419.38l.061-.75M385.226 418.912l-2.307.017-2.065.169-.51.072-.803.21M385.226 418.912l2.988.34M385.318 422.906l-.049-.92-.043-3.074M385.603 413.172l-.296 3.203-.072 1.28-.009 1.257M394.637 422.34l-1.055.23-1.195.147-2.364.016-4.705.173M400.303 422.691l-.377-.536-.187-.117-.36-.088-.429.004-4.313.386" clip-path="url(#p3e2b9f66c6)" style="fill:none;stroke:#000"/><path d="m394.286 417.957.032 1.43.32 2.953M400.456 424.435l-.153-1.744M399.432 410.07l.194.307.044.17.057.225.029.383-.065.551-.028.319.076.18.11.106.158.06.296.036.242-.06.307-.036.345.056.641.09M400.837 409.984l.15-.054.204-.03.253.014.198.097.09.249.08.334.037.52-.01 1.342M479.21 316.477l-3.157 2.44-1.935 1.306-1.223.717-.728.524-.389.491-.267 1.136-.218 1.7-.818 4.198-.074.966-.048 1.04.17 1.111.137.677.082 1.007v.83l-.34 2.715-.179 2.062-.17.951-.153.693-.462.943-.558.789-.608.588-.753.765-.405.516-.04.419.04.515.324 1.088 2.049 6.357 1.093 2.956 5.926 16.46.859 1.884 1.764 3.521 1.345 2.836.267.757.178.862.025 1.08-.114.918-.445.813-.373.476-.542.483-.607.258-1.685.322-2.534.508-2.064.08-.794.073-.47.233-.258.347-.146.58.065 1.281.34 2.852.092 2.66-.1 1.118-.122.588-.437.54-.437.314-.591.202-1.709.145-1.668.225-4.08 1.007-3.117.323-2.535.144-6.623.154-1.182.064-.923.17-3.62.829-1.116.234-.94.088-.566-.08-.623-.282-1.507-1.032-2.04-1.425-1.878-1.37-1.085-.79-1.271-.716-1.66-.773-.786-.226-.85-.073-.615.105-.656.322-.607.645-.316.83-.227.813-.137 1.184-.073 3.892-.534 3.375-.421 2.095-.292 1.458-.275.685-.324.572-.235.386-.364.218M344.533 458.815l-2.623.66M344.533 458.815l.774 2.788M348.501 457.896l-.607.149-2.122.391-1.239.379M343.829 455.625l.13.233.574 2.957M345.319 442.01l-2.016 1.144M345.319 442.01l.421-.25M345.319 442.01l-.056-.508M340.283 455.069l2.833-.768M343.465 454.206l-.591-2.956M343.465 454.206l4.936-1.412M343.465 454.206l-.349.095M349.603 457.221l-.619-2.088M349.603 457.221l.451.599M348.501 457.896l.328-.173.774-.502M351 438.198l-1.573-1.799M351 438.198l-5.737 3.304M349.427 436.4l-1.651-1.903M349.427 436.4l-4.458 2.273M347.776 434.497l-2.883 1.715M345.691 433.694l.42-.123.584-.093.283.08.244.25.554.69M344.969 438.673l-.076-2.461M344.969 438.673l.294 2.829M344.618 422.492l-.074 1.728-.014 3.255.219 3.234.144 5.503M302.67 415.178l-.554-.527M326.774 448.068l-3.874-1.688-2.692-1.12-4.895-2.058-1.097-.54-.615-.395-.539-.523-.388-.552-.3-.564-.279-.613-.546-1.465-.697-1.954-.583-2.026-.935-2.784-1.069-3.13-1.323-4.023-1.308-3.698-1.117-3.352-.272-.52-.315-.527-.518-.66-.742-.698" clip-path="url(#p3e2b9f66c6)" style="fill:none;stroke:#000"/><path d="m267.269 426.759 3.076-2.675.332-.185.454-.169.753-.241.607-.395.405-.443.939-.782 1.66-1.152.461-.42 2.826-2.875 1.611-1.45 1.174-.822 1.328-.652.437-.218.77-.805 1.392-1.523.729-.451.68-.137.526-.057.988.081 2.235.443 3.61 1.071 2.081.468 1.393.21.583.225.704.41.623.243 1.272.41.907.218.845.092M294.238 325.549l.575.257 1.296.347 1.95.45 2.244.573 2.946.693.907.177 2.073.185 3.781.008 3.66.129.704.024.478.153.493.5.454.652.275.822.065.797v1.056l.04 1.99.049.629.243.636.34.7.413.798.089.395v.54l-.138.66-.21 1.007.056.758.195.813.315.91.592 1.096.445.701.316.621.137.604.591 2.328.85 4.496 1.102 5.253.227 2.996-.05.548-.08.532-.105.282-.356.395-1.482 1.732-2.543 3.239-.283.21-.656.354-.364.265-.267.782-.535 2.28-.623 2.53-.202 1.208-.332 3.972-.203 1.328-.121 1.499-.146.556-.182.242-.466.322-.542.314-1.749.983-2.13 1.378-.388.298-.21.37-.13.484-.016.547.089.83.227.975 1.797 5.051 2.024 4.89.364.734.065.265-.105.314-.349.34-.76.539-2.3 1.635-2.947 2.168-1.141.982-1.506 1.265-.883.588-.43.25-.21.338-.056.46.032.837.105 1.676.316 1.651.089.516.065 1.394M117.844 276.605l-2.757.307M117.844 276.605l1.606-.962M122.51 274.976l-2.151.881-1.378.458-1.137.29M115.087 276.912l-.075-.635M109.122 277.403l3.6-.326 2.365-.165M345.685 463.524l-.378-1.921M400.303 422.691l2.129-.322M486.392 313.173l-.655-.41-.762-.339-.712-.096-.575.096-.826.758-1.44 1.555-2.212 1.74M471.762 309.283l1.595 1.111.753.717 1.142 1.096.922 1.047.697 1.072.51 1.128.324.547.364.202.567.161.574.113" clip-path="url(#p3e2b9f66c6)" style="fill:none;stroke:#000"/><path d="m516.56 326.063-3.846-.08-1.595.12-1.1.227-1.305.387-1.052.177h-1.126l-1.036-.162-.947-.346-.753-.58-.583-.862-.72-1.426-.382-.966-.428-.508-.543-.282-.834-.113-.996-.032-.914-.057-1.07-.29-1.125-.386-.793-.451-1.377-.983-1.109-.959-1.085-1.144-.777-.653-1.943-1.224-1.077-.758-.583-.475-1.069-1.064" clip-path="url(#p3e2b9f66c6)" style="fill:none;stroke:#000"/><path d="m487.137 304.948-.575 1.845-.243 1.112v.886l.016.918.13.774.162.919-.235 1.771M636.054 346.274l-2.517 1.644-.865.351-2.202-.117-1.77.196-2.36.235-.864.078-3.303.783-2.556.352-4.955-.235-2.044.821-2.478.548-1.73.274-2.36.587-1.887-.196-2.714.235-1.14.04-.786-.666-1.14-.547-3.736-1.448-2.006-1.135-1.455-.587-.943-1.291-.748-.743-1.808-.549h-1.416l-1.376-.273-1.534.078-2.28.509-1.377.586-1.77.51-2.005.469-1.533 1.174-1.102.547-1.18.235-.943-.274-1.376-1.174-3.5-3.6-2.006-1.33-4.718-1.643-3.932-1.017-4.759-.353-3.814.314-3.028.9-2.595.743-4.601 1.37-1.455-.627-1.612-3.052-.747-1.017-1.298-1.017-1.022-1.996-2.68-2.711-4.555-3.98-2.314-1.11-1.652-.747-1.4-.225-1.547-.13M525.733 308.066l-.291.95-.664.661-1.069.468-1.222.458-.9.436-.963.387-.575.145-.89.088-.907.121-.575.395-.915.87-.761 1.047-.744 1.007-.398.926-.785 2.112-.26.596.033.29.122.29.389.467.372.5.332.572.162.515.089.725.049 1.031.178.685.259.491.291.508.211.492.259.764M385.105 427.605l1.66.04M423.263 431.238l2.561.228M423.263 431.238l.244-1.313M382.522 411.348l1.173.649 1.908 1.175M383.368 415.565l.142-.54.15-.442.514-.643.486-.413.397-.27.262-.085h.284M382.522 411.348l-1.441-.798-3.496-2.106-.537-.278M435.447 421.047l-1.735-.224-1.354-.098-1.459.097-.656.12-.453.178-.335.256-.416.448-.403.467-.482.432-.336.415-.13.39-.056.448-.14 1.252-.201 2.919v.925M425.824 431.466l.687-1.291.323-.5.458-.603M411.038 345.657l-.227 1.386-.336.814-.514.974-.475.858-.99 1.777-1.98 2.344-.234.242-.179.318-.206.616-.09.46-.04.475.081 1.168-.032.79-.09.45-.186.42-.413.491-.518.419-.655.33-.786.314-1.23.416-2.478 1.534" clip-path="url(#p3e2b9f66c6)" style="fill:none;stroke:#000"/><path d="m406.998 375.296-1.441-1.289-.745-.226-1.166-.185-.575-.04-.194-.258-.049-.314.008-.435.276-.991.655-2.191.146-.967-.049-.709-.315-.918-.737-1.29-.664-.918-.834-.773-.68-.62-1.174-.92M487.137 304.948l-.664.443-2.478 1.297-2.963 1.684-.769.258-.567.104-1.125.081-1.506-.048-2.032-.024-1.198.04-.591.113-1.482.387M411.038 345.657l.21-.773.284-.605.64-.83.818-1.03 1.764-2.104.867-1.256.826-1.378 1.578-2.618.43-.685.518-.596.542-.427.608-.379.745-.459 1.473-.902 1.255-.862.712-.637.81-.838 1.433-1.764.818-.652 1.797-1.298 2.227-1.377.615-.46 1.644-1.36 1.538-1.572.542-.653.737-.684 1.198-.846 1.66-.822 1.976-1.216 1.57-1.032 1.604-.967.818-.58.582-.644.737-.927.445-.434.745-.46.883-.362 1.239-.339 1.295-.104 2.745.185 4.056.209h2.26l1.667.427.866.194 1.028.12 1.231-.04 1.036-.217 1.272-.46.963-.612 1.053-.612.947-.306 1.417-.33M611.303 255.258l-2.729-.885-3.133.04-4.286 2.374-1.859.584-6.61-.885-4.912-.503-5.397.844-6.732 1.429-1.98-.06-6.348 2.513-2.527.624-2.93-.06M487.137 304.948l.114-.225.186-.339v-.41l-.138-.532-.292-1.032-.323-1.095-.3-.774-.429-.58-.818-.95-.445-.822-.09-.588.05-.484 1.12-7.584.991-1.589 2.103-1.75 1.05-1.227 2.224-4.988.526-1.85.748-1.167 1.495-.624 2.144-.06 1.495.14 1.92-.462 2.002-.624 2.426-2.152 2.142-.844 2.305-.322.808.241 1.233.885 1.051 1.991.647.946 1.78 1.347 2.506.583 3.74.423 4.245.965 1.556.021 4.184-.966 2.183.705 2.931 1.649 1.173-.04 5.094-2.092 5.255-3.3 1.92-1.649 3.559-2.836 3.376-1.307 2.971-4.506 2.304-3.802M561.64 209.533l-.072 2.298-.486 2.256-.032 1.837.162 1.773.518 2.868-.032 1.29-.421.934-1.264 1.644-.356.741-.68 2.127-1.749 3.062-1.683 5.899-.94 5.64-.194.612-.454.87-.161.71.259.87 5.57 9.346 2.361 3.327.554 1.67-.68 1.965" clip-path="url(#p3e2b9f66c6)" style="fill:none;stroke:#000"/><path d="m624.945 310.37-6.769-9.282-2.623-4.22-1.296-1.741-.777-1.966-1.878-5.414-.551-3.223-.712-.838-2.462-1.934-2.073-2.578-.68-.709-1.069-1.869-.064-.612.097-.644.324-.935.907-1.644.226-.612.356-2.772 1.004-2.674-.162-1.45-.161-.259-.81-2.448.725-3.605 2.388-1.908 1.266-1.008 1.152-.767M342.048 448.261l1.405-.334.49-.093.161-.149.077-.197v-.274l-.117-.637-.761-3.423M342.048 448.261l.397 1.37M348.4 452.794l-1.648-7.087-.348-1.337-.664-2.61M348.4 452.794l.584 2.339M345.307 461.603l4.133-1.137.275-.076.275-.037.555.02.26-.007.153-.118.089-.173.04-.306-.044-.552-.324-.693-.665-.704M348.501 457.896l.587.037.583-.025.383-.088M343.829 455.625l.53.164.644.206.434.096.481-.028 3.066-.93M342.874 451.25l-.43-1.62M342.874 451.25l-3.247.668M343.157 460.812l.218.347.308.362.34.153.509.063.775-.134M339.328 450.412l3.117-.782M329.019 438.313l-.46.522-.162.23-.115.268-.998 7.33-.133.535-.154.427-.223.443M383.368 415.565l-.089.483-.146.242-.202.097-.377.036-.493.068-.421.093-.308.226-.121.338-.081.338-.219.444-.295.354-.251.206-.763.14M392.365 415.207l1.793-.015M394.286 417.957l3.897-.381M163.767 159.742l.122-.473.12-.498 1-3.466 1.55-5.277.089-.287.063-.193.09-.175.784-1.946.097-.278.091-.28 1.014-3.65.595-2.06 1.263-4.618 1-3.465 1.21-5.035.709-2.981.239-.937.144-.292.213-.275.18-.105.182-.072.15-.021.294.014.282.082 3.87 1.517.292.042.225-.025.183-.075.197-.147.471-.496.534-.703.168-.27.146-.286.928-1.88.283-.486.31-.496.239-.318 1.072-1.403.128-.195.12-.211.884-1.78.127-.25.125-.27 1.025-2.385.158-.306.164-.341.584-1.07.11-.273.077-.278.334-1.675.07-.247.062-.202.06-.148.551-1.342.836-2.012.67-1.916.73-1.712.982-2.75.559-2.003M113.783 192.636l-.21.119-.389.175-.38.108-.437.09-2.923.104h-.205l-.242.036-.237.06-1.24.307-.246.035M111.864 248.527l-1-.716-.099-.1-.09-.125-.061-.232-.035-.328-.026-4.782-.251-2.707-.32-2.57-.494-3.182-.393-2.022-.428-3.4-.15-1.16-.053-.862-.008-2.982-.093-3.182-.121-2.207-.181-.9-.12-.44-.166-.45-1.522-3.963-1.805-4.614-.148-.47-.044-.24.006-.223.083-.389.682-2.543.1-.812-.017-.314-.03-.308-.094-.718-.332-2.34-.116-1.178v-.37l.056-.295.057-.207.396-.713.433-.669.673-.89 1.12-1.254M123.58 188.327l-1.04.27-.41.123-.473.164-1.7.549-.432.148-.426.182-3.085 1.604-2.23 1.269" clip-path="url(#p3e2b9f66c6)" style="fill:none;stroke:#000"/><path d="m111.941 158.265.693 4.009.36 2.368.318 2.549.024.407.006.493.11 4.804.266 11.97-.115 6.067.008.151.015.158.157 1.395M158.032 184.906l.663-1.962 1.338-3.614.156-.41.167-.454.917-2.524.393-1.067.137-.443.126-.512.142-.93.615-5.737.81-6.099.271-1.412" clip-path="url(#p3e2b9f66c6)" style="fill:none;stroke:#000"/><path d="m218.066 123.762 5.368-7.79-.032-.259-.057-.25-.267-.225-2.275-1.176-5.012-2.673-.133-.109-.063-.069-.047-.138-.097-2.192-.17-.225-.154-.121-.194-.129-3.866-1.35-1.247-.39-.166.016-.142.048-.125.178-5.287 9.7-6.757 12.307-.257.157-.245.084-.19.005-.137-.029-1.385-.7-.43-.103-.256-.018-.25.02-.222.064-.21.129-.794.677-3.174 3.062-1.433 1.264-1.913 1.47-.81.587-.34.266-.228.252-.255.31-.231.39-2.101 3.678-1.664 3.102-.951 1.918-2.247 4.491-2.62 4.83-2.242 3.924-.253.3-.105.11-.114.074-.125.052-.202.048-2.423-.068-4.872-.016-.13.02-.14.038-.12.06-.507.379M110.649 149.339l.317 2.566.975 6.36M117.97 157.222l-2.22.27-1.594.306-2.215.467M110.649 149.339l-.493-3.993-.866-7.565-.462-3.658-.291-2.223-.267-1.322-.883-3.448-.761-2.844-1.597-6.532M183.298 184.34l.658-.245.405-.1.38-.037.36.07.551.229 1.534.455 1.814.46.405.176.287.198.53.688.405.879.146.511.097.23.085.129.172.13.251.115 1.233.198.567.137.704.21 1.628.749 2.44 1.245 2.3 1.264 5.46 2.712 4.017 1.836.421.206.425.237.445.222.717.25 1.481.455 2.713 1.072.408.149.531.137.437.108.648.214 1.06.451.924.415.364.193.47.359.417.375 1.185 1.284.55.705 1.353 2.111.373.693.21.335.291.322 1.474 1.542.947.96.85.757 1.474.95 2.324 1.322 2.607 1.603 2.712 1.636 2.64 1.643 2.494 1.49.607.363.445.355.672.636.794.79 1.287 1.168.502.757 2.356 3.367.94 1.58" clip-path="url(#p3e2b9f66c6)" style="fill:none;stroke:#000"/><path d="m233.199 178.089-.17-3.166-.049-.673-.166-.407-.409-.097-1.781.234-2.465-.273-.713-.13-.96-.072-1.805-.016-2.295-.008-.377-.008-.352.024-1.093.125-.352-.032-.348-.073-.442-.23-.46-.273-.366-.15-.586-.108-.98-.009-3.822.162-10.622.338-4.955.202-6.016.193-4.299.068-1.38.081-.442.161-.417.254-.291.266-.3.399-.194.378-.304.903-.146.7-.113.694-.152 1.696-.057.686-.079.592-.319 1.948-.025.584.094.737.107.55M183.381 186.01l-.024-1.298-.027-.187-.032-.186M215.427 215.27l-4.972-4.229-3.27-2.24-3.037-2.086-3.667-3.062-4.915-3.778-1.34-1.132-.709-.508-.833-.447-2.664-1.233-2.186-1.164-.38-.205-.17-.135-.153-.145-.196-.28-2.574-6.458-.98-2.159" clip-path="url(#p3e2b9f66c6)" style="fill:none;stroke:#000"/><path d="m158.032 184.906.656-.047.387-.042.344-.033 2.777-.113 1.814-.062.29-.003.28.015 2.887.107 2.267.02 2.717.012 4.266.057 4.484.01h.684l.38.014.207.05.24.131.345.39.324.597M136.62 188.166l1.769.147 2.777.024 4.178.343 2.485-.004 4.328-.065h.595l.59.024 2.754.178.356-.13.21-.138.197-.272.186-.445.987-2.922M116.42 250.746l6.828.888M117.92 256.077l-.83-2.211-.08-.238-.05-.195-.438-2.302-.101-.385M111.864 248.527l3.223.896.45.18.343.184.23.222.173.33.138.407M117.92 256.077l.786 2.384M114.078 261.507l.185-4.22.063-.182.058-.084.072-.074.102-.076.163-.06 3.2-.734" clip-path="url(#p3e2b9f66c6)" style="fill:none;stroke:#000"/><path d="m120.97 256.426-.954.042h-.306l-.298-.016-.277-.05-1.215-.325M125.017 265.986l-1.876-4.356-.096-.18M119.54 260.988l3.153.324.152.041.1.036.1.06M121.088 258.227l.047.097 1.437 1.967.215.463.258.695M119.54 260.988l-.834-2.527M119.54 260.988l-5.462.52M127.932 272.755l-5.423 2.221M127.932 272.755l-.352-.82M151.027 278.056l-4.129-.951-2.432-.662-1.264-.49-1.189-.58-4.864-2.86-1.428-.81-1.316-.495-1.045-.109-.821.052-2.096.572-2.511 1.032M121.088 258.227l-2.382.234M120.97 256.426l-.059.188.001.054.002.055.15 1.394.024.11M131.82 187.765l-1.732-.144-1.64-.113-.621.004-.64.06-1.37.222-.5.11-.704.155-1.033.268M123.248 251.634l.083-.106.11-.07.129-.05.763-.217.111-.062.132-.099.172-.173.929-1.934 1.935-4.35.623-1.91.73-2.82 1.1-4.769.132-.471.148-.395 1.631-4.75.48-1.66.103-.336.174-.57.332-1.426.178-1.132.24-1.788.232-1.65.075-.499.105-.473.174-.705.07-.275.07-.23.402-1.127.442-1.543.94-3.412.157-.805.028-.238.006-.21-.038-1.752-.025-.135-.062-.157-.063-.095-.07-.076-.127-.093-.208-.08-1.105-.238-4.162-.71-2.283-.196-1.4-.053-2.094-.13-.178-.027-.108-.093-.084-.12-.027-.123-.02-.146-.003-1.971.103-2.645.034-.22.03-.16.044-.168.128-.48.029-.124.02-.119.005-.125.003-.128-.23-3.263-.357-4.492-.356-4.933M123.248 251.634l-.058.11-.035.132-.15 1.325-.218 2.337-.057.139-.083.12-.117.081-.1.047-.95.106-.195.045-.136.104-.105.133-.073.113M136.62 188.166l-4.8-.401M131.82 187.765l.047-2.062.024-.13.073-.076.083-.072.162-.048 2.852.43 1.392.174.075.028.054.044.034.056.015.104-.01 1.953" clip-path="url(#p3e2b9f66c6)" style="fill:none;stroke:#000"/><path d="m127.58 271.935 6.25-1.79.525-.15.437-.074.464-.051 3.606-.052.275.012.41.048.493.162.332.16.51.339v.008l2.923 1.837.352.27.304.286 3.226 3.238.349.254.254.157 1.118.597 1.62.87M127.58 271.935l-2.563-5.95M113.948 266.51l.095-4.197.035-.806" clip-path="url(#p3e2b9f66c6)" style="fill:none;stroke:#000"/><path d="m115.012 276.277-.994-8.388-.07-1.38" clip-path="url(#p3e2b9f66c6)" style="fill:none;stroke:#000"/><path d="m125.017 265.986-.712.415-3.59.55-3.094.056-3.673-.497M110.649 149.339l-8.703.632M348.347 241.898l.64 2.9.065 1.04.048.709.162.49.3.581.428.798.988 1.345.77 1.345.98 1.708.25.38.818.78.647.685.268.428.291.668.559 1.177.664.821.64.838.809 1.249.753.975 1.368 1.394 1.676 1.764 1.393 1.813.534.531.624.395.542.282.842.515.373.307.397.5.323.628.275.435.64.644.672.718.486.612.364.838.68 2.312.397 1.257.494 1.007.542 1.37.13.603.024.556-.121.66-.121.533-.39.975-.396.942-.097.46-.235 2.03.016.765.049.411.203.427.437.733.574.854.154.403.049.41-.073.5-.203.79-.364.878-1.012 2.2-.437 1.36-1.708 5.946-.138 1.007.016.508.146.58.817 2.74 1.693 5.05 1.069 3.095.287.382.506.423 1.052.58 2.357 1.732 1.886 1.2.964.701 1.838 1.652 1.4 1.136 1.465.991 2.357 1.966 1.141.838.437.225.486.016.826-.072 1.546-.105 2.51.024 1.41-.08.704-.17 1.74-.362.907-.097 1.579.145.696.218.777.258.665.596 1.668 2.11.647.742.364.685.656 1.329.34.958.292 1.064.696 1.845.373.805.874 1.338.656 1.208.745 1.789.923 2.022 1.23 2.248.907 1.764M272.644 305.198l-.582-.056-.575.04-2.907.628-5.25 1.124M294.238 325.549l-1.644-1.048-3.716-2.908-4.663-3.537-4.68-3.69-2.356-1.764-1.352-1.08-.3-.282-.186-.298-.413-.733-.372-1.047-.632-2.023-.38-.845-.252-.412-.38-.483-.268-.201" clip-path="url(#p3e2b9f66c6)" style="fill:none;stroke:#000"/><path d="m271.972 295.627.892 2.4.793 1.455.3.733.206.765-.004.786-.032.46-.535 1.353-.429.966-.519.653M334.494 240.568l.21.983.122.838.186.532.316.387.417.41.243.295.137.314-.04.294-.215.31-.198.121-.247.093-.377.105-.477.189-1.818 1.003-.292.266-.914.773-.761.5-1.328.74-.85.347-.543.306-.745.742-.85.934-1.02 1.499-.429.604-1.263 1.248-1.417 1.483-.47.42-.753.185-.72-.017-1.296-.298-1.44-.451-2.365-1.08-1.547-.781-1.076-.395-2.186-.54-4.056-1.063-.567-.08-.364.104-.195.274-.049.492.081.83.251 2.843-.048 2.828-.025 1.168.195 1.926.315 1.595.94 3.9.048.394-.048.339-.235.58-.955 2.086-.996 1.877-.47.556-.348.355-.623.394-1.223.838-.729.653-1.457 1.805-1.797 2.143-.875.886-2.26 2.45-1.562 1.98-1.02 1.217-.194.5-.008.532.162 1.877.154 2.103.154 2.948.218 1.749.186 3.447.486 3.932.332 3.972.413 5.076.048 3.117.268 3.44.502 5.552-.032.53-.13.227-.227.137-.51.113M152.242 329.25l.06.488.102.708.676 4.827.157 1.192.132.77.047.146.075.171.11.15.143.144.23.166.198.092.276.1.255.065.287.045.288.032.983-.04 3.065-.427 2.77-.359 5.108-.608 1.17-.201.733-.17.583-.104.732-.073.88-.06 1.772-.04.806-.037 2.287-.226 1.729-.137 1.364-.14 1.23-.178 2.077-.415 1.134-.286.615-.128.546-.09.685-.092.55-.032.389.045.344.092.283.089.268.149.218.225.097.21.07.31.044.52.06.56.081.403.15.567.251.766.793 2.707.34 1.16.13 1.273.033 2.062.08 1.434.624 1.926 1.069 1.852 1.457 2.764 1.263 2.038.377.689.295.592.494 1.184.72 1.499.72 1.08 1.742 1.868 1.676 1.475 2.089 1.127.64.218.687.024.47-.129.842-.16.332-.186.454-.484 1.02-1.224 1.198-1.426 1.635-1.563.284-.403.478-1.039.242-.491.583-.79 1.085-1.015.721-.685.704-.805.438-.766.469-.612.753-.653 1.077-.894.826-.83.874-.87.421-.306.648-.339 1.465-.603.947-.549.633-.45.72-.661 1.084-1.088M383.368 415.565l-.069-1.1-.088-1.16-.07-.636-.182-.572-.437-.75M400.837 409.984l-1.02.115-.385-.028M396.254 407.271l.575.572.389.339.493.273.34.13.138.12.052.157.147.484.113.2.222.178.709.347M396.254 407.271l.13-2.014M394.13 410.582l.667-.725.647-.547.591-.814.179-.58.04-.645M396.384 405.257l-.122-.886-.256-1.937M400.837 409.984l-.126-.129-.142-.187-.157-.31-.251-.303-.134-.136-.057-.202.049-.556.028-.43-.004-.367-.093-.225-.243-.27-.793-.484-.88-.427-.44-.088-.405-.065-.457-.153-.183-.173-.165-.222M404.512 553.424l.28.165.263.137.356.096.54.055M456.864 624.806l.227-.814.454-1.256 1.732-4.657 1.514-4.495 1.393-4.189 1.692-4.753 1.57-4.93.746-2.82.259-1.473.016-.516-.122-.339-.388-.45-.754-.589-2.671-2.239-1.11-1.047-1.368-.991-5.23-3.843-6.947-5.131-5.335-3.996-5.716-4.342-5.66-4.077-2.647-2.078-2.008-1.474-.551-.427-.308-.387-.68-1.014-.413-.557-.405-.233-.696-.21-.834-.265-.85-.573-2.664-2.021-4.598-3.601-2.64-1.902-.534-.346-.446-.129-.898-.08-1.271-.024h-.672l-.721.265-.867.58-.511.494M404.602 555.01l.542-.418.567-.483.24-.232M343.829 455.625l-.283-.09-.146-.108-.121-.298-.163-.828" clip-path="url(#p3e2b9f66c6)" style="fill:none;stroke:#000"/><path d="m404.602 555.01.016-.45-.025-.548-.08-.588M348.347 241.898l-.275-2.763.04-1.153-.13-.773-.453-1.418-.785-1.611-.842-1.917-.729-1.394-1.271-2.007-.55-1.361-.827-1.418-1.23-2.32" clip-path="url(#p3e2b9f66c6)" style="fill:none;stroke:#000"/><path d="m334.494 240.568.753.903.502.451.737.5.98.676 1.092.532.923.476.786.37.663.113.494-.073.656-.298.745-.564.875-.668.558-.274.996-.09 1.093-.08 2-.644M334.494 240.568l-.453-.515-.794-.773-1.392-1.362-.875-1.047-1.83-2.175-1.457-1.419-2.34-2.086-3.085-2.852-.93-.854-.786-.693-.543-.338-.769-.25-.826-.105h-.817l-1.66.032-.357-.04-.4-.177-.482-.391-.728-.777-.697-.58-.753-.564-1.052-.549-2.616-1.232M238.866 505.668l-.98-.516-.923-.595-1.61-.814-1.158-.709-.996-.814-.648-.636-.397-.492-.364-.531-.324-.765-.356-1.274-.235-.78M609.953 218.297l-1.62 2.191-.614 1.805v.354l-3.11 5.834M593.374 216.654l4.92.387 4.664.838 6.995.418M589.416 205.84l1.902 2.34 1.394 2.49.046 1.827.194 1.869-.032 1.031.454 1.257M569.428 213.267l1.209 1.357 1.62 2.385.938.644 1.102.451 4.793 1.225 4.275 1.354 1.879.45 1.813.58 1.588.162.647-.161.584-.355.291-.45.615-1.58 1.847-1.58.745-1.095M560.516 200.39l-.017-.71.097-.71.421-1.288 3.24-6.64.55-1.58v-.708l-2.397-5.448-1.101-1.224-8.258-8.831-1.393-1.129-2.235-1.288-.615-.517-.324-.419-.194-.902.972-6.865v-2.32l-.13-1.45-.26-1.29-.712-2.45v-.934l.26-1.709-.033-1.224-.195-.742-.615-1.579-.323-.515-.486-1.355-.098-2.964-.55-1.902-.033-.42.357-.87M561.64 209.533l.025-.764.389-1.483" clip-path="url(#p3e2b9f66c6)" style="fill:none;stroke:#000"/><path d="m560.516 200.39.016.643.323 2.16.292 1.192.745 2.031.162.87M566.231 205.489l-2.746 1.713-1.431.084M569.428 213.267l-2.05-.925-2.91-1.061-2.827-1.748M566.231 205.489l.681 1.368.518 2.353.324 1.256.42.968.681.934.26.548.313.351M560.516 200.39l4.608 3.427M589.416 205.84l-1.05.383-1.967-.897-6.107.734-10.413-2.325-3.648 1.754M589.416 205.84l4.198-1.534h2.747l3.935-3.1 2.173-.368M109.122 277.403l-5.87.402M109.122 277.403l.027-.55M109.149 276.853l-1.636.371-4.277.193.016.388M109.149 276.853l5.863-.576M119.45 275.643l-.605-.096-1.967.467-1.866.263M122.51 274.976l-1.107.103-1.348.275-.605.289" clip-path="url(#p3e2b9f66c6)" style="fill:none;stroke:#000"/></g><g id="PatchCollection_1"><path d="m304.247 416.432 2.702 1.345 2.43-.097 1.392-2.224 3.433-2.449 3.887 1.032 2.85-4.447-1.814-7.025-.648-5.027-5.894-5.415 5.57-.58 3.433-2.578-.713-4.253-4.404-2.191 1.879-2.45-2.85-5.413-2.721-.903-.777-1.74-2.527-.322-1.036.838-1.036-1.418-.518 1.933-3.498-3.029-3.044-1.096-1.425-1.675-4.858-.065-1.879-1.869.13-1.224 1.36.193 1.555 1.354 2.59-.903 4.664.452 1.944 2.9 2.137.129 1.036-.645 2.137.645 2.008-3.996 1.167.193 1.295 3.094 5.052 1.482 2.526-2.513 1.166 2.835 3.368.774 2.72-4.125.907 6.832 2.98 4.511 6.737 2.191 1.683-1.16-2.979-2.191-2.591-4.512 4.146 3.094 4.404 1.16 1.813-2.836-.259-3.867 3.368.258-1.813-1.933-3.368-3.996-8.55-5.027 4.793.386 5.96 3.48 3.237-.128 1.426-3.223-1.426-4.898-.259-3.61-9.715-4.253-1.944-2.063 3.757.258 6.219 1.29 1.165-4.255-1.295-4.382-5.182-4.77-.259-2.706 3.238-3.996.907-4.64-4.663-5.028 2.202-1.934.777-4.769-3.886-2.062-2.461-2.707-3.627.386-1.555-3.738 3.757.258 2.85 1.676 4.016 1.03 1.554-1.288.777 1.804-1.554.645 1.813 1.418 3.368-1.676 2.85-3.093.519-3.61 4.274 4.899 2.85-.645 1.555 1.418-4.922 3.867-2.72-.516-1.426 1.29 1.036 1.675 4.275-.258-.259 4.77-2.98 1.031.13 3.223-5.57.129-1.036 3.351 2.72.773-.907 5.157-1.425 3.093 5.96 3.996 2.98 1.29-.778 5.026-2.462 3.61 1.166 2.706 5.311 1.29-.388 5.414-1.166 3.866.518 3.61 2.85 5.8 8.161-1.547 2.202-5.285 1.296-5.929 2.202-4.383-.906-5.671 3.756.773 5.311 4.898 3.369-.515 5.83-5.028.388-4.511-2.591-3.351 5.57 3.738 2.591-.516-1.036 5.285 2.072 2.578 8.812 1.003 1.682.157 2.202-4.253 5.57 2.32 3.239-3.223.777-2.062-1.814-6.446 4.146-5.027 2.081-4.293 1.805-3.827-2.331-3.352-4.405-3.222-.26-4.383 6.478-2.063 6.736-1.546 3.11-3.48.259 5.8-2.98 1.289-7.384 2.063 1.555 3.35 2.331 2.063 2.907 1.24 1.368.565-3.757 4.125-2.461 5.285v5.8l1.166 5.156-.26 3.094 3.11 2.836 6.607 1.418 6.995 1.418 3.498-2.836 5.052-1.676 3.757-4.64.647-4.125 5.312-6.059 2.59-1.675.26 4.77-2.72 1.417-.778 3.094 1.555 3.093-4.146-.257-1.684 3.093.518 2.965-3.497 3.609-4.146.258-1.943 3.222-3.627.387.518 4.254 2.72 1.418 2.98 3.093-.26 3.48-1.683 2.965-3.368-1.675-4.016.257-2.332-5.285-3.627-2.835-2.98-4.383-5.57-5.672-3.239 1.418-.518 2.45-5.44-.645-1.944 4.77-2.461-.516-2.461.773-.778 2.965-2.332-2.707-2.979 2.45-1.684-.13-3.498.13-1.717-.987-2.687-1.592-4.793 1.29-3.498 2.706-1.296 5.285-2.461 4.511 1.813 5.414 1.296 4.125-3.238 5.285 3.238 4.254.13 7.09-1.555 6.702h-3.368l1.814-4.77 1.295-4.51-4.016-7.348-.389-4.64-8.16-.645-11.271 6.059-6.737 3.609-2.331 3.738-3.239 3.222 2.073 5.027 3.368 3.609 4.145 1.547 4.275 5.542-5.57-3.35-6.736-2.579-1.296-4.124-5.83-3.223-3.626 2.836-4.534 5.413-5.312 1.032-1.425 5.027 4.405 6.187.388 5.414-.777 6.187-4.016 2.062-3.368-1.031-2.59 2.449-4.017-.129-3.757 1.29-4.404-2.192.13-1.563-.859-1.933-.874-.709-1.004.5-.016.805-.21.548-.502-.29-.13-.677-5.765-17.079zM354.311 439.735l.336-1.004.805-1.368 1.2-1.368 2.925-1.586.936-.219 1.098.131 1.038.582 1.682.466.673 1.063 1.522.189 1.653-.772.906-1.106.293.99-.19 1.019-1.302.946-.19.757.95.596 2.604 2.543h2.45l1.6-.46 1.634.601v1.38l-1.563 1.696-2.203.883.427 1.379-1.35.035-.747-.848-2.486-.354-2.131.778-.604 2.191.569 1.661.674 1.096.356 1.626 1.1.6v1.52l-.959-1.272-.852-.636-1.563-3.04-.71-.848-1.208 1.45-.39-3.57-1.386-1.132h-2.238l-1.705-.636-.64-2.827-1.385-.53-1.74.423-1.457-1.696zM86.28 476.72l3.15.447 2.161-.138 1.664-.498 2.34-.589 4.477-.081 5.717.12 4.048.895 2.571 1.09 1.158.963.388 1.8-.255 1.35-1.798.903-2.569.325-2.248.067-3.339.584-3.276.198-3.274 1.097-3.53 2.532-1.729 5.944.295 3.478 1.378 2.171 2.03 2.389 1.812 1.954 2.681 2.17 2.535.793 2.316-.148 1.808-.582 1.591-1.161 1.879-2.395 1.23-.725 1.23.07 1.087.868.582 2.463.087 4.114.006 3.934.507 3.431.779 1.234 2.012.775 3.154.682 2.285.134 2.103.226 2.881 1.276 4.71 1.55 2.73 1.522 4.208 1.08 2.012.7 1.155.835.363.475-.022.543-.316.318-.575.146-4.53-1.132-4.455-.068-2.672.004-3.417-.441-3.124.115-1.54-.694-.807-1.393-.515-.99-.88-.88-1.21-.254-1.722.039-4.872 1.51-2.766 1.26-1.433 1.253-2.466.273-1.63-.861-.795-2.254.13-2.873-.604-2.337-1.738-1.668-2.67-.53-1.941.353-1.14 1.064-.584 2.863.676 6.28.006 4.142-.398 2.005-.8.602-.801-.199-.936-.934-1.203-1.268-1.402-.733-3.27.272-2.468 1.14-1 1.27-.864 1.805-1.4 1.338-3.204-.062-2.27-.465-1.202-.8-.87-1.468-.069-1.403 1.399-2.207 1.666-1.74 2-1.138.666-1.337-.004-3.074-1.872-2.001-2.137-1.2-2.203-.531-2.403.07-2.468 1.072-1.932 2.609-1.197 2.74-.51 1.752-1.244.594-2.073-.174-.83-.829-.418-2.371-.183-3.617.767-2.313 1.124-1.306 1.656-1.307.295-1.423-.89-1.244-1.423-.472-2.25.418-2.19.892-1.302.832-1.359 2.195-1.42.892-1.896.003-1.718-.769-.596-2.193-.066-4.92-.524-1.414-1.841-1.471-.632-1.052-1.004-3.524-.796-5.366-.245-3.834 1.139-2.251 2.795-2.77 1.727-2.508 2.91-3.92 2.331-.853 1.552.29 1.387 1.51 2.26 1.78.707.705 1.514-.103.654-1.163.3-1.818.25-2.173 1.058-1.213 1.462-.457 1.111.554 1.214 2.221 1.114 2.373 1.817.906 1.262.049.706-.556 1.61-3.236.093-3.712-.408-1.801-1.039-2.387-.272-1.712.54-.857 1.393-.722 1.576.132 1.397 1.215 1.623 2.386 3.065 2.699z" clip-path="url(#p3e2b9f66c6)" style="fill:#00f;fill-opacity:.8"/></g></g></g><defs><clipPath id="p3e2b9f66c6"><path d="M91.264 86.4h555.472v554.4H91.264z"/></clipPath></defs></svg>