<svg xmlns="http://www.w3.org/2000/svg" width="960" height="960" viewBox="0 0 720 720"><defs><style>*{stroke-linejoin:round;stroke-linecap:butt}</style></defs><g id="figure_1"><path id="patch_1" d="M0 720h720V0H0z" style="fill:#fff"/><g id="axes_1"><path id="patch_2" d="M90 619.644h558V107.556H90z" style="fill:#fff"/><g id="LineCollection_1"><path d="m361.412 375.295-1.67.286M361.412 375.295l.892 3.538M369.253 361.106l-1.483 3.683-2.526 3.393-3.295 3.237-.537 3.876M593.535 125.808l2.146-.033 7.61 2.738 7.14 2.108 5.286.44 13.056-2.986M306.406 447.8l1.755 3.405M351.785 422.104l-12.252 6.881-33.127 18.815M258.792 474.774l19.04-10.415 28.574-16.56M375.906 405.723l1.74-1.242M375.906 405.723l-2.202-3.325M375.906 405.723l-.633.443M364.48 387.457l-.136-.538M364.48 387.457l.969 1.641M365.948 376.5l3.375.79.662.318.406.619 1.346 6.428-.257.49-7 2.312M382.238 401.2l-1.795-.6M382.238 401.2l5.332.02M382.238 401.2l-1.298.927M387.57 401.22l12.92-1.016M389.541 385.57l-1.615 7.878-.502 4.848.146 2.924M397.128 371.127l-.52.479-3.34 4.538-1.231 2.327M389.541 385.57l1.395-3.997 1.1-3.102" clip-path="url(#p1678183893)" style="fill:none;stroke:#000"/><path d="m399.629 376.986-1.068.662-.64.66-.833.832-.79.405-.325.068-.402.017-3.534-1.16M403.666 361.21l-3.695 5.479-2.843 4.438" clip-path="url(#p1678183893)" style="fill:none;stroke:#000"/><path d="m401.123 371.666-2.66-.75-.689.02-.646.191M414.237 371.178l-4.891-1.395M417.626 365.944l-.634 1.307-1.44 1.559-1.315 2.368M408.223 373.128l3.666.721.752.083.503-.091.258-.306.835-2.357M417.818 365.55l.776-1.474 1.978-1.559 2.263-1.64 4.111-2.214 2.152-1.509 1.36-1.099 2.978-.775 1.23-1.034.453-1.616.583-1.357 1.424-.582 2.331-.129 1.619-.646 1.165.452 1.295.84 1.424.194 1.943-.453 1.036.388 1.51.13.518.023.45-.363.79-1.727.256-.362.32-.341.79-.427.62-.512 1.217-1.047.662-.49.662-.362.748-.704.405-.64.307-.481.427-.427.491-.32.534-.49.256-.618.385-.576.662-.427.598-.66 2.018-3.243.278-.682.085-.64.385-.64 1.132-2.434.107-.767-.022-.895-.107-.79-.149-.788-.022-.368v-.512l.193-.917.149-.853.193-1.066.042-.49-.085-.725-.021-4.148.17-.747.278-.81.341-.32.535-.085.745-.087.385-.298.341-.554.876-1.258.769-.916 1.56-2.41 1.174-1.215.17-1.258.321-1.002.47-.618 2.563-1.322 1.473-.756.47-.256.641-.17.363-.32-.064-.661.043-1.721.235-.725.427-1.194M417.818 365.55l-.192.394M408.246 363.836l.283.039 5.622.536 2.195.4 1.472.74M407.745 363.768l.501.068M405.645 368.558l3.7 1.225M405.645 368.558l-1.658 3.687M405.645 368.558l-2.198-.983M408.246 363.836l-.885 1.857-.76.33-.956 2.535M408.223 373.128l1.123-3.345M408.223 373.128l-2.546-.558M409.346 369.783l.813-2.796M403.987 372.245l1.69.325M403.987 372.245l-2.864-.579M405.677 372.57l-1.435 4.58-.363.341-3.587-.469-.663-.036" clip-path="url(#p1678183893)" style="fill:none;stroke:#000"/><path d="m401.123 371.666-.874 2.655-.214 1.28-.214 1.066-.192.32M389.541 385.57l-4.83-1.519M400.49 400.204l-.863-2.61-.069-1.872-.21-1.325-1.538-2.811.097-2.706-8.366-3.31M384.712 384.051l-5.287 16.21M378.934 379.39l.833.703 2.648 2.579 2.297 1.38M379.425 400.26l1.018.34M377.204 399.813h.598l1.623.448M373.704 402.398l1.514-1.178M369.509 395.974l.492.833 3.703 5.591M375.218 401.22l1.452-1.13.534-.277" clip-path="url(#p1678183893)" style="fill:none;stroke:#000"/><path d="m376.497 395.575 1.15 2.149-.443 2.09M380.94 402.127l-3.295 2.354M380.443 400.6l.37.471.214.512-.087.544M375.218 401.22l2.427 3.26M391.95 340.747l-2.734 4.007-.598 1.15-.47 1.365.064 1.77.491.938 5.169 2.574.32.383-.064.555-3.395 4.44-.47 1.322v1.641l-.192.469-3.247 2.09-1.773 1.296-1.388 1.194-1.666 1.322-1.153.469-4.922.931-1.367.277-1.28.49-1.026.683-1.346 1.62-1.879 2.111-1.218 1.066-.854.63-1.004.96M362.304 378.833l.783-.307 1.132-.555.96-.789.77-.682M362.304 378.833l-.755.463" clip-path="url(#p1678183893)" style="fill:none;stroke:#000"/><path d="m363.512 383.618-1.053-4.173-.155-.612M350.089 366.564l1.498 1.179M350.089 366.564l-5.816-9.415M350.089 366.564l.747 1.638M361.549 379.296l1.305 4.52M361.549 379.296l-4.338 1.735M359.742 375.581l.447.872 1.36 2.843M363.793 387.063l-.939-3.247M363.793 387.063l.551-.144M363.793 387.063l-3.728.978M364.921 389.562l-.76-1.495-.368-1.004M364.921 389.562l.528-.464M364.921 389.562l-3.446 1.943M368.412 395.276l-.079-.125-3.412-5.59M375.273 406.166l-6.217-9.87M375.273 406.166l-5.17 3.615M378.17 411.714v-.573l-.318-.907-2.58-4.068M340.824 404.078l-2.916 1.775-9.711.776-2.202-1.422M361.475 391.505l-4.837 2.945M361.475 391.505l-1.41-3.464M361.475 391.505l3.065 6.386M366.233 401.418l-2.752 4.168M366.233 401.418l-1.107-2.306M369.178 408.042l-1.1-2.068-1.845-4.556M370.103 409.781l-.925-1.739M370.103 409.781l-5.397 3.773M356.638 394.45l-3.853 2.346M356.638 394.45l-1.266-4.837M363.48 405.586l-2.718-1.874-.842-.55-.388-.71-1.165-3.716-1.729-4.286M363.48 405.586l-2.465 4.28M369.178 408.042l-.518.227-5.18-2.683M355.005 420.295l4.223-7.328M355.005 420.295l-3.22 1.81M363.078 414.692l-7.769 5.432-.304.171M363.078 414.692l1.628-1.138M359.228 412.967l2.473.772 1.377.953M359.228 412.967l1.787-3.102M359.228 412.967l-3.856-1.458M352.021 408.795l-.206-.629M352.021 408.795l3.372-2.372M355.372 411.509l-.34-.129-2.363-1.486-.648-1.1M348.877 399.176l3.908-2.38M348.877 399.176l-4.067 2.476M348.877 399.176l-2.767-6.46M348.877 399.176l2.938 8.99M344.715 389.459l-1.248-3.198M344.715 389.459l1.395 3.257M344.715 389.459l9.532-3.183M344.715 389.459l-4.111 1.163M340.604 390.622l-.682-1.464M340.604 390.622l1.109 3.554M358.736 384.777l1.329 3.264M358.736 384.777l-1.525-3.746M358.736 384.777l4.118-.96M358.736 384.777l-4.49 1.5M338.888 395.114l2.825-.938M338.888 395.114l1.034-5.956M340.824 404.078l-2.521-4.797.585-4.167M346.11 392.716l9.262-3.103M346.11 392.716l-4.397 1.46M360.065 388.04l-4.693 1.573M339.309 387.844l4.158-1.583M339.309 387.844l-1.337-2.236M339.309 387.844l.613 1.314M357.21 381.03l-4.226 1.61M350.836 368.202l.894 1.961 4.661 8.855.82 2.013M343.467 386.26l-1.2-2.924M343.467 386.26l5.54-2.107M338.694 374.613l2.065 5.05M338.694 374.613l5.316-2.863M331.91 376.205l2.285.186 1.036-.388 3.463-1.39M347.694 369.766l3.142-1.564M347.694 369.766l-3.684 1.984M350.802 376.326l-1.716-4.428-1.392-2.132M344.273 357.15l-2.891 3.116 1.327 2.585 4.985 6.915M350.836 368.202l.751-.459M351.587 367.743l2.95 2.32M344.01 371.75l2.487 6.172M344.01 371.75l-1.033-2.204M349.007 384.153l3.977-1.514M349.007 384.153l-2.51-6.23M350.802 376.326l2.182 6.313M350.802 376.326l-4.305 1.596M352.984 382.64l1.263 3.636M244.074 141.328l.326 11.674 1.04 4.215.093 1.77-.323 1.378-3.52 5.552-.907 1.927 1.096 9.797 1.401 3.913 2.27 7.139 5.675 12.578 4.2 6.912 1.817 4.08.567 2.945.937 22.291.902 3.15 2.592 3.49 4.177 3.886 1.676.89 7.674 3.663 3.833 2.7 4.17 4.164 9.357 15.642.79 2.813 4.508 28.93 1.24 3.63 4.284 2.701 6.312 3.713 1.691 1.688 2.593 8.327 1.127 2.026 9.171 9.094 3.452 2.901 4.399 2.858 3.044 2.251 6.997 8.644 1.538 2.49M359.742 375.581l-.977-1.907-1.036-1.1-3.191-2.51M369.253 361.106l-1.553.097-2.46.646-2.396.97-2.687 1.13-1.295.744-1.262 1.098-1.425 1.648-1.637 2.625M371.11 313.794l.687 3.03.199 1.372-.116 1.892-.951 5.826-1.444 9.856 1.521 15.123.162 3.975-1.915 6.238M364.54 397.891l1.363-.92M364.54 397.891l.586 1.221M364.344 386.919l-.832-3.3M365.449 389.098l4.06 6.876M366.613 398.047l-.71-1.077M366.613 398.047l2.443-1.75M366.613 398.047l-1.487 1.065M365.903 396.97l2.51-1.694M368.412 395.276l.644 1.02M369.509 395.974l-.453.323M636.662 502.199l-2.614-.52-5.267-.146-5.221-1.356-9.744-3.587-4.29-1.39-4.014-.759-4.428-1.568-4.727-3.942-6.739-5.202-3.772-2.213-3.684-1.617-18.011-5.364-2.227-1.519-2.298-2.471-2.128-3.33-1.223-2.68-.615-2.683-1.182-4.895-1.155-2.328-2.52-3.44-2.356-2.845-1.609-2.487-1.758-3.2-1.98-1.729-2.04-1.13-3.205-1.39-6.015-3.83-3.47-2.504-1.343-1.276-3.156-2.892-1.473-.695-2.018-.679-6.189-1.357-6.157-1.649-6.297-1.793-8.539-1.114-10.333-.113-5.659-.34-2.945-.5-8.427-1.827-2.272-.435-2.412-.711-2.11-1.18-6.006-5.09-4.25-3.618-3.642-2.246-7.903-4.345-4.058-2.571-4.844-1.824-4.65-1.05M400.49 400.204l2.311-.138 2.22-.61 10.14-5.059 1.186-.454 1.214.017 6.125.809M442.074 385.737l-3.767.904-12.495 4.234-2.126 3.894M345.895 409.422l-1.58 1.027M345.895 409.422l1.307 1.994M344.81 401.652l2.492 6.16-.42.969-.987.64M347.202 411.416l4.613-3.25M347.202 411.416l-1.701 1.199M345.5 412.615l-1.186-2.166M351.785 422.104l-4.224-5.73-2.06-3.76M363.512 383.618l5.771-1.4-.745-2.455M363.512 383.618l-.658.198M355.372 389.613l-1.125-3.337M341.713 394.176l3.097 7.476M344.81 401.652l-3.986 2.426M344.314 410.449l-3.49-6.371M352.785 396.796l2.432 9.19.176.437M357.54 408.079l-1.87-.962-.277-.694M361.015 409.865l-3.475-1.786M361.015 409.865l3.691 3.689M378.17 411.714l9.727-4.233M386.2 435.431l-.303-1.416-1.226-4.379-.245-.881-.418-.907-.319-.832-1.496-3.267-1.74-4.184-1.448-4.017-.466-2.081-.368-1.322v-.431M172.052 125.549l1.36 1.065 2.363.517 4.856-1.228 3.076-1.713 1.845-2.617 1.23-2.198 2.266-1.195 3.043-.776h1.813l3.464.517 5.956 1.939 1.554 1.358 8.254 7.044 1.781 1.1 1.845.257 12.496.098 2.492.452 1.554.808 9.453 8.531 1.321 1.82M442.074 385.737l3.036-.73 20.717-1.292 25.639-19.905 15.538-17.838 45.321-42.397 6.216-9.825 8.028-.775 11.136.259 15.797-8.532 43.767-46.534M331.91 376.205l-1.856-.168-1.292-.55-1.293-1.402-2.117-4.51-1.624-4.091-5.414-9.848-3.712-6.762-1.677-2.338-2.282-2.502-2.804-2.116-5.251-2.338-8.193-2.556-4.67-.23-13.944-2.63-.797.138-1.182.714-2.777 3.548-.77 4.426-.797 1.457-2.172 1.925-3.74 1.76-3.539 1.055-1.244.374-7.18-.269-3.269.56-10.509 3.176-2.886.24-4.192-.833-12.764-1.39-1.787-1.098-1.8-1.745-1.747-2.415-4.093-7.312-5.31-5.3-3.293-2.222-1.731-.646-2.113-.218-28.212-4.75-1.57-.647-1.586-1.583-3.108-4.33-1.716-1.826-6.599-6.708-3.809-2.922-4.11-.762-2.748-1.705-4.925-.248-6.49.873-4.727 2.537-1.149 1.793-3.632 13.85-3.739 10.31-2.75 3.135-14.416 14.553-.072 1.008.33.825 2.006 1.677 2.173 3.217.37 1.449.592.668 4.591 2.227 2.282 2.255 4.035 4.737M119.754 378.649l.112-.935-.797-3.711-.825-2.338-1.134-1.943M109.336 372.023l1.76-.825 3.024-1.072 2.99-.404M201.706 532.451l-1.187.793-8.29 3.287-14.702 5.224-3.993 1.953-2.698 1.822-2.678 3.515-3.8 6.903-2.308 3.557-4.208 3.749-7.56 5.204-7.266 8.496-6.54 9.113-6.408 11.339-4.994 12.39M331.91 376.205l-1.282-3.01-.01-.022M426.069 443.054l-17.232-6.32M408.837 436.734l1.505-4.159 2.396-2.908 1.618-1.939 2.331-2.456.971-1.874 2.622-2.973.81.356.518 1.389 2.072 3.296 2.363 1.002 2.46 1.777 1.133 1.842.55 3.264-2.007 4.298-1.035 2.908-1.075 2.497M443.588 439.297l-2.687 4.104h-.582l-.648-.194-1.1-1.002-.712-.259-2.623.55-3.107 1.874-3.723-.582-1.392-.387-.945-.347" clip-path="url(#p1678183893)" style="fill:none;stroke:#000"/><path d="m400.534 440.105 2.071-3.846 3.173-.646 3.059 1.121M403.706 442.108l-3.172-2.003M386.2 435.431l3.813.311 5.244 1.487 5.277 2.876M375.009 493.865l.158-1.056.076-6.879-.042-3.24-.726-5.97.256-5.362.342-3.283.427-2.345.854-2.771.897-2.388 1.367-2.857 1.596-2.377.67-.965 5.982-10.35.41-.733.148-.548.139-.492.01-.482-.108-.77-.709-2.991-.368-1.69-.189-.885M344.094 378.465l-3.335 1.198M342.266 383.336l-1.426-3.474-.081-.199M336.577 382.595l-.25-.538.094-.587 4.338-1.807M342.266 383.336l-4.294 2.272M337.972 385.608l-1.395-3.013M366.543 314.4l1.859-1.372 1.466.046 1.241.72M593.535 125.808l-.543.008-13.244 9.965-19.74 16.858-3.056 2.87-1.723 2.534-.88 2.534-1.283 13.42-.663 8.155-.752 2.946-1.671 3.025-1.865 1.86-6.414 4.277-4.536 2.338-4.087.862-4.483-.021-11.313-1.767-3.48-.279-3.203 1.38-14.44 10.06-7.912 4.955-21.353 18.28-14.983 13.223-7.71 8.365-15.607 13.294-10.688 9.332-4.148 5.777-4.17 5.656-3.196 1.814-2.405 1.514-4.857 5.938-3.838 4.655-2.188 1.62-3.144 1.168-3.894.594-9.068.567-3.231 1.298-2.04 1.86-.959 1.812-.368 2.069.71 3.17M366.09 316.5l.453-2.1" clip-path="url(#p1678183893)" style="fill:none;stroke:#000"/><path d="m368.38 300.651-2.42 4.992.583 8.757M368.38 300.651l3.375-.308" clip-path="url(#p1678183893)" style="fill:none;stroke:#000"/><path d="m355.051 301.797 12.463-1.066.867-.08M307.122 454.706l-1.113-2.462M307.122 454.706l4.081-2.047M307.122 454.706l-5.16 2.59M336.049 480.66l-2.914 3.036-5.373 2.747h-1.603l-8.239-.84-1.52-1.034-1.15-1.6-.898-2.552-.251-2.101-.186-3.191-.51-2.73-1.182-3.854-.55-4.653-1.295-2.747-.971-1.39-1.052-2.617-1.233-2.428M306.01 452.244l-13.501 6.522M306.01 452.244l2.15-1.04M309.423 450.526l-1.262.679M258.792 474.774l-.687.957-.76 1.713-.575 2.245-2.169 21.263-1.035 5.106-6.766 10.599" clip-path="url(#p1678183893)" style="fill:none;stroke:#000"/><path d="m201.706 532.451 1.586-1.06 2.027-1.747 2.489-2.178 2.221-2.808 21.283-31.6 2.377-3.085 3.428-2.808 21.675-12.39M201.706 532.451l.68.379 1.812-.808 3.092-.727 15.425-2.779 1.554.065 7.899 3.36M417.626 365.944l2.764.961 1.59.04 2.25 1.389 2.845 1.431 2.25 1.067 2.59.032 3.787 1.858 2.703-.5 1.812.403 2.283 1.826 2.124 3.706-2.55 7.58M355.372 411.509l2.168-3.43M356.735 490.709l2.945 4.2M342.88 481.796l1.91.317 4.531 2.618 5.083 3.683 2.33 2.295" clip-path="url(#p1678183893)" style="fill:none;stroke:#000"/><path d="m342.88 481.796.065-1.747.42-.42 3.4-1.099 2.006-1.228h.583l.777.582 3.334 3.749.389.484.259.13 1.035 1.001 3.076 2.262 1.942 1.099.291.258-.744 1.874-2.978 1.968M359.68 494.91l3.687.579M344.79 502.314l3.82-3.652 2.525-1.778 1.586-.645 1.877-.486 5.082-.844M363.367 495.489l2.69.422 8.952-2.046M336.049 480.66l6.83 1.136M336.179 474.426l.517 1.777v.324l.356 1.81-.55 2.003-.453.32M109.336 372.023l.66 2.364.605 1.54.99 2.255.742 1.951 1.265.138 2.31-.77 2.584-.412 1.262-.44M334.08 383.333l.878-.697 1.619-.041M322.965 393.775l.834-.135 1.172-.45.79-1.417 2.254-.698 1.533-.743 1.15-1.26 2.344-3.286 1.037-2.453M331.171 382.455l.61.113.698.293.744.517.856-.045M363.367 495.489l-.255 1.525.033.937.453 2.262 1.23 4.2M172.052 125.549l-1.132 3.519-1.004.355-.97-.032-.778.162-.615.387-.518.55-.453.776-.453 1.39-.227 1.647-.453 1.94-.065.904.356 1.228.454 2.294 1.068 2.424.194.938.033 1.001.194 1.131 1.165 2.747.292 1.26.097 1.293-.065.711-.648 2.424.163 1.81-.066 1.583-.259 1.68-.582 2.165-.097.808.032.97.518 2.65.712 1.292 3.302 4.007 1.651 3.717 2.979 5.332.485 1.68.291 1.584.033 1.616-1.004 6.3.097.42-.065 1.035-.161.582-.098 2.068.033 4.977-.097.581-1.263 4.04-.485 3.393-1.425 3.36-1.553 4.396-.907 2.036-4.208 7.238-.389.453-2.363 1.325-3.01 1.906-.357.873-2.136 2.262-8.352 6.819" clip-path="url(#p1678183893)" style="fill:none;stroke:#000"/></g><path id="PatchCollection_1" d="m374.053 402.581 1.838 2.657 1.278-.957-1.994-2.589z" clip-path="url(#p1678183893)" style="fill:green;fill-opacity:.8"/></g></g><defs><clipPath id="p1678183893"><path d="M90 107.556h558v512.087H90z"/></clipPath></defs></svg>