<svg xmlns="http://www.w3.org/2000/svg" width="960" height="960" viewBox="0 0 720 720"><defs><style>*{stroke-linejoin:round;stroke-linecap:butt}</style></defs><g id="figure_1"><path id="patch_1" d="M0 720h720V0H0z" style="fill:#fff"/><g id="axes_1"><path id="patch_2" d="M101.958 640.8h534.084V86.4H101.958z" style="fill:#fff"/><g id="LineCollection_1"><path d="m357.822 361.265-2.943-.363M357.822 361.265l.647.605.47.5M360.125 361.438l-.82-.093-.827-.072-.656-.008M362.309 365.245l.304-.093M361.68 366.505l.371-.697.258-.563M362.309 365.245l-.507.126M362.613 365.152l.49-.324.256-.287.245-.42.04-.293M362.613 365.152l.382.173.21.255.135.318.031.525M361.431 361.537l-1.306-.099M361.431 361.537l-.707.29-.42.474-.31.535-.078.627M361.431 361.537l.783.02M359.916 363.463l.248.657.327.559.263.212M359.178 362.651l.205.19.533.622M360.926 365.03l.876.34M360.926 365.03l.356.663.39.908M360.926 365.03l-.172-.14M362.558 358.807l-.191 1.518M362.558 358.807l-.707 1.124-.447.509-.338.347-.524.417M364.183 343.472l-.187 1.759-1.438 13.576M360.542 361.204l-.417.234M360.542 361.204l-.513-.18M358.94 362.37l.238.281M358.152 366.39l-.25-.259-.606-1.009v-.78l.264-.734.607-.734.773-.503" clip-path="url(#p1f3a527c46)" style="fill:none;stroke:#000"/><path d="m360.125 361.438-.4.34-.295.404-.252.47M393.068 383.356l-2.882-.322M365.924 343.556l-.454 4.179M365.924 343.556l-1.74-.084M365.924 343.556l.598.054M362.269 375.635l.7.099M362.269 375.635l-.42 4.394M362.269 375.635l.527-4.614M386.458 378.25l-6.149-.733M386.458 378.25l.484-4.475M386.458 378.25l-.59 4.347M362.796 371.021l.687.082M362.796 371.021l.04-.356M386.942 373.775l-6.16-.693M386.942 373.775l.427-4.652M363.371 366.423l.618.075M363.371 366.423l-.535 4.242M387.369 369.123l-6.072-.631M387.369 369.123l.972-7.403M387.369 369.123l4.128.6M364.523 356.313l-.287 2.287M364.523 356.313l.525.038M364.523 356.313l.543-4.848M388.776 357.125l-6.213-.216M388.776 357.125l.264-2.996M388.776 357.125l-.435 4.595M379.06 344.986l-.343 4.159M379.06 344.986l.802-8.806M379.06 344.986l-6.902-.734M379.06 344.986l4.726.52M377.875 356.817l4.688.092M377.875 356.817l-6.021-.211M377.875 356.817l-.202 2.12M377.875 356.817l.437-3.833M376.62 367.92l4.677.572M376.62 367.92l-6.452-.73M376.62 367.92l-.451 4.632M376.62 367.92l.699-5.734M376.169 372.552l4.612.53M376.169 372.552l-6.5-.736M376.169 372.552l-.42 4.434M375.749 376.986l4.56.531M375.749 376.986l-6.548-.708M375.749 376.986l-.575 4.434M375.174 381.42l-.404 3.945M375.174 381.42l4.605.527M375.174 381.42l-3.828-.4M379.78 381.947l.53-4.43M379.78 381.947l-.392 3.783M379.78 381.947l6.089.65M380.31 377.517l.471-4.435M380.781 373.082l.516-4.59M381.297 368.492l.701-6.321M382.563 356.91l.342-3.428M382.563 356.91l-.565 5.26M383.786 345.506l-.492 4.154M389.445 350.46l.388-3.578-.03-.375-.18-.306-.326-.16-5.511-.535M365.47 347.735l-.404 3.73M365.47 347.735l.56.051M378.717 349.145l-.405 3.839M378.717 349.145l4.577.515M378.717 349.145l-6.633-.662M383.294 349.66l-.39 3.822M383.294 349.66l6.15.8M389.445 350.46l-.405 3.669M365.066 351.465l.578.065M378.312 352.984l4.593.498M378.312 352.984l-6.354-.717M382.905 353.482l6.135.647M364.236 358.6l-.2 2.952M364.236 358.6l.564.005M377.673 358.937l-.354 3.25M377.673 358.937l-5.91-.169M372.158 344.252l-.074 4.23M372.158 344.252l-5.636-.642M372.084 348.483l-6.054-.697M372.084 348.483l-.126 3.784M371.958 352.267l-6.314-.737M371.958 352.267l-.104 4.339M371.854 356.606l-6.806-.255M370.168 367.19l-6.18-.692M370.168 367.19l-.5 4.626M369.669 371.816l-6.186-.713M369.669 371.816l-.468 4.462M369.2 376.278l-6.23-.544M369.2 376.278l-.519 4.397M368.681 380.675l2.665.344M368.681 380.675l-1.373-.122M363.977 362.359l.474-.062M363.977 362.359l-.54.175M363.977 362.359l.058-.807M377.319 362.186l4.68-.015M377.319 362.186l-5.534-.045M388.34 361.72l-1.398.191-1.951.184-2.993.076M395.461 360.826l-2.923.229-2.41.305-1.787.36M336.107 358.716l.16-1.067M336.107 358.716l4.944.55M336.107 358.716l-.513 5.167M273.178 349.772l2.565.87 3.98 1.04 3.28.597 10.695 1.3 4.841.7 14.001 1.608 11.208 1.33 12.36 1.499M338.284 340.904l-.563 4.888M338.284 340.904l.533-6.366M343.08 342.16l.03-.438-.178-.222-.296-.16-4.352-.436M341.05 359.266l-.14 1.074M341.05 359.266l.1-.97M341.05 359.266l6.048.81M338.76 376.879l6.023.723M338.76 376.879l.585-4.108M334.49 372.2l-.427 3.104.093.46.156.236.528.267 3.92.612M343.08 342.16l5.94.803M343.08 342.16l-.447 4.178M355.647 343.748l5.97.474M355.647 343.748l-6.627-.785M355.647 343.748l-.42 4.083M349.02 342.963l-.471 4.054M347.098 360.076l-.145 1.05M347.098 360.076l.121-1.07M347.098 360.076l6.576.665M344.783 377.602l6.473.747M344.783 377.602l.537-4.13M351.256 378.35l9.04 1.036M351.256 378.35l.88-4.107M352.135 374.243l.908-4.038M352.135 374.243l-6.815-.77M354.879 360.902l-.948 5.137M354.879 360.902l-1.205-.16M355.227 347.83l-6.678-.813M355.227 347.83l6.033.749M355.227 347.83l-.403 3.764M348.549 347.017l-5.916-.68M348.549 347.017l-.406 3.813M342.633 346.338l-4.912-.546M342.633 346.338l-.483 3.844M337.72 345.792l-.495 3.703M361.618 344.222l-.358 4.357M364.284 342.501l-1.36.07-.731.29-.436.535-.14.826M360.81 352.42l.45-3.841M360.81 352.42l-.388 4.151M360.81 352.42l-5.986-.826M354.824 351.594l-.451 4.178M354.824 351.594l-6.681-.764M348.143 350.83l-5.993-.648M348.143 350.83l-.462 4.054M342.15 350.182l-4.925-.687M342.15 350.182l-.473 3.834M337.225 349.495l-.478 4.093M336.747 353.588l4.93.428M336.747 353.588l-.48 4.061M341.677 354.016l6.004.868M341.677 354.016l-.527 4.28M347.681 354.884l6.692.888M347.681 354.884l-.462 4.123M354.373 355.772l-.585 4.194M354.373 355.772l6.05.8M353.931 366.039l-.888 4.166M353.931 366.039l-7.517-.999M346.414 365.04l-.497 4.212M346.414 365.04l.54-3.914M346.414 365.04l-6.029-.684M340.385 364.356l-4.79-.473M340.385 364.356l-.496 4.11M340.385 364.356l.525-4.016M335.594 363.883l-.513 4.067M353.043 370.205l-7.126-.953M345.917 369.252l-.597 4.22M345.917 369.252l-6.028-.786M339.89 368.466l-4.809-.516M339.89 368.466l-.545 4.305M335.081 367.95l-.59 4.25M345.32 373.472l-5.975-.7M339.345 372.771l-4.855-.57M361.618 387.809l.262-2.506M361.618 387.809l4.732.383M360.78 395.241l.63-5.428.208-2.004M373.62 394.72l.186-1.665M378.103 397.32l-1.872-.168-.576-.183-.271-.214-.296-.528-.198-.332-.252-.233-.638-.59-.38-.351M365.482 395.683l5.09.43.933-.2.855-.412 1.26-.78M361.68 366.505l-.008.096M361.68 366.505l.122-1.134M362.214 361.557l.153-1.232M361.802 365.37l.184-1.698.228-2.115M362.214 361.557l.488.163M362.702 361.72l-.106-.507-.23-.888M364.284 342.501l-.1.971M366.592 322.296l-1.871 16.378-.437 3.827M360.422 356.571l-.393 4.452M336.268 357.65l4.882.646M341.15 358.296l6.07.71M371.762 358.768l-6.962-.163M371.762 358.768l.023 3.373M347.22 359.007l6.568.959M353.674 360.741l.114-.775M346.953 361.126l4.014.343 1.141-.026.63-.119.936-.583M371.785 362.14l-7.334.157M361.848 380.029l-1.649-.068M361.848 380.029l.595.04M361.848 380.029l-.342 3.47.073.833.3.971M360.296 379.386l-.097.575M360.296 379.386l1.026-8.867M398.555 370.809l-2.24-.596-.916-.153-.855-.03-.894-.056-2.153-.25M395.461 360.826l-.031.901-.14.75-.435.978-3.358 6.269M364.035 361.552l-.307.137-.295.126-.381.195M363.052 362.01l-.35-.29M363.437 362.534l-.226-.363-.16-.16M353.788 359.966l6.241 1.057M363.483 371.103l.506-4.605M363.483 371.103l-.514 4.63M363.989 366.498l.272-2.677M364.45 362.297l.35-3.692M364.45 362.297l-.189 1.524M364.8 358.605l.248-2.254M365.048 356.35l.596-4.82M365.644 351.53l.386-3.744M366.03 347.786l.492-4.176M363.644 363.828l.041-.3-.073-.558-.175-.436M363.644 363.828l.308-.001.31-.006M362.97 375.734l-.527 4.335M362.443 380.069l4.865.484M362.443 380.069l-.563 5.234M360.78 395.241l-.04.332-1.116 10.488-1.454 12.404M362.836 370.665l-1.514-.146M361.322 370.519l.096-1.072M374.288 389.171l-.482 3.884M374.288 389.171l.482-3.806M374.288 389.171l4.657.49M374.288 389.171l-3.703-.484M367.308 380.553l-.958 7.64M366.35 388.192l4.235.495M366.35 388.192l-.868 7.491M371.346 381.02l-.761 7.667M378.945 389.661l.443-3.931M378.945 389.661l-.41 3.886M378.945 389.661l6.132.703M389.167 390.77l-4.09-.406M389.167 390.77l-.407 3.91M389.167 390.77l.478-3.634M373.806 393.055l4.728.492M378.534 393.547l-.431 3.773M378.534 393.547l6.231.67M378.103 397.32l6.227.765M383.801 402.748l-6-.78-.155-.145-.04-.298.497-4.205M384.33 398.085l.435-3.868M384.33 398.085l-.529 4.663M384.33 398.085l3.953.369M374.77 385.365l4.618.365M379.388 385.73l6.046.827M528.33 368.073l-2.037-.306-2.02-.26-1.928-.184-1.85-.183-1.073-.061-1.679-.107-4.74-.443-2.69-.215-1.322-.122-.886-.052-.47-.03-.416-.021-.445-.02-.515-.011-.797-.02-.73-.03-2.441-.046-2.845-.091-14.908-.245-9.437-.367-4.461-.244-10.665-.994-10.026-.963-25.06-2.263-8.41-.673-6.017-.122-7.617.107-7.384.719M385.869 382.597l4.317.437M385.869 382.597l-.435 3.96M385.077 390.364l.357-3.807M385.077 390.364l-.312 3.853M390.186 383.034l-.54 4.102M388.76 394.68l-3.995-.463M388.76 394.68l-.477 3.774M385.434 386.557l4.211.579M388.283 398.454l-.368 3.897-.266.524-.308.262-.657.02-2.883-.41M342.03 540.785l-1 9.068M360.199 379.96l-.09.634-1.112 9.936-2.292 20.474-3.435 30.592-2.55 22.734-3.482 30.576-5.208 45.879M327.131 540.654l12.723 2.217.225-.03.14-.138.513-1.506.109-.16.148-.062 1.041-.19M327.131 540.654l-45.574-8.033-2.114-.565-2.207-.582M484.818 597.654l-3.902-.368-2.285-.076-5.022-.351-5.643-.23-5.503-.046-4.493-.26-3.7-.09-8.488-.307-3.217.107-2.55.015-3.172.153-5.145.596-8.69.857-10.789 1.07-5.503.626-3.078.429-1.415.366-1.71.245-1.368.245-2.02.26-1.229.167-3.474.765-1.104.23-1.135.312-1.391.383-3.14 1.032-.684.359-.708.45-1.096.964-4.353 3.531-4.679 3.531-7.757 5.917-6.887 5.228-1.912 1.207-2.006 1.101-5.627 2.645-1.353.443-1.321.367-1.492.152-4.85.276-5.162.183-3.7-.084 5.395-48.467 3.57-31.734M325.77 549.308l3.21.535.925.198 2.067.604 2.884.802 2.97.528 1.246-.061.134-.032.057-.09.319-1.686.085-.141.14-.065 1.223-.047M325.77 549.308l1.361-8.654M308.638 546.181l5.286.917 3.42.918 8.425 1.292M360.78 395.241l4.702.442M375.454 241.995l-5.224 47.429-3.638 32.872" clip-path="url(#p1f3a527c46)" style="fill:none;stroke:#000"/><path d="m340.305 314.59 6.37 1.189 12.098 2.359.45.153.265.268.25.466.597 1.873.405.68.44.441.47.216.555.136 1.928.046 2.46-.12M317.002 310.141l-4.275 21.222M340.305 314.59l-17.691-3.451-5.612-.998M374.015 241.632l-1.39.087-1.85-.045-1.649-.061-6.606-.689-.533-.015-.52.02-.316.102-.248.184-14.271 12.033-11.41 9.541-8.411 7.018-1.788 1.514-.746.856-.249.58-.109.72-1.118 6.982-3.6 18.37-2.2 11.312M375.454 241.995l2.782-24.159M375.454 241.995l-1.44-.363M152.71 237.127l-38.718 10.832M152.71 237.127l12.121-3.732M113.365 249.238l1.259 1.62 3.606 1.743 4.042.611 5.752 2.813 6.871 5.535 7.804 6.514 1.803 1.193 3.172.489 2.891.153 1.306-.949.218-4.189.31-6.85.187-7.705.125-13.089M112.23 248.136l1.762-.177M112.23 248.136l1.135 1.102M113.365 249.238l.627-1.279M164.831 233.395l-5.24-12.148M248.554 209.824l-7.882 2.156-7.648 2.309-2.647.942-2.561.97-1.166.58-.948.398-1.15.275-4.245.397-1.01.123-1.275.275-8.845 2.554-26.677 7.584-17.669 5.008M378.236 217.836l4.4-38.425M388.154 220.436l-1.158-1.912-.404-.23-.35-.106-1.306.03-2.222-.06-1.96-.23-1.523-.107-.995.015M386.787 176.867l-.93 1.549-.76.604-1.268.382-.94.054-.253-.045M312.727 331.363l26.09 3.175M273.038 348.166l34.916.122.52-.015.638-.107.319-.244.38-.666.32-1.368 2.596-14.525M338.817 334.538l1.488-19.947M273.038 348.166l-1.85-22.307-.14-.642-.28-.474-.621-.321-.948-.2-1.353-.167-5.239-.612-.886-.23-.637-.52-1.555-2.017M273.178 349.772l-.14-1.606M124.825 111.58l-.893 1.752-.397 1.26-.085 1.125.1 1.445.234.933.777 1.49 1.5 2.898 1.166 2.393 2.013 3.013 1.726 2.285 1.531 2.302.762.963.354.276.396.213.676.222 1.263.2 5.224.534 2.852.497 2.457.696 2.463 1.17 2.534 1.483 2.014 1.132 1.049.565.925.306.94.298.63.467 1.15.78.622.336.996.29 1.764.276 3.637.764 2.705.849.731.45.785.567.778.535.579.386.307.153.35.103.403.012.685-.134.761-.07.638.05 1.251.425 1.05.818 1.484 1.628 1.64 1.66 1.656 1.758 1.142 1.116 1.314 1.163 2.324 1.674.58.373.341.1.245.018.249-.017.351-.086.828-.467 1.58-1.405.427-.26.576-.068.971.092 1.314.046 1.314-.031 1.243-.314 1.943-.963 2.472-1.476 2.2-1.047 2.756-1.154 3.703-1.396.789-.164.836-.046.652.07.677.282.564.329.621.485.533.6.26.46.109.331.062.295.035.31" clip-path="url(#p1f3a527c46)" style="fill:none;stroke:#000"/><path d="m248.554 209.824-4.532-4.159-1.586-1.33-2.393-1.766-1.205-.819-1.61-.94-2.176-1.238-.886-.666-.77-.879-1.119-1.414-1.329-1.972-.66-.948-.645-1.094-1.034-2.033-1.509-2.592-.777-1.3-.7-.84-.975-1.262-1.465-1.965-1.368-2.515-1.096-2.141-.63-1.193-.932-1.46-1.61-2.63-1.67-2.974-1.935-3.18-1.221-1.935-1.142-1.62-1.213-1.705-.467-1.11-.124-.687-.016-.642.063-.826.994-2.363.863-1.299 1.427-1.422.668-.673.245-.249M214.446 97.062l.358 1.995-.435 1.162-1.617 8.93-.995 2.386.933 2.14.248 1.346 3.11 2.875 1.616 1.59 2.426.123.56.55-.312 1.712.622 5.75-.684 1.957.684 6.912-.902 3.914-1.647 2.508-1.43 5.535-2.962 3.536M374.015 241.632l-4.998-1.258-1.134-.26-1.975-.214-3.637-.321h-1.4l-1.585.122-2.907.046-1.089-.06-1.15-.215-2.052-.367-2.985-.413-2.938-.367-8.255-1.391-6-1.01-4.555-.642-5.208-.58-10.135-1.377-10.867-1.636-2.425-.305-2.099-.108-9.234-.733-1.508-.245-2.16-.872-1.975-1.131-9.327-7.049-1.633-1.025-2.223-.825-3.84-.566-5.534-.397-.7-.136-.287-.293-.101-.32.03-.75 1.509-7.905.073-.675-.12-.472-.318-.405-.381-.207-.383-.029-.97.106-2.44.642-6.545 1.835M528.33 368.073l2.705.336 2.752.337 2.44.305 5.566.75 3.715.55 3.545.489 1.57.198 1.119.153.886.184.668.153 1.104.26 11.893 3.012 9.545 2.538 8.332 2.263 3.452.947 3.202.887 3.73.872 1.299.32.785.138.591.062.738.053.614-.012.972-.03 3.055-.332 4.042-.49 1.6-.23 2.52-.26 3.062-.336 1.787-.168 4.85-.443 5.302-.474M545.446 329.483l-.808 1.987-4.135 9.189-4.369 9.403-3.902 8.302-1.88 4.403-.95 2.309-1.072 2.997M361.672 366.601l-.254 2.846M358.152 366.39l.574.597 2.692 2.46M358.152 366.39l2.602-1.5M340.91 360.34l6.043.786" clip-path="url(#p1f3a527c46)" style="fill:none;stroke:#000"/></g><g id="PatchCollection_1"><path d="m365.093 358.135.212-1.414 2.828.093.023 1.414zM380.839 368.72l-.534 4.096-3.877-.525.39-3.974z" clip-path="url(#p1f3a527c46)" style="fill:green;fill-opacity:.8"/></g><path id="PatchCollection_2" d="m388.158 376.448-.646 5.558 3.844.431.645-5.558z" clip-path="url(#p1f3a527c46)" style="fill:#90ee90;fill-opacity:.8"/></g></g><defs><clipPath id="p1f3a527c46"><path d="M101.958 86.4h534.083v554.4H101.958z"/></clipPath></defs></svg>