<svg xmlns="http://www.w3.org/2000/svg" width="960" height="960" viewBox="0 0 720 720"><defs><style>*{stroke-linejoin:round;stroke-linecap:butt}</style></defs><g id="figure_1"><path id="patch_1" d="M0 720h720V0H0z" style="fill:#fff"/><g id="axes_1"><path id="patch_2" d="M90 637.773h558V89.427H90z" style="fill:#fff"/><g id="LineCollection_1"><path d="m150.827 137.779-5.407 6.636-3.636 2.44-8.022-.444-3.134.998-4.388.998-3.259-.222-2.381-1.441-3.76-2.883-4.137-6.322-1.505-.776-5.64-.555-1.505-2.55-1.504-2.107-1.818-2.616M504.615 514.874l1.368.642 3.387 1.812 1.035.754.911.744.638.652 2.776 4.214.797.702 1.024.697 1.123.36 1.118.248 6.858 1.161.91.125.828.04 6.466.061.957.2 1.066.485 2.071 1.32 2.75 2.09 2.264 1.52 1.255.54 2.59.987M548.72 589.12l-7.285-5.27-9.456-7.514-9.167-7.217-2.397-2.05-1.547-1.702-.321-.678-.063-.527.118-.72.595-.914 4.58-4.672 5.695-5.811 13.608-13.798 3.726-4.019M504.615 514.874l-8.165-3.474-.796-.377-.481-.296-5.976-4.268-.573-.433-.681-.475-1.728-1.01-4.938-2.26-3.159-1.545-2.803-1.286-4.278-1.71-3.185-1.128-3.376-1.034-1.767-.737-1.157-.749-.85-.85-2.84-4.343-2.234-3.563-1.13-1.562-.476-.498-1.341-1.004-2-1.683-2.297-2.72-1.84-2.183-2.191-2.1-2.05-1.718-2.272-1.993-1.591-1.203-2.274-1.143-1.979-.826-1.557-.488-2.113-.675-1.084-.396-1.065-.729-1.298-1.531-4.5-5.314-3.706-4.589-4.63-5.581-4.1-4.44-3.004-3.725-1.807-2.146-1.134-1.268M401.305 354.68l-.236 2.282-.97 3.698-.805 2.245-.42.838-3.148 4.3-.31.847-.075.804.624 4.115 1.661 5.397 1.301 4.258.228 1.231.111 1.106.317 9.034-.095.882-2.062 11.082L395.2 421.4l.013 2.614.241.926.463.873 5.757 7.124 2.516 2.884M333.38 454.36l2.9-2.495 2.397-1.62 3.244-1.095 3.995-.595 3.996-.014 1.614.263 5.265 1.219 1.692.208h1.927l7.569-1.205 3.008-.167 3.855.236 4.403.97 5.405 1.122 2.304.042 2.319-.139 4.67-1.427 3.885-1.538 3.087-2.286 1.802-2.758.799-1.856.673-5.404M401.305 354.68l-1.889-9.093M404.424 349.647l-2.311 3.271-.808 1.761M399.416 345.587l-5.482-4.282M399.416 345.587l5.008 4.06M399.416 345.587l.499-.342 4.263-4.195M389.314 345.908l4.149 2.467 1.357-.016 1.378-.295.944-.443 2.274-2.034" clip-path="url(#p0878bd0ece)" style="fill:none;stroke:#000"/><path d="m403.747 340.685-4.246 4.205-.085.697M404.424 349.647l9.767-9.273M381.78 331.042l-3.537-5.674M381.78 331.042l-6.168 3.027M382.373 331.782l-.007-.318-.032-.144-.062-.095-.095-.069-.398-.114M381.78 331.042l3.383-1.599M382.373 331.782l3.198-1.632M388.764 337.003l-4.308-3.498-2.083-1.723M382.373 331.782l-6.18 2.848M375.234 320.594l2.749 4.269M376.193 334.63l4.832 4.607M376.193 334.63l-.581-.561M374.134 335.485l.547-.031.568-.288.944-.536M395.803 325.404l1.256 1.111M395.803 325.404l-.398-.717M395.803 325.404l3.549-1.663M395.803 325.404l-4.734 2.188M395.405 324.687l-1.514.634-3.19 1.58M399.043 323.1l-1.885.748-1.753.839M375.612 334.069l-2.102-1.923M375.612 334.069l-.704.498-.557.395-.217.523M389.314 345.908l4.62-4.603M381.025 339.237l2.434 2.13 3.495 3.008 2.36 1.533M404.178 341.05l4.871-4.88M404.178 341.05l-.43-.365M408.723 335.929l-4.976 4.756M408.723 335.929l.326.241M408.723 335.929l-4.952-4.047M408.723 335.929l.406-.167M416.327 328.619l-5.71-3.777M416.327 328.619l-.488.6M416.327 328.619l.34.578M403.747 340.685l-4.871-4.114M416.744 337.489l-2.553 2.885M393.934 341.305l-5.17-4.302M393.934 341.305l4.942-4.734M410.618 324.842l-.486.517M410.618 324.842l-1.777-1.203-.86-.56-.673-.326M388.764 337.003l4.76-4.676M413.569 331.406l2.27-2.188M413.569 331.406l-5.31-4.03M413.569 331.406l-4.44 4.356M419.678 333.656l-.579-.395-.525-.305-.713-.229-2.53-.595-.424-.104-.368-.132-.97-.49M408.258 327.376l1.874-2.017M408.258 327.376l-4.487 4.506M397.059 326.515l7.424-.99.793.002.634.253 2.348 1.596M397.059 326.515l6.712 5.367M403.771 331.882l-4.895 4.69M414.19 340.374l-5.14-4.204M416.666 329.197l1.011.36.897.406 2.985 1.744 7.23 5.062M443.825 342.927l-4.403-1.4-1.7-.034-.933.131-2.804.679-.604.007-.65-.243-.47-.332-1.692-2.258-1.78-2.708" clip-path="url(#p0878bd0ece)" style="fill:none;stroke:#000"/><path d="m497.749 311.112-2.005.773-10.42 6.306-1.214.617-.854.283-4.035.894-2.045.77-3.141 1.593-8.093 4.462-7.193 3.118-9.432 4.442-2.14.748-2.17.395-7.999.637-4.434.215-1.857.257-.799.118-1.13.029M386.49 348.03l-5.405-3.371-2.589-1.711-.159-.438.034-.34 2.654-2.933M378.243 325.368l-.26-.505M378.243 325.368l-7.786 3.818M370.457 329.186l3.053 2.96M382.909 190.403l-9.306.56-4.075-.998-3.698-1.11-4.45-.72-2.946-.776-2.005-2.385-4.639-.165-3.51.332-4.763 2.107-.878 3.343-1.378 4.935-3.009 1.885-.439 5.433-2.381 1.83-3.071.72-1.567 2.639-1.88 6.597-4.764 5.046-3.196 2.273-3.034.8-.761.908-.228 1.313-.61 3.5-1.52 2.39-.876 3.803-.228 4.04.418 3.432 1.446 3.4 1.902 3.23 4.072 8.28 2.165 1.975 1.683 1.526 2.244 1.017 2.09 1.576.645.384 2.496.955 1.753.93.87.919.575 1.686.729 2.159 2.216 2.493 1.024 1.414.869 1.923.547.942 1.248.794 10.14 5.06 2.23 1.427 1.472 1.315 1.234 1.861.743 1.638.547 1.996.393 5.681-.196 1.96-.351 1.724-.94 2.518-.7 2.68-.655 2.189-.474 2.123-.572 1.539-.532 2.176-.33.81-1.257 1.912-.348.853.102.831.418.745.827.856 1.265 1.459 1.744 2.372 1.52 1.775 2.624 2.41.83.395.596.153.881.059 1.031-.126.585-.218.855-.21.648.007 2.29.761 1.148.717M389.254 327.531l-.745-1.065-.528-.28-.536-.154-7.616-1.531-.499-.054-.479.066-.868.35M389.254 327.531l-4.091 1.912M389.254 327.531l1.447-.63M389.984 323.944l.244.61.26.961.206.794.007.591M391.07 327.592l.068-.238.014-.17-.056-.113-.106-.074-.289-.097M391.07 327.592l-5.5 2.558M382.909 190.403l.41 5.984 1.137 4.657 2.374 3.927.826 7.306v1.278l-1.962 2.649-1.238 2.1-1.446 4.566-1.342 2.375.103 1.552 1.962 2.83 2.271 3.289 4.646 3.013 1.755.64 5.368.639 6.918 2.557 3.51.913 3.82 1.46 2.89 1.736.93 1.826.928 3.653-.31 5.57.31 8.31-.826 6.118-.929 7.488-1.858 3.561v2.009l2.89 6.574.517 3.47-1.136 6.3-1.032 3.288-6.069 8.916-1.63 1.884-1.093 1.03-1.483.812-5.153 2.545-8.012 4.047-.578.654-.299.969-.094 1.046M386.725 322.773l.784 1.209.221.218.328.14.577-.007.753-.192.596-.197M369.183 339.12l2.83-1.833 2.121-1.802M369.183 339.12l-.93.37M373.51 332.146l-1.787 2.487-1.582 2.66-.958 1.826M364.745 339.272l-4.085-.843M359.174 341.913 365.52 344l.4-.197.136-.482-.961-3.095-.349-.954" clip-path="url(#p0878bd0ece)" style="fill:none;stroke:#000"/><path d="m368.253 339.49-1.3.154-2.208-.372M356.898 337.595l3.762.834M357.45 335.616l-.337 1.027-.215.952M343.234 338.052l7.757-.263 5.907-.194M357.45 335.616l10.803 3.874M356.595 334.148l-.33.5-.03.249.253.233.963.486M360.66 338.43l-1.486 3.483M343.234 338.052l-.423 2.278.162.879.682.548 12.982-.294.78.057 1.757.393M637.27 347.989l-5.345-2.686-1.314-.529-8.555-2.401-4.25-1.213-4.133-1.322-1.61-.549-1.496-.935-1.18-.998-1.06-1.261-.98-1.854-.391-.855-.484-3.235-.339-3.07-.36-1.274-2.864-5.215-3.404-6.254-2.883-5.113-.877-.919-1.145-.469-8.05-2.257-2.02-1.91-2.524-7.269-1.346-2.257-4.067-3.722-2.861-1.09-6.591-.894-3.423-.844-3.253-.843-2.356-.199-2.721.447-3.73 2.382-1.319 3.72-2.496 8.956-.14 2.828.71 3.928-.099.536-2.24 4.269-2.077 5.175-.532.853-4.63 4.587-.494.637-.298.686-1.309 3.167-.752.914-1.151.79-5.813 1.663-5.195 2.065-1.167.27-1.465-.138-1.92-.777-1.543-1.039-2.883-3-.98-1.386-.775-1.677-.595-2.168-.76-4.303-.964-2.266-.83-1.213-.823-.686-3.19-1.503-3.383-2.3-.926-.262-3.87-.595" clip-path="url(#p0878bd0ece)" style="fill:none;stroke:#000"/><path d="m554.293 219.164-5.1 5.318-6.62 10.905-10.824 37.137-2.496 5.756-5.526 6.35-7.601 7.294-2.216 6.97-2.104 3.25-14.057 8.968M399.352 323.741l-.31-.64M399.352 323.741l1.453-.495 2.049-.333 1.496.007 1.512.145 1.117.287M406.979 323.352l3.153 2.007M406.979 323.352l.329-.599M295.181 319.732l5.843 4.348 16.335 14.315 1.575.853 1.285.16 3.649-.566 10.216-.582 9.15-.208M150.827 137.779l-.71 12.554 46.84 50.677M261.125 300.523l-9.3-3.78-19.514-16.735-24.245-47.074-1.71-21.754-9.4-10.17M226.545 126.629l.076 5.182-.456 4.24.456 5.787 1.065 15.795.229 13.257.151 3.836-1.445 2.625-3.575 3.713-4.26 3.431-5.63 3.298-3.574 4.172-1.674 4.644-2.206 3.297-1.446.134-3.803-.336-3.496 1.306M403.061 99.972l.7.425 1.136 1.37.619 1.553v1.461l-.516 1.37v2.375l-.207 1.462-2.064 2.283-2.788 3.562v1.005l.826.639 1.549.091 1.962-.274 1.754.366.723.457.103 1.004-2.684 3.014-1.858 1.187-.31 1.005.206 1.553.62 2.466-.413 2.1-1.033 2.832-.412 3.014.31 1.279 1.032.73 3.51 1.096 4.646 3.014.516 1.188.31 3.653-.413 4.475 1.032 3.014 1.549 3.106-1.24 3.653-1.238 2.009-3.923 2.648-8.362 2.832-5.06.639-3.716-1.096-3.407-.457-2.374-2.648h-1.343l-1.961 1.096-.723 2.283.517 2.1 1.754 11.964.519 7.533M295.181 319.732l-9.465-7.043-6.096-4.24-5.233-2.481-13.262-5.445" clip-path="url(#p0878bd0ece)" style="fill:none;stroke:#000"/><path d="m162.15 316.258 11.672 2.847 4.858 2.05 3.98 1.248 2.789.14 3.04-.361 3.447.582 6.832 1.385 8.366 1.028 5.014-.554 7.334-1.86 10.466-3.683 2.43-1.43 1.426-1.33.987-1.968.877-1.926 1.426-3.146 1.238-1.802 1.143-.815 7.897-1.552 7.145-1.885 3.51-1.995 3.098-.708M160.128 315.267l.846 1.843M162.15 316.258l-.87-.375-1.152-.616M504.615 514.874l-1.436 1.311-.69.284-.767.139-2.068.284-.831.152-.69.264-6.118 3.733-1.434.547-1.308.27-5.437.173-9.73 1.261-5.018 1.054-2.144.61-9.447 3.572-1.576.694-1.274.92-8.347 9.94-3.141 3.408-1.826 1.573-1.707 1.053-5.685 2.196-3.56 1.641-2.79 1.58-1.982 1.565-1.41 1.523-.736 1.427-.627 1.462-.838 3.033-.635 2.134-.102 1.032.14 1.448.471 1.606.9 2.265.706 1.275 2.053 2.424.353.52 1.026 3.012-.04.908-.211.679-.43.595-3.973 4.87-.878 1.51-.783 1.724-1.801 4.552-.362 1.46-.093 1.246.219 1.122.514 1.493 1.542 3.707.442 1.704.8 5.57M481.415 608.708l-1.59 1.87-.283.18-2.483 1.129-2.452 1.37-1.098.978-.806 1.226-.188.928.023.796.65 1.89.063.479-.16 1.68-.263.36-.529.21-.654.032-5.093-2.24-.7-.12-3.506-.095-.486.076-.392.298-1.026 2.126-.321.512-.455.256-1.888.388-3.612.347-1.292.436-1.465 1.31-1.254 1.557-.439.326-.72.215-1.31-.29-1.566-.69-8.83-6.791-5.236-4.3-10.198-7.758M443.825 342.927l-.47.457-.463.555-.274.533-.149.568-.023.728M446.849 344.195l-1.552-.81-1.472-.458M450.766 346.066l-1.19-.88-.69-.326-2.037-.665M447.765 347.978l-.376-2.578-.164-.478-.376-.727M450.766 346.066l.02.848.016.506-.232 1.964-.313.998-.854 2.037-1.144 1.94" clip-path="url(#p0878bd0ece)" style="fill:none;stroke:#000"/><path d="m459.407 350.618-2.185-1.698-1.41-.727-.855-.319-2.706-.974-.744-.363-.741-.47" clip-path="url(#p0878bd0ece)" style="fill:none;stroke:#000"/><path d="m459.407 350.618-.046 1.517.188.173 2.969.395.282-.11-.04-2.772-.195-.25-2.899-.34-.227.146-.032 1.241" clip-path="url(#p0878bd0ece)" style="fill:none;stroke:#000"/><path d="m459.407 350.618.032-1.24.227-.146 2.899.34.195.25.04 2.77-.282.111-2.97-.395-.187-.173.046-1.517M160.974 317.11l.54-.43.635-.422M170.994 332.284l-2.374-2.758-3.4-4.448-2.006-3.174-2.24-4.794M172.396 333.178l6.691 3.513 1.693 1.455 1.065 1.566 1.614 3.173 2.35 4.42 1.254 1.47 2.945 2.106 1.207 1.33.548 1.165-.109 1.233-.517 1.524-.596 1.802.032 1.274.391 1.497 1.41 2.633 2.398 3.256 1.128 2.19 1.27 3.491 2.162 6.596.893 1.51 1.582 1.331 3.62 2.633 7.114 5.293 1.864 1.608 1.88 2.078 1.771 1.718 2.555 1.69 1.488.735 2.178.305 2.585.374 1.818.499 3.055.97 1.677.526 7.537 1.961 1.442.554 1.668.935 2.045 1.545 3.126 3.201.776.506 1.065.457 3.478 1.102 2.077.492 2.648.45 6.863 1.566 2.116.748 2.71 1.108 6.26 3.485 2.585 1.787 1.873 1.622 4.309 4.759 3.04 3.492 1.018.893 1.073.68 1.873.81 2.037.665 3.55 1.296 2.263.761 4.058 1.947 4.92 2.577 1.755 1.04 2.335 1.85 1.057.685 3.683 1.96.744.52 5.28 6.027 1.795 1.594 1.77.865 1.333.458 1.26.2.823-.01 1.724-.37M171.064 333.587l1.332-.41M171.064 333.587l-.07-1.303M170.994 332.284l1.402.894M410.132 325.359l5.707 3.86M415.84 329.218l.826-.02M637.27 347.989l-1.985 2.11-.564 1.752.11 1.857-.517 2.21-1.959 2.675-2.57 1.85-6.73 1.233-5.39.61-1.473-.139-1.911.471-2.977-.221-1.442.83-2.037.195-2.005-.25-3.604 2.356-3.416 4.046-3.134.97-3.823.666-2.852 2.05-.94 2.384.125 1.746 3.667 9.062 1.002 2.3-2.538 1.774-.47 3.048.031 4.351-2.412 3.353-2.993 2.938-.494.658-2.75 5.737-.807 1.004-.893.527-1.943.56-2.687.991-1.317.312-.971.083-2.429.09M407.308 322.753l-.679-.3-.896-.153-2.358-.073-1.72.093-2.612.78M385.57 330.15l-.407-.707M409.05 336.17l.08-.408M295.181 319.732l-2.618 1.05-1.911.887-1.238.942-.392.54-.298.569-.047.79.157 1.261.344 1.095.173.707.031.72-.204.54-.627.818-2.162 1.718-3.854 2.938-.705.693-.596.748-.517.998-.455.887-1.08 2.259-.769 2.023.016.541.25.582 1.066 2.452" clip-path="url(#p0878bd0ece)" style="fill:none;stroke:#000"/></g><path id="PatchCollection_1" d="m681.91 141.717-.099.674.033.79.298.733.398.733.662.44.961.029.563-.528.232-.469.033-.644.1-.616.231-.468-.496-.674-.696-.089-1.193-.058-.596-.058z" clip-path="url(#p0878bd0ece)" style="fill:#00f;fill-opacity:.8"/><g id="PatchCollection_2"><path d="m382.666 339.843-.259-.256.341-.269.259.257zM382.98 340.176l.454-.41.35.306-.454.409zM384.374 340.01l-.294-.217.235-.25.294.217zM381.907 337.827l.538.416.109-.11.154.12.433-.438-.193-.149-.156.158-.5-.387zM381.664 337.354l.226-.228.402.311-1.078 1.09-.401-.311z" clip-path="url(#p0878bd0ece)" style="fill:#a9a9a9;fill-opacity:.8"/><path d="m381.664 337.354-.205-.159.226-.227.205.158zM380.644 337.938l-.27-.276.423-.325.27.275zM381.726 336.448l.306-.298.345.277-.307.298zM381.107 336.268l-.372-.33.587-.519.373.33zM379.97 337.383l-.32-.353.41-.293.322.354zM378.983 336.469l.714-.568.34.333-.714.568zM378.929 336.4l-.444-.387.517-.464.444.386zM378.521 335.104l.431-.34.258.256-.431.34zM378.278 335.866l-.412-.348.478-.443.412.347zM377.612 334.986l-.195-.257.478-.284.195.257zM378.514 334.522l-.353-.527.52-.272.352.527zM380.124 334.211l-.576-.41-.11-.187-.086.035-.149-.264.611-.27.125.173.612-.221.36.616-.423.153-.079-.125-.125.076.062.232z" clip-path="url(#p0878bd0ece)" style="fill:#a9a9a9;fill-opacity:.8"/><path d="m380.605 334.647-.48-.436.221-.192.482.435z" clip-path="url(#p0878bd0ece)" style="fill:#a9a9a9;fill-opacity:.8"/><path d="m380.95 334.959-.345-.312.223-.193.344.312zM379.743 334.723l-.579-.547.332-.276.58.547zM381.434 332.613l.566.87.446-.228-.132-.202.331-.168-.173-.266-.17.086-.204-.312-.299.152-.058-.089zM381.82 335.672l-.588-.485.278-.264.588.486zM383.41 334.654l-.595-.534.542-.474.596.534zM384.307 335.044l.154.143-.803.674-.197-.183.246-.207-.45-.42.436-.365.492.46z" clip-path="url(#p0878bd0ece)" style="fill:#a9a9a9;fill-opacity:.8"/><path d="m383.693 334.686.598-.503.493.46-.599.502zM384.89 335.23l.333.255-.111.114.38.293-.298.304-.296-.228-.073.074-.197-.151.057-.057-.221-.17zM385.069 336.27l-.375.417-.532-.374.374-.417zM385.1 336.74l.572.479-.422.395-.572-.478zM386.512 337.136l-.291-.236.334-.322.291.235z" clip-path="url(#p0878bd0ece)" style="fill:#a9a9a9;fill-opacity:.8"/><path d="m385.962 337.15.259-.25.29.236-.258.25zM386.585 338.009l.727-.587.406.394-.293.236-.183-.177-.433.35zM388.093 338.958l-.479-.407.384-.353.48.406zM388.673 338.528l-.493-.464.508-.423.494.465zM386.237 339.776l-.296-.255.313-.284.296.255zM387.326 339.686l-.377-.333.333-.295.377.333zM386.307 339.214l-.501-.422.262-.244.502.423zM385.03 339.658l.415-.333.342.334-.415.333zM384.309 341.286l-.564-.485.456-.414.564.485zM385.061 341.861l-.447-.388.499-.448.447.388zM386.252 342.925l-.314-.24.317-.325.315.24zM387.34 342.76l-.357-.282.364-.359.356.283z" clip-path="url(#p0878bd0ece)" style="fill:#a9a9a9;fill-opacity:.8"/><path d="m386.854 343.238-.356-.283.485-.477.356.282zM387.433 343.862l-.368-.347.502-.416.367.347zM388.412 342.857l-.23-.164.297-.326.231.164z" clip-path="url(#p0878bd0ece)" style="fill:#a9a9a9;fill-opacity:.8"/><path d="m388.412 342.857.298-.326.584.419-.297.325zM387.943 342.65l.556.38-.23.263-.557-.38zM388.405 341.305l-.251-.18.203-.22.25.18zM389.078 341.375l-.368-.305.306-.289.368.305zM389.173 339.082l-.2-.174.328-.295.2.173zM388.96 340.314l-.588-.51 1.13-1.018.587.51zM389.8 339.65l.511-.522.415.318-.512.522zM389.909 340.28l-.415-.318.306-.312.414.318zM391.084 339.864l.439.34-.358.36-.438-.34zM391.264 341.596l-.199-.154.43-.437.2.155zM392.323 341.57l-.127-.106.07-.065-.326-.273.41-.383.452.379zM390.851 342.728l-.502-.347.388-.44.502.347zM390.103 342.81l-.345-.27.27-.27.345.271zM390.189 343.462l-.38-.319.422-.395.381.319zM388.975 344.813l-.58-.416.418-.455.58.415zM395.344 344.324l.54-.499.406.344-.386.356-.195-.165-.155.142zM394.64 344.033l.673-.637.414.342-.674.638zM393.856 343.493l1.096.9-.525.5-1.097-.9zM393.566 343.66l-.478-.334.235-.264.478.332zM392.65 343.597l.015-.18.259.017-.015.18zM391.89 344.378l-.44-.332.4-.412.438.332zM393.065 344.295l.328.45-.487.278-.202-.276.11-.062-.128-.174zM390.659 345.882l-.255-.264.438-.333.256.264zM391.325 346.325l-.047-.402.398-.036.047.402zM391.834 346.228l-.07-.34.337-.054.07.34zM392.273 346.214l-.076-.332.501-.09.076.332zM392.872 346.08l-.105-.437.532-.101.106.436zM394.345 346.119l-.052-.357.486-.055.052.356zM393.977 345.78l-.056-.3.564-.084.056.3zM394.141 347.581l-.023-.442.362-.015.024.442z" clip-path="url(#p0878bd0ece)" style="fill:#a9a9a9;fill-opacity:.8"/><path d="m394.141 347.581-.567.023-.047-.886.568-.024zM394.878 347.567l-.072-.356.697-.11.073.355zM395.38 346.181l.603.527-.334.299-.603-.527zM396.64 346.95l-.47-.422.26-.225.47.422zM397.488 344.822l.531.46-.357.323-.373-.323.19-.172-.158-.136zM403.079 333.72l-.386-.35.118-.102-.104-.095.408-.353.49.444zM403.175 334.482l-.478-.437.189-.161.478.436zM402.187 334.357l-.391-.346.384-.34.392.347zM401.796 335.05l-.604-.485.474-.46.604.484zM402.846 335.709l-.439-.36.463-.442.438.36zM405.298 334.614l-.15-.089.125-.166.15.088zM405.763 335.185l-.164-.14.42-.386.32.272-.42.386zM405.518 335.41l-.291-.248.245-.225.291.248zM407.398 336.38l-.462-.366.374-.37.462.368zM406.63 337.018l-.564-.492.336-.302.565.492zM406.215 336.803l.446.333-.376.394-.446-.332zM405.055 338.722l-.369-.33.588-.513.369.33zM403.958 339.554l-.308-.298.369-.298.308.298zM402.846 339.34l-.132-.15.29-.2.131.148zM400.44 343.028l-.339-.332.478-.38.34.332zM400.958 342.412l-.31-.287.352-.298.31.287zM401.85 341.879l-.501-.416.339-.32.501.416zM402.313 341.186l-.405-.335.439-.415.405.334zM400.51 339.145l-.469-.409.343-.309.47.41zM399.18 338.674l.422-.409.305.247-.423.408zM399.038 338.604l-.43-.346.456-.445.43.347zM397.91 338.19l.634.546-.56.508-.634-.547zM397.471 340.535l-.47-.416.259-.229.47.416zM397.056 339.01l.572.464-.482.465-.572-.465zM396.155 341.331l-.337-.305.24-.207.337.305zM395.615 340.424l.472-.507.627.457-.473.507zM394.949 341.04l.423-.45.455.334-.424.45zM396.704 341.497l-.248-.213.313-.284.248.213zM396.038 342.287l-.379-.304.705-.686.379.304zM396.837 342.655l-.466-.43.565-.478.465.43zM398.25 342.05l.17.175-.211.158-.169-.175zM398.42 342.225l-.448-.464.467-.351.447.464zM398.066 343.77l-.388-.328.674-.624.389.328zM394.76 327.297l-.274-.506.98-.416.274.506zM392.684 328.24l-.317-.528.736-.347.318.528zM392.465 331.045l-1.005-.18.078-.343-.239-.042.055-.238-.517-.092.139-.603.497.088.058-.25 1.263.226zM390.608 331.544l-.368-.596.47-.227.367.596zM389.386 330.214l-.643-1.158.825-.358.642 1.158zM387.827 331.087l-.313-.575.594-.253.313.575zM385.502 331.823l-.68-.946.41-.231.463.643.517-.291.217.302zM384.787 332.043l-.415-.603.33-.178.415.603zM383.47 332.022l-.16-.304.603-.25.161.305zM388.516 334.503l.29.305-.289.214-.29-.304zM387.843 335.217l-.378-.416.478-.34.378.416zM388.438 335.937l-.446-.418.556-.465.446.419zM391.317 333.162l-.416-.39.705-.589.416.39zM392.136 332.597l-.345-.343.458-.36.345.343zM393.871 331.393l-.274-.433.391-.193.274.433zM393.613 333.585l-.478-.43.433-.377.478.43zM394.18 334.08l-.143-.124.18-.162.144.123zM393.491 334.215l.286.225-.248.247-.287-.224zM392.915 334.219l-.404-.355.45-.402.405.355zM393.194 334.953l-1.148-.946.253-.24 1.148.946zM392.081 334.099l1.036.872-.16.147-.344-.29-.16.147-.69-.58zM391.262 334.85l.395-.382.732.592-.394.382zM391.09 335.002l.513.433-.217.2-.513-.432zM391.74 336.02l-.321-.322.287-.224.322.322zM389.926 336.767l-.381-.314.518-.491.38.313zM390.194 336.66l.666-.581.294.263-.166.145.17.152-.47.41-.29-.26-.03.026zM391.917 337.6l-.265-.245.368-.312.265.245zM391.619 338.14l-.462-.408.391-.347.463.41zM393.186 338.598l-.15-.152.334-.255.149.153zM392.818 339.159l-.26-.248.306-.25.26.248zM393.766 340.254l-.557-.555.518-.406.556.555zM394.283 339.56l-.379-.328.424-.38.378.328zM394.94 339.02l-.563-.429.44-.453.565.43zM393.578 337.912l-.649-.536.564-.533.648.535zM394.839 337.018l-.451.433-.681-.554.45-.433zM395.463 336.514l-.531.436-.18-.172.065-.054-.378-.36-.153.127-.238-.225.194-.159.174.165.263-.216-.21-.2.163-.133zM395.371 337.375l.68.586-.417.38-.452-.39.15-.137-.228-.196zM396.132 337.919l-.643-.561.38-.34.642.561zM395.792 336.514l-.24-.186.14-.14-.403-.312.42-.423.642.499zM396.937 337.17l-.349-.292.212-.197-.176-.149.165-.154.525.441zM400.213 333.221l-.234-.263.27-.189.234.263zM400.887 333.367l-.368-.43.37-.248.368.43zM401.334 332.431l-.463-.45.317-.254.462.45zM402.03 332.21l-.372-.276.47-.499.373.275zM408.169 330.638l-1.421-1.176.118-.112-.184-.151.15-.143.094.078.201-.19-.11-.092.15-.143.16.133.345-.326.796.658-.207.197.25.208-.223.211.853.706-.39.37-.439-.363zM406.55 329.944l1.615 1.235.25-.255.347.265-.222.228-.213-.163-1.697 1.736-.405-.31.449-.459-.285-.217.347-.355-.343-.262.458-.469-.717-.549zM408.459 332.98l.328-.41.244.153-.33.409zM407.832 332.501l.603.326-.209.302-.603-.325zM408.521 333.956l.612.541-.494.436-.611-.54zM408.153 333.596l.306-.312.243.186-.306.312zM409.775 332.338l.655.511-.228.227.075.059-.231.232-.47-.367.242-.242-.26-.203zM409.508 332.466l-.184-.123.196-.229.185.124zM409.505 330.426l-.243-.205.23-.213.243.204zM409.775 330.107l-1.183-1.004.372-.343 1.183 1.005zM410.135 330.835l-.53-.39.589-.624.529.39zM410.895 331.445l-.392-.36.315-.268.392.36zM411.632 331.874l-.479-.447.58-.485.478.447zM406.235 327.318l.37-.445.603.391-.273.33-.322-.21-.097.116zM404.667 328.534l-.218-.173.369-.362.218.172z" clip-path="url(#p0878bd0ece)" style="fill:#a9a9a9;fill-opacity:.8"/><path d="m405.286 329.026-.62-.492.37-.363.618.492zM402.505 329.151l.493-.436.435.384-.494.437zM401.282 326.872l-.053-.407.674-.07.053.407zM400.546 328.437l-.402-.308.517-.527.402.309zM401.596 329.636l-.54-.436.917-.887.54.436zM378.687 330.953l-.253-.45.398-.175.253.448zM379.08 331.646l-.393-.693.63-.279.392.693zM377.81 332.186l-.298-.61.362-.138.298.61zM377.857 329.962l-.243-.326.33-.192.242.326zM378.241 329.318l-.214-.282.43-.256.214.281zM378.915 329.338l-.315-.511.635-.305.314.511zM373.877 329.144l.032-.332.65.048-.032.333zM374.23 328.486l-.019-.342.494-.02.018.341zM374.95 328.195l-.337-.58.776-.352.337.578zM376.345 327.613l-.311-.495.494-.242.31.495zM378.22 326.75l-.456.211-.216-.365-.144.066-.168-.282.6-.279zM379.337 325.09l-.177-.344.431-.174.178.346zM382.146 329.577l-.492.25-.268-.414.492-.249z" clip-path="url(#p0878bd0ece)" style="fill:#a9a9a9;fill-opacity:.8"/><path d="m382.146 329.577-.268-.413.37-.187.267.413z" clip-path="url(#p0878bd0ece)" style="fill:#a9a9a9;fill-opacity:.8"/><path d="m381.939 330.267-.285-.44.861-.437.286.44zM383.216 327.793l-.063-.215.246-.056.063.215zM382.487 327.78l-.164-.327.374-.147.164.326zM382.685 329.032l-.52-.88.504-.233.102.172.32-.147.34.576-.474.219.077.132zM384.026 328.644l.918-.39.32.586-.92.39zM384.026 328.644l-.307-.564.775-.33.307.564zM384.93 327.162l-.225-.47.308-.114-.093-.195.296-.11.318.662zM386.397 327.557l-.25-.554.423-.15.25.554zM386.303 326.858l-.22-.423.272-.11.22.422zM385.653 326.407l-.128-.299.439-.145.127.299zM386.702 326.754l-.133-.284.214-.079.133.284zM387.415 327.627l-.47-.832.542-.24.47.832zM404.134 323.85l-.055-.374.32-.036.054.374zM403.734 323.982l-.094-.409.309-.055.093.409zM402.967 323.857l-.069-.542.635-.063.068.543zM400.671 324.21l-.125-.72.583-.08.125.721zM398.947 325.291l-.164-.851.487-.074.165.852zM400.436 325.243l-.181-.654.862-.187.18.654zM401.752 324.647l-.062-.402.339-.04.063.4zM403.265 324.78l-.09-.568.619-.076.09.567zM404.384 324.792l-.037-.615.73-.034.037.615zM406.085 324.627l-.603-.014.01-.343.603.014zM407.574 326.227l-1.709-1.012.668-.88 1.707 1.011zM408.929 337.556l-.392-.302.423-.429.392.301zM407.723 338.672l-.326-.278.4-.367.325.277zM409.14 338.568l.494-.486.435.347-.494.484z" clip-path="url(#p0878bd0ece)" style="fill:#a9a9a9;fill-opacity:.8"/><path d="m409.14 338.568-.413-.33.494-.484.413.328zM411.122 338.997l-.337-.284.238-.22.336.284zM411.514 339.551l-.439-.296.352-.409.44.296zM412.321 341.041l-.423-.38.357-.312.424.382zM409.705 342.496l-.29-.222.202-.207.29.222zM409.226 342.891l.362-.361.408.318-.362.362zM408.717 342.635l-.423-.4.384-.318.423.399zM408.114 341.928l-.32-.246.415-.422.32.245zM407.338 341.298l-.298-.258.298-.27.298.257zM406.25 340.41l-.534-.436.44-.419.532.437zM405.505 342.205l.925-.09.336-.27-.015-.416-.102.007-.031-.464-.196.076-.125-.041-.236.194-.196-.153-.438.45.149.166zM403.883 342.642l-.454-.437.407-.331.454.436zM402.195 343.941l-.446-.371.435-.409.446.371zM402.45 342.953l.6-.488.56.54-.302.245-.08-.078-.299.243zM403.366 343.837l-.252-.232.58-.492.252.232zM403.852 345.7l-.197-.151.267-.27.196.152zM404.73 343.407l-.216-.211.243-.194.215.211zM407.408 344.232l-1.239-.957.446-.452 1.24.958z" clip-path="url(#p0878bd0ece)" style="fill:#a9a9a9;fill-opacity:.8"/><path d="m408.349 344.96-.94-.728 1.245-1.26.94.726zM407.319 345.51l-.34-.266.406-.408.341.265zM406.492 345.763l.417-.357.47.43-.417.356zM406.233 345.618l-.312-.289.38-.322.313.288zM405.905 344.242l-.165-.184.219-.153.165.184zM405.274 344.845l-.243-.258.326-.24.242.259zM400.706 348.164l-.361-.275.43-.444.363.276zM400.472 348.649l.156-.257.17.082-.157.256zM402.665 349.605l-.443-.278.306-.38.443.277zM401.968 349.958l.197-.276.509.284-.197.277zM401.177 350.61l.346-.564.994.479-.345.563zM401.623 351.878l-.472-.163.266-.603.472.163zM437.639 336.725l-.048-.382.361-.034.047.38zM437.591 337.188l-.031-.408.405-.025.031.41zM436.918 337.757l-.024-.298.444-.028.023.298zM436.573 337.168l-.016-.485.372-.01.016.486zM435.249 337.736l.028-.294.375.027-.027.295zM435.139 337.202l-.094-.782.564-.054.093.784zM434.199 337.3l-.072-.83.509-.035.072.83zM434.708 338.221l-.023-.242.27-.02.023.242zM434.105 338.145l-.008-.444.475-.006.008.443zM433.698 337.805l.027-.204.266.027-.027.205zM432.695 337.556l-.008-.236.179-.004.007.235zM433.948 337.175l-.441.024-.032-.436.442-.025zM432.86 337.216l-.032-.457.55-.03.03.458zM431.896 337.258v-.526h.705v.526zM460.304 351.07l.132-.015.116-.058.081-.094.035-.113-.017-.117-.066-.103-.106-.072-.128-.03-.132.015-.116.058-.082.094-.034.113.017.117.066.103.105.071zM461.103 351.153l.132-.014.116-.06.081-.092.035-.114-.017-.117-.066-.102-.106-.073-.128-.03-.132.015-.116.058-.082.094-.034.113.017.117.066.103.105.071zM461.855 351.147l.132-.015.116-.059.081-.093.036-.114-.017-.117-.067-.102-.105-.072-.129-.031-.132.015-.116.059-.081.093-.035.113.017.117.066.102.105.073zM461.777 351.985l.132-.015.115-.058.082-.094.035-.114-.017-.117-.066-.102-.105-.072-.13-.03-.132.014-.115.059-.081.093-.036.114.017.117.066.102.106.072zM461.017 351.853l.132-.014.115-.06.082-.092.035-.114-.017-.117-.066-.102-.105-.073-.129-.03-.133.014-.115.059-.081.093-.036.114.017.117.066.102.106.072zM460.218 351.774l.132-.015.116-.059.081-.093.035-.114-.017-.117-.067-.102-.105-.072-.128-.031-.133.015-.115.058-.082.094-.035.113.017.118.067.102.105.072zM460.233 350.201l.083-.635 1.018.104-.082.635zM456.74 346.979l3.008.36-.17 1.104-3.008-.36z" clip-path="url(#p0878bd0ece)" style="fill:#a9a9a9;fill-opacity:.8"/><path d="m456.74 346.979.163-1.069 3.008.36-.163 1.07zM452.289 345.878l.486.22-.198.34-.486-.222zM448.677 347.651l-.038-.352.408-.035.038.353zM447.495 349.335l-.024-.582.758-.024.023.582zM447.11 349.17l.008-.424.254.003-.008.424z" clip-path="url(#p0878bd0ece)" style="fill:#a9a9a9;fill-opacity:.8"/><path d="m446.782 348.741.336.005-.007.423-.337-.004z" clip-path="url(#p0878bd0ece)" style="fill:#a9a9a9;fill-opacity:.8"/><path d="m447.118 348.746-.742-.01.016-.867.742.01zM448.325 351.483l-.04-.485.52-.033.039.485zM445.01 351.836l-.046-.478.628-.048.047.478zM445.575 353.471l.447-.577 1.527.925-.446.577zM444.196 353.263l-.45-.52.28-.19.45.52zM441.67 346.313l.855.016-.017.686-.344-.007.003-.086-.511-.01zM420.634 334.334l-.365-.275.455-.471.364.275zM425.71 337.757l.214-.28.407.242-.213.28zM425.232 339.343l-1.59-1.032.48-.578 1.59 1.033zM417.83 331.553l-.378-.208.204-.29.379.207z" clip-path="url(#p0878bd0ece)" style="fill:#a9a9a9;fill-opacity:.8"/><path d="m417.806 332.11-1.262-.693.29-.412 1.26.693zM419.208 332.927l-.51-.319.292-.364.51.319zM418.43 333.946l-.674-.413.408-.522.674.413zM417.085 334.022l.475-.608 1.45.887-.476.608zM417.225 334.493l.149-.22.329.173-.149.22zM414.084 333.606l.321-.36.412.288-.32.36zM413.778 333.031l.298.215-.175.19-.297-.215zM413.089 333.336l-.556-.45.375-.362.556.45zM413.222 334.604l-.632-.486.47-.478.632.486zM413.872 335.096l-.501-.388.38-.383.5.388zM413.723 335.491l.372-.33.4.354-.372.33zM411.334 334.978l-.392-.346.364-.323.392.347zM411.177 336.6l-.736-.534.444-.48.736.534zM411.545 336.994l-.295-.22.376-.395.296.22zM413.403 337.085l-.273-.264.455-.367.271.263zM412.485 338.13l-.315-.237.407-.423.316.238zM412.932 338.491l-.317-.285.509-.443.318.285zM413.762 337.944l.486.388-.42.413-.487-.388zM414.092 339.371l-.377-.344.768-.658.377.344zM415.385 336.908l.275-.264.423.347-.275.263zM415.028 337.362l.247-.233.45.374-.247.233zM414.71 337.098l-.171-.163.235-.194.172.163zM415.075 336.835l-.208-.175.29-.27.208.175zM415.588 336.118l.141-.242.253.114-.142.243zM426.392 348.6l-.564-.326.21-.284.564.326zM425.17 349.591l-.404-.266.392-.465.403.267zM416.724 345.905l-2.499-2.058 1.434-1.362 2.499 2.058zM411.555 344.794l.427-.434.475.366-.19.194-.193-.149-.236.24zM411.516 344.734l-.506-.38.057-.06-.16-.12.251-.26.161.121.067-.07.504.38zM413.183 344.686l-.533-.479.203-.177.533.479zM410.135 345.462l.094-.412 1.05.187-.094.412zM409.626 346.82l-.298-.915.495-.126.298.915zM410.19 347.921l-.437-.356 2.397-2.3.438.356zM401.302 358.203l.195-.741.467.096-.196.742zM403.253 362.34l-.51-.61.347-.226.51.61zM405.325 367.169l.231-.094.173-.166.088-.211-.01-.226-.107-.204-.187-.152-.24-.078-.254.009-.23.094-.174.166-.087.211.01.225.106.204.187.153.24.078zM406.316 368.222l.231-.095.173-.165.088-.211-.01-.225-.107-.205-.187-.152-.239-.078-.255.009-.231.094-.172.166-.089.21.01.226.107.205.188.152.239.078zM404.287 366.348l-.254-.334.502-.298.253.334zM403.278 365.47l-.524.337.338.412.617-.396-.25-.305-.093.06z" clip-path="url(#p0878bd0ece)" style="fill:#a9a9a9;fill-opacity:.8"/><path d="m402.65 364.734 1.09-.7.471.572-.143.092.231.28-.933.6-.24-.293-.158.102-.461-.56z" clip-path="url(#p0878bd0ece)" style="fill:#a9a9a9;fill-opacity:.8"/><path d="m402.65 364.734-.518-.632.933-.599.519.632zM359.34 340.431l-.343-.091.177-.516.343.091zM359.607 338.859l.482.107-.113.395-.482-.108zM359.074 338.859l.116-.401.427.097-.116.4zM358.67 339.624l.109-.253.352.118-.108.253zM358.208 339.77l.079-.223.239.065-.079.223zM358.204 339.388l.157-.318.345.133-.156.319zM358.396 338.876l.2-.55.467.131-.2.551zM358.363 338.687l-.414-.094.049-.167-.132-.03.08-.278.547.125zM357.664 338.973l-.318-.1.211-.527.318.1zM356.888 338.412v-.472h.403v.472zM355.646 338.56l-.01-.393.517-.01.01.393zM355.063 338.855l.02-.35.295.015-.021.35zM355.031 338.384l-.004-.374.402-.004.004.375zM354.83 338.437l-.223-.006.005-.118-.21-.006.012-.341.434.013zM353.869 338.023l.443.008-.011.427-.18-.003.003-.14-.263-.006zM353.162 338.81l.028-.662.457.015-.028.662zM352.56 338.627l.03-.61.44.017-.032.61zM352.019 338.98l.004-.416.397.003-.004.416zM351.416 338.63l.007-.395.505.008-.008.395zM350.796 338.467l-.014-.416.53-.014.014.416zM350.19 338.505l.024-.425.533.024-.025.426zM349.688 339.122l-.027-.36.402-.024.027.36zM349.622 338.543l-.028-.399.505-.027.028.399zM349.042 338.557l-.005-.507.513-.003.005.507zM348.544 338.9l-.004-.257.31-.004.003.258zM348.49 338.547v-.42h.462v.42zM347.863 338.588l.004-.398.431.003-.004.399zM347.298 338.491l-.003-.29.288-.004.005.291zM346.719 338.627v-.406h.388v.406zM346.39 339.205l-.008-.305.272-.005.008.305zM346.076 338.78v-.552h.56v.551zM345.552 338.634l-.012-.42.474-.01.011.42zM344.81 339.067l.018-.455.478.013-.017.456zM344.18 338.963l.009-.46.478.007-.009.46zM343.518 339.15l.06-.544.384.032-.059.544zM343.51 339.839l.036-.2.25.036-.035.199zM343.412 340.667l.006-.401.352.003-.005.402zM343.984 340.878v-.239h.275v.24zM344.369 340.02l.007-.354.32.005-.008.354zM344.423 340.99l.016-.583.32.007-.016.582zM345.136 340.913v-.547h.45v.547zM345.63 341.17l.023-.624.418.012-.024.624zM345.642 340.445v-.488h.4v.488zM346.135 340.116v-.319h.345v.32zM346.194 340.972l.035-.429.591.039-.035.428zM346.923 340.962v-.61h.43v.61zM347.534 340.937l-.02-.52.439-.012.02.52zM347.93 340.14l-.009-.402.222-.003.008.402zM348.09 341.045l-.004-.52.378-.002.004.52zM348.584 340.937l-.009-.464.41-.006.007.465zM348.678 339.773l.004-.197.506.011-.005.196zM349.1 340.896l.016-.6.57.012-.016.6zM349.754 340.733l-.01-.347.4-.01.016.486-.2.005-.004-.14zM350.428 340.868l-.015-.489.416-.01.015.489zM350.918 340.847l-.004-.474.402-.003.004.475zM351.384 339.745h-.333v-.242h.333zM351.675 340.088l-.008-.329.27-.005.008.329zM351.482 340.092l-.008-.33.193-.003.008.33zM351.627 340.795l.008-.416.403.007-.008.415zM352.1 340.806l.005-.45.37.002-.004.45zM352.646 340.358l.557-.002.003.636-.415.002v-.212h-.143zM353.28 340.778l-.004-.444.449-.003.003.444zM353.832 340.725l.02-1.193.386.005-.014.775.188.003-.008.418zM354.455 340.74l.008-.437.443.007-.009.436zM354.498 340.168v-.253h.208v.253zM355.011 340.73l.009-.496.59.007-.007.496zM355.282 340.213v-.333h.29v.333zM355.654 340.688l-.012-.575.508-.008.012.574zM355.862 339.978l-.016-.292.21-.008.016.29zM356.708 339.777l-.213.003-.004-.19.213-.004zM356.375 340.251v-.294h.337v.294zM356.203 340.826v-.575h.587v.575zM356.841 340.875l-.023-.884.383-.007.024.883zM357.57 339.853l-.322-.045.046-.253.321.045zM357.565 340.196l.096-.386.608.118-.096.386zM357.593 340.882l.255-.624.34.109-.255.623zM358.521 341.188l-.363-.113.101-.256-.157-.048.12-.304.147.046.048-.12.373.116zM358.747 341.246l.244-.687.408.113-.183.515-.199-.056-.062.173zM360.363 340.133l.159-.412.71.215-.16.412zM360.124 340.41l.118-.228.529.215-.119.228zM359.462 341.668l.265-.63.589.193-.222.527-.348-.114-.043.104zM360.245 341.71l.184-.444.424.138-.184.443zM360.723 341.83l.214-.46.478.173-.214.461zM361.737 340.993l.125-.315.276.085-.125.315z" clip-path="url(#p0878bd0ece)" style="fill:#a9a9a9;fill-opacity:.8"/><path d="m361.37 340.878.124-.315.368.115-.125.315zM361.397 342.063l.164-.417.462.142-.164.417zM361.941 342.233l.147-.452.435.11-.147.453zM362.575 342.451l.147-.4.4.115-.147.4zM363.136 342.61l.239-.55.383.13-.239.55zM363.962 342.96l.25-.6.7.23-.251.599z" clip-path="url(#p0878bd0ece)" style="fill:#a9a9a9;fill-opacity:.8"/><path d="m363.962 342.96-.346-.113.251-.599.346.113zM364.742 343.123l.16-.46.439.119-.16.46zM376.533 372.66l-.215-.092.145-.266.215.091zM397.4 359.1l.014-.433.823.021-.014.434zM398.88 358.727l.028-.556.721.027-.027.556zM399.766 356.655l.016-.444.521.015-.015.443zM398.797 355.679l.655-.007.015 1.03-.655.007zM398.78 354.466l1.206-.014.018 1.214-1.207.013z" clip-path="url(#p0878bd0ece)" style="fill:#a9a9a9;fill-opacity:.8"/><path d="m398.78 354.466-.012-.78 1.206-.013.012.779zM395.95 357.05l.025-1.642 1.022.011-.024 1.642zM396.154 354.757l-.146-.92 2.398-.298.146.92zM392.143 352.536l.194-.062.152-.122.087-.165.01-.181-.07-.172-.138-.134-.186-.077-.206-.009-.193.062-.152.122-.088.165-.009.181.07.171.138.135.186.077zM392.849 353.492l.193-.062.152-.122.087-.164.01-.182-.07-.171-.138-.135-.186-.077-.206-.008-.193.06-.152.124-.087.164-.01.181.07.172.138.134.186.078zM391.673 353.79l.194-.062.151-.122.088-.164.01-.182-.07-.171-.138-.135-.186-.077-.205-.009-.194.062-.152.123-.087.164-.01.181.07.172.138.134.186.078zM391.03 352.82l.194-.062.152-.122.087-.165.01-.181-.07-.171-.138-.134-.185-.078-.206-.009-.193.062-.152.122-.088.165-.01.182.07.17.138.135.186.077zM389.197 353.222l.194-.062.152-.122.087-.165.01-.182-.07-.17-.138-.135-.186-.077-.205-.009-.194.062-.151.122-.088.165-.01.182.07.17.138.135.186.077zM389.675 354.43l.194-.06.152-.123.087-.165.01-.181-.07-.171-.138-.135-.186-.077-.205-.009-.194.062-.152.122-.087.165-.01.181.07.171.138.135.186.077zM391.76 351.098l1.206-.256.134.494-1.206.257zM393.726 352.72l-.25-.717.223-.061-.076-.22 1.802-.492-.063-.179.517-.14-.039-.11.642-.175.428 1.228zM398.258 350.059l-.36-.72.451-.177.36.72zM392.32 349.158l-.05-.187.16-.032-.052-.199.319-.065.1.386zM391.395 349.435l-.055-.367.285-.034.055.368zM391.191 348.7l.286-.465.463.222-.287.465zM388.998 349.45l.043-.208.298.048-.043.208zM390.141 349.99l-.105-.281.4-.118.105.28zM390.486 348.27l.41-.546.486.283-.41.548zM390.283 348.306l-.424-.192.322-.554.423.192zM389.21 347.35l.219-.402.348.149-.219.402zM387.807 347.759l.109-.225.33.124-.11.225zM388.097 347.426l.242-.575.588.194-.243.575zM386.984 347.71l-.327-.228.321-.36.327.228zM386.632 348.43l.227-.345.43.222-.226.345zM386.487 346.743l-.336-.312.404-.34.335.313zM387.125 346.224l-.316-.296.498-.416.315.296zM386.51 345.729l-.666-.43.43-.52.665.43zM386.273 344.649l-.224-.171.258-.265.225.171zM385.014 344.928l-.492-.332.18-.208.492.332z" clip-path="url(#p0878bd0ece)" style="fill:#a9a9a9;fill-opacity:.8"/><path d="m384.866 344.498.32-.37.406.276-.32.37zM384.527 344.01l.376-.306.258.25-.375.305zM384.002 343.524l.322-.412.415.254-.32.411zM383.673 343.087l-.43-.35.346-.333.43.35zM382.94 341.428l.545.488-.403.352-.545-.489zM382.326 341.719l-.225-.214.447-.368.224.215zM382.153 341.362l-.28-.257.329-.28.28.256zM381.213 340.724l.431-.37.492.448-.43.37zM380.873 340.302l.378-.308.321.308-.379.309zM380.775 340.337l-.145-.129.455-.398.144.128zM380.304 340.627l.174-.213.415.263-.173.214zM379.92 341.77l-.38-.284.383-.402.381.285zM380.343 342.312l-.297-.208.237-.266.298.208zM381.91 343.392l-.407-.346.425-.39.408.346zM383.085 345.324l.43-.57.56.329-.176.233-.13-.078-.256.339zM383.086 345.125l-.38-.23.314-.405.379.23zM381.427 346.504l-.884-.573.383-.462.48.312-.117.142.403.26zM380.45 346.666l.281-.334.494.325-.282.335zM379.799 347.061l-.337-.25.104-.11.338.25zM377.213 341.423l-.471-.412.552-.494.47.411z" clip-path="url(#p0878bd0ece)" style="fill:#a9a9a9;fill-opacity:.8"/><path d="m376.476 341.567.445-.4.292.256-.447.399zM379.61 338.615l.573.534-.588.492-.572-.533zM377.903 338.324l.72-.589.32.306-.72.59zM377.778 338.241l-.384-.374.238-.191.383.374zM377.809 337.666l-.367-.337.408-.347.366.337zM377.025 337.105l-.405-.375.541-.457.405.374zM375.753 336.203l.322-.267.582.549-.436.36-.58-.549zM375.753 336.203l-.626-.59.84-.698.627.59zM376.618 338.504l-.431-.392.549-.471.43.392zM373.79 337.07l-.36-.367.375-.288.36.367zM372.004 340.576l.07-.77.834.06-.07.77zM341.543 344.314l.172-.728.302.056-.172.728zM342.686 342.073l.43.047-.076.552-.242-.026.025-.181-.189-.02zM342.225 342.807l.033-.201.266.034-.034.202zM341.268 342.669l.016-.54.587.012-.016.54zM341.088 340.763l.478-.014.023.595-.478.014zM341.496 339.35l-.006-.382.572-.007.006.382zM339.905 340.327l-.008-.34.233-.004.008.34zM338.808 339.301l.486-.16.294.7-.124.04-.091-.217-.363.119zM338.581 339.086l-.034-.29.455-.042.034.29zM333.073 336.1l.145-.55.572.118-.145.55zM333.877 336.49l.084-.44.795.118-.053.28-.175-.026-.03.162zM336.68 335.142l.056-.221.595.118-.056.22zM337.549 337.124l-.291-.129.18-.319.291.13zM331.556 329.76l.276-.584.616.227-.155.33.293.109-.12.254zM329.934 328.476l.18-.235.28.167-.18.235zM329.417 329.467l-.83-.72.663-.599.831.72zM330.29 331.875l-.869-.405.154-.26.87.406zM340.993 337.45l-.018-.584.595-.014.018.583zM341.972 337.227l-.313-.796.527-.162.313.797zM342.56 335.946l-.345-.511.485-.256.345.51zM343.421 336.84l-.266-.686.504-.153.266.686zM344.025 337.082l.055-.451.502.049-.056.45zM344.91 337.124l.022-.343.4.02-.023.344zM358.33 336.52l-.446-.193.115-.208.447.194zM356.239 336.445l-.486-.23.242-.4.485.228zM355.023 334.776l.477.004-.003.381-.602-.004.001-.187h.125zM354.887 334.733l-.004-.346.376-.004.004.347zM355.725 333.046l.342-.448.482.287-.342.448zM357.092 333.254l-.321-.201.47-.589.322.201zM356.834 333.943l.38-.46.357.23-.38.46zM358.977 334.068l-.163-.12.301-.321.163.119zM358.115 334.993l.212-.287.265.153-.211.287zM359.416 335.72l-.447-.204.245-.418.446.204zM360.465 336.04l-.36-.129.18-.395.36.128zM360.794 335.887l.061-.304.376.058-.06.305zM361.131 336.21l.098-.299.302.078-.097.298zM361.39 336.642l.082-.35.365.067-.082.35zM362.255 336.407l.107-.382.521.115-.107.38zM362.839 336.971l.121-.62.368.056-.122.62zM371.332 336.74l-.247-.257.47-.354.247.257zM372.832 335.596l-.51-.485.489-.4.509.484zM373.048 334.174l.558.54-.378.306-.37-.358.115-.093-.188-.182zM373.666 333.683l-.39-.318.325-.312.39.319zM370.431 335.111l.193-.294.243.125-.194.293zM369.424 335.932l.286-.41.458.249-.286.41zM369.562 337.097l-.407-.215.322-.478.407.214z" clip-path="url(#p0878bd0ece)" style="fill:#a9a9a9;fill-opacity:.8"/><path d="m368.99 337.127.165-.245.407.215-.166.245zM368.472 336.926l-.208-.083.073-.142.208.084zM368.249 337.165l.03-.195.259.03-.03.197zM368.82 337.484l.13-.298.21.071-.129.298zM369.01 336.933l-.29-.118.203-.391.29.118zM369.377 332.776l.443-.448.568.44-.443.448zM368.985 332.786l-.219-.243.185-.13.22.243zM367.528 332.121l-.204-.1.2-.321.204.099zM372.041 332.256l.332-.37.375.263-.331.37zM370.592 331.688l.618-.596.44.358-.618.596zM370.182 330.753l-.36-.375.529-.396.463.483-.53.396z" clip-path="url(#p0878bd0ece)" style="fill:#a9a9a9;fill-opacity:.8"/><path d="m369.917 330.477.265.276-.41.307-.265-.276zM369.306 330.85l-.188-.205.222-.159.188.204zM368.636 330.434l-.305-.211.267-.302.305.211zM368.836 329.58l.65-.31.27.44-.446.213-.066-.108-.204.098zM368.268 329.287l.502-.33.319.38-.502.33zM367.659 328.433l.765.235-.207.528-.575-.177.07-.179-.19-.058zM363.25 329.984l.11-.312.319.087-.11.312zM362.103 329.194l.135-.425.61.153-.134.424zM361.405 329.076l-.231-.07.074-.193.231.07zM361.507 329.138l.102-.156.25.129-.1.155zM360.787 328.528l-.51-.062.052-.329.509.062zM360.112 328.598l-.285-.028.017-.14.286.028zM361.574 326.973l-.145-.34.419-.14.144.34zM372.491 327.143l-.205-.311.415-.215.206.31zM371.598 326.117l-.603-.942.412-.207.603.943zM371.549 324.88l-.87-1.44.845-.4.87 1.442z" clip-path="url(#p0878bd0ece)" style="fill:#a9a9a9;fill-opacity:.8"/><path d="m371.175 325.057-.87-1.441.374-.176.87 1.44zM372.585 323.49l.343-.17 1.332 2.078-.343.171zM375.367 323.602l-.578.281-1.089-1.746.577-.281zM365.164 322.966l1.575 1.984-.918.57.656.827-.266.165-.627-.79-.027.017-.69-.868.286-.177-.915-1.153zM367.818 327.063l.072-.381.329.048-.072.381zM368.829 327.562l-.416-.291.17-.19.416.29zM374.95 319.348l.976-.344.263.585-.859.303-.085-.189-.118.042zM378.733 324.078l-.09-.473.51-.076.09.473zM379.815 323.884l.088-.26.391.104-.088.26zM388.495 325.994l-.11-.37.348-.08.11.37zM389.647 326.424l-.152-.288.368-.153.152.288zM385.587 323.79l-.263.09-.134-.304-.123.042-.202-.457.384-.133zM385.686 323.604l-.219-.524.576-.188.22.522zM385.462 322.876l-.321-.652.773-.298.24.491-.218.084.08.163zM387.68 323.23l.525-.188.148.325-.525.187zM388.378 322.9l-.279-.403.372-.2.279.402zM388.143 322.221l-.124-.219.266-.118.124.22zM388.683 321.956l-.038-.256.142-.017-.074-.496.493-.057.111.753zM388.1 320.725l-.228-.43.374-.155.228.43zM389.216 320.347l-.294-.41.485-.271.293.409zM389.612 319.893l-.4-.52.415-.25.4.52zM390.133 319.713l-.225-.292.416-.25.224.293zM390.791 320.43l-.349-.603.532-.24.349.603zM394.36 318.268l-.31-.547.607-.268.309.547zM393.525 317.499l-.192-.372.317-.129.192.373zM395.194 316.082l.198-.1.13.201-.199.1zM395.041 316.44l-.126-.195.23-.116.126.194zM394.661 316.62l-.132-.21.301-.15.133.21zM398.567 314.662l.122-.221.337.145-.122.221zM397.963 315.181l.261-.34.462.277-.26.34zM397.854 316.65l-.282-.369.627-.373.282.368zM399.01 318.708l-.294-.471.459-.224.294.471zM397.767 319.422l-.325-.475 1.054-.565.325.475zM398.069 320.198l-.057-.127.117-.042.058.127zM397.207 319.006l-.164-.246.208-.11.165.247zM396.754 320.099l-.186-.241.106-.064-.131-.171.33-.2-.05-.063.417-.251.367.474zM395.914 321.33l-.873-1.49 1.058-.484.874 1.49zM393.075 321.14l-.143-.346.529-.17.142.347zM391.684 322.003l-.294-.308.4-.298.294.308zM391.286 321.733l.303.337-.16.112-.12-.134-.176.124-.182-.203zM392.056 322.81l-.164-.402.414-.132.165.402zM391.19 323.68l-.34-.814.447-.147.34.815zM392.017 325.426l-.259-.44.522-.24.258.44zM393.735 324.2l.225.149.02.308-.314.135-.278-.118-.114-.17v-.087zM393.274 324.417l-.35-.58.205-.095.34.127.304-.235.257.427zM394.8 324.153l-.372-.738.253-.1.135.268.251-.1.238.471zM395.84 323.732l-.153-.342.657-.231.155.34zM397.204 323.247l-.187-.435.435-.146.186.435zM397.564 322.61l.474-.17.172.376-.474.17zM398.363 322.907l-.18-.402.214-.075.18.402zM399.213 322.585l-.121-.295.334-.108.122.295zM402.53 321.421l.67-.055.042.388-.67.055zM401.99 321.778l-.043-.54.544-.035.043.54zM403.256 321.608l-.06-.481.601-.058.06.482zM403.941 321.532l-.07-.55.737-.072.07.55zM405.728 321.612l-.447-.21.325-.543.446.209zM408.587 320.815l-.768-.382.38-.6.768.382zM407.686 322.193l-.438-.291.45-.53.439.292zM408.369 321.438l.45.306-.385.441-.312-.212.06-.07-.137-.093zM409.52 321.615l-.26-.16.116-.146.26.16zM409.143 321.948l-.222-.145.172-.208.223.145zM408.364 322.56l.419-.54.377.229-.42.54zM410.804 320.388l.13-.142.278.197-.13.143zM410.737 321.07l-.293-.176.245-.322.294.175z" clip-path="url(#p0878bd0ece)" style="fill:#a9a9a9;fill-opacity:.8"/><path d="m410.193 321.224.25-.33.294.175-.25.33zM409.979 322.243l-.36-.215.36-.473.36.215zM409.331 322.405l.287-.377.36.215-.286.377zM409.974 323.285l-.323-.2.38-.48.323.202zM410.953 322.017l-.337-.211.175-.219.337.212zM410.667 322.498l.376-.509.34.196-.377.51zM410.58 323.773l-.401-.228.317-.437.402.229zM411.29 323.233l.312.175-.286.398-.312-.175zM410.483 324.075l.303-.461.58.298-.303.46zM412.007 324.085l.23-.239.267.201-.231.239z" clip-path="url(#p0878bd0ece)" style="fill:#a9a9a9;fill-opacity:.8"/><path d="m412.007 324.085-.251-.19.231-.239.25.19zM411.686 324.792l-.435-.329.322-.333.435.329zM412.355 325.301l-.439-.29.358-.422.44.29zM413.217 324.556l-.218-.148.286-.327.217.149z" clip-path="url(#p0878bd0ece)" style="fill:#a9a9a9;fill-opacity:.8"/><path d="m412.99 324.816-.218-.149.227-.26.218.15zM413.248 325.076l-.233-.153.36-.43.234.153zM412.869 325.658l-.278-.18.27-.326.278.18zM418.662 329.334l-.353-.228.4-.485.353.228zM418.49 328.523l-.12-.343.482-.132.12.344zM419.18 328.374l.177-.243.23.131-.177.244zM419.822 329.947l-.252-.175.337-.378.252.175zM421.134 329.801l.14-.194.356.201-.14.194zM420.793 330.585l-.44-.318.416-.45.44.317zM422.634 331.693l-.482-.336.4-.447.481.335zM423.66 331.606l-.352-.247.36-.402.353.248zM427.293 329.113l-.575-.005.001-.144-.405-.003.003-.253.36.003v-.06l.622.005zM427.296 328.923l.738.006-.007.615-.508-.004.003-.255-.23-.002z" clip-path="url(#p0878bd0ece)" style="fill:#a9a9a9;fill-opacity:.8"/><path d="m427.296 328.923.006-.561 1.3.012-.007.56zM428.393 329.853l-.174-.115.267-.312.173.116zM429.19 328.408l.643.12-.067.281-.5-.093.038-.154-.144-.027zM424.84 333.266l-.389-.365.337-.28.389.364zM424.953 333.318l.36-.34.352.291-.36.34zM427.23 334.693l-.375-.29.383-.388.375.29zM427.91 335.29l-.25-.214.4-.367.25.213zM430.676 330.71l-.094-.735.67-.067.094.734zM432.87 331.554l.02-.22.196.015-.02.22z" clip-path="url(#p0878bd0ece)" style="fill:#a9a9a9;fill-opacity:.8"/></g></g></g><defs><clipPath id="p0878bd0ece"><path d="M90 89.427h558v548.345H90z"/></clipPath></defs></svg>