<svg xmlns="http://www.w3.org/2000/svg" xmlns:xlink="http://www.w3.org/1999/xlink" width="960" height="960" viewBox="0 0 720 720"><defs><style>*{stroke-linejoin:round;stroke-linecap:butt}</style></defs><g id="figure_1"><path id="patch_1" d="M0 720h720V0H0z" style="fill:#fff"/><g id="axes_1"><path id="patch_2" d="M92.073 640.8h553.854V86.4H92.073z" style="fill:#fff"/><g id="LineCollection_1"><path d="m343.483 367.715-.617.55M343.483 367.715l-1.528-1.018M343.483 367.715l1.728 1.18M346.24 369.778l.205.134M346.24 369.778l-.731.69M346.24 369.778l-1.029-.882M353.216 374.296l-3.12-1.83M353.216 374.296l-1.663 2.557M361.555 376.743l-.372.006-2.423-.395-3.203-.98-1.125-.476-1.216-.602M356.83 368.393l-.916 1.46-.553.883-1.5 2.456-.645 1.104M351.553 376.853l-2.774-2.45M357.192 385.573l-1.874-3.161-1.473-2.713-.685-.85-1.607-1.996M345.509 370.469l-.405.236-1.384 1.175-1.649 1.676M345.509 370.469l-.496.938M350.096 372.466l-.862-.557M348.78 374.404l.449-.662.867-1.276M348.78 374.404l-.82-.636M348.78 374.404l-1.714 2.68M347.066 377.083l-1.108-.623M348.306 383.532l.323-1.488.387-1.106.858-1.68-.058-.366-.478-.427-2.272-1.382M349.234 371.909l-1.273 1.859M349.234 371.909l-2.789-1.997M347.96 373.768l-2.947-2.361M347.96 373.768l-2.002 2.692M345.958 376.46l-.447.329M342.755 375.061l.437-.858M342.755 375.061l2.756 1.728M342.755 375.061l-.89 1.472M339.227 380.096l-.27.506M339.227 380.096l.487-.464 2.151-3.099" clip-path="url(#pa26145a42a)" style="fill:none;stroke:#000"/><path d="m340.695 375.846-1.126 2.684-.342 1.566M342.071 373.556l1.121.647M342.071 373.556l-.363.443-1.013 1.847M340.695 375.846l1.17.687M343.192 374.203l1.82-2.796M327.666 391.456l.994-.644M328.66 390.812l-.648-.419-.566.403-.019.225.239.435" clip-path="url(#pa26145a42a)" style="fill:none;stroke:#000"/><path d="m315.703 399.287 2.187-1.16 2.407-1.514 7.369-5.157M338.428 381.5l.53-.898M328.66 390.812l2.543-1.756 1.36-1.155 5.865-6.401" clip-path="url(#pa26145a42a)" style="fill:none;stroke:#000"/><path d="m337.983 385.367.267-1.045.178-2.822M337.749 386.079l.234-.712M300.453 335.569l4.915 1.757M300.453 335.569l.824-2.82M300.453 335.569l-.984 2.824M305.368 337.326l.889-2.996M305.368 337.326l-.857 2.866M312.39 340.741l-5.254-2.627-1.768-.788M312.39 340.741l1.716-2.747M312.39 340.741l-1.507 2.213M314.106 337.994l1.575-2.182M306.257 334.33l1.732.68 1.78.781 4.337 2.203M307 331.81l3.195 1.265 5.486 2.737M323.814 341.385l-1.49-1.164-2.39-1.92-4.253-2.49M315.005 340.953l-2.942 3.08M312.063 344.033l-2.31 2.13M312.063 344.033l-1.18-1.079M312.063 344.033l1.654 1.744M293.858 330.304l7.419 2.445M293.858 330.304l-2.219-.843M290.101 335.989l.221-.094.108-.115 3.428-5.476M291.64 329.461l.998-1.671M290.101 335.989l-1.714-.897-.009-.435 3.261-5.196M301.277 332.749l4.98 1.581M306.257 334.33l.744-2.52M313.717 345.777l-1.148 1.11M313.717 345.777l1.152-1.168M304.51 340.192l-5.041-1.799M310.883 342.954l-.235.234-.125.016-.03-.013-2.52-1.4-1.719-.859-1.743-.74M290.101 335.989l.652.307.74.224.387-.057.352-.191.702.094 6.535 2.027M307 331.81l-14.362-4.02M305.244 302.106l-1.68 5.467-.504 2.741.016.984.43 1.245 1.945 2.912 1.595 2.136.383.687.429 1.269.93 3.465 1.04 2.547.103.52-.178.228-.73.447-.49.42-.44.45-.334.57-.33.911-.428 2.705M323.814 341.385l.279.337.597.643 2.13 1.794M327.142 343.804l-2.044-1.74-1.284-.68M285.186 325.972l4.701 1.136 2.751.682M207.85 246.431l3.669.065 1.962.286 2.069.422 4.31.562 1.51.333.618.326.882.718 1.681 3.016 2.696 4.27.502.914.273.746.228.95.593 1.432 1.784 2.897 7.435 8.73.676.935 1.072 1.846.744.893.789.726 2.209 1.374.824.627.972.866 1.246 1.306.898 1.074 4.732 6.337 2.934 3.71.517.935.39.943 1.352 3.946 1.302 2.562.981 1.44 2.416 2.823 1.822 1.936 5.737 4.995 4.113 4.693 8.161 8.061 1.401 1.103.977.516.859.227M253.757 332.387l1.714 1.208.742.4 1.212.43 1.154.252 1.063.118.866-.073.742-.22 1.455-.76 4.262-2.563.734-.317 2.914-.5.7-.22 6.298-3.058 2.464-.599 4.703-.17.338-.195.068-.148M342.866 368.265l-4.122 3.81M342.866 368.265l-1.459-.808M337.698 368.362l-1.17 2.473-.264.272-.985.631-1.906.862" clip-path="url(#pa26145a42a)" style="fill:none;stroke:#000"/><path d="m186.599 327.698 1.797 2.725 2.613 3.368.594.577.66.268 1.038.123 1.146.024 2.003-.204 4.105-.683 1.096-.284 3.57-1.367.824-.138 3.132-.008 5.705-.887 1.574.008 1.855.244 2.77-.147 2.934.065 6.274-.496 7.608-.87 1.162-.048 2.078.194h1.31l1.583-.089 4.287-.504.972.113 1.756.61 1.063.652 1.649 1.443" clip-path="url(#pa26145a42a)" style="fill:none;stroke:#000"/><path d="m117.397 516.697.429-.529.75-1.407.84-2.212 2.284-4.677-.437-3.05.248-1.383.436-.765.52-3.384-.149-1.081 1.5-3.238 2.169-5.816.717-.91 1.096-.773 1.459-6.84.116-3.238-.215-1.871.38-2.424.131-2.148.297-2.684 2.077-3.985 3.15-2.961 1.17-.488.84-.895.61-1.009 1.402-1.171 1.88-2.05 1.302-.748 1.978-1.839.56-.943.281-1.253.412-2.717-.527-1.87-.034-.993.479-1.334.956-1.578 1.22-1.48.51-.911.083-.83-.115-.634-.676-.732-.527-.847-.166-.569.083-1.448.165-.878-.016-.96-1.616-4.019-.569-4.16-.754-4.197-.079-2.282.033-2.408.223-1.334.651-2.163.03-1.997.152-.493.317-.618 3.738-5.9.429-1.465-.013-1.322.174-1.26.548-1.603 1.018-2.062.355-.318.626-.163 1.278.008 2.56-.15.737.094 3.647 1.127 1.286 1.09.618.13 1.056-.082.824.07.964.418 1.538 1.37.507.192 2.823-.065.425-.155.894-.581 1.266-1.346 2.641-1.798 1.25-1.505.87-.508.992-.045.462.272 1.05.875.961.968.61.036 1.352-.789 4.064-3.103 7.345-6.434 2.258-2.4 3.141-3.953.7-.651 1.6-1.236 1.657-1.652.882-.618 4.921-2.53 1.78-2.18 4.386-4.107.717-1.001 1.624-1.838 9.735-9.574 1.27-1.62 2.679-2.781 4.278-3.54 5.35-2.806 1.59-1.114 1.258-1.07 2.94-3.038 4.516-4.034 2.127-1.34M128.649 324.476l-1.846.305-1.36.387-1.262-.033-2.926-.984-.61-.358-1.36-1.74-.371-.277-.767-.228-8.103-.797-1.237-.008-1.78.244-.775-.017-.544-.244-1.162-.765-1.822-.74M338.653 366.037l-.376 1.126-.579 1.2M335.11 364.993l-1.589 1.673-.045.178.086 1.23.103.174.13.037 1.962.069 1.941.008M337.34 362.75l-1.577 2.248M342.436 360.231l-1.741.509-1.101.488-1.684.956-.57.567" clip-path="url(#pa26145a42a)" style="fill:none;stroke:#000"/><path d="m338.653 366.037.45-1.376.021-.317-.086-.22-.153-.244-1.546-1.13M335.763 364.998l-.654-.005M335.763 364.998l2.89 1.04M332.367 365.615l.71-.578M329.927 367.994l.867-.736 1.573-1.643M321.868 355.915l6.665 6.24 3.834 3.46M334.885 363.006l2.086-1.853M334.885 363.006l-1.808 2.031M326.655 355.748l4.318 3.998 3.912 3.26M338.276 360.444l-1.305.709M338.276 360.444l-3.414-3.616M341.944 359.426l-2.02.627-1.648.39M338.205 354.175l-.404-.564-.704-.777-2.328-2.13M341.944 359.426l-1.247-1.805-2.492-3.446M338.205 354.175l-3.783-3.026M350.495 364.252l.44-.787M350.495 364.252l1.755 1.153M346.445 369.912l1.384-2.043 2.136-2.815.53-.802M356.83 368.393l.343-.44M356.83 368.393l-2.903-1.887M359.106 369.591l-.445-.106-1.263-.753-.569-.34M342.436 360.231l1.28 2.868.362 1.062.707 2.71.426 2.025M353.927 366.506l-1.677-1.101M353.927 366.506l.338-.584M314.869 344.61l1.475-1.522M324.3 353.63l-2.626-2.381-.68-.642-.936-.885-2.109-2.077-3.08-3.036M312.57 346.888l-1.118 1.122M321.868 355.915l-2.755-2.45-1.979-1.952-4.565-4.625M361.321 370.284l.218.087.51.204 1.228.285 1.179.187.964.105 1.03-.065 1.22-.276 2.284-.74 4.45-.873M327.633 344.845l4.158 3.862M327.633 344.845l.322-.35M327.633 344.845l-.99.955M327.633 344.845l-.814-.686M327.955 344.496l-.813-.692M327.955 344.496l4.174 3.803M389.399 348.048l.454.303.258.173" clip-path="url(#pa26145a42a)" style="fill:none;stroke:#000"/><path d="m369.235 367.26 2.021-.728 1.731-.785 2.098-1.298 7.007-7.447 6.36-7.325.861-.732.363-.187.435-.234M397.974 340.349l-1.432.974-.391.399-1.026 2.57-.605 1.092-.47.56-1.765 1.276-2.174 1.304M369.235 367.26l-1.36-3.08M361.845 369.16l.649.365h.291l3.928-1.483 2.522-.781M367.876 364.18l-2.02.872M383.882 352.092l-1.347 1.85-.874 1.015-.95.886-4.088 3.388-1.253.826-5.715 3.182-1.78.94" clip-path="url(#pa26145a42a)" style="fill:none;stroke:#000"/><path d="m363.963 363 .461-.326 1.69-1.16.059-.018.268.045.49.73.945 1.909M334.862 356.828l-6.577-7.145M334.862 356.828l-1.388 1.15M328.285 349.683l-1.641-3.883M328.285 349.683l-.512.649M327.773 350.332l-1.715-1.574-.725-.7-.181-.357-.066-.334.264-.529 1.294-1.038M363.963 363l-2.042-1.74" clip-path="url(#pa26145a42a)" style="fill:none;stroke:#000"/><path d="m365.856 365.052-1.218-1.321-.675-.732M360.615 362.282l2.254 2.066.464.218.563.118 1.262.701.03-.008.668-.325M360.615 362.282l-2.83 3.394M359.609 360.443l.215.373.791 1.466M361.92 361.26l-.188-.05-.053.024-1.064 1.048M336.97 361.153l-3.496-3.175M358.395 366.18l-.61-.504M358.395 366.18l3.45 2.98M357.173 367.953l.543-.795.68-.978M359.765 369.598l1.206-.056.293-.043.305-.165.276-.174M354.686 363.09l-2.15-1.629M354.686 363.09l.478.399M358.116 359.083l-.395-.045-.33.185-2.705 3.866M349.39 360.696l.72-.92M349.346 359.089l-.771.995.102.19.712.422M351.716 362.049l-.972-.562-1.355-.791M357.147 351.408l-.53.759-.438.614M350.11 359.776l5.122-5.747.947-1.248M356.176 352.13l.027.443-.024.208M355.133 351.634l1.043.496M355.133 351.634l1.12-.352M355.133 351.634l-.573-.35M350.11 359.776l-.764-.687M349.346 359.089l.67-1.015M326.655 355.748l-2.355-2.118M326.655 355.748l2.262-1.974M328.917 353.774l4.557 4.204M327.773 350.332l-.836 1.061-.119.174.053.268 2.046 1.939M319.213 358.404l2.655-2.49M319.213 358.404l10.714 9.59M319.213 358.404l-2.403 2.36M319.213 358.404l-3.904-3.643M321.868 355.915l2.432-2.285M352.263 345.02l.29 1.241 1.059 3.22.655 1.433.293.37M346.827 332.398l2.134 2.625.413.712.252.67 1.156 4.357 1.481 4.259" clip-path="url(#pa26145a42a)" style="fill:none;stroke:#000"/><path d="m356.254 351.282-.142-.78-.736-1.813-3.113-3.668M316.81 360.765l10.16 9.234.224.057.262-.098 2.47-1.964M309.498 265.82l.223.355.675.659 6.57 3.535.569.573.293.532.12.895-.326.952-.458.627-1.764 1.456-.635.866-1.129 2.896-1.294 2.929-1.327 5.027-1.443 4.441-2.234 3.775-.42.976-1.674 5.792" clip-path="url(#pa26145a42a)" style="fill:none;stroke:#000"/><path d="m334.871 305.77-.507-.776-.672-.708-.91-.419-1.157-.036-2.869.575-3.851.328-.783-.08-.716-.203-1.417-.923-.77-.71-.465-.988-.325-1.261-.103-1.058.033-1.293.252-1.677-.053-.24-.286-.397-.246-.189-.386-.117-.6.018-.311.109-.498.395-3.193 3.702-.605.438-2.104.826-3.764.404-2.113.669-.569.053-.639-.106M342.436 360.231l-.136-.222-.356-.583M487.383 311.461l.56.07.703-.14 1.697-.902.556-.134.895.016.737.317.27.253.134.477-.408 1.552-.054 1.322.12.89.165.517.28.472M487.383 311.461l.14.627.561 1.053.577.708 1.6 1.618.547.334.664.211 1.566.159M538.926 316.479l-3.204-.446-8.083-.916-4.026-.053-2.098-.252-6.9-1.529-5.49-1.05-.461-.09-2.232.07-1.004.184-4.662 1.358-6.279 2.235-.934.226-.515-.045" clip-path="url(#pa26145a42a)" style="fill:none;stroke:#000"/><path d="m486.078 304.011.724.552.52.626.622 1.076.165.466v.764l-.726 3.966M144.165 593.162l-.578-.789.408-3.218-.079-2.614-.75-2.197-2.509-4.591-.56-2.213.164-2.31.297-2.017 2.605-3.806 4.88-10.607.43-3.513.85-4.607 1.59-5.219.13-3.026-1.22-2.668-.774-3.074-.148-2.13.708-1.71 1.764-1.773 1.847-2.798 1.022-1.92 2.638-1.854 2.044-2.18 1.056-2.57 1.477-1.679.726-.65.214-.998M133.91 521.467l4.712-2.64 3.756-1.542 4.407-.692 15.612-.162" clip-path="url(#pa26145a42a)" style="fill:none;stroke:#000"/><path d="m274.443 430.732-5.723 5.29-9.249 9.181-2.376 1.834-2.677.946-2.555-.168-2.056-.86-1.763-1.414-6.96-7.282-9.008-9.075-1.029-.856-1.27-.813-1.137-.31-1.207-.176-1.184.177-1.467.586-1.467 1.024-.825 1.156-.778 1.54-3.729 12.734-1 1.848-1.506 1.926-1.741 1.604-2.327 1.384-2.002.837-11.758 1.789-1.768.513-1.346.786-1.172.946-1.321 1.61-.784 2.124-.003 2.848 1.829 11.994-.006 1.946-.258 1.308-1.583 4.164-2.047 2.681-2.903 2.278-1.54 2.932-.562 4.794.326 11.652-.401 1.653-.735 1.664-1.441 1.492-1.67 1-8.199 3.588-4.81.629-4.858.195M133.91 521.467l.783 1.297-1.978 6.117.528 3.124 1.45 1.952M117.397 516.697l.663.305 7.89 5.346 2.247.836 1.326.036 1.35-.243 3.037-1.51M293.828 409.883l1.933-1.37M293.828 409.883l-1.872 1.425M293.828 409.883l3.762 5.174M301.621 411.21l-3.326-4.435M301.621 411.21l-1.661 1.763M301.621 411.21l1.563-1.734M295.06 402.51l3.235 4.265M295.06 402.51l-1.871 1.326M296.943 401.075l-.482.402-1.401 1.034M303.184 409.476l-3.033-4.112M303.184 409.476l1.615-1.748M296.943 401.075l3.208 4.289M296.943 401.075l1.71-1.77M304.8 407.728l-2.757-3.757M304.8 407.728l.546-.611M298.654 399.306l3.389 4.665M300.796 397.42l-1.446 1.267-.696.619M289.541 413.003l.552-.377M289.541 413.003l3.583 4.853M293.124 417.856l-3.731 2.084-.41.167-.229-.12-2.044-2.736-.195-.347-.036-.256.164-1.316.137-.317 2.761-2.012M291.956 411.308l-1.863 1.318M291.956 411.308l3.706 4.935M634.414 430.878l-1.516-.898-1.019-.826-.395-.158-.268.011-2.68.973-.766.13-.915-.082-5.86-1.244-3.947-.734-2.554-.38-3.29.034-8.19-3.833-9.882-3.31-1.27-.651-.197-.236-.722-1.477-2.815-3.026-.325-.752-.048-2.552-.298-.393-.458-.034-.638.327-.349.348-2.928 4.185-.262.262-.964.31-6.321 1.094-1.125.373-3.306 1.456-2.708 1.233-.484.301-1.247 1.094-2.215 1.407-1.181.917-.503 1.434-.762 1.188-5.052 4.894-3.08 1.416-3.745.933-2.17.241-3.325 1.865-2.1-.276-4.48 4.11-4.34 7.633-.84 1.83-1.75 1.727-4.445 1.83-7.245 2.763-2.87 2.245-2.59 1.244-3.99 1.14-2.205-.104-2.625-.933-6.475.208-4.27.241-1.05.276-.945.864-.91 1.105-1.365.794-4.2-.103-1.68-.38-1.397-.029M192.913 182.417l.75 3.986.528 1.937 1.047 2.14 3.998 6.938 4.286 6.98.85 1.31 1.838 2.513 2.3 3.767.741.936 1.328 2.411.247.7.47 2.018.643 5.056.066.537.338 3.23.79 6.637-.065.838-4.357 9.81-.86 2.27" clip-path="url(#pa26145a42a)" style="fill:none;stroke:#000"/><path d="m274.861 136.228-.397.292-.601.217-1.773.277-7.758.578-4.207-.025-.569.135-.824.528-1.69 1.737-1.282 1.79-1.088 1.766-3.924 5.637-2.597 4.044-1.475 2.871-1.48 3.214-.56.91-.71.666-1.512.913-19.784 9.518-.84.163-8.269.343-.974.206-3.687 1.82-14.825 8.07-1.122.52M524.558 513.234l2.638 2.795.951.898 1.241.938 12.207 6.493 16.12 8.3 15.909 8.389 1.48.576" clip-path="url(#pa26145a42a)" style="fill:none;stroke:#000"/><path d="m566.152 529.255.742 1.904.593.83.825 1.024 1.962 1.79.84 1.04.511 2.116.166.536.247.44.198.227 1.17.782 1.319.666.38.31.098.308-.099.395M146.915 596.904l-2.75-3.742M195.255 630.138l2.568-3.455 1.082-1.761-.322-.566-1.258-.683-3.637-1.065-3.998-2.919-5.706-2.666-8.718-4.238-2.569-.865-2.358-.507-3.084-.098-4.368-.877-4.757-1.735-2.438-.663-3.104-2.01-1.357-2.294-.87-2.366-3.021-3.943-.425-.523M153.643 622.825l-1.303-.992-2.49-1.546-1.83-.504-2.983-1.171-3.528-1.887-1.27-1.04-.643-.212-1.022-.244-.924-1.27-.774-1.935-.248-2.798.083-1.724 1.12-2.36 1.55-1.919 2.54-2.196 3.759-2.765 1.235-1.358M409.616 403.385l-2.015-5.353M436.373 425.533l-6.006-.275-1.28-.236-1.385-.49-.826-.427-3.234-2.28-8.467-6.391-1.023-1.032-.9-1.565-1.216-2.986-2.42-6.466" clip-path="url(#pa26145a42a)" style="fill:none;stroke:#000"/><path d="m406.834 410.122.637-.362 1.196-.26.192-.19.356-2.932.109-2.468.156-.42.136-.105M302.043 403.971l-1.892 1.393M300.151 405.364l-1.856 1.411M298.295 406.775l-1.941 1.374M295.76 408.513l3.71 4.93M295.76 408.513l.594-.364M293.189 403.836l-.237.155-.231.231.026.224 3.014 4.067M564.117 302.685l.217-.383.363-.306.536-.264.878-.29 2.382-.531 1.076-.367 4.624-2.249 2.432-1.078 2.291-1.175 1.208-.952.52-.606.466-.777M621.243 252.58l-.914.88-3.68 2.811-2.91 2.041-3.904 1.697-7.29 4.368-1.705 2.394-2.668 2.19-.534.776-.24.878.205 1.99 1.983 2.723.764 4.918.129 1.906 1.624 5.001.022.733-.944 1.419-1.266 1.456-1.27.873-1.792.388-2.525-.332-5.301-.956-2.218-.257-2.662-.182-.458.089-.783.431-1.796 2.892M589.398 299.912l1.094.746.272-.093.309-.59-.068-.15-.773-.662-2.221-1.582-6.901-3.874M540.99 318.92l-.55-.398-.875-.978-.639-1.065" clip-path="url(#pa26145a42a)" style="fill:none;stroke:#000"/><path d="m564.117 302.685-.228.638-.404 2.314-.173.365-.342.541-2.64 2.811-1.3 1.63-1.715.976-1.902.92-9.696 4.473-.767.211-1.438-.075-2.498-.57-2.088-.44M577.443 339.469l-3.386-2.636-2.868-2.026-.45-.463-3.524-5.052-.902-1.594-.392-.492-.379-.362-1.48-.94-.913-.388-.844-.072-1.998.393-1.316-.026-1.643-.558-5.102-2.054-6.253-2.282-3.009-1.285-1.995-.712" clip-path="url(#pa26145a42a)" style="fill:none;stroke:#000"/><path d="m437.626 354.938 2.492.995 3.514 1.22 1.967.557 4.442 1.883 1.777.505 2.01.268.826.016.873-.057 1.27-.32 2.971-1.705 6.158-3.897 1.958-1.834 2.353-2.469 3.108-3.062.387-.517.231-.8-.156-.843-.157-.33-.586-.74-.036-1.09.018-.211.3-.613.395-.581.606-.16 3.388.357 3.334.684 2.68-.005 1.9-.284 2.587-.667 1.11-.17 4.228-.127 4.295.122 3.046-.163 3.734-.069 2.366-.085 1.17-.159.586-.191.507-.269 1.677-1.37.569-.346.54-.208 5.114-1.297 3.987-1.424 6.866-4.018 3.874-1.184 5.524-2.586 1.47-1.167.466-.692.285-.696 1.315-3.803.11-.797-.086-1.619M604.19 355.928l-9.36-5.836-3.025-2.034-6.64-4.148-2.84-1.204-1.665-.874-3.217-2.363" clip-path="url(#pa26145a42a)" style="fill:none;stroke:#000"/><path d="m524.798 430.764-1.453-1.277-1.084-1.179-1.356-1.736-.87-1.367-2-2.693-1.153-1.248-.157-.232-.515-1.5-.148-1.127.082-.273 1.051-1.607.53-2.159 1.514-1.557.602-.342 1.138-.301.536.032.655.236 1.134.586.42.114 3.503.211.915-.037.573-.182.346-.359.462-.898.239-1.391-.09-.85-.796-3.66-.47-1.578-.977-2.2-.041-.558.074-.378 2.865-6.488.956-1.838.363-1.05.066-.593-.025-2.75.173-3.904.083-.423.214-.415 3.396-5.686.581-.679 1.575-.984 2.56-1.206 1.427-1.151 2.15-1.273 1.875-1.402 4.306-3.954.644-.157.682.055 2.891 1.053.796-.034.557-.171 5.273-2.398.474-.084 1.284.064.378-.103.89-.589 1.596-.604 1.997-.951.538-.426 3.595-3.886 1.09-1.891.814-1.964 2.287-6.907.272-1.187.931-6.231.427-1.578M634.414 430.878l-1.107-2.418-1.377-3.795-1.399-6.665-2.797-5.003-.022-2.351.569-1.898 3.081-3.753 1.574-1.532.721-1.337 1.378-4.897.241-1.208-.569-3.213-1.027-4.141-.546-1.23-2.601-2.286-16.109-12.23-2.885-2.653-1.07-2.63-2.317-6.406-1.356-2.933-2.605-2.371M309.498 265.82l-.132-.329-.06-.617.126-.684.248-.561 1.194-1.062 1.86-1.42.79-1.016.986-1.562 2.844-7.63 5.164-13.33.334-1.24-.016-1.514.395-2.814-.053-1-.21-.379-.85-.496-.525-.163-2.08.027-.56-.215-.59-.589-.292-.5-.107-.399.053-.455.21-.385.266-.222.49-.172 1.076-.13 1.105-.369.833-.586.239-.33.084-.284.054-.465-.354-4.66.094-6.679-.56-3.672-1.1-3.043-.285-1.134-.416-5.488-.973-4.576-.78-5.95-.164-.598-.664-1.453-.222-.687-1.859-6.565-.548-2.235-.116-.665-.358-1.81-.738-2.335-.04-.517.032-.646.138-.52.756-1.722.64-1.05 2.975-3.924.655-.631 1.309-.683.171-.167.225-.462.342-2.064.447-1.505 4.88-6.927.92-1.627.464-.594.833-.777.486-.651 1.703-3.543 1.789-3.254 1.52-3.974 1.353-2.53 1.869-4.04.525-.632 3.056-2.31 9.387-7.593 1.331-.846 2.77-1.208M417.065 107.094l-2.58 1.751-.413.391-.84.964-2.404 3.445-.709.85-1.38 1.18-2.733 1.892-2.729 1.521-.902.395-2.68.711-2.194.15-.777-.13-.42-.333-1.261-2.819-.425-.748-4.138-5.752-.382-1.057-.26-1.101-.199-.398-.453-.464-.757-.226-.997.085-3.865 1.501-2.623.869-.634.623-1.88 3.569-.536.618-.389.303-6.504 2.98-1.504.57-3.018.878-1.034.228-1.376.121-8.627-.516-1.575-.163" clip-path="url(#pa26145a42a)" style="fill:none;stroke:#000"/><path d="m357.317 114.813-.387.301-.446.529-2.617 3.34M615.735 134.753l-3.24-1.05-1.997-2.247-.721-1.949-.114-1.537-.988-4.423-1.367-2.774-.966-.957-.743-.505-1.116-.366-.544-.724-.453-.813-.091-.952.52-2.799.016-1.504.42-1.107.61-.805.107-.627-.354-1.008-.66-1.27.033-1.244.66-1.058.8-1.05.107-.52-.28-.504-2.391-1.546-1.64-1.538-1.41-.976-1.113-.944-.907-.496-1.945-.398-1.731.203-1.228-.09M403.032 386.169l.707 1.338 2.028 5.45 1.834 5.075M370.587 425.217l1.955-2.155.899-.765 1.686-.5 5.036-1.164 2.545-.93 3.56-.794 1.858-.59 1.847-.94 2.695-2.366.965-1.09 5.226-6.98 1.737-2.489 1.834-2.3 1.565-1.466 3.17-2.245.436-.41M338.093 467.645l.884-1.5.7-3.903 1.365-1.726.175-1.796.385-1.278.735-1.761 1.645-2.349 3.22-2.797M370.587 425.217l-1.845 2.034-1.582 1.59-3.891 3.53-3.091 2.432-2.099 1.794-.601.614-.616.856-2.94 4.973-1.435 2.038-5.285 5.457M360.384 459.218l-.956-.228h-2.705l-2.144-1.626-1.88-1.009-1.12-.878-1.287-1.172-3.09-3.77M233.679 562.727l3.96.391 1.188-.83 4.702.928 2.277.293 2.326.537 1.98 1.27.792.83.198.733 1.139.83.874.415 8.629-2.515 1.669-1.28 4.655-5.076 1.855-2.867 1.26-2.244 3.15-7.322.238-1.28.066-1.074-.494-3.62-.43-2.033.377-1.292 1.363-2.167 1.4-2.659.84-.967.967-.765 1.307-.789 1.347-1.081 4.708-7.138 4.613-5.573 1.488-1.94 1.6-2.434 3.418-2.616 1.65-1.695.531-.765 1.715-3.627 1.759-1.624 1.392-1.139 3.323-1.642 2.976-.948 1.13-1.053.515-1.088 1.727-2.312 1.703-1.349 5.145-4.489.91-1.45 2.94-2.245.413-1.173 2.212-3.8M338.093 467.645l-.235.4-1.89 2.279-2.066 1.692-1.365 1.243-1.435 1.727-1.75 1.382-1.47 1.312-.7 1.312M332.817 502.458l1.979-2.115-.066-.715-.264-.553-.66-2.603-.33-2.376-.724-2.016-.792-3.384-1.715-3.32-.923-2.992-1.516-2.111-.624-1.28M233.679 562.727l.644-1.953.792-.684.742-2.247 2.326-3.125.892-4.787.692-2.344 2.97-5.959 1.683-1.66.99-1.416 2.277-.928 1.188-.342M226.997 573.374l3.217-5.567.694-1.417 2.771-3.663M338.958 380.602l1.337-.762 3.132-1.993 2.084-1.058M475.193 477.616l1.635 4.625 1.49 2.821 3.188 2.815 6.662 4.408 4.666 2.91 3.753 2.207 2.63 1.351 2.626 1.031 2.056.32 5.556.13 1.747.211 1.565.557.728.457.724.674 10.338 11.101M522.716 516.749l1.256-2.273.586-1.242M357.785 365.676l-2.621-2.187M350.936 363.465l.501-.895.279-.521M352.536 361.461l-.441-.02-.138.119-.241.489M334.77 350.704l-2.641-2.405M334.77 350.704l-.348.445M334.422 351.15l-2.631-2.443M350.017 358.074l3.59-5.509.953-1.281M335.11 364.993l-.818.021-1.215.023M341.407 367.457l.548-.76M338.653 366.037l.47.223 1.041.537 1.243.66M341.128 365.019l1.108.622.001.34-.282.716M293.124 417.856l.55-.326M290.093 412.626l3.58 4.904M296.354 408.149l-3.165-4.313M296.354 408.149l3.606 4.824M306.044 407.615l.597-.654M294.842 417.965l2.365-1.41 1.002-.709 2.155-1.838 2.556-2.774 3.124-3.62" clip-path="url(#pa26145a42a)" style="fill:none;stroke:#000"/><path d="m305.346 407.117.364.243.334.255M299.96 412.973l-.49.47M299.47 413.443l-1.88 1.614M297.59 415.057l-1.928 1.186M295.662 416.243l-1.332.863M293.674 417.53l.656-.424M186.599 327.698l-.503-.521-1.59-1.334-1.402-1.025-7.246-4.417-1.888-1.114-5.786-2.961-1.575-.553-2.127-1.026-4.154-2.676-1.105-.91-.51-.668-1.08-1.725-.825-.716-.932-.26-2.225-.423-1.262-.492-1.351-1.175-1.237-.382-1.434-.236h-.717l-.948.227-5.433 2.725-.947.57-.981.797-.454.748-.478 1.342-1.294 4.792-.42.854-1.641 2.334-1.912 2.425-1.451 1.317-.924.484-2.118.777M436.373 425.533l4.384.15 4.132.297 1.2.31 1.545.77 1.192 1.049.75.898 4.07 6.522 4.371 6.774 8.901 15.96 5.43 8.481 2.646 10.364.199.508M496.793 250.383l.689-.23 1.936-.27.302-.173.64-.639.338-.136 1.379-.282 2.82-.383 3.144-.094 4.893-.447 2.88-.122 2.243-.525.853-.087.943.047.61.136 2.333.734 1.416-.014 5.064-1.369.848-.142 4.27-.326.87-.343 1.938-1.113 1.702-1.663.898-.63 1.024-.312.924.002 2.29.376.618.014 3.328-.32 6.708 1.183 3.326.236 1.354-.169 3.774-.841.929-.437.492-.31.435-.41.983-1.364.272-.785-.022-2.536.475-1.669-.09-1.522.052-.472.277-.614.841-1.206.59-1.48.556-.743.68-.623.89-.642 2.21-1.057 4.105-2.343 2.007-1.558 2.407-2.058 1.978-1.895.297-.391 1.31-4.16.491-3.007.215-.619.82-1.687 1.111-1.482.377-.9.053-.378-.249-2.134.019-1.785.212-1.39.068-1.518.433-2.47.177-2.75.3-1.545 1.67-4.128 2.382-4.072.486-1.074.091-.529-.047-1.694.731-2.157v-1.416l-.478-2.7.182-2.214-.05-.472.28-.846 1.402-3.433 1.319-2.473.84-1.87 1.55-2.8.956-2.31 1.979-3.742.791-1.806 1.896-2.961 1.798-3.06 3.23-4.718 2.391-4.572.627-1.432.89-.602 1.97-.707M362.218 334.181l3.07-.039M346.827 332.398l.186.023.363.115 1.77 1.153.592.508.597.323 1.83 1.262.556.267 1.909 1.37.94.48.634.211.676.065 1.55-.284 1.442-.423.61-.342.462-.395.21-.378.157-1.44.194-.289.713-.443M365.093 338.257l-.366-1.01-.766-1.456-.486-.585-.66-.602-.597-.423M334.871 305.77l.902 1.23 3.664 3.794 1.612 1.353 3.34 1.776.444.586.035.244-.134.62-2.362 7.295-.146 2.23.058.426.273.68 1.29 2.284 2.98 4.11M372.899 330.754l-2.63 3.228-.404.262-.585.09-3.991-.192M365.093 338.257l.039-.18.554-1.798-.397-2.137M364.845 339.396l1.675-.416M364.845 339.396l.248-1.139M364.662 341.299l-.31-1.489.139-.284.354-.13M403.032 386.169l-.74.682-2.623 2.762-.577.499-.752.374-2.694.89-.845-.082-.46-.35-.203-.507-.035-.812-.264-1.305-.256-.622-.284-.553-.404-.488-.4-.29-.46-.169-1.526-.082-1.233.13-1.706.647-2.403.715-5.985.93-.169.063-.117.21.197.564-.064.135-2.136.852-1.688.884-1.183.826-1.537 1.283-2.916 1.704-.35.382-.883 1.406-1.474 1.988-.596.59-.483.214-1.698.337-.569.208-1.224.797" clip-path="url(#pa26145a42a)" style="fill:none;stroke:#000"/><path d="m385.392 373.119 2.235 1.718 3.932 2.684 5.977 3.12.686.454 4.182 4.3.628.774M185.511 312.738l.416 3.657.054 1.83.008.842-.309 2.916.037 2.408.178 1.477.58 1.321.124.509M435.596 274.903l3.733-.337 2.696-.435 9.183-2.376 3.949-1.126 4.27-.96.541-.23 1.44-1.074 1.586-.954 2.66-1.022 1.958-1.914 1.03-.855 1.056-.712 2.242-1.114 1.923-.597 2.08-.332 3.249-1.312 1.787-.606 5.885-1.354.544-.232 1.018-.692.474-.5 1.818-2.664.565-.74.597-.566 1.286-.748 2.561-.571 1.066-.497M490.99 167.888l-3.031-1.166-.81-.114-.713.14-.635.318-2.007 1.346-2.56 1.85-3.034 2.681-1.89 1.467-.397.418-.347.81-.523 4.281-.247 3.238-.878 3.844-.317 1.168-1.92 4.093-.89 2.66.042.466.293.576.292.364 1.062.952.167.376-.009.228-.216.398-1.636.63-.59.397-.264.338-.14.46-.103 2.587.251.655.677.5 5.39 2.229 1.711.403 4.006.309 1.002.216 1.113.402 3.021 1.814 1.688.37 1.48.517.628.388.327.344 1.115 1.891.314 1.038-.375 2.383-.186 1.818-.243.733-.661.835-.069.197-.117 2.152-.317.881-.584 1.204-.984 1.682-.184.507-.142 1.226.017.6.326 2.782-.27.534-1.036 1.138-.187.354-.124.628.437 3.087-.014.496-.142.24-1.353 1.257-.2.396-.009.224.151.388.302.233 9.384 5.116.314.281 1.737 2.448.083.78-.29.616-.883 1.397M435.596 274.903h-1.42l-1.829-.975-.414-.082-.258.045-.655.36-.402.384-1.164 1.456-.483.867-.882 1.985-.51.825-2.383 3.266-1.624 1.871-.338.517-.194.61-.154 1.065-.167.379-2.386 3.598-.21.44-.52 2.172-.964 2.905-.618 1.342-1.122 1.7-1.561 1.822-2.422 3.834-2.448 2.932-.855 2.06-.748 1.369-2.302 2.597-1.732 2.132-.853.82-.606.448-1.294.712-3.326 1.627-2.207.964-1.162.289-1.06.122-2.523.065-1.051.312-1.469.965-.914.848-.664.43-5.556 2.488-3.141 1.24-.841.153-.583-.048-.595-.287-.833-.636-.612-.07-.276.063-.52.346-.177.264-1.022 2.27-.647.99" clip-path="url(#pa26145a42a)" style="fill:none;stroke:#000"/><path d="m390.422 339.229.05-.44-.17-.614-2.489-2.225-.767-.573-.638-.313-1.028-.118-.73.156-2.319 1.296-.804.13-1.265-.081-2.053-.77-.745-.418-.42-.383-2.589-3.095-.924-.748-.632-.279M300.796 397.42l2 2.699 3.71 5.096-.02.405-1.14 1.497M291.944 419.592l-2.19 1.105M291.944 419.592l2.898-1.627M299.956 420.288l-.271.236-2.255.833-3.504 1.979-.783.222-.282-.15-.468-.603-1.038-1.435-.156-.333.02-.206.708-.865.043-.266-.026-.108M397.974 340.349l3.428-2.174 5.79-3.209 1.807-1 5.658-3.596 4.855-2.721 3.537-1.798 1.59-.476 1.352-.195 3.512-.24 3.436-.348 6.95-1.62 1.031-.599 3.421-2.757 1.62-1.188.466-.244.923-.256 1.315-.293 1.19-.085 1.604.004 3.01.175 1.47-.242 3.863-1.568.58-.378 3.228-3.616.746-.647.977-.623.923-.357 1.644-.354 1.18-.07 2.89.21 1.107-.246 7.411-3.615 4.39-2.254.683-.114.517.156M492.202 300.878l-.56-1.192-.496-.554-.551-.162-.35.17-1.067 1.203-.239.388-.109.47.155.78 1.387 1.476.045.307-.09.433-.305.326-.317.146-1.304-.086-2.323-.572M361.48 360.065l.226.395.215.8M309.498 265.82l.575-.517.288-.253.365-.134 1.222-.025.486.123 2.513 2.021 1.285 1.38 1.204.705M274.861 136.228l.498.011 1.088-.095 2.788-.629.78-.022.419.102.703.368 1.36 1.104.115.3.023 1.063.173.238 1.699.642 4.548 1.243 5.935 1.806M365.849 354.452l.663 1.041.339.29 2.073-.108.36.057.289.174 2.483 2.874M364.008 354.906l1.84-.454M359.947 351.398l.519.256 1.756 1.395 1.786 1.857" clip-path="url(#pa26145a42a)" style="fill:none;stroke:#000"/><path d="m360.43 358.852 2.9-3.391.678-.555M359.535 360.01l-.866-.864M359.535 360.01l.074.433M360.43 358.852l-.737.861-.158.297M365.849 354.452l-1.391-5.23M365.849 354.452l2.283-.504M362.642 342.454l.998 3.693M359.442 347.711l.639-1.271.065-2.317.08-.425.18-.368.418-.467.293-.118 1.525-.291M364.662 341.299l-1.938.61-.136.202.054.343M376.613 345.3l-.724-2.57M387.401 339.786l-.099.48-1.154 2.192-.495.431-4.307 1.313-2.844.643-1.89.455M374.884 348.522l2.09-.504.248-.243-.055-.424-.554-2.051M375.319 340.538l.57 2.192M387.401 339.786l-.51-1.66-.232-.182-.35-.02-5.927 1.594-3.166.634-1.897.386" clip-path="url(#pa26145a42a)" style="fill:none;stroke:#000"/><path d="m372.32 338.817 1.692-.41.325-.004.41.185.079.165.493 1.785M387.401 339.786l3.021-.557M375.89 342.73l2.901-.577 2.172-.447 6.438-1.92M374.884 348.522l-1.433-5.195M373.708 352.421l1.753-.485.25-.25-.015-.35-.812-2.814M373.45 343.327l2.44-.597M373.45 343.327l-2.713.746M373.45 343.327l-1.13-4.51M369.253 338.27l2.284-.522.3.076.21.2.155.367.118.426M373.124 352.577l-2.663.72M373.124 352.577l.584-.156M373.124 352.577l-2.387-8.504M369.253 338.27l-2.733.71M369.253 338.27l1.484 5.803M370.461 353.297l-2.329.651M370.461 353.297l-2.276-8.465M368.185 344.832l-1.665-5.852M368.185 344.832l2.552-.76M368.185 344.832l-2.357.7M368.132 353.948l-2.304-8.415M365.828 345.533l-1.166-4.234M365.828 345.533l-2.188.614M363.64 346.147l.818 3.075M422.505 267.72l1.071.814.784.278.91.082 1.393.64 1.2.84 1.003.958.485.34 4.948 2.856 1.297.375M564.117 302.685l-2.672-1.466-2.95-1.447-.421-.318-.29-.504-.296-1.408-.24-.65-1.4-1.35-.594-.75-.882-.862-1.261-.976-1.624-1.545-1.46-2.294-.972-3.392-.23-.407-.334-.342-.476-.337-2.2-1.054-3.618-1.35-.725-.398-3.075-2.205-.783-.724-.544-.667-.33-.724-.618-2.84-.041-.503.338-3.092.271-1.48.767-2.603.713-1.57.78-1.318 1.17-.977.816-1.016 2.53-6.598.586-1.05.28-.219.346.033 1.17.675.677.252.8-.04.75-.244.634-.66 3.248-4.18.75-.464.874-.326 2.324-.578 2.362-.207.965.207.515.374.816.798M409.085 100.763l.612.474.541.701.158.973-.01 1.873 1.398.092.676.152 2.477 1.316 1.237.496.89.254M385.392 373.119l1.993-2.268.778-.813.524-.39 1.496-.688 1.706-.451 2.335-.134 1.837-1.792 3.103-1.787 2.007-1.526.157-.168.068-.356-.713-1.977-1.59-1.73" clip-path="url(#pa26145a42a)" style="fill:none;stroke:#000"/><path d="m361.555 376.743 3.86-.266 9.724-1.217 1.088-.272 1.752-.671 4.44-2.4.374-.077.894.049 1.705 1.23M337.983 385.367l.618.337 1.505.658.213.283.033.402-.338 3.587M361.555 376.743l-.306 1.38-.256 1.041M436.373 425.533l-.374-.38-.832-1.2-.293-.631-.24-1.086-.011-1.184.09-.512.425-.956.717-1.175.462-.154.242.028 6.472 1.472M312.307 401.24l-2.117 1.775-3.55 3.946M300.913 417.695l.91-3.158.355-1.717.437-.626 2.34-2.241.936-1.006.85-.71.092-.55-.192-.726M299.956 420.288l.837.106 2.481-.134 1.53-.342 1.739-.537.337-.242.066-.226-.074-.24-.45-.667-.354-.21-.376.068-1.45.577-1.669.086-.62-.148-1.04-.684" clip-path="url(#pa26145a42a)" style="fill:none;stroke:#000"/><path d="m299.956 420.288.035-1.76.922-.833M274.443 430.732l2.844-2.63 3.786-2.468 2.368-1.397 2.512-1.416 2.628-1.52 1.173-.604M285.943 445.636l-.435-.89-.064-.35.47-2.087.035-1.104-.303-2.322-.763-2.148.017-.83.573-1.883.606-1.268 1.203-2.018 1.509-1.66.358-.504.544-1.407.161-1.082-.187-1.675-.064-2.229.151-1.482M307.89 396.54l-1.994-2.945M300.796 397.42l5.1-3.825M312.307 401.24l-.275-2.093-.226-2.14-.26-.797-.22-.351-1.38-1.093-1.785-2.656-.174-.06-.246.076-1.845 1.469M315.703 399.287l-1.008.535-1.368.74-1.02.679M312.061 393.953l3.642 5.334M274.443 430.732l-.457-.376-.437-.454-.334-.59-.878-2.147M315.738 361.904l1.072-1.14M316.81 360.765l-3.15-2.766M358.116 359.083l-2.952 4.406M358.116 359.083l.553.063M358.669 359.146l1.063-.102.697-.192M334.871 305.77l4.904-4.42 7.007-6.834 1.36-1.562 1.97-2.603 2.268-3.148.354-.647.379-1.464-.07-2.042-.112-.797-.593-1.557-.758-1.103-.977-1.155-.414-.66-.192-.865-.111-1.73.09-.702.19-.545.305-.428 8.884-6.617.65-.167 1.38.181.824-.033 1.01-.404 9.703-5.414 2.477-1.761 3.482-2.099M394.8 338.2l-4.316 8.004M397.974 340.349l-2.259-3.317-.154-.096-.201.037-1.502-.638-.242.012-.185.218-.763 1.545-.326.297-1.22.61-.7.212" clip-path="url(#pa26145a42a)" style="fill:none;stroke:#000"/><path d="m390.484 346.204-1.109-1.127-.515-.886-.03-.923.351-1.607.231-.57.747-1.216.263-.646M390.484 346.204l-1.085 1.844M383.882 352.092l3.26-4.054.59-.606.235-.136.22.005 1.212.747M356.176 352.13l.035-.23.042-.415M356.254 351.282v.203M359.106 369.591l-.365.929.02.398.473.102 2.087-.736M359.765 369.598l1.064.489.492.197M359.106 369.591l.66.007M294.842 417.965l-.512-.86M332.129 348.299l-.338.408M352.25 365.405l.437-.655M352.687 364.75l-1.751-1.285M354.265 365.922l-1.267-.944-.311-.228M354.265 365.922l2.908 2.031M352.536 361.461l.357-.267.257-.149.34-.016.922.693.296.112.334-.06.223-.125.356-.429 1.387-2.082.008-.383-.216-.217-1.816-.523M348.43 354.375l-.278 1.54.087.654.419.708 1.359.797M327.142 343.804l-.323.355M359.985 350.985l-.038.413M364.458 349.222l-3.225 1.35-1.248.413M359.864 349.14l.198 1-.077.845M357.147 351.408l1.448-.136h.725l.627.126M356.253 351.485l.894-.077M358.388 349.412l1.054-1.701M358.388 349.412l-1.241 1.996M359.864 349.14l-1.05.155-.426.117" clip-path="url(#pa26145a42a)" style="fill:none;stroke:#000"/><path d="m359.442 347.711.195.75.227.68M361.48 360.065l-.503-.717M360.977 359.348l1.48-1.306.233.014.366.282-.05.213-.756.765-.77.75M359.609 360.443l1.05-.809.318-.286M382.987 351.329H381.7l-1.155.423-1.55.797-2.142.878-1.632-.032-1.514-.974M382.393 349.588l.594 1.74M382.987 351.329l.895.763M370.587 425.217l3.183 2.31 3.792 2.506 1.814 1.4M338.093 467.645l1.056 1.009.824.943 1.253.879" clip-path="url(#pa26145a42a)" style="fill:none;stroke:#000"/></g><g id="PatchCollection_1"><path d="m358.498 353.072-.824 1.874-.292 1.357.207.632 1.256.41 1.496.52.607-.694.607-1.608-.493-.45.037-.675-.32-.273-.71-.219-.247-.56-.591-.452zM355.264 459.084l-.91.483-.04 1.314-.38.793.244.691.875 2.107.665.621 1.82 1.175 1.295.172.245-.587-.804-2.555-1.366-2.626-.735-1zM252.397 310.753l2.11.163 3.034.878 1.615.814-1.978 5.466-1.55 2.799-1.154 2.115-.956 2.343-.99-.39-.527-1.856-.626-1.269-.33-1.236.725-2.798.264-1.27-.165-1.431.791-1.432.297-.78-.692-1.497zM200.118 97.956l-.38.456-.197 1.106.313.83 1.22-.455 1.072-.749-.132-.749-.725-.406-.94-.293zM192.98 97.354l1.78-1.27.693-1.04-1.122-1.92L192.42 90l-1.352-1.953-.033-1.855-.494-.944.428-.91v-1.172l-1.055-.488-1.055-1.204-.56-1.92-.726-1.4-.89-.878-1.089-.814-1.154-.39-.791.716-.264 1.497.1 1.041.065.944.824 1.692.693 1.171.395 1.692.66 1.79v1.367l.692 1.887.759 1.823.494 1.725-.395 1.887.099 1.367 2.34 1.04 1.518.099z" clip-path="url(#pa26145a42a)" style="fill:#00f;fill-opacity:.8"/></g><path id="PatchCollection_2" d="m346.395 376.37 1.459-2.261.915.683-1.401 2.115z" clip-path="url(#pa26145a42a)" style="fill:green;fill-opacity:.8"/><g id="PatchCollection_3"><path d="m331.335 371.608-6.117 2.419 1.665 4.098 6.116-2.419zM367.589 358.85l-1.385 1.235 1.253 1.498 1.385-1.237z" clip-path="url(#pa26145a42a)" style="fill:#90ee90;fill-opacity:.8"/></g><g id="PathCollection_1"><defs><path id="ma206c0b8ce" d="M0 3a3 3 0 1 0 0-6 3 3 0 0 0 0 6z" style="stroke:#006400;stroke-opacity:.8"/></defs><g clip-path="url(#pa26145a42a)"><use xlink:href="#ma206c0b8ce" x="323.071" y="342.796" style="fill:#006400;fill-opacity:.8;stroke:#006400;stroke-opacity:.8"/></g></g><g id="PatchCollection_4"><path d="m336.945 357.81.348.458 2.024-1.495-.348-.458zM613.278 426.466l.055-.219.395.097-.056.22zM624.95 430.574l.102-.389.4.102-.102.388zM607.052 427.62l-.04-.409.5-.048.042.409zM614.073 428.097v-.187h.35v.187zM608.105 429.13l.082.876-.7.064-.082-.876zM615.293 431.435l-.4-.107.186-.678.4.107zM607.25 429.114l-.075-.885.418-.034.074.885zM612.817 426.361l.076-.218.288.097-.076.218zM651.58 597.156l-.36.746-.618-.29.36-.746zM534.53 518.747l-.148.479-.291-.088.148-.479zM565.48 529.52l-.151-.395.297-.11.15.395zM640.542 590.158l-.378-.3.401-.492.378.3zM524.5 515.156l-.49-.168.262-.741.489.168zM652.167 598.545l-.492-.284.604-1.022.493.284zM533.56 518.764l-.343-.174.27-.517.343.174zM639.152 588.97l.36-.442.593.47-.36.443zM533.213 524.746l-.516-.227.314-.694.516.227zM565.78 533.078l.152-.135.226.247-.152.135zM591.998 553.869l-.029-.297.477-.046.03.297zM644.422 589.835l.3-.368.55.438-.3.368zM534.452 522.488l.426.174-.21.5-.425-.175zM565.177 526.67l.008-.81.888.007-.007.812zM521.93 516.875l.494.116-.18.755-.496-.116zM546.147 521.054l.133-.754.668.115-.132.754zM641.1 590.56l.41-.504.294.234-.41.503zM564.759 527.988l.032-.397.43.034-.032.398zM522.534 517.75l.081-.264.278.083-.082.264zM545.635 521.737l-.13-.35.321-.116.13.351zM651.4 598.7l-1.123.855-.207-.265 1.122-.855zM532.89 518.391l-.263-.133.26-.497.262.133zM575.51 522.19l.405-.393.57.572-.407.394zM522.946 518.008l.245-.42.337.192-.245.42zM569.382 535.602l-.308-.355.46-.39.309.355zM590.16 554.006l.36-.464.745.563-.36.464zM530.627 517.765l.26-.593.449.192-.26.592zM565.415 520.517v-.56h.364v.56zM643.407 592.473l-.138-.157.256-.22.139.156zM534.836 519.438l-.416-.135.163-.485.416.135zM573.124 532.615l-.246-.297.362-.293.246.298zM591.929 553.456l-.03-.472.732-.047.03.473zM524.832 518.23l-.405-.19.37-.77.405.19zM540.6 521.595l.086-.739.795.09-.05.421-.244-.027-.038.317zM565.727 532.26l.41-.364.432.475.331-.293.49.54-.742.656zM641.653 592.23l-.66-.525.96-1.175.407.323-.481.59.251.2zM524.33 517.451l-.18.786-.425-.094.103-.449-.341-.076.077-.338zM514.338 504.758l-.268-.313.427-.357.269.313zM292.047 409.91l-.116-.004-.284-.412.113-.156-.091-.064-.847 1.283-.432-.278 1.772-2.685.432.278-.836 1.266.098.069.096-.132.482.012.087.165.084-.044-.28-.524.403-.21.423.792-.404.21-.07-.132-.083.043.067.127-.249.404-.157-.004-.003.133.156.004-.01.386-.976-.024.01-.386.612.015z" clip-path="url(#pa26145a42a)" style="fill:#a9a9a9;fill-opacity:.8"/></g><g id="PathCollection_2"><defs><path id="m3c9342569c" d="M0 3a3 3 0 1 0 0-6 3 3 0 0 0 0 6z" style="stroke:#a9a9a9;stroke-opacity:.8"/></defs><g clip-path="url(#pa26145a42a)"><use xlink:href="#m3c9342569c" x="347.573" y="339.991" style="fill:#a9a9a9;fill-opacity:.8;stroke:#a9a9a9;stroke-opacity:.8"/></g></g></g></g><defs><clipPath id="pa26145a42a"><path d="M92.073 86.4h553.854v554.4H92.073z"/></clipPath></defs></svg>