<svg xmlns="http://www.w3.org/2000/svg" width="960" height="960" viewBox="0 0 720 720"><defs><style>*{stroke-linejoin:round;stroke-linecap:butt}</style></defs><g id="figure_1"><path id="patch_1" d="M0 720h720V0H0z" style="fill:#fff"/><g id="axes_1"><path id="patch_2" d="M90 630.308h558V96.892H90z" style="fill:#fff"/><g id="LineCollection_1"><path d="m334.93 358.056 2.89 1.16M334.93 358.056l-2.098-.917M334.93 358.056l-.883-.718-.425-.612-.184-.149-.239-.101" clip-path="url(#pf9a0ddd24c)" style="fill:none;stroke:#000"/><path d="m332.02 357.537 1.168.179 1.742.34M372.844 338.853l-.079 1.971M371.68 369.771l.03-3.57M371.68 369.771l-.32.782-.162.71" clip-path="url(#pf9a0ddd24c)" style="fill:none;stroke:#000"/><path d="m372.15 371.386-.268-.811-.203-.804M368.734 371.235l1.933.51M368.734 371.235l.656.529.774.515.568.288M348.717 363.772l10.236 4.28 5.469 1.82 4.312 1.363M371.04 371.339l-.4-.02-.796-.055-1.11-.029M371.198 371.263l-.159.076M372.15 371.386l-.296-.144-.33-.043-.326.064M371.04 371.339l-.22.177-.153.23M372.15 371.386l.224.228M372.492 372.337l.01-.439-.128-.284" clip-path="url(#pf9a0ddd24c)" style="fill:none;stroke:#000"/><path d="m375.28 373.25-1.07-.529-.882-.435-.954-.672M370.667 371.746l1.825.59M370.667 371.746l-.074.275.022.283.117.263M375.28 373.25l-1.5-.5-1.288-.413M372.12 372.83l.195-.17.136-.213.04-.11M370.732 372.567l.147.172.188.133" clip-path="url(#pf9a0ddd24c)" style="fill:none;stroke:#000"/><path d="m372.12 372.83 1.24.123 1.92.297M372.12 372.83l-.236.114M371.067 372.872l.26.099.281.024.276-.05M371.067 372.872l.128.661.195.696" clip-path="url(#pf9a0ddd24c)" style="fill:none;stroke:#000"/><path d="m371.39 374.229.297-.769.197-.516M411.14 384.261l-5.75-1.798-18.188-5.523-11.921-3.69M367.171 394.395l.344-2.392 2.438-9.583.953-4.117.25-1.233.234-2.841M449.483 394.975l24.237 5.498M449.483 394.975l-11.638-2.811M450.723 393.9l-.381.263-.86.812M415.233 442.57l-.734-1.436-1.344-1.899-9.36-12.366-5.655-7.466-1.203-1.246-1.531-1.146-10.063-5.799-14.062-8.22-1.5-1.406-1.422-1.986-.859-1.943-.375-1.855.046-1.407" clip-path="url(#pf9a0ddd24c)" style="fill:none;stroke:#000"/><path d="m248.853 464.93 2.368-.332 1.835-.102 1.57-.051 1.618.225 1.804.304.297-.029.094-.036.031-.08-.117-.166-.164-.13-.086-.262.055-.24.266-.463.39-.362 1.25-1.233 1.992-2.11 1.813-2.05.656-.645.336-.101h.382l2.055.39 7.047 1.334 5.43 1.117 4.476.862 4.765.964 1.18.304.235-.014.242.044.008-.356 1.117-2.225.781-1.363 1.187-2.29 2.555-2.957 1.328-1.457.149-.5-.04-.218-.093-.145-.672-.333-.64-.413-.173-.312-.023-.297.672-2.167 2.562-7.829 1.86-6.089 3.203-10.162.781-2.42.36-.726.968-.768.906-.58 1.438-.609 8.422-2.856 15.047-5.233 9.265-3.103 13.265-4.523 7.078-2.45.844-.32.797-.68.937-1.204.891-1.399.774-1.138.421-.319.523-.232M381.14 509.557l1.406-1.943.72-1.13 3.202-5.523 14.922-25.252 12.734-21.47 1.219-2.479.578-2.102.172-1.724-.016-2.06-.266-1.666-.578-1.638M350.336 539.664l3.414-5.407 1.875-2.203 2.046-1.856 5.923-5.174 16.375-14.177 1.171-1.29" clip-path="url(#pf9a0ddd24c)" style="fill:none;stroke:#000"/><path d="m458.998 590.8-.812-1.39-75.624-79.056-1.422-.797M348.732 542.194l-7.232 11.4-2.875 5.014-13.57 24.852" clip-path="url(#pf9a0ddd24c)" style="fill:none;stroke:#000"/><path d="m429.483 609.129-7.5 1.536-1.796.413-3.087.79-5.39 1.268-10.734 2.326-12.508 2.783-2.422.703-1.93.443-1.562.34-.953.188-.649.11-1.038.02-1.258-.064-1.172-.051-.898-.13-1.328-.392-.992-.348-.423-.214-.293-.21-.207-.177-.226-.312-.422-1.058-.246-.405-.293-.254-.547-.257-.465-.127-2.12-.356-.884-.253-.664-.297-.64-.42-.7-.646-.863-.898-.492-.59-.59-.679-.277-.191-.336-.145-.293-.03-.285.015-.313.098-.867.388-.449.232-.328.21-.32.279-.356.456-.23.258-.274.202-.242.087-.301.037-.27-.058-.261-.138-.285-.29-.383-.384-1.09-1.142-2.351-2.166-1.422-1.261-1.21-1.182-.79-.767-1.305-1.53-1.656-2.181-1.445-1.986-.336-.529-.29-.565-1.234-2.464-1.367-2.326-1.023-1.544-1.93-2.304-1.453-1.638-1.008-1.225-1.164-1.08-.695-.449-.875-.471-.805-.334-.914-.224-1.367-.29-4.602-1-2.734-.82M324.817 354.076l3.324 1.233M283.306 346.943l7.714-.155 7.239-.005 2.187.102 1.281.108 1.344.189 2.188.442 2.39.66 4.313 1.53 2.191.75 5.129 1.7 5.535 1.812M331.375 354.587l-3.836-.17-1.195-.13-1.527-.21M384.578 165.765l2.273 3.48 1.352 1.856 1.015 1.298 1.016 1.138.921.726M398.679 178.526l-3.883-2.067-2.226-1.218-1.415-.978M393.546 171.935l-.652.664-1.739 1.664M383.937 268.336l-.477-.98M383.937 268.336l.42 1.007M407.25 227.278l-.759 3.06-.859 2.965-1.406 3.72-1.39 3.262-10.517 19.83-.671 1.29-.602 1.101-.625 1.001-.773 1.03-.735.775-.773.682-.766.652-.78.493-2.377 1.077-.28.12M374.054 272.04l1.32-.783 1.625-.66 6.938-2.261M371.077 276.118l.087-.322.453-1.08.859-1.19.906-.935.672-.55M372.851 271.322l.375.145.828.573M367.102 340.54l.452-7.421M367.102 340.54l-.188 5.224M361.015 340.26l2.853.131 3.234.15M372.765 340.824l-1.84-.092-3.823-.191M332.007 354.584l-.632.003M332.007 354.584l4.15.224M333.223 356.33l-.039-.576-.242-.518-.313-.334-.622-.318M331.375 354.587l-.584.226-.446.417-.24.543-.029.247M336.157 354.808l8.702.5M333.223 356.33l.336-.242.21-.33.532-.504.492-.206 1.364-.24M328.141 355.309l1.935.71M328.141 355.309l.93.659 1.28.934M349.063 355.424l.14-4.914M349.063 355.424l-.203 5.292M349.063 355.424l5.703.175M349.063 355.424l-4.204-.115M330.076 356.02l2.756 1.119M330.076 356.02l.032.34.244.542M366.482 356.122l5.627.23M366.482 356.122l-.301 5.38M366.482 356.122l.243-5.031M366.482 356.122l-6.013-.262M333.2 356.476l.023-.145M332.832 357.139l.219-.246.148-.417M372.109 356.352l.281-5.103M372.109 356.352l-.238 5.34M372.109 356.352l5.765.19M330.352 356.902l.449.415.586.223.634-.003" clip-path="url(#pf9a0ddd24c)" style="fill:none;stroke:#000"/><path d="m332.02 357.537.585-.227.227-.171M366.18 361.502l5.691.19M366.18 361.502l-5.944-.295M377.656 361.905l5.578.247M377.656 361.905l-5.785-.214M377.656 361.905l.218-5.364M377.968 351.467l-5.578-.218M377.968 351.467l.313-5.249M377.968 351.467l-.094 5.074M377.968 351.467l5.86.159M355.078 345.276l.14-5.22M355.078 345.276l-.172 5.32M355.078 345.276l-4.187-.203M360.857 345.473l-3.193-.109-2.586-.088M395.07 357.019l-.012.24-.008.137M395.07 357.019l-.422.07-1.063.105M395.07 357.019l.629-.054M395.07 357.019l.125-2.372M384.187 346.45l-.36 5.176M384.187 346.45l1.086-.007M384.187 346.45l-5.906-.232M383.828 351.626l-.22 5.176M383.828 351.626l4.19.195M354.766 355.599l5.703.26M354.766 355.599l.14-5.003M354.766 355.599l-.157 5.335M383.609 356.802l-.375 5.35M383.609 356.802l5.656.203M383.609 356.802l-5.735-.26M388.019 351.82l.308-5.196M388.019 351.82l1.543.067M363.924 350.904l-3.3-.12M363.924 350.904l.222-5.225M363.924 350.904l2.8.187M349.203 350.51l.282-5.423M349.203 350.51l5.703.086M345.061 360.454l3.799.262M371.71 366.201l5.555.148M371.71 366.201l.161-4.51M377.312 369.239l-.039-2.336-.008-.554M383.062 365.965l-5.307-.206-.232.046-.117.058-.078.174-.063.312M372.39 351.249l.235-5.22M372.39 351.249l-5.665-.158M388.327 346.624l-3.054-.181M395.01 346.924l-.722-.068-.719-.022-5.242-.21M404.6 340.041l.165-.732-.04-.282-.195-.479-.695-1.188-.203-.24-.578-.16M395.86 347.463l.117-.132.062-.162v-.172l-.065-.161-.12-.13M396.023 348.56l-.024-.602-.14-.495M395.333 347.552l.183.03.183-.032.16-.087M395.854 346.705l-.23-.103-.254.007-.222.116-.138.199M396.296 343.775l-.21 2.334-.048.305-.184.291M360.623 350.784l.234-5.311M360.623 350.784l-.154 5.076M360.623 350.784l-5.717-.188M360.236 361.207l.233-5.347M360.236 361.207l-5.627-.273M364.146 345.68l2.768.084M360.857 345.473l1.645.103 1.644.103M366.725 351.091l.189-5.327M395.007 370.517l.219-4.53M395.007 370.517l-.539-.218M395.007 370.517l2.86 1.421M366.914 345.764l5.71.265M383.234 362.152l5.718.246M383.234 362.152l-.172 3.813M372.625 346.03l5.656.188M372.765 340.824l-.048 1.802-.092 3.403M394.757 362.732l.61.05M394.757 362.732l-5.805-.334M394.757 362.732l-.102 3.182M394.757 362.732l.203-2.704M388.952 362.398l.313-5.393M388.952 362.398l-.28 3.784M395.827 352.082l.087-.601M395.827 352.082l-.554-.028M395.827 352.082l-.125 2.306M349.485 345.087l1.406-.014M344.86 355.309l.546-9.983.047-.18.074-.124.087-.065.284-.037 3.587.167M348.86 360.716l5.75.218M415.171 383.66l-5.07-4.234M415.171 383.66l.195.66.055.275.098.586M416.46 384.667l-.18-.232-1.109-.775M395.699 356.965l.001-2.302M395.699 356.965l-.02.504M399.483 356.947l-3.304-.004-.48.022M395.01 346.924l-.03.151.023.153.07.138.115.112.145.074M389.562 351.887l2.39.102M389.562 351.887l-.297 5.118M421.163 357.817l-7.258-.32M421.163 357.817l-.07.587M414.218 349.364l6.195.319.594.073.226.087.157.16.07.238-.297 7.576M388.672 366.182l-.08.913.064.29.109.175.36.202 5.343 2.537M394.468 370.3l.187-4.386M396.023 348.56l-.524-.015M396.023 348.56l3.164.152M396.023 348.56l-.11 2.92M395.367 362.782l3.87.08M395.367 362.782l.312-5.313M395.367 362.782l-.141 3.204M395.333 347.552l.116.464.05.529M360.857 345.473l.158-5.214M383.062 365.965l5.61.217M382.968 369.364l.016-1.703.078-1.696M395.05 357.396l-.09 2.632M395.05 357.396l.629.073M393.585 357.194l1.02.13.445.072M395.679 357.469l3.75.058M404.6 340.041l-1.109-.166-.859-.08-.883.03-.906.122-.531.008-.406-.116-.868-.58M401.834 336.988l-.679.052-.28.11-.251.253-.148.195-.21.349-.33.347-.273.327-.625.638M396.858 341.97l.399-.479.774-1.16.664-.746.343-.326M351.133 334.481l.148 1.827v.761l-.39 8.004M402.968 348.857l-1.703-.058M402.968 348.857l.57.04M402.968 348.857l.453-2.921M389.265 357.005l4.32.189M413.515 363.34l6.382.407.594-.051.211-.124.101-.282.094-.863.195-4.023M421.092 358.404l-7.265-.32M395.273 352.054l-.07 2.333M395.273 352.054l-3.32-.065M395.273 352.054l.03-.559M396.296 343.775l2.985.094" clip-path="url(#pf9a0ddd24c)" style="fill:none;stroke:#000"/><path d="m387.367 342.956 1.944.477 1.141.182 5.844.16" clip-path="url(#pf9a0ddd24c)" style="fill:none;stroke:#000"/><path d="m396.858 341.97-.35.942-.212.863M395.5 348.545l-.196 2.95M398.773 372.41l-.907-.472M398.773 372.41l2.734 1.224M401.218 366.283l-.914 2.48-1.531 3.646M402.866 363.05l2.57.117M402.866 363.05l-.46.008M402.866 363.05l.024-5.342M413.515 363.34h-3.453M413.515 363.34l.312-5.255M415.327 367.125l-1.031-1.914-.547-1.044-.234-.827M406.5 363.225l.859.028M406.5 363.225l-1.063-.058M406.5 363.225l.108-5.459M396.858 341.97l-4.797-.276M415.093 367.69l.234-.565M415.093 367.69l-1.11 2.726M415.093 367.69l-7.375-2.262M410.062 363.34l-2.703-.087M410.062 363.34l.203-5.393M413.827 358.085l.078-.587M413.827 358.085l-3.562-.138M410.624 349.19l-3.578-.145M410.624 349.19l3.594.174M410.624 349.19l-.328 8.177M398.261 366.17l-.395 5.768M398.261 366.17l-3.035-.184M401.218 366.283l-1.5-.072-1.457-.04M361.015 340.26l.363-7.389M385.273 346.443l.117-3.654M403.421 345.936l-2.009-.274M403.421 345.936l.633-3.038M402.937 357.07l-3.454-.123M402.937 357.07l.171-2.392M402.937 357.07l-.047.638M402.937 357.07l3.656.167M406.608 368.183l-2.671-.928M406.608 368.183l7.375 2.233M406.608 368.183l1.11-2.755M404.765 375.374l.547-1.42.945-2.9.07-.471-.008-.284-.078-.449.016-.311.351-1.356M410.1 379.426l.587-.645M404.765 375.374l.766.53 1.242.905 2.109 1.602.687.544.532.471M401.507 373.634l2.43-6.379M404.765 375.374l-1.774-.986-1.484-.754M403.108 354.678l.43-5.781M403.108 354.678l-2.093-.152M385.367 341.535l.023 1.254M420.366 376.157l-7.632-2.697M420.366 376.157l4.742 1.797M420.366 376.157l-1.008 2.827M420.366 376.157l1.195-2.842M404.054 342.898l1.49-.081M404.054 342.898l-2.314.093M404.054 342.898l.547-2.857M387.367 342.956l-.883-.13-1.094-.037M425.436 381.144l-6.078-2.16M402.405 363.058l-3.167-.195M402.405 363.058l-1.187 3.225M405.437 363.167l-1.5 4.088M399.43 357.527l3.46.181M399.43 357.527l.053-.58M399.43 357.527l-.192 5.336M402.89 357.708l3.718.058M413.983 370.416l-1.25 3.044M413.983 370.416l7.578 2.9M395.195 354.647l-2.926-.092-.121-.022-.172-.066-.086-.085-.008-.132.07-2.261M411.812 376.157l-1.125 2.624M411.812 376.157l.922-2.697M411.812 376.157l7.546 2.827M399.28 343.87l-.093 4.842M399.28 343.87l1.016.122M414.218 349.364l-.313 8.134M389.515 330.907l-.203.537-.117.804-.219 1.414-.477 5.241-.312 1.792-.82 2.26M395.195 354.647l.505.016M395.195 354.647l.008-.26M407.046 349.045l-3.508-.148M407.046 349.045l-.453 8.192M413.905 357.498l-3.61-.13M425.733 372.663l-.219 2.015M399.187 348.712l2.078.087M425.108 377.954l.734.19M425.108 377.954l.406-3.276M406.593 357.237l.015.53M406.593 357.237l3.703.13M418.382 381.673l-7.695-2.892M418.382 381.673l.976-2.69M418.382 381.673l6.867 2.487.984.45.234.26.016.348-.375.957-.36.55-.421.175-.328.044-7.016-2.45-.375-.29-.046-.29.124-.494.696-1.747" clip-path="url(#pf9a0ddd24c)" style="fill:none;stroke:#000"/><path d="m418.382 381.673-.696 1.747-.124.493.046.29.375.29 7.016 2.45.328-.043.422-.174.359-.55.375-.958-.016-.348-.234-.26-.984-.45-6.867-2.487M421.561 373.315l3.953 1.363M415.327 367.125l6.89 3.073.267.261.078.269-.016.362-.985 2.225M401.218 366.283l2.719.972M394.655 365.914l.57.072M410.265 357.947l.03-.58M410.265 357.947l-3.657-.18M407.359 363.253l-.016.682-.14.406-.063.363.047.333.203.246.328.145M395.702 354.388l5.313.138M395.702 354.388l-.5-.001M395.702 354.388l-.002.275M401.015 354.526l.187-2.827M395.304 351.495l.61-.014M401.265 348.799l-.063 2.9M395.914 351.48l5.288.219M394.96 360.028l-2.03-.051M387.371 369.54l-4.403-.176M382.968 369.364l-5.656-.125M389.185 373.008l-5.959-.606-.297-.087-.078-.217.008-.522.109-2.212M386.06 374.806l-8.554-2.958-.147-.135-.07-.232.023-2.242M367.734 316.052l.157-2.908M367.734 316.052l-.285 2.683M367.734 316.052l-5.487-.258M361.378 332.871l.107-3.012M361.378 332.871l6.176.248M362.935 304.72l.187-2.703M362.935 304.72l-.184 2.767M362.935 304.72l-3.81-.094M368.312 304.95l-2.838-.115-2.539-.115M369.864 292.638l.081-1.834M368.609 294.297l.263-.573.462-.582.53-.504M369.24 302.366l.135-2.718.23-2.58.259-4.43M368.52 299.706l-5.81-.263M368.52 299.706l.003-2.85M368.52 299.706l-.031 2.637M368.038 310.491l.134-2.801M368.038 310.491l-.147 2.653M362.59 310.221l1.457.073 1.13.056.328.017.531.026 2.002.098M361.654 326.93l.186-2.944M361.654 326.93l-.169 2.929M367.828 327.297l-1.047-.116-5.127-.252M362.751 307.487l-.16 2.734M362.751 307.487l5.42.203M362 321.204l.117-2.73M362 321.204l-.16 2.782M362 321.204l5.28.265M362 321.204l-3.484-.105M367.156 324.18l.125-2.711M367.156 324.18l.824.037M367.156 324.18l-5.316-.194M367.765 330.226l-6.28-.367M367.765 330.226l.063-2.93M367.765 330.226l-.156 2.327M362.996 293.996l5.613.3M362.996 293.996l-.022 2.709M359.36 299.045l.026-1.312.139-2.419.033-.231.043-.295.044-.294.093-.234.058-.122.157-.128.17-.095.283-.056.184-.01 2.406.147M370.066 288.08l-6.598-.655-.032 1.45-.44 5.121M368.312 304.95l-.14 2.74" clip-path="url(#pf9a0ddd24c)" style="fill:none;stroke:#000"/><path d="m368.489 302.343-.136 1.785-.041.822M362.473 312.909l.117-2.688M362.473 312.909l-.226 2.885M362.473 312.909l5.418.235M368.489 302.343l.752.023M363.122 302.017l3.093.188 2.274.138M368.523 296.855l-5.549-.15M368.523 296.855l.086-2.558M362.974 296.705l-.251 2.489M362.71 299.443l.412 2.574M362.71 299.443l.013-.25M367.28 321.469l.169-2.734M358.94 309.938l.905.07 2.745.213M362.247 315.794l-.13 2.68M362.247 315.794l-3.502-.212M367.554 333.119l.055-.566M416.723 386.047l-1.478-.437M416.723 386.047l.072-.294-.042-.248-.095-.173" clip-path="url(#pf9a0ddd24c)" style="fill:none;stroke:#000"/><path d="m420.015 387.063-1.836-.576-1.456-.44M416.073 386.465l.26-.06.236-.152.154-.206M381.21 287.28l-.052 2.591M381.21 287.28l1.539.043M375.241 289.666l.196-2.706 5.773.32M416.658 385.332l-.191-.181-.248-.109-.274-.023-.264.067-.162.095M416.658 385.332l-.128-.426-.07-.239M380.418 308.56l.133-2.584M380.418 308.56l-.492 2.908M380.418 308.56l5.774.36M386.506 303.535l-5.772-.275M386.506 303.535l-.176 2.669M386.506 303.535l.155-2.735M375.241 289.666l-.068 1.375" clip-path="url(#pf9a0ddd24c)" style="fill:none;stroke:#000"/><path d="m381.158 289.871-2.55-.088-3.367-.117M415.245 385.61l-4.105-1.349M415.245 385.61l.023.35.126.223M415.245 385.61l.188-.353M386.136 311.21l.643-.014M386.136 311.21l-1.391.22M386.136 311.21l.056-2.29M375.094 292.439l.079-1.398M375.094 292.439l-.1 2.687M375.094 292.439l6 .24M386.192 308.92l.138-2.716M416.073 386.465l.925.289.718.174.969.087 1.33.048M416.073 386.465l-.343-.047M381.158 289.871l-.063 2.808M381.158 289.871l1.521.12M381.095 292.679l-.097 2.571M381.095 292.679l1.46.03" clip-path="url(#pf9a0ddd24c)" style="fill:none;stroke:#000"/><path d="m420.015 387.063-2.173-1.367-1.382-1.029M437.845 392.164l-6.065-1.465-11.765-3.636M380.551 305.976l.008-.29M380.551 305.976l5.779.228M386.661 300.8l-5.79-.203M386.661 300.8l.077-2.715M415.433 385.257l-.88-.227-3.413-.769M415.433 385.257l.086-.076M415.394 386.183l.336.235M411.14 384.261l1.617.805.695.355 1.305.616.637.146M418.166 388.397l-.683-.207-1.21-.254-.47-.326-.171-.21-.055-.29-.008-.254.161-.438M379.926 311.468l1.767.014M379.926 311.468l-.63-.061M386.738 298.085l-5.822-.243M386.738 298.085l.027-2.668M380.998 295.25l1.697.049 4.07.118" clip-path="url(#pf9a0ddd24c)" style="fill:none;stroke:#000"/><path d="m383.107 292.744 2.99.07.366.084.223.237.12.294.02.422-.013.42-.048 1.146M380.56 305.686l.174-2.426M369.097 305.274l3.578.24.73.05 7.154.122M368.718 311.508l10.578-.101M369.097 305.274l-.135 2.636-.218 2.916-.026.682M367.98 324.217l.12-2.646.123-2.61.249-2.753.118-2.895.128-1.805M380.734 303.26l.136-2.663M362.117 318.474l5.332.261M369.097 305.274l.144-2.908M380.998 295.25l-2.18-.045-3.824-.079M380.916 297.842l-6.041-.268.119-2.448M382.749 287.323l-.07 2.668M382.749 287.323l.563.007M380.998 295.25l-.082 2.592M382.554 292.71l.553.034M382.554 292.71l.125-2.72M380.87 300.597l.046-2.755M349.29 541.316l-.558.878M349.29 541.316l1.046-1.652M349.29 541.316l.374.051.422-.051M349.031 540.744l.016.26.242.312" clip-path="url(#pf9a0ddd24c)" style="fill:none;stroke:#000"/><path d="m350.086 541.316.336-.333.195-.428.107-.591M350.086 541.316l.78-.167.4-.043.624-.073M354.352 541.258l-.891-.058-1.57-.167" clip-path="url(#pf9a0ddd24c)" style="fill:none;stroke:#000"/><path d="m351.89 541.033-.226-.123-.266-.108-.257-.268-.165-.21-.163-.269-.089-.091M358.266 541.804l.437.056.781.087 1.047.036.5.072.407.073.288.072.25.11M350.336 539.664l-.32-.08-.18.044-.18.116-.351.427-.274.573" clip-path="url(#pf9a0ddd24c)" style="fill:none;stroke:#000"/><path d="m350.724 539.964-.115-.119-.273-.181M358.266 541.804l-.579-.074-1.086-.095-1.203-.196-1.046-.18M358.305 534.786l-.664.877-.29.428-.343.594-.383.652-.578.914-.531.905-.587.877-.577 1.225M351.133 334.481l-1.147-.699M330.461 282.872l.774 2.051.328 1.414.367 2.755.446 1.856 1.218 3.393.906 3.929.235 1.174.718 1.74 1.97 3.451 2.686 3.886.516.914.594 1.543.523 2.161.602 2.153.406 1.42.711 1.755 2.836 5.981 2.102 3.814 2.296 4.748.438 1.471M330.461 282.872l-13.038 7.583-.166.069-.162-.033-2.647-3.19M326.202 264.056l.572 3.17 2.117 9.498.82 3.632.75 2.516M326.05 263.215l.152.84M313.312 245.37l.456.12.291.142 1.082.823 1.476 1.689 2.844 3.61 2.11 2.32 2.601 2.451.266.29.117.232.21.547.878 3.493.407 2.128M297.11 269.387l2.047 3.712.203.428.89 2.283.634 1.25.168.151.187.093.276.002.208-.031 1.489-.754 4.101-2.364 1.914-1.326.164-.287.036-.391-.02-.338-.16-.967.12-.268.528-.28.442-.054.39.13.879.812.31.1.32-.015.372-.16 13.442-7.898M370.703 244.7l-1.406-2.472-.72-1.508-.663-1.123-1.281-2.277-.376-.544-1.398-2.48-1.453-2.58-5.914-10.332-.398-.726-.376-.608M388.226 213.713l.363 2.048.27 2.215.226 4.274-.058.86-.297.815-.277.402-.383.344-.243.224-.245.184-.426.267-.477.235-3.911 2.112-2.702 1.358-.293.25-.351.473M379.593 231.251l-.152-.681-.043-.38.024-.416M366.686 236.569l.214-.127.153-.079 10.573-5.581 1.796-1.008M407.25 227.278l-1.212-.754-4.281-2.922-4.984-3.328-2.235-1.5-.43-.544-.101-.66.14-.696.384-.696.562-.914M414.116 189.365l.196.943.156 1.139-.055 1.384-2.219 10.477-2.39 11.391-2.164 10.796-.39 1.783M378.999 171.69l5.579-5.925M384.578 165.765l-3.004-4.235M375.07 152.31l.149.2 2.359 3.393 2.859 3.872 1.137 1.755M386.066 158.082l-.852.605-1.828 1.284-1.214 1.004-.598.555M403.905 181.252l-5.226-2.726M403.905 181.252l3.219 1.813M403.905 181.252l2.235-5.685M406.14 175.567l.976-2.48 1.172-3.451 1.43-4.125 2.46-6.454.829-1.914 1.453-2.436 2.75-4.416 3.363-5.417M398.679 178.526l3.578-4.532.242-.145.266-.036.265.057 3.11 1.697M414.116 189.365l-.305-.84-.617-1.168-.648-.877-1.07-.965-1.243-.884-3.11-1.566M412.429 179.918l-.649.522-.62.363-1.094.424-.332.023-.31-.023-.222-.066-.219-.029-.189.046-.197.139-.211.189-.426.366-.336.392-.3.406-.2.395" clip-path="url(#pf9a0ddd24c)" style="fill:none;stroke:#000"/><path d="m398.296 182.79 1.399 1.293 1.437 1.034 1.094.525.23.013.232-.044.442-.22.22-.272.106-.212.725-1.076.209-.101.334-.065.254.009.412.126.723.113.224-.054.168-.08.194-.192.425-.522M443.553 162.32l-1.68 1.255-3.937 2.639-6.031 3.712-2.672 2.016-4.39 3.451-4.922 3.568-1.641 1.436-1.11 1.391-.468.957-.906 2.568-1.68 4.052M450.6 149.711l1.812-3.06 1.704-2.661 2.132-2.843 1.961-2.385 1.149-1.204 2.836-2.915 2.992-2.487 3.359-2.422 4.71-2.857 3.165-1.725" clip-path="url(#pf9a0ddd24c)" style="fill:none;stroke:#000"/><path d="m512.841 157.339-.86-.71-1.296-.639-1.578-.391-.922-.247-.89-.435-2.157-1.631-.742-.769-.812-.892-1.633-1.755-.813-1.065-1.523-2.488-2.258-4.452-.719-1.088-2.343-2.646-.68-.885-1.094-1.406-.688-.595-1.18-.718-1.655-.878-1.93-1.13-4.218-2.683-4.29-2.77-.945-.638-1.195-1.276M443.553 162.32l.618-.79.656-.986 4.601-8.498 1.172-2.335M456.186 151.585l-2.58-1.198-3.006-.676M443.553 162.32l.21.365M435.66 181.897l-.308-.493-.112-.649.196-.753.95-2.206 1.54-2.7 2.544-4.776 2.21-4.465.753-1.956.301-.748.029-.466M448.603 167.034l-.916-.868-3.924-3.481M337.82 359.216l-.304.616-.234.435-.157.16-.258.086-.187.007-.172-.036-.25-.188-.46-.326-3.532-1.327-2.86-1.218-1.124-.536-.328-.058-.204.043-.312.203-.235.363-.814 1.816M337.82 359.216l7.54 3.153M367.609 332.553l7.928-.166M376.177 330.826l1.7.205M380.426 331.171l-2.548-.14M380.426 331.171l.683-11.517M383.591 326.934l-.339 3.82-.013.22-.055.147-.081.097-.27.053-.452.002-.673.003-1.282-.105M355.839 304.58l3.286.046M355.839 304.58l-.205 5.296M355.457 290.127l.353.003.19 2.298-.217 4.872-.354 6.513.41.767M358.94 309.938l-.953-.018-.325-.006-2.028-.038M355.416 315.286l.006-1.885.212-3.525M355.416 315.286l3.329.296M358.516 321.099l-3.367-.167.267-5.646M358.745 315.582l-.046 2.144-.183 3.373M358.745 315.582l.195-5.644M358.94 309.938l.185-5.312M359.36 299.045l-.081 3.147-.154 2.434M359.36 299.045l3.363.149M379.296 311.407l-.572 8.022M378.724 319.429l-.124 1.473-.312 2.965-.256 2.835-.245 2.536-.06 1.083.005.568.146.142M384.745 311.43l-1.393.023-1.66.029M381.109 319.654l.277-4.046.148-2.04.159-2.086" clip-path="url(#pf9a0ddd24c)" style="fill:none;stroke:#000"/><path d="m384.212 319.87.369-4.22.164-4.22M383.591 326.934l.62-7.064M383.591 326.934l1.994.144M388.125 327.32l-2.54-.242M385.585 327.078l.579-7.24M377.38 319.378l1.344.05M378.724 319.429l2.385.225M381.109 319.654l3.103.216M384.212 319.87l1.952-.032M386.78 311.196l-.32 3.85.024.674.273.558.79.471.507.363.164.355-.07.399-.524.536-.882.406-.328.326-.149.283-.101.42M383.46 267.357l1.57-.74M371.82 246.781l2.93 5.191 5.258 9.186 3.452 6.199M372.851 271.322l4.899-1.885 2.726-.931 1.922-.635 1.062-.514M387.585 265.037l-5.257-9.142M389.5 262.651l-.985 1.414-.93.972M385.03 266.617l1.508-.848 1.047-.732M373.957 246.912l2.472-1.204M379.671 257.192l-3.476-6.133-2.238-4.147M371.183 244.515l.42.514.275.148.309.074.438.051.258.102.19.127.884 1.381M370.703 244.7l1.117 2.081M370.703 244.7l.48-.185M385.03 266.617l-5.359-9.425M379.671 257.192l2.657-1.297M392.726 250.704l-2.688 1.29M384.147 241.973l2.102-1.065.54.036.335.269 5.602 9.49M392.836 256.663l1.18-2.208.179-.467.039-.232-.078-.312-.126-.333-1.304-2.407M392.836 256.663l-1.626 2.929M392.836 256.663l-2.798-4.669M390.038 251.994l-2.562 1.269M390.038 251.994l-5.891-10.02M384.147 241.973l-2.437 1.176M381.71 243.149l5.766 10.114M381.71 243.149l-2.625 1.247M387.476 253.263l-2.633 1.312M387.476 253.263l3.734 6.329M389.5 262.651l1.187-1.841.523-1.218M389.5 262.651l-4.657-8.076M384.843 254.575l-2.515 1.32M384.843 254.575l-5.758-10.179M379.085 244.396l-2.656 1.312M376.429 245.708l5.899 10.187M369.117 271.46l.578.254.426.032 1.746-.409.445-.044.54.03M369.586 248.796l.445-.572.453-.544.797-.572.539-.327M367.828 327.297l.152-3.08M367.98 324.217l6.87.457M637.27 611.23l-8.446-11.326-7.235-9.987-3.86-5.233-12.374-16.466-2.172-2.775-.898-.884-.812-.71-.704-.53-.562-.463-4.524-6.987-4.593-9.914-3-7.48-2.531-7.392-1.985-5.871-3-8.378-2.765-7.973-1.39-4.29-1.11-2.885-.97-2.943-.64-2.102-1.421-4.146-1-3.913-1.188-5.872-1.094-5.87-.36-2.247-.202-2.175-.187-2.71.124-1.943.22-1.552 2-7.131 1.234-5.35.812-5.755.094-1.972-.078-2.276-.032-1.218v-.876M561.393 420.24l.963 2.686 1.766 3.755 2.953 7.263 1.953 2.827 2 2.493.953 1.479.64.892M628.157 435.34l-9.212-2.078-29.8-6.744-26.5-5.984-1.252-.294M544.544 416.431l3.765.827 7.703 1.718 5.38 1.264M628.157 435.34l.12-.33.035-.225-.035-.141-.184-.145-.104-.039-.118-.03-.45-.062-1.636-.283-2.313-.529-1.57-.471-.758-.17-.703-.073-.746-.101-.688-.12-.831-.174-2.563-.674-2.297-.573-.238-.145-.082-.177-.035-.261.117-.808.133-.493.164-.747.156-.707.246-1.26.063-.443.187-1.102M544.544 416.431l.222-.753.09-.341M549.852 407.755l-.223 1.515-.007.007-.133 1.399-.187 1.189-.071.561-.227 1.766-.148 1.37-.043.173-.074.294-.156.141-.168.055-.313-.022-.305-.08-1.406-.486-.784-.206-.442-.04-.309-.054M482.592 401.513l.312.218.39.102 1.477.13 2.985.696 2.023.58 1.86.34 3.179.754 6.82 1.493 7.414 1.711 1.836.486 2.078.42 2.016.537 1.734.217 1.531.275 1.532.45 2.375.594 1.672.334 1.718.435 2.078.391 5.453 1.233 1.219.39 1.25.146 3.156.638 4.734.913 1.422.34M544.544 416.431l-63.304-14.264M543.09 246.15l-3.28-4.27-5.594-6.99-2.907-3.69-3.382-4.466M542.893 219.092l-1.56 1.212-.977.667-1.132.58-11.297 5.183M421.687 281.668l5.593-4.64 6.53-4.988 5.095-4.06 6.031-4.495 11.219-7.656 3.53-2.232 2.563-1.19 12.094-3.45 11.843-2.988 4.688-1.276 2.593-.754 1.344-.609 1.906-1.537 2.032-1.624 1.531-.986 12.312-5.8 15.336-6.649M569.246 224.16l-.812-.275-3.187-1.349-1.258-.616-1.305-.761-.687-.508-.938-.87-2.703-2.828M544.396 218.003l.429-.28 1.297-.574 1.414-.362 2.414-.16 3.18.022 3.71.152 1.516.152M577.293 229.294l.578.34 7.242 3.184 1.602.608 1.344.4 1.515.303 1.485.21 1.374.247 2.446.479 1.656.384 1.312.428 4.227 1.551 1.75.61 1.203.246 1.313.217 4.789.435 1.156.196 2.11.631 1.953.812.6.297.634.435.445.385.437.384M569.246 224.16l1.071.203 1.054.189 1.098.232.856.29.64.312.445.348.391.529 1.414 2.045.539.536.54.45" clip-path="url(#pf9a0ddd24c)" style="fill:none;stroke:#000"/><path d="m572.2 231.382 1.343.624.281.05.286-.022.277-.112.273-.207.176-.206.117-.305.036-.366.062-.892.078-.203.165-.174.312-.065.617-.044.531-.043.54-.123M572.2 231.382l.429-.45.223-.322.11-.261.065-.316.012-.315-.066-.272-.164-.232-.414-.391-1.719-1.233-.164-.246-.14-.233-.086-.29-.079-.689-.07-.362-.125-.348-.219-.442-.547-.82M557.95 267.85l.21.348.138.311.199.639.265.92 2.266 7.308.094.464-.078.42-.22.378-2.67 3.87-.267.233-.226.109-.274.022-.25-.044-.265-.16-.414-.29M557.95 267.85l-.07.304-.242.493-4.36 6.54-2.125 2.9M543.09 246.15l2.884 3.604 8.664 10.795 1.43 1.77.46.644.235.41.156.384.234.729.765 3.048.032.316M572.2 231.382l-3.172 2.204-.844.74-.578.608-.47.588-.616.942-1.234 2.16-.532 1.095-.226.631-.156.631-.055.79.023.494-.055.369-.171.24-.39.115-.422.022-3.47-.732-1.71-.435-.484-.022-.329.058-.227.145-.132.24-.078.797.039.514.07.559.203.696.328.623.094.29.125.617.14.863.196.768.219.413.453.653.32.464.414.717.625 1.103.273.53.149.376.172.435.21.413.282.442 4.266 5.191 1.766 2.146 1.617 1.773.085.13v.13l-.058.15-.262.166-.742.312-.266.025-.261-.075-.145-.073-.246-.287-.207-.38-.355-.78-.149-.137-.183-.07-.243-.028-.383.069-6.07 1.584-.586.094-.406-.022-.383-.174-.335-.319-.517-.638-.39-.457-.265-.304-.43-.384-.586-.493-1.313-1.432-.96-1.16-2.223-2.758-3.656-4.612-2.559-3.215-.402-.395-.434-.374-.812-.591M369.586 248.796l.04.733-.204 4.415-.344 8.352-.125 3.872.062.45.078.405.086.472.032.478-.196.595-.156.739-.101.913.062.711.297.53" clip-path="url(#pf9a0ddd24c)" style="fill:none;stroke:#000"/><path d="m360.555 272.143.484-.233 1.265-.511.61-.054 3.484.166 1.852.065.867-.116M337.008 263.065l-.39-.986.039-.287.09-.242 5.62-9.672 4.164-6.786.305-.554.184-.106.21-.018 13.871 5.796 2.247.58 1.062.457 1.281.515.348.113.351-.023.371-.22.266-.294 1.484-1.566 1.075-.976M371.425 242.17l-.513.259-.162.255-.097.372.032.353.498 1.106M348.547 122.403l-1.373-1.34M348.547 122.403l1.238-.825M366.955 141.886l-4.729-6.04-1.89-2.203-1.82-1.9-4.212-4.105-5.757-5.235M283.306 346.943l-1.125-.028M261.953 285.216l2.283 3.5 3.015 4.842 3.695 5.11 2.18 2.632 1.734 1.813.922 1.16.485.97.516 1.465 2.062 9.556.39 2.551.344 3.234.188 3.233.438 5.945.078 2.493.108 1.769.641 3.175 1.282 5.814.992 2.465M261.364 284.314l-1.972-3.023-.922-1.305-.64-.696-.97-.667-1.484-.768-2.156-1.45-1.937-1.9-4.031-5.597-2.875-6.307-6.094-13.558-2.36-5.22-.406-.87-3.921-8.497-1.954-4.77-.374-1.755-.157-.885v-1.45l-.125-.943-.453-1.769-.859-3.001-.297-1.015M249.973 167.234l-.222.256-2.234 3.379-.656 1.015-1.265 2.755-3.188 7.135-3.422 7.526-2.78 6.41-2.61 6.177-2.36 6.337-2.312 5.336-1.141 2.712-.297.9-.14.854.03.842M151.535 196.61l9.25-2.205 2.914-.921.706-.41.38-.33 1.921-2.095 1.29-1.527.96-.7 1.016-.474.82-.264 7.054-.602 3.454-.312.625.069.32.152 3.258 2.614 1.851 1.384.899.878 1.828 2.124 1.226 1.182 1.086.87 3.102 3.125 1.683 1.389 1.567 1.113 1.57 1.377 3.304 2.45 3.477 2.444 6.5 3.568 8.57 4.836 2.3 1.265 2.91 1.258M249.973 167.234l.294-.339.797-.623 2.766-1.958 2.859-2.523 4.672-4.496 3.14-3.002 1.907-1.624 3.156-2.16.875-.32.672-.058.607.082" clip-path="url(#pf9a0ddd24c)" style="fill:none;stroke:#000"/><path d="m300.314 158.557-5.595-.348-1.14-.13-2.531-.436-3.75-.812-5.047-1.406-5.562-1.842-1.922-.914-1.828-1.407-.797-.797-.424-.252" clip-path="url(#pf9a0ddd24c)" style="fill:none;stroke:#000"/><path d="m240.674 116.631.728.573.287.344.527.624.399.337.73.53.59.616.734 1.051.653.718 1.195.856 1.938 1.171 2.535 1.834 2.133 1.334 1.113.66 1.887 1.194.562.442.488.54.438.903.254 1.773.41 2.614.34.986.675.96 2.89 2.894 2.837 2.672 1.836 2.124.984.935 1.235 1.168.722.86.973 1.301.485.718.466.85M333.336 147.967l-4 3.709-1.797 1.631-2.18 1.806-2.116 1.11-1.852.543-4.984.827-6.938 1.182-1.047.101-1.062-.014-7.046-.305M296.532 141.423l3.782 1.653.468.435.144.2.028.094-.02.254-.503.895-.051.181-.036.21.032 3.894-.062 9.318M342.813 124.564l-.36.798-.21.884-2.212 11.37-.343 1.74-.344.783-1.375 1.828-4.633 6M352.508 161.102l-1.02-1.737-.435-.458-.377-.267-3.684-2.19-5.039-3.15-3.59-2.255-5.027-3.078M347.174 121.064l-2.846 1.963-.757.689-.758.848" clip-path="url(#pf9a0ddd24c)" style="fill:none;stroke:#000"/><path d="m330.883 117.56.957.123.836.025.506.08 1.213.388.297.127.683.352.354.093 1.408.309 3.459.551.395.129.232.13.111.18.533 1.497.669 2.03.277.99M386.78 311.196l.782-.123 1.687-.464 2.781-1.131 2.438-1.653 2.188-1.885 4.718-5.046 10.469-10.004 9.844-9.222M384.358 269.343l1.259.595 23.073 7.482 12.997 4.248M382.598 236.722l-1.442-2.774M382.598 236.722l-11.173 5.448M388.421 230.323l.22 2.842-.017.392-.25.304-5.776 2.861M381.156 233.948l-1.563-2.697M381.156 233.948l7.265-3.625M381.156 233.948l-11.094 5.75M370.062 239.698l-1.5-2.371M370.062 239.698l1.363 2.472M379.593 231.251l7.11-3.74.39-.19.469-.057.515.232.141.45.203 2.377M379.593 231.251l-11.031 6.076M366.686 236.569l.41.696.3.204.432.047.408-.073.326-.116M363.218 216.65l.645.99.008.13-.045.166-.21.185-5.589 2.904-.11.13v.185l2.61 4.676 5.848 10.017.311.536M326.202 264.056l.455-.962.16-.216.19-.194.21-.092.47-.06 1.16-.018 1.747-.008 4.687.24 1.727.319M360.555 272.143l-3.633 1.753-5.277 2.204-1.594.547-.41.066-.43-.07-.469-.224-5.258-6.612-3.46-4.125-1.454-1.61-1.03-.695-.532-.312M371.077 276.118l-1.222-.438-1.742-.468-1.817-.351M370.066 288.08l.043-.974.523-8.722.18-1.283.265-.983M366.955 141.886l.146.187M373.421 133.831l-.314.571-.447.71-.418.425-.887.807-.726.561-.758.32-1.594.37-.66.103-.606.18-1.154.572-.225.254-.048.188.04.2.575.816.242.43.514 1.548M350.07 121.928l-.285-.35" clip-path="url(#pf9a0ddd24c)" style="fill:none;stroke:#000"/><path d="m373.421 133.831-2.652 1.799-.492.253-.8.243-1.798-.181-2.343-.66-1.75-.319-.784-.26-.404-.197-.5-.46-2.603-2.881-.188-.36-.066-.334-.056-.738-.058-.12-.15-.12-.595-.143-.547-.088-.184-.06-.256-.138-4.535-4.307-2.113-2.139-.476-.693M373.421 133.831l.82-.28.778.026.512.24 3.797 2.266.668.396.56.147.674.096.703-.092 3.2-.787 2.335-.591 1.195-.5 3.227-1.697 5.882-3.285 2.536-1.327 3.183-1.472.637-.293.1-.116.03-.229-.106-.446-.418-.656-.965-.979-1.442-1.062-.46-.511-.11-.385-.094-1.5-.187-.697-1.188-1.842-1.297-1.573-1.281-.892-2.468-1.356-1.313-.605-2.781-1.012-.477-.268-.476-.443-1.82-2.704-.65-.563-1.476-.656-1.75-.616-1.952-.348-2.075-.069-3.699.17-4.275.427-.446.114-.705.453-.332.446-.312 1.062.031.882.418 1.439.338 1.04.048.276-.05.435-.203.297-.305.334-.27.18-.667.175-3.387-.065-1.153-.174-.466-.026-.451.026-1.102.388-3.36 1.704-2.96 1.407-1.772.879-.724.451-3.597 2.458M367.1 142.073l-.33-.085-.263-.137-.515-.417-.713-.955-.195-.104-.2-.009-.318.076-1.71 1.496-1.876 2.052-3.043 3.705M375.07 152.31l-.992-1.33-3.789-4.72-2.204-2.93-.984-1.257M384.358 269.343l-.687 17.726M542.893 219.092l.94.5.535.367.555.511.167.268.263.58.55 1.023 1.043 1.91.281.526.086.123.406.493.512 1.233M544.396 218.003l-.626.408-.877.68M544.396 218.003l-1.262-.676-4.371-2.81-7.293-4.835-.758-.455-.258-.11-.404-.099-1.139-.533M375.07 152.31l1.933-1.149 1.246-.475 1.067-.352.793-.083.547.025M249.973 167.234l-.436-.643-1.621-2.088-3.133-4.061-2.11-2.393-1.914-2.128-7.796-9.524-1.465-1.396-2.004-1.591-1.527-1.117-1.277-1.095M261.364 284.314l.294-1.124.484-.985.844-.856 1.008-.725 1.93-.986 2.078-.623.695-.595.351-.598.219-.67.082-.417.074-1.2M261.364 284.314l.589.902M355.457 290.127l-.457-1.093.047-.464.578-1.798-.063-1.928.07-.421.509-.189 4.828.218.976-.268.21-.189.06-.21.023-.432-.11-1.58-.148-2.907-.168-3.085-.254-2.367-.09-.254-.195-.246-.718-.77M205.471 436.227l-.258 1.269-.558 2.214-.953 3.962M166.925 445.831l2.5.16 2.21.217 2.07.232 1.735.102 1.547.116 1.984.032 1.223.015 1.11-.011.527-.04 5.387-.634 1.097-.076 1.606-.025 1.308.043 1.617.109 1.274-.008.89-.083.973-.203 2.98-.888 2.125-.638.952-.277.368-.08 1.294-.222" clip-path="url(#pf9a0ddd24c)" style="fill:none;stroke:#000"/><path d="m180.91 514.311 1.749-6.305 10.093-26.499.126-2.32-.376-2.783 2.688-11.77 1.437-2.552 4.5-3.363 1.063-1.334 1.062-5.567-.5-3.827.95-4.32M149.824 511.637l.898-4.588.687-2.986 1.844-10.031.801-4.179.238-.931 1.524-5.396.761-2.2 1.88-6.472 1.03-4.012.438-1.45.414-1.225 1.265-4.168 5.32-18.168M132.496 430.059l-1.707-.13-.224.056-.206.114-.133.114-.082.147-.04.161-.015.14.016.218.047.198.164.388.476 1.015.22.884.327 1.272.337.67.41.49.171.123.262.127.457.145.559.094 2.562.232 1.18.189 3.922.797 1.594.366 1.667.312 3.41.55.868.171.738.239.902.38 2.018 1.19 1.068.572.43.252.793.581.906.66 1.27.82 2.507 1.46.594.257.453.116.477.069 6.03.333M180.91 514.311l-19.126-3.377-.93-.085-.835-.002-1.137.047-1.664.138-7.394.605M193.827 375.994l-.012 7.52.672 8.837.648 7.263.499 7.215.052.344.075.317.273.94.87 2.492M205.471 436.227l.383-1.88.351-1.429.18-.75.117-.971.008-1.145-.086-.403-.171-.46-.32-.439-.317-.293-.442-.323-.711-.319-1.015-.3-1.281-.5-.836-.515-.551-.548-.473-.72-1.218-2.146-.575-.997-.172-.482-.09-.406-.406-4.03-.64-4.603-.213-1.261-.088-.385M179.26 424.905l-.906.362-.629.192-1.035.142-.243.01-.19-.044-.097-.065-.085-.1-.068-.144-.032-.226-.076-1.829-.193-1.197-.07-.754-.008-.653.044-1.07.077-.59.113-.37.184-.29.2-.22.257-.174.373-.156 8.494-2.487 4.992-1.42 3.336-.942 1.562-.42.45-.18.34-.156.238-.174.183-.2.215-.31.219-.518M282.181 346.915l-12.617.093-5.016.05-3.75.407-3.765.594-2.328.493-2.078.493-2.625.754-2.547.899-3.813 1.652-16.085 7.583-12.773 6.133-20.957 9.928" clip-path="url(#pf9a0ddd24c)" style="fill:none;stroke:#000"/><path d="m115.105 413.505 2.57-1.213 23.469-11.402 25.894-12.2 23.543-11.174 3.246-1.522M127.838 340.502l7.314.656.867.232.291.116.326.196.41.373.52.678 2.843 6.19 5.344 13.252.977 4.85.328.993.36.652.53.689.704.652.617.443.718.34.774.232 1.617.21 8.508.668 15.367 1.043 14.644.935 1.18.077.523.098.18.07.144.103.182.229.095.188.067.214.56 1.113M228.3 493.503l-2.767 3.037-3.828 4.268-1.265 1.341-.223.254-.141.236-.133.424-.109.59-.156.435-.457.884-.399.558-.867 1.204-.742 1.072-1.102 1.83-.36.657-.257.568-.593 1.327-.344.543-.336.428-.86 1.014-1.421 1.66-.576.63-.768.762-1.645 1.46-.695.515-.396.212-.272.087-.281.049-.344-.011-.406-.084-.484-.17-.608-.284-.371-.263-.272-.2-.196-.116-.159-.057-.21-.036-2.142-.153-1.17-.15-1.396-.248-11.547-2.146-7.093-1.319M102.76 419.329l-.565.6-.144.446-.258 1.138-1.004 5.338-.055.493-.003.402.035.263.074.266.32.674.836 1.48.551 1.09.64 1.57.576 1.549.247.902.104.233.378.679.256.688.283.997.652 3.023 1.125 5.157.172 1.152.598 2.668.137.95.055 2.565M102.76 419.329l12.345-5.824M127.838 340.502l-.66-.399-.213-.152-.25-.21-.084-.09-.06-.09-.216-.418-.812-1.885-1.309-2.932-2.27-4.94-8.246-18.958-1.113-2.502-2.921-6.836-1.211-2.468-1.34-2.98-.582-1.301-.195-.725-.247-1.523-.074-.957.156-2.088.008-1.754-.062-2.008-.055-1.178-.027-.374-.219-.939-.086-.456-.016-.413.072-.461.07-.273.003-.29-.051-.261-.076-.158-.143-.181-.254-.287-.244-.237-.167-.2-.096-.193-.055-.163-.031-.182-.023-.357.074-.578.152-.573.71-1.715.934-2.015.344-.696.203-.562.407-1.598.351-1.353.09-.674v-.522l-.055-1.098.219-2.661.133-2.595-.008-.878-.29-2.327-.468-2.66-.102-1.313-.14-.84-.266-.907-.773-2.001-.2-.323-.241-.315-.364-.312-.5-.32M115.105 413.505l-.068.93.135.407.129.553.46 3.327.116.447.08.278.184.259.122.096.172.074.211.02.211-.007 1.819-.283M110.34 393.358l.554.827.063.216.004.115-.004.118-.037.155-.068.146-.096.102-.465.335-.068.064-.081.11-.04.076-.033.09-.018.13.004.103.293 1.545.21 1.131 1.13 4.882.543 2.53.507 2.28.476 1.689.626 1.891.394.969.871.643M205.471 436.227l.867.312.805.42.317.247.347.377.242.388.21.438.09.283.06.41-.005.173-.023.177-.056.183-.088.162-.5.606-.127.293-.01.232.086.373.136.301.34.46.192.173.246.179.457.235.984.305 1.118.406.93.231.671.084.167.004.17-.014.123-.033.103-.042.195-.13.703-.673.949-.767.356-.23.32-.069.379.026.345.049.283.121.497.314.437.375 1.926 2.754 1.113 1.381 1.285 1.36 2.094 2.47.274.435.21.573.29.957.101.746.235 1.523.062 1.797.101 2.573M349.031 540.744l-.219.449-.046.297-.034.704M437.845 392.164l.365-.748.164-.268.172-.116.273-.08.328.044 2.656.71 7.852 1.82.566.148.502.226M456.389 345.943l.031.376.172 1.19.453 1.609.328 1.594-.03.812-.548 1.639-.46 1.971-.618 2.313-.531 1.522-.18.899.024.652.187.972.523 1.551.868 3.357.484 1.653.453 1.014.516 1.783.718 1.697.797 2.059.703 1.812.157.507v.435l-.157.537-.343.68-.25 1.002-1.117 3.486-.489 2.052-.16.55-.406 1.016-.75 2.116-.594 1.145-.562.479-3.188 2.305-1.697 1.172M415.343 399.223l1.125-4.175 1.266-4.553.39-1.348.042-.75M419.046 401.18l.437-1.348.219-1.32.875-3.305.844-2.71.516-1.393.03-.899-.14-.464-.281-.231-1.024-.4-2.356-.713M474.475 414.532l-.617 3.77-.954 4.841-.39 2.422-.172.478-.469.522-1.047.681-.953.566-.328.348-.375.45-1.422 2.029-1.406 1.754-.703 1.044-.969 1.014-.344.363-.172.318.016.45.156.537.844 1.217 1.11 1.493.874 1.697.828 2.014.516 1.117.953 1.334 3.375 4.769 1.375 1.616.352.537.054.319-.07.326-.117.254-.43.434-1.68 1.733-1.187 1.377-1.789 1.812-1.07 1.348-1.164 1.848-.414.537-.203.087-.329.036-1.46-.232-2.93-.594-.516-.087-.453.072-.453.145-.406.334M474.475 414.532l1.96 1.9 2.407 1.84 2.343 1.407 2.313 1.304 2.172 1.465 1.828 1.435 3 1.725 3.515 2.088.75.536.438.522.766 1.232.484 1.131.484 1.58.625 1.754.477 1.32.094.68.093.929.258 1.123.133.82.055.695-.11 1.116-.195.885-.032.37.078.267.188.167.39.124 1.29.26 1.047.348 1.625.682 1.14.348 1 .188 1.438.232M473.72 400.473l-.253 2.128-1.281 5.161-.188 1.58-.078.87.047.508.328.898 1.328 1.87.852 1.044M473.72 400.473l7.52 1.694M483.92 401.035l-.938-1.71-.53-1.059-.376-1.29-.297-2.45-.109-1.943-.172-2.218-.25-1.9-.313-1.55-.015-2.393.406-1.479.766-1.406.719-1.13.765-.653 1.047-.957 1.047-1.174 1.14-2.074.422-1.754.531-3.61-.015-.957-.172-1.087-.11-4.524.22-.884.39-1.362.015-.537-.172-.493-.078-.565.032-.667" clip-path="url(#pf9a0ddd24c)" style="fill:none;stroke:#000"/><path d="m536.747 376.845-1.226.03-1.196-.051-2.726-.326-2.211-.175-4.047-.434-.547.007-.437.145-.329.217-.202.464-.141 1.653-.235 1.9-.25 2.03-.336 2.427-.258 1.798-.093.53-.157.71-.5 2.435-.296.986-.469.522-.281.174-.578.087-8.516-.058h-1.78l-.673.044-2.078.565-1.258.384-1.188.472-.546.297-1.04.652-2.296 1.066-2.383 1.232-1.242.558-1.039.37-.938.16-.624.108-1.094.34-1.477.595-2.062.667-2.485.754-3.593.855M482.592 401.513l.68-.282.648-.196M482.592 401.513l-1.352.654M284.345 389.161l.375-1.203.297-.522.374-.725.345-1 .609-1.174 1.609-2.77.828-2.174.797-3.102.125-2.132-.047-2.522-.156-2.074-.61-3.074-.484-1.362-1.297-2.958-1.03-1.61-.673-.652-1-.855-.422-.61-.234-.536-.36-.898-.625-.71-1.14-1.32-.297-.609-.063-.696.485-2.276.36-2.798-.204-1.073.274-.811M228.658 301.88l.969.175 1-.175 1.531-.464 2.094-.55 2.046-.682.547-.362 1.329-1.146.578-.798.703-.478 4.64-2.407 1.75-1.145 4.969-2.64 2.39-1.087 1.079-.638 2.36-1.29 1.796-.914 1.469-.956 2.045-1.107M348.717 363.772l-3.356-1.403M345.36 362.369l-.087.355.078.312.204.327.671.543.5.225.368.043.648-.123.975-.279M358.266 541.804l.173-1.104M358.44 540.7l.56.037M358.44 540.7l-.285-.019M359 540.737l.328-1.595M360.14 539.135l-.133 1.5-.093.137-.148.037-.555-.058-.211-.014M358.155 540.681l.251-1.8M357.36 539.026l-.063 1.08.062.297.156.152.383.11.257.016M352.763 299.294l-.027-2.146.38-3.307.164-2.373.055-1.363 2.122.022M375.173 291.04l-5.228-.236M369.945 290.804l.121-2.723M383.107 292.744l.205-5.414" clip-path="url(#pf9a0ddd24c)" style="fill:none;stroke:#000"/></g><g id="PatchCollection_1"><path d="m401.935 349 1.906.088-.4 7.723-7-.203.025-.59 4.844.058v-1.247l.407.029zM399.545 344.042l1.531.319-.118 1.315.962.164-.14.913-.922-.072-.37 1.75-1.068-.01zM398.904 366.282l2.319.01.281.117-2.093 5.77-.663-.3zM361.388 351.039l5.58.255-.244 4.587-5.58-.255zM349.28 361.048l4.172.233-.11 2.986-4.124-1.653zM362.527 315.993l4.79.28-.151 2.238-4.791-.28zM380.99 298.237l5.267.15-.073 2.21-5.267-.15zM380.701 309.21l5.052.07-.026 1.635-5.051-.069z" clip-path="url(#pf9a0ddd24c)" style="fill:green;fill-opacity:.8"/></g><path id="PatchCollection_2" d="m365.375 361.826 6.31.287-.245 4.645-6.31-.286z" clip-path="url(#pf9a0ddd24c)" style="fill:#90ee90;fill-opacity:.8"/><path id="PatchCollection_3" d="m380.606 362.823.433.02-.076 1.438-.434-.02z" clip-path="url(#pf9a0ddd24c)" style="fill:#a9a9a9;fill-opacity:.8"/></g></g><defs><clipPath id="pf9a0ddd24c"><path d="M90 96.892h558v533.416H90z"/></clipPath></defs></svg>