<svg xmlns="http://www.w3.org/2000/svg" width="960" height="960" viewBox="0 0 720 720"><defs><style>*{stroke-linejoin:round;stroke-linecap:butt}</style></defs><g id="figure_1"><path id="patch_1" d="M0 720h720V0H0z" style="fill:#fff"/><g id="axes_1"><path id="patch_2" d="M109.093 640.8h519.814V86.4H109.093z" style="fill:#fff"/><g id="LineCollection_1"><path d="m354.046 360.366.994-5.774M354.046 360.366l-3.113-.618M354.046 360.366l5.958 1.204M346.42 359.29l-.39 4.084M346.42 359.29l.05-.426M346.42 359.29l-4.272-.08M371.271 339.982l-6.251-1.216M371.271 339.982l4.63.261M371.271 339.982 370 345.813M373.966 328.693l-.94 3.563-.597 2.392-1.158 5.334M337.4 359.23l4.748-.02M346.03 363.374l-1.777-.139-1.007-.016-.614.1-1.09.514-.31.084-.226-.052-.255-.257-3.35-4.378M328.11 360.182l.47-.065 4.039-.586 2.395-.249 2.387-.052M338.18 345.243l4.78-.673M346.22 340.982l.653-2.745M346.22 340.982l-.696 3.174M346.22 340.982l1.337-.213M351.158 343.341l-3.736.603M360.004 361.57l-1.275 5.418M360.004 361.57l1.11-5.8M360.004 361.57l6.114 1.123M358.997 338.032l-1.107 5.251M358.997 338.032l-4.29-1.14M358.997 338.032l.679-.245M375.901 340.243l.7-5.23M376.079 346.03l.363-1.092.242-1.123.601-2.677.013-.36-.1-.238-.31-.165-.987-.132M358.729 366.988l5.815 1.412M358.729 366.988l-2.482-.606M359.676 337.787l5.344.98M359.676 337.787l.682-3.331M347.422 343.944l-.038 3.098M347.422 343.944l-1.898.212M354.708 336.892l.773-3.383M351.331 336.402l.596-.036.65.072 2.13.454M360.791 332.329l-.433 2.127M355.784 332.032l-.303 1.477M355.481 333.509l4.877.947M351.331 336.402l-2.287.281M351.331 336.402l.589-3.048" clip-path="url(#pdf3ad79ac2)" style="fill:none;stroke:#000"/><path d="m348.55 340.644 1-.184.475-.153.242-.136.182-.257.182-.602.7-2.91M365.02 338.766l-1.19 5.748M373.966 328.693l3.407.877M379.702 309.338l-1.202 3.984-1.254 4.102-2.448 8.112-.832 3.157M368.633 335.98l-2.067-.47-.77.154-5.438-1.208M377.373 329.57l1.465.258M377.373 329.57l-.738 5.25M345.52 336.972l1.615-.03M346.03 363.374l10.217 3.008M364.544 368.4l.421.093M364.544 368.4l-1.536 6.798-1.322 5.675-.536 2.311-.312 1.393-1.266 5.678-.965 4.389-.765 3.208-.371 1.3-.532 1.49-.371.931M364.544 368.4l.503-.99M368.608 351.336l2.628.24M368.608 351.336l-6.157-1.2M368.608 351.336l-.245 1.112M368.608 351.336l1.392-5.523M345.524 344.156l-2.563.414M372.067 362.998l1.328-5.87M372.067 362.998l-5.95-.305M379.504 357.287l-.757 5.406-.096.313-.152.28-.177.097-.28.033-5.975-.418M366.118 362.693l-1.071 4.716M366.118 362.693l1.212-5.753M347.135 336.942l.53-2.293.26-.61.293-.305.528-.145 3.174-.235M344.327 324.246l-.337 2.488-.112.578-.014.29.1.18.208.12.644.116 1.59.121 1.406.032 1.275.14 2.21.542.76.385.329.321.164.402-.009.658-.198 1.325-.423 1.41M349.308 368.384l2.062 2.6.242.169.22.016.282-.16.237-.245 1.963-2.195 1.933-2.187M370 345.813l-6.17-1.3M370 345.813l6.079.217M347.384 347.042l-4.432.577M346.794 353.31l.082-.531.508-5.737M356.411 349.225l-2.028-.361-.882-.137-.886-.224-2.088-.707-1.924-.554-.631-.124-.588-.076M347.185 353.339l-.39-.029M347.185 353.339l7.855 1.253M347.185 353.339l-.715 5.525M380.748 351.6l-1.244 5.687M380.748 351.6l-6.087-.008M376.079 346.03l5.262.185.276.096.147.185.013.31-.03.376-.999 4.419M367.33 356.94l-6.216-1.17M367.33 356.94l6.065.188M367.33 356.94l.452-1.962M342.96 344.57l-.008 3.05M357.89 343.283l-1.41 5.608M357.89 343.283l5.94 1.23M356.411 349.225l-1.37 5.367M356.411 349.225l.069-.334M342.148 359.21l.416-6.213M398.95 354.932l7.734.24 1.77.049M440.174 356.764l-1.311.006-2.183-.16-2.544-.185-2.302-.107-5.504-.326-3.72-.126-4.826-.445-9.33-.2M415.112 359.948l-.805.466-.665.064-2.015-.168-.528-.21-.345-.232-.278-.465-.267-.691-.243-1.252-.086-.73-.216-.458-.484-.521-.727-.53M398.95 354.932l-3.272-.07" clip-path="url(#pdf3ad79ac2)" style="fill:none;stroke:#000"/><path d="m395.466 361.104 2.395.14.414-.112.225-.24.22-.434.079-.526.151-5M395.466 361.104l.212-6.242M395.466 361.104l-2.977-.095M379.504 357.287l2.793-.068 1.004-.148.784-.204 1.462-.61 2.912-1.167.96-.191M392.53 354.844l-2.497-.021-.613.076M392.49 361.01l-2.394-.063-.35-.148-.295-.253-.13-.397.099-5.25M392.49 361.01l.04-6.166" clip-path="url(#pdf3ad79ac2)" style="fill:none;stroke:#000"/><path d="m391.618 365.31.358-.229.299-.213.199-.305.086-.457.078-.658.103-.33.26-.553.087-.393-.07-.305-.529-.858M395.678 354.862l-3.148-.018M353.899 410.444l.32-.517.55-1.01.735-1.491M355.504 407.426l.781-1.52.554-1.163.303-.65.236-.662.052-.33M356.186 402.588l-.008.638-.056.746-.13.979-.173 1.02-.315 1.455M357.822 401.862l-.232-.232-.31-.118-.303-.028-.36.07-.05.019M357.822 401.862l.09-1.172.025-.699.07-.506.086-.713.113-.595.527-2.123.735-3.387 1.785-8.004.346-1.472.977-4.216.753-3.387 1.636-7.095M357.53 403.037l.152-.116.136-.207.065-.259.018-.289-.079-.304M356.372 401.74l-.402-.364M356.372 401.74l-.13.262-.064.377.008.209M356.372 401.74l.196-.167M356.186 402.588l.144.29.23.18.28.104.3.014.29-.075M357.43 403.101l.1-.064M279.299 506.349l3.215-6.57 2.966-5.58.701-1.194.849-1.257 1.407-1.64 1.301-1.327 1.412-1.224 1.479-1.067 2.73-1.752 2.172-1.62 1.647-1.5 1.639-1.714M331.13 440.883l-2.557 3.245-3.454 4.442-4.654 5.968-1.958 2.592-3.086 3.927-3.943 5.12-2.78 3.597-3.56 4.46-2.545 3.341-1.776 2.33" clip-path="url(#pdf3ad79ac2)" style="fill:none;stroke:#000"/><path d="m283.632 495.616.307-.361.257-.482 2.576-4.581 1.02-1.38.588-.627.675-.577.986-.659 2.957-1.653 1.488-.93 1.573-1.156 1.487-1.172 1.695-1.557 1.576-.577M347.135 336.942l-.262 1.295M347.135 336.942l1.014-.174M363.83 344.514l-1.38 5.622M376.079 346.03l-1.418 5.562M342.952 347.62l-.388 5.377M342.564 352.997l-2.651-.068-.308-.064-.22-.116-.103-.262-.057-.312-.445-3.327-.005-.27.072-.236.149-.129.281-.087 3.675-.507M362.45 350.136l-1.336 5.633M362.45 350.136l-5.97-1.245M374.66 351.592l-1.265 5.536M374.66 351.592l-3.424-.016M342.564 352.997l4.23.313M355.04 354.592l6.074 1.177M373.395 357.128l6.11.16M603.517 319.173l-5.314-1.325-4.453-1.131-3.597-.758-3.281-.61M585.267 319.326l.761-2.104.844-1.874" clip-path="url(#pdf3ad79ac2)" style="fill:none;stroke:#000"/><path d="m618.21 353.437-1.455-3.357-.217-.568-2.041-3.519-2.22-3.492-.497-.888-.256-.64-.701-3.682-.612-2.036-6.55-15.037-.154-.556.01-.49M615.15 360.439l-.088-.313-.126-.418-11.18-15.17-.74-.67-.56-.385-.27-.385-.126-.887-16.793-22.885M570.562 356.727l1.054-1.04 1.788-4.913.925-2.817 1.332-3.5 4.453-11.647 3.459-8.74 1.694-4.744M615.15 360.439l.387-.486.352-.402 1.695-1.301.37-.403.46-.615.382-.971.115-.414-.052-.534-.446-1.408-.202-.468M529.05 347.974l.505.123 1.885.365 1.613.41 2.044.57 8.63 2.026 4.523.976 4.263.842 3.173.65 5.206 1.068 3.467.642 6.203 1.08M564.653 374.716l1.384-3.66 1.833-4.968 1.574-4.486 1.435-4.134-.317-.741M615.15 360.439l-.168.73M595.047 391.94l1.099-.338 1.19-.468.488-.235 1.19-.335 1.912-1.021.956-.72.812-1.356.505-.737 1.028-1.139 2.075-1.74.721-.989.758-2.176.342-.536 2.321-3.994 1.072-1.681.383-.285 1.148-2.367.255-1.018.87-6.09.81-3.546M548.976 410.602l-6.018-1.83-7.61-2.304-11.076-3.395-7.394-2.199-4.946-1.493-6.442-1.958-4.012-1.188-5.862-2.151-7.515-2.593-12.088-3.94-3.244-1.022-2.93-.816-11.276-2.97-4.864-1.136-.658-.224-.51-.414-.359-.694-.082-.815.173-.915.428-1.268.485-1.18 1.09-2.199 1.98-3.155 1.824-2.817 1.686-2.785.705-1.264.41-.915.256-.62M440.174 356.764l2.182.035 4.278.163 1.26.074 1.106.084.855.187.747.272.596.229.262.156 1.276.51 2.08.876 3.088 1.416 3.223 1.575" clip-path="url(#pdf3ad79ac2)" style="fill:none;stroke:#000"/><path d="m483.592 338.215-.411.174-.813.955-.752 1.204-1.86 3.524-.812 1.63-.441 1.291-1.004 3.821-.588 2.095-.321.928-.213.407-.58.963-1.628 2.056-1.229 1.454-.992.847-1.095.656-2.503 1.036-2.034.63-1.982.518-1.451.273-.741-.047-.567-.123-.448-.166M551.263 410.236l.497-1.2 1.272-3.423 1.123-3.05 2.733-7.17 2.015-5.17 1.484-3.922 1.413-3.783 1.331-3.563 1.522-4.239M595.047 391.94l-2.637.33-4.112.554-.96.14-.704.105-.432.116-.55.028-.562-.096-.41-.177-.498-.285-.982-.902-1.534-1.485-4.267-4.033-4.229-4.078-5.53-5.209-.864-.843-.482-.424-.63-.435-1.011-.53M541.472 435.6l-.65 1.624-.813 2.287-.545 1.557-.666 1.685-2.369 5.931-.956 2.708-3.137 8.186-2.698 7.004-2.079 5.602M557.413 510.84l-1.492-1.808-1.862-2.897-6.285-5.331-.104-.222-.094-.628.146-.309.188-.26.613-1.005.614-1.748.104-.782-.187-.947-4.526-10.381-1.155-4.123-.396-.58-.749-.772-.884-.541-1.395-.59-12.187-3.75-.188-.114-.354-.435-.051-.397.39-1.036M525.275 471.02l1.331.906.458.184.24-.01.255.084M488.291 324.395l.666-2.228.502-1.573.501-1.425.328-.658.468-.742 1.483-1.96M495.512 326.245l-1.038-.29-1.064-.32-2.86-.785-.703-.186-.83-.167-.726-.102" clip-path="url(#pdf3ad79ac2)" style="fill:none;stroke:#000"/><path d="m483.592 338.215.369-.7.681-1.679 1.047-3.146 1.547-4.712 1.055-3.583M550.54 412.223l.213-.658.216-.633.294-.696" clip-path="url(#pdf3ad79ac2)" style="fill:none;stroke:#000"/><path d="m548.976 410.602.804.164.471-.02.485-.128.527-.382" clip-path="url(#pdf3ad79ac2)" style="fill:none;stroke:#000"/><path d="m550.54 412.223-.12-.39-.095-.224-.246-.285-.35-.313-.753-.41M332.463 106.053l-2.143 2.422-.662 2.236-1.807 2.013-3.131 1.733-1.928 1.454M332.463 106.053l6.538-.409 2.395-.24.908-.049 1.098.056 1.362.114.395.014.411-.021.497-.119 1.671-.498 1.16-.204 3.73-.426 6.217-.618 7.886-.931 4.083-.408 8.481-.94 3.369-.379 2.957-.276 1.405-.125 2.386-.297 3.46-.321 7.306-.642 8.361-.932 7.186-.77 2.556-.33 1.37-.24" clip-path="url(#pdf3ad79ac2)" style="fill:none;stroke:#000"/><path d="m417.706 107.924.873-4.793 1.072-6.07M328.65 103.236l1.133.12.544.209.562.457.57.643.434.79.19.281.203.197.177.12M347.82 360.791l1.79.465.446.095.34-.016.198-.128.101-.44.238-1.02" clip-path="url(#pdf3ad79ac2)" style="fill:none;stroke:#000"/><path d="m346.47 358.864.727.12 3.736.764M375.75 334.251l.067-.128.01-.142-.05-.135-.1-.108-.137-.064-.153-.012-.147.043-.118.091-.071.127-.016.141.044.137M375.342 334.39l-.154-.068-.109-.12" clip-path="url(#pdf3ad79ac2)" style="fill:none;stroke:#000"/><path d="m374.556 334.286.246-.061.277-.024M375.342 334.39l.226-.013.182-.126M376.635 334.82l-.665-.47-.22-.099M375.342 334.39l-.048.488M376.635 334.82l-.034.193M375.11 334.854l.184.024M375.11 334.854l-.076.12-.146.037-.13-.071-.039-.135.077-.121.145-.035.13.07.039.135" clip-path="url(#pdf3ad79ac2)" style="fill:none;stroke:#000"/><path d="m375.11 334.854-.039-.135-.13-.07-.145.035-.077.121.04.135.13.07.145-.035.076-.121M375.294 334.878l-.05.505M375.294 334.878l.207.031M375.883 334.94l-.015-.118-.093-.084-.129-.01-.107.066-.038.115" clip-path="url(#pdf3ad79ac2)" style="fill:none;stroke:#000"/><path d="m375.883 334.94-.054.09-.097.048-.11-.01-.086-.063-.035-.096M375.883 334.94l.718.073M349.044 336.683l-.895.085M348.573 338.53l.415-1.67.056-.177M347.896 338.05l.245-1.168.008-.114M347.47 338.306l.087-.152.156-.093.183-.011M348.182 338.482l.001-.188-.105-.16-.182-.084M346.873 338.237l.598.069" clip-path="url(#pdf3ad79ac2)" style="fill:none;stroke:#000"/><path d="m347.751 338.72-.172-.082-.103-.153-.005-.18M348.182 338.482l.391.048M347.751 338.72l.182-.006.156-.087.093-.145M348.55 340.644l-.216-.915.24-1.199M347.557 340.769l-.07-.943.264-1.106M348.55 340.644l-.993.125M369.102 352.543l-.739-.095M369.102 352.543l.412.057M369.943 353.276l-.214.044-.218-.027-.195-.094-.135-.131-.086-.165-.027-.18.034-.18M370.238 352.42l-.147-.152-.194-.095-.195-.029-.194.028-.175.082-.14.128-.091.16" clip-path="url(#pdf3ad79ac2)" style="fill:none;stroke:#000"/><path d="m369.933 352.725.01-.07-.015-.07-.042-.06-.06-.043-.073-.022-.076.003-.07.026-.057.048-.036.063M369.933 352.725l-.031.057-.049.045-.06.03-.069.01-.068-.01-.061-.03-.05-.044-.03-.057-.012-.063.011-.063M369.933 352.725l.394.046M370.238 352.42l.083.188.006.163M369.943 353.276l.185-.109.134-.161.067-.194-.002-.04" clip-path="url(#pdf3ad79ac2)" style="fill:none;stroke:#000"/><path d="m367.782 354.978 1.841.359.4-1.61-.08-.451M371.236 351.576l-.06.6-.1.175-.283.031-.555.037M368.363 352.448l-.581 2.53M255.473 341.257l12.68-2.6M264.614 367.585l-1.15-3.142-.424-.847-.398-.586-1.175-1.3-2.374-2.15-3.048-2.898-1.505-1.61-.553-.842-.195-.514-.112-.49.056-.642.411-1.59.839-3.25.25-1.718.309-2.379-.072-2.37M243.8 327.363l4.137 2.445.818.586.779.78.757.994 1.494 2.234 1.23 1.94 1.037 1.766.856 1.758.565 1.39" clip-path="url(#pdf3ad79ac2)" style="fill:none;stroke:#000"/><path d="m294.085 365.503-2.531.61-5.188 1.196-2.23.473-1.134.128-1.14-.047-1.938-.225-6.33-.924-3.052-.168-1.72.152-4.208.887" clip-path="url(#pdf3ad79ac2)" style="fill:none;stroke:#000"/><path d="m280.536 387.893-.327-.074-.808.02-2.273.36-2.985.509-1.084.014-.813-.14-.588-.377-.376-.447-.542-1.621-2.108-6.415-2.163-6.715-1.855-5.422" clip-path="url(#pdf3ad79ac2)" style="fill:none;stroke:#000"/><path d="m145.048 432.729 6.744-4.96 10.307-8.026 9.66-7.248.933-.633 1.349-.867 1.799-1.075 2.11-1.229 1.928-1.147 2.81-1.637 7.186-4.206 2.282-1.445 2.421-1.573 1.211-.786.779-.386 1.573-.61 1.626-.626 1.954-.803 1.833-.802 3.666-1.782 3.113-1.59 8.233-4.14 7.522-3.773 3.935-1.918 4.7-2.408 2.334-1.196 1.622-.706 1.167-.45.994-.32 1.22-.462 1.474-.767 1.3-.521 2.837-.9.71-.369 1.366-.93.692-.45.588-.29 1.349-.32 4.314-1.172 3.45-1.056 1.462-.457 1.595-.61 1.418-.498M454.697 113.81v-.595l-.056-.526-.134-.445-.302-.45-.463-.462-1.068-.541-2.949-1.024-1.292-.494-2.901-1.192-2.158-.775-1.573-.421-.986-.149-.718-.068-.774.012-4.436.145-7.315.24-2.439.17-5.832.585-1.595.104M413.887 129.475l2.417-14.413 1.402-7.138M550.54 412.223l-.717 1.777M145.048 432.729l-2.543-2.905-1.625-1.702-15.028-15.56-3.892-5.287-.864-1.714-.196-.06-1.18.273-.63-.044M265.412 490.1l-1.503-.695-1.919-1.075-6.461-3.566-1.199-.7-2.734-1.416-1.989-.882-3.25-1.43-2.768-1.284-1.54-.818-2.075-1.316-3.06-2.039-4.168-2.792-6.624-4.141-1.625-.932-1.782-.706-1.037-.53-2.335-1.348-2.266-.995-1.072-.53-1.868-1.155-.9-.482-1.279-.514-1.989-.593-3.009-.626-3.683-.723-1.211-.385-5.828-1.782-1.09-.256-.709.032-.726.208-.346.37-.45.481-2.196 3.563-2.144 3.532-.38.626-.485.32-.606.29-.553.128-.57.048-.83-.209-.693-.4-2.68-1.381-2.698-1.606-1.746-.978-3.32-2.087-2.785-1.798-5.188-3.788-4.064-2.937-1.8-1.188-1.002-.786-.813-.61-.743-.498-.658-.626-2.992-3.37-3.164-3.821-5.76-7.175M277.022 493.496l-.505-.239-1.314-.61-2.439-.899-1.764-.561-3.372-.706-1.333-.194-.883-.187M264.75 498.064l-1.85-1.929-.23-.666.115-.72 2.627-4.649M283.632 495.616l-.91 1.46M283.632 495.616l-1.21.434M282.423 496.05l-5.4-2.554M282.423 496.05l.3 1.026M279.299 506.349l.089-1.418.182-.758.395-1.261 2.757-5.836M248.998 564.623l1.465-2.757 3.304-6.297 2.944-5.573.882-1.873 1.156-2.642 1.323-3.437.684-1.516.537-1.051.981-1.537 2.993-5.093 2.167-3.824 1.563-2.811 3.206-6.297 3.695-7.162 3.4-6.404M194.092 620.372l-.085-.693.156-.53 1.124-2.36.536-1.026.173-.53.19-.642.588-1.203 2.231-4.799.622-1.46.208-.69.104-.835.103-3.081-.449-4.814-.225-.707-.45-.754-.916-1.108-.294-.449-1.02-1.685-.52-.481-.933-.466-2.854-1.171-9.13-3.708-6.02-2.84" clip-path="url(#pdf3ad79ac2)" style="fill:none;stroke:#000"/><path d="m191.154 611.703-1.021 1.91-1.453 3.209-.103.482.172.433.26.193.38.224 4.703 2.218M215.131 630.138l-11.872-5.372-7.332-3.434-1.194-.658-.641-.302M223.3 614.141l-2.575 5.055-5.594 10.942M223.3 614.141l2.494 1.04 4.526 2.005 3.238 1.382 1.04.299.458.076.694.025 1.68-.185 1.867-.4 1.87-.738 1.657-.69 1.544-.317 1.449-.152M248.998 564.623l-2.887 5.435-4.75 8.917-5.951 11.439-3.235 6.49-5.397 10.43-2.923 5.716-.556 1.091M245.219 568.346l-.183-.163-.132-.202-.034-.154.063-.265.516-1.405.327-.826.086-.125.145-.086.273-.059.413.019.313.075M245.219 568.346l.026-.045.912-1.445.709-1.39.14-.31M248.998 564.623l-.648-.208-.702-.038-.233.07-.14.136-.124.25-.145.322M242.67 572.772l1.017-1.744.695-1.256.837-1.426M264.75 498.064l1.167-1.197 1.371-.548 2.833-1.003 3.024-.847 3.151-.738.726-.235M264.75 498.064l-.645.682M333.3 437.874l-1.209 1.749-.644.859-.317.401M381.475 498.314l-.47.06-.453-.008-1.08-.21-1.163-.43-3.405-1.635-7.774-3.598-1.461-.818-1.735-.97-1.689-1.39-1.661-1.997-.881-1.998-.809-2.106-.526-1.712-.273-1.415-.29-1.888-.336-1.315-.409-.851-.581-.75-1.072-1.054-1.361-1.163-.763-.69-.473-.768-.427-.8-1.806-4.383-1.862-4.13-2.252-4.349-1.149-2.23-.73-.749-1.072-.822-2.506-1.315-3.379-1.61-1.489-1.12-1.035-1.172-1.603-3.123-.64-1.52-1.73-3.402M447.993 527.785l4.465.606 5.166.597 5.373.736 6.683.84 6.016.726 3.061.37 3.536.383 4.929.62 3.642.563 2.498.313 4.348.59.937.105.481-.11.65-.319 1.386-.893 1.057-.492.686-.116.806-.023M381.475 498.314l.058-.031 1.48-1.062.527-.308.367-.093.609-.004.799.1.908.262 4.645 2.208 6.865 3.523 4.64 2.705 2.497 1.475 3.796 1.761 4.476 1.897 2.498.969 1.975.506 2.266.691 3.173 1.384 4.735 2.273 3.998 1.808 4.06 1.53 5.348 1.925 1.94.717 1.317.605.66.368.43.407.45.64 2 3.215M339.926 428.001l6.404 3.596 7.16 3.85 8.245 4.465 10.332 5.438 4.204 2.273 2.399 1.2 1.45.498 2.636.639 4.422.98 2.543.579 2.855.957 1.63.806M333.3 437.874l.406-.588 2.89-4.461 1.894-2.769 1.436-2.055" clip-path="url(#pdf3ad79ac2)" style="fill:none;stroke:#000"/><path d="m346.427 419.983-3.535 4.391-2.102 2.464-.864 1.163M375.36 499.617l3.054.406 1.287.282.918.295.656.13.34-.049.185-.119.165-.18.05-.225-.012-.238-.319-.87-.21-.735M353.452 404.723l1.323-1.918 1.195-1.43" clip-path="url(#pdf3ad79ac2)" style="fill:none;stroke:#000"/><path d="m280.536 387.893.512.115 1.31.538 5.394 2.342 3.614 1.691 1.4.782.934.81.632 1.3.948 2.656.738.922.994.475 1.154.214 1.18.06 34.086.88 21.833.564.443.042.262.092M394.993 237.684l-.254 1.025-1.124 3.516-1.115 5.106-1.133 5.908-.459 2.288M379.702 309.338l.181-.6.813-3.307 1.09-4.72 1.816-8.693 1.487-6.943.951-4.752 2.041-10.034 1.392-7.594 1.435-7.168M493.445 218.367l-.363.337-.649.442-.406.128-.26.129-.164.233-.147.433v.33l.087.312-.018.217-.086.2-.182.105-.467.12-.242.121-.12.2-.399 1.47-.337.698-.674 1.718-.502 1.277-.415 1.155-.58 1.935-.44 1.606-.459 1.677-.64 2.417-.38 1.725-.19.916-.277 1.051-.216 1.204-.528 2.256-.458 1.95-.346 1.69-.376 1.47-.303 1.216-.125 1.007.013.79.194 1.695.018.586-.056.477-.125.385-.38.675-.801 1.068-.35.364-.489.254-1.349.42-.813.141h-.708l-1.224-.228-1.557-.695-.709-.273-.804-.2-.05-.01-.554-.097-.823-.146-1.556-.353-2.516-.538-.943-.048-.821.128-1.072.281-1.185.233-3.031.108-.981.004-.887-.108-.73-.213-2.006-.935-.588-.253-.58-.08-.6.08-.904.277-2.327.855-1.331.393-.83.12-1.081.057-4.272.072-5.343-.072-6.71-.048-5.82.024-6.356.008-5.983.088-4.93.056-4.79.016-4.816.08-5.016.009-3.303-.032M377.341 261.772l1.133-.706.39-.482.83-1.397.198-.53.138-.642.056-.622.122-.301.16-.18.28-.137 1.808-.341 1.738-.354 2.633-.517 1.596-.25.8-.023.6.016.558.084.527.137M411.018 146.392l2.044-12.006.825-4.911M390.407 132.066l4.098-.225 2.275-.224 1.098-.105.994-.176.632-.274.812-.273.735-.063 1.583.08 1.496.056 1.331-.105 2.81-.24 2.422-.386.934-.233.674-.192.415-.105 1.17-.126M406.8 170.67l-7.15-.116-9.46-.242-5.412-.096-6.018-.08h-7.887l-8.906-.08-10.524-.274-6.398-.216-3.243-.105-4.375.033-5.016-.096-7.938-.305-4.384-.193-2.836-.113-1.107-.096-.502-.105-.76-.072-.917-.024-2.56.073-1.807-.04-.553-.121-.372-.305-.32-.41-.13-.401-.069-.426.026-.505-.034-.891-.07-.522-.215-1.052-.425-1.397-.163-.827-.122-.866-.043-1.534.018-.843-.061-.739-.217-1.42M406.8 170.67l.59-3.7M403.435 189.531l.435-2.28 2.56-14.257.37-2.323M403.435 189.531l-1.675 8.767-3.648 20.278-1.557 9.023-.71 5.54-.518 3.194-.334 1.351" clip-path="url(#pdf3ad79ac2)" style="fill:none;stroke:#000"/><path d="m354.141 238.79 1.133-.594.173-.17.156-.256.181-.16.363-.129 1.177-.096h5.144l5.552-.097 3.856-.016 4.99-.064 4.703-.016 3.848.072 5.146.241 2.205.168.942.009 1.283.002M379.702 309.338l-1.055-.07-.779.048-.994.137-.579.024-3.217.032-1.824-.104-1.99-.089-1.59.016-3.234.209-1.53.024h-3.053l-1.237-.024-2.144.088-2.404.057-4.116-.033-3.951-.008-3.01-.04-1.781.032-3.883-.024-1.798-.008-2.162-.056-3.692-.088-5.776-.145-5.854-.032-4.548-.064-5.267-.016-3.277-.064-3.935.023-1.262.025-1.4.096-1.523.144h-1.159l-2.11-.08-1.374-.136-.934-.032-.882-.033-.458.049-.39.032-.466-.072-1.764-.474-1.54-.329-1.28-.193-1.72-.265-.518-.28-.278-.233-.138-.434-.026-.538.182-2.207.13-3.58.077-2.336.022-2.227-.082-.92-.216-.77M328.693 371.707l.605-.482.182-.393.052-.53-.26-1.54-.406-2.61-.13-1.484-.156-.947-.47-3.539M294.085 365.503l.201-.049 2.257-.497 6.9-1.38 3.78-.539 5.923-.778 4.272-.642 5.23-.683 5.462-.753M373.157 410.629l-7.297-1.72M346.427 419.983l.632.803.536.29.684.128 1.029-.04 5.153-.73 5.05-.602 4.401-.506 2.188-.281.484-.12.277-.193.155-.297.857-1.758.363-.795.156-.641.241-1.613.122-.74.172-.4.277-.29.45-.272 3.503-1.297" clip-path="url(#pdf3ad79ac2)" style="fill:none;stroke:#000"/><path d="m375.175 413.779.347-1.814-.208-.594-.502-.289-1.435-.402-.22-.051M353.899 410.444l-.302.487-2.128 2.728-4.15 5.217-.892 1.107M407.39 166.97l2.94.163 3.856.04 5.872.033M411.018 146.392l-.031.181-3.563 20.175-.035.221M411.018 146.392l-.351.294-.303.248-.467.386-.536.305-.493.152-.623.025-1.21-.12-1.107-.057-.76.024-1.02.128-1.117.13-2.827.167-2.482.081-.519.136-.302.257-.199.37-.06.537.19 1.197.294 1.87v.313l-.104.185-.26.096-.683.04-3.234.25M411.018 146.392l2.277-.293 2.677-.248 3.333-.37 2.897-.257 2.957-.304 4.592-.458 2.776-.2 2.758-.242 4.79-.666 3.191-.33 3.666-.272 1.574-.2 4.28-.563 5.318-.634 6.4-.715 2.922-.345.847-.072 1.41-.104 1.055-.129 2.568-.345 1.141-.129 1.617-.104h1.704l1.193.088.96.072 1.072-.016.752-.104 1.047-.28 2.058-.218 1.002-.064.857.056 1.4.265 2.007.45.44-.008.347-.185.277-.442.103-.513.12-1.076.157-.891.398-1.606.302-1.204.294-1.044.121-.618-.009-.61.01-1.895.129-.61.277-.65.354-.514.735-.771.216-.361.07-.37-.01-.73-.354-.947M403.435 189.531l4.041-.024 5.015.065 5.336.096 6.943.024 5.18.064 4.842-.04 2.663-.008 2.257.073 3.701.136 3.277.129 3.598.12 4.072.104 4.635.056 4.79.145 4.644-.12 5.041-.17 3.165-.128.657-.08.964-.27.424-.06.333-.003.255.024.497.157.424.032 1.21.032 2.612.024 2.517-.048h.63l.476.072.597.209 3.216 1.044M549.823 414l.104 1.345.104.441.134.29.294.172.36.032.496.084.515.165.96.45 2.014 1.375.415.434.312.466.216.578.19 1.107M541.472 435.6l.327-.816.57-1.582.684-1.902 2.56-6.577 1.391-3.592 2.041-5.208.778-1.923M541.472 435.6l.145.572.165.209.302.136 2.43.859 2.517.826 4.055 1.453 3.407 1.148 4.418 1.468 3.624 1.341 3.718 1.284 3.7 1.236 2.681.77 1.583.562.821.176 1.08.137M529.05 347.974l-1.077-.262-2.136-.51-4.056-.963-6.46-1.653-7.799-1.927-6.46-1.42-7.453-1.638-5.404-1.228-1.172-.265-1.02-.152-.96-.06-.887.076-.574.243M440.174 356.764l1.908-3.269 1.608-2.632 1.548-2.409 1.427-2.231.898-1.501.355-.329.433-.184.821-.218h.528l.328.08 1.055.298M290.854 372.895l-.035-.779.065-.204.182-.129.32-.096 2.265-.257.402-.153.299-.34.107-.286.005-.349-.199-2.64-.18-2.16M275.254 395.44l1.782-2.52 2.04-2.777 1.46-2.25M205.577 341.207l1.729-1.133.467-.168.622.024.745.265.847.45.778.176h.813l2.482-.313 2.922-.77 2.741-.74 1.67-.328 1.15-.096 1.236.128 1.971.434 1.617.602 1.54.706 1.738.803 1.547.533.658.157.674.072.536-.153.545-.457.83-1.252 1.608-2.376.943-1.565 1.59-2.272 2.578-3.836 1.646-2.735M364.965 368.493l.082-1.084M357.53 403.037l.081.243.067.263.134.475.143.613.168 1.448-.008.526-.13.393-.45.919-.22.361-.26.22-1.145.659-2.011 1.287M324.413 434.888l3.355 1.316 2.188.923.692.225.682.08.476.056.264.072.315.097.914.217M529.05 347.974l.176-1.333.13-.563.38-.907 1.125-2.158.484-.932.432-1.035.519-1.244.329-.562 1.219-1.822.674-1.252.519-.971.234-.586.32-.924.198-.465.528-.77M365.86 408.91l-.387-.091-4.897-1.249M385.898 410.312l-18.747-2.44-.467.032-.277.192-.26.37-.287.444M385.898 410.312l.387.2.332.192.216.01.194-.053.091-.148.024-.17-.035-.18-.194-.084h-.205l-.263.053-.262.095-.285.085" clip-path="url(#pdf3ad79ac2)" style="fill:none;stroke:#000"/><path d="m385.898 410.312.285-.085.262-.095.263-.053h.205l.194.084.035.18-.024.17-.09.148-.195.054-.216-.011-.332-.191-.387-.201" clip-path="url(#pdf3ad79ac2)" style="fill:none;stroke:#000"/></g><g id="PatchCollection_1"><path d="m391.14 435.3-.916 2.64-2.232.312-1.284 2.072-1.865.624-.642-.114-1.65-1.93-.949-3.32 2.935-.538 6.42-.057zM365.992 382.421l.275.738-.49.866-.473.539-.887.312-.78-.51-.213-1.86.488-.468.505-.17.505.256.23.255zM370.025 324.983l-.444 1.56-.076.299-.596-.085-.076-.185-.169-.07.276-1.108.107-.127.122-.298.32-.17.306.014zM360.007 314.993l-.58 1.136-.52 1.56-.398.313-.795-.17-.58-.54.122-.482.703-.738.245-.766 1.192-.596.336-.029zM386.524 443.53l-4.739-2.81-.61-.113-.154.284.03 1.05-.488.993.183.312-.03.37 1.467.51.428.652.398-.142.275.2.489-.455.55-.142.428.227.887-.198.427-.34zM369.943 311.19l.03.796-.611.85-.642.17-.459-.566-.06-.937.641-.54.49-.17zM478.454 358.713l.108.52v.334l-.144.285-.452-.034h-.252l-.216-.184.36-1.038.199-.15h.234zM477.498 361.308l-.145.436.072.87-.018.386-.468.62-.344.317-.054.218-.486-.017-.506.05-.378-.536-.758-.536-.018-.568 2.544-1.307.36.017.217-.15zM338.552 113.791l-.254.183-.208.257.06.402.286.313.242.088.718-.345.173-.458.017-.321-.146-.28-.344-.332zM369.605 352.778l.048.03.057.015.058-.002.055-.019.045-.034.032-.045.015-.053-.004-.054-.02-.05-.042-.045-.054-.028-.062-.01-.062.008-.055.029-.041.043-.023.054-.003.059.019.055zM367.078 383.311l-.944 2.117 1.572.754.918-2.214zM361.198 420.75l-.166.194.407 2 .136.139.255.14 3.177-.35.18-.153.091-.28-.391-2.166-.18-.098z" clip-path="url(#pdf3ad79ac2)" style="fill:#00f;fill-opacity:.8"/></g><path id="PatchCollection_2" d="m600.634 291.328 13.373 7.635-5.578 4.78-5.578-4.25-3.433-2.456-2.86-3.12z" clip-path="url(#pdf3ad79ac2)" style="fill:#006400;fill-opacity:.8"/><g id="PatchCollection_3"><path d="m350.53 336.329.129.081.076.136-.018.174-.648 2.732-.105.174-.251.152-2.799.417-.221-.011-.147-.07-.075-.169.006-.2.636-2.69.117-.195.192-.167.223-.082zM376.19 333.694l-1.502-.087-.333 1.713 1.612.115zM374.252 351.858l-.99 4.935-.273.14-4.864-.146-.16-.231 1.036-4.907z" clip-path="url(#pdf3ad79ac2)" style="fill:green;fill-opacity:.8"/></g><g id="PatchCollection_4"><path d="m352.782 338.452-1.227 5.85 4.998.828 1.28-5.682zM350.145 337.8l-.398 1.665-1.175-.242.4-1.665zM352.28 357.258l-.228 1.065-.562-.104.227-1.065zM354.013 356.498l-.481 2.127-1.231-.24.48-2.127zM354.046 356.264l-1.235-.236.34-1.538 1.236.236zM352.006 354.395l-1.02 4.558-4.103-.791 1.02-4.557zM364.343 411.577l-1.265 3.633 2.65 1.006 1.204-3.745z" clip-path="url(#pdf3ad79ac2)" style="fill:#90ee90;fill-opacity:.8"/></g><path id="PatchCollection_5" d="m347.802 353.285-1.09 4.951 6.9 1.374 1.09-5.099z" clip-path="url(#pdf3ad79ac2)" style="fill:#006400;fill-opacity:.8"/><g id="PatchCollection_6"><path d="m371.818 355.397-.209.724-1.484-.37.053-.183-.243-.06.096-.33.242.06.06-.21zM370.584 352.746l.111.067.028.12-.072.104-.13.026-.112-.067-.028-.12.073-.104zM373.264 356.146l-.694-.12.1-.49.692.121zM372.536 356.802l-1.438-.122.046-.461 1.437.122zM49.818 244.52l-.285-.224.758-.83.285.225zM46.177 253.094l-.363-.272.381-.438.363.273zM45.26 252.211l-.466-.305.263-.348.467.305zM45.468 250.477l-.899-.481.247-.398.9.482zM52.801 248.021l-.968-.658.363-.46.968.658zM46.54 243.204l-.241-.224.224-.21.242.226zM47.128 243.654l-.274-.195.225-.273.274.195zM48.633 243.365l-.485-.417 1.296-1.3.486.417zM321.146 115.962l.048-.666.716.045-.029.401-.347-.02-.018.263zM454.347 113.83l-.32-.007.005-.181.32.007zM455.71 115.788l-.155.007-.013-.236.154-.007zM455.117 115.511v-.197h.385v.197zM455.424 114.468l-.882.032-.015-.352.882-.032zM455.234 115.254l-1.488-.016.007-.547 1.488.017zM454.94 113.97v-1.028h.484v1.028zM453.976 113.929l-1.207.03-.022-.771 1.206-.03zM355.623 356.157l-.525 2.166 2.281.389.498-2.141zM363.591 386.401l-.34.754 1.703.511.315-.633zM358.523 407.417l-.406.867 1.167.385.372-.835zM359.813 417.744l.195.909 2.048-.21-.12-.95zM121.123 409.783l.853-.56 2.712 3.564-.851.548zM124.78 404.637l.328.377 1.245-1.082-.341-.341-1.127 1.01zM202.631 341.815l-.367.657.682.316-.079.11 1.533.779.472-.864-2.189-1.083zM201.95 343.506l-.826 1.46 1.507.657.288-.572-.982-.45.183-.28.695.353.34-.572zM205.003 344.017l-.249.475.787.437.328-.522zM209.748 342.8l-.367.828 1.376.56.394-.791zM207.756 344.528l-.367.743 1.796.9.432-.79zM205.987 344.486l-.25.474.787.438.327-.523zM258.91 342.788l-.083-.661 1.12-.12.082.66zM-1.367 432.466l1.057-.08.035.386-1.057.08z" clip-path="url(#pdf3ad79ac2)" style="fill:#a9a9a9;fill-opacity:.8"/></g></g></g><defs><clipPath id="pdf3ad79ac2"><path d="M109.093 86.4h519.815v554.4H109.093z"/></clipPath></defs></svg>