<svg xmlns="http://www.w3.org/2000/svg" width="960" height="960" viewBox="0 0 720 720"><defs><style>*{stroke-linejoin:round;stroke-linecap:butt}</style></defs><g id="figure_1"><path id="patch_1" d="M0 720h720V0H0z" style="fill:#fff"/><g id="axes_1"><path id="patch_2" d="M90 619.106h558V108.094H90z" style="fill:#fff"/><g id="LineCollection_1"><path d="m353.027 601.524-3.007 4.674M393.91 553.178l-2.867 5.65-2.884 4.243-2.194 2.068-3.312 2.39-3.231 2.124-2.46 1.997-2.643 2.991-10.18 16.865-1.887 2.878-2.484 2.347-5.215 3.48-1.526 1.313" clip-path="url(#pc48614b1a3)" style="fill:none;stroke:#000"/><path d="m358.549 599.218-.79.196-.76.321-1.35.867-1.341.726-.607.182-.674.014" clip-path="url(#pc48614b1a3)" style="fill:none;stroke:#000"/><path d="m344.304 599.689 1.966.843 1.749.293 3.573.475 1.435.224M403.508 369.858l-1.389-.212M403.508 369.858l1.938-2.097M393.674 394.128l-.023-.873.23-2.422.69-2.6.414-1.48.468-1.392.981-2.285 1.327-2.39 2.86-5.396 2.887-5.432M407.6 365.305l-3.22-1.955M407.6 365.305l-2.154 2.456M410.676 360.196l-.123.322-.445.88-2.509 3.907M410.354 350.412l.26 2.39M408.215 345.799l1.173 2.042.506 1.285.46 1.286M415.569 345.556l-.484.789-.97 1.136-1.583 1.548-.92.67-1.258.713M388.804 321.507l-1.271-.796M396.947 331.167l-1.672-2.129-1.878-2.429-2.098-2.503-2.495-2.6M385.636 326.798l2.155-3.306 1.013-1.985M366.182 287.527l1.142 5.82.251 1.532M378.136 318.355l-1.68-.503-.91-.414-.693-.55-.667-.678-1.426-1.929-2.853-4.375-1.286-1.684-.945-1.408-.7-1.18-.567-1.179-.29-.951-.183-1.367.155-1.617.49-1.676.687-1.966.307-1.999" clip-path="url(#pc48614b1a3)" style="fill:none;stroke:#000"/><path d="m375.076 294.243-1.657.406-.445.084-.43-.14-.452-.497-.406-.293-.905-.084-.874.266-2.332.894M361.347 268.013l-1.216-.465M362.2 270.512l-.184-.867-.142-.636-.527-.996M354.372 252.664l.94.314 2.807-.629.353.05.276.188.72 1.775 1.235 3.998 2.056 5.844.45 1.656-.003.371-.09.42-.161.26-.296.347-1.312.755" clip-path="url(#pc48614b1a3)" style="fill:none;stroke:#000"/><path d="m355.398 257.086-.496-1.865-.239-1.224-.29-1.333M345.817 260.212l-1.012-2.851-.069-.447.193-.79 8.838-2.551.605-.909M355.93 249.187l-.373.948-.374 1.145-.334.755-.477.63" clip-path="url(#pc48614b1a3)" style="fill:none;stroke:#000"/><path d="m353.004 246.404.728 3.471.64 2.79M298.424 194.3l-.837-.644-.714-.708-4.052-4.384-3.305-3.722-.673-1.014-.368-.895-.445-1.02-.246-1.036-.183-1.3-.077-.642-.348-.78-.45-.786-.694-.787-.778-.61-1.334-.714-2.685-1.496-2.484-1.496-2.206-1.59-.908-.927-.66-.783-1.395-1.845-2.82-3.377-6.141-7.483-1.377-1.569-1.58-1.552-3.666-2.936M243.876 135.868l3.477 3.613 3.559 3.677 3.466 3.482 3.62 3.564" clip-path="url(#pc48614b1a3)" style="fill:none;stroke:#000"/><path d="m212.827 183.884.43-.364.762-.653 1.12-.57.867-.07.567.147.978.531 1.02.112.997-.098 1.25.05 1.38.188.683-.028.468-.175 5-3.055 1.687-1.16 1.963-1.817 1.626-1.343.676-.95 1.073-2.545 1.135-5.788.736-1.593.89-1.426 1.35-1.063 7.3-4.753 10.4-6.641.813-.616M499.86 219.883l-1.948-.099-4.583.019-2.25.4-3.567.933-1.41.214-9.048-.135-1.362.226-1.352.612-1.808 1.328-.95.52-1.104.08-1.051-.354-.912-.818-3.516-5.6-2.554-4.597-.623-.74-.556-.263-.772-.149-.823.127-.77.353-1.135.825-1.637 1.382-1.081.924-.605.849-.462 1.31-.393 1.552-.218 1.365.037.928.468 1.21.806 1.879 1.034 1.74.255.856-.056.696-.704 1.017-2.66 3.42-3.08 4.12-1.06.834-1.183.761-1.112.48-.92.255-.82.118-1.12-.167-2.823-.854-8.19-1.593-10.063-1.817-9.417-.895-2.945.126-2.531.181-3.559.727-6.48 1.609-3.06.572-2.024.126-3.283-.14-7.991-.321-1.595.097-2.397.431-3.527.79-6.386 1.36-4.026.62-1.595.63-.69.447-1.577 1.595-1.143 1.281-1.224 1.16-.78.382-.967.363-1.246.188-.732 1.045M342.811 235.73l3.383 1.375 4.007 1.765.396.29.28.247.446.494.387.596.243.542 1.05 5.365M414.86 354.282l.379-1.738.652-4.633-.062-.7-.26-1.655M431.352 337.26l-3.145-3.676-1.009-1.008-.606-.406-.63-.238-1.738-.38-1.374-.225-2.585-.245-1.414-.126-.813.322-.675.614-.43.84-.49 2.094-.2 1.204-.874 4.766-.183 1.398.23 1.062.214 1.51-.061.79M372.215 346.82l-7.163-1.707M366.578 349.287l.782-.454 2.63-.909 1.327-.517.898-.587M374.822 343.815l-.598.88-1.219 1.357-.79.768M366.578 349.287l9.622 2.1M364.216 357.01l.452-2.32.736-3.718.415-.888.759-.797M309.098 387.724l1.35.167 6.288.88.698.301.828.454 2.57 1.915 1.572 1.167M337.228 390.246l-3.42.37-1.22.294-1.395.72-2.037.868-.786.229-1.694.286-1.688.189-.774-.007-.867-.21-.943-.377M317.407 395.845l.456-.253 1.197-.503.568-.405.145-.42.161-.377.292-.266 1.388-.502.79-.51M211.919 503.352l-.255.543-.186.857-.196.894M170.83 507.918l1.864 1.425 2.569 1.6 2.907 1.614 1.472.51 1.273.335 1.726.224 1.779.028 3.977-.225 11.165-.635 1.462-.21 1.572-.635 6.776-3.27.784-.829.695-1.35.43-.854M213.563 526.615l-.46-3.787-1.528-10.397-.232-1.952-.108-2.065.047-2.768M602.986 157.911l-1.069-.238-1.695-.451-3.36-1.374-4.197-1.31-5.109-1.565-5.197-.806-4.656-.467-2.363-.542" clip-path="url(#pc48614b1a3)" style="fill:none;stroke:#000"/><path d="m564.554 168.937.702-1.865 1.288-2.838 2.633-4.755 1.7-5.237.66-1.15 1.326-.868 2.477-1.066M497.621 117.922l1.35.49 2.354 1.209 2.017 1.195 5.43 3.342 1.948 1.18.782.532.974.902 3.03 2.027 1.419.7 1.602.398 1.88.083 1.357-.39 1.05-1.126.737-.434.881-.272 2.9-.504.912-.07.92.224 2.24.7 2.147.425 2.11.078 1.356.147 3.402.625 1.13.427.814.75 1.687 1.574 1.473 1.67 2.3 1.84 1.55.677 8.313 3.188 4.532 1.783 3.544 1.817 3.642 2.195 2.531 1.657 2.27 2.216 1.135 1.981M403.39 348.88l-4.719 3.133M403.39 348.88l4.825-3.081M403.39 348.88l-3.78-4.846M402.729 362.348l1.65 1.002M402.729 362.348l-4.378 4.944M396.995 358.143l.321.3 1.165.984 4.248 2.92M379.817 344.748l-.118-7.976M379.817 344.748l-3.896-.8M379.817 344.748l4.175 1.205M380.013 352.242l.001-.908-.02-1.22-.177-5.366M365.052 345.113l1.802-3.242M365.052 345.113l-.982 1.657M361.631 340.642l-.812.923-1.005.964-.675.803.882.518 1.15.322 3.88.94M410.615 352.803l4.245 1.479M410.676 360.196l.23-1.907-.013-1.117-.125-1.604-.153-2.765M400.678 336.151l-3.731-4.984M400.678 336.151l3.77 4.888M400.678 336.151l3.832-2.148M400.678 336.151l-4.59 3.223M392.363 334.412l4.584-3.245M392.363 334.412l-4.62 3.07M392.363 334.412l3.725 4.962M392.363 334.412l-4.926-6.391M399.61 344.034l4.838-2.995M399.61 344.034l-4.45 3.204M399.61 344.034l-3.522-4.66M414.86 354.282l3.402 1.305M410.676 360.196l.928-1.16.675-1.097 2.581-3.657M418.262 355.587l-.438 1.01-.346.741-.943 1.468-.916 1.698-1.036 1.604-1.987 3.5-1.733 3.29-.352.591-.712.034-4.353-1.762M377.392 340.028l-8.03-2.316M377.392 340.028l2.166-3.343M374.822 343.815l1.572-2.369.998-1.418M398.351 367.292l3.768 2.354M396.995 358.143 395.562 360l-.244.498.059.254.15.275-1.115 1.038-.872.689-.818.819.7.51 1.03.71 3.9 2.499M387.743 337.482l3.709 4.961M387.743 337.482l-1.18.7M386.564 338.182l-.1-.65-.169-4.514.1-2.663.092-.958.23-.573.33-.363.39-.44M385.636 326.798l.452-.063.384.154.284.314.681.818M383.665 337.642l-.192-7.294M383.665 337.642l.327 8.31M383.665 337.642l-3.966-.87M386.564 338.182h-.385l-2.514-.54M380.013 352.242l-3.813-.855M380.013 352.242l4.025.986M422.397 360.376l.243-.557.498-1.202.062-.58-.07-.321-.367-.336-.41-.152-1.455-.62-1.855-.718-.78-.303M404.448 341.039l2.21-1.547M408.215 345.799l-.7-.925-3.067-3.835M398.671 352.013l-3.511-4.775M398.671 352.013l.313.468M398.671 352.013l-4.718 3.11M387.343 353.915l-3.305-.687M387.343 353.915l-.568-7.625M393.953 355.122l-1.938 1.266-3.484 2.098-.392.23-.309.17-.349-.14-.138-.425-.073-.752.073-3.654M383.473 330.348l-8.33-2.312M383.473 330.348l-1.894 3.194M385.636 326.798l-.805 1.404-.683 1.286-.675.86M383.992 345.953l.046 7.275M383.992 345.953l2.783.337M395.16 347.238l-3.708-4.795M395.16 347.238l-4.888 3.128M391.452 342.443l4.636-3.069M391.452 342.443l-4.718 2.95M377.216 324.886l4.222.975 1.15.336 3.048.6M374.822 343.815l-7.968-1.944M374.822 343.815l1.1.133M366.854 341.871l-5.223-1.229M366.854 341.871l2.508-4.16M386.734 345.392l.04.898M386.564 338.182l-.108.741.278 6.47M379.558 336.685l-8.127-1.95M379.558 336.685l.141.087M379.558 336.685l2.02-3.143M393.953 355.122l-3.68-4.756M396.995 358.143l-.99-.924-2.052-2.097M363.211 338.28l-.521.93-1.059 1.432M376.2 351.387l.04-.794-.319-6.645M390.272 350.366l-2.481-3.154-.287-.41-.73-.512M363.211 338.28l-1.12.007M369.362 337.712l-.936.03-.767.042-4.448.496M369.362 337.712l2.069-2.976M473.985 376.631l-2.059-1.169-3.476-1.593-2.103-1.524-1.761-1.525-1.233-1.277-2.35-2.323-2.445-2.61-2.087-2.296-2.309-3.274-1.49-1.541-1.505-1.415-2.437-2.289-1.687-1.72-1.733-1.663-3.298-3.06-5.322-4.78-2.746-2.628-2.592-2.684M421.789 342.898l1.575.925 1.787 1.116.637.385 1.304.426.62.05.515-.078.62-.195 1.09-.42.805-.447.442-.354.65-.784.535-.72.117-.657-.117-.572-1.017-4.313M525.408 315.122l.419.848.372.805.279.847.046 1.102-.325 1.525-.79 4.916.092 4.83.186 4.364.186 3.687.046 3.432.373 5.466.046 3.22.372 8.177 1.21 6.017-.094 1.144-.465.974-23.651 17.105M487.026 383.876l1.382.136 3.037-.09 8.22-.554 2.622.021 1.423.192M534.26 392.182l-1.952.387-1.558.132-1.936-.06-3.223-1.346-3.183-1.475-5.815-2.1-5.82-2.228-1.77-.652-4.184-1.108-1.11-.15M518.852 286.35l-1.58-1.355-1.395-1.314-1.163-1.144-.977-.212-.371.212-.512.805-.837 1.187-1.442.635-1.534 1.017-.697 1.102v1.144l.372 1.78.186 2.457.837 2.288 1.301 1.484 2.837 4.322 2 3.22.604 1.568.697 2.415.977 2.12.883 1.313.79.762 1.86.975.698.762 1.163.552 1.86.677" clip-path="url(#pc48614b1a3)" style="fill:none;stroke:#000"/><path d="m531.531 312.029-1.165.447-3.007 2.908-1.95-.262M558.647 365.496l-2.179.726-2.417.974-1.442 1.017-1.534 2.543-1.674 2.542-1.72 1.694-1.535 1.06-2 1.61-1.395 1.694-1.627 2.585-1.162 2.754-1.534 2.712-1.86 1.567-1.581 1.78-.727 1.428M565.642 409.893l-10.827 1.85-1.305.033-1.244-.08-.987-.437-1.037-.99-3.932-6.81-4.844-4.164-1.004-1.348-.405-1.333-.038-1.643-.295-1.214-.518-1.159-.635-.562-.738-.397-3.573.543M565.164 361.858l.43-1.637M565.164 361.858l11.765 6.415M558.647 365.496l4.564-1.52 1.488-.932.465-1.186M574.689 352.451l.936-.72 1.163-1.44" clip-path="url(#pc48614b1a3)" style="fill:none;stroke:#000"/><path d="m596.93 382.023-1.264.215-1.163.423-2 1.864-6.323 5.297-2.743 2.415-1.906 2.838-2.186 4.195-1.163 1.313-10.88 8.558-1.66.752" clip-path="url(#pc48614b1a3)" style="fill:none;stroke:#000"/><path d="m635.357 447.228-3.273-3.063-19.261-12.66-17.987-10.339-2.413-2.75-6.684-2.725-2.25-.244-9.429-1.465-3.461-2.017-3.889-1.797-1.068-.275M371.43 334.736l2.004-3.477M375.143 328.036l-1.71 3.223M377.216 324.886l-1.098 1.583-.975 1.567M378.046 323.372l-.038.136-.37.646-.422.732M387.533 320.71l-1.748-.523-6.476-1.582-1.173-.25M375.275 321.982l.974-1.083.828-.95 1.059-1.594M361.624 337.057l.468 1.23M374.825 322.62l-.662.746-3.014 3.292-3.382 3.543-6.143 6.856M337.106 317.46l.383.182 2.423 1.398 3.98 2.481 9.298 5.481 3.15 1.844.506.384.437.65.944 1.523 1.502 2.523.89 1.496 1.005 1.635M344.944 341.816l1.786 1.873 1.02.615.675.161.614.028.575-.189 1.45-.657 1.25-.677 1.295-.853 1.074-.867 1.672-1.67.521-.384.506-.175.622-.105 1.526-.181 2.562-.448M363.422 321.518l-5.094-3.734-2.84-2.112-1.357-.79-3.612-1.957-.728-.6M337.106 317.46l-1.933.134-4.548.363-.675.042-.345-.084-.276-.384-.269-.553-.153-.545-.038-.776-.084-1.187.022-1.014.054-1.349-.399-1.677-.015-.909.307-.908.728-.916.645-.818.797-.705.943-.616.798-.349.675-.293 1.066-.287.897.02 1.135-.083 1.228-.49.958-.565 1.335-.86.674-.28 1.32-.21 1.203-.188 1.036-.098.744.14.621.322.621.51.644.887.23.678.43 1.21.859 3.095.943 2.251.507 1.356" clip-path="url(#pc48614b1a3)" style="fill:none;stroke:#000"/><path d="m337.106 317.46 1.111-.37 1.611-.782 2.393-.993 3.82-1.467 2.239-.923 1.51-.6M354.98 313.788l-1.286-.417-2.942-.883-.961-.164M375.275 321.982l-5.422 1.44-1.135.245-1.473.09-.859-.104-.613-.238-2.351-1.897M359.782 321.948l1.742-.091.782-.084 1.116-.255M374.825 322.62l.45-.638M378.046 323.372l-.102-.104-.827-.254-2.292-.393M394.594 309.573l-.446.42-.393.749-.276.556-.276.608-.368.658-.492.673-1.123 1.293-.889 1.19-.628.979-.462 2.132-.846 1.104-.862.776M394.594 309.573l.211-.538.49-.42.384.19.117.131.137.167-.177.156-.534.17-.628.144" clip-path="url(#pc48614b1a3)" style="fill:none;stroke:#000"/><path d="m394.594 309.573.628-.145.534-.169.177-.156-.137-.167-.117-.132-.383-.188-.49.42-.212.537M391.41 405.075l.75-.824.862-1.273.598-1.383.216-1.382.014-2.643-.176-3.442" clip-path="url(#pc48614b1a3)" style="fill:none;stroke:#000"/><path d="m399.556 400.295-.322-.587-1.258-1.58-1.043-.95-3.259-3.05M480.626 508.67l-.222-.246-1.34-2.297-2.124-3.323-.241-.247-.348-.075-9.444-.64-2.362.185-2.78.4-1.673.003-.992-.334-3.464-1.85-2.013-1.607-3.443-1.928-1.32-.937M399.295 405.075l-.537 1.58-.092.894.2.964.674 1.342 1.841 2.39 1.212.95 1.549.335 2.304.18 8.535-.406 3.226.366 2.347.7 1.978.935 1.733 1.146 1.427 1.552.813 1.44 1.012 1.998 1.98 3.2.659.867.383.936.2.922.138 2.754.275.824.598.35 5.354.74 1.39.32 1.003.854.641 1.082.095 1.057-.369 1.202-1.365 1.886-2.07 1.663-.89 1.705-.307 1.006.261.643.798.364 1.208.25 3.654.225 1.948.53 1.902.77 2.254 1.607 1.073.927.4.917.2 1.328-.018 1.752-.887 1.91-.276 1.006.153.964.46 1.034.522.922 1.441 2.81.404 1.222.118 2.048-.015 1.509.23 1.216.627 2.316.17.577.384 4.513.015 2.097-.227 2.337-.187 2.456-.327 1.042-3.094 5.12-.26 1.104-.077 1.216.26 1.048.691 2.796v2.026l-.177.363" clip-path="url(#pc48614b1a3)" style="fill:none;stroke:#000"/><path d="m406.364 522.947.999-.58 1.027-1.09 1.335-1.09 2.193-.811 2.255-.475 3.083-.642 1.472-.867 1.043-.796 1.457-1.244 3.804-3.522 7.76-7.268 7.87-5.336 1.979-1.468 1.917-1.006 2.899-.559.737-.133.352-.132.314-.154M450.439 507.423l-1.31-2.188-.742-2.784-.218-3.26.691-3.417" clip-path="url(#pc48614b1a3)" style="fill:none;stroke:#000"/><path d="m397.254 505.612.23.503.844 1.481.936.978.982.783 1.96 1.266 1.568 1.068 1.564 1.188.844 1.215.69 1.356.225 1.54-.733 5.957M393.91 553.178l8.978-15.998 1.423-2.81.998-2.857.26-1.796.795-6.77M597.579 551.027l6.865 1.162M573.85 525.927l7.33 1.57 3.244.906 3.096 1.945 2.408 2.167 4.21 7.08 3.076 5.052-.202 5.421.567.959M591.244 556.095l.916.465.528-.096.687-.209 1.022.482 1.128-.353.458-.45.405-.69-.247-.882-.017-.996.37-.77.67-.643.415-.926M614.854 556l-.715.748-.651-.128-.585-.704" clip-path="url(#pc48614b1a3)" style="fill:none;stroke:#000"/><path d="m614.854 556 .22 1.106.233 1.102-.814 3.007-.72 2.288-.977.72-1.185.444-1.07-.296-.628-.593.07-.636 1.441-1.863.907-1.208.047-.74-.28-1.229.257-.996.548-1.19M604.444 552.189l.542.092 5.748 1.585 2.169 2.05M614.854 556l.22-.23.616-2.874 1.832-3.61.841-4.348.583-2.393" clip-path="url(#pc48614b1a3)" style="fill:none;stroke:#000"/><path d="m604.444 552.189 1.215-.561 2.515-1.65 1.565-1.103 2.485-1.523.92-.559.997-.713 1.826-1.37 1.64-1.285 1.34-.88M373.434 331.26l8.145 2.282M355.398 257.086l-9.58 3.126M356.995 260.47l-.784-1.827-.813-1.557M345.817 260.212l-1.51.609-.491.384-.307.475-.238.406-.29.461-.4.293-.66.196-6.058 1.028-2.354.44-5.66 1.041-3.942.685-3.436.517-.522.238-.352.37-.154.434-.207 1.258-.238 1.447-.398 1.363-.43 1.041-.682 1.09-.967 1.357-.812 1.488-.553 1.097-.62.77-.66.314-.66.028-.537-.14-.936-.364-.996-.28-1.596-.306-1.932-.224-2.991-.196-1.764.014-3.13.14-1.717.028-1.918-.154h-1.042l-1.289.168-3.006.293-1.795.252-.506.196-1.396.964-3.45 2.824-1.872 1.174M360.13 267.548l-.007-.54-.712-1.24-1.033-2.022-1.383-3.277" clip-path="url(#pc48614b1a3)" style="fill:none;stroke:#000"/><path d="m345.817 260.212 1.006 2.565.421.364.637.014.959-.217 2.277-.81 2.884-.741 2.994-.918M493.232 120.226l2.978-1.144.764-.324.647-.836M495.106 207.189l-.031-.65-.633-11.216.05-.545.246-.416 2.085-2.125 1.09-1.479.088-.377-.16-.486-1.025-1.335-.066-.447.265-2.09.468-1.909.728-2.817.33-2.383M495.106 207.189l-6.914-2.895M499.86 219.883l4.142-8.2.073-.475-.345-.392-8.624-3.627M488.192 204.294l-.227-.831-1.54-6.794-1.519-6.012.076-.685.767-2.684.376-1.16.345-.916.184-1.496-.03-.447M481.731 194.428l-.783 1.884.092.65.89 1.07 1.147 1.342.94 1.133 1.07 1.538.737.933 1.183.79 1.185.526M502.652 221.01l-.687-.569-.827-.324-1.277-.234M309.941 336.26l-2.232.497-1.81.643-3.88 1.95-2.293 1.327-1.22.497-.498.111-.483-.055-1.012-.385-3.168-.923M363.295 359.365l.52-1.387.401-.968M389.823 369.456l-.812-.496-.476-.524-.322-.615-.292-.58-.306-.636-.223-.657-.168-.636-.13-.734-.14-.957-.267-.594-.675-.81-.514-.438-.722-.37-.846-.192-1.815-.401-2.714-.633-1.933-.413-2.423-.517-4.28-.873-2.799-.56-2.576-.573-1.174-.237M402.12 369.646l-.694.016-2.56.039-1.688-.042-1.84-.07-1.48.02h-2.83l-1.205-.153M386.572 370.959l.79-.203.383-.203.422-.258.368-.259.521-.273.476-.167.291-.14M344.972 223.129l.486 1.272.627 1.679.465 1.365.119.56-.038.503-.687 1.353-.87 1.697-.81 1.605-.628 1.107-.825 1.46M298.424 194.3l1.723.939 2.409 1.06 2.163.992 1.15.517.936.531.95.602.72.62 1.336 1.434 1.113 1.482 1.08 1.496.89 1.594.614 1.482.435 1.472.546 3.141.685 3.74.11.537.095.47.566 2.785.477 1.932.308 1.315.459 1.034.654.876.619.676 1.071.645 1.737.89 10.505 4.602 11.036 4.566M289.701 216.393l.12-3.171.244-.77.302-.783.442-.848.558-.847.604-1.039.744-1.398.675-1.25.465-1.06.418-1.08.643-1.25.548-1.168.31-.766.307-.677.285-.74.303-.73.487-1.408.698-1.59.441-.953.129-.564M154.152 307.785h-.793l-1.515-.112-1.251-.128-.863-.595-1.392-1.075-1.55-1.092-1.428-.9-1.586-.722-1.709-1.027-2.061-1.477-1.392-.868-1.269-.738-1.145-.74-.67-.882-.387-.932-.212-1.091-.105-.658-.353-1.285-.105-.514-.423-1.108-.722-1.204-.282-.787-.776-1.075-.67-.82-.299-.754-.476-1.301-.422-1.044-.582-1.38-.37-.948-.388-1.236-.07-.707-.053-.754-.017-1.397v-1.6869999999999998l.123-1.043.247-.9.088-.93.246-.964.318-.851.422-1.076.494-.932.634-.898.74-.69.758-.627.687-.562.564-.417.58-.643.212-.45.194-.706-.052-1.06-.177-.658-.563-.803-.3-.562-.264-.867-.176-.723.105-.562.123-.498.23-.658.194-.562.246-.98.018-.899-.176-.755-.6-.963-.722-1.14-.511-.755-.493-.915-.212-.45.018-.674.106-.995.123-.9.106-.85v-.66l.053-.641.183-.687.154-.712.092-.839-.154-.461-.337-.658-.598-1.02-.46-1.02-.43-.63-.444-.922-.415-1.034-.33-.998-.401-.985-.387-1.168-.44-1.023-.242-.645-.227-.742-.12-.767-.334-.913-.494-.742-.827-.779-.708-.645-.774-.852-.481-.851-.387-.913-.388-.816-.494-.596-.908-.73-.747-.499-1.082-.439-1.001-.109-1.056.037-1.214.048-1.59-.012-1.295-.073-1.055-.134-1.201-.085-1.656-.231-2.083-.243-1.67-.256-1.24-.231-.909-.22-1.322-.243-.793-.118M111.383 201.436l-.898.444-1.177.751-1.334.818-1.315.744-1.068.767-.841.925-.614.73-.601.754-.641.864-.601.84-.44.791-.268.609-.307.937-.2.779-.187 1.326-.04.877-.12 1.253.093.73.053.682.067.706.067.961.133 1.023.214.985.483.705.093.135M181.101 166.258l.26-.066.895-.426.588-.376.854-.755.534-.694.655-.67.668-.742.32-.608.254-.621.414-.572.747-.73.734-.244 1.19-.292.96-.34 1.149-.378.664-.17 1.563-.061.948.049 1.135-.122.654-.28.521-.462.494-.707.494-.754.414-.694.4-.657.495-.73.694-1.06.507-.474.881-.524 1.002-.389 1.068-.329.695-.182 1.468-.341 1.002-.268.854-.195 1.283-.133 1.014.097 1.308.243 1.042.317 1.042.365 1.348.438 1.682.45 1.056.195.828.402h1.362l1.081-.122 1.135-.316 1.336-.292 1.428-.548 1.255-.523.975-.329 1.055-.487 1.282-.414 1.281-.462 1.91-.475 1.095-.377 1.041-.243 1.028-.341.695-.487.48-.511.348-.56.4-.646.334-.9.374-.962.52-1.387.548-.803.552-.87 1.255-.997 1.052-1.217.972-1.07.89-.886.313-.675M123.5 180.794l.548-.22.59-.101M129.662 172.587l-2.147.895-1.289.867-.46.783-.43.979-.46 1.286-.237 3.076M181.101 166.258l-.808.203-1.375.34-1.068.353-1.082.243-1.242.207-.814.341-.735.341-.747.62-.815.645-.934 1.072-.748.84-.708.803-.788.888-.921.889-.855 1.075-1.108 1.265-1.229 1.436-1 1.096-.962 1.108-1.31 1.24-.581.463-.735.45-.975.512-1.375.426-1.682.34-1.776.11-2.23.146-1.683-.06-1.482-.074-2.23-.06-1.589-.074-.895-.121-1.402-.098-1.695-.11-1.456.013-1.469.037-1.762-.085-1.71-.122-1.602-.244-1.495-.243-1.536-.305-1.255-.353-1.055-.352-1.255-.341-1.362-.45-.926-.195M111.383 201.436l.069 1.723M123.5 180.794l-.088.657-.345.616-.38.615-.398.478-.649.626-.652.584-1.035.604-1.68.811-.981.566-.783.517-1.158.832-.69.679-.575.58-.667.782-.407.895.062.93.33 1.237.39 1.377.215.755-.054.755-.164.645-.043.662-.072.836-.176.726-.3.766-.268.776-.648.772-.901.563M138.37 511.72l-.069.402-.57 1.553-2.685 6.75-1.718 3.744-1.012 1.845-2.93 3.647-1.074 1.188-1.058.866-2.209 1.285-2.362 1.216-2.608.895-1.18.6-.905.839-1.641 3.046" clip-path="url(#pc48614b1a3)" style="fill:none;stroke:#000"/><path d="m190.271 313.293-.735.746-.357.362-1.198 1.284-.846 1.076-.6.754-.81.835-.863.594-1.04.69-1.074.772-.688.722-.616.947-.652 1.125-.476.69-.652 1.06-.528.866-.617.851-.388.595-.475.642-.6.482-.827.481-1.093.482-1.057.064-1.162-.096-1.868-.193-1.762-.24-1.515-.145-1.41-.225-1.163-.386-1.04-.497-1.145-.77-1.392-.916-1.074-.562-.635-.69-.669-1.22-.828-1.8-.493-1.155-.388-.915-.406-1.172-.316-1.092-.336-1.3-.387-1.558-.3-.819-.229-1.204-.528-1.477-.406-1.43-.228-.802-.247-.964" clip-path="url(#pc48614b1a3)" style="fill:none;stroke:#000"/><path d="m181.101 166.258-.058.595-.092.475-.2.518-.107.642-.062.7-.03 1.272.03.923-.122 1.174v1.342l-.077 1.146.016 1.37-.237 1.942-.08 1.208-.094 1.43-.035 1.483-.07 1.41.024 1.398.162 1.314.175 1.229.128.943.07 1.377.08 1.292.047 1.05-.035 1.101-.07.922-.08 1.494-.07 1.293-.035 1.197-.023.657-.024 1.366.012 1.272-.116 1.494v1.483l-.151 1.345-.14 1.145-.117 1.366.047 2.024-.035 1.102-.093 1.176-.14 1.165-.139 1.145-.081.996-.035.964.046 1.281.035.784.128 1.23.012.815-.012.773-.197 1.113-.221.837-.302.985-.291.795-.418 1.049-.5 1.218-.582 1.462-.36 1.187-.418.996-.43 1.218-.477 1.282-.36.9-.163.732-.163.943-.116 1.09-.081.933-.14 1.218-.128.9-.267 1.23-.244.932-.314 1.144-.244 1.038-.221.922-.175.71-.244.826-.406 1.314-.29 1.102-.303 1.165-.337 1.229-.384 1.526-.314 1.133-.395 1.61-.407 1.208-.21.869-.197 1.059-.186 1.102-.023.657-.244 1.059-.197.805-.222 1.399-.22 1.101-.291 1.187-.372 1.282-.395.794-.465.88-.477 1.091-.453.826-.454.996-.349.943-.383 1.112-.57 1.557-.255.943-.616 1.685-.477 1.017-.546 1.303-.616 1.101-.756 1.25-.581 1.124-.267 1.027-.303 1.112-.325 1.314-.523 1.536-.302 1.24-.314 1.588-.198 1.07-.314.943-.43 1.187-.477 1.176-.615 1.07-.454 1.038-.349 1.387-.465 1.664-.383 1.345-.256 1.451-.105 1.293.226 1.174M542.642 215.845l-1.023.932-4.068 4.741-1.282 1.064-7.551 4.764-4.072 2.152-2.79 1.647M509.421 228.464l.64.77 1.274.982 1.456.563 4.49.78 3.117-.115 1.458-.299M523.87 243.779l-1.194.295-2.278-.278-.352-.316-.174-.537.544-3.115.283-2.085.302-2.396.687-3.047.168-1.155M564.554 168.937l-.088.898.376 4.092-.254 3.113-.864 3.708-.547 3.003-.391.923-.735.877-3.766 2.43-.976.992-.488 1.302.08 1.085 1.387 2.962.28 1.144.021 1.215-1.402 5.004-.713 1.163-1.51 1.455-1.445 1.83-1.654 3.222-1.103 1.64M542.642 215.845l1.771-1.108 4.654-2.368 1.695-1.375" clip-path="url(#pc48614b1a3)" style="fill:none;stroke:#000"/><path d="m555.853 222.616.084-.804 1.097-1.5.253-.748-.047-1.222-.524-2.883-.759-.95-2.7-1.686-2.495-1.829M540.175 186.044l-2.209 1.884-.409.742-.047.82.68 3.163 1.026 6.02.696 3.77.686 3.347.648 3.47.42 2.465.72 2.953.256 1.167M564.554 168.937l-1.226-.549-3.16-1.565-2.962-1.525-1.442-.909-1.795-.937-1.366-.909-.644-1.496-.291-1.147-.092-1.147-.492-.713-2.393-1.203-1.734-.657-1.703-.322-1.181.154-1.212.28-1.687-.014-1.934-.168-1.242.042-1.136.49-1.073.545-1.382.35-1.672.195-1.841-.377-1.12-.434-2.823-.405-3.344-1.105-3.33-.657-2.93-.35-2.73-.448-1.72-.125-1.089-.112-1.963.042-1.55-.56-1.611-.573-1.503-.447-1.32.083-1.181.812-1.489 1.496-1.074 1.105-1.074.363-1.871.895-3.437.895-5.155-.083h-4.818l-3.927-.42-2.301.112M472.1 148.961l5.487 6.697-.053 1.781" clip-path="url(#pc48614b1a3)" style="fill:none;stroke:#000"/><path d="m446.337 162.98.986 1.165 5.303-3.129 2.064-.754 4.182.397 2.117 1.32 1.078 1.011 1.22.224 1.158-.21 2.453-1.377 1.45-.497 2.623-.768 4.778-2.07 1.785-.853M309.941 336.26l1.388-.615 1.71-.887 1.42-.58.69-.189.66-.084 3.182.217 2.96.147 2.224.21 2.892-.092.866.056.575.07.545.168 1.45.594.62.286 1.228.7 1.234.894.56.272.936.343 1.204.392 2.04.251 2.086.357.859.28.59.3 1.703 1.201.682.546.699.72M337.819 353.21l.587-.682.882-1.387.962-1.777.934-1.777.962-1.923.748-1.266.775-1.241.614-.9.66-.44M305.37 322.968l.886 2.948.908 1.314.801 1.29.32 1.242.188.852.588 1.314.267 1.169.08 1.047.16.95.373 1.167M258.826 418.647l.499-.82 1.419-3.437.276-1.16.23-1.538.2-2.46.114-3.85.154-3.808.069-1.636.107-.775.199-.438.476-.666.866-.873 1.132-.657.67-.343.721-.174.967.062.76.19 3.94 1.743 1.037.17 1.118-.052 1.098-.29.867-.272 5.334-2.605 1.46-.456 1.166-.077.898.063 2.589.232 1.797.048 1.665.015 3.473.179 2.21.022 1.288-.129 1.472-.381.845-.405.789-.412.989-.77.851-.698 3.459-2.998 1.304-1.006.866-.371.898-.09M307.84 385.222l.521 1.125.737 1.377M315.44 374.215l1.197-.125.33.104.375.322.2.658.321.704.108.517-.07.755-.444 1.028-.33.747-.222.727-.315.566-.62.692-.798.343-1.972.628-1.196.895-1.319.916-1.38.495-.606.189-.552.273-.196.267-.111.306M301.72 381.65l.113.276.386.34.93.509 1.842.996 2.849 1.45M313.048 374.56l.697.18.882-.127.514-.209.299-.189" clip-path="url(#pc48614b1a3)" style="fill:none;stroke:#000"/><path d="m301.72 381.65.169-.51 1.518-2.263 1.757-2.342 1.61-1.998 1.081-1.146.668-.783.521-.552.353-.21.376-.007 2.161.882 1.474.564 1.173.623.859.307M296.405 377.82l-.133 1.032-.128.814-.214.713-.153.447.183.238.384.083 1.626.14 1.004.021 1.71.182 1.036.16M164.764 507.91l1.135-.411 1.771-.308 1.09-.056.928.203 1.142.58M173.384 481.786l.345.202.353.091 1.05.014.775.014.322.196.27.517.351.922.476 1.418.454 1.713.375 1.752.38 1.284-.014.925-.112.736-.341.766-.395 1.096-1.149 2.02-1.202 1.533-1.255 1.207-.837.517-.414.447-.214.412.03.817.047.664-.162.503-.352.63-.085.642.108.524.33.503.276.496.076.462-.214.698-.483.894-.584.783-.759.734M174.803 476.86l-.706.537-.62.72-.814 1.014-.214.636.007.356.23.51.414.712.284.44M166.24 484.5l1.875-1.918.998-.748.444-.097 1.143.09 1.35.12h.997l.337-.161M159.297 511.902l.607-.263.585-.117 1.065-.286.595-.45 1.388-1.5.774-.97.453-.406" clip-path="url(#pc48614b1a3)" style="fill:none;stroke:#000"/><path d="m155.147 500.98 1.319 2.774.468.53 1.148.657 3.507 1.607 2.362.985.813.377M139.362 511.02l.345-.174.693-.193.657-.166 1.087.066 2.96.69 3.189.323 3.761.06 3.637-.048 3.606.324M156.035 517.929l.006-.286.113-.376.342-.714 1.301-2.135.852-1.531.648-.985M156.035 517.929l-.298-.013-.41-.042-.571-.223-1.488-.685-.59-.091-.384.049-.875-.098-.589.446M382.683 417.667l.445 4.445.322 4.472.46 6.708.522 5.953.138 2.6-.046 1.383M382.618 449.41l1.031-2.143.66-2.235.215-1.804" clip-path="url(#pc48614b1a3)" style="fill:none;stroke:#000"/><path d="m377.269 440.01-1.483.78-.788.438-.133.498.214.487.534.195 1.122.158 2.31.097 2.177.11 1.803.133 1.499.322M342.128 469.156l-.628-.423-.383-.503-.116-.566-.023-.552.215-.866.997-2.495.645-1.516.13-.37-.062-.308-.275-1.048-.614-2.222-.775-1.573-.176-.328-.031-.188.077-.14.26-.112 2.447-.157 1.726-.27 2.515-.264 1.442-.106 1.411.043.997.02.644-.258.483-.287.614-.586.598-.615.644-.44.928-.371.997-.105M377.99 415.299l-.07.607.039.776.146 1.558.092 1.265-.046.552-.123.804-.306 1.565-.223 1.342-.154 1.125-.176.87-.291 1.114-.353 1.014-.207.643-.015 1.18-.031.552-.038.399-.307.524-.522.412-.628.622-.951.901-.706.517-1.181.734-1.227.776-1.104.706-.668.454-.575.524-.544.552-.522.692-1.235 1.593-.567.93-.177.425-.13.482-.015.846.153 1.446.1 1.112.03.894-.138.853-.123.328-.375.552-.844 1.02-.675.692-1.166.985-1.295.93-.798.454-.828.384-1.411.378-.99.167M363.549 456.428l-.261.007-.452-.14-.499-.335-.499-.291-.788-.33-1.295-.425-1.429-.256-.79-.375-.307-.265-.276-.517-.107-.573-.03-.378M382.618 449.41l-.758.161-1.202.682-1.95.779-3.06 1.192-2.857 1.12-1.83.694-1.122.438-.548.56-.748.705-.454.366-.427.097h-.708l-3.405.224M364.024 455.646l-.3.621-.175.161M350.49 384.403l-.072.19-.539 1.593-.362.678-.305.398-.348.317-.6.347-.731.297-6.432 1.408-3.873.615M338.984 398.384l.061-.85-.11-.987-.137-1.24.11-1.196-.353-1.111-.322-.713-1.005-2.04M370.744 416.772l-.293.099-.56.056-1.005.112-1.518-.043-1.741-.188-.905.042-.775.237-1.357.497-1.282.303-1.068.195-1.446.235-1.15.28-.782.3-.76.363-.49.33-.553.551-.529.65-.338.643-.46.93-.598 1.264-.48.819-.395.644M338.984 398.384l-.142.572-.387.494-.46.594-.399.524-.184.503-.169.88.047.937-.031 1.174-.054 1.852-.017.802-.037 1.024.084 1.805.079 1.025.095 1.183.571.806 1.054 1.222 1.289 1.175.395.356.606.406.674.356 1.255.336.68.256.606.563.251.618.312.932.185.79.237 1.028.251.75.455.846.607.483.404.315.626.37.456.19.792.44.406.526.974.378.576.18.666.044.522-.028M331.014 445.252l.179-.018 1.211-.328.936-.44.828-.427.445-.35.215-.411.16-.336.768-.65.797-.517.875-.622.72-.405.56-.287.798-.342.26-.16.906-.385.974-.335.828-.287.959-.189 1.449.007 1.396-.02.75-.214.76-.472.754-.664.375-.51.364-.843.225-1.284.015-.923-.186-1.111-.202-.693.081-1.144.264-.92.33-.741.622-.945.333-.513.455-.79.618-1.051.423-.841M391.41 405.075l-4.908 3.704-1.533 1.44-1.059 1.648-.537 1.077-.322.922-.276 1.943-.092 1.858M377.99 415.299l.928.447 1.28 1.013.814.601.56.398.36.098.751-.189M370.744 416.772l1.456-.488 1.464-.37 1.19-.392.712-.21.53-.174.421-.07.936.07.537.16M383.12 457.854l-.393-.97-.532-1.19-.419-1.64-.265-1.66.545-1.75.562-1.233" clip-path="url(#pc48614b1a3)" style="fill:none;stroke:#000"/><path d="m342.06 405.292-.775-2.167-.33-.915-.33-.58-.705-1.097-.46-1.118-.476-1.03M321.51 491.137l-1.565-1.049-1.427-1.117-1.08-1.094-.337-.79-.14-.757.002-1.44-.062-1.028-.127-1.473-.03-1.313.066-1.265.005-1.079-.106-1.249-.094-1.056-.054-.907-.043-.642-.386-.408-.53-.414-.549-.137-.509-.394-.99-.893-.651-.533-1.267-.452-1.035-.33-.928-.369-.959-.817-1.005-1.537-1.35-2.334-1.042-1.664-1.603-2.934-1.45-2.558-1.687-2.683-1.326-1.726-1.197-1.131-1.296-1.189-1.13-.907-.566-.534M331.014 445.252l-.849.087-1.565-.3-1.227-.462-1.066-.21-.43.029-1.011.181-1.028.07-1.634.28-1.779.363-2.094.447-1.984.392-1.628.391-2.646.615-2.017.643-1.434.461-1.648.468-1.45.405-1.588.469-1.533.489-2.838.607-2.554.035-1.95.222" clip-path="url(#pc48614b1a3)" style="fill:none;stroke:#000"/><path d="m276.826 437.91 1.35 1.056.567.552 1.373 1.81.866.982 1.09 1.226 2.507 3.082.96.887 1.288.671 1.334.636 1.326.971.806.545.575.168 2.042.159 2.152.279M326.972 496.896l-.2-.979-.641-1.03-1.277-1.443-1.012-.867-1.074-.615-1.259-.825M325.81 490.613l-1.934.683-1.393.08-.974-.239M379.393 490.247l-1.626.21-1.894.496-2.308.663-3.574 1.307-3.175 1.083-2.117.622-4.118.615-4.295.552-3.32.496-1.151.203-1.61.14-2.025.167-3.052.72-2.225.447-2.001.44-1.35.322-2.439.558-1.564.378-1.189.35-1.35.44-1.745.69-.961.08-.937-.12-1.18-.58-.737-1.02-.31-1.002-.08-.828-.088-.78" clip-path="url(#pc48614b1a3)" style="fill:none;stroke:#000"/><path d="m318.395 510.329.415-.769 1.135-2.055 1.197-2.012.982-1.524.705-1.188 1.488-2.376 1.166-1.818.46-.824.66-.573.369-.294M392.944 496.836l-2.228-1.07-2.057-1.047-1.816-1.253-1.696-1.192-1.79-1.01-2.844-.849-1.12-.168M368.455 479.33l3.01 3.776 1.294 1.947 2.401 2.478.898 1.49 1.637.89 1.698.336M383.12 457.854l.397.601.708 1.288.419 1.393 1.216 1.789 1.504 1.67 3.955 6.612 3.758 6.806.675 1.467.327 1.147-.051 1.55-.335 1.356-.6 1.914-1.381 3.536-.829 1.942-.506 1.803-.046 1.578.17 1.175.443 1.355M397.254 505.612l-1.579-3.004-2.73-5.772M480.626 508.67l1.63 1.798 1.223.623 1.293.495 1.518.281 1.99.332 4.586.46 2.193.093 5.783-.242 2.698-.218 3.084-.391 2.88-.514 2.546.032 2.149.163 3.039.653 1.896.65 2.558.97 3.284 1.513 2.9 1.06 2.82.626 4.614.708 2.093.74 3.433 1.677 3.311 1.826 2.674 1.743 1.213.899 1.132.972 2.1 2.598.416.371.568.023.822-.348 2.425-1.576.503-.178 1.377-.19.646.198.912.465 1.87 2.085 1.213 3.153.911 4.02 1.174.48 2.469-2.693 3.178-6.472 1.204-1.106 1.407-.59 1.488.068M572.01 518.666l.345 1.198.81 2.323.526 2.877.158.863" clip-path="url(#pc48614b1a3)" style="fill:none;stroke:#000"/><path d="m564.138 597.468 1.518.166 3.46.314 1.155-.111.566-.406.264-.572.161-1.4.02-2.176.041-1.9.364-1.474.648-3.374.344-2.618.243-1.77-.121-.921-.385-1.863-.486-1.917-.465-1.862-.547-1.642-.405-1.382-.303-1.826.04-1.456.02-1.493-.182-1.476-.384-1.087-.607-1.125-.911-1.825-.749-1.55-.546-.958-.162-1.106.243-1.07.242-1.198.385-1.143-.142-.977-.384-1.014.202-1.014.263-1.051.506-1.162.324-1.438.668-1.29.526-1.07.304-.774 1.093-1.273 1.174-1.788.606-.849.972-.921.668-.535 1.073-.369.971-.387.243-.904-.243-1.935-.223-1.826-.647-1.678-.952-1.677-.465-1.07-.121-1.364.08-1.605-.246-1.35M350.49 384.403l.547-1.428.471-2.201.726-1.775.511-1.019.501-.713 1.543-2.413.403-.443 1.869-2.69.966-1.762.652-1.495 1.58-3.187 2.254-4.2.782-1.712M356.955 358.596l1.272.461 1.004.336.828.16.69.07.752-.013.568-.07.62-.14.606-.035M382.288 516.65l1.349-.9 1.615-1.034.989-.584 1.402-.669 1.976-1.107 1.963-1.387 1.762-1.313.948-.816.801-.632.682-.925.8-1.034.68-.637M450.946 567.333l-.39-.363-.675-.37-.943-.399-2.056-.699-2.17-.39-2.424-.392-2.462-.447-1.93-.552-.991-.23-.982-.161-1.6-.168-5.537-.266-4.479-.39-3.328-.336-3.853-.342-3.896-.196-2.237-.035-2.607.098-2.5-.196-2.47-.363-3.408-.23-4.065-.273-2.293-.175-.767-.126-.805-.258-.284-.251-.2-.392-.065-.489.245-.573.614-1.104.644-1.201.55-1.027.206-.49.13-.53-.007-.839M458.278 561.89l-1.212-.37-.322.042-.291.224-.56.608-1.476.94-.41.324-.56.307-.744.189-.43.23-.268.469-.337.88-.722 1.6M489.2 592.305l.511-.508.082-.678-.082-1.059.407-.91.674-1.589.303-1.186.232-.635.407-.509.616-.54 1.464-.815 1.174-.773.86-.773.07-.307-.197-.519-.663-.54-.732-.508-.233-.434-.093-.699-.092-1.07-.128-.837-.42-1.175-.347-1.165-.35-1.101-.453-.879-1.034-1.07-.79-.815-.85-.72-.883-.466-.732-.434-.244-.508-.023-2.213.104-1.557-.058-.742-.21-.666-.44-.678-.966-1.631-1.104-1.726-.36-.54-.012-.741.186-1.642.419-1.546.43-1.567.244-.868-.047-.742-.348-1.08-.221-1.472.011-1.016.163-.499.407-.624.616-.678.907-.826.848-.656.628-.477.395-.456.012-.444-.303-.52-.674-.38-1.244-.085-.755-.286-.5-.444-.86-.933-1.07-1.239-.93-.879-.79-1.472-.64-1.27-.825-1.695-.418-1.61-.093-.92.163-1.007.383-.54.884-.762 1.279-.975 1.034-.72.476-.297.291-.412-.046-.445-.35-.688-.487-1.07-.477-.953-.79-.636-1.174-.815-.988-.741-1.024-.816-.371-.593-.082-.614.128-.53.523-.497 1.128-.54.697-.392.57-.562.163-.72-.047-.699-.407-.9-.779-1.324-.418-1.218-.163-.72.047-.868.163-1.27.144-1.27M482.743 381.962l1.33.948 2.127.833.826.133" clip-path="url(#pc48614b1a3)" style="fill:none;stroke:#000"/><path d="m487.13 385.879-.736-1.174.632-.83M491.916 388.003l-1.595-.922-3.19-1.202" clip-path="url(#pc48614b1a3)" style="fill:none;stroke:#000"/><path d="m482.743 381.962 1.4 1.655 1.763 1.314 1.225.948M473.985 376.631l.24.515-.956 1.495-.559.975-.652 1.317-1.78 2.296-1.268 1.814-1.973 2.103-1.939 2.055-1.69 1.959-1.94 1.798-.51 1.043" clip-path="url(#pc48614b1a3)" style="fill:none;stroke:#000"/><path d="m482.743 381.962-1.07-.763-3.753-2.44-2.728-1.513-1.207-.615M422.397 360.376l-.11.254-.873 2.6-.735 2.408M635.905 184.257l-.192-.164M634.86 201.22l.894-.85 1.035-1.752.48-1.145v-.779l-.43-2.486-.493-4.651-.312-2.514-.13-2.786M602.986 157.911l1.443.025 1.58-.399 1.05.01 1.03.654 3.289 3.182 2.592 2.201 3.696 2.007 4.945 2.579 1.084.65.789.846 5.27 6.536 5.19 7.163.77.728M594.328 188.912l12.465 9.646.608.152.658-.18 8.834-4.52 18.82-9.917" clip-path="url(#pc48614b1a3)" style="fill:none;stroke:#000"/><path d="m588.376 139.603-.91.675-.23.7.145 1.02.222.531 2.033 3.04.69.506 2.37 1.871 3.55 2.587 1.411 1.594.773.54 3.523.949.876.374.212.681-.055 3.24M464.999 144.4l1.335.535 3.767 3.518 1.999.508M473.924 138.696l2.547 1.62 1.069 1.991-2.836 2.204-.186 1.06-.697.339-1.721 3.051M566.227 358.39l.657-1.108 1.302-.678 2.045-.763.977-.127 1.441-.466.744-1.144.744-1.229.552-.424M569.65 344.94l.294.45.614 1.205.227 1.168.254.426.494.547.413 1.06.801 1.021.735.706 1.207.928" clip-path="url(#pc48614b1a3)" style="fill:none;stroke:#000"/><path d="m464.999 144.4-1.734-.694-2.557 1.907-2.185-3.39 1.953-1.696-.14-1.017 3.023-3.136.883.254 4.092-1.483 5.59 3.551" clip-path="url(#pc48614b1a3)" style="fill:none;stroke:#000"/><path d="m464.999 144.4 2.451-2.644 6.474-3.06M509.421 228.464l-.306-.369-1.78-2.291-1.755-1.87-2.928-2.924" clip-path="url(#pc48614b1a3)" style="fill:none;stroke:#000"/><path d="m503.89 232.087-1.015-.365-1.426-.15-.978-.331-.513-.324-.37-.313-.133-.475.238-.346 2.05-.464.692-.299.795-.946.668-.734-.006-.633-.38-1.266-.512-.868-.86-.966-.758-.74-.044-.439 1.314-1.418M509.421 228.464l-1.058 2.342-.942 1.75-1.404 2.345-1.012 1.885-.436.953-.228.524.068.666M566.227 358.39l-.273.46-.36 1.37M593.153 367.22l-7.761-.587-5.645-1.006-11.35-3.383-2.803-2.023M595.669 362.272l-3.436 1.482-2.669.447-2.546-.727-4.326-2.18-7.025.67-4.632-1.286-2.515-1.453-.982-1.398-1.311.563M576.929 368.273l-2.457 3.407-7.264 6.035-3.525-8.664-3.419-1.897-1.617-1.658M596.93 382.023l-.239-.512-9.08-7.349-10.682-5.89M317.407 395.845l-.59.47-1.032.933-.644.902-.261.622-.284.887-.544 1.307-.66 1.111-.552.685-.851 1-.53.586-.413.524-.384.608-.199.888-.115.6-.314.804-.415.454-1.058.525-.79.6-.598.853-.76.825" clip-path="url(#pc48614b1a3)" style="fill:none;stroke:#000"/><path d="m314.44 394.612.757.482.828.321 1.382.43M399.295 405.075l.552-1.621.107-1.51-.398-1.649M418.1 398.262l-.867-.65-.805-.748-1.12-.971-.575-.21-.614-.154-.621.105-2.54.801-3.043 1.386-1.957.683-.635.268-.86.628-1.134.518-1.826.307-1.947.07M350.488 609.278l-.092-.943-.222-1.376-.154-.761M258.671 420.457l2.827 2.612 2.283 2.055.92.726.605.196.652-.042 1.297-.49.59-.153.714.028.567.077.601.195.496.37.214.462.008.475-.2 2.523.093 1.733.568 1.691.965 1.74.822.764 4.133 2.492" clip-path="url(#pc48614b1a3)" style="fill:none;stroke:#000"/><path d="m271.267 441.728.102-.793.263-1.18.202-.774.324-.664.91-.628 1.154-.147.526-.074.85.13 1.228.313M207.528 455.379l.377-1.305.458-.825.614-1.886.545-1.228 8.329-10.05 2.031-1.943 1.488-1.048 2.454-1.67 1.39-.729.934-.375 1.764-.287 5.414-1.041 3.839-.277.648.039 1.91.566 1.431.27.616.059 3.888.146 1.895.035.881-.126 1.259-.307.825-.366.67-.487 1.909-1.983 1.572-2.587.53-.621.437-.385 1.265-.726.476-.46.338-.868.57-2.657.386-1.8M258.826 418.647l-.08.956-.075.854M142.83 412.933l.69-.325.576-.398.437-.63.545-1.67 1.142-2.71.383-.804 1.266-2.187.69-.371 1.794-.496 1.312-.105.568.042 1.058.238 2.293.112.981.202 1.212.328 1.16.066 1.832-.429.92-.042 1.097-.062 1.127-.406 1.004-.58 3.298-1.174.698-.216 1.342-.091 5.246.468 5.729.664 2.845.573 1.158.286 3.857 1.37 1.603.545.96.468.766.566 3.106 2.139 2.623 1.949.92.538.798.224.697-.098 1.81-.328.944-.35.89-.839.79-.636.943-.335 1.38.042 1.872-.23 2.63-.783 2.339-.657 2.07-.552 2.363-.489 1.081-.238.936-.524 1.702-.852 1.174-.245 1.971-.237 1.227.111 1.035.245 1.243.503 1.457 1.034 1.134 1.034.83.839.597.908.162.902.084 1.81.184.433.23.259.644.28 4.578 1.25 3.804.81 2.685.364 3.19.202h1.917l1.42.14 1.44.54 2.828 1.126 1.256.608.298.27.154.291.403.767.568.257M211.919 503.352l.54-.59.483-.595.468-.405.828-.922.621-.972.498-1.397 1.09-4.395.268-.842.1-.947-.07-.733-.298-.72-.484-.783-1.441-1.802-.975-1.446-1.265-1.873-2.492-2.74-1.273-1.662-1.168-1.84-.458-1.263-.138-1.411.092-1.44.414-3.032-.03-2.487-.17-6.61-.061-3.578.322-1.411.208-2.077" clip-path="url(#pc48614b1a3)" style="fill:none;stroke:#000"/><path d="m182.401 466.857-.09-.549.307-1.92.16-1.336-.053-.489.046-1.097-.36-.775-.56-.832-1.357-1.635-1.48-1.922-.691-1.16-1.289-2.075-.367-1.013-.13-1.286.206-1.467.445-1.852.33-.95.506-.552.598-.21.66.091.69.14 1.685 1.327 2.679 2 4.156 2.99 2.056 1.027 1.963.762 2.37.628 2.669.475 4.256.259 5.722-.057M182.401 466.857l.087.528.176 2.054-.161 2.187-.146.468-.905.545-4.187 2.69-2.462 1.53M157.95 475.923l2.394.296 2.58-1.017 2.86.466.79-.148 2.232.403 4.255.571 1.742.366M399.295 405.075h-7.884M142.83 412.933l-.843-.024-2.853.013-.468.105-.407.315-.255.444M215.1 536.117l-.172-1.313-.475-2.753-.614-1.216-.506-1.621.015-1.286.215-1.313" clip-path="url(#pc48614b1a3)" style="fill:none;stroke:#000"/><path d="m219.39 527.663-.025-.366-.476-.25-3.967.611-1.36-1.043M359.069 268.662l.085-.18.737-.405.24-.53M361.626 280.113l-.505-1.986-1.476-7.975-.514-.87-.062-.62" clip-path="url(#pc48614b1a3)" style="fill:none;stroke:#000"/><path d="m361.172 280.335-2.625.21-.313-.421-1.029-4.403-.846-2.646-.689-3.22.519-.471 1.597.177 1.283-.9M361.626 280.113l2.48-.537M361.172 280.335l.221-.133.233-.089M363.275 275.48l.166.739.504 1.85.16 1.507" clip-path="url(#pc48614b1a3)" style="fill:none;stroke:#000"/><path d="m363.275 275.48 1.252-.25.36.14.513 1.998.154 1.233-.085.296-.155.172-.48.202-.729.305" clip-path="url(#pc48614b1a3)" style="fill:none;stroke:#000"/><path d="m366.182 287.527-.485-2.468-1.592-5.483M366.182 287.527l-.624.028-2.17.426-.104.074-.16.265-.081.098-.061.017-.062-.005-.069-.054-.084-.192-1.388-6.57-.21-.785.003-.494M149.53 534.62l-.227.532-.707.902-.76 1.247-.297 1.534-.16.573.045.573.169.314.897.775.76.895 1.257 1.9 1.396 2.361 1.756 2.795 1.472 2.313 1.772 2.934.077.37-.154.245-.66.112-1.487.244-.176.12-.047.278.093 1.307.115.853.215.76M156.035 517.929l.15.336.27.398.371.34.361.205.464.147 1.342.217.548.16 2.47 1.055 3.811 1.999.729.656.107.175v.196l-.629.587-1.886 1.397-1.986 1.628-2.386 1.454-1.004.775-1.105.866-.697.343-.906.321-1.188.216-.683.315-1.986 1.46-1.772 1.16-.9.285" clip-path="url(#pc48614b1a3)" style="fill:none;stroke:#000"/><path d="m141.86 534.073.988.542-.07.724h2.854l1.422-.407 2.477-.312M138.373 426.064l.038-3.885.405-1.25.282-2.604-.121-1.932.865-.489 1.848-1.766 1.14-1.205M404.38 363.35l3.062-3.987M422.397 360.376l4.675 1.367M398.984 352.48l.863 1.291 2.09 2.697.478.555.805.516M378.046 323.372l1.5-2.546M363.275 275.48l-.25-1.117M362.2 270.512l1.563-.451M363.026 274.363l-.302-1.347-.343-1.644-.182-.86M363.026 274.363l1.697-1.317M137.964 427.315l.036-.626.373-.625M146.222 430.926l-1.52-.897-1.134-1.385-1.132-2.173-1.909-2.31-.401.14-.702.54-1.051 1.223M180.78 463.55l.385 1.604 1.236 1.703M368.114 419.713l.528-.335.781-.314.713-.65.39-.649.218-.993M328.116 442.698l.682.511 1.5.732.652.912.064.4M382.044 461.717l1.354-2.335-.278-1.528M215.1 536.117l1.287 9.834M220.658 538.442l-.44-.158-1.279-2.604-3.84.437M220.658 538.442l.638.23.978-.069M138.37 511.72l.771.838M139.362 511.02l-.642.243-.35.456M139.141 512.558l.014.709M139.362 511.02l.269 1.04-.145.367-.345.131M205.608 502.62l2.143.195 1.617.457 1.166.011 1.385.07M201.86 502.986l2.175-.32 1.573-.045M203.74 501.662l.194.525.699.331.975.103M222.912 546.142l-.464.262-.338.811-.201.32-.351-.046-.138.297-.326.171-.313.035-1.103-.708-.427-.537-.965-.765-.59-.206-.563.023-.746.152M221.534 542.247l-.4-.913-.57-.79-.133-.9.227-1.202" clip-path="url(#pc48614b1a3)" style="fill:none;stroke:#000"/><path d="m402.528 350.546-.282.771-.6.658-1.356.723-.863.064-.443-.281M345.153 381.11l5.337 3.293" clip-path="url(#pc48614b1a3)" style="fill:none;stroke:#000"/></g><path id="PatchCollection_1" d="m393.84 344.728 3.81-2.558 1.566 1.824-3.939 2.915z" clip-path="url(#pc48614b1a3)" style="fill:green;fill-opacity:.8"/></g></g><defs><clipPath id="pc48614b1a3"><path d="M90 108.094h558v511.011H90z"/></clipPath></defs></svg>