<svg xmlns="http://www.w3.org/2000/svg" width="960" height="960" viewBox="0 0 720 720"><defs><style>*{stroke-linejoin:round;stroke-linecap:butt}</style></defs><g id="figure_1"><path id="patch_1" d="M0 720h720V0H0z" style="fill:#fff"/><g id="axes_1"><path id="patch_2" d="M90 606.749h558V120.451H90z" style="fill:#fff"/><g id="LineCollection_1"><path d="m336.976 352.61-2.631 3.58M336.976 352.61l.354-.49M336.976 352.61l4.172 2.022M353.37 348.165l-1.77 2.24M353.37 348.165l-3.962-4.699M349.408 343.466l1.533-1.807.078-.072.093-.048.07-.028.09-.008.117.03.094.065.31.243.137.124.166.203 1.204 1.73 1.646 1.996.03.054.01.034.003.046-.01.041-.03.06-1.58 2.036M344.263 341.71l-.955 1.604M349.408 343.466l-1.74 2.043M345.899 343.982l1.286-1.816.07-.067.066-.036.078-.012.075.022.087.047 1.847 1.346M345.899 343.982l-2.591-.668" clip-path="url(#p007219f4c3)" style="fill:none;stroke:#000"/><path d="m347.668 345.51-.79-.938-.251-.26-.293-.172-.435-.158M323.7 371.146l1.515-2.163M323.7 371.146l-4.643-2.53M313.762 384.393l1.196-1.192.232-.269.233-.297 2.632-3.472 3.847-5.536.184-.267.21-.293 1.404-1.921M332.93 349.588l4.4 2.533M332.93 349.588l-2.934 3.837M339.725 348.702l-3.99-2.456-.052-.02-.047-.006-.053-.001-.047.019-.028.022-.036.035-2.543 3.293M339.725 348.702l-2.395 3.419M339.725 348.702l3.583-5.388M346.588 357.478l5.012-7.073M346.588 357.478l-5.44-2.846M346.588 357.478l7.725 4.437M343.617 361.793l.943-1.336 2.028-2.98M329.996 353.425l-2.934 4.08M329.996 353.425l4.349 2.765M322.448 354.828l1.732-1.787 1.799-1.87.056-.046.04-.018.049-.015.092.009.105.026 3.675 2.298M334.345 356.19l-2.883 3.965M334.345 356.19l4.503 2.852M363.277 366.99l-4.438-2.533M363.277 366.99l4.666 2.638M363.277 366.99l1.184-1.613M363.277 366.99l-2.773 4.227M351.6 350.405l-3.932-4.896M319.057 368.617l1.673-2.32M319.057 368.617l-4.36-2.456M343.617 361.793l-2.594 3.985M343.617 361.793l-4.769-2.75M351.314 366.07l-1.724-.997-.797-.459-5.176-2.82M356.097 368.698l2.742-4.241M356.097 368.698l-2.963 4.06M356.097 368.698l-4.783-2.629M356.097 368.698l4.407 2.519M314.697 366.161l1.677-2.365M313.557 361.514l-1.038 3.293 2.178 1.354M331.462 360.155l-3.265 4.552M331.462 360.155l3.435 2.033M331.462 360.155l-4.4-2.65M341.023 365.778l-3.126 4.477M341.023 365.778l5.355 3.097M341.023 365.778l-4.224-2.522M327.062 357.505l-3.376 4.672M327.062 357.505l-4.614-2.677M322.448 354.828l-1.954 2.785M372.258 384.051l-2.348-1.463M377.046 380.592l-.247.462-.218.307-.67.614-.568.336-1.168.607-1.917 1.133M364.279 388.11l1.607.664.272.064.203.014.164-.032.164-.111.492-.424 2.59-2.363 1.746-1.359.741-.512M337.897 370.255l-3.066 4.37M337.897 370.255l-4.035-2.309M345.77 374.537l-1.099-.584-1.153-.623-5.62-3.075M334.831 374.625l-2.418 3.577M334.831 374.625l-4.24-2.117M334.831 374.625l5.064 2.346M359.495 382.059l-4.662-2.536M359.495 382.059l2.713-4.13M359.495 382.059l-2.071 2.943M328.197 364.707l-2.982 4.276M328.197 364.707l-4.51-2.53M328.197 364.707l4.032 2.238M316.374 363.796l4.356 2.501M316.374 363.796l2.628-3.999M325.215 368.983l-4.485-2.686M330.733 372.295l-2.676-1.46-2.842-1.852M319.153 359.581l-.151.216M319.153 359.581l4.533 2.596M320.494 357.613l-.56.795-.781 1.173M323.686 362.177l-2.956 4.12M356.081 358.966l-1.768 2.949M342.995 392.862l-.045-2.584.074-1.44.065-.846M343.522 383.734l-.255 2.643-.178 1.615M347.9 390.257l-2.808-1.398-2.003-.867" clip-path="url(#p007219f4c3)" style="fill:none;stroke:#000"/><path d="m329.386 386.169.804-.12.674-.119.392.219.26.557.305.417.414.04 1.196-.02.848.02.826-.139.718-.14.347-.118 1.218-.577 1.218-.398.913.02.653.358.37.477.043.517.283.298.717.34.63.138.586.017.288.036M350.244 377.018l-3.125-1.766-1.35-.715" clip-path="url(#p007219f4c3)" style="fill:none;stroke:#000"/><path d="m344.527 379.155.94-3.411.303-1.207M348.63 370.127l-1.998 2.94-.862 1.47M343.522 383.734l1.872.93M344.527 379.155l-.504 1.869-.113.463-.117.618-.271 1.629M354.313 361.915l4.526 2.542M354.313 361.915l-3 4.154M344.527 379.155l3.384 1.484" clip-path="url(#p007219f4c3)" style="fill:none;stroke:#000"/><path d="m339.895 376.971 2.744 1.344.878.401 1.01.439M336.83 411.207l-.246.267-.265.304-.154.205-.22.36-.04.095-.019.082-.01.089.039.3M351.314 366.07l-2.684 4.057M348.63 370.127l4.504 2.63M348.63 370.127l-1.806-1M354.582 398.952l-4.82-2.505M353.222 395.925l.254.83.222.579.29.62.594.998M357.645 407.036l.213-1.166-.01-.857-.14-.616-.27-.681-.685-1.433-.914-1.497-.91-1.43-.347-.404M360.35 392.911l-3.531-2.047M360.35 392.911l3.416-5.007M360.35 392.911l-1.456 2.43M336.427 394.35l2.488.429M300.526 391.623l4.002 2.518M301.646 390.039l-.479.654-.641.93" clip-path="url(#p007219f4c3)" style="fill:none;stroke:#000"/><path d="m303.363 395.797-3.606-2.089-.125-.082-.097-.101-.04-.071-.037-.092-.023-.097-.009-.082.031-.134.1-.167.969-1.26M347.602 399.58l2.16-3.133M347.602 399.58l-2.488 3.458M347.602 399.58l-5.034-1.26M327.453 397.28l-1.386 4.652M327.453 397.28l2.808.914M324.464 396.02l.895.505.44.196.632.229 1.022.33M312.47 386.074l.815-1.126M312.47 386.074l-.42.317M314.686 384.956l-1.286.716-.93.402M342.173 398.204l.395.116M341.156 401.164l.519-1.392.323-.958.175-.61M342.995 392.862l-.073 1.05-.14 1.044-.609 3.248" clip-path="url(#p007219f4c3)" style="fill:none;stroke:#000"/><path d="m338.362 397.351 2.583.583.903.204.325.066M324.464 396.02l2.003-2.02M324.464 396.02l-2.037 1.794M321.673 393.376l.693.556 1.106 1.069.992 1.018M345.475 394.043l-1.341-.66-1.14-.52M323.045 401.204l3.022.728M324.755 406.436l-2.296-.533-.113-.048-.083-.04-.076-.054-.044-.1-.02-.087-.011-.186.933-4.184" clip-path="url(#p007219f4c3)" style="fill:none;stroke:#000"/><path d="m314.314 399.3.534.458.306.202.412.149.425.057.5.006.752-.01.726.017.37.02.438.058.496.098 3.772.849M341.325 395.223l-2.41-.444M327.023 394.43l-.556-.43M338.915 394.779l-.553 2.572M304.952 393.602l.763-1.197M304.952 393.602l-.424.54M304.952 393.602l3.599 2.04M324.755 406.436l1.312-4.504M324.755 406.436l2.753.681M319.322 389.856l4.194 2.28 2.95 1.864M326.067 401.932l2.83.62M339.408 400.53l-1.74-.452M321.673 393.376l-.818-.512-.906-.49-.312-.132-.232-.078-.276-.054-.373-.042-.307-.034-.32-.047-1.007-.153" clip-path="url(#p007219f4c3)" style="fill:none;stroke:#000"/><path d="m314.56 392.725 1.493-.488.358-.122.306-.107.18-.068.225-.106M319.322 389.856l-1.02.962-1.18 1.016M332.38 398.747l.686-2.421.04-.085.053-.064.086-.037.09-.008.114.005 4.913 1.214M337.669 400.078l.238-.825.088-.401.367-1.501M319.92 395.453l.7-.634.154-.15.162-.18.233-.304.228-.374.276-.435M314.314 399.3l-1.28-.975M319.92 395.453l-1.444 1.065-3.236 2.562-.075.045-.063.028-.09.032-.698.114M317.229 393.184l-.907-.266-.343-.09-.338-.042-1.08-.06" clip-path="url(#p007219f4c3)" style="fill:none;stroke:#000"/><path d="m316.326 388.744-2.307 2.684-.288.38-.09.165-.061.176-.026.143.026.116.097.109.139.079.18.042.565.087M317.229 393.184l.634.28.545.3.373.263.32.307.343.448.475.67M313.035 398.325l-4.355-2.604M315.294 395.54l-1.64 2.07-.62.715M317.229 393.184l-1.935 2.357M335.34 399.532l2.329.546M335.34 399.532l-1.194 4.234M332.38 398.747l1.762.458 1.198.327M327.194 408.842l.314-1.725M332.826 408.348l-2.742-.61M332.826 408.348l1.32-4.582M334.146 403.766l2.57.674.077.03.053.03.05.048.012.092-.013.1-1.424 4.14-.032.071-.025.03-.037.023-.054.01-.06-.004-.716-.15-1.721-.512M332.826 408.348l-.73 2.72M330.084 407.737l-2.576-.62M330.084 407.737l1.198-4.615M330.084 407.737l-.807 3.294M331.282 403.122l1.098-4.375M331.282 403.122l2.864.644M331.282 403.122l-2.385-.57M332.38 398.747l-2.12-.553M327.508 407.117l1.39-4.564M330.26 398.194l-1.363 4.359M331.566 413.934l.53-2.866M365.097 373.755l6 3.425M365.097 373.755l2.846-4.127M365.097 373.755l-4.593-2.538M365.097 373.755l-2.89 4.174M349.761 396.447l-4.286-2.404M349.761 396.447l2.514-3.802M354.394 389.56l-4.474-2.374M354.394 389.56l1.81.934M354.394 389.56l3.03-4.558M354.394 389.56l-2.12 3.085M357.424 385.002l-4.806-2.185M357.424 385.002l1.858.896M329.277 411.031l2.82.037M322.904 422.989l.664-.782.656-.759.487-.583.143-.168.122-.221.1-.231.375-.93.376-.8.177-.401.232-.431.804-1.37.825-1.563.369-.708.204-.444.209-.49.276-.759.27-.95.084-.368M336.83 411.207l-.532-.428-.086-.065-.087-.057-.088-.039-.122-.011-.144.026-.568.25-.107.042-.125.032-.179.017-2.695.094M347.9 390.257l2.82 1.555 1.555.833M353.222 395.925l-.214-1.228-.052-.723.025-.593-.008-.138-.03-.109-.043-.064-.076-.057-.55-.368M368.095 381.391l-2.829-1.682-3.058-1.78M357.685 375.343l2.186 1.237 2.337 1.349M341.156 401.164l-2.232 7.2-.221.626-.164.388-.19.416-.26.339-.26.263-.457.38-.541.43" clip-path="url(#p007219f4c3)" style="fill:none;stroke:#000"/><path d="m345.114 403.038-6.26 9.18-.084.106-.07.055-.101.039-.103.013-.167-.012-.117-.053-1.381-1.16M368.095 381.391l3.002-4.21M368.095 381.391l-3.558 5.563M368.095 381.391l1.815 1.197M364.537 386.954l-.77.95M369.91 382.588l-.822.597-2.937 2.413-1.614 1.356M374.451 379.115l-3.354-1.935M374.451 379.115l2.595 1.477M369.91 382.588l1.71-1.055 1.581-.951.21-.165.325-.384.715-.918M363.766 387.904l-3.645-1.628M363.766 387.904l.513.206M381.948 383.384l-1.969-1.133-2.933-1.659M356.203 390.494l.616.37M356.203 390.494l.37-.56M355.102 393.261l3.792 2.08M355.102 393.261l1.717-2.397M353.222 395.925l.93-1.318.95-1.346M360.121 386.276l-.84-.378M356.83 389.546l.65.012.332-.034.279-.094.322-.207.312-.293.619-.756.236-.337.143-.28.165-.453.233-.828M356.574 389.934l2.497 1.35.336.086.28-.003.234-.071.208-.145.704-1.234M359.68 398.092l-.515-.257-.249-.132-.866-.494-.14-.12-.02-.112.018-.127.216-.352.77-1.156M359.282 385.898l-2.452 3.648M356.83 389.546l-.256.388M357.685 375.343l-2.852 4.18M357.685 375.343l2.819-4.126M357.685 375.343l-4.551-2.586M354.833 379.523l-4.589-2.505M354.833 379.523l-2.215 3.294M350.244 377.018l2.89-4.26M350.244 377.018l-2.333 3.621M349.92 387.186l-4.526-2.522M349.92 387.186l2.698-4.369M349.92 387.186l-2.02 3.071M370.441 356.331l-1.533 2.313M364.073 356.52l.936-1.476.42-.58.232-.115.177.003.276.068 4.327 1.911" clip-path="url(#p007219f4c3)" style="fill:none;stroke:#000"/><path d="m371.366 359.976 1.28-1.672.15-.276-.007-.163-.055-.121-.229-.182-.501-.313-1.563-.918M358.839 364.457l2.734-4.201M352.618 382.817l-4.707-2.178M347.911 380.64l-2.517 4.024M345.475 394.043l-2.16 3.227-.747 1.05M347.9 390.257l-2.425 3.786M369.25 367.875l-4.79-2.498M369.25 367.875l.08-.148M369.25 367.875l-.137.233M364.46 365.377l1.64-2.576M359.635 359.137l1.938 1.119M370.644 365.495l.616-.95M370.644 365.495l-1.314 2.232M370.644 365.495l-2-1.254M367.943 369.628l1.17-1.52M366.1 362.8l2.808-4.156M366.1 362.8l2.544 1.441M366.1 362.8l-4.527-2.544M371.366 359.976l-2.458-1.332M371.366 359.976l-2.722 4.265M371.26 364.545l1.807-3 .127-.318-.001-.093-.047-.11-.066-.074-.417-.222-1.297-.752M364.073 356.52l-2.5 3.736M364.073 356.52l4.835 2.124M381.433 376.549l-.128-1.267M381.433 376.549l.286 3.13M382.08 376.293l-.42.159-.227.097M369.33 367.727l5.826.805.169.024.17.084.06.108v.108M369.113 368.108l6.065 1.008.177-.027.11-.045.06-.094.03-.094" clip-path="url(#p007219f4c3)" style="fill:none;stroke:#000"/><path d="m380.65 369.642-2.071-.31-3.025-.476M387.586 378.95l-2.21-1.81-.45-.273-.286-.112-.341-.084-.586-.09-1.323-.226-.31-.062M381.305 375.282l.116.285.1.169.096.146.146.155.317.256M392.657 382.84l2.27-2.386M392.657 382.84l-2.387 2.496M392.657 382.84l-5.07-3.89M388.81 386.97l6.089 3.379 6.265 3.667 4.717 2.906.612.439M396.623 378.394l1.57 4.018 1.497 4.33.383.856.384.903.692 1.059.708 1.018 1.37 1.672 1.63 2.043.818 1.16.465.715.22.505.111.391.022.297M421.03 408.914l-.705-.536-6.062-4.396-1.718-1.207-.914-.755-1.57-1.578-.862-.917-.818-.816-1.188-.896-.7-.452M387.203 386.12l-2.86-1.475M388.81 386.97l-.921-.478-.686-.371M381.948 383.384l.633 6.233.11.438.1.142.166.118.144-.02.174-.112 3.928-4.062M381.305 375.282l-.308-2.161M380.65 369.642l.347 3.479M385.279 370.525l-1.4-.263-1.57-.31-1.659-.31M394.926 380.454l1.697-2.06M388.829 375.72l3.52 2.66 2.577 2.074M388.829 375.72l-2.127-1.591-.453-.215-.428-.166-.435-.121-.626-.111-3.763-.395M388.81 386.97l1.46-1.634M396.623 378.394l-.59-1.55-.788-1.626-.354-.627-.28-.411-.597-.634M385.279 370.525l3.148.755 1.783.56 1.379.505 1.385.567 1.04.634" clip-path="url(#p007219f4c3)" style="fill:none;stroke:#000"/><path d="m482.976 373.499-.257.37-.664 1.423-1.128 1.834-.958 1.349-.973.856-1.076.695-1.46.606-1.142.344-1.12.135-2.912.162-1.18-.047-1.555-.209-.685-.034-.723.081-2.152.418-3.634.937-1.061.19-1.224.033-1.4-.141-3.93-.75-1.843-.181-1.437-.007-1.024.115-1.32.25-1.725.343-1.216.432-2.226 1.213-1.798 1.214-1.652 1.41-.914.754-.759.358-1.695.606-1.799.628-1.54.667-.848.222-.774.088-1.482.027-2.322-.013-1.194-.088-1.209-.256-1.526-.6-.958-.378-.5-.1-.635-.015h-1.025l-2.358-.29-.553-.08-.406-.183-.22-.235-.126-.277-.17-.741-.301-1.457-.188-1.466-.03-.496-.089-.185-.254-.307-.28-.368-.778-.761-.564-.318-.71-.161-.671-.058-.458.053-1.492-.015-.67-.119-.473-.115-.457-.161-.471-.155-.988-.466-5.97-2.858-3.79-1.727-3.84-1.948M381.948 383.384l2.395 1.26M381.948 383.384l-.229-3.705M305.25 386.209l1.607-1.494M305.25 386.209l-1.444 1.443M305.25 386.209l3.66 2.966M386.41 382.237l-1.031-.907-1-.826-.729-.505-.38-.162-.324-.091-.52-.078-.467.004-.24.007M308.291 383.29l3.76 3.1M308.291 383.29l-1.434 1.425M313.285 384.948l-2.233-2.057-1.09-.94-.06-.054-.066-.027-.061-.013-.063.005-.057.032-.064.048-1.3 1.347M390.27 385.336l-3.86-3.099M386.41 382.237l-.563.708-.319.332-.195.202-.245.183-.187.21-.15.236-.172.248-.236.289M313.285 384.948l.477-.555M312.05 386.39l-1.654 1.376M314.251 387.761l-.524-.356-.567-.377-1.11-.637M387.586 378.95l-.228.884-.291.805-.656 1.598M387.586 378.95l1.243-3.23M345.114 403.038l-3.958-1.874M307.322 390.679l.866-.741M307.322 390.679l-3.516-3.027M305.947 392.075l.332-.39 1.043-1.006M305.947 392.075l-.232.33M305.947 392.075l-3.468-3.034M310.396 387.766l-3.539-3.051M308.91 389.175l.763-.647.723-.762M302.479 389.04l1.327-1.388M301.646 390.039l.435-.547.398-.451M301.646 390.039l4.07 2.366M308.91 389.175l-.722.763M304.528 394.141l-.597.833-.568.823M301.436 409.245l.4-1.184.384-1.376.27-1.365.18-1.77.075-1.436-.02-1.16-.002-1.274.022-.957.125-1.497.068-.37.083-.316.136-.332.206-.411M308.68 395.72l.469-.174 2.762-.902.451-.169.157-.052.171-.034.147-.022.16.005.2.061.297.122 1.8.986M308.68 395.72l-.13-.078M316.643 388.4l-.317.344M324.224 381.445l-3.317 3.017-1.894 1.733-1.088.978-1.282 1.227M319.322 389.856l-.942-.512-1.737-.944M324.224 381.445l-1.069-1.473M324.224 381.445l1.546 2.197M314.251 387.761l2.756-1.781M314.251 387.761l-3.14 3.916M316.326 388.744l-.807-.416-.573-.29-.695-.277M311.11 391.677l-2.922-1.74M308.55 395.642l-.006-.231-.007-.172-.003-.139.015-.153.035-.17.09-.196.115-.178.22-.224 2.101-2.502M329.933 381.167l.282-.15.394-.245.24-.183.185-.21 1.38-2.177M327.788 378.687l1.664-1.803.06-.047.062-.027.083-.006.114.04 2.642 1.358M329.933 381.167l-2.145-2.48M325.77 383.642l1.318-1.145.413-.324.556-.327.575-.263.837-.253.464-.163M327.755 386.202l-1.985-2.56M326.207 387.078l-1.832-1.87M341.148 354.632l.929-1.652M341.148 354.632l-2.3 4.41M338.848 359.042l-2.049 4.214M326.87 377.682l.918 1.005M330.59 372.508l-3.167 4.47-.553.704M323.155 379.972l2.573-1.504.674-.424.468-.362M330.733 372.295l3.129-4.349M330.733 372.295l-.142.213M333.862 367.946l2.937-4.69M333.862 367.946l-1.633-1.001M336.8 363.256l-1.903-1.068M339.895 376.971l-1.202 2.851M324.375 385.207l-.438.364-1.24.989-1.212.95-.263.263-.31.324-1.59 1.76M325.77 383.642l-.75.878-.645.687M314.686 384.956l5.012-2.921 3.457-2.063M334.897 362.188l-2.668 4.757M469.607 268.922l-.08.278.005.079M471.964 268.273l-.445-.206-.763-.039-.705.313-.444.58" clip-path="url(#p007219f4c3)" style="fill:none;stroke:#000"/><path d="m465.019 261.658.06.09 2.713 3.103 1.105 1.294.457.675.207.445.103.378.044.404.015.432-.116.443M469.532 269.279l-.099.558-.196.436-.354.499-.546.58-.893.858-.346.341M469.532 269.279l.027.492.335.577.584.38.271.051M472.29 268.567l-.326-.294M471.007 270.829l.74-.15.543-.414.246-.446.064-.388-.06-.404-.25-.46M472.29 268.567l3.742 5.118M471.007 270.829l.854.024.53.094.59.202.693.405.663.566 1.695 1.565M471.007 270.829l-.258-.05" clip-path="url(#p007219f4c3)" style="fill:none;stroke:#000"/><path d="m467.098 272.551.445-.36.72-.502.826-.485.788-.293.391-.085.481-.047M467.098 272.551l-3.95 3.076-2.072 1.718-1.91 2.139-1.798 2.617-1.363 2.338-1.497 3.92-.707 3.776-.03 2.32.352 2.91.931 10.55.436 2.86.169 2.07-.022 1.1-.133 1.051-.324 1.416-.745 2.785" clip-path="url(#p007219f4c3)" style="fill:none;stroke:#000"/><path d="m387.468 360 4.924-1.282.966-.276 1.43-.351 4.718-1.247 2.292-.674 2.528-.77 2.64-1.017 1.96-.816 2.845-1.349 1.865-1.004 1.496-.951 1.423-.958 11.504-7.81 8.914-5.912 5.676-3.77 3.354-2.258 1.946-1.41 1.378-1.193.958-.978.922-1.045 1.496-2.07.671-1.025.273-.553.442-1.099.346-.985M449.327 310.491l1.91 1.64 1.312 1.071.685.513.464.277.295.249.25.283.104.256.044.35-.103.878-.125.802-.06.614.015.54.126.707.191.526M471.964 268.273l-6.945-6.615M386.193 360.317l-1.504.424-3.95 1.012-7.28 1.939-.85.276-.683.253-.666.324M384.998 140.71l2.455 5.904 7.583 13.336 10.225 17.312 8.433 14.352 9.2 15.432 9.175 15.762 9.695 13.157 8.763 10.097 14.492 15.596M554.595 432.367l.538-1.206 1.916-4.444 1.533-3.6.42-1.28.273-1.282.132-1.932.524-5.828-.059-1.517-.08-1.248-.148-1.328-.214-.991-.752-2.59-3.007-9.735-.958-3.129-.214-1.018-.14-1.16-.037-1.092.08-2.232-.065-1.12-.34-1.57-.766-1.841-.685-1.106-.797-1.031M537.965 377.275l1.04.276 1.865.25 1.489.074 2.13.06.965.007 1.423.02.885.122.685.108 1.187.384.641.31.583.365.891.836" clip-path="url(#p007219f4c3)" style="fill:none;stroke:#000"/><path d="m559.511 384.752-.575-.222-.317-.196-.221-.141-.649-.648-.855-1.085-1.031-.789-1.372-.742-1.349-.479-1.393-.363M554.595 432.367l-.18.289-.195.407-.3.691-.166.387-.261.653-.243.597-.14.435-.157.693" clip-path="url(#p007219f4c3)" style="fill:none;stroke:#000"/><path d="m554.432 436.765-.173-.835-.051-.35-.06-.695-.003-.317.01-.342.047-.303.1-.472.182-.613.11-.471M498.563 316.292l-.733-4.833-.598-3.408-.745-3.192-2.153-6.178-2.476-5.178-2.595-4.29-2.676-3.74-10.555-11.788M531.285 374.198l-1.31-.679-8.27-4.39-3.42-1.88-3.443-1.91-1.526-1.017-1.282-1.052-.966-.964-.715-.87-.818-1.025-.781-1.16-1.113-2.117-1.13-3.158-2.836-7.914-.693-1.962-.693-2.461-.383-1.7M498.563 316.292l.644 4.246.332 2.597.398 3.891.244 1.956 1.725 10.957M496.657 339.083l.015.31.081.216.228.25.42.148 1.32.074 1.651-.054 1.534-.088M555.122 438.106l-.69-1.341M558.269 441.867l-.534-.502-.612-.56-.767-.822-.582-.752-.428-.695-.224-.43M553.91 439.193l.255-.098.167-.06.17-.098.155-.097.135-.118.125-.184.096-.159.051-.106.058-.167M596.227 499.867l-1.342-4.315M604.039 516.024l-2.306-2.843-.84-1.03-.745-1.167-.479-.897-.604-1.544-2.838-8.676M592.202 503.548l-.398-1.167-.022-.303.096-.242.28-.257.538-.27 2.477-.977 1.054-.465M554.432 436.765l-.202-.226-.144-.098-.23-.1-.3-.038-.24.02-.192.068-.171.128M565.326 445.422l-4.93-2.254-1.128-.6-1-.701M553.91 439.193l.132.18.29.293.403.262.611.317 1.021.516.612.324.575.374.715.408M552.953 436.519l-.002.217.007.19.007.215.06.306.128.47.21.478.251.425.295.373" clip-path="url(#p007219f4c3)" style="fill:none;stroke:#000"/><path d="m549.118 440.296.567-.36.538-.3.52-.18.546-.12.914-.095 1.706-.048M552.953 436.519l-.728.804-1.581 1.507-.682.61-.844.856M470.274 418.338l.739.366 2.447 1.156 1.283.614 1.843 1.025 2.94 1.733 1.645 1.065.936.499.774.465.965.66 1.496.945 2.47 1.382 2.248 1.328 1.961 1.301 6 3.513 1.894 1.207 3.31 1.847 2.867 1.726 6.915 4.423 3.066 1.78 1.106.654 1.157.62 1.533.573 1.6.425 1.444.195 1.047.02 1.342-.087 2.248-.263 2.174-.378 1.887-.29.833-.134 1.135-.263 1.342-.512 5.75-1.888 5.86-2.326 2.587-1.423M158.388 453.278l-1.852 1.18-2.284 1.136-1.43.411-.825.095-.84-.034-.693-.054-.67-.216-.581-.261-.364-.164-1.039-.654-6.206-3.924-1.025-.62-.847-.405M129.538 448.995l5.358-.157.643.04.794.054 1.467.27 1.932.566M246.606 377.848l-2.064 1.24-1.172.938-.914.91-.533.624-.529.853-.375.829-.878 2.239-.287.41-.48.432-.563.371-2.717 1.49-1.74 1.302-.78.98M228.812 405.27l.98-1.82.59-1.49.457-1.592 1.268-6.631.376-1.203.538-1.255.553-.812M244.49 400.132l1.268-1.989.25-.445.168-.356.072-.28.026-.197-.008-.28-.08-.222-.163-.189-.238-.158-3.093-1.413-3.074-1.268-1.386-.6-1.397-.664-3.261-1.604" clip-path="url(#p007219f4c3)" style="fill:none;stroke:#000"/><path d="m285.58 342.394-1.492-.283-1.216-.149-1.371-.013-.878.121-.655.297-.553.458-.538.6-3.737 5.584-2.52 4.222-2.058 2.952-1.872 2.394-.819.998-.744.714-3.826 3.514-4.106 3.34-1.319 1.036-1.01.897-.66.785-.519.698-1.069 1.605-.678 1.065-.41.593-.39.432-.527.404-2.609 1.445-3.398 1.745M236.27 341.084l.204 1.91.011.335.015.427.022 3.331-.037.571-.125 1.31-.153 1.13-.054.357-.068.295-.44 1.78-.116.326-.17.3-.11.158-.135.152-.719.596-.178.17-.131.17-.1.213-.066.22-.035.692-.042.286-.038.264-.049.22-.054.2-.828 2.262-.067.253-.027.13-.01.136.022.32.103.792.38 1.932.155.52.195.583 1.703 3.958.538.938.925 1.371.206.274.127.202.143.253.567 1.014.19.3.153.167.14.137 1.787 1.406 1.812 1.404.154.111.15.106.831.548.154.098.158.09 1.735.954.273.166.188.128.21.157.837.64M215.95 416.57l6.972-5.28 3.148-2.743 1.14-1.23 1.602-2.047M223.578 402.232l.671 1.318.159.226.187.172.235.147.24.104.377.097 1.48.387.276.078.304.094 1.305.415M313.557 361.514l.332-.072 1.608-.465 3.505-1.18M303.637 321.328l.283 1.133.225.82.265.859.185.796.129.668.1.845.028.638v.428l.037.421.078.395.114.421.616 2.26 1.275 3.995.36 1.041.186.627.11.698.033.836-.122 2.57-.014.762.007.913.062 1.147.29 2.723.274 1.609.282 1.148.176.457.257.523.745 1.038.484.42.447.33.517.3.734.322 1.002.457.304.148.312.167 1.08.6.405.237 2.41 1.58 3.181 1.953M313.557 361.514l-.589.127-3.781.354-1.12-.054-.782-.195-.7-.324-.877-.634-7.35-7.558-1.507-1.639-1.456-1.409-3.663-3.242-.392-.309-.343-.3-.209-.191M285.58 342.394l.51.226.344.167.595.382.664.54 3.095 2.43" clip-path="url(#p007219f4c3)" style="fill:none;stroke:#000"/><path d="m276.689 265.62 1.061.997 2.182 2.753.914 1.887 1.091 2.294 1.032 1.78 1.032 1.025 1.415 1.105 1.77.676 2.181.647 2.005.189 1.68-.108 1.563-.108 1.887.566 1.268.89.472.943-.089 1.133-.737 2.079-.56 1.94.06 1.863.442 2.4.618 1.62.266 1.887-.62 2.272-.17 1.707-.036 3.25-.193 2.229-.15.536-.258.56-1.044 1.908-.228.556-.151.533-.055.661.029.947-.007 1.666.047 1.976-.018.315-.035.232-.057.256-.733 2.326-.089.735.048.775.18.701.25.547.59 1.085 1.46 1.976.325.52.228.539.236.836.11 1.032.008 1.328-.059.756-.184 1.058-.338.951-.392 1.018-.486.957-1.556 2.904-.313.593-.302.65-1.106 2.445-.39.826-.329.64-.92 1.565-.396.715-.202.445-.114.576-.052.692-.026.647.01 1.024.034 1.596" clip-path="url(#p007219f4c3)" style="fill:none;stroke:#000"/><path d="m303.904 143.78-10.32 5.225-1.207.783-1.089 1.745-2.568 6.407-2.1 4.806-.896 5.376-1.206 4.271-1.634 5.66-2.062 6.48-2.178 3.559-3.813 5.447-2.607 6.514-2.178 6.585-.74 3.097-.233 1.744.506 5.162-.117 1.709-.623 1.46-3.345 5.516-.506 2.492-.039 6.87.39 2.563.7 1.388 2.217 1.994 2.918 1.993 1.167 1.068 2.218 4.414.583 4.84-.339 3.761-.022.839-.09.797.157.327.805 1.513.513 1.758.313 1.574.21 2.104M260.26 533.884l-.272.408-.409.677-1.327 1.884-.178.27-.187.293M252.47 546.503l3.534-5.676 1.7-3.06.183-.35" clip-path="url(#p007219f4c3)" style="fill:none;stroke:#000"/><path d="m268.856 544.511-1.748-1.168-.285-.177-.24-.126-.213-.11-2.424-.96-.838-.381-.134-.077-.175-.107-.126-.105-.564-.557-.169-.157-.122-.101-.133-.094-.91-.614-.175-.119-.127-.094-1.522-1.148-.104-.08-.076-.064-.094-.082-.79-.774M250.255 547.65l.923.291.32.114.334.158.759.38M268.604 561.124l-.43-.195-.642-.37-.567-.452-4.028-3.36-6.27-5.046-2.174-1.787-1.902-1.32" clip-path="url(#p007219f4c3)" style="fill:none;stroke:#000"/><path d="m252.47 546.503-.216.427-.105.4-.008.289.056.256.114.243.28.476M278.486 449.209l-.45.567-1.04 1.193-1.43 1.564-.92.944-1.106.978-3.708 2.737-2.078 1.517-1.298 1.03-1.349 1.457-4.724 5.67-1.549 1.72-.565.498M260.235 492.052l-2.978-3.915-2.565-3.594-.84-1.288-.516-.87-.317-.882-.207-1.214-.191-2.022-.06-1.086-.014-1.105.08-1.474.185-.869.284-.553.457-.667.641-.594 1.066-.792 1.592-1.062 1.061-.741.356-.24" clip-path="url(#p007219f4c3)" style="fill:none;stroke:#000"/><path d="m291.3 480.198-.932 1.305-.567.667-.382.368-.278.208-.302.103-.32.036-.4-.034-.64-.152-2.477-1.028-6.759-3.007-1.003-.209-1.004-.046-.573.028-.008.003-.547.078-.765.146L270.09 480l-.232.101-.31.064-.235-.013-.232-.064-2.816-1.375-1.128-.58-.472-.332-.31-.238-.648-.59-1.968-2.38-.539-.653-.585-.806-.41-.577-1.936-3.472M260.235 492.052l7.755 10.195 6.051 8.332.531.729.457.606.221.526.129.488.031.279-.045.494-.174.492-.686 1.146-.884 1.274-5.645 7.001-1.804 2.137-.375.479-.181.26-2.208 3.306-.337.471-.348.479-1.659 2.043-.346.44-.457.655" clip-path="url(#p007219f4c3)" style="fill:none;stroke:#000"/><path d="m260.235 492.052-.126 2.034-.038.337-.03.194-.062.248-.186.643-.06.208-.043.24-.013.252-.035.352-.061.36-.094.365-.555 1.952-.019.06-.022.047-.036.055-.036.038-.158.15-.06.079-.048.087-.037.103-.102.389-.042.122-.055.117-.098.151-.487.651-.156.212-.142.237-.684 1.137-.191.32-.214.3-.166.206-2.104 2.322-.275.285-.287.243-.25.189-3.388 2.319-.284.2-.225.182-.343.285-2.705 2.548-.25.347-.118.294-.07.32.014.401.605 3.452.077.374.11.411.546 1.58.14.375.166.388.225.404.32.526 1.342 1.608.118.124.146.156.757.735.122.123.128.14.933 1.074.195.24.229.31.598.83.054.077.078.101 1.422 1.834.251.303.31.317.537.515 1.538 1.583.206.206.214.177 3 2.288M250.255 547.65l.82-.177.263-.073.212-.054.164-.113.159-.147.597-.583M108.305 560.646l1.057-.108 2.816-.06 1.21.06 1.09.115.984.162 1.245.303 1.029.33 1.095.465 1.876.917.482.179.384.104.331.038.24-.065.32-.148 2.2-1.28.462-.338.42-.33 1.539-1.296.351-.293.372-.285 1.591-1.22.345-.3.287-.313.59-.715.361-.58.302-.573.914-2.386.309-1.234.1-.438.063-.404.037-.671.048-2.5.077-.914.078-.442.14-.486.276-.572.398-.59.704-.948.295-.333.331-.36.365-.304.501-.36 4.294-2.158.328-.15.365-.13.408-.092.421-.052.704.01.66.07 2.318.644.992.273.803.223.995.202.914.128 2.256.243 3.007.27 5.116.437 4.828.48 6.405.842 1.018.195.663.155.693.25.612.303.619.377 1.88 1.403.693.492.73.445.95.492 1.194.519 1.036.24.874.094 1.01.003 3.556-.33.696-.065.808-.08 5.848-.28 1.018-.135.689-.084.711-.186 6.959-1.954 1.209-.25 1.179-.169 2.867-.377 2.226.04 1.534.162.914.169 1.18.411 4.48 1.726 1.954.829.501.21.553.276 1.91.977.611.266.789.165.832.024 1.022-.027 6.635-.117.46-.001.618-.01 4.04.01.777-.06.678-.122.944-.253 4.688-2.202.337-.149.318-.093.304-.036.46-.01.501.05.673.126.979.2 1.09.317M413.759 148.261l1.48-.254 2.804-.31 2.25.591 1.525.992 1.405 1.514.988 1.384 1.608 2.06 1.655 1.558 1.167 1.384 1.774 2.168.726 2.026.346 1.94.381 1.776.37 1.558.321 1.362.31 1.417.404 1.057.024 1.013.274 1.057.452.763 1.25-.153 1.68-.152 1.917-.25 1.012-.448.631-.392.239-.687-.31-.511-.608-.316-1.726.054-.107-.294-1.024-.12-1.453-.087" clip-path="url(#p007219f4c3)" style="fill:none;stroke:#000"/><path d="m410.461 140.251 1.973-.084 1.448.14-.123 7.305v.65M410.865 147.863l1.953.504.94-.106M406.115 136.19l2.096 2.313 2.25 1.748M410.474 146.286l.07-3.258-.083-2.777" clip-path="url(#p007219f4c3)" style="fill:none;stroke:#000"/><path d="m397.495 142.734-.115-1.682.735-1.114.942-.4 2.297-.82.528-.945 3.584-.736.65-.847M404.142 135.654l1.202-.084.771.62M384.998 140.71l2.09-.562 4.273-1.345 6.93-1.557 1.788-.548 1.629-.536.554-.198 1.88-.31M413.936 133.4h-1.499l-7.255 1.48-1.04.774M381.955 129.803l2.113 8.67.93 2.237M410.865 147.863l-.39-1.577M410.865 147.863l-2.16-.63M408.705 147.232l1.08-.357.69-.589M397.495 142.734l-1.034.526M408.705 147.232l-3.262-1.156-2.55-.42-1.424-.19-1.815-.588-1.195-1.324-.964-.82M303.904 143.78l3.18-1.61 5.563-2.67 2.334-.428 11.01 1.46 23.888 3.916 1.517-.142 9.26-2.172 1.712-.748 17.173-10.675 2.414-.908M537.965 377.275l3.921-2.394 1.46-.755 2.322-.951 6.015-2.259 5.086-1.888" clip-path="url(#p007219f4c3)" style="fill:none;stroke:#000"/><path d="m583.925 344.754-2.109 6.42-1.201 4.038-.398.95-.413.675-.346.418-.892.6-5.92 3.088-1.88.985-12.619 6.44-1.378.66M636.739 372.845l-1.268.35-1.32.135-1.474.06-1.091-.006-1.142-.155-1.29-.31-.84-.438-1.092-.83-1.179-1.274-.781-.694-.546-.358-.759-.37-3.148-1.16-1.732-.918-1.216-.762-.634-.27-2.071-.458-3.162-.573-4.187-.344-3.273-.263-1.725-.094-.855.007-.921.094-1.644.23-3.708.613-2.491.526-1.364.209-1.275.013-2.535-.25-2.536-.343-.885-.074-1.157.02-3.494.303-2.927.223-1.547.276-1.622.27-4.165 1.086-4.54.93-2.905.593-2.152.19-1.312.053-2.005-.054M531.285 374.198l2.98 1.546 1.968.984 1.732.547M596.195 313.528l-1.487 2.399-2.366 3.877-.568 1.025-.287.695-.494 1.362-.619 1.955-1.643 5.294-1.261 3.776-1.85 5.799-1.695 5.044M588.808 344.447l-.579-.128-.412-.04-.616-.038-1.474.017-.406.068-.405.08-.991.348M596.195 313.528l.385-.622 4.015-6.478 1.46-3.452 2.948-2.482 8.374-7.013 1.297-6.582-2.359-15.645-1.887-8.416-2.83-2.482-4.364-6.906 2.376-7.911-.107-4.407 3.318-2.938 1.499-2.938 5.244-5.19 1.178-2.546 4.495-9.01 5.673-2.251 2.159-.84M603.048 190.529l.12.511-.76 1.316-.758.292 1.318 5.592 2.517 2.266 10.784 6.688 9.267 6.103 3.533 2.121M301.436 409.245l-1.058.28-1.769.488-.781.206-.325.1-.279.112-1.272.553-.745.354-.35.169-.344.249-.278.226-1.206 1.092-.486.334-.46.246-.353.106-.393.05-.467.012-.914-.033-.951-.057-.276-.013-.218-.028-1.194-.177-.507-.064-.487-.037-.424.007-.838.015-.575-.02-.381-.039-.382-.086-.282-.143-.261-.174-.798-.654-.38-.25-.417-.219-.814-.387-.77-.428-.84-.536-.236-.27-.093-.22-.04-.22v-.258l.076-.362.073-.193.094-.15.387-.478.186-.248.063-.219-.015-.21-.057-.292-.18-.284-.274-.271-.261-.24-.277-.209-.324-.168-.306-.124-.258-.041-.228-.013-.749.046-.854.068-1.173.08-1.463.032-.658.03-.493.064-.334.135-.283.168-.329.216-1.596 1.237-.821.604-.67.488" clip-path="url(#p007219f4c3)" style="fill:none;stroke:#000"/><path d="m278.486 449.209.276-.36.571-1.015.31-.951.148-1.065-.082-1.24-.25-1.558-.228-1.382-.391-2.104-.103-1.031.013-.964.089-1.457.2-1.288.243-.748.413-.748.612-1.133 1.23-1.888 1.63-1.766 1.4-1.187 1.43-.917 2.22-1.146 3.78-1.807.686-.344.582-.36.862-.705.848-1.052 1.99-3.418 2.36-3.607 1.2-2.434.91-2.29M356.406 410.586l-.505-.137M355.529 426.454l.119-.403.283-.713.201-.376.164-.274.39-.492.863-1.173.877-1.376.324-.83.144-.657.1-.765.026-.725.04-2.026-.018-.502-.063-.32-.221-.889-.254-.585-.27-.468-.197-.283-.182-.24-.49-.623-.598-.867-.162-.374-.084-.313-.115-.594M357.645 407.036l-.27.671-.232.6-.213.473-.245.715-.279 1.091M370.02 393.66l-.913-.29-1.29-.33-1.438-.615-.854-.485-.524-.485-.2-.378-.08-.553-.066-.87-.148-.721-.228-.823M400.917 424.873l-.564-.603-.45-.776-.67-1.234-1.143-2.009-.884-1.537-1.732-3.58-.73-1.274-.435-.735-.597-.79-2.845-3.168-.93-.998-1.134-1.038-.767-.769-.568-.775-.707-.897-1.6-1.362-1.614-1.295-1.165-.775-.995-.54-.67-.539-.93-.715-1.842-1.18-.914-.492-1.452-.775-.885-.688-1.172-1.058-.877-.681-.509-.243-1.267-.445-.848-.243" clip-path="url(#p007219f4c3)" style="fill:none;stroke:#000"/><path d="m372.431 408.608-.265-1.046-.11-.519.007-.687-.015-.58-.022-1.241-.015-1.767-.022-.937-.302-1.631-.376-1.962-.457-2.542-.324-1.322-.177-.37-.332-.345M440.357 409.625l-.7.226-.487.06-.575.005-.572-.038-.416.03-1.806.513-.199.159-.236.354-.184.27-.184.242-.25.155-1.122.357-1.452.391-1.304.31-.826.068-.751.027-.893-.108-.987-.29-1.592-.546-.804-.27-.59-.323-1.761-1.157-.936-.68-.7-.466M416.135 445.339l-.48-1.557-.28-.964-.088-.648.052-.492.176-.633.274-.742.331-.79.722-1.475.376-.762.59-.938.73-.89 1.356-1.948 1.487-2.295 1.233-1.777 1.21-1.517.803-1.005.78-1.166.723-1.456.424-.948.468-1.068.221-.702.214-.593.037-.627-.133-.87-.177-.937-.22-.951-.517-.991-.428-.681-.928-1.26-.878-.857-1.016-1.018-.642-.904-.376-.66-.604-1.16-.546-1.143M400.917 424.873l.343.368.339.344.347.424.648 1.032.715 1.233.472.776.884 1.349 1.18 1.651.862 1.1.45.444.354.23.494.182.471.067.295.095.472.431 1.165.883.523.425.31.357.412.587.84 1.463 1.269 2.548.766 1.564 1.607 2.913M421.376 461.257l-.243-.728-1.07-2.885-1.171-2.92-.693-1.679-.516-1.76-.774-2.919-.774-3.027" clip-path="url(#p007219f4c3)" style="fill:none;stroke:#000"/><path d="m433.006 404.006 1.289 1.196.283.264 2.539 1.792 3.24 2.367M460.1 412.72l-1.411-.715-1.08-.424-.867-.273-1.01-.273-1.134-.378-.782-.182-1.636-.283-4.858-.836-2.72-.317-.604-.054-.553-.034-.52.014-.46.06-.973.29-1.135.31M387.468 360l-.206.667-.081.64.037.783.044.714-.015.77.03.896-.11.775-.443 1.282-.302 1.025-.516 1.584-.627 1.39M387.468 360l-.692.175M386.193 360.317l.583-.142M384.38 355.677l.501 1.66 1.04 2.514.272.466M382.994 344.039l-.051.492-.074.661-.118.742-.2 1.476-.006.682.257.465.42.566.671.364.93.425.618.216.406.175.214.23.213.458.089.516.029.489.118 2.791.214 2.596.103 1.35-.051 1.442M269.725 331.794l1.84 1.27.281.181.314.167.517.25.225.104.25.128 2.533 1.345.403.25.526.33 1.93 1.373 1.895 1.48.59.47.177.118.183.093.245.104 1.34.52.499.188.807.357.195.089.153.083.124.105.116.154.086.16.627 1.28M355.529 426.454l-.709.504-1.45 1.006-1.917 1.37-.796.471-.686.35-1.577.641-2.322.87-.667.266-.66.31-.9.474-.297.19-.248.184-.296.287-1.318 1.573-.512.471-.369.29-.464.297-.616.26-4.765 1.547-.557.118-.593.047-.73-.044-.674-.108-1.122-.258-.383-.117-.314-.134-1.081-.509" clip-path="url(#p007219f4c3)" style="fill:none;stroke:#000"/><path d="m384.948 502.193-2.632-4.025-1.091-1.766-.25-.317-.988-.795-.855-.553-.848-.735-1.26-1.146-1.821-1.888-1.629-1.322-1.902-1.253-2.027-1.322-1.71-1.01-.634-.244-1.002-.175-.804-.162-.56-.175-1.393-.83-1.202-.761-1.835-.66-.605-.203-.427-.152-.391-.205-1.349-.863-.917-.576-.598-.27-.593-.166-.394-.06-.382-.01-.425-.014-2.171.117-.46-.026-.497-.126-.34-.19-.318-.267-.191-.27-.103-.306-.093-.297-.405-1.197-.258-.59-.229-.472-1.215-2.035-2.249-3.77-.733-1.316-.087-.123-.09-.094-.297-.313-.054-.082-.036-.074-.035-.112-.05-.38-.054-.175-.074-.138-.1-.122-.463-.478-.23-.238-.185-.254-.127-.261-.064-.208-.019-.29.033-.313.1-.442.442-1.86.026-.228.004-.197-.081-.462-.155-.556-.32-.978-.065-.28-.031-.253-.006-.28.002-.225.316-2.481.049-.475.022-.327.004-.344-.196-3.007-.026-.492-.003-.513.07-.445.12-.41.13-.331.28-.634 1.128-1.648.273-.446.25-.407.472-1.042.55-1.443.497-1.446.641-1.747.113-.335.097-.342.457-2.012.24-1.227.138-.572.12-.42.294-.849.436-.809.582-.789.656-.661 1.673-1.813 1.578-2.212.335-.647.232-.567.31-1.017.36-1.228.185-.782M314.686 384.956l-.267-.018-.185-.04-.186-.093-.096-.078-.08-.101-.057-.097-.053-.136M346.378 368.875l.446.251M627.17 534.04l-11.38-7.558-4.769-3.236-1.371-1.105-.664-.52M604.039 516.024l1.284 1.411 2.646 3.013 1.017 1.173M419.54 465.774l.369-1.213.265-.58 1.091-1.558.118-.626-.007-.54M388.46 495.74l.814-1.468.834-1.531.456-.634 1.408-1.651 1.674-1.571 2.417-1.793 3.044-1.942 1.231-.897.517-.512.744-1.004.487-.729 1.068-1.948 1.224-1.746 1.157-1.625.221-.465.642-1.807.456-1.133.185-.303 1.068-1.166 1.003-1.099.605-.573.56-.378 1.754-.896 1.12-.904 1.6-1.47 1.157-1.483 1.372-1.8.383-.438.346-.256 1.4-.688 1.106-.404.863-.17M444.16 501.027l-1.504-.128-2.698-.176-.737-.189-.663-.418-1.364-1.422-.575-.755-.39-.728-.236-.924-.155-1.133-.56-3.943-.126-.85-.191-.762-.369-1.065-.634-2.184-.737-3.95-.25-2.603-.148-.917-.28-.782-.236-.553-.56-.97-.929-1.146-2.61-2.455-1.901-1.9-.988-1.107-.53-.539-.428-.283-.56-.31-3.266-1.41-.56-.29-.287-.316-.148-.567v-.478" clip-path="url(#p007219f4c3)" style="fill:none;stroke:#000"/><path d="m418.36 477.72-1.82-1.752-.59-.634-.28-.485-.088-.5.074-.903.442-1.537 1.386-2.973.987-2.205.244-.492.331-.297.494-.168M449.585 504.458l-.7-.613-1.835-1.274-1.932-1.241-.45-.196-.508-.107" clip-path="url(#p007219f4c3)" style="fill:none;stroke:#000"/><path d="m525.707 516.41-.973.284-1.872.633-.767.304-.848.492-.78.573-1.623 1.658-2.012 2.46-1.754 2.063-1.26 1.275-.384.256-.516.23-.818.229-1.762.41-1.002.196-.612.054-.545-.054-.612.034-.65.161-.463.122-.811.02-1.312-.054-3.391-.1-4.614-.277-2.617-.169-4.452-.485-3.347-.66-3.708-.945-4.592-1.186-4.784-1.234-2.955-.809-.583-.08-1.142.006-1.718-.013-.663-.122-.42-.162-.405-.343-.332-.486-.236-.451-.06-.425.075-.452.309-.667.317-.661.074-.222-.052-.284-.272-.593-.177-.35-.443-.843-.273-.343-.368-.371-.929-.756-1.356-1.368-1.636-2.002-.553-.695-.259-.6-.25-.707-.221-1.099-.096-.883-.184-1.16-.388-.936-.21-.318-.737-.633-.751-.506-.435-.196-.826-.283-.914-.37-1.194-.635-2.233-1.159-1.202-.52-.369-.06-.582.014-1.57.303-1.393.35-1.054.217" clip-path="url(#p007219f4c3)" style="fill:none;stroke:#000"/><path d="m452.254 510.943-.332-1.334-.59-2.4-.317-.81-.457-.829-.973-1.112M433.2 531.74l-1.077-1.294-.354-.566-.096-.317-.044-.431-.015-.385.118-.445.76-1.429 1.23-1.988 1.077-1.794.818-1.382 1.025-1.955 1.046-1.746.317-.424.826-1.005 1.51-1.53 2.065-2.245 3.272-3.418 2.772-2.872.663-.876.28-.432.126-.37.066-.378M452.254 510.943l.42 1.686.346 1.806.089 1.443-.052.957-.081.506-.236.822-.236.762-.442.796-.627.822-.928.957-1.947 1.948-1.643 1.834-1.246 1.281-.398.506-.442.789-.45.795-.59 1.72-.294.997-.034.434.049.213.099.199.24.448.427.647.398.647.221.553.31 1.092.191 1.982.354 2.872.339 2.44.207 2.656.191 2.723.546 3.694.545 3.02.148 1.362.088 1.888.369 3.208.184 2.191.413 3.35.714 5.326.399 4.071.39 3.998.023 1.57.044 1.2.055.395.122.4.575 1.052.928 1.82.583 1.092.14.405.03.458-.06.404M446.165 594.693l1.165-.916 2.403-1.86 2.314-2.036.678-.7M487.008 597.397l-1.614-.39-1.51-.473-1.46-.478-.892-.169-.929-.074-.774-.007-.988.182-.773.135-.303.034-.376-.034-.486-.074-.974-.364-1.85-.681-1.312-.573-1.356-.35-.76-.135-1.29-.087-.743-.082-.561-.188-.67-.317-.568-.378-.877-.546-1.069-.525-2.646-1.018-1.276-.573-1.253-.439-.877-.161-.752-.095-.906-.128-.892-.188-.93-.155-.589-.02-.891.047-1.136.087M616.18 544.825l1.239-1.834 1.142-1.49 1.394-1.773.707-.869.678-.613 2.853-2.043 1.998-1.389.98-.775M591.578 485.337l-1.624-4.974-1.592-4.382-1.49-4.753-1.51-4.874-3.236-9.702-.383-.903-.583-1.018-.597-.843-.582-.708-1.305-1.26M565.326 445.422l7.136 3.261 4.091 1.915 1.231.714.892.607M631.118 436.127l-3.129 1.802-2.123 1.093-1.555.607-1.961.64-4.54 2.124-2.3 1.281-2.764 1.699-2.352 1.49-2.668 1.773-1.688 1.113-2.403 1.664-2.042 1.16-.81.344-1.615.486-2.278.337-2.307.114-1.806-.027-2.69-.445-5.278-.883-4.283-.623-1.85.043M636.517 367.545l.317.337.214.439.162.424.06.344-.06.472-.103.627-.346.917-.11.479-.023.478.11.783M498.563 316.292l1.242-.223.627-.216.375-.203.354-.35.524-.52.538-.41.626-.244.494-.108.685-.08 1.01-.088M604.039 516.024l1.291-1.642 1.35-1.578.486-.243.376-.02.413.054.368.128.877.532M591.578 485.337l8.82-2.048 9.775-2.13.825-.458.413-.446.443-.674.737-1.01.501-.621.369-.5.18-.289.07-.303-.073-.553-.133-.742-.34-1.119-.309-1.018" clip-path="url(#p007219f4c3)" style="fill:none;stroke:#000"/><path d="m594.885 495.552-1.747-5.436-1.56-4.78M631.118 436.127l.247-1.184.147-.742.045-.883-.008-.62-.08-.769M583.961 378.313l-1.15.83-1.408 1.287-3.272 3-1.99 1.66-.413.255-.354.142-.509.095-2.034-.088-3.678-.168-5.986-.33-3.03-.163-.626-.08" clip-path="url(#p007219f4c3)" style="fill:none;stroke:#000"/><path d="m588.148 403.544-2.786.033-.81-.027-.834-.168-1.061-.364-3.111-1.254-1.607-.775-2.83-1.362-1.246-.58-.708-.351-.273-.243-.295-.458-.478-.803-.384-.471-.59-.52-.604-.337-.612-.222-.73-.317-.479-.196-.346-.195-.435-.466-.907-.957-2.204-2.488-3.87-4.295-1.215-1.524-.222-.452M443.21 589.268l.272.91.095.41.037.514.045.323.117.425.207.35.45.573.663.748 1.069 1.172M525.707 516.41l-5.809-1.584-.773-.168-1.047-.06-1.091-.061-.789.013-.788-.06-.84-.27-.694-.358-1.002-.735-1.46-1.503-.619-.789-.487-.748-1.282-2.892-1.422-3.6-1.143-3.04-.759-2.036-.671-1.517-.229-1.052-.103-.762.066-.667.237-.998.471-1.712M561.448 503.148l-1.119.07-1.96.229-2.97.485-.458.007-.413-.074-.295-.202-.633-.735-.583-.66-.678-.547-1.083-.459M594.885 495.552l-2.44-.054-3.751-.216-4.607.196-1.6.142-.664.114-4.031.985-4.025.809-1.806.29-1.305.276-.928.27-1.519.6-2.911 1.402-1.025.552-1.577 1.086-1.248 1.144M525.707 516.41l.995-.128 2.69-.343 2.242-.526 1.312-.391 2.24-.978 2.116-.97 1.142-.372.804-.161 1.423-.128 4.533-.438 3.796-.445 1.18-.189.935-.283.973-.378 1.187-.539 1.143-.674 1.002-.721.634-.58 3.774-3.533 1.62-1.485M385.073 479.069l-.155 1.025v.276l.008.391-.06.277-.272.734-.723 2.185-.464 1.45-.464 1.085-.56 1.031-.811 1.011-.598.674-.206.283-.17.358-.066.431-.28 1.436-.206.897-.096.384-.03.277.133.202.317.189.427.135.84.053.635.041.67.121.907.189 2.33.836 2.28.7M384.948 502.193l1.09-2.023 1.792-3.296.63-1.135M399.196 533.25l-.405-.674-.148-.452.007-.323.148-.411.184-.216.457-.411 1.217-.789 1.872-1.186.31-.371.147-.297.066-.256.044-.243-.051-.337-.089-.56-.155-.31-.125-.148-.122-.124-.121-.03-.199.04M384.948 502.193l2.027 3.735 1.968 3.14.368.844.435 1.43.428 1.812.191.998.022.863.015.337-.066.533-.236.525-.737 1.342-.383 1.065-.406 1.038-1.157 2.42-.384.816-.132.458-.03.52.266.512.56.654.884.755 1.94 1.497 1.562 1.49.67.579.539.317.346.095h.413l.479-.027.406-.136 1.076-.498 3.25-1.625 2.971-1.53" clip-path="url(#p007219f4c3)" style="fill:none;stroke:#000"/><path d="m405.944 524.793-.57.223-.248.05-.269.06-.328.004-.446-.016-.335.006-.398.068-.432.094-.257.159-.16.222-.268.489M428.695 549.665l.045-3.728-.074-4.34.022-3.095.022-.748.17-.594.169-.303 1.364-1.645 2.786-3.472M452.254 510.943l-.325.196-.369.263-.471.397-1.651 1.598-2.138 2.373-1.88 2.023-1.894 1.907-2.13 2.724-3.988 4.382-2.669 3-1.54 1.934M482.976 373.499l-.376-.31-.64-.695-.495-.614-.427-.687-.744-1.8M563.41 457.549l-.176-2.677.066-2.42.28-2.542.199-1.523.103-.486.369-.883.567-.89.508-.706M531.285 374.198l-.883.002-3.59-.425-6.936-.896-1.636-.23-.899-.094-1.025.013-1.665.08-1.077.156-.73.054-1.489-.067-1.024-.081-3.103-.607-2.868-.398-1.437-.337-1.194-.344-2.226-.573-.583-.101h-.501l-.59.1-1.37.42-.656.16-.849.075-.84.007-.597-.007-3.096.33-3.36.128-1.224.176-.907.31-.597.277-.966.728-.39.445M398.51 428.713l1.556-1.982.523-.857.162-.485.166-.516M461.269 411.27l-1.168 1.45M470.274 418.338l-3.758-2.071-3.78-2.05-1.718-1.032-.917-.465M470.274 418.338l-.728 4.954M357.645 407.036l-2.076-.568M355.569 406.468l-2.004-.548-.402.024-.413.165-.353.29-.314.384-1.15 1.686-.018.102" clip-path="url(#p007219f4c3)" style="fill:none;stroke:#000"/><path d="m353.198 409.573-2.073-.814-.15-.09-.06-.098M343.131 420.818l2.884-5.386.103-.192.115-.187.82-1.32.147-.216.146-.22 3.153-4.315.045-.058.043-.051.065-.062.263-.24M215.95 416.57l1.76.83.288.16.256.167.238.158 1.371.974.204.133.25.149 2.77 1.562.401.212.44.208 1.583.742.262.1.253.09.748.243M158.388 453.278l.863-.69.803-.655.81-.735 3.889-4.5 6.763-7.478.46-.478.594-.502.516-.381.733-.388 2.068-.779 3.346-1.176.944-.35.73-.345.825-.573.59-.566.567-.715 2.315-2.831 3.155-3.472.648-.668.723-.654 1.098-.863 1.209-.87 1.754-1.092 1.688-.978 4.482-2.265 2.145-.823.708-.175.615-.054.83.06.943.244 3.921 1.321.568.121h.638l.52-.086.511-.175 1.435-.803 3.154-2.334M125.903 442.46l1.325 1.133.21.17.238.172.932.636.172.158.121.175.052.135.044.216-.019.888-.024.144-.033.133-.062.126-.222.406-.041.109-.007.091.026.1.04.093.883 1.65M128.918 457.083l-1.799-.183-.37-.086-.308-.147-.269-.173-.184-.234-.105-.225-.068-.17-.045-.194-.008-.132.05-.176.113-.244 1.622-2.583.645-1.016.19-.27.19-.246 1.007-1.205.094-.178.015-.142-.031-.154-.119-.33M236.27 341.084l-.534-.328-.1-.05-.096-.03-.107-.014-.092-.002h-.118l-1.23.014-.795-.074-.594-.105-.464-.199-.34-.239-.294-.306-.505-.79-.162-.188-.184-.152-.145-.07-.208-.073-.19-.037-.265-.033-2.578-.257-.374-.034-.27-.047-1.738-.278-.387-.13-.282-.137-.245-.155-.176-.143-.911-.96-.332-.282-.363-.215-.185-.072-.215-.07-.161-.024-.211-.002-.227.03-.308.09-1.998.815-.467.152-.295.078-.334.06-.392.027-.376-.02-.32-.04-.362-.152-.343-.169-.35-.232-.542-.533-.154-.156-.177-.147-.826-.641-.262-.204-.184-.165-.275-.248-.124-.138-.09-.117-.118-.166-.408-.658-.09-.137-.067-.096-.114-.135-1.115-1.257-.116-.124-.109-.114-.162-.136-.735-.516-.144-.068-.172-.064-.212-.047-.16-.007-.522.017-.387.01-.689-.059-.293-.05-.316-.073-.714-.219-.304-.116-.231-.11-.213-.125-1.139-.664-.464-.24-.42-.191-.306-.095-.35-.085-.383-.07-2.046-.3-.422-.05-.367-.027-.407-.01-1.933-.002-.183-.02-.16-.033-.106-.03-.161-.067-1.622-.792-.3-.142-.3-.127-1.307-.526-.2-.093-.176-.095-.17-.117-.836-.691-.288-.224-.276-.204-.501-.316-.16-.103-.122-.09-1.281-1.056M236.27 341.084l-.04-.663-.001-.258.017-.276.062-.295.078-.3.67-1.942.063-.198.028-.144.02-.208.38-5.367.024-.474.001-.42-.022-2.144.018-.715.041-.485.074-.607.261-1.986.02-.469-.04-.328-.067-.29-.098-.25-.119-.155-.125-.122-.178-.116-.27-.095-.22-.06-2.452-.684-.256-.067-.278-.085-2.803-.91-.292-.094-.327-.078-1.753-.36-2.432-.453M100.73 553.581l.395.85.098.21.125.188.155.165.142.135 2.373 1.816 2.742 2.158.3.259.345.281.313.343.587.66M259.361 576.066l-1.64-.465-2.053-.664-1.746-.56-1.303-.306-.36-.032-.409.017-.35.059-.39.114-.376.145-.395.196-1.91 1.06-.118.047-.134.032-.133.009-.154-.021-.555-.175M259.361 576.066l-.315.05-.3.044-1.432.053-.726.062-.387.066-.203.054-.239.072-.632.246-.22.098-.199.121-.21.175-.488.493-1.456 1.608-1.735 1.89-.12.132-.11.13-.65.834-.208.359-.148.324-.11.282-.08.325-.022.218.012.222.066.382.177.334.194.253.532.373.293.136.267.055.446.016.706-.162.21-.078.288-.145.256-.151.541-.425.068-.059.056-.059.046-.077.02-.088.052-.482M268.604 561.124l-.902 2.515-.247.533-.337.57-.382.528-.486.506-1.172 1.047-.513.564-.416.526-.24.459-.14.482-.018.59.505 2.217.066.408-.04.343-.081.294-.258.458-.142.183-.187.184-1.39 1.04-.262.186-.26.16-1.615.9-.31.13-.416.119M257.825 442.518l1.197.252.19.045.16.043.217.079.197.09 3.648 1.624 1.725.79.28.14.3.175 2.2 1.268.197.078.2.05.21.017.453.034.226.033.183.04.2.052 2.231.65.271.075.285.065.353.061 3.072.546.185.029.131.034.137.042.663.2.188.047.15.023.155.019 1.057.09M153.169 440.72l-1.176.894-.103.096-.053.072-.024.079-.01.102.01.117 2.071 6.36.166.439.188.374.24.29 3.91 3.735M350.973 412.665l2.225-3.092M353.198 409.573l2.37-3.105M355.901 410.449l-1.537-.419-1.166-.457M355.901 410.449l-.414.459-.76 1.063-.939 1.512" clip-path="url(#p007219f4c3)" style="fill:none;stroke:#000"/></g><g id="PatchCollection_1"><path d="m400.04 141.274.71 1.469.632.746 1.474.77 1.184-.288 1.395.578.921.915.895.457 1.474.29.92.096.422-.77v-.747l-.71-.217-.027-.41.42-.047.45-.033.027-2.102-.367-1.894-1.417-.802-1.518.081-3.141.981-2.546.373zM410.745 136.601l-.465.497-.582 1.382.117.922.775.46 3.177-.141.852-.32.193-.673-1.007-.921-2.48-.958zM576.402 189.706l-4.881-3.908-.915-1.86-4.17-1.861.916-4.28-1.017-4.187 2.339-5.954 2.644-4.838 4.88.279-5.389-3.535-2.033-6.327-2.034-5.861 1.729-2.792-3.966-1.21-1.525-4.466-3.864-2.698-.305-4.187-2.746-1.767-2.948-6.793-2.644-2.512-.376-1.393-7.306-9.321-1.03.194-4.275 2.58-.606.305-.637 1.11-1.546.804-2.333-.86-3.352-3.487h-.591l1.577 2.645-.328 2.826-2.169.962-4.139-.42 5.388 4.569.394 2.164-2.103 2.765-1.905 2.827-2.431 4.81-1.446-.482-5.19-4.148-8.082-2.886-2.167-3.307-1.643-1.142-.394.6 2.168 2.045-.46 2.766-1.183.902.526.781 4.467-.36 7.688 5.831 2.825 3.969.197 3.486-1.05 4.63-.592 2.765 2.43-1.623 4.403-7.695 1.445-1.323 4.796-3.367.855-3.427 8.54-4.81 4.863 1.985 2.234 3.967 3.68 5.351-.395 1.864.723 2.526 4.928 1.021 2.233 3.667 1.71 1.624 3.612 7.996.33 9.499-.79 2.404-.262 1.203-2.76 1.864 2.431 9.92 1.183 3.066h3.81l4.009 2.584 2.234 1.864zM427.095 400.746l-.052.345.103.22 1.409.283.275-.047-.172-.362.24-.864-.12-.235-.91-.314-.344.094zM428.555 401.877l-.36-.126-.808-.204-.395-.063-.155.189.12 1.288.19.487.223.11.378-.173.566-.063.31-.172.102-.299-.085-.801zM428.47 403.935l-.293-.126-.567.032-.36.204-.07.377.293.472.292.408.6.298.55-.03.413-.158.498-.079.343-.14.155-.363-.172-.172-.601-.252z" clip-path="url(#p007219f4c3)" style="fill:#00f;fill-opacity:.8"/></g><g id="PatchCollection_2"><path d="m321.533 394.683.412.216.089.27.206-.027.236-.108.354-.135.228.18.126.279-.236.323-.531.674-.324.432-.148.377.148.297.265.189.383.215.494-.115.767-.405.42-.154.207.19.376-.036.324-.35.39-.182.2-.196.206-.486.42-.504.501-.296.56-.082.708.109.11.315.62-.162.302-.234.494-.062h.265l.568-.1.442-.351.583-.224.471.054.236-.324.686.036.059.431-.03.431-.125.235-.288.494-.147.27-.324-.081-.413-.27-.59.135-1.688.612-.789.143-.265-.297h-.354l-.42.262-.671.628-.295.324-.125.423-.11.413-.502.189h-.53l-1.003.162-.914.377-.59.081-.649-.108-.45.262-.965.358-.685.1-.914-.026-.973.08-1.379-.1-1.18-.242-.618-.216-.273-.116 4.076-3.201.23.153.294.027.36-.153zM336.955 316.872l.147-.485.236-.46.616-.556.445-.522.204-.665-.174-.738v-.539l.292-.26.386-.198.41.279.239.584.56.377.53.081.797-.189 1.002-.296.882-.018.298.288.177.404 1.087-.044.856-.432.12-.71.118-.378.676-.26.68-.145.56.081.384.35.56.46.646-.072.501-.162.177.216.18.53-.236.512-.295.593-.117.62.383.675 1.327 1.376 5.778 3.56.499-.098.298-.9.232-1.528.502-1.24.619-.864.737-.782.501.135.593.476 1.828.755 1.474.459 1.887.27 2.389.512.616.387.12.476-.353.755-1.563 1.322-1.356.89-.973.54-.888.387-.734.557-.825.431-.885-.107-.885-.27-2.329-.594-1.621.054-2.212.324-.799.684-.56-.216-.737-.135-.796.297-.292.476-.796.054-.534.333-.115.584-.324.431-.826.054-1.385.162-.973.27-.21-.665.239-.495.351-.476.445-1.007.03-.648-.354-.944-.944-.459-1.624-.449-2.15-.791-.887-.395-.708-.594-.94-.845-1.18-.729-1.032-.216-.737-.188zM361.574 349.913l.292-.26.8-.171.707-.08.616-.18.386-.388.413.082.41.279.472.215.298-.44-.092-.45-.38-.602.292-.746.442-1.052.708-1.295.619-.54 1.445-.485.504-.71.233-2.715.09-1.277-.238-1.312-.468-1.089.677-1.268 1.003-.916.881-1.313.384-1.079 1.005-.737 1.059-.315.707-.297.767-1.618.442-.216.858-.737 1.06-.53 1.237-.486 1.094-.845.322-.503.353-.62.472-.136.681.099 1.327.431.734.145.622.422 1.59-.045 1.772.072.97-1.097.678-1.025.147-1.079-.498-.549-.796-.566-.443-.404.266-.675.796-.404 1.09-.594.502-.458.292-.638-.295-.62-.292-.36v-.513l.263-.234.769-.252.177.351.03.459.292.413-.086.342-.059.539.383.81.649.485 1.12.054.973-.566.705-1.07-.085-1.412.619-.297.324.216.41-.099-.262-.926-.03-.728.586-.288.682.126.766.647.944 1.43.707.404.237.459-.708.97-.917.55-.853.071-.707-.162-.62-.08-1.12.782-.71.765-.292.961-.236 2.104.413.971-.03 1.133.118.917.177.89.295.728-.855.513-.56.485-.679.755-.56.864-.59 1.079-.441.863-.62.782-1.238 1.618-.681.307-.44-.091-.533-.476-.616-1.358-.148-.729.59-.377.528-.018.593.342.586-.207.914-.7.62-.999.176-2.077-.734-.495-1.385.108-2.33.62-1.592.917-.914 1.35-.089.539-.56-.055-.53-.512-1.239-.809-1.268.027-.887.414-.086.557-.265.944-.089.647.03.459.413.35 1.238.054.734-.098.298.557-.324.459-1.032.431-.74.387-2.15.53-.678.135-1.153.387-.498.557-.089.836.354.971.384.567.707.161.502.378.32.387-.645.692-.295.89-.383.378-.593.44-.439.666-.177.62-.088.593v.917l-.118.54-.413-.162-.12-.476-.03-.675-.528-.144-.678.351-.354.297-.177.539.059.431-.678.109-.678-.135-.325.296v.756l-.236 1.294.236 1.942-.383.108-1.09-.431-1.15-.136-.856.055-.825-.297-.711-.207-.734.018-1.09.054-.886.108-.707.027-.443-.19h-.56zM337.16 339.394l-.06-.557.235-.512.77-.845.616-.369.68-.171.886-.297.32-.718.06-.918.088-.89.298-1.034.351-.827.474-.872.617-.557.442-.243.505.071.147.486-.266.459.207.485.353.027.233-.503.269-.684.292-.395.412-.108.593.368.383.567.59.431 1.032-.135 1.235-.908.475.018.708.162.973.998.678.459.767.161.354.324v.405l.176.7.354.46.705.225.622.34.295.73.265 1.105v.971l-.383.647-.295.405.266.566.441.459.65.647.029.459-.564.279-.586.152h-.531l-.504-.34-.707-.433-.44-.467-.622-1.205-1.206-.333-1.445.243-2.391 1.034-1.386.432-1.353.017-.53-.08-.68-.351-1.267-.486-1.857-.161-.328-.18-.144-.306-.472-.054-.472.054-.415.252-.116.315-.441.08z" clip-path="url(#p007219f4c3)" style="fill:#006400;fill-opacity:.8"/></g><g id="PatchCollection_3"><path d="m338.812 379.96.292-.746 3.214.89.298-2.032 1.975.944-.708 2.508-.324 2.104-.265 5.987-.06 2.454-.297 2.302-.649 3.452-1.15-.215.534-2.76-1.268-.217.118-.862-3.508-.675-.236.405-.089.216.118.458.236.108.177.593v.297l-.206.135-.947-.234-.619.135-.587.018-.796-.162-.927-.153.012-.173-.06-.431-.685-.036-.236.324-.471-.054-.583.224-.442.35-.568.1h-.265l-.494.063-.302.234-.62.162-.11-.315-.707-.109-.561.082-.5.296-.421.504-.318.155-.973-.432 1.828-2.157-1.003-.647-.351-1.143-.796-1.186-.884-.81-.826-.62-.324-.27.321-.233 1.002-.35 1.625-.253.793-.367.649-.055.652.288 1.56-.045 1.208-.593-1.825-3.543.56-.836.59-.647.233-.503.003-.549.026-.341 1.003-.458 1.182-1.682zm-11.319 11.429.194 2.286.64-.045-.038-.44.381-.027.033.381.44-.031-.137-1.628.365-.025.047.556.431-.03-.094-1.115-.426.03.033.386-.402.028-.039-.453-.494.035.034.404-.372.027-.033-.38zm2.596-1.491.073 1.843 1.048-.035-.073-1.843zM330.246 397.853l2.137.66-1.07 4.267-2.24-.5zM368.222 381.293l1.702 1.056-5.263 4.275zM360.082 385.947l-.64-.307-2.582 3.624.483.054.452-.027.39-.105.361-.251.78-.98.35-.55.24-.626.127-.474zM364.661 365.115l4.408 2.482-1.268 1.9-4.304-2.602zM334.712 361.779l1.998 1.151-2.89 4.585-1.828-1.079zM552.901 436.642l.012.41.068.341.131.521.218.49.198.26.238.166.205.075h.2l.294-.102.252-.166.16-.226.09-.22-.02-.38-.687-1.482-.214-.22-.254-.109-.37-.017-.266.079-.126.117-.083.127-.053.122z" clip-path="url(#p007219f4c3)" style="fill:green;fill-opacity:.8"/></g><g id="PatchCollection_4"><path d="m343.186 347.194 5.588 2.531-1.801 3.328-5.588-2.53zM599.51 525.614l3.547 3.54 2.758-2.313-3.547-3.54zM398.254 134.04l.45 1.757 1.407-.302-.45-1.756z" clip-path="url(#p007219f4c3)" style="fill:#90ee90;fill-opacity:.8"/></g><g id="PatchCollection_5"><path d="m361.135 426.667 1.348-.736 1.935-.2.392-.636 1.457-.1 2.174-.238.761-.855 1.196-.855.783-.597.457-.597 1.261-.12.87-1.49.674.158.63 1.054-.609.975-1.087.796-.348.457-.5.319-.652.875.326.318 1.349-.16 1.5-.397.326.596.566-.596 1.087-.657-.392 1.253-.782.637-.74.835-.413.717.044 1.074.869 1.292 1.587 2.586.827 1.094-1.326-.139-.957-.636-.696-1.433-.761-.318-.653-.676-.739-.895-.674-.22-1.283.936-1.522.835-.827.498.175 1.233.282.915 1.479 1.094.543 1.034-.108.636-.936-.477-.673-1.472-1.066-.835-.61.04-.803-.995-.718-.279-1.348-.059-.675-.437-.891.755-1.065.637-1.175.875-.565.656-1.044-.258-.587-.22.87-1.312.76-.637h.98l-.175-1.014.13-.696.762-.557-.435-.775-1.609-1.015-1.5-1.015-1.436-1.113.218-.359 2.826 1.711zm6.24 4.574.305-1.372 2.153-1.293.456-.597.435-.278.196-1.233-2.522 2.407-.848.059-.387.834-1.005.996zM303.487 409.66l-.87.438-.544 1.094.283 1.293.761.199.674.616 1.066-.556.5-.28 1.26.498 1.328-.04.609.438h1.174l.413.616.87-.119.5.537.935.577.565.398 1-.02h.892l.109.517-.022.577.63.418 1.762-1.333 1.761-.835.848-.577 2.088-.915 2.262-1.114 1.348-1.014.022-.418-1.74-.895-2.11-1.373-4.262-2.904-.478.875-.543.895-1.675 1.095-.456 1.054.304.994-.435 1.054-1.305-.1-.87-.277-1.174-.26-2.61-.238-1.608-.358-1.61-.239z" clip-path="url(#p007219f4c3)" style="fill:#006400;fill-opacity:.8"/></g><g id="PatchCollection_6"><path d="m328.056 391.348.033.38.372-.027-.034-.404.494-.035.039.453.402-.028-.033-.386.426-.03.094 1.114-.43.03-.048-.555-.365.025.138 1.628-.441.031-.033-.38-.381.026.037.44-.639.045-.194-2.286zm.157 1.65.368-.034-.11-.998-.367.034zM360.27 387.442l1.025.73-2.13 2.501-1.025-.73zM397.802 133.209l-5.518.918.796 4.008 3.801-.633-.525-2.64 1.717-.287zM400.503 132.327l.815 2.992 7.013-1.6-.337-1.24 1.37-.312-.477-1.753zM413.667 129.982l.845 3.638 6.31-1.227-.845-3.64zM405.157 135.646l.256 1.077-4.578.913-.256-1.078zM392.657 139.187l.345.922 1.673-.524-.345-.922zM399.995 134.87l.37 1.56 1.022-.204-.37-1.559z" clip-path="url(#p007219f4c3)" style="fill:#a9a9a9;fill-opacity:.8"/><path d="m396.734 136.093.269.949.758-.18-.269-.949zM435.328 170.074l-.053.623.698.05.053-.624zM403.45 145.217l.13-.625.76.132-.13.626zM418.126 148.957l.947.425.333-.622-.947-.425zM538.554 376.17l.572.097.115-.563-.573-.098zM560.056 367.978l.104.46.439-.083-.104-.46zM588.637 343.898l.477-.133-.195-.585-.478.134zM589.758 343.6l.127.403.444-.117-.126-.402zM589.393 344.473l.385.414.453-.352-.386-.414zM588.648 345.862l.307.347.334-.248-.308-.346zM597.829 313.559l.421.185.254-.486-.42-.185zM602.68 314.75l.438.243.312-.47-.439-.244zM603.318 314.134l.26.176.176-.215-.26-.177zM604.023 190.191l.33.841 1.014-.334-.332-.841zM597.455 191.627l.441.366.835-.842-.442-.366zM330.089 389.897l1.048-.035.073 1.843-1.048.035zM605.923 523.066l.484-.421.635.611-.125.108.088.084-.23.2-.1-.097-.13.114z" clip-path="url(#p007219f4c3)" style="fill:#a9a9a9;fill-opacity:.8"/></g></g></g><defs><clipPath id="p007219f4c3"><path d="M90 120.451h558v486.298H90z"/></clipPath></defs></svg>