<svg xmlns="http://www.w3.org/2000/svg" width="960" height="960" viewBox="0 0 720 720"><defs><style>*{stroke-linejoin:round;stroke-linecap:butt}</style></defs><g id="figure_1"><path id="patch_1" d="M0 720h720V0H0z" style="fill:#fff"/><g id="axes_1"><path id="patch_2" d="M90 618.69h558V108.51H90z" style="fill:#fff"/><g id="LineCollection_1"><path d="m342.187 314.93.413 2.234.479 2.592 1.94 3.023-.262 3.12.839 4.438 1.924 12.085M346.851 347.083l.39-1.068.161-1.584.118-2.009M384.352 280.436l-.116.358-2.524 7.077-.469 1.376-.662 1.7-.773 1.378-.74.908-1.332 1.28-10.348 7.688-.961.762-1.009 1.26-.707 1.288-.396 1.424-.489 2.459-.397 1.302-.722 1.206-1.009 1.158-1.805 1.592-2.3 1.817-.334.335-1.235 1.237-.756.953-.71 1.187-.828 1.773-3.336 7.784-1.526 3.69-.473 1.274-.378 1.729-.34 2.187-.157 3.804M355.16 365.269l.073-.44.183-1.804.32-10.037M358.775 377.991l.753-3.456M352.171 373.093l-1.115 1.858-.845 1.06-.268.245-.69.626-2.554 2.178-.916.75-.662.764-3.723 5.934-1.386 1.289-4.796 3.24-1.51 1.463-.821 1.23-.57 1.125-1.01 2.324-.781 1.3-.753 1.012-.609.575-1.336.557-1.309.334-1.325-.011-.783-.269-.37-.182-.354-.356" clip-path="url(#p2a8f869730)" style="fill:none;stroke:#000"/><path d="m220.785 433.285 3.284-4.956 3.81-3.234 4.955-2.338 2.847-1.834 2.184-.98 2.831-2.87 4.76-5.222 1.43-2.548 1.25-.784 1.552-.196 1.973.588 3.027 2.604 1.355 1.106 2.44.63 2.35.07 2.548-.66 1.47-.568 1.662-.328 2.314.216 4.337.504 1.784-.104 1.71-.848 3.013-2.24 3.494-1.512 2.85-.536 1.913-.546 1.928-.966 1.702-1.82 2.064-2.604 1.129-3.402 1.22-1.54 1.009-.966 1.175-.448 3.072-.196 5.498-1.428 3.132-.966 2.169-.266 2.997.154.964.56 1.536 2.338 2.714 1.776 1.69.9.937 1.062.821 1.252" clip-path="url(#p2a8f869730)" style="fill:none;stroke:#000"/><path d="m324.77 404.625-1.177-3.372.076-.86.016-.254M359.528 374.535l.576-1.86 2.576-10.642M357.97 374.19l2.962-11.958.611-.485 1.137.286" clip-path="url(#p2a8f869730)" style="fill:none;stroke:#000"/><path d="m360.399 350.651-.06.455-.173 2.054.112.635 1.265 1.512 2.772 4.144.073.924-.278.764-1.43.894M346.361 366.839l-2.538-.63-.935-.223-3.177-.758M339.71 365.228l-1.112-.334-.757-.41-.152-.093" clip-path="url(#p2a8f869730)" style="fill:none;stroke:#000"/><path d="m338.308 365.163.338-.05 1.065.115M364.652 340.306l.733.47M364.652 340.306l-.973 1.897M360.576 340.33l1.767-.285 1.31-.049.999.31M362.785 343.946l1.433 1.81M362.785 343.946l-1.37 2.688M362.785 343.946l.894-1.743M359.528 374.535l-1.557-.345M356.695 345.178l.125-1.624.482-2.632.783-2.857M344.92 382.353l3.286.811M341.817 387.757l.422-.378.27-.357.927-2.114 1.484-2.555M349.938 377.225l-.16.167-.97.94-2.09 1.712-.935 1.146-.863 1.163M353.314 377.31l1.992.231 1.176-3.402.73-.119.759.17M334.673 478.661l-.303-2.433-.151-.588-.346-.756-1.017-1.45-1.4-2.35-2.02-2.605-1.144-1.652-.3-.812.146-1.2.02-1.6-1.237-2.883-1.671-1.666-2.079-1.036-.572-.574-.06-.392-.407-3.878.482-2.085-.286-1.359-1.34-1.96-4.79-4.396-2.395-2.085-1.263-.744-3.12-1.972-1.626-2.422-1.325-3.29-.362-1.092.18-4.746.317-2.576.316-1.778.889-2.03.632-2.128.136-1.764-1.069-2.506-1.024-2.604-.633-2.45v-1.442l-.18-1.428-.54-1.836-.395-2.658.467-1.484 1.34-1.736 1.507-.588 2.56-.504 1.988.21 1.657.084 1.446-.028 4.394.984 2.109 1.624 1.705 3.062.861 1.566" clip-path="url(#p2a8f869730)" style="fill:none;stroke:#000"/><path d="m341.817 387.757-.904.7-.888.714-1.356 1.764-3.298 2.45-1.551 1.834-.874 1.022-1.973 3.794-.557 1.344-.377 2.646-.21.868-1.025.63-1.732.476-1.446-.746-.856-.628M411.897 162.045l-.21-.238-3.533-4.005-1.091-1.212-1.311-1.302-2.696-2.451-4.368-3.718-1.047-1.079-.7-.896-.655-1.022-.347-.995-.21-1.008-.068-.791.022-1.338.302-2.143.693-3.214 1.084-5.644.429-3.416.166-2.942.233-4.376" clip-path="url(#p2a8f869730)" style="fill:none;stroke:#000"/><path d="m417.349 118.322-.09.518-.03.644.09.708.15.497.204.35.226.196 1.122.756.82.827.422.854.106.47.038.461-.189 1.015-.007.54.052.427.226.714.106.61-.09.58-.272.56-.858.96-1.393 1.428-1.748 2.171-.587.54-.527.217-.685.084-.685-.12-.49-.237-1.386-1.163-.94-.679-1.756-1.128-6.408-3.71-1.785-1.226-.918-.96-.46-.756-.309-.784-.21-1.498-.211-.995-.287-.938M337.315 357.735l.788-1.274.906-1.015 5.358-5.24 1.056-1.089.876-1.052.552-.982M347.92 356.838l-.32-1.885-.749-7.87M347.92 356.838l-1.247.224-1.416.382-1.14.7-.412.085-1.21-.615-.867-.191-.73.064-1.575.36-1.461.043-.547-.155M336.248 361.366l.046-.449.122-.984.363-.981.536-1.217M336.248 361.366l-.282 1.916M336.42 364.235l-.079-.47-.095-.995-.026-.87.028-.534" clip-path="url(#p2a8f869730)" style="fill:none;stroke:#000"/><path d="m337.337 364.176-.63-.996-.3-.938-.16-.876M335.966 363.282l.031.865.091.499" clip-path="url(#p2a8f869730)" style="fill:none;stroke:#000"/><path d="m333.835 343.108 1.144-.924.332-.896.512-1.12.753-.953 1.114-.251.482.251 1.084 1.233.543 1.68-.422 2.464-1.747 2.464-3.404 2.577-2.65 1.82-.904 1.092-1.386.952-.663.7-.15.784.572 1.26.844 1.96 1.927 2.689 1.687 1.511 1.175.056 1.288.825M337.337 364.176l-.52-.103-.397.162M337.337 364.176l.352.215M336.42 364.235l.394 1.348M336.42 364.235l-.25.293-.082.118M336.088 364.646l-.005.296.118.248M336.814 365.583l.318-.03.615-.307.561-.083" clip-path="url(#p2a8f869730)" style="fill:none;stroke:#000"/><path d="m337.766 367.758-.24-1.252.079-.543.236-.468.467-.332M336.2 365.19l.223.232.39.16M336.2 365.19l.302.759 1.264 1.81M337.766 367.758l-.464-1.003-.488-1.172" clip-path="url(#p2a8f869730)" style="fill:none;stroke:#000"/><path d="m246.337 384.817 4.418-1.359 4.784-1.316 4.631-1.1 3.2-.992 1.147-.533 1.15-.791 2.238-1.717 8.185-6.605 3.858-2.931 1.009-.601.773-.293.756-.147.939-.113 1.223.169 1.165.424.708.4.788.586.767.892.7 1.042 5.791 8.52.776 1.083.588.595.756.527.946.454 1.213.308 1.372.117 1.662-.085 9.844-.764.977-.03 1.56.214 1.184.552 1.244.64 1.355.953.947.806.773.817 2.028 2.286 1.39 1.395 1.624 1.333 1.04.528 1.195.218 1.042.071 1.01-.172 1.151-.425.946-.674.804-.806.958-1.012 5.094-6.226 1.256-1.683.557-1.115.453-1.483.083-.979-.048-1.143-.277-1.393-.4-1.186-.46-1.201-.794-1.708-.65-1.406M354.343 368.818l-7.982-1.98M353.893 370.234l.199-.354.25-1.062M355.16 365.269l-.224 1.321-.593 2.228M341.817 387.757l3.463 1.539M354.843 370.62l-.317.745-.366.89M353.036 373.647l.462-.33.662-1.061" clip-path="url(#p2a8f869730)" style="fill:none;stroke:#000"/><path d="m353.314 377.31.873-3.845-.027-1.21M350.63 364.434l-.738-.135h-.753l-.662.233-.89.636-.617.765-.609.906M343.317 369.073l2.009-1.167.503-.382.532-.685M353.893 370.234l.95.387M352.171 373.093l1.573-2.613.149-.246M356.129 365.497l-1.17 4.85-.116.274M355.16 365.269l-4.53-.835M355.16 365.269l.969.228M356.95 350.68l.051 1.107.036 5.403-.045 1.501-.092 3.018-.16 1.253-.611 2.535M337.69 364.391l.834-3.7M347.92 356.838l.237.627 2.305 4.987.168 1.982M356.695 345.178l.255 5.502M359.637 341.4l-2.121 2.442-.821 1.336M352.98 377.74l-3.042-.515M352.98 377.74l.334-.43M351.32 379.752l1.345-1.475.315-.536M346.215 385.346l1.991-2.182M348.206 383.164l3.114-3.412M351.32 379.752l3.68 3.073M353.036 373.647l-.975 1.121-1.034 1.167-1.09 1.29M352.171 373.093l.865.554M366.954 361.645l.143-2.394-.192-.266-2.045-2.68-4.461-5.654M361.415 346.634l-.257.504-.537 1.839-.222 1.674M361.415 346.634l3.766 4.638M365.961 352.233l-.78-.96M365.18 351.272l1.604-2.276M366.092 341.947l-.707-1.17M366.784 348.996l.724-1.029-.734-4.29-.682-1.73M402.71 410.37l-1.296.151-.828.266h-1.144l-.242.03-.578-.338-.2-.292-.397-1.332-.24-1.484-.829-1.022-.828-2.492-2.004-2.086-.27-.756-.754-2.45-1.687-2.044-.587-1.526-.572-1.568.377-.784 1.295-1.176 2.65-1.568 1.01-1.162 1.22-2.73 1.144-2.507-.12-1.595-1.552-2.45-2.936-1.877-3.254-2.17-3.916-2.1-3.343-4.158-2.365-3.444-.24-1.96-.573-2.143-.347-1.736.227-1.316.39-1.666-.21-1.386-1.054-.882-3.81-2.562-1.959-2.52-2.29-1.275-1.46-1.792-.693-1.736-1.566-1.778-.787-1.007M379.204 335.877l-.184.39-.42.097-4.974-.785-4.912-.775-3.33 5.972M370.623 313.525l-1.579 2.07-1.735 2.038-1.233 1.252-.274.424-.114.637.046 1.019.388 2.186.594 4.053.068 4.244v1.74l-.251.616-.502.573-2.169 1.846-.73.743-.89 1.39-.252.392-1.414 1.582M359.637 341.4l.664-.763.275-.307M366.784 348.996l-2.566-3.24M364.218 345.757l-.54-3.554M359.637 341.4l.005.595-1.705 2.364-.393 1.122-.131.658-.079 3.657-.384.884M379.204 335.877l7.962-.77" clip-path="url(#p2a8f869730)" style="fill:none;stroke:#000"/><path d="m379.03 333.432.226 1.932-.052.513M387.166 335.107l.324 2.403-.63.487-.839-.024-2.544-.585M387.166 335.107l-.338-2.5M379.03 333.432l-.305-2.615M379.03 333.432l7.798-.825M386.828 332.607l-.35-2.597M386.477 330.01l-.337-2.502M386.477 330.01l-7.752.807M378.725 330.817l-.286-2.443M386.14 327.508l-.33-2.446M386.14 327.508l-7.7.866M378.44 328.374l-.283-2.414M376.457 313.149l.354 2.632M376.457 313.149l-2.562.338M376.457 313.149l2.52-.333M384.736 317.399l.354 2.516M384.736 317.399l-7.59.868M383.667 314.998l.204.304.55.926.315 1.17M377.214 305.382l2.323 3.462M389.364 299.324l-.393.827-2.029 2.249-1.037.682-1.252.362-6.002 1.445-1.437.493M374.1 308.087l.605-1.044.75-.75 1.21-.722.55-.19M378.157 325.96l7.652-.898M377.82 323.274l.177 1.316.16 1.37M385.446 322.455l.313 2.233.05.374M381.941 312.426l-2.404-3.582M381.941 312.426l1.726 2.572M381.941 312.426l-2.964.39M374.1 308.087l-.65 1.12-2.351 3.694-.476.624" clip-path="url(#p2a8f869730)" style="fill:none;stroke:#000"/><path d="m373.895 313.487-1.53.202-1.742-.164M377.241 310.22l-.753-.365-2.593 3.632M377.241 310.22l2.296-1.376M377.241 310.22l1.736 2.596M377.82 323.274l-.338-2.513M377.82 323.274l7.626-.819M385.446 322.455l-.356-2.54M385.09 319.915l-7.608.846M377.482 320.76l-.336-2.493M377.146 318.267l-.335-2.486M376.811 315.78l6.856-.782M389.364 299.324l4.436 2.894M521.77 165.572l-.228 1.27-.783 2.268-.692 1.526-1.15 1.54-26.385 25.69-2.539 2.036-2.75 1.782-2.676 1.331-7.862 3.654-3.681 1.375-3.74 1.232-2.747 1.53-2.674 1.764-2.159 2.277-6.928 10.642-1.067 1.888-.86 1.977-.784 2.8-1.747 4.033-1.205 2.745-2.59 3.809-1.868 2.856-12.049 12.827-2.696 2.33-3.163 1.751-3.117 1.352-3.374.896-3.253.392-3.314.168-4.548-.588-2.463-.015-2.41.478-2.26 1.207-2.105 1.363-2.028 1.756-1.265 2.157-.595 2.394-.4 2.73-.169 2.712-.403 2.69-.632 2.272-4.007 9.521-.632 2.163-.153 2.633-.255.538M212.449 433.439l-1.544.567-1.046.168-1.288.112-1.153.336-1.038.63-1.537.91-1.265.42-1.1.175-.88.175-.904.546-.798.882-.558.637-.572.203-.866.049-2.636-.245-1.273-.252-1.167-.49-1.8-.763-3.005-.728-.489-.315-.369-.462-.956-1.386-.858-.805-1.025-.574-3.268-1.155-1.423-.273-.987-.133-1.755.217-1.468.462-1.22.147-1.356-.098-1.83-.238-1.22.056-1.536.315-1.671.917-1.574 1.386-1.808 1.876-.88.518-1.025.315-1.34.217-2.764.077-.821.154-.647.35-.482.476-1.13 2.359-.4.532-1.528 1-.745.26-.7-.077-.588-.33-.98-.944-.835-.721-.904-.14-.926.097-1.25.428-1.762.882-1.085.825-1.227 1.17-2.425 2.708-1.439 1.218-.451.231M119.666 481.37l.714-.516 1.551-1.287.633-.686.587-.791.384-.518.09-.42-.03-.602.023-1.134.203-.65.482-.82.18-.91.152-.917.21-.77.468-.574.512-.42 2.093-1.904 4.187-4.746 1.754-2.113.965-.868 1.084-1.036.444-.665.866-1.946.474-1.638.19-1.288.006-.959-.15-.924-.211-.868-.422-1.568-.233-1.519M212.449 433.439l-2.086 2.737M246.337 384.817l-1.298.438-1.653 1.074-4.447 5.496-3.761 4.558-2.963 4.176-1.652 4.928-1.555 4.243-.801 1.856-1.12 1.772-7.447 10.302-2.823 3.829-1.416 1.883-2.952 4.067M137.135 176.651l.528-1.036.85-1.155 7.658-10.67 11.35-5.083 7.68-4.183 4.637-4.054 5.329-1.158 4.983-3.797.691-2.509M199.533 160.697l-3.46-3.657-2.885-3.073-2.675-3.657-5.192-5.511-3.147-.732-1.333-1.061M223.587 175.64l-1.183-1.362-1.474-1.905-.2-.263-.263-.302-.331-.293-.989-.707-.67-.627-.655-.773-.52-.68-1.611-2.468-.467-.676-.647-.826-.792-.914-2.503-2.611-1.574.244-1.993 1.658-1.73.098-6.452-2.536" clip-path="url(#p2a8f869730)" style="fill:none;stroke:#000"/><path d="m204.18 202.146.723-2.389.43-1.946.045-.826-.301-1.513.014-.854.113-.532.264-.532.768-1.771.663-2.094.866-1.835.136-.65-.114-.7-.248-.645-.437-.687-2.056-2.541-1.423-1.89-.828-1.345-1.815-3.669-.43-1.31-.203-.84-.027-1.518-.314-1.024-2.832-2.438-.21-1.268 1.993-5.12.576-1.512M204.18 202.146l-.339.79-.353.827-.227.938-.647 2.353-.467 1.099-.346.553-.46.378-.873.42-3.283 1.155-.693.287-.588.385-1.273 1.086-1.972 1.204-1.929.826-1.204.337-.904.063-1.186-.148-1.299-.276-1.088-.305-.43-.056-.316.06-.274.192-.114.291-.014.865.075.602M304.09 266.723l-.189-.65-21.45-9.556-4.615 1.706-1.888 7.217-1.626 2.437-4.72.196v-1.025l.472-.292 1.52.098 1.155-1.17.891-4.389-.734-4.193-1.311-.927-3.2.439-2.412-.975-6.189 1.463-3.251-.83-2.832-3.607-.787-3.463.42-3.169-.42-2.78-1.678-3.413-.105-3.608-1.626-.975-.472-5.51-1.154-2.048-1.888.146-2.098 3.072-1.888-.097-3.566-1.025-4.983-3.413-6.87-5.51-6.797-.256-.881.287-.656.56-.557.938-.165.743.075.622.497 2.087-.15.861-.505.665-.844.575-.707.413-.739.23-.677-.006-.557-.175-1.974-1.106-1.28-1.33-.361-.967-.06-.91.195-.904.068-3.234.347-2.605.007-.91-.06-.63-.279-.652-1.273-2.15-1.227-1.54-.557-.797-.286-.799-.113-1.645-.046-.56-.225-.526-.415-.56-1.19-1.645-.391-.833-.632-1.967M306.681 275.63l-2.59-8.907M306.681 275.63l-1.737 1.876M326.558 281.92l-6.083-2.681-3.357-2.877-2.203-.78-4.51-1.56-2.57 1.706-1.154-.098M342.187 314.93l1.783-6.193-6.083-7.41-3.567-4.243-1.153-3.608-4.616-8.484-1.993-3.072M325.757 262.83l.959 4.585-1.187 4.033 1.415 9.338-.386 1.134" clip-path="url(#p2a8f869730)" style="fill:none;stroke:#000"/><path d="m304.944 277.506-.52 1.705.693 3.184-.243 2.542.589 3.957 2.076 2.637 4.948 1.48 4.152 1.802 5.433 1.705 2.214 1.64.865 2.188 2.595 4.342 2.111.29 2.837-.804 1.315.418 4.36 3.956 3.818 6.381M230.576 313.422l3.776-1.268 1.993-2.291 2.832-3.901.997-.927 1.364-.584.996-.683 5.035-1.902 3.514-.877 1.311-.439 2.78-2.34 3.723-2.438 11.119-7.265 5.244-4.486 3.042-.39 7.815-1.902 6.293.78 3.986-1.462 4.3-3.511 1.68-.341 2.568.31M316.346 263.061l-2.688 2.105-3.515.806-4.977.085-1.075.666M317.996 261.77l-1.65 1.291M314.434 213.59l-.685 2.25 2.1 1.23.64 4.076-1.416 2.93-.548 3.268-1.506 7.81-.137 6.707.045 3.354-1.004 6.028-2.465 2.504-1.05 2.632.548 1.146 3.515.806 3.875 4.73M515.427 536.561l-.402-2.33.305-3.22v-1.578l.196-.309.413-.103 3.954.43.527-.134 1.386-.591 1.48-1.13.324-.431 1.182-2.506.557-.756.365-1.081.324-1.477 1.367-4.465-.022-.441-.2-1.277.117-.497.357-.63.806-.837 1.39-.466.286-.773.35-1.525.27-.452.626-.647.15-.277.02-.346-.098-.49-1.081-2.247-1.25-1.732-.09-1.047-.057-.748-.117-.326-.331-.472-3.6-4.011-.64-.952-.17-.536-.221-2.834-.317-.403-.836-.7-1.19-1.21-1.137-1.407-1.513-2.163-1.845-1.68-1.53-1.225-1.324-1.281-.919-1.42-.505-1.205-.474-1.498-.31-.574-.73-.98-1.31-1.322-.58-.858-3.065-5.932-1.385-.616-.648-.028-.572.519-.377.797-.617-.07-.226-.42-.015-.602.12-1.484.482-.77 1.627-.755.542-.659-.105-.91-.919-1.33-1.943-1.091-6.13-2.59-6.416-3.864-2.907-1.148-1.656-1.12-9.549-8.12-2.244-1.33-2.35-1.777-3.57-3.192-3.358-2.058-4.187-1.442-1.581-.042-8.48 1.694-2.23-.028-1.716-.392-2.169-1.162-5.527-4.074-1.355-.224-1.401.336-3.043.938-1.265-.168-.557-.728-.377-2.044-.196-2.24-.526-1.05-2.004-1.4-4.82-3.024-18.314-10.808-1.641-.613M398.317 425.24l.319-.32.768-1.12.61-1.064.466-1.015.686-2.142.24-1.05.174-1.029.264-1.015.587-1.68.361-1.281.083-.854-.022-.987-.064-.57-.08-.743M526.392 565.438l.987.542 1.705.963.953.42.644.136.576-.01.61-.168 1.303-.665.546-.213.52-.102 1.547-.116.873-.182.953-.287.43-.083.334.02.505.12 1.608.671 1.216.368 2.391.773M548.84 590.346l-.244-.903-.049-.475.046-.645.112-1.315-.03-.959-.117-.455-.161-.336-.58-.773-.253-.367-.07-.186-.076-.441.007-.794-.045-.833-.218-.973-.083-.833.068-.416.221-.532.622-1.019.147-.398v-.347l-.038-.182-.32-.64-.188-.535-.098-.69-.057-1.19-.192-.595-.373-.538-.459-.43-.437-.344-.39-.514-.12-.345-.126-.922-.15-.798-.4-.972-.696-1.026" clip-path="url(#p2a8f869730)" style="fill:none;stroke:#000"/><path d="m561.018 526.768-.67.46-.258.147-.42.203-.354.206-.738.616-.689.546-.26.144-.298.101-.508.074-1.17.027-.682.095-.494.115-.414.193-.312.203-.297.319-.441.766-.618 1.172-.237.374-.211.207-.696.497-1.585.977-.652.416-.309.262-.406.49-.324.525-.377.665-.58 1.253-.756 1.406-.456.848-.286.42-.53.615-.882.801-.72.806-.383.392-.448.363-.388.284-.268.29-.485.721-.208.483-.06.287-.019.27.068.734.098 1.4.106.823-.004.409-.057.326-.124.328-.147.368-.154.518-.184 1.182-.09.494-.016.276.068.595.083.774-.004.927-.072.406-.105.297-.501.892-.408.543-.138.116-.12.056-.189.017-.38-.06-.467-.073-.358.017-.21.077-.219.15-.188.278-.448 1.2-.47 1.2-.076.34.015.227.075.231.4.626.507.728.697 1.025.497.592.976.892.81.574.345.245.96.333.957.395.542.336.388.346.501.658M548.84 590.346l.178-.389M628.582 544.4l-.862.41-1.212.73-.795.7-.565.721-.305.627-.402 1.295-.426.56-.565.315-.651.15-.79-.007-1.09-.193-1.117-.174-1.3-.032-2.462.217-.994.22-.67.333-.711.542-.78.697-1.472 1.28-.633.41-1.325.553-.836.248-.806.035-.817-.203-.99-.465-.682-.56-.862-1.078-.968-1.515-.58-.47-.651-.21-.659.043-.662.287-1.051.766-.738.717-.407.616-.158.623.05.627.538 2.253.086.816-.075.65-.279.753-.275.525-.523.354-.678.202-.836.091-.952-.049-.84-.017-.682.182-.572.395-.369.441-.124.518.094.58.7 2.16.283 1.053.12 1.001.023 1.067-.15 1.037-.204.745-.463.745-.467.598-.365.576-.305.51-.334.44-.751.656-.805.733-.49.623-.587.982-.362.38-.442.218-.874.292-.43.3-.257.395-.062.4.083.375.595 1.18.154.468.071.38-.071.464-.175.307-.271.207-.364.093-.44-.011-.742-.08-.582.034-.516.123-.82.454-2.124 1.171M549.018 589.957l.328-.72.455-.487.584-.318.572-.07.768.077 2.723.567 1.89.399.406.007.475-.079.467-.166.747-.381.584-.17.877-.133 1.338-.122.833.011h.952l.644-.08.467-.203.444-.374 1.82-1.789.96-.79 1.024-.717.56-.519.44-.588.362-.773.332-.42.478-.248.847-.196 1.947-.144 1.103.004 1.156.004 1.145-.074 1.2-.14 1.371-.073 1.235-.088 1.175-.179M112.05 594.63l-.067 2.546-.018 4.392-.061 1.893-.064 1.63-.105 1.281-.28 2.506M100.73 543.453l.394-.502 2.997-3.57 2.395-3.443 1.1-1.708.888-1.022 1.43-1.218 2.095-1.357 4.02-2.436 1.469-.854.384-.154.324-.028.392.085" clip-path="url(#p2a8f869730)" style="fill:none;stroke:#000"/><path d="m116.11 536.949-.143-.213-.331-.721-.437-1.239-.143-.958.053-.693.33-1.246.588-.896.844-1.155.693-.623.782-.623.295-.315.15-.364-.038-.385-.135-.272M175.812 479.392l-.737 1.056-1.506 1.68-.957 1.015-.474.665-.498.854-.831 1.05-1.752 1.855-2.296 2.408-1.062 1.029-1.363 1.518-1.009.854-.987.595-.564.26-.761.251-1.205.371-.949.098h-.534l-1.371-.196-2.184-.448-3.991-.896-2.485-.378-1.747-.07-.95.154-.662.224-.572.336-.587.602-.844 1.316-.497 1.554.196 2.394.21 2.701-.03 1.904-.27 1.162-.422.882-.648.868-1.25.966-.858.42-1.507.434-2.184.49-4.488 1.092-1.626.56-1.115.657-.662.616-.776 1.036-.437.686-.535 1.05-.918 2.002-1.085 2.575-1.386 2.534-.677 1.204-1.19 1.484-1.28 1.33-.881 1.05M112.809 557.851l.033-1.406.15-1.904.226-1.497.497-1.919.92-2.855 1.61-3.835 2.787-4.717M121.818 536.092l-1.852 2.282-.934 1.344M116.11 536.949l.392.655.481.65.49.518.572.428.437.245.55.273M203.954 445.072l-1.205 2.668-2.372 4.304-1.958 3.388-.933 1.56-.866 1.94-1.137 2.618-.505.854-2.771 4.066-.693 1.254-1.612 2.582-.286.511-.158.623.022.728 1.446 4.256.166.763-.007.728-.083.622-.475 2.5-.617 2.603-1.024 3.36-.015.434.015.462.105.406.708 1.428.798 1.666.15.63.091.797-.12 2.352-.196 3.402.09.602.12.476.317.448.964 1.133.512.784.467.91.361 1.036.136.742-.06.756-.226 1.26-2.41 12.08-1.175 7.111-.572 3.787-1.566 9.498-.437 2.302-.203 1.183.037 1.12.17 1.05.105.542.143.483.32 1.04.188.72.09.721.046.756-.053.882-.55 2.673" clip-path="url(#p2a8f869730)" style="fill:none;stroke:#000"/><path d="M177.07 554.22h.196l.37.062.631.26 1.266.699.256.09.324.029.3-.126.302-.161.347-.399.15-.63.271-.777.279-.413.512-.364.414-.09.595-.008 1.303.098 2.65.182M179.45 478.824l.783-1.133.904-1.344 1.95-2.59 3.457-4.536 6.883-9.666 1.506-2.205 1.13-1.519 2.176-2.926 2.26-3.297 1.67-2.141 1.785-2.395M210.363 436.176l-3.411 4.823-2.998 4.073M215.167 485.572l2.903-3.545M218.07 482.027l.35.71.603.672.656.483.692.434.727.469.696.301.656.179.87.08M220.785 433.285l.316 1.288-.451 3.01.602 2.436.226 1.512.572.49 1.326.56 1.22 1.47.286 1.651-.889 2.24-.677 1.75.105.84 1.115 1.568 1.626 1.288 2.756 1.904.844 1.498.632 1.708.633.868-.15 1.344-.257.84-1.084 1.19-.843 1.946-2.019 1.231-3.667 1.61-.941.504-.678.295-.693.013-.61.021-1.852.47-.746.21-.61.363-.474.791-.09.56v.616l.474 2.198.293.889.173.294.181.217.219.392.406 1.421.203.65.159.428.075.454-.038.624-.278 1.246-.075.643v.476l-.035.725" clip-path="url(#p2a8f869730)" style="fill:none;stroke:#000"/><path d="m222.374 474.898-1.122 1.988-.557.854-.43.58-.474.581-.421.638-.475.889-.534 1.074-.29.525M220.785 433.285l-.949 1.155-.933.588-1.107.413-1.936.51-1.046.169-1.314.049-1.431-.091-.795.014-.911.084M372.46 530.78l.1.42.012.535-.478 2.44.079 1.833.211.742.387.868 1.002 1.714.546 1.337.98 2.023 1.825 3.129.705.752 1.182 1.218 2.23 3.338 1.06.861.825.238.787-.3.501-.414.312-.42.234-.588.331-1.123.196-.103.248.098 1.062 1.51.332.671.166.861.06 1.743.225 1.386-.18 1.274-.332 1.371.136.63.294.539.775 1.155.181.707.015.98-.293 1.798.045.61.173.342.233.21 1.115.287 1.348.133 1.476-.119.316-.182.233-.455.684-2.876.367-.315.29-.105.569-.067 7.38-.308.76.294.41.408.017.44-.506 1.214-.241 1.448.075.347.309.514 3.223 4.192.177.578-.038.287-.433.64-.523.747-.064.347.211.264.414.122 1.853.224.244.357v.378l-.297.62-.316.265-1.6.69-.509.38-1.107 1.618-.18 1.169-.193 1.777.106.507.568 1.701.012.511-.271 1.35.337.214.291-.038.24-.184 1.116-1.478.606-.039.267.147.501.693.576 2.092.43.168.32-.063 1.532-.752.885-.06.369.116.309.262 1.073 1.267.591.126 1.378.084 3.035 1.116.632.053.817-.063.99-.214 1.202.036.629.259.715.556.881 1.49M424.707 586.098l-.159.731-.23.672-.116.493-.027.588.057.777-.004.976M174.393 484.917l-1.39 1.418-5.625 5.544-9.73 9.442-13.78 13.494-8.6 8.595-5.738 5.165-7.712 7.517M177.07 554.22h-.09l-.753.202-1.634.44h-.264l-.286-.034-.279-.112-1.13-.805-.58-.413-.843-.728-.534-.888-.362-.862-.354-.853-.43-.735-.488-.63-.686-.805-.4-.476-.428-.336-.655-.392-1.19-.406-1.235-.321-.61-.12-.527.05-.4.118-.978.441-3.487 1.323-.467.133-.572.028-.708-.09-1.747-.393-2.372-.65-1.996-.463-1.687-.286-.986-.217-.625-.224-.866-.414-.67-.363-.694-.19-1.076-.14-.746-.132-.753-.183-.768-.258-.73-.28-1.793-.784-2.613-.938-2.643-.847-.738-.3-.716-.406-.888-.497-1.266-.652-2.703-1.154-2.552-.868-3.254-1.218M100.73 543.453l.19.408.31.854.18.63.249.741.354.75.406.706.166.364.128.483.083.679.03 1.806.075 1.483-.075 1.596-.12 1.988M119.666 481.37l-1.462-1.11-.844-.638-1.333-.777-.776-.496M177.07 554.22l.188-.526.452-1.056.497-1.19M175.812 479.392l-.235-.122M175.812 479.392l.38.185M178.26 469.466l.215.308.402.319.528.241.576.322 1.246.42.31.161.082.19-.083.46-1.107 1.541-3.758 4.473-1.094 1.369" clip-path="url(#p2a8f869730)" style="fill:none;stroke:#000"/><path d="m174.223 478.04.9.812.454.418M176.573 482.46l1.3-1.578 1.023-1.305M179.45 478.824l-.317.46-.237.293M176.193 479.577l.632.08.618.053h.535l.373-.035.545-.098M176.573 482.46l-.034-.657-.018-.525-.072-.518-.12-.595-.136-.588M174.393 484.917l1.028-1.109 1.152-1.347" clip-path="url(#p2a8f869730)" style="fill:none;stroke:#000"/><path d="m174.393 484.917.414-.083.247-.072.153-.069.218-.153.704-.557.557-.476.85-.91.98-1.169.43-.574.218-.37.143-.357.135-.414.023-.276-.008-.182-.007-.43M515.427 536.561l.004.948.02.69.086.598.113.312.286.364 1.276 1.543 1.56 1.96.779 1.05.324.636.146.48.072.566-.06.662-.358 1.368-.388.872-.414.51-1.224 1.068-.421.416-.219.325-.14.445-.218 1.228-.034.805.083.462.185.459.26.31.316.214 1.224.553 1.155.522.23.227.125.263.048.248-.022.557-.068.91.004.748.09.417.23.416 1.89 2.079 2.33 2.393.969.812.726.441" clip-path="url(#p2a8f869730)" style="fill:none;stroke:#000"/><path d="m526.43 548.092.203.318.354.396.757.584.203.277.11.255.075.438-.008.202-.067.186-.166.181-.644.34-1.408.7-.67.469-.452.455-.765 1.116-.365.665-.147.382-.136.59-.12.396-.218.382-.271.49-.06.262-.008.235.235 1.093.126.359.162.258.245.218.77.461.499.354.297.35.445.86.233.89.17 1.12.142.542.253.637.12.474.068.411M489.59 537.219l5.068.731.938.074.606-.021.606-.095 2.55-.654 1.012-.21.384-.021.403.053.678.283.636.521.557.62.26.178.272.056.233-.035.308-.206.366-.43 1.02-1.25.452-.563.215-.154.267-.077.184.01.223.102.158.16.448.714.433.634.323.276.588.354 1.032.357.614.07.734-.06.327-.094.256-.179.173-.227.208-.431.184-.3.249-.235.88-.445.921-.38.183-.041.188.022.369.112.331.123M334.673 478.661l.103.829.15.713.204.63.342.63.328.316.414.192.524.094.772.004 1.408-.074.53.088.513.227.421.42.25.431.16.542.076.749-.003.672-.163.896-.323 1.14-.52 1.373-.783 1.407-.177.493-.068.458.008 1.089.116.441.238.55.369.518.602.556.82.57.42.14.357.01.594-.108 1.074-.406.65-.164.547-.01.621.125.806.381 1.68.931.564.319.43.371.617.676 1.122 1.067 1.05.693.727.276.35.039.373-.021 1.058-.336.474-.245.532-.448.414-.553.508-.99.283-.365.308-.234.407-.178.467-.085.617.011.531.13.478.283.596.536.654.672.788.92.33.528.34.721.301 1.159.309 1.406.429 2.59.09.84-.015.77-.256 1.106-.859 2.268-.323 1.182-.331 1.617-.09 1.106.082.585.166.56.335.553.44.486.46.336.787.388 1.329.746.715.637.516.608.614.988.46 1.091.466 1.652.188 1.064.211 1.106.475 1.182.768 1.652.459 1.015.26.395.621.505 1.378.948.414.406.31.532M363.705 541.149l1.13-.801.737-.655.799-.938.96-1.077.376-.456.407-.756.535-1.284.21-.5.26-.371.407-.462 1.212-1.309.72-.655.406-.369.313-.362.284-.374M398.317 425.24l-.435.436-1.844 1.582-2.17 1.757-2.19 1.708-.86.567-.481.441-.881 1.169-1.04 1.4-.406.665-.203.54-.392 2-.083.715.068.51.309.918.73 1.904 1.115 2.835.693 1.84.64 2.303.482 1.827.067.511-.037.567-.294.938-.256 1.008-.045.623.083.693.195.602.294.497 1.092 1.071.678.686.444.7.256.54.12.51.023.658v1.162l-.24 3.01-.129 1.693.015 2.199.098 2.12.196 1.708.279 1.596.293 1.078.543 1.148.587 1.022.436.608.663.575 1.243.798 1.491 1.12 1.484.962.673.245.313.028.369-.042 1.144-.35 1.033-.315 1-.168.803-.031.384.045.53.207.645.276 1.069.259.817.283.799.417.605.43.347.343.278.466.652 1.36.644 1.191.384.424.5.335.84.494.494.37.873.883.61.818.43.778.775 1.14 1.198 1.575 1.031 1.282.753 1.077.377.791.195.735.083 1.113-.15.98-.34 1.106-.406.84-.474.665-.716.776-.9 1.232-.975 1.442-1.084 1.848-.768 1.092-1.123 1.211-.353.476-.098.315-.053.42.038.889.245 2.995M420.663 535.644l.316-1.428.049-.605-.027-.371-.165-.375-.222-.426-.143-.371-.215-.693-.094-.556-.667-2.18-.482-1.443-.395-1.097-.147-.491-.056-.34.011-.521.135-.858.159-1.648.075-1.057-.08-.693-.176-.693-.252-.633-.37-.598-.568-.652-.859-.86-.779-.931-.606-.924-.293-.57-.216-.498-.157-.626M405.838 515.788l.373-.826.271-.507.505-.662.52-.51.218-.267.219-.455.13-.297.091-.112.132-.053.17-.017.753.126 1.404.378 1.63.556 1.002.217.535.077.648.07M334.673 478.661l-1.027 1.767-1.52 2.827-1.484 2.373-1.702 2.772-1.13 1.736-1.973 2.547-1.566 2.163-.588.959-.436.903-.505 1.393-.482 1.19-1.318 2.646-1.25 2.442-1.747 3.213-1.416 2.456-.632.883-.92 1.081-.304.483-.196.444-.177.5-.195.687-.256.759-.753 1.778-.73 1.487-.08.36v.267l.053.265.195.511.162.309.26.35.561.37 1.242.9.592.426.38.389.37.507.436.71M411.897 162.045l-.52-.084-.444-.133-.715-.323-.972-.608-2.146-1.275-2.432-1.372-1.778-1.065-1.273-.497-2.484-.378-1.205.07-2.102.315-1.302.126-1.28.007-1.13-.189-1.009-.182-.753-.252-.768-.35-1.213-1.1-1.528-1.533-.753-.651-.852-.441-1.596-.54-2.124-.623-1.137-.392-.88-.14-.852-.02-1.144.055-2.101.266-5.475.602M408.781 181.181l.108-.347.917-2.35 2.867-5.768.557-1.33.693-1.779.376-1.233.12-1.162-.12-1.05-.233-.952-.407-.882-.745-1.142-1.017-1.141" clip-path="url(#p2a8f869730)" style="fill:none;stroke:#000"/><path d="m497.361 177.786-1.224 1.28-2.968.807-2.283.255-3.652-.383-1.37-.212-1.004-.764-2.192-2.547-1.69-.722-1.734-.594-3.607.467-1.406-.05-17.496 1.281-1.37-.51-4.885-1.358-2.785.043-3.744-1.147-5.936-.722-2.556-.552-5.616-4.245-2.603-.552-2.145.85-2.374 1.358-1.416-1.443-.73-.34-1.507.68-.594 1.782-1.096.255-1.05-.255-.456-.764.456-2.165.137-1.443-.776-1.147-1.324-1.698-2.468-1.186M497.361 177.786l-.075-.589.143-.707.256-.406.746-.49.663-.504.391-.533.294-1.148.068-1.008-.008-.54-.196-.72-.324-.82-.39-.574-1.515-2.17M521.77 165.572l-1.877-.762-.678-.097-.711.066-.49.217-.395.466-.72 1.278-.485.655-2.342 1.792-2.756 1.786-2.094 1.12-1.777 1.428-1.416 1.569-1.49 1.484-1.153.875-1.641 1.19-.867.407-.632.133-.715-.035-.844-.217-.828-.595-.498-.546M637.27 552.583l-.182-.488-.29-.42-.406-.445-.546-.58-.392-.336-.5-.315-.603-.389-.689-.525-1.503-1.256-.779-.658-1.4-1.435-1.398-1.336M549.018 589.957l-.115-.69.036-.412.167-.603.305-.618.26-.303.301-.21.494-.346.337-.305.448-.59.583-.884.377-.466.431-.442.823-.58.587-.483.448-.59.433-.854.403-.574.794-.805.486-.626.335-.645.185-.794.023-.686-.09-.483-.238-.423-1.4-1.526-.396-.707-.29-.808-.113-.805.06-.776.128-.97-.06-.619-.128-.69M167.544 248.804l-.52-1.897-.21-.672-.076-.574.09-1.646.317-3.612.263-.883.505-1.057 1.566-2.514.512-.65.686-.729 1.265-.763 1.694-.904 1.37-1.078.468-.49.27-.581.31-.96.421-2.54.023-1.66-.098-3.179-.15-.637-.234-.54-.957-1.7-1.13-1.667-1.407-1.561-.949-1.344-.452-.301-.467-.133-1.642-.337-1.513-.63-.648-.427-.52-.546-.278-.637-.256-.89-.776-3.108-.218-1.464-.264-.735-.715-.994-1.137-1.82-.904-1.842-.919-2.29-.52-.973-1.626-2.107-1.288-.855-.677-.51-.347-.715-.09-.973.113-2.661.12-1.078.542-1.996.046-1.064-.098-.82-.301-.79-.61-1.002-2.192-3.214-1.25-1.372-.949-.777-2.267-1.219-1.987-1.113-1.122-.287-1.868-.084-2.644.203-1.724.308-2.04.791-.95.147M178.26 469.466l.79-2.744.49-.874 1.37-2.08M173.418 472.763l.196-1.4-.106-.742v-.798l.226-.378.723-.392 1.581-.294.92.112.978.336.324.259M213.39 364.284l-1.009-.434-1.19-.664-1.8-1.016-1.95-1.28M227.02 363.816l-1.844-.218-1.913-.49-1.062-.126-1.13.091-2.853.533-1.484.063-.821.07-.987.265-.858.274-.678.006" clip-path="url(#p2a8f869730)" style="fill:none;stroke:#000"/><path d="m201.921 364.432 2.048-.673.859-.315.49-.3.459-.574.429-.274.655-.154.678.133 2.477 1.008 1.409.61 1.084.335.881.056M227.02 363.816l4.186-1.883M230.37 365.692l-.857-.917-.987-.63-1.506-.33M230.37 365.692l.529.567.497.287.587.077.866-.176 2.245-.706 1.257-.162.738.057.625.252.43.392.33.658.204 1.498.572 2.198.445 1.295.76 2.135.851 1.673.512.952.226.903.264 2.87.166.659.316.573.625.7 1.408 1.205 1.514 1.218M405.633 453.005l-1.291-.259-.954-.11-.874-.148-.815-.5-.736-1.144-.914-2.199-.358-2.068-.04-2.014-.059-.831-.477-1.349-.556-1.68-.1-.87-.715-.48-.835-.461-1.013-.868-1.014-.924-.08-.406-.138-.85-.18-.647-.297-.683-.04-.628.199-.684.238-.664.556-.906.756-1.145.735-1.109.676-1.219.596-1.46.414-1.46M112.217 585.784l-.113 3.988-.03 3.92-.025.937M123.722 590.899l-.338-.24-3.08-.684-4.332-.184-1.65-.037-.417.702-.02 1.292-.616.887-.378 1.477-.842.517M112.809 557.851l-.246 10.492-.119 7.082-.114 6.397-.113 3.962" clip-path="url(#p2a8f869730)" style="fill:none;stroke:#000"/><path d="m120.204 588.443-.933-.13-1.53-.757-1.73-1.072-2.087-.756-1.707.056M110.224 557.867l-.135-.578v-1.315l.993-3.444-.24-4.06.541-2.827.362-1.372 2.018-5.123.836-1.602.26-.285.272-.182.497-.14.482.01M110.224 557.867l.226.962-.09 1.96M110.224 557.867l2.585-.016M230.37 365.692l.836-3.759M230.576 313.422l.944 2.73.682 1.366 2.623 3.656-.683 4.974 1.102 4.144.314 2.096-.943 4.437-1.207 4.34-.524 2.535-.262 2.194 1.1 9.702-.524 1.316-.367 1.365-1.101 1.95-.524 1.706M222.132 311.764l1.154.683 2.203-.829 2.308-.049 2.78 1.853M374.1 308.087l-1.035-.588-.842.08-1.757.22M384.352 280.436l-1.537.023-1.51 2.217-1.47 1.33-.995.444-1.907.037-1.828-.407-1.63-.776-1.113-1.22-1.232-.48h-1.312l-1.272-.148-5.087-1.33-2.783-3.178M401.48 225.442l-1.768 5.092-.374 1.549-.235 1.156-.175 1.657-.019 2.056-.013 2.37-.047 2.271-.25 1.675-.396 2.502-.476 2.231-.533 1.52-1.513 3.444-2.989 6.067-1.535 2.725-1.198 2.58-.614 1.64-.653 1.643-2.263 6.388-2.077 6.428M408.781 181.181l-.27.87-.394 1.568-.093 1.47.018 1.292.249 1.751 2 6.42.3 1.155.142.97v.922l-.094 1.1-.468 1.764-1.518 4.713-2.511 6.558-1.004 2.895-.804 2.593-2.854 8.22" clip-path="url(#p2a8f869730)" style="fill:none;stroke:#000"/><path d="m391.52 189.625.159.517 4.69 4.472 1.033 2.882.755 2.18.795 2.587.04 1.072-.715 3.733-.12 1.145 1.074 2.07 3.418 3.474.08 3.659-.954 3.732-1.034 3.104.74 1.19M408.781 181.181l-.6.401-.63.39-.472.756.026 2.974-.262.44-.34-.074-.42-1.073-.761-1.267-1.678-.561-.577-.464-.892-.292-.472.17-.891.781-1.233.658" clip-path="url(#p2a8f869730)" style="fill:none;stroke:#000"/></g><path id="PatchCollection_1" d="m394.445 397.844 1.57 2.346.775.85.953-.628-.079-.96-.397-1.054-.855-.628-.662-.32-.61.357z" clip-path="url(#p2a8f869730)" style="fill:#00f;fill-opacity:.8"/><g id="PatchCollection_2"><path d="m151.04 111.762-1.286.417-.414 1.213.019 1.408-.196 1.411-1.063 1.019.056 4.226.447 1.203 1.301.79 1.087.791 1.3.589.018 1.409-.197 1.41-1.28.82-1.508-.183-1.297-.387-1.086-.793-1.296-.387-1.283.62.236 1.606.02 1.41-2.518 4.859-1.063 1.018-.411 1.414.446 1.202.662 1.2.446 1.203.234 1.406.019 1.408 1.985 3.6.446 1.203-.196 1.41-.414 1.213-.63 1.215-.844 1.218.059 4.427-.415 1.212-.844 1.217-1.06 1.22-1.503.219-1.087-.792-.446-1.203-.019-1.408-.661-1.2-1.953-1.185-1.286.417-1.504.22-1.282.618-1.065.818-1.286.417-3.227.038-1.504.219-1.285.417-1.714.624-1.506.017-1.296-.387-1.302-.79.844-1.217 1.283-.619.415-1.212.411-1.414.845-1.218.847-1.016 1.065-.818 1.278-1.02 1.5-.42 1.3.588 1.304.991.446 1.202.45 1.404 1.51.385 1.507-.018 1.278-1.02.626-1.417-.018-1.408-.874-.997-1.286.418-.869-.594-1.527-1.592-.032-2.415.416-1.011 1.058-1.42 1.481-1.85-.026-1.992.847-1.017 1.065-.817 1.503-.219 1.28-.82 2.542-3.048-.018-1.409-.235-1.406-.876-1.198-3.228.038-1.282.619-1.286.418-1.501.42-1.724-.182-.877-1.197-.037-2.817-.447-1.203-1.086-.792-1.511-.385-1.297-.387-1.299-.589.63-1.215 1.285-.418.412-1.413-1.297-.387-.448-1.404.392-2.822.194-1.613.414-1.212.848-1.016.21-.305.214-.103 1.501-.42 3.012-.035 3.018.367 1.72-.02 1.504-.219 1.498-.62 1.286-.419 2.566-1.237 6.239-.073 3.857-1.252 1.495-.823 1.5-.42 1.504-.219 2.57-.835 3.196-2.452 1.721-.02 1.087.792.019 1.408-.845 1.218-.63 1.215-1.065.817-1.503.22-1.285.417-1.506.018-1.504.219-1.285.417-2.56 1.64zm-10.964 1.831-1.254.66-1.379-.092-1.38-.199-1.253.659-1.494-.09-1.043-.846-1.383-.413-1.254.658-.213 1.29 1.158.739 1.27.521 1.378.092 1.377-.017 1.486-.446 2.745-.676 1.158.738.361 1.283.591 1.282.82 1.171.817 1.064.93.955 1.16.953 1.38.09.424-2.58-.017-1.288-.476-1.283-1.271-.63-1.378-.09-.59-1.174.905-.977 1.372-.445.557-1.187-.59-1.281-1.382-.306-1.371.445-1.254.658-.204.003zM489.14 109.493l-.701 1.182-.154 1.847 1.265.656 1.436.15 1.267.824 1.261.488 2.878.636 1.437.15 2.878.636 3.052.3.554 1.166.019 1.342-1.06 1.187-1.432.184-1.434.018-1.79.189.554 1.167 1.087.826.395 2.679 1.092 1.16 1.44.318.555 1.336-.16 1.343-1.43.353-.733-1.165-1.267-.823-1.434.016-1.437-.15-1.439-.318-1.262-.488-1.087-.825-1.264-.656-1.263-.488-1.438-.318-1.616-.148-3.048.036-1.432.186-1.248.518-.88 1.184-.161 1.344-1.419 1.19-.882 1.018-.88 1.185-.702 1.182-.16 1.344-1.44-.318-1.266-.824-1.443-.653-2.883-.972-.913-1.163-.02-1.509.158-1.512-.02-1.509-.736-1.332-.91-.996-1.087-.825-1.437-.151-.913-1.163-.018-1.341-.736-1.333-.553-1.168-.201-1.507-.736-1.332-.732-1.166-.019-1.342 1.428-.52 4.482-.054 1.61-.186.153-.176 1.46-.011 1.427-.521 1.245-.686 1.402-2.365 1.044-2.36 1.062-1.02 1.245-.685 2.497-1.037 1.062-1.019.88-1.184.521-1.18.161-1.344.338-1.514.696-1.517.517-1.516.7-1.35.7-1.183.883-1.017 1.245-.685 1.265.655.558 1.503.557 1.335.377 1.337.018 1.341-.522 1.18-1.24 1.022-.702 1.183.377 1.337 1.087.825 1.265.656 1.82 1.99.377 1.337-.522 1.18-1.06 1.188-.7 1.182zM538.215 118.293l.912 1.163.555 1.167.197 1.34.019 1.34-.338 1.515-1.052 1.69-.883 1.016-.7 1.183-1.063 1.019-1.432.185-1.261-.488-.91-.995-.378-1.337-1.437-.15-1.043 2.36-.882 1.017-1.614.02-1.262-.488-.554-1.168-.91-.995-1.435.017-1.243.854-1.614.02-1.439-.319-.593-4.018-.378-1.337-1.261-.488-1.434.017-1.44-.318-.912-1.163-.2-1.507.158-1.511.639-.511.61-.007 1.436.15 1.439.318 1.262.488 1.434-.017 1.43-.353 1.064-.851 1.248-.519 1.064-.85 1.423-.857 1.241-1.021 1.245-.686 1.426-.688 1.43-.353 1.433-.017 1.44.318 1.269.99.917 1.5.91.995zM100.38 169.713l1.512.385 1.286-.418 1.498-.621 1.28-.82 1.501-.42 1.51.184 1.295.387 1.087.792.877 1.198 1.088.994.878 1.197.879 1.398.446 1.203 1.3.589.018 1.408-.411 1.414-1.26 2.43-.904.694.027 2.072-1.044 2.36-1.245.854-1.43.352-2.86.704-1.434.016-1.966.526-1.434.017-1.43.352-1.612.187-1.789.356-1.246.685-.702 1.182-.522 1.18.02 1.51-.52 1.348-.522 1.18-.883 1.016-1.247.686-2.497 1.036-.883 1.016-.34 1.346-1.063 1.018-4.29 1.057-1.428.52-1.433.183-2.868.034-1.262-.489-.554-1.168.52-1.347 1.063-1.019 1.065-.85 1.248-.518.881-1.184 1.399-2.7 1.065-.852 1.248-.517 1.43-.352 1.439.319.733 1.165 1.087.826 1.43-.352.881-1.184-.018-1.342-1.087-.826-4.303.05-1.432.185-1.435.016-1.612.187-2.864.368-1.61.355-1.43.352-1.968.358-1.436-.151-.91-.996-.189-.508-.45-.329-.662-1.2-.876-1.198-.662-1.199-1.299-.589-2.173-1.585-1.297-.388-1.298-.588-1.506.017-1.297-.387-1.3-.59-.018-1.408 1.062-1.018 1.284-.619 1.503-.218 1.286-.418 1.506-.018 1.719-.22 1.285-.418 1.283-.619-.037-2.817-.446-1.203-.234-1.406-.019-1.408.415-1.213 1.296.388 1.087.792 1.296.388 1.506-.018.627-1.416-.019-1.409.415-1.212 1.065-.818 1.28-.82 1.498-.62 1.286-.418 1.283-.618.414-1.213.352-2.525 1.112-.712 1.506-.018 1.296.388 1.515.586 1.086.793 1.304.99 1.302.79 1.52.99 1.086.791 1.302.79 1.086.793 2.599 1.177zM446.84 189.332l.017 1.173.717-.008 1.444.653.553 1.167.378 1.338.2 1.507.395 2.678.754 2.675.019 1.341-.126 1.048.321.124.554 1.167.377 1.338.037 2.683-.161 1.343-.52 1.348-.34 1.346-.521 1.18-.34 1.346-.881 1.184-.7 1.183-1.066.851-1.42 1.024-1.246.686-1.428.52-1.434.017-1.249.518-.16 1.344-.522 1.18-1.43.353-1.265-.656-.91-.996-.733-1.165-.438-.921-1.192-.233-1.262-.488-1.44-.318-1.436-.15-1.442-.487-1.445-.82-2.892.034.209.5.039 2.851-.522 1.18-1.43.353-1.614.02-1.616-.149-1.439-.318-1.614.02-1.437-.151-.735-1.333.34-1.346.522-1.18-.198-1.34-1.264-.656-.198-1.339 1.402-2.364-.018-1.342-.91-.995-1.441-.487-2.53-1.31-.912-1.164 1.065-.852 1.436.151 1.265.656 1.443.653 1.437.15 1.435-.016 1.607-.523.882-1.017.522-1.18.88-1.184 1.065-.852 1.246-.685 1.43-.353 1.244-.853 1.061-1.02.523-1.18-.038-2.683-.553-1.167-1.092-1.16-1.434.016-1.242 1.021-.883 1.017-.699 1.35-.883 1.017-1.431.185-1.44-.318-1.262-.488-1.248.518-.88 1.185-1.435.017-1.262-.488.34-1.346 1.246-.686 2.86-.705 1.423-.855.522-1.18-.018-1.342 1.043-2.36.645-1.632.229-.057 1.432-.185 1.428-.52 1.608-.354.884-1.017-.058-4.193.522-1.18 1.245-.686 1.614-.019 1.44.318 2.179 1.987 1.087.825 1.264.656 1.262.488 2.878.636 1.619.316 1.62.484 1.265.656 1.44.485 1.088.826zM382.423 224.437l-.701 1.182-.883 1.017-1.065.852-1.262-.489-.91-.995-1.087-.826-1.442-.486-1.434.017-1.432.185-1.249.518-1.43.353-1.425.688-1.244.853-.058.066 17.242 11.67-.506 1.315-.713.344-1.26-.32-1.446-.822-1.443-.654-1.092-1.16-2.357-1.818-2.535-1.814-2.524-.977-1.435.018-1.252.182-2.867.202-1.462-1.995-.275-1.203-.28.035-1.434.018-1.246.685-.522 1.18-.701 1.183-1.246.686-1.61.354-1.245.686-.34 1.346.054 4.024-.161 1.344-.522 1.18-1.065.852-1.434.016-1.446-.82-1.432.184-1.424.855-1.439-.318-2.174-1.65-1.265-.657-1.087-.826-.018-1.341.338-1.513.161-1.344 1.044-2.36.701-1.183.88-1.185.518-1.515.883-1.017.878-1.352.884-1.017-.019-1.342-.556-1.334-.197-1.34.338-1.513 1.76-2.37 1.065-.85 1.246-.686 1.42-1.135-.022-1.566-.376-1.337-.734-1.165-.912-1.163-.554-1.168-.02-1.51 1.061-1.018 1.246-.685 2.488-1.707 1.064-.852 1.063-1.018 1.246-.686 1.064-.852 1.246-.685 1.248-.518 1.246-.686 1.424-.855 1.246-.686 2.496-1.036.883-1.017.522-1.18 1.243-.854 2.87-.034 1.432-.185 1.248-.518 1.427-.52 1.435-.017 1.616.148 1.264.656.913 1.163.198 1.34-.162 1.343-.34 1.346.037 2.683.376 1.338 1.265.655.91.995-.159 1.512-1.064.851-.34 1.346.377 1.337 1.267.824 1.261.488.377 1.337-.7 1.183-1.429.52-1.248.518-.522 1.18.037 2.683-.52 1.348-.522 1.18.019 1.342.91.995zM141.11 217.39l1.262.49 1.433-.185 1.064-.852 1.063-1.018 1.425-.688 1.435-.016 1.262.488 1.443.654 2.87-.033 1.432-.185 1.439.319 1.09.993 1.09 1.161.377 1.338-.34 1.345.197 1.34.025 1.845-1.063 1.018-2.878-.637-.702 1.183-.161 1.343-.34 1.346-.882 1.184-1.064.851-1.44-.318-.732-1.166-1.44-.318-1.064.85-1.062 1.019-.884 1.017-1.403 2.365-.339 1.513.915 1.33 1.43-.351 1.404-2.364 1.436.15.377 1.338 1.432-.185.881-1.184.702-1.182 1.06-1.187 1.246-.686 1.434-.016 1.263.488 1.443.654 1.262.489 1.618.316 1.264.656-.34 1.346-1.421 1.023-1.248.518.376 1.337-.323 2.688-.701 1.182-1.065.85-1.607.523-1.426.687-1.062 1.019-1.433.184-1.439-.318-1.432.184-1.087-.825.161-1.344-.376-1.338-1.267-.823-1.434.016-1.433.185-1.787.02-1.443-.15-1.262-.489-1.616-.148-1.43.352-1.244.853-1.065.85-1.423.856-1.415.46-.176.397-1.06 1.186-1.432.185-4.304.05-3.053-.3-1.44-.318-1.436-.151-1.618-.317-2.885-1.14-1.44-.319-1.618-.316-1.436-.151-1.44-.32-1.44-.486-1.44-.318-1.441-.486-.736-1.334.884-1.016 1.434-.017 1.267.824 1.087.826 1.264.656 1.262.489 1.435-.017 1.249-.518 1.607-.522 1.261.488 1.087.826 1.44.32 1.43-.353 1.246-.685 1.437.15 1.446.822 1.43-.352 1.246-.685.789-.327-.64-1.017-.556-1.335-.017-1.342.34-1.346 1.045-2.36.702-1.182.338-1.513.522-1.18.52-1.348.696-1.686.517-1.515.341-1.346 1.567-3.54.702-1.183.52-1.347 1.766-2.033.53-.51 1.436-.017 1.44.487 1.09.993zM396.22 236.683l1.437.15 1.435-.016 1.437.15-.162 1.343-1.243.854-1.249.518-1.246.686-.158 1.511 1.108 2.335-.34 1.346-1.43.352-1.265-.656-.198-1.339-.91-.995-1.265-.656-.017-1.341.16-1.344.52-1.348-.018-1.342-.91-.995-1.09-.994-.019-1.341.324-.84 1.458-.02.91.996.734 1.165.91.996zM117.27 284.757l1.263.488 1.248-.518 1.065-.85 1.43-.352 4.484-.053 1.437.15 1.098-.603.518.753 1.441.487 1.614-.02 1.762-2.368.702-1.183 1.434-.016 1.267.824.91.995 1.441.487 1.433-.185 1.61-.354 1.434-.017 1.262.489.554 1.167-.702 1.182-2.874-.301-1.435.017-1.611.186-1.43.352-1.424.855-1.062 1.019-1.25.518-1.438-.319-.733-1.165-1.262-.489-8.967.105-1.43.352-1.432.184-1.794.021-1.437-.15-1.8-.483-1.264-.656-1.262-.489-2.175-1.651-1.264-.657-1.087-.826-1.264-.655-1.446-.822.341-1.346 1.607-.522 1.262.488 1.07.113 1.1 1.204 1.09.994 1.087.826 1.264.656 1.437.15zM482.814 286.82l.234 1.405-1.282.62-1.496.822-.846 1.017.447 1.202 1.087.792 1.302.79 1.512.384 1.297.387 1.726.381 1.297.387 1.518.787 1.299.588.02 1.409-1.507.018-1.514-.586-1.51-.183-1.296-.387-3.018-.366-1.298-.387-1.508-.183-1.507.019-1.285.417-1.72.222-1.285.418-3.007.439-1.51-.183-1.296-.387-2.599-1.176-1.749-1.992-.662-1.2-1.305-.99-1.087-.792-.662-1.2.968-.743.96.117 3.228-.04 4.527.55 1.719-.222.847-1.017-1.087-.791-3.012.036-1.298-.387-1.087-.792.414-1.212 1.507-.019 1.509.183 3.023.769 1.518.787.874.996 1.066-.818 1.059-1.22 2.13-1.636 1.718-.222 1.09.993.447 1.202zM434.531 297.261l1.727.382 1.506-.018 1.51.183 4.519-.054 3.89 1.16 1.509.184 1.296.387 1.3.588 1.302.79 2.175 1.583.447 1.203.665 1.4.662 1.2.447 1.202.662 1.2.234 1.406.662 1.2 1.297.386 1.506-.018 1.499-.622 2.13-1.635 1.28-.82 1.064-.819 1.498-.622 1.28-.82 1.284-.62 1.28-.82 5.131-2.477 1.286-.417 1.718-.223 3.013-.036 1.3.588 1.086.792 1.515.586 1.088.791 1.299.589 1.087.792.662 1.2.02 1.408-.414 1.212-1.06 1.22-.41 1.414-.828 2.426-1.065.818-1.285.418-1.303-.79-.447-1.202-.664-1.4-.448-1.203-.234-1.406-1.507.018-1.283.62-2.124 2.038-1.282.62-1.286.417-4.52.054-1.285.418-.63 1.215-.192 1.613-.414 1.212-1.286.418-1.508-.183-.448-1.202-.874-.996-1.297-.387-1.504.22-.628 1.215-.411 1.413-1.006 1.744-1.13-.8-.19-.67-.013-1.005-.193-1.004-1.628-.987-1.271-.89-.02-1.353.194-1.613-.877-1.196-1.09-.994-.453-1.605-.021-1.61-.663-1.199-.877-1.197-1.09-.993-1.087-.792-3.898-1.764-1.515-.586-3.024-.769-4.734.057-1.504.22-1.506.017-1.51-.183-1.299-.588-.234-1.406 1.503-.22zM427.416 327.737l1.3.588 1.721-.02 1.5-.421 1.725.18.02 1.409-.63 1.215-.846 1.016-.414 1.213.447 1.203.09.189.385.219 1.265.656 1.262.488 1.442.485 1.439.319 1.435-.018 1.432-.184 2.86-.706 1.428-.52 1.246-.686 1.062-1.02.883-1.016.701-1.183.883-1.016 1.249-.518 1.435-.018 1.261.488 1.265.656 1.088.826 1.444.653 1.441.486 1.614-.02 4.283-1.56 1.435-.018 1.272 1.159.377 1.337.018 1.341-.521 1.18-.883 1.018-1.249.518-1.432.185-.161 1.343.198 1.34.436.694.113 8.21-.414 1.213-1.28.82-1.5.42-3.008.439-1.718.222-1.501.421-.63 1.215.02 1.408-.196 1.411-1.283.62-1.504.22-1.5.42-1.063 1.019.235 1.406.447 1.202.874.996 1.51.183 4.734-.057 1.297.387 1.51.183 1.72-.02 1.3.587 1.51.183 1.3.588.016 1.222-7.174-.218.009.67.195 1.172 1.185 1.54.018.112-1.503.219-.877-1.197-1.087-.792-1.309-1.192-1.302-.79-1.297-.386-1.721.02-1.283.62-.848 1.016.062 4.427.667 1.602 1.722-.02.847-1.017.414-1.213 1.285-.417 1.087.791.235 1.406.02 1.41-.63 1.214-1.282.62-1.286.417-1.504.22-1.286.418-1.506.018-1.504.22-3.013.035-1.504.22-1.5.42-.845 1.218.02 1.409-.845 1.217-1.509-.183-1.3-.588-.874-.996-1.303-.79-1.3-.588-1.509-.183-1.286.418-1.503.22-1.286.418-3.002.84-1.719.222-1.087-.792-.874-.995-.895-2.405-.038-2.817.411-1.414-.235-1.406-1.788-4.808-.877-1.197-.875-.997-1.09-.993-3.26-2.376-1.3-.588-1.302-.79-.24-1.808-.042-3.018.411-1.414.63-1.215 1.062-1.02 1.283-.618 1.064-.818-.038-2.817-.665-1.401-.662-1.2-.234-1.406 1.285-.418 1.75 1.992 1.508.183.842-1.419-.02-1.408-.234-1.406-.02-1.409.415-1.212 1.065-.818 1.498-.622.844-1.217.847-1.017.414-1.213.842-1.419-.059-4.225 1.112-.854 1.242-.18 1.725.18.874.995zM293.176 348.435l-1.428.52-1.44-.318-1.262-.488-1.264-.656-1.267-.824-.557-1.335-.018-1.341-.553-1.168-1.262-.488-1.265-.656-1.088-.826-.376-1.337-.018-1.341.16-1.344.523-1.18 1.062-1.02 1.242-1.02 1.426-.688 1.064-.851 2.856-1.04 1.366-1.093.961.73.913 1.163.376 1.337.557 1.335.197 1.34.018 1.341.377 1.338.554 1.167.559 1.503 1.466 2.33.556 1.335.554 1.168-.88 1.185-1.433.184-1.428.52zM315.288 365.28l-1.442-.486.161-1.343.34-1.346.523-1.18.34-1.347.7-1.35.522-1.18.699-1.35.16-1.343-.197-1.34-.913-1.163-.733-1.165-.91-.996-.018-1.341.34-1.346.522-1.18.34-1.346 1.242-1.02 1.247-.687 1.18-.29.792.267 1.265.656.556 1.334.377 1.338.554 1.167.733 1.166.198 1.34-.161 1.343-.702 1.182-.883 1.017-.522 1.18.037 2.683.753 2.675.055 4.024-1.246.686-2.865.37zM324.737 374.225l-1.249.517-1.619-.316-1.62-.483-1.44-.319-1.441-.486-2.88-.637-1.62-.484-1.263-.488-1.618-.316-.913-1.163.881-1.185.632-.606 1.15-.253 1.433-.185 7.532-.09 1.262.489 1.265.656.736 1.333.754 2.674zM457.853 414.73l.91.994.377 1.338.913 1.163 1.436-.018 1.246-.685 1.262.488.913 1.163.018 1.341 1.109 2.335.198 1.34.554 1.167 1.437.15 1.614-.02 1.619.317.91.995.914 1.163.554 1.167-1.062 1.02-.879 1.351-.521 1.18.554 1.168.91.996.555 1.166.198 1.34-.522 1.18-1.428.52-1.435.018-1.088-.826-.198-1.339.34-1.346-.018-1.341-.198-1.34-.554-1.167-1.09-.993-.91-.995-1.089-.826-2.003-2.156-1.264-.656-1.267-.823-1.616-.148-.911-.996-.555-1.167.339-1.513-.021-1.51-.554-1.167-1.442-.486-1.435.017-1.437-.15-1.44-.318-1.262-.488-1.442-.486.161-1.343.793-.914 2.247.206 1.44.318 1.436.15 1.247-.685zM293.337 454.494l-1.504.22-1.512-.385-.447-1.203.412-1.414 1.065-.817.411-1.414-1.087-.792.196-1.412-.019-1.408-.234-1.406-.02-1.409.848-1.016.753-.482.533.064 1.297.388.874.995.06 4.427 1.303.79.234 1.406-.406 1.816-.411 1.414-1.28.82zM104.88 452.84l1.3.589 1.509.184 1.285-.418 1.066-.817.848-1.017 1.06-1.22 1.694-2.032 1.063-1.018 1.281-.82 1.297.387.019 1.408-.848 1.017-1.065.817-1.063 1.019-.848 1.016-.414 1.213.237 1.607.446 1.202.019 1.409-.196 1.41-.414 1.214.233 1.406.665 1.4.45 1.405-6.243.072-1.286.418-1.507.017-1.299-.588-.875-.996-1.985-3.6-.447-1.202-1.095-1.396-1.09-.994-1.509-.184-1.507.017-1.694 2.033-1.723.02-1.297-.387-.449-1.404-.233-1.406-.662-1.2-1.51-.184-1.065.818-1.063 1.019-.848 1.015.662 1.2.234 1.406-1.28.82-1.287.418-3.228.038-3.008.437-1.717.423-.415 1.212 1.09.994.877 1.197.662 1.2 1.09.994.661 1.2 1.754 2.395.02 1.408-.628 1.416-1.286.418-1.297-.388.388-3.225-1.305-.99-1.507.017-.844 1.217.018 1.409-.197 1.411-.845 1.218-.63 1.214.057 4.226-.414 1.212.037 2.818.45 1.403.877 1.198.446 1.202-.848 1.017-1.506.017-1.297-.387-1.512-.386-1.3-.588-2.174-1.585-1.302-.79-1.09-.994-.661-1.2-.234-1.406-.06-4.427-.449-1.403-.661-1.2-.234-1.406.248-.479 2.093-1.56 1.275-1.223 1.483-1.83.387-1.212.888-.01 1.066-.817 1.28-.82 1.066-.818.63-1.214-.038-2.817.843-1.42 1.06-1.219 1.063-1.019.414-1.212.63-1.215.414-1.212 1.26-2.43.847-1.016 1.286-.418 1.507-.018 1.51.184.233 1.406-.196 1.411-.848 1.017-1.283.618-1.504.22-1.696 2.031-.411 1.414.234 1.406 1.5-.42.63-1.215.848-1.016 1.278-1.02 1.281-.82 1.284-.62 1.28-.82 1.063-1.019.63-1.214-.447-1.203-.877-1.197-1.3-.589-.874-.996.194-1.612 1.504-.219 1.51.184 1.089.993.877 1.198 1.725.18 1.297.388 2.598 1.178 1.303.79 2.593.775 1.515.585 2.594.775 1.514.586zM134.896 483.607l1.262.488 1.066-.85.522-1.18.52-1.348.884-1.017 1.435-.017.018 1.341.376 1.338 1.088.826 1.262.488 1.088.826-1.045 2.36.02 1.51.368.142-1.842 1.09-.99 1.084-.996.682-1.291.016-.73-.93-.74-1.736-.59-1.067-1.45-1.19-2.165-.396.338-.764-.91-.996-.733-1.165-.735-1.333-.377-1.338-.036-2.683.16-1.343-.017-1.342 1.243-1.02 1.439.318 1.087.826 1.09.993 1.442.487 1.087.825-.34 1.346-1.431.352-1.429.52-1.248.518-.523 1.18.736 1.333zM133.637 503.52l-1.28.954-.95 2.962-1.031.376-2.489 1.706-1.246.685-.884 1.017-.523 1.18-1.767 2.033-.88 1.185-.162 1.343.376 1.338-.432.729-1.723.476-2.15.16-1.155-.39-.858-.782 1.292-.47 1.246-.686 1.242-1.02.523-1.18-.377-1.338-1.269-.991-1.265-.656-1.262-.489-1.44-.318-1.435.016-2.529-1.312-.733-1.165.522-1.18 2.13-1.703 1.425-.855 1.177-1.11.961.08 1.436-.018.883-1.017.881-1.184 1.245-.853 1.062-1.018.88-1.353.702-1.182 1.607-.522 1.43-.352 1.61-.354 1.429-.52 1.703-.248.41 1.337-.71.68-.563.81.15.536 1.157.523 1.293.12 1.295.252.737 1.468.165 1.608-.425.407zM429.936 509.052l1.3.588 2.13-1.636 2.6 1.176 1.305.99 1.302.79 1.505-.219 2.56-1.641 1.286-.418 1.507-.018 1.3.588.02 1.409-.63 1.215-.847 1.016-1.062 1.02-1.066.817-.847 1.017-.844 1.218-1.065.818-1.286.417-1.09-.993-.662-1.2-1.298-.386-1.09-.994-.875-.995-1.087-.792-3.229.038-1.297-.387-1.087-.791-.663-1.2-.019-1.409.196-1.41.14-.27.503.06 1.515.586zM275.49 550.422l-.414 1.212-1.51-.183-1.3-.588-1.51-.184-1.296-.387-1.3-.588-1.087-.793.414-1.212 1.063-1.02 1.501-.42 1.283-.618 1.287-.418 1.062-1.019.63-1.215 1.242-3.638.847-1.016 1.284-.619.941-.603 1.421.173 1.303.79.447 1.202-.194 1.612-.63 1.215-1.06 1.22-.629 1.215-1.062 1.019-.63 1.215-.844 1.218zM162.122 571.818l1.44.318 1.249-.518 1.244-.853 1.246-.686 1.44.319.554 1.167-.681 2.692-.161 1.343-.523 1.18-1.762 2.37-.702 1.182-.057.47-2.322 1.42-1.722.02-1.51-.184-3.229.038-3.537-.269-1.23.677-1.25.518-1.432.184-1.263-.488-.376-1.338-1.263-.488-1.438-.15-.734-.781 7.121-4.661 3.93-1.22 2.136-1.367 1.424-.856 1.24-1.188.37-.664 1.244.645zM138.03 613.464l-1.284.619-1.505.219-2.572.835-3.85 1.856-1.064 1.02-1.286.416-.63 1.216-.196 1.41.056 4.227.45 1.403.446 1.203.234 1.406-.414 1.212-1.297-.387-1.3-.589-1.09-.994-1.087-.792-.875-.996-1.09-.993-.662-1.2-.877-1.198-.874-.996-.878-1.197-.447-1.203-.019-1.408.197-1.411.414-1.212.63-1.216.194-1.612-.038-2.817.196-1.412.415-1.212.445-.355 1.275.134 1.507-.017 1.297.386 1.51.184 1.086.792 1.325 2.4.45 1.404 1.089.993 1.507-.017.63-1.215.414-1.212.63-1.216 1.065-.817 1.281-.82.845-1.217.415-1.213.626-1.416.846-1.218.847-1.016 1.06-1.22 1.279-1.021 1.501-.42 3.02.367 1.3.589.874.996-.414 1.212-.848 1.016-.845 1.218-.412 1.414-.414 1.212-.412 1.413-.829 2.426-1.063 1.018-1.498.622z" clip-path="url(#p2a8f869730)" style="fill:#006400;fill-opacity:.8"/><path d="m88.541 137.044-.678.813 1.119-.013 1.296.387 1.302.79.874.997.018 1.408-.413 1.213-1.066.817-.847 1.016.019 1.409 1.748 1.992.449 1.403.446 1.203.056 4.226-.193 1.612-.415 1.213-.626 1.416-.845 1.217-.842 1.42-.63 1.214-.254.305-.39-.297-1.087-.793-1.515-.586-1.296-.388-1.506.018-1.112.712-.352 2.525-.414 1.213-1.283.618-1.286.418-1.498.62-1.28.82-1.065.818-.415 1.212.019 1.41-.627 1.415-1.506.018-1.296-.388-1.087-.792-1.296-.388-.363 1.061-.708-.646-.446-1.202-.234-1.406-.183-.492.815-.522 1.063-1.018 3.195-2.453 1.278-1.021 1.065-.818 1.063-1.018.847-1.017 1.06-1.22.844-1.217.415-1.212.196-1.411.63-1.215.414-1.212.627-1.417 1.694-2.032 1.066-.817.695-.667-.276-.143-1.299-.59-1.511-.384-3.228.037-1.501.42-.847 1.017-1.26 2.43.076 5.634-.63 1.215-.845 1.217-1.065.818-1.062 1.018-.847 1.017-.197 1.41-.627 1.417-1.286.417-1.296-.387-.446-1.203.197-1.411.414-1.212.627-1.417.196-1.41.415-1.213-.235-1.406-.661-1.2-.234-1.406-.018-1.409 1.283-.618 1.062-1.02.63-1.214.196-1.411-.234-1.406-.705-.964 1.109-1.054.847-1.016.845-1.217 1.062-1.019 1.286-.417 1.506-.018 1.501-.42 3.007-.437 1.506-.017 1.509.183 1.285-.417.624-1.618.627-1.416 5.132-2.475 1.065-.817 1.695-2.032 1.285-.418 1.28-.82 1.063-1.018.63-1.216 1.274-1.221 1.286-.418 1.694-2.032.63-1.216.828-2.424-.04-3.019.414-1.212 1.065-.818 1.501-.42 1.506-.017 1.087.792 1.296.388 1.514.586 2.593.775 1.091 1.195-.847 1.016-1.062 1.019-6.024.07-1.695 2.032-.839 1.62-.414 1.212.018 1.409.45 1.403.018 1.41-1.283.618-3.012.035-1.285.418-1.278 1.02-1.283.62-1.065.817-1.063 1.018-2.13 1.636-1.283.618zM626.428 127.422l-1.432.185-.901-.324-.545-.497.163-1.175.337-1.514.527-.845 1.76-2.37 1.416-1.358 1.166-.124.808.267.014 1.006-.163 1.177-.694 1.685-.34 1.346-1.054 1.522zM208.303 122.085l1.097 1.001.278.504.02 1.521.275.25 1.908.739.813-.01.536-.513 1.084-.013.274.25.288 1.265.007.507-.539.26-1.897.022-.807.516-.535.514.03 2.282.275.25.813-.01 1.922 1.753.291 1.518.007.507-.264.51-.803.77-.807.517-1.355.016-1.9-.232-.011-.76-.549-.5-.82-.498-1.355.016-1.088-.241-.013-1.014-.275-.25-1.355.015-.546-.247-1.372-1.252-.024-1.774 1.077-.52.81-.263.271-.003.535-.513-.023-1.775.806-.517-.017-1.267-.284-1.011-.275-.25-.542.006-.017-1.268.532-.767.542-.006.003.253 1.356-.015-.003-.254z" clip-path="url(#p2a8f869730)" style="fill:#006400;fill-opacity:.8"/><path d="m218.678 127.541 2.169-.025.277.504.024 1.774-.268.257-1.084.012-.01-.76.271-.003-.01-.76-.275-.251-1.084.013-.806.517-.268.256.01.76.285 1.012.274.25 2.176.481.274.25.014 1.015-1.606 1.54-2.169.026-1.643-1.249-1.098-1-.01-.762.267-.256.272-.004.525-1.274.505-2.795.541-.006.004.253.271-.003.268-.257-.007-.507 1.084-.012.003.253zM124.492 138.034l-1.066.818-.847 1.016-2.555 2.042-1.065.818-1.062 1.019-1.278 1.021-1.065.818-1.28.82-1.06 1.22-2.13 1.634-1.284.619-1.72.02-1.51-.184-1.298-.588-5.186-1.55-1.724-.182-1.296-.387-1.51-.184-.446-1.202 1.066-.817 1.283-.62 1.28-.82 1.286-.416 1.715-.423 1.283-.619 1.286-.417 1.066-.818.855-.412.207-.606.847-1.017 1.062-1.018 1.716-.423 3.013-.035 1.299.59 1.301.789 1.504-.219 1.285-.418.848-1.016 1.06-1.22 1.494-.822 1.716-.422 1.087.792.019 1.408zM196.426 181.848l.893 2.405.897 2.672.304 1.339-.699 1.35-2.57.835-1.432.285-1.57.555-1.432.285-2.57.835-1.428.554-1.424.821-1.284.552-1.296-.387-1.34-3.607-1.466-2.398-.449-1.336.558-1.215 1.429-.419 1.58.116 2.592.774 1.3.656 1.446.788 1.434-.016.991-.952-.59-1.2-1.297-.522-1.297-.387-.446-1.203.846-1.083 1.285-.417 1.298.521 1.297.388 1.286-.418.7-1.216.064-.671.788-.01 1.297.387zM507.313 206.222l1.3.588 1.304.99 1.51.183 1.505-.018 1.09.993.04 2.817-1.502.421-1.3-.588-2.173-1.584-2.599-1.176-.874-.996-1.305-.99-1.09-.994-3.012.037-1.3-.589.196-1.41.382-.737.68-.283 1.504-.219 1.506-.018 1.296.387 1.088.792zM339.444 215.892l-1.617-.149-.91-.995.161-1.343.884-1.017 1.246-.686 1.422-.856.894-.22.9.199.737 1.5.913 1.164 1.262.488.018 1.342-1.248.518zM275.134 247.012l1.264.656 1.612-.187 1.968-.36 1.08.324.377 1.337-.697 1.517-.166 1.009-.896.01-2.17-1.316-2.522-.808-2.528-1.312-.375-1.17-.046-3.354-.202-1.675-.39-2.343-.563-1.838-.02-1.51.157-1.679.759-.636 2.466.43-.25 8.054.048 3.522zM106.945 263.577l1.264.656 2.869-.034 1.432-.184 1.244-.853.702-1.182.52-1.348.883-1.016 1.433-.185 1.614-.019 1.611-.187 1.43-.352 1.245-.853.087-.168 4.943.78 3.517 6.094-.027.071-.88 1.352-1.243.853-1.435.017-1.439-.318-1.267-.824-1.087-.826-1.428.52-1.064.85-1.43.353-3.224.373-1.432.184-1.43.353-1.605.69-1.242 1.02-1.426.687-1.435.017-1.437-.15-1.263-.657-1.661-3.503-.733-1.165-1.82-1.992-1.09-.993-1.107-2.336-.379-1.505-.376-1.337-.02-1.51-.197-1.339-.04-3.018.52-1.348 1.43-.352.74-.01 4.71 5.313 2.53 1.313 1.035.163.045.16.02 1.509-.16 1.511-.883 1.017-1.062 1.018-.52 1.348zM204.966 258.07l1.437.15 1.43-.352.882-1.017 1.246-.685 1.617.148.197 1.34.018 1.342-.681 2.691-1.062 1.019-1.246.685-1.433.185-1.444-.654-.912-1.163-1.09-.994-.912-1.163-.91-.996-.733-1.165-1.82-1.991-2.529-1.313-.197-1.339 1.246-.685 1.437.15 1.618.317 1.262.488.644.44.809.885.197 1.34.018 1.34zM172.688 285.283l-1.762 2.369-1.06 1.186-2.144 2.468-.058-4.345-1.046-.954-.377-.459 1.25.132 1.436-.017 1.248-.518 1.421-1.023.161-1.344-.396-2.846 1.064-.851.52-1.348.341-1.346.338-1.513.698-1.518.701-1.182.162-1.344-.395-2.679-.377-1.337-.379-1.505-.036-2.683 1.247-.686 1.434-.017.733 1.166.377 1.337 1.264.657 1.441.486 1.437.15 1.263.489.91.995.554 1.168.376 1.337.912 1.164-.522 1.18-.701 1.182-1.762 2.369-.702 1.182-1.064.851-1.245.854-4.436 3.574zM111.414 275.936l1.437.15 1.434-.016 1.437.152 1.264.655 1.444.655 1.614-.02 1.249-.517 1.246-.685 1.434-.017 1.437.15 1.265.657.555 1.335.915 1.331.753 2.675.397.578-1.098.604-1.437-.15-4.484.052-1.43.352-1.065.85-1.248.518-1.263-.488-2.178-1.988-1.437-.15-1.264-.656-1.087-.826-1.09-.994-1.1-1.204.367.038.883-1.016-.018-1.342.299-.674zM337.128 283.006l1.437.151 1.435-.017 2.864-.37 1.435-.016.91.995.554 1.168.377 1.337.559 1.502 1.112 2.67.198 1.34 1.09.993 2.528 1.312 1.087.826.734 1.165 1.087.826 1.435-.018 1.246-.685 1.262.488.734 1.165.91.995 2.883.972 1.262.489 2.53 1.311.197 1.34-1.435.017-2.878-.636-1.267-.824-1.44-.319-1.264-.655-1.434.017-1.433.185-1.614.019-1.436-.15-.555-1.168-.733-1.165-1.444-.654-2.529-1.312-.912-1.163-.554-1.167-.754-2.675-.198-1.34-.91-.995-1.262-.488-1.43.353-.701 1.182-2.87.034-1.611.187-1.435.017-1.444-.654-.554-1.167.161-1.344 1.428-.52 1.249-.518.34-1.345-1.614.019-1.44-.319-1.09-.993 1.066-.851.311-.172.942-.01zM242.483 300.396l-1.435.017-1.44-.318-1.263-.656-1.263-.489-1.087-.825-1.62-.484-1.44-.32-1.264-.655-.556-1.335-.02-1.51.158-1.51 1.929-1.85 1.277.134 1.625.82.913 1.163.91.996.733 1.165 1.087.826 1.265.656 1.437.15 1.62.485 1.09.993-.162 1.344-1.064.851zM329.221 321.508l-1.061 1.019-1.617-.148-.377-1.338 2.13-1.702 1.243-.854.884-1.016-.378-1.338-.018-1.341.52-1.348.522-1.18.34-1.346.455-1.18.605-.007 1.263.488.735 1.333-.16 1.344-.341 1.346-.161 1.343.02 1.51-.34 1.345-.52 1.348-1.246.686zM198.868 351.561l-1.432.184-1.086-.658-1.823-2.159-1.264-.656-1.995-1.654-1.274-1.326-.197-1.34.188-.841 8.3 5.102 1.464 2.163zM510.296 354.39l1.795.146.323-.003.579.328.554 1.167-.522 1.18-1.246.686-1.612.187-1.06 1.187-.519 1.349-1.058 1.354-1.246.686-1.428.52-1.425.688-1.43.353-1.426.688-.52 1.348-.521 1.18-.883 1.017-1.425.688-1.263-.488-.377-1.337.701-1.182.88-1.185.341-1.346.883-1.017 1.425-.688 1.43-.352 1.433-.186 1.434-.017 1.428-.52 1.248-.518.523-1.18.32-2.688.884-1.017zM489.29 366.048l-1.434.018-2.525-.976-1.267-.823-.198-1.34 1.065-.851 4.984-2.744 3.05-.037.893-.22.55.874.019 1.341-.701 1.183-1.246.686-2.125 2.038zM393.153 366.532l.554 1.168 1.09.993 2.175 1.651.734 1.166.377 1.337.735 1.333 1.088.825 1.264.656 1.62.316 2.864-.37 1.265.656.733 1.165.198 1.34-.34 1.345-.883 1.017-1.433.185-1.264-.656-.913-1.163-1.265-.656-1.262-.488-2.879-.636-1.265-.656-1.443-.653-1.263-.488-1.264-.656-1.442-.486-1.262-.488-1.437-.15-1.265-.656-.91-.996-.554-1.167-.734-1.165-.913-1.163-1.087-.826-1.263-.488-1.443-.654-.019-1.341.161-1.344.883-1.017 1.265.656.377 1.337 1.088.826 1.611-.187.59-.324.116-.523.701-1.182 1.433-.185 1.434-.018 1.433-.184.34-1.346-.018-1.342 1.065-.851.554 1.167.198 1.34-.161 1.343zM115.298 366.37l1.09.994.736.334-.719.689-1.704 1.308-1.007 1.944.034 2.575 1.05 1.277.361 1.283 3.139 2.862.275.98-.557-.189-4.304.05-1.433.185-1.434.017-1.43.352-1.434.184-1.607.522-.866.417-.619-.751-.706-1.28-2.1-2.552-1.722.02-1.373.338-1.378.016-2.746.676-.701.008-.218-.773-.915-1.33-2.73-2.988-.912-1.163-1.444-.654-1.264-.657-.018-1.341.879-1.352 1.249-.517 1.618.316 1.44.319 2.87-.034 1.246-.685.16-1.344.882-1.184 1.065-.851 1.437.15 2.524.978 1.617.149 1.246-.686.52-1.348.702-1.182.884-1.017 1.436.151 1.263.489 1.619.317 1.264.655.91.997zM256.389 387.11l.91.996 1.088.825-.162 1.344-1.43.352-1.262-.488-1.09-.993-.379-1.505-1.441-.486-1.433.184-1.423.856-.884 1.017-.7 1.35-.882 1.016-2.125 2.038-1.065.85-1.423.857-1.25.517-1.427.52-.884 1.017-.7 1.182-1.25.518-1.087-.825-.018-1.342.701-1.183.883-1.016 2.493-1.371 1.244-.854 1.065-.85 1.06-1.187.34-1.346-.017-1.341.522-1.18 4.995-2.072 1.43-.353 1.608-.522.34-1.345-.913-1.164.34-1.346 1.247-.685 1.424-.856.277-.115.802.27 1.82 1.992 1.088.826.556 1.334-.162 1.344-.701 1.183zM519.474 385.395l.238 1.608-.626 1.416.02 1.409.446 1.202 1.51.183 1.282-.62.257-.071-.138.618-.701 1.183-1.06 1.186-.701 1.183.056 4.024-1.247.687-1.248.518-1.43.353-1.435.017-1.265-.656-1.09-.993-1.267-.823-1.44-.318-1.436-.15-1.44-.319-.91-.995.158-1.511.701-1.183.88-1.184.702-1.183.88-1.184.159-1.511-1.064-.97.677-.782 1.283-.62 1.297.388 1.51.183 1.282-.62 1.493-1.024 1.283-.62 1.51.184zM220.8 395.077l1.44.487 1.066-.852.522-1.18.161-1.343 1.058-1.355 1.088.826.554 1.168.018 1.341-.52 1.348-1.063 1.02.377 1.336 1.265.656.91.996.733 1.165.018 1.342-2.13 1.702.378 1.337 1.262.489 1.446.821-1.06 1.187-1.61.354-1.615.02-1.437-.152-1.262-.488-.733-1.166-.377-1.337.34-1.346 1.066-.85.522-1.181-.018-1.342-.91-.995-1.447-.822-1.262-.488-1.442-.486-.91-.995-.198-1.34 1.243-1.021-.018-1.342-.554-1.167-2.525-.976-1.439-.319-1.437-.15-1.267-.825-.733-1.165-.018-1.341 1.616.148 2.525.977 1.439.318 1.437.15 1.264.657.91.996.198 1.34.377 1.337.018 1.341zM190.87 397.107l-1.265-.656.341-1.346.883-1.017 1.245-.853 1.432-.185 2.493-1.37 1.065-.852.522-1.18-.018-1.342.424-.958 1.36.267 1.088.826.018 1.341-.883 1.016-.702 1.183-.883 1.016-1.245.854-1.248.518-1.433.184-1.249.518-.88 1.184zM110 400.524l-1.061 1.019-1.768 2.033-1.242 1.02-.88 1.185.196 1.34.734 1.165.558 1.503-.162 1.343-.522 1.18-1.06 1.187-1.24 1.188-1.245.854-1.065.85-1.762 2.369-.702 1.183-1.435.016-.733-1.165-.554-1.168-.556-1.335.16-1.512 1.43-.352 1.61-.354 1.246-.685 1.066-.851 1.244-.853.702-1.182-.036-2.684-.913-1.163-1.248.517-.523 1.18-.883 1.017-.733-1.165.34-1.346.485-4.03.522-1.18.52-1.349.341-1.346.16-1.51.34-1.347.86-.686 1.293.661.554 1.168.379 1.505.553 1.167.91.997 1.433-.185.879-1.352.702-1.182.883-1.017.702-1.182 1.249-.518.883-1.016.522-1.18.16-1.512 1.065-.851 1.262.489 1.269.991-.162 1.344-.522 1.18-1.065.85-1.244.854-1.066.851-.883 1.017-.88 1.184zM392.42 404.78l.02 1.342-.162 1.344-.883 1.016-1.423.856-2.493 1.371-2.874-.3-1.249.518-2.492 1.371-2.87.034-1.44-.318-.912-1.163-.019-1.342.34-1.345.882-1.185 1.062-1.019.701-1.182.883-1.017 1.428-.52 1.44.318 2.529 1.312 1.432-.186.697-1.517 1.24-1.19 1.246-.685.18-.002.72.16.91.995.198 1.34zM275.675 420.425l-1.433.185-1.439-.318-.736-1.333.34-1.346 1.063-1.019 2.857-1.04 1.609-.355.883-1.016.522-1.18.338-1.514 1.431-.352 1.435-.017 1.249-.518.701-1.182 1.247-.686 3.282-.039.127.167.198 1.339-.161 1.343-1.065.852-2.488 1.706-1.249.518-1.244.853-1.424.856-2.488 1.707-1.064.85-1.245.854zM191.499 417.225l-2.509.197-1.264-.655-.911-.996-.915-1.331-1.087-.826-1.267-.824-1.44-.318-1.263-.656-.555-1.168 1.066-.851 1.789-.356.632.066.809.42 1.441.486 1.438.151 2.878.637 1.62.317 1.441.486 1.616.149 1.265.655.91.996-.522 1.18-2.497 1.036-1.429.52zM298.337 411.603l1.095 1.33 1.614-.02 1.244-.853 1.428-.52 1.437.15 1.263.488.733 1.166.554 1.168.018 1.341-.883 1.016-1.435.018-1.437-.151-.883 1.017-.34 1.346-1.245.853-1.437-.15-.554-1.168-.036-2.683-.91-.996-1.438-.15-1.44-.319-1.087-.826-.91-.995-.039-2.85.32-.23.931-.121 1.435-.017 1.087.826zM255.67 426.868l1.265.656 1.435-.017 1.603-.858 1.244-.306 1.814.94.198 1.34-1.065.851-1.244.854-1.25.518-1.434.017-5.758-1.274-.733-1.165.34-1.346.702-1.182 1.44.318zM365.27 440.19l1.3.588 4.52-.053 1.51.183 1.517.787.235 1.406-.414 1.212-.848 1.017-1.285.417-1.507.018-1.28.82-1.284.62-1.065.818-1.509-.183-.875-.997 1.065-.817 1.501-.42.845-1.218-.665-1.401-4.528-.55-1.725-.18-1.515-.586-.874-.996.413-1.213 1.284-.619 1.022-.817.473-.006 1.297.387 1.09.993zM120.47 491.49l1.44.32 2.87-.034 1.246-.686.883-1.016.702-1.182 1.245-.854 1.246-.685 1.431-.352 1.249-.518.184-.416 2.165.395 1.45 1.191.59 1.067.74 1.735.73.93 1.291-.015.996-.682.99-1.085 1.842-1.089.894.346 1.265.656.018 1.342-2.498 1.035-.883 1.017-.881 1.184-.702 1.182-.523 1.18.038 2.852-.522 1.18-1.244.853-.702 1.182-.341 1.346-.883 1.016-2.494 1.371-2.498 1.036-.396.144.95-2.962 1.279-.954 1.43-.285.426-.407-.165-1.608-.737-1.468-1.295-.253-1.293-.119-1.156-.523-.15-.535.563-.812.708-.68-.41-1.336.804-.117 1.088.826.197 1.34 1.263.488 1.247-.685.34-1.346-.053-4.025.88-1.184-1.087-.826-1.249.518-1.246.685-1.427.688-1.428.52-1.61.354-2.86.704-1.25.518-1.43.352-1.435.017-1.437-.151-1.447-.822-1.264-.656-1.263-.488-1.09-.994-.018-1.342.162-1.343 1.404-2.365.7-1.35 1.058-1.354 1.248-.517 1.438.15.377 1.338-.341 1.346-.88 1.352-1.062 1.018-.523 1.18.018 1.342zM439.38 506.926l-1.284.619-1.51-.184-.877-1.196-.45-1.404-.662-1.2-.058-4.225.41-1.414 1.242-3.637.848-1.017 1.274-1.223 1.066-.818.837-.536.647-1.092 1.066-.817 1.277-1.022 1.504-.22 1.722-.02 1.297.387 1.75 1.992.447 1.201.45 1.404.446 1.202.663 1.2.875.995 1.325 2.4.665 1.4 1.09.994 1.087.792 2.6 1.176 1.303.79-.414 1.212-1.287.418-1.719.222-1.507.018-1.503.22-7.534.09-1.504.22-1.507.017-1.504.22zM241.278 497.734l-1.984 6.141-9.016-4.402 2.823-7.746zM391.141 521.592l-.414 1.213.234 1.406 1.3.588 1.297.387 1.3.588 1.513.384 1.09.994.237 1.607.818 2.552-.554 1.067-1.241 3.638-.412 1.414-.195 1.411-.414 1.212-.845 1.218-.414 1.213-.629 1.215-.844 1.218-.415 1.212-.41 1.414-.415 1.212-1.28.82-1.728-.381-1.722.02-1.06 1.22-.844 1.218-1.504.22-1.087-.793-.448-1.202-.45-1.403-.022-1.61-.662-1.2-1.3-.588-1.517-.787-.875-.996-.235-1.406-.039-2.817.415-1.212.844-1.218 1.28-.82 1.284-.62 1.286-.417.855-.47-.01-.748-.235-1.406-.02-1.408 1.063-1.02 1.297.387 1.75 1.992 1.297.387 1.719-.222.196-1.411-.038-2.817-.447-1.202-1.507.018-1.28.82-1.088-.792-.234-1.406-1.298-.387-1.3-.588-.446-1.202.196-1.412.736-.883.765.463 1.297.387 1.286-.418 2.13-1.635.845-1.218 1.694-2.033.627-1.416.41-1.414.627-1.416.848-1.017 1.28-.82 1.283-.62 4.728-.66.662 1.2.234 1.406.227.802-2.368.029-1.504.22-1.283.618-.847 1.017.877 1.196.05.156-.472.454-.847 1.016-.414 1.212-.848 1.017-1.065.818-1.286.418zM113.852 519.913l1.25-.518 1.244-.853.137-.05.858.783 1.154.389 2.15-.16 1.724-.476-.27.453-1.248.518-1.247.685-1.244.853-1.065.851-1.245.853-1.242 1.021-1.428.52-1.436.017-.733-1.166-.018-1.341-1.087-.826-1.442-.486-1.088-.826-.556-1.336-.04-3.018.162-1.344 1.264.656 1.108 2.336.197 1.339 1.088.826zM117.57 580.897l1.3.589 1.506-.018 1.286-.417.577-.239 2.666 1.207 1.087.793 1.507-.018 1.507-.018.63-1.214 1.065-.818 1.507-.018.877 1.198-.392 2.822 1.509.184.45 1.403-2.132 1.635-.414 1.212.234 1.406-1.502.421-1.507.017-1.297-.387-1.087-.792-.446-1.203-.234-1.406-1.088-.792-1.722.02-1.297-.387-1.303-.79-1.299-.589-1.51-.183-1.3-.589-1.296-.387-1.3-.59-.019-1.408.63-1.215 1.509.184z" clip-path="url(#p2a8f869730)" style="fill:#006400;fill-opacity:.8"/></g><g id="PatchCollection_3"><path d="m353.399 373.581-.768.735-2.003 2.408.105.42 2.094.441.158-.203.828-3.59zM353.603 371.127l-1.138 1.775.678.399 1.115-1.659.03-.455-.12-.168-.223-.07z" clip-path="url(#p2a8f869730)" style="fill:green;fill-opacity:.8"/></g><path id="PatchCollection_4" d="m369.18 335.405-.453 5.334 3.239.533.466-5.545z" clip-path="url(#p2a8f869730)" style="fill:#90ee90;fill-opacity:.8"/><path id="PatchCollection_5" d="m352.556 375.71.604.13-.392 1.561-.604-.13z" clip-path="url(#p2a8f869730)" style="fill:#a9a9a9;fill-opacity:.8"/></g></g><defs><clipPath id="p2a8f869730"><path d="M90 108.511h558v510.178H90z"/></clipPath></defs></svg>