<svg xmlns="http://www.w3.org/2000/svg" width="960" height="960" viewBox="0 0 720 720"><defs><style>*{stroke-linejoin:round;stroke-linecap:butt}</style></defs><g id="figure_1"><path id="patch_1" d="M0 720h720V0H0z" style="fill:#fff"/><g id="axes_1"><path id="patch_2" d="M90 628.611h558V98.59H90z" style="fill:#fff"/><g id="LineCollection_1"><path d="m115.37 481 6.457 2.576 4.638 3.481 2.638-.057 5.638 1.755 2.148 2.846" clip-path="url(#p5eeb66382c)" style="fill:none;stroke:#000"/><path d="m144.05 515.21-2.546-.59-2.383-1.1-1.98-1.732-.952-1.515-.646-2.057-.225-13.139.457-1.87 1.114-1.606" clip-path="url(#p5eeb66382c)" style="fill:none;stroke:#000"/><path d="m158.76 464.37-4.489 5.74-2 2.386-.74 1.367-3.145 10.16-1.006 1.662-1.387 1.317-6.566 2.91-2.538 1.69M397.087 381.336l.382 1.466.182 1.248.255.84.74 1.838M408.934 397.172l-.587-.76-1.106-1.563-.675-1.105-.348-.516-.372-.375-.568-.34-1.008-.552-.864-.523-.932-.793-1.84-1.726-1.17-1.22-.818-.971" clip-path="url(#p5eeb66382c)" style="fill:none;stroke:#000"/><path d="m396.208 388.614.33-.173.434-.236.26-.142.442-.282.457-.318.336-.387.18-.348M253.458 365.689l1.103-1.066 1.134-.85 1.367-.755 1.589-.568 2.994-.769 3.376-.806M269.991 361.574l-1.5-.595-.983-.279-.973.018-1.514.157M261.108 348.627l.955 1.6.182.509.136.552.864 2.887 1.298 2.983.194.38.078.393.08.544.126 2.4M390.812 392.139l1.56-1.277M357.965 442.055l.037-.188.545-1.458.455-.959.118-.463.11-.382.098-.548.068-.57-.022-1.15-.034-.34-.046-.385-.118-.368-.265-.588-.553-.544-.31-.149-.205-.163-.137-.177-.076-.197.069-.199.098-.134.243-.205.743-.644.28-.305.227-.402.076-.418-.008-.87.06-1.104.175-.856.197-.588.402-.736.212-.388.137-.404.099-.375.052-.481.182-1.266.19-1.282.167-.573.212-.396.454-.665.607-.637 1.349-1.457 1.09-1.16.714-.821 1.03-.786.75-.99.553-1.21.6-1.267 1.038-2.01 1.462-2.193 1.668-1.953 1.121-1.203 1.47-1.245 1.926-.892 1.288-.722 1.198-.452.924-.51.66-.446.189-.658.196-.687.122-.77.27-.582.475-1.164.802-.699 1.313-.976 1.053-.666.853-.364.985-.747 1.268-.776 1.94-.953M387.813 386.174l-.918 1.692.103.407 3.814 3.866M373.825 352.272l3.263 1.964M373.825 352.272l1.49-2.052M367.99 347.696l.975.61.37.377.012.629 4.478 2.96M364.72 350.567l.773.353 2.94.673 5.392.68M361.38 349.853l1.992.455M335.903 351.335l.262-.07 2.022-.853 1.342-.273 1.293.005 1.561.266 2.517.159 1.598.082 1.51-.307 1.537-.532 1.12-.34 1.452.026 1.683.56 1.15.552 1.035.711.65.357.412.112.624.068 1.026-.34 1.016-.477 1.667-1.188" clip-path="url(#p5eeb66382c)" style="fill:none;stroke:#000"/><path d="M330.605 339.088h2.485l8.367 1.585 2.971 1.869 5.093-.17 2.062.51 2.607 4.132 7.19 2.84M197.993 413.617l1.147-1.052 1.206-.658 1.253-.506 1.84-.169 1.51-.11 1.035-.275 1.006-.468.937-.8 1.028-1.344 4.436-7.816.561-.584.507-.306.887-.195.874.129 1.123.089.927-.313.797-.677 1.337-1.612 1.26-1.006 1.414-.95 2.235-1.354 1.926-1.323 2.185-1.967 5.406-5.463M253.458 365.689l-1.863 2.371-8.982 11.001-1.237 1.33-.958.816-2.913 1.59-1.101.75-1.574 1.34" clip-path="url(#p5eeb66382c)" style="fill:none;stroke:#000"/><path d="m286.752 435.64-.035-.314-.107-.443-.303-.53-.326-.51-.363-.453-.333-.644-.402-.438-.682-.531-1.531-1.012-1.175-.934-.766-.814-.378-.728-.455-.835-.546-.758-.477-.594-.462-.594-.811-.496-.706-.304-.651-.509-.546-.502-.508-.609-.75-.729-.758-.58-1.007-.87-.364-.46-.918-1.069-1.257-1.11-.978-.892-1.03-.68-.713-.495-.75-.389-.97-.346-.607-.12-.515-.114-.682-.177-.554-.326-.424-.374-.553-.538-.425-.22-1.038-.431-1.448-.39-1.273-.367-.682-.156-.53-.036-.31-.077-.22-.128-.16-.17-.19-.36-.166-.573-.076-.467-.197-.425-.16-.22-.325-.24-.356-.184-.917-.17-.948-.141-.621-.07-.372-.036-.348-.135-.872-.58-.56-.34-.44-.431-.227-.41-.228-.538-.258-.906-.318-2.944-.136-.693-.258-.566-.576-.496-.606-.424-.85-.269-1.197-.212-.5-.142-.409-.368-2.258-2.93-1.97-2.518-1.486-2.109-1.91-3.297-1.708-3.763M392.316 367.248l.207.272M392.316 367.248l-.129-.666M389.634 364.98l1.25.99 1.432 1.278M127.04 449.6l-.745.188M175.794 450.066l-1.223.503-1.64.583-1.78.549-2.07.093-1.154-.151-.905-.264-8.969-4.034-4.764-2.014-4.577-1.694-2.24-.776-2.368-.243-2.111.155-2.254.298-1.718.441-1.614.553-2.862 1.32-3.02 1.97-2.54 1.711-.945.534M127.04 449.6l-.392.51M395.664 388.904l-.17.153-.302.454-1.95 1.827-.86.805-1.861 1.602-1.041 1.105-1.197.966-1.25 1.278-.73 1.023-.473 1.224.005 1.639M395.664 388.904l.544-.29" clip-path="url(#p5eeb66382c)" style="fill:none;stroke:#000"/><path d="m394.237 389.688.418-.235 1.01-.549M396.208 388.614l-2.068-2.18M388.866 384.233l-1.053 1.94M388.866 384.233l5.371 5.455M394.14 386.435l-4.39-3.647-.884 1.445M392.373 390.862l.26-.165 1.604-1.009M387.813 386.174l4.56 4.688M394.14 386.435l-.867-4.652M390.094 373.466l1.923 1.702.386 1.2.87 5.415" clip-path="url(#p5eeb66382c)" style="fill:none;stroke:#000"/><path d="m397.087 381.336-2.95.338-.336.042-.528.067M395.166 377.045l1.742 3.843.18.448M394.294 372.528l.301 3.527.57.99M401.578 384.558l-.455-.94-.31-.895-.473-1.518-.408-.933-.626-.888-.792-.755-.58-.53-.44-.257-.513-.188-.71-.242-1.105-.367M390.094 373.466l-2.272-1.533-1.055-1.586M378.373 364.666l1.54.695 3.799 2.397 2.208 1.75.847.839M392.523 367.52l-2.946 1.703-.318.145-.374.03-.253.01-.49.019-.249.009-1.126.91M391.591 372.438l-.815.412-.29.27-.2.174-.192.172" clip-path="url(#p5eeb66382c)" style="fill:none;stroke:#000"/><path d="m394.294 372.528-.154-1.8-1.617-3.208M384.173 365.216l2.751-2.609M386.924 362.607l-6.121-5.543M386.924 362.607l1.416 1.287M388.34 363.894l-.956 1.073M389.634 364.98l-.662-.542-.245-.212-.387-.332M387.384 364.967l.845.872.231 1.246-.128.624-.41.622-.745-.647-.796-.647-.836-.32 1.84-1.75" clip-path="url(#p5eeb66382c)" style="fill:none;stroke:#000"/><path d="m387.384 364.967-1.839 1.75.836.32.796.647.744.647.411-.622.128-.624-.23-1.246-.846-.872M389.634 364.98l.426-.443M392.274 362.119l-2.214 2.418M394.425 360.592l-1.473.957-.678.57M384.835 349.93l.39.498 1.387 2.78 1.104 2.493 1.18 1.366 1.053 1.126.719 1.247 1.606 2.679M394.425 360.592l.555-.361 2.593-1.127M394.425 360.592l2.044 2.658M392.187 366.582l1.685-.906M392.187 366.582l-2.127-2.045M395.823 364.829l-1.951.847M381.78 327.757l-.815-.554-.456-.135-1.444-.154-1.208-.402-1.044-.526-.679-.192-.821-.036-.883-.074-.894-.148-1.087-.456-.58-.633-.53-.79-.366-.912-.33-.53-.433-1.22" clip-path="url(#p5eeb66382c)" style="fill:none;stroke:#000"/><path d="m405.836 285.021.162.398.211.28.304.328.621.566.395.454.375.608.246.651.145.536-.024.526-.151.396-.333.524-.44.722-.375.718-.307.796-.197.736-.152.864-.272.86-.289.668-.5.977-.455.848-.303.666-.251.74-.18 1-.16.886-.273 1.408-.387 1.274-.24.976-.093.623-.06.594-.016.637-.068.623-.149.507-.275.576-.425.68-.606.933-.307.625-.102.394-.091.595-.076.686-.275.552-.437.333-.583.114-.69.034-.637.043-.69.056-.53.078-.43.135-.426.254-.539.425-.644.521-.606.52-.599.445-.622.439-.4.311-.509.347-.591.368-.55.363-.625.458-.59.537-.79.758-1.77 1.767-.936.47-1.496.612-.879.187-.859.036-.771-.046-.518.215-.2.24-.042.92.308 3.668-.033.697M380.414 334.42l.376-.74 1.212-2.438.272-1.258-.495-2.227M372.965 336.685l-1.478 1.697M379.672 329.594l-1.441 1.024-.9.814-1.224 1.234-.936.8-1.047 1.167-.659.579-.5.532v.941M374.411 340.95l-.609-.32-.589-.676.463-2.198-.711-1.07M379.29 328.55l.15.112.281.448-.021.32-.028.164" clip-path="url(#p5eeb66382c)" style="fill:none;stroke:#000"/><path d="m376.56 336.862.324-1.318 1.386-1.99 1.007-1.888.276-.894.058-.588.06-.59M376.56 336.862l-.642 1.185-.876 1.857-.63 1.046" clip-path="url(#p5eeb66382c)" style="fill:none;stroke:#000"/><path d="m374.958 341.728-.616-.576.07-.202" clip-path="url(#p5eeb66382c)" style="fill:none;stroke:#000"/><path d="m377.707 336.517-.053 1.04-.386 1.27-.282.648-.642.767-.744.79-.642.696M371.254 347.175l1.647-.981.742-.827.596-1.096.33-1.076.39-1.467M377.707 336.517l-1.148.345M380.414 334.42l-1.802 1.123-.542.43-.363.544M379.804 336.143l.109-.55.5-1.172M376.833 345.723l.095-1.218.12-.807.136-.657.288-.807.875-.866.642-.886.513-1.103.18-.815.05-2.061.072-.36" clip-path="url(#p5eeb66382c)" style="fill:none;stroke:#000"/><path d="m384.66 336.187-.172.02-.55.066-4.134-.13M385.07 336.139l-.41.048M399.934 327.786l-4.517-.283-2.213.65-1.303.765-1.698 1.444-5.133 5.777M384.835 349.93l.01-.621-.371-.404-.227-.365-.144-.365-.083-.866-.103-1-.288-2.287.062-.866.33-2.25.246-.903.371-.98.35-.635.824-1 .453-.961.144-.52-1.339.232" clip-path="url(#p5eeb66382c)" style="fill:none;stroke:#000"/><path d="m383.445 349.183-.063-.816-.02-.654-.042-.712-.288-1.672-.062-.942.289-2.25.288-1.288.762-2.384.309-1.384.042-.894M383.445 349.183l.7.382.69.365M382.451 348.94l.545.095.449.148M376.833 345.723l-.095.734-.195.746M375.315 350.22l.557-1.21.67-1.807M382.451 348.94l-1.98-.62-.47-.12-3.458-.997" clip-path="url(#p5eeb66382c)" style="fill:none;stroke:#000"/><path d="m377.088 354.236 1.296-2.057-3.07-1.96M371.254 347.175l1.989 1.495M367.99 347.696l.71-.167.715-.594.46-.118.728-.026.283.15.368.234M364.72 350.567l-1.348-.26M366.723 349.401l-.106.145-.402.264-1.495.757M367.21 348.733l.448-.764.332-.273M378.879 355.538l-.71-.537-1.08-.765M378.879 355.538l1.924 1.526M378.879 355.538l2.72-3.019M382.451 348.94l-.488 1.591-.098.759-.065.486-.105.407-.096.336M380.803 357.064l2.6-3.016.01-.107-.01-.063-.054-.066-1.75-1.293M367.21 348.733l-.487.668M366.723 349.401l-1.503-1.642-.57-.647-.34-.334-.17-.324.597-.416.452.301.837 1.044 1.183 1.35M364.74 348.394l-.871.992-.276.402-.22.52M376.833 345.723l2.6.626M561.704 119.009l-.562-.608-.463-.226-.562.075-.667.33-.558.434-.516.514-.223.564-.078.821.068.713-.161 2.493-2.467 1.448-2.608-.022-4.44-.702-1.739-.22-2.09-1.623-2.232-2.282-1.41-1.141-2.843-1.668-5.004.154-4.934 1.689-2.349-.197-2.044 1.338-2.937 4.63-2.161 3.181-2.514 2.48.516 2.348-.727 3.225.329 1.317-1.457 2.962 1.175 1.36 1.433 2.041-1.105 4.367-3.547 3.445-2.913 4.19-4.16 7.329-4.228 2.018-3.698-.808-3.451-.089-1.504.747-4.111 1.184-.732 1.454.386 1.709-1.417 2.345-1.48 4.695-1.104 4.278M484.158 185.963l.257-1.195v-3.467M432.359 195.125l.205.157.368.348.326.41.32.48.332.547.31.608.318.61.175.402.122.538.038.434.015.699.015.806.099 1.14.104.67.107.399.106.357.13.245.28.34.38.424.378.502.35.582.43.685.428.855.49.936.333.608.686 1.28.186.334.174.24.364.396.5.475.553.467.682.546.584.42.432.35.432.383.28.354.282.39.264.473.22.595.159.814.177.556.02.477-.114.588-.139.574-.195.876-.06.503.015.46.038.516.045.425.074.357.108.464.175.545.204.623.114.396.044.42.054.486.047.79M447.094 223.623l-.656.522-.609.513-.24.195-.666.626" clip-path="url(#p5eeb66382c)" style="fill:none;stroke:#000"/><path d="m432.87 247.11.191-1.886.188-.538.296-.674.317-.667.21-.373.25-.304.295-.271.292-.265.37-.325.978-.895.764-.789.848-.811.436-.572.206-.569-.09-.919.039-.822.124-.595.395-.566.75-.68.907-1.212.576-.9.77-1.467.439-.85.349-.778.424-.948.515-.92.44-.82.774-1.215M472.087 249.21l-.28.164-.675.512-.455.64-.363.441-.187.443-.041.42.063.525.119.874.095.585.12.833-.042.439-.104.292-.317.232-.56.278-.537.489-.517.5-.718.412-1.768 1.232-1.597.939-.846.476-1.113.497-1.048.29-.846.045-.991-.023-1.007-.062-.821-.156-.797-.246-.904-.266-.712-.108-.58.006-.525.11-.769.247-1.464.379-1.94.311-1.395.482-1 .084-1.94-.367-2.85-.906-.697.084-1.243.425-.758-.17-1.667-1.16-2.122-1.982-2.157-1.404M432.87 247.11l-.131 1.301.997 4 .318 1.7.121 1.16-.044.775M425.586 262.195l.784-.739.575-.948.546-.779.652-.693.576-.453.485-.27.424-.042.515.1.541.213.52.112.652-.113.682-.326.728-.538.41-.424.317-.58.138-.669" clip-path="url(#p5eeb66382c)" style="fill:none;stroke:#000"/><path d="m425.811 242.192.668.555.74.53.584.554.537.63.234.467.108.555.078.814.114.355.282.261.156.326.135.8-.016 1.114.165.91.16.682.075.534-.047.363-.144.408-.07.567-.09.886-.06.843-.192.599-.264.518-.472.784-.522.863-.71 1.291-.71 1.201-.65 1.415-.198.595-.116.583M422.404 267.376l.6-.173.637-.44.667-.678.424-.467.388-.597.219-.635-.042-.981.087-.731.202-.479" clip-path="url(#p5eeb66382c)" style="fill:none;stroke:#000"/><path d="m439.124 274.825-.41.148-.317.114-.318.056-.342.021-.257-.063-.182-.12-.22-.305-.144-.354-.28-.41-.304-.297-.424-.298-.447-.226-.28-.22-.213-.247-.197-.311-.242-.404-.311-.425-.31-.254-.35-.184-.37-.12-.35-.071-.477-.036-.576-.05-.644-.105-.614-.057-.508.063-.545.078-.6.12-.598.156-.431.206-.493.268-.387.227-.379.12-.273.014-.288-.05-.28-.12-.319-.247-.507-.439-.402-.325-.318-.234-.28-.22-.167-.211-.243-.49-.258-.53-.287-.538-.243-.537-.335-.542M405.635 275.7l.666-1.25.651-1.217.531-.78.605-.66.653-.655.5-.312.683-.297.742-.198 1.046-.297.732-.34.617-.439.607-.481.83-.58.67-.453.758-.24.651-.086.88-.198 1.212-.325.954-.232.699.005.606.141.864.397.612.173M306.906 282.9l1.91-1.444.575-1.473-.18-1.556-.213-.368-.152-.086-.485-.028-.606.17h-.606l-.182-.085-.152-.254.091-1.586.121-.538.273-.311.546-.17 2.091.028 1.183.255.788.311.818.199 1.637-.17 2.244.255.849-.199h1.03l5.214-1.641 1-.538.789-.736.515-.963.394-1.189.94-1.274.788-.68.88-.367 1.666-.227h1.88l.849-.368 3.122-1.641 1.728-1.558.424-.084 2.365-1.982 2.243-1.443.97-.765 3.396-2.123.758-.368 1.818-.623.88-.198 2.06-.198.516-.17.88-.424 1.454-.963.577-.283.424-.114.94.029 1.03.34.88.566 2.152 1.783.788.198 2.88 2.265 2.402 2.144.524.284.575.176.568.078.713-.113.812-.297.658-.156.85-.042.75.056.561.107.583.184.606.261.94.49.568.274.546.143.622.063.515-.007.478-.064.644.043.583.077.47.178.311.205.257.339.35.425.56.39.576.332.772.325 1.282.383 1.236.326 1.499.508.638.213.432.12.536.057.585.036.69.063.902.106.711.127.737.17.68.227.555.262.735.439.991.586.934.503 1.083.764.6.567.506.587.494.822.523.644.49.43.495.326.56.298.577.269.666.389.379.396.41.616.31.6.236.582-.04.665-.127.92-.03.764.045.708.182.864.303.721.318.538.425.538.212.396.136.44.198.693.262.352" clip-path="url(#p5eeb66382c)" style="fill:none;stroke:#000"/><path d="m405.635 275.7-.409.558-.217.32-.18.4-.15.444-.12.75-.062 1.175.015 1.033.209 1.115.367.824.425.637.272.609.091.708-.04.748M166.608 475.173l-4.614-3.115-.998-1.632-.278-.453-1.15-1.878-.808-3.725" clip-path="url(#p5eeb66382c)" style="fill:none;stroke:#000"/><path d="m127.126 451.74 4.178 1.399 4.33 1.1 2.26.624 1.87.107.83.047 11.554.662 2.737.354 2.107 1.176 1.565 1.892.621 1.615.114 1.561-.532 2.093M366.772 182.464l.15.677.32 2.017-.32 2.39-.08 1.794.76 1.755 1.08 2.167.56 2.391.44 1.345.88.298 2.44.45 1.921.26 1.84 1.159 2.32 1.158 2.36.261 1.8-.075.76.523 1.2.636 1.32-.15 1.32-.934 2.56-2.279 1.12-.15 1.6.263.76.037.934-1.066.533-.558.424-.488.566-.603.442-.41.486-.331.386-.235.37-.163.542-.14.702-.008.653.05.764.077.97.17.94.114 1.106.17.82.082.87.13.743.084.887.064.937-.016.677-.054.742-.085.637-.106.644-.156.653-.128.712-.077.449.017M432.359 195.125l-.23-.175-.38-.162-.47-.163-.582-.113-.652-.064-.754-.053-1.603-.117-1.122-.099-.613-.055-.607-.001-.493.014-.543.02-.57-.056-.705-.127-.766-.114-.758-.056-1.66-.127-1.022-.029-1.03-.047-.691-.016-.553.05-.432.14-.6.311-.461.242-.485.193-.546.21-.424.078-.554.021-.581-.039" clip-path="url(#p5eeb66382c)" style="fill:none;stroke:#000"/><path d="m394.464 170.649.415-.045.44.008.328.052.289.15.456.328.312.165.4.142.48.112.615.134.416.172.304.097.312.053.393.037.352-.023.848-.089.376-.023h.367l.449.098.727.186.489.097.92.157.216.098.167.149.16.359.44 1.18.457.874.448.688.552.747.848.911.727.673.32.283.184.24.08.216.024.329-.135 1.001-.12.508-.216.56-.272.673-.104.388-.112.785-.08.851-.089 1.278-.063 1.39-.048 1.203.08.65.104 1.076.135 1.158.08.978.113.643.152.456.152.26.28.203.256.134.432.135.616.097.44.127.512.202.528.253 1.056.578M357.687 173.415l.636.685 1.68.785 1.56.485 1.48.075.56.299 1.24 1.644.96 1.12.48 1.27.49 2.686M253.143 229.29l.866-.494.752-1.54 1.095-1.01 1.254-1.196.633-.32.819.209 1.544.271 1.702.123 1.12-.456 1.716-.332.924.05 1.003-.198h1.214l1.306.345 1.478.604 1.887.48 1.24.148 1.201-.135.845.184.923.37 1.056.197.884.469.383 1.257.224 1.146.382.616.872 1.182.369 1.208.712.592.832.172 1.398-.259 1.346-.382.832.074 1.768.271 1.808.272 1.306.123 1.412-.456 1.544-.863 1.24-.616 1.69-.332 2.295-.333.37-.16.54-1.32.251-1.317-.04-.69-.263-.814-.805-2.403-.422-1.528.04-.862v-.789l-.278-.308-.884-.48-.673-.345-.277-.37.027-.653.29-1.454.158-2.083 1.346-2.058 1.227-1.91.41-1.318.474-.715.91-.912.885-.308.738.259.951.222.977-.124 2.704-.764 1.28-.665.422-.53 3.405-2.07.752-1.257.977-1.565.66-1.343.527-2.267-.198-.95-.343-1.047-.594-1.06.066-.37 1.557-2.119 1.24-.764 2.059-.751 1.821-.913 2.006-.456 3.074-.714 3.035-.666 2.27-.456.805.21 1.055.197 2.085.542 1.438.358 1.36.505.818-.099.409-.135 1.029-.086 1.386-.42 1.12-.776 1.743-.591 2.6-.013h1.741l1.755-.308 1.768-.394 2.15-.554 2.218-.37 2.771-.21 1.781.037 1.082-.48.897-.764.528-.715.87-.53 1.176-.283.497-.221" clip-path="url(#p5eeb66382c)" style="fill:none;stroke:#000"/><path d="m378.691 184.755-1.676-.937-1.438-.48-1.451-.703-1.201-.444-2.098-.443-1.214-.173-1.702.432-1.139.457M267.193 143.034l-1.272.599M265.815 141.958l.545.567.349.276.484.233M265.815 141.958l.06.758.046.917" clip-path="url(#p5eeb66382c)" style="fill:none;stroke:#000"/><path d="m233.097 209.495 1.334-.878 2.577-1.826.424-.17.576-.07 1.03-.184.804-.34 1.076-.72.409-.275.122-.08 2.031-1.232.804-.283.727-.043 1.243.269 1.485.552.47.1.334-.043.34-.22.251-.354 1.076-1.705.864-1.161.273-.51.24-.855.411-1.056.364-.81.455-.265.697-.014 1.1.113.674-.029.416-.042.645-.128 1.69-.594.303-.198.106-.297.03-1.798.144-1.175.364-1.784-.06-.736-.38-.694-.682-.693-.757-.722-.167-.439-.015-.566.272-1.005.637-1.288.712-1.246.864-.934 1.622-1.104 1.38-1.303.56-.396.38-.24 3.364-2.152 1.32-1.033.53-.58.363-.68 1.061-2.817.182-.652.091-1.67.091-.445.288-.39.546-.56.53-.664.569-1.04.348-.354.569-.192.568-.05 1.13.128.727.283.993.58.363.12.235-.063.076-.22-.045-.254-.576-.984-.394-.573-.288-.34-.432-.375-.985-.425-.963-.198-.78-.043-.91-.148-.364-.276-.182-.333-.007-.332.106-.361.41-1.026.09-.532-.046-.849-.174-.424-.295-.425-.607-.686-.272-.546-.091-.587-.114-.496-.167-.517-.19-.318-1.143-2.435-.19-.729-.06-.601-.046-1.104-.099-.475-.25-.99-.063-.233-.513-2.11-.318-1.459-.227-.665-.19-.347-.243-.318-.416-.39-.235-.311-.122-.326.016-.4M358.186 139.982l.263-.557.091-.29.176-.397M356.903 137.967l.455.035.159.057.303.17.235.205.28.17.38.134M356.903 137.967l.447.31.285.346.193.27.168.428.19.66M357.687 173.415l-.404-.435-.88-2.765-1.8-3.213-1.12-2.24-.84-1.831-.16-1.906.68-2.13.2-1.941.56-1.98.92-.897 1.12-.635.68-1.121.56-1.345.36-1.42-.2-1.344.36-1.607-.04-1.755.56-2.092.44-.748-.497-2.028M349.678 170.913l-.328.004-.72-.056-1.22-.13-1.5.186-1.4.692-1.02.579-1.92.635-1.96-.15-1.42-.56-3.24-.411-1.4.206-1.44.672-.62-.318-.3-.542-.54-1.046-.44-.242-.5-.467-1.02-1.12-.72-1.066-.42-.765-.64-.617-1.38-.485-1.74-.262-1.18-.579-1.34-.43-.96-.392-1.38-.037-1.1-.43-.62-1.12-1.1-1.625-1.6-1.214-1.84-1.345-1.92-1.42-.62-1.158-.9-.915-1.12-.99M349.678 170.913l1.272-.014.9.43.78.298 1.42.075 1.04.504 1.56.785 1.037.424" clip-path="url(#p5eeb66382c)" style="fill:none;stroke:#000"/><path d="m351.261 168.12.139.765-1.647 1.502-.075.526M232.749 222.787l.106 1.117.485 1.402.515.736.652.552 1.076.637 1.892.9 1.534.543 1.652.468 1.197.142 1.516-.156 2.956-.397 2.728-.156.788.029.326.05.31.162.425.34.288.12.455.057.652-.014.84-.029M254.083 254.843l.083-.131-.06-.163-.395-.68-1.288-2.42-.682-1.585-.516-1.67-.227-1.288-.455-3.044-.045-.382.045-.467.122-.538.924-1.981.364-.991.06-.722-.166-.722-.394-.566-1.03-1.246-.076-.198.06-.22.167-.091.28-.043.318.085.72.206.44.049.462-.021.462-.1 1.895-.516.304-.212.09-.41-.09-.397-.304-.354-.697-.637-.152-.276-.075-.276-.076-1.238-.06-.432-.137-.333-.811-1.543M229.614 215.625l1.198.898 1.03.702.87.715.461.727.197.764.016.892-.32 1.232-.317 1.232M229.884 226.551l1.107-.976.712-.694.44-.594.606-1.5M208.512 200.322l-.015.836.045.721.243 1.062.606 1.798.864 2.477.41 1.19.181.877.015.849-.045.99.288.708.546.609 1 .694 1.455.778 1.349.368 1.455.113 2.622.382.94.043 3.76-.439h.681l.895.156 1.03.184.986.142.742.17.653.321.396.274M233.097 209.495l-.833.481-.516.368-.424.453-.895 1.302-.742 1.217-.258.638-.045.623.045.538.185.51M195.007 162.938l-.66.46-.515.389-.318.432-.121.368.022.474.13.432.424.545.59.488.781.319.834.184.705.155.614.411.455.595.424.948.015.934-.273.864-.56.92-.289.595-.212.948-.121 2.151.181 2.11v.693l-.181.765-.364.608-.53.793-.273.623-.485 1.627-.273 1.204.015 1.061.394 1.19.682 1.543.622.891.621.68 1.016.722.788.778.803 1.204.804.92.727.34 1.046.226.669.223.977.394.54.419.77.776.879 1.16.56.722.789.638.576.523.272.538.046.623-.09.778M185.79 199.055l.085.68.128.17.311.113.743.156 1.068-.014 2.342-.362.637-.12.41-.02.446.12 1.167.382 1.046.269.425.084.575.086.569.155.88.347.833.39.326.098.356.021.349-.099.333-.205 1.258-1.33.826-1.225.197-.51.258-.877.363-.623.713-.637.318-.1.349.015.379.1.41.24.514.368 2.107 2.067 2.001 1.528M186.443 151.74l.636.906.478.489.462.311.523.17.78.057 2.092-.064h2.501l.561.043.561.155 1.06.524.744.439.258.297.105.453-.12.439-.607 1.543-.637 2.01-.272 1.146-.091 1.522-.03.283-.145.249-.295.226" clip-path="url(#p5eeb66382c)" style="fill:none;stroke:#000"/><path d="m178.516 156.843.742.532.432.183h.5l.697-.177 1.69-.573.607-.12.53-.021.546.021 3.41.418 3.502.594.833.213.773.353.895.68.652 1.076.538 1.196.144.68.03.509-.03.53M234.425 123.607l-2.358-1.248-.607-.353-.402-.107-.378.007-.38.198-.355.383-.493.913-.205.269-.265.247-.902.644-.212.22-.144.283-.379.97-.212.417-.243.27-.325.205-1.903.892-.272.155-.236.22-.242.36-.5.992-.5.65-1.304 1.502-.742 1.033-1.122 1.953-.789 1.26-.682.765-1.046.99-1.258.963-.833.694M186.443 151.74l1.394.199 1.463.014 1.19-.128.932-.24 2.395-.941 1.993-.914.546-.212.599-.135.993-.098.651-.107.713-.24.416-.1.425.007.553.142 1.068.63.334.106.424-.028.44-.156.553-.396.485-.41.334-.206.352-.081.321-.012.35-.013.485.106.485.34.66.665.242.142.394.007.47-.092.59-.27.804-.58.698-.686.447-.595.242-.36.357-.383.757-.835.561-.793.47-.892.545-1.203.895-1.968.667-1.67M205.57 109.478l-1.461.968-.364.227-.205.177-.007.403.159.446.265.375.152.567.068 1.727.106.743.144.56.053.473-.046.44-.128.51-.076.43.106.32.205.233.894.566.758.297.44.298.44.425.59.82.334.298.91.326 1.12.198 2.305.17 1.227-.071 1.289-.326 1.061-.34.606-.056.591.113.561.481.38.58.075 1.374-.182.665-.258.41-.94.964-.379.41-.196.382-.304 1.458.015.446.084.319.205.283.492.297.508.212.326.319.234.481.077.553-.053.41-.607.977-.174.615-.03.638.166 1.004-.03.737-.227.721-.561 1.204-1.152 2.619M265.815 141.958l-.084-.58.015-.432.084-.36.303-.638.78-1.642.046-.58-.076-.538-.303-.481-.622-.666-.878-.707-.94-.623-.266-.135-.325-.063-1.008-.085-.508-.092-2.312-.708-.447-.234-.728-.453-2.137-1.713-.28-.148-.296-.107-.364-.035-1.962-.05-.341.007-.296.086-.28.212-.387.439-.167.092-.273.07-.393-.014-2.32-.502-.576-.255-.333-.255-.902-.948-.16-.163-.218-.135-.304-.085-.41-.07-.4-.156-.418-.276-.75-.574-1.455-.941-.568-.27-.538-.176-1.887-.325-.296-.029-.266-.084-.22-.177-.78-.772-.341-.205-.47-.22-.947-.311-.644-.262-1.742-.982" clip-path="url(#p5eeb66382c)" style="fill:none;stroke:#000"/><path d="m229.369 117.652 2.486-.708.985-.212.575.014.713.114.41.283.257.523.819 3.13.045.424-.122.353-1.112 2.034M126.821 158.118l-.477.042-.53-.106-.44-.213-.047-.028-.417-.248-1.416-.841-3-1.544M127.466 131.579l-.569.824-.303.474-.273.566-.432 1.388-.576 1.047-.538.616-.394.312-.356.156-.47.007-.925-.326-.606-.085-.53.156-.394.333-.273.495-.266.864-.576 2.427-.053.552.046.368.174.312.288.276 1.273 1.033.288.368.273.623.038.58-.697 4.644-1.122 5.591M113.96 160.73l.849-.743 1.91-1.508 2.122-1.869 1.652-1.43M221.489 109.857l-1.964 1.772-3.455-.823-3.387-.76-2.778-1.075-2.912-.19-1.423.697M159.15 503.545l.176 2.02.364 4.359-.247.662-.166.443-2.683 7.173M171.337 534.143l-7.149-8.809-1.023-1.185-2.554-2.837-2.554-2.1-1.463-1.01M147.353 515.976l2.551.584 4.97 1.132 1.72.51M447.094 223.623l.312-.389.532-.844.546-1.047.591-1.246.5-1.02.349-.778.292-.55.314-.398.44-.425.62-.495.744-.552.621-.538.652-.439.366-.163.452-.134.562-.114.878-.042.893-.026.775-.13.849-.226.91-.24.727-.142.924-.114 1.23-.056.908-.043.97.071 2.016.12 3.007-1.887 2.42-1.491.728-1.602-.493-2.808 1.08-3.4 4.44-1.866 2.797-2.48 1.88-1.535.28-2.106-.187-3.313 1.55-2.48.59-2.732" clip-path="url(#p5eeb66382c)" style="fill:none;stroke:#000"/><path d="m555.785 236.659-2.274-1.232-1.015-1.076-.728-1.26-1.364-2.42-.455-2.52-.424-1.57-1.5-3.143-1.26-1.09-2.227-1.316-3.714-.75-2.395-.835-3.607-1.854-1.531-.34-2.485.594-.486-.07-.879-.652-.848-2.137-.728-1.628-3.714-2.095-3.031-2.774-1.576-2.364-3.835-2.76-4.85-.666-1.593-1.047-1.727-1.996-3.638-3.128-1.97-.283-2.228.255-2.986.084-3.153-.934-1.698-2.038-4.168-1.5-1.395-.327-1.5-2.321-.645-3.503M548.418 237.912l2.016-1.72 1.812.304 3.539.163M569.795 242.37l-3.203-2.116-4.145-2.236-1.706-.446-2.653.198-.598.042-1.705-1.153M579.047 243.06l-2.11-2.548-2.302-1.815-.6-.448M575.507 248.72l-1.255-1.484-1.02-.98-.413-.472-.242-.516-.27-.689-.434-.534-2.078-1.675M578.346 247.804l-.832-.987-.783-.834-1.343-1.204-1.237-.838-.924-.445-1.225-.41-1.109-.316-1.098-.4M579.047 243.06l.448 2.312M579.047 243.06l1.186.663M580.233 243.723l-.738 1.65M579.495 245.372l.183 2.265M579.678 247.637l.122.9M581.73 251.146l.601-2.405.116-.727.016-.839-2.785.462M578.346 247.804l-2.84.915M578.346 247.804l1.454.733M579.8 248.537l.341 1.35M576.397 253.136l-.335-2.124-.555-2.293M580.141 249.887l1.589 1.26M545.48 283.72l.648-.806.53-.58.47-.256 4.325-1.104.212-.056 2.698-.397.606.057 1.061.48 2.183 2.01.485.34 2.092.737.424-.028.424-.227 1.365-1.36.182-.395.424-2.095.606-1.529.606-.65.425-.2 1.06-.14.698-.283.727-.822.364-.566 2.274-2.463.576-.707.485-.821.758-1.812 2.576-4.557.243-.567.788-2.802.485-.962.697-.822.546-.452.403-.216.962-.301.995-.289.72-.476.425-.566.223-.84.021-1.321-.235-1.836-.896-4.153M596.44 264.612l-4.53-2.66-2.625-1.175-1.29-.49-.82-.344-.708-.485-.975-1.073-.765-1.034-.91-1.624-1.567-3.745-.52-.836M116.613 179.217l-.197-1.175-.03-.694.106-.708v-.82l-.213-.708-.44-.602-.211-.474-.023-.53.205-.914.727-1.45.675-.66.583-.396 1.303-.608.736-.51.629-.658.257-.41.091-.383.069-.588.12-.523.289-.453.584-.821.772-1.062 1.41-1.472.56-.651.35-.637.454-1.005.44-.793.962-1.394M178.516 156.843l-.773-.82-.387-.447-.485-.402-.69-.503-1.955-1.402-2.153-1.918-.62-.637-.357-.198-.401-.141-1.092-.163-.69-.128-.848-.261-.677-.312-2.65-1.742-.281-.127-.364-.042-1.364.085-.773.056-.606-.077-.424-.184-3.585-2.138-.63-.27-.598-.063-.652.163-.834.41-1.682 1.289-2.743 1.968-2.971 2.35-2.729 1.627-.742.354-.986.24-.864.213-3.433 1.19-1.19.275-1.152.128-1.113.184-1.236.389-1.13.517-1.12.53-1.047.397-2.766.68-.902.205M178.516 156.843l1.743-.403 2.016-.722.91-.467.544-.637.213-.729.432-1.245.295-.496.357-.29.424-.184.447-.036.546.106M175.794 450.066l5.915-2.557 1.486-.672 1.192-1.003 1.061-1.314.515-1.508.325-2.771.084-1.8.319-2.65.323-.97 1.042-1.117 1.422-.756 1.714-.586 1.456-.75 1.145-.708.84-1.183.418-1.277.767-4.588.759-4.843.675-3.747.741-1.65" clip-path="url(#p5eeb66382c)" style="fill:none;stroke:#000"/><path d="M184.366 397.523v.53l-.045 1.373.023.439.166.708.114.686.015.609.114 1.465.25.94.167.368.197.333.848.842.97.927.516.545.773 1.004.606.673 1.205 1.182.372.269 1.796 1.16 2.509 1.592.409.226.507.142.72.035.622-.056.773.102M241.585 190.102l-.454.149-.266.141-.234.22-.773.948-.804.75-1.197.843-1.016.53-1.523.546-.72.155-.63.05-.5-.057-.87-.205-.213.05-.106.184.076.283.273.155 2.789 1.246 1.833.778.577.383.333.36.205.404.098.651-.038 1.954-.113.63-.198.53-1.19 2.06-.59.92-.47.495-.493.467-.41.538-.272.496-.455 1.21-.216.47-.22.284-.7.775M227.05 261.088l2.076 2.046M227.05 261.088l-1.167.39M229.884 226.551l-.819.737-.439.58-.455.75-.364 1.231-.075.807.151.595.242.396.486.41 1.425.68.757.425.804.609.41.707.09.85-.546 4.628-.212 1.443-.44 1.571-.12.737.09.736.213 1.174.09.737-.136.778-.288.694-.97 1.373-.56.58-.94.524-1.395.467-1.273.269-.85.34-.697.438-.393.439-.213.665v1.19l.334 1.018.424.764 1.091 1.062.47.524.38.708.894 2.901M229.126 263.134l1.334.438.56.078.66-.028.523-.043 3.047-.807 3.63-.835.856-.29.675-.34.576-.431 1.538-1.104.91-.595 1.455-.764.712-.524.561-.707 1.47-1.77.895-.82.955-.581.803-.311 1.212-.071.819.24.848.482.721.453.197.039M295.993 281.597l-.546-.113-.97-1.048-.364-.962-.424-2.01-.303-.538-.486-.481-.606-.368-.849-.34-1.03-.142h-1.577l-.515-.113-.727-.283-.91-.707-.606-.397-3.032-2.491-1.09-1.132-1.153-1.189-1.06-1.727-1.183-1.189-.788-1.076-.91-.707-.666-.057-1.244.34-.97-.199-.697-.509-1.121-1.528-1.183-.765-1.333-1.019-.728-.311-1.334-.283-3.79-.312-1.364-.226-2.243-.623-4.092-1.387-.818-.538-1.198-2.324" clip-path="url(#p5eeb66382c)" style="fill:none;stroke:#000"/><path d="m225.883 261.477.708.531.788.485.75.368.997.273M204.829 260.862l2.395 2.109.545.354.577.198.818.042 1.046-.142.651-.17.516-.268 2.94-2.35.493-.261.447-.128.455-.078.326-.106.371-.212 2.22-1.472 1.122-.552 1.053-.347.91-.17h.645l.515.12.621.382.515.411.296.354.333.495.387.821.447.956.41.63" clip-path="url(#p5eeb66382c)" style="fill:none;stroke:#000"/><path d="m204.829 260.862 1.243-.014.659-.043.523-.162.546-.397.386-.467.091-.453-.083-.347-.19-.36-.644-.822-.356-.318-.424-.305-1.19-.573-1.137-.693-.955-.765-.38-.254-1.12-.538-.41-.298-.288-.353-1.364-2.407-.137-.452-.09-.623.007-.467.099-.453.379-1.303.045-.466-.045-.78-.273-1.655.03-.623.182-.538.97-1.797.333-.474.327-.333 1.485-1.182.795-.75.395-.347.454-.27.773-.24.455-.155.356-.234.273-.269 1.66-2.045.19-.333.06-.417v-.758l.083-.304.205-.36.629-.886.69-.65.864-.673 1.06-.63 1.426-.913.629-.354.454-.212.697-.205 1.213-.319.538-.216.728-.35.723-.24.785-.128.652-.028.568.035.546.127.803.277 1.356.396.538.07.562-.028.386-.106.455-.233.674-.354 1.046-.46 1.06-.425 1.07-.375.985-.234" clip-path="url(#p5eeb66382c)" style="fill:none;stroke:#000"/><path d="m191.309 265.066 2.91-.538 1.637-.468.636-.099 1.061-.127 1.743-.41 1.274-.44.833-.395.546-.383.864-.707.379-.227.379-.184.515-.127.743-.1" clip-path="url(#p5eeb66382c)" style="fill:none;stroke:#000"/><path d="m183.389 310.563-.432-.093-2.38-.31-.425-.128-.318-.213-.288-.233-2-1.776-.743-.595-.743-.722-.637-.75-.31-.318-.258-.184-1.136-.545-.509-.262-.765-.488-2.584-1.996-2.365-2.08-.534-.627-.557-.838-.19-.255-.208-.145-.242-.103-.217-.063-.371-.163-.334-.22-.242-.297-.106-.424.023-.482.174-.594.273-.48.523-.46 1.432-.836.591-.468.379-.466 1.728-2.322 2.228-3.708 1.486-3.015 1.197-2.052 2.334-3.864.213-.354.303-.34 3.804-3.014.622-.566.621-.779.546-1.02.348-.41.38-.381.818-.44 1.197-.509.743-.297.652-.368.545-.481 1.97-1.897.865-1.033.819-1.033" clip-path="url(#p5eeb66382c)" style="fill:none;stroke:#000"/><path d="m146.033 260.21 1.47.468.69.141.485-.014.364-.106.955-.693.758-.864.97-1.31.636-.643.75-.644.508-.297.69-.27.765-.204 1.736-.376.773-.269 1.425-.721 1.06-.44 1.145-.438 1.273-.375 1.092-.149 1.963-.028.651-.057.72-.148.531-.177 2.645-1.132 3.94-1.94 1.016-.566.592-.24.924-.128 1.289.07 2.349.383.91.382 1.076.637 1.56 1.019.744.566.62.694 1.016 1.43 1.85 2.986.227.552.076.44.151 2.66.152 2.01.136.424.35.552.53.482 1.713 1.189M183.389 310.563l.31.19 1.759 1.274.575.255.592.028.5-.056 2.41-.595.728-.098.575-.029 2.047-.283 2.106-.071 2.35.085.856.1.637.12.356.028.258-.028.28-.142 1.501-1.253.265-.156.28-.042.243.014.303.142.387.382 1.03 1.147.395.255.409.155 1.182.34.44.141.454.298.789.608.606.325.53.184.561.085.728.028.621.114.364.255.318.325 1.274 1.812.879 1.005 1.53 1.585.842.714.47.263.636.19.53.142.266.148.182.234.235.403.273.34 1.242 1.097 1.07.991.439.332.242.17.796.326 1.053.41 1.448.382.553.205.478.312.72.552.34.184.433.106.59.113.463.17.72.361 2.364 1.252 1.092.524.834.27.788.162.538.042.901.149.433.113.394.262.235.36.182.539.136.877.068.623.144.453.28.46.72.722.387.368 1.1 1.28.62.545.281.383.13.388.09 1.84M260.456 341.182l-.121-.325-.227-.17-.258-.127-2.03-.538-2.441-.566-.606-.269-.698-.651-.515-.594-.288-.128h-.334l-.485.17-.545.41-.288.425-.243.75-.31 1.408-.266.73-.349.48-.394.298-.393.141-.395.014-.432-.113-.538-.176-.265-.078-.349-.05-1.144-.014-.917-.029-.568-.092-.584-.24-.546-.403-.803-.878-.993-.878-.394-.219-.379-.134-.25-.12-.553-.369M239.38 341.523l.038-.185.235-.538.174-.842.076-.516.099-.29.234-.206.319-.099M127.466 131.579l.393-1.313.061-.468-.06-.453-.213-.863-.879-2.506-.045-.467.167-.34.394-.184.97-.212 1.212-.467.53-.368.289-.496M239.38 341.523l.076.247.16.227 1.606 1.606.265.261.273.347.19.39.295.983.477 1.239.993 1.84.265.374.213.284 1.06 1.131.902.914.334.438.235.488.22.977.007.863-.114.63-.212.354-.363.368-1.023.814-.675.736-.364.552-.136.509v.573l.098.58.122.454.12.304.19.205.228.106.757.22.406.042.314.081.285.177.235.202 3.027 2.561.94.779.652.41.849.382 1.17.518M184.366 397.523l-.227-.693-.5-1.005-.713-1.033-1.167-1.231-1.182-1.105-1-.764-1.122-.452-1.41-.41-1.046-.072-1.045-.113-.955-.382-.773-.566-.698-.708-.455-.693-.606-1.6-.242-.381-.318-.283-.88-.552-.712-.467-.561-.609-1.258-1.344-1.122-.99-2.516-1.897" clip-path="url(#p5eeb66382c)" style="fill:none;stroke:#000"/><path d="m184.366 397.523 2.38-.488.81-.262.274-.304.09-.347-.037-.283-.19-.467-.515-1.005-.243-.551-.166-.715-.569-2.243-.363-1.175-.137-.474-.045-.333-.213-1.762-.083-.347-.151-.304-.5-.658-.668-.814-.28-.48-.212-.588-.182-.481-.175-.58-.484-1.954-.804-2.412-.56-2.003-.167-.502-.342-.644-.33-.534-.366-.443-.592-.304-1.258-.587-1.03-.41-1.986-.694-1.607-.503-1.546-.353-.917-.128-.833-.19-.584-.192-.425-.184-1.25-.58-.273-.113-.318-.078-.637-.014-.182.042-.182.092-.235.234-.31.205-.326.085-1.584.254-.69.22-.325.191-.266.276-.19.325-.522 2.088-.015.382.045.333.152.332.659.864.19.297.113.332.076 1.373.038.439.106.432.424 1.337" clip-path="url(#p5eeb66382c)" style="fill:none;stroke:#000"/><path d="m125.646 366.898 1.304.212 1.455.17.72.021.53-.064.615-.17 1.144-.487.493-.128.651-.057.682.092.44.163.765.468.584.261.978.227 1.106.134.94.064.424-.015.516-.063.47-.134.598-.036.72.135.508.212 1.88.92 1.91 1.004 1.257.651 1.683 1.161 2.448 1.783 1.667 1.012.56.22.66.099.698.113 1.599.092.56.085.652.176.667.34 1.478 1.118 1.91 1.245 1.06.708.501.368 1.38 1.175M117.431 357.713l-.629.707-1.463 1.699-.568.573-.432.354-.508.24-1.083.375M117.431 357.713l-.538-.198-.296-.128-.25-.205-.22-.304-.59-1.238-.311-.39-.326-.233-.44-.227-1.758-.756-.727-.418-.644-.46-.516-.53-.5-.567-.493-.906-.212-.615-.174-.673-.069-.997.1-.545.173-.481.796-2.045.09-.482-.044-.354-.122-.29-.84-1.11M125.646 366.898l-.916-.708-.584-.523-.447-.524-.341-.311-.516-.312-.462-.183-.349-.213-.424-.424-.318-.355-.197-.275-.107-.396-.022-.276.144-.956.06-.48.038-1.12-.12-.494-.167-.29-.319-.27-1.167-.452-2-.623" clip-path="url(#p5eeb66382c)" style="fill:none;stroke:#000"/><path d="m109.807 395.846.455-.276.349-.311.211-.396.327-.68.302-.425.417-.382.804-.523 1.728-1.104.424-.424.31-.404.251-.446 1.599-2.568.477-.552.758-.524.102-.056.456-.252.48-.265.743-.488.432-.545.167-.552.076-.721-.129-.828-.674-1.7-.06-.41v-.424l.408-4.239-.015-.466-.03-.475-.622-2.83.023-.326.167-.268.235-.255 4.084-3.934.41-.326.523-.297.651-.276" clip-path="url(#p5eeb66382c)" style="fill:none;stroke:#000"/><path d="m121.736 394.141-.485.283-.515.354-1.167.856-.281.17-.349.07-.325-.02-.296-.15-1.175-.94-.409-.27-.44-.155-1.47-.283-.44-.057-.447.014-.416.17-1.88 1.444-.424.212-.41.127-.485.029-.515-.15M239.38 341.523l-.75-.305-.917-.396-2.35-1.04-1.22-.744-.932-.686-2.145-1.698-1.417-.863-1.349-.652-1.38-.587-1.417-.474-1.394-.623-1.038-.814-.41-.417-.273-.425-.568-1.21-.371-.46-.326-.205-.546-.191-.644-.092-2.046.021-.379-.014-.44-.07-1.872-.595-1.25-.418-1.508-.389-.523-.184-.455-.205-.303-.22-.22-.268-.204-.368-.334-.68-1.553-2.866-.25-.304-.365-.212-1.235-.432M146.033 260.21l.88-2.208.318-1.075.06-.382v-.51l-.212-.524-.955-1.514-1.515-1.84-.425-.609-.621-.679-.561-.354-.53-.198-1.562-.326-1.152-.283-.546-.34-.174-.282-.053-.382.121-1.062.235-.489.318-.552.955-1.195.614-.574.47-.262.834-.233 1.462-.178.395-.14.348-.178.44-.488.144-.566-.03-.482-.198-.424-.53-.637-1.182-1.104-.546-.623-.47-.722-.955-2.052-.947-1.869-.235-.403-.25-.298-.25-.197-.356-.205-.44-.135-.515-.1-.368-.088-.273-.148-.163-.181-.401-.729-.22-.248-.326-.212-1-.637-.342-.304-.25-.305-.197-.438-.197-.708M116.052 285.433l-.356.021-.288.064-.22.12-.743.56-.113.204-.03.333.128.34.622.835.56.503.364.197.432.05.402-.036 1.266-.48.5-.135.462-.007.871.127.425.015.364-.078.295-.149.591-.333.319-.099.394-.064.371.008 1.084-.057.379-.05.348-.134.394-.212.289-.29.242-.347 1.038-1.196.372-.326.47-.29.613-.304 1.993-.87 1.259-.468.591-.311.47-.453 1-1.444.28-.474.137-.39.084-.565.242-2.321.394-2.675.096-.993.033-.277.265-3.529.106-.452.242-.383 1.016-1.153.41-.34.431-.191.433-.12 1.258-.368.545-.305.599-.389.462-.503.622-.906 1.053-2.115.447-.68.523-.467.675-.403.962-.354.796-.113h.712M187.974 304.583l-.713.156-.44.211-.53.383-1.667 1.472-.333.41-.198.425-.136.58-.151 1.416-.107.424-.31.503M260.456 341.182l.289 6.015.09.723.273.707M266.761 340.155l-1.606 3.972-3.152 3.311-.895 1.19M266.761 340.155l-2 1.16-2.123.425-2.182-.558M315.447 476.002l.622-.28 1.053-.382 1.046-.374.342-.078.363-.043h.553l.925-.156 1.22-.233 1.485-.304 1.766-.319 1.433-.34.614-.225.53-.255 1.061-.566 1.19-.588 1.789-.884 1.167-.474.704-.18.607-.174 1.644-.424 1.122-.113 1 .155 1.061.311.773.34 1.88 1.203.697.463.466.237.368.103.345.028.73-.081 1.062-.092.69-.007.795.07.826.05 1.062.014 1.144-.141.97-.213.856-.17.743-.19.349-.106.447-.15 1.326-.46 1.462-.678.986-.336 1.038-.315 1.372-.206 1.63-.233 1.66-.12 1.977-.34 1.107-.085 1.167-.056 1.084.028 1.167.113.28.014.417.12.75.291 1.024.431.431.205.576.213.826.134.455.007.607-.049 1.333-.276.925-.128.652.078.538.17.651.361.304.311.182.255.09.234v.268l-.181.482-.341.672-.16.283-.083.212-.03.254-.008.372.091.265.174.185.144.113.35.084h.355l.319-.063.227-.12.227-.234.28-.644.296-.94.212-.779.031-.48v-.46l-.22-.588-.258-.496-.401-.431-.91-.517-.545-.304-.236-.198-.158-.255-.024-.162.062-.227.144-.198.158-.134.562-.177.704-.17.591-.312.766-.608 1.114-.976.727-.673.569-.43.462-.157.682-.205 1.448-.566 1.06-.322.607-.18.511-.117.36-.092.436-.174.402-.279.413-.329.53-.538.539-.643.326-.58.09-.404-.106-.913" clip-path="url(#p5eeb66382c)" style="fill:none;stroke:#000"/><path d="m357.965 442.055-.198 1.015-.038.63.129.551.129.325.12.178.296.389.387.304.924.594 1.35.779.985.672.455.269.31.269.114.24.167.255.424.258.99.453 1.352.577 1.03.565.698.27.485-.029.424-.17.546-.212.44-.184h1.182l1.516.354 1.515.934 1.183.538 1.06.374 1.41.177 1.13.241.644.326.81.474 1.282 1.21 2.167 1.81 1.03.836.561.297.728.127.614.007h.682l.629-.091.55-.058.61-.067.382.008.448.134.42.191.307.16.307.133.193.114.133.02.17-.003.125-.067M398.813 459.364l-1.258-.764-1-.573-1.137-.509-.97-.319-.394-.205-.349-.205h-.136l-.175.042-.34.135-.417.163-.592.353-.364.227-.235.283-.157.217-.017.023" clip-path="url(#p5eeb66382c)" style="fill:none;stroke:#000"/><path d="m408.934 397.172.846 1.094.84 1.387.516.757.288.524.205.835.098.877-.076.948-.12.552-.228.708-.038.495.015.311.227.517.326.538.758.672 1.281.82 1.948 1.281 1.493 1.5.477.453.485.227.85.155.984.07.728.044.75.247.402.212.25.29.098.503v.8l-.136.856-.463.913-.416.8-.387.586-.197.41-.16.878-.242.75-.462 1.019-.386.708-.463.764-.606.651-1.523 1.012-1.266.757-.31.226-.35.248-.333.36-.31.404-.75 1.344-.538.92-.417.686-.463.822-.348.417-.576.446-.698.686-1.31 1.486-1.206 1.358-.212.446-.098.368-.053.318.045.496.265.764.28 1.012.205 1.84-.038 1.386-.098 1.182-.023.842-.068.452-.121.432-.13.255-.303.424-1.113 1.062-1.039.643-.363.397-.091.234-.099.34v.346l.023.233.076.184.235.234 1.136.955.258.29.19.332.022.446-.136.566-.22.467-.228.347-.242.318-.576.319-.66.304-1.409.276-1.137.17-2.008.262-.773.212-.5.254-.311.27-.273.332-.296.439-.12.41-.008.665.348 2.42.455 1.924M416.957 479.267l-1-.955-2.093-1.16-3-2.915-1.456-1.33-2-1.26-3.025-1.627-1.129-.51-.803-.523-.993-.56-.53-.388-.213-.269-.166-.319-.16-.34-.052-.608-.038-1.16.106-1.677-.03-.65-.076-.835-.167-.737-.258-.778-.364-.721-.697-.58M477.912 422.685l.697.856.227.545.046 1.153-.197.898-.542.818-.602.927-.076.477.265 1.416v.367l-.364.935-.644.813-1.19 2.378-1.841 4.252-.599 1.238-2.25 2.2-1.79 1.373-.394.071-.333-.113-.44-.552-.409-1.118-.788-1.054-.607-.354-.583-.05-.704.178-.402.205-1.376.902-1.33.424-.947.205-.668.4-.962.711-2.235 1.196-1.618.934-2.956 1.597-.572.282-1.342 2.13-1.084.926-1.06.913-1.478 1.903-.842 1.09-.098.446.053.6.144 1.02.008 2.01-.28.48-.342.178-.394.077-2.1.078-.81.141-2.1.665-.568.496-.508.891-.356 1.571-.258 2.215-.25.29-1.046.898-.447.489-.204.424-.167 1.14-.114 1.711-.128.404-.675 1.146-.493.7-1.122.942-1.31.785-1.516 1.04-1.531.891-2.486 1.097-1.698.665-2.38.135-2.394.02-.599.404-.667.537-.583.29-1.546.234M436.317 502.778l-.141-.036-.379-.17-.273-.162-.31-.233-.16-.213-.325-.559-.349-.87-.758-1.181-.546-.41-.356-.262-.356-.206-.242-.233-.16-.319-.022-.368.106-.466.181-.573.28-.46.327-.439.113-.233.069-.241.03-.354-.075-.467-.077-.601-.265-1.04-.16-.318-.408-.545-.53-.524-.44-.48-.326-.475-1.1-.962-.681-.814-.401-.389-.562-.333-.75-.325-.992-.205-.797-.085-.765.028h-.584l-.484-.149-.455-.17-.576-.353-.455-.382-.56-.637-.5-.601-.638-.729-.864-.877-.576-.616-.333-.318-.447-.623-.25-.453-.156-.387-.246-.61-.636-1.083M461.339 515.62l1.84 1.187 2.13 1.302.856.764.44.553.227.396.09.34M463.103 525.694l.356-.177.304-.163.378-.304.342-.354.849-1.068.795-.99.44-.723.212-.558.16-.467.068-.389-.084-.34" clip-path="url(#p5eeb66382c)" style="fill:none;stroke:#000"/><path d="m493.312 541.662-.349-.064-.333-.007-.584.07-.568.05-.644.035-.887-.084-1.023-.545-1.152-.7-1.053-.41-.546-.312-.622-.354-.363-.693-.296-.736-.288-.46-.19-.297-.234-.163-.25-.17-.683-.275-.28-.227-.364-.403-.257-.283-.1-.396.024-.623.045-.849.046-.587-.061-.524-.242-.608-.63-.8-.636-1.16-.69-1.295-.546-.728-.659-.587-.56-.39-.47-.197-.546-.249-.735-.417-.811-.445-.56-.227-1.782-.375-.727-.17-.645-.212-.599-.353-.742-.793-1.167-1.302-.819-.976-.917-.729-.894-.48M463.103 525.694l-.69.283-2.175 1.104-.795.6-.561.624-.773 1.082-.546.446M439.29 549.26l.409-.397 4.299-4.188.363-.396.167-.233.068-.262.068-.418.06-.374.1-.772.28-.537.47-.864.303-.34.258-.247.462-.29.492-.205.53-.226 1.623-.85 2.16-1.315 1.053-.736 1.039-1.061.825-1.097.925-1.025.25-.623.144-.623.258-1.033.318-.467.341-.212.516-.29.492-.346M453.584 529.699l.713.056 1.197.028.91-.035.614-.036.545.12M428.68 563.303l.016-.446.114-.368.394-.53.704-.913.902-1.076.713-1.18.371-.942.387-1.004.682-1.005.5-.537 1.41-1.33 1.538-1.748.841-1.104.773-.728 1.266-1.132M423.004 546.996l1.433.12 1.394.255.553.099.539.184.356.24.436.386.181.297.27.322.288.958.143.393.069.41.121.708.06.481.114.22.182.261.318.234.266.155.651.191.728.007.735-.035 1.175-.29.697-.22.576-.275.485-.354.629-.644.379-.353.97-.701.508-.332.629-.34.31-.156.296-.077.205-.022.59.142M423.255 570.392l.117-.142.2-.113.596-.368.924-.425.588-.219 1.166-.269.888-.403.568-.39.5-.417.22-.31.128-.382.091-.503.008-.488-.068-.488-.197-.906-.212-.693-.091-.573" clip-path="url(#p5eeb66382c)" style="fill:none;stroke:#000"/><path d="m406.134 563.084-.584.587-.629.346-.666.382-.91.375-.97.637-.34.417-.183.234-.113.19-.053.234.106.34.371.693.636 1.14.228.282.31.255.35.148.265.064.318-.014.318-.043.523-.085.712.015.94.07.606-.02.455-.22.41-.212 1.038-.976 2.577-2.024 1.59-.877.91-.368.334-.247.432-.418.424-.672.591-.906.902-.799 1.395-.8 1.106-.488.743-.198.826.015.765.134.955.354 1.228.473 1.061.368 1.41.602 1.227.75.933.48M563.807 583.569l.26.154.576.375.636.425.713.486.488.394.28.252.387.353.451.555.478 1.111.197 1.005v1.16l-.06 2.023-.048.659M476.578 541.647l-.674.814-.523.594-.417.538-.493.573-.258.622-.242.34-.265.163-.265.12-.425.177-.992.134M474.373 536.475l-.417.708-.41.382-.4.319-.395.261-.727.191-.615.029-.712-.043-1.076-.106-.478.05-.416.134-.6.382-.802.863-.6.418-.431.226-.773.261-1.296.496M566.954 583.242l.474-.07.61-.015.553-.018.527-.056.39-.113.644-.29.929-.62 1.02-.512.537-.163.811-.1.621-.09.811-.262.372-.29.326-.425.151-.375M557.564 560.377l.735 1.454.75 1.203.75.644.509.283.394.148.333.113.295.128.206.12.181.142.114.219.023.226-.114.453-.06.375M551.57 561.41l.477 1.419.477 1.563.417 1.005.341.587 1 2.101M557.564 560.377l.246-.208.258-.117.2-.07.164-.026.144-.01.178.085.148.127.22.174.223.24.167.124.178.092.17.039.232.007.2-.053.323-.124.405-.188.307-.198.216-.201.276-.29.224-.269.553-.424.607-.432.613-.276.493-.134.34-.057.41-.007.311.106.288.163.63.516.681.65.766.701.667.658.848.552 1.031.665 1.243.806.826.425.728.198.932.424.614.382M551.57 561.41l.51-.145.387-.102.951.039.682.091.615.191.424.17.34.029.471-.014.31-.015.304-.155.227-.227.288-.269.167-.17.318-.456M542.873 566.915l.867-.294.311-.149.205-.247.242-.319.22-.389.258-.36.515-.383.357-.127.424-.106.974-.046.493-.092.325-.035.341-.054.5-.194.285-.152.31-.149.285-.195.216-.183.269-.404.136-.23.394-.668.243-.3.2-.227.326-.202M596.932 584.275l1 .778 1.224.874 1.686.788 2.952 1.409.841.753.455.835.519 1.033.709 1.556.621 1.057.47.881.156.432.356.375.413.134.379-.032.2-.152.194-1.203.205-.537.098-.191.258-.17.273-.113.295-.057.364-.014 1.273-.12 1.394-.27" clip-path="url(#p5eeb66382c)" style="fill:none;stroke:#000"/><path d="m596.932 584.275-.89.138-.743-.028-.66-.078-.833-.156-1.244-.028-.757-.12-.683-.205-.78-.326-.917-.53-.818-.644-.493-.382-.394-.227-.387-.042-.447-.007-1.167.332-1.008.22-1.531.148-.621.035-.637-.063-.356-.064-.606.127-.978.34-.818.233-.864.298-.85.679-.72.707-.598.566-.758.418-.553.19-.591.071-.63.022-.47-.028-.47-.05-.575-.184-.599-.325-.826-.623-.595-.52-.708-.251-.951-.273-.88-.201-.572-.202M563.807 583.569l.487-.189.47-.141.72-.086 1.034.019.436.07" clip-path="url(#p5eeb66382c)" style="fill:none;stroke:#000"/><path d="m553.618 574.212.373.452.19.255.192.357.11.195.284.623.273.456.33.386.52.6.465.552.42.534.448.725.485.595.686.74.691.606.363.32.302.178.633.345.584.238.773.272.996.396.778.357.293.175M553.618 574.212l-.07-.085-.319-.255-.675-.354-.784-.442-.55-.233-.533-.319-.478-.463-.424-.382-.429-.293-.382-.216-.387-.163-.55-.131-.67-.102-.481-.1-.671-.19-.747-.195-.72-.265-.602-.322-.375-.262-.239-.233-.174-.315-.103-.305-.06-.467-.053-.346-.27-.86" clip-path="url(#p5eeb66382c)" style="fill:none;stroke:#000"/><path d="m513.941 562.627.921-.343.644-.35.841-.368.664-.262.454-.056.67-.071.702-.053.591-.036.478-.077 1.038-.336.493-.167.356-.06.31.014.505.067.435.135.326.212.41.298.405.396.273.445.367.552.375.322.466.276.497.18.534.174.383.035.572.018.686-.145.724-.166.545-.117.376-.04.352.015.307.067.34.081 1.244.21 2.099.318 1.137.236.955.259.489.272.458.177.693.194.645.086.58-.022.621-.102.352-.014.413.063.478.124.318.113.333.22.311.275.27.354.28.439.216.446M509 562.95l.841.063 1.114.212 1.311-.028.33-.036.254-.095.5-.206.591-.233M515.881 558.824l-.318.814-.864 1.634-.758 1.355M493.312 541.662l.977.254.69.205.645.354.234.304.44.73.833.975.531.899.455.87.576.537.902.602.856.53.81.531.668.602.512.431.306.329.213.297.083.213.02.23-.065.236-.311.86-.152.934-.045 1.06.075.864.455 1.231.349.75.318 1.84.334.75.393.777.501.85.743.622.97.495.894.481.644.248.834.396" clip-path="url(#p5eeb66382c)" style="fill:none;stroke:#000"/><path d="m485.438 544.417-.201.251-.091.195-.042.145-.03.099v.12l.041.135.156.198.292.392.75.662.239.166.129.163.049.18.038.163-.057.439-.114.318-.144.233-.091.191-.015.276.053.255.114.212.114.149.257.24.296.092.712.135.796.053.576-.12.379-.085.303-.05.216.007.2.064.167.11.182.3.353.771.235.775.466.849.401.283.304.368.447.778.47.68.181.204.156.16.254.144.257.036.247-.003.2-.071.247-.096.208-.095.205-.085.09-.015h.19l.126.06.242.114.129.074.106.177.072.19.053.351.028.175.053.154.067.17.108.127.1.071.417.32.328.193.644.296.221.132.283.18.24.186.364.235.292.35.16.376.105.329.099.498.083.4.152.548.224.548.193.46.295.421.216.198.209.092.367.146.353.166.28.162.235.23.152.24.14.305.186.605.087.198.204.205.216.177.216.117.364.219.497.269 1.382.506.319.064.246-.008.212-.064.239-.074.19-.084.117-.11.75-.984.546-.778.47-.77M485.438 544.417l.227.032.318.021.637-.02.44-.065.78-.028 1.417-.028.788-.297.698-.425 1.011-.545.433-.297.564-.474.56-.63M476.578 541.647l.61.06 1.095.06 2.001.008.978.046.523.106.462.141.481.149.625.375.425.372 1.22 1.216.216.13.224.107M474.373 536.475l.03.63.152.588.235.856.007.863-.015.58.06.34.168.346.151.234.356.283.402.222.291.096.368.134" clip-path="url(#p5eeb66382c)" style="fill:none;stroke:#000"/><path d="m463.103 525.694 1.137.035.963-.102.33-.008.34.018.22.068.261.144 1.062 1.02 1.19 1.082.84.863.607.499.197.152.273.24.223.308.319.442.295.47.326.62.258.297.48.467 1.123 1.104.181.42.228.541.371 1.203.046.898M409.004 607.58l-.21-.438-.06-.368.06-.31.16-.347.128-.248.076-.22.038-.24v-.177l-.06-.219-.107-.149-.106-.07-.22-.014-.371.162-.227.276-.205.34-.47.906-.629 1.442-.417.46-.356.347-1.955 1.04-.736.587-.886.891-1.455 1.535" clip-path="url(#p5eeb66382c)" style="fill:none;stroke:#000"/><path d="m409.957 602 .005.29.196.856.023.92.008.622-.13.735-.295.665-.462.892-.298.6M409.957 602l.391.41 1.13.601.689.375.417.545.28.559.182.474M423.255 570.392l-.057.07-.095.188-.114.279-.045.332.019.316.057.37.174.485.292.591.216.439.352.435.364.375.261.311.285.584.23.58.133.293.175.248.182.223.242.209.493.275 1.17.531.792.371.247.138.155.185.133.247.076.174.056.187-.011.223-.03.205-.076.346-.243.609-.31.714-.235.729-.114.594-.03.58-.03.51-.122.474-.121.516-.258.481-.402.7-.62.877-.282.326-.439.297-.583.312-.569.29-.622.346-.583.453-.72.842-.538.679-.257.29-.364.226-.387.142-.402.1-.538.013-.81.007-.592.085-.568.162-.417.234-.477.347-.266.19-.22.312-.144.283-.06.269.083.24.16.524.098.325.053.46-.06.318-.107.34-.106.22-.159.155-.333.17-.637.127-.645.007-.727-.042-.447.085-.273.106-.318.12-.235.142-.151.17-.114.26-.175.355-.174.48-1.068 1.96-.766 1.224-.349.637-.144.481-.06.332.003.212M454.876 574.48l-.11.35-.181.294-.713.785-.159.149-.22.142h-.19l-.226-.014-.326-.078-.243-.057-.288-.028-.227.014-.265.07-.304.163-.31.234-.31.276-.1.127-.257.552-.19.446-.19.587-.083.636-.03.53M436.691 566.118l.19 1.218.136.961-.007.467-.091.53-.167.616-.22.524" clip-path="url(#p5eeb66382c)" style="fill:none;stroke:#000"/><path d="m436.691 566.118-.473.152-.678.146-.827.212-1.046.615-.947.658-.81.517-.887.474-.63.545-.772.728-.562.446-.136.09-.327.108-.212.014-.26-.01-.212-.057-.49-.18-.958-.15-1.027-.07-.822-.025-.546.04-.814.021M454.876 574.48l-.11.022-.14-.007-.06-.043-.091-.096-.083-.208-.137-.446-.17-.516-.243-.325-.28-.174-.41-.184-.542-.148-.807-.043-.458.029-.406.056-.488.124-.535-.039-.663-.124-.618-.375-.409-.707-.485-.92-.47-.665-.545-.722-.546-.374-.834-.481-.955-.489-1.174-.778-.819-.715-1.273-.898-.493-.318-.307-.142-.302-.056-.25-.007-.421.092-.622.272-.849.393-.66.396-.53.254M553.618 574.212l.695.056.739.205.765.202.523.159.697.16.736.162.515.213 1.004.576.493.364.386.138.323.053.382.018h.273M330.703 425.19l.75.551.372.552.28.644.22.524.326.665.273.332.371.22.576.283.667.29.379.297.25.347.069.417.007.68-.174.679-.243.913-.068.261v.191l.076.142.09.149.198.212.272.212.486.205.94.241 2.455.658 1.038.276.78.304.782.12.886.234 2.175.587 1.16.488.644.397.712.51.781.621.69.545.417.262.629.27.59.12.508.007.417.02.569.05.576.078.909.163.63.141.347.149.311.247.781.46.925.44.553.183.483.287.222.13.175.11M479.962 415.142l3.233 2.006.852.456 1.498.512 1.024.075.725-.127.538-.255 1.615-1.23 1.963-1.67.64-.21.66.004 1.292.326 1.682.743 1.13.311 2.265.47.334.386.129.47.144 1.094 1.08 2.975.541 1.398.133.926-.053 3.41.25.174h.523l.432-.219 3.228-4.072.49-.831.318-.29.822-.365 1.16-.16.856.075 1.03.245h1.38l1.072-.008.846-.308 1.985-1.008.564-.01.569.258.462.598v.396l-.56.58-.368.488-.034.429.257.516 1 .8 5.101 3.435.5.828.182.545-.212.75-.69 1.174-1.447 2.272-.099.77-.022 1.819-.182 2.2.333.694.421.343.364.149.834.021.427-.05 1.297-.286" clip-path="url(#p5eeb66382c)" style="fill:none;stroke:#000"/><path d="m487.499 403.849-.682 1.274-.47 1.471-.257.778-.228.538-.424.58-.5.552-.925.78-.947.594-.561.509-.5.481-.334.29-.356.283-.357.234-.393.36-.22.319-.144.672-.107.446-.128.446v.417l-.004.27M477.912 422.685l-.606-.595-.334-.431-.257-.354-.091-.304-.069-.255.02-.382.079-.276.235-.375.508-.637.78-1.11.758-.822.334-.304.193-.258.292-.541.204-.701.004-.198M477.912 422.685l-.667-.376-.477-.318-.78-.261-.842-.418-.872-.368-.629-.333-.257-.099-.213-.014-.356.043-.341.007-.462-.07-.599-.178M487.499 403.849l1.834-4.698" clip-path="url(#p5eeb66382c)" style="fill:none;stroke:#000"/><path d="m600.91 412.163-.11-.29-.924-1.153-1.41-1.048-1.129-.608-2.857-1.79-1.546-.495-1.122.233-.947.446-5.002 2.76-2.732 2.486-.698.719-.36.806-.022 1.854-.167.404-2.38 4.054-1.75 1.868-1.22 3.106-.5 1.797-1.251 3.05-.978 3.721-.546.857-.696.226-.584.036-3.138-.531-2.046-.206-1.296-.693-2.175-2.229-.947-1.11-.364-.835-.06-.835.257-5.554-.227-.376-.5-.396-3.13-2.024-4.191-2.887-.857-.785-.591-1.422-.303-.177-1.592-.368-2.827-.368-1.413.12-2.931-.376-1.014-.635-2.357-1.154-3.418-2.01-1.137-1.514-1.856-2.398-.864-1.302-.758-.693-2.85-2.321-1.136-.935-.728-.424-3.388-.467-2.365.028-1.708.025-3.964-.198-.398.162-.947.62-1.1.198-1.155-.248-3.11-.934-2.98-.283-5.471-2.059-1.016.07-.924.454-.91.68-1.637 1.725-1 .213-2.774-.467-.405.187-.167.117-2.96 2.943-.705.213-.947.106M503.884 499.601l.485-.545.735-.559.531-.332.538-.311.41-.376.53-.735M538.216 479.133l-1.054.035-1.053.064-.41.085-.409.127-.424.184-.349.368-.326.439-.284.47-.208.386-.061.23-.011.19v.203l.019.318.045.594-.023.46-.223.584-.16.516-.068.47-.056.503-.095.439-.14.36-.387.58-.682 1.097-.864 1.55-.379.714-.387.376-.605.502-.342.516-.257.481-.107.495-.09.538-.182.786-.195.488-.162.196-.23.19-.637.71-.512.764-.644 1.182-.398.51-.117.144-.152.146-.265.127-.398.081-.991.096-.65.064-1.03.12-.652-.042-.736-.135-1.174-.007-1.068.113h-.811l-.75-.07-.948-.121-.766-.007h-.879l-1.069.05-1.318-.036-.701-.039-.637-.05-.394-.063-.318-.018-.527.149-.545.34-.36.215-.315.149-.284.085-.55.046h-.576l-.849.07-.696.064-.47.092-.622.092-.364.113M502.581 502.548l.116-.328.16-.453.08-.264.135-.445.017-.056.23-.778.168-.326.189-.183.208-.114M502.581 502.548l-.03.088-.217.478-.223.53-.55.63-.629.651-.853.895-.628.793-.186.36-.208.573-.065 1.087.023.781" clip-path="url(#p5eeb66382c)" style="fill:none;stroke:#000"/><path d="m506.167 508.058-.16-.048-.796-.354-.558-.35-.462-.205-.413-.128-.5-.095-.64.036-.398.091-.758.24-.451.16-.307.145-.496.294-.345.353-.353.495-.515.722" clip-path="url(#p5eeb66382c)" style="fill:none;stroke:#000"/><path d="m461.339 515.62 2.886-3.12 1.78-2.074.282-.354.37-.375.281-.19.303-.1.515-.283.592-.354 1.182-.707 1.197-1.104.826-1.004 1.311-1.352.963-.828.606-.488.448-.247.199-.044.19-.048.187-.044.235-.034.447-.004.958.12.849.138 1.11.05.743.106.553.212.395.273.295.276.387.46.31.272.235.11.28.17.288.106.315.102.372.067.382.029.304-.05.47-.152.61-.308.658-.314.804-.439.534-.322.398-.124.246-.05h.217l.166.043.114.067.118.138.162.485.459 1.132.432.785.413.832.282.553.609 1.137.35.464.21.145.197.19.77.526.39.257.723.357.444.134.333.05.406.018.887-.202.875-.234.56-.105.436-.018.754-.068.342-.11.174-.098.144-.152.151-.16.262-.35M436.317 502.778l.571.141.614.22.508.41.485.488.228.24.129.411.098.503.106.375.106.296.144.312.228.226.772.623.887.474.652.368.379.127.576.071.667.07.84.071.82-.042.644-.028.44-.078.462-.134 1.424-.468.66-.14.773-.079.242.014.341.078.296.106.53.276.364.199.591.565.349.524.606.552 2.676 2.087 2.675 1.96 3.139 2.025M315.447 476.002l-.1-.55M309.81 485.04l.044-.459.046-.637.197-.778.197-.92.205-.708.08-.247.086-.418.114-.332.121-.297.167-.312.235-.233.447-.297.447-.227.535-.198.322-.067.5-.117.416-.116.209-.057.178-.088.144-.18.038-.157v-.155l-.004-.322-.007-.343.06-.337.08-.226.06-.159.144-.23.25-.233.326-.188M296.228 534.764l1.637-.87 1.148-.506.534-.312.614-.47.413-.386.186-.318.076-.266.121-.54.076-.81.06-.885.258-.538.296-.474.697-.99 2.1-3.014.711-1.061.493-.538.44-.276.2-.113.414-.29.182-.361.136-.446.144-.502.599-.828.849-1.174 1.227-1.076 1.577-1.514.905-.902.3-.463.174-.361.205-.364.196-.457-.03-.565-.136-.822-.182-1.09-.121-.883.053-.609-.015-.474-.137-.891.015-.467.137-.439.235-.375.28-.389.56-.75.524-.425.591-.31.534-.273.11-.103.117-.145.084-.138.05-.177.083-.332.12-.707.387-1.062.137-.452.023-.454.022-.438.152-.432.386-.495.463-.446.5-.488.47-.439.265-.127.356-.106.523-.07.584.006.568.234.743.474.727.524 1 .417.63.106.614-.113.402-.163.363-.29.19-.34.06-.318-.045-.368v-.828l-.121-.707-.137-.283-.159-.248-.28-.092-.486-.028-.69.07-.765.213-.674.092-.447-.028-.523-.113-.372-.241-.424-.326-.265-.368-.402-.374-.356-.234-.341-.163-.47-.085h-.455l-1.015.156-.667.043-.448-.05-.393-.05-.364-.148-.28-.156-.311-.332-.137-.467-.121-.432-.129-.347-.227-.41-.462-.672-.22-.559-.349-.644-1.288-2.172-1.243-1.5-.333-.354-.35-.707-.075-.87" clip-path="url(#p5eeb66382c)" style="fill:none;stroke:#000"/><path d="m295.372 503.09.348-.368.394-.093.341-.028h.243l.318.106.402.12.265.128.235.155.447.234.675.134.947.128.815-.018.511-.06.648-.106.584-.184.481-.138.25-.021.22.017.269.043.227.018.216.028.254-.018.242-.063.171-.096.178-.095.133-.075.269-.194.295-.287.3-.35.125-.212.182-.34.113-.276.031-.248.019-.24.023-.584-.053-.916-.114-.506-.095-.396-.125-.428-.2-.541-.3-.669-.288-.863-.137-.651-.151-.828-.247-1.309-.2-.856-.182-1.11-.167-1.083v-.976l-.038-.425-.06-.36-.144-.348-.182-.368-.349-.36-.34-.425-.615-.877-.424-.58-.13-.333-.105-.417-.03-.432.128-.347.22-.396.311-.318.265-.333.28-.431.152-.255.03-.319v-.219l-.042-.286-.018-.255-.015-.149.03-.134.05-.12.064-.092.155-.117.185-.102.255-.152.45-.181.383-.068.512-.098.398-.018.382.16.508.261.337.293.663.429.273.247.311.283.144.22.076.275.06.205.122.595.132.686.106.358.186.378.372.517.295.31.182.163M269.377 554.078l-.53-.184-.554-.213-.425-.19-.417-.178-.287-.106-.243-.106-.19-.134-.128-.163-.068-.269.052-.417.114-.439.212-.46.22-.509.258-.346.523-.673.265-.601.311-.644.69-1.04.174-.396.083-.304.03-.368-.015-.56.121-1.032.63-1.458.591-1.16.682-.863.583-.559.455-.325.334-.297.25-.41.371-.481.303-.255.78-.403.988-.265" clip-path="url(#p5eeb66382c)" style="fill:none;stroke:#000"/><path d="m238.084 526.208 3.987 2.153.56.998.561 1.04.493.877.159.835.318 1.082.167.41.129.269.212.085h.296l.515-.028.599-.05 1.568-.156 1.698-.134 1.766.029 1.728.198 1.099.233 1.212.496 1.19.537 1.137.361.53.177.713-.014 1.069-.029 2.493-.34.94-.127.606-.269.917-.438 1.099-.75 1.03-.248.584-.035 1.5-.05 1.38-.141 1.372.057.795-.014.561.07.334.106.424.305.227.325.493 1.012.425 1.075.417 1.21.153.945M296.228 534.764l-1-.595-.41-.269-.23-.074-.323-.046-.64.039-.478.025-.405.021-.887-.113-.773-.311-.569-.474-.712-.474-.515-.1-.38.213-.4.41-1.039.496-.902.205-1.106.12-.97.099-.546.198-.569.325-.31.58-.334.666-.538.92-.902 1.294-.606.53-.735.744-.652.488-.69.276-.803.205-.599.05-.462-.079-.334-.156-.257-.396-.356-.473-.213-.566-.043-.272M321.086 552.818l.038 1.182-.015.254-.046.191-.121.453-.121.276-.144.39M297 553.646l.486-.566.652-.764.363-.48.364-.284.47-.184.425-.028.242.113.227.141.485.538.561.68.652.692.902.658.477.234.584.07.887-.17.955-.211.538-.057.212-.078.212-.141.144-.142.296-.452.22-.573.068-.673-.107-.636-.105-.665-.326-.531-.19-.134-.364.007-.174.091-.257.34-.046.191-.091.085-.106.05-.228-.074-.253-.163-.19-.138-.208-.184-.193-.092-.296-.191-.364-.333-.14-.13-.182-.312-.174-.807-.159-.535M296.228 534.764l.788.417 1.19.502.652.418.31.325.539.68.485 2.185.151.821.121.63.008.63-.235 1.047-.63 2.582.213.785.402.644.333.438.398.34.28.155.49.142 1.128.248.418.055M321.086 552.818l-.66-.636-.757-.75-.963-.573-1.227-.51-.842-.318-.94-.587-.901-.56-.796-.282-.69-.135h-1.243l-1.69.071-1.144.007-2.456-.177-2.1-.374-1.408-.186M280.256 586.224l-.042-.318.023-1.062-.046-1.09-.31-.897-.455-.97-.584-.728-.515-.503-.402-.148-.598.043-.872.261M216 521.978l3.41-.439.849.141 1.334.454 3.092 2.009 13.399 2.065" clip-path="url(#p5eeb66382c)" style="fill:none;stroke:#000"/><path d="m363.735 598.215-.08-.545-.128-1.04-.053-1.167-.008-.94-.068-.779-.038-.672-.34-.97-.638-.905-.504-.814-.151-.59-.209-.693-.132-.39-.186-.555-.144-.58v-.757l.197-.637.167-.955.106-1.407.159-.608.167-.44.614-1.513.614-.842.288-.453.098-.318.03-.333-.038-.269-.196-.219-.47-.34-1.077-.509-.651-.46-.44-.368-.144-.254-.182-.347-.083-.417-.06-.814-.137-.757-.16-1.577.031-1.175-.023-.827-.068-1.055-.182-.863-.31-1.181-.38-.934-.416-.877-1.046-1.825-.88-1.727-.667-.87-.514-.318-.668-.248-.788-.156-2.167-.169-2.54-.205-1.083-.064-.67.11-.52.088-.534.05-.474.042-.568-.078-.538-.17-.387-.219-1.917-1.627-.864-.325-1.274-.142-2.091-.41-2.486-.835-1.273-.431-1.235-.404-1.547-.594-1.113-.7-1.311-.475-1.024-.325-.667-.007-.735.135-.515.176-.583.27-.509.098h-.424l-.553-.141-.667-.276-1.516-.82-1.076-.659M364.622 604.016l-.792-.665-.77-.516-.25-.34-.136-.234-.041-.244-.012-.265.117-.56.133-.568.243-.676.174-.555.436-.888.011-.29M371.795 588.22l-.447.374-.273.19-.322.358-.326.446-.235.545-.265.764-.224.767-.094.385-.03.482.053.392.136.347.17.315.019.368-.102.516-.103.234-.075.162-.103.142-.2.099-.228.028-.382.004-.683-.078-.44-.067-.333.014-.629.117-1.515.615-.66.248-.295.183-.121.128-.137.268-.083.396.038.475v.51l-.17.268" clip-path="url(#p5eeb66382c)" style="fill:none;stroke:#000"/><path d="m280.256 586.224.265-.173 1.277-.252 1.326-.006 1.797.48.97.524 1.091.721 1.212 1.16 1.653.92 1.084.284.545.014 2.008-.234.6.007 2.606.418.637.467.91 1.025 1.174 2.023.515 1.054.538.503 1.114.446 1.084.056.675.163 2.698 1.853 1.986.976.629.213.984.106.236.092.765.431.591.481 1.008 1.316.576.694 1.061.466 2.516 1.705.144.403-.023 1.522.099.24.826.955.22 1.061.121 1.132-.371.983.053 1.337.212.545.152.163.462.063 1.068.04 2.422.473 1.66.757 1.352-.02 1.118-.394 1.641-.413 3.361-.761.546-.138.41.102.386.27.458.502.493.177.511.056 1.399-.106 3.6-1.026 3.19-.198.693-.286 5.609-2.735 1.197-.502 3.392-1.089.727-.396 1.615-.552 6.548-1.33 2.22-.944.724-.032M315.347 475.453l-.029-.155-.14-.517-.06-1.075.019-.502.117-.556.197-.551.186-.415.038-.233-.03-.205-.152-.234-.265-.332-.667-.573-.637-.729M299.32 470.073l.508-.23.288-.053.356-.01.295-.022.277.035.372.149.397.205.705.623.387.41M286.857 436.581l.095 1.04.223 1.38.186.506.253.513.206.357.151.206.292.389.261.328.224.418.181.517.182.877.076.778.106.58.137.29.348.46.319.27.538.353.413.173.659.248.44.16.182.12.124.198.054.188-.008.14-.06.167-.065.138-.11.128-.178.127-.762.265-.757.304-.576.298-.546.417-.47.608-.386.715-.235.474-.084.326-.045.304.03.375.076.64.053.326-.015.24-.11.173-.231.263-.485.501-.463.595-.28.538-.121.417-.008.354.197.545.197.445.258.722.22.786.045.53.114.326.545.637.433.495.758.77.47.708.333.44.272.219.645.29.477.219.265.262.266.467.151.389.152.39.204.303.622.892.568.63.675.53.59.311.516.425.233.255.2.255.367.576.337.534.296.317.214.129.098.053.17.055.473.16.946.227.342.018" clip-path="url(#p5eeb66382c)" style="fill:none;stroke:#000"/><path d="m315.347 475.453-.786.195-.542.064-.239.021-.269.018h-.182l-.14-.018-.084-.032-.158-.024-.178.007-.178.014-.293.06-.318.117-.28.187-.489.248-.515.106h-.342l-.496-.113-.59-.234-.641-.446-.72-.484-1.148-.746-.929-.545-.599-.227-.428-.099-.5-.117-.906-.074-.344-.074-.506-.17-.179-.081-.088-.07-.11-.128-.167-.354-.288-.778-.199-.462-.131-.26-.114-.16-.087-.106-.286-.19-.422-.206-.39-.113-.425-.064-.34-.042M286.752 435.64l-1.047.198-.42.078-.744.17-.84.375-.46.237-.295.216-.197.215-.128.298-.088.353-.019.358.046.435.08.421.068.414.015.272-.004.33-.064.498-.042.725-.027.655-.09.56-.194.508-.185.453-.152.51-.13.488-.124.778-.095.878-.128.693-.198.647-.17.577-.038.294-.011.456-.02.782-.075.57-.156.576-.147.52-.186 1.129-.072.53-.034.464-.117.453-.232.633-.174.35-.205.287-.2.208-.307.174-.402.215-.52.078-.284.011-.356-.05-.648-.11-.337.004-.307.047-.356.14-.394.245-.89.781-.85.793-.31.226-.175.114-.295.02-.637-.077-.856-.014-.91-.1-1.167.1-.901.1-.887.027-.66-.198-.689-.091-.622.042-.651.113-.553.247-.243.262-.175.545-.204.85.007.862.16 1.45.651 2.675.773 4.344M286.752 435.64l.105.941M286.857 436.581l.17-.385.265-.683.262-.403.186-.177.36-.149.564-.173.789-.127.916-.09.91-.101 1.042-.333.5-.223.546-.11.66-.205.716-.223.412-.078.197.028.179.068.333.191.394.223.41.315.363.226.201.032.209.017.14-.006.288-.152.261-.135.375-.209.648-.385.561-.51.44-.488.477-1.11.455-1.055.258-.779.348-.8.667-1.032.356-.722.144-.892M414.274 507.54l1.447 1.64 1.076.623 1.145.814.735.602.595.405" clip-path="url(#p5eeb66382c)" style="fill:none;stroke:#000"/><path d="m436.317 502.778-.58.573-.728.34-.538.113-.682-.092-.455-.12h-.22l-.386.099-.455.19-.637.262-.477.05-.872-.134-.553.014-.493.134-.4.276-.433.609-.22.665-.318.693-.38.425-.78.46-.993.445-.894.283-1.099.007-.947-.014-.94.148-.985.44-.56.473-.327.39-.129.523-.067.538-.062.247-.106.283-.181.326-.148.2M383.49 536.695l.204-1.033.075-.594.03-.56-.037-.912-.03-.785.045-.722.182-.644.227-.593.228-.75.128-.715-.015-.863.008-.41.212-.347.288-.262.401-.347.781-.601 1.054-.85 1-.614.591-.22.402-.071.349.007.409.17.546.311.697.361.834.226 1.485-.056 1.606-.141 1.425-.149.569-.149.447-.275.477-.376.599-.318.993-.276 1.288-.304 1.296-.368 1.357-.212 1.197-.24.591-.206.311-.36.516-.517.636-.325.622-.142.75-.05h1.13l1.681-.148 1.054-.042.712-.1.41-.177.363-.34.72-1.06.736-.97.454-.806.167-.573.204-1.083.19-.714.31-.51.455-.552.857-1.04 1.394-1.443.17-.23M453.584 529.699l.452-.563.655-.7.553-.538.117-.365.16-.477.022-.754M439.556 539.482l.94-1.881.66-1.02.598-.622.652-.721.917-1.005.91-.842.757-.672.796-.764.334-.24.363-.057.53.155.273.128.258.099.318.063h.175l.22-.035.113-.042.121-.12.061-.199.023-.205.06-.403.213-.481.174-.198.326-.199.53-.148 1.092-.205 1.447-.135.846-.06.321.026M506.167 508.058l-.646-.992-.682-.8-.455-.615-.424-.977-.341-.644-.712-1.097-.14-.187-.186-.198M477.692 379.055l-5.275-1.925-1.88-.453-1.454-.057-1.395.227-1.152-.227-1.333-.452h-1.031l-1.759.566-3.455 1.019-1.334.509-1.03.453-.804.594-.516.694-.44.694-.56.721-.606.538-.91.637-.182.99-.348 2.718-1.44 1.712-.864 1.005-1.289 1.967-1.09 1.33-3.275 1.458-.925.566M408.934 397.172l4.31 3.62 1.515 3.68 3.304 3.254 1.667.99 3.911-1.414 4.896 2.618 1.061-.806 1.243-2.024.44-1.005.454-1.26.258-1.683-.167-1.303.076-.594 1.106-1.217 1.5-1.033 2.653-1.118 3.532-2.038 1.41-.948 1.242-.552M445.543 382.253l-5.168 3.029-.97.509-.5.693-.106.878.06.934.47.778.652 1.19.06.537.213.793.636.764.515.707.88.85 1.06.424M445.543 382.253l-2.895.311-.606-1.302-1.152-1.528-1.395-1.755-1.455-1.245-1.091-1.472-1.213-.736h-1.394l-1.759.68-3.273.622-2.365.566-2.122.283-.383-.17-.849-.948-2.011-1.91-.622-.863-.394-1.048-.41-1.047-.772-2.774-.076-.764-.53-.779.045-.764.364-.736.985-3.41-.045-.991-.182-1.543-.455-.82-.773-.397-1.531-.637-.925-.354-.409-.24-.227-.524.303-.453.758-.594M445.543 382.253l1.152-.849.44-.976 1.273-2.534.44-2.222-.137-.92-.894-.863M522.684 360.945l-3.94 3.114-1.547 1.529-1.576 1.075-1.304 1.388-1.606 1.103-.94.482-2.789.735-.667.34-.91.878-1 1.33-.273.595-.303.368-1 .85-4.062 2.83-1.212.481-1.001.113-3.461-.743-4.365.906-.85 1.868" clip-path="url(#p5eeb66382c)" style="fill:none;stroke:#000"/><path d="m477.692 379.055 3.88 1.019 3.456.679 1.152-.227.97-.283 1.516-.17 1.213.114M489.333 399.15v-2.547l-1.455-1.245-.606-1.698 3.274-4.133.848-2.038-1.151-2.83-.364-4.472" clip-path="url(#p5eeb66382c)" style="fill:none;stroke:#000"/><path d="m489.333 399.15-3.698-4.301-.364-2.491 1.091-5.265-.727-3.68-3.517-1.018-4.426-3.34M637.27 405.696l-.342-.036-.545.114-2.365.969-3.607 1.648-2.001.991-1.235.453-1.873.389-2.735.05-.698.148-.575.347L620.3 412l-1.016.588-1.137.488-1.084.445-1.015.22-.788-.142-1.156-.42-2.103-1.317-1.516-1.036-1.254-1.256-1.088-.633-1.152-.04-.882.252M600.91 412.163l.432.018.429-.124.716-.499 2.148-1.63 1.475-.78" clip-path="url(#p5eeb66382c)" style="fill:none;stroke:#000"/><path d="m578.554 358.68.177 1.127-1.485 4.36.03 1.726.728.821 1.485-.453 3.248-3.929 1.394-.85 1.304.143 1.213.679.758.255.515.056 1.06.906 1.729 1.16.606.538.728 1.048.636 1.189 1.304 1.67.788 1.416.151.707-.363 1.84-.151 2.972-.182 1.557-.455 2.123-.03 2.577-.152.255-1.061 3.538v.736l.788 2.152.333.51.395.282.182.283.333.114.363-.085 5.397.877 1.242.425h.486l2.576-.425 2.456-.963 2.819.85.819.538 1.06 1.925.061 1.273-.819 3.284-.12 1.529.12.764.546 1.218.182.792.03 4.048-.09.538-.243.368-.606.227h-1.97l-.698.254-1.152.453-.212.085-.697.986M593.62 334.618l-4.73 1.217-1.94 1.727-1.333 1.048-1.94 2.236-.576 1.104-1.364 5.01.454 2.096-.06.905-.576 1.5-.637.991-.455.935-.636 2.548-.758 1.84-.515.905" clip-path="url(#p5eeb66382c)" style="fill:none;stroke:#000"/><path d="m522.684 360.945 5.275 1.528 2.395 2.492.576.453 1.576.707.576.425.88.85.12.65.365.397.454.311.455.085 3.274.113 1.06-.141.546-.17.486-.51 2-2.547 1.03-.906.243.085.304-.085.94-.652.666-.254.85-.51 1.273-.457 1.6-.643 3.037-1.9 2.213-1.105 2.728-.537 2.638.453 1.03-.255.364-.255.789-.934.91-1.33.666-.652.818-.31 1.152-.284 2.365-.255 2.546-.424 1.091.056 1.001.51 3.001 2.915.515.283.728.113 1.334.425M506.587 287.117l.586-.538.839-.82.314-.234.211-.085.4-.1.374-.02.462.021.391.106.427.177.341.198.452.248.261.1.384.077.32.014.37-.022.35-.091.453-.206.533-.29.599-.389.651-.41.402-.361.27-.298.185-.29.133-.417.01-.538.038-.693.013-.475.101-.587.167-.644.43-1.204.123-.686.099-.813.005-.666-.074-.566-.166-.403-.326-.885-.364-.927-.341-.743-.614-1.097-.515-1.033-.435-.864-.3-.566-.26-.481-.278-.396-.289-.305-.257-.226-.283-.191-.452-.375-.243-.283-.328-.616-.293-.587-.35-.786-.325-.396-.442-.277-.546-.113-.649-.042-.858-.057-.574.014-.432.086-.371.17-.284.183-.459.17-.341-.014-.425-.198-.434-.255-.872-.623-.394-.425-.513-.657-.54-.9-.62-1.408-.204-.524-.113-.516-.099-.46-.154-.326-.187-.219-.313-.206-.475-.204-.7-.305-.69-.474-.513-.452-.439-.496-.389-.68-.331-.523-.273-.39-.303-.29-.57-.44-.552-.465-.409-.432-.25-.502-.159-.609-.197-.333-.341-.403-.7-.744M545.48 283.72l.117-.877-.025-.807-.455-2.958.06-.454-.12-.565-.758-1.529-.182-.566.151-1.076.667-1.529.242-1.132v-1.132l-.333-1.104-.212-.397-.394-.31-1.365-1.275-.18-.906-.274-.708-.667-.764-1.788-.934-1.759-.142-.727-.14-1.455-.539-3.153-1.557-.91-.736-2.485-.764-4.548-.255-2.122-.594-2.304.084-.97-.17-1.394-.226-4.82-2.463-.424-.34-.576-.82-.576-1.105-.152-.538v-.396l.182-.707-.03-.482-.334-.509-.242-.198h-.425l-.364.198-.545.623-.728 1.104-.818.566-1.243.311-1.576.028-1.122-.34-1.121-.65-.486-.595-.467-.983-.215-.284-.349-.177-.424-.084-.831.07-.599.008-.576-.021-.722-.057-.407-.042-.515-.022-.515.008-.682-.043-.774-.148-.977-.213-1.01-.241M464.51 236.066l1.026.04 1.179.02 1.652.042.897-.096.7-.31.606-.427.677-.585 1.74-1.334.876-.563.5-.156.412.051.388.252.4.501.97 1.101.68.966.818 1.67.607 2.095.405.764.564.787.58.756.821.88.782.561 1.049.702.83.456.433.159.553.137.621.318 1.395.736.545.198 1.668.198.818.283.667.51.455.65.182.737.06.906.273.566 1.94 1.309.394.17M522.684 360.945l1.334-3.227-1.364-2.406.394-3.539.515-.99 1.304-1.586.849-1.217 1.97-4.671 1.576-2.406.243-.68.182-.99.515-1.5.333-1.473.091-2.462-.12-.651.03-2.18-.212-1.614.151-.68.819-1.698.212-1.585-.334-1.19-.515-1.301-.303-1.19.06-1.528.455-1.897-.09-1.047-.183-.538-.394-.707-.96-1.02-.435-.75-.11-.567.171-.608.405-.935.353-1.075.435-.708.626-.82.425-.425.485-.255.697-.056.333-.141.485-.369.592-1.104.44-.99.161-.751-.07-.708-.385-.92.02-.962.147-.708.384-.848.525-.638.531-.397.539-.29.613-.184.621-.07.577-.05.606-.099.538-.134.393-.191.312-.284.19-.452.204-.828.151-.821.197-1.175.175-.771.295-.864.864-.849.819-.977.758-.962.333-.609.197-.75.121-.948.228-1.132.424-1.473.869-2.604M447.094 223.623l1.538 2.037.594.948.51.88.703.85.715.657.761.467 1.028.467 1.103.322.873.277.68.47.63.527.57.532.649.578.5.3 1.474.795 1.332.614 1.939.86 1.817.862" clip-path="url(#p5eeb66382c)" style="fill:none;stroke:#000"/><path d="m472.087 249.21-.054-.513-.294-.497-.974-.756-1.066-.635-.441-.463-.202-.515-.258-.944-.349-.67-.441-.686-.588-.72-.331-.824-.202-.773-.147-.824-.33-1.046-.313-1.082-.203-.497-.312-.395-.404-.567-.668-.737" clip-path="url(#p5eeb66382c)" style="fill:none;stroke:#000"/><path d="m472.07 240.15-.809-.618-.845-.291-.643-.035-.754-.017-.552-.189-.716-.326-.662-.498-.46-.532-.477-.532-.57-.497-1.072-.549M306.906 282.9l-1.516-.227-3.88.226-4.184-.566-1.333-.736M291.437 258.948l-1 .142-.91.962-1.333-.34-1.88.17-2.758 1.67-.728 1.048.273 2.519.485 1.103.728 1.133.818 2.35.91.763 4.304 1.84 2.971 1.868.94 1.104.333.793.122.566.03.31.243 3.058.12.198.888 1.392M330.605 339.088l-2.061-4.586-1.396-4.027-.666-.793-.607-.594-.212-.396-.212-1.529-1.516-5.69-1.576-4.301-.424-.963-.82-1.302-.363-.877-.121-1.246.636-3.312-.06-1.018-.152-.481-.455-.651-1.849-1.585-1.91-1.133-1.849-.962-.818-.764-.303-.765.06-1.387-.12-.566-.365-.651-2.304-3.028-.849-1.642-.424-1.132-.091-.538.03-.934.516-2.208-.03-.764-.183-.68-2.606-3.424-.599-2.26" clip-path="url(#p5eeb66382c)" style="fill:none;stroke:#000"/><path d="m266.761 340.155 1.971-1.831 2.364-.688 1.274-1.302 1.88-2.689.575-.368 1.85-.594.818-.935 1.061-1.528.758-2.717v-.934l.606-1.982.364-.65 1.152-1.444.455-.906-.455-1.217-1.91-2.264.455-.029 3.122 1.415 2.577 1.416 3.668 3.283.88.34.757.198.576.029 1.97-.482 1.274-.453 1.06-.056 1.335.198 1.364.368.909.566 2.91 2.915 2.092 1.217 1.819 1.472.758.311 3.607-.934 1.82-1.944 3.577 1.132 3.152.51 3.699 2.547 2.607 2.83 5.093 4.133M177.44 541.287l.767.864 2.452 1.881.585.33.378.213 12.119 6.824 2.349 2.087 1.434 2.325 1.137 2.828.314 2.46-.047 2.309-2.84 8.132-1.436 3.857-.751 2.543.35 1.644.76 1.596 1.204 1.218 3.277 1.948 1.59 1.305 1.025 1.722 1.66 5.177.153 1.238-.028 1.262-.133.972-.261.953-.39.78M156.023 614.84l3-1.911 4.911.623 4.547-.453 4.184 3.056 4.305 1.528 4.062-.057 3.698-.565 1.394-2.208 5.821 3.566 4.426-1.302.303-3.848 2.425-4.245-.727-4.528.142-.315 1.676-3.702 1.516-2.038 1.402-.686M175.794 450.066l.994 6.256-.546 1.302-4.669 1.98-1.455 1.643-2.425 7.98v3.963l-1.085 1.983M159.15 503.545l-.066-.753-3.153-4.415.182-5.263 2.546-4.472 1.395-5.943 4.729-4.189 1.825-3.337M104.63 465.64l.48 1.606.4.971.04 2.689.44 2.577 4.36 3.809 2.88 2.39 2.14 1.318" clip-path="url(#p5eeb66382c)" style="fill:none;stroke:#000"/><path d="m177.109 541.712 2.194 2.03 3.745 2.603.863 1.316 2.91 1.896 2.198 1.146M177.109 541.712l.33-.425M170.652 539.389l-.685 1.042 4.44 2.334 1.456.255.515-.368.73-.94M175.529 539.13l.519.591 1.391 1.566M170.652 539.389l2.235-3.394M171.337 534.143l-2.386 4.165 1.701 1.08M172.887 535.995l-.282-.342-1.268-1.51M175.529 539.13l-.893-1.015-.82-.994-.293-.355-.636-.771M144.05 515.21l.088 1.166M144.05 515.21l3.303.766M144.138 516.376l.699.958M141.23 518.042l-4.246-1.836.395-.849.848-.99 4.062 1.641 1.85.368M142.835 513.461l4.851 1.383M148.868 508.99l-1.182 5.854M147.353 515.976l.333-1.132M144.837 517.334l2.122-.113.273-.113.12-1.132M141.23 518.042l3.213-.793.394.085M141.23 518.042l-3.577 1.896-4.73 5.29-.696.68-2.365 2.122-.849.877-.97.906-.272.17-.82.848-.393.651-.303.82-.243 2.265v1.216l-.09.425-.364.565-.758.34-1.03.227h-.971l-1-.227-1.334-1.047-1.091-1.302-1.395-.622-1.455.113-.576.254-.697.595-.546.82-.364.85-.242.962v1.527l.637 3.141-.122.764-.515.68-2.091 1.414-.576.764-.88 1.443-2.091 2.575-1.304 1.16-.697.481-4.82 5.263-.667.99-.212.623-.03 1.33.667 3.169.545 1.358.212.877.758 2.207.637 1.302.182.934-.061 1.188-.727 2.094-.243 1.104.122 3.593-.152 1.358-.06 3.056-.395 2.208.334 2.63" clip-path="url(#p5eeb66382c)" style="fill:none;stroke:#000"/><path d="m156.023 614.84-1.577-.621-.454-.453-.425-1.896-.121-2.858-.152-.82-1.424-4.217-.576-.537-2.486-1.302-.667-.566-4.365-7.498-2.637-3.056-1.152-.65-1.334-.482-1.334-.197-2.184-.782-3.426-.17-3.152-1.16-3.395.057-2.153.594-1.758-.028-12.217-5.914-3.335.17-2.06 2.433-1.09 2.083M209.982 498.194l-1.213.311-2.334-.452-1.03.594-.94 2.433-.758 3.198-.334.566-1.03.707-1.061-.085-2.031-1.471-1.668-.65-1.364.452" clip-path="url(#p5eeb66382c)" style="fill:none;stroke:#000"/><path d="m216 521.978.197-.552.393-.934-.09-1.98 1.334-3.396-1.273-1.683-1.244-3.043-1.394-.99-1.03-.453-2.275-1.613-.545-.141-1.94-.057-.424.085-.759.537-.576.397-.545.17-1.637-.057-2.001-.736-1.485-.226-.516-.312-.606-.961-3.365-2.236M159.15 503.545l.449.28.606 1.698.091.226.546.566.879.114 1.364-.396h.576l1.425.424.88-.085 1.06-.34 3.183-.51.758-.197 4.062-.453h.91l.363.142.334.34.303.225.849.283.606-.084 2.092-.708.909-.198.91.029 2.03.34h.577l.879-.369.333-.311 1.82-1.245 1.03-.311.546.028.727.283 1.364.537 4.608-.056" clip-path="url(#p5eeb66382c)" style="fill:none;stroke:#000"/><path d="m175.529 539.13 22.267-14.082 1.758-1.358.575-.311 1.01-.288.471-.135.308-.087 2.274-.425 3.486-.197 3.668.17 4.653-.44M303.169 361.289l.739-1.017 1.222-1.586M311.129 353.676l-.46.302-1.376 1.052-2.739 2.307-1.424 1.349" clip-path="url(#p5eeb66382c)" style="fill:none;stroke:#000"/><path d="m311.129 353.676-1.9-.557-4.56 3.479.461 2.088M302.246 362.558l-.543.748-4.06 5.741-1.107 1.478-1.184 1.124-2.98 2.129-2.75 1.83-2.355 1.286-1.673.353-1.557-.179-1.537-.64-.997-.903-.703-1.112-.305-.963-.626-2.209-.768-1.625-1.036-1.26-1.218-.684-1.298-1.02-.879-.816-.993-1.213-1.536-1.463-2.15-1.586M271.73 355.569l-.424.294-.727.567-.461.441-.412.611-.207.51-.016.512.027.163.075.454.406 2.453M124.834 450.992l2.292.748M124.834 450.992l-2.52-.847M124.834 450.992l.535-.125.706-.348.325-.205.248-.205M126.295 449.788l-1.117.633-.258.241-.086.33M127.126 451.74l-.487-.437-.125-.311.02-.259v-.294l.114-.33M108.359 445.442l.272.093 9.193 3.161.895.307 3.594 1.142M126.295 449.788l-.716.196-.564.063-1.117.106-1.585-.008M395.974 370.54l.657 1.806.667 2.86M393.872 365.676l.639 1.112M394.511 366.788l1.968-.895 3.243 4.954.273 3.68M395.974 370.54l-1.07-2.91-.393-.842M395.974 370.54l-1.68 1.988M104.63 465.64l1.08-3.846 2-3.81-.28-2.315.08-1.755.52-2.875v-3.324l.329-2.273M302.246 362.558l-1.374-.79-1.322-.846-1.254-.813-.766-.195-.766.423M302.246 362.558l.923-1.269M303.169 361.289l-1.495-.757-.745-1.053-.28-.396-.264-.372-.801-1.528-.522-.553-1.498-.715-1.323-.26-2.855.78M335.903 351.335l-1.555.414-1.443-.156-1.937-1.02-.86-.411-.77-.267-2.017-.054-2.515.142-3.998.322-2.062.214-1.803.46-2.475.788-2.223 1.178-1.116.731" clip-path="url(#p5eeb66382c)" style="fill:none;stroke:#000"/><path d="m338 364.302.506-2.06-.69-1.93-.183-2.874-2.62-1.845.89-4.258M445.513 304.073l-.47-.226-.576-.213-.546-.155-.424-.042h-.682l-.576.14-.803.114-1.137.1-1.41.155-.788.127-.697.071h-.546l-.56-.156-.547-.325-.318-.495-.409-.567-.485-.566-.515-.438-.849-.51-.819-.538-.803-.467-.485-.425-.273-.453-.045-.396.045-.708.106-.693.258-.481.424-.637 1.334-1.699.5-.637.228-.367.09-.397-.015-.51-.242-.863-.485-1.514-.318-1.203-.228-.666-.378-.41-.622-.184-.895-.042-1.303.141-.94.481-1.485.85-1.394 1.019-2.092 1.132-1.213.595-1.576.424-1.213-.113-1.333-.538-1.456-1.104-1.303-1.359-.758-1.557-.91-1.67-1.152-1.5-1.333-1.614-1.668-1.471-.854-1.322-.968-1.423-.91-1.324-1.056-1.744M432.87 247.11l.63-.665.461-.34.534-.328.764-.25.885-.158.825-.238.97-.52.86-.453.898-.26 1.31-.091.642-.125.63-.328.51-.34.679-.227.958-.067.618-.057.91-.373.849-.533.788-.747.91-.974.436-.306.364-.113.34-.034.363.158.449.34.642.612.994 1.256 1.359 1.529 1.224 1.552 1.2 1.472M472.087 249.21l.845-.496 1.174-.69M432.359 195.125l.01-.583.023-.358.048-.38.088-.367.208-.419.288-.582.512-.8.304-.537.296-.695.272-.643.336-.8.232-.747.152-.538.272-.515.312-.299.664-.396.864-.403.76-.336.464-.127.465-.045.36.022.375.023.555.035.664.03.552-.105.288-.135.224-.171.424-.36.328-.246.344-.194.472-.187.976-.321.904-.284.72-.396.504-.403.28-.277.336-.523.304-.433.24-.546.256-.724.328-.814.304-.957.248-.867.288-.911.064-.322-.032-.223-.104-.27-.136-.32-.12-.292-.144-.314" clip-path="url(#p5eeb66382c)" style="fill:none;stroke:#000"/></g><g id="PatchCollection_1"><path d="m180.893 149.976.486-.131.658.175.11.454.062.717-.282.117-.062.117.266.702-.298.176-.344-.849-.36-.673zM339.22 347.915l.008.313-.2.553.048.127.4.142.52.142.456.015.448.052.56.082.84.075.6.067 1.12.344.792.284.464.045.816.007.544-.209 1.696-.62.584-.291.592-.254.552-.21.352-.15.752-1.03-.176-.672-.264-.456-.72-.448-1.184-.254-.848.067-.52.262-.416.38-.64.083-.656.194-.968-.112-.848-.239-.809.037-1.671.217-.68.277-.779.071-.453.264-.312.322z" clip-path="url(#p5eeb66382c)" style="fill:#00f;fill-opacity:.8"/></g><g id="PatchCollection_2"><path d="m374.436 352.243 2.456 1.56 1.144-1.732-2.472-1.494zM579.343 243.575l.207.947.334-.658zM393.46 384.776l-.116.123-.19.089-.185-.01-3.22-2.725.064-4.012 2.691-.431zM389.94 365.01l1.974 1.705.037-.089-1.847-1.793z" clip-path="url(#p5eeb66382c)" style="fill:green;fill-opacity:.8"/></g><g id="PatchCollection_3"><path d="m130.208 454.205-.648 3.167 4.924.878.647-3.167zM388.517 370.479l1.477 2.274 3.63-2.055-1.477-2.275z" clip-path="url(#p5eeb66382c)" style="fill:#90ee90;fill-opacity:.8"/></g><g id="PatchCollection_4"><path d="m307.202 153.57.38-.353.47.407-.39.365zM306.812 153.731l.31-.236-.23-.225-.287.225zM305.996 155.019l.471-.215.265.408-.483.268zM348.663 169.456l.01-.558.724.043-.034.547zM347.008 170.056l.551-.075-.045-.386-.552.054zM345.24 169.638l.435-.311-.195-.279-.493.322zM350.42 167.771l.517.011.069-.654-.506-.022zM364.273 185.397l-.046-.536.667-.129.045.547zM366.123 186.052l.011-.515h.54v.547zM368.592 184.335l.62-.236.184.43-.367.15.023.096-.264.097zM378.78 186.66l.509-.185-.264-.616-.535.203zM379.493 186.377l-.159-.327.555-.185.158.357zM377.045 186.413l-.033-.215-.343.068.046.259zM247.12 196.805l-.237-.518.488-.16.238.53zM247.9 198.58l.026-.518.633.037.04.505zM253.256 196.818l.172-.444.568.27-.212.457zM259.59 193.219l-.132-.592.45-.098.183.616zM259.524 194.944l-.303-.284.33-.221.303.234zM485.785 159.563l-.35.3.25.24.34-.298zM535.001 260.436l-.413-.325.466-.516.413.325z" clip-path="url(#p5eeb66382c)" style="fill:#a9a9a9;fill-opacity:.8"/></g></g></g><defs><clipPath id="p5eeb66382c"><path d="M90 98.589h558v530.023H90z"/></clipPath></defs></svg>