<svg xmlns="http://www.w3.org/2000/svg" width="960" height="960" viewBox="0 0 720 720"><defs><style>*{stroke-linejoin:round;stroke-linecap:butt}</style></defs><g id="figure_1"><path id="patch_1" d="M0 720h720V0H0z" style="fill:#fff"/><g id="axes_1"><path id="patch_2" d="M105.04 640.8h527.92V86.4H105.04z" style="fill:#fff"/><g id="LineCollection_1"><path d="m491.226 339.541-1.252-1.922-.802-3.14.127-3.341.727-2.787 14.098-33.674.58-3.16-.316-2.692-1.345-2.343" clip-path="url(#p258a2d54da)" style="fill:none;stroke:#000"/><path d="m475.706 274.24 22.626 8.649 2.882 1.67 1.829 1.923M435.298 128.373l-.76-2.815M530.972 165.039l.675-.972.718-.608 4.644-5.023 2.491-2.997 11.907-21.064 2.238-5.347 1.646-4.82 2.787-11.788-10.555-2.47-2.703-.325-2.153.122-7.769 2.309-.844.121-6.418 1.742-3.968 1.296-1.267.568-5.362 3.24-1.267.445h-.802l-6.291-1.863-6.502-1.539-2.28-.121-2.575.283-2.196.527-17.142 4.86-9.5 2.876-14.862 4.537-4.644 1.25-2.365 1.052-2.364-.81-5.573-2.349-3.378.202" clip-path="url(#p258a2d54da)" style="fill:none;stroke:#000"/><path d="m456.283 237.76-.212-2.755-3.483-34.368-.803-8.143-1.013-8.566-.928-6.44-1.268-4.416-2.87-7.858-1.88-5.367-1.73-4.597-1.668-4.497-1.225-4.516-3.905-17.864M457.513 328.361l-1.187.476M457.513 328.361l5.662-2.285M457.513 328.361l.174 1.394M457.513 328.361l-2.777-6.83M465.202 342.343l-.406.359M465.202 342.343l-1.079-2.427M465.202 342.343l.67 1.28M469.164 347.502l.985.874 1.532.794 2.98 1.37 3.276.838 7.06 5.795 2.984 2.933 5.75 6.982 2.475 1.955 3.64 1.187 1.746 1.187.874 4.399.8 2.443 1.371.868M491.226 339.541l.437.671 9.855 13.49 1.744 2.668 1.433 3.124.733 3.033.14 3.084-.93 13.516" clip-path="url(#p258a2d54da)" style="fill:none;stroke:#000"/><path d="m545.033 558.345-.012-.85.296-1.468.664-1.984.844-1.762 1.172-2.044 3.009-4.576 1.14-2.005.697-1.843.59-2.075.212-2.136-.085-13.567-.634-4.15-9.133-22.626-.62-3.475.067-3.622.872-9.497-.552-4.504-1.717-2.919-4.432-5.12-32.14-36.23-2.1-3.361-1.041-2.794-.249-2.622.143-3.569 2.613-40.42M467.04 284.534l.446.037M467.04 284.534l-2.145 6.072-2.122 6.318-1.523 4.79M467.313 281.01l.002.797-.08 1.277-.195 1.45M462.413 318.495l1.76 3.736M462.413 318.495l.524-.209M462.413 318.495l-7.677 3.035M462.413 318.495l-.92-4.277M466.26 326.17l-2.508 1.054M466.26 326.17l-.552-1.117M466.26 326.17l1.905 4.482M472.715 322.644l-.856 1.022-.777.769-4.823 1.734M465.304 324.244l.404.81M465.304 324.244l-.146-.822-.469-1.412M464.174 322.23l.623 1.336.507.678M449.41 331.432l2.979-1.206M449.41 331.432l1.975 2.94M449.41 331.432l-2.828-5.291M453.646 332.028l.375.58M453.646 332.028l-1.257-1.802M453.646 332.028l3.424-1.946M457.687 329.755l6.065-2.531M457.687 329.755l3.739 5.593M457.687 329.755l-.617.327M432.597 232.9l-.59 3.058M432.597 232.9l8.162.318M422.992 234.9l-.123-1.546.022-.41.195-.264.256-.122 9.255.342M440.76 233.218l-.408 2.389M449.21 238.211l-.211-3.746-.093-.235-.121-.142-.156-.114-1.003-.235-2.5-.345-1.606-.141-2.76-.035M422.992 234.9l8.302 1.065M422.992 234.9l-.157 4.897M440.352 235.607l-.66.019-.612.238-.488.428-.3.564M441.945 237.292l-.14-.598-.342-.518-.504-.377-.607-.192M431.294 235.965l.622.488M431.294 235.965l.713-.007M438.291 236.856l-6.284-.898M438.291 236.856l-.066.29-.015.3" clip-path="url(#p258a2d54da)" style="fill:none;stroke:#000"/><path d="m441.864 237.908.069-.305.012-.311M441.945 237.292l7.266.919M438.21 237.445l.135.605.34.526.506.383.613.195M438.21 237.445l-6.294-.992M456.283 237.76l-.75.086M456.283 237.76l.064.58M455.533 237.846l.113.578M455.533 237.846l-3.134.413-.986.114-1.209-.005-.993-.157M441.864 237.908l7.431.978M439.804 239.154l.66-.019.61-.238.488-.426.302-.563M449.21 238.211l.085.675M464.252 264.962l-.333-.759-.354-.975-6.037-18.705-.73-3.404-.45-2.78M456.347 238.34l-.701.084M455.646 238.424l1.073 6.272M449.295 238.886l.933.059 1.14-.02 1.133-.118 3.145-.383M449.295 238.886l.389 4.336M439.804 239.154l-.47 2.267M431.167 239.73l.749-3.277M431.167 239.73l-.195.572M431.167 239.73l8.168 1.691M422.835 239.797l2.302.165M420.562 240.047l1.816-.162.457-.088M425.137 239.962l5.835.34M425.137 239.962l-.19 3.947M430.972 240.302l-1.084 4.051M439.335 241.421l10.349 1.801M439.335 241.421l-.91 3.722M449.684 243.222l.156 2.536M424.947 243.91l4.941.443M423.564 259.057l.782-7.872.601-7.276M429.888 244.353l-.72 3.787M429.888 244.353l8.536.79M456.72 244.696l.464 2.493M456.72 244.696l-6.88 1.062M438.424 245.143l-.61 3.76M449.84 245.758l-2.464.193-2.644-.083-6.308-.725M449.84 245.758l.584 2.704M457.184 247.19l1.548 4.854M457.184 247.19l-4.219.793M429.168 248.14l8.646.763M423.564 259.057l.983-1.608 2.667-4.335.88-1.71.448-1.094.626-2.17M450.424 248.462l2.541-.479M451.892 253.327l-1.394-4.521-.074-.344M441.859 249.294l-4.045-.39M458.732 252.044l2.88 8.746M458.732 252.044l-4.516.847M454.216 252.891l-2.324.436M454.216 252.891l-1.25-4.908M454.216 252.891l2.744 8.599M456.96 261.49l-.878-.077-.698-.06-.59-.194-.422-.323-2.48-7.509M419.982 260.147l1.013.183.602.01 1.191-.533.776-.75M461.612 260.79l-4.652.7M463.464 265.283l-.7-1.602-1.152-2.891M463.464 265.283l.788-.321M466.653 278.789l-.18-2.36-.807-4.708-.222-1.509-.626-1.564-.539-1.374-.815-1.991M467.26 269.7l-.75-.926-.94-1.416-.798-1.355-.52-1.041M467.26 269.7l.59.841.333.527.164.374.105.568-.024.925M469.544 271.53l-.675-.458-.778-.635-.831-.738M469.544 271.53l.437.255M469.544 271.53l-.448.377-.668 1.028M468.428 272.935l-.309.533-.38.644-.295.627-.212.578-.242.989-.057.567.01 1.197.05.527M469.407 272.87l.41-.61.164-.475M469.407 272.87l.74-.046.59.026.818.167.918.363 1.42.168" clip-path="url(#p258a2d54da)" style="fill:none;stroke:#000"/><path d="m467.445 276.466.203-.76.25-.626.3-.66.459-.676.52-.608.23-.266M463.372 280.127l-.408-2.25-.275-1.225-.243-1.068-.163-.795.01-.75.143-.992M473.894 273.548l1.812.692M469.981 271.785l.936.484 2.977 1.279M476.661 280.422l.36-1.258-.098-.629-2.21-2.05-1.044-.35-6.224.331M467.397 278.44l-.042-.512-.025-1.023.115-.439M467.397 278.44l-.403.157M467.397 278.44l.39 2.526M466.994 278.597l.32 2.414M466.994 278.597l-.341.192M465.022 280.512l.527-.686.304-.359.324-.299.476-.38M463.372 280.127l1.65.385" clip-path="url(#p258a2d54da)" style="fill:none;stroke:#000"/><path d="m464.012 282.934-.4-.611-.142-.269-.1-.318.002-1.61M478.933 281.777l-.699-.541-.793-.495-.78-.319M467.786 280.966l5.277-.501 2.12-.198 1.478.155M465.022 280.512l-1.01 2.422M467.786 280.966l-.473.045M467.486 284.57l.143-1.078.127-.942.007-.755.023-.83M478.933 281.777l1.537 1.127M478.933 281.777l-2.022 3.096" clip-path="url(#p258a2d54da)" style="fill:none;stroke:#000"/><path d="m463.438 286.748.188-.436.319-.984.111-.747.053-.689-.097-.958M474.47 283.877l1.13 11.504M476.911 284.873l-.898-.606-.892-.287-.65-.103M471.159 284.273l.882-.338.945-.158.958.024.527.076M469.495 284.763l.962-.236.702-.254" clip-path="url(#p258a2d54da)" style="fill:none;stroke:#000"/><path d="m467.703 306.33-.221-2.885.073-.911.264-.79 1.296-3.847 1.846-4.614.947-4.286.098-2.074-.438-1.7-.41-.95M469.495 284.763l-1.094.003-.915-.195M461.828 301.648l1.505-4.679.712-2.141 1.336-4.207 1.82-5.078.285-.972M476.911 284.873l2.405 1.864M464.536 306.553l.096-2.217.137-1.504.222-1.483.854-2.957.855-1.914.956-1.716.755-1.595.461-1.49.73-2.727.091-1.12-.092-1.163-.106-1.904M458.197 286.492l5.241.256M479.316 286.737l-1.676 9.18M479.875 296.639l2.453-4.706-2.259-4.008-.753-1.188M463.438 286.748l-1.457 4.387M456.208 290.348l5.773.787M461.98 291.135l-1.38 4.402M457.027 294.596l3.573.94M475.6 295.38l2.04.537M475.308 305.888l-.485-2.958v-1.818l.534-3.75.243-1.981M454.672 303.803l4.254-4.996.544-.759.391-.646.739-1.865M477.64 295.917l2.235.722" clip-path="url(#p258a2d54da)" style="fill:none;stroke:#000"/><path d="m475.308 305.888 2.527-5.452 2.04-3.797M449.588 299.475l5.084 4.328M461.25 301.714l.578-.066M461.25 301.714l-.924 3.183-.162.716-.124.586.005.775M456.113 305.227l2.428-2.156.95-.679.918-.466.84-.212M460.555 306.837l-.02-.422.04-.322.078-.364.279-.988.896-3.093M454.672 303.803l1.441 1.424M483.275 304.235l-7.65 3.936M450.525 304.28l2.902 3.162M456.113 305.227l-2.686 2.215M475.308 305.888l.317 2.283M467.703 306.33l-3.167.223M470.014 315.81l-1.794-5.125-.221-.972-.074-.843-.222-2.54M464.536 306.553l-3.98.284M467.328 316.808l-.59-1.697-.319-.835-.911-2.63-.687-2.43-.19-1.123-.052-.861-.043-.679M460.555 306.837l-.51.137M460.555 306.837l.535 3.048M460.045 306.974l.628 3.108M453.392 311.146l4.352-2.963 1.14-.652 1.161-.557M453.427 307.442l-1.47 1.284M476.037 318.68l1.142-.932 3.06-1.165.51-.373.17-.77-1.117-1.373-2.356-2.144-.971-1.561-.85-2.19M444.484 308.458l3.386 3.67M451.957 308.726l1.435 2.42M451.957 308.726l-.94.827M451.016 309.553l-.814.723M450.202 310.276l-.21-.187-2.898-3.12-.048-.162.048-.239.52-.445.208-.04.169.056 3.025 3.414M461.09 309.885l-.417.197M461.09 309.885l.923 4.145M460.673 310.082l.82 4.136M460.673 310.082l-5.484 3.762M450.202 310.276l-2.332 1.853M452.308 315.787l-1.603-4.15-.503-1.36M453.392 311.146l1.797 2.698M446.851 316.822l-.66-1.136-.285-.81.042-.607.402-.689.453-.587 1.067-.864M455.19 313.844l-2.882 1.943M462.013 314.03l-.52.188M462.013 314.03l.924 4.256M461.493 314.218l-8.403 3.38M440.544 314.826l-1.375 3.277M445.562 317.76l-.712-.65-.749-.563-1.166-.638-2.39-1.083M436.404 318.581l2.652-4.084.158-.112.201-.03.264.076.865.395M470.014 315.81l-2.686.998M470.014 315.81l1.342 3.43M452.308 315.787l.782 1.81M452.308 315.787 449.485 318M467.328 316.808l1.418 3.493M467.328 316.808l-4.39 1.478" clip-path="url(#p258a2d54da)" style="fill:none;stroke:#000"/><path d="m445.562 317.76.722-.822.274-.1.293-.016M449.485 317.999l-2.35-1.108-.284-.069M427.234 317.47l2.28-.812 2.259.79 1.54.345 3.091.788M443.785 320.127l-3.294 1.351-4.087-2.897M453.09 317.597l1.646 3.933M445.562 317.76l-.705.8M462.937 318.286l1.752 3.724M449.485 317.999l.603.352M450.088 318.351l-3.652 2.632M452.302 322.503l-.855-2.306-.454-.896-.506-.647-.399-.303M476.037 318.68l-3.322 3.964M471.208 342.195l.95-2.653 1.54-2.47 1.373-1.706.548-1.57.047-.816-.089-1.234-.166-.756.103-.56.274-.436.443-.436.592-.688.417-.806.216-.612-.148-.951-.591-2.147-.737-2.144-.276-1.704.333-1.826M444.857 318.56l1.58 2.423M443.785 320.127l.09-.37.163-.289.819-.908M471.356 319.24l1.359 3.404M471.356 319.24l-2.61 1.06M468.746 320.3l-4.057 1.71M446.436 320.983l2.791 4.149M446.436 320.983l-1.586 1.736M454.736 321.53l-2.434.973M464.69 322.01l-.516.22M452.302 322.503l.596 1.199M444.85 322.719l-1.256.866M444.85 322.719l1.732 3.422M443.594 323.585l.19-3.458M424.09 353.86l.272-1.165.138-1.59.01-.992-.095-.699-.274-1.761-.263-1.357-.18-.699-.338-.8-.37-.82-.886-1.438-.433-1.316-.063-.425.148-.415.263-.395.697-.861.433-.598.359-.9.401-1.348.412-1.61.285-1.635.01-1.675.074-.931.087-.477.116-.362.27-.4.305-.222.375-.054.346.059.424.103 1.982.542.961.04 1.984-.313 1.013-.06 1.067.03 2.311.04 1.046-.112.833-.283.612-.385.507-.516.628-.661 2.953-2.735.648-.63.436-.45M452.898 323.702l-3.67 1.43M456.326 328.837l-2.876-4.234-.552-.901M449.227 325.132l-2.645 1.009M452.389 330.226l-1.875-2.95-1.287-2.144M456.326 328.837l-3.937 1.389M456.326 328.837l.744 1.245M468.165 330.652l-6.739 4.696M463.98 339.036l3.43-1.02 2.257-1.45.548-.608.17-.466-.378-1.169-1.842-3.671M454.021 332.608l-2.636 1.765M456.63 336.371l-1.129-1.456-1.48-2.307M454.467 338.347l-.94-.89-2.142-3.084M461.426 335.348l-3.266 2.284M463.98 339.036l-.24-.524-.325-.589-1.989-2.575M456.63 336.371l-2.163 1.976M458.16 337.632l-.83-.61-.7-.65M458.16 337.632l4.632 3.358M462.878 344.54l-1.948-1.112-1.919-1.677-1.4-1.064-1.798-1.271-1.346-1.069M463.98 339.036l.143.88M464.123 339.916l-1.331 1.074M462.792 340.99l2.004 1.712M464.796 342.702l-1.918 1.837M464.796 342.702l1.076.92M465.872 343.622l1.378 2.024M462.878 344.54l.914.52 1.14.664.433.116h.602l.522-.091.761-.103M469.164 347.502l-1.153-1.023-.76-.833M426.465 129.219l1.434-.85 1.615-.745 1.878-1.003 1.31-.556 1.171-.355.665-.152M366.309 128.758l1.313-.323 1.51-.269 1.335-.197 1.631-.233 1.415-.294 2.02-.588 1.821-.566 1.088-.492 1.266-.673 1.21-.724.901-.608.998-.567.876-.344 1.31-.365 1.593-.4 1.134-.207.745-.086.728.03.86.162.655.278.601.38.961.942 1.277 1.24.913.836.729.496 1.055.385 1.26.258 1.49.279 2.153.699 1.177.49 1.023.552 1.188.704.855.43.538.325.618.476.585.5 1.046.644 2.306 1.397.813.487.454.187.58.076.702-.01.697-.097 1.277-.207 1.145-.111 1.299-.066 1.826-.309 1.071-.228 1.155-.537 1.14-.653 1.86-1.234 1.953-1.404" clip-path="url(#p258a2d54da)" style="fill:none;stroke:#000"/><path d="m413.47 124.363.438.608.396.41.628.243.79.309 2.181.617 1.525.472 2.328.612 2.422.639 1.25.303.418.172.353.218.266.253M341.677 137.9l.624-.477.79-.848.444-.571.444-.385.394-.21.47-.152.344-.063.533.03.792-.005.713-.156 1.26-.406 1.151-.385.818-.218.934-.116 1.067-.08 1.646-.36 1.404-.43 1.183-.365 1.097-.65 1.06-.647.798-.212.718-.097.765-.045.67-.132 1.003-.293.997-.42.84-.45 1.673-.999M345.026 126.38l.53-.012 1.302.241 2.098.192.784.115.69.19 1.952.09 2.75.165 2.987.37 3.267.37 4.104.496.819.161M342.542 127.692l.837-.445 1.647-.867" clip-path="url(#p258a2d54da)" style="fill:none;stroke:#000"/><path d="m282.319 258.7-.095-.7-1.393-3.351-.802-.88-3.335-2.806-.697-.668-1.267-5.336-.348-1.803-.222-.476-.707-1.215-.908-1.245-.57-.972-1.963-3.767-.696-1.134-.57-.69-.771-.586-3.515-2.087-2.259-1.124-.992-.192-1.773-.567-3.958-.901-1.753-.7-1.013-.475-.866-.72-2.3-1.498-.993-.414-2.206-.679-1.077-.76-1.34-1.215-.644-.79-.549-.951-1.52-3.747-.802-2.238-2.365-5.529-.495-.425-1.88-1.155-.358-.941.02-.547.16-.76 1.034-3.321-.581-3.899-.18-.536-.665-1.023-1.931-2.228-.295-.537-.803-4.435-.412-1.833-.02-1.904.22-2.48-.105-.558-.274-.485-1.404-1.833-.337-1.023-.665-2.552-.634-1.792-.833-1.57-.698-1.043-2.205-2.45-.359-.598-2.734-7.625-.422-2.664-.265-.87-.643-1.732-.887-1.874-.834-2.39-1.276-2.207-3.379-6.582-1.583-3.504-4.813-9.62.295-.243 1.447-.375 1.013-.122 4.053-.162.77-.09 4.37-1.125 1.69-.648.559-.395.939-.8 1.32-1.367 2.364-1.965 5.267-3.098.591-.447 2.47-1.417.76-4.051 7.262-4.05 1.851.422 1.78 2.25h3.631l4.053-6.399 7.01-5.833 1.435-2.511 5.91 1.053 1.606 3.969 5.741 1.377 5.827 3.403 6.164 6.481 1.351 5.185 12.667 5.671 12.666-3.483 6.164-.406 1.69 3.727 5.657-3.321 3.546-.406 5.49 2.27 5.741-1.378 2.362 5.176M338.822 139.71l.352-.207 1.54-1.025.963-.577M338.85 142.185l.278-.599.716-.532.683-.554.474-.444.381-.776.266-.855.029-.524" clip-path="url(#p258a2d54da)" style="fill:none;stroke:#000"/><path d="m338.822 139.71-.18.106-.743.305-1.308.95-.843.662-.71.465-1.329.707-.85.611-.703.707-.313.364M330.983 132.286l1.866 1.7.976.676.823.873 1.607 1.643 1.674 1.63.893.902M545.033 558.345l.02 1.306.264 1.68.422 1.62.528 1.418.812 1.52 2.227 3.158 2.871 3.866 3.906 4.951 2.755 3.139 3.145 3.209 4.233 4.15 3.852 3.797 1.404 1.58 1.014 1.315.738 1.327.866 2.025.612 1.943.317 2.754.116 3.664-.074 6.449-.158 5.244-.085 2.926.106 1.802.39 1.68.57 1.418.74 1.052.791.871.93.698 1.287.588M582.846 630.138l-1.905-.258-1.31-.385M582.846 630.138l1.895-.714 1.646-.608 1.921-.89 1.372-.79 1.879-1.478 2.301-1.964 2.006-1.822.95-1.195 1.182-2.086 2.955-5.547 4.476-8.16 1.942-3.746.993-2.854.76-1.701 1.456-2.814.423-1.155.527-2.146.633-1.984 1.372-4.07 1.056-2.996 1.794-4.252 2.323-5.75.253-.598.19-.233.29-.156.734-.127.865-.087.391-.09.3-.177.512-.43.566-.796" clip-path="url(#p258a2d54da)" style="fill:none;stroke:#000"/><path d="m497.743 558.64 1.88-.568 1.54-.952.57-.587.464-.404.909-.466.696-.669 1.034-1.265.444-.435.475-.192.454-.041.359.08.316.112 1.056.82 1.52.86 2.037 1.064.865.334.613.172 2.248.517 3.663.84.306.121.19.132.106.141.126.456.317 2.268.422.89.454.527.58.648.475.304 1.15.557 1.236.435.56.071.421-.07 1.31-.75 1.973-1.226 1.014-.86.337-.152.328-.06.264.08.19.253.157.436.17.911.242.8.18.243.39.324.233.313.38.69.475.748 1.182 1.316.21.183.233.07.296-.09.39-.344.697-.82.813-.65.823-.606 1.436-1.336.812-.891.327-.385.275-.527.2-.556.286-.577.738-.73 1.383-1.072.58-.325.475-.12 1.005-.285M465.708 325.053l-2.533 1.023M432.007 235.958l-.091.495M295.746 333.184l2.386.506 2.353.972 1.468.982 1.214 1.6 2.374 3.513 1.056 1.701.538 1.104 1.098 2.815 1.119 1.873 1.14 1.59.97.982 2.09 1.923.297.608.062.547-.126.709-3.684 7.675.01.455.159.648.232.476 1.679 3.98.527.961.138.992-.275 2.066.17 1.185.411 1.984.084.8.613 1.62.295.547.76 1.093.538.537 1.33 1.164 3.42 3.514.549 1.194.074.618-.17 3.544.149.87.58 1.52.56.809 1.382 1.337.676.344 1.056.254 4.486 1.518.696-.1.813-.234 1.636-.8 2.702-1.69 1.784-1.246 2.069-.608 3.483-.86.718-.132.517-.243.591-.455.845-.507 1.847-.658 1.034-.172 5.552-.486 4.191-1.022 1.625.01 9.838 1.204 1.235.03.823-.243 1.014-.769.253-.465.221-1.287.655-.961.496-.558.549-.414.411-.527.55-1.245 1.941-3.3 1.342-2.532 2.047-2.41 4.148-3.726.845-.689 1.583-.637.728-.183.876-.091 3.59-.253 4.728-1.003 7.136-1.063 4.274-.131 2.143-.334 3.62-.83 4.465-1.276.993-.132M424.09 353.86l-.403 1.721-.486 1.924-.22.789-.307.85-.528 1.358-.433.87-.58.76-.497.597-.495.557M115.191 306.412l.35-.026.342.147 1.489.962 2.026.79 1.129.476.992.233 1.183.121 5.066.79 1.024.263.844.415 1.161.486 1.067.233 1.383.182h1.14l1.213-.07 1.246-.223 1.225-.385 4.126-1.407 1.489-.496.813-.102.95.122 1.52.365 1.583.556 1.572.78 1.003.708 1.541 1.419 2.523 2.217 1.868 1.62 2.006 1.448 1.393 1.093 1.394.911 1.91 1.003 2.28 1.063 1.034.617.94 1.034 2.65 2.733 1.34 1.874.854 1.103.73.588 1.234.76.929.587.77.313 1.52.456 4.37.81 2.534.465 2.533.73 1.773.384 1.731.122 2.07.02 1.646-.08 6.713-.71 5.89-.749 1.077-.202.928.162 1.583.223 1.732.02 10.703-.334 2.406-.152.718-.203.507-.213.337-.192.792-.658.929-1.013.349-.313.348-.072.643.133 2.323.728 1.477.496 1.024.173h1.647l1.5-.061 1.93.162 2.027-.091 4.971-.689.866-.263.644-.426 2.132-1.842.697-.446.823-.222.94-.092 1.066.05 1.9.568 2.702 1.012.96.244 2.09.911.54.213.315-.04.201-.133.19-.223.781-.982 1.415-1.113.57-.223.517-.04.464.11.098.063.958.606 1.54.972.771.607.56.355 1.203.243 1.119.233 1.858.263 3.356.405 1.615.213 1.045.222.686.092.865-.05 1.024-.042.983-.05 1.35.02 2.28.263 1.943.335.95.172 1.498.1.781-.04 1.12-.01 1.076.082M290.576 290.184l1.803 1.363 1.245 1.074.876.911 2.28 2.055 1.172.75.834.82 1.435 1.772.423.76.464 1.933.317 1.124.644 1.52.411 1.063.137.84.053.87-.106 1.064-.168 1.266-.37 1.75-.506 2.3-.686 2.096-.634 2.146-.685 2.217-1.057 3.078-.728 2.046-.854 2.45-.35 1.063-.294 1.52-.402 1.944-.084 1.205M416.32 259.53l3.662.617M416.32 259.53l.443-19.28M378.373 290.94l1.235-4.395 1.33-5.215.897-2.895.064-.587-.106-.78-.359-1.773-.243-1.498-.031-1.134.263-1.914.296-1.307.348-.991.961-1.403.607-.562.544-.222.897-.097 2.74.045 3.097.193 1.298.04 1.309-.197 1.187-.33 1.352-.222 1.081-.288 1.732-.643 1.635-.669.998-.304.866-.475.538-.354 1.076-1.286.698-1.205.865-1.039.565-.318 1.076-.456 1.32-.183 1.382.112 6.428.941M419.982 260.147l.58-20.1M424.09 353.86l1.19 1.295 1.848 1.722 4.054 4.08.717.628.623.324.612.04 3.315-.617 1.35-.193 1.795.01 1.678.213 3.843.416 2.29.273 1.541.283 1.795.668 1.71.82 1.583.77 1.404.496 1.023.264.919.162.707.323.792.598.427.46.227.446.153.582.48 1.935.412 1.012.39.718.508.77 1.456 1.843 1.53 1.812 1.69 2.015.632.82.339.82.611 1.63.476.861.517.658.59.658.56.345.507.142.707-.081 1.299-.335 1.646-.718 1.256-.669.739-.182.739-.243 1.203-.891 1.256-1.346M301.488 287.214l-.063-.497-.211-.334-.687-.425-1.182-.588-.528-.485-2.396-2.906-1.192-1.246-.507-.506-.316-.497-.306-.668-.581-1.377-.254-.84-.263-1.326-.36-1.53-.348-1.246-.338-1.488-.232-.648-.369-.526-1.12-1.469-.97-1.295-2.006-2.31-.992-1.164-.56-.72-.327-.474-.327-.568-.285-.627-.306-.568-2.143-2.187" clip-path="url(#p258a2d54da)" style="fill:none;stroke:#000"/><path d="m290.576 290.184-3.813-1.371-1.524.058-1.254-.04-1.26-1.126-.644-.968-1.314-1.974-.675-2.592 1.014-4.212 1.182-2.43 1.013-3.565.76-3.727-.169-2.106-1.573-7.432M404.508 175.969l-.106-.891-.074-3.353-.369-6.328-.263-.223-.339.01-.39.232-2.597 2.087-1.192.739-2.534.932-2.1.223-7.167.333-1.943.254-7.42 1.255-2.385.67-1.256.485-1.932 1.124-1.731.405-.707.476-2.998 2.785-2.734 2.886-1.245 1.073-1.953 1.458-1.055.932-3.42 3.423-1.858 1.205-4.57 2.43-.602.455-2.249 2.168-.929 1.174-1.393 1.094-1.805.88-.791.527-.845.872-.95 1.255-.707.668-1.224.628-3.695 2.735-1.182 1.235-.718.557-1.172.668-1.656 1.367-.539.628-2.122 3.301-.643.658-3.367 2.856-1.225.992-2.132 3.271-1.214 1.61-1.172 1.144-.95 1.205-.718.527-.897.445-.707.507-.823.729-1.594 1.71-.538.922-1.056 2.562-.2.83-.053.74.2 4.84.37 1.428.992 2.025.422.354.687.345 2.764 1.043 1.225.79 3.536 2.704 1.795 2.277 1.13 1.894 1.245 2.755 2.227 3.959.696.9.613 1.399.041.749-.136 1.347-.307 1.75-.95 3.272-.074.83.338 3.474.148 2.764 1.15 9.356-.042 1.448-.127.658-1.192 3.96-.454 4.414-.2.911-.57.891-.338.244-.74.232-.864.08-1.795.042-4.422.404-2.333-.718-1.161-.84-4.93-2.45-1.023-.315-.93-.466-3.42-1.62-1.488-1.002-.897-.425" clip-path="url(#p258a2d54da)" style="fill:none;stroke:#000"/><path d="m290.576 290.184-1.152-1.27-.307-.455-.179-.476.01-.517.264-.374.644-.213.665-.04 1.32.263.981.152 1.604-.01.887.06.644.162.876.355.866.182 1.235.112.918-.02.409-.151.583-.214.486-.243.158-.273M408.167 239.426l4.641.094M408.167 239.426l-3.353-.067M408.167 239.426l-.187 7.345M408.167 239.426l.194-7.667M412.808 239.52l-.394 6.806M416.763 240.25l-1.9-.69-2.055-.04M408.36 231.76l4.899-.016-.45 7.776M408.36 231.76l-7.81.025M416.763 240.25l3.8-.203M471.208 342.195l-2.044 5.307M491.226 339.541l-1.19 1.252-.22.567v1.085l.069 1.07.033.906-.22.519-.573.567-.912.697-1.385 1.409-.558.389-.827-.081-1.334-.503-1.74-.728-1.638-1.021-1.824-.907-1.385-.6-1.182-.372-1.47-.308-1.52-.356-1.046-.373-1.096-.558M476.476 273.793l1.951-1.13 2.875-1.591 4.24-2.476 2.764-1.767 1.622-.955 2.801-1.414 2.875-1.697 2.617-1.804 2.065-1.308.59-.46.294-.637.258-.919.369-1.344.736-2.51.333-.884.516-1.026.515-.919.922-.92 1.695-1.802 1.586-1.98.884-1.345.554-1.308.884-3.006 2.432-7.78 2.249-6.576 2.323-5.623 1.068-1.945.664-1.803.515-1.343 1.844-4.35.992-2.352M475.706 274.24l.77-.447M463.175 326.076l.577 1.148M476.476 273.793l-4.217-2.344-1.247-.797-.378-.725-.038-.906.113-1.27.34-1.848.606-1.994.415-1.667.302-1.27" clip-path="url(#p258a2d54da)" style="fill:none;stroke:#000"/></g><g id="PatchCollection_1"><path d="m257.35 239.505.125 1.97.56 1.494.872 1.672 1.244 1.433 2.179 1.015h2.8l2.117-1.195 1.432-2.269-.124-2.209-1.245-2.448-2.117-1.91-1.12-.3-2.365-.119-1.868-.06-1.37.896-.808.776zM243.283 249.06l4.295-.06.685-1.851.933-2.09 1.557-1.553.56-2.03-.25-1.374-2.364-.716-1.93-.777-2.179-.536-2.303-.777-1.245-.836.436 2.15.747 2.328-.062 1.971-.623 3.643.187 1.731z" clip-path="url(#p258a2d54da)" style="fill:#00f;fill-opacity:.8"/></g><g id="PatchCollection_2"><path d="m438.711 236.85.373-.484.546-.296.625-.058.594.19.463.407.25.551-.005.602-.26.548-.47.4-.597.18-.624-.067-.54-.306-.365-.49-.125-.59zM463.15 341.01l1.658 1.246-.792-1.934zM469.2 276.811l-.619 3.751-.704-.092-.118-1.646-.072-1.263.02-.746zM463.586 280.647l.873.289-.36.956-.37.077-.114-.211-.056-.407zM468.082 275.958l1.677.023.898-2.711-.656.042-.614.226-.517.39-.374.519zM458.023 328.458l.33.76 4.696-1.874-.33-.76z" clip-path="url(#p258a2d54da)" style="fill:green;fill-opacity:.8"/></g><path id="PatchCollection_3" d="m450.147 239.537.177 1.862 2.67-.233-.178-1.863z" clip-path="url(#p258a2d54da)" style="fill:#90ee90;fill-opacity:.8"/><g id="PatchCollection_4"><path d="m166.27 215.335-.66.147-.148-.606.66-.147zM441.257 240.5l-.765-.085.091-.754.764.085zM460.842 285.963l-.622.027-.045-.931.622-.028zM345.328 8.987l-.336.131-.132-.31.336-.131z" clip-path="url(#p258a2d54da)" style="fill:#a9a9a9;fill-opacity:.8"/></g></g></g><defs><clipPath id="p258a2d54da"><path d="M105.039 86.4h527.922v554.4H105.039z"/></clipPath></defs></svg>