<svg xmlns="http://www.w3.org/2000/svg" width="960" height="960" viewBox="0 0 720 720"><defs><style>*{stroke-linejoin:round;stroke-linecap:butt}</style></defs><g id="figure_1"><path id="patch_1" d="M0 720h720V0H0z" style="fill:#fff"/><g id="axes_1"><path id="patch_2" d="M90 639.767h558V87.433H90z" style="fill:#fff"/><g id="LineCollection_1"><path d="m391.859 364.399.233.513M391.859 364.399l-1.41-.233M391.859 364.399l1.967.44M483.91 509.485l15.06 10.488 20.726 15.222 1.361 1.411.752 1.438.563 2.226 2.072 8.836M587.868 590.672l-4.017-1.057-18.135-2.743-3.197-.792-3.1-1.724-14.235-10.374-9.305-6.82-4.123-3.134-2.692-2.6-1.736-2.298-1.56-3.341-1.324-6.683" clip-path="url(#paf92eb8d5a)" style="fill:none;stroke:#000"/><path d="m634.186 502.55-6.265.799-4.025 2.583-5.194 6.395-8.049 4.92-5.713 2.951-6.102-3.198-4.934 1.23-7.79-4.058-14.022 3.936-2.337 3.074-4.025 12.422-2.078 3.444-7.955 1.121-1.769 1.5-1.35.484-1.861 1.103-2.56 1.234-2.607 1.234-2.978-.308-1.779-.957-.706-.4-.681-.192-.528-.042-.633.096-1.672.377-.844.192-.535.054-.73-.015-1.047-.066-1.144-.011-.919.038-.745.123-.438.192-.446.323-.568.577-.836.822-.9.853-1.08 1.184-1.263 1.736-.634.806M599.86 599.312l-4.056-3.532-5.538-4.201-2.398-.907" clip-path="url(#paf92eb8d5a)" style="fill:none;stroke:#000"/><path d="m599.17 588.738-2.002.97-3.165.926-3.49.44-2.645-.402M330.539 386.806l.194.425M330.539 386.806l1.08-.038M330.539 386.806l-.63-.413-3.424-1.656-1.065-.444-1.007-.317-1.99-.154-.763.07" clip-path="url(#paf92eb8d5a)" style="fill:none;stroke:#000"/><path d="m322.242 384.056 1.794.148 1.352.406 1.287.604 1.612.75 1.118.555.897.358.237-.071M315.335 379.102l-1.57-3.168M315.335 379.102l.394.742M315.335 379.102l-.737.362M305.332 392.485l-1.775 2.102M305.332 392.485l4.002.701M306.767 387.103l-.97 3.956-.465 1.426M284.188 417.114l.401-1.912.887-4.223.13-.621M287.018 406.683l-.523 1.01-.543 1.39-.345 1.275M293.511 407.006l-2.654 4.223-5.25-.871M284.188 417.114l-1.123 3.322M284.278 419.852l.068-1.246-.158-1.492M275.613 432.114l1.394.913M269.576 440.107l1.542-2.086 4.495-5.907M283.065 420.436l-.793 1.433-2.545 4.262-4.114 5.983M268.739 441.319l.837-1.212M268.739 441.319l-.877 1.2M270.06 441.962l-.508-.548-.813-.095M230.167 424.708l1.582.67 4.747 1.659 2.402.054 5.086 1.044 2.063.723 1.356 1.258 1.215.695 2.487.59 2.967.508 1.413.75 4.21 3.024 7.93 5.061 1.114.575M257.618 479.473l.553-1.73-.4-1.571-.681-2.81M239.929 502.173l12.578-13.393 1.23-1.39 1.013-1.448.492-1.273.339-1.65.846-5.484.663-4.173M266.206 444.432l-.777 1.072-.673 1.27-.74 2.243-.323 1.537-.169 1.635-.047 1.393.211 3.24.45 4.803-.09 1.366-.168 1.217-.912 1.787-3.06 2.594-1.72 1.74-.844 1.423-.254 1.61M227.315 519.947l-.869 4.218M134.919 510.012l1.23-.723.492-.792.172-.56.861.024 1.132.093 1.598.396.468-.186 1.033-.63 1.525-1.281 1.993-.792 2.632-.816h1.82l2.51.676 1.402-.233 2.509-.676 3.1-.303 3.615.07 2.165-.046 1.28-.233 2.583-.676 5.387-1.095 2.214-.49 1.795-.373 1.82-.046 1.353.14 4.182 2.33 1.895.722 2.509.885 1.845.07 3.345-.21h1.599l3.837.444 1.969.14 1.623-.07 1.058.116 2.263 1.002 2.435.816 2.263.14 2.362.023 2.263.07 4.01.675 1.5.7 2.14 1.77.738 1.515.38 2.236.028 3.051.424 1.178 1.039.884M238.282 503.882l-5.336 5.538-3.333 3.76-.726 1.193-.578 1.334-.994 4.24M125.652 597.236l-2.1-.501M163.747 601.827l-3.925-.448-7.41-1.12-6.542-.747-7.251-.858-7.646-.896-5.32-.522M117.681 605.322l2.214-1.678 3.149-2.945 1.665-2.54.943-.923M169.155 602.486l3.081.386 6.228.747 6.148.97M221.251 614.929l-3.06.225-1.705-.08-1.803-.406-6.661-2.986-7.843-2.986-6.936-2.203-8.631-1.903M193.419 610.899l-.123-1.935-.246-.162-1.058-.233-1.107-.047-.59-.233-3.887-2.284-.418-.559-1.378-.856M333.41 374.866l1.137-1.019.779-.338 1.285-.738 1.21-1.467.134-.41-.195-.368-.39-.37-.064-.399.195-.339 1.298-.399 1.688-.277 1.525-.277.909-.307.747-.369.584-.093.584.185.39.338.064.707-.093.482-.069.35.065.368.39.277 2.462.784.34.6-.765 1.906" clip-path="url(#paf92eb8d5a)" style="fill:none;stroke:#000"/><path d="m343.504 372.426.536-.04 1.65.451 1.93.856M363.17 365.785l-.288.477-2.692 7.066-.714 1.528-.523.602-.637.334-.85.345-.905.144-.943.014-.928-.139-1.59-.52-5.48-1.943M342.58 344.246l-1.762-.638-.77-.368-.68-.667M345.191 336.736l-1.274.524-1.547 1.004-1.315 1.074-1.687 3.235" clip-path="url(#paf92eb8d5a)" style="fill:none;stroke:#000"/><path d="m335.423 342.175 2.15.5 1.083.17.712-.272M290.763 402.203l-1.277 1.423M294.979 397.706l-.417.788-.81.92-1.057.999-1.932 1.79M290.763 402.203l.791.109M327.196 341.431l2.912.974M327.196 341.431l-2.527-.138M335.423 342.175l-3.683-1.057-1.752-.107-2.792.42M239.929 502.173l-1.647 1.709M213.111 500.216h2.163l5.12.615 3.027.478 3.75-.205 6.344-.41 1.803.137 4.61 1.342M307.428 384.327l-.66 2.776M307.428 384.327l.501-.853.667-.58M307.428 384.327l.362-1.694M311.637 371.477l-1.096 1.228M311.637 371.477l-.187-5.516M312.758 373.664l-.828-1.58-.293-.607M310.541 372.705l2.83 2.15M310.541 372.705l-.232-.191M310.541 372.705l-.579 1.39-.095.398-.115.481-.551 2.306M309.2 377.28l-1.41 5.353M309.2 377.28l4.566-1.346M313.766 375.934l-.09-.257-.137-.362-.169-.46M516.977 196.688l-4.22 3.199-2.077 3.26-1.688 1.784-13.763 2.952-7.92-1.045-2.726.923-7.66 5.904-6.363 5.905-4.544 4.06-8.374 3.507-9.997 6.274-4.025 6.274-2.597 1.784-1.428 4.12-3.181 1.293-5.843 1.722-5.193 3.137-3.376 1.477-4.61 2.705-3.2 3.241M393.893 282.342l.986-1.903 2.766-3.132 9.343-9.865 4.243-3.548 1.722-1.605.958-1.604.28-1.52M377.331 302.154l1.506-.518 5.828-1.05 1.862-.83 2.141-2.07 1.286-1.827.88-1.962 3.059-11.555M314.19 207.606l5.81-.2 1.152.093 1.282.415 4.48 1.63 4.982 2.122 3.44 1.4 1.559.507 1.574-.123 1.185-.246 3.798-1.845.941-.154 1.168.154 1.51.953 3.165 3.768 1.817 2.814 2.808 3.06 3.392 4.783.486.784.342 1.2.227.722.551.954 1.055 1.16.901.624.69.146.835-.015.39.007.317.115.227.27.21.645.033 1.13-1.29 2.938-1.274 4.42-.227 1.861.308 4.322.276 1.307.568.923.99.815 2.207 1.29 1.088.77 1.477 1.354 1.2 1.614 3.1 5.52 1.867 2.86 2.37 3.537.73.785 1.136.784.649.676 1.59 1.908.228.122.397.085 2.15-.07 3.016-.592.344-.068.811.123.617.384 3.583 4.333.32.385.268.326.584.938.147.669-.017 1.345.163 2.199M352.779 331.98l-3.47-.98M352.779 331.98l.176-.433M345.191 336.736l2.019-.095 1.381-.273 1.021-.577 1.152-1.178 2.015-2.634M342.92 334.684l.024.85.103.312.07.213.221.245.615.21 1.238.222M313.624 335.147l1.82-3.113.884-1.596M307.374 345.44l3.244-5.371M307.374 345.44l-1.085 1.736M305.618 346.785l.817-1.446.198-.13.209-.018.532.248M305.618 346.785l-2.273 3.777M305.618 346.785l.671.39M306.29 347.176l2.389 1.356M324.026 348.122l-7.327 7.34M322.864 342.943l-.631.31-.7.657-.265.699.035.752.221.445 2.502 2.316M326.66 347.105l-1.115.322-.74.281-.779.414M308.679 348.532l-3.938 9.377M308.679 348.532l2.91.638M314.45 349.781l-.31-.063M318.426 345.151l-1.684 2.298-1.05 1.16-1.242 1.172M311.283 353.051l.305-.429 2.862-2.84M304.741 357.91l-4.056-.623M304.741 357.91l-2.73 6.676M311.022 358.758l-4.108-.515-.514-.07-1.659-.264M311.022 358.758l.428 7.203M311.283 353.051l-.19.376-.13.524-.05.8.109 4.007M300.043 363.912l-.34 3.102M300.043 363.912l.642-6.625M302.011 364.586l-.78-.307-.642-.223-.546-.144M305.22 366.17l-.434-.229-.48-.257-2.295-1.098M315.698 365.746l-4.248.215M315.698 365.746l-.293-5.81M312.758 373.664l2.699-2.115.305-.394.162-.511-.226-4.898M311.45 365.961l-6.23.209M310.309 372.514l-4.44-5.536-.649-.808M299.703 367.014l.259 1.048M299.703 367.014l-.387.995M295.713 369.85l-1.48.158M299.316 368.01l-3.514.118-.09 1.721M298.017 369.993l-1.444-.144h-.86M298.017 369.993l-.805 1.989M298.017 369.993l.837.094M286.57 372.875l2.147-.394 1.696-.276 1.095-.366 1.62-.798.572-.377.532-.656M287.656 372.066l.972-.233 2.484-.692 2.612-1.023.508-.11M298.854 370.087l.99.191M298.854 370.087l.462-2.078M299.845 370.278l4.482.908M299.845 370.278l-.55 2.228M299.962 368.062l.017 1.07-.134 1.146M301.085 378.374l1.55-2.99.937-1.748.374-.968.381-1.482M310.309 372.514l-3.338-.683-.44-.105-2.204-.54M297.212 371.982l-1.556 4.826M297.212 371.982l2.083.524M292.671 374.03l1.37-1.451.535-.308.455-.092 2.18-.197M297.784 377.499l.53-1.794.981-3.2M312.758 373.664l.612 1.191M292.671 374.03l-1.446 3.622M288.198 384.94l-.08-.765-.029-.771.064-.95.128-.927.27-1.432.521-2.099.336-.565 3.263-3.401M295.656 376.808l-.34 1.059M295.656 376.808l2.128.69M297.784 377.499l3.301.875M297.784 377.499l-.326 1.021M291.225 377.652l3.863.92M288.198 384.94l.804-1.467 2.223-5.82M298.472 397.75l-.21-1.565-.073-1.663-.105-1.144-.242-.676-.617-1.147-.275-1.16.01-1.714.118-1.13.9-3.044.215-1.334.281-.773.337-.482 1.06-1.26 1.214-2.284M304.892 380.617l-.247-.181-.387-.28-.634-.43-1.338-.774-1.2-.578M295.088 378.573l.227-.706M293.003 385.875l.363-1.78.355-1.232 1.367-4.29M304.892 380.617l2.898 2.016" clip-path="url(#paf92eb8d5a)" style="fill:none;stroke:#000"/><path d="m303.557 394.587-1.22-4.16-.727-5.696.219-.762.397-.647 2.666-2.705M312.233 380.74l-.624 2.711M312.233 380.74l.854-.53.774-.384.737-.362M312.233 380.74l-3.285 1.945M278.16 381.539l1.125-4.253M277.645 381.435l.12-.02.21.03.185.094M278.231 382.42l.114-.158.056-.193-.015-.2-.083-.183-.143-.147M307.79 382.633l.806.26M311.609 383.451l-.966 4.364M311.609 383.451l-2.66-.766M315.461 383.868l1.06 1.714M312.73 395.3l.915-6.826.26-2.312.087-.491.37-.78.477-.579.622-.444M316.92 383.577l-.594-.02-.865.311M321.108 383.853l.552.04M316.92 383.577l.978-.008 1.467.313 1.192.115.55-.144M315.73 379.844l.711.537 1.277 1.013.984.957.6.595.859.515.947.392M288.198 384.94l.003.231M283.384 386.556l.043-.132-.002-.217-.07-.207-.131-.178-.18-.134-.215-.078M282.097 385.825l.212-.152.255-.075.265.012M283.74 374.124l-.548.942-.025.442.865 2.012.183.498-.007.47-.665 3.523-.714 3.599M282.276 386.958l-.18-.136-.13-.18-.068-.209v-.219l.069-.209.13-.18" clip-path="url(#paf92eb8d5a)" style="fill:none;stroke:#000"/><path d="m278.231 382.42.773.745 3.093 2.66M282.276 386.958l-3.204 4.106M283.384 386.556l-.03.095-.148.192-.204.138-.24.069-.25-.008-.236-.084M288.256 387.314l-.055-2.143M288.256 387.314l.019.478M283.384 386.556l1.602.396 1.318.207 1.952.155M331.62 386.768l.585 1.725M343.504 372.426l-.918.066-1.155.636-.924 1.11-3.771 8.747-1.703 2.28-1.232.861-.864.401-1.317.24M288.275 387.792l2.97.596M288.275 387.792l.077 2.651M332.205 388.493l2.514 1.283M332.205 388.493l.118 7.65M330.733 387.231l.731.618.74.644M292.336 388.764l.489.124M292.336 388.764l-1.092-.376M292.86 395.118l-.087-1.674-.437-4.68M293.003 385.875l-.383 2.385-.284.504M319.216 389.096l1.18 1.802M319.216 389.096l-1.173-1.438M328.104 396.34l-.456-4.6-.362-.927-.51-.533-1.64-.832-1.753-.32-.781.168-.513-.12-.526-.141-.535-.133-.532-.02-1.28.214M288.352 390.443l-.623.508M288.352 390.443l2.892-2.055M336.29 390.613l-1.571-.837M336.29 390.613l1.087.658M332.722 404.484l1.028-3.203.596-1.836.858-4.487.298-1.836.788-2.509M342.732 376.771l-.556.879-.671 1.484-2.05 4.591-.56 1.732-2.605 5.156M320.396 390.898l.455 1.599" clip-path="url(#paf92eb8d5a)" style="fill:none;stroke:#000"/><path d="m323.728 391.84-.589-.309-.546-.189-1.757-.326-.44-.118M279.072 391.064l2.572 1.292M279.072 391.064l-2.19-2.436M309.334 393.186l1.252-5.16M309.334 393.186l-.34 1.465M285.687 392.74l2.042-1.789M285.687 392.74l-.92-1.115M285.687 392.74l.97 1.318M340.619 393.122l-.777-.398M334.122 412.384l1.082-.93.625-1.064 2.06-5.859.484-2.014.447-2.401.374-2.261.596-2.473.829-2.26" clip-path="url(#paf92eb8d5a)" style="fill:none;stroke:#000"/><path d="m343.103 385.863 1.199.3.26.353-.074 1.555-.336 1.342-.373 1.095-.932 1.06-2.228 1.554M286.657 394.058l-4.776 3.38M286.657 394.058l3.264.526M289.92 394.584l2.94.534M284.277 399.24l4.187-2.686.579-.507.878-1.463M303.557 394.587l-.492.5M306.631 394.6l-1.656 1.954M308.995 394.651l3.734.648M305.508 410.283l.254-.684 1.572-7.969 1.66-6.979M288.22 400.202l2.38-1.518 1.084-.995 1.002-1.343.162-.757.012-.47M303.065 395.088l1.91 1.466M298.472 397.75l3.494-1.812.499-.327.6-.523M319.12 397.01l-3.702-1.158-2.689-.553M330.445 396.331l.127-3.313M330.445 396.331l-2.34.01M328.6 410.246l.786-1.653.68-1.56.336-1.796.043-8.906M304.975 396.554l-4.514 10.466M298.472 397.75l-.992.612M297.48 398.362l.124 2.07M297.48 398.362l-.732.458M297.604 400.433l-4.093 6.573M293.511 407.006l.57.347 2.967-4.632.556-2.288M297.604 400.433l-1.733-1.013M326.516 401.352l2.308 4.649M326.516 401.352l-.634-.353M323.728 391.84l.402.292.688.735.444.616.3.722.954 7.147M323.794 410.89l1.268-2.155 1.044-3.074.56-2.12-.15-2.189M300.46 407.02l-2.417-.98M298.708 416.245l-.937-1.667-.115-.81.049-.926.473-1.467 2.283-4.355M328.824 406l.033.822M328.104 396.34l.257 5.984.463 3.677M293.511 407.006l-4.563-2.791" clip-path="url(#paf92eb8d5a)" style="fill:none;stroke:#000"/><path d="m330.355 409.856-.195.339-.335.2-.65.178-.576-.327M330.291 411.579l-1.32-.375-.444-.457.072-.501M328.857 406.822l.065 1.63-.278 1.09-.045.704M323.794 410.89l1.318 3.27M323.794 410.89l-2.088 2.613M305.508 410.283l-.484.341-2.804 1.725M300.163 418.652l1.501-1.145.277-.768-.558-2.107.246-.932.59-1.351" clip-path="url(#paf92eb8d5a)" style="fill:none;stroke:#000"/><path d="m306.71 412.004-3.3 1.85-.472-.366-.718-1.14M328.14 413.512l2.44.185 1.827-.3 1.715-1.013M330.291 411.579l1.365.388 2.466.417M321.706 413.503l.501 1.952M318.947 409.9l.671.918.97.813 1.118 1.872M328.14 413.512l-3.028.648M319.334 462.915l1.558 1.015 2.078.553h1.136l1.493-.553 2.467-1.015 1.363-.43 1.785-.277.91-.615 1.103-1.691 2.077-2.799 1.558-1.937 2.143-2.429 1.07-2.86.455-1.753-.162-1.66-.454-1.26-.455-1.907-1.136-1.937-1.233-2.46-1.7-1.554-4.176-2.65-1.939-1.977-.41-.389-.149-.6v-.778l.186-.741 1.306-2.402.186-.778-.112-.706-.718-1.114-.449-1.267-1.216-6.352.407-2.393-.167-1.687M328.857 406.822l-1.334 2.301-.41 1.024-.112.883.261.954.671.918.206.61M325.112 414.16l-2.905 1.295M325.584 418.872l-2.386-1.836-.99-1.581M298.708 416.245l1.455 2.407M292.32 424.404l-1.91-2.61-.015-.454.221-.543 8.092-4.552M300.163 418.652l1.535 2.357M292.32 424.404l1.429-1.707 1.33-.965 5.084-3.08M301.698 421.01l-.883.523M301.698 421.01l.938 1.484M304.385 420.07l-.614-.111-.475.054-1.598.996M292.32 424.404l2.551 1.423M292.32 424.404l-2.99 4.979M306.423 428.49l-3.787-5.996M306.423 428.49l-1.39.906M307.054 423.708l2.037 3.044-2.668 1.739M291.115 431.808l-.45-.9-.608-.87-.728-.655M279.595 429.507l2.375 1.452.504.097.574-.092.717-.217 1.63-1.29.682-.487.941-.2 1.111.121 1.2.492M401.64 367.543l3.68 2.42M399.712 363.481l1.318 1.888.552 1.166.057 1.008M406.073 395.892l.694-1.867 1.241-4.426 1.346-3.441.677-3.36-.42-4.214-1.32-3.177-1.387-2.992-4.578-3.91-.687-.962M393.826 364.84l4.145 1.073 3.668 1.63M284.278 419.852l-.44 1.273-.78 1.414-1.88 2.702-.604 1.38-.98 2.886M277.007 433.027l1.637-1.94.95-1.58M291.115 431.808l3.756-5.98M297.307 427.27l-3.991 6.216-1.429-.615-.551-.338-.221-.725M277.67 439.206l2.662-3.783-3.325-2.396M270.06 441.962l.535-1.342 6.412-7.593M298.769 428.136l-1.462-.866M297.307 427.27l-2.436-1.443M297.307 427.27l3.508-5.737M294.871 425.827l1.236-1.504 2.857-1.692 1.851-1.098M310.876 419.956l-1.622.029M304.385 420.07l4.869-.085M307.054 423.708l-.884-1.322-1.785-2.315M299.775 426.69l2.188-3.552.673-.644M307.054 423.708l1.875-1.507.26-.646.065-1.57M306.71 412.004l-1.202-1.721M311.63 404.138l-.554.505-.643.486-1.113.366-.399.324-1.484 5.736-.728.449M315.847 403.033l-2.522 2.536M324.781 401.518l-.342 1.583-.986 2.597-.342.649-.471.243-.729-.203-.385-.283-.9-.285-.728-.08-1.199.243-.6-.04-.47-.325-.429-.73-.513-1.137-.84-.717M311.63 404.138l.559-.51 1.242-.77.985-.163.814.081.617.257M324.781 401.518l.01-.593" clip-path="url(#paf92eb8d5a)" style="fill:none;stroke:#000"/><path d="m318.947 409.9.671-.389.634-.105h1.231l.97-.071.633-.283.708-.918.597-1.696.485-2.084-.095-2.836M266.485 402.15h3.787l10.624 3.533.725.129 1.055.13 1.586-.108 1.373.034 1.383.815" clip-path="url(#paf92eb8d5a)" style="fill:none;stroke:#000"/><path d="m288.948 404.215-.184.223-1.328 1.598-.418.647M311.63 404.138l1.695 1.43M324.792 400.925l.01-.562-.3-.671-.782-1.166-1.156-.918-.932-.46-.56-.035-1-.045-.952-.058M316.522 385.582l-.346.675-.435 2.944v1.66l.15 2.307.412.907 1.461 1.3 1.356 1.635M313.325 405.569l.402.34 2.536 1.377.745.672 1.94 1.942M330.355 409.856l.574-1.402 1.066-2.298.727-1.672" clip-path="url(#paf92eb8d5a)" style="fill:none;stroke:#000"/><path d="m332.323 396.143.017 2.04.014 4.684.368 1.617M325.882 400.999l-1.09-.074M325.882 400.999l-1.044-2.438M316.522 385.582l1.521 2.076M324.838 398.561l-1.006-1.66-1.092-.918-.624-.424-.466-.038-.49.015-.658.071-.625-.205-1.168-.718-1.114-.868-.447-.683-.238-1.471.062-1.123.114-.984.223-.963.418-.645.316-.289" clip-path="url(#paf92eb8d5a)" style="fill:none;stroke:#000"/><path d="m323.728 391.84-1.77 2.018 1.366 1.018.46.627 1.054 3.058M310.586 388.026l.057-.211M310.586 388.026l2.69.377M310.643 387.815l-3.876-.712M321.66 383.892l.582.164M330.733 387.231l.05 3.078-.21 2.709M322.242 384.056l-.017 1.807-.325.683.776.323.56-.318.446-.035.895.248 2.537 1.14 1.453 1.014 1.118 1.09.448 1.03.44 1.98M339.416 392.493l1.045-1.208 1.043-1.454 1.122-2.487.477-1.48M343.308 383.305l.09.457.035.91-.33 1.191M343.504 372.426l-.219.342M342.732 376.771l-.556-1.77v-.424l.336-.601.773-1.208" clip-path="url(#paf92eb8d5a)" style="fill:none;stroke:#000"/><path d="m345.993 383.595-.267-2.544-.269-1.529-.447-1.554-1.725-5.2M345.993 383.595l-.016.495.003 4.333M339.416 392.493l.426.23M339.416 392.493l-.98-.603M343.308 383.305l2.685.29M343.169 379.733l.285 1.698-.124.922-.022.952M338.436 391.89l1.28-1.595.633-1.165 1.715-4.698.636-.916.288-.151.32-.06M338.436 391.89l-1.06-.619M336.836 397.569l.464-2.737.145-1.04.991-1.902M336.836 397.569l1.09-.703.298-.565.447-1.378 1.17-2.2" clip-path="url(#paf92eb8d5a)" style="fill:none;stroke:#000"/><path d="m333.55 407.158.833-1.708.56-1.52.97-2.295.708-2.084.215-1.982M333.55 407.158l-.509 1.046-.783 1.484-.857 1.095-1.11.796" clip-path="url(#paf92eb8d5a)" style="fill:none;stroke:#000"/><path d="m330.355 409.856.561-.38.97-.565 1.665-1.753M343.169 379.733l.238-.812-.675-2.15M334.719 389.776l.783-1.211 1.337-2.972 1.347-2.67 1.2-3.917.68-.666 2.666-1.569M337.377 391.271l.884-1.117.447-.835.427-1.39 1.165-2.556 1.092-2.613.514-1.05 1.263-1.977M332.323 396.143l.927-.096.223-.18 1.05-5.337.196-.754M287.656 372.066l-1.085.809M281.383 372.817l1.42-.292 1.679-.277 3.174-.182M281.383 372.817l-1.105.168M279.285 377.286l.82-2.81.271-.66.367-.424.64-.575M229.058 359.563l.585-.03 1.46-.47.593-.084.746.192 6.508 2.345 3.636.968 3.562.735 2.158.511.577.077 1.55-.085 1.11.008M248.719 370.175l1.462-3.224 1.363-3.22M252.835 361.47l-.65 1.122-.641 1.138M280.278 372.985l-.607.051-.522-.012-1.151-.16-1.55-.4-2.393-.985-3.255-1.445-2.93-1.714-1.187-.546-1.36-.2-2.832-.046-1.006-.185-1.356-.484-6.507-2.783-1.08-.23-.998-.116M310.618 340.069l3.006-4.922M294.73 330.533l1.356 2.175.56.415.47.093.35-.073 1.245-.196.547.02.443.126.775.723.219.384.292 1.02.65 1.61.38.514.341.33 1.46.824.74.215.77.1 2.987-.077.454.154 1.849 1.179M303.345 350.562l-1.327 1.928-.665 1.316-.358 1.36-.31 2.121M314.14 349.718l-.864-.175-.507-.113-.122-.027-1.058-.233M314.178 344.227l-1.404 2.113-.557.933-.628 1.897M318.031 333.96l-1.06.368-3.347.819M323.825 329.155l-1.196-.533-.404.11-.777.93-1.764 2.596-.959 1.1-.694.602M324.67 341.293l-1.145-1.04-1.628-1.907-1.544-2.394-.552-.582-.108-.086-.399-.318-1.263-1.006M318.426 345.151l1.607-2.778.754-.723.844-.33 1.475-.113 1.563.086M375.734 308.785l.899-3.29.698-3.34M366.898 312.334l.717-.764 1.786-1.929 5.815-6.014 2.115-1.473M333.41 374.866l-.681.611-.584.83-.432 1.048-.42.71-.65.635-.803.436-1.282.36-2.678.286-3.57-.03-2.024-.772-.589-.212-.623-.432-2.248-2.146-.673-.401-.777-.322-1.26-.417-.746-.195M335.52 371.54l-.876.247-.39.307-.26.554-.161.86-.423 1.358M369.37 362.916l-.904-2.877M369.37 362.916l2.2-.218M363.17 365.785l.544-.898 1.42-1.156 1.572-.451 1.203-.165 1.461-.2M316.699 355.462l-.805 1.072-.428.873-.12.508-.02.816.079 1.205M319.196 372.225l-.324-.76-.122-.531-.113-2.453.008-3.752-.163-.992-.446-1.206-.203-.923.054-1-.045-.294-.321-.271-.401-.076-1.715-.031M316.699 355.462l.578-.078M317.277 355.384l-.278 1.673M324.235 355.324l-5.408-.015-1.55.075M316.178 350.954l.046-.508.155-.405.407-.937 1.64-3.953M341.073 353.052l-.347.113-1.017.642-3.645 3.91" clip-path="url(#paf92eb8d5a)" style="fill:none;stroke:#000"/><path d="m345.184 356.308-.248-.01h-1.47l-3.192.615-1.724.482-1.356.321h-1.13M330.199 356.435l2.071.688 1.607.432.93.08 1.257.081M352.685 347.814l-.357 1.063-.514 1.299-2.612 4.828-1.073 1.32M352.34 355.12l-.717.64-2.11.297-1.384.267M346.628 356.368l.88.036.621-.08M352.34 355.12l1.92.428M354.804 351.195l-.59.98-.721 1.16-1.154 1.784M353.404 345.981l.851.664 2.125 2.477" clip-path="url(#paf92eb8d5a)" style="fill:none;stroke:#000"/><path d="m359.722 347.493-.276.385-.353.388-.594.294-.932.161-.82.16-.367.241M354.804 351.195l1.096-1.457.48-.616M369.025 344.705l-.607-.013-2.955-.286-1.015-.075-.515.115-.659.34M359.722 347.493l1.11-.82 1.115-.87 1.327-1.018M361.704 338.152l.714 1.753.617 1.784.172 1.74.067 1.356M379.776 335.063l.037 1.163-.108.749-.335.68-1.882 2.245-1.455 1.379-2.289 1.78-.58.442-3.122 1.03-1.017.174" clip-path="url(#paf92eb8d5a)" style="fill:none;stroke:#000"/><path d="m368.503 327.129.344 1.406 1.329 2.144.664.512.59.187 1.427.023 1.156.163 1.058.583.566.722.582 1.631-.103 1.315-1.46 2.645-1.883 2.398-3.748 3.847M326.66 347.105l-.43-.82M329.368 346.697l-.407-.009-.771.032-1.53.385M328.18 342.617l1.188 4.08M330.108 342.405l-.685.239-.424.026-.82-.053M325.124 342.475l1.237.011 1.818.131M330.87 342.81l-.425-.252-.337-.153M322.864 342.943l3.366 3.341M325.124 342.475l-.546.047-.752.132-.962.289M326.23 346.285l-1.106-3.81M330.87 342.81l.135.476.087.555-.11.648-.416.772-.631.873-.567.563M330.199 356.435l-.33-.361-.274-.555-.217-.558-.154-.906-.13-1.395-.122-1.82-.022-1.385.134-.895.284-1.863" clip-path="url(#paf92eb8d5a)" style="fill:none;stroke:#000"/><path d="m333.474 349.434-.49.01-.933-.241-2.683-2.506M324.235 355.324l1.13.085 1.96.363 2.874.663M326.145 350.38l-.509.59-1.06 2.521-.296 1.147-.045.686M340.965 349.084l1.173.092 1.021.174 1.014.469.735.669.96 1.553.396.462.46.387" clip-path="url(#paf92eb8d5a)" style="fill:none;stroke:#000"/><path d="m342.58 344.246 1.042.452.523.375.706 1.025.628 1.241.44 1.06.402 1.473.339 1.928.063 1.09M350.552 344.564l-.586 2.845-.34.777-1.017 1.793-1.229 2.296-.24.328-.417.287M346.628 356.368l.116-1.623-.02-1.855M342.58 344.246l-.61-.907-.062-.341 1.283-1.814.657-.017 6.704 3.397" clip-path="url(#paf92eb8d5a)" style="fill:none;stroke:#000"/><path d="m353.404 345.981-.605-.472-2.247-.945M352.115 342.976l-.422.24-.606.66-.535.688M345.184 356.308l1.444.06M341.073 353.052l.472-.155.565.027.537.24 2.537 3.144M333.474 349.434l.385-.017.596-.312 1.156-.866.622-.268.565-.053 1.3.375 1.017.535.622.16 1.228.096" clip-path="url(#paf92eb8d5a)" style="fill:none;stroke:#000"/><path d="m341.073 353.052-.234-1.306.126-2.662M333.297 348.747l.466-1.99.32-1.64.445-1.433.895-1.51M333.297 348.747l.177.687M330.87 342.81l.729.476.819.803.461.64.146.675.171 2.316.1 1.027M352.685 347.814l.243-.722.476-1.11M354.804 351.195l-1.747-2.318-.372-1.063M357.005 343.853l-.167-1.466M353.58 342.728l1.627.279.937.21.861.636M359.722 347.493l-.803-.97-.727-1.093-.82-1.137-.367-.44M352.115 342.976l1.466-.248M354.785 338.768l-.279.303-.328.461-.571 1.2-.505.95-.478.771-.509.523M353.58 342.728l3.258-.34M352.955 331.547l.472-1.975M367.133 335.24l-1.111.114-1.689-.154-2.142-.584-4.025-.892-1.525-.646-3.686-1.531M367.133 335.24l.381-.04.877-.215h.941l1.331.061M354.785 338.768l-.156-2.707" clip-path="url(#paf92eb8d5a)" style="fill:none;stroke:#000"/><path d="m356.838 342.387.02-1.205-.074-1.261-.239-.658-.273-.276-.369-.162-.645-.075-.473.018M380.623 327.493l.806 1.258.674.985M386.892 328.711l-3.354.678-1.435.347M380.034 333.33l.13-.984.17-1.037.317-.422 1.452-1.151M377.657 331.524l1.433 2.522.686 1.017M380.034 333.33l-.105.794-.153.939M371.377 327.666l2.583-2.889M368.503 327.129l.278.198 1.395.092 1.201.247M376.351 329.803l-1.08-.876-1.297-.554-2.597-.707M363.797 316.157l-.491.173-4.147.387-.942.527-.6.853-.373 1.578-3.135 7.037-.682 2.86M355.571 327.952l-.423.667-.552.553-1.169.4M356.242 326.497l.199-.397M356.242 326.497l-.67 1.455M358.653 327.697l-1.233-.708-1.178-.492" clip-path="url(#paf92eb8d5a)" style="fill:none;stroke:#000"/><path d="m360.722 319.855-.737.403-.506.435-.55.86-2.017 3.489-.471 1.058M358.299 325.966l-.485-.013-.522.03-.851.117M358.299 325.966l.56.263.67.422.455.615 2.532 3.536.649.523.487.216h.617l.519-.031.552.184.357.37.551.86.423.339.584.338.227.338.032.461-.381.84M355.571 327.952l2.415.991M358.299 325.966l1.175-2.097M366.216 320.93l1.443 1.465M360.976 321.47l.479-.331.899-.024h.908l1.299.37.909.03.454-.123.292-.461M363.797 316.157l.688 2.532.222.443 1.51 1.799M359.474 323.87l1.098-1.865.404-.534M362.354 322.837l-.163-.369-1.215-.997M361.25 324.406l.844-1.138.26-.43M363.83 323.897l-.763-.443-.713-.617M361.25 324.406l-1.776-.537M363.555 325.127l-.193.005-.566-.14-1.546-.586M363.782 329.88l-2.662-4.275-.065-.615.195-.584M363.555 325.127l.004.657.71 2.037.859 1.511M366.169 325.641l-.175-.09-1.008-.326-.739-.116-.692.018M363.83 323.897l-.075.629-.2.6" clip-path="url(#paf92eb8d5a)" style="fill:none;stroke:#000"/><path d="m366.169 325.641.44-.555-.074-.327-.443-.42-.91-.536-.516-.07-.837.164M366.169 325.641l.43.22M368.503 327.129l-1.443-1.032-.462-.236" clip-path="url(#paf92eb8d5a)" style="fill:none;stroke:#000"/><path d="m369.832 331.728-1.157-1.329-.492-.42-1.156-.908-.32-.303-.246-.42-.073-.63.049-.978.161-.88M366.898 312.334l-1.358 3.003-.7.453-1.043.367M377.198 322.598l-.636-.733M377.198 322.598l7.015-1.25M379.453 325.669l-.385-.6-1.87-2.471M374.143 319.114l-1.127-1.178-.344-.466.099-.512.688-.84 2.657-1.258 1.378-.373 4.772-.793M382.33 317.69l.083-1.245-.147-2.75" clip-path="url(#paf92eb8d5a)" style="fill:none;stroke:#000"/><path d="m380.84 310.478 1.13 1.445.296.932v.84M376.562 321.865l-1.674-1.926M376.562 321.865l-2.602 2.912M375.734 308.785l-2.72.918-6.116 2.63M380.84 310.478l-.985-.839-1.328-.327-1.503-.344-1.29-.183M380.84 310.478l-10.185 3.869M382.33 317.69l1.883 3.658M374.888 319.94l1.572-.885 1.23-.373 4.099-.754.54-.238M374.143 319.114l.3.314.445.511M379.69 326.039l6.314-1.16-1.79-3.53M377.657 331.524l2.966-4.031M376.351 329.803l.285.23 1.021 1.49M380.623 327.493l-.933-1.454M379.69 326.039l-.237-.37M376.351 329.803l1.74-2.32M379.453 325.669l-1.361 1.815M378.092 327.484l-4.132-2.707M374.143 319.114l-1.028 1.619-.64 1.958v.792l.689.792.796.502M308.596 382.893l.352-.208M288.948 404.215l.538-.589M295.871 399.42l-.797.545-3.52 2.347M289.486 403.626l1.153-.66.49-.342.425-.312M278.505 447.24l-7.283-4.517-.595-.373-.567-.388M270.06 441.962l-.299-.534-.09-.636-.095-.685M267.862 442.52l.764-.427.448-.07.986-.06M296.215 458.309l-1.498-.937M277.126 455.325l2.937 1.793M277.126 455.325l1.243-1.785M355.007 489.574l-12.626-5.35-5.973.215-3.148 2.86-.877.215-3.116-2.245-3.051-.246-5.94-2.86-5.55-1.69-3.279.276-1.753 1.568-4.998 1.999-3.084-1.23-2.597-2.214-3.18-3.32-4.447-1.815-9.024.585-2.467-.923-2.532-4.613-1.038-4.642 1.752-3.475-.032-2.245-1.201-2.09-.357-2.103.637-.906M283.116 458.98l2.755 1.681M283.116 458.98l-3.053-1.862M283.116 458.98l4.192-6.238M287.308 452.742l1.97-2.87M287.308 452.742l2.801 1.75M287.308 452.742l-2.957-1.849M289.278 449.873l7.35 4.473M289.278 449.873l-8.816-5.463M276.146 441.735l4.316 2.675M296.629 454.346l1.132-1.755M296.629 454.346l-1.912 3.026M294.717 457.372l-1.558-.973M293.16 456.399l-3.05-1.906" clip-path="url(#paf92eb8d5a)" style="fill:none;stroke:#000"/><path d="m285.871 460.661 2.866 1.749 4.422-6.011M285.871 460.661l4.238-6.168M280.063 457.118l4.288-6.225M284.35 450.893l-2.883-1.802M281.467 449.091l-3.098 4.449M281.467 449.091l-2.962-1.851M274.945 452.591l.477-.717M278.505 447.24l1.957-2.83M278.505 447.24l-3.083 4.634M275.422 451.874l2.947 1.666M267.862 442.52l-1.656 1.912M216.859 535.34l.246-.908-.172-1.771.074-1.142 1.5-3.332 1.007-1.162 1.054-.869 3.87-1.23 2.008-.761" clip-path="url(#paf92eb8d5a)" style="fill:none;stroke:#000"/><path d="m232.722 543.704-1.739-3.088-4.614-8.486-.452-1.337-.157-1.664.474-3.931.212-1.033M221.251 614.929l1.963-.229M221.251 614.929l.996.336.856.702M223.103 615.967l.363 1.156" clip-path="url(#paf92eb8d5a)" style="fill:none;stroke:#000"/><path d="m223.214 614.7-.212.331-.044.44.145.496M223.466 617.123l.131-1.362M223.597 615.76l-.029-.646-.354-.414M223.597 615.76l.596-.742.926-.54M225.119 614.478l-1.905.222M237.643 601.659l-.654 6.328-.467 1.23-.616 1.159-.864.896-1.087.896-1.13.688-1.353.618-5.81.94-.543.064M603.638 593.411l-2.886-3.35-1.582-1.323M570.08 580.207l9.218 1.137 3.505 1.045 3.506.37 4.87.768 3.115.03.617.093 1.298.615.195.246.454.245.422.4 1.656 3.136.234.446M613.459 606.858l-3.165-3.748-3.072-3.042-2.7-3.967-.884-2.69M606.812 585.018l-1.225 2.132-1.555 4.608-.394 1.653M436.254 446.876l.7 3.324-.031 6.288.063 1.518.47 1.628.7 1.296 1.05 1.241 3.749 2.58 4.032 2.48 2.29 1.77 1.536 2.345.693 2.566.886 6.64.747 2.701 1.57 3.108 5.892 7.732 1.88 1.895 2.376 1.537 5.602 2.646 2.946 1.55 5.508 3.706 4.998 4.058M490.328 525.323l-.399-2.1-1.302-4.233-4.097-6.04-.62-3.465" clip-path="url(#paf92eb8d5a)" style="fill:none;stroke:#000"/><path d="m501.906 503.191-3.573 2.5-3.408.729-1.98 1.093-3.133.365-1.814.99-1.374.885h-1.154l-1.56-.268M490.328 525.323l.346 1.824 1.303 2.204 1.583 1.235 3.723 2.822M412.262 378.548l1.8 9.88 1.555 4.065 7.64 11.644 2.532 4.182.7 1.375.274 1.7v7.748l.216 2.843 1.147 2.754 2.326 4.295 1.92 5.174 1.921 7.075 1.72 4.448.241 1.145" clip-path="url(#paf92eb8d5a)" style="fill:none;stroke:#000"/><path d="m450.367 425.56-4.748 7.23-1.582 3.396-.745 4.056-3.211 4.145-1.583 1.41-.233 4.057-.466 1.059-.418-2.16-1.127-1.877M295.871 399.42l.877-.6M292.825 388.888l2.129 5.511.241 1.017-.049 1.472-.167.818M296.748 398.82l-.813-.491-.956-.623M379.765 358.599l-1.578 1.735-4.862 1.735-1.756.63" clip-path="url(#paf92eb8d5a)" style="fill:none;stroke:#000"/><path d="m379.679 362.54-.85-.047-2.107.025-2.47.11-2.683.07M379.765 358.599l.906-.105M382.638 353.185l-1.168 1.675-1.736 2.842.031.897M232.722 543.704l4.124 7.327 4.095 8.448.44 2.079-.012 2.025-.206 4.035-3.52 34.04M253.353 611.792l-2.27-.396-1.792.396-2.091 1.018-2.21.17-2.09-.566-1.554-1.414-.467-.547-.326-.38-1.238-1.45-1.076-2.263.06-3.281-.656-1.42M393.826 364.84l-.695.414M390.522 360.22l.1-5.434 3.116-.025-.003 7.526.091 2.553" clip-path="url(#paf92eb8d5a)" style="fill:none;stroke:#000"/><path d="m399.712 363.481-.737.252-2.271.47-1.74.398-1.138.239M393.13 365.254l-.57-.061-.32-.112-.148-.169M389.282 365.336l1.764.292.439-.112.607-.604" clip-path="url(#paf92eb8d5a)" style="fill:none;stroke:#000"/><path d="m389.282 365.336.66.273.403.181.852.24.328.001.612-.17.994-.607" clip-path="url(#paf92eb8d5a)" style="fill:none;stroke:#000"/><path d="m386.601 367.995-5.926.138-.261-.468.377-.66.988-.524 2.179-.633 3.331-.538.804-.058 1.19.084M216.859 535.34l-.682.394-.214.365-.086.284.043.152.171.06.214.031.268-.03.172-.142.075-.223.042-.244-.003-.646" clip-path="url(#paf92eb8d5a)" style="fill:none;stroke:#000"/><path d="m216.859 535.34.003.647-.042.244-.075.223-.172.142-.268.03-.214-.03-.171-.06-.043-.153.086-.284.214-.365.682-.393M269.381 592.305l1.771-2.376-.344-1.142.541-2.377.787-2.656 1.107-1.538.467-1.701-.516-1.351-1.058-1.12-2.19-.907-2.066-1.515-1.574-1.491-.836-.443-.32-.676-2.361-2.353-2.879-2.098-.959-.954-1.033-1.515-.665-1.048-2.09-1.771-1.427-.466-.713-.63.025-.862 1.106-1.258 1.084-1.338-.017-.65-.402-.692-.591-.932-.566-.839-2.116-1.218-.487-.296-.3-.187-.91-.326-.738-.28-4.01-.303-1.032-.605-.812-.7-.836-2.027-.025-1.025-.222-.931-.492-.56-.54-.256-1.108.163-1.722.675-.885.466-.492-.046-.271-.396-.295-.63-.787-1.653-.69-.91-.958-.512-1.212-.345M169.155 602.486l-3.776-.472-1.632-.187M191.135 615.34l-.763.117-.812-.28-1.5-.582-1.23-.49-1.649-.302-2.804.186-2.534.56-1.599-.14-3.296-.793-4.305-.535-3.542-.676-1.304-.28-1.746-.909-.763-.885.812-3.239.246-2.283-.443-1.514-.156-1.468M114.306 594.452l6.184 1.552 3.062.73M106.046 622.936l-.296-1.608.714-3.844.935-2.05.762-1.958 1.575-.745 3.247-5.802 2.386-1.98.984-1.188 1.18-1.538 3.47-1.608.786-.909 1.402-1.794.36-1.177M608.673 577.84l-.844 1.506-.519 3.259-.325.922-.173 1.491M496.316 616.064l-1.217.84-1.4.522-1.103-.522-1.57-1.929-.764-1.889-.51-2.33-.424-2.492-.254-1.528-.849-2.693-2.842-3.576-1.74-2.773-2.037-2.21-1.74-1.247-1.272-.603-1.061-.764-3.394-3.536-2.165-3.055-1.23-2.813-.594-2.01.212-2.491.89-1.608.34-1.527-.679-3.095-.042-3.215.424-3.135.85-1.809 1.018-1.567 1.612-1.246 1.951-1.366 1.825-1.93 1.23-2.05 1.443-.602 2.164-1.809 1.613-.482 1.315.24.212-.4-.424-1.046.042-1.246 1.146-2.652.721-2.894-.34-2.01-1.145-2.13-1.867-1.648-3.649-1.648-.976-.603-.806-1.487-.424-2.492.594-2.452 1.23-1.125 4.413-1.206 1.443-.683 2.503-1.93 1.339-.789M496.316 616.064l2.262-1.893 2.589-1.567 2.036-1.085 2.419-.161 3.097-1.326 1.443-1.447 2.376-.764 3.692.12 4.073.483 3.819.16 2.206-1.004 2.291-5.907M404.393 357.558l-.29 1.128-.574 1.098-.25.393-.282.286-.326.28-.332.17-.835.588-.717.781-1.075 1.2M405.323 353.141l-.686 1.455-.244 2.962" clip-path="url(#paf92eb8d5a)" style="fill:none;stroke:#000"/><path d="m435.083 375.677-6.85-2.214-2.011-2.89-1.558-.616-8.278-5.935-3.927-.646-4.22-1.445-3.846-4.373M516.977 196.688l.909.8 1.298 2.152.908 2.707.455 4.429.649 1.23.974-.245 1.428-.923 1.428.553.066 1.353v5.721l.714 3.568 1.168 1.968.65 1.292-1.559 3.568.39 7.812 1.687 5.597.195 1.784.585 2.338-.78 2.644-5.323.37-1.623.8-1.233 3.751-3.052 3.322-1.103 3.629 2.24 7.258.324 2.614-.422 2.737-1.265 3.445.487 1.23 2.336 2.215 1.818 3.075 4.123 7.827 3.518 2.585-2.087 6.33-1.23 3.78-.086 1.487.722 1.407 3.606 3.497 2.8 2.252 1.274 1.286 1.654 1.97.806 1.528.51 2.894-.382 2.292-1.061 2.25-3.31 4.061-2.036 3.337-2.037.804-4.667.563-2.758.924-3.013.523-4.243-.201-3.14 1.246-3.776.924-2.334 1.649-2.376 3.457-2.376 2.452-1.23.804-5.135 3.257-1.527.12M405.323 353.141l.205-.435.551-1.728.807-1.89 1.443-1.286 2.885-1.769 2.206-1.809 1.188-2.653 2.164-2.452 2.461-1.809 3.48-1.246 3.563-.845 3.395-.241 2.036-1.648 2.377-1.688 2.333-1.287 3.013-.562 3.946-.201 2.334-.04 2.63.481 3.65.644 2.588-.04 1.994.281 4.37.965 2.8.321 3.65-.12 3.31.281 3.182.603 3.649 2.412 4.582 2.01 3.098 1.407.976 2.09.763 1.609 2.08 1.286 2.503 1.005M527.883 370.787l-8.245-2.368-5.68-4.428-2.435-3.782-3.245-1.784-3.733-1.691-1.623-2.583-.292-2.276-.325-1.415-3.376-1.353-3.05-.584-4.344-3.736M286.57 372.875l-1.712.649-1.119.6M279.285 377.286l2.308-2.116 2.146-1.046M496.316 616.064l2.97 6.487.163 1.875.844 2.859M599.86 599.312l-1.12 3.35-2.481 2.35-2.774 1.107-1.46 1.452-2.41 3.941-3.942 4.633-3.212 2.351-9.2 4.147-2.051 2.614-4.737-1.16-5.695-1.175-5.767-2.075-3.066-1.728-3.358-.07-5.33 1.798-3.066.277-4.672-1.383-3.723-.691-2.775-.07h-2.555l-1.314.692-2.774 1.797-2.92 2.49-2.044 3.596-1.753 1.383-1.898.207-2.555-1.175-2.117-1.798-1.68-.415-2.335.069-4.783 1.459M516.977 196.688l2.467-1.23 2.142-.8 1.493-1.969 5.258-4.244 7.011-5.598 1.948-2.153 4.804-3.445 3.246-3.075 2.142-2.892" clip-path="url(#paf92eb8d5a)" style="fill:none;stroke:#000"/><path d="m558.102 171.772-2.564.092-2.532-.338h-1.623l-2.434-.555-1.461.311M578.746 98.055l-1.428 5.356-4.09 5.814-1.363 1.255-1.591 1.145-1.038 1.16-.91 1.794-1.428 4.45-1.623 2.214-.39 2.35-.973 3.384-1.493 3.969-.974 3.552-1.2 2.214-.585 2.706-.325 5.926.91 1.885-1.267 3.69-3.083 4.793-2.987 6.894-1.882 2.736-2.142 1.97-1.46 2.183.064 1.787M527.883 370.787l3.31.523 3.96 2.091 2.078.215 5.096-1.168 12.107-4.705 4.544-.062 2.5-1.384 4.641-2.49 3.636-2.645 4.284-2.276 1.85-2.552 4.35-5.505 5.81-2.183 3.993-1.66 7.563-9.38 9.672-6.674.293-4.12M634.186 502.55l-1.072-1.354-.065-1.967-2.207-3.69v-2.583l.715-2.583-2.662-4.858-.52-5.165 3.83-10.886.844-5.842 2.467-6.703 1.753-9.348-.649-1.23-1.493-.984-1.623-1.353-.909.308-1.233-2.337-2.402-1.292-2.922-.43-2.207 1.353-3.376 2.89-4.868-.983-7.92-2.83-8.115-1.106-4.414-1.969-9.544-7.933-3.505-1.6-12.659-12.914-5.908-2.521-9.153-9.287-13.113-6.765-6.492-2.89-3.636-.8-.26-1.784.585-3.629-.909-2.89.78-3.69-2.273-4.428-1.168-5.69M174.227 318.64l.723.522.68.161.942-.1 2.085-1.207 2.127-.584 2.921-.384 1.412.046 5.113.46 2.629.155 1.168.476 5.745 3.184 1.558.707 1.364.307 1.752.63 1.729.4 1.947.27 3.424.292 2.435.276.56-.16.373-.447.471-2.514.268-.584.397-.47 1.948-.799.998-.192 2.613.069 2.199.039 1.071.215.844.4 2.946 1.752 1.16.193 1.047-.008 5.234-1.245.844.023 2.532.5 3.05.56.853.185.657.454.398.63.308 1.56.78 2.969-.066.7-.406 1.345-.251 1.322.114.96.494.893 1.98 2.06 2.443 2.637 2.88 2.637.917 1.169 3.571 5.374.877.984 7.984 4.69 2.354.815 2.11.569 1.428.6 1.574 1.367 1.103 3.091.747 1.2 1.218.937 3.131 1.054 2.16.507.965-.015.608-.254 1.656-2.183.608-.246.755.092 2.467 1.937.576.1.706.03.625-.176.738-.492 2.516-2.813 4-4.114 3.604-4.036.133-.096.256-.111.256.011.982.636M229.058 359.563l-.94-.07-2.695-.937-1.169-.184-2.921.207-1.996.515-5.234 1.607-.487-.008-1.745-.576" clip-path="url(#paf92eb8d5a)" style="fill:none;stroke:#000"/><path d="m173.984 364.56 2.037-1.014.6-.17 2.5-.192 2.993-.423 4.382-.607 2.662-.63.755-.077 1.323.069 4.552.33 2.531-.2 1.834-.4 5.38-2.244.666-.2.746-.038 1.38.3 3.546 1.053" clip-path="url(#paf92eb8d5a)" style="fill:none;stroke:#000"/><path d="m209.9 347.539 1.476 4.428.487 1.814.016.585-.276.661-1.46 2.93-.057.43.235.384 1.55 1.346M236.71 354.135l-2.37-.176-1.93-.277-1.785-.323-.544.084-.333.338-.04.861.065 2.553-.285 1.169-.43 1.199M405.323 353.141 401.975 350l-1.623-2.153-1.363-3.013.26-.677 2.726-.891M299.962 368.062l-.646-.053M277.208 382.27l.115.156.162.114.193.06.201-.002.191-.062.161-.116M277.208 382.27l-2.146.665M277.645 381.435l-.087.015-.183.1-.138.15-.078.186-.009.2.058.183M293.724 320.353l3.052 2.122.714.908.373.83.52 2.368M273.275 302.932l-.714-.462-1.136-.615-1.412-1.122M273.275 302.932l.52-2.937.34-.815.39-.569 2.045-2.076.292-.554.098-1.184-.114-.691-1.363-2.2M294.73 330.533l-3.797-3.998-3.57-3.014-3.668-2.614-2.127-1.753-2.174-2.199-.52-.284-.527-.046-2.037.008-.406-.185-.195-.446.066-.385.844-1.568.762-1.399.293-1.2-.065-.86-.877-1.754-1.737-2.86-1.168-2.46-.552-.584M293.724 320.353l-.778 1.53-.077.171-.2.452-.56 1.253-.21.877.073.646.974 2.398 1.785 2.853M282.413 300.318l3.667 6.342.722.7 1.73 1.1.242.315.357 1.084.593.854.803.745 1.112.592.755.692 1.306 1.869.974 2.883-.09 1.007-.86 1.852M315.73 379.844l-1.132-.38M144.576 186.384l3.4.846 2.694.961.925.615.658.623.6 1.238.154.592-.114 1.054-.665 2.114-.3 1.046-.057.53.09 1.092-.163 1.946.065 1.491.682 2.922.738 2.638.187 1.053.275 5.321.252.946.609.869 2.004 1.607.917.753.406.646.535 2.945.763 4.029.503 1.83.024.561-.26 1.576-.86 2.83-.754 1.26-.617.762-1.225 1.161-1.274 1.784-.398.661-.608 1.138-.386.98-.288.796-.162.685-.203 1.122-.665 2.46-.374 1.092-.097.846.479 4.967.275 4.468-.478 5.65-.098 1.415.236 2.084.178 1 .252.907.43.945 1.493 3.014.982 2.353.868 1.607.333.677.34 1.407.09 1.038-.097.992-.17 2.983.016 1.168.357 3.207.121 1.037.309 1.154.324 1.899.04 1.953-.17 2.053.008.699.122.446.69 1.407.284.815.552 1.891.405.908 1.08 1.699.235.607.349 1.053.365.63.633.524 1.469.9.397.46.301.547.746 1.06.86.846 3.117 2.73 3.683 3.782.556.773.516 1.234.081.907.081.938M314.19 207.606l-.925-1.614-.479-1.084-.308-1.177M299.242 207.576l1.542-.185h.633l2.54.661.941.162.91.023 3.132-.708.933-.138 4.317.215M324.134 328.518l2.844-5.902M324.134 328.518l-.31.637M324.134 328.518l5.29-1.76M329.424 326.759l1.174-2.505M329.424 326.759l-1.976 4.17M330.598 324.254l-2.608-3.683M330.598 324.254l3.462-2.52M325.97 314.801l2.02 5.77M325.97 314.801l-2.845 6.128M325.97 314.801l5.155-11.36M327.99 320.571l-1.012 2.045M326.978 322.616l-3.853-1.687M320.785 319.922l2.34 1.007M100.73 603.111l2.48-.11 4.338-.183 6.758-8.366M380.671 358.494l-.992 4.046M390.522 360.22l-2.594-.447-7.257-1.28M390.522 360.22l-.073 3.946M390.45 364.166l-9.369-1.549-1.402-.077M405.32 369.962l4.102 2.697 1.436 1.403.844 1.414.56 3.072M451.988 395.546l-1.316-3.245-.948-1.74-1.101-.898-7.036-3.999-3.67-2.666-2.172-1.044-.887-.724-1.102-1.97-.703-.493-1.713-.493-2.019-.145-2.264-1.072-7.586-3.101-1.805-.435-1.04.087-.948.696-1.621 2.811-1.795 1.433M453.303 405.139l.215-2.174-.154-2.144-.887-1.015-.245-.724.092-2.26-.336-1.276M469.791 422.179l.245-3.188-.306-.985-.826-.812-1.744-.782-1.682-1.16-1.438-.144h-1.193l-.673-1.71-.49-1.13-.978-.899-.581-.434-.55-3.189-.765-2.405-1.224-2.724-1.652-3.216-1.866-1.768-1.01-1.42-1.07-.667" clip-path="url(#paf92eb8d5a)" style="fill:none;stroke:#000"/><path d="m411.74 367.643-1.153-1.776-2.163.478-1.37 2.118-1.733 1.5M413.725 458.997l-.37-1.557.635-3.714-.106-3.012-1.696-8.635v-3.615l-.212-2.008-.371-2.46.795-4.67-1.06-4.518-.053-3.112-.37-1.255-1.856-3.163-.477-4.67-.052-2.058.583-3.916-1.113-3.815-1.908-4.518-.424-1.005.403-1.404" clip-path="url(#paf92eb8d5a)" style="fill:none;stroke:#000"/><path d="m388.023 432.239 5.935 1.154 1.802-1.456 3.074.704 5.617-1.958.583-3.364-.636-.854-.583-2.46-.848-3.464-1.272-3.414-1.536-4.066-.584-2.56.371-6.126.584-2.861.476-2.26 1.484-2.41-.265-1.807 1.749-1.707.636 1.004.636.904.827.654M244.024 511.125l-.843-.99-.556-1.535-.444-1.85-.032-.1-.148-.471-.22-.692-.91-.589-.6-.147-.955.126-.577-.252-.457-.743M169.339 588.455l.257 3.48-.161 2.81-.032 1.557-1.29 2.107-.096 1.1 1.138 2.977M370.265 355.952l-2.88-.343-1.638.245-1.259 1.715-1.586 3.872-.086 2.745.207.326.103.376.044.897M223.866 431.675l7.223 1.46 2.664.486 4.333.973 9.821 1.946 3.082.912 2.279 1.064 2.246 1.46 1.946.86 1.778.326 2.215 1.034 4.753 2.236M283.065 420.436l1.213-.584M624.69 189.851l1.333-1.128M613.965 188.454l2.303 2.052 2.467 1.538 1.79.28.892-.228.708-.523 2.566-1.722" clip-path="url(#paf92eb8d5a)" style="fill:none;stroke:#000"/><path d="m629.79 198.087-.847-1.032-1.054-1.263-.533-.79-.382-.923-.267-1.043-.522-1.164-.59-.922-.904-1.099M603.788 185.598l3.86.676 3.524.971 2.793 1.209M618.336 186.244l-.382.65-.603.357-.67.192-.608.426-.57.401-.994.123-.544.06M558.102 171.772l.747.648 3.602 1.016 6.428 3.875 1.924 1.88 1.109.534.731-.064 8.234-1.56 1.34.312 1.48.75 2.024.174 2.026.313 2.845 1.264.942 1.073.883 1.35.286.217.247.071 2.585-.148 2.345.07 1.737.315 4.171 1.736" clip-path="url(#paf92eb8d5a)" style="fill:none;stroke:#000"/><path d="m602.486 178.97.526-.125.672.18.76.4.524.54v.43l-.126.38-.425.094-.32.211-.146.505.046.942.156 1.08.009.907-.138.627-.236.457M626.023 188.723l.997-1.046M326.19 333.585l1.258-2.656M327.448 330.929l-3.623-1.774M308.866 353.243l1.566-.212.85.02M314.14 349.718l1.512-3.099M293.003 385.875l-4.802-.704M295.315 377.867l2.143.653M292.825 388.888l1.877-4.002 1.365-3.198 1.39-3.168M287.73 390.951l-2.964.674M282.3 393.116l1.8-1.37.666-.121M314.624 382.96l.857-.548 1.386.057.054 1.108M383.178 331.045l-2.33 1.231-.814 1.054M277.645 381.435l1.998-7.35.187-.497.448-.603" clip-path="url(#paf92eb8d5a)" style="fill:none;stroke:#000"/></g><g id="PatchCollection_1"><path d="m164.07 606.09-.828 1.717-.591-.075-.789-.447-1.458.112-.788-.523-.906-.56-.395-.597-.118-.485 1.025.074.867.448 1.182.336 1.34-.112zM119.18 597.019l-2.62-.655-1.421.315-.283 1.555.659 1.659-1.064 2.166-2.168.223-1.222-.336-1.3-.784-.966 1.251 1.567.476 2.478.387 1.751.045 1.743-.987 1.896-1.127 1.263-.564 1.577-.804.907-1.074-.689-1.62zM434.975 146.02l.085.683-1.188.201-1.4-.362-.594-.804-.425-1.93.297-1.608-1.23-1.166-1.528-2.332-.721-.925.17-1.488.55-1.126.468-.16-.552-.402-.382-.362-.084-1.207-.34-.844.34-.804-.085-1.327-.297-1.568.297-1.568.551-.08.382 1.246.34.2.933-.24 1.74-.805-.043-.723.68-1.005.678-.362 1.613-.965.848-.12.467.2.382 1.005.085.965-.552.804h-.382l-.764-.723.085.804-.636 1.286-.849 1.167-1.485.884-.467.402-.806-.04.17 1.126-.594 1.045 1.018 1.005-.212.563-.424.764-.255 1.126-.466 1.448.211.723.68.885 2.673.402h.806l.424.764-.043.684-.509 1.085-.381.925-.128.884.255 1.207-.68.321.468.282zM108.865 599.92l-.427 1.32-1.123 1.101-1.86-.037-.774-.366-.464-.955-.736.147-.349.844h-1.007l-.426-.477.155-.477.426-.183.27-.55-.154-1.725.62-.44.968.037.233.99.968.66 1.162.148.697-.258.504-.22 1.007.184zM100.924 600.507l.117 2.054h-.969l-.542-.33-1.24-.293-.27-.587.31-.404.774-.55 1.123.22zM451.62 388.997l-1.743-.26-1.805-1.19-1.346-.318-1.192-.522-.888-.927-2.906-1.42.55-1.565.582-.087.887.174.734 1.101.795.493.429.058.887.029.336.057.582 1.015.979.116.428.406 1.285.434 1.131.667 1.04.84.307.348zM466.09 416.556l-.275-.521-1.133-.203-.887.174.46.608 1.07.84.336.783-.122.464-.795.754.03.463.153.435-.183.84h.581l.856-1.796.429.086.092.348.642-.434.26-.519-.72-.206-.213-.696.306-1.072zM226.607 616.806l-1.667.232-.275.565-.122.637.168.667.459.434.765.391.214.044-.2-.305.108-1.216.704-1.188zM373.445 295.59l.286 1.261.308.124.158.407.196.803.55.592.653.565.662.168.438.08.67.008.327-.16.317-.37.606-.203.746.009.726-.141.746-.018.653.009.68-.097.168-.283.326-.22.606-.019 1.267.354.69.105.737.133.345-.053.988-.503.373-.46.373-.741.214-.724.14-.583.214-1.113.708-1.925.607-.592.596-1.254.056-.857-.14-.689-.42-.38-.363-.688.066-.831.176-.618.243-.442.12-.591-.195-.636v-.495l.224-.38.485-.441.242-.345.214-.485.038-.442-.27-.592-.727-.698-.02.416.056.362-.074.565-.364.91-.251.256-.466.062-1.37.538-.401.345-.82.821-.234.76.084.83-.307.9-.345.725.047.618.251.247.615.195 1.175.733.363.38-.055.406-.262.177-.708.017-.923-.327-.867.274-.67.3-.402.433-.662.875.02.38.316.432.028.521-.214.583-.504.3-.764-.194-.736-.15-.588-.018-.447.318-.503.15-.69-.52.186-.425-.326-.256-.429.354-.364.494-.512.062-.587.309-.793-.097-.54-.309-1.09-.345-1.073.115-.798.07zM229.548 355.733l-.118.619-.172.436-.31.578-.375.274-.396.193-.375.132-.354-.04-.481-.072-.632.03-.439-.02-.47-.07-.515-.132-.621-.224-.61-.294-.482-.406-.257-.274-.375-.132-.535.01-.482.224-.46.345-.75.324-.9.183-.546.08-1.241.123-.59.233-.578.071-.524-.101-.6-.224.364-.283.567-.376.31-.294.376-.375.418-.162h.374l.621.151.514.01.632-.152.417-.294.193-.233.193-.213-.021-.294-.365-.254-.224-.345.021-.304.396-.234.3-.05.214-.183.107-.294.011-.578.214.304.097.335.02.325-.117.446-.054.304.075.264.269.132.288-.092.493-.284.77-.11.387.02.545.253.557.294.643.264.428.314.439.122.3.152.62-.08.322-.184.332-.406.075-.324.214-.385.482-.213.578.02.321.162.246.335zM179.606 357.082l-.233 1.119-.394 1.421-.184.21-.283.035-.726-.093-1.365-.327-1.279-.256-2.73-.617-.628-.198-.726-.093-.283.116-.467.396-.43.396-.923.117-.849-.175-.8-.338.739.012 1.119-.175.32-.256-.074-.268-1.378-.315-.59-.21-.849-.478-.664-.442-.627-.14.037-.315.381-.023.48.093.504.233.554.303 1.082.012.738-.175.406-.175h.344l.16.221.11.257.136.07.406-.024.763-.162.11-.268.16-.292.394-.244.885-.094.37.117.159.232h.566l.332-.093.812-.384.504-.035.603-.233.91-.07.677.105.64.174.479.304.442.396zM164.33 355.824l.37.769.16.664-.136.373-.357-.093-.615-.315-.59-.047-.676.152-.825.163-.578-.058-.332-.268 1.156-1.783.492-.035.43.151.505.256zM160.235 354.775l.11.617-.073.77-.554.838-.701.49-.738-.117-.91-.489-.713-.688-.948-.757-.59-.617-.062-.525.284-.116.405.21 1.242.22.738-.116.861-.046.75.011.456.058zM146.335 350.391l-.173.606-.492.606-.565.652-1.304 1.143-.443.093-.246-.186-.05-.49-.294-.63-.64-.372-.64-.046-.294-.164.221-.443-.123-.605-.468-.467-.59-.373-.148-.35.32-.186.418.093.32.397.468.372.443.07.368-.186.738-.28.96-.256.86.233.394.373.492.163h.27z" clip-path="url(#paf92eb8d5a)" style="fill:#00f;fill-opacity:.8"/></g><g id="PatchCollection_2"><path d="m309.673 382.667 1.77.587.448-1.875zM311.62 372.031l-.59.606 1.34.967zM296.346 399.477l1.017-.646.043 1.28zM306.098 346.53l.203.143.707-1.075-.247-.147zM297.857 371.859l1.164.317.388-1.651-.568-.138-.387.097zM296.19 368.353l-.045 1.226 1.352.01 1.08.147.374-1.37zM299.144 369.83l.381.082.123-1.503-.147-.012zM295.87 377.086l-.214.664 1.59.533.209-.68zM285.134 391.753l.534.699 1.384-1.13zM288.507 388.104v2.032l1.92-1.334.038-.291zM295.328 425.622l1.82 1.075 3.005-4.587-3.92 2.41zM300.89 418.718l1.071 1.67 1.097-.64-1.416-1.668zM289.808 389.786l2.368.008-.047-.909-.95-.203zM282.314 385.975l-.094.129-.045.151.01.162.065.15.114.12.15.079.168.028.169-.027.15-.078.114-.12.066-.15.01-.156-.041-.152-.092-.132-.132-.095-.156-.052h-.166l-.158.048zM277.734 381.663l-.124.036-.103.074-.072.102-.03.12.013.122.05.102.08.083.105.055.117.021.119-.014.108-.049.086-.077.057-.1.021-.112-.02-.12-.06-.109-.098-.082-.12-.046z" clip-path="url(#paf92eb8d5a)" style="fill:green;fill-opacity:.8"/></g><g id="PatchCollection_3"><path d="m285.495 426.53 2.88 1.759 2.873-4.224-2.88-1.758zM316.944 327.986l3.642 1.638 2.543-5.078-3.642-1.637zM379.478 302.87l.448 3.09 5.145-.812-.56-3.091z" clip-path="url(#paf92eb8d5a)" style="fill:#90ee90;fill-opacity:.8"/></g><path id="PatchCollection_4" d="m372.966 355.358 3.92 4.078 2.558-1.532 1.789-3.114-3.085-4.037z" clip-path="url(#paf92eb8d5a)" style="fill:#006400;fill-opacity:.8"/><g id="PatchCollection_5"><path d="m349.052 371.71-.573 1.483 2.665.923.572-1.483zM353.463 373.157l-.58 1.377.803.304.58-1.378zM356.006 374.976l.09.818 1.638-.163-.09-.817zM304.61 393.876l-1.071 1.256 1.464 1.122 1.072-1.257zM310.763 375.25l-.344 1.516 2.164-.7zM310.503 375.656l-.571-.112-.14.646.57.111zM312.377 374.367l-1.43-1.074-.826.988.417.313.238-.284 1.012.76zM347.51 371.909l-.429.933.296.122.149-.323.188.016.257-.558zM376.706 361.54l2.521.033.326-.13.378-1.609-.944-.146-.189.634-.274.633-1.475-.016zM381.896 368.278v1.212l3.738.023-.049-1.235zM221.04 532.25l-1.068-.192-.396 1.972 1.068.193zM303.124 395.494l-.596.766.017.605.597.155.687-.915zM278.058 432.387l-.608.73.955.714.608-.73zM288.63 388.739l-.099.354.381.096-.017.06.613.156.136-.485-.605-.153-.02.07zM304.767 355.802l.401.128.109-.304-.402-.129zM309.349 421.007l.503-.003-.005-.699-.502.003zM307.243 385.702l1.106.213.055-.257-.337-.065.013-.06-.335-.065.059-.276.55.106.073-.338-.984-.189zM305.617 351.486l.132-.23-.503-.26-.132.23zM353.19 343.517l.051-.412-.39-.043-.052.412z" clip-path="url(#paf92eb8d5a)" style="fill:#a9a9a9;fill-opacity:.8"/></g></g></g><defs><clipPath id="paf92eb8d5a"><path d="M90 87.433h558v552.333H90z"/></clipPath></defs></svg>