<svg xmlns="http://www.w3.org/2000/svg" xmlns:xlink="http://www.w3.org/1999/xlink" width="960" height="960" viewBox="0 0 720 720"><defs><style>*{stroke-linejoin:round;stroke-linecap:butt}</style></defs><g id="figure_1"><path id="patch_1" d="M0 720h720V0H0z" style="fill:#fff"/><g id="axes_1"><path id="patch_2" d="M90 615.12h558V112.08H90z" style="fill:#fff"/><g id="LineCollection_1"><path d="m546.084 140.1.338 1.137M447.928 158.692l.476.351.477.452.529.703.529.636.494.703.318.552.317.485.318.435.388.285.723.402.953.502 1.04.569.547.402.476.468.353.57.53.903.352.519.53.452.6.217.564.1 1.147.034 1.464-.184 1.252-.184 1.04-.285.83-.384.917-.52.582-.468.67-.586.706-.418.724-.167.864-.067 1.2-.084 1.005.017 1.076.117 1.024.117 1.129.184h1.058l1.094-.034.793-.033.989-.217 1.058-.352.776-.435.865-.686.6-.469.74-.334 1.182-.352.741-.268 1.147-.351 1.217-.285.9-.117 1.146-.1 1.165-.202.953-.284.935-.418.917-.469.811-.418.953-.586.511-.519.512-.602.511-.369.6-.384.318-.402.23-.703.14-.72.036-.619.211-.352.688-.384.935-.502.9-.536.617-.485.494-.553.441-.569.477-.318.582-.167.688-.084.53-.067.51-.234.495-.335.705-.586.83-.519.864-.468 1.622-.87 1.095-.837.899-.753.83-.87.952-.921.935-.854.793-.602.76-.486.97-.602 1.04-.335 1.164-.184 1.412-.067.97.033.935.017 1.023.1.935-.05 1.217-.067 1.253-.016 1.217.15.847.15 1.005.017.918-.033 1.693.134 1.182.084 1.023.016 1.023-.083.865-.234.565-.319.97-.686.9-.602 1.129-.419 1.111-.2 1.252-.068 1.13.151 1.058.117.953.1 1.501.556M570.656 185.85l-3.041.874-1.228 1.253-.523 2.04-2.365 2.826-.952.408-.707-.379-.43-1.253-.644-1.428-1.751-1.31-2.641-.7-4.516-.583-2.088.116-3.717.67-2.672-.349-3.532.35M546.422 141.237l1.136 4.808.215 1.661.123 1.457v2.214l-.276 4.459.03.903.215 1.05.4 1.34.552 2.273.185 1.194v1.253l-.369 2.885-.276 1.02-.614 1.136-.707.845-.89.642-1.307.72-2.055.473-.724.35-.737.525-.583.875-.4 1.195-.092 1.107.123.787.399.932.738.874 1.074 1.603.492 1.515.123.816-.123 1.165-.246 1.05-.584 1.078-2.395 2.943" clip-path="url(#p73b5c41a03)" style="fill:none;stroke:#000"/><path d="m528.118 210.075-.893-2.808-.43-1.545-.154-1.107-.06-1.02.091-1.632.338-1.66.491-1.195.676-1.34.922-1.69 1.259-1.254 1.372-1.234 1.484-.893 2.48-1.132 1.145-.616 1.167-.787.86-.816.983-.961M494.5 296.43l-3.905-5.384-6.688-6.173-3.904-.617-3.362.548-4.194-.582-2.17.24-2.06.994-1.715 2.433M465.305 275.332l.03 1.02.952 2.564.43 1.31.215 1.254.03 1.252-.46 5.157M447.52 312.597l1.383-1.195.46-.874.246-.874-.061-.816-.246-1.049-.821-1.162-4.8-5.597-.46-.903-.339-1.02-.122-.962.22-2.77.486-.9.894-.713.857-.424 2.212-.408 1.015-.39 1.288-1.212 1.916-2.372.865-.948 1.237-.568.927-.191.89.087 1.107.408 6.02 3.088.798.087.758-.022.778-.356.707-.67.522-.962.245-1.02M364.627 380.84l-.514-.241-.635-.263-1.595-.581-1.656-.611-3.19-1.25-.345-.054-.41.09-.706.387-.845.444-2.228 1.041M342.174 383.894l4.849-1.951 2.65-1.096 1.642-.389 1.188-.656" clip-path="url(#p73b5c41a03)" style="fill:none;stroke:#000"/><path d="m342.566 380.067 2.053-.396 2.84-.197 1.982.16 1.462.216.777.078.823-.126M342.566 380.067l-4.213-1.097M340.904 384.723l.406-1.197 1.256-3.46M338.791 391.803l-.436-1.212M338.791 391.803l.578 1.7M340.904 384.723l-1.098 2.881-.694 2.009-.321 2.19M350.179 419.231l.181 1.31M348.831 407.44l.78 4.57.383 2.25.153 1.23.072 1.092.097 2.062-.137.587M343.74 403.247l.609 3.229.354 1.345.777 1.549 4.699 9.861M350.36 420.541l1.072.003M350.36 420.541l.01 1.831M350.37 422.372l.002 1.849-.108 5.529.076 1.77.214 1.954-.23 1.716-.576 1.944-2.035 5.245-1.58 2.921-1.095 2.69-.405 2.346M348.62 508.204l.511-.327.69-1.883v-2.883l-.365-3.575-.568-4.266.081-4.882.487-5.842-1.905-5.881-.608-6.189-.122-5.612.244-6.112-1.662-6.534-.77-3.882M262.446 548.108l8.465-6.65 4.668-5.71 19.29-11.884 16.094-5.826 7.617-1.398 2.747-2.728 1.428-2.01-.338-2.461.568-2.374 2.043-1.85 2.887-1.005 3.962-1.515.876-.954-1.413-4.166-1.505-2.17-.4-3.379-1.12-4.253-.077-1.485.998-1.646 2.488-3.16.998-4.064-1.966-3.467.138-.845 1.905-1.937.844-3.03-.184-1.777.307-3.058 3.901-4.122 1.797-4.253 2.933-2.33 2.236-2.265M283.6 588.708l2.33 1.575 4.075 2.015 1.023.77.269.369.101.546" clip-path="url(#p73b5c41a03)" style="fill:none;stroke:#000"/><path d="m293.126 556.841-.694 1.694-.567 2.96-.243 5.035-.243 2.844-2.735 3.027-.224 4.121-1.54 2.383-2.026 2.153-1.905.922-1.58 1.23-.647.79-.205.94.104.885.504.921 2.475 1.962" clip-path="url(#p73b5c41a03)" style="fill:none;stroke:#000"/><path d="m290.358 591.98-1.59-.831-1.52-.808-3.648-1.633M291.838 595.724l.196-1.15-.084-.508M291.838 595.724l.577-1.29.587-.428M286.812 605.046l.865-1.924.723-1.59 1.093-1.672.794-1.37 1.033-1.73.518-1.036M291.853 593.613l-.455.37M291.853 593.613l-.613-.964-.882-.669M293.214 593.477l-.698-.176-.507.153-.156.16M291.853 593.613l.097.453M293.214 593.477l-1.083-.657-1.773-.84M291.398 593.983l.552.083" clip-path="url(#p73b5c41a03)" style="fill:none;stroke:#000"/><path d="m291.398 593.983.114.653-.095.89-.239.568-1.967 3.113-1.005 1.606-.653 1.523-.407 1.322-.334 1.388M293.934 593.985l-.72-.508M293.934 593.985l-.932.021M291.95 594.066l.343.003.709-.063M337.22 382.482l.238-1.028.895-2.484M337.319 378.693l.177.05.446.115.411.112M601.585 538.91l1.69-5.74 2.027-4.079 1.351-1.747 2.09-1.974 6.537-3.173 2.34-3.111 3.563-7.457-.743-5.862-1.96-3.926-.62-4.929-1.72-3.146-.614-2.33-1.1-1.713 2.088-2.447.615-5.943 1.72-2.913 5.037-2.563 3.071 1.398 3.557-1.55v-2.447l-1.591-2.412-1.972-3.064-.122-5.594 4.06-2.056 5.03-4.585.37-2.797-1.844-4.894-1.842-2.447-.246-2.913-1.222-3.105-2.464-1.323-4.294-2.523-4.1-4.545M609.03 365.716l.475 3.213.831 1.015 1.902 5.975.773 2.368 2.912 2.423.594 1.466-2.734 3.495-.415 1.917-1.07 7.046-.298 5.524.536 3.439.891 2.593 2.08 3.157-3.14 1.868.06 1.952 4.024 6.292 1.659 3.613 2.167 7.928" clip-path="url(#p73b5c41a03)" style="fill:none;stroke:#000"/><path d="m543.727 412.023.975-.299.69-.028.723.131.988.263.578.436.906.903 1.862 1.415 5.315 1.867 7.823-1.307 8.07 2.567 1.477.886 3.1-.14 3.444 1.541 5.56-.467 3.393 4.218 4.093 2.238 1.32 1.777 2.955 1.195 11.023.933 9.349-.793 2.906 1.641M342.174 383.894l-1.27.829M344.172 392.386l-1.264-2.897-.518-1.575-.213-1.178-.103-.79-.06-1.04.16-1.012M346.577 391.932l1.776-.011M346.577 391.932l-2.405.454M346.577 391.932l1.768 4.613M349.28 383.539l-1.728 1.77-.76.865-.282.453-.118.507-.202 2.42-.027 1.184.414 1.194M337.22 382.482l.515 1.279.179.958v1.429l-.03 1.448.075 1.342M338.355 390.591l-.212-.598-.184-1.055M334.351 391.216l1.687-1.24 1.139-.484.782-.554M352.425 406.697l-3.594.744M352.425 406.697l-.21-2.005M352.425 406.697l.52 2.361M357.992 406.356l-3.268.045-2.3.296M302.031 387.229l5.046-6.357 1.594-1.863 1.34-1.734.86-1.092.568-.496.692-.264M307.297 374.713h.36l2.781.394.522.101 1.17.215" clip-path="url(#p73b5c41a03)" style="fill:none;stroke:#000"/><path d="m319.292 382.926-.389-.232-.261-.284-.223-.48-.322-.816-.423-1.144-.494-.6-.872-.478-1.26-.554-.66-.349-.452-.439-.44-1.018-.616-.813-.75-.296M347.88 401.395l-2.98-5.316-.728-3.693M277.875 422.36l1.111-1.305 1.112-1.573.81-.485.777-.168h1.023l1.376-.016.953-.184 2.24-1.222.936-.184 2.24-.083 1.605.2 1.235.084 1.164-.067 1.235-.184 1.359-.468 1.887-.904 2.029-.887 1.358-1.037 1.764-1.858.759-.82 1.446-.735.865-.553 1.181-.786.812-.67.97-1.087.653-.535 1.923-1.272 1.235-.92.758-.753.653-1.306.459-1.12.458-.803.477-.436 1.11-.72 1.36-1.371 1.181-1.456 1.535-1.037 1.449-1.689 1.517-2.191.774-.91.63-.746.676-.658.483-.738.328-.652.19-.754.182-1.112" clip-path="url(#p73b5c41a03)" style="fill:none;stroke:#000"/><path d="m324.183 385.606.863.424.737.182 1.206.051 1.164-.074" clip-path="url(#p73b5c41a03)" style="fill:none;stroke:#000"/><path d="m330.241 382.044-1.336 2.51-.752 1.635M330.241 382.044l-.251 2.897-.48 1.574-1.357-.326M317.825 340.783l-3.486-1.743M322.324 347.878l-1.907-3.529-.8-1.242-.679-.91-1.113-1.414" clip-path="url(#p73b5c41a03)" style="fill:none;stroke:#000"/><path d="m321.8 343.615-.973-.81-1.028-.89-1.045-.669-.93-.463M324.183 385.606l-1.065-.924-1.392-1.174-.765-.253-.668-.139-.492-.058-.509-.132M318.719 378.295l.383.611.031.496v1.078l-.169.918.062.655.266.873M263.525 287.627l-.676-.306-.523.015-.752.16-.844.333-.907.556-.538.728-.413.407-.416.249-.798.262-.975.299-1.283.495-1.45.457-.646.002-.637-.131-.587-.326-.304-.403-.33-.575-.342-.92-.219-.646-.215-.415-.39-.446-.853-.202-.96-.046-1.142-.225-2-.684-1.12-.495-.748-.468-.312-.4-.307-.669-.445-.721-.66-.752M347.88 401.395l.465-4.85M348.831 407.44l-.611-2.401-.279-1.91-.062-1.734M263.525 287.627l2.276 4.304M253.698 269.826l.918 1.305.035 1.171-.6 1.875-.035 1.472.211 1.54-.105 1.271-.67 1.306-.847.87-.353.803.423.703 1.058.535.847.101.812-.134h2.152l1.787-.28 1.39.15.469.102.527.316.287.442.169.524.283 1.08.055.304.107.378.277.67.63 1.297M337.22 382.482l-2.242 5.785-.684 1.733-.08.5.01.353.127.363" clip-path="url(#p73b5c41a03)" style="fill:none;stroke:#000"/><path d="m339.11 396.666-.955-1.016-1.066-.984-.838-.945-1.124-1.578-.776-.927M321.267 388.157l-.41-1.375.143-.152 1.262-.61 1.305-.318.616-.096M331.445 376.619l-.346.655-.226.673-.36 1.834-.272 2.263M337.319 378.693l-1.539 4.314-3.935-.802-1.604-.161M276.852 316.464l1.99 2.575M278.88 311.94l.776 1.114.225.604-.031.532-.185.342-2.813 1.932" clip-path="url(#p73b5c41a03)" style="fill:none;stroke:#000"/><path d="m271.3 316.487 1.21-.619 1.606-.883.838-.265.649.205 1.25 1.54M323.2 359.81l-.323-.049M323.2 359.81l-.223-.32M324.281 365.576l-.006-.482.601-3.016.048-.539-.096-.38-.464-.44-1.163-.908M265.801 291.931l.12.57.022.611-.1.525-.115.43-.3.596-.66.953-.4.49-.544.597-.369.62-.507.976-.79 1.485-.315.809-.053.917.23 1.115.462 1.002.712.877.875.765 1.728 1.413 1.229 1.348.73.94.624.715.85.698.629.37.709.222.78.172.746-.022.914-.029 2.757-.11 1.112.045.745.19.628.315.63.403" clip-path="url(#p73b5c41a03)" style="fill:none;stroke:#000"/><path d="m274.026 298.215-.292.378-.061.307.096.444.525.796.214.673.353.674.278.473.492.502.305.408.197.495-.017.451-.093.452-.034.67.039 1.767.033 2.345.187.494.42.337 1.142.57.427.412.328.495.314.581M331.445 376.619l.298-.388M336.985 378.603l-3.554-.988-1.986-.996M282.877 275.122l.194.636v.641l-.337.787-.768.816-.86 1.107-.83.553-.86.146-1.535.845-.4.291-.307.787-1.351 2.273-.491.7-.738.261-.706-.087-.46.379v.466l.122.476.154.427-.123.379-.891.174-.492.467-.337 1.398-.246.67-.43.35-.676-.03-.767-.232-.8.204-.767.175-.922.378-.798.67-.654.702M353.174 357.841l.598-1.85M353.174 357.841l-.46 1.578M343.676 354.324l4.865.989.329.093.36.151 3.944 2.284M361.26 362.059l1.045-3.496M352.01 361.282l-.424 1.69 2.513.808 7.88 2.23.538-1.453.014-.402-.193-1.463-.228-.267-.85-.366M352.715 359.419l2.668.936 5.878 1.704M349.728 510.17l-2.642 3.729-.43 2.913.43 1.631.983 1.049 2.272.757 1.229.932 3.563 1.34 1.966-.35 2.948.234 2.95-1.049 1.473-2.389 6.266-7.398 1.843-.641.538.285M295.11 552.687l1.363-3.583 1.2-2.287 1.587-1.939 4.862-5.453 2.252-2.413 1.898-1.676 2.845-1.394 3.891-1.305 2.202-1.085 3.592-3.303 5.472-5.728 2.877-4.343 1.58-3.42 2.514-2.076 4.012-1.576 3.445-1.384 2.755-.576 4.054-.231 1.11-.71M349.728 510.17l-.677-.99-.43-.976M363.61 355.11l3.117-5.01.15-.416.09-.396.213-4.418-3.905-1.175-1.194-.3-1.102-.153M345.827 342.38l.543.14.636.168.625.106 1.65.211.6.175.606.302 2.557 1.905.63.547.781.794.408.336.47.133.525-.072.698-.256.653-.358.414-.482.275-.66.337-.747.308-.51.574-.38.712-.22 1.15-.27" clip-path="url(#p73b5c41a03)" style="fill:none;stroke:#000"/><path d="m363.293 339.137-1.756 1.402-.498.47-.227.504-.015.517.182 1.212M361.718 347.757l.246-.204.138-.364.169-.714.03-.655-.137-.583-.385-.714-.8-1.281M356.844 328.077l.43.27.397.301.143.422-.056.436-.168.438-.2.365-.193.719-.332 1.623-.018.738.028.606.162.6.284.57.216.341.357.146 1.033.262.871.35.503.219.479.341 2.513 2.313M369.305 335.433l-.507.044-.453-.03-.787-.189-.358.03-.291.145-2.61 2.666-1.006 1.038M374.127 338.74l.23.626.03.583-.122.64-.138.307-.23.16-.246-.102-.353-.568-.569-.423-.445-.174-.568-.102-2.074.145-.998.16-.814.277-.783.394-.415.247-.307.03-.291-.073-2.74-1.73M352.01 361.282l.705-1.863M343.122 357.948l3.66.6.564.188 4.665 2.546M356.623 383.807l-.569.226-.66.371-2.472 2.003M351.348 388.031l.865-1.003.709-.62" clip-path="url(#p73b5c41a03)" style="fill:none;stroke:#000"/><path d="m351.802 402.053-.004-2.15.085-1.004.155-1.924.544-2.03.785-2.769.051-.953.17-3.384-.014-.47-.17-.4-.482-.562M353.628 414.208l-.254-2.701M356.423 411.44l-.184 2.68-2.611.088M351.432 420.544l1.395-.415.607-.244.363-.303.12-.458-.03-2.141-.26-2.775M414.965 412.64l2.826 4.078 1.229 2.797 3.624 4.02 3.978 2.267.122 3.554-.906 3.21.645 1.974M432.135 434.83l-4.208.417-1.444-.707" clip-path="url(#p73b5c41a03)" style="fill:none;stroke:#000"/><path d="m423.44 442.162 1.444-4.807.338-.728 1.261-2.087M349.205 394.142l.758-2.147.632-2.172.753-1.792M350.092 387.71l.37-.1.446.117.44.304M349.205 394.142l-.86 2.403" clip-path="url(#p73b5c41a03)" style="fill:none;stroke:#000"/><path d="m348.353 391.92.044.519.314.787.494.916M380.017 387.941l.802-.22.974-.306 1.64-.7M440.057 319.414l-.891.38-3.716.145-.922.116-.584.222-.736.536-2.243 2.069-.713.573-1.56.737-1.044.467-.799.67-3.9 3.904-.83.961-.645.903-2.04 3.552-.693.993-1.198.904-3.102 1.486-.921.728-6.359 5.39-4.822 4.428-1.597 1.865-.798 1.37-1.717 2.728-.848 1.51-.721 1.306-1.783 3.4-.498 1.085-.377 1.172-.307 1.297-.322 1.558-.307 1.326-.433 1.295-1.291 3.48-1.642 4.167-1.257 3.178-1.11 2.668-.674 1.352-.75 1.105-.847.916-.816.786-.811.574M380.703 389.051l.252-.46.37-.414.647-.469.57-.32.89-.672M419.885 409.656l-1.121.809-1.16.582-2.639 1.593M380.78 390.45l4.07 5.753 5.728 7.406 6.496 5.238 2.718 3.968 1.474.35 2.949-.933 3.133 1.107 1.536.059 6.081-.758M353.374 411.507l-.429-2.449M353.374 411.507l3.049-.067M343.676 354.324l.2-1.355-2.223-1.234-3.613-1.388" clip-path="url(#p73b5c41a03)" style="fill:none;stroke:#000"/><path d="m321.917 344.272 1.24.624.38.259.387.374 2.629 3.303.533.552.564.523.572.47.609.367.577.28.83.17 2.52.16.614-.03.66-.154 1.36-.586.648-.235.68-.09.721.015.6.073M341.067 346.375l-2.212 3.535-.354.284-.46.153M343.122 357.948l.225-1.842M343.347 356.106l-5.168-.777.046 1.952 4.897.667M357.406 408.818l-.983 2.623M357.406 408.818l-4.46.24M357.992 406.356l.059 1.114-.645 1.348M406.488 487.391l-1.305.635-3.994.582-1.52.88-1.06 1.509-.736 1.573-3.18 3.676-7.31 7.108-1.412 2.097M350.092 387.71l-.462.583-.362.532-.27.532-.256.678-.2.824-.19 1.062M366.272 382.516l-.158.677-.143.604-.023.51.068.51.277 1.078.261 1.005.154.605.108.677.102.663.174.536.394.69.609.764.652.513.576.558.415.55.43.695 4.546 7.947-.538 1.112-8.738 3.84-2.32-5.005-1.304-1.404-2.028-.816M364.627 380.84l-.19.888-.432 1.652-.196.774-.23.422-.353.291-.538.074-1.128-.074-1.59-.16-.737-.087-.745-.233-.638-.247-.613-.21-.614-.123M349.28 383.539l.398-.401.552-.286.739-.158.937-.03.858-.05.66-.063.598-.106h.691l.63.13 1.116.557.178.264-.014.41M395.907 482.258l-4.285.938-1.29 1.69-9.583 6.408-4.853.99-2.764-.116-3.809 1.748-10.504 7.34-2.396 4.661-2.089 2.622-1.78.874-2.826.757M362.305 358.563l1.305-3.452M353.772 355.99l2.628.815 5.905 1.758M351.432 420.544l2.764 4.558 2.09 5.07 1.105 3.204.614 3.205 4.192 5.191 3.993 4.195 3.747 1.69 2.273 4.136-.245 2.447.553.815 2.011.578 3.686 1.63 1.106 1.108-.108 1.812 2.258 3.723 1.735 1.054 4.776 1.393 1.613 1.695 1.106.816.245 2.039-.245 1.456 1.597 2.272 1.843.642.414 1.45-.291 1.055 1.643 4.48M407.155 485.758l-1.282-.547-1.165-.435-2.999-.971-2.293-.569-1.552-.435-.953-.502-1.004-.041M380.703 389.051l-.076-.352-.168-.324-.221-.26-.221-.174M380.78 390.45l-.115-.605.004-.397.034-.397M322.324 347.878l-.407-3.606M322.675 357.026l.198-2.205-.55-6.943M343.676 354.324l-.33 1.782M406.488 487.391l.667-1.633M453.3 489.95l-5.165 1.026-3.87-1.34-2.642 1.078-4.637-2.36-8.355 4.079-4.27 1.398-2.426 2.826-3.317-.35-1.935-1.107-1.443-2.738-.338-2.243-2.365-1.078-2.704 2.156-1.535-.816-1.81-3.09M407.155 485.758l.24-.587 1.305-1.398 1.72-.344 2.196.32 3.993-.675 2.334-.175M460.424 444.96l-.486 1.547-.861 2.1-2.239.257-2.608-.7-.664-1.54v-1.728l-.33-1.377-2.412-4.2-1.213-1.043-6.757-.582-3.947-1.987-5.697-.46-1.075-.416M456.496 490.008l-.221-.244-.553-.583-.185-.437-.368-.437-1.382-.961-1.106-.67-.154-.215-.061-.339.391-.986.27-.78.26-.94.315-.738.3-.39.145-.305.077-.365-.038-.356-.154-.372-.337-.456-.508-.615-.284-.52-.138-.732.008-.852.039-1.104-.108-.608-.192-.383-.438-.4-.284-.394-.038-.393.053-.382.3-.523.522-.566 1.19-.969 2.12-1.631.122-.641-.46-2.448.03-.699 1.014-1.98 1.966-1.807.568-.562.292-.778-.154-.475-.446-.64-.475-.837-.307-1.835-.277-.874-.491-.7-.553-.582-2.98-1.777-1.75-.116-.369-.204v-1.166l-.153-.582-.277-.554-1.074-1.34-1.29-1.718-.922-2.331-.737-1.02-1.198-.757-2.734-1.136-1.567-.874-.89-.35-.184-.175-.891-.32-1.904-1.31-3.256-1.69-1.597-1.457-.858-1.796M321.917 344.272l-.118-.657M341.067 346.375l.713-1.415.223-.396.45-.41 2.05-1.531.594-.208.73-.036" clip-path="url(#p73b5c41a03)" style="fill:none;stroke:#000"/><path d="m331.276 342.736 3.675.918 2.703-1.456 3.133.16 2.78-.583.629-.145.638.14.546.3.447.31M379.734 389.376l.634.507.412.566M578.149 363.282l-2.917 6.069-6.634 5.186-6.45.932-6.972.029-3.87 1.777-1.874 5.797-1.536 7.896 2.273 6.322-1.29 3.729-5.437 2.068-.737 1.602-.015 3.336.43.874.26.874.262 1.252.085.998M541.574 413.695l.656-.252.905-.815.592-.605" clip-path="url(#p73b5c41a03)" style="fill:none;stroke:#000"/><path d="m437.892 421.052.485.49 6.496 3.173 2.706-1.4 2.263-4.154 8.513.187 8.611 1.587 7.185-1.634 4.822 4.387 3.15.467 4.526-3.08 3.346-5.461 3.198-.84 6.398-5.18 8.316-3.501 5.954-3.22 3.1 1.073 3.543 3.454.394 3.127 2.017.84 4.182-2.474 3.839.607 1.88 1.38.736.48.86.35.792.112.975-.04 1.72-.261 1.29-.015.893.188.504.41.46.655.528.936M556.908 423.954l-.166-.62-1.413-1.69-1.843-.874-3.44-1.69-4.561-1.442-.875-.334-.569-.452-.26-.568-.323-.684-.446-.525-.798-.699-.64-.68M546.173 476.889l-8.611-.653-9.595-1.307-3.445-2.474-3.666-.816-3.887.186-5.462-.56-3.001-1.563-3.273-2.73-3.715-.397-4.133-1.914-3.076-2.636-2.632-2.684-1.92.933-2.435.63-1.747-.49-1.895-4.34-2.583-2.24-2.805-.35-1.919-1.517-2.091-3.734-3.174-2.426-2.756-.49-3.985-.607-2.56-.677-1.383.926" clip-path="url(#p73b5c41a03)" style="fill:none;stroke:#000"/><path d="m460.759 437.413-1.013-.058-.37.379.154.816 1.045 3.087-.151 3.322M547.24 477.128l-.528-.368-.539.129M535.154 463.02l-.987 2.555 5.958 7.544 4.3 1.778 1.748 1.992M342.299 286.607l-.634.465-1.185.816-1.176 1.108-1.34 1.121-2.007 1.494-2.093 1.315-.804.353-.788.318-4.547 1.449-3.088.841-2.09.462-1.83.152-2.175.061-1.407.105-1.112.236-.957.275-.801.109-.863-.066-.673-.402-.69-.639-.436-.195-.407.067M332.401 317.241l-.091-.296-.21-.113-1.333-.164-1.45-.174-1.123-.284-1.17-.645-.742-.994-.407-1.114-.514-1.072-.951-.793-.982-.458-.673-.567-.364-.61-.484-.489-1.416-.624-.956-.537-1.482-1.219-.493-.451-.862-.364-.816-.822-1.154-.706-.929-.5-.775-.616-.936-1.057-.454-.961-.209-1.02-.324-1.804-.16-1.3.023-1.197.232-.238" clip-path="url(#p73b5c41a03)" style="fill:none;stroke:#000"/><path d="m282.877 275.122.658-.985 1.536-.378 5.129 1.369 2.242-.525 1.782-1.107 1.781.117 1.751-.874 2.68-.388 1.967-1.71 1.936-.965 1.983-.415.825.305.32.163.399.251.627.852 1.958 2.337.932 1.016.419.884-.373.794-.512 1.193v1.457l.652 2.253.204 1.28.029.177.383 1.442.62.535 2.987-.631.73-.08.2.35-.699.554-3.402 1.253-1.192 1.876-.605 1.104-.838 1.678.093 2.783 1.117 2.965M359.11 122.753l.187.703.362.472.902.731.211.527 1.57 1.734 1.575 1.503.16.53-.1.56-.516 1.134-.066.468.576 1.36.054 1.16.263.507.555.54.226.535.046 1.666-.527 6.202.263.44.549.39.241.377.509 2.43.01 1.088-.322 1.463-.533 1.283-.091.64-.07 2.733-.337 1.62.144.764.78 2.474.315.639.854.946.296.672-.062.554-.749 1.29-.289.58-.43.48-1.028.552-1.022.387-.327.266-.204.325-1.03.682-.486.06-.503-.292-1.21-1.252h-.438l-.158.32.088.54.742.825.393.755.238.827.35.726.444 1.412.37.615.54.497.938.468.616.092.278.308.032.424-.078.667-.75 1.585-.065.67.22.745.474 1.117.516.593 1.96 2.08 1.276 2.617.17.688-.13 1.994-.502 3.603.07.704.91 2.042.02.708-.514 2.293-.545 2.367-.02 2.007-.033.893-.594 2.897-.336.836-.384.476-.553.186-.911.025-.886.26-.747.538-.727.67-.547.844-.501 1.02-.527.558-2.66 2.448-.231.413-.396 3.73-.329.174-.855-.087-.517.263-.296.37-.241 1.103-.332 2.574.082.73-.43 1.389.036 1.657.283.923.495.883 2.179 2.893.84 1.468.704 1.525.22 1.008.342 3.033.976 4.08.464 1.738.29 3.298v8.592l-.183 1.305-.636 2.33-.759 1.782M342.299 286.607l.467-.48.354-.742.522-.728.83-1.543.553-1.019.776-1.67.56-1.175.692-1.155.461-.824.228-.763.183-.967.238-1.405.375-1.376.745-1.445.76-1.196.6-.763 1.658-1.524 1.157-.804.983-.946.676-.816.768-1.078.86-.889.399-.554 1.167-2.768.568-1.02.722-1.167M374.97 236.93l.86 3.089.061 2.156-.983 1.98-2.211 5.071-2.396 2.564-.491 2.623-.86.291-1.29.058-2.703.641-2.212.875-2.027 1.106-1.117.406M337.67 392.528l.297-.876.388-1.06M349.28 383.539l.426.63.31 1.216.223 1.333-.026.486-.121.507M339.11 396.666l.199 1.25.276 1.546.247 2.648M339.11 396.666l.46.365M339.57 397.03l.532.427.588.591.406.62.688 1.183.814 1.762.231.545.403.644.508.445M339.369 393.503l1.08 2.32 2.273 4.469.777 1.677.241 1.278M339.57 397.03l-.25-2.033.049-1.494M351.802 402.053l.118 1.082.295 1.557" clip-path="url(#p73b5c41a03)" style="fill:none;stroke:#000"/><path d="m355.875 403.652-.752.253-2.908.787M357.992 406.356l-.45-2.73-.274-.431-.394.023-.999.434M355.26 401.304l.278.698.337 1.65M355.26 401.304l-.405-1.917M355.26 401.304l-1.93.43M351.802 402.053l1.528-.32M353.445 398.602l-.062 1.551-.053 1.58M366.272 382.516l-.3-.463-.449-.567-.896-.646M375.76 388.436l1.333.136.82.137.638.137.595.177.588.353M379.607 388.013l-.019.325.012.384.075.363.059.291M366.272 382.516l1.421 3.625.62 1.039.493.692.63.38.906.312.97.125 2.147-.126 2.3-.127M379.607 388.013l-1.753.255-2.094.168M380.017 387.941l-.198.042-.212.03M336.985 378.603l.334.09M331.743 376.23l.834-.722.432-.316.49-.126.598.065 3.448.694.266.146-.826 2.632M335.76 361.529l-.649-.532-.786-.43-1.099-.378-1.1-.32-.722.016-.662.169-.555.27-.606.708-.644.677-.644.59-.962.795-1.04.823-1.05.771-.96.888M329.529 372.159l-.294-.62-.386-.59-.55-.564-.534-.447-1.21-.972-1.211-1.089-.461-.558-.384-.617-.163-.585-.055-.541M304.63 355.614l-.374.273-.958.733M326.276 358.36l-.07.86-.209.332-.558.176-.745.09-.861-.134-.856-.194M322.675 357.026l-.066.703.02.654.1.494.248.613M354.593 352.849l7.304 1.654.701.139.511.19.501.279M354.593 352.849l-2.414-.746-.54-.207-.495-.22-1.785-.949-.821-.35-.878-.249-2.243-.376-.638-.185-.59-.33-.568-.402-.52-.453-1.157-1.232-.877-.775M354.593 352.849l-.821 3.141M309.947 337.195l4.392 1.845M282.844 325.112l1.152 2.656 2.505 2.84 3.356 2.773 4.933 3.227 8.277-2.06 1.904.175 4.976 2.472M315.77 335.933l-4.44-1.055-.292.095-1.091 2.222M315.77 335.933l5.794 1.749M315.77 335.933l-1.43 3.107M321.398 327.65l.293 2.172.279 1.56.133 1.119-.072 1.01-.41 3.371-.057.8M321.8 343.615l-.21-2.5-.026-3.433" clip-path="url(#p73b5c41a03)" style="fill:none;stroke:#000"/><path d="m326.181 341.357-.186.001-1.003.414-1.524.913-1.669.93M235.382 308.471l.675.199 1.7.684 1.466.486 1.257.287 1.467.464.558.066.978.089 1.7.176 1.396-.022 1.56-.177 1.652-.33 1.792-.398 1.374-.221 1.187.132 1.443.332.838.198.838.023 1.07.066 1.584.375.838.375 1.047 1.016 1.234.795 1.397.552 2.49 1.37 2.049 1.059 1.21.42h1.118" clip-path="url(#p73b5c41a03)" style="fill:none;stroke:#000"/><path d="m238.138 335.76 2.35-4.095.13-.94.561-1.113 5.283-1.574 3.686 1.224 3.624.35 7.065-2.564 3.378-4.778 5.16-2.564 1.659-1.69.266-1.53M191.621 324.038h.861l.582.044.582.265.536-.11.162-.486-.093-.883.163-1.105.443-.617.675-.332.837-.375 1.746-.817 1.024-.597.839-.33.837-.177 1.444.088 1.35-.088.768-.154.745-.443.814-1.103.233-.928.233-.905.442-.508.978-.574 1.048-.596.907-.199 1 .044 1.468.442 2.467.728 1.164.354.955.066 1.14-.706 1.094-.751.908-.972.838-.53 1.047-.596.652-.574.326-.883.512-1.457.42-1.082.418-.707.792-.64.814-.2 1.047.045 1.397.398 1.56.596 1.28.794 2.002.752 1.327.264.977-.022M228.711 299.41l.21.756.53 2.477 1.692 1.505.565.637 1.73 2.008 1.944 1.678M189.817 322.361l.353.05.212.117.07.302.09.56.258.416.821.232" clip-path="url(#p73b5c41a03)" style="fill:none;stroke:#000"/><path d="m200.598 354.376-1.897-1.399-1.198-4.923-.952-.787.491-2.01-.89-.67.215-1.632-1.23-2.01-.318-2.623.037-.605-.24-.609-1.273-1.009-1.585-1.45-.944-1.963-.632-.397-.256-.464-.14-.353.07-.53.14-.596.279-.486.163-.53.093-.552v-.795l-.116-.772-.11-.764.604-1.075.712-1.334M193.822 289.533l.876.358 2.347 1.788 1.043.553 1.41.097 1.409-.196 1.87.301 2.152.536 2.293.469 1.588-.134 1.376.2 1.694.737 1.41 1.205 1.236 1.271.6.47 1.058.1 1.306-.068 1.48.213 1.38.463.693.665.68.467.847.02.847-.388 1.094-.034 1.388.238 1.28-.013.797.221.735.338M209.128 274.895l-1.051 1.959-.085.532.353.433.492.36.338.693.583.408 1.03.25.905.733 1.136.299 1.076.276 1.516.543 1.394.34.856.542.641.688 1.382 1.675.876 2.01.587.77.834.448.316.606.908.513.372.733.897.505.996.458 1.225 1.409.822 1.1.395.74.195 1.339.594 4.153M188.875 282.424l1.377 1.577 1.658 2.845 1.912 2.687" clip-path="url(#p73b5c41a03)" style="fill:none;stroke:#000"/><path d="m180.224 286.993.242-.264.594-.775.487-.468.5-.08.556-.011.739.155 1.122.136.806-.078.715.038.785.28.78.58 1.721 1.056.538.353.361.483.488.387.842.426.843.208 1.48.114M283.96 458.885l-.034-3.078-.054-.954.106-.569.477-.401.882-.452.441-.586.565-1.322.758-.92.9-.3 1.305.133 1.658.218 1.588.1 1.446-.1 1.2-.285.635-.586.353-.77.07-.903-.37-.77-.865-1.104-1.428-1.539-1.958-1.824-.565-.82-.458-.853-.336-1.121-.476-.619-1.058-.586-1.835-.92-1.253-.836-1.093-1.121-1.94-1.54-1.412-.82-1.27-.318-.936-.317-.299-.452-.547-1.004-.67-2.31-.723-2.894-.071-1.522.458-1.021.724-1.44" clip-path="url(#p73b5c41a03)" style="fill:none;stroke:#000"/><path d="m236.32 443.1.605-.928.768-.375 1.118-.221.512-.199.419-.397.419-.751.547-2.048.614-1.078.583-.437.707-.174.675.058 1.598.86.645.378.46.059.523-.248.675-.845.6-.743.66-.451.89-.35 1.045-.044.922.16.967.32.89.307.554.102 1.197-.044h.86l1.167.175 1.137.277 1.044.466.998.32.907.19 1.013.116.983.248.707.014.522-.13.644-.423.984-.7 3.194-3.16.599-.728.23-.54-.031-.611-.307-1.136-.046-2.112-.092-.845-.23-.553-.384-.568-.231-.496.077-.495.26-.277.6-.102 1.044-.19 1.582-.45 1.705-.642 1.69-.612.997-.35.63-.203.709-.134M289.57 468.305l-.81-.535-.989-.62-.705-.619-.265-.719v-.853l.194-1.84.017-1.373-.088-.87-.352-.602-.688-.603-1.923-.786M239.136 449.612l1.257.839 1.001.42.908.441 1.024.927 1.21.773 1.141.816 1.28 1.546 1.188 1.502.79.507 2.794 1.634 1.164.486 1.28-.004.879 1.15 2.17-.264 1.212.045.93.176.768.287 1.537.177 1.35.618 1.792 1.303 1.001.375 1.35.243.908-.177.722-.574.791-.353 1.164-.177 1.327-.772 1.769-.619 1.234-.353 2.863-.574 2.676-.397 2.235-.552 1.11-.176" clip-path="url(#p73b5c41a03)" style="fill:none;stroke:#000"/><path d="m243.047 455.33-2.188-3.422-.838-.993-.815-.619-.07-.684M236.32 443.1l1.513 1.169.489.795.372 1.126.442 3.422M234.862 443.45l.722-.397.736.046M220.71 408.325l-.42 1.181-.116.773.314 1.656-.058.695-.21.784-.174 1.314-.291.938-.373 1.17-.233 1.347-.465 1.568-.885 2.76-.488 1.17-.105.64.116 1.479.129 1.877.116.717.419.916 1.117 2.948 1.13 2.925.895 2.02.791 1.402.57.674.664.375 1.897.74 1.315.695 3.353 2.042 1.547.497 1.397.176 1.362-.088.838-.265M203.262 475.246l.983.044.937.145.814-.072 1.628-.448 1.459-.815 2.15-2.302 1.013-.64 2.211-1.02.738-.496 3.777-3.38 3.38-3.467 3.409-2.854 1.72-2.01 1.382-2.01.952-.933 1.505-1.137.983-1.02.307-.553.46-1.31.123-.875.983-3.06.686-3.582M221.698 406.768l-.36.63-.629.927" clip-path="url(#p73b5c41a03)" style="fill:none;stroke:#000"/><path d="m135.669 467.872-.07-1.382.071-1.238-.035-1.44v-1.27l.318-1.774.882-1.974.952-1.172 1.376-.602 1.623-.234 2.188-.167 1.41-.369 2.577-.87 1.376-.3.952-.268 1.164-.97 1.518-.201 2.116.1 1.658.134.636.067.846.535h.777l.529-.301.212-.469.035-.669-.176-1.104.106-.77.246-.335.741-.435.918-.735.529-.737.74-1.171.918-.937.812-.535.67-.402.388-.569.459-1.104.459-1.038.493-.803 1.165-.836 1.446-1.171.953-.268 1.164.1 1.447.77.917.2.458-.501.565-.937.74-.97 1.73-1.138 1.058-.47 1.412-.032.705-.168 1.059-.435 1.235-.502.74-.134 1.094-.033.777-.268.705-.703.6-.836.529-.736 1.658-1.004.812-.703 1.129-1.573.811-.401.988-.1 1.517.267 1.537.84 1.583 2.693.987 3.359.161.355 1.016 1.724 1.284 2.36.829 1.952.588 2.561.347 2.384-.16.938-.16.71.32.609.936.456.963.229 1.016-.203.963-.507 1.096-.786 1.203-.254 1.578.152 1.55.05 1.364-.075.481-.28.321-.405.722-.609.455-.938-.401-.99-.241-1.42-.16-2.586-.108-2.08-.347-1.318-.642-.837-.775-.939-.294-.76v-.913l.134-1.522-.321-1.166-.776-.761-.828-.558-.429-.507-.668-1.953-.562-2.562-.08-1.775.214-1.648.695-1.395.803-1.015 1.096-.76 1.738-.914 1.47-.735 1.016-.634.83-.964.641-1.116.188-1.572.213-.862.83-1.446.801-1.395.936-1.116 1.26-.552M221.698 406.768l-.337-.43M222.467 406.084l-.443.364-.326.32M222.467 406.084l-1.106.254M226.862 400.852l-.015.772.276 1.5.384 2.637-.122.51-.339.276-.599.087-1.351-.233-1.428-.335-.476-.087-.725.105" clip-path="url(#p73b5c41a03)" style="fill:none;stroke:#000"/><path d="m199.006 419.338.722-2.181.187-1.142.134-.507.642-.178 1.15.051 1.122.077.802-.305.642-.304 1.364-.33.4.584.402.659.562.102.935-.077.75.05h.56l.722-.253 1.017-.431 1.283-.127.829-.33.535-.507.294-.659.107-.888.24-1.166.428-1.268.589-.863 1.096-1.192 1.176-.735 1.739-.634 1.926-.446M257.76 382.76l-.229.175-.906.597-1.751.932-1.228.889-.738 1.121-1.152 2.287-.671 1.187-.618 1.538-.584.815-1.167.99-.66.642-.538.611-1.106 1.428-1.382 1.675-.353.146-.568-.044-.584-.291-.814-.598-.891-.378-1.044-.233-2.273-.219h-.63l-.767.306-.692.291-.706.16-.891.03-1.198-.044-1.013.16-1.613.54-1.366.611-.891.626-1.014.889-.86 1.253M225.392 396.603l.307.728.553 2.768.184.408.426.345M284.897 380.364l-.706-.015-.645.204-2.058.904-2.41 1.034-1.276.32-1.075.073-.936-.102-1.014-.291-1.075-.54-.998-.437-.89-.13-1.199-.015-.967.175-1.09.204-.722-.16-1.045-.35-1.152-.51-1.274-.918-1.106-.655-.476-.044-.675.233-.815.641-1.275 1.092-2.257 1.683" clip-path="url(#p73b5c41a03)" style="fill:none;stroke:#000"/><path d="m260.638 371.52-.159.602-.194.502.071.736.37.686.406.887.16.636-.054.836-.635 2.092-.582.92-1.147.971-.74.753-.16.72-.213.9M302.031 387.229l-.24.302-.891.539-1.182.32-1.843.131-2.504-.13-1.92-.249-1.55-.48-1.322-.67-1.135-.918-.922-.888-.86-1.122-1.167-1.981-1.106-1.515-.492-.204" clip-path="url(#p73b5c41a03)" style="fill:none;stroke:#000"/><path d="m278.747 364.413.23 2.427.124 1.456.189 1.362.388 2.36.441 2.944.07 1.138-.317 1.456-.635 1.204-.212.536.071.435.476.234 1.2-.017 1.993-.183h.917l.9.284.315.315M307.297 374.713l-.361.534-2.968 3.664-4.559 5.567-.147.355.067.305 2.702 2.09M278.747 364.413l.731-.566.856-.684.748-.533.856-.355 1.096-.228.83-.051.882.101.962.305.776.228h3.2889999999999997l.48-.228.83-.457.4-.102h.482l.455.153.347.355.91 1.243.427.634.455.507.481.28.856.456.561.43 1.31 1.674 2.594 3.044 1.792 2.08.802.888.374.253.508.127 1.952.38 1.508.366M267.012 359.15l.988.368.917-.168.847-.451 1.782-.687 1.746-.686 1.782-.083.953.117.475.452.724 1.221.459 1.74 1.062 3.44M200.598 354.376l.012-.903.054-1.395.454-1.623.775-1.395 1.552-1.141.989-.406 1.845-.99 1.979-.405 1.924.126 1.044.406 1.71 1.953.91.736 1.123.938.829 1.243.32 1.268.509 1.446 1.31 1.014 1.55.71 1.418.356 3.93-1.269 2.06.355 1.577.761 3.77 2.486 1.845 1.623M200.598 354.376l-.015 1.151-.08 4.59-.24 1.7-1.097 1.852-1.604 2.283-1.979 1.8-1.364.837-.828.33-.802.177-1.043.457-1.337-.178-1.123.05-1.497-.151-1.31.38-1.097 1.141-.695 1.091-3.289 2.435-1.07.33-1.283-.026-1.524-.101-.99.025-.989.254-1.15.456-2.38.761-1.55 1.648-2.14 2.157-1.256 1.116-.481 1.826-.615 1.673-.936 1.573-.722.887-1.016.634-.428.71-.348 1.42-.855 1.244-.83 1.318-.373 1.624-.214 1.242.4 1.04.83 1.142.802.43 1.283.254 1.203.355 2.086 1.192 2.941 2.486 3.824 3.144 1.15.559 1.257.202 1.684.102 1.524.101 2.888.558 5.16 1.09 2.54.863 1.739 1.37 1.79 1.673 1.338.66 1.31.304 2.193.101 2.005-.43h1.257l.668.152.215.456-.268.38-1.096.305-.963.634-.454.66-.16 1.622.08 1.167-.268 1.674" clip-path="url(#p73b5c41a03)" style="fill:none;stroke:#000"/><path d="M171.24 415.319h.91l1.524.406 1.203.507 1.203.228 1.123.457 1.176.811 1.043.406.776.102 1.39.05.722.33.348.812.374.481 1.016.381 3.316.507 1.55.102 1.177-.28 1.925-.151 2.62-.128 3.102-.126.83-.38.438-.496M293.921 555.015l-.151.253-.644 1.573" clip-path="url(#p73b5c41a03)" style="fill:none;stroke:#000"/><path d="m292.624 554.982.353.597.149 1.262M292.624 554.982l.69.058.607-.025M291.118 554.618l.891.197.615.167M275.73 548.909l.246.364 2.488 2.548 1.781 1.442 3.241 1.66.952.365 3.655-.525 3.025-.145M293.002 554.252l-.716.206-1.168.16M295.11 552.687l-.95 1.926M295.11 552.687l-.797.795-1.014.685-.297.085M293.921 555.015l.24-.402M294.16 554.613l-.4-.185-.758-.176M275.469 546.418l-.107 1.107.368 1.384" clip-path="url(#p73b5c41a03)" style="fill:none;stroke:#000"/><path d="m273.903 548.006 1.044.393.783.51M275.469 546.418l-1.566 1.588M275.469 546.418l.722-1.558M262.446 548.108l5.729-.32 2.78-.074 2.948.292M253.032 548.093l2.642.524 2.733.481.615.029 1.765-.495 1.659-.524" clip-path="url(#p73b5c41a03)" style="fill:none;stroke:#000"/><path d="m223.047 551.08.953-.365.77-.365 1.256-.807 1.823-.846 1.642-.634.684-.172.988-.06 1.306.102 1.428.408 1.32.218.845.044 1.106-.51 1.336-.553.967-.146 1.629.262 1.305.233 1.735-.189 3.149-.291 1.75-.204 1.06.073 2.933.815" clip-path="url(#p73b5c41a03)" style="fill:none;stroke:#000"/><path d="m250.947 590.509-1.106-2.185-1.505-1.107-1.659-1.514-.092-.758.492-2.854-.216-.787-.736-.611-.953-.787-.798-2.505-.154-1.485.246-1.282 2.119-2.738-.184-.932-1.044-1.078-.584-1.048.154-1.573 1.412-2.825 2.519-2.36.921-2.213.216-1.136-.83-2.535-.276-2.33.215-.582 3.04-4.486.888-.705M209.535 540.876l.836.966 1.409 1.782 1.56 2.248 1.358.922 3.506 2.46 2.452 1.288 1.5.442.89.096M228.586 554.42l-1.996-1.457-2.918-1.165-.625-.718M209.274 540.657l.261.219M189.084 527.745l1.88 1.354 1.594 1.304.269.24 1.13.94 1.017.356.963.203 1.016.203.962.456.963.76 2.086 1.42 1.764.812 3.958 2.08 1.978 1.318.61 1.466" clip-path="url(#p73b5c41a03)" style="fill:none;stroke:#000"/><path d="m204.679 544.242.191-.253 1.844-2.268 1.155-.634 1.405-.43M167.968 532.978l.722.355.668.406.75-.025 1.015-.532 2.353-1.066 1.685-.836 1.176-.812 1.845-.938 2.086-1.141 1.738-.735 1.604-.482.99-.457.989.127 1.283.43 1.257.204.955.27M182.969 512.92l3.574 8.627.41 2.886.32.938.856 1.09.955 1.284" clip-path="url(#p73b5c41a03)" style="fill:none;stroke:#000"/><path d="m207.144 498.416-.7-.23-.962.153-.855.228-.99.026-.802.557-1.042 1.04-1.23.685-1.364.583-1.257.634-.776.634-.748 1.116-.91.634-1.496.684-1.364.964-1.283.761-1.391.482-1.417.735-1.284 1.217-1.417 1.192-.722.406-1.203.634-.535.608-.427.761M135.669 467.872l.336-.721.295-1.522.507-1.623.642-.989.615-.634.856-.558.963-.152.695.025 1.042.254 1.364.583 1.363.558 1.23.101 1.204.254.749.254.508.482.775 1.293.455 1.623-.294 2.434-.241 2.156-.455.609-1.952.837-2.005.735-.562.482-.214.735.081 1.04.588.939 1.364 1.242 2.272 1.446.856.38 5.267.406 1.284-.026 1.711-.735 2.567-.964 2.701-.862 3.583-.76h1.55l1.418.506 1.925 1.116 1.685 1.141 5.723 6.53 3.225 3.583 1.843 1.981.4 1.281v1.982l-.461 4.31-1.045 4.778-.583 1.806-.676.816-.86 1.02-.276.436.03.466 1.167 1.282 1.29 1.485.795 1.207" clip-path="url(#p73b5c41a03)" style="fill:none;stroke:#000"/><path d="m204.814 507.645 1.123-1.572.32-.887.188-1.192.24-1.674.402-.913.588-.583.201-.362.07-.317-.012-.41-.103-.58-.294-.486-.393-.253M203.262 475.246l.983 1.092.476.947.507 1.136.292.816.292.888.03 1.006.062 1.849-.108 1.063-.215.947-.276 1.18-.254 1.347-.03.838.345 1.34.115.728.031.947.146 1.056.176.888.208.852.146.386.345.459.484.539.246.415.1.371-.039.641-.03.67-.054.524-.096.245M204.814 507.645l.214 1.345.561 1.521.268.634-2.434-1.699-1.176-1.116v-.481l.749.202 1.042-.127.776-.279" clip-path="url(#p73b5c41a03)" style="fill:none;stroke:#000"/><path d="m204.814 507.645-.776.28-1.042.126-.75-.202v.481l1.177 1.116 2.434 1.699-.268-.634-.561-1.521-.214-1.345M226.945 535.47l-.776-.2-.688-.385-.706-.351-1.2-.134-1.287.017-1.2.15-1.146.284-1.006.57-.511.635-.212.224-.74.445-1.095.62-.564.82-.89 1.633-.331.322-.55.202-1.157.167-1.271.118-1.118.17-.962.099M148.278 587.761l1.555-1.302 2.006-1.999 2.776-2.248.912-.327 2.39-.807 1.359-.48 2.006-.27 3.607-.999 1.236-.038 1.054-.173 1.54-.25 1.965-.192 1.156-.519 1.276-.576 1.621-.327 1.115-.288 2.087-.769 2.715-1.25.892-.767.628-1.384.993-2.883.77-1.633.973-1.307 1.378-1.326 1.823-1.98 1.987-2.114 1.965-1.863 1.722-1.807 1.156-1.845.709-.807 1.723-1.806 1.357-1.5.446-.883.709-1.019.932-1.384 1.216-1.268 1.054-1.019 1.592-2.11" clip-path="url(#p73b5c41a03)" style="fill:none;stroke:#000"/><path d="m109.792 549.96.952-.03.706-.232.707-.524.675-.583.584-.116 1.29-.03.522-.232 1.413-.612 1.351-.816 1.045-.932.768-.466.798-.058 1.567.116 1.013.204h.522l.768-.407 1.137-.99.89-.263.891.029 1.32.35 1.782.408 1.659.116 1.597.204.86-.262.922-.058.92.029.707.233 1.076.786 1.72 1.515 1.32.844 1.659.758 1.966.582 2.365.466 2.795.233 1.32.38 1.567.582 1.351.174 1.966-.145 2.888-.175 2.825-.35 1.106.03 1.474.436 4.239.933 1.351.116 1.958-.138 2.328-.603 2.047-.936 2.61-1.406.643-.27.464-.081.468-.036.436-.014 4.728-.134 5.398-.469 9.103-2.81 4.35-1.064M109.822 537.406l-3.378-.35-1.167.117-1.567.262-1.013.146-.891.349-.768.67-.307.874.184.932.738 1.37 1.965 1.747 3.532 3.495 1.23 2.418.49.32.922.204M136.277 581.508l.737.496 1.536.145 1.843.32.675.38.4.524.491.903.308.67.061.582.123.553 1.628.758.676.408.552.786.584.32h.614l1.773-.592M343.911 129.798l.375-.13 1.925.102 1.765.355.214-.507.267-1.37.535-.863 1.123-1.877 1.23-.863 1.872-1.978.909-.914 2.246.204 2.738.796M330.504 133.944l-.857-.016M343.911 129.798l-.802.276-3.208-.152-2.407.812-2.246 1.42-.641.762-4.103 1.028M327.981 139.203l.294-.457.348-.431.428-.254.4.076.375-.025.188-.28.187-.354-.161-.584.08-.355.132-.548-.132-.513-.519-.249-.014-.103.32-.54.597-.642M386.422 213.184l-1.904-1.165-3.256-.059-.86-.35-.86.7-1.044.408-1.598 1.05-1.474 1.573-1.106 1.048" clip-path="url(#p73b5c41a03)" style="fill:none;stroke:#000"/><path d="m389.912 208.872-.646 1.02-.767 1.107-1.475 1.194-.614.467.012.524M389.543 214.932l-1.167.059-.86-.146-.492-.233-.602-1.428" clip-path="url(#p73b5c41a03)" style="fill:none;stroke:#000"/><path d="m405.912 213.385-.366-.609-.031-.99-.062-.642-.4-.174-.736.582-.645.059-1.014-1.166-1.106-1.223-.583-1.02-.737-1.02-1.505-.583-1.137-.117-1.136.175-1.536.758-1.69.379-1.72.524-.337.35-.83.291-.43-.087" clip-path="url(#p73b5c41a03)" style="fill:none;stroke:#000"/><path d="m412.794 216.71-.215-2.07-1.26-3.729-1.443-4.166-1.014-1.02-1.105-.991-.43-1.02-.584-.524-1.167-.7-.491-.932-.891-4.342-1.045-1.66-.552-1.166-.4-.262-.768.349-2.886 1.72-1.751 1.136-1.444.67-1.474.524-.645.292-.584.67-.614.7-.86.728-.799.758-.43 1.194v1.137l.123 1.952.061 1.486-.214 1.428M406.037 213.592l1.013.816M406.037 213.592l-.125-.207" clip-path="url(#p73b5c41a03)" style="fill:none;stroke:#000"/><path d="m410.521 214.32-.338-1.398-.922-.933-1.658-1.02-.706.088-.4.962-.46 1.573M407.05 214.408l-2.488 1.224" clip-path="url(#p73b5c41a03)" style="fill:none;stroke:#000"/><path d="m410.521 214.32-.737-.407-.983-.117-.645.262-.737.525-.369-.175M412.794 216.71l-.676-.874-.583-.67-1.014-.846M461.23 269.1l-2.364-.147-1.536-.262-1.444-.146-3.746.38-3.44.495-4.547.174-1.627.204-1.751-.029-1.075-.408-1.413-.932-1.75-1.894-.953-.874-1.29-.554-1.29-.174-2.211.815-1.782.466h-.952l-1.444-.32-1.105-.466-3.625-3.41-1.074-1.252-.83-1.806-1.351-2.098-1.29-1.282-2.242-1.661-.185-.496-.215-4.661-.4-1.836-.06-2.798-.891-2.33-1.413-3.176-1.413-2.448-.86-1.748-.307-2.273.092-3.526-.123-2.447 1.075-2.972 1.782-2.885.798-2.01-.184-1.603M404.562 215.632l-2.856.029-.737-.291" clip-path="url(#p73b5c41a03)" style="fill:none;stroke:#000"/><path d="m405.912 213.385-.336.848-1.014 1.399M465.305 275.332l-.726-1.542-1.382-2.477-1.106-1.69-.86-.524M446.334 248.15l-.123 1.398-.768.7-.706.874-.154 1.223.37 1.952.86.612 1.35 1.399.891 1.544.553 2.331.276 2.273 2.181.845 1.843-.117 1.628.146 1.137.495 1.658 1.195 1.566 2.156 2.335 1.923M514.018 239.368l-3.195.837-1.382.337-.676.291-1.228.875-1.75 1.981-.83.816-1.137.758-2.488 1.252-3.409 1.428-2.518 1.02-1.475.146-1.75.379-.983.728-.492 1.107-.522 1.107-.737.933-.89.407-1.168.059-1.443-.554-.86-.32-1.067.062-4.094.696-.829.262-.818.415-6.432 6.615-.89 1.07-.245.582-.184.787v1.078l.123 2.593-.031 1.574-.277.903-.46.758-1.296 1.18-2.024 1.458-.673.567-.367.772-.216 1.005M387.932 246.75l-.798 1.34-.615 1.166-.307.874.03.962-.184.961-.184.525.522 1.282.215.816-.092.436-.368.409-.951.464-4.13 3.117-1.191 1.228-.291.777.022 1.252.458 1.68-.328.753-.052.899-.014 1.39.047 1.305.391 1.013 1.248.574 1.142.955.851.654.527.807.081.807-.446 1.077-.283 1.115-.082 1.73.082 1.077.648.422.851 1.038.365.846.405.577 1.135.615.486.615.122.846-.203.846 1.864 2.422 1.54 2.384 1.338 2.421 1.013.577.851 1.076.446.923 1.418 2.115 1.581 1.115 1.905 1.153 2.837-.115 3.526-.384 2.594-.5.932.615.73-.154 1.093-1.154 2.149.077 2.431.577 1.378.692 1.135 1.73 1.702 4.19 1.257 2.538.932 1.422 2.026 1.077 4.54 1.768 1.904-.038 3.445-1 3.688-1.038 2.472-.46 1.622-.078 1.215-.538.73-.884 1.823.845 2.149 1.115 1.58.769v1.115l-.892 1.307-.474.917" clip-path="url(#p73b5c41a03)" style="fill:none;stroke:#000"/><path d="m440.057 319.414 1.32-.903 3.256-3.176 2.888-2.738M246.437 264.77l.82.52.482.405.855.87.425.52.505.307.505.19.692.2.507.17.277.295.339.643.323.163.627.197.437.258.467.318" clip-path="url(#p73b5c41a03)" style="fill:none;stroke:#000"/><path d="m263.993 270.686-.451.076-.754-.138-.783-.197-.862-.334-.808-.285-.992-.518-.942-.308-.82-.192-.53-.221-.575-.586-.751-.676-.338-.689-.141-.787-.172-.423-.32-.163-.321-.018-.311.28-.301.384-.239.617-.174.815-.004 1.063.132.727.162.713" clip-path="url(#p73b5c41a03)" style="fill:none;stroke:#000"/><path d="m244.233 243.154.46.641.252 1.556-.092.438.046.364.354.554.49.437.907.364.445.335.353.291.843.21 1.022.208 1.006.136.7.126.655.418.848.137.44.263.572.42.57.245.744.58.377.375.378.77.632 1.073.65.777.36.4.668.371.312.394.834 1.88.44.788.42.47.318.853.52 1.073.883 1.59 1.278 2.455 1.742 3.89.111.552-.107.496-.4 1.18-.153.248-.118.174M282.877 275.122l-.51.764-5.221.844-2.027-.99-1.474.174-.707-.582-1.136-.146-.553-1.02-3.563-1.952-3.693-1.528M245.907 263.279l.325.538.054.654.15.298" clip-path="url(#p73b5c41a03)" style="fill:none;stroke:#000"/><path d="m215.33 261.25.295-.039.952-.302h.445l3.18.816 1.105.423.553.356.23.383.17.44.337.117.537-.059.346.102.434.314.48.197 2.234 2.55 1.363 1.536.467.404.497.23 1.306.277 1.19.153 1.036-.022.71.113.742-.004 1.266-.095 2.588-.502 1.236-.153 1.183-.015.975-.036.703-.091.58-.208 1.75-.787.875-.379.43-.378.299-.498.406-1.128.207-.196M280.796 321.398l-.602-.727-1.351-1.632M284.102 314.911l-.63.53-1.163.508-.675 1.038-.838 1.236-.305.127-1.648.689M282.844 325.112l-1.134-2.61-.914-1.104M287.011 317.715l-1.28.2-.768.64-4.167 2.843M282.844 325.112l3.26-1.59M326.181 341.357l.91-.006 1.226.345 1.193.482 1.766.558M339.858 335.228l-.588 1.446-.99.888-2.566 1.471-1.925 2.283-1.123.811-1.39.61M498.722 535.821l-.005.71.365 2.23.283 2.383.588 3.209-.04 2.402-.284 1.48-.428 1.516v1.545l.627 1.008M463.278 590.443l1.228-.699 5.467-4.224 1.659-1.02 2.272-1.02.707-.728 1.536-2.126.553-.495.337-.175.43-.058 1.69.349.4-.116 1.597-1.253 1.812-.816 1.689-.524 1.044-.204 2.058-.087 2.58-.816 1.351-.612 2.365-1.719.615-.379.706-.29h.676l1.505.815.676.117.676-.175 1.074-.874.922-.35.553-.32.368-.35.799-1.427.676-2.914.46-.378 1.167-.554 1.844-1.63.46-.7.215-.554.123-.786.43-.845.35-.489.327-1.052.768-.375.629-.64.046-.861-.419-.662-.884-.729-2.56-1.876-3.166-2.097-1.095-.729-1.49-.331-.676-.36" clip-path="url(#p73b5c41a03)" style="fill:none;stroke:#000"/><path d="m471.018 552.66.675-.205 1.475.204 2.395-.058 5.805-.553 3.778.349h.614l.646-.175.276-.174.092-.292-.307-3.03v-.99l.123-.553.215-.38.553-.349 1.628-.379 1.013.117 1.351.845.677.64 1.136 1.603.553.961.798.7.768.175.952-.176 2.243 1.894.706.087.215-.203.43-.414M538.42 486.13l-1.129-.403-1.482-.033-1.658.702-2.963.904-1.87 1.004-2.012 1.64-.987 1.974-.6.435-2.929 1.037-2.999 2.008-2.152.569-1.094.401-1.129 1.004-.352 1.372.67 1.707.917 2.743.07 1.405-.458 1.306-1.34 1.907-1.412 1.439-1.41.602-.99-.034-1.41-.568-1.2-.134-1.129.268-1.235.77-4.198 2.275-1.835 2.074-1.376 1.405-.64 1.154M498.722 535.821l.32-.462.283-1.326.121-2.21.69-1.614-.142-.807-.912-1.807-.466-2.21-.223-2.883-.365-2.556.202-1.46-.141-1.423" clip-path="url(#p73b5c41a03)" style="fill:none;stroke:#000"/><path d="m456.496 490.008.608.065.307 2.622.89 1.573 2.52-.378 7.586-.642 3.992-1.427 8.693 3.845 4.576-.437 5.928 2.622 1.75 1.748 1.72 1.66-.798 3.845-1.412.437-.769 4.399-1.474 1.456.123 1.806 1.351 1.282 6.002 2.58M547.24 477.128l.142.535-.424.468-1.834.937-.882.636-.812 1.64-.917 1.606-.953 1.037-.952.67-1.13.502-1.058.97M555.406 526.733l.399-1.18.384-1.15.507-1.034 1.167-1.588.998-1.195.553-.67.307-.655.384-1.121.307-1.02.507-.699.676-.8.276-.583.17-.758.137-1.005.246-.815.384-1.151.2-.743-.031-.772-.23-.742-.63-.889-1.121-1.398-.968-1.253-.645-.845-.568-.567-.814-.685-1.136-.729-.645-.524-.476-.67-.23-.64-.185-.947-.23-1.82.03-1.72-.076-1.398-.108-.976-.415-1.252-1.044-2.49-3.47.203-3.87-1.194-4.516.845-1.689-.962-1.044-1.456-.477-1.556M570.448 490.035l-.203-.82-.397-.53-.378-.437-.658-.038-.827-.416-.258-.269.13-.576.76-.918.491-.711.181-.784-.18-.734-.22-.846-.8-1.396-1.072-.906-1.176-.674-2.557-1.041-1.704-1.041-1.808-.723-1.756-.649-1.266-.196-1.278-.122-1.42-.062-1.254.062-.71.122h-1.24l-1.149.245-1.097.049-.543.147-.818.357M336.649 369.271l-.707 1.814-2.55.03-1.062.13-.91.187-.884.275-1.007.452M331.743 376.23l-.562-.666-.525-.811-.456-.874-.303-.757-.247-.613-.121-.35M322.675 357.026l-1.372-1.41-1.34-1.542-3.85-5.789-.632-.913-1.65-.808-1.071.417-3.024 1.121M321.398 327.65l-.012-.936.06-2.131.16-1.16.281-.855 1.108-2.629.423-.19.476.037.853.153.842.154.63.043.393-.176.27-.298.307-.415.272-.215.345-.102.405-.08 1.335-.06.634-.09.572-.234.883-.485.576-.476.19-.264M342.299 286.607l-.188.59-.154.815-.276.816-.307 1.194-.185.962.062 1.544.03 1.835-.276 1.778-.368.932-.184 1.05-.461.99.153.757-.061.758-.277 1.059.031 1.428.061 1.719-.306 1.223-1.321 1.778-.43.888-.139.86-.215 1.224-.384.903-.721.714-.33.393-.223.874-.43.816-.537.524-.86.43-.83.925-.772.855M189.817 322.361l-.317-.034-.282.168-.177.318-.176.368-.142.301-.14.301-.212.402-.177.284-.134.54" clip-path="url(#p73b5c41a03)" style="fill:none;stroke:#000"/><path d="m169.588 304.557.208.446.245.423.43.39 1.017.43 2.98 1.514.66.568.852.445 1.805 2.309 1.382 1.005.737.451.414.962.545.422 2.542 1.035 2.288.932.622.437.407 1.967.492.364 2.242.291.768 1.894-.407 1.52M296.341 306.64l1.605 1.116.757.384.348.29.474.38.244.354.053.441-.083.558.003.793.077.675-.033.492-.181.679.075.341.294.171.484.04.597.03.54.111.582.178.652.271.436.11.44-.07.721-.109.516.05.39.214.643.743.641.736.535.533.909.583 1.016.431.963.38.749.153.4.127.375.456.267.812.24.532.242.355.427.204.481.05.429-.101.347-.229.535-.05.428.025 1.07.38.748.102.699.152.516.196.229.21.154.525.16.594.461 1.341.909 1.852 1.177 1.953.316.466M215.33 261.25l-.657.09-.86.225-.453.444-.146.575.185.709.291.865-.092.547-.615.735-.4.104-.337.41-.4.324-1.29.095-.648.134-.403.353-.223.532.049.661.4 1.025.71 1.702.285.72-.03.55-.043.565-1.072 1.77-.453.51M188.875 282.424l1.01-2.81 3.81-1.573 2.027.292 1.474-1.399 2.641.758 2.58-1.923 6.711-.874M130.254 258.345l.66-.216.706-.8.399-1.035.922-.816 1.351-.047 1.044.204.891-.349.768-.38 1.229-.144 2.764 1.485 4.055-.874 2.979 3.293 2.98-.525 1.35-1.835.093-1.282 1.689-2.39 1.566-.116 1.523.404.293 1.395.68.692.13.918.6.583.253.655.13.743.492.466.752-.262.477.281.607.01.38.573.328.505.636.155.8.155.768.548.677.141.656.32 1.882.771 1.003.84 1.897 1.158 2.365 2.205 1.629.901.988.456.62.755 1.399.97 1.503 1.48 2.97 2.151 1.057 1.841.812 2.041.776 1.607 1.906 2.209 1.693 1.674.493.565M169.588 304.557l-.288.208-.363-.192-.35-.536-.38-1.732M558.932 132.133l-.668 1.193-.67 1.141-.828 1.04-.802.914-1.043.862-1.097.482-1.23.305-1.871.406-1.524.38-1.203.457-.562.279-.347.33-.348.609-.317.706M448.768 320.23l-2.242-.412-.723-.549-.687-.274-1.988.412-1.338.205-1.733-.198M448.768 320.23l3.253 2.743M457.625 311.28l-4.917 5.692-3.94 3.257M494.21 304.866l.398-2.571-.578-1.235-1.482-1.372-.073-1.269 1.157-1.2.868-.789" clip-path="url(#p73b5c41a03)" style="fill:none;stroke:#000"/><path d="m511.528 303.803-1.916-2.229-.832-.068-1.12.24-1.447.549-1.301-.378-.724-.515-.759-.342-1.988-.31-.759-1.062-.073-1.886-.614-1.097-.831-2.504-.651-2.366-1.663-.926-.76-.103-.071.96-.217 3.327-.434 1.063-.868.274M552.123 249.663l-1.843-2.198-1.664-.564-3.15-1.578-2.852-1.24-6.122-.339-7.785-.958-6.359-.508-2.734-.846-1.426.395-1.486-.62-2.684-1.84" clip-path="url(#p73b5c41a03)" style="fill:none;stroke:#000"/><path d="m529.077 215.698-.286.572-1.56 1.854-1.112.798-.644.32-.922.117-1.351-.175h-1.137l-.946.063-.65.287-.769.554-.614 1.02-.277 1.02-.153 1.543.092 1.545.215 1.574.399 1.223.4 1.194 1.105 1.72 2.058 2.622.246 1.078-.013.85-.57 1.131-.892.554-1.007.448-4.557 1.203-2.114.555M558.383 257.15l-1.09-.947-5.17-6.54" clip-path="url(#p73b5c41a03)" style="fill:none;stroke:#000"/><path d="m558.383 257.15-1.856-.173-3.01-1.69-.4-.407-.245-.554-.952-3.845.123-.524.08-.294" clip-path="url(#p73b5c41a03)" style="fill:none;stroke:#000"/><path d="m553.978 249.374-1.598.262-.257.027M584.869 316.92l-3.41 4.619M621.062 335.974l-10.341-10.598-4.16-4.623-3.27-.901-9.627 2.085-1.782-.056-2.675-2.368-1.961-1.353-2.377-1.24M591.576 276.7l2.207 1.096 2.853 1.973 1.426 2.086.535 1.578-.773 1.466-1.366.508-3.566-.17-1.724 1.24-1.01 4.51-.595 5.356-2.97 4.229-1.962 4.566-2.02 4.904.118 2.425.713 2.142 1.427 2.311M609.03 365.716l.415-3.157-1.307-3.72-.238-5.863 6.478-5.637 6.24-5.919.772-4.228-.328-1.218M605.517 361.94l1.136 1.02 2.376 2.756M555.406 526.733l-.897.753M555.406 526.733l-.292 1.398M554.509 527.486l-.73.106-.477-.524-.077-.801-.077-.99.277-1.137.522-1.019.046-.568-.368-.874-.461-.292-.584-.262-.768-.524-1.428-1.078-.614-.335-.63-.102-.845.059-.967.145-1.075.044-.768.131-1.121.598-.952.262-.799.13-.63.015-.522-.452-.675-.859-.584-.56-.514-.248-.638-.211-.829-.015-1.198.299-1.98.78-1.399.523-.584.365-.199.45-.015.481.123.889.092 1.078.077 1.864-.292.699-.46.524-.63.466-1.214.568-.952.714-1.336.656-.875.175-1.014.072-1.474.102-1.045.306-.752.466-.921.83-.676.48-.676.176-1.29-.335-.967-.088-.983.03-1.751.436-1.46.525-2.195.786-3.256.86-3.056 1.063-1.735.45-1.843.088-1.306.278-2.257.64M228.586 554.42l1.198.844 1.229 1.165 1.106 2.127.49 1.398-.153 3.175-.368 2.825.123.961 1.443.903M205.366 588.703l-.737-4.573-.46-4.078.184-3.233.982-3.059 1.72-4.485 1.474-3.292 1.997-3.611 2.55-1.602 8.323-3.321 6.204-2.097.983-.932M558.932 132.133l.397-.147.535-.331.63-.22.767.021.582.044.955.2.698.309.686.381.353.525.292.19.599.218.86.233.845.248.69.16.83.32.768.423.614.452.538.626.491.554.614.67.784.903.43.7.376.672 1.198 3.614-.122 2.331-.43 3.001-1.106 1.457-3.594 1.69-1.597 2.448-.03 2.594.644 1.252.89 1.195 3.349.263h2.088l.43.495.615 1.224.491 2.185-1.505 2.536-1.044 1.136-2.18.117-1.874.408-1.413 1.078-.737 1.806-.738 2.098.4 2.943 1.935 3.322 4.73 2.652.184.32.645 1.545-.184 1.05-.921.786-1.383.466-1.351.554M637.27 208.833l-1.898-3.81-5.069-2.273-5.466.525-8.509-2.506-5.59-.262-2.672-.904-5.897-5.507-1.229-3.03-1.842-1.545-6.328-1.807-7.156.292-14.958-2.156M535.154 463.02l.087-.504 1.997-2.36.706-2.884.093-3.99 2.733-2.477 9.307-2.36 3.04.32 3.594-2.97 5.775-1.253 1.812-.117 1.044-3.146-1.597-2.097-.338-2.127-1.444-4.253-.49-2.71-1.383-2.068-2.457-1.369-.725-2.7" clip-path="url(#p73b5c41a03)" style="fill:none;stroke:#000"/><path d="m546.333 428.277.196-.21.215-.174.284-.088.495-.083 1.1-.469 1.438-.504 1.612-.33 1.466-.313 1.447-.4 1.3-.634.67-.522.352-.596M581.46 321.539l-1.314 1.78-4.914.932-4.054 1.515-1.72 7.225 1.505 4.473.845 2.272.568 2.4" clip-path="url(#p73b5c41a03)" style="fill:none;stroke:#000"/><path d="m578.149 363.282.446-1.813.661-2.271.706-1.574 1.398-2.52.798-1.471.415-1.603.046-1.53-.292-1.208-.368-.962-.46-.67-.477-.495-1.06-.655-1.029-.466-1.643-.496-1.46-.524-2.64-1.311-.477-.612-.337-.966M532.785 340.237l2.826-1.253 2.21-1.719 1.598-1.835 1.014-.845.952-.233 3.132-.233 2.15-.466 1.72.379 1.352.058.277.146 2.242 2.243 1.136.94 1.551.962 1.735 1.166 1.076.757 1.228.539 1.336.32 1.674.306 1.244.117.63-.117.799-.407.905-.685 1.06-.32.768-.074.768.22 1.49.713 1.643 1.282.383.364h.277l.415-.427M555.114 528.131l-.605-.645M572.352 553.664l-.406.16-1.044.176-1.014-.088-.676-.262-2.61-1.486-.676-.553-.737-1.224-.185-.728-.06-1.224-.216-.99-.277-.728-2.518-4.836-1.29-2.185-.4-.525-.552-.466-1.137-.379-1.136-.582-1.321-1.37-.645-.99-.768-1.894-.43-1.427.799-3.32.06-.612M437.892 421.052l-4.534-3.711-5.905-.934-5.412-4.013-.436-1.23-.161-.597-.261-.415-.296-.236-.442-.143-.56-.117" clip-path="url(#p73b5c41a03)" style="fill:none;stroke:#000"/><path d="m453.787 386.382-.308.652-.245 1.122.076.99.722 1.05.2.757-.246 1.427.108 1.151.614 1.457.69 1.049.723.597.353.437.015.495-.384.292-.86.102-1.458.416-2.396 1.545-1.228 1.427-.738.437-.829.146-.737-.117-.43-.145-1.106-.7-1.382-.582-1.014-.263-.767.03-.83.35-.43.29-1.904 1.777-.799.7-.983.262h-.798l-1.167.204-1.659 1.252-1.013.466-2.304.292-1.32-.088-.83-.495-1.597-.524-1.352-.175-1.505.088-.583.145-.799.583-3.402 4.375M594.368 563.467l.875-.12.43-.116.343-.16M594.951 565.215l.645-.834.292-.626.138-.408-.01-.276M572.352 553.664l.361-.453.508-.408.644-.525.615-.48.353-.35.2-.32.153-.495.077-.437.261-.51.476-.466.937-.743.798-.655.492-.422.415-.423.445-.713.491-.627.645-.597.614-.495.461-.19.446-.072h.291l.538.131.752.524.676.918.445.684.384.787.17.655.184 1.107.307.772.553.815 1.075 1.02 1.766 1.413.829.874 1.06 1.252 1.397 1.864 1.229 1.69.707.713.46.466.538.758.399.626.23.452.215.597.062.51.005.16" clip-path="url(#p73b5c41a03)" style="fill:none;stroke:#000"/><path d="m584.631 557.641-4.914-5.74-1.106-.96-1.136-.03-.707.205-1.935.96-2.15 1.457-.331.131M582.923 486.318l5.375-2.476.461-.875v-.466l-.276-.64-.921-1.574-.154-.64.338-2.448.338-.815.43-.554.86-.786 1.013-.758.307-.35.031-.232-.246-.438-.706-.495-2.795-.99-.922-.612-1.812-2.535-2.027-1.922-.368-.496-.031-1.019.767-.728M502.53 187.265l2.919-.67 1.259-.7 1.014-.233 1.013.205 2.15.99 1.075.757.492.554 1.965 2.768 1.812 2.039.246.174.277.408.368.292.4.553.706.612 1.075 2.097.154 2.418-.154 1.165.215.875 1.474 2.884 1.106 1.66 1.873 1.69 1.26 1.398 1.474.845 1.415.03M529.077 215.698l.237-.477.06-1.02-.183-1.019-.799-2.244-.274-.863M586.873 225.486l-1.198-.262-2.641.553h-1.167l-1.751-.553-.89-.627-.876-.714-1.736-1.397-2.272-1.282-2.58-2.651-1.352-1.166-.89-.582-.83-.321-4.484-.64-4.761-.408-1.045-.176-1.32-.582-2.918-1.836-2.642-1.456-.86-.67-3.102-2.855-1.443-1.107-.922-.553-1.198-.35-1.198-.146h-1.228l-1.904.32-2.795.904-1.014.408-.922.583-.767.815-.584 1.165-.276 1.37-.154 1.748-.522 1.34-.46.524-1.813.816h-1.281M570.448 490.035l-1.807.274-.768.379-.921.728-.86.466-1.26.466-.306.35-.216.436-.184 1.253.03 3.292.123.729.461.961.768.728 1.413.758 1.167.495 2.089.262h2.211l1.966.117.89.174.37.233.276.408.153 1.107-.245 1.574-.246.815-.768 1.632-1.566 2.155-1.137 1.136-1.505 1.253-.491 1.165M592.801 364.154l2.027.583 2.089.932.798.612.4.553.276.175 1.321 1.602.46.728.154.408.154.99.03 3.846.277.728.798.904 1.966.757M437.892 421.052l-3.455 4.038-.461.962-.185 1.427M525.966 463.253l9.188-.233M587.764 363.28l-2.857.175-1.075-.146h-1.044l-1.505.204-3.134-.23M614.148 281.42l-.123.407-2.12 1.719-1.228.67-.614.466-.553.583-1.874 3.904-.153 2.038-.645 1.894M453.787 386.382l.122-.787.492-1.325.676-1.85M532.785 340.237l-.584-.146-1.628.437-2.212.145-.306.263M532.785 340.237l-1.167.902-.738.204-1.044.059-1.781-.466M502.469 340.12l1.106.757 1.382.496 2.058-.146.43-.35.46-.087 2.397.059.49-.176.892-.524.491-.087.553.204 1.505.961.522.612.277.7.337.349.338.087 1.843.03 5.836-.991 2.703-.787 1.966-.291M587.764 363.28l2.273-1.544 1.382-.757.307.087.89.757.769.437 1.013 1.02M592.801 364.154l.369-.291 1.228-.583M605.517 361.94l-1.413 1.252-1.781.496-.707-.175-1.382-.7-2.58-.611-.86.087-2.396.99M581.46 321.539l-.515 2.326-.03.174.092.99.491 1.311M586.407 275.63l.423.08 4.457.846.29.143" clip-path="url(#p73b5c41a03)" style="fill:none;stroke:#000"/><path d="m614.148 281.42-7.617-1.34-.676.057-3.225.7-.891-.088-1.505-.67-2.058-1.253-2.518-1.31-1.444-.962-.89-.116-1.748.261M582.923 486.318l.584.32 1.228.058.707-.203 1.72-1.079 1.505-.29.891.203M605.363 359.435l-.092.699.246 1.806M586.407 275.63l-2.846-.54-2.674-.62-1.01-1.523-1.249-2.593-.772-1.014-2.14-.79-3.03-1.127-3.328-1.466-6.419-3.721-2.08-2.932-2.476-2.153M587.764 363.28l.184.117 2.334.582 2.52.175M594.368 563.467l.337.408.246.612v.728M622.318 604.048l-.983-.175-1.014.204-3.286 1.311-.83.059-.521-.233-.768-.729-.922-1.282-.983-1.719-1.228-2.767-.891-2.33-.338-.613-.491-.67-.522-.495-1.321-.844-.676-.554-.399-.67-.369-2.243-.491-1.72-.43-1.98-.246-1.806-.46-.787-1.014-.961-.154-.408.03-.466.492-1.69.123-1.194-.276-1.748-.4-.816-.829-.903-1.781-1.398-3.318-3.263-2.58-2.389-.737-.99-.184-.64.43-1.924M592.371 271.543l-1.013-.378-.584-.437-1.106-.7-.737-.058-.983.32-.307.35-.123.408.031.874.123 2.04-1.265 1.668M456.496 490.008l-.469-.039M601.585 538.91h-1.074l-.553-1.72-1.905-4.399-.307-1.31M622.318 604.048l1.013-1.398.707-.525 4.853-.408 3.9-2.476h1.505M456.027 489.97l-.09 3.435-.86 2.564-.123 1.369-.707 2.301-.338 1.486M637.27 208.833l-5.062-1.205-2.641.233-1.506.7-1.996 1.572-.89.583-2.427 1.224-5.313 1.544-1.383.524-1.044.524-1.167.816-1.567 1.835-.89 1.573-.339 2.543-.345.85-.522.867-.737.794-.791.452-1.536.525-3.778.174-2.887.99-1.628.234-4.3.058-3.47.175-4.178-.932" clip-path="url(#p73b5c41a03)" style="fill:none;stroke:#000"/><path d="m591.204 239.207.614-2.942-.153-.787-.307-.35-4.516-9.235.031-.407M591.204 239.207l-3.348-.175-1.044-.175-.922-.378-3.84-2.04M468.438 372.456l-1.751 3.088-.492.525-2.734 1.98-1.412 1.224-2.427 1.312-.614.466-2.78 2.735-1.428 1.748-1.013.848M584.631 557.641l-2.15 1.253-2.088.553M453.3 489.95l.64-.139 2.087.158M605.64 244.713l-5.099-.816-3.47-.233-.922-.466-.307-.204-1.812-1.515-2.826-2.272M502.469 340.12l-.368.087-1.598-.116-1.29.058-1.013.728M584.631 557.641l5.498 3.583 3.809 1.923.43.32" clip-path="url(#p73b5c41a03)" style="fill:none;stroke:#000"/><path d="m449.763 488.744 3.747.175.277.233-.486.799M501.486 338.372l.615.903.368.845M570.448 490.035l.497-.076 1.996-.874 2.765-1.02 7.217-1.747M350.37 422.372l-.937 1.443-1.305 2.316-1.275 2.17-1.935 3.54-1.151 2.257-1.46 2.666M203.262 475.246l-1.09.13-.86.423-.584.67-.384 1.136-.307 1.486-.307.656-.368.51-1.014.83-.814.699-.63.539-.537.422-.4.408-.26.495-.354.976-.369.86-.245.233-.415.13-.476.03-1.014-.103-.798-.218-.783-.495-.814-.612-.783-.743-.37-.582-.29-.947-.231-1.063-.446-.7-.599-.203-.967.014-.875.219-.922.86-.89 1.179M304.63 355.614l.79.383 1.264.48.611.177 1.013.235.674.206 1.236.494.674.31.568.367.625.29.763.188.846.11.776-.01M322.877 359.761l-.303-.047-1.064-.417-.618-.112-.815.034-1.106.165-.762-.026-.903-.174-.574-.028-1.235-.073-.605-.074-.422-.165M317.767 354.422l-.046.364-.153.364-.261.292-1.337 1.063-.399.452-.537.845-.564 1.042M298.97 353.723l2.641.597.676.204.784.335.66.32.899.435M329.913 329.242l-.107.64-.092.38-.231.451-.384.874-.215.729-.092.786.076.627.308.597.568.495.414.32.078.277-.216.263-.752.029-.537-.059-.477.059-.414-.262-.154-.394-.292-.043-.2.247.031.554.108.641-.092.684-.062.51.077.423-.307.393-.154.627-.614 2.267" clip-path="url(#p73b5c41a03)" style="fill:none;stroke:#000"/><path d="m320.76 362.062.768-.524.568-.088.753.015.276-.058.123-.204-.015-.277-.356-1.165M180.224 286.993l-.27.294-.38.593-.762 1.418-.538.883-1.355 1.768-.286.209-.356.188-.187.348-.25.492-.716.868-.51.424-.623.382-.438.266-.284.353-.293.524-.263.51-.403.667-.193.434-.038.666-.219 1.82-.142.668-.315.597-.33.597-.476.583-.614 1.195-.395.817M171.393 312.448l-.369-.452-.537-.393-.23-.554-.476-.306-.691-.379-.477-.67-.214-.538.076-.744.323-.51.414-.874.123-.801.123-.917.13-.753M154.252 272.19l.092-.714.231-.247.507-.19.383-.174.293-.306.322-.175.722-.116.921.189.584.277.69.495.523.495.83.496.414.364.277.51.399 1.296.215.408.476.627.322.276.323.131.66.102.538.176.307.364.092.364-.061.466v.276l.184.278.046.291-.077.67.215.597.368.656.8.99.521.51.323.16.4.234.936.029.752.102.6.248.168.305-.092.583.092.277.338.248.23.306.031.291.17.218.291-.102.446-.174.43-.015.936.233.753.32.69.38.37.174.353.088 1.059-.102.568.058.4.175.737.64.921.613.538.189.614.03.8-.087M217.072 257.195l-.083.098-.353.699-.814 1.792-.261.423-.415.553.03.335.154.156M217.072 257.195l.377-.441.584-.335 1.428-.83.323-.292.092-.35v-.422l.046-.51.185-.437" clip-path="url(#p73b5c41a03)" style="fill:none;stroke:#000"/><path d="m209.663 249.149.23.35.477.334.584.35.644.292.6.19.384.174.752.699.967 1.21.507.713.292.773.215.742.215.35.215.32.322.452.323.467.682.63M266.07 166.403l.707-.7 1.413-.553.553-.583.4-.787.921-.582.307-.904-.03-.99-.43-.73v-.757l-.43-.932-.277-.641.338-.933-.154-.699-.123-.758.492-.64.553-.583.983-.642 1.443-.233 1.812-.612.83.117.614.612.921.204.89-.117.8-.699 1.412-.38.769-.553.275-.67.492-.729.89-.728.677-1.311.245-.7.43-.64 1.198-.612 1.229-.7.768-.67.307-.816-.062-.729.37-1.049 1.166-1.049.738-.553 2.026-.67 1.874-.263.89-.087 1.23-.583 1.044-.204.921-.32 1.474-.67 1.075-.263 1.044-.612.86-.466.461-.525.8-.175.613-.262.922-1.137.89-.524.922-.175.952-.32.737-.787.737-.874.615-.612 1.136-.554 2.335-.059 1.136-.203.983.116 1.197-.262 3.717-.117 1.505-.262.798-.35.584-.495 1.106-.32.737-.408 1.136-.32 1.014-.234.307-.7.146-.369.161-.33.369-.612 1.443-.7 1.475-.174 1.352.117 1.689.553 1.075.612.399.525.921.233.768.262.522.64.553.264 2.212.32 2.304.408 1.237.374" clip-path="url(#p73b5c41a03)" style="fill:none;stroke:#000"/></g><g id="PatchCollection_1"><path d="m339.093 378.803 1.14.32-.908-.883zM342.068 380.16l.263.078-.233.682z" clip-path="url(#p73b5c41a03)" style="fill:green;fill-opacity:.8"/></g><g id="PatchCollection_2"><path d="m333.648 378.09 2.77.776-1.16 3.727-2.77-.776zM333.92 377.56l2.117.585.344-1.114-2.117-.625z" clip-path="url(#p73b5c41a03)" style="fill:#90ee90;fill-opacity:.8"/></g><path id="PatchCollection_3" d="m339.648 379.962-.069 1.118 1.382.075.01-.149.15.009-.008.133.38.02.067-1.102z" clip-path="url(#p73b5c41a03)" style="fill:#006400;fill-opacity:.8"/><g id="PatchCollection_4"><path d="m366.65 130.92.4-.991-.185-.7.46-.903-.245-1.428.491-.786.523-.991 1.167-.67.983.262h.89l.768-.525 1.014.146.399.204 1.474.204 1.659-.35.215.35 1.228-.233.277-.525.706.758-.123.845.891 1.078-.276.758.675 1.078.553.03.338.35.737-.322.553.146-.061.524-.277.409.707 1.049.276 1.864.123 1.312.553 1.078-.123.816.246 1.137-1.536 2.273.277 1.427-.922.991.03 1.05-.03.815.768 1.34-.369.583-1.013.204-.123.525h-.768l-.46-.845-.123-.7-.4.059-.491.35-1.598-.176-.768.234-.214.466-1.628.32-.799 1.4-.737.466-.89-.059-1.321 1.195-.03 1.515.03 1.224.4.99v.817l.245.291.644-.029.37.524-.246.554-.615.38.154 1.223.245.641.584-.116-.123.466.277.495.706.262-.46.875.306.64-.307.409-.583.029-.553.583-1.198.262-.522-.175-.246-.32-.43.116-.061.379-.369-.175-.675.612.153.35-.583 1.34-.308.262-.583-.407-.219-.25.289-.531.291-.45.062-.554-.108-.335-.188-.337-.31-.366-.544-.58-.314-.639-.345-.924-.436-1.55-.144-.763.116-.72.222-.901.073-.843-.004-1.89.09-.64.19-.598.344-.685.215-.732-.14-.458-.584-.174-.092-.38-.123-.436-.768.087-.184-.204.153-.787 1.045-.466.426-.751-.145-.68-.241-.376-.549-.391-.263-.44-.078-.51.034-.543.186-.92.16-1.126.04-1.175.185-1.928.023-.92-.069-.746-.226-.535-.555-.54-.263-.507-.048-.654-.006-.506.436-.214.154.349.492-.175.737.525.584.291.368.233.4-.204-.185-.99-.092-.7zM407.286 195.727l-4.946 1.952-4.33 1.923-4.485 2.477-1.136 1.34-1.782 3.876.093.874-.358.79-.43-.087-.84.346-.277-.816h-.614l-1.106-.408-1.72-.088-.492-.932-.583-.029-.338.408-.614-.029-.522-1.136.614-2.652 1.106-1.049-.246-.816.491-.612.338.059.553.145.921-.379 1.137-2.564-.4-.466.922-.233.369.262 1.044-.291.553.407.614-1.136v-.583l.369.03.03 1.544.277-.059.246-.64.737-.146.215-1.166 1.014-.495.368-1.224.706-.466 1.812-.874.339.058 1.044-.437.184-.816-.584-1.807-1.566.088-2.273.64-.952.525-.492-.145-.306.291-.093.67-.83.583-.06.612-.277.233v.583l-.338.32 1.659.35.03.408-.521.116-.185.612-.921.496-.522-.292-1.076.612-.368.642-1.781.407-.031.612.092.525-.307.407-.154.67-.645.292-.245.466-1.076.583-.583.816-.092.525-.615.291-.644 1.399-.492.32.154.757-.584.438-.276.583.307.524.645.35-.154.408-.83-.088-.214.438-1.69.116-1.72-.292-1.075-.495.769-.495.06-.787.615-.554 1.014.233 1.35-1.544.032-.524-1.321-.7.092-.582-.491-.262-.553-1.05.369-.961.583-.117 1.628-1.457-.43-.495-.645-.262.031-.641.307-.263-.123-.757.092-1.282.584-.612.215-1.224-.707-.379-.368-1.253.645-.379-.43-.786.184-.642.707-.407-.277-.933-.46-.554.951-.466.522.117.922-.32.676-.816.982.028.891.263.584-.467.43.292.706-.175.216-.408 1.873-.204.277-.787 1.75-.845.123-1.049 1.106-.291.276.641.491.379.338-.962.369-.175-.184-.874.4-1.136-.615-.641.307-1.748.83-.7-.339-.758.738-.407-.154-.554-.553.32-1.29.088-1.628.757.154 1.254-1.352.495-.675 2.36-.615 1.749-.491.378-.799-.175-.46.99-.737.642-.891-.058-.154.641-.768.32-.184.467-1.659-.088-1.167-.35-.553-1.106-.46-.38.184-.699 2.18-1.719.062-.962-.676-.844.37-.38-.063-.582 1.198-.932 2.181-1.924 1.873-1.544.86-.467 1.014.991.584.204.645-.787-.706-.99.49-.787 1.26-1.311 1.044-.496 1.106-1.165 2.058-.787 2.12-.524 3.132-1.108h.676l.645-.35.645 1.865.645 1.72.921.407 1.045 1.224-.061 1.282.276 3.264.337 2.07 2.181 1.776 1.26.991.215.554.645.729.46 2.01-.706 2.302-.4.437.462.67.952-.437.675.467-.03.961-1.813.99-.522.583-1.136 2.011.061.35-.4.903v1.049z" clip-path="url(#p73b5c41a03)" style="fill:#90ee90;fill-opacity:.8"/></g><g id="PatchCollection_5"><path d="m348.519 420.087.039.466.802-.06-.039-.466zM331.913 382.047l.211.038 1.403-4.186-.185-.052zM329.48 375.611l1.543.985.35-.494-1.542-.985zM328.467 385.968l.901.328.23-.569-.148-.054.183-.453.12.043.091-.226-.834-.303-.08.197.12.043-.208.515-.158-.057zM337.371 375.517l1.024.25.314-1.23-.983-.27zM337.19 377.252l.169-.513-1.244-.37-.17.513zM339.538 385.5l.42.14.45-1.206-.253-.084.039-.103.278.093.77-2.066-.518-.174-.537 1.44-.248-.083.396-1.061-.553-.186-.496 1.328-.3-.101-.146.394.734.246-.208.559.439.147zM245.887 391.21l-.69-.284-.16.352.688.284zM244.378 391.254l.411.173.222-.476-.411-.172zM245.73 390.502l.739.256.147-.384-.739-.255zM242.339 388.245l.488-.885-1.446-.719-.49.886zM241.937 388.841l-.57-.063-.062.503.57.063zM241.002 388.066l.147-.28-.381-.18-.147.28zM241.025 386.521l-.532-.178-.188.505.533.178zM246.572 391.346l.092-.264-.334-.105-.093.263zM241.126 390.416l-.011-.35-.307.01.01.349zM250.296 393.056l.25-.141-.13-.204-.248.141zM248.786 390.737l.076.7.7-.068-.077-.7zM245.366 393.206l.367.126-.378.992.42.145.61-1.598-.788-.27zM246.04 391.753l.164-.353-.257-.108-.165.353zM245.108 389.468l-1.858-.794-.207.435 1.857.795zM352.41 403.647l-.322.027-.028-.301.322-.028zM220.743 552.286l-.032-.505-.236.014-.032-.503.57-.033.065 1.008zM351.043 220.123l.251.441.602-.308-.251-.441zM351.364 267.53l-.227.623.495.163.228-.623zM353.153 222.31l.257 1.075.83-.179-.256-1.075zM156.977 250.168l.178.42.554-.21-.177-.42zM241.133 281.62l-.365.658.552.276.365-.658zM272.399 297.654l.242.349-.14.088.407.587.76-.476-.374-.538-.138.086-.276-.397zM274.441 297.57l-.194.407.456.196.194-.407zM245.059 262.624l.251.528.616-.263-.25-.529zM219.151 252.765l-.3.507.359.19-.106.179.323.172.116-.196.163.086.29-.489zM295.004 305.773l-.399.532.66.445.398-.532zM153.555 271.807l-.198.58.478.147.198-.58zM167.557 300.766l.135.61.524-.105-.135-.61z" clip-path="url(#p73b5c41a03)" style="fill:#a9a9a9;fill-opacity:.8"/></g><g id="PathCollection_1"><defs><path id="m8d53765cba" d="M0 3a3 3 0 1 0 0-6 3 3 0 0 0 0 6z" style="stroke:#a9a9a9;stroke-opacity:.8"/></defs><g clip-path="url(#p73b5c41a03)"><use xlink:href="#m8d53765cba" x="329.487" y="384.489" style="fill:#a9a9a9;fill-opacity:.8;stroke:#a9a9a9;stroke-opacity:.8"/></g></g></g></g><defs><clipPath id="p73b5c41a03"><path d="M90 112.08h558v503.041H90z"/></clipPath></defs></svg>