<svg xmlns="http://www.w3.org/2000/svg" width="960" height="960" viewBox="0 0 720 720"><defs><style>*{stroke-linejoin:round;stroke-linecap:butt}</style></defs><g id="figure_1"><path id="patch_1" d="M0 720h720V0H0z" style="fill:#fff"/><g id="axes_1"><path id="patch_2" d="M90 610.982h558V116.218H90z" style="fill:#fff"/><g id="LineCollection_1"><path d="m173.043 457.262-3.337-4.386-2.411-3.126-1.993-2.326-1.018-1.175-.792-1.2-1.15-1.403-1.479-.825-3.986-.832-1.505-.734-.957-1.029-.618-1.55-.079-1.86.988-9.014-.657-1.392" clip-path="url(#pd7c0638ee2)" style="fill:none;stroke:#000"/><path d="m179.88 373.653-1.022.788-1.502 5.75.06 3.044v3.608l1.803 4.396-.902 2.931-1.021 1.635-3.126 2.988-1.503 1.747-.48 4.115-1.985 3.156.06 4.228-2.885 4.396-1.262 4.453-3.907.057-2.585 1.521-3.306 1.128-2.268 2.816M336.112 378.22l-.298 1.8-.729 4.844-.075.566-.126.554-.239.754-.163.554-.251.542-.327.565-1.533 2.369-.54.73-.49.602-.717.754-.615.519-.504.33-3.078 1.625-6.522 3.442-1.206.589-.67.234M304.563 393.1l2.088.974 7.716 4.986 1.013.441 1.11.174 1.539-.082M243.897 596.395l1.442-3.1 1.263-1.746 1.082-2.93 2.585-5.975 5.77-2.254 4.689-2.028 7.093-6.594 4.507-3.72 3.908-1.86 5.95-3.607 1.203-2.254 2.945-1.409.481-2.141 2.044-1.127-.24-2.086 1.983-1.183.901-1.86 3.667-3.156.902-1.973-3.486-7.89-4.569-2.085-2.224-1.803-2.344-5.58-4.568-2.48-5.11-1.014-3.967-5.918-1.202-3.213-3.967-4.114-1.684-2.874-4.567-3.044-1.564-9.13.18-1.86.362-.676 1.022-.339 2.103-2.029 2.645.733 5.23-1.296h1.502l1.924 1.465.901 2.931 1.322-.45 1.864-2.03-.781-5.749-1.022-3.382-.12-1.296-1.684-2.874 1.443-3.608-1.142-4.227.676-3.17 2.68-5.764 1.095-1.64 2.75-6.995.623-.966 5.545-1.971 1.67-5.357.361-2.71-.529-4.59.004-3.907.273-.693.17-.306.916-1.381 1.31-1.933 2.812-3.952 3.11-4.017 1.746-3.14 3.977-5.608 1.895-1.663 2.26-4.155 2.146-3.277 2.345-1.118 5.97-2.467 1.655-1.187M336.112 378.22l.689-4.153M336.112 378.22l7.74 1.164M360.603 381.676l.69 1.976M360.603 381.676l-6.007-.584M360.603 381.676l-4.89 2.472M367.202 378.73l-.074.058-.338.222-.387.237-5.8 2.429M343.852 379.384l.756-4.164M348.06 380.125l-3.637-.644-.571-.097M345.5 370.425l-2.927-.406M346.208 367.938l-.427 1.916-.169.307-.112.264M345.087 372.583l.347-1.912.066-.246M353.165 371.572l-2.03-.213-5.635-.934M346.208 367.938l6.957 3.634M346.208 367.938l-3.606-1.883M336.8 374.067l5.642.833M337.34 370.703l-.344 2.188-.195 1.176M344.608 375.22l.479-2.637M344.608 375.22l-2.166-.32M353.39 373.77l-2.038-.29M353.39 373.77l-.55 4.65M353.39 373.77l.247-2.091M353.637 371.679l-.472-.107M357.545 372.238l-3.46-.458-.448-.101M351.352 373.48l-6.265-.897M351.352 373.48l-.513 4.763M342.573 370.019l.002-.565.054-2.892-.027-.507M341.98 364.494l.243.394.163.33.135.456.081.38M339.439 360.684l-1.259 4.79M339.439 360.684l2.54 3.81M342.4 355.82l-.177.372-1.935 2.168-.415.672-.434 1.652M342.442 374.9l.122-2.678M337.552 369.322l-.211 1.38M337.552 369.322l5.021.697M338.18 365.475l-.066.25-.562 3.597M356.19 373.747l.046-.154.245-.546.269-.427.209-.162.586-.22" clip-path="url(#pd7c0638ee2)" style="fill:none;stroke:#000"/><path d="m361.1 370.404-.79.376-.7.373-.874.48-.742.385-.45.22M354.34 381.05l.256.042M354.34 381.05l1.85-7.303M348.06 380.125l5.754 1.02.526-.094" clip-path="url(#pd7c0638ee2)" style="fill:none;stroke:#000"/><path d="m348.06 380.125.123-.209.246-.057.404.019 2.959.404 2.122.282.24.129.186.358M367.202 378.73l-1.978-1.078-3.266-1.472-4.416-1.994-1.351-.439M367.202 378.73l2.036-1.672" clip-path="url(#pd7c0638ee2)" style="fill:none;stroke:#000"/><path d="m361.292 383.652 3.98-1.733.625-.38.27-.237.438-.537.27-.427.243-.522.094-.41.016-.38-.026-.296M370.9 375.692l-1.662 1.366M373.782 376.292l-2.13-.27h-.224l-.205-.019-.137-.083-.088-.11-.098-.118" clip-path="url(#pd7c0638ee2)" style="fill:none;stroke:#000"/><path d="m362.93 372.531.563.309.73.33.744.228.92.19 1.03.21.946.262.759.274 1.272.46.432.23.304.285.27.383M361.292 383.652l-3.168 1.413M338.18 365.475l3.8-.98M352.438 362.552l-1.007-.062h-.877l-.71.067-.318.044-.802.156-.716.202-4.822 1.35-1.206.185M352.438 362.552l1.047.128.744.153.676.14.744.152.839.24.392.178.338.304.42.457 2.32 3.46 1.142 2.64M362.93 372.531l-.153-.084-.555-.393-.46-.38-.662-1.27M352.438 362.552l1.087-5.945M344.55 355.648l1.32.314.877.19.81.111 1.079.095.775.015h.64l1.198.032 2.276.202M356.777 356.015l-1.768.596-.473.063-.438-.016-.573-.05M362.93 372.531l4.693-9.476M392.803 381.706l-.833-.655-1.075-.804-1.435-.753-1.263-.543-.819-.36-.713-.464-1.142-1.43-1.105-1.607-.902-1.459-.563-1.148-.759-1.868-.436-1.106-.315-.486-.27-.338-.467-.38-.556-.388-.773-.536-1.022-.584-1.42-.705-7.473-2.813-.463-.077-.578-.006-.261-.015-.122.004-.125-.006-.107-.018-.088-.023-.044-.036-.051-.047M362.638 358.526l.418.269 2.293 1.573.157.1.132.1.132.136.15.195.308.406 1.395 1.75M342.597 355.042l-.198.778M342.597 355.042l.286-1.387M342.597 355.042l.815.357 1.037.225.101.024M358.074 355.417l-.149.103-.522.284-.626.21M355.649 352.674l.05.522.119.585.151.537.27.632.538 1.065M358.074 355.417l-2.425-2.743M358.074 355.417l4.564 3.109M360.005 353.945l-1.692 1.306-.24.166M359.15 343.184l-.303.912-.516 1.55-2.648 6.427-.034.601M324.058 342.933l-.466 2.347M327.624 342.176l-.071-.009-3.495.766M320.346 342.564l2.125.778 1.587-.41M341.214 352.844l-.329.57-.039.301.218.303 1.335 1.802M342.883 353.655l-1.67-.811M342.883 353.655l1.778 1.105M341.214 352.844l-3.61-6.69M344.55 355.648l.111-.888M344.661 354.76l1.036-1.711M345.697 353.049l.204-6.293M349.44 348.235l-.357 1.265-.227.573-.277.546-.407.464-2.475 1.966M337.603 346.155l-.767-1.422M333.88 347.23l.617.03.467-.05.39-.122 2.25-.933M323.592 345.28l8.182 1.645 1.085.173 1.02.132M336.086 349.861l-.254-.017-.199-.086-.127-.102-1.627-2.426M320.346 342.564l2.562 2.484.684.232M336.086 349.861l.78-.357M336.086 349.861l-3.174 1.276M333.32 342.9l1.914.242.412.106.253.088.27.16.667 1.237" clip-path="url(#pd7c0638ee2)" style="fill:none;stroke:#000"/><path d="m333.588 338.798.107-.86.066-.273.15-.29.159-.202.189-.231.07-.085.131-.076.131-.01.142.03.181.065 2.89.967 1.47 2.392-.288 1.202.93 1.815-3.08 1.491M333.32 342.9l.268-4.102M333.32 342.9l-5.696-.724M330.56 337.641l3.3-2.565M333.588 338.798l-2.038-.606-.253-.07-.262-.14-.475-.34M327.31 339.636l.213-.078.361-.085.511-.101.271-.092.283-.153.249-.203.158-.184.265-.315.25-.254.689-.53M330.413 336.29l-.065.528v.193l.033.173.043.143.136.314M333.588 338.798l.272-3.722M327.624 342.176l-.314-1.373-.132-.583-.023-.205.036-.226.12-.153M326.164 336.406l2.089 1.204.056.474-.881 1.107-.075.263-.043.182M330.413 336.29l.217-1.12.032-.265v-.254l-.032-.244-.021-.204-.152-.224-.163-.172-.196-.143-2.263-1.614M320.958 336.606l3.598-2.43.852-.673.92-.57.662-.394.762-.437.083-.052M331.556 330.766l-.935.033-.433.059-.405.111-.335.138-.37.203-.426.242-.817.498M330.413 336.29l-2.471-1.635M327.942 334.655l-.534-.386-.256-.085-.15-.013-.174.013-.163.038-.311.115-.257.164-4.044 2.728M326.164 336.406l-6.134 5.97M326.164 336.406l1.778-1.751M320.03 342.375l.316.19M318.713 341.802l.28.093.712.287.325.193M300.997 335.713l.113-.998-.107-1.4-.645-1.738-1.055-1.08-.365-1.966.183-1.262-.736-2.52-.519-1.59-.06-1.243.712-.608M300.997 335.713l-.939 1.302-.896 1.29-.324 1.112-.164.92.385.582.588.5.593.261.92.126 1.755-.26 1.71-.68 1.13-.201 2.139-.134.741.053 2.665-.337.88-.03.902-.042.816.11 1.048.259 3.391 1.133.376.125M320.958 336.606l-.96 1.906-.317.725-.307.837-.661 1.728M371.363 378.259l-.263-.06-.326-.127-1.536-1.014M377.004 379.13l-.103-.122-.178-.178-.169-.137-.21-.099-.284-.079-.189-.03-.241-.02-3.878-.176-.389-.03M377.004 379.13l-.46.104-.368.129-.546.227-.484.187-.46.11-.433.028-.505-.03-1.786-.226-.168-.03-.169-.05-.136-.088-.021-.09-.105-1.142M377.004 379.13l.055.065.115.148.126.226.053.306-.042.621M396.372 384.588l-.924-.521-.796-.642-.842-.81-.616-.599-.39-.31" clip-path="url(#pd7c0638ee2)" style="fill:none;stroke:#000"/><path d="m407.868 372.906-1.468 2.448-1.158 1.529-.642 1.05-.286.289-.356.19-.451.106-.459.003-.326-.098-.436-.233-.76-.659-.427-.317-.357-.197-.339-.074-.326.007-.459.134-.465.257-.383.278-.478.41-.44.426-.39.4-.256.385-.218.412-.244.345-.274.261-.308.201-.789.37-.991.468-.804.25-.775.16M322.836 332.727l1.652-1.152.63-.439.807-.547.49-.263.514-.219.562-.14.596-.082.617-.019.642.05.488.05.352.064.42.132.595.303.355.3M333.86 335.076l-.112-.61-.095-.369-.182-.425-.469-1-.38-.671-.271-.417-.585-.64-.21-.178M353.648 383.323l.457-.269.213-.2.096-.14.042-.159.14-1.463M374.933 375.23l-.969.345-.075.31-.107.407M396.372 384.588l-.394.004-.424-.057-.44-.07-.492-.085-.372-.042-.616.014-.556.035-.733.046-.849-.021-.646-.036-.669-.09-.654-.128-.615-.206-.812-.331-.768-.322-.735-.352-.326-.122-.36-.138-.505-.169-.409-.092-.49-.107-.637-.168-.555-.184-.457-.2-.426-.26-1.142-.797-1.777-1.41-2.353-2.18-.205-.201-.205-.137-.255-.092-.312-.073-.235-.046-.195-.028-1.97-.25M371.007 355.06l-.331-.212-.435-.258-.463-.242-.404-.19-.89-.357-.295-.092-.307-.039-.287-.013-.3.015-.225.022-.166.044-.156.059-.161.105-.13.12-.197.189-.25.288-.283.342-.251.295-.25.31-2.588 3.08M331.674 371.875l3.053-.787.785-.167.69-.09 1.139-.128M330.386 369.762l.626.867.33.529.203.396.129.32M275 340.87l3.28 2.051 1.959 1.922 1.184 1.923.866 1.196 1.685 1.154 2.46 1.58.82 1.068 1.093.77 1.822.128 1.413.47 1.048.256h.956l1.23 1.367.911 2.606.501 4.272.41 4.315-.136 4.058-.365 2.82-.046 1.324.365 1.068.911.555 3.508.385 7.198 1.324 5.74 1.282 4.828.555 1.96.513.728 1.238.729 1.026-.365 1.666.502.513 1.503.726 1.458-.641 1.366-1.153 1.503-1.453 1.048-.94.273-1.068.957-2.264 1.412-4.315-.041-1.292M396.372 384.588l1.39.507 1.506.726.64.368 1.086.684.758.54.861.662.65.487.6.45.812.72 2.217 2.212 3.148 3.583.638.662.58.405.826.374.669.274.83.511.484.61.308.853.316 1.423.413 1.74.105 1.17-.112.944-.293 1.198-.489 2.008-.06.852.075.775.308.86M419.555 416.677l-2.49-3.616-2.427-2.875" clip-path="url(#pd7c0638ee2)" style="fill:none;stroke:#000"/><path d="m377.987 461.105.435-.902.045-.394-.06-.508-.173-.48-.556-1.21-.631-1.367-.27-.663-.128-.606-.045-.831.12-.472.503-.684 1.556-1.564 2.088-1.958.602-.747.406-.69.27-.832.18-.958.376-.817.601-1.128.36-.521 1.263-1.071 1.386-1.378 1.018-1.081.797-1.135.293-.408.443-.38.759-.493.684-.6.63-.662.49-.74.21-.352.255-.233.369-.225 1.06-.613.45-.275.503-.373.45-.45.384-.537.255-.317.384-.246.827-.247 1.607-.366 1.428-.099.804.07.563.12.316.064.346-.056.811-.338.939-.303 1.06-.156.736-.084.459-.092.375-.161.376-.276 2.66-2.48.668-.824.256-.564.157-.557.098-.647-.098-1.156-.21-1.529-.022-.958v-2.107l-.053-.965-.015-.409.083-.338.203-.366.48-.437 1.39-1.008.707-.655.849-.916.443-.585.33-.74.128-.803.105-.753.083-1.297M419.921 417.207l-.366-.53M425.924 434.797l-1.218-2.762-1.652-3.988-1.248-3.002-1.322-3.818-.563-4.02M425.32 407.098l-4.9 7.354-.499 2.755M434.377 441.258l.12-.916-.015-.902-.143-.627-.48-1.247-.429-1.416-.203-.81-.067-.656-.008-1.529-.12-.662-.218-.451-.376-.388-.518-.38-2.337-1.473-1.465-1.036-.518-.5-.511-.732-.64-1.149-.924-2.1-.804-1.48-1.074-1.655-.886-1.134-1.556-1.466-1.284-1.342M342.564 372.222l2.523.361M342.564 372.222l.009-2.203M359.15 343.184l1.002-1.72 1.327-1.294 1.78-1.309 1.322-.613 1.02-.233.969-.074 1.438.098 1.42.276M431.758 314.357l-2.776-.021-.94.11-1.22.344-1.36.5-1.026.222-1.9.113-3.074-.208-.92.053-1.06.19-.83.13-.695-.01-.845-.172-.628-.236-.42-.258-.32-.352-.143-.377-.236-1.057-.402-.877-.387-.458-.391-.307-.593-.144-.737-.004-.785.025-.774.028-.752.137-.961.346-.639.193-.642.074-.83.043-1.609.246-3.426.769-4.335.824-2.675.641-1.09.571-.766.585-.6.698-.294.57-.053.62.15.55.294.472.51.437.7.536 2.141 1.26 1.45.91.593.486.707.79.248.486.278.57.075.465-.068 2.72.098 1.438.443 3.05-.015.875-.158.768-.42 1.141-1.172 2.29-1.191 2.156-.94 1.3-.537.564-.582.458-.76.367-1.055.43-.83.285-.624.137-.792.025-2.697-.162-1.721-.007-1.721.099-.924-.057-.894-.183-1.18-.528-5.481-2.682-1.127-.497-.804-.168-2.16-.187-1.03-.187" clip-path="url(#pd7c0638ee2)" style="fill:none;stroke:#000"/><path d="m400.017 274.401-.74 3.788-.185 1.406-.112.5-.154.487-.256.426-.74 1.113-.323.391-.616.6-4.14 2.889-1.097.5-1.007.394-1.292.374-1.278.148-1.097.268-1.66.641-1.044.26-.865.093-4.59.119-2.908.233-.804.197-1 .507-.826.346-.526.042-.45-.077-.723-.261-.6-.493-1.083-1.078-.954-.931-3.328-2.459-.782-.352-.751-.19h-.676l-.646.302-2.104 1.692-.782.873-.075.846.626 2.332-.221 2.444-.155 2.093.707 2.051.442 1.513 1.26 1.056 3.29 1.12.862 1.118.265 1.45 1.591 1.326.574 1.492.089 4.206.42 1.119-.486 3.004 1.281 3.21 2.165 1.223 2.385.767 1.746 1.305 1.79 2.383.287 1.533-.818 3.315-1.148 3.108-2.652 4.392-2.076 1.906-2.599.854M314.806 334.995l.203.141.413.077.503.022.88-.008.556.015.33.05.278.083.3.149.316.204 4.25-3.001M320.958 336.606l.745-1.99 1.133-1.889M332.296 326.943l.3.462.418.782.33.76.241.832.161.788.184 1.143.076.606.057.659-.012.454-.03.564-.16 1.083M330.588 324.164l-.28-2.897M332.296 326.943l-.81-1.248-.898-1.531M318.798 329.286l1.984-1.93 1.397-1.072 1.803-.874 2.345-.86 1.848-.634.481-.098h.42l.541.098.971.248M318.798 329.286l-1.683 1.352-2.104 1.325M314.806 334.995l-.09-.183-.008-.204.053-.212.142-.204.303-.228.664-.688.585-.614.595-.753 1.748-2.623" clip-path="url(#pd7c0638ee2)" style="fill:none;stroke:#000"/><path d="m332.296 326.943-1.927-.617-1.097-.197-1.157.014-1.097.268-1.773.746-1.818.973-.57.4-.467.418-1.037 1.155-1.488 1.705-.628.614-.8.64-3.631 1.933M598.123 240.173l1.8-.595 4.7-1.857 1.081-.599.691-.479 3.555-2.524 1.577-.845 2.292-.894 2.84-1.311 2.893-1.473 1.405-.628 1.811-.627 3.816-1.346 2.113-.635M607.087 221.675l.022.408.106.219.165.14.3.12.511.057 1.894.112 1.533.148.69.17.414.077.466-.014.646-.127 1.39-.317.579-.077h.465l.481.084.714.345 1.367.783 1.48 1.07.331.269.406.395.466.246.608.219.925.169 2.239.063 2.059-.057.646.008.334.052.373.123M377.656 196.486l1.353.67.939.606.548.494.323.43.346 1.134.18 1.078.135 3.024.218.902.444.994.503.74 1.232 1.31 1.104 1.614 1.496 2.84 1.412 2.869.962 1.705 2.217 4.694 1.397 3.023.233.796.15 1.086-.082.564-.338.972-.368.775-.27.818-.024.641.053.782.639 3.75.42 2.022.106.91.24 2.825.113 1.106.248.754.601 1.079 2.36 3.058 1.156 1.389 1.473 1.761 1.022.959 1.93 1.24 1.023.31 1.292.31 1.225-.02.984.112.834.218.534.325.39.465.586.937M400.017 274.401l.488-1.6.488-1.084 1.187-2.2.542-1.056.255-.663.188-.993.03-.874.098-.91.428-1.176.744-1.593.894-2.741.36-.704.677-.825 1.285-1.29.39-.493.924-1.642" clip-path="url(#pd7c0638ee2)" style="fill:none;stroke:#000"/><path d="m438.194 206.008-.45.944-1 2.107-1.3 3.052-.474.853-.789.846-1.367 1.162-1.044.853-1.533 1.12-.902.903-.676.895-.429.768-.278.796-.12 1.353-.045 1.22-.158.479-.33.317-.45.26-.677.19-.654.078-.91-.056-.615.092-.459.317-.428.543-.48.746-1.24 2.241-2.352 4.08-.368.769-.128.543.037.599.113.634.368 1.853.076.712-.053.755-.136 1.416.061 1.156.15 1.219.007.853-.15.683-.315.522-.511.443-1.278.79-2.674 2.072-.624.585-.594 1.057-.436.733-1.172 1.529-2.412 3.467M411.37 284.415l-.684-1.593-.33-.775-.361-.585-.94-1.127-1.78-1.734-1.398-1.416-.639-.536-.63-.359-.805-.352-2.772-1.177-1.014-.36M512.61 300.024l2.314.155 1.104.028.977-.226.826-.303.895-.591 2.254-1.67 5.139-3.848 1.924-1.31 1.15-1.03.66-.655.571-.352 1.113-.36 1.014-.366 1.427-.648 2.893-1.466.601-.437.466-.416.646-.733 1.248-1.62.503-.402.676-.367.646-.168.612-.05.527.074 1.13.391 2.563 1.089" clip-path="url(#pd7c0638ee2)" style="fill:none;stroke:#000"/><path d="m561.215 257.171-4.004 2.495-4.87 2.917-1.84 1.12-.669.508-.571.635-.285.507-.82 3.108-.292 1.296v.93l.135.987.774 3.7.173 1.444-.09 1.206-.294 1.24-.781 2.657-1.292 2.822" clip-path="url(#pd7c0638ee2)" style="fill:none;stroke:#000"/><path d="m594.26 299.573-1.885.338-3.667.338-.526.141-.6.324-.444.113-2.457.198-1.03.049h-.916l-1.037-.17-8.566-2.162-.729-.205-.743-.254-2.818-1.233-.894-.289-1.075-.197-5.778-.585-1.081-.113-.752-.14-.796-.325-1.022-.697-1.022-.656-.94-.5-1.021-.374-.654-.288-.41-.247-.845-.684-.77-.76-.312-.37-.285-.48-.519-.98-.683-1.021-.962-1.269-.875-.986-1.011-.888-.646-.458M460.284 308.769l3.66-1.748 1.464-.57 1.623-.508 2.39-.817 1.285-.36 1.465-.176 5.672-.465 2.15-.218 1.141-.05.857.064 1.217.352 1.225.247 1.57.077 1.977-.049 3.11-.338 4.178-.303 1.63-.29 1.135-.239 1.06-.423 2.216-1.317 1.277-.627 1.24-.466 1.104-.282 1.24-.112 3.066-.007 3.373-.12M511.445 294.957l.466.803.21.55.195.803.256 1.692.037 1.219M315.788 289.306l2.332.888 1.236 1.216.837 1.413 1.613 5.39 1.02 5.471.34 1.28 2.07 2.77 2.212 2.492 1.13 1.744 1.466 3.634.374 1.568-.11 4.095" clip-path="url(#pd7c0638ee2)" style="fill:none;stroke:#000"/><path d="m307.654 329.067.595 1.34 1.626.557.833.037.912-.149 1.665-1.153 1.586-.632 1.468-.558 5.235-2.715 4.203-2.157 1.626-.483 1.746-.633.634-.595.525-.66M300.997 335.713l-.778-1.196-.841-1.691-.39-.62-.677-.817-.286-.465-.45-1.17-.256-.93-.18-.86-1.292-2.382-1.533-1.86-1.292-1.156-.782-.803-.466-.874-.045-.817-.075-.832-.323-.916-.346-1.43-.007-.557.225-.923.376-.642 1.518-1.93 2.133-1.621 1.488-1.62 2.029-1.537 1.052-.747.526-.225.856-.212 2.36-.465 1.037-.352.78-.38 2.886-2.298 3.667-3.41 1.142-1.269.796-1.029.556-.831.376-1.001.616-2.184.256-1.466.082-1.135.053-1.754M298.957 176.718l.767.937 1.999 1.946 2.17 2.311 1.083 1.304.57.768 1.255 2.065.407.571.247.225.736.261 1.083.529.841.634.353.416.21.275.151.402.082.45-.022 1.509.083.401.188.48 1.126 1.546.564.663.334.508.166.27.06.209.049.599.067.24.143.257 1.187 2.058 1.638 2.678 1.188 2.24.315.769.135.55.068.683.037.74-.112 1.565v1.106l.218 2.798.21.585.188.451.496.804.796 1.754.376.973.165.733.33 2.65.219 1.078.21.655.316.853.879 1.705.24.62.406 1.84.315 2.15.707 2.741 1.044 3.488.316 1.085.165.797.015 1.135-.045 1.55-.148.839-.11.208-.107.137-.732.366-.526.212-.887.408-.826.226-1.127.113-1.533.126-2.434.268-1.353.31-.571.31-.721.663-.632.803-1.878 4.623-.15 1.48v.902l.33 2.805.015.705-.09.676-.3 1.283-.48 2.833-.632 4.693-.196 2.058-.014 1.113.075 1.988-.06 2.255.045 1.536.3 1.79.391 1.296.346.62.69.959 1.098 1.381.526 1.043 1.127 3.016.346 1.184.12 1.691.195 3.059M354.048 340.187l1.775.036 1.648 1.03 1.678 1.93M292.4 393.619l.289-.09 1.966-.409 1.949-.303 4.352-.253 1.89.162 1.717.374" clip-path="url(#pd7c0638ee2)" style="fill:none;stroke:#000"/><path d="m300.13 388.759.39 2.368.842.76 3.2 1.213M377.656 196.486l-1.526-.535-.428-.275-.278-.352-.128-.648.023-1.424-.075-.917-.12-.634-.278-1.106-.526-1.24-.293-.487-.586-.676-.324-.585-.405-1.311-.293-.656-.27-.409-1.173-1.48-.586-.775-.263-.19-1.277-.487-1.233-.591-.714-.297-.322-.049-.579.035-2.172.325-2.388.183h-1.255l-1.21-.211-1.841-.614-1.142-.676-1.277-.966-.407-.55-.172-.5-.165-.824-.15-.72-.249-.514-.39-.472-.564-.444-.721-.331-.977-.353-.901-.507-1.503-1.247-1.255-1.114-.414-.536-.247-.683-.06-1.213-.03-.733-.173-.507-.353-.832-.654-1.459-.263-.852-.165-1.036-.136-.98.203-2.833.023-1.678-.165-1.156-.203-.613-.414-.662-.984-1.353-.315-.614-.249-.81-.345-.846-.226-.324-.63-.867-.79-.804-.518-.267-.624-.17-3.426-.662-2.149-.57M332.354 147.67l.25.165.654.451.698.515M298.957 176.718l.88-.324 1.059-.459 1.48-.803.797-.451.608-.458.436-.367.608-.719.586-1.12.602-1.22.646-.803.781-.923.812-.832 1.044-.782.811-.592.399-.423.233-.493.15-.522.128-1.071.225-.846.278-.366.391-.409 1.397-1.149.647-.726.774-.993.856-.846 1.586-1.48 1.201-.93.73-.325 1.307-.24 1.954-.458.66-.232.684-.331 1.841-1.227.992-.493 2.006-.776 1.488-.655 1.262-.768 1.548-1.036.624-.6.488-.669M601.665 504.926l1.101.571 1.41 1.071M633.804 521.966l-.367.172-.556.193-.683.102-.767.05-1.833.112-1.24.092-.931.007-1.124-.057-1.352-.003-.56-.067-.417-.084-.47-.155-.91-.405-1.254-.772-1.63-.93-1.623-.704-1.6-.627-1.075-.444-1.21-.74-1.007-.747-1.123-.866-.875-.951-.673-.712-.432-.556-.616-.938-.526-1.077-.676-1.127-.766-1-.722-.762-1.06-.944-1.55-1.458" clip-path="url(#pd7c0638ee2)" style="fill:none;stroke:#000"/><path d="m609.371 498.501-.887.282-.683.335-.654.317-.763.433-.872.497-1.021.465-.305.162-.278.092-.555.144-.425.14-.086.059-.076.09-.052.123-.008.17-.007.63-.196.887-.037.402.068.26.15.177.225.197.398.24.496.415.248.289.098.254.022.433.004.574M553.108 569.443l-.161-.229-.496-.574-.334-.493-.249-.627-.112-.624.071-.796.132-.637.222-.704.277-.466.59-1.169.143-.45.087-.48-.046-.482-.079-.307-.154-.313-.296-.332-.586-.57-.154-.275-.046-.243.023-.324.09-.472.113-.521-.02-.367-1.134-3M546.127 549.128l.365.263.493.412.27.313.447.482 1.53 1.938 1.194 1.529.563.923M551.74 555.642l-.264-.43-.103-.179-.068-.08-.1-.04-.095.004-.12.07M509.987 502.94l.624-.317.646-.409.699-.31.699-.134.48-.127.725-.37.601-.25.868-.278.579-.197.514-.166.463-.074M525.819 507.075l-.76-.345-.833-.183-.692-.268-.465-.31-.414-.542-.51-.838-.948-1.375-.63-.669-.775-.838-.503-.43-.669-.37-.758-.38-.496-.159-.481-.06" clip-path="url(#pd7c0638ee2)" style="fill:none;stroke:#000"/><path d="m509.717 483.689.09 1.102.022.825-.157 1.12-.008.62.165.83.639 2.404.191.507.18.296.347.341 1.885 1.445.459.384.387.415.229.367.57 1.26.212.388.435.532.267.363.169.401.214.747.237.656.635 1.616M502.902 503.49l1.056.013 1.062.07 1.18.103.71.021.699-.067.932-.2.605-.194.465-.134.376-.162" clip-path="url(#pd7c0638ee2)" style="fill:none;stroke:#000"/><path d="m501.749 542.575.112-.54.058-1.05.085-.476.097-.21.156-.16.224-.145.246-.117.317-.117.192-.097.111-.105.09-.146.056-.154.074-.33.052-.34.083-.23.135-.193.18-.17.226-.154.188-.184.142-.169.346-.412.207-.278.21-.352.32-.63.334-.758.184-.342.518-.665.18-.226.144-.278.131-.335.094-.39.15-.515.24-.779.189-.44.165-.352.165-.271.395-.455.202-.327.14-.29.082-.341.019-.401-.042-.617.06-.687.14-.718.191-.61.282-1.007.308-.73.387-.774.248-.627.267-.469 1.145-1.306.372-.451.143-.32.053-.307.034-.652.037-.388.068-.27.267-.526.165-.359.082-.282.05-.454-.035-.479-.15-1.033-.075-.433v-.229l.064-.398.071-.64.011-.29-.067-.317-.147-.394-.123-.44-.03-.363.063-.366.132-.332.503-.708.357-.63.2-.504.138-.662.08-.641-.016-.328-.101-.278-.196-.32-.473-.5-.282-.332-.263-.38-.176-.377-.106-.37-.093-.444-.072-.324-.143-.303-.21-.31-.18-.152-.24-.133-.38-.138-.654-.225-.308-.166-.357-.218M557.18 480.846l-.164 1.216-.106.365-.116.219-.26.257-.135.279-.086.345-.188.497-.256.405-.39.38-.518.38-1.03.624-.511.25-.575.152-1.439.197-.773.19-1.067.426-.816.444-.976.578-.508.306-.811.31-1.574.423-1.218.426-1.307.56-.789.43-.514.36-.958.806-1 .627-.323.285-.18.296-.124.345-.2.818-.165.514-.108.32-.23.304-.323.278-.62.348-1.142.585-.687.433-.736.578-.654.67-.568.866-.503.92-.357.912-.33 1.233-.14.556-.217.98-.113 1.458-.045.553-.17.384-.202.264-.233.165-.248.12-.372.074-.71.145-.477.091-.395.05-.477.02-.454-.006-.35-.053-.604-.14-.324.017-.161.091-.334.303M546.127 549.128l-1.051-.755-.59-.448-.387-.38-.345-.56-.117-.458-.056-1.367-.11-.82-.232-.807-.38-.747-.638-1.071-1.052-1.856-.68-1.303-.282-.67-.09-.535v-.433l.015-.3.042-.338.123-.349.2-.482.109-.48.03-.447-.046-.613-.225-.683-.42-.76-.534-.895-.729-1.127-.36-.832-.316-1.409-.541-2.564-.15-.578-.008-.444.12-.81-.022-.683-.24-.606-.256-.634-.105-.606.03-.747.15-.768v-.43l-.06-.478-.196-.74-.187-.98.014-.753.143-.634.646-1.748.143-.514-.06-.408-.128-.303-.255-.304-.533-.21-.586-.05-1.113-.028-2.088-.451-1.293-.204-1.172-.078-.992.014-.6-.197-.527-.437-.33-.493-.466-.846-.278-.746-.256-.613-.375-.557-.616-.5M568.417 485.349l-.169-.233-.443-.465-.639-.374-1.097-.387-2.066-.578-4.057-1.353-2.765-1.113M537.592 472.04l3.584 2.092 3.825 1.994.545.292.518.215.511.14 1.218.12.833.13 1.714.498 1.416.51 1.36.75 2.186 1.17 1.879.895M568.417 485.349l.643.887 1.097 1.254.609.578.638.465 1.368.542 1.24.627 1.104.648.782.655.916.874.244.335.267.45.165.51.23 1.163.187.638.132.465M601.665 504.926l-.931-.482-2.453-1.177-.436-.2-.511-.145-.721-.08-.725-.029-.925.05-1.536.063-.887-.068-.608-.094-.67-.208-.86-.402-.758-.317-.823-.236-1.997-.475-.368-.122-.432-.194-.964-.57-1.039-.662-.91-.547-.587-.287-.396-.153-.545-.127-.841-.134-.646-.181-.442-.208-.462-.334-.42-.596-.391-.648-.342-.923" clip-path="url(#pd7c0638ee2)" style="fill:none;stroke:#000"/><path d="m600.58 506.272-.804-.486-.65-.296-.966-.363-2.243-.694-.447-.088-.272-.007-.364.037-.382.065-.544.075-.237.012-.256-.027-.443-.113-1.412-.45-1.093-.383-.26-.072-.165-.03-.12.002-.163.057-.15.088-.183.142-.224.238-.14.123-.18.092-.29-.004-.27-.046-.538-.151-2.254-1.081-1.285-.74-1.247-.726-1-.507-.604-.222-.865-.158-.912-.148-.549-.215-.39-.338-.35-.462-.225-.486-.2-.68-.078-.63.014-.888.2-1.272M600.58 506.272l1.022.627.66.43.26.208.36.475.192.342.068.151.094.138.158.151.176.11.444.218.296.222.339.37.326.373.218.306.26.487.281.753.26.68.116.469.064.613.015.553-.042 1.254.02 1.824.018.515-.011.278-.034.289-.098.292-.109.24-.176.274-.297.342-.203.155-.267.13-.375.096-.369.049-.394.01-.368-.056-.395-.106-.454-.204-.996-.542-1.533-.708-1.54-.607-1.924-1-.54-.24-.646-.035-.429.163-.496.373-.48.747-.511 1.05-.18.852M600.58 506.272l1.085-1.346M568.312 565.726l.372-1.041.38-.684.462-.785.225-.38.143-.335.09-.331-.004-.398-.094-.455-.248-.493-.304-.313-.278-.254-.09-.137-.015-.17.037-.162.868-1.292" clip-path="url(#pd7c0638ee2)" style="fill:none;stroke:#000"/><path d="m589.967 576.723-.361-1-.451-.922-.424-.828-.2-.293-.142-.169-.158-.13-.327-.187-.473-.236-1.323-.828-.372-.253-.39-.306-.44-.413-.68-.585-1.063-.82-.286-.289-.289-.331-.518-.747-.429-.633-.142-.17-.124-.12-.15-.098-.372-.067-.635-.063-.579-.1-.466-.059h-.255l-.368.039-.62.088-.996.12-.533.088-.556.06-.564.01-.627-.042-.575-.085-.962-.264-.605-.166-.503-.09-.524-.027-.607.007-.336-.013-.303-.079-.233-.125-.18-.134-.381-.258-.496-.25-.637-.229M551.74 555.642l.181.32.308.406.387.328.766.563.786.472.436.335.804.782 1.288 1.244.33.4.241.466.282.637.184.413.2.299.638.648.857.771.683.466.364.186.586.205.639.14.51.042.723.018 1.9.06 1.15.06.413.088.387.14.985.399.544.196" clip-path="url(#pd7c0638ee2)" style="fill:none;stroke:#000"/><path d="m551.74 555.642.797.465.406.254.608.437.271.183.18.078h.218l.226-.07.376-.233M546.127 549.128l.339-.304.24-.085.399-.077.518-.022.496.022 1.097.154.827.219.66.288.655.445M461.8 510.417l-.05-.358-.046-.708-.102-.553-.24-.793-.199-.644-.124-.874.019-.458.083-.433" clip-path="url(#pd7c0638ee2)" style="fill:none;stroke:#000"/><path d="m471.425 498.71-.321.369-1.139 1.226-.5.574-.439.338-.522.31-1.84 1.022-2.897 1.472-1.203.656-.762.465-.661.454M440.307 512.91l.254-.058.72-.007.647.077 1.172.286.503.067.511-.032.466-.102.917-.31.556-.176.297-.039.312.021.353.11.894.454.35.113.371.052.451.018 1.116-.137.492-.145.489-.215.54-.299.77-.596 1.496-1.21.353-.34.26-.348.228-.5.278-1.11.12-.302.196-.307.342-.398.417-.313.976-.505 1.109-.528.552-.267.39-.12.32-.06 1.616-.088M501.749 542.575l-.372 1.077-.09.613.03.43.217.796.383.832.21.514.151.655.57 1.986.377.733.27.69.218.733.175.45.184.316.062.168-.023.179-.058.099-.142.104-.218.067-.641.061-1.042.13-.464.129-.324.14-.197.13-.156.187-.12.193-.08.213-.042.244-.075.285-.092.172-.132.088-.197.055-.223.002-.273-.064-.383-.118-.196-.02-.242.002-.942.096" clip-path="url(#pd7c0638ee2)" style="fill:none;stroke:#000"/><path d="m463.555 513.903.241.267.489.359.95.275.534.014 3.148-.374 1.297.38.903.235 5.532.498.789-.093 1.5-.523.82-.026.986.325.503.37.284.671.19 1.418-.632 1.05-.465.659-.241.877-.003.824.21 1.93-.267.6-.721.866.052.352.3.19.504-.035.7-.123.469.161.203.187.728.973.053.58-.176.72-.421.852-.365.341-1.472 1.036-.32.546-.063.458.22.363.47.517.004.388-.048.151-.47.962.09.275.131.085.538.074.83-.17 1.379-.585.27.036.451.317.436.542.42 1.007-.06.55-.676 1.078-1.194 2 .052 1.128.15.69.391.367.473.148 1.263.155.669.387 1.701 1.698.673.412 1.014.49 2.051.7 2.439 1.043 1.642.374 2.45-.462.976-.887 2.066-.924.338-.204.816-.873M440.307 512.91l-.836.189-.774.267-.526.282-1.12 1.057-1.149 1.127-.699.578-.24.183-.376.233-.36.126-.526.127-1.075.296-.774.282-.398.176-.391.367-.45.662-.271.267-.33.31-.151.247-.038.289.008.366-.015.606-.068.775-.135.436-.173.353-.278.366-.473.423-1.127.86-2.42 1.683-.976.627-.85.465-1.066.578-1.165.683-.984.79-.594.5-.548.408-.67.317-1.148.48-.79.267-.78.204-.632.212-.519.281-.616.521-.646.5-.695.388-1.416.662-.631.458-.339.324-.229.345-.244.529-.282.7-.093.392-.035.355-.03.377.087.529.454.838.154.335.046.377-.042.335-.184.475-.409.824-.312.592-.335.514-1.119 1.416-.158.275-.139.349-.304 1.24-.207.725-.165.504-.23.486-.462.877-1.059 1.575-1.277 1.627-.417.563-.488.744-.481.849-.463.884-.3.556-.26.402-.225.268-.297.327-.514.528-.5.634-.436.715-.233.462-.16.7-.095.814-.034.54-.112.922-.158.733-.26.778-.293.733-.713 1.987-.609 1.754-.3.725-.218.662-.046.303-.022.522.09.436.166.62.398.705.811 1.099 1.15 1.155.654.564.819.915.72 1.113.519.832.335.507.169.398.022.295" clip-path="url(#pd7c0638ee2)" style="fill:none;stroke:#000"/><path d="m412.211 569.507-.856-1.275-.519-.522-.368-.26-.45-.176-.707-.177-.684-.204-.74-.412-.638-.472-.425-.448-.203-.295-.349-.581-.263-.216-.3-.102-.474-.031-.579.091-.47.176-.51.353-.518.507-.399.465-.346.719-.169.485-.135.571-.139.757-.067.41-.008.372.083.377.154.45.424.832.24.641.286 1.12.21 1.656.034.722-.157 1.338-.23.54-.248.366-.206.186-.256.134-.507.24M460.02 512.014l1.78-1.597M463.555 513.903l-.303-.336-.77-1.162-.481-1.113-.173-.673-.028-.202M471.425 498.71l.04.679.06.754.097.725.15.54.143.352.248.342.285.277.677.525 1.57 1.254.917.966.736.662" clip-path="url(#pd7c0638ee2)" style="fill:none;stroke:#000"/><path d="m467.336 477.108.383 1.684.139.726.079.542-.046.758-.116 1.032-.045.711.049.603.105.486.315.927.076.31.056.475.02 2.343.037 1.176-.023.448-.067.387-.189.521-.15.546-.011.342.079.37.132.387.22.391.294.448.327.398.312.278.402.303 1.093.705.774.57.312.307.218.289.112.397-.004.547-.075.574-.154.553-.353.693-.212.375M458.03 463.12l.624.296 1.322.916.872.803 1.923 2.691.992 1.437.3.677.105.873.06 1.874.136.747.33 1.015.286.831.27.465.617.522 1.469.841" clip-path="url(#pd7c0638ee2)" style="fill:none;stroke:#000"/><path d="m493.254 479.846-1.074-.31-2.908-.782-1.112-.155-1.616-.022-1.03-.162-.6-.24-.526-.387-1.225-1.338-.638-.543-.722-.373-.639-.177-.563-.034-.616.077-.488.219-2.893 2.473-2.217 2.106-.503.373-.451.14-.593.008-.64-.197-.615-.423-1.045-.95-.954-.846-.804-.487-1.446-.708M463.555 513.903l-.04.982-.195.842-.233.898-.23.525-.45.725-.305.676-.274.613-.237.407-.435.543-.267.305-.21.168-.316.184-.444.207-.668.36-.327.24-.278.26-.259.176-.263.095-.357.074-.44.025-.713.134-.647.204-.5.296-.638.536-.338.373-.353.627-.458.711-.515.54-.192.344-.128.677.102.472.188.563.191.758.286 2.015.128 1.067-.03.697-.11.934-.105.338-.191.236-.24.187-.425.288-.256.282-.135.346-.094.4-.03.395.143 1.62M440.307 512.91l-.317-.435-.515-.577-.282-.222-.21-.074-.226-.007-.38.116-.465.158M379.805 184.456l.864 1.501.728 1.213.226.33.128.43.24 1.15.008.366-.068.26-.624.811-.773.782-.113.191-.038.246.083.762.03.416-.022.366-.113.338-.834 1.03-1.015 1.169-.856.67M102.173 145.736l.286-.226.285-.31.677-1.544.653-2.093.504-1.84.413-.909.308-.535 1.165-.98.311-.204.253-.173.172-.106.128-.056h.15" clip-path="url(#pd7c0638ee2)" style="fill:none;stroke:#000"/><path d="m108.297 137.144-.263-.085-.285-.173-.271-.126" clip-path="url(#pd7c0638ee2)" style="fill:none;stroke:#000"/><path d="m109.401 128.1-1.247 2.144-.39.79-.24 1.169-.211 2.256-.068.86.045.711.188.73M113.801 178.294l-.101-.152-.421-.297-.669-.239-.85-.1-1.622-.055-1.443-.395-.796-.493-.842-.818-1.908-2.17-.887-1.565-1.443-2.65-1.307-2.396-.721-2.439-.06-.902.195-1 .27-1.128 1.473-3.44 1.082-1.988.286-.493.616-.578.706-.76.451-.86.24-.607.271-1.325-.075-.874-.226-.592-.33-.48-1.563-1.627-1.954-2.135M257.91 154.51l.954.825.707.409 1.878.634.931.479 2.75 1.917 1.173 1.254.646.902.841 1.932.361.62 1.247 1.438 2.69 2.509.511.606.616.747.582.437 1.147.62.668.41.33.246.73.965.466.522.751.599.924.726.316.338.285.416.256.712.781 1.825.811 1.332.557.655.6.494.902.465 1.135.331 2.66.536 2.704.79.647.006.466-.098.413-.226.63-.5.527-.634.774-.727.864-.584 1.15-.473 2.081-.676 1.195-.444.39-.127" clip-path="url(#pd7c0638ee2)" style="fill:none;stroke:#000"/><path d="m198.28 161.522-1.013.649-.496.282-.564.12-.473.007-.488-.057-.579-.225-1.934-1.208-1.841-.998-.313-.144-.42-.138-.32-.07-.567.035-.586.14-.759.247-2.164.297-.646-.029-.774-.105-.691.035-.48.113-.49.232-1.848 1.347-1.36.979-1.397 1.41-.79.669-.42.106-.624.07-.66.043-.519.197-.473.303-1.293 1.029-1.352 1.24-.248.332-.21.415-.354.959-.218.388-.33.409-.414.345-1.081.803-.436.331-.526.578-.744 1.044-.729 1.339-.376.697-.202.148-.301.113h-.406l-2.667-.55-1.082-.155-.466.028-.458.113-.616.36-1.045.895-2.209 1.881-5.072 3.68-3.719 2.924-.76.465-.487.177-.33.02-.414-.09-.383-.156-.428-.331-.52-.55-.96-1.092-.737-.945-.488-.867-.79-1.332-1.3-1.797-1.953-2.29-1.818-1.946-1.135-1.064-1.247-1.036-.631-.627-1.405-1.74-1.188-1.742-.495-.387-.594-.303-1.412-.36-1.387-.137-1.39-.18-.311-.046-.316-.127-.424-.282-.41-.281-.714-.339-.308-.084h-.252l-.353.067-.807.296-1.473.585-.639.197-1.194.232-2.27.163-.811-.036-.556-.105-1.21-.416-2.111-.768-1.699-.938-.998-.874-.797-.95-.94-1.425-.315-.853-.218-.944-.038-.895.113-.451.166-.331.345-.374 1.135-1.163.901-1.156 1.781-2.501.631-1.27.924-1.959 1.045-2.53.15-.69.008-.445-.06-.373-.286-.43-1.112-1.142-1.127-1.692-1.142-2.396-.616-.902-.977-1.328-.15-.303-.034-.17-.019-.292M198.28 161.522l.625-.401.586-.394.233-.254.308-.445.188-.394.15-.43.203-.31.368-.43.864-.698.579-.444.368-.387.473-.677.278-.761.406-1.064.51-.881.654-.825.654-.712 1.187-1.015 1.728-1.515 4.524-4.349 2.78-2.735 5.478-5.49 3.681-3.601 1.465-1.353.616-.437.609-.297 1.75-.824 2.067-.783 2.081-.677 2.352-.803 4.238-1.557 1.608-.627.834-.198.72-.02.52.098.488.197.353.275.533.514 1.315 1.586.474.57.278.466.112.36.083 1.184.098 2.142.255 2.044.233 1.057.353.748.346.57 1.6 1.84.27.324.166.388.083.542-.135 2.136.097.663.12.472.857 2.1.398.748 1.21 1.648 1.105 1.586 1.945 2.615 1.308 1.903" clip-path="url(#pd7c0638ee2)" style="fill:none;stroke:#000"/><path d="m252.883 156.716 3.216-1.297 1.811-.91M192.954 158.112l.737.225 1.833.366.36.142.466.352.962 1.057.968 1.268M113.801 178.294l.41-.286.315-.141.413-.092.766.07.775-.077 1.435-.246.578-.219.706-.346.526-.408.451-.571.91-1.374M332.354 147.67l-.149.314-.202.26-.564.536-1.014.987-1.533 1.156-.826.789M342.51 145.399l.564-.069.729-.113.394-.077.601-.215.496-.303.316-.268.255-.395.564-1.184 1.442-2.368.827-1.085.44-.427.638-.415.71-.54.564-.557.51-.683.632-1.107M349.743 156.307l-.173-1.247-.06-.409-.128-.324-.188-.331-.338-.473-.692-.93-.54-1.106-.511-.987-1.33-1.946-.692-.944-.856-.867-1.097-.923-.628-.421M332.354 147.67l1.219-1.18.729-.677.383-.247.353-.155.699-.092.834-.14.51-.219 1.038-.655.533-.19.481-.1.308-.007.443.05.842.317 1.413.775.37.249M583.103 247.072l-1.232-.038-.602.018-.706.126-.977.317-.991.508-2.404 1.755-1.796 1.205-2.12 1.325-2.501 1.127-2.097.938-2.705.972-2.411 1.127-1.346.72M562.298 249.624l-.617.839-.66.64-.52.368-.585.203-.767.233-.308.162-.173.233-.075.345v.67l.06.599.18.5.429.627.917.958 1.036 1.17M431.758 314.357l.872-.01.886-.078 2.412-.487 4.7-.729.887-.053.958.032 1.89.219 2.682.38.68.077.507-.049.477-.099.714-.278 3.268-1.518 1.465-.613 2.71-.98 3.418-1.402" clip-path="url(#pd7c0638ee2)" style="fill:none;stroke:#000"/><path d="m461.952 335.94 1.653-2.163.729-.803.36-.521.053-.515-.172-.55-.534-.5-.88-.345-.878-.148-1.09-.036-3.471-.232-1.345-.035-.811-.106-.61-.162-1.765-.726-2.216-.81-1.864-.508-1.3-.19-4.598-.472-2.284-.197-3.126-.035-2.006-.134-.639-.141-.45-.233-.399-.324-.293-.324-.21-.472-.076-.465.113-.437.279-.374.773-.606 1.36-.831 2.945-1.635 1.3-.585 1.098-.422 1.262-.374 1.149-.24 1.623-.253 2.09-.155 3.358-.416 3.328-.352 1.886-.367 1.405-.38.812-.339.616-.394.458-.522.256-.563.21-.67.038-.74-.09-.648-.203-.818-.278-.979-.046-.493.053-.48.158-.542.218-.521.383-.888M449.817 286.529l-1.773 1.889-1.72 1.656-1.939 1.444-4.756 3.756-.932.705-.579.57-.72.868-.97 1.662-1.127 1.91-.42.69-.181.663-.293 1.959-.12.536-.241.507-.94 1.614-.39.972-.548 2.093-.36 1.184-.084.648.034 2.502M493.254 479.846l1.42.52 1.067.536.729.26.894.107 6.108.282 1.083.049.804.197.849.38 2.149 1.135.717.285.643.092" clip-path="url(#pd7c0638ee2)" style="fill:none;stroke:#000"/><path d="m537.592 472.04-2.64-1.878-.504-.247-.635-.134-.511.06-.357.177-.304.277-.214.423-.173 1.092-.113.585-.135.433-.342.857-.098.51-.018.529.068.813-.004.55-.095.556-.172.589-.804 2.173-.458.877-.301.385-.406.218-.436.187-.533.066-1.89.07-1.965-.066-1.596-.099-1.338-.148-.976-.028-1.811.039-1.638.06-.635.092-.485.109-.59.274-1.416.754-2.115.913-1.42.387-.815.194M434.377 441.258l-.015 1.148.12.535.255.41.474.478.781.571.782.367.653.168h.744l1.293-.134 2.126-.295.759-.233.871-.43.94-.471.924-.262.871-.056.67.064.533.211 2.584 1.649 3.667 2.374.834.409 1.105.345 1.3.33.886.318.736.465.496.458.346.48.142.464.023.747-.165 1.592-.932 2.713-1.172 2.571-.526 1.536-.188.712-.082.556.03.578.225.437.473.43 1.09.627" clip-path="url(#pd7c0638ee2)" style="fill:none;stroke:#000"/><path d="m470.443 452.537-1.12.043-.518.155-2.51 1.592-.7.62-.194.36-.083.436-.03.493.135.459.316.5.962 1.204.45.747.279.712.21.98.383 2.282.068 1.219-.083.782-.3.528-.459.63-.191.173-.252.089-.545-.018-.35-.12-.454-.229-.732-.384-1.428-.535-.721-.416-.361-.246-.376-.423-.721-.747-.481-.324-.375-.127-.617-.014-.826.056-.79.106M423.414 438.32l1.217-1.593 1.278-1.17.518-.394.488-.268.538-.098.634.056.767.198.676.239.504.31.744.712 1.022.902.856.88.654 1.022 1.067 2.142M563.338 416.707l-.071.595.124 1.56.086.501.124.264.173.187.353.187.21.091.105.127.042.138-.011.165-.09.184-.222.19-1.924 1.007-.51.465-.241.352-.15.804-.143.613-.3.655-.346.62-.068.366-.007.331.105.459.376.915.105.451.015.465-.113.444-.278.472-.436.528-.946 1.078-.218.445-.03.415.097.465.33.543.407.415.612.184.545-.032.33-.07.26.017.176.127.162.306.229.476 1.044 1.923.391.328.207.282.078.292-.037.416-.526.747-.473.437-.459.126h-.563l-1.135-.155-.721-.162-.962-.352-.481-.12-.796-.113-1.097-.098-.579.064-1.435.507-.646.31-.316.345-.924 3.008-.142.705-.076.627-.038 1.649-.262 1.064-.489 1.45-.225.649-.023.338.03.304.173.471 1.007 1.938.3.958.046.79-.075.436-.173.423-.39.394-1.016.564-.586.437-.45.577-.707 1.275-2.55 3.999-.286.324-.364.268-.538.3-.59.299-.522.377-2.573 1.866-.661.304-.774.215-2.089.785-.601.113-.387-.018-.334-.127-.744-.39-.451-.18-.609-.12-.548-.003-.357.052-.29.134-.184.208-.146.422-.24 1.022-.02.469.076.363.147.225.266.236.368.232.402.17.97.366.732.412 1.315.856.154.18.087.183-.008.187-.087.236-.646 1.029M441.905 193.773l-.78.416-.722.487-.399.443-.203.628-.09.895-.014.916.067.627.556 2.157.218 1.155-.008.487-.105.423-.278.401-1.194 1.438-.414.74-.345 1.022M605.854 462.5l-.57.17-2.48.612-2.517.923-4.719 2.134-1.6.776-1.714.578-.81.387-1.33 1.022-.97.64-.962.444-2.449.924-5.673 2.042-1.315.423-1.082.183-1.044.38-.925.508-.398.338-.669.944-.901.782-.398.515-.421.782-.594 1.472-.052.564.067 1.254-.037.528-.316.606-1.029 1.106-.812.726-1.717 1.086M605.854 462.5l.714-.423 1.36-2.184 1.067-.747 1.984-1.226 2.261-1.775 1.669-1.472.353-.564.376-1.395-.136-.62-1.638-2.889-.101-1.141.278-.23.266.008.346.151 2.27 2.24.57.307 1.743.627 1.965.987 1.16 1.078.655.109 3.88-.345 1.973.13.42-.056 1.083-.55.74-.243 5.778-1.05.334-.387.045-.303-.083-.271-.278-.41-2.441-2.18-.188-.465-.369-2.113-.69-1.05-.233-.804-.436-2.557-.324-1.177v-1.38l-.412-.36-.696.007-2.047.335-.902-.328-2.604-1.965-.435-.786-.05-.532.174-3.537-.105-1-.233-.923-.248-.48-.676-1.05-.421-1.085-.586-2.603-.113-1.152-.346-1.05.076-.416.518-1.127.518-1.93.008-.536-.165-2.67-.406-1.459-1-1.768-.608-.536-2.04-.877-.913-.08-1.247.183-.887-.085-.774-.384-.852-1.011-.602-.384-.402-.416-.371-.94-.128-1.995-.56-1.01-2.22-1.843M563.338 416.707l.207-.652.203-.373.436-.38.615-.614.421-.409.722-1.218.262-.31.624-.452.263-.267.166-.232.022-.367-.053-1.607.06-.457.113-.331.286-.41 1.217-1.099.917-.76.6-.536.279-.458.285-.845.286-.473.578-.584.812-.585 1.51-1.755.36-.33.391-.163.444.042.42.142.594.387 1.082.832.406.21.36.092.571-.12.857-.14 1.044.07 1.593.254 3.104.26.946.036.759.282.7.45 1.201 1.05.82.973.33.627.195.211.225.127.293.007.301-.204.503-.353.947-.289 1.037-.154 1.382-.008.76.092.51.218.549.508.39.465.677.479.706.366.902.19.977-.056.774-.169.45-.19.391-.366.902-1.078 1.735-1.473.61-.634.563-.353.72-.246 1.459-.444 1.427-.62.447-.124.488-.052M416.329 421.255l.781-1.268.977-1.367 1.468-1.943M562.106 416.217l.395.198.465.193.372.099M606.675 296.047l-.85.263-.903.247-.998.099-.827.183-2.667.993-4.246 1.304-1.923.437" clip-path="url(#pd7c0638ee2)" style="fill:none;stroke:#000"/><path d="m596.515 292.83.015.316.15.5.21.761.068.437-.075.374-.203.373-.39.733-1.098 1.593-.931 1.656M609.717 462.063l-1.037.254-.744.112-1.443.064-.639.007M598.123 240.173l-.455.166-.695.3-.668.408-4.083 3.419-1.605 1.123-.996.553-.898.325-.954.264-1.22.24-1.08.105-.972.039-1.394-.043M567.197 245.078l.608.036.549-.057 1.119-.303 1.225-.162 1.007-.07.977-.007.473-.113 1.232-.43.406-.113.473-.028.729.056.556-.02.751-.163.519-.056.751.028.954.247.902.373 1.082.677.45.423.527.563.308.508.308.605M449.817 286.529l1.06-1.135 2.577-2.367.579-.846.931-1.691 1.307-2.086 1.007-2.558 1.052-2.234 1.917-2.868 2.75-4.792.931-1.156 1.608-1.705 1.984-2.537 1.051-1.677 1.721-2.241 1.495-2.164.467-.965.713-1.65.721-1.916 1.128-3.862.353-.79.593-.915.7-.726.45-.212 1.164-.281 1.255-.465 1.293-.762 1.367-1.212.278-.437.218-.563.098-.656-.008-.585-.135-.443-.158-.508v-.536l.098-.437.42-.726.692-1.028.39-.93.196-.84.218-.577.308-.585.052-.331-.12-.642-.413-1.198-.954-1.74-.85-.776-.412-.24-.346.015-.248.204-.338.571-.165.655-1.368 2.932M449.817 286.529l1.72 1.1.61.345.563.169.804.127.488.077.549.015.406-.128.586-.437M514.54 427.047l-.66-.473-.617-.377-.804-.398-.736-.303-.91-.352-.713-.247-.541-.07-.677.028" clip-path="url(#pd7c0638ee2)" style="fill:none;stroke:#000"/><path d="m508.965 434.8.594-1.053.856-1.445.496-.732.572-.627.668-.409.774-.535.526-.303.413-.409.338-.592.24-.48.143-.541-.045-.627M533.16 391.853l.518.86.15.344.008.226-.113.197-.323.113-.842.33-.856.508-1.03.712-.668.535-.617.74-1.284 1.564-1.308 2.079-.683.972-.421.698-.18.627-.256.542-.413.487-.579.733-.225.465-.21.802-.301.677-.51.718-.497.55-.796.67-.782.387-.984.677-.346.359-.27.486-.203.543-.143.69-.255 2.917-.128.564-.15.606-.256.648-.466 1.1-.856 2.092-1.57 4.009-.624 1.662-.158.642-.037.67.044.993M493.254 479.846l.624-.776.796-.958 1.593-1.535.444-.31.172-.219.075-.204.09-.335.095-.183.21-.232.233-.12.57-.156M596.515 292.83l-.256-.854-.353-.704-.353-.472-1.15-1.191M606.675 296.047l-.663-3.824-.004-.173.03-.091.06-.081.095-.053.172-.018.177-.021.3-.123 1.323-.409.282-.028.432.007.713.018.444-.018.383-.095 1.217-.437.35-.12.236-.014.21.042.47.268.864.412.27.067.268-.007.21-.067.206-.155.158-.264.113-.264M596.515 292.83l.098-.269.202-.24.474-.394.518-.324 1.007-.387.541-.212.699-.437 1-.838 1.036-.522 1.285-.585.999-.37.519-.317 2.058-1.571.73-.445.382-.144.493-.098.556-.022 1.16.007M598.123 240.173l1.082.65.624.344.548.247.406.098.729.064 1.179.056.579.05.631.112 1.255.459 1.097.598 1.172.804.931.705.752.655.578.36.857.444.646.465M500.321 444.491l.199-.95.068-.638.037-1.596M470.443 452.537l.638-.21.3-.152.316-.194.327-.338.345-.48.18-.394.102-.409.015-.535-.12-.757-.09-.913-.12-1.656.015-.782.196-.958.217-.74.21-.697.226-.719-.158-.88-.218-.881-.308-.648-.338-.5-.285-.543-.218-.599-.03-.768.15-2.388.075-.275.24-.226.402-.278.572-.247.612-.172.875-.11M562.106 416.217l-.3-.306-.192-.29-.158-.39-.045-.48-.113-.246-.443-.472-.955-.994-.397-.267-.67-.184-1.074-.155" clip-path="url(#pd7c0638ee2)" style="fill:none;stroke:#000"/><path d="m508.965 434.8.598-.271.634-.31 1.66-1.148 1.977-.902 1.42-.543 4.133-1.719 1-.225.81-.113.872.042 1.232.204 1.037.057 3.87-.021 1.157.12 1.15.31.841.338 1.353.5.57.127.745.05 1.87-.043 1.368-.043 1.72.113 1.608.254.67.26 1.013.656.812.465.729.232.609.113.743-.091 2.585-.6 3.72-.605.908-.282.97-.5.72-.55.377-.556.405-.761.346-.445.646-.457.88-.62.465-.416.263-.458.09-.352.06-.507.136-.705-.045-.44-.21-.427-.422-.567-.112-.18-.06-.236.045-.197.135-.208.368-.243.627-.32.421-.198.346-.18.21-.225.095-.282.067-.426.18-.514.518-.762.763-.69.226-.26.21-.342.075-.395.034-.694-.105-.472-.053-.328.087-.274.146-.23.233-.147.293-.018.297.074M500.321 444.491l.898-.746 1.232-1.43 1.578-1.727 2.855-3.008 1.8-2.346.281-.434M470.443 452.537l.864.014.616-.133.533-.303.496-.437 1.563-2.065.323-.62.128-.443.21-.69.18-.395.383-.282.564-.26 1.623-.339 2.217-.416 2.021-.5 1.172-.183 1.706-.028 1.164.106.902.26.924.331.894.17 1.082.105.744.17.6.323.52.162.691.028.909-.105 1.285-.247 2.089-.683 2.081-.831 1.394-.755M195.69 599.927l4.808 1.54 7.093-3.55 2.945.338 1.863-1.691 1.984-.282 4.568-4.339 4.088-1.352 2.945.112 6.672 2.48 1.443 2.085 3.366.17 5.05 1.041.299-.018 1.083-.066M241.27 403.4l2.026-4.833 2.043-2.93.662-3.778-.361-1.521-4.087-4.285-4.93-1.409-6.612-2.255-10.098-.507-7.514-2.086-13.044-6.708-4.928-2.987-14.547 3.552" clip-path="url(#pd7c0638ee2)" style="fill:none;stroke:#000"/><path d="m292.4 393.619-14.445 4.505-2.211.244-17.954.131-2.69.481-8.616 2.734-5.215 1.685M173.043 457.262l.953 1.253 1.393 1.085 1.716.289 2.174-.754 6.31-2.962 8.65-4.815 1.463-.971 1.305-1.102 1.48-1.796 2.559-3.41 2.454-3.542 3.237-6.325 3.23-5.966.826-1.37 1.288-1.209 2.245-2.064 3.273-2.58 3.455-2.505 3.002-2.31 4.726-4.023 3.003-2.75 2.785-2.922 1.21-.898 1.636-.971 3.853-1.245M272.088 387.294l9.438 1.521M307.913 381.741l3.697 3.692M299.196 385.198l3.127-2.893M299.196 385.198l-12.621-.16M305.359 386.73l-3.126-1.494-3.037-.038M302.323 382.305l9.287 3.128M286.575 385.039l-4.538-.423-.301-1.014 4.658-1.495 15.93.198M311.61 385.433l2.789 4.266M314.399 389.699l1.6.525M314.399 389.699l-9.04-2.969M286.575 385.039l-5.05 3.776M289.072 389.22l7.09-.066M289.072 389.22l-7.546-.405M291.624 390.957l-1.052-1.099-1.142-.62-.358-.019M296.162 389.154l-4.538 1.803M296.162 389.154l3.967-.395M305.359 386.73l-5.23 2.029M291.624 390.957l.775 2.662M173.043 457.262l-1.157 1.701-.421 1.437.21 1.1 1.683 4.34-1.022 1.55-3.276 1.916-.54 2.705-.301 2.536 1.262 2.988-.601 1.296-1.743-.056-1.323-1.015-6.371 1.747-2.284 2.086-2.344.507-2.766 4.51" clip-path="url(#pd7c0638ee2)" style="fill:none;stroke:#000"/><path d="m195.69 599.927.03-.028.21-.63 4.508-3.381.3-2.818 1.022-2.141-2.825-3.1-3.246-7.551-1.022-2.988-1.743-1.295-2.044.056-2.945-1.127-7.634-.79-6.612-1.126-1.803 2.141-3.126-.112-4.208-1.579-2.705-.732-6.131-3.664-1.142-2.48-3.186-2.366-2.765-5.917-2.765-1.015-.66-2.085.72-2.31-3.185-3.213-2.645-.62-3.307-3.607-.6-3.212-5.53-5.017-.542-2.761.902-1.127 3.306-.79 5.11-4.057 4.087-1.015 1.503-2.817 4.628-5.862 3.366-2.254 3.186-6.595 1.984-5.636-.481-4.96.36-4.508-3.847-6.651-2.164-1.578" clip-path="url(#pd7c0638ee2)" style="fill:none;stroke:#000"/></g><path id="PatchCollection_1" d="m345.173 372.869-1.095 6.238 4.435.573.967-6.238z" clip-path="url(#pd7c0638ee2)" style="fill:#90ee90;fill-opacity:.8"/><g id="PatchCollection_2"><path d="m343.358 351.483-1.054 1.513.872.535 1.054-1.512zM594.574 508.128l4.388 1.042.663-2.456-4.388-1.042z" clip-path="url(#pd7c0638ee2)" style="fill:#a9a9a9;fill-opacity:.8"/></g></g></g><defs><clipPath id="pd7c0638ee2"><path d="M90 116.218h558v494.763H90z"/></clipPath></defs></svg>