<svg xmlns="http://www.w3.org/2000/svg" width="960" height="960" viewBox="0 0 720 720"><defs><style>*{stroke-linejoin:round;stroke-linecap:butt}</style></defs><g id="figure_1"><path id="patch_1" d="M0 720h720V0H0z" style="fill:#fff"/><g id="axes_1"><path id="patch_2" d="M90 587.206h558V139.994H90z" style="fill:#fff"/><g id="LineCollection_1"><path d="m583.398 475.573-28.568-15.42-20.67-11.172-62.14-27.139M472.02 421.842l-.976-.695-.933-.461-6.274-2.879-3.926-1.7-3.758-2.043-1.975-1.04M453.15 414.568l2.436.71 4.018 1.365 6.42 2.935 3.72 1.587 1.144.408 1.133.27M258.031 365.572l9.402.366M258.031 365.572l12.842 2.448.321.061M209.086 363.692l5.523.22 43.422 1.66M359.418 436.657l-3.867-1.722M359.418 436.657l2.768 1.3M359.418 436.657l-3.166 6.335M359.418 436.657l2.958-5.675M397.688 412.121l-.568 1.143M397.688 412.121l-4.032-1.729M397.688 412.121l2.516-4.75M382.513 416.94l-5.188-2.298M382.513 416.94l1.265.524M379.47 423.075l2.754-5.538.289-.597M385.807 410.851l-.25.493-3.044 5.596M390.167 414.598l-1.241 2.252M390.167 414.598l1.062.434M390.167 414.598l-1.318-.718M374.67 458.357l5.4 2.486M374.67 458.357l-.512-.212M374.67 458.357l2.881-5.924M380.07 460.843l2.852-6.169M380.07 460.843l5.127 2.464M363.927 453.835l5.347 2.293M363.927 453.835l-5.336-2.286M363.927 453.835l3.012-6.073M173.876 362.28l35.21 1.412M118.72 360.144l8.942.346 41.304 1.6 4.91.19M232.808 397.377l-3.7-1.171-21.556-6.947-4.962-1.647-9.54-2.932-7.203-2.311-8.244-2.615-5.285-1.662-3.68-1.224-.522-.34-.353-.56-.02-.69.273-.803 2.393-4.736 2.998-5.844.254-.775.215-.84M383.778 417.464l1.309-2.472M383.778 417.464l3.823 1.789M391.2 451.02l3.044-6.161M391.2 451.02l-3.021 6.062M391.2 451.02l-5.25-2.323M388.468 408.062l-2.235 4.594M388.468 408.062l2.666 1.186M388.468 408.062l-.575-.265M369.274 456.128l2.964-5.902M369.274 456.128l.565.233M284.516 366.603l-6.51-.253M356.05 371.282l-2.676-.993-2.163-.529-1.887-.35-2.807-.422-62.001-2.385M284.516 366.603l-8.983-2.107-.673-.158M372.024 412.276l-3.146 6.261M372.024 412.276l5.3 2.366M372.024 412.276l-5.33-2.233M374.728 406.116l-2.266 5.064-.438 1.096M396.803 453.224l2.795-5.958M396.803 453.224l5.073 2.2M396.803 453.224l-3.171 6.064M413.278 445.49l-5.363-2.298M413.278 445.49l-3.013 5.937M411.085 437.033l4.772 2.03.15.25.06.306-.083.318-2.706 5.554M407.174 457.8l-5.298-2.377M407.174 457.8l2.881-5.956M407.174 457.8l-2.94 6.195M425.61 458.484l-2.621 4.787M425.61 458.484l.196-.38M425.61 458.484l-3.441-1.424M390.573 465.6l.698.286M390.573 465.6l-5.376-2.293M390.573 465.6l3.059-6.312M395.999 441.361l5.338 2.327M395.999 441.361l1.423-2.908M395.999 441.361l-1.588 3.2M387.462 407.6l-1.655 3.251M387.462 407.6l2.355-4.805M387.462 407.6l.431.197M387.462 407.6l-5.829-2.573M393.632 459.288l-5.453-2.206M393.632 459.288l5.144 2.532M401.147 417.836l1.12-2.243M401.147 417.836l-3.015 6.084M401.147 417.836l-5.216-2.336M377.325 414.642l-3.107 6.154M394.037 419.229l-5.111-2.379M394.037 419.229l-1.204 2.322M394.037 419.229l1.22-2.43M349.943 417.576l5.163 2.192M349.943 417.576l-3.403 6.29M349.943 417.576l2.962-6.068M396.453 414.528l-4.014-1.764M396.453 414.528l-.522.972M396.453 414.528l.667-1.264M395.822 467.755l-4.551-1.869M395.822 467.755l2.954-5.935M404.235 463.995l-2.75 5.785-.185.18-.268.056-.276-.036-4.934-2.225M422.989 463.27l-18.459 36.513M414.753 455.51l2.85 2.53 5.386 5.23M411.085 437.033l-5.417-2.488M411.085 437.033l-3.17 6.159M362.529 430.717l3.246-6.176M362.529 430.717l-.153.265M362.529 430.717l-.323.023M365.298 431.89l-2.242-.956-.527-.217M410.055 451.844l1.346.543M410.055 451.844l.21-.417M410.055 451.844l-5.315-2.385M411.401 452.387l4.05 1.765M411.401 452.387l.161-.393M414.753 455.51l-3.171-2.74-.104-.161-.077-.222M391.134 409.248l-2.285 4.632M391.134 409.248l1.308.58M358.59 451.55l-1.408-.555M358.59 451.55l3.206-6.146M353.014 449.314l4.168 1.681M353.014 449.314l3.238-6.322M353.014 449.314l-4.795-2.227M425.806 458.105l-3.434-1.494M446.846 414.253l-17.1 35.98-3.94 7.872M398.776 461.82l5.459 2.175M398.776 461.82l3.1-6.397M393.656 410.392l-1.217 2.372M393.656 410.392l-1.214-.563M385.087 414.992l1.146-2.336M385.087 414.992l3.839 1.858M356.252 442.992l5.544 2.412M392.439 412.764l-1.21 2.268M391.23 415.032l4.027 1.768M410.265 451.427l-5.34-2.297M410.265 451.427l1.297.567M386.233 412.656l2.616 1.224M401.337 443.688l-1.543 3.208M401.337 443.688l1.39-2.802M365.14 432.19l-2.954 5.767M365.14 432.19l2.714 1.168M365.14 432.19l.158-.3M362.376 430.982l.504.24 2.26.968M395.931 415.5l-.674 1.3M362.186 437.957l2.745 1.236M402.267 415.593l3.148-5.94M402.267 415.593l-5.147-2.329M385.197 463.307l2.982-6.225M405.668 434.545l-2.942 6.341M405.668 434.545l-5.176-2.295M368.878 418.537l-3.103 6.004M368.878 418.537l-5.377-2.326M368.878 418.537l5.34 2.26M404.53 499.783l-24.284-10.392M374.761 555.19l10.186-17.484 3.883-6.297 5.688-10.673 10.012-20.953M394.77 392.712l-2.04 4.097M394.77 392.712l.584-.743.332-.356.376-.256.432-.16.493-.08 1.79-.1" clip-path="url(#pb3e257f046)" style="fill:none;stroke:#000"/><path d="m394.314 389.132.555.927.192.485.073.422-.042.604-.322 1.142M391.936 385.905l-.773.18-.3.16-.156.173-.087.285.05.259.188.45M391.936 385.905l-1.615-.528-4.23-1.487-11.005-4.652-1.61-.334M391.936 385.905l11.27 4.914M373.475 378.904l-3.782-1.676" clip-path="url(#pb3e257f046)" style="fill:none;stroke:#000"/><path d="m373.475 378.904 1.327.778 10.883 4.765 4.088 2.411 1.085.554M401.98 392.389l.555-.13.326-.15.21-.211.14-.236.052-.303-.057-.54M442.718 408.21l-.984-.418-4.939-1.714-18.637-8.13-9.717-4.32-5.235-2.809M388.926 416.85l-1.325 2.403M387.601 419.253l-3.029 6.087M387.601 419.253l5.232 2.298M374.218 420.796l-3.1 6.141M374.218 420.796l5.251 2.279M392.833 421.55l5.299 2.37M392.833 421.55l-3.052 6.1M379.47 423.075l-3.183 6.179M379.47 423.075l5.102 2.265M398.132 423.92l-2.887 5.938M400.492 432.25l2.492-5.192.034-.314-.05-.25-.176-.225-4.66-2.349M365.775 424.54l5.343 2.397M365.775 424.54l-5.34-2.36M384.572 425.34l-3.09 6.076M384.572 425.34l5.209 2.31M371.118 426.937l-3.133 6.1M371.118 426.937l5.169 2.317M389.78 427.65l-3.136 6.18M389.78 427.65l5.465 2.208M376.287 429.254l-3.051 6.077M376.287 429.254l5.195 2.162M395.245 429.858l-3.162 6.276M395.245 429.858l5.247 2.392M381.482 431.416l-2.984 6.187M381.482 431.416l5.162 2.413M400.492 432.25l-3.07 6.203M367.985 433.037l-.131.32M367.985 433.037l-2.687-1.147M367.985 433.037l5.25 2.294M367.854 433.358l-2.923 5.835M367.854 433.358l5.207 2.293M386.644 433.83l5.44 2.304M386.644 433.83l-2.796 6.142M373.236 435.331l-.175.32M373.236 435.331l5.262 2.272M373.061 435.65l5.246 2.276M373.061 435.65l-2.988 5.963M392.083 436.134l-2.977 6.069M392.083 436.134l5.339 2.319M378.498 437.603l-.19.323M378.498 437.603l5.35 2.37M378.307 437.926l-2.848 5.983M378.307 437.926l5.415 2.31M397.422 438.453l5.304 2.433M364.93 439.193l-3.134 6.21M364.93 439.193l5.143 2.42M383.848 439.972l-.126.265M383.848 439.972l5.258 2.231M383.722 440.237l-3.074 6.063M383.722 440.237l5.223 2.28M402.726 440.886l5.19 2.306M370.073 441.613l5.386 2.296M370.073 441.613l-3.134 6.15M389.106 442.203l-.161.315M389.106 442.203l5.305 2.358M388.945 442.518l-2.995 6.179M388.945 442.518l5.3 2.34M407.915 443.192l-2.99 5.938M375.459 443.91l-3.221 6.316M375.459 443.91l5.19 2.39M394.411 444.56l-.167.299M394.411 444.56l5.383 2.336M394.244 444.859l5.354 2.407M361.796 445.404l5.143 2.358M380.648 446.3l-3.097 6.133M380.648 446.3l5.302 2.397M399.794 446.896l-.196.37M399.794 446.896l5.13 2.234M399.598 447.266l5.142 2.193M366.94 447.762l5.298 2.464M385.95 448.697l-3.028 5.977M404.924 449.13l-.184.329M404.74 449.459l-2.864 5.964M372.238 450.226l5.313 2.207M377.551 452.433l5.371 2.241M382.922 454.674l5.257 2.408M100.73 359.462v-1.232l.247-.714.43-.629 1.042-1.043 1.304-1.458.752-1.3 12.301-20.388 22.426-37.765 3.9-6.776M170.823 305.11l-2.924-1.816-8.646-5.335-12.252-7.423-2.308-1.457-1.561-.922M276.203 368.861l-.305-.276-.215-.341-.112-.382v-.396M306.589 387.929l-21.824-13.643-6.223-3.894-2.34-1.53" clip-path="url(#pb3e257f046)" style="fill:none;stroke:#000"/><path d="m274.208 368.24.7.095.668.215.627.311M390.858 387.412l3.456 1.72M401.98 392.389l3.148.895 2.986 1.02 3.832 1.73M401.98 392.389l-2.98-1.261M356.05 371.282l13.643 5.946M355.483 372.63l.22-.479.347-.87M355.483 372.63l13.513 6.025M355.483 372.63l-.142.308M330.11 403.207l4.25-8.014 4.356-8.841 4.865-10.616M355.34 372.938l-4.26-2.003-1.211-.51-1.542-.386-1.05.014-.837.214-.537.386-.421.59-1.9 4.493" clip-path="url(#pb3e257f046)" style="fill:none;stroke:#000"/><path d="m354.301 379.711-9.264-4.043-.522-.09-.445.03-.489.128M369.693 377.228l-.697 1.427M368.996 378.655l5.307 2.377M368.996 378.655l-3 6.105M374.303 381.032l5.277 2.362M374.303 381.032l-3.082 6.066M379.58 383.394l-3.078 6.067M379.58 383.394l5.2 2.496M365.996 384.76l-11.695-5.049M365.996 384.76l5.225 2.338M365.996 384.76 362.93 391M384.78 385.89l-3.004 5.93M387.098 394.2l2.696-5.363.248-.575-.921-.428-1.887-.843-2.454-1.1M371.221 387.098l-3.133 6.17M371.221 387.098l5.281 2.363M376.502 389.46l-3.114 6.139M376.502 389.46l5.274 2.36M362.93 391l5.158 2.268M362.93 391l-2.332 4.747M381.776 391.82l-3.11 6.1M381.776 391.82l5.322 2.38M368.088 393.268l-2.4 4.724M373.388 395.599l-2.173-.956-3.127-1.375M387.098 394.2l-3.068 6.079M387.098 394.2l5.631 2.61M373.388 395.599l-2.277 4.875M373.388 395.599l5.278 2.32M360.598 395.747l5.09 2.245M360.598 395.747l-1.681 3.442M411.352 397.378l-3.063 6.285M411.352 397.378l-5.234-1.976M406.118 395.402l.282.984.349.504.916.986.516.156 1.315-.264 1.29-.24.566-.15M411.946 396.034l-.139.313-.455 1.03M392.73 396.81l-2.913 5.985M392.73 396.81l.447.17M378.666 397.92l-2.368 4.805M378.666 397.92l5.364 2.359M365.687 397.992l-1.569 3.443M365.687 397.992l5.424 2.482M364.118 401.435l-5.201-2.246M364.118 401.435l.431.174M384.03 400.279l-2.397 4.748M384.03 400.279l5.787 2.516M371.11 400.474l-1.53 3.25M371.11 400.474l5.188 2.251M369.58 403.724l5.148 2.392M369.58 403.724l-5.03-2.115M369.58 403.724l-2.887 6.32M376.298 402.725l-1.57 3.391M376.298 402.725l5.335 2.302M389.817 402.795l.39.202M331.086 417.053l-2.723-1.089-1.02-.85-.537-1.057-.13-1.007.046-1.086 3.124-6.831.174-.897.09-1.03" clip-path="url(#pb3e257f046)" style="fill:none;stroke:#000"/><path d="m306.589 387.929 22.887 14.778.635.5M408.29 403.663l-2.875 5.99M405.415 409.653l4.582 2.08.211.003.167-.034.138-.079 2.729-5.223.015-.358-.05-.232-.172-.207-4.746-1.94M408.29 403.663l-5.134-2.266M381.633 405.027l-1.654 3.278M374.728 406.116l5.25 2.19M379.979 408.305l5.828 2.546M405.415 409.653l-5.211-2.282M346.54 423.866l-9.355 18.618M346.54 423.866l5.389 2.191M346.54 423.866l-15.454-6.813M595.284 451.41l-2.682 5.242-2.51 5.318-6.694 13.603M608.131 489.042l-7.524-4.038-7.653-4.277-9.556-5.154M331.086 417.053l-3.84 6.528M320.468 435.104l16.717 7.38M320.468 435.104l6.779-11.523M306.244 457.738l11.175-22.008.636-.593.652-.236.79-.086.971.29M337.185 442.484l5.737 2.394M415.646 453.757l-4.084-1.763M415.646 453.757l-.195.395M415.646 453.757l6.726 2.854M415.45 454.152l6.719 2.908M415.45 454.152l-.697 1.358M422.372 456.611l-.203.449M226.09 338.888l3.056-5.404 8.908-17.796 13.253-26.641 10.822-21.734 11.965-24.22 10.706-22.107 8.314-17.62 7.923-15.226 6.45-12.311" clip-path="url(#pb3e257f046)" style="fill:none;stroke:#000"/><path d="m338.111 182.974-7.808-1.922-18.89-4.252-3.927-.971M226.09 338.888l-7.439-4.616M268.856 363.87l-1.17-.443-.94-.482-1.128-.664-2.413-1.406-1.264-.745-8.375-4.793-6.109-3.554-5.284-3.065-16.083-9.83M449.434 408.452l5.79-12.89 6.29-14.115 6.58-14.254 3.076-7.62 6.396-15.073 4.955-12.045 4.632-12.031 8.912-22.904 2.332-6.137 1.798-4.662.817-1.947.698-1.493 1.473-2.815 1.407-2.75 4.1-8.174 2.668-5.201 4.034-8.145 3.942-7.76 3.413-6.751 10.945-21.928 5.19-10.374M391.407 238.948l.928-.936.575-.893 2.853-4.373.586-.717.695-.55 2.017-1.34.836-.843.782-1.372.913-5.395.238-.65.376-.557.513-.493 1.488-.686 1.05-.708 3.766-3.322 2.49-1.84 1.414-.718 1.742-.568.965-.225.94-.043.583-.132.376-.218.318-.364 6.013-11.868 10.998-21.793 3.605-7.16 8.099-15.863 3.528-6.727 88.788 60.789M438.385 578.606l-8.897-1.428-3.006-.743-1.657-.229-1.902-.228-1.473-.571-3.006-1.143-3.436-1.143-3.006-.97-2.577-.687-34.664-16.274M392.442 409.829l2.332-4.808M394.774 405.021l5.43 2.35M394.774 405.021l-4.567-2.024M394.774 405.021l3.083-6.132M397.857 398.889l5.299 2.508M397.857 398.889l-4.68-1.91M397.857 398.889l3.13-5.725M400.987 393.164l5.13 2.238M399 391.128l-.23.566.027.22.106.195.215.19 1.869.865M406.118 395.402l-2.962 5.995M358.917 399.19l-2.992 6.2M364.55 401.609l-3.067 6.148M358.295 413.812l-5.39-2.304M358.295 413.812l5.206 2.399M358.295 413.812l-3.189 5.956M358.295 413.812l3.188-6.055M355.925 405.39l-3.02 6.118M355.925 405.39l5.558 2.367M361.483 407.757l5.21 2.286M366.693 410.043l-3.192 6.168M118.72 360.144l-.738-.028-17.251-.654M275.57 367.466l.18-.277M274.208 368.24l.376-.08.468-.214.38-.293.139-.187M271.194 368.081l1.396.215 1.166-.015.452-.04M275.75 367.189l.092-.222.076-.371.004-.328M275.75 367.189l.324-.23.39-.206.273-.106 1.27-.297M269.736 366.028l.009.282.069.314.153.343.2.307.337.414.69.393M269.736 366.028l-2.303-.09M269.736 366.028l6.186.24M269.806 365.197l-.085.556.015.275M274.86 364.338l-.698-.222-.927-.1h-.845l-.57.036-.557.07M275.922 366.268l-.018-.337-.062-.315-.123-.342-.23-.358-.314-.32-.315-.258M269.806 365.197l-.406.248-.269.15-.414.158-1.284.185M269.806 365.197l.056-.088M268.856 363.87l.3.166.26.213.209.257.15.291.087.312" clip-path="url(#pb3e257f046)" style="fill:none;stroke:#000"/><path d="m271.263 364.123-.81-.017-.804-.085-.793-.15M271.263 364.123l-.521.211-.215.147-.21.154-.277.275-.178.2M275.922 366.268l2.085.082M441.807 409.532l4.448 2.047M442.718 408.21l-.432.083-.287.153-.184.246-.075.25-.006.215.073.375M411.946 396.034l24.65 10.808 4.463 2.35.748.34M442.718 408.21l3.81 1.586M454.178 413.025l-3.668-1.52M453.15 414.568l.507-.163.322-.198.245-.355.042-.299-.088-.528M453.15 414.568l-3.28-1.406M446.528 409.796l3.982 1.71M449.434 408.452l-.49.576-.46.347-.45.192-.594.122-.912.107M450.51 411.505l-.838-.866-.253-.525-.07-.357-.01-.34.095-.965M446.255 411.579l3.615 1.583M446.255 411.579l.387.653.15.393.088.482-.034 1.146" clip-path="url(#pb3e257f046)" style="fill:none;stroke:#000"/><path d="m446.846 414.253.674-.674.354-.232.468-.136.629-.049h.9M394.314 389.132l4.464 1.886M398.778 391.018l.222.11M625.324 498.41l-1.095-.781-.951-.68-1.476-.971-3.01-1.713-.379-.204-.356-.192-1.803-1.007-1.049-.548-2.868-1.311-4.206-1.96M351.929 426.057l5.463 2.423M351.929 426.057l3.177-6.289M351.929 426.057l-9.007 18.82M355.106 419.768l5.33 2.412M363.501 416.21l-3.065 5.97M357.392 428.48l4.814 2.26M357.392 428.48l3.044-6.3M357.392 428.48l-9.173 18.607M403.156 401.397l-2.952 5.974M604.344 431.73l-2.329 5.112M604.344 431.73l.661-1.463M606.369 432.769l-.53-.061-.529-.196-.468-.318-.498-.464M626.848 450.784l2.36-3.254M633.818 454.945l-4.456-2.565-2.514-1.596M627.09 446.223l-1.862 2.843-.054.185v.23l.077.2.23.235 1.367.868M627.09 446.223l2.119 1.307M607.519 432.694l1.787 1 2.439 1.493 2.063 1.378.629.465 1.994 1.771 1.38 1.057 2.179 1.393 2.998 2 1.212 1.043 1.12.858 1.77 1.07M629.209 447.53l4.985 2.715 3.075 1.906M606.997 431.311l.254.533.268.85" clip-path="url(#pb3e257f046)" style="fill:none;stroke:#000"/><path d="m606.369 432.769.636-.004.514-.071M605.005 430.267l.658.127.713.257.346.268.275.392" clip-path="url(#pb3e257f046)" style="fill:none;stroke:#000"/><path d="m607.036 425.78.184 1.95.053 1.028-.1 1.35-.176 1.203M606.369 432.769l.333-.436.18-.457.115-.565M605.005 430.267l2.031-4.488M602.015 436.842l1.968-1.784 1.059-1.071.475-.472.49-.428.362-.318M595.284 451.41l1.137-2.287 5.594-12.28M357.182 450.995l-11.73 23.507M345.452 474.502l-33.013-14.116M345.452 474.502l6.57 2.81M306.589 387.929l-10.521 22.118M278.852 444.994l-2.48 4.7-2.643 5.458-5.2 10.772-30.084 61.226M292.79 416.054l-5.39 11.604-8.548 17.336" clip-path="url(#pb3e257f046)" style="fill:none;stroke:#000"/><path d="m306.244 457.738-26.655-11.711-.334-.29-.223-.321-.18-.422M306.244 457.738l6.195 2.648M287.587 492.563l16.934-32.914.736-1.429.987-.482M369.839 456.361l4.319 1.784M369.839 456.361l-11.556 23.631M358.283 479.992l-6.262-2.68M358.283 479.992l10.932 4.679M355.34 372.938l-1.3 2.801-.23.93v.7l.093.828.398 1.514M380.246 489.391l8.768-17.982 2.257-5.523M380.246 489.391l-11.03-4.72M296.068 410.047l17.8 7.432 9.687 4.418 3.692 1.684M296.068 410.047l-3.278 6.007M232.808 397.377l26.468 8.308 17.709 5.472 15.805 4.897M155.53 481.095l7.179 2.175 4.759 1.546 5.82 1.879 4.514 1.439 3.789 1.178 1.749.675.878.275.671-.032.594-.229.441-.449 3.904-7.607 4.34-8.686 8.583-16.493 11.612-23.158 4.686-9.257 8.348-16.702 3.847-7.622 1.564-2.65M362.206 430.74l.17.242M393.177 396.98l-2.97 6.017M390.207 402.997l-2.314 4.8M111.59 571.285l27.562-56.407 16.378-33.783M218.651 334.272l-1.151 1.983-.836 1.537-.315.857-.467 1.521-.292.993-.36 1.1-.165.508-.03.214.06.173.391.256 1.853.971.529.379.153.393-.03.421-.422.922-2.04 4.215-2.363 4.857-3.206 6.244-.874 1.876M187.96 315.71l4.376 2.678 8.344 5.03 5.394 3.224 6.494 3.855 3.904 2.422 2.18 1.353M282.433 514.22l2.392 1.028 27.614-54.862M305.61 556.05l.837.432 2.046.26 2.604-1.04 1.302-.692 39.622-77.697M100.96 367.973l2.256-4.136 1.41-2.297.634-.525h12.193l1.128-.132.139-.74M348.22 447.087l-5.298-2.21M187.96 315.71l-8.382-5.13-4.763-2.99-3.992-2.48" clip-path="url(#pb3e257f046)" style="fill:none;stroke:#000"/><path d="m187.96 315.71-.233.363-2.869 5.801-2.216 4.437-1.519 3.18-2.246 4.74-1.941 3.732-2.094 4.43-3.903 8.027-1.941 4.031-2.263 4.53-.452.735-.346.357-.482.192-.599.165-.816.041-2.03-.126-2.745-.215-.498-.1-.17-.1-.13-.243.062-.328.72-1.729.622-1.25.376-.672.115-.336.015-.307-.14-.34-.443-.227-1.172-.267-1.735-.316-.897-.1-.391.036-.338.235-.2.495-.53 1.894-.903 2.834-.269.343-.265.16-.463.104-1.795-.05-5.944-.143-.414-.114-.238-.264-.03-.272.176-.421 2.316-4.88 1.473-2.971 1.587-3.187 3.575-7.13 2.246-4.579 2.331-4.867 6.303-12.832 3.944-8.012 2.056-4.144.222-.422.227-.321.157-.197M625.324 498.41l1.542.848M374.158 458.145l-.242.969-.21 2.01-.37 2.03-2.458 10.862-.246 1.177-.45 1.13-1.41 7.068.091.407.073.306.28.567" clip-path="url(#pb3e257f046)" style="fill:none;stroke:#000"/></g><g id="PatchCollection_1"><path d="m96.156 644.834-2.454-.815-.644.3-.72.814-.063.614-.168 1.157-.828 1.928.184 1.643.628.471.645-.843zM104.314 608.435l.775-.013 1.842.808.054 1.269-.107.758-.748.423-.908-.174-.027-.336.32-.335-.934.136-.52-1.368z" clip-path="url(#pb3e257f046)" style="fill:#00f;fill-opacity:.8"/></g><g id="PatchCollection_2"><path d="m293.16 680.053.72 1.193-.48 1.095 1.71 1.865 15.841 4.826-.93-4.08-.997-3.627-7.889-6.826-2.378-.848-4.753-12.177-11.346-13.097-5.766-2.858-13.415 2.728-5.627-2.295-7.928-7.252-7.881-.476-1.465 1.472.535 2.88 6.347.713 4.293.323.33-.94.498.015.192.393-.434.785.374.923-.237.736 1.894 1.006 1.197 1.908 1.41 1.799 2.171.736 4.48 2.146 3.101.23 4.687-.952 6.546.525 4.621 3.25-.105 1.838-1.18-.016.51 1.18 1.34.723 3.241 1.542 3.736 4.134.282 1.969 2.035 8.063 2.278 2.338.79 2.035zM64.466 573.178l-1.012-7.828 3.834 1.314 4.94 3.257 6.473 1.514 1.84-3 11.29 2.057 2.669 2.457 4.57 2.114 7.885 6.971 1.841-2.657 5.982 1.714-1.104-1.743 5.798.429 2.638-.857 1.596-4.286 3.251 3.457.246 3.8 1.043 2.6 4.08 2.8 4.05 3.427.306 2-2.055 1.228 1.902.915 4.418.742 5.767 1.6-.736-1.285 2.73.542 1.166 2.828.583 1.857-.215 1.372 2.178 1.028 4.05-.857 4.08-1.029 3.743.915-.675-2.943 5.675-2.685-1.012 5.142 4.295 1 3.896.885 3.497.943 5.032.743 1.748 2.028 3.13-.885 6.074 2.113 2.791 2.857 1.534 2.086 5.307 1.485 4.019 3.37 3.682 4.428-1.504 2.771-1.687 2.428.675.972.89-1.2 2.945 1.771v1.514l1.319-.171 4.816 2.028 3.13-.485 5.184-1.486 3.19 2.342 2.7.057 2.823 5.2 2.027.928.95 2.828-6.38.571-3.467-.628-3.835-3.37-12.363-4.314-4.449-1.457-5.583-4.685-3.068-3.485-1.135 4.2-1.227-1.315.767-4.513-1.135-2.77-4.848-4.486-3.62-1.371-8.712-3.742-6.565-3-2.24-1.457-2.883 1.629-5.553-1.114-1.964-1.714-9.264 3.056-3.62-.685-3.007-2.258-5.154-3.485-4.448-1.828-5.062-.457-4.448-2.657-2.7-3.285-2.73-.228-1.933.914-2.792-.286-4.483-1.132-1.626.614-2.132 7.285.69 1.242.43 2.543-.491 1.028-11.827-4.299 6.12-6.813 1.596-1.543-2.638-3.142-1.902-4.37-2.286-1.315-1.763-2.443-1.718-1.471-4.157-.857.045-3.057-.843-.728-.875 1.356-2.162 2.386-3.007.914-2.531-.442-3.36-3.543-2.56-.128-2.247-1.415-5.368-2.387z" clip-path="url(#pb3e257f046)" style="fill:#006400;fill-opacity:.8"/></g><g id="PatchCollection_3"><path d="m391.384 409.566-2.078 4.194 2.059.885 2.079-4.193zM366.84 434.992l-2.294-.998.83-1.657 2.295.998zM396.33 441.652l-1.333 2.73 4.768 2.02 1.333-2.73z" clip-path="url(#pb3e257f046)" style="fill:green;fill-opacity:.8"/></g><path id="PatchCollection_4" d="m394.822 455.439-3.749-1.616 2.379-4.787 3.748 1.616z" clip-path="url(#pb3e257f046)" style="fill:#90ee90;fill-opacity:.8"/><g id="PatchCollection_5"><path d="m394.016 445.882-4.288 8.632 4.815 2.076 4.289-8.633z" clip-path="url(#pb3e257f046)" style="fill:#006400;fill-opacity:.8"/><path d="m396.615 448.89.748-1.506 1.343.579-.748 1.505z" clip-path="url(#pb3e257f046)" style="fill:#006400;fill-opacity:.8"/></g><g id="PatchCollection_6"><path d="m228.779 656.899 3.572-6.681 2.672 1.027 1.538-.387 1.012-1.488 1.265-1.056 1.326-2.808-1.103-.415-1.043-.791-1.001-.076-.132-.395.992-.198.698-.198 1.578.151.577-.471 1.235-.095 1.194 1.16 1.903.49 3.218-.49 1.963.122.76-.65 1.214.141.05 2.102 2.095.98-.152 2.874-1.821 1.818 3.906 1.81 1.71-1.433 1.367.283-7.422 14.504zM227.165 659.265l23.507 10.186-15.072 30.978.192 1.686 2.93 9.568-.325 1.19-.884.672-10.652 5.868-4.23.226-50.333.171 1.352-20.313 34.27.434 6.67-10.648 4.141-9.81 3.278-7.203 5.055-11.622.187-.617-.035-.561zM108.563 720.302l63.617-.453 1.206-20.51-9.41-.469-.1-.871.01-19.221-58.944-2.056 1.762 21.528zM179.643 638.903l-10.275 22.036-33.75-13.866 6.35-11.716 5.738-9.97z" clip-path="url(#pb3e257f046)" style="fill:#90ee90;fill-opacity:.8"/></g><g id="PatchCollection_7"><path d="m367.358 429.969-.091.182-.135-.059-.467.934.218.094-.032.062.24.104.038-.074.179.077.46-.921-.117-.05.091-.183-.041-.08-.068-.063-.087-.038-.047-.008-.096.008zM396.615 448.89l.748-1.506 1.343.579-.748 1.505zM410.027 398.201l-.647 1.317-.801-.342.648-1.317zM406.964 398.487l2.349 1.003-.308.626-2.35-1.003zM618.318 493.457l.731.4-.747 1.182-.73-.401zM615.656 495.429l.091-.157.235.118.172-.296.646.326.036-.062.194.098-.05.085.313.158-.25.428z" clip-path="url(#pb3e257f046)" style="fill:#a9a9a9;fill-opacity:.8"/></g></g></g><defs><clipPath id="pb3e257f046"><path d="M90 139.994h558v447.213H90z"/></clipPath></defs></svg>