<svg xmlns="http://www.w3.org/2000/svg" width="960" height="960" viewBox="0 0 720 720"><defs><style>*{stroke-linejoin:round;stroke-linecap:butt}</style></defs><g id="figure_1"><path id="patch_1" d="M0 720h720V0H0z" style="fill:#fff"/><g id="axes_1"><path id="patch_2" d="M90 633.812h558V93.388H90z" style="fill:#fff"/><g id="LineCollection_1"><path d="m613.308 168.506 5.999 1.151M611.722 172.548l.25-.478.837-1.847.316-1.037.183-.68M613.363 164.691l.083 1.484-.138 2.331M608.815 143.04l-1.944-8.505-1.913-9.639-.765-4.567-.167-1.126-.446-4.89-.064-.993-.04-1.024.2-5.323M606.137 177.718l-1.071.737M606.137 177.718l2.91.6M606.137 177.718l-1.95-3.832M606.137 177.718l.867-.544M484.44 253.122l-22.532-5.609-4.759-1.222-3.596-.156M446.124 249.555l.364-.394 3.984-2.3 3.081-.726M446.991 246.908l2.433-.936 2.118-.445 2.011.608M607.004 177.174l1.291-1.085M607.004 177.174l1.698.364M630.047 181.856l1.126-5.725M630.047 181.856l-4.027-.802M630.047 181.856l3.814.733" clip-path="url(#pa8bede5d3c)" style="fill:none;stroke:#000"/><path d="m619.779 167.123-1.45-.28-.363-.118-.29-.173-1.479-1.185-.342-.225-.335-.083-.734-.046-.692-.056-.32-.06-.411-.206M608.815 143.04l1.063 5.742 3.096 13.743.389 2.166M637.27 165.674l-2.19 11.247M628.48 168.525l2.247-.788 3.514-1.119 3.028-.944M624.616 167.965l-1.4 6.557M624.616 167.965l3.864.56M624.616 167.965l-4.837-.842M628.48 168.525l-1.34 6.79M630.919 160.219l-1.427 4.187-.502 1.764-.51 2.355M614.61 172.826l-1.1-.213-.847-.127-.94.062M608.295 176.089l2.448-2.414.52-.612.46-.515M614.61 172.826l3.99.786M614.61 172.826l-1.26 5.707M618.6 173.612l4.615.91M618.6 173.612l.707-3.955M618.6 173.612l-1.273 5.712M623.215 174.522l-1.188 5.738M623.215 174.522l3.925.794M627.14 175.316l4.033.815M627.14 175.316l-1.12 5.738M608.295 176.089l.407 1.449M631.173 176.13l3.907.79M635.08 176.92l-1.219 5.669M608.702 177.538l.49.104M609.191 177.642l-.143.675M609.191 177.642l4.159.891M609.048 178.317l4.178.86M609.048 178.317 606.8 188.84M605.066 178.455l-4.724 2.543M605.066 178.455l-2.155 9.523M613.35 178.533l-.124.644M613.35 178.533l3.977.791M613.226 179.177l4.023.824M613.226 179.177l-2.187 10.604M617.327 179.324l-.078.677M617.327 179.324l4.7.936M617.25 180.001l4.634.95M617.25 180.001l-.928 4.186M622.027 180.26l-.143.692M622.027 180.26l3.993.794M600.342 180.998l-1.315 6.119M592.469 184.99l2.809-1.535 5.064-2.457M621.884 180.952l3.99.819M621.884 180.952l-.687 4.167M626.02 181.054l-.145.717M625.875 181.77l4.012.824M625.875 181.77l-.83 4.086M629.887 182.594l-2.376 10.84M629.887 182.594l.708.144 3.19.593M633.861 182.589l-.075.742M591.314 185.8l.535-.382M591.314 185.8l1.95.484M588.229 188.564l2.528-2.363.557-.4M595.283 186.286l-3.434-.868M595.283 186.286l-.105.445M595.283 186.286l3.744.83M595.178 186.73l3.752.86M595.178 186.73l-2.318 9.78M595.178 186.73l-1.914-.446M599.027 187.117l-.097.473M599.027 187.117l3.884.861M598.93 187.59l3.879.88M598.93 187.59l-1.987 9.758M602.911 187.978l-.102.492M602.911 187.978l3.889.862M602.809 188.47l3.884.877M602.809 188.47l-2.016 9.667M606.8 188.84l-.107.507M606.8 188.84l4.24.941M606.693 189.347l4.236.954M606.693 189.347l-2.014 9.588M611.04 189.781l-.111.52M611.04 189.781l3.869.858M610.929 190.301l3.857.869M610.929 190.301l-2.02 9.501M614.909 190.639l1.413-6.452M614.909 190.639l-.123.53M614.909 190.639l5.177 1.148M614.786 191.17l-2.174 9.392M614.786 191.17l5.196 1.168M620.086 191.787l1.11-6.668M620.086 191.787l-.104.55M620.086 191.787l3.594.797M619.982 192.338l3.604.81M619.982 192.338l-1.773 9.372M625.045 185.856l-1.336 6.468-.03.26M623.586 193.147l.061-.278.033-.285M623.68 192.584l3.83.85M623.586 193.147l3.805.855M621.569 202.399l.1-.383 1.917-8.869M583.922 193.102l-.933.99M583.922 193.102l2.317 1.38M588.229 188.564l-1.051.937-3.256 3.6M627.51 193.434l-.119.568M627.51 193.434l3.849.853M627.391 194.002l3.841.863M625.422 203.19l.213-.852 1.756-8.336M631.359 194.287l2.427-10.956M631.359 194.287l-.005.022M586.239 194.483l-7.256 7.748M588.597 195.396l-.672-.234-.828-.3-.858-.38" clip-path="url(#pa8bede5d3c)" style="fill:none;stroke:#000"/><path d="m593.264 186.284-.178.51-.55.639-2.039 2.135-4.258 4.915M631.232 194.865l.122-.556M631.232 194.865l-1.997 9.107M592.765 197.151l4.088.856M592.765 197.151l.025-.409M592.765 197.151l-2.458 10.768M596.943 197.348l-4.083-.838M596.943 197.348l-.09.659M596.943 197.348l3.85.79M600.793 198.137l-.185.657M600.793 198.137l3.886.798M596.853 198.007l3.755.787M596.853 198.007l-2.538 10.93M589.621 198.978l2.913-2.291M589.621 198.978l-1.47 1.195M589.621 198.978l-1.024-3.582M600.608 198.794l3.933.823M604.679 198.935l-.138.682M604.679 198.935l4.23.867M604.54 199.617l4.269.894M608.909 199.802l-.1.709M608.909 199.802l3.703.76M585.454 211.744l.924-4.324 1.774-7.247" clip-path="url(#pa8bede5d3c)" style="fill:none;stroke:#000"/><path d="m583.845 203.877 1.919-1.725 2.388-1.979M608.809 200.51l3.634.761M608.809 200.51l-.991 3.952M612.612 200.562l-.17.71M612.612 200.562l5.597 1.148M577.018 200.634l5.97-6.542M577.018 200.634l-2.578 2.826M577.018 200.634l1.965 1.597M612.443 201.271l5.682 1.19M618.21 201.71l-.085.751M618.21 201.71l3.359.689M578.983 202.23l-.711.859M621.569 202.399l3.853.79M618.125 202.461l10.898 2.282M618.125 202.461l-.683 4.237M578.272 203.089l3.708 2.52M578.917 209.15l-3.443-2.556-.047-.075-.017-.082.033-.076 2.829-3.272M625.422 203.19l3.813.782M583.845 203.877l-1.659 7.095M583.845 203.877l-1.865 1.732M629.235 203.972l-.212.771M607.818 204.462l9.624 2.236M616.753 210.397l-9.19-2.002-.239-.102-.117-.172-.034-.246.645-3.413M629.023 204.743l-.894 4.303M581.98 205.61l-3.063 3.54M617.442 206.698l10.687 2.348M617.442 206.698l-.689 3.699M616.753 210.397l9.857 1.953.414-.07.269-.168.193-.313.643-2.753M582.186 210.972l-.988-.362-2.281-1.46M582.186 210.972l3.268.772M589.298 212.122l-.47-.032-3.374-.346M590.307 207.919l-.855 3.347-.076.476-.078.38" clip-path="url(#pa8bede5d3c)" style="fill:none;stroke:#000"/><path d="m589.15 214.337.017-.305.03-.364.052-.957.049-.59M619.779 167.123l-.472 2.534M616.322 184.187l4.875.932M621.197 185.12l3.848.736M584.059 188.908l.51-.264 1.19-.42 1.263-.029 1.207.37M577.104 192.87l3.004-1.926 3.95-2.036" clip-path="url(#pa8bede5d3c)" style="fill:none;stroke:#000"/><path d="m575.982 191.061 6.484-4.26 1.593 2.107M575.982 191.061l1.122 1.809M573.67 195.605l-1.243-.65-1.084-.846 4.639-3.048" clip-path="url(#pa8bede5d3c)" style="fill:none;stroke:#000"/><path d="m566.93 191.803.688-.69 5.143-2.977.677-.19.54.098 2.004 3.017M573.67 195.605l.633-.526 2.17-1.804.631-.405M573.67 195.605l-.812.894M570.382 199.31l2.476-2.81M534.976 240.87l28.047-32.948 7.359-8.611M566.93 191.803l-.639.908 3.086 5.874 1.005.726M291.609 457.75l-16.122 7.45-4.272 2.086-3.365 1.777-3.213 2.211-22.542 18.629-2.9 2.336-4.277 2.942-37.43 21.8M295.039 494.3l-2.009-11.307-.542-4.599 1.817-11.874-1.338-7.086-1.358-1.684M328.55 439.31l-2.943 2.283-4.109 2.346-29.89 13.811M324.053 435.16l4.497 4.15M328.55 439.31l.129-.1M354.074 451.498l-.388-.345-.676-2.888-1.643-4.774-2.222-3.933-2.31-.913-2.519-.993-3.41-1.007-2.343-.646-2.486-1.67-.526-.078-5.434 6.251-1.438-1.292M359.35 376.163l-20.396 47.953-1.942 4.395-2.402 4.029-2.708 3.402-3.003 3.098-.22.17M354.074 451.498l2.486 2.21.315.954.193 1.217-.604.597-2.947 1.193-.966.812-.242 3.843.145 3.127" clip-path="url(#pa8bede5d3c)" style="fill:none;stroke:#000"/><path d="m374.002 469.833-2.454-4.724-.319-2.047-.605-2.582-4.399-3.055-1.338-.788-2.773-1.732-.861-.63-5.131-2.52-2.048-.257M386.035 420.016l1.179-.063 1.275-1.229 4.05-7.68-.125-2.036-.4-2.827.694-5.631 1.472-8.603-.441-3.055-.295-2.12-.904-2.66-4.143-2.908-2.313-1.29-2.628-.789-8.39-.623-3.281-.914-2.04-.104-4.037-.042-1.872-.54-2.502.062-1.984-.8M382.144 333.679l-6.615 8.789-2.698 3.926-2.223 3.662-1.897 4.1-9.36 22.007M386.062 328.474l5.562 1.878 4.638 3.247 6.232 3.676 3.333.62 3.237.096 2.609.669 2.947.811 2.367 2.626 3.237 2.196 2.367 2.674 6.135 7.256.145 5.49.097 3.916.821 6.97 2.464 9.548 5.46 11.791.24 2.054-.773 3.15-1.932 3.008-2.85 4.344-.677.907 2.802 6.35 3.382 3.676 5.217 4.249.532 2.147 2.464 1.958 1.642.812 1.74.047 1.932.764.338 1.146-1.11.382-2.61.19-3.816 1.147-2.319 4.821-1.69 6.493-2.223 2.339 1.111 6.827.531 5.49.097 4.726-3.624 2.816-3.719 1.051-2.85 3.055-.822 1.337-4.493 1.528-2.56 4.391.145 1.432.531 1.576 2.367 2.578 1.836 3.103.483 2.816 1.353 4.678 1.642 1.72 2.9 1.623 3.767 1.575 6.474.382 4.444 1.527 6.812 4.487 4.3 7.066 4.155 7.59 1.304 4.297 1.836 6.922-1.015 3.389-1.256 3.103-1.207 4.535-1.498 3.532.145 4.106-.821.668-.677 1.91-1.74 2.911.05 1.194 1.69 3.198-.193.955-.773 1.575-5.121 1.29-2.174 2.577-3.334 3.39-4.25 4.343-2.658 3.676-.87 6.349v2.482l1.111 4.964-1.256 3.151-1.256 2.34-2.946 3.102-2.657 2.626-1.498 2.386-2.319 5.108-1.546 3.199-.724 3.961-1.112 10.884M386.062 328.474l28.761-38.212M386.062 328.474l-3.918 5.205M382.144 333.679l-3.087-2.626-1.503-4.455-.888-7.087-3.689-5.602-.82-2.565-3.141-5.266-3.006-1.822-4.576-1.687-2.39-1.283-7.582-9.72-5.875-9.518-1.366-2.97.82-17.685M414.823 290.262l-.44-.215-.293-.356.023-.379 1.081-1.447 2.366-2.895.113-.98-1.803-2.471-2.433-2.65-3.808-.868-1.938-1.826M414.823 290.262l17.163-22.802M431.986 267.46l1.355 2.77M446.124 249.555l-3.577 3.873-10.561 14.032M446.991 246.908l-.867 2.647M280.448 191.54l3.141 3.572 4.822 8.908 3.875 4.365 5.183 6.457 18.386 1.024 22.216 1.693 34.159 2.627 20.369 7.126 23.613 8.55 16.043 5.657 14.736 5.389M266.39 103.78l-.736 2.258-1.126 6.503M280.448 191.54l-3.122-3.553-2.344-4.231-.27-1.826.135-6.413 2.118-8.329-1.126-13.05v-4.14l3.154-3.876 1.352-6.502-4.281-8.017-5.679-10.912-4.55-4.854-1.307-3.296M254.589 105.525l3.707 1.493 6.232 5.523" clip-path="url(#pa8bede5d3c)" style="fill:none;stroke:#000"/><path d="m195.14 158.015 2.725-.262 9.328.134 6.624-.357 6.85 1.381 4.777 1.692 6.444 4.677 8.472 4.899 11.49 8.194 9.96 6.77 6.354 3.563 12.284 2.833M117.298 186.147l8.104-5.19 4.416-4.009 9.419-3.518 9.689-1.737M195.14 158.015l-.52.05-10.14 2.45-8.246 2.36-7.931 2.85-14.917 4.676-4.46 1.292M146.364 253.621l-3.234-9.375 2.13-5.614-.913-8.12-1.318-2.906 1.724-9.423-1.623-16.14 3.246-8.02 1.014-5.714-1.622-10.525 3.158-6.09M108.698 332.763l13.44-10.097 12.514-5.621h8.232l3.279-1.19 2.61-3.506 7.963-4.63 1.807-5.951-1.606-4.365-1.673-10.582-1.539-3.77.335-5.158-2.477-5.489-.602-4.828-2.61-8.598-2.007-5.357M100.73 302.588l7.968 30.175" clip-path="url(#pa8bede5d3c)" style="fill:none;stroke:#000"/><path d="m214.678 138.04-6.462 7.597-9.638 10.649-3.437 1.729M266.39 103.78l-2.563.123-9.238 1.622M214.678 138.04l13.346-15.684 9.37-7.474 7.36-5.16 5.89-3.505 3.945-.692M499.677 256.389l-4.441-.58-10.797-2.687" clip-path="url(#pa8bede5d3c)" style="fill:none;stroke:#000"/><path d="m479.44 208.8.87 1.985 1.112 3.448 1.84 6.14 2.57 5.267-1.419 4.395-1.994 5.647-.422 2.728.384 7.275.23 1.554 1.725 2.994.103 2.889M479.44 208.8l-1.737-3.964-2.646-5.154-3.95-3.221M491.43 184.07l-.652 2.614.652 2.463.038 7.503-.805 3.525-1.189 2.046-2.76 1.515-7.274 5.063M528.306 251.962l-.712.368-3.973 1.172-11.722 2.037-5.73.813-5.537.161-.955-.124M504.27 249.591l-.87-.2-3.052 1.177-2.528 3.015-.087 1.005.727.805 1.217.996M558.41 221.026l-22.04 24.154-3.395 3.53-2.772 2.272-1.897.98M555.427 258.593l-1.977.582-2.65-.748-4.037-3.409-14.257-2.203-4.2-.853M558.41 221.026l3.367 14.832 2.776 10.848.42 3.284-3.028 4.862-6.518 3.74" clip-path="url(#pa8bede5d3c)" style="fill:none;stroke:#000"/><path d="m542.56 305.703-.27-4.286 2.658-5.7 2.726-9.812 1.469-2.626.384-2.453 4.16-13.232 1.609-5.942.131-3.06M558.41 221.026l16.03-17.566M542.56 305.703l.045.723-1.118 6.392-1.923 5.216M622.854 432.102l-1.506.693-.717.18-.757-.04-1.896-.503-.797-.354-2.263-2.33-1.338-1.686-2.152-3.103-.478-1.117-.327-.914-1.402-3.598-.27-1.37-.416-2.174-.876-2.409-.63-2.221-.35-1.748-.104-2.118.08-3.646-.071-.669-.216-.346-1.283-1.512-3.099-3.701-.63-.929-.55-1.221-.247-.756-.151-.448-.446-.937-.271-.6-.143-.456-.12-1.913-.16-.7-.23-.363-.933-1.615-.239-.55-.047-.662.055-1.205-.016-.456-.247-.56-.327-.52-1.123-.873-1.848-1.103-4.79-3.354-1.402-1.19-1.968-2.26-.51-.755-.382-.953-.375-1.023-1.442-3.89-.398-.906-1.602-3.102-.622-1.126-.526-.725-1.498-1.669-2.12-3.182-.668-1.29-.702-1.906-1.704-5.923-.253-5.45-.809-5.3-3.845-4.15-2.227-4.2-2.985-9.2-3.794-5.05-1.619-.6-4.351.2-3.187.1-4.2-1.2-2.48-1.95-.05-3.95-1.244-1.842M523.599 172.881l3.126 1.65 1.722 2.33 1.881 1.1 1.563.262 2.094.052 2.225-.262.98.21 2.04.445 2.014-.707 2.172-.628h.928l3.417 1.597 4.266 1.545 2.676-.053 2.358.289 1.271.68.398.864-.212 2.566.768 1.624 3.577 2.932 2.384 1.78 1.682.646M575.669 199.87l5.188-5.492.403-.165 1.729-.121M573.281 202.4l-7.535 7.986-8.039 9.293M573.281 202.4l2.388-2.53M573.281 202.4l1.16 1.06M572.858 196.5l2.81 3.37M590.52 178.951l1.949 6.039M592.469 184.99l-.62.428M631.354 194.309l5.083 1.32M592.79 196.742l.07-.232M592.79 196.742l-.256-.055M565.364 131.456l1.681-2.141.335-.402.335-.237 3.92-1.992 1.068-.646 1.665-1.52 4.072-3.48.74-.284.67-.141 1.586.023 1.896.291 1.259.646 4.86 3.749 3.897 3.323 4.072 3.182 2.287 2.378.343.575.35.842.478 1.442.43 1.062.407.733.701 1.048.654.866.613.669.31.209.451.17.876.121.602.055.924.162.582.22 1.387.662M594.315 208.938l-1.086 3.946-.415 1.339-.15.154-.16.074-.2.028-2.962-.132-.193-.01" clip-path="url(#pa8bede5d3c)" style="fill:none;stroke:#000"/><path d="m580.67 214.656 1.698-.016 2.414-.047 1.498-.07 2.87-.186M592.534 196.687l-1.668-.513-1.352-.451-.917-.327M590.307 207.919l4.008 1.019" clip-path="url(#pa8bede5d3c)" style="fill:none;stroke:#000"/></g><g id="PatchCollection_1"><path d="m613.435 179.418 3.578.738-1.64 7.76-3.577-.737zM623.596 174.995l-.275 1.44 1.514.283.275-1.44z" clip-path="url(#pa8bede5d3c)" style="fill:green;fill-opacity:.8"/></g><g id="PatchCollection_2"><path d="m631.377 168.713-1.119 5.817 4.016.754 1.118-5.817zM630.661 170.62l-.586 2.709-1.92-.406.585-2.709zM628.354 173.155l-.416 1.833 1.089.241.415-1.833z" clip-path="url(#pa8bede5d3c)" style="fill:#90ee90;fill-opacity:.8"/></g></g></g><defs><clipPath id="pa8bede5d3c"><path d="M90 93.388h558v540.424H90z"/></clipPath></defs></svg>