<svg xmlns="http://www.w3.org/2000/svg" width="960" height="960" viewBox="0 0 720 720"><defs><style>*{stroke-linejoin:round;stroke-linecap:butt}</style></defs><g id="figure_1"><path id="patch_1" d="M0 720h720V0H0z" style="fill:#fff"/><g id="axes_1"><path id="patch_2" d="M101.095 640.8h535.81V86.4h-535.81z" style="fill:#fff"/><g id="LineCollection_1"><path d="m141.835 130.115-1.54-3.157-1.738-2.204-4.12-3.932-2.845-1.827-3.395-1.737M431.013 409.86l4.008 1.526.278.159.175.159.1.203 1.181 3.135.296 1.033.2 1.323.129 1.148.024 2.582-.108 1.18-.197 1.133-1.954 9.305-.368 1.176-.577 1.573-.657 1.438-1.313 2.861-.22.735-.077.68.097.683 1.465 3.568.513 1 .801 1.217 1.538 1.907 1.01.89 1.136.715 1.963.77 1.737.461 5.911 1.033 15.618 2.305 2.163.477 1.705.58 1.162.572 2.287 1.506.892.448.745.23.705.1.809-.035 1.678-.302 1.313-.08 1.254.14.8.186 1.771.652 3.9 1.263 3.292.93 1.514.254 2.787.294 5.094.183 1.69-.167 1.153-.223 7.48-1.334 1.739-.295 1.201-.143 1.146-.055 2.682.103 1.955-.04 2.426-.238 11.966-1.526 9.162-1.049M551.122 566.815l-.044-4.2v-1.152l-.096-.667-.2-.644-.537-1.184-.336-1.525-.022-.501.07-.643 1.23-2.806.051-.278-.018-.162-.148-.197-.162-.117-1.57-.239-1.314-.214-1.425-.572-4.197-2.162-1.97-1.231-1.57-1.232-6.015-4.727-.294-.398-.072-.356.034-.311 15.19-50.91.456-1.843.2-.946-.08-.795-8.09-28.614M345.765 291.592l-.128-.75M345.765 291.592l.03.265M346.682 291.077l-.582.262-.123.072-.135.098-.077.083M344.794 153.772l.837-.182 2.506-.688.537-.08.573-.003h1.898l.6-.04.774-.171.877-.346 1.145-.564.544-.179 3.092-.715.637-.092.589.004.672.1.705.238.755.37.514.421.765.767 2.006 2.165 3.63 3.624.516.608 1.179 1.739.803.903.614.605.359.476.969 1.59.3.664.293.75.416 1.705.06.576.044.882.002.95.014.5.049.505.138.93.21.815.28.707.408.774 1.695 2.278.965.993 2.254 2.026 6.436 5.332.596.62.985 1.041.805.843 1.29 1.148.554.543.523.582.457.453.5.35.46.389 1.144 1.057.554.487.685.486.282.23.377.367.366.301.733.499.741.415 2.004 1.157 3.422 2.165.533.378.344.349.295.393.434.604.59.525.752.453.793.365 4.172 1.872 1.602.914 1.506.818 1.185.505 1.146.342.989.17 2.542.144 1.859.242 2.114.215 1.622.325 1.494.41 1.65.445.933.358.629.464 3.525 3.306.241.254.142.195.172.342.757 1.601M374.244 270.01l21.9-16.958 21.119-16.436 2.032-2.042 1.802-2.43 1.298-1.915.705-1.43.456-1.295.737-2.853.26-.954.336-.902.553-1.033.657-.91.957-1.03 2.531-1.982 5.366-4.009M496.207 124.797l-4.5 9.18-.898 1.509-.728.934-.826.814-.885.691-1.037.644-1.25.58-3.103 1.054-5.602 1.776-1.53.385-2.895.437-1.154.199-1.125.302-.893.357-.693.414-7.547 5.66-1.403 1.186-.765.783-.78 1.057-.566 1.152-3.676 8.015-.496 1.001-.555.785-.525.576-.626.47-.72.388-4.077 1.512-1.262.556-.901.595-.533.486-.532.592-.517.687-.432.74-.489 1.025-.764 1.898-.433 1.076-2.137 5.877-.388 1.07-.17.615-.09.627-.036 1.177.133 2.06.265 2.845.276 6.242.332 10.951-.035 1.422-.14.946-.265.942-.308.735-.924 1.4-.64.688-.838.751-1.571 1.17M341.555 353.965l6.212 1.156M341.555 353.965l-5.331-1.13M341.555 353.965l-1.057 6.523M342.915 347.923l-.672 2.9-.688 3.142M328.944 230.162l.206.775M328.944 230.162l-2.035 1.375M344.594 158.954l-.3 9.389-.157 2.674-.168 1.645-.36 1.733-.585 1.958-7.297 18.648-4.717 12.127-3.612 9.361-.469 1.47-.252 1.129-.08.648.016.73.096.712.164 1.029.329 1.562 1.742 6.393M269.873 630.138l15.922-17.303M267.69 613.19l-.93.818-.507 1.068.123 1.253 3.204 12.173.293 1.636M299.293 481.734l.153-2.99-.492-2.16-4.212-9.37-2.58-9.172-.055-1.54M306.878 440.628l-3.74 1.192-.566.18-5.684 1.92-.866.49-.641.518-.47.561-.524.772-.425.97-1.855 9.27" clip-path="url(#p47b8344f12)" style="fill:none;stroke:#000"/><path d="m250.685 453.391 7.694 12.09 1.81 5.008 3.725.83 4.91-.796 1.114-.414.766-1.105-.105-2.383 2.298-5.112 7.276-6.08 2.542-3.04 2.338-1.208.646-.176.7.24 1.67 1.215 1.245 1.963 1.896 2.025.897.054M317.218 398.473l-1.573 6.353M317.218 398.473l1.861-7.963M295.593 385.092l13.728 8.638 5.919 3.6 1.978 1.143M321.231 399.536l-.817-.073-.717-.102-.793-.2-.785-.27-.9-.418M338.068 416.247l1.1-7.222M338.068 416.247l3.262-.68M338.068 416.247l-2.29.501M333.804 352.456l2.42.38M333.804 352.456l-1.088 6.548M334.415 346.157l-.258 1.762-.115.957-.089 1.367-.149 2.213M347.767 355.12l-1.023 6.599M347.767 355.12l.899-5.282M332.716 359.004l2.458.472M332.716 359.004l-1.065 6.5M335.174 359.476l5.324 1.012M335.174 359.476l-.475 2.869M336.224 352.835l-.59 3.956-.46 2.685M349.712 368.371l-3.978-.685M349.712 368.371l-.593 6.39M349.712 368.371l.332-3.64M331.65 365.504l2.432.404M330.541 371.88l.281-1.807.829-4.57M330.541 371.88l-.047.199v.132l.026.074.05.048.047.044 2.284.377M330.541 371.88l2.442.375M349.119 374.762l-4.421-.716M349.119 374.762l-.042.518M348.595 381.342l-4.97-.756M348.595 381.342l-.035.493M348.595 381.342l.04-.473M331.923 378.759l-.103.556M331.923 378.759l.978-6.005M331.923 378.759l5.582.938M330.76 385.54l-1.068 6.16M330.76 385.54l1.06-6.225M327.389 391.328l.974-6.01.067-.126.117-.095.134-.02 2.078.463M330.76 385.54l.598.356 5.129.817M336.552 386.284l-5.157-.835-.636.09M348.102 388.397l-.463 6.193M348.102 388.397l.458-6.562M348.102 388.397l5.443.694M348.102 388.397l-5.022-.85M321.715 396.174l.405.05M321.715 396.174l-.484 3.362M322.53 391.076l-.079.374-.057.295-.066.469-.613 3.96M347.297 400.791l-6.701-1.164M347.297 400.791l-.327 2.63M347.538 396.017l-.061 2.345-.084 1.268-.096 1.161M315.645 404.826l4.785.847M305.405 429.866l1.417-2.31.89-1.211.856-1.037.613-.838.36-.624.213-.528.156-.644.104-.858.28-2.193.18-.79.245-.776.496-1.168.457-.842.416-.548.773-.866.253-.35.212-.354 2.319-9.103M320.43 405.673l4.447.877M320.43 405.673l-1.017 5.262M320.43 405.673l.176-1.327M346.431 410.27l-3.846-.66M346.431 410.27l-.23 4.26M346.97 403.42l-.137 2.634-.402 4.215M322.53 391.076l.425.07M322.53 391.076l-3.45-.566M322.53 391.076l.13-.507M337.894 340.417l-.593 4.812M337.894 340.417l-2.459-.447M337.894 340.417l1.121.25M337.894 340.417l.488-3.35M329.573 392.18l-.928 5.05M329.573 392.18l.119-.48M329.573 392.18l1.877.302M329.573 392.18l-2.27-.36M346.97 403.42l-3.364-.507" clip-path="url(#p47b8344f12)" style="fill:none;stroke:#000"/><path d="m389.557 406.475-3.131.644-2.5.413-4.272.532-.837.072-.79-.036-1.02-.154-.665-.096-.849-.087-2.122-.143-2.107-.199-1.586-.23-4.205-.962-3.22-.675-3.163-.509-3.54-.405-2.655-.34-5.925-.88M346.2 414.53l-4.87 1.037M342.026 418.583l3.66-.7.213-.08.079-.079.048-.084.033-.12.141-2.99M334.639 416.904l1.138-.156M329.871 420.774l6.424-1.086M333.315 408.06l-.456 2.46-.868 1.957-1.151.71-1.24.562-2.28.776.68 1.055.473.084M337.123 424.472l-.828-4.784M336.295 419.688l5.73-1.105M336.295 419.688l-.518-2.94M342.026 418.583l-.696-3.016M327.389 391.328l-.085.491M327.389 391.328l-4.319-.693M327.389 391.328l2.303.371M329.692 391.7l5.896.925M335.588 392.625l.899-5.912M335.588 392.625l-.08.523M335.588 392.625l5.929.979M341.517 393.604l-.118.46M341.517 393.604l.97-5.966M341.517 393.604l6.122.986M347.639 394.59l-.044.46M322.66 390.569l-3.179-.507-.155.022-.09.07-.092.148-.065.208M327.304 391.82l-.842 5.178M327.304 391.82l-4.349-.674M335.508 393.148l-.652 3.703M335.508 393.148l5.89.916M335.508 393.148l-2.788-.463M341.399 394.064l-.803 5.563M341.399 394.064l6.196.987M347.595 395.05l-.057.967M332.72 392.685l-.533 3.699M332.72 392.685l-1.27-.203M331.91 397.778l2.744.664M331.91 397.778l-1.024-.19M331.91 397.778l.277-1.394M331.91 397.778l-.077.428M334.856 396.85l-.202 1.592M334.856 396.85l-2.669-.466M330.886 397.588l.164-.628.1-.632.064-.707.236-3.139M330.886 397.588l-2.241-.359M496.207 124.797l5.198-11.388 1.121-2.114 1.394-1.892 3.444-4.462.544-.644.69-.532M345.852 292.818l-.056-.961M345.883 301.805l.016-6.182-.047-2.805M345.852 292.818l.205-.434.153-.245.162-.227.356-.425M324.877 406.55l1.777.33M324.877 406.55l1.047-6.135M319.413 410.935l4.397.598.2-.033.13-.075.052-.084.04-.11.645-4.681M333.315 408.06l.868-6.463M333.315 408.06l5.854.965M333.315 408.06l-6.661-1.18M340.596 399.627l-.455 2.717M340.596 399.627l-5.942-1.185M334.654 398.442l-.038.281M321.231 399.536l.364.05M321.231 399.536l-.46 2.802-.075.444-.048.273-.032.478-.01.813M340.141 402.344l-5.958-.747M340.141 402.344l3.465.569M340.141 402.344l-.972 6.68M339.169 409.025l3.416.585M334.183 401.597l-6.252-.896M334.183 401.597l.433-2.874M336.224 352.835l1.077-7.606M334.082 365.908l5.417.827M334.082 365.908l-1.099 6.347M334.082 365.908l.617-3.563M345.734 367.686l-1.036 6.36M345.734 367.686l1.01-5.967M345.734 367.686l-6.235-.951M332.983 372.255l-.082.499M332.983 372.255l5.532.798M338.515 373.053l.984-6.318M338.515 373.053l-.073.48M338.515 373.053l6.183.993M344.698 374.046l-.084.516M337.505 379.697l.937-6.164M337.505 379.697l-.072.501M337.505 379.697l6.12.89M343.624 380.586l-.074.463M343.624 380.586l.99-6.024M336.552 386.284l.88-6.086M336.552 386.284l-.065.429M336.552 386.284l5.987 1.032M342.539 387.316l-.052.322M342.539 387.316l1.011-6.267M342.539 387.316l.54.231M340.498 360.488l4.492.852M340.498 360.488l-1 6.247M318.588 237.278l8.321-5.741M326.654 406.88l1.277-6.18M291.217 391.516l4.376-6.424M217.598 335.077l10.284 12.444 1.28 1.323 13.504 10.28 5.319 3.664 2.103 1.065 41.728 19.087 3.777 2.152M306.878 440.628l-.792-2.582-.369-1.287-.18-1.034-.104-1.036-.1-3.278.072-1.545M299.054 424.124l2.879 1.464.338.19.242.221.253.358.455.92.426.602.812 1.001.946.986" clip-path="url(#p47b8344f12)" style="fill:none;stroke:#000"/><path d="m319.413 410.935-1.098 5.6-1.225 5.984L314.948 433l-.273 1.133-.3.985-.348.888-.365.673-.569.775-.792.802-.737.545-.913.505-3.773 1.322M334.415 346.157l-2.3-.423M335.435 339.97l-.318 1.82-.702 4.367M336.76 333.798l-.592 2.72M336.76 333.798l3.324 1.585M330.834 331.612l2.174.783 2.259.76.733.27.76.373M349.465 362.222l-2.721-.503M346.744 361.719l-1.754-.379M347.196 348.427l.998-5.587M342.994 347.61l.362.084.388.088.435.095.545.109 2.472.441M348.666 349.838l.164-.946-.022-.117-.046-.072-.112-.061-1.454-.215M342.915 347.923l-.47-.044-.486-.094-.415-.1-2.258-.617-.76-.315-.444-.292-.288-.298-.493-.934M342.915 347.923l.08-.313M344.385 342.094l-5.37-1.426M344.385 342.094l-1.39 5.516M345.751 335.022l-.092.917-.144.807-.561 2.638-.569 2.71M336.168 336.518l-.29 1.323-.443 2.13" clip-path="url(#p47b8344f12)" style="fill:none;stroke:#000"/><path d="m330.866 341.196.252-.93.196-.417.157-.157.24-.091.252-.018 3.472.387M345.77 334.434l-.019.588M345.883 301.805l-.024 5.014-.048 20.519-.04 7.096M340.084 335.383l.95-.196.3-.036.218-.01.293.034 1.067.244.34.04.4-.032.385-.147 1.734-.846M340.084 335.383l1.006.556M267.639 284.744l34.826 25.786 6.68 4.887 1.794 1.399 2.339 2.05 4.469 4.109 2.987 2.733.897.842.781.608.769.525.693.342.788.357 1.034.461.845.406 4.293 2.363" clip-path="url(#p47b8344f12)" style="fill:none;stroke:#000"/><path d="m322.89 329.427 7.399 3.53.545-1.345M338.382 337.067l1.783.414M338.382 337.067l-2.214-.55M339.015 340.668l.44-.27.28-.31.171-.324.07-.304.189-1.979M341.09 335.94l-.435.41-.162.215-.13.298-.198.618M341.09 335.94l2.879 1.378.31.056.232-.04.118-.082.1-.18.177-.926.144-.508.116-.205.202-.193.383-.218M157.115 287.998l9.17 8.17 1.953 1.706 1.875.969 14.103 3.915 4.649 1.9 4.297 2.208 1.935 1.37 1.386 1.188 21.115 25.653M267.639 284.744l-7.658 1.34-5.212 3.001-3.346 4.916-1.801 1.213-3.09.128-3.925.575-3.732-.32-1.737.575-4.826 3.384-.644-.447-1.608 1.213-.257 1.532-10.296 16.983-1.609 8.81-.3 7.43M262.62 279.828l1.994 2.49 3.025 2.426M145.012 137.104l12.428 27.546.978 3.035.795 2.944 1.498 10.342.216 2.895.67 53.542-.156 1.822-.586 1.86-14.922 25.04-.47 1.511-.077 1.318.898 8.063.742 2.403 1.328 2.287M157.115 287.998l-.946-.842-6.018-3.7-1.797-1.744" clip-path="url(#p47b8344f12)" style="fill:none;stroke:#000"/><path d="m126.428 254.936 5.793 8.52 8.633 10.968.976.582.547.891.47 2.132 1.132 2.403 2.11 1.202 2.265.078M111.399 250.897l5.586.194 1.72 3.334 1.6 1.511 2.032.853 1.993-1.512 2.098-.341M141.835 130.115l3.177 6.99M130.892 143.335l1.485-.155 3.945-4.419.743-1.24.312-1.628 1.758-2.48 1.719-2.753.981-.545M344.794 153.772l.8-22.22.545-14.034.685-20.456M344.594 158.954l.2-5.182M336.684 155.496l1.126.875 2.555 1.64 1.25.907.328.147.352.024.425-.012 1.874-.123M314.347 152.024l-3.244-.354-.637-.031-.544.063-1.578.588-1.161.358-3.644.488-1.082.171-1.758.413-2.815.454-.885.162-.777.295-.704.5-.634.226-1.069.362-.92.181-.311.092-.284.164-.25.264-.305.463-.58.7-.858.739-.444.353-.445.231-3.1 1.168M336.684 155.496l-.456-.392-1.341-1.177-.441-.262-.473-.199-.504-.179-.465-.09-.368-.025-11.097.108-.92-.064-1.022-.246-1.626-.414-3.624-.532M324.058 138.164l-.225.743-.097.513-.005.558.1.652.039.489-.044.35-.144.347-.233.278-4.284 3.35-4.241 3.179-.385.413-.184.31-.124.472-.044.66.031.513.129 1.033M136.977 298.918l2.125 1.796 4.769-1.831 5.675-3.627 5.902-5.095 1.667-2.163M218.133 488.52l1.497-6.183 1.949-2.867 3.343-2.556 7.589-7.98 5.744-6.39 12.43-9.153M243.93 427.07l-1.636 2.799.244 7.806 1.01 1.416 1.775.622 8.982 10.327-.382 1.278-2.472 1.003-.766 1.07" clip-path="url(#p47b8344f12)" style="fill:none;stroke:#000"/><path d="m201.247 432.632 11.698 1.762 5.292-3.8 7.764-9.948 3.237.656 1.533 2.833 6.405-.588 1.95.622 4.805 2.902M297.059 422.856l-3.795-1.105-10.689-1.416-3.794.104-12.812 2.176-7.764 7.564-4.7.484-4.039-.277-5.535-3.315M122.773 493.874l2.089-.346 1.95-2.59 4.943-2.764.697-2.038 2.576-2.452 1.114-2.556 3.62-1.934 4.84 2.037 2.785-2.556.627-3.247 5.605-7.495 6.233-4.042 13.16-4.731-.314-7.461 3.03-2.142 19.217-7.841 6.302-9.084M161.813 402.408l2.612-1.047 2.084-1.44.845-.262 2.48.315 2.744.968 6.332-1.387 5.673-1.833.871.55 1.477 2.356.765 2.513-.237 6.047-.37 5.184 1.32 1.02 1.715 2.697.923 1.02.687 1.571 2.163 1.597.185 1.545 1.82 1.858.08.655 1.504 1.178.607 1.623 1.213 1.57 1.941 1.926M299.293 481.734l-.618 12.083-.692 2.704-2.626 6.584-.2 1.352.107 1.349 2.16 10.287.09 1.574-.73 10.69.55 3.185 1.297 6.074.938 3.945.982 4.607.953 4.219.633 2.59.468 1.744.469 1.327.585 1.45 1.801 3.607 1.234 2.623 1.422 2.912.492 1.077.233.726.152.803-.024.779-.149.767-.292.921-1.201 2.908-9.476 21.085-8.279 13.025-3.777 4.104M267.69 613.19l1.187-.226 16.918-.129M267.69 613.19l-1.57-.58-1.009-.172-22.253 2.466-6.372.662-12.11.604-10.38.476-4.774.223-2.242.286-1.15.262-.74-.135-3.245-3.138-.557-2.176-1.837-1.678-2.274-2.86-.354-1.375-.992-2.916.235-2.776 1.253-3.42 2.89-3.177M430.4 522.024l-1.502 1.037-3.187 2.24-.257.21-.48.47-.453.672-1.11 1.96-.273.284-.339.258-.436.143-.593.064-4.437-.247-1.157-.055-.994.024-.72.154-.834.303-1.03.554-.249.252-.168.308-.094.24-.04.376.048.558.044.517-.036.798-.248 2.535-.353 4.918-.096 1.073-.104.711-.22.656-.789 1.938-.204.767-.108.83.007 1.153.337 6.507.048 1.248-.088 1.2-.329 2.606-.328 1.732-.36 1.717" clip-path="url(#p47b8344f12)" style="fill:none;stroke:#000"/><path d="m390.51 569.608 3.636-1.463.87-.226 1.157-.147 2.963-.278 2.19-.167.773-.147.821-.25.957-.374 3.8-1.585.61-.457.34-.345.316-.537.325-.897M354.974 520.931l-3.388-2.566-.521-.263-.564-.107-.59.032-.872.167-1.154.37-1.057.381-.52.143-.533.028-.533-.132-.416-.337-.208-.406-.104-.762.096-.822.544-2.265.52-2.05.572-1.943.799-2.603.352-1.366.192-.906.148-.989.085-1.065-.02-.703-.057-.36-.124-.417-.176-.32-.871-1-.182-.135-.255-.103-.268-.033-.244.036-4.772 1.29-2.13.565-1.602.33-.78.036-1.09-.096-.8-.174-2.264-.732-4.42-1.31-1.69-.59-2.227-1.056-3.06-1.593-.678-.34-.46-.154-.363-.07-3.484-.218-.757-.056-1.018-.15-4.544-1.078-.449-.173-.248-.17-4.902-5.02-.508-.588-.369-.54-2.162-3.584-.622-1.089-.46-.981-.473-1.16M397.51 583.839l.32-1.32v-.389l-.084-.457-.18-.405-.544-.75-3.669-5.062-.596-.894-.337-.632-.188-.46-.256-1.149-.224-.548-.212-.445-1.03-1.72M368.68 527.894l.11.367.272.632.912 4.33.281 1.343.144 1.32.016 1.477-.056 1.828-.104.683-.168.716-1.65 3.265-.697 1.62-.857 2.274-1.561 3.917-1.13 2.67-1.818 3.806-.365.612-.464.485-1.854 1.22-.473.444-.488.584-.273.556-.144.572.016.771.153.818.44 2.27.264.79.42.548.654.465.788.258.697.06.93-.044 1.165-.063.773.103.68.226.449.302 1.477 1.585 1.106 1.208.26.199.485.218.524.115 2.247.151 1.697.048 1.707-.024 1.585-.163 1.226-.155.753-.031.797.027 1.337.1.653-.056.769-.19 1.07-.422.6-.175.717-.103 1.225-.111.689-.175.78-.258 3.064-1.3M430.4 522.024l1.32-.54 3.979.943 4.085-.664 4.296 2.83 2.64.35 8.576 2.774 1.122-.71.74-.335 1.046-.083.665.127.572.306 2.13 1.35 3.42 1.626 2.802 1.569 2.372.763 4.073-4.184 1.458-1.939 1.714-2.09 2.855-2.74.685-.41.805-.25 2.775-.593 2.138-.73 1.622-1.02 3.985.61 2.458 1.232 3.296 1.923 2.67 2.688 1.022 2.215 2.984 4.032.12.544-.236.716-.89 1.768.11.603.672 1.391.375 1.902.065.883-.032 1.264-.184 1.613-.905 3.861.164 1.172.573 1.983.04.79-.292 4.092.444 2.718v2.169l1.121 1.585 1.005 1.154.25.1.688-.06 1.133-.36 2.539-.008 3.54.16 3.692.96 3.696 1.18.597.096 1.586-.06.796.1 1.094.298 4.637 1.66.91.225 1.213.157 1.25-.031 2.742-.18 4.746.116 2.178-.537 1.214-.427.572.105 2.227 1.21.589.122 1.125.065.783.32.47.322M587.002 594.27l-1.361-.694-2.529-1.351-.852-.28-.266-.163-.225-.288-.372-1.64-.852-2.993-.89-1.616-.76-1.176-1.002-1.24-.529-.882-.424-1.024-1.053-3.85-.197-.537-.264-.4-.372-.307-.54-.21-1.13-.338-1.026-.302-1.097-.405-2.018-1.017-2.915-1.558-1.141-.493-1.034-.25-.865-.107-1.149-.024-2.13.286-.642-.071-.768-.246-.85-.533-1.493-1.14-.753-.461-.745-.358-1.77-.508-.668-.278-.617-.393-.58-.608M346.548 529.442l2.186-.207.725.012.89.166.756.25 3.04 1.598.39.115.316.006.335-.097.65-.52.179-.203.136-.382.028-.42-.166-.372-.2-.284-.535-.608-.38-.636-.301-.632-.092-.592.008-.623.092-.624.193-.644.36-.723.2-.552.112-.64-.06-.591-.436-1.308M368.68 527.894l-.58-.51-.588-.346-4.213-2.265-1.29-.616-1.325-.468-2.21-.549-.985-.21-.565-.27-.493-.386-1.457-1.343M585.407 603.107l2.14-5.866 1.011.387.428-1.081-1.945-1.775-.04-.502M626.601 626.146l-7.468-4.322-1.634-2.74-4.318-4.747-.778-1.39-1.517-1.311-.856-1.12-.894-3.473-5.485-7.872-4.434-3.203-1.984-.656-4.357-.116-5.874-.926M389.557 406.475l1.401-.031.885.08.662.119 6.119 1.787.76.147.505-.004.967-.109.735-.117.536-.12.617-.206.67-.338 1.64-.866 1.557-.824.554-.193.429-.093.454-.03 2.22.43.706.11.785.052 1.641-.044.845.068.961.175 3.665.85 1.033.143 1.01.087 1.653.139 1.298.16 1.229.226 1.49.365 4.429 1.423M506.255 333.647l-2.455.318-2.963.31-2.164.101-2.938-.058-1.398-.016-.825.068-.733.104-3.848.743-.45.134-.343.143-.233.157-.234.247-.278.348-.242.218-.218.174-.529.37-5.51 3.21-7.427 4.347-3.186 1.737-.789.377-.804.31-1.598.564-1.474.6-1.47.886-1.753 1.36-1.55 1.545-.737.862-.525.775-.656 1.12-.417.842-.376.87-2.235 6.203-.184.73-.072.517v.664l.336 3.552-.02.858-.216 1.16-.269 1.002-1.513 3.512-.657 1.307-.545.822-.784 1.01-4.11 5.292-3.279 4.704-.368.421-.46.374-1.518.953-.493.376-.457.423-.705.75-.88.835-1.586 1.315-.497.544-.52.835-6.087 15.289M389.557 406.475l.645-1.613M566.932 295.662l-.52.227-.997.258-4.43.803-1.305.04-1.618-.1-1.361-.286-3.116-1.005-1.474-.342-1.45-.246-3.547-.318-.923-.042-.804.08-.949.268-.704.358-.521.504-2.675 3.544-.385.358-.424.338-.6.353-2.367 1.188-.495.34-.348.342-.435.482-1.515 2.035-.343.375-.356.27-.709.388-9.748 4.649-1.714.802-.944.525-.865.54-.882.827-1.153 1.51-.913 1.47-.88 1.676-.713 1.62-.73 2.25-.564 2.136-.229 2.632-.115.922-.188.607-.205.462-.492.62-.729.699-.978.762-.55.457-.526.481-.457.45-.737.65-.737.505-1.257.521" clip-path="url(#p47b8344f12)" style="fill:none;stroke:#000"/><path d="m544.723 371.25-.196-.811-.136-.783-.205-.715-.556-1.407-.673-1.481-.262-.298-.307-.267-7.577-4.624-6.335-3.735-2.587-1.613-2.37-1.709-3.682-3.106-.45-.494-.357-.588-.493-1.319-.409-1.192-.464-1.04-4.59-8.885-.768-1.247-.697-.843-.685-.564-.593-.27-.777-.223-.708-.075-1.154.078-.329-.029-.284-.05-.824-.313M390.202 404.862l.46-1.056.222-.593.119-.397.248-1.005M390.202 404.862l-1.254-.075-.616-.067-.565-.132-1.75-.596-.06-.05-.063-.093-.047-.129-.094-1.221M322.66 390.569l.41.066M322.12 396.225l4.342.773M322.12 396.225l.713-4.375.122-.704M322.12 396.225l-.525 3.36M321.595 399.586l4.33.829M320.606 404.346l.335-1.025.105-.539.073-.447.476-2.75M344.99 361.34l.105-.704.077-.57M337.25 362.81l-2.55-.465M343.606 402.913l-1.02 6.697M374.1 366.982l-.33-6.556M373.77 360.426l1.098.279 14.93 4.433M368.933 359.68l3.572.524 1.266.222M348.666 349.838l3.192.322.25.089.196.15.139.158.612.795.316.306.273.2.448.209 9.17 2.845.476.195.47.277.6.48.217.137.264.089.325.065 2.743.39.438.148.202.132.169.236.084.318.008.344-.325 1.956" clip-path="url(#p47b8344f12)" style="fill:none;stroke:#000"/><path d="m348.636 380.87 16.116 2.243.49-.008.364-.187.182-.172.138-.31.08-.412 2.927-22.345M348.636 380.87l.441-5.59M353.043 396.829l-5.505-.812M346.728 291.487l.549-.5M345.796 291.857l.147-.05.246-.092.29-.12.249-.108M329.15 230.937l2.445 9.202.164.846.14.743.06.847-.02 1.069.168 2.796.193 1.4.32 1.334.34 1.176 3.46 9.243 3.488 9.194.97 2.948.552 1.883.577 2.408.889 4.486.156.835.372 1.505 1.217 4.061.285 1.065.336 1.3.375 1.565M346.682 291.077l-.534-.06-.222-.063-.29-.111M346.682 291.077l.595-.09M374.244 270.01l-21.209 16.466-5.758 4.511M336.684 155.496l1.358-.353 6.752-1.37M473.31 119.075l6.743 1.498.552.072.429.095.384.171.357.346.28.532.296.401.437.39.376.206.529.124.889.003 1.486-.142.773.007 2.57.303 1.718.194 2.035.1.54.1.457.206 2.046 1.116M326.91 231.537l1.036-.489.233-.09.266-.05h.228l.477.029M362.614 286.127l2.023-.128 2.879-.123 1.133-.016 1.466-.004 1.59.032 2.394.19.733.016.72-.007 1.386-.145.56-.004.614.026 1.482.214.456.093.677.24.28.073.387.033.366-.03.465-.033.484.01.717.08 1.19.186.864.012 1.01-.056 2.554-.493M362.614 286.127l7.833-11.03 1.097-1.336.93-1.263 1.77-2.488M345.883 301.805l1.181.366.737.298.729.385 4.205 2.503.349.107.28-.012.248-.119.19-.23.133-.282 1.687-5.797.913-2.607.469-.977.408-.799 2.094-3.516 3.108-4.998M322.955 391.146l.115-.511M566.932 295.662l.489-.353.412-.568 1.61-3.203.569-.97 1.297-1.541 1.033-1.08M565.727 267.33l2.243 2.608.384 1.558v1.717l-.192 1.589-.641 2.226-.032.953.097.446 1.153 2.162.512 1.78.417.922.577.54 1.217.859.88 3.256M562.008 333.572l-.096-1.494-.8-1.78-.418-1.875-.512-1.558-.224-.413-.128-3.814.128-1.113.352-1.558.257-.508v-.286l.192-.35.128-.762.32-.86.193-1.683.384-1.749.961-1.462.385-1.08.736-1.304.802-1.97 1.634-2.48.16-.795-.097-1.557-.737-3.783 1.304-3.676M326.462 396.998l2.183.231M326.462 396.998l-.538 3.417M325.924 400.415l2.007.286M327.93 400.7l.566-3.084M328.645 397.23l-.149.386M337.433 380.198l6.117.851M337.433 380.198l-5.613-.883M343.55 381.05l5.01.785M332.9 372.754l5.542.78M338.442 373.533l6.172 1.029M344.614 374.562l4.463.718M430.4 522.024 428.91 522l-2.59-.601-3.344-.031-4.208-1.343-2.244-1.976-9.053 1.33-20.324 3.859-7.912 1.422-10.555 3.234M343.08 387.547l-.593.091M336.487 386.713l6 .925M331.833 398.206l2.783.517M331.833 398.206l-3.337-.59M546.897 374.5l-1.578-2.178-.26-.302-.18-.33-.156-.44M528.858 413.992l-1.442-3.052-.513-2.225-.096-1.939-.192-1.462-.385-1.113-1.987-2.702-.352-.317-.673-.223-.481-.318-1.09-1.367-.352-.858v-1.017l.512-2.384 1.7-4.578.544-2.097.577-1.685.192-.954.128-2.448.737-2.034.609-1.112 2.115-3.084.802-.572.961-.381 1.154-.064 3.685.19 1.667-.19.898.16.32-.065 5.096-4.068 1.73-.783M529.37 414.437l1.027 4.005 3.429 4.26M529.37 414.437l-.512-.445M548.653 416.185l.834-1.113-1.122.032-.8-.254-10.318-.287-4.1-.254-3.776.128M512.514 419.015l4.165-4.481.609-.54.608-.191.512.096.513.063 9.74.223.197-.193M512.514 419.015l-21.945-16.43" clip-path="url(#p47b8344f12)" style="fill:none;stroke:#000"/><path d="m529.94 432.016-.64-.318-3.076-2.353-5.383-3.814-3.653-2.797-4.674-3.72" clip-path="url(#p47b8344f12)" style="fill:none;stroke:#000"/></g><g id="PatchCollection_1"><path d="m326.646 397.443.183-.058 1.287.242.042.124-.52 2.558-.116.074-1.214-.193-.08-.156zM333.136 393.062l-.433 2.677.093.25 1.873.333.222-.212.338-2.71-.086-.159-1.837-.3zM326.367 400.551l1.363.19-1.103 5.737-1.212-.214z" clip-path="url(#p47b8344f12)" style="fill:green;fill-opacity:.8"/></g><path id="PatchCollection_2" d="m341.479 357.666 1.264.219-.329 1.873-1.264-.219z" clip-path="url(#p47b8344f12)" style="fill:#90ee90;fill-opacity:.8"/><g id="PatchCollection_3"><path d="m328.49 415.534 1.3.172-.137 1.108-1.317-.182zM330.45 396.17l.336-1.86-1.174-.212-.346 1.861zM329.882 392.39l1.347.24-.132.965-1.363-.24zM326.803 396.618l1.358.27.37-1.973-1.391-.215zM333.229 396.767l-.18 1.146 1.22.216.204-1.133zM331.554 392.745l.924.147-.156 1.002-.912-.148zM326.493 406.389l.304-1.604-.937-.175-.305 1.604zM319.438 237.272l.394-.011.01.369-.393.011zM341.479 357.666l1.264.219-.329 1.873-1.264-.219zM343.352 359.261l.1-.698 1.616.227-.1.699z" clip-path="url(#p47b8344f12)" style="fill:#a9a9a9;fill-opacity:.8"/><path d="m343.276 359.8 2.511.352.077-.534-.253-.035.1-.704.235.033.065-.456-.886-.125.045-.311 1.298.182.077-.536-1.306-.184.033-.232 1.31.184.09-.635-1.6-.225-.243 1.705-1.31-.184-.067.468 1.616.227-.1.699-1.616-.228zM570.917 286.937l1.001-.175.084.477-1 .175zM620.342 277.314l.064.635-.572.057-.065-.636zM620.79 277.496l.394-.06.068.437-.394.06zM633.088 276.253l-.13-.35.437-.158.13.349z" clip-path="url(#p47b8344f12)" style="fill:#a9a9a9;fill-opacity:.8"/></g></g></g><defs><clipPath id="p47b8344f12"><path d="M101.095 86.4h535.81v554.4h-535.81z"/></clipPath></defs></svg>