<svg xmlns="http://www.w3.org/2000/svg" width="960" height="960" viewBox="0 0 720 720"><defs><style>*{stroke-linejoin:round;stroke-linecap:butt}</style></defs><g id="figure_1"><path id="patch_1" d="M0 720h720V0H0z" style="fill:#fff"/><g id="axes_1"><path id="patch_2" d="M90 605.12h558V122.08H90z" style="fill:#fff"/><g id="LineCollection_1"><path d="m199.655 297.668 8.899-15.77M206.813 333.604l-6.102-6.726-2.39-3.245-1.336-1.967-.834-1.967-.723-2.263-.556-2.36-.055-3.049.095-1.147.1-1.188.25-2.385.834-2.508 1.056-2.508 2.503-4.623M250.04 401.814l-.478-2.001M255.444 414.634l-2.957-5.839-2.447-6.981M243.976 401.57l1.417.207 2.544.246 2.103-.21M304.158 466.65l.393-.24M304.158 466.65l.532.307 3.628 2.298.786.535 1.759.927.634.165M304.158 466.65l.06-.444M296.788 461.772l.443.416 2.551 1.708 3.538 2.228.838.526M317.446 474.974l-1.776-1.342-4.173-2.75M311.497 470.882l-.495-.46-2.093-1.444-1.606-1.001-.722-.412M381.159 258.704l1.742 11.39M381.159 258.704l4.583-.278M381.159 258.704l-1.127-7.133M389.783 314.74l4.127-4.88M389.783 314.74l-.305-.663-.18-1.492" clip-path="url(#p084dca674f)" style="fill:none;stroke:#000"/><path d="m389.501 315.451.139-.35.143-.362M392.068 319.184l-1.087-2.113-1.198-2.332M395.368 325.594l-.262.556M395.368 325.594l-.985-2.022M395.368 325.594l1.111 2.32M399.935 338.718l-.163-.51M399.935 338.718l-.138.007-.128.042-.11.074-.08.1M400.357 339.101l-.027-.113-.062-.103-.09-.083-.115-.057-.128-.027M400.275 339.362l.54.307M400.275 339.362l.066-.124.016-.137M400.275 339.362l-.107.096M389.895 353.375l3.237-4.093M389.895 353.375l.387.137M389.895 353.375l-.53-.124M389.895 353.375l-.192.41M373.643 388.327l-.044-.122-.116-.153M376.301 388.016l-2.268.312h-.39M373.361 388.91l.143-.11.1-.143.048-.162-.01-.168M365.795 420.275l.532-2.083M365.371 424.265l.312-2.569.112-1.42M364.954 421.86l.451-.779.39-.806M366.273 289.719l-2.698 1.37M366.273 289.719l2.802-1.328M361.386 277.259l1.34.828.245.217 3.302 11.415M372.885 339.406l-.806-4.48M372.885 339.406l2.35-.332M372.885 339.406l-5.089.836M364.473 305.425l-.042-8.661M364.473 305.425l-3.261.364M364.473 305.425l3.49-.419M361.609 309.125l-.397-3.336M361.609 309.125l6.333-.747M361.609 309.125l-3.237.434M367.49 282.066l1.585 6.325M359.036 319.39l1.18 6.022M359.036 319.39l-.156-2.088M359.036 319.39l-6.212 1.217M369.25 321.662l-1.377-.552-.926-.296-5.358-1.151-2.553-.273M369.075 288.391l1.37-.615M383.45 306.752l-1.4-7.526M383.45 306.752l4.44-.935M383.45 306.752l-5.189 1.024M385.953 315.161l-1.057-1.77-1.445-6.639M364.43 296.764l-3.676 2.36M364.43 296.764l2.495-1.617M392.37 297.262l-4.787 2.129M392.37 297.262l1.99 2.92M392.37 297.262l-.31-2.485M392.37 297.262l4.594-2.288M370.444 287.776l.543 3.608M370.444 287.776l4.372-1.634M370.715 327.061l.576 3.371M370.715 327.061l-1.465-5.4M370.715 327.061l.958.05M366.352 331.251l-.976-4.73 5.34.54M377.472 301.994l-.924-5.266M377.472 301.994l-.874.607M377.472 301.994l4.578-2.768M374.816 286.142l.736 4.733M374.816 286.142l4.964-1.636M357.504 301.063l.53 5.08M357.504 301.063l3.25-1.939M274.76 314.02l2.485-.29 6.583-.946 10.525-1.524 18.65-3.129 11.444-2.16 5.964-.68 14.573-2.452 3.144-.549 9.376-1.227M389.582 280.48l-4.504 2.314M389.582 280.48l2.054-1.686M389.582 280.48l1.542 8.462M363.292 340.942l-.795-4.526M363.292 340.942l4.504-.7M363.292 340.942l-3.566.382M379.78 284.506l.89 5.658M379.78 284.506l4.823-1.547M385.953 315.161l-1.68 1.224M385.953 315.161l2.908-2.239M367.962 305.006l-.02 3.372M374.161 304.086l-2.278.404-3.92.516M360.754 299.124l.458 6.665M372.495 302.032l-.57-4.722M372.495 302.032l1.666 2.054M372.495 302.032l-5.57-6.885M398.06 305.674l2.593 1.43M398.06 305.674l-1.956-2.93M394.198 309.522l3.028-3.087.833-.76M404.81 301.655l-1.408 1.028-5.343 2.991M367.99 316.203l.877 4.043M367.99 316.203l-.155-4.077M367.99 316.203l8.9-1.077M367.99 316.203l-9.11 1.1M429.426 280.456l2.797 1.118 2.892.344 1.39.393M353.984 409.988l4.318.752M353.984 409.988l-.536 3.663M353.984 409.988l.84-4.646M348.12 411.37l4.974-1.462.424-.024.466.104M363.575 291.09l.912 1.057M363.575 291.09l-2.411-2.828M423.88 353.172l-.863-.51M363.95 428.02l-.632 3.821M363.95 428.02l-4.15-.525M364.72 428.117l-.32-.04-.45-.057" clip-path="url(#p084dca674f)" style="fill:none;stroke:#000"/><path d="m364.954 421.86.11.11.007.165-1.121 5.885M340.851 435.281l3.24-.673M429.98 347.035l-1.909-1.226M405.44 281.378l-3.41 2.971M405.44 281.378l1.81 1.778M396.687 275.334l7.27 4.765 1.483 1.279M388.17 250.007l4.637.277.904.074M341.752 408.944l.99 3.869M341.752 408.944l4.98-1.325M324.736 413.084l10.86-2.518 6.156-1.622M382.46 249.907l-2.689-.034M382.46 249.907l5.71.1M385.742 258.426l-2.236-4.687-1.045-3.832M423.891 343.129l-2.526-1.568M423.891 343.129l4.18 2.68M423.891 343.129l-3.292 4.257M423.891 343.129l2.713-3.693M384.508 399.553l.529-5.814M384.508 399.553l-1.154 6.617M384.508 399.553l2.79-.069M384.508 399.553l-5.193.147M395.89 393.016l-5.15.346M395.89 393.016l-.579-7.452M395.89 393.016l.495 6.002M379.315 399.7l.591-6.097M379.315 399.7l-1.133 5.857M388.17 250.007l1.197 7.169-1.89.82-.842.337-.893.093M390.958 270.116l-1-1.279-.446-1.672-.333-1.967-.5-1.525-1.113-2.163-1.824-3.084M391.173 276.263l3.735-2.407M391.173 276.263l.463 2.531M391.173 276.263l-.384-2.622M381.949 414.19l1.405-8.02M381.949 414.19l-.92 6.113M381.949 414.19l-5.132-.749M410.534 370.283l-6.339 3.112M374.64 425.614l1.082-6.052M374.64 425.614l-4.91-.655M377.25 432.85l-1.028-1.315-1.168-1.34-.542-.578-.25-.38-.098-.394.476-3.23M380.157 426.41l-.418-.037-5.099-.76M354.683 430.562l.57-3.755M354.683 430.562l-1.16.756-4.723 3.033M354.683 430.562l3.017-1.967M399.204 291.915l2.058-1.469M399.204 291.915l1.472 1.455M399.204 291.915l-2.97-2.599M367.436 412.073l4.455.65M367.436 412.073l-.262-.053M367.436 412.073l1.11-6.118M366.327 418.192l.09-.5.607-3.345.412-2.274M405.022 327.165l-5.855-1.883M405.022 327.165l4.13 1.495M405.022 327.165l-6.254 7.894M405.022 327.165l5.832-7.497M403.305 378.293l-2.615-.536M403.305 378.293l3.852-4.234M411.508 375.116l-1.883 3.97-.16.13-.41.03-5.75-.953M366.327 418.192l-.566-.085M366.327 418.192l4.453.626M409.04 365.842l-7.403 6.95M409.04 365.842l-4.63-1.537M411.327 360.5l-1.557 3.934-.73 1.408M359.927 401.31l-.542 3.331M359.927 401.31l5.425-5.278M359.927 401.31l-3.17 3M379.771 249.873l.26 1.698M379.771 249.873l-3.007-18.875M383.653 273.485l6.548-3.013M383.653 273.485l-.752-3.391M383.106 273.683l.237-.095.31-.103M383.653 273.485l1.425 9.31M393.338 422.082l3.766 15.598M393.338 422.082l-6.411-.995M393.338 422.082l.389.076M391.349 407.812l.63 5.508.63 5.507.729 3.255M405.088 316.46l-5.01-2.957M405.088 316.46l.597.33M405.088 316.46l-2.06 2.679M405.088 316.46l3.778-4.74M396.846 294.14l.118.834M396.846 294.14l-4.786.637M396.235 289.316l-.066.553.677 4.27M391.982 407.828l-.097-.95M391.982 407.828l-.633-.016M391.982 407.828l5.093-.423M394.027 422.097l-.712-3.704-1.134-9.05-.2-1.515M393.91 309.86l3.3 1.954M393.91 309.86l.288-.338M403.499 308.646l-2.846-1.542M403.499 308.646l3.248 1.873M403.499 308.646l-3.42 4.857M375.722 419.562l1.095-6.12M375.722 419.562l5.307.74M375.722 419.562l-4.942-.744M376.817 413.441l1.365-7.884M376.817 413.441l-4.926-.718M398.92 298.012l-1.956-3.038M398.92 298.012l1.651 2.54M398.92 298.012l2.85-1.328M398.92 298.012l-4.56 2.17M390.958 270.116l-.757.356M390.958 270.116l2.093 1.984M409.151 328.66l-3.027 3.469M409.151 328.66l6.82-7.697M409.151 328.66l4.356 2.87M393.546 348.752l4.991 2.883M393.546 348.752l-.666-.292M393.546 348.752l3.101-4.2M393.546 348.752l-.414.53M354.825 405.342l-8.093 2.277M354.825 405.342l1.933-1.033M359.065 393.419l-4.1 10.952-.14.971M324.736 413.084l-11.28 2.536M329.146 432.998l-.418-.37-.278-.565-.056-.91.835-8.75v-.861l-.195-.86-1.584-3.368-.446-.787-1.056-1.647-1.212-1.796M404.195 373.395l-3.505 4.362M404.195 373.395l-2.558-.602M404.195 373.395l2.962.664M393.858 381.828l.841.626M393.858 381.828l-6.966-2.471M393.858 381.828l-3.957 4.435M393.858 381.828l4.052-4.809M386.899 424.023l.028-2.936M394.908 273.856l3.968-2.499M394.908 273.856l-1.857-1.756M394.908 273.856l1.779 1.478M386.927 421.087l.25-14.454M386.927 421.087l-5.898-.784M339.961 428.84l2.566-.568M344.092 434.608l.788 2.278M344.092 434.608l-.788-3.755M339.794 427.218l2.295-.489M385.078 282.794l-.475.165M385.078 282.794l1.057 6.715M408.098 338.533l4.772 3.206M408.098 338.533l-2.717 3.727M410.772 334.987l-1.497 1.986-1.177 1.56M376.301 388.016l-.142.72M376.301 388.016l3.925-.65M384.78 384.655l2.112-5.298M376.341 381.855l.588.195 7.85 2.605M384.116 386.726l.057-.298.057-.298.55-1.475M390.2 270.472l.589 3.169M371.599 391.747l-.215-.023M371.599 391.747l1.159-2.202M370.828 393.806l.472-1.352.299-.707M343.304 430.853l-.777-2.581M343.304 430.853l4.131-.977M343.304 430.853l-2.898.594M380.226 387.365l-.035.725M380.226 387.365l2.868-.471M375.498 393.147l4.408.456M375.498 393.147l.661-4.411M375.498 393.147l-.278 1.327M390.626 399.307l.614-.045M390.626 399.307l-3.328.177M390.626 399.307l.643 7.616M390.626 399.307l-.453-5.899M358.35 434.608l-.035-.504M358.35 434.608l-8.692 6.156M364.738 460.185l-1.546-4.893-2.654-10.177-1.68-7.353-.241-1.056-.163-1.281-.105-.817M344.92 420.167l.937 3.185M344.92 420.167l-1.023-3.566M344.92 420.167l7.542-1.92M339.516 424.613l2.143.223M357.315 423.095l2.89.454M357.315 423.095l-1.287-.202M357.659 427.176l.043-2.366-.387-1.715M400.69 377.757l-2.024-.537-.756-.2M395.9 376.394l1.682.523.328.102M400.336 374.268l-.29.33-2.136 2.421M415.122 280.898l-2.098 1.727M387.178 406.633l.12-7.149M387.178 406.633l-3.824-.463M387.178 406.633l4.09.29M357.108 416.822l-1.08 6.07M357.108 416.822l1.194-6.082M357.108 416.822l4.167.613M357.108 416.822l-4.216-.602M406.217 300.34l13.577 7.863M406.217 300.34l-1.407 1.315M412.796 293.61l-3.66 3.731-2.919 3M393.051 272.1l-2.262 1.54M393.051 272.1l4.115-2.771M397.075 407.405l-.69-8.387M486.419 397.77l-4.894-.64-5.561-.49-3.24-.332-1.64.098-1.21.381-1.112.64-2.294 1.69-.34.393-2.49 4.375-.709.83-.771.461-.876.123-1.425-.209-3.497-.682-5.756-.578-4.908.062-15.669 1.007-14.904 1.131-4.7.416-13.348.959M383.354 406.17l-5.172-.613M355.253 426.807l.775-3.914M355.253 426.807l-4.235-.648M355.253 426.807l2.406.369M424.794 277.003l4.632 3.453M424.794 277.003l-2.362 3.898M424.794 277.003l4.212-5.035M424.836 268.42l-1.26.296-1.112.701-3.156 2.078-.292.498.11.594 5.668 4.416M356.758 404.31l2.627.331M346.385 425.45l1.05 4.426M346.385 425.45l-.528-2.098M346.385 425.45l-4.726-.614M346.385 425.45l4.633.709M396.385 399.018l-5.145.244M378.875 376.566l-.684-.237M378.875 376.566l8.017 2.79M378.875 376.566l.19-.404 1.295-2.748M376.341 381.855l.264-.55 2.27-4.74M371.89 412.723l1.05-6.148M371.89 412.723l-1.11 6.095M398.297 287.626l-2.062 1.69M398.297 287.626l1.842-1.61M398.297 287.626l2.965 2.82M378.182 405.557l-4.908-.522M419.794 308.203l4.74 2.962M419.794 308.203l-5.304 6.788M400.078 313.503l-6.192 9.2M400.078 313.503l-2.867-1.69M364.025 431.989l.695-3.872M364.025 431.989l-.707-.148M368.988 428.657l-.621 2.927-.71.577-.89.148-2.742-.32M396.964 294.974l2.955-1.297M391.885 406.877l-.645-7.615M391.885 406.877l-.616.046M418.932 317.62l-4.442-2.629M418.932 317.62l-2.962 3.343M418.932 317.62l3.266-3.492M418.932 317.62l3.36 1.933M396.48 327.914l-.365.474M396.48 327.914l1.905-2.375M397.623 331.75l-.813-2.727-.33-1.109M426.768 283.576l-4.336-2.675M426.768 283.576l2.658-3.12M426.768 283.576l-.79.928M408.866 311.72l-2.119-1.2M408.866 311.72l.499.278M429.006 271.968l2.627-3.166M429.006 271.968l-4.17-3.548M369.73 424.959l-4.359-.694M369.73 424.959l1.05-6.14M369.73 424.959l-.742 3.698M364.72 428.117l4.268.54M364.72 428.117l.651-3.852M406.124 332.129l-5.512 6.664M406.124 332.129l4.648 2.858M345.857 423.352l5.812-1.011M411.327 360.5l.626-1.253M411.327 360.5l-4.652-1.429M424.535 311.165l-2.337 2.963M424.535 311.165l.768.885M405.572 287.711l-2.17 1.401M405.572 287.711l3.914-2.392M405.572 287.711l-1.756-1.635M446.12 310.11l-4.936.41M446.12 310.11l11.067-1.013M443.527 295.247l1.773 5.28 1.03 2.847.055.4-.146.153-1.571.528-.188.173.09.411 1.55 5.072M368.546 405.955l4.393.62M368.546 405.955l-.175-.028M368.546 405.955l1.014-5.598.092-.506M385.037 393.739l5.136-.331M385.037 393.739l-5.13-.136M370.828 393.806l-.303-.057M370.828 393.806l4.392.668M370.828 393.806l-1.176 6.045M398.768 335.059l-1.145-3.308M398.768 335.059l-.408.4M398.768 335.059l1.004 3.149M381.348 371.316l-.622-.215M381.348 371.316l2.543-5.318M388.867 374.206l-.325-.124-.195-.075-6.394-2.458-.605-.233M381.348 371.316l-.326.692M358.315 434.104l-.365-3.135M363.318 431.841l-.457 2.447-.223.16-.347.061-3.976-.405M375.22 394.474l-1.028 6.135M376.341 381.855l-.722-.267M376.341 381.855l-2.358 5.042M400.14 286.015l1.89-1.666M400.14 286.015l3.263 3.097M403.816 286.076l3.434-2.92M403.816 286.076l-1.787-1.727M384.207 365.336l.531.196 6.677 2.415" clip-path="url(#p084dca674f)" style="fill:none;stroke:#000"/><path d="m394.192 360.961-1.458 3.687-1.166 2.949-.153.35M388.867 374.206l.207-.505 2.34-5.754M380.157 426.41l.041-.345.83-5.762M391.24 399.262l-.5-5.9M390.173 393.408l.567-.046M389.214 386.951l.258.205.218.302.483 5.95M374.192 400.61l-4.54-.76M374.192 400.61l-.918 4.425M352.892 416.22l-.43 2.028M352.892 416.22l.556-2.569M410.854 319.668l3.636-4.677M410.854 319.668l-5.169-2.877M376.16 388.736l4.031-.646M373.361 388.91l.682.034 2.116-.208M419.599 276.804l2.833 4.097M424.831 350.203l2.498 1.346 1.129.23 1.289-.166 1.412-.503 1.028-.447 3.161-2.885 2.225-3.491M411.932 279.135l-1.519 1.288M429.693 335.28l-3.09 4.156M429.693 335.28l4.295 2.508M429.693 335.28l-4.08-2.416M363.233 424.08l-.509-.098M363.233 424.08l1.252-1.595.469-.626M359.8 427.495l.175-.135.314-.275 1.327-1.157 1.617-1.848M418.887 289.211l1.755-4.779 1.79-3.53M351.669 422.34l4.359.553M351.669 422.34l-.65 3.819M351.669 422.34l.793-4.092M371.605 428.94l-2.617-.283M373.274 405.035l-.335 1.54M357.659 427.176l1.597.245M418.887 289.211l-5.863-6.586M412.796 293.61l3.633-1.807 1.279-1.033 1.18-1.559M360.205 423.549l1.07-6.114M360.205 423.549l2.52.433M357.7 428.595l.047.424M359.256 427.42l-.136.132-1.42 1.043M400.676 293.37l4.451-.083M400.676 293.37l-.757.307M391.269 406.923l.08.89M409.486 285.319l3.538-2.694M409.486 285.319l-2.236-2.163M412.68 293.456l.058-.365.188-.944-.056-1.23-.323-1.165-.511-1.195-.834-1.18-1.716-2.058M365.352 396.032l-.59 3.118M371.029 391.686l-.626.037-.745.293-4.306 4.016M383.61 365.131l.299.103.298.102M384.207 365.336l2.847-5.912.147-.334M384.207 365.336l-.316.662M361.275 417.435l1.071-5.997M361.275 417.435l4.486.672M389.214 386.951l.687-.688" clip-path="url(#p084dca674f)" style="fill:none;stroke:#000"/><path d="m384.133 387.482 3.966-.51.432-.04.148-.015.535.034M407.25 283.156l3.163-2.733M373.049 388.992l.14-.014.172-.068M372.526 388.79l.133.109.162.07.228.023M373.049 388.992l-.291.553M396.687 275.334l-5.051 3.46M396.687 275.334l4.394-1.893M412.796 293.61l-.117-.154M403.403 289.112l-2.141 1.334M414.49 314.991l-5.125-2.993M380.191 388.09l-.285 5.513M380.191 388.09l2.97-.458M364.762 399.15l-1.154 6.107M364.762 399.15l4.297.616M391.124 288.942l4.172-.372.939.746M401.637 372.793l-1.3 1.475M397.52 375.655l-1.062-2.893-.02-.363.18-.3.459-.068 2.447.245 2.113.517M390.74 393.362l-.56-6.608-.279-.49M343.897 416.601l-1.155-3.788M343.897 416.601l5.453-1.68M344.88 436.886l.255.276M344.88 436.886l-3.132 2.018M348.8 434.351l-3.068 1.986-.303.196-.549.353M342.742 412.813l5.378-1.442M429.426 280.456l1.384-1.623M411.953 359.247l3.252-4.52M411.953 359.247l-4.154-2.343M397.52 375.655l2.816-1.387M397.52 375.655l-1.62.74M397.107 343.927l4.979 3.01M397.107 343.927l-.677-.183M397.107 343.927l2.593-3.785M397.107 343.927l-.46.624M358.302 410.74l.482-2.479M358.302 410.74l4.044.698M433.376 343.457l-2.482-1.474M359.385 404.641l1.49.23M359.385 404.641l-.601 3.62M389.901 386.263l5.41-.699M389.901 386.263l-1.027-.207-.504.071-4.254.599M363.608 405.257l-.72 3.662M363.608 405.257l4.374.618M363.608 405.257l-2.734-.386M342.527 428.272l-.438-1.543M418.661 350.093l-3.456 4.634M418.661 350.093l1.938-2.707M418.661 350.093l-4.157-2.452M418.661 350.093l4.356 2.569M393.513 323.215l.373-.512M393.513 323.215l.187.356M393.513 323.215l-1.977-3.815M411.508 375.116l-4.351-1.057M407.157 374.059l5.018-2.446.293-.037.368.092.09.24-.152.35-1.266 2.858M425.303 312.05l-.178.033-.972.516-1.955 1.529M349.658 440.764l-3.973-3.96M349.658 440.764l-2.467 1.745M369.652 399.85l-.24-.04M398.477 325.061l-4.094-1.489M398.477 325.061l.69.22M398.477 325.061l-.092.478M398.477 325.061l2.623-3.412M341.659 424.836l.43 1.893M362.346 411.438l.543-2.52M362.346 411.438l4.515.55M420.599 347.386l-3.774-2.808M424.831 350.203l-1.061-.572-3.171-2.245M415.205 354.727l-4.067-2.45M348.8 434.351l.336.264M348.8 434.351l-1.365-4.475M357.95 430.97l5.368.871M357.807 429.795l.117.816.026.358M353.448 413.651l-4.098 1.27M426.604 339.436l-2.474-1.52M426.604 339.436l4.29 2.547M374.107 329.913l-2.816.519M374.107 329.913l-2.434-2.802M374.107 329.913l3.097 3.268M361.757 332.01l.74 4.406M361.757 332.01l-1.541-6.598M361.757 332.01l4.595-.759M361.757 332.01l-6.335 1.112M418.242 334.298l-4.735-2.768M418.242 334.298l4.269 2.623M418.242 334.298l3.002-4.038M418.242 334.298l-2.723 3.635M347.122 362.578l-5.796-.568M347.122 362.578l-.528 3.774M352.92 363.106l-2.899-.264-2.899-.264M410.218 345.113l-4.837-2.853M410.218 345.113l4.286 2.528M410.218 345.113l2.652-3.374M410.218 345.113l-3.322 4.753M362.326 372.099l-6.259-.565M362.326 372.099l4.839.428M362.326 372.099l-2.01 4.92M365.438 364.236l-1.285 3.392-1.827 4.47M367.165 372.527l-2.178 5.476M367.165 372.527l4.747 1.637M369.34 367.187l-.208.51-1.967 4.83M346.594 366.352l-5.88-.566M346.594 366.352l-.042.335M346.594 366.352l5.826.578M397.623 331.75l-.528-.166M371.291 330.432l.788 4.493M371.291 330.432l-4.94.819M380.67 290.164l.927 5.91M380.67 290.164l4.928-.602M380.67 290.164l-5.118.71M362.194 384.986l-1.981 5.569M366.955 386.192l-4.284-1.084-.477-.122M357.473 383.845l4.28 1.035.44.106M364.987 378.003l-2.57 6.426-.223.557M419.726 340.544l-4.207-2.61M419.726 340.544l1.64 1.017M419.726 340.544l-2.9 4.034M419.726 340.544l2.785-3.623M376.562 324.258l3.674 1.245M376.562 324.258l-7.312-2.596M377.438 319.423l.173 2.13-1.05 2.705M360.149 349.68l-7.432-.831M360.149 349.68l4.34.299M360.149 349.68l-.201-2.742M386.945 295.39l-.528.096M386.945 295.39l5.115-.613M386.945 295.39l-.81-5.881M387.583 299.39l-.52-2.95-.118-1.05M348.426 348.367l4.29.482M411.138 352.277l-3.34 4.627M411.138 352.277l3.366-4.636M411.138 352.277l-4.242-2.411M416.43 327.405l4.814 2.855M416.43 327.405l-2.923 4.125M416.43 327.405l3.228-4.324M382.56 314.298l1.294 1.578M382.56 314.298l-5.205-6.343M382.56 314.298l-5.67.828M376.885 334.054l-1.65 5.02M376.885 334.054l.319-.873M376.885 334.054l-4.806.871M362.497 336.416l4.59-.637M362.497 336.416l-5.16.77M422.51 336.921l1.62.994M422.51 336.921l3.102-4.057M370.987 291.384l.938 5.926M370.987 291.384l4.565-.51M370.987 291.384l-6.5.763M382.05 299.226l-.453-3.152M387.387 302.135l-4.476-2.955-.861.046M365.438 364.236l1.877-4.56M370.27 364.727l-.514-.053-1.373-.139-1.888-.191-1.057-.108M359.037 363.66l.775.07 5.626.506M348.915 346.632l3.793.105M383.854 315.876l.418.509M382.569 318.919l1.004-2.47.281-.573M370.715 350.517l1.3-3.172M370.715 350.517l-6.226-.538M370.715 350.517l-1.272 3.351M369.25 321.662l-.383-1.416M351.099 382.786l-2.475 4.684M351.099 382.786l3.321-6.75M351.099 382.786l6.374 1.06M351.336 375.49l-3.074 6.03-.07.516.182.259 2.725.491M377.204 333.18l.849-2.322M377.204 333.18l3.926 4.37M367.315 359.676l-5.9-1.745M367.315 359.676l4.458 1.464M367.315 359.676l2.128-5.808M371.673 327.111l7.627.498M375.306 305.272l.262 2.107M375.306 305.272l1.46 1.965M375.306 305.272l-1.145-1.186M388.034 303.056l.532-.135M388.034 303.056l-.093-.574M388.034 303.056l-.508.095M388.346 305.205l-.232-1.559-.08-.59M364.487 292.147l2.438 3M376.088 311.098l-8.253 1.028M376.088 311.098l-.52-3.72M376.088 311.098l.801 4.028M374.161 304.086l2.437-1.485M367.942 308.378l-.107 3.748M367.942 308.378l7.626-1M415.52 337.933l-4.748-2.946M415.52 337.933l-2.65 3.806M401.77 296.684l1.868-.849 1.489-2.548M412.68 293.456l-.939-.15-6.614-.02M375.568 307.379l1.198-.142M359.79 344.777l6.293 1.24M359.79 344.777l-.064-3.453M359.79 344.777l.158 2.16M367.087 335.78l4.992-.855M367.087 335.78l-.735-4.529M367.087 335.78l.71 4.462M388.867 374.206l-.148.386-.376.981-1.45 3.784M352.14 316.637l.684 3.97M371.773 361.14l2.747-6.679M371.773 361.14l5.377 1.786M370.27 364.727l.2-.477 1.303-3.11M373.983 386.897l.076.028M373.983 386.897l-.632-.238M373.983 386.897l-.5 1.155M384.116 386.726l-1.022.168M384.133 387.482l-.035-.356.018-.4M368.867 320.246l8.571-.823M353.774 326.777l6.442-1.365M353.774 326.777l-.95-6.17M356.493 328.588l-1.905.43-.34-.117-.474-2.124M376.89 315.126l.548 4.297M352.42 366.93l.5-3.824M352.42 366.93l-.044.334M352.42 366.93l5.101.526M377.438 319.423l5.13-.504M358.589 313.413l.29 3.89M358.589 313.413l-.217-3.854M358.589 313.413l9.246-1.287M366.083 346.017l1.018-2.899.577-1.875.118-1.001M394.36 300.183l-5.794 2.738M394.36 300.183l1.744 2.56M350.75 321.013l2.074-.406M404.41 364.305l2.265-5.234M404.41 364.305l-4.83-1.555M387.941 302.482l-.554-.347M387.941 302.482l-.358-3.091M376.766 307.237l.589.718M392.06 294.777l-.936-5.835M359.948 346.938l-7.24-.2M381.13 337.55l-.222.516M381.13 337.55l1.756-4.869M388.582 340.803l-6.11-2.387-.661-.313-.681-.553M369.34 367.187l.93-2.46M374.264 368.98l-4.202-1.53-.722-.263M366.083 346.017l5.932 1.328M366.083 346.017l-1.594 3.962M384.133 387.482l-.972.15M352.708 346.737l.009 2.112M364.49 349.979l-1.406 3.392M387.583 299.39l-.585.18M347.525 352.188l5.335.464M361.415 357.931l-1.7-.356M361.415 357.931l1.669-4.56M402.086 346.937l.046-.06.156-.227 3.093-4.39M405.381 342.26l-4.565-2.591M391.124 288.942l-4.989.567M382.886 332.681l2.128-5.276M382.886 332.681l-4.833-1.823M382.886 332.681l8.122 3.019M359.037 363.66l-4.554-.412-1.563-.142M377.749 363.125l-.599-.2M377.749 363.125l.439.15M377.749 363.125l-.262.558M377.749 363.125l.222-.465M385.014 327.405l8.505 2.996M385.014 327.405l-4.778-1.902M385.014 327.405l2.536-7.024M369.443 353.868l5.077.593M369.443 353.868l-6.36-.497M403.53 354.476l3.366-4.61M403.53 354.476l-1.708 3.012M403.53 354.476l4.269 2.428M403.53 354.476l-4.993-2.841M369.852 379.643l-.494-.167M369.852 379.643l.374.126M369.852 379.643l-.173.39M369.852 379.643l.16-.33M372.418 374.338l-.506-.174M372.418 374.338l.399.138M372.418 374.338l-.17.352M372.418 374.338l.192-.399M413.507 331.53l-2.735 3.457M401.822 357.488l-2.242 5.262M401.822 357.488l4.853 1.583M401.822 357.488l-5.454-1.825M406.675 359.071l1.124-2.167M387.55 320.38l-3.278-3.995M387.55 320.38l1.951-4.929M383.869 357.316l-1.996-.752-.168-.063-.673-.254M374.52 354.461l5.766 1.581.285.078.461.127M377.97 362.66l2.716-5.686.346-.727M382.991 351.428l-.05.115-.138.357-1.62 3.979-.15.368M354.42 376.036l1.647-4.502M354.42 376.036l-3.084-.546M354.42 376.036l5.896.983M386.135 289.509l-.537.053M357.337 337.186l-2.388.367-.277.156.062.295 4.992 3.32M356.067 371.534l1.34-3.76M356.067 371.534l-4.15-.366M412.87 341.739l3.955 2.839M380.908 338.066l-2.182 5.4M380.908 338.066l-5.673 1.008M421.244 330.26l4.368 2.604M421.244 330.26l3.248-4.194M352.86 352.652l3.227.24M352.86 352.652l-.143-3.803M359.715 357.575l-6.461-.836-.292-.209-.153-.234.05-3.644M357.521 367.456l-.113.318M357.521 367.456l1.516-3.797M371.925 297.31l4.623-.582M399.58 362.75l-1.155 2.507M399.58 362.75l-5.388-1.789M358.372 309.56l-.339-3.416M406.896 349.866l-4.81-2.93M393.519 330.401l-2.511 5.299M393.519 330.401l.94-2.872M393.519 330.401l3.576 1.183M398.537 351.635l3.549-4.698M398.537 351.635l-2.17 4.028M378.053 330.858l1.247-3.25M351.336 375.49l.582-4.322M351.336 375.49l-5.608-1.155M414.504 347.641l2.321-3.063M346.104 370.594l-.376 3.74M346.104 370.594l-5.828-.583M346.104 370.594l5.814.574M382.569 318.919l-2.333 6.584M363.084 353.37l-3.84-.247M394.192 360.961l-6.62-2.277M394.192 360.961l2.176-5.298M396.368 355.663l-6.086-2.15M375.552 290.875l.996 5.853M389.298 312.585l-.437.337M389.298 312.585l-.4-3.14M389.298 312.585l4.304-3.5M374.13 342.049l4.596 1.416M374.13 342.049l-2.115 5.296M374.13 342.049l1.105-2.975M359.037 363.66l.678-6.085M399.92 293.677l1.85 3.007M358.033 306.144l3.179-.355M379.3 327.609l.936-2.106M376.913 348.947l5.858 2.077M376.913 348.947l-4.898-1.602M376.913 348.947l-2.393 5.514M376.913 348.947l1.813-5.482M388.582 340.803l-2.502 5.36M388.582 340.803l2.426-5.103M396.43 343.744l-3.636-1.291-4.212-1.65M357.473 383.845l-2.05 5.346M357.473 383.845l2.843-6.826M360.316 377.02l4.67.983M395.9 376.394l-6.612-2.057-.421-.13M404.81 301.655l-1.402-2.411M378.726 343.465l7.354 2.697M386.08 346.162l6.8 2.298M386.08 346.162l-2.865 4.703M364.987 378.003l4.37 1.473M374.858 369.195l.433.14M374.858 369.195l-.594-.216M374.858 369.195l-.208.44M374.858 369.195l.206-.41M340.713 365.786l-.035.336M340.713 365.786l.613-3.776M340.276 370.011l.402-3.89M345.728 374.335l-5.307-1.063-.264-.209-.125-.221.244-2.83M381.597 296.074l-5.05.654M381.597 296.074l4.82-.588M316.276 359.43l12.744 1.313 9.798 1.009 2.508.258M345.728 374.335l-.764 1.77M425.612 332.864l3.123-4.273M391.008 335.7l8.083 3.092M366.955 386.192l5.641 1.825M369.679 380.033l-.232.525-2.362 5.34-.13.294M415.11 158.122l-22.266 20.416M415.11 158.122l14.363-12.705M472.321 224.976l-3.851-3.092-1.703-1.42-3.066-3.947-1.376-2.416-.704-.861-.875-.738-3.774-1.87-2.28-1.456-6.375-5.083-.723-.905-.257-.697.201-1.104.23-.91-.271-1.009-1.217-1.847-2.954-3.895-2.516-2.908-12.639-17.286-3.913-4.768-1.467-1.506-2.079-1.519-2.815-2.754-.436-.596-2.35-4.267M371.585 198.62l-.841-6.315M371.585 198.62l4.47 27.796M392.844 178.538l-5.902 5.266-13.201 12.497-2.156 2.32M316.276 359.43l-36.702-3.78-1.579-.251-1.445-.338-2.239-.627-1.578-.338-8.835-1.359-.8-.024M251.114 375.86l2.168-5.753 4.568-12.127.218-.438.442-.89 3.02-2.842.894-.71.674-.387M260.832 316.405l.494 6.233.611 5.212.494 4.192.201 3.787.021 3.687.257 2.133.014 1.235.132 4.746v3.497l.042 1.586M246.442 387.04l.682-1.056.995-2.222 1.693-4.775 1.302-3.127" clip-path="url(#p084dca674f)" style="fill:none;stroke:#000"/><path d="m263.064 371.748-1.196.381-.689.295-.785.695-.438.43-.716.338-1.96.706-1.19.67-1.257.756-.925.283-.883-.055-1.911-.387M249.562 399.813l-2.636-11.03-.484-1.743M231.284 360.577l2.332 2.812 4.24 5.863 3.908 6.405 2.863 6.195 1.815 5.188M358.784 408.261l1.394.24M362.889 408.919l-2.711-.418M360.178 408.5l.696-3.629M383.869 357.316l2.878 1.162M383.869 357.316l2.507-5.013M386.376 352.303l2.412.765M386.376 352.303l-2.897-1.027M386.547 358.074l1.134-2.322M386.547 358.074l-1.617-.618M386.424 357.053l-.183.363.306.658M388.794 353.476l.402.128M388.794 353.476l-1.057-.4M388.794 353.476l-1.113 2.276M346.732 407.62l1.388 3.75M348.12 411.37l1.23 3.55M279.497 412.385l15.912 4.812 3.052.805M313.456 415.62l-10.004 2.309-2.655.172-2.336-.099" clip-path="url(#p084dca674f)" style="fill:none;stroke:#000"/><path d="m298.378 408.563.041.565.125 1.893.028 5.53-.11 1.451M259.045 406.46l-2.182-.688-1.683-.885-1.279-.811-.904-.86-1.362-1.71-.626-.638-1.447-1.055M356.016 355.563l.07-2.67M356.087 352.893l3.158.23M359.047 355.982l.198-2.86M304.995 464.867l-.645.757-.091.26-.042.322M304.995 464.867l-.389.081-.343.059-.362.018-.292-.004-.3-.01-.298-.044-1.027-.24M307.816 461.796l-.634.71-1.7 1.933-.487.428M305.6 465.124l.269-.47 2.285-2.665M304.55 466.41l.234-.126.284-.265.532-.895M306.58 467.565l-.457-.714-.293-.625-.14-.625-.09-.477M329.146 432.998l8.286-7.768.834-.837.25-.909v-.934l-.055-.91M362.724 423.982l-1.182 1.354-.382.43-1.904 1.655M365.76 418.107l-.118.482-.515 1.78-.96 1.646-1.443 1.967M366.86 411.989l-.414 2.308-.599 3.327-.086.483M366.86 411.989l.314.031M366.86 411.989l1.122-6.114M367.982 405.875l.389.052M367.982 405.875l1.077-6.11M369.059 399.766l.354.044M370.233 393.708l-1.029 5.3-.145.758M370.233 393.708l.292.041M370.233 393.708l.796-2.022M371.029 391.686l.355.038M371.029 391.686l1.206-2.334M372.596 388.017l-.126.138-.072.165-.01.177.045.155.093.138M372.596 388.017l.177-.098M373.483 388.052l-.11-.083-.19-.076-.208-.017-.202.043M372.526 388.79l-.291.562" clip-path="url(#p084dca674f)" style="fill:none;stroke:#000"/><path d="m373.35 386.659-.286.64-.291.62M396.43 343.744l-.37.492M396.43 343.744l2.712-3.887M392.88 348.46l-.367.5M392.88 348.46l3.18-4.224M389.364 353.251l-.576-.183M389.364 353.251l-.168.353M389.364 353.251l3.15-4.29M383.61 365.131l-.301.625M378.188 363.275l4.958 1.697.464.16M386.715 358.912l-.064.135-3.04 6.084M380.726 371.101l-.35.721M375.291 369.336l4.914 1.596.521.17M380.726 371.101l2.583-5.345M372.817 374.476l5.018 1.73.356.123M378.19 376.33l-2.307 4.719-.264.539M379.723 373.172l-1.275 2.68-.257.477M375.62 381.588l-2.27 5.07M370.226 379.77l5.17 1.742.223.076M399.479 338.94l-.388-.148M399.479 338.94l-.038.09-.013.095.012.096.059.124M399.479 338.94l-.12-.378M400.357 339.101l.255-.308M399.499 339.345l-.357.512M399.499 339.345l.1.1.133.068.15.025.15-.019.136-.06M400.168 339.458l-.468.684M382.9 270.094l.206 3.589M383.106 273.683l1.497 9.276M384.603 282.959l.995 6.603M385.598 289.562l.687 5.03.132.894M386.417 295.486l.581 4.084M387.387 302.135l.14 1.016M386.998 299.57l.194 1.34.195 1.225M388.86 312.922l.246 1.642.395.887M388.393 309.493l.228 1.674.24 1.755M389.501 315.451l2.035 3.949M395.106 326.15l-.647 1.379M395.106 326.15l1.009 2.238M395.106 326.15l-1.406-2.579M397.095 331.584l1.265 3.875M396.115 328.388l.227.725.753 2.47M394.383 323.572h-.683M394.383 323.572l-.497-.869M393.886 322.703l-1.818-3.52M377.355 307.955l.906-.179M387.89 305.817l.535-.089M387.89 305.817l.503 3.676M387.89 305.817l-.139-1.017M388.425 305.728l-.079-.523M388.425 305.728l.473 3.717M376.598 302.601l1.663 5.175M387.751 304.8l.595.405M387.751 304.8l-.225-1.65M388.346 305.205l5.256 3.88M394.198 309.522l-.596-.438M355.423 389.19l-1.627 3.835M355.423 389.19l4.79 1.365M355.423 389.19l-6.799-1.72M360.213 390.555l-1.148 2.864M376.764 230.998l-1.675-1.546M376.764 230.998l-.367-2.367M258.745 178.798l1.176.554 1.662.356 2.245-.252 2.21-.566 2.691-.731 2.287-.142 2.023.295 1.884.277 2.366.73 2.229 1.164 1.902 1.446 7.844 8.963 1.662 1.823 1.418 1.3 5.908 4.63 2.462 1.715 1.953.689 8.936 2.474 1.227.615 4.671 3.053 2.61 1.427 2.438.933 5.137 1.291 1.849.27 1.759-.104 9.3-2.54 5.051-1.029 3.549-.445M361.2 215.977l-4.241-6.31-1.077-.878-1.38-.767-1.06-.37-2.023-.403-2.225-.255M370.744 192.305l-.796-.23-.858.059-1.308.62-6.59 4.747-11.998 9.493" clip-path="url(#p084dca674f)" style="fill:none;stroke:#000"/><path d="m262.34 145.504-.792 4.163-2.913 12.906-1.07 7.107-.08 6.936.33 1.097.466.732.464.353" clip-path="url(#p084dca674f)" style="fill:none;stroke:#000"/><path d="m252.094 199.34 4.317-12.352 2.334-8.19M472.007 229.771l.502-2.877.09-1.032-.278-.886M481.044 219.072l-3.415 1.21-1.68.735-.98.676-2.648 3.283M472.007 229.771l9.037-10.699M450.504 250.053l1.112-.84 9.68-8.615 9.313-9.391 1.398-1.436M363.737 460.357l-26.041 4.584-1.668.418-1.297.545-17.285 9.07M342.09 519.7l-.399-.587-3.702-7.703-10.384-24.116-3.722-5.596-4.276-4.8-2.161-1.924M264.023 455.232l.43 1.204 1.35 2.261 1.5 1.598 2.142 1.488 5.714 3.367 10.303 7.177 4.854 2.957 5.573 2.426 1.182.8 2.155 1.634 1.46.516 2.043.16 1.14.147 2.503.775.584.098.876-.037 4.435-2.433 1.349-.775 1.928-1.718 1.902-1.903M412.345 451.524l-3.4.58M401.105 453.474l4.35 15.78M401.105 453.474l-36.367 6.71M401.105 453.474l.587-.135M401.105 453.474l-4-15.794M407.35 475.364l1.46 5.775M407.35 475.364l.145-1.318-1.335-4.96M405.456 469.253l1.187 4.85.706 1.26M401.692 453.34l-2.018-8.14M401.692 453.34l7.253-1.236M401.692 453.34l4.468 15.745M394.027 422.097l-.3.061M394.027 422.097l1.88 7.909M421.47 506.966l-.229-3.07-.14-1.09-.972-3.164-.698-2.015-.656-1.074-1.38-2.26-4.024-4.428-1.675-2.12-1.557-2.747M408.81 481.14l.571 2.1.758 1.758M537.943 459.137l-7.533 1.898-44.294 8.817-30.562 6.015-31.227 6.428-2.225.331-2.161.216-8.35 1.714-1.452.442M388.623 325.459l5.836 2.07M408.945 452.104l-2.12-8.425M406.16 469.085l6.391-1.28.348-.258.153-.467-4.107-14.976M406.16 469.085l-.704.168M212.514 274.882l-3.96 7.017M229.687 209.89l-.394 2.36-1.245 8.066-2.26 15.437-.91 4.562-.92 4.355-1.047 4.091-.96 3.136-2.287 7.032-2.266 5.625-3.506 7.887-1.378 2.441M144.629 250.248l.797-.058 10.647 2.142 4.342.242 2.742 2.02 6.671 4.689 12.888 5.577 10.922 5.455 9.322 2.829 6.17 1.253 3.384.485M160.352 184.786l5.72.182M134.591 187.517l1.326.143 3.48.554 4.354 1.475 4.37-1.22 9.562-2.593 2.669-1.09M231.065 202.598l1.025-3.887 1.846-7.53 2.162-7.526M248.1 146.583l-.288 1.54-.71 3.309-2.182 7.556-5.089 14.006-2.906 8.276-.827 2.385M208.523 200.566l6.327 2.83 5.666 2.377.855.16.82-.05 1.707-.525 2.836-1.186 1.738-.462.87-.356.542-.394.389-.768 4.341-15.995.455-.845 1.029-1.697M233.019 202.573l1.008-.175 3.611-1.013 10.674-1.618 3.782-.428" clip-path="url(#p084dca674f)" style="fill:none;stroke:#000"/><path d="m232.268 285.818 2.572-8.041.677-2.849.845-4.767.507-3.064.884-6.145.472-2.514.55-1.648 1.635-2.923.418-.827 1.721-3.584 1.48-2.182 9.907-11.49 1.349-1.715 1.897-2.951 4.2-6.96.275-.833-.116-1.183-.869-5.201-.493-1.537-.553-1.116-1.15-1.608-1.016-1.143-4.376-3.83-1.852-1.796-.417-.928-.098-1.217.209-1.273 1.168-3.154M231.065 202.598l1.954-.025M229.687 209.89l.252-1.504 1.126-5.788M248.524 283.857l-1.505-.529-.8-.055-1.258.504-1.751.651-1.579.369-3.795.756-2.454.258-3.114.007M208.554 281.899l2.574 2.056.768.612 3.118 3.26 1.817 1.02.89-.014 1.297-.347 3.622-1.722 1.112-.267 2.641-.255 1.516-.093 4.359-.331" clip-path="url(#p084dca674f)" style="fill:none;stroke:#000"/><path d="m260.832 316.405-2.69.494-2.573.293-.528-.111-.292-.209-.32-.867-1.348-19.774-.164-4.749-.18-1.743-.334-1.429-.542-1.103-.448-.756-.553-.612-2.336-1.982" clip-path="url(#p084dca674f)" style="fill:none;stroke:#000"/><path d="m250.65 279.961-1.198.767-.27.615-.658 2.514M274.76 314.02l-12.677 2.151-1.25.234M166.072 184.968l.82.026 8.406 1.97 33.225 13.602M144.629 250.248l-.122-1.044.7-5.327 1.275-1.635 4.718.536 2.773-.395 2.167-5.327 5.482-.62 3.793-.79 8.16-2 2.581-1.664 6.248-8.062 5.1-5.384 3.44-1.521 6.817-2.319 7.045-3.448 3.31-2.87.407-7.812M156.86 515.78l-26.202-18.915-22.056-15.763-7.871-5.788 1.083-.513 32.47-21.827 23.22-15.258 3.174-3.695 1.703-4.414 3.83-12.557 4.065-13.309 6.75-23.407M200.401 387.912l-11.664-3.757-11.711-3.821M309.236 564.238l3.35.504 1.391-.074 15.739-1.437.903-.062.848.258 1.752.75.806.147 15.445-.854" clip-path="url(#p084dca674f)" style="fill:none;stroke:#000"/><path d="m348.47 567.543.562-2.52.438-1.553M345.887 525.304l4.83 7.127 2.593 4.515.945 3.723.194 2.691-.32 3.367-4.659 16.743M300.338 547.944l.472.75-.333 6.07-.236 5.431.236 1.045.584.712 1.363.504 3.212.65 3.6 1.132M305.482 575.224l-.389-1.29.097-.504.904-1.032.931-1.143.598-.726 1.446-3.182.07-.516.028-1.253.069-1.34M414.616 505.497l6.854 1.47M421.47 506.966l.251 12.186M376.397 228.631l-.342-2.215M376.397 228.631l-1.308.82M361.2 215.977l.748 1.113.572.761 1.644 1.626 4.175 3.39 1.793 1.58 2.044 2.085 2.913 2.92M521.26 378.343l-12.373 6.582-7.355 3.958-1.933 1.094M486.419 397.77l4.713.627 5.423.406.778-.32.292-.688.514-3.307.473-2.851.32-.849.667-.811M484.82 375.35l1.238-.922.277-.013.57.062 2.642 1.93 1.919 1.512 6.604 5.531 2.641 2.237.237.467-.028.615-.904 2.126-.368.726-.063.178.014.178M626.34 327.708l1.92 1.076 3.114 5.311.89 3.639 3.559 3 1.446 1.573-2.78 1.278-1.224 2.459-2.614 3.639-1.501.639-2.892 1.18-1.168 2.016-.778 3.884.333.59 2.391 1.131-.5 2.508.778 3.245-.333 1.279-6.256 7.006-4.339 4.696-3.336 3.762-10.205 12.12-1.001.245-.862-.147-.612-.762-.723-2.016-2.864-4.4-1.696-2.164-1.863-1.082-1.724-.516-1.863.05-.668.27-1.029.712-2.78 7.105-2.002 4.5-.862 1.032-3.476 1.77-3.698 1.819-4.06 1.155-4.922 2.213-3.226 1.794-8.202 2.876-4.81 1.599-1.697.442-1.084.221-1.53-.344-1.029-.934-2.975-2.9-.973-3.147-3.059-6.638-1.223-3.049-8.009-8.137-5.227-5.55-1.835-1.413M536.817 336.971l-1.033.365-2.094 6.721-5.928 16.189-5.556 16.013-.945 2.084M156.86 515.78l6.119 4.418 17.558 12.545M245.156 544.294l-42.336-2.654-10.687-.91-2.523-1.504-9.073-6.483" clip-path="url(#p084dca674f)" style="fill:none;stroke:#000"/><path d="m163.137 546.426 5.288-.107 7.706-1.816 3.203-9.828 1.203-1.932M156.86 515.78l-10.252 15.77-7.978 12.312-.907.374M279.497 412.385l-20.452-5.924M268.75 432.936l.618-.369.327-.086 2.434-.16.402-.122.265-.382 6.7-19.432M268.75 432.936l-3.168-3.972M296.788 461.772l-3.04-2.104-3.142-2.212-2.96-2.56-9.08-9.632-9.816-12.328M264.023 455.232l1.835-2.582 1.488-1.548.333-.504.181-.7.336-3.066 2.681-8.611.014-.455-.14-.467-2.237-2.999-.105-.38.035-.357.306-.627" clip-path="url(#p084dca674f)" style="fill:none;stroke:#000"/><path d="m245.156 544.294.96-39.202.194-3.183.139-.577.598-.517.862-.184 3.893.062.875-.43.306-.492.155-.849.346-10.593.598-9.88.653-20.354.695-1.143.89-.75 1.293-.774 1.307-.393 2.044-.172 3.059.369M363.737 460.357l1-.172M361.502 483.222l.4-2.673.89-2.285.245-.877-.232-.77-.43-.627-2.306-1.59-.295-1.077.153-1.057.779-2.188.778-3.7 1.683-4.989.57-1.032M560.58 318.278l-13.655-9.736-1.634-.286-1.424-.153-1.557-.13-1.978-1.344-2.645-1.22-7.494-2.392-2.808.148-.945-.191-2.89-1.594-4.382-1.363-2.67-.787-1.442-.304-.82.053-1.616.55-1.69.94-2.62 3.42-.48.886-1.168 4.143-.945 1.279-1.029.793-1.905.99-6.09 2.606-2.891 1.13-.842.21-2.718-.111M472.76 311.032l3.579 2.189 2.239.344 4.435.025 1.807.344 5.422 1.88" clip-path="url(#p084dca674f)" style="fill:none;stroke:#000"/><path d="m499.75 320.529-3.21-1.481-6.298-3.233M562.441 319.606l-1.862-1.328M536.817 336.971l.325-.115 7.058 2.641 11.011 3.786 1.891-.59 3.337-10.547.667-3.246 1.335-9.294" clip-path="url(#p084dca674f)" style="fill:none;stroke:#000"/><path d="m626.34 327.708-3.95 1.216-1.632.046-9.97-1.163-12.225-1.699-7.97-5.643-2.301-1.605-3.314.634-7.135 2.781-3.356-.205-7.154-1.041-4.892-1.423M442.235 255.973l9.308 3.611M431.633 268.802l3.184-3.854 6.146-7.593 1.272-1.382M450.504 250.053l-4.903 2.97-2.455 1.915-.911 1.035M450.504 250.053l.736 7.696.303 1.835" clip-path="url(#p084dca674f)" style="fill:none;stroke:#000"/><path d="m539.876 244.285-2.448 3.932-7.2 1.547-.653.338-1.224.882-2.117 2.278-.493.202-.522-.08-3.034-2.197-.553-.437-2.464-3.101-.438-.433-.678-.283-2.589-.49-.953-.294-1.154-.75-.848-.252-1.494-.234-.848.117-1.982.916-1.55.873-1.53 1.18-1.132.332-1.036-.006-1.87-.56-4.616-2.495-.82-.13-.674.21-.834.845-1.026.959-1.56.858-1.544.633-1.248.402-1.358.298-4.418.424-.817.204-.563.328-2.42 2.853-.973.753-1.119.842-1.043.88-1.223.933-.834.277-2.614.419-2.92.67-1.265.405-1.258.67-3.19 1.617-3.713 1.764-.577.148-1.217-.203-5.68-2.745M400.82 239.401l.24-2.184.4-4.706.449-5.302 1.199-4.574 4.097-1.945 9.594 2.961h1.1l14.09-6.319 9.493 8.794 6.135 5.949 1.1 3.741 1.787 14.237M400.82 239.401l-6.639 1.317-5.5-3.18-1.946-4.078-1.708-4.793-.769-1.607-.243-.289-.584-.178-7.376-.177" clip-path="url(#p084dca674f)" style="fill:none;stroke:#000"/><path d="m400.82 239.401.342-.068.635.562-.381 3.966 2.03 4.303 3.597-.45 1.1 2.133 1.946-.411 24.37-5.126M376.372 247.83l.893 1.251.062.387-.014 1.562.202.32.41.332.445.012 1.662-.123M274.76 314.02l-.463-5.028-1.946-22.467-.536-6.547M231.284 360.577l2.124-5.676.862-2.126 2.972-9.993M231.284 360.577l-15.879-17.182M259.045 406.46l4.241-12.488 2.516-6.244 2.59-7.734.212-.22.361-.036 3.893 1.05.431.198.827.639.66.454.69.179.937-.019M403.848 498.1l2.447-1.734.486-.368.083-.504-.18-.455-1.877-1.4-1.307-1.451-.632-1.192-.3-1.204.07-1.18.39-1.192.861-1.512.556-.529 2.295-2.027 2.07-2.213M499.75 320.529l5.063 2.336 10.49 5.132 2.625.801 1.289.325 1.015.374 4.463 2.182 10.801 4.547 1.321.745M511.883 192.232l3.774-.916 9.701-1.936M563.906 183.595l-6.348-1.123-32.2 6.908" clip-path="url(#p084dca674f)" style="fill:none;stroke:#000"/><path d="m509.498 140.399 1.606 3.863 2.107 6.187 8.786 28.497 3.361 10.434M509.498 140.399l-11.734.29-10.292.422-4.05.35-4.326.21-8.954.716-11.21.492-5.63.246-23.829 2.292M560.58 318.278l3.645-4.733 7.424-7.594-.348-1.106-5.667-4.304-.974-1.046 1.495-4.304 3.616-4.642 9.08-11.59 15.043-5.647 2.694-2.007 2.119-2.971-.424-5.059 1.967-6.96-.787-2.863-7.93-18.229-4.544-10.732 2.085-4.128.156-1.404-1.245-2.091-5.54-2.642-6.472-5.34-1.68-3.082-.062-4.843-.81-4.239-5.103-5.56-4.412-7.567M481.71 218.404l-.666.668M511.883 192.232l-5.624 1.617-2.183.854-1.932 1.156-2.197 1.765-4.421 4.667-13.817 16.113M515.456 203.391l-2.301 1.365-.626.344-.883.455-2.707 1.079-6.9 3.181-10.858 4.68-9.472 3.909M511.883 192.232l.431 6.26.153 2.206.2 1.068.398.537.75.412 1.64.676" clip-path="url(#p084dca674f)" style="fill:none;stroke:#000"/><path d="m536.415 221.06-.083-3.467-.25-1.648-.696-1.55-.973-.786-5.589-2.386-2.475-1.77-3.337-3.222-1.807-1.5-1.78-.64-3.97-.7M300.338 547.944l-.723-.246-3.434-.369-7.897-.491-6.684-.252-20.497-1.088-15.947-1.204M422.098 537.413l1.061 51.512-1.766-.025-2.112-.356-1.53-.308-4.685-.123-1.753.21-5.964 2.408-1.89.995-3.157 1.868-5.444 2.193-2.425.043-2.822-.332-5.659-1.143-5.936-2.064-8.579-4.276-1.766-1.069-7.605-5.898-.834-.467-10.817-3.576-.444-.343-.181-.443 1.55-6.906-.014-.393-.139-.344-.716-1.033M304.217 466.206l-2.233-1.479M304.217 466.206l.334.204M304.55 466.41l2.03 1.155M301.984 464.727l-4.468-2.754-.728-.2M394.7 382.454l.333.812.278 2.298M427.244 322.531l-2.752 3.535M427.244 322.531l-4.951-2.978M427.244 322.531l4.216 2.48M430.848 317.438l-2.006 2.763-1.598 2.33M428.735 328.59l2.725-3.58M428.735 328.59l-4.243-2.524M357.807 429.795l.841.074 1.057.08M434.254 315.397l-1.599.024-.25.135-1.557 1.882M422.293 319.553l1.389-1.86 2.327-3.218 4.839 2.963M434.24 325.486l-1.571.004-.473-.037-.736-.442M424.492 326.066l-4.834-2.985M415.97 320.963l3.688 2.118M419.658 323.08l2.635-3.527M342.09 519.7l3.797 5.604M345.887 525.304l-1.106-.04-1.507-.286-.888-.69-.753-1.284-.027-.88.216-1.164.267-1.26M400.485 185.625l-6.062-5.787-1.58-1.3M206.813 333.604l7.486 8.594M203.023 346.26l2.751-10.373 1.04-2.283M214.3 342.198l1.105 1.197M214.3 342.198l-.64 1.827M200.401 387.912l7.008-24.437 6.251-19.45M215.405 343.395l-1.048.329-.697.301M214.458 392.608l-5.353-1.906-8.704-2.79M237.092 405.49l.459-.529.445-.27.375-.05 2.795.332.612-.135.82-.443.352-.526 1.026-2.299M214.458 392.608l18.616 5.297 4.491 1.279 6.411 2.386M265.582 428.964l-3.923-4.582-3.823-5.163-2.392-4.585" clip-path="url(#p084dca674f)" style="fill:none;stroke:#000"/><path d="m248.091 423.935 1.528-5.527.25-.418.264-.27 3.532-1.635.473-.344 1.306-1.107M262.215 436.439l.904-1.02.347-.701.848-3.773.376-.947.892-1.034M424.13 337.915l-2.765 3.646M436.117 339.072l-2.13-1.284M434.971 336.455l-.983 1.333M423.017 352.662l1.814-2.459M433.988 337.788l-3.094 4.195M430.894 341.983l-2.823 3.826M424.831 350.203l3.24-4.394M472.76 311.032l-3.094-1.893-1.377-.811M457.187 309.097l9.072-.83 2.03.061M465.133 280.69l1.321 3.271.146 1.064-.18.276-1.468.283-1.522.467-.827.553-.431.695.104 1.236 1.745 5.262 1.807 5.52 1.752 5.47.709 3.541M401.77 296.684l1.638 2.56M398.385 325.539l.782-.257M409.365 311.998l-3.68 4.793M399.167 325.282l2.552-3.325M405.685 316.79l-2.059 2.683M400.653 307.104l-3.442 4.71M406.747 310.52l-1.906 2.527M403.408 299.244l-2.837 1.309M396.104 302.743l-4.731 2.381-2.807-2.203M400.571 300.553l-4.467 2.19M413.024 282.625l-2.61-2.202M431.633 268.802l-2.989-2.33-.575-.083-3.233 2.031M346.817 387.089l1.807.38M353.796 393.025l-6.52-1.732-.14-.124.056-.196 1.432-3.503M353.796 393.025l3.42.259M359.065 393.419l-1.849-.135M357.337 337.186l-.532-2.535M359.8 427.495l-.346-.044-.198-.03M349.136 434.615l4.117-2.653 1.325-.859 2.841-1.843.328-.24" clip-path="url(#p084dca674f)" style="fill:none;stroke:#000"/><path d="m357.807 429.795-.486.363-.682.492-2.238 1.395-3.108 1.856-.75.326-.814.27-.593.118M345.685 436.804l1.01-.658 2.441-1.53M345.685 436.804l-.55.359M342.01 439.197l.507-.328 1.16-.756 1.107-.721.35-.23M357.747 429.02l.279-.205 1.27-.93.504-.39M357.747 429.02l.06.775M387.686 358.094l2.017-4.309M387.686 358.094l.302.133M387.686 358.094l-.16.317M387.572 358.684l.01-.094-.015-.092-.041-.087" clip-path="url(#p084dca674f)" style="fill:none;stroke:#000"/><path d="m387.254 358.969.11-.04.094-.062.071-.085.043-.098M386.776 358.78l-.061.132" clip-path="url(#p084dca674f)" style="fill:none;stroke:#000"/><path d="m386.776 358.78.086.098.117.069.136.03.14-.008M386.747 358.478l-.023.102.011.104.041.096M387.254 358.969l-.053.12M386.982 358.252l-.101.054-.08.078-.054.094M387.526 358.411l-.077-.087-.103-.064-.118-.034-.125-.003-.12.029M386.982 358.252l.136-.282M385.875 356.836l.549.217M385.184 357.086l-.254.37M382.896 351.069l-.125-.045M382.896 351.069l-.021.066.003.07.028.064.05.054.066.037M383.166 350.945h-.084l-.08.024-.063.043-.043.057M383.166 350.945l.049-.08M383.353 351.232l.014-.074-.015-.073-.043-.065-.064-.048-.079-.027M383.353 351.232l.126.044M383.022 351.36l.075.017.078-.004.072-.027.065-.049.04-.065M383.022 351.36l-.03.068M262.808 131.37l.596 5.206.146 1.813-.18 2.202-1.03 4.913" clip-path="url(#p084dca674f)" style="fill:none;stroke:#000"/><path d="m248.1 146.583 2.7-.851 2.364-.27 9.177.042M229.687 209.89l.655-.622.362-1.026.64-3.099.625-1.094 1.05-1.476M299.42 257.331l4.825-.172 4.32-.31 1.346-.39 1.64-1.107 5.45-4.365 3.81-3.504 1.487-1.205 2.767-2.06 5.68-4.106 11.032-8.247 8.195-6.993 7.69-6.26 1.612-1.29 1.926-1.345M482.77 341.594l1.48-2.016 1.912-1.82 1.884-2.065 1.248-.906.48-.477.09-.676.156-.614.515-.726 1.682-1.5 1.279-.817 1.807-.873.779-.652 1.502-1.426.444-.995 1.722-5.502M472.76 311.032l4.414-2.372 2.07-1.869.765-1.574.98-3.577.495-.811 1.355-.609 2.329-.633 2.023-.32 1.89-.16.835-.227 4.073-1.727.675-.455.827-.91.612-1.346.333-.166.563.037M455.79 299.366l1.446.713.765.996-.042 1.192-.778 1.34-.904 1.279.042.799.868 3.412M401.72 321.957l1.906-2.484M401.72 321.957l-.62-.308M401.1 321.649l1.929-2.51M403.626 319.473l-.597-.334M388.898 309.445l-.505.048M392.068 319.184l-.532.216M398.36 335.459l.269.824.73 2.28M434.211 311.095l-6.845.567-2.063.388M306.108 532.399l-1.182.172-.695.331-1.544 1.561-.542.7-.417 1.008-.25 1.217-.737 9.143-.097.491-.306.922M215.5 407.825l.834-1.156.028-1.327-.583-1.18-1.169-.812-1.974-2.089-.305-.738-.112-.983 1.418-5.383.82-1.55M398.259 385.024v-1.906l-.195-.258-.528-.196-2.837-.21M380.157 426.41l1.543 3.416M397.104 437.68l.503-.081M422.098 537.413l-.377-18.26M435.728 521.658l2.03-.098.277.147.084.369.195 4.252.139.27.472.099 6.424-.197.778.074 5.061 1.105.473.32.028.492-.528.344-5.2 1.18-3.115 1.4-.667.295-.765.135-4.852.21-1.015.085-1.446.443-5.686 1.942-6.317 2.888M421.721 519.152l-6.208.638-5.311.959-9.594.909M313.456 415.62l-2.566-8.004-.222-.258-.375-.074-2.934.553-.375-.049-.195-.246-.18-3.503-.028-1.782.306-.32.416-.135 5.075-1.303M357.216 393.284l-.59.62-1.085.566-1.697.375-1.786.104-1.731-.03-2.079-.345-.583-.184-.57-.412-.334-.049-.34.043-.633.19-.668.105-.493-.05-2.287-.276-3.58-.338-3.226-.276-1.043-.093-1.98-.233-2.204-.08-2.962-.338-3.135-.283-3.976-.153-1.001-.277-.257-.221-.105-.246.111-2.495.056-3.442v-.614l-.167-.566-.765-.713M486.419 397.77l.209 1.02.862 1.5.306.614.055.689.431 1.13.806 2.398.737 1.72 1.586 2.496 2.293 2.692.501.872.333 1.278 2.433 7.363.293 1.5.417 1.155 1.446 1.98 1.07 1.523 2.225 2.323.806 1.204.556 1.119.362.381 1.751 1.168 2.309 1.597 1.807 1.426 1.07 1.303 1.516 2.532 1.098 2.237.751 2.151.43 2.237.182 2.09.375 1.413.514.848 1.683 1.819 2.183 2.249.584.38.806.357 1.112.21 1.627.27 1.224.368 1.46.689 1.376.7 1.042.307 1.39.246 1.878.197 1.821-.05 2.1-.245 1.708-.09M404.928 436.14l-7.146 1.43M404.928 436.14l1.897 7.54M395.907 430.006l6.842-1.396.195.086.167.22 1.817 7.225M397.782 437.57l-1.875-7.564M397.782 437.57l-.175.029M397.782 437.57l1.892 7.63M406.825 443.68l-7.15 1.52M346.552 366.687l5.824.577M346.552 366.687l-5.874-.565M352.376 367.264l5.032.51M328.02 448.21l-.25-.28M328.02 448.21l5.854-3.772.549-.353 3.344-2.155 4.242-2.733M328.02 448.21l-4.21 2.712M327.77 447.93l-4.169 2.72M341.748 438.904l-11.623 7.489-2.355 1.537M342.01 439.197l-.262-.293M316.354 455.73l-.195-.223M316.354 455.73l2.765-1.786 4.691-3.022M308.154 461.99l.966-1.126.659-.594.583-.505 1.856-1.361 4.136-2.673" clip-path="url(#p084dca674f)" style="fill:none;stroke:#000"/><path d="m316.16 455.507-3.96 2.584-1.882 1.367-.786.591-.735.651-.98 1.096M316.16 455.507l7.441-4.856M323.81 450.922l-.209-.272M308.154 461.99l-.338-.194M382.935 351.41l.056.018M382.72 351.122l.05-.098M382.991 351.428l.155.059M382.77 351.024l.044-.082M383.425 351.384l.054-.108M383.479 351.276l.041-.102M383.367 350.94l-.152-.075M383.215 350.865l-.104-.04M386.683 357.795l.435.175M389.196 353.604l-1.985 4.173-.093.193M389.703 353.785l.273.14M390.088 353.851l.194-.339M390.282 353.512l.244-.312M388.676 353.28l.112-.212M388.788 353.068l.194-.354M392.513 348.96l.209.127.41.195M392.513 348.96l-.215-.149M396.647 344.551l-.588-.315M396.06 344.236l-.293-.188M398.902 339.745l.24.112M399.142 339.857l.558.285M399.7 340.142l.224.125M386.27 358.738l.445.174M387.2 359.09l.218.09M383.157 365.701l.152.055M383.89 365.998l.26.09M380.216 371.767l.16.055M380.377 371.822l-.654 1.35M381.022 372.008l.3.104M381.022 372.008l-.662 1.406M386.124 353.37l-.81 1.513M386.124 353.37l.653.66M387.737 353.076l-1.21-.459-.403.753M386.777 354.03l.96-.954M386.777 354.03l-.216.99M386.22 355.308l.112-.196.23-.093" clip-path="url(#p084dca674f)" style="fill:none;stroke:#000"/><path d="m386.784 355.358.014-.166-.237-.173M386.22 355.308l.147.222M386.22 355.308l-.906-.425M386.784 355.358v.006l-.167.153-.25.013M386.424 357.053l.172-.343-.766-.31.537-.87M386.784 355.358l.897.394M385.314 354.883l-.805 1.503M384.509 356.386l.384.129M384.93 357.456l-.824-.315.403-.755M378.963 361.347l-.666 1.416M379.603 363.27l-1.218-.422M377.997 363.688l.19-.413M378.385 362.848l-.197.427M378.297 362.763l-.022.047.11.038M377.51 362.515l.46.145M378.297 362.763l-.326-.103M377.003 363.221l.147-.295M377.288 362.65l-.138.276M377.044 363.516l.443.167M377.83 363.812l-.343-.13M374.104 369.3l.16-.32M374.396 368.716l-.132.263M374.604 368.624l.46.161M375.411 368.907l-.347-.122M375.112 369.693l.18-.357M375.411 369.097l-.12.239M374.243 369.478l.407.157M374.959 369.755l-.309-.12M372.61 373.94l.235-.487 1.805-3.818M377.487 363.683l-1.993 4.243-.43.86M371.817 374.346l.095-.182M372.067 373.867l-.155.297M372.359 373.842l.251.097M372.852 374.033l-.242-.094M372.727 374.647l.09-.171M372.957 374.205l-.14.27M371.953 374.586l.295.104M372.495 374.776l-.247-.086M372.248 374.69l-2.237 4.623M369.672 379.19l.34.123M370.263 379.404l-.252-.091M369.241 379.712l.117-.236M369.485 379.22l-.127.256M370.277 379.638l-.05.131M370.117 380.05l.11-.28M369.311 379.902l.368.131M369.95 380.13l-.271-.097M400.495 338.572l.117.22M400.843 339.23l-.23-.437M398.952 338.91l.139-.118M399.87 338.124l-.098.084M399.772 338.208l-.414.354M400.725 339.814l.09-.145M400.948 339.458l-.132.21M371.772 389.18l.463.172M372.919 389.605l-.161-.06M372.758 389.545l-.233-.087M373.21 386.606l.14.053M379.606 373.127l.117.045M380.545 373.484l-.185-.07M380.36 373.414l-.637-.242M383.172 387.761l-.011-.129M383.075 386.68l.019.214M383.094 386.894l.067.738M399.358 338.562l-.267.23M372.235 389.352l.29.106M441.269 320.531l1.883-.008M441.269 320.531l-7.022.03M441.269 320.531l.048 4.939M441.269 320.531l-.05-5.125M434.247 320.56l.007-5.163M434.247 320.56l-.007 4.926M441.317 325.47l-7.077.016M441.317 325.47l1.947-.005M441.22 315.406l-.036-4.887M441.22 315.406l-6.966-.01M441.22 315.406l2.822.003M441.184 310.52l-6.973.575M434.211 311.095l.043 4.302M329.146 432.998l.667.368.945.27 1.001.025 3.42-.369 1.03-.122 1.028-.074.973-.025h1.001l.89.32M316.276 359.43l1.435-10.218v-1.07l-1.394-.779-1.798-.81-1.027-.196-3.192-1.264-6.568-3.147M393.727 422.158l-.53-2.76-.49-3.137-.367-3.707-.634-4.278M397.607 437.599l1.062 4.306 1.335 5.939 1.123 4.533M393.727 422.158l.326 1.173.957 4.011 1 4.012 1.558 6.087.039.158M372.525 389.458l-1.14 2.266M366.22 417.901l.954-5.88M369.413 399.81l.047-.227.697-3.767.368-2.067M371.384 391.724l-.192.385-.645 1.543-.022.097M368.37 405.927l.027-.125.965-5.656.05-.336M367.174 412.02l.09-.443 1.107-5.65" clip-path="url(#p084dca674f)" style="fill:none;stroke:#000"/></g><g id="PatchCollection_1"><path d="m470.57 603.16-2.042 1.002-1.36 1.002.113 1.503 1.36.751 1.361.05 1.701-.801 2.892-1.603 3.515-1.504 3.743-1.052 3.118-.702 2.495.351 1.985.651 1.984.702 1.758.752 1.417.25 1.305-.2.566-.702.114-1.052-.17-1.152-.738-1.655-.737-1.553-.68-1.804-.397-2.906.567-2.907.454-3.307-.85-1.253-.965-1.252-2.438-.752-3.685-.251-2.836.702-.226 1.453-1.815 1.904-1.587 1.303-1.248 2.406-.793 1.753-.51 2.105-.908 1.253-.907.752-.68 1.653-.794 1.253-1.644 1.353-1.475 1.052zM553.12 528.295l-.742-1.656-.86-1.312-.742-.898-1.132-.414-1.953.449-1.562.863-1.563.345-2.03-.76-.664-.207-1.21-.241-.665.207-.39.449v.793l.117.967.195.898.117.966-.117.69-.586.587-1.015.415-1.133.103-1.523-.207-.781-.414-.508-.242-.976-.207-1.562.31-1.64-.413-1.524-.035-1.21.31-.742.933-.508 1.07-.196 1.415-2.03 1.381-.86.863-1.015.346-.625.62.04.518.74.76.626 2.037-.04 2.07.04.933.156.897.625.518.976.07.664-.104.43-.346.664-1.587.742-.829 1.289-.794 1.914-.38h1.367l1.991.45 1.133.793.546 1.381.664 1.898.86 1.105 1.132.69 1.836.346 2.03.103.704 1.312.468 1.45.508 1.277.781.898 1.328.276.938-.311.43-.76-.274-.932-.937-2.933-.274-2.762.39-2.692.274-1.278-.156-2.347.351-2.278.781-1.381 1.25-1.588 1.758-1.278 2.03-1.311.743-.414.39-.518zM217.25 275.004l-.8.293-.45.674-.058.604.176.518.43.31.84.277.663-.034.352-.242.253-.38.078-.518-.058-.622-.235-.483-.273-.311-.43-.121z" clip-path="url(#p084dca674f)" style="fill:#00f;fill-opacity:.8"/></g><g id="PatchCollection_2"><path d="m360.553 427.25 3.184.492.834-5.076-1.056 1.487-1.32 1.733zM386.547 358.074l-2.441-.933 2.42-4.524 2.268.86zM355.756 371.301l1.046-3.028-1.335-.453-1.001 3.324z" clip-path="url(#p084dca674f)" style="fill:green;fill-opacity:.8"/></g><g id="PatchCollection_3"><path d="m352.616 339.542 3.699-.083.146 5.061-3.699.084zM375.744 269.505l3.872-.436.705 4.907-3.872.436zM386.858 417.172l-4.96.069.533-4.11.49-2.498 4.037.127zM381.896 429.885l5.1-1.853-1.23-3.063-5.294 1.838zM359.497 406.314l-.357 1.907.946.119.311-1.888z" clip-path="url(#p084dca674f)" style="fill:#90ee90;fill-opacity:.8"/></g><g id="PatchCollection_4"><path d="m253.407 177.437-6.968-3.212-1.56-.333-2.233-.928-1.453-.524-.514.128-.2.201-.525.845-.93 2.876.205.02.458-.191.296.31.538.88.941.808 1.615.524 1.56.071 3.309-.237.726-.262.511.047.296.262.484.31.727-.12.7-.475.672-.31.484.024.377.143.538-.262.188-.238zM246.086 152.893l1.122-4.084 1.41-6.783.16-1.651.594-5.796-16.333-1.767-11.744-.371-.932 2.927-2.004 2.102-3.45 4.164 6.433 2.102 1.072-1.113-.187-5.277.466-.247 5.126 2.473 9.228 3.463 1.072 2.927 6.618 3.545 1.538.37z" clip-path="url(#p084dca674f)" style="fill:#006400;fill-opacity:.8"/></g><g id="PatchCollection_5"><path d="m360.648 428.476 1.09 1.2-.17.12.174.19-.36.257-.214-.236-.426.303-.48-.527-.218.155-.512-.564.11-.078-.337-.371.375-.268.28.308zM360.567 431.03l-.988-.159.052-.245.987.16zM292.788 459.742l.503.332-.582.688-.784-.518.294-.348.282.186zM266.734 136.374l.848-.013.006.345-.848.012zM404.675 379.117l.214.252-.279.184-.213-.251zM237.506 173.514l.03-.338-.516-.036-.03.339zM372.673 390.756l.265-.807.983.257-.221.866zM384.683 355.058l.303-.685-1.417-.49-.303.685zM366.089 367.911l.598-1.72 2.224.577-.709 1.832zM384.26 273.571l4.895-1.5.556 4.303-4.616.492zM384.15 352.88l.416-.799 1.432.53-.424.817zM378.386 362.773l.667-1.45 1.182.368-.646 1.5zM379.766 352.902l.556-1.143 2.1.639-.418 1.204z" clip-path="url(#p084dca674f)" style="fill:#a9a9a9;fill-opacity:.8"/><path d="m380.823 350.824-.5.935 2.099.639.375-.984zM372.829 369.116l1.286.387-.328.75-1.216-.418zM384.63 350.14l.438-.811 1.108.38-.127.49-.3.617-.547-.163-.223.645-.81-.308zM399.864 334.873l2.384 1.431-1.53 1.906-.709-.492-.762-2.173zM370.562 389.36l1.172.419-.633 1.288-1.123-.387zM382.65 387.958l.682-.068.153 1.47-.737.048zM391.632 384.977l.98-1.106 1.467-.117.348 1.585-2.656.339zM378.464 372.93l.904.332.208-.418-.932-.307zM382.315 370.336l1.654.566-.486.934-1.557-.516zM381.272 366.858l.973.38.153-.405-.931-.32zM377.727 370.717l1 .295-.666 1.242-.848-.283zM400.25 340.44l1.113.64.5-.59-1.07-.566zM373.422 393.867l.144-.57.112-.964.322-.05 1.413.217-.112.904-.278.866-1.657-.246zM387.33 359.915l1.234.393.222-.639-1.067-.433zM389.932 354.545l.078-.117.7.137-.177.148zM353.745 413.916l3.592.482.345-1.642-3.537-.55zM360.107 402.411l1.824.275.256-.58-1.947-.285zM406.405 358.626l-2.425-.865 1.168-2.016 2.124 1.18zM373.837 400.957l-.372 2.173-1.724-.29.4-2.158zM371.765 358.561l-.245.59.69.246.244-.63zM378.142 361.465l-1.913-.62.545-1.298 2.047.718zM351.948 435.717l1.658 1.18 1.146-1.603-1.424-.884zM396.65 345.406l2.191 1.278.912-1.023-.845-.423-.534.522-1.557-.777zM401.989 462.196l-1.68.285-.99-4.483 1.702-.305zM384.008 371.979l.378-.698.678.216-.367.797zM380.72 374.06l1.67.62.46-.625-1.256-.432-.447-.227zM381.378 372.781l-.214.535.671.249.402-.629-.78-.284zM381.52 372.622l.36.11.244-.49-.396-.165zM384.535 366.081l-.271.565.677.254.283-.649zM384.868 366.93l-.598-.235-.063.165.616.22zM387.975 367.38l-.345.782-1.112-.31-.323.885 2.358.782.818-1.785zM393.572 361.267l-.139.408.245.093.172-.452zM393.132 361.149l-.344.914-.534-.122.417-.959zM394.656 361.749l-.155.428 1.757.511.228-.487zM397.832 352.22l.317-.551-1.202-.767-.46.629zM396.48 351.398l-1.04-.555.506-.595.935.585zM395.39 350.833l-1.902-1.185.434-.477 1.896 1.106zM394.122 348.714l.885.516.422-.536-.895-.516z" clip-path="url(#p084dca674f)" style="fill:#a9a9a9;fill-opacity:.8"/></g></g></g><defs><clipPath id="p084dca674f"><path d="M90 122.081h558V605.12H90z"/></clipPath></defs></svg>