<svg xmlns="http://www.w3.org/2000/svg" width="960" height="960" viewBox="0 0 720 720"><defs><style>*{stroke-linejoin:round;stroke-linecap:butt}</style></defs><g id="figure_1"><path id="patch_1" d="M0 720h720V0H0z" style="fill:#fff"/><g id="axes_1"><path id="patch_2" d="M90 617.288h558V109.912H90z" style="fill:#fff"/><g id="LineCollection_1"><path d="m526.994 440.316 5.89.784 6.06.112 3.086.895 1.207 2.126 1.262 1.483 3.226-.027 2.356-.197 3.787-1.259 8.725-2.462 3.55-.84M581.107 437.434l-7.63 1.763-7.333 1.734M599.68 427.164l3.813-5.064 8.5-5.625 7.771-5.68 4.068-2.49 4.04-4.057 2.749-3.778 6.648-10.996M599.68 427.164l-.76 1.008-5.806 3.946-9.285 4.56-2.722.756M401.385 119.67l.745 10.268.674 6.94 1.85 2.797 21.938 12.089 21.209 7.388 16.663 2.63 9.51 2.434 11.277 8.088 7.91 6.492 6.986 4.085 3.59 4.337 1.74 3.022 1.683 6.1-1.626 6.38-7.8 12.845-3.282 11.584.983 6.464 1.907 6.324 3.03 4.59 8.612 3.916 2.497 2.659 4.432 9.962 3.702 17.124 1.908 14.16 4.63 1.427 4.32 1.539 8.415 5.232 16.551 13.683 11.838 12.845 8.332 4.98 2.497 4.421 5.948 12.144 6.423 10.27-.533 6.52-2.945 7.863-5.078 10.884-.926 7.472.758 8.842-.73 9.71-4.011 11.277.925 5.344 3.17 10.633M236.817 299.482l.243-.922 2.311-7.446.771-2.327.418-1.889 1.058-1.559 1.584-1.603 1.388-.77 1.453-.307 1.453-.065 1.476-.396 1.518-.988 3.413-3.031 4.426-7.379.55-2.064.55-1.208 1.168-2 1.739-2.415.528-.637.551-.769.22-.965.22-2.416.573-1.208 1.078-1.23 1.585-1.032 4.03-1.67 4.205-3.492 4.117-3.162 4.206-3.184 1.507-2.297.935-1.524 1.567-1.851 3.685-3.69 4.332-3.992 2.896-3.348 3.91-4.045 1.763-3.322 1.238-2.981.725-3.506 1.853-8.416.281-.818.404-.646.453-.403.965-.415 4.38-1.025 2.193-.522.988-.547 1.4-1.424.467-1.588.767-6.489v-1.45l-.493-2.41-.33-1.397-.576-1.313-1.948-4.326-.632-1.479v-.766l.659-3.587 1.948-7.227.961-1.726 1.427-1.943 2.937-2.71 2.196-1.287 2.58-1.04 3.404-1.342 7.246-3.779 2.25-.793 5.325-1.37 5.215-2.162 1.29-.74 1.098-1.45 3.073-6.024.906-2.464.247-.492.549-.411 1.647-.547 10.622-5.558 4.282-3.15 1.812-1.286 3.513-.602 2.058-.438 10.54-3.531 1.757-.494 1.482-.219 1.564-.52 2.418-.796M235.496 331.184l2.598-8.334.573-.505 2.246-1.143 1.32-1.01.551-1.23.11-.856-.264-1.252-2.642-5.842-2.663-6.786-.375-1.537-.133-3.207M220.573 321.447l1.01-3.303 2.525-5.036 1.963-2.294 10.746-11.332M178.537 332.523l16.9-.61 5.218.223 1.178.56 2.525 1.959 1.01.503h2.637l1.29-.784 1.907-3.078 1.123-1.286 4.152-2.016 2.244-2.014 1.852-4.533M235.496 331.184l-8.92-7.22-6.003-2.517M116.721 329.394l2.862.447 5.161 2.91 2.133.392 2.131.057 6.229 1.678 6.283-2.63 7.35-5.204 1.459-.337 2.693.28 7.293 2.071 6.172.727 12.05 2.738" clip-path="url(#pb12c8343e1)" style="fill:none;stroke:#000"/><path d="m100.73 472.937 1.235-.504 11.446-2.463 2.132-.727 1.603-7.011.434-1.616 1.094-2.602.066-2.028-1.01-1.623-.056-1.008 1.29-4.42 1.572-11.194 1.235-7.331.224-.503-.057-.616 1.122-9.178.899-5.709v-1.68l-.393-4.084.45-5.037 5.89-26.64 4.544-3.917 2.133-2.63 1.29-.448 5.33-.728 1.178-.448 1.74-1.343 3.03-1.51 1.907-1.344 1.177-1.343 1.796-2.91 1.234-1.063 1.852-.784 5.61-1.455.786-.336 1.346-.95 1.179-1.345.785-1.398.561-5.485.505-1.456 1.964-3.413 4.264-4.757 4.42-5.377M276.347 607.53l1.347-3.357 3.983-8.058.898-2.743.225-1.119v-1.79l-.786-3.023-.056-1.343.785-5.82.505-2.238.73-1.512 3.31-5.092 4.153-10.968 4.208-10.969.393-2.797-.112-2.687-.898-3.805-.45-2.742-.392-.672-4.32-4.142-1.347-1.846-1.01-2.35-.785-2.799-2.077-12.31-.847-1.336-3.473-5.268-.673-4.198-.057-2.182.28-4.645 2.19-8.338 4.993-8.394 2.02-4.98.45-2.072-.281-2.182-1.516-4.14-1.177-2.296-2.19-7.275.163-1.007.617-3.861 3.255-8.396.729-4.42-.057-6.212-2.693-4.478-6.002-6.156-.842-2.742.336-6.828-.448-2.015-.786-1.902-.281-1.231.45-6.604-.45-2.295-10.885-19.029-1.963-4.533-4.544-6.827-3.872-3.358-3.87-6.157-2.245-2.07-7.126-5.764-7.461-7.22-1.516-1.903-.897-1.623-.112-1.455 1.626-6.772" clip-path="url(#pb12c8343e1)" style="fill:none;stroke:#000"/></g></g></g><defs><clipPath id="pb12c8343e1"><path d="M90 109.912h558v507.375H90z"/></clipPath></defs></svg>