<svg xmlns="http://www.w3.org/2000/svg" width="960" height="960" viewBox="0 0 720 720"><defs><style>*{stroke-linejoin:round;stroke-linecap:butt}</style></defs><g id="figure_1"><path id="patch_1" d="M0 720h720V0H0z" style="fill:#fff"/><g id="axes_1"><path id="patch_2" d="M90 618.887h558V108.313H90z" style="fill:#fff"/><g id="LineCollection_1"><path d="m441.243 259.21-1.465.352-.475.097-.25.048-.832.106-.937.01-.726.04M438.02 261.474l.787-.74.644-.48.377-.23.445-.273.97-.54M426.494 168.955l-1.467-7.528-10.642-43.296M435.23 256.946l-.326 1.13-.06.227M430.93 185.937l.282 1.164 4.759 18.175 2.938 11.234.338 1.98.158 2.943-.097 3.07-.223 2.213-.692 5.332-.963 7.103-1.984 16.164-.078.589-.137 1.042M435.304 258.35l-.073-.323v-1.081M435.304 258.35l-.46-.047" clip-path="url(#p1bfc26639f)" style="fill:none;stroke:#000"/><path d="m513.317 164.48-41.497 50.382-20.983 25.335-3.637 4.632-8.47 10.339-1.83 2.267-.287.353-.393.308-.357.157-.56.096M436.558 259.862l-.78-.526-.253-.35-.19-.406-.031-.23M434.845 258.303l-.13.296-.168.66M432.654 258.753l1.064.791.702.654M415.278 246.689l5.489 3.779 9.658 6.807 2.23 1.478M432.654 258.753l1.893.505M434.547 259.258l-.127.533v.407M434.547 259.258l2.011.604M436.558 259.862l-.631.136-.347.203-.527.466-.278.413M438.02 261.474l-.306-.549-.19-.339-.284-.271-.357-.262-.325-.19" clip-path="url(#p1bfc26639f)" style="fill:none;stroke:#000"/><path d="m434.42 260.198.116.378.24.504M434.775 261.08l.319.427.41.388.41.222.39.049.422.011M434.775 261.08l-.216.323-.59.814-1.21 2.703M436.726 262.177l.453-.193.44-.227.4-.283M438.956 262.864l-.463-.485-.168-.33-.306-.575M436.726 262.177l.462.027.452.068.41.117.906.475M432.76 264.92l.978-1.21.642-.524.82-.445 1.021-.35.505-.214M438.956 262.864l21.959 15.313M407.914 323.126l7.284-17.913 3.95-9.522 5.125-12.588.936-2.244 4.547-9.497 3.003-6.442M403.966 333.274l2.351-5.968 1.597-4.18M406.772 324.868l.444-.853.698-.89M397.187 348.712l.37.11M397.187 348.712l-.997 1.696-.92 1.848-.316.526M397.187 348.712l.456-.427M570.338 353.854l12.43 8.39 51.38 35.079M379.713 390.373l-.452-.05-.364.036-.352.096-.327.154-.29.206-.246.252-.191.288" clip-path="url(#p1bfc26639f)" style="fill:none;stroke:#000"/><path d="m380.387 390.623-.365-.173-.309-.077M379.713 390.373l1.233-2.846M380.387 390.623l1.243-2.877M381.267 392.487l.026-.429-.082-.422-.186-.395-.28-.343-.358-.275M380.967 393.184l.189-.334.111-.363M381.267 392.487l3.898 1.353M380.967 393.184l3.891 1.345M378.9 393.981l.472.034.47-.07.437-.168.382-.259.306-.334M378.195 393.716l-1.418 3.686M378.195 393.716l.338.164.366.101M377.294 391.997l-.001.334.064.329.127.312.187.287.239.25.285.207M378.9 393.981l-1.432 3.688M366.914 411.51l-.61.264M366.914 411.51l-.923-2.092M366.914 411.51l3.755.763M366.304 411.774l-.228.447M366.304 411.774l-.78-1.782M370.67 412.273l-.375.923M370.67 412.273l.653.25M370.67 412.273l2.008-4.951M371.323 412.523l2.02-4.957M371.323 412.523l5.568 1.775M371.323 412.523l-.388.934M374.81 418.171l-2.637-4.64-.85-1.008M370.295 413.196l.64.26M368.39 412.72l.751.159 1.154.317M370.935 413.457l.55.63 2.645 4.493.03.188M363.886 417.683l-.283 1.142M363.886 417.683l1.287 2.57M363.886 417.683l1.108-2.753M363.603 418.825l.39.949M363.603 418.825l-2.344-4.667M363.603 418.825l-.286.298-5.074 2.06M374.16 418.768l-.089.238M375.056 418.967l-.494-.162-.403-.037M363.993 419.774l1.18.48M363.993 419.774l2.206 4.59M358.57 421.84l5.146-1.963.277-.103M365.173 420.254l5.838 1.915M371.437 422.298l.823-.262M371.437 422.298l2.218 4.687M371.437 422.298l-.426-.129M342.708 427.784l-3.196 1.581M342.708 427.784l.282.452M342.708 427.784l-2.437-4.692M342.708 427.784l5.026-2.196M342.99 428.236l5.06-2.094M342.99 428.236l-3.478 1.13M339.512 429.365l-4 1.718M100.73 498.716l4.83-1.51M372.26 422.036l2.416-2.311.204-.231M372.26 422.036l2.14 4.637M386.366 450.9l-.713.312M386.366 450.9l-1.883-3.785-.543-1.02M386.366 450.9l.26.65M386.366 450.9l5.271-2.314M386.626 451.55l5.35-2.33M386.626 451.55l-.803.278M383.64 459.2l.4-.655.346-.648 1.75-4.397.163-.526.156-.647.171-.777M385.823 451.828l-.044.567-.17.435-1.078 2.424-.842 2.15-.273.833-.134.566M385.823 451.828l-.17-.616M383.282 458.803l-.456-.703M383.282 458.803l.358.397M383.282 458.803l-.131.858M366.415 393.623l1.85-4.926M366.415 393.623l-2.17 4.931M366.415 393.623l-5.543-1.896M366.415 393.623l5.2 1.908M374.73 402.26l-2.052 5.062M374.73 402.26l.687.239M374.73 402.26l-5.128-1.749M374.73 402.26l2.047-4.858M364.104 407.037l.699-.212M364.104 407.037l-5.126 2.278M364.104 407.037l1.42 2.955M364.104 407.037l-1.47-3.044M362.433 401.845l-2.289-4.68M362.433 401.845l-.625.321M364.245 398.554l-1.389 2.867-.248.28-.175.144M362.433 401.845l1.092 2.216M377.49 391.355l-3.616-1.467M377.49 391.355l-.093.206-.066.215-.037.221M364.245 398.554l5.357 1.957M364.245 398.554l-4.1-1.388M363.027 386.81l.267-.637M363.027 386.81l-2.155 4.917M363.027 386.81l5.237 1.887M363.027 386.81l-5.587-1.93M352.143 382.923l.542.233M349.097 390.34l.127-.405 2.919-7.012M352.366 382.335l-.111.315-.112.273M352.143 382.923l-1.211-.725M407.482 414.07l5.219 1.766M407.482 414.07l-5.292-1.95M407.482 414.07l2.018-4.992M407.482 414.07l-2 4.839M359.483 397.378l.661-.212M359.483 397.378l-5.163 2.34M359.483 397.378l2.325 4.788M359.483 397.378l-.832-1.614M338.016 418.273l2.255 4.819M338.016 418.273l4.197-1.834M340.48 411.114l-2.36 6.099-.118.612.014.448M388.717 339.36l5.179 1.73M388.717 339.36l-5.215-1.997M386.77 344.204l.239-.65 1.708-4.194M368.51 388.109l1.738-4.447M368.51 388.109l-.246.588M368.51 388.109l-5.216-1.936M368.51 388.109l5.364 1.779M366.076 412.22l-1.082 2.71M366.076 412.22l-4.817 1.938M366.935 412.455l-.149-.08-.33-.129-.246-.034-.134.009M371.065 366.752l-.37.357M371.065 366.752l-4.628-1.629M371.065 366.752l.758.267M352.366 382.335l.95-2.27M352.366 382.335l-1.434-.137M352.366 382.335l5.379 1.984M376.777 397.402l-5.162-1.871M376.777 397.402l.691.267M364.803 406.825l-1.278-2.764M364.803 406.825l1.188 2.593M361.808 402.166l-5.2 2.367M361.808 402.166l.825 1.827M360.144 397.166l-.899-1.895M375.417 402.499l2.051-4.83M375.417 402.499l5.543 1.948M375.417 402.499l-2.073 5.067M357.745 384.32l-.305.56M357.745 384.32l1.003-2.388M357.745 384.32l5.55 1.853M360.872 391.727l-4.093-1.367M359.245 395.271l.283-.451 1.344-3.093M357.44 384.88l-1.53 3.591M357.44 384.88l-3.819-1.347M340.271 423.092l4.638-2.068M353.592 411.497l5.386-2.182M353.592 411.497l-5.46 2.237M353.592 411.497l-2.236-4.85M353.592 411.497l2.377 4.87M355.91 388.471l-2.289-4.938M355.91 388.471l-.483.39M355.91 388.471l.869 1.889M368.264 388.697l5.32 1.874M420.899 413.011l-6.157-2.156M420.899 413.011l2.067-5.396M420.899 413.011l-2.093 4.801M365.79 364.912l-1.188 2.572M365.79 364.912l-5.467-1.95M365.79 364.912l.647.211M360.813 376.746l-.312.712M360.813 376.746l.699-1.724M360.813 376.746l1.727-1.395M363.294 386.173l1.724-4.412M418.806 417.812l-6.105-1.976M418.806 417.812l-2.092 5.028M350.416 418.745l5.553-2.377M350.416 418.745l-5.507 2.28M350.416 418.745l2.743 4.639M348.132 413.734l.69 1.703.55 1.382 1.044 1.926M345.813 408.713l5.543-2.066M345.813 408.713l-1.738.739M345.813 408.713l-2.086-4.6M345.813 408.713l2.319 5.02M359.245 395.271l-.594.493M359.245 395.271l-2.466-4.911M356.779 390.36l-.639.054M409.5 409.078l-5.401-1.822M409.5 409.078l5.242 1.777M409.5 409.078l2.061-4.937M343.37 404.075l.357.037M343.37 404.075l-2.89 7.04M343.37 404.075l3.223-7.86M377.294 391.997l-3.71-1.426M377.468 397.669l5.443 1.82M399.385 343.096l2.148-4.947M399.385 343.096l.557.133M399.385 343.096l-5.49-2.005M384.802 349.143l1.969-4.94M384.802 349.143l-2.147 4.864M384.802 349.143l2.733 1.05M384.802 349.143l-5.574-1.858M394.954 352.782l-1.898 4.912M394.954 352.782l.74.264M394.954 352.782l-5.096-1.8M380.456 333.484l-7.403-2.328M380.456 333.484l.98-2.525M380.456 333.484l-.765 2.497M379.69 335.98l3.812 1.383M379.69 335.98l-1.604-.574M374.444 328.51l-1.391 2.646M374.444 328.51l1.146-2.463M379.995 330.453l-4.22-1.457-1.33-.486M382.158 339.915l-5.134-1.998M382.158 339.915l1.344-2.552M382.158 339.915l-.966 2.43M395.694 353.046l1.864-4.225M395.694 353.046l5.61 1.864M395.694 353.046l-1.784 4.942M382.655 354.007l-.796 1.527M382.655 354.007l-5.43-1.772M382.655 354.007l1.01.356M372.122 333.427l5.964 1.98M372.122 333.427l-.893 2.382M372.122 333.427l.93-2.27M357.232 392.706l-5.304 2.169M357.232 392.706l1.42 3.058M357.232 392.706l-1.092-2.292M369.297 340.762l-.936 2.436M369.297 340.762l.936-2.435M369.297 340.762l5.676 2.067M366.31 348.397l-2.08 4.762M366.31 348.397l1.279-3.585M366.31 348.397l5.528 1.984M393.91 357.988l-.854-.294M393.91 357.988l5.149 1.95M393.91 357.988l-2.102 4.988M393.056 357.694l-2.036 4.988M393.056 357.694l-5.186-1.867M370.233 338.327l5.825 2.012M370.233 338.327l.996-2.518M399.942 343.23l2.117-4.927M397.643 348.285l1.496-3.412.803-1.644M401.533 338.15l1.983-5.036M401.533 338.15l.526.153M396.095 336.335l2.785.993 1.337.41 1.316.411M386.77 344.204l-5.578-1.858M391.074 345.862l-.812-.297-3.491-1.361M371.229 335.81l5.795 2.107M346.914 396.968l5.014-2.093M346.914 396.968l-.32-.753M346.914 396.968l2.246 4.835M368.361 343.198l5.557 2.12M368.361 343.198l-.772 1.614M381.436 330.959l-1.44-.506M381.436 330.959l4.02 1.416M378.472 363.926l2.095-5M378.472 363.926l-3.43-1.274M378.472 363.926l5.29 1.902M376.474 368.708l.401-1.012 1.597-3.77M404.099 407.256l-5.254-1.861M404.099 407.256l-1.91 4.864M406.142 402.267l-.977 2.307-1.066 2.682M380.567 358.926l1.292-3.392M380.567 358.926l5.223 1.88M380.567 358.926l-1.85-.657M409.439 379.321l-.458-4.519M409.439 379.321l-.499 1.171M409.439 379.321l1.634-3.735M388.734 412.987l.672.246M388.734 412.987l-4.686-1.65M388.734 412.987l-2.004 4.895M388.734 412.987l2.094-5.117M402.958 378.294l-4.463-1.72M402.958 378.294l.755.3M402.958 378.294l-2.06 4.98M402.958 378.294l1.922-4.902M386.986 372.607l-1.983 4.967M386.986 372.607l-5.23-1.908M386.986 372.607l.736.267M386.986 372.607l2.08-5.007M364.23 353.159l-2.05 4.857M364.23 353.159l5.592 2.093M415.253 365.597l-5.282-1.909M415.253 365.597l5.317 2.035M415.253 365.597l-1.89 4.971M415.253 365.597l1.813-4.926M405.736 373.664l1.975-4.994M405.736 373.664l-.856-.272M405.736 373.664l3.245 1.138M405.736 373.664l-2.023 4.93M390.828 407.87l.683.239M390.828 407.87l-4.714-1.643M390.828 407.87l1.961-4.79M365.018 381.76l2.013-4.863M365.018 381.76l-5.483-1.853M365.018 381.76l5.23 1.902M372.678 407.322l.666.244M372.678 407.322l-5.164-1.968M411.824 358.733l-5.414-1.85M417.066 360.671l-3.105-1.15-2.137-.788M411.824 358.733l-1.853 4.955M397.55 393.408l-.701-.245M397.55 393.408l5.319 2.042M397.55 393.408l2.061-5.019M397.55 393.408l-1.784 4.333M408.235 397.416l-5.366-1.966M408.235 397.416l4.088-9.95M408.235 397.416l-1.84 4.327M362.18 358.016l6.115 2.221M360.323 362.962l1.307-3.851.55-1.095M381.63 387.746l1.954-4.973M381.63 387.746l-.684-.219M381.63 387.746l5.3 1.84M396.849 393.163l-4.432-1.614M396.849 393.163l-1.807 4.32M396.849 393.163l2.06-5.032M370.248 383.662l2.036-4.96M370.248 383.662l5.35 1.936M411.006 381.222l3.472 1.163M411.006 381.222l2.128-4.742M408.94 380.492l1.024.366 1.042.364M417.066 360.671l5.35 1.874M412.572 372.36l5.107 1.96M412.572 372.36l-1.499 3.226M412.572 372.36l.792-1.792M387.722 372.874l2.013-5.055M393.06 374.715l-1.342-.418-3.996-1.423M387.722 372.874l-2.006 4.94M416.37 377.664l-3.236-1.184M416.37 377.664l1.31-3.344M416.37 377.664l-1.892 4.72M391.02 362.682l-1.954 4.918M391.02 362.682l.788.294M391.02 362.682l-5.23-1.875M408.98 374.802l2.093.784M418.608 372.3l1.962-4.668M418.608 372.3l-.929 2.02M418.608 372.3l2.605 1.034M418.608 372.3l-5.244-1.732M420.57 367.632l1.846-5.087M391.808 362.976l5.127 1.894M391.808 362.976l-2.073 4.843M405.917 388.274l1.062-2.734M400.01 417.03l5.473 1.879M400.01 417.03l-5.345-1.978M400.01 417.03l2.18-4.91M400.01 417.03l-1.94 4.974M389.066 367.6l-5.304-1.772M389.066 367.6l.669.219M376.474 368.708l-2.117 5.063M376.474 368.708l-4.651-1.69M376.474 368.708l5.282 1.991M416.714 422.84l-2.48-.794M416.714 422.84l-1.653 5.088M391.51 408.109l5.2 1.811M391.51 408.109l1.967-4.788M391.51 408.109l-2.104 5.124M382.228 424.844l1.735 1.216M379.754 424.494l.74-.274.385-.04.387.081.962.583M384.906 422.64l-.498.664-.505.438-.52.369-1.155.733M413.134 376.48l-2.06-.894M360.323 362.962l-1.27 2.634M389.735 367.819l5.357 2.004M354.275 377.998l-.958 2.066M354.275 377.998l.884-2.47M354.275 377.998l5.26 1.909M406.981 368.412l-2.101 4.98M406.981 368.412l.73.258M406.981 368.412l-4.453-1.694M406.981 368.412l.738-.774M408.94 380.492l-5.227-1.898M408.94 380.492l-1.96 5.048M398.07 422.004l-1.686 4.768M398.07 422.004l-5.434-2.014M398.07 422.004l5.203 1.98M402.19 412.12l-5.48-2.2M391.956 436.848l.52-.938M391.956 436.848l-2.343-4.823M391.956 436.848l.699 1.422M386.726 439.091l2.433-.95 2.263-.992.534-.301M413.364 370.568l-5.653-1.898M404.88 373.392l-4.35-1.68M414.478 382.385l-2.155 5.08M393.836 432.62l.334-.827M393.836 432.62l-.282.602M393.836 432.62l-4.762-3.543M393.836 432.62l4.868 3.561M355.16 375.528l.995-2.38M355.16 375.528l5.341 1.93M359.535 379.907l-.787 2.025M359.535 379.907l.966-2.45M405.293 361.878l.972.355 3.706 1.455M407.714 368.26l.468-.318.19-.307 1.599-3.947M393.477 403.321l-.688-.24M393.477 403.321l5.368 2.074M393.477 403.321l2.037-4.959M403.713 378.594l-2.104 4.932M384.906 422.64l.605.26M384.906 422.64l-4.847-1.33M384.906 422.64l1.824-4.758M407.71 368.67l.004-.41M442.557 320.047l-6.04 14.216-4.904 11.918-.891 1.49-.906.986-2.481 2.025-.49.52-4.43 11.343M380.946 387.527l-5.349-1.929M380.946 387.527l1.991-5.014M392.79 403.08l-4.66-1.627M392.79 403.08l2.032-4.965M373.344 407.566l5.498 1.838M389.406 413.233l5.259 1.819M389.406 413.233l-2.008 4.887M363.525 404.061l3.99 1.293M363.525 404.061l-.892-.068" clip-path="url(#p1bfc26639f)" style="fill:none;stroke:#000"/><path d="m342.213 416.439 2.761-1.412 1.159-.657.684-.26.898-.232.417-.144M378.718 358.27l-3.44-1.24M378.718 358.27l-3.675 4.382M381.86 355.534l-.45.268-.506.363-2.186 2.104M373.382 362.015l-5.087-1.778M373.382 362.015l1.66.637M373.382 362.015l1.896-4.984M373.382 362.015l-.965 3.39M387.535 350.194l2.323.788M387.535 350.194l3.539-4.332M387.535 350.194l-3.87 4.169M343.727 404.112l5.433-2.309M353.443 423.905l5.126-2.065M353.443 423.905l-.284-.521M353.443 423.905l2.363 4.899M353.443 423.905l-5.393 2.237M375.043 362.652l-2.626 2.752M347.734 425.588l-2.825-4.564M347.734 425.588l.316.554M347.734 425.588l5.425-2.204M342.213 416.439l2.696 4.585M379.228 347.285l-5.31-1.966M379.228 347.285l1.004-2.525M379.228 347.285l-2.004 4.95M355.97 416.368l5.289-2.21M355.97 416.368l2.273 4.815M398.126 331.319l2.017-5.087M398.126 331.319l-2.031 5.016M398.126 331.319l-5.204-1.995M398.126 331.319l5.39 1.795M392.922 329.324l1.991-4.98M392.922 329.324l-2.229 4.98M392.922 329.324l-5.45-1.892M384.185 320.663l5.371 1.86M384.185 320.663l-5.415-1.854M384.185 320.663l1.3-3.127M384.185 320.663l-2.035 4.932M353.159 423.384l5.084-2.2M377.224 352.235l-5.386-1.854M377.224 352.235l-1.946 4.796M387.471 327.432l2.085-4.908M387.471 327.432l-1.017 2.473M387.471 327.432l-5.321-1.837M400.143 326.232l1.115-3.243M400.143 326.232l5.23 1.943M400.143 326.232l-5.23-1.889M394.913 324.343l-5.357-1.82M394.913 324.343l1.263-3.092M383.666 354.363l4.204 1.464M383.666 354.363l-1.807 1.171M372.417 365.404l-.594 1.615M392.47 344.176l.237-.581 1.189-2.504M376.89 323.783l1.88-4.974M376.89 323.783l-1.3 2.264M376.89 323.783l5.26 1.812M358.243 421.183l.326.657M382.15 325.595l-.981 2.47M396.176 321.251l-5.485-1.885M396.176 321.251l5.082 1.738M385.485 317.536l-4.353-1.464-.49-.137-.543.049-.327.205-.2.308-.446 1.115-.356 1.197M346.593 396.215l2.504-5.876M358.31 433.585l-2.504-4.781M358.31 433.585l2.28 4.822M358.31 433.585l5.178-2.127M358.31 433.585l-5.283 2.25M396.095 336.335l-5.402-2.03M358.57 421.84l2.362 4.788M390.691 319.366l-1.135 3.158M385.485 317.536l1.01.305.9.23 3.296 1.295M401.258 322.989l5.514 1.879M403.516 333.114l1.857-4.94M403.516 333.114l.45.16M355.806 428.804l5.126-2.176M355.806 428.804l-4.636 1.956M349.16 401.803l5.16-2.085M349.16 401.803l2.196 4.844M375.278 357.03l-5.456-1.778M390.693 334.304l-5.237-1.929M379.995 330.453l1.174-2.387M405.373 328.175l1.399-3.307M381.192 342.346l-5.134-2.007M381.192 342.346l-.96 2.414M365.805 436.314l-5.215 2.093M365.805 436.314l5.075-2.202M365.805 436.314l-2.317-4.856M365.805 436.314l2.244 4.761M351.356 406.647l5.252-2.114M385.456 332.375l.998-2.47M360.932 426.628l5.267-2.264M360.932 426.628l2.556 4.83M387.87 355.827l1.988-4.845M387.87 355.827l-2.08 4.98M371.615 395.531l1.969-4.96M371.615 395.531l-2.013 4.98M373.584 390.571l.29-.683M373.874 389.888l1.723-4.29M369.602 400.511l-2.088 4.843M389.858 350.982l2.611-6.806M367.514 405.354l-1.523 4.064M385.79 360.807l-2.028 5.021M365.991 409.418l-.468.574M381.756 370.699l2.006-4.871M381.756 370.699l-2.132 4.96M375.597 385.598l2.08-4.912M373.918 345.319l1.055-2.49M373.918 345.319l-2.08 5.062M366.437 365.123l1.858-4.886M368.295 360.237l1.527-4.985M374.973 342.829l1.085-2.49M374.973 342.829l5.26 1.93M376.058 340.339l.966-2.422M371.838 350.381l-2.016 4.87M377.024 337.917l1.062-2.51M395.042 397.483l-.22.632M395.042 397.483l-4.446-1.753M395.042 397.483l.724.258M392.417 391.549l-5.487-1.964M392.417 391.549l-1.821 4.18M392.417 391.549l1.928-5.042M358.101 368.12l-1.002 2.49M358.101 368.12l.951-2.524M358.101 368.12l5.535 1.902M369.074 371.964l-2.043 4.933M369.074 371.964l-2.563-.826M369.074 371.964l5.283 1.807M370.695 367.109l.054.276-.037.195-1.638 4.384M406.142 402.267l.253-.524M406.142 402.267l5.419 1.874M406.142 402.267l-5.303-1.914M361.512 375.022l.936-2.415M361.512 375.022l1.028.329M361.512 375.022l-5.357-1.874M362.448 372.607l1.188-2.585M362.448 372.607l-5.35-1.997M415.06 427.928l-2.93-1.062M427.81 427.34l-1.79 3.96-.32.376-.446.055-10.193-3.803M387.398 418.12l-.668-.238M387.398 418.12l5.238 1.87M387.398 418.12l-1.887 4.78M422.966 407.615l-11.216-3.926M422.966 407.615l2.719-6.05M453.693 418.173l-5.988-1.984-24.74-8.574M363.636 370.022l.966-2.538M363.636 370.022l2.875 1.116M412.323 387.466l-5.344-1.926M393.06 374.715l5.435 1.86M393.06 374.715l2.032-4.892M393.06 374.715l-2.021 4.895M356.608 404.533l2.37 4.782M356.608 404.533l-2.288-4.815M405.483 418.909l5.337 1.851M405.483 418.909l-2.21 5.076M396.935 364.87l5.593 1.848M396.935 364.87l2.124-4.932M396.935 364.87l-1.843 4.953M366.511 371.138l-3.971 4.213M366.511 371.138l4.184-4.03M362.54 375.35l4.491 1.547M394.665 415.052l2.045-5.132M394.665 415.052l-2.03 4.938M358.978 409.315l2.28 4.843M349.104 437.847l3.923-2.012M388.13 401.453l-5.219-1.963M388.13 401.453l-2.016 4.774M388.13 401.453l2.178-4.986M398.909 388.131l.702.258M398.909 388.131l-4.564-1.624M398.909 388.131l1.988-4.857M382.911 399.49l1.947-4.96M382.911 399.49l-1.951 4.957M379.624 375.659l-1.947 5.027M379.624 375.659l-5.267-1.888M379.624 375.659l5.379 1.915M349.097 390.34l.505-.227M414.742 410.855l-2.041 4.98M411.561 404.14l.189-.45M383.584 382.773l2.132-4.96M383.584 382.773l5.388 1.91M383.584 382.773l-.647-.26M378.842 409.404l5.206 1.933M378.842 409.404l2.118-4.957M378.842 409.404l-1.951 4.894M403.671 348.894l-.58 1.836M402.528 366.718l-1.998 4.994M402.528 366.718l1.943-4.978M354.32 399.718l-2.392-4.843M394.822 398.115l.692.247M394.822 398.115l-4.514-1.648M363.488 431.458l5.037-2.217M386.73 417.882l-4.73-1.688M411.75 403.69l-5.355-1.947M402.869 395.45l-1.724 4.235M396.48 381.495l-5.441-1.885M396.48 381.495l4.417 1.779M396.48 381.495l-2.135 5.012M396.48 381.495l2.015-4.92M400.839 400.353l.306-.668M400.839 400.353l-1.994 5.042M400.839 400.353l-5.325-1.99M382.937 382.513l-5.26-1.827M382.937 382.513l2.066-4.939M395.092 369.823l5.438 1.889M367.031 376.897l5.253 1.806M356.155 373.148l.944-2.538M380.96 404.447l5.154 1.78M349.602 390.113l.205.476 2.121 4.286M386.93 389.585l2.042-4.902M386.93 389.585l-1.765 4.255M384.048 411.337 382 416.194M384.048 411.337l2.066-5.11M373.655 426.985l2.509 4.9M373.655 426.985l.745-.312M373.655 426.985l-5.13 2.256M385.165 393.84l-.307.69M385.165 393.84l5.43 1.89M379.754 424.494l-.591.263-.68.24-4.083 1.676M374.4 426.673l2.362 4.87M491.52 431.593l-25.314-8.78M504.658 399.498l-1.605 3.886-4.532 11.123-4.235 10.206-2.765 6.88M479.68 454.044l3.366-7.88.305-.267 2.035-.793.372-.219 1.054-2.305 4.709-10.987M390.596 395.73l-.288.737M399.059 359.938l5.412 1.802M399.059 359.938l2.246-5.028M401.145 399.685l-5.379-1.944M401.145 399.685l5.25 2.058M378.443 436.75l2.368 4.752M378.443 436.75l.674-.347M378.443 436.75l-5.104 2.122M378.443 436.75l-2.28-4.865M395.766 397.741l-.252.621M354.87 387.808l.557 1.053M349.602 390.113l1.126-.57 1.902-.801 2.24-.934M354.87 387.808l-2.185-4.652M372.284 378.703l2.073-4.932M372.284 378.703l5.393 1.983M389.074 429.077l1.775-4.248M388.687 429.638l.216-.342.171-.22" clip-path="url(#p1bfc26639f)" style="fill:none;stroke:#000"/><path d="m384.285 425.608.658.384 1.42 1.074 2.711 2.01M376.762 431.544l-.598.341M376.762 431.544l5.402-2.139M376.762 431.544l2.355 4.859M390.308 396.467l-5.45-1.938M380.06 421.31l-.306 3.184M380.06 421.31l1.94-5.116M380.06 421.31l-5.004-2.343M376.164 431.885l-5.284 2.227M379.117 436.403l5.291-2.21M379.117 436.403l2.323 4.793M385.716 377.814l-.713-.24M385.716 377.814l5.323 1.796M401.846 355.19l-.541-.28M401.846 355.19l3.016 5.793M406.41 356.884l-3.585-1.324-.979-.37M403.273 423.985l-1.803 4.829M403.273 423.985l5.52 1.707M392.636 419.99l-1.787 4.839M386.132 427.695l-3.968 1.71M386.132 427.695l-2.17-1.635M386.132 427.695l2.555 1.943M400.53 371.712l-2.035 4.863M401.305 354.91l1.785-4.18M376.89 414.298l5.11 1.896M374.81 418.171l.275-.23.19-.23 1.616-3.413M391.039 379.61l-2.067 5.073M400.897 383.274l.712.252M373.339 438.872l-5.29 2.203M373.339 438.872l-2.46-4.76M373.339 438.872l2.332 4.734M394.345 386.507l-5.373-1.824M404.862 360.983l.46-1.219 1.088-2.88M404.471 361.74l.822.138M404.471 361.74l.391-.757M401.609 383.526l5.37 2.014M401.609 383.526l-1.998 4.863M405.293 361.878l2.272 4.115.134.533.02 1.112M407.72 367.638l-.006.622M379.754 424.494l2.41 4.911M374.88 419.494l2.545 1.922.423.338.323.42 1.583 2.32M392.476 435.91l1.078-2.688M392.476 435.91l5.516 4.162M385.511 422.9l5.338 1.929M384.285 425.608l.215-.37.517-1.024.494-1.313M394.06 447.594l-2.207-4.884M394.06 447.594l-2.423.992M394.06 447.594l2.614-1.156M368.525 429.241l-2.326-4.877M368.525 429.241l2.355 4.87M387.41 440.454l-.684-1.363M387.41 440.454l1.701 3.453M387.41 440.454l2.845-1.123M371.01 422.17l-.205.325-.478.26-4.128 1.61M391.637 448.586l-2.526-4.68M391.637 448.586l.34.634M382.164 429.405l2.244 4.789M401.098 445.227l-4.424 1.21M401.428 445.583l-.248-.168-.082-.188M403.026 439.27l.085.54-.067.38-1.552 3.823-.394 1.214M375.218 455.597l-2.518-4.74M375.218 455.597l5.268-2.169M382.826 458.1l-4.874 2.1-.193.007-.215-.13-2.326-4.48M367.678 453.004l2.14 4.378.192.137.253.13 4.955-2.052M389.111 443.907l2.742-1.197M389.111 443.907l-5.17 2.189M384.408 434.194l2.318 4.897M389.613 432.025l-1.743.643-3.462 1.526M375.056 418.967l.004-.096-.062-.287-.188-.413M375.056 418.967l-.176.527M396.674 446.438l-2.3-4.813M396.674 446.438l.308.603M388.687 429.638l-.04.174.01.089.956 2.124M381.44 441.196l5.286-2.105M381.44 441.196l-.629.306M381.44 441.196l2.5 4.9M390.255 439.33l2.4-1.06M391.853 442.71l-1.115-2.346-.483-1.033M394.373 441.625l-1.718-3.355M394.373 441.625l3.619-1.553M394.373 441.625l-2.52 1.085M401.004 438.737l-2.716-2.002-4.734-3.513M388.687 429.638l2.183 1.749 2.684 1.835M383.313 446.388l.627-.292M383.313 446.388l-5.395 2.085M383.313 446.388l.749 1.563 1.345 2.745.246.516M383.313 446.388l-2.502-4.886M396.384 426.772l-2.214 5.02M396.384 426.772l-5.535-1.943M396.384 426.772l5.086 2.042M401.428 445.583l.454.177M396.982 447.04l.175-.076 4.271-1.381M399.475 433.81l1.995-4.996M399.475 433.81l-5.305-2.017M398.704 436.181l.31-.797.461-1.573M403.323 439.512l1.345-3.184.014-.322-.311-.225-4.896-1.97M401.004 438.737l-1.047.52-1.965.815M377.918 448.473l-2.247-4.867M377.918 448.473l2.568 4.955M377.918 448.473l-5.218 2.383M401.004 438.737l.595-.37M372.7 450.856l-2.318-5.089M372.7 450.856l-5.022 2.148M380.486 453.428l5.167-2.216M380.486 453.428l2.34 4.672M367.678 453.004l-2.407-4.815" clip-path="url(#p1bfc26639f)" style="fill:none;stroke:#000"/><path d="m360.026 450.227 2.243 4.432.535.329h.357l4.517-1.984M380.811 441.502l-5.14 2.104M375.671 443.606l-5.289 2.161M310.943 368.316l-4.91-1.714-6.588-2.472-8.614-2.925M356.14 390.414l-.713-1.553M392.47 344.176l-.789.951-.607.735M359.052 365.596l5.55 1.888M252.674 450.403l6.05-1.453 26.251-5.865 9.619-1.985 4.818-1.159 7.65-1.624 8.988-1.5 4.264-.733 3.135-.592M335.512 431.083l-8.1 3.22-1.926.67-1.044.296-.993.223M373.472 482.807l-1.05-1.182-21.85-20.344-1.933-2.047-.436-.504-16.746-15.86-6.11-5.924-.503-.473-1.395-.98M397.558 348.821l3.733 1.067.844.281.955.56M369.718 491.888l2.726-6.458 1.028-2.623M376.23 476.174l-.692 1.552-2.066 5.081M335.255 570.71l4.178-9.273 6.727-15.162 3.117-6.779M355.671 525.048l-3.566 8.023-2.828 6.425M368.082 495.967l-3.834 8.63-6.442 15.503-2.135 4.948M389.781 535.178l-.52-.964-.757-.24-.847-.081-1.078-.045-1.27-.143-1.401-.274-4.52-1.6-1.226-.359-1.142-.37-12.542-5.874-1.907-.705-1.465-.275-2.14-.131-1.297.322-1.998.609M369.718 491.888l-1.106 2.638-.53 1.44M371.276 495.38l-.798.494-.755.17-.837.061-.804-.138M373.695 495.323l.145-.503-.111-.299-.347-.277-3.664-2.356M376.23 476.174l.697-1.587M376.23 476.174l2.213.524M449.904 462.608l16.302-39.795M401.882 445.76l5.735 1.909 17.994 6.457 24.293 8.482M409.154 488.615l13.485 4.506.468-.11 2.533-6.032.32-.185.52.082 11.545 4.015.475-.055 5.61-14.206 5.794-14.022M556.172 522.675l-30.43-28.877-12.555-13.981-1.07-.26-15.944 1.86-1.708-.109-1.694-.478L485 477.34l-12.838-7.018-3.67-1.573-5.676-1.915-12.912-4.227M405.623 487.328l3.531 1.287M405.623 487.328l-1.313-.505M404.37 499.851l-.735-.574-1.56-1.293-.676-.663-.149-.548.09-.54.275-.602 4.008-8.303M404.31 486.823l-25.867-10.125M408.01 479.105l-2.522 6.07-.367.647-.811 1.001M404.37 499.851l1.197-2.743 3.587-8.493M523.412 587.295l-50.774-37.208-3.091-2.407-18.766-13.802-14.264-10.547-18.528-13.282-11.234-8.27-1.493-1.182-.891-.746M596.226 607.1l3.358-6.757M523.412 587.295l6.977 5.132 46.186 10.82 18.938 4.098.713-.246M601.218 609.069l-.475-1.532-.536-.274-3.981-.164M460.915 278.177l60.845 41.98M442.557 320.047l4.45-10.016 13.908-31.854M336.034 376.968l14.898 5.23M313.271 369.038l8.976 2.998 9.04 3.213 4.747 1.72M324.238 405.565l.655-1.869.389-1.027 2.49-5.72 2.49-5.816 1.583-3.905.246-.311.285-.215 1.039-.49 1.206-.68 1.193-1.338.778-1.517.13-1.588-.091-.848-.389-.824-.597-.789-.09-.37.09-.573.39-.717M357.474 341.138l-5.558-2.018-.181-.036-.226.118-.098.169-.228.61-.79 1.91-1.453 3.249-2.932 7.38-.596 1.554-1.57 3.714-3.23 8.348-1.517 3.607-3.06 7.225M324.238 405.565l16.242 5.55M305.204 399.91l4.89 1.697.214.047 3.048.126.415.023.46.12 5.37 1.917 4.637 1.725M313.271 369.038l-2.328-.722M271.417 381.023l1.705-.189 2.42.471 6.752-5.714.784-.313 11.559 4.08 10.496 3.666 1.18.16.668-.094.564-.311.538-.597 3.061-7.614 2.127-5.53M324.127 335.895l-1.97 4.742-.623 1.565-.882 2.018-1.803 4.216-1.414 3.535-2.477 6.067-1.972 4.826-2.043 5.452M367.589 344.812l-10.115-3.674M359.537 334.342l-.143 1.863-.817 2.365-1.103 2.568M364.994 414.93l.763.238M365.757 415.168l1.007-2.57.17-.143M365.426 418.59l-.177-.326-.25-.602.006-.18.03-.131.722-2.183M370.204 413.827l-.656 1.647M368.951 416.953l.234-.569M368.951 416.953l.3.386M365.426 418.59l.231-.115 3.294-1.522M369.469 417.239l.202-.534M369.469 417.239l-.218.1M371.475 421.072l-.144-.371-1.862-3.462M370.735 414.13l-.632 1.528M369.06 417.427l.191-.088M365.645 418.995l.233-.097 3.182-1.47M370.952 421.235l-.208-.393-1.684-3.415M369.67 416.705l.433-1.047M369.67 416.705l-.485-.32M369.185 416.384l.363-.91M368.39 412.72l-.056.178.01 2.888.841.598M366.935 412.455l.267-.014 1.188.279M365.426 418.59l.22.405M370.952 421.235l-.441.027-4.182-1.426-.143-.044-.162-.1-.379-.697M371.01 422.17l.03-.268-.007-.35-.08-.317M370.952 421.235l.523-.163M374.071 419.006l-2.221 1.843-.375.223M369.548 415.474l.555.184M353.027 435.835l2.393 4.707M368.05 441.075l2.332 4.692M368.05 441.075l-5.261 2.148M370.382 445.767l-5.111 2.422M360.59 438.407l-5.17 2.135M360.59 438.407l2.199 4.816M355.42 440.542l2.169 4.787M362.789 443.223l2.482 4.966M362.789 443.223l-5.2 2.106M357.589 445.33l2.437 4.897M365.27 448.189l-5.244 2.038M140.214 325.14l-3.404-2.562-11.582-9.317-11.258-8.73M252.674 450.403l-7.017 1.566M140.214 325.14l.643.484 1.66 1.385 11.207 9.507 16.576 14.38 7.652 6.617 1.193 1.147 6.77 8.097 6.279 7.5 3.664 4.24 14.222 18.201 2.88 3.464 10.285 12.933 11.232 14.128 8.521 10.82 5.188 6.544 4.488 5.816M232.59 455.398l5.635-1.759 1.738-.465 5.694-1.205M105.56 497.206l1.276.712 12.672 8.43 5.902 3.75 6.796 3.845L151 524.964l19.831 11.583 4.942 2.507 8.003 4.586 5.798 3.235 3.787 1.97 2.205 1.254.778.359.597.19.596.144.403.024.531-.06.675-.303.175-.116 6.388-4.035 4.708-3.785 1.622-1.182 1.49-.86 1.674-.692 14.216-6.329 17.073-7.264 10.112-4.867 3.424-1.457 8.768-3.415 2.192-.74.649-.418.272-.418.052-.37-5.98-14.055-20.324-48.48M105.56 497.206l32.302-9.988M353.317 380.064l5.43 1.868M375.59 326.047l5.579 2.019M386.454 329.905l-5.285-1.84M402.06 338.303l1.906-5.029M352.685 383.156l.357.165.58.212M383.963 426.06l.322-.452M401.599 438.366l-.601-.404-2.294-1.78M410.82 420.76l.774.296M410.82 420.76l-2.028 4.932M408.792 425.692l.76.244M409.552 425.936l2.577.93M409.552 425.936l2.042-4.88M411.594 421.056l2.64.99M414.234 422.046l-2.105 4.82M401.599 438.366l1.427.903M403.026 439.27l.297.242M403.323 439.512l.178.222.075.383-.09.548-1.441 3.611-.126.397-.03.28-.007.37v.437M466.206 422.813l-12.513-4.64M478.507 393.205l-6.3 14.844-6 14.764" clip-path="url(#p1bfc26639f)" style="fill:none;stroke:#000"/><path d="m284.573 413.248.268.205.57.258 4.122 1.388 8.456 2.973 8.647 2.983 5.954 2.057 6.133 2.222 3.139 1.1 13.65 4.65M284.573 413.248l-.168-.38-1.954-8.013-1.475-5.688M426.494 168.955l1.679 6.765M405.293 361.878l-.43-.895M376.927 474.587l1.516 2.111M383.151 459.661l-1.28 2.69-3.26 8.402-1.684 3.834M284.573 413.248l-2.882-1.018-4.625-1.605-.972-.288M383.151 459.661l.489-.461M396.982 447.04l-5.006 2.18M397.643 348.285l-.085.536M137.862 487.218l-4.359-2.767-8.826-5.403-7.223-4.32-4.06-2.37-3.207-1.964M232.59 455.398l-3.75 1.17-23.813 8.167-24.526 8.331-14.408 5-11.887 4.036-9.732 3.01-6.612 2.106M374.071 419.006l.486.269.323.219M232.59 455.398l-.154 1.902-.074 2.216-.268 2.025-.118 1.094.133.93.223 1.054.267.738.803 1.423M140.214 325.14l2.954-3.661 3.575-4.254 2.31-3.102 1.882-2.614 1.618-2.954 1.486-2.967 2.001-3.901 2.06-4.2 1.19-2.953M497.303 334.647l-1.293-.856-.49-.102-2.148-.11-.586-.095-7.489-1.697-29.464-8.059-11.189-3.133-2.087-.548M624.497 287.612l1.717-2.046 11.04-13.697.015-.534-7.726-7.8M521.76 320.157l2.526 1.763 27.532 19.075 18.52 12.859M624.497 287.612l-14.002 16.672-14.146 17.515-12.095 14.722-10.832 13.231-3.084 4.102M521.76 320.157l4.36-5.392 16.977-20.4 7.057-8.519 8.143-9.777 4.16-5.062.95-.41 5.097-.685.862.082.743.41 10.044 7.198 15.216 11.166.43.102 2.816-.506.483-.014.958.13M453.693 418.173l3.61-8.865M523.38 152.264l3.282-4.098M523.38 152.264l-4.806 5.835M521.178 150.794l1.268.882.517.548.416.04M411.466 222.113l5.817 3.949.293.201.22.25.092.294-.628 4.845-.847 6.76-.4 3.12-.735 5.157M530.066 143.916l-3.404 4.25M520.356 139.127h.586l.675.29 1.577.58 1.576.789 2.433.871 1.126.332.495.58 1.242 1.347M526.662 148.166l-1.37-1.16M518.574 158.099l-5.257 6.382M510.752 153.034l3.027.048 1.371.071.88.43.543.356.388.335.337.643.362.833.18.525.234.81.5 1.014M512.822 159.349l.414.476.078.524-.052 1.144v.93l-.052.953.107 1.105M429.043 178.98l-.334-1.035-.536-2.225M415.156 173.711l1.685.126 1.687.253 2.294.578 3.548.759 2.608.65 1.195-.357M429.043 178.98l.938.512M430.93 185.937l-1.092-4.515-.475-1.451-.32-.99M429.981 179.492l.648.354 1.353.957 2 1.174.412.469-.569.813-.765.812-.51.704-.352.524-1.267.638" clip-path="url(#p1bfc26639f)" style="fill:none;stroke:#000"/><path d="m436.982 183.096-.51-.253-.45-.595-.158-.506-.02-1.481-.058-.794-.353-.831-.922-.289-1.176-.127-1.333-.036-1.137.217-.884 1.091" clip-path="url(#p1bfc26639f)" style="fill:none;stroke:#000"/></g><path id="PatchCollection_1" d="m368.136 418.648.163-.067.147-.14v-.145l.13-.11.202-.005.073.11-.022.124.022.336.096.073.14.016.181.088.017.17-.006.177-.028.15-.079.094.09.078.08.145-.08.15-.107.026-.079.088.023.104.118.072.17-.03.275-.156.152-.005.09.114v.119l-.152.125-.58.077-.135-.244-.27-.134-.084-.052-.062-.14-.187-.088-.236-.311-.084-.182-.118-.026-.13.02-.124.042-.304-.093-.135-.083-.09-.202.034-.171.123-.14.242-.114h.192l.186.098z" clip-path="url(#p1bfc26639f)" style="fill:#00f;fill-opacity:.8"/><g id="PatchCollection_2"><path d="m247.077 454.378 17.454 42.24 9.774 23.178 3.892-.117.804 1.948 1.227 1.674 1.989 1.597.931 1.091-2.835 3.194 21.748 16.01 26.063 19.708 6.918 5.04.434-.124 18.431-42.078-.973-.409 3.512-8.433 1.629-7.654-4.126-3.33-2.305-1.89-3.85-2.785-2.814-1.363-1.333-1.383.02-.526-.676-.993-.233-1.052.487-1.5.508-1.694.761-2.337.424-1.422.423-.701-.487-1.48.635-1.15.656-.234.867-.291.465-.974 2.37-3.915 6.452-11.219 1.502-2.552-20.775-19.79-1.357.462-1.212-.537-1.765-.056-1.196 1.474-1.123.593.674 1.528.942-.33-.837 1.129-4.668 2.74-1.87-3.236-.867-1.639-2.992 1.763-5.88-13.814-34.15 7.355-3.262-.303-29.334 6.597zM634.327 580.63l10.668-15.838 1.248-2.79.387-1.068.654-.191 2.199 1.668.594-.082 3.358-6.675 1.13-2.216 1.753-2.653.327-.41.92-.493.7-.11.682.014.595-.301.43-.629.18-.492.504-.37.446-.56.134-.684-.475-.48-.937-.792-.772-.233-.595-.041-.728-.37-.4-.451-1.888-4.596-.193-.506-.387-.37-.727-.3-.907-.164-.594-.192-.46-.26-.224-.451-.015-.52.045-.862-.03-.916.387-.89.386-.615.416-.424.475-.246.342-.069.595.22.311.383.832 1.312.268.452.535.861.327.41.386.343.342.37.713.847.327.41.342.383.43.302.491.191.535.041.49-.164.461-.219.802-.615.58-.712.074-.875.03-.876v-1.162l.104-.985.148-.534.223-.45.149-.466.014-.52-.133-.958-.208-1.025-.178-.506.074-.48.267-.41.64-.219.802.343.416.3.416.274.847.616.446.287.475.26.802.574 1.144.561.476.205.505.26.282.41-.014.52-.372.37-.268.451-.297.438-.386.383-.327.383-.475.26-.506.191-1.322 1.505-.253.451-.178.452-.386.848.297.903-.104.492-.43.342-.462.3-.326.384-.46.274-.566.054-.55.014-.535.04-.534.124-.55.15-.282.424.995.438-.089.48-.357.369-.564.068-.52.15-.03.493.09.492.222.465.297.397.669.314 1.144.178.52.11.52.095 1.025.247.52.109.535.04.505-.177.461-.219.43-.26.402-.328.847-.602.446-.246.995-.383 1.516-.985.594-.41.936-.465 1.858-1.026.505-.192.535-.164.52-.082.52-.178.505-.136.46-.233.417-.3.297-.52.891-.821.075-.506-.03-.507.297-.41.624-.11.52-.123.52-.136.49-.165.996-.505.535-.165.475-.205.536-.096 9.36-6.073.416-.56 5.23-9.207 1.16-2.024 2.05-3.543.104-.52-.253-.534-.43-.656-.729-.63-.46-.3-.64-.343-.43-.56-2.63-3.215-1.605-2.052-1.797-1.75-1.22-.685-3.565-1.82-2.05-.683-1.828-.807-5.899-3.871-2.095-4.665-.906-1.71-.431-.424-4.265-3.666-1.901-3.01-1.412-2.298-2.318-3.05-.371-3.503-.149-.314-6.107-7.018-1.189-1.259-3.209-1.04-3.804-.218-2.734.219-2.08.93-2.674.164h-3.626l-3.387 1.313-1.13-.273-.773-.328-.356-1.314.297-.711 2.615-2.025 7.31.547 1.19.712h.772l.95-.164h2.557l2.02-.493 1.843-.876 1.426-1.422.535-3.612-.595-12.586-1.01-8.099-1.129-5.198-.178-2.681-.238-1.04-1.723-1.314-.417-1.97.773-.766.178-.766-.534-.712-1.19-.054-5.23 5.472-1.664.438-8.202-6.786.179-.985 4.814-6.239 2.259-4.159 1.366-1.586 1.487-1.205 15.57 10.507-.237 1.26-3.982 5.854-.297 1.861.475 6.13 1.427 7.058.772 5.035.654 3.393.714 1.696.059 7.497.891.547-.178.82-1.13 1.752.536 1.86.95 1.806 1.546 1.423h2.14l1.604-1.259h2.08l1.427 1.533 1.307 1.477 1.664 1.149 1.843.985 1.783 1.204 4.22 2.189 1.367 1.477 3.269 2.682 1.485 1.367 1.308 1.587 1.367 1.533 1.723 1.149 1.784 1.148 2.972 1.478 1.901 1.368.892 1.259-7.667 9.137.416.548.713.656-.119 1.095 1.308 1.586 1.485 1.369 1.308 1.531 1.605 1.204 2.615 2.955 1.426 1.477 2.08.493 2.021.328h2.14l1.902-.93 1.307-1.532.773-1.806.95-1.75 1.309-1.752 1.545-1.422 1.426-1.478 1.248-1.642 2.734-5.143 1.308-1.477 1.188-1.642 1.01-1.805 1.368-1.533 2.971-4.049 2.08-2.681 1.13-1.806.95-2.736.833-3.174-1.308-4.706 10.757 6.786-1.248.492-1.664 1.259-1.426 1.532-2.556 2.873-1.278 1.874-1.47 2.093-1.813 2.039-1.233 1.504-.327.424-.253.438-.312.397-.342.382-.327.425-.55.533-.356.506-.357.698-.178.588.06.22 1.203.642.461.22.505.218.431.3.238.452.044.493-.089.492-.208.465-.505.903-.342.37-.49.177-.535.082-.55.055h-.564l-.52-.096h-.55l-.55.041-1.783.848-.847.548-.03.41-.579.916-.149.438.09.766-.461.698-.847 1.436-.475 1.095-.729 1.586-1.515 2.545-.981 1.887-.95 1.629-1.16 1.258-.341.862-.313.615-.088.48.074.492.178.478.193.452.268.437.252.438.357.15.639.643.742.575.952.575.43.273.446.301.46.246 1.219.466.669.19.668.042.654-.082.669-.205.43-.26.52-.15.461.246.223.437.282.342 5.26 2.435 2.363.985 2.392 1.327 2.615 1.56.996.396.683.52.802.574.253.452.357.465.728.232.55.028.832-.137 1.322-1.641.55-.849.074-.314-.341-.041-.179.15-.119.48-.386.34-.446-.287.223-.478.282-.438.312-.41.535-.027.505.081.506-.163.386-.329.505-.588.357-.014.297.137 9.48 5.595 9.33 4.377-3.268 3.61.772.986 1.01 1.75 1.07 1.697 1.486 1.368 1.903.93 2.02.547 2.08.602 1.962.601 1.842.876 2.318 1.642 2.437 1.586 2.08 1.259 1.902.547-.179.82-2.318 4.213-.712-.766-2.08-.875-2.081-.547-1.961-.82-1.664-1.314-2.021-.82-2.496-.165-2.556-1.422-1.545-1.423-1.368-1.587-1.901-.984-1.783-1.04-1.426-1.532-1.784-1.204-2.377-2.353-1.189-1.149-1.307-.93-1.367-1.094-1.724-1.204-1.664-1.258-2.02-.875-2.2.273-2.674.055.416.985-1.307 1.532-2.081-.548-.832.657-2.199 10.56-1.426 1.368-5.706 1.368-1.189-.602-.475-4.104.237-1.97.06-2.079-.535-1.97-.773-1.805-.95-4.541.059-2.025.535-2.08.772-1.914.535-2.243-1.307-.547h-4.398l-2.14-.274-2.02-.711-1.13-.821-2.436-.164-3.15 1.04-4.815 3.118-3.15 3.994-1.188 2.627-1.368 2.517-2.139 1.75-8.38 3.229-2.793.82-.773 1.806-1.308 1.532-1.783 1.04-2.02.656h-2.2l-4.041 1.423-1.664 1.258-1.962.93-.832 1.806-1.307.711-1.04.247-.565-.575-1.07.027-1.01.328-.862.63-.832 1.231-.565.793-.089.63-.267.574-.81.331-.528.462-.089.301.115.318.213.15.419.41.145.117.149.086.196.164.22.096.133.464-.007.326.279.382.464.02.453.928.713.232.922.178.698.287.728-.027.832-.164.817-.287.713.054.684-.082h.163l.194.78-.402.191-.565.041-.534.11-.49.232-.536.123-1.114.137h-.535l-1.04-.246-.55-.04-.55-.097-.787-.205-.46-.246-.402-.342-.104-.506-.193-.479-.4-.328-.506-.205-.55-.178-.55.014-.565-.616-2.897 2.38-.223.451.832.63 1.887 1.545-.594 1.929-.416 3.693-.223 1.49-.713.644-3.774 2.735-.134.384.268.437.683.027 3.298-1.504-1.485 5.444-.268 1.04-.772.93-1.1.136-.891-.602-.327-.93-1.1-.082-.95-.492-.15-.985.06-.985-1.01.438-.95.547-.952.492.327.93.713.766-.178 1.012-.684.767-1.04.41-.98.52-1.01.41-1.517.793-.98.492-.802.74-.654.82-2.853.985-1.545.766-.862.547-.832.574-.832.711-.951 1.094-.416 1.122.416 1.313.06.903-.595 1.45-.95 1.23-.328 1.095-1.634 2.818-.327 1.641.327 2.27.98 1.751 1.248 2.052.09 1.285-.179.739 1.516.219 3.12-2.49 5.23-7.495 1.367-1.696 2.08-.656 1.843 1.914-4.755 7.824-2.615 5.854-2.08 1.504 1.426 2.38-1.01 2.353-1.248 1.805-.595 2.9 1.249 3.064 1.604 1.367 1.13 1.45 2.02.41 1.932-.11 2.228.165 1.308.246 1.16-.602 1.663.548 1.635.766 5.393 2.051 2.259.63 1.47-.37 1.175.04.535.945.015.601-.981.397-.966.055-.862.246-2.749-1.121-5.349-1.697-1.782-.3-1.992.054-1.188-.71-1.576-.056-1.812.165-2.466.328-2.437-1.067-7.49-2.298.06-1.75.238-2.517-1.13-3.501-2.347-5.854-2.852-3.912-.09-.793.149-1.258.208-1.286.149-.985-.03-.93-.327-.903-.357-1.094-.09-.739v-1.176l-.95-.574-.683-.219.743-3.967.386-2.133-.06-1.259.268-.93.357-.738-.03-1.04-.327-.93-.386-.93-.505-.903-.832-1.286-.179-1.45.356-1.121 5.588-3.228.118-.574.06-.82-.327-.767-.922-.684-.95-1.067-.743.766-.921.11-.505-.958-.179-1.04-.387-.902-.475-.93-.624-.82-2.496-1.752-2.08-1.504-1.724-.82-1.1-.63-1.485-.164-1.843.383-1.159-.082-1.188-.356-.95-.52-1.16.055-1.426.027-1.754.328-1.575-.3-.238-.958.535-.848.297-.903-4.011-2.735-1.991-1.696-2.497 2.763-.683-.302-6.181-6.264-12.868-12.502.743-1.012 1.664-1.67-.445-1.203-4.487-4.897-.862-1.806.267-.957 2.764-2.708 1.664-1.724.179-.547.386-.93-.03-1.122-.386-.985-.803-.93-1.277-.958-1.19-.382-1.633-.575-1.01-.492-1.427-1.259-1.308-.656-.921-.602-1.189.191-1.159.219-1.486-.246-.297-1.204.06-.985.92-1.778-.148-1.258-.446-.903-.921-1.095-1.07-.848-1.159.602-.862.684-.98-.055-.684-.875-1.248-1.313-3.12-2.025-.98-1.15-.357-1.148-.267-1.833-.595-2.216.297-1.45.743-1.34.327-.822.95-1.367.239-.93-.149-1.15h-.773l-.326-.848.683-.739-.09-.766-.683-1.039-.297-.848-.416-.684-1.07-1.204-.564-1.423-1.338-2.189-.059-1.286-.862-1.149-1.188-1.121-.951-1.15-1.278-1.504-.892-.712-1.664-.903-1.159-.766-.356-1.313-.98-1.121-1.16-.958-.892-.684-.832-.958-.089-1.176-1.396-2.463-.297-1.066-.892-1.369-.98-.41-.09.383-1.07.711-1.485-.218-.12-.985.684-1.095-.683-.766-1.665-.957-.862-.74-.832-.738-1.307-.137-1.872.575-1.04.164-1.605.137-1.07.136-1.04.22-2.199 1.012-1.783.492-1.337.137-1.159.082-1.664.137-1.991-.192-1.694.247-1.218.082-1.278-.766-1.427.219-1.129-.657-1.278-.192-1.188-.082-1.724.438-.98.793-1.04.384-1.279-.766-.891-.74-1.01-.355-1.338-.164-1.07-.164-1.812-.356-1.07-.356-1.01-.41-.654-1.313.386-.958.506-.875.89-1.67 2.051-.11 1.783.411 1.07.41 2.08.575 1.01.329 2.646.63h1.753l.624.765.624.794.921.547.95.465 1.903.383 1.13.137 1.128.219 3.09.684 1.041.055 1.04-.137 1.07-.247 1.07-.3 1.1-.164 1.099-.247 1.04-.274.98-.3.952-.384 1.07-.054 1.04-.22.95-.437 1.902-1.204 1.426-.656.595-1.04.565-1.067.416-.985.178-.958-.416-2.517-.565-.82-.564-1.15-.268-1.04-.09-1.012v-1.012l.06-1.587-.475-2.737.06-1.04-.09-1.175-.148-1.095-.297-1.204-.238-1.587.475-2.435.951-1.177-.089-2.024-.743-1.533-.208-1.04-.564-.957-.892-1.231-1.218-1.067.535-1.259-.416-1.368-.655-.465-.445.547-1.1.41h-.446l-1.129-.82.119-1.368-.891-.876 5.884-5.199 1.04-1.751.386-1.97.267-1.204-.416-1.395-.802-.986-.52-.889-.297-1.422-.223-1.464-.267-1.506-.416-1.45-.595-1.49.03-1.574-.356-2.025-.536-1.067-.446-.93-.772-1.26-.743-1.258-.743-1.122-.921.22-.743.683-1.397-.82-.475-.165-1.189.657-1.159.301-.713-.547.178-.356 2.11-.547.327-.821-1.248-2.025-2.348-4.87-1.278-1.862-.713-1.724.297-1.45.15-.492v-1.012l-.655-1.068-.624-.793-.95-.74-.862-.683-1.189-.794-1.01-.41-1.16-.602-2.08-.41-1.545-.247-1.129.028-1.07-.11-.713-.875-2.377-1.478-4.161-1.943-3.655-1.642-1.307-.493-2.586-.903-1.486-.547-1.753-.437-2.2-.247-1.782-.219-2.972-.465-8.588-1.833-6.21-1.505-14.265-3.612 1.813-5.802 4.07.767 14.235 3.256 15.512 3.612 1.01-.082.536-.082 1.932-.465 1.07-.082 1.07.191 1.01.22.98.328 2.883 1.258.891.684 1.07.794 1.13.438 1.812.273.802.657 1.159 1.177 1.13.438 1.694.273 1.07.028.178-1.287.445-.875.505-.93.476-.904.565-.848.89-1.094.655-1.78.267-1.477-.178-1.04-.119-.985.267-1.204.773-.41.803.109.564-1.259-.267-1.286v-.766l1.07.219.742.766.327.93-.416.958-.475.876-.386.93-.416.93-.298 2.162-.327.958-.416.903-.416.958-.357.958-.445.903-.564.848-.536.876-.802 1.176-.267.958-.06 1.04.119 1.286.624.794 1.16.793.95.548.862.574.713.711.743.931.624 1.259 1.218 1.067.744.875 1.901 1.97.595.849.98 1.505.832 1.149.743.821.684 1.286.653.766.952 1.067.653.794.684.848.475 1.369.832 1.313 2.17 2.27 1.426 1.588.624.82.535.822.416 1.122.208.766-.713.93-.297.958v.985l.832 1.888-.03 1.012.208 1.259.595.82.623.767.595.616 1.01.219.832-.123 1.07-.972.654-.697.594-.671.847-.397.817-.164.862-.889 1.01-.547.565.464-1.085.972.253 1.149-.595.301-.594.794-.743.739-1.01.41-.476.957v.986l.297.711.803-.055.356-1.34.981-.466.773.438-.446.999.045.835.297.93-.12 1.163-.103 2.503-.208 2.764-1.13 5.472-.207 3.174-.149 4.597.565 2.9 1.159 4.46 1.278 2.517.118.466-.445.41-1.337 1.56-.416.93-.536.848-.416.93-.326.958-.149.985-.06.985.327.93.06 1.998.534 1.012.09.985-.09.985.298.52.624.793.832.602.95.493 1.041.137 1.486-1.04 1.1.191.593.766.179 1.122-.743.766-1.07.41-.207 1.369.653.82.595.794 1.159-.41 1.366-.11.684.739.416 1.122.208.957-2.645 3.42-1.753 2.517-.119 1.122.684.876.653.766.624.82.565.821.594.821.446.958.416.93.684.958.505.328.862.684.891.492.921.465 1.13.137 1.04-.219 1.1-.437.92.355.506.767.475 1.531.475.931.535.492 1.219.712.862 1.504.535.876.534 1.067.03 1.04-.327 1.23-1.248 1.232.505 2.353.98 1.75.892.931 1.13 1.094.208 1.286.148.985.09 1.231v2.189l.326 2.189.149 1.067.445.875.327.93.12 1.04-.387 1.505.446.875.653.793.862.493 1.07.219 1.456.082 1.427.438 1.218.465 1.724.602 1.04.3 1.04.22.95.437.833.41.03.876-.238 1.04-.684.793-.98.492-.862 1.369.475.656.981.821.149.985.653 1.176.98.985 1.546 1.012 1.1.247.119-.055 1.396.082.862.52.624.793.713.739 1.664-.52 1.427 1.259 1.07 2.352-.03 1.012.356.903.536.876.772.738.683.821 1.16 1.177.534.848.298.902v1.34l4.16 6.047 1.664 1.614.595.602.445 3.228.832 1.887.417.985.594 2.19 2.496 2.844.565.219 1.782-1.888 11.977 7.824 1.694.766 2.644.82 2.437 1.013 5.14 1.669 1.309.793 1.277 1.094.595 1.122-.535.985 1.04-.028 1.04.22-.119 1.012-.773.738-.416.903.357.957.803.657.802-.63 1.07-.984 1.04.055.95.383.357.875-1.515.848.326.93zM613.971 743.162l-2.437-.684-1.307-.218-1.13-.055-1.07-.082-1.069-.247-1.07-.273-.95-.437-.981-.383-1.01-.274-2.08-.492-1.13-.028-1.665.383-1.337.027-1.159-.52-1.188-.6-1.249-.22-1.188-.273-1.456-.465-1.04-.383-1.1-.3-1.01-.493-.773-.711-.683-1.75-.268-.985-.327-1.258-.475-.903-.624-.875-.832-.711-.981-.356-1.07-.136-1.1.027-1.158-.027-1.575-.192-.832-.41-1.219-.574-1.129-.356-1.515-.274h-1.1l-1.07-.191-1.04-.246-1.13-.11-2.288-.41-1.158-.738-.506.055-.356.902-.505.957-.921.575-1.13.082-1.07-.356-.98-.356-.862-.656-.684-.739-.475-.93-.386-.93-.535-.874-.951-.438-1.13-1.395-.772-1.012-.773-.957-1.842-1.176-.416-.93-.95-1.942-1.279-1.669-.654-.93-.742-1.258-.506-.875-.535-.848-1.218-1.23-.208-.903-.119-.301-.892-.711-.92-.547-2.021-.93-.981-.492-2.05-1.34-.981.19-.892-.546-.178-.63-.149-1.039-.356-.957-1.397-1.56-.832-.71-.713-.739-.684-.766-.89-.52-1.1.138-.833.355-.446.903-1.1.219-1.128-.465-.98-.438-1.07-.41-.981-.493-.892-.52-.713-.765-.327-.958-.327-1.777-.862-.93-1.842-1.04-.594-.711-1.07-1.066-.624-.849-.892-.629-1.13-.41-.504-1.204.059-.957-1.129-1.094-1.189-.137-1.545-.054-1.545-.93-.595-1.614.298-1.805-.09-2.544.06-1.149.357-.93.178-.984v-1.04l.118-1.012-.237-1.614-.09-1.04-.385-.93-.476-.875-.624-.848-.684-.765-.861-.602-.744-.711-.683-.793-2.229-1.368-2.05-.93-2.229-1.313-.891-.575-.922-.847-.832-.711-.743-.767-.713-.793-1.575-1.504-.832-.739-.891-.52-1.605-.793-1.545-.984-1.873-1.887-.861-.657-.892-.711-1.218-1.012-1.367-.684-1.16.191-9.746 10.203-4.666 5.006-4.754-4.541 4.903-4.103 4.635-4.65 3.091-2.763 2.704-1.97 1.13-1.257.208-.876-.179-.52-.623-.902-.625-.875-.594-.876-.595-.82-1.04-1.013-1.069.356-.535.848-.862.575-1.664.52-1.872-4.487-1.13-1.641-1.396-1.286.891-.957 1.575-1.368.565-.52-.476-.574-.861-.63-.595-.847.387-.903.89-.601.536-.849-.327-.93-1.1-.055-1.099.137-1.1.246-1.723.985-.98.466-.298-.63-.148-1.012-.387-.93-1.13-.41-1.217.82-.595.848-.862.63-.623.793.029.985-.09 1.039v.985l-.475.875-.98 1.395-1.427.574-1.128.165-1.605-2.08-.862-.081-30.638 19.312-14.948 9.573-1.902-6.045 21.278-12.555 17.622-11.024 8.915-5.525.89-.712-.177-.629-.892-.328-1.129.164-1.07.192-.98.383-.951.437-.803.63-.921.601-2.14.903-1.01.355-1.04.329-1.04.273-2.645.082-1.13.164-1.515.301-1.01.547-1.1.575-1.753 1.176-.95.547-2.319 1.669-1.01.766-.743-.602-.535-.903-.684-.793-1.07-.274-1.099.301-.891.602-1.04.301h-2.26l-1.098-.11-1.04-.191-1.01-.383-1.011-.3-1.694-.876-2.02-.575-1.695.274-2.169.739-6.003 4.677-3.447 1.477-4.785-10.394.328-.356.891-.547.862-.684.98-.328 1.07-.11.98.383 1.07.219 1.04.137 1.041-.082 1.1-.137 1.099-.11 1.01-.355.922-.492 1.04.273.98.438.862.602.951.547 1.932 1.258h2.11l1.04.192.98.273.981.328.891.493.98.41 1.011.273 1.1.083 1.07-.11 1.01-.273.981-.41.95-.466 1.07-.219 3.329-1.039.98-.355 1.011-.384 1.07-.164 1.04-.137h1.07l1.07-.027h1.04l1.07.082 1.07.055h1.069l1.1-.11 1.04-.19 1.01-.302 2.407-1.285 1.605-1.423 1.159-.328 1.01-.246 1.04-.164h1.13l1.04.054 1.07-.082 1.069-.11 1.04-.081 1.07.027h1.04l1.961-.656 2.913.054 1.456.356.832-.684-.03-.52-.654-.82-.95-.547-.624-.821-.298-.93-.564-.848-1.04-.274-1.01-.328-.893-.575-1.634-.218-.892-.766-1.248-.492-.564.82-1.1.164-1.04-.218-1.04-.274-.921-.52.476-.903.594-.82.98-.739.238-.52.743-1.476 1.457-.274 1.366.574.357 1.15.921 1.175.95.52 1.011.219 1.04.137 1.902-.93.922.355.208.958-.535.875.743 1.669 1.248 1.149 1.367 1.531 1.278.958 1.01 1.586.92 1.204 1.576 1.258.892.082.832.876 1.01.875.921 1.97.773.765.713.274.03 1.286v2.024l.208.957.653 1.806.833.738.445.903.179.3.386.903.535.876.594.793.595.876.654.765.832.63 1.396 1.86.595.847.564.848.803.575 1.01.3 1.04.274.862.575.475.875.505.875 1.278 1.614.743.739.802.684 2.051 1.914.862.602.862.547 1.01.328.921.493.743.766.713.766.803.628 1.634 1.231.862.63.802.684.803.656 1.842 1.121 1.278.958 1.01.492 1.01.383 1.04.164.951-.355.952-.41.713-.766.862-.74.445-.902 2.586-3.556 1.902-3.145.564-.958.535-.93.535-.82.535-1.642.594-1.559.476-1.094.416-.985.297-.93.327-.957.773-2.407 1.396-2.763.386-.465 1.427 1.505-.268.601-1.396 2.709-.268.957-.238.957-.475.93-.089.794.208.985.06 1.012-.179.984-.476.93-.534.957-.535.876-.506.903-.505 1.012-.653.847-.535.876-.594.848-.446.957-.506.93-.534.875-.505.903-.416.903-.625.875-.683.82-.713.794-.535.848-.297.957-.387 1.86.06.985.356.93.15 1.04.326.93.564.82.386.902.06.985.267.93.416 2.407.179 1.258.119 1.012.594 1.915.238.957.297.93.416.903.535.82 1.337 2.544.624.794.713.71.803.712.92.601.981.41.981.439 1.04.245h1.07l1.01.411.892.492.832.602.743.711 1.872 1.669 1.01.492.982.383 1.099.191 1.01.329 1.01.437.981.438.833.602.712.765.654.793.654.767.683.738 1.1 1.559 1.248-1.586.891-.356 1.07 1.094.506.903.445.93.446.902.595.82.891.603.773.738 1.485 1.641.654.738.475.876.268.957.12 1.012.623.82.624.739.684.766.743.739.623.847.743.903.862.629.892.574.862.602.89.602.833.629.803.63.862.6.802.602.832.684.773.602.861.574.892.52.802.629.951.465 1.04.273 1.1.247 1.1.137.356-.028 1.1.3 1.04.247.95.465.892.52.832.601.921.548.921.491 1.01.302 1.04.164h1.07l1.07.027.892-.602 1.812-2.188 3.091-5.197.505-.054 1.04.219.862.52.862.656.743.793.208.383-3.744 4.157.475.493.684.382v.985l.118 1.04.268.984.357.957.296.93.744.712 1.634 1.53.862.63 1.01.274 1.1.054 1.04.082 1.1.055 1.04.273.891.547.98.493.981.574 1.01.438 1.07.027 1.07-.137 1.04-.246 1.1-.192h1.07l1.13.247 1.544.246 1.01-.328.922-.438.446-.355 1.486-28.856-.476-1.395-3.002-4.13-2.793-.984-11.352-1.532 12.095-35.284-.773-.493-2.08-.437-1.902-.93-2.02-.766-2.08-.492-1.962-.767-2.199-.82-.653-.055-.892.63-.922.793-.802.875-1.159.82-.802 1.26-.773 1.312-.208.875.298 1.422-1.01.356-.417-.985-.178-.984.357-.93.593-.903.714-.766.624-.82.624-.794.654-.875.653-.766.922-.574.802-.465h1.04l1.07.027 1.04-.22 1.189-1.065.921.109 1.01.355 1.04.22 1.1.273 1.129.137h1.04l1.04-.137 1.07-.192 1.01-.3 1.04-.411.833-.629.683-.766.625-.793.89-.547 1.011.109.98.656.863.438.445-.273 3.418-6.729-.208-.793-.268-.766 1.546-3.365.832-1.176 1.129-.136 1.01-.247.98-.3.803-.63.267-.984-.029-1.888-.803-1.286.12-.738.594-.219h1.1l.653-.739.357-.93.564-1.97.357-.492 4.101-.273 4.279 1.313-.802.957-.416 1.067-.327.383-.892.574-.921.465-.891.575-.595.82-.445.93-.505.903-.714 3.584-.624 1.395-.297.93-.386.902-.684.793-.921.603-1.961.984-.921.574-.714 1.204-.238.985-.296.957-.416.93-.506.93-.476.957-.207.958-.625.82-1.337 1.45-.297.957-.148.985.089.492 1.01.712 1.07.738.03.958.237.93.178.957v1.012l.12 1.97-.565.82-.892 1.04-.445.902-.06.985.297.957.208.958.03.984-.238 2.08-.862 1.859.06.985.713.738.386.903-.356.93-.476.875-.327.93-.475.902.595 1.313 1.04.274.831.574.12.985-.09 1.012.297.93 1.338.875.237 1.997.15.985.207.984.267.957.446.903.624.82.06.986-.208.957-.535.902.386 1.532.356.984.268.958.238.985.208.957.238.957.208.985.238.984.089 1.04-.209.711-.89.547-.388.958v.984l.446.93.565.82.594.82.238 1.013.178.957.595.712.535 1.86.03.984.118.985.03.984-.357 1.942-.445 1.094-.862.684-.892.601-.743.712-.386.93-.178 1.039.178.957.416.301 1.16-.547 1.544-.164-.653 1.121-.179.985-.118.984.386.93.713.739.862.465-.743 3.829-1.664-.547-1.13-.028-.95.575-.862.601-.535.848-.476.903-.861 1.86-.298.93.327 1.012.535.71-.03.985-.98.629-.595.52 1.397.903.713.738.268.984-.505.876-.98.464-1.843-.246-.892 1.395-.921.575-.892.574-.564.82-.416.766.713 1.067-.179.957-2.05-.766-.564.876-.565.847-.476.903-.564.903-.416.984-.505.902-.595.794-.446.875-.237.656-.506 1.094-.683 2.298.03.902h.624l.98-.356.981-.273.951.41.238.985.09.985-.447.93-.832.628-1.07.22-2.288 1.093-1.427.3-1.04.247-.742.684 1.426 2.379.179.957v.957l-.15.958-.594 1.258-.802.765-.862.739-.861.683-.684.766-.921.52-1.07-.082-1.1-.028-1.099.11-1.07.164-1.07.246-1.04.274-.921.52-.713.738-1.664 1.668-.684.82-.535.82-.237.985v1.942l-.12 1.997-.207.957-.268.957-.594 1.586-.268 1.395-.356 1.34-.803.684-.98.41-1.04.328-.714.738-.296.985v1.996l-.952 2.133-.862.739-1.1.054-1.069.22-.891.574-.625.792-.029.766 2.05 1.04.684 1.203-.09.684-.653.52-.951.026-.238.985-.089 6.317-.03 2.981-1.129 1.914-1.01.766-.654 2.27 1.189 1.285 1.486 1.039 1.485.356 2.705-.055-1.189 1.86-2.11.492-.178 1.066-.892.22-.921-.384-1.04.711-1.337 6.673.564.793 2.823.191.268.41-2.794 2.024-.267 2.407-1.1 3.445-2.02.492-.565 1.176-.92 1.45-2.022 1.777-3.388 3.09-4.546 3.801-1.753 1.012-3.507.355-2.17-.246-.653 1.86-1.99.136-1.666 1.504-1.634.794-2.377.382-2.437.246-1.218 2.024-3.12 8.887.059.684h.743l1.04.383.356.464-.98 1.996-.951.383-1.694.028-2.258 2.187-2.14 1.64-2.823.684-3.09.766-2.705.274-5.409 2.27-.861 2.296-1.962 2.215-2.11 1.313-1.426-.274-2.466 2.215-2.616 1.149-1.96 1.476-.447 2.789-.623 4.649-.535 4.73-6.33 3.473-4.576 3.965-2.764 2.132-4.636 2.899-3.863 1.914-1.783 2.023-1.308-.082-.95.738-2.675 2.79.357 1.831.564 2.078-1.575.41-1.308.52-3.387.847-.684 1.97-1.307 2.241.624 1.176-1.07.82-1.189-.3-.297-.875.06-2.297-.387-1.805-.653-1.832-.416-1.367-.06-1.312-.98-3.008 1.456-.656 1.04 1.777 1.901.957 1.397-.273 3.358-5.25 1.545-2.215 3.299-1.367 2.556-1.367.95-2.05 2.2-1.779 2.972-2.898 1.96-3.883 1.991-.792 1.16-3.31.445-.792 5.38-3.309.385-2.707.476-2.652.892-3.91.445-3.637 1.189-1.64 1.783-2.571.802-1.313 2.318.656 1.367-.027 1.427-1.395 2.139-1.175 2.972-1.45 2.496-3.117-.178-2.488-1.19-5.77-1.396-3.719-2.972-3.637-.564-1.45-4.398-4.347-6.508-3.61-10.163-6.016-4.933-2.543-4.042-1.586-6.27-4.594-6.567-4.731-9.094-6.29-7.934-5.47.297-1.011-4.101-3.2 1.902-4.43.267-.957-2.674-3.583.386-1.422-.95-1.804-2.348-1.094-2.378-1.313-1.04-2.16 1.189-2.544 1.367-3.828 1.307-2.763 2.734-1.45 3.24-2.351 6.716 5.278-2.08 3.09 4.576 3.118 6.478 4.786-3.715 9.736-1.574 2.898-.566.028-4.754-3.063-1.188-.219-1.605 1.86 1.664 3.172 3.536 4.485 8.826 5.88 3.298 4.02 1.16-.986 7.102 3.255 3.03 1.176 1.427 2.133 1.575.52 8.945 5.742 8.707 4.458 3.685 1.367 1.902 1.039 5.082 4.567 3.298 3.199 3.893 4.32.475 1.423.15 6.426.95 3.008 1.397-.602 4.19-2.707 2.02-1.778 2.794-6.7 7.548-4.73 3.596-2.598 1.396-2.625 2.497-3.336 2.318-2.625 3.298-1.012 2.348.137 1.901 2.05 1.724 4.731 1.456 2.188.595-.164 6.418-11.977 2.675 1.832 1.278-3.063 1.545-1.805-.178-1.312-2.2-1.86-2.674-2.16-11.262-8.724-10.788-7.411-7.518-5.715 9.688-1.805 11.59 8.56 12.718 9.215v-.71l-1.456-6.427-1.397-1.313.268-.848 3.863-3.418 4.814-4.567-.267-1.504-.862-.547-1.456-.738-.951-1.259-1.813-2.652-4.071-3.884-2.972-3.691-2.199-1.094-2.11-5.497-2.05-5.251-2.764-1.122-.297-1.777-.535-2.27-1.783-1.504-1.1-1.887-4.04-3.802 1.217-1.367 6.27 4.786 2.318-2.489 1.457 1.203-2.794 3.61 1.397 4.184 1.248.356.892.739 1.1 1.64 2.496 6.591 2.793 4.185 1.724 1.613 2.02 2.434 4.28 2.626 1.336-1.942.654-.82.268-.985v-1.012l-.06-.984.119-1.04.297-.957.565-.957.475-1.45.625-.793.98-.273 1.04-.191 1.04.273 1.07.082.951-.465.743-.766.683-.738.506-.848-.416-.957-.862-.766-.773-.766-.06-.984.477-2.133.326-1.04.506-.902.683-.984.446-1.176-.565-1.012-.208-2.16 4.487-8.342 3.061-3.282 6.092-8.096.891-.93 1.13-.273.921-.082.802-.192.98.438.833.63 1.04.163.802-.628.357-.93.208-.958.297-.957.535-.93.713-.739.832-.573.952-.52.86-.52.834-.629 1.04-1.012.564-.82.446-.93.505-.93.416-.985.12-.985v-.984l.177-.957.773-1.45.148-1.203.12-.82zM232.584 352.557l3.507-4.434.535-.328 1.04-.164 1.546-.274.742-.82 1.784-1.779.862-.63 2.525-1.641 1.04-.74 1.01-.164 1.338-.027 1.664.11 1.01.191h1.07l1.04.028 1.04.246 1.04.054 1.338-.191 1.04-.301 1.545-.219 1.13-.11h1.07l1.129-.136 1.723-.356 1.159-.082h1.07l1.218.876.743.875.921.794 1.16.274 1.129.027 1.872-.246 1.159-.055 1.337-.219h1.07l1.575.465 1.01.493 1.13-.083 1.426-.273 1.189-.52.772-1.478.297-1.313.951-2.025.743-.712 1.16-.492 1.04-.274 1.693-.63 1.545-1.203.714-.767 1.158-1.286.654-.848.951-1.286.535-.82 1.01-1.479.12-.985.089-1.094-.476-1.04-.892-.575-.92-.52-1.397-.602-1.368-.383-1.158.191-1.516 1.068-1.723 1.45-1.605 1.67-.802.848-1.516 1.641-.535.849-1.04 1.15-2.11 1.367-2.14.876-1.129.492-.921.52-.892.685-.95.492-1.04.329-1.07.246-1.04.301-.952.492-1.04.438-2.11.547-1.07.165-1.069.055-1.07.027h-1.13l-1.099.137-1.485.164-1.516.027-1.13.11-1.099.136-2.704-.246-1.545.082-1.337-.246-1.07-.356-.921-.63-.03-1.012.623-.793.803-.712.684-.766.653-.793.535-1.232.803-.712 1.04-.245 1.158.081 1.932.192 1.813-.164 1.753-.465 1.01-.41.981-.439.951-.437.714-.931-4.963-5.2-.09-.355 1.19-1.614 1.099-.958 1.01-.986.327-.82-3.863-4.106-9.777-11.684-7.875-9.305-7.459-9.578-4.458-5.884-18.245 4.57-8.975 10.344 4.458 8.566 1.931 3.859-.178.739-5.617 6.978-3.447 2.737-1.07.574-.773.356-.475-.164-.773-.958-.653-.793-.803-1.04-.861-1.314-.684-.684-.594-.903-.654-1.013-.773-2.162-.297-1.149-.386-1.122-.803-3.093-.564-1.231-.327-1.15-.357-.93-.505-1.423-.535-1.313-.445-1.67-.06-1.067-.356-.985-.595-1.314-.624-1.915-.06-1.478v-1.724l.03-1.286-.178-1.478-.743-.931-1.189-.657-2.526-1.833-1.723-1.013-1.129-.848-.832-1.067-.803-.74-1.189-.492-1.158-1.259-.624-1.122-.446-1.012-.595-.821-.861-.904-.892-.52-1.07-.657-.832-.602-.386-.903-.802-.739-1.16.247-1.04-.055-1.159-1.724-.326-.985-.98-1.424-.774-1.067-.564-.876-2.17-2.982-.92-1.615-.654-.767-.595-.848-.713-1.095-.446-2.627.06-.876.416-1.423.713-.958.743-1.067.684-1.04 2.852-4.16.803-.794h.683l1.01.383 1.07.329 1.01.383 2.08.821 2.438.903 1.07.41 1.723.466 1.04.301.802.164 2.853.356 1.13-.164h1.04l1.04.055 1.04.164 1.04.11 1.367.163 1.604.137 1.368.383 1.129.548.92.547 1.368.903 1.248.876.595.794.416 1.204.89 1.15 1.13.273h1.219l1.515.219 1.338.055 1.426-.137 1.218-.247h1.07l8.529-.218 7.666-.41 1.07-.302.595-.22.238-1.367-.416-.958-1.635-.329h-1.1l-1.1-.055-1.812.082-1.723.329-1.07.164-2.764.11-1.07.191-1.07.028h-1.158l-1.13-.028h-1.099l-2.11.438-1.07.11-1.07-.028-1.04-.273-1.1-.137-1.04-.274-1.04-.301-.683-.821-.327-.93-.416-2.409-.445-.766-23.625-12.316-1.04-.356-1.011.137-.951.52-.772.684-1.248.356-.595.11-.09.492-.237.52-1.159.137-.802.63-.565.848-1.1.055-2.169-1.533-4.873-7.061-7.34-7.554-.684-.055-4.814 2.3-1.426.82-.417.712-4.813 9.634.267.684 13.343 8.84 1.01.794.149.82-.208.986-.297.958-.268.958.594 1.888.09.548-.149.3-4.606 1.314-5.824 5.063-3.21 5.173-3.298 7.088-3.745 9.414-1.456 5.556-.862 2.161-2.11 5.501-1.426 2.053-1.486 2.162-1.545 1.231.118 1.533.416.684.298 2.517-.149 1.56-.178.958-.148 1.341.171 1.315 3.126 2.079.328-1.341.356-1.26.238-1.148.327-.958.594-1.286.476-1.177.594-1.861.505-1.314.387-1.97.505-1.806.089-2.08v-1.34l.089-1.588.416-1.15.387-1.177.772-2.244 1.04-2.216.773-1.04.535-.903.445-.958.536-.876 1.1-1.259.801-.602 5.884-7.58 5.052-5.72 5.498-7.061.446-.055 1.931 2.19.595.656.743.684.653.821.713.767.773.656.862.603.772.602.15.383-.268.821-.416.903-.595.821-.832.63-.475.656.118.684.268.603 6.003 2.435.446.876-2.646 5.282.12.903 5.735 3.722.594-.246 1.991-3.86.298-.492-.506-.3-1.783-.904-1.277-.848-.684-.766 1.01-.794 2.05.328.952.438 1.04.247.327.903.149.985.92.52.951.492 1.01.274 1.695-.11.594.383.208.165-.06.903.06.985 1.396.657 1.07-.055.951.465.862.63.743.739.06.328-.238.602-.95 2.217-.387.958-.06 1.149.476.876.564.849.476 1.286v2.08l-.09 1.094-.297.986-.356.93-.773.739-.832.602-.564.82-.15 1.04.477.85.89.492 1.011.273 1.04-.11.744-.793.712-.711.684-.767.624-.82.951-.411.832.574.594.794.565.821 1.724 2.162.891 3.448.713 1.67 1.278 3.366 1.13 2.6.564.848.654.739.773.684.772.739 1.189 1.477.297.766v.849l-.476 3.585-.148 2.353.267 1.45 1.932 2.901.95 1.916 1.13 2.134 1.427 1.533 1.664 1.149 1.07 2.682.296 1.806.12 1.97-.654 1.97-.892 1.86-.475 1.971-.297 3.174-1.19 2.354-.296 2.08-1.308 4.706-.594 1.916-.713 1.86-1.01 1.752-1.903 2.681v3.229l-.535 1.313-.059.986 2.14 2.353.832-.602.356-.821.297-1.916-.416-1.915.476-1.97.891-1.751.773-1.861 4.457-11.383.357-1.533v-1.97l.178-.876 1.07-.985 2.2-2.9.594-1.15 1.605-.438 1.07-.711h1.723l3.982 1.751 4.16.876 1.961.547.12.548-7.549 7.333-.297.821 5.706 4.324 6.657-4.871 1.485 1.313 1.545 1.423 1.19 1.587 2.198 2.135 1.902.875 1.723 1.095 1.784 1.15 1.664 1.203 1.07 1.752-4.755 4.87.119.657 11.411 9.85 7.608 8.319-1.19-6.567.833-.712.653.384 1.605 1.258 1.784 1.095 3.268.328 5.468.93 3.388.11h2.08l2.08-.055h1.664l.713 2.736.773 1.806.476 1.97.416.766.95 1.04 1.962-.054.595-.438.177-.93-1.307-1.642.238-2.025 2.318-.93 1.367.273 1.783 1.15 1.723 1.204 1.902.93 2.14.273 2.318-.11 2.08.056 4.814-1.04 1.665-1.204 1.485-1.204 1.545-.82.654-.822 1.01-.766.12-.712-1.19-.546h-.95l-1.962.766-1.901.875-1.546 1.423-1.96.93-2.32-.602-1.485.657-2.199-.274-2.08-.71-1.842-1.04-2.853-.493-1.664-1.314-1.486-.875-1.13-1.916-.653-1.204-.535-.657-.595-.601-2.11-.41-1.158.109-1.16.574-.505.11-1.099.602-1.07.492-1.129.274-1.546.055-1.158-.247-1.278-.383-.981-.492-1.218-.876-1.248-1.86-.773-.33-.98.494-.714.63-1.07.053-1.04-.273-.92-.547-.893-.602-2.733-2.983-2.764-4.597-1.189-4.488-1.426-2.462-.624-.192-1.843 1.314-.772.191-12.63-11.602zM581.431 9.275l.238.74.416 2.71.238 1.286.148 1.068.149.986.089.903.119 1.56.119.822.267.794.535 1.368 1.04 2.437.832 1.205.476 1.04.208.493.237.52.268.52.327.466.297.492.386.438.386.41.743.904.387.41.327.466.357.438.416.41 1.337.576 3.893.712.564.191.594.137.536.247.505.3.475.357.505.328.476.356 3.714 2.71 1.694 1.205.387.438.475.328 1.605.74.535.218.564.22.565.136.594.164 1.1.439.564.246.535.219.595.219-3.21 3.778-.089-.438-.891-.821-.506-.384-.505-.301-.535-.3-.534-.33-.536-.383-.505-.383-.535-.301-.535-.438-.505-.329-.98-.74-.565-.355-1.13-.63-.534-.382-1.1-.685-.564-.274-.535-.301-.535-.274-1.694-.766-1.604-.821-.536-.247-.535-.3-.564-.192-1.189-.439-.565-.218-.623-.165-2.526-1.04-1.694-.821-.595-.275-.564-.245-.595-.247-.594-.274-.594-.191-.595-.247-.564-.246-.565-.22-.564-.273-.565-.328-.565-.302-.594-.273-1.218-.384-.625-.082-.653.055-.535.301-.327.493-.416.465-.327.493-.327.52-.386.466-.416.465-.446.52-.446.41-.505.411-.505.302-.476.383-.475.356-.475.41-.09.575-.683.93-.149.576v.547l.06.548.089.547.06.548.297 1.068-.209.52-.327.547-.267.493-.178.548-.03.547.178.575.03.547v.575l-.03.575-.326.63-.387.711-.238.849-.118.822-.15.848-.088.575-.06.548-.089.52-.564 1.916-.12.575-.148.547-.09.548-.028.575-.15.52-.356 1.15-.208.547-.297.52-.297.493-.09.548-.059.575-.03.547-.445 2.737-.09 1.068-.118.684-.03.767.505.82.327.96-.624 1.313-.386.466-.416.218-.238.52-.119.548-.178.575-.06.602-.03.602-.059.548-.208.575-.238.575-.534.3-.595-.19-.535-.247-.624-.137-.624-.055-.09-.574.18-.548-.417-.438-.624-.11-.624.11-.475.383-.446.438-.297.493-.03.575v1.095l-.03.629v.548l-.594 2.82-.356.629-.298.684-.416.904-.475.848-.298.493-.297.466-.297.52-.267.492-.327.466-.416.52-.357.492-.862 1.752-.475.63-.594.903-.713.712-.773.684-.505.301-1.16.575-.445.383-.386.493-.268.548-.208.547-.416.411-.149.547v.575l-.148.52-.03.548v.547l-.09.63-.296.492.119.548-.208.602-.386.657.386.739.327.438.564.274.505.328.446.356.268.493-2.437 9.197-1.694 5.612-.09 1.04.15 1.259.297 1.095.119.547.059.548.119.575.06.602v1.15l.029.547.683.766.625.439.089.602-2.556 1.861-.446-.328.119-.575.387-.466.475-.355.06-.575-.268-.52-.357-.466-.386-.465-.268-.548-.178-.547-.267-1.642v-.548l-.03-.575-1.218-.985-.416.465-.12.575.03.547.12.548.088.548.06.547.445 1.642.179.52.802.712.208.52.149.547v.575l-.06.548-.178.548-1.248 1.067-.327-.356-.148-.547-.03-.548.03-.547-.179-.575-.208-.52-.268-.575-.267-.52-.326-.493-.268-.52-.654-1.15-.208-.575-.148-.574-.09-.575-.148-.547v-.575l.238-1.999.475-1.067.208-.547.06-.548.119-.547.059-.548.238-1.259.059-.547.089-.603.12-.547.058-.548.09-.575.089-.657.148-.574.357-3.422.09-.547.118-.575.06-.575.148-.548.06-.547.118-.575.03-.602.119-.547.148-.548.387-.438.535-.219.92-.74.268-.492-.089-.985-.862-.575-.534-.301-.357-.465-.149-.548v-1.177l.09-.603.059-.547.238-1.15.178-.547.535-2.026-.12-.547-.415-.466-.238-.52-.148-.574.416-.439.564-.163.595-.082.475-.357.268-.492-.238-.548-.387-.465-.207-.548-.238-.52-.06-.575.06-.547.238-.493.386-.438.416-.41.535-.22.594-.137h.595l.564-.081.862-1.424 1.04-1.368.535-1.096.297-.492.267-.493.297-.493.268-.493.297-.492.327-.493.386-.52.743-.903.327-.466.357-.465.327-.493.356-.438 1.783-2.682.654-1.014.356-.465.387-.438.357-.493.297-.492.386-.493.327-.493.386-.438.387-.465.356-.465.357-.493.386-.466.386-.492.387-.466.297-.465.238-.52.267-.52.238-.493 1.337-2.19.565-.657.98-.63.446-.383.238-.52.356-1.123.15-.547.118-.547.148-.548.238-.548.149-.547.208-.548.178-.574.684-.74.475-.355.416-.41.238-.549.178-.547.149-.547.178-.52.06-.548v-1.15l.059-.548v-.574l.06-.575.148-.575.119-.548-.208-.547-.297-.548-.506-.301-.594.328-.505.357-.565-.22-.416-.437-.594-.028-.535.301-.386.438-.09.548.476.328h.624l.297.438-.356.493-.535.274-.565.246-.446.52-.327.52-.178.548-.297 1.068-.267.52-.327.465-.446.41-.624.056-.684-.028-.296-.575-.09-.547.713-1.533.327-.548.178-.52.268-.52.238-.52.416-.438.416-.384.505-.328.386-.41.298-.494.267-.52.832-.985.119-.548-.06-.629v-.548l.268-.492.505-.302.565-.218.446-.411.356-.438.267-.548.506-.3.564.081.149-.547-.327-.493-.505-.383-.327-.493-.327-.465-.446-.411-.505-.41-.565-.22h-.594l-.565-.273-.475-.384-.09-.548.18-.52.564-.137.505.329.535.274.505.274.535.356.505.3.594.275.536.218.564.274.594.165.595.082.534-.301.625-.959.327-.465.386-.465.505-.438 1.872-2.52.327-.519.327-.493.386-.493.446-.438.357-.438.356-.465.268-.52.089-.548-.416-.438-.654-.164-.564-.274-.238-.575-.03-.575.238-.52.386-.438.476-.41.594-.055.624-.082.624-.22.535-.273.446-.384.356-.492.386-.958v-.548l-.564-.329h-.624l-.179-.547.12-.547.356-.493.179-.575-.268-.52-.416-.438-.12-.548-.029-.575.03-.602.148-.575v-.602l-.03-.575-.445-1.561v-.82l-.178-.549-.267-.574-.565-1.15-.565.246-.09.575v.575l.12.548.178.547.119.548-.03.574-.624.137-.653-.191-.536-.301-.564-.274-.297-.493-.06-.547v-.548l.238-.52.238-.493.416-.438.297-.493.148-.575v-.575l-.089-.602-.059-.575v-.657l.446-1.26.03-1.204-.238-1.287-.506-1.259-.95-1.944-.387-.93-.357-.822-.297-.93-.148-2.054.06-1.095.088-.548.03-.547v-.548l.03-.548.178-1.094.357-1.67.238-.52.802-2.492.03-.575-.03-.575-.06-.548-.534-3.34v-.575l-.03-.575-.03-2.573v-2.273l.12-.547.029-.548v-.547l-.149-.547-.327-.493-.416-.411-.505-.356-.594-.329-.595-.246-.624-.137-.624-.027h-.683l-.594.027-.595.192-.594.164-.535.274-.624.246-.565.274-.565.356-1.129.548-.564.328-.565.301-.595.192-1.545.3-.862.247-.802.055-.891.11-1.189.027-1.545.11-1.338.137-1.218.246-.653.054-.625.083-1.872.137-1.486.684-.594.301-.505.384-.416.492-.416.438-.357.466-.416.465-.386.466-.892.82-.446.467-.386.465-1.129 1.56-.505.904-.594.575-1.04.739-.535.301-.595.274-.594.164-1.189.466-.594.219-.595.301-1.931.739-.505.329-.446.438-.297.492.178.575.238.52.238 1.096-.416.438-.595.082-.594-.302-.208-.574-.238-.52-.535-.302-.624.082-.594.165-.624.137-.594.082-1.605.191-2.2.22-.89.657-.655.684-.416.548-.475.876-.446.903-.297.493-.297.52-.09.548-.237.547-.357.466-.802.657-1.397.3-.624.055-.624.165-.446.465-.565.301-.623.083-.625.136-.416.493-.297.493-.178.547-.268.493-.653.055-.357-.493-.178-.575-.357-.547-.505-.302-.624-.136-.565.273-.416.438-.416.466-.95.766-2.408 2.246-.683.712-1.16.93-1.604 1.232-.861.602-.862.575-.446.41-.267.494.207.52-.089.575-.564.219-.625-.082-.593.246-.595.301-.594.274-.595.301-1.218.438-.862 1.205-.832.93-.564.275-.565.218-.565-.273-.475-.411-.357-.466-.564-.273-.625.055-.653.136-.565.302-.564.328-.535.274-.506.301-.535.356-.534.301-.595.274-.594.219-.565.301-.535.329-.505.355-.505.411-.386.438-.446.356-1.367 1.15-.594.958-1.07.903-1.189.931-.921.63-1.01.657-.773.438-.535.41-.803 1.643-.89 1.15-.358.794-.237.547-.149.548-.178.547-.268.493-.178.575-.119 1.095-.297.52-.416.439-.416.465-1.367 1.944-4.874 4.325-7.785-1.807.208-.192.564-.246.506-.301.475-.301 1.13-.548.594-.246.624-.192.564-.137.624-.164 1.694-.684.535-.247 1.13-.465.534-.274.446-.383.386-.41.327-.494.476-1.094.98-2.738.476-1.123.416-.383.446-.383.445-.356.476-.329.446-.355.445-.411.387-.41.653-1.096.238-.52.208-.548.357-.465.416-.383.98-.684 1.07-.603 2.2-1.807.475-.3.416-.411.445-.411.506-.329.535-.219.564-.164.505-.301.535-.301.506-.329.416-.383 1.426-1.15.208-.52.03-.548v-.547l.118-1.533.298-1.123.327-.492.505-.411.505-.301h.654l.386.438-.09.602-.296.493-.357.52-.297.52.505.329h.595l.594-.22.565-.246 1.307-.52.564-.246 1.04-.52.535-.192.595-.246.594-.192.625-.137.564-.11 1.129-.438.416-.438.357-.465.208-.52.267-.493.476-.356.564-.11.625.083.623-.165.357-.465.386-.41.387-.439.327-.465.445-.438.535-.356.595-.273.505-.302.475-.328.446-.41.179-.549.237-.52.356-.52.982-.904.534-.82.238-.548.565-.192.564.164.624.164h.594l.565-.218.535-.192.565-.274.505-.328.505-.356.565-.329.535-.219.564-.191.565.054.594-.082.505-.274.565-.219.565-.246.564-.164.565-.192.565-.137.594-.082 1.248-1.177.475-.302.476-.41.505-.383.98-.63.446-.41.297-.466.387-.438.357-.466.416-.41.445-.383.565-.247.654-.219.594-.164.594-.137 1.219-.329.534-.191.536-.22.535-.3.445-.356.505-.301 1.308-.959.565-.246.505-.301.475-.356 1.13-.329.594-.082.594-.274.505-.273.565-.33.476-.355.416-.383.386-.466.446-.465.416-.465 1.218-1.287.446-.438 1.515-1.917 1.1-1.287.416-.465.356-.493.328-.493 1.218-.958 1.307-.52.654-.055.624-.137.595-.109.594-.164.594-.11.595-.082 2.198-.602.536-.192.564-.22.594-.163 1.219-.274.653-.11.565-.136.624-.055.565-.082.594-.028h.594l.565.11.624.218.595.138.594.027h.624l.594-.11.535-.246.535-.575.535-.301.505-.383.535-.356.476-.301.534-.247.595-.192.565-.218.594-.137 1.159-.329.564-.137 1.16-.438.564-.246.535-.247.445-.41.298-.52.297-.493.297-.466.327-.985.862-1.068.654-.712.356-.438.357-.466-.06-.575-.326-.492-.595-.165-.624-.136-.624-.165-.684-.3-.445-.466-.03-.548v-.575l.119-.547.178-.548 1.605-2.491-.357-.795-.475-.383-.178-.575-.06-.575.743-2.245.178-.575.149-.548.208-.52.267-.492.387-.466.416-.41.654.109.594.164.594.137.565.191.594.138.654.054.594.028h1.308l.713-.685.476-.93.356-.932.594-.575.684-.492.535-.602.654-.795.624-.657.386-.438.832-.876.386-.466.357-.465.416-.41 1.367-.603 1.427-.246.534-.63.268-.685.356-.739.595-.766.475-.357.446-.438.327-.492.267-.493-.267-.712-.12-.547-.594.218-.356.466-.297-.52-.03-.575-.356-.466-.595-.246-.624.055-.416.438-.535 1.04-.476.41-.653.138-.06-.575.238-.548.268-.52-.327-.493-.624-.082-.357-.52-.089-.548 3.06-5.23 4.429-10.13.772-.274.862-.164 1.01.192.565.273.089.931-1.486 1.725-.802 1.123.03.547-.09.575-.237 1.068-.149.548-.208.575-.446.41-.535.247-.534.356-.476.438-.149.547.209.52.475.302.564.11.566-.165.593-.247 1.01-.711.506-.41.387-.549.237-.492.208-.548.178-.63.149-.574.208-.548.179-.575.267-.548.238-.575.237-.52.268-.52.416-.438.297-.493.357-.438.475-.329.565-.082 1.188-.11.595.082.564.275.565.191.594.137.565.164.238.52-.238.52-.505.466-.446.493-.327.493-.416.52-.357.465-.356.493-.267.493.534.22.862-.85.386-.438.416-.438.387-.492.386-.438.387-.466.534-.274.565-.027.505.355 1.248.74.387.41-.209.548-.416.439-.475.41-.386.438-.476.438-.445.384-.595.355-.535.302-.624.219-.594-.055-.594-.192-.654.083-.416.41-.357.493-.416.493-.624 1.013-.267.52-.268.493-.297.493-.208.547-.238.575.892.329.564.028.505-.275.506-.328.446-.356.386-.438.237-.52.15-.548.386-.41.505-.247.564-.219.535-.246 1.16-.986.385-.493.09-.575.356-.465.595-.165.564-.137.565-.218.476-.384.356-.438.416-.383.564-.438 3.477 2.3-.475.711-.327.466-.356.465-.684.958-.357.439-.297.465-.416.575-.327.493-.326.465-.862.904-.357.465-.921.85-.446.492-1.16 1.643-.682.684-2.021-.164h-.624l-.595.027-2.704.247-.564.383-.505.329-.565.301-.565.246-.535.356-.208.52v.548l3.834 2.41-.357 1.04-.327.52-.475.41-.625.247-.593.028h-.625l-.653-.028h-.625l-.623.137-.565.247-.565.3-1.902.548-.653-.082-.595.055-.505.274-.475.383-.922 1.424-.208.93-.09.548-.564.22-.237.52.267 1.861.179.52v.576l-.12.547-.356.52-.386.438-.654.028-1.486-.575-.98.684-.387.466-.832 2.354-1.01 2.245-.209.52-.177.548-.03.575.148.548-.03.602-.386.493-.238.492.179.548v1.096l-.03.575.06.547.03.548v.547l-.298.465-.386.439-.743.958-1.397.137-.535.246-.505.356-.446.438-.06.547.03.548-1.04 1.314-.118.548.208.52.356.466.12.547-.21.52-.088.52v.548l.149.575.089.575-.535 2.163-.209.547-.356 1.123-.119.575-.03.547.06.548.09.575.266.493-.059.52-.148.52-.209.575-.148.547-.119 1.725-.06.548v1.15l.15.548.089.574.029.548v.52l-.03.602-.148.548-.208.52-.179.52-.089.548-1.159 2.82-.178.547-.178.712v.575l.208.52.386.466.178.547.149.575.267.493.297.493.357.438.446.438.268.492.177.52.12.52.416 2.356.535 1.697.148.547V-.88l.09.547.059.548.297 1.095.089.547.119.575.089.602.208.52.95 3.067z" clip-path="url(#p1bfc26639f)" style="fill:#006400;fill-opacity:.8"/><path d="m11.35 193.376-.082.437 6.917 1.581.334-.28.43-.33.506-.41.594-.218.803-.315 1.159-.233 1.456.329.654.191.654.137.653.164 1.902.74.684.136.683.055.654.082 1.1.027 1.01-.137.772-.164h1.338l1.872.384.594.218.624.247.594.3.476.411.624.192.654-.027.476-.439.534-.328 1.04-.164h.654l.446.465.06.602.386.466.653.219.625.136 1.307.22.624.027.713.054.684.028 1.278.11 9.45 1.203 11.173 2.382.476.192 12.986-2.135.475.3 3.834 6.679 5.349 1.395 3.299 1.643 3.179 1.615.743.11 1.278-.22.624-.137.624-.191 1.278-.22.624-.054h.654l.624.11.564.355.565.302 3.923 2.462.98.274.625.083.564.3.268.575-.268.575-.238.575-.267.602-.208.602.356.493.654.027.594-.246.684.082 4.814 1.15h2.2l.653.054.624.164.624.219.446.41.208.576.03.629-.149.602-1.753 3.695.03.63.297.574.386.466 10.312 6.595h.416l4.695-9.688.386-.52 3.685-1.998 1.218-.493.922-.574 1.456-1.04.416-.548.148-.684-.267-.548-.595-.41-.683-.055-.594.274-.624.328-.654.219-.684-.137-.653-.246-.654-.274-.683-.164h-.714l-.743.082-.683.055-.654-.055-.743-.137-.684-.246-1.01-.301-1.872-1.314-.564-.383-1.1-.849-.475-.437-.505-.438-.506-.41-.476-.466-.564-.493-.594-.328-1.248-.711-.624-.329-.595-.328-.594-.357-.535-.382-.446-.493-.416-.548.683-3.311.387-1.287.565-.355.594-.302.594-.246.624-.219.595-.246.624-.274.534-.328.536-.356.446-.493.386-.492.326-.548.416-.493.506-.437 1.248-.466 3.952-1.423 2.259-.958.534-.383.506-.383.594-.356.387-.548.327-.629.148-.63.268-.601.416-.493.475-.466.773-.876 7.637-6.377.386-.52.535-.821.476-1.15.356-.492.357-.52.356-.547.327-.548.357-.548.327-.574.386-.493.475-.465.476-.383 1.04-.74.446-.465 1.04-.848.416-.493.356-.547.357-.493 2.021-3.476.327-.438 1.307-1.04.475-.41.595-.22h.654l.654.083.564.328.476.356.445.438.417.465 2.317 3.668 9.688-8.622-5.527.246-2.704-.137-1.784-.602-1.307-1.341-2.794-3.257-.505.739-.773.739-.386.52-.535.383-.564.329-.684.055h-.743l-.653-.082-.713-.028-.684-.055-2.02-.329-1.1.74-.535.41-4.695 5.557-1.575 1.368-1.16.684-.623.274-.624.356-1.783 1.97-2.051 3.668-2.17 3.367-.326.548-.416.492-1.456 2.107-.505.466-.506.438-15.512 7.39-.683.219h-.714l-.653-.028-.684.137-.594.329-.506.383-.564.356-.624.191-.713.055-.654.274-.505.383-.624.328-.594.356-.625.22-.653.19-.654.055-.654-.109-6.686-3.175-2.437-1.067-1.843-.959-1.218-.684-.594-.3-1.337-.548-1.903-.164-1.277.273-.654.192-.654.082h-.713l-.654-.055-1.397-.274-.653-.218-.654-.247-.654-.328-.564-.383-.505-.41-.298-.603-.713-1.15-.357-.547-.475-.438-.624-.328-1.397-.165h-2.882l-.714-.109-.653-.137-.654-.191-.684-.247-.267-.574.03-.603-.446-.547-.743-.958-.684.164-.564.41-.386.493-.535.466-.565.355-.624.356-1.07.767-.683.3-1.308.52-.653.247-.654.219-.624.246-.684.22-.535.355-.98 1.15-.654 1.094.059 2.847.268.74.742.437.625-.082.623-.247.566-.355.386-.466 1.842-.711.594-.22.565-.3.624-.301.535-.329.594-.3.595-.33.683-.164.654-.054h1.307l2.675-.274h.743l.624.082.654.055.624.191.654.165.653.219.595.273.624.274.594.328.535.329.624.328.565.274.594.247.654.218.654.192.653.164.654.192.713.164 5.2 1.423 1.814.657.623.246.625.274.594.301.624.192.654.246.624.165.624.245.594.22.565.274.654.273.594.274.624.219.624.246.565.301.534.41.446 1.533-.208.876-.445.52-.506.41-.683.33-.713.136-.654.137-.238.575v.63l-.267.574-.535.383-.684.028h-.713l-.713-.055-.654-.137-.684-.219-.653-.11-.654-.164-1.367-.164h-1.456l-.713-.055-.684-.219-.624-.246-.594-.329-.446-.465-.327-.547-.327-.602-.534-1.15-1.903-1.231-.505-.439-.564-.355-.595-.356-.564-.41-.624-.357-.594-.382-.595-.329-.476-.438-1.159-.794-.564-.328-.654-.301-.624-.247-.654-.246-.653-.191-.654-.22-.684-.19-.653-.247-.654-.164-1.337-.22-.654.055-.624.302-.684.273-.654.246-.623.22-.654.273-.684.11-.624.219-2.437.656-.683.11-.713.055-.743-.137-.565-.329-.535-.383-.535-.41-.445-4.763-.476-.246h-.683l-.684.027-.653.274-.506.383-.475.466-.357.547-.327.547-.356.548-.327.547-.387.52-.534.438-.684.301-.624.192-.713.137-.714.11-.653.136-.713.054-.714-.109-.534-.383-.298-.547-.238-.575-.534-.383-.684.027-.683.274-.297.575-.505.437-1.516.11-1.486-.274h-4.339l-.713-.082h-3.536l-1.427-.164-.654-.137-1.396-.274-.714-.11-.653-.136-4.636-.903-1.367-.247-.654-.109.297-1.45 19.198-28.685-4.755-2.573-14.264 10.62-12.006 9.744-.654-.383-.119-1.204-1.07-.767-1.307-.384-1.13-.656-1.188-.712-1.248-.547-1.307.164-1.308-.11-1.308-.492L2.398 171l-1.07-.711-1.13-.767-1.366-.547-1.308-.493-1.307-.274-.12-.547.714-1.095.594-1.15.357-1.204.119-1.204-1.189-.712-1.13.712-.534 1.15-.297 1.258-.535 1.15h-.951l-1.961-.52-.654-.219-.624-.274-.654-.246-.624-.274-.624-.3-.357-.576.12-.629.326-.548.268-.574.356-.52.327-.548.238-.575.238-3.23.029-.63-.148-.601-.565-.356-.684.11-.594.355-.327.602-.148.603-.803 1.751-.148.602-.119.63-.149.602-.178.63-.386.492-.832.22-.654-.165-1.962-.574-.564-.357-.654-.273-.624-.192-.654-.082-.743-.11-.653-.136-.684-.11-.684-.027-.683-.055-.713-.136-.654-.165-.624-.274-.624-.218-.505-.466-.297-.602-.03-.63.149-.602.148-.657 2.437-3.64-.149-.219-.564-.383-.535-.41-.416-.52-.238-.576.12-.63.445-.492.772-1.068.06-.93.208-.63.475-.41.565-.274.624-.191.654.027.446.465-.209.602-.594.384-.624.246-.624.329-.268.602v.574l.387.493 1.307-.164.446-.794.386-.657.416-.52.416-.63.387-.492.416-.493.446-.465 4.338-5.776 2.318-3.312 2.497-4.406 3.357-7.337-.505-.52-.594-.328-.624-.274-.386-.492.059-.63.297-.548 9.747-12.481 2.675-3.149 2.585-3.42-.148-.768-1.367-.465-.446-.492.178-.603.327-.575.297-.575.208-.575-.505-.41-.684-.11-.742.083-.506.465-.148.657-.149.602-.119.602-.297.575-.386.575-.535.41-.654.247-.653.055-.238-.602.089-.63.119-.657-.12-.602.15-.63.475-.41.565-.411.356-.493.327-.575.208-.602.09-.63v-.601l-.387-.548-.654.027-.683.164-.595.274-.802.657-4.755 4.106-2.377 2.683-1.932 2.108-1.634 2.272-2.08 4.324-.387 1.862-.297.548-.386.547-.416.52-3.893 4.16-2.526 2.93-2.586 2.9-1.128 1.424-.595 1.314-.238.575-.356.575-.357.52-.416.547-.356.548-2.11 1.834-2.616 2.217-2.436 1.287-1.486 1.778-.386.52-.535.384-.565.383-.594.356-.595.383-1.07.74-.505.383-.535.382-.505.384-1.604 1.15-.654.246-.654.11-.683.136-2.615.027-1.575-.054h-1.487l-.713.054-.653.11-.714.055-.653-.22-.535-.355-5.676-3.832-.416-.52-6.835-11.25-.624-.22-.714-.081-.534.355-.387.52-.386.576-1.07 1.642-.713 1.04-.386.547-.446.466-.743.11-.654-.056-.623-.328-.655-.274-1.396-.438-.684-.191-1.337-.22-.713-.136-.743-.11-.684-.164-.683-.11-.713-.109-.684-.055-.653-.082-2.437-.848-1.1-.41-.416-.494-.505-.465-.416-.52-.297-.602-.565-.493-.743-.055h-.713l-2.08-.164-.714-.082-1.366-.11-.714-.081-.653-.137-.625.246-.683.137-.683-.028-.625-.218-.713-.192-.653-.192-.625-.273-.594-.357-.654-.19-.683-.165-.772-.164-.744-.11-2.407-.465-.802-.247-1.248-.437-.654-.247-.535-.383-.505-.438-.505-.383-.446-.466-1.753-1.095-1.189-.766-.416-.548-.505-.437-.565-.439-.535-.383-.505-.437-.475-.439-.832-.985-.328-.575-.207-.602-.12-.602-.207-.603-.714-.766-.653-.328-1.308-.438-.683-.164-.654-.082-.683-.028h-.713l-.714-.137-.654-.137-.207-.602.059-.602.357-.493.623-.191.625-.028.683.165.535.328.564.274.654.273.654.22 1.308.355.594.246.565.329.564.356 1.159.63.594.191.714.137h.683l.624-.055.268.547.118.603.09.602.03.63.178.575.327.547.446.438.564.329.624.19.654.083.475-.383-.148-.602-.357-.602-.564-.384-.536-.465-.772-1.095-.297-.602-.268-.575-.475-.465-.624-.356-.506-.411-.356-.547.297-.575.505-.356.743.027.595.274.535.438.445.465.327.52h.713l.446-.465-.06-.602-.237-.575-.327-1.177-.178-.602.178-.63.446-.438.654-.164.623-.055h.654l.654.028.654.082.594-.22.297-.547.179-.63v-.629l-.09-.602-.445-.493-.624-.246-.684-.028-.653.192-.298.547.06.63.178.575-.208.602-.624.301-.713.082-.654.055-.684-.082-1.277-.383-.684-.11-.654-.054-.683.027-.683-.082-.446.465-.446.438-.654.082-.654-.11-.089-.601-.208-.603-.119-.602.179-.602.059-.602-.356-.548-.654-.137-.446.466-.505.465-.684.164-.742-.027-.654-.246-.238-.575.089-.63.119-.602-.594-1.068-.595-.328-.654-.137-.653-.055-.684-.027-1.367.274-.594-.41-.06-1.205-.623-.22h-.684l-.594.384-.654.219-.654-.11.119-.63-.386-.547-.209-1.314.714-1.177.505-1.013v-.63l.119-1.423-.267-1.095-.03-.629.178-.602.268-.575.386-.493.357-.52.712-.985 2.051-3.148.624-1.15.535-1.342.416-1.231.03-1.04.06-1.396.475-4.928.208-1.013.267-.63.268-.574.297-.575.386-.493.475-.41.506-.384.564-.273.654-.302 1.189-.657.535-.355 1.04-.74.386-.492 3.507-4.298.95-1.479 1.308-1.614.446-.712.386-.575.327-.52.357-.52.267-.576.565-1.587 1.426-4.08.476-1.231.148-.657 1.664-3.914-.386-.548-.594.328-.743-.082-.624-1.095.267-.547.387-.493.98-1.013.832-.712.773-.766.594-.794.327-.548.357-.493.356-.574.357-.493 1.723-1.998 5.23-4.052.625-1.287.327-.602 3.744-3.943 2.229-1.314.624-.218.653-.137 1.278-.219 1.278-.11 1.308-.164.713-.055.713-.027h1.427l2.05.027h1.159l4.28.164 1.693-.191.179-.356-6.241-3.696-4.072-3.176-1.96-2.053-1.398-.985-1.188-.685-1.664-.41-.387.438-1.396 3.34-1.218 2.025-2.378 1.78-5.23 6.406-1.932 2.628-3.417 4.928-4.25 7.172-3.03 4.982-1.457 1.725-.772 1.095-.892.986-.446.465-.208.603-.564 1.259.029.602.268.547.297.575.208.602.476 1.753.148.602.119.602-.03.63-.237.575-.357.52-7.4 7.364-1.902 1.587-.623 1.095-.09 2.163-.297.903-.505.438-.654-.027-.684-.082-.534.383-.505.438-.446.493-.297 1.204v1.999l-.03.602.208.574.356 1.178.268 1.505-.208.63-.149.63-.208.601-.505.494-.683.109-.684.054-.268.603-.416.575-.237.602-2.14 4.434-.237 1.177.356.52.416.466.267.849-.326.547-.386.548-.149.602.149.602-.357.575-.684.137-.534.383-.238.602-.357.548-.237.575-.15.602-.266.574.445.439.624.301.713.164.625.055.267.547-1.753.712-1.1.739-.416.52-1.337 1.013-1.427 1.45-.713.439-.594.328-.713.41-1.278.685-1.189.685-.476.437-.623.302-1.486.465-1.07.219-.683.11-2.11.41-1.308.492-.624.329-.475.465-.625.329-.623.22-.744.163-.743-.027-.653-.22-.595-.273-.624-.3-.535-.357-.534-.383-.535-.356-1.16-.684-.713-.192-.743-.246-.653-.22-.624-.246-.714-.246-.683-.11-.684-.081h-.713l-.683.109-.684.191-.624.22-.653.273-.654-.027-.684-.192-.683-.356-.624-.273-.684-.055-.713.192-1.694.629-.475.493-.446.438-1.1.958-.445.492-.506.384-.445.465-2.318 2.71.98 1.56 3.09 1.013.863.493 2.08 1.15.238-.22.148-.657.238-.629.297-.575.416-.492.416-.466.476-.383.505-.383.535-.356 1.159-.63.624-.219h.654l.653.11.832.246.595.301.564.302.565.328.535.356.505.355.505.384.506.41.475.41.268.549.207.602.03.629-.03.602-.178.602.267.575.654.082.684-.055.565-.273.594-.329.565-.355 1.723-1.04.594-.247.684-.246.624-.329.624-.246.654-.219 1.218-.383.654-.164.624-.137.624-.055.713.082 1.278.274.654.027.773-.054.653-.11.654-.137h.684l.653.055.595.219.534.328.12.63.178 1.231 1.605 7.227 7.547 1.013-.03-8.212.535-.246.654.082.654.164.773.301.624.219.624.274.624.329.564.273 1.249.575.594.301 1.248.41 1.219.439.564.273.505.41.297.548.446.575.416.465.565.384.564.3.684.302.594.328 1.546.767.327.438.118.602v.63l-.03.601.15.767 1.723-1.724h.446l.416.465-.209.63-.505.492-.237.575.267.575.505.356.09.63-.06.601.356.52.565.356.654.137.624-.164.565-.383.445-.52.268-.575.564-.301.654.11.654-.192.357-.548.267-.547.446-.466.624-.109h.713l.654.027 5.022 1.314.297.192.06.602.03.657.594.329.624.136.683.192.714.219.713.274 1.545.492.594.22.713.218.654.219 1.248.383.684.329.594.273.891.685.179.602.119.603.03.656-.03.603.654.027 8.38 1.998 6.537 1.45.239 1.205.029.602v1.26l.148 1.45 2.17-3.476.446-.192.624.164.534.41.476.384.446.438.476.438.564.41 1.516 1.068.653.356.624.301 3.27 2.08.474.438.536.356.742.465.565.302.594.273.565.274.594.329 1.189.629.624.273.595.22 3.803 1.724.565.329.802.3.624.302.654.246.594.356.654.328.594.274 1.1.63.624.328.624.247 5.2 2.408.714.575.119 1.697-.179 1.861.565.164.624.247.357.492.386.493.357.548.356.492.357.52.356.575.476.438.594.274.594-.274.209-.575.088-.602.06-.63.119-.629.624-.246.624.082.565.355.475.384.595.328 2.585 1.04.535.356 1.515 1.15.505.356.625.246.653-.192.536-.356.564-.328.654.028 1.218.437.594.247 1.457.355.623.137 2.942.93.625.33.624.3.713.384.594.273.683.384.566.355.326.548v.602l-.594 3.613v1.314l-.03.602v.63l-.148.602-.12.601-.029.657-.09 4.079.773 2.573.595.93.624.11h9.866l6.686-.164.684-.411.475-.438.416-.52.297-.548.416-.465.535-.328.624-.274.594.383.506.438.326.493.387.492.475.439.387.547.297.574.268.548.118.657v.657l-.364 1.78z" clip-path="url(#p1bfc26639f)" style="fill:#006400;fill-opacity:.8"/></g><g id="PatchCollection_3"><path d="m379.9 390.666-.32-.08-.214-.02-.343.019-.354.087-.353.169-.315.252-.174.207-.177.334-.075.26-.026.253.025.292.1.329.162.285.215.244.289.217.297.143.315.087.295.03.485-.052.476-.187.268-.187.275-.299.138-.236.12-.367.023-.383-.066-.343-.107-.253-.267-.365-.352-.278zM373.889 418.84l-2.354 1.812-1.021.245-4.315-1.386-1.03-1.973 1.749-4.908 2.235.423 1.049.35.635.411.398.545zM409.697 379.044l1.426-3.31 1.754.656-1.996 4.454-.713-.301z" clip-path="url(#p1bfc26639f)" style="fill:green;fill-opacity:.8"/><path d="m378.903 391.075.431-.068.342.013.535.301.342.452v.52l-.134.492-.282.37-.416.205-.64-.014-.52-.192-.416-.41-.178-.602.164-.492.178-.233.342-.273zM375.393 419.295l4.535 2.133-.189 2.727-.163-.023-1.61-2.42-2.888-2.126zM385.779 378.242l2.675 1.143-1.747 4.412-.438-.177 1.233-3.195-2.147-.992zM394.38 409.542l-.504 1.41-2.185-.822-1.188 2.873 2.229.862-.104.246-2.78-1.053 1.933-4.583zM383.892 423.214l.668-.506-4.323-1.259.787 2.45 1.204.793.178-.164-1.13-1.136 1.442-1.108zM380.132 421.9l-.192 2.313.832-.342z" clip-path="url(#p1bfc26639f)" style="fill:green;fill-opacity:.8"/></g><g id="PatchCollection_4"><path d="m403.426 393.466-3.4-1.239 1.694-3.944 3.4 1.24zM391.737 410.291l2.02.725-1.01 2.764-2.124-.794zM380.612 359.526l4.422 1.556-1.222 2.947-4.422-1.556zM393.712 411.485l1.843.725-.966 2.407-1.783-.656zM401.202 406.838l1.872.63-1.352 3.406-2.2-.753zM398.037 416.434l1.723.59-1.01 2.517-1.656-.614zM371.388 416.835l-.01-.862.566-.005.009.862zM368.653 413.46l-.085.503-.009.306.034.338.077.173.162.102h.273l.068-.18.103-.22.128-.244.009-.165.068-.252.017-.149-.043-.142-.12-.023-.23-.079h-.307zM367.475 414.264l-.127.397v.307l.039.226.186.063h.343l.108-.126.069-.407.02-.243-.07-.18-.274-.073zM351.811 389.886l1.91 3.634 2.463-1.098-1.91-3.633z" clip-path="url(#p1bfc26639f)" style="fill:#90ee90;fill-opacity:.8"/></g><path id="PatchCollection_5" d="m535.492 356.627-1.891-1.66-2.343-1.99-1.891-2.157-3.694-5.89-1.982-3.898-1.08-2.074 3.783-4.148 2.522-3.235 1.712-2.738 1.171-.415 18.107 12.693-2.522 1.327z" clip-path="url(#p1bfc26639f)" style="fill:#006400;fill-opacity:.8"/><path id="PatchCollection_6" d="m393.64 403.82 10.017 3.364-1.673 4.226-10.018-3.365z" clip-path="url(#p1bfc26639f)" style="fill:#9acd32;fill-opacity:.8"/><g id="PatchCollection_7"><path d="m385.469 382.588-.574-.21.942-2.187.573.209zM363.817 416.287l-1.143-.37.181-.474.724.233.054-.14.419.137zM363.265 415.161l.162-.368.525.195.073-.167.396.148-.237.536zM363.038 415.163l-.345-.124.193-.456.344.123zM364.722 414.351l-1.072-.35.297-.771 1.072.35zM373.75 412.196l-1.503-.566.316-.712 1.504.566zM374.553 407.577l-.563-.206.289-.668.646.236-.076.175.17.063-.137.319-.254-.093zM375.208 405.52l.059-.138-.401-.147-.273.633 1.05.383.269-.624-.358-.13-.055.13zM373.906 403.429l-1.007-.344.343-.853 1.007.344zM379.408 391.43l.327.11.298.247.074.478-.134.37-.223.219-.297.082-.46-.096-.298-.123-.223-.301-.014-.37.163-.314.312-.206.208-.082zM381.377 423.383l1.352-1.013 1.04.794-1.456 1.218zM387.896 382.368l-.409 1.005.528.226.052-.11.557.26.179-.485-.558-.226.2-.438zM382.08 377.148l2.198.794-.505 1.532-2.288-.793zM381.507 350.988l-1.003 2.237 1.716.623 1.025-2.278zM378.758 350.064l1.337.445-.98 2.217-1.345-.575zM396.922 410.428l4.77 1.806-1.827 4.337-4.607-1.67zM394.976 415.299l3.061 1.135-1.01 2.442-2.98-1.444zM390.288 426.992l1.204.486-.223.5-1.203-.452zM393.394 359.953l1.56.602.58-1.49.846.287-1.694 4.337-2.392-.89zM351.294 431.108l4.175-1.732 1.967 4.022-4.175 1.73zM389.16 385.278l2.428.862-.505 1.478-2.503-.91zM381.017 404.897l1.552.603-.557 1.634-1.657-.595zM377.911 406.354l1.694.616-.312.718-1.664-.622zM353.358 422.984l3.283-1.478-1.693-4.227-4.22 1.6zM377.45 394.873l-1.292-.465-.119.328 1.3.472zM378.591 396.077l.907.308-.253.752-.921-.328zM381.986 425.088l.542.39-.75.936-.587-.567zM379.371 394.645l.929-.355.601 1.265-.245.164zM375.742 396.653l.705.322.179-.062.149-.486-.825-.321zM382.911 394.41l.706.24-.565 1.333-.802-.335zM373.602 397.796l2.229.848-.445 1.176-2.281-.834zM372.852 410.17l1.01.445-.148.321-.996-.451z" clip-path="url(#p1bfc26639f)" style="fill:#a9a9a9;fill-opacity:.8"/><path d="m372.718 410.485.447.202-.127.365-.438-.184zM372.169 411.901l.312.13.082-.233.416.171-.246.664-.037.061-.639-.26-.067-.218z" clip-path="url(#p1bfc26639f)" style="fill:#a9a9a9;fill-opacity:.8"/><path d="m372.247 411.63.29.11-.094.215-.304-.102zM373.454 415.15l1.025-.465.401.78-.988.43zM375.66 418.2l.558.2-.313.752-.408-.253-.09-.137-.03-.123.231-.472zM378.61 419.494l.787.314-.29.773-.81-.328zM384.018 421.368l.728.267-.223.65-.126.068-.69-.267zM375.445 426.73l.4.801-.72.288-.26-.602.134-.39.424-.158zM378.699 442.867l1.812-.67.877 1.717-2.05.67zM370.727 407.051l1.508.54-.505 1.17-1.515-.527zM388.297 368.64l-1.605-.617.209-.615-1.412-.534-.877 2.121 1.486.52.312-.739 1.59.616zM389.07 379.981l.861.343-.074.341.104.082-.148.384-.193-.11-.09.137-.772-.287zM374.509 413.227l.527.199.29-.67-.535-.213zM370.34 411.832l.246-.069.148-.437-.802-.288-.208.616zM368.818 411.449l.535-1.622-1.701-.63-.573 1.698zM394.456 420.362l3.358 1.231.892-1.956-3.418-1.505zM373.09 405.49l.312-.738-3.61-1.245-.254.684zM373.402 404.752l.267-.616-1.991-.698-.291.619zM380.394 415.052l.36-.888-.67-.23-.36.888zM376.461 393.647l-.343.696 1.343.46.265-.66zM361.576 376.674l.41.437.252-.219-.424-.403zM351.413 393.017l.328.524.594-.307-.31-.452zM254.204 529.377l-.486.054-.09-.684.487-.053zM253.223 527.066l-.695.081-.104-.752.695-.082zM251.856 526.929l-.163-.602.486-.112.163.602zM245.615 535.82l-.163-.56.403-.1.164.56zM245.764 534.138l-.297-.657.446-.171.297.656zM246.923 532.62l-.204-.636.802-.219.204.636zM230.772 544.342l-.118-.372.61-.164.117.372zM231.619 542.619v-.698h.52v.698zM230.445 542.167l-.104-.601.486-.072.104.602zM215.824 549.13l-.015-.342.342-.013.015.342zM194.354 552.385l.5.021-.03.602-.5-.02zM192.615 553.876l-.005-.273.773-.014.005.273zM192.036 555.408v-.3h.372v.3zM194.77 558.335l.178-.683.48.105-.178.684zM215.438 547.885l-.407-.206.327-.548.407.207zM206.85 551.003l-.119-.629.466-.074.12.629zM209.02 549.636l-.06-.383.616-.082.059.384zM208.068 550.292l-.119-.63.525-.083.118.63zM208.187 548.487l.014-.41.98.028-.013.409zM207.445 542.345l-.12-.56.344-.063.119.561zM207.103 541.127l-.015-.285.312-.014.015.286zM206.508 539.924l-.06-.657.444-.034.059.657zM178.545 531.046l-.535-.177.135-.346.535.178zM179.288 528.776l-.52-.151.129-.378.52.15zM183.864 528.064l-.58-.232.136-.286.58.233zM189.659 530.991l-.12-.266.236-.09.12.268zM190.268 532.305l-.134-.295.357-.137.134.295zM189.97 530.91l-.179-.47.55-.178.18.47zM191.546 531.114l-.194-.382.28-.12.192.384zM494.182 601.01l-.594-.054.066-.607.594.055zM479.369 605.73l-.03-.712.568-.02.03.711zM480.067 606.44l-.36-.228.49-.657.36.23z" clip-path="url(#p1bfc26639f)" style="fill:#a9a9a9;fill-opacity:.8"/></g></g></g><defs><clipPath id="p1bfc26639f"><path d="M90 108.313h558v510.575H90z"/></clipPath></defs></svg>