<svg xmlns="http://www.w3.org/2000/svg" width="960" height="960" viewBox="0 0 720 720"><defs><style>*{stroke-linejoin:round;stroke-linecap:butt}</style></defs><g id="figure_1"><path id="patch_1" d="M0 720h720V0H0z" style="fill:#fff"/><g id="axes_1"><path id="patch_2" d="M124.513 640.8h488.974V86.4H124.513z" style="fill:#fff"/><g id="LineCollection_1"><path d="m313.785 453.849-7.953-33.653M291.468 630.138l-.439-5.684.155-2.427 16.266-82.672 5.36-54.738 2.325-23.266-1.35-7.502" clip-path="url(#p30ef28fe32)" style="fill:none;stroke:#000"/><path d="m159.987 442.586 8.244 4.158 27.894 10.246 50.108 18.5 6.32-1.797 42.191-13.762 19.041-6.082M305.832 420.196l-5.947 1.29M305.832 420.196l-2.273-9.01M312.525 418.395l-1.68.527-1.337.379-3.676.895M288.076 347.128l-21.134-98.235-21.322-96.997-2.414-9.703-.972-2.442-1.294-2.029-1.66-1.795-48.265-38.865M288.076 347.128l3.607-.845M288.076 347.128l-5.849 1.372M288.076 347.128l1.92 7.862M275.936 416.983l1.572.027 1.625-.046.493-.065.402-.071" clip-path="url(#p30ef28fe32)" style="fill:none;stroke:#000"/><path d="m159.987 442.586 3.298-.67 42.95-9.033 40.854-8.855 5.978-1.388 4.209-1.304 18.66-4.353M279.803 416.07l-.46.118-3.407.795M297.969 344.81l-2.754.646M297.969 344.81l1.85 7.794M302.541 352.004l-1.925-7.816-2.647.621M335.38 344.478l-11.628 2.814M335.38 344.478l2.074-9.668M335.38 344.478l-2.568-9.355M335.38 344.478l10.687-2.506M342.576 374.415l-7.084-29.557-.113-.38M294.569 345.606l.646-.15M294.569 345.606l-2.886.677M294.569 345.606l1.914 7.807M291.683 346.283l2.027 7.804M323.752 347.292l-20.388 4.86M323.752 347.292l3.26 12.266M282.227 348.5l-5.909 1.386M282.227 348.5l1.858 7.905M275.658 350.04l.66-.154M275.658 350.04l-5.649 1.283M275.658 350.04l1.92 7.826M270.01 351.323l-2.945.57M270.01 351.323l1.911 7.799M302.541 352.004l.11.601M302.541 352.004l-.458.086-.733.165-1.53.349M302.541 352.004l.823.149M299.82 352.604l-2.706.656M296.483 353.413l.135.55M296.483 353.413l-2.773.674M296.483 353.413l.631-.153M296.618 353.964l1.94 7.915M296.618 353.964l.63-.154M296.618 353.964l-6.49 1.567M293.71 354.087l-3.714.903M289.996 354.99l.131.541M289.996 354.99l-5.911 1.415M290.127 355.531l1.922 7.87M290.127 355.531l-5.904 1.43M284.085 356.405l-5.85 1.316M284.223 356.961l-.078-.305-.06-.251M284.223 356.961l1.844 7.823M284.223 356.961l-5.855 1.303M304.542 360.48l1.942 8.06M304.542 360.48l-1.891-7.875M304.542 360.48l-5.365 1.254M266.657 360.88l2.671-.64M266.657 360.88l-.135-.56M266.657 360.88l1.929 8.005M298.558 361.879l1.97 8.032M298.558 361.879l.62-.145M298.558 361.879l-6.51 1.522M292.049 363.4l1.956 8.013M292.049 363.4l-5.982 1.384M286.067 364.784l1.905 7.997M286.067 364.784l-5.77 1.363M279.647 366.3l.65-.153M279.647 366.3l-5.632 1.316M279.647 366.3l1.955 7.969M279.647 366.3l-1.935-7.89M274.015 367.616l1.959 7.948M274.015 367.616l-1.958-7.943M274.015 367.616l-5.43 1.27M306.484 368.54l1.889 7.84M306.484 368.54l-5.35 1.232M268.586 368.885l1.913 7.94M300.527 369.911l1.92 7.832M300.527 369.911l.606-.14M300.527 369.911l-6.522 1.502M294.005 371.413l1.912 7.832M294.005 371.413l-6.033 1.368M287.972 372.78l1.898 7.707M287.972 372.78l-5.726 1.34M281.602 374.269l.644-.149M281.602 374.269l-5.628 1.295M281.602 374.269l1.86 7.71M275.974 375.564l1.928 7.825M275.974 375.564l-5.475 1.26M308.373 376.38l1.405 5.923M308.373 376.38l-5.332 1.226M331.362 377.075l-9.869 2.39M331.362 377.075l.193.776M331.362 377.075l-4.35-17.517M331.362 377.075l6.295-1.493M270.5 376.825l1.887 7.832M302.447 377.743l1.467 5.983M302.447 377.743l.594-.137M302.447 377.743l-6.53 1.502M295.917 379.245l-6.047 1.242M297.166 385.171l-.208-1.26-1.041-4.666M289.87 380.487l1.441 5.966M289.87 380.487l-5.73 1.337M309.778 382.303l-5.282 1.281M309.985 383.07l-.024-.098-.183-.67M309.778 382.303l11.715-2.838M283.462 381.979l.677-.155M283.462 381.979l-5.56 1.41M283.462 381.979l1.515 6.182M277.902 383.39l1.513 6.135M277.902 383.39l-5.515 1.267M303.914 383.726l-6.452 1.506M303.914 383.726l.136.555.034.163M303.914 383.726l.582-.142M304.084 384.444l.47 2.042M304.084 384.444l.588-.132M304.084 384.444l-6.579 1.366M272.387 384.657l1.475 6.122M297.505 385.81l.095-.136.025-.163-.05-.157-.113-.122M297.505 385.81l-.204.098M291.775 387.053l5.303-1.175M291.775 387.053l.077-.153v-.17l-.072-.154-.135-.11M291.775 387.053l-.168.12M284.977 388.161l-5.562 1.364M284.977 388.161l.076.277.07.257M284.977 388.161l.669-.14M285.123 388.695l1.97 7.963M285.123 388.695l.655-.142M285.123 388.695l-5.59 1.375M316.316 389.063l1.077 4.142M316.316 389.063l-4.592 1.213M323.418 391.106 319.84 389l-.685-.209-.874-.03-1.964.302M311.724 390.276l.162.685M311.724 390.276l-1.739-7.206M311.886 390.961l1.912 7.933M311.886 390.961l-5.299 1.218M305.897 392.335l1.92 7.918M305.897 392.335l.69-.156M305.897 392.335l-6.423 1.478M305.897 392.335l-1.344-5.849M299.474 393.813l-5.883 1.352M299.474 393.813l1.799 7.962M299.474 393.813l-2.173-7.905M293.59 395.165l-5.866 1.348M293.59 395.165l1.818 7.916M291.607 387.173l.045.164.11.45 1.829 7.378M287.094 396.658l.63-.145M287.094 396.658l-5.604 1.288M287.094 396.658l1.943 7.92M281.49 397.946l1.951 7.916M281.49 397.946l-1.957-7.876M281.49 397.946l-5.592 1.284M313.798 398.894l2.104 8.856M313.798 398.894l-5.28 1.212M275.898 399.23l-1.908-7.941M275.898 399.23l1.91 7.925M307.816 400.253l2.094 8.86M307.816 400.253l.701-.147M307.816 400.253l-6.543 1.522M301.273 401.775l-5.865 1.306M301.273 401.775l1.092 4.567M337.24 402.721l-1.685-8.794M337.24 402.721l-1.005.243M348.568 400.567l-.84.079-1.159.176-9.33 1.9M295.408 403.081l-5.746 1.353M295.408 403.081l1.062 4.512M289.037 404.577l.625-.143M289.037 404.577l-5.596 1.285M289.037 404.577l2.173 8.929M283.441 405.862l2.225 9.015M283.441 405.862l-5.633 1.293M279.803 416.07l-.142-.48-1.853-8.435M315.902 407.75l-5.273 1.216M315.902 407.75l4.231-.897M309.91 409.112l-6.523 1.499M309.91 409.112l.116.473.037.143M309.91 409.112l.72-.146M303.387 410.611l-5.879 1.394M303.387 410.611l.172.574M303.387 410.611l-1.022-4.269M303.559 411.185l6.504-1.457M303.559 411.185l-5.896 1.328M297.508 412.005l-5.654 1.348M297.508 412.005l.155.508M297.508 412.005l-1.038-4.412M297.663 412.513l2.222 8.973M297.663 412.513l-5.672 1.371M291.21 413.506l-5.544 1.371M291.21 413.506l.142.543M291.21 413.506l.644-.153M291.352 414.049l.639-.165M291.352 414.049l2.225 9.053M291.352 414.049l-5.542 1.394M285.666 414.877l.144.566M285.666 414.877l-5.443 1.1-.42.093M285.81 415.443l2.136 8.848M280.028 416.828l.49-.12 5.292-1.265" clip-path="url(#p30ef28fe32)" style="fill:none;stroke:#000"/><path d="m280.028 416.828.132-.1.074-.096.042-.106-.003-.115-.043-.13-.075-.085-.1-.047-.107-.038-.145-.041M318.135 417.18l-5.61 1.215M287.946 424.29l-4.742 1.105-.508-.015-.411-.096-.354-.364-.228-.385-.198-.602-1.477-7.105M299.885 421.486l-5.687 1.47M293.577 423.102l.62-.146M293.577 423.102l-5.631 1.189M295.215 345.456l1.9 7.804M267.065 351.893l2.139 7.832M266.522 360.32l-1.843-6.722.008-.435.087-.351.22-.301.356-.214 1.715-.404M297.114 353.26l.135.55M297.249 353.81l4.295-.963 1.107-.242M297.249 353.81l1.928 7.924M269.328 360.24l2.73-.567M269.328 360.24l-.124-.515M299.177 361.734l1.956 8.038M301.133 369.772l1.908 7.834M303.04 377.606l1.456 5.978M306.587 392.179l-1.418-5.825M306.587 392.179l1.93 7.927M308.517 400.106l2.112 8.86M310.63 408.966l.14.58M362.697 401.722l174.566 10.853 57.722 14.806 9.098 2.81M310.063 409.728l.54.497M310.063 409.728l.707-.182M310.77 409.546l9.499-2.21M310.77 409.546l-.166.679M336.428 403.54l-.193-.576M336.428 403.54l4.834-1.074 5.199-1.071 1.383-.155.814-.063M336.428 403.54l-16.159 3.795M335.555 393.927l-.964-3.878M335.555 393.927l11.134-2.461M346.69 391.466l-.965-4.023M346.69 391.466l1.878 9.1M345.725 387.443l-.923-3.818M345.725 387.443l-11.134 2.606M334.591 390.049l-.964-3.87M342.576 374.415l.175.727M342.576 374.415l-4.919 1.167M327.012 359.558l-8.813 2.131M342.751 375.142l2.05 8.483M342.751 375.142l-4.86 1.176M331.555 377.851l.996 4.003M331.555 377.851l6.336-1.533M331.555 377.851l-9.859 2.386M309.985 383.07l11.711-2.833M309.985 383.07l-5.313 1.242M304.672 384.312l-.038-.16-.138-.568M304.672 384.312l.497 2.042M294.198 422.956l-2.207-9.072M276.318 349.886l1.917 7.835M291.991 413.884l-.137-.53M291.854 413.353l-2.192-8.919M289.662 404.434l-1.938-7.92M287.724 396.513l-1.946-7.96M285.778 388.553l-.132-.531M285.778 388.553l5.61-1.36M285.646 388.022l-1.507-6.198M285.646 388.022l5.455-1.373M284.14 381.824l-1.894-7.704M282.246 374.12l-1.95-7.973M280.296 366.147l-1.928-7.883M266.522 360.32l2.682-.595M278.368 358.264l-.044-.177-.09-.366M278.368 358.264l-.656.147M277.712 358.41l-5.655 1.263M277.578 357.866l.093.378.04.167M271.921 359.122l.116.469.02.082M278.235 357.72l-.657.146M277.578 357.866l-5.657 1.256M271.921 359.122l-2.717.603M273.99 391.289l-.069-.264-.06-.246M273.862 390.78l5.553-1.255M273.99 391.289l5.543-1.22M279.415 389.525l.072.292.046.253M351.794 271.713l14.121-62.016 3.911-15.446 2.98-10.684 2.216-9.247 4.644-21.02 3.79-17.789 2.531-6.87 5.79-11.168 7.249-13.407M481.232 245.764l-2.403-.018-25.177-.61-1.045.61-13.685 17.957-1.15 1.32-1.462.405-84.516 6.285M341.792 318.835l.017-1.606.138-3.26 1.103-5.358 8.744-36.898M137.32 447.476l22.667-4.89M157.107 533.16l-21.765-52.55-.72-2.272-.628-3.817-.077-2.768.051-1.364.07-1.105 3.2-20.02.082-1.788M303.364 352.153l-.713.452M312.525 418.395l-.386-1.522-1.535-6.648M348.658 401.177l-.09-.61M348.658 401.177l.484-.348M349.142 400.829l-.574-.262M358.791 401.479l-7.41-.46-2.24-.19M320.269 407.335l.389.48.319.23.508.168 3.395.531.22.14.1.29-.2 1.867M320.269 407.335l-.136-.482M320.133 406.853l16.102-3.889M302.365 406.342l-5.895 1.25M321.493 379.465l-.336-2.918-.267-8.651M321.493 379.465l.203.772M297.078 385.878l.109.031.114-.001M297.462 385.232l-.142-.06h-.154M296.868 385.443l-.005.172.075.156.14.107M297.166 385.171l-.133.052-.104.095-.061.125M291.388 387.192l.22-.02M291.1 386.65l-.036.17.044.169.115.133.165.07M291.311 386.453l-.124.079-.086.117M291.645 386.467l-.165-.042-.169.028M296.868 385.443l-5.223 1.024M304.553 386.486l-1.049.594-.422.485-.215.569-.052 1.297M305.169 386.354l-.616.132M338.988 380.462l-6.437 1.392M338.988 380.462l-1.097-4.144M338.988 380.462l1.123 4.235M332.551 381.854l1.076 4.325M337.657 375.582l.234.736M340.11 384.697l4.692-1.072M340.11 384.697l-6.483 1.482M344.152 334.28l1.915 7.692M344.152 334.28l-6.698.53M341.792 318.835l.293 7.614 2.067 7.831M337.454 334.81l3.39-15.624.405-.334.543-.017M337.454 334.81l-.47-.045-.258-.017-.246.005-3.668.37M325.974 320.425l-2.981 14.089-.035.385.026.402.03.167.099.176.155.133.182.084.266.083.293.034 1.568-.125 7.235-.73M346.067 341.972l14.43 58.132M360.02 401.194l-.623.144-.606.141M360.02 401.194l-.062.095-.074.221-.017.233.04.23.025.055M360.33 400.885l-.073.042-.172.163-.066.104M359.932 402.028l.072.159.146.185.187.146.218.098.236.045.24-.012.23-.066.206-.119.172-.163.127-.198" clip-path="url(#p30ef28fe32)" style="fill:none;stroke:#000"/><path d="m358.791 401.479.568.273.573.276M360.33 400.885l.167-.78M360.933 400.73l-.24.012-.23.067-.133.076M360.497 400.104l.436.627M362.697 401.722l-.436-.15-.444-.153M361.766 402.103l.524-.215.407-.166M361.817 401.419l-.097-.214-.145-.185-.187-.146-.219-.098-.236-.045M361.766 402.103l.074-.222.017-.232-.04-.23" clip-path="url(#p30ef28fe32)" style="fill:none;stroke:#000"/></g><path id="PatchCollection_1" d="m289.74 380.954.112.081.037.077 1.286 5.268-.192.222-4.755 1.13-.098-.031-.108-.06-1.337-5.266.08-.163.247-.173z" clip-path="url(#p30ef28fe32)" style="fill:green;fill-opacity:.8"/><path id="PatchCollection_2" d="m316.102 410.042-3.575.739 1.156 5.282 3.576-.74z" clip-path="url(#p30ef28fe32)" style="fill:#90ee90;fill-opacity:.8"/></g></g><defs><clipPath id="p30ef28fe32"><path d="M124.513 86.4h488.973v554.4H124.513z"/></clipPath></defs></svg>