<svg xmlns="http://www.w3.org/2000/svg" width="960" height="960" viewBox="0 0 720 720"><defs><style>*{stroke-linejoin:round;stroke-linecap:butt}</style></defs><g id="figure_1"><path id="patch_1" d="M0 720h720V0H0z" style="fill:#fff"/><g id="axes_1"><path id="patch_2" d="M193.573 640.8h350.854V86.4H193.573z" style="fill:#fff"/><g id="LineCollection_1"><path d="m363.554 359.222-1.37-6.319M363.554 359.222l-7.152 1.379M364.816 364.977l-.058-.171-.298-1.33-.906-4.254M266.159 349.956l2.819 1.853 16.024 7.377 10.238 5.007 4.544 2.221 4.849 2.235 2.493.912 1.743.425 4.63.64 1.84.3 1.76.48 6.704 3.287M326.076 376.64l-.782-.75-.677-.62-.814-.577M337.397 370.738l-.781 1.073-.33.341-.284.188-.378.14-2.792.528-3.451.433-5.578 1.252M354.768 354.475l1.099 4.116M354.768 354.475l7.416-1.572M354.768 354.475l-6.059 1.284M353.906 351.24l.547 2.048.315 1.187M345.841 368.927l2.108-.41M344.184 363.144l1.346 4.99.311.793M346.708 370.778l-.338-.945-.529-.906" clip-path="url(#p931b2f7000)" style="fill:none;stroke:#000"/><path d="m337.397 370.738 1.136-.249 7.308-1.562M357.963 366.458l3.555-.773M357.963 366.458l-6.249 1.296M356.873 362.366l.918 3.447.172.645M339.366 364.08l-.935 2.968-.905 3.195-.13.495M361.255 348.698l.93 4.205M347.95 368.518l3.764-.764M346.708 370.778l.831-1.407.41-.853M350.71 363.674l.852 3.373.152.707M356.402 360.6l-.535-2.01M356.402 360.6l.47 1.766M356.873 362.366l-6.163 1.308M355.867 358.59l-6.13 1.24M349.738 359.83l-1.029-4.07M349.738 359.83l.538 2.13M350.276 361.96l-6.092 1.184M350.276 361.96l.434 1.714M344.184 363.144l-4.818.937M344.184 363.144l-.932-3.534M365.576 365.95l-4.058-.265M364.816 364.977l.029.086.123.237.266.355.342.296M368.344 368.153l-.836-.688-.888-.637-1.044-.877M393.722 361.615l-25.504 3.947-1.016.225-.734.118-.892.046M368.344 368.153l9.672-1.814M351.74 371.37l14.295-2.817 2.309-.4M343.252 359.61l-1.949 1.38-.613.432-.42.57-.484.961-.42 1.128M348.71 355.76l-5.458 3.85M321.738 336.401l2.257.347 12.645 1.624.726.279.452.327.355.933.79 3.9.76 3.579.16.947.38.697.484.605 1.242 1.031 3.978 2.688 2.009 1.434.395.306.186.265.152.396M321.738 336.401l-2.372-.236-4.536-.655-.677-.307-.622-.466-3.598-4.686-.34-.58-.064-.988-.12-4.477-.048-.188-.154-.237-.332-.16-7.704.062-8.085.027.064-.78-.516-.39-2.68-2.952-1.096-.697-.904-1.866-.032-1.476-5.067-4.15-.323-1.031.149-.89-.698-1.004-1.161-.836-1.098-.502-.774-.334-2.227-2.618-1.356-1.226-1.387-1.003-.065-.613.581-.25.278-1.364-.117-2.118 1.018-2.047-3.687.265-3.47-.474-4.098-.648-.871-.139-3.026-.424-.815-.133-9.867-1.379-6.746-1.156M242.9 234.365l2.13 5.795 1.356 1.616 2.375 6.605.013 8.105-.58 2.34-2.518 8.914-1.549 6.463-2.195 9.026-.258 1.894 1.098 3.455.323 2.697" clip-path="url(#p931b2f7000)" style="fill:none;stroke:#000"/><path d="m248.367 313.948-4.434-8.433-2.453-3.12-1.807-1.06-1.29-1.838v-1.726l1.355-2.117 3.15-3.981.207-.398M346.547 372.321l.008-.471.053-.526.1-.546M394.273 363.413l-1.656.328M394.273 363.413l2.498-.416M394.273 363.413l.031-1.06.088-.857M399.938 360.523l-5.546.973M403.025 359.818l-.918.1-.76.152-.7.206-.709.247" clip-path="url(#p931b2f7000)" style="fill:none;stroke:#000"/><path d="m402.477 361.58-.584.002-.432-.084-1.523-.975M274.393 216.386l-5.816 2.854-4.505 3.48-4.583 4.123-3.292 1.505-13.297 6.017M402.332 362.133l.145-.553M402.332 362.133l4.594-.524M397.32 362.9l2.902-.489 2.11-.278M445.809 259.807l-.21-1.82-3.571-4.845M428.692 214.976l-1.114 3.533.476 6.135 1.364 5.176 4.583 8.441 2.243 6.367.952 3.273 4.832 5.241M325.378 188.036l.517 2.062.645 1.281 13.439 10 14.523 11.478 19.674 15.187 7.306 5.931.117.7-7.023 7.045.052.477 9.875 5.07 9.876 2.619 9.114-4.934.775-.668 5.99.197.064 2.73.594.471 3.808-2.396 16.318 6.438.98 1.808 10.006-.39M417.045 357.7l-.85.776-1.21.64-1.124.416M408.004 361.225l.782-.28 3.211-.932 1.864-.481M409.15 359.454l1.729-.114 1.41.034 1.572.158M346.547 372.321l-8.36 1.766M346.547 372.321l1.323-.19M266.159 349.956l-.259-.595-1.069-1.26-3.856-6.56-3.018-4.617-3.199-4.335-.891-1.365-.397-1.015-.516-3.009-.21-2.758-.209-2.407-.21-1.005-3.958-7.082" clip-path="url(#p931b2f7000)" style="fill:none;stroke:#000"/><path d="m266.159 349.956-.444.031-.476-.059-2.212-.71-7.043-2.942-1.815-.634-1.533-.34-1.08-.147-2.26-.188-5.664-.376-3.292-.314-12.627-1.023-1.154-.14-1.049-.263-2.724-1.91-.761-.264-.816-.15-7.184.282-8.5.4-.742-.051-.572-.189-2.918-1.848-.916-.443-.056-.222.112-.158 5.358-2.948 2.155-1.17 4.8-1.782 16.29-6.143 1.888-.772.493-.14.54.041.532.14 1.638.564.823.104.573-.152.525-.544.564-1.059 1.194-2.11 1.03-1.762.39-1.085.243-1.296.088-1.26.146-.71.306-.44.436-.404.822-.285 1.05-.104 2.394-.242 2.366-.49 1.29-.3M403.025 359.818l-.548 1.762M403.025 359.818l2.723-.165M394.392 361.496l-.67.119M394.392 361.496l.064-.996-.087-3.884v-1.998M406.926 361.61l1.078-.385M406.926 361.61l10.58-.844M405.748 359.653l3.402-.199M402.477 361.58l.67-.385.856-.477.718-.418 1.027-.647M274.393 216.386l.768-.377 19.054-12.234 5.035-2.73 5.938-4.013 5.874-3.51 6.52-1.282 4.711-2.786 3.085-1.418M382.137 145.65 368.659 151l-6.403 4.235-7.022 4.235-7.178 3.79-8.262 7.132-18.331 3.567 3.915 14.077M399.745 380.146l-.522.08M399.745 380.146l-1.182-8.722M399.745 380.146l-.113.384M393.459 372.275l4.536-.756M393.459 372.275l-3.601.6M394.307 378.433l-.479-2.228-.243-3.17-.126-.76M400.171 335.605l-.66-.223M400.171 335.605l11.575 3.927M400.171 335.605l2.051-4.354M394.71 353.221l1.327-3.257 1.112-2.9 1.738-7.964 1.284-3.495M391.919 377.529l1.485.557.903.347M399.223 380.225l-.41-.06-4.506-1.732M338.187 374.087l-.711.15M338.187 374.087l2.128 8.066M389.172 368.732l.686 4.143M389.003 331.816l7.683 2.607M389.003 331.816l-2.097-.742M389.003 331.816l-.935 1.96M401.545 331.023l-1.314-.444-9.414-3.18-1.814 4.417M402.222 331.251l11.443 3.866M402.222 331.251l-.677-.228M402.222 331.251l.845-2.036M355.57 379.415l-6.123 1.1M340.315 382.153l9.132-1.638M340.315 382.153l-.671.12M339.644 382.274l1.23 4.653.666-.13-1.225-4.644M389.858 372.875l.12 3.768.397.279 1.544.607M400.324 382.579l-2.066.31-2.146.334-2.453.397-3.38.752-.468-1.671-.057-.198.111-.276.444-.613.39-.71.225-.912.224-.717.77-1.746M397.32 362.9l-.55.097M397.32 362.9l.179.739M394.71 353.221l-.642-.1M394.71 353.221l-.34 1.397M398.563 371.424l-.568.095M398.563 371.424l-.887-6.55-.086-.631-.091-.604M326.076 376.64l11.4-2.403M304.61 381.047l6.453-1.229 6.423-1.42 5.591-1.253 2.999-.504M396.898 363.8l-4.464.895L384 366.17l-3.17.648-2.134.338-.149-.05-.11-.097-.311-.463-.11-.207" clip-path="url(#p931b2f7000)" style="fill:none;stroke:#000"/><path d="m392.617 363.74-.58.119-14.02 2.48M424.67 338.835l-11.005-3.718M417.045 357.7l1.622-1.874 1.552-2.2 1.159-2.59 3.291-12.2M445.809 259.807l-2.079 14.04-.41 3.757-.9 3.013-5.035 14.82-5.81 17.827-6.906 25.571M417.045 357.7l.46 3.066M439.665 358.558l-10.747 1.095-11.413 1.113M385.035 150.95l.323 2.396 2.26 3.01M384.648 150.392l5.291-5.823M384.648 150.392l-2.511-4.742M384.648 150.392l.387.558M385.035 150.95l-1.226 1.95-.646.613-.31-.777.31-.616 1.485-1.728M389.73 144.239l-7.593 1.411M389.73 144.239l.912-.594M389.73 144.239l.21.33M385.035 150.95l5.587-6.147M390.642 143.645l-.02 1.158M397.563 107.953l.057 1.59.59 13.454-1.501 6.373-1.662 4.689-2.106 4.2-2.3 5.386M390.622 144.803l-.683-.234M428.692 214.976l9.665-30.68-1.685-16.461-.412-1.566-3.203-2.418-5.656-3.294-8.569-2.954-7.907-5.126-15.736-5.601-4.567-2.073M394.575 351.307l-.507 1.813M392.352 338.734l.226 1.776.33 1.796.8 2.138.726 1.456.113 1.435-.05 2.186.05 1.038.028.748" clip-path="url(#p931b2f7000)" style="fill:none;stroke:#000"/><path d="m399.511 335.382-1.337 3.579-1.97 8.321-1.63 4.025M396.686 334.423l2.125.72.7.239M399.511 335.382l2.034-4.36M401.545 331.023l.9-2.052M411.03 341.366l.716-1.834M413.665 335.117l-1.92 4.415M328.992 384.186l10.652-1.912M428.692 214.976l1.347 1.046 6.471.265 1.21.376 1.436.515 3.292-.25 1.679-.196.952.154.613.877.355.53M397.563 107.953l24.553-2.088.549-.39 1.484-4.514.388-.334.871.027 7.3 1.722M393.59 97.507l1.868 2.869 1.566 4.911.516 2.041.023.625M393.59 97.507l-.234-.445" clip-path="url(#p931b2f7000)" style="fill:none;stroke:#000"/><path d="m393.356 97.062-16.067 1.489-1.098.167-.549.18-.226.39.371.67.84.07 1.339-.154.855-.125.226-.474.226-.306.63-.251 13.688-1.211M396.686 334.423l.153-.354.248-.57.284-.656 1.105.31M347.87 372.131l3.39-.672M349.447 380.515l-.914-4.332-.274-2.38-.13-.92-.259-.752M351.74 371.37l-.48.089M351.74 371.37l-.117.44M352.292 373.97l.315.5.307.37.185.292-.032.3-.113.173M351.89 372.855l-.05.565-.088.48v.355l.117.128.133.039.238-.052.08-.164-.028-.236M351.89 372.855l.193.488.21.627M351.89 372.855l-.267-1.044M351.623 371.81l-.363-.351M537.68 413.547l-.686-1.051-.543-.51-4.5-2.61-5.399-3.077-.233-.349-.1-.467.277-1.865.38-1.643.952-4.944.056-.341-.057-.202-.193-.167-46.796-13.782-24.133-7.01-.46-.174-.637-.383-5.688-5.62-6.524-6.49-2.287-2.262-1.081-1.19-.363-.852M397.499 363.639l.985-.025 1.17-.02 2.356-.167 2.436-.112.452.182.42.403.08.613v.585l-.145.39-.694.613-2.097.919-.517.404M400.324 382.579l-.517-1.53M415.389 499.892l.561-2.116 2.082-7.422 1.178-3.466.775-3.273 1.71-5.945.212-1.252.046-.879-.466-5.847-1.115-6.336-2.34-11.265-2.824-13.772-2.516-14.092-.774-5.152-1.099-4.846-2.872-8.328-2.324-7.715-1.304-3.9-2.286-6.485-1.709-5.222M409.15 359.454l-.799 1.146-.347.625M407.774 541.096l-.392-4.795-.45-2.77-.146-2.032.08-1.519.597-2.074 3.001-10.192 3.712-13.255 1.213-4.567M331.896 513.37l2.436-.013 2.486-.181 1.645-.362 1.05-.487 1.29-.794.694-.14 1.743.3 1.04.16.896-.027.758-.182 2.873-.835 3.034-.996 1.186-.334 1.049-.174 1.282-.153 1.163-.334 1.564-.62 1.767-.536 1.792-.34 3.114-.147 3.696-.48 4.058-.592 2.662-.676 1.767-.187 1.67.16 1.437.042.815-.16 1.339-.634 1.678-.968.71-.752.864-1.942 1.29-2.479.726-1.01 1.824-2.101 1.186-1.546 1.614-1.531 1.113-.836 1.122-.515.935-.125.96.125.767.244.63.584 1.452 1.79 2.55 3.09 1.75 1.95 1.888 1.664.864.431 1.04.307 1.058-.063 1.823-.32 1.3-.111 1.935.02 1.09-.139 1.018-.523M407.84 541.906l-.066-.81M408.634 550.51l-.397-2.695-.29-5.374-.108-.535M377.53 532.278l-1.339 1.74-1.097 1.63-.468.988.097.94 1.024 1.712 1.315 1.114 1.55.661 2.202.251 2.517-.111 2.227.076 2.51.418 3.042.16 3.695.223 4.212.306 1.807.035 1.323.271 1.194.195 1.259-.076.936-.286.67-.32.46-.132 1.173-.167" clip-path="url(#p931b2f7000)" style="fill:none;stroke:#000"/><path d="m407.774 541.096-.56.155-.895-.07-3.373-.487-3.792-.536-5.406-.64-1.533-.202-.476-.348-.267-.334-.435-.62M408.634 550.51l.087.59.565 5.875.42 3.315.146 1.253-.033 1.544-.42 3.537-.42 6.599-.241 7.322-.436 6.627.017 2.91-.13 3.34-.217 1.68-.105 1.23.025 1.045.21 1.205.506 2.693.292 2.353.031 1.6-.242 1.364-1.57 7.226-1.609 7.67-1.791 7.266-.08.592.112.557.066.235M304.61 381.047l-1.623-.644-1-.334-.485.063-1.662.473-3.501.878-3.486.696-1.848.23-.532-.084-.42-.285-.185-.376.072-.613-.016-.773-.38-.613-.83-.71-.58-.37-1.623-.64-2.323-.807-1.21-.787-.783-.286-.606.007-1.912.174-3.445.39-2.033.09-.766-.034-1.13-.362-1.34-.669-.694-.208-.604-.05-3.898.14-4.808.216-4.3.202-2.978.055-1.34.202-2.63.585-2.041.39-2.413.362-.951.098" clip-path="url(#p931b2f7000)" style="fill:none;stroke:#000"/><path d="m220.504 393.16 8.712-2.24 5.851-1.159 5.533-.84 49.253-5.323 6.186-1.057 3.131-.458 5.44-1.036M394.37 354.618l-.622-.014M393.748 354.604l-.057 1.825.015 4.047.016 1.139M393.748 354.604l.32-1.484M393.722 361.615l-.055 1.095-.073.257-.169.119-.444.237-.364.418M361.518 365.685l3.298-.708M399.807 381.05l-.175-.52M407.4 387.067l-.582-.968-.314-.877-.234-.32-.388-.272-.532-.16-.516-.195-.598-.188-.58-.334-.396-.349-.468-.835-.444-.662-.282-.25-.5-.334-.734-.251-1.025-.023M408.634 550.51l-.815.264-1.097.216-3.454.627-2.226.361-1.146.557-1.146.835-.823.39-1.42.181-1.984-.18-1.42.18-.759.46-.645 1.002-.792.557-1.516.57-2.356.46-1.275.265-1.597.626-1.598.558-1.21.18-.678-.07-.743-.361-1.21-.891-1.63-.752-.822-.237-.807.042-2.71.613-1.986.682-.573.452-.88.536-.685.182-1.3.208-2.621.745-2.389.807-.734.675-.25.488.016.585.145.793.057.453-.04.32-.154.25-.282.14M397.499 363.639l-.6.16M397.995 371.519l1.228 8.706M396.898 363.8l.159 1.115.938 6.604M399.223 380.225l.409.305M321.738 336.401l.282-.703.323-1.086.516-2.27.484-2.814.791-4.345 1.477-7.11.83-4.402.113-1.135-.21-1.044-.67-1.323-.701-1.365-.113-.933.162-.933.677-2.563.904-4.22.968-4.054 1.315-5.383.992-4.701.63-2.994.871-3.184.017-.563-.234-.613-.84-.648-4.84-3.085-3.284-2.194-1.203-1.219-.637-.933-1.3-2.702-.838-1.15-.831-.724-1.477-.8-1.178-.607-1.024-.926-3.002-3.65-4.115-4.429-3.219-3.781-1.896-2.23-1.767-1.49-3.251-2.082-4.898-2.898-6.858-3.907-7.827-4.603-3.896-2.167-.581-.473-.234-.467.104-.668.452-1.56.985-1.923.984-1.658.145-1.81-.088-4.117-.017-2.166-.338-1.21M396.898 363.8l-.127-.803M220.504 393.16l1 5.598 1.017 6.698.452 2.396.274.612.565.292 1.13.474.79.836 1.29 1.796 1.13 1.253M337.476 374.237l.33 1.178 1.838 6.859" clip-path="url(#p931b2f7000)" style="fill:none;stroke:#000"/></g><path id="PatchCollection_1" d="m263.911 294.137.113.14.258.027.21.042.13-.111.05-.223-.21-.083-.212-.098-.24.098z" clip-path="url(#p931b2f7000)" style="fill:#00f;fill-opacity:.8"/><path id="PatchCollection_2" d="m349.997 360.052.885 3.265 5.505-1.111-.884-3.265z" clip-path="url(#p931b2f7000)" style="fill:green;fill-opacity:.8"/><path id="PatchCollection_3" d="m397.512 371.641.064-.002.192 1.178-.084.021z" clip-path="url(#p931b2f7000)" style="fill:#32cd32;fill-opacity:.8"/><path id="PatchCollection_4" d="m381.847 151.849 1.21-1.31.815.562-1.21 1.309z" clip-path="url(#p931b2f7000)" style="fill:#90ee90;fill-opacity:.8"/><g id="PatchCollection_5"><path d="m560.086 267.242.539.644.752.024.022.533.946.025 1.378 1.033 1.656.582h.839l-.3.867 1.59.248 1.098.501 1.549 1.337.216 1.87.623 1.92.281 1.144.968 1.449 1.614.835 1.978.192 1.29-.891 1.185-1.585 1.462-1.368v-1.783l.582-1.671.797-1.976.816-1.59.58-1.894 1.96-1.585.194.946.774 1.003-.023 1.697-.322 1.672-.3.922-.926.972-.236.7-.646 1.058-.151.582 1.959.755 1.397.972 2.324.78.926-1.975.107-2.482.667-.582-.022-1.702.668-1.809.3-.977.797-1.028.559-.978 1.097-.724 1.83-.47.452.668.387.613-.862 1.64-.816 1.201-.54 1.418-.58.947.023 1.145-.323 1.337-.387 1.337-.217 1.307-.365 1.09-.258.946.882.805 2.71-.724 1.937.557 1.936-.39 1.12-.192.817-.588 3.42-.947.904-.668 2.066-.669 1.936-.558 2.217-.86 1.269-.978.904-2.34 2.023-.805.816-1.646.904-.892.517-1.839.797-1.028-.475-1.646-.774-1.671-.387-1.338-.582-1.281-.258-1.059-.322-1.782-.688-.471-1.227.445-2.604.75-1.849.365-1.894.526-1.163.223-1.978.477-2.775.78-1.443.247-1.527.477-.838.835-.646 1.226-.023 1.474.023.922-.99.137.129-1.282.258-1.281.129-.836-.581-.669-1.743.167-1.656.644-1.636.526-1.656.142-2.065.446-2.001.669-2.775.669-2.153.693-.968-.112-2.195.502-1.549-.056-2.43.087-1.226.334-1.701.136-1.527.31-1.959.136-1.162.167-2.324.112-.968.167z" clip-path="url(#p931b2f7000)" style="fill:#006400;fill-opacity:.8"/><path d="m600.302 282.51 3.246-.473 1.42-.78 1.272-1.31 2.582-1.114 3.614-.11 1.956-1.7 1.937-2.34 2.175-1.755 1.31-2.145 2.195-2.675 2.71-.557 1.918.028h1.936l2.195.892h1.678l1.807 2.117 3.357-1.226h2.581l2.066-.223 2.085-.808 1.807-1.337-2.988.362-2.175.418-2.066.112-1.44.25-2.304-1.476-2.214-2.312-1.658-.029-1.808.892-2.71-.446-4.022.028-1.29-1.337-.11-1.922-1.182-1.532-.387-2.006.516-1.338 1.678.112 2.583.223 2.84.334 1.936.557 2.581.112 2.324.668 3.744.892 1.936-.557 1.937.11 2.84.67 3.485.557 2.97.334 2.84.446 2.065.223 2.71.557 2.454.111 2.066.112 2.581.112 2.711.445.794.752v1.783l-1.161 1.672-.407 1.253-1.679.78-1.29 1.226.129 1.337-1.937.334-1.678.892-.755-1.365-.517-1.894.885-1.533 1.807-1.337v-1.671l-1.42.222-1.033 1.115-1.678 1.003-.516 2.005-.884 1.31-1.679-.335.775 1.227 1.788 1.364.923 1.198 1.4 1.142-3.595.53-3.227-.335-1.31.697-2.97.557-2.453.446-2.562.306 1.678-2.006 2.047-1.42 1.936-.446.406-1.031-2.194-.445-3.615.78-1.956 2.145-1.658 1.198-1.44 1.922-6.842 1.225-5.035.669-4.905.445-4.628.53-5.293.668-4.409 1.03-5.66.865zM695.247 259.72l-1.614 1.56 1.25.588.451 1.56-.903 2.452-3.25 5.318 4.002-.39 6.583-1.059 4.002-.39 5.68-13.762-5.357 1.337-7.94 1.839zM706.93 269.248l2.13-4.012.323.78h1.033l.838-1.393-.129-2.897 1.033-2.674 1.162-2.006.774-2.061 1.701-.75 1.785-.142 2.453-.056 1.872.613 1.055.755-.022 1.028 1.42 1.504 1.29 1.839 2.024 1.48 1.333 1.863.71 1.615-.43 1.09-.968.39-3.098.669-2.281.08-1.979.477-2.582.167h-1.807l-1.872-.891-.968.278-1.25 1.14-.945.42zM666.136 274.095l2.195-1.894 2.13-2.118 1.872-2.395 2.453-1.282.645-1.114-1.226-.279-2.453.446-.688-1.028.172-1.646 2.323-.669h4.841l4.777-.167h3.227l3.421-1.114 2.84-.335-.323 1.449-.816 1.98-.646 1.505-.99.248-.3-1.418-1.162 1.56-2.799-1.87-.193 1.115.926 1.59-.645 1.004-.669.916-.322 1.282-1.656 2.259-3.098.724-2.324.334-2.324.446-2.54.248-2.3.254-2.84.222zM107.965 701.843l-8.778 34.963 29.692-1.893 22.332-.112 16.008-.779 11.49-.334 1.033.112-1.99 5.919-3.432 1.317-5.293 1.894-5.035.779-4.39 4.454-1.548 5.455-3.873 7.905-2.84 3.23-1.033.89.517 4.008-3.744 2.116-3.228-.669-3.227-.334.645 3.007-.129 2.783-2.194 2.783-1.808 1.782-1.678.222-.13 2.784 3.616-.446 4.26-2.338 4.905-1.892 2.324.334 1.291-.446.645 2.116.259 2.56-.904 2.672-1.936 1.448-1.162 2.115-3.357 3.896-.774 1.893-1.936 4.008-2.066 4.342-.13 1.67.904 2.227.517 1.67 2.969 2.783 1.033-4.008-.258-2.227.516-4.564 1.161-2.56 1.808-3.118 2.324-3.006 2.364-5.473 4.09-4.77-.257-3.785 1.548-1.67.517-2.561 1.032-3.006 5.164-5.901 1.162-3.34.904-5.121-1.162-2.339.387-1.781 2.582-3.786 2.453 1.113.904 2.228-.258 2.449 3.097-1.336 1.937-1.002.775-1.002 4.13-1.448 1.68-.89.903-1.448.516-2.338 1.032-4.9 2.97-2.003 4.26-3.452 5.551.891 1.807 1.447 2.453.223 1.55-3.117.257-3.23h-2.84l-.903-4.787.774-2.784-2.453-.89-1.678 1.892-2.969 1.225-2.71.111-2.067-3.562-.516-3.23.516-2.672.388-4.343.258-2.226 3.614-1.67 2.582-.892 2.066-1.002 3.614-1.113 2.195 2.783 1.162 3.898 1.29 2.45 1.42-1.003 1.55-.89.904.222 2.065 2.116.259 2.004-1.291 2.227 1.42-.112 1.29-.779 2.711 3.007 3.615 4.676 2.97 4.454 2.194 1.336 2.194 5.456 2.066 1.113 18.202-5.121-1.161-3.453-2.066-2.004-3.873-1.558-3.486.78.13-4.12-.13-5.345-.516-4.12 4.647-1.893-3.485-1.893-2.84-.89-2.066-3.23v-2.56l1.679-5.903-1.162-3.674.129-4.12.258-5.011-5.035-3.118-7.1-1.558-2.065-3.23-1.808-1.447-3.227-.669-2.84-2.561-.258-2.338-2.71-3.007 3.097-.89-2.97-3.787-3.614-1.448 5.939 1.56 3.356 1.78 2.453 2.45 2.452.67 2.453 4.119 3.357 3.898.258 2.115 1.936 1.114.646 1.67 6.713-2.784-6.197-6.68-5.422-4.9-5.164-4.232-3.098-3.452-3.872-1.56h-1.679l-2.194-4.453 2.323-5.346-5.938-4.454v-1.671l-1.808-2.672-.903-2.673-2.324-.334-3.227-3.341-2.066-2.784v-2.339l3.615-1.336 4.519 1.002 8.39 2.227-.258 4.232 1.42 2.785 2.324.779-.775-4.009 2.066.223 1.42.11-.258-1.781 1.807-1.559 5.035-2.895-.904-.558-3.098 1.003-2.97.89-8.778-3.34-5.293-1.114-8.262-4.677-6.583-1.114-4.776-.111-5.035 2.784-14.588-.446-.516 4.678-3.357 2.227-.774 3.898-7.359 3.898-5.034 3.006 3.744 1.56 8.132-.446 2.324 2.339 4.518 2.561 2.711 2.005 3.615 1.781 2.582 2.562 1.807 4.12.903 3.118-.903 6.681-2.582 2.784 2.84 8.686 1.937 8.129-.775 4.788 6.584-.334-2.324 3.23-1.549 1.001 1.033 2.116 2.066 2.004-.13 1.448 1.679 1.67.128 2.895-1.549-1.113-.645-1.448-1.55 1.67-1.161 2.45 3.744.223.258 1.225-2.066.89-.387 1.225.646 1.336 1.549-.111.387-1.336.646 1.113-1.163 3.452-.516 3.118-3.098 1.67-.465-3.384-4.473-2.804-6.176-.757-3.876 3.248-6.32.729-3.608-.81 5.713-2.779 8.593-3.109 2.347-2.556 5.414-.689 1.82-4.835-3.224-3.779-4.143.428-.852-2.746-5.567.825-8.157-7.244-6.16 1.962-6.562-.28-4.657 6.72.553 5.14-3.034 2.292-11.127-3.806-16.74-3.766z" clip-path="url(#p931b2f7000)" style="fill:#006400;fill-opacity:.8"/></g><path id="PatchCollection_6" d="m396.106 356.422.048.46.646-.07-.08-.487z" clip-path="url(#p931b2f7000)" style="fill:gray;fill-opacity:.8"/><g id="PatchCollection_7"><path d="m388.565 367.355-.358.051-.013-.063-.438.063-.05-.255-.305.044-.036-.182-.272.04-.094-.488 1.07-.154-.156-.81.256-.036.16.822.53-.077.175.907-.483.07zm-.513-.686.077.366.306-.048-.077-.366zM397.187 360.002l-.436-2.187 1.146-.14.468 2.062zM337.415 379.601l.972-.162.135.604-.972.162zM386.12 360.502l1.206-.2.263 1.189-.793.126-.104-.467.167-.027-.058-.259-.58.096zM382.21 360.547l.012-.483.474.008-.012.484zM380.031 362.525l.009-.571.513.005-.008.571zM382.126 362.306v-.961h.774v.96zM383.485 361.01l.782-.013.015.59-.783.014zM388 360.074l.807-.134.217.973-.808.134zM387.373 360.23l.605-.1.202.905-.604.1zM389.076 358.379l.46.001-.008 1.26-.46-.001zM394.788 359.158l-.088-1.086 1.07-.065.088 1.086zM362.419 349.41l-.094-.766.603-.055.027.215.647-.059.068.551zM351.997 355.43l.48-.085.188.788-.272.048-.058-.241-.207.036zM351.556 356.595l-.046.008-.097-.411.613-.108.063.266.095-.017.113.475-.663.116zM351.058 357.22l.48-.086.04.175-.479.085zM351.848 353.567l.047.107-.498.16-.34-.782.596-.193.042.095.7-.226.252.58-.23.075.057.131-.277.09-.056-.131zM349.882 354.168l.352-.054.11.528-.563.087-.1-.478.212-.032zM349.139 354.345l-.264-.236.324-.27.123.11.046-.039.141.127zM348.15 357.93l-.127.021-.039-.166.56-.097.116.506-.432.075zM347.343 360.067l.252-.045.099.414-.252.045zM357.208 358.236l-.835.142-.094-.41 1.088-.186.135.592-.253.043zM360.607 360.022l.603-.106.103.436-.203.036.033.142-.249.044-.033-.142-.15.026zM355.847 363.726l.283-.05.112.461-.284.051zM352.395 365.391l-.191-.683.397-.083.016.056.294-.062.176.628zM349.412 364.892l.28-.048-.042-.178.355-.061.07.298.167-.03.065.28-.802.138zM348.81 363.747l.47-.082-.041-.176.78-.136.123.523-.536.094.016.066-.714.125zM349.886 362.805l.088.362-.467.085.035.139-.318.057-.122-.5zM346.265 363.462l.2-.035-.079-.338.482-.085.138.583-.683.12zM346.124 365.558l.369-.065.104.437-.327.058-.047-.193-.04.008zM363.592 357.968l.763-.154.14.523-.762.153zM350.094 353.68l.421-.07.078.352-.421.07zM347.934 351.958l.185-.287.155.074-.186.288zM360.675 351.389l.024.097.552-.104.171.675-.643.122.066.257-.678.128-.065-.256-1.446.275-.171-.674.825-.156-.109-.427.514-.098.11.427.025-.004-.026-.1zM362.846 350.248l.677-.094.103.55-.678.094zM362.41 349.503l.796-.071.076.621-.797.072zM361.143 354.802l-.088-.42.62-.098.09.422zM361.148 355.307l-.08-.38.867-.136.08.38zM348.032 365.662l.338-.036.073.512-.338.036zM357.073 360.875l1.117-.223.13.484-1.117.223zM357.25 361.749l.612-.122.083.306-.612.122zM357.602 362.473l-.11-.408.698-.14.11.409zM358.469 363.395l-.024-.383.466-.021.024.383zM357.742 363.434l.59-.122.141.51-.589.122zM359.941 363.64l.512-.085.093.423-.512.084zM362.03 362.351l1.496-.283.167.655-1.495.284zM362.12 363.023l1.225-.232.415 1.633-1.224.232zM362.64 360.78l.386-.067.066.28-.386.068zM362.507 361.686l.673-.118.073.31-.673.118zM362.543 361.16l.555-.098.09.384-.554.098zM362.406 359.994l.469-.083.06.254-.47.082zM362.406 359.705l.456-.08.06.258-.455.08zM361.9 359.963l.18-.033.085.351-.761.136-.128-.534.58-.103zM360.443 360.568l.03.129-.357.063-.144-.6.534-.096.113.473zM356.984 357.55l.453-.08.056.233-.454.08zM358.15 357.463l-.129-.547.83-.146.13.547zM357.36 357.024l.64-.113.146.618-.64.113zM359.774 358.2l.046.196-.168.03.051.217-.29.05-.097-.412zM360.393 358.117l.383-.067.077.325-.383.067zM361.66 358.048l.555-.098.17.725-.554.097zM360.925 358.585l.164-.028.117.503-.654.113-.158-.68.49-.085zM358.562 358.814l.765-.135.122.518-.765.135zM357.232 359.422l.053-.009-.07-.3.402-.07.136.585-.454.079.02.085-.52.09-.093-.397.52-.09zM355.932 357.393l.764-.135.086.365-.764.135zM355.806 356.71l.87-.153.123.519-.87.153zM355.693 356.115l.856-.15.124.526-.855.15zM355.604 355.649l.653-.115.102.431-.652.115zM356.222 354.639l.583-.102.143.607-.583.102zM357.36 354.294l.766-.135.162.686-.767.134zM356.86 352.045l.68-.12.126.538-.68.12zM354.899 352.64l.612-.107.118.498-.613.107zM352.942 357.56l.396-.07.104.443-.396.07zM353.115 356.55l.436-.076.08.34-.435.078zM353.22 356.99l.413-.073.08.337-.413.072zM350.747 355.969l.452-.08.137.585-.45.08zM349.993 356.773l-.043-.181.689-.122.042.182zM349.759 355.854l.683-.12.164.695-.683.12zM349.029 356.05l.441-.079.087.37-.44.078zM351.562 356.979l.31-.055.07.292-.31.054zM352.68 355.28l.483-.085.122.517-.483.084zM353.555 355.081l.614-.108.14.595-.613.109zM353.664 356.004l.335-.059.065.275-.335.058zM353.91 356.269l.564-.1.106.447-.564.1zM354.378 357.685l.548-.096.13.552-.547.097zM353.664 357.856l.463-.081.147.617-.464.082zM352.744 358.305l.591-.103.103.438-.59.103zM352.343 358.268l.103-.018.133.564-.533.093-.133-.563.044-.008-.044-.184.387-.068zM350.546 357.915l.43-.076.114.484-.43.075zM347.133 358.201l.491-.087.061.257-.491.087zM347.875 357.323l.569-.1.109.462-.569.1zM348.008 358.399l.563-.099.147.622-.563.098zM347.004 358.573l.455-.08.085.363-.455.08zM346.762 359.447l.468-.082.128.542-.468.082zM348.053 359.214l.811-.143.124.526-.811.143zM348.097 360.079l-.06-.255 1.049-.186.118.494-1.18.209-.057-.239zM348.355 360.331l.831-.146.088.371-.831.147zM348.456 361.184l.67-.138.132.472-.67.14zM347.225 361.438l.341-.051.087.435-.34.05zM347.15 361.06l.69-.104.076.378-.691.104zM346.673 361.272l.457-.069.132.657-.457.069zM345.233 361.823l.505-.075.074.365-.506.075zM345.74 361.552l.492-.073.105.522-.491.073zM353.817 363.785l.372-.065.165.706-.371.065zM354.31 363.883l.77-.135.069.288-.772.135zM356.221 363.417l.041.173-.327.059-.156-.641.65-.117.113.468zM354.233 365.094l-.008-.048.401-.048.067.41-.401.049-.01-.063-.351.042-.05-.3zM352.33 365.422l.362-.076.08.284-.363.077zM352.85 363.869l.659-.138.176.625-.66.139zM352.099 363.834l.592-.124.154.549-.592.124zM351.369 364.036l.63-.132.193.69-.63.132zM360.244 364.84l.508-.088.097.412-.508.09zM358.985 364.614l.322-.056.098.418-.322.056zM358.88 365.133l.575-.1.095.403-.575.1zM358.63 365.076l.086.356-.16.028.038.163-.338.06-.124-.518zM356.056 364.193l.712-.124.096.406-.712.124zM355.556 364.74l.527-.093.086.371-.526.092zM355.6 365.157l.588-.102.13.555-.587.103zM356.242 365.08l.517-.09.153.648-.518.09zM355.048 365.913l.65-.114.112.48-.65.113zM354.124 365.99l.682-.12.153.652-.682.12zM352.022 366.435l.564-.099.142.607-.563.099zM349.468 364.102l.593-.103.126.535-.593.104zM348.33 362.65l.616-.107.148.626-.616.108zM347.766 362.82l.503-.087.15.641-.502.089zM347.415 363.622l.428-.075.117.5-.428.075zM345.588 363.277l.577-.101.124.53-.577.1zM344.914 363.462l.483-.085.11.47-.482.086zM346.314 364.913l.439-.076.081.348-.438.077zM345.342 365.094l.762-.133.085.363-.762.134zM345.51 365.697l.592-.104.083.35-.592.104zM345.676 367.083l.59-.104.1.424-.59.103zM345.814 366.661l.504-.088.089.377-.505.088zM345.664 366.302l.758-.132.085.366-.757.132zM349.945 365.398l.52-.091.117.502-.52.09zM348.891 366.185l.402-.07.091.386-.402.07zM349.537 367.055l.44-.077.117.498-.44.077zM348.851 367.138l.378-.065.13.556-.377.066zM348.19 367.289l-.033-.137.498-.087.156.665-.497.087-.048-.2-.136.024-.077-.328zM347.436 367.337l.522-.092.147.625-.523.091zM346.85 367.57l.49-.086.124.525-.49.086zM345.96 367.476l.578-.101.186.79-.58.101zM341.146 368.84l.412-.088.12.42-.41.088zM341.783 368.353l-.07-.244.252-.055.071.245zM341.497 368.18l.201-.044.097.336-.201.043zM343.651 368.27l.562-.121.132.458-.561.121zM342.742 368.506l.627-.136.129.447-.865.186-.166-.573.239-.05zM299.663 363.928l.302-.49.426.195-.302.491zM298.9 363.991l.266-.41.48.23-.266.412zM298.847 362.908l.232-.32.484.262-.231.32zM294.616 375.992l-.091-.2.411-.14.091.2zM294.345 374.418l-.04-.382.429-.034.04.383zM296.9 374.234l-.013-.14.237-.015.012.14zM297.641 374.687l.415-.119.145.38-.414.118zM295.12 377.893l.459-.16.31.666-.086.03.063.136-.233.082-.064-.137-.138.048zM395.85 372.037l.318-.087.357-.072.075.302-.709.172zM394.545 373.985l.03.364-.637.039-.045-.557.843-.052.016.194zM395.269 374.948l.464-.03.036.437-.044.002.012.144-.385.024-.012-.144-.035.002zM395.634 375.97l-.247.016-.033-.42.46-.026.045.574-.213.013zM404.749 293.086l.153-.202.217.122-.154.203zM403.194 292.367l.13-.183.218.116-.131.182zM402.647 293.183l.34-.421.272.163-.339.421zM404.765 294.572l-.198-.595.693-.171.198.595zM408.045 294.144l.246-.363.31.157-.245.363zM427.11 332.48l.232-.448.552.213-.231.448zM427.804 320.879l.158-.543.243.053-.158.543zM427.994 316.98l.182-.575.811.191-.182.575zM427.426 315.46l.111-.389.306.065-.059.207.156.033-.051.182zM428.308 315.869l.121-.424.936.199-.12.423zM439.366 303.967l.1-.179.362.15-.098.18zM440.165 304.347l.403.153-.15.295-.403-.154zM431.96 299.458l.153-.512.508.113-.154.512zM431.419 297.79l.164.026.085-.395.615.1-.16.74-.78-.126zM431.834 296.884l.31.05-.08.382-.31-.048zM431.504 296.881l.3.047-.07.336-.3-.047zM431.536 296.658l.1-.477.782.122-.1.477zM435.234 292.818l-.22-.06.132-.365.3.081-.06.163.227.061-.083.228-.305-.083zM435.659 292.72l.169-.606.238.05-.17.605zM430.446 329.158l.2-.58.133.034.053-.154-.15-.038.132-.382.568.145-.132.382-.167-.043-.052.153.17.044-.2.581zM431.919 329.38l-.054.209-.438-.085.154-.589.437.085-.007.025.19.037-.092.355zM425.924 327.496l.024-.068-.076-.02.141-.414.6.151-.165.483zM425.375 327.203l.111-.32.448.114-.11.32zM424.714 329.17l.19-.67.375.08-.19.669zM423.762 329.907l.25-.863.85.184-.25.863zM424.073 331.085l.165-.303.37.15-.166.303zM424.557 331.273l.063-.227.686.142-.063.227zM424.343 331.802l.079-.277.443.094-.079.277zM422.527 331.248l.134-.338.296.088-.133.337zM423.076 331.335l.11-.426.403.078-.111.426zM422.907 331.976l.15-.575.41.08-.15.574zM424.452 332.526l.11-.446.625.115-.11.446zM423.847 334.086l.181-.7.661.128-.182.7zM423.314 335.036l.122-.521 1.105.191-.121.522zM420.405 338.692l.17-.442.267.077-.169.442zM420.09 349.747l.15-.477.472.11-.15.477zM420.305 349.023l.054-.19-.177-.037.07-.247.178.038.02-.073.42.09-.145.508zM420.7 344.727l.16.033-.06.203-.158-.034zM421.132 343.783l.468.1-.117.408-.468-.1zM421.685 343.713l.441.094-.15.53-.442-.095zM420.837 345.266l.066-.23.281.06-.066.23zM420.97 345.705l.1-.35.675.145-.1.349zM420.361 346.098l.075-.262.579.123-.075.263zM419.716 346.683l.101-.354.65.138-.102.354zM419.873 350.329l.122-.25.432.157-.122.25zM422.754 350.771l.082-.427 1.037.15-.083.426zM407.851 350.353l.02-.143.341.036-.02.143zM407.948 349.89l.018-.202.266.017-.018.202zM408.888 349.507l.296-.083.101.268-.296.083zM409.9 350.711l-.046-.506.908-.063.046.507zM421.377 354.733l.312.188-.243.299-.311-.188-.051.063-.485-.293.324-.398.484.292zM421.588 355.85l.078-.275.54.115-.078.275zM420.519 356.394l.048-.331.298.032-.049.331zM420.918 357.47l-.023-.315.71-.038.023.315zM420.317 357.522l-.032-.477.383-.02.032.478zM418.9 357.017l.496.182-.2.406-.496-.182zM418.93 356.937l.274-.556.662.243-.275.557zM413.919 357.187l.553-.033.024.291-.554.034zM413.773 357.557l.63-.039.038.467-.63.039zM412.454 356.435l.019.122-.445.05-.053-.362.599-.066.035.24zM411.707 357.651l.356-.03.079.68-.583.05-.041-.36.226-.02zM408.076 358.519l.006.072-.412.028-.061-.672.413-.028.005.055.28-.018.049.544zM408.685 357.525v.079l-.213.001-.003-.362h.095l-.003-.275.49-.004.007.558zM409.219 357.543l.377-.025.03.331-.378.025zM409.848 357.912l.619-.042.05.567-.618.042zM409.066 358.048l.447-.03.04.447-.447.03zM408.42 358.013l.42-.029.052.582-.42.029zM406.992 357.647h.597v.94h-.597zM405.73 358.646v.011h-.707v-1.174h.707v.06h.23v.473h-.23v.045h.225v.585zM406.04 358.65v-1.299h.759v1.299zM401.717 353.607l.104-.182.202-.105.235.006.195.114.091.188-.04.2-.16.15-.227.051-.224-.063-.149-.157zM400.811 353.67l.104-.182.202-.105.235.006.194.115.093.187-.04.2-.16.15-.228.051-.223-.063-.15-.157zM401.21 355.342l.003-.474h-.246l.002-.584.382.001-.002.338.765.002-.003.72z" clip-path="url(#p931b2f7000)" style="fill:#a9a9a9;fill-opacity:.8"/><path d="M402.554 355.19h.466l-.002.312h-.105l-.007 1.64-.908-.003.008-1.758.548.002zM404.962 355.112l.002-.293h.386l-.001.295zM403.486 357.11l.012-2.524 1.32.004-.012 2.526zM400.929 357.132l.007-1.741 1.027.003-.007 1.742zM402.36 358.758l.009-.494.32.003-.008.495zM399.658 357.01l.792-.12.148.73-.792.119zM398.516 356.046l1.204-.182.134.659-.81.122-.062-.3-.393.06zM397.992 356.112l-.238-1.177.92-.139.237 1.177zM397.156 355.647l-.167.019-.054-.365.747-.082.1.681-.437.05-.023-.156-.142.016zM396.35 355.423l-.024-.126-.089.013-.077-.403.607-.086.1.528zM390.194 366.421l.334-.044.045.253-.335.044zM389.35 365.509l.392-.041.096.688-.391.041zM389.08 366.577l-.059.006-.054-.384.42-.045.078.55-.362.038zM385.43 366.351l-.076.011-.062-.315.466-.067.164.842-.39.056zM386.558 366.688l.137.694-.305.045-.068-.344-.248.037-.229-1.149.884-.13.159.798zM385.712 367.657l.35-.052.033.167-.35.052zM386.99 367.302l.647-.096.067.336-.646.097zM384.56 367.115l-.069-.293.114-.02-.142-.596.755-.135.108.454-.123.022.048.202-.23.04.026.108-.22.039.03.126zM388.92 365.892l-.057-.404.43-.045.056.404zM389.98 366.341l-.133-.76.46-.06.133.76zM394.283 366.678l.268-.049.053.213-.27.049zM393.011 365.537l.492-.085.117.5.262-.045.07.301-.754.131zM390.516 366.652l1.881-.292.394 1.89-.631.097.137.657-.505.08-.034-.165-.505.079-.395-1.893-.24.037zM390.864 369.37l1.284-.2.224 1.067-1.284.201zM394.958 366.306l.889-.152.12.524-.89.152zM394.814 365.979l-.135-.59.898-.153.202.886-1.125.192-.068-.296zM395.75 367.751l-.06-.556.454-.036-.016-.153.516-.041.076.71zM395.636 370.77l-.046-.276.343-.042.045.276zM396.338 370.95l-.051-.312.827-.1.05.312zM396.56 370.547l-.06-.616.638-.045.059.616zM396.612 369.847l-.02-.27.638-.035.02.27zM395.474 371.372l-.085-.409.654-.1.085.408zM394.98 370.913l-.042-.293.332-.036.042.293zM394.373 371.19l-.008-.706.567-.004.008.706zM393.562 371.692l-.042-.522.746-.046.042.523zM391.255 371.924l.493-.087.039.162-.3.053.014.056-.454.08-.038-.16.26-.045zM393.82 372.592l.4-.068.07.304-.4.068zM396.656 372.293l.757-.186.204.618-1.084.266-.237-.721.326-.08zM395.325 372.503l.957-.233.26.79-.958.234z" clip-path="url(#p931b2f7000)" style="fill:#a9a9a9;fill-opacity:.8"/><path d="m395.953 373.788-.123-.373.148-.036-.05-.155.638-.155-.023-.067.93-.227.206.63-.93.227-.011-.036zM395.624 373.312l.045.528-.09.006.013.143-.594.038-.058-.67zM390.601 370.153l.321-.034.046.32-.321.034zM390.476 369.161l.297-.032.038.265-.297.032zM388.112 368.83l.8-.085.071.496-.8.085zM389.496 368.83l.588-.062.065.456-.588.063zM389.95 369.57l.106-.012.056.392-.451.048-.084-.586.345-.037zM389.77 370.61l-.071-.45.855-.102.071.45zM388.645 371.274l.035-.314.577.048-.035.315zM388.378 372.514l.061-.268.928.156-.061.269zM388.378 372.862l.447-.027.001.018.54-.033.041.505-.54.033.003.03-.446.027zM392.455 373.823v.067l-.563.003-.004-.523.46-.002v-.05l.714-.004.004.506zM391.177 373.518l.574-.047.048.439-.637.052-.006-.053-1.054-.019-.033-.345 1.1-.091zM390.121 372.923l.611-.061.047.345-.612.062zM390.038 374.103l.932-.121.073.412-.932.122zM388.624 373.492l.356-.021.032.38-.356.022zM392.3 372.99l.682-.04.023.278-.683.041zM392.352 374.105l.712-.043.03.367-.712.043zM396.842 373.778l.575-.035.03.37-.575.034zM395.377 374.55l.37-.022.026.322-.37.023zM393.909 374.746l.683-.042.027.33-.682.043zM392.642 375.153l-.022-.466.568-.02.023.465zM393.974 375.56l-.037-.444.569-.035.036.444zM395.688 376.782l-.02-.525.274-.008.02.525zM397.137 374.578l-.045-.334.372-.036.044.334zM397.31 375.359l-.052-.344.31-.035.052.344zM397.221 375.947l-.038-.374.46-.035.038.374zM401.079 367.601l-.581.015-.026-.766.817-.02.029.865-.235.006zM402.296 366.083l-.078-.493.715-.083.077.493zM400.677 365.118l.022.186-.211.018-.016-.137-.488.042-.064-.545 1.067-.094.058.497zM402.163 365.09l.569-.072.06.351-.568.074zM402.066 365.063l-.13-.76 1.084-.139.132.76zM406.456 363.935l-.061-.612.54-.04.06.612zM409.078 362.762l-.02-.27.319-.018.02.27zM411.934 363.31l.004-.494.483.002-.003.495zM411.34 362.229l.885-.037.02.354-.884.037zM410.736 363.027l-.035-.608.526-.022.034.607zM410.147 364.172l-.043-.494.924-.06.043.495zM414.05 363.434l-.268.037-.015-.083-.178.025-.048-.252.445-.063zM421.238 362.779l-.678.081-.04-.246.074-.008-.048-.296.605-.073zM421.697 363.323l-.077-.397.48-.07.077.397zM487.745 363.776l.226.085-.094.187-.722-.268.23-.461.496.184zM491.065 361.545l.101.038-.108.218-.102-.038-.08.161-.367-.135.23-.463.367.135zM489.502 360.89l.505.21-.217.388-.213-.09-.036.065-.293-.123zM490.25 360.192l.653.213-.217.498-.654-.212zM491.358 361.195l.28-.542.623.24-.153.294-.084-.033-.067.13-.2-.078-.061.12zM394.418 376.954l-.102-.535.548-.078.015.083.28-.04.086.452zM394.89 377.329l.14-.386.645.176-.142.386zM397.187 376.561l-.013-.33.568-.018.013.331zM397.298 376.641l.008.2-.104.004.004.102-.226.007-.012-.303zM397.455 377.136l-.018-.37.412-.015.018.37zM402.058 375.4l.563-.026.022.353-.563.026zM401.528 375.744l-.01-.163.521-.024.023.369-.321.015.023.371-.98.045-.036-.578zM402.268 376.995l-.016-.345.714-.024.016.344zM400.86 377.5l-.04-.55 1.028-.056.04.55zM397.447 378.13l-.044-.404.425-.035.044.404zM392.662 376.23l-.038-.369.636-.049.048.47-.551.042-.01-.1zM391.976 376.243l-.043-.256.27-.035.044.256zM390.72 376.3l-.086.19-.58-.196.243-.532.666.225-.156.343zM385.593 371.497l-.062-.342.544-.074.062.343zM385.454 372.067l-.072-.47.474-.053.071.468zM391.606 378.892l.31-.588.636.25-.31.588zM391.293 380.478l.039-.213.362.05-.038.212zM390.803 381.206l.056-.528.456.037-.057.527zM388.251 383.422l.434-.083.125.487-.434.083zM384.134 367.908l.651-.067.08.585-.65.066zM383.513 367.497l-.206-1.069.882-.126.205 1.068zM381.923 366.709l.425-.065.117.574-.424.065zM381.385 367.516l-.115-.643.466-.062.115.643zM380.415 367.753l-.214.031-.022-.114-.312.046-.058-.294.526-.077zM379.404 368.17l-.054-.262.353-.055.054.263zM378.948 367.657l-.1-.508.438-.065.101.508zM377.942 369.12l.401-.04.027.21-.402.038zM377.686 367.807l.435-.087.121.453-.435.087zM376.84 368.301l.458-.051.086.575-.219.025-.015-.106-.24.026zM376.176 369.207l-.17.019-.053-.356.17-.018-.009-.055.534-.06.073.483-.534.06zM375.727 369.306l.01.065-.244.024-.008-.065-.03.003-.04-.302.298-.03.04.303zM378.779 372.723l.202-.308.344.168-.202.308zM431.548 303.497l.264-.78 1.13.286-.265.78zM436.97 303.598l.18-.323.751.314-.18.322zM441.674 294.395h.976v.522h-.976zM444.163 259.816l-.314.057-.022-.09-.121.021-.036-.151-.293.053-.142-.589.346-.062-.08-.331.539-.097.222.92-.156.028zM442.632 259.808l-.002.06-.195-.005.002-.06-.13-.004.016-.477.463.012-.016.477zM441.868 257.828l.548-.208.225.44-.548.209zM433.512 235.879l.408-.164.13.24-.408.165zM428.325 219.407l.54-.017.016.353-.54.017zM425.998 220.682l-.174.004-.005-.14.581-.013.01.27-.408.01zM423.665 219.48l.341-.007.006.23-.34.007zM423.633 219.006l.626-.012.011.423-.626.013zM426.668 219.222l-.006-.22.514-.01.007.268-.202.005.009.312-.645.013-.01-.36zM426.368 219.95l.534-.01.01.38-.534.01zM427.065 221.247l-.63.017-.006-.139-.098.003-.009-.249.73-.02zM426.174 221.34l.966-.02.01.403-.965.019zM426.977 221.792l.004.168-.18.003.006.256-.415.009-.011-.424zM428.41 220.95l-.049-.617.456-.026.048.616zM428.587 221.96l-.07-.447.727-.083.07.446zM426.227 223.018l-.016-.381.795-.024.016.381zM428.938 223.854l-.105-.738.608-.065.105.739zM425.585 235.855l-.023-.28.444-.028.023.28zM424.243 236.666l.002-.58.603.001v.183l.352.001v.398zM428.833 239.609l-.045-.383.302-.026.044.382zM429.74 240.744l-.061-.278.795-.132.062.278zM413.24 242.308l.247-.443.29.12-.246.443zM409.453 241.956l-.004-.327.314-.003.004.327zM428.268 218.439l-.026-.448.544-.025.027.448zM426.761 218.135l.274.014-.026.37-.273-.014-.004.065-.267-.013.004-.066-.089-.004-.005.07-.273-.014.032-.477.273.014-.002.037.09.004.002-.037.266.013zM425.71 217.3l.392-.011.008.216-.391.012zM426.384 217.423l-.091.003-.005-.152.599-.017.014.37-.508.014zM427.042 216.07l.044-.295.34.038-.045.296zM422.366 218.516l.065-.349.246.034-.065.348zM422.588 217.71l.073-.274.298.059-.072.275zM422.439 217.342l.141-.568.508.094-.142.568zM422.91 215.733l-.003-.296.386-.004.003.296zM421.935 215.562l-.028-.317.284-.019.028.317zM446.156 219.212l-.045-.401.924-.077.045.401-.626.052.017.143-.238.02-.016-.143zM444.373 219.083l-.323-.613.533-.209.322.613zM446.499 220.325l-.07-.184.832-.232.069.184zM427.845 212.808l.14-.531.968.19-.163.618-.408-.08.023-.087zM426.929 214.712l.714.05-.05.553-.715-.049zM427.005 214.486l.075-.346.694.111-.074.346zM427.594 214.127l.012-.431.726.014-.012.431zM427.135 213.34l.02-.385 1.203.048-.021.386zM427.046 212.08l.111-.4.52.108-.113.4zM428.156 211.956l.106-.393.845.17-.107.393zM428.232 210.739l.58.12-.132.477-.581-.12zM412.382 212.274l.484-.205.159.28-.484.205zM410.385 211.686l.412-.184.505.843-.413.184zM408.396 210.039l.346-.238.33.359-.345.237zM410.478 219.647l-.291-.521.645-.268.291.52zM428.355 209.131l.045-.26.376.049-.046.26zM428.873 209.55l.127-.47.523.107-.127.468zM428.922 207.934l.655.08-.088.537-.655-.08zM428.676 202.502l.055-.237.38.066-.056.237zM430.124 203.028l.07-.257.31.063-.07.257zM430.62 203.659l.138-.478.474.102-.138.477zM418.598 193.413l.021-.38.5.022-.02.378zM416.408 191.344l.085-.374.452.076-.085.374zM416.727 191.804l.529.025-.04.613-.53-.025zM430.74 199.528l-.507-.104.177-.645.198.04.024-.088.31.063zM430.898 199.128l.11-.445.755.14-.11.444zM431.007 192.622l.041-.379.65.053-.041.378zM429.346 192.964l.134-.428.548.13-.134.426zM432.02 193.548l.169.032.008-.035.5.092-.213.864-.5-.092.113-.459-.169-.03zM430.96 195.14l.165-.638.74.144-.166.637zM431.972 195.38l.109-.466.49.085-.11.467zM435.03 197.212l.125-.32.27.078-.126.321zM435.368 197.388l.196-.498.49.143-.195.499zM423.145 190.8l.105-.786.706.07-.104.787zM423.128 189.92l.061-.425.209.022-.06.425zM439.253 164.699l-.231-.314.593-.326.231.314zM438.469 163.316l.36-.308.234.204-.361.308zM434.59 161.265l.085-.43.385.056-.084.43zM435.197 160.309l.05-.305.348.043-.05.304zM435.542 159.125l-.198.32-.206-.095-.206.333-.42-.193.2-.323-.098-.046.155-.251.098.045.049-.078zM433.932 158.641l-.031.044-.34-.18.303-.425.34.18-.034.047.557.295-.238.334zM434.615 157.323l.037-.058.242.116-.193.3-.192-.092-.126.197-.134-.065.19-.296-.033-.015.092-.143zM437.073 158.07l-.083.104-.613-.366.194-.243.197.118.057-.07.49.292-.168.21zM430.22 159.393l.275-.307.34.227-.275.306zM428.878 159.93l.5-.58.453.293-.5.578zM420.426 155.683l.129-.156.214.131-.129.157zM419.582 156.83l.307-.345.447.296-.307.345zM418.998 159.232l.19-.463.367.113-.19.463zM418.01 158.902l.186-.29.398.192-.186.29zM417.34 158.69l.254-.394.563.27-.255.394zM416.74 157.769l-.196.233-.148-.093.26-.309.11.07.047-.056-.09-.057.206-.244.431.271-.316.375zM415.71 158.177l.514-.612.216.135-.515.613zM415.195 157.484l.394-.456.478.307-.394.456zM415.229 156.392l-.278.34-.286-.172-.085.104-.126-.076.363-.446zM413.898 156.618l.172-.232.333.182-.172.233zM414.15 155.958l.313-.343.438.298-.313.343zM412.358 155.54l.504-.376.44.44-.505.376zM411.873 154.526l.259-.205.349.326-.203.163-.12-.113-.055.044zM411.192 153.99l.476-.494.492.354-.476.494zM387.345 157.017l.408-.644.75.354-.226.357-.328-.155-.116.183-.139-.066-.066.104zM401.838 122.519l.01-.213.195.007-.01.212zM401.296 122.038l.228.005-.006.18-.228-.005zM401.497 121.244l.682.027-.018.338-.154-.006-.005.104-.255-.01.005-.104-.273-.012zM398.145 129.255l.587.081-.038.208-.588-.082zM399.07 128.833l.046-.125.123-.078h.151l.123.077.047.124-.046.125-.123.077h-.152l-.122-.076zM392.316 136.183l.194-.45.746.24-.194.45zM390.4 135.406l.29-.71.78.237-.29.71zM394.631 132.182l.14-.355.268.078-.14.356zM392.76 131.205l.012-.323.456.014-.013.323zM388.314 131.55l.462.044-.034.273-.463-.044z" clip-path="url(#p931b2f7000)" style="fill:#a9a9a9;fill-opacity:.8"/><path d="m388.236 131.84.378.037-.059.447-.55-.054.072-.539.17.016zM386.567 132.62l.037-.278.488.05-.037.276zM387.65 132.808l-.477-.07.042-.213-.073-.011.026-.133.55.082zM387.043 131.484l.22.055-.037.114.117.03-.137.407-.446-.112.138-.407.107.027zM394.881 140.592l.14-.299.465.163-.14.298zM393.913 140.568l.286.1-.084.178-.286-.1zM393.09 140.24l.193-.41.787.275-.193.41zM394.893 130.473l.128-.341-.24-.068.169-.451.639.179-.298.792zM397.637 131.365l.92.128-.11.586-.92-.128zM397.589 131.028l.577.078-.05.271-1.18-.159.097-.53.603.08zM396.814 130.606l.134-.722.588.081-.135.723zM397.036 129.787l.078-.422.809.112-.079.423zM397.764 128.966l.398.055-.081.435-.953-.132.081-.435.136.019.042-.221.419.058zM399.016 127.549l-.02.09-.258-.043.02-.092-.093-.015.309-1.384.615.102-.036.164.184.031-.273 1.22zM398.49 127.264l.176.03-.101.455-.784-.13.292-1.308.607.101zM396.135 123.553l.136-.005-.015-.297.76-.03.042.848-.895.034zM396.777 121.982l.666.017-.012.329-.371-.01-.003.073-.135-.004.002-.072-.158-.005zM396.879 121.452l.451.014-.012.305-.452-.014zM400.333 121.736l.44.04-.07.578-.81-.072.082-.686.371.033zM398.911 121.77l.105-.583.884.119-.105.582zM400.09 120.87l.006-.28.385.006-.007.281zM398.823 120.836l.012-.547.578.01-.012.546zM389.097 115.976l.098-.412.685.121-.04.171.58.103-.057.242zM390.63 115.681l.427.076-.032.133-.427-.076zM390.476 114.918l.064-.532.698.063-.064.532zM389.125 114.451l.968.154-.09.425-.968-.153zM399.214 118.969l.57-.013.02.633-.57.014zM398.686 117.37l.63-.017.014.401-.63.017zM399.234 113.762l.67-.007.006.439-.67.007zM398.613 112.334l.956-.028.022.553-.956.028zM390.363 104.416l-.04-.339.578-.05-.037-.328.903-.079.038.329.128-.012.04.34zM390.529 102.301l-.182.006-.02-.437.407-.014.004.073.444-.015.024.527-.67.023zM388.995 101.908l.475-.016.01.208-.475.016zM390.516 100.592l.59-.035.032.352-.454.026-.01-.108-.138.009zM390 100.787l.411-.024.033.414-.411.024zM397.487 104.25l.727-.036.024.362-.727.036zM397.06 102.87l.537-.026.023.364-.536.026zM397.681 101.835l.292-.014.01.16-.292.015zM396.967 102.26l.714-.035.03.447-.715.035zM386.878 95.378l.431-.03.016.186-.431.028zM383.436 97.494l.008.095-.482.032-.054-.617.482-.032.01.111.137-.009.037.41zM383.61 99.68l.328-.022.015.171-.328.022zM379.713 96.983l.553-.036.024.266-.553.037zM379.604 97.433l.43-.03.042.476-.43.028zM380.693 97.394l.472-.031.044.501-.471.031zM381.783 97.234l.493-.033.043.486-.494.032zM382.932 96.454l.375-.025.033.373-.375.025zM383.887 96.871l-.01-.114.377-.025.01.114.14-.009.04.47-.138.009.014.155-.378.025-.014-.155-.164.011-.041-.47zM385.436 96.637l.03.329-.204.013.038.425-.358.024-.065-.744zM385.534 96.234l.304-.02.03.355-.302.02zM386.381 96.262l.286-.019.017.193-.286.02zM386.155 96.837l.682-.045.044.498-.681.045zM387.245 97.02l-.18.011-.044-.483.618-.041-.02-.23-.079.006-.033-.372.5-.033.009.093.067-.004.07.796-.24.016.039.423-.686.045zM381.488 99.742l.243-.015.027.322-.243.015zM381.964 98.986l.721-.046.045.537-.72.046zM382.867 98.868l.638-.04.036.426-.638.04zM383.884 98.794l.574-.036.048.563-.574.036zM380.572 99.135l.25-.011-.004-.05.344-.015.033.528-.128.006.005.076-.313.014-.005-.075-.152.007zM385.67 100.653l-.027-.287.307-.021.026.287zM384.804 99.833l.662-.046.033.361-.662.046zM385.046 98.676l.798-.05.06.714-.797.05zM386.63 98.566l.561-.03.039.542-.562.03zM389.891 98.32l.673-.05.09.892-.674.05zM373.865 97.044l-.521.003v-.087h-.057l-.003-.364.578-.003zM372.552 97.108l.413-.159.205.397-.412.16zM371.634 97.084l.329-.031.004.028.125-.012.026.203-.126.012.013.098-.328.031zM377.16 101.445l-.004-.366.512-.003.004.366zM376.453 101.633l-.082-.611.662-.066.082.611zM377.248 100.613l-.054-.472.533-.045.054.471zM378.136 100.616l-.053-.505.476-.037.053.505zM379.906 100.46l.004-.318.4.004-.004.317zM379.398 99.209l.551-.038.057.606-.552.038zM378.206 99.096l.016-.112.096-.076.13-.006.104.068.029.11-.06.1-.12.044-.125-.033zM377.002 98.948l.445-.018.024.449-.445.018zM376.199 99.451l-.024-.291-.123-.05.1-.147.12.058.393-.009.175.103.027.376-.13.08-.326.004-.053.06-.205-.131zM388.491 96.342l-.024-.324.34-.019.024.324zM388.41 97.133l-.039-.53.746-.042.04.53zM391.162 95.837l.096-.007-.068-.71.79-.057.174 1.808-.79.056-.069-.711-.096.007zM395.833 97.9l-.424-1.108.795-.226.048.125.44-.125.375.983zM395.155 96.091l-.08-.964.788-.05.08.965zM399.323 95.604l-.15-1.004 1.055-.116.15 1.002zM379.705 152.664l.262-.282.27.187-.262.282zM382.014 153.216l.314-.35.497.333-.708.788-.881-.59-.252.281.628.42-.43.48-1.184-.792.433-.483.38.254.252-.281-.365-.244.694-.76.536.358-.296.33zM382.251 154.844l.83-.85.455.332-.744.761.824.373-.624 1.028-1.742-.787.623-1.028zM376.7 163.457l-.166-.495.439-.108.165.494zM381.698 147.36l-.993.403-.207-.38.349-.142-.102-.185.644-.261zM385.078 148.341l.288-.323.558.368-.29.325zM385.603 148.053l.395-.446.436.288-.395.446zM386.462 146.914l.374-.443.58.366-.373.442zM384.453 146.27l-.226-.541.67-.209.226.54zM382.34 144.765l-.138-.57 1.283-.23.137.57zM383.929 143.01l1.335-.367.5 1.358-1.335.367zM382.896 142.786l-.226-.62.815-.221.226.62zM382.008 143.678l-.17-.795.82-.13.168.795zM378.377 146.506l-.602-1.109 1.687-.683.602 1.11zM384.715 155.291l.346-.38.498.337-.587.644-.628-.428.24-.262zM386 157.16l-.303-.143.127-.201.304.142.072-.115.603.283-.216.344-.603-.282zM438.89 177.887l.637-.035.031.413-.638.035zM393.899 338.54l-.028.216-.283-.027.063-.484.414.04-.035.268zM392.74 338.741l.064-.504.803.076-.065.505zM392.058 337.79l.112-.832.664.068-.113.832zM389.83 337.592l.121-1.128.944.076-.121 1.128zM403.3 329.936l.355.112-.408.957-.353-.112zM396.096 330.573l-.033.076-.205-.067-.239.547-2.786-.9.243-.559 2.18.705.066-.152-1.695-.549.242-.557 3.343 1.089-.278.638zM399.056 333.317l.31-.672.533.184-.521 1.129.058.116-.53.199-.055-.11-1.42-.488.213-.463.881.303-.073-.146.53-.199zM391.001 328.302l2.069.67-.557 1.28-2.068-.669zM388.056 330.559l.691.224-.175.402-.691-.223zM388.12 329.94l.678.218-.19.436-.677-.219zM366.932 370.178l-.177-.828.67-.107.145.673-.185.03.033.155zM367.78 370.17l-.012-.462.41-.008.013.463zM364.85 370.188l1.342-.284.224.79-1.341.283zM355.79 371.81l.473-.1.1.351-.473.1zM357.004 371.851l.04.145-.564.12-.136-.478.772-.163.094.332zM357.886 371.275l.164.57-.134.03.032.11-.293.062-.196-.68zM358.291 373.231l.204-.043.079.276-.204.043zM358.505 372.807l.481-.103.06.21-.481.103zM359.937 372.2l.36-.017.012.191-.36.017zM359.857 371.323l.424-.09.076.264-.425.09zM359.718 372.118l.037.132-.588.125-.038-.132-.233.05-.181-.635.956-.204.181.635zM358.126 371.755l.528-.112.238.836-.527.112zM355.201 373.151l.434-.08.123.501-.434.08zM355.48 375.3l.232-.043.102.418-.232.043zM353.606 378.55l.027.103-.291.055-.044-.174-.062.012-.084-.336.06-.012-.032-.132.544-.102.136.538zM354.1 378.713l-.105-.428.444-.081.105.428zM354.754 378.184l.447-.08.103.428-.448.08zM351.697 378.487l.314-.062.023.088.294-.058.142.542-.356.07-.025-.095-.251.05zM351.666 378.601l.124.481-.476.092-.07-.272-.109.02-.054-.208zM350.903 378.26l.268-.033.05.303-.268.034zM351.22 375.567l-.082-.847 1.223-.087.08.847zM346.454 375.776l.146.975-.802.09-.01-.065-.588.066-.136-.911zM343.547 377.388l-.113-1.093 1.203-.093.113 1.094zM346.392 375.182l-.11-.366.686-.153.11.367zM346.889 374.105l-.712.143-.023-.085-.185.038-.167-.622.184-.037-.015-.057.774-.155.108.397.206-.041.039.145.138-.028.11.41-.305.062-.023-.088-.102.02zM345.37 381.75l.556-.106.17.662-.557.106zM328.499 378.91l-.079-.269.767-.167.078.269zM328.584 377.539l.024.09-.356.069-.023-.09-.026.005-.128-.49.994-.193.128.49zM327.136 377.756l.222-.044.058.223-.223.043zM327.097 377.722l-.099-.376.24-.046.099.376zM326.554 377.43l.437-.085.148.569-.436.085zM325.97 378.137l-.15-.571.529-.103.149.571zM321.04 374.48l-.032-.448.383-.02.032.448zM320.58 374.525l-.014-.185.275-.016.014.185zM319.906 374.278l.384-.056.079.408-.384.055zM316.553 372.677l-.126-.058.048-.078-.623-.284.213-.349.75.343zM311.379 372.025l-.116.223-.987-.38.188-.363 1.163.448-.072.14zM309.99 371.929l.526.2-.11.218-.527-.2zM309.837 372.148l.621.237-.12.237-.622-.237zM308.199 373.002l.144-.29.513.193-.145.288zM306.549 367.903l.163-.294.248.102-.163.294zM272.123 357.825l.187-.08.123.214-.187.08zM274.829 356.726l-.218.107-.141-.215.227-.111.065.098.197-.098.132.2-.207.102zM274.545 356.28l.072.116-.293.136-.071-.115-.167.077-.214-.342.587-.274.214.343zM266.89 352.969l-.19.337-.113-.048-.06.106-.271-.114.25-.443zM266.51 352.293l.255-.434.783.345-.256.433zM262.379 350.458l.208.008-.01.167-.208-.008zM261.91 346.51l.152-.065-.069-.12.305-.13.29.505-.457.196zM262.609 346.675l-.292-.505.722-.31.291.504zM262.647 347.016l.37-.18.182.28-.369.18zM272.964 343.975l-.247-.429.519-.223.247.428zM265.126 338.149l.345-.218.309.364-.345.218zM254.742 321.638l-.012-.222.431-.018.012.223zM254.35 321.858l.468.007-.006.294-.468-.008zM253.056 321.837l.406-.013.023.557-.406.013zM249.863 313.68l.196-.084.132.229-.196.084zM250.232 314.424l.346-.126.166.341-.347.126zM239.735 313.278l.345-.1.087.22-.346.1zM282.693 379.223l.181.005-.006.15-.18-.005zM276.084 380.67l.003.191-.42.006-.008-.499.42-.004.002.178.201-.003.002.129zM398.923 386.203l.214-.055-.093-.265.715-.185.177.51-.714.184-.015-.044-.214.055zM398.072 385.531l.415-.107.13.372-.415.108zM399.008 385.361l.601-.156.146.417-.601.156zM399.438 386.939l-.18-.516.688-.179.18.516.23-.06.06.172-1.037.27-.06-.173zM398.96 386.91l.203-.053.091.262-.203.053zM398.79 387.945l-.091-.264.301-.078.092.263zM399.682 387.669l-.134-.386.647-.167.134.385zM400.015 388.247l-.18-.515.508-.132.18.515zM399.422 389.617l-.144-.376.396-.112.143.376zM400.92 390.796l-.161-.477.472-.119.161.477zM399.77 393.372l.352-.136.094.182-.35.136zM413.87 404.475l.783-.119.084.414-.783.117zM414.649 407.152l-.225-.64.257-.067.225.639zM414.81 407.204l.545-.143.129.366-.545.142zM347.508 378.428l.041.19-.212.035-.018-.085-.108.018-.023-.106zM347.12 379.522l-.104-.564.575-.08.105.564zM346.596 380.055l-.161-.731.46-.076.161.731zM345.567 380.072l-.145-.595.688-.125.145.596zM343.933 379.996l.668-.151.155.513-.667.151zM340.02 379.06l-.06-.198.675-.152.136.45-.767.173-.077-.253zM294.854 321.729l-.121-.233.219-.085.12.233zM294.527 323.128l.036-.448.423.025-.036.449zM293.906 326.715l.34-.244.37.384-.34.245zM429.278 433.82l-.346-.121.042-.088-.355-.123.287-.616.7.244zM429.24 434.79l.485-.933.945.365-.484.934zM387.132 424.304l.282-1.385.863.13-.282 1.386zM387.882 424.882l.186-.654.634.134-.185.654zM382.29 425.62l.582-1.963 1.213.268-.58 1.963zM339.436 385.853l.473-.104.098.332-.472.104zM339.315 385.373l.472-.105.099.332-.472.105zM341.337 383.89l.472-.105.098.332-.471.105zM341.66 385.032l.472-.105.098.332-.472.105zM341.494 384.446l.472-.104.099.332-.472.104zM339.053 384.338l.472-.104.1.332-.473.105zM338.874 383.829l.473-.104.098.332-.472.104zM340.194 379.947l.669-.124.101.406-.668.125zM339.254 377.2l.597-.111.097.386-.597.11zM434.355 319.841l1.357.281-.123.443-.342-.07-.055.197-.595-.124-.073.261-.419-.087zM389.2 329.18l.78-1.715-2.9-.984-.78 1.717zM361.25 351.382l-.436.083-.165-.648.437-.083z" clip-path="url(#p931b2f7000)" style="fill:#a9a9a9;fill-opacity:.8"/><path d="m395.962 331.38.214-.457.426.148.039-.084.684.238-.04.084.416.145-.214.457-.415-.145-.05.109-.684-.238.05-.109zM395.669 331.998l-.067.083-.102.05-.117.007-.108-.038-.079-.075-.033-.097.018-.1-2.194-.764-.075.087-.115.042-.124-.013-.1-.065-.049-.1.016-.106.264-.566 2.616.91.048-.1.513.178zM405.538 382.553l.738.25-.111.246-.739-.25zM403.696 383.425l.591-1.297 1.251.425-.591 1.297zM406.98 385.667l1.057-1.462.897.484-1.057 1.462zM406.19 390.792l2.662-.821.15.363-3.176.98-.844-2.037 3.176-.98.186.449-.345.106-.074-.178-2.317.716z" clip-path="url(#p931b2f7000)" style="fill:#a9a9a9;fill-opacity:.8"/><path d="m408.852 389.97-2.663.822-.581-1.402 2.317-.716.074.178.345-.106z" clip-path="url(#p931b2f7000)" style="fill:#a9a9a9;fill-opacity:.8"/></g></g></g><defs><clipPath id="p931b2f7000"><path d="M193.573 86.4h350.853v554.4H193.573z"/></clipPath></defs></svg>