<svg xmlns="http://www.w3.org/2000/svg" width="960" height="960" viewBox="0 0 720 720"><defs><style>*{stroke-linejoin:round;stroke-linecap:butt}</style></defs><g id="figure_1"><path id="patch_1" d="M0 720h720V0H0z" style="fill:#fff"/><g id="axes_1"><path id="patch_2" d="M90 509.893h558V217.307H90z" style="fill:#fff"/><g id="LineCollection_1"><path d="m520.54 277.53 4.377-7.023 1.477-3.223.643-2.787 1.35-6.844.585-1.6 1.218-1.623 6.289-6.46 5.721-6.224 1.243-1.95.877-1.985 2.11-6.94.948-1.633.606-.817 1.06-.889 1.4-.855 2.081-.69 4.63-1.444 3.954-1.22 2.316-.389 2.314.179 1.924.402 2.441.878 8.851 4.463 4.697 2.02 3.313 1.543 3.091.914 1.185.176 1.425.062 11.453-1.738 1.692.15 1.491.48 1.991.828 5.316 3.066 5.167 3.293 2.536 1.344 1.589.727 1.339.258 1.764.323 2.346.194 2.99-.266 2.25-.507 2.68-.862M455.197 361.784l1.81-3.496M455.197 361.784l-3.334 6.005M455.197 361.784l-3.576 1.849M451.621 363.633l-1.91 2.8M451.621 363.633l-3.5 1.425M448.121 365.058l1.59 1.375M435.565 372.865l.388-.509.45-.314.752-.567 2.403-1.76 3.425-2.746 1.56-1.226 1.231-1.4.227-.144.331-.018.437.154 1.352.723M449.712 366.433l2.15 1.356M449.712 366.433l-4.136 6.81M451.863 367.789l4.006 2.283M451.863 367.789l-3.756 6.706M460.211 368.496l-1.693 3.247M455.869 370.072l2.65 1.671M455.869 370.072l-3.566 6.941M458.518 371.743l3.837 2.2M458.518 371.743l-3.514 6.582M445.576 373.243l-2.713 4.286M445.576 373.243l2.531 1.252M462.355 373.943l-4.084 8.222M457.597 392.638l6.536-16.99.081-.227.042-.208v-.146l-.056-.154-.26-.173-1.585-.797M463.864 370.676l-.701 1.507-.808 1.76M448.107 374.495l-2.46 4.388M448.107 374.495l4.196 2.518M435.504 376.777l-1.95 3.246M435.504 376.777l2.665 1.597M435.565 372.865l-.454.917-.35.609-.1.314-.023.23.057.182.766.472.19.237.047.218-.02.272-.075.164-.1.297M452.303 377.013l-2.231 4.158M452.303 377.013l2.701 1.312M442.863 377.529l-1.615 2.527M442.863 377.529l2.785 1.354M455.004 378.325l-.911 1.673M438.17 378.374l-1.769 3.365M438.17 378.374l3.078 1.682M445.648 378.883l-1.472 2.694M445.648 378.883l4.424 2.288M441.248 380.056l-2.263 3.114M441.248 380.056l2.928 1.52M454.093 379.998l-1.34 2.58M454.093 379.998l4.178 2.167M433.554 380.023l2.847 1.716M430.496 383.324l.373-.902.202-.229 1.135-.254.416-.318.932-1.598M450.072 381.171l-1.563 2.855M450.072 381.171l2.68 1.407M444.176 381.577l-1.866 3.312M444.176 381.577l4.333 2.449M436.401 381.739l2.584 1.43M434.487 385.365l.246-.265.264-.346.218-.408.17-.682.246-.69.294-.5.476-.735M414.49 384.636l.317-.817-.019-.636-.142-.6-.209-.498M458.271 382.165l-1.28 2.594M452.752 382.578l4.239 2.181M452.752 382.578l-1.464 2.89M430.496 383.324l3.991 2.041M430.496 383.324l-1.758 3.773M411.996 383.465l2.494 1.17M438.985 383.17l3.325 1.719M438.985 383.17l-1.879 3.323M448.51 384.026l-1.734 3.334M448.51 384.026l2.778 1.442M421.798 384.13l-1.968 3.013M432.017 373.61l-3.715.8-.59.126-.536.163-1.395 1.554-1.182 2.88-1.359 2.714-1.442 2.282M416.483 385.571l2.109-2.633.189-.163.246-.019.265.055.444.18 2.062 1.138M414.49 384.636l1.993.935M456.99 384.76l-3.027 6.133M442.21 385.053l-1.713 3.02M442.21 385.053l4.566 2.307M442.21 385.053l.1-.164M434.487 385.365l2.619 1.128M434.487 385.365l-1.936 3.269M451.288 385.468l-1.742 3.304M416.483 385.571l-1.951 3.123M416.483 385.571l3.347 1.572M437.106 386.493l3.391 1.58M437.106 386.493l-1.784 3.24M411.164 386.754l3.368 1.94M428.738 387.097l-2.501-.978M428.738 387.097l3.813 1.537M428.738 387.097l-1.389 3.576M419.83 387.143l-2.158 3.36M427.35 390.673l-2.422-1.137-.6-.28-4.498-2.113M446.776 387.36l-1.453 2.795M446.776 387.36l2.77 1.412M440.497 388.074l4.826 2.081M440.497 388.074l-1.837 2.998M432.551 388.634l-1.728 3.59M432.551 388.634l2.771 1.098M414.532 388.694l3.14 1.81M414.532 388.694l-2.856 3.931M449.546 388.772l-1.363 2.668M449.546 388.772l4.417 2.121M435.322 389.732l-1.892 3.82M435.322 389.732l3.338 1.34M445.323 390.155l.355.163M417.672 390.503l-2.943 4.581M417.672 390.503l5.908 3.406M427.35 390.673l3.473 1.552M425.172 396.279l.275-.708.212-.546 1.69-4.352M453.963 390.893l-1.243 2.412M453.963 390.893l3.634 1.745M438.66 391.072l5.69 2.31M438.66 391.072l-1.186 2.182M448.183 391.44l4.537 1.865M448.183 391.44l-2.505-1.122M430.823 392.225l2.607 1.327M426.488 400.324l1.624-2.949.233-.496 2.478-4.654M411.676 392.625l3.053 2.459M411.676 392.625l-2.843 1.432M457.597 392.638l-.951 2.28M457.597 392.638l3.106 1.49M424.24 392.893l-.66 1.016M444.35 393.382l-1.266 2.92M444.35 393.382l1.328-3.064M444.35 393.382l6.993 2.823M452.72 393.305l3.926 1.612M452.72 393.305l-1.377 2.9M437.474 393.254l5.61 3.048M437.474 393.254l-1.063 1.955M433.43 393.552l2.981 1.657M430.53 398.436l.603-1.094.278-.505 2.02-3.285M423.58 393.909l-.71 1.094M408.833 394.057l4.02 3.947M408.833 394.057l-7.267 4.875M460.703 394.129l8.931 1.054M460.703 394.129l-4.057.788M422.87 395.003l-2.83 4.357M422.87 395.003l2.302 1.276M414.73 395.084l-1.876 2.92M414.73 395.084l2.682 2.16M456.646 394.917l-1.097 2.963M436.411 395.209l5.533 3.36M433.784 400.006l.583-1.107.268-.51 1.776-3.18M451.343 396.205l4.206 1.675M425.172 396.279l-1.088 2.802M443.084 396.302l11.148 4.822M443.084 396.302l-1.14 2.268M417.412 397.243l2.628 2.117M417.412 397.243l-2.674 2.61M455.55 397.88l-1.318 3.244M412.854 398.004l1.884 1.85M413.27 409.524l-1.454-1.316-.479-.624-.378-.582-.321-.78.094-1.29.151-.527.265-1 .398-1.107.019-1.2.132-.49.432-1.038.725-1.566M430.53 398.436l3.254 1.57M430.53 398.436l-1.708 3.104M441.944 398.57l11.332 5.087M424.084 399.08l-1.045 2.693M424.084 399.08l2.404 1.244M420.04 399.36l2.999 2.413M420.04 399.36l-2.26 3.48M414.738 399.854l3.043 2.986M433.784 400.006l-.917 1.743M433.784 400.006l5.101 2.462M426.488 400.324l2.334 1.216M426.488 400.324l-1.315 2.538M454.232 401.124l7.538 3.1M454.232 401.124l-.956 2.533M428.822 401.54l3.269 1.683M428.822 401.54l-1.37 2.49M432.867 401.75l-.776 1.473M432.867 401.75l5.924 3.024M423.039 401.773l2.134 1.089M423.039 401.773l-1.009 2.597M462.387 402.286l-.617 1.939M417.78 402.84l3.508 3.442M417.78 402.84l-1.598 2.461M425.173 402.862l2.278 1.168M425.173 402.862l-1.284 2.474M432.09 403.223l-1.313 2.496M432.09 403.223l6.512 3.368M453.276 403.657l.337.248M427.451 404.03l3.326 1.69M427.451 404.03l-1.355 2.46M461.77 404.225l4.1 1.548M461.77 404.225l-.6 1.88M422.03 404.37l1.86.966M422.03 404.37l-.742 1.912M456.788 404.59l-1.995 5.854M456.788 404.59l2.187.82M456.788 404.59l-3.175-.685M416.182 405.301l4.017 3.85M416.182 405.301l-1.451 2.235M423.89 405.336l2.206 1.155M423.89 405.336l-1.225 2.36M458.975 405.41l-1.886 6.25M458.975 405.41l2.196.695M430.777 405.72l-1.324 2.506M430.777 405.72l6.803 3.615M461.17 406.105l-2.042 6.413M461.17 406.105l2.243.71M421.288 406.282l1.377 1.415M421.288 406.282l-1.089 2.87M426.096 406.49l3.357 1.736M426.096 406.49l-1.706 3.1M463.413 406.815l-1.939 6.408M463.413 406.815l2.331.606M453.72 406.5l1.073 3.944M453.72 406.5l-.107-2.595M452.207 411.578l.473-1.026 1.04-4.052M465.744 407.421l-1.967 6.494M465.744 407.421l2.495.664M414.73 407.536l4.565 3.996M414.73 407.536l-1.46 1.988M422.665 407.697l1.725 1.893M429.453 408.226l-1.179 1.954M429.453 408.226l6.31 3.416M468.239 408.085l-2.02 6.564M468.239 408.085l2.424.666M470.663 408.751l-2.133 6.592M470.663 408.751l2.008.666M420.199 409.151l3.027 2.901M420.199 409.151l-.904 2.381M413.27 409.524l2.688 2.435M412.157 415.975l-1.93-1.759-.015-.11.04-.13.136-.3 2.882-4.152M472.671 409.417l-1.94 6.588M474.176 417.4l.653-5.05-.236-.736-.331-.808-.436-.627-.653-.427-.502-.335M424.39 409.59l2.664 2.611M428.274 410.18l-1.22 2.021M428.274 410.18l6.145 3.297M454.793 410.444l.147.736M454.94 411.18l2.15.48M457.09 411.66l-.673 2.507-.167.088-.145.022-.226-.02-.284-.4-.655-2.677M419.295 411.532l2.767 2.423M419.295 411.532l-1.269 2.3M457.09 411.66l2.038.858M415.958 411.96l-3.8 4.015M415.958 411.96l2.068 1.873M423.226 412.052l2.58 2.217M423.226 412.052l-1.164 1.903M427.054 412.201l-1.247 2.068M427.054 412.201l1.765 1.811M459.128 412.518l-1.15 3.61M459.128 412.518l2.346.705M461.474 413.223l2.303.692M459.738 419.961l.549-2.815 1.187-3.923M418.026 413.833l1.583 1.433M418.026 413.833l-4.061 3.84M463.777 413.915l-1.238 4.175M463.777 413.915l2.443.734M422.062 413.955l2.575 2.254M422.062 413.955l-1.39 2.275M425.807 414.269l-1.17 1.94M425.807 414.269l6.229 5.347M466.22 414.65l-1.297 4.221M466.22 414.65l2.31.693M419.609 415.266l1.063.964M419.609 415.266l-3.866 4.024M468.53 415.343l-1.128 4.128M468.53 415.343l2.201.662M470.731 416.005l-1.172 4.23M412.157 415.975l1.808 1.698M424.637 416.209l-1.41 2.336M424.637 416.209l6.216 5.442M420.672 416.23l.66.598M421.332 416.828l1.895 1.717M421.332 416.828l-3.63 3.89M413.965 417.673l1.778 1.617M423.227 418.545l-3.285 3.81M426.546 421.358l-.788-.662-2.531-2.151M415.743 419.29l1.959 1.428M417.702 420.718l2.24 1.636M423.97 425.516l-.81-.813-3.218-2.349M390.946 405.555l-4.107-.402-7.72-3.415-3.292.093-.7.091-.621.252-1.893-.073-.816-.452M401.566 398.932l-.591-4.624-.662-4.213-.303-1.216-.246-.764-.681-1.107-.72-.927-.246-.818-.378-1.253-.606-1.563-1.116-1.162-1.473-.58-1.271-.13-2.498-.418M452.207 411.578l-1.06 2.298-.687 2.035-.226 2.525.11 2.615.075 1.708v.872l-.094.563-.243.8-.818 2.377-.075.82.382.873.545 1.324.38 1.49.131 2.305.057 3.581.363 3.235 1.227 5.594.075 1.687.285 9.23.226.89.814 1.852 1.098 2.436.605 1.923.965 4.216.303 3.361.34 1.47" clip-path="url(#p45853ba69c)" style="fill:none;stroke:#000"/><path d="m521.291 502.303-.783-.232-1.703-.237-1.684-.054-1.476.127-2.687.382h-.908l-.813-.328-1.08-.529-1.002-1.07-.435-.871-.454-1.126-.663-.945-1.154-1.09-.332-.362-.406-.442-.095-.104-.643-.182-1.06-.073-1.503.013-2.164.607-.874.089-1.06-.273-.87-.563-1.722-1.09-2.687-1.998-2.044-1.525-1.456-1.018-1.306-.327-1.911-.127-2.82.11-1.097.453-.397.363-.455.673-.738 1.652-1.057 2.563-1.646 2.417-1.362 2.651-.628.471-.814.253-.624-.107-1.4-.475-1.987-1.087-1.97-1.31-.963-.816-.697-.998-.343-.855-.341-1.58-.227-1.254-.795-2.361-2.461-7.032-.51-1.706-.681-1.707-.626-.91-2.077-1.686-1.271-1.255-1.345-1.765" clip-path="url(#p45853ba69c)" style="fill:none;stroke:#000"/><path d="m446.937 504.266 1.836-2.286 1.646-1.6 1.003-.871.965-.926.587-.91.095-.398.037-.745-.416-1.381-.757-2.162-.359-1.653-.265-1.889.151-1.035.246-.8.108-.492.535-2.45.908-2.6.984-2.34 1.08-1.236.832-1.456.473-1.415.358-1.964M423.97 425.516l4.518 1.857M423.97 425.516l2.576-4.158M423.97 425.516l-3.846 8.324M425.066 436.257l-4.942-2.417M425.066 436.257l-1.23 2.635M428.488 427.373l.513.485-.226.509-.303.671-1.365 3.04-2.04 4.18M401.566 398.932l-10.62 6.623M428.488 427.373l.388.064.227-.037.208-.2.227-.3.634-1.552.218-.518.01-.318-.067-.237-.16-.227-.266-.181-.274-.164-.52-.29-2.567-2.055M420.124 433.84l-1.57 2.798M321.388 497.965l.415-.781 1.419-3.088 1.325-3.742.435-1.362.284-.527.36-.49 1.456-1.146 2.385-1.725.87-1.108.625-1.108.472-.909.53-1.38 1.552-4.505.7-1.708.605-.509.89-.436 1.003-.054.984.309.87.382 1.117 1.035 1.097.927 1.817.98 1.135.6.947-.037.927-.417.984-.654.757-.69.51-.91.284-.599.19-.69.245-.726.87-1.126.474-.509.321-.454.133-.546.057-.654-.209-.817-1.002-1.943-2.934-5.196-1.684-2.543-1.21-1.762-2.385-3.56-.586-1.145-.36-1.126-.038-1.036.038-2.924.511-2.817.946-3.07.795-1.98 1.615-1.22 5.822-3.266 3.67-2.398 2.672-2.052 1.643-1.581 1.104-2.219 1.892-4.287 3.384-3.684 2.195-.872 7.327-.094 1.362-.146.599-.252.132-.29.114-.51.056-.744.046-1.91.541-1.16 2.328-2.235.851-.472 1.419-.363 1.287-.273 2.99-2.18 5.582-1.926M418.553 436.638l5.284 2.254M423.837 438.892l-.978 2.305-.095.191-.094.109-.18.119-.218.045-.265-.037-4.532-1.77-.245-.2-.096-.2-.028-.236.142-.319 1.305-2.261M457.008 358.288l2.132-5.337M471.711 349.75l-1.109 1.768-.995 1.063-1.288.947-1.059.597-2.27.69-3.923.918-3.231 1.579-.828.976M435.565 372.865l-3.548.745M521.291 502.303l1.1-.623.606-.61.492-.598.652-.436 1.136-.454.965-.464.937-.545.501-.544.672-.5.918-.7.652-.335.823-.237 1.013-.108 1.079.118 1.003.126h.775l.587-.126.937-.3.672-.291.558-.127.501.145.435.182.473.345.246.481.294.436.463.39.634.528.662.717.625.509.719.327 1.419.581 3.198 1.208 1.343.617" clip-path="url(#p45853ba69c)" style="fill:none;stroke:#000"/><path d="m105.953 359.642.908-.073 1.817-.508 5.26-2.035 1.022-.255 2.498-.254 5.79.146 1.779-.364 1.022-.436.946-.763 1.173-1.271.757-1.018.228-.799.113-1.308-.227-2.98v-2.543l.151-.835 1.4-2.653 1.741-2.689.871-.472 1.627-.4 1.514-.544 4.05-2.108 2.043-.726.946-.145 2.574.218 1.442-.005 1.604-.281 2.12-.545.813.054.511.237.474.417.661 1.036 3.18 6.45.548.326.738.037 1.458-.073 2.024-.29 5.904-1.091 1.797-.654h.36l1.192.454 1.74.872.777.89.51.91.569 2.234.208 1.708.037 1.598.246 1.199.72 1.617 1.438 2.18 1.59 2.798 1.93 4.178.737 1.226.483.31.633-.21 3.52-4.033 1.23-.726 1.08-.073 1.399.145 1.192.654 3.917 4.052.473.88.72.536 1.352.709 2.158.69.813.1 1.145-.027 1.05-.427 1.391-.9.567-.081.578.154.709.645 1.344 2.625.245.909.663 1.163.587.381 2.819 1.672.53.527.776 1.09.492.563.643.399 4.845 2.144.264.417.605 3.325 3.369 8.957.19 2.488.207.545.776 1.017.17.691-.416 6.268-.378.654-1.098 1.38-1.741 1.344-1.173 1.49-1.135.8-1.212.435-3.065.51-4.277.217-.946-.073-.661.254-.436.328-.321.8.302 1.253.663.853.132.527-.208.709-.436.672-1.76 2.325-.056.509.113.945.038 3.305.17.764.266.526.586.473 4.674 2.724 1.4.564 1.381.272.606.418.53.672 1.382.89 1.324.545 1.835.509 1.23.909 1.722 1.997 1.476 2.072.7.544.776.2 2.46-.29 1.117-.2.624.182.605.436.606 1.253.398 1.18.89 4.888.131.944.227.527.511.472.473.69.247 1.108-.038.6-1.098 2.452.038.436.435.4.795.963.72 1.962 2.572 1.508.795.054.908-.29.464-.382.482-.218.36-.036.568.109.605.363.89.79.444.745.105.809-.436 1.107-.378 1.753-.795 3.106.095.882.34 1.507 4.078 12.19.52.69.69.618.588.327 1.636.372 2.309.427 3.047.209 1.93.509.567.39.587 1.653.114 2.161-.133 1.744.7 2.98 1.987 5.195.927 1.507.87.836 1.174.509 1.135.164.663-.273 2.005-1.672.681-.29.265-.036.568.163.87.418 5.469 2.38 3.67 1.852 1.278.836.672.21 1.268.053.719-.127 8.534-5.35 4.636-2.433 1.116-.11 3.406.618 2.536-.072 1.381.127 1.117.472 3.198 2.343 2.876 1.327 2.195.345 2.48.617 3.67 1.127 1.023-.055M432.017 373.61l-.72-.72-.29-.506-.052-.092-1.426-2.489-3.974-4.578-.075-1.308-.606-.945-3.747-3.67M452.207 411.578l-9.552-3.557M520.54 277.53l-4.581 7.347-1.694 2.729-1.23 1.588-2.412 2.595-12.847 12.037-4.352 3.874-3.032 3.173-2.958 3.322-4.529 5.375-2.24 2.793-1.588 2.445-3.038 5.292-2.08 4.713-.757 1.345-.643 1.453-.417 1.072-.075 1.399.082 1.682.201 1.66.285 1.245-.02 1.354-.245 1.925-.446 1.463-.213.34M458.137 348.749l-.265-2.49-.227-2.434 1.097-2.271 1.117-.854.927.582 1.665 1.598 3.037 3.282 2.636 2.128 2.567 1.225 1.02.235M495.04 270.713l1.2-1.076 6.6.077 6.4.691 7.201 2.113 1.24 1.152 1 1.075 1.12 2.343.738.441M100.73 351.249l1.59 4.251 2.536 3.343 1.097.799" clip-path="url(#p45853ba69c)" style="fill:none;stroke:#000"/></g><g id="PatchCollection_1"><path d="m456.683 384.21-3.355-1.678 1.045-1.925 3.354 1.677zM442.418 385.51l3.732 1.966-1.257 2.174-3.791-1.895z" clip-path="url(#p45853ba69c)" style="fill:green;fill-opacity:.8"/></g><g id="PatchCollection_2"><path d="m435.186 375.98-3.674-1.97-3.174 5.843 3.825 1.916zM422.2 420.11l-1.77 2.016 1.92 1.49 1.666-2.071zM422.152 378.935l-1.864 2.717 2.081 1.126 1.694-2.88z" clip-path="url(#p45853ba69c)" style="fill:#90ee90;fill-opacity:.8"/></g><path id="PatchCollection_3" d="m462.95 398.689-1.23 3.97 3.662 1.226 1.211-4.079z" clip-path="url(#p45853ba69c)" style="fill:#9acd32;fill-opacity:.8"/><path id="PatchCollection_4" d="m431.647 419.537 9.525-20.046 9.725 4.635.747 3.31-1.743 2.42-.855 1.922.072 2.597-.463 3.915.312 4.062 24.098 1.076 1.614-13.142-1.86-2.273-6.605-2.108 1.943-9.253 6.831-.228-.855-10.948-7.408-3.257 2.429-15.973-14.255-8.475-8.628.19-3.24 4.81-2.557 1.98-8.694 5.055-3.46 1.17-6.905 1.369-2.803.4-9.247.49-3.56 7.58-2.2 3.302 2.28 10.589 8.358 7.493-6.266 10.016 11.87 9.995 7.606 5.515z" clip-path="url(#p45853ba69c)" style="fill:#d3d3d3;fill-opacity:.8"/><g id="PatchCollection_5"><path d="m451.614 380.394 1.343.625-.295.587-1.344-.625zM446.918 387.81l2.189 1.022-.47.927-2.188-1.02zM436.025 387.812l-1.118-.494-.247.515 1.118.495zM423.813 362.784l1.42 1.045-.62.775-.542-.398.345-.434-.589-.433.067-.083-.289-.212z" clip-path="url(#p45853ba69c)" style="fill:#a9a9a9;fill-opacity:.8"/></g></g></g><defs><clipPath id="p45853ba69c"><path d="M90 217.307h558v292.585H90z"/></clipPath></defs></svg>