<svg xmlns="http://www.w3.org/2000/svg" width="960" height="960" viewBox="0 0 720 720"><defs><style>*{stroke-linejoin:round;stroke-linecap:butt}</style></defs><g id="figure_1"><path id="patch_1" d="M0 720h720V0H0z" style="fill:#fff"/><g id="axes_1"><path id="patch_2" d="M90 623.564h558V103.636H90z" style="fill:#fff"/><g id="LineCollection_1"><path d="m496.651 178.634-.331.415-.966 1.45-.94 2.09-2.549 8.851-2.538 8.758-.753 2.871-.792 2.877-1.806 6.245-4.677 21.365-4.009 17.308-1.249 5.595-.714 2.86-.797 2.618-1.266 3.104-2.022 3.49-6.2 8.566-6.509 8.58-2.598 3.664-1.443 2.607M448.138 312.448l5.148-17.696 1.206-2.804M420.971 420.344l-2.626-1.557-1.24-.733-.802-.308M417.55 401.453l-1.001 13.675-.084.892-.162 1.726M413.694 416.11l.815.388 1.794 1.248M414.912 420.969l.35-.403.714-1.319.327-1.501M335.453 477.986l-3.21-1.963M391.596 436.867l-6.589 4.337-8.293 5.533-4.107 2.74-4.014 2.819-10.092 7.265-10.102 7.282-4.832 3.439-4.164 3.09-1.837 1.727-1.096 1.388-1.017 1.5M332.735 483.722l1.338-2.954 1.38-2.782M327.489 495.288l-.687 1.41-1.002 1.652-1.13 1.723-1.2 1.454-1.266 1.299M314.92 509.13l5.16-4.377 2.124-1.927" clip-path="url(#p5f872b6ab4)" style="fill:none;stroke:#000"/><path d="m312.876 504.862 1.114-.394.99-.491.94-.492 1.088-.885.866-.664 1.08-.419.677.075.916.295.767.344.89.595M314.92 509.13l-.789.67-4.505 3.863-4.626 3.855-2.31 1.97-2.259 1.912-1.06.876-.966 1.002-2.003 2.189-1.45 2.054-4.484 7.745-2.31 3.875-2.153 3.778-1.392 2.297M216.103 580.718l.705-.254 2.545-.974 2.628-.946 5.228-2 1.918-.96.846-.445 1.144-.635 1.634-1.06 1.592-1.15 3.17-2.153 5.03-3.39 1.116-.705 1.18-.586 2.451-1.108 3.035-.968 4.164-1.059 2.033-.494 6.239-1.673 2.864-.79 1.499-.474 1.506-.55 2.488-1.179 2.409-1.483 1.059-.748.504-.395.484-.48 1.733-1.476 1.25-1.13 1.28-1.122 2.48-2.33 2.296-2.785M278.951 526.677l.506 1.216.305 3.605.5 1.692.36 2.717 1.164 1.248 1.58 1.497.806 1.581.027 1.692.25 1.247.164 2.044M173.272 597.924l-2.64 1.728-2.189 1.2-1.52.58-1.436.507-5.991 1.553M125.59 613.566l2.092-1.616 1.493-.579 7.007-1.779 7.077-1.85 7.035-1.807 3.554-.932 5.648-1.51" clip-path="url(#p5f872b6ab4)" style="fill:none;stroke:#000"/><path d="m112.406 567.631 1.22-.166.5-.887.498-.915 2.745-1.859 1.886-2.384.527-.278.86-.277.72-.721.777-.555.777-.222 1.414.666 1.969 1.525 1.664 1.47 1.747.748 1.636 1.97 3.688 7.099 4.686 9.65 1.97 1.525 1.747 1.22 1.47.528 3.355-.084 1.386.277 1.636.916 1.165 1.83 1.664 2.856 1.525 2.08.444 2.08 3.414 7.77M112.406 567.631l.388 1.692-.055 1.47-9.207 8.957-2.468 1.303-.333 1.22.277 1.498 7.265 13.227 1.055 1.193.97.527 2.773.61 1.498 1.58 6.988 9.568 4.033 3.09M364.01 406.89l-.605-2.274M363.32 408.664l.542-1.278.148-.497M366.429 406.3l-2.02.367-.399.222M359.16 418.046l1.44-3.247M359.16 418.046l5.28 1.806M359.16 418.046l-.807-.276M360.614 410.96l1.363.733M374.135 404.901l-2.996.544M374.162 402.501l.108 1.777-.135.623M373.699 410.487l.177-2.353.188-.708-.02-.801.091-1.724M362.646 401.752l.593 2.244M362.646 401.752l-3.863.553M368.85 400.907l-5.233.705-.97.14M352.953 405.682l1.812-.292M374.162 402.501l-4.957.584M374.162 402.501l-.276-2.186M374.162 402.501l-4.889 1.05" clip-path="url(#p5f872b6ab4)" style="fill:none;stroke:#000"/><path d="m380.28 402.954-1.036-.166-2.726-.373-1.241-.033-1.115.119M359.266 405.353l-.097-.674M359.266 405.353l.334 1.967M359.266 405.353l4.139-.737M358.573 401.014l.21 1.291M369.61 405.723l1.53-.278M369.61 405.723l-1.238.224M369.61 405.723l-1.52 2.734M369.61 405.723l-.337-2.173M368.327 397.088l-.116-2.478M368.85 400.907l-.095-.68-.428-3.139" clip-path="url(#p5f872b6ab4)" style="fill:none;stroke:#000"/><path d="m371.478 396.67-1.815.199-1.336.22M362.285 395.58l.19.278.796 1.546.152.208.247.132.517.038 4.14-.694M366.429 406.3l1.943-.353M366.429 406.3l-.4-2.151M366.028 404.149l-.104-.563M366.028 404.149l3.245-.599M366.028 404.149l-2.623.467M358.783 402.305l.386 2.374M368.85 400.907l.355 2.178M368.85 400.907l3.146-.37M373.886 400.315l4.587-.406M373.886 400.315l-1.89.222M373.886 400.315l-.423-3.863M368.09 408.457l.282-2.51M368.09 408.457l-.502 1.57M368.09 408.457l2.858.931M355.422 444.27l-4.548 5.065M357.9 440.364l-.095.273-.686 1.46-1.697 2.173M353.406 441.582l.17.29.816 1.304 1.03 1.094M358.311 439.193l-.41 1.171M358.311 439.193l1.185-3.824M361.993 437.515l-.63.657-.484.306-2.568.715M380.773 412.697l-1.523-.468M380.773 412.697l2.195-9.224M380.773 412.697l4.054-3.252M380.773 412.697l-.48 1.996M384.357 403.886l-.179-.236-1.21-.177M380.926 403.057l.946.152 1.096.264M404.693 393.15l-1.62 1.348M392.827 403.025l4.693-3.906M392.827 403.025l-2.968 2.381M392.827 403.025l2.079 2.502M392.827 403.025l-2.489-3.094M373.463 396.452l1.976-.385M373.463 396.452l-1.985.218M370.948 409.388l.431-1.906-.24-2.037M373.699 410.487l-1.098-.458-1.463-.58-.19-.06M375.44 396.067l-2.108-2.61M375.44 396.067l2.765-2.318M378.473 399.91l-1.372-1.745-1.227-1.711-.435-.387M380.72 403.024l.206.033M380.72 403.024l-.44-.07M378.473 399.91l1.235 1.573 1.013 1.541M370.973 389.786l2.359 3.671M373.332 393.457l2.557-2.477M368.211 394.61l3.378-.62 1.188-.197.555-.336M375.328 411.023l3.922 1.206M373.699 410.487l.324.135 1.305.401M380.28 402.954l-1.304 1.865-.393.358-1.128.532-.208.396-.17.988-.313 1.073-.298.466-.128.508-1.01 1.883M362.285 395.58l5.926-.97M362.285 395.58l-1.5-2.192M368.211 394.61l-.423-2.523M382.051 390.24l-3.846 3.509M378.205 393.749l-2.316-2.769M378.87 385.903l.721 1.225-.108.372-3.594 3.48" clip-path="url(#p5f872b6ab4)" style="fill:none;stroke:#000"/><path d="m385.381 399.68-1.595 1.23-1.362 1.083-1.498 1.064M408.955 413.508l-.457.183M404.031 407.045l1.202 1.48 2.02 2.458 1.702 2.525M413.143 415.847l-.61-.291-.908-.471-1.028-.256-1.106-.57-.536-.75M407.504 399.872l-2.432 1.984M407.504 399.872l2.34 2.603M405.353 397.28l1.075 1.31 1.076 1.282M385.381 399.68l1.617 2.078M393.845 394.684l-.71-.854-6.194 4.645-1.56 1.204M367.588 410.027l-.43 1.339M363.32 408.664l2.08.685 2.188.678M363.32 408.664l-1.343 3.03M367.159 411.366l-.866 2.705M367.159 411.366l5.943 1.425M380.294 414.693l-1.65-.442M373.329 416.37l4.942 1.541.442.04.53-.11.28-.448.183-.258.588-2.442M332.735 483.722l-.642 1.369M332.735 483.722l-.371.21-.35.219-.124.064-.336.12-.354.078-.35.07M330.16 484.408l.44.422M332.242 476.023l-.776 1.42-.71 1.765-.637 1.573-.527 1.712-.15.653.016.625.392.434.31.203M330.16 484.408l.69.075M332.093 485.09l-.21.436M332.093 485.09l-.15-.121-.167-.11-.184-.126-.742-.25M331.883 485.526l-.58 1.321M330.6 484.83l.487.389.469.169.327.138M327.489 495.288l.478-.983.995-2.295 1.052-2.21 1.289-2.953M330.6 484.83l.46.776.243 1.241M403.257 426.6l.084.615M400.748 422.243l.191.349.415.718 1.903 3.29M403.257 426.6l.34.397M405.646 427.613l4.285-2.81M405.646 427.613l-.655-.072-.628-.112-.45-.18-.317-.252M404.32 428.507l.492-.339.834-.555M404.32 428.507l-.501.327M404.32 428.507l-.098-.584-.626-.926M404.32 428.507l-.219 1.277M403.819 428.834l.282.95M402.716 429.548l.484-.318.619-.396M403.341 427.215l.153.542.136.513.189.564M403.341 427.215l.019.27-.066.708-.216.68-.362.675M400.026 431.318l.264-.172 2.426-1.598M398.226 393.51l2.448 2.984M398.226 393.51l-1.664-1.811M398.226 393.51l.943-.787M398.226 393.51l-3.2 2.594M389.916 399.407l.422.524M389.916 399.407l-2.918 2.35M389.916 399.407l2.74-2.208M399.634 411.378l-2.48-3.068M402.666 394.836l-1.992 1.658M402.666 394.836l.406-.338M417.773 388.654l-.963-.292-.85-.356-.832-.244-.8-.097-.702.26-1.176.664-1.24.309-1.34.324-3.558.843-1.127.26-.963.406-.424.292-.678.569-.417.724-.031.669-.025.574.02 1.277M418.521 388.203l-.308.37-.44.081M418.454 389.123l-.24-.274-.441-.195M418.521 388.203l-.067.92M420.214 381.85l-.93 2.005-.413 1.305-.222 1.306-.128 1.737M418.454 389.123l-.903 12.33M403.072 394.498l2.281 2.782M394.906 405.527l2.248 2.783M394.906 405.527l4.791-3.782M405.353 397.28l-2.449 1.933M424.926 426.584l1.428-2.296M409.931 424.803l-2.128-5.525M414.912 420.969l-.814.936-1.114.78-2.291 1.605-.762.513M401.051 409.389l.622-.49M409.844 402.475l-2.593 2.038M411.635 403.266l-1.016-.79-.323-.132-.452.13M406.311 414.568l2.187-.877M406.311 414.568l-.45.18M406.311 414.568l-4.638-5.669M401.673 408.9l2.358-1.855M358.552 413.901l2.048.898M365.289 420.143l-.849-.29M362.367 426.326l-1.076 3.357M362.367 426.326l2.073-6.474M369.995 429.57l-.429-1.031-.39-.239-6.81-1.974M368.307 431.852l1.506-1.868.182-.414M373.329 416.37l-2.333 10.818-1 2.382M361.291 429.683l-.781 2.438M361.291 429.683l7.016 2.169M368.307 431.852l1.429.455M368.307 431.852l-1.219 2.068M356.062 434.311l3.434 1.058M365.012 436.906l3.252 2.248M365.012 436.906l-2.569-.716M365.012 436.906l1.83-2.484M361.993 437.515l.498-.18 1.942.083.579-.512M356.118 430.92l4.392 1.201M367.088 433.92l-6.578-1.799M367.088 433.92l-.246.502M375.359 440.31l-1.133-.777M367.756 435.095l-.274-.188-.64-.485M369.736 432.307l-1.98 2.788M375.075 436.407l-.367-.318-4.413-3.604-.56-.178M367.756 435.095l2.932 2.011M528.286 420.49l-.484-.65-1.648-3.275-2.047-4.292-.483-.707-3.354-1.045-1.99-.875-1.819-1.102-2.53-1.75-.654-.622-.625-1.214-.994-1.836-.655-.225-2.814-.565-3.098-.734-2.079-.22-1.463.075-.468-.168-.338-.428-.919-1.881-2.369-4.486-.787-1.938-.826-1.826-1.762-2.813-2.025-2.776-1.82-1.752-.862-.54-1.126-.187-2.006-.428-.675-.466-.488-.82-1.181-1.471-.882-.56-2.55-1.005-1.181.093-1.332.447-2.382.82-1.2-.019-1.163-.112-2.231-.521-2.213-.485-2.289-1.839-.792-.369-.742-.294-1.485-.615-1.04-1.13-.643-.69-.99-.491-1.806-.738-1.856-.86-2.004-.516-3.118-.148-2.598-.27-2.35-.762-1.535-.59-1.361-.763-2.574-1.671-2.326-.025-2.177.099-3.96.32-.742.245-.747.33" clip-path="url(#p5f872b6ab4)" style="fill:none;stroke:#000"/><path d="m448.138 312.448-14.266 49.038-.817 2.658-1.225 2.86-.202.35M423.495 377.41l.871-.857 4.544-5.044 1.654-2.313 1.064-1.841M541.162 421.479l-2.046-.396-9.637-.339-1.193-.254M574.665 608.974l-.789-.424-.67-1.038-1.828-2.01-1.24-.65-1.175-.908-1.568-2.335-1.11-.908-1.11-.714-1.306-.584-2.351-1.427-1.241-.26-1.24.065-.98-1.621-.784-1.039-1.045-.843-.849-1.168-.261-1.298-1.11-.583-.588-1.168-.392-1.427-.457-1.233-.587-1.168-.85-1.167-.522-1.233-.849-2.66-.588-1.233.066-1.297.391-2.725 1.045-6.033-.522-1.363-.784-1.103-1.11-.908-.783-1.038-.392-1.297-.719-1.103-1.24-.454-1.437-.195-1.175-.454-.719-1.168-.392-1.362-.196-1.363-.457-1.556-1.11-1.039-1.175-.908-.261-1.298-.523-1.167-.98-.973-1.697-2.336-.588-1.168-.065-2.724-.327-1.298-.783-1.233-.85-1.037-3.19-2.251-1.142-.75-.625-.962-.754-.792-.56-.899-.667-.578-.755-.364-1.12-.256-3.295-.92-.884-.707-.99-1.027-.711-1.327-.84-3.296-.389-2.846-.301-.899.15-.92-.882-3.382.301-1.155.151-1.948.646-1.69-.172-2.933.41-1.904-.13-.664-.366-.535-1.21-1.075-1.567-2.109-.735-.503-.636-.957-.148-.519.082-.584.784-1.313 2.481-2.287.147-.487-.833-2.709-.75-1.621-.302-1.455.086-2.997-.065-.834.819-2.29.172-1.327.13-2.933.56-.898 1.766-1.883.991-.621.883-.343.905-.685.71-.706 1.703-.77 2.24-1.498 1.81-1.306 1.83-1.776.711-.45.949-1.027 1.809-2.547 1.444-2.46.603-.322 2.714-.877.517-.385.194-.45 1.227-3.874 1.853-6.356 1.379-3.467.237-1.006-.086-.492-1.336-3.318-2.499-5.157-5.234-10.637-1.38-2.997-1.162-1.947-1.784-3.59M607.866 443.773l-.62.04-3.39-1.279-2.697-.713-4.726-1.376-1.757-.244-4.256-.148-6.335 3.049-1.385.049-1.139-.246-2.326-1.327-2.121-1.264-2.234-1.097-1.385-.808-1.09-.913-2.177-1.72-.912-.898-.82-1.02-1.636-2.554-2.262-1.306-4.277-2.165-6.027-2.401-6.14-2.315-6.992-1.638M617.102 382.512l-.228.033-.27.21-.359.366-.326.478-.327.519-.849.446-1.142.195-1.617.34-2.073.341-1.502.309-1.24.145-1.552-.097-1.355.033-6.824.615-1.551.18-1.257-.163-.767-.227-.8-.552-.85-.73-.734-.583-.784-.39-1.257-.568-1.12-.213-.862.213-.603.386-.43.75-.345 1.454-.345 1.862-.215 1.092-2.68 5.42-.284.96-.427 1.13-.768.678-1.08 1.327-1.393 1.638-.397.904-.256.904-.569.734-2.444 2.033-1.052.79-.71.707-2.843 2.259-3.866 2.429-1.563.113-1.222-.198-.711-.819-.455-1.045-.625-.875-.597-.65-.17-.593-.939-.564-2.387-1.271-1.706-.565-.881.056-1.535.31-1.421.368-1.137.48-1.706 1.186-.568.762-.427.565-.597.593-.625.311-.71.226-.967.367-1.08.311-2.375.295-.991.086-.517.3-.43.513-.173.642 1.766 9.032-.043.428-.795.246M497.231 177.91l-1.208-.14M497.231 177.91l-.58.724M530.689 143.627l-.27.558-1.782 2.532-1.859 1.834-2.195 1.78-9.762 7.371-2.368 1.997-2.276 2.336-11.915 14.589-1.03 1.286M496.023 177.77l.628.864M486.26 174.573l.147.357.558.267 4.435 1.164 4.623 1.409M453.735 173.523l3.167.163 2.939-.26 2.906-.81 7.346-1.234 11.755-1.752 3.923-.182h.636l.588-.13.409-.568.343-.811.212-.438.31-.292h.327l.26.178.035.283-1.39 3.497-.685 1.719-.555 1.687" clip-path="url(#p5f872b6ab4)" style="fill:none;stroke:#000"/><path d="m431.859 308.652-.066-1.784 5.257-13.041.522-2.27 1.567-3.05 1.96-4.477.13-2.27 1.437-1.298 42.986-105.37.609-.519M363.239 403.996l.166.62M363.239 403.996l-4.07.683M363.239 403.996l2.685-.41M369.205 403.085l-3.281.501M369.205 403.085l.068.465M227.162 453.506l.32.465.766.457 2.117.304 1.02.278 4.973 2.002.74.279.484-.026.638-.177.765.025 1.148-.075 1.097-.305 4.31-1.875.357-.05.382.202 5.663 5.676.943.33 1.123.228 1.785.304.893.101.969.33.842.48.484.71.46 1.09.611.735.74.583 6.045 3.7.714.151.689-.152 1.173-.329.97-.912 1.3-1.09 1.224-1.166 2.831-2.407 1.122-.988.664-.177 1.3-.153 3.01-.405 2.933-.253 1.735-.152.994-.153h1.046l.638.33.663 1.064 1.045 2.078 1.913 3.598.383.989.612.912 1.377 2.28 2.117 3.801 2.5 4.612 1.76 2.914.867 1.343.536 1.014.586 1.545.484.583 2.117 4.08 1.046 1.85 1.097 2.178.867 1.495 1.097 1.546.587 1.317.409 1.562.223.812.791 1.18.31.425.309.263M278.951 526.677l6.204-3.568 6.008-1.881 6.138-.973 4.898-3.893 6.792-8.304 3.885-3.196M173.272 597.924l.487-.319 3.993-2.98 4.165-2.894 1.379-.86.738-.354.753-.31 1.507-.706.853-.353.81-.269 6.04-1.638 6.24-1.722 5.955-1.666 3.112-.861 3.028-.918 3.77-1.356M221.022 560.249l-.421.688-.42.64-1.115.589-1.063.738-2.425 2.335-1.015.491-1.336.714-.52.467-.706 1.386-.482 2.4.05.761 4.534 9.26" clip-path="url(#p5f872b6ab4)" style="fill:none;stroke:#000"/><path d="m211.411 469.056-.43.28-.432.354-.526.223-.824.335-.957.112-.9-.037-.957-.13-.88.055-1.333-.26-.73-.336-.62-.429-.412-.633-.488-.466-.562-.223-.675-.28-.826-.112-.6.261-.413.28-.862.335-.844.242-1.5.56-1.463.707-1.2.391-1.557.522-1.5.429-1.819.857-1.181.521-.9.615-.807.764-.75.876-.825.876-.77.857-.843 1.23-.77 1.285-.543.932-.844 1.508-.338.727-.168.447.127.534 1.175 2.498 4.882 9.261 3.036 5.547 2.596 4.899 1.502 2.546 1.486 2.708 2.612 4.688 2.318 4.46 1.11 2.125 1.845 3.39.947 1.703.065.632-.13 1.33-.445 1.5-.57 1.426-.05 1.204.347 1.23.297.86.42.614.372.123.89-.197.99-.294 1.139-.271.495.05.346.171.198.394 1.88 3.244 1.684 3.123 2.573 4.622.742.712.445.787 1.287 2.507 4.875 8.973.174.419" clip-path="url(#p5f872b6ab4)" style="fill:none;stroke:#000"/><path d="m255.05 539.523-1.339 1.654-22.758 13.397-3.036.746-3.625 2.952-3.27 1.977M609.71 441.91l-.199-.79-.056-1.017.056-1.695.214-.804.724-1.738.754-1.496.512-1.115 1.008-2.415.783-1.525.412-.791 1.321-1.468 1.678-1.299 2.444-1.822.426-.451 1.18-1.596 1.961-2.697.825-1.13.454-1.058.555-1.159 1.094-1.962.34-1.158.03-.82.241-.931.157-.763.795-1.27.583-1.031.37-.918.454-1.214.412-1.158.512-2.88.157-1.017.241-.664.37-.367.639-.706.796-.876.185-.55-.142-.395-.256-.975-.299-.48-.34-.254-3.767-.607-1.777-.226-.853.07-1.193-.07-.74-.395-.78-.608-.541-1.327-.54-1.807-.403-.979-.844-2.244-.628-1.445-.488-.848-.498-.64-.775-1.654-.172-.163M607.866 443.773l.253-.324.284-.226.398-.381.668-.297.242-.635" clip-path="url(#p5f872b6ab4)" style="fill:none;stroke:#000"/><path d="m609.578 444.381.047-.663.043-.65.043-1.158" clip-path="url(#p5f872b6ab4)" style="fill:none;stroke:#000"/><path d="m607.866 443.773.148-.01.916.246.648.372M384.357 403.886l.434.572M384.357 403.886l2.64-2.128M392.655 397.2l.426.492M384.79 404.458l2.363 3.12M384.79 404.458l2.636-2.15M393.081 397.692l1.945-1.588M393.081 397.692l-2.743 2.239M395.026 396.104l2.494 3.015M395.026 396.104l-1.181-1.42M376.925 226.186l.742 1.623.05 2.065-1.04 2.312-.643 2.065.495 2.41.792 2.212.643 2.557-.643 2.115-1.484 2.114-2.03 2.508-2.029 2.31-.841 2.066-.297 2.262-.149 1.623-.395.786-2.525 3.442-3.909 5.36-1.04 1.671-.594 1.672.199 2.803.643 2.705.792 2.606.792 3.786M323.257 374.125l.773-1.802.767-2.335.619-5.827.123-2.803.025-1.328 2.608-6.056 1.705-2.88 1.99-4.18.966-4.519.342-2.767v-5.535l.568-3.445 1.08-3.898.398-1.92 1.023-2.034.455-2.767.91-5.14.796-1.977.74-1.469 1.136-.678.91-1.468 1.591-2.429 1.421-1.75 2.73-2.26 2.33-1.469 3.207-3.041 1.726-2.534 1.65-1.565 1.425-1.864.6-1.341 1.782-1.328 2.375-1.868 1.14-3.196 1.137-2.655.149-.738M426.111 320.785l-.816-.454-2.775-5.19-1.306-1.233-.523-1.363-17.599-27.672-1.371-.973-2.612-4.606-1.698-5.97-2.939-1.297-1.893-2.79-2.09-1.038-1.894.454h-1.829l-15.378 7.17-2.057 2.27-2.057 1.006-2.82 2.16M369.918 197.996l1.96 1.687 1.795.162 1.078.552 1.926 3.244-.718 4.898-.98 2.92 1.633 3.18.313 2.205-.495 1.672-.841 2.458.545 2.41.791 2.802" clip-path="url(#p5f872b6ab4)" style="fill:none;stroke:#000"/><path d="m347.95 239.342.196-.583.26-.52.36-.162h.817l.49-.227.456-.454.719-.552.914-1.037 1.078-1.234.946-1.2.719-.616.522-.714 1.012-.551 1.73-1.006 1.731-1.103.545-.295h.791l.99.295 1.634.148h1.187l1.485-.394.94-.737.347-.492 1.336-.295.99-.098 2.425-1.377.742-.64.693-.295h.743l1.039.197 1.138.786M400.026 431.318l-3.796-6.972M400.026 431.318l-1.115.735M389.62 420.673l3.111 5.642M392.048 419.283l-1.179.563-1.25.827M390.075 427.634l-2.865-5.352.509-.35 1.9-1.259M396.743 433.48l-4.012-7.165M396.743 433.48l2.168-1.427M394.126 435.202l2.336-1.537.28-.185M392.731 426.315l2.37-1.334M392.731 426.315l-2.656 1.319M396.23 424.346l-1.128.635M392.048 419.283l1.49.627 2.692 4.436M392.048 419.283l3.054 5.698M392.048 419.283l-7.221-9.838M398.91 432.053l-3.808-7.072M226.707 453.036l.455.47M226.707 453.036l-.105.705M267.583 374.046l3.69 6.747-1.143 2.077-.882 1.59-2.84 2.465-.588.81-.523 1.07-.326 1.98-.066 3.147-.424 1.719-.065 1.298.196 1.524.881 3.114.065 2.466-.816 1.395-1.306.681-4.734 2.336-.686.584-1.665 2.043-.881.91-.947.583-3.428 1.589-2.874 2.693-6.138 4.282-2.906 2.466-3.33 3.049-1.567 2.043-2.613 1.493-.653.487-1.436 1.751-.556.973-.849 2.076-.032.487.233 2.048-.62 2.369-.68 8.64-.306 3.066-.06.939M227.162 453.506l-.56.235M211.411 469.056l.526-.093 1.087-.093.675.018 1.126.41.768.317.545.168h.487l.675-.168 1.088-.596 1.275-.708 1.294-.634.994-.298.375-.372.356-.857.676-1.528.862-1.565 1.22-2.161.637-.895.506-.522.713-.484.28-.69-.074-.763-.338-.988-.225-.931-.337-.876v-1.006" clip-path="url(#p5f872b6ab4)" style="fill:none;stroke:#000"/><path d="m255.05 539.523-1.992 1.232-1.893.195-4.147-7.98-3.135-5.06-2.09-5.125-3.656-5.385-6.204 4.93-1.11-2.335-3.33-5.45 6.334-5.19-19.983-34.45-2.433-5.85M338.337 550.917l-1.45-2.682-1.99-3.192-1.734-2.936-3.268-5.676-2.019-3.502-2.927-5.14-1.137-2.061-1.905-3.247-1.193-2.372-1.052-2.26-1.166-2.315-1.25-2.26-2.325-4.143M400.674 396.494l-3.154 2.625M400.674 396.494l2.23 2.719M397.52 399.12l2.177 2.625M402.904 399.213l2.168 2.643M402.904 399.213l-3.207 2.532M390.338 399.93l-2.912 2.378M401.905 404.425l-.643-.792-1.565-1.888M386.998 401.758l.428.55M405.072 401.856l2.18 2.657M401.905 404.425l1.57-1.265 1.597-1.304M389.86 405.406l-.991-1.242-1.443-1.856M401.905 404.425l2.126 2.62M397.154 408.31l2.386-1.979 2.365-1.906M407.251 404.513l-3.22 2.532M413.143 415.847l-4-9.028-1.892-2.306M411.635 403.266l-.87.111-1.828.746-1.686.39M359.17 404.68l-4.405.71M389.86 405.406l-2.707 2.172M394.162 410.742l-1.75-2.134-2.553-3.202M387.153 407.578l-2.326 1.867M394.162 410.742l-.64.51-2.258 1.792-3.552-4.728-.559-.738M394.162 410.742l1.4-1.112 1.592-1.32M373.102 412.79l.568-1.917.029-.386M398.818 417.211l-.172-.588-4.484-5.88M361.977 411.693 360.6 414.8M366.293 414.07l-.285-.21-4.03-2.167M372.088 415.984l.644-1.944.37-1.25M374.225 413.07l-.392-.104-.731-.175M366.293 414.07l-.906 2.828M372.088 415.984l-5.548-1.73-.247-.183M360.6 414.8l4.787 2.098M372.088 415.984l1.24.387M365.387 416.898l5.586 2.45 1.115-3.364M365.387 416.898l-.947 2.954M359.496 435.369l.774-2.5.24-.748M359.496 435.369l2.947.821M400.748 422.243l1.95-.82M398.818 417.211l.073.576.088.567.108.685.258.546.507 1.023.896 1.635M400.73 416.805l1.968 4.618M400.73 416.805l2.463-.987M398.818 417.211l.878-.14 1.033-.266M402.698 421.423l2.39-1.003M402.698 421.423l1.318 3.437M403.193 415.818l2.667-1.07M403.193 415.818l1.894 4.602M403.193 415.818l-1.949-2.256M405.087 420.42l2.716-1.142M405.087 420.42l.975 2.386M405.86 414.749l1.943 4.529M407.803 419.278l2.596-1.092M408.498 413.691l1.901 4.495M413.472 416.856l-.926.428-2.147.902M413.472 416.856l.222-.746M413.472 416.856l1.44 4.113M413.694 416.11l-.55-.263M361.993 437.515l.45-1.325M323.257 374.125l-.366.853-.668 2.484-.074 1.77-.272 3.687-.47 1.082-.842 2.286 2.203 7.253 1.534 3.49 2.475 3.221 2.796 3.417 7.3 9.17.99 1.279.766 1.18 1.807 2.754.618 1.13.792 1.918 2.97 6.343 2.4 3.613 2.178 3.984 2.524 3.982 1.488 2.56M350.874 449.335l-2.139-2.157.16-.503 4.511-5.093M394.126 435.202l-4.051-7.568M394.126 435.202l-2.53 1.665M390.075 427.634l-2.598 1.289 4.12 7.944M415.328 458.44l-2.495-2.025-1.078-.91" clip-path="url(#p5f872b6ab4)" style="fill:none;stroke:#000"/><path d="m412.195 461.852-.164-3.66-.276-2.687M404.101 429.784l.776 1.688 3.192 5.656.787 2.05.131 1.453 2.22 7.88.517 2.634.03 4.36M375.601 500.074l4.375-2.076.914-.876 1.829-1.913 3.102-1.266 2.285-1.167 1.11-.746.849-1.103.457-.357 3.38-2.335 1.24-.646.93-.21 1.453-.082 1.747-.34 1.094-.487.93-.705 1.886-1.947 2.218-1.45 3.706-1.557 1.037-.308 1.24-.195.915-.259.392-.422.13-.583-.326-.65-.784-1.621-.555-1.395-.327-.682-.228-.843.196-.552.587-.551 1.176-.649.653-.389.196-.454-.261-1.103-.424-1.136-.066-.551-.196-1.297.098-1.2.028-1.322-.392-2.797" clip-path="url(#p5f872b6ab4)" style="fill:none;stroke:#000"/><path d="m415.328 458.44-.1.68-.471.998-2.562 1.734M637.27 608.68l-.85-.292-.685-.097-.62-.227-.62-.325-.622-.94-1.37-.714-1.764-.52-1.176-.842-.979-.844-.849-1.038-1.11-.843-1.24-.325-1.176-.648-1.11-.779-.98-.908-.914-.908-2.873-.714-1.568-.26-1.371-.518-1.045-.844-1.502-.519-1.24.26-1.242.194-1.632-.194-1.306-.52-1.11-.583-1.502.065-1.045.908-.784 1.103-3.2 1.363-1.175.778-1.176.713-1.305.52-1.437.389-1.176.584-1.24.324h-2.678l-1.306.454-1.175.779-1.241.584-1.372.194-1.567.13-1.436.389-1.307.844-1.11 1.102-1.175 1.038-1.11.844-1.176.746-.958.391M421.377 143.417l-3.592.259-.849.228-1.436 1.005-.881.81-.425.488-2.057 2.692-.555.552-1.34.844-1.24 1.037-1.502.941-.49.585-.914 1.46-.522.616-.98.778-.882.357-2.317.39-1.731.162-.458.194-.359.357-.75 3.337-1.274 2.86-4.67 4.575-1.436 1.005-2.253 1.265-2.024.779-.588-.13-1.11-.552-.914-.162-1.437.065-.784.26-.75.422-.85.843-2.612 3.244-1.371 2.109-1.992 3.568-2.906 3.894-.783 1.72-.196.973.033 3.374-.294.94-.817 1.85.85 4.585M171.103 162.512l.947.706-.196 2.79-1.96 7.656-1.11 11.614 2.025 4.348-.392 6.293 5.225 4.023 1.828 3.634 1.306 3.957.914 7.397 2.678 5.45.718 8.046 1.568 4.022 3.003 3.18 1.568.714 10.448-8.176 7.902-8.63 4.506-3.178 4.244-1.558 11.428-12.457 5.029-4.737 3.591-10.251 3.592-2.855 1.829.26.783-1.882 8.62-5.45 4.702-4.153 2.612-1.233 2.22-4.347 3.004-.843 3.853-1.947 6.988 2.206 3.592 2.79 9.207 10.836 9.926 10.9 2.35 1.752 1.438.324 5.159-2.92 1.24.39.719 1.557 7.967 9.862 1.828.26 1.83-2.141 1.24-1.104 3.591-.064 5.225 1.103 1.893-.39 14.301-1.751 6.009 1.233 3.493-.292 3.886 1.297 5.616-2.173 4.277.713.555-1.297M327.489 495.288l2.892 3.035 7.085.324 1.371-.551 7.053-3.698.457-.13.49.26 2.187 3.568 3.167 5.514 7.77 19.075 1.176 1.686 6.432-.162.947.357 1.273.909.686.162 2.677-1.525 3.657-.616 2.318 1.135.653.13.588-.227 3.134-1.98.686-.258 4.408-.876 2.579-.065 5.877 1.849 2.89.781 2.056-.6 6.923-2.87 1.926-1.168 2.661-1.8M421.377 143.417l1.502-.747 1.24-2.725.752-4.217 1.404-4.932 1.339-3.212 1.338-4.314.196-.974.261-2.563.751-2.238 5.388-3.86M441.85 153.344l.326-5.84 1.992-7.526 1.666-2.92 2.023-4.834.131-.746-.555-2.823-.849-1.849-.163-.617.033-.746.326-1.07.065-.616-.49-1.46v-3.537l-.097-.486-.522-1.071-.556-.454-.555-.065-1.796.13-7.28-3.18M453.735 173.523l-.784 2.271-.555 6.554-.326 1.427-.392.941-5.387 6.132M441.85 153.344l-1.208-1.384-.784-1.102-1.437.227-8.685-.876-1.502-.52-2.547-.486-.783-1.297-.523-1.234-.653-2.433-2.35-.822M441.85 153.344l3.69 2.725 2.611 3.342.751 2.563.588 1.46 1.11 1.72 1.535 1.621.424 3.147 1.176 3.601M278.951 526.677l-9.73 5.645-2.025.648-12.146 6.553M431.859 308.652l2.024 1.2 6.334 2.888 4.93.292 2.991-.584M411.635 403.266l1.416-.18 4.5-1.633M426.111 320.785l1.503-1.492 4.245-10.64M396.562 391.699l1.502-2.628 1.828-3.99 26.22-64.296M396.562 391.699l-2.717 2.985M336.319 468.133l-.07.385-.27 1.273-.452 1.22-.496.899-.657.91-1.023 1.508-1.012 1.52-.097.175M350.874 449.335l-4.459 4.967-8.25 9.186-.527.739-.453.792-.28.738-.42 1.455-.166.92" clip-path="url(#p5f872b6ab4)" style="fill:none;stroke:#000"/><path d="m330.822 474.129.445.043.399-.073 1.554-1.53.178-.308.163-.618.251-1.088.208-.544.384-.47 1.915-1.408M355.111 453.607l-2.364-2.384M350.874 449.335l1.873 1.888M370.688 437.106l3.538 2.427M370.688 437.106l-1.78 2.493M368.907 439.599l1.955 1.659M368.907 439.599l-.643-.445M359.874 444.972l1.329-.32.778-.17.322-.226.456-.566.38-.51 1.043-.678 4.082-3.348M352.747 451.223l5.4-5.251.817-.547.91-.453M357.9 440.364l.76.95.36.887.323.64.399.66.094.698.038.773M375.075 436.407l-.038 1.533-.114.32-.697 1.273M378.227 435.66l.7.583.19.283-.114.301-.683.68-.702.037-.626-.377-.55-.132-1.12-.415-.247-.213M376.802 434.47l1.425 1.19M379.744 433.943l-.38.528-1.137 1.188M354.765 405.39l.346 3.12M371.478 396.67l.518 3.867M378.643 414.251l-4.418-1.18M378.643 414.251l.607-2.022M420.971 420.344l2.375 1.653M426.764 442.273l-.332-.43-3.44-5.726-.415-1.345-1.082-1.636-1.192-2.08-.652-1.525-.416-1.22-1.456-1.484-.055-.54.596-.916.998-.873 1.137-.582.97-1.318-.054-1.054-.38-.726-.02-.474M429.725 417.671l-4.53 5.755M426.354 424.288l.488.41.319.05.369-.084 3.468-4.928.068-.416-.15-.333-.739-.95-.452-.366" clip-path="url(#p5f872b6ab4)" style="fill:none;stroke:#000"/><path d="m423.346 421.997 4.82-6.39.319-.117.15.05.42.2.72.95.101.199.017.333-.168.45M425.195 423.426l1.16.862M425.195 423.426l-1.85-1.429M423.495 377.41l-.587.577-1.415 1.708-1.184 1.95-.095.204" clip-path="url(#p5f872b6ab4)" style="fill:none;stroke:#000"/><path d="m423.495 377.41-1.219-1.278-.302-.067-.351.25-.537.683-.653 1.815-.218.966v2.07M267.583 374.046l3.494-2.304 2.58-2.725 1.828-.94 1.403-.584 1.764-.487 5.517-.519 2.417-.68 1.6-.617 2.938-1.363 8.13-4.315 1.437-.518 2.09-.455 2.742-.778.457.097 2.449 2.303.326.292 1.306.974 1.307.778 3.101 1.428 2.09 1.297 2.285 1.687 2.155 1.849 1.012 1.72 1.246 3.94M267.583 374.046l-4.049-6.586-1.992-3.86-1.044-1.524-1.11-1.915-3.592-6.001-2.97-4.704-7.707-13.073M374.225 413.07l-.896 3.3M415.328 458.44l1.259-1.455 1.58-1.914 2.857-1.47M415.328 458.44l1.536 3.62 1.11 1.858.61 2.246 1.164 3.993.804 1.026 2.385 2.357 1.11 1.497" clip-path="url(#p5f872b6ab4)" style="fill:none;stroke:#000"/></g><path id="PatchCollection_1" d="m384.284 418.88-3.233 4.672 1.437 3.212-3.657 1.103-2.808 4.638-5.094-2.757.49-.844 1.502-6.747.588-1.362 1.044-.455 4.702-.778.654-1.103z" clip-path="url(#p5f872b6ab4)" style="fill:#00f;fill-opacity:.8"/><path id="PatchCollection_2" d="m369.953 406.036-1.39 2.194 2.29.801.102-.288.04-1.447-.006-1.383-.128-.092z" clip-path="url(#p5f872b6ab4)" style="fill:green;fill-opacity:.8"/><g id="PatchCollection_3"><path d="m226.756 568.066 2.477-1.14 1.314 2.815-2.477 1.14zM439.205 329.285l-.066.794-1.387 6.991-.277.957 1.044.308.245-.957 3.282-7.185zM470.387 294.151l.065-6.958.082-.892-1.47-.374-1.55 6.83-.588-.017-.081.487zM452.51 184.127l-.114.924 2.678-.34-.69-7.98.346-.056.207-.23.089-.331-.146-.392-.282-.215-.292-.053-.37.12-.199.206-.105.315.022.602-.246.033zM590.872 404.132l-1.462-.268-.212.446 1.355 1.752.22.008 6.009-.203.032.617 1.257-.154-.04-.69-1.244-.146.003-.227zM511.594 279.845l-2.09.52 1.567 1.524-.555.778 6.204 4.672.653-.811-4.637-5.97z" clip-path="url(#p5f872b6ab4)" style="fill:#90ee90;fill-opacity:.8"/></g><g id="PatchCollection_4"><path d="m398.818 417.211.878-.14 1.033-.266 8.226-3.297.536.752 1.106.569 1.028.256.908.47 1.976.943 1.794 1.248-.327 1.501-.714 1.319-1.164 1.339-3.405 2.385-.762.513-4.285 2.81-.655-.072-.628-.112-.45-.18-.317-.252-.34-.397-2.317-4.008-1.087-1.984-.507-1.023-.258-.546-.196-1.252zM423.158 421.836l3.985 2.704 2.598-3.245.296-2.459-1.905-3.663zM400.29 431.146l-6.517-12.625-4.28 2.851 6.969 12.293z" clip-path="url(#p5f872b6ab4)" style="fill:#d3d3d3;fill-opacity:.8"/></g><g id="PatchCollection_5"><path d="m371.412 405.807 2.186-.46-.065 1.798.324.032.01.513-.334-.021-.032 2.215-2.284-.835.464-1.39v-.643zM385.892 409.355l1.257-.892 1.73 2.14-1.207.974zM385.367 412.909l.9-.652 1.088 1.304-.881.69zM403.107 405.328l.7-.535.937 1.155-.71.578z" clip-path="url(#p5f872b6ab4)" style="fill:#a9a9a9;fill-opacity:.8"/></g></g></g><defs><clipPath id="p5f872b6ab4"><path d="M90 103.636h558v519.929H90z"/></clipPath></defs></svg>