<svg xmlns="http://www.w3.org/2000/svg" width="960" height="960" viewBox="0 0 720 720"><defs><style>*{stroke-linejoin:round;stroke-linecap:butt}</style></defs><g id="figure_1"><path id="patch_1" d="M0 720h720V0H0z" style="fill:#fff"/><g id="axes_1"><path id="patch_2" d="M90.705 640.8h556.59V86.4H90.705z" style="fill:#fff"/><g id="LineCollection_1"><path d="m396.657 370.239 3.739 2.934M396.657 370.239l-1.112 1.585M396.657 370.239l.467-.625M396.657 370.239l-3.412-2.572M435.297 307.922l1.109-3.733M431.65 306.888l1.315.364 1.235.376 1.097.294M437.421 308.557l-.798-.285-.525-.147-.801-.203M424.387 324.16l-4.647-1.274M424.387 324.16l1.306-2.01M410.386 343.645l8.05-11.167 4.085-5.812 1.866-2.507M405.488 339.896l-3.987 5.578M410.386 343.645l-2.375-1.862-2.523-1.887M401.091 336.61l2.17 1.79 2.227 1.496M410.386 343.645l-3.01 3.996M390.85 344.726l6.88 5.917M393.596 334.965l-.476 1.425-.673 2.052-1.373 5.242-.224 1.042M390.236 348.637l.206-1.604.188-1.197.22-1.11M389.642 348.472l-4.338 8.786M389.642 348.472l-2.787-1.126M389.642 348.472l.594.165M402.422 354.436l-4.692-3.793M402.422 354.436l-1.968 2.683M402.422 354.436l4.954-6.795M388.117 358.602l-.174.517M390.236 348.637l-.096 1.38-.114 1.028-.16.891-.17.9-.307 1.383-.252.944-1.02 3.439M391.225 359.72l-1.68-.564-1.428-.554M385.304 357.258l.269.201.317.188 2.227.955M383.764 360.602l1.54-3.344M383.764 360.602l2.476 1.81M383.764 360.602l-.399.462M383.764 360.602l-3.037-2.288M386.24 362.412l.386-.464M386.24 362.412l1.904 1.385M388.144 363.797l-1.168 1.714M388.144 363.797l.379-.517M388.144 363.797l4.76 3.626M392.904 367.423l-1.208 1.634M392.904 367.423l.341.244M393.328 367.134l-.183.106-.126.081-.115.102M376.596 369.915l4.788 3.772M376.596 369.915l-2.963 4.156M376.596 369.915l3.38-4.557M395.545 371.824l-.926 1.245M395.545 371.824l-3.324-2.364M395.545 371.824l4.052 2.884M381.384 373.687l4.406 3.503M381.384 373.687l-3.091 4.328M381.384 373.687l3.212-4.774M373.633 374.07l-3.824 5.402M373.633 374.07l4.66 3.945M399.597 374.708l-2.281 3.027M399.597 374.708l1.01-1.365M399.597 374.708l1.916 1.41M385.79 377.19l-3.22 4.12M385.79 377.19l.358.268M385.79 377.19l2.596-3.658M378.293 378.015l-3.597 5.144M378.293 378.015l4.062 3.14M389.569 380.007l-3.14 4.303M389.569 380.007l2.616-3.678M389.569 380.007l3.791 2.936M389.569 380.007l-3.421-2.55M393.36 382.943l3.665-4.826M390.342 387.198l1.073-1.5 1.04-1.463.905-1.292M400.484 380.474l-4.447 4.063-.128.048-.112.017-.166-.015-.152-.068-.115-.069-2.004-1.507M375.84 398.965l3.973 2.66M375.84 398.965l4.291-5.818M372.09 395.957l2.972 2.38.779.628M390.342 387.198l-3.912-2.888M387.153 391.575l1.411-1.974 1.778-2.403M363.185 388.566l4.918 4.07M363.185 388.566l-2.539 3.34M363.185 388.566l3.52-4.82M360.646 391.905l-2.2 3.37M355.475 393.935l1.395-.898.446-.24.441-.173.66-.2 2.229-.519M368.103 392.636l-4.69 7.115M368.103 392.636l3.52-5.325M372.09 395.957l-.498-.353-.81-.646-1.022-.867-1.657-1.455M372.09 395.957l3.964-5.349M361.56 414.713l.76-3.213 1.028-3.298.11-.406.07-.348.041-.479.048-1.213.027-.296.04-.262.064-.3.58-1.904.038-.31.036-.4v-.406l-.068-.356-.102-.319-.22-.481-.255-.492-.163-.262-.18-.217M358.447 395.274l3.204 2.923 1.378 1.184.216.197.168.173M376.054 390.608l3.11-4.38M376.054 390.608l-3.72-2.855M376.054 390.608l4.077 2.54M371.623 387.31l-1.253-.921-3.665-2.642M369.809 379.472l-.328.466-2.776 3.809M379.164 386.228l-2.262-1.542M379.164 386.228l3.993 2.688M382.57 381.31l-1.423 2.15-1.983 2.768M374.696 383.16l-3.073 4.15M374.696 383.16l-4.887-3.688M374.696 383.16l2.206 1.526M332.253 402.675l.296-.498.548-1.035 1.355-3.09.237-.696.153-.715.6-4.026.12-.573.124-.574.429-1.706.295-.856.27-.633.34-.599.458-.548.51-.466.66-.454 1.41-.672 1.144-.603 5.678-3.033 2.584-1.335 1.037-.59 1.124-.753.642-.445.613-.445.72-.616.515-.556 1.12-1.245.508-.467.514-.38.694-.424.735-.306.757-.233.562-.129.67-.062.51.018.497.102.737.208 2.235.736.502.24.362.235.54.391 4.75 3.63M372.334 387.753l-.71-.442M372.334 387.753l4.568-3.067M376.902 384.686l5.453-3.532M382.57 381.31l3.86 3M382.57 381.31l-.215-.156M389.29 372.31l-4.694-3.397M389.29 372.31l-.904 1.222M389.29 372.31l.719-.979M384.596 368.913l2.38-3.402M384.596 368.913l-4.62-3.555M379.977 365.358l-3.417-2.58M379.977 365.358l2.398-3.122M388.386 373.532l.389.29M392.185 376.33l.886-1.142M392.185 376.33l-3.41-2.507M393.85 374.087l-.472.67M393.85 374.087l.77-1.018M393.85 374.087l-3.44-2.45M390.009 371.331l.401.305M390.009 371.331l1.687-2.274M393.07 375.188l.308-.43M397.025 378.117l-.616-.455-3.338-2.474M397.025 378.117l.29-.382M399.749 379.843l-.35-.115-.292-.156-2.082-1.455M400.79 373.492l-.184-.149M400.79 373.492l.264.342.276.342.212.28.137.25.082.32.007.33-.042.338-.213.424M402.758 375.68l.024-.279-.022-.288-.075-.237-.173-.241-.278-.272-.412-.297-1.032-.574M400.454 357.119l-4.291 5.898M400.454 357.119l-4.859-3.336M400.067 365.68l3.799-5.332.079-.27.02-.18-.01-.212-.055-.161-.084-.148-.118-.126-1.495-1.041-1.75-1.091M391.225 359.72l-.593.79M391.225 359.72l4.37-5.937M396.163 363.017l-3.266-2.334-.793-.49-.879-.474M396.163 363.017l3.904 2.662M396.163 363.017l-2.725 3.9M400.067 365.68l-2.943 3.934M400.067 365.68l3.909 2.73M411.561 373.94l-1.083-.736M403.976 368.41l-2.945 3.925M406.931 370.664l-1.166-.934-1.79-1.32" clip-path="url(#p47dec4d7cd)" style="fill:none;stroke:#000"/><path d="m416.352 371.551-.37-1.192-.961-1.466-.7-.548-.906-.89-.618-.398-1.565-.342-.603-.192-.879-.548-.782-.26-1.18.287-1.675.288-.74.485-1.397 1.636M402.98 375.754l-.222-.073M402.98 375.754l1.056-1.233M410.478 373.204l-3.294 3.771-.912.938-.05.037-.041.014-.052.003-.058-.013-2.828-2.056-.263-.144M406.931 370.664l3.547 2.54M406.931 370.664l-2.895 3.857M404.036 374.521l-3.005-2.186M401.031 372.335l-.635.838M401.031 372.335l-3.907-2.721M393.438 366.918l1.704 1.243 1.982 1.453M393.438 366.918l-4.915-3.638M393.438 366.918l-.11.216M388.523 363.28l2.109-2.77M388.523 363.28l-1.897-1.332M387.943 359.12l-.314.846-.354.784-.278.545-.371.653M391.696 369.057l.382.307M386.976 365.511l3.366 2.517 1.354 1.03M386.976 365.511l-1.827-1.315M386.855 347.346l.142-.38M385.207 349.671l1.157-1.422.17-.254.184-.328.137-.32M382.88 355.141l.938.675.626.566.511.52.35.356M378.397 356.44l2.696-2.614M378.397 356.44l-2.687-2.128M379.633 357.435l-.374-.301-.862-.693M381.093 353.826l1.787 1.315M381.093 353.826l-.366-.383M385.207 349.671l-3.056 3.124-1.058 1.031M386.997 346.966l.649-2.549M386.997 346.966l-5.85-1.798M391.46 333.503l-3.223-1.256M391.46 333.503l1.29.46M391.833 332.587l-.184.407-.19.51M388.21 342.16l.13-.374 1.98-4.642.15-.368.146-.394.844-2.879M392.646 331.424l-1.413-5.023M392.646 331.424l.705 2.755M391.833 332.587l.223-.395.59-.768M372.536 342.626l-.976-.263-.209-.037-.168-.007-.145.039-.128.079-3.744 5.308M371.732 351.16l-.71-.531-3.856-2.884M355.715 338.926l4.822 3.723 6.629 5.096M381.146 345.168l-8.61-2.542M381.146 345.168l.631-2.52M380.4 347.362l.381-1 .2-.636.165-.558M382.355 340.313l.548-2.61.112-.597.124-.547 1.126-4.895M388.21 342.16l-.138.43-.268 1.156-.158.671M381.777 342.649l2.187.68 3.682 1.088M381.777 342.649l.578-2.336M388.237 332.247l2.996-5.846M384.293 340.91l2.27-5.642.403-.774 1.27-2.247M382.224 305.487l.452.916.43.78.517.822.367.742.361.868.638 1.62 1.368 3.542 3.713 8.526 1.163 3.098M401.501 345.474l-3.63 4.976M407.376 347.641l-.968-.452-1.283-.53-1.548-.517-2.076-.668M397.73 350.643l-2.135 3.14M397.73 350.643l.141-.193M394.559 338.64l3.877 1.467M394.4 336.465l.079.312.09.45.055.532-.065.88M396.662 345.7l-1.733-4.853-.197-.567-.099-.381-.052-.314-.018-.234-.004-.712M393.596 334.965l.318.52.204.39.282.59M395.335 332.312l-.462 1.087-.206.65-.116.595-.073.513-.078 1.308M397.871 350.45l-.083-.614-.108-.717-.142-.735-.189-.7-.687-1.985M398.436 340.107l-.287.368-.309.482-.506.998-.261.539-.12.37-.05.394-.24 2.441M401.091 336.61l-1.388 2.316-.268.31-.293.284-.706.587M403.78 322.846l-.561 1.619-.148.314-.255.48-.092.236-.09.263-.161.699-.161.638-.093.513-.101.77-.105 1.056-.043.625-.127 3.845-.043.505-.101.696-.133.487-.22.536-.255.482M403.78 322.846l-.629.003M407.555 319.95l-.369.642-.904 1.442-.197.26-.223.18-.244.129-1.838.243M399.853 322.249l1.877-4.193M399.853 322.249l-1.98 4.098M403.151 322.849l-.577-.012-.755-.05-.605-.098-1.36-.44M414.76 301.788l-4.822 12.408M409.567 300.913l.425-.727.16-.124.213-.054.228-.011.262.054.568.248.883.487 1.022.447 1.431.555M421.473 303.594l-.593-.16-3.995-1.03-.733-.218-1.393-.398M403.83 313.427l5.711 1.69M403.83 313.427l-2.1 4.629M409.567 300.913l-1.914 3.88-.771 1.608-.433 1.006-1.899 4.394-.72 1.626M409.541 315.117l.397-.921M409.541 315.117l-.812 2.013M401.73 318.056l5.825 1.894M407.555 319.95l5.932 1.349M407.555 319.95l1.174-2.82M409.938 314.196l.471.133M413.487 321.299l6.253 1.587M413.487 321.299l.74-2.807M415.077 315.677l-4.668-1.348M415.077 315.677l-.85 2.815M420.652 320.028l-1.727-1.93-.42-.414-.407-.39-.523-.359-1.663-.89-.835-.368M448.321 311.521l-8.084-2.26M448.321 311.521l2.53-3.637M558.22 620.238l.458.73M558.22 620.238l-.324-.514M558.22 620.238l1.262-.089M400.366 380.307l.118.167M400.366 380.307l-.027-.563M400.366 380.307l-.617-.464M380.727 353.443l.323-.371.171-.29.039-.282-.007-.284-.057-.275-.162-.287-.327-.377-2.1-1.88-2.783-2.33-2.89-2.061-.304-.271-.186-.23-.073-.17-.023-.29.005-.302.02-.332.056-.38.107-.405M384.293 340.91l-1.938-.597M388.21 342.16l-1.242-.404-.784-.243-1.89-.604M380.4 347.362l-2.083-.794M385.207 349.671l-.521-.261-.545-.27-3.74-1.778M371.732 351.16l1.688 1.303M373.42 352.463l1.183-1.786.07-.271-.016-.26-.11-.232-.295-.264-.296-.173-.294-.06-.253.015-.231.08-.225.147-1.22 1.501M378.297 359.16l-7.772-5.536-.051-.083-.02-.095.012-.1 1.266-2.186M382.375 362.236l-4.078-3.076M382.375 362.236l2.774 1.96M383.365 361.064l-.48.59-.51.582M355.475 393.935l.737.054.283.039.319.104.308.144.291.16 1.034.838M332.253 402.675l.952 1.004.345.276.403.178.467.092.51.036.462-.028.732-.139 2.273-.494.602-.13.446-.13.475-.187.515-.266 5.408-3.119 8.109-4.915 1.523-.918M408.729 317.13l5.499 1.362M420.652 320.028l-2.22-.667-1.252-.304-1.157-.227-1.795-.338M420.652 320.028l3.671.922.337.14.259.209.289.295.485.557" clip-path="url(#p47dec4d7cd)" style="fill:none;stroke:#000"/><path d="m437.421 308.557-.576.068-.547.12-.612.209-.394.245-.41.36-.686.792-.474.584-.547.568-.622.707-.726.952-1.09 1.739-.603.866-1.354 1.776-.498.764-1.25 1.883-1.34 1.96M343.37 329.315l-.743.68M343.37 329.315l4.132 3.247M233.144 244.537l2.352 1.805 6.237 4.762 8.144 6.329 12.49 9.542 4.362 3.281 3.209 2.416 6.262 4.736 3.755 2.996 4.233 3.368 7.572 5.914 14.006 10.866 7.92 5.974 11.257 8.624 9.384 7.204 4.667 3.576 4.377 3.385M355.715 338.926l-.683.903M355.715 338.926l-8.213-6.364M347.502 332.562l-.658.9M345.479 335.272l1.365-1.81M355.032 339.83l-1.053 1.39-.143.09-.12.04-.167.013-.132-.02-.131-.052-1.203-.847-2.491-1.89-.443-.353-1.145-1.03-.36-.298-2.165-1.601M342.627 329.995l-.535.612-.25.366-.152.326-.092.273-.046.248-.018.195.006.174.024.142.046.087.075.095 3.794 2.759M393.596 334.965l-.245-.786M394.69 332.013l-.4.897-.36.941-.334 1.114M380.727 358.314l2.153-3.173M380.727 358.314l-1.094-.879M383.365 361.064l-3.967-3.29M385.149 364.196l.687-.833.056-.112.02-.126-.04-.148-.07-.093-2.437-1.82M400.339 379.744l-.148.057-.12.027-.151.013-.171.002" clip-path="url(#p47dec4d7cd)" style="fill:none;stroke:#000"/><path d="m399.514 379.235.012.124.048.166.08.17.095.148M401.513 376.118l-1.135 1.814-.679.894-.109.145-.056.129-.02.135M400.9 378.19l1.498-1.845.194-.28.166-.384M400.339 379.744l-.01-.297.019-.255.047-.208.115-.236.128-.199.262-.36M399.514 379.235l-2.198-1.5M397.316 377.735l-3.938-2.978M392.078 369.364l.143.096M392.078 369.364l.305-.455.292-.43.57-.812M392.078 369.364l-1.668 2.272M388.775 373.823l.142-.19 1.493-1.997M386.148 377.458l.272-.38.287-.417 2.068-2.838M392.221 369.46l.26.463.147.245 1.991 2.9M397.873 326.347l-.719 1.682M397.873 326.347l-.306-.773M397.567 325.574l-.123-.557-.06-.514-.05-.628-.048-.62-.043-1.126-.005-.778.06-1.583M408.611 301l.19.03.205-.008.56-.11M414.23 313.067l-.35-.1-.159-.027-.128.002-.142.022-.175.059-.902.406-1.483.678-.482.222M419.74 322.886l.912-2.858M387.153 391.575l-3.095 4.196M387.153 391.575l-3.996-2.66M386.43 384.31l-3.273 4.606M384.058 395.771l-4.245 5.854M380.131 393.147l.006.004 3.921 2.62M383.157 388.916l-3.026 4.231M346.95 537.16l1.75-2.621 1.75-1.748 2.722-2.846 4.278-6.082 3.24-6.664 3.63-5.37 3.89-4.723 6.35-13.522 3.37-2.912 2.723-4.01 3.24-5.63.649-6.922 1.36-1.747.802-3.139.295-.995 1.477-3.563.333-1.07 1.218-5.983.296-2.052.073-.885-.258-2.53.037-.873.233-.91 1.866-5.191.338-.774 1.514-2.55.184-.663.111-.725-.024-2.876.135-1.203.372-5.034.176-1.601.24-1.063 3.914-11.2.194-.606.12-.534.028-.446-.087-.445-.197-.504-.428-.58-.578-.504-7.2-4.909-11.273-7.33M368.744 413.74l1.312-.441.824-.332.855-.5.695-.526.91-.84.46-.533.663-.94.913-1.516 1.293-1.915 3.144-4.572M450.851 307.884l-9.386-2.09M465.54 288.22l-1.411 4.344-2.894 4.754-1.572 1.55-2.183.725-1.83 1.393-4.799 6.898M421.473 303.594l1.347.362 1.62.493 1.574.577 1.885.724 1.068.342 2.683.796M436.406 304.19l-5.013-1.478-.25.843-.085.505.024 1.66.025.33.074.2.104.176.365.462M436.406 304.19l5.059 1.603M441.465 305.793l-1.228 3.467M440.237 309.26l-2.816-.703M557.222 618.655l.674 1.069M557.222 618.655l-1.073 1.402M423.187 412.655l.777 1.105 42.363 60.12 1.18 1.607 1.394 1.76 1.229 1.186 1.132.768 1.099.534 27.355 11.395 2.712 1.503 1.228.946 1.133 1.039.967 1.282.93 1.68.724 1.898.378 2.217.802 30.711.102 3.32.048 1.612.388 1.914.893 1.798.777 1.032 1.355 1.177 2.247 1.023 2.426 1.492.995 1.139 3.585 6.639 1.553 2.97 8.74 18.141 2.71 5.36 1.581 3.09 1.543 2.694 12.752 21.29 5.075 8.472.787 1.36.684 1.104.391.622M384.758 294.27l4.788 1.194 4.365 1.207.432.075.325.043.286.085 7.14 2.116 4.69 1.202.77.255.496.22.561.334M397.567 325.574l5.642-12.62 2.194-5.116 3.208-6.837M397.567 325.574l-1.867 4.179M556.15 620.057l1.746-.333M148.36 179.547l-6.707-5.08-9.94-7.654-25.382-19.279M400.948 381.134l1.393-1.42.032-.047.02-.05.008-.07-.015-.075-.04-.067-1.446-1.215M378.297 359.16l1.1-1.386M342.627 329.995l4.217 3.467M404.486 386.085l-3.538-4.951M423.187 412.655l-15.78-22.445-2.92-4.125" clip-path="url(#p47dec4d7cd)" style="fill:none;stroke:#000"/><path d="m426.597 391.897-1.174-.386-.287-.055-1.037-.4-1.254-.576-1.149-.622-1.29-.904-2.509-1.882-4.939-3.72-1.747-1.375-.193-.115-.19-.052-.215-.01-.184.012-.18.046-.192.089-.134.105-2.132 2.666-.28.281-.229.169-.217.119-.755.356-.179.095-.147.094-.284.247-.141.093-.138.047-.174.02-.188-.014-.573-.14M156.548 142.409l-.11-.434-.847-2.46-.035-.215.014-.19.064-.194.13-.233.992-1.328 1.116-1.38" clip-path="url(#p47dec4d7cd)" style="fill:none;stroke:#000"/><path d="m156.548 142.409.14-.317.142-.411.089-.635.037-.961.038-.337.069-.46.29-1.284.093-.404.426-1.625M156.548 142.409l.045.362M233.144 244.537l-26.573-20.379-4.223-3.23-7.043-5.428-6.6-5.005-7.138-5.394-10.868-8.304-13.347-10.386-7.286-5.572-1.707-1.292M156.593 142.77l-.036.43-.089.522-.81 3.43-2.98 14.455-.48 2.692-.123.602-.302 1.008-1.404 6.155-.663 2.75-.386 2.17-.352 1.703-.106.292-.122.205-.38.363M258.505 449.3l-.916 1.511-.416.695-.62.858-2.844 3.74-.646 1.053-.771 1.635-.54 1.292-.434 1.202-.39 1.521-.204 1.043-.575 4.962-.098.358-.146.362-1.754 3.706-.24.667-.128.478-.08.636-.677 9.482-.087.557-.095.28-.117.191-.2.18-.232.137-.317.11-4.188 1.032-.92.288-.767.305-.647.354-1.754 1.246-.553.31-.545.234-1.825.393" clip-path="url(#p47dec4d7cd)" style="fill:none;stroke:#000"/><path d="m253.393 444.37 4.045 3.978 1.067.953M302.866 494.013l-24.282-24.401-3.094-2.901-3.386-3.526-11.096-11.234-2.503-2.65" clip-path="url(#p47dec4d7cd)" style="fill:none;stroke:#000"/><path d="m360.322 419.498-.568 1.3-.162.378-.16.486-.188.617-.279 1.074-2.021 7.142-2.586 8.754-.85 2.618-1.153 2.768-1.712 4.01-.24.416-.221.336-7.517 8.104-4.044 3.976-.35.289-.332.223-.496.221-1.54.5-.909.42-.86.482-1.226.809-.696.504-.442.43-.536.693-.249.504-.133.509-.172 1.14.009 1.685v.544l-.093 1.495-.062.596-.109.558-.068.327-.12.34-.283.584-.173.367-.085.296-.407 1.765-.124.384-.19.475-.656 1.285-.28.663-.22.48-.13.197-.147.134-.166.122-.31.146-.54.16-4.386.68-4.536.68-3.977.841-4.854 1.398-1.32.486-.47.323-.473.357-.341.43-.249.442-1.187 3.125-1.867 4.447" clip-path="url(#p47dec4d7cd)" style="fill:none;stroke:#000"/><path d="m346.95 537.16-7.58-6.448-1.064-2.14-1.098-.92-2.578-1.839-.824-1.397-1.612-1.84-5.059-4.527-5.934-5.5-3.207-3.83-7.432-7.498-2.472-2.043-4.207-4.147-1.017-1.018M327.312 407.799l-5.323 6.007-.772.693-.754.564-3.59 2.14-2.53 1.865-2.648 2.1-1.346 1.006-1.268.933-5.906 3.816-5.794 3.67-2.027 1.233-1.106.595-1.106.496-1.084.338-1.101.299-5.002.975-3.069.702-1.748.48-2.151.761-3.9 1.31-10.697 2.969-3.48 1.112-7.517 2.507M156.693 347.883l5.264 4.994.74.614.433.32.297.232.253.328.287.423.373.466 1.843 1.892 2.407 2.334 8.602 8.763.506.407.443.331.32.24 5.233 5.337 1.59 1.609 3.81 4.052 1.209 1.138 1.333 1.142 1.098.887.817.696.425.424.66.836.917 1.11 1.894 1.926 5.295 5.388 2.917 2.762 1.112.942.789.635.31.26 6.02 6.421 1.927 1.801 3.295 3.434.354.316.749.53.297.18.28.23.2.297.177.368.18.24.313.329 4.21 3.938.762.727.28.34.33.525.208.278.195.248 1.727 1.79 3.256 3.19 3.653 3.608 4.132 4.236 4.67 4.658 8.308 8.315M332.253 402.675l-.501.525-.776.761-1.847 1.801-1.817 2.037" clip-path="url(#p47dec4d7cd)" style="fill:none;stroke:#000"/><path d="m332.613 412.198-.33.013-.425-.068-.29-.118-.235-.165-4.021-4.061M360.322 419.498l.242-.778.73-2.84.267-1.167M368.744 413.74l-1.304.107-.418.055-1.132.188-.463.045-1.036.04-1.108.07-.35.037-.3.058-.426.126-.646.247M368.744 413.74l-.765.487-1.347 1.026-.37.217-.226.106-.268.07-.833.148-.287.091-.244.13-.221.169-.217.248-.39.829-.31.402-.39.389-.39.252-2.164 1.194M334.398 97.062l.061.662.11.61.163.513.29.703 2.08 3.914 1.028 2.182.862 1.786.387.904.193.614 1.235 3.81.255.812.11.54.066.78.022.773-.347 6.68-.21 3.906-.142 3.327-.21 6.136-.019 1.21.132 20.636.211 10.77.07 1.66 1.056 11.384.202 1.755.11.764.145.887.959 3.95.699 3.006.087.54.042.363.336 3.082.141.592.162.57.265.729.325.742 3.895 6.052 2.594 3.607 1.494 2.405 1.504 2.686 1.3 2.177.986 1.606 1.266 1.958.967 1.623.606 1.29.546 1.58 1.186 3.766 1.636 5.538 2.004 6.645.449 1.826.21 1.404.256 2.124v2.861M382.224 305.487l-.353-.713-.536-1.132-.321-.79-1.222-2.931-1.415-3.511-1.24-2.809-.932-2.115-2.743-5.864-.58-1.413-.431-1.184-.405-1.185-2.638-9.076-3.033-11.99-.22-1.159-.167-.974-.053-.922-.043-.745.281-9.472M384.758 294.27l.638-2.29.685-2.012.287-.599 1.18-2.054 3.66-6.52 1.208-1.943.33-.543.48-1.116.446-1.092.497-1.035.724-1.489.463-.753 2.156-3.316.21-.487.162-.471.12-.766-.004-.916-.055-2.066-.335-3.654-.053-.631-.05-.302-.075-.477-.289-1.097-.12-.583-.197-1.039-.039-.663.155-1.99.11-.552.258-.761 1.038-2.743.154-.522.098-.466.043-.488-.116-.57-.171-.504-.416-.68-.392-.595-.315-.36-3.712-3.88-.69-.69-.394-.513-.36-.629-.201-.491-.279-.933-.128-.225-.253-.302-.696-.573-.222-.265-.183-.413-.082-.412-.244-.598-.164-.263-.297-.265-.63-.524-.555-.366-.348-.137-.73-.171-.71-.054-.505.035-.538.034-.566.11-.368.136-.26.177-.21.18-.492.576-.519.513-5.773 4.685-2.717 2.413-1.145.89-1.401 1.087-.669.404-.42.18-.427.17-.601.164-.808.241-1.537.533-.435.177-.79.376M175.975 137.321l-8.887 2.536-5.217 1.644-5.278 1.27M148.971 339.646l.311.253.647.574.395.423.565.689.712.907M156.693 347.883l-1.385-1.583-3.707-3.808" clip-path="url(#p47dec4d7cd)" style="fill:none;stroke:#000"/><path d="m156.693 347.883-5.144.964-.515-.65-.068-.822.31-.887.097-.278.103-.788-.549-2.397.674-.533M465.813 348.742l-.204 2.268-.02.154-.052.198-1.006 1.9-1.286 2.5-.316.488-.275.398-.44.548-1.569 1.43-.806.626-1.121.722-7.027 4.017-1.441.744-.595.247-.376.085-.35.046-.423.02-.975-.007-.346.023-.389.085-.325.135-1.068.55-.653.448-.453.417-.529.332-1.89.91-.568.31-1.428.937-.449.233-.393.128-.54.055-2.366-.311-.38-.03-.369.053-.309.153-.254.201-.217.307-.207.463-3.208 8.998-4.593 12.374M618.028 630.138l-1.82-1.199-5.043-4.007-3.156-4.419-2.23-5.583-.825-4.316.035-4.247 1.647-7.365.583-3.425-.274-5.104-1.27-3.767-1.887-3.528-2.882-3.494-2.437-4.453-.72-2.877-.48-3.117.068-3.666 1.682-9.59 1.063-7.844.103-2.706.858-5.652.583-1.507.72-3.323.207-5.788-.824-4.59-1.99-5.31-2.71-4.179-2.78-4.281-2.917-4.727-2.573-3.391-2.882-3.05-4.152-2.842-4.255-1.576-5.25-1.062-10.088-.171-3.122-1.164-3.569-2.193-2.162-2.637-1.715-2.946-3.912-9.385-2.436-4.728-2.78-4.555-3.774-4.385-15.578-13.77-9.298-8.494-11.015-9.592-18.667-16.544-1.269-.411-3.19-3.049-.413-1.028-17.705-15.465-3.86-3.733-3.054-1.816-2.83-.96-2.18-.274-3.38-.016-3.019.873-2.848 1.319-4.598 2.346-3.603.874-2.95.085-2.608-.437" clip-path="url(#p47dec4d7cd)" style="fill:none;stroke:#000"/><path d="m423.187 412.655.39-2.012.652-9.489.343-3.767 2.025-5.49M397.154 328.03l2.723-2.663.592-.535 1.058-.92.643-.453.981-.61M387.943 359.12l2.689 1.39M392.75 333.964l.6.215M392.75 333.964l-.917-1.377M346.844 333.462l7.205 5.564.983.803M382.224 305.487l-.022-.945.043-.741.378-2.563.317-1.19 1.444-4.432.374-1.345M379.398 357.774l.235-.339M400.948 381.134l-.464-.66M396.3 330.027l.854-1.998M396.3 330.027l-.965 2.285M396.3 330.027l-.6-.274M395.7 329.753l-1.01 2.26M395.335 332.312l-.644-.299M393.245 367.667l.038-.165.026-.145.02-.223M400.396 373.173l.21.17M375.71 354.312l.74-.418.32-.103.352-.058.59-.028.48.04.695.143.585.03.417-.042.25-.081.28-.141.308-.211M375.71 354.312l-2.29-1.849M559.482 620.15l-.804.817M589.663 109.994l38.487 9.792 8.441.754M465.54 288.22l.283-.503 2.399-2.795 1.04-1.686 3.907-1.442 2.213-1.582 2.786-2.598 2.963-1.263 2.469-1.968 4.127-4.398 3.421-3.13 2.079-3.055 3.066-3.196 4.934-7.8.229-3.394 2.41-3.39 2.412-2.062 3.887.196 6.544-2.751 2.411-3.733 1.427-1.08 3.15-1.769 1.524-1.866.689-1.18-.197-2.799 2.017-5.895-.786-8.35.836-6.337 1.377-4.37 1.575-2.998.492-3.094 1.525-1.621 3.198-2.702 3.79-4.126 1.328-2.014 3.74-2.702 5.067-5.206.837-1.965.64-3.389 1.279-8.449 2.509-7.908.295-4.175 1.673-4.176 3.64-4.372 3.937-2.063 3.444-2.603 4.97-2.26 2.362-3.192 1.87-1.72 2.509-5.55.984-4.077 2.46-3.291 3.149-5.502 1.357-1.086 1.56-1.619.316-2.17M590.158 103.424l-.195 1.014-.3 5.556M171.515 262.322l.618-.754.892-.24 4.53.274 2.332-.514 1.167-.068 8.063 1.987 3.194.986 3.121.965 1.201.24.892-.24 1.167-.822.858-.412 2.161-.41 1.27.445 1.544.856.583.617.584.856.618.514.548.206.961-.137.792-.458.874-.465.737-.38 2.264-1.61.824-.41 2.71-.582 1.476.136 1.51-.103 1.339-.513 1.338-.857 1.75-1.816 1.235-1.507 2.127-3.665 5.285-8.703 1.064-1.2M171 263.452l.515-1.13M171 263.452l1.681.068M158.82 296.85l7.001-2.26.275-.206 1.747-18.086 1.339-11.51 1.818-1.336M172.681 263.52l-1.166-1.198M252.971 316.336l-10.45-6.927-19.057-12.565-7.592-5.161-15.373-10.13-8.076-5.4-10.134-6.398-5.696-4.008-3.912-2.227" clip-path="url(#p47dec4d7cd)" style="fill:none;stroke:#000"/><path d="m122.046 230.122.71.241 17.26 11.648 13.725 8.838 4.049 2.467 2.78 1.952 1.166.583.72.719 3.5 2.227 5.56 3.525M112.702 233.855l4.152-1.37h.412l4.78-2.363M148.971 339.646l1.167-3.986 1.098-.993 2.47-1.268.927-.822.548-.822.584-1.644.377-.651 1.064-1.336 1.99-3.905.206-1.164v-1.37l-.172-1.165-.41-.96-1.1-1.917-.068-.309-.515-.548-.96-.753-4.735-2.775-2.437-2.09-2.093-2.363-1.544-3.254-.412-.651-.48-.41-4.632-2.639-2.402-1.78 6.725-.994.892-.034.446-.137 3.5-.48.686-.137 1.305-.377 3.946-.24 3.465-.924.412.103" clip-path="url(#p47dec4d7cd)" style="fill:none;stroke:#000"/><path d="m153.09 299.18 3.26-.754 1.03-.411 1.44-1.164M142.28 333.303l2.388 2.349 3.59 3.413.713.581M101.409 292.394l1.101 1.117 15.508 15.246 3.052 3.063 2.155 2.404 4.842 4.809 6.485 6.546 6.536 6.55 1.192 1.174M465.54 288.22l-1.338.783-3.869 5.089-1.435.997-2.247 2.637-1.914 1.87-.832.664-2.226.374-1.582-.063-5.596-1.702-2.767-.54h-3.744l-3.495.643-2.788.976-2.621.644-3.058 1.849-2.247.727-2.308.426" clip-path="url(#p47dec4d7cd)" style="fill:none;stroke:#000"/></g><g id="PatchCollection_1"><path d="m365.762 658.566.972-2.103.94-3.752.454-.906-.292-1.327-1.037-.032-1.231-2.2-.454.745-.421 1.455-3.533-.161-1.555-1.003v-.647l-.81-.744-1.912-2.75.13-.453-.033-1.196-1.2-1.52.325 1.52-.778 1.65-.453 2.555.227 1.876.324 1.326 1.523 1.1.26.84 1.554 1.198.778 1.067 1.2 1.36 2.041.775 1.75 1.262zM341.519 424.601l2.208-2.257.736-2.204 2.418-2.257.578-2.676 1.052-.788.526-2.834 1.524-2.047.105-1.679 2.945-.315 2.313-3.044 1.104-4.356 4.205-.367-2.734-3.044-1.997-1.47-1.578-.158-13.353 7.925-2.208 2.94.473 2.309.789 1.102-1.472.682-2.576 2.729-1.788 2.572-1.104.997-.052 1.574-2.577 3.254-.367 2.152-1.683 3.306.631 4.199 1.682 2.152 2.314.525 4.416-.263 2.576.945 1.262 1.522.63 5.196 2.524-.263.788-3.516.263-1.994-.946-3.884-1.998-2.31-1.682-1.312-.736-1.784zM599.204 166.641l3.02-4.795 2.745-4.796 5.901 1.645 5.216 1.233 2.745 2.192v3.563l.137 4.795-.274 3.288-2.197 3.29-4.117 3.561-1.647 2.33h-4.392l-3.98-1.233-4.667-3.289-.411-2.74 1.784-4.933.686-2.74zM378.688 411.985l-.171.234-.015.482.14.374.265.28.406.187.748-.124.468-.234.936-.25h.624l1.482.686 3.072 1.51 1.731.343h.749l.359-.172.218-.373-.406-.872-9.981-2.149z" clip-path="url(#p47dec4d7cd)" style="fill:#00f;fill-opacity:.8"/></g><g id="PatchCollection_2"><path d="m387.229 365.603.905-1.237 4.354 3.281-.845 1.177zM392.442 369.454l-.061-.233.769-1.1 3.089 2.15-.859 1.228zM388.917 373.633l3.141 2.054 2.204-2.885.774-.994-2.922-2.21z" clip-path="url(#p47dec4d7cd)" style="fill:green;fill-opacity:.8"/></g><g id="PatchCollection_3"><path d="m399.688 334.579-3.768-1.56 1.951-4.695 3.768 1.56zM385.988 405.913l-1.654 3.768-4.865-3.317 1.45-3.363zM405.933 384.28l1.883 1.244 1.795-2.295-2.032-1.273zM395.285 365.228l.886.642 1.133-1.557-.886-.643zM394.086 356.504l1.342 1.014 1.568-2.068-1.342-1.013zM414.574 306.246l1.762 4.982 3.462-1.541-1.637-5.108zM422.996 313.377l-1.513 3.815 5.396 2.18 1.591-3.862z" clip-path="url(#p47dec4d7cd)" style="fill:#90ee90;fill-opacity:.8"/></g><path id="PatchCollection_4" d="m354.09 391.804.068 1.781 2.128.822 4.735 4.11.755 1.713 1.88.714 2.855-2.084 2.388-3.637 2.347 2.61 1.723-1.796 6.52-9.29 3.624 2.55 2.604-3.83 5.496 4.03 2.268-3.31 2.694 1.272 4.718-3.945 1.01.966 2.177-2.576 1.86-.528 5.85-6.557 2.564-3.833-7.979-5.49.985-1.352-2.464-4.518 4.532-6.625-2.44-1.665 7.288-10.258-5.323-3.66-1.784 3.05-4.823-3.597 1.415-2.115 2.41-9.163 2.788-3.48 19.104 4.844 2.562-7.924-16.042-6.367 1.291-1.697-1.724-1.527 2.724-7.712-7.038-2.222-.31.827-6.849-2.096-4.555 11.134 1.173 1.202-2.254 8.38-2.633.783-7.566 9.815-1.482-.045-3.69 2.984-2.695 10.405-9.972-2.804-7.083 11.075 14.618 10.276-8.322 11.397-8.972-4.545-3.702 6.06 9.192 6.203-3.843 5.343z" clip-path="url(#p47dec4d7cd)" style="fill:#d3d3d3;fill-opacity:.8"/><g id="PatchCollection_5"><path d="m394.668 367.365.476-.647-.866-.634-.476.646zM395.886 368.2l.456-.638-.95-.678-.458.638zM396.936 369.051l.492-.688-.91-.65-.493.687zM396.922 372.578l.49-.689-.939-.665-.49.689zM390.186 369.517l.52-.813-.19-.128-.53.806zM389.986 369.382l-.177-.116.529-.806.177.116z" clip-path="url(#p47dec4d7cd)" style="fill:#a9a9a9;fill-opacity:.8"/></g></g></g><defs><clipPath id="p47dec4d7cd"><path d="M90.705 86.4h556.589v554.4H90.705z"/></clipPath></defs></svg>