<svg xmlns="http://www.w3.org/2000/svg" width="960" height="960" viewBox="0 0 720 720"><defs><style>*{stroke-linejoin:round;stroke-linecap:butt}</style></defs><g id="figure_1"><path id="patch_1" d="M0 720h720V0H0z" style="fill:#fff"/><g id="axes_1"><path id="patch_2" d="M90 622.008h558V105.192H90z" style="fill:#fff"/><g id="LineCollection_1"><path d="m363.848 350.727-8.188-.978M363.848 350.727l1.66.168M363.848 350.727l.057.062.444.235.558.276.457.41.48.77M223.79 379.589l-1.487-1.442-2.478-1.83-2.54-1.123-4.112-1.23M202.813 402.882l.109-1.166.108-3.795-.619-2.148-.62-2.774.024-.636.24-.367.612-.707 1.262-1.622.313-.81.055-1.084-.175-.862-.363-.82-.821-.784-1.007-.714-.31-.665.016-.946 1.006-1.428 1.37-1.202 3.051-2.784 2.316-2.31.89-.538 1.688-.34 1.215-.416M413.498 408.138l4.019 1.244M413.498 408.138l1.009-3.17M408.032 410.62l2.509-.389 1.58-.31.68-.36.249-.312.448-1.111M421.282 382.727l-1.266-5.646M421.282 382.727l3.46 2.462M421.282 382.727l3.183-1.898M410.424 383.038l.535-.057 6.816-1.03.806-.029.554.083 1.27.368.877.354M415.543 401.95l3.983.939M415.543 401.95l-1.036 3.018M415.543 401.95l.122-.383M433.816 406.625l-3.775-.993M424.135 400.773l6.812 1.747M424.135 400.773l.926-3.015M424.135 400.773l-.945 3.073M433.506 403.162l-2.559-.642M427.983 387.258l-3.24-2.069M427.983 387.258l-.968 4.137M438.84 394.525l-.908-.622-4.937-3.558-2.09-1.293-2.922-1.794M429.878 384.441l-1.699 2.3-.196.517M421.192 410.35l1.998-6.504M421.192 410.35l-3.675-.968M422.931 410.244l-1.442.113-.297-.007" clip-path="url(#pdeec691678)" style="fill:none;stroke:#000"/><path d="m418.934 416.238 1.355-1.47.604-.91.333-.616.054-.629-.088-2.263M423.19 403.846l-3.664-.957M423.19 403.846l3.187.832M419.526 402.889l-1.003 3.24M419.526 402.889l.846-2.905M424.742 385.19l-.662 2.071M417.517 409.382l1.006-3.253M425.06 397.758l-3.765-.943M425.06 397.758l6.753 1.753M425.06 397.758l.992-3.225M421.295 396.815l-.923 3.169M421.295 396.815l.936-3.212M415.607 395.06l1.782.585 3.906 1.17M432.871 399.787l-1.058-.276M430.041 405.632l-3.664-.954M430.041 405.632l-1.208 4.148M430.041 405.632l.906-3.112M430.947 402.52l.866-3.009M428.833 409.78l-3.966.311M435.938 416.154l-1.243-6.328-.178-.28-.264-.148-.736.014-4.684.368M420.372 399.984l-3.802-1.088M416.57 398.896l-.905 2.671M410.557 399.18l2.663-.354 2.137-.226 1.213.296M424.867 410.091l1.51-5.413M424.867 410.091l-1.936.153M418.523 406.129l-4.016-1.16M432.22 396.026l-6.168-1.493M426.052 394.533l.963-3.138M431.55 392.474l-4.535-1.08M423.143 390.474l-.912 3.13M423.143 390.474l.937-3.213M423.143 390.474l3.872.92M386.692 392.082l2.535-.362 1.081.398 1.457.31 3.741-.398.776.151.637-.318.977.032.601-.231 2.347-.16.985-.175.855-.58 1.56.254.951.406 1.221.318.672.088.977-.143 2.982-1.743 1.378-.462 1.178-.326 1.029-.056 1.692-.008 1.011-.072.576.048 1.498.516 3.734.905M420.325 386.384l3.755.877M422.231 393.603l-3.8-.962M427.157 378.908l-2.692 1.921M427.157 378.908l4.614 2.955M427.157 378.908l-.55-2.824M431.771 381.863l-1.893 2.578M432.472 375.415l.322 2.095.33 2.42.047.344-.03.58-.053.53-.172.438-.442.17-.703-.13M429.878 384.441l-5.413-3.612M436.387 387.914l-1.192-.367-.915-.51-4.402-2.596M409.147 357.763l3.853.498M409.147 357.763l-3.633.667M409.147 357.763l1.053 5.797M408.505 355.723l.253.857.389 1.183M419.322 372.785l-.89-4.538M419.322 372.785l.694 4.296M419.322 372.785l3.478-.666M431.655 370.71l2.825-.527M431.655 370.71l-3.51.574M431.655 370.71l-.864-4.351M431.655 370.71l.817 4.705M429.54 360.396l3.249.42M429.54 360.396l-.665-.086M429.54 360.396l1.251 5.963M435.178 374.57l-.698-4.387M438.015 372.466l-.808.43-.463.396-.482.417-1.084.862M432.472 375.415l1.795-.394.911-.45M432.789 360.815l2.955.382M432.789 360.815l.871 5.038M434.48 370.183l3.045-.444M434.48 370.183l-.82-4.33M439.202 364.93l-2.548.412M435.744 361.197l1.233.16.297.175.139.223 1.789 3.174M437.525 369.739l4.049-.668-2.372-4.142M433.66 365.853l2.994-.511M433.66 365.853l-2.869.506M430.791 366.359l-3.425.49M424.916 367.293l2.45-.445M424.916 367.293l-2.976.415M424.916 367.293l.753 4.33M424.916 367.293l-1.059-5.891M425.669 371.624l2.475-.34M425.669 371.624l-2.87.495M425.669 371.624l.938 4.46M423.412 359.605l5.463.705M423.412 359.605l-2.995-.387M423.412 359.605l.445 1.797M428.144 371.284l.846 4.472 3.482-.341M438.015 372.466l-.49-2.727M443.913 370.26l-1.502-.028-.558.184-.395.24-.48.424-.394.346-.465.848-.441.269-.38.113-.457-.028-.826-.162M423.857 361.402l2.385-.4M423.857 361.402l-3.03.426M410.2 363.56l3.645-.543M410.2 363.56l-3.55.544M410.2 363.56l1.037 5.838M426.242 361.002l2.633-.692M426.242 361.002l1.124 5.846M428.144 371.284l-.778-4.436M411.237 369.398l3.643-.594M411.237 369.398l-3.574.568M436.654 365.342l.871 4.397M436.654 365.342l-.91-4.145M369.17 370.21l-5.645.797M369.17 370.21l-.08-.505M369.17 370.21l1.051 5.86M363.525 371.007l1.16 5.96M360.615 368.776l2.044 1.234.472.268.244.297.15.432M375.537 369.183l6.34-1.12M375.537 369.183l1.246 5.81M375.537 369.183l-1.204-5.938M364.686 376.968l5.535-.899M364.686 376.968l.673 3.179M361.836 375.539l1.403.89.79.39.657.149M388.689 367.024l3.584-.564M388.689 367.024l-6.813 1.038M388.689 367.024l-1.167-5.994M388.689 367.024l1.04 5.851M386.78 357.396l.742 3.634M386.78 357.396l3.646-.707M386.78 357.396l-6.772 1.046M389.73 372.875l3.744-.637M389.73 372.875l-6.659 1.096M389.73 372.875l1.011 5.866M362.345 365.19l5.65-.773M362.345 365.19l-.597-3.572M358.489 366.974l3.217-.744.442-.147.154-.26.032-.248.011-.386M387.522 361.03l3.617-.668M387.522 361.03l-6.83 1.15M380.692 362.18l-6.359 1.065M380.692 362.18l1.184 5.882M380.692 362.18l-.684-3.738M383.071 373.971l-6.288 1.022M383.071 373.971l1.116 5.882M383.071 373.971l-1.195-5.909M386.692 392.082l-1.372-6.529M386.692 392.082l-6.34 1.233M380.008 358.442l-6.35 1.199M380.677 355.695l-.899.184-.178.169-.023.297.43 2.097M400.467 354.726l-1.9.499M400.467 354.726l.72.078M367.592 351.076l11.304 1.332 5.551.665 8.51.933 7.51.72M353.599 362.922l.869-.117M408.886 375.822l-3.7.543M408.886 375.822l-1.223-5.856M408.886 375.822l1.538 7.216M390.741 378.741l-6.554 1.112M390.741 378.741l3.798-.661M385.32 385.553l6.56-1.09-1.139-5.722M384.187 379.853l1.133 5.7M384.187 379.853l-6.267.942M356.414 362.468l1.914-.294M356.414 362.468l-1.946.337M358.489 366.974l-.949-1.102-.673-1.428-.341-1.343-.112-.633M361.748 361.618l5.634-.974M361.748 361.618l-3.42.556M360.615 368.776l-.814-.47-.638-.526-.674-.806M372.622 387.737l6.488-1.126M372.622 387.737l-1.197-5.819M372.622 387.737l1.409 6.846M385.32 385.553l-6.21 1.058M367.996 364.417l3.362-.661M367.996 364.417l-.614-3.773M367.996 364.417l.251 1.302M375.006 398.567l-.975-3.984M375.006 398.567l-.583.125M375.006 398.567l4.733-.986M367.382 360.644l6.275-1.003M365.843 352.48l.144 1.304 1.395 6.86M370.221 376.07l6.562-1.077M370.221 376.07l1.204 5.848M371.425 381.918l6.495-1.123M365.359 380.147l.567 2.677 5.499-.906M374.03 394.583l4.944-.991M368.124 395.94l1.57-.525.38-.072 3.957-.76M356.403 389.073l1.566.425 3.342.931 1.506.46 1.304.643 1.626 1.11.92.948.714 1.023.743 1.327M368.855 399.337l-.203-.823-.528-2.574M374.333 363.245l-2.975.51M373.657 359.64l.15.936.526 2.67M376.783 374.993l1.137 5.802M377.92 380.795l1.19 5.816M379.11 386.61l1.241 6.705M380.351 393.315l-1.377.277M379.74 397.581l-.766-3.99M379.74 397.581l1.021 4.155M373.359 353.792v2.956l.298 2.893M395.21 381.214l-.671-3.134M392.273 366.46l3.758-.636M392.273 366.46l-1.134-6.098M392.273 366.46l1.2 5.778M390.426 356.689l3.701-.67M390.426 356.689l.713 3.673M391.139 360.362l3.693-.558M369.572 403.74l4.468-.733M368.855 399.337l.408 2.746.309 1.657M369.96 408.726l-.063-.643-.325-4.343M394.539 378.08l3.438-.646M394.539 378.08l-1.065-5.842M393.474 372.238l3.497-.581M394.832 359.804l3.477-.34M394.832 359.804l-.705-3.784M394.832 359.804l1.2 6.02M396.031 365.824l3.466-.562M396.031 365.824l.94 5.833M398.833 382.062l-.856-4.628M396.97 371.657l3.578-.508M396.97 371.657l1.007 5.777M394.127 356.02l4.44-.795M397.977 377.434l3.52-.46M401.496 376.974l3.69-.609M401.496 376.974l-.948-5.825M401.496 376.974l.666 3.42M398.31 359.464l3.559-.465M398.31 359.464l1.187 5.798M398.567 355.225l-.164.83-.14.806-.085 1.336.131 1.267M399.497 365.262l3.335-.572M399.497 365.262l1.05 5.887M400.548 371.149l3.465-.6M404.013 370.548l3.65-.582M404.013 370.548l-1.181-5.858M404.013 370.548l1.174 5.817M401.187 354.804l.682 4.195M408.505 355.723l-4.971-.65-2.347-.269M401.869 359l3.645-.57M401.869 359l.963 5.69M410.424 383.038l-3.399-.198-.287-.255-.209-.431-1.342-5.789M402.832 364.69l3.819-.586M406.65 364.104l-1.136-5.674M406.65 364.104l1.013 5.862M417.368 362.428l-.553-3.675M417.368 362.428l1.064 5.819M417.368 362.428l3.459-.6M417.368 362.428l-3.523.59M418.432 368.247l3.508-.54M418.432 368.247l-3.552.557M420.417 359.218l-.672-.086-1.862-.241-1.068-.138M413 358.26l1.96.254 1.855.24M422.8 372.119l-.86-4.411M422.8 372.119l.872 4.51M424.465 380.83l-.793-4.202M420.417 359.218l.41 2.61M421.94 367.708l-1.113-5.88M423.672 376.628l2.935-.544M420.016 377.08l.234-.022 3.422-.43M365.843 352.48l-.335-1.585M365.843 352.48l.438-.528.354-.345.347-.286.61-.245M367.592 351.076l-2.084-.181M350.223 355.475l3.16 1.569M358.328 362.174l-.856-4.103-.33-1.51M353.667 351.049l.211.349.17.339.125.551.123.636.225.332.774.99.922.89.925 1.426M353.382 357.044l.96.028.768-.114 2.032-.396M353.382 357.044l1.086 5.761M343.672 383.912l-1.183 1.163M346.93 382.609l-1.288.557-.715.28-.56.2-.695.266" clip-path="url(#pdeec691678)" style="fill:none;stroke:#000"/><path d="m334.567 377.098 1.853 1.647 3.143 2.24 4.11 2.927M360.615 368.776l-3.732 3.79M356.883 372.567l-4.875 4.84M356.883 372.567l4.953 2.972M350.81 368.925l.505.296 3.027 1.9 2.54 1.446M347.38 365.451l-2.413.86M347.38 365.451l.656-.282M347.38 365.451l2.568 2.765M349.438 369.65l.51-1.434M349.438 369.65l1.373-.725M346.999 370.944l.873-.33 1.566-.964M336.53 374.624l2.202-.667M336.53 374.624l-3.155.958M336.53 374.624l-1.963 2.474M349.948 368.216l.863.71M330.032 372.777l.023-.273-.134-.348-.213-.207M333.375 375.582l-1.518-1.604-1.053-.807-.772-.394M329.083 373.362l.24-.002.284-.086.271-.21.154-.287M328.953 371.828l-.325.164-.114.111-.095.167" clip-path="url(#pdeec691678)" style="fill:none;stroke:#000"/><path d="m323.951 369.172 1.165.786 3.837 1.87M329.708 371.95l-.267-.122-.191-.031-.297.031M329.708 371.95l2.252-.83M328.375 372.345l-5.422 2.018M328.375 372.345l-.039.271.051.235.15.237.26.191.286.083M328.375 372.345l.044-.075M329.083 373.362l-2.627 3.088M334.126 362.887l.877 1.586M338.732 373.957l3.1-1.096M338.732 373.957l-1.81-4.702M335.003 364.473l1.92 4.782M335.003 364.473l2.918-1.091M335.003 364.473l-5.017 1.8M336.922 369.255l-4.962 1.865M336.922 369.255l2.936-1.142M339.858 368.113l1.974 4.748M339.858 368.113l-1.937-4.731M339.858 368.113l5.11-1.803M341.832 372.861l5.167-1.917M337.921 363.382l4.91-1.627M344.967 366.31l2.032 4.634M344.967 366.31l-2.135-4.555M324.513 387.395l2.861-3.155M324.513 387.395l-4.512-3.693M327.906 387.416l-.602.463-.592.243-.546.04-.806-.163-.847-.604M334.567 377.098l-.503-.641-.69-.875M288.59 386.705l2.323-.939M306.646 392.649l-.627-1.498M304.932 388.384l.53-.205M304.932 388.384l-.33.114M304.932 388.384l1.087 2.767M306.019 391.151l-8.563 2.961M312.992 388.413l-3.823 1.444-3.15 1.294M292.848 395.554l4.608-1.442M311.97 385.843l3.559-1.195M311.97 385.843l-1.36.442M311.97 385.843l1.022 2.57M296.333 391.356l3.523-1.268M296.333 391.356l-2.602.862M296.333 391.356l1.123 2.756M295.365 396.024l2.363-.8.097-.186-.37-.926M299.922 376.95l.933 2.413M299.922 376.95l.538-.173M299.922 376.95l-5.1 1.749M299.922 376.95l.058-.576M304.602 388.498l-4.746 1.59M304.602 388.498l-1.82-4.44M301.904 381.91l.677-.257M301.904 381.91l-4.859 1.7M301.904 381.91l.879 2.147M301.904 381.91l-1.05-2.547M305.462 388.18l5.149-1.895M305.462 388.18l-1.945-4.408M300.46 376.777l-.48-.403M305.96 375.07l-3.256.94-2.244.767M300.46 376.777l.96 2.353M302.581 381.653l5.135-1.898M302.581 381.653l-1.161-2.523M302.581 381.653l.936 2.12M300.855 379.363l.565-.233M300.855 379.363l-4.917 1.739M300.793 374.12l-1.386-.256M310.487 372.743l-1.092.493-.937.396-1.123.29-1.672.367-2.389.12-2.481-.29M300.793 374.12l-1.038 1.43M292.81 373.858l-6.016 2.141M292.81 373.858l-.496-1.548M292.81 373.858l2.013 4.84M284.447 376.819l2.347-.82M290.913 385.766l6.132-2.156M290.913 385.766l2.818 6.452M290.913 385.766l-1-2.495M285.105 372.056l1.689 3.943M286.794 375.999l2.036 4.855M162.418 557.453l.729-.524 1.22-1.125.496-1.074v-2.713l-.124-2.374v-2.035l.248-2.148.248-1.809.867-2.034 2.106-4.183 1.239-2.826.743-2.94.62-3.165.266-2.72.477-2.368.619-2.26.372-2.6.124-2.15.018-2.605.918-1.66.21-.887.48-.789.725-.612 5.389-3.618 1.177-.509.867-.113h1.239l1.61-.056 2.355-.622 1.176-.509.93-.509.805-.565 2.168-1.413 1.982-1.187.743-.848 1.425-2.261.806-.735 1.176-.791.558-.34 3.716-3.109.806-.621.681-1.018.64-.683.82-.622 15.773-4.261 2.253-.538 2.803-.204 2.625-.58 2.617-1.145 1.518-.812 1.355-1.71 1.726-3.08 4.298-9.434.75-1.944.474-1.265 2.314-4.395.65-1.653.907-2.311 1.022-1.555 3.593-4.794 2.3-2.329 3.329-5.568.774-1.583.356-1.088.248-1.315.186-.96.139-1.23.31-1.216 4.104-6.501 4.103-5.823 6.582-8.028 6.504-9.158 1.069-1.513.805-1.173.936-.926 1.619-1.78 2.222-2.813 1.448-1.703 1.378-1.265 1.115-.6.867-.382 2.571-.87M289.914 383.271l6.024-2.17M289.914 383.271l-1.084-2.417M262.775 406.147l1.285-1.696.557-.933 1.147-1.569 2.787-2.551 4.111-2.925 1.55-1.555 1.029-1.555 1.208-2.805 1.154-3.958.425-.877.511-.452.883-.183.542.409.534.925 9.416-3.15M288.83 380.854l5.993-2.155M285.086 380.794l.306.707.163.219.401.116 2.874-.982M294.823 378.699l1.115 2.403M295.938 381.102l1.107 2.508M297.045 383.61l2.81 6.478M307.716 379.755l5.075-1.79M307.716 379.755l-1.756-4.684M307.716 379.755l2.895 6.53M305.96 375.07l4.903-1.957M312.791 377.965l6.982-2.483M312.791 377.965l2.738 6.683M312.791 377.965l-1.928-4.852M315.529 384.648l3.91-1.465M318.442 372.677l1.33 2.805M318.442 372.677l4.51 1.686M318.442 372.677l-2.867-1.214M319.773 375.482l3.18-1.119M319.773 375.482l2.878 5.24M313.379 370.515l.534.253M308.55 368.344l2.564 1.224 2.265.947M310.487 372.743l1.4-.928 1.492-1.3M323.671 361.192l-6.885 6.166-1.88 1.732-1.527 1.425M322.953 374.363l3.503 2.087M308.55 368.344l1.728 3.945M308.55 368.344l-.603-1.087M326.456 376.45l-3.805 4.271M326.456 376.45l4.847 3.664M331.303 380.114l-3.929 4.126M331.303 380.114l3.264-3.016M322.651 380.721l4.723 3.519M319.44 383.183l.91-.358 1.023-.635.59-.58.688-.889M310.487 372.743l-.21-.454M310.54 365.179l1.318 1.098M310.54 365.179l-3.173.525M318.64 364.055l-2.827-.113-1.208.142-1.486.275-1.716.419-.863.4M323.864 368.184l6.122-1.912M323.864 368.184l.087.988M323.864 368.184l-1.034-2.96M321.791 368.86l1.149-.356.924-.32M323.951 369.172l-1.348 1.462M328.419 372.27l-1.587-.27-4.228-1.366" clip-path="url(#pdeec691678)" style="fill:none;stroke:#000"/><path d="m311.858 366.277.688.45.677.439 1.258.684 1.917.694 3.995 1.357 2.21.733M331.96 371.12l-1.974-4.848M322.6 359.59l1.071 1.602M323.72 357.518l-.618 1.174-.31.566-.192.331M318.64 364.055l.55-.424.93-.706.712-1.004.951-1.343.318-.452.499-.537M325.297 359l1.063 1.45 1.75 2.672 1.876 3.15" clip-path="url(#pdeec691678)" style="fill:none;stroke:#000"/><path d="m352.377 349.357-4.71-.43-2.716-.017-3.818.438-2.082.572-3.26 1.301-1.83.976-5.238 4.32-4.017 3.731-.491.415-.544.529M325.297 359l-.774-3.05M323.72 357.518l.616.558.475.425.486.499M323.72 357.518l.803-1.567M311.858 366.277l3.568-.717 1.126-.217.867-.304.625-.46.596-.524M307.947 367.257l-.238-.678-.342-.875M309.07 354.974l-2.03 7.767-.17.686.055.6.131.763.311.914M343.222 322.486l-3.624-3.164M343.222 322.486l-4.031 1.947M348.086 317.566l-2.322 3.095-.65.68-.372.31-.743.453-.392.258-.385.124M346.615 325.319l-.348-.304-.573-.34-.705-.494-.874-.68-.893-1.015M314.368 313.192l3.91 3.496M314.368 313.192l1.298-.974M313.374 314.396l.31-.576.684-.628M339.598 319.322l-2.425-2.52M339.598 319.322l-2.528 1.175M326.883 325.363l2.272 2.557M326.883 325.363l2.978-1.514M325.911 324.408l.417.41.555.545M333.072 327.284l2.864-1.5M333.072 327.284l-2.136.997M333.072 327.284l-2.174-3.917M335.936 325.785l3.255-1.352M335.936 325.785l-1.99-3.836M330.898 323.367l2.092-.973M330.898 323.367l-1.037.482M339.19 324.433l-2.12-3.936M333.947 321.95l3.123-1.453M333.947 321.95l-.957.444M335.842 315.626l1.331 1.176M335.842 315.626l-3.79-3.728M335.842 315.626l-2.6 2.3M319.477 308.907l1.77 1.479M319.477 308.907l1.8-1.835M319.477 308.907l-.75.728M330.74 320.14l2.501-2.213M330.74 320.14l-2.454 2.17M330.74 320.14l2.25 2.254M330.74 320.14l-9.493-9.754M319.747 313.72l8.54 8.59M319.747 313.72l1.5-3.334M318.279 316.688l.493-.762.975-2.206M328.286 322.31l-2.375 2.098M328.286 322.31l1.575 1.539M322.875 307.798l10.366 10.129M322.875 307.798l1.936-3.026M322.875 307.798l-1.628 2.588M318.279 316.688l7.632 7.72M324.81 304.772l7.242 7.126M324.81 304.772l-1.13-.996M320.551 336.707l-.714-2.318M324.523 355.95l.21-2.227-.13-3.718-.373-2.862-.294-1.795-.402-1.287-.534-1.342-1.18-2.536-1.269-3.476M316.305 334.648l.554.587 1.02.984.574.268.605.125 1.493.095M316.34 320.576l-2.563.894M313.374 314.396l-.131.427.047.92.426.989 2.624 3.844M317.316 324.075l-.45-1.725-.526-1.774M313.374 314.396l-.766.255M291.307 322.385l1.495-.501M318.147 327.262l-.83-3.187M318.147 327.262l.23.565M318.147 327.262l-1.545.59M310.417 330.167l6.185-2.314M310.417 330.167l-3.36 1.053M310.417 330.167l.706 1.717M310.417 330.167l-2.826-6.354M307.591 323.813l2.68-1.006M307.591 323.813l-3.082 1.202M307.591 323.813l-2.896-6.191M304.695 317.622l1.17-.456M304.695 317.622l-2.98 1.124M304.695 317.622l-2.694-6.273M302 311.35l4.422-1.785M302 311.35l-1.455-.524M301.714 318.746l-3.113 1.138M301.714 318.746l2.795 6.269M300.235 312.547l-.07.558-.092 1.506.123.855 1.518 3.28M296.17 316.123l1.417-.685.72-.58.682-1.152.464-.77.782-.389M300.545 310.826l-.263 1.29-.047.431M304.51 325.015l-3.292 1.194M307.056 331.22l-.185-.551-2.362-5.654M292.376 329.297l-5.552 1.937-.488-.297-1.657-5.413-.154-1.09" clip-path="url(#pdeec691678)" style="fill:none;stroke:#000"/><path d="m292.376 329.297-1.955-3.653-.399-.474-.48-.307-1.235-.329-1.533-.116-2.25.017" clip-path="url(#pdeec691678)" style="fill:none;stroke:#000"/><path d="m290.72 317.876-1.743.488-1.68.813-1.263.975-.828 1.215-.511 1.174-.162.94-.008.954M293.778 332.846l-1.402-3.549M292.376 329.297l3.252-1.045M292.802 321.884l2.92-1.004M292.802 321.884l-2.083-4.008M292.802 321.884l2.826 6.368M296.954 331.56l-1.326-3.308M295.628 328.252l1.56-.559M290.72 317.876l2.415-.947M299.089 326.909l2.13-.7M299.089 326.909l-1.9.784M295.721 320.88l.133.658.633 1.724.79 1.746 1.139 1.392.673.509M295.721 320.88l2.88-.996M301.218 326.21l-2.617-6.326M307.056 331.22l-3.058.876-2.78-5.887M296.17 316.123l.79 1.258.472.488.302.46.542.975.325.58M296.17 316.123l-3.035.806M310.428 312.888l2.18 1.763M310.428 312.888l-2.574-2.232M310.886 315.371l-.314-.76-.143-.47-.082-.354-.037-.335.118-.564M313.094 310.052l-2.513 2.693-.153.143M313.777 321.47l-3.148 1.177M313.777 321.47l.954 2.155M310.886 315.371l2.454 5.188.437.911M310.886 315.371l1.722-.72M310.886 315.371l-5.022 1.795M316.602 327.853l3.235 6.536M316.602 327.853l-1.87-4.228M318.377 327.827l.798 3.35.662 3.212M316.305 334.648l-.53-1.576M308.7 334.316l1.69.236 1.196.259.72.07.88.014.578-.008.478.066.406.056.511-.018.535-.141.611-.202M310.27 322.807l.359-.16M305.864 317.166l.72.986 1.12 1.442.727.71.577.558.736.958.526.987M310.629 322.647l.337.903.144.747.077 1.488-.057 1.512M318.538 304.379l-.3.26M323.154 300.397l-1.62 2.038-.331.507-.332.397-1.056.545-1.277.495M314.428 303.712l1.293.326 1.812.318 1.005.023M307.854 310.656l-1.432-1.091M307.854 310.656l2.757-2.686M314.428 303.712l-1.215 1.46M312.015 302.19l.818.533 1.595.99M307.773 297.235l-.596-.184-.748-.142M301.842 297.828l.435-.307 1.307-.562 1.301-.124 1.544.074" clip-path="url(#pdeec691678)" style="fill:none;stroke:#000"/><path d="m308.74 295.637-.243-.159-.469-.243-.573-.128-.294.007-.248.081-.143.213-.116.197-.225 1.304M314.527 302.513l-3.42-2.734M300.545 310.826l-1.673-.49M299.848 304.582l-.008 1.76.179 1.088.216.883.248.94.077.856-.015.717M299.848 304.582l.644.215M299.453 301.896l.287 1.908.108.778M300.492 304.797l.854.329 1.216.311 1.363.17M304.5 300.272l.358-.422 1.692-1.12M309.977 300.602l-.684-.797-.85-.899-.912-.727-.266-.11-.236.19-.282.216-.197.254M310.76 303.193l-1.31-1-1.271-1.318-.757-.937-.55-.763-.322-.446M303.367 301.783l-1.173 1.23-1.702 1.784M304.5 300.272l-.246.362-.658.905-.229.244M299.453 301.896l.248-.393.422-.346.542-.237.774-.158.693.18 1.235.84" clip-path="url(#pdeec691678)" style="fill:none;stroke:#000"/><path d="m301.842 297.828-.6.481-.748.965-.762 1.261-.26.882-.019.48M315.84 307.297l2.399-2.657M315.84 307.297l-2.746 2.755M315.84 307.297l-2.627-2.126M318.728 309.635l-.599-.424-2.288-1.914M313.213 305.171l-2.602 2.799M313.213 305.171l-2.453-1.978M318.728 309.635l-3.062 2.583M322.914 299.839l.24.558M330.386 279.024l.162.94-.116 1.42-.518 2.27-.58 1.3-1.201 1.993-1.44 2.092-1.053 1.584-.751 1.378-.906 1.943-.38 1.789-.557 3.406-.132.7M321.365 298.9l.312.188 1.237.751M310.76 303.193l1.255-1.003M310.611 307.97l-1.741-1.303-.412-.686-.046-.403.094-.367 2.254-2.018M309.977 300.602l1.223.962.815.626M311.106 299.779l-1.13.823M307.773 297.235l1.12.668 2.213 1.876M313.094 310.052l2.572 2.166M313.094 310.052l-2.483-2.082M321.277 307.072l-3.038-2.432M323.68 303.776l-.324.827-.292.457-.932 1.119-.855.893M323.68 303.776l.466-1.605M331.857 281.335l-.042-2.46M325.122 296.95l.123-.786.372-1.682 1.068-2.29 2.106-3.421 1.766-2.856.774-1.71.186-1.06.34-1.81M341.69 280.515l-1.556-.297-2.865-.042-.828.05-1.146.148-1.812.48-1.626.481M326.685 268.598l-.798-2.021-.387-.665-.893-1.09M330.386 279.024l-.131-.664-.365-1.04-.588-1.844-.921-2.284-1.696-4.594M324.647 269.323l.775-.236 1.263-.489M325.122 296.95l-.674 4.331-.302.89M323.154 300.397l.247.517.745 1.257M330.52 302.419l-1.234-.145-3.515-.16-1.625.057M321.365 298.9l-1.347-.588M308.74 295.637l.6.514 5.696 4.263.82.438.98.38 1.316.176.682-.141.503-.205.813-.65 1.215-1.512M352.008 377.407l-5.077 5.202M352.008 377.407l-2.737-2.378M356.52 381.263l-.767-.744-.993-.782-2.752-2.33M362.395 386.245l-1.61-1.334M361.836 375.539l-5.315 5.724M356.52 381.263l4.265 3.648M360.785 384.911l4.574-4.764M356.403 389.073l1.625-1.556.568-.574 2.19-2.032M346.93 382.609l3.854 2.931 3.19 2.432 2.01.987.419.114M342.386 379.249l4.545 3.36" clip-path="url(#pdeec691678)" style="fill:none;stroke:#000"/><path d="m366.996 398.335-.149-.725-.216-.749-.263-.678-.775-1.322-.596-.82-.774-.664-1.084-.58-3.113-1.024-4.135-1.146-1.665-.593-2.477-1.01-1.48-.714-1.099-.714-2.582-2.25-.217-.255-.092-.258-.005-.244.299-1.077.358-.903M351.06 392.988l.062-.515-.039-.355M351.083 392.118l-.04-.416-.452-.497-3.993-3.026M346.188 388.644l4.01 2.89.45.433.435.151M366.996 398.335l1.859 1.002" clip-path="url(#pdeec691678)" style="fill:none;stroke:#000"/><path d="m351.06 392.988 6.543 2.17 6.883 2.366 1.022.36 1.488.45M369.09 369.705l-.152-.597M371.358 363.756l.095.337.884 4.563-.008.297-.209.205-3.03.547M368.247 365.72l.379 1.964" clip-path="url(#pdeec691678)" style="fill:none;stroke:#000"/><path d="m370.214 367.446-.173-.802-.053-.074-.129-.174-.731-.393-.88-.284M368.938 369.108l-.312-1.424M370.214 367.446l.087.392.006.218-.041.197-.157.227-1.171.628M361.087 409.5l-3.618-2.484M356.312 421.327l.013-.707.062-1.356.389-1.005.743-.961 1.394-1.612.726-.93 1.084-2.163.341-.877.097-.846-.02-.447-.054-.924" clip-path="url(#pdeec691678)" style="fill:none;stroke:#000"/><path d="m367.22 412.267-4.448-1.719-1.685-1.049M365.291 404.112l-.944 2.883-.79 1.54-.805.806-.473.113-1.192.045M345.944 399.08l4.128 2.85M345.944 399.08l3.528-4.084M299.206 463.867l-.109-1.738.116-1.209.527-.798 1.997-2.883 2.37-3.293 2.523-3.232 1.196-1.76 2.072-2.4 1.232-1.243 1.176-.965 1.097-1.045 1.588-2.055 1.72-2.91.808-1.767.289-.831.271-1.738.122-2.535.266-1.106.809-1.037 1.055-.755 3.337-2.055 1.066-.91.851-1.065.75-1.103.601-1.166 1.345-2.967.707-1.615 3.768-4.246 4.246-4.046 2.394-2.902 6.548-7.413M341.92 385.673l.569-.598M341.92 385.673l4.268 2.971M341.042 389.3l-.575-.537-.385-.536.153-.556.31-.421 1.374-1.577M348.036 365.169l-3.335-4.11-1.87.696M352.377 349.357l3.283.392M353.667 351.049l-.47-.676-.82-1.016M291.493 356.409l4.39 10.318M291.462 355.264l-.023.466.054.679" clip-path="url(#pdeec691678)" style="fill:none;stroke:#000"/><path d="m286.247 355.461.391.258.341.202.415.198.538.177 3.561.113M298.028 373.56l.093-1.533M298.028 373.56l1.379.304M298.028 373.56l1.753 2.1M292.314 372.31l4.65 1.064 1.064.187M295.884 366.727l.244.703M295.884 366.727l6.744.268M295.884 366.727l-6-.36M307.947 367.257l-5.32-.262M284.438 370.252l-1.864-4.423M284.438 370.252l-2.229.608M291.555 370.536l-1.223-.155-2.207-.41-1.99.099-1.697.182M284.209 358.97l-1.635 6.86M282.574 365.83l7.31.536M278.321 362.217l1.69 3.633 2.563-.02M291.555 370.536l-.58-1.484M298.121 372.027l-.538.276-1.111-.014-2.602-.445-1.34-.227-.44-.36-.535-.721M288.327 362.782l1.556 3.584M289.883 366.366l1.092 2.686M223.79 379.589l1.958 2.007 16.322 22.325 1.14 1.086 1.384 1.034 1.518.665 1.498.302 1.898-.134 1.823-.55 2.079-1.35 8.296-7.406 3.663-3.265 2.748-2.516 1.603-1.802 1.502-1.979 1.464-2.586 3.422-7.71.875-1.41.863-1.227.732-.834 1.758-1.265 1.618-.897 1.181-.35 1.324-.304.91-.127.917-.035 1.15-.036 1.328.13 1.514.372 2.036.583M296.128 367.43l1.993 4.597M296.128 367.43l-5.153 1.622M301.148 363.687l1.48 3.308M302.628 366.995l1.194 2.88M303.822 369.875l-5.7 2.152M310.278 372.289l-1.069.41-.646.219-2.978.558-.487-.332-1.276-3.269M298.121 372.027l1.286 1.837M299.407 373.864l.348 1.685M349.472 394.996l4.065 3.237M349.472 394.996l-2.222-1.629M351.06 392.988l-.318.488-1.27 1.52M341.042 389.3l6.208 4.067M341.042 389.3l-.497.635M288.358 355.363l-.876-.184-.379-.41-.538-1.368-.507-.756-2.253-1.785-.426-.325M291.462 355.264l-.857.016-2.247.083M286.131 345.98l-.02.46.18.449.556.34.682.324.278.559.016.89.535 6.36" clip-path="url(#pdeec691678)" style="fill:none;stroke:#000"/><path d="m291.462 355.264.473-.333 9.795-.254.929-.226.425-.389.744-1.272.007-6.375-.51-1.152-.798-.7-1.316-.402-7.542-.064-1.92-.36-2.044.233-2.122.572-.86.325-.36.474-.232.64M283.667 333.865l1.1 2.019.557 1.753.434 2.035.139 2.165v2.262l.234 1.882M315.575 371.463l-1.662-.695M315.575 371.463l-3.304.973M313.913 370.768l-1.642 1.668M310.863 373.113l1.408-.677M319.44 383.183l.56.519M327.906 387.416l1.084-.828 1-.702.914-.17.612.234.34.833.031.552-.085.473-.364.665-.372.395-.34.085-.441-.056-.581-.212-.929-.622-.87-.647" clip-path="url(#pdeec691678)" style="fill:none;stroke:#000"/><path d="m327.906 387.416.87.647.928.622.58.212.442.056.34-.085.372-.395.364-.665.085-.473-.03-.552-.34-.833-.613-.234-.913.17-1 .702-1.085.828M313.721 390.276l-2.661 2.925-1.378 1.61-1.342 1.106-1.013.704-.496.509-.68 1.243-.59.518-.588.33-1.177.113-1.425.114-1.92-.227M313.721 390.276l-.729-1.863M320 383.702l-3.04 3.406-3.239 3.168M413.506 356.22l-1.571-.122-1.642-.205-1.788-.17M413.845 363.017l1.035 5.787M413.845 363.017l-.845-4.756M334.116 410.22l-1.549 1.229-3.026 2.143-1.712 1.065-4.894 3.675-1.647 1.054-1.264 1.207-.743.792-.991 1.017-2.23 1.47-1.24 1.018-.557 1.357-.062 1.809.582 1.167.558.848.161 1.15-.31 1.583-1.92 3.392-3.717 4.975M326.035 394.6l-1.907.673-1.874 1.123-1.735 1.187-2.23 1.357-4.893 2.205-4.894 2.036-3.134 1.62-3.122 1.998-3.159 2.544M346.188 388.644l.41-.465M341.564 402.408l-1.004 1.421-.726 1.218-.95 1.19-1.034 1.182-.712 1.004-.833.703-1.027.599-1.162.494M325.183 410.119l1.812-.1h3.422l3.699.2M328.226 327.454l-1.82.338-.86.29-.843.27-1.301.288-1.069.036-1.819-.22-2.137-.629M286.247 355.461l-.251-.855-.348-.445-.659-.375-2.996-1.18-.386-.012-.307.127-.186.24-.03.27.104.224.403.255 3.747 1.349.487.177.422.225" clip-path="url(#pdeec691678)" style="fill:none;stroke:#000"/><path d="m286.247 355.461-.422-.225-.487-.177-3.747-1.35-.403-.254-.104-.225.03-.27.186-.239.307-.127.386.013 2.996 1.18.659.374.348.445.251.855M330.936 328.28l6.939-.164M329.155 327.92l.937.297.844.064M328.226 327.454l.93.466M317.316 324.075l.627-.261.55-.008.674.537.387.438.279.51.355.508.357.325.51.382.411.177.263.084 2.053.22 1.533.07 1.51.1.828.127.573.17M349.96 327.743l-1.23-1.577-.617-.653-.382-.343-.446-.088-.67.237" clip-path="url(#pdeec691678)" style="fill:none;stroke:#000"/><path d="m337.875 328.116 1.95-.077 1.548-.077.581-.12 2.277-1.082 2.384-1.441M368.626 367.684l1.588-.238M181.954 157.485l2.006 1.354 2.335 1.136 7.948 3.388 5.68 1.929 7.63 3.072 10.344 5.09 4.057 1.923M327.802 246.951l-.786-1.33-1.1-1.215-2.177-1.272-1.096-.76-1.156-1.078-1.331-1.937-1.45-2.828-1.895-7.167-.548-1.678-2.586-5.344-.697-1.654-.588-2.022-.612-1.703-.674-1.675-.425-.87-1.232-1.236-2.276-1.57-1.657-.544-2.308-.615-28.788-4.595-3.453-.608-2.276-.862-2.742-1.71-3.267-3.351-7.929-6.179-3.066-1.555-10.376-4.482-9.849-4.85-3.205-2.233-6.303-4.651M242.907 125.481l-3.84 24.772 1.114 4.863.867 2.94-19.094 17.32M115.399 116.113l1.024.88 4.602 2.596 6.195 2.263 5.804 1.475 3.469.566 2.868.22 3.078.006 1.753.22 1.344.572.868 1.244 14.742 19.682 1.611 1.696 9.291 6.108 1.63.787 1.344.57 1.487.34 1.752.56 1.84.684 1.853.903M100.73 193.495l1.255.593.69.566.526.877 1.076 2.318.825 2.106.252.297.418.138.414.124.519.036.39-.153.682-.64 1.727-2.007 1.85-2.212 1.022-1.21 1.247-1.038 1.006-.495 4.089-1.315 1.072-.318.902-.07 3.558.126 4.096.138.519-.304.182-.399.82-4.234.473-1.485 1.641-2.29.457-1.167.236-.89.465-1.06 1.227-2.22 1.247-3.86.503-.813.673-.445 1.007-.368 1.533-.488.461-.304.236-.48.279-1.347.256-.382.538-.262.449.025.693.304 4.17 2.271 2.504 1.5.48.202.62-.028.421-.17 1.689-1.368.998-.59.743-.202 1.108-.017 2.679.29 3.47.466 1.311.24 1.742.807.318-.078.279-.184.774-.866 5.8-5.033 8.366-6.677 2.241-1.965M443.27 242.82l1.016-.66M432.725 263.947l.216-1.533.372-1.181.86-1.59.727-1.096.62-.954.201-.559.317-1.236.093-1.019.318-3.216.14-1.18.293-1.053.542-1.004 1.076-1.512 1.216-1.4 1.82-1.484 1.735-1.11" clip-path="url(#pdeec691678)" style="fill:none;stroke:#000"/><path d="m444.269 243.265-.395-.254-.603-.191M444.286 242.16l.138-.09 2.106-.89M457.912 238.459l-9.043 2.24-2.339.481" clip-path="url(#pdeec691678)" style="fill:none;stroke:#000"/><path d="m426.274 178.706 2.401 4.192 2.183 3.21 2.153 3.096 1.084 1.032 1.409.735.62.622.201.481.65 1.866.759 1.018 1.518 1.95.217.778-.078.806-.34 1.174-.76 1.159-.743 1.343-.79 2.234-.294 1.512-.279 2.404-.263 1.386-.975 2.12-.496 1.16-.34 1.342.007.467.201.615.558.784 1.432 1.457 2.068 1.767 2.191 1.258 3.144 1.35 1.122.474.612.389.402.466.806 1.18 1.362 1.853 1.224 1.845.991 1.873.82 1.272.427.347.573.544.294.452.023.24-.1.389-.674 1.562-1 1.647-1.253 1.308-2.81 3.315M413.506 356.22l.942-.665.705-.883.41-.8.537-.856.511-.968.93-2.17.325-1.123.2-1.428.055-1.838M414.188 339.454l.612.48 1.254 1.407 1.107 1.95.96 2.198" clip-path="url(#pdeec691678)" style="fill:none;stroke:#000"/><path d="m422.092 341.328-.495.664-3.476 3.497M414.854 295.245l.201-.248 2.238-3.01 1.502-1.725.697-1.138.472-1.272.565-2.1.395-1.434.418-1.273.628-1.01.51-.664 3.059-2.326 2.013-1.654 1.285-1.18.527-.545M432.725 263.947l-.426 2.573-.055.954-.163.905-.502 1.88-.233.657-.588 1.252-.79 1.922-.34 1.06-.264.516" clip-path="url(#pdeec691678)" style="fill:none;stroke:#000"/><path d="m434.56 272.472.116 1.385.077.721-.07.353-.209.163-.565.092-2.183.282-2.362.198M404.285 307.218l7.147 5.133M404.418 311.006l-.18-2.954.047-.834M409.658 300.984l-4.746 4.693-.473.65-.154.891M454.76 269.736l-1.099-.452-.797-.467-.488-.367-1.27-.523-2.865-1.244-3.229-1.647-3.476-1.534-1.053-.297-1.433-.092-2.23.29-2.555.403-1.54.141M414.49 314.294l5.17-5.856M414.49 314.294l-2.06-1.225M420.931 319.107l-.603-.736-1.378-1.046-4.46-3.031M420.931 319.107l.122 1.679M427.39 317l-1.58 1.357-1.347.565-1.255.34-2.277-.155M414.188 339.454l-2.311-1.833M414.188 339.454l-.55-8.268M414.854 295.245l-4.297 4.679-.899 1.06M419.66 308.438l-1.869-1.292-8.133-6.162M423.836 301.38l-2.935-2.1M420.901 299.28l-1.757 1.916-.055.354.016.346.146.297 1.301 1.28.542.31.256-.007.282-.121 2.204-2.275M419.66 308.438l6.737 4.619 1.04.67.386.008.287-.113.727-.608 1.642-1.775 1.463-1.49 1.154-1.33.217-.424-.023-.219-.117-.12-9.337-6.276M414.854 295.245l.792.418M421.565 327.786l.126 1.724.588 9.91-.108 1.115-.079.793M430.975 339.135l-.937.135-.341.113-.263.282-.45.828-.317.657-.27.212-.38.1-1.1-.093-2.191-.791-.534-.085-.69.127-1.41.708M412.43 313.07l-.998-.719M412.43 313.07l1.207 18.116M332.052 311.898l2.88-2.541M334.197 299.411l-1.116 4.67M330.52 302.419l.595-3.217.262-.204.435-.057.65.09 1.735.38M337.153 299.874l-.726-.185-2.23-.278M337.606 307.01l-1.898-1.827M337.606 307.01l-2.675 2.347M337.606 307.01l6.947-5.712M342.946 312.051l-1.037-1.145-4.303-3.895M342.946 312.051l-2.783 2.31M342.946 312.051l1.915 2.084M333.08 304.081l-2.776-.553M335.708 305.183l-.598-.412-.922-.359-1.107-.33M330.52 302.419l-.216 1.11M337.173 316.802l2.99-2.44M334.931 309.357l-4.227-4.217-.508-.608-.061-.28.058-.352.11-.372M624.641 457.323l.704-12.224-.046-9.272-.124-8.847.217-6.459.185-5.032.17-3.038.775-2.672 1.456-2.29 1.889-1.865.465-.622.665-1.441.604-2.855 1.781-8.17 1.936-8.396.805-3.505.45-.721.696-.452M626.588 359.654l1.22 2.245.836 1.676 2.083 4.021 6.542 11.866M424.176 357.278l-.226-.416M414.118 356.267l2.882.314 7.176.697M445.277 359.649l-6.861-.823-14.24-1.548M423.95 356.862l-9.04-1.1M414.91 355.763l.239-.333.869-1.67 2.397-4.773.026-3.236.816-1.14 5.79.558 1.327 6.31.562 2.84-.536 2.84-2.45-.297M423.95 356.862l-.528-1.298M423.422 355.564l-7.174-.733M423.422 355.564l.406-1.728M416.248 354.831l-1.339.932" clip-path="url(#pdeec691678)" style="fill:none;stroke:#000"/><path d="m417.533 352.79-.457.544-.828 1.497M414.91 355.763l-.792.504M414.118 356.267l-.612-.047M178.365 609.753l-2.045-9.895-2.313-17.394-2.143-5.61-4.85-6.432-4.596-12.969M299.206 463.867l.213 3.25.012 4.14-.012 1.35-.254 3.465-.812 5.78-.595 1.949-.403.933M457.912 238.459l5.018-1.138 2.028-.587 1.007-.424.735-.608.511-.523 1.564-1.343 1.826-1.183 2.828-1.701 2.888-1.972 2.656-1.937 1.154-.947 2.183-1.774.844-1.11 1.185-1.57 1.824-2.359 2.528-3.521M583.628 243.005l-.832-.092-5.779.647-3.083.45-5.444.976-13.984 2.02-8.591 1.074-3.25.52-7.737.693-1.322.248-4.123.48-1.08.022-1.558-.15-2.24-.421-2.286-.22-1.935.006-4.07-.19-1.005-.335-.854-.404-3.089-1.911-3.92-2.246-.733-.566-.768-.757-1.628-1.8-1.167-1.127-2.124-1.599-.578-.56-.68-1.05-.515-1.011-1.829-4.05-1.122-1.944-.813-1.621-.303-1.2-.378-1.41-.403-1.007-.697-1.57-1.216-1.88-2.772-3.95-.681-.884-.348-.424M477.463 187.59l.116.483.805 4.92.419 3.972.28 2.547.13.953.333.75.48.55 2.06 1.845 1.125.968 1.09 1.224.735 1.16.402.89.612 2.848.473 1.718.301.672.675.906.588.712.604 1.054" clip-path="url(#pdeec691678)" style="fill:none;stroke:#000"/><path d="m585.5 250.419-.31-1.923-.465-4.163-.098-.456-.29-.525-.71-.347M582.899 235.617l.325 2.941.404 4.447M589.294 272.782l-.929-5.258-1.177-7.012-1.688-10.093M626.762 262.887l.14-1.357.37-2.05.357-1.887.271-1.901.357-1.888-.024-.488-.07-.303-.526-.644-.914-.706-1.95-1.11-1.31-.615-.534-.559-.092-.303-.024-.432-.062-2.17-.132-.622-.084-.155-.225-.12-.527-.05-2.152.227-5.172.791-1.68.205-1.085-.014-1.417-.064-.279.043-.24.275-.139.368-.007 1.336.015.855-.1.516-.179.24-.704.382-1.897.445-.751.106h-1.022l-1.758-.332-2.044-.6-3.175-.997-1.285-.396h-.434l-.743.092-5.854.877-4.18.537M216.898 331.072l.41 1.42.729 2.375-.029 1.889 1.035 11.356.216 3.342.109 1.47.271 3.287.279 3.71-.008 2.22.395 2.332.813 1.172 3.461 3.117 1.796 2.114 1.739 2.667 1.521 2.428.07.445-.155.311-1.293.897-4.468 1.965M188.799 298.915l2.013-.39.805-.086 1.317.255 1.47.163.59.282.503.573 1.75 4.849 1.424 2.52 3.349 6.084 1.603 2.298.67.318.662-.15 1.172-.614 1.24-.335 1.99.106 1.556.685 1.448.912M216.898 331.072l-1.835-4.46-.728-2.615-.372-4.623-.588-1.724-1.014-1.265M232.133 309.746l-2.292-3.569-2.103-4.8-2.157-.122-.783.393-1.213 2.339-7.495 8.909-1.213 2.067-1.888.443-.628.979M326.407 254.532l-.191.83M327.802 246.951l-.165 2.061-.178.848-.727 3.21-.325 1.462M317.963 254.105l1.586-.208 5.533.422 1.325.213M284.636 267.886l-1.095 1.002-4.351 4.248-.21.77.117.714 1.285 6.249.326 2.417.665 2.7.79 3.873 1.022 4.008.325 2.862-.2.548-.404.378-1.188.414-1.53.279-3.995 1.031-7.951 2.856-5.575 1.371-3.957.82-5.071.75-.48.155-.365.304-.302.777-.224 1.011-.287.594-1.754 1.48-4.363 3.107-2.803 2.106-2.942 2.573-.758 2.12-.016 1.78 1.413 4.415-.082.565-.487.428-1.812.05-3.616.345-4.654.983-5.551 1.618-3.492 2.029-1.084.714-.79.134-.612-.269-1.68-1.123M334.335 174.175l-.434 1.71-1.022 4.087-1.502 8.242-1.44 10.477-.495 5.117-.604 4.765-.574 6.121.032 1.668.386 2.687 1.208 4.424.775 3.534.248 3.761.263 2.601-.48 2.587-.79 2.588-1.226 5.26-.878 3.147M450.516 402.71l-7.755-5.416M450.516 402.71l1.044.753M457.838 399.384l-.933.403-1.58.671-2.775 1.233-.93.455-1.104.563M451.56 403.463l-.21.5M456.812 405.624l-1.718-.508-1.866-.785-1.668-.868M369.96 408.726l.059.437M367.22 412.267l.43-.785.413-1.123.298-.615.229-.22.255-.155.331-.137.784-.506M367.22 412.267l-.426.572-.829 1.209-.736 1.166-.66 1.052-.711 1.047-.402.77-.309.853-.058 1.42.089.737.162.62.317.995.651 1.396.361.873.336 1.17.108 1.35-.178.89-.797 1.646-1.48 1.979M624.641 457.323l-.38 5.937.015 1.286-.123 1.13-.434 1.272-.991 2.29-4.197 6.09-1.812 2.516-.913.89-2.431 1.372-3.5 1.738-3.268 1.851-3.748 1.54-2.446.961-2.075 2.234-1.642 3.052-1.146 3.561-2.137 4.042-1.084 3.731-.371 4.607.898 3.165 1.796 6.84.31 4.07-.62 3.024-2.942 6.699-3.22 7.376-5.297 13.255-3.81 8.45-2.942 7.094-4.924 12.746-3.407 8.083M430.553 420.385l.225.477M434.323 424.727l.446-.036M430.778 420.862l.502 1.064 1.24 1.823.665.65.422.122.716.206" clip-path="url(#pdeec691678)" style="fill:none;stroke:#000"/><path d="m431.92 424.825.24.106.797.092.743-.05.623-.246M434.77 424.69l.195-.366M435.802 427.614l-1.331-.727-.249-.39-.061-.6.217-.621.391-.585M437.424 426.655l-.882-1.017-.426-.333-1.347-.614M434.965 424.324l.55-1.026M432.054 420.661l1.174 1.98.98 1.32.247.226.51.137M432.054 420.661l-1.276.201M435.516 423.298l-.45-.261-.24-.138-.259-.233-.945-2.043-.12-.11-.24-.057-1.208.205M435.938 416.154l.054.487.333 2.368.38 1.222.007.41-.14.65-1.056 2.007M435.938 416.154l-.511-.057-.41.021-.65.078-1.469.373M422.931 410.244l1.69 1.548.248.142 2.09-.1.434.071.17.227.187 1.498.143.248.368.14 3.282-.43M542.712 477.866l-9.058 3.483-8.208 3.166-3.918 1.823-1.967 1.046-.712.113-.887-.277-4.61-4.147-2.204-1.506-2.953-1.871-.34-.594-1.538-9.237-1.3-11.645-.806-7.293-.558-10.345-1.672-6.332-1.672-3.787-6.628-12.608.309-1.3 1.55-.791 1.423.226 1.363.565.805-.396 1.24-1.47.99-2.374v-1.526l-3.778-6.559.124-.621.929-1.979-.31-1.47-2.044-4.523" clip-path="url(#pdeec691678)" style="fill:none;stroke:#000"/><path d="m542.712 477.866-.309-.113-.147-.17-.736-1.13M560.25 470.676l.155-.322.445-.58 1.32-1.83.721-.968.538-.56.538-.33.577-.234 3.655-.735 1.072-.098M572.302 465.532l-.449.037-1.506-.465-1.076-.085M570.688 462.1l-.418.131-.453.354-.244.314-.19.513-.112 1.607M584.277 452.519l-.798-.368-.557-.48-.28-.6-.185-1.216-.085-1.42.178-1.428.403-1.343.898-3.138.124-.819-.008-.438-.17-.311-.744-.424-2.09-.438-2.524-.572-.86-.305-.99-.466-1.158-.7M624.641 457.323l-26.04-2.451-4.445-.622-4.034-.566-3.236-.614-2.61-.551" clip-path="url(#pdeec691678)" style="fill:none;stroke:#000"/><path d="m572.302 465.532.825-.273.728-.297 1.463-.84 2.13-1.237.642-.53 1.161-1.293 1.185-1.739.767-1.455.561-1.91.198-.662.542-1.117.62-.897 1.153-.763M299.206 463.867l18.9 3.364 6.117 1.173 3.631.572 1.936-.07.875-.269.418-.17.519-.438M298.997 329.957l-.59-.412-.638-.565-.298-.35-.244-.45-.039-.487M288.705 310.014l3.284 4.764 1.146 2.151M293.553 308.342l2.458 3.257.376.36.327.108.469-.105.455-.426.964-1.194.27-.006M296.27 305.776l.566.983.844 1.484 1.192 2.093M302.899 306.837l1.54 1.271 1.541 1.103.442.354M301.842 297.828l.911.946.434.382.419.41.893.706M320.018 298.312l-.838-.97M314.826 294.293l.198.125 1.1.834 1.672 1.661.953.693 1.27.706M310.297 292.344l-1.6-.725-1.447-.276-1.773-.297-.882-.29-.651-.43-.624-.39-.808-.116-.875.015-.678.247-1.069.223-1.114-.149-.802-.141-.898-.163M315.79 294.088l.872 1.001M315.79 294.088l-.964.205M324.647 269.323l-1.205.47-4.452 1.458-.306.365-.187.493.094.664.774 1.393 2.7 7.779.047.386-.118.3-5.845 9.257-.376.9-.046.75.063.55" clip-path="url(#pdeec691678)" style="fill:none;stroke:#000"/><path d="m318.013 292.524 2.152-1.096.899-.593.356-.29.596-1.11 1.316-2.184 1.046-1.605 1.378-1.816.952-1.251.233-.382.534-1.979.03-.6-.077-.714-.48-1.909-.96-3.675-.836-2.63-.505-1.367M323.34 265.623l-.008.515v.382l.086.34.27.565.96 1.898M344.553 301.298l.43-.696 2.002-2.677" clip-path="url(#pdeec691678)" style="fill:none;stroke:#000"/><path d="m346.312 293.565 8.991 5.179 1.177.749.155.24-.078.325-1.533 2.029-.24.155-.294.021-.55-.176-6.955-4.162" clip-path="url(#pdeec691678)" style="fill:none;stroke:#000"/><path d="m344.497 296.27.109.18 2.38 1.475M335.708 305.183l.457-.37M340.99 300.635l-4.825 4.177M340.99 300.635l-3.837-.76M344.553 301.298l-1.961-.38-.808-.186-.793-.097M344.497 296.27l.039-.23.109-.162 1.667-2.313M341.69 280.515l-.247 1.286-.488 2.008.031.756.178.396.372.58.666.996.465.954.627 1.364.433 1.174.34.72.45.524 1.03 1.25.765 1.042M355.363 335.287l-2.724-3.94-2.679-3.604M360.328 314.038l-1.304 2.577-1.247 2.378-1.444 2.672-1.685 2.388-.874 1.347-.318.392-.306.216-3.19 1.735M355.363 335.287l2.232 3.227 4.926 7.006 2.434-.11.553 5.485M337.875 328.116v4.263M342.489 385.075l4.109 3.104M370.019 409.163l2.46 2.448.654.672 1.45 1.66.84.914 1.185 1.063.857.728.348.56 1.104 1.063 3.883 3.562M366.91 427.468l-.156-.975-.232-1.456-.937-2.502-.238-.777-.071-1.067.007-.474.17-.487.85-1.442 1.156-2.22 1.307-3.126.683-1.848.57-1.93M356.312 421.327l-.064.94M361.683 424.754l-1.053-2.233-.116-.205-.244-.154-3.958-.835M354.815 427.298l.17-.933.123-.953.457-1.288.497-1.426.186-.432M360.6 433.157l.425-.863.131-.904-.046-.58-.147-.395-.488-.601-1.455-1.64-.55-.869-.852-1.427-.434-.926-.48-1.322-.456-1.364M438.84 394.525l2.643 1.909M438.84 394.525l3.78-8.116M441.483 396.434l1.278.86M450.595 392.261l-4.042 1.866-5.07 2.307M442.761 397.294l12.48-5.683M469.015 422.26l.148-.672.097-.792.016-.981-.35-1.189-.607-1.257-.625-.95-.854-.753-.983-.616-2.261-.616-.628-.167M450.831 411.016l.52.566 1.362 1.042.747.43 1.684.384 3.25.26 2.664.313 1.91.256" clip-path="url(#pdeec691678)" style="fill:none;stroke:#000"/><path d="m457.19 421.201 4.555-5.295 1.223-1.639M469.015 422.26l-.247.621-.72.997-1.68 2.127M463.89 426.289l1.85-1.676 1.2-1.513.52-.749.216-.158.178-.032.724.077.437.022M579.213 342.433l7.735-.407 5.033-.332 8.865-.452M626.588 359.654l-2.118-3.91-2.083-4.184-1.672-3.11-1.254-2.176-.736-.827-1.03-1.223-1.262-1.053-1.347-.805-1.379-.672-1.34-.381-2.058-.305-2.354-.091-4.213.113-2.896.212M598.5 364.763l.566-1.343.402-.877-.03-.707-.248-.58-1.301-1.512-.813-1.448-.535-1.477-.24-1.372-.363-1.017-1.355-2.403-1.572-2.77-1.061-2.205-.186-1.202.039-.53.14-.368.797-1.081.286-.212.604-.141 3.771-.227 2.47-.162.48-.148.317-.325.155-.573.023-.84M347.545 362.077l1.695 1.986.09.169-.04.226-.085.17-.476.233-.693.308M457.912 238.459l.65 3.71M605.049 300.443l.32.18.906.665.402.375.778 1.023.9.924 3.332 2.569 1.293 1.01.878.902 1.22 1.834 1.835 2.007 1.944 2.113 2.586 2.573 2.074 2.234 1.01 1.71 1.02 2.714.65 2.064.464 3.095.388 2.502.123.431.798 1.838.589 1.42.162 1.124-.093.99-.296 3.96-.19.952-.722 1.915-.534 1.491-.387 1.57-.108.82.007 1.074.356 1.455 1.59 7.345.011.664-.103.398-.398.535-.637.533-.629.202M591.462 361.737l.526 1.498.264.665.828 1.123.442.474.279.148.255-.035.232-.155.922-.905.433-.219.705-.148.713.063.758.184.68.333" clip-path="url(#pdeec691678)" style="fill:none;stroke:#000"/><path d="m601.652 372.664-1.704-.976-1.114-1.13-.837-1.287-.402-.75-.047-.918.217-.749.526-1.597.208-.494M605.049 300.443l-2.143-1.212-3.755-2-4.84-2.311-.349-.184-.487-.254-.395-.354-.263-.346-.464-1.393-.279-1.948-.736-4.766-.765-5.326-1.279-7.567" clip-path="url(#pdeec691678)" style="fill:none;stroke:#000"/><path d="m626.762 262.887-3.678.912-2.64.452-3.701.672-2.006.608-.813.106-1.393.134-1.162.318-.681.255-.728.169-1.735.212-.688.085-.395.17-1.232.629-2.075 1.173-.758.353-3.206.962-3.066.72-3.562.934-2.447.523-1.502.508M626.762 262.887l.852-.163h.774l1.077.205 1.866.262M426.274 178.706l3.78-.827 6.782-1.074 4.677-.848 1.912-.163.844.205.844.424.705.198.782-.028.666-.262 1.354-.799M405.09 143.919l2.199 2.545 4.63 5.231 4.088 4.75.759 1.103.79 1.47.263.792.279 2.037.201 1.569.697 1.894.806 1.442 1.362 1.838.743 1.57.992 2.39 2.586 4.778.789 1.378M495.187 178.12l2.028 2.756.388 1.202.34 1.88.016.538-.109.141-.163.064-2.067.233-8.323 1.096-9.834 1.56M490.401 172.634l2.664 3.365 2.122 2.12" clip-path="url(#pdeec691678)" style="fill:none;stroke:#000"/><path d="m515.628 131.349 3.198 1.294.209.183.062.248-.418 1.258-1.015 2.602-.185.304-.302.233-1.085.389-1.362.332-.844.262-.635.445-.875.736-1.192 1.442-.458.685-.185.53-.21.948-.131.657-.201.46-.906 1.166-1.742 1.852-.705.771-.441.65-.58 1.393-.35 1.103-.2.403-.458.48-2.136 1.796-2.896 3.082-1.348 1.782-.588.82-.248.65-.232 1.796-.109 2.94-.077.538-.31.933-.216.665-.155 3.52v5.175l-.093.75-.202.522-.82.975M458.562 242.17l.682 3.852 1.254 7.309.62 4.835M463.727 245.669l-3.183-2.064-1.37-.976-.612-.46M560.25 470.676l-3.202 1.57-4.47 1.988-1.89.635-1.185.276-2.16.6-.976.36-.882.587-1.363.63-.813.36-.597.184M560.25 470.676l-.03.3-.093.784-.295.7-.464.678-1.75 2.184-1.34 2.24-.774 1.978-.682 1.032M489.382 354.364l1.804.318 2.622.059 1.828.339.402.212.124.31.062.34-.108 1.032-.17.24-.79.565-.542.453-.155.36.023.318.225.58.828 1.943.256.432.355.169 1.75.466.473.262.372.304.131.29.388 1.95.572 1.697.992 2.303.293.516.287.254.356.121 1.913.565 1.34.862 1.51.955 2.253 1.23 1.355.833M477.992 359.434l1.476-.51 4.32-1.851 5.594-2.709M513.788 345.854l-2.566.206-3.987.709-4.043 1.187-3.143 1.286-4.614 2.191-6.053 2.931M445.277 359.649l-1.937-7.99M461.072 361.453l-3.361-.323-9.988-1.188-2.446-.293M517.544 345.575l-.878.049-2.878.23" clip-path="url(#pdeec691678)" style="fill:none;stroke:#000"/><path d="m525.074 305.374.604.162.643.488.302.374.1.205-.07.226-.572.856-1.239 1.66-1.44 2.043-.65 1.053-.682.728-.867.693-.635.65-.166.325-.016.272.046.262.233.36.82.841 1.394 1.096 2.215 2.007.906.922 2.202 1.986.225.24.465.99 1.146 2.983 1.115 2.883 1.385 3.252.844 1.929.17.756.102 1.11v1.9l-.101 2.892-.116.755-.225.319-.294.219-1.472.17-4.196.162-4.088.212-3.097.148-2.71.361-1.712.31-.232.142-.34.396-1.283 1.142M355.66 349.749l-1.108.815-.885.485M334.289 355.01l3.267-2.107 1.812-.777 2.075-.636 2.85-.382.975-.07.557.14.635.354.264.48.294.778.325.325.852.128.697-.156 1.455-.382 1.209-.466 1.285-.764.826-.426M344.499 398.233l-.128.2-2.807 3.975M332.043 404.931l1.61.114 1.441-.114 1.238-.381 1.967-.608 1.24-.494 2.025-1.04M340.545 389.935l.743.961 1.053 1.386.542 1.031.34 1.145.032.58-.17.508-.69 1.032-.828.877M326.035 394.6l.85-.366 1.377-.269 2.07-.246 2.7-.093 3.097-.113 1.24-.34 1.114-.848 1.387-1.49.675-.9M326.035 394.6l-.116.162.015.19.124.192.898.742 1.61.961M344.499 398.233l.978-1.537 1.218-2.222.555-1.107M357.47 407.016l-3.174 3.781-.828.982-.055.332.086.333.186.219 2.872 1.54.612.233.356-.085.194-.162.2-.918.079-1.082.038-.805.155-.672.109-.296M357.47 407.016l-5.416-3.719M352.054 403.297l-1.982-1.368M352.054 403.297l-4.386 5.027M337.58 401.384l2.183-1.873.588-.403.604-.247 3.544-.628M337.153 299.874l-.285 1.448-.658 2.375-.071.644.026.471M344.861 314.135l2.289-1.878.402-.296.21-.092.208.02 2.323 2.185M340.163 314.361l3.99 4.045.58.39.272.013.139-.042 1.069-1.513.503-.784.03-.24-.115-.283-1.77-1.812M325.122 296.95l2.128.444 5.614 1.045 3.05.502.31-.035.264-.155.425-.7 1.301-1.937.496-.523.356-.212.294-.05.527.128 1.107.17.356-.057.836-.219.945-.043.232.12 1.134.842M341.69 280.515l.93.255 2.052.148 2.075.028 1.65-.12 1.207-.212.937-.332 1.006-.212 1.464-.042 1.247.028.96.226.665.035 1.325-.127 1.928-.403 1.657-.509 1.332-.636 1.285-.445 1.239-.474.456-.46.302-.374.387-.24 2.138-.968 1.006-.481.643-.064.828.07.674.397 1.394 1.145M331.815 278.876l2.985-.057 2.09.014.836-.028 5.049-.368 4.847-.495 2.307-.141 3.113-.156 3.376-.607M331.815 278.876l-1.429.148M326.124 255.762l-.515 1.81-.294 2.106.185 2.623.41 1.392.48 1.11 1.82 3.66 2.13 5.168.774 2.106.527 2.488.174.65M316.662 295.09l1.929 1.877.59.374" clip-path="url(#pdeec691678)" style="fill:none;stroke:#000"/><path d="M318.013 292.524v.742l.1 1.116.194.728.542 1.534.331.697M318.013 292.524l-.867.473-.41.396-.132.396.058 1.3M326.124 255.762l.092-.4M317.61 261.05l1.688-.192 1.177-.395 1.053-.63 1.084-1.038 1.804-1.633 1.708-1.4M284.636 267.886l6.106-5.592 1.572-1.054 2.71-.99 3.709-.989 2.664-.728 4.034-1.067 7.997-2.2 3.791-1.011.744-.15M315.907 250.002l.875.155.302.198.093.162.402 1.478.384 2.11M314.826 294.293l-.499-.313-1.355-.51-1.468-.605-1.025-.426-.182-.095M307.506 286.113l.31 1.124 1.064 2.544 1.073 1.965.344.598M284.636 267.886l.803.931 1.254 2.556 2.052 4.1 1.138 2.18.155.374-.023.523-.093.785.661 3.912.086.34.232.162.98.236 1.223.128 1.146.31 2.114.432 1.772.226 2.161.325 1.793.251.86.184.626.424.496.205.91.078 1.277-.152 1.247-.283M310.881 285.682l-2.26.297-.674.06-.441.074M308.74 295.637l-.313.386-.248.367-.406.845M415.646 295.663l.319.169 1.944 1.279 2.992 2.17" clip-path="url(#pdeec691678)" style="fill:none;stroke:#000"/><path d="m426.576 295.4-2.214 2.276-1.2.665-.983.34-1.278.6M444.286 242.16l-.017 1.105M444.269 243.265l.24.446.503 1.328.295.933-.008.665-.07.7.062.247.294.198 1.1.466M334.335 174.175l7.65.622 9.168.848 8.827.792M378.462 261.911l.132-.176.038-.226.07-1.145-.14-.806-.2-.29-.225-.12-.62-.17-1.107-.219M368.9 265.87l2.338-.608 3.685-1.64 3.237-1.526.302-.185" clip-path="url(#pdeec691678)" style="fill:none;stroke:#000"/><path d="m368.9 265.87 1.78.297 1.634.177 2.184-.191 1.95-.163 1.046-.304.434-.268.619-.905.217-.905-.016-.834-.286-.863M326.216 255.362l5.517.146 6.38-.481 4.817-.297 3.794-.254 5.157-.608 1.44.014 1.114.184.899.523 1.843 1.922 2.415 2.234 1.766 1.626 1.208 1.625 1.44 1.456 1.719 1.103 1.673.848 1.501.467M355.363 335.287l1.628-.9.635-.524.51-.82 1.1-2.53 1.038-2.304M400.762 406.726l.48-.692.519-.778.255-.254 1.007-.332 2.43-.827 3.222-.932 4.065-1.153 1.502-.452.349-.05.402.093.672.218M431.92 424.825l-.365.961-.27.932-.217.524-1.023 1.307M430.595 423.143l1.185 1.519.14.163M450.831 411.016l-.213-.421-.453-1.102-.12-.678-.112-1.117.004-.498.333-1.095.999-1.95.08-.192" clip-path="url(#pdeec691678)" style="fill:none;stroke:#000"/><path d="m448.396 408.168 1.061-1.724.836-1.611.349-.53.27-.184.438-.156M450.831 411.016l-1.537 1.873-.902 1.095-.151.064-.209-.035-1.204-.548M459.112 348.952l.744.262 1.022.156 1.192-.008 1.525.043 1.015.219 2.222.806 1.007.833.278.523.233.89.17 2.192-.263 1.343-.372.495-.387.183h-.341l-.898-.056-2.772-.453M461.072 361.453l.726.07M459.112 348.952l-1.03-.014-.565.205-.131.22-.023.685.24 2.367.355 3.499.186 1.201.264.693.51.551.976.502 1.301.445.496.488.124.388.015.248-.108.205-.65.818" clip-path="url(#pdeec691678)" style="fill:none;stroke:#000"/><path d="m459.073 340.832-1.34.325-.262.205-.093.318.023.177.31 1.215 1.084 3.548.263 1.499.054.833M522.361 345.307l.963.74 1.27.595 1.208.607 1.425.834 1.967.664 4.134 1.018 2.555.594 1.224.706.232.368.093.665-.14.678-.433.834-2.199 2.247-.704.75-.264.424-.008.226.225.233.256.149.999.204.712.17.619.46.465.756.255 1.476.047.898M522.361 345.307l-4.817.268M579.213 342.433l-23.043 1.212-13.302.509-12.219.692-8.288.46M570.688 462.1l.224.587 1.39 2.845M568.651 459.769l1.433 1.392.604.94M411.877 337.621l-6.214 1.006M405.427 327.586l.135 2.228.333 1.64.372.932.79.99 3.298 3.038 1.522 1.207M405.427 327.586l-1.01-16.58M392.167 329.905l-.054 2.39.085.126.224.156.627.085.713-.07 1.889-.319 1.711-.395.581-.283.457-.396.224-.488.272-.72.518-.58.674-.53.929-.48 1.58-.425 2.83-.39M517.544 345.575l.33 2.522.27 1.838.365 1.59.224.502.325.332.565.474.736.332.921.24.287.156.054.169-.209 1.166-.07.417.031.36.178.248.736.678 1.362 1.23.713.431 2.044.764.697.381.45.396.216.41.17.82M396.758 309.373l.969-.586.72-.24.89-.114.883.072 1.123.494 1.95 1.322 1.125.685M421.053 320.786l1.195.044.604.227.883.48.836.714.883.813.348.488.256 1.095.24 1.23M421.053 320.786l.512 7M421.565 327.786l3.207-.1.775.128.449.268.108.537-.015 3.675M424.116 350.428l-5.43-.903M418.686 349.525l.667-1.117.743-.65 1.378-.283 1.254.184.759.664.465 1.244.164.86M423.828 353.836l.387-1.583.016-1.23-.115-.595M418.686 349.525l-1.153 3.265M417.533 352.79l.83-.334 1.382.173 1.566.401 2.517.806M477.992 359.434l.78 1.823.154.862v.65l-.34.679-.418.466-1.007.791" clip-path="url(#pdeec691678)" style="fill:none;stroke:#000"/><path d="m461.798 361.522.915.088 4.506.099 3.221-.254 4.026-.806 3.526-1.215M459.383 367.59l.372-1.06.542-.977.883-2.19.618-1.84M350.072 401.93l-1.134 1.518-.612.728-.418.254-.41.12-3.174.106-1.44.014M314.731 323.625l-.973.403-.41.202-.147.12-.055.184.059.226M411.432 312.351l.115-1.359.357-1.145.728-.735.99-.269 2.835-.225M413.637 331.186l.52-.623.457-.545.627-.353 1.277-.191 1.208-.12 1.053.148 1.084.538.21.297.116.29-.186 1.681M415.646 295.663l1.337.275 1.293.155.93.07.348-.105.27-.198.241-.233.643-1.506.309-.72.658-1.224.635-1.102.232-.552-.015-.551-.557-.876-.45-.89-.03-.382.2-1.287.388-1.329.433-.495.496-.395h.728l.944.466 2.726 2.036 1.657 1.4 1.115.706.62.679.743.918.51.969.055.389.108.431.163.148.41.198M579.213 342.433l.851 1.353.31 1.456.527 2.827.294 2.982.155 1.824-.604 4.565-.17 1.202-.728 3.223-.774 2.544-.07.438.03.268.163.184.279.191 1.069.678M303.517 383.772l-.734.285M299.755 375.55l.026.11M299.78 375.66l.2.714M283.08 380.808l-.074-.76M283.006 380.049l-1.842.035-.28.261.046.269.126.254 2.025-.06M283.08 380.808l2.006-.014M285.086 380.794l-.143-.583-.112-.088-.179-.06-1.646-.014M103.782 115.131l5.636 2.49M115.399 116.113l.4 1.62-1.673.679h-2.23l-2.478-.792M232.855 585.85l-1.983-2.79-.413-.958-.464-1.381-.964-1.272-.55-.424-.516-.141-.551.047-.516.236-.43.502-.413.973-.14.716v1.175l.456 1.138 1.455 1.706.956 1.82 1.37 2.767 1.33 4.209.665 4.246-.113 3.603-.374 2.085-.789 1.82-1.579 2.085-1.454.948-1.496.797-1.413.606-7.444 1.592-1.08.114-5.402-.569-1.538.152-1.454.341-1.413-.075-4.405-.683-1.745-.341-8.346-.304-13.737-.837" clip-path="url(#pdeec691678)" style="fill:none;stroke:#000"/></g><g id="PatchCollection_1"><path d="m362.093 353.23-.131-.37-.156-.141-.216-.763h-.217l-.371-.029-.334.115-.247-.085-.194-.2-.24-.224-.279.085-.162.224-.248-.028-.279-.198-.371.057.093.283.123.31.031.283.1.143.024.31.186.141h.217l.31.141.317.228.27.225.288-.056.27.027.403.227.155.169.38.2.402-.085.178-.143.124-.17-.24-.338zM326.066 359.42l.279.34.31.338.371.255.34.34-.247.168v.17l.527.085.433.17.124.283-.03.31.34.142.495.113h.217l.186.17-.279.197.557-.282.31-.057.186.085h.248l.34-.113.606-.242.496-.367.62-.425.928-.423 1.022-.538.898-.424.572-.239.574-.298.355-.324.481-.157.696-.436.681-.17.682-.198.712-.028.636-.072.727-.041.681.056.62.283.65.113.681.31.682.34.34.34.589.226.464.34.775.536.588.594 1.27 1.017.589.65.433.707 1.177 1.358.155.282.34.368.558.424.681.593.434.396.217.65.031.82-.31.735-.402.509-.713 1.046-.744 1.13-.525.51-.527.367-.663.186-.824.21-.557.198-1.022.282-.465.198-1.084.82-.62.452-.464.311-1.208.452-.65.453-.868.028-.464.254-.465.481-.186.396-.433.791-.186.396-.34.311-.31.368.215.496.421.025.402-.452.479-.776.31-.622.296-.383.385-.465.358-.129.788-.154.775-.396.898-.197.512-.214.558-.311.465-.396.602-.55.636-.41.403-.283.447-.211.496-.113.513-.044.278-.255.355-.153.186.169.388-.128.417-.268.774-.396.155-.367.248-.508.34-.34.465-.34.575-.637-.265-.295.062-.34.217-.028.233-.128.217-.424.155-.565.2-.38.279-.34-.124-.764-.65-.678-1.364-1.159-1.176-2.091-.837-.877-.774-.735-.898-.51-.526-.593-.682-.283-.588-.593-.775-.565-.867-.255-.681-.678-.837-.679-.836-.31-1.239-.368-.99.057-.837.31-.743.085-.372-.197-.34.169-.187.198-.247.141-.31.255-1.084.452-.527.198-.185.31-.341.17-.434.029h-.371l-.434.226-.434.113-.402.226-.527.48-.495.396-.589.566-.898.31-.62.114-.526.056-.681-.283-.681-.395-.62-.396-.496-.707-.681-1.159-.867.735z" clip-path="url(#pdeec691678)" style="fill:#00f;fill-opacity:.8"/><path d="m325.818 358.656.007-.244-.131-.35.124-.31.07-.612-.248-.17.062-.48-.101-.519.039-.471v-.367l.178-.406.1-.612.031-1.3.248-1.131.217-.594.062-.933.248-1.498.085-.773.248-.763.34-.82.28-.396-.063-.679.155-.65.039-.584.093-.565v-.82l.178-1.225.124-.396.093-.452-.31-.17.131-.499.062-.82-.225-.773.009-.838.402-1.244.643-.632.743-.594.565-.527.364-.292.472-.245.395-.01 2.2.791 2.136.905 1.123.604.736.556.836.48.906.49 1.107.67 1.641 1.158.72.519.736.386.65.31 1.208.764.566.321.023.244.372.114.348.207 1.015.556.774.537.712.254.65.283-.426.745-1.176-.65-.906-.264-.364-.528-.743-.283-1.394-.791-2.416-1.442-3.26-2.074-2.322-1.271-1.758-.867-.752-.35-.797-.385-.69-.463-.928-.197-.743-.028-.527.225-1.022.933-.333.548-.163.612-.31 4.523-.278 2.544-.526 2.149-.62 1.696-.209 1.96-.34 2.064-.35 2.535-.154.621-.062.679v.706l.124.764.155.565-.867.735zM309.991 258.039l.875.519.279.113.456.16 3.965 2.29-1.386 1.169.147.188-.62.508.28.255-.31.48-1.828 2.602-.27-.132-.248.142-.07.187-.271.04-.248.14.085.216-.27.095-.287-.236-.271.038-.28-.085-.378.302-.457.264.31-.51-.318.076-.34-.028-.342-.085.125-.565-.271-.076-.372-.056-.256-.293-.495.425.062-.425-.062-.31.193-.189-.255-.208-.023-.385.178-.265.007-.273-.154-.452.217-.17.123-.339.147-.293-.302.01.341-.537.186-.565.372-.34.302-.575.07-.358-.349-.094-.062-.311.194-.216.27-.208.682-.763zM337.935 380.264l-.402.311-.442.244-.185.396-.558.509-.558.565-.433.34-.341.028-.302.208-.193.357v.283l.503.942.023.726.186.17.31.508.31.48.588.877.279.368.216 1.356.145.694-.08.56-.008 1.133-.55.78-1.858.284-1.487-.114-3.84-.678-3.655-.565h-3.469l-2.276.915-3.284 1.697-2.044 1.809-3.175 2.872-2.4 1.99-1.734 1.074-.759.893-.83.574-1.57.173-1.312.092-.81-.33-.929-.735-.852-.045-.68.283-.76 1.12-7.371 9.44-.923.461-1.549 1.046-1.889 1.894-2.106 3.477-2.88 4.324-2.293 3.364-1.176 2.29-.155 1.159-.186 1.216-.155.763-.527 1.582-1.362 2.6-.403 1.302-.774 2.232-1.332 2.912-2.26 6.134-.713 1.582-.713.905-.123.508v.312l.247.508-.124.735-.433.452-.496-.028-.465.255-.154.622-.031.621-.217 1.414-.062.904-.155.99-.185 1.554-.217.622-.465.31-.464.255-.899-.254.774-1.724.868-2.629.712-2.968.65-2.007.775-1.61.898-1.414.65-1.753.341-1.102.65-2.261.31-.622.372-1.3.805-1.358.526-.989-.216-.254.31-.367.124-.453.371-.763.898-1.385.744-2.035.62-1.866.463-1.017.093-1.216-.061-.509.31-.678.03-.565.31-.82.248-.707.31-.254.557-.82.65-.99 1.115-1.921.867-1.244 1.24-1.413.68-1.3.744-.849.682-1.102.124-.594.712-.424.217-.707.495-.678.837-.876.774-.735 1.362-1.074.62-.961.279-.283.65-.763.62-.622 1.084-.735.743-.735 1.084-1.3.681-1.16.557-.876.372-.339.28-.424.309-.396.464-.396.527-.508.34-1.244.674-.49.372-.311.557-.227h.496l.836.142.34.31.31.255.31-.056.496.113.557-.113.868-.085.557.198.248.226.898-.311.503-.244-.008-.66.504-.217.364-.066.75-.245.614-.152-.001-.423.247-.226.434-.227.44-.244.404-.311.55-.688.34-.31.681-.51.566-.33.488-.49.317-.499.434-.48.31-.227.363-.066.1-.386.55-.18.59-.536.286-.075.27-.236.163-.188.465-.226.31-.255.426-.066.278-.198.287-.301.55-.208.534-.357.557-.34.767-.547.619-.339.844-.273.704-.123.775.114.96-.114.743-.056h.434l.558.17.557.056.41.095.364.244h.496l.681-.113.217.085.403.226h.34l.341.254.372.113.495-.113.217.227.433.028.434-.085.713.085.503.208.426.046h1.238l.806-.48.38-.358.208-.49.163-.725-.155-.679-.131-1.027-.28-.509-.96-1.272-.425-.584-.1-.632-.063-.311-.209-.442-.1-.547-.086-.386.085-.292.256-.132.24-.264.132-.33.27-.18.473-.216.34-.198.334-.066.186-.254.224-.555.147-.293.813-.64.643-.265h.898l.41-.075.396-.207.215.496.421.025-.265.27-.403.226-.34.085-.303.547-.069.188-.178-.244z" clip-path="url(#pdeec691678)" style="fill:#00f;fill-opacity:.8"/><path d="m265.193 462.584-.536.9-.62 1.667v2.149l.123 2.204-.124 3.448.434 1.357.371.961-.495 1.3-1.053 1.018-5.327 2.374-1.92 1.357-3.283 1.64-1.425.395h-2.168l-1.735-.283-1.239.057-2.292.565-2.23.622-1.053.791-2.54.566-3.592 1.356-2.973.735-1.3-.17-1.86-.056-2.105.283-1.866-.485-2.048.138-4.758 1.364-4.522 2.205-5.39 2.261-2.787 1.583-1.858 1.752-1.735 2.544-1.982 4.07-2.849 2.77-2.416 1.583-1.858.96-3.098.227-2.849-.227-2.292.114-2.91.734-1.116.735-.372.961-.433 1.075-.192 2.362.31 2.826 1.61 2.035 6.2 5.382 2.968 1.91 4.026 1.3 3.475 1.425 4.274 2.826 2.224 2.476 7.247 8.253 4.956 5.313 7.31 7.066 4.21 4.804.992.905 4.77 8.93 1.734 4.635.812 1.424 1.108 1.741.124.735 2.788 4.578 1.511 2.165 2.205 2.131 1.431 2.272 1.11 1.797.309 1.752-.496 1.244-1.239 1.13-1.672 1.64-1.357 1.085-1.12 1.684-1.363 2.374-.186 1.526.371 1.582 1.797 1.47 4.522 1.187 4.212.848 1.43.69.8.723.123.508.682.735.805.848.186 1.3.062 4.182-.248 3.052-.99 2.148-1.983 2.373-2.534 1.199-1.554.102-2.045-.622-1.61-.96-1.425-1.583-3.029-1.685-3.221-1.356-3.29-.746-1.61-.226-1.418-.554-.62-.791-.687-.634-2.168-.225-1.796.508-1.611.904-1.487.905-1.047.293-1.616-.01-2.23.056-1.734.791-1.048.803-.563.78-.372 1.865.434 1.695.371 1.527.125 1.582-.682 3.73-1.301 4.917-1.115 2.939-9.91 14.072-1.177 2.035-.31 1.526.185 1.244.626 1.084.8.215 1.114.17 1.363.452 1.672 1.017.992.904 1.486 2.883 1.493 4.42.551 2.927.93 4.465.123 2.09-.557 1.64-.93 1.13-4.088 2.204-1.31.583-.76-.65-.262-.273-.765.396-.371.622-.248.678-.496.452-.681.678-1.24.735-1.734.904-1.982 1.187-1.3 1.187-1.487 2.712-.434 2.6.372 3.56 1.06 2.555.117 1.684v2.486l.372 1.017.185 1.187-.247 1.47-.682 1.582-.124 1.187v.847l-.371.678-.62.792-.434 2.034-.37 3.617-.063 5.425.496 3.447 1.238 5.538 1.859 7.063 1.796 5.425 2.732 6.623 2.472 3.719 2.043 2.938 3.221 5.538 1.425 4.35-.061 1.978-.558 2.826.372 2.034 1.982 2.091 4.466 2.667 5.885 2.43.867 1.13.365.892.062 2.035-.681 1.864-1.611 3.108-.867 5.255-.682 2.147-1.672 2.091-2.044 2.486-.929 1.865-.124 1.525-.186 3.108.991 8.532 2.298 5.323 2.41 5.413 2.168 4.238 1.982 4.407.31 1.3.062 1.75-.372 1.357-.743 1.639-.744 1.356-1.176 1.864-1.053 1.356-1.425 1.865-.248 1.186.495 2.769 1.425 1.808 2.794 1.989 5.073 2.304 4.708 1.583 1.988 1.084 1.61 1.243.558.904.304 1.065 1.177.225-.18-1.374-.96-1.639-1.524-1.31-1.765-1.187-1.55-.96-1.548-.537-1.548-.565-1.177-.537-1.115-.678-1.419-.554-1.059-.265-.93-.593-2.105-1.978-.768-1.825.093-1.638.551-1 .681-1.187.93-1.187.588-.988.44-1.204.805-3.249.583-2.44-.056-.809-1.24-3.136-.588-1.27-.495-1.413-.75-1.65-1.146-2.232-1.356-2.984-2.137-4.943-.744-2.289-.563-3.232-.985-3.887-.285-2.667.217-1.78.192-1.034.334-.944.44-.582.427-.689.502-.667.774-.82.954-.717 1.023-1.413.78-1.43.743-2.23.428-.945.68-1.808.162-1.062.582-1.113.72-1.232.123-1.159-.316-.83-.062-.678.006-.836.397-.69.006-.581-.1-1.594-.427-1.232-.873-1.339-.96-.622-1.456-.452-.898-.141-1.642-.424-2.137-.791-2.756-1.525-1.828-2.26-.922-1.854.03-1.64.125-1.27-.1-.972-.495-3.475-.774-2.741-2.478-4.153-1.605-2.871-3.846-5.52-.862-1.91-.687-1.934-3.493-11.714-1.214-3.91v-.989l.16-1.035-.006-1.028-.402-1.074-.707-1.401-.253-1.792-.242-1.599-.13-.66v-.877l-.093-.678.13-.356-.155-.339.031-.396.304-.322.192-.469.086-.52.125-.565-.186-.423.191-.555.217-.706.675-.35.286-.384-.13-.633-.15-.47.28-.65.117-.632v-.537l.155-.763.223-.667.149-1.198.656-1.74.242-.718.155-.509-.031-.79-.15-1.035v-.82l-.061-.96v-1.074l.273-.633-.217-1.554-.365-1.006-.093-.932-.193-.973-.18-.694-.433-1.074-.186-.707-.093-.819.15-.435.284-.3.118-.435.34-.283.589-.225.16-.441.273-.605-.154-.509.185-.423h.96l.316-.441.397-.83.465-.51.532-.384.527-.395 1.418-.266.682-.311.495-.48.465-.51.371-.423.372-.085.279.057h.371l.316-.215.273.046.285-.074.248.17.613-.04.403.085.491-.01-1.214-1.234.326-.808.527-.367 1.046-.322 1.493-.837 1.636-1.226.842-1.204.304-.858.433-2.007.062-1.893-2.416-10.06-.954-2.701-.192-.888-.365-.977.272-.35.899.112 1.332.057 2.384.141 1.028-.186 1.363-.876 1.202-.746 1.27-.226 1.084.254 2.726 1.413 1.61 1.074.712.734.713.933.588.367.65.226.434.113.464.283.218.31.44-.242-.565-.888-.582-.3-.657-.293-.433-.367-.49-.554-1.709-.972-.805-.622-1.208-.82-.837-.48-1.083-.537-1.053-.31-.836-.057-.682.141-.712.368-.867.536-.899.65-.65.312-.682.14h-.712l-1.208-.084-1.424-.141-.837-.114-.99-.395-1.023-.763-1.796-.933-.985-.243-.904-.096-.867-.198-.806-.254-.65-.537-.149-.836.248-.679.526-1.3.675-.83 1.462-1.6 3.277-3.995.558-1.017.563-.922.62-.734 2.91-4.55 1.172-1.735.65-1.667.589-1.837.006-2.08.774-2.091.459-1.283.223-1.006.123-1.583-.284-2.244.061-1.667.217-1.328v-.904l.28-.622.433-.565 1.022-.311 1.208.056.99.227 1.023.056.867-.141 1.858-.904 1.704-.904 1.61-.397 1.425.029 1.146.368 1.177.536 2.137.622 3.066.226.836.339 5.265 2.94.403.366 1.115.537.495.396.744.82.712.395 1.332.537 1.641.34.837.084 1.177-.226 1.827-.622 1.177-.82 1.115-1.187 1.982-3.277.471-1.091.155-1.498-.285-3.148-.18-1.402-.03-1.158-.125-1.272-.03-1.046-.249-.932-.371-1.018-.62-1.017-.594-.492-1.549-.424h-.681l-1.053-.198-1.27-.423-.96.056h-1.27l-2.757-.367-1.021-.424-1.14-.78-.372-.735.025-1.706.626-1.742.897-1.412 2.224-1.99 1.06-1.034 1.145-.65.28-.679.21-.887.279-1.102.03-.763-.836-2.007-2.136-3.306-1.45-1.713-1.24-1.3-3.25-5.002-1.587-3.063-1.604-3.352-.13-1.227-.465-1.159-1.17-1.542-.688-1.03-2.193-4.312-1.679-3.12-.303-.893-.155-.565-.47-.294-.713-.085-.588-.594-1.208-1.102-4.088-3.9-4.244-4.155-.434-.819-.18-.78-.433-.565-.935-.52-.867-.565-.65-.396-1.116-.961-.464-.679-.304-.808-.718-.802-2.998-3.041-4.955-5.936-2.144-1.876-1.394-1.13-1.486-.99-1.084-.622-.96-.367-.836-.198-.775-.31-.867-.481-.991-.311-1.202-.441-.873-.266-1.425-.622-2.261-1.695-2.633-2.092-1.3-1.356-1.425-.877-1.053-.96-.558-1.018-.148-1.487.278-1.046.65-1.158.373-1.16.681-.762 1.053-.48 1.239-.142 1.053.056.96.283 1.27.17 4.088-.82 1.673-.509 1.765-.678 3.283-2.092.96-.989 2.354-4.183.774-1.3.341-1.017.495-.848 1.518-2.007 1.084-1.017.837-.312 1.33.057.682-.17 1.828-.706 1.3-.933 1.487-1.357 1.27-1.187 3.562-1.272 3.623-1.243 1.735-.057.836.283 1.735.367 1.641-.225 6.752-.99 2.106-.565 1.394-.65 1.114-.368 1.24-.226.774-.113 1.208-.339 3.685-1.244 1.085-.113.68-.056.372.028.155.113.031.17.31-.113h.217l1.084.339 1.455.141 1.332-.368 2.943-1.413 1.765-1.526 1.89-1.526 1.176-.622.868-.283.743-.17 1.146-.593.774-.537.434-.537 1.021-.678.496-.735.496-1.78-.434-1.442-.372-2.007-.093-2.714-.34-1.837.03-1.667.342-.99.402-.848.31-.878-.898-.254zM128.379 384.863l1.148-.374 1.847.148-.027 1.156-.026 2.486-1.658-.665-1.012-.504-.471-.21-.03-1.3z" clip-path="url(#pdeec691678)" style="fill:#00f;fill-opacity:.8"/></g><g id="PatchCollection_2"><path d="m338.826 356.848-.031-.17.217-.396.743-.17.589-.056.495-.141.217-.368.496-.057.65.17.867.283 1.146.593.744.424.897.538.96.537 1.301.82.527.31.62.113.512-.354.434-.255.51-.07.34-.14.389-.468.416-.041.248.226.186.339.093.283v.283l-.062.282-.372.113-.217.227v.198l.31.367.34.198.125.791.216.509.217.622.248.537.248.368.433.113.465.085.434.056.278.367.186.283.372.255.31.48.186.679-.063.65.063.679.061.48.341.763.124.735.124.509-.186.226-.403-.141-.154-.31-.775-.227-.34-.283-.249-.31-.03-.65-.124-.765-.65-.678-.682-.593-.682-.566-1.176-2.091-.837-.877-.774-.735-.898-.51-.526-.593-.682-.283-.588-.593-.775-.565-.867-.255-.681-.678-.837-.679-.836-.31-1.239-.368-.99.057-.837.31-.743.085z" clip-path="url(#pdeec691678)" style="fill:#006400;fill-opacity:.8"/><path d="m341.18 375.957.574-.326.744-.142.99-.537.93-.395.155-.481.062-.622.417-.098.37-.028.42-.326.386.185.372-.085.791-.581.789-.521.543-.496.62-.481 1.517-.82.465-.48.371-.735.138-.663-.31-.82-.433-.678.358-.497.695-.041h.588l.434.396.217.65.031.82-.31.735-.402.509-.713 1.046-.744 1.13-.525.51-.527.367-.805.226-.682.17-.557.198-1.022.282-.465.198-1.084.82-.62.452-.464.311-1.208.452-.65.453-.868.028zM307.7 362.162l.216.141.186.283.712-.057.248.113.279.283.712.141.256-.103.146-.292-.023-.386.01-.745.534-1.313.85-.74.147.414.403.31.41.095.612-.01.371-.028 1.116-.057.31.057.309-.028.163-.471.178-.123.434-.368.131-.329.085-.293h.403l.31.312v.678l-.31.255-.124.14.062.453.403.424.34.085.434-.029.348-.498.34-.17.489-.066.31.141.123.395-.093.453-.96.707-.62.283-.278.282-.364.151-.62-.198-.565-.151-.588.34-.704.349-.713.282-.744-.085-.402-.14-.534.244-.465.367-.611.095-.597.047-.526.254-1.107.264-.596-.01-.488.152-.101-.434-.248-.255.279-.339.007-.386-.472-.32-.162-.27.14-.324zM341.221 416.074l-1.13.523-.793-.065-.755-.628-1.24.34-1.35.061-.477-.542.403-.82-1.208-.594-.96-.182-.883.593-1.83 1.545-2.366 2.99-1.859 3.959-1.115 2.487-1.61 1.583-1.97 1.08-1.858 1.13-1.5 1.408-.619 1.81v2.94l-.62 2.6 1.5.174 1.114.34 1.115.226 1.723.503 1.61.905 1.115 1.47-.235 1.08-.62 1.356.248 1.018-.88.729-1.238.904 1.623.289 3.53.96.93-1.3 1.102-.74.496-1.357 1.994-.164.855.504 1.499.74.36 1.747 6.33 1.871-1.871 1.52v.792l.88.74.978.278 1.128-1.295 1.239-1.696 1.722-2.775-.372-2.036-.99-.904-.36 1.532-1.128.05-6.813-2.713-.36-1.068-1.486-.679.111-.966 12.884-11.646.88-1.86.731-2.55.991-4.749.62-2.6-8.208-6.883-2.075 1.908.495 1.13.632.402.422.843.123.706zM654.151 221.79l-2.89-.97-3.345-1.019-2.313-.783-.867.226-.164.5-.642.066-2.415-.283-1.59-.008-1.796.17-1.549.112-1.446-.16-1.217-.461-.889-.954-1.424-1.752-.868-1.018-.721-.292-.744.057-2.066 1.253-.969.274-1.013-.557-1.836-1.592-.93-.453-.827.292-6.358 3.215-.703.63-1.61.453-1.094.048-1.487-.283-1.384-.444-1.093-.122-1.137.009-1.487.17-2.043.622-1.364.395-1.238-.056-1.177-.452-1.487-.905-3.283-2.375-1.548-1.753-1.487-1.81-.991-1.866-.412-.687-.805.056-.89.404-1.3.453-1.239.057-2.766-.292-3.8-.783-3.779-.735-2.022-.065-1.136.121-1.342.162-.867.452-.703.63-.557.623-.248.791.022.727.102.8.64 1.01 1.099 1.301 1.008-.628 1.92-.787 1.341.122 2.602.679 2.748 1.137 1.362.72.867 1.131.434 1.075.536 1.422.123 1.3.332 1.18.496.905 1.3 1.413 1.672 1.753 1.24 2.997 1.424 1.866 1.28 1.027 1.755.953 2.642 1.195 2.354 1.98.743 1.413.31.849.124 1.074.331.727.372 1.188.372.678.557.509.66.178 1.115-.396.681-.622.744-.791 1.61-1.98 5.597-6.794 1.177-.905 1.279-.161 1.673.283 4.521 1.696 4.274.453 4.646 1.527 4.398 2.035 5.327 1.3 2.912 1.075 1.858.961.867.792.393.614.93.509.597-.218.703-.348.288-.614-.495-.565-1.425-.792-1.837-1.591-1.384-.953-.412-.913.226-1.18.62-.961 1.734-.792 1.363-.961.31-1.074.393-1.649 1.589-1.405 2.623-1.535 1.859-1.301.783-.896.186-1.018.557-1.244zM226.187 328.374l.762-.797v-1.018l.496-1.017.848-.22.496-1.132 1.239-.678h.99l.992-.792.62-.678.866-.453v-1.81l.496-1.243.638-1.363.725-4.404 1.133-2.72.601-2.143.762-.798.372-1.47v-1.922l.743-1.244 1.363-1.018.972-.107.867.226 1.982-1.13 1.258-1.703 1.61-.565 1.592.345.496.904 2.106 1.245 1.63.672.228.91-.105 1.465-.39 1.25-.558 1.576-.415.68-.018.797.514.334.353.684 1.239.113.743-1.131.124-1.357-.41-1.328.852-.086 1.16-.19 1.867-.092 1.858-.113 2.868-.91 1.657-.283 4.677-1.188 2.103-.658 2.209-.915 1.843-.565 1.595-.636 1.812-.495 4.28-1.023-1.345 1.465-.762.684-.743 1.244-.124 1.697v1.81l.247 1.016.992.114.638-.345.848.231 8.071 9.607-2.973 1.244-2.23 1.244-.99 1.13-.992 1.47-.867.68-1.63-1.126-2.21-1.25-1.506-2.368-1.982-.453-2.088-.005-.39.91.39.56 2.23 1.356 1.22 1.476 1.135 1.125 1.238 1.584.477 1.25-.353 1.464-1.257.344-1.735-.225h-2.354l-1.239.452-.972.333-2.744.91-1.096.56h-1.115l-1.134-1.464-2.336-1.023-1.752-.334-.973.334-1.239 1.13-.018 1.137.495 1.47.124 1.13-.848.56-1.382.232-1.238.227-1.735.678-2.478 1.357-1.468.107-1.877.12-.62-1.132-1.238-.565-1.468-.458-2.106-.453-.39-2.029-1.468-3.561-4.99.472-5.951 1.132-3.193.663zM414.514 242.534l.105-1.69-.23-1.93.106-1.35.762-.911.477.684 1.239-.113 1.629-.571 1.22.006.372 1.696 1.115 1.583-1.24 1.131v1.132l1.01 1.238-.018 1.476-.867 2.035.495 1.584 1.115.904 1.63-.231 1.238-1.584 1.344-2.256 1.134-.458.372-1.81.867-3.28-.514-2.143-.62-2.487.514-3.286.973-2.03-.725-2.833-1.133-.786-1.469.673-1.009 1.363-.353 1.917-1.115.904-2.835-.108-1.501-6.112-1.382-2.256-1.858-.566-2.85-.679-2.582-.005-4.355.119-2.211 1.125-2.23 1.81-1.487 1.47-.514 1.363 1.115 1.357-.248 1.244-2.955 1.012-1.257 1.25-.496 1.244.638 1.464.106 1.59v4.523l-1.61 2.262v1.584l.866 1.017-.229 1.352-1.115.905-1.362 1.47-2.249 3.399-1.487 3.053-.124 2.035v1.358l-.248 2.6-1.114 1.471-1.24.452-1.963.673-.743 1.131-.867 1.13-2.744.233-.85.786 1.097 1.476-1.362.452-1.115.679-1.859.452-2.23.113 1.753 1.917 1.487 1.357 1.22 1.363.124.679-.105 1.012-.762.684.266.56.725.231.991.905.62.678.771 2.254.734.681.973.345 1.486.227-.353.672.972.458h1.487l1.239-.452 1.01-.458 1.468.232.743.565h1.239l1.115-.678 1.01-1.25.972-1.917.886-2.72.229-2.143-.972-2.38-.638-1.691.018-2.494-.39-2.482v-2.149l.247-2.6 1.134-2.72 1.592-1.692 2.106-1.018 1.487-.112.743.565.124 1.018.371.905v1.13l-1.238.34-1.344.673-.515 1.815-.495 1.696.62 1.81-.125 1.13-1.114 1.132.762.899.228 1.136.372 1.018.744 1.13v1.697l.761.9.973-.22.743-1.132 1.735-.905.247-1.244.992-.226.867.566.762.785 1.344.233 1.363.338 2.23-.678 1.01-.345-.496-1.357-.266-1.352h.743l1.982-.113 1.134-.344 1.858-1.018-.514-2.03-1.982-1.583-.372-1.584.39-1.363.867-2.262v-1.583l1.735-1.81 1.716-.672 1.629-.685-2.249-4.97-.372-2.262-.99-.339-1.115-1.018-.973-1.815zM95.363 681.785l2.725-.113 2.354.339 2.124.786 1.345 1.135 2.868 4.516 4.955-2.713 9.397-5.646 3.735-2.379 2.354-2.373 3.345-2.148 2.335-.56 1.258 1.012.477 1.814.495 1.582.248 1.47.62 1.243 1.486 1.018 1.734.678.496.904.496 1.582v1.13l-.372.792-.372 1.243-1.115 2.826-.495 1.356-.744 3.39-.123 1.357 4.726 1.803.99-.565.125-2.035-.266-1.35v-2.148l.37-1.695.125-1.244.743-2.938.143-3.849-.39-2.255.018-2.04-1.753.345-1.363.226-.6-1.475-1.363-1.017-1.487-.791-.018-1.69.247-1.583.266-4.3-1.114-1.696-.267-2.03.868-2.486.743-1.017 3.097-3.278.762-1.362 2.23-1.13 1.22.57 1.115.792 2.62-.458 2.354-1.243 1.115-.565.477-1.125.99-2.035 1.612-1.695.62-1.696-1.116-1.017-1.61-2.713.124-2.713.39-1.814.495-2.826.601-2.142v-2.6l-3.097-3.956-1.964-.344-1.486-.453-1.381.006-1.593-.345-1.238-1.696-.744-2.712-1.01-2.481-.867-2.487v-6.218l-.477-2.831-1.115-1.809.354-1.125h1.115l1.133-1.135.495-1.922-.638-6.664-.37-2.487-.726-1.475-2.372-2.481-2.107-2.035-2.354-.565-3.468 1.356-4.32 2.442-3.095 3.657.973 1.023.638.899-.019 1.136-.972 1.011.23 1.362.99.227.124 1.243-.991.791-1.363.452-2.726 1.922-1.61 2.487-1.22 2.707.353 1.475.124 1.018-.496 1.809-.743 1.469-2.726 2.826-2.973 3.504-3.097 4.409-4.46 6.895-1.096.56-.515 1.135v.792l.248 1.47.124 1.355-.248 1.696-1.591 4.29-1.24 2.712.23 1.475.743.34 1.363-.565 2.125-.571 2.21.231 1.735.226 2.497-.57-2.001 7.805-2.087-.006-1.611.226-1.258-.333-.849-1.928-1.752.12-1.487 2.712-.849 1.237-1.61.226-1.01-1.124-.991-1.357-1.12 1.305-4.212-1.978-.558 3.108.31 7.743-3.345 8.93-3.965 7.346 12.519 1.013zM219.345 360.204l-.472-.022-2.215-1.356-.31-2.686-2.803 1.13-3.5.849-4.119 6.332 7.465.608 3.066-.834 2.57.537.806-.374zM171.622 334.931l6.13 3.694.123 7.274 1.103 3.394.613 2.2-5.762 2.388-4.005.784-3.76-2.052-1.144-2.164.327-3.059 1.185-1.715 3.433 1.23 2.166.225h1.226l-.777-1.604-.53-.523zM325.532 360.103l-8.75 8.015 1.1.494.248-.834.728-.693.542.623.93-.34-.326-.876.635-.82 1.92-.48 5.25-1.584zM333.09 353.445l-3.268 2.728.31 1.146 1.022-.778 1.672-.551.62-.58.495-.904zM365.502 347.919l.325 2.417 3.732.537.62-.438.231-1.795 2.013-.226.604-1.372-5.45.933zM606.697 341.664l2.523-.01.423.728-.083 1.178-.61.579-1.62-.46-.035-.708-1.068-.354zM609.791 358.395l2.605.793 3.85-2.678 4.647.706.493-.428 1.55-2.164-.681-1.178-2.3-.985-1.057.407-3.943-2.057-2.183 1.8-.54 1.97zM629.676 357.79l.644 1.828-.849.457-1.266.177-.072-.895.613-1.296.307-.42zM666.273 386.56l-2.918-2.357-1.936-1.107-4.632-.762-.767-.873 3.177-1.988 2.271-2.304 2.355-2.619.935.217 1.683-.413 1.735-1.045 1.08-1.301 1-1.5.134-2.251.236-.828 1.158-1.91 1.266-1.744 1.678-1.98.947-1.144.888-2.131.872-2.335 1.628-1.846.803-2.262.383-1.578-.525-2.128-.964-2.92-2.794-4.276-1.142-3.374.144-3.467-.434-1.724-1.2-.54-.659.406-.68-.783.163-.932 2.674-2.424 2.274-1.515 3.078-.716 2.365-2.532 1.09-.899 4.694-2.81 3.427-1.946-5.167-4.77 3.719-2.102 2.049-3.772 1.081-5.278 1.009-1.8-4.794-3.557-2.113-1.387-1.714-2.087 1.337-2.472-3.074-3.071-3.854-1.084-1.524-2.748.858-1.379 1.044-3.245 1.592-.271 2.317-5.066-2.583-1.438-3.898-1.293-1.501-.762-.348-.946 1.188-1.237.997-.73 3.723-.054 3.255-.73 3.04.856.871 1.986 1.09 1.477 4.659 1.65 4.208.833 4.52-1.987 1.425-2.547-.031-4.214-3.354.041-2.486-1.541-4.396 2.359-3.9-3.183-4.674-.743-2.322-2.1-3.437.08-2.988 1.143-3.489-.576-3.075-1.73-2.101-4.844-1.516-6.413.576-5.458 1.411-1.087 1.214-1.148 2.612-5.538-.25-1.812-1.004-2.044-1.13-4.092 5.46.32 2.067-.464 1.315 3.438-2.055 2.56 1.828 2.645-2.72 2.566-3.683 3.324 1.2 1.212 1.994 1.452 2.369.641 2.465-.264 1.17-.774.342-2.497 1.014-4.603 3.406-10.084 8.937 5.907-7.779 5.946-.338 2.253-2.395.963.31.943.866.617 1.096.19 4.877-.17 1.733-.263 1.276-.15 1.537.67-2.366 1.38.258.779-2.542 1.506-2.84-.862-8.374 2.337-6.718 1.997-.974 2.278-.803 3.12 3.046.718 2.563-.361 9.664-2.553 8.435.558 4.162-2.976 5.445-3.242 4.394.302 3.25 1.112 1.638.337 3.558-1.19-.07.674-4.043 2.478-7.693 3.865.594 2.187 1.7 1.184 3.026-.516 2.01-.145 1.903 1.313-.102 1.335-1.217.713-.994 1.862.367 1.92-1.735 6.554-4.962 11.446-1.847 6.408.603 3.13 1.5 2.55-.389 3.127 2.44 9.042-2.946 4.141-2.729 6.736-3.051.25.135 4.986-2.907-1.093-1.141.858-2.53-.546-1.235.73-4.45 3.372-4.624 3.049-2.713 1.749 2.192 2.103-2.15 1.545 2.248 2.55-.372.82-.99.019-1.718-.58-1.976-1.734-1.1 2.148 1.168 5.101 1.561 1.376.492 1.432.902 6.407-2.47 4.957-1.32 2.34-.735 2.44-2.777 4.012-1.944 4.053.876.904-2.426 4.185-1.91.942-2.947.667-1.676.92-1.06 2.047.81.535.243 2.037 1.36 2.069 1.83.864 1.443 2.548.418 1.685-.297.713.674.887-.013.578-2.225.123-.12-.868-.014-.523-.97-2.03zM633.21 287.176l3.112-.82 3.593 2.418-.558 1.23-.34.226-2.416-.551-1.007.325-.697 1.16-.836.197zM640.37 280.33l9.092 2.35-.143 1.156-1.021 1.511-3.862.298-2.432-.802-1.124-.466-2.186-.317-1.676-.728-.49-.615.286-1.063.572-.298 1.144.186zM128.379 384.863l-.23.737.055 2.314-.283.677-2.778.886.23 1.094-1.685.8-1.807-.553-.863-1.292-.85-.64-.875-.037-.513-1.01.445-1.23 4.759-2.73 1.362-.64 3.127-1.44.149.725-1.43.8.378.517z" clip-path="url(#pdeec691678)" style="fill:#006400;fill-opacity:.8"/></g><path id="PatchCollection_3" d="m302.403 401.455 2.57-2.234.588-.33.59-.518 2.355 1.47-2.232.68.008.66-1.401.555-.248-.226-.557-.198-1.425.198z" clip-path="url(#pdeec691678)" style="fill:#f4a460;fill-opacity:.8"/><g id="PatchCollection_4"><path d="m350.064 368.522.51.428-.975.431zM328.517 372.59l.033-.23.12-.21.089-.086.284-.143.253-.026.154.024.23.105.179.173.116.301-.019.226-.132.245-.232.18-.24.073-.2.001-.243-.07-.222-.164-.128-.201zM318.848 373.051l1.146 2.163 2.295-.691zM362.914 366.225l.736 3.276-.027.194-.182.163-.236.07-.388-.199-3.561-2.098-.12-.166.004-.26.12-.195.228-.117 2.063-.407.783-.133zM342.604 361.877l2.043 4.45 3.128-1.16-3.343-3.94zM334.087 375.673l.612.869 1.67-1.826zM372.213 366.853l2.416-.34-.65-3.08-2.49.45zM328.264 387.407l-.025-.186.943-.584.745-.496.617-.153.488.148.59.54.096.325.003.258-.013.375-.087.241-.39.56-.273.322-.796.035-1.652-1.107zM368.691 366.097l.216 1.467.39 1.286.888-.693-.18-.712-.153-.775zM313.64 371.12l1.403.34-2.104.707zM408.308 370.593l2.53 11.596 9.117-1.181-1-5.477-5.941.913-1.412-6.28zM323.39 370.608l4.325 1.436.57-.214-4.456-2.092zM320.505 369.338l1.7.682.85-.729-.514-.306-1.804.024z" clip-path="url(#pdeec691678)" style="fill:green;fill-opacity:.8"/><path d="m412.508 370.53.96 5.06 4.305-.679-1.022-5.088zM356.828 353.82v1.237l.648 1.183.825.053h1.119l.53 1.237-.884.376.59 1.344.706.914 1.296-.108 3.18-.967.53-3.602-.765-3.494-1.237-.645-5.124-.646zM320.735 309.828l1.799-2.182 2.002-2.724-.735-.336-.96 1.213-2.944 2.817z" clip-path="url(#pdeec691678)" style="fill:green;fill-opacity:.8"/></g><path id="PatchCollection_5" d="m399.724 365.604 1.017 5.04 2.606-.438-1.015-5.04z" clip-path="url(#pdeec691678)" style="fill:#006400;fill-opacity:.8"/><g id="PatchCollection_6"><path d="m390.145 401.822-.743-.283-.706.06-.41.336-.061.565.062.566.186 1.244.247.791.434 1.187.124.565v.679l.062.452.372.396.681-.113.533-.28.62-.17 1.077-.454.78-.224.744-.34.805-.168.558-.057 1.053.113.743.17.805.112.495.17.645-.229.247.226.68-.371.622-.25.248-.453.247-.565-1.053-.17.434-.96.247-.454.744-.79.371-.51.31-.339.434-.509-.496-.622-.495-.395v-.509l.247-.791.434-.566.433-.509.434-.226 1.425-.452.495-.848.186-.622-.805-.283-.434.226-.31-.678v-1.13h-.743l-.557 1.413-1.053 1.074-.743.283-.496-.114-.62-1.187-.62-1.13-1.114-.962-.248-.735-.495-.282-.991.735-1.115 1.243-.496.848-.371 1.018-.186 1.018-.062.621-.31.679-.681.283.124.283.867.282.248.34-.558.508-.681.17-.062.565-.434.509-.62.17-.928-.227zM279.267 352.494l.544-.326.602.1.31.226v.367l.186.51.496.395 1.95.679.31.593.589.283.929.226.526.452.465.254.62.255.62-.028h.495l2.044.34.216.536.403 1.103.341.848.557 1.215v.764l-.495.226-.372-.34-.774-.226-1.24-.085-.804-.225-1.177-.453-.682-.792-1.982-2.6-1.486-.905-2.138-.848-1.765-.735v-1.216l.372-.452zM279.546 346.698l.465.736.433.593.775.283.588-.198.699-.298.664-.154.512-.214.572-.125h.402l.451-.299.014-.832-.155-.99.062-1.328.279-3.167-.186-2.374-.526-2.093-.589-1.385-.433-.17-.713.114-.34-.424-.28-.707-.495-.396-.65-.226-.558.113-.278.198v.622l-.032.65.032.537.154.537-.247.453-.124.31v.962l.092.905.125.678-.062.283-.34.339-.032.48-.031 1.046v2.121l-.03.678.03.594-.03.593-.094.538-.124.452zM304.169 343.137l-.093.763v.452l.186.99.124.96-.032.736.218.706.464.114.836.17.682-.086.588.057.217.367-.155.566-.03.282.123.425-.124.537v.48l-.217.113-.743.085-.774.028h-.93l-.402.312.155.31.03.792v.537l-.185.707.017.465.23.355.434.141.495.31-.185.425.31.565-.434.594-.495.255-.558.395v.453l.588-.114h.372l1.146.311.296-.128.324.185.03.565.093.283.513-.072.31-.509.31-.255.57.246.217-.004.31-.508.28-1.442.37-1.16-.154-.31-2.2-.34.063-.82 1.658-10.004.138-.483-2.942-2.799-.65-.311-.434-.057-.186.227.465.339.464.31.31.227.31.31.31.51-.032.424-.34.367-.527.254-.62.057-.37.17zM291.842 356.225l.062.51.34.225.125.34.371.198.589 1.272.681 2.204.279.199.681-.199.279-.508.279-.226.34.028.682.622 2.075.706.681-.65-.062-.678-.279-.905-.557-.197-.403-.283-.464-.707-.93-.933-1.672-.395-2.137-.312-.297-.216zM222.337 415.565l-1.859-1.018.124-1.696.137-1.181-.372-1.47-.756-1.193-.743-.113-.731-1.069 1.102-.514.508-1.182-.756-2.323-.359-2.2-.62-.791-.878-.401v-.905l1.362-1.809.136-.73-.371-1.47-1.115-1.017.359-1.42.62-2.147 8.176-4.75 14.755 19.963 2.465 1.521 2.726.905 2.614-.164 3.097-.792 1.103-.74 2.49 4.698.978-.854.743.565.744.114 2.23-1.697-.496 8.594 3.84.113.249-3.732 1.623-.39 1.721-.853 1.128-1.295.867-1.696 5.191.842 7.557-7.73 2.118-3.062 4.584-5.54 2.478-1.131 5.19 11.244-4.948 7.8 16.082 5.45-5.93 3.032-5.439 3.568-1.982 2.826-.26 1.182 14.99 12.324-2.973 4.636-.855 2.775-.247 1.81-1.128.955H301.5l-2.602.34-4.583 1.243-2.23 1.017-.868 1.018.508.966h1.115l1.103-.966 1.87-.956 3.098-.678 1.858 1.47.62 1.244-1.252 2.086-1.362 1.583-1.116 1.922-.235 1.87-.88.73h-1.362l-1.598-1.407-.991.452-6.083 7.738-1.363.566-1.103-.503-1.115-.34-.867.566-.123 1.357-1.252 4.347-3.085 8.768-.012 3.442.991 6.105.756 1.42-1.623 1.972-3.717 1.017-14.866 4.635-.991.905-2.973 1.357-3.345 1.13-2.602.114-.495-1.357-.249-2.714-.867-1.13-1.474-.73-4.844-.062h-3.22l-6.071 1.47-1.735-.791-1.239.452-1.226 1.08-1.375-.401-1.103.288-2.614 1.181-1.239.678-2.353.114-1.611-.114-1.503-.211-.386-.198-3.717-.424-2.153-.17-1.768.048-1.747 2.086-2.725 1.244-2.342 1.305-2.725 1.47-3.11 1.294-2.96.967-6.208.616-3.84.679-3.704-1.747-3.535-.825-1.468-.771-1.072 2.244-.503-.71-2.357.271-1.608-1.741-2.354-.904 1.004-1.86 1.845-.175 3.993-2.88 4.682-3.046 7.815-3.17 4.943-3.567.744-1.47-7.558-7.8-16.973-14.133-.359-1.52 1.723-1.193 1.858.226 5.699-1.017 2.106-1.018 1.746-.051 1.611.678 1.61.227 1.227-.967-1.115-4.297-.855-1.86-1.239-2.148.496-1.017.855-1.08 1.982-2.94 1.363-.452 1.251-.05 1.115-.113.111-1.42-.371-3.052 22.436-10.227 1.734 2.374 1.858.792 2.218.39 1.251 1.08 1.115 3.165 1.734 3.28 1.97 1.859.756 1.419.36 2.086v1.244l-.372 1.243-.112 1.42.991.451 2.478 1.584 1.487.452 1.102 2.877-.123 1.244v.791l-.248 1.696-.855 2.21-2.862 1.521-4.212 3.053-2.354 2.714-1.97 2.323-1.127 2.99.991 2.035 1.499 2.55 2.59.955 2.973-1.357 3.344-.226 2.862-.955 1.982-.452 1.982.339 2.974-.453 3.828-2.21v-5.314l-.248-2.035-1.734-2.826-1.103-2.312-.136-2.55.743-2.035 1.251-1.747-.507-1.645-.744-1.922.124-1.017.496-2.6-1.103-1.747-1.375-1.872-.991-1.583-.991-2.035-.607-2.425.867-1.357 2.093-3.115-.739-1.814-.747-1.238-1.846-.956-1.003-1.984-1.61-1.583h-2.231l-1.734-3.28-1.363-1.356-1.239-1.017-.991-1.922.62-1.583h.99l.509-1.521-.88-3.115-1.115-1.922zM277.968 370.122l1.287.513 1.233-.366-1.066-1.153-1.27-.368-5.358-.792-1.146.566-.65-.17.062-.565 1.239-.254.526-.312 2.385-4.211.62-.114.96-.48-.527-.368.31-.537.991-.48-2.26-.085-.652-.622-2.632-6.672-.774-.96-.682-.199-.712-.085-.62-.028-.588.283.434 1.13-.65.114-1.333-.029-1.3.481-1.085.707-.62.198-1.33-.17-2.045.367-1.982-.254-1.208.622-2.725.367-.96.82-1.92.594-4.337.396-.65.085-2.911 2.403-.651 1.046-2.354 4.748-.092.566 16.045-1.089 3.37 2.67 5.67 7.901 5.625 6.915 2.468-5.922 3.201-2.676-1.719-2.096zM228.102 372.508l8.89 1.724 1.3-3.816 3.19-6.021 1.734-3.986.774-2.262-4.088-.82 2.85-.565-.31-1.018-3.376.848-.434.452-.619.142-1.332-.255-1.394-.028-.557.311-.403.509-.526.396-.589.283-.154-.566.185-.565-.062-.565-.619-.283-1.982-.396-.898 1.583-.65-.141-1.27.508-.837-1.95-.495-.424-.589-.255-.526.311-.403.48-.62.114-.619-.226-.279-.51.341-1.186-.372-.51-1.176-.508-1.394-.226h-1.146l.279 1.611.433 5.57.736 4.24 3.352 2.94 1.828 2.092z" clip-path="url(#pdeec691678)" style="fill:#006400;fill-opacity:.8"/></g><g id="PatchCollection_7"><path d="M413.752 243.67v1.584l1.381 3.048.6 1.25.248 1.13-.123 1.131-1.24.34-2.087-.006-1.238 1.018-.02 1.136v3.28l-2.23-.452.639-3.625 1.362-3.506 1.611-4.41zM420.566 232.7l1.238.566.248 1.47-.848.56-4.231.006.247-2.036h.868z" clip-path="url(#pdeec691678)" style="fill:#90ee90;fill-opacity:.8"/></g><g id="PatchCollection_8"><path d="m329.986 366.272 1.974 4.848 4.962-1.865-1.919-4.782zM335.003 364.473l1.92 4.782 2.935-1.142-1.937-4.731zM337.921 363.382l4.91-1.627 2.136 4.555-5.109 1.803zM305.96 375.07l1.756 4.685 5.075-1.79-1.928-4.852z" clip-path="url(#pdeec691678)" style="fill:#d3d3d3;fill-opacity:.8"/></g><g id="PatchCollection_9"><path d="m339.858 368.113 1.974 4.748 5.167-1.917-2.032-4.634z" clip-path="url(#pdeec691678)" style="fill:gray;fill-opacity:.8"/><path d="m336.922 369.255 1.81 4.702 3.1-1.096-1.974-4.748zM344.967 366.31l2.032 4.634 2.44-1.294.51-1.434-2.57-2.765z" clip-path="url(#pdeec691678)" style="fill:gray;fill-opacity:.8"/></g><g id="PatchCollection_10"><path d="m288.078 347.293.018 1.172 3.974-.05.078 5.72 9.946-.114-.096-7.032zM329.428 371.574l-2.013-.777.261-.635 3.053-.976.758 1.653zM351.29 328.356l2.432-1.561.44.571 1.892-1.214 1.4 1.819.264-.17.548.712-.926.594.406.528-3.13 2.009.32.415-.837.537-1.367-1.774.502-.323-1.279-1.661-.652.418-.469-.608zM357.854 327.256l.929-.597 1.002 1.3-.928.596zM333.044 396.471l.94.714 2.065-2.265.67.51 2.408-2.64 1.175.893.474-.52.576.439-.583.64 1.896 1.44-2.103 2.305-.433-.329-.184.202-.992-.754-2.007 2.2-.432-.328-.655.718-1.725-1.31-.43.471-.266-.202.345-.379-.324-.246.317-.347-1.085-.824zM346.197 321.332l.806.695 2.369-2.284 1.001.865.269-.26.33.286-1.75 1.687-.46-.398-2.597 2.503-1.675-1.448zM356.076 411.01l1.262-2.092 1.115.56-1.262 2.092zM349.342 407.11l.682-.723 2.43 1.91-.683.721zM355.36 411.589l.317.155.184-.316.533.258-.22.378 1.56.759-.712 1.221-2-.972.284-.487-.412-.2zM353.797 417.465l2.536-2.843 1.905 1.416-.932 1.046-.768-.57-1.603 1.796zM343.87 404.785l1.33-.016.013.904-1.331.016z" clip-path="url(#pdeec691678)" style="fill:#a9a9a9;fill-opacity:.8"/><path d="m341.244 405.948 4.644-.029-.006-.907 1.537-.009.015 2.188-3.228.019.005.689-1.736.01-.005-.676-1.217.007zM351.441 416.047l1.496-1.62-.291-.224.6-.651.23.177.276-.299 1.039.799-2.372 2.57zM370.093 366.6l1.599-.26.32 1.635-1.6.26zM323.725 341.52l1.489-.357.46 1.595-1.49.358zM342.528 372.997l1.462-.481.596 1.51-.503.166.114.288-.959.315zM337.994 374.908l-.053-.135.965-.318.379.956-.887.293.075.192-.362.12-.402-1.014zM339.11 374.179l1.04-.425.377.769-.291.12.175.355-.748.306zM418.594 351.316l1.403.28-.765 3.142-1.276-.279zM424.538 352.13l1.607.21-.383 2.002-1.658-.278zM336.778 367.72l.454.975 1.317-.373-.408-1.016zM399.724 365.604l1.017 5.04 2.606-.438-1.015-5.04zM238.488 585.915l-.199-.23.231-.168.2.23zM240.007 584.999l-.443-.633.724-.422.443.634zM347.51 367.628l.618-.403.788 1.01-.617.403z" clip-path="url(#pdeec691678)" style="fill:#a9a9a9;fill-opacity:.8"/></g></g></g><defs><clipPath id="pdeec691678"><path d="M90 105.192h558v516.815H90z"/></clipPath></defs></svg>