<svg xmlns="http://www.w3.org/2000/svg" width="960" height="960" viewBox="0 0 720 720"><defs><style>*{stroke-linejoin:round;stroke-linecap:butt}</style></defs><g id="figure_1"><path id="patch_1" d="M0 720h720V0H0z" style="fill:#fff"/><g id="axes_1"><path id="patch_2" d="M136.695 640.8h464.61V86.4h-464.61z" style="fill:#fff"/><g id="LineCollection_1"><path d="m478.52 373.31.864.079.896.15 1.682.407 3.801.764 1.322.116 1.752-.124 1.525-.396 4.74-1.603 2.79-.757 1.76-.23 1.828-.132 1.907-.027 1.51.071 1.465.226 1.464.358M521.048 376.164l-2.387-.147-1.2-.209-1.1-.34-2.535-.956-3.735-1.586-2.265-.714M509.95 365.22l-.842 2.644-.653 2.329-.629 2.019M345.747 386.87l2.444 1.51M345.747 386.87l-1.091-.671M364.315 384.159l-10.164 1.495-7.417 1.102-.987.115M545.756 385.166l1.025.752M531.585 376.09l1.636.396 1.985.699 1.634.936 1.834 1.388 1.694 1.387 5.388 4.27" clip-path="url(#pb68871c497)" style="fill:none;stroke:#000"/><path d="m551.388 385.872-2.69-.582-.893-.157-1-.041-1.05.074M546.78 385.918l1.298 1.148.645.752M549.975 416.402l1.36-3.807-.018-4.311-.313-12.942-.19-2.082-.34-1.528-.627-1.8-.463-1-.661-1.114" clip-path="url(#pb68871c497)" style="fill:none;stroke:#000"/><path d="m551.388 385.872-.294.104-.789.404-.324.188-.291.258-.298.31-.67.682M531.585 376.09l-1.199-.083-9.338.157M520.982 357.887l.232 3.419.09 3.014-.099 2.602.017 6.054-.174 3.188M478.52 373.31l-.256-.004M478.52 373.31l.076-.447M458.574 388.762l-2.093-2.91M458.574 388.762l.422.298M458.574 388.762l-1.191 1.593-1.488 1.29-1.541 1.143-1.064.608M462.554 383.787l-1.515 1.77-2.465 3.205M450.932 376.634l2.426 4.23 3.123 4.989" clip-path="url(#pb68871c497)" style="fill:none;stroke:#000"/><path d="m447.837 386.829 2.034-.1 3.884-.182.745-.083.813-.182 1.168-.43M449.172 373.455l-3.859.041M449.172 373.455l9.144-.09M450.932 376.634l-.68-1.188-1.08-1.991M448.526 372.952l.406-6.767M448.526 372.952l-3.339.017M448.526 372.952l4.188.004M448.932 366.185l4.154-.091M448.932 366.185l-4.702.076M459.746 372.674l-.496.234-.43.229-.504.227M450.932 376.634l4.541-1.98 2.843-1.29M477.165 373.273l-3.624-.033-15.225.124M464.042 370.713l-2.891 1.342M467.963 369.136l-1.479.602-2.442.975M463.178 365.873l1.108 4.034-.244.806M493.35 364.442l-1.257-.03-1.045.09-.81.029-.984-.132-.867-.07-2.979.131M478.383 365.3l2.678-.204 1.992-.197 1.677-.306.678-.133M485.523 357.672l.116 2.775-.032 1.585.066.752.12.702-.034.318-.144.302-.207.354M509.95 365.22l-1.061-.015-2.48-.364-2.379-.066-5.504-.05-3.782-.176M493.35 364.442l.594.064.8.043M493.92 363.93l.286.28.213.156.325.183M512.67 360.215l-.77.991-.586 1.165-.769 1.784-.595 1.065M518.204 347.303l.238-1.094.97-4.705.17-.487.152-.26.236-.145.913-.326M521.474 347.769l.909-4.646.025-.545-.05-.607-.116-.322-.177-.256-.306-.264-.48-.439-.396-.404M510.892 303.966l.405 1.045 1.025 2.122.818 1.8.595 1.67.612 1.474.29.764.387 1.362.562 1.785.38 1.635.686 2.254.446 1.43.463 1.13.579 1.264.9 1.776.926 1.925.578 1.205.306.942.397 1.54.107.587.004.487-.078.644-.104.64.009.703.033 1.685-.335 4.45M512.67 360.215l1.52-1.775.95-1.025 1.55-1.659M518.204 347.303l-.953 4.39-.186 1.898-.376 2.165" clip-path="url(#pb68871c497)" style="fill:none;stroke:#000"/><path d="m520.627 352.006-1.988 1.636-1.95 2.114M517.646 358.403l-.68.482-1.826.81-.967.272-1.504.248M520.627 352.006l.847-4.237M520.627 352.006l.248 4.187M472.905 367.095l3.148-1.247 1.017-.314.537-.099.776-.134" clip-path="url(#pb68871c497)" style="fill:none;stroke:#000"/><path d="m479.914 353.545-.674 3.764-.86 6.079.003 1.913" clip-path="url(#pb68871c497)" style="fill:none;stroke:#000"/><path d="m478.596 372.863-.05-4.123-.163-3.44M439.675 373.011l-.811-5.354M439.675 373.011l5.512-.042M430.035 373.85l1.645-.236 2.866-.295 2.313-.193 2.816-.115M438.864 367.657l-.127-1.024M439.658 366.388l-.28.084-.138.198-.167.407-.091.305-.118.275M438.573 365.377l.164 1.256M438.519 362.565l.002 1.512.052 1.3" clip-path="url(#pb68871c497)" style="fill:none;stroke:#000"/><path d="m439.658 366.388-.406-.362-.223-.157-.24-.285-.216-.207M438.454 360.695l.065 1.87M438.454 360.695l5.599-.715M438.454 360.695l-3.24.414M438.108 354.47l.188 3.842.158 2.383M438.108 354.47l-5.662.157M438.108 354.47l6.562-.181M431.803 340.773l6.21.12.227.1.132.168.107.273-.012.537-.33 4.19-.076 4.763.008 2.171.04 1.376M439.658 366.388l-.617.013-.304.232M463.178 365.873l3.808-.083M463.178 365.873l-4.319.095M463.178 365.873l-2.234-8.018M466.986 365.79l-1.648-8.106M466.986 365.79l.977 3.346M456.367 366.022l2.492-.054M456.367 366.022l-3.28.072M456.367 366.022l-.133-4.782M456.367 366.022l.092 6.894M444.23 366.26l-4.572.128M444.23 366.26l-.424-2.971M444.23 366.26l.957 6.71M450.932 376.634l-4.632 1.885M373.103 387.505l6.187.6M373.103 387.505l-.355 3.862M373.078 382.87l.093.37.095.326.042.25.006.202-.21 3.487M348.191 388.38l1.117.753M347.21 401.455l.144-1.578.837-11.497M347.21 401.455l-7.64-1M354.506 404.158l-1.566.955-5.099 2.47-.232.088-.154.006-.16-.041-.09-.1-.078-.173-.199-2.78.281-3.128" clip-path="url(#pb68871c497)" style="fill:none;stroke:#000"/><path d="m354.068 402.333-3.045-.358-3.814-.52M341.054 383.831l-.588.93-.496.917-.218.529-.135.495-.027.254-.008.341.037.706-.111.834-.153.723-.153.645-.083.474-.05.773.05 1.18.158 1.38.173 1.437.207 1.892v1.536l-.087 1.578" clip-path="url(#pb68871c497)" style="fill:none;stroke:#000"/><path d="m230.975 405.228 6.627 2.04 8.082 1.561 3.14 1.156 20.526 3.27 2.827.53 1.95.049 2.066-.413 1.405-.71 1.214-.9 1.694-1.165 1.637-.826 1.602-.743 2.034-.868 3.198-1.387 1.528-.669 1.595-.455 1.422-.263 4.536-.984 4.355-.999 4.884-1.19 3.652-1.073 5.826-1.768 2.48-.891 1.495-.529.826-.165.81-.046 2.561.302 3.67.644 3.346.603 7.607 1.116M364.315 384.159l8.763-1.289M364.528 390.533l-.118-.914-.095-5.46M349.308 389.133l8.163 5.795M364.528 390.533l-4.621-.485-3.153-.389-4.599-.387-2.847-.139M365.118 395.241l-.113-.997-.477-3.71M372.748 391.367l-4.603-.46-3.617-.374M424.06 390.238l-1.196.038M428.33 389.662l-1.719.241-2.052.297-.499.038M422.998 391.038l.62-.437.442-.363M449.037 395.16l-.035-1.323M449.037 395.16l-9.831 2.828M453.29 393.396l-.789.449-2.075.882-1.39.432M447.837 386.829l-.604-3.385M447.837 386.829l.468 2.784M442.734 387.87l1.667-.365 2.611-.595.825-.081M446.3 378.519l-.987-5.023M440.92 379.298l4.2-.614 1.18-.165M447.233 383.444l-.089-.73-.844-4.195M448.305 389.613l.525 3.111.172 1.113M453.29 393.396l-.202-.096-.19-.044-.249-.016-.287.02-3.36.577M443.74 393.212l1.515.015 1.678.206 2.069.404M365.118 395.241l-6.523.532M365.42 400.15l-.15-3.56-.152-1.349" clip-path="url(#pb68871c497)" style="fill:none;stroke:#000"/><path d="M372.277 394.872h-1.29l-2.322.016-3.547.353M358.595 395.773l-1.124-.845M363.91 400.299l-.612-.328-.702-.492-1.57-1.37-2.431-2.336M357.471 394.928l1.744 6.495M359.215 401.423l.22.837M354.068 402.333l.475-.045.92-.085 2.37-.427 1.382-.353M363.91 400.299l-1.417.288-3.278.836M359.436 402.26l-4.93 1.898M359.436 402.26l3.77-1.291 1.412-.317M371.572 400.314l-2.885-.18-3.267.016" clip-path="url(#pb68871c497)" style="fill:none;stroke:#000"/><path d="m372.277 394.872-.165 1.343-.295 2.127-.245 1.972M376.528 401.569l-1.66-.562-1.911-.491-1.385-.202M372.277 394.872l.47-3.505M378.14 395.442l-1.268-.207-3.604-.363h-.991M378.583 391.754l-3.76-.285-2.075-.102M373.078 382.87l5.93-.948M379.29 388.105l-.707 3.65M379.29 388.105l.715-5.286M383.447 388.067l-2.427.123-1.73-.085M378.583 391.754l-.442 3.688M383.418 391.979l-3.374-.114-1.46-.11M383.452 396.034l-2.217-.072-3.094-.52M376.528 401.569l.604-1.602.433-1.461.294-1.521.282-1.543M383.59 403.81l-.08-.399M383.59 403.81l1.515-.268 5.71-1.196" clip-path="url(#pb68871c497)" style="fill:none;stroke:#000"/><path d="m364.618 400.652 1.05-.1h.402l2.287.014 3.295.129 1.683.274 1.957.603 1.106.396 2.567.857 1.397.49 1.374.347.88.125.975.023M383.452 396.034l-.034-4.055M389.632 396.21l-2.282-.05-3.898-.126M383.51 403.411l.038-3.187-.096-4.19M383.418 391.979l.029-3.912M388.936 392.03h-3.967l-1.551-.051M383.447 388.067l.138-6.79M388.416 387.535l-2.455.333-2.514.199M383.585 381.276l-3.434.463M383.585 381.276l4.074-.504M387.659 380.772l.757 6.763M387.659 380.772l-.033-.584M387.659 380.772l7.578-1.197M388.416 387.535l.52 4.495M395.657 386.447l-3.845.628-3.396.46M388.936 392.03l.696 4.18M395.845 392.161l-3.943-.015-2.966-.116M389.632 396.21l6.177.131M389.632 396.21l1.094 5.667M390.815 402.346l-.089-.469M390.815 402.346l5.07-.864M395.885 401.482l-.06-.443M395.885 401.482l1.227.086 2.48.306 3.11.52 8.105 1.147 4.607.581 1.905.046 1.602-.096 1.638-.22 4.724-.954M395.809 396.341l.036-4.18M395.809 396.341l.015 4.698M403.068 396.342l-6.464.016-.795-.017M395.845 392.161l-.188-5.714M399.477 392.24l-2.046-.044-1.586-.035M395.657 386.447l-.42-6.872M399.265 385.843l-2.396.406-1.212.198M403.068 396.342l.213-4.047M403.068 396.342l-.29 5.614M410.884 396.275l-1.52-.016-6.296.083M403.281 392.295l.35-7.187M410.983 392.165l-4.43.13h-3.272M399.477 392.24l2.483.055h1.321M403.63 385.108l.185-6.775M399.265 385.843l3.653-.618.713-.117M411.06 383.868l-2.324.399-5.105.84M403.815 378.333l.044-.649M403.815 378.333l-5.007.721M403.815 378.333l7.319-1.03M411.134 377.303l-.074 6.565M411.134 377.303l4.473-.61M411.06 383.868l-.022 2.415M416.013 383.076l-1.89.266-3.063.526M410.983 392.165l-.1 4.11M410.983 392.165l.055-5.882M415.836 392.167l-3.411.009-1.442-.01M410.884 396.275l-.097 6.821M415.782 396.383l-3.113-.09-1.785-.018M415.136 403.605l-4.349-.509" clip-path="url(#pb68871c497)" style="fill:none;stroke:#000"/><path d="m415.782 396.383-.023.61-.087.744-.111.602-.186.567-.1.52-.078 1.032-.029 1.095-.032 2.052" clip-path="url(#pb68871c497)" style="fill:none;stroke:#000"/><path d="m425.273 402.358-2.833.682-2.35.438-1.459.197-1.676.042-1.82-.112M415.782 396.383l.054-4.216M424.052 396l-1.136.193-4.562.33-2.572-.14M415.836 392.167l.037-6.082M422.998 391.038l-.434.186-2.663.527-3.233.412-.832.004M416.013 383.076l-.406-6.383M416.013 383.076l-.14 3.009M421.6 382.317l-2.023.232-3.564.527M415.607 376.693l5.122-.727M411.038 386.283l4.835-.198M415.873 386.085l6.19-.405M441.96 384.08l3.366-.374 1.907-.262M443.74 393.212l-1.006-5.342M438.413 393.558l1.112-.14 3.488-.198.728-.008M442.734 387.87l-.773-3.79M437.472 388.503l1.764-.183 2.33-.325 1.168-.125M441.96 384.08l-1.04-4.782M436.965 384.702l2.935-.286 2.06-.336M440.92 379.298l-.97-5.752M436.47 380.093l2.22-.443 2.23-.352M435.712 373.794l.325 2.408M435.712 373.794l4.238-.248M430.117 374.446l3.057-.455 2.538-.197M436.47 380.093l.495 4.609M436.47 380.093l-.433-3.89M430.91 380.865l4.103-.563 1.458-.21M436.965 384.702l.507 3.801M431.41 385.091l2.777-.23 2.778-.16M437.472 388.503l.941 5.055M431.881 389.224l4.686-.596.905-.125M438.413 393.558l.793 4.43M432.46 394.588l.868-.146 5.085-.884M439.206 397.988l.123.403M439.206 397.988l-6.084 1.825M425.273 402.358 424.052 396M425.273 402.358l.01.54M425.273 402.358l4.422-1.412M424.052 396l-1.054-4.962M428.944 395.176l-2.327.39-2.565.434M422.998 391.038l-.134-.762M422.062 385.68l-.461-3.363M422.062 385.68l.802 4.596M427.84 385.354l-4.891.268-.887.058M421.6 382.317l-.871-6.35M427.311 381.485l-2.544.47-3.166.362M420.729 375.966l-.108-.764M420.729 375.966l6.008-1.033M430.117 374.446l-3.38.487M430.117 374.446l.332 2.425M430.91 380.865l.5 4.226M430.91 380.865l-.461-3.994M427.311 381.485l1.918-.39 1.681-.23M431.41 385.091l.471 4.133M427.84 385.354l1.157-.063 2.413-.2M431.881 389.224l.578 5.364M428.33 389.662l2.783-.34.768-.098M432.46 394.588l.662 5.225M432.46 394.588l-3.516.588M433.122 399.813l-3.427 1.133M429.695 400.946l-.751-5.77M428.944 395.176l-.614-5.514M428.33 389.662l-.49-4.308M427.84 385.354l-.529-3.869M427.311 381.485l-.574-6.552M430.449 376.87l5.588-.668M429.547 370.124l.488 3.727M429.547 370.124l-.564-4.062M429.547 370.124l-9.49 1.085M420.057 371.21l-.407-3.944M420.057 371.21l.564 3.992M420.057 371.21l-4.951.622M428.983 366.062l-.632-4.078M419.65 367.266l4.757-.67 4.576-.534M419.65 367.266l-5.032.577" clip-path="url(#pb68871c497)" style="fill:none;stroke:#000"/><path d="m418.685 359.574.516 3.565.45 4.127M453.13 354.054l-8.46.235M453.13 354.054l.517-.055M453.7 354.772l-.092-.2-.477-.518M427.392 354.768l.96 7.216M427.392 354.768l-8.28.229M427.392 354.768l5.054-.141M424.713 334.595l.446 1.43.124.56.053.455-.04.462-.063.397-.248 1.074-.09 1.189-.026.74v.395l.075.443.4 1.862.281 1.065.133.385.145.233.095.202.087.23.123.383.223 1.487.512 3.13.224 1.627.225 2.424M428.351 361.984l4.674-.596M433.025 361.388l2.189-.28M433.025 361.388l-.58-6.761M431.803 340.773l.223 1.768.115 2.94.104 1.433-.054.516-.042.979.01 1.495-.018.64.019.27.044.221.074.302.07.788.009 1.153.089 1.349M459.708 353.401l1.236 4.454M459.708 353.401l5.15-.17M454.505 353.918l2.156-.329.525-.14.303-.043.393-.03h1.198l.628.025M402.823 355.983l.26.284.155.199.106.282.119.87M403.286 366.22l.024-1.718.157-2.791-.004-4.093M404.033 355.805l-.144.433-.203.806-.223.574M383.088 373.88l.503 6.87M246.932 113.975l-2.686-3.966M249.889 119.976l-.8-2.103-.948-1.977-1.21-1.921" clip-path="url(#pb68871c497)" style="fill:none;stroke:#000"/><path d="m236.991 114.7 7.205-.198 2.736-.527M237.82 101.194l-.017-3.632M237.82 101.194l7.203-.016M237.82 101.194l-.31 8.042M237.82 101.194l-.466-.013M244.246 110.009l-4.313-6.432-2.113-2.383M428.018 418.422l.376 1.647M425.518 419.702l.724-.206.648-.248.612-.335.516-.491M425.283 402.898l.066.984.322 1.998.26 1.062.959 4.91 1.128 6.57M236.462 630.138l6.76-6.359 3.057-3.006 1.62-1.817 2.049-1.9 2.875-2.874 9.735-9.663 9.008-9.349 5.453-5.6 6.958-7.35 4.132-4.204 5.173-5.08 28.368-29.79 5.62-6.128 2.14-2.164 2.52-2.65 2.512-2.528 2.083-1.99.719-.72.95-1.114.57-.495.636-.422.793-.524 1.092-.657.884-.305 3.073-1.256 2.86-1.239 2.528-1.503 4.306-3.122 4.379-3.163 1.587-1.362.595-.628.537-.743.777-1.24 1.363-2.164 1.67-2.395 1.09-1.734.843-1.462.917-1.536.471-.442.389-.458.48-.735.834-1.627 1.198-2.214.9-1.833 1.075-1.883 1.124-2.024 1.446-2.7 1.24-2.049.619-1.338.455-1.19.272-1.262.413-2.222.29-2.238.083-2.85.38-5.765.545-5.088.909-4.492.975-6.773.496-3.519.314-3.303.38-5.137.462-3.353.583-4.077.269-.829.363-.71 1.091-1.256 2.645-2.965 1.897-1.982 1.325-1.272 1.199-.71 1.561-.752 1.29-.397 2.713-.701 1.554-.265.46-.02.503.05.521.11.873.276 1.519.542.467.174.57.124 1.088.147 2.073.043.67.02.59.104.909.148 1.455.017 2.222-.248 3.801-.38 2.34-.38 2.296-.24 2.227-.276M428.394 420.07l-.889-.162-.867-.065-1.12-.141M519.57 578.892l-1.513-1.289-1.996-1.763-1.12-1.098-.384-.273-.342-.198-.77-.397-1.114-.755-2.306-1.652-1.839-1.19-1.177-.462-.744-.285-1.33-.681-1.083-.686-.444-.276-.314-.157-.347-.13-.345-.09-.913-.057-1.405-.157-.578-.182-.422-.248-.537-.404-.413-.52-1.075-1.545-.917-1.09-2.058-2.032-1.305-1.23-1.735-1.62-1.298-.95-1.632-1.035-.772-.389-.88-.244-1.153-.206-1.595-.206-.661-.145-.323-.19-.417-.372-.88-.995-.516-.578-.492-.487-.95-.934-.723-.867-.306-.375-.161-.302-.132-.297-.292-.368-.311-.268-1.174-.95-1.38-1.05-.942-.957-.921-.916-.467-.372-.414-.31-.462-.21-.893-.364-1.85-.537-2.653-.917-1.86-.904-.644-.433-.504-.496-.496-.669-.455-.867-1.148-2.503-1.322-2.725-1.223-2.395-1.554-2.974-1.008-2.122-.942-2.106-1.339-2.726-.975-2.122-.413-1.057-.396-1.33-.455-1.743-.298-1.132-.23-1.172-.191-1.28-.157-1.636-.157-1.52-.455-1.767-.264-1.115-.305-.908-.356-.958-.198-.86-.19-1.172-.232-1.627-.455-1.808-.462-1.413-.529-1.734-.603-1.933-.67-1.793-.62-1.296-.694-1.363-.933-1.924-.71-1.561-.67-1.767-.587-1.702-.495-1.792-.612-1.842-.397-1.75-.364-1.727-.24-.982-.528-2.173-.579-2.51-.446-1.76-.801-2.94-.653-2.858-.694-2.824-.529-1.718-.388-1.85-.603-3.213-.422-2.47-.43-2.543-.562-3.354-.594-3.741-.604-2.998-.537-2.726-.694-3.32-2.128-10.86M462.554 383.787l.36.233M477.165 373.273l-.347.517-1.26 1.028-5.553 3.906-6.34 4.082-1.111.98M425.283 402.898l14.046-4.507M439.33 398.391l9.696-2.763 1.301-.4 1.487-.568 1.705-.88M453.519 393.78l-.23-.384M453.519 393.78l1.088-.605 1.51-1.035 1.21-1.035.82-.935.849-1.11M458.996 389.06l3.528-4.566.39-.474M462.915 384.02l1.338-1.05 2.173-1.339 2.686-1.693 1.934-1.313 4.545-3.22 2.05-1.405.623-.694M467.963 369.136l4.942-2.04M465.338 357.684l-.48-4.453M469.939 357.18l-1.265.145-1.008.033-1.148.165-1.18.161M460.944 357.855l1.582-.01 2.812-.16M399.477 392.24l-.212-6.397M398.808 379.054l.09 1.966.367 4.823M373.491 382.214l-.066-.768-.111-.591-.07-.42-.013-.418.037-.558.104-.52.14-.909.132-1.14.38-1.791.303-2.501M397.674 363.983l.631 6.731M394.33 369.183l.191 1.885M395.237 379.575l3.571-.52M380.285 381.206l.079-1.891-.55-5.541M380.285 381.206l-6.794 1.008M380.285 381.206l3.306-.456M469.939 357.18l.04.615.094.135 2.832 9.165M453.086 366.094l.615-11.322M453.086 366.094l-.372 6.862M397.106 356.862l-1.051-1.437-2.339-3.056-2.95-3.964-1.85-2.577-2.745-3.312-1.868-2.413M403.286 366.22l.096 2.584M397.534 357.448l4.549 6.092.541.8.314.74.348 1.14M418.685 359.574l-.476-3.29M410.166 368.199l-.17-1.492-.125-1.932.174-2.33.14-1.49.066-.397.124-.223.15-.165.206-.108.343-.049 2.764-.103 4.847-.336M410.166 368.199l-6.784.605M410.166 368.199l4.452-.356M403.859 377.684l-.326-5.845-.151-3.035M430.678 324.258l1.125 16.515M479.914 353.545l.405-1.859M478.066 352.964l.36.037.384.017.43.074.289.144.385.309M461.15 372.055l-1.404.619M461.15 372.055l-2.29-6.087M461.37 372.763l-.116-.215-.072-.287-.031-.206M397.534 357.448l-.428-.586M402.823 355.983l-.765.115-1 .095-.773.14-1.342.314-.52.161-.348.215-.54.425M402.823 355.983l1.21-.178M398.363 348.45l.599 1.081.437 1.611 1.22 2.094 1.29 2.001.914.746M354.068 402.333l.438 1.825M354.506 404.158l1.814 3.797M365.42 400.15l-1.51.149M383.51 403.411l-1.38-.033-1.71-.388-3.892-1.421M390.726 401.877l-3.09.73-2.56.576-1.565.228M390.726 401.877l5.098-.838M402.778 401.956l-4.509-.729-1.315-.143-1.13-.045M402.778 401.956l8.01 1.14M363.91 400.299l.708.353M398.776 378.377l.032.677M398.776 378.377l-.234-3.924M398.776 378.377l-3.456.6M398.776 378.377l5.083-.693M549.975 416.402l-.953 2.127-.967 2.353-.958 3.57-.22 1.593.564 1.56.988 1.282M547.524 431.674l.438-1.825.467-.962M448.305 389.613l-2.751.483M478.264 373.306l-1.099-.033M461.37 372.763l11.714-.091 5.512.191M461.37 372.763l-1.624-.089M344.656 386.199l-3.602-2.368M364.226 383.572l-4.06.595-12.888 1.824-2.622.208M373.491 382.214l-9.265 1.358M459.746 372.674l-3.287.242M452.714 372.956l3.745-.04M430.035 373.85l-9.414 1.352M420.62 375.202l-5.12.736M403.859 377.684l11.642-1.746M383.59 380.75l4.036-.562M380.151 381.74l-.146 1.079M380.151 381.74l-1.143.182M387.626 380.188l3.626-.584M395.32 378.977l-.404-3.998M395.32 378.977l-4.068.627M439.95 373.546l5.363-.05M391.252 379.604l-.884-10.797M398.542 374.453l-.237-3.739M398.542 374.453l-3.626.526M393.092 375.23l1.824-.251M394.916 374.979l-.395-3.911M414.618 367.843l.488 3.989M415.5 375.938l-.394-4.106M411.464 372.29l3.642-.458M444.67 354.289l.017-4.56M469.319 353.009l-1.529.087-1.264.037-1.667.098M237.803 97.562l6.36-.041M237.803 97.562l-.383.003M237.354 101.18l-3.504-.1M237.354 101.18l.066-3.615M237.42 97.565l-3.305.022M249.889 119.976l1.17 3.076M252.328 110.636l-.166 1.487-1.817 3.106-.456 4.747M232.83 114.525l4.161.175M232.83 114.525l.439-5.776M232.83 114.525l-.568 7.496M252.328 110.636l-6.016-.165M252.328 110.636l-2.86-9.779M246.312 110.471l-2.066-.462M246.312 110.471l-1.29-9.293M245.023 101.178l-.86-3.657M249.468 100.857l-1.388.314-3.057.007M248.823 97.446l.645 3.411M248.823 97.446l3.604-.057M248.823 97.446l-4.66.075M233.85 101.08l.265-3.493M233.85 101.08l-.581 7.67M233.85 101.08l-3.55.09M230.3 101.17l.656-3.584M230.3 101.17l-1.242 6.79M237.51 109.236l6.736.773M237.51 109.236l-4.241-.487M237.51 109.236l-.519 5.464M233.269 108.75l-4.211-.79M261.483 97.062l-3.37.128-5.686.199M230.956 97.586h3.16M229.058 107.96l-.926 5.914M232.262 122.02l4.233.18M232.262 122.02l-5.947-.25M236.991 114.7l-.496 7.5M251.06 123.052l-14.565-.853M324.642 370.085l-5.578-5.872-8.594-9.085-1.455-1.38-1.214-.9-1.422-.908-1.355-.678-3.05-1.024-6.097-1.619-3.108-.974-3.206-1.305-1.85-.967-1.563-1.015-1.405-1.256-4.065-3.625-13.81-13.275-1.486-1.98-.86-1.884-.662-1.888-2.378-23.682-.199-3.337-.074-18.924-.745-18.384.163-3.737.574-2.778.602-2.444 3.213-13.893.697-3.717.495-2.882.541-1.524 1.138-3.14 3.847-8.448 1.003-2.68.413-4.105.46-3.085-.08-3.308-.56-2.344-.911-2.403-5.075-12.971-.527-2.583-.132-1.886.033-2.489.136-9.902-.104-2.142-.588-2.168-.95-2.52-12.84-33.411-.955-2.51M225.19 133.069l3.306-3.997 2.545-4.097 1.256-.991 3.67-1.388.528-.397M470.236 353.744l-.297 3.436M470.236 353.744l.715-.545M469.319 353.009l.376.347.541.388M416.886 355.058l2.225-.061M404.033 355.805l.678.03.938.082.694-.054.235-.066.222-.085.233-.153.409-.204.446-.149.48-.087.462-.012.731.029 2.523.076 2.01-.076 2.792-.078M418.21 356.284l-.484-.52-.376-.33-.464-.376M418.21 356.284l.901-1.287M493.92 363.93l-.078.124-.092.111-.16.126-.24.151M520.875 356.193l.107 1.694M529.84 351.213l-3.718 1.11-1.698.661-.525.248-.31.19-.256.252-.479.636-.632.685-.727.719-.62.48M517.646 358.403l.717-.508 1.28-1 1.232-.702M587.718 331.754l.166 1.437.074.35.095.299.26.45.339.57.405.347.389.272.516.215.78.24.534.276.334.334.293.455.232.656.235 1.17-.032.9-.075.635-.297.743-.752.992-3.198 3.452-.876 1.016-.587.793-.376.979-.124.487-.037.425.041.384.157.648.252.827.286.697.487.686.595.673.339.467.107.34.022.224.017.18-.052.094-.074.099-1.131.987-.463.318-.406.196-.565.223-.337.147-.153.117-.167.164-.298.396-.35.533-.214.303-.22.205-.306.23-.869.55-.983.529-.512.272-.417.269-.508.413-1.07.888-1.893 1.395-1.095.826-.673.558-.5.512-.516.64-.327.495-.314.587-.26.586-.422 1.148-.438 1.347-.52 1.664-.413 1.305-.406 1.015-.45.934-.376.74-.347.511-.574.777-.488.652-.496.772-.652 1.107-.517.76-.306.371-.586.612-.744.61-1.24.748-4.694 2.296-2.474.926-1.016.362-.967.476-.472.12-.536.082-.492-.008-.707-.095-.872-.211-.483-.09h-.326l-.244.036M549.975 416.402l-6.144-1.974-5.223-1.998-3.305-1.223-.942-.334-.578-.367-.294-.24-.186-.306-.038-.18.012-.234.026-.226.1-.495.198-.393.22-.33.23-.599.165-.603.176-1.11-.008-.263-.046-.176-.066-.144-.175-.371-.294-.785-.252-.421-.14-.318-.104-.417-.04-.438.028-.867.074-.995-.041-.723.116-.876.31-1.342.12-.528.156-.45.26-.45.554-1.16.443-.777.392-.446.868-.905 1.376-1.09 1.702-1.131 1.867-1.14.82-.645.248-.156.31-.168.246-.111.265-.155.128-.12.148-.194.139-.231.198-.246.29-.219.332-.188.405-.169.417-.107.43-.12.223-.136.69-.694M529.589 363.47l.342.284 1.046.922.62.507.357.266.213.199.217.287.198.394.107.347.063.353-.002.545-.1.954-.33 1.355-.417 1.585-.364 1.722-.161.64-.132.798-.05.396.02.301.096.294.273.47M341.054 383.831l-5.496-3.612-2.793-1.932-1.769-1.652-6.354-6.55" clip-path="url(#pb68871c497)" style="fill:none;stroke:#000"/><path d="m218.136 381.506.311-.172.24-.045.484.016 1.21.236 5.842 1.272 3.215.767 2.495.323 1.434-.013 1.306-.24 1.657-.144 6.594.397 6.198.247 2.61-.594 2.629-1.156 1.95-1.397 1.942-1.247 1.339-.85 3.9-1.701 2.083-1.206 1.272-.826 1.124-.537.458-.12.653-.04 3.17.308 1.57.034 2.528.066 3.57.024 2.628-.049 1.388-.066 1.19-.182 1.116-.181.751-.149.52-.004.393.049.88.397 1.446.789 2.389 1.04 2.14.942 1.458.59.971.347.773.116.773-.009.855-.095 1.508-.347 2.612-.875 2.586-.9 3.479-1.214 3.239-.992 3.553-1.33 4.752-1.65 3.322-1.05M478.066 352.964l.657-.223.644-.235.463-.327.49-.493M510.892 303.966l-.284.607-.128.351-.129.479-.177.826-.186.537-.351.772-.182.718-.153.505-.103.218-.161.252-.273.323-.484.437-.351.41-.517.664-.999 1.144-.554.491-.487.33-1.017.67-3.487 1.825-2.289 1.222-2.442 1.479-1.202.867-.356.285-.231.31-.19.363-.653 1.363-.81 1.519-.785 1.181-.57 1.016-.636 1.536-1.042 2.47-1.512 2.569-1.446 2.329-.838 1.317-.806 1.247-.318.363-.653.525-.922.603-.305.202-.145.235-.045.211-.025.417.041.967.207 2.106.037.574-.083.565-.132.356-.343.942-1.218 4.188-.695 2.18-.143.654M470.951 353.2l-.277-.038-.52-.107-.6-.062-.235.016M478.066 352.964l-.802.078-1.615-.061-3.148.123-1.55.095M454.505 353.918l-.858.081M453.7 354.772l.18-.357.176-.214.178-.114.27-.17M570.08 338.242l1.43-.5 6.829-2.585 9.38-3.403M587.958 316.88l.909 1.032.339.594.07.203.058.318.012.291-.008.27.02.6.062.288.104.26.153.244.194.4.128.43.07.557.079 1.07.115.768v.302l-.057.307-.133.341-.359.681-.476.773-.255.404-.319.88-.425.855-.57 1.288-.065.287-.02.26.068.514.066.657M529.84 351.213l.265.665.322.929M531.997 350.519l-.467.545-.512.764-.59.979" clip-path="url(#pb68871c497)" style="fill:none;stroke:#000"/><path d="m528.556 362.45.025-.314.045-.298.145-.322.367-.38.579-.421.289-.207.232-.28.173-.41.178-.928.256-.946.12-.566-.005-.5-.082-.577-.314-1.033-.174-.595-.074-.359v-.338l.095-.83.016-.34M531.997 350.519l-1.094.31-1.062.384" clip-path="url(#pb68871c497)" style="fill:none;stroke:#000"/><path d="m521.474 347.769 1.206.025.93.061.562.136.351.145.263.17.18.165.16.202.277.33.397.41.339.227.578.23.653.141.608.144.714.1.463.14.269.157.202.202.215.459M570.08 338.242l.196-.199.182-.21.18-.454.31-.988.59-1.969 1.042-2.957.917-3.221.851-2.643.818-2.56.616-1.743.214-.512.215-.487.158-.397.165-.52.177-.388.24-.318.28-.29.381-.284.392-.129.434-.073 1.793-.236 2.984-.339 2.181-.305 1.9-.173.662.032M531.997 350.519l2.57-.752 3.033-.958 1.686-.545.741-.334.655-.258 1.393-.457 1.02-.239.848-.252 2.582-.834 1.388-.459.934-.367.731-.252.773-.186.785-.214 1.652-.636 1.083-.385 1.215-.342 1.752-.574 1.032-.351.822-.318.86-.347 1.475-.475 2.393-.698 1.169-.36 3.218-.995 1.422-.478.85-.211M528.576 363.42l-.02-.97M529.589 363.47l-.37-.075-.287-.012-.356.037M520.982 357.887l.583-.182.454-.067.34.013.342.09.269.162.214.297.41.748.293.796.12.793.173 2.057.079.578.156.36.183.177.285.074.586.021.86.029 1.334-.198.913-.215" clip-path="url(#pb68871c497)" style="fill:none;stroke:#000"/><path d="m517.646 358.403 1.977-.294 1.36-.222M493.92 363.93l.132-1.096.05-1.355-.034-.76.02-.54.088-.406.109-.353.066-.239.037-.264.05-.25.039-.145.095-.152.147-.143.107-.126.064-.153.087-.382.008-.431.013-.16.051-.2.079-.229.398-.956.278-.83.058-.32.048-.185.036-.128.078-.135.176-.231.347-.368.326-.5.298-.673.417-.677.438-.561.327-.318.165-.242.095-.227.054-.263.19-.916.17-.735.05-.818M435.214 361.109l.828.238.59.26.558.165.422.095.206.062.21.087.167.11.124.138.2.301M398.305 370.714l-3.784.354M364.226 383.572l-.275-1.643-.262-2.185-.077-.32-.097-.111-.115-.066-.143-.032-.632.026-.954.111M510.892 303.966l.286-.686.615-.937.69-.863 1.814-2.35 1.256-1.668 1.075-1.363.52-1.066.182-.652.086-.487-.045-.611-.107-.57-.182-.727-.595-1.131-1.355-1.875-.802-1.392-.888-1.227-.223-.23-.372-.319-.221-.287-.246-.328-.744-.81-.661-.594-.438-.504-.62-1.082-.653-1.065-.57-.843-.429-.768-.24-.752-.314-.693-.314-1.066-.719-2.098-.363-1.37-.067-.629-.103-.54-.124-.28-.409-.451-1.223-1.032-1.496-1.355-2.247-2.51-2.975-2.743-3.173-2.858-2.115-1.932-1.01-1.016-1.461-1.983M529.589 363.47l-.443-.492-.59-.529M218.136 381.506l.187-1.328.695-2.354 1.644-3.47.405-1.139.083-1.396.23-1.04.613-1.264 3.413-5.707.437-.768.054-.276-.004-.273-.091-.475M230.975 405.228l-.628-4.394-2.537-1.387-1.372-.926-.487-.594-.678-1.297-.43-.71-.735-.578-1.512-.917-.43-.322-.33-.67-.397-1.825-.744-1.66-.768-1.065-1.042-.991-.892-1.05-.248-.841.124-.86.546-1.408.049-.367-.062-.425-.266-1.435M547.524 431.674l-.504.495-.38.347-.334.28-.723.36-.884.223-.936.157-.975.042-1.213-.021" clip-path="url(#pb68871c497)" style="fill:none;stroke:#000"/><path d="m519.57 578.892-.042-.71-.339-.78-.57-1.009-.054-.384.132-1.854.463-.822.199-.465.049-.34.546-1.169.81-1.07.061-.342.006-1.222.796-2.461.227-1.4.004-1.615.223-.933.694-1.826.265-1.56.008-1.338-.727-4.683-.279-1.111.13-3.184-.074-.912.223-1.384.413-2.164.971-2.023.116-.463.008-.578-.368-4.94.025-2.159.314-.933.442-.652.756-.897.17-.376.547-3.142-.407-2.465-.45-1.053-.223-.525-.062-.879.02-.438-.45-2.668.277-1.152.57-1.354.517-2.395.185-.488 1.53-7.272.57-1.445.987-5.505.182-1.173.421-1.742.37-.892.295-1.553.223-.793.401-.479 1.492-1.27.202-.386.43-.163.283-.167.57-.818.153-.563 1.256-1.483.042-.51.32-.306 1.59-1.102 1.302-.43 1.463-.561.785-.706 1.173-1.446.62-1.09.586-1.978.153-.698.207-4.315 1.16-3.527.27-.644.842-1.301.306-.86.64-3.001.43-1.032 1.013-2.788.489-.724 1.307-.822.135-.345-.107-2.495-.151-.495.05-.995-1.238-5.464.064-.57.145-1.059-.046-.803-.624-2.804-.33-1.532-.537-1.747.012-2.726.48-4.281-.15-2.734.066-1.305M521.474 347.769l-3.27-.466M453.647 354l-.05-.557-.012-1.908.017-3.469-.132-2.494-.042-1.883.1-2.222.074-1.123.07-.405.103-.392.174-.504.235-.578.149-.595.111-.702.125-.846.074-.667-.008-.277-.058-.207-.124-.32M379.008 381.922l.164 1.175M379.172 383.097l.215-.146.19-.074.428-.058M375.983 384.3l2.181.107.273-.023.178-.048.148-.087.174-.206.235-.946M382.71 356.066l10.842.966 3.554-.17M230.975 405.228l-8.462-2.379-8.395-2.71-7.67-3.435-5.155-2.709-5.834-7.119-1.802-2.346-3.966-6.904-1.703-1.834-1.371-1.239-1.802-.743-3.04-.38-5.042 1.057-31.103 6.822" clip-path="url(#pb68871c497)" style="fill:none;stroke:#000"/></g><path id="PatchCollection_1" d="m56.902 384.955 14.015 13.348 4.55 15.384-.07 20.269-.001 17.561-.444 14.606-1.716 14.22-5.062 13.212-.783 11.986-3.21 8.185.052 19.007 7.996 10.931 14.726 6.724 16.565 6.118 22.038 8.776 23.966 12.101 11.991 8.944 17.944 2.676 14.434 9.005 12.81 11.799 10.887 10.818 7.087 5.82 10.445 7.536 1.579 1.495 4.407 4.953 2.431 4.838 5.528 3.97 12.631 23.04 2.32 3.897 2.72 6.115-.305 12.232-3.16 6.354-4.737 12.71-3.036 23.51-4.035 13.428-3.718 10.692-9.095 3.43-4.763 10.783-13.586 11.642-17.503 11.132-12.605 6.142 1.279 13.5.244 16.728.953 13.035 3.156 11.191 1.114 5.808 1.578 7.945-2.813 19.451-.14 9.027.88 18.71-28.448 2.832-9.566-11.124-7.48-9.389-16.545-25.456-6.79-6.153-5.233-11.09-.267-14.685 3.391-12.799 4.507-11.918 8.23-10.889 8.404-8 7.666-8.086 9.1-10.537 15.81-6.957 13.442-9.672 18.643-12.268 9.738-2.745 13.578-9.815 3.91-16.025 2.455-12.993 2.338-7.022 1.884-9.55.206-10.817-.314-10.468-5.2-6.243-10.555-6.85-11.562-5.693-11.91-6.395-11.497-6.742-7.953-6.28-13.32-7.146-11.846-5.808-13.088-5.944-7.818-1.595-14.077-.544-7.675-.715-13.88.346-11.764-.3-11.036-1.493-8.718-2.928-8.008-4.286-11.756-8.735-12.92-10.982-10.892-12.403-5.132-11.079-1.27-6.997-3.136-8.37-2.604-14.28-3.714-11.529-1.003-15.202-.397-22.936 4.97-16.854 6.11-21.337 3.83-13.173-.44-8.667-2.072-3.68.178-8.499-4.255-3.293 16.24-7.1 9.514-23.075zm128.171 464.273.646-1.838.736-1.308-.851-2.885-2.04-2.116-3.364-1.712-2.355 1.37-.158 5.693 1.969 4.084 3.05-.165z" clip-path="url(#pb68871c497)" style="fill:#00f;fill-opacity:.8"/><g id="PatchCollection_2"><path d="m455.472 389.344.225.464-1.118.543.1.207 1.136-.552.318.655-2.445 1.188-.417-.858.223-.109-.227-.467zm-1.461 1.56.322-.153-.105-.222-.323.153zM245.192 96.34l.008.301-.143.005.016.549 2.269-.063-.016-.598-.895.025-.011-.398-.532.014.005.145zM441.61 370.438l.01.613.71-.011.006.368-.937.015.01.67 2.645-.043-.01-.64-.808.014-.005-.337.796-.013-.01-.674z" clip-path="url(#pb68871c497)" style="fill:#a9a9a9;fill-opacity:.8"/></g></g></g><defs><clipPath id="pb68871c497"><path d="M136.695 86.4h464.611v554.4H136.695z"/></clipPath></defs></svg>