<svg xmlns="http://www.w3.org/2000/svg" width="960" height="960" viewBox="0 0 720 720"><defs><style>*{stroke-linejoin:round;stroke-linecap:butt}</style></defs><g id="figure_1"><path id="patch_1" d="M0 720h720V0H0z" style="fill:#fff"/><g id="axes_1"><path id="patch_2" d="M128.341 640.8H609.66V86.4H128.34z" style="fill:#fff"/><g id="LineCollection_1"><path d="m281.358 332.719.052 2.751M281.358 332.719l.724-.013M281.358 332.719l-6.185.027M281.358 332.719l.008-.555M259.679 571.173l7.691.106M259.987 625.12l-.238-10.064-.07-43.883" clip-path="url(#p399fe0a9a7)" style="fill:none;stroke:#000"/><path d="m259.956 413.64-.03 5.348-.265 11.975-.16 74.72-.044 21.017.142 27.814.08 16.66M256.32 332.646l.593.156.62.143.59.092.3-.029M155.944 331.816l49.007.247 22.156.194 17.895.052 11.318.337M258.423 332.183l-.764.322-.676.068-.663.073M273.453 353.328l.026 4.631M273.453 353.328l.924-.014.57.04M273.453 353.328l-.006-1.008M273.453 353.328l-6.666-.057M273.66 332.715l1.513.03M273.66 332.715l-.11 9.439M273.66 332.715l-5.26-.062M273.66 332.715l-.003-.546M275.173 332.746l-.006-.545M275.173 332.746l-.035 7.418M266.91 352.337l-7.13-.15M266.91 352.337l-.123.934M267.424 345.945l-.04 4.715-.076.665-.163.475-.234.537M266.91 352.337l6.537-.017M280.288 352.47l.013.915M280.288 352.47l-.757-.005-4.593-.15M280.288 352.47l1.737-.019M273.347 364.757l-.018 4.711M273.347 364.757l1.539.009M273.347 364.757l.036-.81M273.347 364.757l-5.552-.035M259.687 364.493l-.03 4.995M259.687 364.493l-.008-.801M259.687 364.493l6.18.132M273.383 363.947l-5.562-.062M273.383 363.947l.079-4.86M273.383 363.947l1.555.026M282.082 332.706l.001-.546M282.082 332.706l6.437-.128M282.082 332.706l.018 2.747M273.736 317.5l1.591.105M273.736 317.5l-2.29-.15M273.736 317.5v2.165l.01 2.307-.09 10.197M273.55 342.154l-.035 3.865M273.55 342.154l-6.064-.128M273.515 346.02l-.026 2.403M273.515 346.02l-6.091-.075M275.138 340.164l6.36.09M275.138 340.164l-.023 3.874M281.499 340.254l.574.003M281.499 340.254l.424.573M281.499 340.254l-.089-4.784M282.025 352.451l-.026-3.823M282.025 352.451l.022.965M282.025 352.451l6.423.014M275.053 348.45l6.946.178M275.053 348.45l-1.564-.027M275.053 348.45l.018-1.004.044-3.408M275.053 348.45l-.115 3.865M281.999 348.628l.039-1.2M275.115 344.038l6.879-.009M281.994 344.03l-.071-3.203M281.994 344.03l.044 2.641M274.841 369.432l.045-4.666M274.841 369.432l-1.512.036M274.841 369.432l-.027 1.04M274.841 369.432l5.489.17M274.814 370.471l5.518-.017M274.814 370.471l-1.529-.035M274.814 370.471l-.088 4.764M280.332 370.454l-.002-.852M280.332 370.454l1.538.062M288.519 332.578l-.071 2.937M288.519 332.578l.53.004M288.519 332.578l.005-.44M288.536 340.208l-6.463.049M288.536 340.208l-.048 6.595M288.536 340.208l.549.009M288.536 340.208l-.088-4.693M288.448 352.465l.009 1.066M288.448 352.465l.013-4.993M288.448 352.465l.521.009M288.457 353.53h.512M288.457 353.53l-.005 4.663M288.457 353.53l-6.41-.114M288.452 358.193l-8.13-.146M288.452 358.193l.014.99M288.452 358.193h.429M288.466 359.183h.433M288.466 359.183l-.022 4.91M288.466 359.183l-8.17-.07M288.444 364.092l-8.121-.092M288.444 364.092l-.005.832M288.444 364.092l.499.014M288.44 364.924l.494.027M288.44 364.924l-.063 4.86M288.44 364.924l-8.1-.096M288.377 369.784l-8.047-.182M288.377 369.784l-.018.833M288.377 369.784l.46-.017M288.36 370.617l.464.009M288.36 370.617l-.022 4.73M288.36 370.617l-5.72-.075M282.038 347.428l6.423.044M282.038 347.428v-.757M288.461 347.472l.491-.013M288.461 347.472l.027-.67M282.003 321.223l-.062-3.495M282.003 321.223h-.787M282.003 321.223l.009.397M259.635 370.164l.052 4.913M259.635 370.164l.022-.676M259.635 370.164l6.276.096M259.657 369.488l6.228-.003M273.285 370.436l-.044 4.773M273.285 370.436l.044-.968M273.285 370.436l-5.11-.176M259.73 384.658l-.025 4.129M259.73 384.658l-.02-.686M259.73 384.658l8.524.069M273.175 384.776l-.075 4.257M273.175 384.776l.017-.652M273.175 384.776l-4.92-.049M273.192 384.124l-4.92.004M273.192 384.124l-.017-3.931M259.71 383.972l-.009-3.856M259.71 383.972l8.562.156M259.714 375.799l-.033 3.595M259.714 375.799l-.027-.722M259.714 375.799l8.558.053M273.25 375.781l-.08 3.69M273.25 375.781l1.468.036M273.25 375.781l-.01-.572M273.25 375.781l-4.978.07M273.24 375.209l-4.977-.018M273.24 375.209l1.486.026M259.687 375.077l8.576.114M268.166 369.503l-2.281-.018M268.166 369.503l.01.757M268.166 369.503l5.163-.035M268.254 384.727l.018-.599M268.254 384.727l.054 4.139M259.701 380.116l-.02-.722M259.701 380.116l8.483.033M273.175 380.193l-.005-.722M273.175 380.193l-4.991-.044M273.17 379.47l-4.986-.017M259.681 379.394l8.503.059M267.795 364.722l.026-.837M267.795 364.722l-1.928-.097M267.772 357.973l-1.03-.009M267.772 357.973l.014 1.017M267.772 357.973l5.707-.014M265.876 363.86l-6.197-.168M265.876 363.86l-.009.765M265.876 363.86l1.945.025M265.885 369.485l-.018-4.86M265.885 369.485l.026.775M266.743 357.964l.044-4.693M266.743 357.964l-7.047-.005M275.354 321.637l.018-.457M275.354 321.637l4.306.01 1.582-.027M275.354 321.637l-.187 10.564M281.242 321.62l.124 10.544M281.242 321.62h.77M281.242 321.62l-.026-.397M281.216 321.223l-5.844-.043M281.216 321.223l-.018-3.513M275.372 321.18l-.045-3.575M288.488 346.803l-6.45-.132M288.488 346.803l.477-.009M288.965 346.794l.12-6.577M288.965 346.794l4.593.027M288.965 346.794l-.013.665M289.049 332.582l-.015-.44M289.049 332.582l2.26-.048 2.404-.132M289.049 332.582l-.005 2.928M293.713 332.402l-.155 14.419M293.713 332.402l.543-.242M293.713 332.402v-.348M293.55 347.446l4.345.052M293.55 347.446l.008-.625M288.952 347.459l2.29.005 2.307-.018M281.41 335.47l.69-.017M288.448 335.515l.596-.005M282.1 335.453l.933.009 4.292.018 1.123.035M334.405 331.905l-4.43.044M334.405 331.905l.03 5.366M344.2 331.887l-6.374.018h-3.421M334.493 352.826l-27.47-.088M334.493 352.826l-.08-4.931M334.493 352.826l9.93-.08M334.511 353.988l-.005-.447-.013-.715M334.511 353.988l.141 4.526M334.511 353.988l9.979.015M334.511 353.988l-27.479-.343M334.652 358.514l-27.655-.247M334.652 358.514v.898M334.652 358.514h9.885M281.87 370.516l.77.026M281.87 370.516l-.009 4.763M282.64 370.542l.038 4.759M288.322 375.873l.029 4.425M288.322 375.873l.537.005M288.322 375.873l.016-.526M288.322 375.873l-5.639-.048M288.338 375.347l-5.66-.046M288.338 375.347l.526-.006M282.678 375.301l-.817-.022M282.678 375.301l.005.524M281.861 375.28l-7.135-.045M281.861 375.28l-.022.54M294.256 332.16l3.926-.097M294.256 332.16l-.543-.106M334.423 347.472l-4.289-.105M334.423 347.472l-.01-4.904M334.423 347.472l-.01.423M334.423 347.472l.64.23M334.413 347.895l.65-.193M334.413 347.895l-4.323-.07M298.182 332.063l-.283 14.802M298.182 332.063l4.5.026M297.9 346.865l-4.342-.044M297.9 346.865l-.005.633M297.9 346.865l4.614.105M302.682 332.09l-.168 14.88M302.682 332.09l4.332.008M302.514 346.97l.005.568M302.514 346.97l4.642.08M307.014 332.098l.142 14.952M311.78 332.116h-3.722l-1.044-.018M307.156 347.05l.013.572M307.156 347.05l4.465.035M311.78 332.116l-.159 14.97M311.78 332.116l4.403.009M311.621 347.085l.009.546M311.621 347.085l4.394.114M320.427 332.054l-1.475.025M320.427 332.054l4.986-.035M320.984 347.375l-.054-3.073-.106-3.53-.397-8.718M320.984 347.375l-4.969-.176M320.984 347.375v.41M320.984 347.375l4.74.01M325.413 332.02l.17 4.333M325.413 332.02l.955-.016M325.724 347.384l-.005.44M325.583 336.353l.1 6.603.041 4.428M325.724 347.384l4.41-.017M259.705 388.787l.044 5.195M259.705 388.787l5.791.079M273.1 389.033l-4.792-.167M273.1 389.033l1.52.009M274.62 389.042l2.865.041M274.62 389.042l.123-11.051-.025-2.174M344.2 331.887l9.938.07M344.2 331.887l.078 5.464M344.54 384.367l-.047-3.57M344.54 384.367l-1.896-.043M344.54 384.367l9.44.105M344.54 384.367l.138 3.319M329.975 331.949l.06 2.867M329.975 331.949l-3.607.055M330.134 347.367l-.044.458M330.072 336.563l.098 4.737.035 2.228-.07 3.839M316.183 332.125l2.769-.046M316.015 347.2l.15-8.837.018-6.238M316.015 347.2v.44M306.767 375.746l-5.455-.134M306.767 375.746v.449M306.767 375.746l.15-5.204M306.767 375.746l7.904.11M314.67 375.856v.339M314.67 375.856l13.89.154M344.561 364.766l.002-5.187M344.561 364.766l9.613-.163M344.561 364.766l-8.83.054M344.572 369.776l-.017-4.28.006-.73M334.81 380.744l.17-4.382M334.81 380.744l9.683.053M334.81 380.744l-6.19-.116M334.81 380.744l-.016 3.605M334.935 365.311l-.035-.756M334.935 365.311l.16 4.553M334.935 365.311l.796-.49M334.935 365.311l-7.595-.035M344.572 369.776l-9.478.088M344.572 369.776l-.035 1.012M344.572 369.776l9.602.026M288.44 397.145l-.083 4.497M288.44 397.145l.397-.923M288.44 397.145l-.23-.905M288.91 389.146l-.645-.006M288.91 389.146l.007-2.385M288.91 389.146l-.014.848M280.644 389.14l-3.159-.057M280.644 389.14h3.767M280.644 389.14l.05 6.224M288.21 395.435v.805M288.21 395.435l-3.803-.027M288.265 389.14l-.007 3.464-.049 2.83M288.21 395.435l.627.026M288.21 396.24l.627-.018M288.21 396.24l-3.803-.04M280.68 412.599l.12-6.113M280.68 412.599l-3.74-.086M280.68 412.599l3.67.166M259.75 393.982l.194 8.717M264.365 395.575l-.42-.013-.526-.088-.544-.106-.925-.277-1.379-.529-.433-.263-.389-.317M259.944 402.699l.012 10.941M259.944 402.699l1.635-2.827.681-1.18.592-.95.505-.573.61-.564.37-.193M264.338 396.412l.027-.837M264.338 396.412l-.062 9.29M264.338 396.412l2.033-.106 11.008-.123M267.45 277.047l1.034.01M259.466 276.193l.46.229.601.212.734.158 1.096.123.567.009 1.016.026 3.51.097M267.45 277.047l.062 2.888-.106 10.655M280.747 278.122l-.035-.393-.058-.18-.181-.246-.305-.15-.446-.08-.858-.061h-.823l-9.557.044M268.484 277.056l-.114 13.578M267.34 332.644l1.06.009M267.34 332.644l.068.225.135.235.113.188M267.34 332.644l.004-.484M267.34 332.644l-3.66-.026M268.4 332.653l.04-.497M267.656 333.292l.205-.128.272-.216.268-.295M267.362 306.475l.07 22.101M267.362 306.475l1.122.009M267.406 290.59l.018 3.258-.089 9.272.027 3.355M281.667 306.457l.018-3.68M281.667 306.457l-.84.018M281.941 317.728l-.16-6.27-.114-5M281.941 317.728l-.743-.018M281.198 317.71l-1.839.027-2.661-.08-1.37-.052M281.587 290.687l-.778-.01M281.587 290.687l-.327-10.144-.08-.863-.185-.775-.248-.783M281.587 290.687l.098 12.09M267.406 290.59l.964.044M281.685 302.776h-.778M277.485 389.083l-.062 6.325M277.423 395.408l-13.058.167M277.423 395.408l-.044.775M277.423 395.408l3.271-.044M265.496 388.866h2.812M264.365 395.575l-.036-2.606-.01-.845.098-.996.16-.66.344-.642.575-.96M280.809 290.678l.098 12.098M268.37 290.634l5.454-.01h3.139l3.846.054M280.747 278.122l-.115.797-.035.928.035 1.638.115 2.017.036 1.752-.018 2.333.044 3.09M268.493 302.697l-.053-3.548-.07-8.515M280.907 302.776l-.08 3.699M268.493 302.697h7.984l3.474.044.956.035M268.493 302.697l-.009 3.787M280.827 306.475l.371 11.235M268.484 306.484l5.809-.01h6.534M268.502 328.585l-.026-5.961.008-16.14M282.1 335.453l-.027 4.804M282.073 340.257l-.15.57M267.486 342.026l.17-8.734M267.486 342.026l-.062 3.919M267.486 342.026l-7.945.224M267.424 345.945l-7.719-.11M288.952 347.459l.017 5.015M297.895 347.498l4.624.04M302.519 347.538l4.65.084M307.17 347.622l4.46.009M307.17 347.622l-.147 5.116M311.63 347.631l4.385.009M316.015 347.64l4.969.145M320.984 347.785l4.735.04M325.72 347.825h4.37M273.447 352.32l1.491-.005M273.447 352.32l.042-3.897M274.938 352.315l.01 1.039M307.023 352.738l-15.605-.23-2.449-.034M288.97 352.474v1.057M307.023 352.738l.01.907M266.787 353.27l-7.011-.056M274.948 353.354l5.353.03M274.948 353.354v4.623M280.3 353.385l1.747.03M280.3 353.385l.023 4.662M288.97 353.53l10.804.088 7.258.027M288.97 353.53l-.09 4.663M307.032 353.645l-.035 4.622M273.48 357.96l-.018 1.126M273.48 357.96l1.468.017M280.323 358.047l-4.845-.07h-.53M274.948 357.977l.026 1.1M280.323 358.047l-.027 1.066M288.88 358.193l18.117.074M288.88 358.193l.019.99M306.997 358.267l.044.96M273.462 359.086l1.512-.008M273.462 359.086l-5.676-.096M274.974 359.078h.504l4.102.035h.716M274.974 359.078l-.036 4.895M267.786 358.99l.035 4.895M267.786 358.99l-8.099.008M280.296 359.113l.027 4.887M288.899 359.183l12.917.01 5.225.034M288.899 359.183l.044 4.923M307.041 359.227l-.07 5.01M307.041 359.227l10.176.01 9.177.034 8.258.141M274.938 363.973l5.385.027M274.938 363.973l-.052.793M280.323 364l.017.828M288.943 364.106l18.027.131M288.943 364.106l-.009.845M306.97 364.237l-.026.89M306.97 364.237l6.728.077M334.9 364.555l-7.621-.087M334.9 364.555l-.248-5.143M334.9 364.555l.831.265M274.886 364.766l5.454.062M280.34 364.828l-.01 4.774M288.934 364.95l18.01.177M288.934 364.95l-.097 4.817M306.944 365.127l6.754.05M306.944 365.127l.009 4.78M306.953 369.908l-10.733-.097-7.383-.044M288.837 369.767l-.013.859M306.953 369.908l-.036.634M306.953 369.908l16.736-.07M335.094 369.864l-11.405-.026M335.094 369.864l.009 1.004M268.175 370.26l.088 4.93M268.175 370.26h-2.264M288.824 370.626l6.661-.022 7.312-.15 4.12.088M288.824 370.626l.04 4.715M306.917 370.542l10.858.036 5.933.054M335.103 370.868l9.434-.08M335.103 370.868l-.088 5.133M323.708 370.632l2.651.025 8.744.21M268.263 375.19l.01.662M274.726 375.235l-.008.582M288.864 375.34l-.005.538M288.864 375.34l11.674.253M268.272 375.852l-.088 3.601M274.718 375.817l7.12.004M335.015 376.001l-.035.361M335.015 376.001l-6.454.009M335.015 376.001l9.468.115M344.483 376.116l.054-5.328M344.483 376.116v.378M344.483 376.116l9.664.008M288.86 375.878l11.687.18M288.86 375.878l.048 4.429M306.767 376.195h7.904M306.767 376.195l-5.446-.097M334.98 376.362l9.503.132M334.98 376.362l-6.41-.017M344.483 376.494l.01 4.303M344.483 376.494l9.629.172M268.184 379.453v.696M268.184 380.149l.088 3.98M288.265 389.14h-3.854M288.303 383.564l-.03 3.232-.008 2.344M280.694 395.364l.009.845M280.694 395.364l3.713.044M280.703 396.21l.005 5.379M280.703 396.21l3.704-.01M280.703 396.21l-3.324-.027M288.837 395.46l.023-2.136M288.837 395.46v.762M288.837 395.46l1.054.478M288.837 396.222l1.054-.284M259.993 627.308l1.379-.973M259.993 627.308l-.006-2.188M268.425 626.758l11.783.325.548-.061.778-.186" clip-path="url(#p399fe0a9a7)" style="fill:none;stroke:#000"/><path d="m288.342 630.138-4.77-.075-.252-.14-.19-.185-1.596-2.902M281.48 612.256l-.017 4.525.106 8.559-.035 1.496M268.425 626.758l-7.053-.423M268.391 611.85l.014 2.863.203 5.38.097 1.927-.115 2.756-.165 1.982M267.37 571.279l2.644.008M268.352 609.368l-.425-.669-.194-.449-.097-.564-.08-1.558-.15-4.156v-4.103l.035-6.18-.035-4.632.018-6.163.035-5.098-.009-2.422-.08-2.095M282.507 571.367l-12.493-.08M282.507 571.367l-.327 9.227M565.064 570.662l-5.243-.194-9.248-.158-7.267.018-28.576.158-18.16.194-22.898.281-14.906.37-18.85.053-13.898.018-16.693-.423-23.182.124-53.736.281-15.243.07-18.566.16-16.091-.247M268.51 600.22l-.026-20.057M268.51 600.22l12.652.247M268.352 609.368l.044-4.085.115-5.063M282.056 600.484l-.575 11.772M282.056 600.484l-.894-.017M282.18 580.594l.097 9.474-.221 10.416M268.391 611.85l-.04-2.482" clip-path="url(#p399fe0a9a7)" style="fill:none;stroke:#000"/><path d="m281.48 612.256-1.042.476-.407.145-.358.057-.624.026h-7.629l-.787-.021-.663-.097-.495-.18-.544-.331-.54-.48M579.49 624.735l-.092-12.942M565.656 612.045l.09 12.41 13.745.28M578.68 570.495l.358 17.311M565.064 570.662l1.919.423 1.52.088 10.177-.678M565.656 612.045l.124-12.327M565.656 612.045l13.742-.252M579.398 611.793l-.11-12.003M565.78 599.718l13.508.072M565.65 587.828l.104.541.079 1.998.027 3.575-.08 5.776M579.288 599.79l-.25-11.984M259.037 211.359l.067 3.457M155.926 212.943l1.866.07 25.003-.3 20.176-.36 18.425-.431 34.57-.564h3.071M281.005 211.209l-18.002-.133-3.966.283" clip-path="url(#p399fe0a9a7)" style="fill:none;stroke:#000"/><path d="m137.597 212.961 17.056-.211 1.273.193M155.944 331.816l-.044-23.985.363-40.118.035-38.383-.133-14.256-.07-1.25-.169-.88M155.944 331.816l-11.347.106M259.466 276.193l.107 8.269.106 17.381-.571 27.103M259.108 328.946l-.315 1.817-.239 1.248" clip-path="url(#p399fe0a9a7)" style="fill:none;stroke:#000"/><path d="m259.722 332.011-.16-.61-.282-1.423-.172-1.032M258.423 333.008l.131.172M258.423 332.183l-.083.199-.028.213.028.214.083.2M258.554 333.18l.075.576.222.929.312 1.537M258.554 333.18l.17.13.2.083.214.028.214-.028.199-.082M259.163 336.222l.378 6.028" clip-path="url(#p399fe0a9a7)" style="fill:none;stroke:#000"/><path d="m259.163 336.222.198-1.311.15-1.029.04-.571M259.54 342.25l.165 3.585M259.705 345.835l.075 6.353M259.78 352.188l-.004 1.026M259.776 353.214l-.08 4.745M259.696 357.96l-.009 1.038M259.687 358.998l-.008 4.694M288.908 380.307l11.572.06M288.908 380.307l-.557-.009M288.908 380.307l.035 3.267M344.493 380.797l9.488.015M364.9 380.744l-10.919.068M364.9 380.744l2.152-3.968M364.9 380.744l-2.221 3.798M364.9 380.744l8.44-.143M344.43 416.98l.85-1.574M344.43 416.98l.015-2.274M341.76 424.852l1.822-5.635.849-2.237M341.02 435.993l-.09-3.533.088-2.148.203-1.876.54-3.584" clip-path="url(#p399fe0a9a7)" style="fill:none;stroke:#000"/><path d="m341.999 412.265-.026.965-.212 11.622M273.215 412.47l-2.458.05-3.484.48-2.894.258-4.423.382M277.379 396.183l.003 1.669M276.94 412.513l-3.725-.043M277.001 406.276l.006 2.551-.067 3.686M284.35 412.765l.026-6.224M288.322 410.266l-.011 1.766-.08.326-.165.39-1.64.077-2.076-.06M284.407 396.2v-.792M284.407 396.2l-.072 5.442M284.407 395.408l.004-6.268M300.547 376.059l.774.04M300.547 376.059l-.009-.466M300.48 380.367l.037-2.364.03-1.944M300.48 380.367l-.035 3.374" clip-path="url(#p399fe0a9a7)" style="fill:none;stroke:#000"/><path d="m301.25 380.371-.4-.004h-.37M314.67 376.195l13.9.15M314.67 376.195l.037 4.245M314.707 380.44l13.914.188M314.707 380.44l-13.457-.069M314.707 380.44l.034 3.618M328.57 376.345l.05 4.283M328.57 376.345l-.01-.335M328.62 380.628l-.05 3.545M328.57 384.173l-13.829-.115M328.57 384.173l6.224.176M328.57 384.173l.035 2.898M344.377 347.807l-.07-5.176M344.377 347.807l.045 4.94M344.377 347.807l9.85.264M335.063 347.702l3.895.026 5.42.079M354.227 348.071l9.54.053M354.227 348.071l-.014 4.737M354.227 348.071l.017-5.512M334.652 359.412l9.911.167M344.563 359.58l-.026-1.066M354.19 359.5l-4.109.048-5.518.031M367.454 376.16l-3.802-.036M367.454 376.16l-.402.616M367.454 376.16l6.369.264M370.687 370.866l-1.837 3.04-1.396 2.254M367.052 376.776l-3.427-.035M354.147 376.124l-.035.542M354.147 376.124l.027-5.321M363.652 376.124l-5.102.018-4.403-.018M354.112 376.666l-.13 4.146M354.112 376.666l4.461.021 5.052.054M353.981 380.812l-.002 3.66M353.98 384.472l8.699.07M353.98 384.472l.003 3.35M362.679 384.542l-2.02 3.674M362.679 384.542l11.218.092M300.445 383.74l.75.018M288.943 383.574l3.944-.044 1.923.058 5.635.153M288.943 383.574l-.64-.01M288.943 383.574l-.026 3.187M314.741 384.058l.001 2.95M301.196 383.758l11.784.261 1.761.039M277.246 401.563l3.462.026M277.001 406.276l.174-2.556.07-2.157M277.382 397.852l-.004.582-.047 1.104-.05 1.426-.035.599" clip-path="url(#p399fe0a9a7)" style="fill:none;stroke:#000"/><path d="m273.199 406.207.106-4.53.272-.119.201-.066.347-.044 3.12.115M277.001 406.276l-3.802-.069M277.001 406.276l3.8.21M273.199 406.207l.016 6.263M277.382 397.852l-3.752-.032M374.722 364.655l-.975 1.522M374.722 364.655l-.868-.03M374.722 364.655l20.068.71M363.652 376.124l.105-5.283M363.652 376.124l-.027.617M363.687 364.713l.142-5.125M363.687 364.713l.06 5.141M363.687 364.713l-9.513-.11M363.687 364.713l10.167-.088M363.757 370.841l-.01-.987M363.757 370.841l-9.583-.038M363.757 370.841l6.93.025M344.537 370.788l9.637.015M363.81 354.226l.036 4.376M363.81 354.226l-9.61-.203M363.81 354.226l10.053.185M363.81 354.226l.019-1.119M577.401 332.025l2.577-.041M571.159 331.984l5.377.065.865-.024M577.999 330.187l-.451 1.145-.147.693M577.717 280.481l.334-.05M565.87 280.054l6.585.304 3.934.114 1.328.009M578.011 289.344l.014-1.123-.08-1.215-.317-2.096-.15-.783.061-1.048.15-.846.028-1.752M564.914 281.784l.256-.871.283-.45.417-.409M563.87 279.588l.588.22 1.412.246M563.686 332.033l1.997-.013M482.548 332.028l27.409-.089 16.869-.07 19.95.312 8.854-.03 8.056-.118M564.578 322.175l-.495 5.107-.397 4.751M564.746 289.903l.008 1.941M564.914 281.784l-.027 1.312-.044 2.985-.097 3.822" clip-path="url(#p399fe0a9a7)" style="fill:none;stroke:#000"/><path d="m566.041 290.863-.628-.458-.667-.502M578.001 291.497l.01-2.153M578.001 291.497l-.09 8.48M576.792 290.546l.57.317.64.634M564.785 300.98l.2 8.981M564.785 300.98l-.03-9.136M567.631 302.915l-.71.046-.487-.079-.442-.193-.38-.476-.827-1.234M577.91 299.976l.076.947-.076 2.55" clip-path="url(#p399fe0a9a7)" style="fill:none;stroke:#000"/><path d="m577.822 309.31.018-3.628.07-2.21M576.363 302.776l.61.29.937.406M555.353 210.304l20.48-.381 9.822.062 8.267-.16 6.295.036" clip-path="url(#p399fe0a9a7)" style="fill:none;stroke:#000"/><path d="m578.05 280.43.846-.129.45-.243.487-.352 1.066-1.02 2.011-2.066 1.795-1.836.429-.3.503-.176.641-.1 1.066-.027h6.242l6.217-.046.316-.194.162-.21.117-.29.005-3.147-.085-4.157-.181-9.052-.106-7.511.018-20.209.088-14.115.08-5.389M564.578 322.175l.69.008M564.984 309.961v6.975l-.106 1.655-.3 3.584M577.972 321.954l-8.422-.377M577.948 311.161l.024.36.177 2.57.088 1.418.054 1.127-.116 2.809-.203 2.51" clip-path="url(#p399fe0a9a7)" style="fill:none;stroke:#000"/><path d="m577.961 329.21-.121-3.16.132-4.096M571.159 331.984l-5.476.036M571.159 331.984l-1.609-10.407M565.267 322.183l1.362-.11 1.658-.36.43-.135.454-.061.38.06" clip-path="url(#p399fe0a9a7)" style="fill:none;stroke:#000"/><path d="m569.142 309.537-.267.76-.116.624.09 3.082-.08 2.298.052 1.207.358 1.598.106.498.129 1.11.136.863M569.142 309.537l1.148-.226" clip-path="url(#p399fe0a9a7)" style="fill:none;stroke:#000"/><path d="m564.984 309.961 2.016-.263 2.142-.16M577.822 309.31l.126 1.851M570.29 309.311l1.768-.116.884-.035 2.104.07 2.776.08M570.24 303.02l-2.609-.105M576.363 302.776l-1.697.054-4.425.19M570.094 304.247l.027-.656.12-.572" clip-path="url(#p399fe0a9a7)" style="fill:none;stroke:#000"/><path d="m570.094 304.247.133 2.677.063 2.387M406.53 210.724l17.365-.105 131.458-.315M556.481 274.892l-.192-.306-.127-.448-.063-1.485-.15-15.453-.142-10.901-.454-35.995M394.118 331.957h9.62l19.132-.052 20.83.088 32.89.017 5.958.018M556.481 274.892l-.873-.13-.61-.057-1.114-.049-2.214-.03-10-.15-7.727-.027-7.338.045-14.978.184-13.589.115h-14.91l-.367.026-.15.08-.08.158.017 56.97M270.014 571.287l-.734 1.356-.442.863-.3.855-.15.748.026 1.153.07 3.9M281.162 580.561l-6.17-.196-6.508-.202M282.18 580.594l-1.018-.033M273.657 332.169l-5.217-.013M273.657 332.169l1.51.032M268.44 332.156l.062-3.57M268.44 332.156l-1.096.004M267.344 332.16l-3.652-.027M267.344 332.16l.088-3.584M288.524 332.137l-6.44.023M288.524 332.137l.51.006M282.083 332.16l-.071-10.54M282.083 332.16l-.717.004M281.366 332.164l-6.199.037M284.575 211.033l13.916-.274 9.991.212 9.513-.036 60.085-.37 28.45.16M408.183 97.062l.354 49.124.088 39.959.31 9.692-.177 1.454-2.079 8.414-.221 2.688.072 2.331M409.156 305.095l-.177-11.763.2-45.355-.686-2.732-1.15-2.048-.62-1.63-.193-30.843M284.575 211.033l-3.57.176" clip-path="url(#p399fe0a9a7)" style="fill:none;stroke:#000"/><path d="m283.795 114.464.354 48.33.045 38.065.132 6.829.249 3.345M278.91 212.154l1.944-.545.15-.4M563.87 279.588l.58 1.36.464.836M556.481 274.892l.237.218 1.15.757 3.014 1.761 1.923 1.04.562.435.265.3.238.185M565.267 322.183l.221 2.615.195 7.222M570.094 304.247l-.33-.352-.518-.243-.62-.224-.57-.256-.425-.257M577.91 299.976l-.46 1.321-.477.969-.61.51M576.792 290.546l.548-.334.425-.516.246-.352M564.754 291.844l1.287-.981M577.999 330.187l1.008.97.971.827M577.999 330.187l-.038-.976M566.041 290.863l.331-.013 3.962-.141 6.458-.163M259.987 625.12l1.385 1.215M565.65 587.828l4.215-.04 5.623-.035 3.55.053" clip-path="url(#p399fe0a9a7)" style="fill:none;stroke:#000"/><path d="m565.064 570.662.07 5.61-.008 7.21.089 1.603.167 1.356.268 1.387M577.961 329.21l.4-.581.23-.801.11-.815.036-2.06.07-1.713.125-1.286.026-2.544.04-2.633.027-2.087-.098-1.39-.345-1.533-.247-.317-.387-.289M578.05 280.43l.346-1.912.15-3.214.124-2.898M144.597 331.922l-.008-2.906-.398-14.846-.353-1.718-5.353-10.353-.177-1.454.221-42.116.133-39.298-.22-1.895-.845-4.375" clip-path="url(#p399fe0a9a7)" style="fill:none;stroke:#000"/><path d="M144.678 430.914v-6.212l-.089-28.943.044-37.755-.088-23.172.052-2.91M259.466 276.193l-.017-.678.088-7.45-.16-10.945-.273-42.304M278.91 212.154l-3.873 1.085-2.897.705-9.024.396-4.012.476M327.34 365.276l-.061-.808M327.34 365.276l-13.642-.1M323.69 369.838l.018.794M384.517 331.957l-10.928-.015M384.517 331.957h9.601M384.517 331.957l.065 5.002M363.546 331.922l-9.408.035M363.546 331.922l.115 5.275M373.59 331.942l-1.663-.003-8.381-.017M344.49 354.003l-.068-1.256M344.49 354.003l.047 4.51M344.49 354.003l9.71.02M334.794 384.349l7.85-.025M334.794 384.349l-.07 2.94M334.723 387.29l-.106 3.152M334.723 387.29l7.835.162M334.723 387.29l-6.118-.22M334.617 390.442l-.095 3.145M334.617 390.442l7.912.122M334.617 390.442l-6.03-.004M334.496 396.714l.026-3.127M334.496 396.714v3.002M328.7 396.633l4.52.043 1.276.038M342.373 396.95l-3.088-.169-4.79-.067M328.7 396.633l-.093-3.07M328.7 396.633l-.052 2.977M314.684 396.427l5.521.097 6.328.112 2.167-.003M314.66 402.46l-.055 3.101M314.66 402.46l-13.456-.056M328.678 402.709l-13.273-.327-.39-.053-.355.132M314.608 399.335l.081 2.238-.029.888M342.25 402.913l-.092 3.41M342.25 402.913l.08-2.998M342.25 402.913l-7.87.033M342.25 402.913l2.268.103M334.38 402.946l.115-3.23M334.38 402.946l-5.702-.237M334.38 402.946l-.217 3.124M328.678 402.709l-.03-3.1M328.678 402.709l-.1 3.188M342.33 399.915l-7.835-.199M342.33 399.915l.043-2.965M342.33 399.915l2.207.036M334.495 399.716l-5.847-.106M328.648 399.61l-14.04-.275M314.608 399.335l.076-2.908M301.204 402.404l.05-3.155 13.354.086M342.472 393.682l-7.95-.095M342.472 393.682l-.099 3.268M342.472 393.682l.057-3.118M334.522 393.587l-5.915-.023M328.607 393.564l-.02-3.126M328.607 393.564l-13.934-.14M314.673 393.424l.068-3.039M314.673 393.424l.011 3.003M314.673 393.424l-13.662-.158M342.53 390.564l.028-3.112M328.588 390.438l.017-3.367M314.741 390.385l11.088.064 2.759-.01M314.741 390.385l.001-3.377M314.741 390.385l-9.748-.17M342.558 387.452l.086-3.128M314.742 387.008l1.473.02 5.253.012 7.137.03M342.373 396.95l2.27.034M314.742 387.008l-6.166-.107M300.964 396.422l5.407.009 3.664.041 4.649-.045M288.896 389.994l12.162.152M288.896 389.994l-.036 3.33M301.058 390.146l.165-3.373M301.058 390.146l-.042 2.765M301.058 390.146l3.935.069M296.253 386.746l-.325-.002-7.01.017M301.223 386.773l-4.97-.027M301.223 386.773l-.027-3.015M301.223 386.773l7.353.128M301.196 383.758l.054-3.387M300.964 396.422l.047-3.156M300.964 396.422l-11.073-.484M344.642 396.984l-.105 2.967M344.642 396.984l.054-3.249M344.642 396.984l9.215.174M355.8 397.046l1.688-3.067M355.8 397.046l-1.766 3.03M355.8 397.046l-1.943.112M355.8 397.046l18.399.116M353.857 397.158l.086-3.193M353.857 397.158l-.023 2.915M395.07 380.976l-.032 2.351M395.07 380.976l-.129-4.042M384.932 380.791l1.354.066 8.783.119M394.861 371.599l-10.15-.291M394.861 371.599l.08 5.335M394.861 371.599l-.07-6.234M384.712 371.308l-11.078-.226M384.906 376.848l.009-.758-.106-2.078-.097-2.704M370.687 370.866l3.06-4.689M370.687 370.866l2.947.216M394.79 365.365l-.07-4.808M354.19 359.5l9.639.088M354.19 359.5l-.016 5.103M354.19 359.5l.004-.95M363.829 359.588l.017-.986M363.829 359.588l10.008.273M394.72 360.557l-20.883-.696M394.72 360.557v-1.321M373.863 354.41l11.07.274M373.863 354.41l-.062 4.315M373.863 354.41l-.026-1.144M384.932 354.684l9.717.026M384.932 354.684l-.027 4.375M384.932 354.684l-.026-1.33M394.65 354.71l.07 4.526M394.65 354.71l-.036-1.25M363.767 348.124l9.998.07M363.767 348.124l.062 4.983M363.767 348.124l.026-5.6M373.765 348.195l10.965.176M373.765 348.195l.072 5.071M373.765 348.195l-.035-5.39M384.73 348.37l9.653.476M384.73 348.37l.176 4.984M384.73 348.37l-.071-5.475M394.383 348.846l.23 4.614M394.383 348.846l-.198-6.054M384.659 342.895l9.526-.103M384.659 342.895l-10.929-.09M384.659 342.895l-.077-5.936M344.307 342.631l-.029-5.28M344.307 342.631l9.937-.072M344.307 342.631l-9.894-.063M334.413 342.568l.022-5.297M395.35 400.347l.13 7.044.15 15.824-.053 2.624M398.362 428.99l-1.361-1.32-.69-.863-.734-.968" clip-path="url(#p399fe0a9a7)" style="fill:none;stroke:#000"/><path d="m356.4 414.888 2.548.701 7.992 2.149 9.938 2.729 9.885 2.518 3.704 1.04 3.086.739 1.3.52.724.555M394.185 342.792l.004-5.86M394.118 331.957l.071 4.976M394.189 336.933l-9.607.026M384.582 336.959l-10.927.052M373.655 337.011l-9.994.186M373.655 337.011l.075 5.794M373.655 337.011l-.066-5.069M363.661 337.197l-9.448.033M363.661 337.197l.132 5.327M354.213 337.23l-9.935.121M354.213 337.23l.031 5.329M354.213 337.23l-.075-5.273M344.278 337.351l-9.843-.08M373.854 364.625l-.017-4.764M373.854 364.625l-.107 1.552M373.837 359.861l-.036-1.136M373.73 342.805l-9.937-.281M363.793 342.524l-9.549.035M354.174 370.803v-1M354.174 364.603v5.2M354.2 354.023l-.006 4.526M354.2 354.023l.013-1.215M347.565 411.174l1.533-2.63M347.565 411.174l-.186.344M356.4 414.888l-4.684-1.288-3.042-.89-.583-.321-.31-.37-.115-.234-.101-.611M293.713 332.054l-2.405.035-2.274.054M289.085 340.217l-.04-4.707M263.68 332.618l.012-.485M259.853 333.008l.69-.273 3.136-.117M263.692 332.133l-3.15.14-.689-.09M268.502 328.585l-1.07-.009M344.678 387.686l.018 3.073M344.678 387.686l9.305.136M353.983 387.822l6.675.394M353.998 390.797l.034-1.923-.049-1.052M360.658 388.216l-1.485 2.7M360.658 388.216l13.326.033M344.696 390.759v2.976M344.696 390.759l9.302.038M353.998 390.797l-.055 3.168M353.998 390.797l5.175.118M353.943 393.965l-9.247-.23M353.943 393.965l3.545.014M301.25 380.371l.071-4.273M301.321 376.098l-.01-.486M288.357 401.642l-.006 3.045M288.357 401.642h-4.022M284.335 401.642l.041 4.899M284.335 401.642l-3.627-.053M280.708 401.589l.092 4.897M288.348 406.078l.003-1.39M288.348 406.078l-.026 4.188M288.348 406.078l-3.972.463M284.376 406.541l-3.576-.055M354.034 400.076l-1.89 3.24M354.034 400.076l-.2-.003M354.034 400.076l20.238.132M344.537 399.951l-.02 3.065M344.537 399.951l9.297.122M373.34 380.601l.46.008M373.34 380.601l.472.458M395.038 383.327l.091 4.965M384.826 386.585l1.37-.009.955-.132 2.343-.642 1.6-.564 1.495-.59 2.45-1.32M423.394 379.738l-4.34.502-3.23-.436-7.738 1.743-5.249.368-4.98-.368-2.819 1.78M373.823 376.424l11.083.424M373.823 376.424l-.189-5.342M384.906 376.848l.026 3.943M384.906 376.848l10.035.086M384.826 386.585l.035-1.86M384.826 386.585l-.292 1.684M373.812 381.059l1.369 1.062 1.936 1.4 1.918 1.259 1.31.749 1.325.457 1.468.317 1.688.282M384.932 380.791l-11.132-.182M384.932 380.791l-.071 3.935M344.422 352.747l9.791.061M354.213 352.808l9.616.3M363.829 353.107l10.008.16M373.837 353.266l11.07.088M384.906 353.354l9.708.106M344.537 358.514l9.657.035M354.194 358.55l9.652.052M363.846 358.602l9.955.123M384.905 359.06l-5.162-.106-5.942-.229M394.72 359.236l-9.815-.177M354.174 369.802l9.572.052M281.162 600.467l-.07-5.627.088-6.638-.018-7.64M281.839 375.82l.844.005M300.538 375.593l.774.02M288.303 383.564l.048-3.266M326.392 313.538l-7.408.016M326.392 313.538l-.028 3.028M318.993 310.596l6.685-.097.46.185.221.326.053.422-.02 2.106M318.984 313.554l.009-2.958M318.984 313.554l-.008 2.976M326.364 316.566l-7.388-.036M326.364 316.566l-.028 2.976M318.976 316.53l-.008 2.941M318.993 310.596l.01-3.804M326.336 319.542l-7.368-.07M326.336 319.542l.007 2.906M318.968 319.471l-.009 2.906M326.343 322.448l-7.384-.071M326.343 322.448l.008 3.134M318.96 322.377l-.01 3.276M326.36 328.717h-7.409M326.36 328.717l-.009-3.135M326.36 328.717l.008 3.287M318.951 328.717l-.001-3.064M318.951 328.717l.001 3.362M318.95 325.653l7.401-.07M313.698 365.176v-.862M313.698 364.314l13.581.154M278.91 212.154l.617 1.9.265 1.542-.773 26.632" clip-path="url(#p399fe0a9a7)" style="fill:none;stroke:#000"/><path d="m259.853 333.008.083-.199.028-.214-.028-.213-.083-.2M259.55 333.31l.172-.13.131-.172M258.423 332.183l.131-.172M259.722 332.011l-.171-.13-.2-.083-.213-.029-.213.029-.2.082-.171.131M259.722 332.011l.131.172M373.747 366.177l-.113 4.905M394.899 384.746l-10.038-.02M384.86 384.726l-10.963-.092M395.13 388.292l.055 3.027M395.13 388.292l-10.596-.023M395.185 391.319l.052 2.808M395.185 391.319l-10.685-.12M359.173 390.915l-1.685 3.064M359.173 390.915l14.88.168M357.488 393.979l16.64.245M395.237 394.127l.058 3.171M395.237 394.127l-10.634.068M395.295 397.298l.056 3.049M395.295 397.298l-10.693-.068M395.35 400.347l-10.782-.07M395.24 403.514l-10.705-.05M352.145 403.317l-1.053 1.806M352.145 403.317l-7.627-.301M352.145 403.317l32.39.148M344.518 403.016l-.021 3.362M288.86 393.324l12.151-.058M301.011 393.266l.005-.355M314.523 410.153l-13.438-.169M314.523 410.153l.026-1.436M314.523 410.153l13.91.367M328.385 412.048l-13.862-.204v-1.691M301.085 409.984l.022-1.435M290.698 410.272l8.406.022 1.981-.31M301.204 402.404l-.047 3.017M301.157 405.42l-.025 1.58M301.157 405.42l13.448.141M301.157 405.42l-12.806-.733M314.605 405.561l-.026 1.496M314.605 405.561l13.973.336M328.578 405.897l5.585.173M328.578 405.897l-.05 1.589M342.158 406.322l-.043 1.605M342.158 406.322l2.339.056M342.158 406.322l-7.995-.252M344.497 406.378l-.052 8.328M349.993 407.006l-1.774-.46-3.722-.168M349.993 407.006l1.099-1.883M349.993 407.006l-.895 1.538M342.115 407.927l-.035 1.297M342.115 407.927l-8.131-.251M314.579 407.057l-.03 1.66M314.579 407.057 301.132 407M314.579 407.057l13.95.429M301.132 407l-.025 1.549M301.107 408.549l13.442.168M314.549 408.717l13.936.138M328.485 408.855l5.45.135M328.485 408.855l.043-1.37M328.485 408.855l-.052 1.665M342.08 409.224l-.046 1.746M342.08 409.224l-8.145-.234M342.034 410.97l-.035 1.295M342.034 410.97l-8.163-.243M341.999 412.265l-8.18-.126M341.999 412.265l2.446 2.441M334.163 406.07l-.18 1.606M333.984 407.676l-5.456-.19M333.984 407.676l-.05 1.314M333.935 408.99l-.064 1.737M333.87 410.727l-5.437-.207M333.87 410.727l-.052 1.412M333.818 412.14l-5.433-.092M328.385 412.048l.048-1.528M288.322 410.266l2.376.006M292.47 389.164l1.201-.857 2.582-1.56M301.016 392.911l3.977-2.696M308.576 386.9l-1.121 1.089-2.462 2.226M347.379 411.518l-2.099 3.888M345.185 407.873l1.36 2.55.834 1.095M344.445 414.706l.835.7" clip-path="url(#p399fe0a9a7)" style="fill:none;stroke:#000"/><path d="M337.667 421.69v-1.207l-.067-2.982-.169-1.206-16.116-1.24-5.114-.067-9.05-.67-2.423-.269-5.248-.234-3.466-.268-.908-.77-1.851-.336-2.557-2.17M330.035 334.816l.037 1.747M328.163 336.522l.452-.183 1.42-1.523M328.163 336.522l-2.58-.169M328.163 336.522l1.909.04M348.938 420.584l1.514.837 1.648.1 1.716-2.747 2.456-1.943.472-1.006-.343-.937M360.108 409.492l-2.995.168-4.508-.335-3.507-.781M384.535 403.465l-.169 3.648-8.344-.2-23.854-.67-1.076-1.12M384.535 403.465l.033-3.189M384.568 400.276l-10.296-.068M384.568 400.276l.034-3.046M384.602 397.23l-10.403-.068M384.602 397.23v-3.035M384.603 394.195l-.103-2.996M374.128 394.224l1.886.025 8.589-.054M384.5 391.199l-10.448-.116M384.5 391.199l.034-2.93M384.534 388.269l-10.55-.02M373.8 380.609l.012.45M373.812 381.059l.085 3.575M373.897 384.634l.087 3.615M373.984 388.249l.068 2.834M374.052 391.083l.076 3.14M374.128 394.224l.07 2.938M374.199 397.162l.073 3.046" clip-path="url(#p399fe0a9a7)" style="fill:none;stroke:#000"/></g><g id="PatchCollection_1"><path d="m35.967 504.026.22-12.362 14.74-.162.678-39.566 15.306.26-.142 11.834 14.826.162.028 2.093 14.4.021.453-14.532 14.994-.139-.85-82.98-14.669-.126-.325 60.424-14.853-2.395.141-43.391-.141-8.454-14.712.564.566 66.919-14.995-1.409-.283-21.836-28.883-2.031.018 34.797-.701 52.608zM133.843 451.534l-6.813.101-.424-29.726h14.287v29.585zM125.871 477.393l.036 4.734-7.137-.021.029-30.47h6.79zM177.943 511.612l-7.632-.168.007 5.557-14.146.141-.708-65.225v-46.069h13.156l.99 46.35 14.712-.281.87 59.871zM241.79 488.438l16.226-.176-.241-96.636-15.455.134.425 59.734h-27.613l.588 37.472z" clip-path="url(#p399fe0a9a7)" style="fill:#006400;fill-opacity:.8"/><path d="m213.867 446.407.02 5.087-29.565.423-.142-23.668 15.277.704v4.086l13.864 1.409z" clip-path="url(#p399fe0a9a7)" style="fill:#006400;fill-opacity:.8"/></g><g id="PatchCollection_2"><path d="m273.594 359.696 1.147-.007-.07 3.978-1.177.015zM273.17 347.217l-1.726-.02.08 3.985-.466.404.549.526h1.624zM275.206 359.539l-.049 4.083 4.71.064.016-.945-.996-.064-.048-.48-1.27-.049v-1.136l2.282.032.097-1.505zM277.542 333.48l-.073 6.31 3.606.145.025-6.406zM274.186 357.534l.41-.164.185-.327-.038-3.34-.24-.128-.652-.015-.194.147.028 3.477.235.294z" clip-path="url(#p399fe0a9a7)" style="fill:green;fill-opacity:.8"/></g><g id="PatchCollection_3"><path d="M272.092 309.205h4.703v6.657h-4.703zM273.345 390.917h1.26l-.054 2.136-1.232-.027zM276.262 337.546h1.137l-.04 1.902-1.117.04zM568.287 331.038l2.587.06-1.448-9.534-.646.03.093.798zM569.31 309.68l4.218.014-.023 6.553-4.222-.016zM273.97 333.468l-.214 14.04.803.24.296-14.253-.242-.267-.402.027z" clip-path="url(#p399fe0a9a7)" style="fill:#90ee90;fill-opacity:.8"/></g><path id="PatchCollection_4" d="m266.316 346.906.16 1.842-2.663.23-.16-1.843z" clip-path="url(#p399fe0a9a7)" style="fill:#006400;fill-opacity:.8"/><g id="PatchCollection_5"><path d="m257.829 413.39 32.244.28 53.056 1.059 10.82-3.55 42.888-1.836-1.355-76.897-57.795-.783-47.49.082-.704-55.963-31.064-.137zM555.957 274.518l18.46-.16 1.728-3.121h3.013l-.12 8.382 6.77.26.29 51.594-29.719.428z" clip-path="url(#p399fe0a9a7)" style="fill:#d3d3d3;fill-opacity:.8"/></g><g id="PatchCollection_6"><path d="m275.85 416.182 1.08.018-.089 1.743-1.096-.07zM277.896 361.196l1.75.018-.035.845-1.715-.035zM281.387 346.883l-1.155-.046.011.662 1.167.023zM281.387 346.883l-.058-1.162-.549-.011.012.209.163-.023.023.97zM276.844 333.461l.046.43-.207.006-.639.683.031.192-.47-.016.046-1.295zM274.097 333.66l.584-.015.008.552h-.592zM270.524 334.002l2.555-.082v1.476l-2.625.011zM298.894 347.99h.82l.016 2.13-.852-.016zM266.316 346.906l.16 1.842-2.663.23-.16-1.843zM265.586 406.806h1.582v5.21l-1.643-.06zM278.822 322.034l.03 1.364h2.1l-.019-1.396zM277.017 303.095l-.081 3.276 3.316-.03.029-3.304zM295.062 372.707l2.052.045.069 2.48-2.167-.046zM301.963 409.036l.391-.003.004.499-.391.003zM302.536 409.03l.39-.003.005.498-.391.004zM303.146 409.025l.391-.003.004.499-.39.003zM303.733 409.03l.39-.003.004.498-.39.004zM304.31 409.03l.39-.003.004.498-.39.004zM304.924 409.055l.391-.004.004.499-.39.003zM305.53 409.045l.391-.003.004.498-.39.003zM308.496 409.086l.391-.003.004.5-.39.002zM307.89 409.096l.391-.003.004.499-.39.003zM307.275 409.072l.39-.003.005.499-.39.003zM306.698 409.072l.391-.003.004.499-.39.003zM306.112 409.067l.391-.003.004.498-.39.004zM311.444 409.126l.391-.003.004.498-.39.003zM310.839 409.136l.39-.004.004.499-.39.003zM310.223 409.111l.39-.003.005.498-.39.004zM309.647 409.111l.39-.003.005.498-.39.004zM309.06 409.106l.392-.003.003.499-.39.003zM313.691 409.186l.391-.003.004.499-.39.002zM313.216 409.14l.391-.004.004.499-.39.003zM312.64 409.14l.391-.004.004.499-.39.003zM312.054 409.134l.39-.003.005.499-.39.003zM304.331 407.633l.39-.002.005.498-.39.003zM303.725 407.643l.391-.003.004.499-.39.003zM303.11 407.619l.39-.003.004.499-.39.003zM302.533 407.619l.391-.003.004.499-.39.003zM301.947 407.614l.391-.003.004.498-.39.004zM304.348 406.118l.39-.004.005.5-.39.002zM303.742 406.128l.391-.004.004.499-.39.003zM303.127 406.103l.39-.003.005.498-.39.004zM302.55 406.103l.391-.003.004.498-.39.004zM301.964 406.099l.391-.004.004.499-.39.003zM304.331 404.602l.39-.003.005.498-.39.004zM303.725 404.611l.391-.002.004.498-.39.003zM303.11 404.588l.39-.004.004.499-.39.003zM302.533 404.588l.391-.004.004.499-.39.003zM301.947 404.582l.391-.003.004.5-.39.002zM307.272 404.628l.39-.003.005.498-.391.003zM306.666 404.637l.391-.003.004.499-.39.003zM306.051 404.613l.39-.003.004.498-.39.004zM305.474 404.613l.391-.003.004.498-.39.004zM304.888 404.608l.391-.003.004.499-.39.002zM310.247 404.67l.391-.003.004.499-.39.003zM309.641 404.68l.391-.003.004.499-.39.003zM309.026 404.656l.39-.003.005.498-.39.004zM308.45 404.656l.39-.003.004.498-.39.004zM307.863 404.65l.391-.002.004.499-.39.002zM313.24 404.696l.39-.003.005.498-.39.004zM312.634 404.706l.39-.004.005.5-.39.003zM312.019 404.681l.39-.002.005.498-.391.003zM311.442 404.681l.391-.002.004.498-.39.003zM310.856 404.677l.39-.004.005.5-.39.002zM307.29 406.135l.39-.003.004.499-.39.002zM306.683 406.145l.391-.004.004.499-.39.003zM306.068 406.12l.39-.003.005.498-.39.004zM305.491 406.12l.391-.003.004.498-.39.004zM304.905 406.116l.391-.004.004.499-.39.003zM310.282 406.143l.39-.003.004.5-.39.002zM309.676 406.153l.39-.003.005.498-.39.004zM309.06 406.129l.392-.003.003.498-.39.003zM308.484 406.129l.39-.003.005.498-.39.003zM307.898 406.124l.39-.003.005.498-.39.004zM313.24 406.178l.39-.004.005.499-.39.003zM312.634 406.188l.39-.004.005.499-.39.003zM312.019 406.163l.39-.003.005.498-.391.004zM311.442 406.163l.391-.003.004.498-.39.004zM310.856 406.158l.39-.003.005.499-.39.003zM307.34 407.685l.392-.003.003.499-.39.003zM306.735 407.695l.39-.004.005.5-.39.003zM306.12 407.67l.39-.003.005.499-.391.003zM305.543 407.67l.39-.003.005.499-.39.003zM304.957 407.666l.39-.004.005.499-.39.003zM310.204 407.736l.391-.002.004.498-.39.003zM309.599 407.746l.39-.003.004.499-.39.002zM308.983 407.722l.39-.004.005.5-.39.003zM308.407 407.722l.39-.004.004.5-.39.003zM307.82 407.717l.391-.003.004.498-.39.003zM313.24 407.779l.39-.003.005.499-.39.003zM312.634 407.789l.39-.003.005.499-.39.002zM312.019 407.765l.39-.004.005.5-.391.003zM311.442 407.765l.391-.004.004.5-.39.003zM310.856 407.76l.39-.003.005.498-.39.003zM304.3 403.07l.391-.004.004.5-.39.002zM303.695 403.08l.39-.004.004.498-.39.004zM303.08 403.055l.39-.003.004.498-.39.003zM302.503 403.055l.39-.003.005.498-.391.003zM301.917 403.05l.39-.003.004.498-.39.004zM304.274 401.67l.39-.004.005.498-.39.004zM303.669 401.678l.39-.003.004.5-.39.002zM303.053 401.654l.39-.003.005.499-.391.003zM302.477 401.654l.39-.003.005.499-.391.003zM301.89 401.65l.39-.004.005.5-.39.002zM307.258 401.695l.39-.003.004.499-.39.003zM306.652 401.705l.39-.004.005.5-.391.002zM306.037 401.68l.39-.003.004.5-.39.002zM305.46 401.68l.39-.003.005.5-.39.002zM304.874 401.676l.39-.004.005.499-.391.003zM310.28 401.695l.391-.003.004.499-.39.003zM309.675 401.705l.39-.004.005.5-.391.002zM309.06 401.68l.39-.003.004.5-.39.002zM308.483 401.68l.39-.003.005.5-.391.002zM307.897 401.676l.39-.004.005.499-.391.003zM313.264 401.721l.39-.003.005.498-.391.004zM312.658 401.731l.391-.003.004.498-.39.003zM312.043 401.707l.39-.004.005.499-.391.003zM311.466 401.707l.391-.004.004.499-.39.003zM310.88 401.701l.391-.002.004.498-.39.003zM307.31 403.07l.39-.004.005.5-.39.002zM306.704 403.08l.391-.004.004.498-.39.004zM306.089 403.055l.39-.003.005.498-.39.003zM305.512 403.055l.391-.003.004.498-.39.003zM304.926 403.05l.391-.003.004.498-.39.004zM310.228 403.096l.39-.004.005.499-.39.003zM309.622 403.106l.391-.004.004.499-.39.003zM309.007 403.081l.39-.003.004.498-.39.004zM308.43 403.081l.391-.003.004.498-.39.004zM307.844 403.076l.391-.003.004.499-.39.003zM313.264 403.148l.39-.003.005.499-.391.003zM312.658 403.158l.391-.004.004.499-.39.003zM312.043 403.133l.39-.003.005.5-.391.002zM311.466 403.133l.391-.003.004.5-.39.002zM310.88 403.129l.391-.004.004.499-.39.003zM308.52 400.124l.39-.003.004.499-.39.003zM307.913 400.134l.391-.003.004.498-.39.004zM307.298 400.11l.39-.003.005.498-.39.003zM306.722 400.11l.39-.003.004.498-.39.003zM306.135 400.105l.391-.004.004.5-.39.002zM311.49 400.124l.39-.003.005.499-.391.003zM310.884 400.134l.39-.003.005.498-.391.004zM310.268 400.11l.391-.003.004.498-.39.003zM309.692 400.11l.391-.003.004.498-.39.003zM309.106 400.105l.39-.004.005.5-.391.002zM313.75 401.734l.39-.003.005.498-.39.004zM313.75 400.134l.39-.003.004.498-.39.004zM313.133 400.11l.391-.003.004.498-.39.003zM312.557 400.11l.391-.003.004.498-.39.003zM311.971 400.105l.391-.004.004.5-.39.002zM313.728 403.156l.391-.003.004.498-.391.004zM313.715 404.714l.39-.003.005.498-.391.004zM313.768 406.18l.39-.004.005.5-.391.003zM313.715 407.816l.39-.003.005.499-.391.002zM317.446 409.23l.391-.004.004.5-.39.002zM316.87 409.23l.39-.004.005.5-.391.002zM316.284 409.225l.39-.004.005.499-.391.003zM315.674 409.216l.391-.003.004.498-.39.004zM315.068 409.225l.391-.002.004.498-.39.003zM317.412 407.832l.39-.004.005.499-.391.003zM316.836 407.832l.39-.004.005.499-.391.003zM316.25 407.827l.39-.003.005.498-.391.004zM315.64 407.819l.39-.004.005.499-.391.003zM315.034 407.828l.391-.003.004.499-.391.003zM317.457 406.241l.391-.003.004.498-.39.003zM316.881 406.241l.391-.003.004.498-.39.003zM316.295 406.236l.391-.004.004.5-.39.003zM315.685 406.227l.391-.003.004.499-.39.003zM315.08 406.237l.39-.003.004.499-.39.002zM320.402 409.252l.39-.003.005.499-.391.003zM319.825 409.252l.39-.003.005.499-.39.003zM319.239 409.247l.39-.003.005.499-.39.003zM318.63 409.239l.39-.004.004.5-.39.003zM318.024 409.249l.39-.004.005.499-.391.003zM323.345 409.32l.391-.003.004.498-.39.004zM322.769 409.32l.39-.003.005.498-.391.004zM322.183 409.316l.39-.004.005.499-.391.003zM321.573 409.307l.391-.003.004.498-.39.004zM320.967 409.316l.391-.002.004.498-.39.003zM326.278 409.355l.39-.004.004.499-.39.003zM325.701 409.355l.391-.004.004.499-.39.003zM325.115 409.35l.39-.004.005.5-.39.002zM324.506 409.34l.39-.002.004.499-.39.003zM323.9 409.35l.39-.003.005.5-.39.002zM320.333 407.854l.391-.002.004.498-.39.003zM319.757 407.854l.39-.002.005.498-.391.003zM319.17 407.85l.391-.004.004.499-.39.003zM318.561 407.841l.39-.003.005.498-.391.003zM317.955 407.85l.391-.002.004.498-.39.003zM323.242 407.912l.391-.004.004.499-.39.003zM322.666 407.912l.391-.004.004.499-.39.003zM322.08 407.906l.391-.003.004.499-.39.003zM321.47 407.898l.391-.004.004.5-.39.003zM320.865 407.908l.39-.004.004.499-.39.003zM326.255 407.945l.39-.003.005.499-.39.003zM325.678 407.945l.391-.003.004.499-.39.003zM325.092 407.94l.391-.003.004.499-.39.003zM324.483 407.932l.39-.003.004.498-.39.003zM323.877 407.942l.39-.003.005.498-.39.003zM320.367 406.263l.39-.003.005.5-.39.002zM319.791 406.263l.39-.003.004.5-.39.002zM319.204 406.259l.391-.003.004.498-.39.003zM318.595 406.25l.39-.003.005.498-.39.004zM317.99 406.26l.39-.003.004.498-.39.004zM323.345 406.298l.391-.004.004.499-.39.003zM322.769 406.298l.39-.004.005.499-.391.003zM322.183 406.293l.39-.003.005.498-.391.003zM321.573 406.285l.391-.004.004.499-.39.003zM320.967 406.294l.391-.004.004.5-.39.003zM326.335 406.389l.39-.004.005.499-.391.003zM325.759 406.389l.39-.004.004.499-.39.003zM325.172 406.383l.39-.002.005.498-.39.003zM324.563 406.375l.39-.003.005.499-.391.003zM323.957 406.385l.39-.004.005.5-.391.003zM331.207 408.116l.39-.003.005.498-.391.003zM330.63 408.116l.392-.003.003.498-.39.003zM330.045 408.11l.39-.002.004.498-.39.004zM329.435 408.102l.39-.003.005.499-.391.003zM328.829 408.112l.39-.003.005.499-.39.003zM331.275 406.49l.391-.002.004.498-.39.003zM330.7 406.49l.39-.002.004.498-.39.003zM330.113 406.486l.39-.003.005.498-.391.004zM329.503 406.478l.391-.004.004.499-.39.003zM328.897 406.487l.391-.003.004.499-.39.003zM336.774 408.252l.39-.002.004.498-.39.003zM336.197 408.252l.391-.002.004.498-.39.003zM335.611 408.248l.391-.004.004.5-.39.002zM335.001 408.24l.391-.004.004.499-.39.003zM334.396 408.25l.39-.004.005.498-.39.003zM336.853 406.682l.39-.003.005.498-.391.003zM336.276 406.682l.39-.003.005.498-.39.003zM335.69 406.677l.39-.003.005.499-.39.003zM335.08 406.668l.391-.002.004.498-.39.003zM334.475 406.678l.39-.003.005.499-.391.003zM339.705 406.76l.39-.003.004.499-.39.003zM339.128 406.76l.391-.003.004.499-.39.003zM338.542 406.756l.391-.003.004.498-.39.003zM337.932 406.747l.391-.003.004.498-.39.004zM337.327 406.757l.39-.003.005.498-.39.004zM339.652 408.318l.39-.003.005.498-.39.004zM339.076 408.318l.39-.003.005.498-.39.004zM338.49 408.313l.39-.003.004.499-.39.003zM337.88 408.304l.39-.002.005.498-.39.004zM337.275 408.314l.39-.003.004.5-.39.002zM340.251 408.403l.39-.003.005.498-.391.004zM340.816 408.43l.39-.004.005.499-.391.003zM340.37 406.832l.39-.003.004.498-.391.004zM340.934 406.78l.391-.003.004.498-.391.004zM331.813 406.505l.39-.003.005.498-.391.004zM332.43 406.544l.391-.003.004.499-.39.003zM332.97 406.584l.39-.003.005.498-.391.003zM331.721 408.154l.39-.003.005.499-.391.003zM332.312 408.141l.39-.003.005.499-.39.003zM332.956 408.141l.39-.003.005.499-.39.003zM579.575 330.6l.799.053.055-.834-.799-.053z" clip-path="url(#p399fe0a9a7)" style="fill:#a9a9a9;fill-opacity:.8"/></g></g></g><defs><clipPath id="p399fe0a9a7"><path d="M128.341 86.4h481.318v554.4H128.341z"/></clipPath></defs></svg>