<svg xmlns="http://www.w3.org/2000/svg" xmlns:xlink="http://www.w3.org/1999/xlink" width="960" height="960" viewBox="0 0 720 720"><defs><style>*{stroke-linejoin:round;stroke-linecap:butt}</style></defs><g id="figure_1"><path id="patch_1" d="M0 720h720V0H0z" style="fill:#fff"/><g id="axes_1"><path id="patch_2" d="M90 608.087h558V119.113H90z" style="fill:#fff"/><g id="LineCollection_1"><path d="m349.61 313.232 4.264-.285M349.61 313.232l.3 3.553M349.61 313.232l-.179-2.56M346.243 313.158l.318.145.323.08.404.02 2.323-.17M337.084 216.33l.352-1.034.39-1.014.434-1.056" clip-path="url(#p854b8d9db2)" style="fill:none;stroke:#000"/><path d="m336.18 215.834.964-1.345.48-.606.636-.657M352.971 295.382l-2.828 5.68M352.971 295.382l1.892-.83M353.915 292.993l-.236.713-.708 1.676M349.468 302.788l2.18-.107M349.214 305.477l.03-1.198.104-.8.12-.691M350.143 301.061l-.262.582-.259.677-.154.468" clip-path="url(#p854b8d9db2)" style="fill:none;stroke:#000"/><path d="m346.254 304.992 2.068-1.676.401-.254.337-.167.408-.107M351.326 335.391l2.136-.143M351.326 335.391l-5.004.364M351.326 335.391l-.42 3.318M351.326 335.391l-.28-3.738M231.416 556.216l-.619.443M263.673 483.258l-4.305 6.824-9.395 15.607-14.096 20.109-6.709 12.686-.336 1.857.49 2.508 2.144 10.964.171.933-.062.778-.16.692M231.302 557.265l.086-.509.028-.54M230.797 556.659l-.573.215-.595.024-.561-.094-.606-.299-1.113-.667M230.797 556.659l-.216.362-.244.546-.144.465M232.161 559.556l-1.968-1.524M232.161 559.556l4.93 3.82M232.161 559.556l-.433-.551-.34-.616-.086-1.124" clip-path="url(#p854b8d9db2)" style="fill:none;stroke:#000"/><path d="m230.193 558.032.144-.027.494-.27.471-.47M230.193 558.032l-.82-.644-2.024-1.55" clip-path="url(#p854b8d9db2)" style="fill:none;stroke:#000"/><path d="m227.35 555.838 2.023 1.55.82.644M100.73 523.668l81.638 3.494 5.14.928 5.693 2.481 4.255 2.48 29.893 22.787M332.529 336.732l-.226-3.849M332.529 336.732l6.893-.528M332.529 336.732l-3.941.278M365.561 334.328l4.638-.264M365.561 334.328l-2.352.05M367.644 336.283l-.57-.642-.614-.564-.899-.749M349.91 316.785l4.698-.335M349.91 316.785l-4.967.336M349.91 316.785l.382 3.789M375.503 349.93l3.342-1.883M375.503 349.93l-3.169 1.82M375.503 349.93l3.926 6.3M375.503 349.93l-2.847-4.68M370.199 334.064l-.382-3.624M370.199 334.064l4.398-.32M370.604 334.749l-.23-.353-.175-.332M366.22 349.039l2.72 4.637M366.22 349.039l-5.386-8.825M366.22 349.039l3.177-1.89M366.22 349.039l-3.378 1.847M384.396 386.277l3.32-1.483M384.396 386.277l-3.498 1.599M384.396 386.277l-3.386-5.55M373.623 326.609l-4.106.242M343.123 388.029l.714.42M342.228 388.854l.453-.39.442-.435M344.003 386.527l-.236.631-.281.457-.363.414M354.608 316.45l.404 3.838M353.874 312.947l.255.054.138.088.075.122.041.121.015.225.21 2.893M453.279 364.241l-.952.328M453.279 364.241l-.285-7.134M457.932 363.4l-.9.135-1.58.235-1.131.222-1.042.25M372.334 351.75l-3.394 1.926M372.334 351.75l3.791 6.306M372.334 351.75l-2.937-4.602M358.968 367.594l3.934 6.385M358.968 367.594l-2.6-4.074M358.968 367.594l-3.109 1.67M358.968 367.594l3.664-2.04M366.139 363.627l-3.822-6.327M366.139 363.627l3.865 6.364M366.139 363.627l-3.507 1.927M366.139 363.627l3.348-1.883M336.241 353.85l-1.721.685M336.241 353.85l.03-.449M336.337 355.211l-.107-.922.011-.439M343.837 388.448l.268 1.755M345.528 389.01l-.54-.121-.663-.208-.488-.233M339.152 332.488l6.938-.5M339.152 332.488l-6.85.395M339.152 332.488l-.274-3.539M339.152 332.488l.27 3.716M342.89 352.898l-.247 2.59M342.89 352.898l-3.274-.05M342.89 352.898l5.926.136M347.46 362.586l4.675.528M347.46 362.586l-5.559-.763M347.46 362.586l-.663 5.054M347.46 362.586l.585-4.173M366.7 380.278l1.326 2.112M366.7 380.278l-3.798-6.3M366.7 380.278l3.611-2.004M362.909 382.418l1.813-1.034 1.978-1.106M362.902 373.979l3.54-1.98M362.902 373.979l-3.394 1.783M348.045 358.413l1.326.07M348.045 358.413l-5.664-.571M348.045 358.413l.225-1.736M355.507 368.742l-4-.506M355.507 368.742l.352.521M355.507 368.742l-2.15-3.56M336.942 366.317l.876.1M336.942 366.317l-.772-.078M337.669 361.237l-.098.957-.36 2.34-.27 1.783M336.151 372.72l.236-1.673.555-4.73M379.43 356.23l3.798 6.32M379.43 356.23l-3.305 1.826M379.43 356.23l3.259-1.877M351.045 331.653l4.86-.357M351.045 331.653l-4.955.335M351.045 331.653l-.31-3.589M342.643 355.488l-.262 2.354M342.643 355.488l5.675.824M370.004 369.991l3.821 6.364M370.004 369.991l3.304-1.777M370.004 369.991l-3.562 2.008M387.715 384.794l2.09-.95M387.715 384.794l-3.408-5.886M353.252 358.163l-3.02 1.712M353.252 358.163l1.82 3.253M353.252 358.163l-.974-1.548M353.357 365.183l3.011-1.663M353.357 365.183l-1.057-1.77M369.397 347.148l-5.296-8.732M369.397 347.148l3.26-1.897M374.102 330.076l-4.285.364M329.18 360.125l7.597 1.013M336.013 356.943l-4.166 1.94-2.667 1.242M191.546 405.465l2.54-1.178 26.836-9.427 24.754-7.965 12.448-3.9 9.785-3.31 13.081-4.38 14.318-4.58 19.082-5.55 8.466-2.682 2.667-.913 1.635-.614 2.022-.841M383.228 362.55l3.813 6.328M383.228 362.55l3.394-1.797M383.228 362.55l-3.326 1.87M376.605 366.295l3.813 6.321M376.605 366.295l-3.806-6.349M376.605 366.295l3.297-1.875M376.605 366.295l-3.297 1.92M353.589 372.523l-2.675-.331M353.589 372.523l2.068.257M353.589 372.523l-.367 2.462M358.83 359.3l3.487-2M358.83 359.3l-3.757 2.116M358.83 359.3l3.802 6.254M358.83 359.3l-2.873-4.675M340.523 373.301l.847-6.45M340.523 373.301l-.69 6.014M340.523 373.301l-3.795-.507M340.523 373.301l5.35.742M354.21 343.959l-3.303-5.25M354.21 343.959l5.305 8.768M354.21 343.959l3.26-1.848M354.21 343.959l-3.663 1.87M391.327 383.153l3.416-1.47M391.327 383.153l-1.522.691M391.327 383.153l-3.716-6.1M339.833 379.315l-.767 7.041-.034.485v.535M335.45 383.096l.17.356.872 1.342.517.692.465.506.734.749.824.635" clip-path="url(#p854b8d9db2)" style="fill:none;stroke:#000"/><path d="m342.228 388.854-1.57-.7-1.626-.778M339.691 390.7l-.506-2.343-.093-.539-.06-.442M346.254 304.992l-2.592 1.955M346.243 313.158l.333-.46.09-.343.038-.414-.45-6.949M350.734 328.064l4.953-.307M350.734 328.064l-4.9.386M350.734 328.064l-.21-3.634M365.614 355.473l3.326-1.797M365.614 355.473l-3.297 1.827M365.614 355.473l3.873 6.271M365.614 355.473l-2.772-4.587M342.38 357.842l-.479 3.98M338.53 358.249l.712-.136.966-.143.907-.064 1.266-.064M352.278 356.615l-3.225-5.044M352.278 356.615l3.679-1.99M336.151 372.72l-1.052 5.39M336.151 372.72l.577.074M335.147 373.49l.607-.57.165-.132.109-.054.123-.015M355.073 361.416l-2.938 1.698M355.073 361.416l1.295 2.104M352.401 374.895l-6.656 9.47-.735.957-1.007 1.205M345.037 379.893l-.67 4.365-.23 1.595-.134.674M348.816 353.034l-.498 3.278M348.816 353.034l.237-1.463M332.097 329.383l6.781-.434M332.097 329.383l-.22-3.74M332.097 329.383l.206 3.5M341.901 361.823l-.531 5.029M341.901 361.823l-3.266-.486M349.053 351.571l.45-3.362" clip-path="url(#p854b8d9db2)" style="fill:none;stroke:#000"/><path d="m316.554 420.539 4.156-4.03 3.233-3.167 1.603-1.711 1.184-1.442 1.412-1.86 2.268-3.35 5.415-8.607 2.832-4.444.394-.55.22-.278.42-.4M341.062 389.741l-.99.673-.38.286M372.799 359.946l-3.859-6.27M372.799 359.946l-3.312 1.798M372.799 359.946l3.326-1.89M369.294 323.21l.223 3.641M369.294 323.21l-6.917.417M385.306 316.185l-11.413 6.771-4.599.254M350.914 372.192l.592-3.956M350.914 372.192l-.367 2.486M362.317 357.3l-2.802-4.573M350.233 359.875l1.902 3.239M350.233 359.875l-.862-1.391M355.305 375.256l.352-2.476M355.305 375.256l-2.083-.271M355.305 375.256l4.203.506M364.1 338.416l-2.427-3.96M364.1 338.416l2.483-1.368M364.1 338.416l-3.266 1.798M346.797 367.64l4.71.596M346.797 367.64l-5.427-.788M346.797 367.64l-.925 6.403M355.657 372.78l.461-3.07M362.632 365.554l3.81 6.445M369.517 326.851l.3 3.59M369.517 326.851l-6.907.429M576.272 368.591l3.796-5.028.727-.513.3-.143M551.298 326.317l2.128-.272 1.199-.028 1.034.114 1.266.271 1.446.535 1.116.642.78.857 1.093 1.897 3.911 6.934 3.656 6.949 1.813 4.323 2.263 5.707 1.169 2.398.749 1.056.96.97.853.642 1.828 1.013 2.023.998.307.228.225.265.09.192.037.257-.15.642M369.487 361.744l3.821 6.47M352.135 363.114l.165.3M394.743 381.684l-3.836-6.471M398.789 380.749l-.704-.022-.473.043-.539.1-.621.164-1.709.65M350.907 338.709l-1.146 7.54M336.27 353.401l.593-.257M337.151 350.672l-.3.321-.228.328-.146.257-.112.471-.094 1.352M342.228 388.854l-1.166.887M372.656 345.25l3.338-1.808M367.644 336.283l.982 1.84 1.086 2.041 2.944 5.087M337.552 352.83l-.689.314M337.552 352.83l2.064.018M337.552 352.83l1.495-.791M330.28 351.064l2.915-.035 1.499-.114 2.457-.243M339.759 343.567l-.42 1.983-.652 2.39-.307.934-.153.446-.281.503-.323.372-.472.477M335.45 383.096l-1.063.298M335.099 378.11l-.083.656-.037.905.03.87.037.921.045.439.079.492.123.374.158.329M335.855 378.808l-.157 1.534-.247 2.754M353.222 374.985l-.82-.09M331.878 325.642l6.742-.388M331.878 325.642l-.218-3.706M369.817 330.44l-6.893.428M345.528 389.01l.734.11.6.029.509-.029.483-.114 1.112-.325.922-.377.87-.543.74-.578.825-.813" clip-path="url(#p854b8d9db2)" style="fill:none;stroke:#000"/><path d="m345.528 389.01.749-.335 1.109-.357 1.378-.385 1.423-.557 1.132-.55 1.004-.456M361.845 382.204l-1.566-.236-1.124-.064-.914.05-1.123.228-.78.336-.666.442-.66.492-.854.863-1.835 2.055M344.105 390.203l.606-.601.42-.357.397-.235M359.508 375.762l-3.39-6.052M361.845 382.204l-.164-.677-.158-.528-.367-.893-.652-1.376-.21-.55-.194-.591-.592-1.827M360.834 340.214l-3.237-5.358M360.834 340.214l-3.364 1.897M349.371 358.484l-1.1-1.807M355.957 354.625l3.558-1.898M355.957 354.625l-5.41-8.797M351.506 368.236l.794-4.823M353.462 335.248l4.008 6.863M353.462 335.248l2.712-.257M378.845 348.047l2.9-1.598M378.845 348.047l3.844 6.306M378.845 348.047l-2.85-4.605M350.547 374.678l-4.675-.635M350.547 374.678l1.854.217M339.422 336.204l6.9-.449M339.759 343.567l.127-.685v-.65l-.128-2.09-.336-3.938M331.433 318.066l6.588-.503M331.433 318.066l.227 3.87M337.758 314.081l-5.563.403-.54.047-.175.071-.128.144-.078.227-.012.196.17 2.897M345.872 374.043l-.835 5.85M350.525 324.43l4.892-.325M350.525 324.43l-4.93.31M350.525 324.43l-.233-3.856M457.932 363.4l1.738-.25 2.682-.4 1.094-.292 1.453-.443 3.432-1.205 3.169-1.17.54-.172.764-.1.816.007 1.034.172 1.753.414 1.109.378 1.004.52 1.236.785 1.169.77.72.422.711.37 1.468.5 1.634.478 3.326.785 1.012.314 1.094.356 1.146.521 2.75 1.57 2.809 1.676 1.865.813 1.409.436 1.304.22 1.37.08 1.177.049 2.562.164.974.193 1.334.392 1.221.564.989.556.884.699.734.813 1.82 2.583.63.735.607.592.84.449.569.15h.854l1.198-.128 1.027-.278 1.618-.543.816-.378.652-.47.667-.7 2.083-2.383 1.55-1.462.353-.303.626-.46 5.038-3.339 2.772-1.776 2-1.049.735-.293.951-.242.915-.093 1.355-.014 1.47.2 2.164.406 2.218.479 1.094.106 1.034.029 2.165-.271 4.24-.557 3.641-.414 1.813-.1 1.933.058 4.058.442 4.591 1.746 2.757 1.484M593.843 387.603l-1.556-1.94-11.48-12.77-4.535-4.302M343.662 306.947l.3 6.207M343.662 306.947l-2.795 2.105M367.644 336.283l2.96-1.534M376.125 358.056l3.777 6.364M338.02 317.563l3.237-.193M338.02 317.563l-.262-3.482M338.02 317.563l.337 3.824M383.895 339.051l2.884 4.608M383.895 339.051l-.885-1.63M383.895 339.051l-2.735 1.491M382.689 354.353l3.933 6.4M382.689 354.353l2.869-1.619M370.604 334.749l1.363 2.119M359.515 352.727l3.327-1.84M331.66 321.936l6.697-.55M375.994 343.442l2.843-1.594M375.994 343.442l-4.027-6.574M376.425 335.541l-.96-.121-.34.014-.255.075-.356.139-2.547 1.22M337.758 314.081l-.06-.592M366.442 372l3.87 6.274M338.62 325.254l6.975-.514M338.62 325.254l-.263-3.867M338.62 325.254l.258 3.695M362.842 350.886l-5.372-8.775M361.845 382.204l1.064.214M380.898 387.876l-3.14-5.308M380.898 387.876l1.004 1.797M372.933 389.224l1.2.2.913.05.735-.015 1.116-.164 1.461-.378 2.54-1.041M348.318 356.312l-.048.365M349.76 346.25l.787-.422M349.76 346.25l-1.978 1.075M349.76 346.25l-.258 1.96M355.86 369.263l.258.447M398.789 380.749l-4.495-7.405M406.783 381.412l-1.678-.2-2.51-.242-3.806-.221M337.518 358.477l1.012-.228M336.919 356.565l.3.863.3 1.049M337.669 361.237l.037-.863-.023-.813-.037-.47-.128-.614M334.52 354.535l.98.256.837.42M336.919 356.565l-.367-.906-.215-.448M338.357 321.387l6.886-.432M373.308 368.214l3.791 6.285M338.878 328.949l6.957-.5M339.759 343.567l-10.7-1.534M386.78 343.66l-2.758 1.547M386.78 343.66l2.711-1.549M386.78 343.66l1.895 3.167M322.145 337.51l6.443-.5M324.01 342.176l-.929-2.497-.682-1.727-.254-.442M319.38 238.784l-1.161 1.62-.585.89-.47.77-.256.508-.255.62-.292.807-.993 3.867-2.11 8.012-3.01 11.8-2.338 8.783-.397 1.591-.158.864-.03.685.045.65.173 1.027.554 3.003.367 1.905.045.578-.03.435-.127.35-.323.328-.973.678-.731.485-.304.307-.187.363-.037.536.045.42.434 2.183.202.621.278.492.232.314.532.443.637.592.457.492.787 1.17.681.964.78.77 1.812 1.605 2.113 2.026.39.557.225.478.157.492.344 1.57.09.585-.06.628-.569 1.99-.12.592-.112.885-.397 2.853-.603 3.507-.326 1.295-.365 1.008-1.433 3.593-.9 2.497-.501 1.577-.158.714-.052.649v1.327l.135.877.255.949.217.913.405.65.516.427.675.207.921.064 1.753-.035.892.057.51.15.681.42 1.798 1.228.907.606 1.034.82.599.528.45.514M379.902 364.42l3.798 6.349M341.37 366.852l-3.552-.435M350.292 320.574l4.72-.286M350.292 320.574l-5.05.381M370.311 378.274l3.514-1.92M337.698 313.49l3.277-.165M340.867 309.052l-2.562 2.008-.393.381-.172.232-.12.322-.027.235.03.36.075.9M345.595 324.74l.24 3.71M345.595 324.74l-.352-3.785M373.825 376.355l3.934 6.213M373.825 376.355l3.274-1.856M376.425 335.541l1.85.221" clip-path="url(#p854b8d9db2)" style="fill:none;stroke:#000"/><path d="m378.837 341.848-.741-1.263-.278-.6-.3-.899-1.093-3.545M355.904 331.296l7.02-.428M355.904 331.296l.27 3.695M355.904 331.296l-.217-3.539M381.16 340.542l2.862 4.665M381.16 340.542l-2.188-3.728M381.16 340.542l-2.323 1.306M393.62 339.85l1.303 3.389M393.62 339.85l-2.42 1.27M386.232 336.847l5.934.784.412.121.292.222.173.271.576 1.605M362.377 323.627l-6.96.478M362.377 323.627l.233 3.653M355.012 320.288l6.458-.278.233.046.202.16.124.222.09.3.258 2.889M353.874 312.947l-.255-2.475M384.022 345.207l-2.277 1.242M384.022 345.207l1.993 3.318M343.962 313.154l-2.701.157M346.243 313.158l-.22-.061-.252-.004-1.81.06M388.675 346.827l-2.66 1.698M388.675 346.827l6.248-3.588M388.675 346.827l1.963 3.125M349.431 310.671l4.188-.2M349.431 310.671l-.158-2.565M390.638 349.952l-2.818 1.505M386.869 354.96l4.637-2.761.12-.15.06-.164-.015-.185-.097-.222-.936-1.526M394.923 343.239l1.333 3.483-5.618 3.23M328.588 337.01l.472 5.023M381.745 346.449l2.06 3.389M381.745 346.449l-2.908-4.601M381.01 380.727l-3.91-6.228M381.01 380.727l-3.251 1.84M381.01 380.727l3.297-1.819M339.833 379.315l5.204.578M339.833 379.315l-3.978-.507M347.228 347.626l.554-.301M347.228 347.626l-8.18 4.413M347.228 347.626l-.906-11.87M341.26 313.31l-.393-4.258M341.26 313.31l-.285.015M349.214 305.477l4.795-.263M349.273 308.106l-.03-1.409-.03-1.22M357.597 334.856l-1.423.135M361.673 334.457l-.81.05-.779.071-2.487.278M363.209 334.378l-.285-3.51M363.209 334.378l-1.536.079M391.2 341.12l-2.518-.307M391.2 341.12l-1.709.991M362.924 330.868l-.314-3.588M386.232 336.847l-2.015-.265M386.232 336.847l2.45 3.966M362.61 327.28l-6.923.477M388.682 340.813l.81 1.298M349.273 308.106l4.121-.281M350.143 301.061l1.506 1.62M354.009 305.214l-2.36-2.533M355.282 307.668l-.022-.52-.098-.422-.224-.457-.33-.385-.6-.67M353.394 307.825l1.888-.157M353.394 307.825l.15 1.894M353.62 310.472l-.076-.753M345.835 328.45l.255 3.538M345.243 320.955l-.3-3.834M386.869 354.96l1.318 2.183M386.869 354.96l-1.311-2.226M383.805 349.838l2.21-1.313M383.805 349.838l1.753 2.896M353.544 309.719l1.386.007.172-.032.075-.064.046-.1.014-.3.045-1.562M355.012 320.288l.405 3.817M386.015 348.525l1.805 2.932M387.82 351.457l-2.262 1.277M355.687 327.757l-.27-3.652M346.09 331.988l.232 3.767M388.187 357.143l4.193-2.54M388.187 357.143l1.237 2.069M382.336 336.312l1.88.27M382.336 336.312l-1.498-.207M382.336 336.312l.674 1.109M378.275 335.762l2.563.343M378.275 335.762l.697 1.052M329.06 342.033l.154 3.159M384.307 378.908l-3.889-6.292M384.307 378.908l3.304-1.855M378.972 336.814l1.866-.71M377.1 374.5l3.318-1.884M344.943 317.12l-3.686.25M387.61 377.053l-3.91-6.284M387.61 377.053l3.297-1.84M329.502 351.086l-.288-5.894M329.502 351.086l.779-.022M332.506 352.891l-2.674.121-.195-.071-.105-.114-.045-.207.015-.192v-1.342" clip-path="url(#p854b8d9db2)" style="fill:none;stroke:#000"/><path d="m326.273 351.55 1.04-.243.945-.135 1.244-.086M336.919 356.565l-.906.378M100.73 523.668l4.83-2.12 3.326-2.197 3.38-2.553 4.077-5.517 16.683-23.85 21.425-31.08 11.496-16.528 20.453-28.776 3.908-4.434 1.238-1.148M362.909 382.418l1.528.4.54.228.472.335.644.606 2.555 3.132.645.635.442.357.479.257 2.72.856M381.902 389.673l-3.282 1.256-.502.142-.468.068-1.082.075-2.24.018-.484-.082-.303-.107-.222-.171-.142-.257-.093-.314-.15-1.077" clip-path="url(#p854b8d9db2)" style="fill:none;stroke:#000"/><path d="m378.553 396.65 2.96-3.424.913-1.17.217-.35.068-.22-.022-.258-.113-.385-.674-1.17M599.675 484.456l.832.284.681.163.914.066.794-.272.525-.412.69-.908.404-.663.224-.569.165-.9.023-1.988-.008-.307.12-.4.24-.37.255-.271.307-.243.929-.48.831-.292.367-.072.278-.012.322.08.285.203.337.542.232.37.232.26.54.314.72.115 1.348-.057 1.168-.486 2.398-1.512 21.441-15.472-8.396-6.857-8.905-6.946-3.54-2.86-2.63-3.27-1.501-2.195-1.878-3.218-.858-2.299-6.974-22.372-5.74-17.877-1.717-3.933-1.287-1.737M556.168 437.46l-.075-2.988.023-.385.15-.414.224-.286.277-.157.383-.099.783-.036.464-.075.536-.125 2.067-.685.51-.228.27-.171.247-.307 1.101-1.676 1.948-3.089 1.169-1.797 1.289-1.855.712-.906 1.04-1.248 3.162-3.325 1.634-1.883.584-.87 2.638-3.424 4.645-6.492 5.064-6.905 4.6-6.72 1.08-1.67.606-1.026.544-1.015M325.434 346.139l.082.395.307 1.856.45 3.16" clip-path="url(#p854b8d9db2)" style="fill:none;stroke:#000"/><path d="m324.01 342.176-.382 2.168-.202 1.007-.412 2.168-.405 2.676-.135 1.048-.06 1.01.023.153.079.103.13.058.124.01.098-.018 3.405-1.01M334.52 354.535l.564.667.442.778.487.963" clip-path="url(#p854b8d9db2)" style="fill:none;stroke:#000"/><path d="m336.777 361.138.007-.713-.044-.857-.113-.685-.187-.72-.427-1.22M334.52 354.535l-2.014-1.644M330.28 351.064l1.252 1.014.974.813M337.669 361.237l.966.1M337.669 361.237l-.892-.099M394.294 373.344l-3.881-6.378M394.294 373.344l-3.387 1.869M390.413 366.966l-3.791-6.213M390.413 366.966l-3.372 1.912M390.413 366.966l2.854-1.505M390.907 375.213l-3.866-6.335M387.041 368.878l-3.341 1.89M380.418 372.616l3.282-1.847M396.369 361.23l-4.21 2.383M395.56 364.195l1.663-.899.068-.046.037-.086-.008-.114-.037-.125-.914-1.694M390.803 361.43l3.869-2.161.199-.057.176-.002.129.048.12.116 1.073 1.857M392.158 363.613l1.11 1.848M392.158 363.613l-1.355-2.183M390.803 361.43l-1.38-2.218M386.622 360.753l2.802-1.541M389.424 359.212l3.776-2.083M393.267 365.46l2.293-1.265M396.13 368.536l-1.215-.792-.22-.175-.173-.21-1.255-1.898M334.635 386.6l-.248-3.206M336.17 366.239l.563-4.722.044-.379M335.072 373.922l.075-.432M335.072 373.922l-.67 4.095M335.072 373.922l-1.61-.079M333.461 373.843l-.3.004-.145.032-.109.089-.083.164-.116.382-.396 1.42-.113.592-.472 3.296-.187 1.94-.18 1.669-.261 2.655M332.087 369.97l1.105-.121.176-.004.12.028.078.061.049.093.026.135-.18 3.681M341.257 317.37l-.282-4.045M395.56 364.195l.915 1.473M418.231 377.76l-1.956 1.498-1.887 1.355-1.469.763-.667.272-.63.15-.636.05-.974-.043-3.23-.393" clip-path="url(#p854b8d9db2)" style="fill:none;stroke:#000"/><path d="m407.004 379.14.022.271-.01.36-.233 1.641M418.231 377.76l-2.439-2.126M452.327 364.57l-.808.313-.787.2-.794.15-7.058 1.055-8.443 1.3-.885.227-.786.257-.562.3-.42.285-2.794 1.955-5.312 3.41-2.24 1.455-2.2 1.557-1.007.726" clip-path="url(#p854b8d9db2)" style="fill:none;stroke:#000"/><path d="m415.792 375.634-1 .92-.555.435-.486.307-.525.214-1.895.542-4.327 1.088M415.792 375.634l-1.064-1.063-.097-.082-.09-.057-.131-.04-.165.044-2.06.863-1.431.477-1.828.379-2.152.417-.116.062-.058.092-.017.08.005.119.416 2.215M452.627 348.154l.135 3.003M458.77 348.682l-1.25.514M450.732 362.8l-.3-5.597M452.327 364.57l-.355-.96-.146-.282-.173-.203-.202-.125-.225-.097-.494-.103" clip-path="url(#p854b8d9db2)" style="fill:none;stroke:#000"/><path d="m447.776 357.278.25 4.987.046.446.034.107.086.136.094.06.16.036 2.286-.25M458.763 356.915l-.097.499-.734 5.985M458.763 356.915l-.929.028M480.258 339.09l-.989.41-2.165 1.077-1.603.828-1.439.856-5.064 3.653-1.38 1.085-1.123 1.07-1.34 1.398-3.605 4.109-2.203 2.504-.374.478-.21.357M447.776 357.278l2.656-.075" clip-path="url(#p854b8d9db2)" style="fill:none;stroke:#000"/><path d="m450.11 352.72-1.88.899-.39.25-.158.213-.044.286.138 2.91M452.994 357.107l-.232-5.95M452.994 357.107l-2.562.096M452.994 357.107l2.443-.086M450.11 352.72l.322 4.483M450.11 352.72l2.652-1.563M455.437 357.021l2.397-.078M455.437 357.021l-.322-6.848M455.032 347.769l.083 2.404M455.115 350.173l2.405-.977M452.762 351.157l1.618-.67.735-.314M457.834 356.943l-.314-7.747M457.467 347.626l.053 1.57M335.855 378.808l.873-6.014M337.818 366.417l-1.09 6.377M338.635 361.337l-.165 1.206-.652 3.874M338.53 358.249l.068.378.067.556.037.592-.03.707-.037.855M336.863 353.144l.35.954.868 2.397.247.869.202.885M277.432 588.88l9.267 3.641 15.18 6.163M302.79 585.675l.002.384-.037 1.185-.876 11.44M302.79 585.675l2.04.313 2.877.414 1.394.185 1.363.129 1.38.285 1.306.317.6.118.404.068.679.096.786.042.64-.07.325-.072.331-.096.266-.146.476-.371" clip-path="url(#p854b8d9db2)" style="fill:none;stroke:#000"/><path d="m335.835 505.758-2.91 7.963-.419 1.048-.292.62-.607 1.078-7.305 12.176-.42.649-.628.791-.698.707-.359.306-.48.335-.539.3-.569.278-.54.157-.966.021-1.491-.2-1.349-.149-1.063-.085-.765.042-.682.15-.498.164-.468.217-.386.232-.434.36-.551.546-.495.585-.505.678-.446.663-.922 1.512-.22.346-.2.403-.044.293-.026.388.03.524-.034.421-.097.4-1.065 2.061-.524.785-.4.374-.383.296-.536.314-.681.335-.615.207-.895.243-1.674.385-.922.32-.487.343-.39.392-.381.485-.285.635-.202.6-.285 1.547-.135 1.148-.015.949.824 8.788.45 3.252 1.948 11.212.524 2.44.524 3.152.06 1.683-.135 1.783.013 2.269M335.835 505.758l.74.723 1.078 1.177 1.244 1.32 1.311 1.27.345.377.217.27.165.315.142.421.135.45M348.244 470.815l-8.486 24.203-3.923 10.74M237.091 563.376l1.045-.61.674-.743.584-1.198.765-3.994.164-7.875-.03-2.21.33-1.356.824-1.055 2.457-2.426 4.091-3.523 1.379-1.241 1.483-.828 1.514-.6 3.146-1.012 4.645-1.498 5.844-1.726 3.506-1.112 1.589-.443 1.139-.456.929-.442.326-.225.243-.214.315-.382.374-.649.345-.634.143-.536.321-2.282.345-1.74.33-1.199.225-.956.142-.402.113-.218.176-.278 1.172-1.484 1.214-1.213 2.045-1.518 1.304-.9 1.041-.92.547-.698.554-.856.892-1.612.431-.81.314-.425.364-.37.322-.207.397-.114.959-.129h2.203l1.052-.007.619.007.222-.004.122-.028.097-.04.113-.077.674-.835" clip-path="url(#p854b8d9db2)" style="fill:none;stroke:#000"/><path d="m277.432 588.88-5.417-2.129-6.068-2.446-3.761-1.97-3.4-2.153-21.695-16.806M295.172 441.191l-8.293 8.047-1.588 1.626-1.798 2.14-1.708 2.055-2.308 3.167-1.948 3.067-13.856 21.965M228.71 462.035l2.533 2.126 1.648 1.583 1.214 1.441.689.97.285.6.255.87.434.941.48.913.36.543.449.37.629.186 3.402.456 1.753.371 2.397.8 2.817.969 4.51 1.398 5.365 1.598.989.243.614.1.75.256.659.385.389.371.195.371.173.521.202.414.187.342.352.5 1.233 1.585M348.244 470.815l1.6-4.562M334.5 466.75l.231.706.158.4.262.4.322.42.457.4.997.884 1.183 1.12.817.7.54.562.352.329.337.2.487.12.704-.042 2.33-.478 1.686-.535 1.408-.564 1.473-.557M413.683 566.724l-.322.385-.27.263-.344.236-.532.242-1.49.478-1.414.289M394.82 549.524l1.556.488.465.157.39.22.27.222.276.321.143.428.786 2.475 1.2 3.495.419 1.041.69 1.413.763 1.226.93 1.241 2.127 2.796.524.65.353.37.404.4.585.406 1.49.97 1.12.774M389.08 546.825l-.076.64-.082.357-.105.407-.247.606-.322.67-.323.778-.217.585-.262.913-.278 1.234-.254 1.64-.24 1.077-.194.528-.233.4-.427.541-.57.678-.628.735-1.237 1.209-.337.381-.525.728-1.033 1.933-.795 1.712-.973 2.795-1.184 3.396" clip-path="url(#p854b8d9db2)" style="fill:none;stroke:#000"/><path d="m394.82 549.524-4.722-1.48-.442-.144-.19-.124-.106-.15-.131-.317-.15-.484M379.714 534.242l1.296.784.847.592.48.364.344.3.314.363.48.657.517.727.27.5.292.684.487 1.213.397.663.78 1.099.89 1.126.81 1.02.337.45.307.492.18.392.15.428.16.642.028.087M394.82 549.524l.29 1.287.12.435.075.414.18 1.234 1.019 4.358.502 1.882.06.35.06.285.007.236-.022.25-.098.27-.172.35-.674 1.14-1.177 2.076-.344.636-.15.392-.113.385-.112.328-.202.371-.3.37-.344.457-.165.321-.113.4-.007.35.03.566.078.5.064.217.142.35.053.228.022.342.015.42M379.714 534.242l-.562 3.844-.75 5.45-1.94 13.166-.093.517-.105.318-.109.164-.086.089-.131.11-.374.143-1.072.307-1.394.478-.569.128-.345.043-.382-.05-.374-.121-1.686-.578-2.39-.692M464.543 538.71l-.456-.324-.387-.293-.531-.435-1.11-.998-1.258-.949-2.735-2.182-4.21-4.123-1.124-1.305-.434-.635-.263-.493-.157-.42-.127-.485-.368-1.412-.374-1.263-.098-.571-.052-.464.008-.499.04-1.04M451.055 487.15l-.098 2.761-.24 4.879-.18 3.252-.315 3.068-.24 1.127-.112.656-.053.685.023.649.082.55.105.534.195.428.18.485.135.485.112.47.038.793.135 3.395.12 4.437.015 2.396-.03 2.14-.02.479" clip-path="url(#p854b8d9db2)" style="fill:none;stroke:#000"/><path d="m426.63 540.155-1.08-1.028-.261-.263-.105-.214-.12-.343.007-.4.135-.798.15-.92.045-1.034-.008-.614.023-.357.127-.335.375-.585.906-1.212 1.274-1.926.757-1.676.636-1.127.54-.977.712-1.106.375-.535.284-.27.337-.207.322-.122.652-.128.982-.143 1.22-.271.63-.271.405-.307.39-.235.292-.057.412-.029h.494l.435-.028.427-.143.375-.17.434-.208.382-.121h.405l1.25.143.63.078.558.114.487.05.296.021.364-.01.397-.054.91-.193.505-.117.521-.054.54.018 1.112.207.454.043.348-.04.416-.1.57-.249.61-.335.498-.346.446-.352M350.108 466.957l.23.613.569 1.213.33.57.36.664.269.385.42.507.614.463.839.485.891.371 1.192.414.959.428.988.563.705.457 3.986 2.753 3.895 2.211.825.557.929.927 1.273 1.67.42.713.262.407.247.267.18.139.225.107.547.136 2.443.306 3.925.4.442.114.36.15.322.235.36.428 2.052 3.413.071.185.046.211.004.325-.03.353-.758 3.894-.138.902-.101.8-.554 5.773-.094.618-.199 1.098-.06.425-.026.288.008.828.109 1.794.082.599.172.435.322.563 1.364 2.026.644.642.502.42.959.55 1.273.678.698.428.606.47.472.464 1.124 1.555.206.382.154.331.094.3.04.317-.022.974-.157 4.101-.112.8-.124.463-.214.42-.382.543-.382.513-.472.578-.382.37-.554.4-3.979 2.882-.374.357-.3.4-.33.548-.18.628-.217.984-.262 2.604M349.843 466.253l.265.704M344.105 390.203l.09.583.284 1.534.217.848.367 1.106 2.053 5.265.652 1.498.21.628.074.663.068.864.21 2.839-.008 2.296-.127 2.176-.547 4.787-.248 2.183.008.55.068.541.15.5.464 1.027 2.007 4.073 2.945 5.807 2.612 5.974.333.852.187.642.105.564-.008.835-.322 5.542-.127 3.324-.098.863-.277 1.534-.322 1.305-2.986 8.5-1.412 3.827-.884 2.52M414.384 425.676l-.015.514-.027.414-.074.763-.562 3.36-.614 2.354-.57 1.562-.712 2.119-.75 2.261-.291.963-.105.642-.015.727.09.735.322 1.862.817 3.182.464 1.733.337.906.66 1.448 1.003 1.862.637.813.667.642.99.892.299.345.352.482.345.542.756 1.134.555.678 1.244 1.34 2.187 2.243M446.924 468.355l-.538-.128-2.113-.543-3.281-.756-3.207-.877-3.064-.8-1.123-.299-1.56-.356-2.396-.45-1.207-.27-.719-.207-1.341-.457-1.694-.492-1.393-.332-.914-.194" clip-path="url(#p854b8d9db2)" style="fill:none;stroke:#000"/><path d="m350.108 466.957.806-.243 1.701-.485 4.33-1.377 4.189-1.412 4.076-1.34.703-.279.42-.143.494-.093.562-.085h2.196l4.824.093 5.837.028 7.462.129 6.293.028 5.98.086 7.042.028 10.054.086 2.263.057h1.476l.865.078.693.08M463.58 483.442l-.082.442-.15.35-.24.306-.442.278-.666.207-3.057.578-4.09.849-3.798.697M446.924 468.355l.241.057.435.15.352.193.27.206.42.435.382.45.412.578.434.956.532 1.64.15.785.12.841.21 4.18.24 6.491-.067 1.832M485.588 527.598l.319-.182.555-.25.621-.136M485.588 527.598l-.805.46-.974.428-.802.235-.621.093-.952.021-.734.05-.465.129-.434.227-.884.557-.87.699-1.093.785-3.072 2.439-3.431 2.21-4.106 2.034-.97.414-.476.192-.356.14M485.588 527.598l.522.21.569.307.502.363.217.172.195.256.135.307v.442l-.053.478-.097.428-.285.65-.42.927-.254.57-.142.435-.053.471.097.478.727 2.44M277.432 588.88l-1.619 2.015-.966 1.213-1.85 2.053-.667.778M337.084 216.33l-.903-.496M353.915 292.993l.071-.265.42-1.74.172-1.014.375-4.416.33-4.88.022-1.013-.053-.728-.187-.97-.24-.956-.562-1.327-.809-1.227-1.393-1.484-4.81-4.38-1.911-1.834-.756-.906-.585-.893-.375-.741-.33-1.006-.134-1.05.007-1.027.143-.991.522-1.896 1.216-4.197.172-1.049.12-1.37.008-1.277-.083-1.477-.194-1.313-.353-1.669-.39-1.284-2.868-7.563-2.436-6.543-1.88-5.201-.397-1.506-.143-1.02-.127-1.37-.007-1.148.097-1.349.247-1.534.27-1.05M341.062 389.741l-.9 4.897M336.18 215.834l-3.794 5.512-4.42 5.95-4.075 5.63-4.511 5.858M266.53 209.887l1.087.207 1.289.435 1.506.685 1.086.671 1.431 1.049.69.47 1.145.664 1.394.8.69.52.839.807.666.898.18.364.131.336.079.367.183 1.488.379 1.866.202.695.33.756.36.479.509.456.494.335.412.129.345.007.547-.142 1.933-.757.87-.27.913-.137.78-.028.628.085 1.349.314.966.207 1.604.264.622.057.524-.035.72-.264.846-.272 1.004-.199.787.014.696.171.42.25.277.4.113.485.12 1.74.142.572.21.549 1.131 1.87.315.349.434.278 2.285.863 2.12.842 1.034.607.727.535.682.642.959.978.39.542.24.564.18.784.141.664.173.328.33.257.464.157 4.368.378 3.686.357.498.078.48.125.715.21M325.434 346.139l-.083-.275-1.34-3.688M349.502 348.21l-1.72-.885M334.402 378.017l-.098.706-.075.799-.007.692.09 2.204.075.976M335.099 378.11l-.697-.093M336.17 366.239l-.472 3.424-.55 3.827M330.303 367.394l3.806-1.148 2.06-.007M384.217 336.582l-1.207.839M414.384 425.676l-.011-.542-.098-.949-.442-2.575-.457-2.404-.36-1.94-.374-1.327-.615-1.57-.659-1.383-1.138-1.955-2.96-5.179-1.34-2.325-.795-1.57-.907-2.14-.247-.542-.532-.906-.644-.835-1.042-1.105-1.76-1.37-1.506-1.049-.532-.406-.555-.564-2.157-2.646-1.851-2.176-1.408-1.605-.795-.942-1.394-1.827M295.172 441.191l3.103 1.72.315.256.269.321.217.379 1.027 1.74.337.442.232.243.352.3.503.278.629.3M314.097 422.922l-9.477 9.189-7.147 6.848-2.3 2.232M327.764 438.07l.4-.185.27-.15.263-.203 1.884-1.548.978-.81" clip-path="url(#p854b8d9db2)" style="fill:none;stroke:#000"/><path d="m327.764 438.07.21.283.367.36.243.192.128.043h.157l.168-.064 1.559-1.33 1.123-1.053.165-.189.113-.225.026-.181-.026-.19-.102-.17-.336-.371M328.635 432.258l2.324 2.3.6.617" clip-path="url(#p854b8d9db2)" style="fill:none;stroke:#000"/><path d="m328.635 432.258-.4 2.663-.434 2.126-.123.431-.03.147-.008.136.03.124.094.186" clip-path="url(#p854b8d9db2)" style="fill:none;stroke:#000"/><path d="m316.526 423.258 1.835 1.805.096.087.11.057.083.025.127-.007.109-.05.764-.769.063-.056.124-.068.083-.015.116.026.127.074 4.844 4.398 3.628 3.493M316.554 420.539l-2.457 2.383M316.526 423.258l-.038-1.063v-.514l.066-1.142M314.097 422.922l1.185.058.502.071.345.093.397.114M414.384 425.676l1.847 2.04 1.7 1.727.424.41.292.218.434.263.349.265.644.62.397.4.704.799.75.763.95.863.877.649 1.087.699.584.314.457.171.457.093 1.978.307 2.03.235.885.114h.464l.525-.071.652-.214 1.37-.492.525-.129.54-.05.959.043 2.187.193.592.078.517.128.3.1.097.08.06.115.007.139-.621 3.047-.645 3.696-.3 1.384-.688 2.596-.51 1.884-.465 1.732-.285 1.278-.078.427.019.193.067.135.154.154.202.11 6.761 1.934 4.623 1.32.222.103.112.093.037.114-.004.128-1.702 11.48M266.53 209.887l-.404-.756-.254-.578-.188-.614-.382-1.976-1.011-5.551-.285-1.87-.202-1.37-.308-1.605-.352-1.384-.569-3.118-1.034-5.887-.63-3.346-1.019-5.737-.127-.942-.48-3.36-.186-.992-.472-2.041-.87-4.302-.21-1.235-.157-1.613-.127-.92-.247-1.149-.705-3.967-.03-.67.105-.6 1.334-2.997 2.038-4.567 1.153-3.582.24-1.27.21-3.24-.015-2.682-.12-.385-.464-.272-.585-.1-1.558.115-3.432.071-2.037.043-.63-.286-.599-.628-1.109-1.712-3.326-3.925-.75-.3-.958-.07-.945.327-.27.457.06.557.21.742-.074.699-.24.728" clip-path="url(#p854b8d9db2)" style="fill:none;stroke:#000"/><path d="m217.308 203.18.794 10.703.037.756.053.179.157.12.285.079 6.765.407 5.859.4 5.394.2 4.031.185h.697l.637-.071.591-.165 2.72-.892 2.165-.642.367-.2.36-.292.45-.55 3.116-4.238.75-.77.703-.557.825-.37 1.288-.286 1.709-.114h1.498l.72.085.83.307 1.957.906 1.783.9.779.313.749.15 1.154.164M600.499 245.88l-.36.538-2.322 3.053-1.828 2.369-2.653 3.524-1.535 2.184-1.027 1.583-2.854 4.81-2.15 3.467-1.087 1.591-.621 1.156-.383.87-.697 1.798-.591 1.67-.188.642-.082.749.135 1.305.12 1.063-.038.685-.195.55-.367.485-.532.35-.517.163-3.229.279-1.071.228-.727.2-.644.314-.674.585-2.533 2.683-1.348 1.312-3.364 3.025-.45.428-.367.514-1.049 1.912-1.858 3.995-.42.87-.3 1.17M551.298 326.317l.09-.636.15-.378.33-.449 4.263-5.08 4.016-4.865 1.228-1.584.517-.956.255-.806.067-.934-.21-2.526.06-1.655.3-4.038.33-4.41" clip-path="url(#p854b8d9db2)" style="fill:none;stroke:#000"/><path d="m551.216 229.553.18 4.794-.42 2.969-.03.97 1.529 5.993.449 1.34 1.349 2.741 3.536 8.219.749 2.312.9 6.992.09 1.598.329 2.397.51 5.737.509 4.251-.03.457 1.049 10.217.509 5.023.09.77.038 1.085.142.583M480.258 339.09l.682-.282 1.274-.32 1.423-.193 2.3-.172 1.813-.07 1.132.056.966.165 1.124.299 4.705 1.627 2.435.72.614.079.554-.022.773-.207 1.895-.791 2.3-1.185.48-.185.756-.05.63.021 4.434.514 6.998.428 1.296-.057 1.147-.114.854-.186.899-.242 2.922-1.228 10.37-4.394 6.997-3.082 7.17-3.032 2.097-.87M353.915 292.993l.262.634.18.357.157.235.15.165.199.167" clip-path="url(#p854b8d9db2)" style="fill:none;stroke:#000"/><path d="m450.728 196.192-.442.392-.454.446-.546.635-.892 1.263-1.213 1.933-.353.692-.142.493-.067.514-.083 1.02-.06.606-.367 1.556-.12.685-.082.62v.92l.09.329.157.321.322.25.652.5.472.434.457.528.322.522 1.042 1.748 1.25 1.762.495.542.442.378 1.536.95.405.363.929 1.199.592.799.194.37.15.372.203.6.24.527.336.4.345.292.72.45.321.207.3.306.135.3.06.321-.075.514-.116.664-.191.756-.24.535-.367.442-.435.2-.629.143-.682.035-.689-.071-.824-.25-1.071-.513-1.506-.643-2.713-.899-2.45-.785-.906-.206-.734-.079-1.379.015-2.187.192-1.866.214-.944.264-.824.321-.547.371-.907.792-2.637 2.397-.337.343-.262.485-.48 1.106-1.54 3.154-.588.913-.464.678-.39.464-.726.742-.494.542-.398.535-1.341 2.326-.322.57-.84 1.064-1.437 1.612-.907.878-.682.52-1.663 1.213-3.252 2.612-1.7 1.52-2.81 2.768-1.124 1.156-1.214 1.455-.876 1.15-.615.783-.958 1.021-2.848 2.69-2.292 2.112-.562.528-1.296 1.32-.727.699-.577.463-1.955 1.313-.997.678-.996.677-8.077 7.036-7.057 6.264-3.012 2.625-.854.685-.794.514-7.807 3.98-6.173 2.94-6.848 3.271M450.728 196.192l.094-.19.037-.21-.015-.203-.06-.175-.139-.19-.389-.649-.63-1.323-.097-.318-.007-.235.09-.196.205-.168.623-.228 1.123-.336.443-.228.381-.321 1.596-1.456 1.813-1.834.255-.406.06-.3-.06-.2-.15-.27-.891-.793-.72-.607-.554-.32-.75-.429-1.018-.777-.12-.186-.097-.257-.113-.62-.345-1.748-.03-.364.053-.4.375-1.352.146-.453.213-.46.345-.475.588-.667.438-.407.457-.467.416-.571.405-.524.284-.261.547-.36 1.14-.617.153-.064.247-.04.678.01.667.036.33.069.356.157.325.21.866.77M339.616 352.848l-.569-.81M325.434 346.139l1.31-.69.316-.12.374-.065 1.78-.072M464.307 194.935l-5.514-1.57-2.907-.114-4.75 2.826-.408.115M518.79 147.647l-1.199-2.512-.899-4.024-1.198-3.453-.93-1.37M521.817 153.583l-.9-.628-.718-1.085-1.409-4.223" clip-path="url(#p854b8d9db2)" style="fill:none;stroke:#000"/><path d="m521.817 153.583.24-2.255.24-2.226-.12-.913-.27-.228-.6-.172-1.258-.085-1.259-.057M551.216 229.553l1.768-5.337 2.218-2.625.42-.343.778-.314 3.267-.171.9-.114.359-.2.45.285h1.708l2.217-1.911 1.588-.144 1.289.97 1.05.6 1.377.514.72.4.39.4.838 1.797.27 1.484.6 1.37.569 2.197.54 1.256 1.138 1.712.78 1.684.479 3.196.39 1.228.539.856 1.319 1.37.449 3.167 1.648 2.312.54.428 1.888.143 2.787-.257 12.616.085 1.394.289M480.258 339.09l-.877-3.801.03-.542.15-.4 9.32-7.62.42-.428 1.139-.742M551.216 229.553l-.39-.457-.719-3.738-.54-1.884-3.745-6.193-1.739-2.968-.78-2.911-.928-.713-1.229-3.397-.24-1.055-.479-.77-.57-.315-1.588-.456-1.858-.857-1.948-.713-3.027-.8-1.617-.056-6.084.542-2.128.086-.96-.257-.508-.714-.09-.513.12-.628 1.378-2.454.75-1.77.299-1.284.57-3.624.21-.685.629-1.399 1.378-1.969.39-.8.18-.656.15-2.254-.06-4.452.09-3.082-.12-.542-.54-1.37-1.289-2.654-.12-.914.15-.885 1.888-4.594.24-1.341-1.978-4.196-.719-2.054-1.828-4.224" clip-path="url(#p854b8d9db2)" style="fill:none;stroke:#000"/></g><g id="PatchCollection_1"><path d="m350.71 360.213 2.558-1.388 1.446 2.415-2.557 1.388zM351.716 335.777l-.34 2.51 1.278.093.26-2.526zM353.275 372.68l-.263 2.034-2.161-.275.273-2.008zM339.832 344.818l-.705 2.81 1.739-2.168z" clip-path="url(#p854b8d9db2)" style="fill:green;fill-opacity:.8"/></g><path id="PatchCollection_2" d="m363.563 322.54 4.926-.318-.4-5.61-4.926.317z" clip-path="url(#p854b8d9db2)" style="fill:#90ee90;fill-opacity:.8"/><g id="PatchCollection_3"><path d="m333.937 352.303.302.771.125-.044.33.842 1.32-.469-.35-.891h-.09l-.271-.693zM333.883 353.392l.586.335-.223.354-.586-.336z" clip-path="url(#p854b8d9db2)" style="fill:#a9a9a9;fill-opacity:.8"/></g><g id="PathCollection_1"><defs><path id="mc98e76d38c" d="M0 3a3 3 0 1 0 0-6 3 3 0 0 0 0 6z" style="stroke:#a9a9a9;stroke-opacity:.8"/></defs><g clip-path="url(#p854b8d9db2)"><use xlink:href="#mc98e76d38c" x="593.888" y="476.894" style="fill:#a9a9a9;fill-opacity:.8;stroke:#a9a9a9;stroke-opacity:.8"/><use xlink:href="#mc98e76d38c" x="593.851" y="476.905" style="fill:#a9a9a9;fill-opacity:.8;stroke:#a9a9a9;stroke-opacity:.8"/></g></g></g></g><defs><clipPath id="p854b8d9db2"><path d="M90 119.113h558v488.974H90z"/></clipPath></defs></svg>