<svg xmlns="http://www.w3.org/2000/svg" width="960" height="960" viewBox="0 0 720 720"><defs><style>*{stroke-linejoin:round;stroke-linecap:butt}</style></defs><g id="figure_1"><path id="patch_1" d="M0 720h720V0H0z" style="fill:#fff"/><g id="axes_1"><path id="patch_2" d="M97.396 640.8h543.208V86.4H97.396z" style="fill:#fff"/><g id="LineCollection_1"><path d="m121.369 289.852.207.893.501 5.075.486 25.08 1.59 6.884 2.307 5.325 2.635 4.473 2.675 3.424 2.625 2.886M140.203 348.322l-1.526-1.002-4.282-3.428M132.75 356.79l1.244-2.072.905-2.08.55-1.665.193-1.888-.097-1.472-.517-1.472-.549-1.248-.084-1M261.491 388.737l1.77.081M261.491 388.737l-1.234-.117M261.71 389.81l-.114-.329-.056-.312-.049-.432M578.866 133.62l-1.29 1.265M578.866 133.62l1.145-1.137M578.866 133.62l-.08-.423-.128-.329-.779-.85M320.837 499.093l1.065-1.51M320.837 499.093l-.88 1.306M320.837 499.093l.231.336.351.332.342.276M462.241 558.384l-20.368-.812M525.482 560.926l-11.456-.136-29.12-1.408-17.01-.747-5.655-.25M324.371 501.412l-.928-1.427-.36-.784-.321-.853M341.34 512.78l-9.098-5.531-2.787-1.608-1.744-1.156-.756-.58-.888-.812-.715-.668-.98-1.013" clip-path="url(#p194887be4a)" style="fill:none;stroke:#000"/><path d="m321.761 500.037.926.3.465.268 1.22.807M342.576 405.887l.436.052M342.577 405.358l.067.268-.068.26M341.758 405.767l.216.044.602.076M344.247 405.925l.012-2.572M344.247 405.925l2.963-.052M344.247 405.925l-.172.002M355.74 406.308l6.756.222M355.74 406.308l.02-.195-.021-.194-.062-.186-.102-.169M355.273 406.924l.172-.123.133-.143.1-.167.061-.183M145.066 350.953l-1.6-.805M249.974 387.985l-6.615-.28-4.466-.256-3.312-.248-3.924-.28-2.505-.224-1.655-.28-1.527-.312-1.437-.328-.993-.288-.93-.313-1.574-.623-1.713-.729-6.501-2.84-6.922-3.048-5.904-2.64-7.132-3.193-5.169-2.304-42.629-18.846M145.066 350.953l-2.155.036M139.537 352.337l-6.786 4.453M139.537 352.337l1.588-.771 1.786-.577M141.066 350.489l-.325.693-1.204 1.155M577.065 130.91l.075 2.043M577.065 130.91l.814 1.107M369.195 399.948l-.53 6.951M369.195 399.948l.327-4.852M369.195 399.948l-6.307-.266M376.108 400.392l-.382-.038-6.53-.406M369.522 395.096l-6.137-.422M369.522 395.096l6.317.298M369.522 395.096l.457-5.835M366.602 429.64l-.283 2.657M366.602 429.64l.416-5.374M366.602 429.64l2.218.092M366.602 429.64l-6.015.075M335.133 424.74l.274 3.15M335.133 424.74l-.712-8.137M335.133 424.74l-3.877.029M340.765 424.905l-1.206.091-4.426-.257M370.884 377.818l-.905 11.443M370.884 377.818l6.36-.106M370.884 377.818l-1.942.023M372.382 371.608l-.557 1.088-.525.94-.105.308-.072.328-.04.464-.175 2.188-.024.894M358.151 394.138l-.605-.049M358.151 394.138l.504.051M358.151 394.138l1.64-2.913 1.438-2.456M356.205 399.146l.137-.64.29-.88.445-1.096 1.074-2.392M340.189 412.195l.301 4.332M343.28 411.557l-1.41.366-1.681.272M334.108 412.66l4.53-.337 1.55-.128M339.805 407.559l.223 2.692.16 1.944M340.181 384.145l-2.894.219M340.181 384.145l3.659-.145M340.181 384.145l.293 4.842M340.181 384.145l-.492-5.813M334.108 412.66l.313 3.943M334.108 412.66l-.417-4.86M327.8 413.147l2.956-.2 3.352-.288M327.8 413.147l.164 1.888M327.8 413.147l-.518-5.283M325.433 413.411l1.349-.144 1.018-.12M377.244 377.712l.506-5.99M377.244 377.712l-.555 6.927M377.244 377.712l5.185.16M326.039 394.75l-4.509.408M326.039 394.75l2.998-.257M326.039 394.75l.478 5.15M326.039 394.75l-.426-3.241M326.675 401.256l.034.522M326.675 401.256l-.158-1.356M326.675 401.256l-1.196-.358-2.168-.664M333.34 403.402l-2.922-.944-2.023-.645-1.72-.557M353.741 394.24l.146-5.267M353.741 394.24l-5.847-.287M353.741 394.24l3.033.04M332.273 390.806l.275 3.387M332.273 390.806l-.386-4.133M332.273 390.806l-3.379.357M332.273 390.806l3.75-.406M343.702 416.588l3.393-.017M343.702 416.588l-.422-5.031M343.702 416.588l.243 8.333M343.702 416.588l-3.212-.061M343.84 384l-.456 4.72M343.84 384l.581-5.552M343.84 384l4.502.318M344.421 378.448l.673-6.295M344.421 378.448l-4.732-.116M344.421 378.448l4.299-.197M347.042 410.93l.168-5.057M347.042 410.93l.053 5.641M353.774 411.13l-3.15-.023-3.582-.176M343.28 411.557l2.252-.442 1.51-.184M340.548 390.102l-2.698.178M340.548 390.102l-.074-1.115M340.548 390.102l.337 2.226M321.53 395.158l-6.087.619M321.53 395.158l.21 4.593M321.53 395.158l-.338-3.168M315.443 395.777l-2.83.364M315.443 395.777l.315 2.945M315.443 395.777l-.283-3.04M315.16 392.737l-1.764.203M315.16 392.737l6.032-.747M314.748 384.969l.194 3.72.097 1.808.12 2.24M318.425 413.816l4.375-.373M321.74 399.751l.003.475M321.74 399.751l-.426-.083-1.74-.342-1.285-.244-.379-.05-.99-.086M321.74 399.751l1.571.483M314.748 384.969l-.234-3.632-.17-1.705-.049-.88M318.9 379.92l-.275-.032-.428-.08-1.187-.336-2.715-.72M301.923 370.335l3.892 1.884.541.288.324.22.165.2.23.317.582.884.565.72.84.848.517.576.404.36.404.256.363.128.622.2.92.248.558.2.476.336.404.336.565.416M361.019 424.222l-6.744.23M361.019 424.222l5.999.044M361.019 424.222l-.432 5.493M361.79 416.373l-.323 3.81-.448 4.039M321.192 391.99l1.3-.142M333.34 403.402l.073.624M333.34 403.402l-.372-4.077M337.88 405.003l-.47-.28-.468-.185-3.602-1.136M325.613 391.509l-.135-1.262M325.613 391.509l-3.12.339M325.613 391.509l3.281-.346M363.385 394.674l-4.73-.485M362.888 399.682l.19-2 .307-3.008M363.716 389.054l-.17 2.867-.16 2.753M354.05 384.828l.363-6.587M354.05 384.828l-.163 4.145M354.05 384.828l-5.708-.51M354.05 384.828l4.988.504M348.072 388.91l.27-4.592M348.072 388.91l-.091 3.49M348.072 388.91l5.815.063M348.072 388.91l-4.688-.19M361.229 388.77l.445.065M361.229 388.77l.88-1.457.718-1.256M353.887 388.973l4.067.032M339.22 371.323l.47 7.01M339.22 371.323l5.874.83M339.22 371.323l-.046-.886M328.634 370.261l9.069.915 1.517.147M339.69 378.332l-2.767-.023M376.13 389.44l.559-4.801M376.13 389.44l-6.151-.179M376.711 393.057l-.436-.575-.194-.449-.048-.592.097-2M346.909 424.804l.032-1.424.08-2.832.074-3.977M353.475 416.547l-1.438-.015-2.318.047-2.624-.008M342.919 393.393l-.354 5.51M342.919 393.393l.143-1.078M342.919 393.393l-1.871.012M345.094 372.153l4.023.483M347.876 362.718l-.321 1.181-2.46 8.254M348.342 384.318l.378-6.067M347.894 393.953l.087-1.552M347.894 393.953l-.302 5.09M362.827 386.057l-.702-.208M362.827 386.057l1.688-2.825 2.593-4.544.55-.96 1.63-2.68 2.1-3.593.905-1.488.724-1.284M369.979 389.261l-6.263-.207M346.909 424.804l-2.964.117M346.909 424.804l5.847-.416M346.824 430.235l.004-.247.08-5.184M347.21 405.873l.158-2.461M347.21 405.873l6.716.092M348.72 378.25l.397-5.614M348.72 378.25l5.693-.009M441.542 270.492l-6.785 7.113-5.766 6.064-4.402 4.305-3.392 3.496-1.769 2.056-1.89 2.417M383.907 350.11l5.057-8.154 3.367-5.392 3.352-5.337 3.005-4.913 4.555-7.376 5.128-8.313 3.562-5.8 1.77-2.778 2.034-3.256 1.801-2.848" clip-path="url(#p194887be4a)" style="fill:none;stroke:#000"/><path d="m406.562 293.799.776.128.694.072.687.04 1.139-.065 1.76-.287 2.1-.353.84-.144.703-.063.613.024.477.151.34.24.16.257.146.431.541 1.713M365.948 435.235l.371-2.938M365.948 435.235l-.492 3.291M365.948 435.235l-5.654-.162M352.865 433.9l-.136 1.28M352.865 433.9l.163-.55.082-.385.034-.376.24-2.75.406-5.323.226-2.456.113-1.19.047-.548" clip-path="url(#p194887be4a)" style="fill:none;stroke:#000"/><path d="m353.54 420.29-.045.57-.109 1.368-.17 2.184-.225 3.209-.191 2.425-.156 2.428.008.45.024.257.068.324.121.396M373.017 368.683l.625-1.3.283-.76.452-1.144M373.017 368.683l-.3-.228-.306-.116M371.873 371.552l1.042-1.849.081-.184.105-.247.025-.21-.11-.379M374.377 365.479l1.664-2.72M374.377 365.479l-1.082 1.44-.172.255-.426.633-.286.532M362.125 385.849l-.509-.1M362.125 385.849l-.888 1.608-.856 1.632-.477.784-1.155 1.896-.59 1.024-.613 1.296M372.41 368.34l-.326.54-1.834 3.335-1.89 3.153-1.567 2.64-2.278 3.856-2.39 3.985M357.546 394.09l-.76 1.6-.452 1.032-.42 1.264-.323 1.12M353.926 405.965l-.01.214.042.212.09.195.133.17.157.146M354.242 405.414l-.148.157-.107.187-.06.207M348.073 456.057l.88-2.9M348.073 456.057l-.727 2.433M338.259 452.818l.694 1.388.396.496.679.664 8.045.69M344.178 466.499l.429-.86M345.26 467.047l-.419-.24-.663-.308M341.392 470.709l2.038-3.064.748-1.146M441.873 557.572l-8.335-.377-5.403-.24-2.375-.12-2.81-.376-1.866-.488M402.502 546.567l7.348 3.9 8.133 4.12 3.1 1.384M433.247 528.426l2.96 1.3 2.431 1.116.327.384.025.176-.073.18-.113.156-.25.264-2.674 2.004-3.723 2.612-2.536 1.784-1.066.984-1.3 1.448-1.422 1.865-.775 1.311-.849 2.144-1.558 4.657-.703 2.216-.864 2.944M341.392 470.709l3.203.37M329.216 487.553l6.96-9.53 3.48-4.792 1.736-2.522M350.035 449.131l3.704 1.108M350.035 449.131l1.364-5.865M349.553 450.866l.293-1.053.19-.682M356.171 451.498l-1.554 6.257M356.171 451.498l2.855.867M353.74 450.239l1.773.53.445.193.17.228.029.112.014.196M361.767 453.048l-2.74-.683M357.443 458.26l2.961.641 1.363-5.853M365.396 459.014l-.55-.64-.46-.664-1.138-1.863-1.48-2.799" clip-path="url(#p194887be4a)" style="fill:none;stroke:#000"/><path d="m360.294 435.073.076.98-.749 3.992-.064.992.064 1.497.331 6.152.146.648.493 1.224 1.098 1.88.078.61M349.553 450.866l-.6 2.29M342.12 451.026l3.052-.172 1.737-.168.848-.016 1.796.196" clip-path="url(#p194887be4a)" style="fill:none;stroke:#000"/><path d="m351.997 457.158-2.1-.48-.808-.32-.097-.48.792-3.312.081-1.168-.312-.532M348.953 453.156l-7.278-.144-.743-.134-1.284-.104-1.39.044" clip-path="url(#p194887be4a)" style="fill:none;stroke:#000"/><path d="m332.179 448.418 1.306 2.388.889 1.056 1.422.496 1.688.236.775.224M346.592 461.02l.271-.97M345.939 462.74l.356-.774.297-.946M345.415 461.153l.348.003.422-.036.407-.1M353.466 462.627l1.15-4.872M353.466 462.627l-.315 1.26M353.466 462.627l2.999-.615M356.465 462.012l.978-3.753M356.465 462.012l4.963-1.695M365.396 459.014l-.543.1M366.927 460.28l-.352-.284-1.18-.982M359.026 452.365l-1.583 5.894M357.443 458.26l-2.826-.505M354.617 457.755l-2.62-.597M367.604 460.828l2.81-1.457M367.604 460.828l1.09 1.129M367.604 460.828l-.677-.547M366.551 527.137l19.012 10.393 4.54 2.456 12.4 6.58" clip-path="url(#p194887be4a)" style="fill:none;stroke:#000"/><path d="m392.049 510.353.234.608.477 2.36.266 3.632.137 4.225.04 1.72.154 2.504.347 3.408.364 2.496.508 2.296.336 1.22.363.572.36.372 1.34.824 1.139.64 1.527.916.734.712.84 1.137 1.65 2.225.237.412.06.342-.11.865-.55 2.728" clip-path="url(#p194887be4a)" style="fill:none;stroke:#000"/><path d="m395.318 557.963 2.182-1.034.673-.484.644-.698 1.195-1.209 1.196-1.352.557-.952.323-1.08.202-1.768.212-2.82M368.693 461.957l2.332-1.807M373.89 467.301l-.611-.518-1.357-1.376-3.229-3.45M380.703 452.58l-4.937 3.79M380.703 452.58l1.31 2.229M380.703 452.58l7.035-5.425M373.33 458.065l2.436-1.696M373.33 458.065l-2.305 2.085M373.33 458.065l-2.916 1.306M370.414 459.371l.611.78M371.025 460.15l1.461 2.026M374.11 464.274l-1.624-2.098M374.11 464.274l4.757-3.75M375.706 465.721l-.771-.556-.825-.891M375.706 465.721l4.394-3.538M375.706 465.721l-1.816 1.58M378.186 467.88l-.618-.745-.741-.688-1.121-.726M372.486 462.176l4.813-3.727M386.486 451.21l-4.473 3.599M386.486 451.21l1.451-1.028M388.35 453.012l-1.095-1.258-.299-.164-.47-.38M393.38 452.509l-3.464 2.508M375.766 456.37l1.533 2.079M377.3 458.449l4.586-3.5M377.3 458.449l1.567 2.075M380.1 462.183l5.089-3.44M380.1 462.183l-1.233-1.659M378.867 460.524l4.584-3.745M392.664 449.74l-4.315 3.272M382.013 454.809l-.127.14M383.65 456.66l4.7-3.648M383.65 456.66l-.199.12M383.65 456.66l1.539 2.083M385.189 458.743l4.727-3.726M388.35 453.012l1.566 2.005M373.55 431.393l-2.472-1.265M360.587 429.715l-6.789.05M360.587 429.715l-.083 2.04M360.294 435.073l.21-3.318M360.504 431.755l5.069.203M366.32 432.297l3.97 2.297M367.018 424.266l2.691.204M367.018 424.266l.85-7.782M373.807 424.79l2.015-5.332M373.807 424.79l-2.729 5.338M370.226 424.509l1.63.128 1.951.154M368.82 429.732l2.258.396M368.82 429.732l.89-5.262M369.71 424.47l.516.039M378.72 411.045l1.35-4.062M378.72 411.045l-1.942 5.236M378.72 411.045l4.135.148M378.72 411.045l-1.322-.018M354.476 416.5h.477M354.476 416.5l.154-1.833.178-2.714.065-.998.056-.576.056-.576.13-1.16.145-1.304M354.176 420.322l.131-1.55.17-2.272M361.79 416.373l.314-5.376M361.79 416.373l6.079.111M361.79 416.373l-6.837.127M367.869 416.484l.475-5.434M367.869 416.484l4.255.016M376.778 416.281l-.956 3.177M380.596 416.47l-1.058-.085-.663-.158-.71.01-1.387.044M372.124 416.5l2.487-.112 2.167-.107M380.596 416.47l2.786.707M382.855 411.193l-.735 2.067-.435 1.087-.166.61-.479.983-.444.53" clip-path="url(#p194887be4a)" style="fill:none;stroke:#000"/><path d="m378.826 420.01.502-1.047 1.268-2.493M370.226 424.509l1.898-8.01M372.124 416.5l1.294-5.513M373.418 410.987l3.98.04M373.418 410.987l-5.074.063M373.418 410.987l1.04-3.954M362.496 406.53l-.392 4.467M362.496 406.53l6.17.369M362.888 399.682l-.294 5.072-.098 1.776M362.104 410.997l6.24.053M362.104 410.997l-6.723-.074M368.344 411.05l.321-4.151M377.398 411.027l2.32-7.569M379.719 403.458l1.757.544M379.719 403.458l-3.774-1.462M381.977 397.186l-1.122 2.952-1.136 3.32M368.665 406.899l5.792.134M375.945 401.996l-.437 1.661-1.05 3.376M376.108 400.392l-.163 1.604M376.108 400.392l1.805-5.014M378.956 392.633l-1.043 2.745M378.956 392.633l.56.24M378.956 392.633l.95-2.463M383.851 390.89l-.739 3.375M383.851 390.89l-.606-.377M384.626 394.906l.86-2.645.024-.235-.003-.12-.033-.116-.098-.129-.132-.104-1.393-.667M375.945 401.996l.672-1.534 1.767-4.628M355.591 399.106l.614.04M355.591 399.106l-.161.832-.194.792-.186 1.488-.218 1.328-.186.848-.33.833M356.205 399.146l.492.04M355.5 405.124l-.063-.377-.007-.504.072-.745.089-.776.17-1.288.444-2.288M362.888 399.682l-6.19-.496M363.716 389.054l-2.042-.219M368.36 378.975l-2.169 3.782-1.676 2.876-.322.832-.178.736-.146.704-.153 1.149M377.913 395.378l-2.074.016M377.913 395.378l.471.456M375.84 395.394l.871-2.337M389.392 359.321l-2.305 6.612M389.392 359.321l5.048.147M380.653 358.894l2.794.168 3.166.192 1.89.072.889-.005M376.711 393.057l3.077-8.024M376.689 384.639l3.1.394M379.788 385.033l2.641-7.161M379.788 385.033l2.091.086M382.43 377.872l2.163-6.31M384.497 377.84l-.484.016-1.584.016M368.36 378.975l.582-1.134M368.36 378.975l-.807-.19M372.382 371.608l5.368.115M372.382 371.608l-.51-.056M384.593 371.562l2.494-5.63M384.593 371.562l-2.14.05M384.593 371.562l2.423.031M377.75 371.723l4.703-.11M378.784 363.7l-.328 1.683-.154 1.208-.218 2.072-.194 1.6-.14 1.46M380.653 358.894l-2.02-.248M378.784 363.7l.399-1.398.177-.535.275-.712.469-1.025.549-1.136M383.907 350.11l.194.527.049.232-.008.345-.146.415-.993 1.585-.557 1.04-.42.968-.437 1.184-.936 2.488M378.634 358.646l-2.593 4.112M383.907 350.11l-3.594 5.848-1.68 2.688M376.041 362.758l2.743.943M378.784 363.7l8.303 2.233M387.087 365.933l2.058.645M402.548 370.782l-.71-.19M391.984 367.55l2.456-8.082M395.6 368.84l-.967-.28-1.244-.417-1.405-.592M389.145 366.578l.768.225 1.788.646.283.102M390.868 370.548l.267-.52.292-.957.226-.624.33-.896M394.44 359.468l4.377-.006M398.26 369.735l-.324-.112-.58-.183-1.755-.6M398.817 359.462l-.692 1.984-.913 2.283-1.611 5.11" clip-path="url(#p194887be4a)" style="fill:none;stroke:#000"/><path d="m398.26 369.735.339-1.304.339-1.232.452-1.328.517-1.328.614-1.2 1.336-2.885.081-.228-.003-.12-.057-.124-.154-.124-.29-.072-1.713-.28-.904-.048M401.272 370.456l-1.39-.32-1.622-.4M401.272 370.456l.566.136M401.272 370.456l.609-3.83M401.256 373.968l.218-.76.182-1.149.182-1.467M390.868 370.548l10.388 3.42M389.93 371.702l.484-.62.454-.534M400.343 376.904l.235-.688.678-2.248M389.132 373.304l-1.534 3.768M389.132 373.304l.798-1.602M400.343 376.904l-3.158-1.112-8.053-2.488M385.264 382.609l.699-1.607 1.635-3.93" clip-path="url(#p194887be4a)" style="fill:none;stroke:#000"/><path d="m394.14 378.328-1.324-.48-2.068-.704-.735-.136-.88-.008-1.535.072M385.326 377.661l.948-.205 1.324-.384M383.245 390.513l-2.715-.296M384.013 385.448l-.372 1.265-.283 1.056-.218 1.08-.064.584v.408l.169.672M384.013 385.448l-1.57-.242M384.013 385.448l1.251-2.84M395.078 383.04l-3.126-.407-1.446-.224-1.478-.049-3.764.249M379.906 390.17l.624.047M379.906 390.17l1.973-5.051M381.879 385.119l.565.087M381.879 385.119l2.618-7.279M383.112 394.265l-1.135 2.92M383.112 394.265l1.514.64M383.112 394.265l-3.597-1.392M384.626 394.906l-1.026 2.924M381.977 397.186l-3.593-1.352M381.977 397.186l1.623.644M383.6 397.83l-1.199 3.55M382.401 401.38l-.925 2.622M382.401 401.38l3.923 1.179M386.324 402.559l1.889.397M386.324 402.559l-.181 1.527M386.324 402.559l.089-.996M381.476 404.002l-1.407 2.98M380.07 406.983l4.185.259M384.255 407.242l2.412.57M384.255 407.242l-1.4 3.951M387.612 411.693l-2.203-.553-2.554.053M375.822 419.458l3.004.552M382.946 421.556l-2.282-.856M378.826 420.01l1.838.69M352.3 437.96l.376-2.044M346.782 438.07l2.76.095 2.758-.205M351.399 443.266l.544-2.287.357-3.019M346.782 438.07l.042-7.835M346.782 438.07l-2.527-.29M351.399 443.266l-.31-.104-.764-.245-1.385-.383-.161-.068-.174-.149-.477-.688-1.078-1.3-.274-.476-.061-.408.067-1.375M344.255 437.78l-.177-7.41M339.731 441.542l.979-.565 1.272-.56 1.317-.728.645-.52.21-.672.1-.716M343.945 424.92l-3.18-.015M343.945 424.92l.133 5.45M338.855 430.51l1.97-.054M338.855 430.51l-.258.785M338.855 430.51l1.925-4.182M344.078 430.37l2.746-.135M344.078 430.37l-3.253.086M346.824 430.235l5.488-.342M340.765 424.905l-.275-8.378M340.765 424.905l.015 1.423M340.825 430.456l-.045-4.128M335.605 435.801l.715.956.477.4 1.074.472.493.104.71.056.65.012.162-.036.17-.116.113-.244.166-.728.436-1.76.185-.904.009-.576-.14-2.98M333.278 435.242l.813.3.692.171.822.088" clip-path="url(#p194887be4a)" style="fill:none;stroke:#000"/><path d="m338.597 431.295-.501 1.526-.205.816-.258.696-.388.616-.274.24-.348.152-1.018.46M332.91 430.509l1.003.12 1.248.17 1.353.078.832.144 1.25.274M340.49 416.527l-6.069.076M334.421 416.603l-3.847.392M343.28 411.557l-.268-5.618M343.012 405.939l1.063-.012M339.341 404.939l-.17-1.41M339.341 404.939l.464 2.62M339.341 404.939l1.203.448M339.341 404.939l-1.462.064M340.58 404.836l-.488-.033-.751.136M338.238 393.691l-.388-3.411M338.238 393.691l.545 5.276M338.238 393.691l-5.69.502M338.238 393.691l2.81-.286M347.592 399.043l-.224 4.369M347.592 399.043l7.309.039M347.592 399.043l-5.027-.14M342.565 398.904l-.25 4.532M342.565 398.904l-1.127-.059M338.783 398.967l2.655-.122M338.783 398.967l-5.815.358M338.783 398.967l.388 4.562M341.235 405.663l.523.104M339.805 407.559l.828-.172.235-.104.161-.12.097-.256.105-.489.004-.755M341.235 405.663l-.69-.276M341.438 398.845l-.39-5.44M341.438 398.845l.128 4.61M339.171 403.529l2.395-.074M341.566 403.455l-.986 1.381M341.566 403.455l.75-.019M342.315 403.436l.262 1.922M342.315 403.436l1.944-.083M347.368 403.412l-3.109-.059M343.384 388.72l-.268 3.192M343.384 388.72l-2.91.267M343.116 391.912l-.054.403M343.116 391.912l4.865.489M341.048 393.405l-.163-1.077M332.548 394.193l-3.51.3M332.548 394.193l.42 5.132M337.85 390.28l-1.826.12M337.85 390.28l-.563-5.916M357.954 389.005l1.683.064M357.954 389.005l1.084-3.673M359.038 385.332l2.578.417M359.038 385.332l.534-7.17M359.572 378.163l-5.159.078M359.572 378.163l6.555-.147M354.776 373.14l3.897 1.296.533.152.145.088.12.12.09.18.085.36.028 1.376-.049.764-.053.687M354.413 378.241l.363-5.101M354.776 373.14l-3.07-.453M349.117 372.636l2.589.051M349.292 363.439l.015 3.728-.092 3.242-.098 2.227M337.287 384.364l-1.124.06M337.287 384.364l-.364-6.055M330.067 378.356l3.55-.04 3.306-.007M336.16 371.455l.548 5.249.105.944.11.661M334.467 384.528l1.696-.103M334.467 384.528l.214 1.105M331.37 381.912l.347.273.444.256.864.296.242.144.126.152.092.2.146.336.186.572.117.256.1.084.142.047h.291M336.024 390.4l-1.125-4.139M334.899 386.261l1.264-.316.117-.088.089-.128.045-.152-.053-.345-.198-.807M334.899 386.261l-.218-.628M327.872 378.432l2.655 2.526M318.9 379.92l.411-.304.275-.2.396-.336.266-.184.364-.112.533-.024 1.324-.048 3.893.08.59-.056.5-.168.42-.136M329.875 377.4l-.638.32-.654.312-.71.4M331.887 386.673l2.794-1.04M331.37 381.912l.016 1.12.016.792.13 1.089.193.864.162.896M328.431 388.416l1.065-.59 2.39-1.153M331.37 381.912l-.843-.954M332.968 399.325l-4.768.425M333.413 404.026l.278 3.775M333.413 404.026l2.916.872.5.097.46.04.59-.032M333.413 404.026l-6.704-2.248M331.256 424.769l-.508-.033-.578-.048-.488-.096-1.43-.292M330.574 416.995l-2.61-1.96M326.704 421.484l1.475-1.364 1.163-1.452.824-1.069.408-.604M326.704 421.484l-2.197 2.435M323.266 419.698l-2.32 4.18-.223.448.138.251.468-.106.623-.274.957-.249 1.112-1.443.374-.425 1.054-1.204.142-.072.15-.016.156.032.186.116.621.548M331.256 424.769l.233-3.913M325.433 413.411l.792.435 1.739 1.19M325.433 413.411l-2.633.032M322.8 413.443l-.356-5.462M324.424 418.291l-.88-.624-.227-.263-.08-.224-.09-.32-.347-3.417M333.69 407.8l-6.408.064M327.282 407.864l-.573-6.086M327.282 407.864l-4.838.117M322.444 407.98l-.25-3.297M322.444 407.98l-4.96.119M326.71 401.778l-4.967-1.552M321.743 400.226l.318 2.368M316.92 398.946l.558.24.557.192 1.276.248 1.672.376.76.224M316.92 398.946l-1.162-.224M326.517 399.9l1.683-.15M326.517 399.9l-3.206.334M322.195 404.683l-.134-2.089M322.061 402.594l-1.042.088-.606.077-.221.067-.118.06-.076.096-.069.228-.04.984.02.236.056.129.065.088.117.044.121.02 1.927-.028M325.246 388.09l.232 2.157M325.478 390.247l-2.986 1.601M328.431 388.416l-.147.081-1.033.64-1.773 1.11M318.9 379.92l.403.904.13.296.129.168.21.137.274.224.105.2.122.36.104.984-.016.592-.121.336-.13.2-.16.12-.445.08-4.757.448M310.342 385.625l.085-.124.1-.08.162-.06.368-.076 1.89-.184 1.801-.132M330.067 378.356l-.192-.956M330.067 378.356l.46 2.602M328.634 370.261l.151.602.55 2.625.306 1.856.234 2.056M319.958 500.4l-5.404 7.225-4.971 7.16-2.236 2.866-2.51 2.846-2.995 2.809-6.316 5.488-4.184 3.592-5.5 4.76-6.38 5.784-4.427 3.952-5.427 4.72-1.074 1-1.495 1.48-.59.625-.871 1.216-.598.992-.59 1.16-.589 1.408-.695 2.592-.42 1.648-1.203 5.016-.543 2.363M319.958 500.4l.767-.231 1.036-.132M322.762 498.348l-.277-.355-.27-.232-.313-.177M322.762 498.348l.321-1.796.18-.85M323.264 495.703l5.952-8.15M323.264 495.703l-1.362 1.88M580.011 132.483l-2.132-.466M577.14 132.953l-.35 1.585-.521 1.614M577.14 132.953l.064 1.092.129.44.244.4M576.269 136.152 548.04 163.91M576.269 136.152l1.308-1.267M142.254 349.519l1.211.629M142.254 349.519l-2.05-1.197M142.254 349.519l-.52.207-.668.763M142.911 350.989l.387-.337.167-.504" clip-path="url(#p194887be4a)" style="fill:none;stroke:#000"/><path d="m140.203 348.322.786.97.126.813-.049.384M400.343 376.904l-.201.632-.17.368-.25.248-.404.16-.921.096-.598.144-.387.224-.477.304-.622.56-.444.568-.266.584-.525 2.248M537.208 353.598l-1.954 1.488-.662.448-1.308.48-2.957.352-3.488.624-1.52.176-1.356.128-1.276-.112-1.357-.096-.727.032-.71.208-.533.272-.533.384-1.034 1.104-.63.608-1.002.752-1.163.768-.485.496-1.84 2.273-.987.976-1.162 1.136-2.132 1.904-3.36 2.976-.921.993-.404.624-.34.704-.241.624-.679 2.144-.662 1.392-.76 1.024-1.178 1.216-.76.64-1.373.784-2.132 1.009-2.891 1.184-2.261 1.152-2.876 1.536-1.906 1.136-.872.704-.954.736-1.324 1.328-3.409 3.68-5.572 6.081-1.18 1.328-3.714 3.953-3.106 3.3-1.07 1.068-.61.524-.315.224-.387.172-.526.088-.508-.008-.449-.02-.42-.076-.436-.104-.59-.24-1.913-1.04-1.37-.676-1.542-.66-1.191-.444-2.573-.944-.549-.273-.347-.22-.787-.555-.433-.268-.335-.197-.493-.156-.512-.095-1.167-.12-.857-.177-.953-.304-.71-.4-1.874-1.088-.792-.416-.872-.384-.76-.272-.823-.496-.953-.752-.533-.56-1.647-1.68-.905-.944-1.47-1.12-1.147-.688-1.97-.993-1.487-.767-1.906-1.345-.436-.336-.872-.352-.679-.304-1.017-.56-1.18-.688-1.63-.864-2.375-1.552-1.794-1.056-2.261-1.296-1.438-.704-1.55-.497-1.228-.351-1.13-.097-1.568.065-1.26.095-1.776.209-1.39.064-5.297-.176-.905-.065-.808-.095-1.663-.24M368.942 377.841l-.776-.141M389.93 371.702l-2.302-.07M387.016 371.593l.612.04M387.016 371.593l-2.52 6.247M389.145 366.578l-.478.495-1.65 4.52M384.497 377.84l.829-.179M318.132 344.717l-.004.224.069.244.113.252.427.808.405.968.177.64.243.776.258.6.356.64.646.872 1.566 1.513 1.042.936.961.864.788.724M326.261 358.894l-.31-2.776-.054-.36-.044-.232-.093-.2-.19-.22-.391-.328M326.334 359.33l-1.285.032-.21-.036-.136-.084-.11-.144-.15-.436-.569-2.568.008-.296.106-.256.145-.112.371-.28.675-.372M326.334 359.33l-.073-.436M328.634 370.261l-.657-2.614-.242-.88-.387-1.648-.55-3.233-.464-2.556M330.077 359.39l-3.816-.496M318.132 344.717l.226-.504.67-1.2.703-1.449.735-1.504 3.49-7.264M283.282 390.137l6.121.513M263.26 388.818l1.712.079 5.767.416 7.656.528 4.887.296" clip-path="url(#p194887be4a)" style="fill:none;stroke:#000"/><path d="m281.562 394.114.218-.44.613-1.16.436-1.137.453-1.24M315.758 398.722l-1.791-.167-1.384-.177-1.405-.328-1.688-.472M298.514 391.97l1.18.631 1.566.889 2.64 1.56.938.56.904.488.897.408 1.106.424 1.123.44.622.208" clip-path="url(#p194887be4a)" style="fill:none;stroke:#000"/><path d="m308.965 399.434.146-.608.12-.424.26-.824" clip-path="url(#p194887be4a)" style="fill:none;stroke:#000"/><path d="m316.581 402.082-.201.896-.17.64-.17.449-.387.655-.162.193-.283.224-.412.032-1.13-.305-.364-.112-.25-.12-.235-.28-.379-.591-.937-1.36-.702-1.057-.324-.392-.282-.296-.355-.368-.873-.856" clip-path="url(#p194887be4a)" style="fill:none;stroke:#000"/><path d="m294.233 422.26.525-2.64.259-.968.226-.505.348-.607 1.098-1.577 1.187-1.616 1.494-1.656.42-.52.42-.68 1.34-2.744 1.495-3.096.557-.92.469-.6.557-.536.662-.4 1.591-.793.986-.488.218-.136.262-.232.174-.28.065-.3.048-.252.202-.768.129-.512M340.885 392.328l2.177-.013M352.046 468.31l1.105-4.424M344.595 471.079l.957-.024 4.583.672.622.044.279-.132.21-.168.234-.396.32-1.02.246-1.744" clip-path="url(#p194887be4a)" style="fill:none;stroke:#000"/><path d="m345.26 467.047 3.62.752 3.166.512" clip-path="url(#p194887be4a)" style="fill:none;stroke:#000"/><path d="m344.595 471.079.537-1.24.097-.448-.113-.908.036-.752.109-.684M340.544 405.387l.036-.55M381.886 454.95l1.565 1.83M334.92 458.141l.843.193 8.17 1.469M343.932 459.803l.796.531.687.819M345.928 459.406l-.61.185-.582.171-.804.04M364.399 525.96l-6.284-3.435-16.775-9.745M332.516 515.885l1.262-.575 1.455-.385 1.344-.685 1.015-1.044.905-.136.796.356.686.11 1.36-.746M344.607 465.639l1.08-2.349M333.928 461.04l-1.113 3.255 2.76.848 2.997.283 4.258.636 1.777-.423M441.873 557.572l1.147-1.097 1.93-1.513 1.155-.559 1.026-.288.371-.232.865-.704 1.89-1.968 2.689-2.768 2.657-2.848 1.607-1.588.133-.148.097-.217v-.292l-.076-.388-.38-1.544-.444-1.528-.679-1.64M387.526 602.731l-.234 1.08-.219 1.4-.185.944-.331 1.008-.436 1.425-.68 1.391-.39.72-1.265 1.889-.698.907-.287.445-.192.345-.222.35-.543.619-.303.238-.32.113-.14-.004-1.074-.262-1.664-.344-2.23-.127-1.154.064-1.22.375-.928.592-1.882 1.552M410.867 623.036l-.162-.693-.254-1.095-.125-.548-.287-.592-.598-1.232-.565-.865-.707-.863-.585-.56-.424-.256-.646-.097-1.106-.088-.7-.107-.896-.076-1.054.168-1.155.215-1.833-.024-1.478-.04-.896-.2-.372-.2-.469-.6-.816-2.303-.064-.777.141-1.184.06-1.591-.092-.852-.109-.193-.089-.087-.266-.085-.945-.032-1.333-.336-1.736-.72-1.648-.672-.832-.56-.702-.743-.372-.84-.17-.592-.056-.985M395.318 557.963l-.224.248-.16.284-.14.612-.128 1.24-.17 3.504-.097 2.684-.032 1.716.533 2.848 1.018 4.768.29 1.848.008.612-.182 1.228-.307 1.436-.633 2.428-.477 1.836-1.332 4.836-.21 1.952-.199 2.548-.072.277-.238.511-.921.76-1.357 1.289-1.615 1.8-.654 1-.26.672-.233 1.831M354 592.683l1.325-.607 5.2-4.609.873-1.792 1.13-3.392 1.842-2.496 1.906-4.8 5.17-9.024 1.356-.672 9.724-3.392 10.985-3.552 1.807-.384M366.551 527.137l-2.152-1.177M392.049 510.353l-7.697.976-3.05.236-.39.072-.425.256-3.521 2.677-1.975 1.364-.74.507-.85.636-.284.297-.242.395-1.042 1.84-3.077 4.4-2.205 3.128" clip-path="url(#p194887be4a)" style="fill:none;stroke:#000"/><path d="m376.146 469.603.549 1.508 1.098 2.273.405 1.951 1.098 2.417 1.147 2.112 1.453 2.72.953 2.896.324 2.576.904 3.808.21 2.02.331.516.55 1.497.88 3.4.472 1.576.23.752.19.528.412.844 1.106 2.088 1.45 2.7.683 1.26.46.484.836.664.162.16M430.114 486.184l.363-.456.17-.348.11-.346M458.058 481.624l-.525-.52-.642-.528-.367-.416-.198-.424-.06-.233-.21-.395-.46-.565-.312-.351-.153-.324-.045-.565.07-.536.346-1.202.014-.198-.046-.203-.198-.26-.606-.477-1.054-.476-.602-.172-1.094-.091-1.845-.065-1.385-.3-.44-.032-.533.224-.594.293-2.327 1.412-.306.26-.343.34-.51.44-1.26.816-.868.692-.262.295-.496.869-.154.724-.069.76-.02.563-.053.425-.181.328-.586.572-1.332 1.02-.541.176-.392.072-1.458-.048-1.422-.016-1.061.04-.86-.088-.449.076-.267.168-.23.332-.621.744-.294.254" clip-path="url(#p194887be4a)" style="fill:none;stroke:#000"/><path d="m429.399 485.564.896-.344.462-.186M430.114 486.184l-.275.484-.602 1.732-.311.484-.299.444-.896 1.16-.783 1.608-.727.856-.08.8.032.833M429.399 485.564l.52.344.122.144.073.132M396.776 474.677l.57.21.817.46.35.236.765.185.536.108.788.187 1.93.985 2.803 1.296 1.086.416.759.151.82.053 1.365-.112.513-.04.642.132 2.839.964 1.033.192.942.344 1.894.944 2.592 1.408.654.304.295.068.864.048 1.47.06 1.39.12.46.208.448.368.622.692.565.912.283.352.353.142.414.032.398-.112.323-.108.692-.21.348-.108M396.776 474.677l-.652-.241-1.947-.604-1.022-.285-.771-.124-.913-.232-.823-.308-1.458-.392-.469-.052-1.623-.015-1.333.12-1.106.28-2.036.407-.848-.056-.695-.047-.815-.265-.9-.428-.699-.652-1.006-.848-.625-.436-.89-.896M373.89 467.301l.94.794 1.316 1.508M353.475 416.547l-.347 3.72M353.774 411.13l-.258 4.433-.041.984M354.953 416.5l.242-3.369.186-2.208M354.953 416.5l-.324 3.828M352.312 429.893l-.072 1.248-.106 1.856.069.592.101.396.142.32.283.875M352.312 429.893l.444-5.505M353.128 420.268l-.154 1.488-.218 2.632M354.307 407.219l-.21.528-.121.488-.08.84-.122 2.056M354.307 407.219l.073.687.016.72-.049 1.009-.153 2.376-.186 2.648-.137 1.864-.162 2.225-.169 1.542M354.307 407.219l.031-.317M355.26 407.339l.013-.415M355.38 410.923l.057-.936.05-.944.007-.688-.032-.328-.202-.688M354.275 424.452l.283-3.288.07-.836M353.798 429.764l.04-.711.437-4.6M352.676 435.916l.371-.471.121-.248.157-.408.09-.432.068-.736.315-3.857M319.053 495.04l1.292-2.96.274-.84.663-.976 2.342-3.176.372-.392.48-.192.642-.06 1.164.096 1.966.636.968.377M345.687 463.29l.252-.55M333.928 461.04l3.992 1.071 3.473.352 2.253.368 2.04.46M331.298 460.336l2.63.705M346.863 460.05l.483-1.56M346.863 460.05l-.14-.277-.206-.23-.238-.092-.351-.045M345.415 461.153l.242.622.282.966M347.346 458.49l-1.023.66-.395.256M345.939 462.74l4.599.77M328.381 454.51l2.383-3.104 1.415-2.988M331.137 446.597l.224.329.818 1.492M328.244 439.853l.428-.932.214-.6v-.212l-.105-.252-.15-.236-.807-.696-1.777-1.36M328.244 439.853l.016 2.84M326.669 441.75l1.034-.969.54-.928M329.714 444.517l1.76-1.176 1.519-.775 1.745-.633M329.714 444.517l1.423 2.08M329.714 444.517l-1.454-1.824M326.669 441.75l.557.192 1.034.751M326.669 441.75l-.808.007M322.816 441.557l1.939.168 1.106.032M331.137 446.597l-1.534-1.509-1.45-1.013-2.292-2.318M334.92 458.141l-2.372-.543-1.041-.455-.92-.553-.809-.687-1.397-1.393" clip-path="url(#p194887be4a)" style="fill:none;stroke:#000"/><path d="m294.233 422.26 1.931 1.936 1.333 1.192 2.948 2.336 1.946 1.48 1.81 1.313 1.55.864 4.814 2.544 3.698 2.056.962.744.573.528 1.203 1.584 1.543 2.328 3.303 5.169 2.035 3.072.954 1.44.92 1.096 2.625 2.568M281.562 394.114l-.332.343-.387.249-.566.216-1.655.432-1.026.24-1.753.416-1.268.336-2.18.584-1.745.343" clip-path="url(#p194887be4a)" style="fill:none;stroke:#000"/><path d="m294.233 422.26-2.6-2.72-1.874-1.936-.525-.56-.452-.424-.695-.504-2.504-1.089-2.188-.776-1.357-.536-1.001-.552-1.035-.72-.75-.696-.865-1.104-1.106-1.504-.84-1.048-.694-1-.405-.64-1.001-1.916-1.22-2.517-1.534-3.088-.937-1.657M262.21 390.601l.953.529 1.494.887 2.779 1.688.791.56.525.448.598.633.508.696.792 1.231M262.21 390.601l-.5-.792M260.587 389.553l.226.232.46.296.937.52M121.369 289.852l2.643-2.79.775-1.44.614-1.12.71-.257 2.844 1.248 4.523 1.857 1.098.832.937 1.664.775 2.24.775 1.633 1.487 1.696 1.195 1.248.614 1.504-.097 2.016-.678 1.089-2.294 3.584-.84 2.304-.581 1.569-1.067 4.352M121.369 289.852l-5.693-24.524M297.133 315.985l.315.544.226.44.582.929 1.179 1.52 1.147 1.504 1.017 1.384.388.656.331.672.5 1.52.332 1.057.816 2.8.476 1.76.267.64.29.696.324.44.403.249.566.168.404.16.234.103.266.248.21.337.493.808 1.801 3.56.727 1.456.953 1.952.323.513.283.375.218.193.517.183.492.056 1.454.08.598.153.646.224.42.224.63.432.646.408.525.288M298.514 391.97l.07-.356M289.403 390.65l4.362.351 1.446.185.807.112.622.135.485.128 1.389.409M291.754 384.737l-.59 1.248-.799 2.064-.501 1.392-.46 1.209M260.257 388.62l-2.334-.128M260.257 388.62l.152.63.178.303M249.974 387.985l7.949.507M225.938 403.858l2.471 1.217.824.288 1.034.288 1.68.384.63.08.662-.112.63-.209.614-.367 2.956-2.465 2.65-2.368 3.23-3.392 1.793-1.904 1.05-1.04 1.309-.992 1.13-1.008.776-.913.339-.688.177-.784.114-.896-.033-.992M283.742 403.33l.145-1.912.138-1.48.056-.848.032-.976-.08-.672-.089-.232-.146-.168-.298-.232-1.058-.432-.34-.184-.21-.217-.153-.295-.065-.353-.112-1.215M298.584 391.614l.495-.213.461-.091.533-.065.509.012.299.036.242.092.274.172.287.216.404.309.186.08.201.008.186-.029.396-.132.469-.184 1.122-.6 1.236-.656 1.34-.716.958-.532.848-.452.561-.32.174-.12.12-.176.077-.18.158-.672.045-.496.04-.44.097-.656.04-.184" clip-path="url(#p194887be4a)" style="fill:none;stroke:#000"/><path d="m304.535 385.749 1.139-.048 1.7-.172.836-.024.48.008.703.048.513.036.436.028M257.923 388.492l1.024.405.5.168.502.24.638.248M261.71 389.81l.37-.433.227-.192.525-.24.428-.127M294.532 378.492l-1.282 2.881M294.532 378.492l-8.358-3.822M294.532 378.492l3.507 1.558M291.73 372.848l3.764 1.656.38.296.088.152.048.344-.145.488-.42 1.072-.913 1.636M298.04 380.05l-1.404 3.08M301.967 382.436l-.238-.324-.21-.304-.525-.392-.485-.32-.42-.184-.816-.335-1.234-.527M295.137 386.423l-.512 1.1M295.137 386.423l1.5-3.292M291.754 384.737l.525.296 1.236.576 1.622.814M298.667 387.905l-.743-.264-.864-.336-.759-.344-1.164-.538M298.667 387.905l-.59.76-.347.456-.08.288v.224l.097.296.226.497.61 1.188M300.366 385.012l1.007-1.716.356-.5.238-.36M304.535 385.749l-.278-.248-.255-.288-.275-.388-.383-.752-.121-.168-.194-.212-.457-.468-.387-.52-.218-.269" clip-path="url(#p194887be4a)" style="fill:none;stroke:#000"/><path d="m298.667 387.905 1.018.536 1.018.48 1.978.864 1.18.585.29.083.24.018.183-.032.1-.06.075-.115.05-.163.003-.194-.073-.19-.08-.188-.094-.28-.077-.4-.104-.704-.315-1.592-.029-.288.017-.12.056-.12.072-.072.158-.1.202-.104M298.667 387.905l1.699-2.893M291.754 384.737l1.496-3.364M291.754 384.737l-2.892-1.144M253.883 285.862l.985 1.12.606.792 1.196 1.768.831 1.152.63.672.574.577 1.389 1.4 2.544 2.872 1.373 1.952 1.68 2.353.597 1.072.55 1.12.42.928.323.592.242.304.34.168.427.104 1.026.08.832.096.71.192.324.112 1.76.824 2.545 1.153 3.045 1.408 3.214 1.415.606.313.428.32.452.392.477.408.516.384.445.168.509.096.605.048 2.1-.008 1.026.024.767.088.703.168 1.01.312 1.017.456 2.52 1.304 1.018.648.436.352.452.424" clip-path="url(#p194887be4a)" style="fill:none;stroke:#000"/><path d="m297.512 298.351 1.608 1.36 1.13.984.8.728.638.729.266.376.542.672.38.432.33.232.348.08h1.284l.525.04.355.096.372.208.767.6.654.584.227.384.032.4-.065.368-.274.504-.938 1.08-1.453 1.56-1.244 1.12-.969.84-1.437 1.073-1.899 1.432-2.358 1.752M392.639 279.829l1.227.512.598.08.468-.144.452-.192.646-.592 1.794-2.4.436-.577.387-.287.42-.185.517-.04.937.032.775.096M415.964 242.407l-.162.896-.17.56-.258.569-.533 1.024-.849 1.448-1.275 2.32-.59 1.104-.42 1.209-.154.584-.21 1.264-.242 1.224-.306 1.153-.453 1.512-.452 1.28-1.171 2.816-.598 1.32-.67 1.08-.703.96-.395.625-.187.376-.565 1.128-.54.904-.502.768-.412.48-.436.568-.331.6-.331.752-.541 1.512-.654 1.77-.267.775-.29 1.144M406.562 293.799l-.985-.96-.872-.937-.784-.912-1.042-1.416-.29-.48-.178-.48-.121-.624-.13-.864-.225-1.4-.187-.825-.274-1.16-.25-.832-.13-.64-.072-.616-.04-.704.048-.784.194-2.513.072-1.52M415.964 242.407l-1.43-1.048-1.97-1.328-1.091-.696-.775-.288-.469-.072-.63-.024-.679.088-.864.152-.985.168-.92.104-1.14.096-.775.096-.662.136-.396.136-.67.328-.816.624-.816.616-.654.6-.686.808-.93 1.24-.96 1.48-1.228 2.185-.307.456-.307.256-.315.144-.54.017-.397-.105-.347-.224-.226-.256-.396-.832-.42-1.072-.412-.68-.508-.536-.711-.608-.582-.272-.944-.312-1.56-.352-.379-.273-.121-.192-.08-.32v-.007l.023-.513.081-1.04.242-1.752.146-.976v-.808l-.065-.384-.113-.24-.194-.248-.735-.6-1.147-.753-.565-.368-.937-.48-1.308-.528-1.244-.544-.63-.2-1.018-.176-1.365-.248-.727-.224-.54-.216-.34-.232-.194-.24-.193-.344-.073-.448-.024-.44.064-.465.097-.48.791-1.608.348-.664.331-.432.404-.392.622-.472 1.01-.776.726-.737.453-.543.355-.697.347-.888.38-1.04.299-.728.097-.688.016-.504-.065-1.504-.032-1.129-.121-.751-.227-.713-.225-.488-.227-.376-.468-.64-1.462-1.264-1.236-1.057-.517-.424-.622-.384-.509-.303-.726-.553-.469-.416-.275-.304-.193-.368-.113-.52-.17-1.304-.057-.752v-.52l.105-.753.743-2.464.243-.704.33-.528.154-.224.203-.264.153-.392.137-.648.073-.76.04-.664-.016-.504-.057-.233-.484-.775" clip-path="url(#p194887be4a)" style="fill:none;stroke:#000"/><path d="m418.394 212.803.016.432.09.736.403 2.04.09.656.056.728-.09.657-.185.336-.5.472-.428.304-.284.28-.201.296-.138.272-.339 1.072-.444 1.192-.485 1.089-.387 1.312-.106.544.017.544.145.912.396 1.88.638 2.4.145.881.105.832.025 1.344-.033.856-.072 3.369-.081 1.08-.178.976-.605 2.112M385.15 320.24l.22-.102 1.308-.704.888-.512.533-.464.776-.945 1.324-2.688.856-1.872.646-1.536.388-.608.533-.8.808-.8.872-.72.776-.608.452-.433.436-.656.92-1.616.744-1.072.484-.624 3.02-3.393 2.278-2.64 3.15-3.648M107.842 245.232l5.493-4.72 2.875-2.305 2.197-1.569 2.294-1.344 4.522-2.064 4.103-2.24 1.244-.449 3.505-1.072.905-.448 1.05-.752 1.631-1.44.744-.448.985-.416 5.072-2.72 2.407-.833 2.067.064 2.73.465.792.336.791.512 1.325 1.312 2.923 3.296.614.417.727.207 1.518.144 1.422-.071 1.793-.289 3.004-.752 2.73-.608.703-.336.953-.736.42-.208 1.898-.296.678.04 1.155.432 1.575.8 1.89.728.533.329 1.858 1.6 7.439 6.52 2.212 2.105 2.14 1.472 1.067.872.34.176 1.962.448.702.056 4.442-.232 1.26.008.72.296.686.656.201.44.203.897.056 1.312.13.528.233.464.429.536 2.616 2.753 3.077 3.224 1.026.912 1.478.52 1.583.248 2.35.24 1.85.512.243.16.315.584.128 3.033.348.76 3.069 2.705 1.527 1.904 3.06 3.568 1.139 1.753.977 2.007 4.233 2.905 2.544 1.48 3.093 1.408 2.245 1.68 1.745 1.649 3.424 2.184 2.625.456 1.26.688 2.738 2.177M292.352 284.677l-2.173-.992-1.098-.536-1.163-.72-.5-.36-.296-.18-.299-.1-.262-.052-.788-.036h-1.15l-.558-.008-.364.08-.37.112-.89.424-.985.544-.484.168-.614.08-.678-.048-.533-.128-.566-.312-.985-.656-1.309-.976-1.502-1.168-1.51-1-.743-.353-.582-.16-.387-.071-.485-.032-.541.015-.686-.144-.275-.144-.468-.32-.978-.768-1.058-.896-.573-.528-.267-.296-.234-.392-.775-1.568-.323-.44-.307-.16-.243-.08-.977-.033-.703.089-.525.12-1.025.432-.566.28-.436.264-.258.248-.388.696-.323.832-.452 1.168-.566 1.632-1.793 4.873-.355.72-.396.464-.695.616-1.009.985M446.783 196.392l-1.994 1.4-2.948 1.873-3.11 1.928-2.633 1.584-2.277 1.36-.743.337-.259.056-.541-.112-1.349-.416-1.47-.512-1.324-.44-.283-.064-.258.04-.122.072-.145.183-.42.808-.484.825-.348.424-.864.776-1.187.784-.356.28-.452.352-.767.824-.84 1.024-.824.872-.743.705-.856.6-.371.207-.259.201-.08.152-.082.288M416.416 161.976l-.162 5.73-3.392 8.225-1.68 7.682-.484 3.457.064.768.582 1.44.097.609-.452 1.536-.905 1.92-.194.96.194 1.025 1.001 2.912.582.705 1.486 1.312 1.292 2.528 2.875 4.802.194.607.033.96-.291 1.697 1.138 1.952M291.924 285.117l1.187 1.8.929 1.2.581.713.598.776 1.324 1.704.348.536.25.465.234.592.146.543.08.649.17 1.032.073.968-.008.64-.324 1.616" clip-path="url(#p194887be4a)" style="fill:none;stroke:#000"/><path d="m291.924 285.117-.412.465-.59.72-.719.968-.234.448-.08.408.08.432.17.352.395.488 1.276 1.056.711.656 1.018 1.008 1.001 1.233.744 1.152.872 1.352.274.752.34.76.242.376.5.608M291.924 285.117l.428-.44M457.655 253.6l-4.491 4.754-4.523 4.769-4.07 4.272-3.029 3.097" clip-path="url(#p194887be4a)" style="fill:none;stroke:#000"/><path d="m457.655 253.6 4.975 2.913 5.217 3.105 4.12 2.273 3.617 1.951 1.131.465.986.496.63.448.355.416.275.384.355.624.323.636.242.284.38.412 1.304 1.268 1.644 1.577 1.2 1.055 1.388 1.225.17.264.057.136.012.148-.065.252-.876 1.472-1.09 1.82-.917 1.42-1.378 1.761-1.538 2-.602.852-.892 1.217-.723.936-.614.696-.807.84-.873.852-.266.228-.198.132-.182.06-.149.008-.234-.048-.19-.068-.34-.2-.355-.216-.282-.176-.259-.112-.408-.172-.67-.24-1.022-.444-1.737-.777-.633-.256-.65-.147-.61-.06h-.998l-.876.063-.48.06-.323.077-.247.072-.202.108-.186.148-.21.171-.331.236-.327.205-.254.104-.263.064-.206.075-.262.177-.396.332-.367.408-.267.296-.182.148-.372.216-.407.16-.574.072-.63-.048-.549-.152-.582-.312-.71-.48-1.704-1.44-2.658-2.673-3.513-4.168-2.084-2.68-2.374-2.777-3.4-3.28" clip-path="url(#p194887be4a)" style="fill:none;stroke:#000"/><path d="m468.962 241.847-2.746 2.88-6.486 6.762-2.075 2.112M475.56 234.782l6.922 6.353 4.087 4 1.792 2.073 1.172 1.432.388.745.29.663.202.665.226.664.049.56v.568l-.299.728-3.061 4.529-2.18 2.912M475.56 234.782l-6.598 7.065M541.99 169.86l-39.987 38.918-6.736 6.634-8.916 8.729-4.944 4.76-5.847 5.881M465.78 234.062l2.05 4.737.873 2.24.259.808M486.31 126.564l4.523.232 1.534.104.51-.017.307-.104.21-.16.193-.2.202-.68.541-2.912.227-1.48.097-.409.153-.264.193-.208.283-.152 1.115-.48.549-.288.3-.232.241-.28.38-.648 1.122-1.96 1.212-2.113.517-.928M484.34 139.07l-.598-1.136-.291-.569-.517-.976-.185-.328-.073-.296-.033-.44-.015-.392.072-.768.364-1.504.185-.689.21-.6.332-.664.484-.784 2.035-3.36M477.055 156.29l-.235.575-.347.464-.469.488-.54.384-.606.36-.978.585M495.332 151.352l-1.18.12-1.179.112-1.252.104-.5-.071-.517-.12-1.001-.32-.63-.2-.59-.137h-.662l-.833.104-.597.112-.824.216-.493.224-.436.312-.436.432-.508.744-1.6 2.377-1.494 1.912-.299.272-.242.104-.299.016-.363-.12-.598-.272-1.744-.984M477.135 140.19l-.267 4.329-.298 3.889-.081.832-.024.936v.912l.105.816.347 1.449.186.831.065.633.008.48-.033.592-.088.4M469.132 140.166l.549.248.597.128 1.22.072 1.195.136.808-.04.646-.048.993-.16 1.3-.224.695-.088M484.34 139.07l-.51-.288-.395-.176-.477-.056-.638.072-.823.208-1.244.448-1.56.592-.783.208-.775.112M469.132 140.166l-.166-.412-.125-.328-.093-.316-.15-.644-.246-.933-.262-.916-.255-.828-.234-.636-.469-1.184-.63-1.664-.355-.869-.408-.867-.424-.8-.25-.49-.416-.735-.707-1.205-.294-.463-.376-.557-.72-.804-1.469-1.628-.674-.896-.505-.72-.177-.216-.223-.177-.262-.107-.65-.085-1.818-.047-.577-.012-.36.06-.282.123-.408.2-.783.449-.893.524-1.078.576-.723.284-.772.272-.924.284-1.164.344-.395.2-.153.088-.142.184-.073.244-.04.377-.073.64-.024.604-.036.215-.101.336-.125.448-.044.22.007.793.029.632.012.44-.045.488-.028.516.037.28.072.256.13.329.222.464.262.5" clip-path="url(#p194887be4a)" style="fill:none;stroke:#000"/><path d="m469.132 140.166-.526-.368-.63-.368-.912-.44-.84-.296-1.26-.304-2.189-.665-1.825-.584-1.688-.407-3.449-.889-2.568-.656-1.115-.352-1.114-.536-1.147-.528-1.567-.776M373.21 97.062l2.277 4.061.917 1.636 1.616 2.208.92 1.008.646.4 1.309.544 4.975 1.777 4.2 1.824 1.906.96 1.018.289.775.08.985.112.55.192.452.32.517.608.856 1.152 1.647 2.48 1.196 2.433.452 1.04.5.912.405.592.71.833 1.438 1.424 2.552 2.48 2.262 2.24 1.098.785.545.272.19.028.21-.008.141-.068.202-.168.291-.464.376-.732.258-.508.5-.904.437-.769.702-1.24.776-1.216.565-.833.444-.551.429-.489.395-.6.227-.592.136-.384.42-1.52.51-1.753.185-.504.154-.247.509-.505.42-.312.597-.304.565-.192.639-.096.84.008.597.04 1.244.256 2.132.608.703.264.67.392.751.513 1.172.92.42.352.573.712 1.3 1.673 1.195 1.624.453.68.646 1.032 1.082 1.264.533.696.331.56.138.36.08.448.097.84.04.37.074.28.096.175.259.192.654.056.622.112.46.112 1.285.552.743.384 1.954 1.288.848.408.783.273.655.12.694.08 1.002.063 1.333.064.791.2.84.233M495.332 151.352l.12-.84.219-.976.477-3.065.048-.472-.04-.352-.146-.256-.242-.256-.291-.16-1.3-.544-1.034-.448-1.163-.52-2.003-1.153-2.455-1.312-1.688-.944-1.494-.984M541.99 169.86l-.598-1.616-.63-1.905-.791-2.769-.436-1.28-.469-.912-.84-1.088-.694-.784-2.585-2.737-1.195-1.232-.856-.736-.824-.449-1.066-.368-3.004-.495-1.148-.033-.694.097-1.244.431-4.458 2.145-1.631.64-.695.208-1.115.145-1.292.24-1.406.4-3.117.975-1.13.24-.808-.128-1.163-.4-3.32-1.064-1.364-.336-1.027-.36-.702-.288-.678-.424-.986-.72-1.39-1.16-2.39-1.945-.912-.8M541.99 169.86l6.05-5.95M115.676 265.328l-1.262-5.439-1.311-3.777-1.828-4.289-3.433-6.591M368.166 377.7l.622-1.028.404-.704.783-1.313.71-1.208 1.188-1.895M368.166 377.7l-.613 1.084M361.674 388.835l.613-.994.896-1.56 1.107-1.865 1.025-1.744.994-1.752 1.244-2.136M353.128 420.268l.412.022M356.774 394.28l-.226.482-.384.788-.282.68-.364 1.024-.266.768-.351 1.06M359.637 389.07l-1.098 1.88-.88 1.595-.602 1.128-.283.606M353.54 420.29l.636.032M355.575 405.564l-.134-.142-.18-.12-.203-.077-.215-.026-.216.024-.204.073-.181.118M354.242 405.414l.075-.187M355.575 405.564l-.031-.184-.043-.256M354.338 406.902l.177.084.19.045.196.005.192-.036.18-.076M354.176 420.322l.453.006M372.41 368.34l-.246.043-.17.044-.153.108-.105.144-.267.392-.892 1.477-.868 1.484-.485.82-.86 1.476-1.134 1.88-1.103 1.808M366.127 378.016l-1.328 2.344-.897 1.5-1.232 2.145-1.054 1.744M354.9 399.082l-.21.98-.157.788-.093.64-.145 1.22-.093 1.044-.06.749-.007.162v.23l.035.13.147.202M361.616 385.749l-.997 1.7-.982 1.62M358.655 394.19l.57-1.053.68-1.2.516-.92 1.253-2.182M356.697 399.186l.404-1.432.243-.752.484-1.128.827-1.685M355.5 405.124l.184-.146.074-.12.043-.123.073-.604.105-1.016.137-1.161.186-1.048.25-1.048.145-.672M347.876 362.718l1.096.264.174.124.085.149.06.184M351.706 372.687l1.212-8.624-3.626-.624M368.968 328.87l-.543.31-2.86 1.68-.694.607-.5.576-.502.977-.872 2.543-.791 2.4-.372.993-.404.72-1.146 1.376-.517.496-.533.32-.743.368-1.551.352-2.488.592-1.252.417-.282.224-.178.224-.097.303-.145 2.737-.17 1.184-.25 1.168-.404 1.697-1.454 4.144-.953 2.896-.905 2.752-.486 1.792M327.8 386.625l.631 1.79M328.431 388.416l.463 2.747M328.894 391.163l.143 3.33M328.2 399.75l.02-1.94 1.114-.208-.297-3.109M402.336 463.287l-2.073 3.888-1.551 3.456-.388 1.248-.161.96-.646 1.12-.74.718M408.404 451.91l-6.068 11.377M353.74 450.239l-1.743 6.92M351.997 457.158l-1.46 6.353M350.538 463.51l2.613.376M366.927 460.28l-.287 1.612-.282.484-.97.255-1.17.34-.797-1.628" clip-path="url(#p194887be4a)" style="fill:none;stroke:#000"/><path d="m364.853 459.114-.618 1.393-.39.611-.424.225M361.428 460.317l.263 1.492 1.73-.466M364.853 459.114l-3.425 1.203M352.676 435.916l.053-.736M525.482 560.926l36.05 1.831M574.878 630.138l-2.746-4.86-4.846-3.904-1.68-1.152-2.778-2.656-1.616-1.152-.549-.512-.226-.32-.614-2.56-.452-1.217-.517-.447-2.649-1.28-1.066-.832-1.13-1.664-.938-1.76-1.001-1.312-1.099-1.729-.355-.127-3.91-.032-.968-.256-.743-.416-.646-.672-.938-1.44-.807-.64-.905-.896-.936-.768-.324-.448-.84-1.408-.969-1.28-.581-.544-.614-.384-.775-.928-.452-.928-.776-4.48.032-.256-.807-4.064-.162-1.6.194-1.856.646-1.952.776-1.888-.033-.448-3.392-4.448-.388-.32-1.389-1.471-2.035-2.529-3.392-5.376M430.76 446.868l-2.262.512h-.97l-1.033.512-5.395 1.056-8.432 2.656-.55.544-.387.064-3.037-.992-1.486-.608-1.906-.352-.84.832-2.81 4.128-3.135 5.92v.48l.453.448 3.366 1.219M561.532 562.757l19.706 1.001 48.92 2.18M334.92 458.141l-.992 2.9M387.628 371.633l1.565-4.295-.048-.76M368.968 328.87l2.744-1.556M368.968 328.87l1.516 2.701M364.42 319.946l1.022 3.121 3.526 5.804M371.712 327.314l-3.934-6.626M374.66 325.639l-.904.516-2.044 1.159M378.83 328.654l-5.553.958-1.565-2.298M375.84 327.563l-1.18-1.924M372.015 321.33l2.644 4.309M374.66 325.639l2.775-1.584M379.09 327.207l-1.655-3.152M375.558 320.48l1.877 3.575M380.28 322.543l-.597.283-1.582.848-.666.38M381.665 325.087l-1.384-2.544M378.872 319.952l1.409 2.59M385.15 320.24l-2.365 1.114-2.504 1.189M386.066 322.148l-.916-1.907M384.48 318.844l.67 1.397M380.664 420.7l2.718-3.523M389.358 409.43l-1.746 2.263M387.612 411.693l-4.23 5.484M387.628 371.633l-2.302 6.028M385.326 377.661l-2.882 7.545M382.444 385.206l-1.914 5.011M380.53 390.217l-1.015 2.656M379.515 392.873l-1.13 2.96M382.453 371.612l-1.413 3.576M341.214 555.533l.878-2.003 1.207-1.756 2.442-1.509 2.606-2.442 3.54-2.387.823-.686 1.454-2.826 1.866-.96 1.51-2.744.383-2.716 2.196-3.65 1.865-1.673 1.92-3.183.495-1.038M300.366 385.012l-3.73-1.881M296.636 383.13l-3.386-1.757M341.989 405.208l-.23.56M341.989 405.208l-.645-.166-.764-.206M341.989 405.208l.588.15M342.577 405.358l1.498.569M561.532 562.757l-.352-1.114-2.035-2.912-2.843-5.12-.453-1.185-2.197-2.4-.387-1.28.162-2.912.775-1.888-.162-.64-.613-.704-.776-.383-6.461-.577-.582-.384-2.423-2.56-1.55-3.392-.291-1.312-3.166-4.48-1.422-3.392-1.389-2.4-1.324-1.152-2.294-1.248-2.682-1.92-2.81-1.409-.937-1.248-.162-1.247-.452-1.505" clip-path="url(#p194887be4a)" style="fill:none;stroke:#000"/></g><g id="PatchCollection_1"><path d="m302.988 403.778 1.39-1.184 2.132-1.056 1.195-.352.55-1.152-.098-1.088-.969-1.376-1.647-.672-4.2-2.592-1.454-1.025-1.842-.736-.742.288.29.48 1.874 1.44-1.357.513-1.647-.353-1.131.385-.937 1.536.065 1.248 1.389 1.504.614 1.92 1.13 1.376 1.842.864 1.615-.064.582 1.216zM405.108 530.25l1.357.16 1.164.64 1.26.416 1.356.352.678.576.291.928.388.768.323 1.088.388.448h1.066l1.454-.16 1.066-.544 1.001-1.024.711-.704.646-.992.679-.992.904-.832 2.036-.704h2.422l1.713-.128 1.712-1.216 2.003-1.024 2.1-.352 2.229.16 1.066.224 1.196-.48 1.043-1.118.313-.738-.065-.8-.678-1.024-.613-1.536-.68-.897-.84-.831-.548-.896-.065-1.856-.29-1.12-.744-.833-.129-.64.678-.768v-.512l-.484-.224-1.777-.224-1.421-.64-1.713-1.664-1.68-1.216-.807-1.568v-.992l.452-.48 1.39-.32 1.195.288 1.13-.16.743.224.065 1.088h.549l.873-.288.678-.704v-.736l-.388-.896-.549-1.472-.13-1.056.195-1.152.872-.896.323-1.184.129-1.856.194-1.568.29-1.28-1.843-.41-.967-.454-.937-.033.097.448-.226.608-.775.225-1.325.063-.937.064-.646.289-.323-.112-.13-.353.195-1.568-.243-.016-.985.753-.582.191-.71.416-.614.112-.259-.127-.678-1.105-.323.08-.695.512-.5.849.016.432.581.864.743.32.291.416-.032.528.679.48.096.336-.145.256-.76.432-1.227.752-.808.816-1.453.992-.63.096-1.228-.625-1.81-.559-1.372-.768-2.116-1.696-1.939-1.152-3.133-1.52-1.034-.72-1.583-.976-.63-.56-.356-.64-.63-.512-.694-.08-.985.48-.646.591-.42.865-.21.848-.097.88.161.784.205.578-1.029.206-.177.288v.432l.307.56 1.033.848.679 1.296.936 3.168.63.896 2.085 1.824.452.544.727.56.21.336.323.672.177.4.42.256.55-.016.144.208.097.512-.258.816-.323 1.472-.016.896.194 1.168.323.993-.178.96-.113 1.087-.581 1.456-.97 1.137-.807 1.248-.113.784-1.002 1.136-.355.752-.84.72-.743.528-1.05.352-.904.208-.462.972.671-.012 1.761-.848 1.324-.368.97.016.759.464.63 1.12.21 1.568-.226.928.016.592zM277.693 555.787l.137-.065.42-.023.72.016 2.309.776.298.256-.072.432-.178.608-.581.736-.63.472-.04.568-.154.328-.775.144-.776-.224-.372-.056-.33-.448-.291-.824-.025-.72.235-.784v-.616l.056-.273-.08-.191zM323.968 370.233l.953 4.466 3.533-.537-1.019-4.186z" clip-path="url(#p194887be4a)" style="fill:#00f;fill-opacity:.8"/></g><g id="PatchCollection_2"><path d="m384.142 357.662 1.906.576h1.777l1.97-.224 4.297-1.056 1.777-.416 2.94.288 1.518-1.056.42-2.24 1.195-.8.808-2.657 2.326-1.248.13-.864-1.939.768-1.583-1.024-1.421.224-1.616-.672.582-2.656-.905.064-1.712 2.08-.485 1.44-11.016 5.057-.679 2.752zM348.96 359.966l3.005-8.993.743-3.872.484-2.208 1.487.448 1.647-.032 1.422.448-.356 1.856.678.96.647-.256.42.8.42 2.209.71-2.497 2.972 1.184 2.262 1.793 1.422 3.103-.227.961-1.55-1.6-.226-1.568-1.906-1.249-1.648 1.856-.678 2.305.742 1.312 2.165.192 2.455.704.614.832.775-.384 1.228 1.056-1.874 1.088v1.28l-2.358 1.088-1.26-1.504-.161-1.088-4.782-1.216-.194-1.056-.678 1.888-1.583 1.216-3.715-.448z" clip-path="url(#p194887be4a)" style="fill:#006400;fill-opacity:.8"/></g><g id="PatchCollection_3"><path d="m341.047 403.576-.729.771-.73.222-.116-.88zM342.311 399.367l-.162 3.937-.303.017-.196-4.026zM340.965 405.843l-.099 1.237-.881.097-.296-1.822zM341.454 396.166l.906.024.025 2.328-.784.073zM341.793 403.592l-.746 1.09 1.273.31-.313-1.381zM354.185 385.12l-.1 3.486 3.595.033.716-3.147z" clip-path="url(#p194887be4a)" style="fill:green;fill-opacity:.8"/></g><g id="PatchCollection_4"><path d="m343.699 403.748.024 1.424-.861.014-.024-1.423zM355.787 385.823l-.145 1.689-1.093-.092.146-1.69zM350.06 378.77l-.015 1.607-.917-.008.014-1.608zM310.086 381.016l.232 1.951.98-.114-.232-1.951z" clip-path="url(#p194887be4a)" style="fill:#90ee90;fill-opacity:.8"/></g><g id="PatchCollection_5"><path d="m359.704 430.484-.008-.268.5-.009-.046 1.657-.328.003.014 1.18-.608.007-.002-.185-.116.001.002.205-.568.007-.031-2.534zm-.627 1.738.162-.004-.03-1.159-.163.005zM353.376 379.948l-.112 2.868-.597-.023.11-2.867zM352.123 382.324l-.585-.026.114-2.5.584.026zM352.138 378.674l1.137.03-.027 1.018-1.148-.03.005-.164-.58-.015.02-.723.589.016zM308.318 384.07l-.565.071-.216-1.7.566-.07zM309.538 382.009l-.415.05.335 2.671-.591.073-.343-2.73-.489.061-.062-.498 1.495-.184zM310.083 383.178l-.415.05-.127-1.049.414-.05zM307.6 382.236l-.549.061-.17-1.5.55-.062zM366.628 400.564l-.077 1.31.334.019-.023.392.345.02.016-.264.031.002-.12 2.003.708.041.18-2.996.228.013.017-.29-.192-.011.008-.13-.692-.04-.046.763-.1-.005.047-.788zM366.32 402.784l-.047.818-.281-.016.046-.818zM333.978 405.622l-.016.447-.199-.007-.03.804.112.004-.014.401 2.589.092.02-.58-1.569-.056.023-.62 1.464.052.016-.452zM334.57 407.45l-.016.456 1.811.06.016-.456zM327.914 408.452l.027 1.517.524-.009-.017-.899.168-.003.017.924.545-.01-.017-.912.246-.004-.01-.63zM327.932 411.433l.044 1.405.477-.014-.044-1.406z" clip-path="url(#p194887be4a)" style="fill:#a9a9a9;fill-opacity:.8"/></g></g></g><defs><clipPath id="p194887be4a"><path d="M97.396 86.4h543.208v554.4H97.396z"/></clipPath></defs></svg>