<svg xmlns="http://www.w3.org/2000/svg" width="960" height="960" viewBox="0 0 720 720"><defs><style>*{stroke-linejoin:round;stroke-linecap:butt}</style></defs><g id="figure_1"><path id="patch_1" d="M0 720h720V0H0z" style="fill:#fff"/><g id="axes_1"><path id="patch_2" d="M106.678 640.8h524.644V86.4H106.678z" style="fill:#fff"/><g id="LineCollection_1"><path d="m600.428 581.879-7.516-6.328M564.282 593.653l3.232-1.169 32.914-10.605M328.106 617.786l.71 9.384M328.106 617.786l-7.967.645M328.106 617.786l32.107-2.998M329.036 611.858l-.096 1.732-.153 2.039-.201.925-.48 1.232M360.213 614.788l66.766-5.49 28.264-2.464 63.37-5.23 25.903-2.206 14.803-3.951 4.963-1.794M587.684 574.367l-3.483 2.85-7.896 3.507-12.023 12.929M203.324 630.138l.198-.98M203.324 630.138l.286-.308.265-.292.976-.874M204.851 628.664l.587-.197.547-.127 1.036-.324M204.851 628.664l-1.33.495M293.996 620.617l-64.938 5.55-22.037 1.849M207.021 628.016l-1.7-.324-.65-.245M204.671 627.447l-.387-.123-.417-.11M204.671 627.447l-.382-.466-.14-.312-.12-.514M203.867 627.213l.162-1.058M203.867 627.213l-.345 1.946M171.6 576.186 134.423 588.1l-17.656 5.9M204.029 626.155l.324-2.115.114-.958.818-6.71 1.302-8.798M313.388 621.155l-4.532-1.866M309.482 622.925l1.544.955.271.146.16.01.174-.08.418-.515.882-1.354.457-.932" clip-path="url(#p76f31fc3e7)" style="fill:none;stroke:#000"/><path d="m328.815 627.17-5.228-2.095-10.199-3.92M315.63 618.8l-1.213.908-.233.269-.796 1.178M293.996 620.617l14.86-1.328M308.856 619.289l6.775-.49M215.52 564.743l1.62.561 15.862 5.83 2.534.866 1.225.437 7.053 2.52 20.124 7.367 15.784 5.96 1.335.776.964.806 2.25 2.276 24.585 27.147M177.277 365.81l-.265.081-.221.083-.165.087-.225.144-.149.126-.321.25-.281.142-.27.036" clip-path="url(#p76f31fc3e7)" style="fill:none;stroke:#000"/><path d="m173.475 366.134 1.4.459.506.166M175.585 369.194l-.373-.998-.109-.251-.044-.186-.006-.149.058-.219.1-.3.17-.332M204.309 549.592l-.688 1.941M204.309 549.592l-.018-.476M214.359 554.173l-5.24-1.454-1.334-.435-.9-.427-.748-.482-1.33-.993-.305-.347-.193-.443M213.597 558.409l-1 5.187M213.597 558.409l.762-4.236M208.476 556.877l2.218.656 2.903.876M200.703 542.771l-.905 1.127M200.703 542.771l-.216-1.325M200.703 542.771l.114.643M181.239 384.658l-.554 1.771M177.534 383.022l2.098.924 1.607.712M182.059 382.223l.33 1.012.22.897.113.447.012.206-.042.142-.096.063-.2.036-1.157-.368M180.685 386.43l-.281 1.106v.3l.104.19.245.134 1.137.23M177.598 380.31l-.641-.128M176.441 377.4l.338.554.225.577.193.537.401 1.242M177.534 383.022l.12-1.424-.056-1.288M182.059 382.223l-2.058-.894-2.403-1.019M194.248 392.886l.38-7.302.322-4.508.112-1.075.226-.996.562-1.557.257-1.084M187.122 361.359l1.157 1.897 1.624 2.34 2.17 3.242.643 1.075.643 1.297.433 1.296 1.142 2.135 1.173 1.723M285.18 411.94l-2.026-2.386-21.445-24.607-4.538-4.29-2.245-1.876-2.842-1.87-5.45-3.084-8.968-4.934-5.188-2.711-1.66-.68-.763-.159-.788.016-1.736.38-2.17.696-4.506 2.126-2.39.91-3.31.869-1.141.364-1.11.553-3.546 1.677-3.992 1.39-5.16 1.882-.964.238-1.013.094-2.122-.174M199.798 543.898l-.548-.333M199.798 543.898l-1.893 3.176M214.359 554.173l.884-.885M183.08 360.307l.522-1.644M178.069 364.734l.96-1.288.852-.91.771-.632 1.102-.775 1.326-.822M187.122 361.359l-1.92-.396-1.31-.387-.812-.269M200.487 541.446l-1.237 2.119M200.487 541.446l-.16-1.257M204.291 549.116l-3-1.257M200.817 543.414l1.905.625 1.666.577.16.123.046.17-.303 4.207M201.29 547.859l-.473-4.445M199.58 551.723l.69-1.527 1.02-2.337M212.598 563.596l-1.39.293M212.598 563.596l.9-.075M163.398 363.525l-2.653-2.135-2.363-2.403-2.475-2.515-1.045-1.391-.739-1.344-.852-2.546-.82-3.605-.643-2.973M187.122 361.359l-.603-1.7M176.031 374.578l.113 1.431.297 1.391M176.957 380.182l-.266-1.39-.25-1.392M175.919 372.482l.972 1.471.474.656.636.72 1.341 1.391 2.717 2.981.161.344.048.36-.008.656-.113.711-.088.45M168.919 364.853l-3.802-.98-1.72-.348M182.252 386.816l-1.567-.387M200.327 540.189l-.49-3.012M216.077 548.251l-.595-.2.147-1.861-.467-.325-1.583-1.557-1.848-1.305-2.274-1.328-1.736-.822-1.873-.767-1.334-.3-1.142-.087-3.045.49M199.25 543.565l-1.882 3.246M184.848 344.47l2.194 5.084M183.353 343.427l.747.538.748.506M188.721 347.38l-1.953-1.58-1.92-1.33M175.919 372.482l-.237-2.36M175.919 372.482l.112 2.096M187.042 349.554l1.68-2.174M186.013 351.12l.57-.893.459-.673M195.657 549.762l.504.236M195.657 549.762l1.71-2.95M192.427 553.707l1.446-1.731.772-.997 1.012-1.217M177.534 383.022l-.699.079M171.868 368.767l-.49-.577-.716-.712-.803-.72-.418-.466-.193-.316-.16-.395-.17-.728M173.475 366.134l-2.29-.696-2.266-.585M182.927 353.856l.771 1.763M182.927 353.856l1.824-1.274M180.355 342.589l-.257 1.408-.08 1.011.016 1.186.208 1.123 2.685 6.539M214.094 563.47l.08-.466.764-4.364 4.323-25.495 1.318-6.61 1.383-4.45.948-2.806 1.84-4.198 3.746-7.637 4.725-9.281 5.144-9.953 2.87-4.613 2.85-3.623 1.471-1.65.996-1.116 2.282-3.009 1.172-2.09M214.094 563.47l-.257 1.59M215.52 564.743l-.846-.673-.58-.6M176.835 383.1l-.434 1.17-3.166 7.148-.756 1.486-1.012 1.518-3.167 3.51-3.231 3.526-1.109 1.265-.627 1.234-.193 1.17.193 1.66.402 1.74.61 1.391.804 1.55 2.01 3.336 2.652 4.3.643.933.916.902 1.27.854 2.17 1.296 1.077.76.9.79.755 1.012.563 1.154.417 1.518.917 4.728.53 2.403 1.286 4.024M197.488 522.295l-.385-2.344-2.572-16.412-3.487-23.654-.627-3.953-1.446-10.499-.66-3.273-.9-3.921-1.655-5.993-.74-2.83-1.06-3.083-1.222-3.115-1.479-3.74M206.225 423.287l-.643 1.676-1.188 2.712-.162.3-.164.19-.217.083-.18.027-.314-.055-1.045-.197-.402-.095-.245-.016-.265.012-.342.099-.811.348-.322.102-.306.06-.478.015-.88-.05h-.579l-.41.094-.369.198-.314.308-.948 1.289-1.085 1.399-.932 1.02-1.664 2.221-.378.42-.313.37-.37.348-.851.46-1.833.577-3.994 1.312-2.966.964M196.16 549.998l1.745-2.924M196.16 549.998l3.42 1.725M176.031 374.578l-.996-.94-.623-.574-.623-.724-.522-.727-.675-1.305-.724-1.541M173.475 366.134l-.193.64-.168.427-.25.42-.337.52-.659.626M186.013 351.12l-.595.751-.667.711" clip-path="url(#p76f31fc3e7)" style="fill:none;stroke:#000"/><path d="m181.497 342.668.184 1.21.418 1.803.225.948 1.02 2.538 1.407 3.415M188.721 347.38l1.455 1.036M187.299 571.423l.209-1.407.217-1.297.683-2.34 1.712-5.8.98-3.228.908-2.624.419-1.02M199.837 537.177l-2.331.336-4.228.608-1.362.186-.37.206-.096.19.052.347.756 2.222.048.664-.008 1.02-.05 2.579.179 8.172M186.52 359.659l-.491-1.21-.699-1.067-.892-.997-.74-.766M183.602 358.663l.201-.902.032-.98-.137-1.162M208.476 556.877l.245-.67M208.476 556.877l-.474 1.625M178.069 364.734l-.173.101-.112.083-.135.172-.372.72" clip-path="url(#p76f31fc3e7)" style="fill:none;stroke:#000"/><path d="m175.682 370.122.24-.79.52-1.083.393-.81.72-1.416.44-.79.043-.14.039-.16-.008-.199M186.52 359.659l-1.17-.348-1.748-.648M176.957 380.182l.043.341.084.637-.024 1.023-.225.918M462.935 130.9l-.44-.828-3.744-5.029-.696-1.119-.192-.494-.045-.502.08-.463.354-1.233" clip-path="url(#p76f31fc3e7)" style="fill:none;stroke:#000"/><path d="m442.251 134.863 2.274-1.13.57-.34.652-.514 2.146-2.111 4.227-4.23 4.895-4.658.325-.284.342-.206.301-.103.27-.055M360.438 145.456l.898-.02.386-.087.378-.158.337-.246 1.077-1.043 1.31-1.186.523-.325.41-.332.482-.79.57-1.1.205-.407.153-.233.165-.198.357-.324.314-.237.33-.324.196-.237.205-.321.18-.348.118-.265.26-.806.306-.98.16-.373.298-.3.338.237 5.94 3.013.49.15.41.008.457-.15 3.28-1.344.827-.293.884-.174.78-.04.659.08.747.19 3.56.862 2.411.584 1.664.617 4.228 1.423 5.504 2.112" clip-path="url(#p76f31fc3e7)" style="fill:none;stroke:#000"/><path d="m442.251 134.863-6.896 2.665-6.365 2.53-.506.143-.37-.016-.458-.087-2.282-.775-2.926-1.289-.361-.118-.346-.024-.354.08-2.973.703-.812.047-1.254-.04-.924-.134-1.206-.277-.715-.15-.707-.087-1.15-.078-4.974-.356-.45.031-.378.19-.281.284-3.328 3.986" clip-path="url(#p76f31fc3e7)" style="fill:none;stroke:#000"/><path d="m410.385 152.212-1.47-1.273-1.488-1.51-1.004-1.123-.498-.64-.274-.46-.297-.79-.707-1.97-.25-.568-.209-.3-.426-.467-.522-.467-.442-.308-.563-.245M175.765 266.593l-.055 1.834-.096 3.747.273 4.76.08 1.25-.032.711-.145.854-.836 2.815-.209.885.065.838.24 1.139.724 3.194.788 2.815.976 3.655.808 3.302.129.633.096.743.032.886-.048.585-.097 1.85-.048 2.34-.257 5.962-.064 1.645-.048.87.16.932.402.949.37.964.338 1.502.305 2.451.321 3.89.161 3.147.53 3.448.788 5.96M251.332 279.223l-.365.384-1.624 1.802-.964.98-3.279 2.53-5.224 3.78-7.458 5.835-13.213 10.12-8.52 6.373-8.036 6.104-1.077.617-1.157.332-1.736.126-5.272-.27-1.56.16-1.703.632-2.507 1.723-1.013.712-.643.6-.563.507-.61.854-.563 1.28-.321 1.17-.945 4.996-.647 3.148-.916 3.431M180.355 342.589l.772-3.4.289-2.04M180.355 342.589l1.142.08M183.353 343.427l-.273-.276-.282-.246-.353-.173-.378-.044-.57-.02M186.013 351.12l-.723-1.51-.715-1.692-.627-1.462-.547-1.392-.12-.822.072-.815M390.245 377.408l.77-1.898 2.316-5.027.193-.705.072-.481-.088-.791-.868-1.566-1.598-3.338-3.257-4.694-.771-1.407-2.556-4.476M390.309 378.088l-.064-.68M389.28 382.39l.017-.349.168-1.044.418-1.483.426-1.426" clip-path="url(#p76f31fc3e7)" style="fill:none;stroke:#000"/><path d="m475.124 196.751-.493.641-6.88 7.765-5.287 5.503-.917.965-1.076.917-4.405 3.447-3.215 2.388-3.552 2.799-4.71 3.527-4.435 3.036-2.25 1.787-1.833 1.566-.836.822-1.48 2.166-1.461 2.498-2.797 5.472-.804 1.186-2.444 2.973-1.494 1.803-.466.838-.177.87.112 1.612.547 2.673 1.671 5.076 1.399 4.254 1.206 4.111.144.949-.257 2.578-.82 3.241-1.929 6.484-.401 1.265-1.769 4.174-3.182 8.603-.82 2.103-.683 2.103-1.021 2.617-.361.649-.443.584-1.494 1.1-3.705 2.102-.7.538-.819 1.186-.611 1.273-.635 2.135-.089.806-.04.823.057.632.305 1.083 1.141 2.767.933 3.02.546 2.752.386 4.633.016 1.297-.177 1.028-1.06 2.372-1.48 3.241-1.189 2.736-1.724 3.56-1.957 4.552-1.27 2.514-.594 1.043-1.784 2.973-1.319 2.071-1.189 2.135-.772 1.613-.643 1.898-.209.98-.015.882.193 1.031.329 1.068.209 1.463-.057 1.565-.337 1.28-.949 2.025-1.108 1.85-1.142 1.391-1.977 1.93-1.543 1.248-.723.696M376.035 389.79l3.408-3.749 4.71-5.122 1.688-1.266 1.044-.458 3.36-1.787M392.447 399.213l-.056-.703-.017-.586-.112-1.217-.2-1.526-.081-1.55-.233-.972-.394-1.162-1.158-2.996-.747-2.467M389.28 382.39l-.032.632.08 1.588.12 1.424" clip-path="url(#p76f31fc3e7)" style="fill:none;stroke:#000"/><path d="m381.082 395.735.531-1.313.547-1.17.98-1.977.7-1.012.434-.419.82-.545 1.07-.677.93-.572.973-.814 1.382-1.202M405.498 389.568l-1.286 2.696M408.56 389.505l-1.47-.372-.916.023-.25.088-.426.324M389.28 382.39l2.315.616 4.733 1.858 1.994.893.313.261.394.348.402.292 4.59 2.317 1.477.593M408.56 389.505l-1.783 3.913M409.46 394.73l1.76-3.968-.048-.372-.248-.293-.587-.174-1.776-.418M375.457 390.421l-1.326 1.226M375.457 390.421l.578-.632M378.141 393.529l-1.055-1.382-1.629-1.726M378.141 393.529l-1.391-.537-2.62-1.345" clip-path="url(#p76f31fc3e7)" style="fill:none;stroke:#000"/><path d="m370.651 394.92.426-.743.627-.901.337-.388.45-.395 1.64-.846M404.212 392.264l2.565 1.154M402.798 395.869l.17-.68 1.244-2.925M406.777 393.418l-.796 1.874M406.777 393.418l2.362 1.178M381.082 395.735l-1.952-1.44-.989-.766M409.139 394.596l-3.158.696M409.139 394.596l.322.134M410.578 395.395l-.723-.435-.394-.23M405.98 395.292l-3.182.577M409.388 397.22l.145-.426.201-.348.844-1.051" clip-path="url(#p76f31fc3e7)" style="fill:none;stroke:#000"/><path d="M425.944 386.967h-1.181l-2.25-.166-1.516-.091h-.273l-.168.075-.53.466-1.588 1.63-1.656 1.81-2.226 2.411-1.575 1.723-.607.637-.173.174-.096.063-.17-.004-.288-.087-.374-.099-.695-.114M370.651 394.92l-1.222 2.285M367.211 398.573l1.206-1.479.932-1.122 1.302-1.052M299.892 393.263l2.205-2.881 2.717-3.534 3.793-5.091 1.96-2.926 1.64-2.91 2.25-3.351 1.942-2.7.084-.115 1.045-1.454 1.06-1.455.98-1.487.925-1.489.66-1.28M298.858 395.537l.931-1.564.103-.71M299.892 393.263l-1.479 1.96M381.082 395.735l2.17 1.454M380.287 397.426l.579-1.217.216-.474M402.798 395.869l.129 2.949M383.252 397.189l1.841 1.163M380.287 397.426l.49-.181.547-.119.53-.024 1.398.087M367.018 404.763l-1.607 1.06-2.765 1.897-3.279 1.708-4.806 2.53-2.925 1.534-4.597 2.308-3.689 1.826-1.182.474-1.173.253-.892.064-.852.055-1.856-.087-1.214-.308-1.535-.554-4.95-2.64-8.504-4.633-6.397-3.573-7.153-4.143-9.17-5.2M298.472 397.334l-.136-.605.192-.638.33-.554M295.358 399.253l1.11-.933.646-.396.514-.26.844-.33M409.388 397.22l-.377 2.143M413.616 400.47l-.539-.798-.57-.64-.635-.554-.9-.633-.908-.41-.676-.214M404.22 398.518l1.359-.34 2.845-.696.964-.261M369.43 397.205l-1.158 2.056M373.054 399.3l-1.495-.87-2.13-1.225M373.054 399.3l2.797.048 1.318-.08 1.036-.356 1.045-.592 1.037-.894M367.211 398.573l1.06.688M366.93 403.127l-.185-1.328.089-1.431.048-.696.104-.498.225-.601M385.093 398.352l2.387.988M387.182 400.194l-1.322-.514-.61-.317-.165-.201-.073-.186.081-.624M366.93 403.127l.997-3.044.345-.822M404.22 398.518l-1.293.3M406.66 400.134l-.945-.522-.795-.49-.353-.272-.346-.332M392.447 399.213l2.99.04 2.94.063 2.388-.063 2.162-.435" clip-path="url(#p76f31fc3e7)" style="fill:none;stroke:#000"/><path d="m367.018 404.763.917-.427.82-.506 1.366-1.233 1.044-1.17 1.89-2.127M392.447 399.213l-.258 2.088M409.01 399.363l-2.35.771M410.714 400.992l-.474-.601-.478-.442-.751-.586M401.15 409.641l.772-1.035.932-1.4.66-1.13.385-.768.258-.624.618-1.194.707-1.407.483-.846.695-1.103M295.358 399.253l1.805-2.374 1.25-1.656M251.6 468.978l.945-2.303.828-2.17.777-3.158.086-.544.29-1.849.69-2.482 4.816-9.46 1.254-2.197 2.25-3.48 2.266-3.05 4.887-6.325 5.69-7.432 6.012-8.08 3.552-4.68 5.642-7.432 3.773-5.083M392.19 401.3l.072.633M387.48 399.34l1.937.719 2.772 1.242M366.93 403.127l.088 1.636M412.193 408.519l-.383-.14M412.37 412.93l1.133-2.079.105-.324-.073-.27-.305-.418-1.037-1.32M413.616 400.47l.16.459-.008.458-.112.633-.97 3.658-.493 2.84M405.724 414.456l-3.537-3.763-1.036-1.052" clip-path="url(#p76f31fc3e7)" style="fill:none;stroke:#000"/><path d="m392.262 401.933.501 1.227.278.591.386.562.467.584.643.641 2.073 1.043 1.125.396.732.356.522.364 2.162 1.944M409.662 411.57l.474.317 2.234 1.043M411.304 414.514l.182-.311.884-1.273M406.778 415.672l-.474-.45-.58-.766M401.951 425.945l.22-.152 1.11-1.091.82-1.439.353-1.297.418-2.118.852-5.392M409.887 416.938l1.796.817M409.887 416.938l-.804 1.044M409.887 416.938l1.417-2.424M411.684 417.755l-.93 2.195M418.963 420.967l-3.55-1.537-3.73-1.675M409.083 417.982l1.672 1.968M409.083 417.982l-.595-.688M410.755 419.95l.474.594M411.229 420.544l2.608 3.225M415.029 422.028l-.256-.156-3.544-1.328M414.331 423.516l-.29.095-.204.158" clip-path="url(#p76f31fc3e7)" style="fill:none;stroke:#000"/><path d="m401.951 425.945 1.731 1.28.933.735.45.245.61.205 1.463.427 1.125.364.571.11h.755l1.511-.134.884-.253 1.527-.735.788-.57.313-.45.41-.767.073-.364-.04-.221-.121-.269-1.097-1.779M469.327 444.388l-.378 1.96M469.327 444.388l.997 1.257M418.963 420.967l2.786-1.23.932-.166.62.024 1.011.15.925.222.908.505 1.463 1.028 1.39.996.707.403.683.285.732.119.972.031 6.583-.04 1.655.254 1.318.506 5.192 2.182 7.056 2.672 5.755 2.38.771.498.458.538.474.798 1.246 2.64 1.407 2.602.554.933.563.766 1.968 1.906 1.295 1.256.458.53.482.633M470.324 445.645l-1.375.703M488.989 390.195l-.47 1.16-1.479 3.541-.723 1.866-.065.585.13.664.513 2.562.049.601-.193.853-.868 1.946-1.527 2.91-.466.869-.37.964-.643 1.882-.482.838-1.045 1.407-.723 1.502-.29 1.028-.176.806-.37.76-.964 1.825-.081.404-.016.553.048 1.455-.016.917-.61 1.96-.692 1.33-1.029 1.327-1.35 2.435-.514 1.312-.209.87-.129 1.234-.032 2.42.129 3.288.016 1.96-.145 1.044-.353 1.122-1.383 1.708-.884.775-1.253.767M589.84 570.866l-1.239-.368-.699-.316-2.757-1.25-.707-.221-2.017-.363-1.222-.317-.482-.34-.94-.687-3.231-2.261-3.182-2.11-.707-.38-.338-.238-.201-.316-2.315-5.012-3.335-7.186-1.985-4.016-2.09-4.759-3.262-7.478-.925-2.111-.297-.285-.354-.213-.498-.134-.965-.088-8.31-.3-6.847-.19-9.716-.478-13.028-.684-7.667-.411-4.348-.355-7.25-.594-2.178-.166-1.213-.197-1.157-.19-2.79-.956-5.175-1.455-3.696-1.02-3.726-1.095-.241-.17-.12-.182-.073-.284.032-.94-.004-6.452-.144-1.803-.04-1.517.064-.807.096-1.13-.193-6.846-.305-12.559-.032-.312-.177-.288-.305-.257-2.572-1.407-.394-.348-.345-.498-.547-1.368-.554-1.012-.465-.568-.355-.27-1.752-.727-2.178-1.25-2.403-1.423-.466-.363-.217-.269-.226-.474-.056-.388.032-1.581-.024-.664-.209-.727-.353-.775-.443-.893-.305-1.139-.072-.49.008-.538.281-1.114.253-1.364-.052-.538-.149-.296-.209-.194-.622-.276-.406-.163-.185-.193-.173-.344-.217-1.1-.136-.513-.314-.664-.12-.45-.057-.546-.096-.712-.354-1.217-.209-.577-.273-.561-.523-1.289-.088-.498.088-1.202.162-.91.031-1.059.057-.434.16-.388.226-.34.594-.616.635-.64.78-.767.61-.38.837-.348.73-.466.941-.901.747-.68.475-.578.667-1.146.265-.514.418-.616.522-.665M197.488 522.295l-8.454-4.738-2.261-1.2M197.488 522.295l.16.623M593.623 557.93l6.996-11.283 1.711-4.68 1.062-2.038 2.926-2.445 3.962-2.981 4.378-2.14 1.709-1.655 3.444-4.05 1.422-3.668M197.649 522.918l1.745 1.096M198.13 526.22l-.087-.553-.394-2.75M199.58 551.723l-1.396 3.421M200.83 554.461l-.616 1.44M203.372 555.066l-.61 1.667M198.184 555.144l2.03.756M192.732 567.692l.29-.538 3.583-8.261 1.579-3.749M206.152 555.474l-.703 2.135M200.214 555.9l2.548.833M202.762 556.733l2.687.876M205.449 557.609l2.553.893M208.002 558.502l3.123 1.092M591.413 565.713l.772-2.97.732-2.847.706-1.965" clip-path="url(#p76f31fc3e7)" style="fill:none;stroke:#000"/><path d="m591.92 565.974 1.318-5.596.385-2.447M359.863 590.752l17.85 7.122.653-.103.66-.41 1.12-1.538 5.477-15.22 3.738-9.92 1.912-2.735 2.954-4.124.02-.354-.145-.269-.257-.3-.312-.17-.323-.107-6.022.193-.976-.077-1.198-.094-15.713.041" clip-path="url(#p76f31fc3e7)" style="fill:none;stroke:#000"/><path d="m359.72 589.898 1.045-1.44 1.39-2.253.829-2.3.804-3.09 2.33-7.297 3.183-10.83M401.951 425.945l-2.898 1.998-4.694 3.732-2.555 2.214-2.958 3.004-1.8 1.96-2.122 2.688-4.735 5.378-1.003 1.184-.788.996-.803 1.17-.58 1.14-1.88 3.668-.932 1.391-.313.79-.145.649.024.672.137.972 2.032 8.482 1.199 3.993.361 1.866.241 1.075.418 1.155.643 1.312.997 1.724.723 1.707.659 1.74 1.093 4.964.595 2.466.884 1.977 1.157 1.629.964 1.786.643 2.087.306 2.989.032 1.707-.225 1.835-.852 2.308-1.647 4.04-.78 1.162-.9.948-3.312 2.268-8.229 5.37-.976.98-.631 1.122-.37 1.265-.193 2.356-.434 5.392-.675 4.648-.37 3.937-.015 2.687.273 1.882.482 2.119 1.43 4.9.692 2.341.257 2.482-.226 2.435-.417 2.277-.434 1.723M591.413 565.713l.507.261M589.84 570.866l1.264-3.963.31-1.19M590.182 570.95l1.58-4.306.158-.67M192.21 569.739l.795-.226M192.21 569.739l-1.192.44M192.222 568.565l-.073.391-.012.384.072.399M589.84 570.866l.342.083M589.84 570.866l-.103.708M590.182 570.95l-.445.624M587.684 574.367l.633-.663 1.42-2.13M592.912 575.551l1.001-1.496-4.176-2.48M187.299 571.423l3.719-1.244M171.6 576.186l3.594-1.151 12.105-3.612M359.72 589.898l.143.854M329.036 611.858l7.04-4.996 5.412-4.575 5.888-4.453 11.59-7.352.755-.584M360.213 614.788l-.35-24.036M315.63 618.8l4.51-.369M315.63 618.8l3.907-1.701M464.81 134.737l-2.593.268M462.935 130.9l.3.564 1.575 3.273M466.578 142.521l-.32-.825-.146-.854-.048-1.424-.113-1.28-.289-1.029-.852-2.372M367.492 130.23l-.546-.56M367.492 130.23l-8.286 16.458-2.066 3.428-1.703 2.654-2.904 4.525-1.452 2.69M209.69 531.423l-.407.69-.17.532.085.39 2.768 1.718 2.308.98 1.328.608.997.4 1.237.513M217.836 537.254l-1.46 9.457-.299 1.54" clip-path="url(#p76f31fc3e7)" style="fill:none;stroke:#000"/><path d="m246.686 470.837-.616 1.139-2.83 5.32-1.966 3.695-4.372 8.633-4.324 8.318-3.099 6.022-1.61 3.164-2.058 4-1.35 2.846-.84 1.714-1.33 3.33-1.334 3.89-1.141 4.221-.659 3.352-1.321 6.773M215.243 553.288l-.945 5.506-.8 4.727M215.243 553.288l.19-1.231M213.499 563.521l-.235 1.285M251.332 279.223l6.61-6.938 7.17-7.756 8.149-8.61 6.734-7.29 3.028-3.376 6.416-6.674 5.907-7.298 11.525-15.71 18.107-24.227 4.653-6.104 3.89-3.867 9.584-9.145 4.425-4.494M347.53 167.734l-6.067 13.298-1.393 3.348-1.486 5.185-1.311 7.139-1.004 11.426-1.827 25.268-1.647 24.194-.862 13.18-.26 4.027-.097 3.226.32 5.375 2.002 37.361-.082 7.432-1.06 5.596-1.673 5.085-3.381 7.13-4.65 7.431-1.348 2.03-1.57 2.637-1.715 3.063M351.081 159.985l-1.566 2.93-1.985 4.819M177.277 365.81l-.82 1.415-.626 1.194-.246.775M175.585 369.194l.097.928M373.634 387.585l2.401 2.204M387.182 400.194l.298-.854M392.262 401.933l-2.226-.743-2.854-.996M413.616 400.47l-2.902.522M411.81 408.38l-.943-.344-.896-.399-.944-.613-.53-.335-.298-.293-.08-.356.04-.557 1.374-2.261.434-.53.45-.435.185-.466.089-.34.023-.459M411.81 408.38l-1.746 2.4-.402.79M406.778 415.672l.834-1.042 1.744-2.182.161-.38.145-.498M414.331 423.516l.698-1.488M415.891 422.555l-.322.202-.877.577-.36.182M171.6 576.186l5.337 14.12M592.912 575.551l-4.389-.748-.839-.436M248.463 467.58l-1.777 3.257M248.463 467.58l.045.613.138.518.69.69.815.111.601-.123.849-.411M274.432 425.917l-2.937 3.911-3.639 4.592-2.374 2.978-2.354 3.307-1.7 2.277-1.84 3.152-2.018 3.95-2.196 4.105-1.688 3.384-1.125 2.268-.129.242-1.69 3.182-2.28 4.316M318.419 361.165l-.748 1.271-1.067 2.025-1.31 2.796-.738 1.772-.13.315-1.174 2.878-1.591 3.32-1.715 3.127-1.717 2.698-3.854 5.074-1.83 2.421M321.154 362.59l.039-.34-.037-.341-.11-.325-.18-.294-.238-.248-.289-.193-.323-.126-.344-.055-.347.02-.335.092-.307.162-.264.223M207.756 600.939l-.43-1.176-.2-.233-.282-.217-.41-.15-.522-.016-.482.094-.29.166-.604.46M205.206 596.167l-.207 1.18-.463 2.52M208.063 599.274l.228-1.676M206.587 607.574l.965-.91.112-.173.691-3.281.338-2.45-.064-.285-.566-1.2M208.063 599.274l-.307 1.665M206.587 607.574l1.169-6.635M285.18 411.94l-1.817 2.42-2.313 2.976M285.18 411.94l6.271-8.371M382.36 104.832l.837-.23.73-.37M383.776 101.92l-.081.492-.137.847.104.561.266.411M199.394 524.014l1.03-1.242M198.8 524.98l.237-.363.357-.603M198.13 526.22l1.707 10.957M198.13 526.22l.67-1.24M200.794 522.116l-.37.656M209.69 531.423l1.396-2.367-10.663-6.284" clip-path="url(#p76f31fc3e7)" style="fill:none;stroke:#000"/><path d="m321.154 362.59 1.627-3.088.79-1.738.966-2.501.873-2.331 1.15-2.974.5-1.233 1.767-3.527 2.138-4.617.868-1.96.804-2.104.835-2.545.949-4.176.45-4.221.032-5.456-.08-3.297-.322-4.657-1.029-13.583-1.14-18.706-.065-1.424.338-8.207.787-12.128.45-8.508.707-10.152 1.383-17.664 1.029-14.477.546-6.492.466-4.365.636-3.755.923-4.183 1.27-4.096 1.334-3.432 1.55-3.02 1.134-2.356 1.11-1.93 1.27-1.992 1.253-1.708 1.543-2.009 1.013-1.47 1.543-2.625 1.302-2.435M466.578 142.521l.483 1.04 1.068 1.93.442.72.627.632 1.206.98 1.447.839 1.559.703 5.184 2.04 2.668 1.123 1.14.601M475.124 196.751l1.548-2.015.37-.743.257-.775.226-1.392.112-1.882.402-2.894.29-2.767.176-.617.386-.886 1.897-3.684 1.8-3.542 1.446-3.495.434-1.756.322-1.502.402-2.009.305-2.04.177-2.118-.177-.902-.498-1.376-1.897-5.25-.53-1.502-.17-.475M509.516 161.905l-1.781-.734-1.31-.633-.386-.166-.434-.103-1.398-.15-.86-.119-.692-.134-1.743-.482-1.43-.293-1.584-.474-1.857-.594-.667-.189-2.724-.625-2.05-.411-.803-.198-1.39-.474-2.106-.94-2.797-1.567-1.101-.49M488.989 390.195l-3.516-1.094-6.422-1.874-6.236-1.913-9.226-2.799-6.67-2.07M592.13 278.974l-2.307 9.693-1.117 4.784-.338 1.162-1.768 4.554-.932 2.404-.361.672-.66.957-.446.589-.438.344-.546.3-.792.336-3.411 1.577-4.208 2.29-.908.517-.74.467-.67.53-1.551 1.454-.957.783-.788.577-.851.704-.627.806-.483.846-2.21 5.55-.33 1.115-.224.98-.643 4.618-.242.755-.305.542-1.302 1.66-.29.288-.353.143-.707.107-6.526-1.075-3.222-.238-1.745.024-1.727.174-3.038.672-1.335.269-1.365.126-1.753.087-1.197.134-1.382.293-3.761.997-1.255.363-.682.332-.724.506-.53.498-.53.624-1.841 3.147-4.758 8.563-.619.87-.554.592-.692.594-1.14.648-3.585 1.66-1.945.743-1.993.49-4.855.95-.61.189-.499.253-.61.838-.933 2.277-.232.886-.113.695-.145 2.427-.16 2.855-.097.782-.137.443-.37 1.115-.385.917-1.238 1.763-1.068 1.526-.362.459-.691.695-1.817 1.344-2.218 1.582-.314.292-.377.553-.418.76-.82 1.02-1.977 1.897-.402.617-.401 1.312-1.013 4.365-.386 1.912-.321 1.202-.418 1.234-.35.864M411.304 414.514l2.497 1.017 3.23 1.297 1.061.442M408.488 417.294l-1.71-1.622M406.31 424.489l.442-.965.394-1.115.7-1.992.425-1.953.217-1.17M415.891 422.555l.738-.462 1.592-.798.742-.328M415.029 422.028l.862.527M251.332 279.223l1.467 1.15 3.094 2.293 2.339 1.795 2.516 2.016 2.547 2.088 2.289 1.755.29.154.604.4 2.86 2.15 2.307 1.731 2.33 1.566.942.759 1.647 1.218 1.053.688.273.26.434.396.498.45.611.395 1.342.767M475.124 196.751l1.42-.007.61-.237.74-.459 2.894-3.194 1.864-2.135 1.463-1.993.362-.458.53-.562 1.8-1.708.651-.703.675-.988.442-.554.62-.625 1.293-1.32.932-1.258 1.367-1.976.61-.886.579-.553.763-.49 1.182-.751 2-1.598 2.018-1.431 2.283-1.81.94-.879.337-.41 1.752-2.452 1.343-1.992 1.784-2.246.69-.759.448-.412M213.837 565.06l.931-.199M208.291 597.598l2.154-13.756 2.72-14.528.672-4.255M209.69 531.423l-5.84-3.362-.14-.245-4.91-2.835M216.044 548.426l-.247 1.277-.364 2.354" clip-path="url(#p76f31fc3e7)" style="fill:none;stroke:#000"/><path d="m216.044 548.426-1.283.32-.266.19-.156.284-.13.673-.12.818-.047.332.076.257.225.296 1.09.46M216.044 548.426l.033-.175M319.537 617.099l4.5-2.364 4.999-2.877M319.537 617.099l.602 1.332M214.768 564.861l.752-.118M213.748 574.34l.523-3.819.192-2.75.305-2.91M213.264 564.806l-.975 5.34-1.02 5.289-.644 2.656-1.671 4.68-1.864 5.123-1.19 4.838-.694 3.435M211.208 563.89l1.207.549.85.367M194.021 569.192l7.951-2.483 8.433-2.606.803-.214M192.222 568.565l-.559.755-.41.554-.235.305M194.021 569.192l-1.016.321M194.021 569.192l-.47-.303-.337-.268-.32-.424M192.894 568.197l-.162-.505M193.005 569.513l.008-.347-.048-.593-.071-.376M192.732 567.692l-.39.612-.12.26M197.905 547.074l-.537-.263M236.261 134.802l.15.647.202.877.2.87.467 1.882 1.069 4.903.241 1.083.345 2.546.065.561.04.554-.105 1.565-.031.475-.547 3.226-.072.6.024.546.128.933-.008.522-.209.744-.812 2.245-.466 1.1-1.053 1.391-.803.783-.675.466-.836.372-5.368 2.498-5.723 2.784-5.4 2.68-1.568.894-1.278.973-1.534 1.787-4.51 5.005-1.1 1.146-.764.988-1.149 1.953-1.51 2.744-1.81 3.464-2.74 4.949-2.247 4.518-.84 1.95-.168.68-.04.562.008.656.466 2.76 1.342 8.404.386 2.554.129.617.321 1.075.563 1.906.482 2.514.29 1.573.08.886-.008 1.035.12 2.049.177 2.174.105 1.77-.089.673-.233.72-1.575 2.894-1.736 3.384-.884 1.296-3.552 4.19-4.212 4.682-4.661 5.218-4.348 4.744M175.765 266.593l.01-.285.16-1.281.425-.966.571-.758 2.066-2.261" clip-path="url(#p76f31fc3e7)" style="fill:none;stroke:#000"/><path d="m175.123 243.853-.482.917-.627.893-.458.815-.217.553-.057.49.025.53.209.744.795 2.134.72 2.186.397 1.017.306.347.241.135.394.134.458.072.78.079.49.047.538.206.25.24.168.253.153.274.08.363-.024.6-.12.634-.222.767-.088.474-.14.613-.069.427.028.284.149.495.197.466M162.493 267.49l-1.358-.312-1.95-.613-2.113-.582-1.751-.276-1.086-.119-1.35-.063-.795-.04-.643-.04-.892-.149-1.166-.23-1.197-.166-1.02-.19-.845-.079-.812-.007-.69-.048-.78-.094-1.358-.364-1.23-.403-.876-.111-.836.04-.852.11-.916.245-3.07.901-.892.317-.426.118-.562.119-.547.142-.53.206-.491.205-.53.206-.53.142-.74.079-.98.056-1.045.094M175.765 266.593l-3.053.624-1.784.435-.899.201-1.512.36-.756.103-.466-.063-.482-.119-.602-.166-.66-.11-.73-.024-2.014-.281-.314-.063M454.772 136.398l-.618-.016-1.89-.028-3.298-.202-2.56-.213-3.564-.467-.217-.075-.14-.106-.13-.198-.104-.23M475.941 137.054l-.197.415-.229.312-.273.273-.382.253-2.366 1.226-3.215 1.648-2.7 1.34M462.217 135.005l-.541.056-1.27.166-.98.175-2.508.513-1.687.396-.459.087M449.251 140.794l-.056-.45.144-.452.362-.403.474-.403 1.11-.585.41-.23.349-.26.357-.388.446-.43.27-.218.345-.174.41-.127.9-.276M366.348 129.056l1.579-3.357.698-1.383.25-.649.12-.561.033-.538-.09-.45-.329-1.313M366.348 129.056l.598.614M360.438 145.456l7.175-13.818 8.109-14.937 3.705-7.22 2.028-3.98M353.854 161.448l1.06-2.42 1.415-3.574.81-2.041.219-.553.745-1.896 2.335-5.508M366.946 129.67l-.755 1.636-.193.26-.257.253-.338.27-2.395 1.304-.731.459-.459.292-.45.261-1.59.822-.523.333-.37.26-.434.428M236.261 134.802l.69.038.546.119.49.229.619.395.402.467.225.205.265.103.378-.016 1.165-.126 1.06-.056 1.006.009" clip-path="url(#p76f31fc3e7)" style="fill:none;stroke:#000"/><path d="m462.935 130.9-1.26.302-.156.064-.14.11-.069.163-.024.221.012.257.133.486.064.226.012.213-.02.202-.085.364-.048.324.02.265.06.193.166.246.617.47M381.455 105.502l.8-.56.106-.11M381.455 105.502l1.645-3.232 2.675-5.208M382.36 104.832l1.11-2.285.306-.628M205.206 596.167l.457 1.15.29.36.51.209.633.038.377-.078.372-.063.446-.185M351.081 159.985l-.037.293-.06.371.039.375.135.351.224.306.296.238.348.155.377.06.38-.036.359-.132.311-.218.401-.3M383.776 101.92l1.783-3.695.216-1.163M281.05 417.336l-.914.473-5.323 7.104-.38 1.004" clip-path="url(#p76f31fc3e7)" style="fill:none;stroke:#000"/><path d="m281.05 417.336-3.659 4.71-.891 1.147-2.068 2.724M298.858 395.537l-.445-.314M298.413 395.223l-.393-.3M298.02 394.923l-.497-.382M298.02 394.923l-.847 1.115-4.807 6.324-.915 1.207M302.545 388.862l-3.517 4.734-1.008 1.327" clip-path="url(#p76f31fc3e7)" style="fill:none;stroke:#000"/><path d="m297.523 394.541-3.978 5.136-2.094 3.892M302.545 388.862l-1.552 1.269-3.47 4.41M250.006 472.11l-.207-.884-.188-.431-.45-.358-.904-.185-.602.062-.969.523M250.006 472.11l.955-1.694.64-1.438" clip-path="url(#p76f31fc3e7)" style="fill:none;stroke:#000"/></g><path id="PatchCollection_1" d="m405.333 402.85.987-1.032.691-.279.197-.74.407-.692.913-.376.69-.072.692.558.382.497.05.862-.704.849-1.345 1.675-.32.715-.173.789-.024.255-.926.024-.95-.12-.85-.353-.37-.413.16-1.067z" clip-path="url(#p76f31fc3e7)" style="fill:#00f;fill-opacity:.8"/><path id="PatchCollection_2" d="m491.664 384.208 10.151 5.198 1.243-10.293 13.363-15.897 5.801-3.261 17.61 2.853 5.802 8.764 34.806-5.095 5.18-8.764 5.179-27.21-21.03-2.75-12.43 4.585-9.012-1.834-11.24 1.783-5.594 1.834-4.816 8.357-5.284 7.847-9.892 3.108-4.247 1.274-.57 4.585-1.036 6.624-2.745 4.383-4.817 3.82-4.143 4.077-2.228 2.293z" clip-path="url(#p76f31fc3e7)" style="fill:#006400;fill-opacity:.8"/><g id="PatchCollection_3"><path d="m201.217 543.734.491 3.919 2.445.615.298-3.568zM374.311 391.504l2.616 1.323.172-.206-.247-.413-1.677-1.517zM384.94 398.927l5.67 1.93.288-.18-5.548-2.068-.34.026zM367.227 398.438l.777.134 1.878-3.301-1.872 2.03zM367.04 398.881l.755.33-.707 1.987-.248-.004-.122-.232-.092-.433.336-1.61zM588.35 574.381l1.666.477 2.713.559.677-1.268-3.543-2.28zM197.92 523.273l.388 2.319.472-.617.237-.364.244-.524z" clip-path="url(#p76f31fc3e7)" style="fill:green;fill-opacity:.8"/></g><g id="PatchCollection_4"><path d="m183.782 358.913 2.119.758-.46 1.243-2.119-.757zM165.376 365.724l2.046.537.272-1.002-2.046-.537z" clip-path="url(#p76f31fc3e7)" style="fill:#006400;fill-opacity:.8"/></g><g id="PatchCollection_5"><path d="m201.905 627.149-.125 1.288.576.053.125-1.287zM175.937 366.663l.455.383-.787 1.04-.491-.463zM213.442 549.754l1.094.198-.152.813-1.093-.197zM189.973 347.504l.884-.886.855.767 2.303-1.953-3.046-1.597-2.556 2.467z" clip-path="url(#p76f31fc3e7)" style="fill:#a9a9a9;fill-opacity:.8"/><path d="m189.973 347.725.835-.854 1.013.712-.691.98zM200.095 542.784l.256.278-.438.411-.253-.213z" clip-path="url(#p76f31fc3e7)" style="fill:#a9a9a9;fill-opacity:.8"/></g></g></g><defs><clipPath id="p76f31fc3e7"><path d="M106.678 86.4h524.644v554.4H106.678z"/></clipPath></defs></svg>