<svg xmlns="http://www.w3.org/2000/svg" width="960" height="960" viewBox="0 0 720 720"><defs><style>*{stroke-linejoin:round;stroke-linecap:butt}</style></defs><g id="figure_1"><path id="patch_1" d="M0 720h720V0H0z" style="fill:#fff"/><g id="axes_1"><path id="patch_2" d="M90 633.661h558V93.54H90z" style="fill:#fff"/><g id="LineCollection_1"><path d="m226.52 623.274 2.626-.77 4.321-1.404 15.656-5.667M378.58 578.298l-19.707.064-5.407.484-3.422.652-2.959.81-97.962 35.125M303.617 331.169l-3.246-1.17M303.617 331.169l-.097-3.269M303.449 333.229l.108-.746.045-.688.015-.626M303.449 333.229l-3.719-1.218M303.449 333.229l4.27 1.075M301.661 339.497l.798-2.255.99-4.013M296.857 358.207l-.193-.056M308.648 361.338l-4.564-1.141-7.227-1.99M296.857 358.207l.19-.594.94-2.826M296.857 358.207l-.28.483M300.562 343.512l3.01.392M300.562 343.512l-4.176-.438M300.562 343.512l-1.238 4.458M300.562 343.512l1.1-4.015M310.038 327.94l.542-1.318 1.078-2.247.332-.683.316-.74.34-.872.142-.487.057-.35.303-3.363M474.887 193.804l-1.078.997-1.49 1.596-1.329 1.624-.423.502-.401.414-.739.55-3.654 2.935-2.309 1.725-1.272.8-.57.33-.61.287-2.521 1.067-3.533 1.451-1.587.845-.798.522-.847.655-1.308.933-1.511.848-1.592.98-2.71 1.689-4.01 2.452-.534.326-.636.394-.446.309-3.605 2.894-2.863 2.44-.761.72-.519.578-4.82 6.38-1.952 2.5-.426.611-1.907 3.043-.993 1.572-.429.619-.778.752-9.79 6.503-.595.507-.502.575-2.362 2.681-1.296 1.294-.883.603-1.085.53-3.63.901-1.55.619-1.589 1.03-1.45.992-1.098.832-1.855 1.367-1.296.812-1.725.804-6.076 3.231-1.839 1.142-1.037.816-1.32 1.033-5.015 4.149-1.474 1.14-1.393.95-1.548.876-2.827 1.52-1.823 1.125-2.413 1.64-2.496 1.865-.899.498-1.199.475-1.474.378-1.896.474-6.886 2.556-1.684.756-1.418.772-6.53 3.955-1.547 1.03-1.207 1.037-2.374 2.282-2.98 3.152-1.62 1.672-1.167 1.19-3.176 3.94-1.215 1.647-.624.933-.526.956-.486 1.013-.486 1.158-.43 1.005-.542.836-.584.763-1.604 1.817-1.243 1.488-.721.74-.58.47-.93.647-.783.559M303.464 322.441l1.15-.498 1.361-.47.972-.318.814-.273 1.13-.482 2.37-1.35 1.887-1.17M286.255 348.816l1.85-6.136M286.255 348.816l-.743 2.257M286.255 348.816l2.66.774M286.255 348.816l-2.075-.62M336.434 368.393l-4.282.854M344.892 365.17l-.973.24-.834.274-.762.362-.76.386-2.52 1.117-1.377.506-1.232.338M331.664 365.57l3.56 2.355 1.21.468M288.104 342.68l.965-2.626M288.104 342.68l2.722.478M288.104 342.68l-2.298-.597M310.873 352.136l5.879.091M310.873 352.136l-6.911-.175M310.873 352.136l-.42 1.981M310.873 352.136l.53-3.301M290.826 343.158l.158-.462M289.603 347.431l.353-1.049.255-.876.332-1.254.283-1.094M283.582 357.16l1.93-6.087M283.582 357.16l-2.177-.504M283.582 357.16l2.663.657M298.854 351.8l.278.019M298.854 351.8l-.376-.02M298.854 351.8l-.134-.53M297.988 354.787l.744-2.432.122-.556M256.454 304.249l-.777-.402-2.747-1.511-.567-.177-.405-.008-.518.185-.98.337-.665.08-.777-.096-1.385-.225-2.379-.29-1.664-.345-1.337-.37-.528-.148-.49-.012-.564.062-.941.114-6.598.812-10.203 1.672-1.36-.476-2.82-2.765-3.823-4.438-1.847-1.318-1.037-1.164-.81-1.924-1.005-2.186-.097-2.097-8.36-6.013-1.366-.064-1.972.739-2.656-.958-3.014.283-5.12-1.286-2.625-1.827-7.522-3.286-2.171-.611-2.134-.933-4.666 1.1-3.456-.054M148.161 328.728l-.235-.345-.259-.852.033-2.67.275-2.267 6.076-17.348 1.077-2.581.138-.86.226-2.669.81-2.701.187-.506.51-.258.778.08 2.657 1.56.628.076.591-.19.798-1.51 1.653-3.98.348-2.01.276-1.527.696-2.058.081-1.55.551-2.606.097-1.165-.275-2.509-.81-3.633M116.68 259.154l.333.083 3.322.394 2.227.667 4.715 1.086.867.28 4.302 2.043 1.037.281 4.285.9.802.13.753-.073 4.132-1.07.66-.092.664.012 1.005.322 5.318 1.993.988.258 10.515-.306.527.218.283.538.697 4.26.956 3.57M313.07 340.04l-.592-.794M313.07 340.04l-.934 4.926M315.785 348.914l-.47-2.813-.765-3.792-.18-.453-.183-.336-1.117-1.48M282.912 320.617l-1.329-.37-1.282-.402M256.454 304.249l.948.49.835.435 1.045.65 1.158.869 1.158.796.572.56 1.43 1.506 1.579 1.997 1.798 2.296.436.465.512.484.672.385 5.396 2.251 2.657 1.013 3.651 1.4" clip-path="url(#pf7ddb4bcd1)" style="fill:none;stroke:#000"/><path d="m264.774 335.08.21-.547.406-1.118.566-1.443.178-.47.159-.499.008-.227-.032-.219-.11-.193-.296-.357-.121-.137-.004-.115.073-.145.224-.14 1.003-.577.575-.31.527-.281.786-.334.713-.289.582-.24.361-.15.596-.273.749-.426.559-.362.664-.583.502-.502.45-.414.563-.39.462-.318.534-.377.502-.414.527-.49.721-.62.996-.828.584-.59.32-.294.357-.241.356-.194.277-.128M293.005 327.184l-3.475 11.407M293.005 327.184l2.32.852M290.778 326.035l.461.33.479.265.825.386.462.168M281.405 356.656l2.078-6.212M285.35 361.094l-2.997-.845-1.102-.47-.911-.518-.413-.338-.333-.406-.186-.526-.008-.583.101-.446.13-.346.224-.176.238-.02 1.312.236M331.664 365.57l2.655-4.666M331.664 365.57l-6.306-3.786M332.152 369.247l-1.53-1.308-.057-.1-.024-.113.034-.155 1.09-2.002M309.54 357.58l-5.935-1.43M309.54 357.58l-.892 3.758M309.54 357.58l.913-3.463M312.86 358.863l-1.636-.687-1.685-.595M283.483 350.444l2.03.63M283.483 350.444l.697-2.247M275.008 349.956l1.204.277 1.076.173 1.347.213.77-.57 1.676-.105 1.134.16 1.268.34M285.806 342.083l-1.626 6.114M281.202 340.502l1.406.494 1.327.422 1.87.665M389.21 578.172l1.195-.01M389.21 578.172l-.92-.013M389.21 578.172l.255-.344.042-.264" clip-path="url(#pf7ddb4bcd1)" style="fill:none;stroke:#000"/><path d="m388.863 577.572.078.326.27.274M260.359 242.185l-.551 1.825-.243 1.375-.235 4.245-.081 2.444.154 2.934.162 2.018.187 1.166.283 1.318 1.183 3.763.445 1.503.38 1.495.317 1.584 1.158 4.687.77 3.449.307 1.407.276.964.372 1.013 1.978 4.197.963 2.05.81 1.801 1.005 2.243 1.15 2.66 2.625 6.537 1.782 4.233 2.99 6.757.36.783.292.72.323.964.215 1.013.3 1.423.454 1.52.404 1.045.454.9.51.9 1.054 1.496M290.778 326.035l-1.605-1.31-1.506-1.086-.993-.647-1.66-1.033-.77-.43-.773-.486-.56-.426M323.056 367.057l6.51 8.576M323.056 367.057l-.737.866M320.11 363.775l1.37 1.394.887 1.037.69.851M320.11 363.775l.41-.458M318.563 362.45l.136.102 1.412 1.223M295.325 328.036l5.046 1.963M295.325 328.036l-.805 2.421M295.325 328.036l.64-1.718M317.73 357.195l6.741 4.056M317.73 357.195l.032-1.166M316.555 360.318l.307-.652.353-.803.344-.872.17-.796M297.681 354.707l.307.08M297.681 354.707l-4.075-1.083M297.681 354.707l-.828 2.857-.189.587M298.478 351.78l-.118.511-.679 2.416M288.246 352.026l-.251-.097-2.483-.856M193.173 130.06l-2.189-.295M206.262 147.921l-2.081-4.212-1.486-1.76-2.147-4.845-7.375-7.045M225.133 201.348l-6.476-7.826-11.448-22.513-3.248-13.154M206.262 147.921l.176.357-.33 4.458-1.22 2.909-.927 2.21M170.026 182.758l.182-.246 1.762-2.38 1.065-1.37.397-.317 3.063-2.002.749-.354 1.344-.479.693-.406 2.613-1.418 2.324-1.158.908-.619.446-.153 1.271.105.527.233.583.562.453.105.47-.113.876-.876.477-.603.13-.474-.057-.483-.988-1.89-.016-.313.162-.265.915-.442 1.053-.547 1.264-.94 1.572-1.544 2.228-1.632 1.368-1.126.406-.578.785-1.56.357-.45.332-.185 1.79-.708.887-.204 1.544-.073M290.778 326.035l2.83-6.285M372.058 579.153l7.037.025M401.896 578.897l-7.188.096M386.485 578.203l.054.856M386.485 578.203l1.22-.02M386.485 578.203l-1.846.024M386.54 579.059l8.168-.066M386.54 579.059l-1.806.037M386.54 579.059l-.042 3.633M386.383 585.007l-.26 2.66M386.383 585.007l.115-2.315M386.383 585.007l-1.774.503M386.123 587.666l-.191 3.556M386.123 587.666l5.427.019M372.943 602.568l12.165 1.061M385.108 603.63l4.95.269M384.28 614.767l.196-1.182.632-9.956M385.688 593.74l-.233 2.764-.214 3.292-.133 3.833M379.083 578.283l.012.895M379.083 578.283l5.556-.056M379.083 578.283l-.502.015M379.095 579.178l5.64-.082M379.095 579.178l.01 3.495M385.688 593.74l.244-2.518M379.344 586.688l.084 3.261.76.37 5.5 3.421M379.104 582.673l.24 4.015M379.104 582.673l-2.704.09M379.344 586.688l5.265-1.178M384.64 578.227l.094.87M384.734 579.096l-.109 3.652M384.609 585.51l.016-2.762M384.625 582.748l1.873-.056M397.334 581.915h-2.028M394.77 581.915h.536M394.77 581.915l-.062-2.922M391.997 587.093l-.638-2.254.032-2.09.065-.74.097-.097.421-.129.38.132h2.416M394.708 578.993l-.058-.836M394.65 578.157l7.395-.01M394.65 578.157l-4.245.005M395.954 586.623l-.439-2.785-.209-1.923M391.55 587.685l.447-.592M391.55 587.685l.392 3.825M391.997 587.093l3.957-.47M395.954 586.623l1.29-.18M391.942 591.51l4.647-.866-.635-4.02" clip-path="url(#pf7ddb4bcd1)" style="fill:none;stroke:#000"/><path d="m385.932 591.222 2.725.191 1.282.03 1.73.118.273-.051M402.045 577.566v.581M402.045 577.566l.06-5.119M402.045 577.566l-3.388-.002M389.164 577.096l.189-1.826M389.164 577.096l-.3.476M389.164 577.096l.343.468M376.259 577.292l2.333.054M390.707 565.683l-1.554-.308M390.707 565.683l-.291 2.012M390.707 565.683l.222-1.668M384.198 564.353l-1.862-.131M384.198 564.353l4.955 1.022M387.468 569.194l-3.125-.164-.536-.077-.262-.153-.216-.245-.03-.208.899-3.994M389.153 565.375l-1.685 3.819M387.468 569.194l-.172 3.408M387.468 569.194l2.714.733M387.158 577.567l-6.943-.14M387.158 577.567l1.705.005M387.158 577.567l.547.616M387.158 577.567l.055-2.325M387.705 578.183l.585-.024M390.182 569.927l-.098.611M390.182 569.927l.234-2.232M390.929 564.015l1.112.258M393.368 546.522l-1.243 8.635-.066.486-1.13 8.372M403.566 566.973l-.037 1.97M395.825 565.078l4.461.949 3.28.946M403.645 563.63l-.139.533.06 2.81M392.04 564.273l3.785.805M391.603 567.816l.036-.28.402-3.263M393.696 560.961l-.954 2.137-.701 1.175M391.222 570.82l.381-3.004M391.222 570.82l-1.138-.282M394.863 571.668l-.451-.049-3.19-.799M390.416 567.695l1.187.121M391.603 567.816l3.738.353M390.084 570.538l-.335 2.08M402.105 572.447l-3.901-.42M402.105 572.447l.003-3.638M389.353 575.27l-2.14-.028M389.353 575.27l.396-2.653M387.213 575.242l.083-2.64M389.749 572.617l-2.453-.015M387.296 572.602l-2.43.01M380.215 577.427l-1.623-.08M380.215 577.427l.156-2.462M378.592 577.346l-.011.952M394.084 577.56l.78-5.892M394.084 577.56l-4.577.004M394.084 577.56l4.573.004M394.863 571.668l3.34.36M394.863 571.668l.478-3.499M395.34 568.17l6.768.639M395.34 568.17l.485-3.092M408.654 538.11l-.478 1.067.583 9.582.26 2.025-.227 1.608-1.064.794-.362.686-.55 2.346-1.019 2.169-1.039 2.67M393.696 560.961l.328-.734.447-.59.716-.267 9.214 1.479.357.207M403.645 563.63l.07-.266.477-.976.566-1.332M403.529 568.943l-1.421-.134M423.535 570.656l-8.133-.708-4.375-.772-6.055-.14-1.443-.093M393.696 560.961l9.95 2.67M402.045 578.147l13.928-.018M415.973 578.129l7.758-.01M420.517 578.867l-4.405-.117-.139-.621M423.73 578.119l-.16.397M478.92 575.545l-4.049.923-7.073.963-7.392.375-36.675.313M420.517 578.867l.083 4.172M423.57 578.516l-.171.427-2.882-.076M289.696 358.722l-2.531-.667M289.696 358.722l1.87.517M289.696 358.722l.571-2.001M287.165 358.055l-.596-.14M287.165 358.055l.575-2.126M288.764 352.226l2.55.806M288.764 352.226l-.518-.2M288.764 352.226l-.4 1.5M286.57 357.914l-.325-.097M286.57 357.914l1.252-4.353M288.914 349.59l5.477 1.54M288.914 349.59l.689-2.159M288.914 349.59l-.668 2.436M287.74 355.929l.623-2.203M287.74 355.929l2.527.792M290.267 356.72l.102-.333M287.822 353.56l.541.166M287.822 353.56l.424-1.534M288.363 353.726l2.581.668M290.944 354.394l.37-1.362M290.944 354.394l-.575 1.993M290.944 354.394l1.83.541M291.567 359.239l.223.06M291.567 359.239l.65-2.36M290.369 356.387l1.848.491M292.217 356.878l.557-1.943M292.217 356.878l4.447 1.273M296.121 360.544l.457-1.854M296.121 360.544l-.576-.086M296.033 360.84l.05-.168.038-.128M296.121 360.544l4.31 1.18M292.774 354.935l.399-1.426M308.648 361.338l-.562 2.497M313.857 359.406l-1.025.418-1.988.816-1.13.393-1.066.305M313.857 359.406l-.997-.543" clip-path="url(#pf7ddb4bcd1)" style="fill:none;stroke:#000"/><path d="m316.322 360.766-1.535-.886-.93-.474M322.08 368.245l.239-.322M322.08 368.245l.275.189.332.36.814 1.03M319.803 367.422l.818.276.725.26.733.287M329.112 376.007l.455-.374M329.112 376.007l-5.218-6.412M346.27 398.693l-1.76-2.308-2.64-3.417-2.017-2.741-2.795-3.81-4.192-5.54-.385-.53-3.369-4.34M327.176 374.273l.998 1.064.409.348.214.168.315.154M329.567 375.633l1.914 2.46M329.567 375.633l.32-.28M325.358 361.784l-.887-.533M325.358 361.784l-3.23 2.787M331.48 378.092l1.09-.084M346.677 398.368l-6.848-9.226-6.55-8.602-1.798-2.448M332.57 378.008l3.2.064M332.57 378.008l-2.368-2.929M356.144 410.662l-2.455-3.256-2.649-3.47M349.02 401.357l.971 1.222 1.05 1.356" clip-path="url(#pf7ddb4bcd1)" style="fill:none;stroke:#000"/><path d="m355.675 394.228-.81 4.35-.239.606-3.586 4.751M346.27 398.693l-1.435 1.144-.441.33-.369.085-.336-.056-.28-.17-1.183-1.623M346.677 398.368l2.342 2.99M346.677 398.368l6.825-5.17M346.677 398.368l-.407.325M353.502 393.198l-5.88-3.068M353.502 393.198l1.145.67M355.675 394.228l-1.028-.36M357.317 385.843l-.803 3.882-.84 4.503M335.77 378.072l3.1 3.776M345.677 378.072l-4.544-.7-.9-.055-.89.112-1.426.29-2.147.353M338.87 381.848l3.502 4.126M345.118 382.542l-.465-.37-.555-.333-.58-.242-2.199-.498-.753-.153-.43-.028-.267.108-.998.822M357.317 385.843l-4.036-.34M357.541 379.66l.247-.004.24.076.181.149.057.29-.949 5.672M413.782 357.372l-.162 2.982-.04.306-.138.33-.276.176-.55.145-1.119.361-.915.435-1.147.74-.968.594-1.06.772-.892.707-.948.828-1.117.908-.9.62-1.126.619-1.721.807-1.341.56-1.07.446-.988.454-3.531 1.857-2.536 1.849-.677.643-.899.989-.907 1.242-2.046 2.717-.433.567-.502.615-.92.815-.563.515-.51.53-1.495 2.42-.352.459-.292.225-.384.04-11.755.056-1.377.032-4.18-.016-5.217.145-1.41-.02M342.372 385.974l.46.498 1.03 1.211 1.67 1.375 2.09 1.072M349.776 385.01l-.882 2.162-.778 1.937-.494 1.021M349.776 385.01l3.505.493M345.118 382.542l.53.33 2.135 1.077 1.613.924.38.137M350.66 381.11l-.446 2.228-.438 1.672M351.121 378.756l-.462 2.355M354.276 379.189l-.68-.098-2.475-.335M345.677 378.072l4.845.643.6.04" clip-path="url(#pf7ddb4bcd1)" style="fill:none;stroke:#000"/><path d="m351.858 373.84-.004.582.004.62-.129.82-.235.98-.373 1.914" clip-path="url(#pf7ddb4bcd1)" style="fill:none;stroke:#000"/><path d="m353.114 370.572-.11.293-.174.257-.328.258-.247.116-.244.2-.097.184-.04.18-.056.345-.024.37.057.69.007.375M354.564 373.466l-1.49.257-1.216.117M345.677 378.072l.63-2.114.278-.39.385-.37.933-.543 1.72-.364 2.235-.451M357.178 373.013l5.213.14M357.178 373.013l-1.11 6.432M355.393 373.242l.559-.126 1.226-.103M332.152 369.247l1.255 3.351M334.39 374.96l-.983-2.362M321.838 364.49l-1.318-1.173M321.838 364.49l.1.293M321.838 364.49l.29.08M320.52 363.317l-1.56-1.344M316.555 360.318l-2.656-1.418-.21-.053-.284-.012-.545.028M316.322 360.766l2.241 1.684M316.322 360.766l.233-.448M318.96 361.973l-.89-.67-1.515-.985M316.752 352.227l6.239.097M315.785 348.914l.227.925.324 1.198.416 1.19M317.724 354.728l-.473-1.316-.5-1.185M294.52 330.457l5.21 1.554M292.317 338.258l1.069-3.95 1.134-3.85M297.906 321.545l-4.299-1.795M297.906 321.545l-1.332 3.204M303.464 322.441l-.66.19-.385.012-.634-.04-3.88-1.058M303.464 322.441l.08 4.398M309.596 276.176l-.571.675-.685.748-.502.651-2.231 3.662-.446.828-.28.76-1.87 5.72-.309.88-.214.482-2.366 4.334-1.033 1.796-.376.631-.2.515-.166.712-.635 4.035-.093.502.004.334.077.273 1.402 3.795.145.382.036.43-.06.43-1.122 4.426-1.158 3.022-.316.474-.43.515-.85.712-.66.546-.588.599-.492.705M296.574 324.749l6.946 3.151M296.574 324.749l-.61 1.57M303.52 327.9l.025-1.061M309.252 329.835l-.871-.254-1.864-.595-.83-.266-.818-.301-1.349-.519M317.703 332.795l-4.409-1.333M317.703 332.795l.619-1.588M317.703 332.795l-.576 3.097M310.038 327.94l-1.252-.454-1.077-.237-1.207-.185-2.957-.225M318.322 331.207l-4.473-1.57M318.322 331.207l.647-1.988M310.038 327.94l-.786 1.895M313.849 329.636l-2.3-1.06-1.511-.635M309.252 329.835l4.042 1.627M307.718 334.304l.282-1.102.32-.965.555-1.435.377-.967M307.718 334.304l-.884 4.006M310.188 336.333l-1.11-1.254-.624-.514-.736-.261M306.834 338.31l2.037-1.321M305.177 338.56l.547-.024.579-.069.53-.157M315.785 348.914l-4.381-.08M315.785 348.914l3 .203M311.404 348.835l-3.59-.242M311.404 348.835l.732-3.869M299.324 347.97l-4.202.05M299.324 347.97l3.016.249M298.72 351.27l.094-.792.117-.687.211-1.025.182-.796M295.122 348.02l-1.428-.114-1.52-.105-1.327-.169-1.244-.2M295.122 348.02l1.264-4.946M295.122 348.02l-.731 3.11M296.386 343.074l1.639-4.735M290.984 342.696l3.002.093 2.4.285M299.73 332.011l.64-2.012M298.025 338.339l.051-.655.081-.683.397-1.391 1.176-3.599M295.965 326.318l4.874 1.944.028.126.006.098-.01.11-.492 1.403M291.571 340.699l-.587 1.997M291.571 340.699l.527-1.632M291.571 340.699l-2.502-.645M289.069 340.054l.46-1.463M292.317 338.258l-.219.809M294.369 338.47l-.497.038-.409-.028-1.146-.222M298.025 338.339l-.847-.169-.75-.076-.68.028-.616.109-.763.238" clip-path="url(#pf7ddb4bcd1)" style="fill:none;stroke:#000"/><path d="m292.098 339.067 2 .425.27-1.023M301.661 339.497l-.429-.02-.563-.08-.71-.218-.789-.346-1.145-.494M305.177 338.56l-.312.173-.21.189-.316.487-.256.277-.291.188-.32.073-.345-.044-.514-.197-.445-.137-.507-.072M305.177 338.56l-1.605 5.344M310.188 336.333l2.29 2.913M310.188 336.333l-1.317.656M313.294 331.462l-.304.86-.308.795-.704 1.311-.669 1.097-.247.263-.275.212-.6.333M308.546 344.553l3.59.413M308.546 344.553l-1.881-.245M308.546 344.553l-.731 4.04M307.815 348.593l-2.292-.157M284.18 348.197l-2.157-.607M279.709 338.956l-2.844-.66M276.865 338.295l-1.196-7.613-.008-.13.01-.164.064-.128.14-.087.149-.008 3.502.541.142.068.082.1.033.101-.074 7.981M279.709 338.956l-.244 1.055M281.202 340.502l-.364-.466-.397-.447-.34-.33-.392-.303M276.865 338.295l.08 1.17M276.945 339.465l2.52.546M272.745 339.067l1.49.072 1.33.12 1.38.206M279.465 340.01l1.737.492M275.008 349.956l-.011-.551-.186-.716-.178-.699.016-.755.26-.87.363-.714 3.014-3.875.559-.724.369-.559.251-.482M272.745 339.067h-1.207M267.147 336.618l.656-1.772.268-.394.3-.128.461.072 1.102.474 2.025.893.243.2.178.234.13.466.138.884.097 1.52M270.794 338.984l.744.083M270.794 338.984l-3.647-2.366M267.074 338.61l1.515.147 2.205.227M267.147 336.618l-.073 1.992M264.774 335.08l.765.409 1.608 1.13M260.488 338.729l.722-.57.3-.238.372-.422.307-.463.32-.462.47-.49.555-.479.612-.385.344-.109.284-.032M266.402 342.058l.956-.154 1.77-.225.547-.209.377-.29.32-.413.275-.374.354-.593.286-.434.251-.3M260.784 342.547l2.426-.237M260.784 342.547l-.296-3.818M257.592 342.491l1.349.109 1.025.044.818-.097M254.793 342.242l.257-3.296M254.793 342.242l2.799.249M197.767 349.019l8.118-6.183 3.11-1.543 17.887-5.21 1.389-.031 1.593.418 3.223 1.346 3.277 1.303 1.134.43.989.394 1.214.37 1.45.362 1.661.345 2.358.297 4.61.435 5.013.49M260.488 338.729l-.402.265-.369.14-.458.067-.883-.02-.217.038-.12.067-.098.102-.349 3.103M263.846 342.243l-.312-3.426M263.846 342.243l1.986-.09M263.846 342.243l-.636.067M266.402 342.058l-.57.095" clip-path="url(#pf7ddb4bcd1)" style="fill:none;stroke:#000"/><path d="m267.074 338.61-.712.002-.183.052-.096.076.32 3.318M263.21 342.31l-.137 2.416M265.832 342.153l-.864 2.951M264.968 345.104l-1.895-.378M267.647 357.672l-1.513-3.709-1.627-3.666-.32-.782-.095-.759.071-.64.263-1.308.542-1.704M265.738 358.609l-.462-1.72-.446-1.206-.672-1.72-.786-1.552-.494-.98-.292-.74-.307-.892-.101-.734.095-.784.346-1.384.283-1.287.17-.884" clip-path="url(#pf7ddb4bcd1)" style="fill:none;stroke:#000"/><path d="m258.779 347.886.669-2.883.069-.108.133-.098.148-.044 1.306-.047 1.114-.02.855.04M298.247 363.497l13.131 7.493 4.852 2.476 1.135.426 1.215.418 4.043 1.487.712.201.705.016.389-.072 1.284-.607.713-.499.75-.563M327.176 374.273l-3.675-4.449M349.02 401.357l2.95-3.704 2.677-3.785M354.276 379.189l1.793.256M354.276 379.189l-.315 2.428M353.28 385.503l.681-3.886M330.202 375.08l3.205-2.482M330.202 375.08l-.315.274M330.202 375.08l-4.921-6.605M334.319 360.904l1.872-2.881M334.319 360.904l-5.72-1.976M344.892 365.17l-4.553-1.367-6.02-2.9M328.6 358.928l-2.605-.691M328.6 358.928l.597-2.944M317.762 356.029l-.038-1.301M317.762 356.029l-7.309-1.912M317.762 356.029l8.233 2.208M317.724 354.728l5.233.212M329.197 355.984l1.702.238M329.197 355.984l-6.24-1.044M322.957 354.94l.034-2.616M322.991 352.324l7.708.2M336.706 349.433l.057 3.25M336.706 349.433l-6.072-.031M336.706 349.433l5.52.155M336.702 355.352l.061-2.669M336.702 355.352l6.922.15M336.191 358.023l.371-.877.14-1.794M336.763 352.683l6.292.06.099.032.085.063.044.086.341 2.579M336.191 358.023l6.845.162.351-.018.107-.056.061-.088.077-.23.073-.47.02-.558-.101-1.262M330.9 356.222l.61.072.81.177.914.346.884.426.971.386 1.102.394M318.784 349.117l11.259.27M318.784 349.117l-.059-2.97M318.725 346.147l-.864-5.621M318.725 346.147l3.112.114M329.29 346.68l.866.024M321.837 346.261l4.455.274 2.997.144M332.222 341.615l-1.58 2.62-.818 1.36-.535 1.084M317.024 339.834l-1.875-2.535M317.86 340.526l-.335-.207-.268-.24-.233-.245M317.127 335.892l.846-.54.103.003.113.058.458.454.022.088-.02.121-1.625 3.758M317.86 340.526l5.046 1.836M322.906 342.362l.705-1.159M321.837 346.261l.178-1.261.243-.845.648-1.793M312.478 339.246l2.671-1.947M479.496 575.414l24.419-4.921 106.706-21.926 10.026-2.272 10.286-3.044M249.33 367.91l-5.618 1.086-3.678.643-2.99.33-1.652.08-1.02.04-.81-.136-.762-.386-1.459-.885-2.122-1.261-1.774-1.11-1.118-.523-.989-.273-1.717-.314-2.406-.385-2.843-.563-1.985-.362-1.247-.377-1.005-.531-1.563-.997-1.483-.804-1.466-.756-.883-.586-1.725-1.656-1.386-1.375-1.134-1.294-1.094-1.15-1.968-1.97-2.353-2.239-1.313-1.137M157.091 344.555l4.017 1.117 13.653 4.49 11.685.826 1.057.005 1.267-.176 5.184-.61 1.663-.335 1.543-.39.607-.463M143.613 340.173l2.818.803M143.613 340.173l-3.904-1.033M143.613 340.173l-.573 2.806M139.907 335.09l2.643.868.341.233.94 1.93.066.489-.043.53-.241 1.033M139.71 339.14l-2.425-.642-3.528-.955-5.046-1.485-1.475-.36M147.822 337.636l.777.354M161.29 341.582l-3.33-.976M143.04 342.98l2.69.7M143.04 342.98l-.965 4.729M147.486 344.138l-1.756-.458M147.486 344.138l.789-2.637M144.56 349.16l1.678-1.163.118-.134.085-.23 1.045-3.495M156.586 340.204l.322-1.295.128-.36.235-.255 1.881-.997.963-.573 2.715-.764M156.586 340.204l1.373.402M156.586 340.204l-1.896-.556M149.301 338.069l5.389 1.58M149.301 338.069l-.702-.08M149.301 338.069l-1.026 3.432M148.275 341.501l-1.844-.525M153.028 343.195l-4.265-1.558-.488-.136M148.161 328.728l.332.49 1.54 2.606.113.361-.036.595-1.51 5.21M153.621 343.412l-.593-.217M153.621 343.412l1.069-3.764M157.091 344.555l-1.44-.401-2.03-.742M141.695 351.143l-.373.258M141.695 351.143l2.864-1.983M145.164 350.015l-.578.263-2.891.865M141.322 351.4l.753-3.691M127.968 362.658l3.027-5.704 1.235-.993 1.326-.589 2.934-1.091 3.3-1.82 1.532-1.06M142.075 347.709l2.484 1.45M144.56 349.16l.604.855M153.028 343.195l-3.732 4.191-1.41 1.296-1.636.84-1.086.493M139.71 339.14l.113-2.328M139.907 335.09l-.084 1.722" clip-path="url(#pf7ddb4bcd1)" style="fill:none;stroke:#000"/><path d="m134.588 328.073.357.346.64 1.483.604.875 1.615 1.447.448.446 1.134.658.384.381.171.68-.034.702M139.823 336.812l2.073.61M157.96 340.606l-.869 3.949M146.43 340.976l-.7 2.704M190.984 129.765l-1.534-.207-3.588-.863-10.82-4.37-6.905-1.565-7.503.107-11.363-1.996-2.012-1.241-4.466-4.593M142.892 167.79l.579-.018 1.968-.225.3-.065.194-.273.843-2.05.389-.651.437-.257 1.694-.551 4.463-1.7.25-.244.084-.245-.012-.193-2.137-5.477-.137-1.495.13-1.415.056-1.415-.154-.691-.567-1.158-2.114-3.763-.454-.909-.235-1.53.02-.447.43-.973.077-.426-.09-.41-2.187-1.954-.542-.482-.251-.53-2.196-4.913-3.127-6.464-.296-.96-.206-3.076.097-1.334 1.15-4.085.552-1.415.893-.959M330.7 352.525l1.15.03M330.7 352.525l-.066-3.123M256.454 304.249l-.567-.049-.47.025-.64.12-.696.402-1.645 1.302-1.515 1.23-1.223.829-1.02.699-.649.53-.43.53-.078.19-.067.284-.125 1.176M305.724 273.756l-1.693 1.857M305.724 273.756l3.872 2.42M298.87 264.237l8.895 5.757.227.265.025.353-.147.459-2.146 2.685" clip-path="url(#pf7ddb4bcd1)" style="fill:none;stroke:#000"/><path d="m298.87 264.237-.502.523-1.45 1.688-.028.238.068.24 1.062 1.066.964.956 1.215 1.013 2.341 1.68 3.184 2.115M295.347 262.05l3.523 2.187M336.775 203.572l-2.16 1.463-1.153.732-1.491 1.173-1.953 1.548-1.328 1.154-.997 1.125-.42.78-.207.687-.073.716.028 1.664.101 1.834.057.86.053.7-.077.799-.183.965-.222.912-.77 2.748-.117.422-.183.433-2.029 3.227-1.24 2.014-.449.984-.932 2.83-.603 2.392-.029.466.025.358.13.446.178.575.32 1.125.226.998.26 1.382.117.462.207.72.753 2.227.304.707.223.587.105.599.012.776-.053.868-.085.989-.15 1.5-.093.715-.133.64-.251.738-.284.7-.194.72-.39 1.535-.129.446-3.082 7.991-.563 1.447-.794 1.636-.401.953-.296.539-.842.96-1.499 1.697-1.855 2.014-2.568 2.926M362.391 373.154l1.287.07.567-.023.575-.21.696-.402.568-.37.558-.168.6-.129.457.004.491.077.948.28.7.162 1.076.071 2.89-.288.388-.161.349-.33.186-.28.106-.37" clip-path="url(#pf7ddb4bcd1)" style="fill:none;stroke:#000"/><path d="m355.393 373.242.394-.412.555-.397.58-.326.733-.152 10.179-.394 3.572-.017 1.604-.007 1.19-.194.633-.255M385.988 355.695l-.203.72-.166.49-.284.487-.344.425-.51.471-1.52.957-.898.595-.34.446-.207.555-.036.413.105.483.15.546.085.531.012.603.008.515-.179.747-.445.844-.38.78-.276 1.101-.3 1.037-.405.62-.55.37-.762.272-.883.21-.908.273-1.207.498-.712.404" clip-path="url(#pf7ddb4bcd1)" style="fill:none;stroke:#000"/><path d="m354.637 363.598 2.884-.052 1.41.168.575.08.615.009 1.418-.209 3.427-.732 1.41-.354 1.441-.546 1.774-.756 1.848-.795 2.235-.756 4.926-1.632 4.77-1.608 1.419-.458 1.199-.262M413.782 357.372l-.85-.282-1.07-.539-1.086-.538-.948-.57-.955-.362-.98-.274-.81-.048-.892.04-1.288.177-4.804.771-1.782.218-1.312.088-6.108-.394-2.909-.088h-1.069l-.931.124M463.294 344.83l-7.201 2.951-8.45 3.53-4.317 1.414-1.045.273-1.07.234-4.86.675-17.36 2.773-4.594.651-.615.04M499.74 289.509l-3.39 3.943-1.665 1.938-.834.824-1.053.816-6.995 4.884-.36.3-.199.226-.263.587-.9 2.371-.89 2.195-.649 1.403-.907 1.636-2.852 4.414-13.67 21.283-.518.961-.256.888-.069.864.15 2.67-.022 1.129-.136.639-.263.514-.705.836" clip-path="url(#pf7ddb4bcd1)" style="fill:none;stroke:#000"/><path d="m335.884 331.309 1.907-1.455.514-.49.401-.447.27-.386.194-.387.147-.403.256-.602.319-.62.593-.846 1.58-1.897.55-.603 2.738-2.275 1.07-.619 1.19-.515.948-.385 1.126-.708.916-.603.883-.675.688-.7 1.33-1.72.922-.892.68-.555.637-.334 1.017-.345 1.964-.47 6.562-1.275 13.646-2.309.858-.255.726-.266.55-.172.462-.12.55-.021.706.064.92-.092 19.393-3.481 1.187-.346.753-.285.632-.237.696-.197.685-.053.944-.12 2.288-.482 2.447-.47 9.834-1.508 5.67-.555.993-.245 4.994-1.335 6.173-1.652 21.07-5.201.673-.128.616-.07 4.087.13 1.101.004.377-.024.328-.069.296-.1 2.26-1.025.593-.211.438-.12 1.278-.244 1.55-.185 3.82-.426.685.012.754.133.903.196.77.117 2.081.077 1.875.012 5.213-.233 8.58-.101" clip-path="url(#pf7ddb4bcd1)" style="fill:none;stroke:#000"/><path d="m607.685 254.92-6.481-1.03-5.25-.385-4.99.386-10.304 1.93-6.934 2.829-4.334 1.03-1.207.168-1.353.048-4.683-.012-2.563.197-4.448.406-2.191.374-1.28.273-3.507 1.041-1.79.543-1.095.422-1.065.55-6.221 3.22-.969.56-.66.566-.554.703-1.313 1.749-1.142 1.411-.753.66-.912.703-.992.695-1.143.631-1.008.45-1.025.398-2.288.656-.71.337-.481.37-.385.454-.336.571-.588.892-.4.386-.442.258-5.723 2.456-13.07 5.663-1.67.768-.85.55-.835.712M607.685 254.92l1.425 4.438-2.462 4.887-1.556 2.38M356.144 410.662l-.357.201-.554.249-.515.109-.486-.008-1.292-.35-.466-.032-.421.064-.312.153-.385.321-2.997 2.79-1.49 1.576-2.01 2.25-2.624 1.801-1.896.997-1.928.836-2.592.965-2.398.59M365.095 422.504l-1.928-2.533-4.337-5.838-2.686-3.471M225.133 201.348l8.339 10.079 5 6.367 1.165 1.246 1.263 1.206 1.385 1.061 1.078.635 3.225 1.391 1.433.748 3.232 2.194 1.272.981.567.611.486.668.503.884.478.619.607.659 1.207 1.005.762.62.575.57.576.59.695.97.608.876.404.74.415 1.254.21 1.093.058 1.291-.099 1.306-.218 1.173" clip-path="url(#pf7ddb4bcd1)" style="fill:none;stroke:#000"/><path d="m289.158 182.172-3.03-.178-1.377-.008-.568.12-.235.233-.534 3.353-.292 1.03-.413.843-.656 1.222-.518 1.078-.357 1.246-1.843 8.767-1.13 6.299-.073.62v.646l.106.872.133 1.709-.057.59-.182.563-.575 1.295-1.247 2.66-1.434 3.224-.51 1.665-.244 1.198.04.675.236 1.52.373 1.728-.033 5.53-.13.443-.405.201-3.605-.466-.445.257-.235.378-.664 4.116-.187 1.407-.113 4.671-.057.78-.308.37-.405.12-.567-.016-4.56-1.294-.721-.08-.81.064-.624.225-.543.337M289.158 182.172l1.036-1.665-.842-10.355" clip-path="url(#pf7ddb4bcd1)" style="fill:none;stroke:#000"/><path d="m336.775 203.572-1.33-.587-1.595-.675-1.507-.418-1.255-.185-1.84-.097-1.271-.072-1.483-.426-1.271-.466-9.235-4.897-7.073-4.244-1.652-1.053-2.657-1.978-2.504-2.083-.744-.514-.722-.514-3.67-1.512-4.171-1.165-1.953-.379-1.684-.135M371.655 118.412l.23 6.643-.193 10.805-.649 7.012-.907 5.692-.68 6.69-.81 4.212-1.091 4.851-3.545 6.22-4.602 5.339-.453 2.315-.357 3.433-1.11 1.584-.481.848-.466 1.045-.68 1.295-.697 1.105-.551.776-.64.66-1.03.896-.914.642-.96.575-2.876 1.468-.83.466-.64.418-.685.522-1.074 1.142-.804 1.1-1.103 1.562-.972 1.217-1.402 1.472-2.69 2.218-1.218.937M371.655 118.412l.568-1.614 5.69 1.696 46.142 15.18 2.82 1.061 3.337 1.03 11.406 4.116 10.142 3.409 1.264.707.842.837 6.222 9.776 1.65 1.392.973 2.058 14.387 22.447.972 2.315.243 2.322M474.887 193.804l2.47-6.014.956-2.646M622.234 137.597v.29l-.227.579-1.555 2.572-4.213 6.143-6.091 2.445-3.209 1.575-3.24 2.02-1.167.964-6.383 4.091-5.314 3.441-6.448 1.576-1.75.708-1.75.997-.486.379-.389.618-1.263 2.926-.52.894-.68.65-.874.97-2.95 4.183-2.527 1.03-5.314.707-4.018 1.544-2.657.257-4.99.9-3.76.9-2.721-.45-1.166-1.221-2.01-.837-3.758-.257-2.398.836-6.092.386-1.75-.064-1.75-.965-2.332-.321-2.973.118M474.887 193.804l1.527-.957.761-.518.956-.535 1.179-.515 1.438-.502 1.284-.325 2.082-.266 1.535-.156 1.576-.032.688-.049.741-.092 4.05-1.042 1.192-.337 1.214-.644 1.965-1 .903-.386.669-.165.919-.084 3.245-.06.968-.049.826-.177.798-.257 4.93-1.805 3.381-1.48 6.481-2.25 3.314-1.94" clip-path="url(#pf7ddb4bcd1)" style="fill:none;stroke:#000"/><path d="m591.094 103.926-5.023 7.744-1.458 1.994-2.495 3.763-1.328 1.742-.972.933-3.338 2.702-3.37 2.926-.972.959-2.01 2.315-2.04 2.027-4.472 4.116-2.754 2.386-.681.7-1.361 1.094-2.753 2.483-.26.862-.584 5.853-.388 1.261-4.245 7.043-3.37 4.631-3.013 5.467-1.459 3.997-2.787 1.864-5.638.708-7.647 2.83-3.167 1.855M354.633 363.708l-.782 3.93-.316 1.398-.42 1.536M355.147 371.36l-.923-.354-1.11-.434M355.147 371.36l-.583 2.106M354.633 363.708l.152.097.202.203.187.251.379.706.47.912.218.522.057.395-.057.45-.137.634-.957 3.482M355.393 373.242l-.83.224M317.127 335.892l-1.978 1.407M314.343 327.579l-.494 2.057M313.294 331.462l.555-1.826M353.961 381.617l-3.302-.506M356.069 379.445l1.472.215M354.637 363.598l-.004.11M344.892 365.17l.931-.186.867-.281.891-.362.834-.24 1.912-.137 4.31-.366M322.128 364.57l-.19.213M325.28 368.475l-1.79-2.405-1.362-1.5M321.938 364.783l1.567 1.85 1.5 2.06M303.605 356.15l-5.617-1.363M303.605 356.15l.357-4.189M303.962 351.961l-4.83-.142M293.173 353.509l.433.115M293.173 353.509l-1.86-.477M294.39 351.13l-.784 2.494M298.478 351.78l-.377-.011-.822-.073-1.337-.197-.908-.201-.643-.169M322.319 367.923l-.827-.33-.77-.285-.81-.26M323.894 369.595l-.822-1.023-.434-.432-.32-.217M307.997 364.212l2.546.692M307.997 364.212l.089-.377M307.997 364.212l-2.582-.727M308.086 363.835l-2.585-.687M308.086 363.835l2.563.74M291.79 359.3l3.755 1.158M291.79 359.3l-.84 2.707M285.35 361.094l2.163.402 3.437.51M296.033 360.84l-.492 1.676-.059.03-.077.015-4.455-.554M270.226 355.804l1.101-1.021.997-.965.729-.627 1.037-1.19.405-.675.369-.784.144-.586M249.33 367.91l4.305-.836.778-.224.672-.218 1.086-.69 2.928-2.646M261.453 360.643l-.519.523-.64.844-.77.884-.425.402" clip-path="url(#pf7ddb4bcd1)" style="fill:none;stroke:#000"/><path d="m264.186 365.543-.984-.112-1.07-.181-.728-.213-1.114-.426-.567-.278-.275-.27-.163-.357-.186-.41M263.98 362.678l-.039.375-.002.476.247 2.014M261.453 360.643l.291.5.357.594.291.361.292.25.68.265.616.065M270.226 355.804l-.38.683-.37.647-.409.776-.344.736-.308.45-.405.526-.53.515-1.167.715-1.442.804-.6.49-.291.532M286.245 357.817l-.895 3.277M288.12 335.65l-.323 2.58M287.658 338.994l.139-.763M287.797 338.23l1.733.361M265.738 358.609l1.909-.937M261.453 360.643l.392-.293 1.235-.631 2.163-.868.495-.242M270.226 355.804l-1.345 1.113-.697.455-.537.3M115.445 462.341l3.421 13.726 8.372 2.312 16.744-6.357 3.555.132 2.256.055 4.211-1.98 2.367-1.597 1.596-1.844 3.33-3.385 4.156-3.385 3.11-2.422 2.504-3 4.898-3.302 5.78-3.275 5.449-3.963.99-1.293 2.89-4.844 2.092-1.981 4.128-3.358 2.972-2.34 3.963-2.889 7.155-5.449 1.624-1.403 1.624-2.064.853-1.597 1.403-4.54 1.459-2.257.578-1.404.99-4.568.276-1.844 1.486-2.835 2.366-2.944 8.587-7.293 1.128-.963 2.752-.908 2.174-1.294 5.697-5.146 1.156-1.046 3.302-9.385.491-2.502M332.222 341.615l-8.611-.412M335.884 331.309l.518 9.655-.049.579-.138.313-.226.112-.494.025-3.273-.378M335.884 331.309l-11.301 8.819-.673.651-.3.424M330.156 346.704l10.588-.169M330.156 346.704l-.113 2.683M330.634 349.402l-.591-.015M336.763 352.683l-4.912-.128M303.572 343.904l3.093.404M303.572 343.904l-1.232 4.315M302.34 348.219l3.183.217M308.87 336.989l-2.205 7.319M306.665 344.308l-1.142 4.128M298.713 353.01l.419-1.191M388.29 578.159l.573-.587M389.507 577.564l.898.598M393.785 460.057l-1.28-1.709-4.026-5.243-2.208-2.803-2.635-3.381-3.19-4.248-6.914-9.084-8.437-11.085M356.743 428.275l.94.258.725.084.563.004.737-.088.823-.133.651-.097.418-.128.251-.17.202-.272.13-.422.11-.768.056-.503.065-.454.093-.377.13-.427.239-.474.409-.422 1.81-1.382M323.894 369.595l-.393.23M319.803 367.422l.109-.373M319.803 367.422l-4.45-1.21M319.912 367.049l-4.483-1.212M315.352 366.213l.077-.376M315.352 366.213l-4.809-1.309M315.429 365.837l-4.78-1.263M310.543 364.904l.106-.33M305.415 363.485l.086-.337M305.415 363.485l-5.085-1.43M305.5 363.148l-5.07-1.425M300.33 362.055l.1-.332M296.033 360.84l.738.213 3.56 1.002M295.545 360.458l.488.383M296.578 358.69l.086-.539M396.587 523.313l-.825 5.79M363.783 488.726l4.29.583.356.065.36.112.39.165.4.334.526.643.56.788.461.59.462.475.45.398.385.277.506.237.433.21.405.252.312.254.421.41.608.586 1.005.872.627.656.365.554.45.656.465.534.83.796 2.074 1.692.288.318.292.337.295.358.442.462.441.354 2.609 2.062.96.647.689.26.66.206.429.173.3.165.206.185.122.321.105.462.105.571.191.611.307.523.26.338.575.502.628.385.693.302.834.41.745.47.514.498.494.648.45.735.66 1.186.859 1.748.187.426.129.354.126.462.04.535-.13 4.69.03.358.128.386" clip-path="url(#pf7ddb4bcd1)" style="fill:none;stroke:#000"/><path d="m393.785 460.057 1.79 2.447.458.604.575.827.611.965.774 1.346.603 1.134 1.012 2.144.71 1.767.567 1.473.583 1.594.442 1.49.227 1.014.113.486.157 1.073.025.8-.036.792-.093 1.354-.081.945-1.103 5.736-.27 2.732-.12 1.842-.158 1.648-.128 1.193-.844 5.996-.066.441-.38 2.762-1.179 8.81-.29 2.119-.266 1.657-.477 3.6-.354 2.465M330.9 356.222l.171-1.648.15-.499.187-.393.243-.523.2-.604M325.004 368.693l3.848 5.287 1.035 1.374M325.004 368.693l.277-.218M318.563 362.45l.397-.477M298.478 351.78l.242-.51M357.541 379.66l.166-.828.102-.37.138-.273.202-.157.344-.157.462-.157.514-.14.551-.217.571-.302.498-.257.333-.221.198-.277.178-.459.593-2.691M324.471 361.25l1.524-3.013M345.118 382.542l-1.263 1.616-.908 1.165-.575.651M393.785 460.057l2.681.755 1.163.185 1.401.45.62.057 1.782-.407.729.065 4.038.924 1.175.523 5.152 3.384 3.37 1.897 4.156 1.689 1.272.675 1.765 1.117 3.84 3.392.413.121.835-.129 1.442-.948 1.685-1.76 1.604-1.874.996-1.415.252-.224.389-.17 3.523-.136 2.374.265 1.02.032 4.886-.474 1.304-.313 1.482-.499.494.064.672.234 3.942 1.8.174.338.073.611-.009 1.118.187.972.34.579.624.506.567.217.923.057 5.03-1.881 1.451-.322 1.945-.266 1.903-1.1.6-.443.42-.57 1.362-2.903.64-.803.704-.595 1.127-.708 3.442-1.069 3.249-1.672.397-.482.745-2.267.73-1.664.736-1.327.892-1.157 2.154-1.865 1.58-1.986.348-.434.381-.105.316.065.802.45 2.406 1.543.51.234.69.12 7.516-.184 24.1-.467 4.967.088 7.817.732 8.044.563 8.23.79.092.104.314.834 2.025 7.496.466.43M393.368 546.522l.804.117M395.762 529.103l-.122.853-2.272 16.566" clip-path="url(#pf7ddb4bcd1)" style="fill:none;stroke:#000"/><path d="m408.654 538.11-.478-.476-.713-9.164-.421-.997-.778-.032h-.842l-6.481 1.768-1.685.29-1.494-.396M115.445 462.341l16.889-14.81 1.965-12.136-1.528-6.285-.946-5.924-3.64.29-3.495-4.696-.51-2.457 1.238-3.034.218-1.878.801-2.89-2.548-.94-2.766-.432-1.456-3.107-2.767-1.3-2.038-3.54.8-4.48 1.384-2.166 2.694-3.468.8-3.54 2.767-3.685 4.368-8.525.455-3.864-.073-1.806-.089-5.01M147.279 196.184l-.333-.836-.056-.459.226-.98.94-3.184.24-.985.202-1.033.109-2.316.454-5.032.259-3.538-.073-1.198-.316-1.423-.802-2.026-.64-1.141-1.304-1.672-2.609-1.994-.684-.577" clip-path="url(#pf7ddb4bcd1)" style="fill:none;stroke:#000"/><path d="m132.43 162.996 3.203.877 3.318.973 1 .574.936.68 2.005 1.69M206.262 147.921l-1.8.483-.307.266-.263.603-.551 1.153-.328.302-.207.024-1.077-.345-.434-.081h-.883l-3.24.499-.656-.073-.84-.235-1.518-.593-3.54-1.616-.81-.555-.891-.82-3.301-3.561-.36-.298-.467-.085-2.98-.1-3.853-.321-.461.062-.271.117-1.007.675-.333.15-.415.025-1.182-.274-3.962-.997-.218-.257-.017-.361 1.005-3.056.461-.892 1.564-1.624 1.248-1.03 1.296-.498 2.47-.506 5.04-.748 4.18-1.133 2.025-1.045 1.605-1.41M169.815 184.43l.672.265 1.823 1.375 1.839 1.793.413.619.373 1.166 1.223 2.444.777 1.028 2.707 2.533 3.896 4.213 3.374 2.396 1.802 1.35.656.241 1.37.153 4.536.12 5.306-.41 2.795-.53 3.151-.442 8.474-.466 5.444-.498 4.687-.432M170.026 182.758l-.211 1.672M168.28 184.084l1.04-.675.378-.281.328-.37M169.815 184.43l-1.535-.346M147.279 196.184l3.904 1.84.85.274.511.025 2.057-.58 2.909-.446.454.105.21.253.016.273-.08.21-.973 1.708-.13.514.05.475.315.462.692.25.337-.037.373-.281.64-.99 1.587-2.737.875-1.173 1.937-1.407.704-.563.235-.378.219-.723.405-1.673.162-1.238.178-1.777.194-.804 1.345-2.468 1.025-1.214M134.588 328.073l4.63.671 3.856.314 5.087-.33M100.73 317.062l4.683-.007 3.022.073.753.128 3.418 1.182 3.014.539 5.67 1.158 2.01.53 1.409.659 1.799 1.56 3.758 3.617 1.005.756.757.366 2.075.297.485.153M398.204 572.028l.713 2.02-.26 3.516M479.496 575.414l-31.347-17.168-.997-3.086-6.378-.91-28.463-15.19-3.657-.95M479.496 575.414l-.576.131M622.234 137.597l1.458-1.415 1.912.122 2.592 1.994.908.482.68-.096 4.213-2.09 2.203-1.319.713-.29.356-.031M622.234 137.597l-2.333-.29-2.106-2.38-.26-.198-4.634-5.628-.68-.836-1.199-1.19-2.624-.605-1.394-.135-2.236-.514-2.073-.83-1.952-2.578-1.32.23-.909-2.097-4.892-12.343-2.074-4.155-.454-.122M384.28 614.767l-1.018 6.159-.53 1.741M378.689 614.74l-.422 3.214-.55 3.794.149.828 4.866.091M384.28 614.767l-5.591-.028M374.366 614.717l4.323.022M395.602 546.847l-1.43-.208M394.172 546.639l.47-1.143.881-.798 2.614-.055 1.239.248 1.568-.055.621.161-1.101.771-1.005.965-1.328.483-2.53-.369" clip-path="url(#pf7ddb4bcd1)" style="fill:none;stroke:#000"/><path d="m403.559 549.817-6.798.165-.357-1.568-.802-1.567" clip-path="url(#pf7ddb4bcd1)" style="fill:none;stroke:#000"/></g><g id="PatchCollection_1"><path d="m276.162 370.844-2.041-.096-1.684-.803.193-1.48-.648-1.35-2.657-1.705-2.593.065-1.808-.605-.2-1.196.13-.965 2.08-1.312 1.613-1.55 1.497-3.112 1.485-1.615 3.045-2.99 1.657-1.817 1.046.15 1.307.215-.056.937.39 1.11.469.755-.357 1.753-.68 2.283-.543-.048-.543.08-.09.53.138.531.26.932.38.507.397.474.342.242.421.257.583.33.615.216.746.226.875.145 2.771.192 3.174.258 3.038.297 3.054.281 2.787.242 1.036.466 9.712 5.601.755 1.328 1.717 1.11 2.648 1.421 2.608 1.093 1.63.444.761.515 2.383 1.399.906.675-.905.949.128 1.446 1.393 1.319 2.722 2.765.585 2.22 3.888 4.694 3.273 2.444 2.43 4.148 3.014 3.891 2.884 1.704 2.786 2.283 1.102 1.672 1.717 1.222.551 1.608-.94.579 1.361 4.02-1.879-.226-1.653-.868-1.199.675-.971 1.351-.227-4.438-2.236-3.473-4.342-1.704-2.333-.032-2.787-.418-3.564-4.18-1.556-1.415-2.69.514-1.782 1.994-1.522 2.83-1.394 1.704-.518-2.476-1.037-.418-1.523-.868 2.657-1.48 3.532-3.247 1.944-3.73-.615-2.444-1.62-.933-1.363-1.415-2.527-2.958-2.464-2.99-2.462-1.48-2.073-1.093-2.333-.482-2.01.579-2.526 2.83-1.848.9-1.425 2.09-1.33.836-.42-1.19.939-2.187-.032-2.315-1.07-1.093-3.791-1.222-.873-1.125.097-1.48.679-1.8-.519-1.319-1.523-.964-1.944-.29-1.847.193-2.495-1.447-2.56-.772-2.754-.45-1.556.515zM322.5 255.435l1.07 1.672 1.329.836 1.75 2.026 1.944.45 3.305.482 2.3-.74 1.459-.064 1.425.226.907-.804-.874-1.19-.454-1.544.421-1.126-.356-.932-1.07-.514-.712.192-3.5-.836-1.976-1.029-1.523-.032-2.107-.579-1.458-.096-1.004.772-.681 1.028zM187.607 315.932l-.294.52-.13 1.48-.68 1.367-1.669 1.64-1.166 2.25-.73.66-.567.353-.194.724.292.579 1.847-.097 1.879 1.03 2.43 1.768.68 1.35-.177 2.251-.551 1.158-.924.98-1.053.515-1.652.049-1.345.627-.956.305-1.118.74-2.025.787-.988.065-1.005.482-.26.82.228.868.518 1.27.875.402 1.086.033.631.803-.313 1.428.832.695.972-.129 1.507.097.89.851 1.183.081 1.2-1.19 1.458-.514 2.203-.226 2.398.097 2.074-.547 1.685-1.19 2.657-.868.81-1.125.064-.643h-1.199l-.259-.868-1.717-.45-1.231-1.062-.39-1.415.195-1.478.551-1.255.13-1.318-.032-1.158-.94-.771-1.231-.354-.13-.386.648-1.126.292-1.608-.617-1.254-1.49-1.061-.712-1.125.032-1.448.712-1.575-.032-1.286-.097-.643.486-.933.203-.362-.065-.297-.43-.12-.275-.154-2.525.42z" clip-path="url(#pf7ddb4bcd1)" style="fill:#00f;fill-opacity:.8"/></g><g id="PatchCollection_2"><path d="m146.19 343.065 1.3.326-.119.47-1.3-.326zM288.631 356.15l1.401.362.527-2.034-1.474-.387zM287.691 356.15l2.3.659-.493 1.688-2.277-.53zM298.397 352.47l.21.057-.186.619-.195-.073zM298.113 353.443l-.154.547.203.064.145-.546zM298.672 353.065l.437.153-.437 1.536-.51-.153zM385.409 579.953l.1 2.076 1.005-.048-.1-2.076z" clip-path="url(#pf7ddb4bcd1)" style="fill:green;fill-opacity:.8"/></g><g id="PatchCollection_3"><path d="m150.168 342.948 2.968.604-.809 3.91-2.968-.604zM158.154 341.58l1.002.159-.278 1.736-1.001-.158zM322.412 363.986l.99-.866-1.12-1.26-.99.865zM291.28 326.1l3.775 1.527 2.422-5.997-3.726-1.6zM415.457 570.264l-.629 5.068 3.38.413.629-5.068z" clip-path="url(#pf7ddb4bcd1)" style="fill:#90ee90;fill-opacity:.8"/></g><path id="PatchCollection_4" d="m272.644 340.478.489.042.196.474-.366.348-.443-.053-.166-.463z" clip-path="url(#pf7ddb4bcd1)" style="fill:#9acd32;fill-opacity:.8"/><g id="PatchCollection_5"><path d="m396.442 575.98.955-.012.014 1.129-.955.011zM153.174 337.698l1.286.354-.335 1.2-1.287-.353zM146.66 345.795l-1.173-.361-.2.643 1.173.36zM141.893 341.885l1.048.24-.155.667-1.048-.24zM146.675 341.282l1.331.346-.43 1.633-1.332-.346zM322.412 363.986l.99-.866-1.12-1.26-.99.865zM288.382 355.672l.709.143.378-1.591-.677-.191zM291.79 354.273l.898.231.16-.808-.866-.23zM271.152 341.218l-.07.52 3.13.375.07-.535zM273.164 340.23l.4-.142.348.883-.402.165zM271.788 340.658l.316.264.616-.734-.323-.272z" clip-path="url(#pf7ddb4bcd1)" style="fill:#a9a9a9;fill-opacity:.8"/><path d="m273.184 340.642.12-.046.076.198-.114.049zM272.487 340.466l.096.085-.145.174-.101-.08z" clip-path="url(#pf7ddb4bcd1)" style="fill:#a9a9a9;fill-opacity:.8"/></g></g></g><defs><clipPath id="pf7ddb4bcd1"><path d="M90 93.539h558v540.122H90z"/></clipPath></defs></svg>