<svg xmlns="http://www.w3.org/2000/svg" width="960" height="960" viewBox="0 0 720 720"><defs><style>*{stroke-linejoin:round;stroke-linecap:butt}</style></defs><g id="figure_1"><path id="patch_1" d="M0 720h720V0H0z" style="fill:#fff"/><g id="axes_1"><path id="patch_2" d="M93.183 640.8h551.634V86.4H93.183z" style="fill:#fff"/><g id="LineCollection_1"><path d="m418.324 412.992-1.243.017M420.976 413.586l-.946-.38-.817-.159-.89-.055M417.102 411l.108.151.393.598.384.637.337.606M212.361 137.234l-3.275-.655-5.287-1.129-4.425-.974-2.82 1.247-1.996.077-4.23-.7M220.716 140.825l-1.332-1.753-1.918-.818-5.105-1.02M184.024 166.648l2.86-4.557 4.659-6.232 3.798-4.284 3.368-5.103 1.997-3.271 4.268-1.909 2.702-1.324 4.685-2.734M251.455 178.77l-4.229-8.266-4.542-10.166-2.663-5.764-5.13-6.31-5.6-1.48-4.033-1.713-4.542-4.246" clip-path="url(#pf96dc5f6b8)" style="fill:none;stroke:#000"/><path d="m258.085 154.334-2.149-4.191-1.36-6.57 3.886-6.57 1.165-6.764-1.165-2.416 1.846-13.14.582-6.184-1.36-2.61.778-6.57-2.72-.386-12.531 3.092-15.932-.676-6.508 2.415v9.663l-.777 6.087-3.594 9.565 2.47 11.746M231.837 305.731l2.075-.701 2.467-1.48 2.741-1.208 2.232-2.531 6.461-5.57 3.916-1.596 3.72-6.894 5.326-6.68" clip-path="url(#pf96dc5f6b8)" style="fill:none;stroke:#000"/><path d="m247.822 253.673-.674 3.101 5.874 9.893 3.445 5.278 1.9 4.848 2.408 2.278M337.817 366.14l-4.442-5.124-1.47-1.577-2.936-6.115-.685-2.006-.43-1.636-3.192-6.99-5.404-2.843-3.113-1.442-7.382-2.317-3.7-1.13-3.133-1.635-1.644-1.46-2.565-6.485-.411-1.792-.98-3.252-3.034-2.59-6.227-7.633-3.014-3.292-5.796-8.276-5.13-7.244-4.014-4.264-4.64-4.85-3.7-3.116M231.837 305.731l-11.787-3.973-7.557-2.609-2.467-.35-2.663-1.325-6.422-1.558" clip-path="url(#pf96dc5f6b8)" style="fill:none;stroke:#000"/><path d="m218.194 386.168.089-.937.148-.927.873-3.645 1.555-5.625.664-2.82 1.386-7.83 2.467-9.424-.627-10.165.627-3.194 1.135-1.48 1.997-2.22 4.073-9.775.548-.39 1.018-.818-.392-.74-.274-2.687-.47-.857-.822-2.064-.118-1.83.51-1.754-.666-4.478-.627-5.219.549-1.558M341.216 367.76l-.97-.474-2.429-1.145M338.09 407.356l-.879-6.284-.076-.319-.074-.205-.09-.177-.142-.152-.599-.394-.901-.386-.77-.215-1.089-.343-.176-.104-.088-.123-.048-.151.024-1.414.152-2.152.304-2.621.593-3.394.465-1.889.22-1.115.297-1.072.288-.88.068-.234.034-.204.086-.845.054-.253.096-.295.098-.247.087-.319.118-1.256-.012-1.255-.04-.415-.1-.327-.581-1.354-.032-.17.008-.146.056-.206.144-.372.453-.875.537-.756.111-.218.059-.191.03-.363.012-1.46.048-.756.072-.586.12-.402.208-.367.425-.554.156-.275.072-.263.012-.362-.096-.893-.028-.494.041-1.112M341.216 367.76l2.183 1.065 2.134 2.142 3.309 1.382 2.487.39 1.624.156 1.371.37 1.488.02 2.428.428 1.43.624 1.162.892 1.206 1.155.713.793.669 1.024.224.419M363.371 405.729l-.687-1.775-.17-.88-.084-1.048-.028-1.316.104-1.231.304-1.826.23-1.33.163-1.609.012-1.518-.088-1.51-.032-1.378.196-3.724.377-6.084.016-1.407-.04-.473" clip-path="url(#pf96dc5f6b8)" style="fill:none;stroke:#000"/><path d="m391 141.315-.995 3.135-1.692 1.935.339 5.72-1.522 5.551.422 1.85.423 6.73.254 4.457-4.651 14.552-5.836 7.402-2.537 4.626-2.114 8.327-.76 13.29-3.722 9.252-2.96 2.608-4.566 10.093-.17 6.224 1.861 5.383 1.015 7.74 1.607 8.579 2.283 9.084-1.015 3.364-2.79 5.888 1.353 8.159 4.566 5.72 2.706.336 3.89 10.177.085 5.887-.423 9.168-3.72 9.084v4.794l-2.284 2.271-1.945 3.533-2.199 5.551-4.228 4.373 1.268 4.29-.676 2.523.507 6.476.87 9.173M223.078 395.104l-1.223-.12M218.194 386.168l.025.873.128 1.06.324 1.123.44 1.02.606.928.945 1.028 1.778 1.355.265.326.175.422.198.801M261.602 399.176l-2.803-.295-14.78-1.525-4.557-.486-13.316-1.48-3.068-.286M366.136 405.644l-2.765.085M366.136 405.644l5.098-.02M365.962 409.715l.035-.417.054-.55.014-.565.07-2.54M363.371 405.729l-.479.004M399.726 404.615l.175 3.932M399.726 404.615l-1.818.06M401.388 403.913l-.48-.004-.778.031-.136.054-.124.114-.144.507M403.3 404.837l-.84-.05-2.734-.172M403.006 408.466l-3.105.081M403.006 408.466l-.312 2.398M403.006 408.466l.294-3.63M405.77 408.347l-1.778.04-.986.08M364.463 410.454l-2.109-.21M364.463 410.454l1.477.153M364.17 414.05l-.006-1.098.157-1.454.142-1.044M365.94 410.607l.022-.892M365.94 410.607l16.554 1.703M382.494 412.31l-.002.646M382.494 412.31l5.397.606M411.424 413.36l-.159-2.32M411.424 413.36l.082 1.512M411.424 413.36l-1.923.095M411.424 413.36l5.657-.351M409.5 413.455l-3.437.233M409.395 415.127l.112-.18.044-.23.008-.2-.058-1.062M404.247 413.548l-.143-2.094M376.052 414.792l-1.617-.155-1.202-.124-1.362-.21-2.284-.517M364.17 414.05l3.202-.24 2.215-.024M369.798 415.62l-.087-.934-.124-.9M400.114 414.035l-.144-2.406M400.114 414.035l.099 1.752M400.114 414.035l-1.836.055M396.28 413.921l.008.322M396.28 413.921l-8.39-1.005M398.278 414.09l-1.114-.068-.883-.1M398.278 414.09l-.093-2.338M398.278 414.09l.07 1.582M364.418 416.056l-.218-1.65-.03-.355M358.541 413.852l1.001.29.649.132.994.107 2.985-.33M420.647 417.35l.392-.622.249-.47.472-1.012.457-1.06" clip-path="url(#pf96dc5f6b8)" style="fill:none;stroke:#000"/><path d="m420.976 413.586.608.29.633.31M426.607 417.334l-1.018-.82-1.201-.949-2.171-1.378M376.052 414.792l6.474.027M377.003 417.22l-.337-.153-.14-.16-.093-.218-.38-1.897M411.506 414.872l.168 3.817M413.477 415.047l-.545-.103-1.426-.072M396.308 415.375l.109 6.345M396.308 415.375l-.02-1.132M396.308 415.375l2.04.297M396.308 415.375l-2.08-.287M407.17 416.431l.803-.483.757-.399.412-.243.253-.18M410.288 418.72l-.168-2.155-.068-.327-.112-.27-.545-.841M398.347 415.672l.254 5.94M398.347 415.672l1.866.115M400.213 415.787l2.024.202M400.213 415.787l.152 5.745M391.88 415.952l-2.85.114M389.7 420.057l.689-.544.709-.733.164-.263.132-.382.485-2.183M392.756 414.238l-.513.929-.364.785M402.237 415.99l-.534 3.875M402.237 415.99l1.915.173M402.606 411.494l-.227 2.43-.142 2.065M404.152 416.163l-.18 3.726M404.152 416.163l1.946.183M406.098 416.346l1.073.085M406.098 416.346l.249 4.852M406.098 416.346l-.035-2.658M384.504 416.43l.499 5.23M384.504 416.43l2.287-.218M384.504 416.43l-1.212.115M408.037 418.784l-.056-1.633-.032-.255-.052-.16-.044-.087-.168-.096-.514-.122M383.292 416.545l.252 2.487M383.292 416.545l-.566.054M382.726 416.599l-.2-1.78M382.726 416.599l-2.176.206M380.55 416.805l.233 2.516M377.003 417.22l.422-.063 3.125-.352M377.003 417.22l.25 2.384M400.365 421.532l-1.764.08M401.481 421.47l-1.004.048-.112.014M399.775 425.808l-.014-.682.047-.75.166-.712.356-1.032.046-.304.015-.25-.026-.546M420.647 417.35l2.153.644M420.647 417.35l-4.318-1.442M419.974 419.11l.016-.382.064-.374.16-.327.433-.677M411.674 418.689l-1.386.031M411.77 420.911l-.048-.9-.048-1.322M408.037 418.784l2.251-.064M408.037 418.784l.144 2.335M425.582 418.904l-2.644-.869M425.782 424.353l-.16-3.896-.04-1.553M425.685 417.597l-.087.486-.016.82M377.254 419.604l.25 2.612M377.254 419.604l-3.23.32M370.05 419.631l-5.212.297M370.05 419.631l.044.627M370.05 419.631l-.184-2.028M374.025 419.925l-3.931.333M374.025 419.925l.082 1.087M364.838 419.928l-.169-1.966M364.838 419.928l-5.983.682M364.95 421.99l-.06-1.07-.052-.992M370.094 420.258l.055 1.262M358.855 420.61l.24 1.943M358.807 418.562l-.026 1.127.074.92M419.982 419.708l-.008-.598M419.982 419.708l.024 4.988M422.874 420.29l-.489-.032-.44-.032-.553-.095-1.41-.423M411.77 420.911l-1.168.068M411.77 420.911l.176 4.347M408.181 421.119l2.421-.14M408.181 421.119l-1.834.08M408.181 421.119l.18 2.668M406.347 421.198l.112 2.54M403.912 421.35l1.364-.085 1.07-.067M403.912 421.35l-2.43.12M403.912 421.35l.06-1.46M403.912 421.35l-.21 4.267M401.481 421.47l-.362 4.272M401.481 421.47l.222-1.605M370.149 421.52l3.958-.508M370.24 423.568l-.064-1.535-.027-.513M364.95 421.99l2.046-.234 2.183-.167.97-.069M398.601 421.613l-2.184.107M398.601 421.613l.198 4.242M385.003 421.66l2.323.018M385.003 421.66l-1.181.12M364.95 421.99l-5.856.563M365.075 424.066l-.107-1.831-.019-.244M388.549 421.717l-.393-.018M394.281 421.844l-.904.053-4.828-.18M387.345 426.336l.156-2.517.124-.553.176-.395.748-1.154M396.417 421.72l-2.136.124M396.417 421.72l.073 4.246M383.822 421.78l-2.8.11M383.822 421.78l-.278-2.748M381.022 421.89l-3.518.326M381.022 421.89l-.239-2.569M381.52 426.914l-.38-3.752-.118-1.273M377.504 422.216l.455 5.05M359.094 422.553l.303 2.036M374.244 423.275l-4.003.293M374.244 423.275l-.137-2.263M374.244 423.275l.128 2.11M370.24 423.568l-5.165.498M370.24 423.568l.233 2.168M365.075 424.066l.185 2.15M365.075 424.066l-5.678.523M359.397 424.589l.52 4.306M414.483 425.037l.083 2.742M417.354 424.831l-2.346.12-.525.086M413.422 425.244l.575-.088.486-.12M411.946 425.258l1.476-.014M411.946 425.258l-1.343.066M408.47 425.381l2.133-.057M408.47 425.381l-1.934.114M408.47 425.381l-.108-1.594M374.372 425.386l-3.899.35M374.372 425.386l.194 2.268M406.536 425.495l-.077-1.756M406.536 425.495l-2.834.122M406.627 427.89l-.04-1.13-.05-1.265M403.702 425.617l-.207 2.362M403.702 425.617l-2.583.125M370.473 425.736l-5.213.48M370.473 425.736l.254 2.123M401.12 425.742l-.274 2.403M401.12 425.742l-1.345.066M398.799 425.855l-1.547.074M398.799 425.855l.137 2.305M399.775 425.808l-.177.008-.8.04M397.252 425.93l-.5 2.252M397.252 425.93l-.762.036M396.49 425.966l-2.061.084M365.26 426.216l.228 2.222M387.345 426.336l-.777 8.258M387.345 426.336l7.084-.286M384.98 426.552l1.877-.196.488-.02M384.98 426.552l-3.46.362M383.719 436.816l.714-5.306.546-4.958M381.52 426.914l-.403.074M381.117 426.988l-2.609.242M380.985 431.578l.132-.2.151-.268.088-.277.03-.27-.269-3.575M378.508 427.23l.384 3.337M377.959 427.265l.342-.014.207-.021M377.959 427.265l-1.815.213M376.144 427.478l-1.578.176M376.144 427.478l.291 3.467M374.566 427.654l.396 3.395M372.362 427.939l.607-.131 1.597-.154M370.727 427.859l.1.63M365.488 428.438l.152-.014 1.241-.136 3.846-.43M414.566 427.78l-2.571-.032M414.566 427.78l2.836.008M414.829 433.354l-.051-1.35-.024-.59-.048-.681-.028-.468-.04-.844-.072-1.642M372.362 427.939l.5 3.323M370.827 428.49l.43-.224 1.105-.327M423.026 427.748l-.04-3.211M423.026 427.748l2.756.016M423.026 427.748l-2.948.071M424.444 433.07l-.61-.05-.261-.01-.24-.025-.105-.04-.066-.05-.064-.11-.032-.097-.012-.427-.012-1.255-.024-1.036.008-2.222M406.627 427.89l.249 5.586M406.627 427.89l3.621-.07M405.033 427.979l.761-.04.833-.048M405.033 427.979h-1.538M405.073 438.169l-.024-1.944-.016-8.246M403.495 427.979l-2.65.166M403.495 427.979l-.225 10.15M398.936 428.16l.391-.003 1.519-.012" clip-path="url(#pf96dc5f6b8)" style="fill:none;stroke:#000"/><path d="m399.785 437.979.39-4.125.607-5.18.064-.53M398.936 428.16l-2.184.022M399.037 430.93l-.004-.533-.097-2.237M396.752 428.182l-1.432 6.45M365.488 428.438l-.016.33M359.916 428.895l2.538-.152 3.034-.305M369.964 430.099l.086-.62.109-.335.237-.304.43-.35M376.435 430.945l2.457-.378M376.435 430.945l-1.473.104M376.893 435.27l-.072-.268-.386-4.057M374.962 431.05l-2.1.212M374.962 431.05l.542 4.39M379.01 431.41l.3.742M379.01 431.41l-.118-.843M380.985 431.578l-1.19.07-.326-.032-.232-.068-.228-.138M372.861 431.262l.665 4.534M379.666 433.257l.412-.498.907-1.181M406.876 433.476l3.58-.024M407.057 436.6l-.05-.991-.131-2.133M386.568 434.594l-2.17 1.693M386.568 434.594l.482.678M395.32 434.633l-3.576.276M395.32 434.633l-.666 2.629M387.05 435.272l4.694-.363M387.05 435.272l1.69 2.381M376.893 435.27l-1.39.17M379.65 439.576l-2.379-3.59-.378-.716M370.293 435.722l.059.357M370.293 435.722l-.33-5.623M370.293 435.722l-2.41.236M373.526 435.796l1.978-.355M373.526 435.796l-3.174.283M373.526 435.796l.62 3.834M414.829 433.354l2.3-.148M412.307 433.397l.881-.016 1.64-.027M370.95 446.07l-1.502-2.615-.305-.625-.168-.633-1.092-6.24M365.655 436.476l.452-.151.605-.176 1.171-.191M370.352 436.079l.687 4.16M384.397 436.287l-.678.529M384.397 436.287l4.038 5.184M383.719 436.816l-1.763 1.188M360.996 437.285l2.195-.231M360.996 437.285l-.257-2.163M314.788 455.718l.785-.498 1.622-.877.597-.295.237-.159.188-.187.54-.59.22-.195.322-.22 1.854-1.37 2.447-1.62 3.565-2.347 2.816-1.972 2.528-1.793.49-.249.493-.175 1.028-.249.446-.056.429.004.41.036.497-.036.485-.107 1.29-.419.46-.251.278-.22 1.965-2.282.445-.35.547-.237.682-.148.962-.034 1.05-.007 2.307-.152 1.638-.143 1.413-.168 3.842-.263 5.592-.637 1.738-.167M394.654 437.262l-2.757.182M394.654 437.262l-.724 2.414M388.74 437.653l3.157-.209M388.74 437.653l1.769 2.49M397.121 437.815l1.523.097M397.121 437.815l-1.24 3.813M399.037 430.93l-.095.534-1.238 4.55-.583 1.8M398.644 437.912l-.172 6.028M399.785 437.979l-.354-.016-.787-.051M399.785 437.979l.664.031M381.956 438.004l3.987 5.29M379.65 439.576l.544-.384 1.762-1.188M379.666 433.257l-.148.47-.032.333.064.355 2.406 3.589M400.45 438.01l1.762.082M395.278 444.43l1.84 1.364.77.223.889-.024.752-.127.537-.27.257-.567.01-1.03.116-5.989M402.212 438.092l.078 4.641M403.27 438.129l-.51-.01-.548-.027M403.27 438.129l.782.017M404.052 438.146l1.021.023M404.052 438.146l-.157 4.237M405.073 438.169l2.073.041M407.146 438.21l3.086.095M407.146 438.21l-.089-1.61M374.146 439.63l.599-.246.571-.263M374.146 439.63l-3.107.608M375.095 443.022l-.396-.4-.164-.246-.152-.394-.085-.475-.152-1.877M379.65 439.576l3.877 5.523" clip-path="url(#pf96dc5f6b8)" style="fill:none;stroke:#000"/><path d="m377.042 441.476 1.028-.785 1.58-1.115M393.93 439.676l-.335 1.304M390.509 440.144l.56-.194.347-.086.38-.052 2.134-.136M390.509 440.144l-2.074 1.327M390.509 440.144l.081.129M373.017 444.482l-.588-.859-.674-1.11-.339-.697-.21-.631-.167-.947M393.595 440.98l1.11.314M390.59 440.273l.654.014.26.028.229.063 1.862.602M388.435 441.471l2.138 3.235M385.943 443.294l1.006-.753 1.486-1.07M377.042 441.476l-1.947 1.546M377.042 441.476l2.498 3.605M395.882 441.628l-.604 2.802M395.882 441.628l-1.177-.334M375.095 443.022l-2.078 1.46M375.095 443.022l2.438 3.54M385.943 443.294l-2.416 1.805M392.974 444.105l2.304.325M392.974 444.105l-2.384-3.832M390.573 444.706l.986-.202.877-.252.538-.147M309.233 575.562l.789-1.266.416-.797.401-.514.777-.677 1.41-1.14 1.454-1.637 1.07-1.438 1.513-2.693 3.75-5.712.464-.924.176-.909-.056-.86-.528-1.896-.073-.654.105-.565.552-1.275 2.844-5.06.449-1.139.225-1.075.047-1.148.185-.828.416-.845 1.602-2.461.841-.98.289-.184.385-.143.29-.06 2.249-.132 1.082-.119.985-.247 1.354-.622 1.37-.916 2.323-2.23 4.278-3.905.657-.733.488-.756 1.146-2.534.44-.837.537-.629 2.748-3.043 1.274-1.793.913-1.69.865-1.776.65-1.76.648-1.993.613-1.266.65-.952.716-.79.597-.529.917-.9 4.606-5.928.921-2.032 2.708-5.386 4.622-10.548.578-1.092.56-.789 5.832-6.031 3.966-3.697 3.977-3.259 4.875-3.621.585-.55.52-.689.395-.731.722-2.495.39-1.283.376-.845.794-1.33.44-.734.304-.812.834-3.354.232-1.498.106-1.282.014-1.981.064-.618.152-1.012.073-.693.106-1.81M373.017 444.482l-2.066 1.587M373.017 444.482l2.468 3.51M375.733 452.693l.661-.214 2.052-.656.635-.293.5-.298 3.214-2.115 2.555-1.77 2.427-1.338 2.796-1.303M379.54 445.081l-2.007 1.482M379.54 445.081l1.379 1.968M383.527 445.1l-2.608 1.95M370.95 446.07l-1.948 1.32M370.95 446.07l2.44 3.52M374.761 451.448l1.714-1.215 4.444-3.184M375.485 447.991l2.048-1.428M375.485 447.991l-2.095 1.599M369.002 447.39l2.528 3.563M369.002 447.39l-1.216.954M369.002 447.39l-.92-.612M373.39 449.59l-1.86 1.363M373.39 449.59l1.371 1.858M371.53 450.953l-3.115 2.203M374.761 451.448l.972 1.245M368.71 455.682l2.043-1.41 4.008-2.824M369.346 457.37l1.885-1.475 1.65-1.223 1.978-1.46.874-.519M369.346 457.37l-.9-1.51M363.944 458.889l.084.494.14.366.421.705.116.106.13.052.13.012.137-.028.164-.08.992-.827 2.211-1.618.569-.446.308-.254M422.938 418.035l-.138-.041M422.938 418.035l-.064 2.255M425.685 417.597l.922-.263M422.8 417.994l1.892-.238.553-.08.44-.08M441.162 429.885l-6.544-5.802-8.01-6.749M425.782 424.353l-2.796.184M425.782 427.764v-.463l.032-.972-.032-1.976M422.986 424.537l-.112-4.247M420.006 424.696l1.53-.088 1.45-.071M424.444 433.07l-7.57 3.482M425.838 433.285l-.553-.136-.84-.08M420.078 427.82l-.072-3.124M420.078 427.82l-2.676-.032M417.13 433.206l1.69.007.385-.135.36-.191.329-.311.208-.462.088-.39.016-.781-.04-.869-.072-1.171-.016-1.084M420.006 424.696l-2.652.135M419.974 419.11l-.505-.127-1.534-.402-.369-.104-.356-.115-.21-.07-.52-.209M416.329 415.908l.344-.414.136-.355.088-.319.073-.307.111-1.504M417.102 411l.036.605v.67l-.057.734M413.477 415.047l.697.168 2.155.693M417.354 424.831l.048 2.957M413.252 421.796l3.838 1.681.417.175.16.136.031.127-.088.255-.256.661M417.13 433.206l.288-.98.072-.606.057-.789-.049-.988-.096-2.055M416.873 436.552l.016-.35-.072-.44-.136-.613.032-.59.113-.437.184-.526.12-.39" clip-path="url(#pf96dc5f6b8)" style="fill:none;stroke:#000"/><path d="m412.475 438.368.505-.087.417-.128 1.842-.733.721-.295.793-.382.079-.1.041-.091M425.782 427.764v.454l.008.876.048.805.024.964-.024 2.422M433.737 436.217l-3.309-1.37-3.645-1.283-.945-.279M434.898 436.664l-1.161-.447M410.248 427.82l1.747-.072M410.248 427.82l.209 5.632M410.457 433.452l1.85-.055M411.995 427.748l.312 5.65M412.307 433.397l.168 4.971" clip-path="url(#pf96dc5f6b8)" style="fill:none;stroke:#000"/><path d="m410.232 438.305 1.834.063h.41M407.057 436.6l2.43-.072.32.12.177.203.084.238.068.38.096.836M401.703 419.865l2.27.024M396.288 414.243l-2.055-.073M394.233 414.17l-.005.918M392.756 414.238l.094-.134.056-.035.058-.013 1.269.114M392.756 414.238l-10.264-1.282M382.492 412.956l.034 1.863M393.175 414.943l1.053.145M394.228 415.088l.053 6.756M394.281 421.844l.148 4.206M389.03 416.066l.67 3.99M386.79 416.212l.635-.06 1.605-.086M388.156 421.699l.731-.867.813-.775M386.79 416.212l.536 5.466M388.156 421.699l-.555-.017-.275-.004M391.744 434.91l.153 2.534M394.705 441.294l1.027-3.308 1.014-4.083.256-.936.284-.853.455-1.034.11-.125.146-.056 1.04.032M379.043 433.153l.267-1M379.666 433.257l-.356-1.105M383.544 419.032l-2.76.29M375.504 435.44l.52 2.593M363.944 458.889l4.503-3.03M363.944 458.889l-.436-2.467M363.508 456.422l2.448-1.767M365.229 450.07l-2.102 1.684-.145.315-.024.362.445 3.4.105.591M369.866 417.603l-.068-1.983M369.866 417.603l-5.197.359M364.67 417.962l-.252-1.906M364.67 417.962l-5.863.6M358.541 413.852l.04.637.084.487.124.55.124.561.037.713-.02.63-.123 1.132M369.798 415.62l-5.38.436M364.418 416.056l-2.99.345M221.855 394.985l-2.615-.255-2.636-.351M178.645 373.99l8.583 7.904 1.867 1.53 1.057.685 1.298.637 1.754.734 21.446 8.35 1.954.549" clip-path="url(#pf96dc5f6b8)" style="fill:none;stroke:#000"/><path d="m218.194 386.168-1.497 5.837-.145.63-.02.621.072 1.123M365.962 409.715l13.85 1.529M362.354 410.244l.049-.714.264-.147 3.295.332" clip-path="url(#pf96dc5f6b8)" style="fill:none;stroke:#000"/><path d="m356.052 409.525 4.915.595 1.387.124M371.2 408.037l1.07.106 5.334.2M368.544 407.775l2.656.262M371.234 405.624l-.034 2.413M388.637 405.117l-2.818.15-13.916.35-.669.007M388.637 405.117l-.746 7.799M397.908 404.675l-6.843.238-2.428.204M399.93 411.016l-.029-2.469M399.93 411.016l.04.613M399.93 411.016l-1.754.079M399.93 411.016l2.764-.152M398.176 411.095l-.092-2.503M398.176 411.095l.01.657M398.185 411.752l-1.84.154-.065-.017-.05-.047-.023-.051.02-.514.03-.053.05-.03 1.87-.1M398.185 411.752l1.785-.123M399.97 411.63l2.636-.136M395.568 408.549l2.516.043M398.084 408.592l1.817-.045M398.084 408.592l-.176-3.917M417.208 404.226l2.38.022.671-.036M417.253 405.628l2.983-.03.023-1.386M434.666 398.387l-.921.51-1.714.828-2.54 1.236-1.322.677-.93.43-.944.422-1.09.367-1.186.359-2.363.62-1.397.376M403.434 404.028l-2.046-.115M403.434 404.028l2.338.02M403.434 404.028l-.134.809M405.793 406.08l-.454-.157-.408-1.007-1.046-.059-.585-.02M402.606 411.494l.088-.63M402.606 411.494l1.498-.04M405.802 410.785l-1.642.024-1.466.055M405.802 410.785l-.032-2.438M405.802 410.785l.072.597M411.218 410.482l-2.123.095-3.293.208M405.77 408.347l.023-2.268M411.138 408.347h-5.368M405.874 411.382l5.391-.342M405.874 411.382l.189 2.306M405.874 411.382l-1.77.072M405.772 404.048l3.066-.037M405.793 406.08l-.007-1.439-.014-.593M405.793 406.08l3.084-.132M417.218 408.147l-.072 2.168M417.218 408.147l.02-.53M411.138 408.347l3.188-.104 2.892-.096M411.121 405.852l.017 2.495M411.121 405.852l1.878-.115M411.121 405.852l-2.244.096M411.138 408.347l.08 2.135M411.218 410.482l.047.558M417.146 410.315l-1.586.023-4.342.144M411.265 411.04l4.559-.176h.84l.261.036.177.1M417.253 405.628l-4.254.109M417.253 405.628l-.015 1.99M417.253 405.628l-.045-1.402M417.208 404.226l-4.162-.147M417.208 404.226l-.022-1.943M413.046 404.08l-4.208-.07M413.046 404.08l-.047 1.657M417.102 411l.044-.685M420.976 413.586l-.45-.45-.464-.479-1.298-1.195-.292-.279-.3-.271-.161-.159-.196-.16-.164-.127-.2-.08-.305-.071M418.86 407.737l-.941-.06-.681-.06M614.827 464.892l1.074-.07M590.79 466.311l8.6-.518 5.583-.32 7.059-.405 2.795-.176M441.162 429.885l2.337 2.043 1.053.893 22.207 18.778 2.587 2.107M460.934 472.62l.193-.62.376-.997.673-1.498.417-.804.472-.638.425-.518.345-.525.232-.542.096-.455v-.438l-.032-.526.096-.557.12-.399.272-.517.618-1.052.216-.43.216-.566.272-.877.233-.67.176-.477.721-1.498 2.275-4.31M590.79 466.311l-1.703.103-10.094.63-7.498.43-5.231.23-5.327.28-4.823.294-6.353.439-5.96.422-3.292.12-4.359.119-2.603.103-3.189.232-6.07.448-1.877.117-2.194.144-3.685.222-2.252.057-1.09-.072-1.137-.176-1.146-.239-1.898-.597-5.68-2.08-2.027-.717-7.882-2.828-10.44-3.912-6.928-2.454-1.322-.542-1.338-.654-1.419-.804-.864-.574-1.763-1.346M446.685 510.614l-.62 1.27-1.874 3.593-1.923 3.466-2.066 3.625-.289.502-.24.446-.225.502-.368 1.02-.304.789-.617 1.33-.433.964-.216.702-.312 1.242-.233 1.132-.184 1.314-.553 3.761-.312 1.769-.337 1.84-.352 1.625-.185.86-.456 3.172-.144.82-.16.638-.233.613-.24.622-.441.964-.761 1.482-1.257 2.374-.85 1.88-.52 1.235-.385 1.068-.345 1.147-.312 1.474-.192 1.33-.08 1.203-.024 1.363-.008 1.466v1.187l.104 1.49.16 1.53.457 3.92.08.525.16.598.224.558 1.018 2.533.464 1.211.24.765.137.454.12.606.32 2.525.257 1.092.28.852.233.47.328.47 1.306 1.427 1.818 1.808.497.358.489.263.801.24 1.522.342.761.247.641.263.569.327.632.478.617.645.473.67.328.78.457 1.904.657 2.884.465 1.323.913 1.936.6 1.123.161.463.104.477v.462l-.072.574-.104.462-.2.86-.097.606-.056.542.016.605-.014 1.066.179 1.312.068 1.031.048.717.104.865M474.946 519.947l-.089 1.195-.071.773-.12.725-.153.661-.168.55-.169.526-.111.653-.065.693-.007.709.047.79-.015.74-.105.868-.2 1.052-.208 1.052-.2.995-.144.742-.057.462-.024.916v1.235l-.032 1.275.016 1.123.04.797.177 1.275.176 1.338.176 1.115.12.694.256 1.163.249 1.275.224 1.497.192 1.41.577 4.534.449 3.1.385 2.565.496 4.246 1.041 6.446.706 4.15.368 2.311.208 1.825.473 3.21.544 3.283.065.733-.08.287-.145.263-.408.326-.697.438-.553.35-.28.328-.136.247-.04.239.071.334.145.55.152.813.12.733.136.748.064.63.04.685.064.55.081.383.248.557.352.661.433.924.344.909.209.757.176.661.28.82.305.758.144.518.08.629.008.486-.016.39v.598l.064.43.176.502.201.59-.016.278-.064.255-.136.255-.273.215-.537.255-.617.303-.384.247-.448.398-.617.494-.513.263-.577.184-.569.11-.785.12-.93.191-.704.2-.625.255-.657.31-.76.407-.794.565-1.178.837-.865.542-.953.406-.913.311-1.21.27-1.723.168-1.057.152-.569.135-.84.207-.674.128-.488.08-2.476.334-2.948.406-1.81.215-1.459.168-3.788.517-1.675.139M603.353 357.292l-.331-3.54.334-3.996-5.356-1.998-.111-3.107.67-4.55-1.563-3.885 1.785-9.988-3.682-9.526-.334-10.1-4.576-15.093-.67-9.767 3.572-.11 10.489-8.547 4.128-5.327 3.683-1.665 6.248-6.991 6.026-2.331 3.347-3.108 3.438-2.37M603.353 357.292l-4.125 3.118-3.348-2.33-3.794.11-9.038-3.329-6.742 1.776-8.145 6.437-8.306 10.406-1.986 1.857-.826.677-2.074 1.275-16.712 7.298-1.706.438-3.309.71-2.579.629-3.957.67-6.057 1.48-1.482.67-3.661 2.008-5.263 1.793-1.515.295-.793-.16-.489.024-2.675.558-2.067.502-.873-.024-4.07-.812-3.324-.367-2.516.27-1.506-.342-4.638-1.904-1.018-.63-1.457-1.394-.377-.183-1.859-.423-.648-.04-1.587.12-4.695.821-2.875.414-8.476 1.586-.881.374-7.507 5.362-.793.646-2.651 1.793-.641.175-1.547-.144-1.97.55-.449.152-1.09.088-1.802-.296-1.353-.374-1.01-.35-1.01-.144-2.066-.239-3.349-.502M413.252 421.796l-.096-2.16-.08-1.633-.016-.829.064-.58.137-.606.216-.94M413.252 421.796l.17 3.448M340.16 144.82l10.316-.42 4.99.42.972-.631 9.82-.295 4.06-.967 2.029.21 5.581.63 2.96-1.766 3.34-3.322 1.269-.084 1.184 2.86 4.319-.14M333.986 120.174l-1.227 5.005 1.438 3.659 3.467 3.785 1.438 4.92 1.057 7.277M337.087 167.985l1.339-3.219 3.124-5.55-1.39-14.396M360.709 97.062l-3.045 5.467-9.556.925-2.156-.546-2.368.715-.38 1.766 1.014 2.818-.254 4.71-4.566 3.911-5.412 3.346M248.49 243.242l-.05-1.969.391-2.22 3.916-9.97 1.293-3.272.47-2.766.743-1.986-.783-1.986-2.153-5.648-1.019-3.271 1.488-5.337 1.762-3.66.314-1.87-.392-5.414-1.41-6.504-1.331-8.063-.274-.535M258.085 154.334l-.782 6.104-.892 6.548-1.785 2.886-.447 4.44-2.724 4.459M337.087 167.985l-17.408-.999-4.016-5.216-9.485-2.33-16.961 3.551-21.313-10.877-6.695-.333-3.124 2.553M335.748 241.458l1.674-5.771-2.12-1.332-5.245-1.22-3.236-5.328 5.356-21.42.446-4.107-.78-2.33 2.008-7.658v-15.206l3.794-5.771-.67-1.443.112-1.887M247.822 253.673l.148-.677 1.097-4.128-.51-2.96-.067-2.666M335.748 241.458l-1.897 1.443h-4.017l-3.236-.111-2.344-2.331-20.977-1.554-14.506-3.218-10.601.11-1.228 1.888-3.012-.111-5.133 1.886-13.836 4.218-6.47-.436" clip-path="url(#pf96dc5f6b8)" style="fill:none;stroke:#000"/><path d="m341.216 367.76 5.579-20.646.111-10.1.893-5.105-.893-33.184-.67-2.108 2.455-3.219.335-7.213-2.455-14.54-3.236-18.2-.334-5.217-5.58-4.661-1.673-2.109M142.65 361.726l-23.435 9.553M178.645 373.99l-17.494-16.112-1.64-1.13-1.16-.325-1.16-.179-2.067.396-12.474 5.086M263.851 630.138l2.278-2.148 1.538-1.737 1.354-1.967.953-1.642.73-1.051.849-.83 4.128-3.072 1.375-1.19.577-.653.585-.988 1.041-2.457.693-1.41.597-1.04.6-.773 4.207-4.08 1.642-1.685.933-.896 1.706-1.322 1.194-.888 1.154-.985.7-.733.473-.693 1.354-2.55 1.042-1.648 1.293-1.638 8.264-10.695 4.122-5.805" clip-path="url(#pf96dc5f6b8)" style="fill:none;stroke:#000"/><path d="m237.171 556.61.422.19 1.162.63 2.363 1.334 2.64 1.709 3.81 2.234 1.646.685 1.658.499 5.48 1.49.793.155 2.44.27 4.533.694 2.748.621 1.134.379 1.482.605 3.192 1.12 4.086 1.673 3.469 1.625.845.31.493.192.628.362 2.308 1.402.732.335.946.29 1.13.16 1.073.036 1.887-.016 1.566.084 1.682.175 1.778.008 4.743-.318 3.116-.056 1.843-.128 1.69-.255.537-.055.5.004.501.11 1.006.4M603.353 357.292l1.454-1.1 5.133-1.22 5.579-5.771M359.916 428.895l.544 4.1M432.83 438.208l.907-1.99M441.162 429.885l-2.002 1.24-1.361.766-1.186.876-1.426 1.275-.705.765-.745 1.41M368.71 455.682l-.263.177M368.71 455.682l-.295-2.526M367.786 448.344l-2.557 1.726M367.786 448.344l.629 4.812M368.082 446.778l-.086.757-.052.24-.158.569M365.655 436.476l.829 4.856 1.05 4.036.167.526.38.884M365.189 434.67l.057.216.409 1.59M363.191 437.054l1.065-.163.7-.154.699-.261M365.229 450.07l-.692-4.348-.104-.7-.128-.503-.148-.518-.285-.988-.264-1.525-.125-1-.292-3.434M365.956 454.655l2.459-1.5M365.956 454.655l-.727-4.585M364.79 432.543l-.09-2.773M364.79 432.543l-4.33.453M365.189 434.67l-.292-1.44-.107-.687M365.39 430.645l-.212 1.513-.06.127-.108.131-.22.127M364.7 429.77l.734-.208M364.7 429.77l-1.971.34M360.46 432.996l.279 2.126M360.739 435.122l4.45-.452M365.434 429.562l.038-.795M365.434 429.562l-.043 1.083M365.39 430.645l1.912-1.8M409.904 423.78l-1.542.007M408.362 423.787l-1.903-.048M410.602 420.979l.001 4.345M446.685 510.614l1.143-2.347 2.251-4.598.641-1.41.289-.78.184-.781.208-1.044.168-.845.193-.78.272-.893 1.914-5.672 1.402-3.785 1.442-3.243.786-1.769.552-1.282.633-1.666.753-2.43 1.418-4.669" clip-path="url(#pf96dc5f6b8)" style="fill:none;stroke:#000"/><path d="m474.946 519.947.096-.86.04-1.132-.04-4.04v-.637l.08-.685.176-.829.128-.685-.008-.55-.104-.446-.264-.661-1.154-2.82-.544-1.195-.329-.646-.44-.74-1.603-2.765-1.578-2.678-.409-.836-.24-.59-.232-.574-.264-.55-.321-.629-1.177-2.07-.746-1.284-.336-.59-.153-.326-.096-.343-.136-.733-.336-1.904-.12-.558-.184-.55-.313-.844-.272-.685-.393-.893-.128-.326-.088-.319-.056-.35-.088-.909-.169-1.131-.28-1.466-.136-.366-.232-.455-.441-.844-.264-.542-.249-.67-.136-.573-.104-.797-.112-1.187-.113-.948-.144-1.116M615.901 464.821l-.24-1.06-.097-.43-.352-.781-.786-1.307-.376-.565-.28-.518-.24-.606-.129-.542-.056-.525-.048-.367-.096-.383-.28-1.075-.353-1.211-.585-1.912-.52-1.666-.16-.486-.137-.398-.12-.422-.088-.542-.064-.662.024-.772.104-.733" clip-path="url(#pf96dc5f6b8)" style="fill:none;stroke:#000"/><path d="m634.209 463.623-5.98.361-6.753.47-5.575.367M474.946 519.947l-2.452-.215-1.802-.16-1.458-.215-1.122-.302-1.313-.518-1.298-.55-.954-.534-.929-.518-1.37-.59-.849-.302-4.334-1.323-1.93-.534-2.084-.485-1.658-.423-1.153-.359-.698-.342-.56-.334-.505-.367-.56-.47-.585-.406-.647-.386M356.052 409.525l-17.962-2.17M358.541 413.852l-.04-.29-.072-.248-.325-.573-.308-.462-.417-.53-.861-1.27-.245-.455-.221-.499M315.863 404.893l.336-2.156.095-.478.192-.486.201-.61.036-.262-.016-.22-.058-.214-1.396-2.948M315.863 404.893l11.15 1.195M291.5 402.322l20.38 2.144 3.983.427M288.44 399.694l.312-2.175.28-1.18.401-1.466.216-1.012.052-.462-.007-.406-.073-.414-.204-.487-.953-1.728-.493-.686-.348-.418-.461-.41-1.582-1.673-.109-.18-.081-.233-.067-.339.012-.324.685-2.769.537-1.804.084-.41.044-.383" clip-path="url(#pf96dc5f6b8)" style="fill:none;stroke:#000"/><path d="m288.44 399.694-.132-.642-.225-.633-.288-.55-1.478-2.23" clip-path="url(#pf96dc5f6b8)" style="fill:none;stroke:#000"/><path d="m291.5 402.322-.353-.338-.146-.105-.178-.074-2.023-.458-.086-.052-.048-.066-.028-.081-.198-1.454M291.5 402.322l-29.898-3.146M258.847 410.123l-.881 2.191-1.146 2.048-1.17 1.928-.416.908-.529.901-.633.884-.208.188-.278.145-.767.444-.409.315-.369.458-.38.613-.256.67-.317.896-.216.374-.297.327-.356.45-.072.244-.02.282-.14.889-.357 1.37-.42 1.398-.18.769-.157.916-.104 1.391-.132.717-.184.502-.373.737-.605 1.701-.1.526-.048.737-.056.482-.16.573-.845 3.251-.037.371.025.398.184 1.749.012.745-.109.924-.176.781-.28.932-.288.625-.545.969-.593.785-.573.58-.48.503-.425.53M260.465 405.948l-.528 1.247-.53 1.271-.56 1.657M260.878 408.837l-.167.826-.076.146-.12.115-.146.072-.256.04-1.266.087M260.465 405.948l.413 2.889M261.602 399.176l-.192 1.434-.432 3.004-.34 1.789-.173.545M221.855 394.985l-.268.378-.108.1-.11.058-.166.023-.938-.03-2.359-.278-.82-.08-.442-.06-.46-.1-1.607-.593-.184-.012-.156.072-.084.132-.02.159.032.191.5 2.383.842 4.198.056.789-.02.916.088 1.291-.056 1.323-.24 1.621-.249.924-.047.34-.028.413-.085.522-.144.538-.685 2.622-.132.258-.14.22-.677.792M178.645 373.99l-2.488 2.996-1.034 1.538-1.233 2.023-.537 1.124-.209.916-.088 1.187.129 1.578.248 2.088.424 1.792.69 2.295.151.9-.007.614-.185.446-.328.494-1.923 2.829-.144.254-.056.283-.116.574-.252.992-.049.339.016.434.033 2.621-.073 1.255-.132.701-.244.765-.272.49-.233.271-.216.151-.269.072-.789.088-.893-.028-.817-.168-2.34-.625-2.022-.765-.392-.071-.337-.009-1.034.02-.4-.032-.4-.095-3.029-1.215-.997-.395-.781-.171-.353-.004-.304.06-.228.12-.177.179-.196.39-.36.889-.237.478-.256.39-.228.482-.173.398-.18.247-.2.187-.914.757M401.388 403.913l.008-2.188-.024-.812.016-.47.08-.423.16-.944.028-.394-.023-.498-.049-.677-.012-.55.033-1.279.111-3.57-.02-.262-.048-.266-.064-.316-.031-.333.075-1.392.137-2.219.224-3.856.24-3.116.052-.342.1-.33.105-.463.02-.275-.025-.235-.612-1.546-.137-.227-.176-.159-.236-.124-2.139-.701-.545-.112-.633-.12-.477-.146-.456-.2-1.738-.62-.5-.12-.526-.048-1.47-.176-.222-.067-.206-.12-.622-.478M367.302 428.845l1.193.241.388.16.272.187.809.666M365.472 428.767l1.83.078M327.014 406.088l5.104.546 5.972.722M327.014 406.088l.24-4.617.104-.51.188-.435 1.318-2.418.212-.434.1-.398.048-.494.004-1.223.032-.47.108-.455 1.122-4.12.681-2.692.409-1.904.056-.765v-.725l-.096-1.434M212.867 617.366l-2.743-2.275-.537-.557-.097-.195-.043-.208.02-.318.168-.805.08-.323.132-.278 1.27-2.964.44-.86.393-.778.42-.824.377-.713.144-.363.096-.45.117-.502.128-.398.36-1.402.505-2.45.184-1.291.024-.59-.056-.513-.633-2.163-.356-.917-.076-.402v-.386l.112-.419.464-1.414.113-.442.188-.76.188-.555.269-.561.372-.777.345-1.004.296-.88.985-2.526 1.562-4.828.115-.253.142-.215.48-.627.141-.236.084-.267.809-3.851.425-1.49.116-.275.192-.256 1.59-1.804.144-.247.089-.247.356-1.1.208-.414.337-.426.56-.513.277-.168.3-.096 1.246-.14 2.736-.007.633-.056.653-.151 1.85-.65 1.066-.522.44-.267.329-.33.372-.502.457-.808.493-1.423.576-2.298.089-.781-.005-.438-.028-.434.004-.49.06-.367.237-.55.376-.424.453-.272.691-.27" clip-path="url(#pf96dc5f6b8)" style="fill:none;stroke:#000"/><path d="m314.788 455.718-.765.844-.905 1.386-.795.831-.952.751-4.09 2.65-.255.286-.237.434-1.07 2.215-.56.681-1.074.869-.338.671-.074.751.212 2.33-.26 1.499-.517.955-.356.387-1.88 1.769-1.677 2.3-1.396 2.307-.455.627-2.079 2.303-2.227 1.657-7.29 5.239-1.01.944-7.33 4.708-3.164 1.745-8.684 3.972-1.222.474-1.666 1.112-2.135 2.1-2.568 1.923-2.15 2.103-1.775 1.1-.84.633-1.467.893-1.666 1.553-1.774.989-.445.051-3.092.008-.561.283-.39.386-1.188 1.486-.449.395-1.31.976-1.09 1.577-1.986 2.128-.77.653-2.707 1.725-1.954.956-1.066.167-.565-.064-2.207-.577-2.401.151-.401.259-.218.646-.148.625-.305.633-.348.442-1.514 1.24-1.619.812-1.608.926-.535.07-1.582-.135-.473.14-.68.501-2.436 3.376-.068.635-.02.85-.28 1.927-.124 3.641.212.57.368.31.998.407.104.293-.008.209-.269 1.593.173.757.176.33 1.166 1.646.282 1.157.304.972.423.409.561.087.593-.1.744-.314 1.683-1.215.625-.096.288.064 1.518.601 1.499.315 1.321.455 2.712.298.861.299 3.272 1.693.241.25 1.241 1.587 2.326 3.435M263.851 630.138l-4.035-.985-.849-.131-.62-.115-.665-.188-.434-.091-.476-.037-.288-.055-.277-.1-.713-.21-.684-.116-.721-.056-.85-.128-.789-.238-2.46-.77-.905-.358-1.422-.657-1.097-.598-1.662-.956-.865-.398-1.034-.347-1.566-.474-1.05-.227-1.317-.147-.551-.024-.363.026-.709.121-.805.052-.448-.036-.465-.103-3.633-1.16-.365-.057-.2.008-.214.077-1.76.693-.477.148-.423.06-2.494.115-.444-.044-.42-.107-.433-.22-1.038-.585-.38-.127-.468-.064-.582-.016-1.125.083-1.722.272-.247-.006-.26-.078-.297-.194-.89-.687-.525-.322-.962-.586-.68-.478-2.825-2.151M314.788 455.718l-1.374.075-.82-.012-.726-.111-2.72-.601-1.013-.156-.994-.012-2.243-.024-1.293-.144-2.3-.426-5.4-1.39-.6-.102-.693-.003-1.137-.062-.477-.096-.484-.203-1.855-.849-.453-.299-.689-.53-.765-.828-.616-.797-1.659-2.433-.337-.383-.35-.267-.655-.307-1.858-.534-.742-.247-.48-.255-.549-.434-.785-.764-1.842-2.272-.445-.773-.637-1.306-.6-1.398-.377-1.263-.288-1.227-.165-.41-.196-.387-1.142-1.86-.252-.467-.18-.426-.645-1.362-.32-.777-.79-2.27-.408-.853-.361-.633-.769-1.1-1.066-1.422-.356-.598-.204-.534-.152-.623-.39-1.855-.167-.649-.1-.243-.14-.227-.273-.273-.324-.237-1.138-.71-.457-.401-.42-.51-.469-.766-.312-.724-.277-.63-.296-.72-.128-.535-.194-1.08-.057-.288-.078-.181-.12-.156-.64-.62-.682-.523-1.986-1.398M118.16 371.71l1.055-.431M118.16 371.71l-14.369 5.857M118.16 371.71l.934.682M119.094 372.392l-.017-.243.02-.203.118-.667" clip-path="url(#pf96dc5f6b8)" style="fill:none;stroke:#000"/><path d="m104.019 378.414.779.815.244.135.284.076.3.018.365-.044.407-.123.456-.208 3.407-1.97.862-.362 1.141-.367 1.334-.278.77-.144.524-.183.533-.223 1.242-.574.736-.454.509-.287.553-.255.352-.227.213-.215.136-.283.044-.203-.008-.196-.108-.47M103.791 377.567l.228.847M591.512 468.817l.76 1.996 1.518 2.429 1.158 1.366.597.81.108 1.349.2 2.32.38 1.493.325 1.187.613 1.623 2.275 4.78.961 1.275.609.478 1.987 1.785-.128.574-.513 1.274-.16.766.448 2.103.897 2.996.545 1.21.673.957 2.18 2.454.16.86-.481 1.402.192 2.04 1.987 4.398 1.217 1.084.545.796.353.797.513 1.72-.129 1.116.064 1.403 1.154 2.995.961 3.505 1.346 3.825 2.372 5.864.929 2.55 1.057 1.625.128.701-.031 1.148.224 2.549.897 5.64 1.122 4.43-.225 2.04.577 3.57-.897 5.035-.641 4.334.064 1.88.385 1.753M591.512 468.817l.687-.054.362.108.326.18.216.288.254.269.542.521.326.144.362.018.361-.09.271-.251.434-.593.615-.468M590.79 466.311l.378 1.678.344.828M408.877 405.948l-.04-1.937" clip-path="url(#pf96dc5f6b8)" style="fill:none;stroke:#000"/></g><g id="PatchCollection_1"><path d="m464.103 449.774-20.058-17.07-.536-.446-1.288-.201-.415 1.286 1.423 1.965.081.273.504.626.353.721.177.504.109.544v.259l-.109.245-.218.218-.245.135-1.116.3-.897.177-.53.231-.477.286-.286.055-.286-.055-.231-.177-.326-.504-.287-.884-.136-.245-.217-.19-.273-.096h-.558l-.516.218-1.198.898-.762.395-.707.476-.803.353-.123.123-1.143.286-.857.136-.245.123-.83.245-.259.095-.735.49-.544.217-.544.11-1.43.067-.557-.108-.272-.164-.449-.422-.599-.707-1.089-1.77-.094.245-.055 1.144.136 1.387-.013.531-.096.545-.45 1.632-.108.246-.34.448-.232.164-.544.245-1.442.462-.517.245-.463.109-1.116-.177-.898.054-.285.096-.259.204-.3.476-.367 1.375-.123.259-.353.516-.436.463-1.21.83-.613.585-.245.163-.558.164-.87.013-.287.055-.516.244-1.198 1.348-1.157.15-.503.258-.245.19-.286.49-1.755 1.947-.517.271-.558.177-.232.164-.585.939-.585-.082-.503-.327-.177-.217-.463-.83-.204-.232-.626-.326-.218-.218-.803-1.292-.394-.45.068.844.3.789.652 2.123.123 1.143-.123.585-.217.504-.45.762-.543 1.51-.177.272-.626.585-.504.694-.19.205-1.198.857-1.157.38-.244.164-.15.231-.014.545.082.313.599 1.279-.232 1.116-.217.571-.327.436-.436.353-1.006.626-.517.218-1.09.354-2.884.544-.572.163-.516.273-.436.408-.272.463-.218.544-.299.462-.898.79-.49.571-.626.925-.273.518-.054.517-.136.571-.435.49-.898.762-.735.953-.844.87-1.415.953-.98.517-.408.381.599-.054 1.224-.354 1.09-.408 1.033-.436 1.66-1.088.572-.272.571-.164 1.688-.626.571-.163.545-.082.38.408-.516 1.034-1.008 1.416-2.04 2.096-.681.843-.327.544-.272.518-.19.544-.381 1.606-.163 1.088.353-.49.463-.408 2.123-1.333.952-.708.436-.436.38-.544.926-.898 1.197-1.388 1.497-2.504 1.497-.544.49-.272.544-.218.544-.136h1.09l.544.054.571.136 1.034.354.544.3 1.28 1.06.49.219.517.109h1.088l.49-.245.38-.436.11-1.116-.082-1.115-.218-1.116-1.415-3.103-.163-1.17v-1.715l.054-.571.463-.272.653-.054.98.408.517.108.572-.027.544-.136.462-.272 1.09-2.259.544-.19 1.061.108.517.191 1.089.082.544-.028.599-.19 1.061-.49 1.47-.87 1.061-.436.98-.517.544-.136.517-.055.544.136 1.47.898.545.028.517-.3.408-1.088.272-.49.762-.844.408-.408.517-.245.517-.082.545-.027.517.054 1.524.653.463.3.272.463.163.517-.027 2.15.054.517-.163 1.116-.027.571.354 2.695-.082 2.258.245 2.722.789 2.177.109.517.326 1.062.082 1.524-.027 1.088.218.517.272.463.19.517v.544l.3-.544.49-1.306.19-3.974.354-1.088.408-1.715.218-.544.599-.953.244-.517.327-.49.19-.19.844-1.552.436-.353.516-.245.436-.327.708-.87.626-.98.109-.572-.082-.544-.3-.49-.217-.517-.028-.6.926-2.258.163-1.143-.054-.571-.572-2.26-.054-.543.068-1.021.68-.571 1.17-1.375.49-.367.504-.232.272-.013.381.422.095.53.177.204.3.095.816.096 1.034.422.259.176.354.49.652.477.313.422.11-.259.49-2.069.516-1.687.3-.802.272-.545.654-.599.992-.544.776-.3.53-.135.545-.014.286.068 1.02.558.205.163.163.245.081.272.082.79.15.53.19.232.694.503.177.218.245.517.15.558.04.87.11.3.326.45.381.285.558.735.136.258.109.518-.259.789-.026.285.23.858.45 1.006.122-.965.327-1.144.244-.53.382-.436.326-.517.205-.517.353-2.994-.204-.87.177-.545.231-.313.164-.544.163-.231.272-.11.817-.163.245.082.176.204.232.79.354.394.503.177.517.027.735-.421.435.299.422.666.11-.258.04-.558.231-.83.177-.218.218-.15 1.075-.422.231-.163.15-.23.136-.545-.028-1.225.19-.544.26-.517.15-.558.026-.272zM345.344 411.19l1.818 1.052 1.606 1.724-1.69.42-1.058.926-1.572 1.475-.872.674-2.662 1.423.461-1.167 2.277-2.91.715-.941.215-.699zM386.004 134.81l3.171.294 3.764-4.29 1.056-1.766 5.794-4.248-.212-3.028-4.398 4.416-2.748 1.515-3.72 3.28-1.734-.295-1.353 3.112zM208.69 292.906l-.224 3.108 2.678.11 2.957-1.83 3.85-.334.67-1.22-3.014-.667-2.008.888-3.794.278zM302.885 93.22l.192 2.995 1.474.893.064-1.466 4.679-1.721 3.653-5.802-4.55 4.59-3.653-.064zM623.553 335.218l2.344 3.44 1.562-2.886.558-4.55-1.674 2.553-1.116-.777-.223 2.108zM573.385 468.805l9.42-.383 3.077 1.434-1.41.701-4.23.032-3.973.16-1.474-.032-1.634-.957zM610.644 434.806l-1.73 3.295 1.803 1.282 3.313-3.039-1.988-1.208zM358.052 400.009l.163 1.424 1.895.257 1.875-.068.073-1.757-.698-.929-1.06-.036-.69.126z" clip-path="url(#pf96dc5f6b8)" style="fill:#00f;fill-opacity:.8"/></g><g id="PatchCollection_2"><path d="m854.021 141.571 1.539 19.889 9.613 15.3-.64 21.417-17.817 11.984-27.687-9.816 14.74 40.669 32.942 79.551-26.789 29.705-38.453 25.368-21.534-44.364-13.458-15.553-21.534 28.174-16.92 23.84-21.02 9.178-46.145-23.584-18.457-9.179 9.229-23.202 1.922-26.262-8.587-26.007-5.256-31.617 45.247-64.128 14.484-14.151 4.614-14.407 12.69-11.609 17.816-11.346 12.305-11.602 14.997-4.208 9.613 12.75 7.691 10.072 17.817 8.287 15.381 9.179 13.202-4.972z" clip-path="url(#pf96dc5f6b8)" style="fill:#006400;fill-opacity:.8"/><path d="m733.279 101.787-4.615-35.826-30.89-47.811-24.61 3.442-16.536-10.2-27.43 2.168-25.763-5.228L581.26 4.38l-14.74 15.683-2.564 34.169-3.589 20.909-25.891-19.38-13.203 27.54 8.973 35.187-4.614 58.137 2.691 27.028-22.046 17.083 2.05 26.008-6.665 19.25 13.202 3.488 23.072 5.1 9.486 17.847 5.511 20.398 11.793 11.984 10.766 1.784 30.122 3.442 22.56-8.796-.642-53.29-3.46-20.397-7.947-10.2 12.304-9.178 16.92-23.841 8.844-20.526 12.305-2.04 12.946-18.104-9.229-15.043 21.534-14.662 1.923 10.072 15.894-20.144 14.228-8.925z" clip-path="url(#pf96dc5f6b8)" style="fill:#006400;fill-opacity:.8"/></g><g id="PatchCollection_3"><path d="m412.95 404.266-.028 1.339-3.52.086.036-1.45zM406.974 425.886l5.176-.3.063 1.686-2.663.272-2.539.143zM380.903 417.166l2.159-.2.19 1.874-2.243.2zM413.476 422.265l4.126 1.655-.514.784-3.5.174zM378.808 427.442l2.132-.224.095 3.777-1.874.16zM393.527 439.94l.105.293-.105.316-.29.214-1.888-.645.042-.179zM417.904 404.466l1.89.08-.035.828-1.938.013zM417.614 411.09l.519-.023 1.606 1.74-1.08.02-1.11-1.318zM405.98 404.22l2.372-.038.07 1.574-2.462.12zM383.507 416.867l.894-.097.463 4.706-.894.075zM370.177 417.375l2.89-.3.398 2.716-3.044.389zM409.475 415.863l.204-.076.392 1.108-.108.087-.13-.085-.207-.425-.102-.304zM405.713 439.337v-.729l1.331.032-.016.724zM400.572 404.23l-.015.291 2.073.087.023-.284z" clip-path="url(#pf96dc5f6b8)" style="fill:green;fill-opacity:.8"/></g><g id="PatchCollection_4"><path d="m414.046 417.387 5.516 2.182-1.472 3.744-4.608-1.965-.009-1.106.05-1.061zM373.068 417.075l2.88-.19.208 1.7-2.843.165zM391.505 427.589l1.541-.244.257 2.1-1.438.174zM387.345 436.587l.74.958-1.518 1.032-.437-.375-.31-.501zM373.687 415.61l1.83-.2.14 1.092-1.849.212zM390.457 402.28l1.205-.033.063 1.94-1.168.031zM370.126 415.118l2.711-.318.23 2.275-2.89.3z" clip-path="url(#pf96dc5f6b8)" style="fill:#90ee90;fill-opacity:.8"/></g><g id="PatchCollection_5"><path d="m412.95 404.266-.028 1.339-3.52.086.036-1.45zM408.846 441.257l.313 1.353.897 1.844 9.145-4.082-1.197-4.137-5.485 2.381-.734-.04-.095 1.292-1.334.68-.027.709zM464.103 449.774l-20.058-17.07-.536-.446-1.288-.201-.415 1.286 1.423 1.965.081.273.504.626.353.721.177.504.109.544v.259l-.109.245-.218.218-.245.135-1.116.3-.897.177-.53.231-.477.286-.286.055-.286-.055-.231-.177-.326-.504-.287-.884-.136-.245-.217-.19-.273-.096h-.558l-.516.218-1.198.898-.762.395-.707.476-.803.353-.123.123-1.143.286-.857.136-.245.123-.83.245-.259.095-.735.49-.544.217-.544.11-1.43.067-.557-.108-.272-.164-.449-.422-.599-.707-1.089-1.77-.094.245-.055 1.144.136 1.387-.013.531-.096.545-.45 1.632-.108.246-.34.448-.232.164-.544.245-1.442.462-.517.245-.463.109-1.116-.177-.898.054-.285.096-.259.204-.3.476-.367 1.375-.123.259-.353.516-.436.463-1.21.83-.613.585-.245.163-.558.164-.87.013-.287.055-.516.244-1.198 1.348-1.157.15-.503.258-.245.19-.286.49-1.755 1.947-.517.271-.558.177-.232.164-.585.939-.585-.082-.503-.327-.177-.217-.463-.83-.204-.232-.626-.326-.218-.218-.803-1.292-.394-.45.068.844.3.789.652 2.123.123 1.143-.123.585-.217.504-.45.762-.543 1.51-.177.272-.626.585-.504.694-.19.205-1.198.857-1.157.38-.244.164-.15.231-.014.545.082.313.599 1.279-.232 1.116-.217.571-.327.436-.436.353-1.006.626-.517.218-1.09.354-2.884.544-.572.163-.516.273-.436.408-.272.463-.218.544-.299.462-.898.79-.49.571-.626.925-.273.518-.054.517-.136.571-.435.49-.898.762-.735.953-.844.87-1.415.953-.98.517-.408.381.599-.054 1.224-.354 1.09-.408 1.033-.436 1.66-1.088.572-.272.571-.164 1.688-.626.571-.163.545-.082.38.408-.516 1.034-1.008 1.416-2.04 2.096-.681.843-.327.544-.272.518-.19.544-.381 1.606-.163 1.088.353-.49.463-.408 2.123-1.333.952-.708.436-.436.38-.544.926-.898 1.197-1.388 1.497-2.504 1.497-.544.49-.272.544-.218.544-.136h1.09l.544.054.571.136 1.034.354.544.3 1.28 1.06.49.219.517.109h1.088l.49-.245.38-.436.11-1.116-.082-1.115-.218-1.116-1.415-3.103-.163-1.17v-1.715l.054-.571.463-.272.653-.054.98.408.517.108.572-.027.544-.136.462-.272 1.09-2.259.544-.19 1.061.108.517.191 1.089.082.544-.028.599-.19 1.061-.49 1.47-.87 1.061-.436.98-.517.544-.136.517-.055.544.136 1.47.898.545.028.517-.3.408-1.088.272-.49.762-.844.408-.408.517-.245.517-.082.545-.027.517.054 1.524.653.463.3.272.463.163.517-.027 2.15.054.517-.163 1.116-.027.571.354 2.695-.082 2.258.245 2.722.789 2.177.109.517.326 1.062.082 1.524-.027 1.088.218.517.272.463.19.517v.544l.3-.544.49-1.306.19-3.974.354-1.088.408-1.715.218-.544.599-.953.244-.517.327-.49.19-.19.844-1.552.436-.353.516-.245.436-.327.708-.87.626-.98.109-.572-.082-.544-.3-.49-.217-.517-.028-.6.926-2.258.163-1.143-.054-.571-.572-2.26-.054-.543.068-1.021.68-.571 1.17-1.375.49-.367.504-.232.272-.013.381.422.095.53.177.204.3.095.816.096 1.034.422.259.176.354.49.652.477.313.422.11-.259.49-2.069.516-1.687.3-.802.272-.545.654-.599.992-.544.776-.3.53-.135.545-.014.286.068 1.02.558.205.163.163.245.081.272.082.79.15.53.19.232.694.503.177.218.245.517.15.558.04.87.11.3.326.45.381.285.558.735.136.258.109.518-.259.789-.026.285.23.858.45 1.006.122-.965.327-1.144.244-.53.382-.436.326-.517.205-.517.353-2.994-.204-.87.177-.545.231-.313.164-.544.163-.231.272-.11.817-.163.245.082.176.204.232.79.354.394.503.177.517.027.735-.421.435.299.422.666.11-.258.04-.558.231-.83.177-.218.218-.15 1.075-.422.231-.163.15-.23.136-.545-.028-1.225.19-.544.26-.517.15-.558.026-.272zM414.046 417.387l5.516 2.182-1.472 3.744-4.608-1.965-.009-1.106.05-1.061zM406.974 425.886l5.176-.3.063 1.686-2.663.272-2.539.143zM373.068 417.075l2.88-.19.208 1.7-2.843.165zM380.903 417.166l2.159-.2.19 1.874-2.243.2zM391.505 427.589l1.541-.244.257 2.1-1.438.174zM413.476 422.265l4.126 1.655-.514.784-3.5.174zM501.327 468.145l1.384-.048.025 1.208-.535.072 1.482 6.425h1.7l.534 2.512-3.303.169-.413-2.27h-.437zM484.156 458.242l2.456.305.32 1.998-2.538-.639zM378.808 427.442l2.132-.224.095 3.777-1.874.16zM387.345 436.587l.74.958-1.518 1.032-.437-.375-.31-.501zM373.687 415.61l1.83-.2.14 1.092-1.849.212zM393.527 439.94l.105.293-.105.316-.29.214-1.888-.645.042-.179zM390.457 402.28l1.205-.033.063 1.94-1.168.031zM417.904 404.466l1.89.08-.035.828-1.938.013zM417.614 411.09l.519-.023 1.606 1.74-1.08.02-1.11-1.318zM405.98 404.22l2.372-.038.07 1.574-2.462.12zM383.507 416.867l.894-.097.463 4.706-.894.075zM370.177 417.375l2.89-.3.398 2.716-3.044.389z" clip-path="url(#pf96dc5f6b8)" style="fill:#9acd32;fill-opacity:.8"/><path d="m370.126 415.118 2.711-.318.23 2.275-2.89.3zM409.475 415.863l.204-.076.392 1.108-.108.087-.13-.085-.207-.425-.102-.304zM415.152 425.71l-.004.23.403-.01-.005-.198zM408.353 426.496l.02.462.627-.013-.01-.478zM405.713 439.337v-.729l1.331.032-.016.724zM406.222 404.554v.193l.243-.005v-.193zM404.868 404.48l.003.25h-.255l.004-.254zM381.077 418.118l.137-.007.004.115-.134.006zM428.286 431.946l.237.003-.003.308h-.234zM400.572 404.23l-.015.291 2.073.087.023-.284z" clip-path="url(#pf96dc5f6b8)" style="fill:#9acd32;fill-opacity:.8"/></g><path id="PatchCollection_6" d="m355.84 401.974 65.947-.666 22.7 28.41-9.707 9.322-10.936-2.108-17.63 7.546-15.175 2.775-30.435 17.756-2.79-11.32 8.145-7.99-7.253-15.648-2.677-18.422z" clip-path="url(#pf96dc5f6b8)" style="fill:#d3d3d3;fill-opacity:.8"/><g id="PatchCollection_7"><path d="m425.397 419.194.048.845-2.307.08.064-1.514zM403.787 405.276l.825.116-.201 1.62-.835-.085zM418.587 411.78l.432.437-.412.36-.355-.443zM393.439 427.059l2.152-.046v.53l-.668.008.006.345.448-.01.015.7-1.055.022.007.142-.522.013-.01-.714.513-.009.005.135.418-.002-.02-.56-1.281.024zM389.066 438.625l1.08 1.43-1.57 1.036-1.086-1.404zM381.276 419.69l2.008-.223.238 1.915-2.05.166zM412.15 425.585l1.978-.014.055 1.575-1.97.126zM124.744 372.394l.375-.059.118.747-.375.058zM152.083 353.06l.04.368.665-.07-.04-.369zM152.87 359.8l.673-.06.073.801-.674.06zM178.669 376.684l.459.229-.386.765-.458-.228zM203.43 386.332l.113.89-.287.11-.123-.963zM256.53 395.74l.614.274-.151.334-.614-.273zM271.363 394.894l.577.21-.185.502-.577-.21zM289.733 400.339l.315-.04.091.71-.315.04zM416.24 411.368h.528l.11.135v.842h-.625zM406.847 412.98l.023.383-.526.032-.023-.383zM402.645 413.663l3.065-.059.01.568-3.065.059zM402.076 413.689l.037.53-1.677.116-.038-.529zM605.402 463.762l.035.756-.794.038-.036-.756zM596.938 468.313l.04.496-.31.025-.04-.497zM591.982 472.684l.178.788-.39.087-.179-.788zM641.53 470.212l.213.558-.27.1-.213-.557zM471.25 456.076l.369.13-.137.382-.369-.13zM470.126 456.092l-.197.234-.088-.074-.06.073-.145-.12.057-.067-.104-.087.2-.239zM471.633 456.312l.385.138-.186.507-.384-.138z" clip-path="url(#pf96dc5f6b8)" style="fill:#a9a9a9;fill-opacity:.8"/></g></g></g><defs><clipPath id="pf96dc5f6b8"><path d="M93.183 86.4h551.634v554.4H93.183z"/></clipPath></defs></svg>