<svg xmlns="http://www.w3.org/2000/svg" xmlns:xlink="http://www.w3.org/1999/xlink" width="960" height="960" viewBox="0 0 720 720"><defs><style>*{stroke-linejoin:round;stroke-linecap:butt}</style></defs><g id="figure_1"><path id="patch_1" d="M0 720h720V0H0z" style="fill:#fff"/><g id="axes_1"><path id="patch_2" d="M90 629.907h558V97.293H90z" style="fill:#fff"/><g id="LineCollection_1"><path d="m507.452 333.167-.225.268-1.435 1.9-.769 1.033-1.138 1.276-1.144.96-3.011 1.764M480.325 350.605l1.619-.854 5.043-2.658 6.298-3.35 6.445-3.375M541.482 334.576l-.994.504-1.125.664-1.189.826-.875.634-1.178 1.006-.822.947-.713.886-.67.915-.93 1.44-.875 1.278-.498.634-.508.413-.637.362-.8.322-1.027.303-1.016.442-.918.483-.908.332-.627.142-.67.06-.843.01-.638.01-.93.04-2.075.09-1.427.092-.961.03-.854-.06-.768-.132-.778-.271-.854-.383-.821-.443-.638-.392-1.048-.584-.903-.483-1.77-.777-2.438-.607-1.97-.477-2.018-.55-1.583-.809-1.455-1.105M453.64 358.366l-1.454.72M453.64 358.366l1.07-.499M452.756 357.505l.247.39.21.209.426.262M457.28 356.657l-2.57 1.21M457.28 356.657l-.94-.043-1.039.021-1.295-.048" clip-path="url(#p2ad0dfebc1)" style="fill:none;stroke:#000"/><path d="m480.325 350.605-.826.438-1.252.635-2.52 1.303-1.031.45-1.152.472-1.17.312-.54.143-1.727.258-6.28-.325-2.17.35-4.378 2.016M524.79 453.256l.957.494.86.28.952.155.674-.029.767-.101 1.314-.397 2.565-.857 1.876-.288 1.65.055 2.731.717 2.485 1.245 2.272-.17 4.544-1.86 1.545.507 9.087 6.6 1.005.438.816.157 1.307.036 1.325-.123 2.027-.292.512-.073.533-.076.582-.044 1.35-.005 1.592.13 1.348.2 1.21.498 2.507 1.318 2.731 1.389 3.47 1.83 3.318 1.69.8.533.648.602.507.808.167.702-.04.914-.195.953-.022.623.128.66.295.65.553.702.516.42 1.185.465 1.495.286 2.136.18 11.632.337M602.416 506.002l-.05-1.533.017-.98.058-.583.158-.583.58-1.502.952-2.266 1.855-4.103 1.586-7.242-.032-5.114-.482-2.423-1.253-1.495-1.298-2.663M525.721 293.646l.42-.231.372-.506 1.187-2.392.466-1.034.567-1.026.775-1.243.536-.831.473-.672.466-.455.66-.542.915-.405.923-.333 2.165-.657 1.157-.217.652-.015.729.268.768.824.613.773.536.535.954.664.83.6 1.28 1.222.792.708.776.586.598.282.698.166 1.568.036 1.28-.05.706.021.605.116 1.063.325.59.115 1.009.101 1.785.066.683.108.62.21.854.715M539.573 303.004l5.129-1.885 2.39-1.084 1.436-.96 1.171-1.02 3.01-2.833 2.034-1.952 2.049-1.792M581.763 277.749l-.357.387-1.847 2.126-1.335 1.402-1.412 1.098-1.459.867-1.645.593-2.824.622-5.494.968-1.164.29-.885.331-.62.304-.683.42-.808.534-.946.81-1.444 1.214-2.048 1.763M437.193 310.783l.243-.362M437.193 310.783l-2.256 3.096M437.193 310.783l-2.054-1.106M442.375 311.91l1.795 6.357M442.375 311.91l2.629-.526M440.053 311.612l.768.275.846.058.708-.035M457.537 313.676l-.756.426M457.293 316.912l.164-1.443.08-1.793" clip-path="url(#p2ad0dfebc1)" style="fill:none;stroke:#000"/><path d="m487.434 286.376-.139.375-.21.926-.108.83-.093 1.273-.187 1.04-.147.456-.206.321-.4.401-.527.282-.667.123-.676.015-.418-.094-.769-.231-.69-.167-.777-.108-1.295.007-.962.144-.707.21-.396.34-.302.585-.108.752-.156 2.5-.318.839-.629.874-.954.868-.893.737-.496.607-.35.693-.325.911-.117.723-.023.766.287.875.412 1.502.03.702-.015.527-.17.384-.458.454-.605.253-.784.246-.668.138-.644.021-.776-.072-.94-.05-.728.028-.737.109-.753.267-1.133.528-1.769.88-1.188.58-1.35.744-1.52.838-.878.498-1.465.85M449.585 316.852l.83 2.782M449.585 316.852l-.786-2.422M449.585 316.852l-2.77.718M453.932 315.32l-2.913 1.133-1.434.4M457.293 316.912l-2.012.799M456.183 319.267l.538-.46.329-.616.155-.65.088-.63M455.28 317.71l-1.348-2.39M455.28 317.71l.903 1.557M455.28 317.71l-4.865 1.924M444.17 318.267l2.645-.697M444.17 318.267l-2.781.693M444.722 321.346l.136-.382-.085-.538-.603-2.16M417.9 318.561l-.943-2.673M414.34 320.107l1.511-.664 2.05-.882M427.067 319.712l-.858-.772-.636-.52-.498-.364-.578-.252-.817-.194-.722-.13h-.543l-.613.037-.823.21-3.078.834M448.433 322.515l1.139-.19 1.094-.2 1.256-.309 1.465-.526 1.155-.633.815-.666.826-.724M438.535 318.844l-3.23-2.495M435.982 320.927l1.432-1.422.451-.349.67-.312" clip-path="url(#p2ad0dfebc1)" style="fill:none;stroke:#000"/><path d="m441.005 318.871-.826-.12-.675-.013-.97.106M441.389 318.96l-.384-.089M443.358 320.242l-1.145-.843-.824-.44M450.415 319.634l-2.653 1.24M414.34 320.107l-6.778 3.598M414.34 320.107l-1.73-3.035M443.358 320.242l-2.133-.167M444.722 321.346l-.781-.685-.583-.42M427.067 319.712l2.187 1.67M429.254 321.382l-.779-.013-.395-.166-.668-.564-.186-.347-.16-.58" clip-path="url(#p2ad0dfebc1)" style="fill:none;stroke:#000"/><path d="m443.097 323.381.478-.594.315-.367.832-1.074M447.762 320.874l-.6.285-.608.18-.572.084-.518.005-.742-.082M430.134 322.021l-.54-.374M435.053 321.37l-.56.133-.874.096-1.646.12-1.027.138-.812.164M430.743 324.2l.027-.692-.053-.605-.122-.354-.162-.231-.3-.297M448.433 322.515l-2.814.342M444.002 339.508l.858-2.045.175-.434.062-.34.015-.346.07-1.048.085-.578.2-.647.231-.568.237-.473.512-.892.26-.535.19-.397.1-.441.094-.484 1.342-7.765M445.62 322.857l-2.523.524M444.15 329.8l.48-2.364.647-2.821.342-1.758M444.15 329.8l-1.184-.635-.386-.263-.168-.27-.078-.31-.007-1.249.037-1.513.092-.474.136-.583.186-.578.32-.544M399.094 328.234l5.43-2.929M398.145 328.836l.425-.29.342-.21.182-.102M399.362 332.639l.076-.226.16-.332.148-.317.263-.615.09-.276.087-.386-.04-.292-.067-.308-.985-1.653M397.117 329.281l-.69-.033M398.638 331.805l-.418-.577-.732-1.22-.371-.727M398.145 328.836l-.391.241-.637.204M385.695 327.67l.42-.057.612-.145.579-.068.562-.044.524.04.5.123.555.14.64.221 2.257.555 1.406.338 1.686.318.99.157M392.053 335.335l.252.01.248-.158.137-.223.02-.53-.111-.415-.202-.485-.374-.623-.452-.475-.661-.401-2.135-.826-.46-.235-.045-.15.021-.174.127-.121.217-.096 1.539-.125 4.927.095.662-.193.4-.353.264-.609M443.838 332.117l.238-1.135.075-1.182M430.583 326.256l.004.661.009.853.201.907.263.606.684 1.347M432.947 332.993l-.174-.413-.406-.797-.623-1.153M443.838 332.117l-7.14-.898-4.954-.59M432.762 334.82l.226-1.253-.041-.574M436.58 334.547l-.628-.2-.174-.18-.084-.228-.17-.587-.159-.265-.205-.138-.59-.03-1.623.074M432.762 334.82l-2.16-.104M431.423 340.505l.417-1.687.922-3.997M443.309 335.278l-3.333-.362M443.309 335.278l.53-3.16M444.002 339.508l-.426-2.349-.215-1.062-.052-.82M439.976 334.916l-3.395-.369M439.976 334.916l1.632 6.47M487.949 422.466l-.357-.911-1.176-2.376-.914-1.644-.358-.761-.375-.807-.222-.7-.14-.82.117-.622.182-.56.98-1.279 3.011-3.415 1.668-1.95 1.995-2.408.336-.617.123-.464-.002-.77-.214-.942-.477-1.49-.65-1.583-.451-.728-1.222-1.496-.725-.749-.526-.663-.33-.542-.315-1.067v-1.173l.213-2.455-.118-.98-.27-.808-.483-.795-.562-.654-.884-.568-2.612-.628-2.578-.565-.82-.294-.558-.484-.232-.657-.329-1.718-.476-1.167-.521-.923-.85-.831-.942-.669-.674-1.041-.094-1.18.292-1.133 1.362-2.7.224-.808-.091-.752-.176-1.08-.413-1.746-.096-.747.033-.767.107-.99.247-.806.216-.642.323-.722.905-1.348 1.656-1.803.605-.968.38-.973.117-1.036-.062-1.388.182-1.873-.079-1.358-.524-1.267M451.286 355.67l.919.773.246.338.305.724M449.769 354.7l.593.312.547.396.377.262" clip-path="url(#p2ad0dfebc1)" style="fill:none;stroke:#000"/><path d="m454.006 356.587-.704-.235-2.016-.682M454.71 357.867l-.164-.633-.15-.277-.39-.37M452.756 357.505l-.012.625-.027.142-.072.129-.46.685M442.274 364.235l4.895-2.657 5.017-2.492M494.153 435.169l-1.121-1.721-.69-.926-.691-.67-.572-.586-.39-.459-.389-.64-.39-.951-.682-2.693-.65-2.159-.63-1.898" clip-path="url(#p2ad0dfebc1)" style="fill:none;stroke:#000"/><path d="m460.554 425.95 1.948-.355.784-.08h.76l1.878.203.791-.058.668-.274 1.723-1.43.838-.334.915-.086 1.94.245 1.133.015 1.149-.203 3.352-1.127 1.106-.359.752-.146.687-.057.583-.01 6.388.572M494.153 435.169l.67 1.037.319.556.266.522" clip-path="url(#p2ad0dfebc1)" style="fill:none;stroke:#000"/><path d="m524.79 453.256-.652-.585-.371-.395-1.819-2.028-.91-.995-.568-.583-.54-.477-.72-.35-.715-.21-1.066.018-1.017-.105-.728-.237-.692-.713-.807-1.488-2.261-5.904-1.15-1.786-.827-1.067-1.202-.794-1.38-.48-1.005-.139-.734.012-.88.09-.782.182-.836.275-.718.347-.853.56-1.372.883-1.058.618-.897.249-.735.037-.712-.107-.698-.294-.677-.506M448.525 496.612l.016-.98-.197-.849-.493-1.055-.197-.665.418-4.749.296-.688 3.794-5.414.345-.688.172-.872.222-.871.468-.895 1.01-.94 1.257-.574 4.927-1.835.493-.413.911-1.1.69-.712 2.143-1.79.887-.963 1.651-2.363.492-.505.543-.298 1.33-.344 1.306-.275 1.28-.757 3.573-3.395 1.182-.849 2.513-1.4.64-.596 1.996-2.202 1.01-1.881.197-.826.148-1.56.05-.596.517-1.491.69-1.24 2.242-2.66.418-.895.395-1.697.295-.941.912-1.927.517-.642.75-.386 1.663-.446.995-.426.547-.343.447-.392.295-.39.58-.864.547-.688M500.373 554.1l-.369-.474-.21-.828-.045-.672.016-.742.062-.83.136-.944.272-.95.472-1.272.693-1.49.717-1.202 1.32-2.703.721-1.479.81-1.502 1.552-2.821.84-1.735.453-1.33.063-.556-.011-.498-.506-2.465-.605-2.58-.517-2.453-.246-1.388.026-.649.135-.707.254-.723.7-1.163 1.241-1.694.843-1.506.941-1.644 1.439-2.258.544-1.194.314-1.083.38-2.114.504-1.652.557-1.409.502-.983.7-.982 2.254-2.692.322-.384 1.062-1.269 1.885-2.34 1.073-1.124 1.565-1.368 1.568-1.21.634-.678.287-.596.237-.597.19-1.06.808-5.705.535-3.265.137-1.754-.093-1.022-.25-1.03-.65-1.918-.261-.939-.148-.76-.082-.82.179-.933.014-.659.004-.755-.191-.602-.28-.53-.474-.621-.76-.53-.93-.595-.824-.553-.478-.99-.372-.95-.11-1.328.158-1.433.802-3.825 1.717-4.777.191-.557M623.395 284.027l-.225-.427-.257-.534-.108-.687.03-.838.07-.918.567-3.216.334-1.54.163-.715.07-.701-.032-.68-.225-1.264-.52-1.54-.558-1.597-.365-.665-.613-.845-1.288-1.612-.706-.773-.698-.571-.746-.492-1.645-.932-1.784-.976-.792-.361-1.125-.448-.698-.286-.35-.278-.131-.434-.016-.462.17-.63.428-1.929.194-.787M581.763 277.749l.776-.913 1.257-1.475 2.607-2.688 2.701-2.833 1.319-1.605.559-.65.73-.723 2.809-3.006 1.427-1.518 1.21-1.055 1.304-.868 1.055-.491 1.056-.42 1.754-.447 3.243-.535 2.11-.246 1.926-.333 1.272-.346 1.66-.708M419.362 301.425l3.936 2.345M416.724 303.014l1.392-.866 1.246-.723M425.383 300.307l-1.533-.33-.95-.092-.674.046-.57.147-.488.207-1.806 1.14M453.932 315.32l-1.392-2.365M453.932 315.32l2.849-1.218M433.844 315.392l1.093-1.513M433.844 315.392l-2.357 3.186M433.844 315.392l1.462.957M403.107 316.845l.963 1.48M400.323 317.9l2.015-.736.77-.319M413.147 306.232l-.09.43-.196.953-.144.953-.303 1.415-.314 1.026-.362.467-.552.375-.652.21-1.03.372-.863.35-.771.371-.624.5-1.278 1.287-.848.833-.799.501-1.214.57M372.02 269.219l-.567.276-.332.266-.247.297-.124.36.023.91.293 1.62.66 2.874.497 1.75 1.262 2.581 2.012 4.69 2.004 4.504 1.017 2.688 1.101 2.609.31.368.303.311 1.32 1.453.877.96.388.47.364.463.31.708.319.673.17.513.179.657.1.448.195.318.325.311.513.383 4.532 2.624.45.216.496.145.69.159.847.014.543-.108.985-.401.346-.007.279-.015.415.061.93.445.657.437.52.282.477.318.38.477.319.636.45.889.317.574.49 1.623.325.806.694 1.086 1.211 1.618.727 1.042.415.684.32.56M407.562 323.705l-1.557-2.562M407.562 323.705l-3.038 1.6M430.743 324.2l-.16 2.056M430.743 324.2l9.075 1.263M439.818 325.463l-.094.51M435.982 320.927l1.423.809 1.178.762.802.514.464.476.166.468-.015.458-.082.56-.1.49M404.524 325.305l1.648 2.5M415.035 332.368l-.55-.477-.815-.816-2.127-2.392-.916-1.012-.581-.572-.436-.45-.672-.44-.51-.22-.255-.01-.244.143-.336.23-1.421 1.452" clip-path="url(#p2ad0dfebc1)" style="fill:none;stroke:#000"/><path d="m410.229 331.423-2.422-1.823-.613-.541-.517-.583-.505-.672M417.751 333.127l-1.955-.52-.76-.24M399.43 333.997l.185.228.492.605.464.5.326.24.574.267 2.266.65 1.583.477 1.234.456 1.272.527 1.397.57.55.312.412.354.947.802.598.498.566.138.567-.09.52-.163.419-.282.356-.39.17-.448-.053-.412-.148-.333-.365-.607-.058-.307.206-.625 1.125-4.596M421.585 335.642l-.105-.383-.167-.242-.233-.192-.617-.372-1.292-.734-.9-.44-.52-.152M428.002 322.756l-1.032.759-.667.448-.714.369-3.264 1.401-.48.308-.443.448-.326.462-.194.55-.287 2.033-.084.261-.272.312-.593.311-.694.427-.487.55-.35.691-.364 1.04" clip-path="url(#p2ad0dfebc1)" style="fill:none;stroke:#000"/><path d="m416.77 336.876.71-2.904.271-.845M430.602 334.716l-.413 2.315M421.585 335.642l3.288-.67 2.116-.228 2.681-.212.414.022.518.162M430.063 345.718l.44-1.515.92-3.698M422.186 336.906l.7-.113.673-.022.146.004.118.035.062.134.037.181-.004.144-.036.219-.195.727-.073.303.034.156.125.148 1.136.44.447.109.167-.026.252-.133.21-.224.224-.29.43-.657.137-.12.228-.057.199-.017.194.05.132.133.034.152-.004.907-.135.47-.453 1.152.007.154.017.06.042.054.072.017h.078l.57-.39.215-.14.145-.112.118-.127.486-.456.2-.089.219.002.263.059 2.02.762M601.373 538.977l-2.184-.209-.61-.658-.386-.808.16-.568 1.446-2.691 2.44-7.297 1.414-4.097.257-1.406-.128-2.93-1.06-6.61-.125-1.52-.103-2.102-.078-2.079M532.3 561.924l.58.134 1.048.04 2.04-.22 2.113-.348.622-.18.593-.311.856-.707.696-.704.564-.596 2.533-3.077 1.238-1.892 1.873-3.067.748-2.522 1.067-1.733 3.044-4.314 4.95-3.743 11.674-9.41 1.454-.338 1.908.042 10.083-2.876 1.681-1.142 2.316-2.453 3.362-6.175 1.817-1.141 11.256-9.189M422.392 305.747l-.252 1.312M422.392 305.747l.906-1.977M422.392 305.747l-1.05 1.03M417.04 311.725l.153.608-.012.9-.12 1.627-.104 1.028M422.14 307.059l-.723 1.53-1.04 2.154-1.572 3.01-.278.534-.216.336-.256.294-.245.27-.206.204-.306.28-.34.217M412.61 317.072l1.815-.55 2.532-.634M407.771 316.605l-3.443 1.919M408.87 318.19l-.366-.291-.203-.371-.53-.923M417.04 311.725l-.706.409-.629.318-.966.474-1.468.798-3.113 1.585-2.387 1.296M412.61 317.072l-.376-.695M408.87 318.19l.71-.23 3.03-.888M114.272 211.058l2.335 4.546M228.21 159.045l-.777-.166-1.28-.534-.613-.463-.49-.803-.589-2.27-.442-.686-.442-.282-.776-.275-1.017-.115-3.593.086-2.258.16-.62-.174-.885-.383-3.826-1.98-.822-.282-1.964-.195-2.312.217-1.583.26h-.69l-1.366-.203-.808.007-.605.217-.419.297-.434.534-.334 1.027-.194.643-.318.398-3.19 3.491-.503.238-.536.073-.792-.087-3.468-1.41-.427-.426-.24-.455-.35-1.952-.194-.52-.791-.81-.598-.376-1.28-.52-3.26-.86-2.444-1.316-.73-.073-1.108.297-1.972 1.106-1.536.087-1.164.007-1.009.166-2.242.738-3.058.975-3.143.803-2.77.217-2.98-.21-3.212-.6-1.46.26-1.225-.101-.543-.289-.357-.318-2.08-2.183-1.07-.961-1.049-.525-.806-.021-.509.116-3.426 1.189-.768-.008-3.01-.585-.358-.26-1.218-1.663-1.118-1.113-5.253-6.065-.396-.253-.9-.022-4.664 1.388-.837.478-.644.542-3.128 3.94-2.048 2.233-1.482 2.459-.69 1.43-.125 1.142.566 4.662 1.536 4.416 1.421 2.494 1.241 4.51-.372 2.32-.295.658-.613.839-.814.751-4.036 2.87-.574.607-.35.578-.496 1.063-1.84 6.86.048.722.264.882.532 1.273.241 1.258v.96l-.417 1.294-.838 2.11-.962 3.571v.578l.17.723 1.77 3.281.947 3.08.527 4.09.024 1.135M240.823 232.568l-.148-.109M233.463 240.865l1.063-.672 1.048-1.026 2.01-2.501 1.87-2.407 1.369-1.69" clip-path="url(#p2ad0dfebc1)" style="fill:none;stroke:#000"/><path d="m288.83 232.705-.491-.23-.464-.216-.388-.183-2.592-.903-6.65-1.546-8.792-2.234-1.35-.52-.652-.463-.512-.636-.466-1.12-.427-.803-.372-.47-.535-.556-.707-.448-1.017-.383-.977-.224-.97-.065-.954.202-.955.571-1.653 1.482-2.15 1.937-1.497 1.185-1.009.542-1.156.398-3.903.81-3.546.91-1.25.405-.946.556-.877.716-.75 1.15M291.444 234.202l-2.615-1.497M291.444 234.202l-1.622-2.3M330.298 287.503l-.629-.65-2.475-2.197-1.32-1.294-.783-1.084-.652-1.525-.59-2.342-.131-1.141.178-1.634.404-2.03.185-1.301-.193-1.374-.613-5.312-.264-1.04-.528-.868-.791-.744-1.521-1.012-1.584-.832-1.706-.715-4.501-1.445-.978-.528-.985-.766-1.064-1.496-.628-1.091-.318-1.07-.31-1.77-.45-.955-.699-.787-1.133-1.1-1.722-1.279-2.104-1.683-1.684-1.85-3.383-4.07-3.003-3.548-1.785-1.944-1.094-.824M232.36 236.81l.319.557.372.585.249.42.093.592.07 1.901M193.28 256.494l.235.12.776.151.675.03 1.009-.138 1.25-.318 1.218-.455 9.715-4.142 4.578-1.82 1.32-.319 1.38-.26 3.26-.361.931-.253.807-.369 5.897-4.156 2.22-1.25 3.181-1.286 1.73-.803M127.882 226.012l6.837 1.916.814.31.854.398.466.296 3.15 2.653 1.01.954 2.622 1.829 4.16 3.295 1.085.868.691.918.482.903.542 1.337 1.157 2.862.535 1.525.481.694.473.477 3.71 3.093M193.28 256.494l-.401-.205-.745-.622-1.164-1.366-1.094-1.684-.427-.434-.714-.412-.939-.31-1.11-.05-17.405.035-7.97.174-1.567-.058-1.11-.304-.992-.556-.691-.362M100.979 313.347l.698-1.286 1.77-2.024 1.133-1.517.667-1.518 1.04-3.079.59-1.373.683-.694.791-.42.87-.114 3.08.44 1.016.036.978-.151 1.234-.485 3.22-1.546 1.009-.607.869-.752 1.21-1.402 4.408-5.514 2.188-2.681 1.49-1.287 1.583-.94 7.295-3.41 4.508-2.473 2.367-2.139 2.196-2.305.9-1.402 1.055-2.313.66-1.843.48-2.37.327-3.7.302-1.865.49-1.561.682-1.417 3.213-6.642.713-1.525.14-.484.117-.644M423.298 303.77l2.962 1.434M425.383 300.307l-1.008 1.67-.595 1.017-.482.776M413.147 306.232l.327-.555.398-.494.46-.454.669-.567M416.724 303.014l-.758.484-.965.664" clip-path="url(#p2ad0dfebc1)" style="fill:none;stroke:#000"/><path d="m419.335 308.943-1.407-1.636-.796-.901-.669-.705-.683-.72-.78-.819M415.966 308.794l-.326-.456-.403-.502-.423-.484-.586-.343-.36-.25-.72-.527M420.974 307.112l.368-.335M419.335 308.943l.618-.7.496-.549.525-.582M416.724 303.014l2.539 2.529 1.71 1.57M419.335 308.943l-1.362 1.68M415.966 308.794l.691.578.504.528.812.722M417.04 311.725l.403-.456.53-.647M404.328 318.524l.642.948M404.328 318.524l-.258-.199M429.476 270.613l2.703-.84 2.171.306 2.826.916 2.376 1.45 3.071 1.678 4.678 1.853" clip-path="url(#p2ad0dfebc1)" style="fill:none;stroke:#000"/><path d="m448.375 273.59-.02.673-.193.593-.272.455-.59.665M437.281 282.54l.397-.63.458-.427.629-.42 1-.541.963-.39.83-.195 1.397-.26.652-.196.605-.282.466-.397.768-.81 1.855-2.016M433.007 295.62l-.24.15-.256.037-.412-.065-4.859-1.043M437.281 282.54l-.54.887-.36.719-.385.881-.298.967-.298 1.364-.227 1.117-.139.695-.151.442-.178.434-.471.65-.513.573-.424.518-.702.524-.74.39-.87.246-1.15.19-.972.321-.807.304-.372.206-.23.195-.174.242-.04.294M425.383 300.307l.268-.474.37-.934.954-2.702.145-.747.12-.751M439.341 311.365l.872 3.463M439.341 311.365l-1.905-.944M439.341 311.365l.712.247M440.213 314.828l.792 4.043M435.306 316.349l2.675-1.101.71-.199.43-.062 1.092-.16M447.762 310.875l-2.758.509M447.762 310.875l1.037 3.555M452.54 312.955l-1.073-1.8-.328-.285-.373-.21-.337-.145-.34-.107-.313-.068-.37.057-1.644.478M445.004 311.384l1.811 6.186M452.54 312.955l-3.74 1.475M446.815 317.57l.947 3.304M460.998 308.705l-4.856 4.62M456.142 313.324l.639.778" clip-path="url(#p2ad0dfebc1)" style="fill:none;stroke:#000"/><path d="m442.047 309.05.581.2.537.206.496.14.677.172.572.131.3.028.44-.057.586-.184 1.033-.51.582-.346.536-.281.52-.21.427-.109.566-.029.497.11 2.483 1.329.488.332.366.333.496.52 1.912 2.5M435.053 321.37l.596-.261.333-.182M432.97 326.5l-.03.48.013.438.046.473.185.435.178.188.488.168 3.943.402.497.012.452-.082.272-.187.423-.468.287-2.386" clip-path="url(#p2ad0dfebc1)" style="fill:none;stroke:#000"/><path d="m432.97 326.5.212-.415.147-.204.27-.295.431-.139 5.694.526M430.583 326.256l2.386.245M436.58 334.547l2.971 9.292M441.608 341.387l2.077-.754.245-.189.142-.222.008-.273-.078-.441M439.551 343.84l.564-.924.335-.514.326-.408.326-.282.506-.325" clip-path="url(#p2ad0dfebc1)" style="fill:none;stroke:#000"/><path d="m442.253 350.52-.468-.414-.291-.443-.22-.517-.206-.557-.162-.416-.527-1.504-.828-2.83M398.972 333.435l.39-.796M393.807 340.043l-.116-.34-.072-.434.127-.546.37-.627.562-.34.805-.383.802-.393.458-.373.447-.41.574-.781.955-1.495.253-.486" clip-path="url(#p2ad0dfebc1)" style="fill:none;stroke:#000"/><path d="m399.43 333.997-.054-.067-.265-.317-.139-.178M394.715 340.74l-.343-.113-.565-.584" clip-path="url(#p2ad0dfebc1)" style="fill:none;stroke:#000"/><path d="m391.685 341.346.61-.184.422-.311.337-.325.411-.335.342-.148M395.656 340.648l.717-.051.605.045 1.236.076M394.715 340.74l.94-.092" clip-path="url(#p2ad0dfebc1)" style="fill:none;stroke:#000"/><path d="m399.43 333.997-.27.398-.063.476.085.59.272.629.542.895.94.688 1.143.494 1.487.987 1.37 1.052.851.732.055.395-.114.257-.293.3-.264.07-.496-.01-1.017-.036-.53.157-.563.267-.505.334-.679.143-.62-.007-.675-.154-.944-.479-.479-.209-.437-.075-.933.044-.603.03-.512-.115-.703-.37-.446-.316-.314-.424M368.399 499.367l-.315-.058-.533.015-.716.034-1.067-.216-1.11-.532-2.887-1.452-.927-.411-.43-.351-.307-.426-.275-.661-.357-1.098-.338-.662-.512-.596-.792-.69-.713-.618-.474-.672-.207-.594-.196-1.006-.173-.732-.266-.498-.504-.74-.982-1.246-.566-.86-.625-1.405-.42-1.416-.678-1.824-.39-.839-.277-.386-.617-.632-1.59-1.268-1.712-1.485-.982-.845-.674-.358-1.141-.42-1.607-.483-1.365-.275-1.653-.491-1.84-.557-2.413-1.286-2.209-.984-1.833-.62-1.77-.997-.737-.763-.543-.826-.699-1.113-1.055-1.496-.435-1.344-.224-1.221-.031-1.604.03-1.597.016-1.575.49-2.304.301-2.068" clip-path="url(#p2ad0dfebc1)" style="fill:none;stroke:#000"/><path d="m220.082 566.799-.238-.808-.915-2.839-.978-3.143-.249-2.814.481-2.113 1.01-1.922 1.769-3.15 2.778-4.537 1.257-2.457.807-2.63.667-2.572.683-3.663.504-1.676.56-.983.822-1.38 1.163-1.408 1.281-1.713 2.235-2.47 3.104-3.599 3.492-3.786 3.383-3.93 2.592-2.89 2.297-2.4 2.933-3.164 2.483-2.977 4.284-4.133 4.81-4.046 4.703-3.742 3.678-3.079 3.539-3.613 2.638-2.788 2.499-3.425 2.622-3.671 2.74-3.634 1.21-1.337 1.312-1.3 2.25-1.395 2.499-1.113 2.017-.578 2.11-.57 3.889-.687 4.896-.788 5.37-.954 4.625-.83 2.227-.492 2.437-.91 1.808-1.041 1.35-.889 1.101-.917 1.312-1.337 1.14-1.69M351.265 418.015l-3.748 1.76-2.7 1.543-2.437 1.647-1.878 1.879-1.004 1.34-1.293 1.919-1.761 3.83-1.304 3.251-1.226 2.688-2.918 6.388-1.66 3.83-.963 2.037-.528 1.359-.776 1.33M507.758 332.761l-.306.406M512.793 325.806l-4.094 5.85-.94 1.105" clip-path="url(#p2ad0dfebc1)" style="fill:none;stroke:#000"/><path d="m512.793 325.806.187.6.001.109-.044.092-4.16 5.859-.147.09-.186.09-.686.115M485.874 328.805l7.108-.116 1.893.52 1.366.925 1.21 2.689.56.433.744.145 1.459-.318 1.303.057h2.577l2.266.203 1.092-.176M513.26 324.982l-.365-.7-.187-.651-.124-.817-.03-.94.022-.903.21-2.377-.031-.34-.16-.39-.252-.376-.76-.65-.683-.55-.442-.535-.272-.476-.527-.6-.551-.398-.885-.535-1.691-.94-1.46-.729-1.396-.542-.861-.203-.528-.1-.698-.051M513.26 324.982l-.467.824" clip-path="url(#p2ad0dfebc1)" style="fill:none;stroke:#000"/><path d="m539.573 303.004-2.382.876-1.49.578-1.242.592-1.21.752-1.025 1.012-1.412 1.85-2.11 3.064-1.102 1.243-.994.882-1.257.751-1.63.911-1.324.706-1.981.899-1.133.737-1.024.81-.792.75-.791.983-1.925 2.573-1.49 2.01M432.552 369.691l-.85.48M432.552 369.691l2.448-1.383M435.31 366.939l-2.233 1.232-.525 1.52M437.243 423.232l2.189-3.338.186-.766-.186-.94-.838-1.358-1.722-2.413-.59-.954-.187-1.3-.046-1.23.093-1.17.202-1.3.264-1.07.496-1.359.838-1.936 1.055-2.5.342-1.301.233-1.012.046-.68-.015-.75-.574-2.486-.404-2.24-.28-2.515-.155-1.532-.341-1.373-.9-2.168-1.009-2.4-1.21-2.5-.606-1.965-2.274-7.983-.148-.522M376.559 403.91l.97-.661 3.79-2.872 13.685-10.747 11.677-6.487 2.65-.982 7.163-2.394 4.164-2.11 10.408-7.127.636-.359M437.95 365.481l2.484-1.371 1.84.125" clip-path="url(#p2ad0dfebc1)" style="fill:none;stroke:#000"/><path d="m439.456 365.793 1.318-.744 1.5-.814M437.95 365.481l1.506.312M437.95 365.481l-2.64 1.458M439.456 365.793 435 368.308M435.31 366.939l-.31 1.37M353.247 416.946l-1.982 1.069M351.265 418.015l-1.162-3.476-.072-.277.004-.167.043-.17.127-.155 1.546-.44.132.027.077.048.07.085.267.551.95 2.905M376.559 403.91l-3.481 1.944-3.95 2.247-4.307 2.218-6.285 3.693-5.289 2.934M437.243 423.232l5.754 3.03M437.243 423.232l-.564.836M529.237 402.028l-.497.648-.658.659-.758.578-.82.566-.682.428-.496.22-.423.323-.298.382-.161.393-.298.717-.174.66-.161.473-.261.405-.435.532-.421.508-.311.37-.285.601-.278.813-.295.586-.444.576-.881 1.024-.584.678-.583.75-.385.508-.981 1.693-.76.983-.854 1.156-.373.65-.48.954-1.506 1.85-1.071 1.46-1.506.896-1.582 1.011-.9.91-1.956 2.313-.699.65-2.669 1.446-1.428.563-1.536.636-.994.766-1.474 1.243-.76.39-1.288.232-1.678-.06M208.195 619.117l1.384.547M205.113 617.361l.796.396 2.286 1.36M206.148 615.407l-1.035 1.954M206.148 615.407l-1.012-.217M204.371 617.12l.373-.904.392-1.026M221.528 576.843l-.24.664-.97 2.197-2.608 5.758-.722 1.531-1.49 3.244-1.303 3.02-2.22 5.433-1.225 2.919-.87 2.138-1.505 3.612-1.862 4.48-1.377 3.351M204.371 617.12l.742.241M294.036 199.566l.217-1.15.034-.598.028-.506.342-6.073M295.867 171.767l-.007 2.48-.373 5.58-.341 4.336-.49 7.076" clip-path="url(#p2ad0dfebc1)" style="fill:none;stroke:#000"/><path d="m285.733 185.616 1.8.94.512.354 2.654 2.24 1.032.716 1.219.636 1.707.737M300.376 196.01l-2.553 1.735-2.103 1.178-.955.419-.73.224M287.727 212.88l.388-1.468 3.57-7.4 1.25-2.364 1.1-2.082M265.154 218.416l1.8-2.06 1.032-1.713.202-.47.116-.418.031-.6.078-.377.202-.303.364-.383.148-.311.202-.68.225-.332.419-.231 1.622-.513 3.073-.954 1.063-.448.419-.29.357-.216.434-.123.683-.066 1.048.095 1.101.122 1.607.427 1.443.448.606.376 1.318 1.373.228.177.393.304.854.661 1.505.969M289.822 231.903l-.178-.759-.357-2.212-.109-1.207.18-1.106.666-1.09 2.189-2.43.34-.758.07-.868-.185-.744-.753-1.034-2.522-2.862-.877-1.366-.403-1.12-.156-1.467M289.822 231.903l-.993.802M256.308 182.089l.504.043 1.086.246 3.035 1.258 1.458.513 1.545.289 2.46.687.86.18.66.087.699-.065 2.506-.463.815-.043.877.123M285.733 185.616l-.908-.188-.978-.332-.907-.412-.738-.499-1.063-.708-.776-.217-.597-.036-.489.1-.714.377-1.754 1.12-.939.492-.66.137-.426.014-.559-.065-.69-.224-.722-.23" clip-path="url(#p2ad0dfebc1)" style="fill:none;stroke:#000"/><path d="m255.602 195.034.946-.737.87-.304.946-.065.854.058 1.87.462 1.575.362 1.412.275.97.158.637-.028.86-.239.816-.404.861-.875.435-.694.287-.752.155-1.17.404-1.323.496-1.424.83-1.843.373-.68.294-.361.59-.31.73-.196M275.785 192.23l-.047.643.132.585.248.463.404.239.52.079.946-.108.948-.181.55-.289.435-.347.582-.752 1.102-1.525.892-.947 1.172-.954 1.148-.81.536-.563.155-.542.225-1.605M308.803 162.016l-4.71 2.884-2.367 1.417-2.351 1.272-2.36 1.258-.643.39-.404.608-.108.816.007 1.106M290.816 160.585l.457 3.983.497 3.253.186.52.63.759.821.665 1.063.694.769.686.628.622M274.66 125.065l-3.872-1.576-1.133-.231-.97-.037-1.149.087-1 .268-4.175 1.323-3.516.7-3.787.695-2.165.462-2.118.492-1.49.166M228.21 159.045l.023-1.077.325-2.551.202-.925.504-.947.606-.89 2.569-2.551 1.054-1.257.63-.897.38-.694.512-1.337.457-1.135.474-.925 1.28-1.547 1.436-1.496.362-.418.317-.365.042-.048.575-.839.24-.564.45-1.337.481-1.005.808-1.17 3.344-3.073 2.824-2.79.528-.665.272-.463.38-.665M199.133 207.654l3.015 2.358M228.21 159.045l-.202 1.627-.342 2.414-.248.817-.512 1.221-1.39 2.407-2.048 3.412-1.443 2.306-1.133 1.908-.691 1.048-1.265 2.068-1.691 2.927-.59.853-.9 1.004-1.529 1.316-1.49 1.416-1.241 1.2-1.397 1.128-1.568 1.12-1.156.86-.916.94-.698.824-1.047 1.8-1.304 2.306-.52 1.207-.342 1.265-.139 1.966-.225 1.236-.248.881-.427.99-.986 1.785-1.389 2.357M142.075 208.362l.73.463.806.867 1.537 1.605.528.231.48.072.622-.137.698-.448 2.53-2.053 2.11-1.67 3.089-1.778 1.396-.809 1.258-.455 1.645-.369 4.508-.52 5.067-.506 2.871-.398 2.189-.419.644-.036.62.137.49.29.83.809 1.055 1.286.94 1.142 1.497 1.323 1.396 1.055.49.203.465.064.582-.057 1.257-.072 1.133.108.745.05.41-.079.35-.217.637-.744 1.373-1.634.869-.744.777-.347.799-.26.83-.022.776.224 2.723 1.171 1.452.687 1.854 1.28M197.254 222.957l1.121-1.274 1.243-1.748.211-.48.025-.517-.223-.938-.16-.63-.06-.537.01-2.045.42-2.467.283-.746.53-.574 1.494-.989M232.19 228.499l-.877-3.477-.403-.94-.59-.744-.737-.563-7.194-4.872-1.04-.492-1.435-.36-1.575-.138-4.222-.094-1.35.007-1.288.246-1.575.383-1.18.072-.938-.123-1.11-.498-.916-.709-.644-.91-.621-1.497-.729-1.713-.575-1.084-1.043-.981" clip-path="url(#p2ad0dfebc1)" style="fill:none;stroke:#000"/><path d="m232.079 235.241-.052-1.083-.187-1.417-.131-.997-.109-.925.117-1.113.217-.708.256-.5M237.569 230.34l-1.913-.221-1.995-.028-.512-.102-.388-.288-.271-.369-.3-.833M127.882 226.012l-.524-.145-.492-.136-1.311-.536-1.327-.766-2.142-1.893-1.8-1.72-1.513-1.583-.924-1.453-1.242-2.176" clip-path="url(#p2ad0dfebc1)" style="fill:none;stroke:#000"/><path d="m142.075 208.362-.838-.274-.784-.036-1.11.159-.814.043-.838-.137-1.544-.55-1.234-.462-.536-.044-.496.123-1.156.571-.94.304-1.676.231-1.9.101-1.374.217-1.071.434-1.071.838-6.41 4.655-1.676 1.07M354.152 174.26l-1.227 1.323-1.117.767-.993.535-1.56.506-1.07.47-.63.498-.504.774-1.024 2.212-.474.787-.512.506-.97.492-.907.274-1.087.145-.892.238-.986.333-.682.13-.59.022-.543-.13-.342-.174-.442-.694-.59-1.54-.644-1.401-.225-.319-.435-.246-.318-.035-.396.057-.93.268-.474.065-.613-.043-.559-.188-.644-.348-.722-.708-2.211-2.653-1.219-1.257-.628-.426-.675-.362-.838-.354-2.607-.86-2.15-.911-2.468-1.106-1.117-.636-.525-.322-.825-.748-2.468-2.37-2.126-2.133-2.39-2.682M449.769 354.7l.341-.537.16-.32.106-.276.066-.295-.094-.23-.182-.19-.565-.22-6.374-1.733-.974-.379M434.45 341.281l.215.982.352 1.006.085.537-.085.722-.212.735-.327.602-.02.524.166.658.388.89.406.838.51.573.617.25.731-.094.789-.135.703.055.374.188.966.618.4.292.456.16 1.289-.162M437.198 352.83l1.918.167 2.345.226 2.252.242 2.892.281 1.456.309.948.322.76.323M422.186 336.906l-.383-.17-.184-.285-.038-.336.004-.473M431.487 318.578l-1.858-1.313M429.254 321.382l1.611-1.957.622-.847M422.6 312.543l-.117.36-.021.27" clip-path="url(#p2ad0dfebc1)" style="fill:none;stroke:#000"/><path d="m423.572 314.056-.527-.251-.245-.253-.338-.38M421.394 314.818l.38-.57.688-1.075M422.6 312.543l3.605-7.223M424.084 312.388l-1.118.128-.366.027M426.26 305.204l5.381 2.68M426.26 305.204l-.055.116M421.394 314.818l-.597.473-.715.473M440.053 311.612l1.994-2.561M442.047 309.05l-2.692-1.145M439.355 307.905l-1.919 2.516M438.033 303.436l.235-.351.791.173.621.347.528.636.458.983.078.383-.04.246-.116.267-.167.256-.205.264-.861 1.265M433.007 295.62l.17.52.024.278-.008.412-.042.246-.05.155-.11.122-.22.142-.328.033M439.34 283.843l-.028-.189-.177-.2-1.854-.915M126.556 243.026l-.513-5.854-.054-1.28-.287-1.402-.202-1.163-.077-.897.093-.903.31-1.344.644-1.351.536-.955.411-.976.465-.889M637.27 119.029l-1.67.39-2.46.586-2.343.643-1.854.506-.83.094-.854-.072-.885-.195-.66-.231-1.125-.571-1.76-.998-1.274-.795-1.388-.969-.974-.784-.741-.68-.385-.459-.275-.256-.307-.228-.383-.274-.575-.434-.667-.658-.318-.528-.319-.723-.364-.918-.365-.68-.555-.683-.597-.433-.621-.362-.605-.198M582.389 119.782l.492-.84.907-1.373.435-.795.48-.687.598-.57.66-.464.8-.274.907-.08 2.367-.072 1.614.101 1.518.108 2.354.087 2.42-.016 1.103-.034.66-.102.644-.188 1.11-.455 4.593-2.096 1.467-.788 1.342-.781 1.009-.629.97-.455.706-.239.57-.021M582.389 119.782l-.16.273-.528.803-.613.751-.396.42-.496.44-.916.905-.621.65-.535.723-.412.723-.636.932-.629.73-.76.737-1.156 1.056-.559.542-.574.621-.636.846-.83 1.23-.42.563-.706.752-.877.896-.706.572M548.588 169.044l.49-.58.761-.962.784-.802 1.117-1.17 1.397-1.36 1.25-1.28.67-.632.323-.34.236-.299.54-1.012.356-.89.303-.86.295-1.286.303-.788.387-.7.412-.536.473-.433.543-.34 1.04-.557.544-.361.574-.463.59-.513.55-.556.636-.658.498-.449.597-.397.682-.362.552-.216.644-.116 1.334-.195 1.01-.152.752-.203.73-.274.776-.492.45-.44.287-.579.255-.766.094-.817-.11-1.07-.115-.773-.202-.795-.299-.73-.237-.405-.298-.344-.314-.264-.381-.238-.558-.253-.38-.246-.311-.325-.194-.44-.155-.521-.078-.933-.015-1.402.038-.629.117-.578.28-.55.612-.765M552.57 129.836l.652.21.753.23.846.225.527.137.381.13.419.217.489.275.357.137.512.08.52.043.403.065.35.123.286.26.582.55.334.274.326.188.636.202.544.181.473.239.597.419.241.123.295.094.279.05.23-.04.247-.158.5-.517.195-.13.256-.065.341.029.427.151.753.34.884.354.924.304 1.094.39M487.434 286.376l.528-.81.442-.448.598-.347.559-.202.815-.08.799.16.644.397 2.033 1.619 3.174 2.732.954.845.846.658.737.477.768.404 1.079.405.985.376 1.118.492 1.001.541.706.254.815.137.721.007.652-.159 1.536-.802.528-.18.962-.13.908.014 2.794.426 1.366.195.822.196.427.151.458.123.55.065 1.025.086 3.088.015 1.777-.03 1.475-.158.597-.159M539.573 303.004l-.623-.154-.602.034-.66.176-.77.228-.603.122-.47-.052-.508-.193-.565-.596-1.373-1.402-2.372-2.296-2.333-2.418-1.863-1.823-.603-.543-.507-.44M620.008 290.364l-.438.05-1.01.133-.57.154-.33.204-.76.884-1.28 1.387-.513.398-.55.304-.459.072-.52-.065-.706-.137-.675-.124-.388-.007-.535.073-.295.1-.14.275-.163.449-.233.505-.605.68-1.296 1.474-.543.557-.683.49-.59.37-.481.216-.396.073-.434-.022-.249-.022-.364-.159-.52-.36-.62-.37-1.08-.404-.938-.326-.575-.166-.706-.405-.776-.346-.8-.21-.643-.13-1.009-.058-1.032-.087-1.715-.26-1.272-.245-.412-.174-.372-.231-.28-.253-.458-.485-1-1.452-.38-.448-.443-.398-.566-.383-.668-.448-.884-.42-.707-.353-.333-.275-.155-.202-.016-.152M622.152 315.7l-.047-1.033-.076-2.34-.033-.44-.275-.827-.548-2.238-.066-.644.11-1.114v-.43l-.22-1.9.055-2.219.066-2.075.12-1.941-.044-.94-.12-.89-.373-1.461-.823-3.26-.11-.695.11-.573.13-.316M623.395 284.027l-.006.449-.483.746-.834 1.431-.965 1.594-.68 1.104-.419 1.013M607.41 306.522l.758.756.395.828.23.705.165 1.022.12.731.015.521v1.51l.062.5.194.39.202.26.264.18.427.225.41.245.513.195.345.152M622.152 315.7l-.486.286-.263.204-.406.225-.45.143-.691.103-.428.03-.44-.092-.416-.225-.955-.684-1.13-.634-1.207-.389-.868-.143-.625-.02-1.35.062-.615.04-.312.136" clip-path="url(#p2ad0dfebc1)" style="fill:none;stroke:#000"/><path d="m602.297 325.787.263-1.553.165-.838.34-.869.33-1.093.515-2.003.11-.767.176-.348.318-.194 1.25-.511 4.05-2.044 1.208-.613.488-.212M608.44 366.014l1.114-1.257 1.889-1.43 1.703-1.586.54-.565.708-.927.624-.8.86-.85.439-.376.64-.251.591-.19.64-.36.642-.801.304-.581.168-.518v-.613l-.05-.597-.152-.77.016-.455.102-.299.371-.455.624-.519.826-.848.354-.455.287-.629.27-.91.304-.99.303-.848.067-.58-.033-.472-.22-.535-.219-.66-.06-.627.166-.724.25-.415.473-.44.555-.388.306-.18.333-.363.195-.414.277-.543.306-.57.63-.72.846-.951.318-.5.11-.41.099-.48-.033-.46-.011-.674.175-.613-.033-.388-.24-.818-.122-.552.055-.44.198-.48.384-.552.417-.848.132-.623.055-.644-.044-.971-.154-.542-.296-.634-.11-.49-.286-1.442-.208-.633-.44-.685-.46-.879-.516-.654-.8-.838-.538-.572-.637-1.063-.417-.746-.417-1.012-.241-1.001-.187-1.534-.03-.674M436.738 352.777l.46.054M436.738 352.777l-.22 2.755M430.063 345.718l-.098.561.005.672.2.923.39 1.207.433.948.493.757.563.57.588.467.72.38.867.273 1.568.232.946.069M436.517 355.532l.455.07M436.517 355.532l-3.858-.565M434.448 358.089l.856-.608.525-.44.36-.45.217-.39.111-.669M427.128 360.127l.341-2.968M424.264 361.77l1.446.202.433-.06.325-.242.284-.454.272-.794.104-.295M434.448 358.089l-1.363 1.025-1.097.872-.465.082-1.048-.094-1.744-.29-.807.123-.796.32M424.264 361.77l-2.4-.357M424.264 361.77l.738-4.96M424.264 361.77l-.066.438M419.138 360.992l2.726.421M419.138 360.992l.785-4.963M419.138 360.992l-.073.384M416.382 360.119l2.463.78.293.093M420.604 351.11l.507-2.93.25-.397.15-.239.423-.526 3.599-1.928.776-.196.659-.022.822.148 2.273.698M434.448 358.089l-2.1-.34M434.448 358.089l.606.12M417.213 355.533l2.71.496M417.213 355.533l-.83 4.586M416.382 360.119l-1.885-1.792-1.954-1.93-1.964-1.822-.946-.932-.162-.327.053-.428.244-1.057.297-1.61.46.579.64.556 1.737 1.507 2.054 1.51 2.257 1.16M419.923 356.03l.681-4.92M419.923 356.03l2.685.426M422.186 336.906l-.79 1.374M423.572 314.056l-.784.324-1.394.438M336.44 358.937l.857-.972 1.412-.745 1.234-.354 1.11-.003.574.01.493-.17.578-.422.446-.527.415-.77.504-1.033.792-1.782.598-1.272.496-.874.491-.528.382-.267.916-.43 1.11-.727.927-.671.908-.61.596-.32.409-.107.436-.16.518-.086 1.118-.27.865-.398.799-.55.866-.751.414-.52.75-1.349.496-1.246.31-.925.34-.68.58-.827.39-.343.545-.278.506-.21.293-.188.173-.197.245-.376.327-.583.679-1.128 1.265-1.907.686-.879.83-.574.71-.451.598-.362.528-.31.574-.26.633-.2.81-.042.78.078.633.18.484.058M385.695 327.67l-.202.274-.372.362-.865.358-.695.105-.97-.036-1.094-.108-1.975-1.016-.876-.318-.714-.061-.47.112-.411.206-1.436.867-.543.434-.543.296-1.188.477-1.551.788-.455.153-.466.066" clip-path="url(#p2ad0dfebc1)" style="fill:none;stroke:#000"/><path d="m325.983 325.922.528-.434.652-.564.76-.722.807-1.012 1.552-1.778 1.289-1.691.93-1.055.963-.94.543-.679.683-1.2.838-1.531.248-.449.388-.375.31-.145.357-.087.327-.029.341-.014.76.173.76.333.792.245.962.174 1.226.188 1.863.188 1.288.086 1.117.044.978.058.466.086.605.232 1.149.592 1.148.65.807.406.683.303 1.133.39.884.39.823.333.807.318 1.009.159.76.029.621-.116.714-.217h.373l.45.13.387.246.373.332.31.622.248.751.218.926.093.881-.031.795-.14.968.016.58.124.39.217.49.31.463.373.318.497.39.388.188.651.231.575.044.713-.044.56.044.527.144 1.195.55 1.133.679 1 .744 1.455 1.506M221.528 576.843l2.01.672 2.468.903 4.062 1.69 2.96 1.474 2.833 1.496 1.241.541.74.195.797.004.939-.285 2.017-.57.854-.217.698.021.535.16.42.227.508.285.535.39.745.64 1.188 1.26.946 1.29.458.477.543.296.46.224.398.097.902.223.694.202 1.034.417.846.39 1.094.206.924.101.985.213.776.358.698.405 1.327.96 1.483 1.062 1.346.556 1.04.55.756.57 1.125 1.185 2.499 2.341 3.694 3.265 3.12 3.172 3.22 3.547 1.249.99 2.173 1.149 2.669 1.264 1.111.545.48.336.36.214" clip-path="url(#p2ad0dfebc1)" style="fill:none;stroke:#000"/><path d="m220.767 569.127.459 1.59.512 1.589.186 1.444.023 1.489-.419 1.604M172.145 381.689l2.15-.34 3.918-.65 5.33-.925 3.198-.513 2.452-.636.923-.502.76-.56M209.194 395.697l-.144-.23-.256-.575-.198-.452-.364-.633-.435-.49-.481-.294-.372-.082-.44-.045-.424-.093-.378-.177-.392-.296-.547-.553-.454-.415-.543-.409-.772-.581-.586-.546-.536-1.048-.667-1.394-.558-1.207-.722-1.04-1.49-1.858-1.77-1.8-1.552-1.257-4.236-2.66" clip-path="url(#p2ad0dfebc1)" style="fill:none;stroke:#000"/><path d="m214.18 353.647-1.742 1.044-1.06.636-.927.271-.997.025-1.273-.188-1.346.033-1.156.315-.834.45-.687.673-.427.98-.225 1.076-.081 1.156-.19.817-.365.715-.505.73-1.362.998-.954 1.112-.62 1.236-.158.633-.076.639.016 1.9-.24.944-.404.617-1.397 1.287-1.979 1.756-2.22 2.204-2.094 1.857M336.44 358.937l-.861.607-.878.336-.989.188-1.52.404-2.57 1.424-1.171 1.395-3.519 3.54-1.079 1.287-.788.347-.775.202-1.106.03-1.09.353-2.452 1.475-5.518 3.107-2.537 1.445-2.142 1.04-1.32.449-2.878 1.264-1.28.441-.753.528-1.901 1.914-.87.76-.915 1.185-2.809 3.078-1.792.896-1.592.347-2.164.062-.45.133-1.75 1.333-1.013.503-1.148.379-.792.614-.473.51-.644 1.401-.753 1.782-.427.733-.492.484-.532.268-.846.094-1.723.065-.841.281-.443.463-.337.55-.187 1.01.04 1.388.255 1.287.738 2.225 1.792 3.09.217.765.086 1.07-.05 1.123-.23 1.236-.655 1.73-.476.244-1.922.096-.671.203-1.18.719-2.708.74-.69.46-.63.653-.729 1.023-.585.408-.641.191-1.009.102-2.22-.326-2.994-.025-.575.264-1.49 1.07-.543.238-.729.123-2.379-.105-2.153-.611-1.53-1.01-.318-.527-.476-2.256-.14-.81-.527-1.174-.85-.9-2.014-1.531-1.179-.795-.827-.94-.654-1.167-.622-.564-.807-.52-.268-.264-.236-.49-.749-2.48-.38-.65-1.157-.997-1.404-.73-1.56-.412-2.722-.04-1.693.174-.718-.184-1.85-.86-1.013-.358-3.83-2.204-2.863-.878-2.375-.954-1.718-.083-.719.191-1.12.564-.975.745-.605.253-4.36.48-1.662.242-.771-.05-.303-.149M185.36 413.101l3.165-1.112 3.043-1.098 3.872-1.352 1.715-.47.845-.123 1.215-.037.603-.02.318-.046.3-.113.255-.2.262-.259.427-.658.318-.845.465-.578.486-.6.574-.535.628-.603.3-.582.243-.777.225-.747.241-.756.512-.751 1.063-1.185 1.04-1.3.962-1.324.757-1.333M276.343 321.304l-.892.238-1.467.448-1.249.528-1.335.976-1.35 1.235-1.38 1.569-.513.795-.481 1.242-.14.81.008.636.163.766.214.546.314.74.244.698.109.588.015.673-.314 1.105-.566 2.313-.916 3.884-.31 1.218-.385.72-.5.443-.617.362-1.048.155-1.106-.01-1.466-.13-1.304.086-1.164.412-2.056.954-2.514 1.228-1.8 1.164-1.227 1.2-1.56 1.9-1.598 1.843-.885.968-.822.853-.877.368-1.032.195-1.273-.064-1.101-.203-4.004-1.828-3.19-1.163-2.483-.76-1.956-.209-2.622-.08-2.491-.332-2.499.051-2.01.383-2.49.708-2.243.983-1.994 1.138M229.637 316.527l-.9 3.28-.606 1.605-.542 1.127-.218.767-.496 1.807-1.087 1.3-2.887 1.893-1.908 1.576-.807 1.156-.59 1.027-.87 1.893-.868 1.315-1.42 1.268-.706.69-.656.803-.648 1.445-.458 1.46-.178.853.023.903.163.972.24 1.102.093.831.008.607-.093.34-.31.65-.264.708-.078.578.078.839-.124.506-.225.513-.043.386.023.557.897 2.363M172.145 381.689l-1.048-.498-1.622-.947-2.603-1.434-.974-.546-.62-.267-.525-.123-.69.004-.889.018-1.482-.203-1.113-.283-.625-.18-.396-.06-.43.035-.47.177-.722.456-1.078.7-2.887 1.305M118.357 430.942l1.587-1.185 2.569-1.734 2.196-1.633 2.118-1.842 2.693-1.887 1.288-.96 1.187-.832.543-.708.353-.878.361-1.502.318-1.493.52-1.127.885-1.084 1.691-1.279 2.127-.96 1.121-.746.81-.946 1.382-1.741 1.04-1.576.695-.74.694-.372 1.114-.185 1.377-.163 2.297-.23 1.098-.293 1.079-.467.833-.639.839-.936 1.163-1.275.268-.882-.081-1.073-.194-1.152-.167-1.07.183-.802.348-.618.687-.896 1.99-2.536 2.32-2.695 2.096-2.616 1.443-1.692 1.102-1.33 1.001-.62 1.125-.514 1.77-.498 2.188-.449 1.73-.397" clip-path="url(#p2ad0dfebc1)" style="fill:none;stroke:#000"/><path d="m120.47 334.181.917 1.381 1.513 2.363.908.99.784.47.846.203 1.568.397 1.552.57.876.579.63.831.317.658.179.759.023 1.083-.233 1.012-.784 1.258-1.047 1.011-.978.766-2.134 1.28-1.529 1.445-.954 1.676-.295 1.273-.116 1.054.186 1.113.543 2.125.551 2.074.474 2.283.162 1.352-.194 2.363-.427 2.602.004.511.136.55.233.619.419.935.593 1.547.168.73.027.762-.237.636-1.118 1.47-2.863 4.047-2.592 3.809-1.078 1.676-.753 2.031-.76 3.743-1.172 5.716-1.017 4.719-.349 2.58.101 1.886.923 4.942.8 4.451.55 2.992.606 3.476.993 5.144.935 2.818M384.473 515.02l-.857-.124-2.26-.347-.546-.115-.535-.22-.727-.476-.254-.32-.12-.256-.14-.506-.117-.928-.19-.83-.225-.545-.318-.5-.353-.363-.687-.475-1.219-.632-.602-.23-.53-.103-1.118-.1-1.036-.225-.85-.372-1.66-.795-1.987-1.127-.384-.227M368.399 499.367l.249.14.428.283.264.228.159.22.114.238.05.286-.092.368-.344.512-.508.547-.732.664-.438.72-.092.476-.009.383.055.33.101.251.154.19" clip-path="url(#p2ad0dfebc1)" style="fill:none;stroke:#000"/><path d="m371.103 551.834.074-.612.062-.59.05-.74v-.728l.025-.59v-.474l-.025-.289-.075-.265-.223-.37-.41-.636-.372-.486-.385-.393-.521-.428-.708-.508-1.043-.855-1.167-.972-1.49-1.225-1.291-1.017-1.105-.925-.608-.497-.634-.416-1.055-.59-.708-.37-.82-.52-.446-.29-.336-.288-.682-.763-.249-.416-.236-.462-.161-.52-.012-.474.1-1.064.123-.879.013-.694-.075-.6v-.475l.025-.393.124-.38.31-.66.187-.485.087-.44.025-.682v-.763l.086-1.006.137-.808.136-.868.15-.6.298-.521.546-.682.77-.798.807-.763.41-.254.52-.231.981-.289.72-.15.535-.197.372-.231.335-.29.348-.6.732-1.238.795-1.27.646-1.261.558-1.307.286-1.028.273-1.122.087-.97.05-.845-.05-.809-.1-1.248-.14-2.02M417.41 459.766l-2.227 2.534-.369.712-.148.642.05 2.225-.074.689-.148.619-1.207 3.28-.198.665-.123.918v1.72l-.05.62-.27.688-6.307 7.249-.665.39-4.163 1.239-.838.32-13.5 8.19-1.3.3-1.85.202-1.51.296-1.613.52-1.149.231-1.971.394-1.238.163-1.19.068-1.281.13-.578.163-.55.296-.626.455-.457.372-1.506.95-.974.89-.698.714-.187.369-.096.388M336.44 358.937l-.481-.69-.633-1.348-.136-.537.014-.285.122-.356.194-.495.186-.542.094-.748.007-1-.046-.843-.116-.653-.079-.46M389.754 444.657l-1.292-.48-.49-.297-.538-.516-.346-.445-.163-.303-.229-.582-.55-.983-.416-.484-.45-.364-.846-.445-.402-.316-.242-.313-.205-.368-.435-.904-.578-1.098-.54-.708-.488-.404-.722-.34-.644-.462-1.024-1.272-.536-1.185-.442-1.532-.322-1.326-.218-.592-.314-.528-.457-.636-.76-.784-.585-.468-.832-.424-.597-.448-.253-.326-.33-.601-.116-.338-.058-.398.019-.484.136-1.03.15-1.298-.02-.293-.077-.298-.154-.38-.516-1.242-.628-1.308-.327-.75-.096-.3-.02-.345.03-.227.075-.136.093-.088.702-.57 1.126-.987.528-.52.414-.673.299-.765.19-1.204.154-1.14.087-.42.291-.583.45-.924.268-.954.131-1.431-.08-1.727M218.952 567.054l-.54-.622-.756-.852-.64-.712-.707-.477-.93-.506-.695-.3-.88-.227-.765-.043-.772.162-.784.192-.842.397-.613.455-.516.575-.481.776-.478.65-.803.495-.506.15-1.034.306-1.948.722-.76.289-.877.65-.403.636-.117.78-.093.672-.252.477-.613.563-1.501.658-2.352.838-2.281.715-3.035.889-1.738.628-1.528.412-.804.231-.725.224-.423.065-.36-.022-.293-.133-.484-.437-.714-1.474-.076-.228-.152-.452-.051-.154-.097-.806.175-1.113.054-.896.109-1.112-.05-.474-.036-.285-.574-1.423-.69-1.09-.536-1.117-.314-.712-.307-.578-.307-.375-.391-.29M218.952 567.054l.721-.124M220.767 569.127l-.752-.925-1.063-1.148M220.767 569.127l-.685-2.328M412.956 310.76l.426-.643.528-.65.55-.384.676-.21.83-.079M429.63 317.265l-.978-.682-1.828-1.301-.844-.41-.663-.252-.795-.29-.95-.274M404.97 319.472l2.083-1.06.406-.06.866.017.546-.178M581.763 277.749l-1.537-.667-.682-.42-.56-.52-1.023-1.518-1.521-2.182-.186-.449-.42-2.428-1.055-2.125-.093-.636.155-.592.388-.52.59-.55.854-.419 2.374-.86 1.668-.326.614-.47.194-.288-.009-.282-1.179-2.696-.427-2.414-.908-1.258-1.815-2.226-3.345-4.59-.434-.809-.342-.317-2.731-1.706-1.311-.202-.823-.058-1.18.231-1.885.593-1.149.086-.457-.13-.83-.6-.668-.845-.668-.745-.504-.36-4.097-2.314-1.086-.715-1.902-.723-1.11-.021-4.787.635-1.66.065-1.382-.238-.667-.239-4.617-2.11-.955.108-.807.318-.504.08-1.444-.109-.232-.144-1.165-1.2-.993-1.077-1.125-.694-1.692-.376-.962.268-1.622.44-1.691.124-1.21.094-.567.47-.854.925-2.53 2.066-.558.969-1.079 2.486-1.241 1.164-.342.448-.341.723-.373.448-1.443.477-2.266.202-1.49.232-1.505-.058-2.328-.26-1.382.433-1.195.65-.372.39-.73.97-2.203 2.125-2.274 1.734-2.793.976-.086.21-.737 1.46.031.686.411.903.233.21 1.327.686 1.684 1.663 1.234 2.775.419 1.128.085 1.09-.496 2.082-.171 4.568-.17.42-.77.939-1.1.751-1.313.434-.775.282-.319.252-.876 1.164-1.024 1.503-1.645 1.497-.792 1.264-2.778 3-.675.448-.435.426-.931 1.388-.179.954M463.511 266.97l-1.048-.303-.388.03-.372.13-.66.426-.753.505-.496.319-.497.44-.496.528-.598.679-.388.333-.466.296-1.303.73-.458.303-.504.398-.583.477-1.086.795-.853.513-.893.405-.496.166-.49.08-.496.007-.442-.05-.342-.087-.326-.145-.702-.354M457.19 239.495l-.321.351-.342.672-.458 1.135-.372 1.2-.148.802-.062.824.062.788.179.766.295.817 1.14 2.103.334.954.039.426-.101.55-.272.867-.45.961-.427.716-.372.491-.318.329-.35.296-.349.206-1.645.882-1 .556-.675.347-.4.141-.703.134-1.148.177-1.036.109-.71.06-.668.124-.434.26-.35.362-.364.7-.326.63-.349.635-.59.86-.504.802-.427.882-.582 1.366-.263.86-.172.839.016.433.147.52.226.456 2.793 3.288.768.911.528.484.714.687.403.607.171.426.058.304" clip-path="url(#p2ad0dfebc1)" style="fill:none;stroke:#000"/><path d="m521.59 196.938-1.153.936-.656.416-.268.073-.27.021-.567-.072-.548-.033-.527-.01-.741.112-.551.188-.567.26-.558.325-.373.195-.45.109-.419.014-1.009-.007-1.412-.123-2.382-.296-1.312-.109-.915-.123-.714-.115-1.017-.217-1.28-.181-.916.036-.613.145-.574.253-.466.354-.45.6-.496.838-.49.716-.395.441-.543.44-.528.42-.48.582-.276.589-.164.578-.07.52-.135.535-.179.615-.372.925-.147.455-.18.65-.092.846-.062.752.031 1.533-.07.722-.163.615-.38.96-.497 1.013-.869 1.438-.582.968-.528.687-.55.6-1.832 1.54-2.382 1.77-.613.376-.605.239-.738.145-.807.057-1.536-.05-1.839-.094h-1.04l-1.303.093-.722.13-.543.138-.707.282-.884.462-1.195.687-3.12 1.988-1.187.65-.853.55-.714.592-.892.904-.707.708-.442.563-.303.76-.155 1.207-.132.635-.318.63-.559.816-.419.773-.21.572-.092.671-.21.998-.272.535-.45.498-.815.76-.636.773-.45.719-.372.466-.314.228-.33.09-.446-.004-.416-.122-.528-.293-.504-.398-.652-.462-.651-.267-.645-.138-.455.026-.48.165" clip-path="url(#p2ad0dfebc1)" style="fill:none;stroke:#000"/><path d="m456.076 233.484.071.175.287.427.303.455.442.643.225.434.147.398.004.045.028.33-.005.38-.02.3-.045.354-.323 2.07M626.28 152.68l.186-3.122.931-2.024.249-2.14.062-3.354.31-3.122-.31-1.388.187-1.908-.25-2.082.746-1.099 4.594-4.742 2.172-2.197.807-1.33.311-1.504.31-1.966.684-1.673M471.445 206.672l.415-.876.536-1.026.272-.686.426-.998.225-.42.24-.252.35-.217.854-.484.465-.355.42-.375.76-.832 1.652-2.255.66-.693.652-.571.613-.463.714-.369 1.614-.723.776-.426.458-.354.318-.354.225-.354.24-.694.575-1.684.566-1.265.373-.593.302-.304.466-.296.939-.6.364-.282.482-.405.566-.65.94-.99.659-.882.752-1.048.784-1.048.574-.665.303-.412.17-.318.14-.376" clip-path="url(#p2ad0dfebc1)" style="fill:none;stroke:#000"/><path d="m516.697 150.718-.178-.021-.164.058-.155.116-.334.325-1.082 1.138-.493.553-.442.531-.229.246-.314.285-.361.308-.62.524-.459.386-.422.416-.986.918-.434.354-.56.282-.745.275-.473.188-.458.31-.333.275-.823.723-2.32 1.966-1.358 1.171-.815.773-.574.398-.667.412-.567.42-.38.296-.419.412-.536.614-1.124 1.51-.575.775-.201.542-.024.354.117.484.317 1.12.132.63.016.498-.054.528-.155.498-.396.672-.35.564-.232.586-.132.592-.117 1.258-.046.485-.14.39-.178.318-.264.419-.55.607-.303.383-.327.456-.217.433-.271.593-.303.556-.334.456" clip-path="url(#p2ad0dfebc1)" style="fill:none;stroke:#000"/><path d="m489.24 168.596.57.381.65.361 1.11.405.218.239.194.289.077.571-.007 1.07.054 1.127-.031.709-.116.657-.187.666-.341.99-.101.629.031.404.147.29.334.325.18.146.356.287.582.672.24.441.132.47.023.745-.07.607M551.157 129.718l-.255.407-.442.477-.365.387-.24.184-.42.246-.574.296-1.342.709-.83.47-.497.34-.497.404-.939.838-1.241 1.142-.947.998-.714.831-.527.694-.582.867-.606.853-.77 1.085-.51.788-.411.817-.583 1.271-.372.73-.395.738-.459.672-.45.63-.317.606-.257.622-.38.78-.427.709-.558.788-.753.896-.714.803-.42.419-.589.455-.683.463-.613.398-.66.317-.643.232-.598.086-.512-.05-.45-.094-.504-.18-.505-.254-.628-.397-.854-.542-1.07-.622-.575-.231-.365-.094-.434-.044h-.373l-.388.037-.357.093-.473.195-.551.145-.458.087-.419.058-.675-.007-.365-.037-.334-.137-.387-.231-.272-.174-.21-.195-.504-.629-.217-.145M522.57 133.03l.195 2.19.093 1.352-.008 1.107-.047.983-.08.437-.132.303-.168.348-.294.502-.49.78-.201.579-.046.412-.033.347-.069.267-.132.297-.225.499-.597 1.214-.536 1.055-.558 1.106-.636 1.02-.66 1.127-1.25 1.763M465.598 151.376l.83 1.128.753 1.07.373.462.489.47 1.195.983.427.224.38.109.558.065.482.086.225.08.255.202.28.362.404 1.019.403 1.034.21.44.256.34.387.412.567.405.388.166.35.035.364-.002h.524l.357.047.337.108.83.355.59.274.326.268.186.253.35.614.334.571.356.42.481.433.714.528.768.448.846.448.908.426.497.311.512.369.52.527.442.333.667.42.76.36.342.138.326.08.555.079.462.076.563.119.513.125M551.83 128.553l.182.43.248.47.31.383" clip-path="url(#p2ad0dfebc1)" style="fill:none;stroke:#000"/><path d="m551.157 129.718.622.038.365.022.426.058M551.83 128.553l-.167.285-.303.557-.203.323M433.255 158.113l.76.217.776.13 2.266.159 2.104.065 1.893.08.466-.03.434-.093.73-.224 1.093-.355.816-.245.542-.087.474-.022.613.058.458.116.892.368 1.451.622.838.275.42.065.519.007.466-.072.419-.13.814-.282 1.08-.347.558-.253.388-.253.559-.434.458-.347.364-.275.699-.505.908-.637.682-.419 1.11-.65 2.048-1.142.761-.456.76-.401.719-.307 2.005-.933M330.298 287.503l4.92 5.059 1.256 1.619 3.795 5.586 1.032 1.02.892.657 2.042.882 1.101.614.792.579 3.228 3.121.76.513.87.326 1.094.144 5.998-.166 1.404.145 1.165.26 1.016.534 2.995 2.306 1.676.961 4.447 1.691 6.464 2.544.706.39.567.513.302.536.186.592.288 1.734.488 1.944.427 1.142.466.925.566.716 1.024.96 2.344 1.894.365.239.223.082.099.037.4.069M439.34 283.843l-.04.246-2.053 5.925-.28.635-.382.52-.438.543-3.14 3.907M439.34 283.843l2.746 1M421.342 306.777l.38-.08.192.019.12.097.106.246M234.777 232.466l1.864-.618.272-.162.168-.258.488-1.088M240.675 232.46l-1.72-1.553-.598-.318-.788-.249M120.47 334.181l-.216-.324-1.04-1.402-1.582-1.424-3.058-2.406-3.437-2.79-8.342-6.663-.978-.867-.497-.81-.496-1.272-.093-1.373.248-1.503M178.69 274.094l-1.137.776-4.648 3.411-1.32 1.084-.504.528-.271.47-.551 1.43-.667 1.764-.544 1.07-.248.607-.249 1.019-.232.679-.365.774-1.171 1.944-1.816 2.984-.722 1.077-.652.658-1.171.954-1.343.918-.73.57-.845.919-.963 1.149-.907 1.48-.357.753-.086.6.14.722.411 1.626.07.853-.054.925-.28 1.59-.015 1.41.124 2.08-.023.803-.225.737-.357.463-.551.31-.714.138-.908.137-.908.383-.48.267-.265.448M182.333 271.488l-1.892 1.353M193.28 256.494l-1.31 2.244-2.87 3.716-1.304 1.553-.69 1.178-1.157 2.168-1.777 2.639-1.84 1.496" clip-path="url(#p2ad0dfebc1)" style="fill:none;stroke:#000"/><path d="m182.93 275.044 1.467-1.107.078-.195-.07-.223-.373-.362-1.7-1.67M274.66 125.065l1.156-.275 1.342-.246 1.149-.166 1.024-.31.745-.5 1.63-1.416 1.366-1.648.86-.904.823-.723.466-.578.201-.622.009-.687-.187-1.04.023-.846.31-.882.66-1.214.582-.608.56-.36.48-.391.31-.5.133-.65.07-.657.434-.897.559-.585.83-.6.318-.152.667-.072.598.029.644.332.83.455.885.383.97.21.791.116.59-.123.613-.203.605-.122.497.057.66.21.597.043.667-.115M290.816 160.585l-.179-1.395-.55-4.676-.497-4.381-.171-.925-.443-1.446-.294-.614-.443-.354-.581-.21-3.485-.846-1.59-.585-1.312-.68-1.637-1.142-.745-.722-.38-.586-.194-.622.03-1.04.893-8.718-.124-.998-.326-1.496-.35-1.525-.371-.745-.497-.484-.613-.34-2.297-.99M290.816 160.585l-1.94.31-2.142.189-1.42.195-2.103.506-.533.086-2.276.37-4.105.585-1.777.21-2.134.021-1.66-.274-2.639-.507-2.483-.628-.978-.455-.722-.434-.465-.528-.97-1.359-.396-.34-.419-.152-.566-.122-1.692-.369-1.195-.42-.807-.1-.745.137-.737.31-.87.615-.682.607-1.032.846-1.032.759-.52.52-.443.73-.52.969-1.373 1.771-1.342 1.453-.49.542-.286.462-.163.738-.055.824-.162 1.51.108 1.352.272.839.232.607.132.925.202 1.28.28 1.098.248.94M312.244 291.942l-2.044.447-2.328.795-1.273.838-.916.853-.279.33-1.164 1.809-1.365 1.807-1.18 1.17-.59.897-.17.766-.233 3.41-.186 3.31-.63 2.314-.395.715-.52.52-.846.463-.993.217-3.135.267-1.265.332-1.575.868-1.963 1.395-2.84 2.038-2.274 1.676-1.52.91-1.025.492-1.405.39-1.746.18-2.04.153M226.355 297.506l-.171 1.04v.47l.225.687.194.513.256.224.271.087.769-.095.76-.368 1.366-.839 1.893-.823.606-.333.962-.65 1.84-1.474 1.249-1.027.876-.361.962-.231.644-.065.738.158.846.579 1.194.91 1.126.579 1.567.404 1.459.123.714.05.357.13.334.254.248.614.628 1.698.9 1.612 1.374 1.937.986 1.3.869 1.417.38.556.466.362.674.275 2.142.513 1.374.267.752.268.505.368.636.759 1.125 2.009 1.886 3.671.923 2.089.373.723.295.26.55.086.761.217.369.264.337.61.47.702.423.246.892.108.745-.03.978-.15 1.063-.066 1.18-.029.76-.036.629.16.574.201.892.196.962.332.83.347M312.244 291.942l2.317-.507 7.278-1.677 5.494-1.214 1.785-.535 1.18-.506M312.244 291.942l-.368-.377-.606-.643-.184-.315-.219-.372-.45-.759-.38-.44-.753-.666-.365-.31-.248-.412-.101-.47v-.557l.062-.578.078-.925-.016-.213-.073-.145-.144-.06-.194-.008-.423.119-.57.162-.489-.014-.613-.123-1.676-.52-.636-.13-.582-.08-2.748-.238-2.242-.412-1.032-.34-.87-.513-.643-.484M232.079 235.241l2.032-.177 2.859-.993 2.884-1.033.821-.579M232.36 236.81l-.193-.7-.088-.869M237.312 235.578l-2.248.762-.364.086-2.34.385M182.93 275.044l-2.489-2.203M178.69 274.094l1.563 1.564.71.524.257.068.302-.09.548-.329.86-.787M178.69 274.094l1.751-1.253M146.3 203.305l-1.008.456-1.094.619-.294.291-.186.447-.117 1.547-.058.347-.147.255-1.32 1.095M401.682 340.932l-.237-.163-.98-.46-1.576-.678-.62-.036-.679.129-.669.292-1.265.632M435.053 321.37l2.368 1.416M398.638 331.805l.161-.29.308-.731.017-.253-.126-.33-.853-1.365M398.638 331.805l.724.834M429.786 316.017l-.605-3.429M424.084 312.388l.016.851.777.264.27-.075 2.08.705 2.559 1.884M433.558 310.322l.147.436-.273.398-.54.123-2.378 3.293.04.46-.768.985M429.63 317.265l.071-.384.085-.864M406.005 321.143l-.562-.9-.473-.77M404.07 318.325l-1.618.955" clip-path="url(#p2ad0dfebc1)" style="fill:none;stroke:#000"/><path d="m410.779 319.443-1.769.397-.749.262-.77.29-.72.342-.766.409M424.084 312.388l3.033-.45M426.724 307.272l-.442.116-2.18 4.699-.018.301M430.097 308.362l-2.51-1.258-.863.168" clip-path="url(#p2ad0dfebc1)" style="fill:none;stroke:#000"/><path d="m426.205 305.32.12.403.4 1.55M427.622 309.994l-.28-.535-.272-1.005-.346-1.182M433.558 310.322l-3.174.922M430.097 308.362l3.342 1.676.12.284" clip-path="url(#p2ad0dfebc1)" style="fill:none;stroke:#000"/><path d="m435.14 309.677-.573.237-1.009.408M435.14 309.677l-.977-.493M429.595 321.647l-.341-.265M429.595 321.647l-1.593 1.11M422.608 356.456l2.394.354M422.608 356.456l.665-4.974M422.608 356.456l-.744 4.957M423.273 351.482l2.522.372M425.795 351.854l.497-3.552-2.737 1.214-.282 1.966M423.273 351.482l-2.669-.371M420.604 351.11l-1.54-.469M425.795 351.854l-.793 4.956M428.128 352.594l-.725-.442-1.608-.298M425.002 356.81l2.467.35M427.47 357.16l2.296.306M427.47 357.16l.658-4.566M430.185 354.093l-1.003-.678-1.054-.82M429.766 357.466l2.583.284M429.766 357.466l.419-3.373M430.185 354.093l2.474.874M432.349 357.75l.31-2.783M423.885 363.945l.313-1.737M413.795 367.272l-.227.652-.31 1.763-.249.867-.34.52-.684.55-1.49.491-1.303.318-1.832.116-1.613.404-.807-.029-.808-.809-.9-.347-.931-.058-.776.145-.652.549-.683 1.127-.558.665-.652.925-.528.896-.496.463-1.708.722-.9.492-.973.596-.703 1.167-.434 1.012-.249.549-.465.405-1.149 1.3-1.676 1.59-1.49.838-.869.26-.776-.028-.59-.347-1.148-.839-.683-.058-1.055.087-1.335.434-1.583.78-.838.752-.714.694-.683.896-.279 1.445-.093 1.243-.373.723-.682.953-.59 1.012-.28 1.532-.248.549-.497.665-1.148.694-1.335.838-1.893 1.85-1.614 1.416-1.676 1.33-1.739 1.127-.93.462-.56-.057-.372-.52-.528-1.764-.279-1.185-.434-.636-3.85-1.07-2.545-.635h-2.204l-.558-.347.03-1.503-.092-2.833M444.526 285.744l-2.44-.9M470.536 208.414l-.5.7-.558.795-.512.832-.613 1.336-.94 2.017-.566 1.12-.349.644-.31.433-.35.427-.682.7-.427.521-.535.817-.667.925-1.056 1.337-.9 1.099-.31.303-.365.275-.31.275-.443.383-1.234 1.09-.838.688-.613.65-.287.426-.21.434-.217.723-.349 1.17-.318 1.064-.179.65-.232.947-.047.607.109.672.186.607.162.403M426.027 193.465v.351l-.212 1.117-.376 1.052-.965 1.972-.4 1.665-.54 1.425-.472 1.007-.14.351.07.417.118.635-.188.263-.118.986-.023 1.884-.118 1.49-.118.613.094.351 1.53.877.987.744.87 1.38.424.834.33.35 1.01.548 2.377.898 3.01 1.008 3.811 1.073.683.11.588-.11.447-.109.753-.131 1.082.153.517.11.588.372.518.395.517.504 5.081 4.973 1.082 1.49.424.526.141.328.141 1.38.053.296.088.494.306.306 1.717 1.402 1.318 1.337.753 1.14.446 1.314.236.438.281.197.706.088.622-.275M470.536 208.414l-.316-1.408M471.445 206.672l-.12.252-.357.788-.302.52-.13.182M470.22 207.006l1.225-.334M453.895 217.37l1.246-.505 2.306-.438 1.34-.263.918-.701.964-1.008 1.06-1.6.728-1.095.965-1.271.988-.789.706-.964.964-1.314.659-1.381.117-.388.33-.16h.258l.75.41.437.237 1.59.866M548.588 169.044l-.293.345-.675.658-.574.405-.552.325-1.078.535-.986.426-1.97.795-.63.268-.628.303-2.7 1.417-1.21.535-.854.296-.955.253-1.877.485-.776.267-.761.307-1.296.481-1.327.542-.861.383-.675.354-.582.492-.559.694-.474.795-.287.708-.209.701-.225 1.034-.264 1.084-.303 1.07-.333 1.127-.272.875-.14.715-.1.701-.016.716.04 1.142-.063 2.154-.186 1.398-.12.713-.117.357-.155.29-.303.296-.314.278-1.218 1.077-.12.097M508.838 187.865l.678.897.641 1.03.32 1.095.25.697.785.498 1.569.466 1.997 1.195 4.207 2.192 2.305 1.003M584.808 124.559l-.27-.831-.621-1.284-1.528-2.662" clip-path="url(#p2ad0dfebc1)" style="fill:none;stroke:#000"/><path d="m594.854 201.105-1.576-1.03-1.693-1.775-1.6-.657-1.952-.263-3.153-2.256-1.787-1.052-3.035-1.052-1.34-1.03-2.753-2.695-1.882-1.293-1.364-1.095-3.74-4.755-2.376-4.295-.918-1.818-.729-1.227-.988-.723-2.87-1.446-1.388-.767-1.458-.417-1.623-.153-2.682-.154-2.47-.766-1.623-.592-1.266-.75M438.27 314.018l-1.6.592-.328.027-.32-.087-1.085-.67M428.002 322.756l-1.474-1.2M447.678 426.009l-4.68.252M442.997 426.261l-2.956.528M417.41 459.766l-1.8.031-.586-.273-.273-.382-.313-1.02-.294-.492-.41-.346-4.38-3.004-.47-.637-.684-1.675v-.546l.293-.455 2.483-1.876.411-.51.196-.71.044-1.234-.09-.452-.248-.28-2.032-1.008-.294-.271-.138-.314-.351-1.94-.333-.418-.47-.164-.566.091M428.494 448.155l2.26.76 1.773.367 2.168.16M434.621 428.91l1.84-.483M428.494 448.155l.138-.794.23-1.507.175-.65.272-.597.557-.656.828-.847.404-.318 1.987-.968.605-.39.434-.55 1.381-2.992.544-1.835.248-.65 1.506-2.255.139-.824-.093-.621-1.388-3.274M436.56 424.258l-.423 2.474-.026.671.108.454.242.57M429.142 422.337l1.452-1.778M421.716 422.93l1.25.158 1.179.275 2.887.686M420.017 422.972l1.7-.043M430.594 420.559l-1.133-.18-.427-.146-2.305-1.047-.442-.094-1.187-.116-.389.058-.434.145-1.459.954-.504.563-.598 2.233M436.68 424.068l-.616-.07h-.225l-1.055.282-.768.094-.59-.123-.365-.289-.163-.404-.147-2.24-.194-.246-1.056-.557-.357-.065-.55.109M436.68 424.068l-.12.19M436.56 424.258l-1.675 1.556-.064.149-.039.535-.038.115-.518.474M428.494 448.155l-1.214 2.102-.481.896-.76 2.168-.373.607-2.498 2.095-3.492 2.616-2.266 1.127M516.986 585.054l-.546.035-.31-.012-.299-.069-.173-.115-.038-.174.05-.288.21-.243.448-.451.36-.486.223-.439.162-.566.087-.66-.012-.531-.162-.486-.373-.635-.707-.925-.82-1.006-.297-.462-.112-.381-.063-.394.05-.393.125-.323.26-.382.41-.44.546-.647.335-.439.199-.381.236-.67.013-.52-.038-.59.112-.37.248-.324.447-.312.782-.254.832-.174.82-.115.484-.116.335-.208.807-.705.658-.393.596-.22.633-.092.82-.104 1.502-.266.807-.277.795-.416.831-.613 1.615-1.376.608-.74.832-1.295.986-1.687M500.373 554.1l.856.48.876.15 2.44-.014 1.61-.036 1.052.04.999.102.883.108.561-.054.656-.179 1.699-.733 1.524-.78.556-.202.735-.077 1.721.088 1.92.18.668.242 1.999 1.3 2.137 1.467.44.302.091.063 5.435 3.558 1.974 1.27.722.393.373.156M560.499 354.251l-.232-.308-.281-.624-.195-.825-.194-1.34-.27-1.106-.368-1.057-1.091-1.47-.422-.735-.292-.674-.183-.745-.25-.624-.313-.514-.648-.614-.735-.674-.551-.614-.573-.694-.638-.856-.81-1.198-.736-.926-.832-.805-.994-.775-.984-.684-.843-.444-1.07-.453-1.265-.402-1.134-.352-.81-.202-.552-.08h-.606l-.572.02-.573.1M550.48 320.513l-.162.744-.259 1.057-.14.715-.033.524.054.623.184.755.27.897.346.976.573 1.268.389.624.41.403.087.262.043.241-.032.252-.119.201-.378.171-1.027.262-.735.262-.702.301-.725.514-.583.504-.346.312-.465.352-.486.332-.54.332-.541.202-.616.11-1.243.07-.735.122-.887.2-.432.242-.168.233M560.499 354.251l.298.397.93 1.057.713.986.713 1.238.66 1.309.615 1.52.249.443.227.16.4.161.356.061.93.02 1.275-.13.39.01.389.16.4.383M560.499 354.251l2.891-.402 1.966-.26.426-.182.328-.23.295-.411.196-.55.099-.64-.05-.672-.081-.717-.197-1.052-.098-.855.065-1.083.082-.87.082-.595.23-.35.802-.52 1.082-.655.737-.428 1.114-.472.819-.382 1.18-.9 1.425-1.114 1.36-.976 1.375-1.022M409.83 366.977l2.108.14 1.857.155" clip-path="url(#p2ad0dfebc1)" style="fill:none;stroke:#000"/><path d="m419.065 361.376-.35 1.836-.7 4.714-4.22-.654M219.673 566.93l-.217-.81-.31-.924-.56-1.69-.48-1.518-.56-1.892-.325-1.445-.264-1.098-.233-1.113.031-.607.233-.953.341-.738.311-.809.543-.925.683-1.069.838-1.445.636-1.156.42-.68.108-.418.016-.448-.11-.448-.201-.39-.698-.708-.372-.26-.435-.159-.636-.072-.575-.015-.31-.043-.233-.174-.17-.26-.156-.462-.233-.838-.325-.925-.311-.636-.388-.621-.295-.983-.062-.52-.015-.838.03-.52-.155-.39-.232-.275-.295-.159-.28-.043-.527-.087-.482-.072-.605-.115-.326-.073-.465-.144-.372-.203-.357-.289-.311-.375-.342-.535-.294-.52-.218-.434-.295-.376-.372-.289-.372-.26M219.673 566.93l.409-.131M438.033 303.436l-3.87 5.748M431.641 307.884l3.663-5.551 2.73 1.103M434.163 309.184l-2.522-1.3M448.525 496.612l-.391.263-.32.122-1.092-.052-1.524-.106-.452.053-.244.175-.302.42-.508.842-.545.928-.64.842-.584.806-.734.893-.771.824-.565.508-.489.263-.433.122-.734.176-.47.052-.508.053-.621 1.033-.509.684-.903 1.279-.206.456-.057.473-.02.613.02.911-.075.684-.113.543-.207.42-.508.719-.79 1.138-.546.806-.358.614-.264.736-.131.63-.057.561.075.473.188.456.189.386.282.402.264.456.282.526.169.736-.019.613-.037.508-.075.49.037.456.245.579.15.613.076.928.112 1.84.17 1.682-.02.544-.13.368-.452.455-.753.666-.508.525-.414.509-.17.49-.188.736-.188.877-.301.98-.282.596-.358.368-.433.228-.433.246-.357.402-.207.561-.245.683-.019.456.264.526.15.315.02.315-.076.368-.188.474-.301.28-.377.262-.527.298-.602.298-.62.333-.396.21-.207.193v.228l.207.105.414.017.49-.017.658-.123.941-.14.866-.262.903-.228.414-.036.339.088.17.193-.02.228-.113.315" clip-path="url(#p2ad0dfebc1)" style="fill:none;stroke:#000"/><path d="m447.651 517.628-.062.301-.161.254-.385.22-.534.139-.509-.058-.683-.185-.956-.266-.57-.324-.622-.624-.348-.66-.322-.727-.435-1.33-.16-2.196.011-.855.087-1.006.336-1.19.335-.545.323-.38.496-.266.683-.186.596-.138 1.068-.197.869-.07h.67l.609.047.757.092.72.035.397.058.658.208.373.116.36.011.348-.104.26-.162.174-.208-.012-.266-.161-.37-.596-.716-1.416-1.85-.608-.913-.273-.509-.162-.532-.062-1.33-.074-1.132-.087-1.63-.067-1.038.009-.534M424.198 362.208l1.53.186.373.051.489-.252.341-.441.435-.868.248-.498.325-.195.459-.102.667.044 1.226.224 1.226.159.396-.03.334-.107.512-.383 1.474-1.099.82-.688M436.972 355.602l-.132.693-.108.319-.179.325-.442.484-.784.556-.273.23M419.065 361.376l5.133.832M437.198 352.83l-.117 1.695-.109 1.077M440.41 289.238l1.676-4.394M430.097 308.362l-1.2 2.147M428.897 310.509l1.487.735M427.622 309.994l.271.058 1.004.457M430.384 311.244l-1.203 1.344M429.181 312.588l-2.064-.65M427.622 309.994l-.412 1.336-.093.608M392.053 335.335l-1.04-.16M391.012 335.175l-.103.203-.2.096-.43.032-.949-.054-.674-.085-.264.107-.045.223.125.234 1.98.32.457-.117.607-.33.537-.47M389.948 333.14l.504.362.4.544.16.458v.671" clip-path="url(#p2ad0dfebc1)" style="fill:none;stroke:#000"/></g><g id="PatchCollection_1"><path d="m613.52 261.106 2.794 1.474.714.318.59-.318.62-.029.559.347.466-.838-2.05-2.226-1.148-1.185-.341-.521-1.055.983-.87 1.185zM620.039 264.69l.962-1.59 1.272-.462 3.26.144 1.49.607.62 1.07 2.452 1.07 1.987.954.962 1.59 1.21 3.122.621 1.128.963.578 1.552-.116 1.52-1.127.807-2.573.776-2.4.528-.752 1.49-1.3 1.521-2.69-.186-.866.714-.838 1.8-1.417.558-.144.435.433.372 3.642.497 1.417.124.694-.372.607-1.242 1.474-.465 1.128-.435 2.66-.28 3.642-.775 1.503-1.304.78-1.117 1.62-.807.925-.249.347-1.862.81-1.831.635-.342.868-.31 1.503-1.366.809-.87-.115-1.458-.55-2.204-.347-2.483.203-1.83.694-.59-.03-1.274-1.04.062-.462.714-.55-.093-.636-.558-.23-.962-.117-.497-1.012.062-.78.838-3.585.31-.578-.062-1.821-.62-1.59-.528-2.053-1.118-1.937-1.396-1.532zM496.893 307.933l-1.8 3.151-1.397.608-.218.808.683 1.302.807-.087 1.646-.376 1.303-1.04.559-1.157.372-2.11-.59-.839-.838-.23zM436.81 386.957l-.761.073-.714.81-.062.707.853 1.43.295.926 1.118-.665.155-.694-.078-.853-.341-1.17zM436.204 391.38l.574 1.648h-.31l-.202-.319-.404-.78v-.303zM435.32 383.46l.232.289-.077.506-.947 1.054-.295.13-.357-.476zM437.616 390.758l-.527.145-.544.39.575 1.677.31-.405.047-.434.108-.722zM398.38 335.903l-1.115 1.588.592.955.455.56 1.235.256 1.098.49.8.266.777.021-.769-1.04-1.135-.506-.826-.689-.371-.715-.354-1.07zM386.185 342.02l-.04.743-.04.277-.122.101.135.1.135-.088.108.177.081.251.162.013.324-.025.243-.151.109-.277h.148l.23-.05.162-.39.216-.177.311-.013.27.05.27-.15.19-.214.27-.214.135-.125.432.05.216-.063.122-.138.23-.063.162-.088.108-.24.054-.239-.081-.213-.378-.202-.73-.264-.392-.05-.284.578-.337.151-.163.29-.148.29-.203.2-.391.013-.392.063-.243-.151-.284.063-.27.038zM402.371 340.58l.153.171.236-.019.143.086.144-.19.133.104h.215l.112.038.134-.209.215-.02.164-.133.225-.372-1.126-.629zM406.53 342.496l.086-.153.154.062.174.144.297.166.097-.062.2-.176.174-.234-.184-.362-.256-.134-.481-.176-.2-.024-.18.196-.168.243.127.243-.178.033-.083-.12-.22.206.006.105.256-.034zM391.2 321.715l1.247-.822 1.282-.492.33-.92 1.081-.635.706-.384.917.033.589-.362.347-.664.14-.575.448-.405.558-.086.706.066 1.246-.22 2.1-.546 1.382-.516.7-.442.55-.463.418-.399.473-.642.33-.21.86-.681.774-.483.448-.2.41-.094.624-.067 1.011-.132.386-.303.32-.474.37-1.395.142-.608.102-.47.222-1.197.204-.87.095-.22.405-.632.695-.655.988-.8 1.732-1.376 1.077-.902.946-.72.778-.365 1.312-.59 1.858-.737.894.06 1.969.093 1.055.113 2.071-.158.912-.018.5.07.778.279.333.25.485.287.983-.25.901-.845.396-.977.542-2.589.362-.734 1.09-1.122 1.037-1 .14-.447.162-.243.348-.204.727-.104.578-.437 2.04-1.184 1.104-.716.925-.835 1.075-.911 1.432-1.94.166.086-1.446 1.99-.966.906-2.049 1.596-1.25.72-.779.428-.794.523-.842.247-.101.224-.216.532-.45.478-.513.57-1.03 1.092-.235.496-.147.503-.185.938-.372 1.349-.222.532-.336.532-.458.397-.38.311-.046.606-.136.286-.203.304-.454.805-.464.83-.463.872-1.066 1.746-.598.89-.294-.14.98-1.551.79-1.368.9-1.503.714-1.154.05-.408-.53.291-.49.007-.394-.089-.41-.282-.508-.332-.384-.224-1.15.066-1.345.1-.744-.048-1.27-.133-.975-.07-1.566-.081h-.216l-.292.107-.426.193-.903.347-.99.415-.936.47-.687.518-.592.47-.407.362-.446.355-.605.455-.617.445-.435.352-.613.472-.695.566-.416.423-.34.521-.192.424-.095.386-.145.81-.257 1.654-.136.604-.146.496-.16.495-.362.53-.192.184-.279.246-.505.078-.617.115-.705.065-.44.12-.944.542-.488.38-.65.538-.582.696-.524.51-.475.377-.521.332-.5.246-.488.193-.668.22-.678.175-1.116.352h-.648l-.83.125-.66.129-.453.199-.393.448-.138.349-.121.537-.324.295-.576.269-.894-.044-.723.142-.195.099-.953.655-.127.413-.197.357-1.14.557-.994.46-1.504.922-1.154.42-1.126.268-.262.12-.293.227-.073.072.002.18-.036.045-.055.153-.05.18-.077.203-.013.076.165.31.064.217.018.637.14.418.041.183.005.072-.012.127-.054.049-.136.082-.298.163-.6.125-.353.196-.769.145-.837.806-.525.254-.027.008-.026-.01-.403-.285-.176-.348.021-.013.174.347.388.267.022.014.015-.003.518-.248.851-.813.757-.15.354-.196.6-.136.408-.24.05-.043.004-.065-.011-.103-.06-.158-.132-.425-.021-.156-.027-.47-.08-.228-.08-.138-.092-.217-.005-.108.092-.201.047-.168.02-.138-.025-.195-.008-.144.18-.115.344-.244.392-.123.722-.171.74-.187.386-.182zM392.875 301.55l-.222.158-.063.174.018.174.09.166.115.166.16.266.232.14.178.076.276.09.322.076-.08.09.017.126.143.1.152.057.186.108.108.083.151-.074.142-.191.01-.2-.018-.182-.071-.108-.125-.1.08-.307-.08-.083-.232-.075-.241-.033-.205-.008-.214-.067-.16-.107-.107-.092-.054-.133.018-.1-.071-.09-.214-.084zM389.098 303.707l-.084.025-.072.116.005.124.115.15.125.095.143.013.388.124.124-.037.067-.104-.013-.116-.085-.154-.165-.1-.352-.145zM385.688 296.893l-.02.162.081.276.052.134h.112l.226.086h.255l.512-.134.154-.019.205.153.563.124.44.18.134.153.255-.01.38-.075.276-.134.092-.238-.082-.191-.184-.2-.041-.143.02-.134-.245-.019-.103.019h-.235l-.257-.038-.255-.067-.154.048-.267.038-.153.105-.174-.048-.184-.019-.123.105-.225.22-.195.028-.328.01-.164-.086v-.172l-.102-.171-.123-.087zM379.661 296.378l-.41.162-.163.105-.093.152.031.19.164.096.143-.085.205-.086.256-.144.144-.114.03-.114-.143-.134zM373.307 266.209l.144-.687.02-.59.266-.402.061-.496-.122-.457.102-.572.266.038.594-.038-.082.725-.02.61-.04.477-.206.839.02.763-.307.591-.327.076-.758-.114zM367.184 266.304l.43-.133.287-.152.204-.363v-.343l-.347-.153-.39-.267-.368-.286-.39-.324-.429.019-.226.381h-.347l-.328.362-.143.459.163.209.512.038.492.248.553.439zM399.04 331.96l.101.151.071-.052.061-.07.089-.133.074-.149.247-.601.157-.447.04-.224-.003-.155-.044-.19-.12-.225-.393-.653-.458-.656-.18.11.444.663.406.664.094.226.02.129.003.13-.022.134-.066.235-.14.325-.187.47z" clip-path="url(#p2ad0dfebc1)" style="fill:#00f;fill-opacity:.8"/><path d="m398.862 328.556-.15-.36-.041-.12-.307-.315-.186-.086-.264.007-.225.094-.28.101-.147-.007-.34-.257-.19-.214-.256-.346-.25-.365-.277-.44-.216-.365-.047-.264-.088-.353-.48-.144-.121-.182-.183.03-.081-.1-.061-.321-.081-.258-.19-.144-.154-.038-.136.132-.25.277-.27.22-.148.069-.277-.05-.372-.554.007-.667-.034-.409-.128-.094-.44-.17-.54.145-.567.189-.392.069-.365-.063-.222-.139-.233-.38-.092.034.058.136.115.214.352.242.138.085.098-.01.155.007.264-.022.192-.047.156-.066.51-.167.415-.098.149.07.176.062.084.098.04.412-.01.274.028.371.053.066.2.334.118.163.132.06.284.047.118-.075.277-.237.182-.191.22-.192.107.032.092.06.054.08.044.155.058.447.104.078.216-.04.04-.016.004.104.02.056.19.044.243.082.067.05.044.114.037.201.017.217.054.054.216.377.544.824.355.437.172.18.328.214h.172l.247-.085.287-.126.158.038.088.034.152.173.04.12.106.172.133.336zM420.612 367.884l1.387-1.285.598-.594.575-.694.875-.715.797-.633 1.32-.648.786.005.74 1.51 1.027-.025.891-.856.879-.327 1.823-.15 2.108.452 1.567-.717.824-1.057 1.31-.591 1.298-.416.757-.893 1.215-.213.92-.932.053-1.233.77-1.22 1.365-.68 1.23-.012 1.553.604 2.662-.567 1.391-1.157.933-.566.675-1.007.702-1.862.393-.642 1.364-.39 3.215.528.54-1.031-.026-.717 1.459-.63.919.076 1.783.931h.77l.554-1.207-.135-.844.406-.188 1.31.855.405.189.69-.34 1.35-.591.879-.566.094-.14-.945-.791-.23-.793.175-.466.838.114.649-.44.08-.177-.878-1.082-.053-1.057.432-.377 1.594-.315 2.543-1.475 1.625-.759.511.552.134 1.432.196.776.028.052 1.603.202 1.513.031.004-.058-1.47-.028-1.546-.2-.048-.033-.181-.747-.111-1.409-.622-.754-1.652.732-2.554 1.447-1.675.251-.595.642.081 1.296.77.957-.432.289-.892-.126-.324.692.27 1.032.81.63-.729.477-1.432.541-.432.352-1.676-1.094-.77.214.095 1.082-.364.981-.555.013-1.783-.906-1.094-.075-1.635.653.054.843-.432.71-3.095-.37-1.58.466-.473.755-.69 1.85-.5.817-1.04.692-1.283 1.07-2.567.54-1.459-.603-1.405-.025-1.419.817-.865 1.322-.04 1.144-.81.793-1.297.264-.676.844-2.702 1.057-.824 1.056-1.31.655-2.135-.39-1.92.113-1.04.415-.797.78-.73.025-.756-1.547-.878-.064-1.614.662-1.476 1.205-1.247 1.394-.65.657-.795.732-.552.35-1.178.682-.395.34-.337.147-.267-.057-.491-.296-.319-.161-.296-.044-.216.209-.37.994.413 1.72.408.716-.02.183-1.574 1.213-1.68.886-.675.766-1.16 1.384-.261.352-.565.231-.587.085-.573.135-.21.204.043.22.138.553-.032.086-.089.037-.596.027-1.248.497-.231.034-.231-.042-.265-.092-.225-.016-.406.144-.472.128-.385.154-.242.223-.328.36-3.004 1.475-1.078 1.07-1.18 1.03-2.126 1.83-1.691.922-.627.017-.48-.005-.388-.023-.247.157-.379.727-1.311.702-1.217.024-2.277-.873-1.392.028-2.255 1.333.416.409 1.44-.955.539-.296 1.199-.013.598.27 1.57.576 1.504.067 1.229-.412.54-.59.425-.483.924.147.218-.03.157-.096.06-.175.556-.32 1.149-.581.454-.517 2.162-1.744 1.825-1.681.391-.346 3.17-1.626.345-.292.73-.354.1.006.65.15.238-.077 1.198-.53.805-.111.15-.08.02-.12-.158-.505.012-.301.03-.093.995-.183.707-.287.571-.094 1.587-.6 3.188-1.635 3.156-1.94 2.8-1.916 2.502-1.85 1.43-1.09.689-.875.394-.48.342-1.135.144-.79-.282.01-.086.466-.034.23-.345 1.055-1.057 1.184-.459.35-1.026.84-2.4 1.743-2.864 1.996-3.155 1.923-3.258 1.712-1.634.615.559-.534 1.38-1.62 1.579-.873 1.806-1.283.094-.215-.514-1.033-.4-1.613.213-.7.16-.182.223.062.285.2.515.262.228.055.21-.06.271-.12.43-.398zM470.469 298.43v.55l.155.26-.03.347.34.29.249-.088.248-.115.28.029.248-.174.062-.318-.31-.289-.528.029zM381.452 336.608l-.17.564-.171.362-.341.332-.11.506.172.289.403.29.559.158.372-.058.311-.246.403-.491v-.405l-.155-.882-.186-.52-.419-.101zM443.401 237.311l-1.351.267-1.024.725-.205.992.246.84.45.457.574.038 1.27-1.03 1.228-.801.574-.649-.574-.686zM454.871 234.104l-.891.629.027.252.324.251.378.252.568.705.486.276.324.1.973.152.27-.201-.08-.68-.65-.78-.486-.529-.621-.427zM409.254 205.714l.87.065.565.22.541.328.448.504.422.175.4-.57.424-.635-.07-.372-.612-.088-1.294-.153-.823.044-.635.13zM422.028 194.517l-.141-.241.188-.394.47-.307.424-.614.517-.635.447-.285.494.044.094.592-.047.964.447.57-.047.766-.777.11-1.223-.22zM421.298 195.985l.07 1.008.213.81.494.395.706-.153.894-.394-.048-.658-.376-.723-1.035.066-.541-.46zM470.056 201.571l-.942 1.293-.776.833-.73 1.117.307.526.708.439 1.174.219 1.6-1.118.352-.658-.094-.59-.753-.943-.446-.395.305-.482-.259-.46zM509.836 184.577l-.285 1.428-.035 1.03.712.232.642-.2.927-.863.392-.63.179-.366-.357-.266-.5.067-.07-.465-.5-.399-.427-.166-.5.133zM533.089 145.397l.19-.352.405.126.27.378.46.604-.514.528-.892.83-.567.655-1.054.1h-.46l-.135.429-.108.403-.675-.453-.027-.705.432-.479.919-.2.783-.202.46-.755zM517.471 144.97l-.649.453-.35.73.08.805-.46.982.028.528.324.881.595.101.675-.956.378-1.762.243-1.032-.297-.655zM544.278 168.386l.682-1.677 1.118-1.214 1.117-.116 1.304.405.186.867.062 1.273-1.676 1.619-1.676.405-.745-.637zM517.832 170.063l.124 1.966v.983l.62 1.214.994.405 1.676-.81-.124-1.156-.931-.463-.683-1.098-.62-.926zM526.088 174.92l-.807 1.677.186 1.677.994-.115 1.055-2.198.435-.29-.874-.799zM579.593 125.314l.081-.604.379-.453.46.125.837.302.865.277.459-.251.621.025.92.277.026.629.162.63-.27.326-.46.252-1.377-.453-2.675-.856zM593.955 125.687l.205-.038.471-.572.41-.363.614-.458.348-.858.553-.096.164-.267-.164-.667-.164-.458-.225-.305-.533-.325-.43.153-.696-.02-.512-.133-.102-.267-.512.153h-1.065l-1.393-.114-1.003.019h-.512l-.287.4.287.725.553.02.369-.039.102-.286.246.076-.164.325.307.247h.43l.553.172.245.287.165.534.245.228.43-.038.348.134.124.63.163.419.225.515zM585.104 124.28l-.264-.202.031-.39.419-.303.434-.087h.746l.434.087.093.303-.015.42-.202.274-.621-.087-.496.102-.295.043zM586.904 122.907l.047-.346.263-.275.56-.174.729-.058.543.217-.062.578-.14.521-.838.03-.543-.073-.357-.217zM585.383 124.685l-.062 1.07.248.116h.202l.14-.174.264.03.17.216.28.015.155-.058.047-.448-.062-.405-.109-.535-.373.015-.202.116-.17-.058-.187-.044-.155.015zM587.711 124.15l.094-.505.34-.087.497-.029.56.102.31.13-.14.722-.45.174-.87-.275z" clip-path="url(#p2ad0dfebc1)" style="fill:#00f;fill-opacity:.8"/><path d="m589.372 122.358-.14.491.047.478.543.144.62.073h.823l.59-.073-.233-.593-.698-.173-.916-.26zM589.744 125.148l.109-.434.481-.13.636.174.264-.173.047-.434-.078-.304.45-.029.932.116.403.463.155.78-.14.723-.837.173-.994-.245-.838-.275-.372-.144zM586.922 126.08l.376-1.413.318-.12.294.262-.2.592-.153.68-.118.175zM587.863 126.31l.235-1.04.189-.581.364.066.294.175-.282.657-.188.724-.259.164zM589.157 125.686l-.106.526.106.328.411.132.647.165.447.065.247-.362.024-.273.105-.23-.234-.22-.377-.087-.412-.055-.517-.088zM549.764 146.159l-.392.664.428.332.642.365.499.665.428-.033.142-.698.393-.996-.5-.333h-.855zM563.492 145.063l.927-.366.784-.398-.071-.997.57-1.262.5-.498.498-.431-.106-.4-.785-.364-.428-.632.357-.697.32-1.096.322-1.262-.072-.697-.962.199-.75.63-.07.864-.428.532-.108.764-.356-.166.071.83.143.764.285 1.361.107.731-.464.963-.356.798zM620.88 148.17l.061 1.677.932.347 1.117-.52.559-.926-.931-.751-.745-.29zM340.672 614.354l-.223 2.405.223.362.638.181h.667l.89-.052.832-.206.445.155.472-.078.667.155.528.466.583.724.612.88.305.672.472.88.89.672.416.594.39.621.194.725.305.905.278.724.666.44h.584l.278-.31.25-.984v-.672l.25-1.009.36-.905.584-.776.64-1.009.472-1.216.138-.904v-1.268l.223-.776.389-.646-.028-.388-.611-.698-.667-.57-.083-.801.583-.518.306-.155-.417-.18-.694-.26-.056-.517.028-.258-.445.31-1.472.776-.862.44-1.055.232-.556-.077-.195-.44.112-.543-.028-.259-.417-.284-.639-.388.223-.57.694-.698.834-.594-.195-.414-.556.025-.944.828-.056.285-.333.155-.416.078-.307.413-.027.57-.5.594-.639.57-1.306.543-1.25.336-1 .646-.833.44zM288.278 577.594l.07.448.24.657.56.687.876.643.605.123.691-.224.644-.672 1.381-.94 1.382-.512 1.365-.57 1.273-.117 1.986.13 1.157-.05.73-.246.682-.296.411.116.528.289.535-.073.334.073.722.383.714.664.318.802.504.585.97.268.667-.253 1.095-.08-.908-.484-.52-.866-.179-1.048-.357-.492-.69-.274-.373-.087-.62-.195-.52-.643-.862-.23-.752.143-.885-.086-.9.158-.893.051-.962-.447-.799-.52-.62-.76-.738-.21-.644.232-.598.087-.807-.383-.543-.404-.597-.044-.986.289-.698.304-.745.657-.706.925-.621 1.105-.559.354-.675.477-.512.246zM368.036 504.761l.571.52.497.417.795.416.993.45.77.186h.583l.41-.266.658-.532.919-.613.583-.358.82-.335.881-.127.956.046.51.196.26-.115.137-.37.186-.463.236-.312.335-.173.087-.255-.063-.867.298-.624.298-.67.36-.393.584-.416.013-.232-.162-.104-.31-.012-.1-.173.162-.22.26-.266.286-.068.484.068.05-.3-.273-.116-.36-.011-.41.116-.273.092-.211-.092-.198-.267-.1-.37.161-.728.373-.416-.1-.23h-.384l-.956.23-.273.058-.261.127-.224.254-.285.07-.162.15-.161.208-.323.012-.199-.15-.074-.301-.087-.127-.273.08-.211.775-.124.278-.447.08h-.447l-.398-.092-.459-.22-.447.058-.372.197-.646.45-.447.475-1.055.636-.46.462-.596.786-.21.451-.286.289-.572.393-.434.335-.322.358-.2.267-.148.3-.1.486zM439.279 507.554l-.249-.404-.273-.197-.335-.093h-.397l-.286.047-.137-.104-.086-.393-.212-.162-.285.023-.124.266.062.335-.323.162-.26-.174-.137.128-.025.243.124.335-.31.15-.559.243-.174.289.013.266.198.347.273.37.137.381-.149.474-.323.44-.31.74-.05.369.1.312.024.335-.173.278-.311.185-.348.08-.21.128.285.416.037.324-.124.254-.323.208-.05.162.199.359.025.392-.248.821-.236.255-.348.069-.285.185-.249.22-.111.3.037.3.136.244.584.416.1.219.16.312h.15l.186-.138.248.046.187.208.1.3-.1.313-.212-.035-.198-.254-.286-.093-.211.046-.112.197.088.416.148.393.385.162.584.093.348-.128.335-.462.1-.567-.075-.45-.2-.336-.347-.3-.26-.29-.063-.23.137-.162.447-.174.36-.196.199-.29.273-.3.223-.3.05-.393-.037-.752-.162-.243-.347-.346-.162-.255.025-.508.248-.393.46-.37.335-.3.186-.59.398-.37.372-.486.074-.393.125-.312.236-.243.148-.266-.037-.22.224-.289.385-.196.347-.139.174-.323.136-.532zM429.616 529.676l-.564-.245-.678-.21-.395.087-.245.316-.207.508-.019.508-.226.438-.414.438-.301.473-1.392.806-.47.525-.264.351-.433.087-.49.123-.394.298-.358.403-.15.403-.245.368-.414.403-.376.245-.358.35-.132.421-.188.911-.188.683-.076.526.02.438-.189.368-.264.438.02.368.15.088.339-.07.526-.386.208-.385.263-.438.245-.245.188-.123.132-.28.056-.246.301-.333.433-.175.508-.157.395.104.32.193.49.07.357.018.301.157.245.036.338-.106.508.211.245-.07.094-.228.264.017.32.193.527.053.395-.106.15-.315-.15-.368-.377-.508-.207-.473v-.456l.17-.402.282-.351.15-.56.302-.597.226-.42-.038-.333.038-.613.17-.35.112-.334.038-.385.093-.298.17-.438.113-.473.15-.262.038-.246-.038-.245zM558.375 110.056l1.25.052.222-.389.306-.31.417-.31.194-.311-.083-.31v-.467l.333-.336.278-.466.278-.362.528-.233v-.259l-.167-.388-.223-.337.167-.284v-.336l.195-.466.417-.492.777-.57.306-.414.083-.44.361-.31.084-.57.027-.44-.277-.258v.285l-.223.336-.194.207-.556.466-.416.259-.333.233-.111.232-.084.285-.223.466-.666.285-.222.155-.25.362-.222.285-.39.336-.36.44-.168.389-.444.258-.278.052-.638-.181-.084.284.056.622-.028.776.139.854v.544zM543.704 131.913l.91.409.556.362.153.298-.017.267-.17.22-.724.707-.304.283-.304.251-.286.298-.405.268-.371.157-.236.063-.388.251-.371.315-.354.188-.203.346-.337.408-.438.471-.355.094.136-.156.219-.519.202-.55.253-.613.287-.565.86-.44.522-.471.422-.425.118-.455-.151-.377-.22-.33.05-.393.153-.455.388.015zM548.663 121.89l.392.232.451-.043.641-.11.371-.173.27-.377.118-.99-.337-.628-.186-.409-.236-.298-.067-.346.303-.33.253-.66.085-.566-.085-.69-.034-.77.152-.582-.176-.584-.262.223-.32.518-.17.597-.083.613-.068.69-.152.52-.1.706-.203.613-.287.613-.202.566-.136.565-.202.424.05.362zM437.63 413.335l.224.335.323.301.385.243.46.231.533.197.559.162.447.184.422.313.36.427.41.29.285.265.286.07.285-.162.186-.312-.012-.428v-.52l.149-.359.186-.393-.012-.266-.199-.15-.546-.231-.298-.093-.31-.011-.472-.324-1.23-.474-.372-.127h-.348l-.298.046-.471.359-.298.103-.248.023-.237.081zM524.177 297.276l.508.245.753.28.828.246.903.42.79.439.867.649.658.823.527.421.433-.053.244-.21.189-.386-.282-.578-.47-.7-.678-.684-.49-.596-.526-.561-.452-.614-.47-.368-.678-.596-.565-.298-.659-.14-.828.018-.64.192-.32.21-.45.352-.246.49.019.56.395.282z" clip-path="url(#p2ad0dfebc1)" style="fill:#00f;fill-opacity:.8"/></g><g id="PatchCollection_2"><path d="m422.903 313.336-.038-.422.1-.398.429-.94 2.771-5.823.16-.03.21-.058 7.981 4.07.09.323-4.759 6.926-2.407-1.672-.806-.466-1.247-.48-1.522-.514-.6-.237zM404.975 318.465l.393.63 1.824-.968.63.07.405-.072-.742-1.17-1.274.773zM399.177 334.303l-1.77 2.515-2.994 1.416-.42.499-.13.563.11.474.226.41.51.747.309.342 1.769 1.215 1.692.016 2.468.735 1.303.058 1.304-.665 1.086-.115 1.303-.232.59-.867z" clip-path="url(#p2ad0dfebc1)" style="fill:green;fill-opacity:.8"/><path d="m400.323 330.019.082 1.189-.058.237-.649 1.61-.52 1.248 7.114 8.416 2.648.353h2.54l2.324-2.164.336-1.681-.102-.583-.575-.84.371-.85.907-4.472-2.072-1.943-2.216 1.158-1.46.604-3.242-2.718-4.22-.15zM398.603 331.423l.37-.701-.047-.352-.78-1.226-.697.374zM414.714 320.209l.798 1.296.604-.266-.778-1.317zM393.355 339.633l.411-1.62-3.02 2.135.947 1.612 2.204-1.19zM417.596 332.375l.306-.986.341-.45.412-.46.212-.175.53-.219.312-.19.582-.379-.095-1.035.26-.449.129-.608.276-.706.612-.822.717-.537.876-.3.394-.121-.093-.723.676-.504-.142-.838-1.838-2.206-3.404.73-4.837 2.893-2.243 1.988 1.108.881-.865 1.56 1.233 1.39 2.073 1.963 1.396.372.73.05zM444.355 323.41l.953-.2-.461 2.24-.54 2.35-.433 1.397-.216.113-.162-.088-.19-.541.374-1.785zM417.762 302.183l2.359-1.475-.512-.087-.63.34zM441.266 319.75l.824.11.234-.066-.305-.208-.341-.099-.812-.262-.553-.143-.47-.088-.623-.033-.553.077-.47.154-.507.262-.34.307-.26.307.177.197.012.909.287.233.374.255.41-.356.019-.083-.486-.096.178-.702.005-.054.833.075.115-.516.064-.12.918.131.206-.038.105-.104zM456.898 317.228l-1.354.548.757 1.146.232-.207.187-.366.125-.365.107-.415z" clip-path="url(#p2ad0dfebc1)" style="fill:green;fill-opacity:.8"/></g><g id="PatchCollection_3"><path d="m426.322 300.314-1.737 2.904 4.084 2.12 1.738-2.905zM433.475 312.152l1.614.91 1.426-2.196-1.615-.91zM416.389 336.25l.608-2.55-1.764-.365-.609 2.548zM395.13 338.758l-.911.403.885 1.522.98-.409zM637.262 460.463l3.107-.737 1.243 4.544-3.106.737zM430.992 311.682l.93.581-.97 1.348-.93-.58zM398.82 320.149l-.109 2.955 5.39.171.109-2.955z" clip-path="url(#p2ad0dfebc1)" style="fill:#90ee90;fill-opacity:.8"/></g><g id="PatchCollection_4"><path d="m415.113 332.908-1.186 5.066 2.705 1.43 3.927-2.791-2.506-2.515-.574-.126-.172-.056-.052-.48zM398.466 341.4l.536-1.128 2.06.85-.535 1.127zM441.315 321.85l.96.2-.354 1.463-.96-.201zM444.727 328.193l-.313 1.44.96.18.312-1.439z" clip-path="url(#p2ad0dfebc1)" style="fill:#006400;fill-opacity:.8"/></g><path id="PatchCollection_5" d="m635.646 469.017-.42.087-.216-.42.372-.086z" clip-path="url(#p2ad0dfebc1)" style="fill:#9acd32;fill-opacity:.8"/><g id="PatchCollection_6"><path d="m398.466 341.4.536-1.128 2.06.85-.535 1.127zM411.615 315.234l-1.15.558.09.159-.425.206.231.413.533-.258.06.106 1.041-.506zM387.306 333.366l1.167.03.744.724-.125 1.102.9.06.164-1.31-1.24-1.39-1.596-.04zM432.786 314.427l-.33.46.502.312.33-.462zM446.013 325.37l-.495-.104-.54 2.23.458.096.069-.284.358.076.344-1.423-.32-.067zM445.779 323.961l-.188.963.919.141.196-.955zM448.96 318.574l.119.353.53-.102.179.544-.559.127.114.38-.374.216-.401-1.444zM425.21 321.581l1.566-1.549-.963-.854-1.412 1.818zM435.9 308.96l-.371.594 1.566.847.371-.595zM432.587 320.79l.053.755.776-.066-.08-.722zM439.11 318.468l-.412-.833-.065-.594.524-.074.175.723.095.745zM396.913 332.872l1.226-.644-1.295-2.139-1.141.6zM431.399 315.166l.816-1.145.59.365-.816 1.145zM433.228 313.437l.328-.488.276.17.161-.03.248.146-.013.145-.331.477-.13.01-.242-.151-.01-.109zM431.117 317.736l.037-.05.097.062.693-.947-.09-.058.132-.181-.746-.473-.658.9.16.102-.204.279zM443.782 323.853l-.6-.111-.456 1.769.308.065-.252.996-.002 1.123.593.03.05-1.108.21-.946.161.014.196-.911-.406-.076zM395.258 338.8l1.745-1.02.906 1.306-.384.21-1.481.757zM416.8 311.655l.41-.296-.41-.439-.38.229zM404.837 319.9l-.304-.471-.69.34.134.253.184-.09.14.105.198-.017zM425.615 314.295l.145-.355.147.053.078-.19.725.257-.225.55-.245-.088-.045.11-.35-.125.046-.114zM450.89 321.525l.753-.134-.101-.49-.753.134zM449.288 321.057l.096.626 1.052-.139-.095-.626zM446.854 324.174l.158.022.054-.334.664.093-.07.433-.257-.036-.083.515-.565-.08zM432.818 332.148l1.217-.035.02-.988-1.62-.162-.123.158.358.698.123-.003zM397.574 333.205l.504-.264.478.79-.179.094.06.1-.325.17zM417.146 318.529l.275-.12.05-.036.031-.049.003-.067-.368-.75-.406.161zM415.882 319.094l.491-.205-.43-.892-.142.055-.234-.456-.326.13zM411.964 321.07l.634-.325-.428-.724-.46.237-.06-.102-.332.17.37.625.157-.08zM426.398 309.93l.385-.148.161.36-.385.15zM425.939 311.192l.342-.127.135.316-.342.127zM431.554 311.889l.31-.42.404.258-.31.42zM318.502 495.76l-.186-.357.526-.238.186.356z" clip-path="url(#p2ad0dfebc1)" style="fill:#a9a9a9;fill-opacity:.8"/><path d="m387.255 334.785.278.283.434.053.36-.282h.132v.168l.352.03.057-.763-.295-.007-.311-.303.02-.346-.798-.06-.033.416.189.003-.004.133-.349.21zM407.872 324.969l3.369-1.901-.083-.127-.118.067-.251-.386.349-.198-.1-.153.384-.216.813 1.25-3.983 2.248zM202.444 371.232l.008-.448-.31-.005-.008.448zM201.223 365.116l.116-.258.376.147.166-.368-.943-.37-.282.626zM203.93 371.49l-.007-.54-.458.004.006.54zM199.88 374.244l-.058.046-.176-.197-.832.643.545.61.89-.689zM193.662 377.938l.357.255.192-.233-.357-.255zM200.985 372.597l.683-.153-.096-.374-.683.153zM208.12 372.475l-.223-.009-.015.341.223.009zM196.827 369.948l.47.434.279-.263-.47-.433zM191.59 375.285l-.23-.149-.208.279.23.15zM194.569 376.137l-.95-.54-.252.384.95.54zM201.02 370.663l-.011-.24-.35.013.011.24zM202.471 371.15l.248.006.01-.356-.248-.006zM188.648 375.037l.226.35.639-.356-.226-.35zM200.797 371.633l.543.012.011-.404-.542-.013zM202.305 373.71l.403.863.53-.215-.404-.863zM204.202 374.18l.395-.155-.21-.467-.396.155zM190.872 374.86l.299-.116-.11-.246-.299.115zM193.375 374.676l-.44-.166-.102.236.44.166zM191.079 376.977l-.41-.415-.563.483.41.415zM197.27 372.703l1.107 1.322 1.303-.946-1.249-1.493-.705.512-.082-.1-.368.267.226.27zM201.448 369.963l-.34-.022-.036.49.34.02zM191.885 374.883l.571.33.3-.448-.571-.33zM192.11 377.71l.545.499.427-.404-.545-.499zM198.604 369.747l-.287-.447-.59.327.286.448zM193.457 377.345l-.627-.437-.208.26.626.437zM203.318 370.28l-.083-.538-.365.049.082.538zM203.964 370.699l.022.838.543-.013-.022-.837zM203.299 369.653l.05.72.664-.04-.05-.72zM202.764 371.729l-.04-.474-.578.043.04.474zM196.832 378.645l.173.373.444-.179-.173-.372zM199.684 371.71l.083.597.702-.085-.083-.597zM210.806 615.012l.403-.026-.025-.326-.402.026zM206.11 617.253l.407.292-.063.076.31.223.947-1.14-.718-.516zM176.923 617.969l-.372-.206-.324.508.372.206zM211.272 615.004l.877-.04-.028-.529-.614.03.012.21-.264.012zM207.534 620.993l.4.14.194-.482-.4-.14zM176.123 618.884l-.845-.539-.261.354.845.539zM205.011 618.985l.368.128.199-.494-.368-.128zM207.107 617.928l.277.198.36-.435-.277-.198zM211.994 620.316l1.271-.566-.452-.882-1.272.565zM208.54 621.22l.429.139.252-.67-.43-.139zM209.127 618.67l-.407-.282-.326.41.406.28zM174.461 618.303l.26.216.393-.41-.26-.216zM206.21 618.721l.317-.347-.425-.337-.076.083-.09-.072-.17.186.092.074-.07.077zM208.552 620.776l.191-.49-.814-.276-.191.49zM207.291 618.344l.444.3.543-.698-.443-.3zM208.819 618.184l-.437-.315-.586.706.437.314zM210.524 614.95l.219-.014-.016-.232-.219.013zM211.653 613.695l1.164.306.114-.374-1.164-.307zM206.463 615.209l1.256-.033-.02-.688-1.257.033zM205.752 619.27l-.825-.276-.202.524.824.276zM206.55 620.116l.734.256.204-.507-.735-.256zM209.766 621.06l.172-.434-.34-.116-.172.432zM206.79 618.618l-.22-.175-.275.3.22.174zM446.832 325.746l.074-.56.51.057-.075.561zM448.93 325.46l1.787-.139.102 1.135-1.788.138zM450.055 324.151l1.842-.254.093.585-1.842.254zM448.922 323.458l1.468-.1.047.592-1.468.1zM416.72 318.804l.465-.194-.454-.942-.464.194z" clip-path="url(#p2ad0dfebc1)" style="fill:#a9a9a9;fill-opacity:.8"/><path d="m416.373 318.889.024.05.324-.135-.454-.942-.324.135z" clip-path="url(#p2ad0dfebc1)" style="fill:#a9a9a9;fill-opacity:.8"/></g><g id="PathCollection_1"><defs><path id="mc4a4e0c021" d="M0 3a3 3 0 1 0 0-6 3 3 0 0 0 0 6z" style="stroke:#a9a9a9;stroke-opacity:.8"/></defs><g clip-path="url(#p2ad0dfebc1)"><use xlink:href="#mc4a4e0c021" x="406.554" y="327.92" style="fill:#a9a9a9;fill-opacity:.8;stroke:#a9a9a9;stroke-opacity:.8"/></g></g></g></g><defs><clipPath id="p2ad0dfebc1"><path d="M90 97.293h558v532.614H90z"/></clipPath></defs></svg>