<svg xmlns="http://www.w3.org/2000/svg" width="960" height="960" viewBox="0 0 720 720"><defs><style>*{stroke-linejoin:round;stroke-linecap:butt}</style></defs><g id="figure_1"><path id="patch_1" d="M0 720h720V0H0z" style="fill:#fff"/><g id="axes_1"><path id="patch_2" d="M90 622.189h558V105.01H90z" style="fill:#fff"/><g id="LineCollection_1"><path d="m340.12 347.218-.137 3.082M340.12 347.218l7.106-.58M330.73 344.858l1.038.322.824.786 1.433.608 1.75.413 4.345.231" clip-path="url(#pedd520a111)" style="fill:none;stroke:#000"/><path d="m339.79 340.152.11 1.025.179 1.572.041 4.47M437.133 340.415l.341-.485M441.883 342.833l-.983-.527-3.767-1.89M419.705 341.594l4.034-.513 5.892-.826 3.078-.36 2.084-.024 2.34.544M451.983 348.247l1.567-2.393M451.983 348.247l-2.217 3.462M451.983 348.247l4.094 2.197M451.983 348.247l-2.124-1.139M579.557 610.771l6.668.16 20.552.48 30.492-1.407M579.557 610.771l.047 1.472M559.27 591.507l.567.934 5.42 8.542 1.763 2.303 1.635 1.567 7.086 4.815 1.042.512 1.587.528 1.187.063M559.27 591.507l-6.326-10.422-1.218-2.272" clip-path="url(#pedd520a111)" style="fill:none;stroke:#000"/><path d="m533.47 482.34 1.808 2.9 6.765 9.822 4.36 6.398 1.475 2.655.706 1.728.994 2.527 3.847 18.586.545 3.487.097 4.127-.096 5.12-.45 4.222-.994 4.798-2.66 12.284-.065 4.095 1.218 11.645.706 2.08" clip-path="url(#pedd520a111)" style="fill:none;stroke:#000"/><path d="m542.107 592.92.721-.543 1.508-1.583.657-.896 1.186-2.127.85-1.504.994-1.295 1.827-2.24 1.587-2.207.257-.752.032-.96M410.65 188.131l-.385-1.983-1.347-3.712-1.218-5.374.898-4.927M308.142 133.076l.452.22 5.29 4.575 10.036 14.044 2.084 1.792 6.22 3.328 9.17 4.03 4.521 1.6 1.7.16 1.891-.032 5.515 1.184 3.559-.128 3.367.32 13.85 3.935 2.63.352 7.15.064 2.661.256 3.783.832 3.72.16 2.66-.288 2.438-.576 1.41.256 5.066 1.855 1.283 1.12" clip-path="url(#pedd520a111)" style="fill:none;stroke:#000"/><path d="m428.601 161.41-1.086.455-11.575 3.232-2.661 1.311-1.283 1.28-3.398 4.447M380.33 246.07l1.143-2.751 6.636-10.814 6.573-9.598 3.687-4.51 2.373-3.552 4.938-11.517 1.219-4.127 3.494-7.102.257-3.968M428.601 161.41l-.188 3.335-10.068 14.78-3.912 8.575-3.783.031M354.62 346.102l3.062.23M354.62 346.102l-.296-2.943M354.62 346.102l-1.971.047M346.172 341.759l-.156-4.63M339.79 340.152l3.119.6 3.263 1.007M352.324 342.87l-3.002-.431-3.15-.68M354.324 343.16l.027-.514M354.324 343.16l-2-.29M354.324 343.16l4.143.782M358.467 343.942l2.301.344M357.08 340.836l1.195 1.963.192 1.143M363.393 346.573l2.219.104M363.393 346.573l-1.256-.06M362.3 344.55l1.113.192-.02 1.831M360.768 344.286l1.532.265M361.908 341.65l-.924 1.54-.216 1.096M364.355 337.1l1.23-3.355M364.355 337.1l3.41 1.092M364.355 337.1l-2.148-.54M361.908 341.65l1.978-3.326.47-1.224M365.585 333.745l.978-3.231M365.585 333.745l3.335.975M362.207 336.56l-.42.56-1.54 1.184-.946.256M355.046 337.514l.376-.266 1.395.144 2.484 1.168M358.699 340.697l.49-1.21.112-.927M354.103 338.054l.04-2.216M354.103 338.054l.248 4.592M354.103 338.054l.943-.54M354.103 338.054l-2.465.284M351.638 338.338l.686 4.533M351.638 338.338l-.462-2.133M353.458 322.787l1.916.756 2.95 1.724M353.458 322.787l-.017 1.63M354.022 307.703l-1.165 4.991-.15 1.772.264 1.83.513 4.471-.026 2.02M353.44 324.417l.038.618M353.44 324.417l-6.317-1.222M345.77 322.948l1.353.247M345.77 322.948l-1.506 5.806M340.72 328.924l.37-3.961 4.68-2.015M416.982 339.54l.166 1.791M406 337.812l6.078 1.047 4.904.68" clip-path="url(#pedd520a111)" style="fill:none;stroke:#000"/><path d="m420.528 336.285-2.728.115-.965.621.147 2.519M366.563 330.514l3.738 1.53M366.563 330.514l-4.841-1.84M361.722 328.674l-3.642-1.672M361.722 328.674l.13 2.411M353.478 325.035l.056 3.656M358.08 327.002l-3.844-1.895-.758-.072M371.581 341.007l2.18.88M370.318 346.933l.526-3.046.737-2.88M369.036 338.804l1.199 1.308 1.346.895M370.318 346.933l1.783.047M370.318 346.933l-1.757-.087M372.101 346.98l-.312 5.904M378.747 346.885l-1.666.229-1.092.041-3.888-.175M371.79 352.884l-3.596-.109M372.164 357.26l-.246-1.057-.129-3.319" clip-path="url(#pedd520a111)" style="fill:none;stroke:#000"/><path d="m378.746 352.077-1.964.152-1.646.043-3.347.612M372.976 360.746l-.812-3.486M373.52 372.034l-.4-2.282.048-3.087-.192-5.919M380.975 356.907l-.368 3.999-7.631-.16M373.922 374.343l-.403-2.309M376.663 381.652l-1.186-.895-1.555-6.414M368.936 376.726l1.314-.864 2.95-1.12.722-.4M354.34 357.842l-2.878-.055M354.34 357.842l4.466.855M354.34 357.842l1.514-5.523M276.904 420.33l.91 1.088 1.667.672 1.41-.064 10.838-3.455 2.95-.832 3.655-1.215 4.393-2.048 5.322-2.08 6.06 3.327.993.32 11.063 5.95 3.398.16 1.892-.255 5.9.672 1.474 1.183 1.507.48 4.072-.447 1.795-.48 6.67-3.423 2.308-.8 3.688-2.016 1.65-1.12 1.395-2.607 1.043-1.68.128-1.167.352-1.232.113-1.503.224-.88-.193-.464-2.981-2.4-.994-1.407-.353-2.495-5.098-12.157-.994-1.568-.641-2.847.16-4.223.754-11.469.208-5.743.26-2.956.437-1.307M355.854 352.319l1.778.302M355.854 352.319l-3.488-.75M355.854 352.319l1.423-1.922M357.277 350.397l.405-4.066M357.277 350.397l.355 2.224M362.137 346.513l-2.91-.118-1.545-.064M368.194 352.775l.367-5.93M368.194 352.775l-.22 4.503M368.194 352.775l-2.866-.029M359.018 292.687l-4.318-1.795M359.018 292.687l1.163-2.947M359.018 292.687l-.931 2.179M361.118 287.077l-.132.322M353.337 285.74l2.18-.335 5.6 1.672M380.33 246.07l-1.038 2.496-2.052 7.23-2.34 4.479-11.703 21.723-2.08 5.079M360.986 287.4l5.513.9M360.986 287.4l-.805 2.34M373.158 289.64l-6.659-1.34M366.5 288.3l.673-3.071 6.733 1.696-.748 2.716M373.158 289.64l-.925 3.355M376.583 289.468l-1.41.56-2.015-.387M376.583 289.468l-.545 2.128-.802 1.247-1.25.4-.994-.048-.76-.2" clip-path="url(#pedd520a111)" style="fill:none;stroke:#000"/><path d="m362.568 290.84.775-.16 2.237.281 4.494 1.466 2.159.568M380.33 246.07l1.239 5.279 2.18 6.335-2.629 6.558-1.668 5.822-1.442 7.039-.93 6.766-.497 5.599M362.568 290.84l-2.387-1.1M358.087 294.866l1.318-1.075 1.526-1.472 1.084-.93.553-.55M354.022 307.703l.855-3.663 1.378-5.086 1.832-4.088M263.481 262.514l5.9 3.68 7.182 8.158 8.048 6.174 8.946 5.567 8.207 2.015 10.741 2.751 5.9 3.168 8.529 3.935 4.97 2.015 4.2 4.063 4.905 2.304 3.303.671 3.206-.031 6.504.72M192.943 133.583l.353 6.207-1.57 2.24-.13 5.31 2.405 1.44 1.38 7.134 2.051 5.184 2.052 8.254.706 4.286.256 4.671-1.475 12.414-.256 6.142 3.783 7.487 2.18 3.84 7.439 8.509 3.72 2.751 2.308 4.16 5.002 1.727 4.296 5.823L228.79 235l6.925 5.886 1.924.64 3.847 3.584 6.734 4.67 2.757 1.856 1.283 1.856 4.745 4.222 1.346 3.2 5.13 1.6M250.144 258.8l4.232 4.098 9.105-.384M345.744 333.848l.272 3.282M345.744 333.848l2.079-.183M345.744 333.848l-5.552.489M346.016 337.13l-6.048.502M351.176 336.205l-2.536.707-2.624.218M351.176 336.205l-.564-2.7M339.968 337.632l.224-3.295M339.968 337.632l-.178 2.52M362.066 333.09l-.214-2.005M362.066 333.09l.14 3.47M355.76 332.888l1.65.313 2.1.08 2.556-.192M355.76 332.888l.757-2.014" clip-path="url(#pedd520a111)" style="fill:none;stroke:#000"/><path d="m354.124 335.41 1.218-1.41.418-1.112M356.688 330.418l2.02.768 1.41.128 1.734-.229M356.517 330.874l.171-.456M353.637 330.318l1.656.1 1.224.456M353.637 330.318l-.103-1.627M354.124 335.41l-.065-1.41-.422-3.682M358.08 327.002l-1.392 3.416M354.124 335.41l.02.428M358.699 340.697l3.21.953M356.926 340.583l.5-.264 1.273.378M356.926 340.583l-1.88-3.069M356.926 340.583l.154.253M357.08 340.836l-2.729 1.81M354.143 335.838l.903 1.676M380.966 335.404l.827.037 1.059.016M380.966 335.404l-.78 3.688M380.966 335.404l.266-1.693M376.294 333.48l.514.68 3.126 1.2 1.032.044M381.232 333.71l-1.042-.19-3.896-.04M374.738 333.442l.835.031.721.008M373.762 341.887l.38-1.24.183-1.46-.104-1.566M374.738 333.442l-.383 1.855-.134 2.324" clip-path="url(#pedd520a111)" style="fill:none;stroke:#000"/><path d="m380.186 339.092-2.224-.72-3.014-.484-.727-.267M370.547 334.889l1.222.746 1.451 1.505 1.001.481M370.3 332.044l3.333 1.365 1.105.033M383.618 341.646l1.11-3.626-.093-1.036" clip-path="url(#pedd520a111)" style="fill:none;stroke:#000"/><path d="m387.982 341.858-1.652-.003-2.712-.21M379.565 341.703l2.196-.2 1.857.143M389.943 335.3l-1.227-.224M389.943 335.3l1.47-7.681M392.373 335.692l-1.923-.3-.507-.092M397.086 319.794l2.882.294M394.298 330.066l1.507-4.72 1.281-5.552M397.215 301.609l1.25 1.568-.063 3.295.577 1.791-1.7 4.575-.352 2.88.224 3.263-.065.813" clip-path="url(#pedd520a111)" style="fill:none;stroke:#000"/><path d="m391.412 327.619.867-2.761.672-2.518 1.122-2.271.994-.449 2.02.174M396.331 331.748l1.205-2.37 2.432-9.29M407.956 320.932l-1.346.448-5.9-1.12-.742-.172M396.331 331.748l-2.033-1.682M399.172 336.75l-.257-2.893-.77-.608-1.814-1.501M388.716 335.076l-7.484-1.365M388.716 335.076l-.734 6.782M387.982 341.858l-.21 3.772M387.982 341.858l3.36.007M387.772 345.63l6.357-.818M387.772 345.63l-1.95.227M394.298 330.066l-2.886-2.447M401.378 337.093l.487-2.66.432-4.799M401.378 337.093l1.94.301M401.378 337.093l-2.206-.343M403.317 337.394l2.683.418M403.5 331.841l-.065 3.311-.118 2.242M408.117 321.58l-2.02 5.367-.048 1.999-.24 2.495.464 1.056" clip-path="url(#pedd520a111)" style="fill:none;stroke:#000"/><path d="m408.117 321.58.513 2.072 1.25 1.28.546 1.247-.193 1.12-1.411 1.759-1.122 1.92-1.427 1.519M406 337.812l.08-4.867.193-.448M406 337.812l.08 2.507M406.08 340.319l-6.07.083M401.652 343.792l1.806-.745 1.36-.167.858-.357.382-.761.039-.85-.016-.593M400.01 340.402l-.838-3.652M400.01 340.402l.347 1.485M399.172 336.75l-4.98-.775M400.694 343.913l.958-.12M400.694 343.913l-6.21.858M400.694 343.913l-.337-2.026M400.357 341.887l-6.235-.016M385.822 345.857l-1.852.228M385.822 345.857l.105 4.576M395.67 350.485l-1.548.196-1.598.38-1.138.236-3.998-.437-1.46-.427M384.463 350.423l.324-.07 1.14.08M378.747 346.885l1.732-.278M378.746 352.077l.226-3.84-.225-1.352M384.463 350.423l-1.912.418-2.537 1.027-1.268.209M368.56 346.846l-2.948-.169M367.974 357.278l-2.765.069M367.974 357.278l4.19-.018M394.192 335.975l-1.82-.283M394.192 335.975l-.07 5.896M394.122 341.87l.007 2.942M394.122 341.87l-2.78-.005M379.565 341.703l-4.329.376-1.474-.192M380.48 346.607l3.49-.522M379.565 341.703l-.145 1.079.065.788.994 3.037M379.565 341.703l.621-2.611M369.213 334.12l1.334.769M369.213 334.12l-.293.6M369.213 334.12l1.088-2.076M369.036 338.804l-1.27-.612M369.036 338.804l1.511-3.915M369.036 338.804l-3.424 7.873M367.766 338.192l1.154-3.472M365.612 346.677l-.284 6.07M365.328 352.746l-.12 4.6M365.328 352.746l-3.43-.035M362.035 358.088l-.136-5.377M362.035 358.088l-3.23.609M362.035 358.088l3.174-.741M361.899 352.71l.238-6.197M361.899 352.71l-4.267-.09M362.137 346.513l.163-1.962M346.165 353.967l-.146.792M339.4 352.62l3.485.928 3.28.42M346.654 351.14l-.242 1.336-.247 1.491M339.4 352.62l.583-2.32M338.65 356.87l.247-2.933.25-.715.252-.602M351.763 355.26l-.301 2.527M351.763 355.26l.603-3.691M346.019 354.759l1.766.167 1.82.031 2.158.304M345.627 357.886l.064-1.843.328-1.284M345.388 360.344l3.06.178M338.65 356.87l-.506 2.393.251.93 1.039.642 1.251-.361 2.391.014 2.312-.144M345.627 357.886l-.065 1.868-.174.59M346.973 377.813l-5.515-4.318-.256-2.08 1.283-3.04.031-1.535.225-1.375 1.603-1.584 1.044-3.537M338.65 356.87l6.977 1.016M345.627 357.886l3.478-.003M358.806 358.697l-1.174-6.076M394.129 344.812l.354-.041M395.67 350.485l-1.187-5.714M395.67 350.485l.632 3.394M395.67 350.485l3.55-.616M352.366 351.569l-5.712-.429M352.366 351.569l.024-2.482M346.654 351.14l.313-2.78M339.983 350.3l3.738.56 2.933.28M352.39 349.087l-5.423-.728M352.39 349.087l.259-2.938M346.967 348.36l.259-1.722M352.649 346.149l-3.518.33-1.905.159M349.105 357.883l2.357-.096M349.105 357.883l-.657 2.64M348.448 360.522l-.985 3.232M351.462 357.787l-.594 2.277-.576 1.754M352.649 346.149l-.325-3.278M350.1 328.668l.512 4.837M350.1 328.668l3.434.023M350.1 328.668l-2.983.118M340.72 328.924l3.544-.17M340.192 334.337l.488-3.53.04-1.883M350.612 333.505l-2.79.16M347.823 333.665l-.706-4.88M344.264 328.754l2.853.032M347.117 328.786l.006-5.591M401.652 343.792l15.548-1.888M417.2 341.904l2.505-.31M417.2 341.904l-.052-.573M417.148 341.331l2.736-.287M419.884 341.044l.644-4.759M419.884 341.044l-.179.55M428.701 336.129l-5.072 2.682-.689 1.646-3.056.587M429.13 334.944l-2.016.608-3.134.382-3.452.351M447.212 335.106l-1.46 2.117M468.391 326.036l-2.799-.257-1.694.147-1.695.552-6.555 3.454-3.242 1.764-3.093.809-.614.525-1.487 2.076" clip-path="url(#pedd520a111)" style="fill:none;stroke:#000"/><path d="m442.103 333.345.764.225 4.345 1.536M468.391 326.036l5.114.173M437.258 332.71l1.03-1.316-.225-1.568 1.25-2.496.161-5.726 1.732-3.903 3.398-4.16 1.01-2.926-.85-.464-5.45 2.303-4.97 1.472-2.66-2.24-3.656-6.398-.546-1.6-2.724-3.583-2.726-.992-.289-.88 1.09-.751 2.598-1.088 4.745.576 2.052-.576 2.95.448 2.34-.448 1.796-2.655 2.95.767 4.553.193 2.276-1.312 3.303 1.024.609 4.447 1.924 2.623 1.442 5.439-1.667 5.406-.385 1.6 4.137 4.639 9.65 6.398.285 1.073M473.505 326.21l-17.428 24.234M584.815 278.443l-16.417-2.428-19.558-1.152-3.014-1.152-5.579-.255-13.145 1.343-14.621-.96-10.26 4.096-5.195 3.199-2.18 2.56-3.911 10.748-.262 4.437.221 1.14-.994 3.123-.48.882-1.362.588-1.03.735-1.106 1.69-2.983 6.211-1.915 3.124-1.29 1.507-1.473 1.91-1.201 1.83-2.393 2.807-1.162 1.783M290.895 389.202l2.726-5.086 3.976-4.351 7.79-8.382 1.54-2.751 2.276-6.846.738-2.688 1.57-1.727 2.647-1.465 2.75-.785 4.185-1.352 1.317-.725 1.276-1.138 2.78-3.009 2.722-2.86 1.541-1.18M339.79 340.152l-1.458-.28-.94-.018-1.827 1.072-2.579 1.93-2.257 2.002M392.373 335.692l-.083 1.17-.266 1.013-.399 2.922-.283 1.068M383.97 346.085l.186 1.666.033 1.195.274 1.477M505.058 388.033l2.966-3.533 1.924-1.056 4.938.48 7.727 1.856 2.725 2.111 2.822 3.231.865 1.408" clip-path="url(#pedd520a111)" style="fill:none;stroke:#000"/><path d="m510.889 398.566 3.324.33 1.859-.448 1.539-1.12 1.635-1.311 1.507-1.728 1.379-1.375 1.379-.672 3.206-.032 2.308.32M510.889 398.566l-1.935-5.269-2.822-4.318-1.074-.946M456.077 350.444l10.875 5.84 3.43 2.207 3.688 3.487 12.985 13.436 5.098 3.807 10.998 7.134 1.907 1.678M192.943 133.583l.61-.288 10.196.224 1.699.864 16.961 15.07 12.344 11.229.706.32 1.09-.16 7.759-4.928 13.916-8.126 3.078-1.568 3.975-2.175 1.571-1.631 6.958-4.16 4.777-2.111 1.667-.16 1.508-.48.833-.928 1.7-.128 1.282-.672 13.755-.48 8.814-.219M430.112 160.777l-1.51.633M432.549 118.77l2.533 3.488 2.95 3.871 1.73 4.671.546 4.16-.129 2.526-.609 7.999-1.346 3.039-2.854 3.551-3.88 5.727-1.378 2.975M290.895 389.202l-3.174 1.92-8.112 2.655-2.18 1.504-7.951 4.895-3.143 2.367-2.436 1.824-3.463 1.248-2.533.031-5.227-1.055-3.43-.832-3.046.064-4.36.96-4.65.32-3.142-.512-5.515-2.304-4.713-.192-2.309.256-2.95-.287-4.2-.033-4.713 4.287-.93 4.255-.897 3.615-1.41.576h-2.694l-2.18-.832-11.51-6.015-3.015-.927-14.589-1.727-5.13 2.43-4.905 1.089-6.797.927-6.189 1.312-5.835.288-12.088 1.024" clip-path="url(#pedd520a111)" style="fill:none;stroke:#000"/><path d="m276.904 420.33.813-1.471 7.792-19.291 2.95-5.15 2.436-5.216M276.904 420.33l-1.559 1.824-16.384 12.06-5.034 4.032-3.206.896-2.405.191-5.803.032-2.95.256-12.376 4.063-3.72 1.44-9.715 5.726-5.419 3.647-3.88 1.632-4.808 2.655-1.828.768-2.62.127M100.73 527.053l4.618-3.551 4.136-1.824 5.579-1.887 5.771-4.767 6.381-5.822 6.733-4.799 3.142-1.471 6.926-2.048 2.18-1.087 8.817-6.91 5.836-5.471 1.378-2.623 1.155-3.711 1.475-2.592 2.148-1.759 11.51-6.846 15.55-9.757 1.131-.449M175.213 455.761l4.625.304 2.966.32.527-.014.354-.082.674.272 1.106.32 2.681.683 2.824.605 1.93.551 1.45.572.846.387M379.132 371.383l-5.613.651M437.474 339.93l3.506-4.987M428.701 336.129l1.667.671 2.822.704 4.284 2.426M445.752 337.223l-4.772-2.28M445.752 337.223l-2.131 3.091M440.98 334.943l1.123-1.598M459.096 337.792l-5.546 8.062M452.877 342.11l-1.52 2.52M451.356 344.63l-1.497 2.478M451.356 344.63l2.194 1.224M451.356 344.63l-7.735-4.316M449.859 347.108l-7.976-4.275M443.62 340.314l-1.737 2.52M437.258 332.71l1.042.052 1.952.037 1.851.546M429.13 334.944l-.429 1.185M437.258 332.71l-1.13-.058-1.842.293-1.805.809-2.247.551-1.103.639M408.117 321.58l-.16-.648M407.956 320.932l.802-5.695 2.79-2.879 4.488-9.021 1.604-2.912.801-1.887-.096-.608-2.084-.736-1.603-1.184M149.188 114.957l1.304.518 2.694 3.2 3.719 1.855 3.078 3.584 4.489 1.855 10.324.512 2.052-1.024 2.95 2.048 4.745 2.367 2.886 3.647 4.617-.64.897.704M525.024 438.855l-.808-3.649-.609-4.094-2.277-5.503-4.52-10.877-5.612-15.324-.31-.842M545.441 427.614l-6.989.256-1.122.32-.385.224-.417.064-.994.448-4.007 4.937-3.015 3.87-1.186.64-2.302.482M529.53 460.776l-.89-5.575-3.616-16.346M529.53 460.776l.208 1.309M545.441 427.614l-.545 2.72-1.185 3.198-.77 1.472-2.501 8.03-1.315 2.208-.737 2.111-1.315 1.6-.353.608-.576 2.527-1.315 2.4-3.72 4.286-.865 1.408-.714.594M525.242 485.113l.32 1.887.578 2.88-.096.959-.802 1.344-1.635 2.175-4.425 2.655-1.282 1.088M525.242 485.113l-.48.64-1.476.543-1.57.896-.738.128-2.693-.768-1.796-.896-1.122-.768-4.425-1.951-6.54-2.527-2.085-1.056-4.072-3.647M529.016 476.312l-.952.995-1.571 2.399-.674 1.728-.192 2.015-.385 1.664M529.738 462.085l-.264 1.145-.032 2.592-.64 2.911-.493 4.46.043 1.682.32.896.344.541M533.47 482.34l-1.912-2.026-2.542-4.002M533.47 482.34l-1.142-1.834-1.058-3.583-.257-3.583-.16-1.344-.77-7.742-.345-2.17M529.474 589.05l-2.34-.56-2.453-.687-1.01-.864-.69-.944-3.03-3.119-1.282-.944-1.683-.847-2.693-.592-2.293-.944-1.122-.608-2.164-.255-2.373-.336-1.427.303-1.299.64-2.564 1.936-.674 1.167-.865.576-1.33.672-1.171.992-1.908 3.279-.32.832.095 1.839M529.474 589.05l.626.24 1.715 1.104.786.336M542.107 592.92l-.673.241-.641.112-.29-.096-.977-.8-1.587-1.855-.673-.352-2.357-.48-2.469-.16-1.234-.592-.593-.144-1.139.256M559.27 591.507l-1.147-.809-1.38-.784-.608-.192-.53-.064-2.228.256-3.126.752-2.148.975-.866.304-1.042.128-1.186.064-.818.192-1.01.4-1.074.192M606.493 241.785l1.15-.066 2.694.32h5.066l5.515.96 3.142.064 3.206.448 3.334-.512M607.002 230.074l.641 7.678-.128 1.408-1.022 2.625M584.815 278.443l1.218-1.276 12.376-18.62 3.912-6.782 2.63-6.015 1.542-3.965" clip-path="url(#pedd520a111)" style="fill:none;stroke:#000"/></g><g id="PatchCollection_1"><path d="m491.416 356.635-.545-1.344-.353-1.12-.096-2.462.032-1.888.064-1.216 1.026-1.503 1.026-.768 1.314-.512.994.672.834 1.791 1.154.736.642 1.343-.45 2.816-.352 1.983.385 1.28-1.122.192-.673.832-.29.8-.737.448-.833-.128-.834-.864-.737-.288zM510.365 379.605l-3.623-1.76-1.54-.735-1.378-.256-2.533-.608-1.283-.8-.64-.672-.225-1.12-1.571-1.823-.866-1.887.417-1.696.93-.32.224-1.024-.352-1.247.48-.896 1.636-.448.994.192.93 1.728 2.02 1.248 2.5 3.614 1.828 2.432 1.346 2.143 1.828 1.568.193 1.055-.193.8-.385.384zM574.106 378.134l1.346.415 2.95.064 3.463 1.216 2.02.096 2.052-.32 1.026-1.343-.641-2.048-1.411-2.847-.224-2.208-.834-1.055-1.123-.064-1.282.767-1.186 2.688-2.886 2.495-2.148 1.471zM572.342 570.464l-.513-1.088-2.212-.992-1.09-1.215-.353-1.984.65-1.31 2.203-1.281 2.758-.608 1.571.768.801 1.472 1.443 2.079-.031.864-.353.448.77 1.823-.065 1.184-.962.8h-1.378l-.93.447-1.443-.64zM562.98 587.546l.802.896.961.32.994.032 1.603-.32 1.38.384 1.602-1.087 1.058-.992.514-1.632.224-1.919-.642-2.143v-2.08l-.673-1.312-1.442-1.183-2.854-.608-2.084.288-1.059 1.983.129 2.912-.577 2.303-.546 1.92.033 1.439z" clip-path="url(#pedd520a111)" style="fill:#00f;fill-opacity:.8"/></g><g id="PatchCollection_2"><path d="m351.975 338.657.542 3.83 1.647.384-.27-4.498zM359.344 344.4l-.1 1.706 2.78.135.02-1.546z" clip-path="url(#pedd520a111)" style="fill:green;fill-opacity:.8"/></g><path id="PatchCollection_3" d="m341.317 330.237.073 3.098 5.275-.124-.073-3.098z" clip-path="url(#pedd520a111)" style="fill:#90ee90;fill-opacity:.8"/></g></g><defs><clipPath id="pedd520a111"><path d="M90 105.011h558v517.178H90z"/></clipPath></defs></svg>