<svg xmlns="http://www.w3.org/2000/svg" xmlns:xlink="http://www.w3.org/1999/xlink" width="960" height="960" viewBox="0 0 720 720"><defs><style>*{stroke-linejoin:round;stroke-linecap:butt}</style></defs><g id="figure_1"><path id="patch_1" d="M0 720h720V0H0z" style="fill:#fff"/><g id="axes_1"><path id="patch_2" d="M90 565.74h558V161.46H90z" style="fill:#fff"/><g id="LineCollection_1"><path d="m319.08 358.157 1.666-1.558M319.08 358.157l-3.283 3.073M323.095 365.057l-2.916-5.914-1.1-.986M336.438 400.575l-4.226-11.009M336.438 400.575l-2.81 2.818M339.222 407.317l-1.6-3.657-1.184-3.085M320.553 416.506l3.585-3.595M320.553 416.506l-2.27-5.788M320.553 416.506l1.993 5.566M309.3 388.762l-1.462-3.523M309.3 388.762l2.466 5.331M309.3 388.762l7.057-7.393M309.3 388.762l-2.7 2.445M325.544 372.195l2.166 5.64M325.544 372.195l-2.449-7.138M325.544 372.195l4.38-4.297M325.544 372.195l-2.572 2.569M351.655 346.33l.397-.402M351.655 346.33l-4.639 4.826M351.655 346.33l6.89 6.482M351.655 346.33l-5.216-4.95M375.737 321.203l5.328 7.94M370.008 327.222l2.532-2.673 3.197-3.346M371.594 315.864l.893 1.473 3.25 3.866M364.827 306.017l2.531 3.425M364.827 306.017l-3.543 4.54M423.126 230.412l-52.374 67.722-5.925 7.883M387.813 339.103l-3.473-5.229M387.813 339.103l-2.541 3.013M392.68 349.964l1.91-1.469-6.777-9.392M375.586 355.485l-.79-.518M381.033 354.668l-3.109.303-2.338.514M370.903 358.847l1.625-1.056 1.475-.745 1.207-.96.376-.6M385.272 342.116l-4.715 6.182M385.272 342.116l-4.702-4.543M385.272 342.116l3.447 3.458M370.008 327.222l-6.249 6.294M370.008 327.222l-4.973-4.555M370.008 327.222l6.693 6.56M357.354 315.595l3.255 2.991M357.354 315.595l3.93-5.037M357.354 315.595l-5.53 6.856M351.824 322.451l2.885 2.681M351.824 322.451l-4.658 6.216M363.76 333.516l-3.76 3.868M363.76 333.516l7.207 6.363M363.76 333.516l-4.899-4.525M380.557 348.298l-5.761 6.669M380.557 348.298l3.281 2.71M380.557 348.298l-5.994-5.262M347.166 328.667l1.377 3.331M347.166 328.667l-1.437 1.897M357.388 340.125l2.613-2.74M357.388 340.125l-5.336 5.803M357.388 340.125l6.933 6.106M357.388 340.125l-5.039-4.685M381.033 354.668l1.434.067M383.838 351.007l-2.757 2.728-.048.933M383.838 351.007l1.467 1.638M383.838 351.007l4.88-5.433M388.719 345.574l3.962 4.39M384.34 333.874l-3.275-4.73M384.34 333.874l-3.77 3.7M380.57 337.573l-3.869-3.791M380.57 337.573l-6.007 5.463M374.563 343.036l-3.596-3.157M368.056 349.408l3.746-3.104 2.76-3.268M381.065 329.144l-4.364 4.638M381.065 329.144l1.888-1.699M376.701 333.782l-5.734 6.097M370.967 339.879l-4.223 3.725M364.32 346.231l3.736 3.177M364.32 346.231l-5.434 6.233M364.32 346.231l2.424-2.627M329.73 383.1l2.482 6.466M329.73 383.1l-2.02-5.264M329.73 383.1l-2.544 2.559M329.73 383.1l.27-.281M313.754 399.164l-1.988-5.071M313.754 399.164l2.491 6.356M313.754 399.164l-6.266 6.055M313.754 399.164l3.44-3.458M311.766 394.093l3.337-3.404M311.766 394.093l-4.518 4.324M327.71 377.836l5.865-6.003M327.71 377.836l-2.479 2.525M349.301 355.74l-4.996 5.112M349.301 355.74l-3.252-3.665M349.301 355.74l3.181 3.58M352.482 359.32l-2.76 2.884M352.482 359.32l1.665-1.74M346.05 352.075l.966-.919M346.05 352.075l-5.074 4.978M346.05 352.075l-4.419-5.167M336.862 341.272l1.592 1.883M336.862 341.272l3.33-3.581M331.285 346.679l2.295-2.17 3.282-3.237M341.183 336.512l1.842 1.708M341.183 336.512l.325-.444M341.183 336.512l-.991 1.179M347.016 351.156l7.13 6.425M354.147 357.58l4.397-4.768M354.147 357.58l4.547 4.28M370.903 358.847l-2.922 2.403" clip-path="url(#p453ba2ac45)" style="fill:none;stroke:#000"/><path d="m375.806 362.306-1.837-1.476-1.918-1.474-1.148-.51M363.439 366.215l4.795 4.312M363.439 366.215l-4.745-4.354M363.439 366.215l-4.171 4.506M363.439 366.215l4.215-4.606M359.268 370.721l-4.987-4.367M359.268 370.721l4.67 4.607M363.937 375.328l7.471 6.702M363.937 375.328l4.297-4.801M349.723 362.204l-1.983 2.072M349.723 362.204l4.558 4.15M365.133 355.15l-1.593 1.888M358.694 361.86l-4.413 4.494M358.694 361.86l4.435-4.607M354.281 366.354l-2.383 2.739M332.212 389.566l-5.408 5.35M332.212 389.566l2.129-2.194M323.095 365.057l2.525-1.785M323.095 365.057l-3.266 2.772M330.27 359.424l-4.65 3.848M330.27 359.424l3.639 4.563M330.27 359.424l-4.24-5.81M333.909 363.987l7.067-6.934M333.909 363.987l-3.986 3.91M333.909 363.987l3.48 3.943M337.389 367.93l6.916-7.078M337.389 367.93l-3.814 3.903M337.389 367.93l3.593 3.41M340.982 371.34l-4.005 4.185M340.982 371.34l4.617-4.826M340.982 371.34l4.5 4.545M345.483 375.885l-4.082 4.208M345.483 375.885l4.372-4.725M345.483 375.885l2.205 2.131M325.62 363.272l4.303 4.626M329.923 367.898l3.652 3.935M333.575 371.833l3.402 3.692M336.977 375.525l-2.277 2.38M336.977 375.525l4.424 4.568M319.74 377.992l3.232-3.228M319.74 377.992l-3.383 3.377M319.74 377.992l2.322 5.6M319.74 377.992l-2.864-7.242M322.062 383.591l3.17-3.23M322.062 383.591l-3.436 3.504M322.062 383.591l2.171 5.037M324.233 388.628l-3.52 3.539M324.233 388.628l2.953-2.97M324.233 388.628l2.57 6.288M331.246 405.782l-3.524 3.535M331.246 405.782l2.383-2.389M331.246 405.782l1.85 4.354M331.246 405.782l-2.284-5.587M316.357 381.37l2.269 5.725M316.357 381.37l-1.414-3.48M318.626 387.095l-3.523 3.594M318.626 387.095l2.087 5.072M320.713 392.167l-3.52 3.54M320.713 392.167l2.559 6.26M327.722 409.317l-3.584 3.594M327.722 409.317l-2.271-5.557M315.103 390.689l2.09 5.017M317.193 395.706l2.612 6.471M324.138 412.911l-2.297-5.69M328.962 400.195l-2.158-5.28M328.962 400.195l-3.511 3.565M325.45 403.76l-2.178-5.332M325.45 403.76l-3.61 3.46M321.84 407.22l-2.035-5.043M321.84 407.22l-3.557 3.498M318.283 410.718l-2.038-5.198M326.804 394.916l-3.532 3.512M323.272 398.428l-3.467 3.75M319.805 402.177l-3.56 3.343M319.829 367.829l-2.953 2.921M319.829 367.829l3.143 6.935M322.972 374.764l2.26 5.597M325.231 380.361l1.955 5.298M345.6 366.514l2.14-2.238M345.6 366.514l4.255 4.646M349.855 371.16l2.043-2.067M347.74 364.276l-3.435-3.424M347.74 364.276l4.158 4.817M344.305 360.852l-3.33-3.799M340.976 357.053l-4.368-4.572M331.285 346.679l.856.933M331.285 346.679l-5.435 5.148M358.544 352.812l.342-.348M358.544 352.812l4.585 4.44M363.13 357.253l.41-.215M363.13 357.253l4.524 4.356M367.654 361.61l.327-.36M336.608 352.48l-3.573-3.894M336.608 352.48l5.023-5.572M341.631 346.908l-3.177-3.753M341.631 346.908l3.684-4.228M346.439 341.38l.338-.34M346.439 341.38l-1.124 1.3M346.439 341.38l-3.414-3.16M352.35 335.44l-3.807-3.442M352.35 335.44l6.511-6.45M352.35 335.44l-2.504 2.517M358.861 328.99l-4.152-3.858M358.861 328.99l6.174-6.323M365.035 322.667l-4.426-4.08M365.035 322.667l5.509-5.648M348.543 331.998l6.166-6.866M348.543 331.998l-2.647 2.984M354.71 325.132l5.9-6.546M360.61 318.586l3.682-4.704M364.292 313.882l3.066-4.44M364.292 313.882l6.252 3.137M367.358 309.442l4.236 6.422M521.077 510.688l-1.835 2.141-1.662 1.14-1.627 2.072-1.454.725-3.185.449-1.903.76-1.974 1.485-2.492.828-2.112.519-1.765.207-.727.587-1.489 3.108-1.765 2.66-.9 3.901-1.143 2.107-1.28 4.559-1.697 2.037-2.907 2.141-.97 1.07-.277 1.21.485.69 2.492 1.727 1.904.38 1.35-.345 1.87.138 1.904.932 1.592.207 7.858-2.486 3.116-.415 2.98.164 2.157-.092 9.07-.5" clip-path="url(#p453ba2ac45)" style="fill:none;stroke:#000"/><path d="m539.908 540.56-1.903-1.381-3.22-1.52-2.873-.172-5.124 1.035-1.938 2.142.139 3.073-.298 1.057M371.594 315.864l-1.05 1.155M345.315 342.68l-3.437-3.346M340.192 337.69l1.686 1.644M343.025 338.22l.356-.402M345.896 334.982l-2.515 2.836M345.896 334.982l3.95 2.975M345.896 334.982l-2.79-1.003M349.846 337.957l-3.069 3.084M325.85 351.827l-1.454 1.36M325.85 351.827l.18 1.786M326.03 353.613l-1.634-.426M332.141 347.612l-2.913 2.376-2.377 2.215-.821 1.41M333.035 348.586l-.894-.974M338.454 343.155l-2.94 3.308-2.479 2.123M341.878 339.334l-1.205 1.108-1 1.591-1.219 1.122M341.508 336.068l1.597-2.09M341.508 336.068l1.873 1.75M343.381 337.818l3.396 3.223M346.777 341.04l5.275 4.888M352.052 345.928l6.834 6.536M358.886 352.464l4.654 4.574M363.54 357.038l4.441 4.212M360 337.384l6.744 6.22M343.105 333.979l2.624-3.415M316.876 370.75l-3.065-7.661M313.811 363.089l1.986-1.86M313.811 363.089l-.535.496M309.677 366.92l3.6-3.335M309.677 366.92l-2.094 1.992M314.943 377.89l-3.008-7.405-.74-1.198-1.518-2.368M306.444 369.996l1.732.227 1.474-1.274.027-2.03M324.396 353.187l-3.65 3.412M305.551 321.218l1.348-.162 6.578 1.381 11.365 3.366 8.297 1.745 5.124 1.348 7.466 1.668M368.056 349.408l6.74 5.559M307.583 368.912l-1.14 1.084" clip-path="url(#p453ba2ac45)" style="fill:none;stroke:#000"/><path d="m304.65 369.475 1.488-.587 1.445.024M304.65 369.475l-.659-.346-.45-1.001-.76-2.245-2.006-1.737-.59-.947-2.685-5.686-1.31-3.104-.95-4.868M320.746 356.599l-3.138-.098-2.293 2.254.482 2.475M306.444 369.996l-4.353 4.143M371.408 382.03l4.209-4.864-7.383-6.64M371.408 382.03l-28.724 33.195M342.684 415.225l1.687 3.853M342.684 415.225l-.846-1.931M306.6 391.207l-3.509 3.616M306.6 391.207l-1.549-3.2M305.051 388.007l-3.483 3.5M305.051 388.007l2.787-2.768M307.838 385.24l7.105-7.35M302.091 374.139l1.762 2.174 3.985 8.926M302.091 374.139l-28.23 26.679M343.659 426.448l3.274-1.517M343.659 426.448l-3.036 1.407M343.659 426.448l3.396 8.022M343.659 426.448l-2.459-5.868M341.2 420.58l3.17-1.502M341.2 420.58l-3.053 1.447M341.2 420.58l-2.627-5.88M338.573 414.7l3.265-1.406M338.573 414.7l-2.99 1.288M338.573 414.7l-2.498-5.935M336.075 408.765l3.147-1.448M336.075 408.765l-2.98 1.371M336.075 408.765l-2.446-5.372M346.933 424.931l4.9 11.196M346.933 424.931l-2.562-5.853M340.623 427.855l3.455 8.134M340.623 427.855l-2.476-5.828M338.147 422.027l-2.565-6.039M341.838 413.294l-2.616-5.977M335.582 415.988l-2.486-5.852M255.565 311.255l11.178 6.554 6.093 2.452 3.947 1.485 12.808.899 5.262-.139 10.698-1.288" clip-path="url(#p453ba2ac45)" style="fill:none;stroke:#000"/><path d="m227.118 191.718-.012 6.493.312 2.038 1.108 2.659 1.662 2.763 6.439 8.807 6.923 7.736 5.816 6.561 1.142 2.073 4.327 9.532 3.877 10.292 2.666 8.116 1.453 2.14 6.336 7.357 4.257 6.527 4.258 4.87 7.131 10.499 18.694 29.631 2.044 1.406M382.467 354.735l2.838-2.09M437.712 385.001l-.271-.296-2.146-.484-.588-.794-1.35-1.623-1.004-.69-2.666-.519-4.397-.207-5.123-2.037-3.288-1.831-2.458-3.039-1.593-1.07-1.835-.243-1.073-.552-1.419-1.796-3.496-3.108-1.177-.726-1.385-.276-1.107-.483-3.393-4.075-1.594-.53-3.805-1.178-1.318-.538-1.557-1.493-1.677-1.136-3.414-1.195-2.11-.347M392.68 349.964l-7.375 2.681M341.4 380.093l-2.195 2.264M341.4 380.093l4.929 4.508M227.153 169.234l-.012 9.67-.023 12.814M522.842 509.341l-1.765 1.347M521.146 507.96l.657.656 1.04.725" clip-path="url(#p453ba2ac45)" style="fill:none;stroke:#000"/><path d="m542.195 527.966-1.456-4.604-.45-2.66-1.835-4.109-5.089-3.557-1.868-.898-1.316-.207-2.7-2.244-2.146-.45-2.493.104M521.146 507.96l-.07 2.728M462.4 415.176l2.18.61 1.109.726 4.431 5.629 2.838 4.455.866.864 1.627 1.001 1.8 2.556 2.008 4.109 2.804 3.385 4.258 4.006 7.027 10.636 1.281.829 3.185 2.694 1.385.518 4.188-1.07 2.077.034 1.385.31.97 1.14 1.418 4.317 1.974 2.694 2.354 5.042.865 1.554 1.662 5.94 1.038 2.452 1.489 2.245 2.077 6.009 1.073 3.66.242 3.972-.484 2.624-.554 7.218.173 2.625M542.764 530.817l-3.34-.548-1.49-2.9-3.08-4.905-1.073-.449h-.97l-1.66.76M542.195 527.966l.38 1.198.19 1.653M539.908 540.56l2.25-.104 1.178-.552.311-.742.024-.337.512-1.977-.536-1.692-.295-2.245-.588-2.094M539.908 540.56l.693 1.52-.935 3.177.485 2.175 2.735 2.936-.035 3.108 1.489 2.59 2.215 1.9M457.482 407.204l1.18-.224.779-.451M459.562 403.768l-.208 2.141.087.62" clip-path="url(#p453ba2ac45)" style="fill:none;stroke:#000"/><path d="m458.523 409.328 1.108-1.45-.19-1.35M437.712 385.001l.456.498 1.039 2.728 2.285 4.144.969 4.18.519 3.902 1.385 3.937 1.038.69 2.528.38 4.326.104 1.731.622 2.146.103 1.04.553.308.362" clip-path="url(#p453ba2ac45)" style="fill:none;stroke:#000"/><path d="m458.523 409.328-.346-1.312-.695-.812M459.562 403.768l-1.593-.897-1.107-3.005M463.785 401.385l-2.986-.003M460.799 401.382l.078-1.275M459.562 403.768l1.212-1.968.025-.418M462.4 415.176l-.657-.184-2.181-1.968-.83-1.278-.209-2.418M423.126 230.412l-1.193-.876-1.004.103-4.016 1.416-2.077.242-1.661.794-1.8.276-2.805-.345-1.488-1.485-2.977-2.21-1.315-.691-.728-.898-.207-.863.276-.588 2.423-.656M430.723 220.657l-1.057 1.298-6.54 8.457M362.01 303.512l-.726 7.046M139.378 491.198l.643-.3M100.73 495.286l19.573-.049 3.228-.092 3.115-.3 3.396-.61 3.356-.835 3.274-1.05 2.706-1.152M124.1 472.515l1.477 2.015 1.747 2.886.935 1.834 2.621 3.938.874.571 2.441 1.022 4.008 2.797.663.902.362.962.15 1.756M336.822 384.813l-2.481 2.559M336.822 384.813l2.383-2.456M336.822 384.813l-4.433-4.492M332.39 380.321 330 382.82M332.39 380.321l2.31-2.416M339.205 382.357l-4.505-4.452M339.205 382.357l4.596 4.558M334.34 387.372l-4.34-4.553M542.195 527.966l1.348.8 1.49.346 4.603-.155 3.046-.225.693.121 3.824 1.209 3.688.69 4.344.07 3.98.414h2.009l2.63-1.537 1.818-.587 4.708-2.383.917-1.088 1.974-2.814 5.002-5.319 2.683-2.072 3.254-2.642.986-1.14 1.506-1 3.289-2.867 3.15-2.037 1.143-1.02 1.782-.845 1.714-1.02 3.652-.258 1.16-.69 1.419-3.523.328-.846 1.247-.795 1.367-1.312.017-1.226.433-.639 1.177-.207 1.247-.553 1.107-1.76 1.454-1.624 1.108-1.485 1.852-.725 3.392-.398 3.03-1.053 2.06-.276 2.648-1.433.795-.881-.363-.414-.294-.708M155.967 502.158l-.335.373-.437.952M153.535 483.006l.865 2.27 1.073 2.617 1.67 6.189M155.967 502.158l.341-.38 2.068-1.27.278-.674.12-.992-1.63-4.76M165.335 492.415l-1.63-.118-1.075.08-3.658 1.427-1.074.317-.755-.04M153.535 483.006l86.97-54.382M143.587 489.089l1.243-.678 3.305-2.029 5.4-3.376M140.323 491.662l-2.864 1.626-4.493 1.627-5.17.872M140.323 491.662l-.302-.764M142.35 491.185l-1.113.16-.914.317M143.587 489.089l-1.832 1-1.734.809M143.587 489.089l-.6 1.343-.636.753M155.967 502.158l-.375-3.118-.596-2.3-1.233-2.063-5.567.04-4.454-.556-1.272-1.031-.12-1.945M100.73 495.286l.716 1.608 1.352 4.483.517 3.332 1.83 7.339.675 1.865 1.511 2.46.239.792M241.086 429.598l7.953 9.442 6.442 7.775 2.624 2.936 3.38 2.975 3.54 2.896 3.618 2.618 7.197 4.324 1.909.317.596.278M241.086 429.598l-.581-.974M248.164 425.116l-5.05 3.015-2.028 1.467M273.86 400.818l-16.565 15.654-2.004 1.787-2.206 1.913-2.296 1.794-2.123 1.555-8.161 5.103M221.6 372.52l5.302 2.035 4.743 2.073 4.19 3.073 1.66.829 2.008.69 4.19 3.765 1.834 1.14 1.627.76 1.246 1.519 2.285 1.968 1.073.311h2.388l1.42.104 4.119 1.692 1.073.933 1.939 1.173 2.7.795 1.177.449 3.704 3.143 1.627.967 1.956.879M219.252 371.62l1.044.4M220.296 372.02l-1.84 1.5-.554 1.035-1.28.725-.416.725-.797 4.836-1.28 1.968M220.296 372.02l1.304.5M214.994 360.672l3.428 3.005 1.8 1.864.76 1.589.07 2.038.548 3.352M437.712 385.001l2.504-4.598 1.319-1.635M457.797 425.486l1.61-4.18M462.4 415.176l-.248 1.421-2.477 4.504-.269.204M416.682 449.044l3.037-2.153 2.837-1.594 15.982-8.251 4.875-2.83 4.435-3.429 10.149-8.41 1.41-1.072M307.523 348.304l-6.89 1.45-1.35.036-.588-.277-.484-1.105M304.753 341.466l2.77 6.838M313.276 363.585l-.872-2.952-4.881-12.329M255.565 311.255l-.142-1.7.139-1.312.83-1.727.624-2.693-.07-2.452.555-2.038 1.038-2.142 1.8-3.176 1.731-4.974.589-2.107-.243-1.07-.796-.898M304.65 369.475l-.416.38-1.523.898-3.981 3.764-.346.138-.347-.103-6.37-6.079" clip-path="url(#p453ba2ac45)" style="fill:none;stroke:#000"/></g><g id="PathCollection_1"><defs><path id="m27c05f6fd7" d="M0 3a3 3 0 1 0 0-6 3 3 0 0 0 0 6z" style="stroke:green;stroke-opacity:.8"/></defs><g clip-path="url(#p453ba2ac45)"><use xlink:href="#m27c05f6fd7" x="363.282" y="365.589" style="fill:green;fill-opacity:.8;stroke:green;stroke-opacity:.8"/><use xlink:href="#m27c05f6fd7" x="363.421" y="364.882" style="fill:green;fill-opacity:.8;stroke:green;stroke-opacity:.8"/><use xlink:href="#m27c05f6fd7" x="362.971" y="364.864" style="fill:green;fill-opacity:.8;stroke:green;stroke-opacity:.8"/><use xlink:href="#m27c05f6fd7" x="363.031" y="365.339" style="fill:green;fill-opacity:.8;stroke:green;stroke-opacity:.8"/><use xlink:href="#m27c05f6fd7" x="362.78" y="365.054" style="fill:green;fill-opacity:.8;stroke:green;stroke-opacity:.8"/><use xlink:href="#m27c05f6fd7" x="363.092" y="364.165" style="fill:green;fill-opacity:.8;stroke:green;stroke-opacity:.8"/><use xlink:href="#m27c05f6fd7" x="363.364" y="363.877" style="fill:green;fill-opacity:.8;stroke:green;stroke-opacity:.8"/><use xlink:href="#m27c05f6fd7" x="363.944" y="363.266" style="fill:green;fill-opacity:.8;stroke:green;stroke-opacity:.8"/><use xlink:href="#m27c05f6fd7" x="364.886" y="362.271" style="fill:green;fill-opacity:.8;stroke:green;stroke-opacity:.8"/><use xlink:href="#m27c05f6fd7" x="365.181" y="361.96" style="fill:green;fill-opacity:.8;stroke:green;stroke-opacity:.8"/><use xlink:href="#m27c05f6fd7" x="361.861" y="359.336" style="fill:green;fill-opacity:.8;stroke:green;stroke-opacity:.8"/><use xlink:href="#m27c05f6fd7" x="360.565" y="360.659" style="fill:green;fill-opacity:.8;stroke:green;stroke-opacity:.8"/><use xlink:href="#m27c05f6fd7" x="365.472" y="361.652" style="fill:green;fill-opacity:.8;stroke:green;stroke-opacity:.8"/><use xlink:href="#m27c05f6fd7" x="362.443" y="358.743" style="fill:green;fill-opacity:.8;stroke:green;stroke-opacity:.8"/><use xlink:href="#m27c05f6fd7" x="362.892" y="359.174" style="fill:green;fill-opacity:.8;stroke:green;stroke-opacity:.8"/><use xlink:href="#m27c05f6fd7" x="363.333" y="359.598" style="fill:green;fill-opacity:.8;stroke:green;stroke-opacity:.8"/><use xlink:href="#m27c05f6fd7" x="363.677" y="359.929" style="fill:green;fill-opacity:.8;stroke:green;stroke-opacity:.8"/><use xlink:href="#m27c05f6fd7" x="364.387" y="360.61" style="fill:green;fill-opacity:.8;stroke:green;stroke-opacity:.8"/><use xlink:href="#m27c05f6fd7" x="362.807" y="361.359" style="fill:green;fill-opacity:.8;stroke:green;stroke-opacity:.8"/><use xlink:href="#m27c05f6fd7" x="362.374" y="360.97" style="fill:green;fill-opacity:.8;stroke:green;stroke-opacity:.8"/><use xlink:href="#m27c05f6fd7" x="363.083" y="334.637" style="fill:green;fill-opacity:.8;stroke:green;stroke-opacity:.8"/><use xlink:href="#m27c05f6fd7" x="362.754" y="335.008" style="fill:green;fill-opacity:.8;stroke:green;stroke-opacity:.8"/><use xlink:href="#m27c05f6fd7" x="362.382" y="335.397" style="fill:green;fill-opacity:.8;stroke:green;stroke-opacity:.8"/><use xlink:href="#m27c05f6fd7" x="362.01" y="335.768" style="fill:green;fill-opacity:.8;stroke:green;stroke-opacity:.8"/><use xlink:href="#m27c05f6fd7" x="361.309" y="336.459" style="fill:green;fill-opacity:.8;stroke:green;stroke-opacity:.8"/><use xlink:href="#m27c05f6fd7" x="361.153" y="336.597" style="fill:green;fill-opacity:.8;stroke:green;stroke-opacity:.8"/><use xlink:href="#m27c05f6fd7" x="360.859" y="336.942" style="fill:green;fill-opacity:.8;stroke:green;stroke-opacity:.8"/><use xlink:href="#m27c05f6fd7" x="360.513" y="337.271" style="fill:green;fill-opacity:.8;stroke:green;stroke-opacity:.8"/><use xlink:href="#m27c05f6fd7" x="365.056" y="335.129" style="fill:green;fill-opacity:.8;stroke:green;stroke-opacity:.8"/><use xlink:href="#m27c05f6fd7" x="364.702" y="334.793" style="fill:green;fill-opacity:.8;stroke:green;stroke-opacity:.8"/><use xlink:href="#m27c05f6fd7" x="364.139" y="334.3" style="fill:green;fill-opacity:.8;stroke:green;stroke-opacity:.8"/><use xlink:href="#m27c05f6fd7" x="365.264" y="335.319" style="fill:green;fill-opacity:.8;stroke:green;stroke-opacity:.8"/><use xlink:href="#m27c05f6fd7" x="365.585" y="335.595" style="fill:green;fill-opacity:.8;stroke:green;stroke-opacity:.8"/><use xlink:href="#m27c05f6fd7" x="365.887" y="335.863" style="fill:green;fill-opacity:.8;stroke:green;stroke-opacity:.8"/><use xlink:href="#m27c05f6fd7" x="366.225" y="336.183" style="fill:green;fill-opacity:.8;stroke:green;stroke-opacity:.8"/><use xlink:href="#m27c05f6fd7" x="366.606" y="336.545" style="fill:green;fill-opacity:.8;stroke:green;stroke-opacity:.8"/><use xlink:href="#m27c05f6fd7" x="366.969" y="336.908" style="fill:green;fill-opacity:.8;stroke:green;stroke-opacity:.8"/><use xlink:href="#m27c05f6fd7" x="364.502" y="339.61" style="fill:green;fill-opacity:.8;stroke:green;stroke-opacity:.8"/><use xlink:href="#m27c05f6fd7" x="363.871" y="340.301" style="fill:green;fill-opacity:.8;stroke:green;stroke-opacity:.8"/></g></g><g id="PatchCollection_1"><path d="m373.467 366.033 4.797 4.143 2.8-3.227-4.798-4.143zM456.205 425.971l.027 4.545 2.477-.014-.026-4.545zM351.014 353.93l.823.732 1.429-1.596-.823-.733zM363.1 335.976l1.61 1.466 1.057-1.157-1.61-1.465z" clip-path="url(#p453ba2ac45)" style="fill:#90ee90;fill-opacity:.8"/></g><g id="PatchCollection_2"><path d="m366.055 361.681-3.191-3.02.575-.604 3.7 3.503-3.212 3.378-.51-.483z" clip-path="url(#p453ba2ac45)" style="fill:#a9a9a9;fill-opacity:.8"/><path d="m365.073 361.734-1.751 1.879-2.722-2.526 1.751-1.878zm-1.05.024-1.591-1.468-.761.82 1.592 1.47zM363.45 339.503l.57-.593.379.362-.978 1.018-1.788-1.71.408-.425z" clip-path="url(#p453ba2ac45)" style="fill:#a9a9a9;fill-opacity:.8"/><path d="m363.962 338.865-.417.429-.616-.599.416-.427zM364.924 338.717l-.425.457-.696-.645.425-.457zM364.104 337.96l-.43.464-.84-.775.43-.464zM359.554 362.173l1.216 1.082.482-.54-1.216-1.081zM348.475 368.68l1.54 1.59 1.004-.968-1.54-1.59zM349.108 373.495l2.265 2.063 1.211-1.323-2.265-2.063zM363.1 335.976l1.61 1.466 1.057-1.157-1.61-1.465z" clip-path="url(#p453ba2ac45)" style="fill:#a9a9a9;fill-opacity:.8"/><path d="m363.803 338.529.696.645.425-.457-.696-.645zM362.834 337.649l.84.775.43-.464-.84-.775zM362.929 338.695l.616.599.417-.429-.617-.597zM404.601 225.306l-.092.507.096.018-.022.122.132.024.022-.122.111.02.093-.508z" clip-path="url(#p453ba2ac45)" style="fill:#a9a9a9;fill-opacity:.8"/></g></g></g><defs><clipPath id="p453ba2ac45"><path d="M90 161.46h558v404.281H90z"/></clipPath></defs></svg>