<svg xmlns="http://www.w3.org/2000/svg" width="960" height="960" viewBox="0 0 720 720"><defs><style>*{stroke-linejoin:round;stroke-linecap:butt}</style></defs><g id="figure_1"><path id="patch_1" d="M0 720h720V0H0z" style="fill:#fff"/><g id="axes_1"><path id="patch_2" d="M90 632.148h558V95.052H90z" style="fill:#fff"/><g id="LineCollection_1"><path d="m370.043 335.527 1.355-2.255M370.043 335.527l.297.735M368.371 329.107l.579 3.115.406 1.587.687 1.718M382.532 357.506l-2.024 5.139M382.532 357.506l1.78.456M378.058 352.55l1.03 1.423.593.852.875 1.058 1.007 1.02.524.376.445.227M426.068 393.507l-.078-.69-.195-.551-.25-.434-.422-.676-.953-1.109M418.382 385.94l1.313 1 2.475 1.719 2 1.388M422.561 380.953l.742.728 1.804 2.284 1.399 1.704.093.33.047.486-.031.888-.07.882-.193.442-.308.3-1.874 1.05M444.368 425.29l-2.765-2.63-4.608-4.363M425.88 403.827l.258.566.438.565.828.963 1.468 1.27 1.398 1.153.477.544 1.077 1.917 1.477 2.446 1.882 2.784.75.97 1.062 1.292" clip-path="url(#p634d0f7c1f)" style="fill:none;stroke:#000"/><path d="m421.936 405.156.984 1.257 1.235 1.263 1.108 1 3.148 2.666 2.937 2.46 1.156 1.007 1.07.97.89.836 1.062.786 1.47.896M446.603 429.468l-1.188-2.474-1.047-1.704M444.368 425.29l3.755 3.313M448.123 428.603l-.544.04-.341.096-.298.306-.337.423M448.123 428.603l1.107 1.208M581.636 490.171l.558-.422 3.639-2.526 1.593-.838.29-.22.21-.279.11-.36-.094-.808-.156-.94-.156-.411-.43-.691-1.343-1.674-.696-.977-.398-.712-.414-1.051-.18-.558-.109-1.22.141-3.172.266-2.079.397-3.885.266-1.131.766-1.734.69-2.164M545.72 445.4l5.857.39 1.398.657.94.59 1.255 1.202 1.109 2.675 1.326 1.428 3.858 1.61 2.941 1.542 3.433 2.46 1.438.669.868.114h3.037l4.485-.227 2.05.43 4.46 2.744 2.412.635M436.526 601.485l-.952-1.396-.985-2.688-.265-1.645.031-1.145.516-1.337 1.796-2.335.406-1 .14-.777-.14-.632-.39-.602-1.406-1.16-3.656-2.733-1.062-.925-.937-1.087-1.25-1.939-.89-1.865-1.578-3.701-1.125-2.233-.718-2.057-1.468-5.155-.305-1.689M400.973 513.31l.671 4.114 1.203 5.493.266 1.895-.063 1.307-.25.78-.75 1.997-.14.999v.969l.484 2.291 2.906 8.446.624.94 1.266 1.351.78.852.845 1.205 2.334 3.495.977.735 1.312.735 2.14 1.16.984.69 1 .896 1.723 2.155 2.651 3.706.328.822.22.867-.102 1.219-.094.955" clip-path="url(#p634d0f7c1f)" style="fill:none;stroke:#000"/><path d="m413.298 591.328.125-.558-.047-.86.062-.426.344-.851.156-.669.016-.565-.008-.698.04-.323.085-.235.313-.484 1.077-1.514.86-1.1.304-.478.219-.724.164-.444.101-.338.094-.44.14-1.558.009-.807.1-.603.25-.866.298-.683.431-.63.959-1.316.922-.977.664-.75.359-.55.195-.573.094-.705-.133-.749-.21-.639-.47-1.175-.14-.697-.031-.801.64-1.33 1.008-1.828M451.975 615.247l.774 1.49.656 1.535M450.906 616.7l.32.052.672.235.453.213.335.294.719.778M275.147 338.716l-13.952-.794-11.17-.514-2.561.073-1.89.22-1.23.317-2.379.8-2.046 1.161-5.92 3.952-2.922 2.703-1.5 1.896-3.795 5.509-2.875 4.29-.703 1.484-.187 1.263.016 1.293.156.925.421 1 .89 1.865.235.91-.125.986-.39.94-1.078 1.175-3.296 2.424-5.577 4.246-5.499 4.26-1.374 1.014-1.672.91-9.67 3.967-3.692 1.628-1.775.973-1.14.837-1.125 1M169.846 425.224l-.004-.272.11-2.57.281-1.646.5-1.998 3.733-6.258 4.92-8.139 2.953-5.832 1.297-2.189 1.562-2.174 2.124-2.718M144.74 310.088l.39.433.921 1.484 2.62 3.745 2.096 3.985 1.359 2.448.096.328.062.734-.158.779-.392 1.386-.153 1.185.281 1.087 1.39 2.453.626 1.176.363 1.008.324 1.607-.047 1.188-.852 1.82-.991 1.282-3 2.806-.453.882-.343 1.058-.125 1.484-.493 1.86-.553.996-1.438 1.463-.469.75-.125.925.047.866.234.632.93 1.526.773 1.442.438.852.375 1.19.156 1.028-.078 1.293-.383 1.05-.594 1.066-.03.374.07.39.304.33 4.6 2.74.485.36.367.433.132.456.172.308.618.75 1.067 1.066 1.197.932.594.506 1.273 1.52 1.328 1.265.625.675.406.647.343.448.634.426.71.213.726.037.75-.118 1.25-.55 2.521-1.288.588-.123.593.147.453.271 2.242 2.138 1.101.86.867.756.625.779.812 1.278.688 1.246.322.801.254.931.437.996.599.672.99.584 1.186.521.812.61 1.164 1.498 1.14 1.367 1.344.984 1.421.764 1.968 1.043" clip-path="url(#p634d0f7c1f)" style="fill:none;stroke:#000"/><path d="m204.2 396.57-.226.058-2.561 1.499-.547.338-.32.36-1.031 2.035-2.25 4.554-.172.279-.25.213-.804.419-.672.286-.663.096-1.555-.177-.703-.169-1.203-.69-1.687-1.014-.343-.33-.079-.302.047-.404.625-4.201.063-2.306-.11-2.249-.125-1.277-.234-.676-.226-.28-.227-.22-1.625-.984M447.579 431.982l-.585-1.507M447.579 431.982l.722-.9.222-.243M443.4 447.324l1.03-1.218 2.117-3.364.727-1.719.383-1.292.226-1.146.211-1.44-.055-1.645-.078-1.704-.203-.926-.18-.888M448.523 430.839l.797.356.348.236.222.154M448.523 430.839l.477-.459.187-.319.043-.25M446.994 430.475l.592.147.457.107.48.11" clip-path="url(#p634d0f7c1f)" style="fill:none;stroke:#000"/><path d="m449.89 431.585-.016-.654-.179-.484-.187-.331-.278-.305M330.995 307.139l-.289-.181-.466-.198-.398-.073M331.224 300.876l-.69 2.81-.692 3M327.303 307.715l.72-.389 1.218-.514.6-.125M359.686 313.504l-.295.567-.377.836-.328.933-.242.756-.539 3.49M368.371 329.107l-.82-1.737-2.397-4.463-.641-.646-.89-.573-2.437-.955-2.64-.603-.641-.044M355.171 320.762l2.094-.603.64-.073M378.058 352.55l.072-.037.135-.136.081-.17.021-.184-.043-.182-.1-.16-.149-.12-.183-.071-.212-.013M377.903 352.61l.054-.008.1-.052M409.33 373.909l-1.875-2.674-1.007-1.256-1.195-.918-1.28-.815-1.641-1.176-.89-.918-.735-.97-1.296-2.806-.547-.83-.524-.668-.25-.287-.624-.426M393.6 359.982l1.046.11 1.484.036.93.03.406.007M446.603 429.468l.39 1.007M461.508 439.011l-1.647.026-1.7-.026-2.015-.015-1.562-.132-1.358-.441-1.047-.676-.922-.631-.875-.794-.437-.866-.172-.764.016-1.322.101-1.785M350.094 305.975l1.493 1.043.945.565M352.532 307.583l.937 1.462.57.764.672.75.302.293M355.874 309.659l-.875-.629-1.21-.727-1.257-.72M359.686 313.504l4.382 2.49 4.53 2.44.765.33.805.147.875.103 2.413-.022.805-.14.898-.147 1.593-.22M392.928 305.717l-1.64 2.086-1.93 2.212-.523.529-.75.573-1.741.683-2.258.742-1.718.404-.859.22-.578.147-.43.228-.445.448-1.125 1.822-.82 1.403-.43.529-.929.742M374.089 327.623l3.1-4.606.25-.44.118-.64-.04-.955-.304-1.3-.461-1.197" clip-path="url(#p634d0f7c1f)" style="fill:none;stroke:#000"/><path d="m356.804 310.346 1.625 1.035 1.273.86.671.315 1.234.485 2.437.816 1.242.587 1.312.456 6.858 1.932 1.187.382.414.22.453.228.528.357.714.466M371.398 333.272l-3.027-4.165M374.089 327.623l-.297.493-.433.92-1.961 4.236M371.87 340.133l-2.52.943M372.847 342.175l-.32-.69-.657-1.352M370.34 336.262l.898 2.138.632 1.733M364.653 342.55l4.697-1.474M364.653 342.55l-1.124 2.307M364.653 342.55l1.89-4.642M369.35 341.076l.466 2.466M370.027 343.902l.422.485M370.027 343.902l-.21-.36M370.027 343.902l2.82-1.727M370.449 344.387l2.75-1.543M372.91 346.186l-1.54-.955-.499-.382-.422-.462M377.315 349.051l-4.406-2.865M377.315 349.051l-2.43-4.018M377.955 350.675l-.07-.441-.156-.478-.414-.705M372.847 342.175l.351.669M374.885 345.033l-.991-1.19-.696-1M372.91 346.186l1.975-1.153M377.68 351.477l.275-.802M377.68 351.477l-.205.058-.17.118-.119.167-.05.195.02.199M377.157 352.214l.094.18.14.131.176.083.195.027.141-.024M371.378 354.2l2.718-.932 3.06-1.054M377.955 350.675l5.528-5.05M390.467 337.022l.268-.344M390.467 337.022l-2.452 3.09M390.467 337.022l1.106 1.888M387.823 332.685l1.957 3.173.687 1.164M367.73 355.7l-1.483.763M367.73 355.7l3.648-1.5M368.762 350.96l-.453 1.155-.328 1.13-.172 1.293-.078 1.161M361.576 358.682l1.617-.809 1.585-.72 1.469-.69M369.137 360.297l-.719-.91-2.171-2.924M361.373 349.309l1.468 1.953 1.313 1.954 1.093 1.792 1 1.455M371.714 374.1l.234-1.05M376.234 377.85l-.467-.304-.85-.515-1-.544-.813-.514-.75-.837-.64-1.036M366.926 367.797l4.07 5.51.343.419.375.374M380.508 362.645l-5.692 1.514M380.508 362.645l.452-.146M386.371 358.576l-.924 2.966M386.371 358.576l4.4 1.05M386.371 358.576l-2.058-.614M385.447 361.542l-2.695.582M390.77 359.625l-2.394 1.202-2.929.715M393.6 359.982l-.54-.037-2.29-.32M374.816 364.16l-.634 1.338M376.041 359.093l-.297 1.278-.343 1.234-.585 2.554M409.33 373.909l-2.703 3.357M412.375 378.751l-.258-.53-.195-.462-.499-.993-.89-1.395-1.203-1.462M416.89 378.5l-.976-.477-1.171-.596-1.187-.895-.829-.801-.655-.654-.875-.668-1.086-.427-.78-.073M408.44 381.88l-.258-1.434-.14-.396-.157-.33-1.258-2.454M400.74 372.126l1.646-.773.313-.015.242.088.258.191 1.32 2.086 1.327 2.27.781 1.293M405.776 496.491l-.976 1.33-.844 1.256-.437 1.249-.485 1.63-1.796 7.888-.343 1.704-.032.852.11.91M392.85 517.945v-.544l.054-.278.204-.36.28-.214.461-.205.243.037.382.183 1.516.955.39.066.719.022.476-.059.266-.154.328-.294 1.835-2.35.969-1.44M317.806 271.197l2.173.126M317.806 271.197l-.797-7.516M319.735 282.518l-.352-1.154-.32-1.27-.382-1.822-.39-2.564-.485-4.51M319.979 271.323l4.975.324M319.735 282.518l.87-.307.196-.156.149-.206.043-.25.163-6.618-.124-.647-.274-.764-.78-2.247M321.844 286.551l-.844-1.47-.866-1.505-.399-1.058M326.905 291.23l-1.562 2.16-.25.14-.29.037-.311-.06-.86-.66-1.444-1.367-.938-1.19-.476-.962-.172-.764-.047-.537.149-.484.484-.463.656-.529" clip-path="url(#p634d0f7c1f)" style="fill:none;stroke:#000"/><path d="m326.905 291.23-2.57-2.005-.843-.676-.766-.852-.882-1.146M347.493 304.365l-8.052-5.157-6.701-4.26-2.633-1.697-3.202-2.02M347.493 304.365l.438.868M350.094 305.975l-.999-.61-1.602-1M354.43 313.188l-.82-.962-1.657-2.13-1.757-2.035-1.156-1.44-1.109-1.388M344.955 307.59l2-1.578.976-.78" clip-path="url(#p634d0f7c1f)" style="fill:none;stroke:#000"/><path d="m357.702 312.46-.343.14-1.172.258-1.758.33" clip-path="url(#p634d0f7c1f)" style="fill:none;stroke:#000"/><path d="m344.955 307.59 1.586 1.947 3.061 3.6.438.286.469.133.64.014 1.234-.11 1.187-.147.86-.125M344.955 307.59l-.273-.389M359.686 313.504l-.859-.58-1.125-.463M355.593 311.3l1.14.75.477.213.492.198M355.593 311.3l.133-.22.156-.235.156-.147.204-.198.226-.081.336-.073M355.013 310.852l.338.265.242.183M355.85 330.297l.227-1.63.141-3.923-.156-1.322-.89-2.66M352.242 321.643l.602-.073 2.327-.808M362.958 329.305v-.646l-.1-1.932-.38-.777-.266-.28-.284-.214-.38-.116-.43-.051-.562.19-.355.263-.648.978-.82 1.337-.758 1.263-.577.75-.407.345-.468.088-.672-.206" clip-path="url(#p634d0f7c1f)" style="fill:none;stroke:#000"/><path d="m350.638 322.426 1.83 2.92 1.032 1.697 1.562 2.431.313.397.476.426M346.697 319.47l2.796 1.204M330.995 307.139l.254.279.413.775 1.304 3.034.383.823.617 1.094.585.802 1.907 1.755 1.17.881 1.68.875.742.308.79.176 2.569.426 2.039.617 1.249.485" clip-path="url(#p634d0f7c1f)" style="fill:none;stroke:#000"/><path d="m360.904 333.86-.515-.353-.531-.168-1.286-.205-1.76-.002-1.375.03-1.125-.103-.843-.25-.64-.367-.516-.558-.719-1.866-.437-1.337-1.609-3.893-1.375-3.16-.5-.998-.976-1.16M360.904 333.86l-.999 2.373M362.958 329.305l-.156.632-.226.654-.555 1.286-.366.66-.75 1.323M349.493 320.674l1.145 1.752M352.242 321.643l-.655-.05-.712-.258-1.382-.661M359.163 338.18l.296-.823.446-1.124M353.813 340.067l2.405-1.175 2.562-1.47 1.125-1.19M349.876 342.396l-5.116-.404-.547-.008-.327-.117-.188-.25-.102-.602-.413-3.063.039-.36.07-.206.398-.72M353.813 340.067l-2.11-2.38M349.876 342.396l.375-.507 1.078-.588 2.484-1.234M351.704 337.687l-2.47 1.897M341.972 326.154l3.265 3.864 2.608 3.262 1.766 1.85 2.093 2.557" clip-path="url(#p634d0f7c1f)" style="fill:none;stroke:#000"/><path d="m350.33 349.881-.696-1.293-.094-.345-.016-.33.172-4.268.07-.654.11-.595M361.373 349.309l-.82-.992-2.101-2.69-.508-.697-.15-.44-.125-.455-.136-.734-.034-.428.227-.734M359.163 338.18l-.305.638-.438 1.242-.694 2.079M353.555 347.597l-.32-.588-.173-1.087-.085-.874-.047-.485.093-.412.243-.308.304-.191 1.61-.75.835-.44.813-.213.898-.11M372.542 370.684l1.306-4.083.334-1.103" clip-path="url(#p634d0f7c1f)" style="fill:none;stroke:#000"/><path d="m369.137 360.297 1.453 1.749 2.124 2.534.703.485.765.433M353.555 347.597l-3.226 2.284M356.991 352.261l-.64-.888-.718-.911-1.125-1.492-.953-1.373M358.085 361.289l1.695-1.124 1.796-1.483" clip-path="url(#p634d0f7c1f)" style="fill:none;stroke:#000"/><path d="m356.991 352.261 1.133 1.322 1.203 1.381 1.093 1.25.633.97.285.635.238.863M363.365 362.86l-.36-.476-.28-.368-.454-.808-.32-.646-.375-1.88M350.33 349.881l-1.485 1.146M352.313 352.629l-.328-.485-1.656-2.263M353.453 354.443l-1.14-1.814M353.453 354.443l3.538-2.182M357.483 359.144l-.484-.514-.398-.485-.734-.91-.883-.992-1.53-1.8M355.03 364.808l.876-.514.851-.551.351-.353.25-.44.196-.574.203-.573.328-.514M357.483 359.144l.313.632.289 1.513M370.34 336.262l-3.796 1.646M361.373 349.309l-4.382 2.952M363.529 344.857l-1.343 2.938-.345.793-.468.72M362.958 329.305l3.586 8.603M363.529 344.857l-1.672-1.895-.468-.691-.86-1.499-1.366-2.593M363.529 344.857l1.943 2.237M371.378 354.2l-1.42-1.968-1.196-1.271M365.472 347.094l.181.209 3.11 3.658M348.845 351.027l-3.515.162M348.845 351.027l-.39 3.864M357.483 359.144l-2.484 1.52-1.75 1.206-.702.41-1.148.39M351.047 362.788l.227-.037.125-.081" clip-path="url(#p634d0f7c1f)" style="fill:none;stroke:#000"/><path d="m352.313 352.629-.008 1.064.008 1.007-.312 2.586-.602 5.384M351.047 362.788l-.343-.118-.453-.485-1.57-2.078-.593-.72M348.454 354.89l-.28 1.69-.173 1.565.024.735.063.506" clip-path="url(#p634d0f7c1f)" style="fill:none;stroke:#000"/><path d="m349.587 365.976-.274.007-.468-.205-.484-.324-2.117-2.24-.406-.28-.562-.653-.172-.411-.149-.61-.039-.58-.023-.662.015-.183.047-.177.117-.102.258-.022.637-.048.906-.019.695-.043.52-.038M354.242 372.021l.64-.984.61-.852M355.03 364.808l-.874.462-1.085.874-.477.508-.46.565-.352.632-.172.617v.374l.172.478.297.323.421.375.438.162.476-.067.555-.161.375-.067.343.037.805.265M361.295 372.734l-1.226-.53-.695-.344-2.18-.948-1.702-.727M351.844 371.75l1.367.11.629.092.402.07" clip-path="url(#p634d0f7c1f)" style="fill:none;stroke:#000"/><path d="m354.266 379.007-.172-3.687-.11-1.933-.007-.47.078-.426.187-.47M356.906 373.167l-.438-.279-.656-.33-1.57-.537M366.926 367.797l-2.624-3.687M366.926 367.797l2.148-1.594M363.872 369.92l1.094-.698 1.96-1.425M360.78 372.095l-.618-.794-.804-1.08-.414-.47-.305-.279-.804-.367-.57-.309-.437-.477-.18-.39-.235-1.307-.14-.293-1.242-1.521M362.857 374.754l-.75-1.028-.812-.992M360.78 372.095l.234.271.281.368M363.365 362.86l2.242-.072M364.302 364.11l-.445-.5-.492-.75M365.607 362.788l.632-.191M364.302 364.11l.665-.638.64-.684M376.041 359.093l-1.78-.757-.641-.235-.648-.257-.344-.077-.125.007-.148.096-.813.643-2.405 1.784M366.24 362.597l.89-.661 1.023-.897.984-.742M377.903 352.61l-.8 2.604-1.062 3.879M348.454 354.89l-2.959.09M366.24 362.597l2.834 3.606M369.074 366.203l3.468 4.481M372.542 370.684l-.594 2.365M363.872 369.92l-1.64 1.16-1.452 1.015M362.435 368.128l1.437 1.792M366.903 374.166l-.469-.712-1.343-1.83-1.219-1.704M370.05 378.265l-.523-.889-.718-.955-1.906-2.255" clip-path="url(#p634d0f7c1f)" style="fill:none;stroke:#000"/><path d="m362.857 374.754 1.187 1.036.29.117.234.022.43-.272.706-.562.675-.562.524-.367M371.833 381.167l2.818-.14M370.05 378.265l.876 1.322.53.933.377.647M366.122 381.695l2.398-.235 2.64-.205.673-.088M376.578 380.882l-.054-1.132.008-.669-.023-.712-.275-.518M376.668 374.63l.08.479.364.815.04.203-.04.213-.878 1.51M376.578 380.882l-1.927.145M376.578 380.882l.44 3.59M382.423 380.365l-1.188.089-.648.059-.531.051-.625.03-2.853.288M375.083 373.922l-1.135-.27-2-.603M375.083 373.922l1.585.709M375.083 373.922l4.911-2.503" clip-path="url(#p634d0f7c1f)" style="fill:none;stroke:#000"/><path d="m382.266 373.027-.515.236-.656.146-.54.03-.561.118-.829.344-.796.368-.812.264-.889.098M359.795 378.779l-.031-2.438-.094-1.565M362.912 375.753l-.938-.28-.914-.205-1.39-.492M356.906 373.167l.874.514 1.203.757.687.338M362.912 375.753l.078 2.85M362.912 375.753l-.055-1M370.05 378.265l-1.077.007-.86-.014h-1.343l-3.78.345M359.795 378.779l1.758-.073.71-.037.727-.066M349.587 365.976l-.18.337-.14.191-.274.104-.788.227-.461.17-.547.425-.883 1.25-.406.99-.078.309.055.33.32.383.539.264.875.243 2.14.272 1.312.16.773.118M351.985 379.08l.023-1.63.016-1.896-.062-1.77-.063-1.036-.055-.999M351.985 379.08l2.28-.073M351.985 379.08l-.822-.058M357.077 378.904l-.212.008-1.812.089-.787.006M356.906 373.167l.171 5.737M359.795 378.779l-.665.09-.43.014-1.623.021M360.092 382.312l-.109-1.542-.188-1.991M360.264 390.598l-.04-1.8-.014-2.79-.118-3.696" clip-path="url(#p634d0f7c1f)" style="fill:none;stroke:#000"/><path d="m366.122 381.695-2.351.243-3.68.374M358.483 394.91l.164-.5.453-.962.531-1.131.633-1.719M362.326 385.61l-.25.603-.469 1.16-1.343 3.225M374.651 381.027l.266 3.592M377.018 384.472l-1.008.073-1.093.074M369.91 385.133l3.085-.338.867-.095 1.055-.081M402.94 386.64l1.438.968 1.296.72 3.421 1.97 1.204.557.734.25M411.056 394.998l.055-1.895-.078-1.998" clip-path="url(#p634d0f7c1f)" style="fill:none;stroke:#000"/><path d="m410.252 386.624.53 2.542.25 1.939M391.256 380.359l-1.086-.331-.585-.06-2.374.133-3.359.184-1.43.08" clip-path="url(#p634d0f7c1f)" style="fill:none;stroke:#000"/><path d="m387.976 376.348-1.468.103-3.668.19-.16.063-.097.07-.036.08-.124 3.511M389.14 374.963l-.047.206-.07.209-.18.555-.137.194-.199.14-.531.08" clip-path="url(#p634d0f7c1f)" style="fill:none;stroke:#000"/><path d="m389.14 374.963-.523-.106-.352.044-.14.11-.087.257-.062 1.08M404.98 383.664l-2.04 2.975M410.252 386.624l-1.977-1.065-3.295-1.895M391.327 376.054l1.82 1.006 2.655 1.499 2.468 1.432 2.78 1.499 2.352 1.27 1.578.904M408.44 381.88l.992 1.828.375 1.19.445 1.726M362.326 385.61l.593-1.19.673-.83.882-.756.554-.426 1.094-.713M354.78 404.554l1.782-2.204.546-.962.399-1.057M358.483 394.91l-.398 1.094-.281 1.418-.18 1.499-.117 1.41M366.106 404.003l-.976-.477-1.007-.382-1.946-.654-2.342-.954-2.328-1.205M354.78 404.554l-.697.642M359.061 408.315l-.508-.353-1.42-1.314-1.29-1.058-.437-.382-.626-.654M342.034 416.953l2.148-2.012M323.834 422.373l.72-.021 1.039-.206.937-.293 1.016-.287.843-.132.914-.008 2.187.375.883.066 1.077-.051 1.804-.397.602-.316.563-.499.96-1.315.781-.97.656-.448.789-.198 1.242-.22 1.187-.5M347.595 420.765l-3.671-1.2-.469-.338-1.42-2.274M362.326 385.61l1.21-.073M369.91 385.133l-2.57.176-3.803.228M364.232 392.5l-.344-3.364-.351-3.599M369.91 385.133l.195 3.798M391.163 384.464l-.032 2.652M391.163 384.464l.093-4.105M391.163 384.464l8.61 4.938M377.018 384.472l1-.044 1.976-.147 1.983-.242 2.96-.148 2.102-.198 1.78-.162.563.052 1.78.881M364.232 392.5l.53 3.894" clip-path="url(#p634d0f7c1f)" style="fill:none;stroke:#000"/><path d="m370.37 392.118-.952.022-1.913.155-3.273.205M360.327 397.496l.35-1.477.259-1.286.085-1.417.055-.22.141-.14.648-.155 2.367-.3M364.763 396.394l.195 3.114M370.808 395.776l-3.53.324-2.515.294M369.402 401.065l-.992-.25-1.406-.536-2.046-.77M360.327 397.496l.944.594.977.478 2.71.94M370.37 392.118l.438 3.658M370.37 392.118l-.265-3.187M377.44 391.457l-.696.045-.336.014-.523.081-1.351.081-2.21.22-1.953.22M370.808 395.776l.508 5.032M377.853 395.24l-.835.066-2.242.162-3.968.308M371.91 403.298l-.281-.955-.313-1.535M373.855 399.471l-1.133.536-1.406.801M369.402 401.065l.586.066.726-.117.602-.206M369.402 401.065l.399 2.527.21.191.368.066.46-.088.344-.11.375-.162.351-.191M373.855 399.471l.492.772.109.293-.008.309-.383.595-.523.646-.562.559-1.07.653M377.283 388.46l-.133-1.924-.132-2.064M377.853 395.24l-.414-3.783M373.035 405.017l.866-.463.477-.3.359-.456.515-.933.438-.661.515-.735.836-.896.445-.595.336-.521.516-.882.357-.513.377-.603.39-.61.473-.815.086-.21.008-.209-.102-.162-.183-.117-.176-.063-.895-.032h-.82" clip-path="url(#p634d0f7c1f)" style="fill:none;stroke:#000"/><path d="m373.855 399.471 1.28-.499 2.039-.86.75-.315.195-.243.078-.22-.344-2.093M391.327 376.054l1.343-2.263M389.14 374.963l.27.088.745.357 1.172.646" clip-path="url(#p634d0f7c1f)" style="fill:none;stroke:#000"/><path d="m391.256 380.359-.054-1.279-.04-1.403.165-1.623M404.769 379.66l-1.11-.543-1.468-.735-2.42-1.19-2.017-.984-2.061-1.014-1.781-.866-1.242-.537M402.94 375.929l-1.804-.808-2.639-1.307-3.027-1.51-1.039-.551-.738-.316-.175.011-.145.074-.153.231-.183.922-.367 1.116M404.769 379.66l2.366 1.227.617.39.688.602M402.94 375.929l1.829 3.732M402.94 375.929l-2.2-3.803M400.02 370.655l.195.382.188.375.337.714M418.039 385.625l-4.366-4.819-.562-.756-.438-.75-.298-.549" clip-path="url(#p634d0f7c1f)" style="fill:none;stroke:#000"/><path d="m414.141 394.234.578-1.557.125-.551.047-.639-.03-1.602-.298-2.6-.36-2.225-.14-.478-.289-.698-.562-1.087-.414-.712-.164-.507-.086-.86-.173-1.967M414.141 394.234l-3.085.764" clip-path="url(#p634d0f7c1f)" style="fill:none;stroke:#000"/><path d="m417.39 389.87-.312 1.117-.125.661-.328 1.529-.117.205-.273.25-.438.22-1.656.382M402.94 386.64l-1.89-1.03-2.905-1.616-5.124-2.761-1.765-.874M409.955 395.314l-3.535.956-1.578.367-.245.015-.208-.044-.625-.353-.859-.543-1.265-.676-1.995-1.176-4.936-2.828-2.469-1.44-.703-.463-.21-.36-.11-.39-.086-1.263M383.508 387.807l1.304-.162.844-.088 1.672-.096.851-.095.82-.11.695-.074.492-.044.438-.007.507-.015M411.056 394.998l-1.1.316M418.039 385.625l.226.206.117.11" clip-path="url(#p634d0f7c1f)" style="fill:none;stroke:#000"/><path d="m417.39 389.87.407-1.85.25-1 .335-1.08M373.035 405.017l-.454.17-1.382.462-.906.272-.852.095-.687-.14-.687-.257-1.96-1.616M360.327 397.496l-.391 1.843.023.323.172.287.375.169 1.31.295 1.643.402 1.905.618.39.256.266.331.172.456.094.683-.18.844M371.831 413.016l.264-.866.541-1.168.718-1.352.594-1.087.469-.662.686-1.033.156-.485-.094-.558-.406-.53-.17-.133-.727-.161-.827.036M377.44 391.457l-.016-.58M377.283 388.46l.125 1.91.016.507M388.388 396.916l-.547-2.343-.328-.39-.687-.514-.61-.382-.64-.264-.578-.5-.343-.867-.36-.41-.671-.5-1.234-.587-.579-.074h-.078l-.421.058-.532.236-.825.241-.72.198-.413.023-.602.08-.796-.044M371.831 413.016l-.625-.08M372.355 420.428l-.02-.691-.097-.676-.211-.859-.094-1.256.008-1.183.046-1.234-.039-.741-.117-.772M360.327 397.496l-.61-.713-1.234-1.873M377.283 388.46l-3.054.213-2.07.096-2.054.162" clip-path="url(#p634d0f7c1f)" style="fill:none;stroke:#000"/><path d="m383.508 387.807-.734.036-1.015.125-1.664.177-2.812.315M387.43 392.53l-1.297-1.557-2.625-3.166M409.955 395.314l-10.182-5.912M420.343 402.483l-.375-.735-.328-.646-.547-1.227-.468-1.469-.453-2.086-.282-1.925-.218-2.467-.281-2.057M420.343 402.483l.718 1.403.875 1.27M425.88 403.827l-1.64.595-1.234.44-1.07.294M425.88 403.827l.063-1.33M420.343 402.483l5.6.015M426.068 393.507l-.031 4.723-.094 4.268M428.251 391.926l-.855.942-.383.367-.367.22-.356.09-.222-.038M428.251 391.926l.184-3.377M428.251 391.926l1.054-.35M422.561 380.953l-.539-.286-.953-.463-1.312-.514-2.866-1.19M418.875 384.655l-.367-.77-.274-.684-.492-1.116-.367-.618-.188-.52-.132-.677-.164-1.77M418.875 384.655l-.836.97M422.561 380.953l-1.671 1.646-2.015 2.056M345.596 299.818l-2.007-2.255-2.476-1.778M339.662 296.918l.554-.426.897-.707M344.775 283.209l-.694 2.233-.25.536-.375.705-.711 1.19-.89 1.866-.633 1.3-.438 1.206-.18 1.212.04.712.031.69.187.47.25.456M345.596 299.818l.968 1.256 1.086 1.374 1.117 1.264.468.631.36.47.226.39.273.772M345.596 299.818l2.814-1.953M317.009 263.681l-.63-5.314M321.367 263.652l-1.484-.059-.859-.014h-.968l-1.047.102M392.928 305.717l1.234-1.44M398.578 310.223l-.948-.172-.618-.308-.859-.706-.92-1.167-.665-.889-.656-.603-.984-.66M405.143 309.478l-.577.118-1.234.176-2.203.338M398.578 310.223l.185.034 1.07.015 1.296-.162" clip-path="url(#p634d0f7c1f)" style="fill:none;stroke:#000"/><path d="m398.578 310.223-.589 3.266-.64 4.298.015.279.156.213.32.103.524.059.672-.037.515-.095.969-.206.14-.199.07-.3.118-.97.453-3.688.015-1.264-.187-1.572M386.274 348.325l.04.426-.799 3.68-.874 4.194-.328 1.337M404.905 335.906l-2.331-2.722-.562-.536-.711-.441-.594-.257-.78-.147-1.15-.25-1.038-.433-.687-.308-.61-.207-.827-.007-.516.125-.766.353-.616.617-.774 1.058M390.735 336.678l.295-.49 1.5-2.798.413-.64" clip-path="url(#p634d0f7c1f)" style="fill:none;stroke:#000"/><path d="m391.733 330.643.531.969.68 1.139M390.577 328.688l-.836-1.564-1.414-2.101-1.148-1.873" clip-path="url(#p634d0f7c1f)" style="fill:none;stroke:#000"/><path d="m382.235 322.702.116-.018 2.766.216 1.281.19.781.06M397.724 326.22l-1.626-.128-.985-.265-.89-.484-.89-.911-.686-.904-.36-.382-.421-.213-.418-.081-.473-.004-3.796.302M390.577 328.688l.664 1.139.492.816M406.123 335.646l-.042-.162-.742-1.83-1.203-2.667-.477-1.035-.304-.588-.984-1.425-.484-.448-.477-.14-.39-.036-.313.08-.453.243-1.226.815-.453.17-.648.14-1.094.08-.976.051-.742.17-1.14.425-2.242 1.154" clip-path="url(#p634d0f7c1f)" style="fill:none;stroke:#000"/><path d="m397.724 326.22-.961.588-1.21.536-1.641.367-3.335.977M408.783 315.664l-.249 1.458-.298 1.201-.148.712-.57 2.49-.726 3.417-.118.287-.195.132-.226.058-.813-.08-1.882-.5-1.234-.264-.71.036-.727.199-.789.301-1.719.815-.655.294M382.235 322.702l-.316.201M382.235 322.702l3.075 5.13M381.919 322.903l3.05 5.103M382.962 332.163l-2.297-3.864-.124-.382-.032-.543.11-.427 1.169-3.83.131-.214M383.483 345.625l.134-.122 1.258-1.393 3.14-3.999M382.962 332.163l.828 1.484 1.484 2.336 2.093 3.217.648.911M382.962 332.163l-1.766-.794-1.734-.866-5.373-2.88M391.573 338.91l.363-.202M393.365 342.153l-1.327.882-.516.183-.297.045-.367-.074-.226-.162-1.258-2.02-.067-.26v-.247l.079-.205.16-.195.371-.213 1.656-.977" clip-path="url(#p634d0f7c1f)" style="fill:none;stroke:#000"/><path d="m391.573 338.91-1.656.977-.371.213-.16.195-.079.205v.247l.067.26 1.258 2.02.226.162.367.074.297-.045.516-.183 1.327-.882M393.365 342.153l.606 1.007.132.198.43.341M416.601 369.017l-.64-.543-.515-.662-.508-.786-1.39-1.63-1.188-1.22-.984-1.146-.515-.881-.469-1.205-.578-1.234-.531-1.322-.328-.53-.562-.631-.969-.764-1.234-.926-1.203-1.086-1.39-.941-2.39-1.337-1.39-1.087-1.344-1.22-.656-.896-.656-.999-.656-1.102-.718-1.175-1.254-1.995" clip-path="url(#p634d0f7c1f)" style="fill:none;stroke:#000"/><path d="m394.533 343.7-.055-.474-.12-.257-.454-.86-.937-1.63-1.031-1.77M422.897 377.178l-.96-.492-.766-.382-1.04-.485-.608-.287-.438-.396-.28-.58-.384-1.154-.359-1.844-.234-.631-.266-.574-.453-.638-.508-.698M422.007 372.52l-.508-.315-.445-.316-.68-.463-.57-.44-.695-.493-.922-.573-1.586-.903M405.143 309.478l2.633-.447M408.783 315.664l-2.795-.334-.649-.121-.172-.155-.07-.228.234-2.718.031-.94-.219-1.69M414.563 314.635l-.67.151-.876.015-.734.088-.594-.088-.796.03-1.421.293v.015l-.689.525" clip-path="url(#p634d0f7c1f)" style="fill:none;stroke:#000"/><path d="m407.776 309.031.429 2.284.172.911.265 1.013.173.735.03.72-.062.97M464.441 331.957l-5.592.015-3.499-.095-.594.088-.708.17-.8.386-1.233.688-.845.494-.32.236-.273.42-.234.537-.093.47.086.602.58 1.487.09.558-.114.537-.32.473-.547.258-.89.129-3.157.323-3.625.084-4.718.339-1.077-.03-1.265-.207-1.393-.215-1.553-.215-.754-.172-.434-.343-.71-.655-.608-.676-.938-.646-1.062-.456-1.703-.734-.797-.676-.593-.661-.234-.632-.125-.794.119-.97.35-1.307.359-1.47.062-1.123-.274-1.138-.206-.773-.365-.602-1.342-1.373-.874-.992-.79-.918-.655-.676-.898-.925-1.266-1.668-.86-1.139-.725-.903-1.032-1.102-1.429-1.33M407.776 309.031l.212-.036.733.02.445.17.57.374 1.156.94.89.933.578.625 1.422 1.63.781.948M395.599 302.522l-1.437 1.755M471.9 205.481l-.187.323-.508.5-1.703 1.403-1.327.867-.43.441-1.46 2.175-.937 1.917-.547 1.389-.336 1.682-.102 2.785-.171.881-.781 2.072-.89 1.22-.43.381-1.313.684-1.367.53-3.428 1.028-.579.452-.82 1.127-1.046 1.105.008.188.125.272.812.91.21.523.102.675-.312 1.117-1.047 1.315-.265.58-.117.97.328 1.47.289.631.312.382 1.125 1.014.18.309.03.345-.452 1.029-.336.646-.078.566.109.683.524.727.234.89-.063.403-.171.375-.415.47-.843.78-.719.367-1.46.124-.531.287-1.055.896-3.171 3.79-2.109 2.029-1.086 1.116-2.858 1.44-.75.375-.61.433-.585.64-1.289 1.858-.789 1.337-.554.367-.726.331-1.36.441-2.28.338-2.445.187-5.319 1.528-1.46.525-2.477.731-1.237.794-.54.489-1.738 2.189-1.28 1.785-.656.72-1.313 1.014-.495.246-1.195.238-2.3.382-.801.5-1.863 2.45-.351.845-.204 1.065-.375 3.052-1.14 6.01-1.453 4.525-1.483 4.57-1.586 2.615-1.36 1.388-2.506 1.88-.719.912M390.483 296.285l.742 2.24.297.58.359.522.633.514 3.085 2.38M389.437 303.851l.944-1.13.297-.354.227-.135.3-.023.313.045.285.128 2.359 1.895M389.437 303.851l-2.148 2.55-.22.088-.265-.008-.21-.114-.137-.134-.95-1.845-.968-1.624-.66-1.488-.558-1.333-.062-.338.062-.338.21-.271.891-.508M385.711 295.815l1.882 4.312 1.844 3.724M350.009 408.33l4.287 7.529M347.978 410.18l.969-.873 1.062-.977M354.083 405.196l-.403.35-1.727 1.337-1.944 1.447M354.296 415.859l1.985-2.865M354.296 415.859l-.53.91M347.978 410.18l4.522 8.264M346.181 412.539l1.032-1.242.765-1.116M352.5 418.444l1.265-1.675M350.735 420.912l.921-1.233.844-1.235M346.181 412.539l4.554 8.373M344.182 414.94l1.367-1.6.632-.801M350.735 420.912l-.656.925M344.182 414.94l3.413 5.825M347.595 420.765l2.484 1.072M352 423.784l-1.265-1.388-.656-.559M358.186 419.649l2.883-3.702M358.186 419.649l-2.093-1.469M352 423.784l1.047 1.095.539.499.258.22.203.03.25-.191 3.89-5.788M361.069 415.947l-2.398-1.587M366.551 415.47l-.82.396-1.304.654-.648.25-.578.14-.336-.023-.516-.213-1.28-.727M356.28 412.994l2.39 1.366M354.57 410.85l.438.858.288.42.985.866M358.67 414.36l-2.577 3.82M359.48 410.06l-.286-.21-.52-.473-2.208-2.042M354.57 410.85l-1.468-2.792-.079-.301.016-.177.281-.403.602-.331.687-.12.562-.012.492.162.803.46" clip-path="url(#p634d0f7c1f)" style="fill:none;stroke:#000"/><path d="m354.57 410.85.375-.743 1.521-2.772M354.083 405.196l.815.423.563.39.554.514.281.382.17.43M359.48 410.06l.905.378.613.32.406.37.266.375.445.668.625.566 2.109 1.609 1.702 1.124M371.206 412.936l-.39.389-1.36 1.035-1.358.75-1.547.36M356.093 418.18l-2.328-1.41M352 423.784l1.61-2.196 2.483-3.408M296.076 305.688l1.603-1.855 1.147-1.186 1.281-1.47 1.078-1.337 4.249-4.93.742-.778.437-.316.672-.168h.547l1.944-.081 1.32.014 1.258.22 1.187.243 1.274.426 2.647 1.08" clip-path="url(#p634d0f7c1f)" style="fill:none;stroke:#000"/><path d="m327.303 307.715-1.429.118-1.281.18-.257-.011-.211-.092-.457-.551-.035-.15.011-.162.043-.177.508-.451.304-.33.024-.305-.035-.339-.113-.26-1.25-1.157-1.664-1.455-.921-1.454-.204-1.117.016-.985-.328-1.086-1.11-1.338-1.452-1.043M306.918 272.777l.734 3.966.484 1.514.75 1.763.688 1.323 1.28 1.726 1.188 1.234.905 1.285.453.97.32 1.05.243 1.462.016.831-.078.558.003.493.137.448 1.031 1.315 2.39 2.835M303.794 263.91l1.39 2.96 1 2.865.578 1.778.156 1.264" clip-path="url(#p634d0f7c1f)" style="fill:none;stroke:#000"/><path d="m292.921 267.634 1.055-.309.664-.103.992.081 3.89.875 1.444.352 1.773.588 1.672.83.984.683.578.603.25.448.171.36.524.735M294.511 254.583l.41-.03.656.115.64.161.749.267.47.27.36.396.366.426.258.448.484.809.29.638.186.838.243.786.351.537.399.278.609.221.761.14.652.176.406.198.286.29.199.327.133.53.14.918.235.587M305.56 259.09l-.353.603-.359.638-.336.846-.344.999-.21.749-.164.984M283.744 269.89l1.46-.764 1.547-.875.992-.257.93-.132 2.188.051 1.249-.074.811-.205" clip-path="url(#p634d0f7c1f)" style="fill:none;stroke:#000"/><path d="m282.346 296.762.953-2.85.968-2.44.453-2.041.29-1.264.28-.823.383-.705.726-.896 1.383-1.124 1.203-1.11.976-.889.438-.535.234-.492.312-.699.375-.632.46-.683.556-.492.75-.536.32-.308.21-.39.07-.368-.03-3.033-.016-3.644-.14-1.264-.298-1.014-.281-.896M352.242 321.643l-1.604.783M382.752 362.124l-1.792.375M382.752 362.124l2.193 7.62M399.773 389.402l1.493-2.225M365.472 347.094l1.056-.768.082-.15.07-.155.031-.121.102-.378.16-.32.18-.213 1.234-.742.414-.287.578-.25.437-.168M219.783 288.777l.984-1.91 1.094-2.623.523-1.528.32-.382.43-.367.414-.412.28-.536.344-1.308.735-1.645 1.015-1.528 2.203-2.836 2.343-2.997 1.874-2.211.703-.985.696-.654.492-.33.609-.25.648-.11.984.029 2.336.235 1.859.206 1.507.198 1.367.045 2.086-.067 1.74-.205 1.86-.309 1.046.008.813.102.578-.015 2.25-.374 2.178-.382 1.969-.492 1.983-.772.86-.286.773-.338 1.32-.772.507-.286.524-.103.437-.014.898.05 1.188-.058 2.222-.418 4.88-1.198 3.29-.798 4.838-1.058 1.337-.4.991-.492.648-.213.865-.053.908-.006 1.008-.132 1.398-.456 1.171-.352.977-.47.695-.434.562-.36.883-.374M294.511 254.583l-.329.136-.956.632M291.555 258.605l.226-.36.187-.404.25-.595.211-.631.226-.463.212-.397.359-.404M489.724 315.238l-.672.654-.68.61-.726.44-.984.5-.515.286-.227.419-.406.947-.43 1.404-.296.668-.525.675-.588.417-.832.656-.492.786-.434.963-.319.559-.72.639-.892.698-.87.3-.934.199-6.047.617-.984.117-.547.147" clip-path="url(#p634d0f7c1f)" style="fill:none;stroke:#000"/><path d="m464.441 331.957 5.046-.14.508-.095.468-.242.258-.316.14-.419-.01-.738-.138-.753-.046-.507-.063-.808" clip-path="url(#p634d0f7c1f)" style="fill:none;stroke:#000"/><path d="m466.469 328.978.41-.525.18-.168.327-.081 3.218-.265M466.469 328.978l-.044.188-.344 1.234-.296.492-.36.404-.984.661M481.995 306.096l.942.503.765.309 1.214.21 1.746.289M253.822 127.589l.328.18.492.507.609 1.168.367.978.196.845.235 1.35.288 2.28.336 1.373.375.853.616.845.72.565 1.202.61 1.35.624 3.234 1.632 2.664 1.47 1.988.763.878.254.676.121.89.015 1.149-.048.761.015.558.062.582.15 1.32.354 1.211.451 2.043.614 1.62.624.453.29.442.463.469.57.488.97.593.991.402.54.66.948.641 1.022.136.408.055.547-.121.613-.351.941-.297.547-.41.475-.598.51-.898.536-1.586.996-.863.73-.55.644-.578.958-1.234 2.605-.121.379-.07.382.003.422.125.588.223 1.333.125 1.168.12.787.255.797.492.995.351.449.711.845.523.514.543.573.445.753.493.911.605.665.53.305.622.198.769.008.59-.073 1.027-.298.465-.118.515-.033.524.026.468.084 1.636.5 3.179.808.551.21.758.338.573.315.65.489 1.213 1.286 1.13 1.054.694.683.574.775.473.621.425.548.68.55.512.338.476.214.57.084.59-.051.586-.258.375-.323.453-.531.338-.552.193-.739M334.762 214.599l-.476-1.007-.64-1.241-.594-.86-.757-.91-1.22-1.221-1.592-1.432-1.399-.912-1.5-.77-1.522-.728-1.898-.735-4.179-1.675-4.28-2.116-.992-.602-1.11-.853-.741-.683-1.539-1.756-.82-1.307-.632-1-.461-.992-.82-2.865-1.602-5.282-1.148-3.475-.515-1.61" clip-path="url(#p634d0f7c1f)" style="fill:none;stroke:#000"/><path d="m290.445 164.08.727 1.535.672.978 3.053 4.188.938.977.773.705.601.411 2.273 1.522 1.219.83 1.03.83.852.867.57.926.617 1.41.555 1.308M225.391 150.825l.547-.999.453-.521.586-.36 1.226-.53 1.546-.521.813-.272.664-.206.406-.301.804-.882 1.047-1.248 1.226-1.977 2-2.197 1.187-1.418 1.077-1.065 1.196-.838 1.296-.852.782-.588 1.124-1.058 1.453-1.279 1.671-1.418 2.168-1.186.586-.287.5-.26.437-.265.433-.345.84-1.143.738-.886.421-.268.423-.106.378-.056.403.096M125.596 302.991l-2.254-.756-.956-.43-.465-.253-.492-.4-1.23-1.414-1.898-1.992-2.055-1.895-1.96-1.917-2.085-1.94-1.656-1.96-1.055-1.727-1.345-2.546-.361-.387-.364-.337-.595-.275-.584-.21-1.062-.176-.734-.16-.645-.383-.344-.393-.336-.592-.175-.72.172-1.002.105-.757-.024-.558-.222-.482-.277-.514-.41-.37-.89-.622M112.79 216.87l-.278.058-.308.124-.494.346-.572.496-.687 1.01-.508 1.065-.523 1.212-.399.67-.183.561-.098.647.016.818-.031.68-.153.694-.202.566-.25.481-.25.416-.344.304-.555.412-.675.371-.227.123-.25.167-.449.555-.941 1.462-.711 1.013-.289.772-.121.874-.055.915-.168 1.899-.175 1.168-.242.632-.336.845-.028.918.086.838.07.933-.007.771-.008.745-.121.537-.226.44-.192.49.026.31.045.237.193.3.833.566 1.094.695.77.808.425.808.152.676.078.624.047 1.176-.21 2.542-.302 1.877-.277.68-.13.21-.23.258-.276.303-.348.308-.345.39-.182.484-.031.654-.082 1.25-.25 1.454-.437 1.565-.364 1.27-.304.757-.438 1.01-.43 1.238-.156 1.272-.046.84.148.816.172.592.253.543.153.588.082.697.071.571.093.396.246.61.082.514-.047.536-.144.757-.442 2.743M137.48 307.605l.397.566.465.396.531.258.524.154 2.882.397 1.054.161.781.235.625.316" clip-path="url(#p634d0f7c1f)" style="fill:none;stroke:#000"/><path d="m144.716 308.222-.156.338-.078.294.007.272.07.338.18.624M637.27 268.001l-.473.36-.968.64-.54.565-.39.522-.663.97-1.516 3.107-.414.926-.398.624-.5.558-.539.39-4.148 2.623-.71.418-.414.342-.457.598-1.222 1.778M617.825 291.267l1.867-1.792.515-.632.313-.566.273-.764.516-1.38.781-1.25 1.828-2.46" clip-path="url(#p634d0f7c1f)" style="fill:none;stroke:#000"/><path d="m617.825 291.267.75 1.572.106.21.113.124.152.052.308.026 2.309.102 4.428-.014 1.921.014.302-.036.234-.077.21-.121.387-.302.738-1.028.063-.206-.02-.22-.152-.22-.395-.364-.386-.39-.285-.29-.293-.271-.399-.24-.628-.333-.336-.247-.25-.29-.148-.301-.207-.514-.133-.548-.168-.602-.285-.65-.164-.386-.067-.282-.007-.398.078-.436.078-.346.027-.268-.027-.246-.105-.22-.188-.22-.266-.184-1.202-.695M333.255 224.37l1.125-2.145.515-1.455.352-1.33.11-1.138-.071-1.183-.133-1.286-.39-1.234" clip-path="url(#p634d0f7c1f)" style="fill:none;stroke:#000"/><path d="m343.545 213.76-1.147 1.89-.532.748-.171.096-.239.018-.258-.073-1.093-.724-1.07-1.028-1.024-1.117-.866-.661-.438-.096-.445.066-.344.214-1.156 1.506M442.79 605.036l-.562-.306-3.109-1.086-1.42-.956-1.173-1.203M461.106 599.318l-.796-.044-.57-.066-.215-.122-.121-.099-.414-.484-.992-1.293-.391-.39-.515-.38-.477-.155-1.156-.11-.515.014-.484.074-.492.183-.922.39-.773.286-.742.125-1.383.096-1.289-.037-.922-.264-.929-.698-.578-.676-.203-.492-.117-.492-.102-.272-.132-.073-.211-.06-.61.214-.25.132-.171.147-.148.184-.485.55-.437.448-.812.728-.836.763-.39.419-.891 1.204-.562.558-.336.25-.47.191-.882.404-1.859 1.014M383.949 372.2l-1.683.827M380.96 362.499l1.306 10.528M251.76 271.425l4.475-.03 3.21.199 1.773.169 1.25.36.726.433.727.455.726.265.664.133 1.023.132.75.051.539-.099.508-.184.453-.217.6-.22 3.101-.757 8.499-1.38 1.523-.36 1.437-.486M262.217 289.342l.172-1.67.744-1.346 1.546-.647 11.281-1.508-1.947-4.524-.171-1.562.4-1.562 2.52-2.478 3.665-1.67 3.317-2.486M344.775 283.209l1.192-.467 1.331-.474 1.004-.224 1.902-.246 2.828-.364 2.179-.136 1.698.034.594.076.496.155.39.239 1.5 1.135 1.039.91 1.64 2.028.844 1.22.453.859.18.595.085 1.117.063 1.837.066.348.11.17.171.047.2-.04.16-.078.226-.213.438-.385.753-.584 2.952-1.95 2.098-1.426 1.542-1.113.844-.742.86-.933 2.327-2.828.656-.676.679-.456 1.078-.44 2.484-.78 1.617-.52.913-.36 1.226-.508M347.704 269.78l-1.241.969-.383.55-.246.615-.098.642-.078 1.77-.054 2.234-.172 2.366-.195 2.24-.196.962-.266 1.08M547.917 294.757l-.336.147-1.941 1.153-.773.382M492.95 292.732l3.616-2.06 1.836-.793 2.25-1.403.741-.316.836-.147.617-.059.859.162.531.25.563.242.866.125.985.007 1.382.066.758.103 1.172.346 1.718.36.492.183.593.419.64.874.438.756.29.882.538 1.543.39.918.461.794.524.991.351.852.883 2.27.797 1.602.296.779.383 1.285.336.919.664 1.197 1.172 1.609.976.903 2.28 1.778.937.559.813.242.804.059.727-.148.664-.448.703-.712.656-.742.382-.874.274-.977.39-1.396.422-.852 1.11-1.131 2.07-1.536 2.702-1.396 1.96-1.234 1.586-1.182 1.741-1.125.781-.323.93-.235 1.031-.279M544.61 302.367l.32-.338.179-.308.086-.287.03-.382.009-.844-.281-2.586-.086-1.183M556.05 296.667l-2.459-.118-1.476.03-.898-.213-.547-.243-.492-.338-1.109-.779-.645-.201-.507-.048M548.147 290.298l-.273 1.461-.094.441-.11.36-.03.294.007.426.27 1.477M614.9 293.192l-1.554 1.094-1.73 1.44-.578.449-.586.256-.441.122-.66-.103-.57-.312-4.538-3.159-.969-.786-2.444-1.822-2.922-1.418-3.615-2.414-.946-.348-.851-.073-.96.11-.868.198M578.12 285.556l.207-.033.383.058.5.214 2.913 1.307.563.176.68.08.795-.036 2.899-.271 2.225-.28 1.383-.345" clip-path="url(#p634d0f7c1f)" style="fill:none;stroke:#000"/><path d="m582.748 235.074.617.485.969.485.57.308.328.301.289.434.11.463.015.632.214.418.313.427.543.425.422.221.511.129 1.016.018.37.044.204.088.175.158.16.28.266.72.43.807.593 1.055.492.573.531.462.696.353 1.116.287 1.484.275.426.11.37.136.29.184.313.323.293.448.312.625.347.69.29.581.101.455.32.963.227.507.234.323.414.786.258.69.203 1.007.07.977-.047.485-.124.757-.407 1.333-.238.636-.273.455-.297.452-1.863 2.02-.5.466-.559.405-.898.576-.367.28-.199.216-.203.36-.34 1.084-.34.856-.983 2.189-.368.91-.36 1.184-.194.602-.332.716-.598 1.363-.984 1.91-.336.728-.101.506-.016.596.29 4.584.132 1.08.156.845.149.624.687 2.182.531 2.299M614.9 293.192l2.168-1.403.757-.522M574.329 292.669l.085-.256.484-2.967.235-.75.111-.191.31-.529.867-1.307.446-.508.507-.352.446-.206.3-.047M581.296 270.051l-.676.8-.637.618-.656.584-1.344 1.197-.566.654-.308.496-.13.404-.077.356-.016.32.05.558.231 1.356.035.455.18.49.152.248.247.195.238.136.484.147.156.132.079.125.027.14-.04.507.063.367.149.33.39.772.172.378.059.232.023.239-.055.271-.18.463-.277.643-.632 1.282-.317.61M614.9 293.192l.883 1.099.281.23.277.114.47.107.573.08.54.045.364-.004.203.006.145.024.109.059.1.111.044.138.147.58.195.566.09.305.063.298.027.341.555 1.947.64 2.483M584.107 202.972l1.27-.62.363-.258.59-.577.565-.547.293-.165.277-.03.247.026.203.081.289.228.32.433.215.46" clip-path="url(#p634d0f7c1f)" style="fill:none;stroke:#000"/><path d="m586.868 204.64.973-1.062.351-.308.242-.28.11-.198.066-.216.129-.573M584.107 202.972l-.265.672M584.107 202.972l-.769.283M582.748 235.074l-.203-.397-.113-.385-.059-.397.016-.33.164-.71-.04-.25-.065-.172-.286-.422-1.007-1.58-.445-.845-.352-.889-1.14-1.88-.562-.904-.157-.588.016-.448.164-.492.726-1.11 1.36-1.403.886-.771 1.132-.78.477-.425.363-.496.242-.478.176-.566.152-.892.172-1.433.219-1.432.289-1.683.132-1.242.016-2.762-.133-.676-.328-.808-.414-.742-.148-.522-.07-.991-.086-1.529M583.338 203.255l.228.154.276.235" clip-path="url(#p634d0f7c1f)" style="fill:none;stroke:#000"/><path d="m569.423 237.256 3.757-3.16 2.39-2.18.344-.214.258-.096.25-.036.327.095.813.427 2.007 1.086 1.039.713.844.507.827.434.469.242M631.713 262.404l.273 1.498.172 1.05.125.544.164.441.335.33.516.177 1.125.39L637.27 268M580.181 203.972l.747-1.665 1.047-2.13M577.562 207.406l-.422-.588-.195-.367-.18-.559-.266-1.212-.003-.323.054-.176.149-.144.21-.084.66-.073.438.043.61.081 1.022.022.542-.054" clip-path="url(#p634d0f7c1f)" style="fill:none;stroke:#000"/><path d="m583.338 203.255-.57.162-1.117.283-1.2.245-.27.027M474.001 204.622l.243-1.903.257-.544.329-.375.468-.242.61-.066 1.358.242 1.562.323.946.126 1.163-.037.976-.155.594-.257.399-.404.476-.624.516-.809 1.616-3.056M529.245 205.408l-.284-.456-.258-.283-.25-.11-.351-.07-.614.015-.492.073-.36.151-.515.305-.414.316-.304.363-.512.904-.16.283-.234.235-.278.195-.449.18-.343.08-.578.008-1.176-.11-.64-.004-1.305.243-.698.297-.883.305-.406.026-.602-.122-.511-.209-.403-.11-.406-.026-.695.066-1.125.206-.644.29-1.16.69-1.078.53-2.437 1.069-.769.47-.531.213-.48.129-.457.01-.88.07-1.444-.014-.671-.133-1.063-.536-.46-.147-.364-.055-.406.019-.488.08-.797.118h-.922l-3.46-.397-.968-.154-1.03-.096-2.68-.301-.828-.147-.43-.205-.367-.25-.406-.404-.476-.397-.875-.47-1.062-.47-.61-.273-.468-.124-4.257-.052-.687.008-.352-.06-.273-.146-.289-.213-.711-.522-.851-.485-1.524-.631-1.108-.434-.547-.176-.336-.03-.352.089M471.9 205.481l1.477-.661.624-.198M467.67 171.17l-.35.53-.34.576-.352.452-.304.272-.488.297-.59.331-.488.356-.317.364-.312.411-.992 1.804-.457.852-.207.566-.18.694-.097.713-.082.334-.125.265-.316.323-.918.705-.266.261-.137.247-.05.242M471.9 205.481l.047-.5-.101-.602-1.101-2.917-.329-.58-.312-.287-.422-.323-1.07-.566-.867-.396-2.624-.838-1.937-.624-.961-.478-.719-.55-.468-.523-.375-.793-.383-1.124-.835-1.389-.227-.463-.074-.327-.02-.326.063-.618.32-1.131.406-1.374.258-1.132.148-1.057.262-1.477.098-1.007-.004-.356-.028-.422-.23-.746-.11-.485-.003-.305" clip-path="url(#p634d0f7c1f)" style="fill:none;stroke:#000"/><path d="m384.797 129.951 1.382.647.54.426.429.625.36.632.562.675.508.372.843.378 1.82.544 1.187.764.382.448.266.485.086.522.024.904.023.433.102.309.163.3.493.625.804.875 1.007 1.557 1.422 2.418.563 1.19.375 1.043.296.757.242.573.43.58.633.596.734.528 1.164.809.827.617.93.97.648.779.563.977.32.632.328.411.515.367.727.331 1.164.199 1.046.095 1.07.22 1.765.471 1.594.485 1.937.294 1.96.227.976.177.664.242.844.485 1.008.867.687.588.758.47.804.368 1.945.484 2.75.537 2.428.544.937.382 1.04.58 1.272.683.297.236.172.286.07.375-.14 1.682.101.889.383 1.014.297.61.281.44.484.368.727.463.906.654.687.624.766.956.905 1.109.688.757.835.654 1.414.918 1.398 1.433 1 1.293.629.966.254.32.081.246v.253l-.062.548-.11.712.091.188.148.087.203.037.258-.021.223-.074.378-.345.586-.808.68-1.118.375-.337.484-.22.437-.052.625.022.96.19.977.339.469.235.359.338.547.661.297.265.35.11.383.037.782-.125 1.187-.177h.5l.609.155.867.352 2.32.772M479.827 161.882l-.163.207-.75.9-.777.823-.257.264-.235.191-.32.21-.45.183-.714.133-.734.07-.898-.008-.504-.025-.672.003-.496.121-.484.203-.465.264-.457.379-.554.62-.777 1.12-.551 1.187-.195.441-.262.364-.3.419-.657.72-.484.5M466.042 170.325l.586.338 1.043.507M602.985 135.396l.297 1.028M493.747 153.015l1.179-.33.398-.258 1.156-.962.375-.154.516-.052 2.022.206.5.25.563.411 1.265 1.256 2.41 1.834.421.555.742 1.326 1.07.922.91.97 1.54 1.85.858.574 1.047.47 4.417 2.704.863.103.62-.187.587-.522.663-.911.68-.323 2.894-.49.93-.41.187-.331.086-.992.125-2.263.507-1.234.54-.47 1.78-1.242 4.616-2.734 2.109-1.616 1.23-.587.61.05.449.328.183.452-.14.668-.887 1.624-.102.617.078 1.705.352 1.05.399.75.905 1.308.727 1.814.367.353.383.206.5.117.367-.044 1.046-.529.562-.418.36-.508.328-.749.234-1.793.102-.477.336-.448.523-.419.555-.272 2.187-.933.788-.588.266-.419.094-.676.297-.477.46-.39.945-.506 2.406-1.14 2.554-.727.523-.015.563.133 1.437.778.648.191.586.03 2.765-.199.797-.198 1.64-.815.859-.662 2.108-1.94 1.61-.77 1.406-.339 3.796-.235 5.49.117 9.53-.095 6.057-.316.76.155 1.524.61 3.757 2.66 3.25 1.553.448-.022.344-.29.82-1.697.652-1.62.105-.684.247-2.98.398-2.681-.004-.694-.293-2.414-.328-1.044" clip-path="url(#p634d0f7c1f)" style="fill:none;stroke:#000"/><path d="m598.666 135.205 1.82.478 2.796.741M479.827 161.882l.735-.94.524-.594.632-.463 1.016-.632.695-.5.68-.58.663-.683.602-.786.476-.537.883-.8.757-.537.961-.375 2.265-.602 1.594-.485 1.437-.353M492.177 292.141l.277-.099.242-.11.191-.132.14-.147.11-.217-.004-.246-.05-.852.054-.356.188-.485.476-1.492M492.95 292.732l-.773-.59M481.995 306.096l.454-.144.347-.161.375-.283.57-.452.899-.955 2.304-2.248.18-.397.117-.44.046-1.058-.101-3.291.101-.683.344-.684.422-.404.859-.41 1.257-.405 2.593-1.242.188-.107M489.064 291.374l.524.19.414.096.293.007.515-.007.273-.007.238.037.31.095.546.356M580.788 303.014l-.926.757-.976.778-.418.24-.453.245-1.687.709M580.788 303.014l-.243.404-.14.463-.086.573-.094.889.024.61.078.323.188.425.39.647 1.507 1.8.476.591.559.618.313.385.137.25.108.466.188.628.238.478.242.507.149.33.097.408.09.863.242 1.216.184.922.25.72.468 1.505.64 2.476.212 1.014.14 1.263.086 1.235-.007 1.117.015 1.704.157 1.866.28 1.366M574.329 292.669l.741.09.266.044.199.077.238.217.22.34.405.846.758 1.19.187.57v.33l.04.62.05.199.09.132.167.107.29.048.234-.034.227-.102.21-.206.149-.283.246-.61.105-.146.157-.067.202-.033.2.044.308.191.973.746.285.268.215.232.25.374.226.452.105.283.044.349.03.459-.163.988-.114.529-.163.478-.395.77-.523.853M556.05 296.667l.158.007 2.757.426 1.304.14 1.117.059 1.015-.096 1.204-.272 1.195-.118 1.343.037 1.5-.066.882-.169.688-.213.68-.382 1.498-1.116 2.172-1.227.406-.375.273-.374.087-.26" clip-path="url(#p634d0f7c1f)" style="fill:none;stroke:#000"/><path d="m477.805 160.579.16.415.11.129.113.073.172.026.414-.015.332-.01.113.012.094.031.115.081.127.147.272.414M557.473 280.284l.875-.234.539.007.437.227.274.324.11.353.007.565-.04.661-.093.294-.25.441-.422.558-.781.669-.726.521-.484.353-.368.412-.156.462-.078.735.07 1.373-.132 1.573-.453 2.806.023.404.18.492.18.426.07.367.023.485-.148.794-.08 1.315M466.469 328.978l.269-1.149.296-1.16.282-.706.25-1.234.14-1.073.063-1.44.187-1.13.344-1.118.5-1.043 1.796-1.866.797-.837.875-1.131.641-1.055.38-.847.155-.569.113-.534.522-2.372.258-1.007.523-.933.712-.889 1.07-.661.804-.184 1.078.06 1.18.073.788.066.597-.015.489-.062.417-.066M545.72 445.4l-3.908-.098-2.327-.533-2.688-1.246-2.6-1.031-13.421-1.42-2.07.236-2.052.894-4.571 1.093-2.507.363-2.629-.045-5.377.884-2.857.282-1.724-.372-1.736-1.791-1.41-1.474-.368-.33-.693-.384-.82-.108-.777.05-3.255 1.288-1.284.152-1.797-.152-1.073-.255-1.518-.647-.76-.533-3.34-3.673-1.22-.763-1.023-.126-1.187.133-3.062.896-4.64 1.3-2.179.558-1.27.304-2.07.16" clip-path="url(#p634d0f7c1f)" style="fill:none;stroke:#000"/><path d="m464.113 449.955-.14-1.22.25-4.392.172-2.306-.141-.896-.281-.514-.562-.397-1.62-.696-.283-.523M327.303 307.715l-.57.42-.343.462-.344.698-.102.712.008.874.211.963.328 2.674-.172 1.102M320.068 321.17l.737-.482 4.296-3.32.625-.72.593-1.028" clip-path="url(#p634d0f7c1f)" style="fill:none;stroke:#000"/><path d="m330.995 307.139-1.044.29-.492.213-.57.411-.477.478-.476.75-.234.624-.047.602.047.485.578 2.755.102.844.03.618-.234 2.358-.047.367-.156.375-.296.256-.352.126-.312-.022-.235-.133-.117-.235-.07-.588-.274-2.093M349.587 365.976l.25-.155.266-.234.195-.42.14-.653.032-.198.078-.155.18-.235.171-.25.086-.227.062-.661M389.14 374.963l.75-1.406M359.061 408.315l.711.39 3.335 1.101 1.234.426 1.89.75 1.422.616.952.427 1.055.403 1.094.412.452.096M169.846 425.224l.047 3.893-.27 6.383-.093 6.845-.094 2.41-.495 1.907M167.984 449.004l.796-1.723.16-.62" clip-path="url(#p634d0f7c1f)" style="fill:none;stroke:#000"/><path d="m116.84 449.514 1.992-.117 1.062.08.539.125.593.404.313.28.734.969.36.374.132.074.219-.022.36-.08.398-.111.257-.052.25.074 1.992.565 1.218.17.844.154.695.264.343.059.555-.096.508-.22.57-.11.36-.03 1.382.338.468.199.743.514.421.301.664.294 1.195.272 1.234.073 1.297.257.421.132.383.338.734.558.562.265.36.095.5.015.718-.118.742-.043 2.328.073 1.413-.022 1.992.235.805.044.726-.03 1.867-.602 1.101-.5.453-.286.227-.382.437-.514.516-.396.882-.69.86-1 .397-.367.415-.14.445-.058.539.022.898.169 4.452 1.24.414.008.235-.03.21-.08.242-.19 2.125-3.409.812-1.543.39-.323.802-.325M171.604 468.49l-.137.121-1.172 1.41-1.28 1.748-.313.544-.36.881-.515 1.19-.453.837-.5.75-.562 1.366-.063.294.032.322.172.301.984 1.08.062.258-.039.25-.172.205-3.085 1.858-.703.309M183.276 455.098l.36.233M174.755 464.71l.14-.286.383-.815.438-.544.976-1.086.601-.978.454-.749.28-.41 1.375-1.338 1.828-1.557 2.046-1.85" clip-path="url(#p634d0f7c1f)" style="fill:none;stroke:#000"/><path d="m167.984 449.004 1.124.348.547.045.766.088 1.015.264 2.624.955 1.39.712 1.375.83.445.382.36.411.39.331.484.294.774.17 1.093.065.812.184 1.015.316 1.078.699M183.636 455.331l.914.647 1.366 1.234.93.874.336.448.36.632.257.47.437.969.578 1.05.43.625.304.389.477.698" clip-path="url(#p634d0f7c1f)" style="fill:none;stroke:#000"/><path d="m215.46 487.707-.66-1.13-.656-2.057-.422-1.719-.234-1.484-.204-1.498-.452-1.307-.828-1.601-.453-1.088-.234-.705-.336-1.99-.25-.94-.297-.566-.352-.411-.593-.448-.711-.33-.39-.412-.149-.374-.039-.485.149-1.395-.009-.31-.171-.308-.344-.198-1.046-.198-.633-.191-.515-.294-.454-.492-.476-.925-.305-.61-.39-.272-.375-.096-.461-.014-.828.095h-.453l-.398-.088-.711-.529-1.687-1.366-1.234-1.153-.54-.727-.187-.558-.062-.5-.133-.375-.257-.22-.25-.088-.602-.022-.64-.036-.516-.206-.336-.272-.5-.918-.421-.779-.368-.374-.484-.28-.538-.117-.423.022-.648.169-1.89.433-.601.074-1.649-.044-1.304-.125-.859-.19-1.015-.354M163.763 455.52l1.924-2.98 2.062-3.026.235-.51M273.43 340.538l-1.59 1.858-.343.294-.383.176-.375.25-.234.271-.196.353-.078.28-.007.704-.055.31-.187.286-.32.264-.4.301-.171.162-.21.396M273.43 340.538l-.097.256-.258.794-.243 1.33.094.778.156 1.249.032.375-.055.389-.203.353-.39.477-.18.33-.024.302.149.315.874 1.088 2.047 2.424 2.718 2.88.515.72.266.44.062.558.282 1.352.11.852-.04.536-.11.53-.366.616-.336.397-.633.61-.727.675-.39.537-.156.315-.11.493.11.198.227.198.367.081.874.088.57.051.376.14.835.375.656.22.86.118.741.08.098.074.035.176-.027.261-.348.786-.336.426-.414.327-.382.19-.406.045-1.008-.051h-.164l-.078.058-.067.096.005.128.081.151 1.535 1.69 1.242 1.19.203.198.102.198.047.309-.047.962M275.147 338.716l-1.463 1.476-.254.346M275.147 338.716l1.657.094M215.46 487.707l.48.823.703 1.63.125.706.14 2.203.032.705.11.617.358 1.145.313 1.117.234 1.205.266.925.375.536.398.514.484.42.274.33.101.308-.046.536-.157 1.028-.023 1.014.148 2.593.22 2.247.053.382.118.316.367.3.969.64 3.24 1.483 1.102.8 2.804 2.564 1.507 1.939.453.64.75 1.027.266.647.086.55-.117.757-.234.83-.102.521.008.515.14.506.266.375.43.44.421.235.617.236.687.11.375.066.258.125.133.198-.016.433-.234.919-.063.66.032.55.133.508.976 2.21.952 1.8.664 1.234.368.962.328 1.248.328 1.073.297.807.078.353-.047.53-.187.718-.126.647.048.646.343.977.68 1.373M271.302 548.233l-.781-.037-.727-.058-1.077-.067-3.883-.433-1.913-.264-.304-.066-.266.014-.21.147-.33.323-.171.25-.305.382-.312.228-.524.161-.702.067-1.625-.133-.437.03-.29.066-.788.205-.836.066-.578-.044-1.171-.33-.883-.397-.71-.389-.493-.426-.719-.72-.53-.375-2.29-.814-2.592-.823-.883-.213-.695-.28-.546-.197-.625-.067-1.664-.036-.594-.015-.515-.183-.313-.214-.305-.47-.57-.962M284.677 427.89l-.316.992-.25 1.065-.32.492-.25.264-.43.243-2.203.764-1.07.3-1.132.17-1.07.183-1.89.419-.649.176-.491.228-.836.5-.64.264-.82.228-.634.22-1.234.632-1.03.485-.86.323-3.054.705-.968.411-1.789.926-.765.44-.625.5-.836.888-.538.764-.47.875-.656 1.432-.226.705-.047.779.062.808.087.506-.094.712-.422.868-.421.448-.438.227-.469.081-.546-.074-.86-.33-.57-.242-.523-.11-.547.029-1.789.455-.57.118-.507-.081-.89-.411-.547-.191-.39-.045-.595.17-.36.227-.233.338-.39 1.462-.47.992-.734.83-.64.418-.586.161-.515-.007-.43-.176-.421-.316-.477-.25-.633-.14h-.812l-.718.096-.516.177-.352.161-1.007.698-.195.162-.133.271-.04.25.095.507.226.837.273.742.094.411.023.427-.304 1.35-.742 1.918-.664 1.227-.328.374-.25.264-.445.236-.64.205-.664.198-1.477.58-.577.118-.485.03-.656-.03-.812-.213-1.789-.683-.398-.125-.422-.007-.375.051-.703.213-1.046.485-.446.242-2.538.801-3.882 1.292-1.14.537-.688.39-.476.462-.5.624-.305.712-.148.78.078 1.219.078.72.242 1.1.149.853.117 1.476-.032.881-.109.713-.46 1.168-.485 1.102-.203.536-.227.933-.093.77-.078 3.145-.016 2.9-.031 1.14-.168 1.54M158.142 538.179l-.531.272-.5.132-.625.19-1.046.434-.758.514-.438.514-.273.382-.336.602-.304.463-.266.323-.562.624-.812.808-.305.22-.266.081-.382.044-.399-.029-.312-.117-1.125-.713-1.046-.514-1.094-.36-.851-.147-.813.06-1.14.124-.758.183-2.116.742-1.086.522-.507.161-.43-.03-.914-.197-1.476-.17-.742.03-.734.11-.758.382-.61.514-.538.668M174.542 522.428l-.068.173-.492.852-1.14 1.249-1.008 1.057-.75.5-1.789 1.101-.32.316-.383.559-1.21 2.18-.96 1.712-.54.72-.96 1.167-.399.36-.367.228-.484.191-1.586.624-.96.566-.743.492-1.202.955-1.04.749M164.383 541.542l.062-.52-.078-.265-.218-.287-.212-.198-.687-.456-1.85-1.042-.422-.272-.407-.081-.554-.03-.985-.021-.374-.037-.516-.154M171.604 468.49l.425-.379 1.625-1.16.312-.294.172-.529.36-.895.257-.523M174.542 522.428l.244-.62.172-1.425.274-2.974-.055-2.343-.117-.786-.281-.566-.328-.396-.766-.463-1.062-.543-.375-.316-.281-.396-.188-.272-.07-.537.031-.389.172-.286.258-.14.836-.19.578-.162.484-.25.585-.617.86-1.55.367-1.057.21-.536.72-1.102.999-1.506.422-.668.203-.661.14-.522.203-.39.274-.263.36-.17.804-.183 1.187-.161.406-.14.523-.316.297-.44.188-.47.039-.676-.063-.624-.18-.544-.327-.617-.29-.529-.57-.631-1.163-1.073-.68-.463-.898-.484-.375-.279-.156-.243-.148-.514-.016-.544.18-.763.343-.654.336-.463.336-.256.812-.441.625-.236.273-.198.71-.595 1.087-1.101.265-.426.102-.397-.016-.44-.578-1.543-.468-1.19-.75-1.329-.438-.64-.539-.403-1.39-.793-.71-.61-.579-.881-.312-.889-.133-.705.047-1.902.101-1.359-.015-2.263-.047-.66-.187-.522-1.672-2.542-.344-.734-.148-.543-.125-1.213M348.673 456.8l.11-1.571.093-.779.22-.588.577-.66 1.656-1.176.484-.293.203-.28.172-.543.093-.72.204-1.88.421-2.145.04-.977-.157-.632-.57-1.102-.617-1.064-.844-1.41-.07-.177.063-.33M372.355 420.428l-.078.984-.258.668-.344.977-.195.962.031.705.188.713.46 1 .102.711-.055.522-.398.705-.773.837-.633.838-.453.698-.695 1.35-.844 1.25-.32.338-.218.11-.485.125-3.437.455-1.093.176-.765.25-.922.404-.648.543-.531.559-1.281.837-2.555 1.212-.53.14-.844.176-.602.022-.515-.096-.422.015-.562.096-.633.279-.538.426-.586.771-.172.286M339.035 437.395l.219.837.085.397.172.213.5.264.688.25.64.213.789.125.906.073 1-.08 1.405-.191 1.234-.184.625.044.57.147.899.345 1.054.323.93.301" clip-path="url(#p634d0f7c1f)" style="fill:none;stroke:#000"/><path d="m384.844 437.24-.61-1.094-1.202-2.049-.242-.426-.22-.22-1.928-1.198-.648-.565-.368-.551-.187-.573.008-.345.094-.213 1.234-1.565.453-.66.156-.324-.07-.367-.18-.39-1.078-1.175-.476-.808-.274-.757-.102-.749.032-.47.062-.353.164-.594-.008-.69-.163-.86-.22-.404-.272-.213-.29-.074-.578.067-.718.212-.55.197-1.27.325-1.336.096-1.702-.022M284.677 427.89l-1.011-.213-1.703-.22-1.226-.095-.625.014-.789.14-.57.037-.765.014-3.93-.39-1.78-.234-.602.007-1.202.095-1.125.052-.422.074-.367.205-.43.272-.5.36-.585.161-.703.074-.992-.147-1.039-.103M289.801 422.473l-.582.364-1.312 1.116-2.28 2.057-.438.617-.39.881-.122.383M289.801 422.473l-.457-.114-.48-.099-.512-.11-.277-.125-.22-.191-.838-1.113-.774-.844-.523-.42-.734-.682-.726-.896-.821-1.05-.289-.493-.335-.86-.829-1.946-.453-.77-.398-.47-.312-.354-1.258-.991-.835-.617-1.906-1.734-.493-.418-.406-.25-.546-.323-.43-.383M323.834 422.373l-1.342.038-1.015.014-1.063.199-1.538.41-1.281.243h-1.273l-4.609-.617-1.725-.103-.735-.029-1.25.199-1.75.396-1.506.228-1.453.037-1.515-.044-2.25-.375-1.578-.309-.906-.095h-.617l-.851.066-.86.052-.897-.045-.766-.095-1.288-.242-.93-.023-.656.089-.379.106M298.622 487.703l.251-.466.468-.646.813-1.572.609-1.38.406-.573 1.78-1.734 2.688-2.218 1.359-.793.593-.514.563-.735.344-.573.453-.411.734-.426.875-.235 2.061-.059 2.117.11 1.96.191 1.86.191.89-.095.766-.176 1.335-.507 1.242-.382.601-.257.516-.338.617-.544.539-.543.32-.235.367-.074 4.515.28 1.304.095 1.367-.103.883-.169.89-.323 1.14-.603 1.14-.836.407-.5.937-1.542 1.124-1.822.89-1.454.813-.852 1.734-1.176 1.469-.998 1.28-1.19 1.516-2.028.843-1.174.5-.838.172-.675M332.677 530.717l-.164-4.083.016-2.285.078-.492.234-.455.437-.507.29-.396.585-.787 1.351-1.35.383-.412.477-.632 1.374-2.409 1.031-1.35 1.547-1.866.437-.647.547-1.307 2.812-8.08 2.92-8.93.93-2.402.875-2.614.695-2.145.96-2.527.11-.382-.023-.381-.125-.427-.336-.382-.43-.396-.304-.47-.188-.404-.226-.639-.234-.485-.344-.478-1.172-1.145-1.491-2.005-.492-.86-.204-.462-.093-.558-.117-1.8-.07-.948.038-.573.203-.741.375-1.087.43-.86.625-.815.812-.793 1.18-.734 1.116-.588.828-.514.867-.742.43-.551.18-.44.054-.478v-1.395l-.14-.449-.18-.338-.312-.337-.423-.448-1.553-1.374-.423-.64-.156-.36-.031-1.761M323.834 422.373l-1.701.948-.742.507-.258.301-.188.346-.062.294.023.536.016.764-.094.506-.312.53-.484.389-2.203.94-.367.213-.406.389-.914.83-.656.396-.984.427-.282.198-.124.264-.032.316.117.214.532.403.898.698.601.55.18.368.07.42M390.654 595.567l-.397-.149-.742-.036-1.312.014-1.523-.11-.797-.11-.508-.03-.563.126-1.085.785-2.492 2.02-1.484 1.006-.71.345-.805.25-1.156.367-1.234.617-1 .426-.687.206-.968.242-.985.154M390.654 595.567l.173.065.625.322 1.304.882.36.169.57.044 1.804-.22 2.108-.426 3.281-.368 2.515-.147 1.578-.132 1.765-.389 1.742-.771 1.742-.764 1.647-1.057 1.211-1.102.219-.345M399.41 585.974l.696.463.789.5 1.452.69.703.22.765.03.852-.045.703-.059.703-.257.523-.264.82-.257.344-.015.305.044.242.147.414.397.437.565.672.801.578.587 1.203 1.006.46.25 1.227.55M169.846 425.224l-1.542-.198-1.063-.066-.687.073-.57.161-.71.081-.86.037-1.023.088-.836.191-.594.147-.71.088-1.75.147h-.78l-.852-.118-.633-.183-.836-.367-2.054-1.168M320.068 321.17l.581.87.39.514.344.221.78.58.587.551.25.382.32.382.39.36.524.272.695.448.351.39.32.455.172.639.063.83.133.544.383.83.632 1.417.484 1.705.18.602.149.352.288.478.461.566.805.735 1.116.954.368.404.257.5.126.632-.016.411-.172.595-.14.625-.141.697-.032.602.087.97.062.647-.008.632-.047.557-.226 1.147-.164.337-.305.471-.586.741-.398.654-1.273 2.534-.273.537-.141.433-.242 1.11-.187 1.204-.087.235-.117.265-.219.264-.929.97-.304.228-.555.316-.656.345-.398.294-.672.587-.453.478-.43.595-.281.55-.14.376-.204.77-.11.867.064 1.22.656 2.468 1 2.454M276.804 338.81l6.604.376 2.437.044 2.968-.353 2.374-.587 3.074-1.409 3.69-2.338 4.06-3.21 2.938-1.888 2.883-1.68 7.146-3.345 1.828-1.116 3.262-2.134M296.46 524.731l-.383-.448-.664-.683-.187-.418-.04-.25.102-1.542.07-.485.156-.382.227-.309.281-.205.766-.478.43-.41 1.054-1.558.585-.918.078-.36v-.565l-.109-.573-.164-.302-.68-.403-1.265-.559-1.687-.69-.297-.183-.288-.331-1.454-1.939-.257-.514-.14-.573-.11-1.33.031-.667.125-.691.273-1.065.5-1.476.133-.456.125-.712.094-.705.195-.771.305-1.271.328-2.549.234-1.468.453-1.381.812-1.866 1.047-1.997.828-1.954.406-1.131.249-.46M284.658 500.399l-.688-.984-.156-.411-.016-.456.157-.397.515-.47 1.469-1.116.562-.676.703-1.19.328-.984.125-.91.219-1.822.14-.573.219-.382.453-.323.843-.308 1.063-.044 3.905-.147 1.351-.037.672-.095.453-.147 1.647-1.224M137.48 307.605l.12.612.049.58-.037.432-.137.573-.492 1.564-.625 2.256-.07.639-.008.558.07.25.204.338.367.426.328.33.101.265.008.287-.171.764.039.367.132.375.399.44.718.595 1.164.742 1.101.566.445.272.657.617M125.596 302.991l.28.09 2.414.646 1.758.569.56.288.404.321.402.405.403.521.234.369.254.25.406.14.416.044 1.001-.097.969-.148.54.006.57.042.573.264.285.283.415.621M163.763 455.52l-.716 2.367-.367 1.176-.031.293.008.228.156.257 1.14 1.08.414.264.813.324.64.183.687.22.93.346.726.52.742.64.258.544.07.58-.039.646-.016.147.047.235.157.338.585.735.406.638.422.441.809.767" clip-path="url(#p634d0f7c1f)" style="fill:none;stroke:#000"/><path d="m156.83 465.768 2.14-3.033 2.468-3.614 2.325-3.6M359.061 408.315l.805 1.065.039.228-.047.162-.149.146-.23.144M427.102 465.605l2.208-2.15M405.776 496.491l.71-.97 6.546-8.886 4.437-7.682 3.061-5.186 1.61-2.615 4.962-5.547" clip-path="url(#p634d0f7c1f)" style="fill:none;stroke:#000"/><path d="m457.443 456.639-1.765.014-.968-.234-2.968-.765-.563.015-.75.074-.516.294-.593.484-1.374 1.205-1.61.94-1.905.69-3.609 1.117-1.796.66-2.422 1.088-2.468.881-2.312 1.087-2.25 1-.968.22-1.504.196" clip-path="url(#p634d0f7c1f)" style="fill:none;stroke:#000"/><path d="m464.113 449.955-.312.735-.172.675-.062 1.029-.156.998-.5 1.117-.75.94-.781.66-1.125.397-1.14.22-1.672-.087" clip-path="url(#p634d0f7c1f)" style="fill:none;stroke:#000"/><path d="m457.884 448.195.543.629 1.563 1.895 1.273 1.748.296.8.04.64-.196.55-.195.419-.368.433-.6.397-1.016.382-1.78.55M467.002 470.084l.298-1.018.094-.602-.047-1.307-.195-1.344-.133-.559-.313-.698-.14-.425-.203-1.176-.125-.594-.25-.353-.25-.206-.305-.11-.64-.007-.34-.045M467.002 470.084l-.764-.066-.133.022-.18.065-.57.166-.617.095-.664.045-1.242-.081-.382-.074-.11-.088-.039-.17.032-.16.086-.162.413-.397.61-.624.21-.294.11-.3.102-.625.21-2.38.379-3.416M464.113 449.955l.297.955.219 1.248-.016 1.352-.14 1.778-.22 2.702-.03 1.69.062.639.063.411.086.588.019.322M276.804 338.81l-1.128-.506-.719-.264-.375-.25-.258-.301-.07-.272.039-.33.476-2.27.133-.199.164-.176.203-.11.633-.125.32-.154.164-.14.063-.264.164-1.345.125-.25.187-.198.313-.161.43.007 2.585.007M436.863 458.762l-.149-.515-.023-.389.03-.294.235-.448.219-.176.265-.14 2.039-.477.453-.008.226.118.22.191.21.727.008.316-.133.191-.266.206-.625.176-1.843.36-.586.095-.28.067" clip-path="url(#p634d0f7c1f)" style="fill:none;stroke:#000"/><path d="m436.863 458.762.28-.067.586-.095 1.843-.36.625-.176.266-.206.133-.19-.008-.317-.21-.727-.22-.19-.226-.119-.453.008-2.039.478-.265.139-.219.176-.234.448-.031.294.023.39.149.514M429.31 463.456l.492.248.39.118.32-.066.281-.14 1.234-.94 3.406-3.033 1.43-.881M443.4 447.324l-1.219 1.44-4.952 5.245-6.998 8.55-.921.897M581.636 490.171l-.528.4-2.679 1.712-1.758.889-2.702 1.256-3.265 1.366-.5.161-.617.118-.617.014-2.265-.36-.796-.132h-.399l-.304.133-.414.205-1.438.36-.578.243-.312.235-.21.257-.126.308-.21.404-1.063 1.16-1.476 1.168-1.117.654-.68.272-.523.161-2.702.676-.813.287-.827.382-1.922 1.094-2 1.204-5.006 4.15-3.218 3.019-1.453 1.505-2.75 2.806-2.436 2.893-1.406 1.587-1.148 1.564-.469.529-1.226 1.124-.39.47-.438.653-.328.405-.469.454-.398.53-.18.418-.101.595-.04.735-.194.602-.165.389v.316l.04.375.14.293.188.631.054.588-.094.632-.202.47-.305.94-.508 2.394-.398 2.226-.195 1.307.039.727.398 1.748.25.83.453 1.057.149.573-.024.353-.203.41-.367.53-.508.558-.39.771-.328.86-.266.859-.203.352-.36.434-.484.36-.82.425-.406.287-1.187 1.263-1 .984-.656.742-.93 1.366-1.843 2.893-.515.588-.367.33-.516.258-.562.029-.5-.191-1.422-.727-.554-.25-.312-.257M467.002 470.084l-.342 1.171-.89 2.541-1.54 3.29-.437.442-5.1 3.716-2.773 1.168-.695.14h-1.43l-.57.146-.328.242-.413.463-.423.83-.413 1.462-.157 1.014.094.72.36 1.277.624 3.394.25.69.313.352.468.132.453-.058 1.672-.448.304.227 1.555 1.675.406.125 1.867-.044.577.587.172.441.234.933.32.558.438.294.414.095.36-.065.405-.2 1.118-1.027.32-.118.281.052 1.015.41.75-.138.789-.47 3.194-1.617.68-.176 5.132-.851.976.058 2.148.603 2.093 1.329 1.437 1.072.797.367 5.67 1.146 1.82-.265.547.177.43.301.195.389-.024.654-.562 1.983.21 1.05.368.492.969.42 1.421.072.601.257.696.456.866.94.829 1.55.93 1.02 3.342 1.374.789.97.555.712 1.499 1.014.539.367.266.345.453.977-.04.88-.164.273-1.218 1.55-.726.242-.961.14-.492.242-.282.279-.108.3.023.339.195.396 1.312 1.623.274.911-.102.698-.43.852-1.171 1.49-.375.941-.102.617.196 1.145.18.272.898.962.25.522.21.756-.015.625-.242 1.138-1.813 4.553-.046 2.057 1.39 4.95.422 2.6.359.881 1.125 1.513.796.646 1.156.69.594.632.422.852.656 2.057.437.822.617.573 2.531 2.027.312.448.126.852.156.925M563.058 602.63l-3.156.411-10.841 3.525-1.624.999-2.187 2.262-1.719.705-2.28-.47-1.719-.97-.5-1.233-1.5-.852-2.53-.676-5.874-2.79-2.218.557-1.374.441-.75-1.174-.407-1.646-.968-.998-3.25-3.643-2.03-4.641-1.093-3.173-1.5-1.204-2.968-2.086-4.093-1.116-2.999-2.027-.625-1.733-.437-3.467.344-1.703 1.811-3.143 2.656-3.261 1.093-2.468 1.344-5.905v-2.379l.602-1.212M442.79 605.036l.344 1.442.094.624-.047.536-.164.382-.851 1.528-.547.962-.547.881-.265.764-.204.852-.195 1.042-.265 1.52-.383 1.58-.023.741.078.537.586.954.202.558.086.257-.031.448-.188.308-.75.36-.57.198-.695.126-.952.05-2 .133" clip-path="url(#p634d0f7c1f)" style="fill:none;stroke:#000"/><path d="m451.975 615.247-.968-1.866-.469-.822-.687-.882-2.202-2.218-1.86-1.791-1.64-1.586-1.03-.867-.33-.179M450.906 616.7l.32-.454.438-.537.311-.462M156.83 465.768l.437-2.1.032-.492-.047-.53-.211-.513-.32-.434-.336-.315-.36-.184-.632-.199-2.484-1.057-.648-.242-.438-.088h-.554l-.672.117-2.218.735-.336.205-.172.243-.11.396-.35.735-.29.41-.507.508-.664.433-.765.33-.29.074-.484-.088-.421-.22-.696-.713-.625-.764-.445-.477M385.31 327.831l-.34.175M388.154 332.502l-1.81-2.947-1.034-1.724M384.97 328.006l1.022 1.71 1.831 2.97M388.154 332.502l-.33.183M390.735 336.678l-.556-.879-2.025-3.297M391.936 338.708l-1.201-2.03M355.874 309.659l-.113.33-.168.287-.265.253-.315.323M355.874 309.659l.93.687M390.654 595.567l-.46-.494-.476-.338-.649-.257-1.452-.61-.43-.242-.133-.102-.109-.228-.024-.176.032-.408-.051-.169-.086-.128-.445-.29-.316-.125-.169-.052-.074-.062-.004-.066.223-.566M405.776 496.491l1.343-.536 2.633-1.263 2.226-1.08 2.82-1.255 1.218-.786.86-.8.71-.692.265-.315.117-.243.414-1.086.703-1.396.367-.61.531-.646.297-.272.297-.169.36-.102.359-.03.383.022.304.162.461.536M404.905 335.906l.371.124.301.008.238-.059.168-.129.14-.204M406.62 338.375l-.25-1.775-.247-.954M463.895 355.06l-.079 1.072-.1.625-.188.72-.29.36-2.71 1.623-.632.324-.726.175-.852.067-1.031-.096-.828-.183-.719-.33-.586-.47-.585-.67-.57-.888-1.008-1.323-.96-1.498-1.04-1.322-.952-1.161-.524-.83-.906-1.763-.359-.44-.39-.273-.485-.176-.804-.117-1.008.022-1.492.139-1.062.162-.968.279-1.398.36-1.266.308-1.32.456-1.609.808-1.07.514-.742.176h-.445l-.305-.176-.265-.323-.305-.632-.39-.61-.281-.36-.32-.22-1.477-.558-2.242-.874-1.202-.529-1.813-1.117-1.874-1.028-1.202-.514-1.282-.456-1.585-.338-3.89-.984-.867-.147-.992-.368-2.03-.866-3.14-1.425-.829-.492-.6-.448-.454-.537-.227-.333M404.905 335.906l.77 1.083.944 1.386M449.601 447.31l-2.5.126-.522.132-.336.213-.313.338-.297.455-.023.162.04.132.265.198 1.694 1.05.805.382.766.265.82.073.843.015 1.336.264.96.309.907.198 1.648.11 1.929.096.203-.074.125-.212.047-.324-.047-2.05-.067-.973" clip-path="url(#p634d0f7c1f)" style="fill:none;stroke:#000"/><path d="m454.037 447.347 1.024.074 1.921.14.375.11.227.176.3.348M449.89 445.57l-.484-.228-.437-.103-.508.023-1.585.499-1.633.727-1.843.836M449.89 445.57l.477-.007.601-.008 2.359.073.39.185.18.153.125.258.04.315-.009.382-.016.426" clip-path="url(#p634d0f7c1f)" style="fill:none;stroke:#000"/><path d="m449.601 447.31.383.016.664.058 3.39-.037M449.601 447.31l.086-.83.118-.58.085-.33M174.542 522.428l.416.886 1.242 1.564.516.646.577.874.352.265.46.161.579-.007.367-.095.351-.206.336-.39.219-.528.195-.808.203-.771.07-.22.18-.346.82-.91.93-.94M316.38 258.367l-.683-4-.312-2.425.296-3.262.5-1.602 1.047-1.939 1.53-1.616 1.656-1.256 1.563-1.242 2.437-2.285.835-.955.875-1.065.843-1.124 3.609-5.988 2.679-5.238M349.892 219.25l-2.898.814-1.902.643-.898.39-.594.408-.597.503-.41.26-.34.144-.356.103-.573.092-1.18.205-1.703.449-3.343.778-1.843.331M309.136 156.858l-2.445.316-.835.19-1.118.42-1.39.631-.968.441-1.25.955-1.086.764-1.007.427-1.148.492-1.437.382-1.414.19-.765.074-.735.221-1.148.588-1.945 1.131M316.38 258.367l2.264-.1M112.79 216.87l.313.01.23.037 1.156.297.925.254.875.174.648.037.348.042.392.136.152.149.108.16.051.279.031.433.035.318.104.225.236.159.287.091.396.014.352-.035 1.156-.224 1.32-.214 1.414-.348 1.234-.272.816-.115.637.024.534.153.52.257.441.426.696 1.018.449.933.304.764.14.625.116.356.365.411.955.733.678.347.851.25.953.286.566.159.563.319.811.61.954.529 1.12.448.7.213.74.079.624.015.359.059.317.093.408.217.422.103.547.036 1.077-.059.899.103 1.28.287 1.219.411.539.309.351.286.204.324.226.492.367.867.453.75.547.859.41.661.101.228.083.316.085.485.075.308.136.257.192.195.222.14.602.135.671.28.657.382 1.273.874 2.249 1.256 1.289.397 1.14.11 1.289.286 1.335.53.82.455.61.316.913.294 1.703.264 1.07.214.797.33.64.426.344.433.242.522.274.838.234.595.789 1.08.726.955.664.646 1.351 1.051.836.94" clip-path="url(#p634d0f7c1f)" style="fill:none;stroke:#000"/><path d="m122.959 141.392-.238 3.512-.484 1.954-.906 2.05-1.492 2.98-.352 1.618-.202.325-.735 1.05.106.531.21.278 1.793 1.175 4.397 1.844.977.944.277.581.203 1.157.079 1.025.366 1.117.629.506.356.14 1.995.107 2.328-.004.533.118.49.282 2.105 2.006 1.769 1.41 1.125.383 1.452.243 1.766.029.609-.081.656-.228 1.859-1.212 1.906-1.778 1.406-1.514.75-.308.608.014.516.28 2.734 2.469.952 1.572.235 1.131-.235 2.91-.671 1.293-.953 2.336-.125.72.062.618.391 1.19.062.536-1.21 3.88-.352.859-.398.492-3.038 2.505-2.156 1.544-1.515 1.645-1.668 2.3-.507.378-.465.103-.625-.004-2.25-.337-.57.018-.476.143-3.53 1.602-1.074.86-.246.48-.348 1.657-.39.559-1.295 1.122-.354.527-.37 1.062-.125.962-.141 2.755-.29.474-1.327 1.36-.12.367.066 1.447.257 1.782-1.273 2.986-.648 1.852-.45.51-1.772 1.12-1.156.548-1.07.371-.965.121-2.26.04-1.645.17-2.462-.51-.817.229-.443.19M144.716 308.222l-.32-.514-.337-.397-.39-.36-.242-.257-.25-.433-.281-.625-.5-1.256-.758-2.292M144.716 308.222l.554-.397.71-.389.337-.198.219-.191.117-.25.046-.279.118-1.315.132-.617.274-.558.406-.47.742-.654 1.007-.596 2.828-1.542 2.015-1.22 2.234-.822M419.6 113.735l-.788.235-.906.133-.804-.081-.727-.199-1.976-.639-2.507-.639-1.539-.176-1.086-.034-.363.015-.41.07-.34.143-.215.048-.25-.015-.187-.077-.218-.173-.672-.896-.414-.617-.164-.434-.094-.507-.016-.955-.007-.455-.063-.42-.156-.33-.297-.44-.281-.434-.297-.808-.109-.316-.219-.25-.367-.103-.445.037-.984.28-1.047.388-.687.492-1.015.824-.657.66-.406.81-.437.932-.32.537-.734.881-.735 1.014-.937 1.176-.5.566-.5.573-.281.683-.367 1.205-.531.963-.765 1.182-.781 1.11-.375.78-.368 1.094-.242 1.3-.39 1.286-.711 1.132-1.055 1.249-1.75 1.617-1.186.984-1.125.815M466.042 170.325l-.323.261-.422.21-.438.161-.394.092h-.336l-.36-.077-.695-.397-.53-.382M466.042 170.325l-1.023-1.08-.531-.8-.71-1.227M341.382 205.492l1.89 1.188M343.366 210.11l1.652-2.098.027-.106-.023-.103-.055-.096-1.696-1.027M343.196 202.925l1.886 1.262-1.81 2.493M339.879 208.052l3.487 2.058" clip-path="url(#p634d0f7c1f)" style="fill:none;stroke:#000"/><path d="m343.545 213.76 1.332-2.144.035-.163-.017-.168-.075-.184-.14-.102-1.314-.89M343.545 213.76l-5.219-3.304M306.38 224.877l-1.813-.008-.875.148-.34.183-.27.213-.214.32-.246.54-.305.91-.11.64.01.558.14.426.32.39 1.109.492 1.53.676.579.418.39.486.227.433.055.5-.04.712-.152.477-.34.383-.496.356-.972.474-1.3.478-1.27.352-.687.338-.516.426-.367.492-.226.632-.531 3.115-.453 2.322-.687 2.071-.703 1.91-.157.78.203 1.263-.094.852-.57.647-.586.41-1.202.478-1.75.603-.414.338-.195.419.023.323.14.411.298.419.988.9M121.53 140.778l.394-.185.29-.205.261-.209.505-.423M122.959 141.392l.02-.845.001-.79" clip-path="url(#p634d0f7c1f)" style="fill:none;stroke:#000"/><path d="m122.959 141.392-.431-.138-.447-.217-.309-.13-.241-.13M125.596 302.991l-.423-.793-.199-.58-.056-.402.002-.384.027-.762.074-.568.067-.55.177-.737.205-.597.038-.22-.016-.276-.17-.466-.402-.764-.211-.42-.219-.598-.281-.547-.203-.255-.347-.344-1.758-1.293-1.242-.86-1.015-.66-.18-.192-.148-.198-.171-.342-.097-.15-.11-.129-.548-.378M563.058 602.63l1.468-2.879 4.624-4.377 1.656-5.023 1.187-4.289.469-4.435.75-1.381 5.186-3.32 4.592-2.291 2.219-2.32 2.936-1.47 2-1.116.343-1.468-.312-1.235.125-3.642 1.375-3.055 1.968-3.202 1.062-.822 1.875-.383.75-.734-.375-1.293-1.47-2.144-.905-3.173-2.343-4.965-2.968-4.73-1.343-3.671-.719-3.173-1.687-4.025.312-4.612-1.187-3.026.25-2.85.531-5.728-.968-2.586-1.313-2.467-.25-3.144-2.124-4.406-.437-3.761-.032-1.939.75-1.557.583-1.767M318.894 255.802l7.473.72M318.894 255.802l.354-3.491M318.894 255.802l-.25 2.465M330.683 256.446l-4.316.075M327.617 260.296l-1.693-.114M325.924 260.182l.443-3.66M318.644 258.267l3.428-.039.222 1.689 3.63.265M326.367 256.521l.383-3.736M326.831 250.376l-.08 2.409M329.997 252.804l-3.247-.02M326.75 252.785l-7.502-.474M319.45 250.262l-.202 2.049M541.113 441.935l.687.238 2.954.238M541.113 441.935l1.085-.975 5.594-4.738M545.72 445.4l-.146-.54-2.798-.385-1.59-.794-.386-.295v-1.133l.313-.318M383.006 351.416l3.268-3.091M386.274 348.325l-.177-.426-2.614-2.274" clip-path="url(#p634d0f7c1f)" style="fill:none;stroke:#000"/></g><path id="PatchCollection_1" d="m388.817 375.252-.098-.153-.217-.04-.157.101-.136.117.011.827.141.046.174-.056.135-.235z" clip-path="url(#p634d0f7c1f)" style="fill:green;fill-opacity:.8"/><path id="PatchCollection_2" d="m347.352 349.752-3.637-.317.522-5.287 3.636.317z" clip-path="url(#p634d0f7c1f)" style="fill:#90ee90;fill-opacity:.8"/><g id="PatchCollection_3"><path d="m391.86 340.683-1.39.8 1.007 1.544 1.389-.801zM409.203 308.942l-.425-.124.197-.599.425.124z" clip-path="url(#p634d0f7c1f)" style="fill:#a9a9a9;fill-opacity:.8"/></g></g></g><defs><clipPath id="p634d0f7c1f"><path d="M90 95.052h558v537.096H90z"/></clipPath></defs></svg>