<svg xmlns="http://www.w3.org/2000/svg" width="960" height="960" viewBox="0 0 720 720"><defs><style>*{stroke-linejoin:round;stroke-linecap:butt}</style></defs><g id="figure_1"><path id="patch_1" d="M0 720h720V0H0z" style="fill:#fff"/><g id="axes_1"><path id="patch_2" d="M162.45 640.8h413.1V86.4h-413.1z" style="fill:#fff"/><g id="LineCollection_1"><path d="m391.6 356.546 6.068-4.167M391.6 356.546l-3.624 2.575M391.6 356.546l5.236 7.545M391.6 356.546l-3.958-5.527M334.308 393.079l1.18-.324 1.927-.59 1.767-.748 3.349-1.593 5.76-2.56 5.037-2.315M353.328 384.949l.393-.04.504-.36 3.35-2.362.128-.09M354.595 383.76l-.76.566-.383.284-.124.339M393.01 366.598l-2.437-3.664M393.01 366.598l2.768 3.99M393.01 366.598l3.826-2.507M393.01 366.598l-3.703 2.378M397.668 352.379l5.549-3.908M397.668 352.379l5.236 7.228M397.668 352.379l-3.891-5.583M357.605 343.787l-2.93-8.88M357.605 343.787l.19.458M357.605 343.787l6.427-4.113M353.969 342.677l1.311.965 1.016.493.707.06.602-.408M353.969 342.677l-2.248-6.354" clip-path="url(#p582edb9aa2)" style="fill:none;stroke:#000"/><path d="m354.894 345.304-.357-1.064-.568-1.563M350.713 333.561l.62 1.496M368.125 328.772l-4.818.285M368.125 328.772l5.53-.419M368.125 328.772l-.856-3.909M368.125 328.772l.568 3.544M356.858 329.434l6.45-.377M356.858 329.434l-.857-3.942M356.858 329.434l.805 4.254M353.465 329.491h.826l2.567-.057M363.307 329.057l.753 3.805M363.307 329.057l-.762-3.858M373.655 328.353l.64 3.24M373.655 328.353l-.747-3.902M371.765 324.544l-.757-8.755M371.765 324.544l-4.496.32M371.765 324.544l1.143-.093M371.008 315.789l-4.224.15M375.884 324.153l-2.058-8.11-.075-.208-.126-.088-.15-.037-2.467.079M367.269 324.863l-4.22.3M367.269 324.863l-.485-8.925M366.784 315.938l-4.347.155M363.049 325.164l-.298-4.437M363.049 325.164l-.504.035M362.437 316.093l.314 4.634M355.163 321.312l-.868-4.648-.009-.21.078-.12.183-.052 7.89-.19M356.001 325.492l-.838-4.18M356.001 325.492l-3.07.118M356.001 325.492l2.895-.13M357.663 333.688l-3.15.24M360.924 333.221l-1.407.162-1.854.305M352.93 325.61l-4.331.018M353.465 329.491l-.588-2.376-.256-1.02.062-.3.097-.115.15-.07M364.06 332.862l4.633-.546M364.06 332.862l-3.136.36M364.06 332.862l3.413 4.61M362.545 325.2l-3.649.163M371.18 335.368l3.923-2.615M371.18 335.368l-3.707 2.105M371.18 335.368l-2.027-3.111M371.18 335.368l2.863 4.086M375.103 332.753l2.815 4.05M375.103 332.753l-.807-1.16M379.114 384.22l-7.26 4.648M379.114 384.22l-2.133-2.945M379.114 384.22l2.01 2.82M371.854 388.868l1.665 3.192M371.854 388.868l-1.642-3.146M381.613 374.036l1.349 2.113 1.387 1.91.795 1.003.7.888M381.613 374.036l-2.126-3.514M381.613 374.036l4.067-2.678M381.613 374.036l-3.022 1.959M379.487 370.522l-2.064-3.283M379.487 370.522l3.768-2.634M379.487 370.522l-3.336 2.324M377.423 367.239l-.381-.433M377.423 367.239l3.563-2.689M377.423 367.239l-3.415 2.576M373.097 360.849l3.945 5.957M373.097 360.849l-4.095-5.383M373.097 360.849l-3.8 2.641M373.097 360.849l3.728-2.459M369.002 355.466l3.685-2.771M369.002 355.466l-3.9 2.602M360.917 361.697l4.03 4.781M360.917 361.697l4.186-3.63M360.917 361.697l-3.67 2.628M364.948 366.478l5.13 5.564M364.948 366.478l-4.16 2.906M364.948 366.478l4.349-2.988M370.522 372.445l-.445-.403M370.522 372.445l2.14 2.956M370.522 372.445l3.486-2.63M370.522 372.445l-4.79 3.614M372.662 375.401l2.346 3.042M372.662 375.401l3.49-2.555M372.662 375.401l-4.879 3.412M375.008 378.443l1.973 2.832M375.008 378.443l3.583-2.448M375.008 378.443l-6.474 4.173M376.981 381.275l-6.77 4.447M376.981 381.275l3.67-2.424M381.125 387.04l2.068 2.863M381.125 387.04l-7.606 5.02M381.125 387.04l3.465-2.363M383.193 389.903l2.079 2.964M383.193 389.903l-8.004 5.359M383.193 389.903l3.627-2.351M385.272 392.867l2.163 2.942M385.272 392.867l-8.498 5.434M385.272 392.867l3.643-2.3M387.435 395.809l3.54-2.226M393.578 400.77l-2.735-.86-.336-.133-.353-.281-2.719-3.687" clip-path="url(#p582edb9aa2)" style="fill:none;stroke:#000"/><path d="m378.58 401.128.295-.172 8.56-5.147M370.212 385.722l-1.678-3.106M380.65 378.851l-2.059-2.856M380.65 378.851l3.94 5.826M373.519 392.06l1.67 3.202M375.189 395.262l1.585 3.039M386.82 387.552l-2.23-2.875M386.82 387.552l2.095 3.014M378.58 401.128l-.2.009-.176-.092-.115-.141-1.315-2.603M388.915 390.566l2.06 3.017M393.578 400.77l-.358-.676-.619-.51-1.184-1.047-.113-.212-.02-.202-.001-.13.037-.213.76-1.84v-.255l-.097-.299-1.008-1.803M366.777 379.55l1.757 3.066M366.777 379.55l1.006-.737M366.777 379.55l-1.742 1.316M358.341 381.65l-.352-.367M358.341 381.65l7.39-5.591M358.341 381.65l-.638.446M350.106 369.367l1.64 2.677M351.746 372.044l-2.176 1.549-.174.013-.19-.123-.088-.136-1.105-1.835-.08-.216-.008-.264.035-.15.065-.094 2.081-1.42M350.106 369.367l2.262-1.592M351.746 372.044l1.576 2.465M351.746 372.044l2.339-1.67M355.823 372.808l-1.738-2.434M355.823 372.808l-2.5 1.7M355.823 372.808l2.466-1.718M354.085 370.374l-1.717-2.6M354.085 370.374l2.439-1.727M352.368 367.775l2.339-1.643M358.29 371.09l-1.766-2.443M358.29 371.09l2.499-1.706M356.524 368.647l-1.817-2.515M356.524 368.647l2.47-1.835M354.707 366.132l2.54-1.807M358.995 366.812l1.794 2.572M358.995 366.812l-1.748-2.487M365.103 358.068l-4.647-7.416M365.103 358.068l4.194 5.422M369.297 363.49l4.308 5.9M374.008 369.815l-.403-.425M374.008 369.815l2.143 3.03M376.151 372.846l2.44 3.149M360.456 350.652l-2.66-6.407M360.456 350.652l7.508-4.28M360.456 350.652l-3.144 1.876M375.43 341.433l-3.478 2.384M375.43 341.433l3.797-2.626M375.43 341.433l-1.387-1.98M375.43 341.433l4.635 6.65M379.227 338.807l4.667 6.586M379.227 338.807l-1.309-2.004M379.227 338.807l7.148-4.83M368.343 346.155l-.379.216M368.343 346.155l3.61-2.338M368.343 346.155l4.344 6.54M372.687 352.695l4.138 5.695M372.687 352.695l3.523-2.415M376.825 358.39l3.784 5.734M376.825 358.39l3.694-2.469M380.986 364.55l-.377-.426M380.986 364.55l2.27 3.338M380.986 364.55l3.497-2.687M383.255 367.888l2.425 3.47M383.255 367.888l3.575-2.433M385.68 371.358l3.121 4.241M385.68 371.358l3.627-2.382M389.307 368.976l-2.477-3.52M395.778 370.589l-3.703 2.436-2.768-4.049M386.83 365.455l3.743-2.521M384.483 361.863l.106.144 2.241 3.448M380.52 355.921l3.651 5.525M380.52 355.921l-4.31-5.641M380.52 355.921l3.37-2.32M376.21 350.28l3.855-2.197M376.21 350.28l-4.258-6.463M371.952 343.817l-4.479-6.344M399.562 367.775l-3.784 2.814M399.562 367.775l5.723-4.566M399.562 367.775l-2.726-3.684M403.964 372.508l-.388-.604-.628-.7-.434-.379-.511-.299-.27-.154-.344-.22-.288-.312-1.539-2.065M405.285 363.209l2.425 3.762M407.71 366.97l.402-.409 3.358-2.974.159-.154.044-.13-.027-.103-.154-.154-2.474-2.5-.09-.044-.122-.022-.109.02-.081.051-3.331 2.658M405.285 363.209l-2.38-3.602M387.642 351.019l-3.752 2.582M387.642 351.019l6.135-4.223M387.642 351.019l-3.748-5.626M383.894 345.393l6.07-4.18M383.894 345.393l-3.829 2.69M372.908 324.451l2.976-.298M374.296 331.593l-5.143.664M354.513 333.928l.162.98M354.513 333.928l-1.048-4.437M368.693 332.316l.46-.06M380.065 348.083l3.825 5.518M383.89 353.601l4.086 5.52M387.976 359.12l2.597 3.814M387.976 359.12l-2.878 2.003M365.035 380.866l-1.855 1.276-3.818 2.376M362.348 386.738l-.348.209-.548.18-.323.01-.331-.16-.3-.325-.34-.488-.796-1.646M357.703 382.096l1.014 1.577.645.845M367.783 378.813l-2.052-2.754M365.731 376.059l-.357-.371M360.789 369.384l4.585 6.304M357.247 364.325l-2.465-3.467M353.322 374.509l4.667 6.774M354.595 383.76l-3.52-6.581.07-1.127 2.177-1.543M399.375 343.093l-5.598 3.703M399.375 343.093l3.842 5.378M389.965 341.213l5.322-3.072.204-.083.256.013.265.119 3.363 4.903M403.217 348.47l4.555 6.402M411.27 343.241l-.18-.088-.208.018-.252.092-.199.14-7.214 5.068M407.772 354.872l-4.868 4.735M414.602 348.006l-.168.211-6.662 6.655M414.602 348.006l.04-.15-.04-.166-2.93-3.965-.401-.484M567.605 286.884l-3.592 1.906-.622.545-2.178 2.495-.645.722-1.485 2.723-.437.73-1.148.899-2.298 1.364-1.944 1.443-1.219.44-1.317.642-1.29.493-2.305.47-3.777 1.246-3.95.502-.848.194-2.39.158-2.54 1.465-1.366 1.267-1.643.735-4.555 1.017-1.76 1.509-.567.28-.425.054-2.244-.061-.946.176-.671.37-.795.738-1.98 3.107-.644 1.338-1.794 2.507-.99 1.162-.68.334-.671.07-6.026.441-.336.246-3.755.29-17.723 1.294-10.692.419-1.81.268-6.075.193-6.733.66-2.633.863-.883.453-.54.541-1.369 1.879-.578.458-.703.365-.742.202-1.135.15-1.538.546-.654.343-1.007.73-.928.445-7.439 2.045-3.357.652-1.95.167-2.773-.026-2.333.809-.662.07-2.134-.153-1.966-.581-1.268-.88-.384-.427-1.215-1.878-.212-.177-.543-.11-1.56-.017-.587-.233-.464-.836-1.551-1.963-1.299-1.61-1.33-.925-.856-.04-.363.177-.398.568-.119.29-.124 1.28.044 1.025.168.705.836 1.654-.305 1.967.14.932.695 1.835.194 2.645-.27.625-.971 1.91-.124.558.027 1.87-.305.603M420.565 352.664l-1.758-1.41-.69-.38-.909-.527-.292-.189-.238-.215-.936-.854-1.14-1.083M402.904 359.607l-6.068 4.484M368.534 382.616l-1.9 1.295M403.964 372.508l.56-.486.465-.506.406-.603.504-.823 1.497-2.71.314-.41M393.777 346.796l-3.812-5.583M389.965 341.213l-.589-.907-.945-1.654-.424-.986-1.632-3.688M383.469 327.17l1.057 2.374 1.85 4.434M362.751 320.727l-7.588.585M357.312 352.528l-2.418-7.224M357.312 352.528l-2.85 1.688M346.156 366.95l8.626-6.092M354.462 354.216l-2.924 1.732-.08.178.04.192 3.284 4.54M377.918 336.803l-3.875 2.65M312.852 391.567l-2.392-.399M334.308 393.079l-.71.09-1.44.149-1.325.018-1.326-.053-4.312-.422-5.31-.634-7.033-.66M326.936 574.613l-1.14-4.364-.238-1.893-.848-10.039-.884-11.652-.3-8.008-.115-11.8-.044-23.012.03-.457.178-.303.574-.582 1.444-1.104.637-.58.375-.525.19-.523.265-1.197.176-1.443.319-2.41.115-1.902-.16-1.417-.185-1.54-.123-3.722.03-7.875.04-9.285-.836-20.19-.436-4.652-.336-2.402-.795-3.274-1.59-5.28-1.326-5.385-1.82-6.89-.389-1.77-.132-1.223-.212-1.619-.619-3.274-1.193-4.83-1.413-5.65-2.18-7.24-1.143-3.734M422.091 378.742l1.294 2.31M422.091 378.742l2.842-2.786M416.844 384.03l1.98-2.085 3.267-3.203M423.385 381.053l1.4 2.994M423.385 381.053l3.184-1.45M423.385 381.053l-3.188 1.45M424.786 384.047l-3.122 1.455M422.757 396.248l6.53-1.328.18-.119.102-.146.057-.25-.093-.277-4.747-10.08M426.569 379.603l1.432 2.59.047.11-.007.086-.058.07-.075.062-3.122 1.526M420.197 382.503l1.467 2.999M420.197 382.503l-3.353 1.528M421.664 385.502l-3.134 1.46M427.2 373.855l-2.267 2.101M424.933 375.956l1.636 3.647M418.53 386.961l1.286 2.99M418.53 386.961l-4.545 2.118M418.53 386.961l-1.686-2.93M422.757 396.248l-3.874.771M419.816 389.951l2.416 5.065.525 1.232M528.614 623.768l-.388-.81-3.093-7.304-3.71-8.183-.496-1.25-.547-2.006-.424-2.5-1.29-9.08-.39-1.39-.388-1.584-.442-1.268-.477-1.443-1.679-4.681-1.183-3.644-.946-4.232-1.138-3.904-2.89-8.662-2.002-4.95-1.807-4.774-.212-.413-.256-.414-2.553-3.687-1.986-2.644-9.02-10.97-6.978-7.774-2.798-3.136-2.29-2.252-4.68-4.419-6.005-5.157-9.759-7.946-1.095-.959-1.13-1.039-.416-.51-.406-.765-2.217-6.084-2.89-10.293-.39-1.373-.607-1.602-3.704-7.902-2.014-3.73-2.81-5.58-5.895-13.178-2.816-7.467-2.987-8.764-1.343-4.752-5.715-19.809-2.852-10.31-.617-2.155M415.963 392.122l2.57 4.223.35.674M419.816 389.951l-3.853 2.17M415.963 392.122l-1.978-3.043M413.985 389.079l-1.561-2.526M416.844 384.03l-4.42 2.523M403.964 372.508l4.943 7.795 1.683 3.115 1.834 3.135M354.595 383.76l3.394-2.477M384.171 361.446l.312.417M384.171 361.446l-3.562 2.678M384.171 361.446l.927-.323M357.99 381.283l7.384-5.595M370.077 372.042l-4.703 3.646M370.077 372.042l3.528-2.652M377.042 366.806l-3.437 2.584M377.042 366.806l3.567-2.682M381.398 259.643l-.194.29M381.398 259.643l.292-.766M426.297 256.564l-.386-.243-.46-.396-1.2-1.553-.2-.229-.287-.194-.247-.092-.39-.057-.42.03-.507.159-.61.189-1.343.378-.415.067-.485.021-.354-.026-.486-.15-.61-.387-2.359-2.024-1.431-1.108-.45-.327-.354-.255-.437-.356-.372-.37-.357-.321-1.803-1.425-1.793-1.206-.857-.59-3.402-1.03-.442-.052-.415.017-.58.093-.56.19-8.146 3.853-.99.6-.654.615-.742 1.743-.971 1.883-1.396 1.478-3.5 2.447-2.827 1.214-1.661.493M368.11 287.505l-.142.563M368.11 287.505l5.883-.48M381.204 259.932l-.327.486-2.147 3.01-2.121 4.135-2.456 3.397-2.51 2.948-.304.48-.561 1.122-.283.704-.248 1.162-.194 1.346-.142 1.444-.175 1.663-.231 1.478-.495 1.567-.317.672-.177.762-.406 1.197M381.165 321.903l-3.317 1.479M383.469 327.17l-.498-1.12-1.806-4.147M378.675 314.263l.223.813 1.078 3.679.14.43.186.467.863 2.251M351.72 336.323l-.388-1.266M335.78 334.357l.356-.134 2.587.68 6.6 2.218.335.052.336-.013 5.727-.837M393.578 400.77l2.664.838M528.614 623.768l-20.657 5.086-.99.493-.548.07-1.342.212-1.573-.089-.972.176-.954.422M326.936 574.613l-12.952 5.21-10.648 3.634-.75.316-.636.406-.716.58-2.589 3.054-1.652 2.024-.724 1.003-2.607 4.699M354.675 334.908l-3.343.15M377.848 323.382l-.938.485-1.026.286M365.035 380.866l1.599 3.045M381.045 98.568l.998 1.162 1.423 1.591 1.125 1.26.816 1.087 1.505 1.916 1.311 1.428 2.047 2.271.77.836 2.005 1.812 1.977 1.778.8.7 1.182 1.181 3.282 3.607 1.831 1.834.612.419 1.318.784 2.087.923 1.318.627.516.099 1.637.952.372.944.833 2.802-.233.75-.309.51-.385.447-.892.86-1.522 1.353-1.853 1.707-.584.65-.396.588-.374.685-.635 1.376-.781 1.736-.42 1.185-.17.599-.08.525-.015 1.274-.05 1.533-.126 1.723-.14.786-.165.619-.155.758-.073.598-.108 1.01-.064.724-.084.615-.126.665-.02.511.044.392.207.52.315.464.571.813 1.55 2.33 1.138 1.852.571.917.426.894.338.97.175.876.035.936-.076.924-.28.813-.42 1.29-1.58 4.035-1.06 2.927-2.502 5.929-1.871 4.222-1.313 3.118-1.632 4.036-1.603 3.683-.542 1.428-.298.999-1.282 6.486-.87 4.78-.786 3.902-.974 4.803-.794 4.215-.3 1.434-3.163 16.624-3.217 19.14-.167.757M379.391 257.02l.754 1.158 1.545.7M367.968 288.068l-1.32-.535M378.675 314.263l-.961-3.508-.628-2.587-.194-.854-.742-3.256-.398-1.272-.203-.48-.274-.466-.45-.703-.83-.89-3.04-2.525-.275-.286-.251-.34-.623-1.337-.756-2.569-1.008-3.495-.03-1.125-.044-.502M384.483 361.863l.615-.74M308.52 390.623l-4.088-.596-5.239-1.012-1.29-.308-1.078-.37-2.165-.853-3.33-1.54M170.395 346.475l10.138 7.964 1.643.898 1.325.5 8.995 3.504 10.064 4.189 5.858 2.358 2.226.801 2.341.643 4.719.977 15.806 3.44 7.687 1.681 6.088 1.479 5.601 1.848 7.952 2.64 4.586 1.557 3.357.986 1.352.308 1.07.202 5.07.625 10.117 1.31.849.164.786.198 3.305 1.197M295.747 386.71l-.256.003-.164.005-.234-.04-2.518-.967-.455-.058-.38.08-.41.21M324.444 367.706l-.503-.427-.521-.37-.173-.22-.03-.145.092-.185.45-.598.788-1.461 1.788-3.736.014-.242-.067-.185-.15-.22-.176-.083-.385-.106-.636-.035-.73-.053-.277-.075-.283-.092-.31-.15-.207-.14-.212-.203M324.444 367.706l-.41.858" clip-path="url(#p582edb9aa2)" style="fill:none;stroke:#000"/><path d="m331.328 351.098-1.732 5.318-1.622 3.631-2.055 4.451-1.475 3.208M302.515 367.938l.614.133 2.443.827.354.145.176.035.252-.022.667-.334.283-.18.11-.137.08-.247.473-2.349.08-.092.11-.062.243-.022 2.84.141 1.41.083.604.084.491.114 1.537.489 2.033.722 2.676.902 2.099.642.323.048.384-.035.755-.198.305-.027.177-.034M308.52 390.623l1.182-1.078.744-1.252 1.846-2.613 4.222-5.023 2.635-3.774 2.485-3.89 1.198-1.89.868-1.686.334-.853M303.297 351.685l8.345-.01M302.515 367.938l.548-3.352.371-4.198.132-2.825.204-3.203-.044-.994-.283-1.092-.146-.59" clip-path="url(#p582edb9aa2)" style="fill:none;stroke:#000"/><path d="m295.986 374.372-.124-.951-.31-1.188-.14-.854-.062-.66-.239-6.09-.088-.72.07-1.515-.636-9.433.018-.485.163-.299.279-.184.362-.243.486-.074 7.532.009M301.287 374.24l.035-.467.203-1.056.99-4.779M295.986 374.372l.645-.212.742-.123 1.793.115 2.12.087M302.758 383.722l.07-.493.103-1.28.052-3.433.089-1.32-.115-.378-.194-.255-.521-.432-.425-.501-.31-.66-.22-.73M316.27 341.461l-.272.042-.628-.026-1.546-.23-2.791-.43-3.066-.81M334.545 334.365l.135-.017.61-.013.49.022M333.272 345.833l.636-2.35 1.263-5.65.61-3.476M333.355 295.73l1.356 6.577.601 3.837 1.238 7.99.07 7.498-.6 9.152-.24 3.573M333.272 345.833l-.778 2.877-1.166 2.388M311.642 351.675l13.006-.017 3.636-.004 1.604-.035 1.44-.52M310.46 391.168l-1.489-.375-.452-.17M302.758 383.722l-.26.796-.323.634-.38.413-.513.34-.843.22-2.386.294-2.306.29M295.986 374.372l.035.721.08 1.514.106.818.106.607.106.696.044 1.135-.062 1.073-.238 2.042-.341 2.737-.061.633-.014.361M353.465 329.491l-13.019-.677M366.634 383.91l-1.343.88M311.642 351.675l-.026.987.026.435.062.229.11.295v.281l-.15.749-.115 1.069-.004.497.062.286M302.758 383.722l.901.136h.327l.296-.062.336-.145.99-.409.64-.277.875-.625 1.13-1.087.548-.343 1.122-.814 1.304-.783 1.78-1.21.848-.717M365.291 384.79l10.4 18.428M362.348 386.738l.81-.548 2.133-1.4M330.812 383.35l-.91-2.936M330.812 383.35l1.151 3.205M330.812 383.35l-6.792-.722M334.308 393.079l-2.345-6.524M362.348 386.738l9.865 17.633.133.15.195.03.309-.11 2.84-1.223M378.58 401.128l-1.335 1.096-1.554.994M460.258 205.47l-1.807-1.727-.845-.706-.682-.367-.8-.32-.56-.289-.64-.417-.429-.25-.41-.076-.536-.03-.497.089-.41.11-.334.13-.307.195-.244.288-.336.59-.542.952-.45.924-.276.597-.203.584-.1.507-.099.604-.214 1.068-.23 1.031-.14.913-.133.564-.122.33-.375.71-.417.691-.186.347-.167.29-.07.244-.09.338-.083.498-.09.56-.24.916-.342 1.162-.315.955-.253.608-.268.48-.277.394-.259.403-.184.38-.153.415-.103.445-.084.578-.22 1.186-.302 1.145-.303 1.014-.266 1.072-.137.571-.102.568-.02.344.027.237.086.24.172.325.202.289.13.147.225.216.532.438.106.117.101.131.091.19.038.247-.026.205-.537.795-1.728 2.195-.826 1.189-.199.332-.22.486-.032.4.043 1.045-.012.72-.059.167-.13.264-.157.244-.312.425-.773.86-.884.865-.99.994-1.037.904-.316.269-.29.275-.352.41-.19.395-.299.605-.245.57-.216.651-.173.871" clip-path="url(#p582edb9aa2)" style="fill:none;stroke:#000"/><path d="m431.014 254.592.446-.63.238-.4.239-.391.185-.41.244-.7.202-.435.27-.498.632-1.104.38-.73.415-.827.252-.396.19-.317.15-.273.123-.33.173-.476.203-.884M528.832 254.455l-3.079 2.096-3.33 1.033-4.147-.188-3.58.595-9.142 5.069-2.42.938-1.947-.219-1.445-2.065-4.053-1.283-3.267-1.032-4.492-.031-5.592-2.63-3.33-3.285-4.964-3.379-3.77-3.035-3.707-1.533-2.858.25-9.739 1.909-8.513 1.47-2.105-.156-3.739-1.189-2.45-.908-1.807-1.09M426.297 256.564l.224.14.56.277.58.295.313.132.323.062.251-.01.279-.153.322-.357.407-.58.472-.621.442-.55.544-.607" clip-path="url(#p582edb9aa2)" style="fill:none;stroke:#000"/><path d="m426.297 256.564 3.42-1.108 1.297-.864M340.522 110.981l1.236-.16.687-.113 1.869-.21 1.163-.04.389.017.267.07.236.127.2.174.204.228.446.457.265.21.253.12.458.096.435.023 1.084-.03 2.013.03 1.634.133.964-.024 1.158-.145 1.036-.18.507-.042.62-.03.82.036.452.048.495.12.5.084.398.037h.427l.482-.054.404-.085.398-.12.536-.204.483-.216.976-.462 1.749-.834 1.54-.736.774-.387.747-.42.585-.397.494-.384.53-.517.386-.45.386-.522.428-.654.416-.63.578-1.22.796-1.8.778-2.204.392-1.062.292-.724.162-.264.233-.225.313-.222.434-.133.458-.03.537.043.554.083.59.114.549.162.573.331.573.297.674.273.507.204M340.522 110.981l-1.893.002-.186.109-.358.045-.39.117M328.406 267.585l-5.899-31.387-.448-5.878-.954-8.906-.495-10.244.248-14.608.99-10.35 1.06-6.583 1.478-10.207 4.773-20.339 1.312-8.035 2.329-7.155 1.417-6.521-.053-1.145 3.375-13.13.157-1.843M377.848 323.382l2.25 4.925 3.37-1.138M360.924 333.221l3.108 6.453M367.964 346.371l-3.932-6.697M364.032 339.674l3.441-2.201M332.752 370.178l-5.7 2.462M327.051 372.64l-.36-1.546 1.116-2.218 2.359-4.686.236-.135.233.14 1.144 3.192.973 2.79M332.752 370.178l.963 2.762M333.715 372.94l-5.568 2.641M329.308 378.516l5.367-2.514-.96-3.062M329.308 378.516l.595 1.898M328.642 377.142l.63 1.26.036.114M323.388 388.536l-7.923-.964M323.388 388.536l7.4.927M323.388 388.536l-.359 3.359M323.388 388.536l.299-2.786M331.963 386.555l-8.276-.805M323.687 385.75l.333-3.122M329.903 380.414l-5.223-.75-.218.09-.15.285-.292 2.589M315.465 387.572l1.156-1.92.705-.676 1.861-2.371.838-.402 3.995.425M327.051 372.64l.465 1.35M327.516 373.99l.631 1.591M328.642 377.142l-4.878-.51-.314-.36 1.575-2.297.616-.24 1.875.255M328.147 375.581l.495 1.561M315.465 387.572l-1.2 1.276-.556.885-1.185.676-1.801.375-.263.384M357.876 327.293l.424-1.033.596-.897M354.462 354.216l-1.352-2.707M334.545 334.365l-13.235-4.782M320.23 336.707l.526-.836.494-.493.898-.678.441-.056 1.776-.089 4.9-.052 3.11-.014 1.665-.062.505-.062M316.27 341.461l.152-.024.207-.101.19-.251.548-1.566.385-.67.349-.32 1.02-.639.583-.506.45-.558.075-.119M320.349 340.07l.223-.396.141-.923-.156-.814-.328-1.23" clip-path="url(#p582edb9aa2)" style="fill:none;stroke:#000"/><path d="m316.27 341.461.186.266.394.372.549.188.833.156.863-.11.645-.438.172-.672.079-.516.358-.636M333.272 345.833l-.228-.777.063-.908-.205-.892-.8-.735-1.006-.39h-1.775l-2.874.015-2.262.219-.88-.141-2.956-2.153M373.993 287.025l1.952-.185M379.454 280.081l-.377 1.752-2.764 3.035-.974.063-1.346 2.094M426.297 256.564l-8.642.926-20.452 1.565-15.255 1.255-.744-.378M357.795 344.245l-2.901 1.059M383.459 312.453l-1.24.357-3.544 1.453M387.154 312.424l1.363.372 3.198 1.593M387.154 312.424l-.503-.137-3.019.116-.173.05M384.434 310.148l-.25.9-.725 1.405M384.434 310.148l.217-.782.023-1.017-.356-1.46" clip-path="url(#p582edb9aa2)" style="fill:none;stroke:#000"/><path d="m389.072 306.246.755 2.789.134 1.813-.156.731-.6.486-2.05.36M387.561 308.857l-1.355.642-1.772.649M361.37 285.394l5.278 2.14M357.872 303.676l6.723 1.719 2.634 1.276M357.872 303.676l-.377-.096-8.828-.031-6.817.313-2.643-.638-1.252-.301" clip-path="url(#p582edb9aa2)" style="fill:none;stroke:#000"/><path d="m366.648 287.533-1.425 1.935-4.586 7.479-2.765 6.73M333.355 295.73l-.066-.32M339.054 288.217l.157.97.975 1.439 1.004 1.001.22 1.252.032 2.69.157 2.129-.722.938-3.079.188-1.131-1.22-1.54-.845-1.772-1.03M332.5 291.587l.789 3.824M328.406 267.585l2.1 11.172.706 6.583 1.288 6.247M329.033 284.556l1.414 2.128 1.036 3.566 1.017 1.337M259.763 310.495l-1.036 6.853 8.387.25 2.356-.626 5.247-2.159 4.775-4.005 1.821-.626 8.734-3.63 2.639-2.19 4.712-3.003 1.854-.094 3.55-.626 2.638-1.346 8.325-3.285 2.984.22 5.56-.063 10.98-.754M328.406 267.585l-.646-.229M349.107 281.708l-3.801-2.472-2.388-1.47-.973-2.19-3.582-3.38-4.398-1.814-1.256-1.377-4.303-1.42M327.76 267.356l-7.425-2.625-1.983-.702M310.464 244.364l10.275 3.676 3.393 1.19.943 3.785.974 5.758.628 1.001 1.083 7.582M260.584 226.294l-.413-.157-10.524-4.099M293.277 238.168l-26.32-9.465-6.373-2.41M238.8 234.246l2.302-.88 4.807-1.033 1.13-.845 3.802-2.378 1.226-.094 1.224-.125 4.43-1.064.974-.908 1.89-.625M238.8 234.246l-.808.308-2.701-.031-1.822-.532" clip-path="url(#p582edb9aa2)" style="fill:none;stroke:#000"/><path d="m235.291 233.365 1.727.313 1.781.568M310.464 244.364l-7.223-2.613-9.964-3.583M274.057 251.326l-.315-1.847 19.535-11.31M306.131 247.884l.911-1.659 3.422-1.861" clip-path="url(#p582edb9aa2)" style="fill:none;stroke:#000"/></g><path id="PatchCollection_1" d="m403.269 348.98-1.689 1.238 1.201 1.65 1.786-1.125z" clip-path="url(#p582edb9aa2)" style="fill:green;fill-opacity:.8"/><g id="PatchCollection_2"><path d="m363.535 351.914 3.392-2.176 3.242 4.412-3.572 2.296zM428.46 383.048l.94 1.877 2.989 8.504 2.15-.967-.476-.835-3.7-7.165.144-.02-.569-1.257-.475-.71z" clip-path="url(#p582edb9aa2)" style="fill:#90ee90;fill-opacity:.8"/></g></g></g><defs><clipPath id="p582edb9aa2"><path d="M162.45 86.4h413.099v554.4H162.45z"/></clipPath></defs></svg>