<svg xmlns="http://www.w3.org/2000/svg" width="960" height="960" viewBox="0 0 720 720"><defs><style>*{stroke-linejoin:round;stroke-linecap:butt}</style></defs><g id="figure_1"><path id="patch_1" d="M0 720h720V0H0z" style="fill:#fff"/><g id="axes_1"><path id="patch_2" d="M90 628.263h558V98.937H90z" style="fill:#fff"/><g id="LineCollection_1"><path d="m173.048 451.269 2.806-1.645 2.424-2.276 3.444-10.625 1.148-3.162 3.06-2.403-.382-3.542-1.276-3.794-.382-3.162.892-2.276 3.7-.886 4.591-.506 2.678-.759 3.7-1.897 2.126-1.162M220.962 410.943l-5.681 1.808-2.98.004-2.915.262-6.252.711-.591-.056-.382-.158-.584-.34" clip-path="url(#p461aad275f)" style="fill:none;stroke:#000"/><path d="m202.232 398.266-1.963 5.031-.987 4.843-.04.663.049.521.128.48 2.158 3.37M359.042 373.22l.063.685M359.042 373.22l-3.031.471-3.835.613M359.042 373.22l4.716-.845M387.066 368.169l-1.953.06M387.066 368.169l-.137-3.194M390.296 368.39l-.544-.244-.514-.057-2.172.08M390.296 368.39l.884-.09" clip-path="url(#p461aad275f)" style="fill:none;stroke:#000"/><path d="m388.217 369.162 1.055-.202.627-.174.397-.397M391.606 368.264l5.76-.6 5.35-.712 6.831-.949M452.067 360.3l-12.315 1.711-9.144 1.226-10.203 1.391-10.858 1.375" clip-path="url(#p461aad275f)" style="fill:none;stroke:#000"/><path d="m410.44 370.075-.407-1.629-.486-2.443M583.454 342.383l-14.213 1.778M591.402 341.707l-2.312.043-2.32.166-3.316.467M585.216 349.252l-1.093-4.419-.67-2.45M624.739 349.402l-9.79-2.585-16.197-4.087-1.85-.426-1.961-.325-1.881-.181-1.658-.091" clip-path="url(#p461aad275f)" style="fill:none;stroke:#000"/><path d="m585.216 349.252 2.275-.392 1.583-.272.347-.065.165-.077.091-.109.065-.154.04-.233.05-.368.053-.211.097-.182.15-.172.327-.3.309-.283.227-.289.151-.3.1-.32.036-.305-.044-.324-.024-.415-.02-.442.044-.767.058-.557.106-1.008M624.739 349.402l6.952 1.845M587.787 358.905l3.296-1.028.98-.273 1.06-.229 1.128-.237.985-.234 1.291-.379.949-.225 1.18-.194 1.379-.162 1.363-.126.574-.095.558-.15.593-.198 1.025-.371.821-.261.965-.25.876-.186.985-.193 1.016-.277 1.304-.387 2.387-.91 2.276-.853 1.144-.38 1.343-.355 1.184-.273 1.861-.39 4.429-.887M631.658 347.774l-3.866.956-3.053.672M395.558 214.94l.477-3.152 2.02-11.85.841-12.685 2.188-26.539.43-7.783M402.337 147.243l-.327.452-.421 2.42-.076 2.816" clip-path="url(#p461aad275f)" style="fill:none;stroke:#000"/><path d="m435.534 153.99-.765-.41-.478-.411-.51-.38-.542-.316-.67-.221-.637-.285-.638-.253h-.606l-.702-.126-.701-.064-.67-.031-.797-.127-.637-.19-.575-.22-.542-.35-.414-.505-.574-.285-2.168.095h-.67l-1.212.127-.638.19-.732.253-.702.158-.638.032h-.67l-.67-.127-.605-.158h-.67l-.606.126-.605.253-.542.285-.543.347-.605.349-.542.348-.542.379-.574.348-.542.38-.606.442-.606.316-.606.032-.638-.063-.605-.095-.702-.032-.606-.126-1.275-.063-.67-.096-1.243-.379-.67-.158-.86-.048M395.657 242.656l-.777-.626M395.657 242.656l-.72.322M436.031 268.62l-4.233-4.757-2.609-3.088-2.777-2.837-5.049-2.504-4.796-2.504-13.716-6.843-5.185-2.4-2.01-1.03M352.176 374.304l-.27.815M377.438 331.378l-2.463.969-1.535.589-2.028.703-2.702 1.044-.814.395-.781.553-.59.562-.78 1.114-.483.901-1.583 4.166-4.942 13.598-2.814 8.142-2.415 6.53-1.332 3.66M358.792 389.83l-.226 1.878-.1.549-.21.231-.388.204-.677.087-3.348.22-8.297.914M338.162 469.853l.519-5.138 1.45-15.09.989-11.1.956-10.007 2.297-23.383.78-8.254.393-2.968" clip-path="url(#p461aad275f)" style="fill:none;stroke:#000"/><path d="m284.196 401.862 10.637-1.03 2.334-.295 1.646-.338 1.332-.48 5.164-2.133 1.217-.592 1.336-.46 1.62-.323 15.496-2.195 1.121-.196 1.935-.169.685-.01.595.014 1.081.074 11.86.37 2.137-.123 1.154-.063M351.905 375.119l-4.663 12.83-.988 2.893-.495 1.558-.213 1.513M379.406 357.76l-1.93.326M379.406 357.76l.038.365M381.368 339.32l-.414.77-.355.522-.554.58-.67.748-.33.478-.291.589-.614 1.806-.168.617-.091.388-.036.525.056.609.06.522.035.41-.136 1.763-.015.997.15 1.122.16.68.28.743.637 1.739.227.795.168.687.076.669-.137.68M377.1 358.141l.069.365M377.1 358.141l-2.864.484M377.1 358.141l.375-.055M379.444 358.125l.92 6.803M379.444 358.125l-1.905.32M377.539 358.446l-.064-.36M377.539 358.446l-.37.06M377.539 358.446l.374 1.949M377.169 358.506l.35 1.971M377.169 358.506l-2.863.475M374.236 358.625l.07.356M374.236 358.625l-2.318.41-.613.106-.251.134-.139.177M575.805 362.521l.734-.363 1.028-.28 1.698-.51 1.26-.317 4.467-1.324 2.795-.822M585.216 349.252l2.188 8.155.383 1.498M374.306 358.981l1.162 6.287M371.213 359.564l.175-.086.244-.046 2.674-.45M370.915 359.452l.298.112" clip-path="url(#p461aad275f)" style="fill:none;stroke:#000"/><path d="m370.915 359.452-.075.292.01.24.372 2.14.55 2.68.249 1.1M574.908 363.336l.233-.237.314-.301.35-.277M573.787 361.932l.657.044.453.069.288.1.315.143.305.233M386.91 364.658l.02.317M386.93 364.975l2.94-.074.11-.055.086-.171-.114-.135-.212-.039-2.83.157M386.91 364.658l-1.504.045-2.405.068-1.76.07-.876.087M377.913 360.395l-.393.082M378.375 364.323l.09-.665-.052-.583-.5-2.68M380.404 365.195l.681.022 3.825-.103 2.02-.139M380.365 364.928l.04.267M380.365 364.928l-.255.19M375.468 365.268l-1.582.308M375.468 365.268l.155.844M378.58 365.404l-.205-1.08M378.58 365.404l.094.502M378.58 365.404l1.53-.287M373.886 365.576l.287 1.972M373.886 365.576l-1.477.25M379.461 368.732l-.494-2.769-.293-.057M375.623 366.112l.391.13 1.393-.088 1.267-.248M372.021 365.904l-4.605.958M372.021 365.904l.388-.078" clip-path="url(#p461aad275f)" style="fill:none;stroke:#000"/><path d="m376.195 369.236-.217-.18-.109-.308-.401-2.348.155-.288M391.254 366.178l-.074 2.122M391.254 366.178l.501-.012M391.755 366.166l.099-1.448-.02-.196-.1-.183-.163-.045-.176.043-.12.201-.054.22.033 1.42M391.755 366.166l-.15 2.098M374.173 367.548l.113.756M374.173 367.548l-4.364.828M385.113 368.23l.13 1.461M385.113 368.23l-2.55.058-3.102.444M379.461 368.732l-3.266.504M379.461 368.732l.339 1.797M387.474 372.28l.953-.223.147-.061.056-.115.012-.142-.044-.265-.381-2.312M388.217 369.162l-2.974.53M376.195 369.236l.136.962M385.454 372.68l.125-.15.034-.135-.044-.249-.175-1.273-.15-1.182M379.8 370.529l3.259-.538 2.184-.3M410.44 370.075l4.429-.157M435.152 392.364l-.698-.06-.697-.11-.439-.139-.398-.245-.295-.217-2.478-1.986-2.062-1.548-1.654-1.146-1.03-.819-1.445-1.212-2.204-1.771-.957-.91-1.53-1.786-1.076-1.051-2.56-2.522-2.518-2.174-1.622-1.522-.347-.447-.22-.4-.171-.667-.311-1.557M376.331 370.198l.16.86M376.331 370.198l-4.044.793-3.494.552M379.8 370.529l-3.31.529M376.49 371.058l-1.252.237M375.376 374.22l.225-.258.104-.162.005-.176-.093-.443-.38-1.886M375.238 371.295l-3.744.567M368.793 371.543l-5.035.832M368.793 371.543l.112.757M371.494 371.862l.341 3.058M371.494 371.862l-2.59.438M368.905 372.3l-5.04.836M363.758 372.375l.106.76M363.864 373.136l-4.759.77M358.892 389.102l.192-1.724.344-2.297.127-1.3-.268-6.702-.182-3.174M351.905 375.119l3.787-.649 3.413-.565M375.376 374.22l-1.59.409M375.376 374.22l-1.319 1.26M373.786 374.629l.271.852M373.786 374.629l-1.951.291M371.835 374.92l.385 2.68M308.772 351.07l1.004 2.175.207.813.004.677-.25.735-.435.893-.502 1.253-.144.494-.163 1.206-.175 1.826-.017.853v.783l.172.906.063.66-.031 1.193.08 1.075.067.953-.131 1.715-.088 1.06.107.711.164.344.22.21.262.165.375.158 1.243.175 2.455.02 1.324.15.71-.048 2.231-.474.822-.095.733-.032.518.064 1.339.592.63.15 1.156.104 2.032.213 3.636.292.777-.04.745-.118 1.052-.134 1.626.23.758.03 1.307-.078 4.21-.237.425.055.261.17.13.233.186.755.323.418 6.197.816 2.849.119 2.67-.14M374.057 375.48l1.115 6.03M385.403 377.113l-7.998 1.206M385.403 377.113l-.26-1.903M385.403 377.113l.435 2.896M362.908 377.078l-.048.649M362.908 377.078l-1.485-.196-.37.033-.134.1-.067.163-.034.312M362.908 377.078l2.688.34M365.596 377.417l-.015.512M365.596 377.417l.49.357M360.818 377.49l.163 6.42M360.818 377.49l2.042.237M362.86 377.727l-.457 6.301M362.86 377.727l2.72.202M365.58 377.93l.505-.156M365.237 383.007l.212-3.074.132-2.004M368.319 378.107l2.184-.005M368.319 378.107l-2.234-.333M368.319 378.107l-.302 4.462M370.503 378.102l1.644-.02M369.455 380.356l1.098-.127.13-.077.02-.124-.01-.204-.19-1.722M372.147 378.082l.537 3.765M372.147 378.082l.35-.051M372.147 378.082l.073-.482M377.405 378.319l.459 2.782M385.012 374.266l-2.767.513-4.21.688-.46.206-.264.272-.131.351.003.48.046.57.176.973M550.412 377.9l-.664.81M574.908 363.336l-1.036 1.292-1.658 2.309-1.714 1.73-.546.442-.339.215-.327.164-1.315.27-2.726.744-1.425.393-.632.113-1.427.063-.765.055-.505.08-.32.076-1.088.303-.247.118-.415.21-.65.264-.458.123-1.156.313-1.283.53-.622.418-.661.585-.622.83-.913 1.127-1.646 1.798M551.352 346.683v1.02l-.047.249-.1.118-.195.084-.375.082-.582.168-.239.105-.195.134-.307.222-1.156 1.13-.681.597-.451.392-.33.331-.38.46-.115.205-.087.245-.124.719-.088 1.526-.016 1.138.072 1.233.08.945.095 1.126.032.372.056.17.088.253.869 1.158.845 1.095.394.522.216.38.64 1.616.296.743.339.581.673.977.178.386.047.15.015.151-.015.16-.177.907-.016.364.056.292.255.412.381.456.177.318.04.356.004.3-.107.356-.208.498-.439.664-.366.45-.27.388-.198.468-.106.33-.004.349.096.612.49 2.755M372.684 381.847l-4.667.722M372.684 381.847l.47-.055M372.684 381.847l.266.382M385.838 380.009l-5.013.719M385.838 380.009l.449 2.679M380.825 380.728l-2.961.373M380.825 380.728l.304 2.689M377.864 381.101l-2.692.41M375.172 381.51l.504 3.036M375.172 381.51l-2.018.282M368.017 382.57l-2.78.437M386.287 382.688l-5.158.729M384.955 388.486l-.442-1.881.056-.34.112-.257.246-.336.953-.858.22-.178.138-.146.053-.237-.004-1.565M363.748 384.83l.765-.057.527-.114.164-.322.033-1.33M522.424 383.447l-4.823.043M547.271 381.672l-.115.126-.24.214-.312.203-.548.228-.49.098-.937.111-1.933.103-2.308.268-4.492.34-3.09.044-3.207.02-3.484.102-3.69-.082M517.609 379.553l1.702 1.304 1.547 1.095.33.29 1.236 1.205M375.676 384.546l1.427-.194.315-.095.387-.197.458-.115 2.866-.528M517.601 383.49l-.216.028M517.609 379.553l-.06.874.028.597.092.585.068.814-.048.435-.088.632M360.981 383.91l.124 4.468M362.403 384.028l-.679-.079-.743-.04M363.748 384.83l-.672-.493-.673-.309M384.955 388.486l-1.873.19-2.774.095-2.993.22-.419-.022-.275-.103-.215-.285-.168-.874-.562-3.161M363.748 384.83l-.218 2.755M363.53 387.585l-.027.342M363.53 387.585l-.603.17-1.822.623M363.53 387.585l.772-.116M363.503 387.927l.8-.458M363.503 387.927l-2.356 1M361.105 388.378l-2.213.724M361.105 388.378l.042.549M361.147 388.927l-2.355.903M358.892 389.102l-.1.728M506.204 385.307l-3.11.5-6.382 1.21-4.197.766-4.01.727-2.347.47-.85.138-.988.096-2.86.148-11.345.721-5.054.427M459.828 390.998l2.682-.437.586-.059.734-.047.346.015.885.04" clip-path="url(#p461aad275f)" style="fill:none;stroke:#000"/><path d="m495.84 433.292-1.348-.458-.925-.411-7.955-3.81-9.072-4.095-1.172-.696-.482-.34-.713-.624-.646-.862-.614-1.036-.738-1.51-.19-.395-.22-.335-.398-.463-.202-.316-.114-.26-.055-.19-.052-.254-.1-.585-.1-.331-.214-.66-.495-1.072-.765-1.644-1.802-4.071-.94-2.822-.53-2.345-.403-2.217-.534-10.98M435.152 392.364l7.756-.297 2.838-.17 1.363-.098.937-.12 1.02-.2.603-.065 1.302-.094 1.7-.04 1.405-.015 1.962-.072 1.342-.063 1.049-.031 1.399-.101" clip-path="url(#p461aad275f)" style="fill:none;stroke:#000"/><path d="m455.465 373.195.313 1.248.913 3.75.59 2.594.426 2.142.479 1.913 1.642 6.156M451.944 414.62l-.084-1.651-.096-1.083-.27-1.93-.064-.347-.231-.3-.55-.412-1.523-1.004-1.929-.988-2.383-1.24-.798-.507-1.31-1.099-1.5-1.584-.57-.471-.631-.445-.37-.3-.442-.409-.346-.459-.825-1.193-.937-1.269-.283-.731-.104-.522-.075-.439-.082-.207-.145-.263-.423-.735-.323-.562-.227-.671-.27-1.435M330.366 469.126l1.555.115 2.599.257 3.642.355M334.185 511.046l.414-4.759.694-6.624.279-3.352.303-2.956.207-2.404.558-5.628.685-6.592.351-3.62.486-5.258M331.634 537.227l.446-4.76.494-5.343.686-6.624.415-4.332.51-5.122" clip-path="url(#p461aad275f)" style="fill:none;stroke:#000"/><path d="m326.548 501.86.459.415.813.637.685.454.984.593 1.252.736.482.26.168.154.124.238.653 1.88.733 2.127.475.933.334.411.475.348M324.488 576.719l2.427-5.05.749-1.922.558-1.834.383-1.613.239-1.486.446-3.62.558-5.913 1.1-11.067.686-6.987M358.769 503.354l-.271.395-.414.538-.535.669-.22.36-.158.485-.068 1.372-.16 1.177-.67 2.901-.421 1.819-.264 1.43-.167 1.526-.111 1.952-.128.775-.208.645-.223.434-.418.506-.698.66-1.475 1.115-2.136 1.762-1.442 1.297-1.276 1.051-1.156.988-.86.672-1.237.885-1.267.783-2.344 1.455-2.009 1.154-1.394.893-.463.304-.406.304-.41.376-1.28 1.269-.773.948-.336.325-.406.248-.414.155-.917.245M357.35 570.958l-.574.212-.255.094-.877.38-.642.249-.789.19-1.538.292-1.595.387-1.479.431-1.849.696-2.255.929-.666.256-.57.111-.59.028-1.495-.15-1.303-.139-.781-.146-2.26-.463-1.722-.24-.73-.075-.49.003-.55.087-1.399.368-1.45.38-2.041.569-2.097.608-2.865.704M240.583 593.05l4.081-1.96 2.424-1.076h2.615l3.762-.949 3.38-.885 3.316-.885 1.698-.822 1.228-.625 3.045-1.651 3.037-1.518.805-.308 1.387-.309 1.714-.49.869-.466.797-.51.781-.652.49-.55.283-.304.28-.233.805-.502 1.132-.557.398-.115.403-.055 1.251.035.774.071.534-.02.637-.114 2.882-.652 1.575-.32 1.107-.115 1.842-.134 1.188-.178.661-.11.355-.008.793.102 1.695.26 1.402.266 1.168.154.829.071.558.099.654.221 1.303.506 1.275.454.336.072.374.028 1.16-.072.566.008.534.076.761.13 1.435.158 2.503.3 1.618.103 1.53.04 2.448-.127 1.06-.103.9-.182 1.723-.474 1.387-.435 2.208-.56 2.149-.46M635.03 423.166l-.012-.66v-.474l.06-.443M631.337 419.5l.855.437.82.462.925.57 1.14.62M637.27 422.597l-1.236-.545-.956-.463M626.9 413.07l5.842-2.971.661-.324.236-.036.267.02.279.08.323.155.262.226.176.22.132.285.12.34.33.979.486 1.494.16.58.107.598.084.77-.02.933-.087 1.127-.116 1.233-.096.565-.164.533-.238.53-.26.462-.199.4-.107.32M530.252 539.74l-2.168.712-2.308.885-.374.158-.569.275-.432.278-.614.352-.697.45-.63.377-.805.36-.642.193-.498.04-.359.086-.809.297-1.85.775-1.299.43-1.124.419-.964.218-.558.17-.438.158-.447.047-.422-.032-.375.028-.69.185-.602.261-.35.198-.252.261-.223.336-.283.296-.374.273-.717.352-.595.36-.61.533-.29.297-.331.193-.558.23-.714.229M510.822 436.878l.067 2.375.048 1.672.2 1.632.143.96.35 1.455.144.467.046.257.004.166-.07.41-.355.534-.334.364-.132.217-.056.206-.08.482-.097.84-.01.43.494 3.584M495.84 433.292l.932.15M468.118 486.347l1.925-.842 1.34-.514.725-.205.315-.095.362-.225.255-.241.256-.348.438-.522.956-1.201.694-1.432.35-.932.351-1.447.136-.79v-.395l-.024-.538.016-.585.128-.423.319-.43.175-.214.075-.156.037-.248-.004-.343-.124-.795-.048-1.81.056-.57.151-.489.212-.32.342-.226.435-.173 2.343-.443 2.097-.577 1.666-.696.997-.72 1.02-1.05 1.084-.72 1.45-.53 1.188-.466 1.173-.704 1.29-1.106 1.244-1.312.757-1.257.407-.917.231-.783.28-1.66.23-1.573.168-1.257-.008-.838-.199-1.233-.359-2.119-.184-2.909-.19-3.351-.049-1.992.176-2.625.127-2.024.104-.775.215-.695.43-.83.184-1.384M451.944 414.62l-2.244.855-1.905.719-.534.292-.503.364-.908.814-.67.664-.128.293.086.818.016.27-.078.224-.07.083-.188.134-.168.09-.251.041-.662.08-1.188.046-2.965.143-1.562.553-1.53 1.518-.893 1.391-.447 2.403-.16 1.541-.478 2.064-.008.57.168.378.669.76.702.316 3.125.253 1.849.506 1.275.19 1.403.948.128 1.138-.766 1.897" clip-path="url(#p461aad275f)" style="fill:none;stroke:#000"/><path d="m452.928 425.846.274-.652.049-.15.02-.21-.02-.425-.021-.571-.044-.266-.07-.22-.068-.144-.111-.168-.128-.226-.108-.272-.112-.87-.218-1.834-.104-1.399.008-.632-.096-1.447-.235-1.74M380.826 617.384l-.311-2.265-.255-1.984-.414-3.446-.383-3.284-.04-.913-.012-.669.076-1.094.024-1.25-.016-2.094.032-.68.2-1.486.266-1.525.056-.388-.02-.68-.167-.932-.32-2.214-.04-.9.057-1.526.14-1.371.09-.431.188-.412.71-1.11.378-.664.088-.36.016-.423-.036-.592-.156-.755-.195-1.66-.111-1.17-.096-.4-.131-.308-.296-.395-.517-.53-.391-.572-.75-1.486-.462-1.143-.203-.877-.092-.712-.068-.79-.143-.64-.12-.463.008-.387.096-.562.227-.94.2-1.581.135-.87.287-1.225.16-.814.095-1.352.044-.324-.012-.292-.152-1.629-.255-2.332-.203-1.916-.151-.712-.156-.494-.203-.47-.578-1.15" clip-path="url(#p461aad275f)" style="fill:none;stroke:#000"/><path d="m389.826 551.518-2.248.498-1.682.412-1.53.276-2.36.546-1.73.609-1.554.758-1.228.711-.55.412M358.306 570.6l1.993-.743.578-.241.554-.233.706-.403 1.084-.672 2.937-2.055 1.985-1.486.782-.68 1.562-1.502 1.315-1.367 1.937-2.285 1.021-1.178 1.148-1.154 1.036-.861M475.54 555.522l-1.607.526-2.024.656-.9.292-1.093.522-1.069.72-.878.41-.776.36-.255.186-.295.265-.434.24-.638.163-.817.26-.458.131-.57.115-.738.17-.561.23-1.95.853-1.777.711-.662.237-.717.174-.646.119-.574.158-.813.348" clip-path="url(#p461aad275f)" style="fill:none;stroke:#000"/><path d="m440.334 533.29.446.98.582 1.06.79 1.003.629.901.909 1.447.677 1.06.694.94.557.482.375.11.638.072 1.427-.11.948-.261.841-.309.993-.134 2.097-.067 2.351.114 1.825.095 1.324.198.761.348.41.347.275.388.092.525-.032.657-.175.442-.331.352-1.064.553-1.292.577-.51.28-.293.287-.2.364-.056.361.047.913.064 1.653.056 1.312-.064 1.027-.327 1.938-.08 1.612-.422 1.723-.136.514-.143.561-.439 1.23-.195.648-.104.545.04.77.156.586.813 1.984" clip-path="url(#p461aad275f)" style="fill:none;stroke:#000"/><path d="m464 592.117-.198-1.241-.495-1.96-.733-2.672-2.264-7.47-1.1-2.806-.287-.878-.096-.466-.103-.861-.291-.973-.37-1.114-.312-1.36-.183-.72-.821-2.418-.319-1.225-.39-1.013-.36-.758-.39-.814M483.395 554.57l1.268-.53M483.395 554.57l.87.798M475.54 555.522l1.582-.517 2.017-.34 2.638-.103.503.007.645.072.24-.012.23-.06M484.663 554.04l2.009-.743.686-.277.446-.086.386.043.547.25.785.114.817-.107.833-.13 1.235.02 1.14.11.714.186.189.136.156.19.308 1.014.124.971.084.345.187.28.28.261.816.656M501.108 560.487l-.442.102-.487.075-.386-.028-.402-.173-.475-.4-.948-.9-.918-1.218-.645-.672" clip-path="url(#p461aad275f)" style="fill:none;stroke:#000"/><path d="m484.264 555.368.049.593.183.434.359.42.334.023.486-.15.51-.277.36-.173.31-.004.558.22 1.292.463.43.254.2.228.095.261.072.42.191.355.367.253.67.273.398.06.642-.155.905-.49.533-.213.363-.091.502.02.539-.076.777-.277 1.016-.466M470.346 590.306l2.049-.885 2.942-1.351 3.052-1.47 1.874-.949 1.187-.735.447-.443.31-.616.335-.933.176-.617.128-.442.263-.34.541-.32 2.017-.708 1.045-.324 1.331-.245.526.047.407.167.406.252.414.688M464 592.117l.894-.577 1.945-1.17.597-.368.586-.276.479-.083.227.035.235.095.786.387.294.131.303.015M417.667 547.55l.103.332.143.94.132 1.487.128.901.19.783.169.407.08.336.015.347-.172 1.083-.051.55.028.419.084.347.107.526.036.562-.096.715-.043.553-.028.905-.053.368-.374.98-.546 1.032-.204.537-.051.383.02.258.072.347.442 2.08.454 2 .367 2.023.103 1.185.049.878-.024.573-.076.332-.148.297-.542.734-.191.376-.008.19.044.221.367.502.095.233.004.218-.084.237-.29.81-.1.395.004.514.112.57.167.564.394.712.602.755.682.762.279.34.582.81.458.477.275.158.341.16.704.306.595.186.164.078.128.102.081.11.143.408.22.885.23.936.021.4-.08.403-.1.28-.207.277-.414.415-.252.289-.143.308-.024.363.064.34.191.403.144.258.347.316.374.126.514-.023.383-.012.235.114.132.222.111.399.67 3.975.59 2.214.303 1.462.287 1.518M427.775 601.638l-.459-1.348-.144-1.233-.047-.245M424.486 600.345l.765-.205.933-.387.606-.49.335-.45M551.352 346.683l-15.121 2.008-19.38 2.617M503.24 353.236l2.747-.324 10.865-1.604M517.609 379.553l1.02-2.656.256-3.162.7-2.53 1.66-3.352.829-1.39 1.274-3.163.957-2.593.765-1.771.957-3.099 1.34-1.77.063-1.835-.893-.379-1.467 1.075-2.423 1.265-1.977.19-1.722-.506-.893-.759-1.203-1.81M551.352 346.683l17.889-2.522M573.787 361.932l-.333-.186-.706-.45-.49-.415-.423-.395-.859-1.004-.476-.71-.605-1.128-.048-.19v-.198l.04-.24.14-.787.23-.907.056-.346.024-.318.028-.362.016-.824.015-.959.009-.415-.04-.419-.208-1.09-.462-2.68-.152-1.17-.07-.76-.097-1.146-.135-.672M573.787 361.932l1.121 1.404M504.99 372.956l1.192.115.817.063.55.126.351.18.313.23.233.108.28.072.274.011.514.048.3.067.246.087.646.4.618.493 2.455 1.751 3.83 2.846M504.99 372.956l-.151-.7-.255-1.754-.43-1.77-.252-.78-.112-.318-.162-.366-.67-1.399-1.036-2-.375-.854-.044-.373.02-.231.056-.416.135-.987.16-.989M498.207 353.869l.486 1.107.201.256.536.477.913.658.645.553.271.317.2.324.247.909.104.6.063.949M503.24 353.236l.49 1.356.18.63.028.335.014.15.002.166-.018.136-.05.133-.189.308-.112.19-.328.513-.232.416-.23.569-.2.6-.22.665-.075.19-.13.166-.297.26M498.207 353.869l5.034-.633M452.067 360.3l13.488-1.617 6.465-1.051 12.571-1.905 13.616-1.858M455.192 372.114l-.526-1.731-.638-2.72-.215-.703-.486-1.763-1.26-4.896M455.192 372.114l.273 1.081M455.192 372.114l1.332-.177M420.823 477.32l.403.007.77.123.8.265.693.186.526.087.575.007.805-.035.63.056.892.225 2.284.609 1.483.244.486.142.646.297.566.344.606.526.239.399.26.608.055.823.06.521.167.309.235.182.378.122.375-.063.363-.162 1.347-.637 2.109-.79 2.132-.605 1.18-.41 1.255-.313.638-.269.722-.38 1.086-.651 1.05-.534.885-.435.956-.36.542-.26.678-.416.43-.209.538-.15.834-.182 1.267-.237.996-.071.542-.107.499-.269.73-.462 1.346-1.1.59-.446.801-.316.339-.109.275-.022.295.016.63.233.486.218.14.14.107.163.12.523.163.28.28.25.207.221.167.265.16.356.143.861-.064.38-.163.36-.34.478-.167.343-.14.267-.122.315-.068.379-.028.617.083.676.013.395-.096.774-.132.933.004.328.062.214.118.148.372.187 1.322.182 1.183.012 2.228-.268.94.122.527.198.39.387.204.344.12.324.06.328.027.996M469.573 505.734l-.048-1.976-.972-12.72-.435-4.69M391.372 409.182l1.97-.617 1.075-.292 1.173-.166 1.426-.237 1.148-.206.406.028.248.119.211.217.311.775.917 1.806.466.929.642 1.016.546.798.618.703.617.566.463.286.279.208.23.249.46.687.713 1.048.514.691.367.349.294.316.251.316.574.881.594.795.255.273.2.166.239.148.72.24.262.092.307.132.218.121.362.272.232.23.228.26.178.267.538.823.458.976.39 1.103.224.573.75.616.298.319.204.268.674.666.456.431.113.208-.02.192-.083.12-.242.123-.336.112-.311.212-.446.392-.242.294-.072.209-.03.205.164.455.26.351.358.384.344.358.12.147.026.163-.124.455-.203.616v.482l.128.55.53 1.233.12.644.382 1.071.602 1.455.805 2.051.997 1.613.7 1.051 1.595 1.874.71.814.502.597.25.43.16.503.076.691.008.534-.105.604-.194.495-.354.597-.212.39-.115.365-.02.283.051.274.152.34.234.316.22.158.36.103 1.315.114.561.056.65.162M384.955 388.486l.423 1.368.598 1.739.231 1.051.933 5.147.303 1.493.08 1.408.07.782.112.704.311.565.706.921 1.064 1.238.207.323.271.724.375 1.296.733 1.937M405.785 466.58l-.443-.232-.13-.1-.1-.185-.02-.316.07-.783-.007-.636-.08-1.352-.342-3.225-.455-4.735-.111-2.894-.176-1.225-.701-4.205-1.22-6.253-.319-1.392-.223-.75-.35-.79-1.18-2.507-1.212-2.498-.821-2.103-.94-3.138-1.89-6.222-1.307-4.047-1.834-5.58-.622-2.23M405.785 466.58l.095 1.7-.04 1.423-.151.87-.255.861-.446 1.479-.048.711.175 3.794.383 3.779.064 1.123-.08 1.517-.303 2.64-.016 2.103.335 2.972.111 1.17.144 1.376-.096 1.945-.27 2.26-.288 3.13v2.167l-.127 1.09-.478 1.787-.925 2.198-1.212 3.256-.75 2.45-.525 2.135-.303 1.344-.494 1.565-1.196 2.75-1.786 4.427-1.45 3.51-1.356 3.273-1.34 3.667-.86 2.625-.319 1.012-1.132 3.304-.175.68-.845 6.845" clip-path="url(#p461aad275f)" style="fill:none;stroke:#000"/><path d="m417.667 547.55-.2.23-.243.158-.542.182-.77.343-1.498.826-.861.344-.486.095-.992.115-.73.098-.705.202-1.073.478-2.957 1.55-1.044.517-.574.19-.435.06-.482.003-.754-.165-2.351-.894-1.084-.316-1.148-.253-2.08-.332-2.176-.221-.87.023-.877.095-2.91.64M415.141 373.694l-.272-3.776M414.869 369.918l3-.199M385.012 374.266l.131.944M385.454 372.68l-.26.07-.207.072-.107.098.132 1.346M389.188 374.763l-1.31.145M385.143 375.21l2.735-.302M413.8 480.762l-.562-.379-.375-.502-1.283-2.747-1.347-2.57-2.144-4.323-1.304-2.66-.298-.53-.24-.213-.462-.257M420.823 477.32l-.314.067-2.193.838-.825.331-1.008.46-.821.45-1.068.774-.794.522M441.502 520.05l-1.814-.704-.75-.348-.614-.522-.398-.569-.343-.845-.16-.941-.15-.407-.268-.423-1.223-1.407-.51-.767-.535-.541-1.028-.66-.653-.49-.618-.827-.642-.743-.307-.292-.494-.324-2.073-1.071-.562-.309-.518-.344-1.706-1.442-.502-.451-.377-.458-.26-.445-.67-1.508-.415-.707-.41-.628-.487-.704-.426-.625-.479-.949-1.562-3.573-1.196-2.64-1.203-2.426-.439-1.071-.087-.368-.009-.372.088-1.153-.008-.582-.143-.652-.765-1.92-.694-1.98-.319-.606-.299-.387-.394-.316-1.28-.79M515.728 489.023l-.323.708-.885 1.806-.394.632-.231.577-.116.561-.052.586.096.49.187.426.546.874 1.1 1.68 1.555 2.434 1.538 2.672 2.551 4.15 1.905 3.107.258.387.145.391.06.435-.036.609-.068 1.364.006 2-.038.861-.167 1.107-.088.9.08.886.127.949.2.648.159.743.056.767-.088 1.494.072.782.167.546 4.64 12.37.605 1.376.407.672.55.727M583.917 515.014l-.622.427-.32.375-.29.475-.303.557-.55.514-.993.608-1.594.878-1.315.656-1.188.688-1.463.622-2.06.793-4.6 1.534-.602.165-.63.087-.325.064-.296.114-.323.213-.487.407-.741.384-1.048.304-1.144.218-.713.177-.59.277-.618.364-2.089 1.075-1.562.506-2.312.632-.988.36-.618.249-.403.186-.406.173-.487.238-.617.213-.941.202-1.032.233-2.276.747-.28.119-.182.126-.208.206-.095.225-.088.49-.231 1.403-.044.407-.103.43-.2.31-.47.363-1.395.695-1.132.499-2.643.992-.275.055-.25-.016-.28-.091-.31-.17-.647-.395-.23-.035-.347.031-.482.237-.638.38-.483.521-.263.34-.39.317-.757.434-1.109.435-1.188.332-1.012.19-1.387.181M515.728 489.023l-.447-.265-.498-.174-.757-.04-1.28-.023M508.868 485.236l.847 1.704.168.265.195.207.489.368.394.207.905.407.395.075.486.052M516.58 486.836l-.98.432-2.853 1.253M516.58 486.836l-.219.416-.163.387-.199.625-.27.759M553.788 449.763l.662 2.64.135.423.128.336.167.241.419.49.925.949 1.052 1.328 1.211 1.17.47.608.208.506.055.633v2.11l-.024.325-.023.552-.032.547-.048.418-.08 1.455-.015.442.087.182.423.277.422.193.279.194.147.163.14.244.008.305-.088.356-.072.17-.143.422-.08.443.056.545.255.641M557.674 447.767l-.634.672-.33.252-.483.27-.434.201-1.164.336-.84.265M551.26 450.36l1.452-.297 1.076-.3M557.674 447.767l.43-.424.425-.359.297-.186.55-.268 2.037-.96M569.328 443.712l-2.359.79-1.324.561-.908.261-.805.15-1.443.071-1.076.024" clip-path="url(#p461aad275f)" style="fill:none;stroke:#000"/><path d="m556.056 445.419.827-.056 1.844.033 2.686.173M556.056 445.419l.418.474.375.463.343.502.482.909M519.63 480.015l.726-.273.593-.086.985.011 1.16.028 3.57.126.806-.031.271-.127.14-.158.11-.201.05-.352.03-.826-.17-2.265-.128-2.308-.024-3.28.024-.751.072-.617.127-.589.223-.62.486-1.052.447-1.138.406-1.012.327-.482.463-.435 1.038-.664.73-.401.337-.123.894-.243.357-.067.462-.024 1.529-.108 1.805-.216.41-.024.545-.004 1.682.04.59-.044.4-.06 1.983-.43 1.471-.336.618-.178.31-.122.328-.293.43-.435.196-.32.258-.56.191-.74.726-2.925.076-.715.04-.53.111-1.011.291-.898.28-.652.113-.17.193-.146.977-.394 1.566-.425M549.56 446.462l.434.475.25.355.244.498.31.937.22.672.243.96M516.58 486.836l.264-.461.55-.775.422-.696.367-.446.373-.306.4-.232.4-.205.143-.178.08-.273.063-.474.016-.866-.032-1.185.004-.724" clip-path="url(#p461aad275f)" style="fill:none;stroke:#000"/><path d="m508.868 485.236 4.64-2.185.594-.4.622-.454.641-.383.594-.246 1.579-.616 1.279-.59.813-.347M469.573 505.734l2.352-.451 2.877-.616 2.806-.79.682-.116.59-.039.582-.087.558-.162.355-.158.526-.174.769-.198 2.1-.45.702-.309.645-.41.997-.775.817-.838.554-.383.554-.317 1.009-.691 1.57-1.32.845-.874 1.339-1.514 1.311-1.454.51-.585.375-.411.335-.289 1.391-.929 1.901-1.13 1.877-.996 1.77-.846 3.902-1.83 1.674-.838 1.02-.518M441.502 520.05l.362-.64.781-.965.654-.49.71-.293 1.219-.332 1.052-.371 3.58-1.518 2.423-.799 1.945-.663 7.278-2.593.924-.42.614-.355.997-.87 4.121-3.47.494-.296.383-.139.534-.102M439.154 531.085l.14-.878.465-1.55.797-2.102.598-2.024.24-1.232.031-.76-.063-1.13-.032-.573.064-.47.108-.316M437.974 532.508l.59-.498.195-.21.22-.293.175-.422" clip-path="url(#p461aad275f)" style="fill:none;stroke:#000"/><path d="m440.334 533.29-.447-.846-.406-.735-.327-.624M437.974 532.508l.526.079.43.118.447.158.422.158.535.269M417.667 547.55l.258-.51.18-.26.195-.21.375-.213 1.45-.672 2.097-.941 1.443-.672 2.24-1.225 1.036-.72 1.005-.971.948-1.123.885-.917 1.937-1.89 1.02-1.2.686-.744.55-.482.558-.284.805-.222.757-.364.902-.79.98-.632M357.35 570.958l.956-.358M357.667 571.486l-.092-.176-.088-.15-.137-.202" clip-path="url(#p461aad275f)" style="fill:none;stroke:#000"/><path d="m358.306 570.6-.41.457-.117.195-.112.234M549.56 446.462l2.67-.545 1.496-.221 1.7-.23.63-.047M510.822 436.878l2.498 1.296 2.002 1.213.442.227.319.127.53.097 1.004.064 1.898-.017.438.04.16.045.17.165.284.28.239.423.486.984.151.42.12.6.622 2.767.191 1.004.694 4.98.103.636.112.368.112.152.235.156.506.166 1.331.23.355.02.279-.04.522-.194.486-.237 1.284-.411.98-.293 1.554-.486 1.292-.304.498-.184.339-.196.343-.316 1.276-1.609.222-.24.164-.096.25-.103.806-.3 3.149-.988.494-.126.606-.072.59-.023.566.055 1.913.459.714.103.342.01.642-.078.662-.178 3.762-1.012M496.772 433.443l.777.176.37.14.256.11 1.1.613.315.15 1.223.483 1.953.585 1.543.367.621.087.575.02h.916l.97.091 1.736.206.834.13.86.277M517.385 383.518l.735 2.462.247.917.263 1.075.374.783.407.854.24 2.023.23 1.178.271.593.646 1.13.215.767.056.949-.024 1.218-.008 1.865.016 1.273.112.49.294.62.662.795 1.768 1.789.22.22.095.147.11.354.119 2.043.104 1.044.406 2.435 1.148 3.161-1.722 3.352-1.722.696-1.785.19-1.85.695-5.548 2.34-2.017.807-.885.328-.593.28-.49.27-.4.268-1.155.862-1.272.893-.753.687-.686.855-.362.494-.223.213-.646.415-1.12.826-.813.58-1.658 1.037-2.06 1.47-1.145.878-.127.19-.12.252-.083.328-.084.534M569.328 443.712l2.624-1.28M571.975 447.727l-.988-1.612-.83-1.17-.829-1.233M583.916 514.469l-.048-.45-.111-.878-.43-2.649-.367-2.094-.359-1.597-.375-1.249-.622-1.518-1.163-2.869-.94-2.933-.599-1.573-.43-.838-.574-.759-.933-1.004-.972-.798-.598-.577-.622-.72-.398-.64-.495-1.185-.486-1.969-.224-1.423-.087-1.802.16-1.028.319-.9.533-.823.694-.656.622-.593.346-.316.208-.36.116-.581-.072-.711-.168-1.4.064-1.217.111-.917.2-1.027.279-1.147.175-.909-.02-.695-.091-.656-.192-1.779-.103-.368-.112-.22-.235-.238-.307-.23-.176-.296-.087-.308-.032-.704-.032-1.13.056-1.786v-1.028l-.088-.656-.677-5.36-.16-1.795-.087-1.21-.04-.505-.128-.695-.143-.514-.271-.649-.494-1.027-1.276-2.783M571.952 442.432l.09.88.092.637.046.525.022.269.008.53-.076.917-.159 1.537M583.917 515.014l-.001-.545M588.061 563.664l-.02-.482-.067-.403-.088-.38-.048-.38v-.35l.044-.416.068-.557.044-.474.008-.621-.104-1.988-.02-.32-.051-.283-.132-.312-.191-.324-.387-.49-.14-.217-.063-.21.001-.229.094-.216.136-.191.247-.255.13-.166.07-.172.02-.216-.037-.233-.065-.278-.038-.254-.04-.322-.012-.347-.04-5.336-.032-.6-.08-.669-.17-1.177-.192-.913-.255-.957-.49-1.466-.122-.437-.106-.468-.064-.509-.04-.67-.056-.509-.127-.47-.247-.66-.363-1.25-.235-1.015-.048-1.087-.179-.779-.203-.387-.351-.273-.41-.23-2.229-.88-.406-.234-.363-.24-.335-.313-.175-.273-.096-.348-.008-.355.136-.49.223-.668.068-.478.024-.652.147-.613.176-.364.51-.656.486-.565.41-.289.519-.26.63-.475.326-.387.12-.352.063-.502.004-1.118-.075-2.005.04-1.833.103-1.81.009-1.542M626.9 413.07l-.344-.536-1.068-1.494-1.714-2.356-2.04-3.036-.687-1.28-1.195-2.332-.598-1.21-.28-.375-.298-.19-.422-.158-.455-.08-1.634-.165-2.363-.313-2.503-.577M629.513 417.704l1.824 1.796M626.9 413.07l.485.76.996 1.874.46.873.341.597.33.53M628.35 418.894l.605-.637.558-.553M635.03 423.166l.287-.241.263-.154.366-.099.459-.051.864-.024M628.35 418.894l1.092.142.805.126.542.123.548.215M571.952 442.432l3.415-1.503 5.903-2.704 7.174-3.312 2.456-1.146 2.51-1.257 1.61-.846 1.14-.68 1.132-.885 1.635-1.32 2.32-2 .988-.799 1.108-.818 3.619-2.478 1.172-.79 1.112-.652 1.53-.795 1.423-.807.45-.209.503-.142.61-.071 1.052-.08.884-.11.826-.134.933-.194.932-.162.953-.11 1.048-.08 1.423-.083 1.072.024 1.144.134 4.32.47M239.632 593.898l.951-.848M107.03 372.475l1.354 3.916 1.913 2.53.255 3.668-.255 3.541-2.679 3.289-5.102 2.403-1.785 2.91.765 2.782 3.189 2.15 3.189 1.897.51 2.403M130.246 362.661l-3.844.909-3.4 1.534-5.301 2.46-2.334 1.333-5.297 2.653-3.04.925M116.415 475.293l.387 2.41 1.275 3.036 1.658 3.92 1.275 2.53 1.276 4.3v4.68l-.128 3.162v2.782l1.148 3.921.638 2.656v4.174l-.127 3.668-1.659 2.909-.255 2.53.255 3.667-1.275 4.047-4.591 6.45-2.042 4.3-2.04 4.934-1.276 4.805-3.06 3.921-1.914 1.518-1.913 3.92-1.658 6.704 1.02 4.3 2.296 4.3.383 7.336M173.048 451.269l-3.188.252h-1.786l-2.806-1.011h-3.443l-3.444.632.128 3.415 1.02 3.289-.765 2.276-2.169 1.771-2.295 1.77-2.934 1.645-3.444-.127-3.443.38-13.52 2.783-3.571.885-3.826 1.77-4.72 3.036-2.427 1.258M234.852 502.629l-6.832 3.279-3.189 1.011-5.612.506-5.101 1.139-3.954 1.897-5.23 2.53-3.953 1.517-2.934.253-5.102.253-3.57 1.391-2.296.253-3.954 1.77-2.934 1.519-2.296 1.012-4.464 1.011-4.081 1.898-1.02 2.276-3.189 1.77-.383 1.266-.765 3.667-3.189-.758-1.402-1.265-1.404-1.265-3.316-.633-3.443 1.012-2.424 2.15-2.168 4.427-.638 3.162-.255 2.53-.255 3.414M262.178 522.073l-2.272-5.035-1.913-1.518-4.336-.126-3.444-1.012-1.148-2.656-.128-3.29.383-3.414.255-3.288 1.275-2.53 2.296-1.517 1.403-3.668 1.817-5.224M279.939 449.933l-.248 2.268-.199 2.364-.096 1.21-.087.83-.096.94v.586l.104 1.035-.127 1.36-.12 1.011-.311 1.692-.307 1.712-.16.94-.426 2.28-.447 2.46-.35 1.73-.092.257-.171.254-.16.228-.068.166-.015.158.08.155.139.162.076.166.044.51-.136 1.02-.175 1.185-.271 1.929-.192 1.77-.215 1.882-.072.712-.04.735-.087.569-.096.17-.183.177-.264.12-.278.05-.415-.023-1.084-.154-1.028-.123-1.112-.118-1.029-.028-.785.127-.813.26-2.009.854-1.674.585-2.28.616-1.06.325-2.08.648-3.158 1.1M234.852 502.629l4.264-1.528 3.572-3.414 3.188-2.024 4.847-3.162 4.081-3.162 1.562-.544M262.178 522.073l-1.506 1.541-1.53 2.024-3.7 2.087-1.785 1.265-5.039 7.273-.063 2.466-2.36 3.225-.83 1.834 1.468.885-.064 1.644-.957 1.644-2.55 5.692-1.212 1.39-2.55 2.467-1.34 2.213-1.467 5.376v3.035l1.34 7.146.254 2.023.51 2.15 1.085 2.024.893 1.898.956 2.086.064 1.96-.064 1.644-1.148 3.985" clip-path="url(#p461aad275f)" style="fill:none;stroke:#000"/><path d="m284.37 510.611-1.02.388-.586.272-1.26.7-2.071 1.031-.443.253-.171.174-.136.202-.399 1.008-.258.399-.188.21-.187.126-.459.214-.956.347-1.009.308-1.14.45-1.462.523-.57.229-.622.265-1.172.51-1.283.478-.797.348-2.687 1.249-1.26.592-.772.388-1.284.798M297.07 503.58l-.443.166-.33.217-.328.293-1.291 1.39-.398.57-.367.372-.638.387-1.523.696-3.61 1.493-1.388.625-2.383.822M288.667 506.224l-.55.11-.346.143-.256.158-.33.423-.67 1.126-.382.76-.18.276-.334.36-.734.557-.514.474M284.196 401.862l-8.992.798M279.811 406.898l-.105-.37-.006-.439.123-.33.207-.324.435-.372.821-.671 1.307-1.044 1.603-1.486M280.134 447.984l.857.968.693.673M317.385 470.107l-.67.395-.594.292-1.1.372-.932.19-1.092.062-.957.009h-2.654l-.957.007-.622-.063-.55-.102-.79-.23-1.028-.332-1.905-.372-1.51-.39-1.918-.672-.378-.186-.47-.313-.168-.233-.068-.253.287-2.774.183-2.182-.063-.6-.16-.412-.35-.309-.813-.403-2.718-1.2-2.575-1.227-1.563-.908-1.18-.815-.852-.6-1.117-1.091-3.866-3.755-2.55-2.387M279.939 449.933l.432-.293.267-.069.267-.01.325.004.454.06" clip-path="url(#p461aad275f)" style="fill:none;stroke:#000"/><path d="m279.811 406.898.59.735 1.698 2 .829 1.075.231.909.048 1.336-.184 2.932-.757 5.447-1.466 10.743-1.54 12.735-.079.672.072.743.2.68.681 1.08" clip-path="url(#p461aad275f)" style="fill:none;stroke:#000"/><path d="m279.939 449.933.083-.692.088-.672.024-.585M238.989 513.496l-.893-4.553-.51-2.403-1.786-2.782-.948-1.129M200.725 487.062l3.954.38 7.27-1.771 4.082-.885 2.296 1.77 5.74 6.578 3.953 2.403 2.04 2.402 1.66 2.53 3.132 2.16M173.048 451.269l.893 4.806v2.783l.255 3.794 1.148 5.186.383 4.174.637 3.161 1.148 3.795 1.786 3.92.765 2.277 2.296 2.024 3.699 1.39 3.954-.125 5.867-.76 4.846-.632M220.962 410.943l-4.23 2.95-.765.537-1.37.032-1.659.601-1.626 1.803-1.403 2.15-2.551 3.288-1.403 2.783-1.02 4.174-.256 3.668 1.276 5.565.51 4.806 2.296 4.048.893 3.415-1.276 2.656-1.275 4.3-3.572 8.348-1.275 3.288-.51 3.415-.128 4.554-.51 3.667-.383 6.071M275.204 402.66l-22.695 3.012-2.327.402-2.584.61-3.799 1.002-16.361 2.439-3.627.512-2.849.306" clip-path="url(#p461aad275f)" style="fill:none;stroke:#000"/><path d="m202.232 398.266 3.787 6.078 2.699 2.482 2.728 1.886 2.59 1.092 2.574.69 2.23.382 2.122.067M279.376 228.293l-5.695-8.367-1.977-2.277-1.658-4.491-1.148-2.91-3.252-5.249-3.253-6.767-3.125-6.072M279.376 228.293l-.816.076M361.272 236.117l-.83.094-.414.158-.434.437-.554.417-.797.032-1.945-.285-2.233-.442-.988-.159-34.245-4.617-29.144-2.972-8.737-.633-1.575.146M438.058 129.84l-.616.73-28.112 12.284-2.945 1.503-2.86 1.252-1.188 1.634M278.56 228.369l-2.201.41-2.678-.379-6.25 1.266-5.74.126-5.611 1.897-5.612 2.656-7.653 2.15-4.72.76-3.825.126-2.55.253-2.297.886-2.806-1.771-4.464.38M287.826 294.577l.013-1.825.669-3.067.893-1.897 1.945-1.898-.319-1.802-1.116-1.265-.287-.918.447-2.719.223-1.612-.734-1.139-.956-1.644.063-1.582.16-1.2-.16-1.487-.287-1.36.67-1.518 1.052-4.712.35-2.688-.158-1.96-.383-2.53-.893-4.332-.924-2.087-1.563-2.657-.956-1.96-.479-1.139-1.945-4.237-.67-2.214-1.052-2.688v-1.77l-.67-1.487-1.211-1.043-.765-1.392-.223-.38M255.76 336.548l1.882-2.277.064-1.802-.478-1.36.86-1.36 1.212-.157 2.647.22h5.357l2.073-.473 1.02-.696 5.994-3.542.51-1.296 1.946-4.364.573-.57 2.68-.537 3.188-.348.86-.284.83-.222.342-.474-.263-1.494-.327-2.656-.071-1.336.031-3.147.016-5.265.176-5.708.191-1.644.255-.885.498-.294" clip-path="url(#p461aad275f)" style="fill:none;stroke:#000"/><path d="m394.937 242.978-1.396.38-7.717-.031-7.684-1.993-5.261-.632-4.114.6-8.545 3.574-2.073 2.15-1.243 4.08-1.052 2.466-1.308 1.613-.925 1.107-.031 1.075-.224 4.712.606 1.866.383 1.359.095 1.296-.829 2.53-.829 1.012-.606.98-.095 1.898-.191 1.803-1.02 1.296-2.36 4.174-1.403 2.024-.83.759-1.084.158-1.658.506-1.913.948-4.815 2.056-2.04 1.233-2.615 1.455-2.264.79-1.754-.695-3.124-.76-2.296-.315-1.85.822-2.136.537-.51.79-1.244.38-1.18.696-.797.443-1.626.347-.829.696-1.084.664-1.371.411-6.855.443-1.659-.601-2.168-.032-4.24.032-6.824.19-.523.307M350.973 293.922l32.269-3.668h4.08l3.572-1.012 1.785-2.024 2.552-1.138 4.336-.38 3.444-.126 2.933-.126 1.53-1.392-1.02-2.53-.765-2.656-1.786-2.783-1.657-1.012-.893-2.403-3.7-1.771.128-4.427-.382-3.668-2.04-1.265-1.276-1.392-.255-3.668.637-8.348.472-5.155M255.76 336.548l.766 2.72.192 1.707.893 2.214 1.402 2.34 2.105 1.138 3.188.253 5.23-1.012 2.423-.126 2.614-.19 2.87-.822 3.7.759 4.974 1.77 1.849 1.96 1.148 2.594.957 1.012 1.912-.127 7.908-.632 3.826-.442 2.552-.507 2.503-.087M302.06 328.074l5.85 4.783.232.284.176.336.194.28.419.301.71.427.47.292.422.546.965 1.636.339.657.15.387.037.261-.104.292-.215.27-.956.466-1.46.56-.21.275-.2.702-.072.787-.028 1.921-.17 6.028.163 1.505" clip-path="url(#p461aad275f)" style="fill:none;stroke:#000"/><path d="m231.627 352.45 1.75-1.166.446-1.898v-4.427l1.404-1.96 1.785-1.202 2.168-.38 2.423.064 2.552-.632 2.933-1.581 1.594-1.392 2.041-1.58 3.252-.697 1.786.949M159.478 210.572l.242.499 6.76 9.107 1.148 1.961 2.487 2.53 1.34 1.455 1.593 3.542 7.27 11.21M231.627 352.45l-.865-1.545-1.275-2.34-1.02-2.467-.447-3.794-.128-2.34v-2.847l-.956-.632-3.444-.19-1.02-.632-.574-2.214-.957-1.77-2.36-1.771-10.011-6.514-2.487-2.404-6.57-6.766-1.785-.57-2.614-1.138-2.615-1.329-1.34-1.39-.892-.95-1.02-1.454-.83-.126-1.658.063-1.785-.506-2.04-.76-.51-1.2.573-1.772 1.084-1.707 1.594-1.834 1.02-1.581 1.276-1.392 1.02-1.77.064-7.716.064-3.036.446-2.15 1.34-1.265 1.594-1.265 2.232-1.708 1.084-2.023-.127-2.594.638-2.213.956-1.898-.064-1.707-.382-2.024-.702-1.834-10.459-14.8-5.357-7.7" clip-path="url(#p461aad275f)" style="fill:none;stroke:#000"/><path d="m166.13 239.452 1.976-.569h.383l.207.127 1.77 4.475.127.22.24.19.398-.047 9.087-2.972M205.892 374.628l3.124-1.399 2.105-.949 10.841-3.289 3.826-1.454.319-1.138-1.212-9.044 3.635-2.593 1.722-1.265 1.375-1.047M202.232 398.266l3.13-15.004.634-3.393.182-2.861v-1.186l-.052-.662-.234-.532M177.512 365.075l2.976.103 3.214.45 2.58.866 2.78 1.276 4.75 2.658 3.617 1.537 2.021.6 5.1 1.485.736.238.606.34M130.246 362.661l-1.073-14.223-1.275-5.312-.127-4.554 1.657-4.427 2.04-4.174 3.445-4.806 4.081-3.922 1.276-2.91v-5.5649999999999995l-1.658-6.324-1.149-4.047-.765-5.313M177.512 365.075l-3.678-.867-10.128-1.003-4.117-.57-4.078-.252-3.803-.344-7.07-.542-7.541-.331-6.85 1.495M457.074 124.076l8.497-.602 8.418-.443 3.89-.506 14.285-1.581 12.18-.632 3.19-.127 3.507-.696 3.252-.506 3.444-1.012 2.04-.569 1.914-1.708 1.467-1.707 2.997-1.392 1.722-.886 2.55-.063 1.722.633 1.212.19 2.168-.696 1.53.126 1.212.95 2.487.505 2.487.443 1.085 1.328 1.594 1.645 2.55 1.201 2.87 1.139 2.998.316 3.125-1.202 3.06-1.328 8.036-3.29 2.169-.821 2.167-1.835 1.404-.632 1.403-.569 1.339.316 1.658.443 1.34-.317 1.657-.758 2.04.253 1.914.063 1.85-.632 1.658.822 1.467 1.328 2.805-.063h3.635l2.296.632 3.508 1.265 2.113-.077M617.03 112.848l-2.232-.822-2.87-.696-2.232.506-3.38 1.138-1.33.05M606.89 129.166l-.893 1.834-.892 1.771-1.212 1.392-1.53 1.834-1.467 2.087-.51 2.846-.83 5.44-2.742 5.945-1.53 2.972-2.934 4.744-2.168 3.668-1.913 4.238-1.722 3.605-1.85 2.846.383 4.807.191 2.593-.255 3.035-1.913 1.329-2.296.38-2.614 1.011-1.467 1.076.127 1.96.83 3.48 1.084 4.869 1.402 3.921 1.397 4.874" clip-path="url(#p461aad275f)" style="fill:none;stroke:#000"/><path d="m594.327 204.114-1.977.76-4.655 1.074-6.13 1.775M488.532 265.47l.954-.387 1.785-1.075 2.36-.38 3.507-1.328.893-.886 1.85-.442 5.994-2.277 1.212-.38 1.276-.063 1.274-.506.702-.506.51-.695.255-1.518 1.914-2.657 1.02-1.644 1.02-1.771 3.253-4.49 1.786-2.214 1.084-1.328.51-1.328 4.017-5.376 2.169-2.72 3.954-2.72 1.722-1.074 3.89-1.898 3.762-1.518 1.212-1.201 1.403-1.265 1.53-.696 2.934-.569 2.678-.316 2.105-1.265 1.466-.57 1.913-.948 1.403-.696 2.679-.949 2.36-1.138 1.913-.695 2.678-.696 2.487-1.392 3.763-1.201 2.933-1.14 3.827-1.517 1.077-.312M447.935 287.907l-.57-2.43-.926-3.422-1.178-3.922-2.945-3.672-3.45-2.253-2.02-2.67-.815-.917M452.626 197.916l-.192 2.72-.765 2.087-1.722 3.099-1.722 3.289-1.212 2.782-.765 2.53-.319 2.214-.255 3.099.192 3.162.574 2.34-.383 4.111-.83 2.277-.126 1.77-.065 1.456-.701 2.023-1.658 2.593-1.339 1.392-.191 1.391.255 1.644-.575 1.835-1.594 4.174-1.084 1.328-2.168 1.392-1.34.885-1.21 2.024-1.404 1.518-.447 1.391.575 1.834.637 1.265v1.391l1.34 1.139 1.211 1.075.32 1.138.368 2.337M394.88 242.03l-.414-.57-.415-.885-.204-1.415.252-2.837.085-4.84.336-9.68 1.038-6.863M452.626 197.916l-4.018 1.518-1.913.379h-1.53l-2.106 1.012-3.124.253-2.232.696-2.04 1.265-2.807 1.202-2.55.822-2.233.19h-2.296l-3.634-.57-2.934 1.075-2.806.822-1.913.38-3.954-.127-2.997-.379-3.508.253-2.232.632-2.487.57-.893.57-.447.884-.382 1.139-.957 4.364-1.075.074M464.168 193.615l-2.423.38-2.87 1.264-1.467.19-2.295.823-2.487 1.644M491.578 216.613l1.415 1.036 2.36-.38 2.678-2.656 1.02-2.277 1.977-1.265 3.316-1.075 3.827-.253 2.36-.253 4.017-1.075 3.507.253M491.578 216.613l-1.263-.925-.702-1.455-.637-.19-.67.08-1.897.9-2.089.412-2.933.411-2.328.221-.542-.19-.51-2.529.19-3.289-.764-1.518-1.084-.379-1.85.126-1.753-.253-2.455-1.138-1.308-.57-.83-.758-.222-1.835-.83-2.72-.254-3.225-.574-2.593-.957-.822-1.148-.759M457.074 124.076l.59 2.37.255 2.15.127 2.214.128 1.835.893 1.328 1.657 1.391 1.085 1.708-.638 2.404-.638.948-.51 4.934.51 2.53v2.086l.638 1.392.383 2.15-.255 1.771-.575 1.708.064 4.301.447 2.024.446 1.075 1.658.76 1.084 1.264.447 2.214-.32 11.637-.382 3.795v5.502l-.127 2.783.127 1.265" clip-path="url(#p461aad275f)" style="fill:none;stroke:#000"/><path d="m438.058 129.84 3.344-.927 1.211-.759 1.85-.759 3.571-.949 2.55-1.075 3.38-1.075 3.11-.22M606.89 129.166l-.51-3.985.255-1.58 2.04-1.202 1.531-1.139.957-1.644 2.232-2.024 2.104-1.835.893-1.833.638-1.076M383.457 329.164l-6.019 2.214M437.535 298.463l-3.22 2.195-2.567 1.834-3.798 2.589-4.27 2.897-1.577 1.083-2.001 1.47-2.615 2.15-6.465 5.724-.805.546-.885.49-1.164.577-1.442.554-3.325 1.153-2.317.887-5.048 1.88-7.836 2.95-2.71.98-2.033.742M381.368 339.32l.399-.542.454-.4.223-.225.144-.399.06-.506.044-.332.099-.221.187-.227.363-.319.654-.49.725-.561.335-.333.275-.387.24-.399.198-.462-.003-.27-.172-.359-.734-1.123-.788-1.327-.614-1.274M377.438 331.378l-.127 1.724.207 1.186.2 1.327.087.775.175.775.351.767.176.336.206.177.248.103.885.064.637.205.534.253.351.25M447.935 287.907l.271 1.158-.84 2.42-3.451 2.337-2.02 1.418-4.36 3.223M460.067 319.101l-.315.008-.35.079-.36.222-.613.387-.43.171-.311.101-.164.028-.123.012-.128-.04-.504-.335-.132-.03-.145-.014-.221-.014-.261-.045-.292-.08-.39-.189-.279-.213-.256-.34-.238-.46-.375-.489-.223-.483-.2-.316-.366-.324-.686-.19-.646-.157-.39-.186-.192-.257-.223-1.174.044-.34.024-.288.08-.187.22-.3.376-.468.127-.149.054-.124.014-.182-.008-.296-.073-.13-.148-.14-.28-.424-.266-.577-.096-.459-.107-.707-.136-1.202-.151-1.24-.064-.317-.08-.383-.335-.795-.562-1.201-.315-.744-.31-.861-1.387-2.272-.142-.216-.163-.266-.12-.102-.111-.046-.32.044-3.026.43-1.682.056-1.18-.043-.479-.016-.382-.08-.303-.17-.774-.584-1.658-1.53M455.811 277.392l1.725.814h1.403l1.467.506 1.403 1.423 1.53 1.328 3.03.348 1.785 1.328 1.53 1.676.351 1.992.16 1.897.733.981 1.785 1.36M481.943 268.145l-12.864 5.223-2.232.822-11.036 3.202M447.935 287.907l.482-2.143.446-1.329 1.53-1.265.83-1.265.765-1.58.638-1.582 1.02-.759 1.212-.316.953-.276M481.943 268.145l6.59-2.675M496.5 299.108l1.914-3.668-1.148-4.427-1.275-2.656-.638-4.554-.128-3.289-1.275-3.162-2.424-1.265-3.188-.633-2.806-.126-2.934-1.138-.893-1.012-.127-2.403.365-2.63M557.786 233.429l.287-.412.414-.98.67-.57 1.34-.474 1.21-.031 1.212.695 1.372.475 1.275-.063 1.148-.254 1.37-.19h1.468l3.188.57.925.854 1.148.6 1.467.317 2.136-.759 1.977-.822 1.722-.19 1.18-.19 1.562-1.74 1.212-.6.606-.854.892-1.043 2.392-1.107.86-.727 1.053-1.455 1.977-1.644.606-.917.478-.727 1.116-.728.383-1.012.127-1.391.957-1.265 1.148-.917 1.402-1.138 2.297-2.562.7-.917.607-.57 1.116-2.308.382-.57.383-.884-.479-.475-.605-.221-1.34-.38-.382-.506-.032-.664-.51-.664-.861-.031-1.499.158-1.147.19h-1.977l-2.392-.222M424.486 600.345l1.674.728.622.252.993.313M484.264 555.368l.4-1.328M484.663 554.04l.072-2.071-.16-1.446-.215-.601-.255-.277-.295-.135-.295.033-.223.118-.231.221-.646.617-1.706 1.438-1.483.997-2.184 1.383-1.502 1.205M506.204 385.307l-.082-2.852-.295-1.195-.255-.853-.59-1.834-.486-1.577-.01-.32.08-.273.142-.253.274-.435.134-.241.063-.215.039-.287.016-.45-.04-.297-.06-.285-.144-.984M517.385 383.518l-.948.122-7.979 1.305-2.254.362M547.271 381.672l.319-.332 2.158-2.63M551.895 382.456l-.736-.814-.711-.89-.303-.456-.132-.288-.163-.392-.102-.906M551.895 382.456l.348.105.706.366 1.409.563.215.09.351.19.227.092.29.095.232.057.27.024.563-.066.359-.015.627.024.744.09.965.257.733.269 1.945.795.459.114.454.079 2.049.19.785.15.638.126.797.15 1.25.119 2.74.13 4.08.083 2.4.12.805-.009.686-.087.446-.173.606-.317" clip-path="url(#p461aad275f)" style="fill:none;stroke:#000"/><path d="m547.271 381.672.582-.044.823-.017.399.006.24.039.268.068 1.196.424 1.116.308M455.465 373.195l1.059-1.258M456.524 371.937l2.566-1.226.317-.194.174-.118.488-.297.15-.07 1.239-.617.594-.25.23-.078.256-.056.434-.05.212-.029.243-.06.394-.134M317.385 470.107l-.407.533-.211.324-.474.775-.311.474-.307.332-.45.368-.327.264-.232.281-.573.917-.467.605-.155.245-.136.38-.08.501-.123.384-.151.308-.288.36-.282.316-.77 1.206-.29.47-.08.237-.032.194-.032.486-.072.363-.183.716-.148.613-.151.671-.319.862-.637 1.66-.694 2.007-.646 1.787-.303.937-.223.59-.315.556-.406.51-.618.514-.47.47-.2.348-.215.502-.383.87-.59 1.059-1.487 2.676-1.462 2.762-.59.878-.662.798-.565.483-.55.22-1.037.317-1.211.343M288.667 506.224l1.268.063 1.331-.114.985-.218 1.315-.324.478-.198.251-.162.642-.604.614-.625.223-.193.24-.111.398-.09.658-.069M317.385 470.107l.426-.167M317.811 469.94l.714-.173.765-.103.646-.036.864.043.702-.031 1.264-.166.924-.107 1.599-.094 1.968-.044 1.507-.04 1.251-.063h.351M332.24 463.964l-.51 1.487-1.364 3.675M318.162 480.383l-.096-1.158-.127-.89-.24-1.193-.051-.458-.008-.534.092-.874.055-.94-.023-.91v-.853l.12-1.06.03-.545-.04-.545-.063-.483M288.667 506.224l-.996-.103-1.395-.237-.741-.218-.85-.304-1.075-.474-1.431-.727M430.512 473.213l-.78.11-.574.088-.415.103-.459.19-1.414.663-2.153.767-.9.355-1.164.617-1.172.72-.658.494M380.826 617.384l.499.21 1.163.49M275.204 402.66l.546.225.613.431.574.55 1.176 1.391 1.044 1.178.307.229.347.234M377.52 360.477l.472 2.838.103.396.28.612M372.497 378.03l-.277-.43M373.154 381.792l-.052-.302-.271-1.668-.334-1.791M373.154 381.792l-.204.437M372.41 365.826l-.22-.997-.633-3.197-.334-1.53-.057-.352.047-.186M380.11 365.117l.294.078M391.18 368.3l.426-.036M387.474 372.28l-2.02.4M387.474 372.28l.404 2.628M364.302 387.469l4.027-1.241.612-.126.617-.09 3.205-.336.243-.053.178-.123.057-.2.004-.254-.295-2.817M631.658 347.774l.033 3.473M491.578 216.613l.076.973-.064 1.327-.382 1.329-.638 1.265-.447 1.201-.51 1.139-.382 1.265-.064 1.265v1.328l-.191 1.265-.702 1.201.064 1.265.255 1.392.255 1.265v1.265l-1.403 4.616-.191 1.265-.319 1.329-.255 1.327-.191 1.329-.255 1.265-.32 1.39-.255 1.266v1.391l-.063 1.329-.192 1.327-.255 1.265v1.265l.51 1.329.638 1.201 1.403.506 1.403-.316 1.084 1.012-.765 1.075-1.084.76-.192 3.414.386.767M159.478 210.572l9.33-3.58.414-.159.447.127.255.443v.537l.16.412.318.379.542.126M361.272 236.117v-1.93l.032-.695v-1.423l-.064-1.107M361.272 236.117l.191 1.011.351.57.638.22.67.19 1.53.19.702.127 1.402.284.702.064h1.722l1.881-.095h1.371l.702.126.701.095.734.158.637.19.67.126.733.285.638.095 1.116.127h.702l1.721.19.701.157.702.127 1.435.19 7.876 1.17 2.04.38h.702l.638-.064M177.512 365.075l2.87 1.071 1.85 1.012 1.977 1.707 1.403 1.834 16.62 27.567" clip-path="url(#p461aad275f)" style="fill:none;stroke:#000"/></g><g id="PatchCollection_1"><path d="m387.562 327.236 16.421-6.261-1.818-1.265-1.211-1.17-1.658-.38H397.7l-1.052-.473-1.53-.096-.925-.442-.542-1.076-.287-.537v-.664l-.191-1.107.893-1.012 1.243.032 1.658-.727 2.87-.127 1.786-1.265 1.721-.19.957-1.011-1.403-.633-1.53-.38-.51-1.264 1.402-.443 2.551-2.466 2.997-.76 3.253-1.517-.83-.95-1.466-.568-.829-2.15-1.211-3.036-1.021.57-.893 1.833-.765.506-2.04 1.645-1.467-1.898-1.084-.063-1.276 1.58-.701.317-1.595-2.023-1.212.379-1.402-1.075-.638-.19-1.212-.063-1.658-.886-1.084-1.202-1.148 5.376-1.913 1.202-1.85.253-2.04.949 1.084 1.897-.765 1.075-.765 2.467-2.424.948-3.762-.316-1.467-.38-2.04-1.328-2.17-1.77-.956-1.581-1.786-1.265-3.443 1.265-2.87-.254-1.212-.758-1.785-1.961-.893-.885-1.403 2.72.128 1.707-.893 1.96-1.913 1.96-1.914.823-2.487.885-2.614-.379-1.786.76-3.125.695-2.232-1.012-1.084-1.012-.191-2.214.446-2.53-1.148-2.34-2.423-2.782-.702-.443-2.104 1.644-1.658-1.77-2.168.696-2.169-.823-1.403-1.201-2.296-3.795.702 2.593.829 2.15v1.771l2.168 1.202 2.743 1.012 1.721 1.327 2.105 1.329-.191 2.213-1.914 1.392-1.721 3.036-1.404 1.454-2.359-.253-2.997-1.644-5.23 1.265-2.933 1.391-4.656-.19-1.849-.506-4.974-3.036v4.744l-.447 1.96-2.04 1.392-1.53.442-5.485 1.202-1.212.696h-3.189l-4.464.253-1.722-1.012-2.167 2.34-1.02 3.162-2.87 3.541-2.552 1.265-2.678 1.518-2.104 2.404-1.977 1.011-1.403-.19-1.85-1.327 2.998 3.352 2.295-.823 1.786-.759 2.742-.316 3.189-1.454 2.55-.57 2.488-.569 3.188-.885 2.487-.57.957-1.011 3.316-1.076 3.125-2.087 3.38-2.023 3.762-1.582h2.297l2.678.38.446 1.392-1.595 1.897-.956 1.518-.573.632 5.548 4.427 2.55-2.276-.956-2.72.127-3.099 1.595-1.581 3.762-1.012 2.742-1.391 5.166-.886 3.316.633 1.85.632 2.104-1.138 5.612-.19 2.168.19 1.658-.886 3.189-1.265 4.91-.252 1.595 1.075 1.084 1.328 2.04 2.656 2.551-2.91 2.488-2.466 1.912 1.012 2.424 3.036 1.084 2.213 1.403 1.392 2.168.253 1.913 1.708.83 2.15 1.53.505 1.913.064-.382-1.834-2.041-2.34-.191-.696 1.785-1.328-.064-1.328-3.443-.127-.893-1.77 2.487-2.214 2.168.38 3.763-.254 4.081 1.139 2.105 1.707 2.168 2.34.19 1.139.894 1.138zM615.467 124.486l-2.04-3.384-1.69.79-.255 1.329v1.233l-.128 1.455-.924 1.043-1.372.696.223.696 2.169-1.139 1.881-.885 1.212-.822zM608.293 167.415l.845.506 1.515.095.988-.364 1.037-.648.19-.553-.143-.838-1.147-.206h-1.26l-1.34.27-.605.6-.112.458zM579.548 177.661l.733.443h.877l.606-.49.829-.348.43-.522-.255-.633-.765-1.217-.94.411-.861.459-.75.442-.127.538zM578.575 180.207l-.988.822-.542.886-.606.853-.16.632.574.697 1.053.284 1.594.095 1.754-.411.797-.728.733-.98.51-1.012-.095-.949-.893-.98-.67-.474h-.892l-1.02.57zM513.56 100.183l-.431-1.06-.67.364-.812.22-.83-.189.049.507.765.237.67.126.796-.016zM519.682 106.08l-1.34-.174v.46l.255.584-.015.617.032.237.621-.49.287-.443.096-.332zM477.464 85.936l-5.26-1.613-1.627.41L470.45 86l1.34 1.803 1.083 1.992 1.594 1.74 1.085 1.39.478 1.487-.925 1.17-1.754.127-1.243-.696-6.441-4.238-2.328-1.423-1.977-.886-2.55-1.233-1.659-.727-.86-.664-.67-.126.637 1.327 1.69 1.107 2.105 2.309 2.615 1.74 2.072 1.644 1.818 1.645 2.168 1.011 1.977 1.581 2.487.823 2.838-.411 1.18-1.107 1.339-1.012 1.148-1.74-.542-1.928-.83-2.151.192-1.992.35-1.234.032-.822-.765-.38zM602.426 120.058l-3.699-2.783-1.403-.822-2.36-.19-3.315 1.455-1.276 1.328h-3.571l-2.997 2.15-2.488 1.392-2.423 2.15-1.786 2.594-1.721 1.834-1.34 2.657 2.105-.38 2.04-2.91 3.062-2.972 3.316-.885 4.145-.254h3.826l4.21-.695 2.295-1.582 1.722-.316 1.53-.695zM630.518 234.25l-1.116-5.027-1.18.094h-.86l-1.404-.347-1.084.347.319 1.55 1.435 1.866 1.913 1.106 1.211.791zM579.947 227.673l-.096 3.763 1.594-1.044 1.754-.316v-1.075l-1.148-.474-.638-.917-.829-.126zM541.3 191.591l-3.57-.79-1.18.443-.957.948-.032 1.265.415 1.518.255 2.277.255 1.77.255 2.12.765 2.086.925.285.893-2.498.319-2.024 1.083-2.814.766-1.96-.064-1.456zM523.572 208.446l-3.571-.885-1.244 1.075.096 1.771.096.98-.766 2.024-.383 1.55.351.853 1.148-.885 1.085-2.213.669-1.076 1.243-.917 1.052-.822.447-.759zM534.525 228.559l.064.885 1.211.822 1.467.095.877-.285.702-.87-.112-1.042-.766-.49-.892.047-1.164.173-.75.285zM441.147 162.719l-.862-4.016-1.657.632-1.914.696-2.168-.348-2.71-1.486-2.934-.76v1.424l3.444 1.455 2.2 1.58 1.945 2.183.925 1.328.957-1.486 1.115-.665 1.34-.316zM485.245 193.11l-1.053-2.942-1.052.285-.956 1.518-.51 1.77-1.435 1.645-.191 1.74.159 1.928-.096 2.056-.701 1.644-1.276 1.36.447 1.518.574.696 1.307-2.087 2.105-1.107.51-1.676-.192-2.372.447-2.404 1.722-2.213.191-1.012zM467.134 246.283l-7.972.79.176.76.43.443.223.3.223 1.66.542.063.543-.237.972-.142.479.284.27.57.574.221.67-.3.446-.349.383-1.09.143-.933.575-.554.749.27.574-.206.255-.285-.128-.57zM444.335 224.447l-8.099.158h-2.742l-.16.76-.127 1.106-.064 1.14.67 1.359.031.696-.19.822-.575 1.075-.542.759-.67.822-.892.727-.957.6-1.945.633-.478.633-.032.632 2.455-.158 1.467-.537.702-.316 2.837-.886.957-.253.478-.411 1.117-1.36.924-.696.829-.442.765-.158.702-.063h.797l.574-.412.542-1.265.606-.695.382-.57.638-.347.32-.57.477-.41.32-.538v-1.265l-.256-.253zM229.296 141.563l-.957-.886-1.53-1.075-.192 1.77.702.633.446 1.392.765-.886.893-.063zM289.624 112.974l-3.954-7.273-1.594.696-.32 1.202-1.083 1.391-2.296 1.581-1.658 1.834-2.104 1.771-2.807 3.921-1.147 1.392-1.34.823-3.06-.633 2.04 1.644 2.678.506 2.105-2.087 2.423-1.518h4.273l3.125-1.581 1.594-1.77zM302.984 91.375l2.902-.98-.192-.76-.733-.695-.223-.79v-1.392l-.893.98-1.116-.126-1.084-.506.542 1.328.32.823v.98l.095.632zM201.108 80.212h-1.913l-1.85 1.075 1.404 1.328.319 1.265-.383 1.202 1.339-1.012 1.084-.253v-.949l.32-1.328zM175.025 89.066l-4.655 2.467 1.02 2.34.51 1.835.256 1.77.702 1.582.956 1.644 1.658 1.708.446 2.15.32-2.53-.958-3.036v-2.719l1.084-1.455 1.722-.442 1.977.569 2.041.696-.191-1.518-1.85-1.202-1.849-2.15-1.53-.95zM138.548 86.316l-.287-.886-.733.158-.128.537.733.38zM142.725 89.066l2.104-1.138.224-.696-1.34-.158-.319-.316-.35-1.202-1.052.854-1.117.222-.669.41.733.475 1.02.6.383.38zM134.913 110.856l-2.71-3.953-.957.537-.925.95-.542.189-.638-.158-.223 1.328-.446 1.392-.989.853-.605 1.012-1.595.76-1.786.663-1.339.159-.382.759 1.148.695 2.168.127 1.913.41 2.073-.284 2.455-1.455 1.244-1.107 1.753-1.865.224-.285zM132.952 126.146l1.897 1.028.478-.38-.223-.569-.063-.664.159-.538-.207-.19-.782.507-.382.284zM113.485 127.268l-6.25-1.011-.892 2.213v2.657l-.766 1.518-1.147 1.518-1.594 1.391 2.232-.506 1.594.064 1.212 1.264.255 2.846.829.38 1.02-2.656 1.85-1.898.765-1.834v-1.96l.382-1.835zM319.94 209.332l-.367.419-.175.553.111.546.255.348.758.308.566.158.67.04.31-.3.072-.523.215-.419.231-.292-.111-.585-.446-.404-.654-.055-.327-.063-.63.048zM392.855 241.287l.223-5.076-.558-.253-.51.111-.335.221-.526.316-.558.475-.366.19-.638.126-.351.095-.383.19-.765.474-.494.332-1.658-.19-.479-.158-.302.159v.363l.335.284.302.206.495.158h.75l.35.174.494.38.542.11h.462l.351.08.367.173.829.807.845.237.319.126h.382zM376.1 202.248l-3.158-1.17-3.826-.633-.223.728v.695l.287.57.765 1.17.223.633.032.664-.447.6-.35.538-.287.696-.032.664-.287.6-.35.57-.224.6-.16.697-.446.632-.414.506-.415.632-.478.633-.16.664.447.474.67-.316.287-.664.318-.538.415-.537.51-.506.51-.538.957-.442 1.18-.728.51-.6.925-.981.573-.506.51-.411.447-.57.223-.6.319-.538.255-.632.064-.664.701-.886zM351.26 230.488l-.638-6.135-.988.474-.543.443-.574.632-.573.317-.638.284-.67.095-1.498.126-1.308.19-.67.348-.764.285-1.5.19-1.434.063h-.702l-.733.19-.637.284-.447.569-.383.57-.574.442-.606.221-.733.127-.606.221-.414.57.542.38h.733l.67-.159 1.753-1.044.638-.221.67-.19.638-.031.67.063.541.284.638.253.67.159.67.126h1.753l.637.063.607.158.541.348.256.632.67.096zM363.09 234.22l-.224 1.517.128.885.255.538.223.38.638.41h3.922l1.721-1.328.766-.537.67-1.044.35-1.202-.287-1.17-.478-.6-1.211-.664-1.372-.127-1.212-.316-1.243-.221-1.34.348-.86.98zM330.326 249.382l.367.727.797.475.654.158h.526l.415-.158.653-.411.75-.617.223-.712.016-.9-.255-.791-1.738-.98-.526-.127-.526.3-.798 1.123-.7.87-.033.426zM221.133 245.84l.127.617.32.443.397.174.559-.158.382-.506.351-.349-.128-.568-.526-.143-.621-.063-.415.158zM223.349 252.742l1.18 1.123.478.166.534-.23.343-.545-.271-.688-.43-.459-.941-.498-.598.095-.478.198-.056.27zM145.531 245.066l-1.881-1.93-.734.064-.733.537-.32.506-.988.349-.19.695.51.411 2.455-.664h.924zM161.123 239.468l.096-.316-1.562-5.154-.67.221-.893.57-.606.537-.86.38-1.053.063-1.754-.064h-2.232l-.701-.063-.989-.253-.67-.095.096.886 1.084.221 2.137.885.638.412.382 1.17-.032.758-.35.57-.479.6.51.475.861-.538.542-.411.575-.727.86-.411h1.467l.478.411.574.221.797.064h.67l.75-.182zM159.689 199.086l1.721.158h1.371l.638-.063 1.18-.443.51-.664.064-1.138-.255-.633-.383-1.202-.095-.695-.352-.917-.573-.633-.893-.38-.638-.158-.67-.126-1.052-.063-.956.063-.989.506-.797.506-.51.538-.478.916v.633l-.032.664-.16.664-.127.728.382 1.201.383.506.702.064 1.275-.096zM222.153 186.753l.893-.348.59-.016h1.116l.494-.063 1.18-.3.335-.475.111-.68.176-.837.239-.586.111-.443v-.316l-.047-.316-.335-.348-.399-.11-1.228-.032-1.402.11-1.005.427-.893.506-.446.38-.319.316-.399.332-.382.095-.478.048h-1.61l-.463.142-.478.332-.43.522-.192.331-.08.586.016.648.192.3.159.364.08.885-.048.396v.38l-.064.458-.016.364.111.648.128.348.223.395.256.174.318.079.702.079.319-.063 1.004-.427 1.18-.933.095-.332.112-.316.064-.316v-.317l-.032-.332-.08-.364-.031-.331v-.349zM260.672 208.794l.095.664-.048.538-.334.68-.016.38.287.284.685.063 1.913-.553.303-.143.367-.205.494-.348.734-.427.526-.348.318-.316.336-.553.159-.412v-.363l-.702-.87-.462-.743-.175-.395-.16-.459-.191-.284-.415-.08-.638.048-.605.237-.765.443-.59.3-.495.317-.574.332-.462.6-.143.601v.316zM254.55 182.389l2.71 7.147.318.569.543.696.542.474 1.147.474 1.085.285.956.063.861-.095.957-.474.637-.79.288-.57.414-.632 1.212-.696.542-.38.765-.6.574-.728.414-.727.702-1.107.542-.538.542-.632.446-.79-.063-.823-.255-.664-.32-.633-.35-.6-.447-.632-1.115-.696-.638-.348-.479-.474-1.18-1.487-.414-.727-.51-.6-.574-.412-.638-.411-.925-.411-.669-.728-.51-.474-.67-.158-.638-.032h-.7l-1.34.253-1.403.475-.702.19-.67.158-1.53.22-.638.285-.446.506-.255.696-.064.664.128.633.064.727.127.664.16.664.19.632.862 1.36zM420.269 353.245l.086 1.402-.86.052-.085-1.403zM420.996 352.689l-.103-1.663 3.624-.222.103 1.663zM421.125 354.634l-.092-1.496 3.624-.218.092 1.496z" clip-path="url(#p461aad275f)" style="fill:#00f;fill-opacity:.8"/></g><g id="PatchCollection_2"><path d="m376.716 370.591 2.7-.438-.174-1.11-2.708.384zM373.77 371.332l2.126-.372-.074-.418-2.127.373zM380.076 370.091l2.613-.424-.186-1.046-2.625.373zM353.485 374.576l5.21-.846-.035-.214-5.211.846zM359.679 373.322l.04.236 3.683-.615-.04-.237zM364.109 372.9l4.552-.775-.053-.31-4.553.774zM369.207 372.023l1.856-.294-.055-.342-1.856.294zM385.536 368.432l.07.93 4.108-.694.056-.158-.12-.134z" clip-path="url(#p461aad275f)" style="fill:green;fill-opacity:.8"/></g><g id="PatchCollection_3"><path d="m369.456 380.124 1.03-.064-.103-1.621-1.029.064zM344.126 381.53l.665-5.324-3.712-.456-.665 5.323z" clip-path="url(#p461aad275f)" style="fill:#90ee90;fill-opacity:.8"/></g><path id="PatchCollection_4" d="m383.382 369.478 1.528-.205-.106-.779-1.528.204z" clip-path="url(#p461aad275f)" style="fill:#a9a9a9;fill-opacity:.8"/></g></g><defs><clipPath id="p461aad275f"><path d="M90 98.937h558v529.325H90z"/></clipPath></defs></svg>