<svg xmlns="http://www.w3.org/2000/svg" width="960" height="960" viewBox="0 0 720 720"><defs><style>*{stroke-linejoin:round;stroke-linecap:butt}</style></defs><g id="figure_1"><path id="patch_1" d="M0 720h720V0H0z" style="fill:#fff"/><g id="axes_1"><path id="patch_2" d="M90 622.858h558V104.342H90z" style="fill:#fff"/><g id="LineCollection_1"><path d="m449.303 352.878 1.215-.195 2.269-.618 1.752-.237M442.12 352.863l.416.204 4.798.111.991-.077.978-.223" clip-path="url(#pc85a556138)" style="fill:none;stroke:#000"/><path d="m450.605 351.455-.387.554-.256.244-.659.625M486.753 330.473l-1.59-8.16-.68-4.11-.145-2.636.253-2.064.494-2.21 1.725-5.865 1.37-5.833.238-2.015-.012-8.453.29-3.13.636-2.519.709-2.213.527-1.378.802-1.536M501.122 214.019v1.74l4.348 14.998 2.74 6.17 4.66 7.212v2.644l-.73 2.484.365 3.284-1.645 3.285-5.063 5.712-3.476 3.583-5.495 3.748-4.65 7.084-.52 1.198-.286 1.19M433.261 356.005l1.75 3.234M433.261 356.005l-.122-.316M433.261 356.005l1.052-.732M433.261 356.005l-1.67.726M450.605 351.455l.693-.887M449.665 349.842l.448.528.198.29.164.359.13.436M451.298 350.568l.783.347M451.298 350.568l-1.633-.726M451.298 350.568l.595-.738M458.15 347.916l-1.703.312M483.963 340.75l-1.572 1.267-2.603 1.496-3.36 1.363-3.94.885-4.608.935-3.262.764-3.572.11-1.57.178-1.326.168M457.12 349.108l.3-.539.73-.653M402.113 375.838l-3.049-5.439M402.113 375.838l2.942 5.391M402.113 375.838l10.27-4.505M394.125 379.312l1.713-.797 1.992-.9 4.283-1.777M394.125 379.312l-1.314.557M396.543 383.573l-.85-1.507-.049-.102-.08-.14-1.44-2.512M405.055 381.23l-4.558 1.6-3.954.743M395.75 387.592l.658-1.908.135-2.111M390.057 497.195l1.52 2.466 3.603 4.157 2.641.526 3.121 1.105 1.801 2.368.9 5.63 1.502 5.473 2.76 2.157 12.307 2.841 5.462-.789 3.962.579 2.162 1.052M417.57 612.887l.12-1 2.341-3.998L423.393 592l.66-8.155-.3-2.472-3.541-5.156-2.942-6.84.12-3.315 1.26-2.788 1.802-5.472.66-6.524 1.2-2.21 9.125-8.523 2.101-5.578-1.14-4.104-.6-6.103M492.242 461.325l5.95 6.302 2.727 2.607 1.983 3.912 3.595 3.803 1.61 5.216-.867 4.672-4.214 3.585-6.941 10.104-4.834 2.39-6.694-.108-3.966 2.064-4.09.11-5.206 2.063-3.967 3.803-9.049 5.867-5.453.869-1.363 3.368-2.975 2.173-16.69.635M463.984 352.86l7.986 2.182M463.984 352.86l-1.893-.751-4.202-1.553" clip-path="url(#pc85a556138)" style="fill:none;stroke:#000"/><path d="m454.54 351.828 3.513.318 2.96.281 2.97.432M499.311 363.114l-27.34-8.072M626.423 439.055l-.79-1.068-8.397-8.896-1.643-1.997-9.59-14.072-.932-.775-1.067-.665-1.165-.402-1.24-.272-4.338-.435-3.004-.63-2.666-.796-6.818-3.233-2.958-1.459-1.284-1.018-1.131-1.209-3.27-4.863-1.317-1.385-1.61-1.25-1.91-1.054-2.663-.93-3.733-1.059-8.292-1.597-2.603-.761-.974-.4-1.195-.85-6.644-7.476-1.565-1.277-2.091-1.223-2.59-1.054-2.79-.489-21.41-1.935-1.628-.488-1.285-.544-1.381-.782-6.196-5.52-1.939-1.3-1.24-1.086-1.763-1.691M564.356 382.367l-43.759-13.025-12.854-3.778-8.432-2.45M626.423 439.055l1.082 1.464 4.28 7.316L634 450.21l3.27 1.807M576.52 523.68h4.233l.868-1.196.62-3.585.248-1.195 6.073-4.128h4.71l4.09-2.608 1.612-2.608.868-6.302-1.488-.76-.495-1.738 2.107-5.867 6.321-3.586 4.463-3.803 2.106-4.563 11.404-8.475 2.48-2.173 3.222-5.65 1.115-5.542.868-2.173 5.324-5.71M439.094 358.188l-.208.052-3.875.999M423.976 364.704l.229-.16.558-.39 1.162-.844.555-.338.66-.379 7.871-3.354M435.087 362.697l.07-1.574.037-.923-.055-.501-.128-.46M423.976 364.704l-2.096-3.886M412.384 371.333l10.116-4.32 1.055-.48.375-.213.344-.236.107-.159.008-.308-.085-.227-.238-.487-.09-.199M412.384 371.333l-2.878-5.29M412.384 371.333l3.072 5.641M409.506 366.043l-.173-.32M409.506 366.043l7.108-3.032 5.266-2.193M399.064 370.4l.598-.133 9.844-4.224M407.437 362.268l1.896 3.455M421.696 360.477l-2.714-4.944-.088-.138-.139-.146-.172-.153-.287-.102-.335.007-.318.08-.833.354-.26.17-1.998 1.685-.211.208-1.78 1.774-.2.16-4.645 2.654-.28.182M405.823 365.483l-1.599-2.22.572-.363.716-.51 1.099-.628.227-.034.258.026.34.514M415.456 376.974l3.158 5.28M415.456 376.974l-4.924 2.014M418.614 382.253l-5.21 2.154M420.88 386.602l-1.644-2.933-.077-.142-.545-1.274M418.039 385.836l-.142-.317v-.767l-.129-1.088.072-.198.36-.66.414-.553M405.055 381.23l5.477-2.242M405.055 381.23l3.117 5.346M408.172 386.576l-5.644 2.339M408.172 386.576l5.231-2.17M408.172 386.576l2.358 4.357M413.403 384.407l2.3 4.272M413.403 384.407l-2.871-5.419M402.528 388.915l-3.713 1.539M402.528 388.915l2.33 4.482M396.832 391.276l1.983-.822M396.832 391.276l-1.714-.17M401.96 401.092l-2.703-5.406-2.425-4.41M390.524 400.297l1.823-2.395 1.32-1.432 1.508-2.339-.057-3.025M395.75 387.592l-.396 1.569-.236 1.945M401.96 401.092l1.453 2.894M401.96 401.092l5.607-2.486M401.96 401.092l-2.508.966M415.704 388.679l-5.174 2.254M415.704 388.679l.164-.066M419.071 393.772l-5.452 2.265M420.88 386.602l.29.487 2.508 4.443-.027.165-4.58 2.075M415.868 388.613l1.372 2.419 1.831 2.74M420.88 386.602l-5.012 2.01M404.859 393.397l5.671-2.464M404.859 393.397l1.356 2.609M407.567 398.606l2.143 4.122M407.567 398.606l-1.352-2.6M407.567 398.606l5.806-2.48M409.71 402.728l-4.132 1.666M409.71 402.728l6.024-2.429M348.22 370.086l.312.275.282.18 2.455 1.122.481.108.461.068.318.04 1.971-.074M368.81 373.96l-7.833-1.359-4.657-.756-.5-.049-1.32.01" clip-path="url(#pc85a556138)" style="fill:none;stroke:#000"/><path d="m345.062 390.913.214-.864-.043-1.877.857-.863 3.769-1.014 4.838-3.98-.085-1.351.856-1.352-1.38-2.998-.043-.23.053-.845.343-3.106.059-.628M326.324 348.912l2.178.096.637.1.552.112.565.13 2.086.691 1.518.593 1.253.566 1.19.65 1.125.76 1.113.817.784.64.414.431 1.857 1.836.229.28.596.99 4.358 10.24.407.821 1.034 1.42M325.107 396.62l1.884-.489 1.328-.675.813-1.277.514-3.68 2.527-4.542 2.012-1.352 2.784-.938 2.098-1.351.471-1.502.171-1.915.557-1.352 1.713-.9 2.484-.3 1.327-.414 1.028-1.765-.171-2.102.428-1.277 1.145-.703M421.88 360.818l-.184-.34M421.88 360.818l.796-.333 4.316-1.806M439.094 358.188l5.16-.886M445.1 364.379l-1.063.032-.274-.008-4.285-.24.066-2.961-.098-.598-.352-2.416M446.04 356.9l-1.787.402M462.221 412.697l.678-1.517-.452-1.584-1.129-1.583-.45-2.11-4.892-6.796-.753-1.98-.3-1.12.677-1.782 1.73-2.441 3.763-3.694 1.505-3.3.767-4.908.653-4.373.655-1.22 1.962-1.72.491-1.363-.245-.573-1.309-.646-3.761-2.365-3.435-1.147-4.661-2.438-4.253-5.521-.474-.382-.252-.123-.302-.123-.752-.27-1.642-.718" clip-path="url(#pc85a556138)" style="fill:none;stroke:#000"/><path d="m457.605 356.104-1.056.017-.436-.036-.655-.157-.437-.045-.488-.013-.585.101-.357.108-.348.042-.796.001-.667-.066h-.456l-1.745.17-1.32.12-.199.038-2.02.516M443.923 347.309l1.02.469.401.192 3.603 1.53M432.257 344.395l2.197.493 9.469 2.42M453.115 349.033l-3.121-.664-6.071-1.06M449.665 349.842l-.718-.342M456.362 350.035l-1.153-.355M456.362 350.035l.759-.927M456.362 350.035l1.527.521M456.362 350.035l-.647.894M457.889 350.556l-.501-.794-.143-.17-.124-.484M453.115 349.033l-.452.182-.264.14-.194.161-.312.314M453.115 349.033l2.094.647M456.447 348.228l-1.238.333-2.094.472M454.54 351.828l.766-.378.41-.52M454.54 351.828l-2.46-.913M455.715 350.93l-.003-.444-.107-.296-.396-.51M415.954 400.21l-2.335-4.173M415.954 400.21l-.22.09M415.954 400.21l3.154-1.271M406.215 396.006l5.887-2.297M412.102 393.71l1.271 2.416M412.102 393.71l-1.572-2.777M397.69 387.638l-.225-.018-1.715-.028M149.396 314.526l-4.435-.257M149.396 314.526l3.846-7.698M279.962 350.728l-5.037.369-.944.158-1.545.342-13.376 3.779-1.78.281-6.142.79-1.812.143-3.813.132-2.693-.13-8.63-.823-1.52-.273-.457-.22-6.185-4.882-3.985-3.373-.782-.582-3.676-2.182-3.002-.899-1.326-.191-8.438-1.14-3.901-.854-6.942-4.022-1.35-1.004-14.386-10.678-6.268-5.155-4.326-3.113-2.663-.924-8.875-.73-6.712-1.02M144.961 314.27l-2.277-.133-7.322-1.362-7.877-2.091-5.824-1.751-8.043-1.897-2.551-1.216-1.538-2.07M101.352 299.695l3.936 2.233 4.241 1.822" clip-path="url(#pc85a556138)" style="fill:none;stroke:#000"/><path d="m153.242 306.828-4.82-.118-11.933-.413-12.113.196-6.57-.76-6.445-1.197-1.832-.786M451.893 349.83l-.022.401.017.305.193.379M486.753 330.473l.5 3.726.155 1.978-.004.7M483.963 340.75l2.278-1.81.636-.766.371-.646.156-.65M498.117 334.451l-2.216.082-.99.15-.807.203-6.7 1.991M253.059 396.242l4.417-.893 7.024-19.16 5.15-7.504 3.284-3.695 3.037-4.184 1.24-3.043 1.952-4.634.372-1.088.427-1.313M290.76 348.822l-.646.105-8.96 1.56-1.192.241M251.388 396.58l1.671-.338M243.115 414.78l2.186-8.484 2.81-3.968.936-3.695 2.34-2.053M224.246 396.789l1.797 1.467 6.88-3.152 18.344.815.12.661M243.115 414.78l.715 1.026M186.674 452.061l19.603-17.712 36.838-19.568M386.006 369.84l.895.287 2.313.961.657.34.278.28M368.81 373.96l8.354 1.444.462.105 1.005.125.712.006.556-.094.473-.106.73-.283.273-.12 3.638-2.195.363-.151.794-.253 3.979-.73M399.064 370.4l-.406.081-1.956.388-1.784.283-1.15.039-.428.116-.39.164-2.801.236" clip-path="url(#pc85a556138)" style="fill:none;stroke:#000"/><path d="m386.467 364.675.367.012.336-.02.56-.036.398.055.355.067.457.15.139.14.046.193-.558 1.272-.3.506-.215.28-.473.592-.636.74-.509.457-.205.278-.116.24-.107.24M380.7 354.041l-.57 1.217-1.174 2.092-.997 2.09-.463 1.78-.106 1.747.32 2.247 1.14 1.56 1.672 1.342 1.637.562 2.314.75.856.444.677-.032M234.297 477.115l-.7-2.08-4.155-1.703-3.453-4.21-3.345-2.222-2.266-.426v-2.98l-1.187-3.925-7.284-3.406-3.992.757-1.78.284-3.076-1.656-3.507-1.324-1.187-.33-2.32-1.893-2.428-.284-2.913 1.514-1.241.284-2.789-1.454M489.284 206.086l.6.506 1.612 2.175 9.626 5.252" clip-path="url(#pc85a556138)" style="fill:none;stroke:#000"/><path d="m530.531 183.211-8.09 9.394-7.312 8.913-12.644 10.761-1.363 1.74M585.985 122.224l-1.756 1.826-7.62 8.111-5.826 5.219-2.356 2.391-2.727 4.023-1.61 2.065-1.43.598M530.531 183.211l.711-.825 6.321-5.327 3.223-1.739.992-1.74-.511-3.302-1.286-1.4-.062-1.71.867-1.414 13.883-13.48 3.842-3.806 2.975-1.522 1.174-.49" clip-path="url(#pc85a556138)" style="fill:none;stroke:#000"/><path d="m548.705 138.474 2.634-.462 2.784-.792 2.408-.594 2.257.33 2.107 1.32 1.355 2.508.526 2.904-.116 2.769M581.675 203.651l.103-.717-.205-.467-2.78-3.71-.716-.7-.695-.287-3.168-.229-1.125.122-1.145.34-5.642 2.762-1.595.322-1.493-.072-10.596-2.748-5.117-2.177-9.03-5.61-5.343-5.147-2.597-2.122M405.437 153.753l.813.396 5.806 2.474 4.11 2.134 4.932 2.98 4.99 2.34 1.328.664.906.719M484.129 203.413l-.442-.081-3.843-1.848-12.997-8.495-6.668-4.46-6.836-3.16-14.558-9.515-1.443-1.41-1.109-1.752-1.997-2.384-5.914-4.848" clip-path="url(#pc85a556138)" style="fill:none;stroke:#000"/><path d="m417.6 129.847 1.43 1.29.737 1.633-.185 2.133-.597 2.333.393 1.952.882 2.83.12 1.13-.163 1.546.26 1.215 1.999 4.213.608.892 1.7 2.166.472 1.09.385 4.201.397 1.11.968 1.96.881 1.96.435 1.959M290.76 348.822l.043-.51.253-2.987-.36-1.483-.99-4.66-2.679-14.911M153.242 306.828l7.65.187 9.717.782 66.439 14.563 10.252 1.638 4.745.319 26.972.413 4.45-.032 3.56-.427M300.95 321.525l-4.208 1.14-7.387 1.326-2.328.28M313.338 348.34l-.572-.72-1.13-.608-1.266-.462-2.366-.172-1.658-.78-1.883-2.576M290.76 348.822l2.716.156.49.054 6.587 1.156.62.04 1.874-.198.577-.054.437-.06 3.965-.72.418-.125 2.94-.61.656-.114.547-.019.75.012M326.324 348.912l-.592.097-3.143.372-1.85.106-.885-.137-2.08-.47-.415-.046-2.881-.4-1.14-.094M564.356 382.367l2.899-5.298M590.522 363.973l-.133 1.14-.955 1.536-1.83 2.302-2.283 2.489-1.114.674-2.573.489-1.486.79-2.467 2.35-1.99 1.675-1.91.65-2.414-.324-2.812-1.07-1.3.395M550.037 369.114l3.608 1.698.663.023 12.416 4.931.504.512.027.79M397.69 387.638l1.125 2.816M397.837 385.025l.615 1.078.103.186.242 1.125-.098.157-.245.054-.764.013M585.985 122.224l1.035-1.913 4.233-5.998M489.284 206.086l-2.622-2.21-2.533-.463M488.107 195.382l.056.486-3.411 5.206-.417.85-.206 1.489M445.257 351.458l.418.079.495.098.69.155.5.052.502.02.458-.037.497-.138.223-.163.085-.194.029-.25-.08-.275-.125-.223-.123-.297.004-.409.117-.376M442.12 352.863l.184-.389.184-.168.265-.158.452-.197 1.029-.363.253-.07.27-.063.242-.035.258.038" clip-path="url(#pc85a556138)" style="fill:none;stroke:#000"/><path d="m446.378 350.695-.41.274-.711.489M438.785 353.723l.903-.286.734-.236.424-.113.378-.091.68-.109.217-.025M434.313 355.273l-1.174.416M437.296 354.257l-.62.27-2.363.746M433.14 355.689l-.953.398-.745.312M421.696 360.477l-12.363 5.246M426.8 358.341l-4.303 1.8-.801.336M409.333 365.723l-9.85 4.266-.419.41M253.059 396.242l-4.209-4.887-11.837-.869.557-1.793-.495-2.282-2.851-1.63.186-1.521M243.83 415.806l-.991 2.661-3.037 1.25" clip-path="url(#pc85a556138)" style="fill:none;stroke:#000"/><path d="m228.925 455.862 4.496-4.415 4.698-1.56h3.56l2.563-.624 3.927 1.477 1.363-.978.558-1.793-.063-4.02-.557-.87.062-1.303 1.487-1.956-.372-2.228 2.17-3.15 1.177-8.042-8.18-7.226-1.984-3.368M329.803 315.778l1.2-.047 5.205.38 4.586.476.458.085 5.132 1.6.886.277 10.653 3.498M398.493 335.788l-4.872-1.695-8.436-2.528-8.644-3.1-2.73-.903-15.888-5.515M346.322 297.176l7.32 6.622.866 2.062 5.446 6.836v2.93l-2.03 6.421M300.855 271.51l4.95-1.139 4.023 1.574.928 3.418v3.853l-.68 4.233 1.856 2.876 2.413.543 3.465-.76h3.961l3.342-1.357 2.785.706 1.547 2.93.203 4.358M346.322 297.176l-.478-.433-10.334-.976-5.862-3.022M315.273 302.913l3.033-3.198 3.197-1.905 1.844-.826 1.68-1.15 1.558-1.617 3.063-1.472M268.224 285.708l1.962-2.653 4.008-2.152 1.144-2.51 1.554-.931 4.253-.79 1.145-.573 4.498-7.028 1.962-.716 4.743.789 1.39 1.147 2.78.071 3.192 1.149M302.816 261.398l-1.309 2.654-.245 4.948-.49 1.29.083 1.22M445.1 364.379l.123-1.057.047-.295.015-.244-.123-2.559-.02-.213-.1-.368-.789-2.34M445.221 365.542l-.12-1.163M382.785 418.741l2.72-2.996.912-2.002.652-3.091.981-3.557 1.12-4.325.727-1.356.627-1.117M389.176 392.246l-.216 1.3v4.233l.135.71 1.43 1.808M375.26 439.51l1.01-2.837.781-6.578.66-1.032 1.8-1.81 1.044-2.569.798-3.465.86-1.438.572-1.04M357.065 419.739l7.656.124 5.401-.577 5.495-1.4 4.18.082 2.988.773M415.693 250.087l1.942-1.798.431-3.69 1.08-1.609v-3.028l-2.482-2.838-.54-2.082 1.942-1.136 3.777 1.041 7.661-1.987 4.748.095 4.316-1.609.432-2.555 2.158-3.312 4.317-.946 2.158-1.703 2.697-1.23 6.906-2.65 2.59-.284 1.834 1.798 1.295-.19 2.266-3.027 8.849-1.041 15.214-10.22M432.257 344.395l.39-1.372.063-.262.022-.384.15-3.107.02-.271.075-.31.128-.505.075-.28.032-.263-.054-.215-.095-.244-.076-.13-.138-.169-.235-.244-.245-.243-.204-.13-.18-.16-.14-.206-.117-.187-.096-.14-.042-.178.01-.262.021-.356.022-.29-.022-.3-.031-.252-.076-.28-.106-.216-.214-.281-.256-.337-.256-.318-.128-.216-.022-.168.054-.243.085-.14.182-.253.406-.412.384-.337.395-.309.394-.234.289-.187.213-.178.267-.215.139-.197.064-.28.053-.347.086-2.087.053-.15.235-.187.256-.234.16-.14.129-.206.074-.225.043-.243.021-.3-.01-.327-.075-.262 2.501-1.79 6.133.359 2.208 1.936 3.925 1.578.328 1.147-2.044 2.366 1.226 2.796 3.026 2.151-.654 2.367-1.718 2.294.245 1.65.41.644L452.55 343l.736 1.219 3.16 4.01M403.818 337.447l-1.133-.268-.335-.095-1.58-.503-2.277-.793M400.629 325.8l-1.406 5.94-.042.177-.688 3.871" clip-path="url(#pc85a556138)" style="fill:none;stroke:#000"/><path d="m371.325 284.176-1.416.497-2.98.103-7.033-1.577-6.133-.574-2.208 2.223-.573 2.437-2.29 1.291-1.635 5.235-.735 3.365M230.77 183.946l1.472 3.371-2.208 2.152-4.825 3.012-2.535 3.944-3.598 5.164-10.63 2.582-2.7 2.152-3.68 1.29-2.944 2.726-3.434 1.362-2.372 1.722-1.145 4.159-4.007 3.586-3.352 1.363-.491 2.222-2.29 3.443-17.582 5.952-9.977 1.721-3.353 1.434-.572.861 5.234 11.904 2.944 11.474 3.597 3.73 5.97 2.868.246 6.382-15.296 32.306M572.2 518.682l1.364.435.62.978.867 3.15M576.52 523.68h-.477l-.992-.435M547.03 546.247l2.242-1.262 2.528-.036 1.152-.739 1.007-.973 1.315-3.423 1.234-5.568.843-1.928 3.269-3.424 2.878-3.063 3.145-.973 3.002-.703 4.05-.739 1.356-.17M635.589 412.538l-3.777 5.298-.432 2.176 3.67 4.824.323 3.122-.756 3.027-1.942 2.46-.755 3.027-1.511 1.418-3.986 1.165M106.39 337.22l5.221-5.511M100.73 349.902l2.274-3.717-.734-1.808-.725-1.873.816-2.023 4.029-3.26M138.723 356.856l-2.647-1.649-5.265-3.45-1.924-2.636-1.24-3.423-1.053-1.576-2.562-1.058-1.653-.355-1.28-1.944.113-1.78-.386-1.813-1.317-1.37-1.694-.801-1.735-2.056-4.469-1.236M144.961 314.27l-2.343.865-1.64.885-1.669.767-1.95 1.863-1.64 1.616-.795.53-3.578.755-.914.531-2.247.295-3.227.012-1.722-.696-.834.035-.955.271-3.82 2.17-.942 1.298-1.304 1.002-1.332 1.298-1.547 2.087-.727 1.51-.164.345M371.89 470.386l3 4.86 3.841 3.894 3.362 5.104.66 3.525.841 1.421 2.761 2 3.702 6.005M353.665 517.607l7.561-2.608 7.933-2.825 7.685-6.193 2.851-4.129 7.437-1.195 2.925-3.462M480.014 338.232l.64-.27.786-.02.673.236.784.845 1.066 1.728M479.018 338.65l.996-.418M480.014 338.232l.148 1.263M486.753 330.473l2.69-1.66M368.55 455.054l3.278-5.91 3.432-9.634M319.975 445.11l-.394-1.94.123-1.036.467-.927 1.28-1.768 1.647-1.25 4.772-4.7.59-.195 1.574.15 5.484 1.294 2.853 2.372 1.452.712.762.043 5.091-1.294 2.853 1.682.84.203.587.142 4.87-1.014 2.73-1.293 7.367.994 8.964 1.716 1.373.509M371.89 470.386l-4.084-6.612-1.38-4.894 2.123-3.826" clip-path="url(#pc85a556138)" style="fill:none;stroke:#000"/><path d="m429.97 449.22-5.604-4.658-.946-.063-.8 2.807-1.02 3.892-.436.893-.728-.064-1.601-.574-2.256-.574-3.785-1.34-3.784-.766-7.643.702-5.967-.574h-1.674l-.219.893-1.092 2.616-1.964.933-2.491.343-1.53-.28-.748.374-.427 1.654-.463 1.31-3.346 1.03-10.002.032-1.21-.5-1.685-2.252M371.89 470.386l7.091-4.858M371.89 470.386l-.753.989M364.608 464.746l1.362-.37 1.504.617 1.315 1.606 2.348 4.776M361.18 484.797l3.898-4.2 5.448-6.67.611-2.552M366.278 372.825l.345.194 2.188.647v.294M437.296 354.257l1.365-.49.124-.044" clip-path="url(#pc85a556138)" style="fill:none;stroke:#000"/><path d="m439.201 349.17-.063.384-.052.403-.2.834-.15.548-.146.66-.039.391.234 1.333M429.616 357.582l-.173-.347M429.616 357.582l.505-.212 1.47-.64M426.992 358.68l2.401-1.005.223-.093M429.443 357.235l-2.643 1.106M429.443 357.235l1.999-.836M426.8 358.341l.192.338M479.078 363.615l-1.098-1.247-.742-.738-.434-.763-.337-.513-.19-1.22-.539-1.41-3.768-2.682M437.189 350.939l-.118.757-.012.244.008.833.23 1.484M431.592 356.73l-.15-.331M415.734 400.3l.935 1.809M413.373 396.126l.109-.047.137-.042M405.997 327.828l-2.18 9.62M403.818 337.447l28.44 6.948M329.803 315.778l-1.015 4.14-.338 1.73-1.352 6.965-.507 2.914-.901 5.73-.113 1.68.169 1.532.169 1.432v1.383l.057 2.718.168 1.185.184 1.725M300.95 321.525l16.058-4.348 5.256-.903 4.586-.38 2.953-.116M581.75 546.176l-2.502-.439-.75-.877-1.042-.11-1.96-.036-.709-2.083.755-.711 1.123-1.047.579-1.808-.109-3.394.145-4.06-2.75-3.967.108-1.966 1.882-1.999M405.437 153.753l-10.061 3.85-3.506 2.249-2.826 2.524-.994 1.125.21.71 3.217 3.145 1.91 1.882.053 1.032-4.187 3.58-2.25 1.63-1.046.62-.576.091-3.036-.115-.706-.206-.707-1.33-.313-1.126.157-.964-.131-1.1-.602-.896-1.555-.885-2.04-.28-3.16.315M325.952 309.698l-.272.43-.737.43-.518.096-.9-.143-.737-.646-1.991-1.029-1.173-.526-7.01.287-.328.263-3.11 1.053-.654.741-.818 1.603-2.891 3.707-3.656 4.137-.207 1.424M371.325 284.176l.713-.085 1.678-.678 2.045-1.506 2.29-.358 2.617-2.725 2.616-1.29 3.353-3.586 1.8-.717.327-1.865-.082-2.222.98-2.869.246-2.869 1.8-.43.9-.788v-1.721l2.202-1.978 2.951-.395 1.667-.397 1.944-1.278M363.738 276.846l1.976 1.892 3.907 3.845.818.319.863.597.023.677M599.742 129.625l-2.68-.947-3.799-1.508-2.08-1.719-5.198-3.227" clip-path="url(#pc85a556138)" style="fill:none;stroke:#000"/></g><g id="PatchCollection_1"><path d="m575.211 179.795.9 2.4 2.355-.608 2.077-.122 1.454-.668 1.212-2.125 2.216-.213 1.731-1.61-.035-2.883.208-1.428-1.835 1.518-.242 1.519-1.87.06-1.108 1.154-3.427 1.853-2.32.515zM490.087 345.192l-.942-1.465-.3-.45v-.939l.514-.15.129.3 1.027-.15.643.075.856-.6.771-.076.685-.3 1.285.113.557.337.899.451.385.676-.342.863-1.157.864-2.312.15-1.67.376zM508.982 273.624l-.67.057-.195.028-.18-.114-.098-.3-.016-.344v-.444l.13-.172.05-.215-.05-.215-.08-.243-.017-.257.098-.301.13-.315.196-.186.278-.086.278-.015.293.03.147.07.18.216.163.243.147.186.164.172.097.143.033.186.016.2-.016.258-.098.215-.13.358-.033.158.049.214v.13l-.066.142-.163.13-.277.085-.213-.014zM507.9 274.886l1.6-.259.065.23.164.257.245.301.277.3.375.33.213.3.147.301.147.258.147.344.033.486-.148.33-.245.215-.294.128-.326.015h-.522l-.588-.143-.54-.258-.342-.244-.31-.315-.147-.343-.05-.315z" clip-path="url(#pc85a556138)" style="fill:#00f;fill-opacity:.8"/></g><g id="PatchCollection_2"><path d="m404.812 368.386 1.897-.813 1.29 2.311-1.897.813zM380.936 424.568l1.704-4.646 2.82-2.988 1.922-1.983 2.571-3.043 3.286-.272 4.12-.57 1.581 3.559-.527 3.613-1.146 2.282-3.564 1.983-1.27 1.712-2.48.868-1.332 1.549-5.113.136-.868.244-2.23-.624z" clip-path="url(#pc85a556138)" style="fill:green;fill-opacity:.8"/></g><path id="PatchCollection_3" d="m460.418 348.379 3.896-.118.081 2.078-3.894.117z" clip-path="url(#pc85a556138)" style="fill:#90ee90;fill-opacity:.8"/><path id="PatchCollection_4" d="m412.085 380.575 2.548-.991.768 1.519-2.548.99z" clip-path="url(#pc85a556138)" style="fill:#006400;fill-opacity:.8"/><path id="PatchCollection_5" d="m391.314 399.726 1.958.686.96.906 2.457.28.142 1.53.89.561.285.999-.214 1.373.356 1.966-2.954-.375-6.336-2.402.605-2.466 1.103-2.028z" clip-path="url(#pc85a556138)" style="fill:#006400;fill-opacity:.8"/><path id="PatchCollection_6" d="m487.56 337.916.27-1.041.026-1.017-.134-.757 6.879-1.987-.217 2.366-3.048.851z" clip-path="url(#pc85a556138)" style="fill:#d3d3d3;fill-opacity:.8"/><g id="PatchCollection_7"><path d="m447.302 350.354 1.105.333-.227.577-.223-.068-.09.23-.646-.196.099-.252-.235-.071zM407.292 367.587l.918-.358.533 1.05.256-.101.245.481-.3.117.163.32-.738.288-.156-.308-.327.128-.23-.453.19-.074zM386.893 363.7l-.275-.058.213-.796-.631-.13-.238.89-2.274-.468-.185.689 1.153.237-.383 1.43.913.188.287-1.074.46-.268.748.153zM558.703 202.029l1.96-.172.065.57.653-.058.33 2.91-.841.073.123 1.083-1.771.155zM573.339 205.96l1.486-.878 1.05 1.37-1.486.876zM578.438 206.573l3.5-2.159.626.78-3.5 2.16zM571.334 196.304l.473-.216.253.424-.474.216zM570.819 195.405l.278-.084.127.328-.278.082zM553.255 141.455l.98.408-.693 1.279-.98-.408zM547.177 140.084l.647-.205.17.417-.236.074.27.657-.354.112.08.195-.381.12-.303-.737.325-.103zM543.497 141.211l1.107-.317.46 1.233-.926.265-.274-.738-.183.053zM292.93 345.978l2.307.028-.026 1.6-2.307-.027zM288.162 344.546l1.042-.084.115 1.098-1.042.083zM288.977 342.825l.675-.063.072.596-.675.063zM292.196 344.4h.778v.5h.721v.731h-1.5zM296.43 347.258l.443.308-.518.57-.441-.309zM297.033 347.931l.452.295-.37.437-.452-.294zM291.716 343.996l.78-.373.26.417-.782.374zM302.645 342.617l.836.01-.011.754-.837-.01zM395.997 371.816l.596-.185.736 1.816.578-.18-.553-1.365.65-.202.743 1.836-1.823.568zM410.139 366.152l1.066-.423.76 1.473-1.066.423zM415.615 363.695l.585-.257.842 1.471-.585.258zM412.085 380.575l2.548-.991.768 1.519-2.548.99zM412.023 378.825l1.466-.558.672 1.357-.554.21-.405-.817-.912.347zM551.358 366.673l3.322 1.595-1.303 2.087-3.323-1.596zM564.373 370.656l.71.28-.316.613-.709-.28zM565.27 370.987l1.172.459-.39.765-.74-.29.015-.155-.378-.148zM571.118 374.084l.547.262.49-.788.6.287.273-.437-1.147-.55zM571.907 372.806l1.172.553 1.187-1.934-1.173-.553zM573.545 372.828l1.013.469.4-.665-1.013-.469zM571.596 375.826l.346.14-.225.43-.347-.141zM577.504 376.348l1.336 1.207-1.868 1.59-1.336-1.208zM584.156 373.291l.372-.102.194.546-.371.102zM585.015 363.815l3.051 2.002 2.08-2.435-3.052-2.003zM566.28 379.269l.187.083-.13.222-.186-.084zM577.537 391.14l.649.369-.312.422-.649-.37zM591.855 405.054l.797.306-.305.61-.797-.306zM577.643 404.047l1.052.124-.069.447-1.052-.124zM579.824 397.01l.42.017-.038.696-.419-.016zM582.501 396.348l.404.154-.192.387-.403-.153zM634.214 422.942l.706-.317.304.52-.707.317zM634.597 423.605l.233-.1.17.3-.234.101zM635.074 420.93l.413-.306.385.4-.414.306zM635.83 421.802l.467-.268.36.48-.469.269zM461.19 413.118l.683.072-.065.473-.683-.073zM459.713 412.8l.413.042-.06.459-.412-.04zM524.685 135.573l1.087-.833.684.686-1.087.833zM489.835 194.038l1.122-.338.373.955-.506.152.085.219-.615.185zM488.167 193.032l.974-.31.11.269-.182.058.295.712-.528.168.06.145-.659.21-.192-.465.23-.074-.212-.51.165-.053zM475.025 197.731l.611-.826.255.146.262-.354.768.436-.52.702-.426-.242-.353.477zM476.717 198.719l.664-.834.337.206-.664.834zM414.013 126.77l.68-.279.642 1.206-.681.279zM572.474 194.957l.34-.145.32.579-.338.145zM551.663 177.499l.486.24-.327.509-.485-.24zM430.928 356.18l-.52.24-.873-1.448.52-.24zM407.997 362.594l.6-.258.2.36-.598.258zM408.95 361.77l-.148-.215.366-.193.456.662-.37.196.22.32-.342.18-.528-.767zM408.157 363.016l.533-.224.172.317-.276.116-.044-.08-.256.108zM409.986 364.06l.44-.185.294.535-.44.186zM410.673 363.318l.426-.171.387.738-.47.189-.054-.102-.32.128-.195-.373.364-.145zM412.503 362.817l.718-.304.461.837-.718.304zM413.585 362.809l.316-.132.269.495-.317.132zM411.367 363.387l.552-.217.317.62-.551.217zM408.718 364.224l.631-.256.273.518.402-.163.276.523-.899.365-.191-.055zM408.564 363.793l.654-.256.192.377-.654.255zM414.36 362.658l.537-.232.296.53-.537.231zM414.206 362.138l.347-.14.217.409-.347.14zM415.076 362.296l.301.587.658-.26-.398-.773-.472.186.096.187zM414.672 361.998l.423-.199-.211-.346-.25.117-.03-.051-.175.081zM414.079 360.652l.379-.15.31.608-.379.15zM416.09 361.96l.358-.145-.279-.53-.359.146zM416.277 361.39l.66-.27.134.253-.114.047.278.521-.545.224zM416.323 360.704l.37-.147.25.48-.37.148zM414.897 359.393l.496-.136.228.639-.497.136zM415.15 357.23l1.61-.553.407.911-.27.093.404.905-1.34.46zM418.687 357.565l.569-.224.316.619-.569.223zM417.621 356.227l.798-.3.27.55-.797.301zM417.764 357.613l.349-.115.27.626-.348.116zM418.808 358.386l.541-.204.248.504-.54.205zM418.316 358.94l.387-.14.162.343-.387.14zM421.249 358.991l.726-.336.582.967-.726.336zM421.005 358.565l.218.357.74-.347-.218-.356zM420.897 357.625l.49-.203-.036-.067.435-.179.23.43-.203.084.082.153-.721.298zM420.093 356.826l.389-.164.19.346-.39.164zM419.774 356.009l.715-.311.283.5-.303.132-.088-.156-.413.18zM420.554 355.684l.252.438.693-.306-.252-.437zM421.563 355.413l.243.46.639-.258-.243-.461zM421.197 357.354l.657-.298-.123-.21.218-.099-.349-.59-.722.327.223.379-.153.069zM423.423 358.67l.323.578.386-.166-.323-.578zM426.038 357.474l.375.655.65-.288-.374-.654zM426.81 357.198l.512-.22.344.618-.513.22zM424.01 358.609l.282-.113.206.394-.283.113zM418.852 360.142l.63-.256.536 1.013-.63.256zM419.235 359.285l.605-.234.252.503-.545.21-.073-.145-.295.113.087.173-.376.146-.223-.444.612-.236zM420.244 359.826l.42-.172.405.76-.42.172zM411.88 362.05l.754-.307.17.322-.753.307zM412.038 365.229l.613-.246.494.946-.613.246zM413.436 364.646l.609-.231.41.829-.608.232zM414.236 364.385l.492-.197.36.688-.494.197zM414.566 365.22l.263-.1.178.36-.262.1zM414.79 364.157l.324-.137.275.502-.323.137zM416.803 364.176l.32-.14.246.431-.32.14zM417.095 363.368l.285.522.486-.203-.285-.522zM417.218 364.042l.679-.288.123.225-.235.1.209.38-.443.187zM417.632 362.948l.203.372.39-.164-.203-.371zM417.85 363.363l.084.148.422-.183.377.67.54-.232-.461-.818zM418.797 362.468l.57-.228.358.69-.569.227zM419.416 362.186l.514-.2.312.616-.513.2zM420.148 361.959l.307-.133.238.42-.308.134zM420.809 362.04l.378-.152.338.644-.378.152zM420.492 363.647l.68.056-.04.371-.194-.016-.03.28-.486-.041zM420.009 363.418l.446.067-.08.412-.446-.067zM421.952 363.363l.613-.25.297.56-.613.25zM422.672 364.233l.378-.145.257.515-.378.146zM417.82 364.955l.66-.276.12.22-.238.1.088.159-.424.177zM418.848 365.154l.218.407.55-.227-.219-.407zM418.064 365.418l.387-.17.25.435-.387.17zM418.205 366.003l.513-.216.197.36-.514.216zM418.535 366.807l.69-.238.152.336-.16.055.084.186-.532.184zM417.59 367.226l.753-.319.174.316-.754.319zM419.981 366.456l.408-.169.192.356-.408.169zM423.003 365.166l.466-.2.305.482-.483.223zM423.465 365.707l.298-.15.164.252-.298.15zM421.91 365.176l.365-.074.093.355-.365.074zM422.039 365.735l.41-.038.055.444-.412.039zM422.541 366.257l.403-.034.048.433-.402.035zM424.017 366.892l.786-.309.376.736-.786.309zM426.062 366.514l.176.449.842-.254-.175-.449zM426.677 365.916l.132.29.389-.136-.133-.29zM423.386 367.249l.32-.089.132.368-.32.089zM422.33 367.644l.57-.236.255.472-.57.237zM416.241 366.952l.53-.228.276.492-.254.108.103.185-.276.12zM416.909 367.579l.57-.238.267.49-.571.238zM415.017 367.383l.626-.25.237.457-.627.249zM413.334 367.468l.534-.395.218.226-.534.395zM413.855 366.954l.296.306.586-.434-.296-.306zM413.719 368.06l.578-.293.357.543-.579.292zM411.459 368.147l.399-.235-.155-.202.457-.268.394.514-.856.503zM412.045 368.514l.346.39.587-.4-.347-.39zM412.025 369.392l.634-.27.26.468-.635.27zM412.926 369.139l.432-.184.213.385-.432.184zM412.61 368.797l.241.311.523-.311-.241-.31zM413.514 368.812l.432-.184.214.385-.433.184zM413.648 369.653l.674-.282.305.56-.674.282zM412.409 370.15l.497-.191.234.466-.497.191zM412.925 369.79l.307-.1.178.416-.307.1zM414.574 369.358l.48-.208.268.477-.479.208zM415.013 369.067l.345-.148.31.561-.346.147zM416.662 366.408l.23-.082.176.376-.231.082zM422.272 360.994l.865-.374.737 1.306-.865.375zM423.614 360.478l.615-.26.529.963-.616.26zM424.549 360.033l.8-.32.33.635-.801.32zM425.792 360.65l.436.707.446-.212-.436-.707zM426.333 359.328l.395-.158-.063-.121.797-.32.49.94-.761.306-.174-.335-.431.173zM428.62 358.361l.572-.248.407.72-.572.248z" clip-path="url(#pc85a556138)" style="fill:#a9a9a9;fill-opacity:.8"/><path d="m429.226 358.043.351-.157.749 1.292-.662.295-.271-.466.311-.139zM429.73 358.042l.743-.33.402.699.126-.056.273.475-.869.385zM431.455 357.542l.403.753 1.583-.654-.405-.75zM432.37 358.176l1.083-.448.436.81-.148.061.327.608-.723.299-.33-.612-.212.088zM431.854 359.278l.753-.307.492.93-.754.307zM434.66 357.395l1.044-.44.27.496.207-.086.27.494-.388.163-.087-.16-.862.363zM430.469 359.42l.453-.198.308.54-.453.198zM430.205 360.383l.499-.209.27.495-.5.208zM424.2 361.814l.427-.178.12.22-.428.178zM438.241 357.265l.16.669 1.078-.198-.16-.668zM437.52 357.367l.295-.107.234.494-.296.108zM436.88 357.503l.427-.164.268.537-.427.163z" clip-path="url(#pc85a556138)" style="fill:#a9a9a9;fill-opacity:.8"/><path d="m436.435 357.751.371-.153.287.538-.613.252-.22-.412.242-.1zM405.774 368.428l.172-.093.197.073.023.213-.186.102-.217-.09zM403.142 369.204l1.594-.654.135.253.267-.109.144.271-.285.117.259.483-1.577.646zM402.472 369.406l.417-.198.277.448-.416.2zM399.964 370.625l.433-.188.335.594-.433.188zM400.232 371.567l.636-.249.157.31-.636.249zM398.908 369.306l.475-.195.272.508-.475.196zM400.801 370.903l.363-.148.32.603-.362.148zM401.414 369.996l.481.814.424-.193-.481-.814zM402.115 369.647l.312-.148.271.44-.31.148zM402.39 370.295l.4-.186.168.28-.4.185zM403.164 370.662l.386-.147.178.359-.385.147zM405.06 371.8l.695-.277.209.403-.695.277zM402.873 372.894l1.198-.523.445.783-1.198.523zM402.563 373.866l.496-.21.465.85-.497.208zM405.975 373.128l.424-.17.226.438-.424.169zM404.818 373.534l.362-.139.223.444-.362.14zM404.233 372.424l.356-.143.215.411-.357.143zM407.435 372.593l.332-.134.216.41-.333.134zM407.069 372.36l.17-.065.126.255-.17.065zM407.736 371.766l.564-.163.23.612-.333.096-.051-.137-.231.067zM408.003 371.038l.312-.095.125.316-.312.095zM409.768 369.965l.657-.29.278.484-.657.29zM409.297 370.072l.332-.163.232.364-.331.163zM410.8 371.207l.629-.261.196.362-.629.261zM410.116 371.125l.4-.138.182.407-.4.137zM398.96 372.25l.465-.187.191.365-.464.188zM399.142 372.814l.546-.227.215.397-.546.227zM398.852 373.403l.826-.236.234.629-.826.236z" clip-path="url(#pc85a556138)" style="fill:#a9a9a9;fill-opacity:.8"/><path d="m398.934 373.705.133.355.9-.259.144.381-1.39.4-.277-.736zM398.872 375.074l1.064-.307.56.767-1.166.531zM399.788 374.378l.833-.337.228.432-.833.337zM400.059 374.87l.752-.313.2.369-.692.29zM398.29 374.962l.362-.14.214.429-.363.14zM398.04 375.458l.362-.107.16.418-.361.106zM398.206 376.335l.433-.172.235.454-.433.172zM396.615 375.266l.46-.132.262.699-.46.132zM397.175 376.792l.347-.105.174.443-.347.105zM396.142 369.982l.469-.08.12.54-.468.08zM395.361 370.322l.52-.108.096.353-.52.109zM392.481 368.886l.665-.023.037.854-.664.023zM391.712 368.828l.55.001-.003.99h-.55zM390.383 370.557l.528-.01.01.476-.528.009zM389.571 370.098l.646.05-.052.51-.646-.051zM399.833 368.801l.632-.26.26.483-.633.262zM399.817 368.745l.568-.235-.182-.336-.24.1-.158-.291-.327.136zM399.223 366.956l.907-.473.298.441-.523.272.222.328-.384.2zM398.957 367.324l.352-.182.432.644-.352.181zM400.819 368.002l.403-.176.474.84-.403.174zM402.147 368.468l-.418.18-.296-.524.418-.181zM402.23 367.883l.486-.217.27.464-.422.189-.147-.253-.065.028zM402.904 366.863l.57-.242.365.66-.57.242zM404.243 366.73l.649-.236.286.607-.649.235zM404.866 366.356l.521-.189.347.736-.52.189zM405.364 365.973l.496-.187.434.885-.496.187zM403.53 363.901l.315-.171.508.717-.316.172zM404.232 364.728l.608-.38.251.309-.09.056.375.46-.389.243-.108-.134-.146.092-.15-.185.076-.047-.17-.21-.06.038zM405.908 365.494l.721-.28.46.912-.72.28zM406.767 365.312l.418.783.535-.22-.417-.783zM407.456 365.282l.343.657.784-.315.052-.14-.443-.847-.483.194.151.29zM407.36 364.377l.223.41.547-.229-.224-.41zM406.227 363.383l.733-.303.26.482-.734.303zM406.442 362.632l.288.488.447-.204-.288-.487zM405.568 362.567l.614-.243.217.42-.614.244zM405.93 362.982l.484-.2.164.308-.484.198zM400.607 365.284l.649-.33.295.445-.65.33zM400.64 366.378l.737-.367.243.375-.737.367zM401.878 365.67l.267.366.575-.322-.268-.367zM388.738 368.851l.797-.104.067.391-.797.105zM387.57 369.04l.925-.078.047.428-.925.077zM434.032 356.11l.557-.174.337.832-.559.173zM434.607 355.887l.22-.065.235.599.209-.063.117.297-.43.128z" clip-path="url(#pc85a556138)" style="fill:#a9a9a9;fill-opacity:.8"/><path d="m434.844 355.734.286-.083.202.532-.286.083zM435.205 355.666l.424-.131.359.89-.423.132zM435.631 356.598l.335-.107.167.404-.334.107zM436.032 355.525l.455-.146.306.737-.246.079.101.244-.468.15-.263-.631.26-.083zM436.553 355.266l.486-.148.2.507.246-.075.128.322-.732.223zM437.39 355.001l.316.707.522-.18-.317-.706zM438.227 355.414l.47-.146.29.712-.471.147zM439.11 355.01l-.356.12-.206-.472.357-.12zM441.562 353.52l.42-.094.159.542-.42.095zM441.558 354.382l.752-.162.107.384-.753.161zM439.845 356.857l.49-.081.126.582-.49.081zM441.604 356.961l.687-.11.119.565-.687.11zM443.069 356.744l.633-.118.105.44-.633.117zM444.245 356.55l.655-.122.117.482-.382.07-.029-.117-.273.05zM436.57 350.883l.519.072-.155.865-.52-.072zM437.731 350.893l.591-.003.004.634-.59.003v-.228h-.188v-.167h.185zM437.686 350.263l.007.39.445-.006.005.218.399-.005-.003-.105.196-.003-.01-.52-.264.003-.001-.078-.255.004.002.095zM439.663 350.646l.754-.162.246.883-.754.161zM441.425 351.44l.708-.186.157.72-.697-.042zM441.06 350.452l.44-.11.053.162.215-.053.099.305-.657.163zM442.884 350.836l.426-.2.163.268-.425.2zM443.435 350.285l.513-.187.218.46-.513.187zM442.793 350.423l.322-.143.108.184-.323.144zM442.817 349.302l.386-.163.283.516-.385.162zM443.267 348.796l.865-.17.176.684-.865.17zM445.875 349.837l.645-.17.146.432-.644.168zM456.219 353.739l1.659-.12.113.85-1.66.119zM454.735 353.188l.457-.025.023.334-.457.024zM437.521 348.807l.705.035-.043.662-.704-.034zM437.52 348.378l.41.026-.028.345-.41-.027zM438.362 348.436h.425v.148h.195v.283h-.62zM439.302 348.632l.72.01-.006.368-.388-.005.001-.107-.331-.004zM451.878 344.446l.522-.378.377.399-.522.379zM450.741 343.015l.224-.086.07.139.137-.053.135.271-.476.183-.134-.27.114-.044zM452.105 345.55l.507-.49.389.813-.495.26zM452.695 346.614l1.418-.611.174.31-.693.3.073.13-.723.313zM452.593 344.972l.478-.253.742 1.324-.478.253zM454.362 344.599l2.742-.279.06.45-2.742.28zM457.035 345.055l.463-.021.057 1.39-.463.02zM455.181 346.25l.522-.332.443.534-.521.332zM454.292 345.228l.247-.159.66 1.026-.246.159zM454.117 346.628l.402-.178.216.375-.402.178zM454.577 347.086l.489-.156.198.477-.489.156zM435.82 324.782l.504-.04.068.652-.503.04zM434.757 327.059l-.886.034.03.34.87-.083zM465.195 348.48l.387-.008.011.365-.204.004-.002-.073-.183.005zM465.177 349.076l.62.003-.002.365-.304-.001v-.05l-.316-.002zM465.163 349.657l.621.003-.002.365h-.304v-.051l-.316-.001zM467.135 347.672l.528-.016.025.653-.527.016zM468.94 347.451l.564-.013.02.616-.564.015zM470.327 347.848l-.417.007-.01-.47.417-.006zM470.57 347.397l.374-.013.019.434-.374.013zM471.478 347.257l.585-.035.052.662-.585.035zM472.382 347.243l.491-.026.035.52-.49.025zM468.562 352.729l.006-.232.5.01-.005.232zM469.568 352.783l.867.023.076-2.21-.867-.022zM470.471 352.08l.673.018-.025.726-.673-.018zM465.114 350.86l.621.003-.002.366-.305-.002.001-.05h-.317zM464.466 351.092l-.627.01-.007-.32.304-.004v-.056l.321-.006zM478.179 337.982l.631-.045.044.48-.631.044zM478.344 339.057l.65-.045.037.413-.162.01.014.156-.488.034zM478.894 340.231l.556-.202.056.118.167-.061.24.506-.724.263zM480.03 341.67l.545-.328.283.361-.544.328zM482.805 338.38l.836-.453.22.31-.254.138.09.126-.583.316zM435.114 358.225l.385.736.874-.365-.397-.734zM475.615 346.926l.773.159-.24.896-.772-.159zM488.306 334.078l.324-.041.06.362-.323.041zM487.772 332.264l.729-.038.04.59-.73.038zM501.085 329.983l1.01.021-.007.278-1.01-.02zM500.465 329.666l.37.056-.04.212-.372-.055zM439.8 358.786l.21.699.378-.088-.21-.699zM440.264 358.894l.618-.138.32 1.096-.62.14zM441.237 358.827l.22.778.552-.12-.22-.778z" clip-path="url(#pc85a556138)" style="fill:#a9a9a9;fill-opacity:.8"/><path d="m440.656 359.976.233.791.545-.123-.233-.792zM442.61 359.133l.615-.006.007.528-.616.006zM442.577 359.96l.581-.025.027.471-.58.026zM443.409 358.284l.546.022-.036.664-.546-.023zM444.56 359.845l-.668-.008-.005.424.667.008zM444.107 360.488l.527.002-.003.449-.527-.002zM444.975 357.83l.59-.082.105.578-.591.082zM446.322 357.703l.446.017-.032.659-.446-.017zM430.724 357.203l.45-.185.238.444-.446.186zM431.174 357.018l1.58-.652.282.524-1.581.652zM425.122 364.542l.6.822.732-.41-.6-.822zM426.186 363.958l.187.519.602-.167-.187-.519zM415.861 381.027l1.178-.435-.713-1.331-.588.244.31.544-.651.271zM408.285 387.838l-.411.157-.359-.832.385-.09zM460.438 413.366l.536.03-.05.651-.315-.018-.014.173-.2-.012.028-.366.082.005.017-.232-.102-.005zM460.382 411.82h-.302v-.259h.302zM450.311 362.1l.277-.017.027.353-.277.016zM450.939 361.946l-.401.074-.109-.455.401-.074zM446.085 358.384h.314v.448h-.314zM438.79 361.777l.052-.393.648.065-.051.393zM438.683 361.24l-.085-.397.79-.13.085.398zM437.893 360.249l.759-.096.079.483-.76.096zM438.365 359.956l-.085-.366.326-.059.085.367zM437.638 359.2l1.186-.104.033.296-.805.07.015.133-.38.033zM436.103 360.2l-.38-.596.411-.2.38.596zM435.847 361.437h.35v.245h-.35zM436.857 363.18l-.004-.399.603-.004-.002-.17.49-.004.006.569zM438.83 363.006l.021-.432.543.02-.022.433zM439.42 364.113l-.461.023-.039-.59.46-.024zM438.443 364.69l-.535.027-.024-.365.535-.027zM432.865 361.386l-.063-.477.403-.041.063.478zM433.342 362.34l-.41.014-.027-.635.41-.013zM433.612 362.864l-.33.01.01.236.445-.015-.01-.235z" clip-path="url(#pc85a556138)" style="fill:#a9a9a9;fill-opacity:.8"/><path d="m433.589 362.32.023.544.393-.013-.023-.544zM433.416 362.007l.553-.018.013.318-.553.018zM433.973 361.546l-.414.033-.077-.74.413-.033zM433.942 363.495l-.078-.417.992-.143.078.417zM434.275 363.99l-.604.035-.023-.311.604-.034zM434.453 363.685l.511-.04.03.282-.512.041zM432.74 363.171l-.351-.064-.1.419.351.063z" clip-path="url(#pc85a556138)" style="fill:#a9a9a9;fill-opacity:.8"/><path d="m433.092 363.048-.109.458-.31-.056.109-.459zM432.725 362.565l-.65-.035.028-.411.65.034zM432.61 361.702l-.528-.011.016-.544.527.012zM431.51 361.9l-.241-.483.392-.15.24.482zM432.013 362.64l-.54.027-.038-.57.54-.028zM430.587 361.73l.643-.015.016.557-.644.013zM430.138 362.524l-.294-.57.472-.188.294.57zM430.417 363.115l-.17-.469.268-.075.17.469zM432.338 365.485l.046-.333.698.075-.047.333zM430.107 365.214l.42-.244.395.523-.42.243zM430.82 365.234l-.271-.462.432-.195.271.462zM429.325 363.414l-.341-.673.477-.186.34.673zM428.418 363.577l-.364-.809.69-.239.364.809zM427.822 364.195l.34-.238.306.336-.34.238zM427.243 364.15l.332-.127.137.276-.083.032.081.162-.248.096zM428.147 363.78l-.491.177-.302-.645.49-.177zM409.477 368.48l-.388-.754.602-.237.387.754zM420.307 363.047l-.194-.348.333-.143.194.348zM419.377 364.256l-.325-.034.014-.104.326.034zM419.68 363.977l-.26.078-.148-.38.26-.078zM427.953 360.378l-.2-.367.231-.098.201.366zM427.179 360.697l-.132-.265.211-.081.132.265zM487.21 329.846l-.177-.316.472-.204.177.316zM434.902 325.893l.047-.398.534.047-.046.398zM433.6 326.11l-.038-.944.313-.01.039.944zM400.483 329.214l.129-.85 1.456.17-.129.85zM420.555 355.243l-.109-.184.21-.095.108.183zM414.97 360.703l-.098-.228.31-.102.098.229zM415.427 360.758l-.163-.421.45-.134.162.421zM387.515 371.128h-.119v.078h-.26v-.056h-.269l-.001-.23h-.118l-.001-.231.388-.001v.12l.38-.001zM386.348 371.836l-.131-.517.57-.111.132.516zM387.077 371.734l-.093-.4.383-.069.093.4zM387.747 371.68l-.158-.486.488-.122.158.485zM385.28 370.65l-.02-.343.526-.024.02.344zM384.21 370.644l.046-.354.62.06-.046.355zM385.512 372.213l-.147-.666.508-.086.147.665zM385.063 372.366l-.055-.38.39-.043.055.38zM371.056 339.844l-.05-.282.367-.051.051.282zM377.614 352.764l-.782-.53.433-.492.782.53zM376.832 355.576l-.116-.424.519-.11.115.425zM379.155 355.473l-.666-.319.271-.435.667.32zM365.005 371.49l.308.009.005-.143.818.021-.01.283.088.002-.011.33-.512-.013-.004.107-.057-.001-.012.345-.404-.01.02-.625-.239-.006zM365.745 370.934l.01-.112.774.05-.04.475-.76-.049.006-.075-.418-.027.024-.288zM351.68 373.273l-.384-.016.018-.341.384.015z" clip-path="url(#pc85a556138)" style="fill:#a9a9a9;fill-opacity:.8"/><path d="m351.653 373.805-.682-.027.028-.532.682.027zM352.854 376.264l-.596-.034.042-.575.596.034zM353.939 376.257l-.636-.007.008-.526.635.007zM355.277 375.466l-.012.732-.39-.004-.005.287-.457-.006.004-.241-.075-.001.007-.413.388.005.006-.365zM361.105 373.46l-.45-.123.147-.415.45.123zM362.081 373.622l-.362-.088.117-.367.361.088zM361.954 375.063l-.325-.133.163-.306.324.132zM361.818 375.32l-.868-.353.136-.258.868.354zM362.445 374.403l.59.122-.165.607-.588-.122zM364.374 374.81l-.077.395-.343-.052.078-.394zM364.956 374.675l-.53-.083.124-.61.53.082zM365.823 375.789l.394.097-.123.387-.395-.097zM366.784 376.081l-.51-.104.118-.435.508.104zM380.085 377.68l-.276.017-.009-.107-.109.007-.02-.27.093-.006-.009-.11.291-.018zM380.24 377.774l-.146.01-.048-.591.441-.027.048.59z" clip-path="url(#pc85a556138)" style="fill:#a9a9a9;fill-opacity:.8"/><path d="m380.267 378.112-.027-.338.372-.022.027.336zM381.692 378.984l.02-.353.639.027-.02.353zM381.07 376.075l.35-.16.197.334-.086.04-.056-.096-.263.12zM382.49 375.715l.171.83-.312.049-.03-.148-.133.02-.141-.68zM383.424 377.786l-.375-.116.248-.618.375.116zM384.776 374.077l-.14-.434.312-.077.139.434zM385.187 373.867l-.074-.54.518-.054.073.54zM385.841 375.038l-.498.015-.024-.611.5-.015zM389.75 373.65l-.049-.38.419-.04.048.379zM389.544 373.085l-.086-.488.577-.078.086.488zM390.543 373.419l-.266.015-.046-.632.266-.015zM390.728 373.51l-.073-1.052.455-.024.034.494-.095.005.038.558zM390.803 373.647l.647-.036.01.155-.224.013.01.142-.422.023zM390.555 374.505l-.06-.503.554-.051.06.503zM390.602 374.923l-.037-.354.554-.045.037.355zM392.5 373.133l-.035-.271.414-.041.035.271zM392.32 372.73l-.348.04-.075-.488.349-.041zM392.848 372.668l-.528.062-.074-.49.528-.061z" clip-path="url(#pc85a556138)" style="fill:#a9a9a9;fill-opacity:.8"/><path d="m392.848 372.668-.074-.489.666-.078.074.489zM393.756 373.563l.153 1.373-.815.07-.106-.95-.518.044-.033-.297.512-.044-.014-.126zM396.757 377.426l-.21-.486.46-.152.209.485zM396.003 377.618l-.242-.827.424-.095.046.157.131-.03.133.457-.118.026.063.214zM395.06 376.96l-.163-.42.48-.144.163.422zM395.884 377.756l-.248.068.056.156-.242.067-.17-.474.136-.039-.108-.301.352-.098zM394.909 378.261l-.174-.51.39-.102.174.51zM394.85 377.561l-.104-.228.197-.069.104.228zM394.676 377.623l-.104-.228.174-.062.104.228zM393.809 377.84l-.172.05-.09-.234.173-.05z" clip-path="url(#pc85a556138)" style="fill:#a9a9a9;fill-opacity:.8"/><path d="m393.809 377.84-.09-.235.195-.056.089.234zM394.425 378.465l-.346.077-.147-.51.345-.076zM393.79 378.934l-.163-.544.334-.077.163.544zM392.58 379.314l-.069-.49.34-.037.07.49zM393.263 379.205l-.14-.503.405-.086.14.503zM393.069 378.574l-.062-.327.383-.055.062.326zM392.366 377.795l.868-.04.018.312-.346.016.009.138-.522.023zM392.511 377.487l.349-.027.023.235-.348.027zM393.797 380.468l-.192-.446.41-.135.193.446zM394.022 381.331l-.248-.7.449-.122.248.7zM401.258 377.514l-.218-.343.355-.173.217.343zM401.85 376.323l.389.667-.396.178-.123-.212-.253.113-.266-.455zM400.274 378.465l-.123-.23.364-.15.123.23zM399.766 377.893l-.08.034.171.307.521-.224-.134-.24-.44.189z" clip-path="url(#pc85a556138)" style="fill:#a9a9a9;fill-opacity:.8"/><path d="m399.94 377.223.304.547-.44.189-.306-.547zM399.314 377.429l.368.585-.149.072.067.106-.161.077-.127-.201-.237.114-.064-.102-.051.024-.244-.387zM397.272 378.59l-.099-.22.236-.081.099.22zM397.458 378.207l.423-.197.287.476-.424.196zM398.317 378.563l-.336-.58.451-.202.338.58zM398.724 379.093l-.193-.314.352-.167.194.315zM398.38 379.595l-.237-.465.399-.155.236.465zM397.67 380.866l-.259-.472.417-.176.26.472zM397.256 380.197l-.192-.354.45-.187.192.354zM396.943 379.626l-.202-.368.469-.197.201.368zM396.594 379.11l-.197-.328.473-.218.196.328zM396.025 379.253l-.152-.289.387-.156.152.288zM395.779 379.046l.333.571-.235.106-.09-.153-.149.067-.244-.419zM395.346 380.625l-.192-.399.531-.197.192.399zM395.94 380.309l-.206-.401.482-.19.205.4zM395.528 380.97l.55-.206.189.384-.55.207zM396.447 381.019l-.287-.547.405-.164.287.547zM395.776 381.386l.744-.252.153.347-.744.251zM398.1 381.477l-.13-.463.643-.139.13.463zM397.252 382.068l-.03-.234.275-.027.03.234zM396.38 382.309l-.089-.32.381-.082.09.32z" clip-path="url(#pc85a556138)" style="fill:#a9a9a9;fill-opacity:.8"/><path d="m396.486 382.686-.106-.377.635-.136.105.377zM396.791 382.832l.597-.122.157.59-.596.122zM397.907 383.22l-.09-.49.378-.053.09.49zM398.383 383.097l-.123-.598.384-.06.124.596zM399.15 382.153l.213.788-.372.077-.213-.788zM399.447 382.214l.344-.099.097.258.168-.048.159.427-.401.115-.158-.423-.112.032zM399.352 381.865l-.077-.194.321-.098.077.193zM400.715 382.57l-.213-.465.347-.121.212.465zM400.812 381.216l.312.556.065-.029.26.462.633-.274-.258-.459-.163.07-.026-.048-.063.027-.062-.112-.13.056-.224-.398zM401.858 381.276l-.105-.183.225-.098.104.183zM402.38 381.66l-.236-.52.387-.134.236.52zM402.83 379.355l-.245-.453.62-.257.245.451zM401.478 380.21l-.352-.612.485-.213.351.611zM402.01 380.662l-.237-.523.503-.175.236.523zM402.342 379.848l.588-.28.282.456-.453.214-.069-.112-.136.065zM402.721 380.611l-.127-.24.272-.112.127.241zM403.341 380.333l-.129-.264.488-.184.13.264zM403.016 381.029l-.217-.398.419-.175.217.397zM403.795 381.192l-.203-.392.538-.214.203.392zM413.362 375.34l-.217-.416.577-.231.217.416zM411.856 375.111l.449-.197.168.297-.354.155.081.143-.267.117-.116-.202.174-.077zM412.298 374.084l.796-.278.242.533-.323.112-.05-.108-.182.064-.108-.24-.29.103zM411.437 374.169l-.216-.41.57-.23.216.409zM412.359 373.673l-.188-.362.64-.255.187.363zM411.723 372.977l.679-.238.157.347-.677.237zM410.956 373.276l-.332-.625.528-.217.333.625zM410.608 374.413l-.233-.481.558-.208.232.482zM410.108 373.419l-.256-.486.512-.207.256.485zM409.88 374.203l-.11-.203.353-.146.109.203zM409.752 373.249l.306.608-.323.124-.306-.607zM409.535 373.73l-.402.148-.24-.506.402-.147zM409.05 374.37l-.212-.391.244-.103.214.39zM408.37 375.266l-.528-1.012.56-.224.526 1.012zM406.824 374.889l-.283-.52.482-.202.283.52zM407.397 375.26l-.175-.368.24-.087.174.367zM406.247 375.229l.45-.19.133.241-.086.037.05.092-.365.153zM405.956 375.3l-.294-.57.423-.169.294.571z" clip-path="url(#pc85a556138)" style="fill:#a9a9a9;fill-opacity:.8"/><path d="m405.956 375.3-.316.125-.294-.57.316-.126zM406.866 376.22l-.232-.492.38-.138.232.492zM405.848 375.888l.431-.182.322.587-.432.182zM405.018 375.038l.281.528-.223.092-.063-.119-.127.053-.219-.41zM405.44 376.166l-.133-.21.236-.116.134.21zM405.867 376.947l-.194-.282.246-.13.193.282zM404.708 376.75l-.197-.4.275-.105.198.4zM405.123 377.31l-.314-.469.647-.332.314.469zM404.275 375.84l-.229-.431.346-.141.229.431zM404.054 375.993l-.373.136-.24-.506.373-.136zM403.566 376.515l-.213-.349.23-.109.214.35zM402.927 376.57l-.295-.591.404-.154.295.59zM403.194 376.96l-.14-.258.34-.143.141.259zM403.593 377.551l-.228-.43.477-.194.228.43zM403.679 377.626l.712-.275.283.565-.712.275zM404.124 378.635l.554-.245.244.426-.554.244zM405.173 378.407l-.352.14-.225-.439.353-.14zM405.135 379.946l-.273-.496.592-.251.273.495zM405.503 380.271l-.188-.34.383-.162.188.34zM406.102 379.138l.258.471-.14.059.147.266-.375.158-.321-.587.258-.108-.083-.151zM406.85 378.864l-.04-.076-.356.147.17.314-.228.094.171.319.109-.045.16.3.474-.196zM406.026 378.086l.024.054-.285.099.219.488.39-.134-.04-.089.196-.067-.204-.454zM406.026 378.086l-.146-.324.484-.167.145.325z" clip-path="url(#pc85a556138)" style="fill:#a9a9a9;fill-opacity:.8"/><path d="m407.372 379.838-.522-.974.588-.242.522.973zM407.776 378.835l.419-.165.325.63-.418.167zM407.207 378.054l-.176-.337.558-.224.176.337zM406.957 377.02l-.157-.364.467-.154.035.08.17-.056.122.283zM407.443 377.473l-.184-.45.635-.2.185.45zM407.792 377.453l.391-.136.106.233-.392.136zM407.994 378.115l.145.305.18-.066.231.489.369-.134-.245-.517-.15.055-.132-.277zM409.353 377.956l-.085-.2.31-.102.085.2zM408.408 377.596l-.294-.632.727-.26.295.631zM410.572 377.512l.357.572-.39.188-.158-.252.134-.064-.2-.321zM410.647 377.346l.458-.204.228.395-.322.142-.101-.175-.137.061zM411.324 378.261l-.247-.537.402-.142.247.536zM411.73 377.514l.645-.263.257.486-.577.235-.07-.134-.069.028zM411.398 377.34l-.163-.407.343-.105.162.408zM412.297 376.55l-.163-.317.465-.184.163.317zM412.855 377.602l-.275-.515.727-.3.276.516zM414.023 376.762l.156.34-.27.095-.156-.34z" clip-path="url(#pc85a556138)" style="fill:#a9a9a9;fill-opacity:.8"/><path d="m413.548 376.307.61-.214.067.146.093-.033.076.166.117-.042.256.56-.366.13-.068-.148-.224.079-.158-.346-.143.05-.066-.142-.086.03zM403.906 387.14l.27.517-.556.222-.176-.338.126-.05-.094-.18zM404.442 387.318l-.245-.482.401-.156.244.482zM403.814 386.819l-.248-.482.388-.153.248.481zM404.565 386.534l-.172-.373.542-.193.173.372zM405.162 387.182l-.217-.468.422-.15.217.468zM405.619 386.724l-.15-.353.453-.15.15.354zM407.215 386.548l-.302-.497.319-.149.302.496zM406.311 385.512l.578-.224.287.568-.577.224z" clip-path="url(#pc85a556138)" style="fill:#a9a9a9;fill-opacity:.8"/><path d="m406.138 385.169.577-.224.174.343-.578.224zM406.15 385.454l-.508.234-.208-.347.507-.234zM405.797 384.958l.62-.21.067.15-.62.21zM406.084 384.754l-.142-.301.422-.153.142.301zM405.186 383.94l.567-.225.232.447-.349.14.069.132-.148.059-.074-.143-.07.028zM405.065 383.786l-.28-.482.585-.26.28.482zM403.64 382.788l-.245-.38.326-.16.243.38zM404.124 382.75l-.349-.648 1.09-.45.349.648zM404.104 383.558l.517-.18.141.31-.26.09-.046-.102-.258.09zM404.02 383.525l-.284-.53.369-.151.283.53zM403.45 383.8l-.2-.323.364-.173.2.323zM403.464 383.944l.538-.14.137.403-.154.04-.053-.154-.383.1zM402.907 383.161l-.251-.485.318-.127.252.486zM402.563 382.72l.314.601-.365.147-.313-.602zM401.97 383.542l-.21-.547.411-.12.21.546zM401.424 384.136l-.112-.435.348-.069.112.435zM400.824 384.285l-.113-.329.327-.085.07.207.1-.026.041.122zM400.642 383.888l-.12-.404.465-.105.12.404zM400.13 384.082l-.14-.465.38-.088.14.465zM399.067 384.393l-.171-.559.204-.048.024.077.431-.101.148.481zM397.81 384.71l-.368-.193.26-.38.368.193zM398.403 384.95l-.075-.311.465-.085.074.312zM398.833 385.583l-.268-.448.465-.214.267.449zM398.914 385.688l.462-.204.282.493-.461.204zM399.154 386.72l-.228-.35.503-.253.07.106.1-.05.159.245zM399.352 387.182l-.182-.277.318-.16.182.278zM400.03 387.665l-.283-.384.333-.19.283.384zM399.584 387.947l-.232-.347.366-.189.233.346zM400.32 388.177l-.19-.28.518-.272.191.28zM399.786 388.466l-.186-.255.364-.204.186.255zM399.29 389.906l-.271-.57.395-.145.272.57zM399.82 389.553l-.329-.547.42-.195.33.547zM400.53 389.108l-.357-.527.384-.2.357.527zM400.556 388.219l.422-.175.15.28-.153.064.05.092-.269.111zM402.578 388.235l-.244-.462.46-.187.245.462zM403.202 387.617l-.276.126-.294-.496.275-.126zM395.3 384.876l-.026.31-.62-.04.026-.31zM395.292 385.596l.02-.404.527.02-.02.405zM394.828 387.335l-.518-.01.031-1.216.517.01zM394.51 388.884l.588.06-.072.54-.454-.046.03-.223-.135-.014zM393.975 392.218l-.486-.073.085-.434.487.073zM393.448 393.482l.12-.406.604.135-.12.406zM390.427 393.95l-.365-.08.31-1.074.365.081zM411.126 384.097l-.194-.422.25-.088-.034-.073.964-.34.205.445-.525.186.023.048zM408.747 380.503l-.229.08.16.351-.155.054.149.328.383-.133zM408.95 380.95l-.301-.664.507-.176.167.367-.264.092.133.296zM409.523 380.777l-.364-.736.502-.19.364.736zM410.034 380.309l-.257-.473.423-.176.257.472zM410.224 380.852l-.203-.367.58-.248.205.367zM410.744 381.624l-.254-.557.465-.164.2.438-.283.099.055.12zM410.798 382.673l-.213-.408.54-.217.214.407zM410.612 382.098l-.132-.227.222-.098.131.227zM409.55 381.494l.682-.234.18.4-.683.234zM409.118 382.06l-.297-.487.304-.143.297.487zM409.457 382.584l-.113-.267.48-.157.114.268zM409.009 382.574l.247-.112.123.21-.247.112zM408.57 382.846l-.2-.377.422-.174.202.377zM408.478 382.313l-.206-.428.33-.122.205.428zM407.978 381.705l-.142-.323.473-.16.142.323zM407.881 381.331l-.094-.21.369-.126.093.21zM407.722 381.06l-.228-.466.329-.124.228.465zM407.3 381.583l-.139-.32.325-.11.14.32zM406.905 381.25l-.135-.32.38-.124.135.32zM406.777 381.386l-.304.12-.186-.36.304-.12zM406.212 381.983l-.14-.263.414-.17.14.263zM406.603 382.568l-.26-.461.513-.222.186.332-.2.086.074.13zM407.695 383.266l-.836.32-.327-.658.591-.226.193.387.244-.093zM407.451 384.19l-.248-.49.473-.184.248.491zM407.82 384.74l-.218-.455.286-.104.217.455zM408.005 385.379l-.293-.528.543-.231.293.528zM408.144 385.515l.527-.224.173.313-.526.224zM409.113 385.868l-.31-.584.397-.162.31.584zM409.74 385.596l-.302-.59.41-.161.303.59zM409.64 384.748l-.207-.48.747-.248.207.48zM411.565 384.893l-.393.15-.129-.26-.198.075-.174-.35.591-.226zM412.22 384.627l-.408.164-.18-.343-.19.077-.15-.286.597-.24zM412.87 384.363l-.411.186-.104-.177-.137.062-.165-.283.11-.05-.051-.088.439-.197zM411.77 380.102l1.418-.523.226.472-1.417.523zM414.722 378.2l-.15-.384.72-.217.15.384zM414.288 383.695l-.224-.46 1.069-.4.224.46zM416.325 382.982l-.503-.904.328-.14.504.903zM414.047 381.949l1.666-.577.255.564-1.666.577zM417.166 380.608l1.054 1.667-.787.383-.589-.932.238-.115-.466-.736zM419.974 369.846l-.101-.441.326-.058.101.442zM419.122 370.158l-.118-.193.317-.15.118.194zM414.063 371.863l-.294-.577.537-.21.294.577zM414.715 372.259l-.209-.394.404-.165.209.394z" clip-path="url(#pc85a556138)" style="fill:#a9a9a9;fill-opacity:.8"/><path d="m414.42 372.38-.21-.395.296-.12.21.394zM415.163 374.98l-.279-.521.612-.252.28.522zM415.55 375.638l1.134-.444.37.726-.374.147-.145-.285-.76.298zM417.13 374.926l-.146-.32.278-.098.147.32zM417.464 375.673l-.302-.638.482-.176.303.639zM416.601 376.833l-.144-.405.482-.131.044.125.15-.04.098.279zM416.759 376.984l.434-.142.107.25-.434.142zM416.588 377.887l-.21-.48.643-.216.21.48zM417.038 378.621l-.28-.57.548-.206.279.57zM418.548 378.92l-.168-.327.395-.156.169.327zM417.844 379.613l-.23-.478.603-.225.231.479zM418.417 380.598l-.213-.421.766-.299.214.42zM418.742 381.12l-.21-.358.573-.258.21.358zM419.16 382.527l-.189-.444.682-.224.19.443zM412.483 385.936l-.201-.421.414-.153.202.421zM413.15 385.82l-.272-.594.415-.146.271.595zM413.544 386.829l-.187-.45.512-.163.186.45zM413.56 386.945l.565-.187.196.454-.367.122-.05-.116-.199.066zM412.026 388.442l-.616-1.189.583-.232.616 1.189zM410.488 386.857l-.194-.47.423-.133.194.468zM409.198 387.485l-.328-.616.546-.224.328.615zM409.895 387.963l-.275-.574.949-.35.275.574zM411.178 387.943l-.163-.268.354-.166.163.269zM410.13 387.934l.534-.195.14.293-.153.056.191.399-.728.267-.234-.49.347-.128zM411.569 388.802l-.272-.475.426-.187.271.476zM410.56 389.666l-.21-.402.345-.139-.092-.177.456-.184.303.58zM410.421 389.874l.661-.268.208.392-.274.111.052.1-.388.156zM411.588 390.106l-.135-.319.281-.092.136.319zM411.94 389.957l-.158-.296.333-.137.158.295zM412.06 389.32l.26.51.264-.104-.145-.284.12-.048-.114-.224z" clip-path="url(#pc85a556138)" style="fill:#a9a9a9;fill-opacity:.8"/><path d="m411.93 389.063.384-.15.131.257-.384.15zM412.789 389.495l-.24-.533.444-.154.24.533zM413.343 389.356l-.268-.578.336-.12.267.578zM414.512 388.782l-.302-.632.476-.175.302.632zM415.988 383.895l.868 1.522-.786.344-.867-1.522zM414.334 385.104l-.263-.58.398-.14.263.581zM415.802 385.746l-.279.11-.201-.39.279-.11zM414.702 385.79l-.145-.347.581-.187.145.347zM414.722 385.895l.635-.227.115.246-.636.228zM414.972 386.137l.74-.302.189.354-.229.093.131.248-.659.269-.222-.419.147-.06zM415.907 388.007l-.302-.733.587-.186.302.733zM417.133 387.03l.573-.215.162.332-.195.073.1.203-.169.064-.05-.103-.21.079zM417.906 387.11l-.474-.95.577-.22.196.39-.19.074.279.558zM417.61 384.795l-.48-.172.21-.448.48.172zM418.533 384.72l-.174-.347.581-.224.174.347zM418.696 385.21l-.151-.306.682-.259.15.306zM418.804 385.814l-.186-.426.604-.204.187.426zM418.967 386.201l-.132-.272.25-.093.132.271zM419.703 386.629l-.233-.51.452-.158.232.51zM418.494 389.319l-.076-.134.17-.074.077.132zM418.033 388.816l.213.322-.369.188-.213-.323zM417.158 388.683l.205.401-.433.17-.205-.4zM417.309 390.853l-.37-.723.415-.163.37.723zM420.61 389l-.225-.45.605-.232.224.45zM421.95 390.908l-.12-.207.426-.19.12.207zM422.36 391.515l-.132-.253.233-.094.133.253z" clip-path="url(#pc85a556138)" style="fill:#a9a9a9;fill-opacity:.8"/><path d="m421.98 391.668-.132-.253.38-.153.132.253zM419.92 391.607l-.124-.226.402-.17.124.226zM420.64 392.504l-.248-.48.48-.19.248.48zM419.598 392.87l-.198-.35.492-.214.198.35zM418.878 392.843l-.177-.234.492-.285.177.234zM419.056 393.193l-.17-.268.27-.132.17.268zM411.81 390.869l.695 1.172-.509.232-.182-.307-.114.052-.248-.419.146-.066-.265-.446zM413.033 392.337l-.172-.366.565-.204.173.366zM413.105 394.038l-.216-.352.498-.234-.084-.139.413-.195.3.491zM413.96 394.614l.519-.273.391.57-.283.15.161.235-.386.203-.31-.452.151-.079zM414.307 393.057l-.052-.125.17-.055.053.126zM414.621 394.409l-.453-.734.518-.246.453.734zM416.767 393.292l.615-.274.453.783-.615.274zM416.767 393.292l-.465-.803 1.212-.54.465.803zM416.702 391.553l.11.218-.46.18.064.124-.203.08-.174-.342zM416.368 391.566l-.141-.304.372-.133.14.305zM416.217 390.008l.494.801-.575.273-.234-.381.215-.102-.26-.42zM415.562 389.95l-.267-.448.423-.194.267.448zM411.826 396.566l-.475-.96.987-.376.475.96z" clip-path="url(#pc85a556138)" style="fill:#a9a9a9;fill-opacity:.8"/><path d="m411.172 396.814-.434-.878.654-.248.434.878zM410.527 397.109l-.43-.846.546-.214.43.846zM409.512 397.414l-.419-.801.638-.256.418.801zM408.932 397.229l-.198-.35.35-.151.198.349z" clip-path="url(#pc85a556138)" style="fill:#a9a9a9;fill-opacity:.8"/><path d="m408.52 397.407-.3-.532.411-.179.3.533zM407.746 398.056l-.153-.306.42-.16.151.307zM408.288 396.26l-.616.268-.278-.49.616-.268zM408.528 396.64l-.306-.608.417-.161.306.608zM408.985 396.328l-.34-.68.697-.269.34.68zM410.126 395.768l.117.245.357-.131-.443-.927-.357.131z" clip-path="url(#pc85a556138)" style="fill:#a9a9a9;fill-opacity:.8"/><path d="m409.697 395.926-.326-.682.43-.158.325.682zM412.238 395.214l-.465.171-.101-.211-.393.144-.337-.703.645-.237.245.51.212-.079zM409.442 392.711l-.275-.594 1.062-.377.274.594zM407.776 394.029l-.104-.225.314-.112.104.225zM407.308 393.332l.565-.217.174.347-.566.217zM407.408 393.152l-.251-.502.43-.166.252.503zM406.684 393.798l-.321-.666.423-.157.322.666zM406.6 394.429l.402.727-.505.215-.403-.726zM407.408 394.949l-.16-.407.426-.13.16.408zM408.466 394.595l-.287.14-.21-.328.288-.14zM408.466 394.595l-.209-.329.362-.177.21.33zM409.055 394.405l-.271-.468.319-.142.27.468zM408.675 393.798l-.154-.278.717-.306.154.278zM409.822 394.12l-.322-.57.6-.26.32.57zM410.596 393.784l-.253-.447.531-.23.253.446zM404.163 389.257l-.24-.536.369-.127.24.536zM404.666 389.094l-.279-.625.378-.129.279.624zM405.286 389.651l-.303-.51.351-.16.302.51zM405.464 388.795l-.349-.57.365-.172.35.571zM406.192 388.714l-.395-.693.419-.184.395.694zM406.921 387.6l.32.612-.553.223-.226-.434.146-.058-.094-.18zM407.315 388.15l-.348-.672.432-.173.349.673zM407.868 388.996l-.248-.512.384-.143.063.129.38-.141.185.383zM408.751 389.726l-.69.27-.322-.632.522-.205.125.245.167-.066zM407.835 390.575l-.124-.21.224-.102.123.21zM408.206 390.514l-.2-.333.324-.151.202.332zM408.749 390.181l.534-.204.208.42-.534.204zM409.065 390.576l.082.149.455-.193.238.433-.663.281-.088-.16-.186.079-.233-.423zM408.532 391.553l-.302-.503.378-.175.302.503zM406.518 392.137l-.295-.496.39-.178.295.496zM403.047 392.378l-.155-.472.442-.112.154.473zM402.253 391.869l-.177-.481.715-.203.132.359-.187.053.045.122zM401.788 392.066l-.088-.367.368-.068.088.367zM402.122 390.398l-.307-.692.473-.161.207.47-.092.03.099.224zM401.56 390.409l-.245-.449.422-.176.244.448zM401.156 390.71l-.17-.322.376-.153.171.323zM400.624 391.062l-.337-.697.303-.112.094.195.141-.053.243.502z" clip-path="url(#pc85a556138)" style="fill:#a9a9a9;fill-opacity:.8"/><path d="m400.81 391.605-.25-.52.508-.188.251.52zM400.252 390.7l.295.6-.472.178-.119-.241.115-.043-.177-.358zM399.448 391.315l-.109-.222.334-.126.109.223zM399.108 392.256l-.175-.258.248-.13.174.26zM398.748 391.998l-.287-.571.475-.183.287.57zM397.79 392.076l-.224-.58.393-.118.224.581zM398.372 392.945l-.218-.393.504-.215.217.394zM398.871 393.135l-.128-.312.473-.15.128.313zM400.6 394.917l.38-.038.055.43-.14.013-.018-.124-.236.025zM400.247 395.316l-.004-.401.293-.002.004.4zM399.526 395.017v-.279h.472v.279zM399.634 395.533l-.043-.302.4-.044.043.301zM400.117 395.956l-.077-.3.395-.077.077.3z" clip-path="url(#pc85a556138)" style="fill:#a9a9a9;fill-opacity:.8"/><path d="m400.196 396.263-.079-.307.395-.078.079.307zM400.672 396.406l-.048-.194.318-.06.048.193zM400.328 396.803l-.155-.486.386-.094.154.485zM400.545 397.248l-.183-.345.426-.174.183.346zM400.765 397.747l-.232-.428.476-.199.232.428zM401.3 397.675l-.003-.404.57-.004.002.406zM403.028 398.212l-.026-.394.469-.024.026.394zM402.319 398.236v-.35h.507v.35zM400.955 397.839l.907.05-.04.553-.907-.05zM401.153 398.915l-.097-.318.523-.122.097.318zM401.428 399.377l-.17-.394.433-.144.17.394zM401.755 399.95l-.242-.468.539-.213.183.357-.187.074.058.112zM401.947 400.552l-.197-.413.465-.17.197.413zM402.636 400.267l-.209-.387.526-.219.21.387zM403.218 399.893l-.21-.482.326-.108.209.481zM403.248 399.194l-.13-.277.317-.116.13.277zM403.907 399.642l-.264-.455.416-.185.264.455zM403.93 398.793l-.132-.452.542-.122.132.452zM404.666 399.31l-.141-.275.395-.156.141.274zM406.355 398.732l-.235-.377.58-.279.236.378zM405.79 398.181l-.26-.405.441-.218.26.406zM403.535 397.652l.455-.204.333.57-.455.204zM404.217 397.366l-.307.1-.147-.346.307-.1zM404.573 397.245l-.163-.314.527-.21.163.313zM405.689 396.858l-.175-.37.317-.116.175.37zM404.116 396.314l-.217-.55.444-.135.218.55zM404.67 395.767l.542-.224.228.424-.542.224zM404.643 395.71l-.222-.395.658-.285.222.394zM404.317 394.69l-.249-.442.535-.23.249.442zM407.858 403.576l.168.424-.437.132-.073-.184.101-.03-.095-.24zM408.125 403.999l-.201-.5.566-.175.201.5zM413.836 398.127l-.233-.431.257-.107.233.432z" clip-path="url(#pc85a556138)" style="fill:#a9a9a9;fill-opacity:.8"/><path d="m413.94 398.426-.151-.279.368-.153.15.28z" clip-path="url(#pc85a556138)" style="fill:#a9a9a9;fill-opacity:.8"/><path d="m413.94 398.426.367-.153.14.26-.367.153zM413.234 397.442l-.217-.32.317-.165.217.319zM412.622 397.774l-.263-.42.525-.253.263.42zM412.785 398.175l-.156-.244.264-.13.155.245zM410.933 398.521l-.211-.404.573-.23.212.403zM410.294 398.946l-.22-.405.435-.182.22.404zM409.202 399.197l.6-.275.154.258-.6.275zM409.237 399.092l-.257-.39.57-.289.256.39zM408.416 399.418l-.24-.489.377-.143.24.49zM408.768 400.284l-.213-.367.477-.213.213.366zM409.364 400.236l-.074-.167.349-.12.074.168zM410.31 400.094l-.094-.19.275-.105.094.19zM409.144 401.082l-.215-.351.67-.316.215.35zM409.203 401.134l.555-.234.233.424-.3.126-.05-.092-.256.107zM409.6 402.022l-.207-.367.708-.309.209.367zM410.774 401.496l-.364.16-.36-.628.365-.16zM411.127 401.184l-.163-.408.405-.124.162.407zM411.968 400.144l.325.52-.34.163-.325-.52zM412.34 400.593l-.357-.53.33-.17.357.53zM412.572 399.852l.496-.128.149.44-.285.074-.024-.071-.211.055zM413.76 400.206l-.216-.398.327-.137.216.398zM414.567 399.102l-.156-.231.472-.245.156.231zM422.08 392.832l.25.394-.46.225-.103-.165.087-.042-.146-.23zM421.279 393.723l-.22-.441.464-.179.15.3-.284.11.07.14zM420.361 393.577l.632-.228.184.393-.632.227zM421.314 395.451l-.115-.228.527-.204.115.229zM419.56 394.264l-.137-.247.46-.194.136.247zM419.234 394.548l-.201-.367.39-.164.202.366zM418.41 394.84l-.21-.373.211-.091.21.374zM417.867 395.129l-.217-.428.441-.172.217.428zM417.367 395.197l-.163-.306.35-.143.163.305zM416.732 395.842l-.325-.39.353-.227.325.39zM420.35 398.76l-.167-.29.205-.092.167.29z" clip-path="url(#pc85a556138)" style="fill:#a9a9a9;fill-opacity:.8"/><path d="m420.559 399.122-.21-.363.206-.091.21.363zM420.993 399.408l-.14-.28.598-.227.138.28zM415.845 395.927l-.14-.277.433-.17.14.277zM414.683 397.353l-.179-.357.442-.17.179.357zM415.775 399.493l-.25-.485.566-.225.25.486zM418.006 398.44l-.147-.38.489-.146.147.38zM416.914 399.003l-.256-.53.524-.193.256.53zM416.89 400.75l-.247-.558.514-.176.248.557zM416.52 401.462l-.172-.346.519-.197.17.346zM415.643 403.18l-.182-.323.582-.251.182.323zM413.44 401.818l-.156-.468.381-.097.155.469zM410.349 403.367l-.154-.35.434-.146.154.35zM410.798 402.956l-.193-.412.345-.124.193.412z" clip-path="url(#pc85a556138)" style="fill:#a9a9a9;fill-opacity:.8"/><path d="m411.026 403.445-.228-.489.345-.124.228.49zM411.193 402.729l-.194-.374.335-.133.193.373zM411.8 402.447l-.154-.298.37-.15.157.298zM412.126 402.909l.342-.15.103.182-.34.15zM411.491 403.377l-.217-.489.52-.177.216.49zM407.014 400.586l.478-.18.169.345-.286.108.089.182-.3.113-.11-.226.107-.04zM406.091 400.48l-.282-.59.435-.16.283.59zM405.445 400.723l-.256-.6.402-.133.2.468-.21.069.058.132zM405.36 402.372l.246-.106.141.254-.246.106zM404.891 402.216l.553-.238.162.288-.554.238zM404.945 402.04l-.174-.417.489-.156.173.416zM405.13 401.21l-.712.24-.402-.924.712-.239zM403.357 401.225l-.156-.334.492-.177.156.334zM402.877 401.849l-.26-.541.488-.18.26.541zM403.833 402.47l-.22-.444.398-.152.22.445zM403.424 402.794l.092.184.04-.015.13.262.467-.18-.224-.446zM404.019 402.568l.68-.298.29.508-.322.14-.072-.126-.358.157zM404.937 403.69l-.19-.404.51-.185.19.405zM405.809 403.235l-.217-.367.348-.158.217.367zM406.44 403.343l-.201-.394.548-.215.201.394zM407.145 402.6l-.155-.315.593-.224.155.315zM407.486 402.912l-.156-.308.438-.17.156.308zM402.458 403.666l-.593.219-.201-.42.265-.097.081.168.327-.121zM401.76 403.153l-.231-.536.362-.121.232.537zM400.986 403.058l-.144-.434.427-.108.143.433zM400.847 402.583l-.14-.415.382-.098.14.414zM401.203 402.114l-.11-.24.403-.142.11.24zM398.8 403.059l-.1-.501.609-.096.037.183-.122.02.064.317zM398.6 400.406l-.051-.155.229-.058.05.155zM398.433 401.028l-.166-.476.5-.134.166.475zM398.57 401.628l-.183-.499.394-.11.182.499zM399.22 401.207l-.213-.492.47-.156.213.492zM399.558 400.471l-.347.123-.13-.283.347-.122zM399.805 401.01l-.327-.714.44-.155.327.713zM400.157 399.968l.38-.102.071.205-.38.102zM400.088 399.866l-.124-.421.344-.078.124.42zM399.522 398.78l-.217-.36.48-.223.218.36z" clip-path="url(#pc85a556138)" style="fill:#a9a9a9;fill-opacity:.8"/><path d="m399.522 398.78-.526.243-.217-.36.526-.244zM398.748 398.596l-.135-.254.333-.136.134.254zM399.166 398.345l-.17-.293.628-.279.17.293zM399.08 397.856l-.195-.297.496-.252.196.297zM398.748 397.462l-.272-.379.627-.346.272.378zM397.888 395.431l-.008-.362.442-.006.007.361zM502.841 272.302l.383-.667 1.271.56-.382.667zM350.76 374.467l.765.094-.089.552-.765-.093zM491.968 328.03l.052.88-.893.067.004.074-1.198.075-.04-.66.72-.046.007.138.174-.003v-.252l.235-.014-.012-.192.453-.017.008-.305.26-.015.02.274z" clip-path="url(#pc85a556138)" style="fill:#a9a9a9;fill-opacity:.8"/></g></g></g><defs><clipPath id="pc85a556138"><path d="M90 104.342h558v518.517H90z"/></clipPath></defs></svg>