<svg xmlns="http://www.w3.org/2000/svg" xmlns:xlink="http://www.w3.org/1999/xlink" width="960" height="960" viewBox="0 0 720 720"><defs><style>*{stroke-linejoin:round;stroke-linecap:butt}</style></defs><g id="figure_1"><path id="patch_1" d="M0 720h720V0H0z" style="fill:#fff"/><g id="axes_1"><path id="patch_2" d="M91.232 640.8h555.536V86.4H91.232z" style="fill:#fff"/><g id="LineCollection_1"><path d="m373.935 373.207 5.601-.77M373.935 373.207l.15-.411-.362-2.873-.387-5.052M371.035 407.432l.341-1.073.42-1.56.157-1.502.145-5.172-.045-2.129-.422-3.669-.007-2.253.095-3.204.34-2.381.607-2.77.96-3.159.444-2.927.001-1.315-.136-1.111M372.94 364.864l.404 5.078.28 2.9.311.365M365.132 325.374l1.678 2.432M370.137 348.065l-4.219-2.267-.957-.634-1.095-1.042-2.142-3.548-.99-1.995-.021-.66 1.569-4.197 2.35-5.915.5-2.433M352.406 311.02l3.388 2.944 2.888 2.62 1.267 1.41 2.387 3.163 2.796 4.217M415.98 340.902l-.68-4.232M415.98 340.902l-8.336 1.849M430.614 337.993l-.749.033-1.853.254-12.031 2.622M399.941 342.354l2.154-5.198M399.941 342.354l-.717-.252M407.644 342.75l-3.22.635-.578.033-1.07-.186-2.835-.878M396.537 351.383l3.094-8.658.31-.371M404.602 303.008l.382 3.027M390.74 223.199l-1.193 4.692-3.332 15.552 1.292 3.99 2.04 7.167.883 6.694.34 3.313 2.243 7.235 1.903 6.356 4.623 8.993 3.67 9.669.8 2.8.593 3.348M447.187 283.654l-.444.206-2.003.74-3.943.068-7.07 3.651-6.322 5.207-2.175 1.758-.272 2.772-1.564 6.829-3.399 1.69-3.467-1.081-2.786-.136-1.632-1.488-3.127-1.081h-2.38l-2.001.22M404.984 306.035l2.663 5.884M404.912 313.26l-.03-6.589.102-.636M407.647 311.919l2.833 5.7M407.647 311.919l-2.735 1.342M415.089 315.324l-2.532-5.291-.38-.326-4.53 2.212M404.912 313.26l.056 3.928M417.856 313.969l-2.767 1.355M415.089 315.324l-4.61 2.296M410.48 317.62l1.048 2.14M410.48 317.62l-5.104 2.084M405.376 319.704l-.353 3.255M404.968 317.188l.37 1.78.038.736M411.528 319.76l.943 1.971M411.528 319.76l-6.505 3.199M405.023 322.959l-9.37 4.557M402.095 337.156l1.285-2.893.401-1.43.694-4.256.548-5.618M366.81 327.806l6.636 2.136M372.574 332.429l-3.448-1.283-.408-.456-1.908-2.884M387.632 327.87 386 331.978M380.874 332.4l2.237-6.04 4.52 1.51M386.354 332.059l2.658-6.2.272-.593-.43-.165-1.222 2.77M373.446 329.942l-.872 2.487M373.446 329.942l7.428 2.457M374.666 326.126l-.405.985-.815 2.831M390.337 330.153l1.928 3.586M390.337 330.153l-3.983 1.906M390.337 330.153l5.316-2.637M386.354 332.059l5.911 1.68M386.354 332.059l-.354-.081M386.354 332.059l-.819 1.917M386 331.978l-.787 1.836M380.874 332.4l-1.181 2.697M380.874 332.4l4.34 1.414M372.574 332.429l-1.01 3.058M372.574 332.429l7.119 2.668M392.265 333.74l.995.34M385.213 333.814l-1.168 2.95M385.213 333.814l.322.162M385.535 333.976l-1.108 2.918M393.26 334.08l.228-.576M393.26 334.08l-1.809 5.289M379.693 335.097l-1.202 3.107M379.693 335.097l2.667 1.02M371.564 335.487l-.886 2.216M371.564 335.487l.38.147M382.36 336.117l-.228.5M382.36 336.117l1.685.648M384.045 336.765l.382.13M384.045 336.765l-.292.628M415.3 336.67l3.655-.264M415.3 336.67l-8.491.937M384.427 336.894l7.024 2.475M384.427 336.894l-1.061 2.656M406.809 337.607l-2.08.098-1.512-.17-1.122-.379M376.646 337.462l-1.228 2.626M376.646 337.462l1.845.742M376.646 337.462l-4.702-1.828M406.809 337.607l.835 5.144M370.678 337.703l3.886 1.947M368.689 336.883l.47.213 1.52.607M429.496 353.363l-.358-7.685.204-1.737 1.272-5.948M437.384 338.112l-5.616-.153-1.154.034M378.491 338.204l2.465.984M380.956 339.188l1.176-2.57M380.956 339.188l1.655.658M391.451 339.369l-2.938 7.698M391.451 339.369l7.773 2.733M374.564 339.65l.854.438M374.564 339.65l-2.61 5.016M382.61 339.846l.537.251M382.61 339.846l-1.568 3.285M382.61 339.846l.247-.53M375.418 340.088l-3.474-4.454M381.042 343.13l-.29-.245-5.334-2.797M383.147 340.097l.219-.547M383.147 340.097l-1.394 3.212M407.644 342.75l.802 3.124M381.827 343.754l6.686 3.313M381.827 343.754l.012-.23-.086-.215M381.827 343.754l-.2.294M371.955 344.666l6.477 3.407M371.955 344.666l-1.818 3.4M396.537 351.383l5.907-3.827 1.08-.419 4.922-1.263M410.309 353.825l-.433-2.589-1.43-5.362M388.513 347.067l7.651 4.127M386.132 355.527l.91-3.718.625-2.39.846-2.352M378.432 348.073l2.32-4.495M378.432 348.073l-1.617 3.466M370.137 348.065l2.457 1.418M370.137 348.065l-1.82 3.254M372.594 349.483l-.084 9.146M372.594 349.483l.459.263M376.815 351.54l-.506-.167-3.256-1.627M373.053 349.746l.012 8.918M396.537 351.383l-.373-.189M392.521 359.555l2.235-4.431 1.78-3.74M365.435 351.18l-1.781-.121M365.435 351.18l2.881.139M368.237 358.211l-2.925-.227.123-6.804M368.316 351.319l-.079 6.892M376.815 351.54l3.914 1.273M376.815 351.54l-.052 7.336M380.87 352.525l-.141.288M381.473 352.481l-.31-.087-.294.13" clip-path="url(#p905125ad2d)" style="fill:none;stroke:#000"/><path d="m381.244 344.154-.167 2.555-.208 5.816M381.473 352.481l.154-8.433M381.62 353.066l.034-.32-.18-.265M410.309 353.825l12.168-.963 1.448-.002 5.571.503M428.588 359.883l.501-2.734.407-3.786M410.309 353.825l1.397 6.203M386.132 355.527l-.307 3.952M386.132 355.527l6.39 4.028M386.132 355.527l-4.511-2.461M368.237 358.211l4.273.418M368.621 364.429l-.081-1.321-.303-4.897M372.51 358.63l.43 6.234M372.51 358.63l.555.034M373.065 358.664l3.698.212M373.065 358.664l.27 6.207M376.763 358.876l3.682.324M380.445 359.2l.478-.006M380.445 359.2l-.23 5.935M380.445 359.2l.362-6.076M380.923 359.194l4.902.285M380.923 359.194l.467-5.905M380.923 359.194l-.344 5.955M385.825 359.479l-.506 5.8M392.521 359.555l3.66 2.6M428.588 359.883l-.405 3.112M422.312 362.407l.512-3.408 5.764.884M411.706 360.028l.523 2.347M406.601 370.584l2.19-2.892-1.495-2.164 3.671-3.77.739-1.73M396.18 362.155l-1.279 3.464M406.601 370.584l-7.306-6.623-3.114-1.806M422.312 362.407l5.87.588M427.3 366.594l-5.286-.66.298-3.527M427.3 366.594l.475-1.101.349-1.937.059-.561M368.649 364.886l-.028-.457M372.94 364.864l.396.007M368.621 364.429l1.134.398 1.64.135 1.544-.098M373.336 364.871l6.879.264M380.579 365.15l-.364-.015M380.579 365.15l2.324.076M379.536 372.438l.462-1.248.58-6.04M380.215 365.135l-.692 6.244.013 1.059M382.903 365.226l1.03 6.635M382.903 365.226l2.416.052M385.319 365.278l9.582.34M394.901 365.619l2.096.416M394.901 365.619l-1.395 4.62M427.3 366.594l-1.044 2.079M406.601 370.584l.4.742M393.506 370.238l-9.573 1.623M407.001 371.326l-3.737-2.495-.998.94-1.122.169-.85.321-1.139.22-3.177.27-1.666-.44-.806-.073M383.933 371.861l.282 1.597M383.933 371.861l-4.397.577M393.395 443.844l-2.295-3.693-1.82-2.354-2.366-2.379-2.751-2.823-2.108-1.966-2.181-2.483-2.499-3.063-2.838-3.424-.736-1.027-.61-1.973-1.47-6.378-.503-2.795-.183-2.054" clip-path="url(#p905125ad2d)" style="fill:none;stroke:#000"/><path d="m254.586 432.08 1.562-.776 4.35-.848 3.408-.49 1.221.049 1.172.348 1.283.802 1.485.64.867.192 1.099-.073.856-.174 3.776-2.152 1.706-.823 2.608-1.423 3.348-1.856 1.195-.657 1.075-.352 1.103-.07 1.191.187 1.31.767 2.917 1.682 1.052.39 2.714.337 1.973.223 3.408.446 4.396.58 4.036.714 5.337.936 3.813.491 3.947.759 4.53.624 2.78.446 2.601.58 2.825.045 2.243-.179 1.48-.981 3.364-1.606 3.588-2.676 3.094-2.097 5.824-2.53 4.574-1.962 5.524-2.815 1.281-1.461 4.533-9.885M393.395 443.844l.279.45.526 1.176.203.94.468 2.844.398 3.126.63 2.4.99 2.603.481 2.335.135 2.302.564 3.527 1.248 4.914.572 2.535 1.69 4.396-.014 1.618-.506 3.374-.827 6.632.065.726.324.685 1.01 1.577 1.249 1.474 2.392 2.172.556.733.301 1 1.317 3.548.264 1.812 1.28 2.916.624 2.017 1.482 2.612 2.575 3.905 1.378 2.276.666 1.326.497 1.599.245.803-.03.901-.132.44-.336.905.039 1.55.377 1.735.369 1.828.104 1.481.067 1.386-.283.962-.264.984-.235 1.136-.243.604-.137.856.056.941.351.913.64 2.163.402 1.57.359 1.022.305 1.42v1.69l-.033 2.67-.374 3.381-.577 2.755M190.084 532.25l-3.722 4.06-1.794 2.14-3.05 1.785-2.556.714-2.198.534-2.96.223-1.749.492-2.915.356-3.05.313-3.633.58-3.229.133-4.978-.713-3.499-.893-1.39-.312-1.66-.713-2.197-.937-2.242-1.562-4.395-4.505-5.158-5.264-3.319-3.345-6.369-4.282-3.408-2.14-3.05-2.009-2.556-1.382-2.78-1.116-4.396-1.204M108.869 565.035l.177-1.766-.473-1.824-.8-2.031-.857-.56-2.013-.294-1.212-.411-.859-1.06-.503-.794-.414-1.972.118-1.266.977-.824 1.509-.5 1.095-.736.71-.765.34-2.186.335-1.87 1.005-2.588.129-1.358-.284-1.153-.54-.999-1.083-.64-1.468-.564-1.34-.615-.412-.435.181-.59.747-.896.798-.59.464-.512-.051-1.332-.155-1.409-.026-1.537-.566-.897-.902-1.076-.49-1.204-.077-1.435.438-1.435.67-1.153.206-.64.129-1.614.515-1.512 1.443-2.997 1.236-2.997.265-.795M254.586 432.08l-.502.25-2.422 1.919-1.031 2.23-.449 1.561-1.166 2.052-2.466 2.765-2.378 2.454-2.063 3.256-1.748 3.123-.943 3.033-1.21 3.167-.808 3.212-1.031 3.88-1.48 2.9-2.826 2.677-1.883 1.963-1.122 1.873-1.435 3.613-1.973 8.743-.628 3.39-.493 1.562-.404 3.435.18 2.943-1.39 4.55-1.077 3.301-.718 2.632-.852 2.677-1.436 2.14-2.152 1.428-4.35 2.096-3.633 1.919-5.786 2.72-3.677 1.918-2.378 1.562-2.331 2.141-2.378 2.141-2.063 2.944M210.618 568.99l.474-1.147-.06-1.295-.473-1.236-.71-.853-1.628-2.237-1.065-1.589-.591-1.265-.74-1.678-.178-.736.207-.706 1.45-.883 1.125-.794.473-1.325.03-1.795-.74-2.442-.888-3.385-1.006-1.766-.977-.823-1.952-.884-4.764-1.383-3.699-.235-1.213-.059-.917-.412-.799-.794-.237-1.678-.68-2.707-.533-1.501-.443-1.132M437.04 414.429l-.844-1.124-.25-2.25-.719-4.549-.896-1.089-2.225-.927-1.31-.232-1.866.053-4.09-1.695-.627-1.141-.126-.857-.448-1.463-.162-1.481-1.13-4.354-.43-2.516-.503-1.142-1.238-2.802-1.04-1.534-4.466-4.735-2.202-2.69-4.938-6.013-.529-.562M404.968 317.188l-1.101-1.287M403.867 315.9l-3.64-2.215-4.878-2.738-1.819-1.252-4.427-1.715-1.75-.499-1.3-.118-1.046.16-7.835 2.764-5.828-.16-3.263.245-.994-.076-8.634-1.48-3.388 1.352-1.472.136-1.187.717M252.788 191.486l.842 3.228 1.835 4.868 2.43 4.024 2.418 3.17 13.167 11.063 9.517 8.25 1.699 1.622 49.217 63.965 5.871 7.48 1.99 2.282 1.86 1.8 1.291 1.217 7.481 6.566M381.62 353.066l-.23.223M380.807 353.124l.261.187.322-.022M380.807 353.124l-.078-.311M381.042 343.13l-.204.187-.086.261M381.753 343.31l-.196-.178-.257-.065-.258.064M381.244 344.154l.201-.017.182-.09M380.752 343.578l.129.387.363.189M382.857 339.316l.509.234M382.857 339.316l.896-1.923M383.753 337.393l-1.621-.775M396.164 351.194l3.06-9.092M403.867 315.9l-.548 1.182-.816 3.094-1.172 1.014-6.543 3.432.865 2.894M252.788 191.486l5.305-6.29 2.945-1.127 3.55-2.973 3.724-4.07 3.897-6.178 1.877-3.002 1.79-3.666 1.53-2.54 3.753-4.822 2.482-2.915 2.136-2.8.837-1.847 3.407-3.58 1.818-.866 5.427-4.474 1.27-.924 1.386-2.396.635-2.772-.144-2.857-.693-3.724M246.463 168.805l4.38 15.226 1.945 7.455M236.861 135.238l-5.018-16.527-3.247-11.8-.22-.895-1.36-4.7-1.259-4.254M553.452 346.27l.04-1.295.201-1.645-.635-2.397-.663-1.096-.203-1.126.49-2.165.867-1.819.347-3.146 1.27-2.859.635-1.674.057-2.165.462-1.847.982-2.54 1.76-3.493.867-1.588.894-2.194 1.415-2.829.837-1.819.289-1.327-.664-3.032" clip-path="url(#p905125ad2d)" style="fill:none;stroke:#000"/><path d="m572.41 332.942-3.206 3.258-5.812 5.95-.714.643-1.087.744-.986.372-7.153 2.36M437.384 338.112l3.664.1 4.928.473 3.45.66 24.37 5.763 4.351.982 13.035 2.484 5.897 1.099 4.028.93 3.178.93 5.641 2.18 6.305 2.332 1.038.271.968.27 1.7.136 1.546-.102 1.563-.287 5.812-1.993.488-.167 3.217-1.103 4.589-1.42 16.3-5.38M473.247 443.57l.175-.785 1.16-2.166 1.62-1.895.983-1.212-.083-1.437-1.373-1.719v-.906l-.101-.732-.52-.34-9.993-2.872-15.07-5.246-2.708-1.267-9.508-8.297-.79-.267" clip-path="url(#p905125ad2d)" style="fill:none;stroke:#000"/><path d="m393.395 443.844.971-1.113 1.185-1.434 1.7-1.05 2.37-1.257 3.478-.896 2.266-.359h2.68l2.163-.435 1.133-.385 1.211.282 1.494.308 1.082-.462.618-1.152.696-2.025 1.7-.486 2.266-.436 1.057-.41.876-1.127 1.081-1.307.413-1.102.386-3.022.927-.487 2.01-.333 2.137-.872 1.752-.717 2.988-1.563 1.984-1.101.567-.59.077-1.23.257-2.28.12-2.374M473.247 443.57l-.121.546-.296 5.262.2 1.212-.71 5.721.142 1.425.782 1.636.083.847-.048.566.616 2.801-.201 3.132-.758 1.26-.047.506.686 1.412.225 1.13-.65 1.154-.285.942.036.977-.344.706-.07.612.035.718.781 2.367.178 2 .58 1.472.355 1.86-.616 3.285.024.977.13 1.012 1.207 1 .793.895.355.872.71.8 2.096 1.377 3.172 2.013 2.509.989 2.734.812 1.041.33.532.435 1.823 1.224 1.007.578.603.682 2 1.213 2.237 1.8 1.444 1.237.58.612 1.314.612 1.267 1.542.828.648 1.125 1.565.863.812.664.636 1.644 2.378 1.811 2.66 1.683-.354.064.508" clip-path="url(#p905125ad2d)" style="fill:none;stroke:#000"/><path d="m477.404 447.45-3.576-1.99-.313-.822-.268-1.068M608.156 299.702l2.362-1.653 17.64-12.374 3.093-2.147M608.156 299.702l-.657-.411-1.874-.777-1.835-.466-1.679-.233-.468-.505-.742-2.175-1.015-1.165-1.523-1.475-1.6-2.253-1.133-1.048-1.835-.7-.937-.815-.312-1.165.195-.971.39-1.243-.117-1.087-.664-1.32-1.093-1.826-1.835-.66-2.147.233-2.772.427-2.42-.272-1.68-.427-1.289-.699-1.483-1.087-2.07-.893-2.459-1.166-1.502-1.218-1.435-2.498-1.883-2.9-1.122-.981-1.39.223-1.929.758-1.031.847M572.41 332.942l10.662-10.839 9.83-9.911 2.858-2.895 2.624-2.56.748-.71 1.24-.879 7.784-5.446" clip-path="url(#p905125ad2d)" style="fill:none;stroke:#000"/><path d="m636.085 391.679-2.512-1.695-3.498-1.07-4.53-.67-2.332-.58-1.928.134-2.377.179-2.019-.134-2.063-.803-1.128-1.477.089-1.03.503-1.089.828-2.443.858-2.502v-1.265l-.77-.442-1.36-.764-1.036-.796-.697-1.933.204-1.285.748-1.656.578-3.617.102-3.956-.918-1.25-1.19-1.184-1.733-2.028-.918-1.758-.883-1.623-.952-1.927-.85-1.454-1.292-.845-2.209-1.082-2.957-.642-2.896-1.235-2.537.078-1.992.388-1.913.117-2.03-.389-1.21-.815-.938-.855-1.717-1.476-2.265-2.058-1.366-1.048-.938-1.437-1.561-1.554-2.265-1.359-1.913-1.63-.976-1.477-.916-1.3M437.384 338.112l.157-1.378.515-1.178 2.061-.82 2.06-.513 2.32.103 2.163-2.152 1.7-1.23 1.288-1.127 2.421-.769 2.061-1.025.876-1.281 1.958-1.537 1.081-1.435 1.752-.768 1.958-.77 1.7.052 1.185-.154 2.422-1.025 1.648-.871 1.288-.922.103-1.486-.072-3.467.463-1.393.637-1.92.987-1.203 1.66-1.027 1.973-1.605 2.512-1.874 1.793-.848 2.018-.624.943-.714 1.838-1.115 1.705-.58 1.57-.178 1.434.4h1.211l1.122-.267 2.108-.446 1.793-.446.763-.669 2.78-3.346.808-.357 1.345-.669.718-.624.493-.67 1.032-.802 1.12-.223 1.032.356 1.167-.267.717-.491.942-.67 1.12-.356.809-.312.672-.49.494-.625.852-1.294.673-.803.986-.402h.987l.942.357 1.3.758 1.077.447h.672l.27-.67.134-1.516.762-1.651.494-1.204.583-.535.718-.759.358-.669-.224-1.517-1.3-3.88-1.302-4.863-.672-2.097-1.21-1.874-2.244-1.962-2.69-1.205-1.57-.847-1.21.178-.808-.267-1.032-1.384-1.3-2.498-1.122-2.052-1.973-2.677-2.108-2.409-1.929-2.32-1.345-1.56-.493-2.142.852-1.516.897-1.071 1.749-.268 1.39.09 1.121.401.808-.134.403-.803.763-.892 2.78-2.41.898-1.025 2.376-.981 1.66-1.339 1.211-1.829 1.12-1.026 1.436-.803.36-.758.672-.803 1.615-1.205 1.928-1.249 1.614-1.56.449-.626 1.895-3.666 1.134-2.153 1.237-2.305.772-1.537 1.34-1.692 4.444-4.357 4.793-4.298 2.545-1.118 1.834-1.825.947-1.589.414-2.472.119-1.884.65-2.413.83-1.708.295-1.942M353.082 106.298l-.586 1.359-1.132 2.097-.39 1.476-.313.776-.937.35-.43.544.274.505.39.97.508 1.399.859 1.048.898 1.05.471.982.36 1.16.223 1.785-.044 1.606-.763 1.428-1.435 1.606-1.435 2.14-.045 1.16.448 1.651.807 3.926-.583 1.071-.313 1.383-.628.847-.852.937-.315 1.517.135 1.338.27 1.205-.09 1.026-.583 2.677v3.3l.762 3.079.449 1.294.628 1.07 1.076 1.026 1.032.625.717.491.314.67.314 1.962-.045 1.517.628 1.204.403 1.562.763 1.026h.628l1.222.435.593.641.72.845 1.289.871 1.236.974 1.494.897 1.314.717 1.318 2.082.444.913.295 1 .326.736.33.25.664.504.43.583.39.97.508.505.702.467 1.133.193.624.886.653 1.095 1.163.94-.02 2.05.312 1.088.313 2.99.702 2.952.97 4.019 1.314 1.41.928 1.741 1.803 3.536 2.086 3.792.876 2.153.747 3.28.747 4.047.386 1.743.747 2.28 1.082 2.024 1.288 1.05.696.026 1.777-.051 1.618.422M225.546 142.783l-2.19.53-3.136.235-2.19.47-1.952 1.031-3.906 1.118-4.261.383h-1.746l-1.775.236-1.39.647-1.629.56-1.686 1.118-1.361.854-2.545.294-2.604-.088-1.568-.147-2.012.176-1.065-.059-1.332-.795-1.272-1.206-2.989-1.943-3.698-2.09-3.344-1.206-2.278.058M188.066 171.757l-.986-.845-1.291-3.787-1.496-5.78-1.937-7.27-.782-4.97-.68-1.69-.714-.98-.951.303-.714.372-1.19-.236-1.155-1.59-2.553-2.325M236.861 135.238l-2.645.216-.8.294-1.685 1.413-1.569 1.707-1.923 1.56-2.693 2.355M188.066 171.757l1.155-1.316 2.345-1.927 1.292-1.826.951-1.825-.034-2.672 1.19-1.96 1.767-1.69 1.971-.643 2.176-.203.883-.169 1.225-1.116.985-.676 2.481-.574 1.972-1.421 1.869-1.69 2.549-1.454 3.739-1.42 2.923-1.42 2.72-1.96 2.48-1.928.841-1.084M246.463 168.805l-4.135-14.374-5.404-18.984-.063-.209M188.066 171.757l1.326.034 2.209-.169 2.38-.203 1.869-.676 2.685-.946 2.719-.744 2.277.067 3.23-.203 1.936-.71 1.53.068 4.01.778 4.454.101 2.48.338 1.734.507 1.563.913 1.666 1.623 2.175.676 2.073-.27 2.312-.339 1.394-.575 2.243-.337 2.991-.575 2.38-.744 2.344-.811 2.417-.755M210.618 568.99l-1.006.825-2.22 1.56-2.929 2.383-6.036 3.856-5.888 3.855-2.278 2.119-2.308 3.12-2.989 5.09-3.047 4.915-2.456 3.973-2.338 3.973-.68 1.471-.356 1.354.03 1.236.236 1.53-.088 1.736-.119 2.59-.147 2.207-.503 2.208-.652.941-1.686 1.266-1.598 1.589-1.746 2.177-.915 1.64.157.972.507 1.708-.352.854M311.683 624.082l.622-2.325 1.154-1.884 1.745-2.854.947-1.913 1.746-2.119-.118-.617-.621-.56-1.954-1.147-.562-.09-1.36-1.205-3.67-3.737-2.93-3.15-2.307-2.766-1.095-1.5-1.006-2.267-1.332-2.678-1.721-4.512-.78-2.524-1.406-2.33-2.109-2.097-1.796-2.369-.508-.427-2.069.31h-1.678l-1.797-.388-1.795-.505-2.382-1.242-1.523-.854-2.343-.738-2.342-.233-2.109.233h-2.655l-1.17-.039-1.875.544-2.03-.156-2.343.544-2.264 1.32-2.07.816-1.64.582-1.952-.272-2.264-.62-1.483-.312-2.577-.155-2.89-.116-2.32-1.014-2.22-1-1.745-1.265-3.58-2.796-2.93-2.06-2.604-1.707-1.864-.883-3.314-.588-3.166.117-2.663.56-1.598 1.118-1.775 1.648-1.272.941-1.095 1.501-.8.766-.591.058-1.124-.117-1.036-.619-.77-.706-.473-1.295.187-1.398M254.586 432.08l-.51-.32-1.53-.66-1.75-.59-1.547-.474-.917-.591-.663-1.572-.697-2.147-.884-1.386-1.495-.998-1.836-.727-2.327-.658-.867.202-1.632.592-2.21.93-3.21 1.504-1.956.473-3.007.372-2.481-.101-.528-.305-.458-.794-.63-1.082-.985-1.166-2.107-2.772-2.43-3.01-.884-.59-.39-.39-1.241-1.64-.952-.371-2.957-.913-1.122-1.555-1.887-2.18-1.97-1.47-2.669-1.032-1.41-1.352-.162-.676-.782-.406-1.87-.27-.951-.744-1.904-1.69-2.243-.947-3.025-.642-4.18-.88-2.822-.642" clip-path="url(#p905125ad2d)" style="fill:none;stroke:#000"/></g><g id="PatchCollection_1"><path d="m389.696 322.618 1.302.049 2.161 1.059 2.501-.41 3.04-1.196 2.152-1.448.823-1.04.411-2.581-1.297-2.393-.475-.472-5.318-2.803h-1.393l-3.102.567-4.147 1.134-2.691-.599h-1.298l-1.74 1.102-1.52 1.417-2.058.441-1.045-.063-3.007 1.637-1.362-.251-1.677-1.386-3.419.599-.823 1.07-.19.63.317 3.81 2.057 2.519 2.564-.19 1.773-.787 2.69-.535 3.641-1.29 4.242 1.322.411.566v.661l.95.787.633.032.602-1.165 1.805.693 1.17-.41.349-.535zM239 145.095l.85 2.178.386 1.486.412 1.256v.614l-.334.436-.18.59-.156.332-.85-.051-.695.051-.696.385-.85.154-.9.589-.67.384-.361.333-.67.077-.438-.18-.309-.589-.412-.41-.567-.179-.85.256-.257.564-1.314 1.025-1.005.281-.85.59-.721.666-1.237.692-.85.077 1.082-2.588.413-.564.978-.692.696-.538.231-.743.85-.486.722-.308.901-.128.464-.23.283-.513-.232-.795.181-.281.772.563.542.487 1.03-.435 1.21-.615.902-.333.927-.718.876-.64zM230.011 563.029l.612-.304.646-.035 1.547.812.458.287.153.254-.459 1.03-.9 1.336-.391.642-.12.17-.271-.068-.459-.338-.595-.321-.323-.355-.289-.389-.05-.321.033-.558.153-.507-.067-.355-.102-.186.016-.186.153-.034.17-.236z" clip-path="url(#p905125ad2d)" style="fill:#00f;fill-opacity:.8"/></g><g id="PatchCollection_2"><path d="m372.652 336.177 3.403 1.334.118.374-.214.534-.601.993zM374.432 339.278l-3.328-1.74.075-.374.556-1.29zM387.171 332.032l4.577 1.36-1.616-2.863zM379.769 335.331l2.24.858-1.133 2.805-2.215-.883z" clip-path="url(#p905125ad2d)" style="fill:green;fill-opacity:.8"/></g><g id="PathCollection_1"><defs><path id="m01d822d2fa" d="M0 3a3 3 0 1 0 0-6 3 3 0 0 0 0 6z" style="stroke:green;stroke-opacity:.8"/></defs><g clip-path="url(#p905125ad2d)"><use xlink:href="#m01d822d2fa" x="389.886" y="323.832" style="fill:green;fill-opacity:.8;stroke:green;stroke-opacity:.8"/></g></g><path id="PatchCollection_3" d="m396.787 327.97 1.756 3.505 5.535-2.741-1.755-3.506z" clip-path="url(#p905125ad2d)" style="fill:#90ee90;fill-opacity:.8"/><path id="PatchCollection_4" d="m390.696 368.204 2.168.049.036-1.631-2.167-.048z" clip-path="url(#p905125ad2d)" style="fill:#006400;fill-opacity:.8"/><g id="PatchCollection_5"><path d="m380.534 337.146.572.187.367-1.115-.609-.198-.032.099-.364-.119-.03.093-.509-.166-.257.778.04.182.415.16.154-.15.14-.421.301.099zM381.564 338.2l.56-1.14 1.135.55-.56 1.14zM390.696 368.204l2.168.049.036-1.631-2.167-.048zM372.985 341.18l.121-.246.257.126.17-.345-.27-.132.343-.694-.367-.18-.309.626-.256-.125-.19.386.201.098-.134.273zM376.917 347.643l.973.504-.305.583-.973-.504zM375.642 350.089l.922.418-.218.475-.922-.418zM374.61 346.57l.68.257-.486 1.077-.351-.156.093-.207-.099-.028-.113.254-.238-.117zM374.148 346.372l.402.199-.502 1.004-.402-.199zM372.632 348.542l.253.116-.211.457-.253-.116zM375.663 346.996l.662.355-.441.812-.252-.135-.279.514-.41-.22zM373.973 348.727l.282.17-.561.923-.282-.169zM373.385 348.786l.34.201-.382.636-.34-.202zM370.574 344.68l.565.273-.2.41-.565-.273zM370.512 345.255l.394.202-.202.39-.394-.202zM370.035 345.83l.458.288-.233.366-.458-.289zM368.205 345.924l.426.24-.367.642-.425-.24zM368.705 346.142l.362.183-.362.704-.361-.184zM369.248 346.334l.429.236-.412.74-.43-.237zM369.57 346.864l.36.149-.224.535-.36-.15zM366.807 344.684l.449.213-.489 1.02-.45-.212zM365.757 344.34l.394.218-.454.815-.393-.217zM365.319 344.115l.344.213-.394.63-.344-.213zM364.864 343.843l.379.247-.347.525-.378-.247zM364.513 343.602l.277.169-.363.588-.276-.169zM363.819 342.81l.56.215-.348.898-.304-.117.238-.615-.256-.098zM363.042 341.215l.32.41-.505.39-.32-.41zM362.54 340.518l.213.285-.327.243-.214-.284zM359.804 338.389l.41.903-.327.145-.41-.902zM358.853 338.806l.043.186.163-.037.068.294-.362.083-.112-.48zM360.775 339.942l.172.304-.598.335-.172-.304zM360.555 339.53l.151.267-.261.145-.15-.267zM362.754 343.361l.28.623-.865.384-.11-.225.108-.05-.177-.392zM364.553 345.753l.315.173-.198.354-.315-.174zM365.705 346.315l.347.157-.339.743-.348-.157zM365.28 346.124l.305.164-.408.756-.306-.163zM364.932 345.94l.31.18-.261.45-.137-.08.147-.25-.174-.1zM366.914 346.966l-.552.976-.574-.321.33-.582-.175-.098.224-.394zM367.137 347.053l.382.19-.487.967-.382-.19zM367.555 347.322l.318.154-.252.512-.317-.154zM367.99 347.496l.369.194-.393.741-.369-.193zM368.663 348.557l.369.197-.204.376-.368-.197zM366.781 350.309l.453-.005.005.461-.453.005zM365.804 349.806l.312.012-.039.922-.48-.02.03-.692.168.007zM366.258 349.808l.453.04-.082.94-.453-.04zM364.015 350.142l.364.006-.008.424-.363-.006zM364.588 349.87l.375.012-.024.71-.376-.013zM365.08 350.295l.42.026-.023.353-.42-.027zM364.048 351.913l.775.034-.026.602-.775-.035zM364.378 352.596l-.005.36.422.004.005-.358zM364.182 353.08l.604-.007.006.475-.604.007zM364.154 353.596l.66.034-.028.533-.481-.024.01-.204-.177-.009zM364.14 354.192l.272.003-.002.16.19.001-.004.345-.462-.006zM364.07 354.891l.689.005-.004.382-.688-.004zM364.209 355.346l.423-.004.004.398-.423.005zM363.96 356.597l.787-.018.008.409-.786.017zM363.604 356.647l.207-.007.006.198-.206.006zM365.615 356.55l.404.02-.015.303-.405-.02zM365.551 357.2l.62.005-.003.184h-.049l-.003.349-.57-.005zM367.545 357.367l-.013.465-.652-.014-.003-.056-.086-.003.011-.413zM366.87 357.234l.668-.01-.005-.376-.668.01zM366.832 356.222l.746.007-.005.444-.746-.007zM367.007 355.598l.413.014-.014.39-.413-.014zM367.141 355.022l.49-.014.014.493-.548.014v-.03l-.114.002-.01-.349.171-.004zM365.636 355.509l.458-.007.007.46-.46.006zM365.647 354.86l.75.011-.002.174-.114-.002-.006.425-.383-.005v-.09l-.253-.004zM367.118 353.927l.508-.02.019.46-.51.02zM365.654 353.755l.84-.006.003.447-.84.006zM366.919 353.297l.71.032-.022.48-.71-.033zM367.114 352.715l.54-.004v.535h-.634v-.422l.097-.001zM365.74 352.675l.424.002-.001.36-.425-.002zM365.85 351.508l.437.02-.02.404-.435-.02zM367.163 351.63l.46.02-.019.434-.46-.02zM366.852 352.163l.8.022-.012.446-.801-.023zM367.093 358.484l.459.011-.01.406-.458-.01zM366.098 358.517h.394v.432h-.394zM367.35 359.577l.413.001-.001.39-.413-.002zM367.248 360.187l.584-.012.012.509-.585.012zM378.738 349.245l.883.105-.175 1.454-1.264-.151.09-.748.381.045zM380.34 349.421l.265.025-.045.476-.266-.024zM370.39 348.91l.435.234-.304.561-.435-.233zM371.456 349.27l.38.192-.436.859-.554-.279.133-.262.173.088zM371.811 349.543l.266.132-.146.291.187.093-.33.657-.453-.225zM369.173 350.617l.618.308-.213.421-.617-.308zM368.797 351.223l.38.013-.014.39-.38-.014zM368.525 351.795l.502-.005.005.431-.503.006zM368.523 352.27l.473.016-.014.44-.204-.008-.007.199-.269-.01zM368.518 353.745l.671-.019-.008-.342-.672.02zM371.173 352.713h.715v.434h-.715zM371.882 353.657l-.01.41-.412-.008.009-.41zM370.614 354.89l1.216.01-.004.534-1.216-.011zM370.743 356.658l.952.003-.002.547-.952-.004zM368.949 356.503l.017.511-.521.018-.018-.511zM368.444 357.39l.476-.025.026.495-.476.024zM368.868 355.143l.47.02-.022.512-.47-.02zM368.512 354.754l.403.002-.002.36-.403-.002zM370.169 363.988l.313.002-.002.46h-.313zM369.015 363.406l.417.009-.009.426-.417-.008zM369.194 362.934l.415.048-.044.38-.415-.048zM371.528 362.201l.723-.056.023.302-.722.056zM371.446 361.482l.705.037-.022.423-.705-.037zM371.162 360.3l.95-.022.012.474-.95.022zM371.41 359.56l.54-.05.04.432-.54.05zM371.207 358.824l.654-.003.003.456-.654.004zM368.442 358.684l.443.025-.028.454-.441-.025zM379.498 341.765l.385-.673-.739-.42-.098.172.176.1-.067.118-.12-.067-.22.382zM380.523 341.54l-.288.667.55.235.288-.667zM380.632 340.617l-.265.556.872.41.355-.748-.2-.094-.04.078-.36-.152-.045.098z" clip-path="url(#p905125ad2d)" style="fill:#a9a9a9;fill-opacity:.8"/><path d="m380.822 340.25-.584-.288-.123.247 1.24.61.1-.203.23.113.116-.235-.672-.337-.213-.097z" clip-path="url(#p905125ad2d)" style="fill:#a9a9a9;fill-opacity:.8"/><path d="m381.255 339.92-.126.237.672.337.114-.272z" clip-path="url(#p905125ad2d)" style="fill:#a9a9a9;fill-opacity:.8"/><path d="m380.696 339.394-.102.271.643.294.018-.038.66.3.113-.244z" clip-path="url(#p905125ad2d)" style="fill:#a9a9a9;fill-opacity:.8"/><path d="m379.769 339.046-.004.04-.343.831.406.152.096-.255.452.169.109-.286.085.032.126-.335z" clip-path="url(#p905125ad2d)" style="fill:#a9a9a9;fill-opacity:.8"/><path d="m379.238 338.87-.397.965.527.214.397-.964zM378.052 338.714l-.334.792.273.114.334-.792zM376.954 338.155l-.172.365.662.307.172-.365zM369.362 335.922l-.253.621.151.06-.065.161.261.105.062-.151.875.352.256-.629zM370.247 335.54l-.059.161-.65-.238.16-.437-.344-.127-.313.849 1.663.608.211-.571zM370.107 334.53l-.14.401 1.043.363.14-.4zM371.401 332.314l-.202.622-.051.118-.112-.037-.107.318.805.267.355-1.06z" clip-path="url(#p905125ad2d)" style="fill:#a9a9a9;fill-opacity:.8"/><path d="m371.036 332.131-.22.681.383.124.221-.681z" clip-path="url(#p905125ad2d)" style="fill:#a9a9a9;fill-opacity:.8"/><path d="m370.315 331.886-.149.418.295.103.034-.097.28.098-.028.08.156.054.133-.41zM369.615 332.755l-.126.33.571.217.047-.123-.16-.061.08-.207zM369.43 331.605l-.263.725.157.056-.095.263.27.097.359-.987zM369.373 333.09l-.15.412.683.247.059-.161-.467-.17.091-.25zM370.961 333.568l-.048.145-.75-.247-.113.341 1.43.469.16-.485zM371.938 334.827l-.142.343.98.388.137-.36-.162-.067.047-.114-.352-.145-.058.14zM372.97 335.052l-.194.506.412.165.181-.518z" clip-path="url(#p905125ad2d)" style="fill:#a9a9a9;fill-opacity:.8"/><path d="m373.5 334.83-.312.893.635.237.369-.973.036-.13-.21-.073-.07.201z" clip-path="url(#p905125ad2d)" style="fill:#a9a9a9;fill-opacity:.8"/><path d="m373.823 335.96.369-.973.695.261-.192.509-.421-.152-.104.285-.062-.023-.066.175z" clip-path="url(#p905125ad2d)" style="fill:#a9a9a9;fill-opacity:.8"/><path d="m374.274 335.605-.181.495.504.182.18-.495zM374.812 335.69l-.21.612.322.11.21-.612zM375.281 335.496l-.367.958.945.359.368-.958zM376.254 335.785l-.376 1.013.364.133.376-1.012zM376.56 336.126l-.298.843.195.092.028-.07.213.084-.026.064.177.07.23-.575-.275-.11.103-.26zM377.004 336.866l-.15.37 1.205.484.116-.285-.46-.184.036-.086-.566-.218z" clip-path="url(#p905125ad2d)" style="fill:#a9a9a9;fill-opacity:.8"/><path d="m377.339 336.552-.154.395.566.218-.018.047.416.16.164-.457zM377.554 336.1l-.076.198.087.033-.025.066.16.06-.076.2.69.258.185-.442z" clip-path="url(#p905125ad2d)" style="fill:#a9a9a9;fill-opacity:.8"/><path d="m378.106 335.78-.038.096-.235-.09-.063.16.208.08-.083.212.604.235.236-.6-.434-.17-.053.132zM377.879 334.673l-.28.685 1.145.463.28-.685zM375.938 333.936l-.195.608.416.132-.106.33-.25-.08-.131.411.38.12.03-.096.28.088.402-1.25zM374.443 333.676l-.243.746.058.02-.051.155.186.008-.058.18.21.067.054-.165.147.048.284-.87zM372.66 332.681l-.24.577.095.041.61.208.042-.178.377.106.143-.318zM372.344 333.754l.17-.455.849.296-.198.492zM372.36 333.827l-.113.334.94.313.077-.229-.302-.1.028-.117zM369.492 330.457l-.187.494 1.599.599.187-.495zM373.977 332.134l-.096.286-.305-.102-.079.232.862.288.174-.518zM375.223 332.53l-.183-.067-.158.425.262.095.039-.103.465.17.18-.485-.544-.2zM376.364 332.938l-.144.405.379.133.144-.405zM376.924 332.57l-.292.92.494.154.291-.92zM377.884 332.335l-.492 1.3.672.252.493-1.3zM380.613 334.477l-.046.12-.466-.18-.143.368.605.234.19-.488zM381.435 334.761l-.202.553.5.192.22-.558z" clip-path="url(#p905125ad2d)" style="fill:#a9a9a9;fill-opacity:.8"/><path d="m381.996 334.839-.264.667.386.15.068-.173.399.156.156-.397-.372-.145.038-.097zM382.851 334.962l-.293.84.435.168.316-.85z" clip-path="url(#p905125ad2d)" style="fill:#a9a9a9;fill-opacity:.8"/><path d="m383.28 335.183-.287.787.431.147.268-.785z" clip-path="url(#p905125ad2d)" style="fill:#a9a9a9;fill-opacity:.8"/><path d="m383.692 335.332-.268.785.49.166.4-1.174-.49-.166zM381.628 333.025l-.18.508.431.15.179-.509zM382.177 333.322l-.085.287.62.182.085-.287zM372.23 329.8l-.085.246-.576-.196-.083.244 1.25.424.167-.488zM370.48 327.837l-.103.327.433.137.102-.319zM370.912 327.982l-.231.725.912.287.231-.724zM372.243 328.511l-.112.32.413.143.113-.319zM372.777 328.622l-.203.686.46.135.204-.686zM376.063 330.1l-.089.252.387.136.089-.252zM373.01 327.388l-.303.9.617.206.304-.9zM372.167 328.159l-.07.228 1.147.343.069-.229zM372.79 326.921l-.098.309.951.301.099-.308zM372.769 326.346l-.157.483 1.136.366.157-.482zM373.421 325.657l-.14.437.74.234.194-.606-.258-.08-.054.168zM373.88 329.282l-.156.435.99.351.156-.434zM374.106 328.963l-.118.351.785.26.118-.352zM374.182 328.32l-.192.577 1.13.371.107-.324-.409-.134.085-.254zM374.433 327.612l-.118.352.807.269.118-.353zM382.528 331.799l-.241.73.44.143.24-.73zM382.986 332.103l-.2.602.584.193.286-.86-.442-.145-.085.257zM381.297 331.77l-.118.4.891.259.118-.4zM384.478 332.574l-.19.556.612.206.145-.427-.32-.108.044-.13zM381.583 331.123l-.153.4.668.25.152-.4zM381.837 330.64l-.133.35.385.145.132-.352zM382.057 330.075l-.143.375.352.133.143-.375zM383.175 326.813l-.15.44.447.15.15-.439zM385.959 327.643l-.051.142-.25-.087-.054.156.114.04-.066.19 1.19.416.171-.487zM385.3 327.98l-.13.352.503.185-.027.075.804.294.158-.428zM385.616 328.725l-.187.53.77.268.187-.53zM385.181 329.354l-.186.524.787.276.186-.523zM384.86 329.97l-.147.434.843.283.148-.434zM384.127 331.766l-.107.334 1.178.37.14-.438-.351-.11-.034.105zM384.643 331.218l-.147.396.875.321.226-.607-.488-.179-.078.211zM385.142 326.12l-.148.4.382.14.148-.4zM386.568 326.848l-.104.257.65.26.167-.408-.431-.173-.061.152zM385.71 326.345l-.147.4.382.14.148-.4zM386.247 326.403l-.148.4.383.14.148-.4zM371.756 365.287l.49.01-.009.424-.49-.012zM371.881 365.818l.513.015-.014.472-.638-.02.01-.288.123.004zM371.821 366.418l.476.01-.01.408-.475-.01zM371.371 367.109l.994-.003.001.45-.993.005zM371.832 367.654l.725-.039.025.47-.724.039zM371.944 368.635l.652.017-.011.438-.652-.017zM371.858 369.12l.685.007-.004.42-.685-.007zM371.695 369.602l.897-.055.025.4-.896.056zM371.94 370.935l.779-.03.02.51-.78.028zM372.176 371.87l.557-.071.071.551-.556.072zM372.42 372.441l.413-.021.038.723-.686.037-.028-.508.275-.015zM372.35 373.283l.609-.008.008.612-.322.004-.002-.155-.258.004-.002-.164-.168.002-.001-.085.138-.002zM379.432 355.293l.538-.006.005.528-.538.005zM374.874 351.662l1.267-.036.016.553-1.268.036zM379.459 353.005l.85.076-.04.45-.851-.078zM379.36 352.622l-.338 1.27-.325-.086.146-.548-.224-.06.192-.721zM382.004 351.632l1.589.02-.012.919-.477-.006-.03-.07-1.08-.014zM399.637 370.5l.3.18-.217.357-.3-.18zM375.057 352.784l1.047.01-.011 1.17-.528-.006.005-.545-.519-.005z" clip-path="url(#p905125ad2d)" style="fill:#a9a9a9;fill-opacity:.8"/><path d="m375.079 353.55.417-.007.006.377-.417.007zM373.354 353.883l1.307.047-.061 1.69-.458-.016.04-1.11-.85-.03zM375.45 354.542l.604-.048.04.495-.605.048zM375.596 355.208l.396-.024.023.367-.397.024zM375.573 355.773l.421.02-.02.399-.42-.02zM375.363 356.345l.703-.018.013.485-.703.018zM374.199 357.799l.004.535-.953.008-.004-.536zM375.426 358.027l.426.021-.017.327-.426-.022zM377.044 352.38h.573v.401h-.573zM377.125 354.593l1.086.07-.041.639-1.086-.07zM378.286 354.152l.3.031-.05.48-.301-.031zM378.234 355.145l.266.022-.022.244-.265-.024zM378.925 356.395l1.149.085-.042.56-1.525-.112.012-.163.376.028zM379.788 355.916l.43.018-.011.28-.431-.018zM377.07 356.938l.88.034-.017.435-.88-.034zM378.862 357.008l1.08.07-.036.546-1.08-.07zM376.918 357.527l.923.042-.023.494-.923-.042zM378.561 358.098l1.308.105-.05.606-1.307-.105zM373.412 359.075l.75.028-.018.44-.749-.028zM373.607 359.703l.925-.151.072.44-.925.152zM373.646 360.2l.632-.048.031.058.204-.016.024.317-.144.01.014.176-.718.056zM374.111 360.984l.444-.005.004.362-.443.005zM374.751 361.58l-.021.47-.913-.043.022-.469zM373.843 362.119l.429-.004.003.438-.429.004zM373.48 363.244l.707.027-.02.525-.707-.026zM373.446 364.128l.404.002-.002.398-.404-.002zM375.64 363.47l.481.027-.06 1.092-.48-.026zM374.655 364.181l.367.027-.025.346-.368-.026zM376.774 363.678l.516.021-.039.893-.516-.022zM377.324 363.667l.457.017-.037.935-.457-.018zM376.203 363.655l.466.001-.004.976-.464-.001zM379.633 363.438l-.015.46-1.31-.045.015-.459zM378.933 363.947l.5.014-.023.792-1.059-.03.016-.576.56.016zM378.886 361.453l.75.055-.052.682-1.296-.094.034-.463.538.03zM378.502 360.8l1.162.054-.026.568-1.163-.054zM378.854 362.242l.659.074-.06.527-.66-.074zM378.793 359.902l.87.054-.028.446-.87-.054zM379.252 360.474l.396.006-.004.24-.395-.007zM377.502 359.19l.811.048-.033.56-.81-.048zM375.932 359.126l.24.015-.024.358.213.014-.027.409-.452-.029zM385.792 346.579l-.409.823-.173-.085-.04.08-.206-.102.448-.903zM386.318 347.134l.378.22-.158.27-.379-.222zM384.598 345.585l.398.201-.397.777-.398-.202zM385.05 345.85l.46.245-.366.68-.46-.245zM381.83 347.513l1.054-.003v.375l-1.053.002zM381.893 348.124l1.037-.007.001.226-.1.001.001.195-.936.006zM381.907 349.452l.806.046-.027.477-.807-.046zM381.915 351.44l.953-.039-.02-.485-.953.038zM381.899 350.053l.84-.015.013.683-.84.015zM382.24 352.626l1.176.025-.013.617-.522-.01.004-.169-.655-.014zM383.943 352.69l.443.195-.482 1.087-.443-.195zM384.166 353.654l.33.109-.15.453-.33-.109zM385.194 353.886l.44.237-.35.643-.44-.237zM391.813 349.35l.482.247-.306.59-.483-.248zM394.738 351.326l.508.273-.126.232-.508-.274zM394.524 351.952l.37.195-.317.599-.372-.195zM394.807 352.409l.351.181-.17.325-.351-.181zM394.164 352.715l.642.294-.172.372-.302-.147-.067.098-.32-.147zM394.567 353.613l.35.167-.171.357-.35-.167zM394.154 354.176l.477.325-.242.353-.477-.325zM396.826 351.889l.261.143-.331.602-.148-.082.026-.121-.088-.034zM396.077 352.841l.758.358-.173.362-.758-.357zM396.031 353.377l.574.244-.165.382-.574-.244zM395.442 354.292l.612.284-.206.44-.613-.283zM395.273 354.883l.522.246-.196.412-.522-.246zM393.337 355.009l.801.341-.135.315-.802-.342zM393.072 356.061l.57.296-.204.389-.57-.296zM392.257 356.616l.857.484-.226.395-.857-.485zM392.433 357.55l.34.194-.351.607-.338-.193zM389.752 356.782l.369.22-.333.553-.369-.22zM387.574 355.628l.442.255-.24.413-.311-.178.128-.22-.132-.076zM388.032 355.942l.31.185-.222.365-.308-.185zM388.672 356.35l.413.215-.192.368-.414-.215zM385.02 355.844l.522.063-.116.956-.522-.063zM381.726 356.46l.945-.044.022.47-.945.044zM383.003 356.23l.33.039-.052.439-.228-.027.018-.148-.102-.012zM381.503 359.588l1.1.033-.017.571-1.1-.033zM383.205 359.721l.504.025-.042.851-.503-.024z" clip-path="url(#p905125ad2d)" style="fill:#a9a9a9;fill-opacity:.8"/><path d="m383.124 359.865-.007.396h-.049l-.003.183-.795-.015.004-.21.593.01.006-.37zM382.517 361.036l-.007.514-1.063-.013.006-.515zM381.395 362.138l.628.008-.007.474-.627-.008zM381.33 363.252l.876.05-.033.573-.876-.05zM381.288 364.014l.855.063.008-.103.182.013-.047.613-.655-.049-.006.087-.382-.028zM382.921 363.905l.49.029-.046.76-.49-.028zM384.12 363.33l.514.021-.057 1.377-.514-.021zM383.692 364.202l.214.01-.02.47-.396-.016.01-.253.183.008zM383.76 361.9l1.057.074-.039.549-1.057-.075zM383.25 362.03l-.005.43-.28-.004.006-.43zM384.342 362.558l.414.038-.048.52-.415-.039zM373.512 365.428l.472.002-.003.777-.472-.002zM374.063 365.398l.493.01-.025 1.041-.494-.011zM375.173 365.33l-.032 1.002-.379-.012-.006.2-.172-.006.014-.436.097-.035.015-.446-.092-.002.01-.283zM375.286 365.359l.638.053-.05.592-.104-.008-.008.092-.127-.011-.014.17-.156-.012-.005.053-.25-.021zM376.546 365.384l.385.024-.031.498-.384-.023zM374.1 367.004l.972.04-.025.597-.789-.032.01-.207-.185-.008zM378.582 367.196l.765.11-.077.532-.765-.11zM378.84 367.896l.454.073-.08.499-.455-.072zM378.558 368.424l.703.096-.062.446-.702-.095zM378.368 372.068l.812-.033-.019-.457-.811.032zM378.94 371.044l.035.474-.675.048-.033-.475zM376.32 371.87l.372-.002.003.376-.373.003zM376.835 371.819l.442.004-.004.384-.442-.005zM377.302 371.736l.406-.023.01.168.265-.016.015.277-.67.037zM374.93 371.946l.053.367-.626.088-.052-.367zM374.679 371.404l.044.387-.415.047-.043-.388zM374.617 370.76l.03.405-.425.031-.03-.405zM373.786 369.066h.668v.432h-.668zM374.329 373.636l.466-.071.118.765-.466.071zM374.985 373.713l.438-.072.09.54-.439.072zM375.446 373.406l.41-.07.174 1.001-.41.07zM376.78 373.242l.375-.076.176.866-.16.033-.048-.242-.215.044zM376.214 373.394l.436-.072.117.711-.114.018-.018-.11-.465.076-.069-.418.142-.023zM379.963 372.796l.106.569-.374.069-.106-.569zM380.478 372.69l.093.401-.45.103-.093-.402zM381.764 372.47l.11.47-.449.103-.11-.47zM381.233 372.519l.107.467-.334.076.028.126-.105.023-.135-.593zM383.783 373.164l.062.384-.661.107-.063-.384zM383.397 370.754l.075.525-1.003.142-.075-.526zM380.949 370.938l.035.378-.88.081-.035-.377zM380.18 371.483l.782-.05.03.469-.78.05zM381.938 367.788l.848-.006.004.559-.849.005zM380.816 366.776l.63.157-.212.838-.63-.158zM380.872 368.563l1.266.063-.022.43-1.266-.062zM381.094 365.5l.334.048-.045.305-.334-.049zM382.213 366.655l.432-.039.056.627-.29.026-.013-.14-.142.013zM383.941 365.702l-.004.516-.52-.004.005-.515zM384.294 365.602l.494.029-.04.694-.495-.03zM384.238 366.752l.092.406-.973.219-.093-.406zM387.78 369.979l.083.304-1.01.273-.083-.304zM390.486 371.12l.487.002-.003.555-.488-.003zM392.054 371.097l.54.17-.185.581-.54-.17zM392.526 370.015l.001-.479-.777-.002-.001.479zM390.627 369.628l.627.003-.121.393-.247.209-.262-.001zM387.02 356.488l.462.27-.467.793-.463-.27zM387.894 356.962l.401.247-.503.808-.215-.133.015-.062-.17-.105zM388.22 357.421l.29.182-.227.356-.289-.182zM388.614 357.643l.351.213-.224.365-.35-.213zM386.128 359.429l.904.112-.05.395-.903-.112zM386.098 359.968l.713.112-.067.417-.713-.113zM385.964 360.998l.833.114-.064.464-.833-.116zM385.737 362.025l.76.007-.004.486-.76-.007zM385.862 362.899l.403-.029.027.39-.402.028zM385.656 363.442l.418.076-.047.255-.419-.077zM386.61 364.033l.5.016-.03.935-.502-.015zM385.728 364.253l.414.012-.02.685-.414-.012zM389.326 364.076l.37.035-.092.974-.738-.069.045-.478.126.011.035-.374.194.019zM388.036 364.379l.55.053-.061.627-.55-.054zM390.207 364.548l.41.042-.055.54-.41-.041zM391.44 364.661l-.024.552-.555-.025.024-.55zM392.085 364.724l-.017.484-.429-.016.018-.483zM392.207 364.748l.487.006-.007.502-.486-.006zM392.774 364.65l.39.02-.034.61-.39-.021zM394.22 363.897l.77.358-.212.453-.77-.357zM393.927 364.81l.392.02-.025.5-.391-.02zM393.758 364.685l-.467.027.036.608.467-.028zM393.32 360.787l.417.219-.244.457-.417-.22zM395.068 361.786l.614.432-.336.473-.615-.432zM394.32 362.457l.864.388-.207.457-.864-.388zM394.577 363.5l.564.217-.16.413-.564-.217zM393.704 358.133l.353.192-.636 1.158-.353-.19zM394.002 358.517l.336.157-.264.56-.337-.158zM394.558 359.7l.402.212-.33.618-.402-.213zM395.117 359.996l.214.114-.378.707-.216-.114zM395.46 361.02l.269-.718-.353-.131-.27.718zM395.923 360.689l.392.248-.409.64-.354-.225.139-.217-.146-.092.167-.261.108.068zM396.29 361.358l.27.214-.238.295-.269-.215zM397.8 362.106l.262.118-.278.61-.262-.117zM398.4 362.28l.438.275-.463.73-.438-.274zM410.025 376.173l.361.416-.662.568-.36-.416zM410.792 376.913l.33.355-.678.624-.33-.355zM411.344 375.406l.263.215-.268.287-.278-.256zM412.16 376.338l.23.253-.326.293-.229-.254zM410.15 373.908l-.273.325-.253-.21.273-.325zM409.019 372.329l.204.269-.337.253-.204-.27zM406.402 371.717l.474.372-.38.48-.104-.082-.076.095-.097-.077.04-.142-.228-.179zM407.816 371.055l.259.254-.293.294-.258-.254zM407.771 370.323l.222.267-.509.418-.222-.267zM405.157 370.73l.285.17-.23.384-.286-.169zM405.607 371.052l.364.243-.362.539-.365-.242zM404.028 370.184l.333.217-.245.372-.333-.217zM403.233 369.349l.425.27-.444.69-.425-.272zM401.794 368.394l.257.18-.247.35-.257-.18zM402.598 369.007l-.186.316-.248-.143.185-.317zM393.955 369.241l.672.21-.113.357-.672-.209zM394.503 368.04l.744.254-.165.48-.25-.085.024-.069-.495-.168zM394.221 368.645l.655.203-.104.332-.655-.203zM394.918 366.099l.8.049-.024.403-.129-.008-.014.223-.28-.018.016-.24-.393-.024zM394.607 366.817l.573.057-.023.23.202.019-.025.257-.776-.077zM394.624 367.328l.621.236-.15.39-.621-.236zM395.574 364.426l.487.119-.083.34-.488-.12zM395.687 363.816l.682.195-.052.18.14.095-.06.203-.836-.238zM396.255 362.722l.422.233-.243.435-.421-.234zM398.055 363.947l.352.225-.48.743-.07-.044-.06.092-.28-.18zM397.702 366.53l.308.056-.17.919-.23-.043-.006-.076-.149-.027.066-.356.09.017zM400.048 367.546l.296.185-.247.389-.295-.185zM399.173 363.148l.233.172-.282.38-.233-.172zM401.746 365.397l.329.284-.288.33-.33-.284zM402.205 365.885l.288.23-.235.29-.287-.23zM403.44 366.652l-.288.312-.258-.235.29-.313zM403.576 366.976l.223.19-.258.3-.223-.19zM404.104 367.32l.198.226-.41.356-.198-.226zM406.354 369.242l.363.223-.234.377-.363-.224zM405.282 368.477l.32.236-.247.332-.32-.237zM369.757 337.677l2.85 1.428-.782 1.545-.758-.38-.382.755-.8-.4.43-.85-.323-.162.103-.203-.364-.182.046-.092-.605-.303zM376.638 341.588l.663.333-.31.612-.664-.334zM375.664 340.887l.493.283-.557.961-.493-.283zM373.245 344.52l.852.445-.251.476-.853-.446zM375.633 345.336l-.483.88-1.155-.63.483-.878zM425.31 365.238l-.036.33.33.036.037-.33zM424.74 365.207l-.036.331.33.036.036-.332zM424.22 365.094l-.037.331.331.036.036-.331zM423.658 365.017l-.036.331.33.036.036-.331zM423.102 364.935l-.036.331.33.036.036-.33zM422.535 364.858l-.036.332.33.035.037-.331zM422.71 363.229l-.036.331.33.036.036-.332zM425.549 363.577l-.036.332.33.035.036-.331zM424.987 363.51l-.036.332.33.036.037-.332zM424.41 363.434l-.036.33.33.037.036-.332zM423.864 363.367l-.036.331.33.036.036-.331zM423.265 363.293l-.038.336.482.053.037-.337zM422.945 361.424l-.035.332.33.035.036-.331zM424.076 361.586l-.036.332.33.035.036-.331zM424.659 361.679l-.036.33.33.036.036-.33zM425.246 361.77l-.036.332.33.036.036-.332zM425.792 361.827l-.036.332.33.035.036-.331zM426.354 361.915l-.037.33.33.036.037-.33zM426.91 361.971l-.036.33.33.036.036-.33zM427.51 362.064l-.064.525.48.058.065-.525zM423.502 361.453l-.025.64.326.013.026-.64zM423.147 359.838l-.036.33.33.036.037-.33zM423.724 359.894l-.036.33.33.036.036-.33zM424.317 359.973l-.05.306.462.074.05-.307zM424.919 360.042l-.035.332.33.035.036-.331zM425.98 360.191l-.035.33.33.037.036-.331zM426.599 360.263l-.036.331.33.036.036-.332zM427.15 359.976l-.07.717.417.04.07-.717zM425.47 360.076l-.072.54.373.05.072-.54zM428.541 365.226l-.01.374.536.013.01-.373zM428.545 364.547l-.014.437.582.018.014-.436zM428.571 363.447l-.01.372.536.014.01-.373zM428.695 364.114l-.006.244.59.013.006-.244zM429.015 359.732l-.048.511.6.057.048-.511zM428.825 360.29l-.058.531.5.054.058-.53zM428.782 360.86l-.068.667.48.05.07-.669zM428.98 359.081l-.065.525.48.058.064-.525zM429.101 358.007l-.064.445.483.069.064-.445zM429.153 357.495l-.05.435.464.054.05-.436zM428.225 354.612l.61.1-.078.468-.61-.1zM430.033 354.029l-.02.426-.306-.014.018-.426zM428.29 352.57l.694-.005.003.41-.693.005zM430.835 350.985l-.02.64-.674-.02.02-.641zM429.571 350.157l.919.016-.01.572-.92-.017zM429.847 349.747l.462-.034.027.36-.462.035zM429.612 349.096l.681-.033.024.499-.681.033zM429.629 348.427l.692-.018.015.572-.692.018zM429.453 346.292l.064.419.497-.077-.065-.418zM427.946 345.888l.607-.024.023.554-.516.02-.008-.209-.095-.048zM410.391 360.584l.416.13-.12.383-.417-.129zM412.343 359.304l-.321.064-.076-.371.32-.065zM412.12 360.722l.532-.184.126.363-.532.184zM412.46 362.035l.044.35.59-.075-.044-.35zM416.322 353.648l.482-.021.03.68-.482.022zM414.663 353.761h.386v.555h-.386zM415.247 353.604l.388.027-.041.607-.388-.027zM412.966 352.447l.38-.006.008.653-.38.005zM412.745 353.986l.43-.045.083.78-.43.046zM411.751 355.846l.08.424 1.221-.227-.079-.423zM411.027 355.448l.458-.08.074.414-.46.08zM409.356 354.875l.687-.139.134.657-.243.05-.032-.155-.443.089zM547.041 343.704l.692.027-.018.436-.69-.027zM573.361 335.543l.303.67-.454.202-.302-.67zM608.16 297.273l.459.083-.115.633-.458-.083zM382.303 343.11l-.206.421 1.185.572.215-.44-.569-.275.046-.093-.271-.13-.054.111zM382.482 342.576l-.168.401.916.378.167-.402zM382.728 342.115l-.188.43.906.392.188-.43zM382.833 341.699l-.16.378 1.03.429.159-.378zM383.023 341.225l-.185.43.994.424.158-.366-.224-.095.027-.064zM383.33 340.623l-.25.557.67.296-.014.031.476.211.12-.268-.078-.035.143-.318zM383.674 340.14l-.077.209-.11-.041-.091.248.556.203.168-.456zM383.748 339.672l-.15.34 1.144.504.152-.341zM383.925 339.164l-.201.49 1.164.474.146-.354-.314-.128.056-.136zM384.186 338.708l-.175.428.961.391.1-.245.196.08.075-.183zM384.454 338.119l-.175.41 1.282.54.108-.253.174.073.065-.156zM384.75 337.255l-.305.832.462.167.305-.832zM386.968 338.248l-.189.506.437.162.188-.507zM387.434 338.394l-.246.733.412.137.246-.733zM387.892 338.414l-.231.695.651.214-.05.153.194.064.043-.128.22.072-.094.28.627.208.333-1.002zM389.926 339.163l-.243.655.454.166.242-.654zM390.396 339.314l-.24.67.113.04-.076.213.379.134.317-.882zM389.312 341.503l-.119.385.404.122.118-.385zM389.038 341.924l-.156.46.73.246.157-.46zM388.634 342.987l-.192.43.697.31.192-.431zM387.462 345.758l-.18.398.752.337.18-.398zM384.486 343.757l-.385.776.487.238.385-.776z" clip-path="url(#p905125ad2d)" style="fill:#a9a9a9;fill-opacity:.8"/><path d="m384.945 344.046-.357.725.384.187.357-.726z" clip-path="url(#p905125ad2d)" style="fill:#a9a9a9;fill-opacity:.8"/><path d="m385.299 344.292-.327.666.412.2.324-.67zM390.248 342.785l-.175.452.536.207.176-.453zM390.467 342.311l-.175.456.531.2.174-.455zM391.457 342.044l-.124.342.418.15.124-.342zM391.518 340.023l-.302.875.456.155.302-.874zM392.587 340.192l-.302.874.456.156.303-.875zM394.77 341.332l-.353.97.752.272.354-.97zM395.634 341.347l-.297.838.231.081.031-.088.167.059.267-.75zM397.595 341.944l-.198.544.95.341.158-.435-.252-.09.04-.11zM397.383 342.496l-.163.43 1.06.398.164-.429zM397.312 343.032l-.162.44.855.311.18-.488-.51-.186-.018.05zM397.154 344.83l-.033.135-.406-.099-.113.458.98.24.146-.595zM396.461 345.294l-.112.432 1.1.283.113-.432zM396.587 345.98l-.053.253.115.024-.052.249.489.1.104-.501zM396.146 346.495l-.15.574.937.243.15-.574zM396.203 347.155l-.142.533.525.138.142-.533zM395.413 350.044l-.133.356.418.156.135-.356zM392.829 348.215l-.194.382.375.187.193-.382zM391.812 347.74l-.184.373.324.159.185-.373zM389.659 346.227l-.43 1.008.517.218.429-1.009zM397.644 349.455l-.192.382.374.187.193-.382zM397.736 348.467l-.146.4.681.246.146-.4zM397.895 347.972l-.148.395.775.287.148-.394zM398.114 347.383l-.159.407.694.267.158-.407zM398.388 346.564l-.222.62.432.153.059-.163.584.208.165-.457zM399.168 345.753l-.19.454 1.06.438.19-.454zM399.493 344.754l-.205.475 1.216.52.041-.098.207.088.163-.377zM399.87 342.828l-.145.417.638.22.145-.416zM402.278 343.662l-.25.705.35.123.249-.705zM403.227 343.857l-.093.795.244.028.017-.14.227.026.077-.654zM404.258 343.837l-.508.1.133.667.14-.027.054.27.242-.048-.021-.106.126-.025zM404.941 343.67l.187.762.534-.13-.103-.42.102-.018-.076-.35zM405.6 343.543l.173.761.409-.092-.174-.762zM406.062 343.319l.257 1.252.056-.01.02.1.463-.093-.279-1.354zM406.671 343.253l.173.822.421-.086-.173-.823zM407.117 343.153l.08.421.113-.021.027.145.234-.044-.107-.566zM407.836 345.045l-.751.17.023.105.11-.024.085.372-.172.038.035.153.814-.184zM400.44 347.802l.28.466.446-.266-.28-.465zM408.037 343.185l.267 1.315.548-.11-.266-1.314zM408.585 342.792l.209.908.409-.093-.208-.908zM409.057 342.786l.128.57.184-.04.024.107.239-.053-.153-.678zM409.527 342.688l.166.818.115-.022-.022-.106.418-.083-.144-.713zM410.112 342.604l.212 1.028.19-.038-.085-.414.29-.059-.126-.615zM410.674 342.616l.134.603.469-.102-.134-.604zM411.364 342.5l.235 1.099.234-.05-.034-.16.222-.047-.2-.939zM411.845 342.227l.196.747.428-.111-.195-.747zM412.275 341.968l.123.577.564-.12-.123-.576zM412.924 341.862l.157 1.094.219-.031-.027-.19.144-.02-.13-.905zM413.34 341.942l.054.38.335-.048-.055-.38zM413.645 341.673l.13.678.448-.084-.13-.68zM414.305 342.124l.166.79.512-.106-.253-1.2-.563.117.087.41zM414.884 341.483l.107.556.222-.042.023.119.263-.051-.077-.401.065-.012-.054-.275zM416.455 341.134l.12.79.173-.026-.024-.16.283-.042-.095-.63zM417.446 340.901l.162.844.429-.082-.163-.844zM410.397 351.976l.069.366.562-.104-.068-.367zM409.294 348.134l.14.517.76-.205-.14-.516zM408.81 346.37l.114.638.465-.082-.03-.17.16-.028-.084-.467zM409.477 346.268l.143.556.615-.157-.075-.287-.173.045-.069-.27zM428.768 340.352l-.076.477.74.118.077-.478zM429.251 339.811l-.086.4.476.1.085-.4zM429.376 339.205l-.023.394.515.03.023-.394zM385.019 335.593l-.338 1.018.297.097.098-.295.241.08.12-.361.297.097.12-.36zM386.794 335.9l-.359 1.146.525.162.359-1.146zM387.24 336.454l-.244.729.433.143.244-.73zM387.718 337.179l-.21-.067-.141.44.31.1.109-.34-.1-.03zM388.003 336.754l-.237.776.515.157.238-.776zM389.068 337.37l-.202.639.396.124.202-.639zM389.614 337.516l-.233.794.539.156.232-.794zM390.18 337.699l-.13.383.12.04-.14.407.28.095.27-.79zM390.722 337.495l-.376 1.141.493.162.377-1.141zM391.136 337.973l-.273.838.263.085.274-.837zM392.289 334.228l-.189.533.385.135.188-.533zM391.875 334.024l-.313.803.406.157.313-.804zM391.364 333.822l-.29.745.456.176.291-.745zM390.472 333.535l-.18.887.575.116.18-.887zM389.905 333.385l-.071.336.275.058.071-.336zM388.973 333.348l-.171.78.419.091.172-.78zM388.172 333.013l-.156.77.567.113.155-.77zM387.028 332.519l-.158.618.537.135.092-.359.085.022.066-.259zM386.152 332.973l-.143.451.586.185.063-.198.148.046.08-.252zM385.95 333.479l-.147.434.645.217.147-.434zM391.9 332.44l.206.353.79-.453-.205-.354zM391.103 331.187l.25.427.565-.326-.331-.568-.361.209.081.14zM389.358 326.35l-.22.42.979.508.221-.422zM389.515 325.985l-.14.326.775.327.14-.326zM388.039 329.97l.363.717 1.074-.538-.363-.718zM392.466 327.975l-.405.235.288.492.406-.234zM396.533 328.049l-.403.213.461.863.403-.212zM396.998 329.02l-.388.216.277.491.271-.151-.087-.155.116-.065zM392.4 338.23l-.206.576 1.474.52.206-.577zM392.686 336.622l-.144.396.48.171-.071.198.245.087.238-.66-.312-.111-.023.066zM392.885 335.958l-.168.432.658.253.168-.432zM393.116 335.546l-.11.286.368.138.11-.285zM393.527 334.832l-.146.38.644.243.146-.38zM393.408 334.145l-.185.498.83.305.185-.498zM393.723 333.635l-.138.46.59.177.055-.18.135.04.085-.28zM395.542 340.065l-.17.403.258.109.171-.404zM396.039 339.605l-.254.69.402.146.254-.69zM396.836 339.419l-.555 1.209.48.218.554-1.209zM396.988 340.71l-.107.28.341.129.02-.051.304.115.328-.855-.57-.217-.24.628zM398.033 340.795l-.183.515.933.329.183-.516zM399.318 340.745l-.262.693.459.17.261-.692zM398.425 337.69l-.226.54 1.471.61-.126.3.597.249.687-1.638-.625-.26-.026.06-1.192-.493-.218.52 1.117.464-.09.215zM401.252 336.09l-.191.428.631.28.192-.429zM401.358 335.44l-.178.406.831.36.177-.404zM401.744 335.126l-.078.182.097.04-.078.181.381.161.155-.363zM401.97 334.597l-.155.41.617.23.156-.408zM402.036 334.003l-.154.358.643.274.154-.358zM402.861 335.78l-.38.91.49.202.379-.91zM405.007 336.537l.008.51.301-.005-.001-.129.226-.004-.004-.265-.205.003-.002-.115zM406.929 336.573l.024.534.437-.02-.024-.533zM407.741 336.239l-.026.575.771.034.026-.575zM410.44 335.74l-.153.683.612.135.152-.684zM412.067 336l-.008.455.444.008.007-.457zM412.974 335.75l-.012.71.513.009.012-.71zM415.257 335.53l-.006.476.39.005.006-.477zM416.394 335.468l-.019.54.393.014.02-.54zM417.611 335.544l-.006.476.39.005.006-.477zM405.536 323.106l-.394.196.202.4.119-.06.063.126.18-.091-.058-.116.094-.047zM406.57 322.547l-.4.21.261.492.4-.21zM408.131 321.77l-.41.194.307.64.409-.194zM409.187 321.255l-.487.254.252.479.487-.254zM410.39 320.71l-.4.194.23.472.402-.195zM411.467 320.112l-.477.2.352.829.205-.086.051.121.2-.084-.055-.133.071-.03zM406.102 320.97l-.214.095.042.094-.556.247.247.552.388-.172.092.206.382-.169zM407.632 320.377l-.353.142.32.785.352-.142zM408.12 319.966l-.502.21.38.9.502-.21zM404.548 320.186l-.77.312.202.49.768-.31zM404.68 319.218l-.473.105.105.467.472-.105zM406.065 317.459l-.675.028.019.444.674-.027zM405.869 316.394l-.623.042.031.457.624-.043zM405.586 314.592l-.435.016.018.522.436-.014zM404.087 312.88l-.314.009.014.45.314-.01zM404.202 312.197l-.823.028.014.419.824-.028zM408.28 317.395l-.427.18.256.601.426-.179zM412.142 315.854l-.453.205.223.488.453-.204zM412.628 315.604l-.368.157.174.402.368-.157zM413.692 314.976l-.5.24.12.25.084-.04.116.24.417-.198zM414.286 314.7l-.422.18.177.413.424-.18zM415.513 314.039l-.595.316.218.404.594-.316zM415.26 312.801l-.757.419.284.508.757-.419zM413.52 312.955l-.735.227.146.465.735-.227zM412.632 312.181l-.38.188.181.365.381-.188zM412.548 311.614l-.646.283.17.382.645-.283zM413.248 309.71l-.396.137.13.374.397-.137zM411.14 309.273l-.402.189.18.379.402-.19zM410.588 309.541l-.336.188.216.382.336-.187zM410.045 309.762l-.376.174.192.409.375-.175zM408.176 310.62l-.8.353.195.441.801-.352zM408.759 311.583l-.888.395.207.464.75-.333-.034-.073.14-.062zM408.753 312.502l-.479.205.159.367.48-.205zM409.388 313.39l-.686.298.164.371.686-.299zM409.682 313.786l-.768.333.165.375.767-.334zM410.083 314.132l-.952.45.201.422.953-.45zM410.31 314.708l-.675.328.164.335.676-.328zM409.148 316.39l-.809.391.114.233-.103.05.147.302.913-.443zM408.438 315.034l-.446.205.078.168-.199.091.13.28.645-.295zM408.142 314.357l-.287.148.034.065-.28.145.215.411.567-.293zM407.44 313.86l-.801.352.196.442.8-.353zM407.521 312.897l-.641.279.188.431.257-.11.067.151.385-.166zM407.156 312.323l-.72.346.063.13-.18.086.12.247.119-.057.062.13.782-.375zM405.805 311.805l-.358.112.133.418.358-.112zM406.56 310.683l-.505.22.175.4.507-.22zM406.217 309.792l-.8.352.197.441.8-.352zM405.987 309.347l-.504.24.066.138-.104.05.081.168.608-.29zM405.79 308.935l-.662.29.16.36.661-.29zM407.518 309.607l-.405.228.185.326.405-.228zM407.132 309.066l-.567.3.28.526.59-.31-.066-.124.075-.04-.104-.195-.097.05zM406.857 308.745l-.15.073-.097-.195-.309.15.224.451.459-.225zM418.677 314.71l-.188.092.057.115-.147.07.11.223-.216.105.275.56.416-.202-.068-.14.133-.064zM419.477 315.02l-.157.087.115.205.157-.087zM421.516 313.677l-.399-.105-.083.311.399.106zM401.945 337.685l-.378.913.368.15.042-.102.076.031.336-.811zM403.006 338.101l-.143.473.048.014-.047.153.325.097.035-.118.112.034.154-.508zM403.71 338.215l-.012.755.509.008.012-.755zM405.841 338.218l.072.778.575-.052-.072-.778zM407.046 338.049l.132.937.45-.062-.072-.509.163-.022-.06-.43zM409.934 337.646l.1.702.375-.052-.1-.703zM407.318 340.15l.109.512.579-.123-.11-.511zM408.585 340.592l.19.796.508-.12-.19-.796zM409.255 340.829l.195 1.031.486-.09-.194-1.032zM411.008 341.033l.125.574.454-.098-.125-.573zM412.21 340.635l.136.708.828-.158-.083-.432-.329.063-.053-.276zM413.131 340.596l.13.579.733-.164-.13-.578zM413.97 340.603l.093.381.478-.115-.093-.381zM414.374 339.98l.191.836.171-.039.012.052.294-.067-.204-.887zM416.162 339.591l.07.513.417-.056-.07-.512zM416.616 339.394l.076.432.391-.069-.075-.43zM416.95 338.923l.057.334.264-.045.123.722.556-.093-.18-1.056zM417.925 338.62l.2 1.166.398-.068-.235-1.371-.566.096.035.206zM418.52 339.073l.073.64.486-.053-.072-.641zM419.048 339.025l.067.623.503-.054-.067-.622zM419.874 338.514l.134.79.483-.08-.134-.79zM421.901 337.836l.13.498.112-.028.184.707.336-.086-.313-1.207zM422.425 336.59l.098 1.126.57-.048.02.227.152-.013-.118-1.354zM430.042 336.456l.078.783.45-.044-.078-.784zM397.768 351.149l.298.473.347-.217-.297-.473zM398.16 350.676l.272.412.52-.34-.271-.413zM398.733 350.317l.359.59.12-.072.086.14.27-.162-.086-.143.167-.1-.357-.589zM400.3 349.415l.214.358.345-.204-.214-.358zM400.768 348.985l.173.539.078-.025.04.127.367-.116-.213-.666zM401.468 348.709l.177.444.466-.184-.177-.444zM402.05 348.171l.178.507.381-.133-.178-.506zM402.467 348.034l.197.608.433-.139-.197-.608zM402.95 347.865l.176.589.28-.083.043.147.134-.039-.22-.736zM403.37 347.68l.342.943.39-.14-.34-.943zM404.996 347.198l.29.917.508-.158-.29-.918zM405.587 347.11l.171.552.404-.123-.17-.553zM406.83 346.609l.152.558.372-.1-.069-.253.07-.02.037.14.788-.21-.12-.446zM407.709 347.233l.108.375.56-.16-.107-.375zM407.734 347.765l.12.488.677-.164-.12-.489zM408.2 349.234l.106.476.6-.132-.107-.477zM400.621 341.252l-.264.715.278.102.033-.09.21.078.232-.627zM401.813 341.867l-.109.514.444.093.109-.514zM402.303 341.997l-.087.521.605.1.087-.52zM402.95 342.03l-.07.581.644.077.088-.728-.48-.058-.018.148zM403.65 341.954l-.038.73.458.024.039-.73zM404.153 341.553l-.02 1.16.591.01.021-1.16zM404.806 342.053l.03.668.441-.02-.051-1.13-.328.016.02.46zM404.696 340.738l-.006.538.284.003.002-.164.176.002-.005.4.263.003.01-.774zM406.612 341.865l.132.713.566-.104-.132-.713zM405.943 339.752l.077.444.748-.128-.077-.444zM407.636 341.894l.091.433.611-.127-.15-.71-.366.078.058.275zM408.261 341.57l.103.617.504-.083-.102-.616zM354.736 628.394l-.056 1.023.867.047.056-1.023zM352.136 625.81l.006.777.773-.005-.004-.526-.205.001-.002-.251zM362.244 627.95l-.193.418.442.204.194-.42zM365.437 621.366l-.042.33-.07-.009-.034.271.199.025.014-.111.763.095.062-.49zM366.78 617.511l-.359.3-.392-.467-.344.286.102.121-.114.096.284.338.066-.055.462.549.752-.625zM371.425 618.798l.018.842 1.131-.024-.017-.841zM369.079 614.65l.065 1.092.338-.02-.004-.078.246-.015-.06-1.014zM376.089 614.037l-.01.276.097.004-.018.574.796.025.027-.852zM393.047 611.751l.005.326.332-.006-.005-.326zM418.643 565.498l-.722.633.227.255.721-.632zM418.81 565.875l-.216.184.278.325.216-.184zM405.56 562.258l-.046.184.481.12.047-.183zM401.028 558.319l.112.663.981-.164-.173-1.021-.711.12-.045-.269-.796.133.106.626zM408.718 549.796l-.086.374.655.148.086-.373zM410.607 547.545l-.1.367.696.188.1-.367zM416.297 515.525l-.571.688.727.597.481-.58-.315-.259.09-.108zM393.653 454.706l-.14.884.972.152.14-.885zM366.262 400.413l-.09.387.455.103.089-.386zM367.662 400.817l-.09.43.635.133.091-.43zM369.527 398.957l.03.359.33-.028-.031-.359zM378.026 394.644l.181.752 1.054-.252-.182-.752zM379.396 395.91l.069.404.394-.066-.068-.404zM496.186 632.874l-.336.623.346.185.337-.623zM493.553 628.839l.007.054-.154.02.057.423.166-.022.012.091.682-.09-.077-.568zM438.798 417.323l.582.393-.063.094.616.415-.258.378-.997-.673.223-.326-.202-.137zM441.075 418.75l.188.183-.104.106-.188-.183zM478.226 447.273l.58.2-.08.23-.107-.038-.16.46-.665-.23.061-.174.192.066zM499.197 507.555l.874-.205.107.45-.875.204zM498.02 506.076l.137.128-.228.243-.137-.128zM525.659 522.939l.379.034-.033.36-.378-.033zM524.722 524.379l.49.075-.045.29-.49-.074zM588.417 631.318l1.61-.215-.051-.378-1.61.215zM586.455 632.957l.766-.151.113.563-.339.067.026.125-.27.052-.078-.392-.16.032zM585.954 633.008h.176l-.002.283-.176-.001zM85.262 499.032l.324.02-.024.38-.323-.02zM87.787 499.289l.503.393-.41.52-.504-.393zM120.106 520.294l.62.35-.293.513-.62-.35zM122.702 521.75l.782.456-.416.706-.566-.33.189-.32-.217-.126zM124.812 519.063l.36.272-.433.565-.36-.273zM125.717 519.39l.239.161-.154.224-.238-.162zM241.669 454.826l.334.422-.414.325-.334-.422zM239.854 448.846l.532.448-.344.404-.531-.448zM596.677 296.196l-.012.257.407.019.01-.258zM592.835 294.75l.213.36.125-.073.053.09.15-.087-.074-.125.093-.054-.194-.326zM593.148 292.012l-.041.888.486.022.042-.887zM598.604 286.705l-.09.572.56.087.09-.572zM591.282 287.593l-.14.523.187.05-.03.115.576.153.171-.639zM590.96 288.633l-.195.39.238.119.196-.39zM593.39 302.241l.132.276.344-.163-.132-.275zM558.893 256.977l-.037.549.406.026.036-.548zM547.157 345.225v.286l.276-.001v-.287zM548.493 336.613l.127.26-.227.11.171.349.235-.114.07.144.648-.313-.369-.753zM561.94 302.528l.353 1.214.47-.135-.353-1.214zM560.664 303.839l.12.283.445-.185-.12-.283zM615.03 385.175l-.276.562.576.28.276-.561zM515.59 266.64l-.309.458.779.522.31-.458zM543.48 206.178l.245.504.255-.123-.246-.503zM540.734 204.903l.131.313.18-.075.206.489.488-.204-.338-.8zM436.657 340.665l.02 1.262.372-.007-.007-.489.291-.004-.012-.773zM441.43 340.288l.01.437.296-.006-.01-.437zM403.383 303.643l.049.456.543-.057-.048-.455zM405.032 303.867l.015.398 1.044-.04-.014-.397zM404.98 301.81l-.018.417.418.018.018-.419zM404.93 300.542l.03.453.687-.045-.03-.454zM404.876 299.53l.034.344.387-.037-.033-.344zM393.264 250.416l-.295.55.628.333.295-.549zM353.207 103.698l.05.23.301-.063-.048-.23zM357.438 164.25l.33.905.525-.19-.33-.905zM383.356 195.169l.249.409.305-.184-.25-.409zM398.896 180.928l-.203.435.247.115.204-.434zM408.735 157.87l-.156.336.199.092.156-.336zM403.314 130.668l-.029.427.382.025.029-.426zM402.51 132.057l-.024.29.282.023-.028.352.72.057.051-.643zM391.158 309.676l-.126.427.404.118.126-.428zM390.116 309.401l-.071.432.375.06.07-.432zM387.716 308.084l-.119.436.373.1.118-.436zM379.77 308.164l.075.55.396-.053-.075-.551zM376.702 308.785l-.013.902.907.013.012-.902zM374.497 309.026v.368l.525-.001.001.34.506-.001-.003-.71zM378.117 306.514l-.01.204.488.024.01-.204zM369.68 310.713l.047.41.399-.045-.048-.41zM370.442 310.516l.088.657.48-.064-.088-.657zM371.292 310.418l.08.492-.334.053-.08-.491zM365.537 309.451l.038-.438-.397-.033-.038.438zM364.486 308.832l-.026.31.486.04.026-.31zM364.229 307.093l-.106.415.631.16.106-.416zM356.906 309.938l.287.267.27-.288-.287-.267zM360.047 321.527l-.061.162.1.038-.12.314.61.23.182-.475zM357.909 317.662l-.122.361.394.131.121-.36zM356.61 317.122l-.231.376.316.193.231-.377zM355.81 316.946l.131.097-.158.212.3.222.414-.557-.431-.318zM355.164 316.011l-.302.31.335.322.302-.309zM354.533 315.32l-.38.386.349.341.38-.386zM353.839 314.753l-.21.223.345.32.21-.224zM353.387 314.26l-.57.574.345.339.57-.575zM353.02 313.839l-.565.547.328.336.565-.547zM352.678 313.523l-.415.395.282.294.415-.396zM352.067 312.776l-.49.528.297.272.49-.528zM351.61 312.365l-.351.376.332.306.351-.376zM351.332 312.087l-.279.304.25.225.277-.304zM350.546 311.234l-.304.29.723.746.304-.291zM350.136 310.828l-.215.221.384.368.215-.22zM346.43 307.263l-.265.322.168.137-.065.079.274.224.33-.4zM336.988 313.301l-.641.814.646.503.64-.814zM334.022 310.912l-.116.462.53.132.117-.462zM334.619 309.91l-.12.602.434.085.12-.602zM349.58 289.372l-.75.401.393.726.76-.406-.089-.164.224-.12-.21-.386-.232.125zM343.69 300.52l.043.457.483-.045-.013-.13.158-.015-.031-.327zM346.959 304.854l-.32.449.341.242.32-.45zM348.67 306.528l-.212.25.791.659.484-.575-.398-.332-.273.325zM350.556 307.741l-.242.347.307.213.243-.347zM352.538 308.706l-.584.707.368.3.583-.707zM352.695 309.465l-.271.369.321.235.273-.369zM353.607 309.434l-.348.398.27.234.348-.398zM354.891 311.618l-.381.517.415.303.381-.516zM355.733 312.614l-.293.319.41.374.293-.318zM356.25 313.196l-.247.312.294.23.247-.311zM356.83 313.295l-.438.57.412.313.438-.57zM357.318 313.887l-.343.441.351.27.343-.44zM357.719 314.239l-.344.453.344.257.342-.454zM358.978 314.884l-.497.643.603.46.496-.643zM360.07 315.751l-.468.64.394.285.468-.64zM360.317 316.31l-.291.418.31.216.292-.418zM360.969 316.146l-.56.876.396.251.561-.876zM348.218 286.663l-.121.267.28.126.12-.266zM337.162 274.109l-.145.64.484.109.146-.641zM324.532 253.221l.352.897.759-.294-.352-.897zM323.586 252.207l-.707.575.33.401.707-.575zM324.376 252.666l-.31.25.196.241.31-.249zM280.179 235.63l.002.149-.204.002.006.525.226-.002.002.16.14-.001.002.185.832-.01-.013-1.02zM280.138 236.708l.016.278.602-.033.033.592.106-.006.008.142.299-.016-.056-1.012zM282.079 235.268l-.013.471.455.013.013-.47zM271.806 241.623l-.022.289.294.023.023-.289zM288.039 227.38l-.32.537.496.293.184-.308.1.058.137-.229zM288.098 226.912l-.148.278.237.125.148-.278zM270.05 212.661l-.341.454.408.304.341-.454zM268.76 211.105l-.434.65.373.246.434-.651zM262.181 191.876l-.285.33.45.384-.077.089-.126-.109-.195.226.432.369.556-.644zM263.361 190.299l-.239.24.19.186.237-.24zM256.965 185.14l-.713 1.05.458.308.713-1.05zM260.055 182.957l-.185.242.307.232-.21.273.402.305.394-.515zM257.097 172.79l-.146.249.302.174.146-.25zM242.104 139.191l-.86.37.327.75.859-.37zM236.753 140.494l-.61.039.033.487.61-.04zM236.274 137.971l-.72.187.072.277.157-.04.059.223.563-.146zM235.886 135.714l-.679.155.105.452.679-.156zM235.802 136.349l.083.37.227-.05-.083-.37zM238.05 135.072l.075.577.52-.068-.076-.577zM235.231 134.353l-.662.09.035.243.237-.032.014.1.424-.058zM222.624 139.727l.01.21.176-.008-.01-.21zM228.454 135.09l.183.69.337-.09.039.145.268-.07-.264-.993-.367.096.042.159zM233.362 133.331l.04.433.705-.065-.04-.432zM237.14 132.132l.08.588.475-.064-.08-.588zM217.35 113.903l-.114.393.285.082.115-.392zM183.503 173.57l.119.482.762-.186-.118-.481zM183.953 172.463l.307.72 1.07-.452.175.41.397-.168-.544-1.275-1.27.537.061.145zM183.387 178.305l-.095.377.627.156.094-.378zM182.21 174.336l-.06.386.26.04.06-.387zM221.033 170.008l-.05.568.281.025.02-.217.189.016.03-.351zM172.597 169.582l.27.683.436-.17-.27-.683zM171.598 168.798l.073.523.408-.056-.072-.523zM171.128 171.655l.085.456.293-.054-.086-.457zM174.972 132.407l.157.494.451-.142-.157-.494zM174.532 132.07l.194.626.265-.08-.194-.628zM136.604 148.175l.23.64.273-.098-.23-.64zM131.735 143.915l.01.607.623-.01-.01-.607zM114.003 72.521l.005 1.115.69-.003-.007-1.115zM115.576 72.816l-.17.517.828.27.25-.761-.755-.247-.08.245zM116.26 72.387l-.104.282.377.137.104-.282zM116.158 73.836l-.144.277.223.115.145-.277zM256.366 91.495l-.114.389.461.134.114-.389zM258.104 92.077l-.15.219.268.18.15-.218zM258.911 92.627l-.146.253.374.213.25-.433-.53-.304-.105.18zM262.862 96.959l-.077.164.199.093.076-.165zM292.261 119.783l-.211.124.12.203.212-.124zM310.036 111.073l-.75.762.404.394-.25.253.197.192.277-.281-.086-.083.226-.23-.095-.093.227-.229.076.074.271-.275zM113.1 515.401l.561.115-.181.872-.561-.115zM107.879 566.071l.173.024.039-.282.524.072-.123.89-.698-.096zM194.616 523.604l.27.157-.129.218-.27-.157zM174.478 576.608l.732.055-.04.524-.886-.067.02-.26.154.012zM174.13 577.491l.593.05-.025.303-.594-.05zM234.949 421.678l.215.278.244-.188.444.572-.779.598-.295-.38-.165.127-.364-.469zM248.398 427.582l.531-.173.141.426-.531.173zM271.65 427.626l.037.484-.485.036-.037-.483zM271.312 428.35l.48-.174.343.934-.48.174zM281.094 421.059l.632.432-.28.405-.632-.433zM331.356 434.613l.48.107-.16.705-.479-.106zM339.604 427.145l.407.261-.233.358-.406-.262zM222.213 568.006l1.384-.086.05.79-.995.062-.008-.134-.276.017-.013-.22-.115.007zM229.492 568.902l1.083.337-.148.468-1.082-.337zM150.477 615.656l.795-.179.144.632-.51.115-.076-.337-.286.064zM195.54 396.867l.524.179-.132.384-.525-.18zM415.023 432.734l.761.064-.101 1.197-.81-.068.02-.228-.108-.01.065-.767.156.013zM417.311 434.658l.586.046-.033.413-.586-.047zM420.055 431.698l.77-.03.039.95-.77.03z" clip-path="url(#p905125ad2d)" style="fill:#a9a9a9;fill-opacity:.8"/></g></g></g><defs><clipPath id="p905125ad2d"><path d="M91.232 86.4h555.536v554.4H91.232z"/></clipPath></defs></svg>