<svg xmlns="http://www.w3.org/2000/svg" width="960" height="960" viewBox="0 0 720 720"><defs><style>*{stroke-linejoin:round;stroke-linecap:butt}</style></defs><g id="figure_1"><path id="patch_1" d="M0 720h720V0H0z" style="fill:#fff"/><g id="axes_1"><path id="patch_2" d="M90 634.234h558V92.966H90z" style="fill:#fff"/><g id="LineCollection_1"><path d="m274.487 415.152 2.566 4.325M301.076 421.786l-4.975-.482-2.321-.17-4.191-2.297-2.412-.823-3.015.567-2.14.256-2.593-.908-1.99-1.106-1.507-2.014-.543-.624-.392.029-.51.938" clip-path="url(#p3b3e824be2)" style="fill:none;stroke:#000"/><path d="m248.77 390.07 1.816 2.562 10.454 13.508 1.734 1.857 1.583 1.347 1.386.808 3.98 1.369 1.636.674 1.108.702 1.047 1.02.973 1.235M562.668 489.56l1.77-.08 1.43-.364M614.09 481.231l-.79-2.048-.93-1.173-1.202-1.019-2.228-.646-1.875.208-1.714.837-2.547 3.145-1.832 2.323-1.737 1.127-1.713.33-1.685-.025-2.202-.027-2.097.108-3.52 1.78-1.265.596-1.415.42-2.035.053-7.847-1.167-2.525.29-2.383.84-2.658 1.22-2.022.713" clip-path="url(#p3b3e824be2)" style="fill:none;stroke:#000"/><path d="m565.146 490.385.13-.527.592-.742M542.231 479.505l1.274 1.6M539.701 473.374l.832 2.505 1.698 3.626M539.605 476.813l-.18.624.27.58.89.511 1.646.977M531.774 462.574l1.942 1.48M531.774 462.574l.98-.822M499.55 472.84l1.36.617 1.608.278 1.785.043 1.84-.105 3.908-1.115 8.21-2.864 1.37-.592 1.1-.59 1.878-1.968 2.36-2.76 1.474-1.226 1.422-.521 1.476-.217 1.162.174 1.271.58M473.342 459.489l7.997 2.76 5.066 1.625 2.141 1.08 2.144 1.39 8.86 6.497" clip-path="url(#p3b3e824be2)" style="fill:none;stroke:#000"/><path d="m520.716 473.339-1.877.524-.967.303-1.761.089-4.661-.365-1.665.104-.943.21-1.887.312-3.329-.157-2.83-.351-1.246-1.167M468.677 458.05l-1.434-.512M468.677 458.05l2.168.67M468.677 458.05l-.707-1.184-.515-.627M468.677 458.05l-2.411.062M460.69 455.208l4.587 1.631 1.966.7" clip-path="url(#p3b3e824be2)" style="fill:none;stroke:#000"/><path d="m467.243 457.538.227-.59-.015-.71M466.266 458.112l.391-.079.34-.2.246-.295M458.443 454.414l-3.808-1.358M458.443 454.414l2.84 1.99M458.443 454.414l2.248.794M461.278 454.232l-.93.203-.953.06-.952-.081M397.434 442.495l-3.824 3.334-2.432 2.362-2.565 1.943-2.38 1.07-3.112.898-5.06 1.283-2.318.39-.958-.088-1.065-.229-4.03-1.452-4.125-1.323-2.657-.66-3.254-.249-4.572.424-1.914.199-2.683.531-2.398 1.025-5.622 2.797-2.037.824-1.86.353-2.472.284-2.042.12-2.82.022" clip-path="url(#p3b3e824be2)" style="fill:none;stroke:#000"/><path d="m331.235 456.353-1.915-.68-.836-.306-.58-.24-.913-.454-.761-.426-.505-.383-.628-.589-.86-.78-.865-1.107-1.115-1.656-1.39-1.963-2.27-3.06-.844-1.18" clip-path="url(#p3b3e824be2)" style="fill:none;stroke:#000"/><path d="m323.642 452.514.96.96.701.683.525.474 1.459.823 1.77.671 2.178.228M277.053 419.477l.919 1.548 1.897 2.883 1.642 2.29 2.007 2.074 1.092.714 1.717 1.01M286.327 429.997l1.139.746 1.502.599 2.063.535 3.63.436 3.312.29 2.593.239" clip-path="url(#p3b3e824be2)" style="fill:none;stroke:#000"/><path d="m300.626 432.275-2.582-.342-2.988-.276-3.487-.332-2.57-.595-2.672-.733M481.694 280.409l-.138.882M480.088 273.077l.21 1.135.604 2.07.553 2.595.239 1.532M483.668 280.346l-.332-.617-.173-.17-.385-.163-.392.014-.339.227-.353.772M438.154 310.663l-1.33.556M446.253 304.59l-.263.212-4.452 3.82-1.95 1.365-1.434.676" clip-path="url(#p3b3e824be2)" style="fill:none;stroke:#000"/><path d="m441.331 307.272-.98 1.24-1.055 1.079-1.142 1.072M190.062 343.174l1.01-.684M176.792 326.22l1.638 2.508 6.162 7.712 1.373 1.811 4.097 4.923M197.683 350.4l-3.148-2.803-4.473-4.423M238.24 372.004l.126 1.567.965.822 2.773 1.362.332.397.09.567-.361.368-1.749-.312-2.532-.737-1.196.448M199.069 351.65l7.024 6.331 4.802 3.835 1.227.748 1.41.53 4.855 1.126 1.154.39 1.25.581 1.23.802 7.439 6.501 1.718 1.426 1.643 1.056 1.372.639 2.495.871M248.77 390.07l-4.833-9.566-1.368-1.513-.975-.625-1.213-.575-3.693-1.305M317.753 443.529l-1.32-2.03-1.23-1.808-1.734-1.971-.391-.454-.483-.482-1.123-.936-.279-.227-1.07-.808-1.078-.56-1.438-.695-1.946-.518-5.035-.765M308.135 432.594l-2.504-.064-5.005-.255M444.828 439.37l-1.11-1.112M444.828 439.37l.567.683M444.828 439.37l-.053-.786-.303-1.284M445.814 444.429l-1.047-1.49-.542-2.325.603-1.244M317.753 443.529l-.877-1.91-.603-1.8-.377-1.631-.195-1.205-.116-2.305M430.24 318.555l-2.148 3.945M436.824 311.22l-2.508.955-.871.602-.712 1.089-2.492 4.689M429.572 322.908l.298-1.172.37-3.181M420.2 432.42l.208-.305.179-.092.247-.025.6-.018.507-.045M422.343 438.565l-.346-.474-.8-1.759-.5-1.172-.533-1.054-.072-.855.109-.831M420.2 432.42l.087-1.327M425.27 478.838l.045-.939.226-.943.346-1.453.12-.915.031-.674-.106-.865-.06-.677-.03-.662.03-.596.173-.815.49-1.65.411-1.044.245-.398.377-.248.362-.096.618.008.814.18.558.15.72.074.617-.068.724-.244.909-.493.617-.673.558-.89.414-.862.227-.563.12-.72.05-.77.014-.701-.327-.642-.453-.44-.61-.36-.8-.185-.9.06-1.01.177-.904.01-.535-.116-.464-.337-.313-.38-.342-.609-.28-.613-.615-1.582-1.246-2.076-.943-1.74-.784-1.659-.48-1.122.107-.988.213-1.607-.089-1.155-.463-2.26-.107-1.943-.115-1.417" clip-path="url(#p3b3e824be2)" style="fill:none;stroke:#000"/><path d="m428.53 443.654.421-.624.818-1.347 1.613-1.815.686-.914.09-.71-.143-.652-.52-.574-.799-.248-.656.07-.55.249-3.663 2.112-2.397 1.106" clip-path="url(#p3b3e824be2)" style="fill:none;stroke:#000"/><path d="m422.343 438.565.508.698.58 1.044M407.123 417.221l1.623 1.73 2.123 1.866 3.045 1.562 2.122.738 2.538.39 2.584-.043 5.168-.564 3.968-.564 4.383-.564 2.676-.087 4.247.751 2.773.284 1.452.73.61.484.468.53.234.704.047.793-.14.926-.563 1.278-1.124 2.91-.937 2.026-.375 1.41v1.411M444.045 435.922l-.422.837-.614.994M444.045 435.922l.427 1.378M443.01 437.753l.707.505M430.638 432.454l.786.186 1.736.57 3.552 1.486 4.1 1.88 2.197 1.177M442.402 439.148l.043-.696.564-.699M407.123 417.221l-2.135-3.006M407.123 417.221l-2.954 4.368M463.041 458.68l3.422 1.084M457.02 466.16l1.285-1.498 4.736-5.981M463.041 458.68l.604-.452.689-.327.745-.19" clip-path="url(#p3b3e824be2)" style="fill:none;stroke:#000"/><path d="m462.776 456.936.239.559.09.59-.064.596M562.668 489.56l-2.94-.695-10.012-4.302-4.473-2.154-1.738-1.304" clip-path="url(#p3b3e824be2)" style="fill:none;stroke:#000"/><path d="m576.845 495.808-1.73-.35-1.52-.56-1.357.05-.977.46-1.411.612-1.465.204-1.574-.102-1.248.153-1.14-.153h-1.03l-.652.562-.652.97-.325.918.271.817-.217.97-.597.919-1.172.03v-1.484l-.418-1.179-.557-.48-1.67-.872-1.717-1.179-1.531-1.397-.65-1.003-.417-1.703-.697-1.527-1.067-1.179-.928-1.047-1.253-1.222-1.252-1.44-1.578-1.179-1.345-1.178-.836-.96-.628-1.174M520.716 473.339l.841 1.107-.542 2.808.542 2.694 1.779 1.617.724 2.467 1.417.794 1.93-.255 2.23-1.021 1.387.028 4.703-.936 5.065-2.042 2.141 1.106.572-.601" clip-path="url(#p3b3e824be2)" style="fill:none;stroke:#000"/><path d="m565.146 490.385-.414-.23-2.064-.596M461.283 456.404l1.493.532M460.69 455.208l.045.455.206.415.342.326M462.776 456.936l2.303.775M467.156 455.562l3.812 1.29M467.156 455.562l-4.604-1.578-.426-.05-.48.093-.368.205" clip-path="url(#p3b3e824be2)" style="fill:none;stroke:#000"/><path d="m454.635 453.056 2.772-.93h2.885l3.33.73 3.217 1.044.317 1.662M467.156 455.562l.3.677M465.079 457.711l1.187.4M465.079 457.711l1.384 2.053" clip-path="url(#p3b3e824be2)" style="fill:none;stroke:#000"/><path d="m461.278 454.232-.295.266-.201.335-.091.375M611.088 472.353l.624.258 3.55 1.544.938.536.335.598.067 1.072-.034.85-.87.473-.871.41-.738 1.197.001 1.94M473.342 459.489l-.998-.307M473.342 459.489l-3.471 1.355M474.406 470.462l-.298-.585-.905-2.554v-2.66l.17-2.607-.227-1.223.196-1.344M441.196 481.48l-.04-1.133.262-2.533 1.137-1.68 2.871-3.311 3.447-2.934 3.13-1.852.995-.496 3.272-1.007.75-.374M459.078 466.477l-.75.176-.468-.22-.469-.177-.37-.096M484.11 495.153l.306 2.05M483.619 489.817l-.18 1.392.227 2.022.444 1.922M479.44 496.027l.587-.325 2.2-.483 1.883-.066M209.252 308.08l-.68.628-2.508 1.975-.882.574-.852.362-.633.312-.61.505-.702.97-.904.921-1.281 1.617-.439.856-.315.953-.03 1.042.241.645.536.476 1.123.41 1.461.072 1.523-.117.75.07.55.245.407.316.181.641.087 1.482-.158 1.383-.242 1.418-.814 2.369-1.36 2.867-2.295 3.231-.4.589-.52.525-1.873.78-1.405.73-1.372.702-.875.652M191.072 342.49l1.176-1.018 1.832-2.176.881-1.015" clip-path="url(#p3b3e824be2)" style="fill:none;stroke:#000"/><path d="m199.052 332.642-1.598 2.354-1.9 2.127-.593 1.158M446.66 312.188l-.402.653-1.264.749-1.628.582-1.251.24-1.085-.226-1.086-.823-1.872-1.529-1.248-.615M448.627 305.052l-.08-.157M455.77 318.784l1.194-2.981v-1.66l-.166-1.63-2.292-1.504-2.035-1.319-1.402-1.617-2.442-3.02M446.66 312.188l.17-.481.14-1.052.15-2.397.467-1.788.54-1.062.5-.356M426.937 331.696l1.249-.01 2.314-.084.67-.291.167-.405-.06-.46-.26-.266-1.614-.217-.309-.152-.146-.312.47-2.515.72-2.523.166-.582-.068-.297-.664-.674M429.572 322.908l-.443-.263-.48-.127-.557-.018" clip-path="url(#p3b3e824be2)" style="fill:none;stroke:#000"/><path d="m425.768 330.24 3.68-6.802.124-.53M425.768 330.24l1.169 1.456M425.768 330.24l-.918 1.765M424.6 332.517l.25-.512M421.346 335.281l2.36-1.947.894-.817M424.6 332.517l-1.637-.543M437.468 338.415l-2.533-.737-1.592-.435-1.302-.587-1.447-1.02-1.343-1.096-.74-.901-1.574-1.943M417.984 361.154l-2.439-5.508-.38-1.02-.069-1.314.23-1.688.942-6.926 5.078-9.417M421.346 335.281l.518-1.058M423.244 331.38l-1.355-.316M423.244 331.38l-.28.594M424.85 332.005l-.817-.411-.789-.214M423.244 331.38l.503-.922M417.187 330.96l-.014.428M417.187 330.96l-4.88.232-2.263.586-1.941.898-3.907 2.501M418.24 327.726l.004.596-.242.835-.815 1.802M417.187 330.96l3.846-.06M385.21 310.37l.884.304.905.057 2.8.626.515.111.431-.076.37-.273.749-1.713.769-.822.905-.469.806-.205 1.447.127 1.337.028.867-.142.547.015.485.084.616.172.38.155 2.291 1.474 2.001.973 1.195.616 2.484 1.448 1.304 1.163 1.036 1.587.607 2.632.528 1 2.904 3.686 3.579 4.284.289.514M421.033 330.9l-.769-1.589-.95-.943-1.073-.642M385.21 310.37l-.574-.638-.385-.528-.286-.528-.739-1.432-.423-.522-.488-.464-1.04-.844-.853-.752-.192-.328-.154-.409-1.018-4.914-.139-.53-.122-.316-.145-.275-.189-.188-.286-.124-.456-.005M376.67 294.812l.154.26.267.48.253.597.377 1.424" clip-path="url(#p3b3e824be2)" style="fill:none;stroke:#000"/><path d="m380.875 333.465-.15-2.574.09-4.24.572-6.297-.06-3.858-.754-4.467-.769-3.404-.313-1.893-.467-1.901-.456-2.354-.389-2.184-.253-1.658-.205-1.062M326.598 224.412l1.31.544 1.233.288 2.034.354 1.656.306 1.494.368 1.225.39 1.7.53 1.673.662 1.12.645.854.78.863 1.089.441.967.317 1.008.392 3.227.248 2.325.317 2.653.226 1.661.377.98.633.827 1.003.85 1.477 1.008 2.223 1.425 2.137 1.493.875.649 1.157 1.127.716 1.004.603 1.053.482 1.32.4 1.942.188 1.28.23.968.479.979.644.908 1.047 1.06 1.346.996 1.3 1.064.712.766.754.996.47.972.42 1.07.783 2.806.306.696.38.643.856 1.096.603.766.52.982.21.69.132.619.106 1.574.087.812.165.801.317.745.4.812.648.752.92.822 1.224.727.765.472.943.563.644.54.58.644.343.692.151.724-.012.981-.101 1.23-.034 1.117.049.859.147 1.05.286.769.49.91 1.387 1.972" clip-path="url(#p3b3e824be2)" style="fill:none;stroke:#000"/><path d="m366.143 289.23.675.814.622.507 1.067.734 1.367.896 1.429.674 1.243.344.875.227.515.19.464.2 1.327.699.463.195.48.102M404.512 395.379l-.173-1.291M398.537 397.441l.647.406.43.09.959-.248.91-.496.311-.247.623-.541.623-.45.719-.43.753-.146M404.512 395.379l-.01.75M398.537 397.441l-.988.704M398.537 397.441l1.65-1.277M400.581 402.331l.41-.356M400.581 402.331l-4.083-3.382M400.581 402.331l-.813.729M396.498 398.95l-.828.413-3.433 1.99M396.498 398.95l.584-.441M404.339 394.088l-2.666 1-1.487 1.076M404.696 386.679l-.356 2.519-.001 4.89M397.038 390.048l-.247.427-.547.626-.36.697-.217.561.069.608.468 1.124.78 1.216.627.47 1.014.213 1.561.174M392.237 401.353l-1.742 1.03M390.749 394.795l.747 1.296.217.937.524 4.325M397.038 390.048l2.143.76M397.66 382.149l-.182.79-.236 1.426-.274 1.486-.077 1.218.015 1.073.132 1.906M397.66 382.149l-3.452-.656M397.66 382.149l.827-1.557M401.061 384.823l.293-.526.113-.432-.053-.298-.173-.284-.641-.613-.7-1.01-.314-.607-.223-.215-.876-.246M404.37 372.755l-1.938 1.594-1.272 1.42-.574.647-.52 1.051-.73 1.405-.85 1.72M404.37 372.755l1.513-1.028 1.433-1.206 1.803-1.587 2.644-2.135" clip-path="url(#p3b3e824be2)" style="fill:none;stroke:#000"/><path d="m408.624 367.354.301-.149.633-.227.603-.255 1.251-.198.351.274M418.891 363.066l-1.675.67-2.372 1.124-1.493.827-1.588 1.112M412.305 370.949l.432-1.944-.181-.794-.793-1.412M418.891 363.066l.473 1.403M418.891 363.066l-.907-1.912M393.898 378.16l.212 1.8.083.831.015.702M392.55 392.561l.739-.808.12-.37-.03-.467-.475-1.638-.06-.66 1.364-7.125M391.01 368.937l.027.775.28.785.934 1.633.846 1.424.423 1.13.155 1.047.223 2.429M395.587 372.968l-.375 1.85-.609 1.763-.705 1.579M400.128 363.834l.838 1.996.648 1.673.316.808.558.972.712 1.214 1.17 2.258M407.447 355.008l.263-2.517M400.128 363.834l-.67-1.28-.15-.496.014-.809.121-.524.241-.468 1.674-1.475 2.547-2.085.904-.965.589-.495.568-.25.592-.077.889.098M408.91 360.753l.407-.412.422-.85.257-.652-.03-.752-.076-.44-.347-.723-.558-.822-1.04-.95-.498-.144M408.624 367.354l-3.871 2.02M408.91 360.753 407.222 362l-.377.383-.151.284v.481l.015 1.518.106 1.333.452.78.723.454.634.12" clip-path="url(#p3b3e824be2)" style="fill:none;stroke:#000"/><path d="m410.276 336.338.288-.198.986-.66.476-.148 2.674-.065.507.065 1.61.815-3.343 6.304-.326.942-1.658 10.027-.036.617.096.744.663 2.51.085.83-.145.801-.338 1.043-.43.914-2.475-.126M407.71 352.491l2.566-16.153M395.098 360.704l.43-2.921.396-.442 6.869-4.835.64-.235 4.277.22M410.276 336.338l-1.978-3.374" clip-path="url(#p3b3e824be2)" style="fill:none;stroke:#000"/><path d="m406.008 339.071 3.74-2.417.528-.316M404.774 346.093l1.234-7.022M404.774 346.093l-11.335.107M394.223 349.927l9.91-.194.64-3.64M392.768 346.206l-5.12.048M392.768 346.206l.671-.006M392.768 346.206l.943-5.72M387.647 346.254l-.647 3.8M387.647 346.254l1.15-6.747M393.44 346.2l.263-.438.498-.376 3.263-1.3 2.548-1.422 2.478-1.554 3.518-2.039M387 350.055l7.223-.128M387 350.055l-.625 3.665M394.223 349.927l-.631 3.737M391.01 368.937l.872-5.16M400.128 363.834l-1.216.638-.398.333-.144.309.104 2.793-.218.532-.579.505-1.042.452-.904.213-4.721-.672" clip-path="url(#p3b3e824be2)" style="fill:none;stroke:#000"/><path d="m380.084 370.721 4.868-2.559.54-.063 5.518.838M388.796 339.507l.61.127 1.846.36M382.945 338.618l.89.081 4.961.808M386.375 353.72l-.627 3.682M386.375 353.72l7.217-.056M385.252 360.313l.496-2.911M385.252 360.313l7.243-.16M391.882 363.778l-7.26.232.63-3.697M391.882 363.778l.613-3.624M392.495 360.154l.46-2.723M393.592 353.664l-.637 3.767M392.955 357.43l-7.207-.028M379.763 338.92l.286.39.605.408.734.122.718-.186.562-.46.277-.576M379.763 338.92l-.14-.63M379.763 338.92l-.579.156M354.313 381.451h-.09l-.254.06M354.313 381.451l-.558-5.582-.393-3.644-.346-4.17.196-3.602.483-5.927.242-2.216.34-1.46.805-1.859 1.003-1.687 4.054-3.933 1.026-.783.893-.567 1.103-.472 4.832-.979 3.346-.588 1.328-.312 1.144-.404 1.154-.943 2.53-2.531.915-.507.774-.21" clip-path="url(#p3b3e824be2)" style="fill:none;stroke:#000"/><path d="m355.092 382.08-.076-.213-.139-.185-.19-.138-.374-.093M353.969 381.51l-.22.133-.05.058" clip-path="url(#p3b3e824be2)" style="fill:none;stroke:#000"/><path d="m379.623 338.29-2.232.922-.64.48-2.216 2.231-1.015.87-1.132.444-9.272 1.97-1.485.603-1.846 1.36-3.172 2.825-1.644 2.256-1.063 2.382-.444 1.759-.224 2.063-.698 9.577 1.429 13.478M354.17 382.969l.082 1.806-.104 1.1-.438 1.24-7.266 15.826-1.086 1.745-2.597 3.103-8.108 9.538M354.17 382.969l.26-.002.31-.11M353.699 381.7l-.115.135-.09.23-.009.246.075.236.15.2.212.146.248.076M354.74 382.858l.14-.117.146-.2" clip-path="url(#p3b3e824be2)" style="fill:none;stroke:#000"/><path d="m352.564 391.183 2.029-4.656.216-1.374-.07-2.295M355.026 382.54l.073-.233-.007-.226M367.116 390.452l-.392-.681-.54-1.535-1.793-2.29-1.847-1.525-2.035-1.326-2.194-.765-3.223-.25M393.71 340.485l.68.078.888.093.867-.135 1.41-.617 6.846-4.383" clip-path="url(#p3b3e824be2)" style="fill:none;stroke:#000"/><path d="m391.252 339.994 1.564.313.895.178M408.298 332.964l1.98-.86 2.035-.452 4.86-.264M408.298 332.964l-3.897 2.557M419.504 368.156l-3.038 5.085M419.504 368.156l4.364 1.282M419.364 364.469l.193 1.797-.053 1.89M414.358 376.477l2.108-3.236M409.663 380.329l3.77-2.542.925-1.31M421.161 379.387l-.678-.053-.727-.114-.618-.252-4.78-2.491M427.992 366.737l-5.729-1.759-2.899-.51M427.992 366.737l-.965 3.63M432.992 368.255l-.939-.25-1.689-.538-2.372-.73M427.027 370.367l-3.159-.93M424.082 377.252l1.438-2.46.422-1.135 1.085-3.29M424.082 377.252l2.612 1.456M424.082 377.252l-3.395-1.868M420.687 375.384l1.247-2.208 1.934-3.738M420.687 375.384l-4.22-2.143M412.305 370.949l-2.642 9.38M408.5 374.643l3.09-3.17.715-.524M404.696 386.679l.172-1.223.45-1.659.671-.879 3.674-2.589M397.668 405.095l2.1-2.035M397.668 405.095l-3.172 3.08M402.296 410.353l-2.293-3.348-2.335-1.91M400.99 401.975l2.124-1.961 1.362-1.908.025-1.977M400.99 401.975l2.054 2.2 1.288 1.297M403.556 406.245l-1.613-1.333-2.175-1.852M403.556 406.245l.776-.773M403.556 406.245l2.023 1.934M402.296 410.353l1.577-.647 1.13-.845.576-.682M404.332 405.472l1.922 1.965-.675.742M390.907 409.706l1.625-.454 1.964-1.078M391.922 405.263l1.97 2.23.604.681M389.035 402.829l-2.126-4.749M389.035 402.829l-2.829 1.045M389.035 402.829l1.46-.445M388.721 393.788l-1.964.957-1.96 1.091M386.909 398.08l-.344-.917-.547-.802-1.22-.525M382.777 395.482l.97.064 1.05.29M381.772 396.113l.24-.24.765-.39M375.43 392.362l2.763 1.23 4.584 1.89M385.446 400.559l.562-.546.417-.745.484-1.188M379.928 398.928l-1.128 1.087-1.098 1.274-.352.602-.836 1.816M371.552 401.9l3.587 1.715.648.142.727-.05" clip-path="url(#p3b3e824be2)" style="fill:none;stroke:#000"/><path d="m383.526 404.947-3.032.981h-.331l-.313-.127-.736-.62-1.357-.935-1.243-.54M381.772 396.113l-.317.398-.663 1.247-.864 1.17M383.526 404.947l-2.467-4.544-1.13-1.475M383.526 404.947l2.68-1.073M336.944 421.433l-1.537 1.868M336.944 421.433l9.56-11.066M336.944 421.433l2.988 2.357M336.944 421.433l-2.85-2.25M333.293 425.871l2.155 1.821M333.293 425.871l2.114-2.57M328.439 429.624l1.599-1.086 3.255-2.667M341.615 432.225l-1.11-.849M335.448 427.692l5.056 3.684M335.448 427.692l-2.615 2.316M340.504 431.376l-4.86 4.325M352.619 415.222l2.246 2.155M352.619 415.222l-2.494-1.896M339.932 423.79l2.979 2.35 5.14-6.054 4.568-4.864M356.001 410.512l-.698 1.122-1.508 1.971-1.176 1.617" clip-path="url(#p3b3e824be2)" style="fill:none;stroke:#000"/><path d="m357.46 411.713-1.419.956-3.422 2.553M339.932 423.79l9.144-10.422M346.505 410.367l2.427 2.013M346.505 410.367l-3.066-2.265M352.092 401.485l-.408 1.017-.712 1.582-1.58 2.728-2.887 3.555M356.011 392.632l-3.92 8.853M356.011 392.632l-3.447-1.449M358.98 395.751l-1.266-1.474-1.085-1.163-.618-.482M358.317 406.629l1.9-1.267M358.317 406.629l.835-2.003M356.001 410.512l.869-1.544.85-1.494.597-.845M356.001 410.512l1.46 1.201M360.217 405.362l2.683-1.613.497-.05 3.317.909.376.262.121.567-.105.312-3.965 2.312-3.964 2.367-1.717 1.285M371.552 401.9l-2.292-3.645M358.98 395.751l3.406 3.312 1.311 1.191.845.369 1.025.1 1.1-.228 1.025-.155 1.16.24 2.7 1.32M358.98 395.751l-3.185 7.346M390.495 402.384l1.427 2.88M391.922 405.263l-2.086.538M389.836 405.801l-2.673.689-.957-2.616M404.988 414.215l-2.787 3.835M402.296 410.353l.32.467 1.816 2.566.556.83M410.706 395.45l-.266.33-.603 1.134-.298.59-.019.658.438 3.46.361 2.61-.18 1.758-.302 1.532-1.175 3.708-.694 1-.633.453-1.018.61-1.329.922M399.707 420.795l-6.15-2.44M402.2 418.05l-2.033 2.472-.46.273" clip-path="url(#p3b3e824be2)" style="fill:none;stroke:#000"/><path d="m396.814 414.879.776 1.891 2.117 4.025M393.557 418.356l3.257-3.477M393.752 412.773l-1.504 1.478-.278.638-.041.801 1.628 2.666M390.511 421.164l1.043-1.087 1.59-1.356.413-.365" clip-path="url(#p3b3e824be2)" style="fill:none;stroke:#000"/><path d="m402.2 418.05-1.8-3.286-1.838-.152-1.748.267M412.249 395.142l.693-.029M410.706 395.45l.623-.124.92-.184M419.605 404.435l-1.196-.198-.634-.284-.934-.482-.724-.596-.452-.737-.392-.936-.483-1.021-.572-.851-1.508-1.787-.362-.596-.15-.453-.068-.384-.053-.432.172-.536M412.942 395.113l-.09-3.53M412.942 395.113l.97.083M412.852 391.582l-.724.17-1.567.34-.286.525.431 2.833M404.501 396.129l1.782-.129 2.46-.29 1.963-.26M421.972 388.391l-.86.241-2.592.454-1.628.114-1.327.283-2.713 2.1M421.972 388.391l.242-.185M423.464 393.624l-.754-.595-.21-.823-.06-1.418-.468-2.397M434.951 366.836l-.428.885M453.734 367.474l-.241-.51.361-1.59 1.327-1.02-.844-1.134-.965-2.95-.12-1.532-.966-1.929-1.085-.51-1.447-.398-5.91-3.29-3.858-2.212-2.955-1.305-1.447-.34-1.146.34-1.22 1.235-.19 1.446-.037 5.885-.12 2.496.482 2.1.754 2.098.629 1.476.215 1.006M434.951 366.836l.197 1.074M422.8 396.744l3.016-2.95M413.912 395.196l1.593.357 3.377.68 2.894.398 1.025.113M425.696 399.484l-.513-.563-2.382-2.177M427.444 392.943l-3.85-4.196M430.428 390.26l-4.25-2.238-.46-.028-2.125.753M422.214 388.206l.779.477.6.064M430.92 388.616l-.492 1.644M433.715 406.841l1.185-1.3 1.357-1.418 1.326-1.503.693-.964.423-.908.24-.907-.286-.795-.768-.738-1.251-1.219-2.624-2.467-2.065-1.362-1.936-1.127.42-1.873M428.167 401.622l.462-1.654M430.052 404.274l.207-.326-.041-.68-.543-.625-1.508-1.02M425.696 399.484l.783.834 1.688 1.304M423.611 409.217l-.147-2.149.049-1.234.46-.935.52-.589 1.025-.465 1.142-.01 1.87.453 1.085.114.437-.128M432.437 405.72l-1.281-1.041-1.104-.405M421.912 411.817l.44-.26.75-.349.483-.68.026-1.311M432.437 405.72l-1.719-.034-1.288.333-1.463.68-1.447.823-1.5.886-1.409.809M421.188 411.52l.724.297M419.605 404.435v.704l.603 1.305.663.907.603.794.543 1.192.06.794-.12.454-.196.468-.573.468M421.535 413.875l-.528-.397-1.552-1.135-1.327-1.233-2.122-1.915-.026-.301.173-.294.505-.164.332.107 2.072 1.489 2.126 1.489M432.437 405.72l1.278 1.121M434.665 408.741l-.321-1.056-.629-.844M421.912 411.817l.768.072.845-.17 1.809-.567 1.386-.738.818-.566 1.647-1.082 1.16-.432 1.025-.117.724.007 1.621.376.95.141M436.528 405.995l-.196.44-.287 1.092-.322.725-.356.352-.702.137M416.542 399.504l-1.29-.98-.55-.574-.211-.653-.579-2.101M422.041 417.375l-1.697-.579 1.19-2.921M426.844 412.067l-1.02.553-1.316.44-1.802.879-.418.025-.753-.09" clip-path="url(#p3b3e824be2)" style="fill:none;stroke:#000"/><path d="m428.167 396.688-1.688 1.644-.783 1.152M415.519 428.31l-.97-.217M415.519 428.31l2.36.742M415.519 428.31l.266.41.067.156.02.172-.026.143-.1.198-.204.198-.454.234M422.81 431.115l2 .312M422.81 431.115l-2.484-.42M422.81 431.115l-.065-.332-.15-.307-.225-.263-.287-.203M421.941 431.935l.236-.094.212-.134.181-.17.143-.2.097-.222M422.083 430.01l-.414-.15-.444-.026" clip-path="url(#p3b3e824be2)" style="fill:none;stroke:#000"/><path d="m424.81 431.427-1.199-.85-.709-.366-.819-.2M443.717 438.258l.755-.958M471.435 450.93l-.28 2.116M473.305 447.33l-.837 1.304-1.033 2.297M445.395 440.053l.39-.15.385.143.89 1.002.827 1.705.515.97.281 1.675.656 1.014 1.406.352 1.5-.44 1.414-.32 1.28-.365 5.021.082 1.266.283 1.508.454 2.14.993 1.659.85 1.236.795 1.176.538 1.055.596.723.425.712.276M355.026 382.54l2.106.066 1.621.326 1.983.865 1.703 1.078 1.123.936 1.545 1.756 1.233 2.367.368.725M408.97 431.9l.692-.504M397.67 442.302l4.93-4.4 6.37-6.002" clip-path="url(#p3b3e824be2)" style="fill:none;stroke:#000"/><path d="m408.105 434.965.646-.67.306-.872-.087-1.523M408.105 434.965l-.1 1.184M405.074 440.142l.361-1.423.422-.737 2.248-3.017M407.577 440.864l-.906 3.428M406.67 444.292l4.011 1.22 1.207-3.404-4.311-1.244M407.577 440.864l-2.503-.722M408.005 436.15l.005.18-.103 2.73-.33 1.804M406.67 444.292l-.511 1.617M412.731 438.72l-.267-1.802.184-1.928.287-.88.377-.403.101-.437-.162-.393-.336-.142-.64-.06-.708.284-.882.634-.686.94-.584.663-1.41.953M401.222 459.958l-.012-.72.008-.992-.12-.997-.31-1.258-.418-1.39v-.794l.302-.681.783-1.418.905-1.304.63-.66.576-.51.249-.33.049-.361-.057-.295-.524-1.045-.015-.376.298-1.642.844-2.722.664-2.321M415.088 429.82l3.524.579M413.435 429.909l.492-.077 1.16-.011M470.845 458.72l1.5.462M470.845 458.72l.123-1.868M470.845 458.72l-.974 2.124M471.154 453.046l4.952.274M470.968 456.852l.216-2.534-.03-1.272M469.773 441.215l.844.34 1.81 1.928.783 1.872.095 1.975M475.095 446.827l-1.143.067-.647.436M475.095 446.827l.377.052M475.095 446.827l-.163 1.613M476.963 447.27l-1.49-.39M476.963 447.27l-.614 2.63M485.074 448.514l-.964.27-.977-.344-1.028-.621-.815.004-1.217.56-.652-.021-2.458-1.092M468.326 445.157v-2.637l.482-.965.965-.34" clip-path="url(#p3b3e824be2)" style="fill:none;stroke:#000"/><path d="m470.422 447.312.527-2.453-.12-1.035-1.056-2.61M479.774 479.577l-1.82-4.753-.792-1.17-1.301-1.33-1.131-1.224-.324-.638M472.728 474.396l1.688.34.422-.34.256-.496-.316-.525-.603-.794-.302-.85.533-1.269M473.813 479.444l-1.749-1.645-.18-.567.602-1.248.242-1.588M469.713 470.823l2.291 1.872.724 1.701M473.813 479.444l-2.23 1.532M476.346 482.053l-.423-.227-1.205-1.531-.905-.85M476.35 486.882l.297-.915.422-.965v-1.19l-.723-1.76M479.774 479.577l-1.318.548-.965.397-.663.68-.482.85M479.774 479.577l1.708 4.462M476.831 490.186l2.141-.851.443 1.293 1.554-.3 1.92-.086.73-.425" clip-path="url(#p3b3e824be2)" style="fill:none;stroke:#000"/><path d="m481.482 484.039.77 2.01 1.142 1.67.272 1.735-.047.363M381.003 390.427l.434.135M381.003 390.427l-.761-.631M375.43 392.362l4.442-1.595 1.131-.34M382.45 391.273l.229-.97M388.721 393.788l-1.884-.929-2.088-.681-1.703-.56-.597-.345M382.45 391.273l-1.013-.711M388.721 393.788l2.028 1.007M390.749 394.795 392.09 393M388.91 390.789l-.196.886.098.358.135.237 1.802 2.525M416.542 399.504l.29.19.603.624.482 1.758.543.851.783.68.362.511v.317M416.542 399.504l4.007.847M475.472 446.88l.784-1.854M406.862 427.044l4.15.852M410.707 429.803l-.738.135-.69.11-.934.302-.684.298-.719.074-.256-.174-.026-.243.202-3.26M390.511 421.164l1.357 1.304 3.498 1.588 11.496 2.988M410.707 429.803l-1.045 1.593" clip-path="url(#p3b3e824be2)" style="fill:none;stroke:#000"/><path d="m410.986 428.435.03.73-.105.387-.204.251M411.012 427.896l-.026.539M411.012 427.896l3.538.197M397.67 442.302l-.236.193M397.61 440.477l-.278.572-.056.382.394.871M397.61 440.477l.522-1.076.482-.935.24-.88.25-2.758.28-1.368M481.482 484.039l3.473.562M480.088 273.077l-.879-2.675-.501-1.097-.768-.646-.965-.418-1.169-.064-1.552.113-1.29.17-.693-.042-.678-.213-.595-.383-.679-.83-.444-1.382-.837-3.787-.113-1.014.21-.95.4-.773.686-.745 8.163-7.531.761-.752" clip-path="url(#p3b3e824be2)" style="fill:none;stroke:#000"/><path d="m467.047 216.702.069.577 1.47 6.518.95 5.234-.151 1.191-1.154 2.326-1.13 2.12-.189.731-.068 1.092.227.944.55 1.042.874.93 1.93 1.148 2.314 1.348 2.75 1.538 2.428 1.426 1.01.794.49.738.346.78.166.645-.03.674-.264.794-.49.766" clip-path="url(#p3b3e824be2)" style="fill:none;stroke:#000"/><path d="m482.311 248.739-1.545.702-.686.397-.935.22M428.092 322.5l-4.345 7.958M422.963 331.974l-1.1 2.249M422.963 331.974l-1.542-.494M421.421 331.48l.484.844.063.83-.104 1.069M417.173 331.388l3.032-.049 1.216.14M404.196 335.177l.205.344M404.196 335.177l-6.822 4.323-1.206.475-.837.198-.86-.02-3.097-.547M391.374 339.606l-.122.388M391.374 339.606l-7.592-1.39-.814-.07M380.184 337.102l-.111.075-.34.516-.11.598M334.094 419.183l1.223-1.418M334.094 419.183l-.635.688M343.44 408.102l2.372-2.916 1.34-1.81 1.452-3.27M343.44 408.102l-8.123 9.663M332.866 419.355l.593.516M332.866 419.355l-3.442 3.908-1.823 1.531-4.349 2.507-.674.3-1.548.689-2.074.922-2.06 1.065-2.123 1.41-.512.431-.407.28M334.653 417.327l-1.058 1.201-.73.827" clip-path="url(#p3b3e824be2)" style="fill:none;stroke:#000"/><path d="m315.662 433.22.611-1.343.935-.978 1.273-.815 2.713-1.192 1.485-.68 1.233-.567 3.763-2.075 2.054-1.59 3.73-4.109M334.653 417.327l.664.438M366.708 390.659l.408-.207M366.708 390.659l1.56 1.85 1.437.789 1.73.207.87-.101.784-.277 1.316-.43" clip-path="url(#p3b3e824be2)" style="fill:none;stroke:#000"/><path d="m366.708 390.659-.192.48.093.37 1.468 1.591 1.387.741 1.439.252 1.268-.17 1.57-.664.664-.563M374.405 392.696l1.025-.334M383.173 389.801l2.458.137 3.278.85M383.173 389.801l.176-.402.054-.431M383.173 389.801l-.494.502M388.91 390.789l.224-.272M388.91 390.789l3.18 2.212M392.09 393l2.5 2.438 2.492 3.07M397.082 398.509l.467-.364M397.55 398.145l-.428-.508M392.55 392.561l-3.416-2.044M394.557 394.59l-.183-.218-1.824-1.81M389.134 390.517l-3.254-1.111-1.056-.227-1.42-.211M383.403 388.968l-.218-.666-.496-.515-.684-.263" clip-path="url(#p3b3e824be2)" style="fill:none;stroke:#000"/><path d="m375.25 391.85-1.027.33-1.345.5-.807.277-.667.039-1.224-.06-1.246-.473-.774-.64-1.044-1.371M380.242 389.796l-.513.454-.83.34-3.649 1.26M380.853 387.738l-.608.621-.178.828.175.609M375.43 392.362l-.18-.512M418.612 430.399l1.348.233.366.064M420.326 430.696l-.052.125-.014.133M420.326 430.696l.078-.143M430.638 432.454l-1.258-.296-4.57-.731M424.81 431.427l-2.869.508M417.879 429.052l1.74.928.785.573M417.879 429.052l3.346.782M541.22 447.066l.812.987.949.376.748 1.033.1 1.221-.646 1.316M532.754 461.752l.739-.453 1.548-1.033.799-.752.399-.563 1.049-.564.998-.188 1.349-.281 1.148-.752 1.049-1.268.75-.893.349-.892.1-1.08.152-1.034M539.556 448.937l1.176.34.678.539 1.773 2.183M541.22 447.066l-1.292.53M541.22 447.066l.733-.3M533.716 464.053l.975-.338M537.72 467.591l-.97-.976-3.034-2.562M534.691 463.715l1.292-.35 1.035-.365.187-.543 1.925-.268M539.174 463.487l-.647-.203-.647.122-.431.608-1.207.243-.82-.08-.731-.462M532.103 444.791l-.991 1.582-.992 1.054-.733 1.257-.906 1.217-.991.893-.173.851-.086.811-.258.77.388.609.991.568.949.08 1.164.407 1.552.689.69.77-.173.69-.215 1.136-.561 1.702.302.893.694.982M614.66 505.192l-.232-1.091-.417-1.004-.928-1.047-.975-.917.14-.698-.882-1.703-.742-.61-.975-.786-1.16-.698-1.81-1.615-.51-.83-1.02-.348h-1.392l-1.625-.262-1.298-.175-.882.262-1.067.13-1.3-.13-1.577-.96-1.253-.568-1.067-.087-1.253.218-1.392.699-1.345.567-1.485.393-1.67-.131-2.692-.087-1.623.305-.79.306-1.02.741-.743.611-1.299.393-1.53-.262M565.146 490.385l.331.186 1.067 1.091 1.485.786 1.949.436 1.81.393 1.81.437 1.39.785 1.022.786.835.523M617.352 508.247l-1.624-.916-.557-.96-.51-1.179M614.79 510.504l-.2-1.174-.649-.799-.6-.939-.449-.705.5-.845 1.268-.85M617.352 508.247l1.071-.39M621.032 512.759l-.061-.89-.371-1.57-.743-1.092-.603-.61-.696-.306-1.206-.044" clip-path="url(#p3b3e824be2)" style="fill:none;stroke:#000"/><path d="m625.152 531.144.087-1.269-.044-1.065-.522-.491-1.002-.532-.653-.41-.26-.9-.436-1.107-.523-.695-.479-1.106-.304-.9-.175-1.065.306-.738-.218-.777-.515-1.323-.139-1.44-.232-1.528.232-1.048.51-1.004.247-.987" clip-path="url(#p3b3e824be2)" style="fill:none;stroke:#000"/><path d="m617.986 514.685 1.149-.376 1.048-.799.849-.751M621.582 533.396l.653-.164 1.045.41 1.044-.41.566-.941.262-1.147" clip-path="url(#p3b3e824be2)" style="fill:none;stroke:#000"/><path d="m589.121 601.63-1.312-.51-1.115-4.608-.467-1.744.86-.766 3.783-1.772 2.427-.879-.211-3.105 4.899-6.564 1.146-2.538 3.964-4.452 1.236-.496.98.368 3.527-2.85 1.945-2.552 1.176-1.985-1.04-3.856.573-3.19-.03-1.503 4.235.624 3.257-1.078 5.05 2.708.527.327-.196-3.176 1.297-4.708 1.054-.865 4.388-3.63 4.642-2.637 1.267-.723.286-1.248-1.1-.808-2.337-1.035-4.371-1.772-.8-2.325.03-2.056-3.54-5.082M617.01 532.373l.218.695.48.86.74.123 1.175-.286.827.245 1.132-.614M619.144 537.163l.958-.45.566-.9.522-.779v-.9l.392-.738M451.73 600.836l1.57-4.73 2.146-2.64 2.357-4.101.802-2.104.268-1.755-.438-3.847.275-3.65.357-4.034-.182-3.443-.572-2.228-.558-1.972-.775-1.895-1.86-3.157-5.731-4.7-2.487-2.638-.842-1.051-.478-1.356.894-3.14.982-4.286.474-2.058.292-2.195.545-1.396 1.608-4.645.764-2.42.26-1.719-.057-5.868-.884-4.192-1.05-3.99-1.957-6.102-2.43-9.978-.858-3.536-1.207-5.773-.255-.914M441.253 483.067l.69 3.532.76 2.724" clip-path="url(#p3b3e824be2)" style="fill:none;stroke:#000"/><path d="m456.688 490.98-.843.22-1.593-.131-1.078-.133-.702-.573-.75-.617-.656-.396-1.03-.617-.985-.397-.983-.044-.75.441-1.312.44-.937.221-1.03.044-1.336-.115M457.391 489.79l-.469.31-.234.88M456.782 502.967l-.328-.396-.422-1.014.094-1.013.047-.794-.468-.529.14-1.057.328-.661.187-.926.61-.352.656.132.702-.353.515-1.146.329-.396-.329-.882-.421-.925-.656-.749-1.078-.925M459.074 477.609l.482-.03 1.18-.212.919-.534.984.133.75-.308.562-.618v-.793l-.422-1.234-.422-.837.047-1.014-.28-.837-.657-.22-.328-1.014-.281-.75-.61-.97-.234-1.057-.234-.705-.468-.132h-.984" clip-path="url(#p3b3e824be2)" style="fill:none;stroke:#000"/><path d="m458.192 468.71.385-.361.467-.185.256-.297.045-.34-.267-1.05M446.348 444.213l-.286-2.494-.667-1.666M401.061 384.823l-.027.204-.008.692.258.7.58.487M355.795 403.097l3.357 1.529M355.795 403.097l-3.703-1.612M350.055 412.217l1.614-2.247 2.097-3.373.54-.923 1.49-2.577M352.092 401.485l-3.488-1.38M359.152 404.626l1.065.736M359.152 404.626l2.043-4.47M422.488 357.44l-.648.61-.287.327-.105.88-.211.737-.413.442-2.84.718M454.084 317.575l-4.04-2.552-1.07-.724-1.01-1.12-.74-.61-.564-.381M461.29 297.67l-5.887-3.765M457.77 298.124l2.035-.106 1.485-.348M463.724 295.6l-.769 1-.836.666-.83.404M456.3 298.216l1.47-.092M456.3 298.216l-1.96-1.347M454.34 296.869l-.49 1.599.034.163.087.131.185.103.249.01.704-.311 1.19-.348M455.403 293.905l-.61 1.595-.452 1.369" clip-path="url(#p3b3e824be2)" style="fill:none;stroke:#000"/><path d="m413.775 220.719.923.766 1.515.876 2.16 1.21.73.42.657.324.588.203.851.2 3.663.565.747.18.663.292.74.471.504.4.572.774.286.78.11.62-.027.536-.109.482-.233.39-.308.198-.337.15-.842.303-.28.15-.293.37-.187.464-.21.971-.11.717.093.468.209.361.501.36.961.268 2.087.454.594.191.56.263.92.567 1.432.76.608.171.665.09 1.478.078 1.333.12 1.621.448 1.983.772 1.733.724.753.482.619.71 1.07 2.19 1.19 2.561 1.109 3.326.414 2.46.121 2.227.528 2.178.663 1.765 1.145 2.05 1.078 3.27.023 1.368-.204 1.553-.12 1.73.098.802.392 1.028 1.183 1.106 1.854 1.29 3.626 2.766 2.2 1.816 1.327 1.099.626.39.64.156 1.32-.092.972-.057.527.128.498.39 1.553 1.932.81.582.264.308.094.465-.053 1.063-.226.968-.309.717-.588.61-.931.73-1.123.713-.735.507-.248.248-.679.957-.55.56-1.244.745-1.356.468-1.116.532-1.003.596-1.349 1.07-1.062.95-.483.504-.241.362M463.724 295.6l1.9-2.589M462.367 290.94l-.655.128-.58.234-.837.688-.66.592-.075.224.019.145.086.114 4.059 2.535M465.625 293.011l-3.258-2.07M474.103 287.019l-7.01 4.723-1.468 1.27M479.424 282.92l-2.66-1.801M476.763 281.119l.37-.716.158-.624.008-.724-2.367-8.488.019-.33.094-.191.2-.139.57-.067 1.454.046.395.174.204.188.252.443 2.3 7.443.195.964-.03 1.149-.34 1.092-.489.929-.332.652M474.103 287.019l3.987-3.02 1.334-1.079" clip-path="url(#p3b3e824be2)" style="fill:none;stroke:#000"/><path d="m479.424 282.92.158.752-.15.667-.422.72M481.556 281.29l-.436.644-.565.589-.739.32-.392.077M472.143 284.729l1.96 2.29M462.367 290.94l.709-.283 1.696-1.07 3.452-2.348 1.914-1.333 2.005-1.177M476.763 281.119l-2.163 1.645-2.457 1.965M301.908 460.749l.24-1.334.166-1.715.113-.688.174-.88.354-1.247.057-.615-.029-.388.424-.961.203-.635-.09-.485-.11-.284-.353-.834-.102-.64.06-.788.17-.489.011-1.064-.184-1.159M304.545 434.657l.033 2.621-.137.733-.022.933.045 1.11.136 1.238.09.726-.18 1.067-.545 1.238-.545 1.195-.408 1.025M300.146 447.188l.59-.17 1.18-.129 1.096-.346M301.908 460.749l-.223.985M294.11 456.452l.772.32.454.15.76.253 1.018.447.7.34.77.454.73.595.897.724.671.46.577.334.449.22M301.685 461.734l1.172.508M301.542 466.924l.101-.588.102-.685.004-.493-.03-.602-.15-.88-.076-.701.06-.581.132-.66M300.414 468.42l.182-.185.475-.531.47-.78M302.118 469.221l-.218-.922-.358-1.375M300.414 468.42l-.195.198-.313.4-.154.338-.166.538-.264.745-.346.858M304.534 487.736l-.034-.964.007-1.081.084-1.56-.053-.78-.09-.596-.16-.368-.172-.305-.385-.454-.4-.418-.24-.361-.098-.39v-.546l.105-.837.151-1.113.113-1.312.181-1.262.12-.876.046-.428-.136-.68-.166-.71-.237-.872-.192-.723-.294-.759-.283-.51-.156-.309-.127-.301" clip-path="url(#p3b3e824be2)" style="fill:none;stroke:#000"/><path d="m301.018 470.22.331-.347.77-.652" clip-path="url(#p3b3e824be2)" style="fill:none;stroke:#000"/><path d="m321.989 454.448-2.64 3.28-.822.95-.652 1.043-.31.82-.27.388-.49.326-.758.543-.294.496.03.468.302.16.765-.072 1.295.378.401.546.357 2.938v2.351l.58.881.084 1.078-.392.702-.505.475-.92.347-.7-.142-.686-.595-.422-.759-.31-.468-.61-.489-1.07-.68-.86-.504-.67-.276-1.41-.525-.708-.142-.234-.003-.249.032-.18.058-.159.105-.34.276-.155.108-.19.076-.185.013-.185-.006-.49-.077-.471-.054-.403-.032-.377.043-.626-.014-1.025-.164-.708-.099-.317.036-.407.177-.55.312-.935.468M234.994 248.828l-.74.39M234.994 248.828l-1.807 2.346M237.17 246.52l-.373.365-1.803 1.943M240.978 243.187l-1.35.849M239.628 244.036l-.932-.506-.092-.075-.076-.14.005-.167.086-.134.918-.652.118-.016.115.01.157.041 1.05.79M240.978 243.187l.456-.294M242.062 242.153l-.628.74M242.062 242.153l.34-.566M244.753 243.85l-.687-.472-1.022-.666-.982-.559M260.272 243.477l-1.757-2.085-2.871-2.716-.51-.387-.606-.394-4.364-2.14-1.771-1.037-.897-.432-.78-.213-.663-.11-1.643-.208M244.006 236.2l.237-1.244.167-1.201M246.14 230.671l-.445.509-.53.694-.363.6-.257.67-.135.611M247.737 228.774l-2.26-1.255M247.737 228.774l-1.598 1.897M247.737 228.774l.6-.59M262.921 216.606l-1.759 1.439M262.921 216.606l-2.486-2.704M265.101 215.427l-.484.157-.535.267-1.161.755M265.101 215.427l-.147-3.066M292.662 216.1l-2.528-.87-1.937-.638-1.462-.333-.601.017-.703.11-2.035.73-1.485.355-.71.018-.707-.025-1.003-.22-1.228-.362-1.357-.354-.82.016-.778.076-3.045.589-1.292.106-1.61-.057-3.052.007-1.208.162M302.2 218.698h1.075M298.208 218.29l1.51.25 1.243.094 1.24.064M301.515 224.64l.385-1.871.105-.713.045-.777.15-2.581M323.391 223.096l-.042-3.101M317.735 222.006l.818-.133.728-.069.883.051.65.13 1.685.702.892.409M326.598 224.412l-1.264-.57-1.943-.746M326.598 224.412l4.393-4.21M308.267 219.272l-.375-.118-.8-.155-2.37-.225-1.447-.077M294.596 165.982l1.722 3.71.128.472.068.393.144 1.003.08.204.168.211.449.23.618.153 1.163.17.443.22.406.333 1.923 1.98 1.382 1.173 1.474 1.103.806.819.302.39.21.386.291.937.23.869.147.411.252.39.4.335.392.26 1.82 1.31.464.481.542.912.437 1.06.324 2.022.22 2.007.225 8.24-.087.828-.093.662-1.704 3.907-.384.786-.207.204-.23.177-.483.26-2.25 1.002-.492.293-.503.364-.42.424-.416.484-.856 1.12-.757 1.238-.29.551-.22.566-.037.585.015.34.083.294.158.44.326.64.044.166.019.121.012.366-.005.21-.034.667.26 3.836M258.887 224.04l.507.617.301.324.441.329.518.27.517.088.587.02.564-.04 2.02-.344 1.093-.149.627-.008.652.061.608.067.06-.027.03-.032.015-.04-.004-.046-.087-.205-.063-.093-.103-.101-.349-.203-.391-.188-.784-.295-1.81-.581-.63-.275-.492-.303-.13-.14-.087-.213-.066-.835.015-1.174-.032-.278-.077-.286-.228-.463-.947-1.452M255.175 222.969l1.93-1.59 4.057-3.334M252.27 220.508l.657.626.704.6.75.602.794.633M250.85 226.064l1.224-.947 3.101-2.148M252.27 220.508l-1.312-1.85M252.27 220.508l1.2-1.003M259.427 237.193l-2.577-1.829-2.94-2.246-1.964-1.608-1.41-1.257-2.2-2.068M249.201 227.36l-.386.356-.478.469M259.427 237.193l3.128 2.015 4.236 2.716.987.648M259.427 237.193l2.304-3.167M244.006 236.2l1.925 1.399M242.403 241.587l.367-.791.483-1.337.606-2.61.147-.648M245.81 244.434l-1.057-.584M245.81 244.434l1.375-1.978M266.15 254.515l-.12-.674-.058-.232-.15-.257-.167-.11-.254-.096-2.275-.308-1.418-.177-.82-.273-.775-.387-3.995-2.319-3.557-2.149-2.39-1.276-1.507-.73-.869-.4-1.09-.459-.403-.115-.491-.119M254.436 251.38l-1.133-.4-3.576-1.68-.961-.487-.32-.218-.268-.239-.773-1.014-.61-1.053-.595-1.025-.39-.83M244.753 243.85l.83-1.383.104-.106.095-.077.11-.075.09-.071.44-.544M241.79 247.299l-.162-.812-.096-.831-.092-.85-.041-.854.035-1.059M242.109 248.14l1.204 2.815.467 1.057.032.211.013.203-.075.752-.18 1.132-.011.235.024.242.097.398M254.182 277.595l-.634-1.947-.095-.265-.146-.32-1.176-1.837-.693-1.025-.27-.391-.393-.449-3.34-3.198-.93-.936-.697-.95-1.29-1.858-1.469-1.766-.727-.894-.807-1.186-1.12-2.019-.38-.936-.28-.88-.395-1.638-.338-1.184-.317-.562-.347-.509-.972-1.032-.515-.395-.54-.31-.28-.078-.302-.026-2.033.164-.51.006" clip-path="url(#p3b3e824be2)" style="fill:none;stroke:#000"/><path d="m231.204 254.951.498-1.152 1.37-2.459.115-.166M228.958 253.345l-1.432 1.322-.539.494M231.204 254.951l-1.417-.993M229.275 262.979l-.068-1.426.03-1.156.106-.585.143-.489.392-.925.554-1.227.772-2.22M229.787 253.958l-.829-.613M228.399 262.47l-2.157-2.602-.302-.502-.167-.424-.014-.257.03-.192.173-.272.716-.837 1.65-1.865 1.46-1.56M234.255 249.219l-1.197.633-.569.417-.95.771-1.744 1.553-.837.752M228.399 262.47l.876.509M230.575 267.486l-2.144-1.164-.64-.41-.476-.341-.126-.23-.026-.387.028-.216.414-.812.475-.89.319-.566M230.575 267.486l-.012-.578-.056-.596-.194-.661-.236-.615-.663-1.511-.14-.546" clip-path="url(#p3b3e824be2)" style="fill:none;stroke:#000"/><path d="m209.252 308.08.723-.669 1.293-1.146 1.148-.739 1.426-.665 1.802-.872 1.874-1.074.913-.593.62-.546.203-.354.12-.458-.028-.677-.1-.482-.147-.404-.316-.585-.626-.788-.535-.801-.192-.553-.068-.656.37-1.517 1.004-3.532.488-1.858.309-2.24.302-1.455.166-1.455v-2.116l.135-.528.24-.453 1.041-1.468.531-.557.677-.477 1.287-.767.735-.568.591-.63 2.043-2.565 1.65-1.925.622-.957.521-1.095.279-.94.222-.95v-.48M420.287 431.093l.175.356.287.285.368.187.38.025.444-.011M445.814 444.429l.292 1.55M445.814 444.429l.534-.216M454.635 453.056l-3.008-1.05-.987-.453-.89-.518-.67-.588-.875-.986-.58-1.155-.4-1.29-.877-2.803M397.434 442.495l-1.021-1.301M421.225 429.834l-.246.135-.222.167-.193.196-.16.221M352.564 391.183l-3.96 8.922M385.21 310.37l-.925-.32-3.897-2.687M380.875 333.465v2.149l-.226.744-.465.744" clip-path="url(#p3b3e824be2)" style="fill:none;stroke:#000"/><path d="m381.858 336.758-.638-.085-.626.147-.41.282M381.858 336.758l-.497-.586-.188-.66-.298-2.047M382.968 338.146l-.156-.605-.396-.479-.558-.304M382.968 338.146l-.023.472M277.576 209.213l-12.726.63M264.954 212.36l12.207-.55.217-.074.146-.121.083-.247-.03-2.155M264.737 207.306l12.34-.531.148.054.08.059.055.071.055.186.161 2.068M264.85 209.843l.014.6M264.85 209.843l-.113-2.537M262.587 207.387l-4.558 3.82M264.737 207.306l-1.935.071-.215.01M255.943 209.051l1.4-1.133.427-.214.44-.095 4.377-.222M258.029 211.207l-6.789 5.511M258.029 211.207l-2.086-2.156M258.029 211.207l2.406 2.695M251.24 216.718l2.23 2.787M251.24 216.718l-1.886-2.329M264.954 212.36l-.09-1.917M255.943 209.051l-6.59 5.338M174.705 205.62l.424-.007.464-.094 1.129-.471.446-.128.316-.048.975-.082.716-.122.546-.214 2.548-1.043.237-.143.2-.153.848-.775.603-.432.293-.143.434-.116.509-.046 1.057.018 2.399.333.688-.01.608-.093 1.815-.388 2.91-1.023.676-.167.399-.022.335.015 1.463.074 1.503.008 1.325.042 1.151.113 2.529.476 3.237.691 1.04.362.917.262.619.12.955.11 1.09.026 2.944-.42 4.493-.95.534-.175.387-.215.48-.447 1.056-1.05.69-.585.804-.534 1.402-.82 1.37-.6 1.321-.357.877-.076.736.051 2.374.483.57.027.65-.043.505-.132.518-.236.769-.503.621-.418.631-.271 2.292-.327 2.758.17 2.713.71 1.448.893.407.766.166 1.305-.076 1.404-1.055 2.114-1.176 1.163-.015 3.135.453 2.07.791.56.46.492.12.8.49.893.867.468.498-.191 1.348 1.617.824.842.2.226M264.864 210.443l-4.429 3.46M260.435 213.902l-6.964 5.603M174.705 205.62l-.66-.216-.525-.236-.484-.346-.341-.413-.266-.512-.539-1.057-.281-.237-.364-.174-.542-.096-2.227-.358-.715-.298-.793-.45-1.946-1.353-2.448-1.46-5.548-3.013-2.17-1.256-.965-.156-.833.059-.626.21-.732.549-1.617 1.309M117.968 226.305l.227-.33.795-.827.868-.76.688-.378 3.317-1.223 1.77-.749 4.365-2.198 2.186-.83 1.764-.674 2.336-1.042 2.088-1.177 1.59-.98 1.244-.907 4.997-3.624 3.716-2.816.471-.4.678-.29.513-.685.328-1.355-.62-2.434-1.257-4.204-.038-.873.089-1.433M150.333 194.326l-.12.38-.13 1.41M102.48 240.99l5.785 1.682M117.968 226.305l-1.56 2.272-.693.716-1.014.812-1.364.89-1.289.827-2.457 1.85-.69.541-.759.681-.34.383-.337.523-.893 1.61-.523.972-.549.625-.883.757-2.136 1.226M418.612 430.399l.52.147.467.162.661.246M420.287 431.093l-.027-.14M539.605 476.813l.096-3.44M537.538 472.947l.299.026.733 1.455 1.035 2.385M537.72 467.591l.672 1.307.861 2.94.448 1.536" clip-path="url(#p3b3e824be2)" style="fill:none;stroke:#000"/><path d="m542.352 465.554-.689 1.337-.355.063-.422-.502-.356-.166-.89.271-.488.94-.511.356-.922-.262M413.435 429.909l-.67.105-1.89.67-1.213.712M390.511 421.164l-.994-1.76-1.025-3.345v-2.61l.784-2.212 1.025-1.361.606-.17M389.836 405.801l.61 2.164.194.248.333.47.416.287-.222.091-.333.392.073.253M457.656 298.996l.114-.872M449.788 302.336l.851-.412 2.107-.979 3.117-1.58 1.793-.369M472.547 289.31l-1.142.794-.92.773-.927 1.283-2.804 4.078-1.138 1.404-.626.503-1.063.497-1.703.128-4.568.226M472.547 289.31l2.016-.848 1.213-.408 3.837-1.141M472.547 289.31l5.92-3.869" clip-path="url(#p3b3e824be2)" style="fill:none;stroke:#000"/><path d="m478.467 285.441-.43.54-.124.261.012.185.101.277.246.158.316.061 1.025-.01M478.467 285.441l.543-.382M489.984 274.17l1.877-1.863M487.27 278.502l.415-1.666.272-.54.429-.51 1.598-1.616M488.318 268.177l.512 2.723 1.154 3.27M491.861 272.307l-.74-2.853M512.954 258.766l-.717-.017-.757.088-1.116.496-2.223 1.373-1.869.897-1.086.326-1.394.206-3.249-.05-.617.178-.656.298-1.53 1.17-1.702 1.944-1.434 2.466-.86 2.242-.383.737-.5.553-1 .634M512.954 258.766l.802-.12M526.004 272.22l-1.266-4.107-.158-.567-.234-6.02-.17-.536-.252-.305-.524-.263-1.168-.152-2.547-.188-.916-.106-1.62-.476-3.393-.854M560.844 215.547l-.545.264-2.766 1.972-1.636 1.348-3.286 2.432-1.13 1.596-1.674 2.922-1.681 5.567-.557.929-.8.68-2.543 1.15-2.635 1.489-2.412 1.673-1.884 2.199-1.13 2.07-2.058 4.17-1.228 1.674-2.119 2.468-1.594 2.064-.309.404-.508.32-.49.116-1.941-.617-.667.015-.377.11-2.789 1.226-2.766 1.284-1.078.695-1.628 1.574-1.718.823-1.139.482M500.212 235.612l-5.005-.822-3.723-.17-.935-.03-.603.128-.942.556-5.178 3.054-.663.603-.34.752.008 1.17.445 1.099.512 1.021v1.114l-.625 2.936-.852 1.716M473.847 256.845l6.949-6.68 1.515-1.426M508.318 160.189l-.418 1.126-.633 1.15-.482 1.091-.212 1.064-.58 1.284-.716.794-.452.135-.965-.056-5.924.17-2.985-.383-2.789-.383M487.194 180.666l-.263-1.138-.03-1.985.181-.696.445-.971 1.892-2.745 1.824-3.66.678-1.716.241-1.574M486.45 149.18l.602.646.437.758 4.492 14.164.181 1.433M582.081 604.636l7.04-3.006M619.738 602.396l-8.405 4.246-.682.305-.576.276-.434.163-.335.064-.332.01-.332-.035-.47-.127-.43-.142-.377-.188-.686-.315-4.925-2.33-4.493.653-4.914-1.644-3.226-1.702M341.983 209.56l3.889 4.034M345.872 213.594l-2.78 2.552M345.872 213.594l2.633-2.342M343.093 216.146l-2.83 2.596M334.158 212.523l2.289-2.183.247-.131.13-.019.124.03.18.092 5.965 5.834M334.158 212.523l6.106 6.22M334.158 212.523l-2.868 2.555M340.264 218.742l-2.813 2.6M331.29 215.078l6.16 6.265M331.29 215.078l-2.878 2.447M330.991 220.201l3.428 3.295.17.093.154.018.123-.006.126-.03 2.459-2.228M327.333 216.434l1.08 1.091M328.412 217.525l2.58 2.676M317.735 222.006l-.463-.996-.06-.2-.027-.219.055-.274.089-.254.207-.514.043-.317-.01-.357-.126-.505-.171-.314M308.267 219.272l.273.086.362.195.226.202.354.49.181.463.2.88.26.872.264.344.33.233.393.171.477.115.563-.008.389-.053 1.07-.224 1.418-.37 1.523-.41.877-.174.308-.078M292.662 216.1l.14-.807.106-.412.392-1.177M298.208 218.29l-.937-.355-1.524-.53-3.085-1.304M298.176 220.669v-1.262l.032-1.116M267.304 254.795l-.622-.202-.531-.078M254.436 251.38l.933.33 1.573.585.644.318.643.378.905.591.704.564.394.26.462.176.625.073 1.003.013 3.829-.153M267.304 254.795l-4.922 8.39M277.215 257.901l-.346-.148-.385-.157-1.417-.227-1.41-.19-1.235-.363-1.117-.425-4-1.596M237.17 246.52l1.077 1.81M239.628 244.036l-.116.089-2.342 2.396M242.109 248.14l-.32-.841M238.247 248.33l.465.693.096.12.134.08.184.023 2.983-1.105M238.247 248.33l3.542-1.031M239.838 240.883l2.565.704M387.168 170.04l.647.667.688.779 1.447 2.191 1.002 1.49.739.992.912 1.036.584.894.38.737.807 1.866 2.819 6.127 1.764 4.54.663 1.226 1.99 3.184.557 1.072 1.109 2.318 1.643 2.532.934 1.554.272.78-.012.54-.094.58-.31.88-.451.957-.66.84-.33.37-.112.155-.063.21-.047.317.013.349.095.468.652 1.532 1.454 3.326.187.562.164.665.185 1.245.213.788.254.818.46 1.007.296.465.155.163.246.163.456.088.377.004.584-.11 1.48-.355.562-.04.379.014.465.106.306.119.746.468" clip-path="url(#p3b3e824be2)" style="fill:none;stroke:#000"/><path d="m411.092 212.301-.247.498-.083.245-.04.314.053.801.189.993.271.887.38 1.092.31.727.455.837 1.395 2.024M377.758 154.642l.004.276.053 1.979.079.581.166.66.145.358.16.256.55.72 1.213 1.61.98 1.708.278.465.37.482 1.056.975.727.852 1.233 1.553 2.396 2.922M363.622 162.833l-.113.351-.06.358.007.364.038.303.302.893.22.313.284.304.792.56 1.228.498 1.832.56 1.93.361 2.016.384.54.06.443.032 3.46.07 2.548-.035 1.782.096 1.029.149.633.152 2.748 1.085.603.173.474.116.81.06M465.107 216.604l.26 1.002 1.29 4.248.037.695-.11.301-.165.26-.404.148-2.713.191-.26-.063-.215-.142-1.207-2.531-1.642-1.682-1.65-.893-1.425-.362-4.123-.411-1.44-.546M464.734 214.06l.069.853M465.073 209.088v2.284l-.339 2.688M465.715 214.864l-.521-.464-.46-.34M473.825 204.067l-1.095.011-2.609.182-1.4.363-2.238 1.345-.731.943-.679 2.177M458.708 205.365l.11-.12 1.688-1.355.573-.263.73.015 1.75.78 1.104.838.342.694-.06 1.993.128 1.141M473.825 204.067l.53.085.905-.039.347-.025.218-.032.324-.155.255-.118" clip-path="url(#p3b3e824be2)" style="fill:none;stroke:#000"/><path d="m475.93 203.27-.716.4-.881.312-.508.085M458.708 205.365l-.056.12-.136.859M464.862 215.663l-.06-.75M464.862 215.663l.245.941M464.862 215.663l.841-.088M466.898 215.45l.149 1.252M466.898 215.45l-.064-.594M466.898 215.45l-.963.1M520.716 473.339l2.111-1.297M377.758 154.642l-.064-.288-.253-.5-.402-.539-.415-.288-.46-.18-1.145-.206-1.584-.092-1.164.05-1.142.205-1.552.33-.694.136-.844.095-1.104-.014-2.08-.117-.945-.05-.936-.11-.716-.187-.494-.186-1.127-.542M357.155 149.131l.912 1.198.562.575.904.705 1.104.55M273.616 155.243l1.824 1.04.728.174.64.064 3.573-.192.949.1.792.152.814.358.7.6 1.554 1.26.42.146.514.069 1.01-.018.562.037.486.077.548.206.515.304 2.804 2.234.98 1.057.708.866.241.416.188.434.43 1.355M342.458 428.63l-7.05-5.329M350.125 413.326l.215-.362-.027-.413-.258-.334M349.077 413.368l.342.154.38-.015.326-.181" clip-path="url(#p3b3e824be2)" style="fill:none;stroke:#000"/><path d="m348.932 412.38-.135.339.052.358.228.291M350.055 412.217l-.388-.15-.413.06-.322.253M435.148 367.91l-.625-.19M434.395 369.65l.336-.031.408-.193.282-.337.103-.419-.098-.42-.278-.34M434.395 369.65l-.674-.316M434.395 369.65l-.936.684M433.72 369.334l-.261 1M433.486 368.785l.096.384.139.165M433.486 368.785l.176-.619M433.486 368.785l-.494-.53M433.662 368.166l-.67.089M434.523 367.72l-.387.04-.275.157-.199.25M456.948 479.65l.814-.893M457.762 478.757l.558.354.513 1.461-.09.652-.438 1.191M458.192 468.71l-.038.631.226.695.694 1.517" clip-path="url(#p3b3e824be2)" style="fill:none;stroke:#000"/><path d="m457.49 475.751.332-1.376-.014-1.39-.468-1.601-.573-.965v-.24l.166-.285 1.26-1.183M457.49 475.751l-1.733 2.439M459.074 477.609l-.784-.455-.663-.652-.136-.751M455.757 478.19l-1.085 2.651M457.762 478.757l-1.115-.426-.89-.141M459.074 477.609l-.664.482-.648.666M441.253 483.067l-.057-1.586M444.281 483.647l-.84-.324-.859-.142-1.329-.114M441.196 481.48l1.461.028 2.503.567 2.623.17M246.14 230.671l-2.33-1.271-1.153-.497-1.477-.489M249.201 227.36l-1.856-2.308-.316-.556-.15-.213-.235-.252-.237-.147-.471-.243-.368-.166-.53-.274-1.883-1.297M249.201 227.36l1.649-1.296M250.85 226.064l-1.982-2.692-2.096-2.71M404.696 386.679l-2.151-.123-.724-.979-.76-.754M381.772 396.113l.452.525.226.582.219.354M422.343 438.565l.944-.448 1.296-1.283.927-.752.996-.638M100.73 261.88l.887-.046.565.067.456.113.433-.003.336-.103.523-.38 1.252-1.662.867-1.032.226-.507.094-.752.166-1.96.109-.798.245-.827.286-1.067.083-.784.038-1.195-.012-.737-.165-.975-.302-.915-.105-.575-.015-.716.203-.882.415-1.032.95-2.44M124.564 247.115l-5.593-.255-1.006-.082-.75-.12-.739-.167-1.847-.78-6.364-3.04" clip-path="url(#p3b3e824be2)" style="fill:none;stroke:#000"/><path d="m120.848 273.904-6.784-2.997-2.464-1.255-4.798-3.145-6.071-4.627M134.249 252.611l-2.446 1.099M173.88 239.683l3.256.156.584.043.512.12.652.305.387.276.277.405.183.434.103.404v.587l-.03.296.019.204.04.158.231.743.257.883.116.549.185.73.543 1.807.203.601.04.309-.021.35-.735 2.472-.207.809-.083.521-.158 1.968-.325 2.507-.178.576-.24.47-.309.408-.405.326-5.312 1.496-.706.046-.62.005-.565-.115-2.981-1.826-.464-.225-.46-.133-.444-.024-.536.081-5.178 1.71-1.036.34-.573.308-.464.43-1.122 1.354-.447.632-.428.658-.467.809-.483.758-.278.24-.187.114-.3.107-.266.032-.284-.014-.339-.139-.923-.637-.366-.197-.454-.15-2.889-.43-.524-.001-.444.044-1.573.175-.367-.02-.325-.072-.942-.375-.42-.2-.417-.271-2.608-2.368-.656-.504-1.726-1.057-4.303-2.865-1.711-1.1-.984-.68-.705-.613-.697-.713" clip-path="url(#p3b3e824be2)" style="fill:none;stroke:#000"/><path d="m124.564 247.115.582.207.375.296 1.447 1.646 1.779 2.134.24.256.348.308 1.816 1.167.209.163.156.148.287.27M172.636 209.67l-.015.638-.433 4.624-.03.33-.045.298-.528 1.79-.084.373-.033.294.057 2.358.169 1.996.226 1.579-.042.192-.072.118-.12.108-.205.076-.488.073-.641.078-.337.062-.405.133-.6.245-.444.201-1.53.682-.795.3-.552.111-.515.073-.474.02-.351.004-.2.02-.207.046-.814.312-1.065.462-.584.209-.315.137-.258.144-1.362.91-.25.168-.143.05-.163.031-.154-.001-.596-.179-.13-.007-.156.028-.44.161-.327.17-2.17 1.327-1.84 1.22-2.438 1.87-2.683 1.858-.553.39-.431.26-.957.401-1.983.631-2.208.568-.244.082-.29.147-.54.424-4.835 4.205-.41.25-.457.221-4.089 1.745-2.98 1.188-3.513 1.24" clip-path="url(#p3b3e824be2)" style="fill:none;stroke:#000"/><path d="m172.636 209.67-.957.8-.867.781-.32.332-.373.493-.987 1.438-.603 1.067-.777 1.33-.965 1.95-.55 1.248M174.705 205.62l-1.375 1.27-.259.393-.194.408-.128.78-.113 1.199M197.683 350.4l1.386 1.25M155.866 538.902l.916-.83.53-1.027.114-.67.09-1.355.588-2.697.227-.638 1.16-1.84.524-.503 1.157-.876 2.076-2.113 1.41-1.166 2.254-1.453 1.096-.39.912.04.547.13 3.685 1.62.864-.021.863-.333 1.598-.911 3.613-1.195 1.165-.865 1.29-.503.726-.578.494-.62 2.75-5.467.483-1.665.098-1.979-.17-.854-.26-.524-.489-.727-1.217-1.524-1.508-2.446-.147-.94-.03-.471-.414-1.202-.547-1.103-.034-.418.324-1.29.531-1.163.935-1.166 3.011-3.08.634-.99.135-.854-.263-2.148-.285-.58-.44-.244-.742-.325-.222-.19-.196-.621.136-1.212.158-1.32-.057-.35-1.68-3.875-.422-1.333.007-.492.475-4.435-.196-2.127.18-.575.317-.489.58-.376.913-.404 1.364-.446 1.948-.518.543-.641.298-.61.11-.99-.457-1.8-2.864-5.835-1.854-2.517-1.467-1.337-.32-.645-.018-.358.682-2.389.686-2.269 1.16-7.53 1.025-3.006.64-1.099 1.23-1.482 3.437-3.715.798-1.446 2.186-4.694.392-1.432.076-1.12-.663-5.616.015-1.177.27-1.149 1.375-2.151 2.462-2.57.543-.257 2.11-.531.74-.54.572-.687.43-.836.414-.475.573-.235 2.118-.425 2.058-.66 1.074-.715.391-.44.773-1.787.196-.8v-2.66l-.166-1.787-.332-1.326-.617-1.042-1.772-1.73-2.94-3.212-2.746-2.737-.735-.475-1.516-.546-3.467-.433-2.08-.553-1.402-.517-.482-.327-.475-.73-.407-1.29-.46-.54-.618-.432-.377-.56-.136-.546.272-4.155-.173-2.97.218-.767.588-.694 1.138-1.107 5.766-6.176.513-1.085 1.598-4.148.663-1.546.128-2.17-.731-2.602-.679-1.007-.738-.539-1.01-.95-.362-.603-.06-.567.12-1.29M155.866 538.902l-.531 1.276M154.837 538.944l.332.075.392.003.305-.12M154.837 538.944l-.313-.226-.365-.327-.536-.365-.508-.199-.663-.162-.909-.185-.788-.212-1.53-.49-.735-.091-.474.035-.596.128-1.175.44-.77.208-.696.025-.566-.092-.335-.1-.31-.148-.55-.39-1.918-1.713-1.601-1.41-.566-.365-.878-.305-.561-.092-.705.003-.976.107-1.308.35-3.026.795-2.016.545-.786.293-.574.177-.3.09-.285.03-.21-.023-.191-.05-.164-.09-.591-.398-.483-.295-.475-.18-.467-.089-.415-.018-.772.043-.81.003-.75-.046-.498-.11-.301-.142-.317-.265-.362-.362-.35-.485-.392-.684-.61-1.397-.89-2.042-.37-.553-.497-.528-.855-.627M133.864 502.883l.312.624.268.61.339.69.316.486.354.473.339.314.336.328.489.522.35.396.245.336.145.358.085.23.053.292.019.278-.032.285-.08.248-.147.257-.596.76-.767.851-.642.683-.234.14-.175.073-.204.033-.63-.038-.817-.047-.301.01-.288.06-.427.177-.83.268-1.157.222-1.218.106-1.36.153-1.3.192-.705.049-1.233-.032-.514.009-.286.033-.236.059-.305.122-.415.273-.437.468-.29.315-.445.348-.475.3-.764.274-1.015.196-.685.19-.524.27-.373.298-.226.322-.155.45-.087.457-.052 1.51.007.993.08 1 .075 2.095-.09 1.528-.024.808-.067.574-.32.798M611.088 472.353l-.516-.215-1.373-1.229-2.244-1.89-1.843-1.103-.703-.441-.368-.599-.436-1.953-1.374-1.86.135-1.985-.972-1.764 1.842-7.027.436-1.386.067-1.355-.335-.945-.905-2.112-1.34-1.859-1.34-2.52-.468-1.828-.168-2.395.268-2.048M608.175 381.663l-.684 2.528-.704 1.922.469 2.08 1.373 4.632 3.015 9.454 1.675 4.948.302 1.701v4.412l-.168 4.191-.47 1.481-1.205 1.89-2.311 4.097-1.273 2.71-1.306 2.647-.871.598-2.714 1.419-1.507 1.89-1.24 1.166-1.105.41" clip-path="url(#p3b3e824be2)" style="fill:none;stroke:#000"/><path d="m573.524 441.258 4.958.379.87 1.922 1.977 1.953.235 1.072-.871 1.764-.871 1.796-.637 1.261.168.82.804.598h2.545l2.312-.284 1.44-.346 1.474-1.481 2.01-.662 1.307.82h1.44l.335.567-.168 1.417-4.522 5.2-.134 1.45.603.66 1.106-.094 1.406-.661.972-1.04 2.177-1.67 2.613-2.93 1.005-2.585-.302-1.953-1.172-1.576-2.177-1.733-1.173-3.12-1.708-.724-1.106-1.197-1.976-.883-3.417-1.323-2.378-1.89-1.373-1.167-2.044-2.363-1.708-1.26-.168-.63-.737-2.774-1.071-1.638-1.541-1.26-2.311.125-.403-1.607-.2-1.733-1.742-.882-.201-.473.401-1.008 1.307-.662 1.507-1.67 1.943-3.498.335-.85-.502-.694-1.44.315-1.71.63-1.305 1.64-.738 1.007-.938-.094-1.239-1.418-.469-.756 1.14-.82 1.808-1.102-.134-1.104-.77-1.008.2-1.166 1.307-2.3.033-2.49.938-1.26-.2-1.985.636-.19.402.284.134 1.23.301 1.007.77.914 1.609 1.104 2.244 1.291 2.077 1.26 1.038 2.05.469 2.678-.469 3.34 1.106 3.183.268 3.119.469 1.26.938.977.904 2.049.77 1.48 1.407 2.049 5.193 2.804 3.717 1.512 4.824 1.608M603.005 381.138l1.74.277 1.478.141 1.952.107" clip-path="url(#p3b3e824be2)" style="fill:none;stroke:#000"/><path d="m603.005 381.138-.304.974.736 1.04.402 1.323.034 1.765-.436.661-1.942.694-.938.882-1.976.063-5.059.882-2.311-1.008-2.512-.725-2.647-.252-1.139-.346-1.172-1.702-.603-2.017.034-2.111 1.005-2.742.066-1.103-1.004-.945 1.172-3.183.134-2.458-.268-2.458 1.306-3.215.335-1.985-.77-2.994.201-1.26.971-2.742.47-2.458 1.037-1.23.604-3.497.703-.945 1.139-.662 1.24-1.26.335-.82-.704-1.103.033-2.238-1.105-.945-.737-1.292-.067-1.26-.234-1.576-1.675-1.702-.235-2.143-.033-1.355.636-.536 1.675-.22 1.273-.883 1.139-1.292 1.072-1.103h1.373l.938.536.77 1.323.603 1.23.67.724 1.072.63.47.41-.838.221-1.574-.032-1.039-.41-.971-1.04-.905-.346-.804.19-1.44 3.529 1.172 2.804.603 1.891 1.072 2.017.47 2.111 1.54 3.562-.435 3.403v3.246l.904 4.349.469 1.89.87 1.072 4.958 2.27 2.312.346.937.85 1.207 1.892 1.105 3.34-.1 5.136.268 2.836-.388 4.027" clip-path="url(#p3b3e824be2)" style="fill:none;stroke:#000"/><path d="m603.005 381.138-1.289-.411-1.09-.301-1.036-.217-1.1-.12-1.085-.015-1.87-.12-.95-.043-.565.064-.426.103-.742.273-1.5.773M469.87 460.844l-3.407-1.08M410.986 428.435l2.45 1.474M414.55 428.093l-.836 1.31-.279.506M431.006 428.39l.26 1.65-.226 1.355-.402 1.06M308.135 432.594l.661-.688.437-.647.023-.92-.18-1.028-.137-1.035-.21-.937-.302-.467-2.758-1.674-.52-.482-.208-.65-.08-1.336M253.3 381.893l-1.097.249-.313.23-.188.298-.32 1.17-.25.922-.304.815-.347 1.226-.272.986.241 1.135-.037.68-1.642.466M254.363 374.94l.738.434.603.666M253.3 381.893l.565-.138.569-.241.577-.532.603-.914.475-.816.173-.9-.068-.759-.151-.565-.339-.988" clip-path="url(#p3b3e824be2)" style="fill:none;stroke:#000"/><path d="m253.3 381.893.339-.267.32-.399.29-.475.08-.38-.015-.563-.087-.43-.324-.623-.253-.585-.087-.383.038-.465.188-.376.26-.187.407-.075.543-.092.325-.096.165-.138.215-.319M617.678 505.785l.745 1.554v.518M624.286 502.54l-.178 1.006-.356.38-.827.64-1.279.777-1.441.686-.486 1.081-.502.382-.794.365M485.335 282.655l1.124-1.703.811-2.45M484.127 267.34l.965 4.1 1.87 6.368.308.694" clip-path="url(#p3b3e824be2)" style="fill:none;stroke:#000"/><path d="m479.77 268.787.634.581 1.99 5.574 1.93 2.936.451 3.007.56 1.77M485.335 282.655l-.384.103-.341.031-.332-.05-.29-.152-.192-.263-.164-.737M481.752 285.553l1.603-1.225 1.142-.752.66-.57.178-.351" clip-path="url(#p3b3e824be2)" style="fill:none;stroke:#000"/><path d="m481.752 285.553 1.192-1.817.34-.788.348-1.361M479.613 286.913l.731-.433 1.408-.927M483.632 281.587l.02-.794.016-.447M483.668 280.346l-.038-.716-.219-.873-.173-.574-.414-.801-.905-1.107-1.168-1.893-.264-.518-.4-.787M557.35 441.087l-2.77 2.104-.639 2.404-.426 2.004.48.701 1.917 1.303 1.544.05 1.491-.651 3.355-.551.533.2-.587 2.454.32 1.503-.48 3.357.534 3.205-1.226.502-1.97.4-.213.601-.64.852-1.17-.15-1.172-1.403-.426-1.202-.373-1.904-.532-1.302-.746-.35-1.011.1-.96 1.101-1.65 2.705-1.011.702-2.078 2.705-.16 2.053-.053 4.308.8.552 1.118.05 4.526-.752.48-.35.905-.351.426.35 1.17 1.553-.318.551-2.237 1.052-1.384 1.302v1.453l-1.065 1.152-.267 2.455v1.252l.852 1.603.906 2.655.852.601 2.023.5 2.077.602 1.544.902 3.781 1.853 2.45-.751 2.982-1.303 1.864-1.152 1.065-1.102 4.313-1.953.958-1.804.8-.45.585.2.586 1.152-.64 1.352-.478.702.958 1.001.799.752 2.236.651h1.278l1.811-.952 2.183-2.103.959-.401 1.704-1.052 7.775 2.003 1.011-.45 1.865-2.004 2.982-4.458 2.236-1.202 2.396-.3 1.97-.552 1.02-1.344M321.989 454.448l1.653-1.934M316.428 453.432l.192-.713.324-.542.66-.21.585.263 1.977 2.286.418.185.528-.064.877-.19M316.428 453.432l-.09.606-.215.372-.543.503-.648.465-.807.663-1.006.27-.637.36-1.522 1.436M311.674 450.635l1.918.503.341.287.864 1.309.643.506.298.167.69.025M446.92 609.648l.366-.135 1.816-.475.452-.177.317-.22.166-.308.082-.415.713-4.3.899-2.782M489.84 614.9l.664-.822.147-.319.049-.383-.11-.297-.252-.29-.282-.2-.253-.106-1.877-.46-.708-.348-.355-.213-.369-.262-.415-.213-.58-.07-.904.12-.452.113-.393.228-.7.623-.656.503-.603.177-.678.079-1.628-.085-2.691-.306h-.407l-.46.036-1.364.021-1.093-.205-.724-.298-.603-.496-.497-.822-.286-1.4-.035-.607-.124-.318-.234-.17-.245-.06-.358.017-.297.106-.32.227-.212.355-.395 1.091-.14.277-.263.269-.393.276-.904.369-1.326.616-.716.504-.649.737-.603.674-.444.376-.558.262-.762.233-.76.128-.627.021-.542-.092-.573-.269-1.44-1.12-.361-.27-.302-.333-.85-1.093-.139-.153-.175-.129-.192-.06-.298-.039-1.221-.227-.37-.184-.169-.131-.11-.174-.07-.202-.175-1.166-.602-2.85-.03-.38.045-.336.249-1.18-.012-.202-.03-.195-.08-.188-.293-.486-.09-.205-.057-.213-.147-.751-.05-.21-.031-.068-.038-.055-.066-.05-.695-.273-.096-.055-.08-.082-.063-.093-.111-.238M446.92 609.648l-.185.432-.222.369-.313.361-.482.493-.193.259-.142.276-.08.479.028.203.113.215.21.126.305.076.573.12 1.828.188.486.068.46.12.821.344 1.402.57.829.277 1.172.337.863.322 1.146.553 1.078.673 1.319.965 1.53.935.544.346.571.406 1.18 1.17.833.907.436.428.611.48.637.42.389.285.32.205.422.156.603.152 2.114.461M141.436 279.775l-4.677-.628-2.148-.432-1.519-.412-3.395-1.225-8.85-3.174M176.792 326.22l-.681-1.043-.995-1.752-.83-1.78-4.868-9.806-4.281-9.723-2.005-4.857-3.633-7.542-1.952-3.939-.618-1.075-.822-1.06-.678-.705-1.048-.794-1.165-.61-.784-.26-1.017-.234-9.979-1.265" clip-path="url(#p3b3e824be2)" style="fill:none;stroke:#000"/><path d="m137.203 297.918.332-5.779-.003-.17-.136-.277-.257-.244-.342-.195-3.8-1.078-.789-.117-.612.035-.467.082-1.93.624-.45.153-.18.004-.141-.057-.1-.105-.026-.134.397-1.659-.016-.127-.106-.155-.283-.19-.744-.336-.29-.165-.118-.138-.076-.148-.026-1.223.02-.24.059-.295.173-.376.219-.337.286-.174.317-.06.66.05 1.326.141.352-.009.338-.054.648-.202 1.198-.632 1.266-.68 1.553-.809 1.877-1.149 1.385-.792.21-.115.247-.077 1-.178.33-.108.321-.144.611-.504M401.222 459.958l.056.333.15.475.28.77.154.414.068.365.011.312-.107.403-.11.152-.13.112-.263.085-.23.014-.256-.018-.185-.074-.12-.199-.053-.269.067-.482.22-.93.142-.623.306-.84" clip-path="url(#p3b3e824be2)" style="fill:none;stroke:#000"/><path d="m401.222 459.958-.306.84-.143.624-.219.929-.067.482.052.27.121.198.185.074.256.018.23-.014.264-.085.13-.112.11-.152.106-.403-.01-.312-.069-.365-.154-.415-.28-.769-.15-.475-.056-.333M408.122 486.371l.377-.468.396-.379.395-.308.897-.475.874-.242 1.584-.084 2.276-.114 2.05-.44 1.16-.41 1.101-.525 2.05-1.27 1.696-1.375.957-.872.294-.248.392-.135.648-.188M408.122 486.371l-.622.185-.392.01-.95-.024-2.038-.249-1.237-.29-.603-.071-.58.021-.957.135-1.289.092-.882-.085-1.19-.178-.611-.148M408.122 486.371l-.467.603-.701 1.028-.28.482-.286.624-.143.624-.128.78M300.414 468.42l.604 1.8M264.116 525.748l-.543-1.192-.814-1.446-.242-.68-.512-.71-.301-.992-1.056-1.616-.15-1.305-.09-1.9-.212-1.304-.362-.936-.3-1.787v-.879l.36-1.843 1.327-3.403.06-.823-.09-1.418.844-4.112 1.568-1.9.513-.936.995-.907.542-.68v-2.27l-.21-1.446.24-2.269 1.1-.722 1.583-1.333.498-.085.799.099 1.221-.199 1.055-.765.513-.043 1.884-.029 1.733.327.83-.355.663-.85.301-.95-.015-1.008-2.321-4.792-1.613-2.198-1.492-1.645-.151-.383.377-.708 1.326-1.971 1.824-1.178.679-.085.557-.212.573-.95.151-.823.332-.865 1.04-.567.686-.68 1.379-2.305.196-.305.445-.212.429-.121.633-.035 1.191.297 2.397 1.794.105.241.023.405-.12.496-.173.226-.242.107-.897.099-.346.383-.068.319-.06 2.113.06.326.49.61.233.212 1.108.603.158.468.015.361.385 1.085.226.313.664.517 1.56.929.625.595.626.142.52-.284.776-.56 1.96-.964 1.394-.447 2.721-.397.279-.149.663-.73 1.153-.985.694-.95M154.837 538.944l.498 1.234M153.486 549.88l-.582 1.41-2.254 4.87-.618.78-1.236.908-1.688 1.772-1.025 1.603-.996 1.673M153.486 549.88l.126-.305.746-1.262.845-1.177.73-.886.172-.37.123-.382.135-.588-.113-.978-.47-1.96-.445-1.794M153.486 549.88l.405 2.176.241 1.29.211.915.074.232.122.23.55.573.34.496.196.532.346 1.595.234.404M476.265 143.169l.642.869.994.695 2.141 1.178 5.243 2.71 1.164.559" clip-path="url(#p3b3e824be2)" style="fill:none;stroke:#000"/><path d="m481.836 172.006.407-.35-2.17-8.227 2.2-2.043 2.804-2.27 2.23-2.41.122-2.583-.995-3.63-.422-.71.437-.603M525.54 142.972l-.357-.21-.437-.164-.204-.113-.158-.192-.008-.361.159-.965.384-1.05M527.46 142.367l-.067-.011-.409.065-.867.255-.577.296" clip-path="url(#p3b3e824be2)" style="fill:none;stroke:#000"/><path d="m516.434 151.226 1.159-1.145 1.281-1.05 1.779-1.29 1.462-.923 1.13-.971 1.222-2.036.791-.695.282-.144M527.46 142.367l.76.118 2.721.589 2.721.36.98.122.392.113.354.227.52.603.927.66.912.205 1.048-.163 1.756-.567 4.364-.418 1.123.198.852.362 2.6 1.744.415.157.437.035 1.877.092 1.56.369.874.1 1.967.077.422.163 2.149 1.49 1.583.73 2.668 1.823.587.248h.49l.468-.07.301.02.325.129.942.588.723.213.437.057.468-.022.271-.078.173-.234.257-.837.542-1.305.385-.915.723-1.88.287-.354.475-.212.655-.008.664.227 2.427 1.497 1.145.41.852.122 1.696.156.587.12.777.404 1.68.56 1.433.299 1.078.51 1.093 1.064 1.341.61 2.382.723.995.298.95.582 2.336 2.156 1.327 1.688.633.412 1.35.63 1.635 1.05.4.128.557.064.407-.078.392-.362.776-.837.513-.617" clip-path="url(#p3b3e824be2)" style="fill:none;stroke:#000"/><path d="m560.844 215.547 2.146-1.04.814-.787.46-.724 2.08-4.205.874-.844 1.123-.596 1.146-.383 2.027-.107 2.48.135 2.11-.333 1.854-.894.701-.298 1.817-1.305 2.434-1.886 1.553-.965.35-.428.159-.44.177-.962.256-.414 1.1-.805 1.35-.645.98-.206.881.134.92.405.498.057.678-.128 1.033-.71.768-.886.28-.532.172-1.262.136-4.262-.226-1.78-.37-1.518-.474-1.15-1.296-2.276-1.176-1.752-.905-1.645-.384-1.142-.113-.894.075-.858.709-1.794 1.522-2.007 3.076-3.632 3.496-4.652 2.473-4.029.633-1.638.136-.752M474.197 138.004l-6.079-18.038-.738-2.795-.573-7.575-.467-1.397-.935-1.653-2.004-3.171-1.855 2.582-2.728 1.61-7.018 4.965-2.841 1.348-1.327.986-.452.589-.467.674-8.962 11.639-.038.149.083.276.332.34 2.887 1.717.603.936.889 2.979.166 1.9-.136.795-.995.994-3.407 3.149-2.17 2.127-1.5 2.419-.437.61" clip-path="url(#p3b3e824be2)" style="fill:none;stroke:#000"/><path d="m459.97 141.79 2.171-1.085 2.05-.717 1.168-.192 3.332-.503 5.506-1.29M476.265 143.169l-.247-.337-.74-1.617-1.081-3.211M515.817 151.994l-.516.796-.557.68-.754.753-.467.865-.362 1.12-.422.625-.498.44-1.01.297-1.266.242-.618.355-.482.553-.547 1.469M504.55 157.989l-.178 1.255.038.242.174.163.527.12 2.013.234 1.194.186M515.817 151.994l.284-.438.333-.33M514.41 150.539l.5-.409.286-.085.18.014.25.178.808.989" clip-path="url(#p3b3e824be2)" style="fill:none;stroke:#000"/><path d="m514.66 148.818-.308.873-.053.638.112.21M515.817 151.994l-.802-.615-.43-.51-.174-.33M560.844 215.547l1.95.534 2.313.305.687.135.294.141.18.249.362 1.709-.105 2.142v1.645l-.95 3.787-.422 2.043.015.737.316.851.618.667.86.737 2.261 1.206.935.539.693.794.543 1.461M460.262 205.588l.311-.365.325-.135.46-.106h.625l.302.07.21.256-.143 1.376M460.262 205.588l1.72.23M458.708 205.365l.597.094.957.129M447.938 304.46l.663-.51M447.938 304.46l.184.198.425.237M446.253 304.59l.874-.14.81.01M447.429 303.646l.37.665.139.15M446.253 304.59l1.176-.944M449.788 302.336l-.626.302M449.788 302.336l-.656-.014-.746.106-.535.235M448.244 303.113l.918-.475" clip-path="url(#p3b3e824be2)" style="fill:none;stroke:#000"/><path d="m448.244 303.113-.149-.22-.244-.23M447.429 303.646l.24-.145.575-.388M448.6 303.95l-.131-.426-.225-.411M447.319 302.991l.064.38.046.275M441.331 307.272l.287-.014.331-.227 3.407-2.588 1.963-1.452M447.851 302.663l-.29.152-.242.176M448.6 303.95l.212-.476.35-.836" clip-path="url(#p3b3e824be2)" style="fill:none;stroke:#000"/><path d="m448.547 304.895.103-.566-.05-.38M465.935 215.55l.502.588.61.564M465.935 215.55l-.232.025M465.703 215.575l.012-.71M465.107 216.604l.373-.53.223-.5M466.67 213.33l.164 1.526M466.67 213.33l-.504 1.098-.233.453M487.194 180.666l.506 2.196.015 1.063-.271.98-.754 1.106-5.736 7.95-.422.915-.24 1.454-.076 1.44-.264 1.283-.731 1.872-1.493 3.284-.884.788-.826.3-1.196.05-4.42.124-1.198.256-1.063.652-.957 1.035-.498 1.405-.098 1.348-.015 2.254.098.91M465.933 214.881l-.218-.017M465.933 214.881l.9-.025M465.715 214.864l-.912.05" clip-path="url(#p3b3e824be2)" style="fill:none;stroke:#000"/><path d="m476.794 201.993.015-.355-.034-.198-.076-.17-1.33-1.359-1.733-1.532M476.794 201.993l-.14.276-.143.249-.4.5M476.687 203.073l.11-.325.034-.22-.037-.535M476.111 203.019l-.115.11-.067.142M476.687 203.073l-.127-.086-.15-.04-.156.01-.143.062M478.03 201.904l1.492-3.936.008-.44-.09-.305-.212-.284-.437-.255-.897-.422-.339-.28-.15-.276.03-.412.361-.816 1.191-2.567M478.03 201.904l-.354.44-.249.276-.249.195-.427.339" clip-path="url(#p3b3e824be2)" style="fill:none;stroke:#000"/><path d="m476.725 203.613.513-.202.166-.1.136-.194.279-.54.21-.673M476.404 203.783l.123-.027.11-.058.088-.085M475.93 203.27l-.007.158.056.148.11.119.148.072.167.016M476.687 203.073l.064.08M476.725 203.613l.073-.146.009-.16-.056-.153M481.556 281.29l-.051.333-.355 1.042-.618 1.021-1.032 1.028-.49.345M433.506 170.162l2.157-1.5 1.975-1.517.648-.936 2.382-5.092.754-1.064 2.351-1.603 3.86-2.809 1.869-.723 2.291-1.064 3.663-2.979 4.597-3.73 1.146-.681 7.22-3.079 1.192-.17 2.698.071 1.703.27 2.253-.387M433.327 170.287l-1.478 1.064-.818.419-.938.376-2.729.73-2.05.496-1.098.168-.914.066-1.16-.01-1.14-.117-1.31-.34M441.331 307.272l-.173-.057-5.013-9.155M487.194 180.666l.92-.443 3.181-1.744 2.902-1.752 2.887-2.078.708-.234.867.014 1.07.312 2.058.887 1.432.9 1.772 1.142 1.19.305 1.07.1.702-.171 1.243-.617 1.41-.432 1.19-.185 1.274.163 1.237.12 1.16.412.867.383.294.34.196.462.4.447 1.303 1 .71.326.602.177.286-.021.189-.213.497-.745.294-.092.46.036 2.005.396M260.854 312.18l.224-.228.716-.744 1.048-.59 1.613-.574.866-.205 1.138-.043 1.485.156.445.036.392-.057.219-.156.482-.695M260.854 312.18l-.292.269-.554.375-.513.156-.896.156-.973.114-1.063.375-.723.05-1.207-.198-1.929-.454-3.467-.88-.927-.006-.784.12-.497.298-.31.468-.896 1.312-1.47 1.68-1.53 1.369-1.04.574-1.485.49-1.304.468-1.59.758-.55.107-.528-.135-.558-.369-1.063-.957-3.504-2.88-1.131-.964-.49-.318-.694-.256-.73-.34-1.214-.518-4.055-1.922-4.1-1.935-3.566-1.872-.437-.185-.565-.014-.603.1-4.364.863M258.81 414.144l1.01-.673.308-.127.468-.086 3.24.178.98-.05.49-.156.754-.46.298-.174.294-.072h.4l1.79.224.493.166.49.302 1.489 1.039.761.602.498.472.46.645.097.368.083.632.027.964.075.255.184.263.973.815.497.312.34.078.527.007 1.217-.19M260.854 312.18l.673.673 2.046 2.695 1.417 1.347 1.62 1.786 1.59 1.313 1.689 1.116 2.224 1.905.504.708.31.78 1.213 2.156.47.699.126.312.041.266-.041.33-.132.436-.257.705-.632 1.205-.223.809-.17.918-.192 2.092-.301 1.624-.159.418-.384.54-.727 1.123-.155.5-.045.465.09.69.227.468.384.306 1.417.468 1.53.198.821.142 1.403.454.73.184h.498l.739-.305.505-.085.92.106 1.462.455.889.092.791.326.709.425.904.922 1.334 1.929.92.893.814.54.678.226.897.05 1.485-.277.965-.107 1.085.157 1.055.376 1.538.772.83.22 1.13.142.444.135 1.026.51 1.914 1.503 1.44.965 1.899 1.574.829.691.343.086.361-.008.49-.209 1.293-1.319.46-.269.426-.075.422.064.738.437 1 .73.497.298.188.248.151.553.27 1.276.566 1.49.815.83 1.537 1.353 1.327.986 1.53.49 3.24.808.845-.128 1.854-.525 1.123-.128h1.033l1.71.355.619.128.897-.028.818-.143.5-.003.525.074.403.142.278.17 1.154.795.79.773.691.726.95 1.106.392.291.376.185.558.088.697-.028.867-.128.28.007.534.192 4.112 2.152.976.627.618.493.388.457.37.667.369 1.496.286.49.757.794 1.342 1.092 1.319.921 1.251.49.86.58.369.76.43 1.311 1.043 3.435M199.069 351.65l-.127-.672M198.942 350.978l-.054-.288-.075-.354-.173-.305-.25-.326-1.235-1.227-3.392-3.375-2.691-2.613M194.973 168.031l.26.444.286 1.075-.045.88-.219.772-.603 1.22-1.017.979-2.66 1.631-3.596 2.184-4.063 3.007-3.546 2.624-.443.27-.57.23-1.772.423-2.004.45-.277.115-.278.264-.237.426-.77 2.085-.376.764-.543.93-1.65 1.923-1.157 1.173-1.007.745-1.089.495-1.143.11-.813.005-1.266-.152-3.436-.773-2.48-.56-1.07-.163-1.221-.015-1.369.199-1.353.312-1.228.535-1.169.855-.5.432-.216.401M140.875 162.223l.595.039.572.131.442.245.403.411.392.763.542 1.411.724 1.929.633 1.483.957 1.432.942 1.376.792 1.113.678.823 1.233 1.146 1.149 1.163.678.847.747 1.408.516 1.174.165.83-.06.954-.158 1.096-.309.698-.362.638-.44.802-.23.822.014.788.148.51.832 1.046.288.358.146.341-.003.325-.065.228-.275.333-.765.6-.924.624-.339.33-.264.443-.216.463-.092.6.086.823.286 1.557M386.076 148.159l-.136 1.142-.317 1.787-.407.915-.4.51-.429.277-.663.305-.512.157-.547.102-.462-.03-.582-.172-.802-.456-.245-.083-.281.049-.285.142-2.25 1.838M344.29 164.77l.402-.22.138-.097.107-.095.225-.194.164-.086.192-.054.528-.134.37-.178.311-.191.265-.15.282-.219.912-1.322.273-.37.466-.308 2.632-1.313.249-.246.132-.21.348-.848 1.229-3.632.784-1.73.64-1.163.927-1.369.603-.794.686-.716M273.616 155.243l-1.213.615-1.165.684-1.522.95M271.125 178.592l-1.424-3.73-.407-1.153-.012-.429.065-.432.143-.55.13-.217.156-.127 1.635-.723.312-.245.156-.288v-.32l-.046-.312-.195-.552-.532-.684-.569-.564-1.277-.922-.292-.355-.053-.207-.028-.275.098-1.057.045-.929.023-1.894.105-.716.128-.497.49-1.588.077-.507.044-.536-.181-1.29" clip-path="url(#p3b3e824be2)" style="fill:none;stroke:#000"/><path d="m267.09 137.503.078.216.027.365-.306 1.755-.068.585.057.477.11.48.237.731.77 1.566.142.52.177.603.187.36.205.278.588.699.362.4.169.328.117.342.068 1.681.015 1.93.147.83.343.793.84 1.132.893.89 1.368.78M277.215 257.901l.848.062.792.006 2.167-.181 1.123-.128.188-.091.159-.132 1.364-1.99.172-.132.218-.135.394-.18.286-.159.175-.14.213-.211.803-1.19.618-.88.19-.22.204-.17.804-.702 2.096-1.98.114-.16.09-.19-.008-.13-.065-.136-3.516-2.39-4.861-2.915M268.638 289.89l1.816.349.666-.004.917-.039.434-.094.546-.204.814-.517.814-.702 1.794-1.703 1.168-1.588 1.417-1.844.784-1.184.558-.755.247-.17.28-.114.472-.112.414-.023 2.054-.07.164-.045.137-.06.085-.08.034-.064.01-.1-.008-.109-.09-.192-1.063-1.124-.339-.45-.074-.395-.028-.417-.207-2.457-.17-1.198-.256-1.419-.145-.344-.057-.165-.054-.21-.17-1.025-.15-.6-.321-.673-1.16-1.464-.702-1.284-.105-.15-.147-.12-4.824-1.17-.249-.157-.12-.168-.036-.233.201-.448 3.226-6.894M194.973 168.031l-.2-.34-1.575-2.135-1.417-2.149-.347-.656-.264-.755-.595-1.865-.256-.43-.204-.276-1.519-1.844-.275-.464-.167-.651-.017-.73.365-1.662.435-1.632" clip-path="url(#p3b3e824be2)" style="fill:none;stroke:#000"/><path d="m171.465 140.575.131.063.283.056.934.05.741.108.608.168.935.49 2.83 2.103 4.952 3.567 2.457 1.759 1.953 1.639.576.585.75.91.322.37M171.465 140.575l-.108-.09-.183-.298-.867-1.54-.305-.322-.603-.387" clip-path="url(#p3b3e824be2)" style="fill:none;stroke:#000"/><path d="m117.968 226.305-1.068-1.67-.145-.519.098-.971.603-1.419.874-1.425.219-.887.26-3.666.275-.986 1.04-2.057.535-1.376.605-2.216-.035-.402-.219-.495-.826-1.192-.4-1.255-.33-2.184-.717-2.305-.557-.947-.8-.587-1.891-.877-.354-.359-.234-.531-.027-.915.28-.706.53-.613.558-1.153.053-.56-.301-2.16-.381-1.326.056-1.388-.105-.381-2.125-3.774-.709-1.819-.052-2.769-.215-1.527.473-1.376-.087-1.486-.582-1.714-.04-.578.066-.674 1.146-3.653.007-1.22-.27-2.496-.19-.758-.514-1.419-.405-.71-1.922-3.099-.063-.366.052-.387.169-.4.449-.534.554-.462 3.158-2.056.859-.887.384-.947v-.227l-.422-1.184.076-.727.324-.986.618-.94 2.789-3.4.69-1.813-.02-.635-.222-.564-.584-.531-.836-.476-1.432-.354-2.865-.188-.95-.107-.357-.193-.193-.232-.143-.88-.037-2.418-.332-1.383-.98-1.44-2.88-1.234-1.168-.851-1.19-1.093-.483-.843-.015-1.064.543-1.029.188-.603.535-3.631-.308-2.667.21-1.008 1.048-3.049.693-2.596.641-1.305.339-1.085.618-.447 1.438-.318.628.227.188.19.8 1.5.85.483 2.567.772 1.332.496.76.539.455-.002 1.051-.414.634.229 1.698 1.026 1.294.265 2.917.503.48.302.296.465.777 1.537.4.392 1.364.993.837.865.61.922.21.852.005 5.468.49.432 1.236.59 1.218.294.302-.023.884-.453 2.08-1.6.743-.318.8-.053.67.117 3.78 2.29.99.768.736.396.833.238 1.48.116 4.955-.175.826-.197 3.294-1.16 1.347-.238 2.229-.953.326.025 1.197.428.649.37 2.358 2.142 1.775 1.962.083.229.225 1.2.307.637.352.381.447.243 1.336.34.258.135" clip-path="url(#p3b3e824be2)" style="fill:none;stroke:#000"/><path d="m167.722 141.354-.075-.081-.021-.136.022-.245.074-.207.143-.166.117-.12 1.214-.822.1-.15.065-.194.094-.603.012-.38-.068-.312M167.722 141.354l.204-.007.218-.034 1.18-.396.708-.18.791-.114.642-.048M422.54 157.606l1.12.886M433.77 166.85l-10.11-8.358M423.66 158.492l3.588-4.02.191-.128.19-.054.182.038.138.065 5.404 4.486.222.287.092.227-.032.256-.071.177-.66 1.017-.142.353-.076.41.012.349.056.254.9 3.44.147.876-.03.326M433.327 170.287l-.773-1.053-.083-.286-.004-.275.085-.287.153-.252.942-1.063.123-.22M433.327 170.287l.18-.125M234.255 249.219l-.428-1.154-.116-.199-.136-.198-.092-.111-.045-.073-.04-.1-.007-.083-.016-.09-.697-2.06M308.267 219.272l.092 2.128-.07.391-.101.348-.56 1.14-.211.557-.15.557-.066.355-.025.375-.002 1.154-.036.238-.05.243-.19.649M250.828 255.15l3.608-3.77M196.028 167.081l1.119-.113.197-.099.161-.132.157-.243.043-.331-.211-.897-.66-1.947-.033-.268.026-.29.164-.284.16-.222 2.532-3.27 1-.947.956-.801.262-.273.428-.543 1.33-2 .545-.55.608-.379.632-.29.582-.15 1.538.05 1.198.142" clip-path="url(#p3b3e824be2)" style="fill:none;stroke:#000"/><path d="m196.028 167.081.799.287 1.564.433 1.387.284 1.522.195 1.304-.029 1.342-.106 1.014-.216.49-.082.418-.05 1.425-.05 2.97-.282.845-.204.462-.323.426-.438.58-.844.155-.4.146-.558.121-1.333.332-4.39M194.973 168.031l.546-.776.154-.128.163-.04.192-.006M133.876 166.922l.786-.215.314-.059.264-.028 1.662.008.348-.01.215-.073.09-.093.07-.097.394-.814.157-.284.218-.342 1.338-1.727.51-.5.633-.465M167.722 141.354l-.142.46-.156.345-.222.354-.26.316-.517.464-.629.589-.31.465-.263.769-.211 1.607-.075.407-.094.433-.558 1.362-1.718 3.957-.336.635-.122.093-.138.063-.25.038-.342-.018-.318-.063-.349-.074-.799-.368-.64-.252-1.003-.174-.942-.032-.886.17-1.579.755-1.002.603-1.35 1.057-1.367.979-1.357 1.078-1.225 1.014-1.341.887-1.64.762-2.826 1.21-1.44.656-.44.322M438.293 179.479l-4.787-9.317M532.272 474.99l1.547-.92.516.026 1.086.588.76.23.651-.333.489-.893.217-.74M534.308 469.296l1.683-.332 1.031.97.652 1.94-.136 1.073M421.889 331.064l-.617-.144-.239-.02M423.747 330.458l-.403.26-.426.189-.513.12-.516.037M382.005 387.524l-.286-1.813-.113-1.453-.219-1.765-.369-1.327-1.018-2.049-.9-1.577-.63-.897-.896-.95-.603-.411-.882-.376-.905-.291-1.289-.504-1.013-.553-.587-.457M382.005 387.524l-.596.008-.556.206M379.184 339.076l.59 2.269.332 2.645.203 2.701.166 2.482.027.77-.05.666-.723 1.94-1.371 3.155-.347.837-.234 1.311-.286 1.518-.28.638-.572.63-1.636 1.894-1.462 2.347-1.259 3.007-.46 1.503.053 1.1.25 2.233.17.379" clip-path="url(#p3b3e824be2)" style="fill:none;stroke:#000"/><path d="m372.295 373.1.334.742.822.595 2.012.76 1.417.652.746.63.882 1 .912 1.44 1.04 2.134.437 1.674.272 1.744v1.375l-.316 1.892M382.679 390.303l-1.242.259M394.557 394.59l2.565 3.047M397.122 397.637l.01-.37-.095-.273-.172-.29-.403-.534-.35-.473-.364-.415-.375-.282-.816-.41M422.214 388.206l1.733-1.502.301-.624 1.508-1.589 1.085-1.7 1.387-1.363 1.568-3.176 1.809-4.879 1.854-3.04M479.906 458.346l-1.417.567-.784-.099-3.03-.638-1.326-.284-.467.454-.538.836M398.043 437.52l-.078 1.09-.348.874-.008.993M475.877 258.693l-2.03-1.848M474.163 263.68l-.603-2.183.302-.766 2.015-2.038" clip-path="url(#p3b3e824be2)" style="fill:none;stroke:#000"/><path d="m475.972 262.802.181-.681 1.839-1.504-2.115-1.924M475.972 262.802l-1.809.879M490.187 262.121l-4.416-1.135-2.05-.085-2.02.085-5.729 1.816M474.163 263.68l.709 3.093M474.872 266.773l-1.432.198-1.055-.298-.784-.567-.679-2.44-.346-2.17.362-1.346.723-1.32 2.186-1.985" clip-path="url(#p3b3e824be2)" style="fill:none;stroke:#000"/><path d="m479.77 268.787-1.085-1.29-1.642-.908h-1.237l-.934.184M484.127 267.34l-2.819.397-1.537 1.05M490.233 259.37l-.046 2.751M491.122 269.454l-.663-3.844-.286-2.085.014-1.404M491.122 269.454l-2.804-1.277M484.127 267.34l2.88.142 1.311.695M481.836 172.006l-5.11 4.387M485.198 174.805l-1.086-.142-2.276-2.657M476.726 176.393l4.1 4.34-7.477 5.902-2.532 2.638M464.214 184.649l2.834-1.362 1.568-1.475 1.326.113 6.784-5.532M477.977 493.49l1.462 2.537M477.967 496.784l1.518 2.363M477.967 496.784l-1.618.832M476.35 497.616l-1.614-2.893 1.085-.652.467.539.498.07 1.181 2.104M477.967 496.784l1.472-.757M476.35 497.616l1.703 2.836 1.04-.596.392-.709M479.44 496.027l.829 1.433.12.524-.904 1.163M172.9 328.056l.912.125 1.507-.187.696-1.06.777-.714M238.24 372.004l-.658.8-1.055.568-1.749.284-1.87-.312-1.989-.993-1.085-.794-.452-1.333.452-1.645 1.236-1.73 2.17-1.56 1.9-.795 1.357-1.106.452-1.702-.452-1.049-.754-2.042-2.532-1.475-2.11-.17-1.9-.454-3.618-.454-2.08.085-3.528-.624-1.297-.908-1.326-1.502-1.477-.455-3.649-.396-3.436.113-2.292.567-3.497.057-1.688-.766-2.37-1.235M238.24 372.004l.367-.447.844-2.326M300.566 432.842l1.567.553 1.176.468 1.236.794" clip-path="url(#p3b3e824be2)" style="fill:none;stroke:#000"/><path d="m300.566 432.842 1.865.229 1.934.187 1.131.291 2.8.954 1.67.883 1.258 1.004.72.59.801.761 1.72 1.814.808.978 1.209 1.766 1.376 2.105 1.257 1.803 1.476 2.023M320.59 448.23l1.166 1.756.816 1.213 1.07 1.315" clip-path="url(#p3b3e824be2)" style="fill:none;stroke:#000"/><path d="m310.192 441.139 2.192.976 1.613.837 2.05 1.361 1.553 1.56 1.356 1.419 1.635.938M315.585 434.678l.201-.469.026-.504-.15-.485M313.232 435.095l.476.234.53.074.528-.094.466-.25.353-.381M313.854 432.398l-.5.192M315.662 433.22l-.312-.413-.44-.294-.518-.141-.538.026M310.192 441.139l.519-.1.524-.221.35-.382.293-.455.114-.439-.117-.593-.275-.456-.371-.378M308.498 438.955l-.078.473.08.56.259.44.388.394.493.209.552.108M311.229 438.115l-.352-.232-.693-.085-.528.106-.515.215-.375.388-.268.448M304.545 434.657l1.357 1.02 1.688 1.887.908 1.391M311.229 438.115l2.003-3.02" clip-path="url(#p3b3e824be2)" style="fill:none;stroke:#000"/><path d="m313.354 432.59-.392.322-.263.422-.107.479.06.485.221.443.36.354M313.354 432.59l-2.794.067-1.643-.014-.782-.05" clip-path="url(#p3b3e824be2)" style="fill:none;stroke:#000"/></g><path id="PatchCollection_1" d="m420.361 613.073-1.297 6.635h-.965l-.663-.51-.24-.539-1.146-.51-1.387-.397-.935-.227-1.236-.283-.633-.398-.663-.907-.241-1.021-.332-.85.482-.794.995-.454.995-.397 1.055-.057.392.794.452.794.392.17.633.057.814.425 1.99-.652z" clip-path="url(#p3b3e824be2)" style="fill:#00f;fill-opacity:.8"/><g id="PatchCollection_2"><path d="m420.697 431.006 1.96.241-.197.369-.331.156-.513.085-.527-.198-.302-.284zM421.077 430.492l1.564.305-.181-.326-.498-.256-.422-.07-.422.042z" clip-path="url(#p3b3e824be2)" style="fill:#32cd32;fill-opacity:.8"/></g><g id="PatchCollection_3"><path d="m568.27 489.746.279 2.315 5.403-.573-.278-2.317zM445.63 498.68l5.246-1.15-.81-3.273-5.246 1.148zM417.145 373.086l3.285 1.69 2.61-4.492-3.285-1.689zM393.325 362.382l-.87 5.224 3.29.485.869-5.226zM616.803 503.76l1.07-.504.923 1.706-1.07.473z" clip-path="url(#p3b3e824be2)" style="fill:#90ee90;fill-opacity:.8"/></g><g id="PatchCollection_4"><path d="m394.443 369.2.071-.376.895.152-.072.376zM392.193 368.818l.067-.348.884.15-.067.348zM391.529 368.27l.129-.7 4.268.629.906-5.453-2.696-.397.532-.562 1.87.256.399.312.263.305.24.56-.827 4.96-.294.252-.475.276-.377.145z" clip-path="url(#p3b3e824be2)" style="fill:#a9a9a9;fill-opacity:.8"/><path d="m391.686 367.415.157-.851.118.019-.157.851zM391.89 366.312l.762-4.149.366.06-.763 4.149zM537.39 477.982l.123-.53.185.013.023-.419.528.057.045-.198.67-.007-.022.857.426.079-.125.531zM435.678 430.61l-1.038-.24-.144.55-.881-.204.128-.492-1.125-.26.247-.946 1.042.241.31-1.183 1.57.363-.307 1.176.431.1zM397.303 365.594l-.393 2.353.393.058.393-2.353zM396.012 440.193l.566.682-.596.437-.18-.218-.282.207-.225-.272.098-.16.053-.26zM442.797 445.261l1.08-.343.218.606-.355.112.324.903-.706.225-.252.158-.233-.185-.294.09-.172-.498.667-.203-.096-.28-.579.175-.199-.578zM442.365 441.08l.749-.271.189.462-.75.27zM431.222 427.904l-.607-.022.016-.411-.366-.013.023-.577.384.013.028-.71.59.02zM442 441.616l-.246.04-.085-.468.246-.04zM402.098 426.922l-.387-.117.228-.667.387.117zM412.435 401.151l.111.169.545-.318-.11-.169zM419.222 340.14l.485.24.225-.404-.484-.24z" clip-path="url(#p3b3e824be2)" style="fill:#a9a9a9;fill-opacity:.8"/></g></g></g><defs><clipPath id="p3b3e824be2"><path d="M90 92.966h558v541.268H90z"/></clipPath></defs></svg>