<svg xmlns="http://www.w3.org/2000/svg" width="960" height="960" viewBox="0 0 720 720"><defs><style>*{stroke-linejoin:round;stroke-linecap:butt}</style></defs><g id="figure_1"><path id="patch_1" d="M0 720h720V0H0z" style="fill:#fff"/><g id="axes_1"><path id="patch_2" d="M90 634.86h558V92.34H90z" style="fill:#fff"/><g id="LineCollection_1"><path d="m373.536 356.974-4.954 1.109M373.536 356.974l.095.45M373.536 356.974l-1.372-5.2M373.536 356.974l4.9-1.044M311.7 370.685l-.032 8.345M311.7 370.685l4.106-.786M311.7 370.685l-4.04.806M297.891 373.492l-10.155 2.037M297.891 373.492l.36-.07M297.891 373.492l.163-11.549M363.534 359.203l-.69-2.979M363.534 359.203l-.358.076M363.534 359.203l5.048-1.12M363.534 359.203l.11.389M362.112 348.26l-.734.878M365.103 305.206l-.575 14.323-.333 7.482-.787 10.868-.54 5.27-.756 5.11M362.112 348.26l-.042.918M361.378 349.138l.692.04M361.378 349.138l-5.584 1.093M361.378 349.138l-.193.551-.028.265.01.288.033.33.088.586.68 2.802M363.176 359.28l.102.404M363.176 359.28l-4.905 1.1M363.176 359.28l-.672-2.987M367.602 195.238l-61.59 14.183M367.602 195.238l.803-25.84M365.103 305.206l.91-34.154.416-19.907.278-15.172.895-40.735M255.711 343.829l-.699.048-.566.026-.738.134-1.775.423-4.936 1.346-2.64.635-10.036 2.799-7.14 2.032-3.287.9-3.315 1.03-2.717.709-.414.072-.248.055-6.872 2.008-15.546 4.172-.847.015-.268-.141-.502-.848M255.711 343.829l-.064-.924M265.926 379.996l.231-16.642-.123-.483-.162-.241-.216-.205-.347-.163-.587-.104-8.513-.465-.193-.1-.17-.13-.096-.148-.05-.32.011-17.166M265.926 379.996l-.957.209M265.926 379.996l13.273-2.642M340.966 310.556l-4.928 1.107M340.966 310.556l3.77-.868M340.966 310.556l.777 3.232M349.697 325.343l.631 1.883M333.58 325.374l.092.435M333.58 325.374l-4.59.984-.335.253-.172.44-.052.214 1.081 4.72M333.58 325.374l4.86-1.13M324.59 333.132l.852 3.6M324.59 333.132l-3.588.8M324.59 333.132l4.922-1.146M321.002 333.932l.947 3.652M321.002 333.932l-5.505 1.267M352.438 335.825l3.657-.968M352.438 335.825l-5.264 1.123M352.438 335.825l1.14 4.874M352.438 335.825l-.93-3.854M347.174 336.948l1.148 4.833M347.174 336.948l-.875-3.854M347.174 336.948l-5.04 1.06M336.821 339.276l4.926-1.184M336.821 339.276l-4.915 1.108M336.821 339.276l1.118 4.722M336.821 339.276l-.89-3.862M427.629 339.403l-3.102.577M427.629 339.403l-.218-1.751M427.629 339.403l.09.886M331.542 340.46l2.327 9.625M331.542 340.46l.364-.076M331.542 340.46l-5.014 1.116M331.542 340.46l-1.137-4.816M353.578 340.7l2.988-.678M353.578 340.7l-5.256 1.08M353.578 340.7l1.117 4.738M326.528 341.576l1.152 4.791M326.528 341.576l-1.086-4.844M326.528 341.576l-3.47.756M348.322 341.78l1.186 4.86M348.322 341.78l-5.05 1.03M414.697 342.193l4.906-1.165M414.697 342.193l-5.14 1.167M414.697 342.193l-1.087-4.844M414.697 342.193l1.385 6.146M323.058 342.332l1.088 4.821M323.058 342.332l-.656-2.767M323.058 342.332l-4.91 1.104M337.939 343.998l4.897-1.097M337.939 343.998l-4.9 1.083M337.939 343.998l.99 5.007M315.163 344.036l2.986-.6M315.163 344.036l-.286 5.148M315.163 344.036l.071-1.582M354.695 345.438l1.1 4.793M354.695 345.438l2.418-.77M354.695 345.438l-5.187 1.201M349.508 346.64l1.094 4.739M349.508 346.64l-5.008 1.065M389.67 347.844l5.033-1.09M389.67 347.844l-5.405 1.237M389.67 347.844l1.402 5.343M389.67 347.844l-1.053-4.805M338.928 349.005l1.214 4.775M338.928 349.005l5.1-1.192M338.928 349.005l-4.663.99M333.869 350.085l1.03 4.842M333.869 350.085l.396-.09M333.869 350.085l-5.085 1.171M355.794 350.231l1.279 4.834M355.794 350.231l-5.192 1.148M328.784 351.256l.946 4.83M328.784 351.256l-1.104-4.889M328.784 351.256l-3.523.749M350.602 351.379l1.122 4.929M350.602 351.379l-5.02 1.164M325.261 352.005l1.052 4.844M325.261 352.005l-1.115-4.852M325.261 352.005l-4.93 1.086M340.142 353.78l4.998-1.13M340.142 353.78l-4.84 1.056M340.142 353.78l1.189 4.792M362.315 353.872l4.716-1.165M362.315 353.872l-.346.088M362.315 353.872l-.354-2.03-.048-.603.157-2.061M362.315 353.872l.528 2.352M388.904 353.63l-3.428.731M388.904 353.63l.065.383M388.904 353.63l.421-.079M361.969 353.96l-4.896 1.105M361.969 353.96l.535 2.333M314.678 354.329l-5.337 1.17M314.678 354.329l-.102 5.095M314.678 354.329l.199-5.145M314.678 354.329l.763-.153M334.898 354.927l1.049 4.815M334.898 354.927l.405-.091M334.898 354.927l-5.168 1.158M357.073 355.065l-5.349 1.243M357.073 355.065l1.198 5.316M329.73 356.085l1.274 4.818M329.73 356.085l-3.417.764M378.437 355.93l.11.405M378.437 355.93l-1.426-5.196M378.437 355.93l7.039-1.569M351.724 356.308l1.2 5.276M351.724 356.308l-4.979 1.091M326.313 356.849l1.17 4.854M326.313 356.849l-4.907 1.054M400.094 356.97l4.896-1.226M400.094 356.97l-4.853.815M400.094 356.97l.596 3.462M400.094 356.97l-.736-4.97M341.33 358.572l4.985-1.085M341.33 358.572l-4.893 1.06M341.33 358.572l1.305 5.297M389.736 358.972l.335-.076M389.736 358.972l-4.552.96M389.736 358.972l.522 3.315M389.736 358.972l-.767-4.96M316.506 358.999l.968 4.905M316.506 358.999l-1.065-4.823M316.506 358.999l4.9-1.096M316.506 358.999l-1.93.425M335.947 359.742l1.315 5.263M335.947 359.742l.49-.11M335.947 359.742l-4.943 1.16M358.271 360.38l.09.39M358.271 360.38l-5.347 1.204M331.004 360.903l1.3 5.236M331.004 360.903l-3.522.8M379.573 361.058l5.61-1.126M379.573 361.058l-4.87 1.146M379.573 361.058l1.072 4.83M379.573 361.058l-1.026-4.723M327.482 361.703l1.315 5.218M327.482 361.703l-5.076 1.146M352.924 361.584l.091.384M352.924 361.584l-4.89 1.02-.134.032M374.703 362.204l-4.923 1.069M374.703 362.204l1.111 4.802M374.703 362.204l-1.072-4.78M390.474 363.703l.064.383M390.474 363.703l-9.829 2.186M390.474 363.703l.337-.066M390.474 363.703l-.216-1.416M317.474 363.904l4.932-1.055M317.474 363.904l-3.173.707M317.474 363.904l1.152 5.427M342.635 363.87l.11.437M342.635 363.87l-4.956 1.046M342.635 363.87l4.841-1.132M364.799 364.386l4.98-1.113M364.799 364.386l-.313.069M364.799 364.386l-1.155-4.794M364.799 364.386l1.165 4.854M337.262 365.005l.1.43M337.262 365.005l-4.959 1.134M337.262 365.005l.417-.089M380.645 365.889l.095.41M380.645 365.889l-4.83 1.117M332.303 366.14l.103.43M332.303 366.14l-3.506.781M354.165 366.705l5.268-1.118M354.165 366.705l-4.955 1.072M354.165 366.705l1.086 4.843M354.165 366.705l-1.15-4.737M375.814 367.006l.081.398M375.814 367.006l-4.949 1.139M328.797 366.921l.105.448M328.797 366.921l-5.157 1.03M343.77 369.069l4.993-1.19M343.77 369.069l-4.858 1.129M343.77 369.069l1.19 4.816M343.77 369.069l-1.025-4.762M391.211 368.983l-9.323 2.139M391.211 368.983l.38-.177M391.211 368.983l.747 4.971M391.211 368.983l-.673-4.897M365.964 369.24l-.355.07M365.964 369.24l4.901-1.095M365.964 369.24l.094.387M315.806 369.899l-.107 9.205M315.806 369.899l2.82-.568M338.522 370.296l.39-.098M338.522 370.296l-5.026 1.091M338.522 370.296l1.127 4.718M338.522 370.296l-1.16-4.86M381.888 371.122l-4.851 1.018M381.888 371.122l1.345 4.784M381.888 371.122l-1.148-4.824M333.496 371.387l-3.55.76M333.496 371.387l1.073 4.783M333.496 371.387l-1.09-4.816M355.25 371.548l.097.446M355.25 371.548l-4.867 1.134M355.25 371.548l.458.137M377.037 372.14l-4.963 1.134M377.037 372.14l1.183 4.86M377.037 372.14l-1.142-4.736M329.947 372.147l-4.838 1.173M329.947 372.147l1.242 5.01M329.947 372.147l-1.045-4.778M372.074 373.274l-4.91 1.085M372.074 373.274l1.15 4.831M372.074 373.274l-1.12-4.728M325.109 373.32l1.153 4.992M325.109 373.32l-1.346-4.878M391.958 373.954l.506-.108M391.958 373.954l-3.656.824M391.958 373.954l1.094 6.757M344.96 373.885l.096.407M344.96 373.885l-4.898 1.038M344.96 373.885l4.947-1.087M367.164 374.36l-.378.082M367.164 374.36l-1.106-4.733M367.164 374.36l1.18 4.79M339.649 375.014l.11.5M339.649 375.014l-5.08 1.156M339.649 375.014l.413-.091M383.233 375.906l5.069-1.128M383.233 375.906l-5.013 1.095M383.233 375.906l1.153 4.592M334.57 376.17l.114.457M334.57 376.17l-1.379.526M356.488 376.751l1.224 4.803M356.488 376.751l-1.14-4.757M356.488 376.751l-4.884 1.094M356.488 376.751l5.401-1.153M378.22 377l-4.997 1.105M378.22 377l1.101 4.663M331.189 377.157l1.205 5.025M331.189 377.157l2.002-.46M331.189 377.157l-4.927 1.155M326.262 378.312l-2.822.562M326.262 378.312l1.134 4.931M323.44 378.874l-3.882.104M323.44 378.874l.055 5.14M323.44 378.874l-.162-2.327M319.558 378.978l-3.859.126M319.558 378.978l.11 5.171M307.767 378.979l3.9.051M307.767 378.979l-.17 4.978M307.767 378.979l-.107-7.488M368.344 379.15l4.88-1.045M368.344 379.15l-.41.095M368.344 379.15l1.104 4.707M315.7 379.104l-.068 5.013M315.7 379.104l-4.032-.074M340.816 380.273l1.091 4.846M340.816 380.273l-4.942 1.117M340.816 380.273l.506-.118M340.816 380.273l-1.058-4.759M335.874 381.39l1.188 4.827M335.874 381.39l-1.19-4.763M335.874 381.39l-3.48.792M357.712 381.554l1.534 6.652M357.712 381.554l5.309-1.143M357.712 381.554l-5.05 1.14M332.394 382.182l1.077 4.799M332.394 382.182l-4.998 1.061M352.263 382.787l.399-.093M352.263 382.787l-4.897 1.104M352.263 382.787l1.577 6.608M352.263 382.787l-1.146-4.832M327.396 383.243l-3.9.77M327.396 383.243l1.142 4.819M323.495 384.013l-3.827.136M323.495 384.013l.018 5.063M319.668 384.15l-4.036-.033M319.668 384.15l-.118 4.823M315.632 384.117l-.14 4.838M315.632 384.117l-4.033-.052M307.597 383.957l4.002.108M307.597 383.957l-.124 5.005M341.907 385.12l.314-.061M341.907 385.12l-4.845 1.097M369.883 385.792l-.435-1.935M369.883 385.792l-.425.1M369.883 385.792l1.11 4.973M337.062 386.217l1.512 6.592M337.062 386.217l-3.59.764M333.471 386.98l1.578 6.626M333.471 386.98l-4.933 1.082M359.246 388.206l1.116 4.917M359.246 388.206l-4.986 1.085M359.246 388.206l5.25-1.198M315.492 388.955l-.112 7.016M315.492 388.955l4.058.018M315.492 388.955l-4 .002M319.55 388.973l3.963.103M319.55 388.973l-.146 7.066M323.513 389.076l5.025-1.014M323.513 389.076l.046.998M304.366 388.941l3.107.021M304.366 388.941l-2.884-.07M304.366 388.941l-.068 7.058M304.366 388.941l.044-1.683M353.84 389.395l-7.127 1.665M353.84 389.395l1.203 4.946M353.84 389.395l.42-.104M394.494 390.496l.228 1.469M394.494 390.496l.473-.104M394.494 390.496l-.256-1.758M370.993 390.765l-.457.086M371.572 393.859l.024-.721-.603-2.373M338.574 392.81l-3.525.796M338.574 392.81l5.295-1.159M338.574 392.81l1.23 4.821M335.049 393.606l-4.994 1.073M335.049 393.606l1.147 4.817M355.043 394.341l1.112 4.809M355.043 394.341l.402-.089M355.043 394.341l-7.213 1.55M371.995 395.54l-10.513 2.397M371.995 395.54l2.207 9.735M371.995 395.54l-.423-1.681M325.046 395.755l-1.637.335M325.046 395.755l5.009-1.076M325.046 395.755l1.193 4.924M325.046 395.755l-1.487-5.68M315.38 395.97l-.11 5.054M315.38 395.97l4.024.069M315.38 395.97l-4.055.054M319.404 396.039l4.005.051M319.404 396.039l-.094 4.982M323.409 396.09l-.163 5.048M323.409 396.09l.15-6.016M336.196 398.423l1.004 4.822M336.196 398.423l3.608-.792M336.196 398.423l-4.88 1.206M356.155 399.15l.413-.097M356.155 399.15l-7.145 1.515M356.155 399.15l1.152 4.749M396.053 400.183l-11.245 2.545M396.053 400.183l.206-.041M396.053 400.183l-.778-4.683M326.24 400.679l1.125 4.89M326.24 400.679l5.076-1.05M326.24 400.679l-2.994.459M301.074 400.947l3.109.08M319.31 401.021l-.023 5.399M319.31 401.021l3.936.117M319.31 401.021l-4.04.003M315.27 401.024l-.1 5.38M315.27 401.024l-4.055.003M323.246 401.138l.028 5.295M361.91 402.945l2.005-.258M361.91 402.945l-4.202.872M361.91 402.945l-.22 5.063M361.91 402.945l-.428-5.008M337.2 403.245l3.686-.863M337.2 403.245l-4.792 1.153M337.2 403.245l1.177 4.89M357.307 403.899l.401-.082M357.307 403.899l-7.093 1.6M357.307 403.899l1.188 4.787M374.202 405.275l-10.302 2.297M374.202 405.275l1.116 4.344M384.808 402.728l-4.916 1.188-5.69 1.359M327.365 405.57l5.043-1.172M327.365 405.57l-4.09.863M327.365 405.57l1.243 4.864M350.214 405.5l-2.988.649M350.214 405.5l1.136 4.752M350.214 405.5l-1.204-4.835M307.143 406.228l4.06.088M307.143 406.228l-3.074-.01M307.143 406.228l-.027 4.932M307.143 406.228l-.1-5.274M311.202 406.316l3.968.087M311.202 406.316l-.05 4.963M311.202 406.316l.013-5.289M301.201 406.268l2.033-.038M319.287 406.42l3.987.013M319.287 406.42l-4.117-.017M319.287 406.42l-.108 4.97M315.17 406.403l-.03 4.937M323.274 406.433l-.21 5.062M338.377 408.136l3.615-.779M338.377 408.136l-4.837 1.142M338.377 408.136l1.172 4.832M328.608 410.434l4.932-1.156M328.608 410.434l-5.544 1.06M328.608 410.434l1.136 4.819M278.76 410.477l14.216.507M278.76 410.477l-.074 10.472M278.76 410.477l.366-15.393M292.976 410.984l3.338.077M292.976 410.984l.011 5.118M307.116 411.16l4.035.119M307.116 411.16l-3.977-.017M307.116 411.16l-.138 5.098M315.14 411.34l-.043 5.03M315.14 411.34l4.04.05M315.14 411.34l-3.989-.061M323.064 411.495l-3.885-.105M322.861 416.475l.05-1.823.153-3.157M319.18 411.39l-.114 5.015M329.744 415.253l1.096 4.71M329.744 415.253l-6.883 1.222M329.744 415.253l4.964-1.205M315.097 416.37l-.14 5.043M315.097 416.37l-4.009-.04M315.097 416.37l3.97.035M314.984 426.48l-.027-5.067M314.984 426.48l-4.031-.147M314.984 426.48l3.909.1M318.893 426.58l.099-5.077M318.893 426.58l3.914.172M333.058 429.515l.993 4.074M333.058 429.515l-1.056-4.71M333.058 429.515l-4.937 1.052M333.058 429.515l4.858-1.072M322.346 447.784l-43.81-5.834M322.346 447.784l2.608.393M322.643 431.727l-.43 13.436.008 1.115.125 1.506M320.353 463.223l1.343-1.91.34-.565.115-.52.008-.9.108-1.523.154-1.835.386-2.527.177-1.799.013-.617-.132-.955-.154-.784-.365-1.504M347.476 362.738l.102.418M347.476 362.738l-1.161-5.25M347.476 362.738l.424-.102M346.315 357.487l.43-.088M346.315 357.487l-1.175-4.837M345.14 352.65l.441-.107M345.14 352.65l-1.112-4.837M344.028 347.813l.472-.108M344.028 347.813l-1.192-4.912M342.836 342.901l.436-.09M342.836 342.901l-1.089-4.809M341.747 338.092l.388-.085M341.747 338.092l-.898-3.754M338.44 324.244l.097.437M338.44 324.244l-.657-2.783M338.44 324.244l.432-.086M335.552 311.759l.732 3.212M335.552 311.759l-19.5 4.062M335.552 311.759l.486-.096M365.103 305.206l-7.046 1.353M365.103 305.206l17.868-4.094M392.284 299.227l-.926.205M392.284 299.227l2.003-.42M392.284 299.227l-.903-3.832M336.284 314.971l.332 1.536M336.284 314.971l.477-.104M341.743 313.788l3.75-.817M341.743 313.788l-4.982 1.08M341.743 313.788l.74 3.265M345.494 312.971l.655 3.2M345.494 312.971l-.758-3.283M337.018 318.285l.765 3.176M337.018 318.285l.5-.125M337.018 318.285l-.402-1.778M342.482 317.053l3.667-.882M342.482 317.053l-4.963 1.107M342.482 317.053l.656 3.224M346.149 316.171l.254 1.758M337.783 321.461l.468-.106M343.138 320.277l2.361-.57M343.138 320.277l-4.887 1.078M343.918 323.498l-.507-2.125-.273-1.096M343.918 323.498l1.295 4.86M343.918 323.498l-4.392.837M343.918 323.498l1.703-.527M345.213 328.357l1.086 4.737M345.213 328.357l-5.153 1.14M345.213 328.357l5.115-1.131M339.692 329.572l1.157 4.766M339.692 329.572l-4.91 1.17M339.692 329.572l.368-.075M339.692 329.572l-1.155-4.89M334.781 330.742l.884 3.643M334.781 330.742l-1.109-4.933M334.781 330.742l-4.79 1.132M353.903 331.379l-2.395.592M351.508 331.97l-1.18-4.744M351.508 331.97l-5.21 1.124M346.299 333.094l-5.055 1.157M340.849 334.338l-4.919 1.076M340.849 334.338l.395-.087M335.93 335.414l-.265-1.03M316.051 315.82l.007 1.27M317.437 288.385l-.651 4.786-.245 8.102-.468 8.788-.022 5.76M335.665 334.385l-4.835 1.164M330.405 335.644l-4.963 1.088M330.405 335.644l.425-.095M330.405 335.644l-.893-3.658M325.442 336.732l-3.493.852M321.95 337.584l.452 1.981M315.292 341.144l-.058 1.31M315.292 341.144l.205-5.945M315.292 341.144l2.224-.49M322.402 339.565l-4.886 1.088M317.516 340.653l.633 2.783M318.149 343.436l1.088 4.752M320.33 353.091l1.076 4.812M320.33 353.091l-1.093-4.903M320.33 353.091l-4.89 1.085M327.68 346.367l-3.534.786M324.146 347.153l-4.91 1.035M319.237 348.188l-4.36.996M314.877 349.184l-5.323 1.14M321.406 357.903l1 4.946M322.406 362.849l1.234 5.102M318.626 369.331l1.737-.38M323.64 367.95l.123.492M323.64 367.95l-3.277 1.002M298.488 336.764l-.074 5.001M298.488 336.764l-4.663-.093M298.488 336.764l.3.006M298.096 356.91l.356.003M298.096 356.91l-4.856-.186M298.096 356.91l-.042 5.033M298.096 356.91l.123-5.072M298.054 361.943l.397-.002M298.054 361.943l-4.529.02M303.033 363.995l.164-2.115M303.197 361.88l.134-4.941M303.197 361.88l5.973-1.103M303.197 361.88l-4.746.061M303.33 356.939l6.01-1.44M303.33 356.939l-4.878-.026M303.33 356.939l-.006-4.997M303.738 337.013l.145-5.155M303.738 337.013l-.169 4.935M303.738 337.013l-4.95-.243M303.738 337.013l6.16.1M309.17 360.777l.17-5.277M309.17 360.777l.527 3.048M309.17 360.777l5.406-1.353M309.34 355.5l.214-5.175M309.554 350.325l-6.218-.104M309.554 350.325l.058-3.205M303.324 351.942l.012-1.721M303.324 351.942l-4.766-.096M298.22 351.838l-4.874-.116M298.22 351.838l.338.008M298.22 351.838l.09-5.036M298.31 346.802l.294.007M298.31 346.802l-4.905-.161M298.31 346.802l.104-5.037M303.444 346.972l.125-5.024M303.444 346.972l-.108 3.249M303.444 346.972l6.168.148M303.444 346.972l-4.84-.163M309.612 347.12l.13-4.939M315.234 342.454l-5.493-.273M309.741 342.181l.157-5.069M309.741 342.181l-6.172-.233M303.569 341.948l-4.839-.172M298.414 341.765l-4.825-.103M298.414 341.765l.316.011M310.15 330.962l.107-3.334M310.15 330.962l-.054 1.011M310.15 330.962l5.566.086M315.716 331.048l-.219 4.15M315.716 331.048l.098-3.304M309.898 337.112l.198-5.139M284.325 336.496l3.717.007M284.325 336.496l.018 2.544M255.647 342.905l7.315-1.459 2.01-.263 2.606-.086.78.015.433-.02.243-.1.27-.243.28-.373.243-.286.502-.338.474-.212 3.312-1.36 10.176-2.085.034.401M303.883 331.858l.115-4.957M303.883 331.858l6.213.115M310.257 327.628v-.607M310.257 327.628l5.557.116M315.814 327.744l.244-10.655M303.998 326.9l.152-4.99M303.998 326.9l6.258.12M310.256 327.02l.111-4.903M284.35 341.573l3.68.029M284.35 341.573l-.036 2.479M284.35 341.573l-.007-2.533M284.316 346.607l3.685.004M284.316 346.607l-.053 2.514M284.316 346.607l-.002-2.555M293.825 336.671l-5.783-.168M293.825 336.671l-.11 2.425M293.59 341.662l-5.56-.06M293.59 341.662l-.104 2.483M293.59 341.662l.125-2.566M293.405 346.64l-5.404-.029M293.405 346.64l-.037 2.546M293.405 346.64l.08-2.495M293.24 356.724l-5.385-.044M293.24 356.724l-.118 4.32M293.24 356.724l.049-2.53M288.042 336.503l-.006 2.587M288.03 341.602l-.008 2.496M288.03 341.602l.006-2.512M288 346.611l-.026 2.477M288 346.611l.022-2.513M287.855 356.68l-3.734-.008M284.12 356.672l-.017 2.448 3.687.086.065-2.526M287.855 356.68l.063-2.555M284.343 339.04l3.693.05M288.036 339.09l5.679.006M284.314 344.052l3.708.046M288.022 344.098l5.464.047M293.346 351.722l-5.373-.078M293.346 351.722l-.057 2.472M293.346 351.722l.022-2.536M287.973 351.644l-3.754.025M287.973 351.644l-.055 2.481M287.973 351.644v-2.556M284.22 351.67l-.054 2.473M284.22 351.67l.043-2.549M293.368 349.186l-5.394-.098M287.974 349.088l-3.711.033M284.12 356.672l.046-2.53M284.166 354.143l3.752-.018M287.918 354.125l5.371.069M283.86 376.363l-4.66.991M283.86 376.363l3.876-.834M283.86 376.363l.086-4.394M283.94 365.479l-.009 1.102M283.963 369.01l-.032-2.429M283.963 369.01l-.017 2.959M287.588 371.985l-.069-2.985-3.556.01M283.946 371.969l3.642.016M287.588 371.985l.148 3.544M367.031 352.707l5.133-.933M367.031 352.707l1.55 5.376M368.582 358.083l.108.447M372.164 351.774l4.847-1.04M372.164 351.774l-.51-2.036M384.265 349.08l-6.71 1.527-.544.127M377.041 348.6l6.276-2.931M393.612 341.91l4.924-1.096M393.612 341.91l-4.995 1.129M393.612 341.91l1.091 4.844M393.612 341.91l-.848-2.828M385.476 354.361l-1.211-5.28M385.476 354.361l.11.396M384.265 349.08l-.948-3.411M383.317 345.669l-.912-2.086M383.317 345.669l5.3-2.63M386.249 338.908l2.368 4.13M391.072 353.187l-1.747.364M391.072 353.187l.091.368M391.072 353.187l4.876-.94M392.764 339.082l4.63-2.27M392.764 339.082l-3.655 1.733M394.703 346.754l5.042-1.212M394.703 346.754l1.245 5.494M395.948 352.248l.098.4M395.948 352.248l5.107-1.01M397.19 336.076l.203.736M398.536 340.814l5.065-1.189M398.536 340.814l1.209 4.728M398.536 340.814l-1.143-4.002M399.745 345.542l5.014-1.113M399.745 345.542l1.31 5.695M401.055 351.237l.08.405M401.055 351.237l4.962-.927M406.017 350.31l-1.258-5.88M406.017 350.31l.093.399M406.017 350.31l5.043-1.01M404.76 344.43l4.797-1.07M404.76 344.43l-1.16-4.805M403.6 339.625l4.968-1.177M403.6 339.625l-1.084-4.895M394.287 298.808l1.258-.283M394.287 298.808l.91 4.102M388.421 300.049l-5.45 1.063M388.421 300.049l2.937-.617M388.421 300.049l1.162 3.768M391.991 314.922l-.316-1.502M397.065 298.164l-1.52.361M397.065 298.164l1.73-.416M397.065 298.164l.861 4.152M400.056 311.719l.401 2.126M400.056 311.719 399 307.006M400.056 311.719l2.402-.454M400.056 311.719l-2.81.683M389.583 303.817l1.08 5.002M389.583 303.817l2.624-.535M395.198 302.91l.984 4.646M395.198 302.91l-2.991.372M395.198 302.91l2.728-.594M397.926 302.316l1.073 4.69M391.358 299.432l.849 3.85M392.207 303.282l1.188 4.92M398.022 329.112l-.736-2.962M398.022 329.112l-7.112 1.3M398.022 329.112l3.152-.426M393.395 308.202l1.081 4.832M393.395 308.202l2.787-.646M393.395 308.202l-2.731.617M396.182 307.556l2.817-.55M397.247 312.402l-.155-.69-.91-4.156M398.999 307.006l2.455-.466M394.476 313.034l1.822 8.403M394.476 313.034l2.77-.632M394.476 313.034l-2.801.386M397.247 312.402l1.914 8.433M407.424 310.325l-1.138-4.703M407.424 310.325l1.06 4.84M407.424 310.325l4.956-1M407.424 310.325l-4.966.94M401.174 328.686l-.878-2.719M401.174 328.686l1.342 6.044M399.16 320.835l1.02 4.739M399.16 320.835l-2.862.602M396.298 321.437l.988 4.713M399.82 335.379l2.696-.65M402.516 334.73l5.056-1.087M411.06 349.3l-1.503-5.94M411.06 349.3l.109.416M411.06 349.3l5.022-.96M409.557 343.36l-.989-4.912M408.568 338.448l5.042-1.099M408.568 338.448l-.996-4.805M426.72 329.38l-4.266.966M426.72 329.38l-.395-5.73M426.72 329.38l.478 5.087M407.572 333.643l4.96-1.082M416.082 348.34l.096.41M416.082 348.34l3.992-.673M413.61 337.35l4.965-1.107M413.61 337.35l-1.078-4.789M412.532 332.561l4.987-1.179M412.532 332.561l-1.277-5.687M410.39 323.51l-1.127-4.793M410.39 323.51l.865 3.364M410.39 323.51l4.954-1.024M410.39 323.51l-10.094 2.457M419.603 341.028l4.924-1.048M419.603 341.028l1.474 6.437M419.603 341.028l-1.028-4.785M418.575 336.243l4.895-1.09M418.575 336.243l-1.056-4.86M417.519 331.382l4.935-1.036M417.519 331.382l-1.386-5.515M425.579 346.558l-3.87.777M421.709 347.335l.356-1.297 2.072-.433 1.442.953M425.579 346.558l.575-.13M425.579 346.558l2.108 5.516M424.527 339.98l-1.057-4.827M424.527 339.98l1.627 6.447M423.47 335.153l3.728-.686M423.47 335.153l-1.016-4.807M422.454 330.346l-1.266-5.57M428.04 345.966l-.32-5.677M428.04 345.966l2.84-.577M426.154 346.427l.317-.084 1.57-.377M427.72 340.289l2.94-.328M427.198 334.467l.213 3.185M439.682 338.018l-4.098.895M436.304 344.307l-.72-5.394M436.304 344.307l-5.424 1.082M436.304 344.307l49.116-10.444M435.584 338.913l-4.924 1.048M435.584 338.913l-.48-4.634M430.88 345.39l-.22-5.429M400.296 325.967l-.116-.393M426.242 320.27l.45-.338M426.242 320.27l.083 3.38M426.242 320.27l-5.881 1.164M415.344 322.486l.789 3.38M415.344 322.486l-1.102-4.885M415.344 322.486l5.017-1.052M420.36 321.434l-1.078-4.864M420.36 321.434l.828 3.342M411.255 326.874l4.878-1.007M416.133 325.867l5.055-1.091M421.188 324.776l5.137-1.126M403.892 296.715l-1.767.318M403.892 296.715l2.394 8.907M485.42 333.863l-47.914-38.553-1.625-.98-1.569-1.064-1.423-.524-2.138-.498-1.822-.2h-2.2l-1.86.155-15.265 3.249-5.712 1.267M406.286 305.622l-4.832.918M412.38 309.324l-1.232-4.76-4.862 1.058M412.38 309.324l1.147 4.759M407.126 315.68l1.358-.515M408.484 315.165l.779 3.552M408.484 315.165l5.043-1.082M423.2 311.974l-4.672 1.034M423.2 311.974l.17-1.877M423.2 311.974l.77 3.528M406.795 319.294l2.468-.577M409.263 318.717l4.98-1.116M423.97 315.502l-4.688 1.068M425.816 315.575l-1.324.333-.521-.406M414.242 317.6l-.715-3.517M414.242 317.6l5.04-1.03M413.527 314.083l5.001-1.075M419.282 316.57l-.754-3.562M418.528 313.008l-.643-2.27" clip-path="url(#pcfa6e1d2ec)" style="fill:none;stroke:#000"/><path d="m520.67 326.055-26.556 6.002-8.694 1.806M369.78 363.273l1.085 4.872M369.78 363.273l-1.09-4.743M370.865 368.145l.09.401M373.223 378.105l1.116 4.65M374.694 384.26l-.355-1.504M385.757 386.403l-1.371-5.905M385.757 386.403l1.13.409M385.757 386.403l-3.158.647M369.448 383.857l4.891-1.101M374.34 382.756l4.981-1.093M384.386 380.498l-5.065 1.165M382.6 387.05l-.366-1.955-.08-.183-.095-.144-.184-.158-.167-.066-.307.034-.875.149-.392-.189-.25-.265-.563-2.61M384.808 402.728l-2.209-15.678M388.17 425.84l-.13-1.45-.458-4.519-.025-.107-.034-.071-.03-.038-.107-.106-.145-.13-.068-.097-.052-.125-.03-.31-.487-4.553-.51-3.077-1.286-8.53M395.241 357.785l-5.17 1.11M395.241 357.785l-.924-4.791M402.26 371.636l3.521-.581M402.26 371.636l-4.933 1.129M402.26 371.636l.743 4.797M402.26 371.636l-.659-5.004M404.99 355.744l.51 3.92M406.11 350.709l-.175.481-.486.654-.455.515-.386 1.097.382 2.288M405.97 395.595l.073.447M405.97 395.595l-.325-2.25M405.97 395.595l-4.995 1.017M397.327 372.765l.946 6.726M397.327 372.765l-.864-4.916M392.464 373.846l4.153-.917.71-.164M388.302 374.778l1.08 6.7M391.535 396.3l-.572-3.712M391.535 396.3l3.74-.8M391.535 396.3l-3.678.798M389.381 381.478l.659 4.718M389.381 381.478l3.67-.767M393.052 380.711l.708 4.85M393.052 380.711l.486-.107M398.273 379.49l5.007-1.093M398.273 379.49l-4.735 1.114M398.273 379.49l.715 5.004M403.28 378.397l.508 2.878M403.28 378.397l-.277-1.964M390.04 386.196l.473 3.212M390.04 386.196l3.72-.635M390.04 386.196l-3.153.616M393.76 385.561l.478 3.177M393.76 385.561l.493-.081M398.988 384.494l.735 4.84M398.988 384.494l5.097-1.171M398.988 384.494l-4.735.986M404.085 383.323l.449 3.058M404.085 383.323l-.297-2.048M406.043 396.042l.312 2.084M406.043 396.042l3.624-.548M394.238 388.738l-3.725.67M390.513 389.408l.45 3.18M390.513 389.408l-3.112.528M387.4 389.936l-1.03.226M387.4 389.936l.183 1.235M387.4 389.936l-.513-3.124M395.275 395.5l.419-.097M395.275 395.5l-.553-3.535M400.595 394.319l5.05-.974M400.595 394.319l-4.901 1.084M400.595 394.319l.38 2.293M400.595 394.319l-.872-4.986M405.645 393.345l-.362-2.32M399.723 389.333l5.081-1.168M399.723 389.333l-4.756 1.059M404.804 388.165l.48 2.86M404.804 388.165l-.27-1.784M406.355 398.126l.36 2.489M406.355 398.126l-5.005 1.026M401.35 399.152l-4.896.95M401.35 399.152l.377 2.483M401.35 399.152l-.375-2.54M408.48 412.18l-.22-1.51M408.48 412.18l2.032 15.468M403.172 410.969l.332 2.146 4.976-.935M406.716 400.615l.044.261M406.716 400.615l-4.989 1.02M401.727 401.635l-5.07 1.098M401.727 401.635l.38 2.343M396.656 402.733l.242 2.184M396.656 402.733l-.397-2.591M407.085 402.97l.438 2.87M407.085 402.97l-.325-2.094M407.085 402.97l-4.977 1.008M396.898 404.917l5.21-.939M402.908 446.064l-.651-4.409-.558-3.823-1.723-10.775-1.092-7.342-.86-6.076-1.126-8.722M407.795 407.548l.347 2.329M407.795 407.548l-.272-1.707M407.795 407.548l-4.992 1.071M402.803 408.62l.37 2.349M402.803 408.62l-.695-4.642M403.172 410.969l4.97-1.092M408.142 409.877l.118.793M400.69 360.432l.911 6.2M400.69 360.432l4.81-.767M405.5 359.665l1.163 6.455M417.243 411.951l-.37-2.543M403.003 376.433l3.685-.51M411.484 375.094l-4.796.829M411.484 375.094l.955 5.184M407.54 370.759l3.064-.427.88 4.762M403.788 381.275l3.61-.446M412.44 380.278l-5.042.55M412.44 380.278l.613 4.82M404.534 386.381l3.572-.607M413.053 385.098l-4.947.676M413.053 385.098l.706 4.78M405.781 371.055l1.76-.296M405.781 371.055l.907 4.868M406.688 375.923l.71 4.906M407.398 380.829l.708 4.945M408.106 385.774l.778 4.809M411.938 410.087l.3 2.167M411.938 410.087l-.789-4.805M411.938 410.087l-3.678.583M411.938 410.087l4.935-.679M405.283 391.025l3.6-.442M408.884 390.583l.783 4.91M408.884 390.583l4.875-.704M413.76 389.879l1.739-.234M413.76 389.879l.896 4.963M409.667 395.494l.685 4.85M409.667 395.494l4.989-.652M414.656 394.842l.75 4.898M406.76 400.876l3.592-.531M410.352 400.345l.797 4.937M410.352 400.345l5.054-.605M415.406 399.74l1.308-.174M415.406 399.74l.735 4.905M407.523 405.84l3.626-.558M411.15 405.282l4.99-.637M416.14 404.645l.733 4.763M438.332 380.283l-1.125-3.07M421.077 347.465l1.23 5.62 5.38-1.011M437.207 377.214l-1.104-3.01-.774-2.218-2.055-5.441-4.916-12.903-.335-.8-.336-.768M359.433 365.587l5.053-1.132M359.433 365.587l-1.071-4.817M348.763 367.88l.447-.103M348.763 367.88l1.144 4.918M348.763 367.88l-1.185-4.724M349.907 372.798l.116.453M349.907 372.798l.476-.116M351.117 377.955l-4.912 1.125M351.117 377.955l.487-.11M351.117 377.955l-1.094-4.704M360.682 370.601l1.207 4.997M360.682 370.601l4.312-.976M360.682 370.601l-4.974 1.084M361.89 375.598l4.896-1.156M361.89 375.598l1.13 4.813M363.02 380.411l4.913-1.166M363.02 380.411l1.476 6.597M364.496 387.008l1.185 4.934M364.496 387.008l4.962-1.116M365.681 391.942l4.855-1.091M365.681 391.942l-5.319 1.18M360.362 393.123l1.12 4.814M360.362 393.123l-4.917 1.13M361.482 397.937l-4.914 1.116M361.69 408.008l-2.798.582M361.69 408.008l2.21-.436M358.495 408.686l.307.4M358.495 408.686l-7.145 1.566M358.495 408.686l.397-.096M351.35 410.252l-2.968.633M351.35 410.252l1.295 4.824M367.708 451.964l-1.642.275-3.58.672-1.637.138M360.725 436.135l.124 3.647v13.267M324.954 448.177l23.052 3.17 9.03 1.256 3.813.446M360.725 436.135l.294-7.903M355.636 429.341l1.169 5.536.191.49.071.145.072.097.107.09.151.074.243.065.41.083 2.675.214M354.658 424.645l-2.894.619M354.658 424.645l6.543-1.248M354.658 424.645l-.777-3.786M354.658 424.645l.978 4.696M355.636 429.341l5.383-1.109M361.019 428.232l.182-4.835M361.201 423.397l.05-4.759M346.205 379.08l-4.883 1.075M346.205 379.08l1.16 4.811M346.205 379.08l-1.15-4.788M347.366 383.891l-2.157.49M343.869 391.651l2.844-.59M343.869 391.651l1.101 4.839M343.869 391.651l-1.648-6.592M345.209 384.381l-2.711.617M345.209 384.381l1.504 6.68M346.713 391.06l1.117 4.831M347.83 395.891l-2.86.599M347.83 395.891l1.18 4.774M349.01 400.665l-2.901.61M344.97 396.49l-5.166 1.141M344.97 396.49l1.139 4.786M346.109 401.276l-5.223 1.106M346.109 401.276l1.117 4.873M339.804 397.631l1.082 4.751M340.886 402.382l1.106 4.975M352.645 415.076l1.236 5.783M352.645 415.076l-3.077.701M352.645 415.076l7.039-1.656M347.226 406.149l-5.234 1.208M347.226 406.149l1.156 4.736M349.568 415.777l1.183 4.848M349.568 415.777l-1.186-4.892M349.568 415.777l-5.262 1.238M348.382 410.885l-5.209 1.228M334.708 414.048l1.093 4.79M334.708 414.048l-1.168-4.77M334.708 414.048l4.84-1.08M341.992 407.357l1.181 4.756M343.173 412.113l-3.624.855M343.173 412.113l1.133 4.902M346.515 426.546l-3.515.814M346.515 426.546l5.249-1.282M346.515 426.546l-1.111-4.786M343.998 432.253l2.6-.457.272-.081.15-.084.155-.15.047-.208.02-.253-.003-.406-.024-.297-.08-.412-.62-3.36M344.306 417.015l1.098 4.745M344.306 417.015l-3.59.78M335.801 418.839l1.066 4.859M335.801 418.839l-4.961 1.123M335.801 418.839l4.915-1.043M351.764 425.264l-1.013-4.639M350.751 420.625l-5.347 1.135M345.404 421.76l-3.58.805M328.538 388.062l1.517 6.617M330.055 394.679l1.261 4.95M331.316 399.63l1.092 4.768M332.408 404.398l1.132 4.88M339.549 412.968l1.167 4.828M336.867 423.698l1.05 4.745M336.867 423.698l-4.865 1.106M336.867 423.698l4.958-1.133M322.861 416.475l.107 5.097M322.861 416.475l-3.795-.07M319.066 416.405l-.074 5.098M330.84 419.962l1.162 4.842M330.84 419.962l-5.08 1.09M322.968 421.572l-.161 5.18M322.968 421.572l-3.976-.07M322.968 421.572l2.793-.52M340.716 417.796l1.109 4.769M343 427.36l.998 4.893M343 427.36l-1.175-4.795M343 427.36l-5.084 1.083M332.002 424.804l-4.963 1.07M322.807 426.752l-.164 4.975M322.807 426.752l4.232-.878M322.643 431.727l5.478-1.16M337.916 428.443l1.03 4.7M338.946 433.143l5.052-.89M334.051 433.59l3.22.481.675-.1.448-.179.552-.65M325.76 421.052l1.28 4.822M327.04 425.874l1.08 4.693M344.457 434.554l-.459-2.3M329.81 433.273l4.241.316M298.251 373.421l6.08-1.266 3.329-.664M307.473 388.962l4.019-.005M307.473 388.962l-.175 7.076M311.668 379.03l-.07 5.035M311.599 384.065l-.107 4.892M311.492 388.957l-.167 7.067M311.325 396.024l-4.027.014M311.325 396.024l-.11 5.003M311.215 401.027l-4.173-.073M307.298 396.038l-3-.039M307.298 396.038l-.256 4.916M307.042 400.954l-2.86.074M311.151 411.279l-.063 5.052M310.953 426.333l-4.055-.038M310.953 426.333l.126-5.048M306.898 426.295l-6.765-.198M306.898 426.295l.005-5.07M311.088 416.33l-4.11-.072M311.088 416.33l-.009 4.955M306.978 416.258l-3.903-.11M306.978 416.258l-.075 4.968M303.075 416.148l-3.415-.024M303.075 416.148l-.115 4.985M303.075 416.148l.064-5.005M318.992 421.503l-4.035-.09M314.957 421.413l-3.878-.128M311.08 421.285l-4.177-.06M306.903 421.226l-3.943-.093M304.298 396l-.093 2.384M279.126 395.084l14.677-2.869h1.343l.68.201.995.624 1.921 2.074.649.439 1.23.311 3.677.135M304.183 401.028l-.05 2.61M304.183 401.028l.022-2.644M304.069 406.219l-.835.01M304.069 406.219l.063-2.581M303.234 406.23l-.095 4.913M303.14 411.143l-3.452-.033M302.96 421.133l-2.731.041M292.987 416.102l3.27.016M296.398 421.152l-3.358-.067-.053-4.983M299.688 411.11l-3.374-.049M299.688 411.11l-.028 5.014M299.66 416.124l-3.403-.006M299.66 416.124l-.06 5.062M299.6 421.186l-3.202-.034M299.6 421.186l.629-.012M296.314 411.061l-.057 5.057M296.257 416.118l.141 5.034" clip-path="url(#pcfa6e1d2ec)" style="fill:none;stroke:#000"/><path d="m300.133 426.097-3.898.03.163-4.975M300.229 421.174l-.096 4.923M279.2 377.354l-.074 17.73M275.117 368.197l3.87-.314.212 9.471M278.537 441.95l.076-10.667M244.312 466.13l3.316-26.741.137-.6.31-.452.427-.253.433-.163.694.003 2.028.312 26.88 3.714M620.439 501.134l-3.392.532-3.266-.315-2.722-.21-2.722 1.259-2.287 1.468-24.823 4.508-2.722-.42-3.702.42-2.395 1.048-3.484 3.879-1.851.105-5.009-1.154-1.415-.419-9.908 1.783-119.026 26.42-.856.164-1.054.09-1.331.066-4.392.141M402.908 446.064l22.681-3.73 43.072-7.112.28.09.208.146.215.232.143.358.036 1.163-.598 1.9-2.455 5.51-8.662 19.29-3.243 7.377-2.846 5.885-10.106 21.56-4.322 9.795-5.82 13.407-2.554 5.432-1.822 4.415-1.358 3.21-.857 2.237-.393 1.278-.425 1.992M392.77 610.695l3.62-8.233 7.363-16.052 7.41-16.185 10.959-24.227 1.35-3.046.205-.561.2-.766.205-1.126M256.147 595.44l-9.107-2.051-12.172-2.995-6.343-1.338M205.788 583.631l8.25 1.94 14.487 3.485M234.455 542.597l-2.103 16.66-1.265 10.388-2.562 19.41M326.076 469.162l-.398-8.659-.724-12.326M336.815 613.557l-.798-10.444M272.266 599.107l3.099.933 1.08.289.91.142 1.306.222 10.951 2.475 15.274 3.388 31.93 7M386.664 624.427l-4.868-1.106-6.538-1.293-3.419-.594-10.859-2.475-12.102-2.63-12.063-2.772M386.664 624.427l6.106-13.732M413.386 605.088l-17.96 5.273-.988.193-.819.082-.849.06M382.971 301.112l-.797-3.628M380.97 292.222l1.204 5.262M380.97 292.222l4.657-1.104M380.97 292.222l-3.7.762M375.243 293.381l2.028-.397M401.746 287.598l-1.746.372M390.117 290.146l3.333-.745M390.117 290.146l-4.49.972M390.117 290.146l1.264 5.25M391.381 295.395l-4.409 1.012M382.174 297.484l4.798-1.077M386.972 296.407l-1.345-5.29M385.627 291.118l-.794-3.342M382.173 276.008l.254 1.141M391.675 313.42l-1.011-4.6M421.077 347.465l-1.003.202M421.077 347.465l.632-.13M420.074 347.667l-3.896 1.083M416.178 348.75l-5.009.966M411.169 349.716l-5.06.993M406.11 350.709l-4.975.933M399.358 352l1.777-.358M399.358 352l-3.312.648M394.317 352.994l1.73-.346M394.317 352.994l-3.154.561M388.969 354.013l.416-.087M388.969 354.013l-3.384.744M391.163 353.555l-1.778.371M378.547 356.335l7.038-1.578M378.547 356.335l-4.916 1.089M373.63 357.424l-4.94 1.106M368.69 358.53l-5.046 1.062M363.644 359.592l-.366.092M364.486 364.455l1.123 4.854M364.486 364.455l-1.208-4.77M320.363 368.952l3.4-.51M323.763 368.442l5.139-1.073M328.902 367.37l3.504-.8M332.406 366.57l4.957-1.134M337.363 365.436l.42-.096M342.745 364.307l4.265-1.003.568-.148M342.745 364.307l-4.963 1.033M347.578 363.156l.428-.101M353.015 361.968l5.347-1.198M353.015 361.968l-5.009 1.087M358.362 360.77l4.916-1.086M366.786 374.442l1.147 4.803M366.786 374.442l-1.083-4.738M367.933 379.245l1.525 6.647M369.458 385.892l1.078 4.959M370.536 390.85l.612 2.37.424.639M336.761 314.867l-.723-3.204M336.761 314.867l.344 1.534M337.519 318.16l-.414-1.76M337.519 318.16l.732 3.195M338.251 321.355l.62 2.803M338.872 324.158l.094.432M338.872 324.158l.654.177M340.06 329.497l-1.094-4.907M340.06 329.497l1.184 4.754M341.244 334.251l.89 3.756M342.135 338.007l1.137 4.803M343.272 342.81l1.228 4.895M344.5 347.705l1.081 4.838M345.581 352.543l1.164 4.856M346.745 357.4l1.155 5.236M347.9 362.636l.106.419M348.006 363.055l1.204 4.722M349.21 367.777l1.173 4.905M350.383 372.682l.11.468M351.604 377.845l-1.111-4.695M351.604 377.845l1.058 4.849M352.662 382.694l1.598 6.597M354.26 389.291l1.185 4.961M355.445 394.252l1.123 4.8M356.568 399.053l1.14 4.764M357.708 403.817l1.184 4.773M358.892 408.59l-.09.496M361.25 418.638l-1.566-5.218M361.25 418.638l-7.37 2.22M390.538 364.086l.34-.064M390.538 364.086l-9.798 2.212M380.74 366.298l-4.845 1.106M375.895 367.404l-4.94 1.142M370.954 368.546l-4.896 1.081M366.058 369.627l-.355.077M365.703 369.704l-.094-.395M365.703 369.704l-.71-.079M355.708 371.685l-.36.309M355.347 371.994l-4.854 1.156M350.493 373.15l-.47.101M350.023 373.251l-4.967 1.041M333.191 376.696l1.493-.069M345.056 374.292l-4.878 1.122M339.758 375.514l.42-.1M339.758 375.514l-5.074 1.113M341.322 380.155l-1.144-4.74M341.322 380.155l1.176 4.843M342.498 384.998l-.277.061M340.178 375.414l-.116-.491M340.062 374.923l-1.15-4.725M338.912 370.198l-1.13-4.858M337.782 365.34l-.103-.424M337.679 364.916l-1.242-5.284M336.437 359.632l-1.134-4.796M335.303 354.836l-1.038-4.84M334.265 349.996l-1.227-4.915M333.038 345.08l-1.132-4.696M331.906 340.384l-1.076-4.835M330.83 335.55l-.839-3.676M329.991 331.874l-.479.112M329.991 331.874l-.953-4.403.097-.318.352-.355 4.185-.99M338.966 324.59l.56-.255M338.966 324.59l-.429.091M333.672 325.809l4.865-1.128M344.736 309.688l9.71-2.322M353.368 301.824l1.077 5.542M354.445 307.366l3.612-.807M356.623 300.302l1.434 6.257M400.18 325.574l-2.894.576M427.411 337.652l2.823-.562M304.22 318.23l-.07 3.68M310.124 317.482l-.318-.118-.297-.015-.342.04-4.947.841M306.013 209.42l-1.273 40.596-.398 32.45-.029 6.12-.093 29.644M304.15 321.91l6.217.207M310.124 317.482l.317.343.058.229.04.233-.032.48-.14 3.35M359.684 413.42l-.882-4.334M363.9 407.572l-.801.983-1.872 2.75-1.543 2.115M394.722 391.965l-3.76.623M367.708 451.964l11.34-1.896 23.86-4.004M395.694 395.403l-.727-5.011M395.694 395.403l.76 4.698M396.454 400.101l-.195.04M394.967 390.392l-.714-4.912M394.253 385.48l-.715-4.876M393.538 380.604l-1.074-6.758M392.464 373.846l-.873-5.04M390.878 364.022l-.067-.385M390.878 364.022l.339-.043.489-.264M390.878 364.022l.713 4.784M390.81 363.637l-.739-4.741M391.706 363.715l-.575-.17-.32.092M391.591 368.806l4.872-.957M390.071 358.896l-.686-4.97M389.385 353.926l-.06-.375M390.258 362.287l-4.088-.909-.605-.543-.381-.903M407.54 370.759l-.877-4.64M401.601 366.632l5.062-.512M272.266 599.107l-16.119-3.667M205.788 583.631l-11.848-3.076M174.165 615.376l.272-3.298.68-8.82.872-8.621.679-7.885.763-8.82.093-.607.193-.404.205-.264.25-.149.325-.085.416.011.382.082 6.943 1.98 7.702 2.059" clip-path="url(#pcfa6e1d2ec)" style="fill:none;stroke:#000"/><path d="m187.766 600.537 1.914-.505 1.498-.387.771-.327 1.034-.624.641-.684.602-.869.154-.386.077-.335.039-.587-.424-5.982-.64-8.554.018-.222.085-.175.17-.141.235-.204M597.98 308.581l-8.445-61.176M597.98 308.581l-17.68 3.996M597.98 308.581l34.741-7.852M589.535 247.405l-1.08-7.83-1.137-1.675-.87-2.125M373.723 286.308l1.917-.494M383.964 283.97l-.834-3.658M383.964 283.97l.869 3.806M383.964 283.97l-8.324 1.844M383.964 283.97l7.851-1.68M391.815 282.29l-.892-3.764M391.815 282.29l.886 3.717M384.833 287.776l7.868-1.769M384.833 287.776l-8.332 1.8M392.7 286.007l.75 3.394M395.765 284.71l-1.505.952-.447.16-1.112.185M376.501 289.575l.77 3.409M376.501 289.575l-.86-3.76M377.27 292.984l.767 3.408M375.64 285.814l-.813-3.6M400 287.97l-3.293.721M400 287.97l-1.009-4.14M400 287.97l2.125 9.063M403.614 282.06l-2.014.736-2.609 1.034M395.765 284.71l.644-.267 2.582-.613M402.125 297.033l-3.33.715M396.707 288.691l-3.257.71M396.707 288.691l-.942-3.98M396.707 288.691l2.087 9.057M393.45 289.4l2.095 9.125M389.941 274.4l.25 1.047M373.78 277.712l.296 1.27M372.717 282.698l2.11-.483M390.923 278.526l-.732-3.08M390.19 275.447l4.62-1.014.677 3.145-4.564.948M390.923 278.526l-7.793 1.786M383.13 280.312l-.703-3.163M383.13 280.312l-8.303 1.903M374.827 282.215l-.751-3.233M372.078 279.42l1.998-.438M390.19 275.447l-7.763 1.702M382.427 277.15l-8.351 1.832M391.706 363.715l4.139.013.618 4.121M242.58 399.147l-4.894-13.554M166.36 393.32l10.145 1.641 2.64.313 3.4.037 3.685-.271 3.08-.513 1.498-.307 46.878-8.627M256.641 382.018l-4.716.921-12.11 2.252-2.129.402M256.044 271.914l-.032 1.553-.143 20.063-.17 12.286-.034 14.863-.135 13.736.117 8.49M283.931 366.581l3.19-.04M298.251 373.421l.2-11.48M298.788 336.77l-.058 5.006M298.73 341.776l-.126 5.033M298.604 346.81l-.046 5.036M298.558 351.846l-.106 5.067M298.452 356.913l-.001 5.028M310.124 317.482l5.934-.393M351.544 326.877l-1.216.349M241.954 224.288l-43.617 10.188M241.954 224.288l14.54-3.509M369.617 120.242l.597-16.544-50.031 6.182-1.328.357-.3.49.1.893.833 2.037-.663.966-.726.298-13.352 1.635-1.05.179-1.118.06-.418.066-1.482.613-.462-.107-.286-.298-.139-.275-.1-1.643-.324-.706-1.011-.677-1.529-1.04-1.32-1.57-.501-.965-.355-1.48-1.852-.989-2.007-.728-1.76.133-1.003-.03-.757-.698-.385-1.026-.355-1.977-.464-.536-.509-.09-.694.135-7.04 1.784-20.436 4.669-3.89 1.026-2.732.446-10.126 1.617 1.775 12.255 2.562 16.534.988 23.431.803 19.001-4.816 40.618M306.013 209.42l-49.519 11.36M256.044 271.914l.389-18.866.061-32.269M259.705 369.115l.108 5.114M259.813 374.229l.004.332M259.813 374.229l-3.381.077M263.043 374.677l-.124-.304-.067-.088-.116-.042-.14-.003-2.783-.011M259.844 377.16l-.027-2.599M259.844 377.16l3.22-.019M259.844 377.16l-3.397.114M263.064 377.141l.006 1.487M263.064 377.141l-.02-2.464M256.447 377.274l-.014-2.676M256.641 382.018l-.039-1.475-.155-3.269" clip-path="url(#pcfa6e1d2ec)" style="fill:none;stroke:#000"/><path d="m259.817 374.561 2.966.026.127.028.133.062M256.432 374.306l-.2-4.612M256.432 374.306l.001.292M256.432 374.306l-1.558.034-.209.033-.066.04-.033.048-.013.04v.055l.02.057.048.029.07.02 1.742-.064M256.641 382.018l5.251-1.143M368.405 169.398l24.334-12.604M369.617 120.242l-.082 2.279-1.13 46.877M166.36 393.32l.081 2.27.355 3.723-.054 1.658-.108.728-.262.78M149.771 390.774l7.918 1.144 8.67 1.403M110.238 384.751l17.58 2.72M118.698 420.86l-12.464-1.598-4.635-.602-.463-.097-.251-.085-.116-.127-.038-.126.038-.427 1.196-6.556.64-3.664.48-2.817.215-.959.464-1.285 2.562-6.928 1.682-4.488 1.714-4.512.516-1.838M138.382 389.104l-6.566-1.016M131.816 388.088l.674-.867 1.003-1.019.78-.572.71-.149.787.082.633.283.671.58.625 1.129.683 1.549M138.382 389.104l11.39 1.67M131.816 388.088l-3.997-.618M127.819 387.47l.262-.59 6.593-8.571 10.15-12.628M149.771 390.774l1.62-3.903 9.756-23.063 1.227-3.025.409-1.241 1.273-2.884.726-2.215.918-2.007M256.044 271.914l-1.016.049-1.466.211-6.236 1.517-7.132 1.784-7.347 1.769-8.86 1.906-.772.105-.402-.004-.367-.156-.354-.443-.498-1.036-.417-.514-.614-.4-.47-.064-.722.026-1.868.565-9.871 2.118-3.82.848-.552.096-.444.012-.424-.075-.367-.286-.398-.476-1.586-4.586-.598-2.163M264.969 380.205l-3.077.67M261.892 380.875l-.109-1.024.029-.139.052-.086.16-.085 2.11-.417.206-.02.17.026.131.104.104.164.224.807M259.817 374.561l-3.384.037M326.076 469.162l2.38-.543 3.188-.862 2.531-.996" clip-path="url(#pcfa6e1d2ec)" style="fill:none;stroke:#000"/><path d="m334.892 588.394-.863-11.288-.88-12.12-.486-5.767-.64-7.402-1.247-16.993-1.821-23.829-1.27-17-.676-11.757-.52-5.979-.413-7.097M367.708 451.964l.099.813.25 2.223.487 3.17.81 4.849.367 2.716.945 8.487.479 4.764.455 3.479M278.686 420.949l-.516.16-.52.204-.691.346-.85.356-.39.132-.435.093-.764.08-.745.022-.882.116-.384.13-.397.078-.685.026h-.67l-.803.07-1.065.06-1.111-.141-.586-.19-.606-.312-.594-.338-2.165-1.175M278.686 420.949l-.073 10.334M246.673 468.277l.668.888 1.813 1.962.738.346.571.04.826-.3.179-.21.044-.347-.166-.566" clip-path="url(#pcfa6e1d2ec)" style="fill:none;stroke:#000"/><path d="m246.673 468.277.952.446 3.721 1.367M253.326 472.907l.294-1.233-.085-.365-.247-.275-1.942-.944M246.673 468.277l-2.361-2.148M234.455 542.597l7.619-60.367 2.238-16.1M304.205 398.384l-3.035.026M304.132 403.638l-3.082-.048M365.609 369.31l-.615.315M362.843 356.224l-.339.069M337.105 316.4l-.49.107M198.337 234.476l-.19.044M178.358 134.264l.231 7.554.54 6.809.31 5.278 1.666 9.932 3.103 14.481.03 1.07-.385 1.086-1.05.699-4.708.892-.54.506v.802l.68 22.628.2 2.795.54 1.502 4.044 6.274 1.05 1.814 1.127 2.929.663 1.174 4.276 4.223 8.202 7.764M198.146 234.52l.402 1.402.347 2.884.278 3.286.332 1.731-.062 4.765-.185 3.19.077 1.077-.108 3.59.247 1.487.556 2.899-.077 2.512M589.535 247.405l-.26-.092-.185-.112-.2-.134-.178-.156-.2-.186-.186-.126-.185.008-.232.014-.316.112-.286-.015-.247-.082-.216-.118-.147-.075h-.17l-.138.045-.154.067-.278-.052-.14-.06-.077-.104M413.386 605.088l.16.464.142.59.266.818.452 1.23.346.743.15.443.355.897.408 1.34.178.282.159.11.062.077.027.12-.133.111-.169.077-.186.196-.24.247-.31.205-.301.146-.328.264-.32.145-.256.18-.337.187-.222.06M486.48 583.613l-9.993 3.18-10.67-.314-3.484-.63-1.306.63-13.936 9.015-28.504 8.068-5.201 1.526M632.721 300.729l.041.367.046.297.108.387 1.111 1.783 1.683 2.721.309.565.232.282.354.179.37.238.294.877-.077.327-.2.208M336.017 603.113l.65.16 1.183.13h.967l.565-.13.51-.05.619.077M336.017 603.113l-1.125-14.72M234.455 542.597l.533.982.54.612 1.397.55 2.73.581 4.13.673 1.524.275.73.184M401.454 306.54l1.004 4.725M580.3 312.577l.432.454.259.82 1 2.213 2.705 7.493.296 1.213-.222 1.034-3.15 9.277-.592 2.284-.482.82-2.378 2.917-2.658 3.37-.138.412-.051.38.068.43-.05.396M580.3 312.577l-59.63 13.478M369.617 120.242l-.206-.595-.171-.396-.223-.397-.378-.165M486.48 583.613l-.47-.914-.6-1.239-.447-.528-.377-.231h-.343M520.67 326.055l-.526-1.395-.626-1.153-1.579-2.02-2.56-2.516-1.143-1.81-.79-2.123-1.982-5.14-.223-.562.034-.561.12-1.042-.136-1.023M392.74 156.794l22.112-11.453 28.872-15.207.108-.315.065-.18-.015-.245-.643-2.563-.481-1.15-.482-.265h-.688M334.892 588.394l.813.18.811.094 1.071-.031.681-.125 1.688.344 2.563.906 1.428.312 1.682.062 1.08.224 3.069.91 1.157.26.406-.167.79-.372M392.74 156.794l-.054.417.039.372v.26l.405.316 2.026 1.264.54.185 1.1.223.502.186.29.502M174.165 615.376l-.412-.006-.367.074-.887-.167-1.081-.204-.79-.205M437.207 377.214l.74.037 3.357-.632 1.466-.52 1.235-.409 1.929.112 1.12.557.925 1.226 1.197 2.082 4.928 12.69 1.33 3.661.387 1.17.386.205.424-.112.444-.297.695-.223.424-.167.521-.223M278.613 431.283l-.82.316-2.664 1.338-.636.241" clip-path="url(#pcfa6e1d2ec)" style="fill:none;stroke:#000"/></g><g id="PatchCollection_1"><path d="m314.909 411.622-.036 4.434-3.493-.026.036-4.434zM354.485 366.908l9.698-2.222 1.096 4.433-9.699 2.223zM316.19 325.69l10.992-2.3 1.883 8.145-13.222 2.971z" clip-path="url(#pcfa6e1d2ec)" style="fill:green;fill-opacity:.8"/></g><g id="PatchCollection_2"><path d="m192.082 358.786-.237-1.024 1.158-.248.237 1.023zM193.907 360.14l.412-.08-.134-.636-.413.08zM351.549 353.802l.151.66 1.68-.356-.152-.66zM351.66 354.686l.292 1.213.982-.22-.293-1.213zM342.26 350.569l.204.863 1.68-.442-.183-.804zM345.404 364.072l.536 2.001 1.968-.489-.536-2zM348.162 375.765l.134.621 1.828-.323-.162-.776zM370.077 385.736l.216 1.13 2.207-.49-.23-1.1zM360.114 352.528l.372 1.468.709-.187-.337-1.452zM330.113 328.642l.41 1.524 2.607-.65-.41-1.524z" clip-path="url(#pcfa6e1d2ec)" style="fill:#a9a9a9;fill-opacity:.8"/></g></g></g><defs><clipPath id="pcfa6e1d2ec"><path d="M90 92.34h558v542.521H90z"/></clipPath></defs></svg>