<svg xmlns="http://www.w3.org/2000/svg" xmlns:xlink="http://www.w3.org/1999/xlink" width="960" height="960" viewBox="0 0 720 720"><defs><style>*{stroke-linejoin:round;stroke-linecap:butt}</style></defs><g id="figure_1"><path id="patch_1" d="M0 720h720V0H0z" style="fill:#fff"/><g id="axes_1"><path id="patch_2" d="M90 568.45h558v-409.7H90z" style="fill:#fff"/><g id="LineCollection_1"><path d="m525.123 271.052 5.088.128M422.581 479.81l19.947 5.671 7.069.035 3.413.619 3 1.613 3.93 4.533 1.345.755.982-.051.81-.464 1.035-.858.38-.858 27.893-66.963 1.224-3.4.482-2.026.139-1.236-.035-2.592-.466-2.01-.551-1.836-2.569-4.62-3.74-6.592-1.07-2.696-.517-3.022-.034-1.58.43-2.696.897-2.3 29.083-69.3 1.595-3.752.43-1.261.225-.696.25-.944.25-1.142.172-.936.319-1.966.604-4.138.448-2.962.302-1.802.267-1.537 4.016-21.137.164-1.245.182-1.434.24-1.932M506.78 269.865l3.07.645 1.05.233 2.353.25 1.216.042 3.646-.094 1.672.025 2.698.035 2.638.051M430.153 258.827l7.235.425M430.153 258.827l-.063.203M430.153 258.827l-1.873-.473-2.492-.626-3.844-1.09M409.298 253.914l3.415.431M409.298 253.914l-3.645-.058M408.937 256.057l.138-.295.237-1.007-.014-.84M403.337 253.67l2.316.186M403.337 253.67l-4.227-.51M402.685 249.72l1.074.209-.422 3.742M437.388 259.252l4.622.89M437.388 259.252l-.104.421M399.11 253.16l-1.301 6.306M390.81 249.22l2.586 1.4 2.008 1.116 1.224.583 1.43.524 1.052.318M127.52 193.998l6.593-27.37M278.216 238.413l-4.215.062-2.955-.335-4.827-1.916-4.001-1.68-4.883-1.255-5.595-1.279-9.2-2.757-4.876-1.339-9.02-2.283-8.283-2.665-8.06-3.002-12.248-4.348-10.229-3.737-3.643-1.003-5.926-1.55-5.72-2.493-5.245-2.957-3.89-2.845-6.024-1.98-10.06-4.547-4.337-.53-17.458.024M115.892 206.017l5.946 2.508 1.448-.034.828-.48 3.407-14.013M112.667 192.736l1.296.055 5.02.91 1.93.585 4.139-.055 2.469-.233M363.614 237.844l-6.037-1.782M362.244 241.811l.707-1.836.663-2.13M372.174 240.866l-2.104-.961-1.508-.593-1.302-.549-3.646-.919M411.388 276.748l.25.621M410.286 279.724l.211-1.65.147-.454.215-.318.53-.554M410.182 263.617l-.28 1.365-.224 2.018v1.228l.13 1.923.146 1.185.345 1.768.345 1.314.293 1.047.451 1.283M113.075 196.256l-1.128-1.79M115.892 206.017l1.431-3.736.036-1.43-.24-.787-.957-1.37-3.087-2.438M105.322 195.51l1.587.687 1.345.31 4.345.411.476-.662M112.667 192.736l-.846-.032-1.691.143M106.599 192.114l.993.467 1.848.395.69-.129M111.947 194.466l-.665-.528-1.152-1.09M112.667 192.736l-.454.806-.266.924M372.174 240.866l2.697 1.005M370.079 242.81l.422-.071.45-.175.32-.311.903-1.387M427.833 269.208l-.849 3.373M427.833 269.208l1.332.39M426.828 268.443l.547.497.129.12.329.148M415.045 265.02l.187.065M415.045 265.02l.122-.415M415.045 265.02l-4.863-1.403M417.837 265.924l-.2.847M417.837 265.924l.154-.5M417.837 265.924l3.283.849M417.837 265.924l-2.605-.84M402.237 278.806l-.35 2.793M402.237 278.806l4.065.581M404.241 275.841l-1.194-.03-.342-.024-.146.073-.091.103-.014.282-.217 2.56M408.937 256.057l3.387.752M405.974 261.692l1.101-2.65.715-1.52.526-.919.276-.257.345-.29M487.421 275.633l-2.123 9.783M487.421 275.633l2.162-9.534M487.421 275.633l2.16.538M360.278 241.528l1.966.283M358.753 246.507l.62-1.837.508-1.615.397-1.527M353.745 247.236l.133-2.137-.047-.223-.095-.18-.362-.266-.108-.293-.021-.322.72-2.957.133-.39.168-.19.242-.056.361.082 1.677.442 1.232.3 2.5.482M410.182 263.617l.112-.475M421.274 271.068l.86-4.045M421.274 271.068l5.71 1.513M420.374 274.799l.14-1.171.292-1.082.468-1.478M413.695 272.254l.173-1.631.284-1.39.319-1.22.761-2.928M420.664 246.103l-2.677 9.487M446.588 244.747l-2.356-.024-1.899-1.482-2.33.263-1.697.192-3.657-.37h-4.304l-6.003.368-.727.367.002.351-.303 1.704-.09.224-.172.128-.233.06-.397-.064-1.758-.36M405.868 251.332l.348-.356.227-.346.052-.677.157-.902.104-1.423.157-1.474.244-1.579.381-2.367 3.14.156 2.829-.14.964.14.737.637 2.265.097 1.03.184.006.265-.142 1.484.034.368.117.177.176.133.384.15 1.586.244M502.806 249.589l-3.208-.365M504.779 231.374l-1.12 10.093-.789 7.623-.064.499" clip-path="url(#p167a684a94)" style="fill:none;stroke:#000"/><path d="m508.537 229.982-2.403 19.255-.07.36-.206.198-.293.069-1.095-.06-1.664-.215M366.484 242.626l-4.24-.815M370.079 242.81l-1.155.048-.992-.034-1.448-.198M365.812 244.85l.354-1.22.318-1.004M395.231 283.874l1.63-2.726M401.276 285.293l-2.346-.624-1.957-.396-1.742-.399M391.132 282.375l2.94 1.217.578.167.581.115M392.435 288.062l.193-.063.225-.146.284-.248.431-.378.31-.48.866-1.957.487-.916M410.286 279.724l-.278 2.781M410.286 279.724l-3.984-.337M441.683 264.845l2.69.702M435.384 267.675l3.575 1.094 1.306.343.272.064.155-.03.198-.111.13-.207.074-.48.59-3.503M442.01 260.142l-.275 1.32.009.344.318.438.052.249-.43 2.352M481.796 264.25l-1.068-.182M489.583 266.1l-1.361-.303-6.426-1.547M480.334 270.445l.466-1.737.996-4.458M498.106 277.96l-2.067-.438M498.106 277.96l-2.54 11.425M498.106 277.96l2.183-9.396M498.398 290.154l.102-.377.087-.326.1-.498.361-1.632.543-3.15 1.112-4.774.104-.549-.096-.267-.197-.248-.351-.122-2.057-.25M435.384 267.675l-.57 2.158M435.384 267.675l-5.41-1.414M437.284 259.673l-.757 3.07-.757 3.07-.386 1.862M489.581 276.171l1.443.133M489.581 276.171l-2.325 11.343M417.99 265.425l-2.823-.82M417.99 265.425l3.284.984M410.294 263.142l.09-.61M410.294 263.142l4.873 1.463M429.165 269.598l1.817.57M429.165 269.598l.289-.986M476.665 284.135l2.32-9.14M476.665 284.135l2.644.4M471.87 283.193l2.417.512 2.378.43M422.134 267.023l.082-.315M422.134 267.023l.421-.053M421.12 266.773l.227.06.787.19M353.288 275.709l-2.767-2.21M355.046 273.842l-.585.585-1.173 1.282M355.24 299.31l-.302-.51-.379-.463-.69-.73-1.28-1.224-1.098-1.086-.72-.82-.513-.58-.59-.613-.54-.562-.21-.288-.083-.309-.012-.562.012-2.117.1-1.287.099-.7.043-.335-.06-.31-.147-.394-.272-.412-.069-.39.06-.717.195-.756.258-.717.371-.657.522-1.022.74-1.425.863-1.871.62-1.125 1.13-1.619M427.799 265.693l-.97 2.75M427.799 265.693l2.291-6.663M427.799 265.693l2.175.568M426.984 272.581l2.04.571M393.667 259.007l1.84.47M392.25 262.633l.103-.252 1.314-3.374M393.667 259.007l-3.518-1.076M405.828 262.12l.146-.428M405.828 262.12l.868-.091M403.302 268.069l.3-.691 1.724-3.975.502-1.283M405.828 262.12l-4.903-1.277M434.814 269.833l-1.044 4.798M434.814 269.833l-3.538-.764M493.192 266.951l-3.543-.844-.066-.008M493.864 259.496l-1.048.885-.853.704-.673.79-.37.532-.259.61-1.078 3.082M499.598 249.224l-3.244-.18M501.483 232.894l-1.647 14.268-.238 2.062M388.294 272.09l.66-1.574M419.298 282.376l-1.983.12-.301.13-.173.223-.448.257-.457.19-.68.076-1.853.277M417.496 296.044l-.523-1.39-1.587-4.613-1.983-6.392M411.638 277.37l.643 2.482.5 1.752.622 2.045M401.276 285.293l.19-.876M405.44 287.93l-3.227-.42-.75-.223-.301-.352-.052-.43.166-1.212M496.354 249.044l-.98-.082M497.986 233.522l-1.085 9.43-.362 3.727-.107 1.326-.078 1.039M415.167 264.605l1.691-5.804 1.13-3.21M412.713 254.345l.413.09 1.44.288 3.421.867M417.987 255.59l3.957 1.048M429.984 273.37l.998-3.201M429.984 273.37l1.036.346M429.984 273.37l-.96-.218M433.77 274.631l-2.75-.915M442.685 276.788l-6.999-1.546-1.916-.61M426.828 268.443l-4.273-1.473M419.298 282.376l-.3 1.974M419.298 282.376l.073-.535M429.023 273.152l-.99 3.942M451.258 260.724l-5.3-.21M451.258 260.724l.037-7.958M452.275 260.773l-.39-.02-.627-.03M379.32 243.76l2.258.901M372.476 252.565l.413-.679.38-.666.49-.944.596-1.108.577-.833.742-.729.732-.584 1.086-.815.526-.404.595-.756.706-1.287M374.871 241.87l2.656 1.09 1.792.8M430.982 270.169l.294-1.1M429.974 266.26l-.52 2.352M483.545 294.156l1.36-6.904M480.533 307.41l1.913-8.206 1.099-5.048" clip-path="url(#p167a684a94)" style="fill:none;stroke:#000"/><path d="m486.088 293.653-.06.082-.095.189-.172.201-.323.138-.884.12-.574-.03-.435-.197M364.045 250.946l-1.465 3.726M364.045 250.946l.163-.531M364.045 250.946l2.018.532 3.111.85M420.374 274.799l7.66 2.295M419.96 278.281l.189-1.245.225-2.237M486.088 293.653l1.168-6.139M489.471 294.49l-.707-.158-.84-.198-.948-.21-.888-.271M415.695 275.001l1.942-8.23M431.276 269.069l-1.822-.457M445.075 260.436l-1.078-.039-1.987-.255M494.436 234.83l-.361 4.55-.466 4.792-.328 2.283-.12 1.013.034.412.19.31.362.214.551.18 1.076.378" clip-path="url(#p167a684a94)" style="fill:none;stroke:#000"/><path d="m458.686 239.612.237.782.18.344.406.524 10.583 4.387 2.191.566 1.346.172 2.489.38 1.543.425 1.556.374 1.548.255 1.81.326 2.56.377 2.74.337 1.657.307 2.12.224 1.888-.018 1.834-.412M493.864 259.496l.358-1.08.754-3.284.256-5.032.142-1.138M389.492 238.992l1.653.355.914.258.578.291.44.54.387.971.173 1.142v.704l-.198.713-.57 1.28-2.06 3.974" clip-path="url(#p167a684a94)" style="fill:none;stroke:#000"/><path d="m385.13 246.301 3.93 1.682 1.75 1.237M501.476 263.795l-1.187 4.77M493.864 259.496l1.391 1.035.509.116.92.134 1.042.112 1.503.14 1.703-.08.52.054.31.046.167.098.123.217v.3l-.045.206-.53 1.921M503.186 269.126l.495-2.396.375-1.859.03-.34-.043-.218-.06-.133-.156-.052-.22-.017-2.13-.316M557.93 241.355l-2 9.754-2.207 7.555-3.724 2.198-2.723 11.53M582.858 286.317l-3.362-2.19-1.896-1.218-2.483-1.615-.69-.42-.543-.326-.93-.476-1.534-.735-1.155-.532-.733-.317-.929-.391-.77-.318-.896-.33-.81-.284-.965-.334-.966-.293-2.62-.695-5.586-1.468-2.215-.576-1.586-.386-2.595-.566-1.24-.25-1.078-.205M538.225 271.396l1.146.077 1.216.068 1.396.13 1.457.171 1.168.155 1.539.223 1.129.172M503.186 269.126l-2.897-.562M506.78 269.865l-1.79-.325-1.804-.414M444.374 265.547l.744.183M444.374 265.547l.7-5.11M451.295 252.766l-.043-5.873-.173-.747-.37-.446-.544-.412-.629-.292-.94-.154-1.422-.06-.586-.035" clip-path="url(#p167a684a94)" style="fill:none;stroke:#000"/><path d="m445.075 260.436.168-2.073.108-.334.358-.301.19-.262.133-.304.078-.4-.048-3.438-.051-3.77.008-.531.06-.438.112-.275.219-.348.172-.344.086-.24v-.223l-.08-2.408M445.959 260.515l-.292-.012-.341-.023-.251-.044M446.51 268.962l1.633.374 1.341.3M445.118 265.73l2.463.498 2.007.45.125.137.099.168.026.223-.354 2.43" clip-path="url(#p167a684a94)" style="fill:none;stroke:#000"/><path d="m449.02 270.888.171-.523.173-.394.12-.335M510.099 252.362l-.358 1.81-.203 2.251-.025 1.383-.209 1.405-.47.833-.554 1.333-.293 1.133-.46 3.181-.13.859-.617 3.315M449.02 270.888l-.596 2.069" clip-path="url(#p167a684a94)" style="fill:none;stroke:#000"/><path d="m452.128 261.886-.578 4.385.063 2.051.147 1.657-.022.876-.116.55-.048.338-.336.03-.474.056-.245-.034-.272-.206-.427-.373-.24-.13-.56-.198M360.614 262.828l.405-.622M358.794 266.692l1.001-2.319.543-1.116.276-.43M364.183 265.232l-.629-.25-1.801-.514-.406-.164-.224-.18-.12-.275-.076-.553-.056-.162-.097-.137-.16-.17M355.046 273.842l-2.974-2.266M358.6 267.217l-.511 1.371-.897 2.104-.81 1.425-1.336 1.725M367.562 277.99l-.965-.379-2.603-.884-1.173-.326-1.344-.206-1.802-.138-1.75-.171-1.034-.318-.38-.163-.482-.438-.983-1.125M381.414 280.595l-.867-.262M383.409 275.374l-.797 2.203-.38 1.013-.512 1.33-.306.675M388.148 276.413l-.545-.15-.552-.033-.387.12-.406.214-.448.318-.646.575-.475.67-1.37 2.19-.43.47-.397.095-1.078-.287M383.409 275.374l1.151-3.017M379.613 274.256l.314.046.13.045.103.048.16.061.146.052.209.064 2.734.802M390.15 257.93l-1.63 4.264M390.15 257.93l.177-.387M390.15 257.93l-2.127-.56M361.02 262.206l.293-1.25.103-.73.164-1.614.241-1.348.268-1.099.49-1.493M367.786 257.024l-1.129-.455-.879-.404-3.198-1.493M371.303 258.218l-1.724-.499M371.303 258.218l-.414 2.748M371.303 258.218l.767-5.118M373.98 259.013l-.936-.246-1.741-.55M372.07 253.1l.406-.535M372.07 253.1l3.536.83 2.037.483M372.07 253.1l-2.896-.772M412.713 254.345l-.182 1.134-.207 1.33M412.324 256.81l-.5 1.528-.422 1.322-1.019 2.872M410.383 262.532l-3.687-.503M427.182 280.418l.218-.995.354-1.236.28-1.093M419.96 278.281l-.589 3.56M419.96 278.281l7.222 2.137M427.182 280.418l-.917 3.313M419.371 281.841l6.894 1.89M426.265 283.731l-.572 2.12M418.998 284.35l6.695 1.501M419.03 288.327l-.094-1.924.017-1.15.045-.903M425.693 285.851l-1.238 3.859M425.693 285.851l6.169 1.632M419.03 288.327l.518 4.87M419.03 288.327l5.425 1.383M424.455 289.71l-1.035 3.4M424.455 289.71l2.989.989M419.548 293.197l3.872-.087M420.065 300.292l-.026-.582-.008-1.168-.043-1.107-.276-2.593-.164-1.645M423.42 293.11l-.271 1.402M421.7 300.377l.31-.727.197-.674.099-.296.156-.408M423.149 294.512l-.642 3.38-.045.38" clip-path="url(#p167a684a94)" style="fill:none;stroke:#000"/><path d="m423.178 300.48-.355-.478-.129-.322-.06-.395-.172-1.013M421.7 300.377l1.478.104M420.065 300.292l.9.006.736.08M475.917 263.44l-1.547-.244-2.1-.33M469.15 262.38l1.59.204 1.53.281M468.422 282.393l1.086-6.318.776-3.692 1.223-5.512.763-4.006M468.422 282.393l-1.297 8.412M468.422 282.393l3.449.8M468.422 282.393l-3.293-.553M485.298 285.416l-.393 1.836M479.309 284.534l2.853.367 1.534.266 1.602.249M475.917 263.44l4.81.628" clip-path="url(#p167a684a94)" style="fill:none;stroke:#000"/><path d="m471.87 283.193 1.069-6.311 1.12-5.701 1.155-5.134.703-2.608M477.237 292.826l-5.598-.91-.441-.122-.19-.068-.164-.146-.103-.251.183-.683.213-1.015.734-6.438M493.192 266.951l-2.168 9.353M495.22 267.434l-.498-.119-1.53-.364M491.024 276.304l1.842.307M495.22 267.434l2.98.693M495.22 267.434l-2.354 9.177M492.866 276.61l3.173.912M492.866 276.61l-2.602 11.634M490.264 288.244l3.38.711M490.264 288.244l-3.008-.73M490.264 288.244l-.793 6.246M498.2 268.127l1.655.375.434.062M487.256 287.514l-2.351-.262M498.2 268.127l-2.16 9.395M492.455 295.032l1.188-6.077M494.256 295.507l-.32-.038-.275-.009-.28-.017-.423-.111-.125-.056-.15-.108-.228-.136M489.471 294.49l1.272.25.772.15.568.094.372.048M389.27 276.642l-1.122-.229M390.804 277.778l-.27-.226-.431-.396-.834-.514M394.713 273.421l-.794.383-1.624.75-1.663 1.025-1.363 1.063M402.863 269.084l-1.563 3.471-2.138 4.403-2.302 4.19" clip-path="url(#p167a684a94)" style="fill:none;stroke:#000"/><path d="m401.76 282.662-2.124-.492-1.543-.49-1.233-.532M391.79 278.215l1.6.787.988.601 2.482 1.545M402.863 269.084l.44-1.015M395.438 273.06l.699-.36.646-.463.983-.987.906-.957.645-.795.662-.743.435-.277.415-.036.536.115 1.498.527M405.868 251.332l.017.065.003.124-.235 2.335M405.359 251.238h.337l.11.027.062.067M422.728 248.885l-.24.627-.233.798-.423 2.112-.12.799-.01.6.139.764.215.825.009.42-.12.808M459.254 261.221l.901-4.747-.068-.394-.276-.232-.672-.37-7.844-2.712M469.15 262.38l-4.567-.582-5.33-.577M452.275 260.773l5.308.287 1.67.161M478.985 274.994l1.35-4.549M479.309 284.534l1.705-6.671.338-1.183.224-.914-.003-.06-.036-.088-.082-.084-.38-.12-.775-.163-1.315-.257M369.174 252.328l-1.388 4.696M367.786 257.024l1.793.695M366.466 251.021l.898-2.067 1.043-2.43.172-.55-.021-.17-.143-.194-.228-.138-.62-.266-.846-.159-.909-.197M364.208 250.415l.458-1.487.508-1.7.376-1.43.262-.948M388.52 262.194l-2.261-.671M385.862 269.19l.207-.559.93-2.386.587-1.4.935-2.65M378.87 261.639l-1.282-.472M377.242 265.587l1.51-3.617.118-.331M380.013 259.69l-.241.073-.147.094-.168.292-.587 1.49M377.643 254.413l-1.16 1.486-.672.756-1.832 2.358M370.86 262.528l.926-.842 1.603-1.82.59-.853M380.013 259.69l-.914-.503-.633-.192-.75-.091-.504-.034-.457.231-.534.331-.466.21-.28-.012-.215-.12-1.28-.497M377.643 254.413l1.424.424M363.19 267.69l1.065.298M364.183 265.232l-.624 1.545-.37.913" clip-path="url(#p167a684a94)" style="fill:none;stroke:#000"/><path d="m358.6 267.217 1.764.874.746.343.207.064.306.017.276-.077.823-.408.468-.34M369.859 270.904l-.176.552M370.86 262.528l.003.18-.017 1.545-.008 1.983-.182 1.52-.232.893-.25 1.02-.315 1.235M364.255 267.988l.756.283.374.099.358.081.31.146.199.142.275.262 1.233.91.664.36.293.18 1.142.453M369.683 271.456l7.442 2.099M368.947 274.757l.106-.51.225-1.117.405-1.674M388.023 257.37l-1.764 4.153M388.023 257.37l.23-.49M383.745 256.13l2.297.695 1.981.545M397.633 260.02l-.924 3.832M397.633 260.02l.334.052 2.958.771M397.809 259.466l-.108.305-.068.248M397.633 260.02l-2.125-.543M386.259 261.523l-.438.123M380.013 259.69l.289.042.41.146 3.692 1.352 1.417.416M384.529 264.496l.717-1.443.42-.974.155-.433M385.862 269.19l3.091 1.326M384.56 272.357l.276-.652.44-1.056.586-1.46M392.25 262.633l-1.53 3.73-1.767 4.153M394.713 273.421l.434-.209.291-.151" clip-path="url(#p167a684a94)" style="fill:none;stroke:#000"/><path d="m391.79 278.215 2.39-2.939.646-.85.276-.506.336-.86M396.709 263.852l-.46 1.912-.672 2.902-.7 3.502-.164 1.253M391.79 278.215l-.986-.437M477.237 292.826l.184-1.624.317-1.5.33-1.264.413-1.391.828-2.513M493.643 288.955l1.922.43M496.04 277.522l-.974 4.734-1.423 6.7M494.256 295.507l.077-.283.145-.379 1.087-5.46M498.398 290.154l-.199-.06-.245-.008-2.389-.7M476.63 271.815l1.575-4.014.123-.165.125-.119.145-.045.228.034.453.215.118.01.082-.018.136-.1.09-.132.09-.286.933-3.127M452.275 260.773l-.147 1.113M426.437 301.153l-2.14-.45-1.12-.222M436.244 302.208l5.042.263M436.244 302.208l-.551-.004M439.563 289.313l-1.957 7.933-.862 3.34-.5 1.622M441.286 302.47l-.11 2.988M444.416 290.67l-.535 2.386-1.868 7.71-.114.719-.065.309-.064.18-.117.223-.166.16-.201.114M427.085 301.253l-.648-.1M427.085 301.253l2.537-9.972M429.486 301.861l-.353-.19-.362-.098-1.686-.32M431.862 287.483l-.553 2.38-.215 1.163-.116.404-.06.094-.112.052-.164-.013-1.02-.282M427.444 290.699l1.39.323.788.26M431.862 287.483l7.7 1.83M421.865 308.596l.32.893M411.71 313.026l2.278-.623 1.116-.493.823-.575 1.263-1.421.556-.683.354-.3.784-.258.905-.103h1.147l.93.026" clip-path="url(#p167a684a94)" style="fill:none;stroke:#000"/><path d="m419.08 300.455.218.586 1.491 4.25 1.076 3.305M424.59 350.525l-1.06-3.673-.224-.997-.103-1.562.258-2.799.156-2.85-.018-3.16-.017-3.502-.284-4.05-.159-2.368-.02-1.854.198-2.741.119-1.913.025-1.617M411.71 313.026l1.597.489 1.198.446 1.56.713 1.897 1.108 1.551.78 1.509.507 1.215.266 1.224.104M422.185 309.489l.5 1.622.328 1.769.172 1.099.234 2.954.042.506" clip-path="url(#p167a684a94)" style="fill:none;stroke:#000"/><path d="m428.72 318.623-.622.103-1.137-.137-3.5-1.15M424.717 369.21l-.54-3.592-.535-4.284-.172-1.51.051-1.28.26-1.15.792-5.005.035-1.1-.018-.764" clip-path="url(#p167a684a94)" style="fill:none;stroke:#000"/><path d="m406.687 349.892.888.29.401.088 2.427.754.581.064.241-.107.169-.163.086-.31.022-.382.043-.515.064-.682.082-.343.077-.224.175-.28.24-.136.3-.045.335.047.972.251.655.146 1.517.249 1.482.283 1.346.335 4.913 1.177.887.136M422.185 309.489l2.407.054M429.486 301.861l-.623 3.298M435.693 302.204l-3.823-.03-1.706-.06-.312-.069-.366-.184M424.592 309.543l.628-3.042.517-2.361.7-2.987M428.297 307.982l-.272 1.386-.06.232-.224.254-.328.072-2.82-.383M428.863 305.159l-.566 2.823M435.246 305.2l-2.587-.064-1.32-.017-2.476.04M444.131 305.625l-2.955-.167M427.444 290.699l-1.12 4.435-.092.116-.172.098-.297-.068-2.614-.768M401.76 282.662l-.294 1.755M401.76 282.662l.127-1.063M406.302 279.387l-.255 2.779M405.041 290.786l.4-2.855M405.041 290.786l-3.71-.552M405.041 290.786l2.783.347M404.674 293.664l.133-1.155.234-1.723M408.17 289.236l-.346 1.897M408.17 289.236l.198-.962M412.187 289.004l-2.078.069-1.94.163M407.785 291.496l-.301 2.688M407.785 291.496l.039-.363M411.592 296.044l.155-1.464.164-1.61.064-.63-.051-.708-.065-.125-.125-.095-.461-.004-3.488.088M405.44 287.93l.268-2.824M405.44 287.93l2.928.344M408.368 288.274l.49-1.517M401.466 284.417l4.242.69M405.708 285.106l.339-2.94M405.708 285.106l3.506.243M409.214 285.349l-.355 1.408M410.008 282.505l-.109.45-.685 2.394M401.887 281.599l4.16.567M406.047 282.166l3.96.34M404.674 293.664l2.81.52" clip-path="url(#p167a684a94)" style="fill:none;stroke:#000"/><path d="m407.206 296.909-3.872-.633-2.88-.352-.094-.095-.077-.085-.052-.146.216-2.06.124-.284.09-.069.165-.06 3.848.539M407.278 296.143l-.072.766M411.592 296.044l-1.155.13-1.603-.01h-.837l-.72-.021" clip-path="url(#p167a684a94)" style="fill:none;stroke:#000"/><path d="m407.484 294.184-.05.423-.156 1.536M411.592 296.044l1.034-.026 1.12.043 1.5.129 1.052-.009 1.198-.137M419.08 300.455l-.562-1.471-1.022-2.94M386.565 284.915l.59.123 5.034 2.198.155.343.09.483M391.745 290.225l.599-1.753.09-.41M391.132 282.375l-2.443-1.149M391.132 282.375l1.974-2.961M385.952 279.852l.186-.257.133-.386 1.877-2.796M390.804 277.778l-2.115 3.448M388.689 281.226l-2.124 3.689M385.952 279.852l.323.168.703.386 1.71.82M385.644 285.731l.563-.71.358-.106M379.613 274.256l1.3-3.024M379.613 274.256l-2.488-.701M383.224 267.017l-2.154-.885M380.913 271.232l1.268-2.317 1.043-1.898M384.529 264.496l-.264.593-1.04 1.928M383.745 256.13l.193-.563M383.745 256.13l-4.678-1.293M385.38 251.653l-1.442 3.914M383.612 245.477l1.519.824M383.612 245.477l-2.034-.816M379.222 254.27l.2-.732.354-.953.422-.867.553-1.082.827-1.596 2.034-3.563M379.067 254.837l.155-.568M381.578 244.661l-1.674 3.891M389.492 238.992l-.532 2.752-.226.571-.239.295-1.101.013-.4.623-.277.295-.285-.004-.605 1.279-.696 1.485M375.247 235.692l-.354.916.013.21.078.155.15.129.673.205.254.228.125.206.004.34-1.319 3.79M372.03 243.574l-.698-.223-1.253-.54M370.889 260.966l-2.049.426-.147.004-.101-.066-.053-.071.001-.097.147-.364.892-3.079M364.183 265.232l.776.403.09.094.033.069.01.097-.105.326-.42 1.045-.103.245-.209.477M361.02 262.206l-3.907-1.415M635.127 312.724l-.31-.239-.809-.661-.914-.816-1.104-1.099-1.077-1.202-1.301-1.57-.682-.868-.473-.6-.664-.86-1.034-1.399-4.569-5.812M619.074 294.494l.427.301.374.326.354.326 1.847 2.026.114.125" clip-path="url(#p167a684a94)" style="fill:none;stroke:#000"/><path d="m582.8 452.762 9.005-35.607 1.272-4.933.581-1.781 1.203-2.936 1.078-4.49.133-4.018.785-3.64 1.745-6.95.728-2.507.285-1.785 3.68-15.175 1.906-7.447.93-3.756.634-2.747.306-.285.338-.076.8.146 2.995.657.711.052.475-.245.21-.374.018-.57.065-.898.06-.227 1.224-3.382 1.835-4.654.44-1.468.75-2.734.449-.893.01-.663-.364-2.39.306-3.987-.194-.588-.155-.33-1.875-3.177-.194-.944.026-.558.478-2.833.35-4.851.5-1.425.612-1.344.732-3.1.673-3.905 1.534-8.826.474-1.468.414-.725 1.422-1.327M582.858 286.317l1.635-5.863M587.116 288.042l-.393-.12-.934-.283-.785-.275-.457-.18-.629-.292-.448-.249-.612-.326M612.14 292.601l.723.087 1.198.158 1.259.21.75.19.733.244.797.318.957.42.517.266M624.414 276.332l-.655 2.67-.63 2.662-.37 1.974-.518 2.885-.525 2.396-.276 1.02-.267.851-.173.55-.232.583-.388.739-.44.704-.379.472-.487.656M445.538 272.247l2.886.71M447.355 277.78l.704-3.222.365-1.601M430.09 259.03l4.782.33 2.412.313M384.529 264.496l-1.525-.665-1.455-.643-.437-.217M419.08 300.455l.985-.163M434.85 307.951l-3.338-.05-3.215.081M418.867 426.255l-.112-3.82-.017-3.847.12-2.919.259-1.717.414-1.786.586-1.253 1.758-2.953 3.397-5.53.93-1.853.535-1.288.38-1.923.16-2.985M424.717 369.21l.753 5.097.224.867.551 1.631.741 1.717.38 1.056.12 1.502-.025 3.185-.19 9.1.006 1.016" clip-path="url(#p167a684a94)" style="fill:none;stroke:#000"/><path d="m442.813 460.191.318-4.439.578-3.236.302-1.64.611-1.58.06-.497-.042-.292-.327-.292-.466-.292-1.138-.37-.353-.214-.12-.172-.044-.18-.009-.344.121-1.484.483-4.98.103-1.897-.215-2.36.008-1.503.043-2.42-.068-2.379-.302-3.228-.25-1.52-.353-1.45-.225-.679-.25-.489-1.336-1.94-1.362-1.786-.974-1.142-1.56-1.622-1.275-1.237-.707-.875-.621-.987-.845-1.77-.914-2.463-.75-2.172-.43-1.047-.285-.902-.543-2.446-.129-.678-.742-3.16-.56-1.614-.345-.893-.623-1.14M368.031 516.522l1.358-.391.862-.705.758-1.332.652-1.801 42.118-63.483M418.867 426.255l.009.3-.035 2.713-.293 2.197-.759 3.915-.396 1.752-2.67 9.46-.944 2.218M422.581 479.81l-5.36-13.283-3.442-17.717M368.031 516.522l2.452.607M411.71 313.026l-3.87.294M407.84 313.32l-2.986.538M393.171 340.421l1.802-.086 1.026-.137.543-.18.62-.344.975-.893.594-.575.388-.223.388-.232.344-.455.293-.66.354-.585.25-.875.595-2.499.345-1.047.448-.988.672-1.115.853-.928.63-.695.302-.395.172-.438.508-1.768 1.052-3.752 1.215-3.486.233-.85.095-.549-.043-1.09.015-2.256M379.833 315.766l-1.018-.13M387.776 315.739l-3.661.09-4.282-.063M377.388 317.112l.305.071.312.021.31-.03.303-.08.285-.128.26-.173.229-.212.19-.246.15-.274.1-.295M373.07 314.88l-4.827-.962M373.07 314.88l2.99.393M377.97 315.098l-2.064-.613-1.608-.455-.47-.03-.206.09-.173.176-.38.614M355.24 299.31l-.125.975-.38 2.421-.3 1.7-.168.557-.082.27-.257.723-.774 1.854-.228.653-.172.936-.091.519-.672 1.859-.5 1.7M297.23 301.999l.93.069 14.164 2.08 11.73 4.209 12.244 4.824 1.43.308 3.156.498 1.603.069 3.344-.138 5.66-.442" clip-path="url(#p167a684a94)" style="fill:none;stroke:#000"/><path d="m368.243 313.918-5.034-.91-1.12-.034-2.825.08-1.96.017-5.813.405M359.166 295.323l-2.879 2.335-.577.554-.216.279-.103.292-.15.528M367.562 277.99l-.53.91-.56.75-.59.735-1.643 1.798-1.637 1.88-.695.678-.728.7-.69.786-.586.884-.952 1.747-.293.649-.035.364.19.387.37.395.466.48.379.739.199.618-.009.712-.12.378-.932 1.743" clip-path="url(#p167a684a94)" style="fill:none;stroke:#000"/><path d="m378.352 279.9-.696.613-.522.541-.396.524-.435.678-.264.27-.172.134-.207.219-.193.296-.23.287-.176.223-.21.176-.807.644-.224.267-.534.734-.483.755-.285.34-.142.137-.288.12-.358.09-.397.176-.448.305-.155.137-.241.172-.195.124-.142.035-.118-.013-.278-.047-.856-.204-.162.002-.116.043-.064.051-.242.267-.594.875-.88 1.048-.797.944-.914.97-.306.275-1.457.828-1.918 1.108-2.284 1.279M375.987 279.653l-.469-.067-1.293-.283-1.31-.18-1.862-.267-1.396-.283-2.095-.584M368.947 274.757l-.247 1.198-.224.626-.509.825-.405.583M380.547 280.333l-.663-.163-1.532-.27" clip-path="url(#p167a684a94)" style="fill:none;stroke:#000"/><path d="m375.987 279.653.79.114.948.06.627.074M366.014 311.018l.738-2.117.844-2.147 2.37-5.181 1.931-4 1.5-3.238.276-.79.104-.609-.112-.713-.492-.883-.293-.756-.13-.826.2-1.02.43-.738.518-.55.853-.438 1.62-.6.845-.482.578-.532.69-1.193.698-1.46.525-.583.431-.679.12-.205.29-.945M366.014 311.018l-.406.443-.274.244-.115.157-.051.19.086.244.05.062.105.08.24-.009.112-.067.129-.218.065-.357.047-.449.012-.32" clip-path="url(#p167a684a94)" style="fill:none;stroke:#000"/><path d="m366.014 311.018-.012.32-.047.45-.065.356-.13.218-.112.067-.239.009-.105-.08-.05-.062-.086-.245.051-.189.115-.157.274-.244.406-.443M257.094 387.859l3.675 1.23 2 .068 3.31-1.442 1.655-.55 2.62-4.533-.62-2.816.137-1.648 2.07-2.679-.07-2.953.552-1.58 3.586-3.021 5.378-6.8 1.518-3.434 3.379-3.777 10.067-44.712.878-7.213" clip-path="url(#p167a684a94)" style="fill:none;stroke:#000"/><path d="m291.289 300.988 1.98.533 3.96.478M483.705 272.778l.241-1.382-.043-.215-.233-.197-.396-.164-2.94-.375M370.86 262.528l-.014-.687.043-.875M586.557 454.077l-14.108 39.054-10.086 25.35-12.366 42.09M586.557 454.077l-3.758-1.315M489.524 542.759l-4.052-1.527 14.529-42.16 22.687-65.628.206-.412.186-.309.16-.197.267-.138.193-.064.277.017.352.07 5.466 2 8.421 2.84 44.583 15.51M387.776 315.739l2.171-.172 2.455-.293 2.321-.29 7.93-.79 2.2-.336M405.774 308.176l-.32 1.982-.6 3.7M442.685 276.788l.61-2.215.785-3.487.586-2.704.452-2.652M442.685 276.788l4.67.991M439.563 289.313l.819-3.082.974-3.949 1.33-5.494M240.102 431.022l11.76-29.871M225.206 435.38l4.517.035.582-.172.495-.347.36-.486.184-.575 1.448-3.984.495-.393.596-.213.633-.011 5.586 1.788" clip-path="url(#p167a684a94)" style="fill:none;stroke:#000"/><path d="m201.727 528.509 37.207-94.518 1.168-2.969M251.861 401.15l5.233-13.291M146.057 421.148l42.188-.774 3.448-1.236 3.206-2.13 1.517-2.335 5.414-12.98 2.172-2.576 3.448-2.575 4.137-1.751 4.759.24 35.515 6.12M146.057 421.148l3.675-9.831M146.057 421.148l-24.96 62.892M248.411 555.121l.104-1.338-1.104-1.03-45.684-24.244M422.581 479.81l.68 1.685M309.54 244.102l-.698.247-.739.036-.718-.181-23.805-5.08-5.364-.711" clip-path="url(#p167a684a94)" style="fill:none;stroke:#000"/><path d="m312.852 237.269-5.233.327-4.738 1.307-3.244.69-3.536.145-2.623-.509-4.119-.98-4.264-.508-3.535.4-3.344.272M291.289 300.988l-34.195 86.87M309.54 244.102l.052 2.815-5.429 22.22-11.734 28.956-1.14 2.895M412.964 528.9l26.572 5.926M412.964 528.9l10.297-47.405M370.483 517.129l1.718.424 7.004 2.603 8.57 2.602 3.136 1.353 15.365 6.038 6.688-1.25M423.261 481.495l1.235 3.06 8.274 16.208 6.828 31.935-.062 2.128M352.398 546.492l16.306-26.024 1.779-3.34M384.56 272.357l-3.647-1.125M380.913 271.232l-2.895-.858M412.256 286.738l-3.397.019M444.416 290.67l2.939-12.89M444.416 290.67l-4.853-1.357M465.129 281.84l-.526-.094-1.43-.125-.78-.12-1.608-.322-.957-.24-1.207-.438-.646-.22-.263-.077-3.875-.833-1.948-.463-3.017-.601-1.517-.528M629.836 252.31l-.57 1.769-.508 1.451-.362 1.125-.267 1.03-.37 1.571-.466 2.276-.19.85-.137.729-.087.79-.112.824-.207 2.593-.043.566-.077.576-.113.626-.284 1.202-1.63 6.044M629.46 275.275l-.331 1.444-.069.163-.116.184-.186.155-.237.09-.16-.017-3.947-.962M634.183 255.014l-.309 1.332M637.27 257.212l-3.396-.866M633.874 256.346l-1.067 4.606M633.874 256.346l-3.398-.816M626.02 274.4l3.44.875M629.46 275.275l.834-3.662M629.46 275.275l3.36.747M626.813 270.854l3.481.759M630.294 271.613l.787-3.252M630.294 271.613l3.414.778M627.58 267.497l3.501.864M631.081 268.36l.758-3.565M631.081 268.36l3.326.683M631.839 264.795l.968-3.843M631.839 264.795l3.465.77M629.563 260.234l3.244.718M632.807 260.952l3.445.793M476.613 295.566l.624-2.74M435.246 305.2l.447-2.996M435.246 305.2l-.396 2.751M441.176 305.458l-3.561-.202-2.369-.056M438.873 318.975l.336.095.613.017 2.577-.043M441.176 305.458l.197 2.133-.043.36-.043.113-.043.064-.13.064-3.628-.112-2.636-.129" clip-path="url(#p167a684a94)" style="fill:none;stroke:#000"/><path d="m433.503 316.64-.017-.326.216-1.383 1.148-6.98M358.794 266.692l-.195.525M358.794 266.692l-2.412-1.081M587.116 288.042l-.86 2.178M612.14 292.601l-.897-.102-.965-.104-.82-.068-.506-.027-1.123-.033-1.526-.009-1.69.025-.836.012-1.335.02-.918-.04-.612-.047-.72-.09-.973-.189-.863-.215-.922-.291-3.278-1.061-2.506-.811-4.534-1.529M586.257 290.22l-.333.726M589.129 291.899l-1.539-.577-.51-.249-.326-.231-.224-.24-.273-.382M585.924 290.946l-.867 1.954M585.924 290.946l-2.68-.808M584.064 295.972l.993-3.072M612.019 287.897l.349.111.185.116.026.1.009.106-.06.653-.095 1.146-.078.85-.078.678-.137.944M312.852 237.269l-.828.695-1.447 5.109-.442.591-.595.438M538.225 271.396l-2.28 9.595M534.415 271.284l2.301.06 1.509.052M534.415 271.284l-1.993 8.836M534.415 271.284l-4.204-.104M405.974 261.692l-4.9-1.336M405.974 261.692l.722.337M366.466 251.021l-1.154-.293-1.104-.313M372.476 252.565l-1.807-.469-1.61-.414-2.593-.66M379.222 254.27l-1.933-.509-2.27-.568-2.543-.628M379.222 254.27l4.716 1.297M388.254 256.88l-2.184-.65-2.132-.663M388.254 256.88l2.073.663M397.809 259.466l-4.139-1.034-3.343-.889M397.809 259.466l3.265.89M385.952 279.852l-3.745 5.89M368.243 313.918l1.724-3.193M376.466 319.258l-1.55-.14-1.546-.177-1.541-.215-4.224-.807-.259-.309-.034-.326.931-3.366M483.007 324.873l.672 1.133.526 1.133.207 1.022.284 1.614.034.678-.267 1.417-.465 2.482-.448 1.493-.319.97-.56 2.558-1.233 5.624-.397 1.855-.664 2.54-.99 4.43-.484 2.13-.913 4.456-.345 1.201-.177.322-.306.477-.624.78-1.916 2.319-.321.494-.233.673-.44 1.906-.336 1.27-.228.855-.078.49-.034.274.103.442.418 1.533.186 1.086.004 1.506-.052.64-.194.974-.789 2.91-.258.954-.16 1.116-.276 1.674-.258 1.386-.306 1.185-.315 1.112-.478 1.837-.28 1.193-.328 1.73-.237 1.108-.164.51-.133.293-.776 1.133-.168.386-.09.377-.38 1.89-.142.922-.078.914-.021 1.353-.082 1.112-.168 1.128-.224 1.675-.181.815-.112.356-.16.378-.409.88M480.533 307.41l.715.49.405.37.138.154.586.576.345.566.095.626-.103.79-.932 2.138-.223.962-.233 1.923.043 4.112.207 1.373.344.997.466 1.099.62 1.287" clip-path="url(#p167a684a94)" style="fill:none;stroke:#000"/><path d="m480.533 307.41-.475 2.8-1.603 7.177-.5 2.112-.008.403.103.627.337.55 1.473 1.244 1.017.79.57.507.818.987.233.154.509.112M378.815 315.636l-2.755-.363M377.97 315.098l.423.155.263.19.159.193M377.97 315.098l.875-3.12M411.638 277.37l.855-.15 3.533-.248M405.774 308.176l.172-1.203.405-3.288.44-3.64.415-3.136M420.022 367.97l2.233.79 1.094.258 1.368.192M498.398 290.154l-.212 1.323-.742 3.769-.206.532-.362.352-.284.103-.587-.052-1.75-.674M387.776 315.739l.465-3.699M387.776 315.739l-.344 3.779M388.741 308.064l.448.24 16.585-.128M430.28 277.371l.74-3.655M438.873 318.975l-.207 9.023M433.503 316.64l.156.206.284.172 3.103.584.664.283.483.42.275.404.405.266" clip-path="url(#p167a684a94)" style="fill:none;stroke:#000"/><path d="m434.542 318.86.418.21 3.913-.095M428.72 318.623l1.62-.961 1.62-.619 1.543-.403M414.643 426.418l1.509.215.603.008.509-.103.69-.189.913-.094M445.959 260.515l.043.312.07.31.076.128.423.189 1.76.2.74.083 3.057.15M396.709 263.852l-2.085-.66M394.624 263.192l-.194-.042-.681-.15-1.5-.367M395.508 259.477l-.82 3.393-.064.322M400.925 260.843l.149-.487M401.558 256.346l-.293 3.27-.191.74M421.274 266.41l-.154.363M422.216 266.708l-.74-.257-.202-.042M417.637 266.771l1.54.152.716.043.56-.026.478-.081.189-.086M422.555 266.97l-.339-.262M465.129 281.84l4.02-19.46M368.947 274.757l7.536 2.657M375.987 279.653l.496-2.239M376.483 277.414l.642-3.86M357.577 236.062l-2.66-.785-6.405-1.965-2.413-.73-3.405-.996-2.276-.378-1.192.065-1.374.347-5.429 2.528-2.796.558-11.981 2.263-4.794.3M388.681 238.818l-.776-.167 1.206-3.496-11.046-3.319-15.104-4.682-3.424-.771M357.577 236.062l2.029-6.417-.069-3.262M530.211 271.18l-1.708 7.957M528.898 295.752l1.782-7.906M526.843 286.878l-1.668 7.775 3.723 1.1M534.113 288.697l-1.905 8.017-3.31-.962M434.348 330.374l.014.767M434.302 328.813l-.331.156-.226.286-.073.357.094.352.242.273.34.137M434.302 328.813l-.005-.803M434.513 339.332l-.151-8.19M388.681 238.818l.811.174M388.136 240.968l.475-1.853.07-.297M106.599 192.114l-1.827-.858-3.791-.346M102.207 192.343l-.627-.184-.85-.258.25-.99M105.322 195.51l1.277-3.396M105.322 195.51l-2.034-.858M403.302 268.069l4.008.778M386.719 307.109l-1.116 4.943M386.719 307.109l2.022.955M386.719 307.109l-2.62-1.237M385.603 312.052l-2.775.012M385.603 312.052l2.638-.012M384.1 305.872l-1.272 6.192M384.1 305.872l-3.034-1.433M384.224 290.447l.52.233M384.224 290.447l-3.854-1.726M384.224 290.447l-1.013 3.505M384.632 288.584l-.012.489-.396 1.374M384.744 290.68l5.997 2.686M384.744 290.68l.463-1.641.252-.33M384.744 290.68l-.993 3.525M380.37 288.72l-1.163 3.358M382.207 285.742l-.517.034-.431.378-.889 2.567M390.215 297.23l-6.464-3.025M390.215 297.23l.526-3.864M390.215 297.23l-1.017 7.472M382.327 297.302l.544.268M382.327 297.302l-4.43-2.185M382.327 297.302l-.907 3.541M382.327 297.302l.884-3.35M382.87 297.57l3.94 1.943M382.87 297.57l.881-3.365M382.87 297.57l-.927 3.533M381.943 301.103l-.523-.26M381.943 301.103l7.255 3.6M381.943 301.103l-.877 3.336M381.42 300.843l-5.3-2.629M381.42 300.843l-.861 3.357M376.12 298.214l1.777-3.097M376.12 298.214l-1.754 3.061M389.198 304.702l-.457 3.362M380.559 304.2l.507.24M380.559 304.2l-6.193-2.925M380.559 304.2l-.567 2.213M378.845 311.979l.362-.464 1.86-7.076M372.208 305.11l.776-1.425 1.382-2.41M379.992 306.413l-7.784-1.303M379.992 306.413l-.69 2.696M379.301 309.109l-8.235-1.137M379.301 309.109l-.559 2.183.103.687M371.066 307.972l1.142-2.862M371.066 307.972l-1.1 2.753M383.21 293.952l-4.003-1.874M383.21 293.952l.541.253M377.897 295.117l.57-1.288.74-1.751M377.388 317.112l-.922 2.146M376.06 315.273l.02.302.07.295.113.281.157.26.197.23.23.197.26.16.281.114M387.432 319.518l-6.984-.07-1.992-.064-1.99-.126" clip-path="url(#p167a684a94)" style="fill:none;stroke:#000"/><path d="m387.432 319.518-.26 2.866-.12.446-.5.24-10.069-.085-.637-.24-.052-.55.12-.567.552-2.37M391.745 290.225l-5.154-2.27M390.74 293.366l.155-.653.85-2.488M385.644 285.731l-.289-.05-.282.009-.275.061-.26.11-.234.156-.202.196-.162.23M386.591 287.956l.117-.255.068-.273.017-.28-.036-.28-.086-.266-.135-.247-.177-.218-.215-.182-.245-.14-.255-.084M384.632 288.584l.266.092.279.043.282-.01M383.94 286.443l-.117.256-.068.272-.016.28.036.28.086.266.134.247.177.218.215.182.245.14M383.94 286.443l-1.733-.7M385.459 288.709l.275-.061.259-.11.234-.156.202-.196.162-.23M388.741 308.064l-.5 3.976M378.845 311.979l-1.44-.103-1.438-.14-1.434-.178-1.428-.215-3.138-.618M378.845 311.979l1.327.06 1.327.028 1.329-.003M433.884 318.826l-.355.175-4.43-.155-.38-.223M436.719 339.28l-.036-8.157M436.683 331.123l-2.321.018M438.666 327.998l-.016 3.108-1.967.017M434.297 328.01l-.017-2.794M434.297 328.01l-8.818.023M434.297 328.01l4.37-.012M425.668 325.096l8.612.12M434.28 325.216l-.02-3.107M425.823 322.212l8.437-.103M434.26 322.109l-.02-3.195" clip-path="url(#p167a684a94)" style="fill:none;stroke:#000"/><path d="m434.542 318.86.26-.166.177-.252.068-.3-.051-.302-.163-.26-.25-.18-.3-.073-.304.048-.307.2-.184.314-.023.364.142.336.277.237M434.542 318.86l-.302.054M434.24 318.914l-.356-.088M528.503 279.137l-1.66 7.74M528.503 279.137l3.92.983M532.422 280.12l-1.742 7.726M532.422 280.12l3.522.871M535.944 280.991l-1.83 7.706M530.68 287.846l-3.837-.968M530.68 287.846l3.433.851M587.727 293.314l-2.67-.414M632.877 320.26l.725-.491 1.044-4.938.481-2.107" clip-path="url(#p167a684a94)" style="fill:none;stroke:#000"/></g><g id="PatchCollection_1"><path d="m495.815 250.05-.583.05-4.793-.682-15.321-2.274-2.57.307-1.432-1.35-11.579-3.626-1.046-1.003-.077-2.082-.752-.257-.907.453-.024 1.845-4.496 1.286.595.851 3.12-1.408 1.415-.073 2.535 2.04-.37.52-1.38.597-1.021.478-1.801.359-1.08.897 4.864 2.643 9.312 3.456 1.655.275.965 3.09 6.982.231 7.921 2.08 3.37-2.508 1.797-.64.863.552 1.531.015 1.953-1.383 2.138 1.268 3.23.317 3.504-1.54h1.364l15.437 6.37 10.146 1.735 11.23 2.815 4.57-.154 8.287 1.967 6.66-.926 6.08 4.745 12.857 5.67 6.467 2.275 4.144.078 4.376 2.738 4.647.964 1.316.849.35 4.088 1.355 1.119-1.032 2.825 1.406.034.224.518-.263.313-.184 1.469-.601 2.609-1.59.54-2.97-.096-1.3-.908-1.203-.464-4.676 3.267-3.512.212-2.406 1.044.37 1.449 5.296-1.121 2.832-1.198 1.689-1.604 1.882 1.063 3.822-.503 2.212-.367.815-1.643.562-2.13.559-2.028-1.03.018-.2-.477 1.733-.179-.576-3.029-.427-1.813 1.317-2.854.697-2.7-1.084-1.388-1.743-1.775-3.911-.848-7.707-.502-3.33.347-3.562-2.005-9.334-3.047-8.403-3.51-6.118-3.587-5.073.27-7.94-.887-6.66-1.234-1.24-2.045-7.511-1.041-10.573-1.813-11.617-3.626-1.518-.55-8.125-2.844-4.375.579zM392.351 243.289l-.663-.095-.604-.283-.68-.189-.56-.197-.027-.129.199.009.611.068.362-.026.138-.18.423-.051.328-.103.482.05.327.268-.077.514-.103.24zM634.631 283.961l6.793 2.576.551.996 1.31 1.442.277 1.099 3.137 1.889 2.241 1.648 2.655.034 3.517.207 3.827.034 1.896-1.168 1.518-1.477 1.723-1.991-.448-.275-2.344-.275-1.414-.274-1-.928-1.862-.172-.724-.618-.655-1.064-1-.584-5.55-.687-4.38.343-9.499-2.317-.534.274-.5-.034-.276.24-.673.292.277.498zM440.303 249.283l.108 1.629.365.107.258-.343.323-.471.28-.108.494-.407.28-.279-.129-.3-.28-.192-.796.3zM519.16 343.617l2.413-.55 1.932.07 1.93-.07.207-1.03.414-.618.414.55-.276.618 1.103.343.897.412-.12 1.026.951.631-.039.71.04.592-.476.158-.198 1.222v1.5l-.04 2.208-.831 1.105-.436.75-.673.71-.357.75-.237.354-.396.197-.911 1.42-.555.829.396 1.46.872 1.222.079 1.223.238 1.46v.592l-.872 1.104-1.109.592-.95-.316-1.109-.474-.872-.788-.593-.434-.555-.355-.317.394-.238.316-.594-.198-.436-.59-.277-.593-1.069-.434-.792-.079-.198.474-1.347.316-.554.473.02.435.3.449.03.359-.51.388h-1.473l-.87-.179-1.442-.658-.99-1.107-.18-1.764.06-2.453.69-.329.03-.688 1.501-2.063.931-.509 1.231-1.197 1.292-2.87 1.141-2.73 1.712-2.391.78-1.167zM617.377 428.598l3.345 6.246-2.09 4.372-3.868 1.354-2.822-.417-1.776-1.978 1.776-4.684 1.986-3.748 1.15-.937zM185.798 396.889l2.04 1.554-1.08 4.305-2.161 1.196-2.04-.12-1.922-2.152 1.2-2.511.721-1.435 1.321-1.076z" clip-path="url(#p167a684a94)" style="fill:#00f;fill-opacity:.8"/></g><g id="PathCollection_1"><defs><path id="m2732271817" d="M0 3a3 3 0 1 0 0-6 3 3 0 0 0 0 6z" style="stroke:green;stroke-opacity:.8"/></defs><g clip-path="url(#p167a684a94)"><use xlink:href="#m2732271817" x="393.515" y="239.41" style="fill:green;fill-opacity:.8;stroke:green;stroke-opacity:.8"/><use xlink:href="#m2732271817" x="393.7" y="239.096" style="fill:green;fill-opacity:.8;stroke:green;stroke-opacity:.8"/><use xlink:href="#m2732271817" x="393.159" y="238.982" style="fill:green;fill-opacity:.8;stroke:green;stroke-opacity:.8"/><use xlink:href="#m2732271817" x="392.617" y="238.863" style="fill:green;fill-opacity:.8;stroke:green;stroke-opacity:.8"/><use xlink:href="#m2732271817" x="392.081" y="238.718" style="fill:green;fill-opacity:.8;stroke:green;stroke-opacity:.8"/><use xlink:href="#m2732271817" x="391.512" y="238.577" style="fill:green;fill-opacity:.8;stroke:green;stroke-opacity:.8"/><use xlink:href="#m2732271817" x="390.937" y="238.432" style="fill:green;fill-opacity:.8;stroke:green;stroke-opacity:.8"/><use xlink:href="#m2732271817" x="390.357" y="238.297" style="fill:green;fill-opacity:.8;stroke:green;stroke-opacity:.8"/><use xlink:href="#m2732271817" x="389.805" y="238.173" style="fill:green;fill-opacity:.8;stroke:green;stroke-opacity:.8"/><use xlink:href="#m2732271817" x="389.236" y="238.102" style="fill:green;fill-opacity:.8;stroke:green;stroke-opacity:.8"/><use xlink:href="#m2732271817" x="388.933" y="238.07" style="fill:green;fill-opacity:.8;stroke:green;stroke-opacity:.8"/><use xlink:href="#m2732271817" x="391.407" y="238.888" style="fill:green;fill-opacity:.8;stroke:green;stroke-opacity:.8"/><use xlink:href="#m2732271817" x="416.391" y="254.657" style="fill:green;fill-opacity:.8;stroke:green;stroke-opacity:.8"/><use xlink:href="#m2732271817" x="391.55" y="238.867" style="fill:green;fill-opacity:.8;stroke:green;stroke-opacity:.8"/><use xlink:href="#m2732271817" x="389.581" y="239.237" style="fill:green;fill-opacity:.8;stroke:green;stroke-opacity:.8"/><use xlink:href="#m2732271817" x="389.861" y="239.336" style="fill:green;fill-opacity:.8;stroke:green;stroke-opacity:.8"/><use xlink:href="#m2732271817" x="390.263" y="239.412" style="fill:green;fill-opacity:.8;stroke:green;stroke-opacity:.8"/><use xlink:href="#m2732271817" x="389.584" y="238.748" style="fill:green;fill-opacity:.8;stroke:green;stroke-opacity:.8"/><use xlink:href="#m2732271817" x="587.209" y="287.683" style="fill:green;fill-opacity:.8;stroke:green;stroke-opacity:.8"/></g></g><g id="PatchCollection_2"><path d="m404.412 240.057.723-4.68 30.34 2.682.142 4.462-10.254.91-.573-.069.052-.658-1.892-.316-.296 1.447-.158.15-.816.138-.956-.103-.312-.416-.33.086-.087-.553-1.118.09-.282.003-.912-.376.331-1.447-.933-.356-1.234-.128-1.632-.123-2.388-.803-1.606.097-1.653.326z" clip-path="url(#p167a684a94)" style="fill:#f4a460;fill-opacity:.8"/><path d="m435.475 238.06 3.112.119 5.696-.52 5.8-1.145 2.855-1.215 8.885-3.737 2.311-1.555.93-.388.931-.18 1.771-.15 1.32-.059 1.292-.09 1.26.06 1.065 7.77-13.155 1.566-.526.051-2.779.437-1.61 1.53-2.754 1.384-1.253 1.112-.531.683-4.368.276-.558-.58-1.713-.967-4.815.424-3.024-.365zM354.664 226.65l.6-3.281 6.33 1.885 8.436 1.692 14.876 4.763 20.23 3.669-.724 4.679-3.7-.605-3.673-1.395-2.964.94-5.29-1.141-.25.506-1.86-.45.678-1.575z" clip-path="url(#p167a684a94)" style="fill:#f4a460;fill-opacity:.8"/><path d="m471.638 229.2 5.742-.226 4.82-.172 6.887-.857 6.973-1.715 9.466-4.414 5.167-3.778 4.82-3.984 4.791-3.764 4.379-1.778 4.068-.146 7.405 2.963 3.376 1.268 8.275 7.14-2.069-1.304-6.981-3.692-7.834-3.173-3.099-.275-6.826 11.267-6.125 3.561-6.987 3.643-2.914 1.115-3.316 1.233-7.058 1.536-.642 1.335-21.253 1.988zM22.133 121.603l25.258 10.232 1.11.69 5.379 2.027 4.517.928 3.655 1.476 11.093 4.856 14.724 6.183 18.371 5.781 10.53 3.477 10.895 3.4 6.31 2.61 9.967 2.474 6.48 1.818 12.033 4.022 22.308 4.804 18.135 1.89 11.62.926 11.068.687 2.344 1.374 3.483 1.82 8.309 3.88 8.344 3.64 13.723 4.362 13.481 2.748 14.17 5.46 5.931 1.51 14.758 5.049 7.102 2.782 13.688 2.816 24.346 8.044-.6 3.28-9.003-3.671-15.148-4.568-15.078-3.876-20.986-7.406-8.824-2.837-12.161-4.499-17.372-2.768-19.178-7.545-8.13-4.706-12.369-2.768-12.507-.346-1.599-1.038-13.341-1.454-6.74-.277-21.333-4.29-21.68-6.368-32.098-11.09-15.723-5.677-8.894-2.35-17.59-8.075-6.24-2.593-16.41-5.824-15.233-6.362-5.208-2.741z" clip-path="url(#p167a684a94)" style="fill:#f4a460;fill-opacity:.8"/></g><g id="PatchCollection_3"><path d="m418.877 243.226 1.118-.089.086.553.33-.086.313.416.956.103.816-.138.158-.15.814.134-.375 2.179-4.353-.751zM446.59 260.68l4.72.213-.78.826-3.891-.603z" clip-path="url(#p167a684a94)" style="fill:green;fill-opacity:.8"/></g><g id="PatchCollection_4"><path d="m429.36 274.093 1.38.421-.596 2.816-1.646-.335zM429.402 279.143l4.12 1.164-1.466 6.174-4.239-1.026zM429.63 288.459l.54 1.076-1.831.929-.575-1.082zM427.06 293.964l1.513.397-.524 1.914-1.513-.362zM419.148 263.698l.793-3.688-2.415-.642-.793 3.627zM454.09 248.43l-.323.854 1.682.631.324-.853zM421.99 245.672l1.08.232.307-1.682-1.102-.142zM375.118 291.247l.879-.292.62 1.95-.87.308z" clip-path="url(#p167a684a94)" style="fill:#90ee90;fill-opacity:.8"/></g><path id="PatchCollection_5" d="m426.983 293.834 1.725.422-.712 2.714-1.744-.456z" clip-path="url(#p167a684a94)" style="fill:#006400;fill-opacity:.8"/><g id="PathCollection_2"><defs><path id="m77b7b44d2d" d="M0 3a3 3 0 1 0 0-6 3 3 0 0 0 0 6z" style="stroke:#006400;stroke-opacity:.8"/></defs><g clip-path="url(#p167a684a94)"><use xlink:href="#m77b7b44d2d" x="499.729" y="234.198" style="fill:#006400;fill-opacity:.8;stroke:#006400;stroke-opacity:.8"/><use xlink:href="#m77b7b44d2d" x="508.609" y="230.062" style="fill:#006400;fill-opacity:.8;stroke:#006400;stroke-opacity:.8"/></g></g><g id="PatchCollection_6"><path d="m442.323 247.547-3.065-.05-2.65.129-2.042-.348-1.139.827 1.122.775 4.705.34 1.457-.28.822-.04zM506.48 259.821l-1.131 6.058-1.23-.267-.571 3.234 4.432.625 1.69-6.49 10.137 4.704 3.965.206 5.31.687-.552 1.923 12.643.206 6.516 1.339 9.403 1.82 9.482 2.68 6.39 3 3.448 1.855 1.276-5.22-9.552-4.361-5.86-4.155-7.035.343-8.333-1.786-4.552-.103-11.654-2.987-9.798-1.717-10.033-2.548z" clip-path="url(#p167a684a94)" style="fill:#006400;fill-opacity:.8"/></g><g id="PatchCollection_7"><path d="m496.99 274.613 1.395.286-.485 2.279-1.396-.267zM498.3 268.918l1.288.267-.802 4.003-1.376-.305zM500.231 267.938l.262-1.325-1.388-.397-.352 1.405zM378.958 280.495l2.509.625-4.234 11.972-10.177 20.157-3.362-.598 1.555-5.427 2.234-5.38 4.382-10.434.824-3.107zM621.289 295.307l6.483 8.13 10.866-48.118-8.224-1.734-3.543 14.292-3.4 14.029-1.982 9.206.399.518zM584.456 279.567l1.784.49-1.456 4.574 3.301 1 .512-1.143 1.927.49-.41 1.307 3.158.94-.184.693 1.004.43-.43 1.429 4.51 1.307.635-2.165 2.501.613-.369 2.062-2.665.552-.718 2.9-9.143-3.677-1.415 4.064-2.193-.98.369-1.082-3.67-1.144.041-3.084z" clip-path="url(#p167a684a94)" style="fill:#d3d3d3;fill-opacity:.8"/></g><g id="PatchCollection_8"><path d="m480.06 266.713.547-1.778.907.276-.547 1.779zM490.21 267.124l.624.11-.11.62-.623-.109zM400.946 253.745l.402.059-.078.524-.402-.06zM480.882 261.99l-.033 1.215-.458-.011.033-1.217zM487.582 267.804l.052-.44.331.038-.052.44zM424.131 271.097l.243-.959.372.094-.242.96zM483.158 264.076l.234-.776.483.144-.234.777zM489.638 266.922l.488.062-.109.855-.488-.063zM491.767 270.05l.413.078-.084.44-.414-.079zM423.844 267.75l.598.151-.198.782-.598-.15zM482.662 268.522l.415.013-.013.428-.416-.013zM400.272 259.456l.203-1.448.581.081-.203 1.447zM401.835 253.913l-.2 1.598-.433-.054.2-1.598zM480.004 262.261l.208-.427.218.104-.208.428zM420.281 271.666l.578-2.029.63.178-.577 2.029zM482.645 263.863l.188-.648.472.137-.188.647zM488.492 264.917l-.49-.106.176-.802.49.106zM481.355 262.953l-.449-.322.182-.252.45.322zM489.603 268.541l.396.09-.081.355-.397-.09zM425.196 268.139l.49.123-.189.746-.329-.082.057-.227-.161-.04zM481.235 269.624l.052-.567.724.067-.052.566zM426.443 268.429l-.175.69-.225-.057.072-.283-.296-.075.102-.406zM482.944 266.432l.37-.004.006.634-.37.004zM423.359 269.444l.112-.444.216.054-.112.444zM486.68 264.432l.142-.79.32.058-.042.23.234.043-.102.559zM498.722 267.463l-.643-.14.176-.797.643.141zM481.129 262.261l.178-.294.246.15-.178.292zM493.623 268.197l.858.2-.246 1.04-.858-.202zM489.434 269.383l.81.253-.215.68-.81-.254zM489.564 269.298l.07-.329.338.072-.07.329zM482.106 266.05l.49.147-.267.88-.49-.147zM418.1 268.48l.187-.66 3.4.96-.187.661zM473.91 265.558l.138-.574.467.111-.138.575zM488.395 268.082l.617.149-.082.335-.617-.149zM422.95 267.518l.413.103-.174.688-.413-.105zM472.314 264.466l.17-.829.633.129-.17.828zM486.79 267.157l-.091.951-.426-.04.09-.952zM509.243 271.356l.043-.204.279.058-.043.204zM481.706 267.076l.378.099-.11.42-.378-.098zM424.561 271.6l.146-.576.466.117-.147.577zM423.215 271.018l-.508-.128.254-1 .508.128zM479.322 266.177l.224-.818.52.141-.224.817zM416.022 252.874l.273-.984.6.165-.274.984zM488.85 268.722l-.054.513-.695-.07.053-.514zM399.605 255.492l-.537-.102.338-1.748.537.103zM424.546 268l.527.132-.153.602-.527-.132zM484.782 264.374l-.335-.102.143-.466.335.102zM419.094 269.118l1.471.416-.212.746-1.472-.415zM428.675 278.58l.244-.951.598.152.099-.384.69.176-.098.377.175.045-.247.957zM491.197 268.279l-.461-.12.218-.834.462.12zM483.396 268.338l-.384-.015.02-.486.383.016zM422.271 269.886l.472.11-.152.648-.472-.111zM478.49 265.356l.374.188-.251.496-.375-.188zM417.054 253.779l-.527-.152.429-1.482.527.152zM477.893 263.108l.078-.757.475.049-.077.757zM422.444 269.138l.233-.921.528.132-.233.922zM482.596 267.814l.397.027-.033.478-.396-.027zM489.045 265.545l.155-.854.456.082-.156.855zM401.77 255.078l.137-1.036.526.07-.137 1.035zM495.72 266.92l.241-.945.781.197-.24.945zM506.416 271.137l.403.117-.22.757-.404-.116zM481.878 263.688l.071-.395.345.062-.071.395zM422.616 269.32l.248.063-.095.372-.248-.063zM495.507 266.842l-.847-.218.209-.805.33.084.148-.573.517.133zM483.918 263.993l.13-.486.333.088-.13.486zM478.893 266.997l.182-.407.305.135-.182.407zM429.374 259.364l.4.115-.3 1.058-.466-.132zM489.226 270.631l.12-.46.526.137-.12.46zM481.148 269.73l.786.067-.047.548-.785-.066zM423.034 269.352l.121-.477.266.068-.12.476zM406.624 254.715h.507v.997h-.507zM402.81 254.819l-.333-.036.091-.829.333.036zM497.403 266.913l-.685-.175.253-.984.685.175zM506.773 271.756l.125-.44.309.086-.125.44zM482.287 263.772l.105-.427.336.081-.104.428zM415.224 253.33l.396-1.164.512.173-.396 1.165zM479.268 272.083l-.37-.135.07-.19.37.136zM432.748 261.253l.654.143-.245 1.105-.653-.144zM521.341 268.565l.15-.596.827.206-.15.596zM433.795 259.526l.473.126-.207.777-.474-.126zM451.74 258.398l.404.06-.034 1.064-.44-.043zM435.743 260.294l-.32.012.046-.644.361.027zM429.714 258.07l1.185.23.442-2.257-1.185-.23zM441.29 260.829l.237.04-.168 1.19-.293-.035zM446.98 258.441l.36.02-.078 1.147-.347-.03zM447.791 259.614l-.267.012.035-.797.278.003z" clip-path="url(#p167a684a94)" style="fill:#a9a9a9;fill-opacity:.8"/><path d="m446.91 259.51-.386-.011.05-.9.399.023zM500.818 242.589l1.01.197-.218.73-.574-.04-.377-.119zM494.472 237.198l.887.097-.118 1.066-.887-.097zM496.08 236.517l.567.045-.059.74-.567-.045zM457.397 255.814l.945.395-.293.841-.963-.352zM453.684 258.833l-.13.859.953.143.079-.885zM444.157 258.646l.673.023-.035 1.028-.673-.023zM445.89 245.459l.558-.013.009.513-.597.005zM446.512 249.951l.014.565.712-.034-.01-.564zM442.61 261.041l.558.028-.038.753-.559-.028zM445.028 246.551l.008.862.649-.009-.059-.862zM458.002 261.997l-.041.57 1.063.122v-.611zM442.073 260.958l-.093.653.42.06.094-.653zM414.373 253.43l-.155.772.922.184.156-.773zM442.661 259.528l.911.01.014-1.208-.911-.01zM405.588 250.086l-.122.642.48.087.13-.66zM407.134 252.808l-.05.471.325.034.05-.471zM443.674 258.889l.28.005-.008.43-.28-.004zM431.594 259.324l.336.096-.176.613-.336-.095zM432.503 257.912l.37.016-.008-.471-.319-.026zM496.89 275.53l.535.139-.277 1.242-.505-.109zM498.993 266.989l1.25.292-.112.533-1.258-.292zM502.347 266.013l1.103.328-.41 2.266-1.25-.272z" clip-path="url(#p167a684a94)" style="fill:#a9a9a9;fill-opacity:.8"/><path d="m502.347 266.013-1.149-.272-.41 2.299 1.002.295zM501.05 264.109l-.386 1.971-1.456-.385.352-1.858zM507.397 232.68l-.105.95-1.3-.156.124-.898zM495.161 234.179l.634-.033-.006.313-.138.006.014.378-.334.006-.026-.397-.15.02zM429.715 287.745l.261.43-3.082 1.62-.228-.486zM427.952 286.896l.819.407-.194.408-.853-.43zM426.871 287.507h.466v1.02l-.511.023zM427.826 287.53l.501.192.034.544-.511.261-.399-.25-.01-.52zM426.983 293.834l1.725.422-.712 2.714-1.744-.456z" clip-path="url(#p167a684a94)" style="fill:#a9a9a9;fill-opacity:.8"/><path d="m426.379 296.048 1.744.438-.127.484-1.744-.456zM365.081 238.735l-.438 1.282.735.216-.094.284-1.002-.28.452-1.617zM394.128 239.586l.399.142-.47 1.487-.355-.127z" clip-path="url(#p167a684a94)" style="fill:#a9a9a9;fill-opacity:.8"/><path d="m393.659 240.11.303.062-.137.481-.308-.104zM387.044 238.523l.668.156-.057.199.711.184-.469 1.644-1.366-.298zM495.743 240.191l-.058.498 1.067.123.167-1.424-.42-.049-.108.928zM452.074 251.32l-.175.414.399.167.175-.415zM453.462 252.4l.169-.395.38.16-.168.397zM453.552 251.964l-.182.413-.404-.176.182-.413zM452.371 251.926l.365.167.187-.404-.365-.167zM460.217 259.293l.527.047-.09 1.004-.527-.047zM396.28 241.093l.362.13-.173.54-.37-.12zM396.999 241.317l.362.128-.173.54-.37-.12zM397.628 241.505l.363.13-.173.54-.37-.12zM398.284 241.72l.362.129-.173.54-.37-.12zM404.611 244.766l.238.266.435-.336-.079-.079.07-.059-.149-.216-.198.177-.079-.098-.208.187.06.079zM404.483 245.426l.237.267.436-.336-.08-.079.07-.06-.148-.216-.198.178-.08-.099-.208.187.06.08z" clip-path="url(#p167a684a94)" style="fill:#a9a9a9;fill-opacity:.8"/><path d="m404.374 246.018.237.267.436-.336-.08-.08.07-.058-.149-.217-.197.178-.08-.1-.208.188.06.079z" clip-path="url(#p167a684a94)" style="fill:#a9a9a9;fill-opacity:.8"/><path d="m404.275 246.62.237.265.436-.334-.08-.08.07-.059-.149-.217-.197.178-.08-.099-.208.188.06.078zM504.373 262.155l.264.55-.449.214-.198-.41.068-.033-.067-.14zM504.123 261.257l.264.55-.449.215-.198-.41.068-.033-.067-.14zM503.157 261.206l.265.55-.45.214-.197-.41.068-.032-.068-.14zM502.563 261.935l.264.551-.45.214-.197-.41.067-.033-.067-.14zM502.338 262.845l.265.551-.45.214-.197-.41.067-.033-.067-.14zM503.519 262.339l.265.55-.45.215-.197-.411.068-.032-.068-.14zM503.286 263.257l.265.551-.393.158-.253-.355.066-.032-.067-.14zM504.32 263.017l.265.55-.449.215-.197-.411.067-.032-.068-.14zM505.123 262.553l.264.55-.45.215-.197-.41.068-.033-.067-.139zM505.045 263.515l.265.55-.45.215-.198-.41.069-.033-.068-.14zM371.363 262.94l.789.17-.138.634-.789-.17zM478.006 264.781l.51.22-.673 1.397-.51-.254zM474.672 263.768l.821.29-.427 1.195-.82-.291zM473.751 263.763l.69.13-.191 1-.689-.13zM473.199 263.747l.405.085-.175.837-.406-.084zM471.714 263.642l.308.083-.152.561-.309-.083zM470.678 263.516l.315.084-.179.673-.316-.084zM450.575 258.962l.6.031-.035.67-.6-.031zM447.632 261.697l.393.054-.121.88-.393-.054zM446.804 261.597l.328.075-.198.858-.327-.076zM446.358 261.6l.296.057-.166.852-.295-.057zM445.312 261.277l.431.082-.207 1.078-.409-.194zM388.868 239.24l.486.107-.205.93-.486-.107zM389.514 239.355l.624.126-.135.67-.624-.125zM389.667 238.53l-.018-.049-.034-.04-.044-.026-.051-.01-.05.006-.044.022-.036.035-.022.045-.007.048.009.05.024.043.037.033.045.02.05.005.05-.012.044-.029.031-.04.016-.05zM389.785 238.614l.2.335.254-.151-.043-.074.194-.114-.154-.261zM390.253 243.617l.292.277.122-.128.734.696-.598.624-1.026-.973zM389.598 240.395l.984.152-.127.81-.266-.042-.044.282-.718-.112zM411.645 252.307l.84.139-.26 1.265-.818-.168zM124.532 195.333l1.206.305-.38 1.497-.626-.157.27-1.055-.583-.148zM100.369 191.967l1.277.42-.235.708-1.277-.42zM101.663 192.61l.374.121-.148.462-.375-.12zM391.68 248.217l.511.255-.36.724-.525-.328zM414.067 255.253l1.016.304-.6 1.986-1.015-.304zM593.115 288.227l.507.188-.395 1.063-.508-.187z" clip-path="url(#p167a684a94)" style="fill:#a9a9a9;fill-opacity:.8"/></g><g id="PathCollection_3"><defs><path id="mfa127c342b" d="M0 3a3 3 0 1 0 0-6 3 3 0 0 0 0 6z" style="stroke:#a9a9a9;stroke-opacity:.8"/></defs><g clip-path="url(#p167a684a94)"><use xlink:href="#mfa127c342b" x="473.681" y="273.488" style="fill:#a9a9a9;fill-opacity:.8;stroke:#a9a9a9;stroke-opacity:.8"/><use xlink:href="#mfa127c342b" x="468.704" y="260.8" style="fill:#a9a9a9;fill-opacity:.8;stroke:#a9a9a9;stroke-opacity:.8"/><use xlink:href="#mfa127c342b" x="475.264" y="266.906" style="fill:#a9a9a9;fill-opacity:.8;stroke:#a9a9a9;stroke-opacity:.8"/></g></g></g></g><defs><clipPath id="p167a684a94"><path d="M90 158.749h558V568.45H90z"/></clipPath></defs></svg>