<svg xmlns="http://www.w3.org/2000/svg" width="960" height="960" viewBox="0 0 720 720"><defs><style>*{stroke-linejoin:round;stroke-linecap:butt}</style></defs><g id="figure_1"><path id="patch_1" d="M0 720h720V0H0z" style="fill:#fff"/><g id="axes_1"><path id="patch_2" d="M90 558.86h558V168.34H90z" style="fill:#fff"/><g id="LineCollection_1"><path d="m419.532 322.798 2.116.954M419.532 322.798l-5.694-2.648M419.532 322.798l.36 2.938M419.977 334.232l4.01-.58M419.977 334.232l-2.05.232M419.901 335.2l-.01-.183.086-.785M420.341 329.416l.442 3.603-.052.517-.292.395-.462.3M421.543 348.999l-.544-.853-.81-1.627" clip-path="url(#p320631ee16)" style="fill:none;stroke:#000"/><path d="m416.934 347.067 2.516-.424.74-.124M419.901 335.2l-.027.47-.027.452-.037 1.537.037 6.868.144 1.31.199.682M421.543 348.999l.398.101M421.543 348.999l-4.193.93M423.392 349.704l-.186-.135M423.392 349.704l1.698 2.14M423.392 349.704l2.167-.619.454-.13 2.116-.39M433.439 366.37l-4.36-8.095M433.439 366.37l.344.679M428.318 364.673l2.189.726 2.932.972M468.835 434.837l.439 2.076M456.77 408.966l3.946 7.071 4.204 8.035 2.184 4.862 1.73 5.903M468.835 434.837l.756 1.792M473.97 437.392l-2.32.448-.692-.143-.791-.427-.576-.641M470.19 438.848l.012-.078.054-.384-.194-.57-.471-1.187M469.274 436.913l-.044 1.04-.575.884-.764.626-.655.392" clip-path="url(#p320631ee16)" style="fill:none;stroke:#000"/><path d="m469.274 436.913.23 1.111.23.585.363.191.093.048M470.19 438.848l.737-.283 3.043-1.173M527.554 429.922l-.577.025-25.9 1.792-3.733.236-6.776.416-3.71.628-3.2.73-2.923 1.047-6.765 2.596M467.236 439.855l1.683-.568 1.271-.439M393.153 450.77l56.997-7.215 7.664-1.028 4.522-.993 4.9-1.68M150.96 371.51l2.733-.892 2.012-.518 3.042-.596 1.576-.07 1.815.14M189.224 381.12l-.997-.482-3.546-3.123-2.55-2.963-.737-.635-1.014-.619-1.853-.878-.903-.297-2.543-.494-1.656-.392-2.139-.283-1.576-.18-2.733-.086-1.006-.165-1.473-.485-2.36-.463M162.304 416.406l-.214-.744-.143-.565-.143-1.167-.158-2.697-.11-2.351-.16-2.124-.49-4.083-.143-1.153-.214-.635-.602-1.206-.159-.753.056-.752.325-2.9.087-1.09-.08-4.57v-1.05l.223-1.348.356-1.223.42-.948 1.481-3.414.202-.654.06-.423.122-6.407-.285-.85-.558-.765-.523-.427-.578-.514-.175-.231-.016-.349.662-.556.281-.302.31-.58M112.224 461.058v-1.85l.103-2.547.167-3.872-.063-1.787.11-1.09.76-3.495.151-1.09.198-2.468.293-5.142.286-4.201.197-3.464.12-3.723.023-2.712.084-1.44.21-3.654-.096-.777-1.528-7.493-1.831-8.573" clip-path="url(#p320631ee16)" style="fill:none;stroke:#000"/><path d="m162.304 416.406-3.81 4.217-3.93 4.523-1.917 2.108-1.568 1.818-2.297 2.688-3.193 3.786-2.518 2.986-1.585 1.772-.958.932-3.87 2.975-.733.517-4.763 3.193-.615.4-6.884 4.703-3.05 2.1-4.278 2.799-1.124.791-1.798 1.388-1.189.956M106.981 478.59l.356-3.824.23-1.513.324-1.654 1.14-4.608.5-1.568.46-1.136.91-1.638.619-.76.704-.831M230.65 470.864l-2.304.172-3.833-.019-7.52.035-30.751.492-10.035-.018-1.372-.028-16.65.313-13.435.031-6.02.079-7.51.25-2.551.267-2.344.454-6.533 1.78-12.81 3.918M189.224 381.12l2.086 1.078h.927l.556-.849 3.291-5.733.88-.757 2.666-1.078 2.11-.481 2.201.206 4.126 1.95 9.572 5.893 3.732.712 1.53.023 3.198-.574 14.532-2.683 3.917-1.743 3.847-1.537 6.351-2.087 5.725-1.467 1.916-.99.322-.171 2.272-2.377 2.114-2.076 1.82-.681 8.735-1.914 4.6-.442 6.188.734 1.599.39.742.665 2.153 4.117M196.095 408.165l1.306-.384 2.294-.275 6.23.701 1.918.34 6.31-.891 2.54-.47 1.393-.066 2.213.422 1.507.746 6.818 4.622 6.834 4.492 2.574 1.735 1.655.989 1.704.356 1.901-.178 7.277-1.378 2-.227 7.583.259 14.242.146 2.687-.276 1.836-.649 1.492-.989 1.622-1.702 1.311-2.254.422-1.824.255-9.105.672-18.14.788-3.119 1.924-3.783 4.682-7.133.847-.882M407.54 360.025l-1.707.057-2.164.195-9.292.616-16.321 1.211-17.452 1.147-22.227 1.49-14.062 1.071-5.18.324-9.472.616-7.241.649-1.808.114-4.242.299-2.433.917-1.007.517" clip-path="url(#p320631ee16)" style="fill:none;stroke:#000"/><path d="m196.095 408.165-5.628-14.098-.131-1.297 1.159-5.137-.07-1.124-.626-2.041-1.575-3.348M162.304 416.406l1.18-1.379 1.093-.988 1.378-1.003 1.244-.525 1.006-.337 1.085-.184 1.14-.06 1.351.154 1.292.274 1.041.373 2.258.81 1.818.796 2.59.995 1.549.58.82.232 1.283.223.76-.074.808-.223.733-.26.59-.38 2.474-2.107 3.084-2.836 3.214-2.322M449.465 330.554l.416-.431.752-1.297 4.124-9.435 6.503-15.797.388-2.233v-2.665l-.242-2.377-.801-2.593-.922-2.977v-1.08l.534-2.185.97-2.4 1.941-2.762 2.936-3.289 2.524-3.481 1.916-1.897 3.259-2.613 3.208-2.427 6.794-5.212 2.676-1.528 3.552-2.784 4.049-2.309 3.448-2.461 2.097-2.137.557-1.146.947-2.09 2.183-7.97" clip-path="url(#p320631ee16)" style="fill:none;stroke:#000"/><path d="m589.334 205.187-1.94.978-3.154 1.2-3.955 1.033-4.513.96-11.088 2.089-4.198.72-6.211 1.753-11.477 3.793-6.478 2.041-8.128 2.64-5.265 1.61-2.378 1.008-3.64.913-4.755 1.608-3.033 1.44-2.62 2.786-1.553 3.313-.898 3.433-.776 2.473M319.309 175.85l.852 4.817-.549 3.02-.685 4.207-1.44 5.734.034 2.612-.309 2.478-.926 4.987-.754 3.562.549 1.426.617.678 1.714.713 3.944.27.994.476 1.131 2.137.892 2.613.514 4.173 1.851 11.095.926 5.7.96 3.02.255 1.31-.309 2.02.018 1.138.754 1.833.824 3.208 1.647 8.98.635 2.072 1.801 4.55 3.088 8.165 1.03 1.613 1.698 1.885.652 1.324" clip-path="url(#p320631ee16)" style="fill:none;stroke:#000"/><path d="m103.198 301.05 6.911-3.44 2.056-1.595 2.234-1.22 2.547-1.1 2.53-1.376 8.591-3.93 6.852-2.478 2.242-.815.309-.235.626-.988 1.275-4.099.63-3.01.25-1.097.352-1.23.21-.88.337-.199.538.027.471.165.511.345 1.034.897.95 1.776 1.538 2.116 1.298.682.397.55.704 1.527.943 1.552 1.058 1.027.372.153 1.572.24 2.163.344.586.008 11.173-.808 4.25-.999 5.22-.235 1.03-.063 2.523-.752 1.394-.165 5.89-.094 2.55.725 4.741.89 2.318.243.597-.098.769-.349 1.05-.697 1.302-1.231.33-.027.498.293 3.858 3.194 3.43 1.56 1.965.808 2.257.752 2.194.306 2.788-.126 2.852-.517 3.826-.949 2.75-.587.894-.412 5.038-3.03 4.182-3.087 4.04-1.96 5.736-2.258 10.583-1.74 3.279-.345 1.52-.423 1.775-.846 1.426-.204 5.925-.094 1.22.203 1.283.032 6.567-.713 20.833-.808 1.49-.196 9.592-.219 6.425-.094 1.956.337 1.759.76 8.27 4.068 1.315.557 3.715 1.755.753.204 4.808.439.493-.101M387.362 304.993l-1.004-.3-2.83-1.868-5.833-4.397-1.888-.916-9.213-4.907-3.037-1.833-11.46-5.534-5.61-3.006-2.882-2.308-1.888-2.258M421.648 323.752l.183.082M421.648 323.752l.389 1.646M422.037 325.398l-2.146.338M422.037 325.398l.302 1.278M419.891 325.736l.388 3.174M610.42 414.82l-3.123-4.982-.77-4.367.478-1.973 1.09-1.5.084-1.16-.62-1.172-1.711-2.065-.3-1.413.432-1.563 2.011-4.892 2.764-6.995.226-1.73-.376-1.73-1.786-6.102-.057-2.046.564-2.01.226-2.046-.132-2.883.508-1.86 1.222-1.86.695-1.08.283-1.172.019-3.702.263-2.549.169-2.065.959-4.967 1.24-1.86.94-1.563 1.373-1.525 1.636-1.637.094-.819-.357-.781-1.373-.893-2.425-1.619-.846-1.823-1.454-5.221M596.086 323.24l4.735.384 5.378 1.116 6.167 2.455M437.287 331.797l3.523-.4 4.396-.334 3.09-.298 1.17-.211" clip-path="url(#p320631ee16)" style="fill:none;stroke:#000"/><path d="m442.937 346.483 1.275-2.777.956-2.241.735-1.901.318-.683.329-.954.502-.973.358-.448 1.017-.829.227-.494.211-.3.34-.483.117-.429.274-1.23.094-.914.008-.569-.233-.704M431.786 332.499l1.02-.15M431.786 332.499l-3.333.492M427.23 326.267l1.814.817 2.024.764.206.611.26 1.655.015.094.237 2.29M423.987 333.652l-1.648-6.976M423.987 333.652l4.466-.66M440.63 351.5l.405-1.07 1.902-3.947" clip-path="url(#p320631ee16)" style="fill:none;stroke:#000"/><path d="M431.729 347.681h.32l1.607-.223 2.238-.438 3.497-.683 2.074-.08 1.472.226" clip-path="url(#p320631ee16)" style="fill:none;stroke:#000"/><path d="m451.933 344.722-6.267 1.299-2.73.462M416.934 347.067l.416 2.862M408.334 352.25l.94-1.433 3.31-2.66 1.747-.652 2.603-.438M431.729 347.681l-1.655.177-2.02.324M428.13 348.564l1.258-.232 1.58-.27.76-.38M428.054 348.182l.075.382M428.054 348.182l-.762.122-5.351.796M423.206 349.569l-.537-.284-.728-.185M423.206 349.569l-2.664.635M417.35 349.929l-2.25.497M417.35 349.929l.146 1.003M420.542 350.204l-.602.144M425.66 360l-1.82-3.2-2.472-4.8-.558-.961-.268-.835M419.94 350.348l-2.444.584M421.47 354.488l-.208-.397-.944-2.381-.378-1.362M415.1 350.426l.228 1.024" clip-path="url(#p320631ee16)" style="fill:none;stroke:#000"/><path d="m415.1 350.426-.75.168-6.016 1.655M417.496 350.932l-2.168.518M433.841 355.444l.504-1.156.315-.724 1.1-2.524M429.988 351.314l1.278.26.095.027 1.447.402.639-.298.696-.707.977-.019.64.061" clip-path="url(#p320631ee16)" style="fill:none;stroke:#000"/><path d="m438 351.252-1.482-.14-.026-.003-.733-.069M438 351.252l-2.392 4.962M438 351.252l2.63.248M425.09 351.843l4.729-1.142.17.613" clip-path="url(#p320631ee16)" style="fill:none;stroke:#000"/><path d="m429.932 353.993-.076-.632.002-.021.018-.287.112-1.739M415.328 351.45l-3.682 4.669M440.63 351.5l-1.292 3.412M429.08 358.275l-1.343-2.493-1.757-2.735-.89-1.204M408.334 352.25l-.753.78M411.473 356.338l-1.843-1.414-2.049-1.894M407.54 360.025l-2.643-4.088.034-.506 1.842-1.563.808-.838M416.625 353.31l1.246 2.384M430.12 355.556l-.095-.782-.093-.781M433.841 355.444l-2.046-.912-.792-.352-1.071-.187M439.338 354.912l3.064 1.216M439.338 354.912l-.947 2.497M433.841 355.444l-.243.558M435.608 356.214l-1.014-.435-.753-.335M411.646 356.119l-.173.22M421.366 362.38l-.903-.79-7.376-4.578-1.44-.893M442.402 356.128l-2.02 5.034M442.402 356.128l1.994.84M435.608 356.214l-.544 1.128M438.391 357.41l-.655-.282-1.13-.485-.998-.429M411.473 356.338l-2.88 3.652M451.355 360.714l-1.113-.383-.781-.516-3.36-2.267-1.068-.439-.637-.14M451.962 354.126l-7.137 2.442-.429.4" clip-path="url(#p320631ee16)" style="fill:none;stroke:#000"/><path d="m444.335 361.044.1-2.548-.039-1.528M438.391 357.41l-.998 2.634M425.66 360l1.264-.638 2.156-1.087M408.594 359.99l-1.054.035M413.859 360.297l-1.585-.344-2.065-.017-1.615.054" clip-path="url(#p320631ee16)" style="fill:none;stroke:#000"/><path d="m393.153 450.77.534-.873v-1.6l.665-2.146 2.55-9.155 2.187-7.932.285-1.348.064-1.285.031-11.161.38-1.724.634-1.066 1.046-1.16 2.123-1.819.538-.72.286-.785.048-1.975.047-3.997-.254-5.079-.19-3.104-.316-1.458.095-2.962-.682-6.85-.808-4.03-.887-3.088-.031-1.05.395-1.379 1.03-1.771 2.313-3.497.697-1.285.432-.923 2.229-5.558M428.318 364.673l-2.098-3.689-.56-.985M440.382 361.162l-1.31-.49-1.679-.628M434.698 367.16l.877-2.317 1.818-4.799M420.027 361.95l-3.574-1.09-2.594-.563" clip-path="url(#p320631ee16)" style="fill:none;stroke:#000"/><path d="m419.529 363.925-6.288-1.574.215-.716.403-1.338M424.755 360.71l-3.284-6.222M421.366 362.38l2.247-1.107 1.142-.563M426.533 364.08l-1.282-2.43-.496-.94M444.335 361.044l-.062 1.573M444.335 361.044l7.037 2.362M440.382 361.162l3.89 1.455M440.382 361.162l-1.002 2.498M421.366 362.38l-.98-.32-.36-.11" clip-path="url(#p320631ee16)" style="fill:none;stroke:#000"/><path d="m419.529 363.925.248-.987.25-.988M421.366 362.38l-3.495-6.686M426.533 364.08l-3.194-1.059-.107-.036-1.866-.606M444.273 362.617l-.014 1.272M451.372 363.406l-.846 2.632M460.792 366.662l-7.126-2.53-2.294-.726M451.355 360.714v.864l.017 1.828M439.38 363.66l3.979.926M439.38 363.66l-.73 1.818M444.048 367.01l.199-2.023.012-1.098M443.359 364.586l.06-.677.84-.02M450.526 366.038l-4.286-1.441-1.655-.707h-.326M419.529 363.925l-.238.94M426.533 364.08l1.785.593M443.359 364.586l-.196 2.173M428.773 370.278l-.395-4.866-.06-.74M438.65 365.478l-.904 2.254M443.163 366.759l-1.191-.339-3.322-.942M460.792 366.662l-1.153-3.092M460.792 366.662l1.036 2.91M443.163 366.759l.885.251M448.906 368.272l-3.042-.977-1.816-.285M444.447 369.875l-.482-2.022.083-.843M433.783 367.049l.572 1.042M433.783 367.049l.915.11M434.698 367.16l-.343.93M437.746 367.732l-1.572-.518-.705.04-.771-.094M437.746 367.732l2.238.736M437.449 373.731l-1.675-3.054-1.42-2.586M439.984 368.468l1.167 4.321M439.984 368.468l4.463 1.407M444.447 369.875l.255 2.012M444.447 369.875l3.934 1.24M428.773 370.278l.234 2.884M425.24 371.677l.522-.6.824-.474 2.186-.325M446.15 371.519l-1.448.368M444.702 371.887l-.793.201M441.151 372.79l2.758-.702M441.151 372.79l.994 3.64M441.151 372.79l-3.702.941M429.007 373.162l-1.83.105M430.947 380.495l-.718-.842-.664-1.42-.4-3.105-.158-1.966M427.177 373.267l.313 5.386M427.177 373.267l-2.666.154M424.51 373.42l.215 3.497M425.24 371.677l-.78.899.05.845M437.449 373.731l3.57 6.554M447.147 375.22l-1.14.276M442.145 376.43l3.862-.934M442.145 376.43l-.695.167M425.629 385.362l-.399-2.078.133-.843-.372-1.841-.266-3.683M427.49 378.653l-1.728-.868-1.037-.868M430.947 380.495l-2.1-.632-1.357-1.21M441.02 380.285l1.855 3.405M441.02 380.285l-4.156 1.556M436.864 381.84l-1.131-.687-1.782.026-1.223.052-.824-.342-.957-.394M436.864 381.84l1.193 2.25M436.864 381.84l-1.773-4.08M431.974 383.778l4.131-1.626.759-.311M425.629 385.362l-2.207.368M431.974 383.778l-.415.163-1.224.316-1.648.658-1.277.394-1.222.132-.559-.08M467.884 390.373l-3.185 1.674M467.884 390.373l1.24 2.125M467.884 390.373l2.832-1.484M463.901 392.466l1.123 2.149M463.901 392.466l-2.527 1.33M463.901 392.466l.798-.42M469.125 392.498l-4.1 2.117M469.125 392.498l1.454 2.49M461.374 393.795l1.356 2.344M461.374 393.795l-1.731.91M465.024 394.615l1.359 2.6M470.58 394.989l1.462 2.624M470.58 394.989l-2.773 1.47M470.58 394.989l2.525-1.582M462.73 396.14l-5.565 2.965M462.73 396.14l1.334 2.304M467.807 396.459l1.445 2.659M467.807 396.459l-1.424.756M466.383 397.215l-2.32 1.23M472.042 397.613l-2.79 1.505M472.042 397.613l1.357 2.435M464.064 398.444l-1.07.567M462.994 399.011l1.508 2.668M462.994 399.011l-2.358 1.251M451.273 399.106l-5.256-9.649M451.273 399.106l3.55-1.867M452.617 401.528l-1.03-1.846-.314-.576M469.252 399.118l-4.75 2.561M473.4 400.048l-7.536 4.042M473.4 400.048l5.06-2.796M460.636 400.262l1.527 2.847M460.636 400.262l-2.128 1.13M452.617 401.528l1.287 2.305M452.617 401.528l4.548-2.423M464.502 401.68l1.362 2.41M462.163 403.109l-6.727 3.467M462.163 403.109l1.236 2.303M453.904 403.833l1.532 2.743M453.904 403.833l4.604-2.442M465.864 404.09l-2.465 1.322M463.399 405.412l-6.63 3.554M455.436 406.576l1.333 2.39M472.92 379.224l.74.245 9.958 3.284 8.812 2.883 7.923 2.604 3.23.868 5.146 1.75 8.203 2.644 4.254 1.236 2.366.158 2.739-.184 1.741-.184 1.396.026 2.899-.276 2.286-.105 1.688.157 2.859.71 4.746 1.54 4.4 1.144 3.417.934 2.287.513 3.788 1.052 8.788 2.473 4.813 1.342 1.05.303 4.905 1.473 2.952.658 4.48 1.355 9.36 2.446 3.576.855 1.302.54 11.397 3.152M617.444 424.296l-1.337-7.93-5.686-1.546M390.934 305.768l-.077 1.318M387.362 304.993l1.484.446 2.088.33M397.356 307.205l-.686-.408-3.947-.746-1.789-.283M390.65 313.431l-.164-1.598-.037-3.125.408-1.622M395.863 313.056l-4.085-3.087-.414-.967-.507-1.916M397.398 311.013l.095-1.23-.137-2.578" clip-path="url(#p320631ee16)" style="fill:none;stroke:#000"/><path d="m399.402 308.687-1.017-.87-1.029-.612M395.275 309.43l2.123 1.583M401.89 310.816l-1.62 2.339M399.402 308.687l1.67 1.43.817.7M409.083 317.527l-.988-.747-5.953-5.755-.253-.209M397.398 311.013l2.872 2.142M397.398 311.013l-1.535 2.043M398.874 315.13l-.333-.23-2.678-1.844M400.27 313.155l2.412 1.8M400.27 313.155l-1.396 1.975M392.335 313.673l-.452-.263-1.234.021M390.739 316.56l-.103-1.36.013-1.769M392.335 313.673l.44 2.704M392.335 313.673l4.573 3.341M398.874 315.13l2.21 1.871M397.837 316.666l.663-.982.374-.554M409.763 316.45l-.68 1.077M418.794 318.181l-6.878-2.769-1.195-.476-.958 1.514" clip-path="url(#p320631ee16)" style="fill:none;stroke:#000"/><path d="m417.91 320.409-.636-.235-4.082-1.855-3.43-1.87M397.837 316.666l1.051 1.008M397.837 316.666l-.473.683M396.908 317.014l.456.335M396.908 317.014l.102.846M397.364 317.349l.592.435M397.364 317.349l-.354.51M409.083 317.527l.52.392M398.888 317.674l-.932.11M398.888 317.674l2.297 2.153M397.01 317.86l.543-.044.403-.032M397.01 317.86l-3.913.507M397.01 317.86l.462 2.52M409.603 317.92l.586 2.072M412.425 319.492l-1.928-.896-.894-.677M417.91 320.409l.467-1.024.417-1.204M421.775 319.49l-.287-.08-1.157-.433-1.063-.605-.474-.19M421.103 318.256l.976.01M422.08 318.266l-.305 1.225M422.08 318.266l9.3.248M393.097 318.367l.423 2.6M393.097 318.367l-.323-1.99M431.38 318.514l.199 2.13M429.555 310.342l.686 5.29.958.931.182 1.95M421.775 319.49l1.726.48M412.425 319.492l.717 2.185M412.425 319.492l1.413.658M401.185 319.827l-3.713.553M401.185 319.827l2.2 2.035M423.5 319.97l.261.072M422.588 322.127l.336-.756.577-1.4M410.19 319.992l-2.29 2.279M410.19 319.992l1.684 5.962M423.761 320.042l.665.382 3.657 1.311" clip-path="url(#p320631ee16)" style="fill:none;stroke:#000"/><path d="m427.95 320.963-1.038-.092-2.646-.776-.505-.053M413.838 320.15l-.696 1.527M397.472 320.38l-3.952.587M397.472 320.38l.406 2.428M417.91 320.409l4.678 1.718M431.579 320.645l.335 3.602M436.56 326.35l-.727-5.434-.186-.584-2.248.173-1.82.14M427.95 320.963l2.392-.223 1.237-.095M427.95 320.963l.133.772M393.52 320.967l.409 2.519M413.142 321.677l1.128.614M413.142 321.677l1.246 4.005M428.275 323.101l.02-.138-.212-1.228M403.384 321.862l-5.506.946M403.384 321.862l2.497 2.31M422.588 322.127l-.757 1.707M422.588 322.127l5.47 2.185M407.9 322.27l-2.019 1.903M407.9 322.27l1.34 4.123M418.04 329.479l-.968-5.905-2.802-1.283M414.27 322.291l.99 3.296M397.878 322.808l.423 2.528M393.929 323.486l2.846-.489 1.103-.19M394.33 325.945l-.187-1.144-.214-1.315M421.831 323.834l5.4 2.433M405.881 324.173l-7.58 1.163M405.881 324.173l.76 2.661M431.914 324.247l.768 1.228M428.275 323.101l.889.064 2.75 1.082M428.057 324.312l-.827 1.955M432.682 325.475l-1.33.132-1.21-.197-1.196-.487-.889-.61M428.275 323.101l-.153 1.059-.065.152M398.3 325.336l-3.97.609M398.3 325.336l.469 2.795M432.946 326.73l-.11-.94-.154-.315M415.26 325.587l-.872.095M415.26 325.587l1.283 4.272M414.388 325.682l1.362 4.378M414.388 325.682l-2.514.272M394.33 325.945l.455 2.793M411.874 325.954l1.342 4.749M409.24 326.393l1.759-.344.875-.095M436.56 326.35l-3.614.38M436.895 328.86l-.192-1.435-.144-1.075M409.24 326.393l1.605 5.418M409.24 326.393l-2.598.441M428.453 332.991l-.343-3.93-5.771-2.385M432.946 326.73l.32 2.704M406.642 326.834l-2.824.51M408.235 332.437l-.561-1.974-1.032-3.629M403.818 327.343l1.077 5.893M401.368 327.736l1.79-.273.66-.12M396.629 334.694l-2.02-.01-1.747-.072-1.3-.044M273.584 344.027l3.132-.586 5.588-1.76 4.402.336 2.286.838 2.963-1.76 9.652-2.094 4.318.67 4.74-1.675.508 8.46 1.355 1.676 10.328-2.178 4.91 1.09 20.658-1.76 7.45-2.01 7.365.334 3.302-.753 7.112-3.351 2.624-.921 8.831-1.882 2.112-.469 1.346-.54 1.347-.828.837-.324.811.028M390.739 316.56l.066.892.02.948v1.34l.357 2.158.38 12.67M401.368 327.736l-2.6.395M401.368 327.736l1.07 6.212M398.769 328.131l.355 2.124M394.785 328.738l2.942-.448 1.042-.159M394.785 328.738l.341 2.088M420.28 328.91l-2.24.569M420.28 328.91l.061.506M420.341 329.416l-2.219.57M418.04 329.479l.082.507M418.04 329.479l-.749.19-.748.19M416.543 329.859l-.793.2M416.543 329.859l.149.494M418.122 329.986l-1.43.367M415.75 330.06l-2.534.643M415.75 330.06l.154.495M399.124 330.255l.248 1.618M395.126 330.826l3.346-.478.652-.093M416.692 330.353l-.788.202M416.692 330.353l1.234 4.11M415.904 330.555l1.243 3.997M415.904 330.555l-2.544.654M413.216 330.703l.144.506M395.126 330.826l.787 2.09M413.36 331.209l-2.515.602M413.865 334.745l-.311-2.85-.194-.686M437.287 331.797l-2.598.295M437.287 331.797l-.392-2.937M437.27 332.683l.004-.19.013-.696M410.845 331.811l.937 3.034M410.845 331.811l-2.61.626M433.595 332.231l.446-.065.648-.074" clip-path="url(#p320631ee16)" style="fill:none;stroke:#000"/><path d="m434.813 333.034-.026-.196-.098-.746M433.595 332.231l-.789.117M433.595 332.231l-.33-2.797M408.235 332.437l-3.34.8M442.761 332.609l-5.459.795M437.27 332.683l-2.457.35M437.302 333.404l-.022-.515-.01-.206M432.961 333.3l.794-.115 1.058-.151M405.095 335.085l-.1-.924-.016-.146-.084-.779M402.438 333.948l.48-.238 1.977-.474M429.052 333.87v.186l.003.487 1.298.093 2.105-.111 1.523-.372 2.143-.577.252-.037.926-.135M429.052 333.87l3.91-.57M419.901 335.2l.979-.184 4.133-.566 2.99-.428 1.049-.152M402.438 333.948l-1.023.509M399.793 334.247l-.42-2.374M396.629 334.694l1.442-.204 1.722-.243M401.415 334.457l-.966-.125-.656-.085M405.095 335.085l-.862.03-2.818-.658M417.926 334.464l-.779.088M413.865 334.745l2.732-.13.55-.063M396.788 335.904l-.108-.825-.051-.385M395.913 332.916l.303.804.413.974M413.865 334.745l-2.083.1M412.196 336.324l-.092-.327-.322-1.152" clip-path="url(#p320631ee16)" style="fill:none;stroke:#000"/><path d="m405.095 335.085 5.998-.207.69-.033M412.196 336.324l2.008-.262 3.42-.44 2.277-.423M396.788 335.904l1.662 4.446M412.196 336.324l-3.842.5-6.647-.42-4.919-.5M451.933 344.722l.526 1.005M474.221 339.238l-.291.074-11.115 2.5-6.993 2.104-3.89.806M464.265 376.412l-.219-.613M464.265 376.412l-.277-.088M471.675 378.814l-3.906-1.289-3.504-1.113M596.086 323.24l.087-.89.198-3.628.293-1.12.5-2.243.142-.844.058-.542.132-.942-.126-.885-.302-.455-.34-.282-.848-.572-1.125-1.09-.372-.29-1.964-.659-.833-.297-.475-.447-.317-.65-.158-1.27-.277-1.184-.452-1.058-.705-1.505-.285-1.066-.76-1.364-.468-.91-.142-.916-.167-2.171.056-1.372.15-1.897.056-1.834.031-.964.16-.847.736-2.108.316-1.16.095-.69.048-1.168.27-.83.324-.636.721-.736.586-.643.301-.73.42-.97.618-1.663.333-.815.99-2.03.475-1.105.562-1.254.357-1.356.016-1.537-.214-1.904-.262-1.2-.245-1.567-.3-1.208-.58-1.261-.617-1.482-.38-1.85-.175-.713-.626-1.575-.285-.87-.126-.957-.388-.972-.167-.69-.142-.76-.072-.501-.253-.478-.761-1.106-.277-.83-.016-.886.032-1.6.071-1.262-.055-1.105.008-.321.293-.713.222-.941.26-.415 1.07-1.137 1.3-.697.387-.18.745-.831.848-.738.411-.532.151-.44.016-.642-.167-1.2-.19-.595-.023-1.168v-.705l-.166-.941-.436-1.372-.222-.36-.428-.541-.388-.4-.404-.643-.111-.91.087-.775.08-.596-.159-1.615-.237-2.366-.048-.722-.238-.893-.174-1.05.047-1.364v-1.459l-.411-2.241-.824-4.75-.254-2.054-.874-3.344M474.221 339.238l9.493-2.425 2.047-.526 2.048-.474 3.536-1.842 5.291-2.078 1.223.131 1.994.448 4.972.131 4.574-.315 5.105-.737 2.978-.053 5.504.579 5.238-.079 1.489-.105 3.27.579 3.042.88 3.968 2.12 1.767.838 1.297.316 3.722.092 2.031-.037 2.708-.595 2.481-1.395 2.087-1.06 2.162-.54 1.053-.205 8.028-3.013 4.005-1.395 5.114-2.14 3.177-.818 6.87-1.635 6.618-.633 2.973-.012M150.96 371.51l-.119-3.048-.325-5.024.25-5.75-.25-.093-1.98.262-2.432.392-3.085 1.078-.967.043-.922.18-4.246 1.403-.511-.137-.121-.126-.173-1.269-1.013-.059-3.941.74-1.077-.007-.967-.34-.915-.695-1.62-1.998.02-.666.04-1.066.166-3.195.186-1.163.012-.396-.099-.437-.475-.54-.475-.27-.483-.133-1.728-.056-1.001.013-1.973.29-.254-.082-.597-.53-1.64-2.323-.305-.498-.701-2.944-.406-.718-.13-.406-.112-.986-.52-.795-.474-.617.01-1.284-.03-1.205-.54-.416-.943-.955-.329-.083-1.132-.086-1.707-.31-2.647.333-1.643.475-3.662.532-.497.467-.426.031-.207-.297-.226-.733-.88-2.093.04-.768.083-.827.198-.796.622-1.564.182-.842 1.137-2.97.487-.49.163-.42 1.275-1.199 1.262-.55.71.225.349-.059.285-.188.943-1.086.249-.874-.031-.447-.476-1.21-.28-.412-.726-.506-.558-.11-.745-.509-.269-.458-.162-.58-.666-.98-.717-.748-1.228-1.882-.11-1.11.253-1.104.182-.408.392-.407.59-.228 1.644-.154.23-.333.4-.18.372-.004 1.343-.43.661-.121 1.283.057.353-.106.139-.494-.266-.419-.776-.796-.812-.932-.55-.184-1.399-.133-.349-.137-.443-.299-.895-.92-.946-.654-.246-.56-.146-1.724-.282-.613-.289-.227M448.381 371.116l.525-2.844M450.506 371.801l-.65-.22-1.475-.465M448.906 368.272l.925.297M449.831 368.57l.695-2.532M456.463 370.69l-2.32-.736-4.312-1.385M456.754 368.07l-1.486-.44-4.742-1.592M458.275 359.914l-.093-.248-2.18-6.34-.877-2.684-2.048-3.736-.618-1.179" clip-path="url(#p320631ee16)" style="fill:none;stroke:#000"/><path d="m451.962 354.126-.175-.199-.529-5.037.192-.808.625-1.52.384-.835M417.871 355.694l1.941-.65M421.47 354.488l-1.658.556M418.558 352.835l1.254 2.209M419.812 355.044l.82 1.609M399.372 331.873l-3.459 1.043M436.895 328.86l-2.545.403-1.085.17M421.579 304.756l1.919-.14M421.688 311.094l7.867-.752M423.498 304.617l3.54-.257h1.238l.546.324.733 5.658M308.158 461.479l81.041-10.208 3.954-.5M617.444 424.296l.54-.054M617.444 424.296l-89.89 5.626M622.406 549.34l-4.085.234-.507-.626 1.68-42.856.507-1.974.126-3.292.729-1.788.159-1.88-.539-2.164-.064-2.006 4.12-25.958 1.679-5.8.063-5.36-.475-1.349-3.232-5.172-.887-2.038-4.236-23.015M432.806 332.348l.155.953M457.165 399.105l1.343 2.286M459.643 394.705l-4.82 2.534M459.643 394.705l-1.463-2.596M453.993 384.683l.368.652M453.993 384.683l-3.022.464M450.971 378.885l2.657 4.947.365.851M442.875 383.69l3.142 5.767M450.971 385.147l-.312-.567-.703-.464-4.688-.722-.886-.129-1.507.425M450.971 385.147l.026.567M450.997 385.714l3.364-.379M449.59 387.672l1.017-.567.338-.644.052-.747M449.59 387.672l-3.573 1.785M449.59 387.672l3.82 6.984M462.222 384.45l-4.825.544M454.36 385.335l3.82 6.774M454.36 385.335l3.037-.341M443.909 372.088l.593.963 1.505 2.445M459.639 363.57l-1.208-3.237M459.639 363.57l-8.284-2.856M452.02 358.187l-.665 1.87v.657M452.02 358.187l.872-2.454-.145-.712-.785-.895M452.02 358.187l-1.986-.665-1.85-.8M458.431 360.333l-.156-.42M458.431 360.333l-6.411-2.146M425.24 371.677l-.415-2.742M431.974 383.778l1.35 2.946M387.362 304.993l.827 11.626M388.396 319.535l-.207-2.916M388.189 316.62l2.55-.06M390.739 316.56l2.035-.183M390.031 261.104l1.553 3.857.507 2.163.285.596 1.299 1.944.76 4.64 2.82 6.772 1.167 2.184.31 10.15.692 2.154M399.402 308.687l.505-7.724.553-1.845-1.036-3.554M410.627 293.554l-.412.125-3.2.377-7.591 1.508M420.481 278.223l-.063.376.73 7.681.95 6.458M422.668 298.79l-.127-3.198-.444-2.854M410.627 293.554l1.141.063 4.024-.47 6.305-.409M419.309 299.072l3.359-.282" clip-path="url(#p320631ee16)" style="fill:none;stroke:#000"/><path d="m401.913 215.456.476 5.078 2.788 1.819.412.565.887 2.32v.281l.19.345.634 2.195-.507 6.835-.19.565-.824.783-.412.596-.095.407.127 1.286-.095 2.916.475 1.065.73 6.365.126 3.574.538 2.884.38 2.822.033.847.095.25.633 5.612.095 2.101.317 1.066.982 1.63.254.847.063 2.132.348 2.916-.03.784-.318 1.693-.697 2.476-.095.659-1.014 2.445.856 2.603-.096 1.034-.031.627.063 1.129.317 2.132 1.3 2.414M423.498 304.617l-.228-1-.285-1.19-.222-3.386-.095-.251M426.565 278.035l-6.084.188M407.459 200.814l4.214-.47.285 1.693.222 1.16.032.91.506 2.727-.031 1.755.95 3.418.127.752-.507 2.76.063 1.692.476 1.819 1.838 12.603-.064.314.412 4.797 1.394 11.318.95 9.687.571 3.67-.253 4.733 1.077 3.762.032 4.233.728 4.076M637.27 550.567l-4.183.783h-.57l-1.553-.49-4.816-.627-2.915-.94-.827.047M299.275 463.216l-.112-.604M299.228 467.131l-.1-1.369-.014-.87.16-1.676M299.508 465.89l.11-.563.025-.721-.076-.846-.292-.544M299.228 467.131l.108 2.578.514 2.079.19 1.442.222.846.285.408.444.376 3.327 1.975 1.014.344 1.965.283.76.532 1.489 5.612M299.163 462.612l8.995-1.133M230.65 470.864l1.31-.098 41.06-4.86 26.143-3.294M631.594 414.117l-4.551.921M623.67 422.523l1.285-2.782 1.03-3.26 1.058-1.443M623.67 422.523l-2.658.937-3.027.782M623.67 422.523l-.066.625.009.855M630.384 420.023l-1.86.111-.681.285-.596.437-1.264 1.05-.78.27-1.533.347M617.985 424.242l5.628-.239M617.985 424.242l3.118.203 1.851.25 1.361.34" clip-path="url(#p320631ee16)" style="fill:none;stroke:#000"/><path d="m637.256 420.305-.766-.234-.791-.07h-3.571l-1.744.022" clip-path="url(#p320631ee16)" style="fill:none;stroke:#000"/><path d="m637.256 420.305-.783.288-2.156.211-1.482.11-.565-.13-1.886-.761M623.613 424.003l.285.772.417.26M299.508 465.89l.411-.445.616-.292.799-.236 1.295-.119.398-.017.88-.102.474-.165.634-.603.412-.706.713-.4.728-.133.555-.337.364-.486.371-.37M299.228 467.131l.239-1.032.04-.209M462.091 370.31l-.263-.738M462.091 370.31l.87 2.442M462.091 370.31l6.516-2.076M481.202 364.223l13.152-1.615M481.202 364.223l-9.474 3.017M481.202 364.223l-4.344-10.434M476.858 353.789l-.091-.22-.53-1.53.309-1.44-2.325-11.361M476.858 353.789l-11.655 3.666M465.203 357.455l3.404 10.78M458.275 359.914l6.598-2.154.33-.305M468.607 368.234l3.121-.994M471.728 367.24l.596 2.718M471.675 378.814l.787.26.457.15M472.952 372.82l.505 2.3-.089.938.089 2.052-.538 1.114M472.952 372.82l-.628-2.862M472.952 372.82l-8.906 2.979M464.046 375.799l-1.002-2.813M472.324 369.958l-9.28 3.028M463.044 372.986l-.083-.234M462.96 372.752l-6.497-2.062M461.828 369.572l-5.074-1.501M450.506 371.801l6.891 13.193M455.338 373.441l-2.383-.809-2.449-.83M457.397 384.994l3.327 5.715M460.724 390.709l-2.544 1.4M464.699 392.047l-1.394-2.518-2.581 1.18M454.822 397.24l-1.412-2.584M453.41 394.656l4.77-2.547M475.619 386.32l-2.444 1.28M475.619 386.32l-3.944-7.506M478.46 397.252l2.477-1.368-5.318-9.564M470.716 388.89l2.459-1.29M470.716 388.89l2.389 4.517M463.988 376.324l1.193 2.398 5.535 10.167M474.714 396.451l-1.61-3.044M478.46 397.252l3.933 7.409M478.46 397.252l-5.285-9.651M455.338 373.441l6.193 2.102 2.457.781M455.338 373.441l1.125-2.75M456.463 370.69l.291-2.62M539.246 459.847l.056-1.082-.06-.803-.673-4.95-.267-1.806-1.369-7.172-1.213-3.733-.898-2.45-2.05-3.02-1.444-1.805-2.268-1.79-.603-.346-.614-.391-.186-.244-.103-.333" clip-path="url(#p320631ee16)" style="fill:none;stroke:#000"/></g><g id="PatchCollection_1"><path d="m420.043 325.452 1.725-.257-.248-1.21-1.604-.73-.188.205zM432.257 332.033l.172.075.186.026.186-.026.172-.077.143-.12.1-.147.059-.168.01-.178-.036-.174-.455-4.214-1.537.274.683 4.19.044.212.11.186z" clip-path="url(#p320631ee16)" style="fill:green;fill-opacity:.8"/></g><path id="PatchCollection_2" d="m404.9 315.595-2.455 2.492 3.623 3.495 2.456-2.493z" clip-path="url(#p320631ee16)" style="fill:#90ee90;fill-opacity:.8"/><path id="PatchCollection_3" d="m423.524 369.117 6.023.234.143 3.564-5.18.506z" clip-path="url(#p320631ee16)" style="fill:#9acd32;fill-opacity:.8"/><g id="PatchCollection_4"><path d="m603.356 325.992-.837-.135-.531 3.233.837.135zM603.852 329.39l.923.148.53-3.232-.922-.15zM601.455 326.785l.164-.92-1.04-.18-.163.92z" clip-path="url(#p320631ee16)" style="fill:#a9a9a9;fill-opacity:.8"/><path d="m602.825 329.225 1.027.165.531-3.233-1.027-.165zM604.775 329.538l1.003.162.53-3.233-1.002-.161zM597.41 327.107l-.2 1.124 3.87.672.2-1.124zM604.383 326.157l.18-1.095 1.925.31-.18 1.095z" clip-path="url(#p320631ee16)" style="fill:#a9a9a9;fill-opacity:.8"/><path d="m600.416 326.605-4.102-.713-.177.994 5.142.893.176-.994zM601.988 329.09l-.173 1.047 3.79.61.173-1.047zM469.7 434.118l.907 2.515 4.22-1.552-1.569-4.22-3.137 1.115.662 1.77zM432.901 333.646l.056.535 1.195-.122-.056-.535zM299.17 464.656l.44.014-.016.43-.438-.016zM125.086 21.796l.442-.031-.056-.787-.442.031zM521.059 377.192l.043-.374-.428-.048-.043.373z" clip-path="url(#p320631ee16)" style="fill:#a9a9a9;fill-opacity:.8"/></g></g></g><defs><clipPath id="p320631ee16"><path d="M90 168.34h558v390.521H90z"/></clipPath></defs></svg>