<svg xmlns="http://www.w3.org/2000/svg" width="960" height="960" viewBox="0 0 720 720"><defs><style>*{stroke-linejoin:round;stroke-linecap:butt}</style></defs><g id="figure_1"><path id="patch_1" d="M0 720h720V0H0z" style="fill:#fff"/><g id="axes_1"><path id="patch_2" d="M90 631.464h558V95.736H90z" style="fill:#fff"/><g id="LineCollection_1"><path d="m336.594 366.28 4.87 2.87 2.027.818.488.062.57-.057.84-.312.87-.547.92-.788 1.135-.977 1.335-1.404 2.331-3.106 1.219-1.61 2.084-2.504M364.923 328.688l.335.673.146.856-.113 1.148-.738 1.838-2.82 5.588-1.547 3.411-.496 1.242-.658 2.22-.577 1.912-2.147 5.103-.153.86-.08 1.242-.095 1.58-.064.823-.288.882-.345.66" clip-path="url(#paa52473b84)" style="fill:none;stroke:#000"/><path d="m408.884 342.875-6.387 1.422-3.694.912-3.366.845-1.658.456-2.1.83-5.73 2-2.772.912-4.56 1.662-3.566 1.132-2.548.941-9.737 3.823-1.314.559-1.186.272-1.29.095-1.619.023-2.074-.034M364.923 328.688l-.498-.415-2.524-1.43-1.763-1.059-.665-.61-.61-.897-1.16-2.264-4.03-8.353-2.597-5.323-.641-2.56-.289-1.557.097-1.324.591-1.767.417-1.5.145-1.086v-.706l-.128-.735-.545-2.088-.128-1.206.015-.708.145-.733 1.09-4.97.449-3.265.256-2.235M399.766 138.95l-.338.792-.11 1.002-.097 4.09-.242.938-.944 1.767-1.699 2.618-.37.821-.271.974-.064 1-.16 1.823-.16.677-.948 1.703-3.397 5.972-.257.823-.207.885-.192 1.177-.16.676-.274.704-2.5 2.411-5.56 5.386-1.73 1.853-1.09 1.824-1.365 1.762-1.603 1.441-1.873 1.415-3.75 2.03-6.668 3.206-9.04 4.177-4.793 2.29-.751.65-.723.998-.289 1.059-.334 4.562-.482 7.853-.37 1.644-1.68 8.18-.514 3.765.032 1.735.353 1.559.962 2.177.609 1.941.256 1.853.064 3.264.225 3.942.545 2.676.672 2.382 1.988 6.206.833 3.294.16 1.412-.031 2.677.512 9.088.61 13.793" clip-path="url(#paa52473b84)" style="fill:none;stroke:#000"/><path d="m294.414 301.67.577-.464.576-.9.739-1.69.749-1.875.759-1.253 1.183-1.327 1.244-.947 1.68-.928 1.75-.53 1.659-.018 5.017.427 13.203 1.179 1.608-.074 1.75-.464 2.388-.891 14.051-6.34 3.515-1.884 1.62-.793 1.75-.653 1.33-.36.988.012" clip-path="url(#paa52473b84)" style="fill:none;stroke:#000"/><path d="m445.334 261.675-4.757.353-2.572.147-2.665.266-4.75.187-3.398.36-2.701.44-4.547 1.225-3.428.827-2.186.7-2.57.992-2.056 1.073-2.963 1.206-3.558 1.126-3.799 1.393-2.23.986-1.452.867-1.743.586-1.822.406-4.017.307-1.684.126-1.105.434-1.815.966-1.772.893-2.542.886-1.271.387-3.66.36-4.793.292-3.624-.08-2.658-.04-2.157.194-1.852.433-2.426.82-3.123 1.005-1.088.099M459.35 106.039l-.398.462-.495.797-.467 1.144-.239 1.033-.512 5.236.064 1.118.192.736.289.617.385.56 1.25 1.176 2.884 2.618.385.588.032.53-.242.614-.527.621-.435.291-2.276 1.118-.865.618-1.442 1.059-1.425.532-10.436 2.645-.608.294-.61.441-.512.56-.528.796-.562.968-.014.415.064.353.303.32 2.357 2.004.257.53.095.529-.288.853-.69.35-1.746-.203-1.813-.62-1.217-.472-.674-.058-.72.003-.865.176-1.3.145-5.688-.528-.48.03-.37.174-.336.297-.145.38-.079.678-.159 1.158-.386.872-.819.586-1.121.44-1.105.063-1.122-.06-4.647-.793-1.155-.118-1.844.056-1.635.323-.752.092-.819-.003-.976-.233-2.019-.97-2.133-.945-1.027-.23-2.986-.19-2.733-.43-.819.115-.353.147-.527.503M402.537 310.529l-.32-.677-.457-.662-.553-.367-.705-.176-.593.058-5.53 3.426-5.609 3.265-4.784 2.75-1.002.544-1.129.434-3.879 1.286-3.598.978-1.074.302-.649.433-.753.655-.962.934-1.867 1.83-4.15 3.146M139.987 273.031l-3.329-1.586M139.987 273.031l15.351 7.504M119.127 189.336l-1.209 3.072-.728 2.507-.156 1.54.201 1.223.79 1.437 4.521 6.658.584.658 2.438 1.538 2.834 1.77 1.61.962 3.143 2.652 1.786 1.78.916 1.417 1.797 4.068.408.637.783.628 4.484 2.284 1.955 1.007.646.515.202.405.012.928-.296 5.975-.132.712-.637.922-5.582 5.738-6.128 7.354-.24.44-.001.43.132.401.294.526 8.369 6.695.393.561.076.63-.27.824-3.185 4.977-3.126 4.846-.443.783.047.583.523.49 2.606 1.274 1.02.814.423 1.034M403.549 401.387l-.28.998M403.549 401.387l.13.245.172.243.242.209M403.468 400.829l.009.252.072.306M403.549 401.387l-6.56-1.42M403.643 400.224l2.945 1.457M403.643 400.224l-3.363-1.665M403.643 400.224l-.108.25-.067.355M404.588 399.461l-.369.167-.297.23-.28.366M404.093 402.084l.246.13.305.1.344.05.371-.001M404.093 402.084l.165.282.128.149.142.127.15.1.827.395M404.093 402.084l-.823.301M406.74 400.46l-.109-.235-.15-.232-.182-.182-.233-.179-.345-.161-.376-.084-.383-.003-.374.077M406.588 401.681l.145-.3.068-.287.007-.06-.005-.29-.063-.283" clip-path="url(#paa52473b84)" style="fill:none;stroke:#000"/><path d="m409.086 402.918-1.281-1.211-.502-.554-.563-.692M404.588 399.461l-1.067-.155-.89-.179-1.022-.227-1.329-.341M312.574 356.12l-22.613-10.87M312.574 356.12l17.393 8.414M294.414 301.67l1.558 1.114 1.902 1.568 2.448 2.33 1.275 1.699 1.8 2.97.8 1.903 1.81 5.715.585 2.36.28 1.787.185 1.617.016 1.589-.04 2.095-.962 9.168-.128 2.272.144 1.522.104 2.11.104 2.757.193 2.396.272 1.632.52 1.125.434.647.504.566 2.595 1.752 1.096.896.665.86M405.742 402.32l.26-.104.175-.1.263-.239.148-.196M405.742 402.32l1.368.18 1.976.418M405.742 402.32l-.383.043M312.347 380.942l-.131.496M312.347 380.942l.975-3.688M312.347 380.942l-5.306-1.165-1.688-1.734M312.347 380.942l3.76.826M406.588 401.681l2.498 1.237M433.868 414.852l-24.782-11.934M433.868 414.852l16.318 7.858M437.22 414.509h-.278l-.388-.078-.85-.134-.502.034-.546.149-.788.372M567.423 479.07l-.347-.168M580.405 485.318l-.833-.353-5.545-2.749-6.604-3.146" clip-path="url(#paa52473b84)" style="fill:none;stroke:#000"/><path d="m583.643 459.502-3.061 3.631-5.177 6.307-3.622 4.25-4.36 5.38M451.997 423.585l-1.81-.875M451.997 423.585l22.708 10.64M549.377 404.97l-2.548.09-3.863.411-5.224.661-5.177.397-.561.03-.497.132-.465.25-.416.133-.321.073-.561.044-2.484.309-.674.132-.288.045-.368-.015-.514-.089-.352-.088-.801-.397-1.923-.867-.85-.338-.689-.236-2.468-.647-.57-.176-.512-.184-.697-.316-.449-.177-.345-.095-.312-.037-.577.059-.369.088-.938.28-.753.316-.568.316-.754.456-.36.162-.329.073-.44-.008-.257-.098-.249-.394-.224-.647-.176-.5-.209-.323-.497-.736-.256-.411-.336-.72-.16-.442-.37-.867-.272-.823-.336-.78-.353-.47-.737-1.088-1.074-1.515-.529-.72-.272-.199-.225-.11-.416-.147-.545-.074-1.299-.029-2.291-.118-2.853-.22-.85.06-.72.102-.722.191-.737.294-.721.353-2.517 1.838-1.154.94-.925.81-.806.661-.785.529-.737.338-1.122.545-1.507.69-1.33.647-1.154.603-1.154.691-1.234.838-.977.838-.884.852-.639.634-.914.808-.497.397-.576.338-1.17.75-2.424 1.628-1.711 1.107-1.555.955-1.555.868-1.362.72-1.154.56-4.551 2.234-1.01.573-.85.574-.833.647-.593.654-1.042 1.455-1.09 1.478-.865 1.059M403.468 400.829l-1.094-.218-.48-.073-.523-.099-4.26-.927M267.102 334.258l14.314 6.875M155.338 280.535l29.87 13.82 18.593 9.37 63.3 30.533M244.267 343.571l1.79-2.814.177-.5.132-.385.205-.335.425-.39.93-.603 1.137-.55.841-.174.8-.02 3.138-.235 3.482-.438 5.176-1.072 2.038-.47 1.425-.49 1.139-.837M339.249 369.194l-2.655-2.914M339.249 369.194l-2.634-1.398M339.249 369.194l34.327 16.447M339.249 369.194l-2.9-1.035M400.306 413.147l-3.532-.791M400.306 413.147l-2.583 9.504M400.306 413.147l2.229-8.1M401.376 420.74l1.952-6.86-3.022-.733M333.73 386.2l.143-.532M333.73 386.2l-.94 3.477M333.73 386.2l4.287.92M333.73 386.2l-4.054-.914M337.928 370.639l-.96 3.556M337.928 370.639l3.907 1.838M337.928 370.639l-.814-.578M333.873 385.668l1.005-3.728M333.873 385.668l-4.052-.89M333.873 385.668l4.277.939M330.678 397.618l1.016-3.875M330.678 397.618l-1.418-1.758M330.678 397.618l-1.084 3.948M330.678 397.618l4.346.958M330.678 397.618l-2.23-.496M329.067 394.615l.402-1.36M328.463 394.678l.192-.072.207-.022.205.031M329.526 394.975l-.114-.157-.157-.123-.188-.08M333.88 370.64l-.494-.12M333.88 370.64l.18-.398M333.104 373.34l.292-1.017.483-1.684M328.463 394.678l-1.163-1.904M328.18 395.615l-.08-.201-.009-.214.062-.207.129-.18.18-.135M335.926 368.485l.423-.326M337.114 370.06l-.169-.119-.415-.395-.314-.453-.29-.608M335.01 368.727l.4-.047.516-.195M329.526 394.975l2.168-1.232M329.26 395.86l.163-.132.115-.17.058-.192-.004-.2-.066-.19M321.305 414.96l.84-3.118M321.305 414.96l-3.945-.977M326.552 412.957l-.699 2.665-.09.17-.088.095-.155.064-.165.011-4.05-1.002M334.866 365.389l-2.78-.434-2.119-.421M334.866 365.389l-.462.083-.43.193-.287.216-.297.363M336.594 366.28l-.183-.26-.258-.243-.426-.245-.429-.121-.432-.022M336.615 367.796l-3.225-1.552M336.615 367.796l.139-.355.046-.281-.006-.271-.068-.288-.132-.321M336.615 367.796l-.266.363M331.694 393.743l1.097-4.066M331.694 393.743l4.345.958M331.694 393.743l-2.225-.487M326.278 396.64l1.903-1.025M326.278 396.64l-1.1 3.916M326.278 396.64l1.022-3.866M326.278 396.64l-4.198-.903M326.278 396.64l2.17.482M333.658 368.202l.297.233.344.17.348.093.362.029M334.06 370.242l.174-.38.067-.112.163-.272.545-.751M333.168 367.197l.055.29.113.297M329.967 364.534l1.452 1.074.472.368 1.277 1.221M333.39 366.244l-.152.332-.067.308-.003.313" clip-path="url(#paa52473b84)" style="fill:none;stroke:#000"/><path d="m328.73 395.967.184.004.18-.035.166-.076M318.7 390.933l1.116-4.157M318.7 390.933l-1.023 3.811M318.7 390.933l4.377.95M327.3 392.774l1.187-4.059M327.3 392.774l-4.223-.89M327.3 392.774l2.169.482M329.186 385.168l.242.058M329.186 385.168l.142-.498M329.186 385.168l-4.138-.91M328.73 395.967l-.22-.064-.188-.12-.141-.168M333.336 367.784l.322.418M329.694 366.29l2.291 1.148.43.187.396.125.288.04.237-.006M328.73 395.967l-.281 1.155M329.328 384.67l-4.15-.91M329.328 384.67l1.061-3.701M329.328 384.67l.493.109M329.967 364.534l3.423 1.71M394.973 407.499l-3.433-.746M394.973 407.499l.953-3.705M394.973 407.499l-1.124 4.201M338.15 386.607l.977-3.747M338.15 386.607l-.133.513M338.15 386.607l4.419.97M336.039 394.7l4.402.955M336.039 394.7l1.06-4.06M336.039 394.7l-1.015 3.876M331.88 410.653l1.05-4.028M331.88 410.653l-4.42-1.095M331.88 410.653l4.33 1.108M338.237 434.111l-.705-2.69-.465-2.044-.256-2.117-.224-1.294-.393-1.124-.385-1.177-.2-.668-.144-.86-.097-1.882-.007-5.698-.08-.36-.401-.463-2.533-2.11-.1-.147-.064-.188-.303-.636M341.835 372.477l-.69 2.643M341.835 372.477l4.226 1.99M338.017 387.12l-.918 3.52M338.017 387.12l4.41.971M335.024 398.576l-1.036 3.995M335.024 398.576l4.39.988M312.813 412.857l.847-3.163M312.813 412.857l4.547 1.126M312.813 412.857l-4.167-1.032M320.746 383.312l4.302.946M320.746 383.312l.133-.496M320.746 383.312l-.93 3.464M320.746 383.312l-4.257-.935M325.048 384.258l.13-.499M325.048 384.258l-.9 3.487M317.677 394.744l-1.037 3.859M317.677 394.744l4.403.993M317.677 394.744l-4.405-.992M307.624 415.799l.272-1.051M323.077 391.884l1.07-4.14M323.077 391.884l-.997 3.853M320.879 382.816l.992-3.692M320.879 382.816l-4.263-.937M320.879 382.816l4.298.943M317.36 413.983l.814-3.146M313.272 393.752l1.023-4M313.272 393.752l-.99 3.854M313.272 393.752l-4.07-.917M340.44 395.655l6.813 1.48M340.44 395.655l1.06-4.03M340.44 395.655l-1.026 3.91M322.08 395.737l-1.003 3.88M325.806 364.47l-1.838 6.844M325.806 364.47l-3.627-1.75M325.806 364.47l3.888 1.82M346.06 374.466l6.306 3.016M346.06 374.466l-.437 1.646M342.428 388.091l-.928 3.533M342.428 388.091l6.822 1.485M342.428 388.091l.14-.514M329.694 366.29l-1.54 5.955M325.177 383.76l.96-3.712M339.414 399.564l-1.053 4.007M339.414 399.564l6.843 1.47M342.569 387.577l1-3.756M342.569 387.577l6.802 1.54M304.346 410.76l4.3 1.065M304.346 410.76l.868-3.204M307.896 414.748l-4.077-.91-.135-.072-.09-.112-.023-.168.032-.199.743-2.527M327.46 409.558l-4.408-1.094M327.46 409.558l1.066-3.986M327.46 409.558l-.908 3.4M308.646 411.825l.816-3.194M308.646 411.825l-.75 2.923M338.361 403.57l-1.075 4.096M338.361 403.57l-4.373-1M318.174 410.837l.872-3.367M318.174 410.837l3.97 1.005M318.174 410.837l-4.514-1.143M320.062 403.55l1.015-3.932M320.062 403.55l-1.016 3.92M320.062 403.55l4.052.968M320.062 403.55l-4.463-1.067M333.988 402.57l-1.058 4.055M333.988 402.57l-4.394-1.004M313.66 409.694l.896-3.337M313.66 409.694l-4.198-1.063M336.21 411.761l1.076-4.095M336.21 411.761l6.742 1.723M341.746 418.13l-5.421-3.495-.275-.262-.171-.261-.117-.332.032-.35.416-1.669M328.487 388.715l.941-3.489M328.487 388.715l4.304.962M328.487 388.715l-4.34-.97M311.308 384.874l4.008.896M311.308 384.874l-7.673-1.717M311.308 384.874l-1.041 3.94M311.308 384.874l.908-3.436M328.526 405.572l4.404 1.053M328.526 405.572l-4.412-1.054M328.526 405.572l1.068-4.006M332.93 406.625l4.356 1.04M395.926 403.794l-3.36-.75M395.926 403.794l6.609 1.253M395.926 403.794l1.064-3.826M306.107 404.261l-1.013-.252M306.107 404.261l4.207 1.043M306.107 404.261l1.03-3.8M306.107 404.261l-.893 3.295M309.202 392.835l-1.037 3.83M309.202 392.835l1.065-4.021M309.202 392.835l-5.167-1.278M400.796 424.624l-3.75 2.605M400.796 424.624l-3.073-1.973M400.796 424.624l2.638 1.811M401.376 420.74l-.541 2.288-.039 1.596" clip-path="url(#paa52473b84)" style="fill:none;stroke:#000"/><path d="m409.967 421.84-1.436-1.634-.232-.186-.317-.105-.335-.033-.277.07-.22.124-6.354 4.548M329.594 401.566l-4.416-1.01M337.286 407.666l6.749 1.647M326.552 412.957l-4.408-1.115M326.552 412.957l3.229.78M323.052 408.464l1.062-3.946M323.052 408.464l-.908 3.378M323.052 408.464l-4.006-.994M307.137 400.46l4.162.995M307.137 400.46l1.028-3.795M295.253 404.692l.922-.243 2.948-.875 2.773-1.014 2.083-.927 1.227-.713.953-.448.978-.012M325.178 400.556l-1.064 3.962M325.178 400.556l-4.1-.938M319.046 407.47l-4.49-1.113M324.148 387.745l-4.332-.969M319.816 386.776l-4.5-1.006M305.214 407.556l4.248 1.075M309.462 408.631l.852-3.327M311.3 401.455l.983-3.849M311.3 401.455l-.986 3.85M311.3 401.455l4.299 1.028M341.5 391.624l6.806 1.522M341.5 391.624l-4.401-.984M312.283 397.606l4.357.997M312.283 397.606l-4.118-.941M342.952 413.484l.188-.723M342.952 413.484l-.319 1.393M315.599 402.483l1.04-3.88M315.599 402.483l-1.043 3.874M321.077 399.618l-4.437-1.015M337.099 390.64l-4.308-.963M308.165 396.665l-1.63-.373M310.314 405.304l4.242 1.053M334.878 381.94l1.073-3.976M334.878 381.94l4.25.92M334.878 381.94l-3.994-.864M339.127 382.86l1.035-3.967M339.127 382.86l4.442.961M305.393 375.497l-.572 1.999M305.393 375.497l.925-3.24M305.393 375.497l3.98.882M331.274 377.884l-4.324-.982M331.274 377.884l-.885 3.085M331.274 377.884l.256-.894M322.725 375.943l1.243-4.63M322.725 375.943l-.854 3.181M322.725 375.943l4.225.959M322.725 375.943l-4.338-.985M326.136 380.048l.814-3.146M326.136 380.048l4.253.92M326.136 380.048l-4.265-.924M318.387 374.958l1.416-4.571M318.387 374.958l-.456-.095M318.387 374.958l-.827 3.233M330.884 381.076l-.495-.107M330.884 381.076l1.142-3.977M330.884 381.076l-1.063 3.703M371.952 389.969l-4.404-.956M371.952 389.969l.726-2.773M371.952 389.969l-1.009 3.845M322.179 362.72l-.609-.29M322.179 362.72l-2.376 7.667M316.616 381.88l.944-3.69M316.616 381.88l-.51-.112M316.616 381.88l-.127.497M316.49 382.377l-.32-.07M313.133 373.287l-.18.034-.162.261-.057.346M313.133 373.287l-.85-.422-5.374-3.675-.137-.045-.105.008-.133.04-.065.05M313.976 373.979l.016-.197-.057-.191-.124-.163-.175-.114-.208-.055-.215.014-.08.014M343.569 383.821l6.748 1.461M343.569 383.821l1.05-3.945M317.08 378.087l.48.104M317.08 378.087l-3.758-.833M317.08 378.087l-.973 3.68M317.931 374.863l-.333 1.26-.518 1.964M321.87 379.124l-4.31-.933M317.931 374.863l-3.955-.884M317.931 374.863l1.326-4.611M312.734 373.928l.07.188.134.156.183.105.212.042.214-.025.193-.09.149-.144.087-.181" clip-path="url(#paa52473b84)" style="fill:none;stroke:#000"/><path d="m306.469 369.243-.037.097-.008.121.023.12.08.103 5.568 3.575.64.669M321.57 362.43l-2.313 7.822M286.949 343.8l-.511 1.032-.08.256.037.23.206.21 2.931 1.551 12.487 6.112 19.551 9.239M326.95 376.902l1.204-4.657M344.035 409.313l-.895 3.448M344.035 409.313l5.375 1.27M344.035 409.313l2.222-8.28M347.253 397.135l4.337.942M347.253 397.135l1.053-3.989M347.253 397.135l-.996 3.898M348.306 393.146l4.302.962M348.306 393.146l.944-3.57M349.25 389.576l.12-.46M349.25 389.576l4.28.932M350.317 385.282l4.313.934M350.317 385.282l1.028-3.923M350.317 385.282l-.946 3.835M352.366 377.482l3.997 1.912M352.366 377.482l-1.02 3.877M346.257 401.033l4.327.97M341.746 418.13l.887-3.253M348.185 425.268l-1.219-1.093-3.288-2.95-.825-1.037-.617-1.022-.49-1.037M349.37 389.117l4.277.93M360.704 381.47l-.541-.26M360.704 381.47l2.408 1.15M360.704 381.47l-.468 1.85M354.555 402.893l.618.138M354.555 402.893l-3.97-.89M354.555 402.893l1.023-3.95M355.173 403.031l4.056.91M355.173 403.031l1.016-3.955M353.53 390.508l.117-.46M353.53 390.508l-.922 3.6M353.53 390.508l4.007.872M358.649 387.086l.586.127M358.649 387.086l-4.02-.87M358.649 387.086l-.993 3.835M358.649 387.086l1.009-3.894M356.363 379.394l3.8 1.816M356.363 379.394l-.73 2.91M359.235 387.213l4.139.896M359.235 387.213l1-3.894M359.235 387.213l-.985 3.837M357.2 395.136l4.095.915M357.2 395.136l-.6-.135M357.2 395.136l.932-3.626M357.2 395.136l-1.011 3.94M357.537 391.38l-.938 3.621M357.537 391.38l.595.13M357.537 391.38l.119-.46M350.584 402.003l1.006-3.926M360.163 381.21l-.505 1.982M358.132 391.51l.118-.46M358.132 391.51l4.117.895M358.25 391.05l-.594-.13M358.25 391.05l4.119.897M354.63 386.216l1.002-3.912M354.63 386.216l-.983 3.832M355.578 398.943l-3.988-.866M355.578 398.943l.61.133M355.578 398.943l1.021-3.942M357.656 390.92l-4.009-.872M356.6 395.001l-3.992-.893M356.189 399.076l4.081.886M351.59 398.077l1.018-3.969M340.162 378.893l.984-3.773M340.162 378.893l4.458.983M340.162 378.893l-4.211-.929M359.229 403.94l4.186.939M359.229 403.94l1.041-3.978M359.229 403.94l-1.36 5.195M363.374 388.11l4.174.903M363.374 388.11l1.247-4.767M363.374 388.11l-1.005 3.837M345.623 376.112l-4.477-.992M345.623 376.112l-1.003 3.764M332.607 373.236l-4.453-.99M332.607 373.236l-1.077 3.754M332.607 373.236l.497.103M332.607 373.236l.779-2.716M336.969 374.195l-1.018 3.77M336.969 374.195l4.177.925M336.969 374.195l-3.865-.856M335.95 377.964l-3.924-.865M319.257 370.252l.546.135M362.249 392.405l.12-.458M362.249 392.405l-.954 3.646M362.249 392.405l4.178.91M363.112 382.62l1.509.723M363.112 382.62l-.754 2.943M331.53 376.99l.496.11M359.658 383.192l.578.127M359.658 383.192l-4.026-.888M333.104 373.34l-1.078 3.76M357.019 412.382l.85-3.247M357.019 412.382l4.178 1.011M357.019 412.382l-7.609-1.799M344.62 379.876l6.725 1.483M361.295 396.051l4.176.934M361.295 396.051l-1.025 3.911M362.369 391.947l4.178.91M319.803 370.387l4.165.927M323.968 371.314l4.186.931M364.621 383.343l3.922 1.875M351.345 381.359l4.287.945M360.27 399.962l4.188.91M342.633 414.877l1.472.741M356.103 427.134l-4.76-4.549M356.103 427.134l-2.826 2.704M358.165 425.031l-.403 1.545-.125.321-.196.222-.28.153-.32.06-.3-.019-.438-.179M344.105 415.618l7.238 6.967M343.14 412.76l.836.23.423.198.235.307.04.321-.098.438-.47 1.364M379.586 395.696l1.238-4.522M379.586 395.696l-.124.457M379.586 395.696l-2.809-.612M379.586 395.696l3.509.764M361.197 413.393l.867-3.328M361.197 413.393l-1.023 3.924M361.197 413.393l4.34 1.05M377.41 403.684l-4.244-.922M377.41 403.684l3.552.772M377.41 403.684l1.034-3.798M377.41 403.684l-1.111 4.083M363.415 404.879l4.372.98M363.415 404.879l1.043-4.007M363.415 404.879l-1.351 5.186M369.856 397.965l3.004.672M369.856 397.965l-4.385-.98M369.856 397.965l.967-3.693M369.856 397.965l-1.012 3.86M373.166 402.762l-4.322-.938M373.166 402.762l.978-3.818M373.166 402.762l-1.042 4.068M365.471 396.985l.956-3.67M365.471 396.985l-1.013 3.887M367.548 389.013l.995-3.795M367.548 389.013l-1.001 3.844M361.95 428.136l.532-2.033M374.144 398.944l1.546.326M374.144 398.944l-1.284-.307M370.943 393.814l-.12.458M370.943 393.814l-4.396-.957M370.943 393.814l2.983.65M366.427 393.315l.12-.458M366.427 393.315l4.396.957M378.444 399.886l3.527.788M378.444 399.886l-2.754-.616M378.444 399.886l1.018-3.733M366.54 428.657l.387-1.55M368.543 385.218l4.135 1.978M372.124 406.83l4.175.937M372.124 406.83l-4.337-.971M372.124 406.83l-1.325 5.17M372.19 424.693l4.285-3.42M372.19 424.693l-3.853 3.09M372.19 424.693l-.406-.357M364.458 400.872l4.386.952M367.787 405.859l1.057-4.035M367.787 405.859l-1.355 5.174M380.824 391.174l-2.681-1.31M380.824 391.174l3.26 1.592M365.538 414.443l.894-3.41M365.538 414.443l-1.029 3.926M365.538 414.443l4.365 1.053M372.678 387.196l2.772 1.354M372.678 387.196l.898-1.555M370.823 394.272l2.986.65M376.299 407.767l3.566.799M376.299 407.767l-1.402 5.142M369.903 415.496l.896-3.496M369.903 415.496l-1.008 3.933M369.903 415.496l4.023.977M373.576 385.641l1.246.578M373.926 416.473l.971-3.564M373.926 416.473l-1.068 3.921M373.926 416.473l3.597.87M379.462 396.153l3.51.764M379.462 396.153l-2.804-.611M366.927 427.108l.958-3.739M366.927 427.108l-4.445-1.005M368.337 427.783l-.43-.453-.98-.222M356.005 420.44l-.692 2.482M356.005 420.44l3.153.778M356.005 420.44l-1.172-.29M384.084 392.766l-.99 3.694M384.084 392.766l3.257 1.591M380.274 418.008l.697.169M380.274 418.008l-2.75-.665M376.475 421.272l3.237-2.452.266-.291.169-.274.127-.247M364.51 418.369l-1.027 3.918M364.51 418.369l4.385 1.06M364.51 418.369l-4.336-1.052M358.165 425.031l.993-3.813M358.165 425.031l4.317 1.072M360.174 417.317l-1.016 3.901M360.174 417.317l-2.529-.614M371.784 424.336l1.074-3.942M371.784 424.336l-3.9-.967M368.895 419.43l-1.01 3.94M368.895 419.43l3.963.964M380.962 404.456l3.475.755M380.962 404.456l1.009-3.782M380.962 404.456l-1.097 4.11M348.323 413.773l1.087-3.19M379.865 408.566l3.468.777M379.865 408.566l-1.371 5.14M383.095 396.46l-.122.457M383.095 396.46l3.48.757M362.482 426.103l1-3.816M372.858 420.394l3.617.878M359.158 421.218l4.325 1.069M377.523 417.343l.97-3.637M377.523 417.343l-1.048 3.93M377.17 437.302l-2.095-1.924M377.17 437.302l-6.106 5.324M377.17 437.302l5.621-4.429M377.17 437.302l3.24 1.953M367.885 423.37l-4.402-1.083M381.97 400.674l3.473.777M381.97 400.674l1.003-3.757M382.973 396.917l3.48.757M386.453 397.674l.122-.457M386.453 397.674l-1.01 3.777M386.453 397.674l1.843.401M391.438 420.71l1.044-3.904M391.438 420.71l2.95.713M391.438 420.71l-3.53-.855M386.575 397.217l.766-2.86M386.575 397.217l1.835.4M396.774 412.356l-2.925-.656M396.774 412.356l-2.386 9.067M393.624 399.235l.126-.455M393.624 399.235l-1.057 3.809M393.624 399.235l3.366.733M393.624 399.235l-3.673-.8M370.776 430.528l2.313 2.609M370.776 430.528l-2.439-2.745M370.776 430.528l8.11-7.003M389.95 398.436l.123-.457M389.95 398.436l-1.02 3.795M389.95 398.436l-1.654-.36M397.723 422.651l-1.136-.68-.385-.176-.448-.118-1.366-.254M387.925 405.968l-3.488-.757M387.925 405.968l3.615.785M387.925 405.968l1.005-3.737M387.925 405.968l-1.117 4.154M385.443 401.45l3.487.78M385.443 401.45l-1.006 3.761M384.179 418.953l-5.294 4.572M384.179 418.953l3.729.902M384.179 418.953l-3.208-.776M385.43 415.244l-.827 3.076-.148.244-.276.39M396.99 399.968l.121-.456M392.567 403.044l-3.637-.813M392.567 403.044l-1.027 3.71M390.385 410.923l3.464.777M390.385 410.923l-3.577-.8M390.385 410.923l1.155-4.17M390.385 410.923l-1.416 5.105M388.41 397.617l.535-1.99.028-.18-.018-.187-.088-.127-.161-.11-1.365-.666M386.808 410.122l-3.475-.779M386.808 410.122l-1.377 5.122M383.333 409.343l1.104-4.132M383.333 409.343l-1.372 5.132M390.073 397.98l-1.663-.363M390.073 397.98l3.677.8M393.85 411.7l-1.368 5.106M393.75 398.78l3.361.732M387.908 419.855l1.061-3.827M387.908 419.855l-.901 1.24M380.97 418.177l.99-3.702M373.089 433.137l1.986 2.241M373.089 433.137l6.688-5.484M357.869 409.135l4.195.93M372.86 398.637l.95-3.715M362.064 410.065l4.368.968M392.482 416.806l-3.513-.778M388.97 416.028l-3.54-.784M375.45 388.55l-1.524 5.913M375.45 388.55l2.693 1.315M381.96 414.475l3.47.769M381.96 414.475l-3.466-.769M375.69 399.27l.968-3.728M373.81 394.922l.116-.459M373.81 394.922l2.848.62M378.494 413.706l-3.597-.797M376.777 395.084l1.366-5.22M376.777 395.084l-.119.458M376.777 395.084l-2.85-.62M374.897 412.91 370.8 412M370.799 412l-4.367-.967M371.064 442.626l-1.106-2.719M375.428 446.73l-3.442-1.908-.922-2.196M382.892 440.602l4.538-3.18M382.892 440.602l-2.482-1.347M382.892 440.602l-.725 1.617M365.956 443.45l1.752-1.551M367.732 450.254l-.205-.214-.183-.26-.139-.328-.095-.312-1.51-4.867-.012-.304.098-.241.27-.279M363.618 443.221l.286.04.265.007.304-.003.345-.025.32-.004.302.02.228.058.288.135M367.708 441.899l1.927 5.579.016.23-.039.17-1.88 2.376" clip-path="url(#paa52473b84)" style="fill:none;stroke:#000"/><path d="m375.428 446.73-2.963 4.364-.273.298-.33.158-.41-.026-.424-.136-3.296-1.134M375.075 435.378l-5.117 4.53M382.791 432.873l-2.347-1.49-.236-.035-.217.095-4.916 3.935M382.791 432.873l3.054 1.938M385.845 434.811l2.736-1.852M380.41 439.255l.298-.543.223-.29.251-.212 4.663-3.399M380.41 439.255l-1.804 2.707M414.953 433.236l7.238-7.415M414.953 433.236l-4.57 4.329M414.953 433.236l3.113.798M411.826 432.34l1.02.398 2.107.498M403.434 426.435l1.997 1.57M403.434 426.435l-4.796 3.226M403.434 426.435l6.533-4.595M405.431 428.004l1.308 1.028M409.967 421.84l1.266 1.352.025.162-.012.14-.073.15-5.742 4.36M369.958 439.907l-2.25 1.992M376.475 421.272l2.41 2.253M398.083 433.785l-1.97-2.4M396.114 431.385l-2.712 1.852M396.114 431.385l2.524-1.724M380.597 449.595l-5.34 7.855M380.597 449.595l4.072-5.988M380.597 449.595l-2.514-1.393M394.205 429.153l-2.898 1.961M394.205 429.153l2.842-1.924M394.205 429.153l-9.599-5.825M378.885 423.525l3.174 2.258M398.827 439.475l-3.394 2.736M398.827 439.475l-2.066-2.384M408.881 430.714l-5.169 4.997-4.885 3.764M398.56 463.636l.166-.608.048-.228-.02-.203-.425-.996-.248-.82-.686-1.52-1.762-3.385-1.16-1.292-1.418-1.765-1.454-1.917-.93-1.241-.534-.591-.092-.203.083-.202.359-.321 2.421-1.749 6.72-5.269.248-.219.074-.169.007-.182-1.13-1.28M388.581 432.959l2.726-1.845M388.581 432.959l-8.804-5.306M387.007 421.095l10.04 6.134M387.007 421.095l-2.401 2.233M400.523 431.845l-1.885-2.184M384.669 443.607l-2.502-1.388M384.669 443.607l1.244.69M391.307 431.114l-9.248-5.331M391.307 431.114l2.095 2.123M384.606 423.328l-2.547 2.455M378.083 448.202l4.084-5.983M378.083 448.202l-5.31 7.78M378.083 448.202l-2.655-1.472M393.402 433.237l-5.972 4.185M393.402 433.237l1.966 2.255M396.761 437.09l9.978-8.058M396.761 437.09l-1.393-1.598M379.777 427.653l2.282-1.87M408.881 430.714l-2.142-1.682M408.881 430.714l2.945 1.627M395.368 435.492l-5.284 3.904-.293.049-.288-.059-.252-.107-.224-.177-1.597-1.68M415.988 408.23l-2.376 2.518-2.054 2.385-.839 1.02-.922.926-1.057.83-1.09.81-1.05.8-5.224 3.22M348.268 465.577l-1.315 2.547M348.268 465.577l1.367-2.646M348.268 465.577l9.455 5.216M363.618 443.221l-.156-.087-.148-.107-.11-.151-.503-1.311-.44-.862-.481-.94-.543-1.174-.627-.974-.852-.959" clip-path="url(#paa52473b84)" style="fill:none;stroke:#000"/><path d="m352.331 457.71 5.567-11.474 1.334-2.6.54-1.35.353-1.341.13-1.118.019-1.04-.084-.751-.172-.69-.26-.69M353.277 429.838l3.076 2.667 1.508 1.385.592.662.51.648.795 1.456" clip-path="url(#paa52473b84)" style="fill:none;stroke:#000"/><path d="m364.516 440.535-.474.236-.267.1-.304-.022-.243-.078-.242-.178-.244-.234-.182-.29-1.227-2.83-.376-.345-.522-.19-.677-.048M372.695 579.564l-1.138-7.205-1.282-9.584-1.483-8.622M363.576 528.179l.609 1.624.576 1.808 1.234 4.843.466 1.985.336 1.699.264 1.594 1.29 9.4.441 3.021" clip-path="url(#paa52473b84)" style="fill:none;stroke:#000"/><path d="m369.77 555.27-.272-.241-.329-.36-.377-.516M212.037 378.62l-5.552 6.36-7.453 9.403-7.05 9.365-2.125 2.322-1.22.868M208.307 498.07l2.375-3.341 1.468-1.962.245-.756-.052-.72-.991-2.447-.387-1.3.142-3.355-.052-1.406-.36-1.453-1.984-4.798-1.117-1.82-.196-.768.013-.876.418-1.151 2.014-4.355 1.373-3.61 1.112-2.592.967-1.571.955-1.812 1.308-1.211 2.289-1.812 1.595-2.063 2.942-4.943.903-2.015.17-1.08-.236-.911-1.844-4.187-1.648-2.675-1.948-1.968-2.053-1.643-6.108-4.427-4.001-3.935-3.309-3.299-2.223-1.98-2.298-3.38-3.024-3.23-3.257-3.299-2.87-2.981" clip-path="url(#paa52473b84)" style="fill:none;stroke:#000"/><path d="m162.078 401.83 3.116.461 3.059.84 2.266.737 4.013 1.326 1.339.36 1.37.111 10.508.921.889.352M388.41 397.617l-.114.458M269.007 381.273l3.784.699 3.572.396 4.229.44 1.692.547 2.564 1.058 3.052 1.218 1.109.46 4.853 2.01 3.25 1.182 5.049 1.647 1.874.627" clip-path="url(#paa52473b84)" style="fill:none;stroke:#000"/><path d="m303.537 387.247-1.507 2.281-.04.271.13.235 1.915 1.523M294.414 301.67l-1.598-.752-2.105-1.002-1.519-.898-1.078-.989-1.006-1.346-1.351-2.32-.792-1.082-2.04-1.94-3.739-3.534-1.696-1.94-1.768-2.44-1.886-2.444-1.153-.897-1.635-1.312-1.314-1.594-1.182-1.875-.788-1.861-.555-2.09.03-2.557.642-3.763.496-3.978.16-3.602-.379-1.393-.744-1.366-2.233-3.469-.57-1.46-.146-1.138-.014-1.125.03-.95.028-1.112-.13-3.04-.512-11.076-.321-3.683-.482-4.593-.686-3.831-.73-3.549-.715-3.442-.978-2.33-.948-1.607-2.424-3.01-2.31-2.066-2.535-1.55-4.638-2.965-3.823-2.27-.948-.803-.579-.761-.355-.843-.652-3.808-.844-2.352-1.112-1.59-2.52-2.76-6.92-6.813-5.378-5.031-5.853-5.548M135.126 172.107l.507-.393.589-.072 1.965.336.866-.101 2.2-.959 2.787-1.018 3.498-1.488 2.21-1.274 1.132-.795.91.03 3.921 1.763 2.155.734 3.076.163 3.265-.142 2.332-.408 3.088-.785 2.387-.367 4.276-.183 2.998.367 6.52-.133 6.35-.601 2.622.316 3.598.846 2.077.112 7.729.224 4.131-.51 3.398-.733 2.403-.916M120.986 186.531l1.13-1.397 1.087-.832 1.074-.637.65-.637.974-1.459.996-1.274 1.03-.585 1.13-.473.648-.39.775-.596 4.22-4.767.314-.689.112-.688M120.986 186.531l-1.86 2.805M117.682 188.296l.708-.143.797-.285.93-.558.869-.779M119.127 189.336l-.25-.42-.332-.285-.863-.335M140.2 274.825l-3.843-1.801M140.2 274.825l2.09 11.362M154.716 281.655l-6.25-2.725-8.266-4.105M136.658 271.445l.968.841.343.316.969.779.97.71.182.224.083.232.027.278M143.538 291.64l-1.248-5.453M100.73 350.69l3.028-3.058 5.107-4.363 4.571-4.53 4.954-4.475 2.11-2.216.795-.66 1.055-.393.84-.406.658-.631.498-1.417 2.92-7.295.75-2.413.49-1.963.687-1.305.75-.996 3.256-3.619 4.266-4.728 2.874-3.45 2.171-2.904 1.055-1.655.382-.772.276-1.262-.685-4.54M150.377 291.77l-.225.164-.638 1.556-.113.094-.144.054-.19-.01-.201-.072-.613-.342-2.79-1.244-.888-.263-.7-.08-.337.012M484.935 323.423l.281-.441.106-.565-.146-.914-.738-1.674-1.474-2.818-2.205-3.888-1.401-1.94-1.58-1.562-1.087-1.212-.72-1.271-.925-2.484-.39-1.212.025-.58.276-.587 1.483-1.918.073-.52-.097-.492M484.935 323.423l2.26-1.69.971-.461 1.338-.171 1.742-.223 1.102-.483.948-.707 1.224-1.539 1.678-1.807 1.636-1.702M467.463 343.731l.513-1.867.555-1.974.342-1.056.53-1.235.592-1.029.56-.809.61-.632.802-.823 1.362-1.162 3.99-3.28 2.789-2.322 2.036-1.838 1.378-1.133 1.413-1.148M498.695 341.525l-5-.135-4.163-.159-3.366-.176-4.375-.206M467.463 343.731l1.266-.088 1.378-.118 1.074-.088.914-.206 1.474-.47 1.058-.545 1.012-.497.687-.267.83-.328.868-.26 1.075-.103 1.532.013 1.16.075" clip-path="url(#paa52473b84)" style="fill:none;stroke:#000"/><path d="m480.653 358.465.16-2.132.016-3.25.016-1.015-.047-.69-.097-.957-.096-.617-.112-.838.048-.75.192-.941.145-.618.448-1.514.4-.795.498-.91.128-.442.016-.294-.016-.368-.144-.558-.417-.927M617.275 358.214l-.104-.933-.104-.368-1.002-2.411-.072-.655-.216-.411-1.747-1.853-.545-.764-.93-1.633-1.266-2.631-.881-1.471-.24-.589-.321-3.734-.289-.544-.641-.706-.913-.75-.593-.265-.77-.22-1.282-.191-7.548-.368-.93-.235-.537-.33-.457-.464-3.125-3.993-.986-.543-1.675-1.066-2.307-2.214-.369-1.073-.577-.42-.657-.08-1.378.346-3.59 1.323-.597-.228-.373-.162-.24-.025-1.463.22-2.832.754-2.365.463-2.652.03-1.226.257-3.254 1.422-1.604.984-1.335.143-.77.554-1.039.788-.473.264-2.953 1.293-5.328 2.036-1.37.154-5.795.074-1.073-.118-1.267-.397-1.915-.712-1.875-.5-1.915-.36-1.282-.03-1.395.198-5.715.873-.96-.064-.497-.117-5.008-2.045-.866-.161-1.001.05-.577.111-1 .475-1.55 1.06-.27.12-3.495 1.33-3.778 1.747-2.408.765-.329.076-1.81.148-1.996.381-.93.265-2.452.353-1.495.088M511.89 329.35l-1.074 1.147-.61.72-.384.677-.272.53-.288.823-.225.5-.256.427-.305.367-1.715 1.309-4.488 3.161-3.578 2.514M467.463 343.731l-2.628.25-1.78.235-1.955.31-2.3.58-1.979.353-3.99.727-1.964.265-1.667-.036-3.55-.324-7.244-.735-2.42-.28-3.013-.492-4.872-.846-3.278-.396-5.048-1.015-2.637-.5-1.418-.096-1.499.103-1.45.155-3.887.886" clip-path="url(#paa52473b84)" style="fill:none;stroke:#000"/><path d="m417.178 319.16-.449.941-.609 1.148-.753 1.146-1.923 2.559-5.682 7.536-2.584 3.348-.132.24-.04.308.088.331.256.383 3.366 4.131.189.416.063.283.005.28-.025.308-.064.357M212.037 378.62l-1.562.124-1.43.08-2.254-.347-2.46-.418-2.987-.569-2.753-.206-3.79-.064-4.114.355-4.453-.148-3.107.03-1.788-.312-7.082-2.315-5.266-1.253-2.777-.734-1.728-.307-1.58-.09-2.723.148-1.253-.04-5.045-1.027-1.014-.308-1.404-.643-.97-.45-3.03-1.79-2.541-1.277-3.644-1.299-5.995-3.21-5.706-3.016-8.982-2.239-6.407-1.81-4.981-1.778-4.39-1.288-4.09-1.729" clip-path="url(#paa52473b84)" style="fill:none;stroke:#000"/><path d="m229.231 375.81-2.29-.435-4.463-.59-2.515-.201-1.512-.024-1.602.241-1.284.454-1.259.853-2.27 2.512M448.615 438.743l.217-.78.063-.72-.063-.72-.448-2.124-.065-.773.016-1.02.248-3.949.216-1.61.265-.927.574-1.43.467-1.41.081-.57M412.616 439.473l4.85-4.566.6-.873M421.544 434.37l-1.447-.017-2.031-.32M431.52 434.606l-3.64-.599-2.092-.064-2.889.357-1.355.07M420.626 436.123l.454-.547.22-.364.102-.324.142-.517M522.768 457.452l-33.364-16.063-7.725-3.72-6.974-3.444" clip-path="url(#paa52473b84)" style="fill:none;stroke:#000"/><path d="m462.238 449.012.329.073.216.022h.288l.674-.087 1.057-.162 1.154-.214 1.667-.381.914-.236.897-.265.393-.073.569-.074.64-.029.482.014 1.607.109.677.06 1.041.052.345-.014.248-.11.105-.17.032-.22-.089-.441-.392-1.338-.144-.669-.113-.574-.352-2.16-.321-2.618-.208-2.205-.032-.47.048-.662.208-.706.527-1.24M462.238 449.012l-.713-.441-1.594-1.31-.435-.414-1.112-.974-.682-.617-.535-.466-2.51-2.07-.73-.58-.88-.604-2.725-1.632-1.707-1.161M431.52 434.606l5.21.896 4.074.81 3.278.848 3.291 1.077 1.242.506" clip-path="url(#paa52473b84)" style="fill:none;stroke:#000"/><path d="m428.282 474.822 4.795 5.336.224.222.329.132.493.072 2.392-.088.541-.026.513-.136.512-.242.898-.567.838-.378.9-.357 1.884-.521.561-.228.513-.295.7-.525.694-.603.581-.349.601-.19.861-.09 4.717.221 1.783.151.58-.092.442-.271.401-.484.359-.648.049-.677-.048-1.58-.337-3.323-.393-5.27-.016-1.199.176-1.382.353-.948.793-1.118 1.427-1.697.633-.691.505-.441.521-.456.2-.184.264-.33.305-.427.346-.532.247-.475.77-1.948.368-1.096.36-1.095.321-.985M414.261 540.02l-.89-.801-.505-.378-.744-.482-1.327-.666-.749-.474-.57-.474-2.944-2.82-4.279-4.01-2.904-2.391-7.227-5.27-.435-.455-.223-.334-.194-.445-.056-.386-.032-.467.11-.578.684-2.443.553-2.83.12-.904-.016-.64-.128-.58-.233-.47-.697-1.2-5.015-7.604-.703-1.008-1.385-1.84-1.584-2.11-1.496-2.143-1.524-2.28-.54-.744-.67-.786-.465-.404-.914-.743-.446-.347-3.02-2.407M356.345 473.113l4.314 2.664 1.442 1.176 1.235 1.205 5.94 5.81 3.98 3.702.557.436" clip-path="url(#paa52473b84)" style="fill:none;stroke:#000"/><path d="m411.216 477.695-.842.83-.825.795-.961.919-.874 1.007-1.057 1.235-.89.911-1.546 1.095-1.371.904-1.362 1.015-1.178 1.14-1.098 1.065-.353.177-.32.022-.329-.104-.873-.742-2.076-1.734-1.474-1.177-.793-.492-.89-.412-1.635-.75-1.098-.558-.753-.5-1.947-1.426-.77-.302-.672-.095h-.53l-.472.095-.465.192-.393.367-1.106 1.434-.609.75-.409.352-.432.25-.489.132-.673.059-.953.235-2.453 1.089-.617.433-.665.772-1.15 1.428M279.362 415.557l-6.758 13.965-.385 1.235v1.176l.128 2.528 2.629 16.82v1.47l-.129 1.118-.897 1.881-4.487 7.704-.962 2.529-.77 4.234-.128 5.35-.064 2.647-.256 1.588-.641 1.823-1.09 1.765-1.731 1.763-2.628 1.882-2.693 1.411-5.834 2.059-6.346 1.352-4.653 1.497-2.022.366-3.852.39-5.654 1.135-6.595 1.571-6.583 1.56-3.67.543-1.662.248-.902-.165-1.61-.709-.81-.224M126.668 592.14l-.369-1.136-.039-.863.4-1.264 1.34-2.587 1.648-4.36.773-2.044.516-.78.953-.91 1.945-1.003 1.713-.225 1.34-.165 1.107-.52 1.16-1.229 1.107-1.878 5.282-10.716 1.365-2.505.798-2.08 1.031-2.764 1.674-2.882.658-2.293.36-1.7.657-1.62 3.62-6.426 3.065-5.282 2.963-6.061 1.708-2.258 2.714-1.504 3.334-2.29 3.862-2.038 2.369-1.05 6.814-2.139 1.933-.815 3.336-1.642 3.774-2.446 3.838-2.753 5.166-3.356 1.494-1.323 1.649-2.21 2.486-2.777 2.095-2.177M424.546 554.45l-.532-.141-.34-.178-.793-.698-.55-.668-.37-.567-2.44-4.465-3.127-5.086M414.261 540.02l.682.75.649.779.802 1.098" clip-path="url(#paa52473b84)" style="fill:none;stroke:#000"/><path d="m422.988 535.051-.4.67-.24.476-1.66 4.279-.248.286-.393.302-.922.506-.569.258-2.162.82M401.448 588.412l2.436-2.705 1.266-1.617 1.17-1.778 2.98-5.69 1.62-2.513.737-1.029.785-.978 1.09-1.278.673-.625 1.467-1.14 1.506-1.388.713-.713.674-.816 1.041-1.463.305-.492.243-.256.422-.325.569-.412.433-.477.312-.5.385-1.08.585-1.33.4-.773.706-1.08.569-1.088.168-.433.072-.419-.032-.449-.197-1.114" clip-path="url(#paa52473b84)" style="fill:none;stroke:#000"/><path d="m435.394 557.256-2.253-.845-.678-.22-3.939-.955-3.978-.785M528.975 565.065l-3.655-1.973-1.69-.72-1.507-.441-2.364-.449-2.3-.448-2.26-.596-4.96-1.366-2.388-.74-7.58-2.907-6.788-2.704-2.7-1.213-2.702-1-1.281-.33-1.355-.198-2.428-.111-1.94-.206-2.66-.206-1.386-.007-1.78.17-4.383.683-2.965.573-10.753 2.117-11.191 2.567-2.841.571-3.072.452-4.652.673M455.955 612.497l-.064-3.69-.248-3.175-.168-1.308-.112-.595-.19-.588-.348-.698-1.359-2.366-3.181-5.383-.749-1.337-.216-.395-.72-1.735-.658-1.823-.36-1.051-2.08-6.4-.573-2.214-.162-.86-2.05-11.414-.152-.808-.152-.493-.172-.387-3.947-5.927-.52-.706-.945-.918-.507-.382-.928-.588M522.66 579.769l1.875-2.161 1.555-1.739.617-.826.32-.596.305-.58.2-.81.144-.977.217-1.094.337-2.448.573-2.727.172-.746M372.695 579.564l5.024-1.537 1.13-.247.735-.077M401.448 588.412l-2.06 1.8-1.073.853-.786.397-.465.066-.497-.022-.36-.08-.465-.243-.4-.426-.626-.559-.515-.3-.66-.323-1.357-.568-1.374-.8-2.311-1.91-2.526-1.815-1.093-1.097-.683-.856-1.148-2.099-1.058-1.382-.56-.536-.58-.377-.575-.27-.692-.162M383.511 566.686l.9.897 1.41 1.617.618.8.08.287-.016.272-.08.412-.418 1.257-.656 1.683-.73 1.845-.16.33-.24.191-.425.177-1.619.272-.825.206-1.306.5-.46.27M373.123 582.32l-.252-1.64-.176-1.116M410.23 604.317l-2.211-3.499-.85-1.308-.432-.955-.305-1.132-.417-1.382-.497-1.073-.753-1.264-1.458-1.867-.85-1.28-1.009-2.145M448.103 621.161l2.019-.256.953-.214.762-.272.56-.367.482-.544.552-1.05 2.06-4.734.464-1.227M374.106 442.753l2.862 1.666M375.798 440.045l2.808 1.917M375.428 446.73l1.54-2.31M378.606 441.962l-1.638 2.457M313.322 377.254l-3.949-.875M315.316 385.77l-1.02 3.982M315.316 385.77l.854-3.463M316.107 381.768l-.13.496M312.216 381.438l3.76.826M304.627 378.566l2.292 1.708 5.297 1.164M315.976 382.264l.194.043M295.253 404.692l1.106-5.036M279.362 415.557l.358-.738 4.487-8.057.449-.53.833-.235 1.604-.175 2.55-.233 2.148-.221 1.883-.287 1.579-.39M307.896 414.748l2.917.717M348.185 425.268l3.158-2.683M353.277 429.838l-1.74-1.562-3.352-3.008M372.774 455.982l2.484 1.468M363.618 443.221l.05.458.56 1.672.691 2.652 1.349 3.576 1.19 2.207.693 1.392.352.468.522.49 2.095 1.52.218.111.222-.006 1.214-1.779M415.988 408.23l4.265 2.062M415.988 408.23l-10.483-5.093M420.253 410.292l11.636 5.63M420.253 410.292l-1.422 2.732M416.044 418.368l.606-1.162M416.044 418.368l4.356 5.288M416.044 418.368l-.44-.534M409.967 421.84l5.637-4.006M416.65 417.206l-1.046.628M416.65 417.206l.738-1.416M422.19 425.82l-1.79-2.164M422.19 425.82l2.13-2.173M420.4 423.656l-8.574 8.685M431.889 415.922l1.508.727M431.889 415.922l-5.523 5.637M418.83 413.024l-1.442 2.766M418.83 413.024l7.536 8.535M426.366 421.559l-2.046 2.088M417.388 415.79l6.932 7.857M424.32 423.647l2.493 1.893M395.431 379.563l.84.31h.521l.653-.034.558.018.448.118 2.95 1.147.512.088.45-.03.544-.147 2.872-1.546 1.039-.512.96-.315M410.792 379.475l-1.987-.824-.545-.029-.482.038" clip-path="url(#paa52473b84)" style="fill:none;stroke:#000"/><path d="m420.8 375.322-1.258.184-1.755.132-2.757.316-2.66.449-1.555.353-.85.353-.743.484-1.444 1.067M399.824 375.398l-4.393 4.165M393.355 378.844l2.853-4.28.224-.235.385-.295M393.355 378.844l.48.33 1.596.39M374.822 386.22l25.458 12.339M393.355 378.844l-1.33.355-1.235.392-2.63 1.077-4.138 1.556-1.738.604-2.642 1.183-3.808 1.495-.538.309-.474.404M289.96 345.25l-3.011-1.45M281.416 341.133l.208-1.197 1.47-2.697 1.047-1.62.338-.097.307.058 7.126 4.273.34.324.128.327-.015.318-.197.391-2.207 4.038M405.505 403.137l-.078-.19-.048-.17-.026-.186.006-.228M438.314 411.812l-.092.69-.72 1.771-.1.133-.182.103" clip-path="url(#paa52473b84)" style="fill:none;stroke:#000"/><path d="m437.253 409.412 1.5.616.451.254.46 1.503-.386 1.318-.258 1.232-.12.254-.137.143-.176.05-.276-.025-1.091-.248M403.27 402.385l-.735 2.662M298.91 363.79l7.559 5.453M350.997 460.293l-1.362 2.638M350.997 460.293l1.334-2.582M350.997 460.293l8.826 5.054M352.331 457.71l7.993 4.653M333.658 368.202l-.015 1.048-.073.55-.184.72M329.821 384.779l-.145.507M581.864 486.083l2.356 1.073 8.646 4.425 3.646 1.705 2.316 1.052 2.552 1.032 2.405.86 1.92.574 1.814.518 2.95.69 2.455.441 1.835.298 2.89.33 3.1.277 4.26-.008 2.776-.118 2.588-.203M581.864 486.083l-1.459-.765M581.75 484.634l.065 1.022.049.427M581.75 484.634l-1.345.684M593.804 481.473l-.625-.147-.693-.15-.53-.026-.66.06-1.002.256-.97.323-2.709.883-2.123.783-1.871.801-.87.378M406.304 545.121l1.474-1.102 6.483-4M347.272 496.978l2.24 4.099 6.667 11.886 3.374 6.145.793 1.42.794 1.688.585 1.258.696 1.61.337.823.818 2.272M386.23 551.766l-1.659-.64-1.242-.551-.865-.493-.521-.375-2.685-2.513-2.668-2.448-1.186-1.021-1.795-1.302-1.755-1.176-.873-.713-2.284-2.433-1.563-1.646-.553-.669-.216-.44-1.37-4.654-.49-1.529-.304-.617-.225-.272-.4-.095M425.168 530.038l-.032.272.072.588.144 1.22-.112.53-.209.39-.248.293-1.234 1.14-.561.58M415.023 531.957l.689-.022.56-.125.674-.236.52-.132.418.015.48.169.633.338.32.331.33.559 1.145 1.433.45.382.488.213.449.088.809.081M425.705 529.01l-.441.786-.096.242" clip-path="url(#paa52473b84)" style="fill:none;stroke:#000"/><path d="m434.07 529.09-1.81-.963-.401-.132-.344.015-.257.124-.144.258-.465.47-.625.441-1.218.463-.841.228-.65.14-.689.022-1.458-.118M388.338 553.309l-1.283-1.121-.316-.239-.152-.084-.357-.1M369.77 555.27l.536-.292.546-.2.77-.117 2.396-.169 1.482-.051.858-.125 1.017-.228 1.274-.294 1.627-.514 4.295-1.081.986-.294.384-.107.29-.032M332.042 563.217l-1.161 1.896-.834 1.852-.192.757-.12 1.845-.073.338-.384.963-.128.456-.04.588-.28 7.305.015.911.105.464.288.426.785.588.618.507 3.429 3.197M373.123 582.32l-1.935-.332-1.57-.397-11.892-3.616-8.847-3.028-8.887-3.094-1.419-.508-.816-.426-.658-.551-.946-1.183-1.17-1.75-2.94-4.218" clip-path="url(#paa52473b84)" style="fill:none;stroke:#000"/><path d="m324.45 557.45.773.29 4.36 2.368.32.23.421.35.705.915 1.013 1.614M295.914 561.654l2.08 1.651 1.29.764 1.233.559 1.186.323 1.603.258 2.725.176 3.197-.103 3.943-.125.897-.125.65-.213.945-.5 1.01-.64 3.165-2.652 1.771-1.684 1.635-1.5.317-.256.288-.137.329-.051.272.051" clip-path="url(#paa52473b84)" style="fill:none;stroke:#000"/><path d="m326.577 534.97-.087 1.419-.225 4.35.032 1.118.153.706.2.617.304.735.962 1.691.553 1.323.457 1.573.12.83-.04.596-.16.368-.53.712-.48.684-2.693 2.587-.264.301-.193.302-.064.257-.172 2.311M276.068 567.406l6.123-1.823 4.167-1.293 2.452-.72.945-.191.994-.133 1.298-.074.705-.176.882-.456 1.218-.529 1.062-.357M326.577 534.97l-.304.39-.328.257-1.026.845-5.273 4.72-5.16 4.373-3.815 3.08-2.99 2.557-.664.743-.249.5-.072.529.048 2.02-.032.846-.192.706-.265.757-.377.514-.432.5-.353.28-.448.25-.513.205-6.7 2.102-1.518.51" clip-path="url(#paa52473b84)" style="fill:none;stroke:#000"/><path d="m347.272 496.978-.396 1.027-.097 1.058.209 5.66-.08 1.382-.209 1.015-.328.985-.368.603-.49.625-1.21 1.506-.376.5-.313.728-.104.492-.136.86-.112 1.323-.177.596-.288.558-.665 1.03-1.323 1.638-1.634 1.69-.874.567-.673.301-1.61.544-1.571.61-.28.103-.209.125-.208.25-.257.573-.44.986-.393.602-.93.992-2.933 3.087-.577.743-.24.463-.104.477-.089 1.008-.16.544-.745 2.182-.305.56M346.953 468.124l-3.483 7.19-1.723 3.491-.593 1.382-.28.838-.257.926-.112 1.03.056.94.192.852.561 1.397 1.298 2.477.457.816 4.203 7.515M383.511 566.686l-7.482-7.644-.914-.713-3.357-1.911-1.437-.756-.552-.392M406.304 545.121l1.443.103 1.009.073.377.177.409.404.929 1.286 2.388 3.293.128.243v.227l-.072.258-.232.367-.898.64-4.07 2.264M406.304 545.121l-.706.647M383.511 566.686l5.5-2.617 2.628-1.47 1.042-.676.48-.544.225-.661v-.956l-.16-1.088-.497-.823-.497-.544M583.643 459.502l.697-1.162.465-.69.344-.508.337-.397.384-.382.321-.242.433-.287.681-.36 1.154-.61.97-.574.777-.485 1.819-1.161 1.13-.75.345-.28.16-.228.168-.235.12-.286.112-.353.08-.633.112-1.249-.007-.28-.064-.3-.217-.574-.16-.551-.032-.471.024-.36.136-.478.304-.691.417-.78.48-.654.618-.617.754-.617.665-.559.36-.397.417-.448.449-.684.665-1.162.288-.705.32-1 .225-.757.53-1.618.48-1.154.12-.198.144-.214.217-.183M583.643 459.502l.272-.184.16-.051.153-.022.296.05.449.192 1.85 1.118 1.075.72 1.202.824 1.074.697.665.376.537.25.537.176.64.176.794.162.842.14 2.34.374 1.25.192 1.346.25.986.228.993.234 1.186.31.962.206.601.11.456.022h.634l.464-.052.641-.147.994-.316 1.595-.618 2.156-.83 1.025-.53.77-.484 1.626-1.052 2.821-1.573 2.869-1.404 1.146-.536.921-.368.73-.191 1.426-.316.833-.162.922-.147 1.683-.176 2.692-.28.497-.059.56-.036.93.022.658.08.841.17 1.274.235 2.252.264M528.959 460.443l-.658.97-.737.897-.673.632-.609.485-1.987 1.53-1.346.896M528.959 460.443l9.164 4.412 13.912 6.763 15.04 7.284M562.375 481.834l1.362.602.401.103h.417l.272-.088.273-.206.368-.53.625-1.013.983-1.8M528.959 460.443l-6.191-2.991M538.046 458.414l-2.035.118-1.844.014-3.253.015-1.25-.015-.978-.088-1.459-.206-2.788-.455-1.671-.345M346.953 468.124l9.392 4.989M329.676 385.286l-.248-.06M375.258 457.45l.516.306M411.826 432.34l-7.494 6.916M279.362 415.557l.553.573.353.655.36 1.095.329 1.934.28 2.146.393 1.301.409.691.625.552 1.65.896 1.05.5 1.346.36 1.868.39 1.858.353.97.353.865.588.81.816.914 1.169.609.881.272.707.12.617-.144 1.323-.352 3.558-.097 1.03.08.734.29.618.68.978.81.926.688.301.858.096.77-.073.817-.339.873-.625.625-.426.602-.33.953-.163M310.267 388.814l4.028.938M310.267 388.814l-6.73-1.567M310.178 373.472l-.805 2.907M303.635 383.157l.992-4.591M303.537 387.247l.23-.516.042-.456-.174-3.118M305.353 378.043l-.452.332-.274.191M304.627 378.566l-.463-.617M304.821 377.496l-.657.453M304.821 377.496l-1-.899-.937-.672-.695-.314-.829-.131M304.821 377.496l.532.547M403.362 440.172l.97-.916M406.195 441.39l-1.863-2.134M406.195 441.39l4.187-3.825M406.195 441.39l1.798 2.434M407.993 443.824l4.623-4.351M407.993 443.824l1.759 2.38M413.455 451.218l-3.703-5.013M413.455 451.218l3.064-.926M413.455 451.218l-1.253.428M428.439 446.007l.03 1.094M429.5 442.44l-.647 2.53-.414 1.037M422.254 438.234l5.492 7.084.693.69M431.52 434.606l-2.02 7.834M420.626 436.123l1.628 2.11M420.626 436.123l-2.032 1.84M409.752 446.205l2.095-1.979M429.5 442.44l-.748-.75-2.912-3.68-2.576-.093-.533.107-.477.21M410.382 437.565l2.234 1.908M414.612 441.621l-.554.565M414.612 441.621l1.7-1.517M414.612 441.621l-1.996-2.148M414.058 442.186l-2.211 2.04M419.49 449.393l-1.43-2.05-4.002-5.157M419.49 449.393l3.22-.987M419.49 449.393l-2.971.899M411.847 444.226l4.672 6.066M416.312 440.104l2.282-2.141M416.312 440.104l6.397 8.302M422.71 448.406l2.928-.664M418.594 437.963l7.044 9.78M425.638 447.742l2.83-.641M360.324 462.363l-.5 2.984M360.324 462.363l1.818-2.373M359.242 468.42l-1.52 2.373M359.242 468.42l-9.607-5.49M359.242 468.42l.581-3.073M359.242 468.42l1.288.7M356.345 473.113l1.378-2.32M301.36 375.48l-.049.56M301.36 375.48l-1.167.077-.397-.067-.448-.228-4.728-4.136-.382.34 4.977 4.284.414.222.52.126 1.162-.057M301.36 375.48l1.175-3.98" clip-path="url(#paa52473b84)" style="fill:none;stroke:#000"/><path d="m301.311 376.04.764.136.763.388.653.486.673.899M428.468 447.101l1.633-.356M375.774 457.756l2.612 1.496.143.232.008.234-.078.275-2.735 3.497-.297.102-.335-.117-2.475-1.714 3.157-4.005" clip-path="url(#paa52473b84)" style="fill:none;stroke:#000"/><path d="m375.774 457.756-3.157 4.005 2.475 1.714.335.117.297-.102 2.735-3.497.078-.275-.008-.234-.143-.232-2.612-1.496M154.716 281.655l-.44.658-.68.499-.633.403-.432.137-.706.038-3.552-.32-1.11-.079-.74.017-.663.213-.53.275-.64.445-1.558 1.613-.742.633M154.716 281.655l.622-1.12M269.007 381.273l-.296-.054-2.202-.327-3.028-.282-8.062-.37-6.215-.303-2.657-.409-5.063-1.077-10.349-2.28-1.904-.361" clip-path="url(#paa52473b84)" style="fill:none;stroke:#000"/><path d="m240.808 399.289-.994-.79-.976-.894-2.071-1.766-1.703-1.925-1.04-1.435-.525-.988-.626-1.621-1.63-4.4-.414-1.656-.58-1.933-.57-3.133-.286-.964-.202-1.257.04-.717M239.261 404.985l.286-.447.45-1.335.341-1.376M240.808 399.289l.304.24.662.626.516.371.082.136v.312l-.073.76-.101.228-.24.152-.386.017-.599-.11-.635-.194M240.808 399.289l-.11.292-.24.684-.184 1.157.064.405M279.756 370.654l-.175.185-.165.575-.175.371-.359.474-2.283 2.617-.681.87-.534.507-.488.456-.57.338-.755.27-1.335.397-.81.33-.663.43-.525.532-.939 1.647-.292.62M459.35 106.039l.502.35 2.604 5.21 1.715 2.705 3.5 3.435.273.614.574 2.038.683 1.492 1.23 1.62 1.287 1.042.745.839.745 1.617.162.964-.183 2.135-.307 1.652.016 1.14.24 1.772.061.88-.261.907-1.15 2.589-.203.63.103.414.29.406 4.025 1.704.606.434 2.262 2.45.734.889.164.655.027 1.504.376 1.395M136.357 273.024l-2.653-1.244-3.521 8.16 1.353.562 1.724-.66 1.321-2.804-2.378-.882.55-1.213 2.4.902 1.204-2.821" clip-path="url(#paa52473b84)" style="fill:none;stroke:#000"/><path d="m136.357 273.024-1.204 2.821-2.4-.902-.55 1.213 2.378.882-1.321 2.805-1.724.66-1.353-.563 3.521-8.16 2.653 1.244M150.377 291.77l.04-.648.136-1.044M150.377 291.77l.29-.038.355.107 1.286.426M281.416 341.133l5.533 2.666M364.516 440.535l2.793-1.39 1.07-.792.048-.29-.134-.378-.862-1.07-.195-.1-.352-.011-2.951 1.593-.243.167-.11.245-.011.301.085.245.862 1.48" clip-path="url(#paa52473b84)" style="fill:none;stroke:#000"/><path d="m364.516 440.535-.862-1.48-.085-.245.012-.3.109-.246.243-.167 2.951-1.593.352.011.195.1.862 1.07.134.379-.049.29-1.069.79-2.793 1.391M334.06 370.242l1.012.206.44.044h.77l.369-.118.463-.313" clip-path="url(#paa52473b84)" style="fill:none;stroke:#000"/></g><g id="PatchCollection_1"><path d="m509.79 399.684.147.522 5.54 3.031.678.127.696.44 1.03.405 1.529.18 1.108.252 1.697.63.696-.261.421-.396.099-.675-.06-.639-.823-1.619-.186-.522-1.177-2.15-.235-1.412-.353-.89-1.01-.54-1.168-.99-1.01-.585-1.53-.36v.909l-.539.567-.323.234-1.089-.36-.235-.387-.334-.081-1.833.945-1.05 1.556zM324.49 557.872l.938.28 2.957 1.486 1.394.796-.128.18-.578-.14-.088.654.233 1.228-.272.69-.762 1.44-.729.647-.345 1.552-.873.11-1.188 4.072.399 2.234-.069 4.587-.232 1.381-.48-.184-.24.963.8 1.97-.491.6 1.623 2.35 3.537 3.878 1.494.463.456.897.425.178 1.5.766-.4.21-.48.625.035 1.721.616 1.002.717.122.153 1.01-.56.4-.607-1.11-1.502-.427-.762-.5-1.238-.372-2.889-.388-1.354.313-1.972-.552-1.699-.41-1.827-1.086-2.916-1.201-.91-.987.292-.384-1.37-1.591-.689.064-.69-.611-3.974-1.107-2.171-.797-.537-1.018-.854-1.426.187-2.439-.395-.44-.15-1.32.217-.288.655-.43.349-.824-.405-.322-.294-.967-1.403-.155-1.204-.872.124-.5-.412-.436.31-.426-.238-.474-.818-.876-.51-.711.334-.238 1.856.423 1.34-.093 2.489-1.011.489-.758 1.618-.954 4.84-.747 2.789-1.216.747-1.052.475-1.493.726-1.898 1.132-.953 2.574-2.525zM123.883 219.527l.762-.62.36-.078 1.035.233 1.396.602.043.252-.212.252-1.522.912-.212.097-.233.02-.655-.622-.36-.524-.19-.096zM129.424 225.388l-.55-.252-.423-.156-.57-.233-.508-.27-.677-.525-.021-.35.338-.31.592.621.698.447.613.27.614.176.169.174-.063.311zM135.007 221.235l-.761.563.072.258.492.484.176.096.686-.516-.053-.241zM136.375 218.975l-.756.37-.668.582-.527.129-.668.484.175.5.211.226 1.318-.646.774-.532.528-.097.122-.258-.21-.436zM133.738 222.056l-.668.403-.176.306.106.21.65.5.299.065.563-.339.087-.226-.44-.37zM136.78 220.346l-1.354.742-.018.226.563.565 1.124-.84-.07-.386zM133.281 220.669l-1.899 1.194.123.257.58.532.335.097.439-.403.21-.306.476-.371.07-.5-.088-.242zM129.87 220.056l-.492.21-.28.532.192.29.528.21.668.29.21-.129-.07-.548-.545-.436zM127.629 220.338l-.774 1.274.176.226.07.58.264.387.457.226.492.258.44.259.123.242.369.193.193.242 1.653.274.404.34h.334l.756.548 1.108-1.162-.141-.177-1.67-1.21-3.024-1.597-.58-.597zM126.17 222.016h-.247l-.334.225.018.403.334.468.123.274.123.065.281.016.194-.242-.14-.403-.317-.452v-.16zM131.223 225.197v-.177l-.317-.178-.597-.032-.176.21-.018.226.194.226.421.193.159-.064.21-.194zM131.539 225.343l-.299.37v.243l.65.42.194-.098.352-.37-.123-.146-.475-.29zM87.987 238.124l.144-.19.016-.31-.257-.676-.384-.485-.56-.53-.594-.603-.61-.426-.432-.177-.48.015-.626.353-.096.221v.265l.24.294.337.44.4.604.37.78.272.543.32.265.946.073.657-.191zM134.576 298.559l-1.899 1.279.016.161.257.324.585.5.776.617.538.287.544-.588.25-.22.04-.243-.273-.463.031-.199-.151-.22.031-.523-.344-.448-.145-.162zM171.045 276.63l.019.557 1.38 2.533.295.71-.534.422-3.94.524-.865-.507-.607-.101-.277-.338.553-.136-.074-1.064.939.034 1.307.085.902-.642-.184-.355.7-.354-.387-.676.497.118zM242.575 368.863l-.412-.766-.804-.543-.73-.272-.401.262-.148.465-.223.534.074.204-.126.543.063.553.402.524.656.3 1.639-.097.073-.65.138-.31z" clip-path="url(#paa52473b84)" style="fill:#00f;fill-opacity:.8"/></g><g id="PatchCollection_2"><path d="m358.399 391.664 3.798.794-.88 3.352-3.763-.812zM277.669 386.296l.706-1.059.615-.135h.833l.795-.453.898-.294.641.53-.192.882.064.882 1.41.353 1.026-.823 1.282-.706 1.474-1 .513-1.118.257-1.411.385-1.647.961-.882 1.026-.882-.513-.765-.77-.706-.769-1.823-1.025-1.058-.898-1.588-.128-1.647-.513-1.35.192-2.117.616-.844h1.154l1.025-.353.539-1.097.898-.941h.961l.385.882-.705 1.353.064.764 1.346 1 .705 1.706-.192.879.448.823 4.334 3.1.667.665.761.593 1.226.641.064.765-.897.236-.641.764-.193 1.294.064 1.53-.64.529-1.026-.412-1.667-.118-1.475.294-.77.941-.576 1.647-1.026.764-1.154 1.295-.577 1.47-.897 2.117-.513.941-1.475 1.882-2.115.823h-1.41l-1.154-.647-1.026-1.176-.256-1.117-1.219-2.294-.961-.823zM21.516 402.507 8.437 365.455l-.642-7.016.318-6.192 8.779-1.21 1.216-22.308-4.361-1.134-.137-11.712 1.986-8.768-1.554-2.822-.327-6.201.462-3.289 1.657-1.357 1.526 3.23 1.416 9.991-1.041 19.015 2.035.197 1.393-8.919 6.545-13.762.294-2.497 3.601-6.735 4.266-5.137 1.656 4.91 1.992 11.104 4.91 5.577-10.058 17.01 2.468 32.908-2.051 10.763 53.113-7.47-3.51 6.5-52.68 11.38-6.86 14.174z" clip-path="url(#paa52473b84)" style="fill:#006400;fill-opacity:.8"/></g><g id="PatchCollection_3"><path d="m327.3 392.774 4.394.969-1.016 3.875-4.4-.978zM331.694 393.743l4.345.958-1.015 3.875-4.346-.958zM312.924 373.776l.001.14.05.132.095.11.129.077.148.034.152-.013.14-.057.112-.096.072-.124.024-.138-.026-.138-.074-.123-.113-.095-.14-.055-.152-.01-.148.034-.127.078-.094.111zM344.332 413.584l.101.207.024.227-.056.221-.194.408-.212.177-.21.055-.222-.018-.195-.089-.201-.17-.17-.34-.065-.227.02-.234.102-.215.175-.172.226-.11.246-.035.244.04.218.108z" clip-path="url(#paa52473b84)" style="fill:green;fill-opacity:.8"/></g><g id="PatchCollection_4"><path d="m347.43 402.924 4.844 1.216-1.883 6.317-4.845-1.214zM349.693 417.556l2.215-2.238 3.463 2.883-2.215 2.238zM351.255 409.998l1.122.309.449-1.603-1.138-.294zM414.416 414.176l-2.1 1.938 1.179 1.075 2.1-1.939z" clip-path="url(#paa52473b84)" style="fill:#90ee90;fill-opacity:.8"/></g><g id="PatchCollection_5"><path d="m328.71 390.993.382-1.615.98.196-.382 1.615zM428.315 417.071l-2.745-1.381 1.725-1.582 2.55 1.515zM311.29 376.54l.767-2.84 1.114.952 1.107-.178-.327 1.214.117.026-.37 1.373zM324.25 395.501l.345-1.102 1.402.37-.344 1.1zM322.597 395.168l.472-1.54 1.519.392-.474 1.54zM324.634 394.055l.172-.74.198-.118.792.155.167.252-.163.686-.245.132-.79-.154zM328.845 395.607l.328-.103.105-.302-.265-.242-.345.073-.095.331zM333.44 397.815l.206-.83 1.073.224-.132.534.191.04-.073.296zM333.995 395.774l.218-.925.521.103-.047.203.713.142-.12.511-.737-.146-.05.21z" clip-path="url(#paa52473b84)" style="fill:#a9a9a9;fill-opacity:.8"/><path d="m334.959 396.919.2-.77-1.972-.434.103-.395-.78-.171-.405 1.55.77.17.1-.387zM142.978 169.356l.336.637.908-.403-.336-.638z" clip-path="url(#paa52473b84)" style="fill:#a9a9a9;fill-opacity:.8"/></g></g></g><defs><clipPath id="paa52473b84"><path d="M90 95.736h558v535.728H90z"/></clipPath></defs></svg>