<svg xmlns="http://www.w3.org/2000/svg" width="960" height="960" viewBox="0 0 720 720"><defs><style>*{stroke-linejoin:round;stroke-linecap:butt}</style></defs><g id="figure_1"><path id="patch_1" d="M0 720h720V0H0z" style="fill:#fff"/><g id="axes_1"><path id="patch_2" d="M114.82 640.8h508.36V86.4H114.82z" style="fill:#fff"/><g id="LineCollection_1"><path d="m269.227 425.18 3.382 1.046M269.227 425.18l-.154.724M269.227 425.18l.762-3.483M279.294 395.05l-.815 4.09M279.294 395.05l1.43-6.78M279.294 395.05l3.345.872M288.711 431.685l1.227-3.895M288.711 431.685l-1.005 3.401M288.711 431.685l-5.226-1.114M300.656 345.863l.733 5.643M300.656 345.863l-4.145.202M300.656 345.863l.457-.055M300.656 345.863l-.926-5.571M302.69 362.404l-1.113 3.555M302.69 362.404l.492-.013M302.69 362.404l-6.624.317M302.69 362.404l-.76-6.876M283.485 430.57l-3.97-1.051M283.485 430.57l-1.006 3.158M283.485 430.57l.372-.384 1.062-3.96" clip-path="url(#p0e637ded51)" style="fill:none;stroke:#000"/><path d="m284.537 426.108-1.15 4.043.098.42M279.515 429.519l-3.502-.837M279.515 429.519l1.295-4.393M294.182 378.004l-1.8 6.428M294.182 378.004l3.705.712M294.182 378.004l-3.529-.759M295.889 369.61l-.14 1.02-.204 1.063-.43 2.08-.933 4.231M296.67 340.376l-.096 3.926M296.67 340.376l3.06-.084M296.111 332.054l.449 5.996.126 1.516-.016.81M291 340.192l2.787.125 2.883.06M295.861 329.117l.25 2.937M295.861 329.117l2.06.252M295.861 329.117l-2.482-.406M291 340.192l-.733 3.495M291 340.192l1.76-8.306M299.73 340.292l.541-.066M298.327 332.118l.044.388 1.359 7.786M293.379 328.71l-.62 3.176M293.379 328.71l2.291-11.108M287.833 354.943l1.863-8.543M287.833 354.943l4.012.254M286.148 363.188l.766-3.96.919-4.285M283.31 374.81l-.114.913M283.31 374.81l1.942-7.498M283.31 374.81l-.372-.028-.25-.056-.559-.04-.98-.15M278.479 399.14l-.119.49M278.479 399.14l-3.35-.953M278.479 399.14l3.323.853M275.32 413.622l-.738 3.395M275.32 413.622l.302-1.42M275.32 413.622l4.62 1.212M276.013 428.682l1.156-4.64M272.61 426.226l-.287 1.359.055.222.194.181.215.1 3.226.594M292.58 368.954l3.309.655M292.58 368.954l-7.328-1.642M290.653 377.245l.793-3.214 1.134-5.077M286.148 363.188l-.555 2.53-.341 1.594M295.889 369.61l4.424.918M296 366.162l-.04 1.807-.071 1.64M300.313 370.528l.519.145M300.313 370.528l-.917 3.103-1.51 5.085M300.313 370.528l1.264-4.57M305.96 371.777l1.759-5.986M305.96 371.777l-1.243 4.073M305.96 371.777l-5.128-1.104M296 366.162l.066-3.44M296 366.162l5.577-.203M301.577 365.959l.58-.02M307.719 365.791l-5.562.149M308.733 362.237l-.067.289-.947 3.265M296.066 362.721l.194-7.376M296.066 362.721l-5.499.267M308.733 362.237l-1.81.042M309.045 355.723l-.1 4.717-.026.742-.042.52-.05.263-.094.272M306.922 362.279l-3.74.112M306.922 362.279l-.906-6.667M306.914 351.513l-1.259.07M306.914 351.513l2.228-1.456M306.914 351.513l-1.264.848M292.58 351.234l3.816.145M292.58 351.234l-.735 3.963M292.58 351.234l.386-1.809M296.396 351.38l.02-1.856M296.396 351.38l-.136 3.965M296.396 351.38l4.993.126M301.389 351.506l.542 4.022M301.389 351.506l.479-.008M289.696 346.4l.571-2.713M289.696 346.4l3.871-.166M296.511 346.065l.063-1.763M296.511 346.065l-.094 3.46M293.567 346.234l1.144-.067 1.8-.102M290.267 343.687l6.307.615M287.25 342.382l.712.457.49.248.432.164 1.383.436M297.92 329.369l.558-.047M297.92 329.369l.06.367.296 2.156.05.226M295.67 317.602l.348.954.748 4.245.116.654 1.005 5.671.034.243M292.76 331.886l3.351.168M296.111 332.054l2.216.064M293.567 346.234l-.601 3.191M290.567 362.988l1.278-7.79M290.567 362.988l-4.42.2M291.845 355.197l4.415.148M296.26 355.345l5.67.183M301.93 355.528l.429.019M306.016 355.612l-.366-3.251M306.016 355.612l3.029.111M306.016 355.612l-3.657-.065M309.045 355.723l.097-5.666M305.65 352.36l.005-.777M305.65 352.36l-3.376 2.312M309.142 350.057l.158-4.712M323.08 341.718l-.795.33-1.083.495-1.301.775-10.76 6.739M341.576 342.163l-.701.132-5.022.965-2.249.404-1.344.123-1.099.025-1.175-.05-1.708-.23-1.766-.388-1.632-.61-1.8-.816" clip-path="url(#p0e637ded51)" style="fill:none;stroke:#000"/><path d="m295.56 312.704.788-.14.863-.062 4.066 1.937.6.338.736.553.668.65.769.949.625 1.08.296.618.305.816.803 2.168.752 1.706.863 1.831 1.14 1.92.804 1.295.98 1.402 1.353 1.723 1.997 2.349 5.087 5.16 1.243 1.04 1.775 1.096 1.007.585M269.99 421.697l3.398 1.166M269.99 421.697l2.248-10.287M273.388 422.863l-.779 3.363M273.388 422.863l.52-2.418M273.388 422.863l3.781 1.178M277.17 424.041l.78-2.477M277.17 424.041l3.64 1.085M280.81 425.126l1.558-5.945M280.81 425.126l3.727.982M284.537 426.108l.382.118M284.537 426.108l1.608-5.875M289.938 427.79l1.653-5.966M289.938 427.79l3.046.975M289.938 427.79l-5.02-1.564M277.95 421.564l1.056-3.238M277.95 421.564l-4.042-1.12M273.908 420.445l.674-3.428M274.582 417.017l4.424 1.309M279.006 418.326l.934-3.492M279.006 418.326l3.362.855M282.368 419.181l1.893-6.54M282.368 419.181l3.777 1.052M286.145 420.233l.406.14M286.145 420.233l.931-3.13M291.591 421.824l.958-3.312M291.591 421.824l-5.04-1.45M292.549 418.512l.925-3.243M292.549 418.512l-5.077-1.308M287.076 417.103l.396.101M287.076 417.103l1.012-3.392M293.474 415.269l.922-3.27M293.474 415.269l-5.048-1.463M288.088 413.711l-3.827-1.07M288.088 413.711l.338.095M288.088 413.711l.896-3.175M284.261 412.64l2.13-7.36M284.261 412.64l-3.39-.993M280.872 411.647l.984-3.762M280.872 411.647l-.932 3.187M280.872 411.647l-4.793-1.255M276.08 410.392l-.458 1.81M276.08 410.392l.803-3.71M275.622 412.201l-3.384-.791M272.238 411.41l2.79-12.753M152.101 374.623l1.577 1.173.888.606.331.214.64.332.63.256 2.127.878 1.91.828 1.33.682 1.222.588.597.299 1.273.727.547.326.72.369 1.34.6 2.579 1.046 6.704 2.515 10.043 3.598 4.387 1.504 2.169.635 2.239.59 12.648 3.149 18.68 4.453 24.284 6.188 16.53 4.11 4.742 1.12M301.644 386.987l1.86-6.84M301.644 386.987l-5.171-1.355M299.735 393.618l.974-3.166.935-3.465M296.045 385.511l-3.663-1.08M296.045 385.511l.428.12M296.045 385.511l-1.02 3.618-.837 2.868M296.045 385.511l1.842-6.795M292.382 384.432l-1.878 6.53M292.382 384.432l-3.483-.955M288.9 383.477l1.753-6.232M288.9 383.477l-1.808 6.57M288.9 383.477l-3.435-.914M285.465 382.563l1.31-6.148M285.465 382.563l-1.368 6.575M285.465 382.563l-3.385-.776M282.08 381.787l1.116-6.064M282.08 381.787l-3.373.043M280.723 388.27l.525-2.471.6-2.82.232-1.192M281.856 407.885l.992-3.504M281.856 407.885l-4.973-1.202M276.883 406.683l.79-3.783M277.673 402.9l.687-3.27M277.673 402.9l5.175 1.48M282.848 404.38l1-3.298M282.848 404.38l3.543.9M286.391 405.28l.958-3.199M286.391 405.28l3.787 1.023M290.178 406.303l-1.194 4.233M290.178 406.303l.382.105M290.178 406.303l.92-3.256M295.621 407.928l.88-3.4M295.621 407.928l-1.225 4.071M295.621 407.928l-5.06-1.52M294.396 412l-5.065-1.366M288.984 410.536l.347.098M296.644 404.049l1.207-3.886M296.644 404.049l-.144.478M296.644 404.049l-4.97-1.336M291.225 402.58l-.127.467M291.225 402.58l-3.742-1.009M291.225 402.58l1.126-3.975M291.225 402.58l.449.133M287.483 401.571l1.221-3.97M287.483 401.571l-.134.51M287.483 401.571l-3.486-.987M283.997 400.584l1.207-3.958M283.997 400.584l-.149.498M283.997 400.584l-2.195-.59M275.13 398.187l-.103.47M275.13 398.187l2.4-10.978M275.027 398.657l3.333.973M278.36 399.63l3.3.873M283.848 401.082l3.501.999M283.848 401.082l-2.188-.579M287.35 402.081l3.748.966M291.098 403.047l.445.121M296.5 404.527l-4.957-1.359M285.204 396.626l1.888-6.58M285.204 396.626l3.5.975M285.204 396.626l-2.565-.704M288.704 397.601l1.8-6.638M288.704 397.601l3.647 1.004M292.35 398.605l.374.104M292.35 398.605l1.838-6.608M297.85 400.163l1.885-6.545M297.85 400.163l-5.126-1.454M299.735 393.618l-5.109-1.485M294.188 391.997l-3.684-1.034M294.188 391.997l.438.136M290.504 390.963l-3.412-.916M287.092 390.047l-2.995-.91M280.723 388.27l-3.193-1.061M280.723 388.27l3.374.868M277.53 387.209l1.177-5.379M281.802 399.993l.837-4.07M281.802 399.993l-.142.51M282.64 395.922l1.457-6.784M286.775 376.415l3.878.83M286.775 376.415l-3.579-.692M281.233 375.27l.862.116 1.101.337M297.887 378.716l.542.137M279.982 376.178l-.241 1.144-1.034 4.508M280.349 374.666l-.367 1.512M280.349 374.666l.474-2.39M280.349 374.666l.884.604M280.349 374.666l.8-.13M305.78 345.542l-.125 6.041M305.78 345.542l3.52-.197M305.78 345.542l-4.667.266M300.271 340.226l8.315-1.409.443.098.304.23.102.397-.135 5.803M303.504 380.147l1.213-4.297M303.504 380.147l-5.075-1.294M350.605 440.79l-3.415-3.338-1.953-1.978-.685-.776-.423-.436-.667-.536-6.603-5.54-6.044-4.632-.812-.809-.744-.914-.431-.718-.288-.725-.092-.742.016-.445.034-.437.11-.61.127-.89.008-1.41-.059-2.308-.05-1.162-.127-.817-.262-1.055-.533-2.069-.499-1.187-.22-.47-.312-.445-.161-.214-.524-.569-.732-.82-.917-1.019-.549-.75-.693-1.08-.406-.527-1.26-1.64-3.965-5.59-1.834-2.481-1.801-2.457-4.776-6.933-.313-.42-.406-.338-.481-.23-.558-.182-3.8-.944M285.672 441.487l1.088-3.148M285.672 441.487l-.923 3.344M285.672 441.487l-5.246-.53M282.48 433.728l-.966 3.367M282.48 433.728l5.226 1.358M287.706 435.086l-.946 3.253M281.514 437.095l-1.088 3.863M281.514 437.095l5.246 1.244M276.56 454.979l-.086.303-.482 1.92-.558 1.946-.939 3.083-.684 2.548-.702 2.44-.685 2.266-.55 2.243-.304 1.286-.363 1.096-.6 1.945-.567 2.201-1.538 5.969-2.131 8.226-.625 2.168-.228.56-.288.52-.28.403-.396.355-.998.734-1.319 1.17-.575.545-.532.617-.532.643-.381.512-.516.79-.583 1.106-.66 1.055-.422.651-.313.56-.347.8-.406.948-.794 2.011-1.285 2.918-1.023 2.02-.955 2.16-.913 1.92-.736 1.748-.574 1.253-.372.725-.406.676-.279.536-.347.593-.118.28-.28 1.064-.228.519-.405.733-.592.932-.304.363-.472.274" clip-path="url(#p0e637ded51)" style="fill:none;stroke:#000"/><path d="m241.937 550.014 1.516-6.844 3.434-15.857M261.814 459.143l-1.902 8.694-1.31 6.1-1.107 5.102-.829 3.685-1.445 6.545-2.266 10.329-2.325 10.776-3.743 16.94M287.25 342.382l4.507-20.302M213.56 284.48l.415.239 1.458.772.892.473 4.001 2.205.8.44 2.004 1.328.955.75.875.725 1.137.94 2.95 2.411 11.574 9.461 4.322 3.508 5.94 4.822 4.921 3.995 5.343 4.373 6.536 5.35 4.09 3.347 3.405 2.749 4.722 3.813 6.278 5.067.398.33.236.256.437.548M280.823 372.277l2.938-13.32 3.488-16.575M305.655 351.583l-3.787-.085M296.417 349.524l-1.795-.045-1.656-.054M298.429 378.853l1.236-4.156M298.429 378.853l-1.956 6.779M300.832 370.673l1.325-4.733M300.832 370.673l-1.167 4.024M302.157 365.94l1.025-3.549M303.182 362.391l-.028-.335-.017-.38-.042-.502-.736-5.627M302.359 355.547l-.085-.875M302.274 354.672l-.406-3.174M301.868 351.498l-.755-5.69M301.113 345.808l-.842-5.582M300.271 340.226l-1.284-7.816-.077-.36M295.67 317.602l-1.04 1.529M295.56 312.704l.577 1.671-.467 3.227M298.478 329.322l-.046-.267-.948-5.704-.103-.62-.328-1.975-.392-2.104-.11-.51-.88-.54M299.665 374.697l5.052 1.153M294.626 392.133l.805-2.888 1.042-3.613M294.626 392.133l-1.902 6.576M292.724 398.709l-1.05 4.004M291.674 402.713l-.131.455M291.543 403.168l-.983 3.24M290.56 406.408l-1.23 4.226M289.33 410.634l-.904 3.172M288.426 413.806l-.954 3.398M287.472 417.204l-.921 3.17M286.55 420.373l-1.631 5.853M217.41 460.955l1.197-.05 1.387-.281 9.806-2.737.964-.23.913-.165 4.311-.396.633-.034 12.285.017.887.066.778.108 1.818.338 2.688.535 6.737 1.017M266.38 438.588l-2.126 9.357-2.44 11.198M266.844 436.54l-.465 2.048M266.844 436.54l.522-2.493M266.844 436.54l.728-1.07.515-.425.63-.305.668-.157.296-.078.16-.062.119-.112M268.655 427.87l-.38 1.82M268.655 427.87l.418-1.966M270.184 430.602l-.512-.61-.317-.553-.397-.907-.303-.662M279.982 376.178l.434-.502.498-.293.319-.113M254.006 362.5l.302.966.101.354.034.354.135.759.338.858.643 1.326.16.297 1.268 1.46.372.247.677.297.778.395.389.264.473.321.363.174 4.836 1.492 3.086.956 3 .866.601.09.473.124.533.173.87.314 1.2.477 1.125.454.736.354.566.14.676.058 1.311-.05.93.158M341.576 342.163l-.744-.972-.448-.726-.355-.643-2.942-5.383-.101-.495.067-.412.212-.354 5.85-5.298 4.075-3.944.54-.494.457-.322 1.666-1.148M341.576 342.163l32.548-6.62 10.414-2.011M480.232 321.007l-9.688.574-35.469 2.957-4.396.461-4.489.503-2.992.404-3.018.503-3.483.627-11.912 2.374-20.247 4.122M405.423 307.968l-5.068 6.281-3.237 4.196-3.34 4.46-3.085 3.974-3.585 4.402-.49.577-.482.462-.701.511-.897.7M503.804 177.36l3.619-5.212 6.255-8.508 4.126-5.706 6.797-9.3 5.377-7.42 3.212-4.684 3.212-4.517.947-1.353.66-1.08.642-1.047.44-.948.338-.899.245-.726.228-1.006.355-1.352 1.184-6.266 1.15-5.475" clip-path="url(#p0e637ded51)" style="fill:none;stroke:#000"/><path d="m575.865 112.777-3.395 1.203-1.665.236-1.074.037-1.221-.14-1.105-.203-.696-.197-.541-.19-1.038-.497-.726-.464-.372-.123-.248-.048-.402-.014-4.754.094-2.27.206-2.101.24-1.412.194-.725.058-.61-.032-.323-.033-.35-.053-.405-.08-1.325-.26-.768-.133-1.547-.193-4.201-.524M503.804 177.36l-6.729-4.387-7.152-4.947-3.812-2.498-4.27-2.828-9.713-6.506-6.776-4.637-1.424-.944-1.486-1.012-.551-.33-1.378-.744-3.445-1.847-4.257-2.218-2.6-1.48-4.074-2.131-3.01-1.526-1.889-.931-.408-.186-.452-.179-.81-.274-3.517-1.056-3.584-1.022-1.758-.499-2.05-.61-.74-.252-.685-.305-.482-.288-.26-.191-.272-.264-.706-.88-2.6-3.216-1.06-1.216-.753-.978-.858-1.22-3.902-5.47-.989-1.22-.904-.89-.913-.702-1.167-.8-4.497-2.407-5.833-3.108-7.245-3.86-6.298-3.363-5.842-3.117-7.743-3.76" clip-path="url(#p0e637ded51)" style="fill:none;stroke:#000"/><path d="m405.423 307.968 6.16-7.651 5.672-7.016 4.64-5.392 3.653-4.394 3.601-4.526 6.763-9.241 2.63-3.496.532-.577.44-.553.32-.528.203-.437.33-.576 2.587-3.48 7.008-9.448 9.012-12.35 4.05-5.293 4.057-5.441 6.882-9.2 7.185-9.944 4.904-6.826 5.477-7.487 5.377-7.52 2.232-3.066 1.995-2.473 2.671-3.694M405.423 307.968l-.034-.627-.05-.495-.097-.527-.211-.684-.348-.924-.574-1.188-1.243-2.67-1.319-2.927-.615-1.471M350.605 440.79l-.541-6.322-.212-1.525-.431-4.757-1.2-13.084-1.31-14.21-.347-2.737-.076-.667.008-.322.076-.536.043-.693-.668-7.287-.812-8.54-.638-8.537-.655-6.64-.558-6.579-.55-5.07-.447-4.196-.339-4.105-.034-1.427-.008-.362-.068-.28-.262-.75M475.492 495.336l-1.47 1.17-3.45 2.473-.185.132-.237.137-.296.09-.397.029-1.7-.066-.245-.041-.3-.083-.296-.128-.46-.205-.326-.146-1.01-.683-3.753-1.6-1.7-.758-1.107-.395-.558-.132-.617-.14-.634-.182-.541-.23-.998-.594-.854-.412-.837-.371-3.018-1.31-.853-.306-.55-.14-1.868-.675-2.469-1.031-.583-.33-1.64-.75-4.742-1.965-17.642-7.478-1.583-.935-.786-.437-2.671-1.138-3.821-1.516-2.503-1.022-3.559-1.27-3.542-1.187-.921-.371-1.285-.643-1.234-.767-1.581-.725-1.64-.585-1.413-.52-6.407-2.456-1.014-.528-1.176-.519-.972-.354-1.141-.42-3.838-1.559-2.781-.94-.466-.075-.43-.081-.356-.05-1.175-.123-.701-.181-.617-.29-.314-.254-.202-.19-.626-.833-.253-.33-.212-.28-.55-.527-.836-.685-3.001-2.415-2.613-2.3-2.447-1.987-2.033-1.68-6.62-6.142-2.231-2.11" clip-path="url(#p0e637ded51)" style="fill:none;stroke:#000"/><path d="m354.434 480.943-.32-2.349-.28-3.536-.947-10.049-.946-10.073-.685-7.497-.495-5.074-.156-1.575M578.95 316.217l-10.917.55-30.059 1.44-1.106.049-14.922.692-18.31.808-23.404 1.251M499.316 368.205l-1.806-4.826-.705-1.958-.626-1.764-.236-.94-.457-1.32-.33-.865-.405-.956-2.047-4.872-1.69-3.974-1.226-2.852-1.8-3.842-.888-2.2-.212-.397-.558-.948-.338-.684-.262-.552-.406-.99-.558-1.739-.506-1.813-.178-.396-.237-.544-.414-.8-.321-.618-.803-1.22-.44-.685-.237-.453-.423-1.006-.295-.915-.178-.7-.152-.627-.35-1.742M573.878 170.953l2.268 3.186 2.787 3.888 4.726 6.184 3.55 4.209 1.015 1.108 8.817 8.674 6.142 6.09 3.883 3.87 1.925 1.821 4.066 4.007.252.384.094.405-.003.365-.058.371-.137.565-.761 2.255-2.832 8.393-9.234 27.25-1.7 5.077-2.869 7.668-1.947 6.423-1.488 4.698-1.381 4.144-1.736 4.628-2.16 7.943-1.629 4.075-1.877 5.043-1.877 6.424-2.764 6.116M238.903 563.704l-.091.428M238.903 563.704l.859-3.873M241.196 565.5l-.795-.338-.507-.38-.99-1.078M236.018 576.966l-.808-2.506-.067-.396M238.812 564.132l-.474.387-.304.363-.837.898-.253.363-.178.47-1.657 6.924.034.527M226.438 580.975l3.967-4.72 2.766-1.464 1.972-.727M235.793 577.841l2.894-2.949M235.793 577.841l-8.951 41.034M235.793 577.841l.225-.875M241.196 565.5l2.18.346.432.165.287.264.138.341.031.698-.498 2.843-1.387 4.88-.237.297-.422.197-.626-.05-2.407-.589" clip-path="url(#p0e637ded51)" style="fill:none;stroke:#000"/><path d="m241.196 565.5-1.683 7.624-.084.322-.17.478-.572.968M294.564 309.429l1.166-5.304 4.913-22.35 5.385-24.757 7.118-32.69 11.142-50.465M124.597 102.895l19.87.144 21.084.132 7.938-.033 7.178.066 7.718.008 5.064.05 3.406.049 3.154-.05.902.015.708.031.376.041.478.112.33.125.325.163 3.12 1.748 6.94 3.735 4.396 2.573 3.88 2.118 2.985 1.641.444.194.22.048.249.006.285-.04.497-.131.364-.122 3.106-1.282 3.365-1.253 2.933-.924 5.191-1.607 4.633-1.468 2.404-.697.577-.14.22-.016.195.022.161.05.172.102.106.16.051.191.014.127-.121 2.567-.161 7.23-.203 6.259-.119 6.11.007 1.859.027.441.077.326.067.185.114.224.138.13.15.076.143.051.155.039.23.036 2.059.178 2.865.346 3.648.42 2.967.364 1.09.148.711.099.972.28.541.219.487.23.675.392.88.532 4.417 2.791 4.743 3.06 6.12 3.858 5.723 3.71 6.865 4.279 5.453 3.57 6.551 4.164 4.709 2.935 3.846 2.432 2.706 1.74 3.694 2.333 2.426 1.467M213.56 284.48l.271-.594.008-.272-.084-.594-.085-.503.017-.37.06-.289.363-.998.38-.857.195-.791.245-.99.127-.346.388-.693.339-.725.465-1.228 1.057-3.463.726-2.844.17-1.154.22-.776.337-1.088.575-2.126.288-1.468.101-1.039-.033-.783-.068-.651-.186-.891-.144-.552-.008-.338.101-.338.431-1.435.06-.437.033-.47-.067-.338-.085-.288-.287-.594-.322-.387-1.04-1.204-1.563-1.756-.27-.371-.272-.544-.126-.536.008-.536.102-.503.22-.346.473-.371.152-.247.085-.272.017-.405.033-.923.313-1.979.144-.51.135-.256.186-.198.406-.24.65-.436.423-.305.28-.33.261-.371.246-.71.168-.568.347-1.484.33-.898.795-2.309.321-.89.152-.388.16-.264.246-.33.55-.634M298.327 332.118l.583-.068M294.082 311.61l.056-.249.017-.071.347-1.581.062-.28M295.56 312.704l-.176-.684-.82-2.591M292.257 319.827l-.5 2.253M292.257 319.827l1.825-8.217M292.257 319.827l2.372-.696M281.149 374.537l-.128-.427-.136-.643-.062-1.19M269.96 434.331l-2.594-.284M270.184 430.602l.288.33.092.193.034.181.017.305-.195 1.2-.32 1.212-.14.308M270.184 430.602l-1.909-.911M298.91 332.05l-.036-.251-.337-2.139-.059-.338M239.762 559.83l2.516 1.936 3.5 3.346 1.056 1.13.22.202.228.181.39.177.296.103.498.103.685.017.921.206 4.667.997 3.728.726 1.226.206 2.08.304.98.232 1.429.502 5.063 2.152 8.336 3.61 7.186 3.115 26.037 11.326 14.997 6.43 14.49 6.264 9.266 4.038 7.355 3.264 9.163 3.907 9.452 4.122 5.252 2.28 5.112 2.22 10.195 4.55 5.132 2.192.507.23.558.195.177.045.144-.012.14-.05.072-.053.228-.347.38-.84.516-2.605 1.158-5.151.626-2.275 1.098-6.363.474-1.962.152-1.302.068-1.731-.05-3.165.092-1.97.06-.446.1-.403.263-.619.135-.185" clip-path="url(#p0e637ded51)" style="fill:none;stroke:#000"/><path d="m241.937 550.014.695 2.944 8.555 1.789 3.051.981 6.572 2.85 9.044 3.493 19.87 7.999 26.272 10.148 67.441 27.21 7.524-2.412 12.471-5.728 4.684 1.371M239.762 559.83l2.175-9.816M238.812 564.132l-1.552 7.124-1.242 5.71M283.811 448.228l.938-3.397M283.811 448.228l-1.809 5.844M283.811 448.228l-5.306-.601M279.486 444.296l-.981 3.331M279.486 444.296l.94-3.338M279.486 444.296l5.263.535M284.75 444.83l3.391.79M276.56 454.979l.378-1.337 1.515-5.837.052-.178M291.757 322.08l.691-1.232.965-.797 1.216-.92M294.082 311.61l1.477 1.094M268.275 429.69l-.91 4.357M269.073 425.904l-1.224 1.761-.117.333-.032.55.086.447.191.415.298.28M267.366 434.047l-.369.078-.32.167-.255.353-.267.52-.085.321-.01.395.32 2.707M282.002 454.072l-5.442.907M288.141 445.62l-2.353 7.575-.207.214-.757.203-2.822.46M288.141 445.62l4.843-16.855M304.809 387.989l-11.825 40.776" clip-path="url(#p0e637ded51)" style="fill:none;stroke:#000"/></g><g id="PatchCollection_1"><path d="m457.224 537.35-.203.593.127.181.61.132.557-.264.397-.626-.27-.263-.711.099zM475.5 517.368l2.056 3.743 1.055 1.038 2.698.446 1.664-1.336 1.15-4.484-.744-3.067-2.333-1.615-2.74.23-2.062 2.473-.642 1.418zM475.027 515.093l3.516-4.748-.473-3.89-1.082-1.352-1.59 1.318-.54 2.144-.61 2.571-.067 1.847zM453.284 537.894l.339.23.016.248.838.032.076-1.862-.694-.874-.507.034zM437.492 542.822l1.048-.428 7.135 2.571 2.401 1.088 3.855.43.609-5.639-.068-5.011-2.57 1.22-2.13.131-2.976-.56-2.232.593-.879.462-1.116.033-1.623 2.44zM453.014 543.878l1.014.116.203-.05.034-1.55-1.217-.065zM455.212 537.202l-.051.824.703.065.473-.165.228-.411-.474-.297zM453.149 539.41l.483-.066.092-.247.794.067-.168 1.582-1.252-.082zM429.071 540.91l1.59.66 1.86.032 3.314.627 2.333-4.32-1.15-.758-1.826-.165-2.468.067-1.488.428-1.015.627-.744.989zM485.577 510.28l.365 1.137 1.048.296.785-.741-.304-1.286-1.218-.099zM452.82 546.318l.11.1 1.132-.1.119-.263-.017-1.468-1.302-.033v1.286zM320.147 349.307l1.882 4.536 7.368 8.863 1.802 1.494 1.64.21.86-1.049-.403-1.022.645-.708 1.452-.446 1.022-.918-1.049-1.993v-1.022l-1.72-.84-.081-2.097-1.21-1.547-1.829-1.941-2.124-1.416-3.604-2.216-3.172-.956-1.816.59-.073 1.238zM588.395 94.501l-3.08-1.475-6.498-4.861-2.744-2.896-2.633-1.31-1.96-.547-.952.437-.168 3.168.672 2.677 2.352 2.076 1.401 1.038.783.382.73.765-.505.819.896 1.585.952.928h2.8l2.409-.546zM217.036 461.589l.99 1.878.76 1.666 1.627 1.56 1.56 1.931.732 2.91.854 1.878.679 3.544 1.194 2.526 1.288 3.928.352 1.838.041 1.654 1.085.912 2.062.727 3.092.516 1.696.106 1.18-.185.38-.794-.11-.833-1.017-1.256-2.088-1.732-1.058-2.09-1.316-4.02-.84-1.283-.448-1.35-.068-1.348v-3.003l.298-1.997.123-1.243-.014-.846-1.193-4.563-.706-2.169-.474-1.64z" clip-path="url(#p0e637ded51)" style="fill:#00f;fill-opacity:.8"/></g><path id="PatchCollection_2" d="m304.971 312.436.947 1.417 1.488-.923.811-1.582.305-1.682.642-2.342.812-1.648 1.25-1.518 1.421-1.187L314 301.29l.71-1.582-.203-1.748-1.387-1.121-1.792-.132-1.555.89-1.353 1.22-.879 1.55-.88 1.616-.912 1.748-.44 1.681-.405 1.682-.17 1.781v1.78z" clip-path="url(#p0e637ded51)" style="fill:#006400;fill-opacity:.8"/><g id="PatchCollection_3"><path d="m302.015 351.928.278 2.104 2.89-1.762-.03-.46zM287.066 402.224l-.881 2.902-3.11-.898.883-2.903z" clip-path="url(#p0e637ded51)" style="fill:green;fill-opacity:.8"/></g><g id="PatchCollection_4"><path d="m299.603 327.741 4.16-.668.852 6.02-4.116.669zM303.975 335.217l.467 3.138 2.207-.312-.467-3.138zM295.028 400.544l-.79 2.788 1.914.517.791-2.788zM300.033 380.594l-.546 1.807-1.162-.335.546-1.806zM306.377 340.539l.185 1.38 2.297-.293-.186-1.38z" clip-path="url(#p0e637ded51)" style="fill:#90ee90;fill-opacity:.8"/></g><g id="PatchCollection_5"><path d="m306.44 341.785-1.991.276-.071-.483 1.991-.276zM304.347 342.2l-.562.086-.247-1.516.562-.087zM306.342 341.191l-1.992.276-.07-.483 1.992-.277zM306.24 340.54l-1.993.276-.07-.483 1.992-.277zM241.704 566.802l-.289 1.516 1.633.297.29-1.516zM240.269 573.381l-.35 1.472 1.52.345.35-1.472zM271.333 431.317l-.537 2.28 1.828.342.565-2.229zM274.883 431.739l.645.103-.43 1.756.565.13-.323 1.522-.542-.155-.049.22.339.063-.115.514-.344-.01.006.122.297.037-.06.41-.345-.092-.026-.165-.408-.116-.178-.016zM298.56 349.672l1.962-.291.167 1.07-1.68.249.029.182-.282.043zM293.695 348.221l.567.023-.016-1.537-.232-.03-.218.045-.007.462-.101.083zM296.695 315.73l1.763.239-.116.887-1.806-.295zM299.203 383.608l-.201.69.419.117-.224.765-1.732-.48-.15.52 1.252.347-.075.257.26.072.064-.217 1.542.428.185-.635-.492-.137.189-.646 1.035.287.214-.734z" clip-path="url(#p0e637ded51)" style="fill:#a9a9a9;fill-opacity:.8"/></g></g></g><defs><clipPath id="p0e637ded51"><path d="M114.821 86.4H623.18v554.4H114.821z"/></clipPath></defs></svg>