<svg xmlns="http://www.w3.org/2000/svg" xmlns:xlink="http://www.w3.org/1999/xlink" width="960" height="960" viewBox="0 0 720 720"><defs><style>*{stroke-linejoin:round;stroke-linecap:butt}</style></defs><g id="figure_1"><path id="patch_1" d="M0 720h720V0H0z" style="fill:#fff"/><g id="axes_1"><path id="patch_2" d="M90 600.59h558V126.61H90z" style="fill:#fff"/><g id="LineCollection_1"><path d="m230.622 512.691-.853-.303-.21-.193-.269-.666-.248-.72-.268-.297-.791-.832-.058-.368.096-.35.555-.947.517-.806.02-.21-.173-.334-1.59-.157-10.09-1.14-4.443-.613-3.352-.403-.746.035-.632.175-.498-.123-.763-.38M206.826 504.059l.945-.864.804-.716.657-1.043.485-1.128.392-1.708-.13-1.384-.298-1.236-1.736-5.574-.337-1.863-.097-1.623.11-1.454.355-1.265 1.214-3.847.84-3.077.469-2.72.75-4.988.468-3.573.41-2.02.577-1.502.933-1.145 1.035-1.283 1.247-1.783 2.472-3.815 1.365-2.367 1.44-2.958 1.908-4.807.766-2.518.687-2.167 3.185-8.939M259.924 262.79l1.234-14.093M261.158 248.697l.883 1.963.726 1.671.33.927-.22 1.833-.55 1.47-2.403 6.228M259.924 262.79l-.89 2.396-1.448 6.793-2.92 9.035-5.146 10.535-1.675 2.826" clip-path="url(#p8577d5215a)" style="fill:none;stroke:#000"/><path d="m259.924 262.79-.535 2.486-1.137 6.768-3.064 9.011-2.01 4.121-3.773 8.188-1.149 2.332-1.972 5.365-.46 1.894-.038 1.35.122 2.317.536 2.471" clip-path="url(#p8577d5215a)" style="fill:none;stroke:#000"/><path d="m246.936 308.833-.544-2.154-.07-2.76.139-1.37.898-3.194 1.402-3.446 6.947-14.813 1.953-5.58.977-3.485 1.022-6.634.264-2.608" clip-path="url(#p8577d5215a)" style="fill:none;stroke:#000"/><path d="m251.236 293.409.35-1.244 4.71-10.802 3.104-8.806.689-7.795-.165-1.973M262.388 238.136l-1 2.09M262.388 238.136l.019-.172M262.388 238.136l-.177 1.913M262.388 238.136l.487 2.147M369.618 241.991l.145-.64-.149-.585M368.4 242.83l.724-.277.494-.562M369.618 241.991l.238 2.153M401.22 364.593l-3.73-3.977M401.22 364.593l-4.973 4.325M401.22 364.593l.364-.318M395.78 383.764l4.372 4.334M395.78 383.764l-3.84 3.298M395.78 383.764l3.959-3.57M395.78 383.764l-3.929-3.677M381.482 329.752l-3.512-.034M381.482 329.752l3.265.146M381.482 329.752l.001-3.346M381.482 329.752l-.036 6.185M442.978 380.764l6.52.384M442.978 380.764l.233-2.624M442.978 380.764l-.164 2.45M380.157 375.57l3.8-3.342M380.157 375.57l-.513.42M380.157 375.57l-.902-.99-.007-1.123M380.157 375.57l2.387 2.306M388.477 329.898h-3.73M388.477 329.898l3.407.115M388.317 336.05l.022-3.315.138-2.837M366.57 241.386l-.872 1.876M366.57 241.386l.11.53.256.339M366.57 241.386l-.813-1.69M367.275 240.169l-.478.46-.228.757M404.143 384.557l-3.99 3.541M401.074 381.555l1.618 1.601 1.45 1.401M409.252 389.36l-1.437-1.295-3.672-3.508M455.924 384.103l-6.612-.446M455.924 384.103l-.044.707M455.924 384.103l.213-2.526M392.455 320.247l.246-3.039M392.455 320.247l-.203 3.076M392.455 320.247l-10.643-.294M263.26 240.694l-.167-.225-.218-.186M263.163 241.968l.17-.297.076-.327-.026-.335-.123-.315M263.26 240.694l2.043.463M393.527 363.904l3.962-3.288M393.527 363.904l-1.125 1.14M393.948 358.484l-.319 3.182-.102 2.238M417.24 362.37l-.5.77M439.72 351.827l-.972.618-.631.339-1.48.95-2.337 1.707-1.614 1.199-1.045.737-1.437.884-1.234.774-.617.31-.41-.011-.29-.17-.283-.325-.558-1.485-.305-1.142-.13-.16-.2-.04-.269.05-.41.173-1.661 1.026-1.597 1.003-1.662 1.15-1.306.976-2.032 1.98" clip-path="url(#p8577d5215a)" style="fill:none;stroke:#000"/><path d="m416.983 356.08.46 1.199.068 2.487-.27 2.604M377.97 329.718l-3.447.073M377.97 329.718l-.065 6.08M369.614 240.766l.02-1.811M369.614 240.766l-.326-.424-.357-.19M400.573 372.84l-4.326-3.922M395.922 376.606l2.27-1.873 2.381-1.894M406.763 380.439l-1.314-1.395-1.864-1.873-3.012-4.332M404.334 369.622l-1.098.122-.762.378-.5.459-.653 1.016-.748 1.242M392.12 326.616l.132-3.293M392.12 326.616l-.236 3.397M392.12 326.616l3.364.086M381.483 326.406l6.174.097 4.462.113M378.536 373.43l.09 1.778M378.536 373.43l.712.027M378.536 373.43l-.102-1.793M247.845 294.375l2.394.553M247.845 294.375l-.597 2.362-1.43 4.137-.403 1.723-.098 1.724.052 1.8.184 1.508.89 1.464M238.428 292.33l3.308.865 6.11 1.18M443.76 374.329l-.172 1.427M443.76 374.329l.29-.215M440.867 375.849l1.731-.845 1.163-.675M456.137 381.577l-6.64-.429M456.137 381.577l.212-2.541M395.384 330.1l-3.5-.087M395.384 330.1l.836-.003M395.384 330.1l.1-3.398M520.49 382.638l-4.674 2.099-3.41 1.64-3.2 1.528-2.612 1.31-2.126.956-1.716.605-1.056.258-1.72.28-1.872.232-2.815.232-3.193.207-2.888-.014-2.344-.266-2.777-.37M460.727 385.07l1.343.212 1.35.225 3.047.485 3.15.545 2.14.558 2.14.651 1.09.399 2.706 1.056 1.922.863.835.326 2.112.618 1.525.327M496.05 424.566l.073-1.235-.798-2.245-.987-2.55-.631-.838-.726-.777-1.53-1.362-1.278-1.162-2.003-2.112-.551-.525-.356-.409-.108-.279-.011-.265.145-.529.533-1.109.697-1.249.638-1.096.204-.492v-.677l-.37-1.076-.414-1.648-.624-1.667-.813-1.986-.878-2.451-.849-2.498-.69-1.82-.636-1.174M381.446 335.937l-3.541-.14M381.446 335.937l3.352.086M381.264 342.892l.131-5.727.05-1.228M393.948 358.484l.298-3.043M403.58 350.76l-1.86 1.078-5.283 4.713-2.489 1.933M391.94 387.062l-3.703-3.707M391.94 387.062l-.401.505M391.94 387.062l4.34 4.352M388.317 336.05l-3.519-.027M388.317 336.05l3.404.066M388.2 345.451l-.035-5.05.152-4.352M411.951 387.607l.13-1.98M417.618 386.344l-3.142.744-2.525.519M409.252 389.36l1.444-1.255.544-.326.711-.172M442.814 383.214l6.498.443M442.814 383.214l-2.412-.151M442.814 383.214l-.024.745M381.872 316.982l-10.564-.238M381.872 316.982l10.829.226M381.872 316.982l.065-3.073M381.872 316.982l-.06 2.97M391.539 387.567l4.252 4.188M391.815 391.93l-.102-3.148-.174-1.215M391.539 387.567l-3.8-3.729M374.735 375.156l3.7-3.519M372.003 372.926l1.399 1.522.65.47.683.238M378.627 375.208l-1.978.043-1.914-.095M371.149 335.757l3.294-.066M371.149 335.757l-.033-1.388M374.465 340.334l-2.844-.923-.385-.206-.283-.2.196-3.248M403.759 362.446l-.164-.282-.083-.239-.044-.166-.03-.442.01-.143.073-.177.064-.175.08-.13.166-.174.671-.669.784-.605M409.001 358.039l-.228-.137-.207-.096-.222-.09-.275-.07-.247-.026-.247.02-.348.06-.41.173-1.53 1.371M407.385 361.484l-1.118-1.13-.98-1.11M402.496 356.398l1.386 1.422 1.404 1.424M383.79 380.074l3.948 3.764M383.79 380.074l.507-.505M378.144 385.202l2.38-2.332.635-.553 2.63-2.243M383.79 380.074l-1.807-1.78M381.483 326.406l.26-3.205M381.483 326.406l-10.381-.12M263.163 241.968l2.14-.811M263.163 241.968l-.295.272M412.922 193.93l2.233 1.834M412.922 193.93l6.25-2.258M411.16 194.525l.74-.189 1.022-.405M401.074 381.555l-1.335-1.362M401.074 381.555l5.689-1.116M381.743 323.201l4.434.04 6.075.082M389.13 361.799l3.272 3.245M394.246 355.441l-1.343 1.408-1.908 2.352-1.865 2.598M385.894 365.373l1.197-1.03.465-.545 1.574-2M455.88 384.81l2.109.106M442.79 383.96l4.223.212 2.689.216 2.8.21 3.378.212M383.956 372.228l-2.57-2.446M383.956 372.228l1.887 1.847 2.286 2.166M383.956 372.228l4.15-3.361M368.4 242.83l1.456 1.314M368.4 242.83l-.9-.118M286.295 308.36l-2.88-2.439-4.25-3.417-1.861-1.154-2.43-.93-3.179-.69-3.947-.91-4.659-.964-3.454-.704-5.333-1.303-2.565-.53" clip-path="url(#p8577d5215a)" style="fill:none;stroke:#000"/><path d="m251.737 295.32.013-.226-.065-.218-.136-.189-.21-.149M250.569 295.78l.229.086.246.016.239-.056.208-.121.157-.175.089-.21M380.364 393.12l.632-1.335.602-2.052.42-1.117.48-.591 1.023-.857.9-.69.559-.42.574-.383 2.184-1.837M262.875 240.283l-.314-.158-.35-.076M384.689 344.174l-3.425-1.282M384.689 344.174l3.511 1.277M384.689 344.174l.11-8.151M400.551 348.2l1.365-.51M394.246 355.441l2.677-3.01 3.628-4.231M404.777 343.192l-.829.96-3.397 4.048M406.763 380.439l.798-.512.95-.71.218-.123.225-.077.413.067 2.098 1.242.929.578.275.2.084.268-.015.475-.272 1.834-.385 1.946" clip-path="url(#p8577d5215a)" style="fill:none;stroke:#000"/><path d="m406.763 380.439 2.227 1.953 1.8 1.847 1.291 1.388M449.932 376.187l-.224 2.509M449.932 376.187l.158-3.04M449.932 376.187l6.547.285M449.932 376.187l-6.344-.431M365.698 243.262l1.802-.55M355.93 243.9l5.05.528 1.299-.168 2.705-.74.714-.258M366.936 242.255l-.275.198-.53.536-.433.273M385.428 366.107l.466-.734M385.428 366.107l-.46-.446M381.387 369.782l3.462-3.253.579-.422M388.107 368.867l-1.466-1.501-1.213-1.259M384.798 336.023l.022-2.345-.073-3.78M400.152 388.098l3.207 3.012M400.152 388.098l-3.873 3.316M391.72 336.116l4.071.16M391.884 330.013l.04 2.17-.138 1.634-.065 2.299M391.754 343.683l-.099-1.934.051-4.191.015-1.442M340.642 199.934l9.26 11.693 2.174 3.482 4.788 9.889 2.14 4.011 4.836 7.647 1.917 3.04M365.757 239.696l1.518.473M409.001 358.039l3.095-2.611M407.385 361.484l1.705-1.522.173-.21.121-.242.022-.276-.011-.276-.015-.257-.064-.225-.137-.228-.178-.21M371.25 319.778l10.562.175M371.25 319.778l-.021 3.204M371.25 319.778l.058-3.034M412.096 355.428l2.822-2.573M413.04 361.649l.355-.68.269-1.336-.08-1.468-.522-1.415-.966-1.322M405.558 354.073l1.698-.339 1.626.1 1.701.491 1.513 1.103M371.116 334.369l.19-3.1.095-1.41 3.122-.068" clip-path="url(#p8577d5215a)" style="fill:none;stroke:#000"/><path d="m374.443 335.69.007-4.696.073-1.203M388.237 383.355l-3.94-3.786M391.851 380.087l-1.647 1.568-1.967 1.7M380.875 369.326l.512.456M377.404 367.432l.98.186 1.037.468.544.35.91.89M380.875 369.326l-1.7 1.62-.74.691M384.969 365.661l-.535.385-3.559 3.28M261.607 244.994l1.261-2.754M261.607 244.994l.387-2.522M261.607 244.994l-.449 3.703M261.607 244.994l-.252-2.72M392.824 314.135l.326-1.783M392.824 314.135l-.123 3.073M392.824 314.135l-10.887-.226M414.918 352.855l-2.06-1.596M416.983 356.08l-.423-1.102-1.642-2.123M419.054 349.774l-1.352.752-2.784 2.329M456.35 379.036l-6.642-.34M456.35 379.036l.129-2.564M379.248 373.457l-.007-1.249.189-.533.253-.45 1.704-1.443M391.754 343.683l-1.114.81-1.133.764-.834.206-.473-.012M400.468 395.744l2.188.571M400.468 395.744l.17-.468M395.791 391.755l1.633 1.584 1.444 1.449.798.564.802.392M381.264 342.892l-3.562-1.302M410.79 346.546l-1.259-.27-1.61-.146-1.916.08-1.318.216-1.233.412-1.174.571M414.556 348.02l-.885-.418-2.881-1.056" clip-path="url(#p8577d5215a)" style="fill:none;stroke:#000"/><path d="m402.336 347.576 1.347-.437 2.351-.438 1.937-.093 1.59.073 1.229-.135M368.037 239.925l-.762.244M368.037 239.925l1.596-.97M368.931 240.152l-.311-.171-.583-.056M381.812 319.953l-.069 3.248M391.815 391.93l3.7-.15M395.138 397.697l-3.2-1.667-.134-.176-.022-.226-.007-.498.072-1.003-.032-2.196M397.366 315.156l-1.03-.253M396.4 326.788l.168-2.099.363-4.398.435-5.135M398.143 312.047l-.226.917-.55 2.192M407.104 391.672l-1.713 1.927M409.252 389.36l-.842.877-1.306 1.435" clip-path="url(#p8577d5215a)" style="fill:none;stroke:#000"/><path d="m403.359 391.11 1.129.459.66.166.624.093.345.03.29-.036.697-.15M374.443 335.69l.022 4.644M374.443 335.69l3.462.107M402.496 356.398l-1.575 1.328-3.432 2.89M405.558 354.073l-1.978-3.313M402.496 356.398l1.676-1.495 1.386-.83M392.032 372.76l-2.27-2.219-1.655-1.674M388.107 368.867l4.295-3.823M432.53 383.322l4.898.339 5.362.298M379.644 375.99l2.34 2.304M379.644 375.99l-1.017-.782M395.421 340.992l-3.667 2.691M395.791 336.275l-.203 2.658-.167 2.059M394.246 355.441l.188-2.903.668-7.387.319-4.16M261.388 240.225l-.291.223-.21.288-.113.332-.006.347.102.335.2.294.285.23M262.211 240.05l-.427.025-.396.15M369.633 238.955l-.702 1.197M370.135 236.64l-.325 1.863-.177.452M381.933 312.341l.004 1.568M381.933 312.341l-4.232 1.466M393.15 312.352l-.58-.584-.944-.425-1.24-.313-.915-.1-1.088-.04-.857-.026-1.705.073-1.045.213-1.247.476-1.596.715M404.334 369.622l1.697-1.452M416.74 363.14l-.69 1.137-1.358 1.148-2.698 2.565-3.075 2.471-.56.346-.527.183-.917-.063-2.58-1.305M392.032 372.76l-3.903 3.48M392.032 372.76l4.215-3.842M395.922 376.606l-1.85-1.986-2.04-1.86M371.229 322.982l5.514.093 5 .126M395.922 376.606l1.582 1.428 2.235 2.16M396.28 391.414l-.489.341M400.638 395.276l-.515-.161-.849-.56-2.995-3.141M384.297 379.569l-1.753-1.693M388.129 376.24l-1.408 1.183-2.424 2.146M388.129 376.24l3.722 3.847M449.312 383.657l.185-2.509M377.905 335.797l-.203 5.793M391.851 380.087l2.184-1.747 1.887-1.734M410.5 364.257l-4.47 3.913M410.5 364.257l-3.115-2.773M413.04 361.649l-.963 1.102-1.577 1.506M396.247 368.918l-3.845-3.874M449.708 378.696l-.21 2.452M449.708 378.696l-6.497-.556M396.22 330.097l-.153 2.664-.276 3.514M395.484 326.702l.851-11.799M395.484 326.702l.917.086M261.994 242.472l.46-.045.414-.187M395.29 292.548l-.413-1.522-.443-1.389-.9-3.023-.529-1.268-.798-1.595-.718-1.262-20.696-34.774-.937-3.571M412.484 351.016l.374.243M412.484 351.016l2.072-2.995M403.58 350.76l.177-.103 3.124-.59 2.615.061 2.988.888M443.211 378.14l.377-2.384M403.759 362.446l-2.175 1.829M407.385 361.484l-.968.81-.758.55-.28.092-.264.03-.255-.014-.288-.023-.24-.061-.238-.114-.335-.308M399.594 400.261l-1.967-1.19-2.489-1.374M395.515 391.78l.189 1.24-.123 1.814-.443 2.863M366.936 242.255l.113.173.451.284M336.317 194.005l-.406-.974-.305-1.866.762-3.202.335-2.44.567-1.988 1.343-1.92 1.543-.93 3.702-2.426 2.343-2.954 2.105-3.794.306-1.586-.102-2.954-1.324-4.323v-2.394l.305-7.247.374-1.057.781-.497.985-.156 5.035.565 2.606.523 1.97.902.882 1.275 1.834 1.43 3.668 1.525 1.867-.156 1.732-.684 2.751-1.586 8.116.093.646-.31.17-.56-.578-2.084.136-.498.441-.28 1.072-.316M402.656 396.315l.548-.58M402.656 396.315l-.806.997M377.702 341.59l-3.237-1.256M261.355 242.275l.306.136.333.061M403.204 395.735l-1.892-.247-.674-.212M405.391 393.599l-1.052 1.096-1.135 1.04M396.945 405.343l-.385.624M401.248 402.912l-1.669 1.156-.842.63-1.095.558-.697.087" clip-path="url(#p8577d5215a)" style="fill:none;stroke:#000"/><path d="m399.594 400.261-1.016 2.026-1.633 3.056M381.937 313.909l-4.236-.102M355.93 243.9l-4.765-.18-4.485-.455-10.865-.942-.795-.01-6.06-.612-.898-.021-7.575-.644-10.892-1.028-3.625-.25-17.227-1.482-4.843-.487-1.758-.243-2.251-.12h-1.537l-1.407.147-2.245.746-3.993 1.683-1.13.363-2.917.73-1.36.062M395.29 292.548l.385 1.435.718 2.59.835 3.123.805 2.95.426 1.746.38 1.277.217 1.342v.565l-.115.85-.182.79-.616 2.83M446.995 292.463l-.998 1.174-3.236 3.17-2.583 2.484-2.925 2.817-2.452 2.312-2.213 2.16-2.446 2.238-1.879 1.867-1.995 2.046-2.01 2.279-1.655 1.56-1.857 1.612-.218.05-.21-.01-.364-.143-.55-.319-1.365-.824-.965-.392-.93-.073-1.116.24-1.477.49-.446.033-.465.2-.515.685-1.386.77-1.226.34-.711-.074-.871-.179-1.582-.585-1.422-.63-1.147-.685-1.654-1.202-1.088-1.01-1.06-1.19-.929-.976-.906-.651M405.391 393.599l-2.032-2.489M433.16 337.491l-8.034 4.966M429.757 336.508l2.37.574 1.034.41M442.325 337.352l-.863-.333-1.14-.219-4.265-.134-.879.174-2.017.651M339.352 351.733l2.076 1.695 4.048 3.441 3.999 3.235 4.448 3.455M358.095 365.326l-1.712-.485-1.277-.538-1.183-.744" clip-path="url(#p8577d5215a)" style="fill:none;stroke:#000"/><path d="m350.302 359.879 3.15 2.55.188.453.283.677M460.727 385.07l-2.738-.154M490.159 331.3l-1.089 2.99-1.35 3.759-1.378 4.863-1.255 4.57-.472 2.027-.82 2.61-.755 1.715-.754 1.414-.5.857-.589.917-.507.658-1.844 2.272-1.509 1.92-1.858 2.365-1.937 2.484-2.119 2.724-1.437 1.926-2.155 2.67-.885 1.183-1.415 1.913-1.197 1.601-1.807 3.03-1.241 2.218-.559 1.083M418.097 346.486l-1.469.782-1.155.688-.452.091-.465-.026M457.6 451.7l-.022-1.826-.101-2.205-.11-1.362-.362-2.039-.406-2.444-.132-.833-.464-2.322-.493-1.92-.61-2.006-.877-1.66-1.756-2.458-.799-.997-.841-.757-1.06-.518-1.72-.319-2.633-.253-1.59-.06-1.741-.278-1.872-.372-1.981-.551-3.004-.997-4.412-1.554-1.324-.652-.737-.47-.973-.715-.95-.867-.61-.756-.39-.725-.37-.897-.291-1.155-.32-1.196-.384-1.973-.603-3.016-.754-3.985-.646-3.096-.334-1.468-.492-1.123-.676-1.095-.885-.957-1.865-1.92-1.647-1.654-1.285-1.302-2.452-2.465-2.025-1.952-1.35-1.17M395.791 391.755l-.276.024M396.22 330.097l.18-3.309M396.335 314.903l-1.472-1.242-1.713-1.309M238.428 292.33l-7.53-1.407-3.985-1.377-2.716-1.492-2.344-1.96-3.082-2.725M122.058 195.47l.866 2.638.747 2.001 1.438 2.16 9.662 8.478 2.358 1.264 2.53.948 7.361 1.316 2.818 1.054 3.221 2.053 9.264 7.395 1.124.896 4.392 3.506 4.429 4.16 26.867 32.172 5.807 5.628 13.829 12.23M592.442 246.652l.45.638.508 1.245 1.78 3.29.552.984 1.298 1.953 2.576 4.86 2.494 5.448 6.076 11.811 1.629 3.393 1.114 2.029 2.43 5.08 2.597 4.843 1.628 3.284 1.662 10.448.097 1.493-1.683 12.153-.319 1.433-.411.872-.844.984-.644.574-2.77 2.007-.953 1.034-.503.422-.767.484M595.52 342.276l1.554-1.452 1.926-2.148 8.7-8.743 1.396-1.5.73-.632.613-.387M537.447 374.66l2.208-.703M537.447 374.66l-2.655 1.248M540.024 347.894l1.683 1.728 2.975 2.391 1.212 1.263.319.644.05.438-.616 1.21-1.103 1.886-.312.571v.632l-.072.77-.349.877-1.9 3.029-1.031 2.219-2.235 5.633-1.198 3.474M595.52 342.276l-1.32 1.232-1.336 1.499-3.56 4.388-1.888 2.131-1.66 1.48-2.55 1.778-1.623 1.158-1.602.995-1.228.433-4.226.584-2.64.774-.99.108-.536.157-1.996 1.32-1.318 1.097-.912.884-2.802 2.332-1.277.854-1.84.812-3.398 1.153-1.098.443-2.218.725-2.267.622-.947.412-4.919 1.747-3.928 1.575-.736.384-1.05.604" clip-path="url(#p8577d5215a)" style="fill:none;stroke:#000"/><path d="m564.785 377.904-2.023-.305-9.019-2.05-7.116-1.368-1.248-.239-2.206-.172-2.039.033-1.48.154M475.389 226.846l-1.475-.676M475.389 226.846l-.798 1.1M592.442 246.652l-3.99-.46-2.38-.69-2.032-1.143-8.708-6.22-2.09-1.169-2.164-.534-28.357-4.155-2.512-.906-1.713-1.058-5.93-5.158-2.091-.725-1.82-.169-16.041-.676-3.535.241-19.898 3.126-6.715.074-7.077-.184M423.75 187.04l4.278-4.18M423.75 187.04l-4.65-3.705M423.75 187.04l-.454.458M423.75 187.04l2.355 1.817M635.778 238.551l-2.28-.013-1.509.32-1.654.743-12.046 6.379-3.25 1.78-2.41.665-2.409.24-3.163-.24-14.615-1.773M637.27 232.058v1.888l-1.492 4.605M583.272 576.275l-4.163-2.334M591.587 576.277l-5.501.132-2.814-.134" clip-path="url(#p8577d5215a)" style="fill:none;stroke:#000"/><path d="m630.603 563.134-1.33 2.135-5.83 8.273-6.863 9.463-6.231 8.47-27.077-15.2M454.68 211.27l10.556 8.093M454.68 211.27l-7.606-5.766M435.98 212.17l.739 1.028 1.534 1.255 4.082 3.285 1.999 2.082 2.136 1.204 2.63-3.26 5.58-6.493M579.109 573.94l-3.002-1.673M579.109 573.94l18.255-24.859M457.03 150.281l.438-.568 2.457-3.519 1.161-2.578.224-2.455-.402-1.964-1.698-3.232M447.325 162.888l9.705-12.607M438.595 172.67l3.677-3.795 5.053-5.987" clip-path="url(#p8577d5215a)" style="fill:none;stroke:#000"/><path d="m438.595 172.67 22.942 7.278 4.35-1.392 5.249-1.76 3.85-1.25 3.585-.604.616-.261.88-.705.087-.524-32.829-10.564M236.864 199.197l-.442-3.751.654-9.084 1.065-5.488M252.737 167.41l-7.938 4.674-2.32 1.973-.81.936-1.331 1.925-1.04 1.686-1.157 2.27M428.5 190.705l-2.395-1.848M428.5 190.705l4.022-4.327M428.5 190.705l-.387.428M428.5 190.705l1.97 1.535M426.223 204.387l-1.777 2.048M426.223 204.387l2.514 1.96M426.223 204.387l-1.746-1.394M424.913 210.164l-2.22-1.711M453.327 195.404l-4.351-3.487M453.327 195.404l-3.855 4.1M453.327 195.404l2.441-2.594M434.742 176.22l-2.519 2.492M434.742 176.22l4.245 3.156M434.742 176.22l-5.37-4.107M438.595 172.67l-1.59 1.47-2.263 2.08M422.694 208.453l1.752-2.018M422.694 208.453l-1.591 1.833M422.694 208.453l-1.753-1.35M423.352 211.995l-2.25-1.71M417.828 202.34l2.417-2.61M419.353 208.96l1.75 1.326M415.155 195.764l5.09 3.966M408.766 198.945l2.473-.77 3.916-2.411M420.245 199.73l3.91-4.212M420.245 199.73l4.232 3.263M421.103 210.286l-2.073 1.963M440.655 185.402l4.165 3.287M440.655 185.402l-4 4.238M440.655 185.402l2.655-2.813M511.91 143.033l-1.655-.699h-1.527l-6.236 1.748-7.7 9.965-1.654 1.282-2.418.757-32.261-5.244-1.43-.56M406.948 199.512l1.531 3.52 3.396 6.229 3.725 3.235" clip-path="url(#p8577d5215a)" style="fill:none;stroke:#000"/><path d="m419.03 212.249-1.423-.997-2.007 1.244M370.135 236.64l1.08.315.3.826.164 3.003.67.737.98.161 7.317-2.8 4.17-2.856 5.373-3.578 2.62-.234.665-.094 1.074-.498.826-.998 4.51-2.442 1.615-1.411 5.448-5.711 8.653-8.564M422.694 205.072l1.752 1.363M428.036 221.024l7.944-8.854M432.598 193.896l-2.127-1.656M432.598 193.896l-.394.44M432.598 193.896l4.056-4.256M432.598 193.896l4.362 3.371M426.721 208.207l-2.275-1.772M406.948 199.512l1.818-.567M406.948 199.512l-1.232-3.578M443.31 182.589l-4.322-3.213M444.82 188.69l1.921-2.217-.06-1.086-3.37-2.798M411.16 194.525l-5.12 1.31-.324.099M397.845 198.27l3.228-.925 4.643-1.411" clip-path="url(#p8577d5215a)" style="fill:none;stroke:#000"/><path d="m397.845 198.27-9.693 2.776-2.034.86-.666.39-1.964 1.585-1.39 1.569-3.972 6.309-2.223 3.728-1.077 2.061-1.098 2.337-1.645 4.74-.525 1.986-.368 1.77-.34 2.315-.64 4.924-.075 1.02M435.98 212.17l4.081-4.372M432.89 209.582l1.035.807 2.055 1.78M606.968 555.046l-5.1 7.039M606.968 555.046l17.925 11.131M606.968 555.046l-9.604-5.965M613.508 504.84l-.352 18.08-.176.605-5.147 7.006-11.395 16.066-.351.967v.402l.308.484.969.631M624.893 566.177l-8.707 4.64M624.893 566.177l5.71-3.043M601.868 562.085l14.318 8.732M601.868 562.085l-10.281 14.192M616.186 570.817l-6.063 3.23-2.023.967-2.374.697-2.873.295-11.266.271M424.477 202.993l3.814-4.282M438.988 179.376l-2.502 2.71M419.172 191.672l-4.255-3.286M419.172 191.672l4.982 3.846M419.172 191.672l4.124-4.174M402.336 347.576l-.056-.167M402.336 347.576l1.244 3.184M402.336 347.576l-.42.114M413.04 361.649l3.7 1.491M401.584 364.275l4.447 3.895M322.075 405.39l2.837-.732 2.41-.517 3.025-.592 2.482-1.016 1.001-.405.857-.419.993-.697.508-.498.32-.532.232-.897.355-1.062.283-.486.48-.51.58-.426.646-.252.965-.28.69-.032 1.233.199 1.124.285 1.165.303 1.658.461 1.698.605 1.219.358 1.858.346 2.685.511 1.748.269 2.14.11 2.345.033 1.487-.08 1.393-.319 1.364-.438 1.285-.737.718-.528 1.444-1.358L368.45 395l1.066-1.388 2.721-2.545 3.055-3.015 2.852-2.85" clip-path="url(#p8577d5215a)" style="fill:none;stroke:#000"/><path d="m359.045 391.401 2.966 2.489 1.454-1.162 2.409-2.425 1.821-1.58 1.698-1.814 3.36-3.102 1.952-1.734 1.538 1.528 1.901 1.6M401.85 397.312l.922 1.182M399.594 400.261l1.226-1.8 1.03-1.15M404.615 400.42l1.633 2.08M404.615 400.42l-1.843-1.926M401.248 402.912l2.14-1.508 1.227-.983M406.248 402.5l1.661 1.913M403.056 405.04l1.639-1.418 1.553-1.122M401.248 402.912l1.808 2.129M399.793 400.793l.135.504 1.32 1.615M407.91 404.413l1.871 2.086M407.91 404.413l-3.228 2.513M403.056 405.04l-4.613 3.128M403.056 405.04l1.626 1.886M396.56 405.967l1.883 2.201M366.345 429.11l1.655-1.826.827-.898.827-.61 1.335-.685 1.575-.777 2.039-1.062 1.161-.618 2.678-1.694 1.72-.97 1.095-.691 2.133-1.275.704-.532 2.14-1.355 1.241-.79.857-.518 1.77-1.269 1.466-1.521 1.386-1.442 1.14-1.335 1.015-1.388 1.451-1.887M409.781 406.499l1.75 1.98M406.426 408.928l1.998-1.486 1.357-.943M404.682 406.926l-4.352 3.28M404.682 406.926l1.744 2.002M398.443 408.168l1.887 2.038M411.53 408.478l-3.388 2.355M413.236 410.445l-.987-1.223-.719-.744M406.426 408.928l-4.381 3.26M406.426 408.928l1.716 1.905M400.33 410.206l1.715 1.982M413.236 410.445l-3.31 2.338M409.925 412.783l1.805 1.912 1.585-.995 1.436-1.327-.855-1.191-.66-.737M408.142 410.833l-4.392 3.23M408.142 410.833l1.783 1.95M402.045 412.188l1.705 1.875M403.75 414.063l1.478 1.845.272.016.174-.02.4-.185 1.915-1.409 1.936-1.527M240.384 397.1l1.212 1.055 1.604 1.382 1.618 1.774 1.343.937 1.618.67 1.981.5 1.313.317.9.293.53.325.282.499.123.83.117.624.203.326.399.371.472.402.388.283.537.319.83.391 1.191.6 2.119.995 2.699 1.388 1.415.744 1.531.817.675.458M235.036 424.407l1.198-.757.885-.565 1.212-.737.79-.465 1.372-.704 1.77-.864 1.808-.737 1.581-.678 1.858-.75 2.78-1.03 1.64-.485 1.559-.318 2.881-.532 2.068-.398 1.69-.485 2.228-.718 1.677-.53 1.45-.254M322.075 405.39l.95 2.364.668 1.455 1.372 2.99 1.219 2.626.141.568-.073.216-.12.282-.405.293-1.452.657-2.743 1.7-2.757 1.608-2.27 1.515-1.815 1.328-1.618.93-1.56.883-1.97 1.123-.66.146-1.053.113-.479.15-.344.186-1.626 1.136-.882.564-1.727 1.077-2.648 1.647-2.09 1.215-2.627 1.634-1.825 1.116-2.042 1.233-1.55.976-1.483 1.01-.918.527-.526.113-.44-.036-.384-.299-1.923-2.311-2.612-3.202-1.458-1.58-2.758-3.315-2.598-2.97-2.525-3.069-2.307-2.95-2.569-3.314-2.104-2.325" clip-path="url(#p8577d5215a)" style="fill:none;stroke:#000"/><path d="m322.075 405.39-2.786.763-3.287.877-2.954.797-2.728.598-2.017.405-3.15.644-2.605.519-1.835.491-2.02.569-1.957.607-2.053.505-2.046.372-3.462.624-2.561.499-1.422.179-1.22.093-2.67.252-1.901.005-1.255-.124-4.013-.24-3.2-.319-2.743-.179-1.741-.033-.965.106M235.036 424.407l-1.988 1.362-1.023.764-4.283 4.16M227.742 430.692l4.936-14.788 2.366-6.602 1.233-3.48 2.018-5.089.609-1.608.263-.653M366.345 429.11l-.776.883-1.727 1.827-1.277 1.448-2.17 2.67-1.43 1.887-.667.956-1.64 2.073-.812 1.083-1.357 1.587-1.843 1.926M340.317 458.748l2.41-2.491 1.843-2.265 2.125-2.338 2.359-2.603 2.358-2.412 1.234-1.189M329.709 444.162l2.8.405 2.59.305 1.147.147 3.657.418 2.918.206 1.937.18 2.04-.014 1.501-.213 1.255-.385.755-.08 1.176.127 1.16.192M328.809 482.898l-.073-2.988v-3.447l-.007-2.358v-1.907l.13-1.693.37-.784.661-.91 1.068-.91 3.075-2.896 2.765-2.51 1.96-1.953 1.56-1.794M305.24 471.102l1.575-.325 1.103-.133 1.005.053.896.273.987.391.876.206.844-.033.573-.182.349-.266.566-.548 1.683-1.98.98-1.335.37-.57.174-.645-.066-1.07.175-1.049.406-.99.994-1.686.726-1.05.74-.571.479-.133.518-.046.694.182.943.621.769.478 1.24.306 1.104.013 1.364-.206 1.596-.624 2.04-.804 1.538-.266 1.9-.152 2.157-.039 3.78-.174M353.386 561.539l-1.56-1.266-1.51-1.129-3.497-2.603-2.757-2.099-1.807-1.222-1.967-1.494-2.126-1.381-1.857-1.275-2.279-1.428-.42-.28-.313-.351-.391-1.043-.28-1.062-.214-.724-.374-.671-.413-.422-.497-.481-.624-.32-1.401-.643-2.25-1.01-2.365-.91-1.734-.877-.936-.61-.537-.631-.181-.505-.24-1.329-.087-1.44.24-2.431.413-1.987.32-1.401.268-1.7.232-1.534.436-1.747.515-2.371.253-1.282M328.809 482.898l.036 2.565-.065 2.829.065 4.41.102 3.454v4.204l.007 2.378-.16 1.634-.348 1.54-1.466 4.577-1.494 3.971-1.53 4.497-.51.923M286.795 558.84l2.344-2.266 2.409-2.211 2.35-2.431 2.28-2.178 2.772-2.743 3.657-3.38 2.59-2.478 1.582-1.587.733-.83.646-.924.957-1.315 1.176-1.62 2.99-4.012 1.64-2.032 1.973-2.258.9-1.076.518-.59.62-.65.805-.826 1.584-1.64 2.125-1.913M459.956 381.117l-1.833 3.226-.134.573M462.306 376.823l-.627 1.206M459.956 381.117l.46-.826M459.956 381.117l1.798.8M462.175 381.132l-1.758-.841M460.417 380.291l.055-.097M460.472 380.194l.911-1.634M456.521 379.134l2.062.238 1.889.822M461.383 378.56l.107.027.11-.007.102-.04.082-.07.05-.091.014-.1-.023-.1-.06-.086-.086-.064" clip-path="url(#p8577d5215a)" style="fill:none;stroke:#000"/><path d="m461.383 378.56-.085-.054-.062-.076-.033-.09-.001-.094.032-.09.06-.077.085-.055.099-.028.103.002.098.031M450.09 373.147l-3.897-.42M450.09 373.147l4.245.177M453.863 368.143l-.711 1.275-1.197 1.827-.798.904-1.067.998M456.479 376.472l.042-2.898M456.521 373.574l-2.186-.25M457.02 368.993l2.964.803.072.174.004.285-.254.671-.686 1.213-.82 1.102-.37.335-1.409-.002M446.193 372.726l-2.144 1.388M450.64 367.313l-.645 1.07-1.001 1.295-1.081 1.335-1.72 1.713M453.863 368.143l3.157.85M453.863 368.143l-3.222-.83M457.02 368.993l-.661 1.481-.892 1.342-1.132 1.508M447.536 366.402l3.105.91M442.463 371.564l1.502-1.103 1.474-1.468 1.313-1.567.784-1.024M448.704 363.6l-.341.969-.465 1.003-.362.83M444.05 374.114l-1.587-2.55M435.316 377.43l1.36-.38 1.859-.465 2.332-.736M440.599 380.1l.196-3.46.072-.791M435.316 377.43l.914 2.318" clip-path="url(#p8577d5215a)" style="fill:none;stroke:#000"/><path d="m433.909 374.613.848 1.7.559 1.117M432.595 371.703l1.314 2.91M432.595 371.703l-3.374.725M440.475 369.033l-1.324.707-1.524.69-1.712.505-3.32.768M432.624 379.463l2.177.205 1.43.08M440.599 380.1l-2.424-.146-1.945-.206M440.402 383.063l-7.85-.399M440.402 383.063l.197-2.963M430.814 379.463h1.81M428.72 375.656l1.382 2.425.712 1.382M432.552 382.664l-.955-1.766-.783-1.435M432.552 382.664l-.023.658M421.675 385.302l3.802-1.076 2.068-.539 1.074-.245.874-.153 1.08-.066 1.956.1M429.22 372.428l.632 1.322.87 1.793 1.481 3.13.421.79M429.22 372.428l-1.641.322M440.475 369.033l1.988 2.531M445.605 362.769l-.762 1.647-.653 1.083-1.088 1.289-1.096 1.109-1.53 1.136M442.601 361.991l-.435 1.183-.755 1.249-1.19 1.222-1.19 1.13.632 1.148.812 1.11M445.605 362.769l3.099.83M445.605 362.769l-3.004-.778M448.733 353.66l-1.343 3.694-1.785 5.415M448.704 363.6l2.645.7M451.976 354.518l-1.458 4.125-1.814 4.956M433.909 374.613l2.848-.728 2.042-.534 1.937-.81 1.727-.977M427.48 334.914l.957.823 1.32.771M423.64 340.219l4.964-2.96 1.153-.75M427.48 334.914l-6.12 3.677M425.26 333.333l1.073.597 1.146.984M425.26 333.333l-5.37 3.196M418.445 334.342l3.12-2 .668-.166.863.113.581.207 1.582.837M415.8 344.868l7.032-4.301M412.869 343.745l1.455.556 1.477.567M418.097 346.486l-1.038-.79-1.258-.828M418.097 346.486l7.029-4.029M412.869 343.745l2.47-1.743M404.777 343.192l3.045-.127 2.409.186 2.638.494M409.626 340.53l-2.547-.007-2.302 2.669M409.626 340.53l3.029.502M418.445 334.342l-3.316 1.907-3.638 2.201-.813.671-1.052 1.409M412.655 341.032l7.235-4.503M415.34 342.002l-1.459-.578-1.226-.392M415.34 342.002l6.02-3.411M418.445 334.342l1.445 2.187M422.832 340.567l.809-.348M422.832 340.567l-1.472-1.976M419.89 336.53l1.47 2.06M423.64 340.219l1.486 2.238M371.102 326.286l.127-3.304M368.66 326.322l1.553-.025.889-.01M377.7 313.807l-6.275-.106-.117 3.043M428.028 182.86l4.195-4.148M428.028 182.86l4.494 3.518M428.028 182.86l-4.9-3.804M432.522 186.378l4.132 3.262M436.486 182.086l-2.426 2.626-1.538 1.666M436.654 189.64l4.202 3.234M449.472 199.505l-4.295-3.305M449.472 199.505l-4.047 4.304M447.074 205.504l.178-.406-1.827-1.289M444.97 204.292l1.788 1.333.316-.12M432.204 194.336l-.603.675M432.204 194.336l4.316 3.366M432.204 194.336l-2.153-1.686M428.113 191.133l-1.437 1.595M428.113 191.133l1.938 1.517M428.113 191.133l-.058.518M428.113 191.133l-2.427-1.831M423.296 187.498l2.39 1.804M423.296 187.498l-4.671-3.659M418.625 183.84l.474-.505M414.917 188.386l1.194-1.737 2.514-2.81M425.686 189.302l.42-.445M430.05 192.65l.42-.41M430.05 192.65l-.21.251M445.425 203.81l-4.232-3.27M445.425 203.81l-.454.482M444.97 204.292l-.946-.738M444.024 203.554l-3.963 4.244M444.024 203.554l-3.263-2.544M440.061 207.798l-3.238-2.5M428.291 198.711l1.752-1.958M428.291 198.711l-4.137-3.193M428.291 198.711l4.283 3.307M425.881 193.61l-1.488 1.65-.239.258M414.917 188.386l-3.756 6.14M414.917 188.386l-4.89-3.802M444.82 188.69l4.156 3.227M444.82 188.69l-3.964 4.184M440.856 192.874l4.321 3.326M440.856 192.874l-3.896 4.393M436.96 197.267l-.44.435M436.96 197.267l4.233 3.272M436.52 197.702l4.241 3.308M436.52 197.702l-3.946 4.316M432.574 202.018l4.25 3.28M432.574 202.018l-3.837 4.328M428.737 206.346l4.153 3.236M450.467 190.355l-1.491 1.562M448.976 191.917l-3.799 4.283M445.177 196.2l-3.984 4.34M441.193 200.54l-.432.47M440.761 201.01l-3.938 4.288M436.823 205.298l-3.933 4.284M436.486 182.086l-4.263-3.374M432.223 178.712l-5.19-3.91M429.371 172.113l-3.12-2.387M429.371 172.113l-2.339 2.69M427.032 174.803l-3.903 4.253M423.129 179.056l-4.537-3.524 3.678-4.315 4.762 3.586M423.129 179.056l-4.03 4.28M368.931 240.152l-.533.89-.822.751-.64.462M399.793 400.793l1.295-1.043 1.684-1.256M399.594 400.261l.199.532M365.54 368.188l3.414 2.264M365.54 368.188l.062-.604.003-.88M365.54 368.188l-.883-.457M372.003 372.926l2.135-1.949M370.612 371.63l.252.253 1.139 1.043M377.012 367.957l-2.874 3.02M377.012 367.957l.392-.525M365.605 366.704l2.416.303 6.502.591 2.49.359M358.138 366.044l-.043-.718M354.728 364.974l1.365.644 2.045.426M364.655 366.675l-2.912-.322-2.458-.236-1.147-.073" clip-path="url(#p8577d5215a)" style="fill:none;stroke:#000"/><path d="m355.73 368.794 1.48-1.794.928-.956M365.605 366.704l.035-.542M364.655 366.675l.464.026.486.003M364.655 366.675l.065-.608M364.655 366.675l.004.728-.002.328M362.267 369.877l1.103-.97 1.287-1.176M364.72 366.067l.92.095M358.095 365.326l4.47.525 2.155.216M374.138 370.977l-3.405-.333M368.954 370.452l1.658 1.178M368.954 370.452l1.779.192M370.612 371.63l.12-.986M366.81 374.978l2.547-2.378 1.255-.97M365.64 366.162l3.6.373 4.39.419 2.483.298 1.291.18M327.296 341.82l.534.395M316.147 332.748l.486.438 1.93 1.701 7.024 5.547 1.71 1.385M327.296 341.82l.634-1.534M330.3 333.664l-1.168 3.477M332.749 334.482l-1.68-.593-.769-.225M320.363 326.35l1.922 1.688 1.383 1.395 2.5 2.405 1.669.89 1.56.651.903.285" clip-path="url(#p8577d5215a)" style="fill:none;stroke:#000"/><path d="m325.689 318.458.043.345-.043.538-.225.81-.537 1.536-.472 1.381-.399 1.236-.087.67.102.48.21.351.32.333 1.385 1.016 1.248.824 1.176.81.595.612.544.89.784 1.192.235.522.03.441-.055.356-.243.863M332.749 334.482l2.308.857M332.749 334.482l-1.277 3.408M331.472 337.89l-1.11-.286M331.472 337.89l2.228.823M335.057 335.339l2.365.863M335.057 335.339l-1.357 3.374M333.7 338.713l2.343.94M337.422 336.202l5.276 2.073M337.422 336.202l-1.379 3.451M329.132 337.141l-.389 1.179M329.132 337.141l1.23.463M296.555 316.73l1.792 1.495 2.692 2.226 3.07 2.431 2.51 2.073 1.756 1.422 1.662 1.448 3.636 2.923 2.474 2M315.682 327.068l2.344 2.318.378.392.145.306-.004.086-.03.12-.235.325-2.133 2.133M315.254 317.8l-.072 1.787M296.555 316.73l1.139-.272 4.281.359 7.576.544 5.703.44M322.38 318.265l-.871-.067-2.859-.192-3.396-.206M320.363 326.35l-4.68.718M319.913 324.105l-.044.565.065.73.182.432.247.518M319.913 324.105l-5.192.495M320.58 322.617l-.276.637-.391.85M322.38 318.265l-.697 1.867M322.38 318.265l2.053.014M325.689 318.458l-1.256-.18M324.433 318.279l.4-1.635.115-1.123.102-1.528.254-2.026.385-2.658.083-.182.225-.076 2.286.046.17.09.088.182-.16.997-.436 1.8-.616 2.339-.421 1.189-.53 1.136-.69 1.628M321.683 320.132l-6.501-.545M320.58 322.617l.632-1.382.471-1.103M314.87 322.782l.203-1.441.109-1.754M320.58 322.617l-5.71.165M314.87 322.782l-.15 1.818M315.682 327.068l-.685-.718-.196-.382-.091-.266.01-1.102M295.967 316.212l.588.519M286.295 308.36l4.462 3.46 3.273 2.705 1.937 1.687M297.215 297.39l-.036 1.555-.254 2.26-.21 3.168-.13 2.684-.378 4.206-.24 4.95M262.211 240.05l-.076.976-.14 1.446M269.652 329.47l.719-.994.203-.266.215-.1.441.027.85.22.522-.027.566-.186.334-.243.388-.491.758-1.272 1.154-1.894 1.255-2.146 1.67-2.358 1.363-2.053 1.844-2.837 1.944-3.063 1.277-1.753 1.14-1.674M375.774 547.268l21.754-4.907 21.218 3.435 9.191-4.417 7.248-3.454M446.737 526.256l-1.995 2.112-1.517 1.614-1.516 1.627-1.169 1.368-1.727 1.94-.849.863-.979.937-1.8 1.208M438.163 558.328l-.402-.917-.943-1.966-.907-1.68-.443-.824-.37-.79-.225-.91-.058-1.096.015-2.065-.036-3.155-.102-3.805.036-1.016.457-2.179M457.339 514.514l-.315.34M457.614 452.664l-.123 3.394-.014 3.733.028 3.155.015 3.48v6.543l.015 3.427-.051 2.95.007 3.18.05 3.614-.006 2.982v2.757l-.051 2.537-.03 2.603.008 1.787.029 2.783-.043 2.431-.051 3.593.014 4.476-.044 1.88-.028.545" clip-path="url(#p8577d5215a)" style="fill:none;stroke:#000"/><path d="m576.107 572.267-11.86-6.616-16.358-8.924-3.722-2.079-3.498-1.86-3.73-1.965-3.707-2.08-3.991-2.124-3.004-1.607-2.925-1.627-1.414-.777-1.647-.578-2.664-.585-3.004-.69-3.062-.744-2.83-.857-3.36-1.162-5.442-2.066-2.968-1.076-2.604-.956-1.684-.518-1.22-.312-1.363-.186-1.06-.133-1.56-.013-2.264.225-2.706.206-1.248.183-1.39.055-.515.008-.833-.115-.767-.33-.86-.627-1.222-.993-1.619-1.356-1.748-1.554-3.317-2.537-3.01-2.264-3.201-2.53-3.033-2.305-.9-.704-.5-.572-.523-.763-.225-.79-.21-1.455M298.655 213.695l-7.679-3.34-.859-.148-1.497.49-2.53 1.246-9.973 4.266-13.133 11.8M262.922 233.455l.214-2.082-.152-3.364M236.864 199.197l.877 1.707 2.048 3.673 19.905 17.115 1.529 2.153 1.064 2.366.697 1.798M299.616 167.64l4.194-7.226M330.308 196.784l-4.106-.371-2.417-1.045-6.713-6.701-3.425-3.382 1.612-5.595-15.643-12.05M286.09 177.328l12.715-8.662.81-1.026M330.11 191.543l-3.885-4.118-3.548-2.93-1.967-4.344-1.542-4.414-1.697-4.873-1.31-3.566-2.931-4.096-5.476-6.074-5.167-7.275-3.2-1.836-4.242-1.165-7.288-1.024-5.823-1.59-2.672-2.23-.725-.278-6.8-6.004M252.737 167.41l12.625-8.085 1.075-.922 1.076-.894 1.674-2.035 1.615-2.672.615-2.74.22-1.397.046-1.504.154-11.435M340.642 199.934l-3.916-4.944-.41-.985M330.11 191.543l.28.296 2.814 1.201 3.113.965" clip-path="url(#p8577d5215a)" style="fill:none;stroke:#000"/><path d="m330.308 196.784-1.77-2.543 1.572-2.698M316.772 219.179l9.028-2.232 7.183-5.84-.067-13.772-1.947-.491-.66-.06M397.845 198.27l-18.099.031-26.876-.212-1.774.177-3.239 2.118-3.046.777-4.169-1.227M410.038 201.775l-1.272-2.83M112.824 450.132l.435 1.296-4.466 10.769-6.862 2.094-.696.865-.411 1.436-.093.837.373 1.728 1.57 1.521 7.675 1.368 5.249.308 9.413-.36 2.082-.425 8.041-2.002M144.158 466.167l-.459-.032-1.103.124-1.746.299-1.868.666-.728.394-2.391 1.35-.729.599" clip-path="url(#p8577d5215a)" style="fill:none;stroke:#000"/><path d="m113.021 524.705-.32-1.228-.264-1.83-.092-2.326.103-.393.262-.793.414-1.027 7.802-17.303 7.342-16.578 5.319-10.497 1.137-2.48.41-.683" clip-path="url(#p8577d5215a)" style="fill:none;stroke:#000"/><path d="m131.759 558.361-.488-.272-.47-.688-.666-.487-3.647-1.893-.52-.336-.632-.708-.195-.347-5.102-14.013-1.71-3.831-5.308-11.081M240.029 396.23l.355.87M240.029 396.23l.638-1.934.958-2.339 1.002-1.667.856-1.175 1.052-1.356 1.473-1.96 1.792-2.317 2.155-2.977 1.945-2.61 1.995-2.398 2.178-2.983 1.153-1.926.45-1.203.544-2.226.247-1.235.022-1.335-.066-1.468-.18-1.17-.233-.956-.711-1.681-.552-1.07-.827-1.282-.914-1.102-1.677-1.787-2.293-2.299-1.291-1.315-2.602-2.648-3.846-4.111M239.167 398.472l.658-1.638.204-.605M474.591 227.946l-.677-1.776M475.2 259.159l-.532-7.366-.153-13.747-.192-6.559.23-2.349.038-1.192M465.236 219.363l8.222 6.6.456.207M637.27 232.058l-5.31-7.512-.9-1.144-1.712-1.461-4.586-3.654-1.829-1.954-4.61-5.804-3.27-3.512-5.224-6.471-8.186-9.662-3.453-6.312-.871-1.25-6.4-7.788-.363-.77-.043-.705.377-1.98-.087-1.143-.552-.85-.697-.505-23.466-12.944-.421-.093h-.377l-.479.212M465.236 219.363l6.337-6.867 11.145-2.923 15.442-11.96 26.238-20.679 1.916-1.435 22.93-8.825 7.605-5.05 4.992-2.498 2.97-2.37" clip-path="url(#p8577d5215a)" style="fill:none;stroke:#000"/><path d="m573.359 140.569-1.568 2.817-.667 1.25-.58.664-2.09 1.276-.726.691-2.917 9.49M237.859 399.595l-.378.352-.979 1.829-.762 1.282-1.103 2.384-.566 1.01-.536.306-.762.04-1.439-.398-19.07-5.921-2.273-.142" clip-path="url(#p8577d5215a)" style="fill:none;stroke:#000"/><path d="m246.62 348.167-.111.053-.33.14-.306.046-.264-.056-.49-.328-.472-.377-.968-.674-.9-.498-.711-.246-1.161-.346-1.27-.205h-.827l-1.278.232-1.755.22-2.78.624-29.955 9.268 3.667 11.538 3.268 11.904-1.134 2.564-1 .244-6.602-1.038 8.75 19.105M246.62 348.167l1.807 1.922 4.408 4.67 2.362 2.478 1.284 1.912.943 2.282.38 2.409-.058 1.98-.256 1.674-.417 1.747-.76 1.56-1.272 2.08-2.332 3.024-2.46 3.004-3.67 4.99-3.059 4.032-2.33 3.262-.953 2.176-1.352 3.675-1.026 2.55M246.444 309.093l2.303 9.19.439 2.048-.044 1.446-.483 1.686-1.403 2.208-1.14 1.887-1.93 2.85-1.184 1.647-1.14 1.727-.746 1.445-.394 1.566-.088 2.81.395 1.606.658 1.446 1.695 2.042 3.239 3.47M341.333 341.583l-.098.393M341.333 341.583l-.423-.08-.517-.158-4.35-1.692M342.698 338.275l-1.031 2.305-.334 1.003" clip-path="url(#p8577d5215a)" style="fill:none;stroke:#000"/><path d="m346.556 340.86-4.286.503-.937.22M352.559 331.193l-4.434-1.475-.9-.305-.352-.103M342.698 338.275l.964-1.86 1.502-3.362 1.357-3.009.222-.495.13-.24" clip-path="url(#p8577d5215a)" style="fill:none;stroke:#000"/><path d="m351.39 312.784-.566 2.478-.246.95-.566 2.12-.791 2.67-.755 2.558-.631 2.146-.61 2.325-.352 1.279M367.779 334.166l.961.09 2.376.113M450.554 340.514l-.994.06-1.393-.107-1.19-.232-1.423-.618-1.349-.837-1.002-.658-.878-.77M456.948 323.686l-.371.678-.995 1.362-2.205 2.385-1.988 2.265-1.996 2.272-1.204 1.429-1.865 2.105-.885 1.027-.563.428-.392.123-.606-.026-.725-.22-.828-.162M466.942 253.125l-6.643 10.363-5.975 2.665-3.485 1.368-1.57 1.122-.268 2.174-.268 3.192.995 6.417.928 1.724.471.664 1.27 1.741.683 1.222.993 1.934.509 1.143.921 1.7 1.219 1.748.965 1.64.297.825.27.976M457.076 313.302l.008-.558-.043-2.199-.029-1.927.182-3.454.326-2.737.436-2.212.355-2.213.123-1.435-.18-.824M446.995 292.463l.084.065 1.458.916 1.14 1.004 1.465 1.388.668.572.311.179.2.057.613-.047 2.678-.422 2.641-.432M475.2 259.159l-8.258-6.034M490.159 331.3l.929-3.096 1.277-4.452.725-2.504 1.161-3.74.617-1.82.29-.937-.015-.632-.311-.684-.682-1.502-.69-1.667-1.197-2.817-.856-1.82-1.48-2.724-.74-1.215-1.176-2.632-1.205-2.358-1.038-2.452-.885-1.654-1.277-2.325-1.023-2.04-.805-1.588-.929-1.853-1.052-2.22-.624-1.149-1.664-2.812-.834-1.735-.606-5.646-.43-5.991-.439-6.076M451.895 241.183l2.474 2.266 12.573 9.676M451.895 241.183l-2.693-2.465-.464-1.116v-.957l16.498-17.282M434.99 282.03l-.872-.81-2.148-1.45-2.552-2.9.044-13.576.704-7.573.924-.845 20.805-13.693M236.864 199.197l-42.38.308M355.004 254.99l-.087-1.914-.494-1.621-.145-1.436.32-1.488 1.248-3.853.084-.778M275.679 523.812l.61 2.604.188.87.377 1.016.958 2.962 1.06 3.387 1.262 4.078.726 2.417.798 2.59 1.016 3.069 1.248 3.985.479 1.527 1.292 3.932 1.102 2.59M277.072 570.873l1.596-3.188 1.009-1.634 1.154-1.361 1.19-1.163 2.27-2.198 1.329-1.374 1.175-1.116M328.809 482.898l-1.418.25-1.625.77-1.684 1.754-1.073 1.488-1.742 2.63-1.393 2.498-.813 2.364-1.654 2.258-.233 1.382-.493 1.647-.436 1.036-1.102.823-.465.824-.9 1.488-.29.664-1.219 1.01-4.121 3.347-1.423 1.461-.783 1.196-1.103 2.444-.116.93-.32.478-.696.372-1.422.531-2.845.213-1.393.265-2.67 1.727-.523.638-.551 1.089-.348.69-.9.984-2.235.69-3.425.133-3.338-.08-1.742.107-3.947.744-1.916.132-.773-.063M250.623 527.903 253.83 529l2.903.936 2.972.874.813.107 1.214-.45 1.292-.763.892-.591 1.3-.79.73-.541.81-.924.698-.817 1.259-1.159.74-.65 1.197-1.116.316-.143.315-.13.436-.02.856.147 1.629.355.947.246.29.12.24.122M250.623 527.903l-2.634-.737-3.469-.983-3.156-.903-3.338-1.05-3.178-.837-.653-.242-.494-.322-.718-.564-1.838-1.418-.204-.399-.29-3.188-.029-4.569M250.623 527.903l1.125-3.347.74-2.086.827-1.76.246-.79.023-.299-.062-.269-.109-.19-.348-.129-2.377-.66-2.844-.784-2.206-.71-1.88-.479-3.243-.976-3.43-1.003-2.056-.644-2.467-.664-1.94-.422M147.38 580.02l-.178-.033-.426.154-.731-.06-.88-.959-1.033-.484-13.37-5.01-.724-.4-.644-.633-.255-.525-.102-.72.064-.725 2.658-12.264M134.9 530.335l-.174 1.7 1.045 1.86.174 1.381-3.948 21.865-.238 1.22M419.03 212.249l2.234 1.834M330.362 337.604l-.639.113-.435.153-.545.45M328.743 338.32l-.813 1.966M349.29 340.314l-.49.225-2.244.32M349.29 340.314l-.014.307.084.259M351.807 338.995l-.396-.142-.557-.03-.54.131-.468.279-.35.399-.196.478-.01.204M327.83 342.215l.66-1.714M332.495 346.12l-2.365-1.953-2.3-1.952M317.583 340.965l2.068 1.09 2.598 1.375 2.424 1.236 1.001.505.501.093.435-.007.261-.1.276-.232.276-.977.407-1.733M349.36 340.88l.09.274.36.449.6.392" clip-path="url(#p8577d5215a)" style="fill:none;stroke:#000"/><path d="m346.612 341.288 2.028-.283.72-.125M352.658 339.798l-.298-.433-.43-.326-.123-.044M352.775 340.476l.018-.182-.135-.496M355.606 339.587l-1.553.23-.936.086-.459-.105M350.41 341.995l-1.008 2.319M350.41 341.995l.495.052.605-.056.548-.24.427-.397.255-.505.035-.373M352.775 340.476l.576-.07 2.321-.402M347.204 342.617l-2.246 4.775M349.402 344.314l-1.3-.722-.898-.975" clip-path="url(#p8577d5215a)" style="fill:none;stroke:#000"/><path d="m346.612 341.288.14.427.197.463.255.439M355.065 342.562l-.563.698-.708.576-.823.431-.902.268-.942.091-.943-.087-.782-.225M344.958 347.392l2.55 1.008 1.894-4.086M346.612 341.288l-.056-.428M346.612 341.288l-2.028.289M346.607 339.671l-.072.593.02.596M355.672 340.004l.26.012M355.672 340.004l-.066-.417M355.065 342.562l.405-.817.207-.878-.005-.863M355.145 338.423l.263.527.198.637M355.606 339.587l2.18-.282M355.932 340.016l1.974-.286M355.932 340.016l5.43 2.171M355.065 342.562l5.244 2.044M352.828 336.534l.925.46.786.641.606.788M357.78 332.512l-1.419 3.152-1.216 2.759M357.78 332.512l-.686-.236M359.655 333.086l-1.06-.338-.814-.236M357.787 339.305l.12.425M357.906 339.73l1.84-.286.718-.056 1.738.07.316-.019.118-.07.03-.069.004-.098-.049-.04-.096-.04-.243-.033-1.535-.076-.86.05-2.1.242" clip-path="url(#p8577d5215a)" style="fill:none;stroke:#000"/><path d="m360.41 333.465-1.198 2.478-1.425 3.362M360.41 333.465l-.755-.379M367.779 334.166l-5.253-.326-1.572-.265-.544-.11M360.28 324.171l-.03 1.17-.377 3.813-.218 3.932M360.28 324.171l.036-1.236" clip-path="url(#p8577d5215a)" style="fill:none;stroke:#000"/><path d="m368.66 326.322-.722.011-1.712-.006-1.238-.06-1.171-.066-1.208-.01-.222-.057-.105-.086-.073-.19-.076-.54-.149-.37-.217-.289-.25-.152-.62-.183-.618-.153M358.973 322.417l.929.399.414.12M360.548 319.076l.029 1.043-.261 2.816M358.03 321.939l.486.266.457.212M357.918 322.949l.453-.26.602-.272M358.03 321.939l-2.569-.744M358.03 321.939l-.112 1.01M358.03 321.939l.24-3.607M357.094 332.276l.428-4.87.297-3.507.099-.95M357.094 332.276l-2.12-.511M354.583 331.685l.392.08M352.559 331.193l.319.106 1.705.386M355.461 321.195l-.304 3.036-.349 4.298-.225 3.156M355.461 321.195l.341-3.614M352.559 331.193l-.269-.472-.123-.365.036-.644.138-.937-.087-1.169.094-.81.182-.652.21-1.614.08-1.19.178-1.075.174-.854.203-.3.395-.155.458-.07 1.233.309M352.828 336.534l.95-1.986 1.197-2.783M352.828 336.534l-1.02 2.46" clip-path="url(#p8577d5215a)" style="fill:none;stroke:#000"/><path d="m346.607 339.671.216-.716.351-.67.475-.602.583-.517.673-.414.742-.3.79-.175.81-.045.805.087.776.215M342.698 338.275l3.909 1.396M339.817 345.397l1.073-2.531.345-.89M341.235 341.976l.425-.024 2.924-.375M328.49 340.5l.75-1.953.251-.292.348-.15.657-.08.63.182 9.02 3.466.625.216.464.087M339.817 345.397l2.532.983M342.204 349.33l-.551-.386-2.377-1.883-.065-.186.025-.226.054-.292.527-.96M344.958 347.392l-2.609-1.012M342.35 346.38l.913-1.927 1.321-2.876M354.728 364.974l-4.753 5.115M351.92 363.047l.878.738 1.93 1.189M349.38 361.121l-2.38 2.544M339.918 352.89l1.538 1.568 5.646 4.743 2.278 1.92M351.92 363.047l-1.428-1.004-1.112-.922M353.807 370.847l1.923-2.053M349.975 370.09l2.656 2.032 1.176-1.275" clip-path="url(#p8577d5215a)" style="fill:none;stroke:#000"/><path d="m357.892 374.035-1.836-1.388-2.25-1.8M359.112 374.987l-1.22-.952M362.267 369.877l-2.51 2.478-1.865 1.68M362.267 369.877l-3.468-.38-2.308-.378-.761-.325M345.034 365.825l2.533 2.205M345.034 365.825l1.966-2.16M338.609 356.593l-.527.702-.907 1.281-.141.323-.029.24.149.351.334.356 3.257 2.704 2.57 2.052 1.719 1.223M417.618 386.344l4.057-1.042M415.638 376.625l1.255 4.498.297 2.378.428 2.843M420.89 380.068l.393 2.59.392 2.644M305.12 216.792l7.252 3.474 4.4-1.087M314.098 225.385l2.496-1.142.145-.426 1.19-.638-1.157-4M305.12 216.792l-6.465-3.097M304.956 221.32l.174-.745-.01-3.783M304.114 198.515h-.552l-1.335 4.2-1.277 3.588-1.829 6.378-.466 1.014M252.737 167.41l.358.619.029 1.142.667.851 3.425 2.235 7.199 4.465 3.844 2.658.754.611 3.28.85.755-.026 1.944-.372 2.149-.106 1.306.186 1.17.266.464.43 2.351 6.007 1.364 2.365.842 1.222 5.021 4.008.349.585.61 4.385-.378.638M144.158 466.167l5.489-12.278M149.324 467.918l-3.656-1.565-1.281-.17-.229-.016M149.324 467.918l3.087-6.968.84-1.436M205.972 503.386l-.376-.488.25-1.095.225-1.053-.093-1.265-.523-2.274-.467-1.521-.318-.957-.56-1.351-.598-1.35-.541-.924-1.158-1.265-3.699-3.516-.297-.27-1.066-.915-1.307-.548-1.233-.205-.934.103-1.214.53-2.577 1.18-1.01.444-1.344.376-1.14-.017-.896-.12-3.548-1.162-2.092-.616-1.625-.615-1.382-.787-.897-.683-4.221-4.36-.766-.77-.803-.683-.97-.77-2.168-1.247-.859-.462-1.002-.43-.959-.442-14.48-5.94M446.737 526.256l-2.234-.312-2.482-.445-3.338-.704-1.4-.206-2.809-.106-3.628.073-4.121-.007-4.63.007-2.565-.133-1.622-.01-.551.037-.602.093-.443.162-.45.379-.356.727-.362 1.54-.29 1.343M457.024 514.853l-.266.265-1.458 1.68-2.112 2.259-2.242 2.616-2.25 2.458-1.959 2.125M457.024 514.853l.273 2.801.085 3.335.015 4.164v3.985l.014 4.975.182 5.154.05 2.922.088 1.043.355 2.357.072 1.834.088 1.407.04.236.061.14.13.153.188.07.243.039.813.045 2.117.068 1.35.083.583.056.363.147.429.342.55.574.911 1.248.762 1.408.606.867.414.604.845 1.04 2.017 2.623.186.253M456.948 323.686l-.023.95.073 3.315-.182 3.408.008 2.75-.044 1.628-.13.784-.262.624-.297.366-.695.562-.996.494-2.765 1.462-1.08.485" clip-path="url(#p8577d5215a)" style="fill:none;stroke:#000"/><path d="m471.793 339.85-1.118 2.823-.47 1.03-.523.504-1.176.612-2.054.963-1.589.694-.257.056-.35-.045-.39-.16-.309-.246-.451-.5-.296-.23-.501-.254-.551-.12-1.677-.039-.71-.046-2.417-.2-.87-.239-.792-.292-.5-.412-.341-.392-.48-.91-.488-.664-.49-.28-1.017-.491-1.422-.498M422.248 353.337l-1.375 1.576-.723.389-1.35.327-1.817.452M338.609 356.593l1.273 1.186 2.924 2.445 2.656 2.206 1.538 1.235M347.567 368.03l2.09-2.405 2.263-2.578M347.567 368.03l2.408 2.06M610.801 359.08l-.145-.319 2.351-12.802-.17-.665-.261-.451-16.458-2.286-.599-.28M626.037 353.071l-14.655 6.115-.58-.106M607.083 363.493l-1.451-1.731.22-.202 4.53-2.095.42-.385" clip-path="url(#p8577d5215a)" style="fill:none;stroke:#000"/><path d="m611.923 368.947-2.112-.705-.264-.564 1.254-8.598M631.96 350.6l5.093-2.125M631.96 350.6l-5.923 2.471M630.125 348.67l.436.798.696.61.702.522M635.604 346.698l.099.513.913.564.437.7M623.229 362.91l-.088-.625v-.463l3.101-8.317-.205-.434M457.6 451.7l.014.964M444.132 460.561l.465-1.115 1.037-1.641 1.633-1.84 1.357-1.534.965-1.707.719-1.2.445-.534.316-.22.36-.039.326-.003 1.513.242 4.332.73M524.829 451.03l-1.51.87-.391.445-1.335 1.654-2.736 2.983-2.314 2.583-1.85 2.026-2.2 2.524-2.278 2.464-1.821 1.96-1.249 1.242-.95.491-.82.226-1.328-.193-1.589-.385-1.742-.584-1.429-.678-2.46-1.182-1.51-.704-2.263-.857-1.72-.525-1.966-.379-3.774-.663-3.584-.804-4.027-1.116-4.223-1.036-2.67-.691-2.657-1.043-2.887-1.302-2.265-1.096-1.509-.91-1.32-1.348-1.408-1.455-.824-.6-.606-.283M568.015 507.157l-3.387-10.148-1.955-3.168-5.412-8.882-.747-1.973-.352-1.45-5.675-12.188-1.012-2.618-.308-2.563.352-3.262-.22-.644-.44-.282-17.963.201-.835-.12-.529-.484-4.703-8.546M617.135 418.72l-2.772-.242-1.627.765-1.936 1.894-2.772 2.375-1.267.887-1.1 3.544-.44 2.58-.175.725-.66.725-1.76-.121-2.508-.12-4.223 1.046-4.048 1.933-10.338 6.726-6.235 2.174-1.76.161-1.583-.12-10.383-4.47-2.86-.564-2.023-.282-2.71.545-1.712.133-1.023.385-1.176.85-1.073.79-.74.393-.879.498-.87.465-1.568.63-1.872.685-4.034 1.827-3.904 1.746-3.693 1.595-3.368 1.527-.993.353-1.18.263-1.041.009" clip-path="url(#p8577d5215a)" style="fill:none;stroke:#000"/><path d="m509.126 420.753-.413.837-.102.4.03.518.18.637.966 1.488 1.335 2.404 1.27 2.299 1.705 2.79 1.03 2.019 2.04 3.786 1.53 2.378 1.365 2.617 2.198 3.634 1.662 2.756.907 1.714M412.858 351.26l1.647-2.15M425.881 193.61l.795-.882M425.881 193.61l.111.083M430.043 196.753l.83-.927M430.043 196.753l-.205-.155M427.782 195.045l.161.122M427.782 195.045l-1.79-1.352M427.782 195.045l.093-1.304M426.676 192.728l.128.108M427.875 193.741l.097-1.359M427.875 193.741l-1.071-.905M427.972 192.382l.083-.73M427.972 192.382l1.415 1.06M427.943 195.167l1.895 1.431M427.943 195.167l1.444-1.725M427.943 195.167l1.574-.272M431.044 194.632l-1.657-1.19M431.044 194.632l-1.527.263M431.352 194.836l-.088-.065-.22-.14M429.517 194.895l1.125.772M430.872 195.826l.729-.815M430.872 195.826l-.23-.159M425.992 193.693l.812-.857M429.84 192.901l-1.636-1.228-.07-.017-.08-.005" clip-path="url(#p8577d5215a)" style="fill:none;stroke:#000"/><path d="m426.804 192.836 1.027-1.098.05-.036.051-.035.063-.017.06.001M430.642 195.667l-.804.931M430.642 195.667l.71-.831M431.352 194.836l.249.175M429.84 192.901l1.775 1.34.044.07.026.064-.039.116-.294.345M429.387 193.442l.453-.54M394.04 292.368l.164.104 1.087.076M394.04 292.368l-.382-1.026M390.951 292.435l.484.533.54.151.769-.017.45-.126.486-.346.36-.262M390.78 290.948l.343.132.969.486 1.947.802M393.398 290.705l.26.637M390.24 287.83l1.009.432.805.592.825.971.519.88M392.883 291.094l.282-.19.233-.199M389.447 290.277l1.334.67M392.883 291.094l-.462-.148-.396-.1-.613-.052-.631.154M393.658 291.342l-.775-.248M345.106 351.655l-.058-.24-.595-1.381-1.727-.744-.522.04M346.117 352.413l-1.01-.758M346.117 352.413l-2.169 2.244M352.558 357.454l-.478-.319-4.434-3.607-1.529-1.115" clip-path="url(#p8577d5215a)" style="fill:none;stroke:#000"/><path d="m352.558 357.454.25-.631.157-3.455-5.653-2.192-1.195 1.237M343.948 354.657l6.354 5.222M332.495 346.12l.726.02.479.094 10.248 8.423M350.302 359.879l2.032-2.153.224-.272M339.352 351.733l-2.38-1.945-4.477-3.667M448.733 353.66l3.243.858M442.601 361.991l1.19-3.374 2.076-5.64 2.866.684M451.976 354.518l2.606.637M454.582 355.155l-.574 1.88-.813 2.737-1.044 2.578-.802 1.95" clip-path="url(#p8577d5215a)" style="fill:none;stroke:#000"/><path d="m454.582 355.155 2.677.798-1.539 4.988-1.48 3.747-.177.145-.2.068-2.514-.601M245.66 443.112l-.03-.345-.137-.432-.646-1.083-.54-.86-.306-.342-.26-.153-.327-.073-.334-.026-.602-.04-.77-.26-.435-.189-.283-.225-.16-.23-.482-1.042-.442-1.309-.53-1.455-.704-1.94-.559-1.653-.515-1.116-.457-1.136-.4-1.136-.428-1.375-.47-1.302-.277-.491-.53-.492M240.384 397.1l.164 1.676M380.728 442.897l-.523-.389-.79-.87-1.453-1.814-1.879-1.873-1.973-1.973-2.105-2.345-2.111-1.893-2.105-1.62-1.444-1.01M438.163 558.328l.114.258.413 1.083.022.617M460.902 556.076l-1.234-.133-1.43.007-.943.02-1.255.152-4.325.957-2.27.564-2.853.651-4.535 1.136-3.345.856M520.49 382.638l5.601-2.67 4.71-2.193 3.99-1.867M528.196 349.715l-.922.206-.783.478-.77.704-.5.95-.465.957-.137.764.072 1.096.254 1.023.384 1.23.37 1.72.182 1.713.21.598.256.471.213.392.112.207.233.318.311.167.566.013.864-.053 1.125-.127 1.458-.073.61.06 1.233.286.762.22.443.125.348.24.268.305.066.784-.03 1.833-.057 4.425-.08 5.161M564.785 377.904l.41 1.266.073.83-.167 1.588-.479 4.272-.167 1.62-.174.14-.283.046-2.554-.14-3.468-.271-3.324-.04-2.38-.12-2.322-.193-2.082-.073-2.852-.106-1.85-.053-1.822-.073-2.126-.16-2.344-.099-1.56-.107-1.074-.232-1.066-.525-1.538-.678-.872-.338-3.069-.565-3.04-.538-3.222-.465-.943-.252M533.9 335.605l-2.533-.618-2.939-.592-3.048-.73-2.953-.731-3.178-.784-2.35-.519-1.547-.245-.965-.013h-2.699l-2.112-.14-2.75.213-2.409.04-3.853.092-2.822-.053-3.505-.033-2.896.053-1.182-.246M368.66 326.322l-.13.466-.007.346.079.545.044 1.853-.036 1.39-.153 1.454-.217.937-.461.853M231.27 288.727l.284.592.34.405.864.3 1.357.251 1.262.312 1.205.4.595.272 1.251 1.07M446.995 292.463l-2.253-1.756-2.583-2.199-1.633-1.58-1.502-1.283-2.307-1.993-1.727-1.622M440.756 289.488l-4.86 4.66-3.098 2.93-2.271 2.193-2.757 2.71-2.438 2.187-2.874 2.85-1.302 1.182-.196.003-.135-.076-.152-.352-1.408-3.202-.94-2.34-.018-.41.098-.167.243-.226 1.474-1.66 2.082-2.678 1.292-1.568 1.545-1.794 1.553-1.834 1.894-2.172 1.996-2.359 2.698-3.222 1.808-2.113M273.249 361.05l-3.868-3.174-10.402-9.25-1.9-.64-5.102-.427-4.534-.794-1.4-1.649-2.068-1.495-.678.079M243.297 343.7l-.834-.884-.577-.827-.384-.811-.261-1.003-.105-1.769.206-1.685.182-.85.203-.48.602-1.328 1.546-2.418 1.37-2.046 1.322-1.767.943-1.535.9-1.422.726-1.415.34-1.262.08-.71.095-1.104-.53-2.903-2.185-8.648M251.233 406.665l.116.272.087.379-.087.538-.193.548-.174.339-.287.19-.558.085-1.125-.199-1.574-.379-1.662-.518-3.6-.744-3.134-.744-.207-.176-.047-.262.062-.426.468-1.7.443-.864" clip-path="url(#p8577d5215a)" style="fill:none;stroke:#000"/><path d="m247.488 405.23-2.43-.598-1.64-.458-1.387-.366-.87-.318-.487-.186-.34-.12-.573-.18M241.095 399.935l-.558.97-.283.791-.493 1.308M251.37 409.767l-.435.093-.348-.027-.711-.172-1.198-.306-1.074-.305-1.066-.107-.791.126-.29.18-.276.491-.218.844-.09.588.076.461.26.18.654.266 2.322.55 1.473.194.384-.107.218-.246.269-1.042.239-.937.261-.352.341-.372" clip-path="url(#p8577d5215a)" style="fill:none;stroke:#000"/><path d="m251.37 409.767-.34.372-.262.352-.24.937-.268 1.042-.218.246-.384.107-1.473-.193-2.322-.551-.653-.266-.261-.18-.076-.461.09-.588.218-.844.275-.491.29-.18.792-.126 1.066.107 1.074.305 1.198.306.71.172.35.027.434-.093" clip-path="url(#p8577d5215a)" style="fill:none;stroke:#000"/><path d="m251.233 406.665.53.385.151.306.088.51-.145.898-.204.764-.283.24M247.488 405.23l1.916.717 1.829.718M241.095 399.935l.545.552 1.291 1.096 1.742 1.607 1.582 1.415 1.233.625M240.548 398.776l.185.31.145.365.217.484M240.548 398.776l-1.381-.304M231.27 288.727l.937-.398 1.516-.26.886-.258.253-.206.269-.645.269-1.415.333-1.263-.05-.292-.219-.325-.79-.293-1.03-.026-.74.153-.915.518-.283.2-.24.345-.41 1.372-.017.72.232 2.073" clip-path="url(#p8577d5215a)" style="fill:none;stroke:#000"/><path d="m231.27 288.727-.231-2.073.017-.72.41-1.372.24-.346.283-.2.914-.517.74-.153 1.031.026.79.293.219.325.05.292-.333 1.263-.27 1.415-.268.645-.253.206-.886.259-1.516.259-.936.398M382.544 377.876l-.56.418M339.918 352.89l.247.768.029.654-.106.392-.21.325-.526.572-.743.992M339.352 351.733l.508.978.058.178M385.894 365.373l-.925.288M413.09 569.405l.472-.697.82-.266 1.632-.173.704-.239.61-.65.646-1.455.094-.535-.113-.587-.53-.532-.515-.494-.435-.15-1.27-.445-1.999-.644-.918-.418-.257-.206-.077-.25v-.378l.019-1.122.065-.764.073-.478.25-.316.316-.232.42-.146.744-.037 3.204-.003 3.236-.026 2.322.006h4.31l3.752-.106 3.555.106 3.943.16M361.622 455.753l1.596-.671 1.531-1.003 1.052-1.196.755-1.295.515-.744.603-.313.681-.185 1.168.033 1.212.12 1.205-.014.327-.113.892-.624 1.756-1.282 1.713-1.315 1.734-1.707 1.829-1.78.537-.767M392.78 452.246l-.806-.412-1.131-.977-.944-.91-.675-.571-1.494-1.016-1.292-.877-1.074-.684-1.226-.837-1.299-1.03-1.625-1.674-.486-.36M457.076 313.302l-.035 2.385-.014 2.691-.022 2.89-.057 2.418M402.28 347.41l-.364.28M327.93 340.286l.56.215M262.922 233.455l-.515 4.509M262.407 237.964l1.038.07.42-.107.37-.292.31-.45-.021-1.143-.346-1.112-.595-.896-.66-.579M466.34 305.414l-.163 1.407-.42 1.024-.698.724-7.983 4.733M205.972 503.386l-1.452 1.351-3.835 2.31-3.847 2.226-7.064 4.445-4.052 2.582-3.042 1.733-1.714 1.164-1.297 1.183-1.14 1.73-1.383 3.44-1.592 3.818-2.144 5.273-1.623 3.97-1.545 2.977-2.576 4.398-4.175 7.317-2.596 4.55-3.614 5.772-2.865 5.36-2.583 4.319-3.03 4.55-1.423 2.166M237.859 399.595l-1.243 3.19-4.008 10.931-1.908 5.44-2.368 7.046-1.337 4.155-1.688 4.637-1.178 3.485-.724 2.214-.411 1.276-.536 1.786-1.94 4.944-1.014 2.066-1.412 2.555-1.208 2.078-2.057 3.021-1.35 1.766-.866 1.304-.833 1.325-.614 2.328-.395 2.127-.263 1.928-.22 2.448-.544 3.939-.472 2.162-1.121 3.802-.592 1.681-.674 2.622-.088 1.87.107 1.032.184 1.277.35 1.365 1.443 4.987-.115 1.703-.257 1.14-.796 1.696-.821 1.226-.918 1.24M246.936 308.833l-.09-3.22.179-3.01 1.44-3.945.647-1.324.585-1.087.16-.251.36-.16.352-.055M251.236 293.409l-.664 1.148M251.236 293.409l.103 1.13M250.24 294.928l-.047.24.045.24.13.213.2.16" clip-path="url(#p8577d5215a)" style="fill:none;stroke:#000"/><path d="m250.572 294.557-.202.16-.13.211M251.339 294.538l-.253-.075-.266.006-.248.088" clip-path="url(#p8577d5215a)" style="fill:none;stroke:#000"/></g><g id="PatchCollection_1"><path d="m262.494 310.54 2.206.453 1.567 1.594.987 1.302 1.422 1.568-.813 2.79-.61 3.19-2.089 1.62-9.056-7.334 3.077-1.967-.929-1.142 1.074-1.302 1.422-.612 1.016-.292zM257.85 319.045l.841.69.784.452 1.103.346.987.531.784.877-.436 1.01-.725.957-2.206.664-1.684-.478-.783.505-1.336-.798-.725-1.196.667-.93-.261-1.328.523-.797 1.45-.612zM284.744 255.626l1.133 1.71 6.768 4.395 3.3 1.801 2.401-5.068-3.167-.885-4.934-1.557-2.201-.854-.767-.641zM169.88 219.848l-.933-.794-.4-.397-.3-.794-.267-.854-.5-1.13-.634-1.007-.5-.764-.267-.824-.033-.672.566-.305 1 .122.568.458 1.4.703.867.244.933.03.667-.153.467.245.467.702.233.336.367.977-.167.855-.333.916-.067.61-.533.641-.067.672-.667.397-1.1.122zM172.08 224.397l-.833-.428-1.567-.518.033-.428.3-.519 2.067.885.267.275v.397zM174.515 225.893l-.768-.366-.7-.214-.566-.244.166-.489.4-.213 1.867.793-.033.428z" clip-path="url(#p8577d5215a)" style="fill:#00f;fill-opacity:.8"/></g><g id="PatchCollection_2"><path d="m385.199 371.601-.594.49-.048.299.039.167 3.044 2.936.163.009.278-.14 2.748-2.42.048-.166-.01-.15-.125-.148-1.705-1.569-.814.719-1.52 1.428zM406.862 361.459l-1.84-1.74-1.284 1.136-.1.359-.004.343.065.27.181.268.42.381.362.159.46.051.27-.038.238-.099zM404.26 392.05l.298-.255 1.541.246-.861.903z" clip-path="url(#p8577d5215a)" style="fill:green;fill-opacity:.8"/></g><g id="PatchCollection_3"><path d="m435.478 184.22 3.075 2.36 3.43-3.749-3.074-2.36zM403.916 374.358l-1.756-.888.754-1.248 1.755.887zM406.213 374.317l-1.589-.874 1.308-1.992 1.588.873zM409.128 377.739l-2.682-1.407 2.404-3.84 2.68 1.406zM255.795 295.028l.743-1.683-2.523-.934-.743 1.683zM399.779 360.216l-.582-.602 1.005-.815.583.602zM404.646 361.61l-.57-.549 1.062-.924.57.55zM406.385 378.603l-1.673-1.15.667-.814 1.673 1.15zM378.787 366.756l-.893-.803 1.187-1.106.893.802zM377.195 365.358l1.2-1.093.586.54-1.2 1.093zM436.353 186.752l.684-.738 1.227.953-.685.739zM426.081 180.65l-1.193-.947.784-.828 1.193.947zM296.932 307.764l2.64.121-.108 1.967-2.64-.12z" clip-path="url(#p8577d5215a)" style="fill:#90ee90;fill-opacity:.8"/></g><g id="PathCollection_1"><defs><path id="m68b4b7b8ed" d="M0 3a3 3 0 1 0 0-6 3 3 0 0 0 0 6z" style="stroke:#006400;stroke-opacity:.8"/></defs><g clip-path="url(#p8577d5215a)"><use xlink:href="#m68b4b7b8ed" x="407.601" y="373.865" style="fill:#006400;fill-opacity:.8;stroke:#006400;stroke-opacity:.8"/></g></g><path id="PatchCollection_4" d="m435.605 175.973 6.444-6.22 10.13-11.801 33.125 10.575-2.478 5.522-29.37 8.33-3.635.855-2.255 2.258-1.83-1.412z" clip-path="url(#p8577d5215a)" style="fill:#d3d3d3;fill-opacity:.8"/><g id="PatchCollection_5"><path d="m263.762 235.969 1.248.12.03-.227.391.067-.043.584.565.106-.087.652-2.234-.146zM282.68 197.081l-.142-.65 6.438-1.186.143.65zM155.178 202.2l6.544-4.152-.511-.675-6.544 4.151zM154.924 199.87l-.447-.612 5.545-3.402.447.61zM114.842 460.281l-.203-.642 7.003-1.857.203.642zM118.833 461.184l-.207-.7 6.629-1.64.206.7zM118.282 463.096l-.15-.48 3.78-.984.15.481zM109.316 464.394l-.06-.48 3.745-.382.058.48zM107.952 465.762l-.061-.581 7.217-.636.062.58zM131.578 469.523l-.4-.517 3.58-2.318.4.517zM142.106 464.582l-.281-.651 2.992-1.083.282.65zM150.227 460.048l.284-.587-.665-.27-.284.587zM153.96 460.744l-.583-.248.261-.516.584.248zM146.28 458.191l-.437-.083.096-.42.437.083zM145.818 460.71l-.091-.63.58-.07.092.63zM145.306 461.591l-.062-.556.662-.062.062.556zM143.15 461.544l-.197-.529.495-.154.196.53zM216.438 461.838l.008-.743 8.012.07-.007.743zM215.592 464.238l-.038-.677 6.442-.299.038.677zM214.474 467.82l-.043-.45.776-.063.043.45zM191.356 521.468l-.147-.646 6.301-1.204.148.646zM202.884 514.729l-.286-.686 6.158-2.153.287.686zM194.344 489.648l.256-.56 5.003 1.92-.256.56zM199.598 490.588l.269-.611-4.897-1.801-.268.61zM191.954 491.123l.217-.599 6.436 1.955-.217.598zM630.811 348.856l-.262-.58.718-.272.263.58zM634.083 347.635l-.086-.527.239-.032-.05-.313.272-.036.03.18.35-.047.107.658zM631.493 348.232l-.16-.35.376-.144.16.35zM636.361 347.203l-.104-.485.3-.054.038.178.119-.021.066.306zM383.428 383.035l-.913-.877.655-.571.912.877zM403.916 374.358l-1.756-.888.754-1.248 1.755.887zM405.354 370.949l-.754-.38-.45.748.755.38zM420.271 350.944l-.687-.896.53-.34.686.895zM414.497 351.945l-.414-.39 1.967-1.747.414.4zM414.44 350.976l-.345-.332.991-.861.344.33zM415.535 349.954l-.283-.26.168-.153.283.259zM415.513 351.052l.194-.172.252.237-.194.172z" clip-path="url(#p8577d5215a)" style="fill:#a9a9a9;fill-opacity:.8"/><path d="m416.27 350.374.194-.165.215.213-.194.165zM413.568 353.051l.255-.284-.34-.255-.254.284zM412.602 352.296l-.47-.259.22-.335.47.26zM412.374 354.068l-.4-.392.35-.3.4.392zM410.866 353.631l.132-.263.073.032.308-.616-.664-.279-.295.592.299.125-.144.287zM117.66 546.73l-4.35-4.427.635-.523 4.349 4.427zM119.429 545.255l-4.35-4.427.635-.522 4.35 4.426zM122.949 529.953l-5.774-.287.04-.675 5.774.288zM122.814 530.823l-5.615-.263.037-.66 5.615.263zM112.682 515.257l-5.504-.587.09-.71 5.505.589zM107.444 515.535l4.915.774-.099.522-4.914-.773zM234.416 287.18l-.101.166-.157.128-.193.072-.197.009-.19-.048-.163-.1-.12-.142-.065-.17-.004-.18.058-.17.115-.147.159-.105.187-.055.209.005.195.069.159.124.104.166.037.188zM234.807 285.395l-.1.168-.157.127-.194.072-.196.009-.19-.048-.163-.1-.12-.142-.066-.169-.004-.18.059-.172.114-.146.159-.105.187-.055.21.005.194.069.16.124.103.166.038.188zM235.598 287.06l.195-2.404.926.062-.185 2.397z" clip-path="url(#p8577d5215a)" style="fill:#a9a9a9;fill-opacity:.8"/><path d="m235.488 287.868.257-.8.79.047-.257.8zM232.468 287.404l-.059.102-.093.076-.116.044-.126.004-.12-.035-.099-.07-.068-.097-.026-.099.007-.102.042-.095.07-.079.093-.056.108-.027.11.004.106.034.098.072.065.098.026.112zM232.781 286.505l-.06.101-.092.077-.117.043-.125.005-.12-.035-.1-.07-.067-.097-.026-.1.008-.1.04-.096.07-.08.094-.055.107-.027.111.003.105.035.099.071.065.098.026.113zM231.77 286.481l-.694-.21.718-1.988.694.21zM233.945 290.005l.084-.459-.544-.083-.084.458zM256.977 292.623l.374-.884 1.545.548-.374.883zM259.483 292.974l.19-.444-.585-.209-.19.444zM262.332 295.323l.161-.516.96.25-.161.517zM262.682 294.605l.162-.545.658.163-.161.546zM263.124 291.607l.067.125.11.097.139.056.151.012.137-.033.12-.07.088-.1.05-.122.006-.13-.039-.124-.08-.107-.112-.079-.134-.042-.14-.002-.145.043-.12.085-.083.118-.033.135zM263.553 290.7l.067.124.11.097.139.057.151.01.137-.031.12-.07.088-.101.05-.121.006-.13-.039-.124-.08-.107-.112-.08-.134-.042-.14-.002-.145.043-.12.086-.083.117-.033.135zM262.16 291.218l.067.125.11.096.138.057.152.011.137-.032.119-.07.089-.1.05-.122.006-.13-.039-.124-.08-.107-.112-.079-.133-.043-.142-.002-.144.044-.12.085-.082.117-.034.136zM262.508 290.288l.068.125.109.096.138.057.152.011.137-.032.12-.07.088-.1.05-.122.006-.13-.039-.124-.08-.107-.112-.079-.133-.043-.142-.002-.144.044-.12.084-.082.118-.034.136zM257.899 289.58l.643-1.44.774.29-.643 1.44zM259.885 289.03l2.275.851-.552 1.237-.444-.165-.182.407-.652-.243.164-.368-.284-.106.253-.567-.895-.334zM261.47 288.974l.091-.017.093.01.083.037.067.06.041.076.013.084-.019.084-.047.074-.07.056-.088.031-.093.004-.09-.023-.076-.05-.055-.069-.027-.082.004-.086.033-.08.06-.065zM273.031 287.646l.203-8.766-2.818-.054-.201 8.765zM269.337 286.922l.37-9.114-2.465-.084-.373 9.113zM266.234 284.936l.1-7.236-2.316-.082-.098 7.289zM260.192 284.747l.217-5.945 3.043.094-.218 5.944zM262.96 275.795l.406-.505 5.485.107 1.597 1.063-.639.69-1.306-.026-.87-.664-.9.717-2.496-.132zM273.26 278l.043-.658 1.404.08-.044.657zM267.862 270.218l.09-1.942 1.49.057-.09 1.942zM261.8 270.692l-.729-.136.457-2.04.73.137zM266.605 271.383l-.153.121-.188.069-.202.01-.195-.05-.167-.106-.122-.151-.062-.18.006-.19.074-.176.132-.144.177-.097.202-.038.205.024.184.084.142.132.088.168.024.184-.041.18zM264.944 271.6l-.153.12-.188.07-.202.009-.195-.05-.167-.105-.122-.152-.062-.18.007-.188.073-.177.132-.145.177-.096.202-.038.205.024.184.084.142.132.087.167.025.184-.041.181zM264.894 270.385l-.154.12-.187.07-.203.01-.194-.05-.167-.105-.123-.153-.061-.18.006-.188.073-.176.133-.145.177-.097.202-.038.204.024.184.084.143.133.087.166.025.184-.042.182zM264.755 269.182l-.154.121-.187.069-.203.01-.195-.05-.166-.106-.122-.151-.062-.18.006-.19.073-.176.133-.144.177-.097.202-.038.204.024.185.084.141.132.088.168.024.183-.04.182zM266.55 270.165l-.154.121-.188.069-.203.01-.194-.05-.167-.106-.123-.151-.062-.18.007-.19.074-.175.132-.145.177-.097.202-.038.204.024.184.084.142.132.088.168.025.184-.042.18zM266.347 268.997l-.154.121-.188.069-.201.01-.195-.05-.167-.106-.123-.151-.061-.18.006-.19.073-.176.133-.144.177-.097.201-.038.205.024.185.084.141.132.088.167.025.184-.042.182zM267.971 272.98l.008-.375 1.235.021-.008.376zM268.42 273.852l.019-.584.817.02.005-.181.43.01-.023.767zM260.352 273.465l-.435-.017.044-.908.435.018zM261.478 273.246l-.055-.376.625-.077.055.376zM264.171 266.037l.063.075.035.09.001.095-.03.09-.061.078-.084.055-.099.03-.111-.003-.104-.036-.084-.066-.056-.089-.019-.1.018-.1.055-.09.083-.067.104-.037.104-.004.1.026zM265.425 266.504l.063.075.034.09.002.095-.031.09-.06.078-.084.055-.099.03-.11-.003-.105-.036-.085-.066-.055-.089-.02-.1.02-.1.053-.09.084-.066.104-.038.103-.004.1.026zM266.183 266.55l.063.076.034.09.002.094-.031.09-.06.078-.084.056-.099.028-.11-.001-.105-.037-.085-.066-.055-.088-.02-.1.02-.101.053-.09.084-.066.104-.038.103-.003.1.026zM266.776 266.25l.064.075.034.09.001.094-.03.09-.06.078-.084.056-.099.03-.111-.003-.104-.036-.085-.067-.055-.088-.02-.1.019-.101.054-.089.084-.067.103-.037.104-.004.1.026zM264.4 264.168l1.835.096-.128 2.033-1.834-.096zM416.778 345.073l-.212-.295.359-.217.212.295zM417.237 344.809l-.213-.295.359-.217.212.295zM417.716 344.556l-.213-.295.359-.217.212.295zM418.136 344.264l-.212-.295.359-.217.212.295zM418.586 344.012l-.213-.296.36-.216.212.295zM419.022 343.759l-.213-.295.359-.217.212.295zM419.486 343.467l-.213-.296.359-.216.213.295zM419.921 343.188l-.212-.295.359-.217.212.295zM420.415 342.975l-.213-.295.359-.217.213.295zM420.821 342.696l-.212-.295.358-.217.213.295zM421.271 342.378l-.213-.296.36-.217.212.296zM421.736 342.178l-.213-.296.359-.216.212.295zM422.17 341.912l-.212-.295.36-.217.212.296zM422.577 341.66l-.213-.295.36-.217.212.295zM423.042 341.354l-.213-.295.359-.217.213.295zM417.556 345.646l-.213-.295.359-.217.213.295zM418.412 345.553l-.213-.295.36-.217.212.295zM418.862 345.287l-.213-.295.36-.217.212.295zM419.298 345.021l-.214-.295.36-.217.212.296zM419.733 344.756l-.213-.296.359-.216.213.295zM420.168 344.476l-.212-.295.358-.216.213.295zM420.662 344.237l-.213-.295.359-.217.212.296zM421.068 343.959l-.213-.296.36-.217.212.296zM421.518 343.732l-.213-.295.36-.216.212.295zM421.953 343.427l-.212-.295.358-.217.213.295zM422.432 343.161l-.213-.295.36-.217.212.296zM422.853 342.922l-.213-.295.359-.217.213.295zM423.361 342.63l-.213-.296.36-.216.212.295zM423.81 342.39l-.212-.295.359-.216.213.295zM387.086 372.416l-1.185-1.14.664-.579 1.184 1.142zM387.89 370.892l.488-.413-.589-.583-.207.176-.153-.152-.29.244.396.392.248-.21.163.161-.239.203zM387.275 370.342l.007.04-.008.038-.02.034-.033.027-.04.016-.042.003-.043-.01-.037-.023-.027-.032-.014-.038.001-.041.016-.038.029-.031.038-.02.042-.009.043.005.038.017.03.027z" clip-path="url(#p8577d5215a)" style="fill:#a9a9a9;fill-opacity:.8"/><path d="m386.565 370.697.17-.145.074.07.122-.106.29.28.076-.065.863.83-.284.247-.516-.497-.084.072-.196-.19.114-.098-.122-.116-.113.098zM386.846 372.191l-.249.22.236.227.253-.222z" clip-path="url(#p8577d5215a)" style="fill:#a9a9a9;fill-opacity:.8"/><path d="m386.597 372.411-.164.143.236.227.164-.143zM400.357 361.643l1.416-1.178-.336-.338-1.416 1.179z" clip-path="url(#p8577d5215a)" style="fill:#a9a9a9;fill-opacity:.8"/><path d="m399.936 362.104.34-.299-1.03-.981.539-.474-.318-.303-.813.714.3.285-.067.058zM398.404 360.853l-.295-.3.696-.572.295.3zM400.916 360.363l-.428-.455.42-.333.429.455zM399.779 360.216l-.582-.602 1.005-.815.583.602zM400.2 362.567l-.274-.266 1.943-1.676.275.267zM422.945 345.1l-.424-.636.492-.275.425.636zM406.855 359.497l.256-.234.572.523-.256.235z" clip-path="url(#p8577d5215a)" style="fill:#a9a9a9;fill-opacity:.8"/><path d="m406.316 359.746.46-.439.82.722-.46.438zM407.42 358.323l.38-.357.656.583.201-.19.102.09-.2.19.126.112.172-.162.181.162-.152.143.22.195-.547.515-.075-.067-.146.137-.579-.515.292-.275zM408.764 371.882l.127-.356 1.193.356-.126.355zM405.977 375.142l-.68-.384.198-.294.68.384zM410.291 370.549l.46.426.495-.446-.46-.427z" clip-path="url(#p8577d5215a)" style="fill:#a9a9a9;fill-opacity:.8"/><path d="m409.193 370.53-1.276.866-3.52-1.248-1.21.12-1.077.565-.66 1.168-.242 1.127.088.484.792 1.208 1.87 2.195 1.98 1.671.813.302 1.386-.564 1.518-.2 1.121-.565 1.012-1.329.968-2.598zM420.052 387.345l.698-.35.989 1.657.813-.407.264.441-1.648.824-.311-.52.136-.068zM413.761 388.542l-.201-.776.622-.135.202.775zM414.39 388.08l.541-.127.185.658-.542.128zM415.18 385.394l1.26-.316.245.822-1.259.315zM425.918 385.732l-.17-.657.658-.143.17.658zM426.38 387.318l-.277-.729.936-.296.276.729zM379.538 377.992l.71-.618-1.439-1.384-.432.375.332.319-.088.146.65.625-.153.133zM377.709 376.613l-.368-.382.685-.554.368.382zM383.383 381.573l.68-.6.797.76-.68.598zM386.748 381.234l-.507-.472 1.335-1.202.507.472zM374.91 369.627l.167-1.43-1.616-.159-.167 1.43zM372.108 369.153l.174-1.27 1.077.124-.173 1.269zM365.758 367.483l.192-.403 1.695.181-.053.418zM371.978 375.104l.495-.553-1.868-1.4-.49.547.775.58-.574.642-.688-.515-.488.546.19.143-.124.138.102.076.31-.345.365.273-.344.385.285.214.368-.411.844.633.452-.506-.37-.277.397-.443zM387.42 367.31l.224-.192-.196-.19.376-.325.167.16.29-.25.205.198-.068.06.044.042.087-.031.174.174-.173.16.102.1-.299.258-.102-.099-.413.358-.176-.171.132-.114-.129-.124-.122.105zM388.93 368.311l.29-.261.527.49-.284.254-.108-.1-.147.126-.165-.156.134-.124z" clip-path="url(#p8577d5215a)" style="fill:#a9a9a9;fill-opacity:.8"/><path d="m388.964 368.588-.346.304-.033.09.039.071.638.61.432-.378zM389.783 368.21l.147-.135.285.262-.146.134zM386.688 366.753l-.714-.74 1.055-.852.713.74zM385.014 368.633l-1.002-.98.617-.528 1.001.981zM380.443 368.409l-.66-.623.456-.404-.538-.508.253-.223.181.171.356-.315-.534-.498.198-.17.13.104.466-.424-.613-.616-.1.13-.284-.247.268-.236.273.313.09-.11 1.082 1.163.47-.366-.247-.266.568-.481-.12-.13.22-.234.162.128.264-.283.343.269-.101.108.188.147-.128.138.019.28.247.236-.133.116-.191-.182-.744.654.4.382-.348.306-.143-.137-.142.125.48.456-.22.193-.366-.347-.105.092-.4-.379-.358.317.203.192-.384.34-.162-.153-.148.13.175.166-.158.14.212.201z" clip-path="url(#p8577d5215a)" style="fill:#a9a9a9;fill-opacity:.8"/><path d="m378.787 366.756-.893-.803 1.187-1.106.893.802zM381.06 363.105l.47-.439.837.752-.471.439zM376.757 365.924l.084-.598-2.387-.281-.084.598zM384.612 365.036l-.595-.567.806-.709.595.568zM377.174 374.341l-.142-.495.52-.125.143.496zM376.92 374.733l-.203-.722-.267.063.203.721zM416.134 349.688l.18-.167.47.422-.18.168zM369.574 336.527l.223-.32-.72-.422-.223.319zM369.123 337.674l-.211-.302.679-.399.21.302zM368.494 338.138l-.484.009-.062-2.783.484-.01zM369.038 337.148l-.442-.185-.02-.428.354-.214.467.185-.019.434zM370.347 336.998l-.134-.003.014-.458.133.003zM406.523 391.292l-.754-.686.33-.304.754.686zM406.269 391.278l-.867-.864-.508.426.474.472.633.191zM392.781 328.995l.052-1.61 1.042.029-.052 1.609zM394.005 328.14l.025-.645.38.012-.026.645zM427.334 196.26l-.596-.443.68-.775.602.443zM428.245 198.066l.271-.298-2.086-1.593-.199.22.53.404-.1.106zM426.738 195.817l-.274.308.596.444.274-.308zM425.43 195.75l-.335-.251.63-.704.334.25zM426.155 195.957l-.32-.255.535-.566.321.254zM430.032 193.767l-.34-.254.31-.348.34.254zM437.195 187.938l-.318-.246-.348.376-1.865-1.446 1.032-1.086 1.01.754.382-.413-1.34-.99-.385.404-.067-.052-1.25 1.391 2.539 1.968z" clip-path="url(#p8577d5215a)" style="fill:#a9a9a9;fill-opacity:.8"/><path d="m436.524 187.825-.959-.728.342-.378.959.73zM436.353 186.752l.684-.738 1.227.953-.685.739zM434.338 185.859l.776-.803-.457-.37-.798.825-.051-.041-.64.662.252.204-.104.109.402.326.766-.794zM428.461 178.292l.64-.677-1.295-1.025-.629.684zM427.376 179.19l-1.14-.89.593-.647 1.142.91zM427.022 177.138l.619-.674-.863-.664-.619.674zM426.081 180.65l-1.193-.947.784-.828 1.193.947zM424.303 179.093l-.286-.229.287-.3.285.23z" clip-path="url(#p8577d5215a)" style="fill:#a9a9a9;fill-opacity:.8"/><path d="m426.236 178.3-.149-.115.935-1.047.619-.674.165.126zM416.624 191.458l-.329-.24.388-.448.337.257z" clip-path="url(#p8577d5215a)" style="fill:#a9a9a9;fill-opacity:.8"/><path d="m416.624 191.458-.18.207-.319-.255.17-.192zM416.796 190.858l.06-.065.113.086-.06.066zM416.19 190.995l.435-.45-.441-.358-.685.708.236.19.249-.257zM417.823 188.946l.131-.138-.52-.415-.191-.018-.13.145.01.157.403.322.157-.165zM416.48 188.803l.647-.631-.317-.273-.647.63zM417.453 187.285l-.69-.567.289-.296.691.568zM417.962 186.566l-.594-.457.361-.394.595.457zM418.737 186.275l-.463-.38.24-.246.463.38zM418.35 185.712l.363-.396-.285-.22-.363.396zM418.412 189.58l-.528-.414.238-.254.527.414zM418.172 188.807l-.521-.415.47-.496.522.416zM418.77 189.162l-.27-.22.238-.244.27.22zM418.687 188.22l-.439-.357.828-.833.182-.206.162-.165.44.359z" clip-path="url(#p8577d5215a)" style="fill:#a9a9a9;fill-opacity:.8"/><path d="m418.245 186.414.182-.207.831.617-.182.206zM420.496 187.176l-.388-.297.313-.343.388.297zM426.776 191.548l-.474-.335.355-.396.461.325zM426.36 191.148l-.594-.447.457-.509.594.446zM425.75 191.687l.436-.487-.482-.362-.528.589.257.193.091-.102zM418.25 202.629l-.104.12-.234-.167.104-.121zM385.354 290.009l.144-1.169 2.627-.531 1.046.108-.033.27 1.654.171-.155 1.255-1.793-.186-.01.241-.967-.07-.03.442-1.63-.152-.045-.296zM381.733 290.295l-.328-.524.821-.43.327.524zM388.184 288.222l.048-.39.717.075-.048.39zM397.926 297.78l-.085-.5.522-.075.085.499zM397.774 296.104l-.123-.355.34-.098.123.354zM393.92 295.035l.349-.197.152.226.076-.07.132.196-.55.311-.137-.2.113-.064zM392.45 295.769l.664-.257.39.847-.664.256zM392.982 292.692l.186-.36-1.075-.464-.185.36zM381.538 290.499l1.488-.249.215 1.08-1.488.25zM385.6 290.352l2.314.328-.046.269 2.28.324-.091.532-4.593-.654zM390.086 291.898l-4.51-.568-.24 1.595 4.51.567zM394.37 297.525l-.193-.662.74-.182.193.662zM396.241 288.654l-.129-.78.652-.09.129.78zM397.999 290.307l-.16-.949.366-.051.158.948zM397.35 290.361l-.233-1.3.514-.076.232 1.3zM396.982 293.448l-.135-.634.7-.125.135.635zM302.935 314.522l-.011.127-.056.115-.096.091-.124.057-.136.015-.135-.028-.108-.061-.083-.09-.048-.108-.008-.116.031-.113.068-.099.099-.074.119-.042.127-.007.133.034.112.074.08.103zM301.96 314.496l-.01.126-.057.115-.095.092-.123.056-.138.015-.135-.027-.108-.062-.082-.089-.048-.108-.009-.116.031-.114.07-.099.098-.074.118-.042.127-.006.133.034.113.073.079.104zM301.76 313.328l-.01.126-.057.116-.095.091-.124.056-.137.016-.134-.028-.109-.062-.082-.088-.048-.109-.009-.116.032-.114.068-.098.098-.074.119-.042.128-.007.132.034.113.074.079.103zM303.21 313.458l-.01.126-.056.116-.096.09-.123.057-.137.015-.135-.027-.108-.062-.083-.09-.048-.107-.008-.117.03-.113.07-.098.098-.074.119-.043.127-.006.133.034.112.073.08.104z" clip-path="url(#p8577d5215a)" style="fill:#a9a9a9;fill-opacity:.8"/><path d="m300.739 311.877.018-.475 1.919.062-.063 1.635-.287-.009-.017.452-.514-.017.028-.746-.624-.02.034-.866zM303.188 309.724l2.273.046-.013.544-2.273-.046zM298.535 315.505l.125-.476-.977-.215-.125.476zM300.016 309.502l.043-.41.531.048-.043.41zM300.032 310.376l-.004-.39.63-.008.005.391zM316.403 317.282l.103-1.728-2.508-.125.281-4.727 3.931.196-.056.94-.732-.037-.327 5.515zM311.133 314.703l-.487-.024.105-1.813.486.023zM312.67 312.297l-.531-.035.041-.53.532.035zM308.678 310.41l.026-.573-2.022-.076-.026.573zM303.68 320.799l-1.049-.151.316-1.84 1.048.152zM307.694 324.546l-.478-.394.39-.396.478.395zM313.742 319.334l.057-.911.726.038-.015.247-.101-.006-.041.664zM313.468 320.199l.856-.012.011.657-.857.012zM289.327 308.729l-.766-.604-.37.394-.41-.323 1.373-1.462 1.177.927zM304.186 332.749l1.11-1.1-2.92-2.522-.87.874.756.64-.262.26z" clip-path="url(#p8577d5215a)" style="fill:#a9a9a9;fill-opacity:.8"/><path d="m298.45 333.074-.96-.8 2.893-2.86.86-.922.175-.164.958.8z" clip-path="url(#p8577d5215a)" style="fill:#a9a9a9;fill-opacity:.8"/><path d="m299.34 328.596.861-.921 1.043.817-.861.921zM297.982 328.012l-1.2-1.017.501-.459.66-.62.036-.104 1.2 1.018z" clip-path="url(#p8577d5215a)" style="fill:#a9a9a9;fill-opacity:.8"/><path d="m297.283 326.536-.379-.338.66-.62.379.338zM299.95 325.99l-1.123-.903.69-.72 1.122.903zM301.277 324.518l.405-.401-1.283-1.086-.539.534.3.254.134-.134zM301.467 327.064l-.428-.355.181-.182.427.355zM297.938 335.06l-1.209-.987.56-.575 1.21.988zM294.534 330.396l-.427-.37.329-.32.427.371zM273.046 327.416l.214-.305-.871-.512-.214.305zM273.314 326.943l-.888-.536.19-.264.887.536zM273.51 326.412l-.759-.403.16-.251.759.403zM271.77 326.509l-.425-.243 1.508-2.213.426.244zM269.75 328.749l-.541-.292.512-.798.542.292zM271.115 325.853l-.18-.127.181-.218.181.127zM270.905 326.571l-.359-.205.254-.371.359.205zM270.312 327.866l-.28-.173.245-.332.28.173zM271.07 330.618l.334-.595-.598-.282-.335.595zM458.026 330.125l3.183-1.611-.313-.518-3.182 1.61zM461.662 332.98l3.097-2.456-.494-.521-3.096 2.457z" clip-path="url(#p8577d5215a)" style="fill:#a9a9a9;fill-opacity:.8"/></g></g></g><defs><clipPath id="p8577d5215a"><path d="M90 126.611h558V600.59H90z"/></clipPath></defs></svg>