<svg xmlns="http://www.w3.org/2000/svg" width="960" height="960" viewBox="0 0 720 720"><defs><style>*{stroke-linejoin:round;stroke-linecap:butt}</style></defs><g id="figure_1"><path id="patch_1" d="M0 720h720V0H0z" style="fill:#fff"/><g id="axes_1"><path id="patch_2" d="M90 584.206h558V142.994H90z" style="fill:#fff"/><g id="LineCollection_1"><path d="m154.42 312.411-47.087-22.94-6.602-2.213M270.948 369.41l-4.966 3.413M270.948 369.41l-.766-.396M293.38 374.233l-1.612-.149-5.841-.54-6.075-.93-4.68-1.32-2.218-.99-2.006-.894M293.38 374.233l9.5.144M265.982 372.823l6.975 1.077 15.453 1.94 1.428-.914 1.924-.137 1.617-.556M331.257 375.037l3.286.082M327.444 379.841l.777-.812.578-.74 1.07-1.298.627-.843.76-1.11M330.231 375.03l.39.002.636.005M368.84 376.267l1.278-.032M361.027 373.546l.953.158.733.175 6.128 2.388M339.5 375.295l7.163.41 8.596.49 9.48.247 4.102-.175M376.645 377.485l3.328 2.412M371.697 374.181l1.164.454.903.485 1.22.765.497.406.44.422.724.772M370.118 376.235l1.734-.016 1.208.04.688.072.789.175.66.222.715.343.733.414M396.893 387.563l-.865.724-.813.31-.855.16-.643-.048-.52-.143-.684-.326-.7-.415-.724-.692-1.017-1.664" clip-path="url(#p518d4a1f00)" style="fill:none;stroke:#000"/><path d="m396.893 387.563-4.079-1.234-1.288-.403-1.454-.457M382.422 381.457l1.522.884 2.05 1.234 1.685.923 2.393.971M580.062 514.471l.999.708M471.57 410.473l.602.358.717.501 1.05.884 1.423 1.513 24.788 28.855 14.118 16.2 14.608 16.93 7.454 8.613 1.849 2.022.739.764 1 .951.717.593.98.776 2.01 1.364 1.131.756 1.221.798 2.05 1.333 4.993 3.24 2.393 1.556 3.86 2.503 5.38 3.455 1.692 1.1 6.486 4.229 5.807 3.773 1.424.931M580.684 511.607l-.073.237-.118.53-.073.676-.078.43-.105.454-.175.537M350.616 314.433l2.153.895.37.156.973.314.988.247.907.127 1.754.187M350.448 337.318l.31-1.005 3.24-9.362 1.684-4.8 2.08-5.792" clip-path="url(#p518d4a1f00)" style="fill:none;stroke:#000"/><path d="m372.055 284.576-4.586 9.99-3.804 8.367-2.946 6.489-2.958 6.937M337.836 375.2l.114-2.563M337.836 375.2l1.663.095M334.543 375.119l2.716.067.577.015M330.884 372.322l7.066.315M327.998 311.539l5.993-.274M327.998 311.539l-3.88.602M327.908 314.198l.106-1.871-.016-.788M356.843 342.666l-2.787 1.65M360.093 345.739l-.46-1.314-.313-.601-.293-.363-.383-.302-.326-.227-.431-.135-.492-.084-.552-.047" clip-path="url(#p518d4a1f00)" style="fill:none;stroke:#000"/><path d="m364.747 337.197-.423.19-.384.13-.188.07-.158.095-.181.123-.305.243-.391.176-.464.194-.728.303-.411.175-.704.394-.358.327-.374.533-1.738 1.66-.565.477-.155.12-.377.26M325.491 324.57l-.35-.517M325.491 324.57l-2.028 1.085M331.819 332.651l-2.194-3.073-.11-.187-.138-.25-.33-.522-.211-.318-.301-.347-.493-.502-.817-.875-.391-.406-1.343-1.6M337.024 340.298l.341.456M337.024 340.298l-1.214-.252M335.083 337.249l.911 1.43 1.03 1.62M352.272 353.528l-5.017.334M352.272 353.528l-.657-2.666M353.84 360.118l-.01-6.109-.063-.155-.108-.147-.19-.094-.297-.05-.9-.035M270.182 369.014l-.785-6.246 7.509-2.335M328.103 368.824l10.001.281M328.103 368.824l.187-5.398M323.701 370.01l1.213-.183 1.18-.255 1.358-.501.651-.247M333.845 364.152l-1.795 1.432-1.904 1.393-1.09.876-.228.21-.725.76M325.141 324.053l4.598-2.412.472-.51.293-.509.31-.732.634-1.465.635-.94.618-.811.22-.219.419-.303.565-.322 1.303-.812 1.285-.812.635-.414.244-.239.228-.51.156-1.477M340.729 311.646l-1.355-.139-1.618.06M333.991 311.265l.293.147.305.167.37.108.124.002.568.001 2.105-.124M329.333 353.945l1.31-11.888M329.333 353.945l7.29.63M329.333 353.945l-2.966-.494M335.083 337.249l-1.993-2.729M335.083 337.249l3.202-2.365M320.454 370.28l3.247-.27M325.072 363.096l-.964-.068-.969.045-.21.036-.404.15-.121.061-.095.051-.158.103-.119.108-.284.533-.342 1.23-.952 4.936M302.88 374.377l3.425-1.779 2.06-.215 6.543-1.242.39-.072.284-.047 4.872-.741M328.939 355.563l-.385 3.777M328.939 355.563l4.307.288M328.939 355.563l-1.552-.188M347.935 373.083l6.05.418M347.935 373.083l.04-2.333M347.935 373.083l-4.271-.242M350.616 314.433l-2.268-.724M350.616 314.433l.061-3.252M354.413 370.94l-.428 2.561M354.413 370.94l1.861.105M354.413 370.94l-1.998-.125M318.72 335.32l-.439-3.967-.13-.58-.086-.209-.038-.072-.047-.054-.325-.208M323.453 320.209l.268.879.395 1.047 1.025 1.918M340.839 309.756l-1.294-.08-.399.024-.455.06-.465.096-.492.13-3.743 1.279M361.232 353.492l.049 3.694M361.232 353.492l-.077-1.713M364.443 345.117l.207 7.833v.156l-.04.15-.062.09-.11.053-.126.031-.15.022-2.93.04M335.81 340.046l-.16 1.72M318.72 335.32l8.39 2.167.595.163 4.134 1.186 3.97 1.21M328.554 359.34l-.231 1.277M325.62 358.912l1.482.232 1.452.196M326.367 353.451l-.747 5.461M326.367 353.451l-3.335-.479M330.642 342.057l-1.684-.184-.808-.052-.18.01-.126.045-.147.101-.108.205-.09.274-.036.14-1.096 10.855M404.656 389.913l-2.756-.834M379.973 379.897l3.01.907 1.303.478 4.54 1.99 5.404 2.174 5.525 2.324 4.901 2.143M427.9 396.94l-15.694-4.481-7.55-2.546M343.664 372.84l.08-3.442M337.95 372.637l3.04.109 2.674.095M353.595 367.799l.147-3.326M352.101 367.805l.851-.012.643.006M357.244 369.222l-1.163-.526-1.196-.493-.647-.255-.643-.149M343.325 339.314l.411 1.87.211 1.044.196 1.584.2 1.54.068.513.244 2.026M342.914 348.437l.675-.24 1.066-.306" clip-path="url(#p518d4a1f00)" style="fill:none;stroke:#000"/><path d="m346.153 347.64-.619.052-.48.108-.399.091M358.604 369.7l-1.36-.478M358.604 369.7l3.279 1.178M360.717 364.562l-1.772 4.182-.341.955M338.104 369.105l-.031.724-.123 2.808M340.135 348.325l1.915-1.09M340.135 348.325l-1.184.613M343.069 353.214l-.033-.403-.077-.23-.171-.407-.53-.784-2.123-3.065M358.88 371.19l-2.606-.145M350.448 337.318l-1.176 6.896M343.325 339.314l4.415-1.214.532-.135 2.176-.647M335.558 342.756l.092-.99M335.558 342.756l-4.916-.7M337.796 344.257l-.937-.015-.65-.028-.4-.036-.164-.087-.132-.105-.046-.14-.013-.132.104-.958M364.443 345.117l-.094-2.1M360.093 345.739l1.391-.311.603-.092.61-.063 1.746-.156M342.979 309.97l1.847.455 1.717.262 4.134.494M342.979 309.97l1.253-.732 1.001-.302.944-.223 2.498-.35.477-.064.525-.051.415-.02.276.031.18.104.135.227.027.137.016.173-.049 2.28M347.572 360.407l-9.06-.116M347.572 360.407l6.268-.29M347.572 360.407l-.312-2.385M347.878 367.98l-.244-3.789-.062-3.784M318.973 374.65l-3.8-.079-12.293-.194M335.367 330.469l-3.548 2.182M335.367 330.469l1.099 1.775M348.348 313.71l-.69 2.232-.248.732-.37 1.166-.476 1.58-.175.565-.228.558-.334.688-.464.832-.305.542-.675.947-.59.808-.5.621-.713.768-1.204 1.067-1.09.843-1.001.661-.548.28-.893.35-1.286.652-1.19.867M361.476 364.533l-.155-4.649M361.476 364.533l-.759.03M367.73 366.384l.326-.84.06-.183.057-.31-.04-.235-.114-.124-.112-.113-.206-.046-.337.002-5.888-.002M338.285 334.884l1.143 1.53M338.285 334.884l-1.82-2.64M353.742 364.473l.098-4.355M353.742 364.473l6.975.09M338.95 348.938l-1.154-4.68M338.861 354.623l.14-3.62.015-1.237-.065-.828M323.032 352.972l-3.278-.324-.285.072-.15.135-.102.247-.586 4.163.09.414.26.255.358.15 2.108-.214.423-.167.269-.175.22-.287.673-4.269" clip-path="url(#p518d4a1f00)" style="fill:none;stroke:#000"/><path d="m323.032 352.972-.674 4.27-.22.286-.268.175-.423.167-2.108.215-.358-.151-.26-.255-.09-.414.586-4.163.102-.247.15-.135.285-.072 3.278.324M336.599 356.159l.024-1.584M336.599 356.159l-.187 3.686M336.599 356.159l-3.353-.308M338.512 360.291l.017-.428M338.46 361.318l.013-.273.039-.754M367.73 366.384l1.045.474.342.11.474.11.95.134.717.07.174.038.11.087.074.159-.005.219-.024.247-.191.72-.228.677M325.072 363.096l3.218.33M325.072 363.096l-1.37 6.914M325.62 358.912l-.291 2.143-.257 2.041M360.955 348.7l-.154-.605-.708-2.356M348.436 348.023l-2.283-.382M348.436 348.023l-.609 3.337M348.436 348.023l.836-3.809M331.819 332.651l1.271 1.87M296.225 327.212l11.678 4.885 10.816 3.222M342.05 347.236l.864 1.201M337.619 341.133l3.9 5.371.53.732M361.321 359.884l-.04-2.698M361.321 359.884l-4.168.146M366.472 357.596l-.268.338-.256.386-.301.94-.119.222-.145.2-.253.099-.39.044-3.419.059M320.047 312.773l4.071-.632M321.8 316.873l-.813-1.923-.94-2.177M353.985 373.501l7.041.045M332.98 359.684l.266-3.833M332.98 359.684l-.046 1.76M332.98 359.684l3.432.16M338.37 364.315l-.119 1.492-.045 1.206-.069.995-.033 1.097M343.744 369.398l-.737.027-.532.004-.279-.002-.293-.03-.482-.135-.444-.096-.814-.04-2.059-.02M365.366 372.056l2.364-5.672M365.366 372.056l6.33 2.125M361.883 370.878l2.748.93.735.248M340.456 339.872l1.974-.37.895-.188M342.979 309.97l-2.14-.214M378.544 185.841l-.251.442-.164.37-.117.33-.018.204.012.219.083.247.362.776.35 1.059.594 2.014.513 1.962.06.713-.024.784.005.673-.537 2.603-.505 2.556-1.31 6.393-.334 1.465-.35 1.098-.529 1.122-.708 1.358-1.147 1.787-.53.71-1.163 1.974-1.977 3.24-2.279 3.534-.537.872-.862 1.234-1.074 1.27-2.084 2.73-.35.419-.512.923-.635 1.35-.432 1.058-.325 1.147-.42 1.707-.492 2.456-.28 1.812-.175 1.66-.028.84.056.557.057.549.07.49.17.748.513 1.632 1.026 3.113.122.362.134.347.272.426.521.6.676.788.61.63.96.891.586.86.96 1.13.651.908.96 1.448.297.59.249.621.138.732.277 1.879.293 3.503.146 7.85-.077 6.038.024 1.867.092.533.08.314.182.43.257.382.378.458 1 .948M382.764 261.023l-5.416 12.013-5.293 11.54M338.861 354.623l-.09.883M338.861 354.623l-2.238-.048M113.75 392.166l14.259-1.198 6.522-.373h7.009l1.943.407 8.118-.95 4.545-.68 8.951-3.36h8.084l10.755-.27 6.453-2.343 27.392-7.53 11.916 8.855 15.74 2.707 16.177-14.751 4.368.143M342.564 364.695l.93.091.199.046.114.063.071.15.012.121-.146 4.232M347.878 369.206l-2.018.115-2.116.077M353.84 360.118l3.313-.088M382.422 381.457l-2.45-1.56M394.466 400.952l-2.376-4.004-7.763-11.112-.766-1.322-.333-.645-.216-.49-.175-.557-.415-1.365M350.362 346.762l-1.09-2.548M351.615 350.862l-.097-.316-1.156-3.784M353.762 344.498l-.163.109-3.237 2.155M347.976 370.75l4.439.065M347.976 370.75l-.098-1.544M336.29 360.893l2.17.425M336.412 359.845l-.033.446-.09.602M335.583 362.342l.296-.38.102-.175.203-.446.106-.448M326.936 360.445l1.387.172M333.09 334.52l3.376-2.276M336.412 359.845l2.117.018M347.878 367.98l4.223-.175M347.878 367.98v1.226M334.856 364.958l.083-.706M344.028 314.508l.7-1.75M347.255 353.862l-.451-.362-.578-.566-.537-.644-.91-1.248-.604-.83-1.261-1.775M333.845 364.152l-2.185-.31-3.37-.416M327.908 314.198l-.277 1.02-.463.93-.522.677-.626.74-.944 1.011-.272.287-1.351 1.346M321.8 316.873l.819 1.624.834 1.712M338.46 361.318l-.05 1.341M347.827 351.36l-.917-.1-.257-.108-.142-.148-.102-.183-.04-.23-.216-2.95M351.615 350.862l-1.418.17-1.582.207-.788.121M347.255 353.862l.224-1.174.348-1.328M361.28 357.186l3.896-.127M344.729 312.757l3.62.952M340.729 311.646l1.395.267 2.605.844M332.934 361.443l-4.611-.826M335.583 362.342l-1.443-.286-.552-.096-.242-.04-.214-.082-.123-.129-.037-.083-.038-.183M333.845 364.152l.199-.459.183-.27.35-.303.512-.417.494-.361M333.845 364.152l1.094.1M365.176 357.06l.556-.01.273.068.19.116.277.362M370.785 355.84l-.992.239-1.376.406-.78.343-.668.398-.497.37M347.26 358.022l-.002-2.02-.003-2.14M334.939 364.252l3.43.063M327.908 314.198l-3.328.47M365.176 357.06l.075-3.18M352.415 370.815l-.314-3.01M338.37 364.315l.04-1.656M342.564 364.695l-.354-.01-.33.002-.185-.014-.175-.03-.113-.058-.104-.061-.167-.074-.285-.052-.289-.024-2.192-.06M352.845 342.54l1.211 1.776M340.456 339.872l.676 1.798M337.365 340.754l.634-.198 2.457-.684M340.395 362.685l-1.984-.026M361.027 373.546l.856-2.668M370.118 376.235l.854-.386.355-.199.158-.235.098-.259.061-.294.053-.68M356.274 371.045l.97-1.823M361.155 351.779l-2.372-.014-.375.075-.368.138-.275.193-.325.39-.212.445-.19 2.64.115 4.384M344.592 355.192l-.246-1.19-.163-.287-.276-.23-.293-.16-.545-.111M338.772 355.506l3.78.016.15-.072.106-.13.053-.16.208-1.946M338.69 358.28l-.161 1.583M338.772 355.506l-.06 2.062-.021.712" clip-path="url(#p518d4a1f00)" style="fill:none;stroke:#000"/><path d="m347.26 358.022-4.509.342-1.737.111-.326-.011-.117-.047-.198-.073-.23-.056-1.452-.008M353.762 344.498l.294-.182M360.955 348.7l-1.521.015-1.701-.095-.607-.12-.618-.262-.476-.29-.44-.3-.475-.501-1.355-2.649M337.563 341.925l.045.808.188 1.524M393.147 181.558l-.622-4.92-.7-5.501-2.43-19.658M154.42 312.411l44.083 21.476 3.956 1.911 2.95 1.696 60.885 29.627 3.888 1.893M327.444 379.841l-1.66 1.393-1.359 1.21-1.383 1.06-1.481 1.125-2.873 2.114-1 .875-1.51 1.35-2.505 2.63-.755.594-1.26.01-1.127.202-.969.728-2.47 2.76-2.87 3.92-2.059 5.363-1.08 4.184-2.513 5.097-.293 2.544 1.36 16.9M260.42 567.307l-.836-1.042-1.147-1.456-.248-.45-.11-.478.033-.51.15-.461 1.2-3.228.75-2.563.284-1.082.09-1.011.08-1.106.123-.757.276-.668.928-2.101.358-1.003.163-.876.114-1.385.248-4.748.09-.609.394-1.572.252-.672.663-1.565 3.439-8.449 1.465-3.2 1.773-2.786 2.8-4.473 1.025-1.799.424-1.353.39-2.006.097-2.308v-1.433l.139-.995.374-.907.513-1.457.553-1.449.643-1.33.724-1.05.57-.94.399-.866.22-.916.08-1.162.05-2.786.163-1.234.415-1.234.366-1.225.17-1.25.058-1.576-.106-2.253-.334-3.288.97-7.2.197-7.23.681-5.48.336-4.438.463-2.93 3.559-7.259 4.37-9.13 1.68-2.01 6.697-4.662" clip-path="url(#p518d4a1f00)" style="fill:none;stroke:#000"/><path d="m343.924 503.503-.278-.438-.565-.812-.444-.566-.79-.955-2.058-2.133-1.261-1.202-1.363-1.472-.542-.57-.463-.418-.778-.66-.83-.696-.435-.39-.77-.8-1.207-1.382-.826-.915-1.006-1.07-.63-.582-.374-.366-.301-.346-.33-.617-.293-.851-.269-.47-.427-.593-.41-.689-.88-1.337-1.074-1.393-.585-.725-.31-.35-.337-.262-.35-.235-.375-.263-.305-.25-.382-.407-.664-.688-.545-.553-.297-.347-.26-.592-.904-2.014-.87-2.245-.399-1.545-.09-.772.057-1.345-.081-.971-.22-.732-.431-.964-.48-.804-.232-.393-.167-.363-.142-.401-.057-.283-.053-.303.024-.855-.008-.45-.053-.342-.114-.35-.102-.224-.158-.25-.122-.148-.245-.25-.61-.565-.227-.24-.244-.353-.92-1.517-1.148-1.878-.39-.625-.232-.342-.602-.733-.814-1.043-1.684-2.698-2.235-3.543-.752-1.29-.208-.31-.268-.326-.525-.573-1.237-1.6-1.656-2.2-.374-.618-.407-.53-.94-1.396-.208-.346-.215-.633-.11-.597-.42-3.248M327.444 379.841l3.335.331M154.42 312.411l-5.256 4.868-9.31 2.356-3.124 2.802-6.966 1.847-6.77 6.114-.456 6.241.52 2.802-3.84 6.496-1.302 7.451 2.734 11.464.326 10.699-2.265 2.565-.468 3.047-4.494 11.003M337.365 340.754l.254.38M337.619 341.133l-.056.792M340.839 309.756l.037.541.003.458-.069.418-.081.473M324.58 314.667l.026.631-.047.23-.17.21-.153.126-2.435 1.01M342.564 364.695l.057-3.219M337.563 341.925l-1.913-.16M361.155 351.779l-.119-2.65-.081-.43M605.736 267.55l-.85-.556-1.441-.637-.337-.123-2.175-.518-1.48-.27-3.356-1.638-.456-.426-1.77-2.463-2.59-2.214-.526-.89-.543-.837-.31-.122-1.448.025-2.576.388-1.723.04-1.65.253-1.214.42-1.319.183-1.743-.092-2.769-.565-.973-.008-3.098.44-.567-.13-6.197-2.615-1.852-1.098-3.6-2.253-2.247-.685-1.082-.32-.399-.297-2.27-2.42-.067-.27.006-.89-.208-.484-.577-1.15-.033-.597.374-1.704-.203-.637-1.206-1.87-.546-.347-1.625-.824-.342-.231-1.717-.828-.61-.12-.302.04-1.83.653-1.424.347-1.042.549-1.298.852-2.307 1.13-.907.864-.448.151-.228.016-1.831-.016-.374.064-2.01.131-1.927-.272-2.687-.647-1.192-.327-1.136-.45-2.1-1.018-1.326-.614-.877-.73-.413-.36-1.851-1.119-1.184-.238h-.997l-1.534.08-10.099.262-3.376.446-4.509-.51-1.318-.263-1.632-.166-3.438-.705-.447-.132-1.45-.557-2.733-.685-1.237-.127-3.988-.128-2.258.144-.374-.052-4.561-1.477-1.904-.398-1.71-.143-1.513.048-2.75.477-.652.287-.7.51-4.85 4.354-1.269.852-.667.207-2.344.207-5.859-.111-2.409-.47-1.236.088-1.059.366-1.098.39-.883-.012-1.469-.14-2.405.208-.935.183-3.032.143-.704-.08-1.66.009-1.403.087-1.998-.43-2.08.04-2.233.263-6.686.007-2.197.072-2.75.31-1.845.486-1.32.566-2.051 1.05-1.074.685-1.1.844-1.781 1.791-.765 1.067M395.565 259.336l.223-.202.161-.205.104-.177.102-.308.045-.769.024-2.018.081-1.558.057-.267.075-.255.115-.286.314-.52.226-.316.216-.249.259-.217.242-.159 1.656-.915 1.421-.843.418-.244.295-.213.21-.165.23-.203.164-.203.254-.36.928-1.565" clip-path="url(#p518d4a1f00)" style="fill:none;stroke:#000"/><path d="m433.576 208.29-.24 1.658-.293 1.39-.26 1.76-.041.497.004.827.053 1.003-.019 1.081-.083.898-.391 1.922-.26 1.999-.041.342v.195l.024.195.464 1.461.088.342.006.207-.065.245-.084.138-1.385 1.237-1.685 1.322-1.129.878-.262.167-.25.113-.322.108-.297.13-.437.216-1.347.776-1.517 1-1.443.81-1.631.804-.84.368-.432.147-.42.136-1 .222-1.806.383-1.36.421-.732.343-.773.438-.546.422-.43.405-.595.574-.433.34-.88.747-.924.84-.57.68-.521.693-.802 1.305-1.065 1.505-.387.49-.541.382-.448.39-.303.312-.307.41-.267.488-.457 1.154-.509 1.513M395.565 259.336l-.188.06-.362.066-1.63.188-10.62 1.373M395.332 198.197l.334 2.731.509 3.885.696 5.27.614 4.936.18 2.222-.026 1.52-.024 1.226-.187 1.628-.28 1.791-.204 1.068-2.356 7.527-1.343 4.147-.732 2.536-.883 2.645-.989 2.502-2.47 5.366-3.185 6.99-2.222 4.836M330.231 375.03l-11.258-.38M318.973 374.65l.397-.492.203-.178.18-.071.243-.056 2.814-.026 3.707.124 1.04.04.733.063.497.111.399.168 1.045.696M324.58 314.667l-.462-2.526M435.342 206.56l.392-.033.316-.058.374-.087.256-.058.303-.052.379-.034.496-.02 1.296.056.602.048.484-.016.733-.08 1.464-.239 2.434-.501 1.822-.386 1.425-.327 1.074-.382 1.48-.62 1.075-.375.619-.279.561-.358.279-.237.191-.243.169-.269.41-.84.326-.708.245-.374.41-.513 1.38-1.354.813-.764.318-.39.293-.47.114-.382.154-.533.26-1.14.449-1.17.455-.859.79-1.314.667-1.162.333-.669.814-1.95" clip-path="url(#p518d4a1f00)" style="fill:none;stroke:#000"/><path d="m433.612 205.876-.768-.788-.684-.769-1.302-1.476-1.38-1.481-1.552-1.811-.64-.685-.327-.191-.374-.135-.722-.116-.29-.052-.32-.101-.415-.191-.334-.145-.4-.134-.643-.113-.817-.089-.306-.048-.236-.054-1.262-.406-.822-.232-.514-.11-.478-.064-2.645-.025-2.384.048-1.188.072-2.369.064-.439-.103-.35-.16-.268-.151-.493-.307-1.164-.724-1.707-.938-.201-.063-.163-.03-.185-.008-.218.038-.205.057-1.247.526-2.442 1.003-2.229.884-3.797 1.33M393.147 181.558l1.303 9.697.882 6.942M433.612 205.876l.537.312.456.205.289.094.213.052.235.022M433.576 208.29l.716-.581.27-.25.275-.291.505-.607M433.576 208.29l-.053-1.057-.055-.545.033-.332.111-.48M627.956 234.497l-.586-.084-.529-.056-.33.036-.422.076-.485.127-1.005.406-1.148.534-.797.27-1.546.263-2.36.135-2.58.151-.634.06-.594.128-.607.17-.663.096-.602.048-.642-.031-1.93-.18-2.364-.223-2.09-.187-.977-.024-.517.044-.826.183-.903.263-.753.091-.66.028-.61-.068-.618-.159-.505-.207-1.033-.58M627.956 234.497l-.207.161-.133.165-.112.156-.33.505-.703 1.604-.301 1.226-.245 1.56v1.975l-.048 1.122-.057.705-.171.935-.512 2.062-.615 2.56-.09.446-.04.412-.037 2.163-.102 3.085-.11 3.092-.17 3.19.016 1.576-.098.68-.106.422M608.248 268.377l.309-.035.636.031.496.054.442.113.59.253.695.41.323.17.165.06.188.027.187.003.153-.03.15-.05.393-.224.27-.125.399-.112.331-.04.95-.04.546-.062.478-.128.68-.215.451-.163.482-.154.824-.302.79-.37 1.183-.727 1.514-1.005 1.021-.689.655-.465.236-.263M607.267 269.69l-.388-.718-.37-.553-.35-.45-.423-.419M608.248 268.377l-.496-.151-.48-.156-.393-.139-.543-.199-.6-.182" clip-path="url(#p518d4a1f00)" style="fill:none;stroke:#000"/><path d="m607.267 269.69.113-.342.195-.382.255-.313.418-.276" clip-path="url(#p518d4a1f00)" style="fill:none;stroke:#000"/><path d="m625.157 342.787-1.738-2.128-.992-1.154-1.49-1.401-.911-.565-.374-.319-.668-.828-2.23-2.953-1.676-1.879-.936-.931-.708-.732-.44-.358-.553-.454-.504-.303-.631-.41-.516-.402-.42-.422-.276-.358-.236-.366-.224-.382-.122-.355-.037-.477-.032-.693-.082-.426-.224-.545-.358-.506-1.537-1.544-.684-.908-.57-.931-.862-2.325-.562-1.345-.228-.947-.073-.764-.008-.796.114-1.179.154-1.464.074-.733.09-.804.227-1.09.244-.665.35-.72.733-1.354.594-1.06.488-1.368.265-.78.24-.466.878-1.31 1.123-1.703.648-.964.251-.406.13-.322.285-.696.298-.765.488-1.233.366-.988.203-.708.163-.39.22-.57.342-.6.398-.478.326-.398.211-.334.139-.36-.012-.305-.074-.486-.126-.474-.277-.9-.585-1.719-.546-1.321-.504-1.338-.48-1.066-.578-1.051-.342-.582-.31-.54-.902-1.744-.603-1.386-.675-2.006-.504-1.584-.122-.864-.025-1.401-.138-.836-.227-.68M625.157 342.787l.2 1.324 1.195 3.673.96 2.213.318 1.465.098.796.016 1.019-.073.812-.18.764-.256.681-.24.669-.472 1.006-.443.884-.2.422-.132.448-.128.778-.139 1.44-.105.598-.163.644-.423 1.091-.773 1.648-.83 1.536-.757 1.155-.586.716-.635.645-.407.326-.846.637" clip-path="url(#p518d4a1f00)" style="fill:none;stroke:#000"/><path d="m584.676 455.36.024-.31.057-.303.643-1.162.83-1.194.529-.923.537-1.552.277-1.688.207-.62.305-.55.387-.565.574-.724.39-.538.367-.704.308-.836.448-1.799.489-1.473.667-1.87.345-1.07.164-.781.341-1.82.184-.743.797-2.814 1.27-4.171 1.236-3.841.061-.462.012-.481.009-.358.032-.526.072-.384.144-.39.191-.336.403-.56.671-.913.163-.319.11-.239.116-.353.083-.47.122-.454.191-.545 1.022-2.106 1.335-2.897 1.317-2.914.798-2.213.667-2.404.708-2.635.155-.505.163-.406.236-.29.252-.359.236-.342.252-.446.057-.31.074-2.062.048-.438.204-.708.423-.86.773-1.704 1.758-3.694 1.184-2.356.476-.97.667-1.513.44-1.179 1.277-3.637.562-1.529.602-1.417.366-.947.114-.318.195-.327.513-.684 1.53-1.48 2.189-1.784 1.131-.908M583.34 464.92l.18-.605.302-.7.512-1.162.211-.63.196-.651.44-2.548.097-.867-.049-.486-.097-.414-.432-1.162-.024-.335" clip-path="url(#p518d4a1f00)" style="fill:none;stroke:#000"/><path d="m576.465 456.702.59-.18.48-.11.324-.024.278.005.448-.002.724.008.342-.06.399-.206.386-.279.248-.1.35-.063.565-.004 1.29-.012.696-.083.488-.076.603-.156M580.684 511.607l.061-.2.053-.359.033-.648-.057-1.015.028-.943.061-.896.037-.927.008-.896-.008-.688-.074-1.015-.072-1.425-.017-.931.024-.816-.085-1.15-.13-1.35-.065-1.246.02-.99-.008-.749-.032-.99-.135-1.322-.13-1.138-.158-1.258-.07-1.01-.016-.852.02-1.223.016-.883.033-1.138.029-1.293-.062-.983-.13-1.071-.053-.609-.024-.494.053-.533.057-.343.154-.405.172-.522.142-.434.118-.52.098-.467.154-1.563.342-1.823.431-1.807.529-2.555.183-.638.427-1.17.391-1.528.309-1.87M576.465 456.702l.26.298.084.193.09.25.09.254.151.41.26.605.326 1.162.435 2.316.072.178.077.143.124.12.136.074.113.039.193.031.267-.006.227.003.235.027.186.044.228.078.264.117.36.18.456.242.34.306.29.285.239.195.201.097.362.191.358.174.452.212M260.42 567.307l.637.796.329.49M260.097 569.79l.39-.234.293-.219.245-.274.36-.47" clip-path="url(#p518d4a1f00)" style="fill:none;stroke:#000"/><path d="m260.42 567.307.035 1.159-.016.533-.127.422-.215.37M394.466 400.952l.314.012M404.972 432.762l-2.173-5.724-.887-1.862-.322-.69-.28-.744-.126-.47-.16-.771-.235-1.791-1.554-7.316-.635-2.18-.424-1.243-3.71-9.019M464.75 508.825l-.162-.184-.48-.546-.529-.58-.618-.749-.558-.756-.647-.875-.618-.8-.496-.645-.753-1.007-.85-1.115-1.018-1.325-.683-.832-.749-.792-.822-.788-.683-.744-.607-.708-.37-.492-.63-.874M412.45 446.15l1.856 2.707 1.929 2.778.707 1.266.387.6.415.554.57.613.89.963 2.393 2.882 2.295 2.945 1.49 1.919 2.839 3.892 1.325 1.78 1.881 2.096 2.498 2.46 5.738 5.643 3.824 3.933.99 1.095.61.648.65.844.912.943 1.066 1.063.98 1.09 1.07 1.21.834.991.713.94.777 1.018.83 1.155.557.835M450.103 501.365l.607.135.5.204.423.163.31.095.372.018.236-.04.274-.107.326-.257.337-.31.35-.53.16-.322.105-.406.048-.478v-.505l-.069-.501-.097-.35-.208-.514-.203-.549-.086-.35-.006-.307v-.504l.006-.455-.012-.482M576.684 568.183l-.57-.617-.524-.441-.574-.359-.797-.573-.472-.334-.839-.768" clip-path="url(#p518d4a1f00)" style="fill:none;stroke:#000"/><path d="m575.176 574.244-.107-.533-.155-.653-.272-.899-.126-.49-.086-.473-.089-.716-.248-1.616-.081-.756-.086-.506-.191-.601-.24-.597-.375-.824-.212-.49" clip-path="url(#p518d4a1f00)" style="fill:none;stroke:#000"/><path d="m580.69 526.172-.034.8.07 1.258.133 1.178.102 1.221.17 1.624.098 1.608-.008 1.103-.069.907-.122.613-.354 1.23-.415 1.325-.402.903-.493.852-.375.641-.427.9-.455.939-.493 1.086-.683 1.341-.667 1.333-.346.749-.55 1.134-.577 1.313-.72 1.58-.64 1.226-.256.629-.134.509-.195.88-.062 1.38-.17 1.617-.342 1.56-.139 1.09-.056 1.067.073 1.042.17.908.192.557.394.816M637.27 573.834l-2.898-2.833-2.742-2.71-2.404-2.281-4.391-4.238-3.332-3.176-2.625-2.607-2.25-2.209-1.851-1.783-1.896-1.89-1.266-1.222-.834-.908-.691-.764-.5-.592-1.1-1.278-3.95-4.693-6.759-7.955-3.438-3.984-2.799-3.264-1.737-2.057-1.925-2.209-1.176-1.277-1.066-1.087-.842-.812-.822-.712-.619-.486-2.296-1.628M580.69 526.172l.027-.66.028-1.454-.057-1.762-.126-1.955-.077-1.349.057-1.623.155-1.011.364-1.179M577.157 569.68l.105-.042.373-.054.37.018.307.077.331.107M603.665 575.004l-.403-.266-.342-.275-.313-.143-.537-.132-.627-.06-.557-.03-.276-.06-.253-.128-.307-.255-.175-.13-.15-.065-.119-.016-.197.01-.27.028-.41.03-.679.02-.5.135-.595.29-.72.43-.797.47-.566.31-1.02.315-.9.171-.741.068-.94-.016-.854-.088-.765-.195-.65-.23-.685-.31-.488-.3-.578-.449-1.217-.872-.85-.624-.708-.566-.46-.282-.292-.135-.489-.124-.618-.147-.484-.183-.546-.22-.96-.337-.83-.243-.443-.187-.435-.243-.276-.184M576.684 568.183l.444.477.476.39.66.482.38.254M577.157 569.68l-.294.115-.32.203-.465.35-.333.386-.171.346-.078.462-.08.907-.107.884-.133.911" clip-path="url(#p518d4a1f00)" style="fill:none;stroke:#000"/><path d="m577.157 569.68-.09-.335-.13-.453-.253-.71M580.69 526.172l-.266.29-.326.2-.366.115-.545.004-.708-.024-.346.068-.623.258-.895.506-.704.537-.614.688-.407.49-.468.574-.395.358-.463.334-.63.414-.583.298-.65.319-.49.27-.573.462-.875.776-.818.8-1.009 1.022-.65.63-.623.497-.626.41-.753.45-.639.278-.582.127-.76.088-1.095.032-1.46-.032-.966-.02-.663.024-.691.132-.574.17-.973.29-.801.18-.492.06-.688-.028-.615-.067-.573-.048-.399.016-.419.103-.615.21-.524.085h-.557l-.9-.028-1.037-.044-1.673-.072-.52-.028-.452.032-.671.124-.38.051-.426.013-.492-.06-.465-.136-.475-.11-.492-.053-.635-.02-.444-.012M596.382 516.54l.586.307.655.414.651.501.793.685.777.724.835.7.797.574.692.47M580.684 511.607l.452.158.236.155.114.127.098.263.101.346.228.53.366.53.444.445.598.405.712.351.911.386.92.442.814.45.708.274.638.171.428.032.55-.044.723-.143 1.225-.283.781-.13.603-.02.862.083 1.428.187 1.497.195.261.022M449.172 534.693l-.306.032-.321.147-.53.362-.361.43-.289.513-.244.347-.448.49-.777.695-.964.75-.732.651-1.242 1.044-.793.577-.765.529-.777.572-1.099 1.008-.577.616-.318.434-.35.621-.553 1.067-.452 1.03-.443.809-.578.78-.427.573-.305.493-.29.478-.264.286-.464.47-.602.493-.907.852-.773.748-.696.808-.773 1.007-.635.645-.618.58-.863.733-.903.673-.733.553-.74.59-.749.684-.32.288-.45.412-.235.207-.203.185-.132.125-.104.131-.09.182-.087.19-.134.224-.12.13-.172.128-.28.122-.619.239-.372.179-.299.187-.655.493-.753.665-.705.684M343.924 503.503l.3.477.342.575.28.472.212.342.012.002.172.259.227.264.562.546.964.879.423.454.492.577.4.457.349.359.346.319.3.266.288.322.433.61.782 1.113 1.765 2.739 2.344 3.582 2.978 4.473 1.937 3.001 1.733 2.61 1.002 1.457.52.86.561 1.05.798 1.76.895 2.34.781 2.03.383 1.003.216.493.288.462.172.195.231.183.354.207.619.314 1.229.565 1.122.581.586.358 1.026.812 2.327 1.95 2.214 1.887 1.871 1.608 1.22.983.453.302.305.163.402.144.522.127.585.175.51.172.487.242.553.358.7.526 1.075.899.79.613.83.477 1.65.829 1.783 1.042.423.35.456.526.44.796.251.517.31.43.284.159.358.048.692.016 1.221-.04 2.32.024 2.62.072 1.4-.016.935.087.928.23.927.39 1.36.685 1.464.908.847.55.814.508 1.375.597 2.026.908.757.262.936.231.822.056 1.122-.024 1.343-.008 1.888-.016.837.02M396.358 524.262l.14.077.233.122.201.091.46.156.683.215 1.168.43.773.357.858.482 1.746 1.078 1.713.995.956.49.952.398.793.23.668.108.818.06.875-.032.679-.1 1.363-.25 1.339-.18 1.22-.063.85-.016.628.04.736.063.676-.071.577-.155.464-.167.31-.164.406-.326.433-.378.257-.141.284-.08.468-.065.574-.084.378-.03.23.028.167.073.143.096.748.82.83.836.839.84.935.708 1.128.831.748.534.562.494.48.585.5.784.203.358.131.111.203.092.191.04.253.015.622-.016.83.08.615.048.476-.008.842-.076 1.664-.163.887-.08.891-.12.68-.178.98-.23.81-.096 1.095-.132.634-.087.533-.135.42-.1.646-.032.497.084.537.194.557.263.188.064h.248l.337-.072.424-.056.656-.025.594.032.79.093.364.068.415.098.706.304.444.179.462.195M453.163 512.911l-.207.239-.224.338-.196.39-.089.442.012.764.045.454.13.585.314.92.17.54.05.212.028.35-.05.414-.26 1.026-.065.554-.008.401.028.689.053.96.119 1.257.073 1.086.134 1.218.143.689.089.513.036.501.086.832.045.597-.012.577-.05.657-.122.406-.13.203-.496.617-.667.8-.497.752-.464.8-.32.8-.155.338-.155.211-.171.112-.208.011-.199-.04-.232-.114-.362-.24-.207-.079M464.75 508.825l-.992.365-1.257.438-1.648.58-1.77.585-1.628.57-1.668.56-1.595.53-.614.191-.257.135-.158.132" clip-path="url(#p518d4a1f00)" style="fill:none;stroke:#000"/><path d="m457.033 517.392-.237-.33-.46-.561-.422-.466-.582-.53-.489-.457-.533-.386-.464-.426-.24-.338-.217-.475-.226-.512M396.358 524.262l-.39-.16-.603-.218-1.204-.458-1.75-.72-.842-.283-1.542-.454-.818-.143-.805-.167-.961-.335-.952-.318-1.074-.31-.668-.192-.638-.103-.724-.043-.64-.009-.654-.02-.53-.047-.402-.068-.41-.155-.469-.215-.643-.358-.57-.315-.492-.306-.712-.565-.785-.704-.785-.638-.928-.656-.805-.605-.896-.62-1.619-1.108-1.058-.628-1.66-.852-1.066-.501-.863-.255-.96-.111h-.977l-.765-.128-.846-.199-.985-.215-1.424-.183-1.293-.19-1.477-.275-.997-.196-.77-.183-.63-.179-.53-.21-.54-.235-.505-.247-.708-.314-.858-.399-.7-.398-.59-.398-.39-.21-.314-.1-.33-.1-.423-.115-.423-.123-.508-.211-.965-.494-1.045-.577-.761-.437-.387-.176-.435-.239-.586-.39-.57-.441-.334-.253-.45-.304M379.037 529.618l.92-.58.57-.255.764-.175.936-.144.773-.23.692-.31 1.155-.399 2.483-.836 1.912-.78 1.497-.557.797-.219 1.21-.227 1.305-.234 1.44-.263.867-.147M421.255 258.893l-.101.685-.04.637.04.342.085.271.147.287.394.52.15.307.041.247-.032.38-.092.297-.205.424-.161.26-.146.148-.222.165-.252.133-1.066.216-.363.09-.341.212-.228.195-.757.995-.236.26-.187.088-.25.068-.269.024-.6-.054-3.35-.384-.19-.03-.15-.061-.153-.112-.134-.155-1.138-1.387-.31-.37-.3-.295-.41-.386-.48-.303-.882-.432-.718-.284-.692-.176-.659-.143-.834-.067-.639-.008-3.393.075-1.497.012-.615-.004-.75-.11-.174-.045-.165-.102-1.688-1.216-.374-.227-.556-.304-.372-.128-.376-.112M412.45 446.15l-1.74-2.825-1.515-2.42-1.79-3.375-2.433-4.768M423.233 429.442l-5.745 1.099-6.43 1.162-6.086 1.059M420.645 443.788l-.434.054-.289.062-.327.103-.435.182-.582.25-.877.36-.226.094-.248.075-.269.036-.675.12-2.018.493-1.815.533M378.544 185.841l.436-.107.558-.208 4.91-2.551 3.524-2.066.285-.12.262-.075.291-.056.328-.014.256.032.321.038.33.054.63.117 2.472.673M446.33 402.68l.461.143 19.677 5.716 3.72 1.32.813.367.57.247M576.465 456.702l-.423-.354-2.78-1.159-1.222-.252-.248-.193-1.277-1.221-.436-.152-.708-.171-2.017-.793-1.033-.036-2.624-.624-1.693-.9-.769-.891-.907-.908-2.128-2.444-7.385-12.123-.724-.796-1.09-1.4-1.8-3.288-.447-.67-.374-.795-1.68-4.645-.525-.697-.57-.23-.57-.012-.52.246-.334.239-2.47 2.21-1.54.738-1.316.798-1.913.58-.443.114-.85.153-1.425.573-.874.74-2.149 2.775-1.834 1.231-.615.208-.677-.062-.833-.008-.773-.016-.964-.438-3.955-2.463-1.623-.088-2.63.01-.324-.051-1.41-.454-.399-.068-1.556-.062-.326-.259-.399-.7-1.021-.844-4.357-3.98-1.136-1.616-2.197-1.97-.757-.454-.492-.243-.74-.796-1.075-.919-.773-.438-5.273-1.695-4.305-2.213-.31-.247-1.065-1.198-.716-.422-.545-.203-4.924-.971-.795.215-.856.401-.985.12-1.31.068-2.938-.223-2.742.207M427.9 396.94l17.69 5.509M425.617 404.212l.83-2.71.643-1.995.346-.99.463-1.576M420.645 443.788l.276.795.326.676.64 1.031 2.265 3.084 1.343 1.815.855 1.386 1.586 2.324 2.157 2.977M446.33 402.68l.28.985.05.13.074.099.078.091.35.386.435.717.447.979.5 1.663.168.39.106.134.111.086.145.077.415.158.936.328.524.24.158.105.121.114.126.18.771 1.392 1.53 2.608 1.77 3.204.464 1.026.045.128.047.147.024.171-.002.235-.085 1.107-.045 1.17.057 1.158.11.6.114.375.187.593.28.94.09.589.033.89M446.33 402.68l-.74-.231M420.441 426.45l2.083-.602.558-.135 5.961-1.086 2.616-.439 1.168-.294.618-.12.275-.061.279-.106.191-.095.169-.15.25-.28.277-.19.346-.148.7-.215.781-.24.791-.272M444.916 436.726l-.346-.132-.168-.11-.084-.09-.074-.106-.057-.223-.034-.126-.04-.157-.057-.113-.056-.08-.071-.065-.106-.03-.157-.014-.175.022-.889.322-.396.16-.15.04-.178-.003-.143-.028-.103-.073-.096-.138-.482-1.048-1.245-3.413-.325-.915-.244-.844-.5-1.883-.644-2.715-.402-1.623-.19-1.324M429.427 406.962l.08.104.378.55.61 1.006.692 1.059 1.836 2.408 1.143 1.277.27.196 1.005.451.605.308.797.462.574.446.374.39.187.283.122.326.098.374.033.442-.025.924-.028.688-.041 1.083-.013.38-.04.368-.094.358-.138.434-.195.45-.153.288M430.329 440.785l-2.344-4.011-2.14-3.435-1.176-1.775-1.436-2.122M420.441 426.45l.798.548.622.542.582.628.448.637.342.637M430.329 440.785l-.57.275-.891.39-.92.319-.854.286-2.742.7-1.831.578-.802.23-.557.132-.517.093M430.329 440.785l.512.701.936 1.154.936 1.345 1.97 3.049" clip-path="url(#p518d4a1f00)" style="fill:none;stroke:#000"/><path d="m398.149 401.195.96.749.46.445.439.621.317.57.11.266.122.362.15.414.172.502.195.732.227 1.07.176.41 1.135 1.76.374.541.252.478.212.525.342 1.123.22 1.042.297.66.179.423.341.53.306.365.529.55.284.254.383.263.464.275.431.27.39.327.61.636.387.617.245.359.276.37.326.29.614.37 1.7.837 2.515 1.878.53.338.357.156.737.239.744.246.444.175.26.136.171.159.462.539.446.613.54.738.216.235.224.18.33.234.272.163.42.22" clip-path="url(#p518d4a1f00)" style="fill:none;stroke:#000"/><path d="m416.226 400.681-.643.056-.732.128-.977.278-1.774.597-.683.104-.895-.056-1.701-.071-1.392-.048-.65.008-1.79.175-1.238.024-1.172-.096-2.091-.362-2.34-.223" clip-path="url(#p518d4a1f00)" style="fill:none;stroke:#000"/><path d="m394.78 400.964 1.651.096 1.718.135M401.274 390.125l.626-1.046M416.226 400.681l-2.311-2.331-1.367-1.258-1.188-.844-1.92-1.274-1.726-1.083-1.985-1.13-2.312-1.29-2.143-1.346M394.78 400.964l2.55-4.286 1.368-2.134.683-1.13.603-1.035.716-1.162.574-1.092M401.9 389.079l-5.007-1.516M429.427 406.962l-.245-.258-.249-.182-1.99-1.406-1.326-.904M416.226 400.681l1.033.08 1.01.1.92.171.715.19.082.025.895.398 1.676.868 2.417 1.353.643.346M429.427 406.962l.387-.407.135-.237.069-.195.079-.271.044-.103.086-.184.116-.157.167-.147.252-.2.29-.134.233-.052.362.002.964.235 1.355.338 1.003.332.743.297.76.39M460.381 399.726l-1.054 3.41-.091.107-.09.058M445.59 402.449l1.543-1.027 1.27-.565 1.106-.279.602-.04.436.032.476.116 5.094 2.105 1.554.383.724.135.472.051.15-.006.129-.053" clip-path="url(#p518d4a1f00)" style="fill:none;stroke:#000"/><path d="m462.057 394.433.725.294.557.217.122.1.078.107.02.126-.04.222-1.16 4.116-1.245 3.815-.11.223-.082.13-.115.063-.14.046-.131.005-.224-.033-1.166-.563M339.5 375.295l-.838.367-.806.394-.35.255-.215.191-.216.274-.268.386-.167.116-.395.075-.411.005-.28-.072-.257-.127-.191-.253-.184-.444-.38-1.343" clip-path="url(#p518d4a1f00)" style="fill:none;stroke:#000"/><path d="m462.057 394.433-.797 2.452-.879 2.841" clip-path="url(#p518d4a1f00)" style="fill:none;stroke:#000"/><path d="m457.781 399.38 1.339.39.321.056.383-.008.557-.092M457.781 399.38l-1.725-.513M457.781 399.38l2.27-5.64M460.051 393.74l2.006.693M460.051 393.74l-1.789-.619M456.056 398.867l2.206-5.746M456.886 392.646l-2.091 5.182-.071.223-.007.21.029.132.101.147.143.1.183.074.883.153M458.262 393.121l-1.376-.475M456.886 392.646l-2.99-.983-4.053-1.194" clip-path="url(#p518d4a1f00)" style="fill:none;stroke:#000"/></g><path id="PatchCollection_1" d="m252.52 587.202 3.353 1.178 1.595.319-.293-.541-.358-.478.488-.732-.52-.669-.098-1.241.13-.67-.163-.477.098-.828-.325-.382-.391.414.195.414-.52.16-.912.254-.13.446-1.042 1.082-1.01.637-.292.669z" clip-path="url(#p518d4a1f00)" style="fill:#00f;fill-opacity:.8"/></g></g><defs><clipPath id="p518d4a1f00"><path d="M90 142.994h558v441.212H90z"/></clipPath></defs></svg>