<svg xmlns="http://www.w3.org/2000/svg" width="960" height="960" viewBox="0 0 720 720"><defs><style>*{stroke-linejoin:round;stroke-linecap:butt}</style></defs><g id="figure_1"><path id="patch_1" d="M0 720h720V0H0z" style="fill:#fff"/><g id="axes_1"><path id="patch_2" d="M90 620.549h558V106.65H90z" style="fill:#fff"/><g id="LineCollection_1"><path d="m518.14 202.09-1.456.172M518.14 202.09l-.657-.147-.34-.232-.381-.422-.05-.063M597.693 191.946l-2.621-.087-2.485-.045-1.49.079-1.285.198-1.348.316-2.689.83-1.342.367-2.223.48-1.177.18-1.404.103-2.315.062-3.85.079-3.269.057-2.751.061-1.536.023-1.768.062-1.467.147-1.444.249-1.2.208-1.25.3-1.059.333-1.205.457-1.092.464-1.359.627-4.98 2.005-3.657 1.35-6.755 2.516-2.616.996-1.782.61-1.225.232-.626.017-.432-.023-.415-.079-.432-.152-2.468-1.412-2.178-1.125-.915-.383-.517-.198-.666-.147-.511-.05-.785-.023-.853.04-1.023.078-3.087.342M433.856 260.936l-1.16 1.085-10.384 7.577-3.143 1.95-9.012 4.441-8.872 5.412-1.31.967-7.568 6.838-1.771 1.248-16.618 9.415-2.05 1.41-1.774 1.76-10.8 14.058-2.049 2.016-2.534 1.959-8.32 4.682M340.446 331.68l.84-2.015.862-1.227 1.38-1.08 2.963-1.604" clip-path="url(#pdd6297d314)" style="fill:none;stroke:#000"/><path d="m337.658 290.445-.108.927.173.776.608 1.078.238.948-.194 1.078.32.807-.099 1.12-.358 1.242-.643 1.776.536 1.456.93 1.846.608 1.812-.322 1.384 1.108 2.024 1.423 1.962.74 1.502 1.673 1.502.322.99-.033.287-1.415 1.662-.45.767 3.776 8.363M338.849 343.553l.14-4.641.662-3.427.795-3.805" clip-path="url(#pdd6297d314)" style="fill:none;stroke:#000"/><path d="m333.738 327.865.611.32 1.094.063 1.737-.383.322.031.611.575 2.333 3.21M341.41 361.682l1.779 3.562M341.41 361.682l-2.276 1.41M343.152 358.167l-.54 1.173-.31 1.311-.892 1.031M338.849 343.553l.004.16.091 3.598-.002.744-.399 1.151-1.03 2.167-.2 1.377.317 1.303 3.78 7.63M430.366 590.12l.145-.703.106-1.703-.168-1.199-.416-1.525-3.03-6.776-4.183-9.152-5.079-11.119-.38-1.216-.072-1.487.138-1.635.13-1.12 1.042-6.774.131-3.365-.16-1.562-1.27-7.354-.733-3.252-.773-2.446-6.406-15.223-.65-2.368-.248-2.112.255-1.772.388-2.076 1.397-4.268.419-1.832M385.147 439.904l6.506 8.515 3.63 4.578 1.424 2.52 2.545 5.772 1.134 1.62 7.471 7.974 1.424 2.023 1.2 2.714.654 3.396.038 3.119-.84 8.333.459 3.825.157 3.788M463.468 500.592l-.393.04-1.544-.19-.74.031-.45.192-1.222.99-1.19.543-.773.736-1.93 1.277-.643.256-.579-.16-1.061-.607-.419-.543-.514-.415-.836-.192-1.544.032-1.577-.192-1.511-.958-.773-.288-.804.032-2.058 1.055-2.027.51-.92.53-1.846-.15-1.302-1.021-1.877-.662-2.15.18-1.937.18-2.482-.39-1.726-.782-1.271-.662-1.968-.15-1.756.21-1.392.03-1.847-.42-2.15-.09-1.786-.06-.756-.722-1.544-.39-1.221-.291M349.008 355.914l-.173-.325M349.008 355.914l3.28-1.638M351.62 358.867l-1.354-1.631-1.258-1.322M349.008 355.914l-1.677.693M343.152 358.167l.826-.396.902-.497 2.451-.667" clip-path="url(#pdd6297d314)" style="fill:none;stroke:#000"/><path d="m347.176 356.287-2.208.562-1.112.582-.704.736M326.756 373.38l2.367 5.157 1.257 2.062 2.381 3.518.619.986M332.543 387.746l.13-.562.707-2.08" clip-path="url(#pdd6297d314)" style="fill:none;stroke:#000"/><path d="m333.347 377.3.71 1.161v1.684l-.21 2.875-.467 2.083M330.17 365.654l-.309.332M334.88 365.096l-.938.256-2.286.151-.952.02-.533.131M333.052 370.28l-.444-.842-.818-1.306-1.62-2.478M327.142 369.003l-2.114.801M328.722 367.166l-.799.834-.78 1.003M329.77 371.911l-.152-.203-1.923-2.27-.553-.435M323.53 370.413l1.498-.609M323.53 370.413l-1.224-2.387M317.977 370.363l.614.57.761.377.839.095.762-.076 2.576-.916M317.977 370.363l4.329-2.337M300.84 379.998l.89-.46 1.103-2.634 2.012-3.131 1.432-1.096 1.702.289 1.973-.135.755-.442 3.232-2.767.657-.02.89.923 1.722.154.769-.316M322.306 368.026l4.978-2.91M327.284 365.115l1.438 2.051M327.284 365.115l-.952-1.325M329.861 365.986l-.548-.672-.451-1.134-1.578.935M328.722 367.166l1.14-1.18M325.028 369.804l1.728 3.575M326.756 373.38l3.014-1.469M329.77 371.911l3.282-1.63M331.513 374.648l-.276-.424-.8-1.419-.667-.894M343.189 365.244l1.85 3.478M343.189 365.244l1.844-.767M343.189 365.244l-2.164 1.058M352.49 360.282l1.357-.79 5.45-2.735" clip-path="url(#pdd6297d314)" style="fill:none;stroke:#000"/><path d="m359.296 356.757.606.615 1.559 1.193.559.862 1.056 2.097-.04.81-.954 2.686-.419 1.558.12 1.306.313.729M359.296 356.757l-1.08-1.642M339.134 363.092l1.89 3.21M334.88 365.096l.242-.066 3.657-1.721.355-.217M341.025 366.302l-2.748 1.382M334.88 365.096l1.5 3.53M336.38 368.626l1.897-.942M336.38 368.626l-2.224 1.105M337.978 372.006l-.17-.525-1.427-2.855M345.293 380.72l.667.082M345.293 380.72l.127.859M339.842 376.48l.766 1.527.914 1.343.911 1.108.454.215 1.794-.127.612.175M346.246 381.1l-.286-.298M346.246 381.1l3.395 6.216M346.246 381.1l-.826.479M350.57 379.899l-1.21.195-1.058.25-2.056.756M350.57 379.899l.72.058M346.709 372.083l1.212 2.437 2.648 5.379M360.458 381.497h1.57M355.016 378.335l3.399-1.269.225.32.27.583 1.548 3.528M356.746 381.358l.91.267 2.802-.128M362.028 381.496l1.615-.266M363.69 382.456l-1.015-.708-.647-.252M363.69 382.456l-.047-1.226M363.69 382.456l.523.578M365.041 381.205l-1.398.025M365.041 381.205l.353 1.282M365.041 381.205l-.072-.72M361.086 375.309l.53 1.014 2.027 4.907M355.016 378.335l-2.921 1.687" clip-path="url(#pdd6297d314)" style="fill:none;stroke:#000"/><path d="m356.384 381.15-.25-1.036-.61-1.567-.508-.212M352.095 380.022l-.806-.065M356.384 381.15l-.69-.33-.547-.185-3.052-.613M351.29 379.957l2.549 4.674M364.305 383.423l.318-.313M364.305 383.423l-5.473 2.161M364.305 383.423l1.236 1.54.37.39.181.155.268.19M364.305 383.423l-.092-.39M358.832 385.584l-2.086-4.226M353.839 384.63l.844 1.55.342.264.527.194 3.28-1.054M349.641 387.316l.147-.305.667-.53 3.384-1.85M342.738 391.062l1.473-.872M351.826 391.003l-2.185-3.687M347.303 388.663l2.192-1.083.146-.264M341.561 374.312l3.695 5.406.704 1.084M347.303 388.663l-.864.383M347.303 388.663l-1.431-2.98M345.42 381.579l-4.184 2.235M345.872 385.683l-1.398-2.568.946-1.536M341.236 383.814l1.584 3.318M332.543 387.746l2.737-.758 2.346-1.18 3.61-1.994M344.211 390.19l2.228-1.144M344.211 390.19l1.755 3.665M344.211 390.19l-1.391-3.058M346.439 389.046l1.487 2.836M345.872 385.683l-3.052 1.45M346.709 372.083l-1.268-2.55M341.561 374.312l2.67-1.219 2.478-1.01M339.305 375.267l.537 1.213M339.305 375.267l-1.567.44M339.305 375.267l2.256-.955M337.978 372.006l.145.626 1.182 2.635M333.347 377.3l3.851-1.462M331.513 374.648l1.096 1.82.738.832M334.156 369.731l-1.104.55M334.156 369.731l1.405 2.612M337.198 375.838l.54-.13M337.198 375.838l-1.353-2.888M335.56 372.343l.285.607M335.56 372.343l-4.047 2.305M345.039 368.722l.402.81M345.039 368.722l-5.042 2.452M337.978 372.006l-2.133.944M337.978 372.006l2.019-.832M338.277 367.684l1.72 3.49M339.997 371.174l1.564 3.138M349.391 371.818l-.737-1.785M347.459 367.274l.558 1.215M347.459 367.274l3.798-1.737M345.033 364.477l.554 1.376 1.147-.253.725 1.674M351.257 365.537l-1.648-3.531M351.257 365.537l1.2 2.611M355.569 367l-1.303-2.65-3.009 1.187M348.654 370.033l-.637-1.544M348.654 370.033l3.803-1.885M352.457 368.148 355.57 367M352.44 372.695l.766-.404.454-.513.125-.652-.203-.607-1.125-2.371M355.569 367l1.04 2.167M358.115 368.232l-.316-.047-2.23-1.185M345.441 369.532l2.576-1.043M349.609 362.006l-.936-1.897M352.49 360.282l-2.207 1.287-.674.437M345.033 364.477l1.365-.567 1.052-.869 2.159-1.035M347.331 356.607l-.156-.32M348.673 360.11l-.425-.871-.917-2.632M348.673 360.11l2.946-1.243M353.992 357.327l-2.373 1.54M353.992 357.327l-1.704-3.05M358.217 355.115l-1.454.54-1.16.75-1.61.922M357.364 354.144l.313.196.54.775M352.288 354.276l-.114-.355" clip-path="url(#pdd6297d314)" style="fill:none;stroke:#000"/><path d="m352.288 354.276 1.383-.4 3.511.154.182.114M358.115 368.232l2.456.364.764.032.76-.015M362.096 368.613l.717.898 2.023 1.573.185.486-.783 3.367.557 5.197.174.351M294.87 374.886l1.466-1.273-.033-.352-2.187-3.865-.29-1.087.29-1.725.804-2.172.869-1.758.386-.383.61-.288 3.153-.894 2.38-.511 1.706-.607 2.54-1.597.58-.607.675-1.055.88-1.745 1.273-2.858 1.404-1.914 1.36-.604 1.393.24 2.941 1.231 2.72.314 3.11-1.158 1.212-1.968 1.941-1.504 4.15-1.353 3.354-.17 5.292-1.67M198.854 497.443l.728 1.335-.578 1.342-2.316 1.917-2.793 1.758-2.524 1.556-2.72.874M152.139 500.64l.937-.225 5.827.443 3.732.383 5.683-2.59 4.825-2.173 2.19.06 2.184 1.217 2.767 2.94 1.063 1.577 3.967 2.81 3.337 1.143" clip-path="url(#pdd6297d314)" style="fill:none;stroke:#000"/><path d="m193.391 522.55-.723-2.145.676-1.533.693-1.517-.228-1.624.02-1.066.125-.85.26-1.142-.29-.926-1.802-.895-3.471-4.627M110.29 539.25l-7.171 4.467M152.139 500.64l-2.097.504-4.663.337-4.659 2.089-5.402 1.553-2.142.955-1.891 1.685-1.91 3.992-1.25 5.67.308 2.373.815 1.312-.539 5.117-1.69 3.218-1.738 1.214-2.573 2.3-1.994 1.853-5.596 3.194-4.828 1.245M118.664 552.22l-1.575-1.593-2.028-.901-1.188-1.143-3.583-9.332M102.913 510.624l-.358 1.207-.322.781v1.42l.5.853.787.745.787.533-.256 1.132-.325.539-.955.927-.565.538-.498.82-.608.819-.37.625.11.733.694.84.89.927.455.539-.08.432.932.83 2.155 3.962.226 1.437v1.246l-1.03 2.428-.064.447.128.288.547.447 2.155.224.612.16.964 1.021.292.959.574.768M430.32 591.854l.26.086.29.102.463.208M429.475 591.892l.294-.059h.303l.248.02" clip-path="url(#pdd6297d314)" style="fill:none;stroke:#000"/><path d="m429.822 591.32.108.162.088.103.121.104.181.165M431.333 592.25l.312.415M431.333 592.25l-.337-.611-.307-.5-.04-.11M430.09 590.803l.243-.522.033-.16M430.65 591.03l-.078-.216-.206-.694M429.822 591.32l.21-.394.058-.123" clip-path="url(#pdd6297d314)" style="fill:none;stroke:#000"/><path d="m430.65 591.03-.162-.102-.176-.073-.222-.052M428.01 593.475l.669-.552.702-.885.094-.146M429.822 591.32l-.11.204-.237.368M431.645 592.665l.36.476.511 1.053.159.812.024.992v1.755l.085.606.476 1.295.599.93.583 1.151.67 1.053M488.552 573.176l-3.86 2.268-6.4 3.13-.547.064-2.188.83-1.286.864-.515.51-1.898 1.374-.675.607-1.866.862-2.83.575-2.639.994-1.675.633-.61.063-3.443-1.246-.772.129-.676.51-.45.959-.676.575-1.48.703-1.383.772-4.053 2.268-1.476 2.819-1.097 1.684-1.646.94-.947 1.288-3.291 1.684-1.147 1.882-3.914 1.871M385.147 439.904l-1.129-2.108-.898-2.754-1.23-6.4-.37-2.366.057-8.63-.253-1.28-.282-.492" clip-path="url(#pdd6297d314)" style="fill:none;stroke:#000"/><path d="m380.626 416.154.21.386.31 1.208-.105 8.508.422 2.572 1.342 6.53 1.047 2.72 1.295 1.826M342.62 605.241l-.206-1.283-.168-.417-1.987-2.823-.169-.153-.238-.028-4.76 1.043-4.186.89-1.603.4-.822.4M322.881 603.218l.326-.196.687-.282.825-.084 3.762.614M342.704 605.765l-.16.055-1.167.164-1.309.021-6.696-.65-.67-.105-.462-.194-.839-.427-1.495-.864-.421-.308-1.004-.187M342.704 605.765l1.718 3.687M342.704 605.765l4.348-1.49M342.704 605.765l-.084-.524M344.95 610.666l-.528-1.214M347.052 604.275l-.888-.106-.287.03-3.257 1.042M428.01 593.475l-.483.397-2.17.783-8.488 2.409-4.421 1.293-4.18 1.047-5.306.661-5.502.467-2.127-.172-1.571-.56-2.41-1.38-3.984-2.308-12.447-4.21-2.565-.636-2.345-.079-2.439.532-2.055.925-13.716 7.513-.54.281-.448.332-.565.525-2.282 2.509-.329.212-.385.19-.2.069" clip-path="url(#pdd6297d314)" style="fill:none;stroke:#000"/><path d="m344.422 609.452 1.593-.723.294-.279.224-.57.14-.472.266-2.35.113-.783M514.837 119.507l-.901-.783-.871-.795-1.035-.587-1.81-.808M485.529 125.442l1.447-.671.644-.287 1.897-.8 2.766-1.373 1.228-.399.718-.33 1-.026 1.153-.204.795-.203.974-.128 1.897-.738.436-.56 2-.586h.973l1.385-.178 1.05-.178 1.026-.077.949-.101.897-.459.538-.382.301-.52.617-.708M517.59 125.255l-1.195-3.027-.964-2.05-.594-.671M516.4 200.833l-.665-1.431-1.403-2.936-.54-1.576.143-1.992-.343-2.891-1.663-4.106-.935-.453-1.823-1.69-2.781-4.157-2.044-3.261.158-.94-.296-1.064-1.2-2.29-.278-1.6.253-1.838.583-2.858 1.398-3.977.463-1.162-.49-1.065-.212-1.541-.148-1.835.185-.808.665-.843 1.069-.377 2.692-3.762.779-.906 1.03-.776 4.85-5.341 3.5-4.06.86-5.88-.075-3.23-.923-2.936-1.62-1.996" clip-path="url(#pdd6297d314)" style="fill:none;stroke:#000"/><path d="m244.741 255.922-.064-1.884.74-.927.29-.544.514-2.396.643-1.405.74-1.278 1.576-2.013 1.576-2.236.901-.703.45-.543 1.576-3.259.354-.415 1.929-1.627 2.094-1.378 1.27-.109 1.226-.754 2.05-.762 3.622-2.238 2.83-1.213 1.03-.704 1.672-.862.29-.288 1.544-.543 1.543-1.342 2.027-1.022 1.383-.831 3.827-1.438 1.094-.224 6.144.256 1.447-.287 1.737-.512.58-.319.964-1.086 3.152-2.333 2.38-.862.772-.128 1.93.255h2.059l.482.224.58.799 1.511 4.345.9.959.612.191.707-.064 3.024-1.15.772-.447 2.702-2.109 2.251-2.652 1.287-1.246.74-.479 1.962-.288.74.224 2.412 1.374 2.413 1.565.74.32 1.414.351 2.573.894 2.317.99 1.479.256.869.99.514.255.45.032.74-.16 1.898-.702.772-.064.772.128h.933l.932-.256 2.06-.894 1.189-.927 2.38-1.278 2.252-.83 1.254-.64 2.091-1.373.965-.927 1.287-1.406 3.087-.607 2.413-.958 4.632-2.876 2.38-1.98 1.48-1.598.675-.383.514-.447.419-.096 1.48-.831 1.415-.99.16-.256 1.319-1.054 2.316-1.15 2.895-.991 1.254-.128.772-.223 2.187-1.279 12.416-5.335 14.024-9.133 9.81-5.176 3.217-1.087 3.12-.639 1.543-1.054 2.815-.482 2.043-.7 2.026-.16.819-.252.736-.565 1.144-1.373 1.548-.572 1.73-1.342 1.945-1.037 1.484-.49 6.75-3.33 1.13-.387 1.154-1.602 1.481-.607.834-.608.563-.685 3.406-2.843 1.103-1.271 1.027-.803 1.415-.927 1.608-1.31.322-.607.036.262 1.801-2.812 2.22-.767 2.638-2.044 2.09-1.375 2.027-.894 2.123-1.15 1.255-.447.836-.16.933-.384 1.994-1.342 2.059-1.022 3.828-1.502 3.216-1.406 1.287-.862 1.126-.608 1.126-.415 2.412-1.501 2.767-.96.643-.478.161-.575.032-1.662.322-.703.705-.708 1.865-.575 1.158-.67 1.609-.64 1.576-.415 2.187-1.534 3.338-1.145M516.4 200.833l-.063.456M516.4 200.833l.311.393M516.337 201.29l.116.652.021.125.063.09.147.105M516.337 201.29l-.148.42-.127.275-.236.401M516.684 202.262l.119-.084.056-.125.007-.153-.155-.674M515.826 202.386l.858-.124M487.443 226.375l2.08-.716 2.088-1.132 1.364-1.171 2.335-2.661.804-.492.805-.236 1.146-.105 1.64-.016.708-.216.86-.4 2.325-1.765 3.152-2.483 1.838-1.594.664-.734.49-.706.358-.695.364-.829.665-2.271.944-2.841.228-.522.153-.393.25-.468.262-.362.341-.328.348-.28.8-.324 1.37-.249M339.842 376.48l-2.104-.773M352.49 360.282l-.87-1.415M312.146 417.02l.692-2.92 1.46-3.753 1.521-3.35 1.05-1.833.562-1.744 2.485-2.812 9.831-6.755 2.212-1.305.277-.513.08-.75v-2.563l.227-.976M366.36 385.698l.527.298M366.36 385.698l.57 1.357 1.112 2.547 2.202 5.144 2.153 5.642M366.36 385.698l-.208-.626M366.152 385.072l-.2-.19-.111-.105-.11-.152-.286-.375-.822-1.14M365.394 382.487l.03.825.728 1.76M366.152 385.072l.483.192M364.623 383.11l.771-.623M364.623 383.11l-.41-.076M374.001 403.1l-1.127-2.898M376.696 401.432l-1.504.66-.761.852-.43.156M377.32 409.48l-2.636-4.596-.683-1.784M376.696 401.432l-1.836-4.17M376.696 401.432l.37.873M374.86 397.262l-.586.272M374.86 397.262l1.113-.523M377.32 409.48l4.277-2.56M377.32 409.48l1.367 2.29M378.687 411.77l6.113-3.667M378.687 411.77l.231.402" clip-path="url(#pdd6297d314)" style="fill:none;stroke:#000"/><path d="m366.635 385.264-.718-2.101-.523-.676M347.176 356.287l1.66-.698M348.835 355.589l3.34-1.668M357.715 353.937l-.385-.21-3.789-.213-1.367.407M361.82 358.4l-1.64-1.298-.507-.563-1.563-2.386-.395-.216M363.058 351.459l-1.011 5.036-.226 1.906M364.97 380.485l.113-.489-.47-4.974.8-3.763-.35-.62-1.446-1.067-.86-.795-.546-.97-.195-1.105.254-1.202 1.074-3.084-.02-1.145-1.503-2.87M454.374 245.7l-1.81 1.988-2.808 2.269-2.202 1.36-9.833 5.02-1.41 1.054-2.455 3.545" clip-path="url(#pdd6297d314)" style="fill:none;stroke:#000"/><path d="m402.608 210.459.612 2.906.997 2.716 2.413 5.08 10.248 13.788 3.145 4.196 3.478 3.8 3.617 6.217 2.364 3.247 4.374 8.527M356.746 381.358l-.362-.207M357.364 354.144l.351-.207M363.058 351.459l-1.03.942-1.383.703-2.154.48-.776.353M363.058 351.459l.434-.767M382.022 316.394l-2.431 1.44-1.464 1.742-5.548 4.153-2.22 4.584-.112.527.24.623 1.625 1.981.467 1.102-.258.703-.66.575-.948 1.022-3.184 1.917-2.573 1.725-.627.735-.29.719v1.246l.322 1.006.418.575 1.142.847.112.687-.66 1.517-1.623 3.833-.258 1.039M371.47 358.03l-2.187-2.11-2.445-2.683-1.287-1.598-.772-.512-1.287-.435M495.023 253.775l-3.044-.132-4.526-1.048-5.479-.215-1.453.477-2.882 1.882-.572.786-.214.667.334 3.668.404 1.763.072 1.74.643 2.405.381 1.834 2.025 4.336-.024 1.476-.524 2.383-.381.88-1.024.263-3.645-.047-2.263-1.62-2.74-1.525-1.762-.476-1.81.309-2.026.93-5.335 4.31-.739 1.811-1.572 4.43-1.096 1.168-.31.81-.023 1.501-.882 2.572-1.476 1.93-.858.977-1.048 1.143-.763 1.143-.571 1.358-1.096.953-1.572.429-1.096.595-1.691 1.74-.286.761-1.477 4.574-.571.881-.62-.024-3.62-.762-2.859.31-8.79 2.692-1.215.285-.857.358-3.693 1.143-1.072-.214-5.955-2.191-2.5-.453-3.145-.858-1.31-1.143-1.144-1.381-1.477-.24-1.429.216-.405.07-2.477 1.478-1.072 1.43-1.453 1.214-1.216-.071-1.484-.518-.868.19-1.512.832-1.576.479-1.753.926-2.46 2.237-1.609.542-.917.576-1.541 1.674" clip-path="url(#pdd6297d314)" style="fill:none;stroke:#000"/><path d="m598.442 434.235-3.082 1.836-4.606 2.545-.592 1.101-.483.663-.45.224-2.413.671-2.283 1.246-.58.16-.868.032-2.67-.224-.73.031-1.703.247-3.782 1.11-.925-.43-2.854-1.044-.664-.68-1.178-2.333-.74-.447-1.062-.128-1.924.105-1.583.235-1.385.587-1.49 1.001-2.592 2.353-.868.287h-.45l-1.96-.48-1.267.032-.762.416-.9.192-1.287-.287-1.222.032-.71-.16-.58.03-.416.695-.452.075-1.437-1.41-1.109-.147-2.08.651-3.384.67-4.155-.39-2.777.422-1.492.394-.965-.926-2.251-.767-1.448-1.98-1.318-1.246-1.03-1.246-.707-.256-1.705-.064-1.705-2.076h-.45l-1.48.479-.515-.256-.739-.702-1.03-.256h-1.64l-2.162.61-2.47-.195-1.093-.287-.612-.288-3.055-2.651-1.383-1.821-2.316-2.492-.74-.48-1.287-.51-3.73-1.023-.58-.32-2.477-2.14-2.058-1.31-1.544-1.82-2.605-2.588-1.737-1.15-1.286-.256h-1.384l-1.737-.638-.804-.032-1.415.735-3.12 1.98-2.541 1.118-1.608.959-3.023 1.437-.547.096-.805-.352-.932-.67-1.512-2.364-.869-2.492-1.923-3.94-.846-1.43-3.149-2.265-1.062-1.278-2.186-1.821-1.352-1.949-.804-.926-1.672-2.524-4.369-7.692-3.272-5.246-1.751-3.035-1.096-2.766-1.703-1.898-1.994-1.79-2.959-2.331-1.737-.831-2.316-.83-2.059-1.182-1.35-.64-1.223-.83-2.863-3.93-3.023-3.801-2.316-2.683-1.705-2.908-2.026-3.099-1.017-2.4-.527-.583-1.809-2.451-2.4-3.744-1.814-3.79-1.69-2.168-1.033-2.386-1.424-2.213-.86-1.927-.652-2.095-1.13-2.333-1.394-2.265-1.394-1.803-1.351-3.356-1.055-.922-1.816-1.006-1.098-1.091-2.322-1.72-1.732-.042-1.984.672-.8-.236M356.608 369.167l-.784.487M356.608 369.167l1.507-.935M372.397 400.388l.477-.186M372.397 400.388l1.414 3.705.528 1.18 4.128 7.108M372.874 400.202l-2.408-6.16-3.515-7.854-.064-.192M366.887 385.996l-.252-.732M380.626 416.154l.416-.28M378.467 412.381l1.623 2.794.536.98M381.042 415.874l-2.124-3.702M378.467 412.381l.451-.209M104.923 551.836l-.772-2.556-.322-2.875-.71-2.688M515.166 250.537l-1.438-.467-1.978.214-1.905.096-1.954.31-3.62 1.667-2.025.643-3.216.357-4.007.418M487.443 226.375l-1.014 7.887 8.594 19.513" clip-path="url(#pdd6297d314)" style="fill:none;stroke:#000"/><path d="m454.374 245.7.213-.235 8.109-10.287 1.507-1.14 8.25-2.256 10.133-4.156 2.85-.56 2.007-.691M630.343 427.042l.719.943 1.094 3.244.938 2.047M630.343 427.042l-4.157-3.747M623.838 428.081l3.655-.062 2.85-.977M587.729 345.187l1.025 2.227.691 2.183.493 1.402 1.16.858 1.524.738.255.647-.245.814-1.306 3.225.287 3.641.641 3.407.39 1.259.682 1.759.409 2.244.07 2.165.532 1.444.048 1.304 1.406 1.483 1.262 1.406.977.19.5 1.024.858 2.287 1.429 2.478 2.096 2.596.048 1.167.667 1.763 1.238 3.025.406 2.55 1.857 3.81.262 1.597 2.168 3.668.905 2.263.524 2.12.786 1.668 1.12 1.595 1.953 1.763 2.05 2.811 1.857 1.692 4.264 2.953 3.168 2.882M623.838 428.081l.965-2.811 1.383-1.975M538.93 277.297l1.191 1.453 2.216 3.335.5 1.93.548 2.477 3.24 7.575.976 2.906 2.716 5.503 2.024 3.311 2.835 5.431.834 1 1 .287 3.216-.644 3.311-.929.977.096.667.667.381 1.143 3.049 6.813 1.763 2.81 3.501 8.457 1.43 2.74 1.381 2.024 2.192 1.93 2.477.81 3.287 1.5 1.025 1.477 2.062 3.788M621.815 359.844l-1.77.287-.9-.255-1.158-.895-.965-.767-.611-.32-1.19.257-.708-.064-1.544.192-1.222-.671-.805-.256-3.056-.48-.997.033-.418-.16-1.834-2.045-1.704-.926-1.544-1.182-.355-.416-.193-.607.451-1.63-.032-.925-.87-2.844-.578-.575-.418-.096-1.03.224-.669.255-1.338-.575-.81-.175-5-.27-2.818.229" clip-path="url(#pdd6297d314)" style="fill:none;stroke:#000"/><path d="m515.166 250.537 1.25 1.24.923 1.364.271 1.67-.31 1.643-.237.762.392 2.479 1.87 3.072.024 1.786 2.216 5.741.69 1.12 4.145 1.548 2.787 2.74 1.74 1.547 1.786.596 1.43.048 2.5-.644 1.596-.238.691.286" clip-path="url(#pdd6297d314)" style="fill:none;stroke:#000"/><path d="m529.048 244.249.355.671.142.326-.042.39-.01.196-.036.34-.118.38-.171.431-.422.236-.704.08-.558 1.032-.396.94 1.56 3.792 10.628 23.781-.064.543-.282-.09M529.048 244.249l-.707.304-1.91.486-4.094.862-1.479.402-.56.206-1.703 1.26-1.448 1.667-1.98 1.101M431.645 592.665l-1.448.607-1.03.191-1.157.012M431.867 586.458l.55 4.322-.772 1.885M612.502 473.193l.271 4.405-.547 1.885-2.54 2.875-.29.607-.353 1.5-.773 5.496v.702l.16.608 1.095 2.236 1.897 4.472.322.959.064 1.054-.257 4.153v2.492l-.257.926-1.48 2.428-.9 2.172-.322 1.15-.065.671-.224.607-.837 1.31-.418.895-.4 2.557.06 2.506-.346 2.027.265 1.097.544 1.098 1.168 1.128 1.463 1.808 1.403 1.833 4.08 4.122.194.32.064.734-.386 1.662-.032.542.29 1.087.32.446.387.32 1.061.32.933.447.386.383.29.862.032.447-.129.448-.386.703-.353.255-.644.224-3.731.16-2.799.319-3.442 1.054-.579.384-.321.414-.193.575-.065.895.065 3.961.482 3.514.997 4.6.033 1.405-.097.958-.386 1.598-2.67 7.73.16 1.118.323.926 1.576 3.067.148 4.77" clip-path="url(#pdd6297d314)" style="fill:none;stroke:#000"/><path d="m636.978 595.702-1.595-.371-1.451-.639-1.962-.213-2.085-.432-3.097-1.809-3.237-2.009-1.557-1.592-.964.284-1.339-1.622-.653.108-3.937-1.113-2.21-.68-1.043-.88-.405-1.314-.482-.99-.514-.433-1.016-.26-.664-.198-1.954.08M598.442 434.235l1.337 3.654.129 3.641-.87 2.173-.063 2.492-.644 1.214-2.444 3.226-.289.47-1.059 1.465-1.161 3.784-.261 1.153-.687 2.129-.356 3.087-.145 2.253-.141 1.708.261 1.004 1.141 1.775 1.175 1.801.653.377.58.12.514.154 1.544.32 3.667-.224 5.758.192 2.734.383 2.687.607M636.978 595.702l.291-.356M261.616 601.231l.637.122.69.454.537.189.432-.101 1.415.224.868-.096 3.732-.671.965-.48 1.383-.478 3.572-.544 1.447-.064 1.254-.51 1.577-.928.965-.447.86-.456 4.168-5.163 2.173-2.05.714-.584.901-1.077.883-1.06.696-.902.938-.3.485-.03.999.18 1.18.12 1.332-.12.97-.51.907-.662.424-.451 1.332.24.939-.39.787.12 1.483.27 1.211.361 1.272.421 1.241.541.636.631.636.632.847.511.576.962.453.992.575 1.714 1.255-.178 1.605-.42h.787l1.695 1.142.666.992.909.752.635.661 1.302.481 1.544.361.757.511.394 1.534-.03 2.224.654 3.317M297.004 439.169l-4.58 4.765-2.33 1.674M215.413 455.938l2.264-3.846 3.731-4.904 2.801-1.779 3.902-.489 7.718-.679 2.766.96 2.641.16 1.884.915 1.494 1.965 3.73 2.3 1.937.689 2.696.269 3.998-1.372 2.486.69 2.065 1.3 1.164 2.001-.046 5.168.504.767.925.263 15.038-6.597 5.069-3.594 5.914-4.517" clip-path="url(#pdd6297d314)" style="fill:none;stroke:#000"/><path d="m335.155 528.479-.487.117-.75-.117-.45-.105-.329-.196-.105-.537v-.77l-.281-.906-.565-.798-.955-.732-2.67-1.665-2.573-.736-.836-.575-3.056-.99-.643-.35-.611-.576-1.094-1.917-.322-.767-.128-.894.13-1.427-.216-.514-.569-.799-1.5-1.477-.676-1.086-1.769-3.195-.868-1.853-.13-.799.033-1.246-.225-.383-1.254-1.342-.386-.607-1.158-3.642-.161-2.651-.29-1.022-.61-.799-.772-.703-.611-.384-.644-.255-.74-.543-1.415-1.725-.354-.607-.482-1.757-.515-1.119-4.245-7.699-3.153-5.111-1.48-3.738v-.607l.161-.447.45-.48 3.539-2.715.32-1.784-.423-2.18.676-1.426-.634-1.803-1.2-1.488-.449-1.288-.05-2.03.05-1.536-.797-1.238-.798-1.436-1.247-.595-1.695-2.328-3.05-.493M312.146 417.02l-.742 1.44-2.37 3.973-1.593 3.688-2.756 3.321-2.391 2.356-4.868 6.932-.422.439" clip-path="url(#pdd6297d314)" style="fill:none;stroke:#000"/><path d="m293.056 433.609 1.93 3.706.547.607 1.471 1.247M331.06 446.696l-.695-1.658-.278-.898-.974-1.727-.348-1.589.487-2.072.798-1.851-1.102-2.385-.893-3.105.026-2.447-.897-2.021-.853-1.193-2.149-.949-.494-1.661-1.124-1.03-.915.035-1.769.448-2.542-.192-1.506-2.34-2.136-1.782-1.55-1.26M198.854 497.443l1.254.32.695-.138 1.16-.317.256.255.644 1.278 6.213 17.352 3.602 10.02.766 3.517 1.32 2.683 1.737 2.588.869 2.396.32.48.644.574 1.255.416.804.447.483.862.032.96-.096.926-.772 2.331-.033.831-.289 1.502.032.799.225 1.277.933 2.236.858 2.857.841 3.195.809.73.885 2.09M602.891 431.385l1.744.147 2.638.734 1.994.032 1.126-.16 1.255-.415 1.568-.364 3.456.026 1.068-.02 1.338-.377 2.702-1.277 2.058-1.63M598.442 434.235l-.046-2.402.187-.544 4.308.096M598.442 434.235l1.471-.556 1.266-1.014 1.712-1.28M215.413 455.938l-.96 2.865-.417 1.286-.276.913-.257 1.131-.11 1.205-.11.931-.575.73.037.496.574.472.2.602.114.855 1.673 1.761 1.432.844 1.354.444.757 1.359 1.676.825.587.628-.131 1.4-.6.424.01.624-.03 2.703 1.102 1.187.57 1.96.927.33.79 1.278.956 2.542.762 1.348 2.292 2.18.908.902.83.405.744.738.515.901.787.993.455 1.022-.122 1.383.515 1.533.424 1.985-.238 1.665.313 1.689-.312 1.19-1.765 3.452-.675 1.067-2.252-.045-.58.224-.256.191-.161.384.257.543.386.255 2.606.607 1.195.53.51.653.418.638.45.384 1.222.255.611.288 1.32.927.803.606.45.416.387.607.289.223.547.256.643.128.643.447.354 2.013-.16 3.195" clip-path="url(#pdd6297d314)" style="fill:none;stroke:#000"/><path d="m198.854 497.443-.43-.788-1.373-2.048-.552-1.53-.004-1.178.193-3.28 2.123-2.555 3.41-5.24 6.046-6.452 1.416-2.811.514-3.067-.514-4.025.192-3.003.988-1.174 3.24-2.55 1.31-1.804M148.214 480.12l-.804 2.94M148.214 480.12l.997-1.277M148.214 480.12l-.387-1.405M152.139 500.64l-4.15-13.523-.612-.958.033-3.1" clip-path="url(#pdd6297d314)" style="fill:none;stroke:#000"/><path d="m157.39 485.182-1.158.2-2.684-1.15-1.176-.674-.844-.243-2.768-.127-1.35-.128M144.45 482.74l.772-.192.772.096 1.416.416M149.211 478.843l3.378.032.611.16.516.35.804.224M149.211 478.843l-1.384-.128M128.26 430.991l-.149.412-.064.863.161.351 1.222.767.772.288.836.16.772.446.869.895 1.198 1.727.522.381.084.152.945.575.61.572.436.727-.078 1.005-.093.85.109.587-.257.503.18.44.295.773.14.71.25.341.061.263.467.247.203.665.264.88.311.28-.062.741.342 1.144.327.325 1.292.123.327.201.39.804.7.758.658 1.063.908.933 1.03.571.332 1.112-.333 1.143-.212.962.09.601 1.242 1.804 1.12 1.173-.344 1.17-.561 1.343-.456.338-.074.905-.574.394-.684.85-1.2 1.216-1.087.635-1.717 1.841.307 1.048.93.43.83 1.278.05.572-.027.843-.062 1.037.763.772.482.464.638.31-.046.447-.418.692 2.541 1.565.451.128 1.608.128M118.664 552.22l3.507 3.544 2.724 1.984 3.024 2.492 5.124 1.888 2.114 2.86 1.102 3.413 1.525 2.99 4.03 7.184.736.575 4.025.065 2.83 1.085 2.873 1.889 4.525 1.69 3.603 2.555 2.293 5.53 1.245 5.459.5 1.036.249 1.81 1.616 5.033.203.708M131.775 332.85l.836 1.181.74.927.322 1.246.322.48.36.289M131.775 332.85l-.29-.384M137.054 330.87l-1.415.286-1.316 1.07-2.548.624M128.111 326.205l.16.452.416 1.145.837 1.566 1.961 3.098M123.187 330.933l.45.767 1.094.543 1.898.575 4.856-.352M271.139 390.315l1.635-.658 2.616-1.801 1.058-2.32.748-1.807.554-.968.592-.916 1.234-1.492 2.96-1.181 1.897.51 1.287.192 1.094-.096.58-.287 1.64-.128.964-.48 4.871-3.997M284.029 356.618l.275.712.57.657.275 1.004.258.474.16.44.18 2.08 1.07 1.287 2.051 1.811 1.039 1.799 2.091 4.983.319 1.035 1.14.62 1.412 1.366M128.111 326.205l-.45.288-.665.12" clip-path="url(#pdd6297d314)" style="fill:none;stroke:#000"/><path d="m244.741 255.922-1.093.16-1.576.927-2.123.063-.901.32-3.184 3.802-1.35.923-.708.031-.966-.383-1.93.671-1.125 1.694-.515.35-1.769.32-1.35-.127-1.384.447-1.962.223-.74.512-1.158 1.437-.868.48h-1.48l-1.415.575-2.927.83-.675.447-.804.767-1.094.83-1.03 1.534-.578.671-.837 1.821-.482.32-1.962.83-1.061.608-1.77.223-1.383.415-1.448.096-.738.448-.484.29-.997.447-1.833.575-.965.192-.547.255-1.672 1.438-.483.575-.386.703-.675.64-2.541 1.15-1.64.478-1.416 1.023-.74.894-.546 1.15-.901 1.278-.965 1.022-1.287.958-1.544.959-3.667 1.725-1.833 1.246-1.705.927-.836.575-2.155 1.085-2.316 1.47-.643.16h-1.93l-.805.287-.192.192-1.737.894-1.254.99-2.44 2.371-.52.505-.932 1.533-.612.703-.611.48-4.246 2.523-5.95 3.802-3.828 2.587-1.254 1.023-.997 1.117-2.702 2.684-1.351 1.214-.386.16-1.222-.192-.126.013-.55.051-1.19.895-1.286.288-.869.383-2.477 2.3M118.664 552.22l2.725-.559M128.26 430.991l1.46-4.028 1.028-1.246 1.577-2.939 1.383-1.47.225-.734.129-1.15.04-.524M128.26 430.991l-1.718.255-1.304.078-.515-1.1-.144-1.19-.317-.655h-.342l-.448-.301-.54.578-1.736.543-.547.543-.74 1.246-1.094.799-1.447.576-.386.351-.45.64-.58.319-.578.51-.354.448-.419 1.214-.997.831-.74.383-2.155 1.566-2.09 1.119-2.027.862-3.056 3.42-.708 2.076-.129.64-.064 1.31-1.737 1.885M265.005 254.964l-2.155.287-.9.32-5.975 3.87-.863.93-2.128-2.868-1.295-.111-1.565-.945-.783-.046-2.123.416-1.672-.128-.805-.767M402.608 210.459l.065-1.567M398.153 212.384l1.335-.711 3.12-1.214M454.374 245.7l-.623-.799-1.093-1.374-.226-.32M597.693 191.946l1.974 4.436.322.972.327.713.26.947-.084 1.006-.275 1.528.134 1.03-.01 1.387.658.879.845 1.322.802.691.663 1.047.741.137.58-.135.76.042 1.352.042 1.013.084 1.315.851.8 1.554-.019.656.012 1.504-.927 1.57-.67.54-.969.362-.999.36-.969.722-1.332.33-.908.753-.757.812-1.635.33-1.665.18-1.09.211-1.998.632-1.675.935-.185 2.675.241 2.174.599 5.25-2.992 3.022-1.795 3.814-1.397 1.585-3.89 1.239-4.538.346-2.344.248-3.84-.198-4.14-.297-2.792 1.189-1.446.647-.5 1.492-.537 1.988-.858.888-1.466.604-1.645.284-3.468-.71-2.932.923-3.147-1.207-2.86-.96-2.252-1.278-1.954-.06-1.673-.127-1.305-.365-.938-.402-1.764-.128-1.452.073-2.555.53-.754.11-.827-.201-.8-.12-1.264-.188-1.287.64-.464.393M604.652 171.218l-.227.332-.813 1.542-.75 1.965-.847 2.044-.364 1.023-.205.819-.029.689.086.734.21.78.733 2.146.746 2.1.779 2.27.085.803-.097.684-.364.83-.602.66-1.041.627-1.063.39-.87.192-.944.102-1.115.005-.267-.009M604.652 171.218l-1.335-1.59-1.962-4.217-4.664 1.47M613.588 163.057l-.617.535-3.56 3.027-3.655 3.259-.74.808-.364.532M617.598 172.28l-2.22-5.4-1.79-3.823" clip-path="url(#pdd6297d314)" style="fill:none;stroke:#000"/></g><path id="PatchCollection_1" d="m298.611 581.483 1.293-2.532.222-1.028-1.256-.073-1.146.587-.776-.037-.406-.403-1.662-.037.184.624-1.921-.184-.628.294-1.7.88-1.7.624-.11.697 2.956-.88.997.697 1.922-.11 1.92-.22z" clip-path="url(#pdd6297d314)" style="fill:#00f;fill-opacity:.8"/><path id="PatchCollection_2" d="m328.761 364.5.648 1.533-.552.68-1.086-1.55z" clip-path="url(#pdd6297d314)" style="fill:green;fill-opacity:.8"/><g id="PatchCollection_3"><path d="m343.572 605.96 1.763-.659.967 2.549-1.764.66zM333.09 343.926l-1.398-5.201 4.131-1.095 1.397 5.2z" clip-path="url(#pdd6297d314)" style="fill:#90ee90;fill-opacity:.8"/></g><g id="PatchCollection_4"><path d="m346.72 608.79.444-.395.497.602-.457.325zM158.594 158.505l.922-.784.746.864-.922.784zM166.17 148.21l.412-.429.413.39-.412.43zM166.396 146.155l.451-.472.94.887-.451.472zM167.756 145.658l.392-.31.602.748-.392.31z" clip-path="url(#pdd6297d314)" style="fill:#a9a9a9;fill-opacity:.8"/></g></g></g><defs><clipPath id="pdd6297d314"><path d="M90 106.651h558v513.897H90z"/></clipPath></defs></svg>