<svg xmlns="http://www.w3.org/2000/svg" width="960" height="960" viewBox="0 0 720 720"><defs><style>*{stroke-linejoin:round;stroke-linecap:butt}</style></defs><g id="figure_1"><path id="patch_1" d="M0 720h720V0H0z" style="fill:#fff"/><g id="axes_1"><path id="patch_2" d="M90 627.124h558V100.076H90z" style="fill:#fff"/><g id="LineCollection_1"><path d="m186.242 516.42-.364-1.092M186.242 516.42l2.032 2.38M186.242 516.42l-.343.314-.234.398M186.242 516.42l-.87-.617M187.081 516.143l-.44.08-.4.197M148.379 544.1l-7.277 5.169M148.379 544.1l.607.672M148.379 544.1l6.908-5.004M282.267 449.561l6.399-4.138M282.267 449.561l-5.077-6.844M274.01 455.26l1.22-.842 7.037-4.857M238.886 470.319l4.275 5.476M238.886 470.319l-3.999-5.365M238.886 470.319l-7.824 5.944M182.12 511.714l3.251 4.089M182.12 511.714l-13.964 10.024M182.12 511.714l.73-.53M154.767 530.947l-3.368 1.84M154.767 530.947l-3.427-4.986M165.311 523.735l-4.65 3.325-5.894 3.887M245.935 450.993l2.931 3.805M257.4 465.99l.862.911M257.4 465.99l-8.534-11.192M257.4 465.99l-3.738 2.493-3.556 2.373M257.4 465.99l10.67-6.423M274.264 488.301l-3.2-4.028M274.264 488.301l-13.895 10.18M274.264 488.301l6.739-4.602M264.487 503.488l5.36-3.25 8.513-6.986-4.096-4.95M286.46 427.626l-13.257 9.717M286.46 427.626l15.497-10.726M286.46 427.626l-4.136-5.721M286.46 427.626l3.988 5.516M248.866 454.798l-6.886 5.185M248.866 454.798l10.278-7.37M208.533 486.866l7.197-6.598M208.533 486.866l2.582 3.797M192.707 496.027l3.96-2.419 6.019-2.851 4.403-2.567 1.444-1.324M211.115 490.663l3.82 5.437M211.115 490.663l-14.346 10.398M211.115 490.663l7.891-5.942M214.935 496.1l.903.96M214.935 496.1l-13.875 10.14M224.229 489.43l-4.242 3.045-5.052 3.625M232.225 518.927l-9.37 6.81M232.225 518.927l.911-.666M232.225 518.927l-5.32-6.811M203.228 539.447l11.127-7.672M199.09 532.235l1.26 1.65.978 1.489.481.744.658 1.288.127.37.634 1.67M204.251 546.97l-.162-2.082-.434-3.684-.161-.756-.266-1.001M153.304 565.173l7.046-5.068M153.304 565.173l-12.202-15.904M153.304 565.173l5.107 6.743M199.09 532.235l6.79-5.047M199.09 532.235l-4.49 3.23M199.09 532.235l-2.27-2.755M226.904 512.116l7.053-5.15M226.904 512.116l-6.762 4.886M226.904 512.116l-7.02-9.806M255.14 491.732l-13.975 10.051M255.14 491.732l2.165 2.616M255.14 491.732l-3.057-4.22M234.887 464.954l-7.535 6.044M234.887 464.954l7.093-4.97M243.16 475.795l.842.996M243.16 475.795l-10.608 7.746M243.16 475.795l6.946-4.94M260.37 498.48l-14.138 10.198M260.37 498.48l-3.065-4.132M215.73 480.268l3.276 4.453M227.352 470.998l-8.18 6.623-3.442 2.647M219.006 484.721l12.056-8.458M228.016 486.711l-8.031-1.485-.979-.505M228.016 486.711l-1.192.856M228.016 486.711l1.846-1.204M227.352 470.998l3.71 5.265M231.062 476.263l-1.2 9.244M229.862 485.507l2.69-1.966M241.165 501.783l-7.208 5.184M241.165 501.783l5.067 6.895M241.165 501.783l-3.21-4.175M246.232 508.678l-13.096 9.583M246.232 508.678l3.691 4.852M219.885 502.31l6.937-4.933M219.885 502.31l-4.047-5.25M233.597 492.292l4.357 5.316M233.597 492.292l-3.868-5.254M233.597 492.292l14.432-10.38M233.597 492.292l-6.775 5.085M248.029 481.912l4.054 5.6M248.029 481.912l-4.027-5.121M248.029 481.912l13.995-9.971M262.024 471.941l3.773 5.858M262.024 471.941l-3.762-5.04M262.024 471.941l16.644-11.274M298.497 446.999l-5.744 4.018M298.497 446.999l4.208 5.613M307.146 449.518l-3.877-5.429-4.772 2.91M274.01 455.26l4.658 5.407M274.01 455.26l-5.94 4.307M278.668 460.667l4.274 5.695M292.753 451.017l-11.97 8.217-2.115 1.433M286.775 471.467l-3.833-5.105M317.757 495.945l-1.242-1.404-1.37-.615-3.93-.838-1.902-.862-3.043-2.709-.482-1.133.761-1.01 1.521-1.182 1.32-1.158.557-1.132-.938-1.675-12.451-10.345-1.04-.763-.608.025-4.083 3.276-.795.297-3.257-3.25" clip-path="url(#pcb32334ed9)" style="fill:none;stroke:#000"/><path d="m300.783 461.203-5.245 4.143-8.763 6.121M292.753 451.017l4.34 5.505M292.753 451.017l-4.087-5.594M300.783 461.203l-3.69-4.68M307.146 449.518l2.69 3.732-7.303 6.57-1.75 1.383M307.146 449.518l-4.441 3.094M297.093 456.522l-14.151 9.84M297.093 456.522l5.612-3.91M241.98 459.983l8.126 10.873M265.797 477.799l5.268 6.474M265.797 477.799l-13.714 9.712M252.083 487.511l-14.129 10.097M226.822 497.377l7.135 9.59M220.142 517.002l-7.295 5.075M220.142 517.002l-11.319-14.947M178.755 505.976l13.952-9.949M178.755 505.976l4.095 5.208M164.892 516.447l4.763-3.448 5.726-4.278 3.374-2.745M192.707 496.027l4.062 5.034M196.77 501.06l4.29 5.18M196.77 501.06l-13.92 10.124M201.06 506.24l.768.916M201.06 506.24l-4.411 3.124-5.487 3.888M212.847 522.077l-6.968 5.111M212.847 522.077l5.252 7.116M212.847 522.077l-11.019-14.921M218.099 529.193l-3.744 2.582M218.099 529.193l4.755-3.456M194.788 512.26l5.532 7.446 5.56 7.482M444.786 307.466l-3.054.482-3.157.262M366.437 391.922l5.777-4.654 4.745-4.401 7.147-8.036 26.093-32.163 2.698-3.409 25.678-31.05M282.324 421.905l15.388-10.817M282.324 421.905l-12.88 10.371M265.342 426.747l4.101 5.53M265.342 426.747l-4.387-5.354M294.327 406.5l-15.789 9.707-13.196 10.54M269.443 432.276l3.76 5.067M269.443 432.276l-13.756 9.928M290.448 433.142l-13.258 9.575M290.448 433.142l15.09-10.97M290.448 433.142l5.35 7.403M273.203 437.343l-14.06 10.084M273.203 437.343l3.987 5.374M277.19 442.717l-14.043 10.187M295.799 440.545l-2.701 1.847-4.432 3.031M259.144 447.427l4.003 5.477M255.687 442.204l1.341 1.832 2.116 3.391M263.147 452.904l4.924 6.663M268.07 459.567l-9.808 7.334M258.262 466.901l-14.26 9.89M244.002 476.791l-10.676 7.665M271.065 484.273l6.415-4.566M271.065 484.273l-13.76 10.075M229.73 487.038l3.596-2.582M229.73 487.038l-2.03 1.464M215.838 497.06l4.953-3.573 4.33-3.125M215.838 497.06l-7.015 4.995M208.823 502.055l-6.995 5.1M182.85 511.184l3.028 4.144M194.788 512.26l2.642-1.915 4.398-3.19M194.788 512.26l-2.797 2.015M249.923 513.53l4.368 5.574M249.923 513.53l-12.108 8.575M264.487 503.488l-2.672 1.62-11.892 8.422M185.878 515.328l1.203.815M185.371 515.803l.109.489.185.84M188.684 517.246l-.233-.458-.373-.36-.474-.223-.523-.062M187.081 516.143l4.08-2.891M185.665 517.132l-16.411 11.841M185.665 517.132l-.103.446.034.456.17.426.29.36M188.684 517.246l.96-1.282 2.347-1.69M188.678 518.159l.074-.456-.068-.457M188.678 518.159l1.125 2.55M188.274 518.8l.243-.297.161-.344M186.057 518.82l.364.251.421.144" clip-path="url(#pcb32334ed9)" style="fill:none;stroke:#000"/><path d="m169.932 529.693 14.744-10.613 1.38-.26M186.842 519.215l2.961 1.493M186.842 519.215l.515.017.495-.143.422-.29M237.815 522.105l-9.366 8.002M237.815 522.105l3.737 2.856M237.815 522.105l-4.679-3.844M165.311 523.735l2.845-1.997M165.311 523.735l3.943 5.238M193.01 524.858l-17.373 12.513M193.01 524.858l-3.207-4.15M193.01 524.858l3.81 4.622M196.82 529.48l-3.259.053-1.447-1.823.895-2.852M169.254 528.973l.678.72M169.254 528.973l-6.863 4.974M169.932 529.693l5.705 7.678M169.932 529.693l-7.022 5.054M162.91 534.747l11.442 15.285M162.91 534.747l-.52-.8M162.91 534.747l-7.09 5.103M194.6 535.465l-13.28 9.555M194.6 535.465l.697 9.504M175.637 537.371l5.682 7.649M155.287 539.096l.532.754M155.287 539.096l-3.054-4.955M155.287 539.096l7.104-5.149M155.82 539.85l4.099 5.54M155.82 539.85l-6.834 4.922M148.986 544.772l4.109 5.544M195.297 544.969l-9.14 6.6M201.59 557.291l-3.711-5.612-.458-.697-1.126-2.335-.998-3.678M181.32 545.02l-6.968 5.012M181.32 545.02l4.837 6.55M159.919 545.39l-6.824 4.926M159.919 545.39l3.076 4.16M162.995 549.55l-6.703 5.08M162.995 549.55l4.178 5.646M174.352 550.032l-7.18 5.164M153.095 550.316l3.197 4.314M186.157 551.57l-6.97 5.033M186.157 551.57l8.648 10.494M125.061 561.612l2.387-1.912M125.061 561.612l20.905 8.87M125.061 561.612l-6.796-3.58M204.807 554.115l3.952 53.431M204.807 554.115l-.556-7.145M201.59 557.291l1.473-1.327 1.744-1.85M156.292 554.63l4.058 5.475M167.173 555.196l-6.506 4.68M167.173 555.196l2.52 3.365M201.59 557.291l-6.785 4.773M169.692 558.561l2.38 3.179M160.667 559.876l2.51 3.43 6.515-4.745M160.667 559.876l-.317.229M172.073 561.74l7.113-5.137M172.073 561.74l.16.214M172.233 561.954l-13.822 9.962M188.347 566.604l-8.505 5.98-7.61-10.63M145.966 570.482l8.206 3.51 2.13-.79 2.109-1.286M444.786 307.466l4.68-2.689 4.769-3.645 11.46-9.853 5.174-5.419 3.246-1.38 2.84-1.673 3.55-2.957 3.652-1.772 4.564-2.267 4.16-2.857 2.84-4.138 2.94-1.872 2.84-1.773 1.725-3.942 3.145-3.152 4.564-5.025 3.651-4.434 2.435-4.63 4.26-6.7 2.739-5.024 2.84-2.66 4.26-2.563 5.274-6.502 8.724-11.922 4.158-8.08 2.13-2.955 2.74-1.97 1.216-3.646 2.942-5.715L559.42 183l-.203-5.912.81-6.7 1.42-4.04 2.74-4.827 1.318-3.449-.203-3.35-.912-4.237-.508-1.872-.253-3.03.203-1.429.202-1.181.04-1.244.557-1.953 1.483-2.124 2.536-1.478 6.238-2.365 2.942-1.084 3.398-2.956 9.635-7.734 6.086-5.715 4.261-4.237 2.738-1.872h1.522l4.158 1.774 1.42 1.97 3.145 3.547 1.826 2.168 7.201 5.025 4.666.271 6.036-.049 3.347.197M255.325 268.865l.406-2.167.761-2.463 2.638-4.336 1.978-2.906 2.332-2.365 2.739-1.822 1.115-1.576 2.283-1.627 5.072-3.694 4.513-3.497 2.637-2.415 4.21-5.861 1.623-2.07 2.89-2.857 3.246-5.764.66-2.709.405-2.217.761-1.428 1.42-.838 3.195.246 2.638.541 2.535 1.725 1.37.788 4.362 1.084 5.223.64M255.325 268.865l-1.115-2.462-2.181-3.942-2.08-3.35-1.166-1.527-2.079-.739-1.623-1.034-1.978-.69-2.587.64-1.318 1.971-1.927 3.695-2.587 5.566-1.369 2.66-.355 1.133-.61 4.582-.607 1.921-.862.74-2.587.294-1.775-.147-2.587.69-1.775.295-4.665-.788-6.34-.295-1.775-.543-1.116-1.429-.71-1.92-1.37-3.596-.658-.592-3.703-1.576-3.905-1.823-3.093-1.773-2.283-1.725v-1.23l.203-2.267.557-2.364-.05-1.725M270.783 405.854l-4.325-5.741-1.954-.855-.912-4.285-1.724-7.833-1.47-6.6-1.776-6.75-2.079-8.029-1.522-7.34-.71-1.33-2.789-2.364-1.521-2.02-.761-1.625-1.928-1.182-1.47-.838-.356-2.02-.354-1.674-.913-1.33-1.37-2.217-1.572-3.005-.76-3.3-.71-1.527-1.37-1.478-.862-1.625-.304-2.365.456-2.266 1.015-3.744.608-2.759.405-4.63.356-4.237.71-6.01.203-4.925.202-2.464.863-1.428.405-2.562.558-2.167.913-2.858 1.116-2.118 3.195-2.906 1.623-1.084 1.876-3.941 1.116-1.921 1.522-2.71.558-1.28.202-1.38.152-2.266M288.576 400.303l1.946-2.498 11.767-12.511 10.143-10.74M294.327 406.5l-2.69-2.907-2.155-2.636-.906-.654M270.783 405.854l13.882-9.534.913.64 2.998 3.343M274.623 410.95l12.913-9.468 1.04-1.179M297.712 411.088l-.444-.6-2.941-3.989M310.911 430.262 295.8 440.545M310.911 430.262l9.65-6.608M310.911 430.262l-5.373-8.09M189.803 520.708l-1.53-1.908M208.759 607.546l32.438 9.443M164.892 516.447l-13.552 9.514M168.156 521.738l-.9-1.953-2.364-3.338M249.316 420.827l-4.463 3.743-.583.985.177.641 3.074 3.883M255.687 442.204l-1.299-1.772-6.867-10.353" clip-path="url(#pcb32334ed9)" style="fill:none;stroke:#000"/><path d="m260.955 421.393-4.26 2.882-5.579 2.98-3.595 2.824M254.291 519.104l.802 1.023 1.688.57M243.716 526.615l10.575-7.51M243.716 526.615l-2.164-1.654M297.457 557.99l-6.833-3.922-1.166-.37-10.448.296-4.462-1.183-2.511-.554-1.18-.701-1.052-.912-1.623-2.142-4.539-7.389-.811-.96-16.474-11.615-2.642-1.923M264.487 503.488l3.524 5.019-13.72 10.597M228.45 530.107l-5.596-4.37M241.552 524.961l-6.487 9.01-.71.271-.964-.32-4.942-3.815M141.102 549.269l-7.024 5.123M141.102 549.269l-3.597-4.973M137.505 544.296l-7.478 4.542M152.233 534.141l-3.487 1.579-11.241 8.576M151.399 532.786l.834 1.355M138.235 538.012l3.633-1.017 6.171-2.376 3.36-1.833M233.326 484.456l-.774-.915M226.824 487.567l-2.595 1.862M226.824 487.567l.876.935M227.7 488.502l-2.579 1.86M224.229 489.43l.892.932M191.162 513.252l.829 1.023M301.957 416.9l3.581 5.271M297.712 411.088l3.207 4.327 1.038 1.485M138.235 538.012l-1.002-2.046 14.107-10.005M145.966 570.482l-11.888-16.09M126.19 541.108l-9.843 2.641M138.235 538.012l-2.539.711-9.506 2.385M130.027 548.838l-1.845-2.53-1.077-2.015-.915-3.185M134.078 554.392l-6.63 5.308M134.078 554.392l-4.05-5.554M100.73 547.941l4.826-1.295M130.027 548.838l-6.74 5.254M116.347 543.75l-10.79 2.896M123.287 554.092l-6.594-8.964-.346-1.379M123.287 554.092l-5.022 3.94M123.287 554.092l4.161 5.608M105.556 546.646l3.023 1.486 5.68 6.847 4.006 3.054M179.186 556.603l9.161 10M188.347 566.604l6.458-4.54M343.365 408.038l20.453-14.006 2.619-2.11M404.913 411.073l-1.218-.394-2.028.075-2.408-1.085-1.65-.787-.937-1.33-.736-.936-2.104-.518-4.616-3.054-1.623.05-2.738.197-2.409-.567-2.003-.837-1.623-1.035-1.268-1.872-.736-1.132-1.166-.641-2.333-.69-2.308-.837-3.195-2.093-1.377-1.665M344.434 408.782l16.66 11.577 3.474 1.256.812.862 4.666 3.472 2.865 1.848 4.387 3.817M343.365 408.038l-13.44 9.204M343.365 408.038l1.069.744M329.924 417.242l.64.604.988-.27 12.882-8.794M329.924 417.242l-.313.216M320.561 423.654l1.112-.761M342.456 425.753l-4.032 3.226-3.93 3.202-13.933-8.527M329.61 417.458l-7.937 5.435M321.673 422.893l.826.594 2.055-.025 2.51-.813 1.546-1.157.863-1.503.33-1.626-.192-.905M270.783 405.854l-13.91 10.244M270.783 405.854l3.84 5.096M274.623 410.95l-13.668 10.443M260.955 421.393l-4.082-5.295M256.873 416.098l-4.641-5.616M218.273 537.348l-3.918-5.573M204.251 546.97l2.21-.956 11.812-8.666" clip-path="url(#pcb32334ed9)" style="fill:none;stroke:#000"/><path d="m232.097 557.761-.227-.861-1.776-2.734-11.821-16.818M356.327 492.373l9.94-6.649 12.527-6.797 12.07-6.7M317.782 525.967l7.152 5.024 3.449 3.644M304.597 577.883l-8.775 8.915M295.822 586.798l6.72 3.866 2.917 4.606 2.053 2.093M295.822 586.798l-1.039-.198M294.783 586.6l.76 5.197-.253 2.143-1.497 3.718M286.693 569.879l3.374 5.59 4.716 11.131" clip-path="url(#pcb32334ed9)" style="fill:none;stroke:#000"/><path d="m292.652 562.81-2.433.32-2.258.912-1.597 1.773.102 1.748.227 2.316" clip-path="url(#pcb32334ed9)" style="fill:none;stroke:#000"/><path d="m279.898 575.198 4.057-1.871 2.105-3.08.633-.368M327.977 512.077l7.531 5.319 15.19 10.738M290.396 566.037l2.256-3.227M297.457 557.99l.926.954-.05 1.059-.634.911-1.724.591-1.75.468-1.573.837M309.516 549.166l-4.793 4.507-1.597.37-2.866 1.576-1.75 1.38-1.053.99M312.407 546.359l.862-.763.253-1.355-.304-1.429M309.516 549.166l1.04-1.526 1.85-1.281" clip-path="url(#pcb32334ed9)" style="fill:none;stroke:#000"/><path d="m317.782 525.967-5.933 6.058h-1.37l-.912-.887-1.167-.098-.443.296-.381.899.266 1.145 1.446 7.24.215 1.724 2.904 4.015" clip-path="url(#pcb32334ed9)" style="fill:none;stroke:#000"/><path d="m327.977 512.077-5.326 8.767-4.869 5.123M327.977 512.077l-13.035-10.221M342.33 491.192l-1.522 3.152-10.194 13.742-2.637 3.99M309.516 549.166l-4.464-3.694-4.31-2.463-2.485-3.448-.203-2.856.102-2.365-3.754-3.595-4.006-4.433M342.33 491.192l-13.643-11.33" clip-path="url(#pcb32334ed9)" style="fill:none;stroke:#000"/><path d="m356.327 492.373-6.593 4.779-7.405-5.96M356.327 492.373l-21.2-17.387M327.013 467.893l8.114 7.093M328.687 479.863l3.297-.592 3.143-4.285M317.757 495.945l5.553-8.891 3.55-5.664 1.827-1.527M314.942 501.856l2.815-5.91M295.112 520.598l1.65-.616.633-1.158 1.014-5.516-.913-3.645-1.318-3.497v-.838l5.122 1.231 5.934 1.774 6.263-4.531 1.445-1.946" clip-path="url(#pcb32334ed9)" style="fill:none;stroke:#000"/></g><g id="PatchCollection_1"><path d="m82.495 610.016-.617-1.325.13-1.216-.784-.907.262-.527 3.925.308 1.87-1.034 1.214 1.361-1.027 3.558-1.104 1.343-1.551.945-1.682-.02zM438.872 96.542l.888 1.257 2.917 3.03.354-.517.406-.863 1.167-.935.735-.986-.101-.96-.508-1.848-1.546-.665-1.065-.098-1.699.936zM497.226 171.565l.515 1.318.011.676-.804 2.254-.763-.523-.303-1.384.022-2.223zM316.01 831.224l-.826-1.474-.789-1.996.25-.99 1.307-.616 4.67-.205 1.114.877.54 1.474.556 1.307.788.989 1.595-.02.596.524-.404.485-1.806.354-1.154-.447-1.883-.206-1.73.094-2.632.112zM327.165 386.838l-1.242-.788-.254-.96 2.587-.666.963-1.478 1.496-1.182.888-1.108.532 1.354-.33 2.143-.304 1.429-.076 1.083.431.96-.151.765-1.75 1.748-1.598 1.256-.228.96.304.444 1.293 1.429-.253 2.808-1.471 1.132-1.496.37-.66-.246-.329-.567.735-.861.964-.37-.609-1.38-.026-1.92-.227-1.527-.812-.517.305-.936 1.521-.272.203-.887-1.395.05.609-1.28z" clip-path="url(#pcb32334ed9)" style="fill:#00f;fill-opacity:.8"/></g><path id="PatchCollection_2" d="m198.797 548.425.404-.943.495-.588-.238-.375-.33.036-.79.357-1.998-.517-.11-1.05.477-.732-.422-1.086.256-1.96.862-1.603.459.303.183.73.624.784.532.285-.073-.962-.202-1.033-.33-1.105-.77-.694-.423-.73-1.779-.161.055-1.122 1.248-.25.752-.302.825-.624.697-.178.752.534-.22.445-.404.482.22.712.477.446-.055.64.954-.017 1.614.873-.073.623-1.174.161-1.137.232.019 1.336.917.445.256-1.034.074-.409 1.485-.018.322.971-.23.579-.771.463.57 1.158.384 1.586-.422.39-.788.055-.404-.018v1.728l-1.164.207-.47 1.022 1.155.228.57.983-.815 1.161-1 .304-.306 1.086-.834.121-.824-.7.532-.622.865-.647-.482-.892.407-.701z" clip-path="url(#pcb32334ed9)" style="fill:#006400;fill-opacity:.8"/><path id="PatchCollection_3" d="m220.515 484.4-.226.21-.036.264.148.193 8.014 1.187 1.126-.758 1.109-7.726-.1-.238-.325-.15-.38.185z" clip-path="url(#pcb32334ed9)" style="fill:green;fill-opacity:.8"/><path id="PatchCollection_4" d="m278.984 442.643 2.168 3.24 2.446-1.646-2.085-3.187z" clip-path="url(#pcb32334ed9)" style="fill:#90ee90;fill-opacity:.8"/><g id="PatchCollection_5"><path d="m319.457 223.128.823.438.393-.696-.824-.439zM-133.195 668.53l.342-.835-1.126-.434-.34.835zM-131.134 666.328l.328-.283-.398-.434-.328.283zM-52.795 669.488l-.237-.827.6-.163.237.828zM-43.096 674.012l-.028-.698.634-.025.028.699zM-42.815 677.626l-.019-.522.59-.02.02.522z" clip-path="url(#pcb32334ed9)" style="fill:#a9a9a9;fill-opacity:.8"/></g></g></g><defs><clipPath id="pcb32334ed9"><path d="M90 100.076h558v527.049H90z"/></clipPath></defs></svg>