<svg xmlns="http://www.w3.org/2000/svg" width="960" height="960" viewBox="0 0 720 720"><defs><style>*{stroke-linejoin:round;stroke-linecap:butt}</style></defs><g id="figure_1"><path id="patch_1" d="M0 720h720V0H0z" style="fill:#fff"/><g id="axes_1"><path id="patch_2" d="M90 600.12h558V127.08H90z" style="fill:#fff"/><g id="LineCollection_1"><path d="m399.181 445.053-11.118-31.338M399.181 445.053l2.378 6.615M413.551 440.126l-.32.149-2.544.739-4.705 1.755-6.801 2.284M311.843 196.658l1.931 5.397 6.158 17.538 11.572 33.51M365.421 349.616l-7.015-20.123-26.902-76.39M586.992 162.47l-2.305.44-4.32.126-15.65-1.196-14.53.63-6.88.818-5.025 1.51-7.168 3.84-2.753 2.392-2.112 2.643-4.097 3.84-4.8 6.545-5.505 7.112-2.88 2.895-2.528 2.014-3.425 1.448-6.144 2.391-15.714 6.106-2.08.63-1.537-.127-3.776-.566-3.264.315-1.665 1.133-1.472 2.642-.736.63-1.536-.252-2.528-1.385-2.497-1.761-1.248-.315-7.713.944-4.416 1.447-13.154 4.972-17.62 6.207-.462.163-15.33 5.4-3.04 1.447-2.496 2.392-1.792 1.385-13.666 5.034-47.624 16.744M412.903 483.932l5.445 15.416.596 1.709.48 1.643.384 1.597.364 2.01.284 2.222.155 2.533-.107 3.092-.345 3.517-2.826 22.106-4.04 32.102-2.22 18.206-.125.939M637.27 300.97l-2.825-8.542-4.185-10.943-2.175-6.356-.705-2.895-2.048-5.602-2.656-5.35-1.056-2.391-1.088-4.72-2.369-10.07-1.408-7.804-3.072-13.028-.832-5.224-1.569-4.532-2.08-3.02-.832-2.077-1.024-2.896-1.472-2.266-2.784-4.09-3.233-5.602-1.28-3.336-2.56-6.608-2.496-6.798-2.113-5.539-2.048-3.965-2.368-4.846M311.843 196.658l-57.239 20.192-47.62 16.49-37.253 12.586-33.924 12.022-35.076 12.398" clip-path="url(#p7f2814ae58)" style="fill:none;stroke:#000"/><path d="m297.263 155.907 1.01 2.825 13.57 37.926M412.903 483.932l-.617-1.747-4.48-12.514-4.09-12.227-2.157-5.776M366.35 372.562l-4.707 1.392-8.083 2.61-8.526 2.99-1.617.65-3.658 1.483-7.94 3.36-1.177.399-5.184 1.156M373.153 370.01l-.914.373M389.78 363.937l-7.063 2.843-1.567.504-6.446 2.207-1.551.518M373.153 370.01l-3.31-9.466-.322-.847-.41-.659-.662-.736M376.798 380.11l-1.697-4.828-1.948-5.273M338.68 393.376l25.85-8.865M376.798 380.11l1.037-.399M376.798 380.11l-.927.379M376.798 380.11l1.97 5.731M371.68 387.98l5.922-2.26M371.68 387.98l1.42 4.04M371.68 387.98l-1.844-5.288M377.602 385.72l.216.632 1.512 4.214M377.602 385.72l-1.731-5.231M373.97 395.04l-.84-2.624-.03-.396" clip-path="url(#p7f2814ae58)" style="fill:none;stroke:#000"/><path d="m379.33 390.566-4.503 1.57-.584.17-.513.063-.352-.134-.278-.215M380.33 390.185l3.804-1.469.279-.164.167-.302.106-.327-.19-.602M378.769 385.841l1.074-.378M378.769 385.841l1.561 4.344M384.54 377.278l-6.705 2.433M383.223 373.619l.792 2.362.524 1.297" clip-path="url(#p7f2814ae58)" style="fill:none;stroke:#000"/><path d="m379.843 385.463 6.51-2.204.338-.259.114-.23.04-.248-1.687-3.88-.619-1.364M372.239 370.383l-.602.44-.51.22-4.777 1.519M369.836 382.692l-1.514-4.152-1.972-5.978M381.153 392.532l-.823-2.347M397.181 389.474l-.28-.22-.128-.355-.296-1.714-.112-.079-.21.048-2.66.905-7.995 2.973-4.347 1.5M381.153 392.532l1.91 5.424M378.051 393.192l1.898-.899M379.95 392.293l4.334 12.415.228.54.188.438.332.601.657.633M379.95 392.293l-.62-1.727M368.449 358.302l-.148-.424M368.449 358.302l.057.901.1.726.05.187M372.239 370.383l3.632 10.106M368.656 360.116l.213.793 3.37 9.474M375.87 380.489l-6.034 2.203M385.689 406.92l.67 1.967M385.689 406.92l.08-.839-.141-.733-.353-1.138-.526-1.466M379.843 385.463l-.515-1.469-1.493-4.283M369.836 382.692l-5.305 1.82M387.42 401.762l.272.125.408-.016 2.417-.794.6-.079 1.08.252 1.28.613 2.792 1.59 1.008.959.472.008 4.513-.88.552-.355 2.368-2.218.96-.166 5.793-.361 3.128-.52 2.208.347.584-.095 10.321-3.477 2.065-.786 1.264-.323 2.889-1.094 2.4-1.266.88-.3 5.272-1.58 2.84-1.338.993-.55 1.384-.37 3.24-1.651 3.032-1.267 3.633-1.345 7.089-3.068 1.632-1.392 1.952-1.4 6.48-4.949 1.193-1.235 3.16-2.187.64.008 2.169.566 1.44-.07.656-.284.656-.472 1.073-1.1.856-.355.528-.047 1.944.606 2.776.48 3.496 1.046 1.92.432 1.28.417.537.032.68-.158 5.944-1.935 34.509-11.91 7.008-2.462.376-.394.216-.456.048-.566-.36-1.518.217-.984.847-1.982.169-1.18-.056-.535-2.345-5.105-2.024-3.792-.192-1.196-.568-1.408-.864-1.88.072-.22.216-.213 1.736-.417 10.177-3.5.456-.48.576-1.668.24-.33.288-.174.352-.079 1.353.071.544-.196 3.104-1.629 1.712-.999.384-.047.304.11.297.3.647 1.093.392.117h.472l.584-.117 10.042-3.54.968-.496 9.025-2.824 4.809-1.77.591-.41 1.265-1.21.584-.386 1.28-.496.432-.023 1.528.487.88-.086 1.96-.881 2.88-.976 4.297-1.667 9.865-3.407 19.807-7.359M387.42 401.762l-2.671.982" clip-path="url(#p7f2814ae58)" style="fill:none;stroke:#000"/><path d="m395.437 400.384-1.488-.566-.576-.189-.385.063-5.569 2.07M384.749 402.744l-1.686-4.788M569.337 363.903l-.424.405-4.673 3.383-4 3.021-.384.204-.4.032-.432-.267-.4-.488-.32-.394-.337-.236-.336-.062-.431.141-5.361 4.516-.16.33v.598l2.768 9.88-.032.346-2.272 1.385-.336.236-.368 1.416-.176.204-.513.346-1.248.488M454.884 421.939l.304.173.416.33.344.118.416.016 1.064-.291 1.424-.449.44-.087.472.032.912.212 1.48.433.385.04.584-.056 3.584-1.368 2.832-1.07.816-.22.785-.119 1.08-.188.872-.142 1.016-.07 3.065-.08 2.032-.204 1.184-.086.92.016 1.784.141.736.063.408.134.424.117.224-.086.688-.708.696-.409.969-.291.711-.102 1.185.015.84-.283.704-.243.44.007.552.087.496.22 1.472.527.864.213.704.07h2.113l.543-.18 2.145-.818 2.416-.716 2.008-.858 1.352-.401.657-.142 1.752-.676 2.48-.928.824-.441.936-.724 1.04-1.297.6-1.031 1.057-2.053 1.4-2.777.352-.512.68-.857.36-.606.56-1.07.784-1.014 1.024-1.11.528-.4.72-.418 1.249-.519.656-.338.44-.07 1-.197.744-.236 1.168-.307 1.6-.74 1.68-.637.496-.126.657.032.367-.095.513-.44.528-.204 3.248-1.228 2.72-.88 5.089-1.92 4.112-1.448 1.536-.527.16-.055M619.56 365.496l-3.778 1.332-1.068.283-.644.108-1.766.04-.287.027-.343.202-.314.606-.301.269-.672.188-3.135 1.09-1.629.7-4.408 1.549-4.163 1.373-1.71.726-.904.552-.78.539-.384.62-1.15 2.597-.507 1.279-.123.525-.274.242-.657.458-1.15.619-.876.31-1.177.188-1.22.08-1.217-.04-1.26-.296-.808-.31-.849-.565-1.615-1.548-.233-.174-.315-.068-.41.013-1.767.512-3.779 1.225-.766.283-.123.12-.055.257.096.242.328.511.274.687.438 1.373.178.646v.229l-.137.323-.246.175-.425.148-.643.242-.917.606-1.821 1.293-1.74.982-1.587 1.198-1.944 1.265-1.698.835-.78.323-.343.094-1.15-.014-1.492.028-1.054.121-.944.161-.7-.134-.889-.27-.561-.013-.89.121-1.37.43-1.382.566-.466.054-.328-.242-.164-.377-1.084-3.623M413.551 440.126l1 .377.392.142.344.023.368-.102.76-.299 1.105-.826 1.68-1.526.176-.236.12-.472.016-.354-.08-.495-.265-1.29-.015-.41.151-.362.24-.251.304-.189 1.52-.456 2.761-.968 2.049-.684 2.144-.771 1.552-.582 2.28-.732 3.008-1.077 5.17-1.849 2.967-.904 2.048-.716 3.033-1.228 1.712-.644 1.72-.543 1.56-.441 1.169-.33.344.008M479.037 402.325l-1.479 3.998-.355 1.628-.247 3.043-.192 1.184-.37.808-.492.565-1.04.632-1.592.938-.504.516-1.45.525-8.065 2.72-7.68 2.718-.687.339M413.551 440.126l.112-.15-.04-.291-.104-.338-.136-.252-1.296-2.352M436.545 480.11l.417.864M412.903 483.932l2.312-.763 2.209-.692 1.8-.527.904-.268 2.288-.802.704-.22.384-.055.392.031.4.095.328.134.32.196.272.244.64.747.809.81.664.59.872.653 1.352 1.015.384.393.952 1.086.392.33.4.189.296.055.528-.063.472-.236 1.408-.779.377-.11 1.776-.299.464-.252.32-.448.2-.614.032-.801-.176-1.18-.416-1.417M383.063 397.956l4.07-.592.631-.032.152.047.096.135.096.589M361.305 377.745l.576-.11.288-.024.216.11.184.252.184.362.664 2.257.464 1.62.65 2.3M386.36 408.887l-1.652.71-3.257 1.612-.408.275-.24.276-.168.338-.264 1.66-.144.936-.176.4-.144.237-.256.275-.272.15-2.168.487" clip-path="url(#p7f2814ae58)" style="fill:none;stroke:#000"/><path d="m388.063 413.715-1.492-4.209-.211-.619M388.063 413.715l2.574.01 3.632.127.848-.032.56-.204M368.656 360.116l-2.842.924-.521.094-.48.04-.835-.174-.56-.175M367.546 355.712l-2.125-6.096M367.546 355.712l.755 2.166M368.301 357.878l3.482-1.025.41-.174.26-.256.945-1.252.041-.552-.205-.296-.438-.377-.315-.067-.74.242-3.094 1.157-1.1.434M569.337 363.903l-1.48-5.327-.445-1.251-1.267-3.184-.185-.215-.315-.088-.588-.148-3.012-.902-2.102-.652-.404-.25-.219-.376-.445-.525" clip-path="url(#p7f2814ae58)" style="fill:none;stroke:#000"/><path d="m595.064 352.713-.292-.188-.96-1.086-.48-.3-.385-.046-.575.031-2.193.3-1.024.235-1.12.22-1.088.079-1.952.598-2.193.377-1.104-.015-1.088-.205-1.344.047-.96.205-1.312.519-.576.41-.8 1.022-1.76 1.699-.785.503-.608.488-1.024 1.133-.544.897-.864 2.91-.576 1.243-.12.114M619.985 365.334l-.424.162M614.877 354.906l1.069 2.055.849 2.262.685 1.629.547 1.4 1.068 2.22.466 1.024" clip-path="url(#p7f2814ae58)" style="fill:none;stroke:#000"/><path d="m595.064 352.713.268.173.784.362.352.315.24.456.96 2.266.448 1.085.32 1.306.176.913.224.33.432.11.72-.047 1.905-.566 4.656-1.51 7.505-2.675.823-.325M595.064 352.713l1.359-3.182 5.846-12.196-.014-.47M297.263 155.907l-18.28 6.363-3.804.407-.897-.054-5.138-.816-7.501 1.333-1.468.461M297.263 155.907l17.409-5.923 34.003-11.633 4.73-2.175M365.421 349.616l7.635-2.925" clip-path="url(#p7f2814ae58)" style="fill:none;stroke:#000"/></g><g id="PatchCollection_1"><path d="m576.968 346.139-.178.215-.137.256v.269l.274 1.063-.137.242-.547.189-.165.229.137.23.233.174 1.232.525.15.228-.095.27-1.04 1.077-.316.7-.177.525.15.229.452.282.52.067.274-.04 1.451-.511.684-.417.179-.216.04-.27-.068-.269-.246-.498.055-1.897-.041-.27-.233-.511-.082-.27-.042-.538.083-.538.424-1.306.26-.472.219-.188.452-.282-.11-.081-.246.148-.274.108-.561.04-.835-.296-.233-.162-1.205-2.477-.096-.538.014-.538.055-.27.548-1.292-.083-1.629.138-.228.547-.122.849-.013.534-.108.246-.108.165-.215.315-.754.287-.485.356-.417.219-.148.78-.31.78-.188.453-.296.383-.39.479-.23.273-.067.412.068 1.328-.216.547-.04.794-.202.52.135.26-.014.466-.269 1.328-.162.753-.296.233-.148.192-.202.068-.283-.013-.847.054-.27.178-.511.192-.216.78-.148.589-.282.219-.175 1.164-.714 1.108-.834.234-.121.78-.095.876.013.273.055.78.255.48.23.657.524.972.404.26-.014.713-.471.615-.565.356-.444.562-.956.37-.444.479-.297.246-.094.794-.08.507-.297 1.383-1.426.342-.418.3-.471.535-.646.917-.579.274-.08.26-.014.548.12.26.095.246.148.397.364.685.444.246.094.794.176.548.026.808-.067 1.068-.202.246-.121.205-.175.453-.579.205-.188.465-.283.26-.08 2.191.228.52.175 1.219.592.52.067.561-.053.562-.148.739-.283.479-.256 2.355 1.077 2.095.62.643.39-.11.376-.246.498-.356.445-.438.363-.753 1.037-.192.565-.602.943-.383.43-1.123-.161-.548-.216-.547-.134-.576.161-1.862 1.4-1.943 1.185-.493.35-.548.188-1.122.108-.412-.43-.547-.216-.575.135-.958.646-.712.888-.411.404-.466.323-1.04.458-.438.35-1.725 1.75-.603.969-.794 1.454-.876 1.427-1.451 4.953-.22.512-.355 1.077-.164 1.588-.192.512-1.095 3.85-.301 1.292-.192.511.11.404.602-.027.246-.484.082-1.077.302-1.077.465-.97.548-.941.711-1.481.33-.485.246-.485.11-.538.109-1.077.328-1.05.274-.458.41-.35.877-.619.384-.404.273-.457.438-1.023.164-.512.302-.458.903-.592.41-.35.494-.996.466-1.588.219-.485.849-1.4.41-.404.465-.242.493-.188.521-.108 1.04.188 1.096.054.52-.161.41-.404.466-.297.493-.242.547-.162 1.37-.188.438-.323.3-.457-.52-.189-.574.107-.301-.457.164-.538.465-.297 1.67.054 1.068-.188.986-.377.959-.458.849-.7.355-.43.575-.943.22-.484.3-.458.357-.404.52-.161.493-.27.794-.754.301-.484v-.539l.164-.511.904-.592h.548l.52.107.493-.215.383-.377.273-.458.138-.565-.055-1.642.301-.458.465-.323.33-.431.245-.485.466-.242.383-.404.165-.538-.055-.538-.712-1.509.055-.538.575-.942.164-.512-.219-4.684.41-.996.33-.431.451-.324-.41-1.157-.945-.162-.288.068-.452.31-.328.457-.233.498-.561 1.589-.151.538-.055.539.041 1.077-.081.538.026.27.357.74.219.78-.329.754-.917 1.414-.178.538-.192 1.09-.11.256-.287-.054-.205-.202-.288-.067-1.054.377-.26.135-1.164 1.01-.26.78-.684 1.548-.329.458-.233.148-.26.108-.575.067-2.273-.58-.465-.336-.548-.201-.849-.055-.821.189-.589-.013-.862-.148-.877-.23-.862-.309-1.684-.363-1.123.363-1.013.552-.438.377-.397.417-1.178.795-.273.08h-.561l-.808-.296-.794-.417-.726-.889-1.451-.713-1.328-.027-1.027.31-.246.673-1.67 2.208-.466.995-.165.23-.219.188-.246.148-1.232.296-.52.215-.685.525-.589.62-.219.175-.274.08-.26-.107-1.396-.323-.849-.054-.575-.094-.917.027-.466-.162-1.369.7-.589.848-1.013 1.01-.438.363-.273.094-.89.027-.576-.363-.958.525-.39.976-.48.296-.43.747-.069.256-.041.807-.343.122-.67-.553-.288.041-.547.202h-.302l-1.04-.525-.288-.094-.274-.067-.575.026-.273.095-.493.31-.616.726-1.397 1.077-.479.296-.26.108-.561.108-1.137.067-.287.067-.123.243.04.269.124.242.055.269-.055.27-.219.188-.835-.067-.575.013-.41.323-.562.673-.26.498.027.27.082.255.096.821-.15.216-.206.188-.698.498-.192.229-.055.27.014.255.233.74-.288.593-.315.457-.219.202-.766.404-.904.068-.562-.162-1.136-.04-.26.107-.233.162-1.136.902-.506.256-.288.04-.26-.122-.479-.336-.561-.107-.288.013-.246.148-.151.31.37.404.78.592 1.054.202.26.107.356.418.425.7.37.404.739.377.547.134.507.215.547-.107.247-.121 1.109-1.239.493-.66.246-.12.274-.028.26.04.233.122.191.202.124.242.191.202.233.135.794.215.219.148.082.256zM495.384 395.083l-.082.538.164.512h.548l1.068-.215 1.916-.916 1.315-1.023 2.683-.592 2.19-.404.521-.189.41-.35.192-.511.493-.242.493.215.52.08.548-.107 1.999-1.05 1.533-.512.52-.053.548.08.766.781.138.539-.11 1.077.274.457.41.377.028.539-.274.484.438.35 1.068.08.411-.376v-1.077l.41-.996-.163-.539-.055-.565.274-.484.109-.539-.22-.511-.588-.478-2.533-.949-.821-.808-.274-.484-.191-.539.164-.565.246-.485-.055-.538h-.574l-1.096.215-.438.377-.575 1.588-.41.404-.494.243h-.575l-1.67-.404-.548.108-1.068.457-.547.108-1.013-.62-.383-.43-.274-.512-.274-1.05-.465-.322-.357-.458.055-1.642-.466-.297-.547-.107-.575.107-.52.243-.329.457-.055.512.11.538.684 1.481.138.538.109 1.589-.11.538-.767 1.48-1.615 1.643-.958 1.346-1.26 1.158z" clip-path="url(#p7f2814ae58)" style="fill:#006400;fill-opacity:.8"/><path d="m577.584 355.615-.247-.485.055-.538.493-.188.493.188.301.565 1.04-1.184.74 2.423-.575 2.692.137 1.104.274.458.52-.189.137-.538.247-.485 1.013-.485.219-.51-.493-1.024-.028-.592.329-.458.52-.107 1.835 1.103 1.04.135h1.123l.548-.108 1.04-.404.822-.726.164-.54-.137-1.615.329-.43.985-.539 1.561-.484.356-.404.438-.323.548.053.657.89.466.268 1.04.162.903 1.346.794 1.427.192.511-.054.54-.384.43-1.095.43-.41.431-.33 1.077-.136 2.154-.466 1.023-.74.835-1.067.404-1.096.053-1.724-.108-.575.081-.52.216-.247.511-.082.539.082.538 1.095 1.238.493.997v.565l-.356 1.05.055.538.41.35.959.485.712.807 1.314 2.773-.219.512-.52.215-1.123-.026-.493.269-.246.484-.028.539.193.511-.274 2.315-.274.512-.904.673-.575.054-.548-.108-.547-.242-.466-.323-1.04-1.346-.767-.835-2.902-1.777-.11-.538.246-.485-.191-.538-.438-.35-.329-.458-.027-.538.985-1.346.192-.512-.11-.538-.383-.404-.958-.7-1.178-1.239-1.642-1.561-.466-.323-.548-.08-.547.241-.055.54.22.51.465.296.356.377.246.485.028.538-.192.54-1.972 2.018-.164.539-.082.538-1.287 2.45-.63.942-1.314 1.104-.63 1.534-.356 1.077-.192 1.078.11 1.992-.137.538-.247.485-2.245 2.072-2.273.458-.492.27-1.397 1.157-.137.539-.602.376-.575-.08-.028 1.507-.274.458-.82.807-.52.243-.548.027-.494-.323.247-.485.383-.377.22-.484.054-.539-.246-.484-1.013-.512.055-.538.465-.297 1.04-.376.329-.431.192-.512.328-.43.493-.243.246-.484-.164-1.104.274-.457 1.068-.27.438-.296.219-1.104.438-.35 1.424-.727 1.342-.996.3-.458.549-1.588.355-.404 1.014-.43-.904-.754-.028-.54 1.315-2.422 1.068-1.265 1.56-.538.466-.27-.466-.376-1.642.51h-.603v-.538l.904-.565 1.095-.296.959-.431.191-.511-.547-.08-.931-.674-.575.08-1.726-.053-1.697.35-.137-.539 1.643-.27 2.464-1.076.466-.296.356-.404.054-.539-.301-1.049-.027-.566.356-.403.903-.647 1.342-2.342.712-.888.603-.916.136-1.077-.054-1.103zM562.962 325.395l1.246-.499.26-.053.247.094.178.215.191.512.274.458.37.417.014.269-.124.229-.205.189-.274.107-1.123.081-.547.107-.466.35-.506.27-2.136.807-.288.054-1.478.014-.288.04-.232.162-.808.35-.274.027-.287-.041-.206-.215-.04-.27.04-.807.082-.256.356-.403.247-.122.26-.027.274.027.78.188.26.014.274-.067zM429.75 413.564l-.329-.228-.452-.579-.055-1.656.097-.255.383-.404.137-.243.055-.269.109-.256.206-.174.273-.081.22-.189.095-.255.027-.27-.205-.202-.287-.04-.548.013-.26-.147-.178-.23-.082-.269-.247-.498-.04-.269.013-.834.082-.27.15-.229.247-.12.274-.054.26.013.137.242-.041 1.09.082.256.123.243.178.215.917.606.138.229.081.255v.256l-.04.269-.083.27-.027.269.096.282.246.122.274.053.548.013.438-.309.315-.458.205-.188.26-.121 1.356.013.383-.39.246-.094.534.107.233-.12.37-.068-.096.27-.192.215-.219.175-.287.053-.274-.067-.274.014-.507.242-.287.053h-.575l-.233.176-.37.43-.219.175-.246.122h-.575l-1.123.229-1.15.026-.191.189-.041.269.219.767.027.552-.164.808z" clip-path="url(#p7f2814ae58)" style="fill:#006400;fill-opacity:.8"/><path d="m405.462 424.562-.547-.108-1.15-1.292.054-.539v-.861l-.465-.848-.534-.512-.041-.282 1.122.161.356-.43-.191-.539-.055-.538.137-.538.493-.943-.027-1.077.739-.861-.083-1.077.603-.942-.055-.539-.219-.511-.082-.539 1.068-1.238.192-.512-.165-.538-.52-1.023.11-.538.355-.458.548-.054.219.484.959.566.054.539-.11.538v.538l.11.539-.22.51-.875.728-.246.485.136.538.274.458.028.511-.576 1.561-.575.97.055.538.329.43.027.54-.137.538.329 1.05.055.538.246.485.85.673.93.565 1.972.942 1.04.324.52.08 1.096.027.52-.162 1.45-.753.932-.62.356-.43.575-.915.383-.377.904-.62.328-1.05 1.014-.35.438-.296.274-.457.11-.538-.138-1.077.274-1.077.219-.539.493.242.246.485.548-.188.41-.377.302-.458.493-.242.548-.054.465.242.657.861.466.27.575-.027.739-.808.493-.188 2.272.835 1.068.053.931.566.52.134 1.233 1.104.547-.027.356-.43.52-.432.548.135.383.377.494.189.52-.081 1.287-1.023.547-.108.52.08.302.459.493.269 1.068-.081 2.518-1.13 2.109-.458.52-.243.904-.619.766-.754.603-.188.52.134h.548l1.616-.403 1.478-.62.548-.027.328.431.192.512.356.404.52-.054.438-.996.493-.27 1.04-.16.165.51-.11 1.077.548.054.383-.376.438-.297h.575l1.616.35.438.296-.11.539-.438.35-.081.538.054.538-.383.459-1.096.295-.575.027-.547-.08-.52-.242-.52-.997-.439-.377-1.095-.404-.11.539.165.538-.22.512-.574.134-.548.027-1.15-.134-1.095.35-1.123.107-.575-.188-.41-.404-.384.43v.54l-1.123.295-1.725.296-.548.189-.492.296.027.538.192.512-.137.538-.465.296-1.096.377-.575-.08-.41-.43-.192-.54-.438-.35-.575-.08-.384-.431-.3-.485-.52-.242-.576.108-.493.323-1.588 1.642-.548.216-1.725.107-.493.296-1.15 1.292-.493.324-.575.107-.493-.296-.41-.404-.52-.269-.357-.43.165-1.077-1.013-.593-.877-.753-.52-.243v-.538l.246-.485.083-.538-.52-.189-.438.35-.52.97-.33.457-.437.377-.548.027-.575-.161-.959-.566-1.095-.242-.575-.027-.547.215v.512l.246.485-.055.538-.246.484-.958.62-.384.43-.767 1.212-.985 1.319-.466 1.023-.301.484-.383.404-1.123.296-.986.539-.685.915-.821.808-.52.269-1.123-.296-.575-.027-1.122.134-1.15-.242-1.15-.08-.548.08-.438.35v.539l.424.605.096.256.178.202.082.27-.027.215-.274.471.178.202.246.135.822-.176.52.108.958.417.794.216.274.336-.233.148-1.204-.524-1.26-.364v.256l.096.255.329.458.958.458.055.632-.15.243-.233.175-.288.04-.52-.243-1.137-.094.028-.282.383-.404.082-.256-.438-1.023-.246-.148-1.192-.269-.465-.323-.123-.256.219-.188.807.067.644-.404-.246-.498-.233-.175-.725-.08-.534-.202-.89-1.239-.22-.189-1.04-.51-.849-.122-.26-.121-.069-.27.822-.027.712.378.685.484.561.27.383-.54.52.095.151-.229.014-.538-.096-.256-.205-.189zM508.336 398.152l.301-1.05.794-.808 1.588-.376 2.41 1.264.328.432-.219 1.05-.684 1.507-.356.43-1.013.459-1.67.053-.494-.296-.274-.485v-.538l.794-.727.247-.484v-.593l-.548.081-.739.7zM466.811 380.882l-.575.632-.027.27.273.053.78-.35.809-.08.657.457.137.229.04.27-.068.269-.397.403-.547.283-.89.31-.575-.028-.822-.309-.452-.39-.122-.256-.028-.282.082-.256.397-.39 1.013-.849zM447.247 389.685l-.753.363.11.243.547-.027.52-.162 1.588-.592 2.451-.754 1.273-.538.52-.135.247-.108.164-.215.041-.282-.164-.23-.274-.053-.575.054-1.355.51-1.328.58-1.232.794zM461.034 396.415l-.452-.376-.37-.445.041-.269.15-.242.247-.121.26.04 1.11.861 1.176.66.63.525.151.229.493.942.424 1.037.398.727.451.7.083.538-.22.498-.3.457-.028.27.178.525.136.242.22.161.274-.013.095-.256.055-.565.548-.27.684.445.26.094.26.014.247-.135.013-.27-.109-.551-.055-.538.069-.539.191-.189.507-.255.397-.363.137-.23.055-.268-.164-.23-.562-.161-.753-.403-.794-.27-.26-.134-.22-.189-.506-.713-.41-.39-.356-.445-.233-.511-.069-.283.083-.256.273-.067.233.148.589.606.164.215.78 1.467.179.202.246.135.534.054 1.04.363.534.054.63-.511.26-.082.274-.013.26.095.22.16.04.27-.068.256-.904.7-.739.848-.725 1.198-.096.565-.165.538-.205.512-.15.229-.247.162-.288.053-.78-.39-.274.054-.178.229-.15.525-.288.484-.465.31-1.123.188-.507.243-.451.363-.439.552-.274-.08-.027-.27.123-.808.33-.754.287-.78.643-.512.164-.215.082-.256-.014-.565-.109-.256-.191-.215-.425-.39-.246-.162-.85-.162-.26-.134-.177-.23-.055-1.117-.192-.524-.328-.458-.11-.256.096-.256.465-.269-.013-.282zM487.183 370.288l.575.148.699.444.396.377.247.094.26-.04.233-.121.63-.552.219-.148.26-.121.26-.027.068.269-.055.269-.136.242-.63.943-.041.256.191.201.713.377.191.202.137.242.027.27-.082.269.26.471.014.27-.137.242-.219.188-.233.162-.999.457-.165.229.138.229.177.808-.04.538-.165.229-.11.256-.122.552-.206.525-.41.74-.192.215-.151.606-.247.107-.575-.013-.246-.148-.123-.256-.069-.296.014-.565.096-.566.288-.807.52-.97.095-.255.014-.27-.246-.12-.288.067-.808.336-.561.148h-.288l-.26-.12-.723.294-.666.32-.446.308-.3.138-1.657.19-.096.27-.219.175-.37.027-.273-.08-.493-.283-.205-.189-.288-.108-.493.27-.192.215-.082.27-.164.229-.26.134-.849.188-.26.135-.22.189-.903 1.117-.137.242.247.12.273-.012.767-.364.548.108.466-.283.246.149.082.269-.068.282-.124.256-.356.43-.89.728-1.245 1.776-.11.256-.041.552-.069.27-.219.538-.068 1.05-.123.242-.452.337-.383.417-.055.498-.178.215-.219.189-.534.215-.246.148-.069.27.438.322.246.095v.807l.548 1.037.165 1.077.246.498.11.578-.124 1.077.178.216.507-.189.739-.363.808-.121.26.08.123.243.041.255-.027.27-.26.107-.835-.201-.274-.014-.288.094-.246.175-1.04.996-.247.135-1.109.148-.219.175-.506.7-.26.108-.548.054-.014-.283.822-1.736.547-1.549.041-.269.014-.282-.055-.27-.397-.754-.22-.538-.602-.606-.013-.283.41-1.319.165-.242.425-.336-.247-.135-.274.04-.767-.053-.493-.27-.219-.175-.15-.242-.027-.269.081-.27.151-.242.233-.134.534-.014.274.081.26.108.479.31.465.672.26.014.274-.054.247-.121.178-.202.041-.539-.123-.242-.356-.444-.055-.27.301-.47.041-.283-.328-.808-.397-1.346-.576-.982-.205-.189-.78-.417-.096-.27.137-.242.219-.148 1.26-.525 1.697-.915.438-.364.233-.794-.15-1.144-.083-.27-.41-.403-.562-.673-.643-.942-.137-.243.082-.255.26-.094h.561l.192-.189.274-.471.862-.714.425-.713-.055-.39.465-.243 1.274-1.09.684-.458.26-.107.274-.04.274.053 1.246.498 1.876.094.479.243.164.202.22.175.533.04.26-.054.028-.27-.096-.268.082-.27.246-.12.274-.055.26.027.274-.054.397-.363zM593.206 316.604l.15.23.274.066.63.028.794-.135.52-.162.944-.552.206-.174.082-.256-.164-.23-.507-.295-.56.013-1.329.485-.438.336zM597.586 352.977l-.273-.296.013-.27.083-.269.205-.175.534-.175.493-.215.26-.014.192.202.109.256.069.27-.028.269-.246.484-.534.646-.26.108h-.302l-.191-.229.055-.323zM642.643 331.721l.26-.067.22.149.095.255.274.04.274-.067.712-.363.164-.23-.068-.268-2.273-.499-.794-.053-.288.067-.808.216-.3.484-.754.458-.657.551-.479.297-.507.215-.287.068-.616-.176-.233-.148-.273.054-.507.27-.22.188-.15.242.137.229h.547l.247.121.685.835.219.471.26.04.52-.094.246-.094.548-.592.48-.27.355-.417.48-.687.191-.201.959-.58zM492.865 407.655l.205-.511.165-.216.232-.148 2.177-.31 1.013-.565.192-.201.26.013.507.229.356 1.036.205.162.246.108.124.242-.083.269-.26.121-.287.04-.562-.026-.575-.094-.589.053-1.943.915-.562.148-.561.055-.288-.081-.547-.593.246-.134zM497.574 410.051l.52-.08.96.538 1.505.538.52-.027 1.068-.242 1.37-.834h.547l2.108.484.192.512-.301.43-.52.216-2.328.107-2.847.781-.52-.188-1.206-1.185-1.177-.673zM495.548 399.633l-.93.673-.795.834-.137.538.137 1.078.89.067-.068 1.023.37.135.547-.337.603.511.67-.269-.027-1.077.328-2.934.85-.835-.658-.215zM517.995 386.676l.068.115-.007.135-.164.571.034.135.103.108.226.148.13.007.143-.047.35-.202.123-.094.178-.256.061-.277-.041-.275-.444-1.044-.042-.41.096-.397.417-.357.124-.168.26.612.171.862.117.088h.26l.376-.196.158-.235.047-.128.008-.296-.144-.296-.11-.108-.288-.189-.746-.33-.061-.12.301-.458.007-.135-.076-.114-.253-.189-.143-.04-.144.034-.171.12-.493.593-.308.485-.11.107-.424.054-.322.128-.684.498-.439.451-.349.606-.041.276.37.397.055.269.082.114.24.135.437.027.432-.128.35-.229z" clip-path="url(#p7f2814ae58)" style="fill:#006400;fill-opacity:.8"/></g><g id="PatchCollection_2"><path d="m486.416 416.041.192-.82.247-.808 1.533-.997 1.999-.915.466-.121.246-.135 1.136-1.251.74-1.172.588-.565.26-.08.26.067.52.296.439.377.985.525.22.161.397 1.023.342.43.452.324.534.175.547.094 1.096.027.232-.39.52.188 2.848-.78 2.327-.108.52-.215.302-.431-.192-.512-2.108-.484h-.548l-1.369.834-1.068.242-.52.027-1.506-.538-.958-.539-.342-.35-.439-.363-.274-.511.014-.27.192-.202.247-.094.547-.08.862-.014 1.876.323.849.067.835-.04.89-.525.206-.189.054-.269-.233-.174-.287-.135-.986-.256-1.423-.04-.877.094-.287.054-1.096.256-.246-.108-.205-.162-.356-1.036-.507-.23-.26-.012.657-.876.123-.255.096-.323.014-.552-.178-.539-.082-.834.068-.539.137-.565.11-.242 2.095.242.15-.229-.082-.296-1.972-1.656-.657-.215-.78-.983-1.027.418-.288-.028-.26-.12-.15-.243-.082-.283v-.269l1.273-1.184 1.068-.215 1.916-.916 1.315-1.023 2.683-.592 2.19-.404.521-.189.41-.35.192-.511.493-.242.493.215.52.08.548-.107 1.999-1.05 1.533-.512.52-.053.548.08.766.781.138.539-.11 1.077.274.457.41.377.028.539-.274.484.438.35 1.068.08.411-.376v-1.077l.41-.996-.163-.539-.055-.565.274-.484.109-.539-.22-.511-.588-.478 6.921-2.43 2.875 10.574-1.403.47-1.445.411-1.91.916-1.177 1.01-1.136 1.332-1.137 1.938-1 1.292-.697 1.293-1.588 3.257-.973 1.575-.848 1.064-.794.78-5.066 2.1-2.204.646-6.476 2.262-.78.228-2.3-.027-1.48-.376-1.314-.485-.739-.202-.329-.04-1.054.188-.383-.66-.643.216.054.768-1.15-.095-.862.202-.383.04zm23.015-19.747-.794.808-.301 1.05.465.62.74-.7.547-.082v.593l-.247.484-.794.727v.538l.274.485.493.296 1.67-.053 1.014-.459.356-.43.684-1.508.219-1.05-.328-.43-2.41-1.265zM567.727 342.45l.725-.565.767-.377 1.137-.902.218-.27.165-.309.013-.283-.15-.242-1.547-.498-.781-.323-.233-.161-.095-.256.055-.27.123-.255.191-.202 1.3-.592.576-.324.863-.323 1.218-.215 1.15.094.863-.067.26-.108 1.383.175.027.27.082.255.096.821-.15.216-.206.188-.698.498-.192.229-.055.27.014.255.233.74-.288.593-.315.457-.219.202-.766.404-.904.068-.562-.162-1.136-.04-.26.107-.233.162-1.136.902-.506.256-.288.04-.26-.122zM559.827 351.516l-.192.21.206.133 1.574.646 1.26.391 2.478.62.691.221.343.196.106.195.215.592 1.582 4.133 1.437 5.189-7.934 5.896.74.242-.384.43-1.45.916-1.535.754-.547.189-.466.296-.109.538.876.97.41.322.275.485.109.539.411.376.986-.511.52-.216.52-.053 1.15.053.493.189.329.43.109.539-.137.565-1.287 3.311-.082.54.055 1.103.548 1.965.602.028 1.068-.27.438-.296.219-1.104.438-.35 1.424-.727 1.342-.996.3-.458.549-1.588.355-.404 1.014-.43-.904-.754-.028-.54 1.315-2.422 1.068-1.265 1.56-.538.466-.27-.466-.376-1.642.51h-.603v-.538l.904-.565 1.095-.296.959-.431.191-.511-.547-.08-.931-.674-.575.08-1.726-.053-1.697.35-.137-.539 1.643-.27 2.464-1.076.466-.296.356-.404.054-.539-.301-1.049-.027-.566.356-.403.903-.647 1.342-2.342.712-.888.603-.916.136-1.077-.054-1.103-.247-1.212-.247-.485.055-.538-.725-.336-.343-.862.48-.552-.452-.282-.15-.23.177-.524.315-.7-.315-.835-1.451-4.005-14.642 5.002zM596.094 324.964l10.994-5.64-.246.673-1.67 2.208-.466.995-.165.23-.219.188-.246.148-1.232.296-.52.215-.685.525-.589.62-.219.175-.274.08-.26-.107-1.396-.323-.849-.054-.575-.094-.917.027zM637.099 301.433l.561 2.693.219.875-.069.215-.944-.162-.288.068-.452.31-.328.457-.233.498-.561 1.589-.151.538-.055.539.041 1.077-.081.538.026.27.357.74.219.78-.329.754-.917 1.414-.178.538-.192 1.09-.11.256-.287-.054-.205-.202-.288-.067-1.054.377-.26.135-1.164 1.01-.26.78-.684 1.548-.329.458-.233.148-.26.108-.575.067-2.273-.58-.465-.336-.548-.201-.849-.055-.821.189-.589-.013-.862-.148-.877-.23-.862-.309-1.684-.363-1.123.363-1.013.552-.438.377-.397.417-1.178.795-.273.08h-.561l-.808-.296-.794-.417-.726-.889 6.79-1.453 5.258 1.009 5.257-7.646 9.215-7.363-.96-2.612zM601.858 336.527l-.41.23-.918.416-2.19.768-2.273.552-1.657.646-1.013.552-12.774 4.644-.246.148-.274.108-.561.04-.835-.296-.233-.162-1.205-2.477-.096-.538.014-.538.055-.27.548-1.292-.083-1.629.138-.228.547-.122.849-.013.534-.108.246-.108.165-.215.315-.754.287-.485.356-.417.219-.148.78-.31.78-.188.453-.296.383-.39.479-.23.273-.067.412.068 1.328-.216.547-.04.794-.202.52.135.26-.014.466-.269 1.328-.162.753-.296.233-.148.192-.202.068-.283-.013-.847.054-.27.178-.511.192-.216.78-.148.589-.282.219-.175 1.164-.714 1.108-.834.234-.121.78-.095.876.013-.302.795.439.296 1.013 1.346-.247.512-.465.35.164.511 1.26.296.492.242v1.185l.192.539.576.296.547.135.328.43-.383 1.05.74.66z" clip-path="url(#p7f2814ae58)" style="fill:#90ee90;fill-opacity:.8"/><path d="m570.67 324.978.835 6.044 1.986 1.615 5.79.296 4.41-2.705 4.298-1.105 2-.955-.391.976-.48.296-.43.747-.069.256-.041.807-.343.122-.67-.553-.288.041-.547.202h-.302l-1.04-.525-.288-.094-.274-.067-.575.026-.273.095-.493.31-.616.726-1.397 1.077-.479.296-.26.108-.561.108-1.137.067-.287.067-1.917-.08-2.437-.175-1.328-.27-.26-.108-.233-.174-.575-.58-.452-.269-.205-.201-.876-6.18zM594.725 325.664l-.589.848-1.013 1.01-.438.363-.273.094-.89.027-.576-.363zM479.461 401.88l12.035-4.173 2.478-.753-.589.471.267.505.26.357.377.322-.192.344.137.545.465.323-.082.485-.794.834-.137.538.137 1.078.89.067-.068 1.023-.576.605v.566l-.191.511-.301.458-.685.565-1.013.593-1.506.726-.438.35-.794.835-1.342 2.396-1.04-.296-10.816 3.742-.438-.78.602-.324-.41-.592.574-.78.439-1.993.274-3.204 1.286-3.957 1.123-1.077z" clip-path="url(#p7f2814ae58)" style="fill:#90ee90;fill-opacity:.8"/><path d="m459.618 386.119 12.779-4.107-.137.243.096.269.78.417.205.189.576.982.397 1.346.328.808-.04.283-.302.47.055.27.356.444.123.242-.041.539-.178.202-.247.12-.274.055-.26-.014-.465-.673-.48-.31-.26-.107-.273-.08-.534.013-.233.134-.15.243-.082.269.027.27.15.241.22.175.492.27.767.053.274-.04.247.135-.425.336-.164.242-.411 1.32.013.282.603.606.219.538.397.755.055.269-.014.282-.04.27-.548 1.548-.822 1.736.014.283.547-.054.26-.108.507-.7.219-.175 1.11-.148.245-.135 1.04-.996.247-.175.288-.094.274.014.835.201.26-.108.027-.269-.04-.255-.124-.243-.26-.08-.808.12-.74.364-.506.189-.178-.216.123-1.077-.109-.578-.246-.498-.165-1.077-.548-1.037v-.807l-.246-.095-.438-.323.069-.269.246-.148.534-.215.22-.189.177-.215.055-.498.383-.417.452-.337.123-.242.068-1.05.22-.539.068-.269.041-.552.11-.256 1.246-1.776.89-.728.355-.43.124-.256.068-.282-.082-.27-.246-.148-.466.283-.548-.108-.767.364-.273.013-.247-.121.137-.242.904-1.117.22-.189.26-.135.848-.188.26-.134.164-.23.082-.269.192-.215.493-.27.288.108.205.189.493.283.274.08.37-.027.218-.174.096-.27 1.658-.191.299-.138.446-.308.666-.32 2.955 9.936.384.929 2.779 9.677-12.035 4.174-.23-.045-10.984 4.006-1.162-2.575.78.39.288-.053.246-.162.15-.229.206-.512.165-.538.096-.565.725-1.198.74-.848.903-.7.068-.256-.04-.27-.22-.16-.26-.095-.274.013-.26.082-.63.51-.533-.053-1.041-.363-.534-.054-.246-.135-.179-.202-.78-1.467-.164-.215-.589-.606-.233-.148-.273.067-.083.256.069.283.233.511.356.444.41.39.507.714.22.189.26.134.793.27.753.403.562.162.164.229-.055.269-.137.229-.397.363-.507.255-.191.189-.069.539.055.538.11.552-.014.27-.247.134-.26-.014-.26-.094-.684-.444z" clip-path="url(#p7f2814ae58)" style="fill:#90ee90;fill-opacity:.8"/></g><g id="PatchCollection_3"><path d="m488.717 388.03.424-.418-.055-.27-.301-.268-.452.027-2.955-9.936.723-.295.26.121h.288l.561-.148.808-.336.288-.067.246.12-.014.27-.095.256-.52.969-.288.807-.096.566-.014.565.069.296.123.256.246.148.575.013.247-.107.15-.606.192-.215.41-.74.207-.525.122-.552.11-.256.164-.23.041-.537-.177-.808-.138-.23.165-.228 1-.457.232-.162.219-.188.137-.243 26.32-8.827 7.462 20.377-2.6.861-6.922 2.43-2.533-.949-.821-.808-.274-.484-.191-.539.164-.565.246-.485-.055-.538h-.574l-1.096.215-.438.377-.575 1.588-.41.404-.494.243h-.575l-1.67-.404-.548.108-1.068.457-.547.108-1.013-.62-.383-.43-.274-.512-.274-1.05-.465-.322-.357-.458.055-1.642-.466-.297-.547-.107-.575.107-.52.243-.329.457-.055.512.11.538.684 1.481.138.538.109 1.589-.11.538-.767 1.48-1.615 1.643-.958 1.346-1.26 1.158-.164.7-.082.538-1.328 1.333-2.478.753zm30.203-4.78-.493.593-.308.485-.11.107-.424.054-.322.128-.684.498-.439.451-.349.606-.041.276.37.397.055.269.082.114.24.135.437.027.432-.128.35-.229.28-.357.068.115-.007.135-.164.571.034.135.103.108.226.148.13.007.143-.047.35-.202.123-.094.178-.256.061-.277-.041-.275-.444-1.044-.042-.41.096-.397.417-.357.124-.168.26.612.171.862.117.088h.26l.376-.196.158-.235.047-.128.008-.296-.144-.296-.11-.108-.288-.189-.746-.33-.061-.12.301-.458.007-.135-.076-.114-.253-.189-.143-.04-.144.034zM570.67 324.978l5.9-2.047 2.11-.996.82-.134 1.452-.404 10.515-3.527.67-.39 1.069-.876.15.23.274.066.63.028.794-.135.52-.162.944-.552.206-.174.082-.256-.164-.23 1.027.095.534-.054.506-.162 1.793-.74 2.219-.78 4.97-1.872 7.338-2.49 18.55-6.744 2.876-.983.959 2.612-9.215 7.363-5.257 7.646-5.257-1.01-6.791 1.454-1.451-.713-1.328-.027-1.027.31-12.363 6.34-3.779 1.979-.958.525-1.999.955-4.298 1.105-4.41 2.705-5.79-.296-1.986-1.615z" clip-path="url(#p7f2814ae58)" style="fill:#90ee90;fill-opacity:.8"/><path d="m517.94 365.795 29.736-10.207.494-.424.286-.498.076-.33.452.525.246.148.424.162.85-.242.807.04.685.458.842 1.117.65.707-.157-.498-.72-1.057-.246-.592-.04-.445.068-.296.602-.296 6.346-1.972 4.025 1.34 2.033.619.692.471 1.581 4.032.958 3.944-.006.242-.309.302-.136.25-.5.303-.028.269.206.195.547-.007.212-.161.144-.337.137-.013.068.383-.047.142-.11.222-8.92 6.434-.294.08-.13-.046-.308-.222-.876-1.017-.343-.201-.41-.007-.246.128-5.71 4.866-.089.491.062.39 1.362 4.94 1.37 5.062-.049.074-.198.094-2.273 1.407-.068.155-.438 1.44-.138.141-.403.216-1.383.47-23.651 8.42-2.875-10.573 2.601-.861z" clip-path="url(#p7f2814ae58)" style="fill:#90ee90;fill-opacity:.8"/></g><path id="PatchCollection_4" d="m377.116 369-1.514.467.986 2.18 1.657 1.218 1.16.436 3.996-.795 4.627 10.651-1.216 1.447-1.248 4.236-4.118 1.307 1.033 2.859 3.469-1.448 1.345-.022.446 1.223-4.984 2.38.824 2.181 4.289-.633.592.504 1.424-.267.512 3.697-.167.88-4.577 1.535 1.224 5.2 3.313-.795.847 3.988-2.2.748.32 1.085 4.416-.095 2.025-1.353 1.936.197 1.056 1.574-1.504 1.29-1.92-.087-.576-.488-5.185-.055-2.448.118-5.033 1.149-1.672 2.123-2.184.551-2.864-.291-.553-1.825 3.729-2.218-1.28-3.037 2.512-1.053.848 1.384 4.72-2.376-.687-1.62-5.089 1.541-.768-2.328-.352-1.431 1.136-.504-.56-2.454 3.632-1.26-2.832-7.897-5.504 2.942-.945-.205-1.056-3.586-1.984.346-.983-1.025-.507-1.577-2.374.956-.861-1.165-1.139-4.196-4.326 1.289-.851-1.992-.704-3.303 3.712-.882 1.424-.393 1.152 4.2 2.137-.743-1.48-4.7 2.482-.743-1.667-5.188-2.128.597-1.888.897.704 2.644-1.888.472-1.056-1.008-.544-6.135 1.696-.693 3.584.693.781 2.023 3.076-.922-1.552-4.012 1.008-.802 2.176-.582-1.504-4.107-4.625 1.102-1.92-.472-.992-4.201.704-.52 4.852-2.195 2.175-1.186 4.687-1.454 2.474.692 1.223 3.184-.593.52-3.522 1.371-2.708.986.84 2.744 3.118-.917.777.207.872 2.696-2.914 1 .634 2.201 1.718-.314 1.217-.095z" clip-path="url(#p7f2814ae58)" style="fill:#d3d3d3;fill-opacity:.8"/><g id="PatchCollection_5"><path d="m431.585 480.306-.067-.658.72-.07.067.657zM437.946 483.146l.524-.208.296.724-.524.208zM377.235 390.473l-.172-.394.468-.198-.049-.11.333-.14.22.503zM376.53 392.007l.225.582-.434.161-.082-.212-.121.045-.143-.37zM376.459 393.203l.368-.071.053.267-.368.07zM376.075 394.288l-.14-.327.415-.173.14.327zM374.675 394.69l.35-.048.048.346-.35.047zM380.875 388.553l.448-.15.093.269-.448.15zM398.141 388.183l.201-.023.024.196-.201.024zM396.509 386.375l.368-.096.104.385-.368.096zM396.95 388.34l.567-.062.059.51-.568.063zM391.573 389.442l.645-.212.248.732-.645.212zM386.852 392.03l.34-.117.168.472-.34.117zM383.035 394.532l-.179-.603.656-.188.18.602zM395.109 403.586l.204.035-.112.622-.204-.035zM393.965 404.695l.039-.648.544.032-.039.648zM394.965 399.89l-.078-.714.816-.087.078.714zM386.748 397.757l.778-.176.16.685-.298.067.11.465-.373.084-.11-.465-.107.024zM389.9 398.811l-.458.161-.2-.55.459-.162zM386.276 400.188l.476-.135.256.873-.476.135zM381.508 401.62l-.15-.398.648-.236.15.398zM379.347 404.813l.47-.101.127.575-.469.1zM381.876 402.87l-.17-.444.512-.189.17.445zM381.54 404.003l.611-.195.208.629-.612.196zM382.636 404.742l-.142-.4.309-.106-.074-.206.588-.201.215.607zM382.827 406.945l.248-.126.105.2-.248.125zM382.564 405.348l.767-.283.161.421-.768.284zM390.132 409.368l.24.005-.008.37-.24-.005zM387.94 409.266l.16.008-.008.157-.16-.008zM388.228 408.432l.437-.143.16.471-.437.144zM378.499 410.666l.256-.089.036.102.43-.149.26.724-.686.238zM377.45 410.752l.18-.059.057.166-.18.059zM377.859 411.067l.456-.157.113.316-.456.158zM377.179 415l-.064-.265.545-.126.063.265zM377.987 414.725l.222-.068.16.503-.222.069zM375.506 417.336l-.24-.784.284-.084-.11-.36.774-.228.11.36.407-.12.24.784zM377.235 417.675l-.068-.18.191-.07.069.18zM378.275 416.676l.411-.132.058.171.446-.143.23.693-.857.276zM381.083 414.772l.512-.189.172.45-.291.108-.047-.125-.222.082zM382.46 412.892l.247.472-.295.15-.248-.472zM385.676 413.262l.216.63-.378.124-.091-.262-.398.132-.107-.313.398-.133-.019-.052zM388.932 411.838l-.178-.462.528-.197.178.462zM396.577 413.05l.238-.155.437.648-.24.155zM394.709 412.825l.536-.267.216.418-.536.268zM373.254 389.51l.555-.188.134.38-.555.189zM373.07 388.958l.582-.215.152.398-.582.215zM376.485 388.844l-.247-.613.584-.228-.208-.515.676-.264.455 1.128zM375.849 387.78l.247-.09.136.364-.247.09zM374.274 388.21l.514-.194.09.23-.513.196zM373.905 387.423l.622-.235.235.6-.173.066-.038-.096-.449.17zM376.123 386.656l.835-.29.153.427-.836.29zM370.996 384.233l.869-.282.222.66-.693.226-.06-.18-.177.057zM372.597 383.89l.523-.164.157.485-.523.164zM375.185 384.785l.944-.357.27.693-.944.356zM374.035 383.85l.8-.27.193.554-.8.27zM374.103 382.53l.65-.215.208.607-.65.215zM373.2 381.783l.718-.29.156.376-.719.289zM373.747 380.343l.959-.343.212.574-.958.344zM372.878 379.017l.828-.242.2.658-.829.242zM372.255 379.078l.445-.169.134.342-.445.169zM372.796 378.29l.39-.201.166.31-.39.203zM367.757 381.803l.596-.12.095.449-.596.12zM366.724 378.445l.52-.12.148.613-.52.121zM370.29 377.82l.582-.102.091.508-.582.1zM371.345 376.823l.76-.222.142.472-.76.222zM371.871 375.881l.85-.202.134.545-.85.202zM370.803 375.154l.622-.187.178.572-.621.187zM368.6 373.962l.18-.039.027.121-.18.04zM368.449 373.532l.15-.027.027.148-.15.027zM369.996 375.39l.327-.12.158.417-.328.12zM361.7 377.193l-.156-.54.19-.053.015.057.421-.117.139.485zM361.028 375.16l.526.006-.007.593-.525-.006zM362.884 371.6l-.17-.57.745-.216.17.57zM363.561 372.166l.642-.193.226.727-.642.193zM368.086 372.59l.568-.155.107.38-.568.155zM369.736 371.944l.582-.04.026.37-.582.04zM371.166 371.493l.494-.169.185.525-.493.169zM369.345 370.045l.524-.154.179.586-.524.154zM369.004 367.098l.656-.236.214.576-.657.235zM368.366 367.387l.466-.209.172.37-.466.208zM365.142 356.948l.534-.243.165.351-.534.243zM364.177 359.391l.593-.232.226.559-.593.232zM363.534 358.092l.095.236-.167.066-.096-.236zM361.761 358.644l.311-.11.137.378-.311.109zM362.486 359.626l.51-.118.102.423-.509.12zM362.281 360.367l.68.202-.218.714-.68-.203zM367.073 361.666l.486-.155.13.397-.485.155zM368.64 354.605l.261-.08.075.236-.26.08zM373.91 356.53l.063.344-.65.114-.119-.652.57-.1-.08-.437.396-.07.135.746zM374.062 354.592l1.267-.343.193.69-.555.15-.038-.136-.712.193zM375.37 356.436l1.081-.39.309.827-1.082.39-.065-.173-.162.058-.205-.55.162-.058zM374.281 362.333l.671-.185.198.7-.67.184zM374.39 364.48l-.168-.585.746-.209.169.585zM375.657 367.562l.514-.175.137.391-.514.174zM374.726 371.15l.74-.243.216.638-.265.087.079.232-.475.155-.109-.32-.182.06-.117-.344.183-.06zM375.301 372.697l.527-.154.123.403-.528.155zM376.164 373.37l.616-.202.19.56-.617.202zM376.972 375.39l.404-.175.148.332-.404.175zM382.414 374.703l.616-.126.095.447-.227.046.042.2-.39.079zM377.355 376.655l-.154-.474.643-.202.154.474zM377.629 377.644l.725-.255.202.553-.726.255zM380.36 376.21l.616-.177.185.619-.616.178zM379.983 377.96l.117.364-.249.077-.116-.364zM378.71 377.974l.835-.283.294.84-.43.145-.124-.354-.405.137zM377.65 378.513l1.045-.387.301.787-1.046.387zM382.03 378.687l.596-.185.164.508-.596.186zM379.744 379.421l.665-.207.183.57-.664.208zM378.279 379.838l1.032-.321.268.833-1.032.321zM378.614 380.727l.957-.298.152.473-.956.298zM378.964 381.764l-.163-.505.952-.296.162.504zM379.922 383.87l.294-.1.154.432-.294.101zM379.436 381.71l.657-.202.189.593-.658.202zM379.675 383.197l-.177-.575.61-.182.177.575zM380.058 384.348l.576-.195.171.488-.575.196zM385.672 382.04l.448-.173.329.828-.077.03.07.173-.285.11-.068-.175-.089.034zM383.576 385.254l-.143-.435.747-.235.166.508-.108.034.127.386-.966.305-.15-.46zM382.14 384.853l.687-.234.216.617-.687.233zM383.372 386.737l.794-.27.123.353-.155.052.064.18-.539.183-.063-.18-.1.034zM360.234 383.325l1.8-.559.334 1.037-.67.208-.044-.14-1.132.351zM360.33 381.938l.801-.289.103.276-.8.29zM362.445 382.739l.726-.273.336.861-.726.273zM369.524 391.408l.184-.184.369.356-.184.185zM369.298 389.961l.241-.028.049.404-.243.028zM370.92 389.833l.726-.256.212.582-.726.256zM366.135 389.948l.63-.169.097.354-.629.168zM370.202 388.245l.855-.29.16.46-.855.29zM369.88 387.094l.457-.133.123.41-.457.134zM368.819 387.053l.376-.114.084.267-.376.115zM367.559 384.381l1.677-.64.803 2.038-.581.222-.055-.138-1.525.581.058.147-.29.11-.058-.146-.161.062.042.108-.257.098-.042-.108-.363.138-.197-.499 2.682-1.022-.237-.6-1.18.45zM364.862 385.283l.92-.306.554 1.609-.92.306zM559.143 350.944l.265-.091.096.269-.266.091zM619.355 365.9l.425-.148.09.25-.425.148zM488.662 387.726l-.025-.156.178-.027.025.157zM488.977 417.024l.23-.072.076.236-.23.072zM579.563 377.833l.24.037-.047.297-.242-.038zM602.323 336.312l.222-.016.021.276-.222.016zM621.943 352.277l-.082-.214.219-.08.082.213zM549.928 389.766l.425-.122.087.293-.425.122zM443.475 392.404l.215-.047.055.242-.215.048zM423.144 434.314l.656-.263.26.625-.656.264z" clip-path="url(#p7f2814ae58)" style="fill:#a9a9a9;fill-opacity:.8"/></g></g></g><defs><clipPath id="p7f2814ae58"><path d="M90 127.079h558v473.042H90z"/></clipPath></defs></svg>