<svg xmlns="http://www.w3.org/2000/svg" width="960" height="960" viewBox="0 0 720 720"><defs><style>*{stroke-linejoin:round;stroke-linecap:butt}</style></defs><g id="figure_1"><path id="patch_1" d="M0 720h720V0H0z" style="fill:#fff"/><g id="axes_1"><path id="patch_2" d="M90 625.502h558V101.698H90z" style="fill:#fff"/><g id="LineCollection_1"><path d="m310.126 284.974-.651-.681M310.126 284.974l.362.62.388.54.379.786.187.68.121.393.075.468M313.336 287.245l-.475-.21-1.33-.817-1.405-1.244M323.421 322.683l.139-.655.138-.654M323.698 321.374l.272-.817.271-.817 1.125-4.697.28-1.1M325.282 312.21l-.36 2.417-1.279 5.547.055 1.2M324.015 326.804l-4.728-2.302M323.421 322.683l.018 1.253.086 1.273.49 1.595M363.031 356.475l-1.633-.994-2.27-1.802-4.131-3.345-12.88-9.98-2.118-1.472-1.841-1.084-6.955-2.667-1.336-.882-1.787-1.587-1.95-2.353-1.614-2.69-.5-.815M120.045 118.557l1.121-.942 2.637-2.074 4.643-3.77" clip-path="url(#p73539b5207)" style="fill:none;stroke:#000"/><path d="m184.924 169.694-2.458-8.821-2.805-6.122-4.133-6.88-1.162-1.267-.9-.873-1.335-1.027-5.424-3.285-2.537-1.997-2.94-3.072-14.09-13.953-1.785-1.379-2.193-1.361-10.412-5.426-4.304-2.46M392.508 353.467l-3.68-.322-1.541.005-.803.056-.86.133M409.335 361.62l-1.571-.55-1.542-.87-1.924-1.228-6.176-3.948-1.192-.455-1.633-.549-1.47-.333-1.32-.22" clip-path="url(#p73539b5207)" style="fill:none;stroke:#000"/><path d="m386.076 355.14.865-.508.86-.395.97-.324 1.105-.22 2.632-.226M409.335 361.62l2.212-.118 1.798-.55 2.419-1.254M475.276 337.456l-2.282-.052-1.367.14-1.65.302-9.35 3.013-3.413.876-1.08.291-4.865.65-7.235.736-2.601.326-1.65.525-1.37.66-4.936 3.365-12.2 8.521-3.226 1.705-2.287 1.184M399.03 330.949l.663.307.735-.166 1.686-1.062.447-.052.346.09 4.569 3.685 1.47 1.446.533.371 1.571.256 1.484.653.52.37 2.983 4.25.331.792.03.717-.332 1.395-.101.908.144 2.598-.087 1.241-.115.806-.937 3.813-.59 3.084.043.947.302.742 1.039 1.558M315.346 291.64l3.702 5.881M315.346 291.64l-.45-1.13-.258-.74-.162-.526-.07-.353M312.39 289.403l.59.39.335.234.575.415.683.565.773.633M363.031 356.475l.692.357 1.855.583 1.623.309 2.027.044 1.653-.199.76-.157 3.888-.87 2.831-.582M378.36 355.96l1.357-.225 1.234-.21.645-.102.901-.092.883-.094.779-.021 1.135.057" clip-path="url(#p73539b5207)" style="fill:none;stroke:#000"/><path d="m381.706 354.897-1.975.577-1.37.486M475.276 337.456l1.986.299 9.087 2.956M521.879 342.81l-4.082-.141-1.975-.384-8.582-2.48-5.643-1.473-1.889-.077-1.542.253-5.729 2.19-2.022.443-1.675-.007-2.391-.423M490.758 350.101l-1.215-2.786-.598-1.037-1.867-2.917-.346-.608-.252-.845-.131-1.197M428.504 395.387l-4.145-4.738-6.441-8.115-3.79-4.51-.303-.41-.44-.882-.634-1.676-.534-2.175-.187-2.112-.39-2.507-.633-1.69-1.095-2.456-.577-2.496M235.999 215.93l2.864.41 13.803 1.402M270.91 229.891l-3.96-4.853-2.587-2.598-2.415-1.804-1.52-.851-1.838-.781-2.719-.804-3.205-.458M240.068 232.555l3.646-2.648.497-2.305 3.382-3.645.663-.666 2.472-1.804.828-.448.31-.295.267-.396.533-2.606M615.958 388.216l.695.52 2.479 1.562 3.603 1.88M596.445 408.203l3.376-.465 3.725-.207 7.16-.878.756-2.17 4.482-4.806 6.791-7.498M542.99 356.394l1.964 1.202 2.245.722 2.09.244 7.625.054 15.352-.143 1.333.032 1.103.09 2.442.352 3.03.796 2.45 1.407 4.381 2.917 3.92 2.048 4.7 1.97 5.027 2.224M615.958 388.216l-1.525-1.143-1.297-1.893-1.095-2.38-.519-2.713-.923-3.096-1.079-1.31-1.111-1.249-2.595-1.536-2.53-1.237-2.632-1.35" clip-path="url(#p73539b5207)" style="fill:none;stroke:#000"/><path d="m617.414 332.235.056.257.02.262-.018.262-.04.2-.06.196-.318.39-.649.468-5.196 3.602-6.075 3.999-4.388 2.917-.194.167-.167.189-.137.207-.103.222-.07.232-.288 1.356-.547 2.899-.36 2.623-.067.351-.024.355.018.356.06.346.099.339.519 1.19.8 1.35.365.542.337.557.306.57.315.67.274.682.233.695.236.666.19.678.106.494.08.498.019.544-.01.544-.037.543-.07.57-.101.565-.132.56-.706 2.105-.152.409-.185.397-.218.384-.229.34-.254.326M387.503 537.152l-2.981 2.62-7.586 4.263-2.373 5.334-1.187 2.781-.591 2.63-.774 1.067-1.199.842-2.737 1.682-9.011 20.456-.752.845M356.172 580.741l.953-.332 1.187-.737" clip-path="url(#p73539b5207)" style="fill:none;stroke:#000"/><path d="m398.756 561.606 1.989 4.144.187.832-.36.64-.706.6-2.696 1.497-1.585.716-2.407.793-1.643.55-2.22.717-4.079 2.008-6.24 1.931-4.064.717-.649.038-2.09.793-4.785.832-8.173 1.534-.923-.276M313.336 287.245l-.388-.02-.227.056-.42.14-.318.234-.215.327-.13.48M314.168 287.684l-.34-.225-.492-.214" clip-path="url(#p73539b5207)" style="fill:none;stroke:#000"/><path d="m311.638 288.461.149.381.26.3.344.26M312.39 289.403l.579.086.623-.092.383-.208.185-.11.247-.188M314.407 288.89l-.032-.611-.115-.384-.092-.211M314.407 288.89l.349-.172.896-.515M315.652 288.203l-.955-.331-.529-.188M384.366 354.236l.06.353.2.325.212.195.456.164M384.617 353.689l-.216.26-.035.287M384.366 354.236l-.325-.26M385.294 355.273l.42-.011.362-.122M385.624 353.339l-1.143-.09-2.578-.142-3.365-.122-2.256-.32M385.624 353.339l-.74.195-.267.155" clip-path="url(#p73539b5207)" style="fill:none;stroke:#000"/><path d="m386.076 355.14.253-.273.157-.28.009-.257-.027-.206-.09-.231-.17-.207-.255-.215-.33-.132M384.617 353.689l-.576.288M381.608 353.49l.209.163.123.134.114.302-.023.318-.101.228-.224.262" clip-path="url(#p73539b5207)" style="fill:none;stroke:#000"/><path d="m384.04 353.977-.35.199-1.345.548-.639.173M621.558 461.899l3.056.213 5.812-1.01 2.276-.745 1.802-1.356M315.652 288.203l.156-.058" clip-path="url(#p73539b5207)" style="fill:none;stroke:#000"/><path d="m381.608 353.49.841.039.701.088.61.2.28.16M375.016 352.895l.802.159 2.892.323 2.898.113M370.438 351.694l-1.946-.646M370.438 351.694l-.097.343M370.438 351.694l4.638.839M368.492 351.048l-1.91-1.196M368.492 351.048l-.133.355M366.583 349.852l-2.868-3.307M366.583 349.852l-.415.24M361.498 344.03l-.345.214M361.498 344.03l-.699-.806-1.023-1.616-.919-1.66M363.715 346.545l-.603-.65-1.614-1.865M358.857 339.948l-.342.125M358.857 339.948l-1.14-2.259-.597-.77-.652-.436-2.352-1.37M354.116 335.114l-.159.333M354.116 335.114l-2.184-.742-.584-.196M346.149 331.61l-.332.375M346.149 331.61l-2.252-1.576-1.146-.873-.559-.928-.288-.48M351.348 334.176l-.612-.12-1.572-.446-.435-.185-2.58-1.814M337.656 320.005l-1.5-2.92M337.656 320.005l-.4-.051M337.656 320.005l.279.516M334.241 313.557l-1.96-3.571M334.241 313.557l-.333.168M336.157 317.084l-.256-.444-1.66-3.083M329.377 304.763l-.895-1.726M329.377 304.763l-.272.14M329.377 304.763l2.904 5.223M322.937 293.023l-2.684-4.948M322.937 293.023l-.368.144M322.937 293.023l1.304 2.294M319.482 286.654l-.365.156M319.482 286.654l-2.05-3.658-1.061-1.29-2.064-2.163-.303.302 2.033 2.105.965 1.117 2.115 3.743M361.988 253.508l-6.06 1.56-7.334 1.826-5.098 8.417-10.553 15.644-7.41 3.202-6.05 2.497M319.482 286.654l.771 1.421M370.341 352.037l4.675.858M370.341 352.037l-1.982-.634M361.153 344.244l1.556 1.74 1.013 1.177M358.515 340.073l.85 1.708 1.053 1.612.735.851" clip-path="url(#p73539b5207)" style="fill:none;stroke:#000"/><path d="m363.829 349.8-1.459-.425-1.852-.768-.583-.44-.303-.353-.944-1.772-.347-.89-.194-.499-.144-.588.123-.633.151-.525.072-.345-.029-.314-.057-.493.064-1.414.087-.17.1-.098M353.957 335.447l2.28 1.311.635.486.475.587 1.168 2.242M351.053 334.484l.753.183 1.47.495.681.285M345.817 331.985l-1.294 1.419M345.817 331.985l2.832 1.805.526.256 1.125.237.753.201M341.508 327.955l.28.575.548.877 1.341.985 2.14 1.593M333.908 313.725l1.9 3.522M333.908 313.725l-1.985-3.554M329.105 304.904l2.818 5.267M329.105 304.904l-.928-1.74M322.57 293.167l1.253 2.332M322.57 293.167l-2.673-4.921M319.117 286.81l-3.309 1.335M319.117 286.81l.78 1.436M336.01 286.603l.212-.073M336.862 289.867l-.193-.74-.658-2.524M333.204 291.27l-1.121-2.38-.016-.413.309-.394 2.912-1.263.723-.217M336.862 289.867l-3.658 1.403M339.45 298.339l-1.559-5.016-1.029-3.456M328.907 293.277l-.807-1.497-.807-1.498M328.907 293.277l4.195 7.738M328.907 293.277l4.297-2.007M328.907 293.277l-4.666 2.04M324.241 295.317l-.418.182M325.588 297.768l-.674-1.225-.673-1.226M323.823 295.5l1.398 2.46M319.048 297.521l3.607-1.527 1.168-.495M351.905 296.027l-6.213 1.253M353.63 304.07l-.448-2.44-.447-2.442-.83-3.16M350.415 289.641l.425 1.427 1.065 4.96M345.692 297.28l-.743.164M345.692 297.28l1.792 7.757M322.18 303.865l-1.411-2.974-1.721-3.37M339.45 298.339l1.799 7.784M339.45 298.339l5.499-.895M339.45 298.339l-2.048.808M333.102 301.015l3.863 6.88M333.102 301.015l4.3-1.868M333.102 301.015l-4.62 2.022M328.482 303.037l-2.894-5.27M328.482 303.037l-.305.127M328.177 303.164l-4.93 2.195M328.177 303.164l-2.956-5.204M347.484 305.037l6.146-.967M347.484 305.037l-6.235 1.086M347.484 305.037l1.813 7.944M323.247 305.359l-.325-.61-.742-.884M325.693 310.895l-.173-.75-2.273-4.786M341.249 306.123l1.894 7.922M341.249 306.123l-4.284 1.772M336.965 307.895l-4.684 2.09M332.28 309.986l-.357.185M331.923 310.171l-4.834 2.169M325.762 312.263l-.07-1.368M325.762 312.263l-.48-.054M325.762 312.263l.096.214.098.074.487.109.36.109.23.188.545.906" clip-path="url(#p73539b5207)" style="fill:none;stroke:#000"/><path d="m326.586 312.082-.45-.027-.164.036-.21.172M325.762 312.263l-.116 1.68M355.573 311.823l.434 1.779.674 2.768M326.586 312.082l-.893-1.187M326.586 312.082l.503.258M322.18 303.865l.36 1.094 1.125 2.368 1.41 2.864.237 1.086-.03.932M328.446 314.546l-.749-1.358-.608-.848M349.297 312.98l6.276-1.157M349.297 312.98l-6.154 1.065M349.297 312.98l1.58 6.825M325.646 313.944l.5-.263.375-.006.312.036.745.152M327.578 313.863l.502.843M343.143 314.045l-6.986 3.04M344.637 320.955l-1.088-4.806-.406-2.104M328.446 314.546l-.366.16M330.41 316.434l-1.28-.659-.684-1.229M336.157 317.084l-.35.163M335.807 317.247l1.45 2.707M335.807 317.247l-2.192.839M333.615 318.086l-3.206-1.652M333.615 318.086l-.476.188M333.615 318.086l3.641 1.868M333.139 318.274l2.052 1.105 2.378 1.096M333.139 318.274l-2.95-1.492M350.876 319.805l.96-.194M344.637 320.955l2.596-.479.41-.075 3.233-.596M351.91 323.427l-.805-2.822-.229-.8M337.256 319.954l.313.521M337.935 320.521l-.366-.046M337.935 320.521l.794 1.292M337.57 320.475l.875 1.472M344.637 320.955l-5.187 2.111M344.637 320.955l1.373 5.025M356.129 321.858l-1.904.592M339.45 323.066l-.721-1.253M339.45 323.066l-.32.132M339.45 323.066l2.454 4.687M339.13 323.198l2.378 4.757M339.13 323.198l-4.333 1.956M339.13 323.198l-.685-1.251M351.91 323.427l2.315-.977M351.91 323.427l-5.9 2.553M354.476 328.88l-2.24-4.765-.326-.688M341.904 327.753l4.106-1.773M341.904 327.753l-.396.202M328.415 328.306l6.358 2.679M341.508 327.955l-6.735 3.03M354.476 328.88l1.788-2.7" clip-path="url(#p73539b5207)" style="fill:none;stroke:#000"/><path d="m351.348 334.176 1.935-3.048.597-1.124.596-1.124M344.523 333.404l-5.959-1.599-3.79-.82M351.348 334.176l-.295.308M344.523 333.404l4.895 1.313.824-.038.81-.195M110.96 127.85l-1.151.305-1.545-.024-1.811-.355M111.503 151.975l.173-3.737-1.557-2.1-7.206-4.3-1.441-7.374.98-4.454 4.001-2.234M120.045 118.557l-.272.228-1.093 2.175-1.016 1.94-1.055 1.906-.941 1.272-1.281 1.036-2.034.703-1.393.034M357.334 324.538l-1.07 1.642M356.264 326.18l-2.039-3.73M333.204 291.27l4.198 7.877M343.288 284.81l-7.066 1.72M343.288 284.81l-.48-2.394M350.415 289.641l-.577-2.374-.23-1.106-.454-2.054-.159-.224-.288-.115-5.419 1.042M355.573 311.823l-.834-4.995-.476-1.357-.633-1.401M347.95 281.618l-2.976.39-2.165.408M336.222 286.53l-.299-1.892-.018-.298.122-.22.206-.148.85-.182.577-.214.605-.314.728-.211 1.715-.346 2.1-.289M361.49 336.952l.535 2.04M363.486 344.55l-1.46-5.558M363.486 344.55l4.243 1.084M363.715 346.545l-.115-.999-.114-.996M363.715 346.545l.007.616M375.566 347.549l-3.204-.755M375.566 347.549l-.775-7.086M375.566 347.549l.716 5.117M367.729 345.634l4.633 1.16M362.025 338.992l1.365-.331 2.223-.54.267.077.194.281 1 4.322.655 2.833M363.722 347.161l.107 2.64M363.722 347.161l.23.298 2.216 2.632M363.829 349.8l2.34.291M362.291 354.29l.454-1.418.457-1.295.627-1.776M366.168 350.091l1.32.916.871.396M274.01 233.682l-3.1-3.79M278.912 242.751l-2.725-5.645-1.082-1.813-1.094-1.61M270.877 232.065l.44-.07.281.038.274.166.836.877.382.384.353.134.568.088M387.468 509.235l3.868 8.92 4.364 9.21.188 2.238-.832 2.162-3.147 2.22M387.503 537.152l.28-.247 1.377-1.509 2.75-1.41" clip-path="url(#p73539b5207)" style="fill:none;stroke:#000"/><path d="m561.29 487.348-.893.139-9.076.105-2.14-.478-5.727-2.171-1.85.106-8.59 4.5-1.373.424-8.232-.053-2.626.795-2.088 1.747-1.372 3.23-.96 1.881-4.523 2.905-3.213 4.015-4.166 4.066-3.808 2.906-4.318.745-5.766-.739-5.885-1.53-5.647-1.16h-3.567l-3.685 3.218-6.242 4.326-6.3-1.794-4.34-1.477-4.815.475-3.804 1.477-3.391 2.712-2.314 2.947-4.448.896h-5.458l-7.414-2.685-6.88.473-9.433 1.106-3.5 1.79-.948 1.843-.178 3.37-3.678 4.474-2.373 1.632-2.847.79-1.513-.368M561.29 487.348l1.495-.233 7.822-5.83 5.434-3.444 2.764-.854 4.78-.583 4.302-1.114 3.883-2.81 3.304-2.603 6.172-1.862 2.636-1.968 3.356-4.308 3.175-1.489h2.396l8.749 1.649" clip-path="url(#p73539b5207)" style="fill:none;stroke:#000"/><path d="m592.768 526.43.216-2.214 1.283-6.805.88-4.99.216-.702.259-.64.144-.653.029-.69v-.704l.043-.793.13-.69.331-.73.706-1.216 1.168-1.483 1.902-1.804.562-.46.678-.307.649-.32 3.79-1.292 3.517-1.151 2.032-.755.735-.218.922-.179.78-.179 3.501-.665 2.84-.474 2.522-.345.764-.115 1.34-.256 1.153-.345 1.571-.615 1.96-1.164.52-.486.33-.64.188-.741.029-.717v-.678l.317-5.027.288-3.096v-.73l-.158-.703-.404-.64-.576-.576-.62-.421-2.97-1.97-.69-.461-.606-.55-.39-.601-.374-.806-.23-.653-.203-.678-.75-1.33-.417-.627-.461-.627-.649-.819-.418-.563-.418-.588-.317-.679-.144-.69v-.665l.23-.742.188-.653.144-1.05v-.664l.087-.743.64-.963M381.727 495.423l.434 1.68.62 1.761.118.354.28.83.803 2.388.596 1.826.891 1.677 1.999 3.296" clip-path="url(#p73539b5207)" style="fill:none;stroke:#000"/><path d="m434.756 487.103-9.642 6.73-6.086 2.97-4.869 2.364-8.063 2.835-4.108 2.566-6.314 2.566-4.945 1.08-3.261 1.021M305.763 568.83l2.012-2.545 3.5-3.293 2.94-1.367 3.29-2.174 1.61-.435 4.55 1.119 2.31-.87.42-2.672 2.45-3.293 3.36-3.851.49-3.168 1.659-1.915 6.72-4.225 5.18-.62 6.44-.187 4.48-1.18 3.92-3.17 3.22-5.218 2.1-2.112 3.08-2.61 2.87-3.852 3.92-2.36 2.73-1.243 1.82-2.113 1.96-3.479 2.03-1.18 1.89-1.18.754-.402M549.638 456.836l.433-.134 2.91.544 3.6 1.97 1.532-.34 3.216-1.835 5.438-6.186 4.901-4.554 2.987-3.467 6.314-5.045 3.723-3.512 2.502-4.648 2.734-2.737 1.63-1.911 2.501-1.602 1.979-5.68-.116-3.502.64-3.979-.117-2.015M515.603 413.636l5.775 11.482 2.573 2.18 2.631.468 3.977.415 1.228.623 5.19.103 10.454-2.177 6.19-1.815h3.446l2.511-.57 5.782-.207 5.665-.83 4.963-4.095 3.578-2.95 4.249-5.529 3.318-2.841 3.085.051 6.227.259M515.603 413.636l-.073-.146-1.02-.998-1.873.312-7.91 2.55-1.526.156-5.28-1.25-.587-1.197-1.002-5.642-.275-.583-.488-.395M163.017 277.995l3.003-.513 10.454.075 4.25.755 3.484 1.208 2.295 3.018 4.76.453 10.114-.076 1.87.227 2.975 2.113 4.76.68 2.04 1.735.849 1.887 3.57 2.565 5.7 4.555 1.275 1.585.68.302.935-.529 1.445-1.811h3.824l4.42-.603 2.125.15 1.445.83 3.23-2.264 4.972.385 1.168.192 2.731.927 3.697.858 2.392.384.916.038.533-.102.339-.275.065-.423.086-1.964.447-1.587.303-.736.46-.773.613-.487.663-.243 1.254-.064 2.378.05 2.396.198.725.212 1.743.839 3.877 1.868 4.83 2.457 3.883 2.33.627.415.75.858 1.073 1.51.844 1.03.814.671 1.679.883 4.172 1.984 1.428.864 5.433 4.35.404.557.137.666-.036 1.247-.03 1.171.116.742.23.66.54.831.253.736.21 1.28.201.556.274.403 2.486 2.662M254.273 340.923l3.489-.177 4.936-.7 1.095-.345 1.225-.703 2.191-1.869 2.84-2.303 9.868-7.813 1.482-1.125 1.319-.697 1.556-.416 1.338-.177 1.97-.028 3.697.23 3.597.25 1.483-.083 1.427-.288 4.742-1.785.793-.243 1.275-.154M313.324 324.903l-1.118-.25-3.668-1.151-3.942-1.005M319.287 324.502l.234-.009.605-.121.728-.25 2.567-1.44M314.793 324.98l-1.47-.077M314.793 324.98l-1.504.794M319.287 324.502l-2.944.113-1.55.364M111.508 333.73l2.79-.826 8.669-2.641M142.618 346.188h-1.292l-1.785-.755-4.165-4.905-6.29-5.587-2.72-1.811-3.399-2.867M120.508 263.246l-1.386 1.332-10.935 14.662-4.971 2.305.994 2.893-3.48 4.954.332 3.677 7.843 4.217-.718 4.56 3.038 9.22 4.086 7.208 4.143 4.806 2.982 4.903.531 2.28M168.586 347.658l-4.822.19-8.33-.604-10.284-1.056h-2.532M219.348 352.652l-10.543-4.284-6.205-.981-2.464.905-2.46.763-8.839-1.66-3.994-.377-16.257.64M361.513 394.926l1.908.933 1.37.513 3.791 1.746 1.593.538.908.422.829.787.95 1.232.008.579-.187.64-.93 1.355-.576.82-.213.55-.659 2.635-.202 1.081.043.525.901 2.291 2.633 1.45 1.634 5.379 2.905 2.74 4.175 8.058 4.085 3.223 1.362 9.83-.817 4.594.544 3.787-2.087 5.601-.273 3.626-1.997 2.982.363 3.867-2.36 9.83 2.088 3.465 1.816.725 5.719 4.754 1.638 2.788M403.458 482.575l-1.567 1.051-9.416 4.646M381.727 495.423l.32-.67 10.428-6.481" clip-path="url(#p73539b5207)" style="fill:none;stroke:#000"/><path d="m254.273 340.923-1.001.23-.858.545-3.127 3.14-.96.662-7.31 3.396-15.298 4.679-2.635.452-2.21-.754-1.526-.621" clip-path="url(#p73539b5207)" style="fill:none;stroke:#000"/><path d="m216.386 438.272-1.82-2.858-1.61-1.119-3.57-.31-3.01-.622-2.8-1.802-5.46-1.553-2.73-.622-1.75-2.237-.35-3.107.98-2.36-.14-3.36 3.5-13.297 1.82-3.046 4.13-2.734 2.66-2.423-.35-2.175.49-1.18 4.13-5.102-.56-.87-1.96-.435-.91-1.118.21-3.356 2.45-2.548.07-1.926 1.47-2.051-1.54-5.034.07-1.553.91-1.989 3.01-3.17 4.69-1.304.98-2.362-.56-3.356-.77-3.418 1.282-1.223M159.953 537.986l-3.64-3.044-1.47-2.92-1.68-6.089-.49-1.305-6.02-7.463-1.19-3.542.21-2.05 8.4-9.755 1.82-1.801 4.83-2.3 4.404-1.925 5.74-.684 3.64-1.615 1.33-1.926.07-5.157.35-1.367 4.62-5.84.937-3.095 4.55-6.337 2.66-13.11 2.87-2.113 4.9-1.616 3.78-4.473 3.608-4.008 9.03-4.474 3.174-1.705" clip-path="url(#p73539b5207)" style="fill:none;stroke:#000"/><path d="m251.386 426.335-1.82 3.418-4.34 1.305-3.99 1.615-6.02-.062-6.394 1.463-4.27 1.988-8.166 2.21M251.386 426.335l.98-7.27-.7-3.716-1.205-5.99-.144-3.787.13-.934.295-.717 1.132-1.875.533-1.253.195-.877.044-1.158-.138-2.91.022-.666.511-2.507.584-1.408.115-.64.058-.633-.353-1.99-.216-1.285v-1.063l.1-1.132.469-1.746.029-1.843.151-.55.497-1.005 1.276-1.97 1.103-1.97.216-.493.093-.627.008-.966-.166-.915-.036-1.075.151-.518.505-.96.237-.78.252-1.306.762-3.537-.156-2.726-.036-1.113.216-.499.498-.5 1.527-.914 1.513-1.126 1.485-1.522.67-.685.742-.896.231-.601-.007-.825-1.355-3.135-.375-.672-.605-.455-1.096-.69-1.75-.653-.656-.128-2.508-.211-1.247-.416-.75-.576-.684-1.062-.23-1.42-.03-2.515" clip-path="url(#p73539b5207)" style="fill:none;stroke:#000"/><path d="m301.64 347.735-.496 1.57-.533.755-.54.55-7.675 4.965-1.225.985-2.89 2.7-2.328 2.306-2.046 2.21-.858 1.203-2.199 3.502-.684.88-.367.986.238 3.877-.173 1.049-1.528 3.237-.418.806-.317 1.101-.065.934-.058.486-.634 2.009-.353 1.587-.007 1.234.18 1.017.353.98.562.844 2.962 3.243 2.436 2.661.41.66.275.569.612 3.333.605 2.783.33 1.715.052 1.074-.295.819-.425.64-1.175 1.074-.807.3-1.297.04-1.845-.186-1.089-.147-2.067-.435-1.47-.148-1.943.067-1.52-.089-.551.083-.909.25-.291.252-.105.263-.151.447-.36.416-1.323 1.183-4.62 4.723-.63 1.243-5.11 4.909-4.34 3.729-1.552 1.356M263.732 472.751l-5.048-5.217-3.99-3.356h-2.31l-6.79 2.237-7.21 3.48-4.34 1.74-3.18 3.72-2.17 2.92-1.19-.186-1.61.745-4.97 8.512-5.18 8.285-5.741 8.201-11.9 16.217-2.45 3.797-4.9 5.778-2.03 4.473-2.38 3.168-5.53 11.804-.84.56-1.12-.063-8.4-6.088-4.55-2.671-5.95-2.821M137.175 554.025l6.399-3.527 2.58-3.252 2.633-1.832 4.85-2.794 2.636-1.832 3.68-2.802M353.6 399.443l-1.045.69-3.454 2.895-3.71 3.666-3.22 3.79-2.881 1.551-1.4 1.243-.49 1.74-2.1 3.231-.77 2.859.35 4.101-1.19 3.852-1.61 6.65-2.59 6.1-3.5 5.281-2.24 4.474-5.74 11.806-2.1 2.05-8.75 4.287-7.526 4.349-9.31 4.66-6.3 3.852-1.19-.062-5.11 2.796M263.732 472.751l5.172 5.345 1.19.994 1.96 1.181.7.994 1.05 2.112 3.92 1.927M285.955 555.04l-2.31-3.542-5.39-7.64-2.03-8.574-4.34-9.257-3.43-7.617-1.54-10.686-.35-9.63.98-2.734 1.82-3.107 4.9-4.597 3.459-2.352M363.031 356.475l-.14.892-.91 3.854-.77 2-1.903 3.812-1.37 2.508-.418 1.196v.851l.13 6.859.274 2.123 1.257 4.934 1.799 6.352.533 3.07" clip-path="url(#p73539b5207)" style="fill:none;stroke:#000"/><path d="m353.6 399.443 3.013-1.312 1.758-.819 2.198-1.317.54-.474.404-.595M363.97 438.38l-3.536-6.65-2.277-7.927-2.218-12.714 3.333-5.095 1.225-1.766.598-1.337.288-.979.13-1.388.115-2.085-.021-2.06-.094-1.453M313.289 325.774l-3.172 1.675-.735.525-.858.89-.591.684-.923.582-2.428.921-.728.518-.39.653-.395 3.417-.418 2.604-.577 2.968-.158 4.786-.276 1.738M263.732 472.751l2.763-2.182 8.33-1.677 6.93-4.723 3.71-1.863.91-1.305 1.54-.622 1.26.187 1.074-.844 4.27-2.983 4.48-2.734 5.18-2.671 4.27-4.599.84-3.541 2.31-2.797 2.8-5.032.77-7.37-.42-5.22-2.59-1.926-.91-.808 1.54-2.113.28-3.23 1.54-2.735-.587-2.521.087-.589.324-.46 1.484-.832.512-.608.346-.665.109-.704-.059-.755-1.059-1.906-.627-1.28-.158-.575.223-.864 2.01-3.467.642-1.407.043-.704-.49-2.06-.266-.544-1.132-1.977-.238-.607-.691-4.089-.23-1.145-.383-1.184-.245-1.234-.137-2.617-.216-1.311-.317-.883-.555-.896-1.247-1.33-.95-.813-2.761-1.907-.728-.658-.548-.915-.8-2.156-.172-1.619.05-.89.296-1.65-.116-1.388-.31-1.043-1.11-2.437-.317-.806-.18-1.35-.08-3.5-.15-.717-.224-.601-.893-2.208-1.119-2.356M305.763 568.83l-11.898-3.996-3.92-2.92-2.24-2.237-1.75-4.638" clip-path="url(#p73539b5207)" style="fill:none;stroke:#000"/><path d="m381.727 495.423-6.773.859-2.17.311-1.96 2.371-4.41 5.033-3.99 2.672-5.67 3.106-2.94 6.772-1.96 2.982-4.48 1.988-5.18.373-7.91-3.852-1.47-.124-2.45 3.603-3.36 1.615-2.566 2.233-3.15 5.032-.84 2.236-2.1 2.237-1.68 2.236-3.92 10.873-5.81 3.478-8.05 2.113-2.31.62-7 1.057-2.87-.497-.753.29M305.763 568.83l.492.166 10.08 3.292 9.66.622 5.32.745 2.59-.435 5.46.187 6.65-1.491 3.413-1.324 1.96.621 1.89 2.982 1.12 3.292 1.774 3.254M458.649 227.042l.173.658.136.87-.086.986-.584 1.785-2.06 4.851-2.062 4.704-.706 1.426-.497 2.343v.716l.267 1.363.77 2.726.354 1.58.554 3.245.448 1.28.85 2.246.829 1.715 1.196 2.374 1.362 2.687 1.528 2.982.893 1.452 1.125 1.453 3.084 3.033 1.578 1.753 4.302 5.9 1.694 2.323 1.319 2.22 1.902 3.007 2.068 2.694 5.542 7.857 1.615 1.945.814.807 2.702 1.874 1.96.947 1.73.512 1.787.256 8.122.582.46.083.584.224.534.595.677 1.146M521.879 342.81l-.584-1.694-2.371-5.816-2.94-7.748-.599-1.063-.857-.979-2.35-1.88-.504-.513-.505-.722-.95-2.182-1.99-3.519-1.636-3.673-.173-.883-.223-2.099-.584-1.797M509.577 301.261l-.418.832-1.7 3.468-1.846 2.68M416.26 130.073l.714 1.67 1.917 3.168.915 1.056 1.247 1.133 1.318 1.562.75 1.389.994 1.785 1.254 1.645 3.18 3.684 2.974 3.228 1.78 1.645.548.602.49.877.411 1.24.656 2.964.043.89" clip-path="url(#p73539b5207)" style="fill:none;stroke:#000"/><path d="m445.994 194.833.548-1.087.238-.832.014-1.491-.151-1.537-1.016-4.89-.238-.645-.706-1.286-1.478-1.729-1.88-2.24-.973-1.247-.388-.74-.312-.937-.807-4.614-.274-.948-.626-1.08-1.312-1.454-.642-.589-.425-.787-.137-.953-.108-1.722.08-3.2.05-2.214M458.649 227.042l-.952-1.6-1.217-1.914-1.204-1.203-3.084-2.278-2.429-1.427-2.068-1.536-4.067-3.224-1.432-1.326-1.54-1.635-1.615-2.867-.369-.937-.072-1.715.216-.679.433-.8 2.457-3.225 3.006-3.539 1.282-2.304" clip-path="url(#p73539b5207)" style="fill:none;stroke:#000"/><path d="m429.35 187.9 3.103.79 2.508.64 1.802.576 1.614.589 2.594 1.267 5.023 3.071M205.621 198.162l-8.05-11.639-1.528-1.674-5.218-4.367-1.931-1.93-1.499-2.1-1.375-2.828-1.096-3.93" clip-path="url(#p73539b5207)" style="fill:none;stroke:#000"/><path d="m155.454 196.775 4.949-2.698 3.381-1.175 1.756-1.079 5.565-9.542 1.96-4.818 9.38-6.465 2.48-1.304M208.002 231.567l-.703-1.153-6.016-3.5-5.756-2.44-8.246-5.02-3.786-1.013-10.943-.507-4.2.6 1.296-4.79-12.395-14.876-1.8-2.093" clip-path="url(#p73539b5207)" style="fill:none;stroke:#000"/><path d="m142.52 197.602 4.946 1.87 4.852-1.087 3.136-1.61M208.002 231.567l-6.77 9.227-3.01.8-2.298.374-1.326 1.149-1.134 1.58-1.748 1.237-3.625 2.846-2.298 1.235-2.299.633-3.027 3.916-1.05 1.928.668 1.801-.119 1.039-.692 1.059-1.503.89-1.074.487h-.955l-2.934-.043-3.078.742-1.646-.297-3.15-.233-4.462.615-2.696-1.759-2.363-1.08-2.434-.7M144.595 274.805l2.542-4.463 2.714-.99-.037-2.147.67-2.211 1.3-4.92 1.195-1.06M235.999 215.93l-1.339.53-4.207-.457-3.155-1.227-1.413-.33M208.002 231.567l.667-.91 4.685-6.537 6.99-5.084 2.231-.727 1.934-1.915 1.376-1.949M214.387 209.482l.194 1.034 1.339.628 5.986 2.08 3.31.859.669.362" clip-path="url(#p73539b5207)" style="fill:none;stroke:#000"/><path d="m214.387 209.482 15.683 5.312 4.047.83 1.882.306M205.621 198.162l6.824 9.864.927.883 1.015.573M163.017 277.995l-5.837.997-5.524-1.812-3.57-1.66-3.491-.715M120.508 263.246l2.334 1.255 2.126 2.265 1.614 1.66 3.06.83 14.024 5.358.929.19M430.775 477.446l-7.114 1.442-5.401 1.988-6.148.312-7.377 1.598-1.277-.211M424.582 446.536l-1.136.714-1.6.715-7.705 2.261-2.196 1.79-2.17 1.996-4.083 2.257-1.053.927-1.223 2.332-.964 2.562-1.105 4.893-.288 2.756.46 2.436 1.185 3.634.76 3.28.251 1.457-.006 1.457-.251.572M424.582 446.536l1.32.858 3.863 1.676 1.142 2.26 1.976 3.704-.746 3.274.878 1.91 1.624 1.91.22 2.027-.175 5.106-1.362 1.56-.351 1.597 1.274 2.183-.484 1.56-2.986 1.285M434.756 487.103l-.731-1.705-1.713-3.118-1.537-4.834" clip-path="url(#p73539b5207)" style="fill:none;stroke:#000"/><path d="m428.504 395.387.973 1.068 2.385 2.246 2.177 1.88 3.156 2.214.764.588 1.275 1.133 1.665 1.683.67.812.52 1.1.215.858.291 2.316.14 2.074.018 2.128-.787 4.445-.162 1.111.143 1.111.278 1.16-.028.673-.137.833-.382.671-1.828 2.027-1.342 2.405-.37 1.182-.63 1.136-2.547 2.182-3.186 3.307-6.474 8.083-.719.723M549.638 456.836l-3.09.953-5.9-1.359-1.985-3.117-3.893-2.643-4.505-2.304-3.436-.407-4.504 2.508-6.947 2.44-9.162 2.574-3.894 1.83-3.598 1.322-2.822.813-4.5 3.859-3.508 4.265-.534 3.385-.992 3.588-7.245-.27-2.365-.813-3.737-.542-3.05-2.03-1.679-.542-3.737 1.42-3.916.19-3.575 1.08-2.663 3.106-2.662 2.836-10.422 6.144-6.238 1.756-.323.225" clip-path="url(#p73539b5207)" style="fill:none;stroke:#000"/><path d="m561.29 487.348-.479-2.354 2.24-2.495.132-2.923.702-2.3-3.205-3.235-9.354-14.54-1.688-2.665M521.879 342.81l5.034.16 1.703.314 1.518.64 1.392.882 9.966 10.35 1.497 1.238M545.84 360.98l-1.441-1.918-.83-1.248-.58-1.42M542.467 373.763l.166 1.657-.54 2.636-.224.416-.396.358-1.586 1.1-2.126 1.978-3.191 3.035-4.93 4.98-.757.563-1.03.295-2.92.153-1.095.116-.468.179-.548.466-2.083 2.457-.475.806-.101.768.086 1.72-.086.711-.577 2.476-.072 1.03.072.934-.1 1.592-.397 1.127-.158.754-.03 1.363-.035.723-.223.55-3.04 4.93M306.57 127.244l.39-.794.555-.672.756-.62 2.811-1.934 2.054-1.177 1.946-1.35 3.221-2.625 2.291-1.241 2.105-.973 2.97-.781 1.7-.365.966-.083 1.066.096 2.22.397.692-.007 1.066-.128M337.386 117.976l-.908-1.242-1.013-1.023-.5-.362-.462-.144-1.124-.218M316.155 152.646l.087.698-.13.441-.447.43-4.125 2.409-.627.515-.364.55-.339.461-.872 1.145-.41.769-.743 1.619-.937 2.073-.173.653-.086.582-.08 1.48-.187 2.802-.108.448-.302.301-.627.441-1.27.602-.475.422-1.534 1.376-.836.845-.75.82-.483.773-.9 2.119-.894 1.69-.238.71-.036.691-.072 1.702-.534 2.38-.62 2.305-1.52 3.944M278.912 242.751l7.495-4.16 1.751-1.176.908-.673 1.06-1.062 1.08-1.299 1.002-1.568 2.725-4.409.562-1.177.95-3.187.354-2.041.187-1.741.375-1.683.865-2.995.1-1.254-.042-1.728-.101-1.274-.411-2.956-.151-1.696-.015-3.877.36-3.284.029-.524-.101-.602-.195-.633-1.815-4.211-.274-.903-.08-.902-.008-.894M285.124 143.513l-.446.768-.454.813-.325.845-.108 1.14.036 1.4.245 1.722.152 1.6-.188 1.428-.245 1.625-.49 2.035-.446 1.581-.462 1.536-.562 1.19-.598 1.728-.433.73-.67.793-1.982 1.69-1.073.743-1.52 1.01-.267.365-.08.487.123.422.339.397.98.979.345.692.13.857-.043 2.995-.23 3.404-.195 2.017.043.646.108.473.461.877.634.806.966.948.667.624.771.473.555.224.86.234 2.624.691 3.049.998 2.377 1.037 2.933 1.255 1.529.505 1.288.546M278.912 242.751l-4.294 2.739M289.333 262.755l-.868-1.35-1.496-2.465-1.513-2.738-4.483-9.394-1.83-3.52-.231-.537M347.36 122.84l-1.132-.896-.987-.563-1.513-.55-1.766-.506-2.134-.749-.64-.377-1.096-.73-.706-.493M350.898 218.53l-.159-.998-.735-1.99-.151-.749-.13-1.753-.26-1.907-.079-.666.202-1.196.26-1.479.44-1.555 1.001-2.157 1.621-3.014 2.825-5.477.908-1.46 1.067-1.01 1.11-1.076.548-.921.064-.698-.237-1.977.217-2.847.172-2.075.007-1.568-.179-.886-.348-1.168-.98-2.349-2.104-4.754-1.456-2.977-.317-.928-.15-.761-.253-2.336-.166-1.92-.23-1.613-.13-1.075-.072-.736-.015-3.719.022-3.11.332-4.768-.015-1.472-.331-.973-.822-1.792-.879-2.163-.54-1.536-.505-1.517-.677-1.133-1.261-1.952-.721-.806-.613-.435-1.009-.55-.8-.282-.98-.25-.562-.18-.634-.415-1.283-1.14-.59-.793-.663-1.35-.49-.954-.325-.742-.238-1.223-.504-1.843-1.067-4.653-.382-1.76-.266-.967M351.12 226.574l.477-1.9.022-.858-.03-1.535-.028-1.012-.209-1.638-.454-1.1M289.333 262.755l6.644-7.705 3.704-4.082 3.69-2.97 4.151-2.751 3.69-2.054 2.133-1.146 5.196-2.111 3.61-1.357.915-.493.923-.69 1.83-1.466 1.262-1.165 1.715-1.65.756-.96.36-.724.988-2.668.533-2.266.483-3.334.7-2.892 1.275-2.9 1.217-2.162 1.197-1.69.483-.87.338-.812.498-1.204.417-.44.498-.174.763.064 1.132.48 1.139.877 1.592 1.632 2.14 2.01 1.254 1.708.707.742.857.563 1.03.327.93.108h.815M453.28 312.938l-1.873-.189-.851.01-.973.134h-.331l-.894-.166-1.687-.538-1.13-.563-2.437-1.746-1.26-.787-1.132-.646-2.81-1.318-1.687-.544-2.926-.935-.814-.23-.836-.153-.966-.013-.706-.11-1.383-.44-.736-.397-2.781-2.758-1.045-.595-1.629-.742-8.662-3.059-6.356-3.596-.88-.524-1.138-.256-3.783-.698-3.092-.864-1.196-.511-.807-.435-1.067-.826-.475-.723-.332-.806-.331-.403-.649-.544-1.485-1.024-.943-.866-1.94-2.506-.734-.812-1.074-.839-2.912-2.182-2.897-2.29-1.534-1.331-1.052-.62-.512-.34-2.667-2.45-1.297-1.21-.425-.73-.663-1.311-.663-1.92-1.167-2.918-.433-.89-.749-1.068-.973-1.28-1.11-1.03-2.032-1.875-4.375-3.967M351.12 226.574l-.042.666.115 1.087 1.42 5.203.829 3.29.835 2.655 1.248 2.688.972 1.9.62 1.1 1.34 2.016.649 1.088.303.749.44 1.037.569 1.267.547.934.447.576.576.678M475.276 337.456l.063-1.408.123-.928.49-.62.605-.448.861-.468.227-.466v-.845l-.144-.723-.397-.435-.9-.467-1.01-.652-1.145-.992-1.088-1.113-2.025-2.841-.872-.838-2.342-1.53-3.294-2.239-4.504-2.905-3.704-2.265-2.94-2.335M358.993 225.765l1.778.547.807.358.821.557 1.924 1.388.67.41.404.122h.548l3.322-.295 5.247-.255 4.295-.224 5.145.044 2.14.301 1.903.537 1.369.487.886.486.707.16.526-.013 3.034-.972.663-.224.194-.23.216-.532.512-.742.706-.371 1.362-.32 1.629-.186.9.045.649.16.325.16.151.32.598 1.996.137.237.706.839-.036.288-.194.262-1.32.73-1.642.652-1.708.154-.641.166-.534.32-.353.352-.26.167-.331.031-1.041.122-.861.314-.505.32-.678.608-.403.3-.706.23-2.177.385-.374.21-.065.308.036.543.483 1.35.086 1.08.094.517.41 1.025-.064.898-.17.202-.27.15-.562.167-1.376.508-.728.42-.54.48-.635.716-.346.832-.043.845.26.998 2.082 3.165 3.164 5.294.72 1.792 1.096 3.634 1.34 3.674.98 1.996 1.874 2.65 1.34 1.355 1.963 1.448.884.543.8.703 1.275 1.504 1.067 1.389 1.557 2.495 1.34 2.656.533.697.713.39.909.346 1.26.198h1.561l.346.051.27.11.72.617.343.198 2.576 1.142.664.25.59.077 2.285-.167h.468l.85.282 1.665.946 1.06 1.184.756.826.411.409 1.758.761 3.114 2.196 1.736 1.388 1.096.64 3.02 1.081 3.9.697 1.41.276 1.168.562.792.609 1.046 1.868.67 1.504 1.801 3.186 1.73 2.386 1.311 2.195.83 1.05 1.664 1.593.533.85.159.775.007.262M358.993 225.765l-.919-.01-1.008.108-.972.564-.642.205-.807.122-3.524-.18" clip-path="url(#p73539b5207)" style="fill:none;stroke:#000"/><path d="m306.596 281.282-6.028-6.306-9.49-10.212-1.745-2.01M548.506 248.704l.03 1.419-.145 4.505.086 2.726-.108 1.874-.173 1.03-.317.73-.519.608-1.434 1.094-3.913 3.232-1.73 1.151-.821.455-1.03.217-.93.058M509.577 301.261l.036-.787.23-4.12.296-2.79.872-4.217.317-1.618-.087-.66-.338-1.772.029-.5.216-.901.648-1.466 1.283-1.868 1.658-2.521.31-.608.187-.736.317-2.45.382-1.325.447-.787.944-.896 2.075-1.523 2.45-1.286 1.03-.288.873-.109 1.377.045 1.397-.013 1.348-.09 2.09-.236 4.511-.275 1.218.038 1.809.3" clip-path="url(#p73539b5207)" style="fill:none;stroke:#000"/><path d="m635.675 279.78-.727-.325-1.44-.161-1.12.037-6.917.631-2.676.223-3.011 1.077-8.365 6.127-4.558 1.708-6.608 1.374-4.642 2.116-11.668-4.307-10.092-3.7-2.306-.512-2.731-.467-1.65-.505-.887-.41-1.463-.908-1.066-.55-.901-.173-1.168-.007-2.493.301-.85-.032-2.35-.454-3.487-.87-3.265-.928-1.816-.583-1.384-.198-.807-.032-.31-.135-.389-.313-.858-.653-.648-.627-.8-.524-2.118-.813-.332-.288-.462-.602-.504-1.177-1.311-2.444-.245-.838-.072-.634.324-1.401M547.686 242.925l-3.821-11.567M548.506 248.704l-.014-.706-.157-1.956-.649-3.117M516.135 241.408l.987.21.303.026.396-.032 1.232-.915.173-.333v-.256l-1.073-2.252-.152-.755.058-.704.267-.832.598-1.562.381-.178.426-.064.792.14 2.897.679.526.025.736-.013 1.29-.102.85.128 1.333.416 1.413.998 2.637 3.89 1.758 2.177.714.563.519.205.497.025 4.172-.064 3.38-.013 4.441.11M508.438 137.286l-.337 1.03-.96 2.58-.793 3.046-.317 1.613-.086.64.13.576.958 1.818 2.748 4.4.145.746-.342 1.19.159 1.081.821 1.478 2.378 2.183 1.261.864 1.261.672.93.71.663 1.107.49 1.453.245 1.005.015.838-.216.564-1.017 1.862-.267.761-.62 3.175-.95 2.08-.512 1.92-.08.902-.15.633-.368.704-.54.615-.966 1.037-.411.678-.115.723.072.78 1.297 3.168.389 1.71.23.78.289.198.497-.038.49-.304 1.024-.334 5.066-.226 3.033-.281.974.012.835.327 2.421 1.273 3.438 1.946 2.443 1.523 1.629 1.42 1.564 1.69.834 1.292.621 1.306.461 1.555.166 1.011.072 1.306-.375 1.593-.396 1.37-.562 1.44-2.796 5.055-.353 1.062-.094.621.23.915.397.756.72 1.028 3.762 4.29.49.806.613 1.056 1.787 5.848 1.002 3.434M563.906 230.612l-.28.301-.404.205-.39.038-4.381.154-8.482-.077-4.742-.038-.656.07-.706.093M513.288 125.445l-.173 1.92.08 2.625.15 1.375-.1.826-.49.845-.663.87-.786.704-2.868 2.676" clip-path="url(#p73539b5207)" style="fill:none;stroke:#000"/><path d="m458.649 227.042 1.272-.177 3.643-.553 5.606-.659 4.151-.82 4.871-.76 2.062-.11.465-.086.212-.118.094-.343.079-1.097.144-.666.339-.947.516-.904.594-1.79.425-1.466.022-.492-.224-.749-.706-1.83-.72-1.51-.534-1.562-.39-.87-.698-.845-.26-.486-.064-.403.28-.589.75-.71.994-.691 1.334-.68.418-.363.158-.365.353-4.909.317-3.699.39-1.894.043-1.216-2.047-12.671-.007-.602.872-4.749.497-1.465.591-1.312 2.407-4.06 2.717-4.58 1.657-1.996 1.297-1.882 1.269-1.945 1.52-2.196 2.122-2.598.408-.666.224-.53.943-3.732 1.355-4.122.339-.723.468-.698.836-.55 1.737-1.171 4.648-3.15M513.288 125.445l.033-.774M514.297 124.812l-.353.166-.31.186-.346.281M513.32 124.671l.977.14M127.47 501.048l.65-.534 1.93-1.316 5.795-7.416 8.13-11.921 1.648-1.533 5.698-4.696 5.697-4.368 18.66-15.145M127.47 501.048l-.953.783M150.49 571.072l-1.629-5.007-3.303-4.855-3.458-3.343-3.354-2.153-1.571-1.69M126.517 501.831l.109.885-2.49 5.735.355 6.262 2.254 6.103.948 1.368.119 2.473 1.956 1.947.178 1.21-1.72 2.052 3.676 4.051.444 4.656 3.172 3.63-.415 3.631-1.215 3.025.667 1.584 2.62 3.582M627.589 240.626l-.562 1.423.02.742.209.93.684.979 1.122.996.99.54.589.211.556.093.613.017.638.634.209.65.19 1.705.171 1.081.4.777.55.54.99.912.856.929.532.996.362.929.057 2.128-.077 1.604-.19 1.486-.317 1.766-.576 2.457-.519 2.944-.144 2.405.201 1.306.055 1.545-.125 1.092-.189.914-.238.936-.088 1.191.125.69.39.725.602.882M609.118 205.118l4.675 3.802 3.146 2.716 2.12 1.435 1.42.602 1.201.484 1.616.388 1.114.175 1.29.272 1.179.446 2.534 1.435 2.578 1.94 1.311 1.824 1.18 2.056 1.026 1.862.809 1.048.952.97-.084.537-.44.783-1.347 1.52-1.856 2.178-1.96 1.634-1.702 1.14-.894.506-.59.609-.322.557-.362 1.232-.123 3.357M514.297 124.812l1.83.026 1.32.306 3.4 1.082 4.93 1.908 2.746 1.33 2.846 1.127 4.727 2.266 9.167 5.14 2.775 1.727 1.563 1.216 2.487 2.285 1.945 2.189 1.312 1.286.786.71.706.858 1.066 1.645.894 1.26.8.929.72.768 1.081.902 2.155 1.466 1.398.755 1.038.454 1.744.756 1.29.646 1.376.903 6.385 4.966 7.523 6.209 3.43 4.749 1.917 7.483 2.876 2.553 10.494 6.72 2.018 3.63-.15 5.287.12.888.349.776.524.621.94.815 2.293 1.669" clip-path="url(#p73539b5207)" style="fill:none;stroke:#000"/><path d="m609.894 204.449-.18.152-.448.388-.148.129M612.128 206.4l-1.283-1.126-.951-.825M607.342 201.102l.231.55.62.858 1.08 1.37.62.569M370.19 161.036l-3.128-2.592-.836-1.023-.764-1.23-.202-.62-.403-2.298-.36-2.662-.404-1.818-.432-.864-1.946-2.784-1.067-1.51-1.398-2.407-1.83-3.673-1.6-2.496-.85-1.216-2.48-2.548-1.6-1.51-.446-.5-1.01-1.817-1.584-3.494-.49-1.134M285.124 143.513l1.701-2.003 2.601-2.83 1.73-1.676 1.722-1.363 1.118-.743 1.715-.793 2.854-1.203 2.082-.896 3.229-1.562.8-.563.475-.43 1.42-2.207M301.8 118.2l-1.513-.006-1.722.275-.584.16-.808.314-.518.025-.714-.102-.72-.032-.57.198-.634.448-.389.71-.382.948-.007.531.144.378 2.22 2.368.67.454.583.269.49.154.873-.128.98-.295.872-.166.936.102 1.204.173 1.074.237.843.41 2.443 1.619M285.124 143.513l-3.127-2.502-.325-.442-.093-.288-.13-.666-.345-3.338M213.125 553.434l-6.366 6.686-12.096 9.51-1.644.424-4.456-1.507-10.61-2.919-6.366-4.19-4.616-.14-1.167 2.683.636 3.295.266 2.684.212 4.708-.319.8-.901-.376-.796-1.083-1.698-1.413-12.713-1.524M163.017 277.995l-.186.948-.534 3.238.274 2.406.015 3.327.144 1.318-.044.333-.562 1.113-1.023 3.865-.36.768-.576.473-3.777 1.702-2.594 1.357-2.912 2.2-.792.947-.144.59.994 2.776.317 1.267-.519.5-1.009.037-1.383-.05-1.11.153-2.796.704-.807.358-4.339 4.888-.936.717-1.441.768-2.076 1.42-.591.371-.274.397-.605 1.714-.764.87-.764.948-.72 1.19-.375 1.01-.433.73-1.542 1.715-.302.09M161.85 273.632l.548.32.62 4.043M397.906 559.675l-2.407-5.232-2.263-4.375-2.897-5.87-2.364-4.696-.317-1.829-.155-.521M397.906 559.675l.85 1.931M400.024 560.045l-1.138-.057-.98-.313M400.024 560.045l-.519.48-.36.435-.39.646M517.547 559.892l-2.882 5.526-.836 1.177-2.94 2.404-1.125 1.535-1.268 3.07-1.153 1.305-2.681 2.686.115.768.577.895 1.989 3.632-.26 1.996-2.306 3.274-4.353 7.06-3.113 3.53-1.066 2.15-3.027 3.274-5.448 4.118-1.614.588-8.85.87-2.104.41-5.016 2.225-7.581 3.044-.577-.998-1.181-3.555-.577-2.38-2.652-2.992-1.066-1.228-1.327-2.2-.576-2.021.029-5.935-1.845-5.32-2.537-8.852-.26-1.893.145-11.333-.086-1.483-.346-.998-1.038-1.382-2.94-3.862-.778-.614-1.76-.051-4.208.383-8.878.819-8.042.896-3.085.23-2.104-.077-1.643-.69-2.393-2.38-.893-.895-1.038-.82-1.009-.101-1.874.818-5.88 2.61-2.162.92M517.98 557.948l-.836-2.366-.98-2.469-1.298-2.43-.26-.998.404-1.011 1.816-2.251 2.508-2.482 1.456-2.149.649-2.008 1.095-.818 2.58-1.74 1.254-1.177M519.039 559.566l-.641-1.042-.418-.576M517.547 559.892l.375-1.317.058-.627M519.039 559.566l4.734 1.656 2.998 1.33M592.768 526.43l-.562-.141-.461-.269-.505-.46-.446-.397-.75-.857-.951-1.228-2.061-2.61-.173-.128-.317-.038-.317.038-.563.333-.605.397-.605.498-.562.563-.49.55-1.023 1.356-.275.768-.345.742-.418.626-.447.563-1.297 1.305-.562.538-1.658 1.662-.403.588-1.629 2.508-.288.614-.288.64-.303.627-.995 2.916-1.254 2.38-.562.55-.562.447-.634.384-.72.32-.75.178h-1.629l-.85-.025-4.382-.14-.807.037-.706.18-.735.307-.461.524-.404.678-.634.41-.649.307-.677.332-.706.256-.793.217-.735.218-.75.192-1.311.306-1.759.141h-.807l-.836.115-.734.333-.707.41-.562.55-.663.472-.793.244-.75-.026-.734-.205-.605-.383-.937-.717-1.398-1.42-.72-1.1-.49-.524-.722-.294h-.735l-.39.09-.648.37-.446.563-.274.627-.303.627-.23.652-.231.704-.072.677-.36 1.318-.217.678-.23.704-.145.729-.403.64-.72.498-.678.41-.62.447-.461.524-.49.653-1.182 1.906-.331.716-.534.985-.331.627-1.528 2.085-1.21 1.535" clip-path="url(#p73539b5207)" style="fill:none;stroke:#000"/><path d="m517.547 559.892.85-.288.642-.038M372.362 346.794l-2.22-9.033M376.282 352.666l-1.206-.133M368.36 351.403l-1.192 3.276M344.949 297.444l-1.134-5.094M343.472 290.89l.343 1.46M341.746 292.694l2.069-.344M346.753 291.706l-2.938.644M350.415 289.641l-2.93.548M429.35 187.9l-2.352-.599-1.773-.467-1.7-.3-.57-.123-1.268-.447-6.183-2.932-7.365-2.841-4.396-1.542-2.011-.647-1.276-.326-1.765-.371-.367-.16-.57-.41-1.167-1.12-1.492-1.587-.886-.627-1.42-.749-4.742-2.112-3.178-1.446-2.926-1.536-10.676-5.904-1.078-.618" clip-path="url(#p73539b5207)" style="fill:none;stroke:#000"/><path d="m358.993 225.765.016-.681-.364-.948-.193-1.038.25-1.547.195-.359.165-.255.368-.314 1.06-.416.46-.256.203-.166.15-.314-.18-2.361-.122-3.82.087-4.186-.007-1.945.187-2.63.418-2.95.158-.75.411-.786.548-.8.822-1.082.742-.787.785-.742.346-.442 1.052-1.62 1.665-2.13.641-.87.353-.564.289-.832.288-1.267.31-.992.367-.928.238-.761.202-1.235.202-1.709.007-1.139.022-.723-.497-3.302.028-6.49-.043-1.78-.317-2.073-.325-4.019-.029-1.65.08-.506.158-.564M349.227 413.43l1.02-1.703 1.811-6.028.303-1.931.46-2.431.275-.922.504-.972M480.398 367.564l-1.052.473-.843.698-1.802 1.56-2.479 2.304-1.68 1.817-1.188.819-2.12 1.663-1.267 1.075-1.052 1.024-.419 1.074-.273 1.395-.065.858-.137.678-.31.76-.781 1.34-.296.686-.178.501-.212.479-.19.507-.085.395.005.398.342 1.555-.09.224-.15.102-.303.096-3.28.352-12.878 2.098-4.158.519-.677.185-.584.326-1.11.685-.986.422-.765.122-1.664.057-3.164-.185-.9.108-5.103.653M480.398 367.564l2.068-.748 1.7-.653.793-.563 1.039-1.37.453-.658.613-2.105.346-.653.965-1.215.49-.55.325-.531.216-.653.029-.646-.274-1.187-.21-1.024.175-1.042.333-1.06.425-1.052.874-1.753" clip-path="url(#p73539b5207)" style="fill:none;stroke:#000"/><path d="m516.535 375.903-4.71 1.66-1.455.295-2.343.09-.85-.11-.576-.115-.49-.332-.51-.576-2.539-4.446-2.652-4.408-2.205-4.255-.18-.499-.007-.717.173-.857 1.952-4.753.39-1.171.086-.665-.086-.647-.34-.595-.792-.844-.475-.435-.54-.384-.967-.333-3.012-.652-2.854-.59-.54-.223-.255-.24M375.076 352.533l-.06.362M313.324 324.903l-.035.871M499.82 386.277l-2.466-.128-1.196-.179-1.268-.473-4.079-2.214-1.283-.883-.936-1.087-1.269-2.342-.41-.652-.67-.602-.909-.576-1.11-1.074-.792-.96-2.71-4.12-1.009-1.363-.216-.582.058-.416.173-.326.67-.736M542.467 373.763l-.065-1.004.087-.742.201-.858.649-1.823 1.34-3.327 1.017-2.162.72-1.254.094-.467-.072-.429-.598-.716" clip-path="url(#p73539b5207)" style="fill:none;stroke:#000"/><path d="m542.467 373.763-1.47-.831-.447-.615-.331-1.343-.36-1.382-.145-.973.274-.639.505-.589 3.242-4.184.548-.576.793-.614.764-1.036M547.065 303.693l-.836 1.95-.21.263-.316.199-.461.076-.75-.025-3.365-.5-3.344-.453-1.78-.154-1.34-.058-1.932-.39-1.276-.262-.807-.064-.82.044-.563-.038-3.135-.659-.793-.342-.515-.343-.357-.32-.36-.6-.75-.986-.735-.73-.994-.665-2.162-.87-1.139-.308-.922-.025-1.37.37-1.93.73-1.269.218-1.08-.077-.635.064-.49.295-1.052 1.228M563.906 230.612l.238-.525.087-.896-.188-2.91-.173-.634-.461-1.249-.44-.748-.605-.768-.108-.506.122-.268.281-.141.469.044 2.782 1.236.936.467.534.531.648.82.721 1.145.267.48.475.32 1.06.454 1.001.262.786-.25 2.241-.633 2.421-.41 3.344-.473 1.225-.486 1.067-.628" clip-path="url(#p73539b5207)" style="fill:none;stroke:#000"/><path d="m576.74 234.95-1.03.16-1.326.193-1.736.153-1.463.359-1.29.486-1.802.64-.44.07-.561-.045-.411-.172-.231-.288-.1-.544-.037-1.46-.238-2.079-.245-.979-.353-.563-.28-.185-.397-.059-.894-.025M330.41 316.434l-.222.348M328.08 314.706l.682 1.148.228.258.463.298.735.372M338.729 321.813l-.284.134M325.588 297.768l-.367.192M320.253 288.075l-.356.171M306.596 281.282l-.616.105-.39-.166-2.557-2.17-.274-.172-.433-.077-1.11.064-1.362.006-.821-.14-1.629-.525-.677-.121-.425.05-.375.186-.274.41-.28 1.305-.095.679.144.921.483 1.196.015.403-.008.525-.122.62-.807 1.421M306.596 281.282l2.879 3.01M405.876 160.275l4.944 5.043 1.138 1.164.562.5.49.46.173.423.332 1.088.519 1.51.677 1.203.994.999 1.124.973.62.652 1.528 1.959 1.067.985.98.423 1.24.243 1.743.294.822.167.461.307.274.588 1.066 2.394 1.067 2.163.346 1.242.144.768.202.512.432.563.53 1.002M270.877 232.065l-1.773 1.318-.41.122-.404-.058-.519-.25-.735-.307-.447-.166-.583-.064-.721-.096-.62-.11M270.91 229.891l-.126.561.158.595.166.358-.036.295-.195.365M309.475 284.293l.843-.106.638.032.566.22 2.025 1.261.511.448 1.75 1.997M134.756 177.862l-2.168.803.361 1.123 3.434 1.178 3.373 1.979 2.764 14.657M563.593 248.36l-2.378.57-.847.073-11.862-.299" clip-path="url(#p73539b5207)" style="fill:none;stroke:#000"/></g><path id="PatchCollection_1" d="m147.914 491.404.453.73 1.002 1.905.677 1.139-.23.217-.072.384.288.576h.014l-.562.255-.273.103-.159.218-.303.05-.23-.179h-.303l-.158.218-.03.281v.27l-.071.255-.187.192-.275.153-.346.077-.302-.051-.159-.243-.144-.243-.346-.167-.346-.05-.302-.014-.346-.013h-.317l-.332.013-.288.141-.26.192-.259.154-.288.191-.23.192-.246.141-.303.154-.677.32-.23.166-.318.191-.216.192-.518.397-.217.204-.23.231-.36.46-.232.192-.201.192-.26.154-.331.128-.317.077-.36.115-.635.153-.288.09-.274.102-.302.14-.26.154-.245.18-.533.332-.505.345-.62.474-.216.191-.23.18-.519.435-.288.217-.23.205-.217.281-.115.256-.058.256-.23.473-.159.243-.202.243-.245.269-.159.218-.46.383-.275.141-.26.115-.258.14-.26.18-.245.204-.202.27-.115.255-.173.243-.346.717-.029.255-.057.256-.043.269-.144.562-.015.282-.043.269-.015.268-.057.282-.015.307-.086.268-.058.27-.072.626v1.522l.043.294.087.256.072.256.26.473.288.794.057.268.087.243.072.282.1.307.073.294.029.243.072.269.1.281.13.243.087.294.043.256.144.55.058.256.173.23.158.281.23.333.16.256.215.307.144.23.145.512.057.243.03.051.1.256.144.23.173.23.332.691.144.243.1.256.16.23.13.282.158.23.187.218.245.243.158.217.188.23.187.205.418.346.187.191.375.422.216.205.188.269.418.473.259.23.245.167.433.473.216.166.245.218.937.678.273.14.548.18.245.115.26.178.288.167 1.023.486.793.32.245.153.303.167.533.217.274.166.288.115.245.154.26.09.245.127.273.077.245.115.346.192.245.154.534.281.317.115.562.23.562.154 1.196.102.274.103.317.102.23.14.289.09.274.103.274.115.245.192v.064l.389.217.533.358.937.73.202.191.173.218.158.243.144.242.188.27.187.204.274.243.216.18.23.165.26.167.39.435.2.204.145.218.158.204.418.371.109.128-1.6 1.133-.353-.43-.13-.242-.187-.23-.245-.218-.548-.563-.26-.166-.46-.422-.231-.18-.188-.217-.158-.23-.202-.243-.216-.192-.418-.473-.23-.23-.246-.205-.274-.205-.23-.269-.216-.191-.274-.23-.26-.18-.345-.179-.317-.128-.26-.179-.317-.115-.332-.077-.965-.115-.678-.14-.879-.269-.302-.039-.317-.076-.304-.116-.662-.217-.318-.115-.273-.128-.245-.179-.534-.243-.273-.192-.779-.383-.259-.154-.534-.435-.273-.204-.317-.218-.26-.166-.547-.41-.303-.255-.303-.154-.288-.179-.26-.14-.23-.18-.288-.192-.274-.14-.274-.167-.303-.166-.274-.192-.331-.192-.807-.588-.26-.167-.475-.396-.26-.23-.288-.18-.288-.243-.216-.217-.216-.192-.217-.269-.144-.23-.216-.294-.173-.333-.159-.23-.158-.256-.13-.281-.158-.243-.173-.346-.13-.294-.317-.614-.562-.934-.188-.242-.158-.27-.1-.268-.073-.281-.1-.282-.073-.333-.115-.268-.202-.665-.072-.256-.058-.307-.158-.282-.073-.268-.23-.525-.202-.217-.13-.294v-.563l-.072-.256-.1-.243-.174-.217-.201-.23-.159-.257-.072-.69-.144-.46-.1-.27-.044-.307v-.997l-.043-.858-.044-.332-.014-.345v-1.766l.13-.69.115-.32.058-.269.259-.524.115-.32.274-.845.274-.588.245-.665.158-.345.159-.397.23-.371.13-.256.202-.294.173-.307.202-.41.159-.268.23-.32.447-.486.317-.384.173-.243.202-.192.158-.243.245-.217.274-.218.418-.37.289-.282.331-.282.36-.28.26-.18.576-.32.706-.243.274-.103.332-.153.835-.332.347-.154.26-.154 1.67-1.049.404-.243.289-.191.446-.41.23-.179.26-.23.275-.192.504-.422.216-.192.39-.294.316-.167.289-.205.634-.383.446-.307.274-.154 1.038-.742.274-.179.346-.205.245-.178.317-.192.288-.154.274-.166.548-.307.245-.154.562-.422.245-.14.188-.205z" clip-path="url(#p73539b5207)" style="fill:#00f;fill-opacity:.8"/><path id="PatchCollection_2" d="m518.837 559.49-.57.006-.475.224.252-.915-.007-.62.332.6z" clip-path="url(#p73539b5207)" style="fill:#90ee90;fill-opacity:.8"/><path id="PatchCollection_3" d="m345.063 333.128 2.48.767 1.802.397.044-.107-.896-.242-2.654-1.775z" clip-path="url(#p73539b5207)" style="fill:green;fill-opacity:.8"/><path id="PatchCollection_4" d="m345.147 296.635 5.95-.957-.551-2.7-5.95.957z" clip-path="url(#p73539b5207)" style="fill:#90ee90;fill-opacity:.8"/><g id="PatchCollection_5"><path d="m388.754 514.985-.16-.338-.7.263.16.337zM345.457 329.01l-.641.773 1.888 1.235.642-.773z" clip-path="url(#p73539b5207)" style="fill:#a9a9a9;fill-opacity:.8"/></g></g></g><defs><clipPath id="p73539b5207"><path d="M90 101.698h558v523.805H90z"/></clipPath></defs></svg>