<svg xmlns="http://www.w3.org/2000/svg" width="960" height="960" viewBox="0 0 720 720"><defs><style>*{stroke-linejoin:round;stroke-linecap:butt}</style></defs><g id="figure_1"><path id="patch_1" d="M0 720h720V0H0z" style="fill:#fff"/><g id="axes_1"><path id="patch_2" d="M90 622.96h558V104.24H90z" style="fill:#fff"/><g id="LineCollection_1"><path d="m490.057 611.353.358-.06M489.713 608.847l.284 1.864.06.642M489.713 608.847l-.358-2.72M472.473 607.336l.807-.477.738-.296.897-.256 1.008-.18 1.21-.068 1.328.034 1.71.166.806.18 2.561.931 1.009.51.664.43.732.42.53.193.575.097.627.014 2.038-.187M360.365 367.934l2.643.482M360.365 367.934l-.556 2.372M363.113 367.862l-.949-.176-1.487-.271-.11.019-.082.051-.038.077-.082.372M485.853 598.597l-.41-.518-.485-.513-.956-1.06-.867-1.14M490.632 566.623l-.313 1.781-.188 1.264-.134.752-.134.531-.21.815-.133.745-.06 1.353.045 1.947-.023 1-.045.45-.037.248-.164.414-1.419 1.891-.627.919-.672 1.042-1.217 2.002-1.03 1.367-.434.607-.231.476-.18.773-.59 2.202-.41 1.678-.217 1.077-.119.69v.435l.097.593.239.504.71 1.187M447.063 581.177l1.33.26 3.464.593.53.132.284.193.217.248 1.173 1.781.447.332.403.158 1.083.27 3.636 1.02.426.07.336-.014.313-.103 1.165-.677.613-.33 1.5-.67.463-.097.396.027.44.166.292.338.194.414.657 1.312.328.483.165.194.306.09.366.054.65.138.485.214.358.325.321.449.239.641.224.567.172.358.254.229.35.144.381.041.792.056.463.083 1.21.49 1.022.504 1.352 1.111 1.546 1.47.35.435.195.352.47.69.276.318.183.149.306.09.258.003 1.225-.194.963-.235 1.5-.483M485.853 598.597l.215-.099M487.379 601.516l-.801-1.635-.725-1.284M493.558 553.201l-.644 1.634-.266.854-.291 1.249-.232 1.153-.124 1.204-.025 1.13-.075.993-.14.995-.666 2.319-.213.773-.25 1.118M518.05 572.387l-.635 1.229-.329.38-.41.324-.381.138-.389.007-.455-.097-1.56-.683-.777-.31-.799-.208-1.194-.387-1.195-.559-1.15-.517-1.195-.435-.844-.442-.91-.58-1.367-1.008-.702-.407-.806-.352-.583-.124-.522-.055-.941.048-.948.166-.926.235-1.762.572-.568.09-.276-.02-.313-.097-.598-.407-1.217-.92-.433-.268-1.03-.373-2.203-.704M462.677 430.473l.74 3.196.395.765 2.06 2.271.411.988-.097.525-.313.793-.777 1.126-1.807 2.057-.582 1.312-.008.497.321 1.885-.06.56-.724 2.692.097 1.236-.201 1.94-.224 1-.717 1.478-1.299 1.892-.045.756.254.687 2.322 2.492.306.173.41.062.3-.104.335-.283 1.24-1.498.448-.097.373.076.583.373 2.785 2.292 1.62.967 1.075 1.09 1.762 1.727 2.92 2.526 3.375 2.548 1.09.338.567.186 4.092 2.04.657.163 2.678.149 1.197-.067.78-.156 1.49.019 1.703.242.97-.083 2.48-.705.604.014 1.388.4.68.711.985 2.336.395 1.904.382 3.327-.358 1.595.21.713.78.957 1.13 1.298.389.228.65.138 1.298-.255.344-.297.41-.607.165-.573.276-2.251.239-.324.448-.318.425-.138.62.034.59.215.515.372.986 1.153.303.538.044.27M552.56 495.015l-3.95-.6-.978-.076-.844-.007-.537.083-.859.214-2.688 1.201-1.045.518-.858.573-2.136 1.58-.83.65-1.545 1.422-.545.297-.672.193-.776.055-1.105-.048-.874-.145-.896-.332-.776-.455-1.957-1.291-.761-.532-.291-.31-.299-.477-.605-1.222-.336-.724-.433-.718-.567-.6-.568-.574-.65-.753-.694-.759-.821-.731-2.218-1.858-2.583-1.988-1.09-.676-2.106-1.16-3.11-1.726M507.14 528.663l.314-1.008.351-1.678.516-2.526.156-.987.045-.56-.086-.457-.153-.474-.216-.387-.571-.971-.744-1.128-.246-.469-.18-.663-.021-.628.149-.607.228-.535.235-.352.343-.276.351-.204.665-.2 1.06-.366.821-.387.41-.31.18-.242.12-.4.037-.567-.067-.621-.105-.552-.373-1.333-.59-2.14-.963-3.652-.097-.435-.068-.38-.097-1-.164-1.077-.575-2.271-.097-.463.015-.414.12-.587.373-1.119.321-1.076.522-2.451.292-1.174.254-.814.656-1.823.292-.925.41-1.367.381-1.209.172-.586.038-.407.003-.366" clip-path="url(#p093118e11c)" style="fill:none;stroke:#000"/><path d="m477.267 435.746-2.912-.794-1.18-.273-.239-.038-.172.007-.243.052-.481.224-1.478.629-.464.117h-.574l-.844-.159-.911-.31-.948-.504-.814-.553-.747-.711-1.15-1.174-.425-.441-1.008-1.345M427.37 410.461l.117-.088.42-.41 1.252-1.758.522-.663.628-.538.642-.263.597-.083.851.263.986.607 1.56.803 1.502.84.866.594 1.075.94.91.82 1.076.947 1.018.976 1.834 1.806.948.877 1.15.739 1.71.883.59.36.694.552 1.631 1.464.55.531.403.263.478.158 1.015.36.83.393.962.566.784.4.695.477.627.587.597.745 2.322 2.417.478.38.508.248.821.304.433.138.493.415.224.337.202.417.112.447.194.761M400.01 397.02l1.62-.56.686-.23M379.483 372.57l-.313.895-.071.255-.004.187.034.148.104.166 1.236.828.761.615 1.337 1.022 1.068.718.769.656.762.718 1.35 1.27 1.18 1.298 1.718 1.954.41.387.68.497 6.294 3.956 2.121 1.506.567.566.516.69.463.87.612 1.45.545 1.367.547 1.315.147.325M425.549 410.626l-.146-.157-.239-.545-.134-.614-.321-1.727-.224-.717-.321-.684-.814-1.401-.344-.774-.94-2.658-.344-.684-.508-.8-.515-.69-.597-.56-.732-.45-.575-.248-.582-.13-1.463-.146-4.07-.067-5.958-.299-.62-.041-.597-.104-3.189-.9M373.088 370.482l.269-.272M373.088 370.482l-2.676 3.456M373.088 370.482l1.277.286.577.107.397.063.601.083.46.072.57.093M373.088 370.482l-.563-.176M372.525 370.306l-1.344-.297M372.525 370.306l.832-.096M376.765 371.984l.206-.798M375.302 375.774l.564-.486.164-.17.078-.2.657-2.934M379.483 372.57l-1.254-.269-1.464-.317M379.483 372.57l.55-1.505M368.679 369.54l-.063.328.007.1.038.048.06.038.093.03 1.844.42.177.023.116-.009.061-.041.06-.078.109-.39M365.61 369.008l1.819.32 1.25.212M368.679 369.54l.135-.505M365.61 369.008l.124-.563M365.61 369.008l-.433 1.74M363.008 368.416l1.251.316 1.351.276M363.008 368.416l.105-.554M248.883 179.438l.83 1.07.73 1.458.985 1.375 1.041 1.17 1.024 1.731.646 1.904 1.598 3.435 1.72 2.344.59 1.464.457 1.392.546 1.259.596 1.458.49 1.22.033.116.145.212.395 1.503.601 1.28 1.303.947 1.409.947 1.464.662 1.659.429.74.2.296.084 1.425.379 1.392.4.774.234 1.119.384.918.329.841.378 1.058.502.84.44.886.606.924 1.058.74 1.125.346.35.657.719.306.328.3.329.652.768.501.79.195.518.017.485-.279.79-.774.546-.78.206-1.063.529-.217.356.295 1.581.769 1.448.367.685.852 1.425.323.562.245.535.072 1.297-.206.63.04 1.525.21.579.207.573.306 1.414.045.173.25.846.317.53.53.439 2.143 1.136 1.019.718.774.64 1.096 1.013.58.663 1.402 2.088.273.378 2.133 2.172.768 1.113 1.525 1.548 1.804.484 3.981 1.32 1.648.495 2.244 1.18.34.235.562.128" clip-path="url(#p093118e11c)" style="fill:none;stroke:#000"/><path d="m384.915 263.625-.896-.19-1.309-.222-1.152-.195-1.136-.161-3.006-.674-1.259-.328-1.559-.384-1.926-.735-2.583-.496-2.227-.267-1.86-.067-1.308.033-1.52-.089-1.17-.311-1.525-.385-1.275.017-1.186.2-1.375.028-1.642.24-1.225.356-1.342.379-1.48.462-.53.172-1.28.463-3.892 1.252-1.71.1-1.118.206-2.283-.133-1.67-.863-2.918-3.085-.462-1.085-1.108-2.561-1.392-1.197-1.42-.913-1.664-.902-1.23-.702-1.047-.49-1.12-.45-.974-.597-.718-.762-.557-.802-1.169-1.96-1.598-2.756-.506-.267-2.667-.868-3.641.189-3.24.072-1.643.223-1.43.044-.496.062-1.654.79-.584.98.022.79.24.858.4 1.512.077.678-.1.366" clip-path="url(#p093118e11c)" style="fill:none;stroke:#000"/><path d="m261.846 296.83.15-1.713.717-.8.686-1.023-.268-1.215-1.105-2.155-.359-1.298.21-2.072.746-.773 1.673-.967v-.966l-.359-1.907.299-.8 1.612-.912 1.972-.719.866-1.132-.03-1.602.985-1.27 2.032-1.299 8.362-5.193 1.852-.773 3.285-.884 1.882-.083 1.404.552 2.419.387 1.463.028 2.39-.194 1.164.221.986-.386.896-.746 1.314-2.735 6.332-8.507 1.224-2.127-.03-1.244-.171-1.505-.572-1.818M219.54 183.891l.737-.288 1.384-.417 1.224-.407 1.596-.484 1.71-.596.659-.287.396-.277.239-.304.5-.628.373-.4.545-.622.405-.522.618-.818.292-.359.31-.298.347-.234.388-.172 1.142-.45 1.202-.255 1.105-.297 1.667-.29 1.642.077 1.314.112 1.175.35 1.186.58 1.102-.323 1.37-.334 1.509.623 1.575 1.12 1.631 1.747M271.822 159.125l2.807 2.1 5.316 1.38 1.494 3.315.537 3.868-2.03 2.542-1.912.387-10.095-.995-9.617 1.05-5.256-.332-1.554.774-1.194 4.53-1.435 1.694M363.87 364.506l-.417-.2-.306-.19-.419-.438-.175-.287-.288-.66-.138-.622-.004-.69.18-.6.297-.714.98-1.893.485-.694.517-.542.439-.514.112-.255-.023-.284-.12-.255-.5-.628-.68-.815-.387-.794-.202-.746-.06-.732.074-.578.397-.644.515-.442.799-.573.754-.574.523-.586.32-.553.272-.937.087-.872-.022-.545-.135-.594-.35-.877-.367-.898-.141-.49-.336-1.809-.03-.477.007-.538.251-1.034.339-1.038.448-1.374.388-.89.352-.628.47-.753 1-1.623.881-1.492 1.27-1.988.5-.725.583-.58.873-.725.896-.711.56-.484.328-.428.165-.304.112-.4.104-.856.075-.767-.007-.573-.184-.548-.239-.34-.379-.411-.222-.307-.368-.807-.328-.885-.09-.412-.192-.82-.112-.78.053-.656.306-1.257.127-1.25.074-.538.15-.463.38-.717.426-.574.254-.38.627-.89.239-.567.263-.6.078-.14.401-.818-.128-.585-.607-.963-.802-.93-.924-.974-.96-.817-.41-1.06-.423-1.703-.016-.362.05-1.999.089-1.43.4-1.504.535-1.832.535-1.714.584-1.543.897-1.403 1.252-1.124 1.158-.93 1.259-1.125.328-.228.223-.211.223-.129 1.018-.779 1.03-.869 3.285-2.16.312-.367 1.592-1.381.596-.328M390.093 275.367l-1.164 2.9-.54.864-.913.852M415.301 307.602l.776-3.066.12-2.983-2.509-3.37-6.81 1.325-4.062-1.104-3.583.331-9.02-4.198-1.076-6.298-1.97-3.646.31-4.61M390.093 275.367l-.045-1.843-.462-.633-.384-.525-.924-.946-1.086-.557-1.169-.941.039-.63.35-.879.357-.985-.022-1.18-.757-1.482-1.075-1.14M362.915 228.436l.298 3.618-.955 2.901-.239 1.381 1.015 3.37 1.882 1.547 3.734.884 3.852.276 2.15.829 6.033 1.685.956.884 1.165 2.9 1.045 3.066 1.344.802.24.414-.18 1.215-1.254.774-1.195 1.878-.21 1.796.777 2.486 1.542 2.483M419.213 246.502l-2.478 1.767-5.138 3.232-3.016 1.962-1.225 4.723-1.762 2.017.06 1.712-2.837 2.652-2.061.774-3.614-.83-1.941.636-.687 1.685-1.046 1.27-2.09 3.675-1.285 3.59M552.155 430.23l-.2-1.05-.209-.953-.672-2.085-1.284-4.432-.642-2.14-2.314-6.546-1.285-3.562-.672-1.437-.597-.718-.598-.47-.79-.275-.987-.125-1.657-.082-1.24-.2-1.022-.463-.784-.511-.374-.483-.134-.539v-.587l.097-.462.246-.45.269-.351.612-.484 3.024-1.843 2.606-1.506.523-.338.493-.462 1.239-1.443M533.819 382.216l.164.456-.014.553-.127 1-.083 1.7.015.558.127.553.284.573.642.67 3.076 2.844 1.628 1.34.8 1.022.544.676.403.415.359.18.769.24.784.201 1.097.304.59.248.926.484" clip-path="url(#p093118e11c)" style="fill:none;stroke:#000"/><path d="m549.334 394.962-.455.041-.522.104-1.083.4-1.471.726M367.019 363.44l.114-.39 1.098-3.074.262-.621.179-.221.276-.117.298-.042.452.004" clip-path="url(#p093118e11c)" style="fill:none;stroke:#000"/><path d="m370.053 360.529-.247-.204-.201-.276-.138-.231-.015-.273.045-.283.201-.283" clip-path="url(#p093118e11c)" style="fill:none;stroke:#000"/><path d="m416.152 334.12-.15-.113-3.195-2.575-.859-.511-.776-.422-1.307-.483-1.493-.69-1-.622-.613-.594-.866-1.05-.94-1.242-.434-.401-.642-.331-.985-.193-3.338-.028-.933.09-.68.255-.515.4-.567.76-1.547 3.425-.298.566-.463.663-.71.718-1.717 1.644-.507.497-.553.69-4.151 6.712-1.12 1.56-1.434 1.879-1.06 1.146-1.18.773-1.852.912-2.59 1.139-.74.504-.687.6-.38.54-.27.766-.141.814.015.719.127.538.29.704.27.429.29.628.023.621-.082.47-.306.58-.41.456-.598.476-.888.497-.568.221-1.097.249-2.02.214-.47.09-.337.169M551.426 395.66l1.276 1.18.366.387.336.463 1.03 1.857.493.69.374.373.53.338 4.166 1.968.321.283.135.504-.03.539-1.104 3.147v1.27l1.075 1.657 1.738.774h2.084l7.169 1.27 3.942 2.817 3.949 1.215 1.367 1.16 1.26.056 1.374-.995h1.793l1.845.11 2.031.443 4.48 1.16 4.839 4.529 2.216-.277 1.135-1.601 1.194-.221 3.285 1.878 5.251 4.087 1.858.718 4.062.387.71.552.538 2.762 1.081 1.215 2.384-.884 1.021.332 1.434.938M472.473 607.336l-1.434.741-.242.077-.295.03-.418-.048-.721-.151-.366-.032-.377-.027-1.422-.038-.373-.097-.292-.176-.373-.318-.489-.43-.086-.094-.04-.096.014-.149.067-.124.288-.3.213-.262.007-.142-.034-.128-.115-.127-.515-.346-.188-.117-.35-.104-1.613-.32-1.288-.304-.313-.031-.195.017-.216.065-.374.218-.493.376-.1.024-.165-.024-.145-.093-.093-.18.018-.19.243-.51.127-.373v-.283l-.112-.345-.791-1.622-.47-.973-.471-.56-.523-.483-1.322-.876M381.23 366.888l1.061-.366M379.446 367.551l.433-.066.318-.072.317-.131.716-.394M370.053 360.529l1.941 1.098.941.296.859.173 1.97.048 1.218.097.478.124.463.187.269.207 1.068 1.07.62.773.35.525 1 1.76M552.56 495.015l-.09.284-.037.386v.463l.374 2.333-.045.325-.075.352-.493 1.36-.47 1.325-.284.939-.47 1.816-.881 3.507-.217.642-.171.365-.306.436-1.442 1.594-.395.525-.359.566-.306.593-1.905 5.854-.44 1.312-.111.614-.038.636.09 1.636.134 1.401.015.974-.134.911-.232 1.05-.246.87-1.195 3.009M507.14 528.663l1.763 1.657 3.36 3.576.732.58.716.455.724.366 1.255.366 1.06.131.956-.056 3.8-.503 1.15-.11 4.466-.222 1.239.042 2.045.152h1.225l.852-.097 2.195-.51.896-.235.687-.042 2.045-.096.911-.097.822-.193.866-.47.642-.594.732-.856.552-.814M549.764 530.557l-2.09.695-.418.055-.374-.014-.534-.097-.889-.317-.44-.062-.523.006-1.665.27M370.053 360.529l-.778 3.48M524.881 378.405l1.27-.013.895.151.74.145 2.307.987 1.508.829 1.075.753.762.56.38.4M532.258 377.494l.06.448.321 1.036.971 2.161.164.436.03.337.015.304" clip-path="url(#p093118e11c)" style="fill:none;stroke:#000"/><path d="m493.558 553.201.314-.798 1.175-2.952.885-2.55.225-1 .105-.85.044-1.104-.052-2.271.023-.553.044-.655.127-.69.351-.788.374-.642.433-.559.433-.317.515-.207.844-.318.747-.242.739-.124.761-.076 1.882-.11.68-.18.41-.214.306-.345.71-.946.432-.656.27-.6.141-.6.105-1.105-.06-1.346v-.463l.157-.483.463-.794M394.931 358.034l.479-.709 1.777-2.43.291-.65.015-.324-.082-.27-.15-.241-.463-.387-.586-.366-.26-.224-.199-.245-.074-.252-.015-.404.026-.611.093-.525.1-.414.147-.325.615-1.084.344-.632.228-.58.045-.228.03-.262-.053-.421-.134-.711-.023-.374.045-.952M370.412 373.938l3.24 3.19M365.177 370.748l-.104.559-.004.231.03.242.104.135.213.148 4.996 1.875M333.922 352.436l.313-.373M320.146 381.536l.142-.224.336-.435.799-.677 3.531-2.65 1.225-.954.583-.718.462-.98 1.554-3.273.567-1.257.418-1.381.105-.69.067-1.008-.15-3.004.008-.836.097-.503.156-.525 1.225-2.859.155-.41.103-.404.052-.429.25-2.534.246-.96.277-.58.351-.504.635-.704.582-.6M333.922 352.436l.97.055 1.255.152 1.717.268M327.568 351.387l.396.425.265.196.418.221.612.204.62.097 1.318.024 2.725-.118M140.842 440.171l-4.194.856M140.842 440.171l.791 2.72M145.217 420.398l.418 3.148-.149 1.768-4.072 8.19-1.194 4.42.159 1.06.463 1.187M141.633 442.891l.418 2.528 1.075 1.38 1.494 1.74.33 1.326M124.704 551.3l-.281-1.286-.233-1.165-.021-1.168.03-.352.329-1.429.126-.594v-.58l-.112-.662-.06-1.125.068-.518.182-.496 1.356-1.678.275-.51.277-.816.053-.483-.045-.359-.105-.345-.144-.25-1.33-1.618-.116-.396-.008-.339.187-1.277-.06-2.354.124-.585.354-.61.396-.407.583-.31.694-.152.624-.007.854.263 2.718 1.504.298.056.307-.097.201-.242.112-.276.172-1.312-.433-7.358.083-2.746-.06-.361-.15-.38-1.672-2.402-.12-.345.008-.311.147-1.205.435-1.377.134-1.38.015-1.326.284-1.712.06-.8-.27-2.513v-.36l.09-.303 2.226-4.377 1.896-4.377.18-.525.074-.455.463-4.563-.082-.449-.247-.456-.36-.405-1.163-1.017-.201-.214-.18-.304-.903-3.003-.612-3.245-.068-.593.03-.422.352-1.843.507-6.71.15-.566.313-.442 2.06-1.781.747-.802.702-.952.792-1.822.283-1.782.157-.31.195-.236 4.129-4.784.283-.283.276-.207 1.568-.6.299-.173.24-.256.2-.414.15-1.823.03-1.85-.595-2.54M167.796 457.045l-1.881-.387-2.15.774-.897-.083-1.254-1.354-1.553-1.767-4.597-3.922-4.3-.441h-6.213M379.446 367.551l-.623 3.086M373.357 370.21l.239-.2.242-.15 1.898-.905 2.478-1.162.403-.138.336-.083.493-.021M366.181 380.822l-4.009 1.681M358.79 373.479l.855.57.731.441 1.508 1.057 1.83 1.415.702.697.306.36.306.503.694 1.513.46.787M372.57 391.834l-1.322-3.583-.463-1.091-.359-.697-.724-1.091-.799-1.098-.642-.794-1.023-1.257-1.057-1.401M125.12 449.423l2.463-1.959M365.177 370.748l-2.523-.187-2.845-.255M358.567 372.934l.323-.487.374-.698.321-.753.224-.69M131.12 430.782l-1.523.055-4.062-.497-2.208.303-3.437 2.21-2.03.249-1.223-.139-4.87-.966" clip-path="url(#p093118e11c)" style="fill:none;stroke:#000"/><path d="m127.583 447.464-1.42-1.272-2.677-.477-.37-.13-.627-.305-.687-.897-.329-.704-.224-1.008-.284-.539-.596-.372h-.449l-.552.11-1.03.359-1.136.248h-.761l-.493-.47-1.583-4.763-.03-1.546-.209-.69-1.045-.802-1.314-2.21M381.88 398.573l-2.732 4.695-.034.125.01.075.068.087.068.062 2.777 1.453.77.325 2.515.911.658.29 5.413 2.79.418.269.336.297.127.241.074.373.075.47.052.262.225.435.32.311.613.352 1.605.594.426.242.306.241.343.366.53.6.344.311.224.131 1.672.767.493.27 1.784.931M129.358 290.946l1.494 3.024.716 1.893.134 1.077-.164 1.174-.283.87-.593.845-.677.522-2.33 1.036M123.773 307.326l.418-1.077 1.075-1.768.553-1.064.537-.787.867-.842.433-.401M227.784 282.3l-1.374.18-.822-.028-2.434-.649-.612-.027-.583.138-.597.373-.522.69-.314.788-.224.566-.313.51-.568.981-.419.69-.582 1.099-1.642 2.534-.418.47-.359.303-.627.056-1.359-.387-.866-.414-.568-.083-.597.138-1.598.953-1.045.898-1.06 1.643-.657 1.52-.135.91-.045.732.3 1.465-.225 1.284-.478 1.713-.538 1.118-1.105 1.368-.343.483-.179.732.104.677.448 1.353.195.953v.815l-.403.69-.613.415-.762.138-1.851-.304-.926.055-.806.387-2.3 1.436-3.778 2.265-.777.497-.433.511-.507.801-.837.704-4.51 2.624-5.555 3.288-1.478.717-.881.18-1.494.221-1.254.428-1.314.511h-.702l-.881-.11-1.703-.774-1.015-.248-2.718-.194-2.18-.29h-3.42l-1.09-.082-1.36-.429-.641-.4-1.016-.967-3.673-3.232-1.643-2.154-.836-.69-2.03-1.216-2.002-1.16-4.002-1.85-2.778-1.381-7.168-3.785-6.63-4.06M222.365 485.213l1.553-2.1.048-2.33-1.434-2.43.669-6.064-3.775-2.994-3.942.221-1.554-1.105.192-1.314-2.51-2.651.407-3.104 2.461-1.205.287-1.888-2.39-4.53-4.587-4.849-3.417-1.557-5.543-.21-4.731 3.966-4.707-.1-3.058.21-2.437 2-2.748 5.081-3.823 1.877-2.72-.193-2.538-1.822-4.272-1.077M171.216 451.743l-.85 1.67-1.658 1.81-.912 1.822M300.165 336.451l4.66.146 3.21.075 1.397.132 1.313.29 1.277.352 1.188.414 1.022.628.814.684.695.85.612.987.986 1.815.634.87.911.974.956.98 1.702 1.45 4.167 2.984 1.859 1.305M334.235 352.063l-1.045.049-1.837.083-1.067.02-.755-.069-.937-.324-1.026-.435M124.355 222.773l-.023-.194M129.358 290.946l-1.015-2.956-.284-.842-.239-1.312-.074-2.403.014-2.61.06-.953.18-.594 1.015-2.307.597-1.891.314-1.202.06-1.271-1.21-5.649-.463-2.168-.164-1.45-.03-1.091.209-.953.627-1.077.642-.926.657-1.133.329-.911.373-1.657.21-1.119.313-.925.448-.815.373-.567.553-.635.269-.663.403-1.533.328-.787.657-1.561.269-.953.283-1.52.523-3.217.448-2.28.15-1.229-.12-1.09-.567-1.396-.926-1.864-1.21-2.1-2.36-3.315-.522-.842-.478-1.146-.507-1.45-.516-.74-.463-.462-.65-.284-.694-.083-1.052-.055-1.763-.186M124.355 222.773l-.604-.2M132.733 426.777l1.852-3.921.477-5.855 2.749-4.833.597-.828" clip-path="url(#p093118e11c)" style="fill:none;stroke:#000"/><path d="m123.773 307.326-.299 1.408-.716 3.398-.626 2.187-1.017 1.514-2.638 4.215-2.021 2.33-1.852 5.194-2.897 4.778.06 1.187 2.568 2.707.807 4.447 4.211 3.812 2.06 1.519.986 3.618-2.06 5.414-.03 1.822-.566.967-.689 2.292.09 2.955 2.479 3.094.806 3.314 2.598 2.927.508 1.16.09 1.685.508 1.078 2.27 1.74 3.912 3.424 1.254 1.27 1.523 5.027-.06 1.519-1.224 2.376-.209 1.38 2.688 7.209.24 3.341-.628 2.154.12 1.326 1.135 1.768 1.254 2.458M145.217 420.398l-.625-2.458-1.047-1.492-2.847-2.165-.886-.679-.896-1.409-.508-.855M382.94 373.227l2.196 1.774.776.67 2.09 2.147 1.636 1.692 1.329 1.622.396.408.403.256.44.185 1.173.36M134.032 442.891l1.284.373 6.317-.373M259.358 302.48l-1.036-1.618-1.742-1.364-3.094-.702-4.241-.939-2.7-1.232-5.376-4.64-3.332-3.893-2.706-3.002-2.39-1.132-2.792-.926-2.165-.732M192.883 272.302l.45-.014 2.254-.511 1.135-.125 1.09.056 2.599.593 3.434.677 1.24.47 1.418.76 1.957 1.601.836.54.697.412.96.18 1.106.111 1.598-.276 2.046-.967 2.911-1.602.792-.207.94.014.762.193.986.663.522.746.538 1.077.881 2.403.971 1.312.896.829 1.882 1.063M379.775 383.266l1.426 1.236.41.449.433.552 1.076 1.595M395.312 395.466l-1.515-1.015-2.225-1.498-1.337-.877-1.836-1.063-2.823-1.698-.65-.443-.537-.462-1.27-1.312" clip-path="url(#p093118e11c)" style="fill:none;stroke:#000"/><path d="m382.522 391 .187-.595.097-.538.314-2.769M125.43 220.604l-1.47.436M164.474 240.158l-1.725-1.046-.956-.746-.866-.814-1.21-1.603-1.083-1.685-.903-1.505-1.306-1.774-1.755-1.817-1.926-1.74-3.286-2.832-1.91-1.547-1.45-.815-1.702-.621-1.27-.222-1.672.083-4.24.429-1.868-.014-2.016-.51-1.299-.512-1.32-.61-1.363-.423-.96.039-.747.082-2.21.65M124.332 222.579l.188-.434.164-.325.186-.352.3-.49.26-.374M382.522 391l-3.404-.104-.777.034-.814.11-4.958.794M363.203 431.745l1.593.335.68.076.508-.173.62-.38 1.298-.952.687-.394.74-.414.254-.235.238-.421.217-.449.792-2.01.291-1.007.194-.836.27-1.028.283-.67.388-.953.097-.379-.023-.263-.12-.428-.268-.67-.508-1.304-.403-1.125-.104-.588.03-.76.142-.793.514-1.298.366-.96.097-.56.008-.441.007-.387-.045-.345-.417-1.491-.068-.532.008-.517.022-1.526-.037-1.795.104-1.212.157-.895.202-.842.284-1.43.06-1.421.096-2.34.225-2.19.104-1.021-.008-.815-.209-2.072M136.648 441.027l-2.616 1.864M131.12 430.782l.24 6.6.208.649.3.677.387.414.657.539 1.09.662 2.646.704M255.993 417.899l-.672.151-1.195.387-.53.256-.493.372-.538.65-.455.745-.545.773-2.099 2.065-.477.359-.508.283-.672.269-2.524.65-.56.103-.657-.007-1.5-.152-.508-.014-.747.096-2.255.725-.515.146-.664.048-2.353-.034-.436.051-.3.1-.324.235-1.433 1.436-.545.345-.568.256-.612.145-.613.034-.963-.055-4.859-1.43-10.225-.342-4.779-.662-3.346 1.767-3.631.232-1.792 2.43-4.014-.452-5.543.452-3.895-1.889-3.273-.21-1.434 1.105-5.09-1.336-4.587-.21-2.58-1.558-3.515-5.706-.806-1.325-1.225-.415-1.523-.248-1.732-.911-1.583-.166-1.165-.414-2.628-.332-1.521-.525-1.615.25-3.166 1.435-2.09 1.38-2.898 1.161M395.312 395.466l-4.32.673M400.01 397.02l-.557.151-.451.08-.538-.017-.52-.087-.421-.183-2.21-1.498M382.552 397.379l8.44-1.24M382.552 397.379l-.672 1.194M382.522 391l-.261.834-.045.394v.373l.433 3.555.015.58-.112.643M259.358 302.48l2.817-1.038M262.205 308.258l-.157-.235-2.69-5.543M122.803 221.253l1.157-.213M122.803 221.253l.47.981.172.173.306.166M119.413 220.646l1.239.414 2.15.193M311.858 475.367l.53-.945 1.717-1.547 3.584-3.914.904-.863.843-1.153.494-.407 2.732-1.622.47-.684.038-.635-.53-1.223-.142-.517.022-.456.598-1.194.179-.546.015-.96-.284-.938-1.187-2.223-1.157-2.727-.12-.497-.052-1.298-.105-.58-.791-3.093-.015-.449.134-2.838-.082-.407-.62-1.65-.179-1.215.09-.38 2.135-2.907.41-1.111.882-3.397-.359-7.774.202-.304 2.442-1.588.425-.566.65-1.311.164-.76-.015-1.623-.082-2.278.202-1.76.217-.808.574-1.775-.022-.808-.157-.434-1.613-2.293-.179-2.112-1.433-2.659.074-.325.627-.745 1.486-1.305.269-.352 1.023-2.562.664-1.063.411-.414 2.42-1.671 2.09-1.125 1.21-.98.448-.526 2.098-3.465.127-.346.537-2.396.59-.911.463-.504 2-1.626.326-.152 1.829-.556.34-.162 1.37-.922 2.714-1.25 1.105-.725 2.382-1.83.829-.4 1.755-.587 1.403.034.725.146 2.105.69 2.71.739.463.387.643.973.593 1.575.598.497.358.224" clip-path="url(#p093118e11c)" style="fill:none;stroke:#000"/><path d="m349.759 391.8.444-.411.306-.162.343-.107.264-.034.21-.002.318.002.168-.033.129-.061.123-.104.629-.98.269-.42.448-.45.246-.345.217-.414.082-.422.276-1.29.112-.574.127-.324.254-.242.287-.145.363-.114.574-.097.37-.096.213-.107 1.878-1.236.974-.636.28-.182.273-.073h.332l.261.028.463.038.314-.021.302-.052.564-.23M358.567 372.934l-.14-.022-.14.024-.123.068-.091.102-.047.124M358.79 373.479l.047-.125-.002-.132-.05-.124-.093-.1-.125-.064M255.993 417.899l-.015-.27M265.513 429.284l-.545-.297-.456-.511-.239-.497-.59-1.864-.933-3.363-.232-.697-.32-.656-.5-.6-.53-.435-2.794-1.823-1-.442-.665-.159-.716-.041M288.446 479.555l.661-.521 1.068-.725 1.09-.477.888-.303.605-.111.448-.048.56.027 1.71.187.38-.049.412-.179.186-.166.164-.27.083-.337.052-.58-.052-.711-.65-2.555-.1-.41-.094-.528-.067-.719-.067-.683-.15-.69-.314-.663-.47-.546-.88-.67-1.166-.904-.455-.455-.448-.712-.523-1.104-.298-.752-.172-.815-.12-.787-.096-.47-.344-.911-.12-.428.023-.325.142-.469.38-.739 1.33-2.016.336-.497.29-.276.509-.38 3.023-1.643.523-.29.5-.441.441-.58.164-.332.164-.545.06-.732.045-.456.12-.524.074-.484.06-.71.082-1.168.097-.524.15-.566.641-1.36.112-.567.053-.718-.082-.4-.262-.421-.433-.483-2.606-2.182-.477-.511-.978-1.284-.837-1.07-.261-.442-.112-.304-.008-.38.045-.442.284-1.146.791-2.99.082-.372.045-.36-.037-.427-.254-.635-.612-.957-.38-.469-.815-.777-.231-.304-.183-.431-.25-.898" clip-path="url(#p093118e11c)" style="fill:none;stroke:#000"/><path d="m265.513 429.284.799.228 1.836.476.717.062.612.02.635-.103 5.951-1.512 1.516-.373 1.164-.2 4.555-.815.777-.069.612.042.314.048 3.218.663 1.022.152.449-.007.41-.104.455-.304 1.36-1.025M303.01 399.595l-.657.435-3.382 2.88-.433.414-.27.414-.074.49.142.656.298.545.374.414 1.247 1.092.433.497.41.614.27.718.111.918.045.601-.022.477-.112.552-1.366 4.005-.15.628-.03.594.261 3.03.015.65-.112.517-.201.483-.299.436-.283.303-.307.2-1.717.746-.784.442-2.39 1.643-2.113 1.474M131.12 430.782l1.613-4.005M255.978 417.63l-.06-.236-.09-.227-.216-.366-.702-1.043-.18-.42-.096-.498-.038-.477.09-.814.298-.918.329-.801.478-.788.485-.655.926-.988.792-.876.47-.477.35-.435.434-.835.321-.767.448-1.657.254-.697.21-.318.365-.442.657-.704.448-.449.239-.345.157-.359.481-1.464.258-.573.269-.545.142-.159.201-.097.287-.02.232.072.19.187.12.32.097.864.097.445.116.283.12.141.149.056.179-.004.186-.103.187-.2.15-.252.178-.705.113-.307.25-.542.127-.235.269-.193.388-.11.447-.009.509-.026.44-.124 2.666-1.291.56-.249.761-.235.396-.13.478-.284.358-.317.799-.898.516-.47.507-.359 1.352-.828.343-.276.269-.263 1.478-1.933 1.277-1.753.373-.56.8-1.56.253-.408.24-.345 1.067-1.47.269-.47.201-.449.112-.56.038-.586-.09-.414-.172-.629-.172-.76-.082-.662-.082-1.015-.067-.387-.112-.435-.567-1.443-.21-.566-.074-.38-.023-.469.06-.428.269-.58.41-.573.538-.422.679-.347 2.718-.923 1.36-.47.739-.283 2.583-1.194 1.262-.677.77-.531.395-.346.32-.4.449-.697.321-.795.157-.656.156-1.038.262-3.056.112-1.56-.023-2.217-.097-1.388-.015-.973.045-.795.134-.892.717-2.486 1.912-7.255 1.008-3.791.665-2.534.268-1.126M294.602 332.604l.329.498.62.87.59.636.634.483.814.497.762.408.933.31.88.145M224.812 537.347l-4.63 1.436-1.672 1.132-1.374.304h-3.524l-1.404-.194-6.302-2.07-.298-.11-1.046-.111-.358.027-.359.138-.209.276-.747 1.464-.567 3.838v.304l-2.807 4.777-2.18 2.706-.33.11-1.79-.083-1.404-.414-2.54-1.104-2.21-1.491-.716-.359-.568-.249-2.18-.745-2.479-.69-1.284-.967-.986-.856-1.105-.36-.955-.44-3.167-1.713-.657-.248-.328-.083-.866-.11-.747-.028-4.57.248-3.404-.552-1.225.083-1.344.386-5.914 2.817-5.555 2.706-1.373.249-.359.055-1.493-.083-.567-.442-1.166-1.546-.597-.387-1.404-.552-2.448-.662-1.972-.028-.657.138-.299.138-.298.166-1.344 1.739-1.613 1.988-1.747.842-1.568 1.174-.926 2.457-.328 1.105-.926 1.05-2.394 3.27M124.704 551.3l.892 2.704 1.936 3.79M588.46 116.573l.648 1.25.952 1.23 4.788 1.02 2.005 1.553 1.78 2.088M597.641 133.35l-.214-.747.777-2.874-.239-2.652.668-3.363M636.008 255.598l.53-.92.325-1.102.123-1.066-.116-.725M594.093 267.19l.616-.275.751-.126 1.011-.04 1.629-.058 1.493.03 1.257.316 2.803.833 1.472.298 1.158.031 1.084-.172 1.68-.842 1-.38.7-.152.868.083.79.4.485.387.785.898.343.455.508.208.606-.055.38-.332.435-.544.487-.544.392-.321.597-.042.454.29.548.569.566.62.65.576.694.404.702.124h.672l.621-.12.857-.294.772-.477.468-.614.612-1.174.335-.531.516-.463 1.53-1.146.546-.637.508-.648.624-.566.81-.387.544-.187.72-.203.946-.425 1.072-.684.675-.628.448-.54.164-.645v-.666l.03-.774.199-.724.577-.864.725-.834M628.668 290.697l4.689-9.363 2.36-3.066.537-4.503 1.015-6.657-.418-4.088-.567-2.762-.06-3.784-.216-.876M491.468 297.383l1.115-1.479.79-1.05.611-.649.627-.442.777-.455 1.389-.442 1.459-.36 1.542-.455.792-.11.806.069.732.235.732.442 1.234.926 1.787 1.103 2.131 1.188.657.428.851.401.852.138.85-.138.986-.29.687-.138.693.165.576.414 1.075 1.16.493.415.658.387.772.294 1.02.161.91-.013.837-.138.791-.014.746.286 2.668 1.413.469.483.298.456.394.495.428.43.627.373.582.428.388.359.336.49.053.74.15.676.18.388.327.399.493.47.851.511.724.501.456.452.455.664.525.585.633.311.657.193.861-.015 2.718-.907.378-.196.283-.29.263-.515.066-.659-.07-.806.025-.602.195-.484.473-.698 1.32-1.227.754-.557.663-.294.717-.069.71.217.604.474.6.667 1.013.893 1.66.979 3.829 1.987.992.487 1.02.37 1.011.113.836.014.918-.1.923-.307.773-.477.428-.491.303-.628.291-.71 1.11-4.125.463-2.669.242-.699.298-.47.478-.358.553-.152 1.936-.304 1.558-.36 1.04-.425.782-.307.851-.165 1.046-.056.745-.234.599-.401.328-.593.078-.627-.003-.879-.084-.66-.215-.997-.361-1.222-.146-.587.134-.512.224-.4.463-.305.791-.261.786-.139.901-.207.92-.413.813-.526.627-.58.924-.94.973-.717.806-.497.597-.345.657-.125.523.083.598.332.403.4.433.47.313.331.478.255.548.03M594.093 267.19l-.517.392-.703.7-.597.9-.33.799-.223.953-.462 1.534-.36 1.145-.612 1.534-.731 1.67-.524 1.062-.612 1.065-1.652 2.036-2.744 3.293-1.196 1.225-.44.38-.483.173" clip-path="url(#p093118e11c)" style="fill:none;stroke:#000"/><path d="m608.329 313.402-4.45-.387-2.569.138-1.643.663-1.284-.027-2.33-2.514-1.015-.884-2.27-.11-2.03-.359-3.107-1.298-.866-.636-.239-.773.18-3.176-.598-1.437-5.107-4.391-2.24-1.133-.717-.58-.06-.773.866-.884 1.673-3.066 1.384-5.724M477.222 312.442l.314-.608 1.067-2.906.313-.67.24-.518.295-.4.34-.284.485-.296 1.791-1.382 1.936-1.49 1.723-1.3 1.947-1.594 3.795-3.61M493.552 281.444l-2.6 4.254-.686 4.337-.179 4.64.328 1.381 1.053 1.327M462.393 358.133l-1.016-.608-2.762-1.581-1.725-1.133-2.912-2.326-.366-.283-.5-.304-.62-.166-.396-.035-.597.097-3.002.829-.626-.014-.68-.124-.74-.325-.537-.304-1.598-1.622-.41-.31-.553-.215-3.256-.76-.85-.193-.613-.214-.552-.324-.284-.339-.202-.531-.067-.553.023-1.395.515-4.902.097-1.167-.15-1.015-.254-1.008-.343-.498-.373-.483-.508-.345-.896-.304-1.68-.262M477.222 312.442l-.44.711-1.524 1.824-.642.773-.56.594-.605.51-1.478 1.085-2.942 1.905-.91.65-2.689 1.954-1.405 1.163-.656.522-.284.338-.283.58-.142.497-.261 1.126-.21.545-.134.27-.328.331-.396.062-.676-.046-4.11-.63-.687-.056-.687-.007-1.665.042-.791.117-.501.152-1.508.598-1.419.466-.642.29-.65.448-.485.4-1.464 1.472-.462.31-.568.18h-.507l-1.509-.083-.717-.014-.754.159-.791.345-1.59 1.07-.613.332-.873.235-1.255.173-.717.207-.552.317-.56.463-.62.594M416.152 334.12l.806.612.732.373 1.24.49.993.29.806.09.851-.035 1.315-.29.79-.11.598.007.463.09.53.234.71.408.62.241.798.2.698.053 2.356-.1 1.262-.208 1.075-.352 1.165-.697M545.728 546.163l.187-2.113.112-1.677.023-.27.051-.31.12-.297.388-.752.702-1.34.598-1.65.38-.752.896-1.498.202-.325.187-.676.403-2.147.105-.676-.03-.394-.105-.352-.183-.377M565.514 464.933l3.72 1.833 2.747 2.264 7.228 1.105 1.792.994 2.15 2.043 1.673 2.928 1.075.828 3.046.994 2.808.94 2.509 1.269 5.734 2.596 1.732.552 2.688.442 2.09 1.988 2.032.056 1.075.165-1.434 2.154-.179 3.37-1.493 2.927-5.973 6.903-3.764 3.866-1.732 2.789-1.344 1.104-5.944 4.115-6.51 2.099-7.079 2.844-3.315 1.69-1.702.774-2.397 1.008-5.406 1.906-3.285 1.194-.269.138-.41.248-1.262 1.119-.583.455-1.053.58-1.687.953-.777.476-.687.546-1.564 1.369M552.523 567.148l2.912.117.873-.014 1.315-.144 3.892-.005 1.32.608 2.231.508L567.73 567l2.51.178 2.08-.178 4.922-2.486" clip-path="url(#p093118e11c)" style="fill:none;stroke:#000"/><path d="m570.748 589.652-.254-2.486-1.597-3.247.05-2.664 3.78-8.167.786-3.044 3.044-3.881.685-1.649M545.728 546.163l-.06 1.104.019.582.056.57.324 2.119.117.726.142.462.447 1.54.098.393.044.449.098 1.733.09.766.104.766.216 1.664.224 1.65.15.648.179.505.261.482.456.808 1.187 1.753.478.69.47.525.545.428 1.15.622M560.565 579.343l-.37-.421-2.231-.685-.431-1.852.481-1.547-.202-2.004-.787-1.522-.425-1.203-.232-.566-.314-.407-.515-.463-.425-.317-.366-.2-2.225-1.008M551.29 604.864l.18-.738.202-.818-.004-.214-.04-.173-.296-.804-.698-1.677-.06-.193-.04-.239.036-.155.075-.159.254-.29.407-.324 3.285-2.305 2.726-1.926 2.676-2.052.608-1.268.305-1.877.533-1.548 1.014-1.851.077-1.04v-2.562l-.71-1.877-1.255-1.43M570.748 589.652l-2.46-2.638-1.091-.99-.558-1.14-.203-1.7-1.167-.584-1.015-2.207-1.065-.431-2.624-.619" clip-path="url(#p093118e11c)" style="fill:none;stroke:#000"/><path d="m551.29 604.864.471.256.792.58 2.008 1.463.844.725.717.752.896 1.008 1.453 1.615 1.623.05.533-1.673 2.385-3.196 1.065-2.69 1.217-1.52 1.015-1.777 3.627-5.504.888-2.106-.076-3.195" clip-path="url(#p093118e11c)" style="fill:none;stroke:#000"/><path d="m490.415 611.294 1.352 1.294.481.266.49.11.515.021.463-.086 1.187-.317.38-.097.665-.007 1.456.11.792-.062.5-.062 3.367-.89 3.323-.877.485-.096.404.027.284.069 1.627.635.396.097.694.02.433-.048.396-.186.359-.338.515-.49.343-.152.388-.09 2.307-.4.687-.014 1.673.124.888.049.456-.014.306-.049 1.165-.255.567-.07h.605l1.89.07.761-.041.732-.118.88-.276.733-.29.611-.387.598-.53 1.62-2.12.777-.877.866-.876.5-.421.5-.304 1.426-.71.463-.118.314-.008.239.07.284.096 1.463.746.44.138.411.007 4.01-.435 2.36-.324 1.597-.284.814-.061.829.034.538.152 1.142.572 1.717.733 2.412.91M578.425 116.741l-.806-.157.32-2.37M588.46 116.573l-.944 1.402M588.111 115.938l.12.193.229.442M583.268 118.69l-2.465-1.174M583.268 118.69l1.267-2.231M587.516 117.975l-1.395 2.075-2.853-1.36M584.535 116.459l1.086-1.913M584.535 116.459l2.981 1.516M580.803 117.516l1.698-2.83M578.425 116.741l.543.106 1.222.376.613.293" clip-path="url(#p093118e11c)" style="fill:none;stroke:#000"/><path d="m576.665 124.648 1.411-3.067 1.133-1.535 1.594-2.53M585.621 114.546l2.49 1.392M484.397 364.36l.687-.075.635-.076.586-.03M493.185 365.224l-5.144-.932-.859-.11-.877-.004" clip-path="url(#p093118e11c)" style="fill:none;stroke:#000"/><path d="m486.197 365.065-.023-.273.019-.255.112-.359M486.197 365.065l-1.8-.704M493.775 369.36l-2.547-1.772-1.622-1.046-1.534-.722-1.875-.755M479.005 365.138l1.054-.183 4.338-.594M496.359 365.859l-3.174-.635M496.359 365.859l-2.584 3.5M499.405 367.758l-1.127-.856-.896-.635-.5-.27-.523-.138M496.314 371.21l-.74-.538-1.799-1.312M499.405 367.758l1.83 1.498M499.405 367.758l-3.09 3.453M496.314 371.21l1.194.87M496.314 371.21l-2.27 2.617M494.044 373.827l1.187.87M487.914 371.528l.993-.51.493-.098.567.049.516.165.47.298 3.091 2.395M501.235 369.256l.612.477M501.235 369.256l-3.106 3.321M498.129 372.577l.709.546M498.129 372.577l-.62-.497M501.847 369.733l1.882 1.512M501.847 369.733l-3.009 3.39M498.838 373.123l.567.497M497.508 372.08l-2.277 2.617M495.231 374.697l1.912 1.457M499.405 373.62l1.479 1.119M499.405 373.62l-2.262 2.534M500.884 374.739l-2.032 2.506-.026.027-.115.049-.116-.027-.1-.052-1.352-1.088M503.729 371.245l4.976 3.79M502.01 373.454l1.412-1.698.105-.166.202-.345M512.069 361.295l-5.317 5.966-2.594 3.304-.198.297-.231.383M500.884 374.739l1.127-1.285M510.232 376.14l-3.05 2.928-.105.045-.123-.007-.082-.017-5.988-4.35M512.069 361.295l.41-.497.314-.421.037-.242-.007-.193-.851-1.899" clip-path="url(#p093118e11c)" style="fill:none;stroke:#000"/><path d="m508.705 375.035.818.615.709.49M514.174 378.474l-1.971-1.119-1.971-1.214M502.01 373.454l3.578 2.52M508.705 375.035l2.527-2.471 1.725-1.871.176-.077h.12l.111.042.62.338.123.097.06.086.194.632M509.963 359.714l2.106 1.581M524.881 378.405l-.918.138-.776.235-1.957.87-.94.27-.867.04-.88-.082-1.247-.304-1.524-.511-1.598-.587M517.982 412.707l.44-.96.218-.518.111-.752.082-1.015.142-.815.172-.732.762-2.603.112-.525-.053-.42-.12-.415-.298-.587-.754-1.767-.268-.863-.284-1.865-.09-.621v-.663l.052-1.209v-.614l-.052-.628-.186-.967-.09-.794.015-.573.07-.518.684-2.893.295-1.17.056-.477-.012-.227-.085-.249-.153-.262-.926-.925-.434-.518-.119-.315-.551-2.403-.221-.637-.352-.536-.612-.697-.299-.408-.59-.994-.47-1.098M503.87 342.272l-2.39 2.652-.328.242-.41.179-1.464.387-2.374.621-.433.262-.142.256-.067.297.022.29.112.31.597.843.434.456.687.822.179.365.052.297v.297l-.09.346-.388.566-.582.835-.232.622-.141.6-.254 1.375-.135.414-.217.366-.41.262-.657.207-.993.11-1.023.056-.351.152-.27.29-.245.414-.157.766-.217 1.03-.224.683-.503 1.308v.295l.063.268.228.418 1.202 2.012.22.408.216.573M368.978 368.518l-.164.517M368.896 365.708l.644.153.116.05.057.059.01.057-.745 2.49M371.18 370.01l.082-.332.103-.482-.013-.06-.028-.056-.063-.055-.118-.034-2.165-.473M363.87 364.506l2.644.656M363.113 367.862l.108-.608.224-1.05.21-.849.216-.849M368.896 365.708l-2.382-.546M368.896 365.708l.38-1.699M375.302 375.774l-.768-2.804M375.302 375.774l-1.65 1.354M379.775 383.266l-4.04-4.011-1.045-1.009-1.038-1.118M380.032 371.065l.941.657M378.823 370.637l.675.135.22.076.176.114.138.103M380.973 371.722l1.967 1.505M382.291 366.522l1.142.801.084.12.05.097-.01.08-.042.128-2.542 3.974M384.6 366.11l-.241.046-1.015.159-1.053.207M373.357 370.21l3.722.57M377.08 370.78l-.11.406M378.823 370.637l-1.053-.09-.29-.03-.143.03-.082.037-.094.07-.082.125M366.514 365.162l.505-1.723M368.814 369.035l-.912-.152-2.168-.438M365.734 368.445l-2.621-.583M365.734 368.445l.421-1.667M355.21 359.41l-.15-.425-.09-.217-.239-.38-.35-.428-.482-.452-.526-.41-.528-.336M358.026 373.23l-1.211-.487-.717-.38-.455-.38-.262-.352-.156-.38-.083-.558.045-.732.485-4.04.21-1.75.075-1.455-.113-1.324-.12-.656-.149-.49-.366-.836M352.7 357.07l.58.431.406.37.512.518.35.42.247.284.414.317M352.7 357.07l-1.77 3.535M352.7 357.07l.145-.308M352.7 357.07l-2.934-1.713M345.861 354.086l.112-.293M348.019 359.583l-3.722-1.395-.116-.074-.063-.078-.025-.07-.001-.1.03-.09 1.739-3.69M345.861 354.086l.926.208.933.255.792.256 1.254.552M342.607 353.61l.574.083 2.68.393M349.766 355.357l-1.747 4.226M349.766 355.357l.14-.323M348.019 359.583l2.912 1.022M348.019 359.583l-1.3 2.865M350.93 360.605l-1.32 2.869M119.413 220.646l-.214-.127M119.413 220.646l.634.69.359.263.5.248 1.217.394.769.193.859.139M345.361 365.127l1.359-2.679M346.72 362.448l-.934-.373-2.77-1.063-.171.007-.24.083-.141.165-.918 2.017-.06.128-.012.117.072.09.097.069 3.718 1.44" clip-path="url(#p093118e11c)" style="fill:none;stroke:#000"/><path d="m349.61 363.474-1.102 2.437-.116.125-.145.086-.224.017-.224-.055-2.438-.957M349.61 363.474l-2.89-1.026M382.94 373.227l2.206-3.28M379.775 383.266l2.934-2.175M385.442 399.975l-1.12-.498-2.442-.904M385.442 399.975l1.534.735 1.25.667 3.525 2.105.631.331.228.087.239.004.213-.097.29-.26 1.386-1.68M391.266 398.636l-4.353.51-.508.146-.418.248-.545.435M391.266 398.636l2.456-.277.642.014.74.125 3.352.752.235.028.25-.045.15-.114.115-.214.803-1.885M288.446 479.555l-1.385 1.536-1.374 1.608-4.532 4.295-1.038.67-.545.2-1.21.248-2.56.38-5.765 1.795-1.657.082-2.718-.358-.777.034-.433.186-.366.304-.186.339-.053.855.396 1.83-.052.614-.336.988-.597.476-1.147.586-.795.733-.403.545-.538 1.201-.739 2.913-.075.787.068.608.239.607.948 1.202.993 1.035 1.92 1.436.828.911.254.635.067.566-.112 1.057-.643 1.684-.484.677-.449.359-.575.214h-.574l-.68-.214-.627-.353-.44-.414-1.696-1.863-.806-.594-4.689-2.838-2.278-.849-.395-.345-1.553-1.815-.396-.242-.5-.048-.41.075-.285.235-1.168 1.564-.922.5-2.016.49-.515.277-.538.704-1.702 4.48-1.904 3.155-.277 1.167v1.353l.381 1.45.612 1.16 2.173 2.822.037.595-.164.365-1.045 1.298-.837.545-1.052-.013-1.837-.608-3.24-.704-1.628-.338-.419-.249-.56-.462-1.478-1.81-1.24-2.388-1.224-1.27-.955-.469h-.389l-.627.248-.567.36-.717.828-.807 2.347-1.881 2.264-.09 1.823.359 2.485v3.341l.776 3.01.866 1.629 2.12 1.27M221.661 552.361l.164-.186.299-.442.254-.897.12-1.229-.195-.952-.075-.47.195-.8.447-1.423 1.255-3.562.299-.87.53-.849.657-.987.231-.483.045-.663-.194-.497-.328-.4-.553-.304M132.733 426.777l-1.598-.51-.836-.525-.598.083-1.283.621-1.45.124M132.628 443.762l2.57 5.55.88 1.215M132.628 443.762l1.404-.87M127.583 447.464l2.76-2.46 1.658-.939.627-.303M166.258 241.24l4.755 2.71M166.258 241.24l-1.784-1.082M164.283 241.866l.393-.199 1.582-.428M219.54 183.891l-.171.511-.172.325-.314.394-1.329 1.381-.821 1.036-.433.704-.448 1.437-.642 2.251-.463.995-.538.607-1.673.815-.895.677-.389.704-.253.747-.15.884-.253.359-.568.455-1.389.415-.94.51-.509.456-.82 1.493-1.046 2.803-.03.843-.21.732-.7 1.616-1.48 3.411-.298.802-.389.58-.582.8-.298.429-.344 1.478-.171 2.597-.045.317-.112.228-.187.16-.575.178-1.18.29-1.21.691-2.21 2.362-.88 1.243-.628 1.299-.134.856.015.718.343 2.403-.208.774M171.754 237.04l1.314-.51 3.643-.373.657.069.479.22 1.672.968 1.27.372 1.105.111 2.538-.097 1.046-.083.567-.372.299-.525.821-1.74.344-.374.597-.303 2.494-1.091.433-.373.32-.484.979-2.016.508-.553.597-.608.374-.62M199.485 235.77l.374-.29.074-.16.007-.186-.186-.469-1.113-1.084-.507-.656-.157-.332-.127-.407-.142-.262-.254-.194-.373-.076-.874-.22-.515-.298-.537-.456-.576-.649-.223-.442-.545-.932M103.24 262.08l-1.284-2.057-.254-.704-.284-.94-.583-1.684.046-.801" clip-path="url(#p093118e11c)" style="fill:none;stroke:#000"/><path d="m119.199 220.519-.608.997-.582.608-.418.483-.359.788-.567 1.27-1.21 3.508-.538 1.064-.328 1.09-.268 1.01-.912 2.002-.597 1.257-.836 2.417-.493 1.947-.583 1.037-.597.62-1.523 1.258-.97.925-2.912 3.633-.419.746-.209.952-.044.87-.195.58-1.762 2.597-.552 1.092-.613 1.808-.223.816M101.403 280.84l.717-2.227.209-1.022.03-1.202-.21-4.447.15-1.436.329-1.05.164-1.008.523-3.163.074-.69-.149-2.514M110.333 273.282l-.044-1.685.014-.442.269-1.022.18-.677-.016-.31-.127-.263-.657-.635-.94-.822-.307-.421-.791-1.14-.328-.338-1.658-1.347-1.42-.98-1.268-1.12M124.332 222.579l-.029-.241-.074-.345-.27-.953M113.217 308.959l.252.41.254 1.533.299 1.133.313.552.478.318h.508l.508-.235.746-.897.866-.532 1.173-.256.799-.172.448-.228.493-.415 1.06-1.021 1.254-1.078 1.105-.745M115.552 296.187l.366-.062.419-.386.492-.898.568-.304.642-.097.717.166 2.613.622 2.598.469 3.405.594.717-.11.463-.29.448-.442.194-1.064-.015-2.583.179-.856M101.403 280.84l-.075.232-.597 2.886.12 1.367.522.732 1.045.774 1.046.469.567.442.613.801.761.525 1.613.442.986.304 1.344.773 2.075 1.533.702.677.403.566 1.12 1.492 1.142 1.097.359.2.403.035" clip-path="url(#p093118e11c)" style="fill:none;stroke:#000"/><path d="m113.217 308.959-.002-.894.082-.36.322-.656.403-.359.672-.386.717-.511.82-1.133.479-1.256.12-1.037-.18-.8-.702-2.307-.075-.47.03-.483-.209-1.56-.142-.56M118.758 220.257l.44.262M122.556 203.615l-.597-.13-.948-.284-2.584-.843-.396-.048-.38.014-.688.27-1.515 1.222-.187.242-.037.172.074.228.232.718.448 1.547.254 1.285.373 1.022 1.06 1.92.598 1.63.164 1.05.104 3.37.227 3.257M122.556 203.615l.552.18 2.256 1.133 1.314 1.043 1.672 1.512 1.06 1.16.254.16.314.075 5.832 1.491 2.18.885 2.807 1.326 1.344.234 1.419.042 2.479-.083 2.494-.041 1.105-.07 1.045-.276 1.956-.566.777-.055.88.138.568.58.358.801.284.746.224.566.628.58.94.443.612.552.747.925.658.842.731.76.911.622 2.195 1.478.508.593.403.885.508 1.464.657 3.536.582 2.597.493 1.905.344 1.036.463.719.985.828 2.345 1.588.492.304.822.788M171.013 243.95l1.323-1.495.299-.484.06-.283-.045-.393-1.15-2.5-.254-.622.023-.393.112-.325.373-.414" clip-path="url(#p093118e11c)" style="fill:none;stroke:#000"/><path d="m192.883 272.302-.85.027-1.33-.224-1.373-.46-1.18-.877-1.672-1.52-1.896-2.016-1.046-1.34-.746-1.31-.224-.609-.225-2.583-.238-5.593-.284-.94-.419-.676-.686-.83-1.956-1.946-.986-1.23-.568-.925-.582-1.09-.508-.774-.701-.801-.867-.622-3.533-2.014M121.54 197.255l.06 1.05.21 2.023.201.76.232.497.388.704.082.346v.276l-.157.704M109.094 306.11l.567.484.314.131.276.007.202-.097.493-.4.552-.29.567.027.284.194.314.469.074.98.06.511.18.443.24.39" clip-path="url(#p093118e11c)" style="fill:none;stroke:#000"/><path d="m186.792 275.726.85-.994.464-.98.268-.387.314-.208.419-.055 2.18-.193.896-.221.7-.386M153.774 251.64l2.51-2.017.671-.815 1.224-1.353.807-.801.433-.567.343-.677.403-1.201.13-.548M164.283 241.866l-.43.216-1.865 1.146-.672.249-1.02.184" clip-path="url(#p093118e11c)" style="fill:none;stroke:#000"/><path d="m147.786 248.532.582-.373.359-.442 1.97-3.135.404-.387.627-.29 1.18-.207 3.076.028 1.225.138.791.04 2.016-.192.28-.05M164.283 241.866l.213-.64v-.456l-.022-.612M473.005 366.488l-.121-.063-.426-.42-.328-.63-.441-1.041-.5-.753-.546-.566-.76-.594-.688-.318-1.665-.656-1.254-.67-2.18-1.47-1.703-1.174M450.267 369.519l1.135.608.564.265.545.245.4.135.56.086.53-.027.41-.194.27-.242.275-.417 2.726-4.609 2.351-3.632 2.36-3.604M363.889 499.972l.004.836.134.704.583 1.277.545.994.13.487-.126.76-.168.348-1.154 1.07-.907.318-3.3.42-1.733.601-.56.035-.866-.221-1.27-.753-.41-.013-3.09.82-2.771-.061-1.867.49-2.352.228-.485.27-2.404 1.545-.613.235-.731.152-1.867.131-.5.173-.478.282-.351.408-.217.497-.142.656-.03.732.24 1.567.141.394 1.838 3.264.171.532-.045.918-.097.297-.493.89-.657.801-1.56 1.63-.127.676.373 2.271-.082.428-.38.553-1.248 1.152-.627 1.208-2.964 5.834-.486 1.829-1.045 1.72-.388 1.352-.045 2.32-.187.455-.373.449-1.687 1.38-1.427 1.257-.433.6-.44 1.236-.209.884-.112 2.927-.44 1.345-.27 2.3-.253 4.707.261 1.029.508 1.415.09.6-.113 2.016-.366 2.009-.94 3.003-.389 1.58-.276.352-1.075.69-2.524 2.948-.18.428-.03.532.15 1.622-.231 1.615.455 2.948-.201.862-.552 1.215.104.815.209.518.694 1.187 1.038 1.56.127.407-.09 1.077-.709 3.162-.239 3.423.202.842 1.195 2.74.47 2.713.904 3.037.29.387 1.457 1.208.896 1.063M337.96 352.523l-2.582-.404-.597-.049-.546-.007M349.906 355.034l-.902-.436-.836-.297-.79-.221-1.405-.287M352.845 356.762l-.809-.514-2.13-1.214M345.973 353.793l-2.314-.383-.977-.15M342.607 353.61l.075-.35M337.864 352.911l1.426.223 3.317.476M342.682 353.26l-.995-.154-2.822-.442-.904-.141M337.864 352.911l.097-.388M303.01 399.595l.388-.248.389-.152.485-.083.395.007.65.162.807.328M303.01 399.595l.93.128.377.027h.373l.373-.038 1.06-.103M320.146 381.536l-.172.425-.216.794-.075.594-.007.455.276 2.03-.03.345-.082.36-.485.925-1.658 2.796-.336.656-.09.421-.044.525.142 1.996.014.69-.022.538-.18.525-.298.387-.269.227-.515.174-1.038.186-3.18.545-.389.138-.247.221-.977 1.216-.882.855-.552.298-.56.151-.814-.034-1.336-.366M493.47 325.238l-.336-.166-8.886-5.759-1.912-1.568-2.628-2.389-1.433-1.643-1.053-1.27M464.267 310.523l.904-.2 1.09-.056.702-.097.634-.241.807-.318.343-.103.35-.07.456.042.494.221 2.202 1.167 1.038.4 1.672.422.725.207 1.538.545M277.34 451.55l-.307-1.257-.033-.221.022-.207.075-.21.198-.425.075-.294.052-.383.097-.483.097-.463-.022-.366-.105-.504-.232-.718-.171-.249-.575-.58-.284-.269-.299-.152-.38-.096-1.038-.2h-.24l-.13.03-.13.087-.09.187-.396 1.505-.149.227-.239.187-.456.217-.34.131-.354.066-.32-.014-.292-.096-.202-.207-.104-.256-.015-.255-.022-.905-.023-.276-.142-.414-.41-1.022-.21-.649-.298-1.36-.27-1.001-.074-.435-.097-1.084-.116-.704-.175-.629-.269-.766-.418-.953-.762-1.415-1.217-1.94-.679-1.07-.146-.342-.097-.27-.056-.39-.06-1.373M293.64 331.424l.604.636.358.544M285.098 335.07l-.18.435-.097.422.06.297.21.31.514.27.5.075.426-.04.777-.084h.754l.761.049.49.096.414.228.35.394.21.359.202.559.694 1.96.074.18.165.042.194-.076.18-.207.081-.242-.007-1.443.067-.248.224-.311.851-1.14.307-.441.223-.567.725-2.12.335-1.223M238.2 396.184l-1.322 2.769-.62 1.146-.172.47-.067.359.015.386.194.511.419.67.814 1.111.313.436.306.621.5 1.063 2.27 4.122.374.621.657.815.552.456.523.242.567.055.336-.014.5.028.493.117.336.131 6.355 3.342 2.404 1.084 1.403.666.628.238M306.691 392.532l1.508.49.325.031.247-.041.153-.12.082-.136.212-.936.273-1.208.321-1.16.135-.297.153-.237.477-.55.322-.359.276-.386.567-1.098.415-.666.463-.584.731-.752.3-.18.38-.131.418-.076 1.097-.11.403-.042.374-.124.889-.435.567-.338.896-.657.702-.518.254-.144.515-.232M262.205 308.258l.574.69.934.601.62.249.43.135.5.058h.59l2.795-.235.971-.007.956.16 1.128.269.828.373 1.202.614 1.695 1.257 2.606 2.147.91.898.8.842.478.67.455.843 1.411 2.52.949 1.353 1.478 2.058 1.688 2.41.968 1.26.577.604.635.49.769.429 1.53.67 1.457.614.53.373.47.359.5.462M296.491 315.418l-.41.484-.097.214-.038.276.068.31.35.698.553 1.023.373.835.456 1.174.277.828.096.663.03.746-.134.594-.299.635-1.008 1.644-1.18 2.196-.462.828-.3.621-.193.546-.157.338-.777 1.353M262.205 308.258l-.317.39-.172.235-.19.341-.225.422-.694.822-.254.317-.231.366-.202.636-.18 1.021-.208.553-.389.773-.836 1.284-.328.746-.254 1.023-.254.759-.388.511-.456.352-1.433.932-.545.318-.292.241-.253.36-.926 1.56-1.315 1.947-.283.574-.247.635-.119.47-.015.676.142 1.326.171 1.215.053 1.001-.068.477-.134.497-1.463 3.252-1.135 2.106-.717 1.105-.859.732-.746.49-.47.407-.135.215-.03.359.045.435.493 2.845.268 2.499.09 1.574-.03.76-.134.815-.404 1.746-.096.498-.068.573.008.953.03.483-.105.345-.172.428-.015.194-.015.262.053.311.276.767M288.446 479.555l.03.186-.003.197-.068.197-.168.445-.022.204.01.272.143.829.052.51-.067.567-.112.655-.187.788v.559l.075 1.242-.022.615-.105.58-.247.842-.753 1.757-.553 1.177-.273.535-.414 1.122-.112.255-.205.3-.676.77M369.754 505.647l.874.552.859.51.447.173.598.146 1.12.152 1.807.18.634.027h.702l.911-.052.276.035.187.075.24.18.372.266.232.113.265.066 1.135.035" clip-path="url(#p093118e11c)" style="fill:none;stroke:#000"/><path d="m447.063 581.177-2.022-.355-.545.035-.426.172-2.404 1.27-1.733 1.23-3.659 1.67-1.605.317-1.762-.241-1.24-.359-2.082-.918-.934-.538-5.891-3.914-2.852-2.03-.321-.552-.777-1.92-.254-.186-.739-.076-1.067.228-1.86.677-.597.075-4.749.387-1.695.89-1.83.925-.44.022-.664-.097-3.54-1.485-1.41-.703-3.286-2.03-.575-.745-.627-1.595-2.92-4.758-.13.043-2.356 1.215-4.338.994-2.994.973-.612.097-.762-.007-.59-.13-.306-.215-.18-.746.12-.469.359-.531.44-.408.232-.393.142-.87-.306-1.567.216-1.38-.21-.373-.387-.263-.538-.165-.627-.042-1.449.138-2.06.373-.194-.083-.127-.213-.62-2.575-.418-.76-1.344-1.532-3.33-4.37v-1.139l.141-1.664.03-1.249.254-4.176-.112-4.646-.127-1.546.112-3.79-.5-2.23-.27-.787-.798-1.45-1.097-1.166-2.45-1.968-3.322-1.657-.508-.407-.836-.904-3.808-3.031-.538-1.153-.224-.89-.127-1.008.18-1.636.332-1.847-.097-1.636.324-.4.575-.118.624.352.47.608.127.365.407 2.89.187.607.254.407.455.4.538.27.694.097.627-.028.978-.352 2.808-1.491 2.038-.476.948-.042 1.15.456.284-.097.12-.228.03-.545-.381-1.622-.187-.842.336-3.156-.202-1.394.202-2.009-.075-1.339M363.889 499.972l.616.773.418.394.5.386.979.705.425.414.306.49.501 1.015.261.428.344.338.272.17.474.2.55.19.22.172" clip-path="url(#p093118e11c)" style="fill:none;stroke:#000"/><path d="m369.342 460.246.151.189.224.366.164.407.045.538-.045.525-.239.6-.515 1.022-.291.78-.433 1.56-.269 1.582-.037.766-.045 3.066.037.76.105.73.209.58.366.567.739.904.486.732.246.677.343 1.118.538 1.236.141.407.076.359-.09.6-.202.491-.336.338-.538.304-.62.276-.5.325-.298.476-.553.946-.515 1.035-.231.718-.247.925-.493 1.789-.276.745-.746 1.733-.247.552-.313.428-.926.65-.411.372-.306.49-.082.338-.008.345.105.456.791 1.553.172.47.067.538-.067.684-.366 1.429-.209.932-.004.317" clip-path="url(#p093118e11c)" style="fill:none;stroke:#000"/><path d="m369.342 460.246.511.1.775.054.732-.096.522-.084.516-.096.358-.007.724.172.44.242.202.242.09.241.045.367-.127.38-.187.317-.44.38-.157.324-.03.435.038.504.044.51.142.436.321.814.097.449-.037.325-.291.49-.366.462-.418.463-.12.345-.03.338.03.339.202.428.134.124.307.207 2.06.656.769.456.847.656.307.224.19.141.127.045.157-.02.295-.097.507-.076.277.01.239.063 2.647.904M363.203 431.745l-.609-.052-.373.042-.486.22-.41.463-.762 1.16-.366.76-.314.994-.194.483-.239.407-.433.67-.15.207-.066.304.045.408.477 1.856.225 1.064.201 1.187.187 1.94.164 2.534.239 1.298.18.78.208.766.194.463.53 1.022 1.054 2.037.417.859.142.621-.005.704.088 1.074.197.718.426.767.4.352.477.276.698.383.915.307 1.135.207.833.273.462.3.363.332.289.315M221.661 552.361l3.83 1.305 3.046 1.09 3.204 1.381 1.06.429.747.359.657.455 3.195 2.195 1.554 1.077.627.504.373.407.321.442 1.015 1.332.538.594 2.225 2.099 1.15.994.407.393 1.087 1.084 1.993 2.14.261.193.3.076.215-.02.389-.125 1.217-.656 2.046-1.25 1.478-.842.47-.186.262-.007.25.146.258.24.194.346.754 1.139.343.331.86.725 1.194 1.077.433.449.254.351.978 1.423.68 1.187 1.522 2.83.605 1.035.217.36.15.38.119.966.29 2.208.128.208.194.152.194.034.164-.034.269-.187 1.68-1.484 1.09-.842.232-.104.343-.062 2.247.166.366.117.396.235 3.397 2.022 1.106.628.246.097.231-.055.142-.11.098-.104.596-3.39.15-.642.224-.42.247-.263.799-.462.799-.435.567-.449.515-.407.478-.22.478-.084 1.687-.207 1.717-.228.538-.075.568-.18.552-.393.433-.49.194-.373.045-.484-.12-.724-.417-1.436-.5-1.215-.5-.89-.113-.346-.023-.296.068-.615.015-.462-.053-.463-.171-.497-.232-.51-1-1.754-1.046-1.788-.119-.386-.015-.421.127-.511.478-1.464.806-1.67 1.12-2.74.717-1.485.108-.149.146-.082.106-.025.364-.027 1.236-.09.202-.069.138-.141.037-.166-.003-.149-.072-.207-.149-.213-.321-.304-.485-.27-1.59-.966-.539-.338-.38-.359-.217-.366-.127-.332-.112-.49v-1.07l.098-1.663-.06-.67-.105-.566-1.135-2.885M492.151 606.138l-2.796-.01M488.34 597.513l1.837 3.652 1.082 2.492.68 1.601.149.552.063.328M490.415 611.294l1.732-.286.21-.045.201-.1.086-.1.03-.138.007-.173-.481-4.062-.049-.252M488.34 597.513l-1.06-2.034M486.068 598.498l1.092-.502 1.18-.483M489.041 604.92l.101.335.213.873M557.395 492.112l-.108.336-.404.572-.365.394-.374.242-.5.2-2.39.642-.395.228-.299.29M523.134 549l1.523-.173.19-.062.143-.117.082-.166.06-.266.01-.327-.089-.36-.325-.742-.04-.166.037-.096.074-.08.13-.061 3.802.103 1.13.035.8-.021 1.358-.131 1.315-.221.508-.049 2.404.2 2.725.242.747.131 1.702.31.754.056.836-.013.635-.07.642-.172 1.441-.621M528.241 351.138l.448.601.165.414.015.346-.083.414-.455 1.712-.254 1.05-.194.966-.067.615v.704l-.045.525-.09.566-.403 1.699-.156.808-.053.552.008.47.082 1.084-.015.504-.12.393-.239.352-1.097 1.637-.657 1.208-.165.47-.082.462-.12 2.513-.059.622-.134.51-.18.415-1.21 2.258-.29.449-.276.38-.202.317-.045.2.03.18.157.193.18.097 1.62.85.257.206.205.228.164.297M557.395 492.112l.16 2.186.023.82-.045.54-.127.338-.567 1.118-.232.856-.299 1.492-.051.662-.015.836.171 2.996.037 1.028-.066.767-.12.752-.127.635-.127.911M565.514 464.933l-.58.782-2.205 3.48-2.09 6.903.412 1.989-1.673 3.148-.986 2.955-.627 3.508-.306 4.218-.064.196M493.611 592.343l-2.27.58-.507.138-.314.166-.21.172-.32.373-.18.145-.26.096-.337.118-.35.172-.3.194-.82.572-.463.41M486.068 598.498l.002-.84.06-.573.12-.38.215-.413.404-.45.411-.363M537.38 369.443l-.38 1.429-.396 1.34-.216.572-.247.422-.433.538-1.056 1.226-.344.26-.302.182-.374.131-.537.166-.266.18-.208.213-.116.204-.18.587-.067.6M528.898 371.818l.755.718.679.69.358.539.27.58.26.6.225.477.179.263.187.33.06.195.074.33.048.443.038.165.074.166.153.18M503.87 342.272l.433.076.553.087 1.21.065 2.255.083 1.037.131 1.053.25 1.128.413 3.008 1.112 1.516.462 1.986.484 1.12.407 2.136.967 1.142.525.59.359 1.24 1.043 1.53 1.214.993.601 1.441.587M585.301 376.927l.03-.352-.06-.241-.134-.428-.313-.346-.896-.649-.807-.607-1.478-1.63-1.045-.925-1.33-.898-1.15-.925-.85-.87-.852-1.174-1-2.403-.388-1.118-.434-.483-.612-.387-1.389-.442-5.346-1.326-2.852-.966-.717-.511-.597-.58-.478-1.022-.747-1.775-.395-1.09-.224-.885-.135-.635.008-.739.082-1.705-.008-.394-.216-.407-.276-.332-2.45-1.898-2.366-1.706-1.068-.766-.478-.346-.933-.407-.254-.172-.202-.221-.254-.54-.328-.759-.486-.863-.739-1.187-.78-1.012-.15-.145-.164-.097h-.216l-.183.087-.22.204-.25.403-.382.891-.29.635-.433.566-.531.58-.56.567-.575.8-.612.74-.567.47-.71.517-1.18.538-2.822 1.16-1.127.456-.717.228-2.135.539-4.137 1.042-.926.173-.985.055h-1.18l-1.06-.076M500.482 332.709l1.133 1.187 1.18 1.409 1 1.63 1.091 2.437.03.38-.097.573-.403.85-.545 1.097M549.334 394.962l.687-1.374.39-.78.074-.324-.045-.394-.165-.386-.403-.629-.104-.118-.373-.31-.449-.248-1.037-.436M549.334 394.962l.62.083.956.318.516.297M585.301 376.927l-.164.27-.328.18-.456.186-.776.228-.747.117-1.277.076-.843.124-.672.083-.665-.069-1.06-.242-6.37-1.401-.604-.09-.732-.035-.575.11-1.022.394-2.547 1.278-.343.242-.262.324-.208.463-.531 1.912-.35.912-.314.725-.702 1.408-.762.884-.94.732-1.046.718-.881.428-1.65.6-.291.146-.172.227-.052.29.06.38.5 1.07.306.636.224.676.246.753.127.673.004.349-.067.303-.21.225-.395.293-.355.242-1.583.801-1.015.511-1.822.89-.425.104-.523.028-.568-.076-1.037-.345M473.005 366.488l.424.22.739.18.634-.007.441-.131 2.516-1.222.83-.318.416-.072" clip-path="url(#p093118e11c)" style="fill:none;stroke:#000"/><path d="m476.438 378.474-1.28-.649-.154-.128-.086-.127-.015-.124.015-.163.086-.252.217-.4.239-.546.896-2.134.269-.793.679-1.81.127-.386.052-.283.06-1.133v-1.422l.134-1.43.067-.372.113-.22.164-.187.984-.777M467.948 378.37l-.56-1.525-.209-.684-.06-.58.045-.463.086-.196.146-.107.228-.066.54-.107.374-.145.187-.152.537-.524.164-.298.337-.607.313-.69.254-.387.366-.476.261-.387.24-.587.238-.47.396-.462.142-.193.164-.498.18-.677.178-.559.217-.545.293-.497M500.482 332.709l.224-.276M493.47 325.238l.283.2.433.421.351.373.276.442.605 1.27.373.684.493.635.889.76 1.142.877 2.167 1.809M505.349 326.77l1.769-.158 1.576-.25 2.695-.489.351-.138.687-.414.388-.298.456-.179.41-.09.874-.082 1.053.013 1.62.139 1.3.22 1.022.242 1.075.262.695.152.761.118.859.069.538.082.403.18.821.47" clip-path="url(#p093118e11c)" style="fill:none;stroke:#000"/><path d="m505.349 326.77-2.517.2-.612.015-.515-.042-.53-.117-2.487-.967-.903-.304-1.09-.207-1.03-.076-1.128-.042-1.068.008M500.706 332.433l.514-.318.403-.207.537-.117.538-.035.851-.014.933.049 1.016.158 1.127.166.665.166.88.352.874.297 1.337.435.493.083 1.553.076" clip-path="url(#p093118e11c)" style="fill:none;stroke:#000"/><path d="m505.349 326.77-.702 1.74-.568.87-.462.346-.658.332-.627.262-.724.324-.34.197-.19.142-.105.18-.164.358-.082.518-.02.394M477.05 556.897l1.426.166.575-.014.463-.076.784-.242.754-.331 2.188-1.25 3.01-1.601 1.933-1.015.164-.072.142-.025.206.025 3.17.873.47.097.365.013.358-.082.5-.162M415.301 307.602l.418.173.889.345 2.366 1.56 1.583.932.449.318.44.463 1.24 1.602 1 .994.56.442.47.228.628.186.731.152.493.18.657.318 2.188 1.25 2.337 1.422.844.338.776.18.888.124 1.501.014 1.456-.049 1.024-.11 1.179-.214 2.009-.49 1.642-.518 3.024-1.03 1.158-.213 2.225-.4.91-.215 2.204-.704.746-.317.836-.429 1.023-.462.553-.207 1.187-.325.926-.186.873-.104.792-.007.888-.076.956-.228.732-.393.605-.58.85-.69.71-.353M455.71 285.311l.717 3.978 3.047 3.038 1.015 3.95 1.822 2.68 1.702 5.938.254 5.628" clip-path="url(#p093118e11c)" style="fill:none;stroke:#000"/><path d="m416.152 334.12.747-1.383.328-.87.112-.684-.06-.705-.23-.497-.524-.649-.567-.504-1.217-.904-.344-.373-.575-.877-1.209-1.961-1.24-2.665-.268-.857-.18-.856-.223-.967-.658-2.043-.179-.664-.015-.538.135-.511.761-1.796.433-.91.329-.622.963-1.374 1.732-2.97.262-.242.47-.103.366.007M384.6 366.11l.43.536.397.394.545.421.634.387.747.49.866.67.77.67" clip-path="url(#p093118e11c)" style="fill:none;stroke:#000"/><path d="m394.931 358.034-.53.68-1.044 1.331-.359.518-1.195 2.168-.32.511-.39.36-.514.303-.702.311-.937.293-.683.27-.71.283-1.217.538-.552.225-.568.165-.61.12M394.931 358.034l.92-.709 1.985-1.712.463-.352.426-.25.433-.151.582-.083 1.277-.193.62-.131.493-.228.313-.221.195-.4.03-.498-.142-1.54M358.026 373.23l.001.132.05.124.093.1.125.065.14.022.141-.025.123-.067.09-.102M391.266 398.636l-.273-2.497M425.549 410.626l-1.161.817-.642.442-.269.31-.403.532-.254.207-.247.125-.94.228-1.987.448-.365.138-.112.11-.045.19.019.242.081.228.161.304.598.7.328.45.209.407.62 1.308.59 1.381.074.252.019.207-.03.325-.112.41-.1.242-.116.17-.736.69-.213.19-.455.52-.16.187-.24.152-.985.335-.291.114-.22.12-.191.194-.142.307-.347 1.102-.135.583-.044.31.04.177.083.11.168.1 1.243.594" clip-path="url(#p093118e11c)" style="fill:none;stroke:#000"/><path d="m427.37 410.461-.264.202-.317.138-.355.093-.336.004-.329-.118-.22-.154M552.155 430.23l-.114.314-.063.259-.03.234v1.015l-.007.221-.038.345-.04.159-.124.228-.19.207-.8.622-.2.172-.173.166-.205.235-.575.752-.582.697-.747 1.022-.321.573-.261.69-.06.29-.03.332.075.338.194.643.12.4.014.317-.052.408-.142.345-.291.242-.426.144h-.433l-.567-.11-1.86-.552M565.514 464.933l.853-1.151-.657-3.7.896-3.26.06-2.595.238-2.651-1.941-1.766-1.613-1.768-1.479-1.519-.94-.662-1.524-.829-.642-.566-.687-.884-2.36-3.507-1.687-2.776-.538-1.09-.328-.995-.91-4.46-.1-.523M430.757 547.992l.806.366.792.47.5.455.888 1.076.44.415 1.651 1.228.53.297.47.187.479.131.425.173.463.317 1.202.966.478.49.44.498.366.324.583.435.747.518.41.393 1.217 1.553.665.815.433.456.358.29.672.338 1.143.455.866.249.806.165.284.087.276.152.153.158.049.214-.019.19-.153.2-.687.656-.582.553-.344.414-.29.448-.412.704-.395.766-.12.29-.045.36-.067 1.228.03.442.112.352.194.393.463.525.426.304.373.359.12.207.01.204.008 1.121-.022.335-.086.255-.16.27-.486.42-.825.633-.231.268-.12.242-.105.435-.156.918-.015.318.037.262.127.31.859 1.333.41.718.105.31.03.221-.03.27-.261.62-.135.318-.045.27.023.248.178.824M427.37 410.461l.498 1.438.111.517-.007.456-.135.45-.157.261-.597.628-.395.411-.15.276-.06.273-.018.276.075.37.167.894.053.622.19 2.271.011.325-.067.483-.16 1.274-.135.514-.186.4-.318.473-.426.38-.171.183-.105.225-.055.272.018.4-.075 2.307.038.897.112.697.194.594.283.525.47.497.77.656.344.47.208.435.068.393.18 2.071.268 2.3M608.329 313.402l.806 5.193 2.12 2.624 2.838 6.49 2.658 7.016.926 1.077 2.628 2.707 4.39 8.783 1.763 3.756-1.732 1.685-1.225-.082-1.971-.028-2.39.718-1.045-.221-1.284-.525-.717.194-.597 1.021-.598.58-2.419.802-2.001 1.187-.478.8-.03 1.188.508 1.299.657 1.795-.239 2.016-2.748 2.265-3.614 3.48-2.717 3.507-3.495 2.348-1.852.939-8.362.276-2.808.635M415.293 454.85l-.388.269-.538-.021-.35-.131-.449-.29-.672-.331-.395-.077-.47.049-.44.172-.3.083-.41-.006-.433-.063-.59.11-.261.09-.411.028-.373-.027-.56-.152-.792-.38-.5-.187-.538-.22-1.142-.608-.859-.442-.873-.338-.635-.366-1.023-.4-.836-.242-1.501-.373-2.09-.421-1.315-.331-1.785-.56-2.038-.663-1.508-.662-1.187-.629-.77-.393-.537-.207-.366-.145-.261-.055-.381-.028-.889.069-.44-.02-.344-.098-.335-.22-.195-.214-.127-.304.023-.462.142-.394.044-.27-.089-.172-.299-.055-.567.124-.583-.007-.507-.034-.598.13-.843.38-.463.276-.583.442-.478.373-.44.173h-.829l-.732-.048-.821-.208-.814-.22-.71-.042-.709-.11-.47-.208-.837-.559-1.09-.828-1.276-1.063-.635-.69-.486-.823-.358-1.007-.187-.615-.156-.303-.25-.187-.217-.056-.19.022-.239.079-.299.217-.231.408-.448 1.325-.455.856-.344.711-.135.414-.171.394-.198.245-.295.125-.146-.229-.015-.7-.018-.563-.096-.402-.315-1.237-.111-.515-.068-.894.108-1.25.12-.724.291-.542.19-.307.262-.411.078-.24-.008-.137-.093-.121-.146-.069-.548-.337-.669-.395-.35-.314-.359-.324-.276-.349-.116-.528-.324-1.042-.351-1.074M369.275 364.01l-2.256-.57M365.125 360.563l-1.053.884-.082.11-.015.16.067.158.896.78.225.145.29.118 1.566.521M487.379 601.516l.386.788.784 1.587.28.604.212.425" clip-path="url(#p093118e11c)" style="fill:none;stroke:#000"/><path d="m487.379 601.516-.518.236-.082.061-.022.07-.023.11.098.283.537.911.605.78.395.408.247.238.425.307M597.641 133.35l1.549 4.474.208 10.637-2.628 6.74 2.091 4.31-1.553 6.023-1.135 10.774-11.768 29.006-4.24.884-.717 2.21 3.106 8.62 4.3 3.038 3.107.055.896.718-5.257 9.613-4.3 3.647-1.733 3.315.598 4.916 4.002 7.293 8.362.718 2.33.663-1.434 4.64-3.166 8.591M594.093 267.19l-2.49-1.297-1.344-1.658M261.846 296.83l-1.164-1.658-.015-.787.269-1.395-.449-1.215-.522-1.381-.866-1.879-.06-1.63.045-2.043-.657-1.133-.195-.552-.104-.98-.403-.498-.717-.11-.657.317.194.65-.09 1.988-.896 1.146-1.313 1.616-1.136 1.091-.97.124-1.03-.234-1.703-.912-1.03-1.063-2.166-.525-3.435-.815-1.597-.455-1.016-.663-1.986-2.265-1.896-3.33.149-2.941-.493-2.016.15-.801.567-1.146-.045-.76-.418-1.077.776-1.16 1.105-1.23.135-.828-.627-.815-.911-.567-1.046.25-1.791.952-.882.387-.926-.138-.447-.387.06-.58.82-2.085-.09-2.197.45-2.5-.643-1.809.15-.704.462-.539 1.658-1.243-.12-1.257-1.194-1.284-1.06-.87M262.175 301.442l1.613-.082 2.957-1.105 1.314.055 2.18-.857.746-1.242.628-1.603.776-.966 2.509-1.381 1.613-1.492 1.015-.884M262.175 301.442l.269-.69-.418-2.9-.18-1.023M608.329 313.402l1.821-.083 1.195-.497.777-.856 2.598-6.021 1.195-1.437 4.748-3.618 3.525-5.193 1.882-1.105 2.598-3.895M586.227 152.163l.15-1.548 1.762-4.586 1.732-2.375.747-1.41 2.33-2.817 1.134-.94 1.165-.967.538-.856 1.075-2.21.781-1.105" clip-path="url(#p093118e11c)" style="fill:none;stroke:#000"/></g><g id="PatchCollection_1"><path d="m321.52 332.82-.433.552-.224.911-.195 2.085-.09.58.12.677.15.608.388.456.672-.304.568-.345.283-.677.135-.829-.329-1.56-.15-.663.135-.566.165-.456.074-.36-.21-.137-.536-.041zM369.754 430.226l.258.224h.28l.086-.124-.064-.17.168-.078.127-.187.034-.255-.295-.156-.243.228-.153.173-.12.19z" clip-path="url(#p093118e11c)" style="fill:#00f;fill-opacity:.8"/></g><g id="PatchCollection_2"><path d="m362.02 446.716-.12 1.078.403.993.209.995.373.662.164.511-.06.843v.911l.292 1.022.045.525-.023 1.38.366 1.14.358.587 1.128.794.836.31 1.038.331 1.202.035.837-.331.044.255-.298.283.014.297.142.345.314.262.537.215.904.048.321-.2.165-.304.283-.635.313-.173 1.128.553.635-.36-.082.387-.478 1.132-.568.553-.209.517-.194.387-.508.87-.433.476-.35.712-.165.407.187.207-.381.51-.291.594-.418.898-.15.8.448 1.14.89.462.514-.007.881-1.421.194-.443-.328-1.042.06-.8.32-.519.292-1.49.254-.719.448-.497.358-.532.299.746.074.856.553.925.627.594 1.374 1.146 1.15.442.956.18 1.896.648.806.635.523.995.418.47.732.4.582.358.553-.069.523-.607 1.015.055.597-.22 1.508.358.926.65.553.33.836.097.941.539 1.255.552 1 .18 1.419.027.806.387 1.553 1.09.821.097.389-.29-.568-.786-1.896-1.119-1.837-1.063-1.06-.746-1.464-1.063-.15-1.036-.462-.386-.97.938-1.076.429-.806.29-.882.014-1.283-.014-1.061.124-1.478.055-.702-.373-.329-.538.598-.663.657-.29.582.193.269.442.91.331 1.046.083.717-.4.732-.387.851-.538.179-.594-.642-.649-.956.11-.582.166-.568-.152-.09-.634-.149-.373-.448-.277.344-.51-.508-.07-.747.484-.552.4-.418.207-.493-.082-.806-.07-.777.249-1.18-.221-.701.11-.971.084-.747.082-.657-.276-.552-.622-.254-.455-.836-.276-.314.373-.433.331-.269-.594-.03-.745-.298-.456.149-.58.567-1.077.508-.884.164-.524 1.479-.124 1.03-.194.478-.014-.12-.649-.567-.497-.523-.234-.94.317-.792-.11-.761-.304-.449-.028-.522-.207.284-.345-.195-.276-.657.11-.582.58-.747.483-.687.47.12-.594-.21-.386-.432.179.09.456.119.29-.164.262-.493.041-.433-.414.044-.635-.403-.4.523-.857.836-.151.314-.76.134-.566-.418-.483-1.583.29-.537-.097-.389.414.284.705.21.773-.508.69h-1.539l-.806.055-.463-.359-.045-.87-.507-.538-.284-.704-.21-2.223-.014-1.063-.24-.622-.477-.4.448-.511-.045-.442-.388-.138-.27.746-.23.096-.523-.497-.299-1.298-.067-.463-.135-.759-.231-.228z" clip-path="url(#p093118e11c)" style="fill:#006400;fill-opacity:.8"/><path d="m372.323 456.023-.597-.014.328-.966-.18-.829.03-1.56.106-.828.298-.567.418-.594.687-.924.283-1.023.374-1.035.403-.898.717-.276 1.12.594 1.434.345 1.015-.013.628-.332.626-.262.718-.415.656-.193.762.124-.269.484.045.386-.284.788.388.317.941.386.881.456.359.277-.762.87-.701.966-.897.677-.776.317-1.21.442-.896.345-.85.497-.524.525-1.747 1.229-.926.304-1.03.11-.791-.014-.583.18zM367.611 440.123l-.239.049-.44-.07-.336.049-.097.335.157.334.194.207.329.097.246-.007.284-.242.216-.248.104-.331.015-.262.247-.284.246-.144.306-.443-.015-.324-.164-.076-.35.173-.172.262-.06.394-.008.165-.03.117-.223.36zM368.701 432.943l.206.017.22-.058.217-.16 1-.069.568-.33-.15-.677-.537-.318-.329-.11-.254-.311-.313-.035-.299.339-.052.303.022.29-.477.435-.046.387z" clip-path="url(#p093118e11c)" style="fill:#006400;fill-opacity:.8"/><path d="m380.492 428.614-.449-.124-.074.317-.403.138-.538.097-.329.29-.656.041-.18-.22-.045.662.613.332.284.096-.105.428-.388.276-.075.25-.12.165-.492.22-.418-.151-.657-.09-.53.159-.382.29-.38.11-.56.346-.411.082-.44.125-.247.041-.418.145-.448-.4-.276.096-.09.36.284.386.239.242-.5.476-.717.131-.224.221-.127.304-.396.055-1.896.097-.464-.214-.455-.104-.493.339-.298-.09-.448-.235-.545-.152-.202-.124-.127-.339-.112-.51.403-.284.388-.144.262.075.12.18-.449.283-.052.249.187.02.515-.29.328-.421.322-.331.104-.435-.112-.193-.702.055-.597.255-.665-.787-.507-.386-.486-.884-.702-1.036-.597-1.105-.485-1.18-.418-.56-.613-.497-.209-.407-.425-.911-.224-.58-.105-.331.12-.318-.113-.235-.074-.29.388-.255.321-.187.336-.455-.007-.415-.157-.338.172-.4.104-.166v-.38l-.142-.124-.448.083-.306.283-.329.235-.246.11-.238.476.313.332-.276.145-.777-.034-.635.061-.388-.241-.597-.11-.291.365-.247.104-.694-.18-.523.297-.388.38-.18.394-.03.393.165.38-.104.248-.336.463-.351.394-.306.124-.24-.076.367-.58-.12-.373-.344.048-.23.11.066-.552.142-.42.135-.201.328-.173.53-.027.217-.242.127-.393-.27-.138h-.305l-.008-.2-.268.082.127.31-.434.008-.254.18-.052.158-.082.408-.216.13-.284.077-.291-.063-.045-.207.202-.214.007-.18-.105-.144-.224.02-.134.097-.082.22.216.25-.037.324-.164.214.321.538-.008.215.306.2.247-.117.261.069.053.082-.03.207.097.166.06.193.044.242.023.36v.165l-.306.262-.276.09-.322-.124-.164-.249-.21-.193-.932-.566-.381.013-.329-.262-.21-.442-.216-.407-.216-.304-.15-.283-.403-.041-.358-.16-.187-.206-.395.097-.388.255-.53.38-.337.648-.38.4-.232.526-.134.276-.277-.062-.425-.45-.695-.696-.239-.552-.343-.636-.396-.304-.239-.296-.246-.346-.127-.304-.164-.09-.59.16-.53-.173-.53-.193-.702-.567-.426-.276-.41-.593-.896-.442-.493-.11-.27.193-.537-.4-.762-.526-.388-.179-.477-.263-.433-.11-.195-.718-.254-.428-.164-.346-.239-.151-.104-.152.568-.732.313-.027.388.372.463.07.254-.028.224-.318.388-.234h.568l.537-.07.254-.11.18.22.343.18.104-.234.12-.429.717-.138.373-.304v-.22l-.284-.36-.433.07-.313.248-.404.028-.254-.11.03-.332-.06-.345-.104-.373.538-.332.731-.497.583-.552.269-.47.03-.29-.247-.158-.38.048-.24.428-.179.249-.328.083-.403.124-.717-.11-.404-.111-.477.442-.598.483-.956.345-.343.415-.448.22-.642.263-.672.524-.344.608-.373.36-.433-.084-.18-.635-.209-.11h-.657l-.418-.083-.343.455.105.802-.09 1.05-.134.44.179.595.582.317.986-.884.358-.456.448-.703.418.676-.075.442-.522.318-.388.455-.642.249-.598.441-.015.622.165.207.746.51.493.664.836.455.643.111.433.207.134.346-.433.455-.105.497.09.539.508.096.134.415.15.373-.642.814-.658.704-.09.636.374.165.313-.497.583-.732.597-.262-.463.98-.418.663.075.4.239.387v.456l-.134.456-.105.648-.06.719-.373.055h-.747l-.94.18-1.24.483-.194.386-.21 1.216-.03.414.852.027 1.941.525 1.18.234 1.09.719.508.58.104.538-.074.65v.648l.567.249.463-.539.418-.027.702.304.24.538-.404.524-.09.664.478-.014.374-.36.388-.124.209.29.403.953.986.856 1.224.083.971.249.717-.028h.806l.717.483.388.18.508.083.612.082.567.235.762.055.717-.055.329.014.716-.014 1.27-.22.522-.304.672.276.344.055.821-.124.552-.332.404-.538.239-.47.358-1.463.553-.208 1.022.11.374-.517.38-.449.24-.366.575.16.53.427.366 1.457.62.766-.277.65-.06.552.217.76.037.538.12.373-.075.51.075.753.194.676.044.373-.052.78.172.318.112.352 1.15 1.042.836-.427.821-.98.21-.898-.434-.497-.97.027-.597.304-.135-.317-.12-.885-.074-.372-.03-.65.18-.4.671.11.418.664.672-.263.493-.345.3-.234-.15-.456-.09-.553-.388-.345-.598.028-.358.718-.373.082-.254.097-.15-.207.269-.552.269-.4.105-.346-.18-.22-.208-.042-.553-.042-.344-.138-.298-.179-.075-.304-.21-1.022-.104-.455-.253-.4-.433-.153-.254-.47-.06-.468.507-.677 1.09.359.508.055.508-.4.254-.415.045-.317-.015-.511.359-.594.672.235.238.428-.074.428.508.455.208.36.807.414.373.414.164.235.142.041.366-.02.448.069.605.124.247.028.171.365.06.276.142.339.724-.042.403.042.239.248.21.345.111.311-.105.228-.298.076-.187.207-.03.283.351.276-.201.284-.373.338.313.359.298.228.523.42.3.436.574.29.396.062.38.007.389-.166.656.428.404.318.448.207.478.069.209-.663-.552-.815-.688-.51-.656-.54-.329-.22-.807.194-.731.096-.314-.235.224-.372.493-.29.239-.222-.135-.607-.388-.193-.239-.097.418-.262.822.124.552.373.568.414.433.428.522.484.493.138.747.152.508.372.776.07.613-.056 1.791.055.777-.027.806-.07.956-.041.717-.055.582-.028.807-.4.776.262.792.428.388.221.269.221.642.497.806.373.642.11.717.166.881-.18.643-.234.746-.4.478-.139.597.07.702.151.478.539.374.097.686.648 1.284.98.837.553.896.428.702.746.94.235.852.304.866.455.94.29.538.345.359.484.253.469.314.345.015.456-.12.262.06.428-.134.235.06.538-.18.456.015.4.344-.207.463-.22.164.428-.135.455.867.346 1.687.069 1.255-.152.746.372.418.221.24.387h.447l.18-.566.642-1.036.687.36.418-.014.433-.567.612-.525.074-.952.195-.925.776-.58.627-.138.508.8.21.387.567-.29.388-.345.135-.083.641-.014.687-.207.21.442.478-.428.343-.414.926-.732.06-1.132-.254-.442-.986-.166-.538-.29-1 .097-.567.07-.538.013-.388-.429-.24.774.09 1.077.03.525.404.62-.03.277-.568-.359-.403-.317-.657.069-.523.345-.627.207-.567.304-.419.414-.314.221-.746-.097-.299-.276.224-.538-.493-.235-.522.042-.284-.194-.104-.497.194-.622-.105-.276-.463-.331-.672.11-.239-.041-.18-.387.15-.663.3-.4-.076-.538-.209-.25-.014-.51.328-.51.537-.663.493-.428-.09-.47-.283-.58-.328-.428-1.255-.65-1.195-.717-1.224-.65-1.882-1.02-.522-.526.06-.731-.105-.304-.657-.387-.553-.083-.403.346.866.69.15.235-.643.11-.418-.4-.582-.414-1.448-.912-3.167-1.408-1.717-.65-.612-.469-.448-.331-1.747-1.119-1.06-.22-1.016-.125-.821.276-.598.787-.284.815.598.442.926.4.567.138.314.249-.194.525-.717.373-.627.262-.403.414-.837 1.202-.956 1.74-.418.828-.403.4-.373-.594-.165-.441-.343-.083-.478.649-.284.276-.806.248-.657-.152-.164-.29-.374.608-.82.138.148-.4.045-.773-.985-.54-.717-.165-.642-.22-.239-.25.194-.345-.344-.082-.388.414-.508.318-.687.027-.164.498.598.455.418.221.06.47-.866-.332-.493-.207-.926-.345h-.418l-.523.055.328-.594.105-.4-.657-.249-.493.097-.762-.097.359-.607.508-.387-.045-.47-.284-.4.18-.663.985-.414 1.03.083.672.014.672-.331.568-.456.702-.484.627-.22.717-.442.492-.345.06-.802-.015-.745.194-.552.344-.429.09-.345z" clip-path="url(#p093118e11c)" style="fill:#006400;fill-opacity:.8"/><path d="m370.165 427.751-.298-.387-.06-.573.164-1.194-.09-1.257-.186-1.07-.12-.47.075-.393.18-.262.29-.221.269-.007.328-.256.157.276-.26.325-.143.373.03.414.24.159.148.29.322.269.09.304-.18 1.16-.135.621-.171.477-.217.49-.135.456-.141.255zM371.815 426.253l.045.607.239.166.448-.47.642-.096 1.045.124.732-.152.553-.041.492.4.538.29.568.083.373.152.09.842-.225.732-.209.47-.478.359-1.18.207-.477.29-.508.165-.821.138-1.015.083-.718.028-.642-.083-.612-.29.06-.483.015-.525-.12-.166-.149-.124-.165-.166.314-.828.493-1.229.142-1.018.291-1.343.09-.328.686-1.557.203-.794.32-.235.075.47.299.317.276.028.247-.256-.195-.469.41-.387.531-.22.754.11.351.338.127.38-.075.539-.71.33-.716.208-.343.22-.567.581-.12-.4-.015-.235-.164-.042-.329.173-.209.47-.172.33.172.09.396-.103-.5.49-.127.393-.075.152-.186.429-.21.338-.015.324z" clip-path="url(#p093118e11c)" style="fill:#006400;fill-opacity:.8"/></g><g id="PatchCollection_3"><path d="m501.144 369.581.394.29-2.65 3.092-.395-.29zM369.097 368.78l-.142.539-.127.58.486.117 1.639.283.268-1.151zM373.435 370.395l-.015.09 1.486.3.78.112.912.11-.011-.132-.545-.027-.494-.08-.862-.117zM366.267 368.78l-.086.224.986.173 1.027.21.172-.21zM365.342 368.56l-1.84-.312-.024.214 1.812.29zM361.205 367.717l-.037.13 1.687.29.064-.12z" clip-path="url(#p093118e11c)" style="fill:green;fill-opacity:.8"/></g><g id="PatchCollection_4"><path d="m504.967 376.094.757.586-.752.832-.757-.585zM497.022 366.578l1.378 1.045-.773.872-1.378-1.045z" clip-path="url(#p093118e11c)" style="fill:#90ee90;fill-opacity:.8"/></g><g id="PatchCollection_5"><path d="m497.36 373.352 1.006.702-1.23 1.509-1.007-.702zM377.452 370.803l-.276.607.097.373.366.111 1.702.29.157-.338.205-.713zM364.989 437.464l.122-.258.292.118-.122.258zM372.592 456.554l-.167-.274.764-.396.179.295-.763.396zM371.633 456.67l-.036-.428.798-.058.028.335-.293.02.009.094zM375.096 468.136l-.017-.416.586-.02.017.446-.086.003.002.049-.141.004-.003-.077zM379.017 471.326l.078-.252.233.062-.077.251zM380.328 474.335l.688-.307.278.535-.144.064.067.13-.313.138-.146-.28-.23.103zM379.917 475.492l.383-.18-.352-.639-.383.18zM378.258 473.427l-.308-.694.788-.299.312.704-.166.063.05.113-.405.154-.054-.123zM353.855 443.754l.392-.012-.017-.46-.391.013zM373.4 414.8l.09-.263.342.098-.088.263zM370.774 413.815l.106-.316.364.105-.107.316zM372.686 415.87l.324.167.399-.664-.325-.166zM365.83 437.193l-.25-.121.064-.125-.135-.076.366-.67.381.176zM362.146 451.05l.262-.066-.22-.737-.263.068zM359.925 451.478l.269-.124-.214-.394-.268.125zM361.17 448.948l.547-.202-.182-.421-.548.203zM359.921 450.14l-.245-.307.421-.287.246.307zM357.483 448.827l.203-.085-.117-.242-.204.084zM357.423 448.055l-.144-.191.273-.176.144.19zM358.376 449.05l-.31-.538-.123.06-.158-.274.525-.26.294.51-.1.05.175.303zM357.377 443.168l.267-.07-.052-.167.102-.026-.055-.18-.254.067.033.108-.113.03zM358.139 442.655l-.04-.231.298-.044.04.233zM356.996 441.68l-.122-.753.64-.089.054.329-.075.01.05.309-.29.04.018.115zM356.667 441.68l-.052-.293.277-.042.052.293zM361.092 445.724l.403-.044-.046-.356-.403.044zM360.623 446.439l-.04-.593.863-.049.039.593zM365.607 443.14l.16-.017-.028-.23-.162.021zM365.578 443.58l-.021-.281.21-.013.02.28zM365.184 443.057l-.084-.616.35-.041.085.616zM365.297 435.917l-.115.205.24.116.115-.205zM365.729 438.49l.11-.242.265.103-.059.13.268.104-.138.305-.32-.124.088-.192zM365.789 438.169l.195-.432.486.188-.196.432zM366.917 436.652l.384.196.208-.348-.384-.195zM367.68 437.275l-.06-.41 1.052-.134.058.39-.237.03.012.084-.487.062-.01-.063z" clip-path="url(#p093118e11c)" style="fill:#a9a9a9;fill-opacity:.8"/></g></g></g><defs><clipPath id="p093118e11c"><path d="M90 104.239h558V622.96H90z"/></clipPath></defs></svg>