<svg xmlns="http://www.w3.org/2000/svg" width="960" height="960" viewBox="0 0 720 720"><defs><style>*{stroke-linejoin:round;stroke-linecap:butt}</style></defs><g id="figure_1"><path id="patch_1" d="M0 720h720V0H0z" style="fill:#fff"/><g id="axes_1"><path id="patch_2" d="M90 609.534h558V117.666H90z" style="fill:#fff"/><g id="LineCollection_1"><path d="m527.228 283.548 5.385-2.197 2.263-.455.49-.257.423-.387 1.489-2.686 2.093-1.013 2.42-.486 2.868.095 5.102 1.97 1.226 1.083.261 1.345-.119 2.43.595 3.764.748 2.45 1.045 1.355 1.745.879 4.288.61 3.183-.124 2.482-.62M583.011 264.638l-.712 1.51.45 7.59-.735 1.696-14.756 14.463-2.043 1.406" clip-path="url(#p80da3a50b4)" style="fill:none;stroke:#000"/><path d="m598.602 403.475 2.95-8.928 4.01-4.626-.001-1.611.033-1.17.38-2.708-3.356-4.164-1.827-3.35-2.866-6.607-1.096-1.394-5.03-3.645-1.125-2.814-.196-1.297 1.18-1.761 1.349-1.517 3.457-6.166v-2.69l-1.07-2.655-.982-1.97-.366-4.184.338-1.443.056-1.493-.282-.816-1.039-1.606-.73-2.471-1.434-1.224-1.799-1.125-7.784-5.04-9.134-6.704-4.524-1.003-2.417-.783-1.293-.857-1.152-2.03-.169-2.52-.618-3.891.197-9.445.843-3.181 2.11-3.283M548.536 493.277l-.55 1.254-.548 1.553-.043 2.495.514 2.88 7.693 21.486M560.625 546.94l-1.876-10.634-1.967-9.025-1.18-4.336M377.67 487.29l30.811-1.54 12.422-1.957 7.307-1.663 4.271-.832 1.405.098 12.703 9.295 4.109 2.21 15.114 4.198 2.136.832 7.419 1.125 7.588.05 3.147.146 2.53-1.37 3.822-1.712 10.173-2.593 4.89-2.006 3.203-.831 2.586-.049 5.733-.098 2.53-.098 26.967 2.782M564.382 467.508l-1.6 2.793-.471 1.002-.218.435-.075.186-.465 1.42-.68 3.843-.334 1.838-.239 1.253-.465 1.348-.964 1.778-3.587 5.762-6.748 4.11M316.774 184.584l-.84-.1-1-.05-.998-.22-1.16-.27-.799-.289-.62-.57-.539-.769-.62-.86-.599-.679-1.04-.87-1.258-.988-.94-.69-.799-.52-1.059-.589-1.219-.55-1.12-.639-.878-.46-.74-.5-.58-.529-.28-.41-.36-.56-.398-.838-.44-.88-.38-.74-.56-.948-.479-.77-.54-.63-.5-.529-.699-.52-.879-.54-.9-.509-.839-.55-1.059-.749-1.678-.98-1.5-.848-1.338-.88-1.28-.77-.55-.272M304.106 151.23l-1.91 1.027-16.89 9.262M395.561 160.275l-5.897 2.939-1.125.342-1.681-.266-7.012-1.779-2.206.057-1.343.77-2.217 2.245-.907 1.37-2.784 2.234-2.327 1.247-2.566 1.15-4.095 2.996-3.09 1.646-1.814.609-1.157-.2-5.406-1.541-2.403-1.541-2.84-2.558-1.343-.657h-1.54l-6.76.705-1.594.95-2.097 2.806-1.06.809-2.358.656-5.908 1.56-1.791.656-.546.656-2.02 5.193-.9 1.255M313.117 242.64l-.14-.99-.02-.83.04-.829.12-.839.12-.71-.04-.789-.06-.45-.18-.44-.42-.809-.74-1.279-.619-1.079-.52-.94-.6-1.238-.679-1.45-.639-1.708-.5-1.299-.32-.849-.26-.72-.24-.829-.179-.75-.12-.679-.18-.78-.12-.589.04-.619.02-.72.12-.709.16-.65.14-.689.1-.82.06-.52.16-.948.12-.66.18-.529.22-.5.259-.45.34-.519.34-.43.34-.55.2-.489.2-.63.059-.599v-1.0899999999999999l-.04-.978-.02-.79.02-.46.12-.389.22-.53.38-.44.4-.42.718-.579.76-.52.5-.309.519-.19.98-.36.839-.38.72-.38.659-.339 1.538-.869 2.199-1.24 1.938-1.068 1.06-.56 1.298-.83.56-.339.38-.32.28-.36.18-.39.02-.549v-.52l-.16-.559-.12-.889-.2-1.06-.18-1.149-.28-.559-.28-.52-.38-.509-.6-.61-.958-.899-.74-.54-.999-.769-1.12-.83-1.278-1.019-.72-.46-.619-.33-.7-.249M320.291 265.342l-.16-1.54-.14-1.698-.34-2.008-.14-1.23-.26-1.618-.16-1.549-.2-1.169-.339-.63-.5-.6-.479-.669-.56-.689-.48-.73-.519-.949-.3-.699-.4-1.15-.339-.939-.34-.79-.62-1.248-.32-.86-.379-1.139-.2-.799" clip-path="url(#p80da3a50b4)" style="fill:none;stroke:#000"/><path d="m245.904 184.882 4.834 4.063.618.978.59 1.102.928.759 2.866 2.912 4.02 3.524 3.118 1.126 1.8.44 1.292.538 5.283 3.965 2.22 1.836 2.98 3.23 1.067.685.703.318 6.688 6.388 6.043 5.995 2.389 2.815.927.832 5.79 3.5 2.135 1.492 1.208 1.125 3.036 3.353 5.648 6.632 1.03.15M385.394 274.112l.365-.401.58-.68.735-1.07.422-.607.436-.494.486-.411.659-.358.7-.156.64-.02.77.133.742.235.684.364.858.406.6.327.83.279.525.043.816.044 1.107-.197 1.303-.259 1.867-.28 1.5-.288 2.323-.426 1.565-.367 2.096-.39.879-.106.667-.019.566.118.47.178.426.19.674.44 1.21.868.679.524.71.484.45.21.517.174.405.074.518.025.547-.061.874-.194 1.858-.6 1.097-.435 1.436-.537 1.058-.38.92-.32.703-.202.796-.217.782-.215 1.11-.312 1.543-.509 1.53-.59 1.603-.626 1.454-.511 1.433-.704 1.66-.815 1.082-.54 1.323-.571.88-.288.698-.23.768-.274.603-.232.668-.353 1.06-.62 1.31-.965M458.656 261.708l-.697-.214-.592-.1-.603-.024-4.912.472-.794.059-.682.006-.717-.085-.533-.11-.463-.153-1.013-.306-.338-.082-.322.002-.562.122-.61.058-.847.045M424.66 174.452l.374 1.051.093 1.601.571 1.615.186.981-1.298 1.627-1.158 2.449-.417 1.694.17 1.291.68.982 3.598 2.596 1.143 1.466.216 3.322.093 2.327-.201 5.447.231 4.371-.077 3.685-.818 1.614-6.518 5.326-1.266.914.046 1.305 1.715 2.273 1.142 2.273.772 1.492 1.715 1.238 2.425.35 1.621.524 1.823 1.708 1.56.86 3.413.243 1.73.672 1.08 1.009.804 1.789 1.05 3.348 1.73 2.179 2.224 2.569 1.174 2.877.417 4.008.74 5.158.086 1.21-.309 1.008-.648 1.426-1.375 2.44-.226.628M322.656 275.568l-.507-.514-.34-.61-.279-.739-.26-.71-.14-.889-.14-1.438-.12-1.649-.22-1.31-.14-1.308-.219-1.06" clip-path="url(#p80da3a50b4)" style="fill:none;stroke:#000"/><path d="m308.8 267.083 2.36-.636 1.91-1.028.76.024 1.573.392 1.209-.245 3.68-.248M341.395 296.118l.459-1.056.371-1.138.514-1.263.352-1.263.382-1.11.215-1.027.162-.725.082-.727-.018-.917.007-.797.032-.63.16-.745.302-.738.578-1.258.705-1.23.594-1.199.377-.946.376-.892.315-.687.234-.451.268-.3.383-.319.403-.251.577-.218.829-.12 1.027-.072 1.83.033 2.448.016 3.114-.008 2.187-.09 1.9-.074 1.807.027 1.293.009 2.235-.089 1.722-.054 1.287-.013 1.523-.075 1.093-.106 1.892-.126 1.765-.106 1.664-.075 1.203-.072 1.591-.124.967-.061.774-.093.694-.187.634-.233.69-.426M361.83 221.567l1.208 3.94-.14 1.64-.984 2.96-.337 1.665.618 2.398.253 1.737-.337 2.545-.028 1.86.365.856 1.77 2.007 7.251 10.278 1.18 1.028 1.687.978 1.602.759.815 1.101 1.068 1.469 1.011 3.841.647 1.909 2.051 3.01 1.855 4.16 2.009 2.404M340.113 295.054l-.857-.775-1.438-1.319-1.14-1.039-1.539-1.409-1.079-.93-.9-.828-.819-.9-.739-.94-.56-1.148-.419-.98-.44-.969-.659-.989-.56-.73-.42-.629-.44-.52-.579-.47-.66-.459-.998-.73-.72-.5-.56-.618-.54-.73-.459-.53-.932-1.344M338.163 270.53l-1.82.483-2.092.781-1.266 1.007-.788.718-1.057.418-1.107.118-1.415-.118-.603-.065-.357.065-2.669.792-2.333.839" clip-path="url(#p80da3a50b4)" style="fill:none;stroke:#000"/><path d="m340.113 295.054.622.564.66.5" clip-path="url(#p80da3a50b4)" style="fill:none;stroke:#000"/><path d="M345.131 307.133v-1.283l.06-2.198-.02-1.309v-.96l-.02-.609-.12-.65-.32-.609-.439-.63-.66-.699-.799-.68-.779-.759-.64-.63M345.092 307.599l-1.325-.073-.453-.047-.19-.143-.057-.188-.224-.244-.416-.165-.677-.392-.696-.515-.385-.253M345.131 307.133l1.858-.709 2.546-.593M345.131 307.133l-.04.466M344.998 312.26l.042-2.08.052-2.581M348.926 312.124l-3.928.135M344.998 312.26l.013 4.042M349.617 318.825l-.093-2.788-4.513.265M345.411 337.456l-.31-11.153-.09-10.001M355.804 337.33l1.245.045.685-.089.465-.141.223-.212.041-.141-.018-.247-.158-.39-.06-.229-.078-.55-.018-.287.103-.3.299-.11.63-.001 2.617-.028 2.645-.041 3.116-.05 2.442.016 1.805-.063M355.804 337.33l.089 4.376M355.804 337.33l-4.873.059M345.411 337.456l5.52-.067M345.411 337.456l.108 4.362M360.56 341.567l-4.667.14M355.893 341.706l.045 2.415M355.893 341.706l-4.85.053M345.52 341.818l5.522-.06M345.52 341.818l.026 4.715M355.931 346.199l.007-2.078M355.931 346.199l.304 12.452M355.931 346.199l-10.385.334M345.546 346.533l.094 4.326M308.928 368.469l-1.612-.818-2.031-.951-1.489-.8-.942-.584-.88-.803-1.02-.978-.881-1.02-1.292-1.463-1.33-1.544-1.007-1.437-.91-1.161-.904-1.057-.826-.944-.463-.54-.333-.646-.226-.762-.186-1.176-.182-1.344M236.54 329.616l.73.346.736.45.65.697.63.692.51.86.458.907.508.902.595.912.65.646.893.76 1.2.754 1.611 1.073 1.926 1.33 1.942 1.296 1.7 1.105 1.918 1.127 1.585.976 1.443.87 1.337.752.984.392 1.091.367 1.18.271 1.224.275 1.231.197.834.073 1.632.049 2.686.143 2.913.046 2.103-.094 1.365-.092 1.498.003 2.047-.036 1.994-.062 3.312-.143 1.689.035 1.397-.019 1.08-.105 1.05.053.835.1.82.363.703.411.605.607.3.67.28.866M311.778 347.925l-1.686.196-1.04.71-1.264 1.394-2.08 1.248-1.714.294-3.654-.416-2.67-.661-1.349-1.077-2.276.196-1.63.632M345.64 350.86l-3.17.007M345.64 350.86l.112 7.589M342.47 350.867l-.021 1.86-.04 1.25-.255.14-.383.09-.513-.009-.889-.106-.373-.111-.618-.223-.341-.2-.208-.18-.162-.306-.116-.376.014-.427.529-1.43 3.377.028" clip-path="url(#p80da3a50b4)" style="fill:none;stroke:#000"/><path d="m342.47 350.867-3.376-.029-.529 1.431-.014.427.116.376.162.307.208.178.34.201.619.223.373.11.889.107.513.008.383-.09.254-.139.04-1.25.023-1.86M341.454 355.72l-.314 2.388M341.14 358.108l4.612.34M340.615 362.594l.193-2.39.332-2.096M336.695 355.4l-.942 2.21 5.387.498M345.752 358.449l5.757.049M345.752 358.449l.033 6.872M356.235 358.65l.132 6.559M356.235 358.65l-4.726-.152M360.998 364.984l-.086-5.477-.08-.3-.18-.3-.222-.177-.32-.09-3.875.01M362.553 364.908l-1.555.076M360.998 364.984l-4.63.225M356.367 365.209l.1 5.002M356.367 365.209l-4.64.115M351.727 365.324l.109 4.978M351.727 365.324l-5.942-.003M308.928 368.469l.236.443.092.623M308.928 368.469l1.411.657M310.34 369.126l-.527.06-.407.166-.15.183M310.34 369.126l.566.317M339.2 370.437l-10.763.174-13.687-.224-1.49-.07-.588-.055-.734-.23-1.032-.59M310.389 370.679l.408-.364.145-.453-.036-.42M356.468 370.211l24.73-.271 5.899-.122 2.26-.064 4.2-.114 3.829.06 1.831-.07 1.03.02 1.788-.09M414.551 315.14l-.112.758.225 1.517-.028 2.03-.113 3.304-.505 3.327-1.322 2.007-2.81 5.212-.59 2.837-.477 3.94-.253 2.69-.956 2.13-1.32 2.128-1.013 1.076-2.08 1.737-1.01 1.787-1.575 1.908-.225.88-.505 2.814.253 1.175 1.348 2.202.45 1.125.102 7.836" clip-path="url(#p80da3a50b4)" style="fill:none;stroke:#000"/><path d="m441.699 378.752-2.501-3.254-2.951-3.376-1.714-1.81-1.237-.54-1.545-.292-9.471.146-4.047.465-3.71-.22-4.58-.049-7.56-.122-.348-.14M356.468 370.211l-4.632.091M356.468 370.211l.088 4.375M351.836 370.302l-6.012.082M351.836 370.302l.093 4.273M345.824 370.384l-.039-5.063M345.824 370.384l-.003.198M345.82 370.582l.071 5.901M345.82 370.582l-.881-.209-5.74.064M339.215 370.862l5.676-.07.93-.21M339.2 370.437l.015.425M309.82 370.667l.569.012M308.134 370.778l1.237-.03.45-.081M309.203 369.943l.103.447.514.277M279.34 411.35l.398-.655.394-.683.297-.513.493-.577.444-.384.642-.32.893-.343.898-.452.95-.367.854-.369 1.14-.35 1.052-.246.83-.335.965-.535 1.233-.873 1.1-.878.455-.466.254-.365.24-.354.129-.3.129-.411.082-.496.035-.522-.043-.839.006-.838-.09-1.09.004-.637.056-.717.056-.834.082-.696.083-.653.114-.752.184-.977.176-.627.157-.653.287-.804.385-.809.415-.846.379-.703.502-.765.295-.42.449-.633.662-.668.657-.639.954-.985.761-.764.664-.692.92-1.045 1.314-1.37.983-1.012.682-.61.455-.437.347-.346.255-.405.226-.522.214-.771.152-.739.071-.786.053-.902.005-.707.07-.566.102-.424.169-.324.32-.341.287-.18.542-.214.525-.036M309.203 369.943l-.45.488-.619.347M356.556 374.586l.081 4.046M356.556 374.586l-4.627-.01M351.929 374.575l.042 1.919M351.97 376.494l-6.079-.01M351.97 376.494l.008.332M345.891 376.483l.016.36M351.978 376.826l.04 1.83M351.978 376.826l-6.07.018M345.907 376.844l.054 2.436M356.637 378.632l.076 3.714M356.637 378.632l-4.619.024M352.018 378.656l.082 3.724M356.713 382.346l-4.613.034M378.503 382.728l-1.125-.534-.763-.149-1.127-.005-1.13.053-1.368.053-3.526.02-12.751.18M352.1 382.38h-6.07M352.1 382.38l.137 3.275M346.03 382.38l-.059-2.697M346.375 394.185l-.005-.133-.14-2.108-.16-3.817-.079-2.2.04-3.546M387.536 393.665l-.647-.293-.53-.313-.57-.39-.999-.86-1.084-1-.949-1.058-.617-.965-.576-1.023-1.075-1.956-1.346-2.237-.464-.412-.176-.43M394.457 382.226l-5.395.293-9.78.074-.779.135M402.184 393.939l-1.291-.262-1.056-.065-1.079.015-1.37-.004-1.013.058-1.302.056-1.571.08-3.248.04-1.214.019-.882-.064-.622-.147" clip-path="url(#p80da3a50b4)" style="fill:none;stroke:#000"/><path d="m371.273 403.46 5.311-1.516 2.108-1.37 1.574-.367 3.287-2.055 2.614-2.275.9-1.541.47-.671M530.991 399.688l-.48.548-1.146.376-5.792.856-1.283.23-1.525.629-7.847 3.251-3.219.787-2.859.282-1.2-.12-2.56-.266-3.112-.259-1.813-.173-1.76-.258-1.078-.148-.934-.17-.76-.023-.851.124-.664.187-1.24.462-1.313.578-1.517.792-1.219.573-1.166.517-.967.307-.782-.039-.836-.188-1.164-.426-.939-.434-.846-.5-1.019-.742-.82-.591-1.124-.703-2.62-1.418-1.505-.855-1.208-.66-1.275-.722-.7-.657-.78-.702-.932-.855-.778-.831-.83-.503-1.16-.543-.931-.386-.874-.233-.712-.04-.885-.02-.708.102-.952.21-.8.282-1.102.572-1.755.904-1.338.847-1.625 1.01-1.112.645-1.188.738-.845.651-.672.712-.674.776-.63.763-.991 1.266-.855 1.05-.78.81-.901.772-1.055.672-.799.354-1.111.415-1.347.22-2.147.422-1.083.149-.93.051-.927-.185-1.055-.294-1.533-.669-2.864-1.494-2.432-1.312-1.498-.782-3.747-2.098-2.822-1.712-1.564-.914-1.234-.654-1.058-.667-1.259-.826-2.067-1.107-1.64-.842-1.948-.842-1.851-.784-1.916-.766-2.06-.848-.907-.38M415.31 385.724l-1.77 1.003-1.715.538-1.292.318-.31.539-1.63 2.52-.899.978-2.135 1.199-2.024.318-1.35.802M275.722 420.694l.413-1.248.272-1.02.369-1.108.295-.897.467-1.29.296-1.024.272-.789.32-.619.395-.641.518-.707M251.047 393.7l1.827-.954 1.124-.025 1.152.954 1.49 1.272.899 1.077.73 1.467.703 1.517 1.77 2.275 4.975 5.138 1.77 2.984 2.361 2.765 1.265.709 1.264-.293 6.352-1.346.61.11M354.223 409.387l.601.692.96 1.3 1.079 1.229 1.338 1.318.88.88 1.199 1.318.62.78.539 1.109 1.312 2.809M352.586 448.62l1.199-1.52.86-1.119 1.098-1.339.78-1.049 3.696-4.752 1.46-1.633.38-.789.18-.63.26-1.04.059-1.628.1-1.499.04-1.808.2-1.869.18-1.658.06-1.51.14-.998v-.86l-.04-.649-.3-.84-.187-.608M371.273 403.46l-.394 2.104-.253 1.346-1.377 4.942-1.546 1.859-1.686 2.69-1.18 2.643-1.405 1.345-.68.433M230.69 484.586l8.84 4.095 3.54 2.3 3.204.733 5.34-.538 9.218-7.436 5.058-8.707 9.893-26.712-1.462-4.011.337-4.11 1.749-5.475-.108-1.204-.268-.959-.3-1.705-.415-1.49-.326-1.41-.188-.903-.26-.985-.114-.639-.09-.637.153-.68.403-1.292.448-.948.298-.746.082-.433M242.448 420.952l2.135-.05 3.823-.073.87-.513 1.996-1.101 1.096-.074.9.294 1.489.88.955.196.871.025 1.237-.587 1.49-1.517 1.123-1.1.956-.93.787-.734.871.049.871.587.169.831 1.405 1.836 1.068.39 1.799.148 1.686.44 1.714.367.9.49 1.545.146 1.518-.258M352.586 448.62l-.739-.322" clip-path="url(#p80da3a50b4)" style="fill:none;stroke:#000"/><path d="m377.67 487.29-.723-.6-1.2-1.3-.979-1.668-.779-1.099-1.279-1.549-2.398-2.808-2.638-2.667-2.518-2.559-1.339-1.439-1.959-2.168-2.058-2.358-1.879-2.058-1.278-1.26-.78-.649-1.958-2.158-1.32-1.569-1.318-1.359-.92-.99-.38-.619-.179-.44v-.619l.02-.69.22-.958.2-1.03.28-.869.439-.88.72-1.038.919-1.27M377.67 487.29l.136.2.64.749.56.889.619 1.02.5.898.56.92.679.959.499.82M408.01 595.172l-.098-1.773-.035-1.32-.035-.759-.056-.77.035-.642.098-.868.169-.697.215-1.031.36-.85.499-.629.64-.65 1.278-1.169 1.44-1.219 1.678-1.529 1.439-1.388 1.519-1.22 2.098-1.948 2.079-1.769 1.239-.989.719-.68 1.959-1.718.799-.77.959-1.059.66-.8 1.119-1.478.82-1.159.479-.62.88-1.138.319-.39.32-.24.639-.37 1.279-.73.959-.619.48-.37.64-.52.44-.598.519-.78.58-.91.36-.429.498-.34.7-.43 1.04-.529 1.278-.64 1.219-.519.86-.56.78-.559.758-.54.44-.46.32-.45.28-.579.02-.49-.04-.609-.04-.62-.14-.669-.18-.789-.16-.72-.3-.819-.42-.77-.42-.889-.559-.829-.58-.89-.419-.799-.48-.889-.499-.93-.54-.888-.36-.64-.579-.67-.62-.679-.819-.69-.74-.6-.958-.609-1.14-.739-2.358-1.289-1.419-.85-1.358-.829-1.8-1.019-1.018-.62-1.24-.749-1.099-.65-1.459-.908-.62-.33-.959-.59-.839-.52-.94-.63-1.518-1.318-1.159-1.08-1.339-1.188-.959-.87-1-.939-1.978-1.638-2.058-1.49-1.32-1.009-2.097-1.499-1.14-.909-1.758-1.409-2.358-1.828-3.498-2.648-3.457-2.608-2.198-1.73-1.479-1.078-1.34-1-1.438-1.028-.96-.79-.739-.6-.62-.559-.579-.59-.54-.739-.759-1.359-.68-1.179-1.218-2.108-.54-.82" clip-path="url(#p80da3a50b4)" style="fill:none;stroke:#000"/><path d="m320.293 503.116 6.183.783.843.636 2.248 2.739 1.912 1.37 1.63.049 1.573-1.223 1.518-.391 4.89-.147 5.002-.098 3.766 1.712 2.585.49 7.87-3.963 20.74-10.567.81-.762M560.625 546.94l-1.131-.24-1.32-.244-11.537-1.7-.956-.073-4.553.195-3.386.098-2.347-.183-2.051-.11-1.054.256-1.363.551-4.735 1.87-1.954.869-.632.183-1.25.062-1.125.416-.941.733-2.052 2.861-.604 1.028-2.024 5.698-.28.367-2.29 1.345-1.237.88-.914 1.003-.744.538-2.193.966-1.587.746-2.277 1.48-.717.391-.604.037-3.217-.404-6.24-.44-.632.073-1.081.282-.928.036-4.033-.709-.97-.061-2.163-.171-1.827-.098-.632.135-1.082.782-2.572 2.25-2.515 1.736-1.658.917-2.094.648-2.164.66-2.023.844-6.436 2.898-5.143 2.495-1.292.489-.703.245-1.672 1.027-2.614 1.785-.702.66-2.066 2.96-1.911 2.53-2.332 2.47-.366.575-.548 2.091-.28 1.736-.464 1.395-.97 1.088-1.42.904-2.29.893-1.812.367-1.588.024-1.166-.17-1.841-.539-3.078-.66-2.023-.245-1.953-.183-5.466-.978-1.968-.514-3.47-1.076-1.279-.232-2.073-.306M188.59 437.305l.394 1.497.097.738-.032 1.091-.076 2.063.08 1.457.461 2.12.587 2.295.85 3.132.623 1.307M203.531 461.23l-10.766-7.386-1.19-.839" clip-path="url(#p80da3a50b4)" style="fill:none;stroke:#000"/><path d="m218.082 450.11-1.124 1.517-.366.734-23.86.245-1.158.4M203.531 461.23l8.508 6.387M121.032 543.327l.595-.727.949-1.01.864-.938.652-.913.482-.764.425-.505.779-.604 1.289-.74 1.757-1.37 1.133-.85 1.389-.986 1.913-1.208 2.295-1.505 1.898-1.788 1.176-.973.977-.79 1.545-.727 2.451-.69 1.728-.58 1.162-.518 1.856-1.011 1.729-1.147 1.43-1.073 2.905-2.355 2.763-1.997 1.629-1.233 1.105-1.11 1.134-1.517 1.331-1.64 1.686-1.936 1.02-1.356 1.771-1.652 1.998-1.665 1.303-1.196 2.593-2.182 1.077-1.098 1.006-.95 1.459-1.035 1.219-1.233.651-1.505.567-1.393.865-1.652 1.232-1.875 1.19-1.504 1.204-1.332 1.672-1.738 1.148-1.381 1.346-1.961 1.275-1.924 3.57-6.018 4.35-6.215 3.541-5.216.808-.863.78-.851.878-.468.949-.63M117.476 548.272l.538-.222.368-.21.355-.419.51-.74.623-1.22.666-1.295.496-.839M117.796 545.747l2.6-2.116.636-.304M114.585 544.548l.54.74M115.124 545.289l5.974-4.764-.084-.318-.394-.134-.548.11-.857.306-1.278.868-.956.843-.337.477-2.059 1.871M115.124 545.289l.442.732M115.917 546.608l-.351-.587M117.064 548.173l-.481-.468-.666-1.097M111.36 556.214l-2.037.55-1.335.233-.422-.196-.267-.697.562-1.076.9-1.15.941-.623 2.066-1.125.632-.477.759-.99 1.686-2.434.73-.795.342-.826M117.064 548.173l.412.099M117.064 548.173l-2.444 3.37" clip-path="url(#p80da3a50b4)" style="fill:none;stroke:#000"/><path d="m152.43 553.063-1.347-3.588-.666-2.355-.254-1.53-.17-.64-.17-.469-.34-.432-.61-.357-.694-.259-.751-.123-.638.062-.68.16-.538.222-3.925 1.738-.906.333-.411.099-.666.086-.453-.025-.68-.16-.411-.21-.553-.419-.58-.764-.71-1.023-.637-.777-.312-.345-.481-.309-.722-.234h-.61l-.977.26-1.162.467-.992.568-1.53 1.06-1.445 1.048-1.573 1.32-1.544 1.368-1.275 1.406-1.049 1.43-.354.604-.41 1.48-.326.752-.595.11-.613-.207-2.154-.965-.63-.57.1-.837.34-.715-.04-.732.19-1.32" clip-path="url(#p80da3a50b4)" style="fill:none;stroke:#000"/><path d="m161.375 575.182-.044-.116-.557-1.512-.992-2.256-.694-1.998-.34-1.158-.212-.888-.185-.814.015-.666v-.789l.184-1.788.028-1.528-.042-1.012-.34-.702-.355-.543-.793-.949-1.332-1.11-1.133-.986-.794-.875-.75-1.123-.61-1.306M171.009 544.744l-1.91 2.054-2.193.978-6.688 2.348-7.789 2.939M121.646 326.833l-.56-.63-.713-.89-.588-.889-.608-.789-.684-.461-.8-.42-.8-.26-1.572-.32-1.234-.083-1.06-.025-1.196-.118-1.138-.218-1.234-.31-1.523-.353-.907-.202-1.263-.084-.877.034-1.041.059-1.09.201-2.027.31M126.929 328.554l-1.224-.37-.945-.209-1.138-.269-.829-.185-.492-.192-.655-.496" clip-path="url(#p80da3a50b4)" style="fill:none;stroke:#000"/><path d="m127.253 319.176-.956.71-.478 2.398-.843 1.223-2.557 1.689-.773 1.637M144.785 334.736l-1.046-.361-3.408-1-.97-.419-1.489-.747-.988-.554-1.181-.634-.747-.302-.94-.193-1.659-.369-1.59-.428-1.775-.562-2.063-.613" clip-path="url(#p80da3a50b4)" style="fill:none;stroke:#000"/><path d="m133.323 321.721-.787-.036-.646.281-4.961 6.588M191.768 335.004l-.54-.1-.582-.072-.637-.155-.387-.071-.439.025-.588.121-.366.164-.304.097-.39.03-.724-.064-2.579-.453-.877-.13-.728-.067-1.056-.021-4.112.092-1.359.147-1.846.193-2.372.357-1.494.294-1.635.276-1.398.143h-4.782l-4.652-.176-3.07-.189-2.353-.164-2.743-.205-3.273-.164-.945-.067-.752-.11" clip-path="url(#p80da3a50b4)" style="fill:none;stroke:#000"/><path d="m149.116 330.346-1.219 1.207-2.258 2.369-.854.814M197.392 377.443l-.318-.478-.897-1.242-.579-.764-.694-.932-.607-1.116-.53-.806-.473-.403-.974-.68-1.282-.839-1.803-1.234-.723-.646-.694-.772-.29-.688-.096-1.268-.173-3.307-.106-1.72-.058-1.108v-1.327l.067-2.148v-1.713l.02-1.259.125-.73.308-.78.54-1.268.347-.999.213-.805.048-.764-.058-.856-.154-.915-.241-1.007-.049-.554.145-.63.665-1.603 2.16-5.649.405-1.15.132-.28" clip-path="url(#p80da3a50b4)" style="fill:none;stroke:#000"/><path d="m226.766 329.699-.702.464-10.118 2.863-9.792-1.447-1.938-.331-1.88-.336-.916-.055-.58.026-.947.216-1.309.333-1.213.45-.805.345-1.418.736-2.073 1.151-.913.463-.324.278-.07.149M196.399 405.392l.472-2.15.222-1.082.01-.789-.203-1.049-.337-1.15-.714-2.383-.174-.688-.096-.479.193-.47.27-.42 1.562-1.72.868-1.141.52-1.024.212-.999.058-.999-.096-1.662-.078-1.007-.182-1.628-.126-1.024-.453-2.257-.27-1.327-.337-1.393-.193-.764-.135-.344" clip-path="url(#p80da3a50b4)" style="fill:none;stroke:#000"/><path d="m207.319 377.382-.984.636-1.096-.025-6.942-.513-.905-.037M188.304 414.356l.883-.958 2.227-2.14 3.442-3.013.29-.269.298-.402.395-.639.3-.73.26-.813" clip-path="url(#p80da3a50b4)" style="fill:none;stroke:#000"/><path d="m231.319 416.622-1.714.073-2.193.685-2.164.979-1.377.22-.562-1.052-1.236-1.468-1.125-1.027-1.742-.318-2.108-.416-1.292-1.42-1.995-3.081-.816-1.052-2.445-.71-2.922-1.419-2.136-.464-2.192-.514-2.698-.025-4.203-.221M184.682 429.593l-.45-1.441.019-.756.144-1.477.386-2.643.097-1.586.01-1.402.067-1.695.164-.797.462-.848.781-.865 1.942-1.727M120.93 411.24l3.203-.758 1.448-.147.52.049 2.992 1.015 1.94.245 1.742-.294 1.602-.257.773.196 1.967 1.1 2.192 1.493 2.051.88 3.288 1.053 2.136.611.59.465 1.097.171 1.32-.513 2.164-.343 1.04-.147.787-.416.871-.709 1.995-1.64 2.67-1.418 1.18-.514 3.457-.807 1.743-.343 2.023.196 2.164.147 1.714.318 1.195.27 2.122-.025 1.278-.025.717.123.618.244.45.526.295.954-.127.893.155.685.393.404.534.293 1.054-.024.886-.012 1.938-.857.872-.134 3.555-.012.77.18M188.59 437.305l-.252-.803-.462-1.116-.598-.999-1.022-1.653-.79-1.41-.521-1.141-.263-.59" clip-path="url(#p80da3a50b4)" style="fill:none;stroke:#000"/><path d="m238.316 421.906-.674.856-.618 2.593-.787 3.18-1.012.367-2.023-.122-1.377.049-1.321.734-1.63.22-8.01-.294h-2.276l-3.57-.342-2.5.024-.506.392-3.879-.05-13.601.099-9.85-.02M220.106 438.516l-.563.783-.224 1.736-.619.245-.815-.367-1.939-1.32-.506-1.028-.45-.856-2.135-.514-23.157-.171-1.107.28M134.77 175.415l-.542-.583-.473-.524-3.066-3.682-2.889-3.391-.788-.825-1.253-1.645M138.831 155.806l-2.276.735-3.625 1.468-2.333 1.077-1.461 1.517-1.574 2.007-1.803 2.155M161.185 189.933l-2.786-.576-1.016-.155-.74-.05-.778-.061-.857.086-1.46.154-2.139.343-2.11.31-.857.103-.71.017-.778.017-.493-.112-.69-.163-.65-.266-.553-.352-.877-.6-.66-.662-.917-1.219-2.248-3.588-2.543-4.13-.976-1.725-.473-.592-.306-.464-.345-.377-.453-.456" clip-path="url(#p80da3a50b4)" style="fill:none;stroke:#000"/><path d="m167.97 175.45-.193-.358v-.808l.478-1.297 1.04-.93-1.012-3.402-.253-.416-4.721-.146-1.714-.368-2.249-.611-1.264-.441-1.49-1.297-.618-.587-1.827-.025-1.602.661-1.405.44h-.59l-.73.465-.31 1.665-.759 1.37-2.332 3.133-.73.954-.984.955-1.321.685-4.722.685-1.798-.293-2.094-.069M161.185 189.933l1.324.274 1.43.343.62.232.503.283.404.421M163.8 212.749l.188-1.416.591-3.04.483-3.03.552-2.926.414-2.481.207-1.554.089-1.142-.089-1.082-.276-2.54-.217-1.408-.276-.644" clip-path="url(#p80da3a50b4)" style="fill:none;stroke:#000"/><path d="m167.97 175.45-1.622 1.914-2.08 5.042.729 4.312 1.745 3.324-1.276 1.444M158.574 229.561l1.352-2.148.92-1.603.446-.655.432-.874.488-1.19.701-1.526.326-.807.167-1.22.187-1.536.119-1.665v-1.63l.088-1.958" clip-path="url(#p80da3a50b4)" style="fill:none;stroke:#000"/><path d="m180.535 216.172-1.355-.731-.672-.421-.82-.677-.462-.146-.661.027-1.828 1.061-.262.164-.274-.027-.483-.603-1.27-1.143-.41-.193-.378-.064-.735-.11-1.701-.155-1.639-.046-.83-.018-.83-.201-.703-.22-.872-.137-.55.217M148.003 232.076l-.558-.14-.655-.03-.99-.085-1.122-.09-1.547-.177-1.283-.206-2.133-.152-2.126-.11-1.122-.054-.934-.085-1.206-.103-.955-.061h-.836l-1.296.012-1.004-.079-.816-.243-.801-.467-.447-.461-.564-.394-.85-.383-1.68-.746-2.036-.972-1.248-.734-1.512-1.056-.934-.522-1.046-.377-.857-.291-.927-.212-1.868-.322-1.757-.377-.864-.139" clip-path="url(#p80da3a50b4)" style="fill:none;stroke:#000"/><path d="m120.76 212.145-1.053 1.615-1.124 1.272-.633.27-1.827-.196-1.096.294-1.264 1.052-1.096 1.469-.638 5.1M155.924 235.479l-.1-.238.026-.182.159-.45.501-.95 1.46-2.967.604-1.13M149.847 224.528l3.513 2.692 3.387 2.068 1.827.273M155.924 235.479l-.832-.253-1.157-.43-1.366-.687-1.764-.843-1.38-.674-.83-.334-.592-.182M137.145 250.076l1.77-1.2 1.996-1.418.983-.955 1.574-2.986 3.71-9.666.45-1.346.375-.43M161.755 240.036l-2.15-1.845-1.764-1.245-1.548-1.158-.37-.309M169.512 246.697l-.946-.935-2.021-1.511-1.607-1.305-3.183-2.91" clip-path="url(#p80da3a50b4)" style="fill:none;stroke:#000"/><path d="m173.23 240.14-3.092.294-2.023-.293-2.22-.196-3.654-.171-.486.262M198.813 281.463l-.556-.673-.808-1.125-.395-.738-.315-1.115-.207-1.314-.02-1.098-.108-1.03-.247-.773-.335-.678-.394-.446-.473-.403-.582-.12-.62.042-1.578.232-1.262.103-.956-.077-.631-.24-.542-.438-.503-.695-.493-.567-.571-.644-.602-.652-.828-.713-.798-.978-.917-1.296-.897-1.417-.572-1.261-.848-1.545-.768-1.262-.71-.987-.927-1.081-.986-1.022-1.015-1.055-.72-.782-.6-.789-.898-1.485-.976-1.511-.769-1.004-1.203-1.185-1.813-2.043-.858-.9M184.274 246.724h-6.07l-4.216.416-1.91.097-1.04-.416-1.526-.124M226.766 329.699l-.45-1.175-.561-1.688.337-2.153 1.128-4.85 1.178-2.54-.616-4.164-7.817-8.657-.955-2.203-1.348-3.277-11.529-10.898-1.084-1.116-1.459-1.596-1.133-1.322-.996-.807-.947-.678-1.7-1.112" clip-path="url(#p80da3a50b4)" style="fill:none;stroke:#000"/><path d="m184.274 246.724 1.265-.05 1.152.147.927.416 1.124 1.028 1.237 1.42.927 1.345 2.361 1.028 1.068.587 1.714 1.836.984 1.028 2.53 1.37 1.404.636 1.49.049 3.035.612 3.906.293-.506 2.3.816.441 3.316.025 1.405.293 1.349 1.272.365 1.591.927.49.113.978-1.434 2.08-.758 1.42.084 1.027-.281.563-.983.245-.76-.05-1.489-.831-2.585.195-1.602.857-1.293 1.615-1.855 1.346-1.208.122-1.405.05-.563.513-1.067 2.129-.422 2.57-.749 1.753M534.4 168.916l-.509-.194-.412-1.087.425-3.43-1.557-3.934-3.295-2.758-2.536-.941-5.869-2.791-1.956-1.513-2.394-5.639-1.011-6.015M454.863 150.034l.748-.368 1.67-1.692 1.77-3.282 1.65-1.275 4.99-1.321 1.693-1.094 6.924-5.527 6.082-4.784 3.823-1.455 6.574-2.111 1.573.057 3.058 1.179 5.853 2.768 1.461.222 3.553-.53 4.587-1.891 1.085.243 1.775 1.72.044.394-.272 2.687.953 5.426.398 1.176.43.038M424.66 174.452l-.786.637-.982.095-1.999-1.208-4.423-3.443-1.813-1.046-3.625-.856-3.08-.247-2.802-1.699-2.283-2.663-.939-1.74-1.867-1.16-2.392-1.114-2.108.267M383.287 152.833l.042.526.197.759.758 1.027 1.012.857 3.429 2.154 1.77.44 3.429.93 1.637.749M449.15 150.347l-5.333-.69-1.562.4-6.061 3.47-.776 1.01-.83 3.946.339 2.435-.634 3.281-.386 1.1M426.06 171.836l1.856-1.76 3.81-2.88 2.18-1.897M433.802 169.414l-.084-1.125.337-2.35-.148-.64M426.06 171.836l-1.4 2.616M433.802 169.414l-.759.343-2.922 1.37-2.052.98-2.01-.27M567.32 209.6l.102.812-.22 2.813-1.119 3.62-.064 5.424-1.493 2.152-1.712 1.637-.4 1.602-1.904 2.993-.875 1.02-.052 1.109.781 2.497.637 3.543-.21.404M583.011 264.638l2.328-.786 9.743-1.416.328-.223.148-.158.493-1.306.69-5.852 2.232-8.273 1.948-6.123M599.907 210.895l.055 1.046-.065 7.836.24 10.899 1.747 3.918-.963 5.907M580.684 265.615l.955-.233 1.372-.744M507.342 294.845l.143-.143.067-.168.011-.212.498-4.732.123-.405.197-.368.226-.292 1.608-1.426 1.312-.95 2.186-1.265 2.815-1.396.621-.218.584-.16.674-.036.864.121 4.995.812 1.102.04 1.86-.5" clip-path="url(#p80da3a50b4)" style="fill:none;stroke:#000"/><path d="m559.086 271.194-3.26.28-4.37.11-4.257-.158-1.054.049-3.036.612-3.02.71-1.504.819-6.197 3.45-3.091 1.933-1.7 1.762-.45 1.321.081 1.466M309.256 369.535l-.053.408M310.389 370.679l1.53.032 2.798.096 7.356.227 6.416.007 10.726-.179M339.72 379.246l-.4-1.81-.105-6.574M458.656 261.708l.355.18.412.303.329.359.313.422 1.192 2.125.915 2.304.684 2.286.061.583-.056.508-.145.627-1.1 3.303-.076.633v1.003l.097 2.294-.16 2.021.036.332.105.23.16.189.312.187 1.867.645 1.949.9 3.77 2.342 4.009 2.177.656.392.632.477.478.404 1.32 1.064.784.546.685.36.991.422.962.342.963.239.859.18.933.132.934.098.85.037.781-.08 3.124-.398.64-.018.569.09.486.21 2.664 1.745 1.275.5.95.33.864.162.774-.003.705-.203.672-.31.492-.166 3.234-.728.517-.043.57.019.45.036.428.086.317.11 1.69.896.747.34.235.03.213-.024.213-.09M530.991 399.688l.24-.565-.018-.822-.205-.975-.445-.925-2.106-3.046-1.608-1.455-1.37-2.242-.633-1.797-.599-2.345-.188-1.472.051-1.284.462-1.934.565-1.557.685-1.267.941-1.283 1.9-2.448.154-.787.034-1.438-.445-3.508-1.06-2.927-.651-1.044-1.061-.925-5.434-3.554-5.338-3.098-1.78-.655-.652-.24-1.537-.049-1.912.06-1.695-.157-1.367-.23-1.126-.423-3.643-1.925-1.924-1.21-.69-.714-.484-.762-.581-1.38-.883-3.389-.242-1.597.29-1.477.823-1.73 2.675-4.091 3.073-5.93 1.453-1.949 1.476-2.045 1.005-2.057 1.162-3.873.303-1.283-.025-1.332.189-.92 1.265-3.08 1.381-1.804.755-1.738.945-3.413.18-3.81.575-4.858-.358-1.892-1.432-1.202-2.685-.358-1.29-.281-.764-.35M351.48 354.908l.029 3.59M533.568 415.619l-.112-4.941-.056-4.33.73-2.838.9-1.468.056-1.395-.225-.318-2.023-.22-1.152.147-.695-.568M564.382 467.508l.417-1.181.095-.609-.011-.656-.186-.67-.315-.726-.692-.692-1.361-.907-9.738-5.753-6.27-4.353-2.156-1.554-.477-.609-.322-.87-.024-.824.215-.86.477-.787.764-.812 1.528-1.17 2.696-1.646 2.34-1.432 1.992-1.385.776-1.229.453-1.36.419-1.074.488-.54.896-1.764.19-1.026-.095-.99-.525-3.342-.525-7.089.116-8.722 18.483-7.391 24.572-2.01" clip-path="url(#p80da3a50b4)" style="fill:none;stroke:#000"/><path d="m605.593 402.88-.628-.084-.806.029-1.096.224-.596.183-2.434.532-.628.029-.597-.155-.206-.163M350.212 394.084l-3.837.101M352.237 385.655l-2.34.087.315 8.342M352.237 385.655l.415 8.476-2.44-.047M346.91 398.809l3.565-.217-.263-4.508" clip-path="url(#p80da3a50b4)" style="fill:none;stroke:#000"/><path d="m346.375 394.185.036 1.016.04 1.389.04.55.04.37.22.819.16.48M354.223 409.387l-1.118-1.286-1.678-2.148-.88-1.1-1.059-1.419-.74-1.189-.699-1.089-.74-1.269-.279-.72-.12-.358M351.042 341.759l-.111-4.37M236.54 329.616l-.01-.005-1.063-.102-1.293-.001-1.742.02-2.09.02-2.054.044-1.522.107M178.276 151.145l1 16.723M187.648 143.056l1.124 5.727-.73 2.398-9.766-.036M155.159 149.761l1.855-.906 1.827-.856 1.096-.588 4.468.074.506.808 1.068.905 2.81 1.811 1.152.245 7.166-.147 1.169.038" clip-path="url(#p80da3a50b4)" style="fill:none;stroke:#000"/><path d="m245.904 184.882-1.012-.808-.955-1.395-.956-.465-1.601-1.003-1.321-1.102-5.874-5.457-4.44-4.65-3.316-3.427-3.063-2.202-3.738-1.298-1.18-1.493-.619-.832-3.316-1.2-1.377-.904-.9-1.2-.309-1.42 1.378-4.013-.17-1.004-1.489-1.91-2.81-2.03-1.855-.783-1.545-.05-1.687.49-4.636.122-1.63-.269-9.835-3.523M180.115 175.85l-.366-4.992-.337-1.909-.136-1.08M167.97 175.45l1.692-1.996 9.614-5.586M620.38 509.28l-5.565-2.789-7.756-6.36-10.062-4.5-5.17-3.473-3.71-4.696-4.272-5.234-3.316-6.752-2.473-2.054-4.89-2.202-8.784-3.712M339.822 379.705l-.102-.46M339.822 379.705l2.542-.009M340.247 391.058l-.338-9.052-.087-2.3M345.971 379.683l-.01-.403M345.971 379.683l-3.607.013M451.52 150.531l-1.317-3.182M454.863 150.034l-1.087.536-2.256-.039M449.15 150.347l1.284.166 1.086.018" clip-path="url(#p80da3a50b4)" style="fill:none;stroke:#000"/><path d="m454.036 172.155.14-.71.423-1.443.421-1.224 1.237-1.175 2.866-1.64 1.461-1.492.282-.808-.169-.637-1.546-1.174-2.417-1.15-.927-.882-2.136-2.08-.506-1.126-.393-2.643-1.252-3.44M471.604 247.999l4.817.152 7.664.915 1.402 1.907-.657 3.203-4.117 4.271-3.022 1.83-1.795-1.334-4.336-.916-2.409 1.03-.875 2.174-9.62.477M344.384 434.02l1.957 6.15M346.34 440.17l2.827 4.448M346.34 440.17l2.525-.839M349.167 444.618l3.225 3.123M349.167 444.618l2.475-1.565M352.392 447.74l-.545.558M352.392 447.74l3.61-4.295M339.094 464.958l1.884-1.174 2.697-1.027.591-.705 4.58-10.375 1.208-1.542 1.793-1.837M454.036 172.155l.225 1.224 1.04 1.469 1.012.489 4.75 1.273 4.102.636 5.228-.612 2.838-.416 5.059.955 1.742.293.871.636 1.279 1.212 2.136.808.885.207 1.517-.256.282-.416.014-1.09-.338-.856-1.068-1.59-.787-.723-2.177-.93-.464-.367-.323-.575.14-.979 1.054-.942.815-.282 1.419.233.998-.245.829-1.273-.07-2.055-.099-1.322.745-2.288v-.527l-.45-.416-5.578-1.04" clip-path="url(#p80da3a50b4)" style="fill:none;stroke:#000"/><path d="m433.802 169.414.956-.122 1.096.073 1.04-.147 2.388-1.052 3.007-1.2 2.586-.317 1.293-.171 3.344 1.492 1.546.881 1.349 1.101 1.63 2.203M238.316 421.906l-1.517.465-3.682.978-1.46-.171M242.448 420.952l-1.18.195-1.21.172-1.742.587M212.04 467.617l4.412-3.417 5.733-.758.984-.734.393-2.103M220.792 475.315l-2.003-2.63-6.75-5.068M230.69 484.586l-5.718-3.78-4.18-5.49M228.115 472.517l-1.827 1.199-4.609 1.394-.887.205M231.74 480.466l-.534 1.958-.516 2.162M308.8 267.083l.055.538M298.26 260.476l.478 2.96v.882l.703 1.1 1.826.319 3.514.807 4.018.539M180.115 175.85l3.147-.562 7.813-.661 7.335.05.534.489 4.243 4.943.422 1.102 2.248 2.031 2.642 2.472 1.04 1.42.45 2.129.224.978M111.36 556.214l1.757-.562 2.29-1.162M111.36 556.214l-.295-.905 1.096-.379.365-.196v-.379l-.294-.55M111.36 556.214l.534 1.81M111.894 558.024l2.754-1.04M111.894 558.024l-3.85.905M111.894 558.024l.562 1.663M112.456 559.687l-3.948.892M112.456 559.687l.394 1.602M118.246 546.334l-.45-.587M120.578 542.274l-3.33 2.714M117.248 544.988l.548.759M117.248 544.988l-1.682 1.033M364.092 144.707l1.77.575 1.28.061 2.753-.587 1.378-.563 1.56-1.297.814-.441.619-.233.786.404.324.624 1.011 1.445 1.771 2.055 1.292 1.493 1.518 1.212 1.096.575.492.392.73 2.41M449.15 150.347l.08-.978.479-.832.494-1.188M468.144 152.918l-1.124-.245-3.316.074-1.658-.318-5.227-1.493-1.658-.318-.298-.584M180.312 185.983v1.37l-.366 1.616-.646.538-1.265.734-1.658.661M242.448 420.952l-.225-.343-1.012-.562-1.686-1.101-1.658-.783-1.49-.171-2.136-.807M150.269 159.453l-.674-.783-1.434-.122-3.175-.025-1.209-.44-1.377-1.42-.815-.686-2.754-.17M155.159 149.761l-.169 1.052-.393.955-.843.367-1.687.147-2.64.22-4.16.245h-1.406l-1.349.563-1.938 1.468-1.743 1.028M156.058 142.859l-.9 6.902M156.058 142.859l.225-1.64M156.283 141.22l.338-.27.365.073.056.49-.984 1.346M155.693 138.282l.478 1.444.112 1.493M184.274 246.724l.843-.882.337-1.32.422-4.16.281-3.33M310.822 270.508l-.604-.917-1.363-1.97" clip-path="url(#p80da3a50b4)" style="fill:none;stroke:#000"/><path d="m265.937 298.818-.179-1.207-.43-1.591-.273-1.83-6.05-5.531-.779-1.003-.403-1.029-.216-.916.13-1.756.216-1.054.518-1.292.101-1.768-.417-2.559.158-.577.331-.276.879-.088h1.052l1.051.1 1.513-.012.706-.527.778-.577.101-.427-.498-.153-.947-.236-.824-.364-.234-.824.21-.975.529-1.767.418-3.985.307-.867.148-.236.516-.118.886.472.541.92.972 1.19.935.696 1.636-.3 3.321.878 2.251.332.554.086.873-.096 1.685-.075 2.411.203 1.587-.053 2.89-.14.923-.3 1.39-1.21 1.087-.528 1.24-.156 3.44-.103 1.63-.127 2.19.087.528.1.881.353 2.404.26 2.458.447 1.186.226.644.087.788-.087 2.322-.614.853-.3M314.602 270.435l-3.78.073M310.822 270.508l.577.857M310.822 270.508l-3.821.11M315.656 271.316l-4.257.049M311.399 271.365l-3.949.183M298.26 260.476l-4.13.024-6.942.025-6.436-.049-.984.269-4.327 1.762-2.052.49-.871-.221-.956-.905-1.46-1.934-.507-1.394-.253-3.964.45-1.983 1.236-1.199.113-.587-.815-2.545.365-1.933-.14-1.395-1.068-.758-1.096-.906-.562-.93-1.77-1.42-1.294-1.076-2.163-1.81-4.02-1.298-5.114-1.175-3.569-.342-3.682-.563-.562-.538M298.26 260.476l-.477-1.444-2.024-4.453.113-1.86M245.904 184.882l.014-.87-.098-.611-.576-.967-.295-.856.028-1.09.084-1.04.506-2.03.31-1.102.027-.55-.239-1.322-.702-1.395-2.066-.955L241 170.87l-1.672-2.215-1.124-1.126M180.312 185.983l2.247 1.469 1.518 1.419 1.799 1.762 1.011.147 1.378-.734 3.4-.27 4.328-.317.787.195.506.71.337 1.688M180.312 185.983l-.338-1.59.197-2.228-.056-6.314M371.273 403.46l-1.518.417-1.63.697-2.263.38-.899.072-1.826 2.324-.436 1.003-.197.71-3.316 1.027-1.686.172-3.279-.875M580.684 265.615l-.633-1.395-.955-2.52-.619-.857-1.264-.612-1.911-.734-2.614-1.444-.815-.979-1.433-2.055-.59-1.248-.562-1.175-.731-.807-1.293-.808-.787-.342M559.086 271.194l-2.81-.563-1.94-.71-2.613-.22M580.684 265.615l-3.4 2.263-.324.66-1.026.441-2.501 1.028-1.602.025-1.096.158-1.855.906-3.414.685-2.445-.122-3.935-.465M587.185 173.482l.72 3.404.022 3.576 1.224 3.842 4.74 7.342 1.484 4.166 1.18 1.655 2.14 4.545.983 3.748.23 5.135M567.32 209.6l.45.146.45.98.87 1.345.732.539 1.602.122 2.838-.049 2.417.074 6.885-.123 3.063-.783 5.537-1.052 2.726-.123 5.017.22M548.93 220.703l-1.858-.066-4.173-2.912-2.023-.93-1.715-.587-2.754-2.62-3.541-2.398M548.93 220.703l-4.064 1.353" clip-path="url(#p80da3a50b4)" style="fill:none;stroke:#000"/><path d="m567.32 209.6-.646-.123-1.236.808-4.525 3.793-1.799 1.297-2.585 2.472-1.377.783-6.223 2.073M534.4 168.916l.43.165 2.703.246 1.944.673 3.925 1.973 1.828 2.208 2.548 5.604 3.089 7.543 1.3 2.938.164 2.14-.018 2.21.482.912 1.62.88 5.67 2.148 2.896 1.802 2.973 4.237 1.082 2.466.285 2.539" clip-path="url(#p80da3a50b4)" style="fill:none;stroke:#000"/><path d="m492.145 198.49 2.585-1.714 1.63-.343 1.94-.269 2.05-.759 3.289-2.08 2.613-1.052 1.743-.857 2.023-1.175 1.911-1.199 1.293-2.251.899-1.175.984-.587 4.272-.955 2.782-.587 2.36-.123 2.98-1.272 2.332-2.276.983-2.227 1.855-2.545-.787-1.102-.758-.563-.029-1.101.422-1.077 1.63-1.126 1.253-1.159M587.185 173.482l1.718-1.082 1.153-.196 2.136.196 3.71.93h3.147l2.051.27 1.518.073 1.996-.343 1.123-.636 4.019-1.616 7.138-7.342 1.321-1.42 2.052-3.132 1.433-1.224 1.798-1.028 3.654-.391.984-.955 1.827-.881 2.67-.955 2.473-1.125.533-1.2.45-4.283 1.18-3.157-.028-.784-3.372-5.041M355.938 344.12l14.14-.207 1.35-.037M342.364 379.696l-.012-.436M342.352 379.26l-2.632-.014M342.352 379.26l3.609.02M193.098 543.912l1.686-3.13 2.698-1.81 1.462-1.027.28-.783-1.685-2.005-.956-2.74-1.517-1.859-1.799-1.222-3.541-5.332M171.009 544.744l-.955-1.125-1.686-.88-1.912-.783-2.585-1.419-1.63-1.663-.337-1.76-1.012-2.496M193.098 543.912l-2.81.734-2.754 1.272-1.743 1.32-1.236-.048-2.867-.783-2.36-.098-2.867-.098-2.585-.538-2.867-.929M324.762 476.333l-5.368-7.779-1.04-.39-2.107-.906" clip-path="url(#p80da3a50b4)" style="fill:none;stroke:#000"/><path d="m339.094 464.958-.927 1.052-1.518 1.884-1.18 2.054-1.49 1.958-1.04.513-1.713.514-4.75 2.275-1.714 1.125M320.293 503.116l-.112-1.174 2.417-14.749 1.658-9.857.506-1.003M339.094 464.958l-5.733-3.448M161.375 575.182l-.63.035-2.605.175-1.44.19-1.795.294-1.003.333-1.795.69-1.404.564-2.206.547M159.646 193.261l.032-.65v-.383l.168-.44.22-.365.516-.723.603-.767M259.989 298.557l-1.282 2.213-2.058 2.323-3.183 1.92-1.27.9-.835.787-1.424 1.7-.666.413-1.65.46-.476.339-.562.79-2.075 3.198-2.724 3.998-1.124.366-1.187-.11-1.155-.228-.704-.1-.43.118-.21.55.304 4.918-.032 1.033-.157 5.185-.55.286M340.113 295.054l-5.301.626M334.812 295.68l-4.495.451M334.812 295.68l-4.106-3.863" clip-path="url(#p80da3a50b4)" style="fill:none;stroke:#000"/></g><g id="PatchCollection_1"><path d="m205.54 481.955-1.964-1.081-3.086-1.151-3.366-.454-2.765.628-1.202.872-.16 1.046.6.803.522 1.29-.16 1.779-.561 1.395-1.323 1.465-1.563.907-.561 1.08.4 1.187-.328.827-.255.838-.41.888-1.602 1.492-1.884 1.049.213-.457.694-.789.553-.715.269-.777-.17-.838.255-.69-.44.061-.41.703-.114.703-1.8.986-.311.481-.481.629-1.474 1.369-1.19 1.146-.538.851.028.9-.879 1.628-.212 1.147-.595 1.603-.85 1.146-.709.63-1.476 1.83-.44.494-1.062 1.004-.963.753-.807 1.77.006.696-.255 1.227-.616 1.368-.97 1.116-1.318.888-1.368.82-1.161.734-1.197.511-.482.475.255.407.262.154-.077.271-.475.814-.858.635-1.126.697-.113.4-.177.346-.475.166-1.105.142-.63.32-1.049.796-1.672 1.344-1.926 1.054-1.113.759-.892.443-.1.216.17.123-.233.167-.368.203-.546.1-1.587.45-.723-.02-1.31-.11-1.495-.216-.481.21-.759.19-.779.722-.41.635-.567.339-2.345.832-1.162.358-2.139.789-1.672.277-1.693.24-.432-.573-1.006.272-1.26.684-1.234.24-.276.247-1.226.302-1.508 1.018-1.566 1.3-1.416.894-.957.968-1.828 1.449-1.303 1.615-.475.728-.439.203-.262.203-.134.426-.022.364-.248.388-.87 2.318-.129.265-.184-.093-.198.24.028.253-.439.734-.142.592-.283.315-.319.24-.12.32-.241.876.12.314.036.364-.022.333-.382.357-.489.315-.326.382-.19 1.196-.34 1.146-.192.34-.482 1.411-.191 1.264-.057.943.213.438-.07.278-.164.246-.34.074-.227.296-.283.259-.135.622.27.278.481-.068.262.376.97.08.419.167.07.61-.53 1.745-.419.64-1.225 1.289-.765.666 1.686.863.666-.635.587-.277-.106-.401.29-.34.56-.424.284-.562.27-1.516.211-.9.156-1.01.177-.932.496-.814.411-1.121.659-1.03.637-.845.517-.974.17-.536.256-1.443-.411.222-.177.5-.1.826-.736.875-.553.358-.418 1.183-.779.062-.51.098-.871-.4.488-.863.751-1.517.156-.992.95-1.184-.1-.314-.085-.61.107-.488.24-.24.213-.549.651-.622.178-.506.29-.549.453-.493.539-.271.92-1.683.284-1.473.411-.635.758-.938.41-.776.397-.45.723-.71.496-.252.623-.234.532-.314.723-.55.828-.745 1.049-.808.495-.45.921-.487 1.403-.388 1.155-.167.857-.228.439.074-.305.352-.665.24-.815.598-.142.524.39.296.658-.173.935-.475.46-.326.787-.1 1.233-.325 1.084-.55 1.056-.283 1.175-.437 1.268-.592.433-.358-.517-.32-.185-.506.723-.592.984-.456 1.013-.198.284.038 1.509-.586 1.735-.98-1.02-.383-.014-.647.97-.56 2.125-.29 1.07-.247 1.013.123.262 1.837 1.438.29.95-.87.538-.745 1.07-.857 1.452-.814.829-.684 1.997-1.252 1.956-1.054 3.13-2.287 1.219-.783 1.29-.432.58-.394 2.508-1.338.701-.808.957-.85.928-.63 1.14-1.479.503-.962.128-.493.361.05.489-.519.467-.635.687-.666.248-.783.262-.635.468-.425.333-.764.326-.383.722-1.337-.269-.611.163-.573.404-.642.942-1.14 1.891-2.886.284-.597.588-.783.914-1.869.424-.524.362-.61.453-.5.907-.746 1.36-1.263.652-.444 1.098-.241.411-.21.623-.4.595-.623.39-.284.928-1.473-.007-.358-.46-.45-.277.562-.312.394-.333.641-.744.21.043-.518.361-.863.517-.728.61-.555.53-.327.32-.782.552-.857.454-.808.595-.37.644-.302.468.043.722-.48.95-.772 1.012-.72.858-.667.659-.351.85-.025 1.24.302.502.407.702.413.765.549.58.302zM153.317 339.151l1.113-.941.378-.01 1.366.33.01.512-.651.759-.452.283-.557.1-1.88-.045-.21-.156-.03-.283.314-.274zM207.382 334.252l.75-.75.406-.16 2.793.043.073.224-.036.407-1.12 1.296-.59.429-.59-.065-.887-.203-.676-.193-.184-.171-.123-.354zM346.816 306.236l2.058-.485-.399-1.207-.126-.896-.23-.275-.453-.091-.367.228v.366l-.252.485-.315.759-.19.375-.02.329z" clip-path="url(#p80da3a50b4)" style="fill:#00f;fill-opacity:.8"/></g><path id="PatchCollection_2" d="m437.424 386.834-1.808-.225-2.39 1.124-1.872-2.641 3.616-2.698 4.843-.225 1.355-2.473-2.389-.338-.645-2.304-2.97 1.18-1.227-2.641-2.84.787-.452-5.846-5.682-.168-.259 3.822 1.098 3.428-3.81 1.686.517.506 4.584-1.461.258.73-4.131 2.81-.904-.28.387 2.417 1.098.056.129-1.18 4.52-2.136.774 3.54-1.291 5.509.904 5.395-2.066-.45-3.422-4.383 2.582-3.148-6.714 2.98.129 4.551.904 3.485-1.873.056.452 2.417 5.682 3.372 1.937-5.9 1.678.336-.387 2.754 1.356 5.396 5.746 3.091 3.229.337 5.81-1.012 6.521-7.362 8.003-3.84 1.1-1.95 7.877-4.102 2.906-5.17 7.296.954.904 9.106h1.55l-.453-2.698 5.166-.281 2.84 3.372.13 2.642 4.196 2.641 4.455-.506-2.583-2.023.904-2.248 9.233 1.574 3.293-2.08-.452-1.686-1.679.056-.84-5.451-10.071-1.574-.388-5.958-.84.281-.193 4.497 1.098 2.248 2.518 1.967-6.004-.9-.324-5.676-1.484-1.855 1.291-2.979-5.1-.45-1.873-2.304-2.324-.393-.13-6.127 16.723-1.461.839-1.293-4.068-.056 1.42-1.799 6.522-1.18-14.398 2.08-.452-1.124 2.776-1.405-1.162-2.474 7.037-3.653 3.23-.956 2.452 1.687 7.619 1.461.322 4.721 2.648-.28 3.034-3.092-4.067-3.935 2.185-1.721-16.454-6.653-.323 1.742 2.518 2.248-3.745-.9.065 1.968-2.518-.506.194-2.08-3.228.113-4.455 2.304-1.873 1.574-21.177-.225 1.679-1.405-4.907-.506 5.682-2.416 7.425.562 4.52-2.417 1.29-4.834-5.1 1.011-7.36 3.373 3.292-4.216-6.65 3.036-.258-1.35 1.614-1.63-3.422-1.573-.452-1.125 3.035 1.012 5.1-.562 3.358-1.742-.581-6.465-6.844 1.35.322 3.878-4.52.956-8.199 16.188-5.681-10.736.452-4.103 4.067-1.687-1.226-4.665-1.873-.281-.516-2.192 1.484-1.518-3.034.674-3.1 7.702-.451 7.082 4.52 10.004 2.26.394 4.325 7.87-.581 7.25 5.036-2.698 4.52 2.586 10.523-2.249-4.455 3.766 5.36 8.15-12.333-4.721 1.744 11.803-4.455 2.978-3.357 1.068-2.583-.056-4.778 2.36-4.455-1.798.388-2.136-5.295-1.292 2.712-2.586 2.647-3.822-2.001-1.742-2.26.9-.581.898z" clip-path="url(#p80da3a50b4)" style="fill:#006400;fill-opacity:.8"/><path id="PatchCollection_3" d="m352.311 378.303 4.056-.05-.056-3.413-4.056.05z" clip-path="url(#p80da3a50b4)" style="fill:green;fill-opacity:.8"/><g id="PatchCollection_4"><path d="m336.453 389.37-.956.721.029.514-1.448.147-.14-6.997.73-2.716.422.037.309.379.028.734.618-.049.24.807-.106 4.612.19.005zM363.263 369.81l-.155-4.612-4.201.073.126 4.587zM336.663 375.32l.05 14.14.527.026-.14-14.178z" clip-path="url(#p80da3a50b4)" style="fill:#90ee90;fill-opacity:.8"/></g><g id="PatchCollection_5"><path d="m343.894 377.015 1.086-.049-.025-.424-1.086.048zM344.926 376.11l-.099-.955-1.054.062.047.363.543-.009-.023.547zM345.235 372.305l-1.153-.086.043-.416-.324-.06.056-.466.577.062.07-.294.576.061-.014.44.323.074zM342.93 374.813l1.602-.037-.07-.917-1.532.122zM347.3 370.079l3.209-.04-.033-1.183-3.227.081zM346.611 370.054l-.013-.905h.604l.061.938zM354.181 373.94l-.013-1.533-.664.004.013 1.533zM295.52 353.137l.015-1.187-1.42-.013.005.547.81.04.005.596zM363.34 341.399v-.446h.45v.446zM351.885 358.228l.007-.68.616.006-.003.337h-.15l-.003.34zM344.581 391.877l-.548.012-.006-.241.548-.012zM307.464 374.3l-.337-.037.027-.191.338.037zM308.504 375.578l-.6-.04.062-.745.601.038zM311.35 375.67l-.397-.033.05-.459.396.032zM300.41 362.122l-.295-.306.26-.191.296.306zM324.832 370.516l-.028-.489.32-.014.029.49zM332.494 367.648l-.538.002-.004-.544.538-.003zM333.172 367.95l-.023-.277.321-.02.023.277zM331.071 368.587l-.015-.659 1.096-.018.015.658zM332.055 370.079l-.45.015-.027-.63.449-.015zM342.878 357.305l.038-.349.223.019-.04.348zM342.699 357.813l-.2-.022.043-.3.199.022zM339.734 353.565l.079-.098.037-.115-.011-.12-.058-.108-.096-.084-.124-.052-.137-.01-.132.03-.113.067-.08.098-.036.115.011.119.057.108.097.086.123.05.137.011.133-.03zM337.732 360.61l-.134-.116.15-.131.134.116zM340.134 361.449l-.681-.031.026-.45.682.031zM340.134 361.528l-.028.49-.572-.025.028-.49zM341.884 361.877l-.108.403-.667-.135.107-.403zM340.88 330.42l-.219-.11.087-.13.218.11zM342.734 294.544l-.051-.402.64-.062.05.402zM344.104 295.455v-.275h.246v.275zM343.43 295.504l-.05-.386.387-.037.05.386zM342.607 295.161l.668-.055.041.38-.667.056zM348.095 313.482l-.007-.233.272-.006.006.233zM348.638 316.957l.05.458.036-.004.015.145.285-.025-.015-.137.18-.014-.051-.465zM347.733 317.46l-.025-.226.22-.017.025.226zM347.529 332.132l-.003-.355.245-.002.003.355zM352.212 335.986l.035-.202.199.026-.035.202zM349.366 340.8l-.429.018-.02-.359.43-.018zM349.372 344.828l-.008-.35.568-.008.007.349zM354.347 345.474l.6-.012-.002-.059.361-.007.008.282-.085.002.004.163-.545.011-.003-.124-.177.004-.002-.043-.154.003zM357.832 346.188l-.003-.303.311-.002.004.303zM348.867 361.525l-.02-.293.232-.013.021.293zM344.873 368.029h-.622l-.002-1.528h.417v.223h.205zM346.422 365.7l.633.012-.009.33-.632-.012zM347.919 366.44l.014-.232.203.01-.013.23zM349.766 365.83l-.044.606-.294-.016.009-.126-.194-.01.028-.38.185.01.007-.1zM350.058 366.547l-.242-.008.01-.262.242.007z" clip-path="url(#p80da3a50b4)" style="fill:#a9a9a9;fill-opacity:.8"/><path d="m350.465 365.755-.03.597-.308-.012.006-.127-.168-.006.018-.356.164.006.005-.114zM350.63 364.409l.514-.012.015.501-.513.012zM355.458 361.957l-.717.018-.016-.462.717-.018zM355.064 363.167l-.794-.005.003-.284.794.006zM359.434 361.602l-.361.007-.014-.526.361-.007zM359.68 361.59l-.015-.427.717-.018.015.426zM343.072 380.426l-.008.351-.105-.002-.009.425-.539-.01.007-.278-.12-.002.008-.393.32.005.003-.104zM344.274 378.403l.878.024-.017.494-.88-.024zM346.513 379.78l.795.03-.026.504-.794-.031zM347.764 380.005l.014-.348.625.019-.014.348zM350.934 382.067l-.507-.01.003-.15-.169-.004.012-.489.455.008-.005.189.222.004zM354.416 379.774l.017-.579.232.006-.003.105.205.005-.013.473zM352.45 380.293h.675v.324h-.674zM354.643 384l.576-.007.004.292-.576.006zM354.53 383.755v-.538h.443v.538zM353.94 384.226l.007-.496.332.004-.007.495zM353.202 383.7v-.49h.534v.49zM353.223 384.287l-.008-.31.324-.006.008.31zM349.201 393.857l.009-.19.183.006.01-.243.432.014-.019.434zM348.846 390.342l.724-.013.013.598-.724.013zM351.425 389.963l.527.012-.012.387-.527-.012zM351.453 391.59l-.004-.115.228-.006.004.115zM351.305 391.489l-.576-.016.014-.4.577.016zM351.604 391.718l.397.003-.003.264-.397-.003zM350.778 392.097l-.017-.437.59-.018.017.437zM350.828 392.632l.005-.42.636.006-.005.42zM351.769 393.406v-.486h.323v.486zM350.863 393.472l.815.02-.014.426-.194-.005.002-.05-.621-.017zM351.716 398.305l-.765.003-.002-.385.765-.003zM352.52 398.292l.018-.449.424.013-.018.45zM348.642 400.586l1.202-.03.021.629-1.202.03zM357.404 371.703h-.432v-.972h.432zM358.593 371.42l-.01.502-.32-.005.004-.22-.18-.004.005-.28zM358.637 372.156l.014-.245.175.007-.014.245zM356.986 372.223l.748.015-.012.417-.748-.015zM358.454 372.504l.012-.304.309.009-.012.304zM351.92 340.623l.01.42.114-.003.005.182.11-.002.004.2-.137.003.002.1-.408.008-.011-.476h.07l-.01-.428zM352.106 339.909l.004.447-.526.003-.003-.35h.124l-.001-.098zM352.31 339.362h-.755v-.343h.755zM352.725 339.49l-.247-.018.02-.2.246.019zM353.09 338.72l-.427-.001.004-.635.426.002z" clip-path="url(#p80da3a50b4)" style="fill:#a9a9a9;fill-opacity:.8"/><path d="m353.09 338.582-.003.444.434.002.002-.263-.18-.001.002-.181z" clip-path="url(#p80da3a50b4)" style="fill:#a9a9a9;fill-opacity:.8"/><path d="m353.907 338.766-.45-.002.003-.446.45.002zM354.4 338.946l-.365.006-.003-.152.365-.006zM354.67 338.717l.2.003-.003.215-.2-.003zM354.692 338.387l.52.002-.003.295-.52-.003zM353.448 339.414l.004-.29h.147l-.003.292zM354.323 339.39v-.361H355v.36zM354.031 339.827l-.145-.149.232-.171.145.148zM354.442 339.897l-.004-.412.68-.006.006.412zM354.245 340.374l-.47-.021.017-.277.47.02zM354.316 340.384v-.148h.25v.148zM354.025 340.964l.509.013-.018.505-.377-.01.013-.368-.132-.003zM354.625 341.35l.01-.49.527.01-.01.489zM349.275 340.166l-.246.003-.003-.167.246-.003zM349.488 339.87l.27-.002v.055l.775-.005.003.376-.81.005v-.195l-.236.002zM349.278 339.659l-.238-.007.007-.23.24.007zM349.968 339.409l.514.007-.008.44-.365-.006v-.068l-.147-.002zM349.466 338.28l-.193-.001-.003.28-.337-.003.002-.229h-.11l.004-.378.641.006zM349.977 338.918l-.012-.462.737-.015.013.462zM348.952 340.243l-.33-.003.007-.578.33.003zM346.54 339.112l-.698.008-.01-.6.558-.007.005.27.14-.002zM346.496 339.142l.467-.003.003.298-.467.003zM346.531 338.659l-.023-.27.38-.025.023.27zM347.944 339.053l-.337-.433.52-.306.336.433zM346.72 340.836l-.74-.003.002-.352.741.003zM347.287 340.913l-.436.002-.004-.406.435-.003zM347.174 341.163l.014-.16.186.013-.013.16z" clip-path="url(#p80da3a50b4)" style="fill:#a9a9a9;fill-opacity:.8"/><path d="m346.984 341.151.014-.16.19.013-.014.16zM347.178 341.537l-1.188.027-.01-.323 1.188-.027zM350.04 341.503l-.591.014-.035-1.076.592-.015zM350.132 341.356l-.042-.82.429-.016.042.82zM347.143 342.527v-.364h.424v.364zM346.715 343.885l.484.007-.004.229.271.003-.004.26-.756-.01zM347.399 343.943l.009-.276.376.01-.01.275zM347.144 345.512l-.543.012-.006-.195-.697.015.006.195-.093.002.017.553.096.094.48-.011-.002-.048.76-.018zM348.095 345.029l-.48.015.003.054-.148.004.002.052-.307.01.025.627.222-.007.006.123.502-.016-.012-.282-.064.002-.005-.111.275-.008zM348.074 344.396l-.023-.262.597-.04.023.262zM348.214 344.818l-.4.018-.02-.327.4-.02zM348.292 345.178l.28.005-.003.077.281.006-.018.658-.385-.008.015-.533-.175-.004zM349.27 345.236l.417.005-.003.17.246.003-.003.321-.19-.002v.062l-.343-.003.004-.385h-.131zM349.197 344.83l-.007-.349.174-.002.008.349zM350.646 345.894h-.053l.001.051-.363.005-.002-.124-.124.002-.01-.442.541-.008zM350.646 345.894l-.01-.516.336-.005.01.516zM350.283 344.77l-.026-.27.245-.02.027.27zM351.97 345.114l.033.734-.502.017-.02-.443-.169.006-.013-.29zM351.888 344.73h-.237v-.169h-.094v.21h-.418l.002-.648.526.001v.258h.222zM352.768 345.02l.003.254-.208.001.005.547-.395.003-.007-.8zM353.387 345.119l-.004.663-.37-.002.005-.663zM352.739 343.809l-.056-.907.913-.043.056.907zM354.493 342.914l.672.028-.027.51-.17-.007-.017.343-.504-.02zM354.614 344.55l-.393.036-.026-.215.393-.037zM355.071 344.97v-.58h.26v.58zM351.186 348.124l-.387-.04.07-.508.387.04zM349.644 348.304l.007.31-.337.006-.008-.31zM349.806 347.889l.035-.197.264.037-.037.196zM349.015 347.032l-.015-.262.285-.013.014.263zM349.415 347.72l-.418-.055.054-.305.418.055zM348.562 347.347l-.008-.32.28-.004.008.32zM348.653 347.518l-.174-.001.002-.109.174.002zM348.542 347.972l-.79.016-.014-.497.4-.008.001.053.301-.006.003.085.089-.001zM347.818 348.313l.709.019-.022.622-.293-.007.005-.128-.416-.011zM347.694 348.72l.003.27-.387.003-.002-.27zM346.921 351.088l-.003-.625.794-.003.003.624zM346.897 352.853l-.002-.943.686-.001.002.943zM347.89 353.023l.014-.252.299.012-.014.252zM347.403 353.706l-.268.004.001.066-1.004.015-.013-.646.978-.014.004.188.294-.004zM346.511 354.12l-.002.19.155.002-.002.186-.134-.001v.053l-.374-.004.006-.43zM347.189 354.676l-1.087.004.004.76.594-.001v-.201h.21v.052h.281zM348.105 355.65l-.007-.333.265-.004.007.333z" clip-path="url(#p80da3a50b4)" style="fill:#a9a9a9;fill-opacity:.8"/><path d="M347.752 356.687h-.313l-.002-.43-.861.003-.002-.359h.065v-.161l-.532.001-.001-.3.641-.003v.2l.515-.002v-.093h-.07l-.001-.381.495-.002.002.432h-.07l.001.4h.13z" clip-path="url(#p80da3a50b4)" style="fill:#a9a9a9;fill-opacity:.8"/><path d="m347.038 356.259.002.585-.591.002-.002-.395h.08l-.002-.19zM348.766 357.134l-.004.7-.584-.002.004-.7zM347.978 356.637h.843v.199h-.59v.066h-.253zM349.746 357.404l.006.196-.263.006.01.336.785-.018-.016-.532z" clip-path="url(#p80da3a50b4)" style="fill:#a9a9a9;fill-opacity:.8"/><path d="m350.01 356.889.016.509-.457.01-.015-.509zM350.306 356.755l.524.01-.008.317-.161-.003-.003.106-.362-.007zM350.378 355.614h.603v.43h-.603zM350.24 354.994l.615.008-.007.408-.457-.006.001-.11-.157-.002zM352.65 356.774l-.027.522-.261-.01-.01.178-.483-.019.028-.546.456.017.009-.153zM352.848 357.005l-.009-.128.186-.01.009.129zM353.217 357.502l-.023.478-.549-.02.021-.444.155.006.01-.21.298.01-.008.177zM354.126 357.455l-.036.532-.57-.03.027-.382.29.015.01-.15zM353.965 357.137l.006-.248.226.005-.008.248zM354.846 357.74l-.425.011-.01-.258.425-.013zM354.888 358.146l-.005-.394.647-.006.005.394zM352.861 366.027l.341-.003.002.164-.34.004zM352.275 366.602l-.012-.341.688-.019.012.342zM352.289 367.207l-.017-.519.752-.018.016.52zM352.268 367.614l-.007-.349.622-.01.007.35zM352.94 367.843l-.556.007.003.24-.274.003.004.263.308-.003-.002-.083.305-.003v-.056l.12-.001-.002-.092h.1z" clip-path="url(#p80da3a50b4)" style="fill:#a9a9a9;fill-opacity:.8"/><path d="m353.025 368.228.003.544-.567.002-.003-.422.291-.001v-.121zM352.999 367.95l.008-.205.285.01-.009.205zM353.128 368.77l.004-.43.488.003-.003.43zM352.78 369.834l.008-.532.51.005-.007.532zM353.553 369.51l-.022-.372.534-.024.023.372zM354.86 367.164h.733v.41h-.931v-.145h-.216v-.268h.277v.085h.137zM354.846 366.8v.313h-.474v-.313zM354.92 366.333l-.24-.012.018-.278.24.011zM354.973 366.051l.618-.012.01.361-.619.013zM354.888 365.825l.218.012-.01.138-.218-.012zM354.86 365.996l-.4.003-.004-.336.4-.003zM355.833 365.966l-.558-.006.005-.372.559.006zM354.674 363.985l1.024.001v.226h-.125v.356h-.258v-.108h-.072v.13h-.45v-.23h-.12zM353.993 364.4l.003-.202.212.003-.003.202zM355.552 362.033l.018.523-.738.019-.017-.524zM354.369 361.07h-.513v-.649h.513zM354.857 361.054l-.007-.465.461-.005.007.465zM355.524 359.86l-.663.004.005.545.466-.003-.002-.174.198-.001zM355.113 359.681l.025-.688.442.012-.025.688zM354.432 359.72l.003-.717.62.002-.002.568-.444-.001v.15zM354.375 359.693l-.224-.003.003-.168.224.003zM354.37 358.924v.556h-.553v-.232h.207v-.324zM353.105 359.041l-.006.647.257.002.001-.108.27.002.007-.538zM352.98 359.292l-.457.002-.001-.334.457-.002zM347.357 361.085l-.33-.007-.016.566-.513-.011-.003.106-.276-.006.03-1.006 1.118.025zM347.912 361.657l-.028-.468-.626.085.04.367.414-.055.01.092z" clip-path="url(#p80da3a50b4)" style="fill:#a9a9a9;fill-opacity:.8"/><path d="m346.644 362.15.028.183 1.289-.147-.05-.53-.189.022-.01-.092-.415.055-.014.101-.492.077-.002.33z" clip-path="url(#p80da3a50b4)" style="fill:#a9a9a9;fill-opacity:.8"/><path d="m346.215 361.816.576.003-.002.33-.576-.002zM346.422 362.41l1.044-.016.008.425-1.043.015zM350.11 362.513h-.215v.105h-.217l-.001-.426h.335v.089h.098zM350.75 362.085l.042-.391.309.025-.042.391zM347.535 363.672l-1.062.003.001.39h.338v.181l.545-.001v-.149h.18zM347.304 363.115l.696.01-.01.498-.694-.01zM348.565 363.265l-.019-.317.464-.022.02.318zM347.824 366.054v-.15h.168v.15zM348.945 365.77l-.014.394-.038-.002-.006.143-.192-.006.004-.09-.219-.006.013-.325.123.004.003-.072.073.002.002-.048zM346.492 366.403l.004-.335.78.006-.003.335zM346.612 366.776l.625.012-.01.417-.626-.012zM347.377 367.953l-.663-.005.007-.676.664.006zM347.575 368.562l-.02-.3.625-.03.02.3zM344.49 376.263l-.014.213-.358-.018.014-.214zM345.24 381.98l-.534-.003.002-.357.535.003zM345.261 380.648l-.757-.019-.028.908.61.014.017-.544.147.003zM343.443 382.17l-.716.025-.01-.235.716-.025zM344.207 390.754l-.465.008.007.295-1.408.025-.057-2.44.753-.013.012.5.751-.014.023.98.368-.007zM338.223 388.917l-.583-.001.007-3.095.583.001zM338.24 382.756l.01 1.476 1.047-.006-.012-1.56h-.205v.085z" clip-path="url(#p80da3a50b4)" style="fill:#a9a9a9;fill-opacity:.8"/><path d="m339.08 382.751-1.327.007-.008-1.066.623-.003v-.112l.704-.004zM336.642 387.571l-.463-.012.007-.209.464.012zM336.663 375.32l-.005-.155.436-.012.005.155zM334.422 376.837v1.059h-.358v-1.059zM334.078 376.721v-.422h.33v.422zM334.064 375.938l.028-.293.249.018-.029.293zM334.422 372.177l-.105 1.119-1.062-.075.105-1.12zM334.886 373.871l.07-.697.378.029-.07.697zM335.493 371.813l-.027.576-.103-.004-.007.157-.227-.008.006-.12-.127-.004.028-.603.107.003.004-.086.164.006-.003.077zM327.804 372.427l.478-.018.018.365-.478.019zM327.468 371.698l.276-.002v-.087l.423-.003.005.704-.699.004zM326.784 377.04l.658.034-.028.423-.464-.023-.007.114-.316-.016.02-.297.12.007zM325.71 377.555l.312.04-.066.388-.18-.024.036-.216-.13-.018zM325.057 377.638l.035-.226.204.024-.035.227zM325.556 376.604l.389.01-.02.593-.388-.01zM325.19 376l.773.018-.018.595-.773-.018zM325.197 374.41l.415.018-.015.251-.414-.018zM325.479 375.26l-.837-.086.07-.51.835.086zM325.415 373.938l-.555-.08.086-.456.556.08zM315.755 374.528l.27.003-.001.151-.271-.003zM315.901 375.117l-.18.096-.1-.142.18-.096z" clip-path="url(#p80da3a50b4)" style="fill:#a9a9a9;fill-opacity:.8"/><path d="m316.095 374.645.312.44-.383.205-.312-.44zM316.5 374.183l.007-.318.297.005-.008.318zM315.91 373.871l.076-.856.54.037-.078.856zM314.739 373.302l-.47-.005-.008.659.284.002.002-.176.186.001z" clip-path="url(#p80da3a50b4)" style="fill:#a9a9a9;fill-opacity:.8"/><path d="m315.52 373.104-.007.591-.779-.007.008-.591zM314.237 372.238l-.218-.012.022-.287.217.012zM314.097 371.78l.035-.582.462.021-.035.581zM313.457 371.773l.014-.556.445.008-.014.556zM312.305 372.953l-.885-.507.263-.347.885.508zM310.914 373.186l.47.018-.028.565-.471-.019zM309.305 372.482l.028-.966.456.01-.028.967zM307.438 371.573l.56.012-.023.787-.12-.002.006-.251-.28-.006.003-.142-.157-.004zM306.93 372.104l.007-.444.378.005-.007.443zM306.948 372.513l.003-.247.207.002-.004.247zM309.164 374.883l-.439-.086.068-.263.44.086zM309.377 373.899v.916h.338l-.001-.77h.178v-.147zM309.492 373.235l.026.252.197-.016.037.342-.557.046-.04-.378.136-.011-.024-.217zM307.085 374.25l-.452-.042.063-.505.452.042zM305.339 373.982l-.701-.086-.07.443.227.027.021-.13.473.058zM303.91 373.657l-.485-.055.057-.384.485.055zM306.305 367.92l.347.16-.267.44-.347-.16zM305.771 368.305l-.343-.158.31-.508.342.158zM302.805 366.35l-.485.57.056.037-.079.093.587.379.198-.234-.247-.158.368-.432zM302.244 366.825l-.339-.266.38-.366.339.265zM302.06 367.572l-.171.162-.313-.25.171-.162z" clip-path="url(#p80da3a50b4)" style="fill:#a9a9a9;fill-opacity:.8"/><path d="m302.546 367.62-.195.185-.604-.483.195-.185zM302.02 366.3l-.583.586-.527-.397.181-.183.113.085.401-.404zM310.282 347.748l-.008-.638 1.469-.013.007.639zM311.736 348.971l.555-.024.017.297-.555.024zM304.387 353.944l-.056-.312.25-.034.055.312zM304.3 352.57l.108.378-.165.036.037.13-.342.073-.144-.507zM305.94 353.693l.015-.475 1.975.049-.016.475zM305.237 366.106l-.642-.294.39-.645.642.294zM310.099 366.853l-.439-.183.2-.364.44.183zM311.005 367.51l-.392.577-.383-.197-.197.289-.217-.112-.085.124-.382-.196.156-.23-.14-.07.147-.216.125.064.371-.545.33.17.127-.187.393.202-.127.186zM311.399 367.797l-.374-.16.107-.188.374.16zM311.87 368.531l-.91-.392-.365.644.703.302.203-.357.32.138.096-.17-.112-.048zM312.966 367.192l-.076-.57.667-.068.076.57zM312.684 367.754l-.085.625.056.006-.017.129.096.01-.149 1.09.444.046.07-.51.164.016.044-.323-.22-.023.043-.31-.068-.006.022-.16.157.017.028-.206.106.01.045-.335zM314.244 368.764l-.857-.03.03-.629.857.03zM315.94 368.373l-.818.021-.014-.412.819-.021zM316.603 368.062l.025 1.443-.456.006-.005-.298-.137.002-.004-.265.13-.002-.015-.88zM326.272 369.88l-.196-.492.395-.12.197.492zM328.474 370.261l-.849.002-.001-.435h-.148v-.272h.147v-.084h.34l.001.29.509-.002zM330.87 368.606h-.502v.422h.503zM330.895 370.076l-.031-.521.656-.03.032.52zM333.14 367.573l.032.377-.559.035-.03-.377zM333.203 368.268l.538-.009.006.291-.537.01zM333.093 369.327l-.323-.018.015-.204.323.019zM332.75 369.571l.02-.262.323.018-.02.263zM334.893 369.18l.035.758-.589.02-.035-.758zM335.11 369.113l-.312.01-.014-.35.313-.01zM334.296 367.779l.007-.391.474.006-.007.392zM342.974 368.76l.696.004v.06l.204.002v.107l.203.001-.003.448h-.122l-.001.175-.261-.002v.102h-.141v-.072h-.218v.05h-.144l.003-.464h-.219zM344.536 369.208l-.225.002-.003-.171.225-.003zM344.819 369.535l-.259-.003.004-.285.258.003z" clip-path="url(#p80da3a50b4)" style="fill:#a9a9a9;fill-opacity:.8"/><path d="m345.432 369.256-.01.799-.61-.007.01-.798zM344.866 368.498l.608.015-.013.374-.607-.016zM344.872 367.296h.505v.732h-.504zM343.12 367.605l.952.018-.01.38-.952-.018zM342.709 367.892h-.48v-.6h.48zM358.907 366.602l-.003-.27h.111l.004.269zM358.995 369.07l-.004-.248.123-.002.004.248zM342.523 364.103l.048-.212.408.07-.048.213zM344.859 364.562l-1.16-.214.15-.61 1.159.214zM344.174 363.495l-.748-.11.092-.475.749.11zM343.471 362.844l-.333-.022.021-.25.334.022zM344.381 362.556l.03-.565.977.04-.03.565zM344.722 361.029l.486-.013.021.59-.414.012.005.132-.501.013-.009-.249-.117.004-.01-.266.625-.017-.003-.095-.079.002zM345.226 360.385l-.039.37-.387-.032-.015.145-.656-.053.055-.514zM345.246 359.97l-.77-.043.008-.114-.494-.028-.033.448 1.265.07zM343.97 359.642l-.348-.02.032-.423.348.02zM345.084 359.299l-.833-.015-.007.297.208.004-.004.171.625.012zM344.853 359.25l-.514-.06.041-.27.513.058z" clip-path="url(#p80da3a50b4)" style="fill:#a9a9a9;fill-opacity:.8"/><path d="m345.35 359.306-.497-.057.04-.27.498.056zM344.318 359.21l-.359-.026.05-.52.358.026zM343.445 358.46l.551.053-.058.459-.195-.019.01-.081-.357-.034zM342.646 359.467l.073-.682.52.043-.073.682zM341.351 358.573l.925.09-.069.542-.807-.078.033-.256-.12-.011zM341.909 359.26l-.05.35-.523-.055.049-.35zM341.932 359.598l.617.103-.08.36-.347-.06.044-.2-.269-.046zM341.856 360.424l.03-.325.52.037-.03.325zM343.604 361.687l-.017-.129.118-.012-.02-.15.243-.026.038.279zM343.401 361.537l-.6-.11.106-.439.6.11zM341.827 362.868l-.509-.101.123-.468.509.1zM342.527 363.696l-.267-.06.071-.237.267.061zM339.264 358.886l-.205-.013.006-.075-.18-.011.025-.298.386.025z" clip-path="url(#p80da3a50b4)" style="fill:#a9a9a9;fill-opacity:.8"/><path d="m340.508 358.592-1.212-.078-.032.372.52.033.015-.187.14.008-.015.18.553.036zM339.312 358.437l.034-.324.96.077-.035.323zM339.288 359.293l.013-.328.41.012-.012.328zM339.888 359.544l.013-.173.45.024-.013.173zM339.54 360.11l-.344-.028.027-.253.344.027zM340.378 360.183l-.686-.065.037-.292.391.037-.013.102.295.028zM338.265 359.207l.018-.431.505.015-.017.431zM337.833 359.213l.025-.4.361.017-.024.4zM338.044 359.788l.006-.151.137.004-.005.15zM337.717 359.599l.31.008-.01.237-.309-.01zM337.447 358.308l.397.028-.055.6-.397-.027zM337.415 358.229l.018-.303.196.008-.017.303zM337.352 358.298l-.035.406-.1-.006-.021.253-.294-.02.057-.659zM336.513 359.46l-.155-.128.077-.07.155.129zM336.488 358.987l.38.021-.023.3-.38-.022zM336.67 358.806l-.01.123-.18-.012.012-.123zM336.3 357.994l.638.057-.065.565-.455-.04.017-.143-.184-.016zM335.731 357.98l.054.006.007-.055.452.038-.05.438-.383-.033.015-.129-.123-.01zM335.613 358.161l-.221-.005.007-.223.221.005zM343.163 356.226l.647.011-.01.437-.395-.007-.001.071-.253-.004zM344.01 356.878l-.026-.696.692-.019.006.181.523-.014.019.515zM345.137 357.327l-.612.024-.02-.377.612-.025zM344.424 357.45l.852.108-.057.346-.177-.022-.035.214-.355-.044.01-.06-.217-.027.015-.092-.104-.013zM341.73 357.308l.618.043-.043.46-.618-.043zM342.298 357.24l-.282-.027.05-.38.282.028zM344.392 355.803h.702v.33h-.702zM345.003 355.59l-.694.008v.052l-.32.004-.005-.261.134-.002-.004-.254.253-.003.001.096.629-.007zM344.41 355.079l-.017-.452.704-.018.016.45zM343.956 355.09l-.016-.45.453-.013.017.452zM343.838 354.842l-.594-.004.002-.29.18.002v.2l.413.003zM342.082 355.392l-.493-.03.06-.754.493.03z" clip-path="url(#p80da3a50b4)" style="fill:#a9a9a9;fill-opacity:.8"/><path d="m342.796 354.678-.06.754-.654-.04.06-.754zM341.603 354.855h-.303v-.226h.303zM336.243 356.774l.315.007-.003.077.832.019-.011.387-.857-.02.005-.174-.29-.006zM337.703 357.272l.055-.305.766.104-.055.304zM337.633 356.011l.427.028.022-.258-.427-.028zM337.133 355.763l.518.034-.046.536-.518-.034zM338.311 355.782l-.208-.066.133-.318.209.066zM340.345 353.406l.1-.053.069-.082.028-.098-.018-.1-.06-.087-.094-.06-.113-.025-.116.015-.1.053-.069.082-.028.098.018.1.06.088.094.06.113.024z" clip-path="url(#p80da3a50b4)" style="fill:#a9a9a9;fill-opacity:.8"/><path d="m342.066 351.745-.006 1.698-.302-.001v.115l-1.122-.003.001-.299.168.001v-.409l-.889-.002v-.106h-.246l.001-.254h-.209l.003-.746zM343.829 354.25l-.574-.014-.005-.222.581-.005z" clip-path="url(#p80da3a50b4)" style="fill:#a9a9a9;fill-opacity:.8"/><path d="m343.25 354.014.006.306-.707.011-.022-1.048.709-.011zM343.831 354.009l-.58.005-.015-.742.61-.027zM344.479 353.244l-.632.001-.02 1.2.639.004z" clip-path="url(#p80da3a50b4)" style="fill:#a9a9a9;fill-opacity:.8"/><path d="m345.02 353.227.02 1.253-.574-.03.013-1.206zM343.879 352.904l-1.128.021-.041-1.7 1.127-.021zM336.981 350.77l.937.292-.277.672-.128-.04-.101.245-.542-.17.099-.24-.12-.037.102-.246-.147-.046zM336.533 351.296l-.183-.068.246-.508.183.068zM344.989 351.58h-.766v-.471h.766zM344.068 350.244l.872.005-.002.276-.872-.006zM343.626 350.256l-1.349-.019.011-.63 1.35.018zM344.58 349.214l.46.01.004-.118.167.003-.013.482-.629-.012zM343.774 349.197l-.006-.176.267-.006.006.176zM344.367 348.445l.77.015-.013.507-.77-.015zM345.074 346.65l-.88-.006v.058h-.09l-.005.335-.205-.001-.002.191.606.005.002-.193.57.005z" clip-path="url(#p80da3a50b4)" style="fill:#a9a9a9;fill-opacity:.8"/><path d="m344.147 346.66-.23.008.013.276-.479.017-.002-.037-.163.006-.008-.157.198-.007-.007-.149.321-.011-.007-.147.354-.012zM344.455 345.569l.014.384-.222.007.004.09-.572.017-.019-.474zM343.03 344.718l.019.616-.426.01-.014-.447-.134.004-.01-.303.411-.01.004.134zM344.487 344.743l-.871.043.022.335-.106.005.012.189.103-.005.011.173.35-.018-.015-.222.525-.027zM344.216 343.582l-.198-.007.017-.367.199.007zM344.353 343.411l.003-.263.467.003-.003.263zM343.951 342.112l.773.02-.007.25-.073-.002-.017.533-.518-.013.018-.57-.183-.005zM343.33 341.919l-.897.016-.017-.715.898-.017zM343.666 341.746l.83-.016.006.262-.386.008-.004-.12-.443.008zM344.82 341.619l-.02-.245.192-.012.02.244zM344.743 341.222l-1.304.026.008.304 1.304-.025zM344.205 341.183l.005-.508.573.005-.005.42-.186-.002v.088zM342.801 339.332l-.39.004.01.881.39-.004zM343.272 339.328l-.47.004.002.247.471-.004zM343.767 339.329l.962-.028.022.576-.963.027zM343.682 339.286l-.474.018-.015-.297.474-.018zM344.778 338.628l.007.461-1.082.012-.006-.46zM341.827 337.515l.002-.186.38.004-.002.185zM342.345 337.512l.002-.2.278.001-.002.2zM344.188 336.402l.033.562-1.222.055-.033-.562zM344.64 336.005l-.925.017.005.195-.486.009-.01-.397.22-.005-.009-.387.863-.016.005.16.326-.006zM343.317 323.99l.049.41-.529.049-.048-.41zM343.78 323.287l-.414-.006.006-.276.414.007zM340.198 321.195l-.015-.397.383-.01.014.397zM343.77 321.092l.003-.222h.116l.002-.227.487.004-.006.45zM338.715 310.631l-.028-.74.548-.016.028.74zM335.371 308.778l.064-.273.358.065-.064.272zM339.182 306.704l-.196-.184.184-.15.197.184zM339.235 307.227l-.534-.43.24-.227.535.43zM341.782 306.35l.035-.103.13.034-.035.102zM341.269 306.57l.298.107-.123.261-.299-.107zM342.175 307.083l.562.05-.051.443-.67-.06.012-.112.108.01zM344.012 306.924l-.037.434-.787-.052.038-.433zM343.498 306.317l.537.034-.041.502-.398-.026.014-.158-.14-.01zM343.03 306.058l-.433-.038.031-.268.205.018-.008.075.227.02zM343.77 305.878l-.027.295-.66-.046.027-.294zM343.289 305.646l-.243-.027.074-.505.243.027zM343.612 305.686l.038-.492.361.021-.038.492zM344.177 303.725l-.245-.009.006-.117-.245-.009-.034.687.186.007.009-.184.304.012zM343.563 303.043l.074-.303.214.04-.074.303zM343.577 302.698l.077-.392.335.05-.077.391zM339.818 298.201l-.091-.308.407-.093.092.31zM339.66 296.24l.516.013-.01.303-.388-.01-.004.115-.333-.008.004-.14.207.006zM329.406 286.566l.067-.394.537.069-.066.395zM328.758 285.962l.559.105-.105.425-.26-.049-.043.173-.404-.076.041-.166.105.019zM328.068 286.64l.041-.435.174.014-.042.434zM326.928 287.082l.486.027-.01.133-.144-.008-.01.151-.343-.019zM325.871 287.6l-.017.441-.32-.01-.004.11-.179-.005.022-.55zM325.977 287.588l-.174-.037.063-.223.175.037zM326.659 287.692l-.397-.061.034-.167.397.061zM325.974 288.295l-.07-.226.607-.143.07.225zM328.774 288.126l-1.156.117-.087-.656 1.156-.116zM328.953 287.827l-.017-.381.815-.028.017.381zM330.284 288.457l-.036-.457 1.068-.064.036.457zM330.902 289.154l.692-.055.023.215-.692.055zM331.51 289.34l.583.135.045-.147.262.06-.141.462-.07-.016-.03.1-.076-.017-.043.142-.7-.163zM333.28 291.39l-.315-.388.432-.267.316.39zM324.171 290.763l.463-.012-.003-.07.282-.007.01.278-.133.004.013.38-.157.004-.013-.37-.37.01-.004-.107-.084.003zM330.407 283.14l-.057-.087.25-.123.057.089zM332.905 285.863l.759.297-.232.448-.758-.296zM333.068 285.18l.617.265-.158.278-.088-.038-.134.235-.38-.163.079-.14-.148-.063zM333.238 284.854l.583.238-.153.284-.583-.238zM334.3 285.484l.337.132-.12.233-.338-.131zM334.805 285.05l-.482-.158.207-.48.483.157zM334.686 289.475l-.326-.24.316-.325.326.241zM336.952 286.652l-.196-.037.07-.279.196.038zM337.196 286.021l.957.217-.111.37.232.053-.098.324-.219-.05-.045.152-.543-.124.17-.568-.426-.097zM338.255 287.91l-.735-.27.102-.209.734.27zM338.523 288.363l-.191-.086-.114.192-.552-.25.212-.357.743.335zM338.789 288.304l-.165-.236.17-.09.166.235zM338.722 289.292l-.348-.144.13-.237.348.144zM337.981 290.329l-.467-.321.293-.324.467.321zM337.882 291.485l-.233-.164.204-.22.233.164zM338.146 292.112l-.277-.193.239-.26.277.193zM339.035 292.378l-.199-.047.085-.27.198.048zM339.256 293.173l-.477-.103.187-.651.476.103zM346.63 284.401l-.282-.37.629-.363.281.37zM346.978 283.467l.159.247-.069.034.11.17.208-.101-.052-.08.215-.106-.217-.337zM347.754 283.165l.393-.091.086.278-.254.059-.03-.098-.14.032zM347.841 283.077l-.094-.297.286-.07.095.297zM348.358 282.514l-.281-.028.029-.226.281.027zM348.425 283.508l-.155-.544.404-.087.155.544zM347.737 284.388l.718-.533.326.333-.296.219.126.129-.423.313zM348.825 285.74l-.097-.389.62-.116.096.39zM343.953 290.298l-.223-.039.099-.425.222.04zM343.714 291.414l.102-.724.467.05-.102.724zM343.5 292.13l-.128-.344.509-.143.128.343zM343.208 292.485l.692-.104.069.348-.692.104zM344.051 292.699l-.035-.293.128-.012.036.293zM342.99 292.932l.654-.095.032.166.17-.025.065.34-.312.046-.02-.106-.513.075zM343.949 293.06l-.007-.297.283-.005.006.297zM342.868 293.476l.438-.047.021.148.167-.018.046.321-.4.043-.01-.069-.13.014-.023-.162-.076.008zM343.957 293.88l-.031-.158.112-.017-.03-.15.179-.027.062.309zM342.481 294.715l.618-.05.026.25-.618.05zM342.628 296.201l-.049-.606.482-.029.049.606zM343.197 297.284l-.372-.361.386-.302.373.36zM346.099 298.813l-.035-.495.516-.028.036.495zM347.26 301.317l-.32-.004v.094l-.135-.001.001-.086-.093-.001.005-.327.547.007zM347.241 301.593l.009-.228.299.01-.01.228zM382.224 308.202l-.186-.389-.117.043-.093-.195.114-.041-.151-.318.665-.241.431.9zM355.59 304.988l-.028-.475 1.156-.053.029.475zM351.59 305.472l-.224.026-.046-.297.224-.026zM350.757 305.579l-.063-.548.583-.05.063.547zM350.336 305.783l-.095-.218.383-.126.095.22zM352.162 306.016l-.109-.22.222-.083.11.22zM353.89 306.637l-.238-.734.402-.1.239.735zM352.513 305.894l-.14-.49.337-.073.14.49zM349.697 307.008l-.235-.002.001-.227-.33-.002.005-.588.565.003z" clip-path="url(#p80da3a50b4)" style="fill:#a9a9a9;fill-opacity:.8"/><path d="m350.222 307.01-.525-.002.002-.284.526.003zM350.24 307.114l.335-.003.002.168-.334.003zM350.87 306.873l-.022-.145.218-.025.021.145zM346.805 307.509v-.132h.19v.132zM345.467 307.995v-.483h.51v.483zM346.062 308.571l.011.529-.49.008-.004-.207.083-.002-.007-.321zM346.672 309.093l.284-.003.002.149-.284.003z" clip-path="url(#p80da3a50b4)" style="fill:#a9a9a9;fill-opacity:.8"/><path d="m346.672 309.093-.007-.59.347-.003.007.59zM345.815 309.167l.525-.007.004.275.157-.002.004.24-.334.004-.003-.152-.347.004zM345.41 310.778l-.008-.422.815-.012.009.422zM345.446 311.873l-.009-.435.473-.007-.001-.08.341-.006.01.516zM346.805 310.387l-.003-.138.195-.004.004.138zM346.552 311.622l.002-.304.566.003-.002.304zM348.699 311.109l-.007-.218.395-.01.007.218zM348.344 311.66l.004-.45.484.002-.004.45zM347.95 310.726l.39-.01.007.217-.39.01zM348.569 310.683l-.016-.344.439-.016.016.345zM348.667 312.63l.018.551.07-.001.007.256.286-.007-.027-.808zM347.796 313.17l-.004-.33.334-.003.003.33zM345.915 313.652l.63-.022.01.232-.11.004.008.162-.52.018zM346.83 313.788l-.009-.228.305-.008.01.226zM346.138 314.38v-.204h.453v.205zM345.428 314.265l.671-.018.011.298-.671.019zM348.086 315.31l.463-.002v.132l.29-.001.001.371-.752.003zM348.751 314.595l-.003-.35.422-.003.003.35zM353.968 317.079l-.014-.527.304-.005.015.526zM354.787 315.519l.006-.18.144.004-.007.18zM353.603 315.152l-.004-.136.162-.002.003.135zM352.963 316.155l-.012-.186.239-.012.012.186zM348.052 317.274l.394-.018.016.27-.393.019zM347.996 316.877l-.027-.365.443-.024.027.364zM345.783 317.079l-.088-.395.61-.104.089.395zM346.133 317.244l.804-.158.092.355-.444.087-.024-.09-.359.07zM347.494 318.62l-.007-.128.146-.007.007.129zM347.252 319.011l-1.167.013-.006-.464 1.166-.013zM347.99 319.409l-.5.006-.005-.342.498-.006zM348.58 319.36l-.347.015-.02-.352.346-.015zM348.58 319.36l-.02-.352.71-.03.019.351zM349.795 319.354l.003-.285.716.006-.003.285zM345.783 324.562l-.01-.285.384-.01.01.287zM346.606 331.837l.019.629.263-.007.011.341-.876.02-.003-.079-.225.006-.01-.328.193-.005-.017-.562zM347.076 331.63l-.036-.703.441-.017.035.704zM347.026 332.811l-.026-.4.85-.043.027.4zM347.862 332.976v.465h-.702v-.465zM348.67 332.976l.022-.257.174.011-.022.257zM347.89 333.704v-.33h.36v.33zM346.704 334.248l.031-.723 1.11.037-.032.723zM345.98 335.792l.993.014-.011.624-.451-.006.003-.188-.542-.008zM345.691 336.646l.784.012-.009.421-.783-.012zM347.248 336.845h-.569v-.223h.569zM347.518 336.934h-.27v-.312h.27zM347.518 337.172v-.55h.63v.55zM348.618 336.976l-.397-.014.024-.505.397.015zM349.405 336.48h.447l-.002.505-.518-.001.001-.315h.071zM349.703 336.37l-.27-.008.014-.315.27.009zM350.06 336.372l-.004.65.53.001.002-.256h-.083l.002-.3-.096-.001v-.093zM350.002 336.331v-.168h.305v.168zM352.405 336.86l-.371-.018.028-.443.37.018zM353.271 335.789v.458h-.169v.63h-.404v-.605h-.051v-.226l.255.001v.174h.074v-.433zM353.638 336.2h-.288v-.208h.288zM353.982 336.916l-.573-.005.007-.642.573.004zM355.172 335.885l.016 1.104-.462.005-.005-.318-.128.002-.006-.373.14-.002-.007-.413zM370.443 335.037l-.183-.123.197-.22.183.123zM371.048 336.555l.091-.313.255.057-.092.312zM371.884 336.163l-.638-.453.625-.667.638.453zM356.29 338.212l.002-.384.745.002-.002.385zM356.852 338.497l-.004.307-.555-.007.004-.307zM357.024 338.567l.01-.18.527.02-.01.181zM356.954 339.016l.27.003-.001.144-.271-.003zM356.511 339.142l.359.003-.003.241-.358-.003zM356.334 339.411l1.05-.003v.091h-.243l.001.116-.319.001.002.288-.464.002-.001-.119h-.11v-.229h.084zM356.154 340.001h.889v.303h-.437v.068h-.451zM356.265 340.937h.647v.453h-.647zM356.367 340.897l-.021-.28.467-.027.021.28zM357.116 341.283l.361-.003.003.219-.362.003zM357.161 341.13l-.006-.2.25-.006.006.2zM357.393 340.334l.005-.187.31.006-.006.188zM357.576 341.087l.003-.508.514.003-.003.508zM358.812 340.45l-.012-.111.109-.01.012.113zM358.51 340.442l-.01-.082.138-.012.01.081zM358.229 340.69l-.01-.185.274-.012.01.184zM358.012 342.682l-.464.004-.003-.362.173-.001-.002-.213.29-.002zM358.25 343.31l-.171.003.005.283-.326.004-.005-.249-.216.004-.007-.398.713-.01z" clip-path="url(#p80da3a50b4)" style="fill:#a9a9a9;fill-opacity:.8"/><path d="m358.693 343.304-.443.007-.007-.364.443-.006zM358.057 342.445l-.026-.342.536-.038.03.343zM357.459 344.681l.023.673-1.003.026-.012-.36-.141.003-.015-.446.65-.016.019.563.324-.01-.015-.428zM358.507 345.301l-.443.018-.035-.68.443-.017zM359.425 345.312l.052.901-.406.018-.005-.092-.466.02-.011-.201.407-.018-.035-.607zM358.52 344.536l-.021-.32.47-.023.022.32zM359.455 344.916l-.014-.593.483-.01.013.594zM357.36 359.788l.004.278h-.116l.002.205-.567.006-.006-.482zM357.432 359.883l-.022-.271.295-.019.022.272zM357.51 359.54l-.935.025-.02-.577.934-.024zM357.994 359.534l-.169.012-.02-.239.168-.011zM359.312 359.541l-.651-.008.008-.473.57.007-.004.231.082.001zM360.162 359.796l-.598-.02-.022.479.419.014.007-.148.179.007zM357.123 362.403l-.421-.006.007-.391.42.006zM357.655 363.04l-.914-.007.005-.547.554.005-.003.262.361.003zM357.93 364h-.34v-.255l-.52.001v.37h-.155v.091h-.039v.334l.929-.001v-.241h.126zM358.55 363.77h.288l-.002.502h-.248l-.001.315-.398-.001.003-.719.357.001zM359.189 362.16l-.001.202h-.228v-.066h-.076v-.137zM359.805 361.765l.678.021-.01.252-.12-.004-.013.335-.56-.017zM359.8 362.941l-.394-.012.01-.227.393.012zM359.472 363.102l1 .045-.024.39-.749-.034.011-.183-.25-.011zM359.744 363.823l.657.004-.002.22.13.001-.004.574-.53-.003.003-.524-.256-.002zM361.458 360.905l.027-.606.448.016-.028.605zM362.118 360.91l.014-.287.123.004-.014.288zM362.062 363.32l-.005-.108.365-.012.005.108zM361.444 363.051l-.014-.339.625-.019.014.34zM361.479 363.73l.007-.29.598.011-.008.291zM361.43 364.293l.625.006-.004.326-.626-.006zM358.434 366.175l.034 1.697-.21.003.005.241-.752.011-.004-.237-.322.005-.034-1.686.28-.004-.006-.33.79-.013.007.317zM358.827 369.223v.333h-.64l-.001.114h-.232l.001-.448zM353.462 373.394l-.618.012-.01-.384.618-.013zM352.728 373.565l-.008.4.116.002-.005.235-.492-.008.013-.634zM352.317 372.011l.478-.018.021.43-.477.018zM352.24 371.357l.007-.624.486.004-.007.624zM355.479 371.578l-.007-.619.49-.004.007.618zM355.43 373.406h-.633v-.324h.632zM355.408 372.39l.534-.005.003.194-.534.007zM356.008 373.751l-.25-.006-.004.145-.314-.007.035-1.183.564.012zM348.858 372.2l.004.251-.224.003.009.516.197-.002.004.255.514-.006-.005-.32.177-.002-.005-.292-.24.003-.007-.41zM349.563 373.033l1.51.006-.002.418-1.51-.006zM349.496 374.255v.089h.253v.26h.955v-.13h.492v-.329h-.24v-.531l-1.46-.001z" clip-path="url(#p80da3a50b4)" style="fill:#a9a9a9;fill-opacity:.8"/><path d="M348.524 373.612h.973v.643h-.102v.358h-.56v-.216h-.312zM346.691 374.098l-.014-.365 1.606-.048.017.422-.986.03-.002-.058z" clip-path="url(#p80da3a50b4)" style="fill:#a9a9a9;fill-opacity:.8"/><path d="m347.37 375.528-.058-1.45-.621.02.058 1.45zM349 376.174l-2.203.042-.012-.476.387-.007-.003-.117.193-.004.003.121.584-.01-.004-.182.337-.006.005.205.701-.013zM349.753 375.351l1.3-.012.004.37-1.3.013zM351.237 378.235h.13v.24h-.111v.229h-.365v-.145h-.155v-.147h-.088v-.176z" clip-path="url(#p80da3a50b4)" style="fill:#a9a9a9;fill-opacity:.8"/><path d="m351.482 377.609-.895.002v.116h-.12v.345h.323v.164h.447v-.197h-.093v-.132h.339zM350.6 377.403v-.406h.684v.406zM349.658 377.773l.25.006-.006.16-.25-.006zM349.612 377.449l.362-.006.004.185-.362.006zM349.65 378.816l-.013-.257.252-.01.014.257zM349.282 378.489v-.3h.309v.3zM348.983 378.064l.014-.603.41.008-.014.602zM348.872 377.412l-.023.685-.335-.009-.002.059-.211-.006.008-.255.122.003.017-.488zM346.622 377.705l.866-.01-.003-.211.198-.003-.006-.363-.54.007.004.192-.525.007zM347.736 378.372l.017-.38.541.02-.017.379zM347.35 378.317l-.815-.012.008-.425.815.013zM346.69 378.96l-.006-.516.745-.006.005.515zM346.545 379.474l-.01-.375.565-.013.01.375zM346.999 381.455l1.022.028-.02.537-1.022-.027zM348.846 381.62l.552-.006.006.427-.551.005zM348.84 381.153l.006-.322.376.006-.007.321zM349.71 381.526l.092.002.002-.063.406.008-.009.33-.049-.001-.005.2-.45-.009zM350.167 380.852l-.268.003-.003-.278.267-.003zM354.095 377.244l-.134-.113.125-.112.134.113zM355.563 376.4l.302.002-.004.44-.302-.001zM352.39 379.761l-.003-.569.45-.002.003.569zM348.183 397.253l-.011-.422.318-.006.01.422zM348.024 396.98l-.628.074-.05-.32.63-.074zM348.093 396.327l-.142.005.003.066-.623.022-.019-.387.766-.028zM348.123 396.241l.003-.343.285.002-.003.343zM347.824 395.164l.017.596-.878.02-.01-.376.574-.012-.007-.22zM347.877 394.81l-.763.024-.013-.305.763-.024zM348.179 395.113l-.496-.004.003-.29.495.003zM348.066 394.779l-.007-.297.417-.007.007.296zM348.811 395.027l-.004-.4.752-.005.004.399zM349.345 395.57l.012-.415.583.012-.012.416zM349.282 396.36l.014-.497.583.012-.014.497zM349.282 396.709l.64-.013.01.408-.64.012zM349.182 397.269l-.017.271.239.011-.033.526-.799-.038.028-.45.295.013.021-.345zM348.547 389l.5-.007.006.361-.46.006.003.154-.279.004-.002-.178.137-.002-.003-.187h.1zM348.734 389.987l-.024-.426.794-.034.024.426zM348.463 391.076l-.002-.124.264-.003.002.124zM348.955 391.4l-.002-.426.632-.003.003.426zM348.98 392.012l-.51-.013.006-.19.51.012zM349.67 392.67l-.806-.014.014-.589.279.005-.004.149.528.01zM348.945 392.77l.681.006-.006.502-.682-.006zM347.817 392.965l.344.008-.007.213.266.006-.019.63-1.507-.035.02-.618.896.02zM346.797 392.482l.805-.02.014.42-.154.003.003.08-.276.007-.002-.075-.376.01zM348.084 392.232l.004-.254.169.002-.004.253zM347.359 391.642l-.71.023.021.481.216-.007.004.08.278-.008-.009-.193.216-.007zM347.746 390.97l.008.63-.848.009-.005-.406.43-.004-.004-.225zM347.912 390.937l.331-.01.015.428-.214.005-.008-.224-.116.003zM347.96 390.819l-.477.01-.015-.558.479-.009zM346.963 389.681l1.005-.11.051.354-1.005.11zM347.42 389.07v.44h-.597v-.44zM347.567 388.972h.394v.208h-.394zM347.567 388.678h.394v.294h-.394zM346.43 388.727l-.038-.574.738-.036.037.574zM348.46 387.107l-.003-.345.927-.006.003.344zM348.348 387.125l-.296-.025.027-.248.295.025zM347.048 387.504l.857-.03.024.527-.857.03zM346.668 386.978l.871-.055.027.322-.87.055zM346.465 385.981l.885-.129.126.663-.885.128zM346.565 384.702l2.034-.058.024.65-.774.021.006.164-.71.02-.006-.165-.55.015zM353.058 383.05l-.003.43h-.048v.171h-.239v-.1l-.197-.002.001-.181h.067l.002-.32zM352.83 383.91l.264-.005.013.397-.264.007zM351.938 392.88v-.18h.168v.18zM350.853 392.722l.428.002v.046h.14v.153h-.059l-.001.202-.377-.001v-.12h-.133zM350.877 394.984l-.006-.353.456-.006.006.353zM351.769 396.134v-.22h.246v.22zM351.716 396.311l-.829.006-.004-.428.829-.006zM351.481 397.101l-.592-.009.01-.504.956.014-.004.209-.364-.005zM350.933 397.271l.492.004-.004.404-.491-.003zM348.704 399.654l-.004-.433.44-.003.005.433zM350.41 399.81l-.018-.46.432-.013.017.46zM349.377 399.483l.876-.039.025.415-.16.007.007.1-.455.022-.006-.105-.262.012z" clip-path="url(#p80da3a50b4)" style="fill:#a9a9a9;fill-opacity:.8"/></g></g></g><defs><clipPath id="p80da3a50b4"><path d="M90 117.666h558v491.869H90z"/></clipPath></defs></svg>