<svg xmlns="http://www.w3.org/2000/svg" width="960" height="960" viewBox="0 0 720 720"><defs><style>*{stroke-linejoin:round;stroke-linecap:butt}</style></defs><g id="figure_1"><path id="patch_1" d="M0 720h720V0H0z" style="fill:#fff"/><g id="axes_1"><path id="patch_2" d="M90 545.233h558V181.967H90z" style="fill:#fff"/><g id="LineCollection_1"><path d="m291.604 322.915 1.161-1.607M291.604 322.915l-.38-2.569M186.441 419.915l2.273-1.252 2.158-.706 2.357-.327 6.905-.64 2.892-.786 9.026-4.241 1.992-.895 1.054-.546 1.006-.64.666-.948.421-1.222-.012-1.457-.445-1.313-.54-.688-.732-.594-2.33-1.655-1.047-.899-.613-.995-.193-1.015.023-1.274.6-1.347 1.878-1.925 76.875-70.388.95-1.247" clip-path="url(#p6d66d1db76)" style="fill:none;stroke:#000"/><path d="m299.473 320.832-3.613 5.09-4.256-3.007M294.551 318.091l1.245-2.152 2.643-4.796 2.162-4.507.144-.527M279.472 304.045l1.116-.212 3.149-.553 1.758-.22 1.557-.02 3.795.288 2.307.336 3.699 1.006 3.892 1.439M315.833 312.501l-.433.033-1.346-.48-2.354-1.486-1.297-.623-1.586-.768-4.517-1.581-3.555-1.487M279.472 304.045l-2.654.817-6.054 2.062M291.224 320.346l-7.296-4.551-13.164-8.871M262.259 306.41l5.142.322 3.363.192M196.73 301.638l-4.215 1.6M196.541 295.99l.037 1.009-.048 4.124.2.515M215.507 303.445l-3.361-.213-13.021-.911-1.106-.144-1.29-.539M196.242 287.696l-10.57.288M196.242 287.696v-14.12M196.242 287.696l4.9.528M196.242 287.696l.3 8.293M196.242 269.044l2.257.11M196.242 269.044v4.531M192.782 268.852l1.058.059 2.402.133M203.113 269.38l-4.614-.226M203.113 269.38l.232-2.594M202.602 274.27l.026-.253.485-4.637M201.143 288.224l1.459-13.954M215.843 290.46l-1.872-.606-3.315-.623-9.513-1.007M185.672 287.984l1.492-19.467M172.41 288.519l.769-.007 12.493-.528M166.5 288.271l-2.738-.862M172.41 288.519l-4.564.04-1.345-.288M159.976 299.532l5.111-6.397 1.414-4.864M172.41 288.519l1.84-20.552M181.035 250.273l2.138 8.702M181.035 250.273l-1.898-7.793M181.035 250.273l7.503.17M175.194 257.407l.483-7.182 5.358.048M179.137 242.48l-3.22-10.116M179.137 242.48l3 .416M198.5 269.154l.88-9.07M200.801 245.44l-.57 5.868M200.801 245.44l-.331-7.083M200.801 245.44l-5.661-.773M205.132 246.54l-.625-.575-3.706-.524M195.14 244.667l-.607 6.22M195.14 244.667l-6.1-.833M189.443 234.066l5.261.599 1.057.48.24.67-.861 8.852M192.782 268.852l-5.618-.335M192.782 268.852l.893-9.162M185.576 268.42l1.588.097M185.576 268.42l-11.327-.453M183.75 264.01l.192 1.486.673 1.63.96 1.295M187.164 268.517l.7-9.216M189.04 243.834l-.502 6.609M189.04 243.834l.403-9.768M189.04 243.834l-6.904-.938M189.443 234.066l-6.669-.9M183.904 224.62l4.962.743.577 8.703M188.538 250.443l-.674 8.858M188.538 250.443l5.995.443M200.232 251.308l-5.699-.422M200.232 251.308l-.852 8.776M199.38 260.084l-5.705-.394M183.173 258.975l.577 5.035M183.173 258.975l-7.979-1.568M183.173 258.975l4.691.326M183.75 264.01l-9.032-1.276M203.345 266.786l6.343.627M203.345 266.786l1.787-20.246M219.29 268.069l-9.602-.656M243.184 265.256l-3.516.825-.73-.09-.403-.814-1.691-3.025-1.463-2.009-.542-.507-1.162.15-5.981 3.138-1.008-.012-3.935-2.027-1.045.292-.43.554-1.988 6.338M215.843 290.46l1.444-4.61-.097-.863-1.825-.91-.433-.576-.144-.623.384-1.846 4.118-12.963M233.672 297.523l7.374 3.864 1.417.742 6.004 3.443M230.923 304.424l7.356.446 1.446.088 8.742.614M253.895 305.893l-4.608-.263-.82-.058M196.541 295.99l18.847 3.695M215.388 299.685l.12 3.76M230.19 301.23l-.795-.107-12.492-1.439-1.515.001M216.729 290.744l-.575 2.378-.531 3.2-.235 3.363M230.923 304.424l.345-2.319-.24-.336-.432-.287-.407-.251" clip-path="url(#p6d66d1db76)" style="fill:none;stroke:#000"/><path d="m231.871 296.652-.668 1.992-1.014 2.587" clip-path="url(#p6d66d1db76)" style="fill:none;stroke:#000"/><path d="m233.672 297.523-.818-.428-.983-.443M216.729 290.744l4.065 1.316 7.16 2.829 3.917 1.763M244.162 292.894l-.545.077-7.64 1.103-1.201 1.295-1.104 2.154M266.935 290.661l1.09.2 1.634.91 2.786 2.926 5.094 4.795.72 1.246.577 1.295.636 2.012M264.276 290.555l-2.017 15.856M266.935 290.661l-.736-.135-1.923.029M255.732 291.314l7.296-.74 1.248-.02M253.895 305.893l1.253.072 7.11.446M255.084 291.38l-.323 5.654-.866 8.859M255.084 291.38l.648-.066M244.162 292.894l10.362-1.457.56-.058M255.732 291.314l.188-5.554M256.013 282.998l-.093 2.762M243.534 285.634l.035 2.015.095 1.87.498 3.375M243.184 265.256l7.688-1.486M243.184 265.256l.08 4.649M250.872 263.77l-.111 5.37M205.132 246.54l1.99-.575 1.2-1.247 1.538-2.038 4.012-4.723 1.73-1.798 1.441-.767 1.153-.168 2.066.048 2.403.383 2.258 1.2 2.21.742 1.634.144 2.475-.647 4.972-1.99 2.427-.551 1.8-.768.986-.599 3.796-.36 2.234-.24 2.306.192 2.499.696 2.258.504 2.522 1.893 3.412 2.11 6.51 3.069 2.667.96-.084.454-2.343 8.535-1.97 1.726-1.441 1.679-1.249.503-2.787-.072-3.123 1.103-2.787 1.318-1.825 1.463-1.25 1.462.1 3.59M250.76 269.14l-7.496.765M250.76 269.14l-.11 5.271M250.416 285.73l-6.882-.096M250.416 285.73l.12-5.759M250.416 285.73l5.504.03M243.534 285.634l-.094-5.514M243.534 285.634l-7.104-.447M243.44 280.12l7.095-.149M243.44 280.12l-.111-5.753M250.535 279.971l.116-5.56M250.65 274.411l-7.321-.044M243.329 274.367l-.065-4.462M236.43 285.187l1.994-10.86 4.905.04M292.765 321.308l1.786-3.217M292.765 321.308l-1.541-.962M299.473 320.832l-1.515-1.394-1.681-1.102-.721-.336-1.005.091M315.833 312.501l1.489-.11 1.09-.153M366.519 280.8l-8.937 11.292-2.138.335-1.754-.48-2.054.12-4.12 3.249-2.607 2.54-1.778 3.394-2.486 3.404-2.222 1.679-2.126-.253-2.343-.083-2.378 1.102-4.54 1.606-2.523 1.164-2.979 1.726-3.122.643" clip-path="url(#p6d66d1db76)" style="fill:none;stroke:#000"/><path d="m325.778 316.322-1.297-1.39-2.21-1.631-1.49-.432-2.37-.631M325.778 316.322l-4.228 3.356M628.446 392.689l-7.035-21.123-4.709-1.15-18.835-16.303-7.015-3.836-3.459.672-6.535 3.068-5.958 1.63-7.399-1.246-8.456-1.151-13.646 11.699-22.198 6.521-11.723-.479-34.018-6.521-15.856-.768-6.054.48-13.164.384-4.159 1.276-11.825 4.722-3.282-.016-1.106-.804-1.646-5.615-2.775-3.111-9.897-.96-8.265-3.548-7.301-3.244-2.876-1.487-13.462-.351-8.943-5.252-1.416-.468-1.613.603-2.415 1.677-.896-.362-2.389-2.27-7.18-11.29-1.088-3.386-.988-1.524-2.32-.72-7.497-5.04-1.75-2.023-.98-1.657-.98-.99-9.56-2.404M321.55 319.678l-2.383.509M338.026 330.968l-11.549-4.983-2.768-1.553-.856-1.463-1.303-3.29M315.833 312.501l3.334 7.686M299.473 320.832l7.969 7.781 8.49-6.415 3.235-2.011M175.918 232.364l1.46.156M173.586 222.86l.746 1.568.936 4.435.65 3.5M209.688 267.413l-2.3 16.807M215.843 290.46l.886.284M196.242 273.575l6.36.695M174.25 267.967l.468-5.233M206.568 398.73l-2.113.91-1.562 1.546-2.643 4.471-3.003 4.147-10.806 10.111M230.923 304.424l-2.978-.189M194.533 250.886l-.858 8.804M187.864 259.301l5.811.389M628.446 392.689l.872 2.619M622.267 412.308l2.952 1.04 1.286-.106 3.615-1.896 2.472-.56" clip-path="url(#p6d66d1db76)" style="fill:none;stroke:#000"/><path d="m637.27 419.192-3.437-1.798-.902-1.527-.374-2.011.035-3.07" clip-path="url(#p6d66d1db76)" style="fill:none;stroke:#000"/><path d="m629.318 395.308 1.896 4.91 1.44 5.103.465 2.06-.527 3.406M556.607 528.884l.617.828 1.562.815 1.73.552 1.345.719 1.297 1.054 1.514 2.039 1.393 1.846 1.177.862 1.321.576 1.274.072 1.177-.216 1.37-.528 1.176-.839.529-.743.36-.815.41-1.439.575-2.23 1.081-4.362.144-2.038v-1.87l-.216-1.582-.48-5.083-.024-1.678.409-1.893 2.306-7.264 2.282-7.288 3.267-7.073 3.748-6.664 5.525-11.82 2.835-4.818.913-2.661.071-2.734.289-5.562.745-4.579 1.177-3.38 1.538-2.877 3.603-5.13 1.441-2.71 1.658-3.979 2.715-7.384 1.585-2.901 1.778-2.301 3.748-3.021 3.88-3.522.521-1.574.294-1.38M629.318 395.308l-3.967 1.767-1.442 2.588-1.642 12.645M173.586 222.86l-1.848-2.052-3.075-3.093-.889-1.2M178.893 214.39l-2.93-.336-5.093 1.39-3.096 1.07M153.548 188.953l.889 1.678.384 2.997-.143 1.942.384 2.086.72 2.277 1.85 4.077 1.25 1.726 8.892 10.779M183.904 224.62l-5.773-1.107M183.904 224.62l-1.13 8.545M178.893 214.39l5.766 1.007-.755 9.224M178.131 223.513l-4.545-.653M178.131 223.513l.762-9.123M178.131 223.513l-.753 9.007M177.378 232.52l5.396.645M182.774 233.165l-.638 9.731M198.737 317.576l-1.681 5.945M198.737 317.576l2.175-6.283M191.828 308.741l-1.836 6.773 8.745 2.062M191.828 308.741l9.084 2.552M191.828 308.741l-2.409-.62M179.196 305.622l-1.84 9.94M179.196 305.622l10.223 2.5M179.196 305.622l-4.531-1.184M192.515 303.238l-2.86-1.102-9.85.288-.61 3.198M192.515 303.238l-3.096 4.883M215.507 303.445l1.702 10.719M215.507 303.445l12.438.79M224.291 314.222l-3.042 9.4-2.533 9.507-.377 2.157 4.208 6.731.496 1.15-3.978 7.684M227.945 304.235l-3.654 9.987M224.291 314.222l-7.082-.058M200.912 311.293l14.248 3.655 1.341-.277.708-.507M211.699 321.392l2.079-.784.99-1.443 1.267-2.278 1.174-2.723M100.73 268.895l8.399 6.678 11.386 11.076 25.757 30.063M206.568 398.73l-2.882-6.546-3.171-6.905-6.678-12.37-1.154-2.086-2.258-3.716-3.027-4.46-2.85-3.615-8.682-10.17-2.21-2.445-4.636-5.346-5.599-6.474-4.876-5.49-7.86-8.523-4.413-3.872M133.248 330.595l5.381-3.405 2.45-2.11 1.346-1.846 3.847-6.522" clip-path="url(#p6d66d1db76)" style="fill:none;stroke:#000"/><path d="m556.607 528.884.696.145 19.663 4.624M556.607 528.884l-23.22-4.844-47.374-11.507-40.552-7.384-103.495-17.261-16.769-2.373-5.765.36-31.159-5.227-4.348.047-9.129-3.26-23.543-10.74-11.243-10.165-12.685-15.056-7.447-13.857-.966-2.3-3.355-7.267-1.84-4.245-1.57-3.4-5.579-11.676M147.806 313.98l5.12-6.078M265.097 270.708l-.402 8.15.371 1.702 1.394 6.257.475 3.844M174.718 262.734l.476-5.327M233.932 285.331l2.498-.144M159.976 299.532l-3.404 4.041M159.976 299.532l-3.6-5.664M156.572 303.573l-3.646 4.329M147.032 300.356l5.713-1.714 1.183.94 2.644 3.991M141.768 304.192l5.264-3.836M147.032 300.356l5.894 7.546" clip-path="url(#p6d66d1db76)" style="fill:none;stroke:#000"/></g><g id="PatchCollection_1"><path d="m196.495 274.343 5.4.357-1.173 12.877-4.131-.324zM230.923 304.424l.682-3.182 8.408 1.966 1.033-1.821 7.421 4.185-10.188-.702z" clip-path="url(#p6d66d1db76)" style="fill:green;fill-opacity:.8"/></g><path id="PatchCollection_2" d="m187.702 269.681-.348 9.265 7.302.431.29-9.268z" clip-path="url(#p6d66d1db76)" style="fill:#90ee90;fill-opacity:.8"/><g id="PatchCollection_3"><path d="m222.451 263.74 1.65.567-.419 1.214-.398-.137-.348 1.01.281.097.255-.74.644.222.152-.44.821.281-1.125 3.267-1.042-.358.35-1.016-.693-.237-.887 2.577-1.002-.344.833-2.418-.195-.066.254-.736-.3-.103.147-.431.418.143.392-1.141-.183-.063zM217.788 300.645l-.048.6.574.045-.012.168-.547-.043-.042.558.554.042-.018.23-.546-.04-.036.506 1.356.098-.012.162 4.91.341.15-2.154-.93-.064-.098 1.418-4.501-.313.002-.035.636.047.056-.754-.622-.046.002-.022.835.066.054-.674z" clip-path="url(#p6d66d1db76)" style="fill:#a9a9a9;fill-opacity:.8"/></g></g></g><defs><clipPath id="p6d66d1db76"><path d="M90 181.967h558v363.265H90z"/></clipPath></defs></svg>