<svg xmlns="http://www.w3.org/2000/svg" width="960" height="960" viewBox="0 0 720 720"><defs><style>*{stroke-linejoin:round;stroke-linecap:butt}</style></defs><g id="figure_1"><path id="patch_1" d="M0 720h720V0H0z" style="fill:#fff"/><g id="axes_1"><path id="patch_2" d="M107.89 640.8h522.22V86.4H107.89z" style="fill:#fff"/><g id="LineCollection_1"><path d="m569.311 344.877 1.102-3.595 2.73-10.678M575.064 322.566l-1.005 4.468-.915 3.57M580.172 332.021l-1.85-.327-2.858-.557-2.32-.533" clip-path="url(#p03f3b776a9)" style="fill:none;stroke:#000"/><path d="m561.113 331.718.942-.377 1.116-.446 1.68-.548 1.893-.481h1.223l1.78.109 3.397.63M496.744 338.013l11.068 6.234M489.623 346.971l.654-2.687.52-.981 1.236-1.985 1.078-1.271 1.108-1.053.83-.612.854-.296.841-.073M493.772 335.734l1.155 1.093.86.532.957.654M507.812 344.247l6.625 3.832M509.542 340.508l-.456 1.3-.654 1.343-.62 1.096M512.573 354.113l.308-1.834.394-1.646.394-.968.768-1.586M522.204 352.538l-3.88-2.312-2.444-1.418-1.443-.729M509.542 340.508l5.158 3.796.561.41.243.315.103.278-.085.393-.237.617-.387.902-.46.86M526.391 355.033l-4.187-2.495M542.874 344.429l-3.887 1.949-1.992.994-1.557.58-1.938.702-2.725.957-1.186.726-1.513 1.308-.614.81-.465 1.077-.606 1.501M521.459 366.77l.512-1.483.606-1.296 1.174-1.597.726-1.15.582-1.126.582-1.743.447-1.828.303-1.514M482.114 359.174l-4.566-.909M486.1 360.651l-1.007-.533-1.15-.504-1.829-.44" clip-path="url(#p03f3b776a9)" style="fill:none;stroke:#000"/><path d="m486.473 345.737-.632 1.891-3.727 11.546M491.143 366.6l-1.048-1.64-1.132-1.73-.545-.65-.576-.55-.538-.471-.503-.434-.702-.474M489.623 346.971l-.654 2.93-1.332 5.132-1.538 5.618M503.248 363.556l-2.023-.533-3.342-.774-3.78-.654-2.493-.63-2.943-.726-1.43-.243-.382.076-.397.176-.359.403M477.548 358.265l-.323-.066M482.153 370.31l-1.564-3.776-1.273-3.087-1.052-2.663-.437-1.09-.206-.823-.073-.606M511.858 364.646l-.634 7.82M511.858 364.646l4.372.762M512.573 354.113l-.219 2-.012 2.758-.229 2.53-.255 3.245M504.38 363.758l.842.088 2.354.256 1.841.237 2.441.307M491.143 366.6l-8.99 3.71M497.096 376.75l-1.89-3.231-1.61-2.688-2.453-4.23M494.47 384.658l-1.855-1.443-2.265-1.38-2.023-1.271-1.441-.739-.896-.69-.897-1.343-.932-2.397-.617-1.792-1.391-3.292M549.098 380.524l.915 4.757M515.128 371.328l-3.904 1.138M511.783 382.073l-.143-1.315-.242-1.271-.314-2.106-.183-1.441.037-1.792.286-1.682M504.801 374.257l3.69-1.077 2.733-.714M534.623 371.702l1.918 8.766M544.062 386.362l-1.116-6.04-.666-3.729-.508-2.19-.721-2.761-.32-.299-.392-.23-.384-.166-.775.03-1.035.109-3.522.616" clip-path="url(#p03f3b776a9)" style="fill:none;stroke:#000"/><path d="m526.476 372.379.275.235.327.09.439.016.5-.012.893-.17 5.713-.836M497.096 376.75l3.136-1.21 2.725-.799 1.844-.484" clip-path="url(#p03f3b776a9)" style="fill:none;stroke:#000"/><path d="m507.179 384.342-1.086-4.976-.702-2.881-.59-2.228M502.364 387.009l-1.054-1.857-2.446-4.987-1.768-3.415M557.797 383.696l2.849-.723M557.797 383.696l2.195 8.617M550.013 385.28l3.991-.702 3.793-.882M536.541 380.468l1.669 7.214M529.242 381.752l1.254-.153 2.562-.46 2.24-.441 1.243-.23M511.783 382.073l-4.604 2.27M512.197 391.81l-.072-3.166-.157-2.51-.185-4.061M529.242 381.752l.887 7.55" clip-path="url(#p03f3b776a9)" style="fill:none;stroke:#000"/><path d="m525.664 374.56 1.624.454.72.236.242.242.115.26.076.356.315 1.912.486 3.732" clip-path="url(#p03f3b776a9)" style="fill:none;stroke:#000"/><path d="m524.471 382.367 1.459-.094 1.817-.292 1.495-.23M560.646 382.973l.514-.106M557.816 372.714l-1.722 4.42-.052.892.312.6 2.47 1.745 1.247 1.11.324.454.2.39.05.648M507.179 384.342l-4.815 2.667M494.47 384.658l3.518 2.797M494.47 384.658l-1.32 3.343M550.013 385.28l1.712 8.31M550.013 385.28l-5.951 1.082M502.364 387.009l1.18 2.356M544.062 386.362l-5.852 1.32M544.062 386.362l1.677 8.79M571.723 389.113l-5.833-5.1M571.723 389.113l-4.045 3.843M576.316 394.18l-1.046-1.401-1.344-1.428-2.203-2.238M583.335 369.077l-1.785 3.223-3.708 6.994-1.198 2.336-2.658 4.518-.661.907-1.602 2.058M504.078 390.071l-.534-.706M504.078 390.071l-1.185 3.33M505.966 391.47l-.999-.573-.89-.826M492.59 389.8l.56-1.799M492.59 389.8l4.755 1.736M494.618 398.601l-.877-.822-1.054-1.405-.557-1.186-.133-1.283.108-1.865.484-2.24M538.21 387.682l-8.081 1.62M538.21 387.682l1.84 8.535M530.129 389.302l-4.611.942M530.129 389.302l.465 4.917M505.966 391.47l-.184 4.538M512.197 391.81l-1.914-.073h-2.191l-1.32-.15-.806-.116M497.345 391.536l5.548 1.865M497.345 391.536l-2.727 7.065M530.594 394.219l.588 3.303M525.683 391.853l1.15.502 1.702.787 2.059 1.077M520.7 392.004l-1.176-.06-2.628-.073-4.699-.06" clip-path="url(#p03f3b776a9)" style="fill:none;stroke:#000"/><path d="m512.444 407.352-.113-2.093-.11-5.955-.072-3.28.048-4.214M551.725 393.59l.794 2.36M551.725 393.59l-5.986 1.563M555.33 394.02l-.645-.688-.46-.308-.273-.094-.372.012-.385.11-1.47.537M561.836 395.172l-1.844-2.86M561.836 395.172l1.142 2.076M570.202 398.02l-.188-.442-.29-.314-.636-.394-1.363-.654-1.49-.484-1.514-.423-1.296-.17-1.589.033M545.739 395.153l1.153 5.594M545.739 395.153l-5.689 1.064M576.316 394.18l.668 1.389.393 1.24M580.744 409.642l-.685-2.65-.962-3.802-1.72-6.38M570.202 398.02l2.525-.436 2.482-.374 2.168-.4M525.683 391.853l.724 6.544M525.683 391.853l-.165-1.61M520.7 392.004l3.402-.23.884-.006.697.085M571.8 405.727l-.714-2.349-.624-3.518-.26-1.84" clip-path="url(#p03f3b776a9)" style="fill:none;stroke:#000"/><path d="m564.595 400.19 2.33-1.044 1.756-.677 1.52-.45M531.182 397.522l.943 6.533M531.182 397.522l5.922-.871M531.182 397.522l-4.775.875M500.05 402.173l-1.296-.533-1.199-.775-1.598-1.21-1.339-1.054M491.877 405.34l.628-1.787.763-1.852 1.35-3.1M526.407 398.397l-7.043 1.247M526.407 398.397l.317 6.36M504.858 403.189l-1.9-.472-1.854-.315-1.054-.23" clip-path="url(#p03f3b776a9)" style="fill:none;stroke:#000"/><path d="m502.348 395.435-1.868 5.182-.43 1.556M566.329 404.492l.809 2.567M541.178 401.882l-1.128-5.665M541.178 401.882l1.347 6.309M541.178 401.882l5.714-1.135M541.178 401.882l-2.646.672M509.049 407.838l-.763-1.101-1.387-1.786-.703-.89-.526-.405-.812-.467M505.782 396.008l-.03 1.586-.422 2.678-.472 2.917M532.125 404.055l.88 6.04M532.125 404.055l6.407-1.501M526.724 404.757l2.06-.315 3.341-.387M564.595 400.19l-1.617-2.942M556.173 405.756l.84-.11.684-.295 1.254-.909 2.973-2.233 2.67-2.02M567.138 407.06l.62 2.085M567.138 407.06l4.662-1.333M567.138 407.06l-8.71 2.521M526.724 404.757l-5.492 1.035M526.724 404.757l.44 6.314M512.444 407.352l.943-.154M512.444 407.352l-3.395.486M509.393 410.44l-.102-.774-.242-1.828M542.525 408.19l5.415-1.164M542.525 408.19l-7.44 1.393M542.525 408.19l.787 3.85M556.173 405.756l-3.654-9.805M556.173 405.756l-8.233 1.27M533.006 410.095l2.08-.512M533.006 410.095l-.956.22M527.163 411.071l4.887-.756M527.163 411.071l.434 4.74M523.08 411.67l2.088-.25 1.995-.349M573.61 412.172l-.762-2.555-.306-1.17-.742-2.72M322.06 364.466l.811-.123 3.658-.46 3.185-.424M329.714 363.459l1.005-.09 1.489-.146 3.573-.587 3.16-.49 1.838-.254M340.281 361.25l-6.565.992-.956.224-1.309.327-.866.278-.871.388M516.23 365.408l3.149.762 2.08.6M526.476 372.379l-2.017-2.77-1.156-1.423-.581-.708-.521-.417-.742-.29M486.473 345.737l3.15 1.234M466.576 341.312l.878.012.49-.163.358-.261.345-.55 1.242-2.73.914-1.64 1.296-2.664.327-.623.194-.224.345-.127.321-.043.339.146.751.69 1.447 1.07 1.217.6 2.18 1.277 2.761 1.617 1.453 1.016 1.236 1.042 1.417 1.101.63.46.35.273.146.272.103.369-.024.565-.819 2.94M463.403 355.206l2.265.53 4.214.853M477.225 358.2l-3.794-.77-3.549-.84M470.612 351.762l.015.675-.272 1.67-.473 2.482M471.142 344.89l-.217 1.73-.17 1.441-.219 1.99" clip-path="url(#p03f3b776a9)" style="fill:none;stroke:#000"/><path d="m470.612 351.762-.005-.254-.076-.815.005-.643M473.062 349.974l-.185.047-.448.043-1.148.046-.745-.06M473.062 349.974l.209-.116.139-.184.17-.524.269-1.81.357-2.07M458.705 354.09l-1.587-.356M458.705 354.09l3.342.798M460.109 346.541l-.739 4.062-.665 3.487M463.767 329.158l-1.737 8.411M463.767 329.158l3.167.926M463.767 329.158l-2.665-.854M463.767 329.158l1.997-8.568M462.03 337.57l-2.95-1.007M462.03 337.57l3.07.976M460.109 346.541l.702-3.322.667-2.857.552-2.793M457.132 345.736l-.931-.253-.98-.188-.782-.093M454.962 350.906l.073-.896-.06-.896-.17-1.259-.182-1.574-.184-1.079" clip-path="url(#p03f3b776a9)" style="fill:none;stroke:#000"/><path d="m445.455 342.992 3.434 1.043 1.774.485 1.477.309 1.514.29.785.083M456.3 335.72l-.599 2.535-.654 2.808-.286 1.497-.322 2.642M463.554 347.262l-1.24-.32-1.326-.225-.88-.176M457.132 345.736l1.524.412 1.453.393M462.047 354.888l1.356.318M463.554 347.262l.34.284.17.363.048.424-.137.603-.224.993-1.704 4.959M456.3 335.72l2.78.843M451.608 342.19l.569-2.167.382-1.72.302-1.785.124-.702.136-.324.197-.251.306-.149.258-.018.263.037.482.148 1.673.46" clip-path="url(#p03f3b776a9)" style="fill:none;stroke:#000"/><path d="m461.102 328.304-.805-.32-1.23-.442-.375-.145-.245.015-.17.081-.111.1-.103.167-.106.324-.367 1.552-.787 3.862-.503 2.221M457.132 345.736l1.948-9.173M461.102 328.304l-.942 4.189-1.08 4.07M464.56 344.895l-.4.766-.32.85-.286.75M423.958 350.315l-.08-.527M423.958 350.315l.726-.322M423.958 350.315l-5.034.733M423.02 343.261l-.52-3.541M423.02 343.261l.857 6.527M423.02 343.261l8.478-.925M418.346 340.258l4.153-.538M422.5 339.72l-.394-3.214M422.5 339.72l8.107-.944M422.106 336.506l-.206-1.737M413.586 327.244l.878 2.356 1.405 3.752.638 2.047.428 1.001.357.463.385.209.612.015 3.817-.581M411.23 320.92l-.786-1.925-.72-1.664" clip-path="url(#p03f3b776a9)" style="fill:none;stroke:#000"/><path d="m411.23 320.92-2.127.968-.264.07-.194.006-.173-.039-.17-.154-.269-.615-.805-1.822-.09-.302.065-.248.451-.33 2.07-1.123M415.07 314.528l-1.296.581-2.216 1.235-1.833.987M423.7 326.164l-1.25.277-.197.047-1.046.248-1.184.503" clip-path="url(#p03f3b776a9)" style="fill:none;stroke:#000"/><path d="m419.009 325.676.248.577.363.669.403.317M421.682 332.638l-.206-1.658-.224-1.399-.292-1.263-.21-.444-.255-.345-.472-.29M421.9 334.77l-.218-2.132M421.9 334.77l3.355-.465M421.682 332.638l-3.165 1.051M415.07 314.528l1.332 3.571M412.708 306.968l1.057 3.743.675 2.377.63 1.44" clip-path="url(#p03f3b776a9)" style="fill:none;stroke:#000"/><path d="m418.964 312.532-1.944.93-1.95 1.066M418.964 312.532l.62 4.072" clip-path="url(#p03f3b776a9)" style="fill:none;stroke:#000"/><path d="m421.08 303.962-1.178.564-.947-.103-.538.051-.205 1.1.288 1.24.464 5.718M411.23 320.92l5.172-2.82M413.586 327.244l-.77-2.062-.92-2.652-.666-1.61M416.402 318.1l3.181-1.496M418.434 323.78l-.58-1.807-1.452-3.874M418.434 323.78l1.274-.62.593-.327.255-.327.157-.605.024-1.017-.363-1.852-.436-1.61-.355-.818M412.08 303.707l.434 2.255M417.112 300.558l-.512-2.073-.359-1.356-.845-.256-4.997 2.797.879 1.902.803 2.135" clip-path="url(#p03f3b776a9)" style="fill:none;stroke:#000"/><path d="m417.772 301.017-1.092.558-1.272.63-1.477.69-1.85.812M412.708 306.968l-.194-1.006M403.158 306.214l-1.972.103-2.635.742.424 1.078.218.78.284.345.34.145.472.025 1.193-.484 1.489-.836 1.356-.726.94-.29 1.04-.158 1.52.048 1.69-.072 1.278-.097.938.012.49.06.485.08M345.507 361.256l4.225-.618M345.507 361.256l.307 2.217M345.507 361.256l-.108-.765M345.507 361.256l-.657.089M347.71 379.153l.121.903.254 1.216 1.706 10.595M349.732 360.638l5.475-.823M357.12 392.029l-1.754-.638-2.028.181-2.516-20.438-.411-4.915-.376-3.401-.303-2.18M355.207 359.815l-.11-.763M357.11 391.755l-.825-19.677-.134-2.893-.351-3.414-.278-3.184-.315-2.772M355.207 359.815l12.293-1.55 5.15-.581M357.12 392.029l-.01-.274M368.185 393.396l-5.035.016-2.97-.486-3.06-.897M372.65 357.684l4.164-.588" clip-path="url(#p03f3b776a9)" style="fill:none;stroke:#000"/><path d="m377.163 379.462-1.816-9.417-1.938-8.668-.76-3.693M380.966 397.984l-1.456-7M377.957 383.264l.92 4.709.633 3.011" clip-path="url(#p03f3b776a9)" style="fill:none;stroke:#000"/><path d="m374.457 392.538 2.012-.41 1.079-.206.648-.22.602-.267.263-.182.449-.269M374.457 392.538l.64 4.708M368.185 393.396l1.191.025 2.398-.461 2.683-.422" clip-path="url(#p03f3b776a9)" style="fill:none;stroke:#000"/><path d="m377.363 383.815-.35.41-.667 1.224-.854 1.386-.811 1.162-.336.367-.24.45-.066.33.418 3.394M377.163 379.462l.405 1.938M384.838 378.79l-.481-.09-1.877-.073-2.192.279-3.125.556M405.974 382.743l1.926.206M402.292 382.414l.897.111 2.785.218M404.208 353.21l.29 3.615.29 4.431.206 4.6.266 3.462.327 2.615.036 2.712.146 4.527.205 3.571M418.794 383.428l-.654.193-1.181.224-1.284.272-1.393.272-.787.06-.763-.102-1.12-.4-1.278-.43-2.434-.568M416.992 379.33l-5.055-1.644-.7.275-1.37.151-1.967 4.837M414.396 405.511l.13.176 1.045-2.719 1.412-2.248 1.453-2.167.46-1.162.098-1.175-.05-.919-.217-1.392-.933-2.022-.314-1.925.024-1.477.205-1.234.558-1.828.527-1.991M422.743 376.35l-.657 1.072-.777 1.038-.62 1.01-.945 1.821-.95 2.137M389.043 379.608l2.992.738M385.188 378.856l1.361.256 2.494.496M401.423 389.091l-1.754-.26-1.127.396-2.618-.396-2.77.76-1.98.822-1.035-.273-.853.426-.315-2.618-.11-2.251-.096-2.772.278-3.317M391.638 375.083l-.16-1.43-.557-4.843-.63-4.31-.884-5.604-.519-3.454M388.888 355.442l3.753-.556 11.567-1.676M388.888 355.442l-2.733.39M400.588 382.175l-2.824-.532-5.729-1.297" clip-path="url(#p03f3b776a9)" style="fill:none;stroke:#000"/><path d="m400.588 382.175-.8 1.994-2.191 1.248-4.598 3.105-.964-8.176M391.638 375.083l.348 3.109.05 2.154M404.208 353.21l8.141-1.205M424.684 349.993l1.755-.194 3.536-.49M443.522 350.69l-1.118-.275-2.846-.623-2.859-.508-1.453-.182-1.078-.049h-1.392l-2.8.257" clip-path="url(#p03f3b776a9)" style="fill:none;stroke:#000"/><path d="m430.547 364.524.327-1.392.036-1.828-.181-1.937-.352-2.421-.169-2.433-.122-3.269-.11-1.934M430.547 364.524l-1.426-.325M426.707 370.645l.413-.419 1.453-2.034 1.187-1.997.787-1.67M422.743 376.35l-.262 1.502-.133 1.453.151.636.564.853.805 1.138.83.86.847.562 1.569.95 1.593 1.005.58.545.745.878.873 1.513.877 1.265 1.822 2.952M502.893 393.4l-.545 2.035M502.348 395.435l3.434.573M513.387 407.198l7.845-1.406M513.387 407.198l1.708 8.255M519.364 399.644l1.868 6.148M518.755 396.483l-.012.37.025.423.05.39.546 1.978M525.664 374.56l.468-1.273.344-.908M524.471 382.367l-.115-1.657.034-1.827.138-1.02.495-1.657.641-1.646M524.471 382.367l1.047 7.877M520.7 392.004l.22 3.204M527.597 415.811l-.872.206-2.124.596-.995.486-.823.626-1.565 1.472-.483.598M527.597 415.811l5.174-1.432M534.943 417.81l-4.217.928-.498-.03-.405-.135-1.518-.838-.367-.433-.195-.432-.146-1.059M532.05 410.315l.72 4.064M534.103 414.042l-.6.133-.732.204M535.085 409.583l.55 4.16M535.635 413.743l-1.532.3M535.635 413.743l.638-.141M534.103 414.042l.84 3.769M536.273 413.602l.774 3.782M536.273 413.602l7.04-1.563M537.047 417.384l-2.104.427M543.312 412.04l.285 1.516.418 1.891.028.271-.018.158-.11.155-.49.166-6.378 1.187M537.104 396.65l2.946-.433M537.104 396.65l1.428 5.904M547.94 407.026l.226 1.405.233 1.633-.034.317-.102.21-.233.21-.366.167-4.352 1.071M555.33 394.02l-.933.442-.775.611-1.103.878M546.892 400.747l.253-.121.336-.19 1.974-1.64 1.963-1.732.763-.763.338-.35M546.892 400.747l1.048 6.279M557.376 393.179l-1.399.513-.647.327M565.89 384.014l-.63 1.053-.975 1.526-1.175 1.773-1.337 2.022-.74 1.047-.538.52-.503.358M557.376 393.179l1.399-.43 1.217-.436M565.89 384.014l.279-.46M568.854 380.021l-.663.9-1.435 1.889-.587.744M561.16 382.867l1.571-.119 1.003-.144.473-.042h.72l.454.23.4.278.388.484M576.316 394.18l5.364-2.84" clip-path="url(#p03f3b776a9)" style="fill:none;stroke:#000"/><path d="m562.978 397.248-2.701 1.594-.43.147-.267-.04-.26-.187-.203-.336-.911-2.518-.83-2.73M493.15 388.001l4.838-.546M503.544 389.365l-.902-.218-.533-.133-1.726-.504-1.534-.603-.861-.452M584.723 333.095l-.375 4.353M584.723 333.095l-4.55-1.074M585.625 324.419l-.534 4.89-.368 3.786M590.762 334.382l-2.57-.497-3.47-.79M600.388 339.829l1.489 1.053 1.926 1.26M518.591 357.72l-.629 1.454-.497 1.513-.714 2.688-.521 2.033M509.619 338.87l-.077 1.638M509.619 338.87l-.724-.19M509.87 336.486l-.01.147-.241 2.237M511.227 323.865l.05-.68v-1.55l-.635-6.256M509.97 334.999l-.1 1.487M509.97 334.999l-2.44-.478M511.227 323.865l-.01.142-.11.75-.254 1.623-.133 2.276-.437 3.607-.314 2.736M561.16 382.867l-.017-.487.006-.376.024-.35.212-.69.527-1.816.484-2.687.46-3.33.388-2.941M564.088 366.11l-.293 1.462-.309 1.565-.242 1.053" clip-path="url(#p03f3b776a9)" style="fill:none;stroke:#000"/><path d="m557.624 368.858 1.902.618 1.744.387 1.974.327M548.987 364.808l-2.435-1.31M548.987 364.808l1.151-2.73M557.624 368.858l-3.16-1.27-2.369-1.087-2.247-1.197-.861-.496M565.103 362.219l-.225.986-.79 2.906" clip-path="url(#p03f3b776a9)" style="fill:none;stroke:#000"/><path d="m558.927 364.604 1.725.554 3.436.953M536.931 358.497l4.198.803M550.138 362.079l2.484-10.895M541.13 359.3l1.012.254 2.028.503 1.938.581 2.179.787 1.851.654M558.927 364.604l-2.816-1.097-2.628-.931-1.938-.352-1.407-.145M557.624 368.858l1.303-4.254M583.992 311.692l2.332.315.264.078.114.081.07.117.018.263.009.3-.314 3.196M585.625 324.419l.394-4.189.466-4.188" clip-path="url(#p03f3b776a9)" style="fill:none;stroke:#000"/><path d="m592.925 317.026-2.97-.477-.068-.011-3.402-.496M583.468 315.63l1.636.206 1.38.206M582.955 390.683l-1.275.658M581.68 391.34l4.073 12.297M549.365 338.957l-2.265 1.937-2.822 2.361-1.404 1.174M545.878 349.21l-.778-.774-.641-.924-1.585-3.083" clip-path="url(#p03f3b776a9)" style="fill:none;stroke:#000"/><path d="m538.75 337.725.019.161.427.758.565.882 1.211 1.622 1.339 2.197.563 1.084M548.457 350.312l-1.115-.435-1.464-.666M541.13 359.3l1.289-7.147 3.459-2.942M566.798 354.495l.963-3.166M565.418 360.615l.441-2.083.57-2.82.37-1.217M561.742 353.206l2.398.581 1.72.442.938.266M552.622 351.184l.727-3.42M557.188 352.153l-2.095-.473-2.47-.496M548.457 350.312l1.938.4 2.227.472M554.367 334.902l-1.829 1.271-2.071 1.694-1.102 1.09" clip-path="url(#p03f3b776a9)" style="fill:none;stroke:#000"/><path d="m549.59 347.134.15-1.845-.096-2.446-.279-3.886M549.59 347.134l3.76.63M548.457 350.312l.569-1.404.565-1.774M553.35 347.765l4.608 1.12M558.984 342.755l-2.902-.57-.909-.153-.214.058-.144.305-.527 1.877-.939 3.493M567.76 351.33l-5.175-1.429M569.311 344.877l-.726 2.954-.824 3.498M569.311 344.877l-5.22-1.08M559.58 342.871l4.511.927M559.58 342.871l-.596-.116M559.58 342.871l-1.622 6.014M557.958 348.885l4.627 1.016M557.958 348.885l-.77 3.268M557.188 352.153l4.554 1.053M557.188 352.153l-.58 2.35M561.742 353.206l.843-3.305M564.091 343.798l-.478 1.994-1.028 4.11M561.113 331.718l1.296 3.898 1.371 4.133.384 1.11.134 1.028-.207 1.91M556.655 333.643l2.435-1.09 2.023-.835M554.367 334.902l1.272-.8 1.016-.459M558.516 339.067l-.474-1.526-.708-2.003-.679-1.895M580.172 332.021l1.747-8.335M578.82 339.462l.389-2.254.43-2.115.533-3.072M578.215 342.71l.605-3.248M584.11 340.216l-2.833-.375-2.457-.379M584.11 340.216l.238-2.768M579.278 365.626l2.29-4.092 1.489-2.796.557-1.102.351-1.1.036-1.08-.144-2.698-.11-2.034-.073-3.644.098-2.93.338-3.934M600.388 339.829l-3.634-2.639-2.095-1.677-.57-.38-.52-.25-.932-.174-1.875-.327M589.52 347.484l.246-3.103.388-3.426.411-3.765.197-2.808M592.007 325.436l-.715 5-.53 3.946M589.52 347.484l3.848.62M583.498 368.783l1.191-2.198 1.51-3.163.602-2.25 1.012-3.372 1.707-10.316M579.278 365.626l4.22 3.157M568.854 380.021l.348-.474 1.781-2.19 1.9-2.192 1.733-1.925 1.744-2.517 1.538-2.47 1.38-2.627M583.498 368.783l-.163.294" clip-path="url(#p03f3b776a9)" style="fill:none;stroke:#000"/><path d="m552.09 329.95 1.332 2.652.945 2.3M546.844 319.68l.498 1.543.618 1.755.678 1.49 1.781 2.783 1.67 2.7" clip-path="url(#p03f3b776a9)" style="fill:none;stroke:#000"/><path d="m555.163 323.94.019.194.063.17.23.32.642.914.239.612-.006.17-.015.114-.058.103-.193.193-.506.497-2.24 1.949-1.248.775M538.75 337.725l-.03-.268.06-.793.127-.83.261-.744.545-.605.55-.364 7.516-3.49M583.992 311.692l-.524 3.938M579.07 306.788l4.025 1.047.736.295.43.774.006.818-.275 1.97M579.07 306.788l-5.048-1.178M576.796 314.723l1.15-3.863 1.124-4.072" clip-path="url(#p03f3b776a9)" style="fill:none;stroke:#000"/><path d="m578.882 295.236 1.232 5.528.124.627.027.36-.015.447-.063.706-.185.74-.932 3.144M571.354 304.988l.583-2.078.07-.93-.106-.713-.86-1.287-2.716-4.133M571.354 304.988l-6.804-1.588M571.354 304.988l2.668.622" clip-path="url(#p03f3b776a9)" style="fill:none;stroke:#000"/><path d="m569.378 313.644.818-3.607.69-3.038.468-2.011M576.796 314.723l-1.95-.346-2.18-.296-3.288-.437M565.744 313.264l2.042.26 1.592.12M575.064 322.566l.799-3.28.933-4.563M583.468 315.63l-1.73-.242-2.672-.351-2.27-.314M583.468 315.63l-1.55 8.056M607.087 319.924l-2.124-.28-2.455-.324-2.283-.447-1.703-.423-2.203-.53-3.394-.894M592.007 325.436l.405-3.868.513-4.542M597.878 310.313l-1.259 1.568-1.33 1.134-1.272 1.03-.485.66-.176.537-.431 1.784M620.068 331.803l-3.682-1.416M585.625 324.419l2.9.484 3.482.533M605.522 327.372l-3.318-.387-4.481-.714-5.716-.835M581.919 323.686l1.925.394 1.78.339M575.064 322.566l3.252.497 3.603.623" clip-path="url(#p03f3b776a9)" style="fill:none;stroke:#000"/><path d="m564.152 320.436 3.33.496 3.67.654 3.912.98M548.36 317.9l-.58-6.576M546.467 317.814l.52.107.635.012.738-.034M558.935 319.48l-1.916-.425-3.924-.69-1.998-.278-2.737-.187M559.399 312.434l-2.058-.29-1.533-.17-1.993-.152-2.33-.193-3.705-.305M540.755 311.212l1.162.028 1.829-.035 2.58.091 1.454.028" clip-path="url(#p03f3b776a9)" style="fill:none;stroke:#000"/><path d="m547.37 304.974-.142.173-.164.43v.453l.048.655.668 4.64M559.399 312.434l-1.3-1.589-1.574-1.466-1.609-1.43-1.109-1-.608-1.073-.5-1.358-.751-8.292M565.744 313.264l-3.742-.485-2.603-.345M564.55 303.4l-1.124 3.942M561.469 302.213l-.096.299 3.177.888M558.935 319.48l2.633.508 2.584.448M565.744 313.264l-.223 1.94-.364 1.71-.508 1.73-.497 1.792M602.58 336.403l-1.042 1.562-1.15 1.864M610.681 328.353l-2.906-.521-2.253-.46M607.14 325.2l-.83 1.082-.503.685-.285.405M604.07 334.393l.423-1.368.4-1.307.268-1.498.174-1.226.187-1.622M612.171 316.943l.127 1.12-.03 1.06-.127.677-.315.666-.697.884M607.14 325.2l1.222-1.453 1.15-1.102 1.617-1.295M618.057 322.918l-.46.127-.527.036-.545-.091-.672-.169-1.387-.424-1.744-.466-1.593-.581M607.14 325.2l-1.042-.945-.836-.845M604.07 334.393l5.116 2.326M602.58 336.403l.823-.944.666-1.066M610.681 328.353l1.308.29 1.575.449 1.392.532 1.43.763" clip-path="url(#p03f3b776a9)" style="fill:none;stroke:#000"/><path d="m613.603 338.037.44-1.129.46-1.316.466-1.38.545-1.453.4-1.113.472-1.26M613.603 338.037l-.79-.179-.95-.278-1.21-.404-1.467-.457M610.681 328.353l-.326 2.76-.267 2.082-.432 2.06-.47 1.464M598.035 334.477l1.185.244 1.216.465 2.143 1.217M387.748 231.093l.242-1.026 1.26-8.994.266-5.932-.194-3.366-.181-1.997-.013-2.336.183-1.743.399-1.877.872-1.513 1.38-2.01.933-1.585.799-2.712.727-3.1.787-3.135.424-2.372.194-2.82.327-2.01.569-2.034.666-1.513 1.042-1.683 1.44-2.409.8-2.119.606-2.118.387-2.264.824-3.22 1.659-5.968 1.199-4.806.436-2.433.23-3.293.012-4.673.157-2.506.28-3.135-.23-2.918-.437-4.14-.29-3.329-.097-2.93-.031-1.93.273-1.52.653-2.263.897-1.768 1.865-2.01 2.313-2.142 2.156-1.816.508-.605.2-.538.17-.649.327-2.263.175-1.72.23-2.25.23-1.695.418-2.78.145-.98.139-1.083M370.636 327.237l.508.837 1.502 2.785 1.187 2.119 1.21 1.306 2.544 1.635 3.161 1.9 2.785 1.853.406.556.321.618.097.605.048.86.037 1.84M386.006 355.2l-.547-2.648-.775-5.423-.145-1.623-.097-1.355" clip-path="url(#p03f3b776a9)" style="fill:none;stroke:#000"/><path d="m386.313 341.901-.242.362-.509.652-.527.576-.594.66M386.155 355.832l-.15-.633M386.155 355.832l-6.682.888M367.158 357.578l-.29-.702-.24-.571-.407-1.241-.587-1.326-.902-1.35-.848-.768-1.332-.872-3.718-1.67-2.507-.932M345.985 342.673l1.01.224 1.327.358.726.405 1.066.672 1.713 1.138 1.478 1.114.588.496.642.394 1.792.672" clip-path="url(#p03f3b776a9)" style="fill:none;stroke:#000"/><path d="m343.603 351.176.268-.028 1.405-.23 1.513-.055 1.992.054.89-.09 1.109-.134 1.078-.338 1.12-.497.763-.32 1.466-.74.678-.392.442-.26M567.138 361.358l.605.103.618.036.708-.132.878-.418 1.213-.624.73-.441M567.138 361.358l-.55.195M565.418 360.615l1.078.471.642.272M565.103 362.219l.042-.183.273-1.421M555.163 323.94l.028-.2.099-.175 1.547-1.64 1.296-1.526.802-.92M555.163 323.94l-1.702-1.785M546.467 317.814l.076.625.17.835.13.405" clip-path="url(#p03f3b776a9)" style="fill:none;stroke:#000"/><path d="m535.692 319.649.648-.09.527-.025.448.072 1.363.34.81.042 2.066-.181 1.907-.17 1.235-.248.551-.05.6.025.448.098.549.217M540.755 311.212l.284.544.188.448.58 1.06.703 1.022 1.399 1.392 1.557 1.514.683.557.318.065M547.37 304.974l.173-.21.09-.271.03-.628-.084-.96-.127-.75-.13-.468-.219-.244-.233-.098-3.282-.883-2.446-.654-1.744-.4-1.575-.393-.908-.096-.708.114-.879.273" clip-path="url(#p03f3b776a9)" style="fill:none;stroke:#000"/><path d="m536.705 305.032-.056-.515-.411-1.805-.704-2.917-.206-.49" clip-path="url(#p03f3b776a9)" style="fill:none;stroke:#000"/><path d="m535.338 283.644-.272.977-.688 1.773-.434 1.575-.344 1.72.344 4.759.236 1.52.198 1.22.502 1.422.448.696M536.705 305.032l-.02.453-.4 2.433-.063.933.01.533.06.202.126.166.543.382 2.122.702 1.672.376M612.873 340.301l.412-.944.318-1.32M298.275 369.258l-8.126 1.605M298.275 369.258l8.512-1.837M296.863 363.889l.573 3.134.839 2.235M215.977 387.505l1.161.02 1.163-.073 1.218-.193M274.772 374.048l-.307.064-5.22 1.15-8.865 1.84-4.82.884-5.087 1.138-2.81.69-3.439.799-2.822.86-4.504 1.427-7.316 1.852-7.187 1.762-2.876.745M260.007 630.138l-3.83-.704-3.414-.969-4.073-.637-4.558-1.101-2.422-.308-1.85-.528-2.136-1.211-2.246-1.871-3.787-2.641-7.289-4.93-4.491-4.094-1.894-1.233-1.828-1.035-1.783-.484-2.687-.748-2.224-.594-2.004-.814-1.87-1.277-3.554-3.82-1.187-1.998-2.543-4.37-5.28-10.12-1.514-3.147-1.09-3.015-.497-2.216-1.793-8.425-1.501-5.907-.436-2.488-.018-1.428.164-1.199 1.162-3.735 1.575-3.644.242-1.16.145-1.454.085-4.418-.472-5.653-.206-.923-.751-1.414-1.926-2.445-1.295-2.313-1.696-4.95-.951-2.53-.872-2.276-1.653-3.632-1.03-2.264-.436-1.525-.011-1.416.217-3.003.243-3.123-.049-5.253.436-2.737 1.599-9.079.957-4.902.024-.993-.218-1.537-.315-2.264-.182-1.585.28-1.502.87-2.119 1.164-2.009 1.598-1.574 2.07-2.155 1.975-3.256.823-2.24.097-1.742-.06-3.572.12-4.927.316-3.256.412-3.317.969-4.213 2.13-4.358 13.565-21.547 2.216-2.772 1.115-1.32 1.864-2.942 2.435-3.8 1.247-2.592 1.078-3.74 1.163-4.019.702-3.401.218-1.465.158-1.5M464.524 341.16l.273-1.092.302-1.522M466.934 330.084l-1.338 5.968-.497 2.494" clip-path="url(#p03f3b776a9)" style="fill:none;stroke:#000"/><path d="m469.58 330.95.139.205.018.23-.145.763-1.35 6.07-.242.812-.155.172-.181.049-.385-.049-1.327-.396-.853-.26" clip-path="url(#p03f3b776a9)" style="fill:none;stroke:#000"/><path d="m466.934 330.084 2.337.696.309.17M468.733 321.437l2.974.848-2.127 8.664M461.102 328.304l.17-.776M466.934 330.084l1.799-8.647M464.524 341.16l1.035.043 1.017.109" clip-path="url(#p03f3b776a9)" style="fill:none;stroke:#000"/><path d="m464.56 344.895.34-.357.502-.678.732-1.458.442-1.09M464.524 341.16l-.116.854.02.823.055.74.053.486.024.832M454.485 353.144l2.633.59M444.085 350.83l2.52.535 5.1 1.15 2.78.63M454.962 350.906l-.254 1.271-.223.967M457.118 353.734l.06-.752v-.466l-.133-.66-.285-.37-.248-.169-1.55-.411M473.302 351.598l-.151-.178.2-.887-.289-.56M445.455 342.992l.121-.39.4-1.95.654-3.51-.018-.612-.11-.847M444.085 350.83l-.563-.14M445.455 342.992l-.302.977-.291 1.392-.376 2.712-.4 2.757M419.009 325.676l-.233-.543-.342-1.353M503.248 363.556l1.132.202M503.248 363.556l-.43 3.105M463.403 355.206l.606-2.11.642-2.045.533-1.525.533-.993.714-1.138.678-1.537.763-1.707M274.772 374.048l.61-.129M270.686 382.44l.92-.447 1.114-.787 1.175-1.126.63-1.392.448-1.719-.012-1.453-.189-1.468M290.149 370.863l-.43-.818-.383-.672-.224-.6-.345-1.174-.872-3.305-.32-1.313-.167-.636-.1-.244-.148-.094-.173-.034-.27.02-.478.032-1.096.07M280.78 372.789l.794-.166 6.345-1.32 2.23-.44M315.43 365.555l-2.235.434-4.033.92-2.375.512" clip-path="url(#p03f3b776a9)" style="fill:none;stroke:#000"/><path d="m296.863 363.889.51.17.447.017.636-.187 1.653-.382 2.949-.61 1.018-.158.623.018.387.067.285.163.194.308.176.485.23 1.295.224.968.224.636.368.742M284.044 334.613l16.556-2.217 2.337-.266 3.887-.581 4.82-.75 3.537-.522 2.301-.338M318.1 341.844l-.183-.623-.12-.696-.17-2.173-.2-1.356-.097-.926.092-.411.078-.818-.018-1.476.06-1.961-.06-1.465M318.184 327.33l-.224.376-.211.399-.085.345-.11.544-.072.945" clip-path="url(#p03f3b776a9)" style="fill:none;stroke:#000"/><path d="m342.595 340.15-.231-.176-1.636-1.138-2.04-1.174-1.447-.793-1.012-.345-1.647-.357-1.495-.484-2.144-.587-1.714-.593-3.275-1.399-2.871-1.422-1.72-1.09-1.277-1.065-1.03-.926-.423-.448-.2-.315-.25-.508M313.364 324.697l1.487.98.817.603.533.311.346.103.305.013.714-.082.246.033.197.143.078.184.097.345M312.871 306.415l.257.435.624 1.468.66 1.604.569 1.616.575.854.218.878.394 2.269.303 1.011.871 1.489.909 1.537.653 1.495.206 1.096.255 1.525-.085.738-.103.4-.327.702-.351.86-.315.938M342.595 340.15l1.07.811.823.835.776.563.72.314M343.603 351.176l.87-1.593.692-1.844.589-1.228-.205-1.842.436-1.996M377.363 383.815h-.617M377.957 383.264l-.34.332-.254.219M377.957 383.264l-.39-1.864M316.247 377.683l-.037 4.697M316.247 377.683l.048-4.794M316.247 377.683l-.901.107M321.502 377.29l-2.052.145-1.51.13-1.693.118M316.295 372.89l-.998.238M316.31 365.384l.009 2.336-.024 5.17" clip-path="url(#p03f3b776a9)" style="fill:none;stroke:#000"/><path d="m321.835 371.834-1.326.316-2.228.412-1.986.327M316.31 365.384l-.88.17M322.06 364.466l-4.566.688-1.185.23M321.502 377.29l.097-2.137.236-3.319M322.06 364.466l-.036 3.146-.037 1.743-.152 2.48M321.502 377.29l-.2 4.553M387.748 231.093l-.617 2.606-.436 2.227-.146 1.623.218 1.331.508 2.034.678 2.179.412 2.203-.023 1.646-.485 2.918M383.649 259.975l.333-.66.992-2.07 1.054-1.925.884-1.901.582-1.44.363-2.119" clip-path="url(#p03f3b776a9)" style="fill:none;stroke:#000"/><path d="m378.54 255.048-.305-2.922.579-2.557 1.583-1.126 1.34-.304 2.04 1.187 2.131.578 1.949-.044M383.649 259.975l-.345.684-.788 1.937-.508 2.481-.4 2.227-.4 1.272-1.295 4.6M370.636 327.237l-1.417-2.334-1.284-1.634-1.441-1.598-.363-.654-.237-.599-.09-.666.042-.95.538-3.015 2.108-7.602 1.744-6.682 1.828-5.527 2.29-6.046 1.465-3.716 1.138-2.47.884-1.78.557-1.985.654-3.184.86-3.62" clip-path="url(#p03f3b776a9)" style="fill:none;stroke:#000"/><path d="m394.66 275.5-2.619.395-1.675.061-2.497-1.279-4.719-.334-3.237-1.167M313.364 324.697l-6.11-2.567M315.737 320.968l-1.766.818-1.092 2.784.485.127M318.86 352.852l-.204-.079-.117-.145-.046-.33-.055-.666-.109-2.397.037-4.733-.042-1.423-.079-.744-.145-.49M297.935 344.444l3.72-.578 13.134-2.065 1.55-.474 1.76.517" clip-path="url(#p03f3b776a9)" style="fill:none;stroke:#000"/><path d="m325.167 352.755-2.44.088-2.563.132-.887-.063-.418-.06" clip-path="url(#p03f3b776a9)" style="fill:none;stroke:#000"/><path d="m320.76 355.978-.815-.713-.563-.973-.523-1.44M294.917 356.779l.05.325.412 1.815.45 1.962.483 1.422.146.66.187.665.218.26M214.44 165.701l1.377 8.61 1.464 9.812 3.79 8.265 6.028 7.317 10.42 11.622 5.482 1.83 2.441 2.473 2.5 3.87 4.742 2.971 1.434 3.685.357 3.298 5.02 4.021 1.894 4.044 3.226 2.866 3.38 5.63 5.428 4.045 5.94 2.969 2.662 3.378 2.128 4.106 3.505 3.367 4.046 5.528.54 3.065 1.56 3.18 4.71 6.347 4.25 5.17 3.227 7.115 3.072 4.862 3.808 7.268M328.317 277.854l.358 3.89v4.3l-.92 4.401-2.612 4.403-3.435 3.35-.872 1.803-.58 1.066-.564 1.24-.624.764-1.193 1.107-1.67.69-1.896.69-.92.43-.185.26-.333.167M346.662 374.736l.067.462.091.694.085.728.108 1.006.183.801.26.376.254.35" clip-path="url(#p03f3b776a9)" style="fill:none;stroke:#000"/><path d="m347.356 374.623.27 1.94.157 1.108.042 1.005-.115.477M388.317 338.364l.067-.245.06-.33-.088-.478-.457-.605-.624-.442-.878-.345-.514-.164M388.317 338.364l2.731 1.326.611.302.636.521.237.593-.036.775-.237.799-.521.914-.52.387-.297.097-.376-.006-.672-.2-.884-.314-1.531-.872-1.145-.785" clip-path="url(#p03f3b776a9)" style="fill:none;stroke:#000"/><path d="m388.317 338.364-.467 1.071-.532 1.017-.702.999-.303.45M412.514 305.962l-2.603-1.034-2.24-1.04-1.394-.557-1.211-.146-1.041.025-1.732.363-.763.254M355.096 359.052l-5.476.824-4.221.615M355.096 359.052l12.062-1.474M376.68 356.366l-4.117.552-5.405.66M386.006 355.2l-6.691.782M412.3 351.47l-7.145 1.05-5.877.77-6.821.997-2.922.39-3.53.522M423.877 349.788l-9.265 1.343M423.877 349.788l.807.205M333.355 352.039l1.475 2.663M338.55 351.62l-2.623.163-2.277.227-.295.029M328.543 352.52l3.06-.307 1.752-.174M340.281 361.25l.498.642M334.83 354.702l1.72 3.104.43.49.836.672.999.75.653.685.813.847M340.281 361.25l4.439-.671M340.779 361.892l4.07-.547M379.473 356.72l-.158-.738M379.473 356.72l-2.66.376M379.315 355.982l-2.635.384M376.814 357.096l-.134-.73M117.932 340.518l9.339 3.757 6.57 2.512 6.248 3.475 15.906 12.12 3.515 1.737 4.2 1.065 4.74.46 4.914.676 5.457 2.296 30.3 17.238 1.853.732 1.575.443 1.986.375 1.442.1M201.388 396.216l3.32-2.25 3.1-1.502 2.373-1.283 1.914-.92 2.016-.963 1.15-.533.292-.284.217-.345.207-.631M424.544 373.136l-.307.407-.799 1.67-.695 1.137M512.573 354.113l-9.3-6.697M347.356 374.623l-.694.113M347.356 374.623l-.568-4.113M346.662 374.736l-.59-4.09M346.788 370.51l-.717.137M346.788 370.51l-.513-3.7M345.581 366.938l.337 2.647.153 1.062M345.814 363.473l-.665.135M345.814 363.473l.461 3.337M345.15 363.608l-.3-2.263M345.581 366.938l-.209-1.639-.223-1.691M346.275 366.81l-.694.128M344.85 361.345l-.13-.766M414.612 351.131l.037.54M414.612 351.131l-.196.03-2.116.31M414.649 351.671l4.275-.623M414.649 351.671l-2.3.334M412.3 351.47l.049.535M320.604 398.15l-.652 14.53M320.604 398.15l.29-6.476M320.604 398.15l-4.793-.069M314.826 398.035l.985.046M314.826 398.035l-.172 6.04M314.826 398.035l.175-6.08M320.894 391.674l.182-4.648M320.894 391.674l-4.919.246M315.975 391.92l-.164 6.161M315.975 391.92l.097-4.529M315.975 391.92l-.974.035M315 391.955l.093-4.537M307.696 388.082l7.397-.664M315.093 387.418l.98-.027M315.093 387.418l.129-4.928M316.072 387.391l.138-5.011M316.072 387.391l5.004-.365M321.076 387.026l.227-5.183M321.303 381.843l-5.093.537M313.195 382.731l2.027-.24M315.222 382.49l.988-.11M315.222 382.49l.124-4.7M311.705 378.156l3.64-.366M310.688 374.087l4.609-.96M314.654 404.076l-.418 9.911M315.81 398.081l-.024 1.78-.06 1.246-.073 1.078-.218 1.02-.218.36-.254.27-.31.24M315.297 373.128l.049 4.662M315.43 365.555l.012 2.298-.145 5.275M345.399 360.491l-.115.002-.564.086M504.38 363.758l.912-5.68M480.651 352.805l-.506.422-1.038.13-.398.597M473.302 351.598l.808.944 4.599 1.412M477.924 357.216l.495-1.978.29-1.284M480.651 352.805l.556.099" clip-path="url(#p03f3b776a9)" style="fill:none;stroke:#000"/><path d="m477.924 357.216 1.799-1.38.615-1.755.313-1.276M473.302 351.598l.337-.051 7.012 1.258M477.924 357.216l-.464.358-.235.625M470.612 351.762l1.868-.215.822.051M443.522 350.69l-2.294 6.669M441.228 357.359l-.957 2.78-2.498 6.479M441.228 357.359l-5.52-.912M429.121 364.2l-1.089-.333-4.598-1.34-1.159-1.917-5.286.29M429.121 364.2l-4.04 2.462M425.082 366.662l-.13.078-2.279.512M426.707 370.645l-.034-1.066-.326-.707-.815-.705-.45-1.505M424.544 373.136l.94-1.251 1.223-1.24M426.854 379.768l-.561-1.63-.906-2.424-.843-2.578M419.009 325.676l-5.423 1.568M275.382 373.92l5.398-1.131M307.253 322.13l-.731 3.1-1.55 1.463-4.22 1.162-21.272 2.282-2.886 26.212-1.212 17.57M275.82 309.778l4.865-.819 2.369 1.163 3.272 4.261 3.833.258 3.445 1.808 2.799 2.152 2.067.69 2.756.73 1.55-.172 4.477 2.281M280.78 372.789l-1.042-8.047M294.917 356.779l-15.437 2.282" clip-path="url(#p03f3b776a9)" style="fill:none;stroke:#000"/><path d="m297.935 344.444-5.584.867 2.29 9.674.276 1.794M308.884 357.056l10.908-.99M334.83 354.702l2.616-.205M334.83 354.702l-3.218.292M349.876 353.524l-8.217.643M338.55 351.62l-1.104 2.877M343.603 351.176l-2.318.25-2.144.158-.59.037M337.446 354.497l4.213-.33M337.125 356.903l.103-.666.218-1.74M319.792 356.066l.967-.088M318.102 361.637l.588-.563.282-.973.18-2.047.64-1.988M328.543 352.52l-1.785.177-1.591.058M327.607 355.357l-1.747-1.295-.693-1.307M327.607 355.357l4.005-.363M327.607 355.357l-6.848.62M331.612 354.994l-2.168-1.24-.901-1.235M402.292 382.414l-1.259-.155-.445-.084M385.188 378.856l-.35-.066M386.483 386.543l-.64-3.956-.365-.822-.29-2.909M401.423 389.091l-.507-1.27 1.376-5.407M401.423 389.091l.101.252 2.162 1.43 1.492 1.462 1.797 1.735 1.614 3.5 3.014 3.347.761 2.648 1.126.822.906 1.224M426.491 427.752l-5.51-6.36-2.558-3.379-3.288-5.478-.944-2.556.205-4.468M368.185 393.396l.497-2.579M363.434 380.69l1.25.259.457.608 1.004 2.1 5.329-.06 3.379-.884 1.797-.669.918-.644M363.434 380.69l-.364-.076-4.537.06-1.491 1.522-1.614.792-2.193-.944-.517-2.709-.305-2.161-.548-.973" clip-path="url(#p03f3b776a9)" style="fill:none;stroke:#000"/><path d="m363.563 365.062-.029 10.34-.333 2.789.233 2.499M373.43 384.055l-.83.272-2.192 1.278-1.127 2.1-.6 3.112M357.11 391.755l2.558.045 2.1.844.768-.28 4.864-.461 1.282-1.086M373.43 384.055l.754-.245 2.562.004" clip-path="url(#p03f3b776a9)" style="fill:none;stroke:#000"/><path d="m373.43 384.055-1.37 1.756-.64 2.125 1.357.383 1.893-.932 2.076-3.573M299.417 341.758l-.862-1.248-.645.3.025 3.634M343.603 351.176l-1.944 2.991M370.636 327.237l-.584.72-.948.512-1.1.153-1.588.077h-2.458l-3.61.025-3.483.896-2.253 1.408-1.254.921-.692 1.51-1.305.46-.23 1.69-4.123 1.996-4.413 2.545M383.673 323.068l-.999-.153-1.843.28-1.92.078-1.844.691-1.51.666-2.075.307-1.715 1.765-1.131.535M418.924 351.048l.294 2.466M419.558 356.354l-.34-2.84M391.638 375.083l-5.037.463M422.161 356l-1.826-1.4-1.117-1.086M386.6 375.546l-.281-2.56M384.838 378.79l-.055-2.528 1.818-.716M383.649 259.975l-.298-1.336-.853-2.282-.823-1.613-1.248-.427-1.888.731M369.223 260.1l.578-1.034 1.157-.822 1.34-.548 1.918.244 1.979-.518 1.614-.883.73-1.49M419.98 210.673l-1.675.913-5.937 3.866-4.202 4.564-4.842 2.01-2.922.943-1.888.03-1.736 2.192-2.831 2.07-2.254 2.647-3.945 1.185M559.293 339.197l.39.272.045.353-.472 1.827-.272 1.106M580.247 335.914l1.055.323 1.421.624 1.625.587M507.53 334.52l.271.783M506.515 337.685l-1.087-1.034-.886-.95-.447-.569-.2-.315-.045-.245.072-.167.137-.084.324-.04.833-.027 1.468.102.846.165M508.457 337.831l.438.85M508.457 337.831l-.53.558M507.801 335.303l.063.182.216 1 .377 1.346M509.87 336.486l-.779.614-.074.366-.56.365M507.927 338.389l.406.143.562.148M506.515 337.685l.574-1.274.712-1.108M507.927 338.389l-.46-.163-.844-.438-.108-.103M519.074 322.306l-4.284.668-3.563.891M522.204 352.538l-2.57 3.707M465.764 320.59l2.969.847M461.272 327.528l1.211-5.53.548-2.188 2.733.78" clip-path="url(#p03f3b776a9)" style="fill:none;stroke:#000"/><path d="m423.91 326.202 3.467-1.895.215-1.592.56-1.506 1.27-.409 1.4.646 1.894.817h2.261l3.057.99 2.196.905.926-.216.861-.538 2.37-1.29 1.355-.238 1.98-.366 2.455-.86 2.455-.366 2.153 1.075 3.186 2.54.862 1.377 1.356 1.4 1.083.852M588.244 372.448l-.237-.008-3.911-2.335-.761-1.028M588.244 372.448l1.682.065 1.448-.037M592.008 377.814l-1.81-2.116-.888-1.684-1.066-1.566M547.37 304.974l4.263-.03M547.37 304.974l-10.665.058M532.477 281.906l1.521.905.688.58.652.253M531.01 280.314l1.25-.344.652.38 1.702.815.96.723.253.923.362.2-.85.633M561.469 302.213l2.692-8.398-1.611-.779-1.956-1.465-1.304-1.702M558.368 305.722l2.37-1.774-.017-.669.29-1.104.458.038M558.368 305.722l-.815.96M558.368 305.722l.252 1.393" clip-path="url(#p03f3b776a9)" style="fill:none;stroke:#000"/><path d="m560.449 301.868-.579-.11-.742.29-.852.399-.27.923.017.94.345 1.412M535.447 330.497l.652 2.118 1.593 3.455 1.059 1.655M572.814 303.152l.344.29.363 1.031.5 1.137M565.103 362.219l.653-.293M565.756 361.926l.832-.373M565.756 361.926l.92.136M566.676 362.062l.345.05 1.285.525M566.588 361.553l.088.509M566.666 377.444l-.133-.37.025-.393.309-.357.462.103.417.923.416 1.756.692.915M117.932 340.518l.002-3.303 2.58-3.56 2.857-.63 2.605-2.25" clip-path="url(#p03f3b776a9)" style="fill:none;stroke:#000"/></g><g id="PatchCollection_1"><path d="m250.461 605.722-.844 1.51-7.985 12.308-.718 1.796 5.703.675 2.704-4.92 2.144-3.219 1.394-.813 1.194.095 3.622.211 1.69-1.72.359-1.257-.085-1.742zM252.848 587.956l-.052.514-.014 1.341-.132 1.712-.486 1.5-.5 2.973-.923 4.62-.158 1.566-.368 1.514-.079.841.04.422.645.473 1.777.724 10.203 3.224.25-2.724-1.935-.513-1-.316-.961-1.013-.304-.593-.012-2.645 1.79-5.856.474-1.092.514-.934.197-.645-1.62-3.75-.316-.475-.368-.158-6.267-.894zM249.176 584.43l-.094.119-.024.275.158.401.322 1.307.142.212.095.394.015.487-.118.944.04.347.165.385.464.488.339.134.197-.016.133-.173.087-.575-.047-.417-.063-.96.173-.495.236-.315.11-.37.221-.527.024-.386-.142-.44-.26-.457-.212-.228-.379-.142zM484.89 322.999l-1.177.416-2.148 1.454-.624.694-.589 1.073-.693.554-.693.312-1.143 1.073-.832.832.069 1.524 1.837 1.246 1.005.902.485-.832 1.073-1.108.313-1.94.38-1.628.833-.83 1.94-1.04.9-1.178-.069-.624-.415-.657z" clip-path="url(#p03f3b776a9)" style="fill:#00f;fill-opacity:.8"/></g><g id="PatchCollection_2"><path d="m43.564-114.3-2.64 8.07 4.037 6.303 8.106 7.605 5.668 3.182 8.089-.978 1.592 1.723 1.84-1.071 1.499-.854.007-2.592-2.95-7.326 5.543-.799 3.513 2.74 3.39 3.55 3.481-3.499-1.362-6.043-1.708-9.98-22.546 7.45-4.038-.714.59-4.036-1.8-4.25-4.013-2.653-.808 3.08-1.533 1.651zM24.586-61.394l6.359-9.765 1.878-19.3 5.116 1.618-2.197 22.073 4.51 3.987 6.185.405 4.278-3.294 7.745.463 3.526 7.916L76.44-33.08l-16.013-.115-9.018-6.82-14.394-4.853-5.55 1.04zM567.71 354.678l-1.365 3.57 1.208.892-.945.735 2.258.368.21.63.84-1.837.946-.21.84.367.84.84-.63 1.365-1.26 1.05-.736 1.26-1.68-.21-.368.84-.945-.316-.893 2.573-1.26 1.942.42 1.995-.788 3.202.473.841 2.1.42 1.313 2.52.841-.316 1.26-1.942.788-1.26.998-.735.893 1.103 2.626-3.465.472-1.575-.735-.735.473-.945-.42-1.785 1.785.63 1.104-.63.315-1.575.104-2.1.946-1.785-.63-.367.262-1.05.262-.735.789.525.524-.63 1.104-1.155-.21-1.995.157-1.628.788-1.207.315-.735-1.68-.63-.683-.367v-1.418l-.893-.472.682-1.89 1.471.42.053-1.155.683.21.367-1.522-1.523-.263.42-2.1-1.575-1.313-1.209.735.368.84.367 1.26-.682.787-1.366-1.416-.472-.316.788-2.834.735-5.67-4.622-.945z" clip-path="url(#p03f3b776a9)" style="fill:#006400;fill-opacity:.8"/></g><g id="PatchCollection_3"><path d="m534.81 409.993.483 3.45-2.37.46-.713-3.358zM584.434 311.89l-.5 3.448 2.33.337.5-3.448z" clip-path="url(#p03f3b776a9)" style="fill:green;fill-opacity:.8"/></g><g id="PatchCollection_4"><path d="m571.05 399.195 2.162 9.128 5.685-1.346-2.163-9.127zM586.047 325.31l-.803 7.41 5.297.951.957-7.684zM582.333 324.147l-.416 2.13 2.91.468.313-2.01z" clip-path="url(#p03f3b776a9)" style="fill:#90ee90;fill-opacity:.8"/></g><g id="PatchCollection_5"><path d="m581.53 313.792-.157 1.05 1.694.315.184-1.141zM583.829 320.026l-.092.761 1.719.368.158-.88z" clip-path="url(#p03f3b776a9)" style="fill:#a9a9a9;fill-opacity:.8"/></g></g></g><defs><clipPath id="p03f3b776a9"><path d="M107.89 86.4h522.221v554.4H107.89z"/></clipPath></defs></svg>