<svg xmlns="http://www.w3.org/2000/svg" width="960" height="960" viewBox="0 0 720 720"><defs><style>*{stroke-linejoin:round;stroke-linecap:butt}</style></defs><g id="figure_1"><path id="patch_1" d="M0 720h720V0H0z" style="fill:#fff"/><g id="axes_1"><path id="patch_2" d="M91.78 640.8h554.44V86.4H91.78z" style="fill:#fff"/><g id="LineCollection_1"><path d="m305.634 478.828-.764.24-1.955 1.902-.731.615-1.423 1.145-.8.781-.767.926-2.694 3.726M277.537 525.884l.179-.375.36-.57.152-.268.122-.256.185-.362.687-1.527.328-.774.612-1.807 1.788-4.215.418-.787.428-.686 1.087-1.496.412-.638.331-.59.292-.565.635-1.41 3.138-7.06 1.295-3.67.391-.877 3.606-6.175 2.517-3.613M268.939 494.537l5.076-.46.8-.11.798-.173 6.331-1.615.588-.132.58-.075 3.123-.277.59-.108.543-.134.604-.188 6.202-2.233 2.326-.87M222.406 596.439l-4.181-2.861-1.06-.595-.623-.323-.524-.267-.723-.271-3.557-1.217-7.258-3.289-.652-.225M128.882 582.138l.468-.012 1.21-.084 2.427-.235.404-.037.515-.003.799.028 2.638.16 2.158.2 8.65 1.211 1.902.176 7.801.574 13.341.774 6.579.527 11.822.973 7.474.55 1.239.04 2.166.056 1.515.092 1.035.116.803.147M197.756 561.239l.515 4.001 1.2 4.484 4.357 17.667M325.577 463.344l-.113-4.875M326.086 467.267l-.31-1.075-.076-.539-.056-.65-.067-1.659M305.634 478.828l2.482-2.582 2.374-2.29 1.12-1.227.884-.887 2.584-3.187.476-.455.704-.638.746-.601.975-.598 4.337-2.72.295-.2.301-.17.45-.06.474-.083 1.74.214M168.813 402.446l-.111 3.29-.034 3.601-.542 4.848.12 1.9.02 1.467-.5 4.623-.272.834-1.605 3.08-.73 1.028-.542 1.189-1.579 5.58-.52 4.077-.491 2.046-.324.977-1.906 4.28-1.111 1.835-1.531 2.202-1.887 3.574-.883 1.269-2.074 2.313-3.94 5.553-2.91 4.539-1.036 1.404-2.596 2.846-3.12 4.15-1.57 2.689-2.062 2.912-.68.766-1.675 1.328-10.37 7.068-.427.648-.165.78-.396 3.227-1.379 5.337-.587 1.587-.878 1.705-.543.659-2.28 2.303-.624 1.329-2.3 6.458-.49 2.704-.727 1.563-1.343 2.29-1.938 2.294-1.467 1.575-.555 1.033-.876 1.504-2.63 5.201-.196.946v.474l.252 2.067.708 3.757.188 3.111.171 4.531-.171.886-.524 2.002-.148.723-.012 1.603.324 3.466-.064 1.197M118.043 555.534l-7.59-.416-1.015.08-1.551.295-2.862.646-1.286.403-.464.132M167.253 391.02l-.037-.232-.042-.171-.11-.331-1.046-3.101-.14-.38-.152-.38-.204-.46-.714-1.477-1.247-2.988-1.188-3.066M183.675 386.714l-3.996-2.415-.889-.52-4.535-2.327-1.035-.468-.962-.412-.833-.295-.674-.177-.595-.115-3.731-.66-2.235-.29-.699-.117-.566-.152-.299-.144-.253-.188M183.675 386.714l9.951 6.336M167.253 391.02l.535-.208.452-.15.563-.167 3.4-.93 4.492-1.116 6.286-1.546.294-.075.4-.114" clip-path="url(#pa12e2c601a)" style="fill:none;stroke:#000"/><path d="m168.687 399.408-.075-.494-.079-.425-.691-2.88-.312-1.576-.128-.594-.064-.367-.04-.323-.03-.433-.011-.415.006-.61-.01-.271M286.284 399.489l6.71 6.834M286.284 399.489l-.58 1.75M102.442 156.87l24.013 39.435 26.332 43.173 28.104 45.63 2.738 4.275 1.294 1.747 3.615 4.236 17.345 19.716 3.104 3.57 2.88 3.532 11.321 13.545 2.667 3.159 2.058 1.88 2.375 1.894 5.005 3.733 2.349 2.001 2.099 1.974 3.622 3.839 13.894 14.363 21.728 22.75 7.299 8.167M292.42 406.675l.574-.352M285.705 401.24l3.967 3.147 1.46 1.222 1.289 1.066M282.314 408.774l.942.317.883-.214 6.318-1.562.658-.214.452-.112.4-.07.454-.244M299.104 412.649l-.653-.653-4.142-4.376-1.315-1.297M295.082 404.211l-.346.599-1.742 1.513M323.049 438.068l6.958-2.43M324.876 440.321l-.25-.44-.547-.661-.415-.546-.615-.606M299.104 412.649l7.521 7.907 6.676 7.069 1.62 1.758 2.878 3.008 3.928 4.2 1.322 1.477M326.086 467.267l.147.88M326.7 463.998l-.042.114-.036.122-.038.458-.032.62-.036.377.026.327-.077.416-.38.835M168.813 402.446l-.016-.913-.074-1.644-.036-.48" clip-path="url(#pa12e2c601a)" style="fill:none;stroke:#000"/><path d="m175.72 398.321-5.542.65-.442.089-.479.131-.57.217M168.813 402.446l7.51-1.298M263.863 441.485l-4.804 5.066-3.765 3.366-1.06.794-4.012 2.573-.783.542-.48.403-.415.467-.244.36-.224.438-.983 3.043-1.175 2.49-.32.865-.187.634-.168.713-.197 1.238-.237 2.139-.202 6.054-.076.662-.066.369-.437 1.15-.78 1.576-1.2 2.21-1.877 2.84-4.19 5.943-2.653 4.484-2.146 3.594-.68.861-.563.539-1.3 1.228-.747.878-1.718 2.449-9.057 14.663-.763 1.132-1.047 1.4-.672.647-.503.375-.492.32-.679.37-19.296 8.185-1.61.63-1.14.447-2.134.781-.732.28-3.369.997-1.083.363-.725.311-.45.242-.713.474-.688.54-.157.12-1.544 1.189-8.109 5.8-2.661 1.819-3.8 2.788-.39.25-.429.216-.503.192-1.353.415-1.743.653-1.295.599-.975.455-1.79.933-.484.204-.672.223-1.323.267-4.116.387-.704-.075-2.566-.256-1.526-.04-9.185.327-.927.124-.767.2-.692.267-.815.439-.947.613-.58.387-4.192 2.749-.724.339-.771.243-.967.16-6.27-.063M123.634 583.678l-1.303-6.654-1.006-5.148-.598-3.34-2.684-13.002M285.705 401.24l-1.83 4.024M283.876 405.264l-1.562 3.51M280.796 405.098l.294-.1.367-.188.365-.052.54-.027 1.514.533M281.76 410.222l.84.175 5.759 1.085 5.295.917 1.668.386 1.634.147.742.118.603-.08.368-.032.29-.123.145-.166M282.314 408.774l-.554 1.447M278.353 407.958l2.417.53 1.544.286M236.564 410.662l.284-3.848M225.323 409.768l2.717.5 3.134.346.835.055.68.004.89.036 2.985-.047M245.698 411.607l-3.066-.34-2.93-.305-.695-.086-1.856-.193-.587-.021M245.698 411.607l.118-4.99M257.596 409.592l-1.286.176-3.026.51-1.075.132-1.011.26-2.674.502-1.123.328-1.073.06-.63.047M224.843 598.01l1.24 7.484M233.322 600.785l-.407.058-.418-.012-.467-.082-2.171-.745-5.016-1.995M222.406 596.439l1.426.976.4.267.611.327M224.391 595.385l.195 1.048.257 1.576M277.537 525.884l-.117.32-.034.173-.004.155.012.208.03.177.046.178.625 1.687.105.389.045.295.012.352-.015.343-.035.304-.044.248-.391 1.733-.624 2.385-.739 3.666-.2.814-.48 1.607-.323 1.468-.184.906-.172 1.385-.124.646-.116.569-.34 1.404-.16.718-.399 2.098-.212.942-.275.841-.436 1.257-.5 1.46-.44 1.264-.655 2.042-1.243 4.894-.183.8-.545 3.349-.136.785-.495 2.238-.313.93-.083.232-.028.129-.007.133.031.617-.01.318-.03.13-.05.123-.106.205-.159.237-.138.245-.682 1.699-.625 2.027-.142.408-.172.401-.368.746-.431.682-.464.578-.52.53-3.99 3.344M233.322 600.785l.338-.101.318-.154 5.354-3.29 1.139-.723 1.458-.99 3.44-2.21 3.87-2.328 2.37-1.225.7-.434 4.6-2.972 1.007-.682 2.588-1.978M237.612 562.558l3.598 3.224.665.62.269.224.21.127.33.165.262.145.167.15.148.198.145.25.17.31.161.21.312.35.313.284.48.452 2.223 1.766 1.372 1.2 10.542 9.698.685.658.279.31.256.293.305.506M345.688 432.796l.28-1.279.119-.46.053-.296.053-.367.024-.326.033-.202.043-.182.109-.28.185-.378" clip-path="url(#pa12e2c601a)" style="fill:none;stroke:#000"/><path d="m340.618 431.607 3.405-1.477 2.564-1.104M347.698 423.431l-.451 3.45-.08.496-.104.518-.476 1.131M351.893 423.296l-1.88 2.421-.568.824-.448.52-.483.431-.52.415-1.407 1.12M391.854 380.492l-5.442-1.053-2.32-.252-5.892-.12M386.455 365.399l-4.593 7.657-3.662 6.011M355.427 416.635l14.503-23.703 8.27-13.865M331.416 435.242l-2.465-2.111-1.605-1.368-3.068-2.386M331.416 435.242l3.974-1.7M331.416 435.242l3.465 3.14" clip-path="url(#pa12e2c601a)" style="fill:none;stroke:#000"/><path d="m330.007 435.638.745-.257.664-.14M405.5 470.872l-1.814-.301-1.843-.362M388.052 467.745l4.166.575 9.625 1.889" clip-path="url(#pa12e2c601a)" style="fill:none;stroke:#000"/><path d="m366.498 465.209 4.231 3.472 5.512 4.306 2.95 1.806 4.23 2.722 1.699 1.167 1.42.5 3.005.861 2.06.834.835.305 1.81.195 1.308.055 3.173-1.11.64-.39.306-.64 2.166-9.083M364.847 462.975l.176.4.223.584 1.252 1.25" clip-path="url(#pa12e2c601a)" style="fill:none;stroke:#000"/><path d="m386.053 481.029-10.46-6.839-9.281-7.327.03-1.197.156-.457M369.402 464.413l-1.502-.35-2.13-.7-.923-.388M360.465 459.825l3.712 2.897.67.253M536.904 448.687l-.944.297-6.81 1.085-6.172 1.532-5.979.765-5.467 1.5-10.327 3.606-4.157 1.085-2.462.862-3.422 2.297-4.603 4.755-1.631 1.18-5.596 2.84-2.877.767-4.573 2.776-2.622.989-5.115 1.244-2.526-.159-7.706-2.52-10.52-.99-7.577.032-3.005 1.69-4.061.352-2.622-.191-6.267-1.724-3.322-.463-11.041-1.422M388.656 464.867l16.38 3.004.598.783.167.416-.301 1.802M366.08 460.403l4.165.858M369.402 464.413l.843-3.152M388.052 467.745l-8.504-1.399-10.146-1.933M370.245 461.26l18.411 3.607M388.052 467.745l.604-2.878M360.465 459.825l-2.952-2.115" clip-path="url(#pa12e2c601a)" style="fill:none;stroke:#000"/><path d="m362.46 454.1-.122.908-1.873 4.817M363.041 441.97l-.066 6.574M349.728 438.6l5.392 1.27 1.854.436 5.147 1.134.715.174.205.355M366.562 449.178l.03-5.586.114-1.001-3.665-.622M349.728 438.6l-5.275-.857M349.728 438.6l-2.069 10.552M349.728 438.6l.76-5.017M337.038 434.708l-1.648-1.165M344.453 437.743l-.587-.215-.438-.2-6.39-2.62M338.41 432.195l-.134.223-.152.343-.156.41-.93 1.537M334.881 438.381l.527-1.108.431-.585.65-1.002.549-.978M334.881 438.381l7.965 6.682M338.41 432.195l1.055-.344M338.41 432.195l-2.244.989M340.618 431.607l5.07 1.189M340.618 431.607l-1.153.244M350.487 433.583l1.735.334 11.743 2.554M345.688 432.796l2.69.4 1.03.18 1.08.207M347.659 449.152l4.49 3.824M347.659 449.152l-4.813-4.09M344.453 437.743l-.46 1.137-.16.499-.107.394-.068.363-.056.447-.046 1.251-.022.333-.05.397-.076.353-.562 2.146M345.688 432.796l-.68 3.278-.15.576-.405 1.093M352.15 452.976l10.31 1.125M357.513 457.71l-4.353-3.672-1.01-1.062M362.975 448.544l-.568 4.942.052.615M362.975 448.544l3.587.634M368.14 449.458l-1.578-.28M330.007 435.638l3.485 3.427M336.265 460.655l2.469.774.95.273 1.004.228.765.078 1.851.258.409-.157M345.017 464.631l-.273-.726-.2-.323-.388-.67-.233-.44-.21-.363M343.954 460.538l-.036.304-.023.287.01.242-.192.738M368.32 491.166l-3.307-3.455M368.32 491.166l-10.178.548M471.213 590.487l-2.8-9.369-2.7-3.28-20.399-19.785-37.513-27.817-4.381-4.99-31.362-30.712-1.252-1.103-1.686-1.667-.8-.598M360.749 494.352l-2.236.025M358.513 494.377l-5.933.428M358.513 494.377l-.371-2.663M358.142 491.714l-5.702.294M358.142 491.714l-.068-3.429M357.663 480.828l4.172 3.928M357.663 480.828l-2.46-2.365M357.663 480.828l.034.856M365.013 487.71l-3.178-2.954M365.013 487.71l-6.94.575M358.074 488.285l-.183-3.333M358.074 488.285l-5.792.319M332.746 489.997l1.02-.072M332.746 489.997l-4.791-.359M334.453 495.123l-.756-2.457-.951-2.669M331.027 483.791l.816 2.636.903 3.57M340.776 495.332l.22 1.16.124.678.042.413.025.37.003.682M335.821 495.83l.364.954.074.273.039.28.034.451.04.212.105.278.132.194.145.153.196.145.229.065 4.01-.2M347.44 495.878l-.195.245-.05.14-.028.137-.005.124.026.414-.006.229-.05.218-.105.209-.115.159-.234.225-.263.185-.356.16-.404.08-.415.047-4.05.185M340.776 495.332l5.993-.304M335.821 495.83l.332-.121.23-.07.318-.048 4.075-.259M340.678 492.601l.063 2.278.035.453M340.678 492.601l-6.01.583M340.678 492.601l5.93-.32M340.678 492.601l-.309-3.48M340.37 489.12l-6.604.805M340.37 489.12l6.097-.156M340.37 489.12l-.09-3.278M340.024 479.41l.062 3.218M340.024 479.41l5.688-.435M331.858 479.794l2.953-.056 5.213-.329M331.027 483.791l.255-1.584M331.027 483.791l-.822-2.494M340.409 444.794l-1.567 4.655M340.409 444.794l2.987 2.684M340.409 444.794l-2.43-1.891" clip-path="url(#pa12e2c601a)" style="fill:none;stroke:#000"/><path d="m345.459 451.557 2.514.74.682.295.583.344.472.413.323.218 2.708 2.256 1.18.678 1.238.854.653.448.564.217.34.038.215-.101.16-.11.422-.137M345.459 451.557l-.712 4.253M345.459 451.557l-2.957-1.005M343.396 447.478l2.282 1.653.209.23-.016.198-.028.293-.384 1.705M338.842 449.449l-2.635-.788M338.842 449.449l3.66 1.103M337.907 454.029l.344-1.096.212-1.185.38-2.3M333.492 439.065l-.94 3.449M333.492 439.065l4.487 3.838M331.452 446.794l-1.58 5.392M331.452 446.794l1.1-4.28M325.991 441.033l2.336 2.48 3.125 3.281M336.207 448.66l-3.314-1.005-.515-.19-.5-.252-.426-.419M337.104 457.013l-.372 1.406-.467 2.236M335.172 464.927l.3-1.498.23-.893.386-1.224.177-.657M333.057 460.026l1.723.243 1.485.386M328.063 458.991l1-3.852M328.063 458.991l-2.6-.522M328.063 458.991l4.994 1.035M326.7 463.998l.132-1.009 1.23-3.998M325.464 458.47l.093-4.192M263.863 441.485l2.018.503.64.191 1.387.463 5.835 2.217 2.486.83 2.228 1.023 1.718.567 2.032.63 1.847.455 1.681.3 11.452 2.676 1.914.458.913.236.534.336.415.197.631.177.454.194 2.4.786.418.137.785.244.857.275 2.941.527 3.428.558 2.326.552 2.433.559 7.828 1.893M325.557 454.278l3.506.861M325.557 454.278l.037-3.097M329.063 455.14l.809-2.954M329.063 455.14l5.058 1.104M337.104 457.013l7.157 1.683M337.104 457.013l-2.983-.769M337.907 454.029l-.242.94-.56 2.044M344.261 458.696l-.307 1.842M344.261 458.696l.486-2.886M343.954 460.538l-3.524-.825M325.594 451.181l-.074-5.11M329.872 452.186l-2.69-.661-1.588-.344M329.872 452.186l5.024 1.184M337.907 454.029l6.84 1.781M337.907 454.029l-3.011-.66M343.396 447.478l-.894 3.074M337.979 442.903l-.414 1.068M336.207 448.66l-1.311 4.71M337.565 443.97l-.117.354-1.241 4.337M334.896 453.37l-.775 2.874M334.121 456.244l-1.064 3.782M333.057 460.026l-.672 2.655M333.958 470.03l.27-.895M333.958 470.03l-2.1 9.764M333.958 470.03l-3.075-.708M330.883 469.322l-.331-.06M330.883 469.322l1.521-5.953M328.992 477.531l.45-1.916 1.441-6.293M326.233 468.146l4.319 1.117M328.635 476.405l-1.9-6.159-.327-1.194-.175-.906M335.172 464.927l-.945 4.208M335.172 464.927l3.149.655M338.32 465.582l-.52 3.071-.073.546-.103.633-3.397-.697M345.017 464.631l-2.511 1.03-.628.376-.752.06-.315-.057-.433-.064-2.057-.394M332.553 442.514l5.012 1.457M325.991 441.033l.881.002 1.507.35 4.174 1.129M332.404 463.369l-.392-.115M332.404 463.369l.005-.215-.001-.18-.023-.293M331.86 463.877l-.727-.164-.391.002-.378.038-.24.03-.226.204-.326.08-.268.171-.42.029-.32.002-.276-.04-1.589-.23M331.858 479.794l-.576 2.413M345.017 464.631l.626 1.2.472.81.738 1.306.64 1.276.872 1.524.496.864.335.673.546.77 3.445 3.23 1.186 1.171.83 1.008M351.7 478.747l2.074.005 1.429-.289M345.712 478.975l5.988-.228M345.712 478.975l.305 3.546M346.467 488.964l5.815-.36M346.467 488.964l.141 3.317M346.467 488.964l-.195-3.224M346.608 492.281l5.832-.273M346.608 492.281l.16 2.747M352.58 494.805l-2.025.102-2.065.084-1.721.037M357.697 481.684l.194 3.268M357.697 481.684l-5.703.31M346.017 482.521l-5.931.107M346.017 482.521l5.977-.527M346.017 482.521l.255 3.219M340.086 482.628l.195 3.214M332.204 483.347l3.12-.19 4.762-.53M332.204 483.347l-.211-.425-.257-.33-.136-.162-.117-.082-.2-.141M340.28 485.842l5.992-.102M340.28 485.842l-7.486.656M346.272 485.74l5.86-.425M357.89 484.952l3.945-.196M357.89 484.952l-5.758.363M351.7 478.747l.294 3.247M351.994 481.994l.138 3.321M352.132 485.315l.15 3.289M352.282 488.604l.158 3.404M352.44 492.008l.14 2.797M330.205 481.297l-1.213-3.766M329.245 483.955l.156-1.088.057-.3.083-.258.148-.306.189-.312.327-.394M325.64 500.552l.729-4.058M323.958 509.12l.376-2.123.092-.57.15-1.19.04-.202.058-.188.108-.188.235-.348.055-.135.038-.156.53-3.468M328.224 496.519l-.15 1.24-.032.53-.034 2.088-.023.145-.034.111-.068.098-.108.065-.136.027-1.031-.126-.968-.145M328.525 487.004l.624-2.542.096-.507M314.705 480.9l3.965.905 3.447.785 7.128 1.365M314.705 480.9l-2.197-.367-1.06-.21-.665-.1-.63-.152-.565-.158-.46-.102-.492-.144-.585-.186-.839-.125-1.578-.528M328.525 487.004l-.57 2.634M314.705 480.9l-.224 1.48-.084.386-.102.516.025.153-.122.584 2.557.477 11.77 2.508M327.685 490.516l-1.316 5.978M327.685 490.516l.27-.878M327.685 490.516l-3.782-.67M326.369 496.494l1.855.025M334.453 495.123l-.612.855-.254.28-.2.155-.261.178-.293.113-.346.085-.314.054-2.154.24h-.22l-.138-.023-.117-.023-.127-.048-.471-.287-.156-.088-.21-.061-.356-.034M278.353 407.958l1.878-2.4.344-.25.22-.21M278.234 403.258l.408.168.365.191.335.176 1.454 1.305M278.353 407.958l-.993-.108M264.584 399.284l1.231.279 4.138.976.28.076.22.103.173.12.135.16.306.51.13.138.161.11.22.067 6.656 1.435M274.687 400.799l2.445.446.514.152.425.221.232.192.154.203.058.195.008.222-.032.208-.257.62M264.584 399.284l-.442 3.153M253.272 401.82l2.018-3.755.101-.091.161-.06.126-.014.146.019 1.276.295.603.11.818.116 5.068.676.995.168M263.568 408.795l-5.972.797M263.568 408.795l-.248 5.616M263.568 408.795l.233-3.392M277.36 407.85l-.778-.076-.829-.184-1.175-.036-1.554.028-1.615.208-2.885.27-4.956.735M263.32 414.411l-6.591-1.052M273.829 411.43l-.597.444-.19.454-.132.508-.152.416-.684 2.458-.486.027-.268-.05-.396-.045-7.604-1.231M264.142 402.437l-.341 2.966M264.142 402.437l-10.87-.617M250.789 406.54l2.483-4.72M245.816 406.617l3.543-.01 1.43-.067M257.828 405.94l-1.39.187-1.88.168-1.957.14-1.812.105M257.828 405.94l2.943-.364 1.044-.135.904-.058 1.082.02M212.012 400.548l.611.358.986.571.904.442 1.375.662 1.409.672.646.273.705.212 2.77.71M225.885 405.403l-2.645-.566-1.038-.221-.784-.168" clip-path="url(#pa12e2c601a)" style="fill:none;stroke:#000"/><path d="m222.461 400.93-.183.754-.355 1.156-.226.692-.28.916M212.012 400.548l-1.922 2.659M222.461 400.93l-7.578-2.19-.45-.08-.339-.002-.292.048-.253.108-.21.163-1.327 1.571M193.626 393.05l.605.328.449.242.544.295 14.866 9.292M225.323 409.768l-3.146-.599-1.986-.395-1.024-.211-.735-.272-.707-.327-.683-.42-6.952-4.337M225.885 405.403l-.562 4.365M236.848 406.814l-1.302-.063-1.448-.163-1.294-.148-2.062-.255-2.145-.379-1.414-.21-1.298-.193" clip-path="url(#pa12e2c601a)" style="fill:none;stroke:#000"/><path d="m245.816 406.617-1.274.058-2.629.09-2.449.016-1.038.014-.76.019h-.818M257.596 409.592l.232-3.652M273.829 411.43l.574-.668M274.558 413.571l-.023-.674-.034-.29-.1-.26-.159-.322-.153-.253-.26-.341M566.998 103.02l-2.539-5.958M566.998 103.02l12.127 28.921M333.766 489.925l-.972-3.427M333.766 489.925l.902 3.26M332.794 486.498l-.311-1.278-.28-1.873M335.39 433.543l.776-.36M325.991 441.033l-1.115-.712M325.52 446.072l.017-2.33-.045-.94-.056-.663-.115-.782-.237-.598-.208-.438M355.427 416.635l-3.534 6.661M373.021 419.626l-12.437-2.074-5.157-.917M578.662 141.964l-13.773 19.524M579.125 131.941l1.08 3.05.21 2.265-.3 1.866-1.061 2.012-.392.83M229.058 622.753l-2.974-17.26M220.253 630.138l7.55-6.114.407-.355.354-.352.494-.564M217.725 618.26l.16 1.292.12.574.312 1.09.152.646.068.542.003 1.496-.031 1.49.053.449.082.39.232.542.648 1.054.152.305.081.255.496 1.753M280.703 412.492l-2.749 6.664-1.645 3.582-.46.889-2.326 4.336-1.73 3.566-1.103 2.066-.572.846-.58.782-.879 1.076-4.796 5.186M128.882 582.138l-.652.107-.787.164-.543.156-.444.163-1.02.427-.635.216-1.167.307M274.403 410.762l2.301-2.292.383-.375.273-.245M350.129 543.358l-.546-.292-.422-.167-.443-.146-8.857-2.035-6.495-1.627-4.293-.98-7.661-1.824-9.025-2.122-6.158-1.52-6.24-1.46-2.92-.59-2.743-.662-12.798-3.028-2.527-.528-.528-.116-.42-.13-.516-.247M226.084 605.494l5.946-3.791.723-.487.57-.431M332.385 462.681l-.184.242-.096.172-.093.159M330.552 469.263l-1.917 7.142M330.552 469.263l1.309-5.386M328.992 477.531l-.182-.557-.175-.569M332.012 463.254l-.151.623M335.821 495.83l-1.153-2.646M338.727 507.87l-2.739-8.583-.9-2.704-.214-.655-.42-.805M193.626 393.05l-1.376 1.985-.218.223-.25.172-.24.103-1.931.297M175.72 398.321l1.622-.506 9.057-1.492 3.212-.493" clip-path="url(#pa12e2c601a)" style="fill:none;stroke:#000"/><path d="m176.324 401.148 13.121-2.268.489-.435-.081-.842-.242-1.773M175.72 398.321l.604 2.827M295.082 404.211l.221-.651.024-.213.012-.363-.074-2.335.012-.534.044-.56.04-.615 1.26-11.03.107-1.28.316-3.454 1.255-11.337 1.918-18.78M305.29 411.218l-2.885-1.92-2.413-1.546-.662-.56-.464-.363-.444-.332-.492-.408-1.276-1.448-.277-.242-.387-.075-.305-.024-.603-.089M339.465 431.851l-.986-1.67M336.088 427.138l1.096.177.218.057.154.077.147.119.129.166.097.185.55 2.262M326.904 428.112l10.817 2.017.758.052M331.298 429.751l1.666.341.748.206.42.18.556.317.342.233.226.22.121.15.13.249.28.6.38.937M312.308 440.978l7.302 2.932 1.183.46 2.424.961 2.303.74M340.315 512.835l.457 1.442.763 2.445 6.875 21.196 1.719 5.44M224.391 595.385l-.747.566-.495.235-.743.253M237.612 562.558l-.66.16-.788.132-1.363.194-.86.097-1.481.11-1.151.05-1.757-.092-.885-.03-.86.021-.672.05-2.418.356-2.508.543-2.173.45-.153.064-.127.09-.067.123-.025.116-.002.126.522 3.566.042 1.5-.051 1.094.009.668.05.468.377 2.345.17 1.246.081.577.11.6.744 3.17.424 1.818.364 1.884.177 1.098.55 3.993.238 1.546.634 3.25.288 1.444M237.612 562.558l-4.81-4.363M222.461 400.93l.24-1.207.032-.326-.036-.251-.068-.187-.081-.128-.153-.12-.157-.063-1.358-.257M280.703 412.492l-1.472-.53-1.012-.19-1.7-.325-.69-.202-.508-.231-.537-.12-.381-.132M128.882 582.138l.412 1.34.271.694.64 1.484.164.387.12.331.072.313.54 2.639M338.727 507.87l1.588 4.965M340.315 512.835l-.687-.395-.24-.195-.19-.199-.208-.246-.304-.414-.234-.447-.526-1.513-.062-.307.006-.238.06-.211.162-.236.635-.565M280.703 412.492l1.057-2.27M366.301 149.51l1.445-7.835.927-1.851M368.13 152.526l-.608-1.086-.863-1.085-.358-.845M396.65 150.674l-5.668.16M378.234 153.65l5.339-2.816h7.41" clip-path="url(#pa12e2c601a)" style="fill:none;stroke:#000"/><path d="m390.99 133.25-.255 8.042.224 2.394.023 7.148M391.482 157.952l-.491-4.501-.009-2.617M369.113 153.815l.967-.492h3.613l2.175-.224 1.662.224.704.327M391.482 157.952l-3.081-.066-3.613-.83-1.119-.797-1.375-1.053-2.494-.83-1.566-.726M378.038 175.227l.611-1.32 1.183-4.245 1.215-4.02 1.295-1.177M391.468 162.528l-4.378.624-4.028 1.372-.72-.06M376.922 163.376l1.503.766 3.917.323M410.11 300.182l-.095-1.691-1.695-6.702-2.43-7.18-.959-1.978-1.47-3.99-1.28-2.36-3.005-4.277-.735-1.819-.448-1.914-.48-2.585-1.694-4.276-1.599-5.425-.767-6.16-.16-3.446-1.055-4.947-.544-3.19-.032-2.649-.351-2.521-.384-2.713.223-1.02 1.471-2.076 3.038-6.158.768-2.84.031-5.968.128-2.84-.576-4.213-.031-2.52-.256-4.787-1.695-2.203-3.42-3.382-2.079-1.308-.895-1.213-.96-2.298-2.206-1.82-1.535-1.244-2.685-3.031-.832-3.223-.927-1.724-.45-1.264M375.292 163.95l-.192 1.532.735 2.042 1.567 4.372.256 2.266.38 1.065M369.113 153.815l1.159 1.518M369.113 153.815l-.983-1.29M391.468 162.528l.418-.876-.404-3.7M405.083 158.302l-.855.319-2.845-.128-3.102 2.617-4.253 1.053-2.56.365M408.257 142.696l1.215-3.83 2.462-3.797 1.375-.925M405.083 158.302l.552-2.554.383-4.627 2.239-8.425M579.125 131.941l-11.576 2.676-6.107 1.372h-.416l-.256.16-.48.096-5.499 1.212-2.654.702-5.34 1.117-5.69 1.405-6.62 1.435-1.407.607-.463.387-.655.41-.384.415-.671.352-14.581.861L500.979 147l-16.563 2.074-3.61-4.143-.832-5.106-4.732.893-12.79-2.297-7.993 2.617-1.471-.83-4.668-.51-5.564.893-6.33-.128-5.692.192-4.284-2.936-7.29-.192-2.75 2.17-8.153 3M414.62 154.663l-3.486 2.298-3.644.447-2.407.894M375.132 161.716l.991 1.117.8.543M375.292 163.95l1.15-.639.48.065M375.132 161.716l.16 2.234M370.272 155.333l2.622 3.606 2.238 2.777M367.202 154.472l1.247.096 1.823.765M367.202 154.472l-1.534-.32-2.27-.989-1.727-1.244M367.202 154.472l.704-.702.224-1.244" clip-path="url(#pa12e2c601a)" style="fill:none;stroke:#000"/><path d="m333.022 184.98 1.375-2.457 3.07-2.68 2.302-3.352 2.27-4.02.927-.32 5.82-.127 1.63-.288 8.825-5.807 1.023-1.373 1.886-3.032 2.622-4.499 2.43-2.553M424.159 303.412l-13.118 21.54M468.274 254.261l-.924.952-31.213 32.358-5.21 5.718-4.203 5.911-2.565 4.212M410.11 300.182l.577 1.532.895.957 2.046.064 2.59.606 2.622-.319 1.439.415 2.366-.064 1.514.04" clip-path="url(#pa12e2c601a)" style="fill:none;stroke:#000"/><path d="m411.04 324.952-1.057-4.793-2.302-11.68.384-2.17 2.046-6.127M542.778 447.715l1.303-.071 3.805.255 3.55.479 3.708.031 1.375-.287 4.892-2.297 6.427-4.563 1.95-2.585 2.335-2.074 5.371-.734 6.586-2.553 2.878-1.66 5.628-2.042 3.325-1.755 2.334-.734 7.738-.99 5.083-1.403 6.076-3.957 9.783-1.755 1.535-.766 2.398-2.042 1.535-.702 3.165-.128M631.973 401.816l.096 2.074.704 1.883 1.055 1.34.351.766 1.38 7.503M542.778 447.715l-.583-1.986-1.471-9.126-2.558-11.074M536.904 448.687l2.51-.788 3.364-.184M536.904 448.687l-.656-5.543-.832-3.478-.511-4.5-1.982-6.764-1.312-3.096M366.562 449.178l-.255 1.689M429.935 429.965l-56.914-10.34M373.021 419.626l-4.092 6.573M383.445 425.306l-2.126 3.146M381.32 428.452l-2.009 2.985M426.002 436.411l-31.91-5.584-12.773-2.375M368.93 426.2l6.842 1.149 2.526.542 3.021.561M379.311 431.437l14.813 2.709M379.311 431.437l-12.237-2.238M367.074 429.2l1.855-3M356.504 423.96l-1.963 2.623.32.638 12.213 1.978M356.504 423.96l12.425 2.24M356.504 423.96l-4.61-.664M405.315 374.472l5.851 1.468.863 1.021M405.315 374.472l-10.072-2.457-.511-.638.423-2.746" clip-path="url(#pa12e2c601a)" style="fill:none;stroke:#000"/><path d="m405.315 374.472.128-1.085-.704-2.17-1.854-.734-7.73-1.852M392.621 367.547l.672.639 1.862.445M386.455 365.399l2.024-3.376M392.621 367.547l-.383-.51-2.462-.99-3.321-.648M388.479 362.023l5.038 1.344-.896 4.18M406.708 332.067l-17.327 28.451-.902 1.505M411.04 324.952l1.949 1.62 2.59 5.33 1.31 2.968 1.36 2.054 2.765 5.7 1.471 2.521 1.567.958 3.229.574 9.944.542 13.493.862M411.04 324.952l-4.332 7.115" clip-path="url(#pa12e2c601a)" style="fill:none;stroke:#000"/><path d="m406.708 332.067.078-3.739.64-1.595 2.973-1.66.642-.12M603.265 126.453l-24.14 5.488M564.363 163.435l4.658 3.515.272 1.276 1.403 1.205M599.652 171.226l-.384-1.244-.896-.32-1.15.255-1.023-.191-2.015-1.085-1.183-1.691-1.375-.383-20.93 2.864" clip-path="url(#pa12e2c601a)" style="fill:none;stroke:#000"/><path d="m558.379 170.843 5.43-1.372 2.398.574 4.49-.614M564.889 161.488l-.931 1.338M564.889 161.488l.487.483M570.156 165.354l-4.78-3.383M564.363 163.435l-.405-.61M564.363 163.435l1.013-1.464M564.363 163.435l-1.8 2.605M563.958 162.826l-4.353 6.255M559.605 169.081l-1.226 1.762M562.562 166.04l-1.567 2.649-1.39.392M562.562 166.04l1.854 1.26M599.652 171.226l6.523-.67.895 1.755 10.167-1.117M599.652 171.226l-.256 2.713-1.055.797-10.136 1.053M548.136 185.442l8.932-12.715 1.31-1.884M548.136 185.442l2.756 1.357 24.204-2.457M468.274 254.261l30.08-30.986 16.108-15.985 2.294-.465 12.084.883 2.218-.138 2.547-1.44 3.304-4.704 11.227-15.984" clip-path="url(#pa12e2c601a)" style="fill:none;stroke:#000"/></g><g id="PatchCollection_1"><path d="m362.374 406.287 6.843-10.817 3.005.319 4.22-.48 5.852-2.17 4.157-1.212 3.133-1.819 4.22-1.02 4.573.446 1.12.862-.64 1.882-4.221 1.915-2.398 4.66-2.334 2.84-1.375 3.446-1.95 2.489-5.052 2.585-2.334 2.489-3.39.606-4.252-.16-3.901-2.425-2.782-2.393-2.046-.766zM409.6 352.996l1.47 2.936 1.887 2.712 1.31 1.372 5.404 2.01 3.87-.223.479-2.201 1.822-1.437 2.558-1.053 1.439-2.17 1.599-2.329.99.032.673-.766-.32-1.054-3.261.511-1.696-.766-2.685-2.106-4.668-2.361-3.07-1.755-1.982-1.756-2.206-.638-2.526-.031-1.823 3.063-.48 2.01.672 3.734zM594.136 163.79l.655.638 3.422-.366.943-.623.72-1.229 1.07-.877 1.615-.686.592-.75.671-1.548.672-1.021 2.413-.367 1.999-2.218.975-1.899.656-1.611-.24-1.82-1.231-1.02-1.902-.607-4.077.303-4.349.894-2.893.623-2.286 1.739-2.11 2.026-.928 2.41-1.63.542-.08 1.436-.432 1.197.751 1.053.304 1.037 1.79 1.372 1.983.686zM534.521 205.978l.08-.59 8.441-11.951 1.919 1.515.447 1.23.208 1.053-.08 1.308.288.973 1.79 2.378 1.455 1.5.911 1.5-.703.893-1.247.845-.351 1.453-.64 2.074-.288 1.021.752 1.612 1.439 1.436.863.558-1.503.622-.256 1.42v2.697l.208 2.776.496 2.043.783 2.233 2.238 3.957 2.478 2.681 1.886 1.229.688 1.26-.96.703-1.343-.368-2.877.033-3.117.717-1.247.926-1.663.75-1.695 1.308-1.182 1.628-.992.622-1.007 1.516-1.023 3.16-.352 1.946.304 1.532.815 2.489 1.231 3.223.8 1.899 1.119 1.914 1.742 1.867.592.894.144 1.02-1.024-1.451-.943.223-.64-.175-1.854-.447-1.966-1.197-2.11-1.372-.88-.99-.655-1.307.064-.958-.512-1.069-.48-1.15-.543-.813-.16-1.595.288-2.043.176-1.324-.592-2.202-.607-2.362-.16-1.786-.32-1.181-.863-.639-1.695-.382-1.71.111-.816.639-.735 1.723-1.103.574-1.183.559-1.807.111-1.118.415-.992.862-.608 1.612-.495.813 1.2 1.213.415 1.165-.112 1.883.063.925 1.44 1.851-.848 1.085L520.55 256l-2.382.75-.976.685-1.07 1.724-1.296.383.991-.686.208-1.532.144-1.867.544-.99 1.199-1.5.431-1.403.128-1.564-.527-.941-1.28-1.26-.207-1.868-.495-1.611.287-1.995-.256-1.468-.56-1.803-.942-1.085-1.823-1.452 1.982.479 3.134 1.213 2.286.127 1.854-.495 1.087-.75 1.343-1.308 1.79-1.644 1.903-.925 1.583-.048 2.51.272 1.759-.59 1.438-1.293.608-1.1-.352-.591-.208-1.803.048-1.628-.351-1.404-.816-1.005-.192-1.867.16-1.803.288-1.596-.511-1.5.16-2.074-.033-.878.336-1.452-.48-1.149.32-1.117.08-1.34-.095-1.292-1.056-.75.944-.926zM524.3 336.619l-1.802 1.28-1.766 3.075-1.281 3.317.9 5.254.554 2.108-.069 1.659 1.143 1.485 2.528 1.936 1.108 2.315 1.454 1.694 1.108 1.97 2.32 1.313 2.216-.76 1.836-2.488 1.246-4.182.624-4.77-.658-5.598-.52-5.046-2.631-2.177-1.766-2.8-1.94-.38-2.458-.345zM346.146 465.808l1.654-3.85.691-1.713 1.066-.03h1.005l1.136.193h.762l2.537.496.985.132 1.827.223.62-.73 1.248.943.7.719 1.371 1.053 2.528 1.875.67.699-.468.506.183 1.5.02.496-1.44-.446-1.3-.608-1.644.507-7.898 7.355-1.736-1.59-.924-1.135-1.279-2.178-1.685-3.131z" clip-path="url(#pa12e2c601a)" style="fill:#00f;fill-opacity:.8"/></g><path id="PatchCollection_2" d="m-133.24 247.548 3.9 2.383 2.386 2.937.477 2.858-.795 1.509 4.932 1.588 3.42 2.62 3.66-.476 7.24-16.515 9.307-27.552 5.25 1.112.955 3.493 2.944 1.747 1.83-.397.159 1.826-3.5 2.858 2.227 3.256-1.91 4.129-2.545 5.002v3.494l5.012 3.97-3.819 11.671-4.455 5.558-4.057 3.574-3.341-2.86-3.5 4.844 3.022 3.017 7.24 1.747 5.728-3.414h4.932l2.307-3.573 2.068 3.811 3.262 3.653-3.818 8.019.954 5.558 1.194 7.94 1.511 5.24 3.818 1.509.24-6.749 5.568-2.7 2.705-2.382 5.17.239 2.308.079-5.171 3.89 5.33.239 2.943-.477-1.67 3.573-10.501 5.24.239 3.335 13.125 10.64 9.309 7.304 8.67 5.24 7.32 2.939.477 3.255 4.057 1.587 4.216-5.24 2.626 3.573 5.41.159 14.876 3.732 2.148-8.893 43.516-.397.08-13.021-11.297.953-7.637-4.606-18.934-12.544 5.489-8.258-4.535-8.416-9.785-4.208 6.603-20.247 11.297-1.112 14.4 11.593 10.261.397 20.844-2.541 19.092 12.703 15.99 14.054-.556 14.45 23.787 19.017 11.614 10.797 33.333 7.781 13.206-1.508 3.103-13.021-3.342-10.004-10.024-8.496-12.091-19.93-10.979-8.574-3.66 8.892-4.375 4.844-5.728-8.178 4.376-1.906 3.42-11.434 1.034-6.034 5.41.397-19.968-37.635-10.182-18.58-9.388 2.223-12.25-17.388.635-6.352-8.273-3.573-14.4 3.414-4.613 5.717 6.284 3.89-1.034 5.082-14.16-6.908-7.16 10.402 7.716 5.637-.636 3.732-25.457-11.91-16.865-11.434 9.785-14.054 2.705-5.716-9.706-5.955-9.785.079-4.376 5.637-5.489-3.89 3.5-1.112 1.114.476 8.433-11.433-8.671-.239-7.001-7.94-6.841-.317-7.399 8.893-7.955-7.702 4.852-5.24-17.501-8.338 5.25-7.146-15.99-7.384-24.344-13.975-25.298 1.27-16.627-1.667-3.977 1.509.557 10.401.397 11.831-3.898 1.906-.318-22.947-9.785 2.858-7.796 7.86-3.5-6.351 1.51-5.876-3.34-1.27-11.774 5.478 3.66 3.891-2.865 15.88 7.638 6.035-1.273 1.588-1.368 8.29 4.946 7.403 1.79 14.296 3.155 10.467 16.541-1.106 5.03 5.702 11 8.936 3.751 3.83-3.155 3.829-7.503 4.254-28.734-6.723-1.45 14.042.768 5.02-3.751 4.596-4.604 5.872-3.326 5.446 15.007 1.191 2.472 3.745z" clip-path="url(#pa12e2c601a)" style="fill:#006400;fill-opacity:.8"/><g id="PatchCollection_3"><path d="m330.015 452.81 4.552 1.214-.557 2.018-4.592-1.11zM330.143 478.517l1.837-.507-1.04 4.905h-.136l-.516-2.219-.515-1.246-.218-.7zM286.012 401.146l.502-.866 6.025 5.942-.325.182zM325.895 464.848l.433-.015.055 1.521-.433.016z" clip-path="url(#pa12e2c601a)" style="fill:green;fill-opacity:.8"/></g><g id="PatchCollection_4"><path d="m329.563 476.08 1.217-.474.709 2.315-1.33.483zM266.316 401.573l4.06-.122.183 5.492-4.03.243z" clip-path="url(#pa12e2c601a)" style="fill:#90ee90;fill-opacity:.8"/></g><g id="PatchCollection_5"><path d="m328.23 459.217-1.309 4.528 2.061.395.863-.486.406-.121 1.441.02.275-.82.517-1.369.284-1.185z" clip-path="url(#pa12e2c601a)" style="fill:#d3d3d3;fill-opacity:.8"/><path d="m326.89 464.21-.171.609.264 1.378 1.674-.091.213 1.56-.345.84 1.858.396 1.279-4.955zM336.368 460.9l-.66 2.532-.227 1.182 3.376.82 2.264.434 1.168-.45 1.475-.522.927-.41-.911-1.987-1.418-.096-2.248-.306-1.99-.61z" clip-path="url(#pa12e2c601a)" style="fill:#d3d3d3;fill-opacity:.8"/></g><g id="PatchCollection_6"><path d="m331.014 453.429 1.7.41-.21 1.07-1.813-.37zM325.3 468.44l-.365-.08-.155.72.364.078zM327.071 467.559l1.32-.05-.045.936-1.275-.299zM326.98 466.495l1.441-.33.22 1.029-1.57.365zM332.888 456.2l-.253 1.047.749.181.253-1.048zM332.311 456.04l-.213.874.507.124.213-.875zM296.566 405.497l.51.462-.328.361-.51-.461zM332.833 439.983l-.21.932-2.028-.715.237-.855zM329.105 452.172l-.12.4.48.144.121-.399zM335.82 452.13l-.36 1.153.37.121.35-1.277z" clip-path="url(#pa12e2c601a)" style="fill:#a9a9a9;fill-opacity:.8"/></g></g></g><defs><clipPath id="pa12e2c601a"><path d="M91.779 86.4h554.442v554.4H91.779z"/></clipPath></defs></svg>