<svg xmlns="http://www.w3.org/2000/svg" xmlns:xlink="http://www.w3.org/1999/xlink" width="960" height="960" viewBox="0 0 720 720"><defs><style>*{stroke-linejoin:round;stroke-linecap:butt}</style></defs><g id="figure_1"><path id="patch_1" d="M0 720h720V0H0z" style="fill:#fff"/><g id="axes_1"><path id="patch_2" d="M90 638.807h558V88.393H90z" style="fill:#fff"/><g id="LineCollection_1"><path d="m403.779 325.898 2.792-1.817M403.779 325.898l-1.499.94M406.762 330.222l-2.55-3.682-.433-.642M369.129 342.517l4.744-1.568M368.984 342.14l.067.199.078.178M370.93 347.567l-.182-.528-1.62-4.522M369.129 342.517l-.468-.067M377.355 339.791l4.046-1.303M377.355 339.791l-.26-.436M377.355 339.791l1.689 2.63M377.355 339.791l-3.482 1.158M373.873 340.949l-.147-.374M376.768 345.713l-1.774-2.913-.778-1.255-.216-.367-.127-.23M594.058 600.358l-.288-3.83M594.058 600.358l3.616-.515M594.197 603.112l-.053-.57-.086-2.184M592.462 567.942l.369 3.073M589.14 556.16l2.964 10.186.358 1.596M610.808 558.68l-1.918.896-.18.124-.108.114-.064.09-.055.193-.304 1.784-.084.255-.127.273-.214.287-.3.253-.647.367-1.131.543-.99.439-1.108.44-.97.298-1.16.334-2.445.518-2.69.735-3.85 1.319M395.507 352.392l6.351-1.586M395.507 352.392l-1.088-3.04M387.734 354.27l2.277-.62 5.496-1.258M384.026 355.316l1.134 8.071M387.734 354.27l-2.458.833-.293.095-.395.09-.283.035-.279-.007M381.693 353.185l1.246 1.637.385.26.37.17.332.064M443.27 300.46l-3.392 5.182M443.27 300.46l2.755-1.98M443.27 300.46l-4.766 3.03M593.77 596.527l-.115-4.043M597.129 596.223l-1.04.097-2.319.207M420.03 335.886l2.79-4.35M420.03 335.886l-1.224-1.654M412.825 346.546l.12-.352 7.084-10.308M369.067 306.66l-.486 3.206M369.067 306.66l.232-2.033M369.067 306.66l-8.286.876M377.601 230.061l-1.012 9.659M391.962 198.181l-.363 2.25-.288 1.313-3.03 14.703-1.021 4.129-.766 1.157-.798 1.126-7.146 6.6-.949.602" clip-path="url(#pb299f2733b)" style="fill:none;stroke:#000"/><path d="m378.586 221.121-.578 5.046-.407 3.894M368.262 316.545l-3.141.593M370.352 321.854l-.347-.872-1.743-4.437M368.062 313.375l-.127.87.009.583.08.669.238 1.048M373.582 267.435l-2.792 24.343M373.582 267.435l.402-3.751M396.033 242.66l1.866 4.082.59 1.236.127.36.04.43-.08.477-1.02 4.364-.191.437-.232.353-.247.258-.55.375-11.724 6.67-11.03 5.733M368.062 313.375l.455-2.797M368.062 313.375l-7.141 1.191M368.062 313.375l2.96-1.045M369.977 298.918l-.487 4.09M369.977 298.918l-5.878-.14M369.977 298.918l.064-.508M378.586 221.121l.642-5.613 2.146-19.488.087-1.174v-.649M332.814 98.977l1.202 4.797.239.93.367 1.307.28.798.23.68 1.627 3.926 1.061 2.69 2.728 6.71.885 2.394.255.83.224.789.606 2.174 1.092 4.497.71 2.784.295.829.383.97.423.93.893 1.713 1.148 1.9 1.149 1.933.534.86 2.664 3.926 2.69 3.88 3.052 4.473 2.201 3.276.582.83.527.664 1.133 1.251 1.618 1.729.766.876.63.805.455.602.758 1.017 6.651 9.58 1.172 1.768 1.093 1.767.574.986.742 1.313 2.865 5.881.979 1.916.519 1.064.223.579.167.524.128.508.088.563.04 1.001" clip-path="url(#pb299f2733b)" style="fill:none;stroke:#000"/><path d="m391.962 198.181-.516-.615-1.944-1.034-2-.055-3.555-.763-2.486-1.517M628.868 582.636l-.223-2.008M630.767 583.11l-.465-.075-1.434-.399M607.49 588.545l.45-.653.51-1.503.183-.87.057-.772-.047-1.608-.015-.581.1-.395.153-.297.239-.272.247-.166.167-.103.485-.192.346-.092.47-.03.567.03 2.712.297 11.054.79 1.945.219 1.755.289M601.185 594.348l.438 1.313M607.49 588.545l-3.283 2.966-1.332 1.25-1.69 1.587M599.331 595.6l.833-.423.438-.289.271-.21.312-.33M613.6 556.947l-.831-.844-.888-.942-.488-.566-.493-.672M584.386 539.3l3.12 1.639 1.643.836.774.43.52.29 4.578 2.987 4.578 3.205 1.314.907.91.625.73.445.561.337.576.301.573.25.467.185.434.133.546.18 1.155.304 2.467.565.247.061.189.058.157.082.144.087.207.129.174.123.165.15.285.314M632.113 551.225l-1.045-.028-1.467-.156-1.277-.282-1.459-.353-.79-.217-.678-.18-.685-.07h-.55l-.98.198-12.282 3.786M610.808 558.68l2.791-1.733M615.919 558.136l-1.264.325-.91.11-.653.07-.878.03-1.406.009M615.919 558.136l-.355-.066-.359-.09-.35-.106-.256-.105-.233-.12-.198-.158-.191-.153-.378-.39M589.14 556.16l-.493-1.804-.622-2.174-1.268-4.331-2.371-8.551M582.199 531.738l.267.944 1.92 6.618M348.284 311.086l-.933-.531-1.085-.633-.782-.587-.781-.814-1.117-1.063-1.132-1.032-1.755-1.783-1.993-2.66M334.941 302.265l1.85-.047 1.915-.234" clip-path="url(#pb299f2733b)" style="fill:none;stroke:#000"/><path d="m354.545 301.28-1.372-.203-.957-.156-.99-.173-.908-.14-1.229-.063-1.308.031-1.754.125-1.388.047-1.5.141-1.276.203-1.26.298-1.897.594M415.172 302.769l-3.123 2.028M415.172 302.769l.422 1.194M415.172 302.769l-.505-1.603M368.581 309.866l-.064.712M361.459 310.883l2.529-.313 2.743-.407 1.85-.297M359.226 311.29l.95-.196M360.558 312.994l-.35-.312-.32-.376-.39-.547-.272-.47M354.545 301.28l1.802 3.55 2.065 5.083.184.376.235.395.395.606M353.292 339.277l-.319-1.83-.462-3.097-.494-3.456-.758-4.598-.447-2.291-1.109-3.996-.71-2.229-.303-.868-.542-1.024-.614-.954-1.603-1.998-.115-.248-.01-.206.053-.128.12-.092 2.305-1.176" clip-path="url(#pb299f2733b)" style="fill:none;stroke:#000"/><path d="m351.721 315.512-.59-.88-.598-.828-.63-.794-1.62-1.924M360.175 311.094l1.284-.211M360.175 311.094l.383 1.9M360.558 312.994l.363 1.572M399.221 312.765l-.986.46M399.221 312.765l4.593-2.805M399.221 312.765l-.86-2.533M403.642 319.706l-2.779-4.388-1.642-2.553M360.92 314.566l.244 1.627M421.55 314.358l-1.642.806-.447.19M424.16 312.607l-.774.492-1.836 1.26M417.958 316.937l.784-.46.288-.163.199-.164.445-.316.62-.423 1.256-1.053M392.993 315.128l.928-.318M392.993 315.128l-11.488 3.523M393.649 318.642l-.363-2.125-.293-1.39M419.461 315.354l-1.398-3.572M419.461 315.354l-.65.352-.506.324-.563.432-.657.592-.12.108-.838.721M365.12 317.138l1.946 5.697M365.12 317.138l-3.836.587M417.958 316.937l.364.481M417.958 316.937l-1.831.946M416.127 317.883l-2.492 1.616M381.505 318.651l-.35.009-.158.016-.448.08-.283.063-.303.095-1.143.294-5.422 1.684M373.542 321.338l4.394-1.291 1.177-.35 1.088-.367.336-.116.223-.097.24-.083.095-.048.133-.074.098-.078.179-.183M403.642 319.706l2.929 4.375M399.989 321.728l1.05-.614 2.603-1.408M364.626 330.118l-.654-2.383-.606-2.033-.599-1.556-1.276-2.776M361.284 317.725l.104 1.681.103 1.964" clip-path="url(#pb299f2733b)" style="fill:none;stroke:#000"/><path d="m360.996 329.987.232-.52.12-.535.08-.595.043-1.15-.068-4.261.088-1.556M394.101 321.547l.501 2.764M394.101 321.547l-.452-2.905M372.617 327.868l3.422-1.038 8.902-2.72 9.16-2.563M370.352 321.854l.171.442M370.352 321.854l-3.286.981M373.398 320.892l-1.848.59-1.198.372M370.523 322.296l2.094 5.572M370.523 322.296l3.019-.958M370.523 322.296l-3.338.942M367.066 322.835l.12.403M369.148 328.845l-.958-2.549-.566-1.7-.439-1.358M410.916 321.261l-2.96 1.921-1.385.9" clip-path="url(#pb299f2733b)" style="fill:none;stroke:#000"/><path d="m409.456 328.305-2.337-3.452-.548-.772M393.816 324.46l.786-.149M385.146 327.355l3.69-1.293 4.98-1.602" clip-path="url(#pb299f2733b)" style="fill:none;stroke:#000"/><path d="m394.515 326.534-.385-1.213-.314-.861M372.617 327.868l1.252 3.261M372.617 327.868l-3.47.977M369.148 328.845l-4.522 1.273M371.963 336.419l-1.053-2.58-.422-1.04-.348-1.01-.992-2.944M373.869 331.129l1.625 4.027M385.146 327.355l-.313.089-4.504 1.59-6.46 2.095M361.185 334.14l-2.67.213M361.185 334.14l-.293-2.793M361.185 334.14l.458 3.495M361.643 337.635l.762 2.111M353.292 339.277l1.245-.219 2.631-.508 2.505-.5 1.97-.415M365.539 349.404l-2.157.725M365.539 349.404l1.619-.443M365.539 349.404l.6 2.17M363.758 344.291l.385.945.32.918 1.076 3.25M394.044 348.51l-6.813 2.234M394.044 348.51l.375.842M394.044 348.51l-1.046-2.611M386.598 350.941l.633-.197M386.598 350.941l-2.302.858M386.598 350.941l1.136 3.329M384.296 351.8l-.717-1.383M384.296 351.8l-2.603 1.385M381.693 353.185l-.764-1.163M381.693 353.185l-4.36 2.746M366.893 354.5l-.575.466M366.139 351.574l.588 2.32.166.607M366.893 354.5l.6-.396M366.318 354.966l.328.41M366.318 354.966l-1.718.977M367.103 356.248l-.457-.872M367.103 356.248l-2.06 1.624M369.352 359.313l-.725-.891-1.524-2.174M370.345 360.373l1.528-.953M370.345 360.373l-.993-1.06M364.415 363.95l3.529-2.175 2.401-1.402M374.18 368.609l-1.14-3.167-.55-1.549-.627-1.505-.375-.738-.29-.509-.371-.452-.482-.316M575.306 620.425l2.222-1.14 6.877-3.734 2.003-1.175 2.058-1.142 4.45-2.373 3.336-1.77" clip-path="url(#pb299f2733b)" style="fill:none;stroke:#000"/><path d="m594.197 603.112.105.643.15.562 1.524 4.066.276.708M546.64 626.701l-.446.025-.434-.027-.228-.02-.23-.06M530.5 627.28l2.19-.241 2.646-.478 1.324-.125 1.222-.072 1.375-.194 1.196-.057 2.31-.068.549.04.457.085.37.07 1.164.38" clip-path="url(#pb299f2733b)" style="fill:none;stroke:#000"/><path d="m535.19 612.12-.038.36.004.25.074.255.086.257 2.403 5.286.858 2.132.208.432.087.152.14.184.14.137.184.119.61.292.465.211.335.185 1.46.862 1.313.919.278.239.184.218.346.435.21.287.225.361.096.18.096.153.115.219.234.375M544.934 628.223l.223-.81.146-.793M409.801 334.574l-3.04-4.352M409.801 334.574l2.507 3.747M409.801 334.574l2.648-1.798M409.801 334.574l-2.726 1.902M398.79 297.834l-3.675 2.059M398.79 297.834l5.915-3.719M398.79 297.834l1.013 2.513M424.923 345.12l2.993-1.546M418.78 351.68l.318-.427.219-.148.171-.082.232-.118.265-.116.277-.11.439-.133 1.483-.384 2.222-.457.105-.043.068-.047.037-.045.04-.092.034-.121.005-.102-.31-1.925-.065-.48.061-.125.084-.07.151-.078.24-.102.09-.062.046-.067.04-.139v-.092l-.055-.505-.054-.49" clip-path="url(#pb299f2733b)" style="fill:none;stroke:#000"/><path d="m413.478 348.111.48-.123.603-.226.782-.299 3.06-.686.2-.032.231.008.331.043.311-.016.267-.027.467-.094.678-.145 4.035-1.393M404.23 338.36l-2.99-3.835M404.23 338.36l2.714 3.477M404.23 338.36l2.845-1.884M404.23 338.36l-2.775 1.787M406.762 330.222l2.694-1.917M404.001 332.22l1.69-1.24 1.07-.758M398.093 329.718l2.871-1.865M398.093 329.718l3.147 4.807M397.838 329.393l.149.183.106.142M398.093 329.718l-2.727 1.818M422.98 325.509l-2.518 1.819M422.98 325.509l1.544 3.456M430.07 320.539l-.784.126-.419.138-.338.21-.224.185-.183.261-.263.446-.244.477-.259.282-.614.539-.28.188-.402.176-.315.114-.277.1-2.488 1.728M420.916 321.137l.445.602.327.657 1.292 3.113M401.24 334.525l2.761-2.304M401.24 334.525l-2.598 1.891M378.764 376.774l-2.126-3.563M378.764 376.774l7.46-2.566M383.244 379.393l-.135-.173-.11-.123-.136-.094-.147-.09-.186-.092-.797-.28-1.447-.468-.547-.284-.409-.342-.566-.673M385.16 363.387l-1.954 1M402.68 354.8l1.327 6.44-.013.124-.018.207-.055.188-.067.2-.077.183-.28.47-.183.257-.127.169-.156.125-.183.086-.467.097-4.61.43-1.81.164-.184.024h-.151l-.117-.128-.339-2.07-.025-.087-.04-.06-.085-.048-.066-.029-.094-.017-2.48.25-2.798.48-2.317.554-2.105.578M409.456 328.305l2.993 4.471M413.675 325.453l-2.01 1.328-2.209 1.524M389.676 303.053l5.439-3.16M389.676 303.053l.789 1.591M383.89 305.162l3.306-1.278 2.48-.83M401.68 305.054l5.834-3.453M401.68 305.054l-1.01-2.484M401.68 305.054l1.04 2.526M397.5 307.504l2.105-1.18 2.074-1.27M404.001 332.22l-3.037-4.367M404.001 332.22l3.074 4.256M397.5 307.504l.731 2.325M397.5 307.504l-.16-.476M392.998 345.899l5.48-3.675M392.998 345.899l-1.672-4.074M386.302 348.25l3.502-1.161 1.699-.602 1.495-.588M398.361 310.232l4.358-2.652M398.361 310.232l-.13-.403M413.675 325.453l2.688 4.582M413.675 325.453l2.183-1.365M410.916 321.261l.348.528 2.41 3.664M391.326 341.825l4.499-3.27M389.99 338.466l.523 1.195.424 1.216.39.948M384.562 344.535l2.02-.81.658-.24.582-.216.722-.278.701-.223 1.077-.433.622-.286.382-.224M420.462 327.328l2.358 4.208M416.363 330.035l2.08-1.268 2.02-1.44" clip-path="url(#pb299f2733b)" style="fill:none;stroke:#000"/><path d="m420.916 321.137-2.977 1.674-.03.038-.011.036.002.053.85 1.434.926 1.5.786 1.456M483.407 322.505l-.666-1.026M483.407 322.505l-.657.231M501.853 351.94l-.736-2.958-.223-1.072-.12-.39-.152-.376-.399-.689-.614-1-.637-.868-.886-1.197-.47-.618-.447-.586-1.54-1.564-3.022-2.83-2.624-2.378-1.252-1.165-.367-.305-.263-.274-.351-.532-1.443-4.011-1.444-3.809-.51-1.008-.946-1.805M539.123 323.18l-.518-.528-.195-.121-.235-.079-.355-.007-.49.078-.898.21-1.08.126-.387.016-.419-.09-.682-.301-1.18-.755-1.616-1.603-2.81-3.026-.471-.876-.375-.962-.36-.61-1.953-2.064-1.715-1.494-.914-.513-.557-.219-.312-.105-.362-.055-.575-.017-.514-.006-.546.09-.67.079-.61.077-1.468.294-3.26.857-2.22.963-2.088 1.073-.666.344-.726.311-.323.092-.304.043-3.106.29-3.78.442-.284.056-.41.127-.506.207-1.065.442-1.878.95-4.499 2.299-4.274 1.896-3.454 1.212-.606.182M400.964 327.853l-.233-.29M400.964 327.853l.707-.482.288-.219.321-.314M374.18 368.609l2.458 4.602M383.206 364.386l-4.185 1.955-4.841 2.268M360.954 374.882l3.958-1.362.99-.422 1.116-.634 1.595-1.024.898-.532 1.052-.551 3.617-1.748M410.916 321.261l2.719-1.762M376.589 239.72l1.363-.392 1.54-.554 1.029-.376.837-.305 1.005-.305 1.507-.446.838-.18.67-.078.67-.039.885.031.55-.023.534-.055 1.197-.242.893-.188 2.25-.664 1.498-.595 1.58-.657 1.49-.523 1.668-.626 1.045-.43.654-.321 1.06-.563 4.283-2.479 4.746-2.834" clip-path="url(#pb299f2733b)" style="fill:none;stroke:#000"/><path d="m438.2 267.645-5.338-14.275-22.481-26.494M406.207 220.086l.902 1.99 3.272 4.8M438.2 267.645l.537 1.418M470.005 232.317l.39 4.348-11.74 8.758-20.455 22.222M383.58 350.417l-.34-.569M383.58 350.417l-2.65 1.605M380.93 352.022l-1.28-1.979M380.93 352.022l-4.465 2.73M376.465 354.752l-1.653 1.044M376.465 354.752l.868 1.18M369.352 359.313l-5.593 3.735M369.352 359.313l1.676-1.091M363.759 363.048l-1.602-2.137M363.759 363.048l.656.901M360.954 374.882l-2.695.532M360.194 378.362l-.05-2.387.063-.342.176-.295.571-.456M358.624 369.36l.845 2.104.82 1.763.665 1.655M364.6 355.943l-.784-3.746M364.6 355.943l.443 1.929M372.023 351.111l.263.476M372.023 351.111l-2.394 1.582M371.116 348.069l.458 1.702.45 1.34" clip-path="url(#pb299f2733b)" style="fill:none;stroke:#000"/><path d="m377.906 347.356-.738.439-.925.563-.957.625-3.263 2.128M377.906 347.356l.302.455M377.906 347.356l-.832-1.235M380.916 345.8l-.2.067-1.39.646-1.42.843M380.916 345.8l-1.872-3.38M381.118 346.155l-.127-.235-.075-.12M380.916 345.8l.532-.092M379.044 342.42l3.449-1.223M369.415 303.528l-.116 1.1M369.415 303.528l.075-.52M369.415 303.528l-5.093.74M389.99 338.466l-1.1-2.88M382.493 341.197l5.77-1.99 1.727-.74M388.89 335.586l-.17-.38M388.89 335.586l.463-.238.514-.313.555-.344.463-.273 1.325-.873M386.29 336.715l.443-.163.73-.29.582-.28.844-.396M402.28 326.838l-.573.193-.239.079-.234.134-.503.32M397.838 329.393l-1.065.675-.25.132M400.73 327.564l-1.16.738-1.732 1.09M391.99 333.175l.22.37M391.99 333.175l-1.105.757-1.104.66-.508.31-.246.13-.307.174M395.073 331.16l-.537.354-2.546 1.661M377.095 339.355l-1.467-3.91M377.095 339.355l-1.34.547-2.03.673M381.19 338.062l-1.027.326-1.813.617-1.255.35M373.726 340.575l-1.608-3.878M373.726 340.575l-2.39.778-2.352.786M368.984 342.14l-.323.31M367.606 338.206l.401 1.24.977 2.693M363.758 344.291l-1.25-4.276M363.758 344.291l-8.169 2.864M363.758 344.291l4.903-1.84M355.59 347.155l-.503-1.45M357.324 352.031l-.271-.72-1.05-2.81-.414-1.346M431.498 318.369l-.592.898M431.498 318.369l4.414-6.696M431.498 318.369l.94.895M431.498 318.369l-7.338-5.762M439.878 305.642l-1.244 1.899M439.878 305.642l-1.374-2.152M438.504 303.49l-1.81 1.15M438.634 307.54l-1.232 1.884M438.634 307.54l-1.94-2.9M436.694 304.64l-1.863 1.184M437.402 309.424l-1.49 2.249M437.402 309.424l-2.57-3.6M432.27 307.452l.279-.177 2.282-1.45M432.27 307.452l1.43 1.57.287.246.256.184.315.254.231.196.419.402.167.2.14.219.164.351.086.241.147.358M424.524 328.965l-1.704 2.57M424.524 328.965l5.546-8.426M418.322 317.418l1.35 2.015 1.244 1.704M416.363 330.035l2.443 4.197M416.363 330.035l-3.914 2.741M412.308 338.32l-2.737 1.759M418.806 334.232l-3.15 2.042-3.348 2.047M407.075 336.476l2.496 3.603M409.57 340.079l-2.626 1.758M411.597 348.062l-.436-.58-.354-.506-.542-.72-1.133-1.486-2.188-2.933M394.419 349.352l6.5-3.932 3.499-2.11 2.526-1.473M395.073 331.16l.293.376M395.073 331.16l1.45-.96M395.366 331.536l3.276 4.88M395.366 331.536l-3.156 2.009M398.642 336.416l2.813 3.731M398.642 336.416l-2.817 2.139M401.455 340.147l-2.977 2.077M392.21 333.545l3.615 5.01M395.825 338.555l2.653 3.67M444.14 365.774l-.332-.28-2.195-1.59-1.285-.855-1.643-.977-3.248-1.798-6.987-3.52-2.478-1.212-2.384-1.236-4.808-2.626M413.44 348.506l.625.178 1.508.838 3.207 2.158M426.191 311.316l-1.856-3.544M426.191 311.316l6.08-3.864M426.191 311.316l-2.03 1.291M424.335 307.772l-1.17-2.345M424.335 307.772l-6.272 4.01M414.19 287.981l-3.304-7.016M414.19 287.981l.945 1.6M414.19 287.981l3.134-1.679M414.19 287.981l-3.243 1.918M410.538 305.746l1.511-.95M410.538 305.746l-1.212.777M410.538 305.746l2.196 4.555M414.396 313.977l-1.662-3.676M412.734 310.3l-1.723 1.13-.007.089.024.058.032.07 1.946 2.988.07.074.074.05.071-.007.049-.016 1.126-.759M414.396 313.977l1.326-.767M412.05 304.797l3.672 8.413M415.722 313.21l2.341-1.428M418.063 311.782l-.798-2.507M410.947 289.9l.716 2.144M410.947 289.9l-6.242 4.215M409.326 306.523l-.986-2.556M403.814 309.96l2.303-1.435 3.209-2.002M408.34 303.967l-.826-2.366M408.34 303.967l5.956-3.814M402.72 307.58l3.035-1.968 2.585-1.645M407.514 301.601l6.133-3.628M407.514 301.601l-.849-2.724M402.72 307.58l1.094 2.38M413.647 297.973l.237.685M413.061 295.988l.463 1.628.123.357M395.115 299.893l.671 2.134M414.296 300.153l.37 1.013M414.296 300.153l-.412-1.495M393.921 314.81l-.648-2.288M398.235 313.225l-1.507.55-1.325.518-1.482.517M398.235 313.225l.733 3.92M398.968 317.145l1.021 4.583M398.968 317.145l-2.21.653M399.989 321.728l-2.104 1.191M393.649 318.642l3.11-.844M397.885 322.92l-1.568.826-.556.275-.447.16-.31.05-.402.08M394.515 326.534l2.008 3.666M386.869 331.17l3.956-2.52 3.69-2.116M396.758 317.798l1.127 5.121M386.869 331.17l-1.723-3.815" clip-path="url(#pb299f2733b)" style="fill:none;stroke:#000"/><path d="m388.662 335.091-.37-.722-1.423-3.2M373.542 321.338l-.144-.446M373.398 320.892l-.837-3.425M372.561 317.467l-.726-2.416M372.561 317.467l6.686-2.08M371.835 315.051l-.813-2.721M371.835 315.051l6.633-2.319M371.022 312.33l6.61-2.503M392.765 311.05l.508 1.472M392.765 311.05l-.702-2.05M379.247 315.386l1.222-.363 4.578-1.54 3.23-1.11 4.488-1.323M378.468 312.732l7.353-2.69M378.468 312.732l.78 2.654M378.468 312.732l-.835-2.905M391.739 308.161l-2.709.845-3.209 1.036M384.584 306.942l.423 1.02.814 2.08M391.739 308.161l.324.84M391.739 308.161l-.545-1.692M383.89 305.162l.694 1.78M383.89 305.162l-6.772 2.706M377.118 307.868l.515 1.959M377.118 307.868l-.297-1.725M368.517 310.578l6.775-2.053 1.826-.657M384.584 306.942l-6.951 2.885M361.284 317.725l-.12-1.532M361.459 310.883l.032-.657.024-.383-.048-.446-.686-1.861M364.322 304.267l-2.448.517-.399.132-.319.141-.183.157-.152.148-.247.508-.096.235-.008.313.12.61.191.508M364.322 304.267l-.223-5.49M364.099 298.777l-.023-2.187M364.099 298.777l-9.937-.547M354.066 300.17l.016-1.095.08-.845M350.92 278.462l.801 4.894 2.042 10.604.399 4.27M377.787 300.67l-.77.826-.568.61-.898.54-.458.198-1.96.628-3.834 1.155M377.787 300.67l-8.297 2.338M382.265 299.12l-1.9.632-2.578.918M370.041 298.41l.12-1.04M380.89 294.184l-1.386.612-4.918 2.187-4.545 1.427M370.16 297.37l4.843-1.75M370.79 291.778l-.462 3.887-.167 1.705M358.298 316.547l2.615-.276.251-.078M356.129 315.053l.792.678.63.43.747.386" clip-path="url(#pb299f2733b)" style="fill:none;stroke:#000"/><path d="m359.912 328.243.052-3.832-.07-.531-.132-.337-.22-.359-.28-.478-.243-.82-.231-1.69-.49-3.65M356.129 315.053l-4.408.46M354.704 310.844l.606 2.025.32.806.234.506.132.31.092.275.04.287M359.912 328.243l-1.228-.602-.885-.595-1.125-.906-1.356-1.533-.638-1.064-.486-1.267-.774-1.939-.51-1.72-.535-1.54-.35-.939-.304-.626M360.111 329.94l-.199-1.697M360.111 329.94l.885.047M358.373 332.056l-.046-1.762.02-.1.059-.088.13-.058 1.575-.108M360.892 331.347l-.035-.359.044-.493.095-.508M358.373 332.056l.142 2.297M360.892 331.347l-.205.05-2.314.659M357.492 334.438l1.023-.085M353.998 342.393l-.45-1.904-.256-1.212M375.494 335.156l-3.531 1.263M375.628 335.445l-.086-.172-.048-.117M371.963 336.419l.155.278M371.963 336.419l-4.446 1.478M367.517 337.897l-5.112 1.85M367.517 337.897l.09.309M364.626 330.118l.538 1.186.681 1.705.455 1.346.627 1.813.59 1.729M362.405 339.746l-3.713 1.142-.815.256M362.507 340.015l-.07-.183-.032-.086M353.998 342.393l.112.407M357.877 341.144l-1.24.39-2.639.859M355.087 345.705l-.243-.645-.53-1.603-.204-.657M354.11 342.8l1.1-.383 1.963-.653.84-.287M362.507 340.015l1.919-.703 1.774-.602 1.406-.504M358.013 341.477l.91-.31.622-.204 2.962-.948M372.118 336.697l3.51-1.252M367.606 338.206l.64-.208 1.062-.35 2.296-.784.514-.167M371.873 359.42l1.056-.659 3.59-2.287.814-.543M371.028 358.222l.56-.365 3.224-2.06M373.321 353.336l.151.206 1.34 2.254M364.626 330.118l-3.734 1.229M373.321 353.336l6.33-3.293M372.286 351.587l.17.288.694 1.22.171.24M379.65 350.043l-1.442-2.232M376.768 345.713l.306.408M376.768 345.713l-2.675.85M370.93 347.567l.186.502M370.93 347.567l-1.926.68-.913.324-.933.39M370.93 347.567l3.163-1.005" clip-path="url(#pb299f2733b)" style="fill:none;stroke:#000"/><path d="m367.158 348.96 1.08-.19.95-.234 1.928-.467M371.116 348.069l3.15-1.03M377.074 346.121l-2.808.918M357.324 352.031l6.058-1.902M359.074 357.192l.063-.418-.014-.729-.168-.495-.314-.83-.284-.615-.324-.722-.709-1.352M358.624 369.36l1.958-1.314 1.523-1.318.267-.41.311-.81.172-.332.331-.344 1.229-.883M362.157 360.911l2.886-3.04M359.074 357.192l-.127 1.166-.044.472.044.38.112.316 1.387 1.596.28.226.235.085.297-.024.9-.498M363.816 352.197l-.434-2.068M363.816 352.197l2.323-.623M383.24 349.848l-2.122-3.693M386.1 348.309l-.26.086-.287.086-.136.059-.176.11-2.001 1.198M386.302 348.25l-.203.059M386.302 348.25l.929 2.494M382.493 341.197l-1.092-2.709M381.401 338.488l-.212-.426M381.401 338.488l2.038-.666 1.918-.73.933-.377M386.163 336.333l-.282.1-.943.356-1.462.486-2.287.787M358.624 369.36l-.393.088-.407.17-.336.227-1.44 1.169-4.407 4.28M338.355 393.538l1.291-.79 1.97-1.141.925-.814.607-.711.319-.962.175-.876.112-2.534.335-1 .51-.954 1.691-1.994 3.709-4.7 1.642-1.767" clip-path="url(#pb299f2733b)" style="fill:none;stroke:#000"/><path d="m352.858 359.831-.53 1.115-.136.547-.04.853.427 4.805.044.735-.033.777-.334 1.979.023.383.096.29.3.426.02.32-.056.317-.1.387-.898 2.53M249.237 446.163l.93-1.415.51-.376.514-.164 1.412-.023 1.93.156 3.043.493.262-.11 1.496-1.556 1.148-1.009 1.308-.914 10.562-6.42 1.462-.223.968-.419.252-.328.538-1.26.54-.403.72-.444.782-.935.346-.293 3.358-1.391.26-.278.9-1.666 1.348-1.704 1.532-4.066 1.228-1.435.247-.473.423-1.822.439-.56.379-.074.634.004.701.16 1.878.288.463.201 3.402 1.873 4.234.625 2.696.536.678.317 1.986 1.177.42.05.337-.077.372-.49.048-.332.043-2.948.215-.352 1.93-1.602 3.43-2.542 2.384-1.767 2.6-1.454 5.296-3.511.435-.188 1.077-.324.825-.544 1.396-1.415.83-.626 1.682-.68.742-.141 3.549-.133.909-.25 3.186-1.158.63-.054 1.584-.02.21-.094 1.058-.73 2.025-.708 2.927-1.701 1.843-1.455 2.452-1.548 1.055-.484 1.082-.861.475-.184 1.356-.363.187-.186.52-1.146.027-.271-1.145-5.806.058-.323.285-.514 1.735-2.467 1.024-1.224 1.061-.821 1.966-1.286.782-.587.545-.553" clip-path="url(#pb299f2733b)" style="fill:none;stroke:#000"/><path d="m361.635 385.986-.154-3.131-.022-.454-1.048-2.921-.217-1.118M355.087 345.705l-3.752.33M349.301 346.242l2.034-.206M352.858 359.831l1.615-.8.694-.345.745-.328 1.194-.457 1.968-.71M384.562 344.535l1.537 3.774M384.562 344.535l-3.114 1.173M388.72 335.206l-.058-.115M388.72 335.206l-.158.073-.469.241-1.317.593-.613.22M438.737 269.063l7.288 29.417M423.953 280.876l1.297-1.082 6.248-5.282 7.239-5.449M466.525 207.699l-5.676 3.66-2.277.328-3.277 2.886-3.555 2.723-5.499 2.506-8.443 1.852-13.941-4.031-17.65 2.463M391.962 198.181l2.26 2.218 2 3.322 3.944 5.828 4.5 7.135 1.541 3.402M476.234 203.564l-1.665.988-6.888 2.56-1.156.587" clip-path="url(#pb299f2733b)" style="fill:none;stroke:#000"/><path d="m465.913 203.108-.367 1.274.98 3.317M469.134 218.42l.138-5.477-2.747-5.244M506.506 191.97l4.93 11.506M497.424 171.876l6.583 4.245-1.333 5.719.389 2.45 3.443 7.68M476.234 203.564l.723-.428 2.722-1.362 3.554-1.199 4.5-.38 3.61-1.907 6.776-3.159 8.387-3.159" clip-path="url(#pb299f2733b)" style="fill:none;stroke:#000"/><path d="m489.617 179.412 2.726-1.557 5.081-5.979M489.617 179.412l.058 3.071-2.03 6.07-3.53 7.396-2.563.616-2.08-.521-1.305.237-4.932-1.328-5.062-1.2" clip-path="url(#pb299f2733b)" style="fill:none;stroke:#000"/><path d="m489.617 179.412-10.328 5.9-6.086 1.803-4.563 5.255-.467 1.383M465.913 203.108l.97-4.772 1.29-4.583" clip-path="url(#pb299f2733b)" style="fill:none;stroke:#000"/><path d="m476.234 203.564-1.211-.997-1.755-.156-3.381.531-3.974.166M511.436 203.476l.634 1.48 2.998 7.586.193 3.793 12.282 9.72 15.473 12.375 11.049 8.496M495.757 267.009l3.24-2.069 5.146-3.142 2.894-1.428 4.33-1.67 4.895-1.433 37.803-10.34M479.868 225.235l.965-.413 4.835-3.556 6.045-4.172 1.595-.949.339-2.276.58-.995 4.69-.901 2.128-1.28 10.39-7.217M478.174 225.96l1.694-.725M469.134 218.42l4.252 2.277 2.031.664 2.757 4.599M470.005 232.317l4.59-3.37 2.273-1.992 1.306-.995M470.005 232.317l.048-6.877-.92-7.02M495.757 267.009l-.926-3.927-.444-5.229-.667-2.668-1.666-4.412.222-5.555.388-3.105-7.22-6.372-1.61-4.412-3.966-6.094M495.757 267.009l-.247.158M470.478 283.156l-21.208 13.448-3.245 1.876M376.381 241.315l-2.397 22.369M376.381 241.315l.208-1.595M346.506 254.953l.478-.28.766-.204 5.231-.172 1.691-.141 1.26-.25 2.552-.72 1.899-.47 1.084-.39.83-.454.925-.625 3.668-4.427 2.409-2.846.606-.548.766-.531.973-.485.813-.266 1.037-.266 2.887-.563M535.19 612.12l2.41-.86M533.907 609.355l.249.629 1.034 2.136M533.907 609.355l2.717-.964M524.548 615.375l3.315-2.008.37-.23.43-.295.376-.338.375-.305.684-.491.998-.674.663-.42.685-.503.4-.239 1.063-.517M536.624 608.39l1.663-.461M537.6 611.26l-.45-.875-.144-.336-.108-.325-.115-.434-.04-.297-.12-.602M564.163 602.447l-.371-.088-.375-.05-.607-.013-.705.06-2.443.219-1.146-.095-.55-.062-.527.055-.486.109-.485.22-.72.28-1.095.315-1.074.233-1.374.269-2.35.325-.957.113-.792.158-1.39.37-1.67.61-3.083 1.035-3.676 1.419M517.612 593.124l1.314 1.827.662.907.578.735.22.226.294.243.27.152.225.098.55.242.599.231.55.184.478.062.854.102 1.029.065 1.292.037.837.023.668.082.887.184.833.47.818.124.725.055.527.016.287.054.295.079.29.115.26.15.266.183.253.27.658 1.454.371.361.287.195.622.149.367.078.295.094.215.172.128.148.129.164 1.202 3.658.54 1.416M565.664 602.588l-.5-.036-1-.105" clip-path="url(#pb299f2733b)" style="fill:none;stroke:#000"/><path d="m537.6 611.26 1.581-.635 1.462-.584.993-.45.582-.172.457-.08 2.279-.561 2.236-.503 3.096-.622 1.662-.43 1.71-.437 3.175-.815 1.6-.41 1.334-.323 1.054-.303.47-.16.381-.162.285-.163.183-.114 2.023-1.89M566.736 599.212l-.47.604-2.103 2.63M593.655 592.484l-.199-5.203-.16-5.708-.465-10.558M588.09 574.041l.813-.76 1.331-.973.622-.493.603-.376.418-.241.271-.086.683-.097M607.49 588.545l-3.096.734-2.66.597-1.61.445-1.332.408-1.18.414-1.66.696-1.195.445-1.102.2M582.58 596.705l.675-.16.672-.249.525-.305.536-.275 1.224-.87 1.525-.927.878-.337.769-.286.738-.214.503-.07 1.058-.259 1.095-.21.877-.059M582.58 596.705l-1.491.127-.713.05-.51.024-.359.023-.432.138-1.212.585-2.104.849-2.397.87-1.897.871-3.184 1.447-2.156.806-.461.093M575.306 620.425l-2.028-3.923-3.796-6.945-1.402-2.915-2.416-4.054M575.306 620.425l-1.218.694M559.823 600.752l.328.11.155.011.153-.016.246-.073.14-.063.454-.25.451-.11.41-.101.53-.117.533-.11 1.35-.46.634-.17.495-.117.602-.078.251-.012.181.016M572.251 594.117l-1.424 1.109-.62.428-.773.536-.638.567-.74.76-1.32 1.695M566.076 590.564l.356-.117.355-.035.339.031.262.121.236.141.304.304.414.689.215.508.223.368.224.235.351.263.542.252.98.308 1.374.485M576.8 588.81l-.467.544-1.077 1.516-.478.617-.662.848-.439.442-.598.594-.828.746M576.8 588.81l.957 1.046 1.322 1.72 1.417 1.82 1.058 1.592 1.025 1.717M588.09 574.041l-1.126.925-.834.82-.394.408-.311.477-.478.79-.975 1.586-1.131 1.838-1.095 1.94-.748 1.242-.247.368-.322.41-.204.223-.359.336-.726.579-.55.485-.738.721-.506.717-.547.904M550.145 626.523l.125 1.664M571.26 623.098l-.55.266-3.033.853-2.859.462-2.423.278-1.161.182-2.065.41-.988.247-1.212.312-1.29.256-.712.088-.966.011-2.876-.006-.98.066M546.64 626.701l.604-.08 1.334-.06 1.567-.038M546.64 626.701l-.004 1.508M546.636 628.209l3.634-.022M544.934 628.223l.319-.051.47-.031.913.068M577.664 565.43l.783.302 1.674.727 1.14.548.467.207.283.129.164.086.187.117.099.069.129.105.166.144.434.436.464.54 1.02 1.448.845 1.068 1.592 1.595.979 1.09" clip-path="url(#pb299f2733b)" style="fill:none;stroke:#000"/><path d="m577.975 569.053-.147-.426-.04-.213-.06-.787-.064-2.197" clip-path="url(#pb299f2733b)" style="fill:none;stroke:#000"/><path d="m589.14 556.16-.868.267-.898.311-.729.347-.89.537-.817.573-.858.647-1.045.82-1.62 1.166-1.052.922-.314.315-.515.491-.306.252-.476.483-.634.832-.15.205-.12.193-.078.191-.047.225-.059.493M632.113 551.225l-2.083 3.158-.868 1.2-1.381 1.414-1.617 1.264-.407.27-.603.31-.653.226-.756.107M619.743 558.926l.478.125.918.126.777.062.742-.016.61-.02.477-.03M621.602 561.127l.087-.346.12-.201.145-.155.134-.134.177-.13.198-.113.845-.493.437-.381M634.61 547.288l-1.326 2.267-1.17 1.67M628.24 578.91l.16.802.084.41.161.506M629.105 579.012l-.087.31-.103.398-.14.418-.13.49M628.24 578.91l-.433-2.427-.605-4.118-.313-1.167-.343-1.04-.6-1.927M621.602 561.127l.215.547.63 1.228.44.886 2.33 3.464.728.98" clip-path="url(#pb299f2733b)" style="fill:none;stroke:#000"/><path d="m637.102 570.843-1.07.174-2.463.413-.643.135-.51.031-.743-.056-.58-.186-.569-.313-.572-.414-.777-.564-1.337-.866-1.893-.966M629.105 579.012l.147-1.381.293-2.274.122-.393.181-.233.375-.21 2.012-.839 2.959-1.627 1.908-1.212M354.545 301.28l-.48-1.11M385.216 370.965l-8.578 2.246M385.216 370.965l1.007 3.243M385.216 370.965l-2.01-6.579M383.244 379.393l2.097.619 1.053.254.722.057.55-.016.264-.078.102-.058.061-.079.016-.18-.018-.133-.895-2.818-.973-2.753M262.061 298.973l.252.055.327.168.283.238 1.483 1.346 1.787 1.157 1.22.532.51.242.455.336.303.36.287.414.774 1.666.231.446.343.485 2.01 2.627.359.532.327.414.263.29.518.407.575.422.518.438.487.5.366.47.4.633.207.297.31.117.479.078.542.07.343.15.359.242 3.119 3.065 2.688 2.98 1.65 1.673.694.704.925 1.095 3.406 4.496 1.204 1.447.71.79.614.484.558.383.487.407.566.641.271.352.44.446 1.817 1.407.91.634 2.304 1.26 3.342 1.696 6.197 2.987.99.688.813.704.765.97.734.657.957.797 1.196 1.048 1.18.626.958.406 1.323.47 1.005.187 1.212.031.878.204 2.919 1.063 1.69.563.83.141.877.078 2.293-.211.547.062.41.22.371.43 2.17 2.83.75.72.972.72.686.265 1.205.354.458.148.247.134.303.213.61.688.255.183.364.04.255-.093.163-.205.1-.336.02-.348-.068-.504-.741-2.26.003-.579.26-.438.319-.215.502-.093 3.099.465.685.289 1.189.837.514.582.24.606.11 1.447.117.86.319.727.714 1.22.538.583.9.559 1.3.36.982.11 1.089-.224M173.837 363.714l8.98-.454 2.824-.203 3.828-.438 1.38-.086 1.18-.031 2.393.156 1.045-.078.925-.133 2.497-.75 4.274-1.166 1.683-.563 1.762-.868 2.138-1.024.43-.082.471-.031 1.137.125.606-.032.726-.203.65-.324 3.317-1.83 2.664-1.463 2.457-1.259 2.647-1.188 1.627-.782 1.133-.751.757-.774.599-1.079.805-2.268.343-.684.28-.317.442-.223.343.004.213.073.166.146.582 1.208.47.505.547.285.494.04.427-.036 2.44-.54 2.345-.43 2.911-.273 2.09-.204 2.16-.054 1.684.101 1.723.133.582.079.582.156.781.387.655.16.494.024 2.106-.188 1.451-.297 1.364-.555 1.308-.697 2.823-1.43.718-.274.877-.243 1.173-.258.486-.27.315-.426.223-.484.068-1.775.084-.966.108-.872.319-1.11.303-.986.08-1.141.08-.83-.16-2.361-.192-1.314-.239-1.58-.574-2.377-.303-1.407-.351-2.018-.399-1.141-.43-.876-.59-.986-.639-1.282-.59-1.298-.638-1.674-.271-1.392.048-.64.19-.658.368-.61.686-.469.71-.305.375-.36.286-.352.152-.39.072-.626-.463-3.167-.183-1.728-.112-.618-.151-.602-.622-1.298-.112-.415-.088-.414.024-.548.12-1.439.016-.171.072-.157.171-.133.255-.082.211-.012" clip-path="url(#pb299f2733b)" style="fill:none;stroke:#000"/><path d="m189.792 256.002.419-.493.403-.207.861.011 4.16-.093 2.799-.282 1.292-.203 5.407.438.71.445.223.243.694 1.048 1.475 1.313 1.516 1.283.255.297.415.297 1.284.446 1.795.61 4.346 1.009 2.32.954 2.298.594.606.008 1.906-.195 1.26.086 2.321.617 2.671.04.423-.055 1.348-.329 1.436.602 1.364.094.83.798.23.391.487.328.287.047.901.016.973.344.71.368 1.125 1.134 1.22.422 1.132.336.734.54.95 1.97.765 2.276.287 1.11.845 4.294.247.297 1.061.25 1.292 1.29 1.085.47.383.07 1.97-.195.693.336.519.36 1.284 1.266 1.005 1.244.27.594.415 1.486.256.516.447.39 1.26.549.319.265.367.806.781 2.104.279 1.243-.064 1.337-.175 1.502.108.488.104.235.773.806.155.504-.048 1.806M173.24 363.471l.262.173.335.07M154.489 395.47l6.173-10.925 3.334-6.099 2.68-4.707 3.158-5.232.806-1.227.773-1.033.909-.977 1.515-1.556M599.331 595.6l.061.528M597.129 596.223l.682-.177.758-.227.762-.22M594.197 603.112l3.792-.717M597.989 602.395l-.315-2.552M599.735 598.583l.302 2.692.01.247-.01.176-.045.114-.16.14-.254.083-1.59.36M597.129 596.223l.545 3.62M599.735 598.583l-.343-2.455" clip-path="url(#pb299f2733b)" style="fill:none;stroke:#000"/><path d="m601.623 595.66.271.672.756 1.723.005.027-.005.03-.02.022-.041.023-2.854.426M395.671 278.723l-12.485 6.75-12.396 6.305M395.671 278.723l9.034 15.392" clip-path="url(#pb299f2733b)" style="fill:none;stroke:#000"/><path d="m384.61 273.737 4.887-3.298.495-.292.337-.039.376.175.593.932 4.373 7.508M405.85 296.251l-.526-1.438-.092-.184-.155-.215-.372-.299M395.786 302.027l.186.51M395.786 302.027l-5.321 2.617M390.465 304.644l.729 1.825M391.194 306.469l5.317-2.062M396.511 304.407l.226.575M396.511 304.407l-.54-1.87M405.98 296.8l-.13-.549M405.98 296.8l.685 2.077M405.98 296.8l-6.177 3.547M395.972 302.536l3.831-2.189M399.803 300.347l.866 2.223M405.85 296.251l6.004-3.637M411.854 292.614l.26.853M411.854 292.614l-.19-.57M412.68 295.085l.381.903M412.68 295.085l-.565-1.618M412.68 295.085l-6.015 3.792M396.737 304.982l.603 2.046M396.737 304.982l3.932-2.412M406.665 298.877l-5.996 3.693M397.34 307.028l-5.277 1.973M398.231 309.829l-4.958 2.693M415.135 289.582l.787 1.399M415.135 289.582l-3.472 2.462M415.922 290.98l.884 1.875M415.922 290.98l-3.807 2.487M417.08 293.372l-.44.272-.517.328-1.047.706-2.015 1.31M417.08 293.372l-.274-.517M418.314 295.76l-.798-1.567-.436-.82M413.884 298.658l4.43-2.899M419.421 297.93l-.748-1.467-.359-.704M414.667 301.166l4.906-2.938M419.573 298.228l-.152-.298M419.573 298.228l1.157 2.32M415.594 303.963l1.671 5.312M415.594 303.963l5.136-3.416M420.73 300.547l1.369 2.743M423.165 305.427l-2.92 1.82-2.98 2.028M423.165 305.427l-1.066-2.137M417.324 286.302l2.764 4.71M423.953 280.876l-3.375 2.816-1.74 1.617-.935.683-.58.31M422.773 296.001l.353.53.11.416.087.608.002.487.016.454-.12.828-.216.955-.206.737-.7 2.274M422.773 296.001l-3.352 1.929M420.088 291.012l2.353 4.323.332.666M420.088 291.012l-3.282 1.843M423.953 280.876l-9.715-9.43M418.322 317.418l-3.343 2.27M414.98 319.687l-.28.013-.368-.063-.697-.138M416.627 322.054l-1.648-2.367M413.44 348.506l.038-.395M411.628 348.493l.466-.06.695.009.65.064M412.825 346.546l.096.398.187.407.37.76M411.628 348.493l-.031-.43M401.858 350.806l8.729-2.126.647-.113.394-.074M366.646 355.376l.552-.391.623-.416M378.208 347.811l2.91-1.656M378.208 347.811l-5.922 3.776M381.118 346.155l.33-.447M372.286 351.587l-2.333 1.558M432.438 319.264l9.138 7.747 8.884 7.64M427.916 343.574l3.057-1.568 1.754-.774.965-.32.839-.321 1.814-.779 1.783-.703 4.337-1.623 2.154-.844 1.89-.688 2.082-.65 1.87-.653M482.75 322.736l-11.437 4.03-11.798 4.317-9.055 3.568M427.916 343.574l1.992 3.676M401.858 350.806l.823 3.995M400.593 355.108l2.088-.307M411.582 353.489l-8.901 1.312M383.125 380.293l-3.586-.05M383.244 379.393l-.038.338-.081.562M395.761 431.666l-1.108-3.073-1.962-5.27-1.7-4.751-.094-.18-.096-.144-.152-.22-1.292-1.563-1.254-1.703-1.162-1.62-1.152-1.848-1.237-2.113-.12-.233-.088-.24-.067-.24-.024-.21-.036-.469-.035-.481-.729-14.433-.276-2.48-.265-3.52-.007-2.635.128-2.449.092-1.498M351.335 346.036l-.689-3.365M599.392 596.128l2.23-.467M386.163 336.333l.127.382M388.662 335.091l-.122-.1-.068-.04-.122-.092-.113-.083-.114-.075-.134-.055-.185-.074-.247-.057-.174-.012-.183.007-.268.077-.218.104-.228.13-.245.136-.205.19-.097.214-.023.166.024.143.092.287.131.376M350.92 278.462l-.475 3.909-.255 2.33-.51 3.129-.272 2.518.112.75.128.767.35.938.415.891 1.5 2.925.988 1.674 1.165 1.876M349.217 263.634l8.661-1.126.599-.094.59-.047.494-.007.574.015.798.055 13.05 1.254M347.72 259.132l.508 1.295.542 1.643.447 1.564M349.728 271.564l-.112-1.064-.351-3.253-.048-3.613M175.257 344.149l-.12 2.205-.063.43-.12.477-.16.524-.23.641-.423 1.236-.08.516-.048.446-.135 1.54-.264 2.236-.04.477-.016.439.12 2.056-.08.462-.072.43-.215.829-.35 2.275v.766l.031.5.127.564.12.273M140.464 370.513l3.514.849 1.866.77.59.176.654.039.79-.176.574-.3.434-.38.332-.434 2.32-4.082.407-.418.518-.294.63-.145 2.604-.176.43-.14.36-.235 1.209-1.079.92-.399.842-.117.754.058.57.247 2.018 1.27.566.239.721.039.818-.11 8.335-2.244M189.792 256.002l-.283-.016-.486.007-.814.079-.694.008-.637-.008-.655-.032-.574-.054-.694-.204-1.57-.453-.79-.11-.662-.046-1.165.03-3.158-.187-1.252-.164-1.763-.242-1.595-.188-1.005-.164-1.977-.407M189.792 256.002l.18.14.327.337.191.406.152.532.693 3.386.862 4.849.24 1.11.087.603-.016.413-.135.306-.16.242-.24.29-.358.359-.471.5-.83.892-.805 1.134-.917 1.251-3.063 5.326-.295.641-.263.563-2.807 6.045-2.616 5.63-1.204 2.683-1.189 2.494-1.108 2.44-1.07 2.182-.047.235.012.172.06.188.176.32.342.68.232.579.191.626.143.586.128.54.152 1.009.056.422.04.547.031.54.08 2.706.056.758.144 1.462.406 2.831.016.532-.048.516-.128.508-.135.454-.207.43-.224.438-.574.985-.135.47-.048.406-.032.438-.016.704.08 1.251.151.641.168.5.255.556.518 1 .327.47 1.436 1.69 1.507 1.923.216.399.135.477-.04.586-.367 1.017-.103.43-.104.625-.231 1.26-.311 1.634-.176.61-.2.57-.167.438-.215.376-.279.375-.423.602-.231.43-.176.4-.358.781-.264.462-.334.508-.79 1.188-.192.376-.103.258-.056.336-.056.547-.008.595" clip-path="url(#pb299f2733b)" style="fill:none;stroke:#000"/><path d="m163.924 344.93.981-.05.686-.168.399-.207.562-.56.767-1.104.11-.108.124-.047.157.01 1.239.491 1.511.84.674.333.67.168 1.108.059.866-.074 1.48-.364M333.17 239.735l2.8-.86.438-.023.288.148.278.164.24.211 2.273 1.83.718.298.558.235.59.25.559.406.318.72 1.595 4.614 2.68 7.225M347.72 259.132l-.497-1.27-.59-1.798-.176-.61.049-.5M357.177 270.86l-7.45.704M349.728 271.564l1.192 6.898M367.496 225.486l2.138-1.72.59-.39.622-.313.67-.25 7.07-1.692M336.492 254.798l.698-.141M329.948 246.852l.415 1.142.606 1.063.51.751.383.47 1.277 1.344 1.116 1.064 2.237 2.112M319.166 257.3l1.898-.751.925-.344 1.196-.313 3.812-.907.942-.204.765-.015 1.053.25 1.483.376 1.468.11.957.046.814-.14 1.706-.548.307-.062M333.17 239.735l-.75-2.659-1.403-4.144" clip-path="url(#pb299f2733b)" style="fill:none;stroke:#000"/><path d="m337.19 254.657-1.946-7.102-.702-1.689-.463-1.204-.175-.72-.143-.953-.59-3.254M347.72 259.132l-1.932-2.176-.893-.798-.846-.516-.973-.485-.989-.453-.734-.22-.925-.015-2.344.031-.894.157M155.829 408.833l-.805-2.51-.687-2.017-.717-1.909-.686-1.274-.223-.641-.128-.939-.012-.824M154.489 395.47l-1.547 2.166-.231.539-.14.544" clip-path="url(#pb299f2733b)" style="fill:none;stroke:#000"/><path d="m152.55 395.133-.13.485-.036.223.008.246.18 2.632M154.489 395.47l-1.938-.337M107.761 425.786l.886-1.025.853-.813 1.635-1.447.363-.418.41-.63.18-.46.155-1.095.148-.278.271-.184.39-.047.463.087 6.377 1.477 5.033.97.773-.07.55-.196 3.318-1.572 1.73-.907 1.396-.813.63-.34.523-.215 3.05-.876 2.816-.82 2.847-.728 1.81-.446 1.803-.688 1.547-.72 2.48-1.274 1.667-.876 1.137-.575.678-.3.594-.196.745-.2.435-.21.24-.274.115-.313.02-.481" clip-path="url(#pb299f2733b)" style="fill:none;stroke:#000"/><path d="m158.481 417.54-1.073-2.162-.183-.469-.12-.516-.092-1.13-.011-.645.051-.775.016-.601-.135-.524-.264-.814-.228-.401-.181-.26-.432-.41M106.333 427.358l1.428-1.572M103.168 432.201l1.028-1.974.495-.97.566-.742 1.076-1.157" clip-path="url(#pb299f2733b)" style="fill:none;stroke:#000"/><path d="m113.452 382.946-1.982 3.68-1.659 3.143-1.547 3.66-.638 1.642-1.021 3.596-.295 1.596-.216 3.065-.654 8.883-.287 1.595-.478 1.454-.4.724-.533.692-.89.946-.175.489-.024.548.14.574 1.945 3.707 1.26 2.372.2.466.08.457.048.514.007.609M115.162 456.344l-.155-1.336-.062-.15-.12-.084-.19-.064-3.165-.83-1.15-.185-.322-.084-.175-.184-.074-.178-.034-.229.216-1.884.327-2.04.263-2.128.458-3.104.18-.711.327-1.361.183-.884.068-.598.06-.848.052-1.228v-.942l-.076-.516-.208-.825-.853-2.197-.634-1.576-.091-.371-.096-.84-.108-.396-.147-.297-.415-.715-.188-.348-.131-.305-1.14-3.12M100.73 431.846l2.438.355M102.865 432.784l-.796-.047-.271-.039-.25-.078-.287-.156-.35-.403-.18-.215M102.865 432.784l.303-.583M140.464 370.513l-3.537-.825-.893-.258-.75-.36-2.369-1.65-1.052-.61-.854-.265-.73-.169-.65-.183-.733-.383-1.049-.56-1.049-.285h-.996l-1.827.328-2.233.876-1.037.72-.582.485-.582 1.031-.798 2.91-.957 2.908-.59 1.36-.98 1.902-.702 1.407-1.552 3.335-.29.426-.22.293M140.464 370.513l-.011.75.027.618.307 1.678.622 2.08 1.205 3.347.458 1.509.283.633.4.728 1.419 1.927.35.563.236.583 1.32 6.204.072.392.153.535.146.387.15.442.202.608.155.32.155.23.32.207.872.34 1.005.187 2.24.352M163.924 344.93l-.761.302-.391.234-.39.263-.81.54-.36.136-.387.004-.274-.11-3.207-2.228-1.029-.524-1.132-.329-1.332-.246-.19-.053-.093-.078-.09-.146-.6-3.934-.279-2.268.016-.579.136-.484.741-1.463.112-.453.064-.571v-1.157l-.132-.512-.243-.56-.168-.441-.454-1.639" clip-path="url(#pb299f2733b)" style="fill:none;stroke:#000"/><path d="m152.24 298.347 1.667 5.044.28 1.01.302.89.28 1.12.334 2.227.543 2.565.327.814.486.923.921 1.376.251.399.172.465.41 1.845.246.763.105.414.046.456.075.729.17.798.539 1.353.14.395.063.37.056.94.196 1.385.008.386-.05.355-.088.462v.324l.07.36.419 1.431.203 1.326-.028.59-.104.524-.638 1.615-.215.645-.1.77.036.857.156.695.283.84.08.49.04.48-.02.794.028.565.035.405.156.677.076 1.153.028.436.13.293.204.309.705.62.087.13.054.151.373 2.285.052.143.072.054.109.04 1.16.055.754.043M152.758 474.328l2.489-3.77 1.172-2.321.2-.665v-.559l-.088-.441-.49-1.291-.248-.398-.442-.509-.503-1-.22-.384-.25-.3-.427-.435-.319-.375-.447-.688-.263-.54-.236-.79-.582-1.259-1.244-1.891-2.217-2.894-1.388-1.884-.637-.665-.678-.586-2.186-1.252-.239-.324-.107-.282-.005-.402.447-1.587.131-.942-.023-.67-.176-.609-.43-.814-.08-.453-.012-.555.19-.84.416-1.006.933-1.434.168-.391.15-.528.192-.892.36-1.38.087-.762.058-.475.12-.317.21-.225.533-.38.16-.128.187-.2.244-.478.245-.374.76-.914.21-.392.2-.28.405-.57.12-.197.085-.211.116-.438.095-.246.072-.141.973-1.252.303-.496.355-.579.423-.664.43-.618.571-.735.265-.307.281-.31.897-.943 1.986-2.04.255-.36.2-.426.2-.585.09-.225.157-.195.657-.583.304-.375.175-.336.383-1.025M166.207 413.354l-.213.088-.822.724-.45.254-1.667.504-.606.223-.503.301-.578.434-.466.297-2.42 1.36M166.207 413.354l.197-.337.023-.132.01-.126-.045-1.658-.003-.931.06-1.673.047-.532.112-.645.072-.496.011-.747-.023-.833-.487-2.307" clip-path="url(#pb299f2733b)" style="fill:none;stroke:#000"/><path d="m167.425 427.975-.685-1.204-1.197-2.534-.114-.365-.014-.21.028-.167.156-.477.136-.845.167-1.548.111-.821.2-.88.167-.864.072-.864-.091-1.24.003-.336.065-.5.147-.93v-.49l-.03-.165-.064-.122-.137-.062-.138.003M358.013 341.477l-.136-.333M374.266 347.04l-.173-.478M367.821 354.569l2.132-1.424M367.821 354.569l-.327-.465M367.494 354.104l2.135-1.41M369.953 353.145l-.324-.452M371.873 359.42l-.845-1.198M430.906 319.267l.769-.056h.327l.436.053M430.906 319.267l-.836 1.272M412.825 346.546l-.506.418-.543.657-.18.441M595.394 412.625l-2.152-10.116M595.394 412.625l2.592 3.535M551.772 424.769l.176-.02.41-.038.686-.137.894-.196 1.264-.32 2.365-.723 2.061-.658 2.233-.754 1.624-.485 5.766-1.947 2.603-.934 2.083-.727 1.43-.439.83-.219 1.584-.395 5.419-1.274 5.718-1.462 4.155-.876 2.321-.54M595.781 389.429l-1.08-1.732-.076-.083-.088-.062-.104-.05-.243-.047-1.009-.012-1.87-.098-2.896-.196-1.078.036-.975.047-1.264.058" clip-path="url(#pb299f2733b)" style="fill:none;stroke:#000"/><path d="m586.727 378.986-.042.336-.311 1.619-.215.985-.503 2.917-.558 2.447M593.242 402.509l-1.971-4.905-5.12-5.622-1.029-1.33-.184-2.408.16-.954M547.262 466.853l-.478-.528-.423-.41-1.739-1.673-3.519-3.54-1.776-1.715-1.946-1.908-3.804-3.761-7.427-7.302-5.683-5.554-5.62-5.493-4.154-4.106-3.378-3.355M495.094 415.466l6.15 6.113 3.541 3.448 1.524 1.517 1.006.964" clip-path="url(#pb299f2733b)" style="fill:none;stroke:#000"/><path d="m525.65 425.604-.759.084-1.1.106-1.475.199-.802.086-.674.047-.702.015-2.22-.09-2.074-.078-1.07.079-.677.105-1.136.129-1.042.149-1.415.336-3.189.737M597.986 416.16l.455.192.427.313.39.316.367.375.216.305M605.834 464.66l.415-.59-.024-.751-.232-1.697-.933-3.683-2.879-5.552-2.424-4.52-1.101-2.157-.367-1.455-.031-1.532-.128-1.299-.208-.72-.35-.718-.256-.579-.047-.563.135-.586.494-.47.415-.633.128-.43-.12-1.869.08-1.517.16-2.017-.168-5.49-.271-6.27-.056-2.338-.08-1.064M482.741 321.479l-.02.352-.008.387.037.438v.08M470.478 283.156l.667 1.28.184.445.247.767.654 2.12.71 2.22 1.3 3.918 1.459 4.418 1.324 3.848.782 2.44.526 1.814.91 3.19 1.3 4.668 1.172 4.779.63 1.696.398.72M551.772 424.769l-.183-1.775-.235-2.709-.12-2.319.016-.172.056-.09.092-.062.877-.446 3.422-1.466 2.982-1.302 1.436-.657 3.892-1.68 5.052-2.14 3.765-1.638 3.549-1.556 3.362-1.423.845-.239 1.024-.3 1.125-.345 1.388-.289.989-.188 3.282-.594 4.854-.87M525.65 425.604l1.004-.111 3.657-.333 2.428-.215 3.155-.102 2.272-.007 3.789.031 3.006-.031 3.303.031 2.312-.02.91-.047.286-.031M617.773 373.88l1.444.109 7.656.766 5.806.446 4.59.508M635.797 368.65l.228 1.265.415 1.888.442 2.022.387 1.884M595.482 371.19l.263.578.168.14.302.11.272.063 2.544.281 3.62.306 5.217.39 4.753.368 4.147.36 1.005.094" clip-path="url(#pb299f2733b)" style="fill:none;stroke:#000"/><path d="m616.228 366.885.349 1.685 1.196 5.31M635.797 368.65l-2.296-.205-2.688-.29-6.93-.657-6.652-.516-1.003-.097M595.482 371.19l-.287-1.345-.734-3.058-.112-.563.009-.352.07-.227.145-.187.103-.15.192-.109.239-.077.175-.032.423.008 3.517.36 5.487.383 6.7.579 4.819.465M479.42 277.39l-1.707 1.06-7.235 4.706M514.868 354.628l-3.83-.822-4.953-1.008-3.03-.603-.742-.195-.46-.06M444.14 365.774l1.157-1.99 1.148-2.064 1.827-3.253 1.842-3.519.319-.634.136-.289.183-.203.207-.133.255-.11.391-.07.647-.008 1.826.11 2.807.5 1.715.313 3.397.54 5.488 1.008 2.384.594 1.444.282.893.11.55-.032.75-.125 3.413-.524 4.124-.923 1.276-.156 1.093-.055 1.387-.093.989-.212 1.579-.39 1.883-.571 3.764-.962 2.847-.83.71-.14.494-.055.479-.023 4.043.039.266.034M566.322 343.082l-2.255 1.763M539.123 323.18l.248.336.275.387.443.595.785 1.055.75.755 2.114 1.857 1.223.966.81.465 1.795.981 2.492 1.459 2.245 1.337 1.571.907.343.274.407.313.35.414 1.117 1.33 1.675 1.603 1.26.836 1.572.673 1.38.547.909.442 1.41.899 1.935 1.4.09.07M569.34 345.535l-1.035-.893-1.983-1.56M514.868 354.628l.724.155 2.01.564 4.578 1.658 2.959 1.032 3.828 1.439.838.43.777.469 1.089.692 1.73 1.173 1.954 1.216.63.402.375.18.395.14.467.115.561.113 1.907.192 3.361.203 3.127.187 1.172-.015.447-.094.287-.157.223-.148.2-.149.151-.203.152-.195.111-.305.248-2.854.43-4.356.112-.376.144-.305.127-.195.176-.118 1.778-1.212 3.135-2.423 4.02-3.183 2.647-2.064 2.329-1.791" clip-path="url(#pb299f2733b)" style="fill:none;stroke:#000"/><path d="m567.297 351.538-1.272-2.685-.086-.283-.046-.152-.183-.786-.148-.754-.096-.297-.167-.286-.163-.199-.407-.41-.458-.582-.204-.259M458.811 379.803l-11.657-11.442-3.014-2.587M586.599 373.005l1.234-.175.816-.217 2.98-.66 3.127-.6.726-.163M578.514 360.714l.044.185.175.547.256.657.271.493.638.907 1.124 1.282 1.508 1.9 1.906 2.534 1.029 1.626.83 1.244.214.54.09.376M586.727 378.986l.237-1.916.024-1.126-.008-1.142-.136-.798-.183-.774-.062-.225M547.842 467.426l-.165-.166-.415-.407M605.834 464.66l-3.725 1.41-1.515.587-1.65.704-1.803.876-.155.078-.172.07-.192.032-.407-.016-1.483-.094-3.27-.218-1.69-.102-1.628-.024h-2.512l-2.05-.11-2.28.08-2.162-.025-2.76.024-1.85-.102-3.74-.305-2.919-.406-4.259-.43-2.943-.368-2.409-.422-1.475-.297-.5-.09-.433-.05-.353-.013-.412.032-.222.014-.305.044-3.477.798-3.82.516M458.811 379.803l2.144 2.105 9.102 9.006 6.614 6.465 7.04 6.914 7.133 6.997 4.25 4.176M488.675 479.184l-.112-.735-.12-.79-.079-.758.016-.54.072-.876.032-.665.095-1.598-.091-1.435.003-.325.084-.43.367-1.41.184-.767.175-.684.347-1.083.742-2.057.55-1.736.854-3.096 1.124-3.69.845-2.69.878-2.894.486-1.783.567-1.892.678-2.455.382-2.127.255-.954.16-.712.088-.484.088-.728.007-.61.032-.54-.008-.687-.04-.86-.056-.775-.063-1.157-.136-1.9-.167-1.329-.224-1.908-.072-.517-.12-.844-.254-1.368-.455-1.838-.845-2.956-.215-1.446-.232-1.783-.04-.383.008-.438.048-.47.08-.609.16-.704.34-1.202M396.753 434.145l.324.813 3.016 6.888.573 1.26.124.477.152.777.155.513.1.242.147.203 1.392 1.65.706.779.712.69 4.895 3.84.654.626.438.415.447.484 1.308 1.72.454.493.582.821.535.9.263.492.392.641.421.493.383.36 2.105 1.679 1.82 1.222 1.658 1.102.232.133.11.133.08.157.112.187.71 1.376.973 1.525.272.422.295.321.366.312.535.423.295.328.454.477.327.438.415.657.447.836.447.767.478.844.59 1.228 1.077 1.666.598.875.646.946.486.587.391.57.336.579.239.391.23.258.24.195.303.173 1.843 1.079 3.517 2.072M395.761 431.666l.992 2.48M396.753 434.145l-1.39.656-1.46.767-1.93 1.04-2.336 1.165-2.138.907-.263.094h-.231l-.248-.102-.167-.133-.072-.156.04-.195.367-.618.662-.76.358-.5.415-1.047.168-.281.215-.266.407-.282.83-.368 1.435-.531.957-.352 1.491-.68.918-.329.98-.508M574.088 621.119l-.498.284-.775.507-.958.784-.597.404" clip-path="url(#pb299f2733b)" style="fill:none;stroke:#000"/><path d="m574.088 621.119-1.862.02-1.081.196-.092.023-.064.04-.031.07v.09l.302 1.54M619.743 558.926l.482.41.367.364.355.383.387.473.268.57M630.767 583.11l.947 1.403.79 1.619M625.47 587.93l.9-.274.878-.195 1.89-.282.877-.164.678-.164.535-.242 1.276-.477M629.105 579.012l-.865-.103M634.61 547.288l.135-.231.12-.293.143-.399.246-.81.328-1.293.352-1.468.286-.897.096-.2" clip-path="url(#pb299f2733b)" style="fill:none;stroke:#000"/><path d="m634.61 547.288.031-1.255.028-.337v-.289l-.048-.191-.071-.18-.096-.157-.698-.852-.144-.203-.055-.129-.008-.088.015-.072.046-.118.062-.098.04-.123.008-.111.002-.188-.006-.3v-.72l.056-.203.052-.153.135-.133.22-.148.143-.082.28-.098.234-.008.192.07.195.125.224.126.869.324M619.743 558.926l-.3-.086-.388-.129-.462-.12-1.235-.24-1.44-.215M479.42 277.39l.63.895 1.192 1.615 1.116 1.38.1.106.128.094.155.066.148.035.191.035.227.024.228-.031.295-.063 2.616-1.142 2.835-1.63 1.687-.954.877-.477 2.349-.946.383-.204.103-.11.093-.18.067-.257.072-.517.032-.5-.024-.27-.16-.39-.65-1.06-.036-.073-.032-.09-.005-.082.006-.09.034-.117.257-.694.574-1.6.459-1.849.143-1.147" clip-path="url(#pb299f2733b)" style="fill:none;stroke:#000"/><path d="m479.42 277.39 3.345-2.077 12.745-8.146M586.727 378.986l-.524.039-2.373.21-3.079.267-3.198.199-1.974.247-2.643.152-3.398.18-.574.082-.116.043-.136.13-.091.14-.048.137-.012.23.076 1.424.06 1.16.035.411.076.329.231.922.276 1.967.155 1.005-.016.097-.04.098-.06.125-.067.067-.188.059-1.607.199-1.942.191-.22.012-.23-.007-.256-.052-.514-.124-.646-.106-.563-.059-.49.016-.782.11-.709.093-.798.157-.55.121-.57.086-.599.082-.657.039-1.962-.047-1.404-.03-.726-.103-.989-.109-.997-.196-.713-.217-1.432-.561-1.743-.887-.524-.325-.182-.09-.249-.067-.3-.015-1.462.073-1.917.082-1.539.042-1.156.028-.574.015-.336-.015-.322-.049-1.025-.317-2.27-.606-1.578-.246-1.212-.13-.579-.042-.494.012-.626.058-.606.121-1.368.34-.814.173-.379.101-.399.164-1.506.72-2.118 1.134-1.683.9-.403.171-.319.114-.81.14-7.383 1.24-.408.074-.738.195M458.811 379.803l.865-.41 1.715-.282 1.412-.125 1.364-.102h.271l.127.04.16.062.335.195 2.528 1.118 2.935 1.369 2.592 1.306.742.344.909.36.917.336 1.029.344.626.211.862.336.47.274.49.383.527.25.438.133.79.246 2.062.517 1.686.394 1.751.388 3.473.656 4.211.77 1.484.345 1.164.199.842.118.813.058 1.483.055 1.906.109 1.353.125 2.217.204 2.76.3 2.747.446 1.606.34.149.053.099.041" clip-path="url(#pb299f2733b)" style="fill:none;stroke:#000"/><path d="m514.868 354.628-.078.828-.115.844-.187 1.095-.192 1.107-.231 1.17-.34 1.454-.302 1.141-.14.422-.542 1.435-.339.868-.112.313-.235.759-.28.762-.414 1.286-.39 1.31-.14.567-.076.383-.116.853.005.402.02.34.107 1.013.2 1.81.083 1.161.156 1.564.171 1.694.196 1.966.107 1.044.251 2.252.14 1.474.243 2.573.403 2.791M525.65 425.604l-.096-.62-.224-1.912-.155-1.231-.22-1.943-.191-1.494-.192-1.013-.111-.637-.088-.317-.107-.3-.084-.204-.232-.395-.765-1.372-.638-1.102-1.057-1.6-1.085-1.622-.502-.65-1.129-1.786-.466-.731-.499-.981-.366-.747-.124-.376-.435-1.458-.144-.422-.083-.262-.16-.544-.211-1.059-.227-.794-.248-.876-.594-2.267-.39-1.635-.427-1.325-.499-1.013-.318-.664-.324-.516-.147-.172-.192-.149-.2-.106M578.514 360.714l-.857.177-.846.172-.096-.002-.075-.03-.072-.056-.07-.1-.227-.447-.195-.26-.096-.044-.1-.027-.098.002-.101.025-.489.11-.22.03-.193.003-.163-.032-.134-.036-.191-.028-.211.044-.136.05-1.71.83M569.34 345.535l.748.647 1.551 1.236.387.39.22.352.662 1.025.96 1.54 1.264 1.92 1.807 3.288.861 2.127.32.978.394 1.676M567.297 351.538l.004.157.012.156.12 1.596M592.936 478.807l.955 1.37.65.891.778 1.15 1.495 2.216.446.802.116.242.012.176-.036.153-.052.176-.075.129-.91.664-1.782 1.04-.247.157-.156.066-.215.082-.89.157-.12.047-.065.038-.062.079-.016.044.008.112.096.14.24.501.095.282.048.227.04.132.103.397" clip-path="url(#pb299f2733b)" style="fill:none;stroke:#000"/><path d="m608.203 468.732.283.428.14.261.023.165.004.137-.012 1.24-.044 1.41-.087.806-.18 1.567-.032.65-.135 2.729-.076.117-.128.152-1.24.868-1.108 1.04-2.536 2.033-2.672 2.322-2.098 1.783-4.386 3.386-.527.451M574.31 506.005l1.744-1.542 1.491-1.188 3.948-3.214 3.573-2.94 1.803-1.423 1.244-1.048 1.412-1.134 2.36-1.947 1.507-1.292M567.297 351.538l.022-.142.025-.09.044-.11.24-.483.474-1.06.263-.82.24-.884.399-1.447.336-.967M592.936 478.807l-.357.19-2.6 1.11-4.857 2.181-1.491.626-.487.101-.45.043-.794.086-.73.031-.833-.09-.842-.124-.873-.036-.897-.117-.746-.164-.538-.082-.463-.02-.331-.031-.327-.074-.758-.274-.973-.329-2.56-.703-1.172-.329-.646-.226-.606-.126-.487-.015-1.794.055-.925.078-.806.187-.255.063-.176-.008-.127-.008-.144-.094-.151-.171-.694-1.369-1.085-2.47-.271-.767-1.097-2.342-1.28-1.955-1.14-1.571-1.463-1.861-1.225-1.506-.239-.289-.203-.156-.574-.315M596.356 468.874l-.424-.004-1.702-.148-2.433-.282-1.475-.117-2.137-.094-2.361.086-1.436.04-2.17-.048-3.74-.023-3.924-.086-5.128-.516-4.673-.587-4.969-.649-2.696-.438-.79-.172-.25-.035-.332-.012-.368-.005-.211.017-.234.035-.434.1M547.842 467.426l2.3-.495 2.895-.665 1.432-.33" clip-path="url(#pb299f2733b)" style="fill:none;stroke:#000"/><path d="m596.356 468.874.458-.078.399-.106.566-.105.414-.04 1.11.012 1.921-.097 1.344-.196 1.145-.058 1.276-.032.845-.085.65-.11.283-.012.2.043.187.094 1.05.628" clip-path="url(#pb299f2733b)" style="fill:none;stroke:#000"/><path d="m605.834 464.66.455.199.295.172.215.203.231.36.606 1.713.467 1.274.1.151M592.936 478.807l.3-.16.667-.402 1.515-.735 1.675-.735.518-.273.088-.118.04-.148-.016-.195-.104-1.087-.885-3.824-.195-.488-.128-.275-.092-.242-.02-.168v-.223l.057-.86M574.31 506.005l-.178-.322-.798-1.189-2.008-3.012-1.126-1.64-1.085-1.626-2.32-3.386-4.453-6.607-8.91-13.166-1.2-1.726-1.253-1.884-1.356-1.83-1.437-1.844-.344-.347M582.199 531.738l-1.663-5.859-3.842-13.337-.8-2.817-.47-1.313-.448-1.105-.406-.834-.26-.468M582.199 531.738l-2.735.69-6.852 1.872-.379.047-.733.035" clip-path="url(#pb299f2733b)" style="fill:none;stroke:#000"/></g><g id="PathCollection_1"><defs><path id="m315b4f2008" d="M0 3a3 3 0 1 0 0-6 3 3 0 0 0 0 6z" style="stroke:green;stroke-opacity:.8"/></defs><g clip-path="url(#pb299f2733b)"><use xlink:href="#m315b4f2008" x="563.389" y="627.929" style="fill:green;fill-opacity:.8;stroke:green;stroke-opacity:.8"/><use xlink:href="#m315b4f2008" x="561.754" y="625.709" style="fill:green;fill-opacity:.8;stroke:green;stroke-opacity:.8"/><use xlink:href="#m315b4f2008" x="562.878" y="625.514" style="fill:green;fill-opacity:.8;stroke:green;stroke-opacity:.8"/><use xlink:href="#m315b4f2008" x="559.273" y="626.608" style="fill:green;fill-opacity:.8;stroke:green;stroke-opacity:.8"/><use xlink:href="#m315b4f2008" x="558.907" y="627.922" style="fill:green;fill-opacity:.8;stroke:green;stroke-opacity:.8"/><use xlink:href="#m315b4f2008" x="555.398" y="626.764" style="fill:green;fill-opacity:.8;stroke:green;stroke-opacity:.8"/><use xlink:href="#m315b4f2008" x="554.44" y="629" style="fill:green;fill-opacity:.8;stroke:green;stroke-opacity:.8"/><use xlink:href="#m315b4f2008" x="543.961" y="627.875" style="fill:green;fill-opacity:.8;stroke:green;stroke-opacity:.8"/><use xlink:href="#m315b4f2008" x="544.009" y="627.531" style="fill:green;fill-opacity:.8;stroke:green;stroke-opacity:.8"/><use xlink:href="#m315b4f2008" x="544.487" y="628.047" style="fill:green;fill-opacity:.8;stroke:green;stroke-opacity:.8"/><use xlink:href="#m315b4f2008" x="544.344" y="628.829" style="fill:green;fill-opacity:.8;stroke:green;stroke-opacity:.8"/><use xlink:href="#m315b4f2008" x="547.262" y="629.063" style="fill:green;fill-opacity:.8;stroke:green;stroke-opacity:.8"/><use xlink:href="#m315b4f2008" x="542.429" y="627.312" style="fill:green;fill-opacity:.8;stroke:green;stroke-opacity:.8"/><use xlink:href="#m315b4f2008" x="558.014" y="626.436" style="fill:green;fill-opacity:.8;stroke:green;stroke-opacity:.8"/></g></g><g id="PatchCollection_1"><path d="m364.439 362.898.296.435 3.561-2.19-.476-.651zM376.98 354.622l.575.949 3.519-2.24-.54-.813zM371.605 357.97l.566.908 4.91-2.969-.599-1.007zM370.988 359.476l.13-.023.116-.063.09-.095.054-.118.013-.136-.034-.132-.077-.113-.11-.083-.132-.041-.139.004-.13.048-.105.088-.07.118-.027.133.019.129.059.116.093.092.118.058zM378.06 339.788l.637.97 2.888-1.001-.383-1.001zM371.576 337.173l1.246 3.127-2.858 1.077-1.173-3.215zM365.522 349.612l.466 1.505-1.463.528-.423-1.63zM404.624 319.167l4.541-2.614 1.32 2.314-4.195 2.968zM386.636 335.787l1.395-.732-.24-.29-.324-.152-.31.083-.253.124-.183.138-.268.331zM546.96 628.086l1.994-.023 1.036.003.076-.266-.08-.887-.127-.14-2.756.073-.183.114-.024.266-.02.703zM594.506 600.088l-.415-3.113 2.686-.344.415 3.114z" clip-path="url(#pb299f2733b)" style="fill:green;fill-opacity:.8"/></g><g id="PatchCollection_2"><path d="m385.374 331.135.488-.189-.382-.95-.488.189zM436.547 319.618l3.589-4.172-2.693-2.227-3.59 4.17zM396.58 342.727l1.28-.866-.516-.734-1.281.866zM380.581 330.243l.653 1.992-1.295.443-.726-2.043zM403.894 317.223l.66-.474.942 1.301-.787.417zM405.433 316.227l.703-.417.83 1.384-.604.308zM409.873 316.403l2.097-1.28-1.875-2.778-1.985 1.144zM602.281 598.672l.183 1.517.778-.09-.182-1.517z" clip-path="url(#pb299f2733b)" style="fill:#90ee90;fill-opacity:.8"/></g><path id="PatchCollection_3" d="m403.18 324.844-1.361-2.383-2.569 1.43 1.57 2.505z" clip-path="url(#pb299f2733b)" style="fill:#006400;fill-opacity:.8"/><path id="PatchCollection_4" d="M400.722 368.093v5.38l-2.041 4.566-3.127 4.942-3.637 2.252-4.721 3.379-2.489 3.503-4.721-.438-2.871-5.505-2.808-6.819-2.998-2.127-6.444 1.752-6.89 3.315-4.978-.437-.765-2.065 2.68-3.878-4.658-2.252.829-3.379 4.594-3.94.638-2.44-.83-.188-4.21 1.751-.575-3.94 3.318-6.069-1.786-4.755-3.126-2.126-2.744-4.442-1.212-4.442.127-5.13-.893-3.628 2.934-5.693-.255-5.505-1.786-3.316-3.445-4.629-2.106-2.815-4.913-5.63.575-3.191 2.169-2.502 9.315 6.944 4.722 3.19 1.978-2.815-2.298-6.13 3.956-3.567 3.446-.187 7.018.125 2.552-1.565 4.211-3.816 13.208-8.946-2.936-8.07 1.277-2.378 7.146-2.69 1.403.188 3.637 3.44 4.722 4.63 3.7 4.004 1.468 1.126 2.424 3.441 1.212-3.003-.19-2.815v-3.878l3.253-.939 7.337-1.001 4.084 3.941.446 7.32-3.062 3.378 2.68 6.507 1.53 4.817.639 9.446 6.572-5.255 11.995-.188-1.595 5.318-2.17 2.565 7.019 5.443-7.465 14.889-9.698.313-7.466 4.004-1.595 3.002 8.614-.438 3.892 1.501 1.659 4.88.701 7.758 1.022 4.504.765 3.128-2.807 4.566-7.274-.375-7.911-3.941-5.041.312-7.018 2.753-5.615 3.128z" clip-path="url(#pb299f2733b)" style="fill:#d3d3d3;fill-opacity:.8"/><g id="PatchCollection_5"><path d="m376.979 355.876-.256-.405-.792.48.256.405zM385.57 337.33l.484 1.067-.556.273-.471-1.174zM366.633 339.374l1.173-.403-.17-.628-1.22.368zM370.834 341.977l.496-.107.604 1.505-.483.19zM374.002 342.783l.628-.367.145.248-.544.403zM372.841 342.7l.52-.178.048.178-.471.225zM374.546 342.356l-.12-.178-1.21.688.181.201zM368.715 343.462l.652-.214-.23-.652-.688.226zM369.138 348.924l.205.628.41-.154-.24-.616zM373.313 350.06l-.242.178-.484-.675.363-.19zM392.291 331.866l-.531-.924.785-.64.81.853zM391.145 332.621l-.695-1.053-.41.196.726 1.125zM389.156 332.961l.305-.216.474.609-.41.288zM391.176 332.57l.464-.31-.769-1.146-.484.3zM386.704 336.975l.39.919-.369.144-.4-.918z" clip-path="url(#pb299f2733b)" style="fill:#a9a9a9;fill-opacity:.8"/><path d="m386.777 336.934.358-.093.316.856-.385.134zM372.329 337.316l.968 2.466-.526.185-.948-2.497zM370.066 342.34l.368-.102.243.743-.348.133zM367.525 340.03l.59-.217.158.454-.621.258zM371.72 360.032l.411.557-.41.237-.35-.545zM368.916 361.857l.628-.38.411.594-.652.402zM372.059 341.66l.363.913-.29.154-.387-.948zM376.894 344.683l.69-.45-.303-.475-.713.404zM377.149 346.935l-.35.178-.279-.463.46-.13zM367.138 349.069l.32-.09.147.575-.376.099zM367.275 354.998l.256-.18.385.52-.283.198zM372.27 351.972l.531.88-.312.17-.55-.835zM371.34 347.256l-.248-.853-.485.117.284.87zM374.687 335.029l.485-.17-.346-.82-.476.125zM372.932 336.515l.782-.281.24.625-.774.29z" clip-path="url(#pb299f2733b)" style="fill:#a9a9a9;fill-opacity:.8"/><path d="m373.419 337.704.718-.25-.208-.524-.75.218zM377.631 337.605l-.034-.521.375-.024-.07-1.052 2.494-.158.061.928.55-.035.043.645zM395.695 340.236l.654.886.369-.262-.655-.886zM394.837 340.32l1.181 1.581.38-.273-1.18-1.582zM394.247 340.758l1.18 1.582.381-.274-1.18-1.582zM393.639 341.17l1.181 1.582.38-.273-1.18-1.582zM392.77 341.715l1.318 1.77.62-.444-1.317-1.77zM383.215 343.512l.303.72.463-.126-.256-.782zM375.056 339.465l.24.5 1.53-.625-.286-.454zM389.989 335.746l.211.345.521-.4-.21-.277zM386.186 334.337l.239.414 1.014-.676-.267-.374zM386.664 325.829l.17.497.577-.207-.155-.443zM600.493 597.218l.278 1.14.472-.11-.277-1.14z" clip-path="url(#pb299f2733b)" style="fill:#a9a9a9;fill-opacity:.8"/></g></g></g><defs><clipPath id="pb299f2733b"><path d="M90 88.393h558v550.415H90z"/></clipPath></defs></svg>