<svg xmlns="http://www.w3.org/2000/svg" width="960" height="960" viewBox="0 0 720 720"><defs><style>*{stroke-linejoin:round;stroke-linecap:butt}</style></defs><g id="figure_1"><path id="patch_1" d="M0 720h720V0H0z" style="fill:#fff"/><g id="axes_1"><path id="patch_2" d="M173.785 640.8h390.43V86.4h-390.43z" style="fill:#fff"/><g id="LineCollection_1"><path d="m373 494.325-3.29 12.628M373 494.325l1.654-6.614M373 494.325l7.023 1.769M329.957 441.347l3.045 3.73 4.526 5.013 5.271 5.492 10.958 12.125 5.752 6.782 6.284 7.278.422.703.324.67.348 1.125.298.893.406 2.316.034 1.117.124 3.399.149.645.327.568.545.51.657.427.737.246 2.836-.06M359.339 547.861l-2.498 9.89-2.346 9.544-1.84 7.344-7.07 28.079-1.327 5.235-5.456 22.185M516.109 140.436l-7.378 7.776-1.624 1.39-2.586 1.72-2.387 1.422-2.553 1.357-1.957.794-1.582.48-4.403.78-25.263 3.67-1.65.338-1.773.53-4.095 1.506-2.856.728M439.362 229l10.693-42.724.614-2.407 5.333-20.942M393.462 406.762l-.775 3.577M393.462 406.762l1.73-6.36M393.462 406.762l-4.576-.928M379.293 403.89l-4.892-1.03M379.293 403.89l4.902 1.067M385.792 398.394l-3.986-.932-.456-.083-.273-.032-.208.008-.09.165-.05.215-.067.282-1.369 5.872M359.5 399.708l-3.364-.722M359.5 399.708l5.03 1.048M359.5 399.708l-1.9 9.407M359.5 399.708l1.27-5.628M346.02 396.784l-3.44-.796M346.02 396.784l3.394.761M346.02 396.784l-1.97 8.699M346.02 396.784l1.156-5.72M338.94 395.195l3.64.793M338.94 395.195l1.304-5.622M338.94 395.195l-2.16 8.6M392.687 410.34l-4.54-.918M390.572 418.704l.44-1.768 1.675-6.597M383.309 408.378l-4.469-.986M383.309 408.378l4.838 1.044M383.309 408.378l.886-3.421M373.662 406.243l2.713.602M373.662 406.243l-.61 3.265M373.662 406.243l.74-3.382M374.401 402.86l-3.358-.71M369.314 425.38l3.169.595M369.314 425.38l-3.5-.713M371.521 416.006l-1.053 4.359-1.154 5.015M387.465 412.72l-4.803-1.143M387.465 412.72l-.739 3.257M387.465 412.72l.682-3.298M378.14 410.5l-2.548-.596M378.14 410.5l4.522 1.077M378.14 410.5l-.737 3.451M378.14 410.5l.7-3.108M373.052 409.508l-.781 3.284M373.052 409.508l2.54.396M386.726 415.977l-.384 1.614M381.857 414.739l1.42.323 3.449.915M372.271 412.792l-.75 3.214M377.403 413.951l-2.3-.529-2.832-.63M410.418 344.786l.105-.416M404.418 368.711l4.39-17.554 1.61-6.37M424.166 349.655l-1.728-.702-3.714-1.357-2.967-1.042-3.398-1.207-1.941-.56M364.795 414.578l1.585-6.634M364.795 414.578l-1.822 7.862M364.795 414.578l3.396.695M364.795 414.578l-3.532-.83M359.475 421.539l3.498.9M359.475 421.539l.268-1.201M359.475 421.539l-.61 2.5M349.279 417.38l.942-3.288M349.279 417.38l-.91 3.503M349.279 417.38l10.464 2.958M333.78 416.09l4.405 1.408M333.78 416.09l.878-2.94M333.78 416.09l-.282.306M354.201 422.58l4.663 1.458M354.201 422.58l-.595 1.848M348.975 421.117l2.406.571 2.82.892M346.297 412.176l-1.477 7.428M346.297 412.176l1.154-5.85M346.297 412.176l-3.49-.661M341.477 418.488l3.343 1.116M341.477 418.488l-3.292-.99M341.477 418.488l1.33-6.973M344.82 419.604l3.55 1.28M344.82 419.604l-.633 1.89M347.45 406.326l1.964-8.781M347.45 406.326l3.329.77M347.45 406.326l-3.4-.843M362.172 410.295l.815-3.163M362.172 410.295l-.91 3.453M357.6 409.115l3.392.972 1.18.208M340.244 389.573l3.584.732M345.198 384.285l-3.132-.805-.145-.004-.116.013-.132.029-.05.035-.04.054-.027.06-.032.097-.026.109-.1.356-1.154 5.344M362.956 383.416l-.944 4.44M362.956 383.416l.767-3.513M362.956 383.416l5.961 1.516M362.956 383.416l-6.102-1.67M368.917 384.932l5.992 1.526M368.917 384.932l.707-3.427M374.909 386.458l.894-3.45M374.909 386.458l-.422 1.725M382.605 385.82l-.872.205-.785.113-1.225.245-1.34.143-1.557-.047-1.1-.024-.817.003M348.215 376.08l-.789 3.228M348.215 376.08l.874-3.48M357.603 378.441l-3.355-.905-3.48-.785-2.553-.671M357.603 378.441l6.12 1.462M357.603 378.441l-.75 3.304M357.603 378.441l.906-3.415M380.984 362.633l.923-5.044M380.984 362.633l-1.623 6.889M380.984 362.633l-6.94-1.91M380.984 362.633l7.57 2.059M368.191 415.273l3.33.733M368.191 415.273l1.514-6.507M368.191 415.273l-2.017 7.89M361.263 413.748l-.805 3.449M351.038 410.787l4.26 1.29 4.377 1.24 1.588.431M362.987 407.132l1.544-6.376M362.987 407.132l3.393.812M371.521 416.006l3.224.745M349.969 369.23l9.348 2.472M349.969 369.23l-.88 3.37M349.969 369.23l.906-3.458M363.306 434.772l.84-3.417M363.306 434.772l1.591.447M356.953 432.82l3.087.943 3.266 1.01M336.78 403.795l3.923.895M336.78 403.795l-1.663 6.036M340.703 404.69l3.347.793M340.703 404.69l-1.202 6.039M340.703 404.69l1.876-8.702M344.05 405.483l-1.242 6.032M350.779 407.095l3.335 1.13M350.779 407.095l1.948-8.84M351.88 385.753l-1.312 6.091M351.88 385.753l3.404.79M351.88 385.753l-3.38-.756M349.414 397.545l3.313.71M349.414 397.545l1.154-5.7M343.828 390.305l3.348.758M343.828 390.305l-1.249 5.683M343.828 390.305l1.37-6.02M356.854 381.745l-9.428-2.437M369.624 381.505l6.18 1.503M369.624 381.505l-5.9-1.602M369.624 381.505l.986-3.257M370.61 378.248l6.222 1.383M370.61 378.248l-6.075-1.654M370.61 378.248l.858-3.545M371.468 374.703l6.16 1.76M371.468 374.703l-6.085-1.507M371.468 374.703l.703-3.246M360.175 368.473l6.09 1.407M360.175 368.473l-9.3-2.7M360.175 368.473l-.858 3.23M360.175 368.473l.932-3.752M372.17 371.457l6.32 1.548M372.17 371.457l-5.906-1.577M372.17 371.457l.972-3.573M386.58 338.8l.26-1.161M386.58 338.8l7.29 1.668M385.184 344.318l.134-.511 1.262-5.008M388.561 331.045l1.494-6.503M388.561 331.045l-1.722 6.594M388.561 331.045l7.122 1.979M388.561 331.045l-6.463-1.664M364.917 427.983l-.77 3.372M364.917 427.983l-6.502-1.973M364.917 427.983l3.99 1.182M364.917 427.983l.897-3.316M371.043 402.15l-3.385-.874M371.043 402.15l-1.338 6.616M376.734 417.222l1.323.38M376.734 417.222l-1.989-.471M376.734 417.222l.67-3.27M350.22 414.092l.818-3.305M350.22 414.092l10.238 3.105M353.987 392.552l3.302.825M353.987 392.552l-3.419-.708M353.987 392.552l1.297-6.009M353.987 392.552l-1.26 5.703M360.77 394.08l-3.48-.703M360.77 394.08l1.242-6.224M365.383 373.196l-.848 3.398M365.383 373.196l.881-3.316M365.383 373.196l-6.066-1.494M366.174 423.163l-3.2-.723M366.174 423.163l-.36 1.504M367.658 401.276l-3.127-.52M367.658 401.276l-1.278 6.668M357.29 393.377l-1.154 5.61M357.29 393.377l1.3-6.145M348.5 384.997l-2.249-.47M348.5 384.997l-1.324 6.066M401.687 374.832l.773 1.387M401.687 374.832l-2.555-.717M401.687 374.832l1.54-6.412M401.687 374.832l-.777 3.133M386.034 375.644l1.17-4.125M386.034 375.644l-.745 2.278M394.138 377.39l-2.916-.597-5.188-1.15M378.49 373.005l3.076 1.084 4.468 1.555M356.034 436.132l.919-3.312M356.034 436.132l-5.365-1.84M356.034 436.132l2.79 1.11M356.953 432.82l.794-3.352M351.796 431.044l2.2.71 2.957 1.066M358.415 426.01l.45-1.972M358.415 426.01l-.668 3.458M358.415 426.01l-4.81-1.582M360.458 417.197l-.715 3.14M349.597 410.37l1.441.417M381.947 418.468l3.979.814M381.947 418.468l-3.89-.867M381.947 418.468l-2.01 9.02M345.198 384.285l1.053.242M367.057 366.321l-.793 3.56M367.057 366.321l5.12 1.27M367.057 366.321l-1.843-.553M368.257 361.361l-.684 2.633-.516 2.327M363.723 379.903l.812-3.309M347.426 379.308l-3.428-1.045M347.426 379.308l-.735 3.264M358.51 375.026l6.025 1.568M358.51 375.026l-9.421-2.427M358.51 375.026l.807-3.324M378.49 373.005l.87-3.483M378.49 373.005l-.861 3.458M387.204 371.519l7.192 1.307M379.36 369.522l2.99.874 4.854 1.123" clip-path="url(#p23d038acc9)" style="fill:none;stroke:#000"/><path d="m388.554 364.692-.213 1.263-1.137 5.564M362.012 387.856l5.584 1.285 4.21 1.062 1.057.237.315.075.356.008.2-.016.098-.166.092-.206.107-.298.456-1.654" clip-path="url(#p23d038acc9)" style="fill:none;stroke:#000"/><path d="m381.474 389.7-4.428-.883-2.56-.634M366.38 407.944l3.325.822M348.37 420.883l.605.234M338.185 417.498l.708-3.364M355.284 386.543l3.306.689M362.012 387.856l-3.422-.624M373.142 367.884l6.219 1.638M373.142 367.884l-.966-.292M354.304 350.645l-1.055 5.193M354.304 350.645l1.579-6.568M354.304 350.645l6.692 1.87M353.249 355.838l6.602 1.358M353.249 355.838l-1.42 6.21M385.926 419.282l.416-1.691M384.996 423.18l.48-2.028.45-1.87M375.803 383.008l.419-1.415M376.832 379.631l.797-3.168M376.832 379.631l-.61 1.962M385.29 377.922l-2.312-.275-2.862-.56-2.487-.624M350.875 365.772l.953-3.724M351.828 362.048l6.27 1.838M357.6 409.115l-3.486-.89M350.568 391.844l-3.392-.78M358.097 363.886l3.01.835M359.851 357.196l-.468 1.862-1.286 4.828M394.396 372.826l.804.202M394.396 372.826l1.279-4.613M399.132 374.115l-1.162-.358M399.132 374.115l.564-2.452M346.251 384.527l.44-1.955M390.055 324.542l-5.268-1.353M390.055 324.542l5.289.947M390.055 324.542l3.255-5.836M397.12 393.507l-1.928 6.896M388.834 391.335l5.8 1.51 2.486.662M400.91 377.965l-.375 1.648-1.802 7.42-1.613 6.474M395.192 400.403l-4.625-1.009M389.884 421.62l.688-2.916M389.208 424.292l.424-1.653.252-1.02M390.748 422.954l-.404-.456-.2-.364-.26-.515M390.748 422.954l-5.334 21.56" clip-path="url(#p23d038acc9)" style="fill:none;stroke:#000"/><path d="m402.46 376.22-.122.545-2.036 8.302-1.353 5.517-1.113 4.453-3.112 12.447-3.123 12.49-.853 2.98M376.375 406.845l2.465.547M376.375 406.845l-.783 3.06M377.403 413.951l4.454.788M382.662 411.577l-.805 3.162M388.554 364.692l.992-5.144M396.067 366.532l-2.73-.67-4.783-1.17M361.107 364.72l4.107 1.048M361.107 364.72l1.229-4.784M396.067 366.532l-.392 1.68M396.067 366.532l1.094-5.278M396.067 366.532l3.435.88M399.502 367.412l-.276 1.713M399.502 367.412l1.079.275M400.58 367.687l2.647.733M400.58 367.687l-.343 1.658M403.227 368.42l1.191.291M403.227 368.42l1.29-5.371M395.675 368.213l3.55.912M404.418 368.711l-1.958 7.508M399.226 369.125l1.01.22M399.226 369.125l-.609 2.247M400.237 369.345l-.541 2.318M398.617 371.372l1.079.291M398.617 371.372l-.647 2.385M397.97 373.757l-2.77-.729M540.585 423.127l-2.362.232-1.666.314-2.33.033-1.491-.315-1.517-.512-1.84-.745-6.316-2.25-11.19-3.705-20.672-7.261-8.214-3.201-21.46-7.651-8.504-2.647-11.281-3.763-7.783-2.357-5.686-1.91-7.58-2.4-.808-.367-1.061-.7-2.396-2.406-1.003-.869-1.086-.76-1.201-.687-1.02-.265-3.05-.289-1.666-.248-.92-.252-2.196-.782-.962-.521-.864-.624M385.29 377.922l-1.197 3.6M394.138 377.39l-.335 1.099-.626.58-3.1-.41-4.605-.716-.183-.021M384.093 381.522l-.646 1.886M384.093 381.522l5.708.873M382.605 385.82l.842-2.412M382.605 385.82l-1.131 3.88M385.17 386.09l-1.21-.197-1.355-.072M388.834 391.335l.822-3.078.082-.265.042-.24-.025-.223-.107-.15-.274-.148-1.301-.355-2.904-.786" clip-path="url(#p23d038acc9)" style="fill:none;stroke:#000"/><path d="m384.405 383.315.22.735.487.56.206.764-.149.716M381.474 389.7l7.36 1.635M352.727 398.255l3.41.731M385.792 398.394l-1.597 6.563M385.792 398.394l4.775 1M354.114 408.224l.758-3.626 1.264-5.612M390.567 399.394l-1.681 6.44M384.195 404.957l4.69.877M335.117 409.83l4.384.899M335.117 409.83l-.46 3.32M339.5 410.729l3.308.786M339.5 410.729l-.607 3.405M334.658 413.15l4.235.984M374.745 416.751l-2.262 9.224M378.057 417.601l-2.135 9.154M331.985 418.03l1.513-1.634M331.985 418.03l1.308.083M328.708 420.405l2.887-1.91.39-.465M324.3 419.05l.712-1.258.862-1.72.157-.103.117-.03.173.042 5.664 2.049M344.187 421.495l4.228 1.309M344.187 421.495l-10.894-3.382M343.997 424.807l-.137-.977-.008-.422.335-1.913M353.606 424.428l-5.191-1.624M353.606 424.428l-.915 3.4M343.997 424.807l6.312 2.142M348.334 430.537l-3.454-1.083-.272-.203-.14-.203-.471-4.241M372.483 425.975l3.44.78M372.483 425.975l-.921 3.97M375.922 426.755l4.015.733M350.309 426.949l-1.975 3.588M350.309 426.949l2.382.879M384.996 423.18l-1.366 4.95-.058.071-.101.043-.156-.028-3.378-.728M352.69 427.828l5.057 1.64M352.69 427.828l-.894 3.216M357.747 429.468l6.4 1.887M371.562 429.945l1.795.574M371.562 429.945l-2.655-.78M367.92 432.447l2.407.68.14-.002.104-.06.07-.071.92-3.05" clip-path="url(#p23d038acc9)" style="fill:none;stroke:#000"/><path d="m350.67 434.292-2.234-.545-1.034-.382-.117-.18-.016-.206 1.065-2.442M350.67 434.292l.14-.477.402-1.186.584-1.585M364.147 431.355l3.773 1.092M353.445 447.38l-4.539-5.807-.14-.329.03-.377 1.171-4.218.702-2.357M397.51 326.132l-1.827 6.892M397.51 326.132l1.01.255M397.51 326.132l-2.166-.643M398.52 326.387l6.306 1.388M398.52 326.387l-1.757 6.9M395.683 333.024l1.08.263M395.683 333.024l-1.317 5.586M396.763 333.287l6.447 1.366M396.763 333.287l-1.288 5.488M411.396 336.53l-7.4-1.678M411.396 336.53l-2.06 6.428M411.396 336.53l1.728-6.669M394.366 338.61l-.293 1.017M394.366 338.61l.492.087.617.078M395.475 338.775l-.264 1.04M394.073 339.627l-.203.841M394.073 339.627l1.138.189M395.21 339.816l-.16.866M401.584 341.046l-1.551-.308-4.822-.922M393.87 340.468l.592.136M394.462 340.604l.589.078M394.462 340.604l-1.6 6.009M395.05 340.682l6.42 1.376M409.337 342.958l-.298 1.003M409.337 342.958l-3.55-.935-3.23-.703M409.337 342.958l1.442.367M410.779 343.325l-.256 1.045M418.009 314.541l-2.14 8.673-3.893 15.381-1.197 4.73" clip-path="url(#p23d038acc9)" style="fill:none;stroke:#000"/><path d="m429.586 317.52 1.343 2.73.265 3.043-1.161 4.202-2.254 3.87-4.974 7.312-.199 1.026-.597.794-1.027.728-1.625 1.39-2.685.33-2.586.166-3.307.214M409.039 343.961l-1.474 6.561M409.039 343.961l.287.092 1.197.317M409.039 343.961l-6.875-1.761M389.546 359.548l1.606-6.508M389.546 359.548l7.615 1.706M389.546 359.548l-7.639-1.96M395.2 373.028l-1.062 4.362M394.138 377.39l6.772.575M325.132 425.73l-2.907 5.704-.827 1.486M318.007 431.517l1.717.691 1.674.712" clip-path="url(#p23d038acc9)" style="fill:none;stroke:#000"/><path d="m329.957 441.347-2.193-2.29-2.255-2.531-2.055-2.002-1.028-.976-1.028-.628M376.222 381.593l7.225 1.815M359.851 357.196l2.967.68M359.851 357.196l1.145-4.682M365.214 365.768l1.31-4.919M367.074 358.85l-1.462-.336M367.074 358.85l1.664.447M367.074 358.85l.795-3.221M367.074 358.85l-.55 2M366.524 360.85l1.733.511M366.524 360.85l-4.188-.914M373.417 362.885l-5.16-1.524M373.417 362.885l.627-2.161M373.417 362.885l-1.24 4.707M374.044 360.724l-5.306-1.427M374.044 360.724l1.084-4.6M404.517 363.049l1.507-6.208M404.517 363.049l-7.356-1.795M381.907 357.589l-6.779-1.466M383.42 351.263l-.52 2.254-.993 4.072M391.152 353.04l1.71-6.427M391.152 353.04l7.529 1.867M391.152 353.04l-7.732-1.777M406.024 356.841l-7.343-1.934M407.565 350.522l-.525 2.162-1.016 4.157M360.754 323.81l-1.665 6.93M360.754 323.81l1.555-6.407M360.754 323.81l7.252 1.85M371.985 260.906l-1.756 6.916M371.985 260.906l3.324.915M371.985 260.906l-3.357-1.014M427.181 277.297l.21-.608M427.181 277.297l-2.908 11.359M427.181 277.297l-1.071-.307M401.132 269.453l-2.95 4.383M401.132 269.453l3.509 1.118M401.132 269.453l-5.97-1.701M375.948 304.98l-.698-.251M375.948 304.98l1.005-.15M378.383 306.55l-1.454-1.045-.98-.526M421.88 275.774l-6.351 9.533M421.88 275.774l2.41.692M421.88 275.774l-2.883-.938M398.183 273.836l-.584.786M398.183 273.836l2.982 2.089M415.529 285.307l-4.174 6.141M415.529 285.307l3.247 1.767M415.529 285.307l-2.522-1.577M424.273 288.656l-.862-.257M424.273 288.656l-1.383 6M404.64 270.571l-3.475 5.354M404.64 270.571l1.542.45M401.165 275.925l2.83 1.806M401.165 275.925l-4.043 6.044M380.714 306.75l4.078-6.27M380.714 306.75l2.862 1.77M380.714 306.75l-2.07-1.044M395.232 315.692l3.96-5.807M395.232 315.692l-.836 1.31M395.232 315.692l-2.312-1.622M384.787 323.189l-1.138-.268M384.787 323.189l1.514-6.178M386.301 317.01l2.912.712M386.301 317.01l-3.417-.863M386.301 317.01l1.6-5.978M387.901 311.032l2.239 1.32M387.901 311.032l-1.021-.618M384.81 309.306l-.274.83M384.81 309.306l2.07 1.108M384.81 309.306l-1.234-.786M382.884 316.147l-3.16-.81M382.884 316.147l-1.465 6.167M382.884 316.147l1.652-6.012M381.42 322.314l-3.221-.803M381.42 322.314l2.23.607M384.536 310.135l-3.316-.85M374.51 307.572l-3.374-.9M374.51 307.572l3.377.8M374.51 307.572l.74-2.843M374.51 307.572l-1.472 6.088M361.172 304.175l1.543-6.228M361.172 304.175l-1.687 6.02M361.172 304.175l3.29.9M378.602 302.22l-1.649 2.61M378.602 302.22l1.204-1.767M378.602 302.22l-2.506-.74M362.715 297.947l1.508-6.032M362.715 297.947l3.323.95M361.43 317.12l.88.283M361.43 317.12l1.526-6.093M359.485 310.195l-1.26 4.921-.075.447v.213l.048.21.132.186.142.123.292.132 2.666.692M362.956 311.027l3.313.85M362.956 311.027l-3.47-.832M362.956 311.027l1.507-5.951M364.463 305.076l3.364.773M364.463 305.076l1.575-6.178M366.038 298.898l3.319.847M366.038 298.898l1.573-5.995M375.309 261.821l-1.801 6.828M375.309 261.821l3.282.913M397.599 274.622l-3.632 5.413M397.599 274.622l-3.92-1.016M373.508 268.649l-1.445 5.995M373.508 268.649l-3.279-.827M373.508 268.649l3.467.897M370.229 267.822l-1.447 5.99M370.229 267.822l-3.317-.928M354.123 263.567l-3.312-.753M354.123 263.567l2.798.8M354.123 263.567l-1.36 6.146M354.123 263.567l1.683-7.49M334.163 259.078l3.322.594M334.163 259.078l-1.373 5.895M338.796 252.628l-2.414-.579-.276-.031-.199.029-.147.066-.147.18-.177.418-1.273 6.367M328.41 282.99l-.475 1.006M331.947 283.937l-3.422-.845-.067-.039-.049-.063M329.839 277.118l-1.445 5.66-.01.073.007.07.018.069M364.223 291.915l1.509-5.923M364.223 291.915l3.388.988M364.223 291.915l-3.321-.744M367.61 292.903l1.438-6.028M367.61 292.903l3.219.855M380.864 296.272l-3.372-.874M380.864 296.272l-1.058 4.18M380.864 296.272l1.577-6.181M364.807 318.016l-2.498-.613M364.807 318.016l3.37.839M364.807 318.016l1.462-6.14M366.27 311.876l3.363.875M366.27 311.876l1.557-6.026M367.827 305.85l3.31.822M367.827 305.85l1.53-6.105M369.357 299.745l3.33.873M369.357 299.745l1.472-5.987M370.829 293.758l3.31.88M370.829 293.758l1.553-6.015M372.382 287.743l-3.334-.868M372.382 287.743l3.313.735M386.33 291.066l-.702.904M386.33 291.066l3.75-5.343M386.33 291.066l-.53-.176M369.048 286.875l1.448-6.195M369.048 286.875l-3.316-.883M365.732 285.992l1.471-6.114M365.732 285.992l-3.376-.923M329.839 277.118l3.464.776M329.839 277.118l1.475-6.031M331.314 271.087l3.38.705M331.314 271.087l1.476-6.114M367.203 279.878l1.58-6.066M367.203 279.878l3.293.802M367.203 279.878l-3.33-.908M370.496 280.68l1.567-6.036M360.902 291.171l-3.332-.794M360.902 291.171l1.454-6.102M362.356 285.069l-3.32-.837M362.356 285.069l1.516-6.1M363.872 278.97l-3.297-.809M363.872 278.97l1.57-6.018M366.912 266.894l-3.246-.809M366.912 266.894l1.716-7.002M366.912 266.894l-1.47 6.058M368.628 259.892l-3.239-1.02M365.389 258.873l-1.723 7.212M365.389 258.873l-3.261-.859M363.666 266.085l-3.364-.872M363.666 266.085l-1.556 5.921M360.575 278.161l-3.307-.835M360.575 278.161l-1.54 6.07M360.575 278.161l1.535-6.155M359.035 284.232l-3.336-.906M359.035 284.232l-1.465 6.145M357.57 290.377l-3.448-.81M332.79 264.973l3.327.675M362.11 272.006l3.333.946M362.11 272.006l-3.387-.81M365.443 272.952l3.34.86M368.782 273.812l3.281.832M372.063 274.644l3.334.942M393.967 280.035l-2.544 3.55M393.967 280.035l3.155 1.934M393.967 280.035l-1.73-.337M397.122 281.969l-3.915 5.978M397.122 281.969l3.005 2.035M411.355 291.448l-3.93 6.18M411.355 291.448l-2.378-1.445M414.109 292.571l-1.602-.46-1.152-.663M422.89 294.657l-.96-.227M421.528 300.087l.133-.531 1.229-4.9M421.528 300.087l-.941-.272M421.528 300.087l-.765 2.813M408.826 298.668l-1.652 6.536M408.826 298.668l-1.4-1.04M412.793 297.799l-1.678-.458-.786-.11-.662.303-.389.278-.452.856M407.174 305.204l3.53.838M403.333 303.793l1.17.625 2.67.786M414.109 292.571l3.199.767M414.109 292.571l-1.316 5.228M412.793 297.799l3.392.864M412.793 297.799l-2.089 8.243M410.704 306.042l3.266.825M403.333 303.793l4.093-6.164M403.333 303.793l-4.141 6.092M403.333 303.793l-2.494-1.542M389.023 294.275l-4.23 6.204M389.023 294.275l4.184-6.328M389.023 294.275l-3.395-2.305M389.023 294.275l2.858 1.838M385.628 291.97l-4.249 6.287M407.426 297.629l-2.451-1.574M393.207 287.947l-3.127-2.224M393.207 287.947l2.835 1.978M390.08 285.723l1.343-2.139M390.08 285.723l-2.834-.829M380.673 283.244l3.322.804M380.673 283.244l1.473-5.98M380.673 283.244l-1.62 6.063M395.162 267.752l-1.483 5.854M395.162 267.752l-3.373-1.082M393.679 273.606l-3.337-.851M393.679 273.606l-1.442 6.092M392.237 279.698l-3.48-.758M392.237 279.698l-.814 3.886M408.135 271.59l-4.14 6.14M408.135 271.59l3.596 1.149M408.135 271.59l-1.953-.57M403.994 277.73l3.188 2.182M403.994 277.73l-3.867 6.274M400.127 284.004l3.036 2.037M400.127 284.004l-4.085 5.921M396.042 289.925l3.031 2.036M396.042 289.925l-4.16 6.188M391.881 296.113l-4.114 6.315M391.881 296.113l3.038 2.193M383.576 308.52l4.19-6.092M381.38 298.257l-1.574 2.196M381.38 298.257l3.412 2.222M384.792 300.48l2.975 1.948M387.767 302.428l2.978 1.936M399.192 309.885l-2.413-1.524M386.88 310.414l3.865-6.05M390.745 304.364l3.141 2.129M390.745 304.364l4.174-6.058M394.919 298.306l4.154-6.345M394.919 298.306l3.1 2.046M399.073 291.961l3.059 2.06M399.073 291.961l4.09-5.92M403.163 286.04l2.971 1.97M403.163 286.04l4.02-6.128M407.182 279.912l3.056 1.956M407.182 279.912l4.55-7.173M411.731 272.739l3.9 1.169M415.632 273.908l-1.362 1.855M415.632 273.908l3.365.928M410.238 281.868l2.769 1.862M410.238 281.868l-4.104 6.141M410.238 281.868l4.032-6.105M406.134 288.01l2.843 1.993M406.134 288.01l-4.002 6.01M402.132 294.02l2.843 2.035M402.132 294.02l-4.112 6.332M398.02 300.352l-4.134 6.14M398.02 300.352l2.82 1.9M393.886 306.493l2.893 1.868M393.886 306.493l-3.746 5.859M390.14 312.352l1.289.842M389.213 317.722l4.097.984M389.213 317.722l2.216-4.528M391.429 313.194l1.49.876M378.383 306.55l-.496 1.822M378.383 306.55l.261-.844M377.887 308.372l3.333.913M381.22 309.285l-1.496 6.052M379.724 315.337l-3.465-.828M379.724 315.337l-1.525 6.174M378.199 321.51l-2.464-.63M376.605 312.984l-.346 1.525M376.26 314.509l-3.222-.85M376.26 314.509l-1.525 6.106M374.735 320.615l-3.305-.875M374.735 320.615l1 .266M371.43 319.74l-1.716-.458M371.43 319.74l1.608-6.08M373.038 313.66l-3.405-.91M376.096 301.48l-3.408-.862M376.096 301.48l1.396-6.082M376.096 301.48l-.846 3.249M377.492 295.398l-3.353-.76M377.492 295.398l1.56-6.091M379.053 289.307l-3.358-.83M379.053 289.307l3.388.784M382.146 277.264l3.408.867M382.146 277.264l-3.324-.89M382.146 277.264l1.468-6.032M383.614 271.232l-3.353-.893M383.614 271.232l3.367.745M383.614 271.232l1.738-6.377M385.352 264.855l3.166.892M385.352 264.855l-6.76-2.12M388.518 265.747l-1.537 6.23M388.518 265.747l3.27.923M386.98 271.977l3.362.778M386.98 271.977l-1.426 6.154M385.554 278.131l3.203.81M385.554 278.131l-1.559 5.917M383.995 284.048l3.25.846M383.995 284.048l-1.554 6.043M382.441 290.091l3.36.8M375.695 288.478l-1.556 6.16M374.139 294.637l-1.451 5.981M372.688 300.618l-1.552 6.054M371.136 306.672l-1.503 6.079M369.633 312.75l-1.455 6.105M368.178 318.855l1.536.427M392.92 314.07l3.86-5.709M396.78 308.361l4.06-6.11M400.84 302.251l4.135-6.196M404.975 296.055l4.002-6.052M408.977 290.003l4.03-6.273M413.007 283.73l4.052-6.053M418.997 274.836l-1.938 2.84M414.27 275.763l2.789 1.914M418.776 287.074l-1.468 6.264M423.41 288.399l-3.176-.946-1.458-.38M417.308 293.338l4.621 1.092M417.308 293.338l-1.123 5.325M416.185 298.663l-2.215 8.204M420.587 299.815l-1.461-.397-2.941-.755M413.97 306.867l4.52 1.318M354.122 289.567l-3.382-.877M354.122 289.567l1.577-6.24M355.699 283.326l-3.341-.803M355.699 283.326l1.57-6M357.268 277.326l-3.424-.876M357.268 277.326l1.455-6.13M358.723 271.195l-3.3-.812M358.723 271.195l1.579-5.982M360.302 265.213l-3.38-.846M360.302 265.213l1.826-7.199M378.591 262.734l-1.616 6.812M376.975 269.546l3.286.793M376.975 269.546l-1.578 6.04M378.822 276.375l-1.749-.348-1.676-.441M380.261 270.339l-1.439 6.036M391.789 266.67l-1.447 6.085M390.342 272.755l-1.585 6.185M388.757 278.94l-1.511 5.954M387.246 284.894l-1.445 5.996M356.921 264.367l-1.497 6.016M356.921 264.367l1.823-7.349M355.424 270.383l-2.662-.67M353.844 276.45l.741-2.37.839-3.697M353.844 276.45l-2.441-.677M353.844 276.45l-1.486 6.073M352.358 282.523l-2.323-.648M352.358 282.523l-1.618 6.167M352.762 269.713l-3.384-.802M352.762 269.713l-1.36 6.06M351.403 275.773l-3.203-.759M351.403 275.773l-1.368 6.102M350.035 281.875l-1.342 6.352M346.734 281.161l1.56.325 1.741.389M348.693 288.227l2.047.463M348.693 288.227l-3.622-.645M350.811 262.814l-3.334-.828M350.811 262.814l-1.433 6.097M350.811 262.814l1.765-7.725M349.378 268.911l-3.322-.822M349.378 268.911l-1.178 6.103M348.2 275.014l-3.62-.852M348.2 275.014l-1.466 6.147M346.734 281.161l-3.341-.866M346.734 281.161l-1.54 5.92M345.194 287.081l-.123.5M345.194 287.081l-3.1-.711M349.148 254.08l3.428 1.009M349.148 254.08l-1.671 7.906M345.682 253.668l1.546.12.694.064.684.097.542.13M347.477 261.986l-3.424-.756M347.477 261.986l-1.42 6.103M346.056 268.089l-3.372-.835M346.056 268.089l-1.476 6.073M344.58 274.162l-3.19-.836M344.58 274.162l-1.187 6.133M343.393 280.295l-3.393-.921M343.393 280.295l-1.3 6.075M342.093 286.37l-3.498-.755M342.093 286.37l-.13.914M338.595 285.615l-3.43-.88M338.595 285.615l1.405-6.241M338.595 285.615l-.47 1.342M340 279.374l-3.34-.803M340 279.374l1.39-6.048M341.39 273.326l-3.304-.814M341.39 273.326l1.294-6.072M335.165 284.734l-3.218-.797M335.165 284.734l1.495-6.163M335.165 284.734l-.451 1.64M336.66 278.57l-3.357-.676M336.66 278.57l1.426-6.058M338.086 272.512l-3.393-.72M338.086 272.512l1.28-6.031M339.365 266.48l3.319.774M339.365 266.48l-3.248-.832M339.365 266.48l1.406-6.085M340.771 260.395l-3.286-.723M340.771 260.395l3.282.835M340.771 260.395l1.743-7.651M342.514 252.744l3.168.924M338.796 252.628l1.036-.24.493-.066.423.004.502.058.65.157.614.203M345.682 253.668l-1.629 7.562M344.053 261.23l-1.37 6.024M337.485 259.672l-1.368 5.976M338.796 252.628l-.13 1.529-.418 2.701-.763 2.814M336.117 265.648l-1.424 6.144M334.693 271.792l-1.39 6.102M333.303 277.894l-1.356 6.043M331.947 283.937l-.428 1.428M374.289 327.481l2.028.494M374.289 327.481l-6.283-1.822M374.289 327.481l1.446-6.6M374.289 327.481l-1.471 6.906M382.098 329.38l-5.78-1.405M382.098 329.38l1.551-6.459M382.098 329.38l-1.957 6.746M427.39 276.689l1.861-1.001M429.34 269.514l-1.734 6.38-.216.795M429.34 269.514l.906 1.856M431.637 259.743l-.901 3.76-.971 3.732-.424 2.28M488.103 286.352l-7.888-1.932M488.103 286.352l.965-3.898M479.193 288.317l7.365 1.895.22-.02.218-.065.172-.122.935-3.653M489.068 282.454l-7.847-2.048M482.314 276.504l7.418 1.934.114.063.08.094.039.102-.003.08-.894 3.677M483.881 260.2l-5.421-1.326M433.901 250.544l1.02 1.224M435.748 243.379l-1.089 4.276-.758 2.889M431.637 259.743l.395-1.687.607-2.597 1.262-4.915M482.23 264.086l-4.817-1.288M476.414 266.714l-7.902-2.009M476.414 266.714l.999-3.916M475.38 270.583l.537-1.984.497-1.885M431.637 259.743l1.195.213M475.38 270.583l-7.834-1.922M475.38 270.583l-.98 3.955M435.748 243.379l1.51.565M435.748 243.379l1.755-6.98M463.809 250.596l-13.168-3.151M463.809 250.596l-1.067 4.235M463.809 250.596l1.085-3.628M442.601 279.054l-13.35-3.366M442.601 279.054l1.066-4M463.662 284.145l-8.157-1.93-12.904-3.16M443.667 275.054l12.996 3.378M443.667 275.054l-13.421-3.684M443.667 275.054l1.069-3.874M444.736 271.18l.997-3.85M444.736 271.18l12.954 3.232M431.041 267.682l1.488.347 12.207 3.151M445.733 267.33l.965-4.005M445.733 267.33l13.059 3.251M431.937 263.777l2.607.654 11.19 2.898M446.698 263.325l13.043 3.248M446.698 263.325l.992-3.834M432.832 259.956l5.04 1.216 8.826 2.153M447.69 259.49l13.076 3.342M447.69 259.49l.996-3.971M433.793 255.82l2.943.836 2.495.604 8.46 2.23M448.686 255.519l13.037 3.331M448.686 255.519l-13.765-3.75M448.686 255.519l.955-4.008M449.64 251.511l13.102 3.32M449.64 251.511l1-4.066M435.998 248.03l5.52 1.422 8.123 2.059M450.64 247.445l-9.14-2.51M450.64 247.445l1.035-3.9M453.05 238.36l-1.375 5.185M453.05 238.36l13.123 3.208M453.05 238.36l-.284-.088M441.5 244.934l-4.242-.99M441.5 244.934l.296-.292M443.782 235.888l1.393-5.534M443.782 235.888l-.696 2.85M443.782 235.888l8.984 2.384M469.883 242.437l-3.71-.869M466.173 241.568l-1.279 5.4M462.742 254.831l7.71 2.078M462.742 254.831l-1.019 4.02M461.723 258.85l7.742 1.998M461.723 258.85l-.957 3.982M460.766 262.832l7.746 1.873M460.766 262.832l-1.025 3.74M459.74 266.573l7.806 2.088M459.74 266.573l-.948 4.008M458.792 270.581l-1.102 3.83M458.792 270.581l7.719 1.99M457.69 274.412l-1.027 4.02M457.69 274.412l7.86 2.032M456.663 278.432l7.888 1.945M463.662 284.145l7.697 2.13M463.662 284.145l.889-3.768M464.55 280.377l7.956 1.964M464.55 280.377l1-3.933M465.55 276.444l.961-3.872M465.55 276.444l2.006.484M466.511 272.572l1.035-3.91M466.511 272.572l2.072.508M467.546 268.661l.966-3.956M477.413 262.798l-7.948-1.95M477.413 262.798l1.047-3.924M474.4 274.538l-.928 3.939M474.4 274.538l-1.315-.339M474.4 274.538l7.914 1.966M473.472 278.477l7.749 1.93M473.472 278.477l-1.36-.387M473.472 278.477l-.966 3.864M472.506 282.34l7.71 2.08M472.506 282.34l-1.147 3.936M471.359 286.276l7.834 2.04M471.359 286.276l-.878 3.485M482.314 276.504l-1.093 3.902M481.22 280.406l-1.005 4.014M480.215 284.42l-1.022 3.897M479.193 288.317l-.91 3.554M468.512 264.705l.953-3.857M469.465 260.848l.987-3.939M470.452 256.909l8.008 1.965M397.16 361.254l1.521-6.347M398.681 354.907l1.326-5.514M399.933 348.566l.074.827M399.933 348.566l.584.15M401.47 342.058l-1.408 5.93-.13.578" clip-path="url(#p23d038acc9)" style="fill:none;stroke:#000"/><path d="m392.863 346.613 4.22 1.16 2.85.793M400.517 348.716l.178-.58 1.469-5.936M402.164 342.2l-.693-.142M402.556 341.32l-.972-.274M402.556 341.32l1.44-6.468M403.996 334.852l-.786-.199M403.996 334.852l1.801-6.824M405.797 328.028l7.327 1.833M405.797 328.028l-.97-.253M418.49 308.185l-.204 1.076-5.162 20.6M404.826 327.775l-1.616 6.878M403.21 334.653l-1.626 6.393M407.565 350.522l-7.048-1.806M393.31 318.706l1.086-1.703M390.572 418.704l-4.23-1.113M384.996 423.18l4.212 1.112M379.955 462.981l1.404-4.885 1.21-5.058 2.599-11.27 1.253-6.59.618-2.916 2.17-7.97M367.92 432.447l.987-3.282M369.714 319.282l-1.708 6.377M366.12 332.753l1.126-4.318.76-2.776M386.84 337.639l-6.699-1.513M380.141 336.126l-5.637-1.335M380.141 336.126l-1.21 4.646M348.415 422.804l.56-1.687M477.438 295.172l-.712 3.29M477.438 295.172l.845-3.301M470.481 289.761l-.644 2.812-.008.26.066.196.126.173.313.215 7.104 1.755M479.98 250.771l-.681 4.157-.84 3.946M479.98 250.771l-.413.008-.408-.063-14.265-3.748M479.98 250.771l.288-.083.236-.115.235-.168 11.419-13.689M445.175 230.354l-3.466-.869M440.408 229.196l1.99-7.122.181-.231.23-.122.363-.015 3.875.765.259.139.15.16.034.131v.183l-2.315 7.27M439.362 229l1.046.196M439.362 229l-1.86 7.399M431.39 247.996l.928-3.573 4.21-18.891.929-.927.961-.1.299 3.177.645 1.318M556.707 97.062l-37.74 40.322M516.109 140.436l2.859-3.052M519.499 142.058l-.713-.637-.937-.773-.58-.232-.317-.056-.327-.006-.516.082M378.644 305.706l-1.69-.877M419.496 308.447l-1.006-.262M420.763 302.9l-.58 2.299-.687 3.248M418.36 313.119l.895-3.63.241-1.042M362.336 359.936l.482-2.06M369.807 347.723l1.397-6.307M369.807 347.723l-1.604 6.552M369.807 347.723l1.607.372M369.807 347.723l-7.11-1.88M368.257 361.361l.48-2.064M368.738 359.297l1.12-4.58M362.818 357.875l2.794.64M375.128 356.123l1.666-6.785M375.128 356.123l-5.27-1.407M368.203 354.275l-.334 1.354M368.203 354.275l.445.119M368.203 354.275l-7.207-1.76M362.696 345.844l-1.355 5.261-.345 1.41M383.42 351.263l-6.626-1.925M385.184 344.318l-.071.264-1.168 4.414-.525 2.267M376.794 349.338l1.552-6.325M376.794 349.338l-3.596-.831M362.696 345.844l-6.813-1.767M364.36 339.433l-.549 2.081-1.115 4.33M355.883 344.077l1.512-6.292M392.863 346.613l-7.679-2.295M378.346 343.013l-.756-.17M378.346 343.013l.109-.414M371.204 341.416l1.614-7.029M371.204 341.416l1.601.358M371.204 341.416l-6.844-1.983M364.36 339.433l-6.965-1.648M366.12 332.753l-.2.764-1.56 5.916M357.395 337.785l1.694-7.046M372.818 334.387l-6.698-1.634M372.818 334.387l1.686.404M366.12 332.753l-7.031-2.014M470.481 289.761l7.802 2.11M478.283 291.871l7.558 1.925M395.344 325.489l-1.22-1.83-.365-1.653.298-2.084.232-1.539.107-1.38M346.691 382.572l-3.857-.886M328.107 420.9l.601-.495M326.626 422.789l.839-1.157.642-.733" clip-path="url(#p23d038acc9)" style="fill:none;stroke:#000"/><path d="m324.3 419.05 1.184.595 2.623 1.254M328.708 420.405l3.734 1.244M338.506 423.534l-6.064-1.885M332.442 421.649l.851-3.536M318.007 431.517l3.683-7.622M302.9 428.318l7.955 1.624 5.073 1.108 2.079.467M323.248 420.892l1.051-1.843M323.248 420.892l-1.558 3.003M323.248 420.892l3.378 1.897M325.132 425.73l.595-1.105.899-1.836M321.69 423.895l3.442 1.834M379.944 466.607l1.303-5.248M379.944 466.607l-5.29 21.104M379.944 466.607l-.86-.328M373.103 461.654l6.852 1.327M379.083 466.28l-.618-.237-2.449-.71-2.35-.562-.265-.174-.174-.33-.124-2.613M370.116 464.132l.554-2.844.07-.116.108-.045 2.255.527M379.083 466.28l.872-3.299M406.182 271.02l-3.307 4.885M423.41 288.399l2.7-11.41M423.41 288.399l-1.48 6.03M420.587 299.815l1.342-5.385M420.587 299.815l-2.097 8.37M420.763 302.9l.413-.064M432.832 259.956l.961-4.135M432.832 259.956l-.895 3.821M429.251 275.688l.995-4.318M421.176 302.836l.503-.077.555-.285.406-.368.22-.34 3.078-12.561 3.313-13.517M430.246 271.37l.795-3.688M431.041 267.682l.896-3.905M434.92 251.768l1.078-3.739M434.92 251.768l-1.127 4.053M437.258 243.944l2.006-6.22M437.258 243.944l-1.26 4.085M441.709 229.485l-1.301-.29M441.709 229.485l-2.047 7.006M472.111 278.09l-1.606-.457M472.111 278.09l.974-3.891M473.085 274.199l-1.458-.373M470.505 277.633l1.122-3.807M468.94 277.245l.953.214.612.174M470.02 273.429l.962.232.645.165M468.94 277.245l1.08-3.816M467.556 276.928l.42.1.964.217M468.583 273.08l.615.15.822.199M467.556 276.928l1.027-3.848M374.654 487.71l2.002-1.326M381.722 486.48l-3.364-.263-.675-.022-1.027.189M378.458 481.527l-1.194 3.252-.608 1.605M402.558 488.384l2.19.095.552.03.555.101 1.133.336 2.033.63M381.247 461.36l4.167-16.846M383.302 464.048l-.786-1.103-1.269-1.586M383.302 464.048l3.77.986M381.779 469.284l1.22-3.962.303-1.274M387.073 465.034l5.61 1.633 1.04.116 4.022-.05M387.073 465.034l-1.065 4.07M381.722 486.48l4.153.493M381.722 486.48l.998-3.906M386.008 469.105l-.433 1.42M392.93 473.182l.005-1.712-.118-.3-.154-.098-2.354-1.1-1.266-.363-3.035-.504M391.216 489.393l.383-1.435M391.6 487.958l6.12.243M385.875 486.973l3.173.832 2.551.153M392.547 484.16l-.425 1.657-.523 2.141M405.259 477.545l-3.495-.085M380.172 475.455l1.607-6.171M380.172 475.455l-1.714 6.072M384.214 476.553l-2.01-.57-2.032-.528M384.214 476.553l-1.494 6.02M384.214 476.553l1.36-6.028M388.11 477.031l-1.63-.136-2.266-.342M392.835 477.282l-.152 3.81M392.835 477.282l.094-4.1M392.835 477.282l-4.726-.25M392.835 477.282l3.383.076M388.367 473.504l-.258 3.527M385.875 486.973l.57-3.669M387.093 480.887l.744-2.977.272-.879M385.575 470.525l-3.796-1.241M387.093 480.887l-.648 2.417M387.093 480.887l5.59.206M407.346 481.474l-5.816-.067M392.683 481.093l8.847.314M392.547 484.16l.044-1.166.092-1.901M378.458 481.527l4.262 1.047M408.912 484.452l-7.439-.067M382.72 482.574l3.725.73M398.798 484.331l-4.988-.065-1.263-.105M386.445 483.304l3.092.606 3.01.25M401.54 488.352l1.018.032M401.54 488.352l-3.82-.151M401.54 488.352l-.067-3.967M401.764 477.46l-5.546-.102M401.764 477.46l-.234 3.947M401.764 477.46l.234-3.881M401.53 481.407l-.057 2.978M401.473 484.385l-2.675-.054M398.798 484.331l-1.079 3.87M397.472 491.944l.6.116 3.17.289" clip-path="url(#p23d038acc9)" style="fill:none;stroke:#000"/><path d="m397.7 496.092 3.155.34.181-.046.17-.103.261-.232.087-.265-.004-.355-.308-3.082M402.558 488.384l-.51 1.373-.416 1.159-.39 1.433M397.472 491.944l-.352-.128-.162-.099-.1-.12-.032-.19.008-.199.077-.317.808-2.69M397.7 496.092l-.228-4.148" clip-path="url(#p23d038acc9)" style="fill:none;stroke:#000"/><path d="m387.653 495.066.053.013 5.29.254 4.704.759M384.45 494.266l3.203.8M386.535 498.936l1.118-3.87M388.367 492.59l-.714 2.476M396.218 477.358l.922-3.985M306.124 409.624l-9.397-1.134M306.124 409.624l-1.827 10.151M306.124 409.624l.312-1.731M290.41 403.145l-1.211 4.251M285.047 424.248l-1.6 4.216M285.047 424.248l1.139-4.639M285.047 424.248l-4.992-1.235M285.047 424.248l3.33.684M274.436 476.956l.465-2.48M259.565 471.878l15.336 2.598M263.89 480.477l-3.572-.455-.642-.062-.248-.095-.154-.19-.074-.228-.017-.252.177-1.754.205-5.563M262.553 451.421l-.378 2.623-.174 1.008-.288 1.039-.781 2.998-.71 3.432-.426 2.457-.077 2.637-.154 4.263M292.394 432.588l.185-1.01M292.394 432.588l-.929 4.16M292.394 432.588l4.574.558M296.727 408.49l-2.53-.391M296.727 408.49l-1.605 9.166M293.574 426.13l.756-4.442M293.574 426.13l-.995 5.449M293.574 426.13l-5.196-1.198M293.574 426.13l4.121.95M274.9 474.476l2.63-14.772M289.319 458.932l.04.539.367 3.42.017.713-.075.76-2.834 10.886-.2.413-.252.335-.443.145-.431.033-10.607-1.7M294.197 408.099l-4.998-.703M294.197 408.099l-1.351 3.889M285.045 433.997l-.482 1.784-.414 1.29-.506 1.266" clip-path="url(#p23d038acc9)" style="fill:none;stroke:#000"/><path d="m284.697 438.917-.333-.24-.332-.166-.389-.174M281.663 437.893l.43.072.43.066.49.116.63.19M288.378 424.932l-1.932 4.602M288.378 424.932l1.482-4.297M273.57 434.263l8.093 3.63M273.57 434.263l2.171-3.594M273.57 434.263l-2.152 4.013M290.662 440.296l.803-3.549M289.52 451.463l.117-1.371.156-1.4-.007-1.396-.033-1.828.252-2.063.318-1.685.15-.72.189-.704M284.697 438.917l.608.325.51.187.762.215.874.191 3.21.461M278.98 451.428l1.107-6.433.563-2.936.332-1.228.315-.815.193-.794.124-.83.049-.499" clip-path="url(#p23d038acc9)" style="fill:none;stroke:#000"/><path d="m282.473 433.02-.587 2.232-.166.91-.067.422-.049.422.059.887M306.436 407.893l4.755 1.52M277.055 398.507l17.576 5.612 11.805 3.774M300.547 435.55l-1.055 1.982M300.547 435.55l1.095-3.276M325.774 448.518l-7.973-4.764-6.316-3.605-4.41-2.167-1.89-.795-4.638-1.637M299.068 442.1l.431 1.208 2.271 3.97 2.325 2.976M302.9 428.318l.811-4.67M302.9 428.318l-5.205-1.238M301.642 432.274l.841-2.299.417-1.657M297.695 427.08l-.606 4.618M296.334 437.344l-.735 3.316-1.12 6.295-.2 4.027M299.492 437.532l-3.158-.188M299.068 442.1l-.15-1.604.35-2.333.224-.631M291.465 436.747l4.869.597M296.968 433.146l-.25 2.082-.384 2.116M292.579 431.579l-6.133-2.045M278.2 426.598l5.246 1.866M278.2 426.598l1.855-3.585M278.2 426.598l-2.459 4.071M283.446 428.464l-.973 4.557M283.446 428.464l3 1.07M285.045 433.997l.48-1.772.38-1.274.54-1.417M296.968 433.146l.121-1.448M297.09 431.698l4.552.576M317.32 436.725l-3.498-1.34-3.995-1.159-2.275-.311-5.91-1.641M325.774 448.518l4.183-7.171M317.337 480.096l1.16-5.11 1.84-6.8.116-.794-.033-1.257-.133-1.57v-1.308l.183-1.522.38-1.736.764-1.952 1.01-1.638.514-.711.398-.993.316-1.373.265-1.307.646-1.67 1.011-1.837M265.349 458.433l1.367-6.624M280.055 423.013l-1.011-.233M281.113 407.133l-1.062-.014M281.113 407.133l-.323 3.285M289.199 407.396l-.707-.091-.673-.06-6.706-.112M279.044 422.78l.585-4.414M271.488 421.05l2.956.67 4.6 1.06M280.05 407.12l.517-6.52M275.354 407.007l.095-.076.112-.023.54.008 3.95.203M292.846 411.988l-1.689 4.78M292.846 411.988l-4.663-.483M280.79 410.418l-.456 3.95M280.79 410.418l7.393 1.087M274.771 409.054l.642-.017 5.377 1.38M288.183 411.505l-1.05 4.103M288.183 411.505l1.016-4.109M273.566 413.46l6.768.907M273.566 413.46l-.867 3.165M274.609 409.648l-.2.727-.843 3.085M291.157 416.768l-1.297 3.867M291.157 416.768l3.965.888M287.134 415.608l.79.255 3.233.905M304.297 419.775l-.586 3.872M304.297 419.775l-9.175-2.119M287.134 415.608l-.948 4.001M287.134 415.608l-6.8-1.24M295.122 417.656l-.792 4.032M280.334 414.367l-.705 3.999M308.623 424.82l-4.912-1.173M294.33 421.688l4.838 1.174 4.543.785M294.33 421.688l-4.47-1.053M272.7 416.625l6.929 1.74M272.7 416.625l-1.212 4.425M272.7 416.625l-2.858-.722M286.186 419.61l-6.557-1.244M286.186 419.61l3.674 1.025M268.802 444.315l2.616-6.039M266.716 451.809l.895-3.896.54-1.876.65-1.722M265.084 441.48l1.11.855 2.608 1.98M271.418 438.276l-6.862-5.186M255.953 426.783l4.232 3.103M261.83 438.04l-4.819 8.643-1.276 1.951-1.177 2.341-2.281 4.46-1.176 2.148-.97 2.328-.928 2.093-.282.898-.315 1.33-3.515 10.81M264.556 433.09l-4.37-3.204M264.556 433.09l2.964-5.302M264.556 433.09l-2.725 4.95M271.488 421.05l-2.141 3.636M271.488 421.05l-7.179-1.627M265.084 441.48l-2.416-2.474-.837-.966" clip-path="url(#p23d038acc9)" style="fill:none;stroke:#000"/><path d="m249.431 436.083.385.145 3.75 2.173.185.058.146-.045.134-.073.096-.078 3.427-3.84.222-.195.122-.06.13-.022.123.016.291.181 3.389 3.697M282.473 433.02l-6.732-2.35M282.473 433.02l2.572.977M267.52 427.788l1.827-3.102M267.52 427.788l8.221 2.881M262.553 451.421l.476-3.002.19-1.315.37-1.257 1.495-4.367M262.553 451.421l4.163.388M284.697 438.917l-1.882 12.69M282.158 459.64l.657-8.033M282.158 459.64l-4.628.064M289.319 458.932l-1.747.322-1.086.165-1.077.09-3.25.132M278.98 451.428l-1.45 8.276M282.815 451.607l-1.352.112-1.401-.115-1.082-.176M289.52 451.463l-6.705.144M289.319 458.932l.024-1.821.178-5.648M277.53 459.704l-3.046-.07-.48-.148-.266-.248-.033-.497.265-1.422.605-2.672.306-1.265.266-1.935.113-2.243M307.46 443.48l-3.518-.867-3.12-.62-1.754.107M341.962 287.284l2.015.199 1.094.099M338.125 286.957l1.293.182 1.235.095 1.31.05M334.714 286.375l3.41.582M331.519 285.365l1.79.637 1.405.373M231.42 267.584l-1.615.086M231.42 267.584l.042-3.853M235.163 266.69l-1.626.545-2.118.349M229.805 267.67l-1.523.044-8.196.083M188.824 267.284l7.265.794 5.04.497 2.37.132h1.46l.927-.033 2.188-.331 3.134-.215 2.669-.265 6.209-.066M217.98 254.217l1.957 2.6.082.23.067 10.75M424.29 276.466l.435-2.4 1.393-4.4.63-3.54 1.857-6.881 1.193-5.955 1.592-5.294M424.29 276.466l1.82.524M362.128 258.014l-3.384-.996M358.744 257.018l-2.938-.94M355.806 256.078l-3.23-.99M236.162 412.055l1.661-2.964 1.07-1.62 3.331-5.071.232-.438.473-1.274.43-1.29.88-2.912.298-.785.025-.323-.058-.207-.108-.14-1.401-.372-1.07-.215M236.162 412.055l.752.437M224.949 403.69l1.427 1.026 2.802 2.15 3.763 2.97 2.373 1.726.848.493M182.297 461.52l.696-.05.53-.057.58-.125.755-.115.795-.232.647-.223.638-.257.721-.421 1.045-.67 1.293-.893 1.65-.951.836-.571 1.55-1.1 1.973-1.34.307-.19.48-.215.399-.141.389-.033 1.492-.009 2.014-.066 1.218.24.904.182.614.116.812.149.555.05.688.057.555-.024.49-.034.414-.074.34-.157.489-.38.68-.778.58-.786.132-.207.183-.198.223-.182.605-.388 2.445-1.44.415-.281.249-.231.116-.249.133-.314.14-.488.324-.827.256-.538.167-.347.273-.438.406-.505.207-.215.141-.182.133-.264.133-.306.157-.29.215-.405.158-.19.423-.224.687-.14 1.451-.199 1.02-.036.397-.014.374-.05.275-.028" clip-path="url(#p23d038acc9)" style="fill:none;stroke:#000"/><path d="m226.575 458.377-1.965-1.447-1.475-1.117-.994-.901-1.062-1.208-1.317-1.497-.995-.992-.862-.893-.216-.58.066-.611.15-.695.63-1.043 2.729-4.147" clip-path="url(#p23d038acc9)" style="fill:none;stroke:#000"/><path d="m236.914 412.492-.774.858-.746 1.324-1.342 2.73-.382 1.074-.116.497.034.38.098 1.357.1 1.605-.083.512-.232.777-8.935 13.995-2.835 4.979-.437.666" clip-path="url(#p23d038acc9)" style="fill:none;stroke:#000"/><path d="m249.431 436.083-4.106 2.156-4.564 2.162-2.25.354-4.273-.208-4.375.998-2.335.27-4.25.895-2.014.536M429.682 353.502l1.724 1.373 1.633 1.456 2.619 2.042 3.158 2.548 3.125 2.986 3.564 3.276 2.114 1.984 1.93 1.472 1.65 1.316 1.609 1.348 2.884 2.373 2.354 2.002 2.57 2.349 2.37 2.142 1.931 1.307 1.177.927 1.46 1.397 2.544 2.275 2.478 2.166 2.13 1.68 1.824 1.117 2.014.851 2.022.786 1.8.869 2.13 1.033 2.552 1.117 3.026 1.24 3.589 1.299 5.387 2.324 4.062 1.683 1.446.646.891.43 1.02.516 1.723.84 1.708.898 1.463.827 1.397.76 3.108 1.663 5.611 3.486 3.992 2.27 1.728.914 1.89.985 1.973.963 2.411 1.067 1.319.488 1.616.521 2.644.976 1.533.637M252.37 261.011l.22-.072M252.37 261.011l-3.096 1.023M240.306 270.101l3.692-.914 3.655-.67 2.139-.505.406-.28.414-.373.19-.364.283-1.29.439-2.639.149-.628.423-.976.274-.451M235.877 271.199l-4.495 1.114-.265-.008-.157-.066-.116-.174-.05-.223-.989-4.172M196.07 409.174l-1.125 3.052-.447.877-.68.827-.779.76-.846.728-.439.34-.34.405-.962 1.687-2.453 5.112-2.072 3.85-.435.636-.141.244-.004.183.02.161.063.145.091.082 1.96.898.647.368.277.24.112.153.058.12.017.115.004.166-.116 1.157-.128 1.915-.034 1.216.1 1.121.133.91.103.463.112.38.228.612.107.273.009.224-.423 4.069-.414 3.606-.05.488-.1.347-.099.273-.1.223-.878 1.696-3.34 6.245-2.18 3.937-.2.462-.033.216.034.322.09.24.2.29.124.132.556.38M255.625 417.455l-6.496-1.472-5.795-1.313-3.487-1.084-2.503-.844-.43-.25" clip-path="url(#p23d038acc9)" style="fill:none;stroke:#000"/><path d="m249.431 436.083-.327-.078-.307.008-.323.066-.365.153-1.19.472-.795.368-.572.29M260.185 429.886l-2.377 1.304-2.063 1.934-2.647 1.289-1.98.665-1.687 1.005M239.638 265.2l-1.477.492M239.638 265.2l.668 4.901M247.125 262.65l-1.453.466-6.034 2.084M249.274 262.034l-2.15.616M249.274 262.034l-.015-10.398M252.59 260.939l.17-9.492M327.935 283.996l-1.622-.657-.903-.455-.73-.447-2.801-2.216-6.615-4.914-2.818-1.968-1.193-.662-.895-.43-1.385-.488-1.426-.587-1.442-.794-3.962-2.523-3.365-2.1-2.27-1.58-1.64-1.243-.352-.174-.346-.104-.44-.034h-.522l-.472.099-3.117 1.24-1.956.547-2.827.653-.961.132-1.07.009-1.168-.058-1.384-.224-3.183-.794-4.062-1.042-1.773-.48-1.542-.645-1.525-.645-1.111-.215-1.21-.166-1.74-.38-1.708-.414-1.111-.33-.554-.108-.64-.124h-1.89l-1.674.182-3.94 1.082M327.935 283.996l1.785.724 1.799.645M519.499 142.058l-.216-.819-.13-.791-.148-1.227-.07-.898.033-.94M359.339 547.861l8.165-32.319M392.93 473.182l4.21.19M397.14 473.373l4.858.206M401.998 473.579l.04-3.507-.065-.264-.187-.178-.224-.09-.372-.03-2.744.01-.369.048-.145.15-.095.18-.075.257-.622 3.218M439.662 236.491l-.398 1.233M439.662 236.491l-2.16-.092M443.086 238.739l-1.29 5.903M443.086 238.739l-3.822-1.015M446.264 242.281l-4.468 2.36M446.264 242.281l6.502-4.01M446.264 242.281l5.41 1.264M424.166 349.655l.675.274 1.244.645 1.094.778 1.326 1.174 1.177.976" clip-path="url(#p23d038acc9)" style="fill:none;stroke:#000"/><path d="m424.166 349.655.86-1.946 1.095-1.125 4.277-6.65 5.172-4.036.564.1 6.299 4.763-.298 6.816-1.591-.033-.597 2.779-10.265 3.179M400.007 349.393l.51-.677M247.217 251.742l-.13-5.397-.203-.467-.167-.38-.187-.628-.056-.493.248-4.564-.225-6.44M247.217 251.742l-.047 7.072M247.217 251.742l2.042-.106M247.17 258.814l-.045 3.836M247.17 258.814l-9.052 2.958M240.306 270.101l-4.429 1.098M235.877 271.199l-.714-4.509M238.161 265.692l-2.004.666-.994.332M369.71 506.953l1.88.605M367.504 515.542l1.057-4.182 1.148-4.407M371.59 507.558l-1.269 4.82M375.424 508.25l.667-2.845-.054-.128-.108-.12-3.174-.637-.248.075-.167.107-.75 2.856M370.321 512.377l-.982 3.735M369.339 516.112l1.368.376 1.944.434.158-.025.162-.082.945-3.358-.055-.108-.095-.07-3.445-.902M369.339 516.112l-1.835-.57M275.354 407.007l.29-1.447M274.771 409.054l.508-1.857.075-.19M215.734 401.381l-.142.027-1.254.442-2.06.872-8.426 4.17-2.875 1.527-1.075.4-1.255.38-.867.132-1.144-.05-.566-.107M219.364 381.698l-1.028 2.233M216.002 394.813l-.094-1.106-.15-1.53-.174-.538-.124-.702-.075-.82.05-.801.199-.555.356-.636.73-1.142.613-1.2 1.003-1.852M224.434 392.6l.488-.476-.21-1.836-1.524-4.074-1.087-2.029-3.765-.254M216.073 395.643l-.07-.83M216.07 399.936l.061-1.11-.058-3.183" clip-path="url(#p23d038acc9)" style="fill:none;stroke:#000"/><path d="m223.849 397.177-1.836-.42-3.102-1.031-1.681-.21-1.157.127M218.204 401.114l-.49-.013-1.206.138-.774.142M216.07 399.936l-.055.463-.041.24-.24.742M198.203 387.777l.05 2.54.074.537.224.703.447 1.116.282.488.299.315.356.28.671.464.904.496.737.347 2.354.68 6.085 2.215 4.185 1.506 1.198.472" clip-path="url(#p23d038acc9)" style="fill:none;stroke:#000"/><path d="m218.204 401.114-.63-.5-1.078-.48-.427-.198M198.203 387.777l-5.214-.695-.696-.066-.299.05-.38.132-.647.05-.929-.083-1.64-.265-2.902-.38M198.203 387.777l.182-1.398.249-2.688.19-2.233.009-1.994-.042-.28-.107-.141-.316-.215-.539-.397-.09-.149-.075-.256-.042-.513.125-2.911.116-.654M224.949 403.69l-.554-.397-1.376-.777-1.782-.794-1.368-.43-1.152-.165-.513-.013M402.515 453.61l.994-1.919v-1.587l-3.249-1.523h-2.52l-12.326-4.067M418.009 314.541l.35-1.422M418.009 314.541l11.577 2.98M436.515 322.052l-.962-2.315-5.967-2.217M378.455 342.599l.476-1.827M385.184 344.318l-.16-.048-6.57-1.671M378.93 340.772l-1.34 2.072M377.59 342.844l-4.785-1.07M373.198 348.507l.847-1.2 1.507-2.255 1.403-1.277.635-.931M373.198 348.507l-1.784-.412M368.648 354.394l1.455-1.212.543-1.206 2.552-3.47M368.648 354.394l1.21.322M365.612 358.514l.705-.855.526-.84 1.026-1.19M369.858 354.716l1.556-6.621M371.414 348.095l1.391-6.321M372.805 341.774l1.7-6.983M374.504 334.791l1.813-6.816M311.191 409.413l6.36 2.033 15.947 4.95M277.055 398.507l-12.951-4.161M277.055 398.507l-1.411 7.053M256.323 391.846l-.332-.106-22.255-6.96-23.34-7.466-3.068-2.536-.963-.542-.579-.945M259.587 413.31l5.322 1.346M259.587 413.31l-1.214 4.768M259.587 413.31l.888-4.065M264.309 419.423l-5.936-1.345M264.309 419.423l.6-4.767M264.91 414.656l4.932 1.247M264.91 414.656l.252-4.362M265.286 397.583l-.26 8.519M261.358 405.533l3.668.569M261.358 405.533l-.883 3.712M261.358 405.533l.47-2.028M260.475 409.245l4.687 1.049M257.58 408.822l2.329.297.566.126M258.373 418.078l-2.748-.623M264.104 394.346l-7.781-2.5M257.58 408.822l.569-2.56 1.103-4.784.843-3.747.11-1.731 2.367.73 1.532-2.384M257.58 408.822l-.869 3.784-1.086 4.849" clip-path="url(#p23d038acc9)" style="fill:none;stroke:#000"/><path d="m223.849 397.177-.084.892-.122 1.941.77 1.766.536 1.915M224.133 395.913l-.245.845-.04.42M224.25 393.945l-.082-1.087.266-.258M217.505 391.833l.565-1.143 2.84.525 3.524 1.385M216.002 394.813l.404-.784M217.505 391.833l-.552 1.115M217.505 391.833l6.746 2.112M224.25 393.945l.083 1.096M216.953 392.948l7.38 2.093M216.406 394.03l.28-.542.267-.54M224.133 395.913l.21-.729-.01-.143" clip-path="url(#p23d038acc9)" style="fill:none;stroke:#000"/><path d="m224.133 395.913-3.68-1.079-4.047-.805M264.564 370.217l-1.484 4.766-6.757 16.863M271.228 297.962l-.714-.11-18.735-2.695-8.079-.84-1.784-.718-3.222-2.25-2.652-3.017-.793-1.46M271.228 297.962l9.436 1.443" clip-path="url(#p23d038acc9)" style="fill:none;stroke:#000"/><path d="m267.888 279.257 1.263 1.582.769 1.434.372 2.696.936 12.993M264.564 370.217l1.34-4.31 4.636-11.177 1.189-2.967 5.303-4.328 10.93 6.083 14.174 2.918 24.311 4.65 19.33 3.808 5.13-20.872 4.858-20.03 1.834-7.691-8.08-1.954-18.115-5.366-18.909-4.229-9.714-1.582-15.29-2.72-6.827-1.045" clip-path="url(#p23d038acc9)" style="fill:none;stroke:#000"/><path d="m227.413 345.366 22.325-6.158 1.167 2.413.833.54 1.46.333 5.21-1.58 5.584 3.368 4.501.915 3.418-.582 5.168-1.04 2.793-1.165 3.167-3.285 3.21-4.2 1.25-4.243 2.917-4.159.459-3.493.458-4.575-.917-4.658-1.834-3.202-4.835-5.657-3.083-5.533M220.938 347.152l6.475-1.786" clip-path="url(#p23d038acc9)" style="fill:none;stroke:#000"/><path d="m264.564 370.217-6.948-5.057-9.295-6.405-20.908-13.39M274.771 409.054l-.162.594M265.026 406.102l4.882-.68 5.736.138M265.026 406.102l.136 4.192M265.162 410.294l3.606-.483 5.84-.163M269.728 413.452l-.105 1.081.22 1.37M269.603 418.318l-.354-.77v-.852l.593-.793M260.185 429.886l5.625-3.292 3.537-1.908M311.191 409.413l-.577 8.718M310.614 418.131l1.48-2.6M310.26 425.388l.479-3.098-.167-1.601-.146-1.477.188-1.08M249.259 251.636l3.5-.189M252.76 251.447l.06-3.42M238.118 261.772l.043 3.92M238.118 261.772l-6.656 1.96M238.393 249.115l-.25.475-.025 12.182M229.417 247.028l-.103 3.103.197.276.502.339 1.684 1.805.118.32-.394 1.86.041 9M424.148 306.709l-1.097 4.909M423.05 311.618l2.123.363 1.21-.082.83-.496.314-.712.364-1.985-.165-.579-.348-.496-.73-.33-2.5-.592M424.148 306.709l-1.346-.319M423.05 311.618l-1.84-.298M419.898 312.148l2.175-7.511M419.898 312.148l1.313-.828M419.898 312.148l-1.538.971M421.176 302.836l.897 1.8M422.073 304.637l.73 1.753M421.21 311.32l.813-.844.564-1.158.41-1.716-.054-.604-.14-.608" clip-path="url(#p23d038acc9)" style="fill:none;stroke:#000"/></g><g id="PatchCollection_1"><path d="m378.13 411.015 4.1.968-.671 2.825-4.099-.969zM375.994 407.085l-1.75-.43-.455.132-.498 2.209.166.33 1.757.414.29-.041.58-2.329zM349.63 399.869l2.07.348-.25 1.473-2.07-.349zM382.382 277.634l-1.354 5.333 2.672.675 1.354-5.332zM395.512 340.128l-.146.477 12.327 2.818.271-.666z" clip-path="url(#p23d038acc9)" style="fill:green;fill-opacity:.8"/></g><g id="PatchCollection_2"><path d="m392.387 386.34 4.065 1.216-1.534 5.105-4.065-1.216zM361.383 403.326l.454-2.115 1.625.347-.454 2.116zM346.074 402.33l.789.15.367-1.912-.79-.15zM382.31 283.214l1.322.326.578-2.33-1.322-.327zM478.061 296.654l.872-3.753 5.054 1.168-.871 3.753z" clip-path="url(#p23d038acc9)" style="fill:#90ee90;fill-opacity:.8"/></g><path id="PatchCollection_3" d="M400.684 268.858 355.81 255.99l-3.24-.872-17.186-4.986-7.291 32.206 22.756 6.17 13.164 3.246-5.79 24.074 32.489 8.346 31.845-48.47z" clip-path="url(#p23d038acc9)" style="fill:#d3d3d3;fill-opacity:.8"/><g id="PatchCollection_4"><path d="m380.314 408.9.396.089-.362 1.607-1.401-.314.362-1.608.607.136.2-.882.585.131-.047.21-.188-.043zM406.799 313.85l.857.103.324-2.674.408.049.178-1.48-.473-.057-.048.402-.793-.096zM430.547 327.69l-1.366 1.96 3.756 2.609.628-.9 2.692 1.87 1.575-2.259-1.542-1.07-.488.698-1.683-1.17-.35.5zM412.651 390.617l1.954 3.088.84-.529-.313-.493.335-.21-.76-1.202-.381.24-.882-1.394zM396.41 421.145l.308.747 1.936-.797.082.198.603-.248-.083-.2.25-.102-.091-.221.471-.194-.216-.524zM356.933 467.023l.957 2.367.66-.265-.678-1.679.362-.146-.278-.688zM365.443 502.245l.25-1.398-3.281-.584-.173.969 1.361.242-.076.43zM361.383 403.326l.454-2.115 1.625.347-.454 2.116zM346.757 398.414l1.038.234-.04.174-1.038-.234zM347.454 400.155l.49-2.163.55.123-.49 2.164z" clip-path="url(#p23d038acc9)" style="fill:#a9a9a9;fill-opacity:.8"/><path d="m346.415 399.92.175-.513.976.255-.112.493z" clip-path="url(#p23d038acc9)" style="fill:#a9a9a9;fill-opacity:.8"/><path d="m346.43 397.47.514.116-.227 1.002-.127.82-.175.513-.513-.116zM379.535 409.625l.083-.393.562.118-.083.393zM392.408 385.552l-1.34-.403.183-.604 1.34.403zM394.182 385.379l-.133.562-.83-.195.132-.563zM395.217 384.56l-1.811-.57.14-.446 1.812.569zM395.648 384.452l.265-.91 1.681.488-.265.91zM396.146 386.596l-1.002-.266-.012.048-.445-.117.207-.78.191.05.045-.168.366.097-.046.168.891.235z" clip-path="url(#p23d038acc9)" style="fill:#a9a9a9;fill-opacity:.8"/></g></g></g><defs><clipPath id="p23d038acc9"><path d="M173.785 86.4h390.43v554.4h-390.43z"/></clipPath></defs></svg>