<svg xmlns="http://www.w3.org/2000/svg" width="960" height="960" viewBox="0 0 720 720"><defs><style>*{stroke-linejoin:round;stroke-linecap:butt}</style></defs><g id="figure_1"><path id="patch_1" d="M0 720h720V0H0z" style="fill:#fff"/><g id="axes_1"><path id="patch_2" d="M131.193 640.8h475.614V86.4H131.193z" style="fill:#fff"/><g id="LineCollection_1"><path d="m416.462 432.07-2.192-2.379M423.551 433.56l-.237.283-.37.352-.395.216-.419-.04-.628-.264-1.16-.512-3.88-1.525" clip-path="url(#p6e3353429f)" style="fill:none;stroke:#000"/><path d="m413.716 430.142 1.264 1.608.23.228.225.14.241.048.283-.012.503-.084M387.523 327.94l.17 1.072.145.649.354 1.232" clip-path="url(#p6e3353429f)" style="fill:none;stroke:#000"/><path d="m388.804 328.508-.266.753-.346 1.632M387.531 335.415l.25-1.625.41-2.897M503.1 297.92l.37-1.528.21-.985.112-.872.008-.873-.04-.744-.057-.552" clip-path="url(#p6e3353429f)" style="fill:none;stroke:#000"/><path d="m503.703 292.366 8.46-.923.829-.1M498.688 292.743l.362.035.378.008.6-.024.87-.08 1.896-.192.91-.124M498.688 292.743l-1.265.183M512.166 290.781l-11.747 1.353-.556.08-.334.064-.33.128-.202.108-.31.229M490.498 294.455l-3.88-.336M497.423 292.926l-2.778.32-1.659.2-1.006.168-.789.329-.693.512M485.37 298l1.368-.36.644-.272.934-.656 1.144-1.137 1.038-1.12M497.435 294.25l-.012-1.324M386.758 378.287l.025-.776.015-.656.065-.945.274-1.368.354-1.417.48-1.313" clip-path="url(#p6e3353429f)" style="fill:none;stroke:#000"/><path d="m396.042 374.286-1.505-.377-1.635-.336-1.357-.275-.527-.185-.44-.232-.358-.292-.293-.3-.314-.233-.339-.12-.41-.059-.415-.04-.479-.025M378.596 366.647l.77.652.404.272.603.312.572.2.974.32.797.256.725.265.564.207.467.24.458.337.37.24.42.24.54.296.788.4.33.224.33.393.262.311M370.944 376.394l.37-.676.701-1.273.645-1.048M378.247 368.63l-.575.184-.97.47-.846.52-.821.608-.741.736-.652.76-.982 1.49" clip-path="url(#p6e3353429f)" style="fill:none;stroke:#000"/><path d="m380.188 375.942-1.087-.024-.878-.064-.958-.144-1.111-.488-3.494-1.825M369.664 379.471l2.03 1.065M369.1 382.112l.29-1.288.274-1.353M370.944 376.394l-.45.82-.516 1.089-.217.648-.097.52M368.191 386.034l.91-3.922M368.191 386.034l-.33.64M371.282 386.698l-1.24-.304-1.046-.208-.805-.152M385.086 390.742l-.316-.396M385.086 390.742l.062.258.065.164.116.22.258.408.471.668.503.613 1.816 2.232" clip-path="url(#p6e3353429f)" style="fill:none;stroke:#000"/><path d="m388.729 394.95-2.708-3.322-.354-.416-.217-.244-.182-.132-.182-.094M388.729 394.95l-.352.355M396.825 402.658l-.246-.57-.392-.944-.419-.873-.531-.828-.37-.392-.427-.325-.443-.216-2.375-.988-.544-.256-.463-.316-.584-.548-.994-1.05-.308-.402M381.98 402.523l-.214.2M381.98 402.523l1.998-2.254M387.982 408.626l-.942-.784-.805-.688-1.055-1.009-.982-1.008-1.401-1.657-.817-.957M380.058 404.318l2.07 2.066M380.058 404.318l-1.898 1.655M380.058 404.318l1.708-1.595M378.16 405.973l1.808 2.269M378.16 405.973l-1.937 1.788M398.708 407.163l-.337.156M398.708 407.163l-1.883-4.505M398.708 407.163l.927 2.004M376.223 407.76l2.273 2.72M376.223 407.76l-2.134 1.914M391.815 412.027l-1.087-1.048-.725-.64-.813-.68-1.208-1.033" clip-path="url(#p6e3353429f)" style="fill:none;stroke:#000"/><path d="m394.255 410.059-2.907-3.613-.214-.204-.18-.065-.218.044-.173.108-.29.245-.242.204-1.582 1.408-.467.44M396.437 408.458l-2.956-4.012M396.437 408.458l-2.182 1.6M398.37 407.319l-.512.275-.447.26-.974.604M372.029 411.472l-1.02-1.157-.902-1.057-1.602-1.833M399.635 409.167l-.396.222M396.825 402.658l1.657-.899.197-.02.197.076.17.16.297.429 1.446 2.313.117.164.165.216.192.256.226.348.238.392.157.245.197.335.286.505.104.24.029.176-.029.172-.06.08-.161.068-.209.087-2.406 1.166M399.635 409.167l.967 2.325M374.089 409.674l1.613 1.748M374.089 409.674l-2.06 1.798M394.255 410.059l-2.44 1.968M394.255 410.059l1.582 2.005M372.029 411.472l1.198 1.377M372.029 411.472l-1.804 1.443M400.602 411.492l-.33.26M401.63 413.787l-.29-.588-.738-1.707M395.837 412.064l1.606 1.98M399.239 409.39l-.66.484-1.023.833-1.72 1.357M398.506 419.062l-4.863-5.162-1.828-1.873M370.225 412.915l2.131 2.567M370.225 412.915l-1.132-1.392M367.247 409.17l1.846 2.353M397.443 414.044l2.83-2.291M397.443 414.044l1.112 1.34M401.63 413.787l2.28-.961M401.63 413.787l1.128 2.207M398.555 415.385l1.867 2.257M401.074 413.523l-.861.6-1.658 1.262M402.758 415.994l-.32.218M402.758 415.994l.068.44M403.924 417.412l-2.332 1.779M402.826 416.433l.527.48.286.232.285.267M405.241 418.802l-.33-.34-.5-.552-.487-.498M400.422 417.642l2.015-1.43M400.422 417.642l-1.916 1.42M400.422 417.642l1.17 1.549M398.506 419.062l-.505.448M411.679 431.85l-1.144-1.16-1.038-1.072-.91-.96-.531-.561-.91-.896-.806-.768-.676-.649-.556-.448-.49-.328-.572-.384-.508-.368-.499-.392-.515-.513-.862-.904-.861-.976-.773-.833-.556-.6-.966-.976M405.241 418.802l-2.492 2.037M405.241 418.802l1.385 1.776M407.013 417.622l-.664.412-.48.324-.628.444M401.592 419.19l1.157 1.649M406.626 420.578l-.951.927M406.626 420.578l1.284 1.63M405.159 422.008l-.417.395-.217.16-.213.116-.182.012-.169-.132-.322-.412-.443-.66-.447-.648M409.758 424.648l-.647-.844M409.758 424.648l.009.192.048.184.084.16.178.268.293.457.632.8 1.156 1.5 1.558 1.933M414.27 429.691l-2.193-2.582-.56-.652-.503-.573-.293-.336-.347-.408-.12-.136-.173-.172-.178-.128-.145-.056M427.356 430.89l-1.39-1.341-.603-.635M414.27 429.691l-.554.45M427.356 430.89l.597-.622M423.551 433.56l.653.159.22.024.295-.108.257-.2 2.38-2.545M411.679 431.85l-.314.36-.314.52-.282.537-.21.576M409.46 441.086l-.462-.128-.548-.184-.652-.248-.773-.36-.338-.177-.194-.151-.064-.193v-.2l.032-.24.073-.376.16-.512.202-.44.233-.385.685-.808.556-.696.249-.352.282-.424.274-.368.346-.417.218-.256.354-.208.466-.12M410.181 438.973l.151-.984.097-1.232.13-2.914M579.03 100.304l-6.245 1.304-1.607.512M537.723 246.182l1.248-5.573 2.915-13.174.362-1.384.266-.748.422-.805.491-.748.576-.629 3.189-3.105 6.972-7.027 11.434-11.685.773-.8.89-.853 2.38-2.3 3.14-3.354.386-.48.274-.552.233-.665.065-.824-.024-1.186-.041-2.023-.153-1.193-.225-.76-.54-.777-.805-.584-1.618-.632-9.832-2.93-1.215-.44-.806-.432-.676-.656-.668-.816-6.635-9.116-7.673-10.693-1.297-1.905-.346-.712-.185-.632-.053-.769.137-.884.193-.673 2.13-6.519 1.168-3.617.757-2.321.483-1.017.596-.968 7.448-9.196.33-.568.249-.68.355-1.297.499-1.905.805-3.202.394-1.256.258-.632.395-.585.491-.484.628-.484 1.554-1.125.696-.64.556-.672.612-.833 4.956-8.095.724-1.165 1.776-2.645.507-.648.463-.425.552-.344.52-.22M573.36 97.062l-1.22 1.112-.728.785-.451.56-.201.428-.158.572.012.465.177.512.387.624M386.526 340.057l.224-.896.363-1.673.418-2.073" clip-path="url(#p6e3353429f)" style="fill:none;stroke:#000"/><path d="m386.526 340.057-1.08-.288-.709-.233-.595-.28-.5-.256-.346-.264-.322-.312-.129-.176-.089-.2.057-.288.266-.344.547-.689.419-.576.346-.568.153-.288.193-.176.29-.096.282.016.386.048 1.836.328M383.079 352.157l-1.007 3.338-1.207 4.081-2.062 6.37-.207.701M378.247 368.63l.089-.935.26-1.048M380.188 375.942l-1.264-4.177-.386-1.409-.21-1.144-.081-.582M401.074 376.23l-2.149 1.817M398.925 378.047l2.637 2.957.22.084.198-.032.194-.128.177-.308.382-.836.286-.696.056-.285-.02-.28-.088-.196-.21-.232-.338-.392-1.345-1.473" clip-path="url(#p6e3353429f)" style="fill:none;stroke:#000"/><path d="m397.854 373.325 1.055.904.933.817 1.232 1.184M378.223 388.315l.729.152M371.282 386.698l1.434.336 1.522.368 1.296.313 1.425.327 1.264.273M382.837 385.938l-.25.376-.253.324-.419.372-.693.436-.535.248-.591.2-.548.153-1.325.268M382.837 385.938l.455 1.739M380.39 376.582l.595 2.137.685 2.593.571 2.225.596 2.401M411.679 431.85l2.037-1.708M409.46 441.086l.367-.897.201-.576.153-.64" clip-path="url(#p6e3353429f)" style="fill:none;stroke:#000"/><path d="m413.489 440.367-1.174-.498-1.208-.504-.926-.392M409.46 441.086l1.164.104.749.024.708-.12.604-.248.491-.28.313-.199M429.248 478.034l.25-.544.386-.552.387-.504.362-.464.507-.729.451-.856.475-.92.507-.904.354-.609.25-.456.314-.688.016-.432-.144-.528-.146-.264-.2-.24-.476-.409-.378-.28-.508-.312-.523-.272-.37-.304-.314-.368-.42-.737-.208-.568-.137-.52-.105-.544-.105-.544-.169-.648-.152-.457-.218-.376-.258-.36-.426-.36-.323-.296-.297-.352-.556-.8-.45-.569-.33-.4-.331-.312-.363-.24-.853-.44-.636-.384-.403-.232-.434-.48-.29-.464-.186-.545-.193-.624-.177-.4-.29-.512-.354-.568-.282-.625-.073-.536.105-.592.298-.689.218-.464.257-.592.274-.848-.016-.44-.194-.504-.33-.529-.708-.96-2.239-2.977-1.296-1.825-.636-.96-.386-.576-.484-.608-.354-.256-.507-.136-.994-.096-.948-.087" clip-path="url(#p6e3353429f)" style="fill:none;stroke:#000"/><path d="m377.885 479.099.467-.424.604-.768.797-1.153.942-1.336.822-1.113 1.111-1.384.716-.856.62-.777 1.16-1.504.612-.793.571-.712.516-.776.805-1.209.555-.848.645-.928.434-.576.41-.384.532-.4.71-.528.78-.673 1.184-.928 1.119-.872 1.046-.849.38-.312.385-.352.492-.48.419-.329.539-.344.475-.207.66-.32.483-.337.645-.688 1.078-1.328.628-.745.532-.696.306-.592.274-.769.137-.816.113-.752.12-.504.194-.616.314-.577.418-.52.604-.696.548-.616.635-.713 1.071-1.248 1.208-1.296.717-.872.612-.825.43-.672M405.159 422.008l.516-.503M406.683 422.988l-.242.108-.217.031-.217-.088-.182-.132-.153-.192-.513-.707M407.91 422.207l1.2 1.597M407.91 422.207l-1.227.78M406.683 422.988l-1.008-1.483M423.551 433.56l-.31-.205M393.48 404.446l2.747-2.13M389.882 404.237l-.189.284-.125.196-.096.196-.024.212.064.244.173.116.25-.004.446-.14 1.003-.356.737-.248.487-.14.398-.08.475-.07M388.175 395.533l.322.6.153.345.142.436.193.624.241.733.198.524.092.28.088.384.025.332-.012.248-.077.34-.129.36-.165.4-.112.289-.033.22.045.256.322.492.225.325M394.206 382.153l.75-.745M394.206 382.153l4.087 3.228M384.77 390.346l6.248-5.36 1.07-.929.903-.8.539-.496.676-.608M371.601 385.87l.189-.492.322-.809.12-.32.025-.248-.177-.224-.362-.216-2.617-1.449M371.282 386.698l.32-.828M381.505 350.669l-.101.536-.004.296.06.208.258.168.467.152.894.128M386.146 341.577l-.95 3.386-2.117 7.194M386.146 341.577l.38-1.52M381.505 350.669l1.767-5.354.467-1.385.273-.6.33-.432.315-.369.531-.407.958-.545M253.264 118.916l-.819.76-.45.528-.484.929-.459.728-.877.784-1.112.761-.958.704-.555.176-1.426.04-1.553.328-.612.353-.999.864-1.812 1.097-2.963 1.424-2.117 1.12-1.063.193-.652-.024-.725-.24-2.665-.817-1.546-.192-2.641.24-1.61.312-.814.512-.853.897-.588.809-.12.432.04.744.434 1.889.105.568-.121.552-.845 1.713-.387 1.249-.25.248-.353.08-1.692.288-.58.464-.442.768-1.506 2.626-1.32 1.889-.508.856-.523.568-.87 1.104-1.159.833-1.482.945-1.481 1.376-.902 1.265-.165.476.008.276.137.248.33.128 1.333-.024 2.19-.512 2.738-.688 1.49-.152 1.352-.033.692.129.604.135 1.312.217.846-.089.966-.32 1.03-.16 1.29.313 2.004.736.717.504.402.584 1.256 1.953.483 1.161.033 1.688v.329l-.08.432-.283.456-.402.472-1.337 1.393-.805.608-.685.16-.974.192M321.723 379.776l.838-.032M308.498 377.75l1.01.297 3.157.8 2.166.528 1.908.312 1.176.145 1.385.048 1.143-.032 1.28-.072M300.265 429.09l.403-.489.507-.712.475-.824.234-.904.015-1.017.017-1.016.048-1.065.153-.896.202-.632.265-.585.314-.432.314-.407.33-.44.33-.641.323-.768.523-1.449.467-1.296.21-.593.265-.72.298-.672.225-.448.234-.432.266-.36.442-.6.564-.76.531-.897.33-.6.355-.649.378-.688.266-.424.314-.4.33-.32.41-.36.452-.457.612-.664.885-1 .757-.96 1.506-2.073.83-1.265.377-.76.29-.752.38-1.129.361-1.096.29-.769.362-.984.33-.808.315-.896.266-.945.153-1.072.088-.913.089-.8.128-.704.234-.736.386-1.289.37-1.328.258-.92.274-1.001.467-1.464.66-2.033M174.132 279.829l.147-.374.627-1.51M172.822 278.638l.546-.214 1.538-.48M248.286 250.71l-2.075.08-.698-.185-1.321-.68-2.15-1.48-.777-.145-.82.224-.943.412-.975.148-2.822-.252-.479.208-.603.528-3.125 3.562-2.242 1.72-.568.153-.77-.092-.494-.296-.592-.652-.491-1.359.244-1.303.11-.98-.193-.853-.473-.466-.829-.953-1.033-1.638-.922-.816-2.096-1.817-1.773-1.085-1.246-.356h-.497l-5.171.143-.528.348-4.563 3.495-.54.372-2.359 1.004-7.71 2.526-1.235.74-.96.71-2.422 2.283-.664.86-1.043 2.634-.286 1.232-.048.993.113 1.48.398 2.517-.115 1.129-.127.288-.732 1.377-.588 2.112-.282.544-1.054 1.257-1.635 1.656-1.039.81-4.372 2.72-.895.375-2.56.945-2.31 1.057M387.523 327.94l-.105-.696-.168-.793-.178-.816-.314-1.048-.274-.993-.185-.784-.2-1.288-.154-1.153-.113-1.08" clip-path="url(#p6e3353429f)" style="fill:none;stroke:#000"/><path d="m278.558 244.603.797.351 1.292.837.487.208 1.369.3 3.575.512 2.246.053.322.176.254.303.233 1.205-.096 1.02-.54.88-.474.377-1.426.784-.165.297-.012.275.294.409 1.196.556 2.548 1.24.217.297 1.53 2.229.443.38.564.324 3.824 2.549 1.663 1.104 1.115.433.387.056 1.397.02 5.942-.02 2.371.528 1.615.244 1.147.284 3.97 1.3 6.345 1.297.62.364 3.277 3.258.378.656.217.924.085 1.981-.237 2.877-.274 3.233.056.72.185.745.314.72 2.19 3.714.83 3.041.25.376.442.393.757.48 2.408 1.12 1.73.792 1.756 1.209 2.061 1.593.443.048 2.094-.36 2.069-.249.668.176 4.541 2.385 1.426.889.845.712.668 1.032 1.047 2.09 1.232 1.095 1.03.737.902.392 3.213.897.516.111 1.892.776 1.578.985 3.124 1.833 1.683.888.523.384 1.353 1.505.612.688 1.369 1.04 2.705 1.401.958.865 1.36 1.648 1.95 2.817.547.24 1.747.312 3.704.345M404.706 287.148l-2.376 3.33-.362.624-.257.536-.097.504v.536l.04.633.017.447-.08.409-.203.344-.982 1.176-.797.936-.82 1.04-.75.977-.628.825-.362.376-.38.256-.522.176-.75.136-.635.112-.362.2-.29.336-.266.344-.419.425-.45.216-.814.232-.918.2-2.053.464-2.255.512-1.046.248-.596.12-.475.145-.346.16-.25.152-.16.24-.017.424.064.568.193 1.28.137 1.281.13.84.136 1.193.048.904.097.704.201.713.25.552.21.424.225.424.145.28.112.297.081.432-.048.944-.097.897-.064 1.168-.033 1.449M381.505 350.669l-1.599-1.313-1.956-1.689-4.397-3.64-3.913-3.234-4.51-3.706M386.758 378.287l.025.6M394.955 381.408l-3.06-1.52-1.554-.665-.853-.327-.91-.313-.749-.128-1.071-.168M396.831 379.735l-.958.857-.918.816M380.39 376.582l6.393 2.305M380.39 376.582l-.202-.64M383.292 387.677l2.766-5.733.418-.92.202-.672.105-.544.015-.433-.015-.488M371.025 394.39l-.644-.585-.483-.472-.467-.433-3.624-3.2M367.86 386.674l-.636 1.04-.475.737-.942 1.249" clip-path="url(#p6e3353429f)" style="fill:none;stroke:#000"/><path d="m360.574 392.292.958-.4 1.216-.488 1.135-.456.877-.433.548-.4.5-.415M381.766 402.723l-2.556-2.086M375.123 397.302l4.087 3.335M375.123 397.302l-.294-.132M360.574 392.292l2.141 2.657.669.712.676.56.54.377.547.432.29.216.41.352.5.48 1.054 1.057.79.696.765.616.716.577.338.288.41.348.178.164.238.2.193.056.193-.064.201-.124.193-.192 3.507-4.398M371.025 394.39l1.369 1.135.62.48.7.505.54.352.575.308M376.702 392.493l-.33.736-.347.68-.37.688-.495.889-.274.495-.13.329-.031.268.028.272.076.32M322.56 379.744l.862.128.878.336 1.41.728 1.376.696 1.659.857 1.135.624 1.667 1.008 2.134 1.289 3.39 1.992 1.521.841 1.627.824 1.513.728 2.384 1.04 1.521.649 1.37.552.837.272.78.137 1.321.103 1.192.145 1.119.255 1.079.433 1.055.472.87.296.796.056 1.144-.184.998-.344.814-.456.7-.417.862-.512M372.998 390.787l-.515-.311-.436-.312-.62-.473-.611-.496-.983-.768-.805-.705-.725-.648-.442-.4M372.998 390.787l-1.973 3.602M376.702 392.493l-.773-.353-.927-.408-1.11-.536-.894-.409" clip-path="url(#p6e3353429f)" style="fill:none;stroke:#000"/><path d="m378.952 388.467-.398.784-.226.425-.274.423-.314.48-.354.577-.338.608-.346.729M384.569 390.062l-.33-.515-.29-.496-.379-.72-.278-.654M396.831 379.735l2.094-1.688M397.544 376.466l-1.558 1.185-.15.148-.084.132-.04.14v.152l.06.236.137.212.922 1.064M397.544 376.466l1.381 1.581M396.042 374.286l.202.376.177.344.274.432.321.416.234.28.294.332M397.854 373.325l-1.812.96M397.854 373.325l3.913-1.865M579.03 100.304l1.524-.349 2.376-.504 3.277-.624M445.794 500.682l-.654-.687M451.56 535.774l-.121-.6-.121-.609-.201-1.384-.113-.993-.088-.56-.122-.568-.24-.584-.339-.4-.837-.729-1.313-1.088-1.216-1.08-.644-.512-.523-.272-.467-.12-.516.072-.7.375-.717.393-.523.224-.386.072-.54-.024-.443-.152-.386-.304-.29-.336-.201-.417-.137-.36-.153-.44-.323-.728-.281-.384-.29-.2-.443-.056-.587.04-.967.096-2.915.144-.805.008-.426-.08-.259-.112-.305-.208-.395-.384-.54-.497-.523-.504-.475-.384-.427-.288-.442-.288-.226-.184-.185-.24-.08-.184-.009-.216.073-.248.225-.353.516-.6.845-.752 1.224-1.096 1.506-1.417 1.03-1.024 1.03-1.152.533-.633.603-.88.5-.752.458-.72.54-.705.878-1.008.644-.76.628-.752.958-1.217.974-1.32.91-1.169 1.07-1.44.565-.8.338-.52.201-.32.225-.409M456.407 519.328l-.572-.64-.475-.576-.362-.504-.306-.584-.193-.529-.162-.664-.128-.704-.065-.536-.104-.665-.113-.68-.04-.48-.032-.696-.04-.704-.097-.64-.146-.473-.225-.424-.282-.48-.394-.432-.717-.6-.716-.56-.596-.392-.25-.216-.241-.329-.234-.44-.282-.472-.16-.328-.073-.296-.048-.28-.065-.456-.065-.329-.2-.328-.242-.312-.394-.448-.387-.408-.427-.352-.378-.328-.484-.457-.918-.904M445.14 499.995l-.489-.513-.733-.68-.716-.72-.628-.633-.636-.72-.516-.648-.837-1.025-.572-.664-.475-.576-.748-.857-.781-.84-.717-.784-.846-.96-.604-.784-.37-.584-.451-.761-.362-.736-.37-.72-.42-.753-.635-1.032-.669-.865-.676-.751-.612-.577-.805-.696-.892-.767-.243-.834-.089-.56-.056-.504-.033-.72.09-.697M420.673 473.489l.45.348.637.548.58.476.41.337.451.344.52.332.325.228.355.304.403.348.47.428.596.597.443.623.274.313.221.148.218.076.205.02.201-.068.342-.216.705-.512.177-.117.141-.043.238-.005.213.036M388.377 395.305l-.202.228M388.377 395.305l.108.108.455.496.664.685.552.524.73.56.88.452 1.043.425 1.047.424.387.208.486.404.351.352.27.396.54 1.156.337.821M396.227 402.316l2.144 5.003M398.37 407.319l.869 2.07M399.239 409.39l1.033 2.363M400.272 411.753l.802 1.77M401.074 413.523l1.363 2.69M402.437 416.212l.389.221M216.528 564.686l-.087.329-.104.348-.117.324-.342.676-.077.16-.048.184-.06.273-.013.247-.016.309-.024.332-.03.175-.02.12-.026.105-1.427 4.725M210.262 591.326l.41-1.528.42-1.284.092-.362.03-.238.018-.216.012-.236.01-.114-.017-.141-.372-2.41-.27-1.88-.011-.129-.003-.124.019-.148.03-.172.034-.148.039-.164.162-.468.5-1.503 1.45-3.606 1.322-3.462" clip-path="url(#p6e3353429f)" style="fill:none;stroke:#000"/><path d="m205.621 574.997 1.275-.291 1.121-.203.501-.09.314-.087.443-.128.226-.096.177-.1.616-.513.432-.384.132-.1.213-.171.2-.132.27-.133.234-.104.218-.048.338-.016.221.024.206.048 1.38.52M204.654 528.33l.003-.138-.165-1.437-.256-1.289M219.286 505.167l-.302.049-.622.076-2.366.088-.585.028-.592.034-.543.062-.27.036-.235.047-2.078.68-.083.047-.105.078-.114.096-.105.108-.155.166-.477.534-.988.973-1.683 1.256-.495.364-.359.28-.338.328-.262.236-.18.176-.154.227-.386.658-.421.814-.755 1.55-.302.717-.304.86-.037.105-.033.102-.033.112-.029.124-.196 1.49-.14.748-.045.4-.03.468.018.697.052.864.201 1.732.48 2.89M308.498 377.75l-1.09-.32-1.547-.471-1.61-.457-.588-.24-.74-.456-.637-.456-.845-.648-.725-.488-.555-.392M295.537 370.614l.702.518 1.506 1.105 2.416 1.585M283.2 382.124l.832-.252 1.055-.2.854.032.982.288 1.112.505.869.288.805.112 1.506.072 2.061.096 1.007-.112.644-.256.491-.505.314-.56.177-.352.564-1.024.684-1.12.564-.937.49-.84.685-1.265.645-1.152.62-1.12M228.938 446.692l-.89-2.309-.894-2.385M274.757 382.88l-.354.097-.451.272-.54.488-2.069 2.185-.837 1.04-.338.496-.38.72-.377.85-.46 1.103-.475 1.37-.281.831-.218.352-.29.168-.41.057-.854.048-.652.056-.853.046-.37.045-.299.05-.234.05-.195.049-.14.04-.143.048-.174.068-.306.15-2.242 1.246-.507.268-.62.328-.588.328-.588.353-1.038.676-1.12.728-.543.36-.298.233-.225.156-.21.14-.265.111-.27.116-.765.257-.717.296-1.541.68-1.571.776-.495.273-.205.111-.153.113-.17.12-.205.164-.15.168-1.4 2.34-1.425 2.417-2.766 4.878-1.53 2.509-.813 1.24-.777 1.373-.725 1.229-.684 1.272-.225.42-.314.6-.186.28-.173.228-.14.176-.271.299-.361.442-.373.432-.368.376-.18.2-.184.225-.275.384-.302.464-.088.138-.066.12-.042.084-.033.088-.023.068-.023.095-.109.479-.044.316-.048.446-.214 1.543-.258 1.368-.486 2.941-.259 1.623-.024.194-.012.212-.004.312.028.156.04.176.04.212.197.999.012.146.013.196.006.17-.058.69-.179 1.086-.062.332-.03.11-.041.117-.038.08-.044.088-.05.069-.051.059-.117.092-.146.097-.123.084-.105.057-.608.322-.725.344-1.55.616-.72.304-.673.305-.233.132-.23.195-.193.22-.245.305-.127.176-.141.222-.049.092-.03.075-.018.06-.004.067.012.08.03.096M211.831 442.835l.036-.163.033-.31.024-.212.036-.14.359-.94.564-1.469.494-1.092.745-1.325.11-.208.1-.148.116-.052.113-.027.177.043 1.768 1.88.29.229.374.192.41.136.496.108.89.152 1.42.376.407.144.81.425 1.357.644 1.078.4.451.208 1.087.216.427.098.37.06.228.018.215-.004.175-.028.163-.048M251.386 472.505l-2.656-1.365-3.028-1.58-.21-.16-.173-.14-.257-.236-.395-.433-.594-.884-.102-.088-.1-.074-.136-.068-1.649-.59-.736-.244-.83-.248-.91-.38-.877-.449-.797-.344-.953-.512-.625-.4-.806-.544-.249-.217-.165-.227-.186-.297-.108-.244-.225-.416-.173-.336-.186-.324-.104-.2-.134-.3-.08-.216-.338-1.285-.024-.118-.033-.086-.048-.08-.108-.144-.18-.225-.473-.571-.543-.732-.254-.545-.08-.228-.053-.188-.03-.176-.155-1.396-.11-.706-.041-.117-.042-.1-.069-.12-.157-.246-.16-.24-.27-.368-.835-1.287-.329-.647-.056-.156-.023-.14-.017-.156-.005-.179.013-.18.044-.308.028-.208.016-.152.012-.144-.012-.156-.133-.717-.132-1.028-.053-.236-.052-.2-.08-.216-.023-.05-.058-.13-.14-.336" clip-path="url(#p6e3353429f)" style="fill:none;stroke:#000"/><path d="m211.831 442.835.54.123.914.1.842.08.925.157.64.084.874.044.38.024.42.106.41.134.477.2.594.236.66.244.6.18 1.105.264 2.492.664 1.353.329 1.235.308.798.196 1.019.232.47.1.36.052M293.357 432.81l-.355.233-.604.472-.652.552-.563.449-.411.28-.475.304-.483.232-.427.208-.49.32-.404.424-.386.568-.427.688-.515.777-.693.952-.764.896-.62.736-.685.849-1.07 1.393-.79.984-.507.536-.797.744-.644.633-.741.712-.854.84-.942.88-.459.416-.66.577-.556.576-.82 1.008-.492.577-.29.375-.588.641-.612.624-.644.785-.926 1.152-.861 1.048-.71.889-1.118 1.24-1.151 1.264-.886.912-.854.937-.62.76-.475.673-.282.471-.459.745-.434.744-.338.552-.299.632-.241.56-.217.401-.274.384-.375.297-.305.12-.38.099-.618.174-.36.134-.334.2-.51.304-.56.484-.516.425-.298.216-.358.216-.159.104-.195.088-.215.08-.235.077-.651.129-.715.198-1.29.404-1.29.48-.685.212-.483.182-.29.107-.21.115-.374.245M242.621 481.285l2.255-2.446 1.1-1.212.551-.6.54-.505 2.166-2.209 1.062-.88 1.09-.928M210.262 591.326l.136.161.071.088.082.064.103.064.103.028 5.64 1.805 2.899.792 1.852.528.418.104.262.052.157.01.142-.02.15-.026.115-.038.129-.054.096-.056.568-.296.841-.568 1.397-1.125 2.56-2.188.198-.149.225-.108.214-.075.145-.024 2.206-.565 3.448-.797.84-.362.362-.187.467-.17.358-.108.405-.112.293-.054.28-.026.31-.004.182.016.217.036.322.068.201.048 1.295.418.562.246.583.338.527.342.613.37 1.244.596 1.28.527 1.447.447 1.081.301 1.03.192 2.408.304 1.868.048 1.055.088.58.072.622.11.437.09.37.096.515.18.383.164.269.13.202.09.197.064.154.048.225.044.209.015 4.194-.02M284.29 552.1l-.612 1.015-.523.656-.54.625-.458.52-.282.384-.185.28-.13.328-.096.376-.08.537-.057.608-.128.896-.17 1.056-.137.8-.184.809-.033.472.033.44.08.608.064.608.057.545-.049 1.024-.08.952-.097.92-.12.993-.21 1.04-.29.872-.45 1.176-.524 1.273-.266.777-.258.928-.257 1.032-.5 2.017-.249.864-.113.552-.145.704-.136.656-.516 1.449-.926 2.337-.652 1.464-.523.744-.669.576-.894.56-.893.513-.894.56-1.055.68-1.12.752-1.263.929-1.385.928-2.005 1.216-1.12.649-1.244.578M296.15 536.878l.339-.328M296.15 536.878l-.998-1.137M284.29 552.1l.339-.577.418-.825.419-.888.402-.792.379-.584.563-.656.628-.697.798-1 1.232-1.48 1.167-1.361 1.16-1.313 1.079-1.272.902-1.04.885-1.064.725-.84.765-.833M242.621 481.285l.95.76.26.261.16.164.177.214.151.238.115.25.427.873.058.092.078.104.105.082.103.082.08.048.099.04 1.28.32 1.86.48 3.578.878 5.355 1.327 2.686.668 1.38.384 1.16.304 4.77 1.216 4.833 1.343.28.086.246.1.258.124.17.108 2.452 2.147 2.967 2.514 1.38 1.077 2.963 2.369.853.752.757.72 1.055 1.009.894.784 1.232 1.04 1.208.937 1.175.776.419.224.443.264.427.24.354.408.314.552.145.6.12.457.153.528.258.496.467.664.845 1.008.91 1.177.435.592.266.44.161.536.097.48.016.593.04.52.056.456.113.472.363.544.587.657 1.07.968 1.258 1.08.885.8.805.753.942.809 1.973 1.512 2.987 2.113" clip-path="url(#p6e3353429f)" style="fill:none;stroke:#000"/><path d="m296.489 536.55.934-.705.886-.688.724-.568.668-.456.725-.368.507-.28.66-.52.685-.609.926-1.016 1.24-1.632 1.216-1.68.733-1.065.692-1.064M311.948 517.248l-.563.568-.58.552-.491.696-.226.705-.12.871-.154.753-.217.808-.459.84-.5.769-1.553 2.089M366.685 492.824l-.58.296-.62.328-.596.408-.515.4-.926.816-1.481 1.28-1.418 1.273-1.715 1.48-1.102.929-.967.76-.572.512-.579.64-.5.56-.418.457-.926.872-1.103.985-.773.72-.781.784-.733.8-1.023 1.257-.813.888-.733.776-.877.929-1.007 1.096-1.062 1.144-1.031 1.169-.91 1-.75.713-.804.671-.974.688-.596.385-.443.24-.443.112h-1.1840000000000002l-.386.136-.322.312-.274.416-.217.392-.306.536-.556.809-.523.464-.475.312-.822.512-.861.576-.974.625-.516.344-.507.256-.563.264-.508.288-.563.32-.46.304-.523.224-.507-.024-.354-.216-.685-.728-.668-.784-.363-.465-.523-.488-.362-.192-.5-.072-.635-.063-.66-.12-.822-.225-1.36-.576-1.361-.68-.725-.288-.507-.056-.484.104-.805.231-.628.017-.515-.232-.628-.473-.724-.528-2.61-2.176M342.69 448.585l-.209.503-.354.577-.556.848-.394.656-.395.769-.588 1.096-.861 1.592-.612 1.105-.347.656-.41.688-.684.857-1.385 1.328-.99 1-.717.873-.298.448-.226.36-.2.384-.25.568-.267.656-.208.425-.21.384-.177.368-.193.424-.218.737-.281 1-.323.832-.338.649-.475.616-.894.744-1.191.808-.886.536-.87.4-.998.384-1.03.464-1.015.505-.806.392-.732.328-.765.336-.75.312-.425.248-.508.336-.443.312-.387.248-.546.337-.556.336-.604.48-.411.4-.234.352-.249.624-.185.632-.097.609-.04.84.233.688.42.529.764.72 1.047.888.974.824.846.825.443.448.386.48.129.408-.016.592-.097.416-.201.593-.186.72-.193.96-.273.993-.242.72-.467 1.376-.467 1.049-.757 1.4-.531 1.073-.242.52-.234.56-.16.472-.162.624-.144.569-.186.68-.257.744-.242.688-.153.592.024.424.12.505.17.456.153.544.105.648-.016.536-.121.56-.161.56-.21.697-.257.864-.314 1.12-.217.897-.186.6-.233.472-.387.416-.273.4-.097.393.016.344.088.48.113.504.105.648-.016.44-.089.529-.16.4-.198.416-.27.408-.885.992-.79.897M377.885 479.099l-.62.504-.58.384-.482.328-.468.433-.193.255-.17.305-.144.456-.16.808-.17.72-.161.528-.419 1.25-.354 1.047-.194.64-.152.52-.121.777-.072.592-.097.56-.186.409-.321.503-.403.489-.797.64M366.685 492.824l.467-.177.419-.096.434.016.475.024.62.056.395-.08.46-.24.965-.624.701-.456M375.816 500.674l.048-.648.065-.472.08-.52.072-.337.13-.351.12-.313.105-.384.08-.328.097-.336.193-.48.21-.36.25-.424.08-.16v-.225l-.113-.192-.274-.192-.684-.472-.741-.528-.74-.512-.927-.632-2.246-1.56M349.872 431.723l.798-.857.668-.896.773-1.273.475-.792.604-.88.934-1.369.91-1.256.604-.792.515-.665.725-.808.668-.624 1.128-.984.893-.729.918-.856.813-.792.967-1.025.595-.664.42-.448.563-.424.676-.448.894-.649 1.417-1.096 2.263-1.873M224.03 503.482l.13-.067.333-.156.37-.208.387-.332.399-.348.342-.289.245-.255.222-.18.185-.109.314-.168.306-.144.218-.152.172-.148.899-1.036.458-.408.431-.406.423-.574.483-.729.528-.632.543-.624 1.067-1.152.318-.4.209-.289.217-.316.18-.248.292-.37.3-.354.537-.568.302-.326.282-.335.507-.632 1.155-1.356.531-.673.51-.732.747-.972.769-.9.354-.457.31-.456.314-.496.259-.47.256-.518.137-.328.133-.397.068-.255.04-.185.053-.22.08-.22.158-.272.25-.32.257-.276.201-.228.41-.511M192.374 580.506l.295-.134M210.262 591.326l-3.33-2.54-3-1.948-.24-.182-.267-.153-.292-.144-.348-.16-.168-.084-.182-.073-.443-.18-.897-.405-2.026-.852-2.1-1.024-1.634-1.085-.968-.596-.531-.332-.387-.268-.286-.22-.35-.264-.44-.31M188.103 577.409l.04.016.038.025.045.044.035.058.055.109.756 1.399.078.128.11.113.15.12.174.136.363.254.35.204.318.128.408.128.32.097.31.06.359.06.362.018M432.735 424.848l1.505-3.777 1.103-.92 1.594-1.009 1.088-.432 3.888-1.152 1.772-.977.958-.856 4.404-5.026 2.167-2.033 6.618-5.906.942-1.272 3.487-5.858 1.103-2.01.958-1.064 2.093-1.64 3.294-2.241 4.525-2.721 1.449-.688 1.497-.673.645-.664.676-.912.79-.736 1.932-1.409 2.504-1.737.362-.464.234-.712.877-3.57 1.136-4.433.539-1.328.934-1.849 1.265-5.074.345-4.001.033-1.001.144-.744-.128-1-.17-.561-.08-1.096.17-3.25.378-1.248.74-1.433 1.458-2.648 1.94-5.45 1.538-2.314.983-1.12.153-.36.064-.456-.193-1.169-.314-.672-.83-1.16-.475-.44-.507-.233-1.36-.496-.387-.424-.604-1.064-1.433-3.17-.894-1.368-.757-.736-1.135-.72-.886-.417-.749-.224-2.31-.32-.999-.256-.821-.384-.999-.664-.813-.777-.604-.968-.185-1.121-.467-4.074.065-.696.683-3.2.073-1.226.258-1.392.483-1.649 1.473-3.537 1.2-1.224 1.055-.969.684-1.16.476-1.113M446.785 306.202l5.008-1.023L485.37 298M476.238 257.704l.693.504 3.507 2.79 2.416 1.956 1.964 1.485.543.284.737.148 1.039.176.455.136.535.204.48.232.418.296.23.113.313.084 1.16.012.942.047 1.425.172.821.253.987.52 1.775 1.337.544.531.157.357.032.364-.096.376-.17.248-.314.328-.966.925-.068.171v.193l.253.42 4.537 4.77 3.672 4.13.544.66.605.757.389.488.379.311.482.2.403.088.85.156M512.166 290.781l-.04-.328-.056-.564-.073-.404-.109-.425-.173-.308-.282-.303-1.578-1.97-1.944-2.553" clip-path="url(#p6e3353429f)" style="fill:none;stroke:#000"/><path d="M510.532 280.889h-.54l-.338.048-.33.096-.427.249-.25.255-.217.337-.226.448-.128.432-.137.576-.028.596M523.78 285.656l-1.42.596-.41.255-.178.393-.056.432.064.488.137.564.084.365.045.368.008.224.008.192-.037.28" clip-path="url(#p6e3353429f)" style="fill:none;stroke:#000"/><path d="m522.025 289.813-.366-.008-.402.016-.48.048-.809.092-2.913.326" clip-path="url(#p6e3353429f)" style="fill:none;stroke:#000"/><path d="m517.13 290.866 2.96-.33.53-.059.79-.112.217-.064.181-.096.137-.152.08-.24M512.166 290.781l.718-.073M162.822 303.987l-.223.835-.162.721-.237.676-.3 1.56M161 338.813l-.318-.309-.475-.56-.551-.804-.222-.36-.17-.393-.08-.5-.245-1.032-.064-.134-.087-.119-.111-.116-.122-.102-.133-.09-.457-.255-.522-.352-.332-.293-.266-.248-.14-.174-.076-.163-.076-.181-.042-.162-.048-.322-.302-2.404-.157-1.4-.004-.3.008-.24.032-.236.077-.344.072-.348.089-.269.104-.272.201-.369.138-.239.116-.17.251-.307 1.01-1.171.326-.296.29-.25.32-.255.28-.224 1.092-.852 2.02-2.009 3.064-2.194.595-.583.254-.288.221-.284.177-.22.182-.3.205-.53.253-.935.113-.468.045-.42-.005-.333-.012-.174-.03-.143-.038-.085-.052-.084-.045-.062-.077-.09-.132-.136-.127-.116-.095-.078-.18-.136-1.067-.712-2.068-1.595-.175-.158-.161-.16-.163-.176-.127-.156-.597-1.07-.484-.724M231.917 328.332l-1.884-2.213-1.949-1.968-4.008-4.053-1.097-1.294-.33-.464-.31-.532-.273-.58-.242-.54-.15-.353-.188-.512-.072-.272-.025-.24-.012-.5.012-.797.056-.776.067-1.108.073-.865.007-.28.014-.298-.156-1.418-.176-.29-.102-.17-.208-.36-.21-.35-.412-.855-.519-1.149-.66-1.116-1.204-2.133-.89-1.376-.18-.168-.206-.177-.202-.12-.366-.172-.197-.036-.245.008-1.434.185-1.823.468-.645.176-.535.18-1.155.388-1.776.416-2.363.34-2.15.22-.825.132-.48.056-.273.012-.343-.004-.362-.032-.407-.072-.37-.096-.426-.116-.436-.16-.518-.212-.609-.288-.587-.34-.508-.325-.551-.423-1.353-1.62-.387-.485-.374-.549-.43-.752-.858-1.515-.057-.057-.043-.036-.05-.024-.084-.042-.056-.018-.085-.024-.083-.017-.923-.123-2.259-.264-2.681-.733-1.703-.448-.298-.096-.362-.12-.386-.164-.274-.136-.27-.172-2.529-1.973-2.858-2.437-.423-.464-.31-.337-.483-.424-.41-.308-.363-.22-.664-.368-1.553-.981" clip-path="url(#p6e3353429f)" style="fill:none;stroke:#000"/><path d="m174.132 279.829-.176.508-.298.825-.282.76-.145.424-.044.248-.005.392.005.188.02.22.048.448.145.617.161.416.242.504.685 1.024M162.822 303.987l.377-1.413.128-.532.13-.304.128-.232.193-.264.665-.753.764-1.056.847-1.058 3.59-4.14 1.84-2.041.978-.733.455-.344.185-.171.129-.197.13-.236.083-.304.045-.3.02-.308.044-.373.024-.471.06-.32.096-.245.178-.416.148-.346.43-1.027M181.136 368.479l-.29-.18-.453-.336-.439-.424-1.022-.776-.804-.553-.4-.291-.399-.32-1.678-1.865-.427-.38-.342-.24-.538-.34-.795-.457-.475-.276-.563-.3-.665-.32-.41-.169-.56-.147-1.872-.332-1.723-.311-2.862-.354-1.623-.068-.435-.046-.423-.046-.284-.064-.168-.046-.147-.068-.146-.096-.16-.129-.431-.383-.552-.506-.364-.336-.093-.113-.09-.122-.07-.134-.055-.133-.063-.18-.034-.149-.056-.232-.048-.206-.035-.208-.024-.248-.002-.326.002-.236.008-.179.006-.165.024-.174.073-.227.658-1.316.688-1.537.23-.532.262-.668.026-.114.016-.108.024-.118.032-.139.05-.121.075-.113.115-.173.139-.225.11-.168.143-.215.546-.803.463-.656.092-.148.097-.204.1-.299.114-.315.113-.598.186-.91.298-.956.065-.238.044-.193.02-.36.014-.3.002-.257-.02-.312-.044-.288-.113-.437-.133-.404-.06-.206-.056-.176-.095-.204-.107-.156-.093-.12-.18-.184-.339-.352-.78-.713-.4-.384-.229-.292-.303-.463" clip-path="url(#p6e3353429f)" style="fill:none;stroke:#000"/><path d="m231.917 328.332-1.014.84-.93.448-1.085.508-.272.177-.866.82-1.099 1.345-1.276 1.32-.807 1.092-1.347 1.045-.97.7-1.587 1.7-1.163.837-.338.393-.886 1.448-1.74 1.773-1.581 1.232-1.319.634-.233.346-.745 1.641-.608.3-.644.086-.378-.162-2.039-1.3-.842-.796-.874-.173-3.889-1.788-2.134-1.097-2.967-.628-2.951-1.408-8.124-2.641-1.014.003-2.211.116-2.262-.227-3.104.816-2.686.128-2.134.548-1.561.628-1.345.825-1.05.614-.669.278-2.011.458-1.113.32-.355-.136-1.41-1.332-1.03-.486-2.255-.764M295.537 370.614l-.989-.73-1.167-.977-.813-.752-1.224-1.32-.75-.776-.57-.705-.645-.904-1.039-1.369-.458-.664-.395-.504-.467-.544-.475-.48-.379-.344-.467-.321-.902-.496-.708-.464-.66-.4-1.627-1.057-1.328-.848-1.135-.808-.709-.545-.676-.632-.693-.744-.861-.944-.532-.552-.523-.409-.604-.288-.797-.272-1.232-.392-.878-.296-.87-.297-1.006-.392-.757-.351-.588-.368-.604-.497-.724-.624-.532-.504-.293-.202-.195-.143-.224-.141-.137-.062-.121-.048-1.437-.509-1.917-.56-1.2-.28-.869-.232-.733-.144-.789-.064-1.07-.169-.95-.248-.838-.296-.652-.247-.612-.28-.564-.329-.785-.628-.777-.756-.704-.62-.721-.505-.62-.38-.397-.196-.446-.184-.268-.124-.206-.108-.229-.152-.282-.189-.543-.431-2.29-2.07-2.316-2.036-.419-.348-.314-.26-.56-.376-.518-.296-.448-.185-.84-.352-.947-.344-3.793-2.017-.772-.432-.773-.52-1.003-.868-.25-.24-.233-.269-.308-.368-.473-.504M265.308 248.968l4.05-1.613 4.449-1.716 1.993-.844 1.131-.52M278.558 244.603l-.746-.233-.88-.096" clip-path="url(#p6e3353429f)" style="fill:none;stroke:#000"/><path d="m278.558 242.765-.451.55-1.176.96M253.983 240.153l.5.36.515.192.998.152 1.015.152 1.135.244.817.136.89.096 1.518.016.551.076.511.185.33.224.544.652.407.76.221.753.044.483.009.473-.174 1.256-.04.408.02.36.081.357.234.408 1.2 1.072M259.463 250.758l.394-.045 1.542-.016.543-.084.62-.256 2.078-1.008.668-.38M253.983 240.153l-.483 1.2-.886 1.169-1.231 1.296-.484.496-.354.585-1.434 4.305-.341.844-.484.661M259.463 250.758l-.206.023-.793.148-1.477.264-1.136.148-2.81.12-.725.073-.966.28-1.09-.253-.79-.224-.483-.192-.378-.208-.323-.228" clip-path="url(#p6e3353429f)" style="fill:none;stroke:#000"/><path d="m293.244 177.166-.773.6-3.116 2.337-1.216.729-.765.68-.418.744-.339.984-.112.825.137.696 1.304 2.321.04.524-.088.5-.226.865-.37.608-.483.36-.46.193-1.562.48-.942.48-.515.368-.95.8-1.176.905-1.533.832-2.533 1.084-1.534.73-1.537.863-.95.464-.532.413-.435.492-.62 1.164-.592 1.52-.342.905-.43.848-1.007 1.338-.572.856-.33.488-.21.568-.084.504-.06.637-.145.732-.193.6-.322.609-.403.592-.628.824-.644.728-3.656 3.274-.62.52-.467.464-.588.664-1.376 1.633-1.071.912-1.095.817-1.659 1.153-1.434 1.288-1.69 1.849-1.426 2.28-.305.753-.153.592-.201 1.128.128 2.802.226 1.473.016.695-.04.81.104.624.29.912.459.656 1.933 2.217.772 1.168.258.513M424.988 313.566l-9.223 3.483M446.785 306.202l-2.609.513-1.82.377-1.312.344-1.586.544-3.664 1.409-10.806 4.177M404.706 287.148l3.945 3.553.524.48.394.465.21.264.177.232.241.4.29.368.41.392.814.793.652.712.87.936.564.568.644.593.426.344.516.368.7.488 1.007.72.845.625.475.4.202.4.04.464-.089.832-.08.69-.08.76-.05.663v.64l.194 1.121.217.808.194.584.402 1.01.556.968.507.76.677.664 1.586 1.352.78.68.564.489.508.416.45.416M425.339 282.746l-.306.312-.145.092-.14.033-.186-.012-.226-.049-.49-.264-.516-.368-.282-.288-.258-.384-.225-.488-.234-.584-.128-.249-.121-.104-.193-.064-.234.016-.298.048-.37.016-.323-.04-.45-.136-.902-.344-.837-.392-.967-.632-.467-.305-.265-.215-.17-.273-.24-.488-.307-.592-.265-.464-.258-.288-.339-.2-.442-.129-.435-.032-.258.056-.209.176-.846 1.2-.692 1.01-.87 1.264-.475.696-.499.792-.217.329-.08.304-.033.448-.033.472-.104.4-.37.624-.475.44-.677.449-.886.512-.958.576-.789.48-.49.32-.323.289-.33.432M278.558 242.765l-.065.657-.024.36.02.448.069.373M253.264 118.916l.268-.248 1.216-.92.21-.345.273-.72.403-.449 1.268-.68.845-.396M283.447 130.435l-.151-.158-.15-.22-.893-1.393-.833-1.4-.083-.272-.001-.28.037-.157.075-.152.926-1.04.218-.26.148-.28.04-.313-.016-.296-.072-.284-.322-.576-.141-.408-.004-.424.113-.557.648-1.36.499-1.385.093-.416.052-.432-.068-.853-.186-.768-.418-1.149-.31-.648-.23-.232-.51-.24-.48-.06-.624.048-1.252.372-2.414.964-.416.156-.385.074-.515.024-.584.029-.308.094-.378.2-.814.484-.873.34-.926.425-.697.344-.74.252-1.627.536-1.18.556-.595.208-.568.024-.459-.072-.52-.116-.446-.184-.399-.264-.318-.5-.257-.772-.391-.613-.398-.376-.403-.196-.407-.108-.45.052-1.031.304-1.059.192-.379-.016-.426-.12-.431-.332-.447-.524-.564-.75" clip-path="url(#p6e3353429f)" style="fill:none;stroke:#000"/><path d="m360.826 213.006-.421.159-2.637.645-.947.184-.736.064h-1.224l-.99.075-2.533.273-1.248.176-1.066.296-1.213.388-1.05.092-1.252-.016-2.213-.178-2.033-.222-.739-.002-.35.046-.297.09-.63.218-.522.16-.55.089-.344.027-.316-.036-.457-.142-1.473-.412-1.335-.238-1.552-.116-.624-.004-.737.046-.39.08-.388.144-1.655.762-.562.275-.523.216-.488.254-3.009 1.824-.513.425-.387.35-.27.332-1.191 1.673-.27.322-.328.316-.648.458-1.193.782-.34.22-.317.194-.425.177-.409.122-.418.111-.584.193-.54.216-.55.144-.605.108-2.105.172-1.128.024-.39-.052-.33-.132-.568-.36-.596-.416-.906-.773-.36-.23-.465-.158-.433-.062-.394-.012-.32.062-.441.174-.41.124-.42.118-1.213.276-.423.11-.314.13-.461.28-.775.605-2.166 1.573-1.03.6-.906.496-1.277.829-.748.407-.93.333-.733.164-.846.144-.539.18-.644.3-1.043.472-1.151.5-.68.369-.943.676-.616.512-.507.589-.274.411-.394.488-.502.46-.735.693-.47.62-.35.613-.589 1.036-.321.557-.524.644-.886.888-.426.38-.548.369-1.45.592-.559.248-.27.22-.318.456-.494 1.008-.455.692M505.93 101.016l.197.644.52 1.06.273.74.077.561-.089 1.257-.177.972-.76 2.033-.444.78-.576.753-.579.64-.552.472-1.57.904-1.977.993-.378.244-.596.548-.45.329-.375.18-.403.124-2.137.044-.77.092-.623.148-1.003.18-.737.076-.571-.04-.455-.148-.673-.24-.668-.088-.394.104-.363.252-.603.74-2.11 2.281-.934.712-.966.56-1.33.353-1.98.32-.708.272-.548.513-.21.52-.047.448.024 1.065-.097.848-.354 1.384-.25.745-.076.376.036.348.225.524.644 1.385.37 1.272.17 1.425-.024.56-.137.397-.174.288-.607.644-1.071.944-.817.737-.524.604-.435.644-.193.389-.137.431-.06.853.169 1.513-.105 1.745-.39 1.384-.419 1.137-.442.92-.528.808-.749.897-.97 1.064-.604.797-.604 1.096-.773 1.493-.66 1.216-.773 1.273-.523.724-.604.64-.548.453-.56.388-1.336.928-.729.328-.785.264-1.594.249-.938.072-.922-.056-1.12-.196-.934-.2-.62-.02-1.344.1-.982.288-1.015.416-1.506.96-1.296.848-.56.245-.648.188-2.77.376" clip-path="url(#p6e3353429f)" style="fill:none;stroke:#000"/><path d="m360.826 213.006 1.16-.437 1.229-.632.93-.397 1.767-.563 2.75-.777.934-.268.853-.336 1.107-.46 5.467-3.214 4.397-2.76.998-.682.854-.8 1.747-1.937 1.876-2.048 1.892-2.453.677-.853.91-.992.78-.953.785-.948.37-.376.5-.336 1.083-.616 1.542-.949 2.589-1.96 1.739-1.065 1.659-1.153 2.584-2.113 2.54-2.177 1.55-1.264.52-.476.334-.493.354-.908.286-.92.294-.597.524-.8.74-.8 2.03-1.393 4.629-3.313 1.683-1.325.684-.636.637-.72.672-.721.745-.656.503-.572.221-.26.319-.289 1.07-.624 1.586-.82 2.666-1.317.865-.392.568-.1.834.048.82.132 1 .252.977.445 1.711 1.064 1.015.696 1.135.504.806.112.805.02.688-.156.688-.272.786-.512.64-.456 1.674-1.37.592-.367.77-.4 2.254-1.097 1.352-.448M476.238 257.704l-.277-1.077.064-.467.697-2.062.064-.372.053-2.125.326-1.468.084-1.229.294-1.813.073-1.944.297-1.785.733-3.25-.104-.368-2.03-3.201-.225-.92-.322-2.837-.21-.62-.116-1.07.06-1.54.028-1.08.407-1.585.427-.592.128-.828.077-.525.588-1.885.668-8.747-.032-1.18-.125-.333-.789-1.68-.423-.589-1.42-1.393-.431-.671-1.132-2.426-.137-.832.089-.784.25-1.089.37-.608.435-.472 4.227-2.938 1.038-1.44.194-.48.032-.689-.596-2.849-.273-.248-2.605-1.637-.302-.332-3.374-4.282-1.425-1.052-.556.116-1.98.624-2.15.465-1.466-.024-1.41-.137-.627.08-.564.273-2.782 1.928-1.59.69-.328-.11-.066-.164.016-.284.167-.83-.167-.298-.278-.096-.31.056-.813.222-.352-.062-2.12-1.016-.5-.389-.205-.332-.008-.953 1.188-3.517.048-1.285.04-1.152.652-1.589-.068-.86-.173-.308-.238-.146-.271-.006-.417.136-.938.364-.725-.198-.46.126-.425.196-.544.496-1.119 1.177-.528.284-.47.064-1.2-.172-2.61-1.563-.104-.246-.334-1.1-.523-1.305-1.079-2.097-.242-.832-.012-.744.198-.657.45-.592 1.796-1.809.66-1.085.491-.56 2.525-2.117.273-.44.202-1.148.032-1.152-.234-.969-.773-1.713M499.59 104.311l2.19.257 1.257-.609.032-.576-.999-1.953-.225-.769.129-.416.29-.384.515-.097 2.577 1.474.574-.222M311.506 147.76l.322-.223.563-.216 2.73-.913 1.023-.624.78-.592 1.047-.925" clip-path="url(#p6e3353429f)" style="fill:none;stroke:#000"/><path d="m310.831 143.02 1.263.299 1.062.264.76.248.83.26.617.128.728.08.854.028 1.026-.06M295.475 174.148l-.427.745-.942 1.313-.862.96M295.776 177.506l-.855-.388-.352-.05h-.359l-.406.04-.56.058M311.506 147.76l-.161.217-.46.8-.225 1.017.032.808.282.944.983 2.93.668 2.745.571 3.594.033.856-.12.448-.25.376-.435.408-1.555.873-1.232.752-1.28 1.04-.877.457-.757.216-1.418.248-.885.256-.668.32-.935.52-.78.329-1.087.352-.886.408-.821.448-.926.649-.58.512-.515.824-1.747 3.041M295.776 177.506l-.084-1.469-.217-1.889M305.128 189.099l-.766-1.024-.289-.288-.275-.317-.253-.214-.302-.198-.502-.242-.455-.302-.358-.328-.25-.312-.251-.377-.298-.346-.344-.306-.463-.316-.304-.268-.268-.328-.665-1.032-.297-.411-.213-.17-.806-.376-.837-.462-.323-.306-.27-.473-.14-.452-.173-.684-.101-.744-.149-1.317M283.447 130.435l-1.447.719-1.136.654-.49.25-.57.216-.347.09-.455.118-.473.2-.994.424-1.413.38-.431.109-.355-.005-.6-.084-1.147.08-.942.204-.992.19-1.055.136-.698.012-.429-.021-.211-.057-.226-.14-.283-.222-.35-.272-.287-.176-.054-.046-.065-.07-.046-.097-.003-.092.055-.089.183-.127.177-.138.1-.143.084-.212.09-.392.113-.377.306-.656.1-.332.013-.2-.068-.112-.134-.072-.623-.1-1.675-.316-.97-.096-.737.024-1.3.172-1.66.096-1.251.08-.27-.028-.282-.1-.507-.333-.813-.683-.673-.86-.318-.694-.265-.788-.286-1.368-.158-.717-.249-.596-.386-.564-.669-.656-.684-.605-.857-.62-1.118-.847-.157-.234-.08-.292.005-.292.28-.752M304.889 139.796l.002-1.035-.032-.648-.08-.473-.214-.676-.215-.997-.083-.49-.01-.432.022-.228.066-.266.08-.387-.065-.356-.073-.222-.159-.35-.306-.462-.481-.772" clip-path="url(#p6e3353429f)" style="fill:none;stroke:#000"/><path d="m310.831 143.02.232.753.29.619.358.652.129.28.042.212-.06.286-.206.538-.09.4-.036.437.016.564M304.889 139.796l-.465-.111-.535-.14-.604-.172-1.748-.368-.628-.208-.43-.228-.476-.425-.611-.656-.475-.428-.391-.192-.346-.096-.447-.032-1.332.092-.887-.08-.76-.204-.451-.24-.56-.408-1.232-1.01-.515-.447-.33-.369-.222-.428-.2-.588-.299-.496-.624-.536-.407-.244-.394-.176-.978-.28-.876-.28-.246-.037-.414-.02-.298-.011-.286-.072-.8-.283-.42-.084-.43-.018-.472.022-.404.014-.284-.026-.165-.096M310.831 143.02l-.871-.265-.58-.2-.383-.225-.672-.512-1.167-.864-.822-.52-.92-.463-.527-.175M537.723 246.182l-3.881 17.332-.25 1.065-.265.848-.685 1.233-.894 1.224-.689.708" clip-path="url(#p6e3353429f)" style="fill:none;stroke:#000"/><path d="m537.723 246.182-1.743-1.415-.6-.412-.187-.069-.224-.036-.181.045-.135.128-.127.396-.145.46-.237.524-.379.608-.294.696-.29 1.005-.2 1.124-.25 1.613-.11 1.605.045 5.218.093.796.233.704.48 1.173.072.368.008.38-.109.932-.177.993-.201.568-.25.433-.906.86-.41.496-.427.865-.302.808-.093.596.093.492.29.456M523.78 285.656l.347-.18.302-.201.403-.344.434-.4.42-.464.651-.753.556-.68.612-.84.362-.529.177-.447.08-.473v-1l-.12-.873-.104-.808-.13-.856-.056-.72.008-.817.056-.704.194-1.177.177-.948.121-.489.205-.464.238-.388 2.346-2.509M476.238 257.704l-3.756-2.885-3.285-2.69-.877-.752-.473-.39-1.838-1.348-6.152-4.808-1.304-1.02-.286-.12-.264-.043-.415.044-.356.12-.605.19-.625.19-1.592.45-.906.237-.664.012-.628-.1-1.659-.169-2.959-.408-1.498-.224-.535-.104-.95-.336-.399-.16-.334-.088-.648-.084-.483-.104-.347-.132-.37-.284-.39-.4-.355-.457-.998-2.133-.652-1.112-.89-1.297-.664-.904-.588-.548-1.24-.58-.415-.236-.261-.218-.45-.535-.269-.284-.36-.274-.602-.232-.747-.186-.381-.031-.219.043-1.228.482-.489.252-.48.32-.587.477-.314.168-.346.084-.342.045-.362.095-.214.066-.23.031-.229-.033-.376-.147-.244-.006-.193.048-.558.183-.686.144-1.037.056-.531.098-.725.218-.29.012-.195-.068-.214-.164-.927-1.117M360.826 213.006l.05.301.015.3-.007.323-.04.348-.697 2.853-.032.548.056.696.234.889.27 1.12.285.605.45.684.899 1.34.789.881.696.508 1.08.572.655.377 1.253.88.833.812.551.492.274.149.342.087 1.02-.156 1.118-.236 1.103-.164 2.553-.116M259.463 250.758l-.472 1.924-.21 1.054-.168 1.267-.097 1.188.047.194.108.16.25.223 1.061.792M584.874 107.19l-2.093-1.448-.274-.208-.177-.272-.08-.389.152-.844-.04-.276-.135-.176-.207-.153-.548-.455-1.292-.909-.334-.296-.238-.352-.579-1.108M203.876 630.138l1.095-1.536.194-.36.145-.424.056-.344.056-.288.13-.233.217-.351.088-.209.008-.176-.04-.384-.306-.976-.467-1.08-.153-.464-.056-.337-.049-.864.065-.696.169-.736.724-2.657.194-.616.096-.368.37-.633-.527-2.044-.197-1.209-.048-.224-.086-.22-.16-.275-.088-.173-.113-.184-.08-.184-.029-.2-.024-1.28-.137-1.744-.314-2.013.012-.696.008-.2.011-.186.014-.123.025-.12.043-.124.177-.484.54-1.629.748-1.916.163-.338.19-.312.36-.71.201-.417.056-.076.104-.098.102-.066.282-.144.314-.132.286-.344.189-.376.551-1.5.141-.483.065-.262.044-.224.185-1.048.169-.66.205-.828.218-.78.153-.585.097-.47M189.556 575.186l-.143.004-.163.04-.133.05-.132.08-.095.076-.103.132-.062.11-.067.156-.555 1.575M216.528 564.686l.038-.143.092-.204.158-.188.125-.137.189-.151.33-.224.261-.15.411-.326.218-.293.137-.348.112-.444.105-.396.056-.336-.012-.276-.057-.279-.331-.6-.053-.154-.034-.128-.024-.148-.024-.2-.012-.166-.001-.128-.011-1.242-.012-.54-.009-.293-.02-.192-.036-.323-.044-.24-.093-.45-.155-.653-.034-.162-.038-.174-.016-.144-.002-.234.016-.352.048-.952-.028-.317-.06-.312-.07-.193-.462-.827-.362-.553-.532-.744-1.78-2.064-1.428-1.753-.524-.584-.6-.625-.434-.384-.347-.308-.334-.264-.402-.248-.491-.274-.202-.15-.126-.11-.1-.102-.104-.128-.13-.216-.232-.468-.278-.456-.491-.757-.45-.84-.279-.536-.226-.416-.301-.532-.165-.288-.177-.292-.125-.252-.25-.757-.085-.28-.034-.24v-.184l.015-.508.04-.528.002-.447-.017-.144-.038-.134-.096-.184-.113-.176-.125-.168-.515-.744-.25-.468-.157-.348-.11-.392-.08-.563-.096-1.194-.04-.928.024-1.073.013-.532M222.77 504.312l-.08.816-.21.984-.12.972v.496l.012.72-.004.313-.037.332-.076.424-.097.28-.128.293-.214.368-.213.252-.33.4-.77.732-1.07 1.084-.415.484-.19.288-.23.412-.257.524-.217.545-.173.656-.375 1.325-.285 1.328-.564 1.853-.19.592-.136.728-.399 1.805-.22.844-.057.188-.085.18-.064.136-.902 1.385-.504.576-.265.264-.254.184-.257.132-.222.12-.253.084-.383.08-.483.072-1.183-.012-.327.024-.326.056-.54.14-.346.088-.696.076-3.981.396M224.03 503.482l-.26.133-.291.18-.323.212-.386.305M219.286 505.167l.268-.044 1.085-.188.847-.127.447-.096.23-.077.152-.075.225-.1.23-.148M172.822 278.638l-1.298.507-2.685 1.072-.882.352-.483.16-.342.108-.379.112-.519.1-1.937.409-3.675.74-.234.076-.298.08-.261.104-.266.108-.793.344-1.345.612M141.293 291.694l.596-.373.74-.488 1.305-.78 1.55-.837.178-.093.146-.063.21-.063.132-.033.093-.018.123-.01.153-.004.664.065.628.032.399-.053.342-.116.298-.115.346-.145.548-.24.326-.164.27-.156.294-.212.213-.216.43-.52.943-1.077.08-.09.117-.11.137-.108.145-.104.183-.102.433-.197.418-.225.48-.272.386-.18.576-.276.531-.208.447-.145.354-.115.918-.36" clip-path="url(#p6e3353429f)" style="fill:none;stroke:#000"/><path d="m162.822 303.987-1.016-.392-.403-.257-.572-.416-.612-.448-.596-.52-.41-.416-.387-.409-.197-.32-.145-.296-.37-.792-.81-1.765-.233-.532-.616-1.185-.25-.564-.338-.58-.382-.536-.387-.584-.052-.113-.012-.123.02-.145.14-.16.118-.18.112-.328.153-.368.35-.652.097-.208.06-.196.037-.424v-.773l-.004-.272-.004-.236.032-.148.088-.224.166-.252.096-.164.045-.204v-.289l.06-.3.201-.436.298-.612.31-.6.077-.253.092-.336v-.508l-.036-.392-.04-.6-.077-.957M140.349 286.838v.12l-.01.142.004.152.069.348.146.698.196 1.045.072.802.069.66.04.216.072.189.117.272.17.212M172.822 278.638l.292.063.167.045.167.06.11.054.126.095.09.11.085.124.109.216.164.424M219.554 502.19l-.04.152-.031.23-.014.423-.024.678-.159 1.494M219.554 502.19l.096.089.129.096.374.168.459.128 1.506.344 1.911.467" clip-path="url(#p6e3353429f)" style="fill:none;stroke:#000"/><path d="m214.642 487.646.434 2.313.226.816.37 1.092.246.792.378 1.593.125.528.085.304.145.276.189.248.724.865.173.228.158.228.54.884.189.452.555 1.077.133.272.044.176.012.152-.032.204-.048.34-.02.356-.02.297.011.164.057.283.056.22.088.225.094.16M189.556 575.186l-.173-.96-.04-.6-.037-.277-.064-.135-.04-.137-.016-.18.024-.212.032-.188-.008-.184-.069-.144-.314-.384-.237-.408M200.72 575.65l.23-.128.243-.092.296-.048.213-.032.234-.02.285-.008 1.317.024.652-.028.43-.115 1.001-.206" clip-path="url(#p6e3353429f)" style="fill:none;stroke:#000"/><path d="m205.252 564.174.13.929.217 1.912.153 1.321.057.8.048.528.048.416.057.273-.008.2-.065.336-.21.644-.136.396-.105.376-.048.304-.02.3.036.28.215 1.808M204.279 562.086l.225.528.21.52.386.68.152.36" clip-path="url(#p6e3353429f)" style="fill:none;stroke:#000"/><path d="m216.528 564.686-1.077.053-1.433.128-.49.02-.17-.004-.11-.026-.358-.102-2.045-.625-1.078-.26-.733-.091-.68-.085-.355-.031-.322-.017-.298.056-.588.105-.708.192-.831.175M200.72 575.65l-.362-1.056-.113-.416-.12-.824.016-.568-.017-.585-.048-.336-.266-1.737-.008-.52.073-.504.12-.704.153-.928.04-.337.161-.536.162-.376.193-.192.258-.28.249-.24.27-.216.523-.376.395-.248.386-.196.496-.092.68-.032 1.022-.12.269-.057M196.39 578.673l.184-.102.49-.301.934-.7 1.104-.848 1.042-.748.576-.323M192.67 580.372l2.1-.953 1.216-.52.404-.226" clip-path="url(#p6e3353429f)" style="fill:none;stroke:#000"/><path d="m190.845 576.202.728-.024.475.048.669.08.402.065.363.096.434.168.33.147.44.26.301.273 1.403 1.358" clip-path="url(#p6e3353429f)" style="fill:none;stroke:#000"/><path d="m192.67 580.372-.416-.849-.431-.948-.524-1.432-.197-.428-.257-.513M189.556 575.186l.169.014.15.04.17.066.141.11.318.308.34.478M211.831 442.835l-.08.086-.058.06-.107.05-1.12.408-1.118.72-.669.404-.173.156-.113.16-.197.34-.149.344-.12.369-.105.555-.109.409-.17.36-.132.276-.378.532-.488.552-.684.64-.688.677-.967.86-.795.627-.207.14-.123.1-.251.26-.125.168-.058.13-.14.256-.05.086-.42.502-.48.566-.414.484-.115.116-.082.054-.214.137-.29.147-.283.096-.192.096-.167.086-.107.077-.106.097-.065.075-.139.172-.227.28-.094.162-.061.15-.06.21-.025.208.02.204.073.444.096.46.08.277.066.24.02.1-.003.043-.012.05-.021.089-.158.526-.064.408-.085.388-.072.2-.29.592-.33.773-.294.872M145.13 286.456l-.853-.004-.564.012-.284.043-.26.073-.422.18-.234.04-.298.015-.215-.007-.357-.035-.342-.033-.83.014-.037.01-.032.012-.029.024-.024.038M284.29 552.1l2.456 1.575.387.264.475.272.427.105.41-.088.475-.176 2.142-1.145 1.151-.64.95-.504 1.12-.593.708-.335.773-.385.338-.208.347-.24.443-.376.563-.512.572-.497.821-.703.645-.529.917-.768 1.03-.8.806-.696.87-.88.442-.48.25-.337.073-.28v-.248l-.073-.288-.12-.296-.137-.265-.154-.272-.25-.303-.313-.296-.387-.369-.756-.696-.677-.504-.483-.256-.338-.16-.395-.104-.362-.096-.266-.112-.281-.2-.33-.24-.347-.273-.757-.632-.62-.592-.346-.392M293.357 432.81l.82-.455.734-.329 1.167-.488.967-.44.91-.432.925-.504.741-.456.644-.617" clip-path="url(#p6e3353429f)" style="fill:none;stroke:#000"/><path d="m293.357 432.81-.024-.48.032-.431.12-.416.145-.48.13-.457.104-.424.097-.64.08-.72.12-.713.13-.456.12-.432.033-.392-.016-.44-.024-.497-.009-.328.08-.384.17-.152.25-.08.265.032.193.144.508.48.588.488.724.625 1.136.96.837.672 1.12.8M274.757 382.88l.402.017.491.152.54.248.596.128.78-.008.694-.056M283.2 382.124l-2.662.805-1.07.264-1.208.168M283.2 382.124l-.963-.612-.587-.312-.411-.096-.491.032-.757.104-.733.12-.483.16-.306.169-.33.28-.178.256-.137.207-.04.153.073.184.129.184.274.408M271.834 381.348l.274.264.29.248.273.149.504.207.555.192.395.113.193.072.157.084.14.08.142.124M328.736 369.436l-.144.736-.137 1.112-.089.817-.064.664-.032.6-.009.897-.024.624-.08.416-.226.456-.41.504-.475.464-.556.425-.7.552-.757.576-.628.432-.508.329-.531.32-.805.384M377.885 479.099l-2.23-1.857M363.867 489.07l2.166 1.857.218.248.16.296.097.256.105.513.072.584M423.241 433.355l-1.019-.852-.696-.604-.591-.549-.44-.388-.58-.52-.809-.712-.479-.46-.575-.58-.302-.425-.226-.32-.257-.336-.41-.452-3.959-4.366-.305-.316-.266-.276-.374-.256-.327-.108-.23.016-.22.132-2.065 1.82M384.77 390.346l-.201-.284M378.952 388.467l.382.08 1.192.376 1.176.4 1.014.368.7.192.637.128.516.051M427.953 430.268l1.77-1.843 1.095-1.024.959-.976.595-.793.363-.784" clip-path="url(#p6e3353429f)" style="fill:none;stroke:#000"/><path d="m427.953 430.268-.179-.17-.104-.192.008-.272.137-.336.314-.464.523-.52.572-.49 1.248-1.007.447-.372.407-.38.301-.332.302-.325.19-.212.173-.152.165-.12.278-.076M517.13 290.866l-.075-.58M512.992 291.342l1.701-.204 2.436-.272M517.055 290.287l-4.17.421M388.804 328.508l-1.281-.568M414.108 317.675l-2.027.765-6.876 2.697-13.474 5.206-1.314.618-.712.515-.547.56-.354.472M342.69 448.585l.073-.56.032-.673.064-.792.04-.857.033-1.096.064-1.288.057-.817.08-.68.242-.688.459-1.017.33-.728.394-.656.532-.776.757-1.12.588-.96.338-.585.523-.865.314-.528.378-.488.46-.464.78-.649.644-.575" clip-path="url(#p6e3353429f)" style="fill:none;stroke:#000"/><path d="m360.855 441.366-.442-.472-.54-.464-.74-.592-.58-.425-.693-.424-.878-.408-.523-.264-.49-.376-.428-.497-.322-.408-.531-.672-.5-.472-.474-.472-1.555-1.321-.805-.808-.717-.728-.765-.84M360.855 441.366l-.579.6-2.303 2.37-.451.471-.234.328-.184.352-.299.553-.603.824-.854 1.056-.45.432-.307.233-.298.111-.394.08-.491.033-.403.04-.386.104-.597.248-.708.384-.499.344-.306.24-.515.456-.443.216-.604.152-.853.12-.927.04-.797-.072-.523-.088-.644-.296-.395-.288-2.117-1.824M371.601 385.87l-1.92-.832M377.8 402.32l.681-.825.395-.488.334-.37M423.241 433.355l.588-1.456.234-.473.217-.376.25-.328M572.998 305.96l-.685-.325-.788-.368-.734-.36-.579-.336-.507-.32-.7-.464-.718-.457-.475-.312-.49-.264-.387-.248-.314-.392-.178-.345-.112-.48-.089-.832-.032-1-.016-.625.024-.536.065-.488.064-.6.04-.528-.08-.569-.065-.448-.088-.584-.153-.768-.193-.8-.186-.577-.177-.424-.258-.536-.257-.52-.258-.513-.314-.312-.386-.184-.419-.184-.467-.096h-.46l-.466.104-.7.264-.492.216-.282.192-.177.313-.112.4-.121.416-.161.416-.298.416-.419.488-1.965 1.945-1.409 1.257-.942.616-.99.44-.837.184-.854.032-.74-.072-.693-.152-.467-.176-.596-.272-.725-.416-.901-.569-.854-.44-1.554-.656-1.272-.496-1.618-.664-1.2-.44-1.32-.529-1.386-.648-1.135-.576-1.015-.593-.772-.512-.935-.664-.805-.68-.418-.28-.467-.16-.685-.12-1.24-.08-3.406-.025h-.716l-.492-.048-.273-.08-.25-.16-.282-.28-.274-.344-.386-.368-.274-.288-.37-.376-1.1-1.044M569.358 309.109l.024.504-.007.296-.008.308-.053.44" clip-path="url(#p6e3353429f)" style="fill:none;stroke:#000"/><path d="m569.358 309.109-.41.103-.242.084-.193.06-.193.093-.145.1-.117.14-.036.168.032.192.093.152.132.1.137.036.258.024.233.012.17.06.128.08.109.144M568.223 316.896l.338-1.209.218-.752.185-.592.17-.584.24-.769.154-.528.016-.384-.013-.264-.027-.273-.057-.308-.053-.28-.08-.296M572.998 305.96l-.419.683-.386.497-.612.616-.62.48-.692.505-.427.216-.484.152M597.66 312.206l-.957-.352-.701-.313-.733-.4-.475-.328-.467-.416-.266-.216-.434-.248-.628-.208-.814-.169-1.457-.24-1.49-.28-1.159-.288-1.007-.207-.974-.16-1.03-.153-.878-.168-.612-.16-.644-.264-.749-.36-.523-.232-.443-.104-.467.024-.435.104-.604.248-.66.408-.435.216-.46.008-.41-.064-.652-.2-1.82-.736-1.328-.593-.95-.395M446.785 306.202l-.717-.807-.378-.44-.113-.168-.024-.184.145-.224.322-.296 1.618-1.017 1.24-.72.99-.584.637-.385.451-.336.354-.32.692-.648M512.884 290.708l.108.634M415.343 316.704l-.113-.36-.12-.265-.243-.368-.265-.344-.677-.592-1.2-.992-.748-.553-.443-.28-.435-.24-.378-.208-.451-.328-.395-.392-.298-.272-.217-.265-.225-.384-.17-.264-.233-.248-.556-.4M415.765 317.05l-1.657.625M415.343 316.704l.12.055.302.29M414.108 317.675l.792-.74.177-.167.129-.072.137.008M446.97 542.32l-.862.832-2.27 2.089-.66.64-.443.56-.33.536-.218.616-.499 1.377-.587 1.272-.436.728-.354.433-.531.44-.427.24-.491.208-.515.2-.411.2-.628.488-.347.328-.257.304-.298.433-.137.344-.048.36v.4l.016.552-.008.416-.049.448-.112.36-.233.368-.444.48-.716.64-.516.45-.281.375-.21.592-.257.993-.21.752-.2.448-.242.24-.29.184-.475.168-.572.184-.443.208-.233.209-.105.231-.048.585v.448l-.017.472-.088.64-.185.48-.202.44-.652 1.097-.587.824-.274.4-.234.384-.193.336-.217.232-.467.177-.66.183-.66.209-.734.288-.539.24-1.2.528-.998.52-.54.36-.54.376-.643.529-.443.488-.274.376-.322.616-.306.568-.314.832M410.133 582.036l.733-.992.193-.272.177-.273.322-.383.395-.409.475-.504.636-.64.58-.472.515-.28.563-.216.5-.16.603-.216.58-.216.451-.168.668-.209.669-.2.483-.087.628-.065M329.818 365.267l.199-.913.25-1.064.378-1.393.25-.544.354-.448.41-.336.476-.249.764-.328.475-.152.58-.12.475-.136.395-.16.346-.16.347-.176.506-.352M329.818 365.267l-.099.455-.306 1.209-.403 1.52-.274.985M329.818 365.267l-.317-.009-.217.032-.169.072-.113.136-.016.265v.344l-.032.56-.056.408-.105.432-.137.432-.105.432-.016.337.049.32.152.408M311.437 365.25l-.221.424-.12.377-.114.407-.113.497-.12.6-.862 3.873-.756 3.53-.633 2.793" clip-path="url(#p6e3353429f)" style="fill:none;stroke:#000"/><path d="m313.229 366.675-.403-.392-.515-.368-.435-.272-.314-.249-.125-.144M308.285 361.51l2.126 1.651.29.329.249.488.201.488.121.336.101.292.064.156" clip-path="url(#p6e3353429f)" style="fill:none;stroke:#000"/><path d="m306.473 350.453.7.672.589.496.668.4.893.432.757.416.314.369.194.488.096.528.017.648-.057.64-.17 1.097-.104.688-.088.632-.113.512-.242.537-.499.816-.419.616-.539.793-.185.278M295.537 370.614l1.596-.634 2.512-.993 2.858-1.12 1.256-.52.637-.296.475-.368.338-.448.354-.592.322-.577.314-.496.37-.616.403-.625.379-.56.338-.432.45-.608.146-.218M458.452 536.598l.121-.28.193-.264.346-.344.467-.377.443-.304.193-.24.177-.344.17-.384.104-.408.089-.36.113-.256.169-.28.225-.28M451.56 535.774l.942-.033.636-.015.547.032.709.111.556.065.66.031.434-.024h.299l.37.08.572.169 1.167.408" clip-path="url(#p6e3353429f)" style="fill:none;stroke:#000"/><path d="m454.982 539.415.636.16.435.096.29.024.209-.04.266-.128.33-.28.427-.537.314-.464.185-.408.112-.392.113-.416.153-.432M453.388 538.815l.37.2.25.128.346.12.628.152" clip-path="url(#p6e3353429f)" style="fill:none;stroke:#000"/><path d="m453.589 539.679.338.064.338-.016.185-.032.226-.072.306-.208M451.6 536.318l1.047 1.048.354.336.213.197.12.14.057.16.009.307-.012.309M453.589 539.679l-.069-.392-.076-.248-.056-.224M446.97 542.32l.314.088.33.056.323-.008.523-.136 1.36-.456 1.104-.425.563-.144.459-.128.41-.16.54-.24.33-.264.193-.264.137-.304.033-.256M451.6 536.318l-.04-.544M446.97 542.32l.483-.456.435-.433.475-.416.5-.432.539-.36.475-.352.419-.4.378-.513.338-.536.25-.512.21-.608.072-.448.056-.536M383.978 400.269l4.197-4.736M383.497 396.982l-.08.44-.08.504-.065.36-.024.377.024.304.096.344.37.616.24.342M367.087 373.661l2.577 1.953.411.304.378.233.49.243M360.855 441.366l.508.492.43.432.395.437.403.508.414.58M482.362 465.528l-.47.823-.842.75-.377.95-.725.865-.754 1.326-1.102.864-1.189.289-.87.576-1.015.778-.667 1.413-.609 1.124-.696.72-.58.778-.377.78-1.073.69-.348 1.615-.58 1.268-.609 1.47-1.508 1.844-.957.894-1.131.807-.406 1.009-.551 1.498-.435 1.067-.551 1.297-.522.75-.986.95-1.13.722-.958.345-1.74.433-1.508.029-1.653.115-1.305-.288-2.204.374-1.276.634-1.16.922-.638.52-1.015 1.095-.899.864-.986.952-.82.555M482.362 465.528l.254-.445.638-.952.522-1.095.58-.98.145-.98-.174-1.095-.145-1.038.377-.893.319-.49.29-1.01.609-.662.464-.577.174-1.008.058-1.211.32-.548.405-.317M563.323 457.97l-.607.076-1.09.922-.891.311-1.033.886-.853.518-.35-.122-2.645-1.64-.483-.3-.89-.754-1.205-.48-.957.065-.872-.622-.815-.414-.511-.292-.588-.037-1.678.46-.18 1.611-.379 1.423-.019.433-.218.273-1.232.396-.132.537-.36.273-.73.179-1.327.707-.426.687-.57.076-.72.847-.511.236-.512.508-.54.217-2.805 2.072-.17.367-.314.293-.36.565-.133.452-.303.019-.578-.32h-.844l-.01.395-.492.396-.379-.01-.388.66-.72.207-1.3-1.036-.103-.01-1.868.236-1.743 1.206-.91.517-1.25 1.065-.446.17-.256.273-.891.414-.844.858-.312.122-1.763 1.045-.123.32-.754.894-2.554 2.987-.124.406-.739 1.167-.369.283-.588.235-.246.283-.787-.622-.313-.367-.113.245-.02-.151-.596-.48-.474.188-.218-.075-.284-.273-.332-.122-1.573 1.252-.711.471-.275.151-.104.31-.313.33-.559.33-.19.207-.758.396-.89.734-.93-.499-.938-.282-.217-.17-.493-.235-1.745-.311-.075-.546-.53-.368-.323-.621-.294-.584-.426-.236-.142-.622.15-.217.124-.508-.094-.377-.398-.122-.228-.612-1.488-.726-.218-.179-1.526.198-.056-.273.274-.217.465-1.318-.105-.029-.9.151-.17-.17-1.015-.358v-.772l-.151-.31-.417-.142-2.01-1.8-.985-.272-.199-.217-1.677-.857-.238-.34-.246-.743-.768-1.404-1.43-1.102-.579-.141-.815-.5-.521-.075-.54-.263-.607.122-.382-.16-.453-.022-1.132-.248" clip-path="url(#p6e3353429f)" style="fill:none;stroke:#000"/></g><g id="PatchCollection_1"><path d="m531.258 292.427-3.78 5.906-4.187 1.342-5.266 2.954-4.187-2.82-4.86 9.665-3.782-.94-5.401-3.087 6.482 7.785 5.941-1.074 3.376-2.684 2.97 4.295-4.59 11.14 3.646 1.88-2.566 6.441v3.759l2.836 4.429 2.295-4.43.54-4.16 2.701-2.684.27-5.772-2.7-5.906 1.62-1.744 3.241 2.147-1.215-4.966 4.05-6.98 4.862 1.611 4.591 4.295.54-9.127 9.588 2.953 5.267 1.342h4.861l6.077 1.611 4.861-2.685-5.244 1.146-3.581-1.708-.144-1.85 2.818-4.272-7.305 3.322-3.724.522-1.337 1.139-7.448-6.264-7.305-1.708-.382-4.698zM414.946 422.154l2.804-3.289-2.888-1.142-1.29-.474-1.346-.223-.953 1.533 1.318 1.365 1.514 1.17.42.67zM415.883 442.526l2.075 4.013-.505 1.059-1.963 1.895-1.457 2.842-.28 4.292-3.141-1.895 1.065-1.616-.953-1.394-1.065-.502-1.29-1.337.84-2.675 1.515-.892 1.794-1.895 1.907-.892zM293.028 552.572l-3.953 2.027.553 2.238-.426 1.183 2.21 1.521 3.443-2.028 1.105-2.322.127-1.563-1.402-1.014zM430.025 266.586l-2.59 2.794 1.924 1.471-.74 1.25-1.701 1.545h2.145l2.294-1.544 1.48-.074-.666-1.912-1.775-2.206.37-.736z" clip-path="url(#p6e3353429f)" style="fill:#00f;fill-opacity:.8"/></g><g id="PatchCollection_2"><path d="m402.392 416.487.907 1.14-1.665 1.306-.897-1.196zM400.32 418.105l.953 1.13-1.258.957-.97-1.13zM379.319 388.393l1.997-.897.837-.752.231.91.171.467 1.015 1.632zM382.721 348.64l.99.288-.86 2.73-1.007-.296z" clip-path="url(#p6e3353429f)" style="fill:green;fill-opacity:.8"/></g><g id="PatchCollection_3"><path d="m379.787 401.73.977 1.12-1.593 1.437-.999-1.12zM374.73 401.646l3.038 2.767-3.782 4.35-3.102-2.576zM395.822 403.553l.763 1.08-1.595 1.113-.763-1.08zM397.817 383.003l1.489 1.238-.708.922-1.501-1.25zM249.859 596.368l1.052-2.465 4.008 1.69-1.053 2.465zM209.606 571.535l.516-3.132 3.935.64-.516 3.131z" clip-path="url(#p6e3353429f)" style="fill:#90ee90;fill-opacity:.8"/></g><path id="PatchCollection_4" d="m178.531 273.393 2.04.634-.552 1.266-1.828-.76z" clip-path="url(#p6e3353429f)" style="fill:#a9a9a9;fill-opacity:.8"/></g></g><defs><clipPath id="p6e3353429f"><path d="M131.193 86.4h475.614v554.4H131.193z"/></clipPath></defs></svg>