<svg xmlns="http://www.w3.org/2000/svg" width="960" height="960" viewBox="0 0 720 720"><defs><style>*{stroke-linejoin:round;stroke-linecap:butt}</style></defs><g id="figure_1"><path id="patch_1" d="M0 720h720V0H0z" style="fill:#fff"/><g id="axes_1"><path id="patch_2" d="M99.406 640.8h539.188V86.4H99.406z" style="fill:#fff"/><g id="LineCollection_1"><path d="m446.685 155.124.7-4.519 5.41-39.007M407.74 347.097l5.522-13.64M407.74 347.097l-.364.544-.271.464-1.521 3.653" clip-path="url(#p6970debdb8)" style="fill:none;stroke:#000"/><path d="m406.058 351.715 1.396-3.146.21-.524.085-.411-.01-.537M341.202 396.708l-1.411-9.539M341.202 396.708l.347 1.958M339.01 411.004l-.138-.879-.024-.555.008-.517 2.346-12.345M394.857 350.737l10.727 1.021M394.857 350.737l-.22 2.743M400.446 335.643l-3.292 3.914-.807 1.095-.512 1.247-.481 2.814-.497 6.024M393.787 367.313l-.362-1.91M393.787 367.313l-2.4.136M393.787 367.313l1.553-.13M394.222 357.18l.207-1.83M394.222 357.18l-.457 4.798M394.222 357.18l1.984.128M391.386 367.449l2.04-2.046M391.386 367.449l-6.49 1.172M374.69 370.21l-.619-4.848M374.69 370.21l-.457.093M374.69 370.21l6.215-.97M366.018 371.607l.354 1.879M366.018 371.607l-.456.03M366.018 371.607l6.355-1.04M355.962 373.205l3.793-.528M355.962 373.205l-1.505.142-.556.064-.587.067-.41.048M352.457 374.368l1.449-.45 1.102-.35.954-.363M400.806 376.96l.312 2.661M400.806 376.96l-1.603-9.613M400.806 376.96l-4.079.545M400.806 376.96l5.27-.533M401.118 379.621l1.36 7.262M401.118 379.621l-4.205.38M402.57 387.494l.639 3.659M402.57 387.494l-.093-.61M402.57 387.494l-4.612.43M403.209 391.153l-4.924.462M403.209 391.153l.345 2.737M398.285 391.615l-.327-3.692M398.285 391.615l.312 2.505M388.886 380.59l.772.057M393.425 365.403l.34-3.425M413.262 333.457l.177-.429M413.262 333.457l-11.718 1.985M354.954 364.484l-2.445.46M354.954 364.484l2.386-.524M354.954 364.484l1.68 6.14M347.21 366.21l-3.099 1.15M347.21 366.21l2.705-.675M347.21 366.21l1.757 5.412M323.074 378.976l-2.463-3.59M323.074 378.976l2.45-1.515M323.074 378.976l-1.132.795M320.39 381.112l1.552-1.341M320.39 381.112l-4.984.845M320.39 381.112l1.508.263M319.33 391.298l-.492-7.737.101-.525.225-.521 1.227-1.403M374.071 365.362l-.634.023M374.071 365.362l-.598-4.578M363.204 366.776l1.18-.281M363.204 366.776l-.865-3.996M360.612 367.391l.318-.158 2.274-.457M364.384 366.495l-.486-4.035M364.384 366.495l.694 2.835M342.92 372.424l-2.588.986M342.92 372.424l3.04-.515M342.92 372.424l-.89-2.33M342.92 372.424l.844 2.391M331.48 377.093l-1.685-2.293M331.48 377.093l-5.225 1.484M331.48 377.093l2.474-.548M357.34 363.96l2.335-.563M357.34 363.96l1.907 6.328M359.247 370.288l1.337-.234M359.247 370.288l.508 2.389M356.635 370.624l2.413-.306.199-.03M359.755 372.677l.345 2.001M359.755 372.677l1.288-.304M366.372 373.486l-3.12.6M369.803 397.44l-.077-.56-2.503-18.005-.851-5.39M351.519 376.898l.487-.168M351.519 376.898l-5.95 2.052M351.519 376.898l.606 1.98M343.845 379.534l.883 2.133M343.845 379.534l-.765-1.936M343.845 379.534l-3.321 1.237M343.845 379.534l1.725-.584M338.73 381.396l.322 1.912M338.73 381.396l-.17-1.263M338.73 381.396l-1.94.425M338.73 381.396l1.794-.625M336.79 381.821l-.169-1.432M334.626 382.226l.614-.114 1.55-.291M363.649 375.659l-.396-1.574M354.46 380.203l-1.703.5M352.757 380.702l-5.565 2.082M352.757 380.702l-.632-1.825M345.484 383.44l1.708-.656M345.484 383.44l-.756-1.773M345.484 383.44l-3.8 1.379M345.484 383.44l.66 1.548M346.988 387.535l-.845-2.547M339.79 387.17l2.41-.846M339.79 387.17l-.12-.404M340.524 380.771l.652 2.277M348.298 374.062l-4.534.753M348.298 374.062l.535 1.5M348.298 374.062l3.432-.4M337.917 376.983l.297 1.03M337.917 376.983l-1.01-1.986M337.917 376.983l4.32-1.643M338.435 379.051l.125 1.082M338.435 379.051l-.22-1.039M338.435 379.051l4.645-1.453M348.833 375.563l2.363-.803M348.833 375.563l-3.98 1.45M326.751 358.95l-1.199-2.905M326.751 358.95l2.876 4.936M326.751 358.95l-1.731.787M326.751 358.95l3.321-2.066M338.85 362.787l-1.963-4.584M338.85 362.787l.748 1.634M338.85 362.787l-3.963 2.16M336.887 358.203l-1.866-4.376M336.887 358.203l-2.626 1.316M335.021 353.827l-2.773-6.19M335.021 353.827l-2.714 1.654M334.26 359.52l-1.83 1.206M334.26 359.52l-1.953-4.04M315.57 363.09l2.74-.92M315.57 363.09l4.516 6.582M315.57 363.09l-.683-1.012M317.727 371.078l-4.99-7.047 2.834-.94M317.727 371.078l2.359-1.406M319.001 372.935l-.766-1.117-.508-.74M329.643 370.043l-2.275 1.345M329.643 370.043l2.136 3.52M329.643 370.043l-1.053-1.578M325.403 372.596l1.965-1.208M325.403 372.596l-1.776-2.641M325.403 372.596l-2.368 1.393M325.403 372.596l2.371 3.475M321.28 371.477l-2.279 1.458M321.28 371.477l2.347-1.522M321.28 371.477l1.755 2.512M321.28 371.477l-1.194-1.805M319.001 372.935l1.61 2.45M338.56 380.133l-1.939.256M330.228 381.484l4.102-.742M330.228 381.484l-.442-1.954M325.087 381.906l1.592.042 3.55-.464M325.087 381.906l-.707-.072M326.255 378.577l-.998 1.583-.17 1.746M338.214 378.012l-2.11.302M329.786 379.53l6.317-1.216M326.255 378.577l.687 1.03.217.193.225.065.342-.012 2.06-.323M343.294 406.707l-1.093-.126M425.67 291.886l10.162-2.567M396.052 299.37l3.71-.943 3.586-.958 3.804-1.065 3.074-.821 8.025-1.887 7.42-1.81M443.625 174.863l-11.279 72.758-3.663 24.278-2.436 15.874-.576 4.113M413.439 333.028l1.87-4.47 4.805-12.106 1.117-3.712 1.553-5.612 1.335-6.359.807-4.442.745-4.44M401.428 362.366l-.637 1.456M401.428 362.366l-5.28-.404M401.428 362.366l.466-1.3M394.43 355.35l.208-1.87M394.43 355.35l9.51.565M403.94 355.915l-.702 1.778M403.94 355.915l.666-1.875M401.894 361.067l.445.089M401.894 361.067l1.344-3.374M405.219 353.604l.839-1.89M405.219 353.604l-.397-.13M402.34 361.156l1.458-3.727 1.42-3.825M393.765 361.978l2.383-.016M399.203 367.347l.397-.38.512-.776.411-.844.544-1.095 1.272-3.096M405.584 351.758l-.762 1.717M394.638 353.48l9.968.56M404.822 353.475l-.216.565M403.238 357.693l-7.032-.385M397.958 387.923l-1.045-7.922M396.913 380l-.186-2.495M396.913 380l-2.647.32M396.727 377.505l-.712-6.11M396.727 377.505l-2.752.283M362.837 356.017l2.25-.385M362.837 356.017l-4.388.805M363.803 349.075l-1.43.232-.348.205-.28.282-.14.433.04.578.893 3.595.3 1.617M363.898 362.46l-.763-4.175-.214-1.564-.084-.704M363.253 374.085l-3.153.593M363.898 362.46l-1.559.32M363.898 362.46l6.875-1.38M371.541 365.554l-.768-4.474M371.541 365.554l.832 5.013M371.541 365.554l1.896-.169M364.573 398.323l-1.43-7.37-.606-3.346-1.443-7.483-.994-5.446M352.006 376.73l1.69-.546 2.26-.624 4.144-.882M361.043 372.373l4.519-.736M360.584 370.054l.122.617.337 1.702M359.675 363.397l2.664-.617M359.675 363.397l.937 3.994M359.675 363.397l-1.226-6.575M360.584 370.054l-.339-1.967.041-.376.326-.32M372.373 370.567l1.86-.264M372.373 370.567l.674 5.267M370.773 361.08l2.068-.226M368.2 348.44l.246 1.477.35 1.768.41 2.04.328 1.586.207.9.232 1.003.8 3.866M365.078 369.33l.484 2.307M365.078 369.33l-4.494.724M342.2 386.324l3.943-1.336M342.2 386.324l-.516-1.505M340.105 406.272l2.096.31M340.105 406.272l-1.095 4.732M340.105 406.272l1.444-7.606M346.143 384.988l2.24-.759M344.728 381.667l-3.552 1.381M343.08 377.598l-.842-2.258M343.08 377.598l.5-.115 1.273-.47M343.764 374.815l-.545.123-.981.402M352.51 364.944l-2.595.59M352.51 364.944l1.447 6.015M352.51 364.944l-2.159-8.367M348.967 371.622l-3.007.287M348.967 371.622l2.48-.338M345.96 371.909l-1.849-4.55M344.111 367.36l-2.705 1.157M344.111 367.36l-1.657-4.265M349.915 365.535l1.532 5.749M349.915 365.535l-2.118-8.425M353.957 370.959l-1.24.193M353.957 370.959l2.678-.335M351.447 371.284l1.27-.132M351.447 371.284l.283 2.378M327.368 371.388l2.427 3.412M327.368 371.388l-2.98-4.502M320.61 375.386l-1.955 1.097M320.61 375.386l2.425-1.397M333.002 372.801l2.09 3.188M333.002 372.801l-1.223.762M333.002 372.801l-2.127-3.188M333.002 372.801l2.028-1.021M320.607 361.385l-2.296.785M320.607 361.385l2.58-.886M320.607 361.385l3.78 5.501M336.908 374.997l2.008-.985M336.908 374.997l-1.878-3.217M336.908 374.997l-1.817.992M341.406 368.517l-1.148-2.678M341.406 368.517l.623 1.577M341.406 368.517l-2.672 1.396M332.307 355.48l-2.235 1.404M333.954 376.545l-2.175-2.982M333.954 376.545l1.137-.556M332.43 360.726l2.457 4.22M332.43 360.726l-2.358-3.842M331.426 361.538l.52-.4.483-.412M326.646 365.559l-2.258 1.327M326.646 365.559l1.01-.56M326.646 365.559l1.944 2.906M326.646 365.559l-3.46-5.06M324.388 366.886l-1.938 1.324M320.086 369.672l2.364-1.462M323.186 360.499l1.834-.762M322.45 368.21l-3.208-4.633-.931-1.407M329.627 363.886l1.878 2.581M329.627 363.886 327.656 365M323.627 369.955l-1.177-1.745M323.035 373.989l2.49 3.472M339.052 383.308l.32 2.127M336.92 383.82l1.066-.255 1.066-.257M334.887 364.947l-3.149 1.928M321.898 381.375l.044-1.604M321.898 381.375l2.482.46M321.898 381.375l-.135 9.553M327.774 376.071l2.021-1.271M327.774 376.071l-2.25 1.39M339.373 385.435l.296 1.331M339.373 385.435l2.31-.616M326.255 378.577l-.73-1.116M335.03 371.78l-3.292-4.905M335.03 371.78l2.036-1.042M336.621 380.39l-2.29.352M336.621 380.39l-.518-2.076M334.626 382.226l-.296-1.484M336.92 383.82l-1.277.212-.264-.022-.21-.115-.24-.304-.303-1.365M335.091 375.99l.395.65.32.655.297 1.02M331.738 366.875l-.233-.408M329.795 374.8l1.984-1.237M400.446 335.643l1.098-.201M400.446 335.643l-11.454 1.81M151.495 154.28l.372.807.257.745.636 2.183.823 2.875.791 3.141.715 2.503.644 2.35.504 1.65.505 1.598.66 1.819M197.925 199.076l-.149-.111-.366-.202-.412-.18-1.164-.491-.927-.346-1.223-.45-1.193-.396-.313-.132-.184-.112-.212-.139-2.55-1.62-1.7-1.194-1.226-.837-1.691-1.186-2.042-1.37-1.867-1.258-2.371-1.678-1.917-1.3-2.111-1.513-1.51-1.031-1.214-.772-2.492-1.704-1.925-1.3-.966-.64-.951-.6-1.855-1.225-1.347-.852-.967-.525-2.087-1.126-1.591-.835M170.915 225.67l-2.142-8.229-2.22-8.062-1.816-7.104-2.003-7.85-2.08-7.849-2.22-8.077-1.032-4.548M132.284 145.906l2.78 1.97 3.112 2.168 2.422 1.635 1.063.715.87.426.93.213.994.046.87-.053 1.319-.16 1.94-.137.909.084.69.197.563.305.338.304.411.661M232.474 140.962l-3.587.623-9.818 1.758-3.64.548-1.894.258-5.046.708-3.143.395-1.685.244-1.218.144-1.816.266-1.184.152-1.362.175-1.498.16-1.149.182-4.812.738-3.974.578-1.878.248-1.855.3-1.421.236-4.494.798-2.623.518-19.73 3.658-3.152.631M339.67 386.766l-1.838.506-.202-.05-.113-.12-.1-.22-.197-1.213-.3-1.848M341.684 384.819l-.508-1.771M354.38 378.083l-2.255.794M352.125 378.877l-5.784 1.86M346.341 380.737l.851 2.047M346.341 380.737l-.771-1.787M344.853 377.014l.717 1.936M351.196 374.76l.81 1.97M351.196 374.76l1.261-.392M340.332 373.41l-1.416.602M340.332 373.41l-1.024-2.231M338.734 369.913l.574 1.266M338.734 369.913l-1.668.825M337.066 370.738l.824 1.444 1.026 1.83M329.678 367.79l-2.022-2.79M329.678 367.79l1.827-1.323M329.678 367.79l-1.088.675M327.656 365l-1.004-1.755M325.02 359.737l-1.055-3.012M321.197 349.394l1.76-.354M321.197 349.394l-17.175 3.024M323.965 356.725l-.785-2.337-1.983-4.994M322.957 349.04l4.877-.706M322.957 349.04l2.595 7.005M322.957 349.04l-1.268-4.085M336.121 346.94l9.537-1.664M336.121 346.94l-3.873.696M342.269 362.6l-.875-2.463-1.46-3.681-1.396-3.316-2.417-6.2M332.248 347.636l-4.414.698M396.015 371.396l-.675-4.213M396.015 371.396l-2.638.317M388.508 372.214l2.515-.205M388.508 372.214l.84 5.948M384.896 368.621l.585 3.32.077.334.117.13.287.075 2.546-.266M389.349 378.162l2.304-.149M389.349 378.162l.309 2.485M389.658 380.647l4.608-.327M389.658 380.647l.294 2.097M394.266 380.32l-.29-2.532M396.052 394.3l-.93-7.955-.856-6.025M393.975 377.788l-2.322.225M393.975 377.788l-.598-6.075M393.377 371.713l-2.354.296M391.023 372.01l.63 6.003M406.832 376.354l-.756.073M399.203 367.347l-.295-.811" clip-path="url(#p6970debdb8)" style="fill:none;stroke:#000"/><path d="m396.176 367.152.361.256.625.151.838.031.687-.08.516-.163M396.176 367.152l-.836.031M398.908 366.536l-.17.096-.815.236-1.747.284M368.2 348.44l-2.27.318M368.2 348.44l-.132-.666M396.206 357.308l-.058 4.654M396.148 361.962l-.124 1.963M395.915 364.935l.109-1.01M400.791 363.822l-4.767.103M400.791 363.822l-.609 1.43-.295.452-.49.555-.49.277M247.337 628.36l-.015-.51M247.337 628.36l-2.088.547M247.912 625.888l-.59 1.962M244.624 626.877l1.16-.37 2.128-.619M255.635 600.335l-.016.448-.004 1.434.02.95-.05.43-.114.44-.426 1.343-4.689 13.58-1.381 3.476-.629 1.912-.434 1.54M240.076 628.284l-2.627.684-1.94.547M240.076 628.284l.423 1.854M244.624 626.877l-1.257.414-2.17.719-1.121.274M240.499 630.138l4.75-1.231M244.624 626.877l.625 2.03M519.674 471.839l-1.67-.608-2.483-1.156-5.324-2.449-1.801-.867-2.142-1.034-1.32-.38-1.738-.153-3.446.046-2.05-.228-1.102-.38-.776-.67-.559-1.08-1.35-4.015-1.29-3.255-.65-1.262M448.304 457.755l1.661-.076 4.3-.502 8.352-1.05 7.855-.943 8.072-.973 8.678-.958 1.832-.152 1.195.09.978.457.745.7" clip-path="url(#p6970debdb8)" style="fill:none;stroke:#000"/><path d="m464.558 379.13 2.903 7.853 5.184 13.963 12.45 34.314 4.409 12.38 2.468 6.708M373.473 360.784l-.632.07M373.473 360.784l-.641-4.902M366.497 341.61l-1.97.316M366.497 341.61l.806 3.065M369.096 341.127l-1.65.281-.95.202M369.096 341.127l2.188-.399M369.096 341.127l.783 2.83M283.016 505.242l29.853-7.947M283.016 505.242l-14.277 3.825M273.502 576.172l.508-.467.28-.38.186-.381.12-.388.07-.54.035-.737-.011-.688-.062-.707-.18-1.012-1.645-6.486-1.517-5.616-1.486-6.11-.016-1.095.186-.734.462-.734 1.316-1.285 2.81-2.54 4.881-4.06 5.504-4.655.714-.957.885-2.304.473-.845 1.669-1.635.48-.623.195-.654-.046-.951-.536-2.517-2.685-10.19-3.076-11.639M354.589 486.197l-10.184 2.687M337.069 431.51l2.664 7.096 2.5 6.556.635 1.764.699 2.235 1.475 5.187.481 1.84.357 1.035.38.646.45.578 1.747 1.506.45.494.264.48.155.767v.837l-.132 1.94-.108 1.513.07 1.102.17 1.11.42 1.293.73 2.1 1.288 4.014.892 3.141 1.933 7.453M382.935 479.003l-3.772.867-3.322.851-2.22.745-1.925.624-1.537.38-1.94.41-1.94.457-1.817.38-1.428.244-1.677.38-2.5.67-4.268 1.186M360.496 498.584l-2.88-6.03-1.583-3.042-1.444-3.315M393.554 401.66l-.177 2.34M393.554 401.66l8.706.26M393.554 401.66l-3.24-.172M393.554 401.66l.069-2.1M393.377 404l-.13 2.146M393.377 404l9.273.3M393.377 404l-3.16-.226M319.33 391.298l2.433-.37M319.33 391.298l-3.196.433M316.495 398.16l2.068-.328.633-.14.267-.172.16-.266.089-.369-.383-5.587M369.803 397.44l.408 2.758M369.803 397.44l-5.23.883M370.211 400.198l-4.585.779-.442-.137-.287-.388-.324-2.129M370.211 400.198l1.392 8.733M342.454 363.095l-.185-.496M342.454 363.095l-2.856 1.326M339.598 364.421l.66 1.418M340.258 365.839l-.293.233-.12.038-.149.018-.076-.047-.33-.94-.061-.289.07-.25.299-.18M345.216 361.602l-2.947.997M345.216 361.602l.789 2.809M345.216 361.602l-1.152-4.143M307.085 383.492l8.32-1.535M307.085 383.492l-21.552 3.86M308.19 391.189l-.459-3.347-.646-4.35M316.134 391.731l-.3-1.98.016-1.255.04-2-.117-1.764-.367-2.775M316.134 391.731l-3.433.571M326.733 396.604l-3.045.369M323.688 396.973l-1.874.201M321.987 400.116l1.551-.136.204-.09.093-.153.021-.19-.168-2.574M323.546 390.655l-.05 1.325.104 1.977.088 3.016M321.814 397.174l.173 2.942M321.763 390.928l.006 3.056.045 3.19M321.763 390.928l1.783-.273M316.495 398.16l.054.88.03.69.12.961.1.187.245.096.363.025 4.58-.883M316.495 398.16l-1.893.254" clip-path="url(#p6970debdb8)" style="fill:none;stroke:#000"/><path d="m324.38 381.834-.636 5.24-.198 3.581M336.99 405.573l.81-4.623M334.3 405.448l.264-.091 2.426.216M335.875 413.052l.298-2.004.817-5.475M333.087 414.475l2.64-.43M333.087 414.475l-.245 2.095M333.087 414.475l-2.398.547M334.3 405.448l-.163.168-.155.387-.895 8.472M331.195 410.59l-.506 4.432M330.69 415.022l-.03.725M330.69 415.022l-4.36.995M322.813 416.779l-.229-1.81-.214-2.144M322.813 416.779l3.517-.762M322.813 416.779l-1.863.371M339.01 411.004l-.585 2.041M342.201 406.581l.14-.73.062-.699v-.776l-.085-1.376-.047-.364-.116-.906-.248-1.339-.358-1.725M335.727 414.045l.148-.993M335.727 414.045l1.32-.215M404.893 403.339l.567 2.587M404.893 403.339l-.587-3.695M404.893 403.339l-1.463 3.255M403.43 406.594l2.107-.111M403.43 406.594l-.237.01M402.013 409.053l-8.938-.182M393.075 408.871l-.096 1.658.093.555.163.25.349.183 2.32.068 1.84.07 1.514.143.597-.015.668-.121.435-.373 1.055-2.236M402.013 409.053l1.18-2.449M393.075 408.871l.173-2.725M403.193 406.604l-4.874-.137-5.071-.32M390.073 405.932l1.074.018 2.1.196M393.623 399.56l2.491-.059M393.623 399.56l-3.218-.249M402.26 401.92l.39 2.38M402.26 401.92l-.308-2.277M390.313 401.488l-.097 2.286M390.313 401.488l.092-2.177M401.952 399.643l2.354.001M401.952 399.643l-5.838-.142M402.65 404.3l.543 2.304M390.216 403.774l-.143 2.158M403.554 393.89l.412 2.967M403.554 393.89l-4.957.23M398.597 394.12l.311 3.297M398.597 394.12l-2.545.18M406.034 396.581l-2.068.276M406.034 396.581l-1.615-10.084M405.46 405.926l1.373-.105.388-.152.156-.206.062-.311-1.405-8.57M403.966 396.857l.34 2.787M390.405 399.311l.15-3.514M384.896 368.621l-3.99.62M370.805 347.21l-2.737.564M370.805 347.21l-.926-3.254M370.805 347.21l.742 2.71M372.953 344.508l.598 1.56.043.376-.047.224-.163.16-.4.137-2.18.245M372.43 343.308l.523 1.2M372.43 343.308l-1.146-2.58M372.43 343.308l7.555-1.18M372.43 343.308l-2.55.648M371.284 340.728l8.256-1.572M379.985 342.127l-.445-2.97M379.985 342.127l.202 1.171M369.88 343.956l-2.577.72M356.093 343.423l8.433-1.497M356.093 343.423l-10.435 1.853M356.093 343.423l2.356 13.399M367.924 148.44l-5.627-28.185M386.251 155.251l-1.997-2.005-14.964-3.347-1.366-1.46" clip-path="url(#p6970debdb8)" style="fill:none;stroke:#000"/><path d="m356.057 146.666 3.01.517 1.802.608 4.502 1.248h1.055l1.498-.6M402.075 333.214l-13.348 2.369M396.052 299.37l1.242 5.689.621 3.681.528 3.316 3.555 20.489.077.669M401.544 335.442l.423-1.148.108-1.08M462.136 372.579l2.422 6.55M404.42 386.497l2.483-.518 4.642-1.201 7.87-1.978 7.327-1.78 5.93-1.383 9.206-2.054 20.258-5.004M445.61 327.198l7.895 21.592 2.39 6.51 2.034 5.597 2.39 6.48 1.817 5.202M404.42 386.497l-.696.138-1.247.248M405.46 405.926l.077.557M390.073 405.932l-1.317.185-.807.29-1.164.44-1.366.29-2.251.258-11.565 1.536M338.425 413.045l16.862-2.09 16.316-2.024M283.942 387.637l1.59-.284M233.808 407.604l2.476-1.912 4.688-2.936 8.647-4.898 6.198-4.06 1.436-.924.768-.339 1.04-.247 3.722-.62 6.842-1.06 7.595-1.465 2.717-.684 4.005-.822M260.16 353.22l1.373 1.882 1.153 1.711.454.837.582 1.772.307 1.745.252 1.997.233.909.28.55.255.705.71 2.167 1.262 3.897.24 1.172.396 1.087.412.814.388.434.558.44.777.503.652.608.846 1.316.617.977.388.437.489.4.489.334.431.468.597.585.536.392.369.19.407.046.57-.061.723-.182 1.012-.092 1.3-.06.3.032.287.139.228.289.548.825.182.547.039.84.043.696.143.324.221.255.83.525.754.486.353.323.392.453.404.703M309.369 399.166l-.32-1.838M309.369 399.166l5.233-.752M309.369 399.166l1.414 9.482M338.236 413.638l-1.152 4.411M338.236 413.638l.189-.593M338.236 413.638l-1.188.192M312.334 419.046l-1.55-10.398M312.334 419.046l8.616-1.896M294.334 422.309l2.71-.228 2.716-.29 2.903-.47 4.513-1.043 5.158-1.232M312.936 422.059l-.377-.723-.245-1.044.02-1.246M405.537 406.483l.45 3.467M321.689 344.955l4.349-1.192.287-.008.17.05.16.152 1.18 4.377M321.689 344.955l-1.764-6.44M379.54 339.156l9.452-1.703M388.727 335.583l-8.695 1.396-.388.251-.186.16-.055.311.137 1.455M380.87 372.26l.035-3.02M388.727 335.583l.265 1.87M363.803 349.075l2.126-.317M363.803 349.075l1.285 6.557M365.93 348.758l1.41 5.797-.045.41-.256.282-.411.182-1.54.203M365.93 348.758l-1.404-6.832M367.303 344.675l.765 3.099M380.436 344.805l-.249-1.507M380.187 343.298l-7.234 1.21M374.654 355.644l-1.822.238M372.832 355.882l-.754-4.654M372.832 355.882l-.677.088M373.493 351.046l-1.415.182M372.078 351.228l-.616.08M372.078 351.228l-.53-1.308M371.547 349.92l-.085 1.388M371.462 351.308l-1.447.187M371.462 351.308l.693 4.662M374.233 370.303l-.796-4.918M373.437 365.385l-.596-4.53M372.155 355.97l-.93.12M372.155 355.97l.686 4.884M406.076 376.427l.351 1.997M396.052 394.3l.249 1.444.062.76-.062.807-.187 2.19M332.324 420.685l.518-4.115M330.177 419.83l.483-4.083M330.66 415.747l2.182.823M337.084 418.049l-4.242-1.48M335.37 426.089l.342-2.039 1.372-6.001M323.496 411.396l1.931-.217.37.09.533 4.748M337.069 431.51l-.781-2.158-.762-2.184-.155-1.08M320.297 426.362l.994 1.437.846.723 1.08.662 1.02.543.531.145 1.138-.004.733.08.61.137 1.024.266.799.083.97-.125.765-.289 2.15-1.194 1.017-.661.613-.776.784-1.3M317.717 413.889l2.835-.56.398 3.821M314.602 398.414l-.234-1.955M308.81 395.523l-.62-4.334M309.05 397.328l-.076-.568-.165-1.237M314.368 396.459l-.171-1.622-.11-.18-.209-.067-5.069.933M309.05 397.328l5.318-.869M386.251 155.251l.487.49.87 4.38-14.158 13.144-.435 1.887 11.177 62.612 2.934 14.892 3.09 16.748 3.477 18.527 1.335 7.18 1.024 4.259M308.19 391.189l-1.031 2.181-.297.815-.458 2.084-.38.875-.544.753-.318.646-.202.753-.116 1.156-.186.707-.851 2.063-.438.903-.784 1.08-.962.79-1.134.7-1.427.358-2.057.35M435.832 289.32l.597 2.612.73 2.981.869 3.286 1.723 6.57 1.537 6.161 1.568 5.78.714 2.845 2.04 7.643" clip-path="url(#p6970debdb8)" style="fill:none;stroke:#000"/><path d="m413.439 333.028 8.29-1.441 9.593-1.689 2.763-.486 1.583-.22.56-.017.542-.083.676-.198.675-.205 2.205-.495 4.509-.859.776-.137M325.552 356.045l-1.587.68M181.863 267.217l-.998-2.742-1.117-4.609-1.987-8.001-.761-2.647-1.21-4.867-1.848-7.12-1.599-6.221-1.428-5.34M123.755 143.122l-1.056-.19-1.024-.084-.63-.015-.612.084-.808.167-.862.266-.869.365-.83.259-1.09.29-1.192.227-1.312.206-1.063.144-1.622.175-1.01.038M111.84 153.208l.253-.457.15-.243.129-.163.167-.156.496-.3.68-.305.613-.225 1.502-.543.298-.118.076-.06.043-.086.016-.076-.004-.115-.074-.11-.117-.093-.882-.7-1.615-1.263-2.375-1.886-1.42-1.255M132.284 145.906l-.799-.586-.784-.562-.675-.335-.543-.205-.645-.153-2.088-.387-2.995-.556" clip-path="url(#p6970debdb8)" style="fill:none;stroke:#000"/><path d="m127.449 116.82-.187.768-.13.346-.219.43-.27.479-.257.372-.644.905-.614.906-.128.281-.07.175-.02.16-.007.118.053.253.048.346-.017.23-.068.29-.055.261-.023.38.016.803.03.746.012.308.031.407.047.414.039.32.02.342-.005.32-.054.353-.205.932-.21 1.201-.093.347-.12.243-.137.232-.116.148-.179.206-.302.205-.373.187-.283.098-.726.229-.718.27-.229.175-.132.151-.132.506-.085.533v.342l.21 2.457.232.959 1.429 3.513.947 2.655M142.212 132.481l-.602.247-1.11.45-.26.136-.256.164-.275.28-.361.457-.198.21-.233.186-.33.167-1.809.73-1.439.586-.202.122-.143.102-.167.133-.45.499-.42.654-.201.22-.264.236-.357.255-.136.125-.066.092-.074.163-.011.149.197.954.315 1.012.062.27.042.228v.255l-.054.312-.221 1.072-.144.867-.081.43-.105.361-.14.411-.435.89M244.077 252.945l-.59-.038-.473-.19-.652-.517-1.304-1.483-1.475-1.46-1.467-1.354-.73-.632-.31-.243-.176-.088-.233-.062-.342-.023-2.497.37-.753.08h-.54l-.492-.041-.45-.077-.858-.17-1.603-.405-.212-.08-.265-.166-.264-.198-.435-.327-.446-.3-.466-.255-.559-.274-.593-.258-2.155-.98-.302-.167-.293-.171-.243-.192-.714-.833-.706-.817-.26-.327-.287-.438-.268-.43-.264-.258-.237-.149-.256-.083-.35-.023-.582.015-.83.076-.609.092-1.028.243-1.106.205-.6.11-.144.007-.138-.01-.147-.1-.249-.242-.31-.366-.427-.456-.699-.585-.876-.708-1.017-.677M197.925 199.076l.156.118.54.521.772.814.368.37.644.668.637.54 3 2.222 3.54 2.464.846.631.83.578 1.98 1.293 3.08 2.054 2.562 1.673 2.134 1.529.71.559.342.338.245.32 2.049 2.769 2.592 3.924 2.81 4.031 2.654 3.788 2.236 2.989 1.692 2.183.807.928 2.003 2.373.877 1.095.512.73.396.715.854 1.506.962 1.886.73 1.704.434 1.4.621 2.16.769 1.878.388.616.38.502M254.5 271.076l-1.695-5.144-1.82-6.887-.543-1.75-.435-.783-.721-.738-1.374-.798-2.616-1.27-.652-.37-.567-.391M243.4 139.085l-.503.082-3.391.525-1.444.25-4.098.761-1.49.26M276.289 133.211l-.932-1.08-2.608-2.997-.621-.753-.357-.334-.442-.19-.45-.168-.52-.357-.264-.381-.101-.41-.264-.64-.621-1.498-.97-2.297-.746-1.536-.17-.305-.202-.266-.14-.243-.194-.48-.124-.494-.155-.464-.21-.449-.411-.745-.124-.456.007-.26.063-.387.232-.457.334-.692.109-.365.03-.472-.007-.836-.078-.761-.31-2.274-.28-1.004-.341-.799-.473-.897-.692-1.278-.457-.852-.544-1.103-.271-.403-.257-.266-.279-.168-.59-.22-.41-.213-.265-.221-.45-.631-.83-1.179-.45-1.042-.358-.906-.512-1.019-.24-.35-.206-.213-.164-.133-.263-.13-.33-.075-.396.042-.342.083-.318.11-.205.141-.14.172-.093.216-.02.388.062 1.818.086 1.263-.031.449-.101.509-.031.556.03.768.304 1.612.349 2.662.21.944.224.6.272.495.38.51 1.18 1.278.52.638.42.67.256.647.186.851.124.906.077 1.179-.038 1.232-.187.654-.396 1.248-.185.63-.148.548-.086.457-.108.319-.217.464-.606 1.445-1.265 3.134-.512 1.453-.117.225-.194.3-.174.152-.276.198-.5.281-.641.362-.264.174-.205.213-.287.358-.307.384-.287.183-.253.053-.29.022h-.435l-.392-.041-.323.011-.271.091-.357.213-.272.305-.916 1.05-.73.714-.9.83-.776.562-.388.388-.202.32-.369.707-.33.593-.391.521-.5.464-.761.605-1.128.694" clip-path="url(#p6970debdb8)" style="fill:none;stroke:#000"/><path d="m276.289 133.211-1.56.297-1.498.32-1.351.296-1.545.304-2.111.396-2.561.471-1.134.183-1.07.137-1.282.175-5.215.92-2.67.422-.928.175-.706.145-.56.129-.837.209-1.079.213-.905.198-3.43.487-2.447.397M325.087 114.933l-2.17-.008-.702-.019-.373-.034-.361-.076-.151-.059-.103-.053-.167-.112-.076-.097-.202-.592-.116-.277-.095-.118-.124-.082-.507-.184M325.087 114.933l-.21-.182-.155-.236-.117-.396-.147-.624M331.668 124.144l-.341-1.133-.144-.555-.066-.32-.108-.464-.144-.334-.151-.244-.198-.289-.31-.354-1.137-1.167-.734-.704-.504-.525-.447-.528-.9-1.149-.699-.852-.217-.24-.24-.187-.241-.166M286.767 131.306l3.322-.65 6.504-1.203 6.163-1.019 1.738-.289 2.003-.25 1.475-.175 2.507-.419 1.39-.235 1.377-.213 1.44-.198 3.167-.487 4.3-.677 1.886-.274 1.451-.205 1.242-.19 1.475-.198 2.655-.358.806-.122M362.297 120.255l-.497.365-19.769 2.556-10.363.968M286.767 131.306l-3.198.559-7.28 1.346M282.987 182.195l-.214-.183-.112-.179-.05-.136.019-.274.09-.513.131-.316.315-.403.399-.434.245-.33.396-.833.28-.666.418-1.202.497-1.338.232-.423.21-.376.124-.32.055-.239-.016-.179-.07-.44-.543-2.215-.136-.418-.124-.32-.132-.337-.128-.442-.093-.696-.04-.24.007-.262.043-.2.126-.305.562-.925.703-.882.411-.552.322-.368.342-.335.427-.358 1.257-1.209.466-.555.52-.647 1.226-1.255 1.005-.947 1.13-.954.24-.19.124-.206.084-.283.048-.265.05-.726-.007-.582-.043-.486-.193-1.088-.544-2.305-.737-2.358-.35-1.278-.543-2.076-1.017-3.24-.784-2.222-1.063-3.065-.826-2.807-.62-2.57-.155-.641-.07-.36-.039-.3-.075-.635M339.05 317.015l-.372-1.476-2.127-8.73-1.382-6.496-1.242-5.263-.885-3.772-1.164-5.476-1.009-4.381-1.288-5.963-1.522-6.084-1.49-6.663-.634-3.021-.67-2.683-1.149-5.036-.543-2.525-.574-2.251-1.46-5.095-.83-3.218-.35-1.392-.492-1.76-.16-.602-.088-.486-.066-.666-.063-.745-.046-.495-.074-.376-.174-.422-.901-2.008-.186-.392-.124-.498-.055-.548-.03-.843-.195-1.278M345.658 345.276l-1.314-5.095-1.506-5.887-1.289-5.78-1.444-6.616-1.055-4.883" clip-path="url(#p6970debdb8)" style="fill:none;stroke:#000"/><path d="m315.858 322.369 4.828-1.149 5.72-1.482 6.745-1.484 5.899-1.24M293.706 205.66l-.621-1.796-.334-.942-.132-.807-.062-.51-.008-.996-.07-.471-.139-.442-.124-.209-.024-.247.07-.312.066-.384-.023-.365-.136-.517-.155-.685-.136-.555-.26-1-.283-1.248-.152-.707-.558-2.228-.35-1.21-.52-1.924-.83-2.708-.264-.623-.163-.332-.117-.106-.159-.087-.33-.061-.605-.107-.423-.102-.21-.084-.52-.27-1.548-.73-1.6-.7" clip-path="url(#p6970debdb8)" style="fill:none;stroke:#000"/><path d="m197.925 199.076.73-1.502.676-1.384.605-1.012.924-1.437 1.498-2.046 1.637-1.91.769-.707.815-.714.772-.54.555-.396.551-.51.56-.67 1.187-1.353 1.482-1.76.62-.796.447-.665.342-.479.186-.263.363-.298.464-.25.9-.304 1.77-.357.52-.22.784-.427 1.149-.89 1.358-.897 1.738-1.186 1.08-.7.636-.32 1.218-.418.916-.312.388-.197.443-.426.698-.69.462-.434.633-.49.516-.341.803-.487.683-.38.427-.198.396-.305.45-.425.427-.35.567-.35 1.692-.905 1.21-.525.373-.084.404-.053.333.099.668.38.613.533.753 1.019.699 1.125.73 1.058.45.327.473.22.613.168 1.358-.069 4.122-.433 4.773-.441 5.108-.54 3.438-.305.87.114 1.381.465 2.631.897.963.372 1.168.484.593.258.816.415.702.342.55.205.448.152.446.092.419.057.454.05.438.049.177.06.095.07.109.08.66.683.873.997.982 1.099.66.635.453.357.28.175.497.213.496.236.505.282.4.233.345.246.46.251.401.197 1.685.677 2.15.898M214.56 265.396l.224.41.109.45.256 1.805.746 5.176" clip-path="url(#p6970debdb8)" style="fill:none;stroke:#000"/><path d="m181.863 267.217 2.682.955 5.79 1.81 1.056.7 1.8 2.327 2.329 2.875.493.376.492.156.59-.034 6.466-1.076 11.037-1.856 1.297-.213M239.907 269.427l-5.144.768-10.432 1.658-8.436 1.384M233.808 407.604l-1.451 1.251-2.5 2.236-1.84 1.354-2.413 1.369-4.758 2.639-1.436.635-1.203.27-2.848.388-1.327.418-1.3.673-1.316 1.076-2.701 2.745M180.505 417.985l1.874-.498 1.715-.441 1.522-.015 1.606.16 1.296.235 1.173.434 1.296.753 1.168 1.106.567.297.601.183 2.818.414 2.29.205 1.055.076 1.35.312 1.553.776 1.226.54 2.173.555 1.242.007.885-.144.8-.282" clip-path="url(#p6970debdb8)" style="fill:none;stroke:#000"/><path d="m238.768 381.948-2.647 1.115-.488.274-.35.345-.764 1.107-.901 1.236-1.25 1.312-.403.312-1.258.665-.67.483-.311.327-.21.415-.636 2.981-.427 1.84-.02 3.023.276 2.035.229 1.258.233 1.134.287.672.594.806 1.253 1.1.497.597.341.787.432.89.539.528.694.414M281.83 309.44l1.413-1.697 1.452-1.734.415-.604.365-.75.322-.684.535-1.148.707-1.118.729-.959 1.622-2.867 2.135-3.453.916-1.616.321-.525.35-.475M254.5 271.076l9.176 4.945 11.906 6.313 17.53 9.476M315.858 322.369l-1.584-5.659-.993-3.057-.87-1.886-.86-1.24-1.46-1.384-1.933-1.924-1.172-1.537-2.483-4.068-1.002-1.666-.9-1.171-2.073-2.335-1.234-1.171-1.265-.898-4.917-2.563M239.907 269.427l2.09-.312 5.666-.821 1.01.03 1 .258 4.828 2.494M274.488 265.243l-6.598.26-3.24.178-1.246.083-1.617.077-.548.087-.435.225-.23.338-.217.59-.38.806-.303.35-.368.254-.951.37-1.013.467-1.521.471-.408.183-.384.297-.528.797M177.485 537.664l.61-.213M169.805 577.55l.194-.233.118-.291.126-.352.501-2.76.295-1.822.148-.63.213-.681.823-2.236.757-2.369.683-1.946.702-1.848.757-1.426 1.102-2.038 1.071-2.335.28-.882-.062-1.034-.621-3.285-.792-5.019-.42-3.908.047-1.551.365-1.56.582-1.019.811-.661M178.094 537.45l2.81.206M178.094 537.45l2.279-1.85M234.041 519.626l-2.693 3.567-.566.654-.723.456-3.508 1.498-3.943 1.293-3.858 1.536-3.182 1.255-1.893.547-1.802.464-1.455.48" clip-path="url(#p6970debdb8)" style="fill:none;stroke:#000"/><path d="m234.041 519.626-1.07-.121-1.134.106-1.044.391-1.502 1-3.47 2.723-.93.776-1.196.867-1.366.745-4.619 1.867-3.616 1.46-1.417.635-1.354.73-.905.57M180.904 537.656l5.519.327 9.252.008h1.514l.9-.13.675-.341 2.468-1.438 3.994-2.106 2.844-1.38 2.348-1.22M261.114 517.466l-.87 1.422-.954 2.023-.442.556-.427.289-.73.152-5.278-.213-8.988-1.141-7.086-.669-2.298-.259M268.739 509.067l-1.097.293-.722.563-.784.882-1.459 2.13-2.763 3.482-.8 1.05" clip-path="url(#p6970debdb8)" style="fill:none;stroke:#000"/><path d="m258.355 503.451-.128.54-.085.936.039.912.278 1.491 1.087 4.243.513 2.3.419 1.274.636 2.32M183.05 624.953l-.312-.234-.122-.133-.097-.175-.076-.201-.134-.512-.62-2.623-.653-3.073-1.374-5.718-.884-2.48-.02-.251.002-.173.033-.149.064-.125.248-.289.524-.56.084-.106.039-.093.006-.115-.008-.103-.041-.109-.08-.117-.141-.117-.439-.307-.454-.27-.318-.285-.249-.251-.178-.434-.637-2.06-1.552-6.285-.768-2.784-1.234-4.132-1.797-6.738-1.11-3.604-.947-2.796M180.505 417.985l-.536.054-3.225-.126-.664-.068-.733-.19-.706-.373-.497-.061-.715.053-1.754.388-1.948.791-2.29.86-1.784.7-1.355.275-.996.148-.669-.006-.473.017-.394.124-.964.445-.715.213-.652-.1-.628-.227-.482-.456-.791-1.514-.699-2.175-.908-3.148-.83-2.678-.195-1.095.055-1.019.132-.844v-.73l-.404-.92-1.494-1.708-.555-.775-.613-1.042-.338-.844-.21-1.02-.162-2.079.003-1.438.055-.897.543-1.247.854-1.308 1.917-2.312 1.219-1.087 2.173-1.758.869-.631.928-.384 1.075-.243.563-.042.353-.156.19-.338.147-.525.218-.441.396-.415 1.346-.9 1.39-1.522.55-.456.66-.236 1.11-.449.439-.384.345-.764.179-2.016.481-3.984.411-4.404.31-3.316-.123-1.559-.241-1.627-.078-1.035.093-.661.653-1.704 1.358-4.114 1.172-3.331.768-1.514 2.127-2.38 1.56-1.415M180.904 537.656l-.442-.68-.097-.495.008-.882M174.276 528.942l1.754.844 1.335.806 1.273 1.148 1.513 1.4.4.536.112.482-.062.574-.228.867M312.87 497.295l.787 1.727.276.775.35 2.134.608 2.475.198.513.35.346.566.285.637.206M312.87 497.295l23.642-6.254M322.673 513.718l-4.89 1.882-4.028 1.449-2.655.969-.338.27-.26.372-.163.514.04.559.162.878.31.86.335.577.45.384.706.312 1.902.57" clip-path="url(#p6970debdb8)" style="fill:none;stroke:#000"/><path d="m322.673 513.718-1.04.859-1.6 1.448-1.447 1.225-1.052 1.13-.59.729-.59 1.034-.651 1.324-.8 1.201-.66.647M313.234 529.481l-.66-2.607-.298-1.24-.066-.487.112-.304.248-.293 1.674-1.235M336.512 491.04l-.753 1.118-.73 1.134-1.474 1.581-3.394 2.89-1.046 1-1.521 1.95-1.01 1.606-.403 1.247-.473 2.144-.994 3.848-.124.707-.12 1.266-.132.722-.257.415-.391.41-1.017.64M344.405 488.884l-3.19.841-4.703 1.316M268.44 507.967l-.36-1.33-2.262-7.212-2.445-7.243M285.533 387.353l-.598.638-.427.346-1.816 1.266-2.46 1.936-.951.863-.548.711-.508 1.228-.772 2.285-.517 1.039-.419.589-.396.456-.71.635-.904.704-.596.583-2.877 3.767-1.553 1.764-3.624 4.35-.994 1.278-.52.86-.613 1.315-.792 2.053-2.11 3.985-2.011 3.734-.404.73-.062.647.155.585.45.617.831.654.815.433 1.079.365 1.18.723 1.878 1.11.594.467.454.61.338.881-.078 1.783-.05.688-.148.708-.345 1.133-.18.719-.19.433-.457.703-.396.697-.411 1.102-.621 2.41-.125 1.141.008.777.151 1.437-.05.6-.237.51-.368.521-.625.524-.408.194-.671.122-1.214.107-1.041.266-.877.498-.505.532-.248.434-.035.536.14.947.275 2.338.152.753.167.578.605 1.51 1.01 1.783.97 1.274.22.703.02.715-.248.844-.567 1.704-.248.745-.047.67.125 1.147.86 6.13 1.877 12.843.15 1.027.504 4.495.404 1.84M258.355 503.451l.516-1.064.924-1.924 2.08-3.604 1.079-1.872.272-.867.147-1.938M268.739 509.067l-.298-1.1M180.505 417.985l-.951-1.768-.295-.776-.155-1.308-.326-2.487.062-1.026.294-.89.552-.966M319.925 338.515l-1.552-6.442-2.515-9.704M228.538 284.965l.753-1.164.784-1.148.38-.715.652-.57 1.397-.966 1.452-.67 1.188-1.095 1.932-1.688.567-.7.939-1.905.629-1.738.26-1.544.062-.57.118-.45.256-.615M260.16 353.22l1.005-.03 1.216-.116 1.466-.25 1.311-.246 1.358-.411 1.894-.86 2.135-.86 3.364-1.231 3.307-1.236 1.024-.308.784-.186.649-.335.954-.757.675-.418.854-.342 1.071-.297 5.698-.927 6.473-1.08 1.53-.426 1.753-.366 6.605-1.217 14.639-2.806M238.162 361.14l.742-.14.582-.235 1.033-.476 1.365-.4 2.644-.581.95-.167 1.262-.1 2.29-.311 3.376.168 2.817.25.978-.03.714-.35.738-.738.636-.867.248-.935.148-1.33.318-.967.489-.479.667-.232M309.928 435.96l4.975-.898 4.696-.821 5.293-.958 3.788-.533 4.107-.63 4.282-.61" clip-path="url(#p6970debdb8)" style="fill:none;stroke:#000"/><path d="m258.355 503.451.225.08.245.03.368-.068.718-.213.493-.03.512.06.493.214 1.42 1.057.913.54 1.148.627 2.43 1.278.61.44.51.5M310.783 408.648l.218-.017.225.029.225.102 1.17 1.033 1.471 1.167M255.635 600.335l-.077-.166M273.502 576.172l-.838.373-6 2.395-.551.282-.52.304-.478.456-.609.825-.625 1.106-.52.974-.516 1.095-.338.836-.333.845-1.813 5.642-1.58 3.635-.527.996-.551.828-.737.924-.753 1.266-.155.31-.146.314-.144.317-.133.44M498.003 601.281l1.063 1.43 2.375 3.323 1.235 1.901.224.468M530.474 601.04l.026.213.011.183.134.731 1.102 3.6.714 2.438.45 1.633.113.519-.011.2-.022.116-.076.102-.104.07-.299.116-2.313.79-2.93.97-2.744.913-3.07 1.038-2.484.787-2.418.825-2.332.869-.244.07h-.185l-.157-.01-.184-.056-.175-.112-.124-.13-.103-.169-.068-.169-.215-.981-.396-1.875-.637-2.92-.504-2.015-.078-.275-.099-.13-.132-.098-.162-.07-.228-.035-.287-.007-.79.015-2.148.11-1.897.095-1.289.03-1.219-.018M489.33 584.614l.547 2.12 1.078 3.94.877 3.068.163.395.21.316 1.06 1.35 2.021 2.368 2.717 3.11" clip-path="url(#p6970debdb8)" style="fill:none;stroke:#000"/><path d="m530.474 601.04-.463.06-1.388.229-.978.215-.225.036-.167-.004-.099-.036-.163-.08-.165-.127-.314-.474-.357-.821-.192-.344-.44-.487-.27-.241-.161-.103-.27-.1-.416-.063-.762-.1-.35-.1-.422-.142-.254-.128-.767-.479-.485-.39-.46-.418-.215-.15-.363-.175-.344-.122-.85-.184-.982-.25-1.371-.258-.5-.111-.222-.016-.524-.023-.287.017-.249.048-.733.2-2.121.746-.997.377-.66.346-1.137.658-1.126.506-2.142.722-2.519.707-2.708.418-.742.13-.997.258-1.114.494M489.33 584.614l-.502-1.948-.298-1.277-.05-.597v-.787l.131-2.35.342-3.376.163-3.931.03-4.213-.046-.518-.132-.47-.24-.761-.35-.715-1.032-2.738-1.63-4.532-.846-3.232-1.467-3.726-1.312-3.148-1.11-2.768M448.304 457.755l1.584 2.312 2.53 4.715.955 1.886.427.92.256.639.194.768.722 4.091.644 6.114.807 6.236.73 4.38.489 1.886 1.14 2.958 1.763 4.753 1.622 4.388 1.544 4.358 1.723 5.049 1.351 4.107 1.087 2.965 1.273 2.913.555 1.102.283.442.369.414 1.61 1.532.45.411.303.311.11.138.286.535.815 2.377.528 2.54.403 1.955.113.475.16.357.279.536.283.46.873 1.046 1.07 1.152 1.34 1.502.776 1.003.652 1.065.579.981M497.8 540.302l-.294.138-1.117.213-5.806.98-3.346.609-3.562.753-2.693.532M411.095 439.982l.31.419.87.775 1.38.685 1.367.608 7.017 2.388 7.901 2.981 2.174.959 1.738 1.14 2.235 1.719 2.174 1.673 1.567.882 1.972.943 5.014 2.145 1.49.456M415.476 617.021l-1.925-.387-1.711-.224-1.576-.16-2.115-.304-2.03-.224-3.244-.43-1.533-.198-2.197-.224-2.576-.228-2.135-.114-1.993-.26-.477-.039-.152-.046-.122-.066-.085-.091-.086-.14-.093-.301-.153-.675-.115-.35-.106-.215-.128-.129-.177-.091-.306-.091-.297-.046-.416-.03-1.057.022-2.686-.023-4.075.008-1.882-.038-2.15-.034-.974-.058" clip-path="url(#p6970debdb8)" style="fill:none;stroke:#000"/><path d="m380.98 567.488-.125 2.411-.574 5.46-.404 3.543-.4 4.08-.532 5.54-.613 6.782-.504 5.642-.326 4.297-.598 6.592M336.613 576.523l6.31-1.864 10.121-2.867 3.136-.89 1.506-.421 1.114-.32.982-.247.958-.225.745-.129.82-.091 5.409-.658 6.823-.745 6.442-.578M382.03 558.642l-.026.246-.575 5.239-.45 3.361M336.613 576.523l-3.757 1.11-4.067 1.106-6.31 1.802-7.46 2.164-5.712 1.592-2.399.787-.531.138-.52.075-.605.012-.626-.069-1-.24-13.716-3.801-12.683-3.441-.915-.266-1.005-.346-1.805-.974M417.723 585.462l-.038-.355-.459-2.152-.19-1-.136-.51-.097-.3-.21-.452-.278-.487-1.316-2.163-1.894-3.43-1.47-2.635-1.324-2.353-.695-1.278-.182-.254-.206-.19-.272-.14-.508-.191-4.65-1.597-4.207-1.468-3.826-1.14-5.014-1.772-4.098-1.316-4.623-1.637M381.855 544.114l.273 2.371.295 2.639.178 1.498.054 1.855-.124 2.403-.5 3.762M440.643 615.735l.455.013 1.168.21.597.216.68.498.989.836.668.746.753.86.822 1.11.52.858.583.855.359.601.642.871.281.35.146.186.083.074.082.046.145.044.146.015.397-.02 1.025-.277 1.238-.369.471-.146.264-.08.148-.006.105.018.603.216.151.073.129.108.063.074.046.084.011.091-.004.156-.027.222-.023.087-.032.05-.035.056-.13.096-1.553.57M419.85 617.999l.908-.05 1.929-.17 2.278-.248 1.001-.14.854-.077 1.583-.167 1.099-.126 1.874-.2.82-.115 1.784-.247 2.596-.296 1.855-.244 1.172-.114.75-.057.29-.013M417.723 585.462l.28 2.55.17 3.186.28 2.593.19 1.373.136 1.399.155 3.501.124 2.799.179 2.814.116 2.859.233 3.17.163 2.905.136 2.243.003.385-.038.76M415.476 617.021l1.813.446 1.129.296.613.14.407.07.412.026M204.698 624.756l-.78.19-2.484.54-5.014 1.02-.392.084-.25.032-.27.013-.202-.023-.182-.083-.136-.126-.087-.136-.064-.212-.42-1.566-.964-3.391-.113-.12-.126-.086-.112-.038-.11-.006-.13.02-.26.123-2.244 1.095-4.203 1.714-1.618.647-1.487.506M251.11 594.194l1.303 3.559.253.456.182.266.245.232.321.22 2.144 1.242M236.106 567.865l.547 1.121.1.11.125.092.155.05.206-.024 1.29-.222.187-.063.155-.032h.107l.093.015.09.052.065.081.068.107.056.207.714 2.692.794 2.901.06.182.037.1.043.083.067.05.1.016.23.006 1.27-.007 1.304-.039 1.61-.228 1.149-.266.248-.034.24-.008.226.076.233.148.217.232.198.332.334.957 1.645 5.673.574 1.947 1.809 6.494 1.886 6.182.163.795.217.7.84 1.826M430.55 577.67l-.008-.146.106-.365.674-2.112.04-.234.08-.884.144-1.958.102-1.8.165-1.152.114-1.277.039-.16.05-.105.061-.071.109-.066.109-.034.108-.03.139-.033.084-.03.09-.041.11-.064.86-.523.204-.16.312-.264.611-.517.982-.958 1.13-1.22.609-.551.36-.225.695-.285 1.064-.3 1.195-.153 1.114-.053M430.55 577.67l.617-.467.24-.118.466-.16 3.244-.715 4.021-.912 3.578-.692M417.723 585.462l1.63-.161 2.546-.43 1.498-.307.271-.111.525-.285.764-.692 1.812-1.551.87-.928.78-.738.559-.642 1.07-1.3.501-.646M572.135 601.713l-.023-.135-.473-3.263-.373-2.075-.628-4.585M519.674 471.839l.776.76.349.373.396.631.598 1.225 1.614 3.794 2.701 6.738 1.94 4.274.73 1.642.777 2.16 1.77 5.628.387 1.323.544 1.414.823 1.673 2.203 3.787 2.112 3.194 2.018 2.692 3.198 4.35 2.08 2.616 1.273 1.703 1.18 1.323 2.39 2.13.691.502.815.555.636.479.466.57.784 1.118 1.134 1.559.333.684.163.563.28 2.259.108.798.218.639.287.38 2.11 1.422 3.641 2.411.842.46.36.289.176.255.179.49 1.043 6.164.839 6.585 1.133 6.691 1.079 7.21.535 3.748.978 6.791.776 4.867.474 2.881.574 3.392.45 2.624M597.968 589.132l-.242-.01-.497-.095-1.897-.63-2.065-.776-.982-.26-.601-.125-.21-.026-.245.007-.294.035-.319.083-1.808.426-1.945.33-2.642.503-2.721.593-2.103.449-3.365.935-2.259.521-3.135.563M489.33 584.614l1.61-.062 2.161-.068 2.356-.034 3.202.011 2.48-.087 2.32-.073 1.669-.053 1.085-.011.18-.008.17-.027.469-.131 1.876-.492 1.913-.487.664-.144.25-.063.19-.015.189-.02.551.006 1.878.274.924.038.854.034 1.292.012.986-.175.614-.074.165-.029M546.033 600.87l-.23-1.296-.197-1.696-.237-1.753-.22-2.733-.067-.89-.012-.228-.038-.205-.055-.192-.118-.304-.16-.272-.54-.647-.68-.802-.858-1.08-.854-.867M546.033 600.87l4.851.023 4.09.07 3.37.045 3.344.144 2.259.06.706.061 1.029.084 1.785.057 2.32.118 2.348.181M530.474 601.04l.173-.029.112-.032.2-.042.282-.025 2.439-.053 3.88-.053 3.288.019 3.097.038 2.088.008M597.968 589.132l1.702 2.173 2.077 2.615 1.121 1.487 1.261 1.76.827.974 1.044 1.383 1.172 1.43 1.087 1.35.842 1.057.803.92.776 1.008.225.357.26.574.241.68.221.67.105.288.126.246.169.177.211.186.173.101.442.173 1.002.247.807.228.208.074.15.078.176.137.219.207.326.499.208.203.202.097.18.038 1.06.036.725.023.211.025.18.062.186.097.133.124.113.173.29.66.218.374.738 1.017.725.935.598.909.446.608.804 1.02.86 1.022.514.665.702.95.508.788.216.391.133.316.144.43.19.678.113.228.266.298.172.142.171.11.19.068.28.069.326.057" clip-path="url(#p6970debdb8)" style="fill:none;stroke:#000"/><path d="m591.315 574.355.186 3.072.078 2.008.085 1.178.132.83.128.352.24.339.924 1.076 1.06 1.281 1.261 1.495 1.362 1.63.617.742.58.774M336.613 576.523l.015 1.113-.058.81-.072.73-.03.285-.138 1.79-.164 1.818-.073.993.023.391.116.936.222.962.225.513.23.388.123.207.04.125.028.12.138.76.023.316-.013.363-.072.662-.101.378-.02.226-.002.274.01.551.16.717.15.753.173.536.118.258.158.28.225.339.285.345.359.468.475.526.272.377.541.722.11.103.253.13.973.395.853.408.902.588.678.384.553.283.167.063.112.038.09.053.05.06.049.1.093.353M522.847 472.175l-1.458-.047-1.715-.29M370.78 495.626l-2.297 1.035-2.135.806-.955.205-.822.106-1.033.13-1.094.22-1.948.456M374.096 524.383l-.444-.924-2.08-3.985-1.6-3.3-3.057-5.415-3.198-6.053-3.221-6.122M330.34 404.382l1.406-.211 1.576.311.978.966M476.534 279.151l-4.044 1.114-21.174 5.384-14.685 3.469-.799.201M607.385 491.458l.423-.562.148-.342.023-.494.016-.768-.023-1.042.201-.769.295-.585.738-1.026.59-.928.62-1.012.83-1.156.335-.578.232-.623.156-.913.178-1.178.164-1.08.341-1.392 1.009-2.266.496-1.232.668-1.627 1.017-2.502.326-.73.435-.533.644-.525.931-.639 4.13-2.874" clip-path="url(#p6970debdb8)" style="fill:none;stroke:#000"/><path d="m602.994 492.464 1.244-.435 1.21-.297 1.173-.174.764-.1M506.757 369.028l-.69.083-3.151.426-1.428.274-1.01.289-1.396.563-4.952 1.658-7.638 2.311-6.814 1.917-4.518 1.187-4.89.882-3.679.426-2.033.085M531.677 366.37l1.494-.164 1.848-.015 3.462.137 4.734.304 1.956.06 2.763-.166 4.75-.472 7.824-.928 10.153-1.019 12.232-1.247M595.348 404.996l.143-.24.132-.676-.544-6.389-.667-6.89-.482-4.715-.217-4.244-.038-4.48-.04-.973-.116-.464-.318-.623-2.422-2.875-4.285-5.202-3.6-4.365M611.767 359.59l-11.503 1.307-10.106 1.096-7.265.867M543.438 471.154l-1.123-.494-1.444-.517-.854-.091-.853.06-.477.117M522.847 472.175l2.314.075 5.9.121 1.769.03 1.304-.182 1.583-.517 1.817-1.042.791-.342.362-.089" clip-path="url(#p6970debdb8)" style="fill:none;stroke:#000"/><path d="m544.679 430.783-1.774 1.024-7.467 4.32-6.675 3.848-1.056.639-.186.32-.023.41.193.623 1.864 4.685 3.275 8.396 3.073 7.802 2.784 7.38M574.01 453.982l.888 2.13M628.225 436.206l-4.093 1.814-1.925.654-3.206.99-2.988.57-1.918.319-1.715.259-.908-.016-.792-.152-.644-.023-.628.1-1.452.372-5.363 1.498-5.79 1.688-5.387 1.354-3.509 1.05-1.971.897-2.81 1.399-2.903 1.612-6.212 3.391M562.164 420.836l1.682 4.28 1.086 2.66.792 1.993.962 2.464 1.662 4.304.931 2.844.807 2.571.684 2.282.915 2.935 1.211 3.741.792 2.297.323.775M611.596 497.528l-2.22-1.46-6.382-3.604M582.646 477.357l.666.71.916 1.43.8 1.027.954.912 1.63 1.263 2.531 1.916 1.847 1.323 2.204 1.567 2.562 1.536 2.437 1.277 3.8 2.146M375.453 527.147l3.958-.79 4.502-.951 4.145-.821 5.184-1.088 7.297-1.498 4.082-.86 5.433-1.094 2.725-.518 4.114-.851 3.64-.662 1.02-.182.206-.054.09-.091-.024-.17-.141-.319-1.454-2.127M375.453 527.147l-1.357-2.764M381.855 544.114l-.022-.199-.45-2.1-.621-2.022-2.251-5.855-2.282-5.11-.776-1.68M350.739 533.482l15.198-5.856 8.159-3.243M497.8 540.302l.521-.243 1.009-.57 2.173-1.27 1.949-1.156 1.056-.63.946-.45 1.366-.63 1.793-.875 1.312-.64.854-.319.993-.098 1.265.22 1.755.51 1.7.89 1.171.851.551.517.319.434.815 1.216.706 1.02 1.032 1.452M411.095 439.982l.03 1.24.078.882.17 1.354.653 3.756.854 5.43.714 4.183M405.987 409.95l1.04 6.556 1.63 9.734 1.367 8.29.543 3.453.45 1.764.078.235M405.987 409.95l2.515 1.4 2.779 1.749 4.781 2.799 3.291 2.068 1.863 1.004 1.987.958 2.282.974M584.027 274.226l1.35 6.039 1.708 7.408.977 5.14.125 1.187-.078 1.08-.202 1.72-.512 2.859-.217 1.825.093 1.308.388 1.506 1.056 1.963 3.989 6.038 4.502 6.83 1.863 2.753 1.133 1.978.947 1.886 2.406 4.64.699 1.764.294 1.231.218 1.415.217 2.023.28 1.43.326 1.034.419.882 1.086 2.48 1.552 4.015 1.506 4.472.681 3.719M611.767 359.59l-.62-3.028-.314-1.711" clip-path="url(#p6970debdb8)" style="fill:none;stroke:#000"/><path d="m622.137 267.342-2.205.48-11.394 2.677-12.046 2.54-8.887 2.016-1.336.144-.752-.06-.73-.29-.505-.364-.255-.259M574.391 260.649l.384.214.69.821.567.966 7.125 10.428.613.89.257.258M412.507 352.775l-2.522-.137-.9-.13-.963-.212-.94-.258-1.124-.323M480.034 225.526l2.329-2.74M516.266 211.516l-1.001-.57-.768-.67-.854-.866-1.964-2.693-.559-.807-.512-.532-.504-.502-.917-.829-.566-.723-.528-.927-.629-1.522-1.078-3.171-1.126-3.324-.481-1.065-.419-.57-.567-.54-.854-.708-2.01-1.628-2.43-1.893-3.896-2.944-2.111-1.597-2.243-1.377-.644-.449-.42-.464-.582-.722-.908-1.305-.166-.197-.183-.126-.236-.023-.226.107-.155.19-.5.723-1.242 1.597-.637.623-.598.54-.815.617-1.25.958-.993.783-.706.875-.435.73-.434.837-.342.936-1.265 3.78-1.545 4.434-1.8 6.427-.839 3.316-.465 1.856-.195 1.453-.108 1.643-.008.844.078.623.155.7.404 1.993.791 3.035.334 1.072.404.784.651.737.987.913 2.204 2.115 1.187 1.11.287.403M516.266 211.516l-2.453 5.946-.434.213-8.01 1.703-2.391.67h-.28l-1.893.547-5.34 1.4-2.484 1.125-1.522.822-.372.426-.931 1.491-.59.395h-4.16l-5.372-.728M476.534 279.151l.628-10.872.25-4.838.403-7.469.419-6.586.442-7.424.31-3.818.171-3.84.404-3.758.45-3.582.07-1.05-.047-.388" clip-path="url(#p6970debdb8)" style="fill:none;stroke:#000"/><path d="m574.391 260.649-.377-.212-.76-.076-1.452.212-9.214 1.94-19.032 3.88-3.01.577-2.267.274-7.514.365-6.55.03-2.795.335-3.353.639-4.626.943-9.966 2.403-6.271 1.552-8.135 2.19-12.535 3.45M554.972 229.23l-.153-.167-.683-.373-2.989-.79-5.712-1.385-4.665-1.118-1.847-.418-.955-.327-.823-.578-.884-.768-2.298-2.176-3.268-3.043-2.351-2.114-.83-.661-1.018-.457-4.532-1.475-4.153-1.324-1.545-.54M571.531 256.12l.868 1.221.722 1.103.551.837.272.486.447.882M562.164 420.836l.331-.185 2.422-1.514.699-.311.38-.054.52.1 1.358.341.357.008.373-.076.505-.183 1.094-.768 3.236-3.011 3.718-3.225 1.257-.913.91-.516.915-.335 1.032-.259 3.5-.631 1.933-.342 1.118-.297 1.343-.464 1.614-.79 3.927-1.963.56-.312.082-.14M628.225 436.206l-2.55-2.642-2.685-3.019-2.67-3.034-1.273-1.506-.683-.981-.52-.936-.737-1.78-1.412-3.3-.56-1.126-.372-.35-.606-.227-1.063-.32-2.63-1.065-1.484-.79-.908-.647-.737-.6-.73-.73-1.979-2.305-1.614-2.084-1.576-2.395-.473-.579-.396-.304-.56-.098-1.062.038-1.196.015-.861-.092-.761-.144-.779-.209M531.677 366.37l.92-.757.574-.609.474-.677.69-1.353.474-.944.56-.882.612-.905.373-.73.35-1.019.457-1.642.458-1.347.271-.89.257-1.33.194-.723.272-.867.83-1.931.481-1.073.497-.677.644-.593 1.025-.844M506.757 369.028l11.59-1.392 10.68-.974 2.65-.291" clip-path="url(#p6970debdb8)" style="fill:none;stroke:#000"/><path d="m544.679 430.783-3.653-8.04-4.036-9.127-2.918-6.175-1.444-3.194-.272-.266-.473-.137-.597.06-8.85 2.61-.41.022-.412-.22-.233-.35-1.358-3.468-2.235-5.963-3.167-7.757-4.005-9.734-3.859-10.016M562.164 420.836l-5.195 2.91-6.737 3.833-5.553 3.204M582.646 477.357l-.327-1.366-.466-1.612-.698-2.069-2.407-6.083-2.546-6.997-1.304-3.118" clip-path="url(#p6970debdb8)" style="fill:none;stroke:#000"/><path d="m543.438 471.154 3.86-2.357 6.768-4.441.373-.213.38-.152 1.063-.358 2.112-.555 7.265-2.783 7.264-2.996 2.375-1.187M543.438 471.154l7.073 3.103 5.915 2.358 2.608 1.019 2.903 1.003 1.52.396 1.119.06 2.22-.151 4.16-.776 4.206-.837 4.471-.669 1.25-.144.838.152.699.448.226.241M571.531 256.12l-.917-1.288-2.266-2.959-1.118-1.666-1.42-2.396-.893-1.574-1.01-1.757-2.125-3.682-2.616-4.44-2.43-3.918-.543-.943-.691-1.37-.303-.646-.227-.25M597.885 231.246l-.062-.076-.307-.046-.52-.087-.461-.137-.928-.468-.908-.434-.916-.357-.986-.335-.652-.09-.978-.024-2.181.167-2.002.153-1.289.053-1.055-.061-.924-.243-1.071-.593-1.902-1.682-.597-.646-.66-.73-.365-.593-.543-.928-1.46-2.495-1.785-3.004-1.707-2.564-.722-.935-.737-.639-1.553-.958-4.827-3.157-.528-.289-.435-.122-.443-.037-.38.06-.217.328-.124.707-.164.882-.185.73-.389 1.058-.535 1.254-.35.951-.302.753-.35.76-.62.982-1.723 2.403-.327.525-.489.913-.364.943-.583 1.833-.434 1.43-.637 2.011-.224.3-.315.225-.697.294" clip-path="url(#p6970debdb8)" style="fill:none;stroke:#000"/><path d="m571.531 256.12.282-.319.408-.236.384-.144.753-.137 1.793-.323.85-.267.531-.304.423-.342.715-.86.582-.851.737-.913 1.149-1.14 1.203-1.073 1.831-1.506 1.506-1.012.878-.836.558-.723.567-.92 1.49-3.21.947-1.985 1.219-2.054.505-.562.923-.723 1.878-1.232 1.948-1.305.866-.616.85-.684.423-.32.148-.16.007-.117" clip-path="url(#p6970debdb8)" style="fill:none;stroke:#000"/><path d="m587.426 201.367 12.978 17.707.341 1.521-.186 7.91-.155.7-1.739 1.735-.78.306M622.137 267.342l-.334-2.608-.085-.57-.218-.48-.326-.433-.341-.305-.512-.35-.296-.273-.334-.563-.581-1.483-1.739-4.168M611.596 497.528l-3.151.547-1.459.236-2.15.22-4.036.449-2.476.372-2.724.564-2.958.684M381.855 544.114l-10.563 3.193M344.405 488.884l.746 2.104.946 2.448.808 2.312.9 2.768.854 2.844M508.877 432.157l.87.76.791.685.59.852.59 1.247 2.204 5.247 2.003 5.05 2.002 5.384 1.925 4.76.482 1.339.403 1.597.342 1.689.264 1.46.201 1.55.373 2.084.93 6.314M497.8 540.302l1.08 14.38.28 5.202M352.457 374.368l-.176-.77M352.28 373.598l-.55.064M352.28 373.598l.624-.072M352.904 373.526l-.186-2.374M342.03 370.094l-2.722 1.085M608.724 153.721l-6.24-4.168M587.736 196.772l5.123-4.685 10.711-7.606 1.552-1.37.28-.151.9-.882.963-1.065.59-1.004.217-.579.31-1.52.032-.975-.125-1.734-.838-8.001-1.024-4.23v-2.494l2.297-6.755M443.625 174.863l2.102-.21 9.78-2.129 2.453-.791 3.042-.395 4.44.09 1.956.183 4.781.852 3.26 1.248 1.15.243 14.001-1.826 3.136-3.985 1.894-4.23 1.49-5.476 2.236-4.107M602.484 149.553l-6.458-3.62-4.937-3.256-.31-.122h-.714l-49.055 6.329-8.071 1.277-.311-.03-32.29 4.23-.992-.031M443.625 174.863l3.06-19.739M386.251 155.251l.425-1.156 10.805 1.248 4.16.821 5.588 1.4 10.743 3.347 5.836 1.674h.59l22.287-7.46M335.875 413.052l1.173.778" clip-path="url(#p6970debdb8)" style="fill:none;stroke:#000"/></g><path id="PatchCollection_1" d="m397.294 305.059-4.924 1.096-1.937.876-1.69-.389-1.44-2.58-1.54-2.385-3.13-1.703-2.781-.488-3.18 1.217-.943 1.51-1.242 4.478-2.136 2.871-2.335.925-2.136-.438-1.689-2.677-2.384-1.168-2.434-.73-2.534.097-.646-1.314-1.242-.195 1.094 1.217.446.681.944.438 2.087-.048 4.57 2.774.248 1.168v2.629l.745 1.85.994 1.265-.298 1.85.298.779.993.486 1.193-1.217.794-3.456 2.037-.779 1.738-2.969 2.584-3.942 2.732-.925 2.93.78.249.729.398-.78 1.142.488 1.54 1.606.398 1.899 1.39 1.216.895.633 1.142.243.745-.827 2.782-.39 1.49-1.362 1.44-.633 1.224-.725z" clip-path="url(#p6970debdb8)" style="fill:#00f;fill-opacity:.8"/><g id="PatchCollection_2"><path d="m638.653 200.788 6.26 11.585 2.186-.097 2.285 2.726 4.57 8.567 4.669-8.567 6.955-.778 1.589 10.611-4.371.097-1.093 9.347-2.086.487.894 4.38-.894 5.647 10.63-1.363v1.947l-2.285 1.363 1.888 3.797-.1 1.655-1.788.487-.397-2.63-1.789.488.894 4.868-1.688 1.557-2.385.78-6.359 1.751-2.483-2.239-3.974 1.168-3.776-1.363 3.677-2.531-3.726-8.47-6.488 2.276-.526-2.787 2.325-2.848-.714-3.553-4.609 1.46-5.044-12.462 5.013-1.169-.902-3.31 1.573-7.207 3.344-1.173-1.06-5.656-5.896 1.344-2.056-6.462 2.447-2.993zM597.088 286.788l2.682 8.08 7.948.098 4.273-1.266.397-1.85-2.484-3.504zM147.024 544.84l11.922 45.553-27.387 5.087-6.094-22.12-17.883 5.256-2.98-1.752-.795-3.7 1.49-3.503 18.081-3.602-1.39-6.521zM135.996 598.764l7.85-1.363 2.78 10.61-10.928.681zM181.896 575.015l1.689 7.494-3.477.973-.994-2.822-5.464 1.168 2.484 6.132 4.172 1.46 5.365-.584.895 3.601 5.067-1.46 1.688 4.964 13.512-2.628-5.762-22.97zM192.725 554.574l11.426-2.725 1.788 8.663-10.63 2.433zM157.059 501.623l7.252-1.266 3.676 2.531 2.682 5.354-.099 4.185-6.656 4.77-3.28 3.407-3.377 1.265-2.88-2.433-1.988-12.85zM180.406 466.483l2.186 9.247 10.332-.486 4.47 9.928.994 13.336-20.963 11.68-4.769-10.902 3.18-1.751-3.775-12.363v-3.504l-1.789-2.92 2.98-.487-1.29-10.22zM288.5 464.05l3.377 24.432-6.756 1.363-2.086-11.389-4.57-12.167zM223.027 467.456l7.054 4.673-.1 5.938-10.133 6.327-3.775-.487-2.98-3.602-.1-4.185 11.723-.681zM246.374 447.307l-.993 7.495 7.054-.292-.695 11 7.713-.812 2.862 20.12-4.714-.619 1.689 7.009-19.97-13.628 8.346-5.548-7.848-12.07 2.384-7.302-1.093-3.212zM197.99 448.67l1.988 8.468-13.71 3.602.198-9.831z" clip-path="url(#p6970debdb8)" style="fill:#006400;fill-opacity:.8"/></g><g id="PatchCollection_3"><path d="m339.034 377.052 3.046-1.319.684 1.8-3.488 1.13zM361.062 368.031l3.602-1.004.403 2.008-3.601.76zM337.02 380.486l1.882-.324.214 1.052-1.94.428z" clip-path="url(#p6970debdb8)" style="fill:green;fill-opacity:.8"/></g><g id="PatchCollection_4"><path d="m342.08 370.855-1.648.627.496 1.175 1.663-.674zM368.744 377.076l-.719-5.163 3.73-.498.718 5.163z" clip-path="url(#p6970debdb8)" style="fill:#90ee90;fill-opacity:.8"/></g><path id="PatchCollection_5" d="m236.13 638.845-2.795-.639-2.515-.395-.59-1.126.093-1.216 1.894-3.437 1.708-3.376 3.508-1.338 4.315-2.008 2.701-1.916 1.398-1.125 1.21-1.248 3.943.305.901 3.011.28 1.247-1.087 3.68.683 3.772.497 2.646-.218 1.703-4.501 1.795-3.23.517-2.67-1.095-4.067-.183z" clip-path="url(#p6970debdb8)" style="fill:#d3d3d3;fill-opacity:.8"/></g></g><defs><clipPath id="p6970debdb8"><path d="M99.406 86.4h539.187v554.4H99.406z"/></clipPath></defs></svg>