<svg xmlns="http://www.w3.org/2000/svg" xmlns:xlink="http://www.w3.org/1999/xlink" width="960" height="960" viewBox="0 0 720 720"><defs><style>*{stroke-linejoin:round;stroke-linecap:butt}</style></defs><g id="figure_1"><path id="patch_1" d="M0 720h720V0H0z" style="fill:#fff"/><g id="axes_1"><path id="patch_2" d="M130.221 640.8H607.78V86.4H130.22z" style="fill:#fff"/><g id="LineCollection_1"><path d="m383.204 364.793 1.274-.063M378.232 365.185l1.043-.093 1.297-.099 1.767-.123.865-.077" clip-path="url(#p3f089ef7e5)" style="fill:none;stroke:#000"/><path d="m383.204 364.793-.916.47-.893.573-.943.819-.57.729M384.478 364.73l2.548-.13 1.452-.075 2.175-.174 2.309-.457 2.044-.575 2.152-.886 2.366-1.252 6.04-3.206 9.71-5.205 5.08-2.572 2.965-1.324M575.95 247.48l-9.888 4.71-56.514 26.61-8.884 4.141-6.65 3.199-4.467 2.17-3.617 1.911-5.014 3.271-4.253 3.049-4.32 3.138-1.552 1.154-2.204 2.02-1.783 1.996-.989 1.255-1.884 2.96-1.401 2.708-7.496 14.855-1.825 3.397-2.049 3.101-1.918 2.295-1.964 1.972-1.822 1.595-2.654 1.899-2.363 1.4-2.1 1.009-1.808.798-5.22 1.81-5.163 1.85-2.83 1.12M439.53 353.894l-13.746-4.47-2.465-.55M379.883 367.384l-1.355 3.445" clip-path="url(#p3f089ef7e5)" style="fill:none;stroke:#000"/><path d="m378.232 365.185.462.472.461.534.454.656.274.537M359.957 414.48l.192-.71M359.957 414.48l-.717 2.476-.347 2.32M358.515 424.34l.851-4.894.31-2.354.124-.903.157-1.708M351.527 470.847l3.683-7.29 1.498-3.476.968-3.492.553-3.765.113-4.345-.505-17.677.028-2.672.32-2.146.33-1.643" clip-path="url(#p3f089ef7e5)" style="fill:none;stroke:#000"/><path d="m358.893 419.276-.25 2.777-.128 2.288M319.449 296.606l.206-.3M320.662 307.483l-.133-.54-1.08-10.337M317.493 297.084l.69-.09.685-.048.341-.105.24-.235M167.12 115.535l4.724 6.087M165.417 118.529l1.158-.8.477-.658.079-.654-.011-.882M184.176 136.912l-6.176-7.78-6.156-7.51M165.417 118.529l2.336.723 1.655.851 1.02.541 1.416.978M242.446 208.065l-20.026-25.074-9.677-11.829-3.213-3.92-6.764-7.288-8.194-10.042-10.396-13M265.104 97.062l-4.935 5.741-3.76 9.295-2.284 3.62-4.938 1.773-43.193 5.96-21.818 13.46M152.596 162.503l15.14-12.64 16.44-12.951M340.477 397.57l-2.302 4M340.477 397.57l-1.457-.731M348.815 398.249l-.83.081-.606.268-1.111 1.299-.306.187-.282.02-.34-.128-4.863-2.406M294.417 286.553l4.672 8.13M300.399 284.144l-2.432.976-1.42.644-2.13.789M283.005 267.54l4.989 7.89 6.423 11.123M329.545 347.822l-.309-2.884M329.545 347.822l3.557-.519M329.545 347.822l-3.585.558M328.224 336.324l1.012 8.614M328.224 336.324l-3.635.469M331.6 337.728l-1.11-1.093-.336-.23-.421-.122-1.509.04M337.771 363.93l-1.413-3.777M337.771 363.93l1.481 3.713M337.771 363.93l-6.283 1.951M324.517 273.075l.555-.312 1.214-.743.265-.29.132-.362-.025-.957.046-1.24.257-.93.415-.964 1.392-1.709.086-.09.065-.03.054-.004.067.026 3.801 4.184 1.679 1.66M152.596 162.503l-13.191-19.566M334.29 408.318l1.8-3.125M334.29 408.318l-5.672-3.587M338.461 413.993l.292-1.506-.01-.937-.113-.489-.205-.308-.246-.246-1.99-1.048-1.898-1.14M325.96 348.38l-.336-3.024M325.96 348.38l-3.453.6M283.005 267.54l22.887-8.926M242.446 208.065l3.53 4.42 6.542 9.226 3.458 5.141 13.464 20.391 13.565 20.297M336.492 344.016l-3.708.558M332.784 344.574l-3.548.364M332.784 344.574l.318 2.73M331.6 337.728l.312.616.143.554.729 5.676M321.399 364.947l2.79-1M336.358 360.153l-1.275-3.968M336.358 360.153l-6.131 1.916M320.303 360.727l2.653-.7M335.083 356.185l-1.311-3.938M335.083 356.185l-6.164 1.943M319.98 356.573l2.623-.744M333.772 352.247l-4.832 1.541M333.102 347.303l.194 2.405.476 2.54M324.589 336.793l-1.159-9.328M324.589 336.793l1.035 8.563M324.589 336.793l-3.67.465M325.624 345.356l-3.626.324M325.624 345.356l3.612-.418M331.488 365.881l-5.957 1.887M331.488 365.881l-1.261-3.812M331.488 365.881l1.416 3.92M319.806 329.598l-.639-1.461M323.43 327.465l-1.455.842-2.169 1.291M320.919 337.258l-.89-6.882-.223-.778M320.919 337.258l-.617.07M320.919 337.258l1.079 8.422M321.998 345.68l.509 3.3M324.492 355.208l3.039-.95M324.492 355.208l-.362-1.042M324.492 355.208l-1.889.621M328.919 358.128l-5.963 1.9M328.919 358.128l-1.388-3.87M328.919 358.128l1.308 3.941M330.227 362.07l-6.038 1.876M323.298 326.55l.06.467.072.448M322.507 348.98l-.727.403M324.13 354.166l-1.199-3.527-.424-1.66M333.102 347.303l3.42-.578M376.301 365.505l.637-.13 1.294-.19M358.966 401.62l-.071 1.354-.235 2.137-.292 1.592M357.516 411.086l.244-1.663.306-1.62.302-1.1" clip-path="url(#p3f089ef7e5)" style="fill:none;stroke:#000"/><path d="m361.907 407.661-.808 1.037-.567.328-.648-.016-.413-.186-.525-.498-.345-.766-.233-.857M360.149 413.77l.967-3.424.791-2.685M372.497 383.887l-1.143 2.5-1.791 3.9-2.196 4.776-2.02 4.413-1.754 3.87-1.085 2.684-.6 1.631M357.516 411.086l.263 1.074M355.076 403.694l.664 3.04.859 2.34.917 2.012M357.78 412.16l.2 1.136M350.196 407.253l5.17 4.173.926.458 1.487.276M357.98 413.296l.246 1.387.387 2.288.165 1.098.115 1.207M314.896 319.687l.493-.216M314.896 319.687l.426 1.183 1.737 3.66 1.607 3.798M307.305 308.979l2.394 4.024 1.244 1.928 2.428 3.093 1.198 1.372.327.291M319.167 328.137l-3.323-7.523-.948-.927M320.302 337.327l1.478 12.056M318.666 328.328l.446 1.008.273.797.156.992.761 6.202M321.78 349.383l.823 6.446M322.603 355.83l.353 4.198M324.19 363.946l-1.074-3.092-.16-.826M324.19 363.946l1.34 3.822M370.513 366.837l1.872-.478M370.513 366.837l-.358-.562M362.273 372.226l6.819-4.608 1.421-.78M372.738 366.878l3.264-1.316M372.738 366.878l.866 1.019M369.732 370.372l1.442-2.126.567-.579.997-.79" clip-path="url(#p3f089ef7e5)" style="fill:none;stroke:#000"/><path d="m372.385 366.36.13.223.223.295M325.53 367.768l-3.287 1.159M325.53 367.768l1.355 4.012M369.732 370.372l7.035 1.136M369.732 370.372l-1.903 3.083M376.767 371.508l.356.405M376.767 371.508l-3.163-3.611M378.295 371.343l-1.172.57M378.295 371.343l.233-.514M374.001 380.654l2.241-4.843 2.053-4.468M362.273 372.226l-4.605 3.087M362.273 372.226l.57.781M362.273 372.226l-1.396-2.005M372.298 374.127l-2.787 1.367M371.14 377.787l1.787-2.025.09-.19-.05-.271-.67-1.174M377.123 371.913l-2.558 1.178-2.267 1.036M369.51 375.494l1.63 2.293M369.51 375.494l-1.68-2.04M369.51 375.494l-3.767 1.712M365.598 376.987l-2.755-3.98M365.598 376.987l.145.219M365.598 376.987l-2.026 3.413M367.83 373.455l-1.552 2.52-.68 1.012M371.14 377.787l-2.942 3.121M365.743 377.206l2.455 3.702M368.198 380.908l-2.33 2.538M368.198 380.908l1.911 2.856M362.84 386.849l3.027-3.403M362.84 386.849l-1.96 2.814M370.109 383.764l-4 4.595-.313.26-.333.086-.305-.075-2.317-1.781M374.001 380.654l-3.892 3.11M374.001 380.654l-1.504 3.233M327.628 386.833l5.777-1.3M327.628 386.833l1.399 3.6M321.089 391.027l4.96-3.316.74-.482.84-.396M321.089 391.027l4.325 2.676M321.089 391.027l-3.769 2.684M317.32 393.711l4.93 3.073M317.32 393.711l-1.981 2.846M298.297 387.802l2.894.502 4.979.84 2.422.575.38.176.314.278.67.983.292.196.422.14 2.444.498 2.008.597 2.198 1.124M315.339 396.557l4.425 2.643M315.339 396.557l-1.274-.6M322.25 396.784l-2.486 2.416M322.25 396.784l3.164-3.081M322.25 396.784l8.129 4.862M350.365 392.509l.311 1.1.337.883.732 1.295.878 1.276M354.188 399.399l-.345-.611-.668-.964-.552-.761M356.18 391.775l-.623.98-1.316 1.964-1.618 2.344M351.78 399.614l-.517-.324-.417-.274-.922-.504-.644-.19-.465-.073M348.573 405.84l-.942-.98-.521-.686-.236-.768.018-.232.075-.334.344-.729.934-1.813.454-1.215.116-.834M325.414 393.703l6.949 4.35M329.027 390.432l-1.3 1.247-2.313 2.024M319.764 399.2l8.854 5.531M316.92 402.022l.918-.935.896-.838 1.03-1.049M351.78 399.614l-3.207 6.226M351.78 399.614l2.408-.215M338.175 401.57l-2.086 3.623M338.175 401.57l-5.812-3.517M355.076 403.694l-4.88 3.559M355.076 403.694l3.89-2.074M354.188 399.399l.287.818.24 1.307.361 2.17M313.463 405.24l.765-.55M313.463 405.24l-1.647 2.021M310.439 406.468l1.487-.59 1.537-.637M336.09 405.193l-5.711-3.547M350.196 407.253l-.931-.762-.692-.651M270.479 407.212l5.556-.089h1.561M287.232 408.245l-2.334-.62-1.514-.287-2.772-.187-3.016-.028M285.689 411.07l-4.071-2.109-4.022-1.838M270.479 407.212l-3.298-.064M270.479 407.212l13.476 6.82M282.355 417.17l-4.077-2.012-1.225-.683-1.674-1.11-1.186-.712-2.793-1.49-3.222-1.607-.526-.441-.244-.316-.117-.332-.11-1.32M287.232 408.245l-1.543 2.825M296.217 410.637l-1.258-.097-2.982-.794-2.915-.902-1.83-.6M303.292 409.014l-.626.243M303.292 409.014l5.673 3.218M306.855 407.831l-1.863.632-1.7.55M296.217 410.637l1.313-.077 1.24-.101M302.666 409.257l-1.3.409-2.595.793" clip-path="url(#p3f089ef7e5)" style="fill:none;stroke:#000"/><path d="m302.611 412.224-1.56-.785-2.28-.98M285.689 411.07l-1.734 2.963M285.689 411.07l6.315 3.148M310.452 409.864l-1.487 2.368M310.452 409.864l5.483 3.128M310.452 409.864l-1.153-.651M308.965 412.232l-1.609 2.565M308.965 412.232l5.458 3.175M314.423 415.407l5.58 3.174M314.423 415.407l1.512-2.415M314.423 415.407l-1.494 2.591M283.955 414.033l-1.6 3.137M283.955 414.033l10.211 5.262M307.356 414.797l-1.912 3.134M307.356 414.797l5.573 3.201M302.611 412.224l.459.243 4.286 2.33M295.864 416.212l.58.304M295.864 416.212l-3.86-1.994M295.864 416.212l-1.698 3.083M296.445 416.516l7.473 3.973M296.445 416.516l-1.725 3.084M282.355 417.17l5.364 2.704M279.448 422.553l.452-.943 2.455-4.44M312.93 417.998l-1.976 3.159M312.93 417.998l5.328 3.17M305.444 417.931l5.51 3.226M303.918 420.489l.977-1.604.549-.954M318.258 421.168l1.745-2.587M314.898 423.54l.424-.16 1.222-.276.436-.18.37-.247.269-.328.639-1.18M294.166 419.295l.554.305M294.166 419.295l-1.757 3.06M294.72 419.6l7.163 3.74M294.72 419.6l-1.772 3.026M287.719 419.874l4.69 2.48M287.719 419.874l.055 2.523M303.918 420.489l5.618 3.148M302.42 422.904l.336-.48.488-.821.674-1.114M310.954 421.157l3.944 2.382M310.954 421.157l-1.418 2.48M292.409 422.355l.539.27M292.409 422.355l-.705 1.356-.74 1.623M287.774 422.397l-8.326.156M287.774 422.397l.088 3.022M279.071 425.538l.001-1.991.376-.994M292.948 422.626l6.228 3.247M291.418 425.426l.781-1.542.749-1.258M301.883 423.34l.538-.436M299.176 425.873l1.257-1.189 1.45-1.344M309.536 423.637l2.666 1.453M291.418 425.426l5.197 2.687M291.418 425.426l-.454-.092M291.418 425.426l-.273.529M287.862 425.42l-8.79.118M287.862 425.42l.006.624M287.862 425.42l3.102-.086M279.071 425.538l.002.69M299.176 425.873l-2.561 2.24M291.145 425.955l-.33-.011M291.145 425.955l-.407.674M287.868 426.044l2.946-.1M287.868 426.044l.109 2.959M287.868 426.044l-8.795.184M279.197 429.248l-.044-1.282-.08-1.738M290.087 427.942l4.307 2.219M290.087 427.942l.651-1.313M287.977 429.003l1.33-.28.405-.26.375-.52M296.615 428.113l-2.22 2.048M287.977 429.003l.05 1.07M287.977 429.003l-2.914.051M285.063 429.054l.22 5.552M285.063 429.054l-2.978.086M282.085 429.14l.204 6.298M282.085 429.14l-2.888.108M279.197 429.248l.258 7.098M288.028 430.074l4.12 2.074M288.028 430.074l.197 3.452M292.148 432.148l1.112-.937 1.134-1.05M292.148 432.148l-3.923 1.378M288.323 435.53l2.82-2.464 1.005-.918M288.225 433.526l-2.942 1.08M288.225 433.526l.098 2.004M285.283 434.606l.05 3.689M285.283 434.606l-2.994.832M282.289 435.438l.257 5.428M282.289 435.438l-2.834.908M288.323 435.53l-2.99 2.765M279.455 436.346l.084 2.722M279.455 436.346l-3.226.824M285.332 438.295l-2.786 2.571M273.74 474.845l-.159-.753-.082-.587.057-.478.368-.771 2.192-4.028.68-1.23.08-.245.039-.33-.114-.726-.015-.28.101-.327.755-1.558.215-.263.31-.176 1.62-.648.198-.136.125-.188.03-.257-.142-1.073-.64-2.918-.929-3.138-.492-1.98-.446-2.599-.295-.995-.479-1.057-.37-.923-.076-.34.072-.303.343-.47 3.005-2.688.654-.575 2.2-1.939M323.298 326.55l-1.477-9.911M319.167 328.137l2.76-1.08 1.37-.507M319.167 328.137l-.5.19M327.65 350.194l.916 2.487M328.566 352.681l-4.436 1.485M328.566 352.681l.374 1.107M328.94 353.788l-1.41.47M339.252 367.643l1.569 3.725M339.252 367.643l-6.348 2.158M347.248 369.238l-3.895-2.36-.534-.174-.425.008-3.142.93M376.002 365.562l-2.322.478-1.295.32M381.643 393.156l-.486-.455-.145-.223-.27-.858-.121-.253-.24-.241-1.203-.759-1.173-.79-.838-.894-.702-.523-1.342-.797-1.089-.89-.665-.839-.534-1.032-.338-.715M292.004 414.218l2.047-1.5 2.166-2.08M350.496 380.734l.887.855M350.496 380.734l-.63-.647M356.866 375.826l-3.46 2.306-1.48 1.272-1.43 1.33M363.572 380.4l-4.972 7.458M363.572 380.4l2.295 3.046M363.572 380.4l-3.074-4.279M314.228 404.69l2.693-2.668M314.228 404.69l6.988 3.836M314.898 423.54l-.816.742-1.309.747-.299.073-.272-.012M302.42 422.904l8.462 4.474 1.32-2.288M337.927 384.618l-4.522.915M339.992 383.764l-.345.344-1.72.51" clip-path="url(#p3f089ef7e5)" style="fill:none;stroke:#000"/><path d="m336.754 382.148.572 1.074.601 1.396M340.228 388.565l-1.32-1.085-.16-.299-.096-.241-.134-1.118-.214-.59-.377-.614M340.821 371.368l-6.671 2.237M340.821 371.368l6.427-2.13M342.928 377.586l-1.665-5.065-.442-1.153M342.928 377.586l-3.831 2.987M348.577 369.63l-.525.507-1.03.98-1.602 1.635-.759 1.09-.698 1.27-.585 1.28-.45 1.194M349.01 383.869l-6.465 5.543M349.01 383.869l2.373-2.28M349.01 383.869l2.417 2.602M349.866 380.087l-1.885 2.138-.114.209.018.164.105.166.669.74.351.365M321.216 408.526l-1.816 3.086M321.216 408.526l3.681 2.06M321.216 408.526l1.782-2.958M334.15 373.605l-3 1.095M334.15 373.605l-1.246-3.804M337.005 381.987l-.381-1.31-2.474-7.072M362.843 373.007l-2.345 3.114M324.897 410.586l-1.793 3.058M324.897 410.586l1.847-2.832M356.18 391.775l1.818-2.995M356.18 391.775l2.699 2.903M356.18 391.775l-3.137-3.473M340.485 382.646l.672-.444M340.485 382.646l-1.388-2.073M339.992 383.764l.164-.684.329-.434M306.855 407.831l2.444 1.382M310.439 406.468l-1.906.704-1.678.66M326.885 371.78l6.019-1.979M328.396 375.586l-.438-.668-.345-.935-.728-2.203M321.454 416.312l-5.519-3.32M321.454 416.312l-1.45 2.269M321.454 416.312l1.65-2.668M347.248 369.238l1.33.393M315.935 412.992l1.525-2.479M328.396 375.586l2.753-.886M333.026 378.878l-2.78-2.013-1.216-.752-.634-.527M328.618 404.731l1.76-3.085M328.618 404.731l-1.874 3.023M330.379 401.646l1.984-3.593M310.439 406.468l.53.305M319.4 411.612l3.704 2.032M319.4 411.612l-1.94-1.099M317.46 410.513l-5.644-3.252M316.92 402.022l6.078 3.546M326.744 407.754l-3.746-2.186M329.027 390.432l4.042-3.802.145-.271.191-.826M360.498 376.121l-1.278 1.382M357.668 375.313l-.36.224M357.668 375.313l1.552 2.19M359.22 377.503l-.63.777M351.427 386.47l.309.337M351.427 386.47l2.461-2.573M360.88 389.663l-.614 1.003M360.88 389.663l-2.28-1.805M358.6 387.858l-.602.922M358.6 387.858l-2.987-2.535M353.888 383.897l.388.35M353.888 383.897l-2.505-2.308M358.59 378.28l-1.362 1.798-2.228 2.578-1.112 1.24M347.074 377.383l2.792 2.704M355.14 372.169l-3.067.389-1.986.59-1.278 1.167-1.735 3.068M341.157 382.202l1.006-.52 1.825-.89.463-.157.427-.027.814.195.282-.07.163-.12.106-.193.831-3.037M353.043 388.302l-.137-.154M353.043 388.302l1.798-2.1M355.613 385.323l-.086-.077M355.613 385.323l-.772.879M354.841 386.202l3.157 2.578M357.998 388.78l2.268 1.886M358.879 394.678l.403-1.676.547-1.457.437-.879M358.966 401.62l.03-1.86-.143-3.268.026-1.814M351.954 387.053l.445.522M351.954 387.053l-.218-.246M350.365 392.509l-.034-.535.202-1.392.59-1.838.403-1.07.428-.621M342.545 389.412l7.82 3.097M342.545 389.412l-2.317-.847M340.228 388.565l.437.616.438.424.24.114.37-.004.832-.303M337.005 381.987l1.24-.864.852-.55M348.577 369.63l1.678-.558 2.18-.915M333.026 378.878l-1.877-4.178M336.754 382.148l-.628-.74-.504-.454-1.296-1.12-1.3-.956M321.821 316.639l-3.262 1.437M320.662 307.483l.162.613.774 6.24.223 2.303M307.305 308.979l-3.68-6.404M310.8 308.59l-1.96.201-1.535.188M320.662 307.483l3.63-.502M320.662 307.483l-3.455.387M315.39 319.47l3.17-1.394M315.39 319.47l-4.59-10.88M310.8 308.59l3.704-.416" clip-path="url(#p3f089ef7e5)" style="fill:none;stroke:#000"/><path d="m307.698 300.973 1.088 2.759 2.014 4.858M326.314 293.554l-.53-3.196-1.06-6.109M325.747 274.612l.29.52.484.882.196.547.295 1.648.256 2.19.13 1.85-.016.413-.152.296-.206.218-1.123.506-1.178.567M321.223 285.616l1.018-.451 2.482-.916M326.314 293.554l.084.744.698 6.413.633 5.335-.009.333-.12.199-.292.101-3.016.302M322.948 294.857l.45 3.53.894 8.594M322.948 294.857l3.366-1.303M322.948 294.857l-3.293 1.45M321.223 285.616l.522 2.124.194.979.101.814.084 1.202.189 1.078.635 3.044M303.008 283.142l-.248.148-1.38.46-.981.394M304.117 292.677l-.972-2.21-1.754-4.4-.992-1.923M352.4 387.575l.88-1.408-1.544.64M352.4 387.575l.506.573" clip-path="url(#p3f089ef7e5)" style="fill:none;stroke:#000"/><path d="m352.906 388.148.915-1.357-1.422.784M355.527 385.246l-.585-.461M354.942 384.785l-.492 1.129 1.077-.668M354.942 384.785l-.666-.537M354.276 384.248l-.426 1.207 1.092-.67M248.642 204.486l2.984-1.725 8.16-4.956 4.527-3.158 13.19-9.216 9.49-6.43 10.802-7.679M289.816 146.324l1.248 4.14 2.424 6.963.47 1.215 1.077 1.912 1.397 4.543.404 2.794.286 1.238.673 2.193M323.005 251.489l-.09-1.015-.37-1.19-1.161-3.434-.337-1.295-.681-2.462-1.245-4.016-2.583-8.025-2.894-8.779-3.079-9.474-2.557-8.325-3.45-10.333-2.12-6.754-.622-2.186-2.103-6.64-1.918-6.239M242.446 208.065l6.196-3.58" clip-path="url(#p3f089ef7e5)" style="fill:none;stroke:#000"/><path d="m248.642 204.486-21.546-22.303 7.722-6.486.69-.388.353-.163.825.163 5.939-4.098 8.816-5.135 12.501-7.094 5.384-2.964 4.307-2.315 9.356-4.374 5.165-2.542 1.662-.463M265.104 97.062l.37.469.454.826 4.122 4.551 7.033 8.375 2.406 3.126.858 1.797.942 2.9 2.827 8.973 2.187 6.835 2.978 9.637.535 1.773M345.915 226.731l-1.11 1.101-8.514 4.73-5.493 2.947-.556.454-.328.542-.867 2.446-2.195 5.028-1.472 3.645-.816 2.016-.59.883-.69.745-.28.22M305.892 258.614l10.962-4.36 3.958-1.561 1.732-.842.46-.362M336.754 382.148l.251-.16M248.642 204.486l45.742 47.35 2.906 2.878 8.602 3.9M349.153 475.547l2.374-4.7M339.082 495.394l1.562-3.11 8.51-16.737M303.788 466.774l1.544-2.02 5.109-5.918.886-1.04.757-.612 1.106-.688.765-.761.724-1.23.69-1.07.933-.785.892-.59.631-.244.686.013 1.392.129 1.245-.06 3.508-.486 1.784-.365 2.01-.599 2.006-.939.913-.198.77.182.694.599.892 1.425.748 1.733 1.229 1.821 1.085 1.782 1.136 1.934.891 1.15 2.667 2.745 1.986 2.477.746 1.328.614 1.5.736 1.61.646 1.408 1 2.902.596.926.577.41.771.304M370.155 366.275l-.391-2.438-.071-.579.055-.583.197-.423.333-.427.597-.57 2.05-1.8.175-.254.09-.261.031-.244-.083-1.336-.169-2.219-.208-5.228-.179-8.407-.084-.353-.15-.263-.384-.243-.92-.287-2.045-.291-2.593-.24-1.479-.11-1.29-.384-1.036-.532-1.64-1.204-.77-.466-.736-.106-2.47.288-1.119.352-2.603 1.917-1.125.597-2.324.77-2.763.578-4.442.05-3.105-.17-2.35-.673-1.8-.68-1.204-.62-1.19-.862-1.36-.846M303.008 283.142l.6-.112M324.517 273.075l-.303.17-.866.243-2.444.097-2.903.198-.883.134-.69.34-1.089.895-1.754 1.295-1.981 1.045-1.493.534-1.531.334-1.165.334-.636.265-.432.298-.428.39-2.065 2.319-.675 1-.171.176M341.157 382.202l.055.428-.025.255-.196.28-.999.599M311.816 407.261l-.846-.488M310.97 406.773l-1.67 2.44M318.56 318.076l-4.056-9.902M317.207 307.87l-2.703.304M313.846 298.4l.298.439.17.33.466 1.311.55 1.114.514.874.738 1.084.116.277.105.559.286 2.097.118 1.385M314.504 308.174l-3.687-8.49M321.223 285.616 318 287.043M319.636 296.177l.019.13M317.493 297.084l.517-.527.366-.291.385-.17.33.004.545.077M318.001 287.043l.348.44.1.343.15 2.083.105 1.247.404 2.178.358 1.636.17 1.207M313.846 298.4l1.88-.71 1.767-.606M313.846 298.4l-3.029 1.283" clip-path="url(#p3f089ef7e5)" style="fill:none;stroke:#000"/><path d="m310.29 289.997.178.465.274.516.559 1.41 1.283 3.133.782 1.814.48 1.065M310.817 299.683l-3.597-8.353M310.817 299.683l-3.119 1.29M307.698 300.973l-4.073 1.602M304.117 292.677l2.995 6.81.586 1.486M303.625 302.575l-4.536-7.891M314.277 278.753l-3.228 1.344M318.001 287.043l-1.245-2.6-1.463-3.303-1.016-2.387M325.747 274.612l-1.953.665-2.722.972-3.197 1.174-3.028 1.093-.57.237M314.755 288.306l-.757-1.522-.312-.778-.875-2.073-1.762-3.836" clip-path="url(#p3f089ef7e5)" style="fill:none;stroke:#000"/><path d="m307.148 281.709.367-.16 2.419-.988 1.115-.464M310.29 289.997l-.112-.367-.387-1.085-.631-1.397-1.035-2.32-.328-.773-.16-.567-.49-1.78" clip-path="url(#p3f089ef7e5)" style="fill:none;stroke:#000"/><path d="m303.608 283.03 1.581-.47 1.959-.851M307.22 291.33l-3.612-8.3M307.22 291.33l3.07-1.333M307.22 291.33l-3.103 1.347M324.517 273.075l.595.548.272.338.363.65M318.001 287.043l-3.246 1.263M314.755 288.306l-4.465 1.69M304.117 292.677l-5.028 2.007M290.814 425.944l-.076.685M290.814 425.944l.15-.61M376.002 365.562l.299-.057M373.604 367.897l2.407-1.562.18-.235.08-.25.03-.345M468.053 629.622l-.724-.975-.938-1.004-3.5-2.55-1.9-1.288-5.376-3.496-4.24-2.688-4.168-2.603-2.095-1.327-6.617-4.396-1.4-.826-1.292-.547-3.205-1.287-2.713-1.392-1.043-.332-2.209-.478-1.051-.449-2.55-1.351-2.834-1.608-2.41-1.218-2.419-1.64-1.867-1.643-1.363-.94-2.306-1.18-1.177-.227-3.357.234-1.632-.08-1.884.186-1.28.113-1.076-.121-2.574-1.07-1.233-.625-.786-.548-1.607-1.482-1.094-.866-1.127-.494-.992-.534-1.7-1.117-1.645-.798-.811-.287-2.987-.226-1.022-.32-.707-.373-3.596-2.246-1.24-.526-1.15-.154-4.399.49-.795-.025-.656-.259-.585-.36-2.734-1.724-1.258-.891-.47-.522-3.441-5.072-1.19-1.79-1.464-3.392-3.38-6.348M339.044 550.565l.15.241.23.225 2.457 1.706 10.141 6.952 1.784 1.846.977 1.415M339.044 550.565l.019-.342.248-1.083.85-3.303 1.32-4.186 1.876-5.383 1.43-4.008 1.157-2.959 1.527-3.793 1.262-2.323 1.85-2.648.648-1.263 1.11-2.46.985-3.782.648-4.914.11-3.846-.01-4.89-.092-5.214-.134-5.327-.236-2.518-.446-3.66-1.01-4.954-.395-3.02-.117-1.595-.117-2.247M378.528 370.829l1.683-3.13.593-.821.742-.664.92-.577 2.012-.907" clip-path="url(#p3f089ef7e5)" style="fill:none;stroke:#000"/><path d="m308.958 555.389 1.184.558.182.038.242-.052.156-.124.903-1.933.58-1.287.614-.712 2.272-1.454 1.64-1.08.695-.324.895-.203 3.018-.038 4.386.095 2.498.14 3.458.524 4.307.356 3.056.672M339.082 495.394l-30.124 59.995M303.788 466.774l.283 2.061.63 4.599.152 1.49-.017 1.17-.223 1.157.021 1.672-.04 1.366-.162 1.634.101 1.145.328 1.134.438.744.736.691 1.256.878 2.352 1.27 2.402 1.133 1.759.51 3.112.49 3.69.186 1.787.3 2.881.797 4.842 1.415 5.386 1.599 3.58 1.18M301.95 456.804l.37 1.262.436 2.267.438 2.689.337 2.429.257 1.323M273.74 474.845l2.55-.418.957-.218.49-.063.566.126.866.461.4.09.896.02.49.147 2.038 1.047 2.873 1.437 1.766 1.012 1.195.704.336.095.454-.058 1.69-.725 1.886-.567 1.275-.477 1.846-.944.907-.368 1.44-.368.572-.26.467-.46.341-.562.305-.485.448-.696.094-.307.013-.249-.112-.264-.746-.891-.08-.257.032-.312.105-.334 2.194-2.424 1.494-1.503M283.615 605.906l-1.56-.1-.774-.125-3.012-.956-3.563-1.022-3.024-.872-.425-.247-.366-.474-.437-.85-.623-1.554-1.573-4.3-.665-2.128-.269-1.198-.143-1.781-.193-2.906-.454-7.707-.91-10.319-.256-2.21-.908-3.21-2.692-10.435-2.25-8.574-1.709-6.493-1.337-5.254-1.615-6.193-1.006-3.635-.105-.66.021-.607.38-1.227.903-2.206 1.01-1.559 1.275-1.882 2.317-4.246 3.815-7.133 1.912-3.418.273-.72.162-.805-.138-.967-1.212-2.955-1.043-2.308-.715-1.57-.16-.385-.08-.437.273-.948.421-1.132 1.174-4.583.21-.567.459-.534 3.272-2.368 4.795-3.587.538-.522.13-.24.062-.315-.06-.637M271.228 630.138l8.428-16.34 3.959-7.892M308.958 555.389l-6.533 13.012-18.81 37.505M360.877 370.221l.752-.821.311-.785-.008-.867-1.127-3.49-.841-1.943-.873-2.016-.15-.42.003-.361.223-.452 4.21-2.574.236-.033.22.083.173.224 5.155 8.03.994 1.479M468.053 629.622l.227.106.225-.017 2.404-.692M302.666 409.257l-.055 2.967M357.98 413.296l.688.395.686.136.795-.057M356.866 375.826l.443-.289M356.866 375.826l1.724 2.454M355.14 372.169l2.169 3.368M360.877 370.221l-.13.142-1.111.827-1.472.526-2.846.43-.178.023M582.085 244.33l2.41 1.933 12.047 21.378 2.053 3.142M575.95 247.48l4.089-1.947 2.046-1.204M575.95 247.48l-.573-2.405-.707-1.88-.673-2.85-.572-6.771-2.894-27.408-.135-2.268-.976-2.624-.942-.875-2.052-1.231-.74-.745-2.49-3.013-2.222-2.17-3.029-2.528-3.566-2.689-3.836-3.888-2.995-2.073-1.649-.94-1.211-1.134-.808-.518-.976-.356-1.817-.324-2.456-1.523-5.317-4.211" clip-path="url(#p3f089ef7e5)" style="fill:none;stroke:#000"/></g><g id="PatchCollection_1"><path d="m-78.483 713.354.925.485 1.16 1.166.253-.227.202-1.068.235-.243.337.032.59.438.655.858.64.226 2.17.324 1.06.033 1.413.404.337-.016.488-.502.639-.388 2.406-.956 1.093-.971 1.296-.712.774-1.134 1.615-.728 2.154-1.927 3.432-1.101 2.322-.258.337.08 2.086 1.878 1.817 1.214 1.8 1.878.253.308 1.026 3.238 1.06 1.91.522.55 1.598 1.02.96.438 1.026.291 7.184.518 1.766 1.668.657.307 1.144.357 1.918.226 2.372.502.724.016 1.548-.34 1.413-1.246.706-.826.74-1.538.186-3.4.841-3.06.101-1.084-.117-.648.47-1.392.758-1.28.504-.582 1.683-1.36.605-.275 1.06.599 1.969 2.024 1.867 1.198.387.615.135.712-.252 1.749 1.211 2.055.573.519.757.242 3.5.632 2.237.777 3.247.745.64.275.942.793.639.34.707.178.706.05.555-.422.657-.194 2.086-.016.354.08 1.732-.987.354-.033 1.043.017 2.457.858 1.682-.615.521-.923.017-.972-.303-.696-.403-1.878.05-1.392-.69-1.522-.807-.89-1.397-.858-2.17-.826-.169-.291-.067-1.49-.437-2.607-.353-.599-.791-.776-.101-.373v-.68l.235-.632.135-1.359.379-1.044.984-1.781 2.002-.737 2.423-1.214 1.674-.55.976-.972.799-.453.539-.745.52.64 1.675-.106.698-.486.942.041.976.26.488.275 1.649 2.233.337.697-.051.922-.841 1.571.168 1.595 1.321.064.891-.647 1.002-2.3 1.102-1.578.387-2.485.589-1.49-.025-1.02.378-1.376-.06-1.505.287-.818-.361-.582.126-1.166.277-.219.816-1.44.505-1.83.732-.631.681-1.158.564-.445-.008-.34-.463-.39-.312-.485-.042-.372.22-.243 1.026.016 1.05.778.59.161 1.657-.218.513-.267 1.717-.05 1.556.284 1.068.462.43.016.765-.162.816-.55 3.424 1.392.942.259.808-.024 1.237-.615 1.43-.114 1.396-.59.858 1.068.757.656.564.17.925-.09.059-.744-.185-.705-.294-.25-.909-.268-.412-.396.429-1.19.547-.899.033-.542-.597-.648-1.674-.024-.379-.138-.395-.445-.597-1.724.202-1.085-.135-1.53.42-.64.875-.906 1.245-.971.076-.162-.505-.907-.05-.348.488-.81.345-1.109-.32-1.489 1.607-3.011.757-.883.16-.558-.118-.13-2.423-.308-2.877-.777-1.388-1.287-.656-1.141-.26-2.825-.792-.543-.21-.315-.109-.689.285-.898 1.137-.915.934.356 1.446.267 1.598.745.8.13 1.53-3.012-.091-2.711-.8-2.178-.513-2.243-.009-.664.32-1.683-.143-2.09-.967-2.468-.017-.858.69-.923.53-1.49.707-.606.294-.454.799-1.837 1.683-.688.235-.251 2.095-1.11.177-.34-.068-.494-.454-.906-1.06-1.182-2.995-2.518-.277-1.06-.051-1.57.564-2.04.765-.875 1.111-.535.765-.202.328-.235.22-.485.075-1.328.353-.688 1.902-.389 1.278-.995 3.029-.575 1.977-.616.664.187 2.49-1.012 1.044.267.967.615 1.556-.04 1.22-.664.496-.518 1.658-2.235.176-1.295.194-.291.723-.284 1.447-.259 1.397.826.404.405.42.461.514 1.23.37 1.223 1.017 5.157.026 2.307.521 1.012 4.047.94 5.056 1.901.765-.104.926-.478.815-.85.817-1.328-.228-1.716-.563-.964-.278-.194.236-1.465-.631-.882-.059-1.264-.303-1.011v-.194l.8-.713-.035-1.417.362-.81-.378-1.108-.084-.664-.598-1.303-.925-1.101-.387-.34-1.127-.292-.58.008-1.027.389-1.296-.024-1.211-.924-.925-.485-.496.178-.32-.137-.328-.244-.16-.866-.413-.324-.42-.793-1.128-.81-3.726-3.343-1.069-.615-1.135-1.215-2.078-1.627-3.55-.801-1.178-.397-.774.348-1.817-.518-1.464-.802-.286.106-1.178-.688-.521-.689.109-.501-.101-.648-1.405-1.643-.715-1.053-.37-1.587-1.371-1.23-.707-.38-.622-.535-.22-.559.119-.704.555-.09.74.18.513.55.32.566 1.354 1.142.673.923 1.893 1.158 1.556 1.222.783 1.32.286.202 2.103.178.572.648 1.228.356.261-.17.06-1.02 1.841.048.152.073-.059.955 1.026.292.219-.275.219-.68.15-1.344.186-.097 1.161.583-.118 1.068.303 1.425 2.12.664.976 1.052.32.178 3.583.583.606.356.387.033.673-.227 1.195-.76 1.093.113.32-.13.555-.437.353-.6.623-.356 1.094-.97.185-.713.875-1.911 1.581-1.603 1.615-2.137.606-3.546-.033-1.036-.388-1.004.051-.34.219-.648.47-.486.22-.81.185-.29.639-.438.471-1.247.707-.744.303-.616.067-.987-.521-.94.016-1.068.152-.308.875-.664 1.312-.518 2.608.081.707.243.336-.13 1.565-1.392 1.262-.68.505-.485.488-.907-.034-.34-.454-.47.1-1.328.118-.323.303-.227h.37l.606.405 1.783.502 1.531.08.37-.048.27-.227.252-.29.539-1.636 1.076-1.814.219-.68.034-.761-.168-.664-1.06-.907.437-.664.236-.275 1.312-.599.96-1.522.251-.632.539-.68 1.598-1.036h1.094l.774-.162 1.985-.874.774-.178 1.514-.94 1.851-1.829 1.296-.971.454-.68.151-.68.724-1.409.723-.178 1.414-.081.521-.454.64-.275.504-.955v-.729l-.42-.89-.169-2.656.084-.324.69-.016 1.263.648.538.453.606.858.908.616 1.295 1.198.37.048 1.044-.987.757-1.782.253-.226.302.178.505.89 1.615 1.49.286.243.673.162 3.483.017.336-.098.825-.68.353-.016.101.34.286.243.353.016.522-.437.152-1.036.202-.276.656-.292 1.514-.161.774.275.572.907.79.761 4.56 2.51 1.742.186.328-.292 1.32-.186.253.899-.353-.105-.328.113-.202.267.017.332.202.276.546-.009.236-.154 1.421 5.813-.185.761-1.01.033-.285.194-.353.648-.74 2.364-.792.63-.58-.112-1.153-.72-1.488-.357-.682-.243-.53-.785-.311-.648-.126-.113-1.784-.632-.976-.08-.37.113-1.49.85-.781.25-1.338.575-1.06.308-1.043.462-2.137.688-.092.146-.488.42-.934.47-1.91.291h-1.186l-1.8-.242-1.044-.268-.958-.024-1.607.826-.707.77-.202.542-.202 1.052.009.202.252.664.017.178-.11.34v2.842l.076.348.396.55.37.778.017.162-.69 1.198-.463.704-.53.55-1.06.762-1.455 1.384-.37.275-.564.292-.664.51-.522.599-.412.372-1.153.761-.303.64-1.85 1.87-.387.146-1.296.064-.841-.332-1.658-.793-2.002-.227-1.068-.412-1.624-.348-1.497-.195-2.095-.008-.656.073-1.145.397-1.53.259-1.136.332-.412.226-.631.535-.8.947-1.295 1.198-.244.315-.438.818-1.009 1.441-.387.916-.496.93-.177.55-.151.761-.042 1.264.15.494.32.121.178.316.042.388-.16.42-.572.592-.673.316-.312.226-1.262 1.636-.748.696-1.447 2.72-.505 1.223-.925 1.449-1.364 3.02-.664.712-1.48 1.068-.295.308-.134.357.117.372.27.316.496.388 1.404.834 2.037.858.58.34.95.081.337.202.412.397.782 1.247.177.93-.16 1.522.017.203.185.324.303.25.59.309 1.42.396.758.13-.732 1.66-.504.331-.581.235-.168.146-.194 2.323-.31 2.218-.027.583.06.186.26.251 1.557.494.31.203.102.137.084.348-.353 1.376-.025.697.52.607.312.243.438.534.075.202.16 1.409-.117.137-.177.066-.379.023-.782-.274-.673-.057-.841.267-1.7 1.158-.824.202-.824.057-2.533 1.732-.42.154-.497.291-.53.518-.942.365-.303.712-.378.13-.614.08-.631.179-.808.056-.387-.113-.825-.47-1.102-.242-.143-.34-.21-.292-.681-.43-2.02-.217-.412.105-1.421.048-.9-.485-.572-.22-.404-.072-1.17-.024-.378-.097-.328-.194-1.624-.17-1.455-.462-.732-.421-.11-.137.034-.357.833-1.287.194-.72.773-1.466.042-1.012-.218-.494-.337-.429-.513-.283-.202-.048-.605.024-1.742.672-.269.25-.169.34-.1.51v.535l.218.728.58.94.211 1.667-.017.98-.16.397-.429.688-1.085 1.084-.202.486-.134.138-.513.178-1.27 1.425-.32.21-.555.178-1.094.122-.354.097-1.514 1.675-.656.519-1.018.518-2.7.93-1.641 1.62-.622.372-.707.219-2.154.024-.185.04-.26.244.361.8-.816 1.515-.235.574-.202.915.521 2.85-.034 1.756-.176.567-.438.826.194 2.817.042.162.135.145.353.138 1.725.032.362.098.168.113.219.324.294.801-.303.931-1.052.956-.665 2.776-.698 1.304-.05 1.497.294 1.15.892 1.19.303.202 1.439.591.412.348.336.648.135.542-.084 1.093.025.93-.294 1.037.488.874.151.753v.753l-.193.316-.185.064-.572-.016-1.204-.283-.37-.024-.707 1.076-1.127.858.143 1.538.126.94.261.517.168.065.715-.429.632-.097.353.073.345.154.74.574.471.891.236 1.028.647 1.643-.37 1.773-.21.486-1.11 1.044-.438 1.813-.26.446-.346 2.428-.614.688-.42.81-.076.502.059 1.627-.194.307-.387 1.684-.345.72-.488.333-.95.348-1.136.194-1.472.08-.37-.056-1.313-.543-1.329-.42-2.768-.43-2.187.017-.53-.187-.302-.266-.505-.22-.362.009-.547.137-.513.236-2.095.437-.64-.567-.445-.3.025-.161.69-.22.412-.331.118-.316-.025-.17-.152-.13-.336-.137-.353-.056-1.313.04-.942-.324-.8-.186-.73.073-.346.154-.379.275-.664.72-.177.098-.362.04-.328.17-.16.364-.142.51-1.07 2.671-.05.543-.26.485-.37 1.02-.017 1.441-.463.543-.438 2.525-.008.365-.177.51-.395.396-.429 1.563-.765.639-.404.43-.421 1.57v.202l-.462.866-.682.818-.673.372-.126.138-.808 1.765-.816 1.011-1.632 1.643-.588.802-.152.324.042.51-.168.008-.53-.94-.202-.582-.27-1.303-.176-.324-1.464-1.238-.379-.632-.353-.907-.151-.736-.202-.502-.791-.437-.16-.324-.227-.915-.42-.655-.185-.049-1.103.251-1.926-.097-.707.429-.126.186-.648.575-1.598 1.076-.11.138-.025.17 1.103 1.732.58.672.521.794.362.72.463.583.589.477 2.894 1.392v2.486l.109 1.279.656 2.42.833 1.61.084.333.437 1.092-.403.672-.084.34.042.39 1.278 1.877.22.567.016.72-1.632 2.809-2.339 1.457-1.043.396-1.59.211-2.313.04-.774-.096-2.877-.138-1.834-.567-.16-.089-.236-.275-.193-.073-1.733-.048-1.767-.616-2.827-.696-.361-.186-.774-.251-.9-.502-3.121-1.376-1.044-.405-1.169-.348-.58.275.084.972.151 1.1-.353 1.685-4.055 5.245-1.043 1.133.454-2.85.555-2.266.993-1.214.74-.437.404-1.069.202-1.036-.134-.825.353-.68.269-.227.387-.615v-.324l-.185-.275-.572-.373-3.281-.76-.252-.21-.455-1.345-.117-3.934-.152-.647-.27-.616-.69-.307-1.379.13-.639.34-.64.809-.672 1.7-.152 1.765-.151.647.033.696 1.447 2.024-.185.728-1.178 1.878-2.22 1.198-1.549.664-2.944 1.91-1.177.163-2.003.518-1.06-.033-2.372-.842-2.137-1.457-.959-1.1h-8.884l-1.043-1.037-1.211-1.522-2.423-2.007-.505-.907-.42-2.072-.489-.6-.571-.485-1.346-.485-1.531-1.571-.64-.89-.774-.664-.353-.113-.673.145-1.649 1.069-1.161.486-.925 1.36-.286.178-1.33.582-1.177.195-1.01.356-1.396.777-.774.81-.825 2.023-.605.502-1.077.324-3.08.016-1.21.68-.69-.097-2.053-.632-.64-.324-1.665-1.181-1.043-.227h-1.026l-1.952.405-.354-.065-.505-.453-.084-1.458.387-1.052.455-.534zm143.249-97.74-.084.21.723.308.942-.114 1.111-.583 2.019-.712.976-.777.875-.26.084-.518-.37-.63-.96.08-2.725 1.344-1.127 1.085-.825.113zM310.142 384.328l-.895-.245-2.234-.46-1.027.017-1.764.326-1.988-.213-1.865-.564-1.147-.424-2.271-.275-1.952-.097-4.492-.55-3.026-.014-2.592-.502-2.254-.324-3.053-.838 3.693-.555 2.877.032 3.312.062 3.6-1.084 1.7-1.522 1.814-.088 1.466-.317 1.75-.357 1.747.236 1.352-.444.99-.44.841.568.555.955.892.664 1.868.745 1.918.664.869.432.965-.408zM375.639 388.078l.47.114.27.178.15.155.338.541-.085.34-.487.356-1.296.665-.623.518-.269.842.05.874-.824.794-.84.42-.523.438-.32.599-.363.341-.191-.13-.169-.778v-.793l.286-.567 1.144-1.069.253-.648.286-.68.471-.615.555-.923.74-.664zM547.997 145.41l3.381.29.017.6.067.729.22.566.453.486.808.583-.084.405-.757.551-.42.648-.337.632-.253.874-.134 1.231.151 1.134-.404.907-.605 1.198-.522.891-.69 1.312-.538 1.604-.286 1.393-.437.825-.842.454-.942.13-.47.453-.237.518-.639-.194-.622.08-.791-.064-.69.033-.74.226-1.128.746-1.262.307-1.211.875-1.178.955-.69 1.166-.303 1.216.354.42.757.438 1.279.696 1.093.519.976.647 1.65.956 1.21.535 1.262.534 1.212.89 1.598.713.224.342-.729.355-1.077-.405-1.093-.583-.841-.761-.791-.276-1.447-.664-.976-.356-.522-.486-1.211-.243-.824-.243-.925-.145-.54-.05-1.043-.388-1.631-.032-1.094.259-1.7.939-.84 1.02-.37 1.005.033 1.603.303 1.603.605 1.086.859.793 1.464.584 1.143.388 1.262.357 2.676.81 1.295.29 1.565.551 1.01.421.858.875.404 1.345.067.68.202.89.37.794 1.346 1.231.555.777.79.632.085.875-.169.729-.37.826-1.144 1.247-.908.453-1.043.405-1.145.227-1.262.583-1.379 1.28-.976 1.004-.841 1.247-1.077 1.862-.606.843-.925.615-1.38.518-1.144-.065-1.093.065-.438-.21-.505-.81-.286-1.15-.252-2.867-.085-1.393.286-.923-.1-.76-.472-.682-.807-.275-1.11.195-1.531 1.408-2.44 1.783-1.733 1.311-1.077.745-.993 1.085-1.11.988-.892.616-.959.307-1.278.827-1.784 1.295-1.077.502-1.278.081-2.558.502-1.969.081-1.43.567-1.447.146-1.766.55-1.279.891-.202.486-.151.794.353 1.182 1.144.777.908 1.296 1.111 2.025.488 1.344.236 1.069.757 1.328.185.778-.135.728-.79.907-1.515.729-1.228 1.069-.64.291-.53-.006.211-.642.824-1.133.707-.89.942-.681.623-.664.084-.713-.522-.956-.808-1.635-.622-1.085-.707-1.166-.067-1.07-.521-.517-.841-.6-.976-.728-.488-.714v-.809l1.497-1.96.555-.372.522-.567.32-.745.588-.162.791.016.42.34.489.114.69-.13 1.581-.81 1.077-.226.824-.017 1.43-.145 1.414-.26 1.447-.356.504-.421 2.323-1.23 1.648-1.28 1.38-.859 1.245-1.182 1.498-.956 1.581-1.603 1.026-.794.942-1.069 1.111-.68 1.414-.923.874-.437 1.97-.421.958.08.64.34.319.908.084 1.652-.27 2.283.338 1.41.1 1.214-.1.955.504.794 1.077-.032 1.312-.875 1.413-2.3.926-1.392.942-1.523 1.346-.956 1.548-.68 1.06-.567 1.027-1.004.37-.713-.051-1.182-.605-.89-.657-1.053-.622-1.215-.707-1.215-.606-.729-1.144-.712-2.002-.47-2.137-.47-2.254-.21-1.161-.26-.791-.55-1.01-.874-1.06-1.377-.959-1.458-.656-.826-.387-1.263-.235-1.134.15-2.349.876-.988 2.221-1.247 1.8-1.587 1.195-1.571 1.144-1.96 1.11-1.23 1.027-1.329 1.9-.923 1.397-.696 1.767-.308 1.599-.292 2.389-1.1 1.413-1.086.471-1.669.909-1.846.134-1.83-.505-1.814-.723-.826-.455-1.587-.117-1.021.218-1.036.842-1.02zM639.92 263.077l-.164-.704.036-.563 1.335-1.479.731-.07.677.3.823.035.731-.053 1.024-.3-.092.265-.475.704-.64.915-.329.88.238.756.494.828.438.845 1.134 1.108.658.898.494.739.694.44.805.282.951.58 1.134 1.18 1.115 1.25 1.28 1.32 1.353 1.161.914 1.09.878.687 1.079 1.004 1.023.44.805.932.475.775.476.898.987.387 1.28.052 1.116-.105 1.188.3.768.967.694 1.672.015 1.84-.508-.696-.804-.88-.915-.721-1.097-.282-.622.088-1.261.299-.97-.3-1.151-.51-.896-.844-.493-.793-.732-.351-.713-.053-.878.053-.713-.07-.274-.37-.092-.634.055-1.126-.164-1.267-.44-.458-1.115-.792-.896-.88-.987-1.11-1.39-1.354-1.48-.933-1.226-.722-1.078-.721-.805-.986-.75-1.267-1.188-1.144-1.335-1.601-.621-.67zM613.161 228.69l2.86-2.101 3.986-2.1.893.62.992 1.528.844 1.72 1.34 1.718.892 1.863.546 1.528.446 1.91-.446 1.385.099 1.432 1.29.43.992-1.05h2.034l.645 1.05.595 1.72-.247 2.387-.05 2.436.794 2.626 1.785 2.626.546 2.34-.355 2.526-1.53-1.523-2.331-2.197-.844-1.957-1.34-2.484-1.885-1.241-1.24-.716-.992-1.91.397-2.102-.943-.19-1.488.477-1.488.143-.05-.955.397-.812.298-.955-.298-1.29-.843-1.527-1.935-1.624-1.985-2.627-1.835-1.862z" clip-path="url(#p3f089ef7e5)" style="fill:#00f;fill-opacity:.8"/></g><g id="PatchCollection_2"><path d="m322.662 405.542-1.55 2.545-6.143-3.57 2.121-2.133zM367.85 374.246l.85.986-2.125.874zM351.409 381.979l2.106 1.97-2.032 1.975-2.073-2.106zM348.123 382.38l.925.93 1.603-1.619-1.027-.992zM351.669 386.472l1.4 1.543 2.31-2.628-1.363-1.154z" clip-path="url(#p3f089ef7e5)" style="fill:green;fill-opacity:.8"/></g><g id="PatchCollection_3"><path d="m296.844 415.558 5.688 2.875 1.936-3.35-5.643-2.89zM361.511 360.469l2.432 4.526 3.5-1.765-2.642-4.453z" clip-path="url(#p3f089ef7e5)" style="fill:#90ee90;fill-opacity:.8"/></g><path id="PatchCollection_4" d="m340.109 380.16 1.197 1.51 1.813-1.371-1.262-1.511z" clip-path="url(#p3f089ef7e5)" style="fill:#006400;fill-opacity:.8"/><g id="PatchCollection_5"><path d="m328.315 380.55 1.616.938 2.523 2.818 3.413 2.563 5.976-1.332 2.153-2.623-.067-4.664 1.548-4.373 4.913-3.562 6.225-1.393-.572-3.27-2.321-1.167-3.938 1.457-6.225-.874-2.894-1.587-3.802-5.798-.135-7.805 1.01-6.834-2.524-2.59-8.345-7.418-2.39-13.539 1.01-6.704.067-4.827 4.711-.68-.47-13.344-1.246-10.883-6.326 1.684-2.692-6.284 7.302-4.243-2.12-1.878-7.269.55-2.187 1.296-4.139 2.527-3.365-.195-4.071 1.101-2.962-1.684-5.788-1.166-8.11 2.526 10.365 16.52 10.33 18.59 8.548 16.455 2.692 13.862.134 10.818 1.414 11.142.807 14.12 2.086 1.555 3.635-.842z" clip-path="url(#p3f089ef7e5)" style="fill:#d3d3d3;fill-opacity:.8"/><path d="m367.484 407.496.068 2.914-1.616 2.332-2.086 3.11-1.278 4.34-1.549 2.655-5.115-.842-1.009-6.154-5.249-5.83-4.577-5.376 3.365-7.643-3.028-3.627-7.942-2.915-.471-1.166.068-1.037 2.893-1.214 2.592.08 2.321-2.007.976-1.765.169-3.822 2.036-2.785 6.107-3.79 1.06-1.246 3.634-.535 1.582-.955 1.01-1.344-.506-2.17-2.607-7.32 3.87-3.126 2.59-.987 1.229.34 1.598 4.291 3.113 3.628 3.382.631 5.182-1.004 4.29-.486 1.784-.696 3.583 1.037.404 1.651.253 1.846-2.003 1.538-2.725-.501-1.599-.923-.69.145-2.388 1.766-1.145 2.736-2.776 11.465-.37 1.733.101.874-3.837 5.911-2.001 2.122-2.104 5.57-2.86 4.875z" clip-path="url(#p3f089ef7e5)" style="fill:#d3d3d3;fill-opacity:.8"/><path d="m285.041 443.639 15.48-13.602 4.172-2.85 9.69 2.332 7.27-7.773 9.018-1.943 6.057-3.11 4.71-4.663-1.48-5.182 2.356-4.632 1.985-.485 3.026-1.573-.838-2.605-3.77-1.555-6.056-2.397-5.788-.55 3.13-4.89 1.278-1.166-2.827-2.689-2.86-.13-1.683.39-3.33 2.914-3.5 1.296-5.014 2.85-3.365 1.425-.539 2.59 2.22 3.693-2.624 3.498-5.855 3.044-10.297 2.656-11.71-2.915-12.383-.518-6.326.453.942 4.275 7.74 6.608 2.22 5.246-2.356 7.384-2.691 5.052 2.422 11.4 8.21-.518z" clip-path="url(#p3f089ef7e5)" style="fill:#d3d3d3;fill-opacity:.8"/></g><g id="PatchCollection_6"><path d="m353.008 385.578.177-.211.17.132.1-.12.85.66.092-.11.262.203-.641.766-.286-.22.118-.141-.826-.64.155-.186zM298.796 170.206l.181.209-.26.21-.182-.208zM346.96 380.415l.946.737.417-.496-.946-.738zM314.807 405.115l-.47.847 1.147.65.533-.82zM286.652 421.516l.035.6.73-.009-.01-.608zM362.873 374.933l-.932 1.045.48.4.94-1.08zM358.196 375.419l.488.663.092-.064.303.38-.092.098.277.323 1.085-1.077-.48-.574-.445.323-.437-.647z" clip-path="url(#p3f089ef7e5)" style="fill:#a9a9a9;fill-opacity:.8"/></g><g id="PathCollection_1"><defs><path id="m5d9c1aebd0" d="M0 3a3 3 0 1 0 0-6 3 3 0 0 0 0 6z" style="stroke:#a9a9a9;stroke-opacity:.8"/></defs><g clip-path="url(#p3f089ef7e5)"><use xlink:href="#m5d9c1aebd0" x="350.955" y="386.844" style="fill:#a9a9a9;fill-opacity:.8;stroke:#a9a9a9;stroke-opacity:.8"/><use xlink:href="#m5d9c1aebd0" x="350.694" y="386.591" style="fill:#a9a9a9;fill-opacity:.8;stroke:#a9a9a9;stroke-opacity:.8"/><use xlink:href="#m5d9c1aebd0" x="347.677" y="381.347" style="fill:#a9a9a9;fill-opacity:.8;stroke:#a9a9a9;stroke-opacity:.8"/><use xlink:href="#m5d9c1aebd0" x="352.923" y="379.039" style="fill:#a9a9a9;fill-opacity:.8;stroke:#a9a9a9;stroke-opacity:.8"/><use xlink:href="#m5d9c1aebd0" x="353.448" y="378.683" style="fill:#a9a9a9;fill-opacity:.8;stroke:#a9a9a9;stroke-opacity:.8"/><use xlink:href="#m5d9c1aebd0" x="355.695" y="375.849" style="fill:#a9a9a9;fill-opacity:.8;stroke:#a9a9a9;stroke-opacity:.8"/><use xlink:href="#m5d9c1aebd0" x="355.917" y="376.991" style="fill:#a9a9a9;fill-opacity:.8;stroke:#a9a9a9;stroke-opacity:.8"/><use xlink:href="#m5d9c1aebd0" x="361.97" y="377.444" style="fill:#a9a9a9;fill-opacity:.8;stroke:#a9a9a9;stroke-opacity:.8"/><use xlink:href="#m5d9c1aebd0" x="362.231" y="375.42" style="fill:#a9a9a9;fill-opacity:.8;stroke:#a9a9a9;stroke-opacity:.8"/><use xlink:href="#m5d9c1aebd0" x="358.862" y="373.958" style="fill:#a9a9a9;fill-opacity:.8;stroke:#a9a9a9;stroke-opacity:.8"/><use xlink:href="#m5d9c1aebd0" x="359.24" y="374.618" style="fill:#a9a9a9;fill-opacity:.8;stroke:#a9a9a9;stroke-opacity:.8"/><use xlink:href="#m5d9c1aebd0" x="362.702" y="371.452" style="fill:#a9a9a9;fill-opacity:.8;stroke:#a9a9a9;stroke-opacity:.8"/><use xlink:href="#m5d9c1aebd0" x="365.28" y="370.691" style="fill:#a9a9a9;fill-opacity:.8;stroke:#a9a9a9;stroke-opacity:.8"/><use xlink:href="#m5d9c1aebd0" x="365.756" y="370.352" style="fill:#a9a9a9;fill-opacity:.8;stroke:#a9a9a9;stroke-opacity:.8"/></g></g></g></g><defs><clipPath id="p3f089ef7e5"><path d="M130.221 86.4h477.558v554.4H130.221z"/></clipPath></defs></svg>