<svg xmlns="http://www.w3.org/2000/svg" width="960" height="960" viewBox="0 0 720 720"><defs><style>*{stroke-linejoin:round;stroke-linecap:butt}</style></defs><g id="figure_1"><path id="patch_1" d="M0 720h720V0H0z" style="fill:#fff"/><g id="axes_1"><path id="patch_2" d="M101.475 640.8h535.05V86.4h-535.05z" style="fill:#fff"/><g id="LineCollection_1"><path d="m211.316 504.574 1.172 9.69M211.316 504.574l1.614.053 1.304.238 3.399 1.212M199.457 506.078l4.27-.677 7.589-.827M216.922 501.593l-3.183 1.978-2.423 1.003M334.261 489.502l-1.958-.26M483.346 499.749l-9.401-.84-7.575-.996-10.738-1.416-18.2-2.3-12.9-1.593-12.23-1.57-13.5-1.66-17.043-2.256-6.817-.708-5.948-.332-2.584-.022-3.442.166-7.875.763-6.3.794-2.315.293-12.217 1.43M332.496 489.956l.552-.147 1.213-.307M326.66 487.622l-2.316.163-5.309.617M331.102 485.488l-1.33.654-1.272.521-.831.36-1.01.599M326.66 487.622l4.674 1.429M327.453 493.425l5.143-.44M327.453 493.425l3.478-2.419.14-.155.144-.395M327.453 493.425l-7.682 1.111M252.065 560.743l-.923.1M252.065 560.743l-.984-6.538M269.474 557.68l-10.733 1.309-.696.138-.3.081-.173.101-.616.482-.286.11-.496.122-.908.138-3.201.582M217.633 506.077l.899 7.537M217.633 506.077l3.32.516.926.021 3.435-.25 4.747-.529M336.624 529.604l-.663-5.567M336.624 529.604l-12.276 1.193M324.794 536.284l5.459-.5 2.517-.133 1.76.023h.602l.446-.09.367-.12.214-.14.282-.281.41-.684-.227-4.755M332.596 492.985l-.171-.923M332.596 492.985l.468 4.604M218.532 513.614l.652 6.037M218.532 513.614l12.134-1.562M218.532 513.614l-6.044.65M333.261 499.527l-12.797 1.319M333.261 499.527l-.197-1.938M333.261 499.527l.596 5.86M219.184 519.651l12.243-1.426M232.167 524.325l-9.698.983-1.243.077-.59-.216-.56-.34-.218-.4-.316-1.448-.358-3.33M333.857 505.387l.571 5.619M333.857 505.387l-12.613 1.509M333.857 505.387l9.924-.542M353.22 504.35l-8.935.468M245.125 522.565l-12.958 1.76M245.125 522.565l.395 3.608.188.829.324.387.368.31 1.209.596M245.125 522.565l-.78-5.87M232.167 524.325l-.74-6.1M232.167 524.325l.287 4.168M259.211 520.468l12.508-1.648M259.211 520.468l.808 6.255M259.211 520.468l-.71-5.63M334.428 511.006l.842 6.565M334.428 511.006l-12.46 1.672M247.609 528.295l12.41-1.572M247.609 528.295l2.083 16.116M247.609 528.295l-1.745-11.783M335.27 517.57l.691 6.467M335.27 517.57l-12.52 1.456M286.773 528.869l13.542-1.602M286.773 528.869l-.836.078M286.773 528.869l-.69-5.428M286.773 528.869l.593 5.49M300.315 527.267l12.71-1.281M300.315 527.267l.677 5.627M300.315 527.267l-.67-5.543M335.961 524.037l2.789-.174M335.961 524.037l-12.426 1.179M287.366 534.36l13.626-1.466M287.366 534.36l-.699.077M287.366 534.36l.62 5.185M283.197 499.285l13.557-1.918M281.988 493.09l.58 1.251.344.84.157.785.055 1.073-.044 1.328.117.918M283.197 499.285l-1.038.142M283.197 499.285l.751 6.297M282.16 499.427l.82 6.23M282.16 499.427l-3.076.39M286.667 534.437l.645 5.17M286.667 534.437l-12.993 1.488M286.667 534.437l-.73-5.49M308.282 489.596l-26.294 3.495M308.282 489.596l.97 6.356M308.282 489.596l10.753-1.194M309.252 495.952l10.519-1.416M310.055 502.239l-.419-3.277-.384-3.01M309.252 495.952l-12.498 1.415M312.192 520.24l10.557-1.214M312.192 520.24l-12.547 1.484M312.192 520.24l.833 5.746M312.192 520.24l-.819-6.268M314.255 537.167l-.359-5.549M314.255 537.167l-12.722 1.12M314.255 537.167l10.54-.883M314.255 537.167l-.018 4.485M326.044 550.011l-.525-4.612M326.044 550.011l.244 2.204M326.044 550.011l-11.606 1.176M324.348 530.797l-10.452.821M324.348 530.797l-.813-5.581M324.348 530.797l.446 5.487M319.77 494.536l-.735-6.134M319.77 494.536l.694 6.31M319.035 488.402l-1.006-10.41M296.754 497.367l.73 6.553M300.992 532.894l12.904-1.276M300.992 532.894l.541 5.393M269.64 500.9l8.096-.916M269.64 500.9l.759 6.253M269.64 500.9l-12.751 1.596M271.088 513.176l12.657-1.475M271.088 513.176l-12.586 1.662M271.088 513.176l.63 5.644M271.088 513.176l-.689-6.023M272.493 525.069l12.737-1.55M272.493 525.069l-12.474 1.654M272.493 525.069l-.774-6.25M272.493 525.069l.546 5.4M254.277 484.651l.898 5.77M254.277 484.651l5.928-.783M254.277 484.651l-12.266 1.304M255.175 490.42l.87 5.728M255.175 490.42l-12.604 1.054M256.045 496.148l-12.453 1.588M256.045 496.148l.844 6.348M256.045 496.148l21.034-2.4M256.889 502.496l.765 6.355M256.889 502.496 244.358 504M242.571 491.474l-.56-5.52M242.571 491.474l-1.356-.07M242.571 491.474l1.021 6.262M241.215 491.404l-12.711.926M241.215 491.404l.78 6.494M234.404 483.538l4.009-.6.69-.111.635-.034.193.053.153.058.3.243.134.194.134.27.167 1.184.033 1.438.363 5.171M228.504 492.33l.865 7.173M228.504 492.33l6.316-4.319M216.186 493.563l3.133-.221 9.185-1.012M281.988 493.09l-3.649.503" clip-path="url(#p44c24ca44f)" style="fill:none;stroke:#000"/><path d="m409.94 277.72.224 1.18 1.548 7.653.445 1.278.713 1.492.396.77 1.22 2.278.3 1.074.146.939 2.049 13.35.289 1.937-.044 1.073-.245 1.105-5.191 12.876-13.1 33.005-4.098 10.375-3.744 9.535-5.212 13.494-2.481 6.493-1.373 3.506-1.003 1.968-.511.755-.625.64-.624.575-1.849 1.37-4.388 2.678-5.214 2.875-3.809 1.97-4.345 2.499-14.435 8.56-16.82 9.713-13.59 7.786-9.869 5.751-2.688 1.554-4.418 2.45-7.574 4.181-1.997 1.279-.744.623-.512.775-.357.84-.311 1.328-.466 3.75-.337 2.112-1.447 6.194-2.061 9.224-.237 1.204-.242 1.274-.122 1.902.088 1.283.713 4.845M288.666 545.009l-.68-5.464M288.666 545.009l-.578.047M288.666 545.009l13.316-1.502M288.666 545.009l.665 5.339M289.983 555.587l-.652-5.24M289.983 555.587l13.086-1.211M289.983 555.587l-.55.096M289.983 555.587l.454 3.907M291.359 574.936l-.664.131M291.359 574.936l12.811 2.609M291.359 574.936l.335-4.689M291.359 574.936l-.781 4.568M289.754 584.23l13.256 2.273M289.754 584.23l-.654-.125M289.754 584.23l.824-4.726M324.794 536.284l.295 4.479M264.578 541.881l2.684-.264M314.237 541.652l.005.902M314.237 541.652l10.852-.89M314.201 546.315l.002 1.557M314.201 546.315l.04-3.76M314.201 546.315l11.318-.916M314.438 551.187l.406 2.12M314.203 547.872l.09 1.218.145 2.097M315.493 557.082l.835 3.891M315.493 557.082l-.649-3.774M315.493 557.082l-12.031 1.248M317.743 567.393l-.7 5.069M317.743 567.393l-13.274.962M317.743 567.393l10.977 2.185M316.51 561.726l.07.288 1.17 4.016-.007 1.363M314.449 588.532l.66-4.268M314.449 588.532l-11.44-2.029M324.57 590.464l-4.872-.93-5.25-1.002" clip-path="url(#p44c24ca44f)" style="fill:none;stroke:#000"/><path d="m246.144 597.832 1.08 1.56.969 2.023.345 1.018.078.863.1.708.19.365.546.498.824.408 1.08.532.814.21 1.38.077 1.349-.144 3.33-.376 3.007-.686 4.634-.132 1.337.044.958.265 1.448.399 1.872.464 1.492.664 1.437.763 2.483.962 1.739.432.935.187 1.047.067 2.16.232 1.906.365 1.353.37 3.203.603 2.561.437 2.618.758.39.276.267.354.368.587.223.696.356 1.118.368.917.334.52.412.686.49.575 1.348 1.382 1.247.985.357.132.535.177.501.145 1.18.099.758.078.713.231 2.44 1.14 1.135.697.502.398.646.232.602-.045.612-.21.301-.309.612-.741 1.042-1.984.845-2.273.598-1.384.747-1.137.797-1.236.397-.94.05-1.136-.298-.989-.548-.642-.995-.544-1.245-.94-.797-.84-.249-.593v-.89l.25-1.136.46-3.507.458-2.772.475-3.01 1.346-7.403M325.09 540.763l.429 4.636M314.242 542.554l-12.26.953M301.982 543.507l-.449-5.22M302.54 548.882l-.03-.422-.528-4.953M303.998 562.963l.471 5.392M303.998 562.963l-.536-4.633M303.998 562.963l12.513-1.237M303.998 562.963l-13.006 1.29M303.01 586.503l-.5 10.226M303.01 586.503l.615-4.363M315.83 579.783l.324-1.957M315.83 579.783l-11.66-2.238M315.3 583.051l.286-1.794.244-1.474M315.108 584.264l.193-1.213M315.108 584.264l-11.483-2.124M290.578 579.504l13.047 2.636M314.844 553.308l-11.775 1.068M290.437 559.494l13.025-1.164M290.437 559.494l-.683.079M290.437 559.494l.555 4.76M290.992 564.254l-.625.066M290.992 564.254l.61 5.3M316.328 560.973l.183.753M329.687 563.937l-9.46-1.981-3.899-.983M291.601 569.555l12.868-1.2M291.601 569.555l-.572.054M291.601 569.555l.093.692M291.694 570.247l12.951 2.577M316.578 575.266l-.424 2.56M316.578 575.266l.465-2.804M316.578 575.266l-11.933-2.442M349.016 581.664l-13.453-.1M349.016 581.664l1.071-2.754M347.229 586.71l.803-2.248.984-2.798M350.087 578.91l-13.523-2.486M350.087 578.91l.713-1.48M353.049 568.317l-14.282-2.669M353.049 568.317l-1.273 5.672M363.983 570.614l-3.645-1.167-2.327-.902-.2-.032-.324.02-.356.061-.161.04h-.3l-.753-.034-.808-.039-2.06-.244M351.776 573.989l-14.14-2.617M379.132 589.213l-4.747-1.877-.768-.276-.39-.244-.111-.132-.056-.167.01-.243.168-.443.946-2.045.825-1.903v-.298l-.067-.2-.089-.187-.167-.233-.634-.232-1.404-.276-2.308-.447-1.725-.372-1.47-.343-.82-.235-1.162-.44-1.269-.692-2.518-1.355-1.505-.651-1.39-.435-6.705-1.498M350.8 577.43l.405-1.07.279-1.013.292-1.358M328.72 569.578l8.917 1.794M328.72 569.578l.967-5.64M328.72 569.578l-1.168 5.06M317.043 572.462l10.509 2.176M304.583 571.854l6.373.188 3.463.188 2.624.232M335.563 581.565l-9.011-1.577M335.563 581.565l1-5.14M335.563 581.565l-.83 5.328M316.154 577.826l10.398 2.162M347.229 586.71l-12.495.183M336.202 591.7l7.184.215.613.055.579.033.402-.07.42-.171.392-.378.2-.409.379-1.272.858-2.994M315.3 583.051l10.262 2.089M324.57 590.464l.992-5.324M324.57 590.464l1.27.186M325.562 585.14l9.172 1.753M325.562 585.14l.99-5.152M327.552 574.638l9.012 1.786M327.552 574.638l-1 5.35M331.198 555.173l-.574 3.3M330.624 558.474l-.937 5.463M330.624 558.474l9.205 1.855M330.624 558.474l-8.385-1.4M353.29 562.795l-13.461-2.466M334.068 591.644l.666-4.751M334.068 591.644l2.134.056M325.84 590.65l1.616.26 4.267.573 2.345.16M337.637 571.372l1.13-5.724M337.637 571.372l-1.073 5.052M338.767 565.648l1.062-5.319M338.767 565.648l-9.08-1.71M338.397 554.572l1.29.158.547.144.323.277.122.265.056.321-.084.639-.822 3.953M277.736 499.984l1.348-.166M277.736 499.984l-.657-6.235M277.079 493.749l1.26-.156M279.084 499.818l-.745-6.225M281.833 575.733l8.862-.666M281.833 575.733l-.447-5.213M289.1 584.105l-6.011-1.03-1.256-7.342M281.386 570.52l4.083-.366M280.953 565.48l.28 1.407.042.651.023.73-.015 1.192.103 1.06M285.469 570.154l5.56-.545M280.953 565.48l3.65-.528.426 1.712.09.907-.023.454.022.43.011.421.1.355.24.923M274.263 540.87l-7.001.747M274.263 540.87l3.007-.334M274.263 540.87l-.589-4.945M273.04 530.47l.634 5.455M273.04 530.47l-6.829.866M259.2 532.188l7.011-.852M273.674 535.925l-6.857.718M266.817 536.643l-.166-1.103-.44-4.204M232.299 480.615l5.368-2.224.367-.077.29.011.234.089.5.508 1.935 2.609.35.588.256.641.156.653.256 2.542M216.186 493.563l-.628-8.12M210.908 494.247l.29-.063 4.988-.621M216.922 501.593l-.338-2.156-.398-5.874M210.908 494.247l-3.963.591-.578.034-.257-.023-.24-.121-.183-.21-.214-.482-.176-.857-.521-4.383M229.37 499.503l-5.237.545-5.535.835-.764.288-.912.422M215.26 482.028l.298 3.414M483.346 499.749l2.896.133M527.784 372.168l-1.13 1.037-2.718 2.521-2.261 1.88-.813.686-.412.576-.2.453-.39 1.35-.38.718-2.896 3.828-1.124 1.67-.747 1.271-1.392 1.991-4.378 6.825-4.11 6.504-2.228 3.816-2.584 3.34-.925.852-.88.52-.668.442-.356.42-.568.93-.424.541-4.589 4.679-1.86 2.057-.914 1.096-.612 1.105-.345.907-.134.609-.167 1.382-.033.642.189 2.898.066 1.394.045 1.205-.011 1.98-.612 6.725-.714 6.481-.768 7.621-.635 5.574-.223 3.495-.19 6.195-.266 4.402-.179 3.982-.4 6.06-.079 3.275-.022 4.689-.145 3.34-.256 3.617M350.8 577.43l7.07 3.166M344.285 504.818l-.504.027M345.813 509.544l.143-1.664-.076-1.068-.276-.766-.378-.645-.941-.583M336.747 496.486l-.368.387-.59.244-2.725.472M343.152 492.836l-.245-.309-.245-.177-.39-.066-.713-.012-1.949.189-2.06.441-.268.189-.234.277-.112.475.056.885-.01 1.183-.235.575M343.597 501.33l-5.112.266-.346-.066-.311-.199-.179-.255-.111-.442-.156-1.737-.279-1.36-.356-1.05M343.152 492.836l.445 8.493M351.826 498.01l-6.546-2.718-1.025-.63-.323-.3-.346-.409-.434-1.117M331.102 485.488l.176 1.243.197.867.39 1.39M331.864 488.988l-.257-.014-.273.077M332.303 489.241l-.2-.16-.239-.093M330.998 481.817l.158 1.784-.02.925-.034.962M231.427 518.225l12.918-1.53M231.427 518.225l-.761-6.173M244.345 516.696l1.519-.184M244.345 516.696l-.78-6.08M258.502 514.838l-12.638 1.674M258.502 514.838l-.848-5.987M245.864 516.512l-.771-6.064M298.235 509.68l12.56-1.476M298.235 509.68l.659 5.879M298.235 509.68l-.752-5.76M284.633 511.644l10.131-1.462 3.47-.501M284.633 511.644l-.888.057M284.633 511.644l-.685-6.062M284.633 511.644l.745 5.564M283.745 511.7l.738 5.654M283.745 511.7l-.765-6.043M310.796 508.204l10.448-1.308M310.796 508.204l.577 5.768M310.796 508.204l-.741-5.965M321.244 506.896l-.78-6.05M321.244 506.896l.725 5.782M298.894 515.559l12.479-1.587M298.894 515.559l-13.516 1.65M298.894 515.559l.751 6.165M311.373 513.972l10.596-1.294M321.969 512.678l.78 6.348M271.719 518.82l12.764-1.466M285.378 517.208l-.895.146M285.378 517.208l.706 6.233M284.483 517.354l.747 6.166M270.399 507.153l12.58-1.496M270.399 507.153l-12.745 1.698M243.566 510.616l1.527-.168M243.566 510.616l-12.9 1.436M243.566 510.616l-.706-6.419M230.666 512.052l-.605-6.217M257.654 508.851l-12.561 1.597M297.483 503.92l12.572-1.681M297.483 503.92l-13.535 1.662M283.948 505.582l-.968.075M310.055 502.239l10.41-1.393M322.75 519.026l.785 6.19M299.645 521.724l-13.561 1.717M285.23 523.52l.854-.079M285.23 523.52l.707 5.427M301.533 538.287l-13.547 1.258M287.986 539.545l-.674.062M313.025 525.986l10.51-.77M313.025 525.986l.871 5.632M244.358 503.999l-.766-6.263M244.358 503.999l.735 6.45M244.358 503.999l-1.498.198M243.592 497.736l-1.596.162M241.996 497.898l-12.627 1.605M241.996 497.898l.864 6.3M242.86 504.197l-12.799 1.638M229.37 499.503l.691 6.332M303.069 554.376l.393 3.954M302.54 548.882l.196 1.928.333 3.566M304.47 568.355l.113 3.5M304.645 572.824l-.475 4.72M304.583 571.854l.007.216.055.754M304.17 577.545l-.545 4.595M287.312 539.607l.776 5.449M287.312 539.607l-10.042.929M288.088 545.056l.68 5.385M288.088 545.056l-10.183.966M289.754 559.573l.613 4.747M289.754 559.573l-9.766.973M289.754 559.573l-.322-3.89M331.334 489.051l-.23.164-.162.232-.072.273.025.28.12.256.2.2M331.215 490.456l.257.12M331.472 490.577l.953 1.485M331.472 490.577l.282.026.275-.07.216-.14.16-.198M332.405 490.195l.091-.239M332.405 490.195l.02 1.867M332.496 489.956l.013-.255-.066-.246-.14-.214M227.696 482.387l-3.867 1.261M227.696 482.387l4.603-1.772M227.696 482.387l-1.41-8.126M223.829 483.648l-3.73.991M226.285 474.261l-2.51.574-.266.116-.278.133-.145.2-.123.397.023.642.843 7.325M215.558 485.442l-2.296.288M220.099 484.639l-1.711.33-2.83.473M226.285 474.261l2.226-.471.757-.133.523.067.29.143.234.288.11.31.982 3.949.412 1.194.48 1.007M220.099 484.639l-1.05-4.719M210.908 494.247l-.84-4.753M199.457 506.078l.137 1.06.356 1.105.167.41.323.476.87.508 1.938.73 1.514.62 1.337.53.379.293.34.465.156.343.116.509.012.957.05.331.11.283.237.127.404.033 4.585-.595M229.056 563.37l2.07-.237M229.056 563.37l.096.53M229.056 563.37l-.76-4.235M269.474 557.68l7.279-.754.666-.033.314.005 1.485.122M279.988 560.546l-.153-.664-.617-2.862" clip-path="url(#p44c24ca44f)" style="fill:none;stroke:#000"/><path d="m278.524 551.833.178.232.09.288.11 1.061.316 3.606M249.692 544.411l.786 5.332M249.186 547.41l.02-.734.012-.794.045-.465.429-1.006M251.142 560.844l-10.728 1.226M251.142 560.844l-.595-4.345M249.186 547.41l.77 4.506M249.186 547.41l-10.992 1.137M227.498 549.7l10.696-1.153M249.957 551.916l.59 4.583M249.957 551.916l-10.998 1.291M250.547 556.499l-10.837 1.284M228.296 559.135l11.414-1.352M238.96 553.207l-10.188.8-.646.098-.245.083-.234.243-.09.255.013.564.228 1.46.498 2.425M238.194 548.547l.765 4.66M240.744 564.084l-.33-2.014M240.414 562.07l-9.289 1.063M240.414 562.07l-.704-4.287M238.96 553.207l.75 4.576M267.262 541.617l-.445-4.974M263.781 536.762l3.036-.119M277.27 540.536l.635 5.486M278.524 551.833l-.198-2.165-.177-2.006-.244-1.64M250.478 549.743l.603 4.462M268.835 552.385l-.28-2.897-.112-.741-.223-.376-.233-.244-.223-.143-.423-.078-1.114.066-2.74.288-13.009 1.483M269.474 557.68l-.639-5.295M251.08 554.205l17.755-1.82M278.524 551.833l-.412-.221-.602-.112-.936.023-7.739.862M280.953 565.48l-.965-4.934M290.695 575.067l-.066.624-.872 4.911-.657 3.503M291.029 569.609v.656l-.235 4.163-.099.64M290.367 564.32l.497 2.834.165 1.8v.655M282.785 529.243l3.152-.296M314.203 547.872l-5.52.364-3.092.328-3.05.318M320.707 593.957l2.33-.23.8-.142.505-.206.347-.262.306-.56.846-1.907M336.202 591.7l-1.668 14.091M218.608 241.092l-11.74-2.555-16.842-3.518-3.888-.736-1.303-.624-.524-.37-.501-.525-.857-1.212-2.206-4.209M409.94 277.72l-.802-.392-16.117-6.116-10.738-4.215-4.657-1.703-4.622-1.57-10.17-3.695-9.902-3.38-4.227-1.31-13.384-3.618-1.932-.231-1.097.133-.758.342-7.513 3.683-3.843 1.5-4.64 1.227-5.602 1.432-.791.045-.785-.017-1.12-.138-8.41-1.809-9.195-1.969-4.405-.957-4.456-1.15-11.54-2.256-1.56-.222-.952-.193-.746-.232-2.812-.796-13.117-2.606-15.6-3.329-15.84-3.086" clip-path="url(#p44c24ca44f)" style="fill:none;stroke:#000"/><path d="m239.995 206.78-1.27.321-1.214.542-1.225.796-3.13 2.865-3.665 3.307-3.108 2.578-4.567 3.219-.858.708-.579.663-.49 1.383-.624 4.06-.1 2.079.167 2.566.089 1.991-.223 2.522-.59 4.712M572.468 97.062l-1.403 3.307-3.052 8.34-1.827 5.034-2.261 6.061-.668 1.505-2.161 4.402-3.476 7.123-2.93 5.156-.606 1.028-.29.852-.056 1.145.24 1.222.345.974 4.066 8.273.59 2.246.134 1.46.122 1.449-.122.796-.267.697-.657 1.096-.981 1.205-1.058.786-1.382.586-2.283.718-1.604.42-1.515.19-.751.01-.775-.066-1.87-.531-12.176-4.635-11.785-4.325-9.223-3.706-.958-.387-3.197-.873-5.335-1.748-3.364-1.184-.735-.188-1.243-.27-.428-.128-6.048-2.71-18.012-7.345-.769-.188-.501-.078-.357.073-.311.193-3.554 4.303-1.214 1.98-.49 1.172-.2.82-.368 2.234-.078.929-.2 1.04-2.752 7.92-2.517 7.178-1.57 3.496-1.549 3.164-.446 1.028-.256.83-.167 1.404-.022 1.947-.535 1.903-.824 1.858-1.292 2.456-7.753 16.204-4.945 10.53-4.189 9.658-3.007 7.742-3.431 7.588-9.736 22.167-10.492 23.123M126.696 518.83l3.814-.754 6.815-1.343 10.752-2.207 7.095-1.493 8.153-1.493 1.729-.316 15.437-2.295 15.137-2.245 3.829-.606M111.764 630.138l.3-2.056.435-2.588.19-1.533.333-2.007.235-1.72.1-1.111.189-1.239.1-1.205.201-1.549.367-3.385.346-2.798.078-.796.212-1.017.088-.63.279-2.313.234-1.625.2-.93.19-.995.312-1.902.133-1.416.09-1.073.11-1.084.101-.884.155-1.018.179-1.217.223-1.227.211-1.305.134-1.294.212-1.903.212-2.245.19-1.349.344-1.504.234-1.76.3-2.565.524-3.395.58-4.458.222-1.935.112-2.09.345-2.622.435-3.451.612-4.247.78-4.933.623-4.004.301-2.444.401-3.119.48-3.429.378-2.51.513-3.54.556-4.048.346-2.898.323-2.61.033-.719.151-1.613" clip-path="url(#p44c24ca44f)" style="fill:none;stroke:#000"/><path d="m246.144 597.832 1.521 7.552 2.172 7.856.078 1.156-18.851 2.542-24.049 4.082-15.515 2.311-30.72 4.93-7.37.924-3.956.154-5.352-.154-2.638.154-2.095-1.232-1.94-.386-2.249 1.156-3.18.616-20.236.645M606.608 512.587l-6.37.037-6.082.088-4.055-.067-2.673-.198-1.56-.222-4.878-.575-9.602-1.194-10.671-1.217-10.955-1.364-2.79-.34-3.788-.663-9.914-2.101-11.985-2.721-8.911-1.902-1.51-.192-1.876-.074h-2.273l-11.094.089-9.379-.09M231.125 563.133l1.273 5.478 1.203 4.136 2.016 4.668.502.852.266.575.234.652.212.852.223.973.234.498 2.038 4.324 1.627 3.739 1.67 3.428.903 1.45.535.508.935.885.256.332.39.453.502.896M343.597 501.33l.184 3.515M289.331 550.348l-.562.093M288.769 550.44l.663 5.243M606.608 512.587l-.734 3.709-1.025 3.65-1.092 3.782-.78 3.517.012.532.111.441.268.564.534.587 5.492 5.386 2.785 2.411.724.708 1.447 1.416 1.794 1.416 2.194 1.172.78.243.79.266.713-.011.624-.11.379-.167.368-.331.913-1.394.668-.973.97-1.051.946-1.106.368-.763.379-.807M548.542 365.745l-1.99.771-1.992.462-2.663.129-1.552.05-1.085.566-2.225 1.36-3.103 1.696-2.61 1.257-1.863.386-1.675-.254" clip-path="url(#p44c24ca44f)" style="fill:none;stroke:#000"/></g><g id="PatchCollection_1"><path d="m346.19 491.652.202-.547.202-.31-.093-.255-.018-.273-.091-.693.22-.255.587-.182.238-.273-.183-.255.293-1.786-.624-.656-.146-.437.091-.638 1.726.11-.093.547.13.455-.24.856-.348 1.567.385 1.33.184.437.624.693.311.218.092.383.073.492.276.638.366.108.588.438.605.4.57.092.44.291.641.292.514-.073-.678 1.877-.33-.238-.423-.127h-.385l-.66-.164-.441-.292-.165-.255-.257-.163-.642-.182-.33.218-.33.127-.257-.236-.478-.382.074-.402-.092-.31-.44-.382-.459-.054-.349-.292-.311-.51-.367-.437zm1.23.4.292.237.184.292-.091.437.256.146.57-.091.274.364.587.237-.055.492.166.383 1.339.382h.385l.514.164.532-.31.128-.474-.458-.273-.624-.018-.294-.292-.678-.528-.57-.219-.348-.091-.073-.182-.147-.71-.404-.456-.091-.583-.239-.327-.349-.183-.403-.127-.165-.511-.184-.109-.238.328-.147.492.036.674.184.382zM354.753 469.53l1.204-.52 1.837-1.138 2.974-.93 1.783-.63 1.848-.387.313.443-3.008 1.194-2.462 1.095-1.77 1.195-1.46.63-1.381.896-1.46.277-.712.553-.68.089-1.537.785-.847.586-1.236.088-1.047.542-.49.675-.56.591-.845-.546.993-1.295.88-.498.958-.774 1.058-.497.857-.564.602-.499.49-.475.479.067 1.85-.676zm-2.24.93-.479.409-.523.53-.646.167-.947.165-.267.321-.546.254-.77.686-.7.476-.758.32-.323.32.178.267 1.136-.653.847-.387.813-.132.535-.532.613-.277 1.013-.618.79-.21.647-.277.702-.155.902-.553.212-.486-.023-.3-.434.056-.969.265z" clip-path="url(#p44c24ca44f)" style="fill:#00f;fill-opacity:.8"/><path d="m346.868 485.092.22-.327.019-.583-.477-.31-.165-.346.092-.42-.367-.71-.367-.382.165-.565.091-.419-.183-.218-.055-.365-.257-.583-.422-.328-.348-.182-.294-.656-.092-.893-.147-.31.184-1.548v-.273l.44-.219.312-.437.844.546-.422.365-.11.565.257.765-.074.637-.036.547.276.693.33.363.257.383-.11.656.036.601.055.346-.019.42.22.473.331.347.257.181.275.037.275-.292.13.11.054.437.036.492.404.146.312.418-.201.948zM353.712 494.366l.771.128.624.291.055.51v.455l.147.493.605.164.715.436.386.62.44.383 1.56 1.111 1.082.219.129.328.073.51h1.065l.091.346v.492l.532.218 1.285.748.696.255.478-.092.165.565.624.292.128.455-1.835.601-.128-.601-.716-.382-.018-.31-.422-.783-.587.018-.367-.22-.66-.053-.368.2-.22.073-.293-.42-.514-.236-.11-.693-.257-.218-.055-.419-.55-.328-.166-.383-.513-.2-.202.145-.734-.327-.679-.401-.349-.401-.513-.419-.44-.291-.294-.456-.477-.346-.422-.073-.44-.127zM363.528 503.894l.364.731-.037.783-.091.675.22.218.568.128v.747l-.972.455-.44.565.055.856-.385.547-.129.71-.018.82.312.656.495.4.587-.6-.349-.437-.422-.857.258-.783.44-.492.073-.729.35-.401.75-.018.533-.382.11-.893-.293-1.038-.294-.82.184-.857-.034-.585z" clip-path="url(#p44c24ca44f)" style="fill:#00f;fill-opacity:.8"/><path d="m363.47 512.186.26.443-.222 1.093.404.984-.586 1.457-1.211 1.567-1.432 1.748-1.431 1.713-.367 1.53-.697.329-.734-.73-.55.219-.624.73.11 1.056-.44 1.239-.514 1.968-.074 1.311-.293 1.093v1.53l-.991.256-.073 1.093.807.583.807 1.53.954 1.093.881.291.734 1.02 1.505-.181.807-.365.953.146.551.473.33.839.954.218.294.365-.11 1.13-.477.473h-1.101l-.734.291-.697 1.02-.367.802-1.174.875-.698 1.785-.66.875.11.764-.954.584-1.064 1.494-.881 1.53-.514 2.187.074 1.456.55 1.167-.294 1.166-.44 1.238.587.875.734.364 1.358.292 1.174-.255.807.291 1.982.292 2.606.291 3.265.947 1.248 1.021.22.947-.477 1.056.404.693 1.174.219.624.765.513.802.918.838 1.431.546 1.872.328 1.504.146.037-1.75-1.541.147-2.532-.875-1.358-.692-.734-.802-.514-.437-.623-.11-.184-.691.587-.583 1.211-.402.44-.691-.256-.693-1.665-.88-1.67-.863-2.54-.287-3.075-.597-2.896-.84-1.426-2.28-.624-1.371-1.336-1.106.022-.332.69-.597.844-2.734 1.028-.57.665-.6 1.179-1.771 1.48-2.04.423-.961 1.754-1.62 1.299-1.5.333-1.291-.454-1.111-.967-.42-1.36-.39-.725-.84-1.058.09-1.057.24-1.633-.75-2.115-2.401-.06-2.1.478-3.41.526-1.658.446-.663.27-.541-.103-.421-.011-.52.356-.221.691.31.824-.31.757-.62.224-1.703 1.024-1.416 1.07-.42.757-1.217 1.159-2.08.133-1.459.067-1.305v-.642l-.117-.405-.178-.335z" clip-path="url(#p44c24ca44f)" style="fill:#00f;fill-opacity:.8"/><path d="m376.095 568.122 1.762.31 1.765.996.81 1.278.05 1.089.857 1.8.763 1.752-.38 1.99 1.095 2.178.525 1.467.191 1.942.477 2.842.81 1.942.478 2.462.095 2.558-.572 1.515-1.002 1.09-1.717.662-2.861.663-2.48.379-2.767.094-2.099-.615-1.907-1.705-2.051-2.7-1.764-1.278-3.911-1.752-3.625.189-3.387.948-1.145 1.42-1.049 1.232-1.765.71-1.049 1.658-1.001 2.557-.811 3.93-.43 1.942-.572 3.788.048.806-.143 1.278-.381.758.333 1.847-.286 1.421-1.05 2.273-2.145 2.794-.716 1.515.763.427 1.765-2.51 1.67-2.984.81-2.32-.238-2.51.81-1.942-.095-1.42-.43-1.279.43-1.942 1.288-1.658.81-4.783.668-1.799.716-1.326 1.288-.521 1.383-1.516 2.003-.568 2.146-.9 1.955-.142 1.717.19 1.956 1.278 2.242 1.99 2.29 2.273 1.382 1.515 2.242.805 3.72.19 4.674-.663 3.625-1.043 1.336-.947.715-1.752.43-2.794-.764-3.03-1.145-2.464-.763-3.22v-1.989l.191-1.894-.096-2.179-1.144-2.178-1.145-1.61-.858-1.8-.43-2.273-.953-1.326-1.336-.663-1.431-.19-1.153-.307z" clip-path="url(#p44c24ca44f)" style="fill:#00f;fill-opacity:.8"/></g><path id="PatchCollection_2" d="m276.539 494.62.614 4.55-8.93.964-.462-4.497z" clip-path="url(#p44c24ca44f)" style="fill:green;fill-opacity:.8"/></g></g><defs><clipPath id="p44c24ca44f"><path d="M101.475 86.4h535.051v554.4H101.475z"/></clipPath></defs></svg>