<svg xmlns="http://www.w3.org/2000/svg" xmlns:xlink="http://www.w3.org/1999/xlink" width="960" height="960" viewBox="0 0 720 720"><defs><style>*{stroke-linejoin:round;stroke-linecap:butt}</style></defs><g id="figure_1"><path id="patch_1" d="M0 720h720V0H0z" style="fill:#fff"/><g id="axes_1"><path id="patch_2" d="M90 600.036h558V127.164H90z" style="fill:#fff"/><g id="LineCollection_1"><path d="m312.955 405.296-.525.224M322.853 407.13l-7.008-.778-1.486-.242-.471-.139-.596-.329-.337-.346M317.072 402.97l-.792.501-.791.484-1.032.58-1.502.76M322.853 407.13l7.199.885M318.46 415.185l2.116-3.729 1.21-2.154 1.067-2.171M334.488 408.522l-.801-.112-3.635-.395M330.45 404.89l-.142 1.004-.256 2.121" clip-path="url(#pdb5158ec12)" style="fill:none;stroke:#000"/><path d="m334.254 410.142-3.88-.286-.224-.043-.097-.04-.062-.047-.022-.105.083-1.606M345.086 410.02l-2.836-.413M345.086 410.02l.331-2.712M347.81 412.823l-2.57-.173-.267-.06-.16-.095-.07-.148.343-2.327M338.568 393.198l-.094.761M338.568 393.198l-1.002-.246-1.823-.398M338.568 393.198l.57.084M337.19 402.518l-.296 2.134M337.19 402.518l.205-1.66M337.19 402.518l.927.102M337.19 402.518l-2.804-.332M336.23 408.721l1.246.196M336.23 408.721l-1.742-.199M336.23 408.721l.664-4.069M330.45 404.89l-1.689-.242-3.29-.51-3.487-.459-4.912-.71M320.612 400.304l-1.556 1.22-1.984 1.445M330.45 404.89l.09-1.037M330.84 401.765l-.3 2.088M330.84 401.765l3.546.42M330.84 401.765l-10.228-1.46M333.5 416.327l7.898.623M333.5 416.327l-.357 2.266M334.254 410.142l-.29 2.042-.464 4.143M334.488 408.522l-.234 1.62M345.5 425.975l-.314 1.84-.302 1.004-.747 1.8-1.68 3.64M349.42 403.461l.556.096M347.81 412.823l.216-1.876.799-4.77.595-2.716M346.085 403.028l1.69.208 1.645.225M337.707 398.323l-.312 2.535M337.707 398.323l.329-1.8M337.707 398.323l.777.121M343.623 399.181l.759.129M343.623 399.181l-5.139-.737M343.623 399.181l.515-3.134M347.99 399.691l.585-2.415M350.896 400.365l-1.183-.303-1.723-.371M344.382 399.31l1.367.148 2.241.233M350.896 400.365l-.92 3.192M355.779 404.518l-.55-.96-.657-.917-.679-.615-.933-.683-.872-.51-1.192-.468M355.779 404.518l-.905-.146M355.779 404.518l1.21.152M352.552 403.998l2.322.374M352.552 403.998l-2.576-.441M350.853 413.037l.374-2.09.355-1.508.97-5.441M350.853 413.037l-3.043-.214M351.5 416.67l.49-3.081.01-.115-.023-.106-.04-.112-.098-.065-.986-.154M338.267 395.017l-.231 1.505M338.267 395.017l.207-1.058M338.267 395.017l.599.083M344.138 396.047l2.903.758M344.138 396.047l-5.272-.947M328.836 391.292l-.359.54M329.604 390.087l-.4.658-.368.547M328.836 391.292l2.673.465M326.118 395.149l-1.415 1.392-.684.762-.766.744-.934.873-1.707 1.384M324.499 386.92l-1.2-.718-3.416-1.721M332.601 383.538l-.133.753-.156.686-.856 2.183-.34.66-.463.736-1.049 1.531M324.499 386.92l1.567.919 2.18 1.376 1.358.872M328.477 391.832l-.91 1.232-1.45 2.085M334.86 396.004l-1.02-.085-.917.036-1.094-.097-5.711-.71M334.86 396.004l1.212.262 1.964.256M333.842 398.566l-.687-.008-1.708-.347-1.921-.38" clip-path="url(#pdb5158ec12)" style="fill:none;stroke:#000"/><path d="m334.86 396.004-.471 2.03-.098.246-.17.169-.28.117M334.386 402.186l.067-.868.139-1.025.107-.9-.178-.345-.445-.217-.234-.265M340.98 402.978l-2.863-.358M340.812 409.398v-1.454l.08-3.41.087-1.556M343.772 403.168l-.622.017-.508-.017-1.663-.19M340.812 409.398l1.438.209M337.476 408.917l.588.092 2.748.39M345.417 407.308l.668-4.28M343.772 403.168l-.427 3.513.004.138.05.13.057.086.138.065 1.823.208M343.99 401.619l-.092.538-.126 1.011" clip-path="url(#pdb5158ec12)" style="fill:none;stroke:#000"/><path d="m346.085 403.028-.908-.016-.64.044-.765.112M344.382 399.31l-.392 2.309M374.341 405.946l-6.695-.427M378.22 414.127l.906-7.663-2.313-.31-2.472-.208M367.883 402.292l8.202.521-1.744 3.133M368.909 420.87l2.507-8.066M366.479 429.044l1.103-3.47.498-1.713.829-2.992M372.525 422.03l-2.015-.615-1.601-.546" clip-path="url(#pdb5158ec12)" style="fill:none;stroke:#000"/><path d="m365.398 419.911 1.963.448 1.548.51M375.266 413.645l-2.187-.502-1.663-.339M368.116 410.833l1.396.77 1.904 1.201M367.11 407.147l3.187.183 2.702.222-1.583 5.252M373.718 431.172l2.517-7.916M373.718 431.172l2.2.539M373.718 431.172l-3.745-1.125M370.98 439.945l.23-1.307.41-1.453.462-1.133.418-.96.4-1.013.312-1.09.506-1.817M379.135 414.277l-2.9 8.98M379.135 414.277l1.966.32M379.135 414.277l-.916-.15M368.063 436.442l1.91-6.395M375.266 413.645l1.36-6.808M375.266 413.645l2.953.482M372.525 422.03l.12-.356.888-2.935.764-2.526.97-2.568M362.882 427.746l-.629 1.961-.639 1.992M361.616 418.784l3.782 1.127M360.019 424.21l.537-1.759.64-1.895.42-1.772" clip-path="url(#pdb5158ec12)" style="fill:none;stroke:#000"/><path d="m358.328 417.747.922.259 2.366.778M362.758 415.13l1.784-5.256M366.354 416.122l-2.105-.608-1.491-.385M359.459 414.202l1.303.413 1.996.514M364.542 409.874l.274-1.161M360.582 408.66l1.63.54 2.33.674M364.816 408.713l1.255.917M364.816 408.713l-3.487-3.122M347.202 415.874l-.735 4.302M347.202 415.874l3.519.687M347.81 412.823l-.353 1.653-.255 1.398M366.354 416.122l-.575 1.884-.381 1.905M363.572 425.17l.71-2.019.57-2.085.546-1.155M372.525 422.03l3.71 1.226M369.973 430.047l1.177-3.944 1.375-4.074M376.235 423.256l2.029.76M361.33 405.59l-.748 3.07M361.33 405.59l-.721-.337M359.459 414.202l-4.134-1.042M360.582 408.66l-.514 2.373-.609 3.169M366.354 416.122l1.052-3.134.71-2.155M366.071 409.63l1.048.64.997.563M366.071 409.63l1.04-2.483M367.646 405.52l-3.135-.075M367.646 405.52l-.535 1.627M367.646 405.52l.237-3.228M355.325 413.16l1.664-8.49M355.325 413.16l-.624 4.056M354.874 404.372l-.42 3.027-.819 4.472-.017.433.09.277.23.147 1.387.432M350.72 416.561l.78.108M353.08 426.792l-3.038-.482-.32-.147-.133-.242v-.338l.1-.63.409-3.245.176-1.48.447-3.667M354.7 417.216l-1.062-.161-2.138-.386M309.61 406.672l1.13 2.569M309.61 406.672l2.82-1.152M300.298 411.16l6.306-3.086 3.006-1.402M311.523 410.832l.463.883M311.523 410.832l-.783-1.591M311.523 410.832l-1.913 1.013M313.518 407.812l1.634 2.224M313.518 407.812l-2.778 1.429M312.43 405.52l.445 1.03.643 1.262M311.986 411.715l.345.693M311.986 411.715l3.166-1.679M318.46 415.185l-1.892-2.95-1.416-2.199M309.14 410.098l1.6-.857M533.898 553.184l-.521-.364-.881-.71-1.161-1.17-1.49-1.545-1.369-1.627-1.574-2.076-2.161-2.552-1.442-2.128-1.707-2.647-1.583-2.327-1.014-1.271-.471-.606-.836-1.185-1.077-1.99-.987-2.119-1.058-2.56-1.076-2.44-.632-1.298-.65-1.081-.906-1.393-.934-1.211-.97-1.28-.675-1.142-.56-1.29-1.033-2.716-.951-2.353-.916-2.136-.89-1.808-.73-1.125-1.05-1.297-1.422-1.653-1.734-2.206-1.2-1.548-1.415-1.843-.578-.727-.774-.804-.702-.528-.739-.467-.987-.458-2.214-1.16-1.593-.882-.818-.51-.747-.545-1.014-.822-1.343-1.082-1.655-1.453-3.37-2.932-2.143-1.904-2.936-2.353-.81-.71-.942-.881-1.637-1.636-.675-.683-1.005-.891-.863-.606-1.245-.735-4.945-2.405-2.322-1.237-1.565-.943-1.085-.7-1.183-.944-1.414-1.367-1.895-1.972-.996-1.194-.871-1.298-.944-1.591-.986-1.237-1.254-1.436M408.797 423.438l2.08.836 1.798.947 1.165.605 1.37.856 1.049.787 1.192 1.065 1.93 1.903 1.458 1.332 2.242 1.912 3.193 2.318 3.264 2.458 1.548 1.202.764.701 1.166 1.332 1.183 1.402 1.12 1.245 1.761 1.972 3.291 3.427.854.856 1.396 1.254 4.136 3.79 1.815 1.756" clip-path="url(#pdb5158ec12)" style="fill:none;stroke:#000"/><path d="m452.823 455.568-1.53.468-1.12.501-1.601.857M579.929 590.943l-1.076-2.5-.961-1.834-1.13-2.007-1.085-1.74-1.814-2.533-1.735-3.149-1.102-1.852-.686-.813" clip-path="url(#pdb5158ec12)" style="fill:none;stroke:#000"/><path d="m533.898 553.184.617.432 2.41 1.315 2.456 1.306 2.516 1.367.8.476 1.228.908 1.841 1.678 1.699 1.272 1.717 1.142 1.779.995 3.085 1.643 2.989 1.583 2.695 1.523 1.859.986 1.139.657 3.815 1.774 2.268 1.063.952.65.577.561M585.22 570.882l-6.972.554-3.024.969-4.884 2.11M346.467 420.176l-.966 5.799M346.467 420.176l-5.24-.469M348.575 397.276l-1.534-.471M437.17 372.265l-.739-.12-.72-.07-1.317.052-1.734.268-1.36.234-1.424.432-1.12.468-.517.224-.889.251-2.18.364-1.635.268-.65.035-.57-.052-1.813-.226-.685-.146-.827-.295-.503-.168-.476-.087-.413-.012-.53.06-.356.073-.417.018-.543.03-3.664-.078-2.242.026-2.161.199-.72.13-.73.268-3.522 2.587-1.245.104-1.6.45-2.277 1.868-1.601.45-6.12 2.215-3.415 1.66-8.432 1.973-10.886 3.323-8.396.069-.712 1.972-1.494 2.111-3.06 3.115-2.275 1.824-2.625-.856M354.7 417.216l2.576.375 1.052.156M356.516 423.105l.58-1.614 1.232-3.744M330.54 403.853l2.824.356M336.894 404.652l-3.53-.443M249.522 422.592l5.905-3.48 1.227-.64 1.076-.527 1.38-.554 1.288-.484 1.308-.425 1.263-.38.934-.2 1.005-.12 1.512-.07 2.98-.077 5.7-.286 9.055-.45 2.89-.285 5.47-.744 1.094-.164.916-.174 1.05-.285 1.156-.38.88-.355 1.14-.545 1.547-.806" clip-path="url(#pdb5158ec12)" style="fill:none;stroke:#000"/><path d="m308.72 425.03-1.52-2.673-1.415-2.604-1.992-3.807-.872-1.592-.8-1.185-.907-1.03-.596-.605-.32-.373M353.08 426.792l.707-5.526.914-4.05M353.08 426.792l2.322.368M397.778 419.51l-3.83-1.306-6.804-2.34-1.677-.54-.693-.183-3.673-.544M378.264 424.017l1.823-6.66 1.014-2.76M378.264 424.017l-2.347 7.694M324.499 386.92l-1.04 1.696M234.446 427.755l-1.165.095-8.6.588-6.716.805-1.735.26-.925.276-.587.26-.684.459-.57.528-.777.785-.681.832-.896 1.303-1.469 3.379-.985 3.137-.342 1.81-.382 2.484M178.134 480.935l2.45-1.05 5.051-2.734 1.815-1.902 3.202-2.838 4.305-3.703 3.629-2.907 2.56-2.906 1.638-2.492 1.387-2.664 1.992-4.153 1.142-5.302.627-3.528M183.558 428.501l1.929.18 1.712-.065 1.361.131.81.17.62.329.444.485 2.157 3.41.891 1.696 1.024 1.948.517.756.398.343.682.388 11.829 6.484M167.47 484.356l.59-.18 8.326-2.491 1.748-.75M180.655 485.007l-1.672-2.492-.849-1.58M189.752 500.229l-.701-1.831-2.313-5.087-2.881-4.81-3.202-3.494" clip-path="url(#pdb5158ec12)" style="fill:none;stroke:#000"/><path d="m180.975 489.09-1.174-2.284-.392-.9 1.246-.9M180.975 489.09l6.084 8.27 2.693 2.869M167.47 484.356l-4.07 1.239-2.098-.035-2.883-1.315-4.18-3.184-5.723-4.737" clip-path="url(#pdb5158ec12)" style="fill:none;stroke:#000"/><path d="m167.47 484.356-.655-.768-1.529-1.385-1.21-1.522-1.459-1.8-2.099-1.037-3.628.242-2.562-.381-5.812-1.381M142.161 471.373l3.469 2.871 2.886 2.08M180.975 489.09l-3.166-.277-2.17-.242-2.17.276-2.17.485-1.673-.761-1.245-1.108-.57-1.972-.342-1.135M122.786 454.71l2.69 2.527 3.842 3.53 2.562 1.834 3.647 3.332 6.634 5.44M136.576 478.605l-1.46-1.903-.248-1.108 3.949-2.249 3.344-1.972M122.786 454.71l-.405-.38-4.072-5.007-3.244-4.621-1.56-2.207-5.604-7.716-4.838-6.886-2.332-3.261M136.448 405.931l-.847.257-.782.312-13.448 9.55-.64.347h-.784l-4.162-.139-2.028-.034-1.103.277-2.192 1.287-2.028 1.626-3.557 2.56-4.146 2.658M375.604 241.52l1.299 4.074.595 2.102.312.892.436 1.107 1.094 2.111 1.823 3.703.507.814.444.553.774.658.614.528M382.008 280.081l1.21-2.465.818-1.662.302-.778.178-.606.267-1.272.338-2.093.187-1.514.098-1.307.017-1.696-.035-1.869-.072-1.09-.089-1.298-.186-1.09-.383-1.116-.417-.96-.739-1.203" clip-path="url(#pdb5158ec12)" style="fill:none;stroke:#000"/><path d="m422.556 244.504-1.52.09-.748.122-.583.164-.955.325-1.406.692-.693.385-.383.329-.284.359-.374.597-.307.623-.343.497-.342.424-.404.35-.592.45-2 1.195-1.82 1.012-1.596.857-.592.363-.41.299-.461.389-1.277 1.155-.378.298-.391.273-.596.38-.783.372-.423.156-.48.139-.502.121-.97.095-2.054-.069-4.598.233-3.176.312-.702.112-.632.147-.756.19-.72.122-2.544.078-2.259-.078M422.556 244.504l.347.562" clip-path="url(#pdb5158ec12)" style="fill:none;stroke:#000"/><path d="m429.52 216.359-1.245 2.024-3.958 6.437-1.352 2.137-.952 1.714-.604 1.327-.418 1.077-.214.87-.062.775-.107 2.319.01 2.093.168 1.497.267 1.134 1.246 4.084.257.657M599.113 198.137l-1.476-.926-.605-.537-.569-.882-1.175-2.466-1.182-1.774-.836-.805-1.352-.597-1.984-.225-.435-.182-.347-.294-1.628-2.89-3.077-2.556-.587-1.078-.534-.813-1.192-.506-.858-.533-.538-.02-.968.01-.51-.249-.723-.312-1.183-.29-.245.066-.218.186-.058.281.276 2.06-.17 2.547.624 1.225.636 1.302.222.804-.076.97-.32.757-.23.112-.326.03-.778-.094-4.118-.256-.916-.32-.934-.58-.534-.519-3.086-3.889-.427-.805-.333-1.02-.503-.472-2.317-1.605-.618-.68-.236-.436-.115-.74-.227-.485-.271-.177-.605.03-.235.138-.65.753-.979.822-1.067.216-1.085-.104-.933-.26-.472-.406-.213-.484.035-.848.205-1.35-.236-1.302-.262-.667-.312-.276-5.39-3.167-.444-.1-.707.044-2.535.648-.734.559-.098.467.41 3.063.293 1.92-.09 2.525-.23.53-.316.162-.703.052-1.293-.491-.32-.255-2.042-2.751-.671-.286-1.081.1-.44.155-.379-.026-1.391-.878-.423-.018-.347.139-.974 1.212-.751 1.808-.085.558.165.956.678 1.378-.02.253-.338 1.696.005.558.169 1.03-.045.458-.178.337-4.18 3.111-.445.347-.507.211-1.08.04-.388-.07-.413-.355-.44-.887-.623-1.773-.694-1.584-.657-.839-.952-.761-1.21-.571-1.778-.416-1.841-.194-2.651.224-1.601-.514-.96-.026-.694.103-.57.269-.48.363-1.503 1.904-1.725.96-2.26.96-2.801 1.026-.498.324-.72.692-.605.39-.961.363-2.989.675-3.317.813-2.384.165-1.387.303-.605.25-.534.468-1.076 1.272-.426.328-1.21.372-.868.04-.27.16-.757.848-.605.398-2.379 1.038-.671.074-.878-.087-.292.09-1.37.978-.329.044-.782-.152-1.752.125-.881.2-2.134-.121-.388-.108-.915-.45-.894-.03-.352.19-1.432 1.393-1.556 1.194-2.9 2.431-1.138.753-1.975.969-3.255 2.362-.596.571-.916 1.211-2.806 3.435-.32.493-.654 1.333-2.081 2.336-1.245.986-1.432.346-2.793-.094-.836-.2-.98-.458-.674-.009-1.841.398-.392-.095-1.254-1.013-1.04-.389-.48-.086-.997.009-3.14.493-2.098-.156-1.655-.156-1.254-.25M431.715 211.597l-.202.409-.801 1.722-1.192 2.63M408.797 423.438l-3.619-1.29M408.797 423.438l.694-3.294M397.778 419.51l1.558.556M382.898 455.741l1.6-2.776.578-1.082.65-1.237.907-2.224 1.69-3.771.658-1.661.613-1.566.33-.77.142-.433.062-.475v-1.584l.009-.614.125-.493.355-.45.543-.39.489-.276.25-.285.16-.363.933-2.483.97-2.216 3.816-11.082M364.511 405.445l.267-3.974M360.609 405.253l.445-.2.217-.064.227-.012 3.013.468M364.778 401.471l.033-.472M364.778 401.471l-4.614-.44M356.516 423.105l-1.114 4.055M356.516 423.105l3.503 1.104M360.019 424.21l3.553.96M355.402 427.16l-.939 3.363-.08.247.018.26.089.246.337.2 2.215.587.338-.034.24-.096.134-.155.125-.217 2.14-7.352M363.572 425.17l-.69 2.576M362.882 427.746l3.597 1.298M366.479 429.044l3.494 1.003M370.98 439.945l-.9-.173-.986-.19-.845-.13-1.219-.122-.916-.199-.689-.272-.57-.32-.529-.454-.258-.251-.066-.134-.018-.135.01-.298.503-1.675.764-2.647 1.218-3.901M150.336 415.094l-2.463-.935M150.336 415.094l1.762 1.195M149.288 412.61l-.04.208.056.258.848 1.84.184.178M153.437 401.407l.136-.084.528-.057.47.046.892.49M153.437 401.407l-.215-.34-.225-.4-.196-.59-.23-.83-.179-1.245-.07-1.904-.054-2.82M150.635 407.005l.691-2.187.276-.924.215-.467 1.471-1.928.149-.092M148.542 404.205l2.093 2.8M149.288 412.61l.032-.17.975-4.183.132-.596.208-.656M159.828 425.286l.63.618 1.078 1.628.853 1.056.659.986.978 1.558M153.595 417.231l-1.87 4.406M156.076 419.901l-1.317-1.568-.643-.705-.521-.397M152.098 416.29l.23.155 1.083.646.184.14M159.828 425.286l-2.018-1.152-.818-.398-1.05-.45-4.216-1.649M147.404 419.41l.463.33 3.859 1.897M147.873 414.16l-2.23 2.018M142.558 412.203l.68.383.539.276 4.096 1.297M149.288 412.61l-.528.55-.887 1M145.642 416.178l-3.084-3.975M145.642 416.178l-.55.401M136.448 405.931l3.444 4.205 1.537 1.364 1.129.703M147.404 419.41l-1.282 1.435-.945-.828-.62.39-1.724-2.18 2.26-1.648" clip-path="url(#pdb5158ec12)" style="fill:none;stroke:#000"/><path d="m147.404 419.41-.284-.293-2.028-2.538M183.558 428.501l-.31-.029-3.194.197-1.968-.04-2.683-.464-3.753-.916-4.483-.866-3.255-.692-.854-.07-.693.053-.872.086-.872-.12-.793-.354M156.076 419.901l1.238 1.474.296.467 1.563 2.802.655.642M183.558 428.501l.057-.445.108-.286.217-.362 2.245-2.047.217-.211.046-.332-.092-.332-.573-1.566-.202-1.265-.03-1.792M156.076 419.901l2.223-1.763-3.333-3.425-2.868 1.576M442.977 366.4l.187.718 1.218 4.118M438.201 371.963l1.2-.156 2.517-.233 1.477-.217.987-.121M460.027 371.495l-.992-.168-.73-.078-.764-.044-.93.048-.787.017-.76-.082-1.245-.116-1.957-.277-.769-.104-.418-.009-1.076.143-1.183.156-.876.047-1.583.052-1.575.156M396.092 162.514l.004-.312.071-1.22.17-1.41M418.055 143.885l-.604.406-.534.407-1.29 1.376-2.276 2.7-.392.562-.39.813-.237.762-.178.605-.195.45-.187.277-.23.12-.086.044-.631.079-.952.12-.69.264-1.213.827-1.921 1.648-1.788 1.237-.934.61-1.476.727-1.553.675-1.96.606-.64.164-.499.078-.863.13M377.31 155.873l2.207-.264 3.79-.26 1.734-.138 1.143-.177 1.04-.377.89-.168 5.532-.286.542.065.423.121.32.182.196.355.249.744.96 3.902M396.092 162.514l.057 2.683-.177 1.236-.294 1.394-.214.969-.56 1.15-.578 1.42-.364.951-1.103 1.722-4.207 6.282-1.383 2.22-.343.722-.191.527-.298 1.203-.48 2.458M368.81 225.166l1.387-1.79 3.006-4.639.582-.947.36-.687.285-.78.294-1.09.427-1.877.204-.779.302-.865.339-.7.764-1.54.89-2.051.258-.65.347-.627.498-.61.613-.727.712-1.012.382-.779 2.49-4.923 1.121-3.132 1.424-4.863.462-2.647M367.856 189.347l10.15-.996 7.95-.9M367.856 189.347l-.221.7-.747 3.841-.605 3.617-.747 3.218-.729 4.361-.223 1.393-.347 2.137-.871 4.275-.107.96.036.735.08.676.169.683.302.865.49.978.577.9 2.064 3.166.4.65 1.432 2.664M375.604 241.52l-1.014-3.16-.48-1.513-.57-1.376-.462-1.064-.933-1.973-.855-1.583-.39-.727-.321-.666-.738-1.869-1.032-2.423M367.502 157.045l9.808-1.172M367.535 169.692l.242-1.346.783-4.205.338-2.457-.036-.797-.142-.909-.427-1.306-.338-.779-.453-.848M433.204 200.383l-.06-.339-.404-1.726-.285-1.419.009-1.47.471-3.081.24-2.302-.044-1.61-.56-3.728-.738-2.665-1.255-2.683-.424-.713-.118-.342-.015-.344.29-1.283 1.175-2.69.311-.97.169-.977.192-1.315-.05-1.385-.075-.54-.156-.464-.298-.562-.658-.667-.498-.584-.12-.255-.03-.38v-.265l.235-.761.31-.619 1.869-3.236.871-1.652.151-.892-.08-1.358-.284-1.03-1.13-3.15-.48-1.808-.498-2.024-1.459-2.89-.48-.77-.204-.745-.028-.64.045-.788.213-.804.339-1.756-.285-1.03-.418-1.16-1.308-2.254M418.055 143.885l.445-.269 1.424-1.038 1.156-.987 1.979-1.617 2.352-2.016 1.183-1.065.454-.285.346-.217.258-.134M442.977 366.4l-.094-.658-.075-.666v-.636l.09-.523.248-.775.596-1.449.303-.821.417-1.048" clip-path="url(#pdb5158ec12)" style="fill:none;stroke:#000"/><path d="m443.27 355.49.828 2.751.364 1.583M460.027 371.495l-.774-1.107-.925-.986-.827-.744-.854-.52-1.44-.786-.98-.494-1.128-.363-1.744-.476-1.156-.207-1.147-.156-.748-.26-.587-.311-.488-.459-.32-.346-.49-.882-.996-1.826-.96-1.748M433.204 200.383l-4.511.15-6.377.138M431.715 211.597l.287-.707.31-.917.24-.874.42-2.25.248-1.488.133-1.064.045-.805-.018-2.111-.176-.998M367.535 169.692l-.291 1.613-.08.935.026.9.56 4.542.348 3.539.409 2.682.142 1.41-.053 1.41-.267 1.057-.473 1.567M367.535 169.692l2.946-.03 1.299-.165.8-.286.365-.32.436-.493.186-.51.347-2.691.08-.278.143-.138.31-.043 4.804-.701 7.827-.727 4.785-.45 4.229-.346M377.579 149.57l-.269 6.303M338.866 395.1l.165-1.052M338.484 398.444l.192-1.652.19-1.692M338.484 398.444l-.22 2.498M338.117 402.62l.148-1.678M338.117 402.62l-.64 6.297M334.618 392.324l-.538-.134-1.739-.275" clip-path="url(#pdb5158ec12)" style="fill:none;stroke:#000"/><path d="m334.475 393.1.131-.144.063-.141.013-.17-.01-.146-.054-.175M334.618 392.324l1.125.23M334.475 393.1l1.072.249M332.11 392.594l2.279.487.086.02M335.547 393.349l2.15.433.777.177M335.743 392.554l-.1.066-.074.084-.073.14-.049.155.004.118.018.094.078.138M332.341 391.915l-.15.104-.077.14-.031.147.009.15.018.138M332.11 392.594l-.885-.177M332.341 391.915l-.832-.158M331.225 392.417l.17-.12.068-.092.038-.098.02-.14-.012-.21M331.225 392.417l-2.748-.585M338.474 393.959l.557.089M339.137 393.282l-.106.766M347.04 396.805l.352-1.328.08-.545-.098-.246-.124-.173-.256-.108-2.17-.138-2.072-.26-2.34-.502-1.275-.223M585.22 570.882l-2.56 10.243.675 3.113-1.139 3.876-2.267 2.829M351.154 243.068l.81-.182.63-.104h.721l1.13.017 2.481-.103 6.173-.329 6.084-.398 6.421-.45M356.989 404.67l1.672.211 1.058.147.89.225M333.293 375.394l.189-1.268.764-3.902.56-2.76.65-3.158.543-2.846.222-.84.196-.406.275-.208.33-.103 2.97-.252 3.629-.38 2.535-.121 1.352.06 1.085.06.604-.077.792-.26.97-.371.773-.442.472-.475.4-.537 1.254-1.773.507-.77.462-.892.961-2.11.436-.78.791-1.046.41-.476 1.031-1.073.712-.822.453-.726.285-.64.311-.866.285-1.228.818-3.565.213-1.998.17-2.535.098-3.21-.09-3.686.072-2.162.044-1.186.134-1.271.133-1.238.276-1.168.338-1.099.71-1.41 1.45-2.535.686-1.462.818-2.301.818-2.613 1.317-3.652 1.352-3.616.675-1.652.792-1.212.738-.969.925-1.012.96-1.263.553-.909.569-1.185.613-1.064.73-1.108.764-1.08.49-.832 1.183-2.396 1.289-3.072.498-1.289.917-2.855.266-.709.187-.51M371.455 279.108l3.545.298 7.008.675M332.893 378.987l-.034.502-.151 2.968-.107 1.081" clip-path="url(#pdb5158ec12)" style="fill:none;stroke:#000"/><path d="m245.074 377.101-.925-.83-1.423-1.73-1.138-1.246-.143-3.322.427-1.108 2.847-.484 3.414 1.315.784 2.7 1.28.414 2.348 3.392.925 3.876 2.135 2.353 3.415-2.284 2.135-.07 5.55 6.99 2.704 1.662 1.636.139 1.992-1.177 2.42 1.038 3.344.208 3.557-1.038 5.55.138 9.534 2.63h5.622l.711-2.215 5.408-1.66 1.779-1.731 1.636.069 4.483-4.291 6.973-1.626 8.547 4.325M249.522 422.592l-.863.509-1.05.597-1.228.648-1.133.546-1.25.484-1.116.342-1.357.385-1.85.493-2.027.519-1.14.294-1.093.2-.97.146" clip-path="url(#pdb5158ec12)" style="fill:none;stroke:#000"/><path d="m229.732 418.61.631.407.534.39.525.484.364.476.303.562.32.857 1.192 2.924.32.891.249.83.151.623.125.701M474.248 379.814l1.646.917 1.85 1.008 1.859.943 1.29.545 1.627.614.84.23.748.151.983.103 1.85.07.342.052.343.134.248.186.165.229.414.912.24.806.036.51-.018.493-.107.302-.373.52-1.184 1.367-.596.96-.453 1.047-.098.407-.054.276.018.312.09.26.16.268.373.432.427.33.391.198.783.233 2.046.26 2.01.355 1.005.13.534.129.587.303.756.485.506.345.863.312.707.164.493.044.401-.083.311-.156.32-.185.676-.26.4-.078.899.07.471.043M542.583 387.293l-.801.057-.632.103-.431.19-.405.316-1.459 1.7-.346.294-.32.213-.49.137-.64-.017-1.005-.12-1.387-.235-1.504-.224-2.099.034-1.76.217-1.273.32-.978.199-.644.078-.69-.108-.57.004-.675.15-.88.273-1.228.468-.556.203-.694.225-.391.052-.462.021-.57-.06-.751.026-.894.09-.947.018-.739-.056-1.156-.2-.498-.068-.516.078-.791.311-1.521.735-1.984.727-5.683 2.319-1.646.528-.657.103-.837.113M534.097 459.98l.178-1.773.107-1.773.257-2.57.046-1.436.026-.631.066-.52.116-.466.254-.667.809-2.837.276-1.48.151-.908.08-.84-.071-.692-.16-1.055-.387-1.764-.218-.528-.267-.381-.391-.39-.596-.276-.996-.19-1.236-.269-.979-.38-.916-.528-.583-.502-.533-.44-1.499-1.074-.658-.518-.356-.416-.364-.606-.267-.631-.596-1.912-.4-1.367-.316-.692-.289-.484-.53-.628-.4-.31-.534-.239-2.009-.813-.725-.38-.458-.2-.583-.177-.556-.238-.43-.251-.642-.38-1.004-.45-.899-.294-.8-.364-.374-.311-.142-.225-.062-.33.03-.652-.061-.39-.112-.207-.244-.186-.267-.139-.912-.358-1.111-.554-.343-.286-.271-.29-.338-.527-.827-1.437-.356-.665-.249-.602-.08-.298-.133-.883-.063-1.375.045-.745.177-.782.116-.567-.027-.519-.186-.545-.267-.554-.614-1.548-.418-1.272-.622-2.232-.365-.934-.204-.416-.347-.432-.383-.372-.88-.684-.943-.761-.445-.562-.738-1.393-.57-.986-.453-.96-.703-1.774M460.027 371.495l.547.213.574.238.675.345.49.226.827.259 2.214.675 2.357.878.388.225.368.298.48.52.788.873 1.988 2.15.329.307.44.294.445.251 1.311.567" clip-path="url(#pdb5158ec12)" style="fill:none;stroke:#000"/><path d="m542.583 387.293-.028-.372-.089-.372-.186-.45-.427-.718-.391-.658-.614-.83-.502-.55-.29-.242-.329-.168-.4-.078-.543-.039-.445-.108-.337-.199-.508-.51-.542-.645-.418-.697-.347-.891-.195-.674-.183-.35-.324-.43-.414-.371-.476-.33-2.988-2.542-3.282-2.899-1.566-1.272-1.903-1.704-1.111-.804-.534-.528-.623-.71-.898-.865-.88-.648-.748-.425-1.102-.683-1.61-.753-.623-.207-.783-.113-.747-.052-.649.104-.578.087-.765.077-.552-.043-.782.052-1.21.19-.854.147-.667.26-.818.398-.516.112-.818.07-.898.164-1.005.416-.97.518-.863.71-1.005 1.09-4.118 5.078-.72.719-.49.423-.675.269-.445.19-.685.372-.747.467-.623.338-.817.389-1.584.909-2.384 1.236-.728.295-.587.12-.623.096-2.1.208-2.365.19-.827.043-1.103-.173-1.636-.346-.908-.19-.578.008-.525.13-.738.26-.81.363-1.183.662M437.17 372.265l.417-.164.614-.138M442.977 366.4l-.712.424-.907.71-.71.63-1.53 1.844-.33.518-.25.442-.337.995M410.441 410.634l.01-.458-.115-1.722-.027-1.159.16-1.955-.018-.615-.062-.588-.373-2.708-.24-3.763-.259-2.552-.098-.589-.204-.683-.267-.631-.24-.701-.106-.64.035-.71.116-.622.23-.571.33-.485.498-.58.667-.657.578-.346 1.299-.415 1.378-.252 2.437-.225 1.04-.12.774-.165 1.148-.346.89-.406.8-.433 2.08-.797 2.224-.588 1.815-.389 2.766-.441.836-.182.614-.242.55-.337.393-.415.408-.632.756-1.385 1.103-2.205.597-1.341.55-1.471.33-1.116.445-.745.578-.683.302-.303M422.903 245.066l.471.545.766.675 1.004.857 1.744 1.376 1.974 1.34.307.251.351.355.391.494 1.112 1.678 1.014 1.506 1.343 2.457 1.2 2.388.313.757.097.415.027.437.062 1.116.133 2.284.196 1.047.427 2.146.098.683.045.71-.01 1.298-.062 1.072.08.848.125.822.271.835.173.571-.013.372-.115.364-.254.29-.44.29-.885.505-2.001 1.186-1.396.978-.819.605-.516.545-.569.874-.543.857-.542.89-.223.425-.195.502-.17 1.038-.186.83-.062.805.08.995.009.562-.027.9.009.657.169.805.231 1.038.107.874-.036.909-.088 2.388-.09 1.73-.035.796.089 1.064.115.667.25.804.373.986.133.64.116.831.222 1.047.187.788.231.605.338.675.418 1.055.187.667.125.787.178.77.16.684.24.657.703 2.474 1.032 4.292.764 2.543 1.414 3.989.41 1.246.373 1.245.258 1.03.249.77.422.96.619 1.298.32.848.196.796.248 1.107.267 1.012.623 2.294 1.876 6.211.418 1.367.232 1.082.115.778.196 3.262.258 1.873.09 1.268.133 1.098.222 1.021.516 1.86" clip-path="url(#pdb5158ec12)" style="fill:none;stroke:#000"/><path d="m453.952 347.617-.862 1.073-1.308 1.454-.471.453-.4.29-.294.109-.543.177-.933.346-3.834 1.998-.435.234-.285.303-.294.407-.177.303-.232.268-.613.458M422.903 245.066l1.254-.112.409-.07.427-.181.373-.337.49-.346.462-.269.88-.302.828-.295.756-.424.605-.406.32-.38.249-.511.364-.987.419-1.436.462-1.973.178-.484.187-.33.302-.18.507-.148 3.077-.7 4.127-1.082.774-.216.383-.295.213-.276.142-.46.08-.32M456.176 452.54l-3.353 3.028M452.823 455.568l2.26-.363 2.115-.277.957-.065.569.009.636.082.476.117 1.525.48.845.25.934.174 1.316.121 1.174.147.748.026.728-.112 3.47-.493.693-.147.64-.268.641-.442 1.005-.779.685-.648 1.022-1.324M337.395 400.858l.87.084M368.026 399.31l-.086 1.799M368.026 399.31l.125-3.348M368.026 399.31l-3.053-.098M371.373 396.026l-.056 3.414-3.29-.13M343.99 401.619l-5.725-.677M375.917 431.71l-2.808 9.736-.109.157-.095.098-.13.106-.124.05-.133-.027-1.53-.787-.048-.046-.028-.057-.018-.067.002-.065.083-.863M333.293 375.394l1.22-.032 1.157-.043.667.104.72.148.88.328.596.329 1.157.908.676.563.506.536 1.024 1.021.516.554.417.57.418.745.347.674.098.468.045.519v.77l.008.441.107.346.143.255.142.195.138.095.153.004.158-.045.134-.063M332.893 378.987l.055-.787.142-1.444.203-1.362M249.522 422.592l-1.895-2.545-1.877-2.31-.863-1.003-1.823-1.783M533.898 553.184l1.338-.52 1.298-.415 1.032-.432.907-.433 1.281-.588.747-.398.498-.398.516-.545.453-.398 1.103-.752.534-.364.88-.778M364.81 400.999l.163-1.787M364.81 400.999l3.13.11M367.94 401.109l-.057 1.183M341.226 419.707l.172-2.757M341.226 419.707l-8.083-1.114M345.5 425.975l-4.138-.538-.267-.096-.142-.12-.045-.182v-.19l.318-5.142M342.25 409.607l-.852 7.343M312.331 412.408l2.981 5.345.555 1.005.173.195.187.077.169.005.147-.078.165-.285 1.752-3.487M424.015 213.572l.213-.908.285-.684.178-.242.169-.121.258-.052 6.597.032M635.063 468.025l2.206 2.907-.854 2.56-.712 1.523-1.707.9-2.134 4.152-3.202 7.89.142 3.322-2.135 1.522-2.49 2.7-1.494 4.498-1.423 6.92-1.353 6.298v4.222l1.245 6.475 1.726 7.71.377 2.99 1.053 1.75.28.465.34.565-.324 2.412-2.103 3.357-1.89 1.402-.443.328-.849.63-1.725 1.94-4.153 2.832-3.78 1.833-14.3 8.097-2.977.591-.333.067-3.558 1.487-3.272 8.512M333.143 418.593l-1.369 8.548M409.58 412.641l-1.17-.414M408.41 412.227l-5.858-2.141M408.41 412.227l-1.179 3.46M408.41 412.227l.699-2.056M402.552 410.086l-5.047-1.872M402.552 410.086l.641-1.97M402.552 410.086l-1.14 3.496M397.505 408.214l-.991 3.534M403.193 408.117l-5.158-1.79-.53 1.887M396.514 411.748l4.899 1.834M400.333 416.899l-4.788-1.697.969-3.454M401.413 413.582l5.818 2.105M401.413 413.582l-1.08 3.317M409.722 416.586l-2.49-.9M405.178 422.148l-5.842-2.082M405.178 422.148l.943-3.198M406.121 418.95l3.37 1.194M406.121 418.95l-5.788-2.051M406.121 418.95l1.11-3.263M409.109 410.171l.542-1.89M409.109 410.171l-5.916-2.054M409.109 410.171l1.332.463M403.745 406.586l-.552 1.53M400.333 416.899l-.997 3.167M410.441 410.634l-.008.39-.018 1.124-.23 3.037-.08 1.583-.178 1.427-.383 1.696-.053.253M337.253 383.521l-.176-4.124M337.077 379.397l.05-1.274M337.077 379.397l1.474.144M337.077 379.397l-4.184-.41M310.535 413.35l1.796-.942M371.373 396.026l-3.222-.064M371.373 396.026l.264.005M368.15 395.962l-2.88-.017-.297 3.267M333.364 404.209l-.383 3.137" clip-path="url(#pdb5158ec12)" style="fill:none;stroke:#000"/></g><g id="PatchCollection_1"><path d="m-154.076 524.369 2.837-1.272 1.147.017 1.059-1.167.845-1.238 1.156-.873 1.868-.796 1.708-.017.284.458 2.046.276 1.494-.12 1.05-.866-.071-1.782.124-.969-.451-.812 1.002-3.028.25-1.99.597-1.21 1.36-.624 1.12.502.8-.122.747-.743.605-1.056.8-1.055.972-2.577-.544-1.299.8-1.833.498-2.578.356-3.08-.018-1.972-.32-1.194-.64-1.142.16-.952-.854-1.505-.747-.779 1.167.14.256-4.448.818-1.09.089-1.228.498.173.694 1.193.302.9-.747 1.315.462.744.8.57.89.07.41 1.177 1.334 1.609.462 1.384 1.388 1.955.622 1.35.196 2.128.64 1.523.847 1.886-.366 2.387-.053 1.903.284 1.99.16 2.006.552 3.79.533 3.235 2.224 2.509 1.85 1.298 2.277-.208 2.472-.64 1.423.103 2.152 2.284 1.406 1.315 1.903-.484 2.081.743 1.975.554 2.117-.796 2.24.64 1.868-.415 1.53-.9.427-2.44.374-2.733.943-1.401 1.69-1.073-.516 1.696-.285 1.937.196 2.077.498 1.28.41 1.315.426.986 2.046-.19 1.85-.675 1.049-1.591.41-2.25.782-.761 1.262-.12 1.708.258 1.139-.173.818-.57 1.067-1.039.783.242.996.71 1.761-.485.8-1.21.997-1.16 1.138.554.605.087 1.548-.19 1.263-.451.872-1.02-.197-1.298-.408-.416-1.121-.38-1.387-.51-.748-.995-1.716-1.16-1.032-.484-2.25-.536-2.642-.77 2.224-.355.934.208 1.36.156 1.308.103 1.459-.26 1.912-.709 2.463-1.098 1.93-.779 1.299-1.142.436-1.176.053-1.125.863.233 1.2-.276 1.406-.856.8-1.756.285-1.203-.907-1.047-.347-.64.302-.268 1.28-.753.357-1.358.276-.597.595.277.872-.39-.249-1.055.027-.744.498-.735 1.165-.986-.009-.943-.587-1.107.027-.84.24-1.609-.133-2.405 1.218 1.497 2.028.614 1.832.087 1.512-.148.436-1.27 2.223.284 2.295-.25.73.718 1.725-.502 1.067.597-.08 1.48.845.82.774-1.184-.08-1.393 1.92-.32.73-.753 1.13-.761 1.894-.649 1.05-.104.64.64.56 1.116.33 1.133 1.051.875 1.199.31 1.53-.31 2.294-.97 1.85-.12 2.313.501 1.92.623 1.709.796 1.351-.225 2.188-1.454.302-.813 1.05-.709 2.473-1.488.39-1.245-1.493-4.222 1.583 1.107 1.334.9 1.156.224 1.175-1.314.71 1.834 1.37 2.387.552.415 2.117-2.145.73-1.626-.57-.9-.783-.726.676-.208 1.37.484 1.512.762.729 1.782 1.655 1.4.8.9 2.152 2.475.854.64 1.388 1.298 1.583.813 3.486.364 1.512 1.228 1.975.796 2.366.726 2.863.087 1.37-.882 1.975-.918 2.045-.502 1.228-1.799 2.24-.969 2.438.38 2.224.14 1.458-.64 1.228-1.904.73-2.543.988-7.336 2.657.12.534-.587-.178-.83.374-.434-1.067-1.522-1.708-1.869.178-.744.533-.432 1.405.536 1.815 1.54 1.477.606 1.494-.19 2.081-1.247 1.85-2.041 1.298-1.28 1.175-2.561 1.814-1.142 1.067-1.765 1.494-2.387 1.583-1.938 1.957-1.817.89-2.63-.054-2.492.16-4.048-.765-1.748-.284-2.976-.285-2.647-.925-2.768 1.53-.58 1.539-.208 1.031.459 2.357.432 2.508.588 2.473 1.039 3.878 2.474-2.508 2.198-.961.813.018.934-1.406 3.114-.622 2.007.09 3.34-.09 2.924-.195 4.636-.605 2.492-1.032 2.06-1.28 1.867-.73 2.111-2.1 1.852-.195 1.072-.64 1.627-1.743.554-2.01.069-2.49.398-.855 1.298-.658 1.401-.25.848.054 1.315-.39 1.367.124 1.193 2.045 1.333.64 1.332.481 2.11 1.05 2.96-.872 1.574-1.53-.017-.498.726-.124 1.436-.054 1.488.516 2.025.569 1.453 1.014.986 1.245-.312 2.402-.26-.925 1.835-.498 1.973.284 1.66 1.085 1.125.765 1.367.445 1.626-.303.796-.302-.017-.48-.865-.978-.554-.445.727.302 1.556.978 1.142 1.032.416.623 1.402-.89 1.055-.23 1.193.07 1.402-.64.363-1.405-2.249-.676.018-1.316.415-1.442 1.35-.231.362-1.013-.12-2.687-.918-1.323-.432-1.95-.26-2.24-1.02-2.065.397-1.138-.242-.409-1.107-.96-1.212-.285-.916-.623-.796-.658-.64-.712-1.817-1.138-.657-2.348-.571-.302-.052-.178-1.056.249-.934-.427-1.073-1.281-1.055-1.323-.691-.74 1.28-.943.933-1.21-.294-2.58-1.92-.782-.346-.8 1.73-1.53.917-2.657 1.714-2.11 1.054-1.708.986-.729 1.385-.107 1.21.32 1.714 1.032 2.006-1.53-1.315-1.138-.813-1.085.277-1.441.26-.8-.588-.926-.537-1.992.173-1.192-.173-1.103-.484-1.245-.64-1.6.242-1.157.346-1.085.744-1.69 1.055-.765-.173-1.618-.485-1.085.243-.481.986-.498 2.267-.694 1.246-1.038 1.61-.456.345-.444 1.487-.09 1.852-1.298-.623-1.352-.814-1.423-.363-.943.537-.765 1.522-.009 1.081-.124.485.044 1.35.374 1.314 1.05 1.35 1.156 1.289.204.666.036 1.159.035.502-1.45.346-.506.623-.232.553.143 1.35-.24.19h-.694l-.383-.501-.703-1.29-.978-.415-.72-.233-.756.605h-.907l-1.664.139-1.28.034-1.112-.726-2.064-.078-1.333.242-1.7.77-1.316.527-.747.018-1.085-.562-.916-.831-.676-1.124-.631-.849-.543-.561-.356-.624-.337-.908-.837-.285-1.04-.251-1.101-.303-.847.7-1.076.676-.96.069-.864.225-.8-.788-.943-.043-.88.2-.899.787-.444.665-.08 1.134.115 1.92.48 2.457.41 1.462.64 1.462.774.648.418.857-.018.779-.578.467-.187.951.65 1.393.711.71.196.467.942 1.41.383-1.393.569-.147.703.934.169 1.047.934 1.392 1.147-.432.418-.554.187-1.046-.116-.84.711-.985.587 3.676-.347 1.22-.255 1.358.176.623.65 1.453.906 1.254.382 1.401 1.13 1.48 1.12 1.003.543 1.272.125 1.047-1.085.38-.836-.856-1.29-.415-.925.138-.569.805-.587.64-.827.76.204 2.82.926 2.077-.357 2.284.605 2.387.32 2.163.658.329 1.46.138 1.244.744.09 1.038-1.281.052-.64.415-.463 1.384.73 1.367.106 1.937 1.12 1.42 1.228.726.996 1.73.836.779 1.334.518 1.281-.709.871-.034.837.57.195.624v1.487l.09 1.211-.054 1.073-.872 1.194.303 1.401.658 1.678 2.58 1.817 2.08.311-1.992.83-.658.572-1.53-.381-2.277-.398-.391 2.145-1.459.312-1.245 2.318.96 2.699 1.388.588 1.956-.208 1.708 1.142 2.349.813 1.636.71.053.934-.978.26-2.01.467-.534.605-1.814.156-1.388.779-.729 1.037.48 1.28 1.37 1.558 1.886 2.04 2.792.59 1.708 1.452-.053.9-4.02.917-2.153.606-1.654.587-.8.71-.267.848.249 1.297 1.903 5.346 2.241 3.062 1.761 2.232 2.26 2.768 1.387 3.253-.63.882 1.04 1.072-2.331.156-1.103-1.02-.871-2.025-3.131-1.885-2.17-.744-1.53-.381-.908.312-.195.605-.125.623-.355 1.28-1.512-1.8-1.14-1.47-1.137-.346-.41.294-.017.467-.125.796-.783-.052-1.173-3.46-.498-2.352-1.246-1.247-1.263-.553-1.885-.104-1.37 1.055-.053.9-1.157-.138-.8.07-.053 1.02-.178 2.059-.73-2.025-.409-1.574-.587-.346-2.277-.761-1.21.605-.747-.813-2.258-.277-1.032-.917-2.348-1.228-1.85-.432-2.241-.035-1.815.64-1.37.104-1.05.484-.764 1.782-1.263 2.111-.996 1.903v2.82l-.018 3.097-.818 3.304-1.6 1.678-2.242.554-.926.622-.622 1.402.409 1.21.747 1.471-.587 1.194-.64 1.972.195 3.599.072 4.152.622 4.169.747 4.152-1.156-2.284-.515-1.159-.89-.865-.747-.12-1.156-.45-1.014-.485-.445-.519.48-1.142.836-1.02.516-.589-.64-1.418-.712-2.146-.382-1.357-.899-2.154-.951-.493-.898-.701-.552-1.263-.631-.813-.276.432-.071.978-.374.717-.24.667-.036.934.009 1.09-.23.752-1.157-1.297-1.281-2.993-.907-2.768-.587-2.197-.736-1.902-.456-1.264-.818-1.038.177-.675 1.353-.518 1.174-2.527-.125-1.228-2.223-1.142-1.228-1.072-.907-.744-2.046-.537.196-.225.463-.83 1.565-.398.8-.45.071-1.02-.8-3.34.213-2.3-.177-1.99-1.281-.847-1.992-.398-2.135.12-1.476.416.284-1.107.747-1.332.836-1.748.303-1.349-.516-.934-2.473-.606-1.778.19-.09-.415.374-1.418-.498-1.004-.73-1.21-1.014-1.16-1.547-.207-.64-.225-.979-2.613-.818-.657-.854.035-.533.484-.854 1.176-.267-.536-.41-1.47-.613-1.021-.685-.139-1.218.441-.934.096.24-.494.72-.734.872-1.048.436-1.115-.436-1.09-1.53-1.133-1.076-.19-1.085.432-.96.718-1.13.968-.765.105-.302-.304.302-.933.125-.883.258-.779-.152-1.375-.231-.805-.302-1.85-.009-1.506-.347-1.21-.578-.502-1.423.761-.658 1.09-.232 2.344-.498 2.024-1.022 1.358-.881.355-.516-.52-.027-1.02.036-3.045-.48-1.21-.943-.719-.596-.233-1.236.865-1.156.277-.436-.45-.205-.666-.044-1.592.009-1.67.115-.925-.284-1.444-.525-1.23-.774-1.158-.987-.796-1.975-.078-2.241-.104-1.396-.26-.881-.017-.347-1.132-.462-.684-.89-.285-.471-.822-.463-1.35-.916-1.35-1.165-.752-.667-.666-.551-1.038.026-1.02-.684-1.619-.356-1.427-.65-1.938-.657-.908-.33-.795-.56-2.691-.471-1.816-.872-1.506-.258-1.401-.24-1.402-.543-.925-.96-.441-1.521-.355-1.147-.735-2.135-1.765-3.29-1.479-1.851-.64-2.081.07-.415-1.1-.404-1.236-1.103-2.302-1.636-4.515 2.33-1.056-.996-2.266-2.33.675-2.506-8.192zm62.33 6.392-.89.035-1.6.796-1.78 2.232-1.553 1.73-1.221 1.626-.8 2.197-1.513 1.402-.747 1.176-.249 1.453.26 1.973.488 1.315.266 2.422.854 1.695.67 2.181 1.394 2.56 1.636 2.526 2.989 2.283 2.703.693 2.241.45 5.544 1.592 3.92.38 2.199-.38 3.92-.797 2.473-.528.516-.752.347-.71 1.485-1.781.872-2.492 1.013-1.418 1.068-.9 1.743-.433 1.512-1.245 2.099-3.391 1.53-.623.693-2.353.837-2.993.177-2.318.107-1.73-.427-1.99-.853-2.024-1.46-1.298-.462-.589-.693-1.435-1.555-1.142-1.47-1.627-2.544-1.35-2.817-1.036-1.22.068-2.33-.156-1.566-.986-1.779.346-.505.59-2.714.12-2.473-.433-1.156.208-1.91.381-2.484 1.453-1.494.9-1.12.605-1.033 2.249zM417.252 459.138l.194-.158.11-.221.01-.246-.096-.228-.182-.17-.237-.085-.252.017-.224.116-.155.194-.061.239.044.242.142.203.214.13.25.035z" clip-path="url(#pdb5158ec12)" style="fill:#00f;fill-opacity:.8"/></g><path id="PatchCollection_2" d="m428.791 452.817.8-3.426 1.406-3.46.765-1.194.96.831.872 1.072-.659 1.125-2.685 3.236z" clip-path="url(#pdb5158ec12)" style="fill:#006400;fill-opacity:.8"/><g id="PatchCollection_3"><path d="m328.904 392.317-1.624 2.474 10.33 1.16.241-1.473zM345.17 407.206l-1.559-.183.305-2.468 1.56.184zM144.687 419.45l.546-.199.365.472.156.285.43.168.592-.345.222-.494-.56-.79-.924-1.122-.48-.553-1.29.83-.619.507.663.908.271.234zM359.568 417.789l.907-2.881 3.994 1.194-.881 2.959z" clip-path="url(#pdb5158ec12)" style="fill:green;fill-opacity:.8"/></g><g id="PatchCollection_4"><path d="m577.7 585.59-1.077-2.99 5.303-1.807 1.077 2.991zM156.112 419.757l1.883-1.576-3.042-3.44-1.882 1.574zM368.978 167.477l4.17.358.504-5.53-4.17-.358zM585.798 723.344l-2.243-5.117 3.792-1.572 2.243 5.117zM326.65 373.71l4.41.475-.61 5.336-4.41-.476zM433.411 197.822l.759 4.588 3.19-.498-.758-4.59zM457.05 345.117l-2.257-5.426 3.502-1.379 2.256 5.427zM522.167 419.371l-1.101-4.978 3.402-.712 1.1 4.979zM335.6 415.64l.838-5.715 3.45.479-.838 5.715z" clip-path="url(#pdb5158ec12)" style="fill:#90ee90;fill-opacity:.8"/></g><g id="PatchCollection_5"><path d="m298.425 410.413 4.314 8.287 3.182 4.773 2.103 2.518 2.642-.682 3.937-1.52 1.24-1.575 2.75-2.78 2.264-1.1 3.074-.63 3.451-.682 9.167.262h2.427l.97 3.776-.275 4.597 1.425 1.205 1.548 1.205 3.16 2.049 7.68 2.952 1.983.421 3.406.543 3.22 3.193 1.673 1.868 2.726 1.626 2.912 1.085 3.406 1.205 3.283-1.145 2.912-10.844 1.114-3.736 2.725-8.194.497-2.35v-4.157l-6.009-5.423-3.47-3.073-3.839-5.362-4.832-1.687-9.663-3.133-9.662-3.495-6.319-1.325-4.955-.603-4.032-2.232-5.834-3.252-3.807-.797-3.237.104-1.601 1.904 1.6 2.076 6.938 4.74-3.949 4.915-2.348 3.149-2.953 3.495-7.72 3.391zM394.104 417.002l3.06-12.977 14.443 3.98 1.281 7.682-2.49 9.412-11.67-4.36-5.016-2.873z" clip-path="url(#pdb5158ec12)" style="fill:#d3d3d3;fill-opacity:.8"/></g><g id="PatchCollection_6"><path d="m329.685 396.315-.214.97 1.067.241.178-1.038zM145.971 419.236l.45-.06.103.721-.45.061zM391.83 424.228l.4-.708.778.427-.4.685zM391.272 424.163l.068-.126.178.093.335-.614-.364-.188.064-.118-.416-.215-.07.13-.423-.217-.36.658.622.32-.038.07zM341.29 411.84l.055-.65.376.03.082-1-1.088-.085-.08.986.285.023-.055.663z" clip-path="url(#pdb5158ec12)" style="fill:#a9a9a9;fill-opacity:.8"/></g><g id="PathCollection_1"><defs><path id="m81c7e3b2ef" d="M0 3a3 3 0 1 0 0-6 3 3 0 0 0 0 6z" style="stroke:#a9a9a9;stroke-opacity:.8"/></defs><g clip-path="url(#pdb5158ec12)"><use xlink:href="#m81c7e3b2ef" x="351.599" y="397.872" style="fill:#a9a9a9;fill-opacity:.8;stroke:#a9a9a9;stroke-opacity:.8"/><use xlink:href="#m81c7e3b2ef" x="321.573" y="401.852" style="fill:#a9a9a9;fill-opacity:.8;stroke:#a9a9a9;stroke-opacity:.8"/></g></g></g></g><defs><clipPath id="pdb5158ec12"><path d="M90 127.164h558v472.873H90z"/></clipPath></defs></svg>